<?xml version="1.0" encoding="utf-8"?>
<!-- Generator: Adobe Illustrator 21.0.0, SVG Export Plug-In . SVG Version: 6.00 Build 0)  -->
<svg version="1.1" baseProfile="tiny" id="图层_1"
	 xmlns="http://www.w3.org/2000/svg" xmlns:xlink="http://www.w3.org/1999/xlink" x="0px" y="0px" viewBox="0 0 348.4 542.1"
	 xml:space="preserve">
<title>Anime10_13_57</title>
<g>
	<path fill="none" d="M248.2,232.8C248.2,232.8,248.2,232.8,248.2,232.8L248.2,232.8C248.2,232.8,248.2,232.8,248.2,232.8z"/>
	<path fill="none" d="M320.4,401.1C320.3,401.1,320.3,401.1,320.4,401.1c-0.1-0.1-0.1-0.1-0.2-0.1c0,0.1,0,0.1,0,0.2
		C320.3,401.2,320.3,401.2,320.4,401.1z"/>
	<path fill="none" d="M318.4,510.8C318.4,510.8,318.4,510.8,318.4,510.8c0,0-0.1,0-0.1,0C318.3,510.8,318.4,510.8,318.4,510.8z"/>
	<path fill="none" d="M122.4,365.6c-0.2,0.2-0.4,0.3-0.5,0.5c0.1,0,0.2,0,0.3,0c0.1,0,0.1,0.1,0.2,0.1c0,0,0-0.1-0.1-0.1
		C122.3,365.9,122.4,365.7,122.4,365.6z"/>
	<path fill="none" d="M184.9,374.9C185,374.9,185,375,184.9,374.9C185,375,185,374.9,184.9,374.9C185,374.9,185,374.9,184.9,374.9z"
		/>
	<path fill="none" d="M5.1,285.9C5.1,285.9,5.1,285.9,5.1,285.9L5.1,285.9C5.1,285.9,5.1,285.9,5.1,285.9
		C5.1,285.8,5.1,285.8,5.1,285.9z"/>
	<path fill="none" d="M54,266.1c0.1,0.1,0.2,0.3,0.3,0.4c0-0.1,0-0.3,0.1-0.4C54.2,266,54.1,266,54,266.1z"/>
	<path fill="none" d="M149.2,419C149.2,419,149.2,419,149.2,419C149.2,419,149.2,419,149.2,419C149.2,419,149.2,419,149.2,419z"/>
	<path fill="none" d="M174.2,326.1c0-0.1,0-0.1,0-0.2c-0.1,0-0.1,0-0.2,0.1C174.1,326,174.2,326.1,174.2,326.1
		C174.2,326.1,174.2,326.1,174.2,326.1z"/>
	<path fill="none" d="M73,21.9c0,0,0.1,0.1,0.1,0.1c0,0.1,0,0.2,0,0.2c0.1-0.1,0.1-0.1,0.2-0.1c0,0,0-0.1-0.1-0.1
		C73.1,22,73,21.9,73,21.9z"/>
	<path fill="none" d="M218.6,388.1c-0.1,0-0.3-0.1-0.4-0.1c0.2,0.3,0.3,0.7,0.5,1C218.7,388.7,218.7,388.4,218.6,388.1z"/>
	<path fill="none" d="M238.2,408.2C238.2,408.2,238.2,408.2,238.2,408.2c-0.2,0.3-0.4,0.6-0.6,0.9
		C237.9,408.9,238.1,408.6,238.2,408.2z"/>
	<path fill="none" d="M164.2,195.9C164.2,195.9,164.2,195.9,164.2,195.9C164.2,196,164.2,195.9,164.2,195.9
		C164.2,195.9,164.2,195.9,164.2,195.9z"/>
	<path fill="none" d="M207.2,423.8c0,0,0,0.1,0,0.1c0.2-0.1,0.3-0.1,0.4-0.2C207.5,423.7,207.4,423.8,207.2,423.8z"/>
	<path fill="none" d="M228.1,495.8C228.1,495.8,228.1,495.8,228.1,495.8c0,0,0-0.1,0-0.1C228,495.8,228.1,495.8,228.1,495.8z"/>
	<path fill="none" d="M320.9,453c0.1,0,0.2-0.1,0.3-0.1c0,0,0.1-0.1,0.1-0.1c0-0.1-0.1-0.1-0.1-0.2c0,0.1,0,0.1,0,0.2L320.9,453z"/>
	<path fill="none" d="M71.9,446c0,0,0.1,0.1,0.1,0.1c0,0,0.1,0,0.1,0c0,0,0-0.1,0-0.1c-0.1,0-0.1,0-0.2,0C72,446,71.9,446,71.9,446z
		"/>
	<path fill="none" d="M259.3,322C259.3,322,259.2,322,259.3,322c0,0.1,0,0.1,0,0.1C259.3,322.1,259.3,322,259.3,322z"/>
	<path fill="none" d="M251.1,243.9c-0.1,0-0.1,0-0.2-0.1c0.1,0.1,0.1,0.2,0.2,0.2C251.1,244,251.1,244,251.1,243.9z"/>
	<path fill="none" d="M283.2,351.1c0,0.1,0,0.2,0,0.3l0.1-0.2c0.1-0.1,0.2-0.1,0.4-0.1C283.6,351,283.4,351,283.2,351.1
		C283.3,351,283.3,351.1,283.2,351.1L283.2,351.1z"/>
	<path fill="none" d="M123.2,417.1c-0.1,0-0.1,0-0.2,0c0,0.1,0,0.2,0,0.3C123.1,417.3,123.2,417.2,123.2,417.1L123.2,417.1z"/>
	<path fill="none" d="M91.4,266C91.4,266,91.4,266,91.4,266L91.4,266L91.4,266z"/>
	<path fill="none" d="M141.3,348.9c-0.1,0.1-0.3,0.1-0.4,0.2c0.1,0,0.2,0,0.3-0.1C141.2,349,141.2,348.9,141.3,348.9z"/>
	<path fill="none" d="M199.2,397.3c0.1,0,0.2-0.1,0.2-0.1c-0.1-0.1-0.1-0.1-0.2-0.2C199.3,397,199.3,397.1,199.2,397.3z"/>
	<polygon fill="none" points="164.4,223.9 164.4,223.9 164.4,223.9 	"/>
	<path fill="none" d="M216.6,386.1C216.6,386,216.6,386,216.6,386.1L216.6,386.1L216.6,386.1z"/>
	<path fill="#040204" d="M347.2,531.1l-68.9-0.2h-42.1c0-0.1,0-0.1,0-0.2l-2,0.2h-43h-0.1h-23.7c0,0,0-0.1,0.1-0.1c0,0,0,0-0.1,0
		H73.3c0-0.1,0-0.1,0-0.2c0,0.1-0.1,0.1-0.1,0.2l-34.9,0.1c0,0,0,0.1,0,0.1l-37,0c0,0,0,0.1,0,0.1c-0.7,1.2,0.9,3.1-1.1,4
		c0.1,1.5,0.1,2.9-0.1,4.4c-0.7,3.1,1.4,3.5,3.1,2.5c0.4-1.8,1.9-1,2.8-1h168.8l1.5,0.2l52.8-0.2h103.2c1.6,0,3.6-1.2,4.9,0.9
		l-0.2,0c0.1,0,0.1,0.1,0.2,0.1h9c0.2-1,1-1.8,2-2v-8L347.2,531.1C347.2,531.1,347.2,531.1,347.2,531.1z"/>
	<path fill="#040205" d="M345.2,0c-0.9,2-2.6,0.9-3.9,0.9H7.1c-1.3,0-3,1-3.9-0.9C1.5,0-0.6-0.7,0.1,2.5C0.3,4,0.3,5.5,0.2,7
		l0.9,0.2H38v0l12.2,0c0,0.1,0.1,0.1,0.1,0.2c0-0.1,0-0.2,0-0.3l39,0.1c0.1,0.2,0.3,0.4,0.4,0.6c0-0.2-0.1-0.4-0.1-0.7
		c4.8-0.3,9.7-0.2,14.5,0.3c0,0.1,0,0.1,0,0.2c0,0,0.1-0.1,0.1-0.1l2.5-0.2l240.6-0.1c0.3-0.2,0.6-0.2,0.9-0.2
		c-0.1-1.5-0.1-3,0.1-4.5C349-0.6,346.9,0,345.2,0z"/>
	<path fill="#FEFEFE" d="M1.3,531.1c0,0,0-0.1,0-0.1h0v-16.1c0,0,0,0,0,0c0,0-0.1,0-0.1,0c0-4.3,0-8.5,0-12.8
		c0.1-0.1,0.1-0.1,0.2-0.1c0-3.6,0-7.2,0-10.9c0.2-0.1,0.4-0.1,0.7-0.2c-0.3,0-0.5,0-0.8,0l0.1-4c0,0,0.1,0,0.1,0c0,0-0.1,0-0.1-0.1
		V477c0,0-0.1,0-0.1,0v-5c0.1,0,0.1-0.1,0.2-0.1c0,0,0,0-0.1,0V390c0,0,0.1-0.1,0.1-0.1c0,0-0.1,0-0.1,0V337c0,0-0.1,0-0.1,0v-32
		c0,0,0.1,0,0.1,0v-20c0,0,0,0,0,0c0,0-0.1,0-0.1,0v-2.9V282v-3.9c0,0-0.1,0-0.1,0V268c0.1-0.1,0.1-0.1,0.2-0.1l-0.1-2.8V255
		c0,0,0.1,0,0.1-0.1c-0.4-1.5,0.2-2.7,1.1-3.9c-2.7-1-1.2-3.6-1.2-5.6c0-11.1,0.1-22.2-0.1-33.3c-0.1-2.8,0.6-5.6,2-8
		c0.1-0.1,0.1-0.1,0.2-0.2H3.1c-1.9-0.8-1.9-2.4-1.9-4.2c0.1-12.7,0.1-25.3,0.2-38c0.1,0,0.1,0,0.2-0.1v-1.6c0.1,0,0.2-0.1,0.3-0.1
		c-0.2,0-0.4,0-0.6,0c0-9.4-0.1-18.7-0.1-28.1c0-1.7,0.1-3.3,2-3.9c0.1,0,0.1,0.1,0.2,0.1c0-0.1-0.1-0.2-0.1-0.2c1.5-5-0.9-10,0-15
		c0,0,0,0,0,0c0,0-0.1,0-0.1,0c-1.3-2.1-2-4.5-2-7c0.1-25.7,0.1-51.3,0.2-77L1.1,7.2L0.2,7v528.1c0,0,0,0,0,0
		C2.2,534.2,0.6,532.3,1.3,531.1z"/>
	<path fill="#FEFEFE" d="M347.2,165.1c0,2.3-0.1,4.7-0.1,7v8.9v6v23c0,0-0.1,0.1-0.1,0.1V221c0,0-0.1,0-0.1,0v5.9c0,0,0.1,0,0.1,0
		v10.7c0.1,0,0.2,0,0.3,0l-0.1,4.4c-0.1,0-0.1,0-0.2,0c0,0,0.1,0.1,0.1,0.1l0,5v17.8c0,0,0,0,0,0c0,0,0.1,0,0.1,0v7.1
		c0,0-0.1,0.1-0.1,0.1c0,0,0,0,0,0v5c0,0-0.1,0-0.1,0c0,0.6,0,1.2,0,1.9c0,0,0,0,0,0c0,0,0.1,0.1,0.1,0.1v25.8v0.1v8.8l-0.2,0
		c0.1,0,0.1,0.1,0.2,0.1V410c-0.1,0-0.2,0-0.3,0c0.1,0,0.2,0,0.3,0.1c0,13.6,0,27.1,0,40.7c0,8.4,0,16.7,0.1,25.1c0,0,0.1,0,0.1,0
		l-0.2,4.2c-0.1,0-0.2,0-0.2-0.1c0.1,0.1,0.2,0.2,0.2,0.3v4.8l-0.1,0c0,0,0,0,0,0v9.7c0,0,0.1,0.1,0.1,0.1v3
		c-0.1,0.1-0.2,0.1-0.3,0.2c0.1,0,0.2,0,0.4,0V516c0,0,0,0.1,0,0.1c0,5,0,10,0,15l1,0.9V7c-0.3,0-0.6,0-0.9,0.2
		C347.3,59.8,347.3,112.4,347.2,165.1z"/>
	<path fill="#BFBFBF" d="M7.1,0.9h334.2c1.3,0,3,1.1,3.9-0.9H3.2C4.1,1.9,5.8,0.9,7.1,0.9z"/>
	<path fill="#BFBFBF" d="M176.3,541.2l-1.5-0.2H6c-0.9,0-2.4-0.8-2.8,1l173.1,0.1l0.1-0.1l-0.2,0
		C176.3,541.7,176.3,541.5,176.3,541.2z"/>
	<path fill="#FEFEFE" d="M332.3,541H229.1l-52.8,0.2c0,0.3,0,0.5-0.1,0.8l0.2,0l160.6-0.1l0.2,0C335.9,539.8,333.9,541,332.3,541z"
		/>
	<path fill="#F3F3F3" d="M346.2,542c1.7,0.4,2.4-0.3,2-2C347.2,540.2,346.4,541,346.2,542z"/>
	<path fill="#804E1D" d="M170.3,529.2c0.3,0,0.5,0,0.8,0.1c-0.2-0.1-0.5-0.1-0.7-0.2l50.8-30.2c1.4-0.8,2.7-1.9,4-2.8
		c0,0,0.1,0,0.1-0.1c-1.8-7.5-1.7-15.3-4-22.6c-1-3.1-2.1-6.2-3.1-9.3c0,0,0-0.1,0-0.1c-2.6,2.4-1.9,5.5-1.9,8.4
		c0,2.9,0.2,4.8-2.4,6.1c-2.6,1.3-3.5-1.2-5-2.3s-5.1-2.3-6.4,0.6c-2.2,4.7-6.9,5.9-10.2,9.2c-4.4-2.9-1.6-8.5-4.7-11.5
		c-5.8,1.3-9.1,8.2-16.3,6.1c-6.1,7.8-5.5,17.2-5,26.4c0.3,6.2,0.7,6.2-2.8,10.6c0,1.2,0.7,2.3,1.8,2.8c1.8,1.1,2.4,2.3,0.8,4
		c-1.1,1.6-3.3,2-4.9,0.9c-4.9-2.7-7-7.4-5.3-12.9c0.7-2.3-0.4-4-1.7-5.4c-4.5-4.8-4.6-10.5-3.7-16.4c0.6-2.6-0.3-5.3-2.3-7.1
		c-0.9-0.9-2.3-0.9-3.1,0c0,0-0.1,0.1-0.1,0.1c-2.2,2-5.4,4-4.5,7.3c2,7.4-1.3,13.4-3.5,20s-4.8,11.1-12.2,13.7
		c-5.3,1.8-9.6,4.7-15.8,3.4c-6.1-1.3-11,1.4-16.6,0.8c0,0.1,0,0.1,0,0.2H77.9c-1.7,0-3.5-0.2-4.6,1.6c0,0.1,0,0.1,0,0.2h94.1
		c0,0,0,0,0.1,0C167.9,529.6,169.1,529,170.3,529.2z"/>
	<path fill="#8C5119" d="M31.5,527.1c1.2-1.7,1.8-4.3,4.8-3.4s3.1,1.4,4.3-0.6c1.2-2-1.6-2.5-2-4.4c1.8-2.6,3.8-4.2,6.8-0.9
		c1.6,1.7,7.4,0.4,8.4-2.2s3.8-4,6.7-3.2c2.9,0.8,3.7-0.2,3.9-2.8c0.2-2.6,0.5-4.9,0.8-7.4c0-0.2-0.4-0.5-0.5-0.7
		c-2-1.6-4.1,3.4-6.2-0.6c3.5-2,6.5-4.3,6.3-9c-0.1-1.9,2.4-2.1,4.1-1.9c4.9,0.7,9.1-1.3,13.5-2.9c1.5-0.5,3.1-0.9,2.9-2.8
		s-2-2.3-3.8-2.4s-3.5,0.7-4-1.8c0,0,0-0.1,0.1-0.1l-0.4,0.2c-9,1.9-17.9,5.5-24.7,11.1s-17.4,6-25.4,11
		c-8.1,5.1-16.8,9.3-25.8,12.6c0,0,0,0,0,0V531h0l37,0c0,0,0-0.1,0-0.1l-0.1,0C37.1,527.7,32.9,530.4,31.5,527.1z"/>
	<path fill="#8A390A" d="M77.9,529h14.5c0-0.1,0-0.1,0-0.2c-0.1,0-0.1,0-0.2,0c-2.2-3.8-3.1-7.4,1.1-10.6c-2.7-4.2-5-7.5-10.7-5.6
		c-3.4,1.1-5.9-0.6-5.4-4.7s-0.7-8.8-0.8-13.6c4.8,0.9,8.7,4.2,13.4,1.7c-0.8-3.3-3.4-1.5-5.1-1.6c0.9-4.4,2.6-4.7,10.7-1.8
		c1.2-3.1,3.5-5.5,5-8.3c3.4-6.6,0.1-11.1-8.4-11.4L77.6,480c0,0,0,0.1-0.1,0.1c0.5,2.5,2.2,1.7,4,1.8s3.6,0.5,3.8,2.4
		s-1.4,2.3-2.9,2.8c-4.4,1.6-8.6,3.6-13.5,2.9c-1.7-0.2-4.2,0-4.1,1.9c0.2,4.7-2.8,7-6.3,9c2.1,4,4.2-1,6.2,0.6
		c0.1,0.2,0.5,0.5,0.5,0.7c-0.3,2.5-0.6,4.8-0.8,7.4c-0.2,2.6-1,3.6-3.9,2.8c-2.9-0.8-5.7,0.6-6.7,3.2s-6.8,3.9-8.4,2.2
		c-3-3.3-5-1.7-6.8,0.9c0.4,1.9,3.2,2.4,2,4.4c-1.2,2-1.3,1.5-4.3,0.6s-3.6,1.7-4.8,3.4c1.4,3.3,5.6,0.6,6.7,3.8l0.1,0l34.9-0.1
		c0-0.1,0.1-0.1,0.1-0.2C74.4,528.8,76.2,529,77.9,529z"/>
	<path fill="#0E487D" d="M277.6,526.6c2.4-2.5,6.1-0.7,8.7-2.3c0.8-1.8-1.8-1.5-0.8-3.9s6.3-4.5,10.1-6.7c0-1.8-2.2-2.1-2.3-3.7
		c0,0,0,0,0,0c0,0-0.1,0-0.1,0c-3.8-1.1-7.8-1.1-11.5,0.1c-0.5-4.7-1.8-9,2.2-12.4c1.8-1.5,0.8-3-0.1-4.4c-0.9-1.4-2.6-0.9-3.9-0.2
		c-4,2.1-8.1,3.8-12.7,3.8c0,0,0-0.1,0-0.1c0,0-0.1,0.1-0.1,0.1c-8.1,4.7-16.3,9.3-24.4,14c-2,1.2-4,2.3-6.4,2
		c-1.3,3.3-1.8,6.5,0.2,9.8s0.5,5.4-0.3,8l0,0c0,0.1,0,0.1,0,0.2h42.1C278.1,529.5,276.8,528.2,277.6,526.6z"/>
	<path fill="#59A3D2" d="M317.3,510.8c0.4,0,0.7,0,1.1,0c0,0-0.1,0-0.1,0c0,0,0.1,0,0.1,0c4,0.1,8.1,0.7,12.6,0.2
		c-2.7-2.1-4.9-3.4-8.2-2.3c-3.3,1.1-5.6,0.9-6.5-2.7c-5.9-4-10.6-3.8-17.2,0.7c-1.9,1.3-3.4,3-5.8,3.3c0,0,0,0,0,0
		c0.1,1.6,2.3,1.9,2.3,3.7c-3.8,2.2-9.1,4.3-10.1,6.7s1.6,2.1,0.8,3.9c-2.6,1.6-6.3-0.2-8.7,2.3c-0.8,1.6,0.5,2.9,0.7,4.3l68.9,0.2
		c0,0,0,0,0,0c0-5,0-10,0-15C336.8,516.7,327,513.9,317.3,510.8z"/>
	<path fill="#184A5C" d="M230.9,514.8c1.3-6-1.2-6.3-6.6-4.6c0,0,0,0,0,0l-33.1,20.7h43C231.7,525.8,229.6,520.8,230.9,514.8z"/>
	<path fill="#557E92" d="M236.5,522.7c-2-3.3-1.5-6.5-0.2-9.8c-0.1-0.3-0.2-0.6-0.2-0.9c-4.2-3.8-4-5.6,0.6-9
		c4.6-3.4,7.6-3.7,10.6-6.9c-3.2,0.3-5.8,2.3-8.5,3.7s-6.3,3-7.6-2.1c-0.3-0.6-0.6-1.1-1.1-1.6l0,0l0,0h-1.8
		c-0.1-0.1-0.1-0.2-0.2-0.3c0,0,0,0,0,0c0,0.1,0.1,0.2,0.1,0.3c0.9,2.9,1.3,5.9,1,8.9c0.9,4.1-4.7,2.2-4.9,5.2
		c5.4-1.7,7.9-1.3,6.6,4.6c-1.3,6,0.8,11,3.3,16.1l2-0.2l0,0C237,528.1,238.5,526,236.5,522.7z"/>
	<path fill="#62869A" d="M224.3,510.2C224.3,510.2,224.3,510.2,224.3,510.2c0.2-3,5.8-1.1,4.9-5.2l-42.1,23.1
		c-5.2,2.8-10.5,2.4-16,1.2c-0.3,0-0.5,0-0.8-0.1c-1.2-0.2-2.4,0.4-2.8,1.6c0,0,0,0.1-0.1,0.1h23.7h0.1L224.3,510.2z"/>
	<path fill="#91B4D1" d="M103.4,45.7c2.7,41,1.7,82.1,1.9,123.1c0,1.8,0.3,3.3,2,4.2c0,0,0,0,0,0c40.2,0,80.2,0.6,120.4-0.3
		c40.2-0.9,79.6-0.4,119.4-0.6c0-2.3,0.1-4.7,0.1-7c0.1-52.7,0.1-105.3,0.1-157.9L106.7,7.3l-2.5,0.2c0,0-0.1,0.1-0.1,0.1
		C104.8,20.3,102.5,33.1,103.4,45.7z"/>
	<path fill="#9A5F73" d="M1.4,28.9c1.1,1.8,1.7,3.9,1.7,6.1c0.7,18.2,1.3,36.4,2.3,54.6c0.3,6.1,0.5,12.2,1,18.3
		c0.3,3-0.5,4.3-3.1,5c0,0,0,0,0,0c-0.9,5,1.5,10,0,15c0,0.1,0.1,0.2,0.1,0.2c3.7,2.3,4.5,5.6,3.9,9.8c-0.4,1.5,0,3,0.9,4.2
		c1.3-4.6,1.5-9.4,3.7-13.9c1-2,0.5-4.5-0.3-6.8c-0.8-2.3-0.5-3.1,1.1-3.9c1.6-0.8,3.1,0.4,4.1,1.8c0.5,0.7,0.9,1.4,1.2,2.2
		c0.5,1.3,1.9,1.9,3.2,1.4c0,0,0,0,0.1,0c1.7-0.6,2.2-2,1.8-3.6c-0.4-1.3-0.9-2.6-1.5-3.9c2.9-1.9,7.8-0.8,8.2-5.5
		c2.9-0.4,2.8,2.7,4.8,2.9c2,0.2,2.1-4.4,4.5-5.6c0-0.1,0-0.2,0-0.2l0.3-20.1c0-0.1,0.1-0.1,0.1-0.2c-0.4-8.4-0.7-17-1.2-25.4
		c-0.1-4.4,0.2-8.9,1-13.2c0,0-0.1-0.1-0.1-0.1c-5.2-5.1-1.4-10.6-2.6-15.9c-1.1-5-1.7-10.1-1.6-15.2c0-3.6,0.6-6.9,2.9-9.7H38v0
		H1.1L1.4,28.9z"/>
	<path fill="#BC843F" d="M95.5,9c4-0.1,5.9,1.6,5.7,5.7c-0.2,4.1,0.8,10.5-1.7,15.6c-0.8,1.6-0.4,3.9-0.2,5.9
		c0.4,4.9,0.5,4.9-4.4,4.4c-1.4,2.3,0.1,5.3-1.6,7.5c0,0-0.1,0-0.1,0c0,0.3,0,0.6,0.1,0.9c1.9-0.4,6.7-1,8.7,3.3
		c-3.1,0.9-6,1.5-8.7,3.3c-2.7,1.8-3.9,4.4-0.4,6.9s6,7.5,6.9,12.3c0.6,2.9-0.4,4.7-3.8,3.7c-5.8-1.7-11.5,0.9-17.3,0.7
		c-1.8-0.1-2.9,1.4-3.4,3c0.3,0.5,0.6,0.9,1,1.3c2,1.4,5.7-0.7,6.4,2.6c0.7,3.3,2.7,9.7,0,14.6c-0.4,0.7-0.8,1.4-1.1,2.2
		c-1.1,3.2,0,4.4,3.4,3.7c3.4-0.7,8.1-1.7,12.2-2.4c4.1-0.7,5.9,0.9,5.8,4.8c-0.3,16,2.1,32.2-1.5,47.8c-1.7,7.5,1.5,13.4,1.5,20.1
		c0,0,0.1,0,0.1,0c-2.3,4.7-2.8,9.5-0.7,14.4c1.2,2.9,0.7,5.9,0.7,8.8c0,2.9,0.6,4.6,2.9,5.8c0,0,0.1,0.1,0.1,0.1
		c1.3-1.8,1-3.9,1-5.9c0-0.1,0-0.2,0-0.2c0,0-0.1,0.1-0.1,0.1c-3-4.3-1.7-9.2-1.4-13.8c0.3-4.6,1-8.8,1.6-13.2c0,0,0.1,0,0.1,0
		c0,0,0,0,0,0c-1.7-0.9-2-2.4-2-4.2c-0.2-41,0.8-82.1-1.9-123.1c-0.9-12.6,1.4-25.4,0.7-38.1c0-0.1,0-0.1,0-0.2
		c-4.8-0.5-9.7-0.6-14.5-0.3c0,0.2,0.1,0.5,0.1,0.7C91.2,9.7,93.6,9,95.5,9z"/>
	<path fill="#BC6D23" d="M54.2,10L54.2,10c1.2,0,2.3,0.7,2.7,1.8c-1.9,1.7-4.4,3.5-0.3,6.2c1,0.7,0.3,5.2-0.8,7.3
		c-2.2,4.1-1.5,6.4,3.1,7.6c-0.2,2-0.5,3.8-0.6,5.5c-0.1,1.7,1,4.1,3.6,3.1c2.6-1,4.4,0.1,6.3,1.5c-0.3-3.1-2.4-4.9-4.4-6.9
		s-2.1-2.3-1-3.9c1.1-1.6,2.3-0.6,3.5-0.3c5.7,1.6,9,6.2,12.2,10.4s-1.5,3.3-3.9,4.2c0.6,2.2,0.4,4.4-0.4,6.5c1.3,0.6,2.4,1.7,3,3
		c0,0.1,0,0.1,0,0.2c1.4,0.6,2.2,2.5,4.2,1.4c1.6-2.6-2.1-3.4-2-5.6c2.2-2.3,3.7,0.6,5.8,0.8c1.5-1.9-0.2-2.9-1.1-4.1
		c-0.9-1.2-1.9-3,0.9-3.6c0.1,0,0.2,0,0.3,0c0,0,0,0-0.1-0.1c-2.2-1.2-3.4-2.7-3-5.4c0.8-4.7-1.1-9.4-5-12.1
		c-1.9-1.4-2.6-3.6-3.9-5.4c-0.1,0-0.1,0.1-0.2,0.1c0,2.8,0.8,6-2.8,7.5c-0.8,0.2-1.6,0-2.2-0.5c-2.2-3.3-8.9,1.3-9.1-5.1
		c3.9-3.9,6.7-10.4,14.1-7.1c0,0,0,0.1,0,0.1c0,0,0.1-0.1,0.1-0.1c1.4-1.7-2.2-4.3-3.9-7.4c5-1.2,10.2-1.4,15.3-0.4
		c5.7,1.1,5.1,8.5,9.5,11.2c-5,8.4-7.3,19.6-0.9,27.5c0,0.1,0,0.1,0,0.2c0,0,0.1,0,0.1,0c1.7-2.2,0.2-5.2,1.6-7.5
		c4.9,0.5,4.8,0.5,4.4-4.4c-0.2-2-0.6-4.3,0.2-5.9c2.5-5.1,1.5-11.5,1.7-15.6c0.2-4.1-1.7-5.8-5.7-5.7c-1.9,0-4.3,0.7-5.8-1.2
		c-0.1-0.2-0.3-0.4-0.4-0.6l-39-0.1c0,0.1,0,0.2,0,0.3C51,9.2,53.2,8.7,54.2,10z"/>
	<path fill="#B65113" d="M35,16.9c-0.1,5.1,0.5,10.2,1.6,15.2c1.2,5.3-2.6,10.8,2.6,15.9c0,0,0.1,0.1,0.1,0.1c0,0,0-0.1,0-0.1
		c5,1.6,8.7-0.2,11.6-5.5c0.3,0.1,0.8,0,0.9,0.2c1.2,2,2,5.5,5.2,3.6c3.2-1.9,0-3.7-0.8-5.4c-2.6-6.3-5.3-12.5-7.1-19.1
		c-1.2-4.2-1.3-7.5,3.2-9.6c0.8-0.4,1.3-1.5,1.9-2.2c-1-1.3-3.2-0.8-3.9-2.6c0-0.1-0.1-0.1-0.1-0.2L38,7.2h-0.1
		C35.6,10,35,13.3,35,16.9z"/>
	<path fill="#AC6374" d="M9.2,167.2c0.1,10.3,0,20.6,0.1,30.8c0,2.2-0.8,4-1.2,6c4.3,3.5,4.1,8.7,5,13.5c0.3,2.2,0.3,4.3,0,6.5
		c-0.2,3.9,1.6,6.3,5.3,7.2c3.3,0.8,6.1,2.9,7.8,5.8c0,0.1,0,0.2-0.1,0.3c0.1-0.1,0.1-0.2,0.2-0.3c5.4,0,8.3,4.5,12.3,6.9
		c1.6,0.9,2.9,1.9,4.4,2.9c0.1-14.2,0.2-28.5,0.3-42.8c-0.8-32.3-1.4-64.5-4.2-96.8c-2.4,1.2-2.5,5.8-4.5,5.6
		c-2-0.2-1.9-3.3-4.8-2.9c-0.4,4.7-5.3,3.6-8.2,5.5c0.6,1.3,1.1,2.6,1.5,3.9c0.4,1.6-0.1,3-1.8,3.6c0,0,0,0-0.1,0
		c-1.3,0.5-2.7-0.1-3.2-1.4c-0.3-0.8-0.7-1.5-1.2-2.2c-1-1.4-2.5-2.6-4.1-1.8c-1.6,0.8-1.9,1.6-1.1,3.9c0.8,2.3,1.3,4.8,0.3,6.8
		c-2.2,4.5-2.4,9.3-3.7,13.9c0,3.7,0,7.3,0,11c0.1,6.8,0.1,7-6.3,6.9c-0.1,0-0.2,0.1-0.3,0.1v1.6C7.3,160,9.2,161.4,9.2,167.2z"/>
	<path fill="#8096A9" d="M27.1,502.3c8-5,18.6-5.4,25.4-11s15.7-9.2,24.7-11.1l0.4-0.2l14.4-7.1c16.1-8.6,33.2-15,49.9-22.3
		c19.7-8.7,39.8-16.4,59.3-25.7c0.1,0,0.1,0,0.2-0.1c1.8-1.3,4-0.3,5.8-0.9c0,0,0,0,0,0c0,0,0-0.1,0-0.1c0,0,0,0,0,0
		c-1.3-6.2-2.5-6.7-7.9-4.4c-9.6,4.1-19.2,8-28.8,11.9c-1.7,0.7-3.5,1.7-4.3-1.1l0,0h0c-3.5,2.3-6.9,1.1-9.8-2.3
		c-1.6-1.7-3.8-2.7-6.2-2.8l0,0v0c-1,3.7-3.9,5.8-6.9,7.4c-8.3,4.6-17.4,7.5-26.8,8.5c-5.6,0.5-11.2,1.2-16.7,1.9s-9.5-1.7-8.4-7.9
		c0.8-4.3-0.2-7.3-3.2-10l0,0h0c-3-2.3-6.1-4.3-10.1-2c0.6,6-1.3,12.1,2.6,17.9c1.5,2.3-1.7,4.2-4.2,4.9c-1.4,0.2-2.9,0.3-4.3,0.2
		c0,0,0,0.1,0,0.1c4.5,1.7,9.1,1.7,13.9,1.9c4.8,0.2,11.5-0.8,17.1,1.2c0,0,0,0,0,0c0,0,0.1-0.1,0.1-0.1c0.8,0.1,1.6,0.3,2.4,0.6
		c1.7,0.7,3.5,1.7,3.5,3.8s-1.8,2.6-3.3,3.3L74,471L5.7,501c-1.4,0.5-2.8,1-4.3,1.3c0-0.1,0-0.2,0-0.3c-0.1,0-0.1,0.1-0.2,0.1
		c0,4.3,0,8.5,0,12.8c0,0,0.1,0,0.1,0C10.3,511.6,19,507.4,27.1,502.3z"/>
	<path fill="#46140D" d="M21.1,455l1.7-4.9l0-0.2l2.2-9c0-0.1,0.1-0.2,0.1-0.2c-1.1-4.7,2.2-7.1,5.2-9.7c0,0,0.1,0,0.1,0
		c0,0-0.1-0.1-0.1-0.1c-1.5-1.6-0.3-5.6,1.9-7.8c0,0,0,0,0-0.1c-2.1-3.1-0.9-6.3,0.8-9.3c0,0,0.1,0.1,0.1,0.1c0,0,0,0,0,0l0.3-2.8
		c1.1-6.9,2.2-13.9,3.4-20.8c0.4-1.8,0.4-3.6,0.1-5.4c0-0.2,0-0.3-0.1-0.5l0,0.5l-1.6-2.8c-7,3.1-14.6,3.7-22,4.8
		c-4.1,0.7-7.6,2.6-11.7,3.1c0,0-0.1,0.1-0.1,0.1v81.9c0,0,0,0,0.1,0C9.7,468.1,17,463.4,21.1,455z"/>
	<path fill="#69BD9C" d="M17.9,282.6c11,0.7,22.1-1.2,34.3-0.5c-3.9,1.7-8.2,2.7-12.5,2.7c-9.3,0.5-18.7,2-28.1,0.3
		c-2-0.4-4.4-0.9-6.5,0.7c0,0,0,0.1,0,0.1l9.3,16.1c0,0,0,0,0,0c8.2-6,17-2.4,25.6-1.4c2.5,0.3,4.9,0.4,7.4,0.4
		c3.5,0.1,3.8-1.6,1.5-5.4c7.2,2.4,13.7,3.2,20.2,1.4c0,0.1,0,0.1,0.1,0.2c0-0.1,0-0.1,0-0.2c2.9-2,5.3-4.1,6-7.7
		c-1.8-3.2-7.7-5.9-11.9-8.1c-0.9-0.4-1.7-1.2-2.1-2.1c0,0,0-0.1-0.1-0.1c0,0,0,0.1,0,0.1c-0.8,1.5-3.5-1.6-5.5-2
		c-2.7,2.5-6.2,2.5-9.4,2.5c-14.1,0-28.1-0.4-42.2-0.6c-0.9-0.2-1.8-0.4-2.7-0.9v3.9C6.7,284.2,12.4,282.3,17.9,282.6z"/>
	<path fill="#661811" d="M13.2,386.8c7.4-1.1,15-1.7,22-4.8c0.8-3.3-2.1-5.8-2-9c0-0.1-0.1-0.2-0.1-0.2c0,0.1,0,0.2,0,0.2
		c-7.5,0.8-13-1.5-15-9.5c-0.2-0.8-0.6-1.5-1.3-2c-4.4-2.4-6-5.4-3-10.1c0.8-1.3-0.1-2.7-1.3-3.4c-3.3-2-5.8-4.9-7.2-8.5
		c-0.7-1.7-2.2-2.2-3.9-2.5v52.9c0,0,0.1,0,0.1,0C5.6,389.4,9.1,387.5,13.2,386.8z"/>
	<path fill="#7C1E16" d="M5.3,339.5c1.4,3.6,3.9,6.5,7.2,8.5c1.2,0.7,2.1,2.1,1.3,3.4c-3,4.7-1.4,7.7,3,10.1c0.7,0.5,1.1,1.2,1.3,2
		c2,8,7.5,10.3,15,9.5c0-0.1,0-0.2,0-0.2c-2.9-6.7-4.6-13.9-8.9-20.1c-0.5-0.8-1.1-2-0.8-2.8c2.6-6.7-2.6-11.9-3.1-17.9
		c0,0,0-0.1,0-0.1c0,0-0.1,0.1-0.1,0.1l-7.3-8.8c-2-2.4-3.3-5.3-3.8-8.4c-0.8-4.5-2.2-8.9-7.7-9.8v0c0,0-0.1,0-0.1,0v32
		c0,0,0.1,0,0.1,0C3.1,337.3,4.6,337.8,5.3,339.5z"/>
	<path fill="#CBD7DD" d="M5.7,501L74,471l31.8-14.2c1.5-0.7,3.3-1.2,3.3-3.3s-1.8-3.1-3.5-3.8c-0.8-0.3-1.6-0.5-2.4-0.6
		c0,0.1-0.1,0.1-0.1,0.1c2.1,4.6-2.3,4.5-4.3,5.4c-10.1,4.7-20.3,9.1-30.5,13.4c-13.3,5.6-26,12.6-39.9,16.6c-1.9,0.4-3.8,2-4.2-1.6
		l0,0c-6.8,4.4-13.8,8.1-22.1,7.9c-0.2,0.1-0.4,0.1-0.7,0.2c0,3.6,0,7.2,0,10.9c0,0.1,0,0.2,0,0.3C2.9,502,4.3,501.5,5.7,501z"/>
	<path fill="#BB6059" d="M8.2,250.1c1.9-0.5,2-1.3,0.3-3.2c9,1.3,14-3.2,17.6-9.6c0-0.1,0-0.2,0.1-0.3c-1.7-2.9-4.5-5-7.8-5.8
		c-3.7-0.9-5.5-3.3-5.3-7.2c0.3-2.2,0.3-4.3,0-6.5c-0.9-4.8-0.7-10-5-13.5H3.3c-0.1,0.1-0.1,0.1-0.2,0.2c-1.4,2.4-2.1,5.2-2,8
		c0.2,11.1,0.1,22.2,0.1,33.3c0,2-1.5,4.6,1.2,5.6c0,0,0-0.1,0.1-0.1C3.4,249.8,6.3,250.6,8.2,250.1z"/>
	<path fill="#175022" d="M4,279c14.1,0.2,28.1,0.6,42.2,0.6c3.2,0,6.7,0,9.4-2.5c0,0-0.1,0-0.1,0c-3.3-3.3-1.7-7-1.3-10.6
		c-0.1-0.1-0.2-0.3-0.3-0.4c-17.5,2.8-35,2.1-52.6,2l0-0.2c-0.1,0-0.1,0.1-0.2,0.1v10.1c0,0,0.1,0,0.1,0C2.2,278.6,3.1,278.8,4,279z
		"/>
	<path fill="#78C09E" d="M46.1,264.2c2.8-0.1,5.6,0.2,8.2-1.2c0,0,0,0,0,0c-0.6-5.2-4.9-5.1-8.5-5.9c-3.5-0.8-4.6-0.4-6.6-1.3
		c0,0,0,0,0,0c-10.8-1.5-21.6-0.5-32.3-0.8H1.4c0,0,0,0,0-0.1c0,0-0.1,0-0.1,0.1v10.1L46.1,264.2z"/>
	<path fill="#9F5D4F" d="M6.9,255c10.7,0.3,21.5-0.7,32.3,0.8c0,0,0,0,0,0c0,0-0.1,0-0.1-0.1c0.4-3.3,5.4-4.6,3.9-8.8c0,0,0,0,0-0.1
		c-1.5-1-2.8-2.1-4.4-2.9c-4-2.4-6.9-6.9-12.3-6.9c-0.1,0.1-0.1,0.2-0.2,0.3c-3.7,6.5-8.7,10.9-17.6,9.6c1.7,1.9,1.6,2.7-0.3,3.2
		c-1.9,0.5-4.8-0.3-5.7,0.9c0,0,0,0.1-0.1,0.1c-0.9,1.2-1.5,2.3-1.1,3.9c0,0,0,0,0,0.1H6.9z"/>
	<path fill="#6F798B" d="M25.1,473.5c6.6-5.9,6.6-11.1,0.6-17.5c-1.1-1.2-2.6-2.2-2.4-4.1c0,0-0.1,0-0.1,0l-0.4-1.8l-1.7,4.9
		c-1.9,11.5-8.2,19.1-19.7,22v9.8c0,0,0.1,0,0.1,0.1C10.2,484,18.2,479.5,25.1,473.5z"/>
	<path fill="#94A1AD" d="M24.2,483L24.2,483L24.2,483c3.8-3.7,7.8-7.2,11.4-11.1c5.3-5.9,4.7-10.9-1.9-15.5
		c-3.1-2.3-6.6-3.8-10.4-4.5c-0.2,1.9,1.3,2.9,2.4,4.1c6,6.4,6,11.6-0.6,17.5c-6.9,6-14.9,10.5-23.6,13.4c0,0-0.1,0-0.1,0l-0.1,4
		c0.3,0,0.5,0,0.8,0C10.4,491.1,17.4,487.4,24.2,483z"/>
	<path fill="#8F322B" d="M9.1,314.8c0.5,3.1,1.8,6,3.8,8.4l7.3,8.8c0,0,0.1-0.1,0.1-0.1c-0.5-5.9-1.4-9.4-2.7-14
		c-0.5-1.8-0.2-3.8-0.2-5.8l-0.2-0.1c-0.4-3.5-3.5-6.2-2.9-9.9c0,0,0.1-0.1,0.1-0.1c0,0,0,0,0,0l-9.3-16.1l0,0c0,0,0,0,0,0
		c0,0,0,0-0.1,0c-1-0.7-2.3-1-3.6-0.9c0,0,0,0,0,0v20v0C6.9,305.9,8.3,310.3,9.1,314.8z"/>
	<path fill="#CC4A10" d="M8.1,204c0.4-2,1.2-3.8,1.2-6c-0.1-10.2,0-20.5-0.1-30.8c0-5.8-1.9-7.2-7.6-5.5c-0.1,0-0.1,0-0.2,0.1
		c-0.1,12.7-0.1,25.3-0.2,38c0,1.8,0,3.4,1.9,4.2h0.2H8.1z"/>
	<path fill="#A6B0C5" d="M6.4,107.9c-0.5-6.1-0.7-12.2-1-18.3C4.4,71.4,3.8,53.2,3.1,35c0-2.2-0.6-4.3-1.7-6.1
		c-0.1,25.7-0.1,51.3-0.2,77c0,2.5,0.7,4.9,2,7c0,0,0.1,0,0.1,0C5.9,112.2,6.7,110.9,6.4,107.9z"/>
	<path fill="#2E0E08" d="M8.2,153.1c0-3.7,0-7.3,0-11c-0.9-1.2-1.3-2.7-0.9-4.2c0.6-4.1-0.2-7.5-3.9-9.8c-0.1,0-0.1-0.1-0.2-0.1
		c-1.9,0.6-2,2.2-2,3.9c0,9.4,0.1,18.7,0.1,28.1c0.2,0,0.4,0,0.6,0C8.3,160.1,8.3,159.9,8.2,153.1z"/>
	<path fill="#37804F" d="M54,266.1c0.1,0,0.2,0,0.3,0c0,0,0,0,0,0c0.8-0.6,1-1.8,0.3-2.7c-0.1-0.1-0.2-0.2-0.3-0.3
		c-2.6,1.4-5.5,1.1-8.2,1.2l-44.8,0.9l0.1,2.8l0,0.2C19,268.2,36.5,268.9,54,266.1z"/>
	<path fill="#3D936D" d="M5,285.9C5,285.9,5,285.9,5,285.9C5.1,285.8,5.1,285.8,5,285.9c2.2-1.7,4.6-1.2,6.6-0.8
		c9.4,1.7,18.8,0.2,28.1-0.3c4.3,0,8.6-1,12.5-2.7c-12.2-0.7-23.3,1.2-34.3,0.5c-5.5-0.3-11.2,1.6-16.6-0.6v0.1v2.9c0,0,0.1,0,0.1,0
		C2.7,284.9,4,285.2,5,285.9z"/>
	<path fill="#513E44" d="M21.1,455c-4.1,8.4-11.4,13.1-19.6,16.9c-0.1,0-0.1,0.1-0.2,0.1v5c0,0,0.1,0,0.1,0
		C12.9,474.1,19.2,466.5,21.1,455z"/>
	<path fill="#DDDAD4" d="M307.5,309.5l-5.4-0.7c-0.2-0.1-0.4-0.1-0.7-0.2c0.2,0.1,0.4,0.2,0.7,0.3c-2.5,0.3-3.6,1.9-4.1,4.3
		c-2.7,11.8-6.6,23.1-13.5,33.2c-1,1.3-1.4,3-1.2,4.6c0.2,0,0.3,0,0.5,0c6.5-2.7,12.9,0.1,19.2,0.3c6.5,0.2,13.7,1.8,20.6,2.7
		c2.2,0.1,4.2,1.1,5.6,2.8c-2.3,3.9-7.5,3.5-9.8,7c4.1-0.5,7.2-4.5,11.7-3.9c0.1,0,0.1-0.1,0.2-0.1c3.2,2.2,2.3,4.4-0.1,6.4
		c-2.4,2-7.3,5.8-10.9,8.6c0,0-0.1-0.1-0.1-0.1c0,0.1,0.1,0.1,0.1,0.2c-0.9,1.5-1.2,3.3-0.9,5c1.7,4.9,0.4,9.9,0.8,14.8
		c0.1,1.8,0,3.5,0,6.2c0,0,0.1,0,0.1,0.1c0,0,0,0,0.1,0c8.5-3.3,15.4-9.2,24.9-10.1c-2.4,4.4-5.9,5.9-9.6,5.9
		c-5.7-0.1-7.8,4.1-11.1,7.8c7.4,3.8,15,3.8,22.2,5.3c0.1,0,0.2,0,0.3,0v-96.1c-0.1,0-0.1-0.1-0.2-0.1L307.5,309.5z"/>
	<path fill="#20BFE6" d="M285.1,186.8c-14.1-0.6-28.3,0.1-42.4-1c-6.9-0.6-13.8-0.2-20.6,1.2c0,0,0,0,0-0.1l-4.8,4.3
		c0,0-0.1,0.1-0.1,0.1c1,2.9-0.1,5.8,0,8.7c0.1,2.9,1.3,5.2,5.3,4.5c5.4-1,11-0.9,16.3,0.4c5.7,1.5,11.4,0.7,17.2,0.5
		c7.9-0.2,15.8,0.4,23.6,1.8c6.6,1.2,13.2,1.1,19.7,1.5c15.9,0.9,31.8-0.2,47.7,1.3v0.1c0,0,0.1-0.1,0.1-0.1v-23
		C326.4,187,305.7,187.6,285.1,186.8z"/>
	<path fill="#3D78AE" d="M227.7,172.7c-40.2,0.9-80.2,0.3-120.4,0.3c0,0-0.1,0-0.1,0c-0.6,4.4-1.3,8.6-1.6,13.2
		c-0.3,4.6-1.6,9.5,1.4,13.8c0,0,0.1-0.1,0.1-0.1c0.1-4.6,0.2-9.1,0.2-13.8c0-2.9,1.1-5.1,4.2-5c12.1,0.2,24.3-0.9,36.4,0.6
		c3.1,0.4,5.2,1.2,6.2,4.4c0.6,1.8,2.3,3,4.2,2.8c0,0,0,0,0,0c-0.9-1.7-3.2-2.5-2.9-4.9l0,0c-1.8-1.8,1-2.9,2.8-3.1
		c3.6-0.7,7.2-1.1,10.8-1.4c16.9-0.5,33.8-1.3,50.6,0.5c1.5,0.1,2.6,0.4,2.8,2c0,0,0.1,0,0.1,0c1.2,1.5-0.2,2.7-0.3,4
		c4.4-7.3,11.6-6.2,18.4-5.9c35.5,1.4,71,0.8,106.5,0.9v-8.9C307.3,172.3,267.9,171.8,227.7,172.7z"/>
	<path fill="#55D1E3" d="M297.8,276.9c-1.2,0-2.3-0.2-3.3-0.8c-2.4-1.4-4.3-1-6.1,1.1c-1.8,2.1-1.5,3.9,0.1,5.8
		c0.3,0.6,0.6,1.2,0.7,1.8c0,0-0.1,0.1-0.1,0.1h0.2c3.2,2.3,4.7,5.7,6.1,9.1c1.5-0.1,2.9,0.5,3.8,1.7c3.8,4.4,8.7,5.6,14.3,5.3
		c11.1-0.5,21.6,2.6,32.5,3.9c0.1,0,0.2,0,0.2,0h0.9v-25.8c0,0-0.1-0.1-0.1-0.1C330.6,279.5,314.3,275.8,297.8,276.9z"/>
	<path fill="#BBBCB9" d="M324.6,404.7c3.3-3.7,5.4-7.9,11.1-7.8c3.7,0,7.2-1.5,9.6-5.9c-9.5,0.9-16.4,6.8-24.9,10.1
		c-0.1,0-0.1,0-0.2,0.1c0-0.1,0-0.1,0-0.2c0-2.7,0.1-4.5,0-6.2c-0.4-4.9,0.9-9.9-0.8-14.8l-0.2,61.9c2.6-0.1,5.2,0.9,7,2.8
		c-2.7,1.8-4.5,4.7-5,7.9c0,0.1,0.1,0.1,0.1,0.2c7.2-6.6,15.4-3.4,23.4-2.5l2.4,0.5c0-13.6,0-27.1,0-40.7c-0.1,0-0.2,0-0.3-0.1
		C339.6,408.5,332,408.5,324.6,404.7z"/>
	<path fill="#57D0E4" d="M332.3,246.9c-14.8,0-29.6,0.2-44.5,0c-4.5-0.1-9,0.6-13.2,2.1c-2.8,1.2-5.9,1.3-8.8,0.4
		c-2.2-0.9-4.8-0.2-6.3,1.7c-1.2,1.4-3,2.5-2.1,4.7c0.9,2.2,2.9,1,4.4,1.3c1.5,0.3,5.4-1,7.2,1.8c0.1,0,0.1,0,0.2,0l70,6
		c2.6,0.2,5.2,0,7.9,0c0,0,0,0,0,0v-17.8L332.3,246.9z"/>
	<path fill="#37CDE9" d="M299.3,208.7c-6.5-0.4-13.1-0.3-19.7-1.5c-7.8-1.4-15.7-2-23.6-1.8c-5.8,0.2-11.5,1-17.2-0.5
		c-5.3-1.3-10.9-1.4-16.3-0.4c-4,0.7-5.2-1.6-5.3-4.5c-0.1-2.9,1-5.8,0-8.7c-2.9,2.8-4.3,6.8-3.7,10.7c0,0,0,0,0,0
		c0.5,0.3,1.3,0.6,1.4,1.1c3.2,9.3,5.7,11.4,15.1,9.8c15.1-2.5,29.8,0.6,44.6,2.4c13.1,1.7,26.2,3.5,39.5,1.8
		c4.3-0.6,8.7-0.1,12.7,1.4c6.4,2.4,13.3,2.6,20.1,2.4v0.1c0,0,0.1,0,0.1,0v-10.9V210C331.1,208.5,315.2,209.6,299.3,208.7z"/>
	<path fill="#53D2E5" d="M326.8,218.5c-4-1.5-8.4-2-12.7-1.4c-13.3,1.7-26.4-0.1-39.5-1.8c-14.8-1.8-29.5-4.9-44.6-2.4
		c-9.4,1.6-11.9-0.5-15.1-9.8c-0.1-0.5-0.9-0.8-1.4-1.1c-2,5.5-1,11.2-0.9,16.9c0,0,0,0,0,0c6.2,0.5,12.4-0.8,18.9,1.1
		c1.9-3.5,2.7-8.4,8.5-6.9c3.6,0.9,5.1,3.4,5.4,6.8c0,0,0,0,0,0c16.2,4,32.5,4.7,49,5.5c16.5,0.8,34.9,1.6,52.5,1.5V221v-0.1
		C340.1,221.1,333.2,220.9,326.8,218.5z"/>
	<path fill="#8CD5E0" d="M294.4,225.4c-16.5-0.8-32.8-1.5-49-5.5c0.3,3.4,0.3,5.3,4,5c3.6-0.3,4.6,2.4,5.8,4.9c0.1,0,0.1,0,0.2,0
		c21.7,4.1,43.8,3.3,65.6,6.7c8.5,1.4,17.3,0.1,26,1.1v-10.7c0,0-0.1,0-0.1,0C329.3,227,310.9,226.2,294.4,225.4z"/>
	<path fill="#1C436A" d="M337.2,493c-0.2-0.1-0.4-0.1-0.5-0.2c-8.5-0.9-17-1.6-25.5-3.3c-1.1-0.3-2.3-0.6-3.4-0.8
		c-12.7-1.1-25.7-4.3-37.1,4.9c-1.3,1-2.7,1.8-3.5,3.2c0,0,0,0.1,0,0.1c4.6,0,8.7-1.7,12.7-3.8c1.3-0.7,3-1.2,3.9,0.2
		c0.9,1.4,1.9,2.9,0.1,4.4c-4,3.4-2.7,7.7-2.2,12.4c3.7-1.2,7.7-1.2,11.5-0.1c0,0,0.1,0,0.1,0c2.3-0.3,3.9-2,5.8-3.3
		c6.6-4.5,11.3-4.7,17.2-0.7c2.6,0.1,5-0.3,6.9-2.9l-7-9.5c1.2-2,2.7-1.9,3.7-1.1c3.4,2.9,7.4,2.7,11.4,2.5c3-0.1,6,0.7,8.5,2.3
		c2.2,1.2,4.7,0.7,7,0.8c0.1-0.1,0.2-0.1,0.3-0.2v-3c0,0-0.1-0.1-0.1-0.1v0.2L337.2,493z"/>
	<path fill="#F1F2F4" d="M344.7,450.3c-7.9-0.9-16.2-4.2-23.4,2.5c0,0-0.1,0.1-0.1,0.1c-0.1,0-0.2,0.1-0.3,0.1l-12.1,7.9
		c-1.6,1-3.1,1.9-3.6,3.9l-0.1,0.2c0.1,0,0.1-0.1,0.2-0.1c7.1,3.6,15,4.9,22.6,6.9c7.6,2,12.8,2.8,19.3,4.1
		c-0.1-8.4-0.1-16.7-0.1-25.1L344.7,450.3z"/>
	<path fill="#F1F9F6" d="M339.2,264.9l-70-6c-0.1,0-0.1,0-0.2,0c0,0,0.1,0.1,0.1,0.1c-6.7,0.9-13.2-0.8-19.7-1.2c0-0.1,0-0.2,0-0.2
		c0,0,0,0,0,0l-8.4-0.5c-4-0.2-6.4,1.3-5.6,5.8l-0.1,0.1c0,0,0.1,0,0.1,0c5.5,1.5,11-0.1,16.6,0.8c11,1.7,22.1,2.4,33.1,3.5
		c11,1.1,19.1,2,28.7,2.7c11.1,0.8,22.2,1.4,33.3,2.1c0,0,0.1-0.1,0.1-0.1v-7.1c0,0-0.1,0-0.1,0
		C344.4,264.9,341.8,265.1,339.2,264.9z"/>
	<path fill="#1D93CE" d="M240.6,180.1c-6.8-0.3-14-1.4-18.4,5.9c-0.1,0.3-0.1,0.6-0.1,0.9l0,0c0,0,0,0,0,0.1
		c6.8-1.4,13.7-1.8,20.6-1.2c14.1,1.1,28.3,0.4,42.4,1c20.6,0.8,41.3,0.2,62,0.2v-6C311.6,180.9,276.1,181.5,240.6,180.1z"/>
	<path fill="#BBBDB6" d="M313.8,270c-9.6-0.7-17.7-1.6-28.7-2.7c-11-1.1-22.1-1.8-33.1-3.5c-5.6-0.9-11.1,0.7-16.6-0.8
		c0,0-0.1,0-0.1,0l-1,1c-0.1,0-0.1-0.1-0.1-0.1c0,0.1,0.1,0.1,0.1,0.2c-0.6,2.5,0.5,4.7,1.3,6.9c0,0,0,0.1,0,0.1
		c0-0.1,0.1-0.1,0.1-0.2c13.2-3.2,26.5-0.3,39.7-0.8c3.4-0.1,8.3-0.4,9.8,4.8c0,0,0,0.1-0.1,0.1c0,0,0,0,0.1,0c4-3,8.3-3.5,13.1-2.5
		c7.4,1.8,15,2.6,22.6,2.4c8.8-0.4,17.3,2.8,26.1,2.1c0,0,0,0.1,0,0.1c0,0,0.1,0,0.1,0v-5c0,0,0,0,0,0
		C336,271.4,324.9,270.8,313.8,270z"/>
	<path fill="#D1D8D8" d="M341.9,241c-17.8,0.9-35.3-2.3-53-3.2c-12.5-0.6-25-1.9-37.5-2.9c-1.6-0.1-3-0.2-3.2-2.1c0,0,0,0,0,0
		l-0.1,0c-3.4,2-4.3,4.2-0.3,6.5c1.8,1,2.1,3.1,3.1,4.6c0.1,0,0.1,0,0.2,0.1c0.1-2,0.6-4,3.2-3.9c10.1,0.5,20.2,0.7,30.1,2.8
		c1.2,0.1,2.2,0.9,2.7,1.9c-0.1,0-0.2,0-0.2,0c0.1,0,0.2,0,0.2,0.1c2.7-1.1,5.6-0.7,8.4-0.8c11.8-0.3,23.4,1.4,35.1,2.1
		c0.6,0.2,1.2,0.4,1.7,0.8l14.8,0.2l0-5c0-0.1-0.1-0.1-0.1-0.1C345.3,241.6,343.5,240.9,341.9,241z"/>
	<path fill="#1D5A81" d="M339.8,497.3c-2.5-1.6-5.5-2.4-8.5-2.3c-4,0.2-8,0.4-11.4-2.5c-1-0.8-2.5-0.9-3.7,1.1l7,9.5
		c-1.9,2.6-4.3,3-6.9,2.9c0.9,3.6,3.2,3.8,6.5,2.7c3.3-1.1,5.5,0.2,8.2,2.3c-4.5,0.5-8.5-0.1-12.6-0.2c0,0,0,0,0,0
		c-0.4,0-0.7,0-1.1,0c9.7,3.1,19.5,5.9,29.9,5.3c0,0,0-0.1,0-0.1v-17.9c-0.1,0-0.2,0-0.4,0C344.5,498,342,498.5,339.8,497.3z"/>
	<path fill="#0B1A1B" d="M301.2,472c-1,0.1-2.2-0.2-2.7,0.9s3.1,9.5,5.9,10.2l28.8,7.1c1.7,0.2,3.1,1.2,4,2.7c-0.2,0-0.4,0-0.5-0.1
		c0.2,0.1,0.4,0.1,0.5,0.2l9.8,2v-0.2v-9.7c0,0,0,0,0,0L301.2,472z"/>
	<path fill="#E6F3F6" d="M321,236.5c-21.8-3.4-43.9-2.6-65.6-6.7c-0.1,0-0.1,0-0.2,0c0,0,0,0.1,0.1,0.1c-1.7,0.7-3.2,2-5.1,2
		c0,0-0.1,0-0.1,0c0,0,0,0,0,0l-1.9,0.9c0,0,0,0,0,0c0.2,1.9,1.6,2,3.2,2.1c12.5,1,25,2.3,37.5,2.9c17.7,0.9,35.2,4.1,53,3.2
		c1.6-0.1,3.4,0.6,5.1,1c0.1,0,0.1,0,0.2,0l0.1-4.4c-0.1,0-0.2,0-0.3,0C338.3,236.6,329.5,237.9,321,236.5z"/>
	<path fill="#75787D" d="M346,304.9c0,0,0.1,0,0.1,0c-14.8,1.2-29.4-0.9-44-3.4c-1.3-0.2-2.5-0.2-3.8-0.3c-0.5,3.2,0,5.9,3.1,7.4
		c0.2,0.1,0.4,0.1,0.7,0.2l5.4,0.7l39.4,4.3l0.2,0V305v-0.1h-0.9C346.1,304.9,346,304.9,346,304.9z"/>
	<path fill="#566668" d="M304.2,468l-1-0.8c0,0,0,0,0,0c-6.6-0.8-13-1-17,5.7c4.9-1.4,9.8-4.5,15-0.9l45.8,13.1l0.1,0v-4.8
		c-0.1-0.1-0.2-0.2-0.2-0.3C332.5,476.4,317.9,473.9,304.2,468z"/>
	<path fill="#89C8CD" d="M320.9,274.9c-7.6,0.2-15.2-0.6-22.6-2.4c-4.8-1-9.1-0.5-13.1,2.5c0,0,0,0-0.1,0c-1,2.1-3.2,2.9-5,4
		c-0.1,0-0.1,0.1-0.2,0.1c0.1,0,0.2,0,0.3,0l3,5.7c0,0-0.1,0-0.1,0c0,0,0.1,0,0.1,0.1h5.9c0,0,0.1-0.1,0.1-0.1
		c-0.1-0.6-0.4-1.2-0.7-1.8c-1.6-1.9-1.9-3.7-0.1-5.8c1.8-2.1,3.7-2.5,6.1-1.1c1,0.6,2.1,0.8,3.3,0.8c16.5-1.1,32.8,2.6,49.2,2.1
		c0,0,0,0,0,0c0-0.6,0-1.2,0-1.9c0,0,0-0.1,0-0.1C338.2,277.7,329.7,274.5,320.9,274.9z"/>
	<path fill="#C0C5C3" d="M327.9,471.8c-7.6-2-15.5-3.3-22.6-6.9c-0.1,0-0.1,0.1-0.2,0.1l-0.9,3c13.7,5.9,28.3,8.4,42.7,12
		c0.1,0,0.2,0,0.2,0.1l0.2-4.2c0,0-0.1,0-0.1,0C340.7,474.6,335.5,473.8,327.9,471.8z"/>
	<path fill="#914912" d="M205.8,427.7c-0.8-1.8-2.6-2.9-4.6-2.7c0.1-0.1,0.1-0.1,0.2-0.2c-0.1,0-0.1,0-0.2,0.1
		c-19.5,9.3-39.6,17-59.3,25.7c-16.7,7.3-33.8,13.7-49.9,22.3c8.5,0.3,11.8,4.8,8.4,11.4c-1.5,2.8-3.8,5.2-5,8.3
		c-8.1-2.9-9.8-2.6-10.7,1.8c1.7,0.1,4.3-1.7,5.1,1.6c-4.7,2.5-8.6-0.8-13.4-1.7c0.1,4.8,1.3,9.5,0.8,13.6s2,5.8,5.4,4.7
		c5.7-1.9,8,1.4,10.7,5.6c-4.2,3.2-3.3,6.8-1.1,10.6c0.1,0,0.2,0,0.2,0c5.6,0.6,10.5-2.1,16.6-0.8c6.2,1.3,10.5-1.6,15.8-3.4
		c7.4-2.6,10-7.1,12.2-13.7s5.5-12.6,3.5-20c-0.9-3.3,2.3-5.3,4.5-7.3c0,0,0.1-0.1,0.1-0.1c0.9-0.9,2.3-0.9,3.1,0
		c2,1.8,2.9,4.5,2.3,7.1c-0.9,5.9-0.8,11.6,3.7,16.4c1.3,1.4,2.4,3.1,1.7,5.4c-1.7,5.5,0.4,10.2,5.3,12.9c1.6,1.1,3.8,0.7,4.9-0.9
		c1.6-1.7,1-2.9-0.8-4c-1.1-0.5-1.8-1.6-1.8-2.8c3.5-4.4,3.1-4.4,2.8-10.6c-0.5-9.2-1.1-18.6,5-26.4c7.2,2.1,10.5-4.8,16.3-6.1
		c3.1,3,0.3,8.6,4.7,11.5c3.3-3.3,8-4.5,10.2-9.2c1.3-2.9,4.9-1.7,6.4-0.6s2.4,3.6,5,2.3c2.6-1.3,2.4-3.2,2.4-6.1
		c0-2.9-0.7-6,1.9-8.4C215.6,451.3,212.5,439,205.8,427.7z"/>
	<path fill="#8B9AA6" d="M225.3,496.1C225.3,496.1,225.3,496.1,225.3,496.1C225.3,496.1,225.2,496.1,225.3,496.1
		c-1.4,0.9-2.7,2-4.1,2.8l-50.8,30.2c0.2,0.1,0.5,0.1,0.7,0.2c5.5,1.3,10.8,1.6,16-1.2l42.1-23.1c0.3-3-0.1-6-1-8.9
		c0-0.1-0.1-0.2-0.1-0.3c0,0,0-0.1,0-0.1C227.1,494.6,226.2,495.6,225.3,496.1z"/>
	<path fill="#A17A5B" d="M231.2,493c-3.7-5.5-6.1-11.3-6.1-18.1c0-4.3-2.6-7.8-3.9-11.8c-4.4-14-7.4-28.5-9-43.1l-3,1
		c-0.1,1.2-0.4,2.2-1.5,2.7c-0.1,0.1-0.3,0.2-0.4,0.2c0,0,0,0,0,0c-1.8,0.7-4-0.4-5.8,0.9c-0.1,0.1-0.1,0.1-0.2,0.2
		c2-0.2,3.8,0.9,4.6,2.7c6.7,11.3,9.8,23.6,12.4,36.3c0,0,0,0.1,0,0.1c1,3.1,2.1,6.2,3.1,9.3c2.3,7.4,2.2,15.2,4,22.6c0,0,0,0,0,0.1
		c0.9-0.5,1.8-1.5,2.7-0.4c0,0,0,0.1,0.1,0.1c0.1,0.1,0.1,0.2,0.2,0.3h1.8l0,0L231.2,493z"/>
	<path fill="#133442" d="M264.2,486.9L264.2,486.9c-0.5,2.9-2.3,5.4-2.1,8.6c0.2,3.2-1.9,2.4-3.3,3.3c-7.5,4.5-15.7,7.8-22.6,13.3
		c0,0-0.1-0.1-0.1-0.1c0,0.3,0.1,0.6,0.2,0.9c2.4,0.3,4.4-0.8,6.4-2c8.1-4.7,16.3-9.3,24.4-14c0,0,0.1-0.1,0.1-0.1
		c0.8-1.4,2.3-2.2,3.5-3.2c11.4-9.2,24.4-6,37.1-4.9c1.1,0.2,2.3,0.5,3.4,0.8c8.4,1.8,16.9,2.5,25.5,3.3c0.2,0,0.4,0,0.5,0.1
		c-0.9-1.5-2.3-2.5-4-2.7l-28.8-7.1c-2.8-0.7-6.4-9.1-5.9-10.2s1.7-0.8,2.7-0.9c-5.2-3.6-10.1-0.5-15,0.9L264.2,486.9z"/>
	<path fill="#8B9AA6" d="M288.9,460.8l0,0.1c-15.1,6.8-28.5,16.7-43.3,24.2c-4.9,2.5-9.6,5.2-14.4,7.9l-1.1,3.1l0,0
		c0.5,0.5,0.8,1,1.1,1.6c1.3,5.1,4.9,3.5,7.6,2.1s5.3-3.4,8.5-3.7l0,0l16.9-9.2v0l0,0l22-14c4-6.7,10.4-6.5,17-5.7c0,0,0,0,0,0
		l-0.1-0.1C299.7,462.1,294.6,460.6,288.9,460.8z"/>
	<path fill="#1A4F60" d="M258.8,498.8c1.4-0.9,3.5-0.1,3.3-3.3c-0.2-3.2,1.6-5.7,2.1-8.6v0l-16.9,9.2l0,0c-3,3.2-6,3.5-10.6,6.9
		c-4.6,3.4-4.8,5.2-0.6,9c0,0,0.1,0.1,0.1,0.1C243.1,506.6,251.3,503.3,258.8,498.8z"/>
	<path fill="#C7741D" d="M43.3,204h1.9c2.5-1,3.9-2.4,4.2-5.4s2.2-8.3,3.8-12.3c1.6-4,2.7-8.9-1.2-13.1c5.9-0.8,6.4-1.7,5.5-8.6
		c2.4,1.1,3.8,2.7,3.6,5.3c-0.5,7,0.7,13.9,1,20.8c0.1,1.8-0.5,3.9,1.6,4.9c2.1,1,2.9-1.6,4.6-2.3c3.4,2.1,5.2,4.3,2.1,8.3
		c-1,1.5-1.5,3.6-2.2,5.4c0,0,0,0,0,0c0,0,0.1,0.1,0.1,0.1c0.9,0.5,2.2,1.6,2.5,1.3c3.5-2.8,7.2-1.1,10.9-1.2c3.7-0.1,4.6,1,5.9,3.4
		c2.9,5.2,2.8,11.2,3.7,16.8c0.5,3.2-0.1,6.5,0.8,9.9c0.9,3.4-0.8,4.7-3.3,6.1c-8.6,4.6-8.6,4.6-4.8,13.4c0.4,1,0,2.4,1.4,3.1
		c1.4,0.7,3.2-2.8,5.6-2.5c2.3,0.3,1.2,2.2,1.3,3.5c0.2-0.2,0.5-0.5,0.5-0.6c0.2-14.7,1.7-29.5-0.9-44.1c-0.6-3.2-1.5-6.5-4.6-9
		c-3.1-2.5-0.6-5.4,1.1-8c1.7-2.6,2.9-4.3-1.1-5c-2.2,1.5,0.2,4.8-3.1,5.7c-2.7-4.3-0.2-8.6,0.2-12.8c0.4-4.2,1.9-9.4,1.7-14.2
		c-0.1-1.5,0.1-3.1,1.9-3.7c1.8-0.6,2.7,0.8,3.7,1.9c0.6,0.6,1.1,1.2,1.4,2c1.9,5.2,5.4,5.6,9.9,3.8c0-6.7-3.2-12.6-1.5-20.1
		c3.6-15.6,1.2-31.8,1.5-47.8c0.1-3.9-1.7-5.5-5.8-4.8c-4.1,0.7-8.8,1.7-12.2,2.4c-3.4,0.7-4.5-0.5-3.4-3.7c0.3-0.8,0.7-1.5,1.1-2.2
		c2.7-4.9,0.7-11.3,0-14.6c-0.7-3.3-4.4-1.2-6.4-2.6c-0.4-0.4-0.7-0.8-1-1.3c0.5-1.6,1.6-3.1,3.4-3c5.8,0.2,11.5-2.4,17.3-0.7
		c3.4,1,4.4-0.8,3.8-3.7c-0.9-4.8-3.4-9.8-6.9-12.3s-2.3-5.1,0.4-6.9c2.7-1.8,5.6-2.4,8.7-3.3c-2-4.4-6.8-3.7-8.7-3.3c0,0,0,0,0,0
		c-1.2,2.1-2.6,2.5-4,0.2c-1-1.7-2.3-3.1-4-4.1c-0.1,0-0.2,0-0.3,0c-2.8,0.6-1.8,2.4-0.9,3.6c0.9,1.2,2.6,2.2,1.1,4.1
		c-2.1-0.2-3.6-3.1-5.8-0.8c-0.1,2.2,3.6,3,2,5.6c-2,1.1-2.8-0.8-4.2-1.4c-0.6,5.3,4.1,6.4,7.3,8.6c1.4,0.9,3,1.4,3.4,3.2
		c-3.9,3.3-12,2.1-15.7-2.3c-0.8-1.1-1.5-2.2-2.2-3.3c-2.1-3.3-4.8-4.4-7.5-1c-2.7,3.4-5.3,2.3-7.6,2.9c-2.3,0.6,1,2.8-0.2,4.2
		c-1.2,1.4-3-1.1-3.9,1c3.8,8.8,3.8,8.8-1.6,11.3l-5.5-6.6c-3.3,0.9-2.1,3.5-2.4,5.4c-0.3,1.9,1.1,5.4-1.8,7.3c0-0.1,0-0.1,0-0.2
		c0,0.1-0.1,0.1-0.1,0.2L39.1,107c0,0.1,0,0.2,0,0.2C41.9,139.5,42.5,171.7,43.3,204z"/>
	<path fill="#BE6714" d="M41.3,79.6c0.3-1.9-0.9-4.5,2.4-5.4l5.5,6.6c5.4-2.5,5.4-2.5,1.6-11.3c0.9-2.1,2.7,0.4,3.9-1
		c1.2-1.4-2.1-3.6,0.2-4.2c2.3-0.6,4.9,0.5,7.6-2.9c2.7-3.4,5.4-2.3,7.5,1c0.7,1.1,1.4,2.2,2.2,3.3c3.7,4.4,11.8,5.6,15.7,2.3
		c-0.4-1.8-2-2.3-3.4-3.2c-3.2-2.2-7.9-3.3-7.3-8.6c0-0.1,0-0.1,0-0.2c-0.6-1.3-1.7-2.4-3-3v0c-3.7,2.2-5.3,1.6-5.9-2.5
		c-0.2-2.5-0.2-5-0.1-7.5v0c-1.9-1.4-3.7-2.5-6.3-1.5c-2.6,1-3.7-1.4-3.6-3.1c0.1-1.7,0.4-3.5,0.6-5.5c-4.6-1.2-5.3-3.5-3.1-7.6
		c1.1-2.1,1.8-6.6,0.8-7.3c-4.1-2.7-1.6-4.5,0.3-6.2c-0.4-1.1-1.5-1.8-2.7-1.8v0c-0.6,0.7-1.1,1.8-1.9,2.2c-4.5,2.1-4.4,5.4-3.2,9.6
		c1.8,6.6,4.5,12.8,7.1,19.1c0.8,1.7,4,3.5,0.8,5.4c-3.2,1.9-4-1.6-5.2-3.6c-0.1-0.2-0.6-0.1-0.9-0.2c-2.9,5.3-6.6,7.1-11.6,5.5
		c0,0,0,0.1,0,0.1c-0.8,4.4-1.1,8.8-1,13.2c0.5,8.4,0.8,17,1.2,25.4c0,0.1,0,0.1,0,0.2C42.4,85,41,81.5,41.3,79.6z"/>
	<path fill="#CB813D" d="M93.1,173.1c-0.3-0.8-0.8-1.4-1.4-2c-1-1.1-1.9-2.5-3.7-1.9c-1.8,0.6-2,2.2-1.9,3.7
		c0.2,4.8-1.3,10-1.7,14.2c-0.4,4.2-2.9,8.5-0.2,12.8c3.3-0.9,0.9-4.2,3.1-5.7c4,0.7,2.8,2.4,1.1,5c-1.7,2.6-4.2,5.5-1.1,8
		c3.1,2.5,4,5.8,4.6,9c2.6,14.6,1.1,29.4,0.9,44.1c0,0.2-0.3,0.4-0.5,0.6c0,0.1,0,0.2,0,0.3l-1,4.8c0,0,0.1,0,0.1,0l1.7-1
		c2.4-3.4,6.5-3.6,9.9-5c0,0,0.1,0,0.1,0c-2-7.2-0.2-14.6-0.9-21.8c0,0,0,0,0.1,0c-0.1,0-0.1-0.1-0.2-0.1l-1-1.4c0-0.1,0-0.3,0-0.4
		c0,0.1-0.1,0.2-0.1,0.3c-1.6-3.3,0.2-5.2,2.9-6.7c0,0,0.1,0.1,0.1,0.1c0,0,0,0,0,0c-0.1-2-2.3-3.8-0.6-6c0.2-0.2,0.4-0.4,0.6-0.6
		l2.6-3.3c0,0-0.1-0.1-0.1-0.1c1.7-3.5,0-7.4,1-11l-1.4-3c0,0,0,0,0,0c0,0-0.1-0.1-0.1-0.1c-2.3-1.2-2.9-2.9-2.9-5.8
		c0-2.9,0.5-5.9-0.7-8.8c-2.1-4.9-1.6-9.7,0.7-14.4c0,0-0.1,0-0.1,0C98.5,178.7,95,178.3,93.1,173.1z"/>
	<path fill="#26B5E1" d="M107.5,209c3.6-4,8.3-5.5,13.6-5.7c0.9,0,2.5-0.4,2.7-1c3.1-7.9,9.6-3.2,14.5-3.9c1,0,2,0.2,2.9,0.6
		c0,0,0,0.1,0,0.1c5.8-0.4,11.5-0.8,17.3-1c2.1,0,4.1-0.8,5.7-2.1c0,0,0,0,0,0c0,0,0,0,0,0c-1.3-1.6-3.4-5.1-5.9-7
		c-1.9,0.2-3.6-1-4.2-2.8c-1-3.2-3.1-4-6.2-4.4c-12.1-1.5-24.3-0.4-36.4-0.6c-3.1-0.1-4.2,2.1-4.2,5c0,4.6-0.1,9.2-0.2,13.8
		c0,0.1,0,0.2,0,0.2c0,2,0.3,4.1-1,5.9c0,0,0,0,0,0L107.5,209z"/>
	<path fill="#BC500D" d="M89.3,49.2c1.4,2.3,2.8,1.9,4-0.2c0,0,0,0,0,0c0-0.3-0.1-0.6-0.1-0.9c0-0.1,0-0.1,0-0.2
		c-6.4-7.9-4.1-19.1,0.9-27.5c-4.4-2.7-3.8-10.1-9.5-11.2c-5.1-1-10.3-0.8-15.3,0.4c1.7,3.1,5.3,5.7,3.9,7.4c0,0-0.1,0.1-0.1,0.1
		c0.2,1.6-1.9,3.1-0.1,4.8c0.1,0,0.2,0.1,0.2,0.1c0,0,0,0.1,0.1,0.1c1.4,1.8,2.1,4,3.9,5.4c3.9,2.7,5.8,7.4,5,12.1
		c-0.4,2.7,0.8,4.2,3,5.4c0,0,0,0,0.1,0.1C87,46.1,88.3,47.5,89.3,49.2z"/>
	<path fill="#C7731D" d="M68.3,50.5c0.6,4.1,2.2,4.7,5.9,2.5v0c0.8-2.1,1-4.3,0.4-6.5c2.4-0.9,7.1,0,3.9-4.2S72,33.5,66.3,31.9
		c-1.2-0.3-2.4-1.3-3.5,0.3c-1.1,1.6-1,1.9,1,3.9s4.1,3.8,4.4,6.9v0C68.1,45.5,68.1,48,68.3,50.5z"/>
	<path fill="#BC853C" d="M73,21.9c-1.8-1.6,0.3-3.1,0.1-4.8c0,0,0-0.1,0-0.1c-7.4-3.3-10.2,3.2-14.1,7.1c0.2,6.4,6.9,1.8,9.1,5.1
		c0.6,0.5,1.4,0.7,2.2,0.5c3.6-1.5,2.8-4.6,2.8-7.5c0-0.1,0-0.2,0-0.2C73,22,73,21.9,73,21.9z"/>
	<path fill="#CB8433" d="M58.9,274.3c5.1-3.1,7-9.6,4.6-16.8c-2.4-7.2-3.8-12.3-3.3-18.9c0-3,0.6-5.9,1.7-8.7
		c2.1-4.6,0.2-8.1-2.8-11.4c-1.9,0.8-3.1,2-2.7,3.6c2.5,10.3-3.5,17.2-10,24.8c-3.2-14,2.1-27.6-1.1-40.8c0,0,0.1,0,0.1,0
		c-0.1,0-0.1-0.1-0.2-0.1v-2h-1.9c-0.1,14.3-0.2,28.6-0.3,42.8c0,0,0,0,0,0.1c1.5,4.2-3.5,5.5-3.9,8.8c0,0,0.1,0,0.1,0.1
		c2,0.9,3,0.6,6.6,1.3c3.6,0.8,7.9,0.7,8.5,5.9c0,0,0,0,0,0c0.1,0.1,0.2,0.2,0.3,0.3c0.6,0.8,0.5,2-0.3,2.7c0,0,0,0,0,0
		c0,0.1,0,0.3-0.1,0.4c-0.5,3.7-2,7.4,1.3,10.6c0,0,0.1,0,0.1,0c2,0.4,4.7,3.5,5.5,2c0,0,0-0.1,0-0.1
		C60.5,277.4,58.7,276.4,58.9,274.3z"/>
	<path fill="#EEF4F7" d="M71.9,446c-15.2-0.2-29.9-4.1-44.7-7.1c0,0,0,0,0,0.1l-2,2c0-0.1,0-0.2-0.1-0.3c0,0.1-0.1,0.2-0.1,0.2
		l-2.2,9l0,0.2l0.4,1.8c0,0,0.1,0,0.1,0c3.8,0.7,7.3,2.2,10.4,4.5c6.6,4.6,7.2,9.6,1.9,15.5c-3.6,3.9-7.6,7.4-11.4,11.1v0
		c0.4,3.6,2.3,2,4.2,1.6c13.9-4,26.6-11,39.9-16.6c10.2-4.3,20.4-8.7,30.5-13.4c2-0.9,6.5-0.8,4.3-5.4c0,0,0,0,0,0
		c-5.6-2-12.3-1-17.1-1.2c-4.8-0.2-9.4-0.2-13.9-1.9c0,0-0.1,0-0.1,0C72,446.1,71.9,446,71.9,446z"/>
	<path fill="#9BA6B3" d="M209.2,421c-0.2-3.4,0.2-6.2,4.2-7.2c7.7-1.9,14.9-5,22.2-8c2.6-1.1,4-1,2.6,2.3c0,0,0,0.1-0.1,0.1
		c0,0,0.1,0,0.1,0c0-0.1,0.1-0.1,0.1-0.1c13.8-4.4,27-10.5,40-16.8l0,0c0,0-0.1-0.1-0.1-0.1l2.7-4.3h-8.7c0,0,0-0.1,0-0.1
		c0,0-0.1,0.1-0.1,0.1c-12.8,4.2-25.4,9.1-37.6,14.8c-4.9,2.3-6,1.5-6.1-3.8c0,0,0,0,0,0c-0.7-5.9-4.8-8.3-9.8-9.8
		c0,0.3,0,0.6,0.1,0.8c3.1,6.1,1.9,5.6-8.1,12.9c-4.5,3.3-5.6,2.6-11.1-4.8c-0.1,0-0.2,0.1-0.2,0.1c-0.8,4.9-5.3,6.7-6.8,10.8
		c-0.4,0.7-1.1,1.3-1.9,1.6c-10.7,4.6-21.2,9.7-33.3,8.2c-2.7,0.5-5.5-0.8-7.9,1.1c0,0,0,0,0,0c6.1,0,12.3-0.1,18.4,0.1
		c3.7,0.1,7.4,0.8,10,4.6c-3.6,3.1-7.9,4.2-11.4,6.5l0,0c0.8,2.8,2.6,1.8,4.3,1.1c9.6-3.9,19.2-7.8,28.8-11.9
		c5.4-2.3,6.6-1.8,7.9,4.4c0,0,0,0,0,0c0.2,0,0.3-0.1,0.4-0.1C208.8,423.2,209.1,422.2,209.2,421z"/>
	<path fill="#637186" d="M92.6,425.8c0,0-0.1,0-0.1,0l-0.2,0.1h0C92.4,425.9,92.5,425.8,92.6,425.8z"/>
	<path fill="#637186" d="M145.9,420.5l3.3-1.5c0,0,0,0,0,0c2.4-1.9,5.3-0.6,7.9-1.1c0,0,0,0-0.1,0c5.4-3.7,11.6-5.6,17.7-7.6
		c3.4-1.2,6.6-3,9.5-5.2c1.7-1.3,3.5-2.8,2.4-5.2c-1.1-2.4-3.3,0.9-4.6-0.8c-3.2,1-6.5,1.6-9.8,1.9l-3.1,2c0.5,3.1-1,4.8-4,5.8
		c-5.2,1.7-10.1,3.9-15.7,4.4c-5.6,0.5-8.7,4.9-9.1,10.3c-0.4,5.4-4,8.3-8.8,9.3c-3.7,0.7-7.3,1.8-10.8,3.4
		c-5.8,2.8-12.1,1.9-18,2.2c-5.9,0.3-6.4-2-3.8-7.8c-1.5-2.6-4.9-2.5-6.8-4.7l-0.1,0.1c-1.1-0.8-2.5-1.1-3.9-1l0,0
		c3,2.7,4,5.7,3.2,10c-1.1,6.2,2.9,8.6,8.4,7.9s11.1-1.4,16.7-1.9c9.4-1,18.5-3.9,26.8-8.5c3-1.6,5.9-3.7,6.9-7.4v0
		C148.4,424.1,146.3,423.3,145.9,420.5z"/>
	<path fill="#2A627A" d="M92.1,426l0.1-0.1c0,0,0,0,0,0h0.1l0.2-0.1c0,0-0.1,0-0.1,0c1-3.4,3.9-1.6,5.9-2c6.5-1.4,13.2-2.5,19.9-3.8
		c2-0.4,3.6-0.9,4.8-2.6c0-0.1,0-0.2,0-0.3c-2.1-0.3-4.2,0-6.1,0.9c-6.2,3-12.9,3.3-19.7,3c0-0.1,0.1-0.1,0.2-0.2
		c-0.1,0-0.1,0-0.2,0.1c-1.8,1-3.2-0.1-4-1.8c0,0,0,0,0,0c-6.8-2.6-13.7-1.7-20.3,0.3c-10.1,3-20.1,2.7-30.2,0.3
		c-1.4-0.4-2.9-0.6-4.4-0.6c-4.1,0.5-5.3-1.7-5.2-5.3c0,0-0.1-0.1-0.1-0.1c-1.7,3-2.9,6.2-0.8,9.3c0,0,0,0,0,0.1c0,0,0,0,0.1-0.1
		l32.9,2c2.7,0.1,5.3-0.6,7.6-1.9c1.5-0.8,2.9-1.6,4.4-0.1h0.9c4-2.3,7.1-0.3,10.1,2h0C89.6,424.9,91,425.2,92.1,426z"/>
	<path fill="#606C69" d="M77.2,423L77,436.8c-0.1,0-0.1,0.1-0.2,0.1c0.1,0,0.2,0,0.3,0c0.8,4.1-1.1,5.1-4.9,5.3
		c-6.1,0.2-12.2-0.6-18.1-2.3c-6.5-1.9-13.1-3.3-19.8-4.3c-3-0.4-6-0.4-7.1,3.3c14.7,3,29.5,6.9,44.7,7.1c0,0,0.1,0,0.1,0
		c0.1,0,0.1,0,0.2,0c1.4,0.1,2.9,0,4.3-0.2c2.5-0.7,5.7-2.6,4.2-4.9c-3.9-5.8-2-11.9-2.6-17.9H77.2z"/>
	<path fill="#E4EDF2" d="M177.6,423.7c-2.6-3.8-6.3-4.5-10-4.6c-6.1-0.2-12.3-0.1-18.4-0.1c0,0,0,0,0,0l-3.3,1.5
		c0.4,2.8,2.5,3.6,4.3,4.6l0,0c2.4,0.1,4.6,1.1,6.2,2.8c2.9,3.4,6.3,4.6,9.8,2.3h0C169.7,427.9,174,426.8,177.6,423.7z"/>
	<path fill="#2E94B9" d="M38.3,419.1c1.5,0,3,0.2,4.4,0.6c10.1,2.4,20.1,2.7,30.2-0.3c6.6-2,13.5-2.9,20.3-0.3c0,0,0,0,0,0
		c0,0,0,0,0-0.1c-0.8-1.8,1.2-4.4,2.6-6.3c2.7-3.6,2-6.9-2.1-9c-5.8-3.2-12.6-4.4-19.2-3.3c-6.4,1.2-12.8,1.7-19.3,1.5
		c-1.8-0.1-3.9-0.6-5.3,0.7c-4.1,3.8-9.4,4.1-14.4,5.2c-0.1,0.1-0.1,0.1-0.2,0.2l-1.9,3l-0.3,2.8c0,0,0,0,0,0
		C33,417.4,34.2,419.6,38.3,419.1z"/>
	<path fill="#0C0C0C" d="M63.8,436.3c4.3,1.5,8.6,0.6,13,0.6c0.1,0,0.1-0.1,0.2-0.1l0.2-13.8c-1.5-1.5-2.9-0.7-4.4,0.1
		c-2.3,1.3-4.9,2-7.6,1.9l-32.9-2c0,0,0,0-0.1,0.1c-2.3,2.2-3.4,6.3-1.9,7.8c0,0,0.1,0.1,0.1,0.1C41.7,431.9,52.9,432.6,63.8,436.3z
		"/>
	<path fill="#206688" d="M35.3,408c0.1-0.1,0.1-0.1,0.2-0.2C35.4,407.9,35.3,407.9,35.3,408l1.9-5.7c0.7-2.1,2.1-3.4,4.3-3.4
		c7.3,0,11.8-5.3,17.1-9.1c1.5-1.1,1.4-2.4,0.5-3.9c-2.2-3.6-5.3-5.8-9.5-4.9c-4.2,0.9-7,1.1-9.4-2.8c-0.4-0.6-2-0.8-3-1.2l-0.4,7.3
		c0,0.2,0.1,0.3,0.1,0.5c0.3,1.8,0.3,3.6-0.1,5.4c-1.2,6.9-2.3,13.9-3.4,20.8L35.3,408z"/>
	<path fill="#6E3C36" d="M37.2,377c-1.1-0.8-0.8-2-0.7-3.1c0,0,0,0,0.1,0l-1.3-6.9c0.2,0.1,0.5,0.1,0.7,0.2
		c-0.3-0.1-0.5-0.2-0.8-0.4l-1.4-6.9c0,0,0,0,0-0.1l-2.9-8.8c-2.1-2.7-2.2-6-3.2-9.1l0,0c-2.6-8.8-5-17.6-5.6-26.7l-4.7-3.1
		c0,1.9-0.3,3.9,0.2,5.8c1.3,4.6,2.2,8.1,2.7,14c0,0,0,0.1,0,0.1c0.5,6,5.7,11.2,3.1,17.9c-0.3,0.8,0.3,2,0.8,2.8
		c4.2,6.1,6,13.3,8.9,20.1c0,0.1,0.1,0.2,0.1,0.2c-0.1,3.2,2.8,5.7,2,9l1.6,2.8l0-0.5L37.2,377z"/>
	<path fill="#394242" d="M27.2,439C27.2,439,27.2,439,27.2,439c1.1-3.8,4.1-3.8,7.1-3.4c6.7,1,13.3,2.4,19.8,4.3
		c5.9,1.7,12,2.5,18.1,2.3c3.8-0.2,5.7-1.2,4.9-5.3c-0.1,0-0.2,0-0.3,0c-4.4,0-8.7,0.9-13-0.6c-10.9-3.7-22.1-4.4-33.4-5.3
		c0,0-0.1,0-0.1,0c-2.9,2.5-6.2,5-5.2,9.7c0,0.1,0,0.2,0.1,0.3L27.2,439z"/>
	<path fill="#CF7215" d="M81.2,296.8c1.7,2.8,1.1,3.5,2.9,4.3c1.7-3.2,3.5-6.3,3.2-10.1c0-0.1,0.1-0.1,0.1-0.2c0,0-0.1,0.1-0.1,0.1
		c0-4.6-0.1-9.2-0.1-13.9c0-1.7,0.1-3.3,1.9-4.2c0,0,0.1,0,0.1,0.1c-0.2-2.5,0.9-4.7,2.1-6.8l0,0l0-0.1l1-4.8c0-0.1,0-0.2,0-0.3
		c-0.1-1.4,1-3.3-1.3-3.5c-2.4-0.3-4.2,3.2-5.6,2.5c-1.4-0.7-1-2.1-1.4-3.1c-3.8-8.8-3.8-8.8,4.8-13.4c2.5-1.4,4.2-2.7,3.3-6.1
		c-0.9-3.4-0.3-6.7-0.8-9.9c-0.9-5.6-0.8-11.6-3.7-16.8c-1.3-2.4-2.2-3.5-5.9-3.4c-3.7,0.1-7.4-1.6-10.9,1.2
		c-0.3,0.3-1.6-0.8-2.5-1.3c0,0-0.1,0-0.1-0.1c-0.9,0.6-1.8,2.4-2.9,0.2c-1.1-2.3-2.1-2.9-3.9-1.5c-1.8,1.4-1,2.9,0.2,4.2
		c1.2,1.3,1.9,1.7,1,3c-0.9,1.3-2.6,0.8-3.5,0c-3.9-3.4-9-4.7-13.7-6.8c0,0-0.1,0-0.1,0c3.2,13.2-2.1,26.8,1.1,40.8
		c6.5-7.6,12.5-14.5,10-24.8c-0.4-1.6,0.8-2.8,2.7-3.6c3,3.3,4.9,6.8,2.8,11.4c-1.1,2.8-1.7,5.7-1.7,8.7c-0.5,6.6,0.9,11.7,3.3,18.9
		c2.4,7.2,0.5,13.7-4.6,16.8c-0.2,2.1,1.6,3.1,2.2,4.7c0,0,0,0.1,0.1,0.1c0.4,0.9,1.2,1.7,2.1,2.1c4.2,2.3,10,5,11.9,8.1
		c0-0.1,0-0.1,0-0.1C78.3,290.9,79.5,294,81.2,296.8z"/>
	<path fill="#4AA97D" d="M22.1,315.2c3.3-3.5,7.4-0.8,11-1.3c0,0,0.1,0,0.1,0.1c0-0.1-0.1-0.1-0.1-0.2c-0.3-3,0.9-4.7,3.9-3.6
		c2.3,0.8,4.9,0.8,7.2-0.2c6.8-2.6,14.5-1.1,20.9-5.1c0,0,0.1,0,0.1,0c0.4-3,3.4-4.7,4-7.7c0-0.1,0-0.1-0.1-0.2
		c-6.5,1.8-13,1-20.2-1.4c2.3,3.8,2,5.5-1.5,5.4c-2.5,0-4.9-0.1-7.4-0.4c-8.6-1-17.4-4.6-25.6,1.4c0,0-0.1,0.1-0.1,0.1
		c-0.6,3.7,2.5,6.4,2.9,9.9l0.2,0.1L22.1,315.2z"/>
	<path fill="#619D64" d="M65.2,304.9c6.4-0.2,12.7,1.9,18.9-0.9v-2.9c0,0,0,0,0,0c-1.8-0.8-1.2-1.5-2.9-4.3c-1.7-2.8-2.9-5.9-6-7.6
		c0,0.1,0,0.1,0,0.1c-0.6,3.5-3.1,5.7-6,7.7c0,0.1,0,0.1,0,0.2C68.6,300.2,65.6,301.9,65.2,304.9z"/>
	<path fill="#F1F4F7" d="M283.3,351.4c0.5,2.8,3.1,2.8,5,3.3c2,0.5,5.5,1.2,7.9,2.8c4.1,2.8,4,5.4-0.4,7.6
		c-4.4,2.2-10.6,4.4-16.6,3.6c0,0,0,0.1,0,0.1c-8.7,1.3-17.3,2.2-26,0.2l-1.9,0.2c0,0,0,0,0,0c0.1,1.2,1,1.6,1.9,1.9c0,0,0,0,0,0
		c0.9,0.2,1.8,0.4,2.7,0.8c2.6,1.2,6.3,1.3,6.2,5.4c-0.1,4.1-3.8,5-6.9,6c-7.8,2.6-15.9,3-24,2.7h-14.6c0,0,0,0,0,0.1l1.6,1.9
		c0.1,0,0.3,0.1,0.4,0.1c5,1.5,9.1,3.8,9.8,9.8c0,0,0,0,0,0c0,0,0-0.1,0-0.1c2.1,1.6,4.2,1.2,6.6,0.3c26.3-10.6,51.9-22.6,78.8-31.6
		c1.9-0.7,3.7-1.6,5.4-2.6c0.1,0,0.1,0,0.2,0c2.4-3.4,7.5-3.1,9.8-7c-1.4-1.7-3.4-2.7-5.6-2.8c-6.9-0.9-14.1-2.5-20.6-2.7
		c-6.4-0.2-12.8-3.1-19.2-0.3c-0.1,0-0.2,0.1-0.4,0.1L283.3,351.4z"/>
	<path fill="#F1F4F7" d="M231.2,386c0.8-0.2,1.6-0.4,2.3-0.6C232.7,385.4,231.9,385.5,231.2,386z"/>
	<path fill="#C28738" d="M317.1,374.7c-0.1,0.1-0.2,0.2-0.3,0.2c0.1,0,0.1,0,0.2,0c0.6,8.3-0.6,16.5-2,24.7c-0.8,4.6-4.5,8.1-4.4,13
		c0,0.5-1.1,1.2-1.8,1.4c-3.7,1-4.4,4.1-4.5,7c-0.1,2.9-2.6,7.4-4.2,11.1c-0.5,1.1-1.2,2.2-2.6,1.6c-1.4-0.6-1.4-2-0.9-3.4
		s2.1-2.7,0.9-4.6c-5.7,3.5-6.1,5.5-2.4,10.1s2.4,8.5,5.1,12.2c-0.1,0-0.1,0.1-0.2,0.1c0,0,0.1,0,0.1,0c1.3-0.1,2.5,0.7,3,1.9
		c0,0,0.1,0,0.1-0.1c6.1-1.2,10.9-4.9,16-8c0,0,0,0,0,0l0.2-61.9c-0.3-1.7,0-3.5,0.9-5c0-0.1-0.1-0.1-0.1-0.2
		C319.2,373.5,318.2,373.5,317.1,374.7z"/>
	<path fill="#C29E72" d="M294.1,297c-12.3,4-25.2,4.7-37.9,5.9c0.2,1.4-0.5,2.9,0.9,4c0,0,0-0.1,0-0.1c10.5,0.4,21.1-0.2,31.5-1.7
		c0.8,3.3-2.6,2.2-2.8,4.2c1.4,1,4.9,0.8,3.8,3.2c-1.1,2.4,2,8.4-4,9.4c-1.7,0.3-3.1,1.4-2.3,3.1c1.5,3.2-0.5,5.3-2.2,7
		c-6,5.9-6.5,12.3-2.8,19.5c0.5,1.1,0.8,2.3,1,3.5h1.9c0.1-1.6,0.8-3,2-4c0,0,0,0.1,0,0.1h0.1c0,0,0-0.1,0-0.1
		c-0.2-1.6,0.2-3.3,1.2-4.6c6.9-10.1,10.8-21.4,13.5-33.2c0.5-2.4,1.6-4,4.1-4.3c-0.2-0.1-0.5-0.2-0.7-0.3c-3.1-1.5-3.6-4.2-3.1-7.4
		c0,0-0.1,0-0.1,0C296.9,301.1,295.2,298.7,294.1,297z"/>
	<path fill="#B6B8B8" d="M312,369.7c-11.1,5-22.6,9.2-33.9,13.8c-2,0.9-4.3,1.6-5.9,3.3c0,0,0,0.1,0,0.1h8.7l-2.7,4.3
		c0,0,0.1,0.1,0.1,0.1l17.7-6.3c6-5.1,13.2-8,20.8-10c0.1-0.1,0.2-0.2,0.3-0.2c1.1-1.2,2.1-1.2,3.1,0.1c0,0,0.1,0.1,0.1,0.1
		c3.6-2.8,8.5-6.6,10.9-8.6c2.4-2,3.3-4.2,0.1-6.4c-0.1,0-0.1,0.1-0.2,0.1c0,0,0.1,0,0.1,0C326.1,365.7,318.5,366.8,312,369.7z"/>
	<path fill="#C9D1D6" d="M313.8,366.5c-26.9,9-52.5,21-78.8,31.6c-2.4,0.9-4.5,1.3-6.6-0.3c0,0,0,0.1,0,0.1c0.1,5.3,1.2,6.1,6.1,3.8
		c12.2-5.7,24.8-10.6,37.6-14.8c0,0,0.1-0.1,0.1-0.1c1.6-1.7,3.8-2.4,5.9-3.3c11.3-4.6,22.8-8.8,33.9-13.8c6.5-2.9,14.1-4,19.2-9.7
		c0,0-0.1,0-0.1,0c-4.6-0.6-7.7,3.4-11.7,3.9c-0.1,0-0.1,0-0.2,0C317.5,364.9,315.7,365.8,313.8,366.5z"/>
	<path fill="#9E250B" d="M199.2,184c-0.1,0-0.1,0.1-0.2,0.1L199.2,184c-0.9,2.1-3,3.4-5.2,3.1c-1.5-0.1-3.1,0.1-3.5,2
		c-0.4,1.9,0.9,2.6,2.5,3.1c4.9,1.6,4.3,6.2,5.2,9.8c1.7,7.3,1.5,15.2,7.4,21c0.9,0.9,0.9,2.9,0,3c-3.9,0.4-5.9,3.9-9.2,5.1l-0.1,0
		c0.8,2.1,2.9,3.6,0.9,5.9l0.3,2c0,0,0,0,0,0.1c3.5-2,7.4-0.9,11-1.8c8.8-1.9,10.4-3.3,10.6-12.2c0,0,0.1,0,0.1,0c0,0,0,0,0,0
		c-1.5-2.9-6.7-1.7-6.7-6.2c0,0,0.1,0,0.1,0c0,0,0,0,0,0c-0.1-5.7-1.1-11.4,0.9-16.9c0,0,0,0,0,0c-0.5-4,0.8-7.9,3.7-10.7
		c0,0,0.1-0.1,0.1-0.1l4.8-4.3l0,0c0-0.3,0-0.6,0.1-0.9c0.1-1.3,1.5-2.5,0.3-4c0,0-0.1,0-0.1,0c0,0,0,0.1,0,0.1
		C214.7,183,206.8,182.3,199.2,184z"/>
	<path fill="#DA8769" d="M184.1,184.2c0,0,0.1-0.1,0.1-0.1H199c0.1,0,0.1-0.1,0.2-0.1c7.6-1.7,15.5-1,23.2-1.9c0,0,0-0.1,0-0.1
		c-0.2-1.6-1.3-1.9-2.8-2c-16.8-1.8-33.7-1-50.6-0.5c-3.6,0.3-7.2,0.7-10.8,1.4c-1.8,0.2-4.6,1.3-2.8,3.1l0,0v0L184.1,184.2z"/>
	<path fill="#982C12" d="M164.2,195.9C164.2,195.9,164.2,195.9,164.2,195.9C164.2,195.9,164.2,195.9,164.2,195.9
		C164.3,195.9,164.3,195.9,164.2,195.9l5,0c0,0,0.1,0,0.1-0.1c0,0-0.1,0-0.1,0c1.5-5.9,6.7-10.5,12.3-10.8c0.9,0.1,1.8-0.2,2.6-0.8
		l-28.7-0.2v0c-0.3,2.4,2,3.2,2.9,4.9c0,0,0,0,0,0C160.8,190.8,162.9,194.3,164.2,195.9z"/>
	<path fill="#F0D9BF" d="M250.4,288.1c-0.1,0-0.2,0.1-0.2,0.1c0.1,0.1,0.2,0.1,0.2,0.2c0.6,3.2-2.3,3.5-4.2,4.7c-0.1,0-0.1,0-0.2,0
		c0,0.1,0.1,0.1,0.1,0.1c-0.7,1.4-1.7,2.8-1.6,4.5l4.6,3.4c0,0,0.1,0,0.1,0c2.5-0.2,4.8,0.8,7,1.8c12.7-1.2,25.6-1.9,37.9-5.9l1.2-3
		c0,0,0.1,0,0.1,0c-1.4-3.4-2.9-6.8-6.1-9.1h-0.2h-5.9c0,0-0.1,0-0.1-0.1C272.5,289.5,261.5,288.9,250.4,288.1z"/>
	<path fill="#7CB2BE" d="M294.1,297c1.1,1.7,2.8,4.1,4.1,4.2c0,0,0.1,0,0.1,0c1.3,0.1,2.5,0.1,3.8,0.3c14.6,2.5,29.2,4.6,44,3.4
		c0,0-0.1,0-0.1,0c-10.8-1.3-21.4-4.4-32.5-3.9c-5.6,0.3-10.5-0.9-14.3-5.3c-0.9-1.2-2.3-1.8-3.8-1.7c0,0-0.1,0-0.1,0L294.1,297z"/>
	<path fill="#A8A199" d="M303.2,449.9c0,0-0.1,0-0.1,0.1c0,0,0,0,0,0c-4.2,3.7-8.6,7.1-13.9,9.2l-0.3,1.6c5.7-0.2,10.8,1.3,14.2,6.3
		l0.1,0.1l1,0.8l0.9-3l0.1-0.2c0.5-2,2-2.9,3.6-3.9l12.1-7.9l0.3-0.2c0-0.1,0-0.1,0-0.2c0.5-3.2,2.3-6.1,5-7.9
		c-1.8-1.9-4.4-2.9-7-2.8c0,0,0,0,0,0C314.1,445,309.3,448.7,303.2,449.9z"/>
	<path fill="#78CFDE" d="M251.3,245.1c-1,4.1,1.7,8.8-1.9,12.5c0,0.1,0,0.2,0,0.2c6.5,0.4,13,2.1,19.7,1.2c0,0-0.1-0.1-0.1-0.1
		c-1.8-2.8-5.7-1.5-7.2-1.8c-1.5-0.3-3.5,0.9-4.4-1.3c-0.9-2.2,0.9-3.3,2.1-4.7c1.5-1.9,4.1-2.6,6.3-1.7c2.9,0.9,6,0.8,8.8-0.4
		c4.2-1.5,8.7-2.2,13.2-2.1c14.9,0.2,29.7,0,44.5,0c-0.5-0.4-1.1-0.6-1.7-0.8c-11.7-0.7-23.3-2.4-35.1-2.1c-2.8,0.1-5.7-0.3-8.4,0.8
		c-0.1,0-0.2,0-0.2-0.1C275.1,246.4,263.1,246.6,251.3,245.1z"/>
	<path fill="#D1D8D8" d="M219.2,225.1C219.2,225.1,219.2,225.1,219.2,225.1c2.7,0.3,4.4,2,6,3.9c6.7,1.3,13.5,1.5,20.2,0.4
		c2.4-0.4,3.8,0.3,4.7,2.5c0,0,0.1,0,0.1,0c1.9,0,3.4-1.3,5.1-2c0,0,0-0.1-0.1-0.1c-1.3-2.5-2.2-5.2-5.8-4.9c-3.7,0.3-3.7-1.6-4-5
		c0,0,0,0,0,0c-0.3-3.4-1.8-5.9-5.4-6.8c-5.8-1.5-6.6,3.4-8.5,6.9c-6.5-1.9-12.7-0.6-18.9-1.1c0,0-0.1,0-0.1,0
		C212.5,223.4,217.7,222.2,219.2,225.1z"/>
	<path fill="#D28445" d="M245.4,229.4c-6.7,1.1-13.5,0.9-20.2-0.4c-1.1,4.2-0.3,7.5,3.2,10.6c3.5,3.1,3.9,5.6,5.9,8.5
		c2,2.9,4.7,6.4,0.2,10.1c-1.6,1.5-1.7,4-0.3,5.7c0,0,0.1,0.1,0.1,0.1l1-1l0.1-0.1c-0.8-4.5,1.6-6,5.6-5.8l8.4,0.5c0,0,0,0,0,0
		c3.6-3.7,0.9-8.4,1.9-12.5c-0.2-0.3-0.2-0.7-0.2-1v0c-0.1-0.1-0.1-0.2-0.2-0.2c-1.1-1.5-1.3-3.5-3.1-4.6c-4-2.3-3.1-4.5,0.3-6.5
		l0.1,0l0,0l1.9-0.9c0,0,0,0,0,0C249.2,229.7,247.8,229,245.4,229.4z"/>
	<path fill="#CD511E" d="M234.5,258.2c4.5-3.7,1.8-7.2-0.2-10.1c-2-2.9-2.4-5.4-5.9-8.5c-3.5-3.1-4.3-6.4-3.2-10.6
		c-1.6-1.9-3.3-3.6-6-3.9c0,0-0.1,0-0.1,0c-0.2,8.9-1.8,10.3-10.6,12.2c-3.7,0.9-7.5-0.3-11,1.8c-0.4,1-1.2,1.8-2.2,2.1l9.7,1.7
		c2.2,0.3,4.2,1,5.3,3.1l1,1c0,0.1,0,0.1,0,0.2c0,0,0,0,0-0.1c10.2-3.6,19.9,4.5,18.1,14.9c-0.6,3.4-0.1,6.9-1.2,10.3
		c-1.1,3.4-1.1,3.8-3.1,4.8c0-0.1-0.1-0.1-0.1-0.2c0,0.1,0,0.1,0,0.2l0.4,7.8l0,0.2c0,0,0.1-0.1,0.1-0.1c3,0,6,0.8,8.8-0.9
		c0,0,0.1,0,0.1,0.1c-0.1-0.1-0.1-0.2-0.2-0.4c0.9-2.5-2.4-5.1-0.1-7.8c-0.2-1.8,1-3.3,1.5-4.9c0,0,0-0.1,0-0.1
		c-0.8-2.2-1.9-4.4-1.3-6.9c-0.1-0.1-0.1-0.1-0.1-0.2C232.8,262.2,232.9,259.7,234.5,258.2z"/>
	<path fill="#EED1AC" d="M234.1,276c5.9,2.5,12.2,2.5,18.4,2.7c9.1,0.4,18.3,1,27.4,0.4c0.1,0,0.1-0.1,0.2-0.1c1.9-1.1,4-1.9,5-4
		c0,0,0-0.1,0.1-0.1c-1.5-5.2-6.4-4.9-9.8-4.8c-13.2,0.5-26.5-2.4-39.7,0.8c0,0.1,0,0.1-0.1,0.2C235.1,272.7,233.9,274.2,234.1,276z
		 M246.3,274.8c7.1-2.5,14.2-1.7,21.4-1.8c3-0.1,5.9,0.1,8.8,0.8C266.5,278.4,256.4,277.1,246.3,274.8z"/>
	<path fill="#E4F4F4" d="M251.1,244.1c0,0.3,0,0.7,0.2,1c11.8,1.5,23.8,1.3,35.6-0.4c0.1,0,0.2,0,0.2,0c-0.5-1-1.5-1.8-2.7-1.9
		c-9.9-2.1-20-2.3-30.1-2.8c-2.6-0.1-3.1,1.9-3.2,3.9C251.1,244,251.1,244,251.1,244.1L251.1,244.1z"/>
	<path fill="#AD5820" d="M252.5,278.7c-6.2-0.2-12.5-0.2-18.4-2.7c-2.3,2.7,1,5.3,0.1,7.8c0.1,0.1,0.1,0.2,0.2,0.4
		c1.8,1.4,3.5-0.4,5.4-0.2c4,0.4,7.5,1.5,10.4,4.2c0.1,0,0.1-0.1,0.2-0.1c11.1,0.8,22.1,1.4,32.7-3.3c0,0,0.1,0,0.1,0l-3-5.7
		c-0.1,0-0.2,0-0.3,0C270.8,279.7,261.6,279.1,252.5,278.7z"/>
	<path fill="#94561B" d="M290.1,455.8c-12-4-24.9-4.6-30.7-18c-1-2.4-2.5-3.5-5-1.6s-6,5.1-9.8,1c-0.2-0.3-1-0.1-1.5-0.2
		c-7.7-0.8-7.7-1.1-8.2-9c-0.1-5.2,0.2-10.8-3.7-15l-19,7c1.6,14.6,4.6,29.1,9,43.1c1.3,4,3.9,7.5,3.9,11.8c0,6.8,2.4,12.6,6.1,18.1
		c4.8-2.7,9.5-5.4,14.4-7.9c14.8-7.5,28.2-17.4,43.3-24.2l0-0.1l0.3-1.6c0,0-0.1,0-0.1,0C289.6,457.8,290.5,456.5,290.1,455.8z"/>
	<path fill="#8096A9" d="M231.2,413c1.8-1.7,4.8-1.8,6.5-3.9c0.2-0.3,0.3-0.6,0.5-0.9c0,0,0-0.1,0.1-0.1c1.4-3.3,0-3.4-2.6-2.3
		c-7.3,3-14.5,6.1-22.2,8c-4,1-4.4,3.8-4.2,7.2l3-1L231.2,413z"/>
	<path fill="#CA5D0A" d="M45.2,206c0.1,0,0.1,0.1,0.2,0.1c4.6,2.1,9.7,3.4,13.7,6.8c0.9,0.8,2.6,1.3,3.5,0c0.9-1.3,0.2-1.7-1-3
		c-1.2-1.3-2-2.8-0.2-4.2c1.8-1.4,2.8-0.8,3.9,1.5c1.1,2.3,2,0.5,2.9-0.2c0,0,0,0,0,0c0.7-1.8,1.2-3.9,2.2-5.4
		c3.1-4,1.3-6.2-2.1-8.3c-1.7,0.7-2.5,3.3-4.6,2.3c-2.1-1-1.5-3.1-1.6-4.9c-0.3-6.9-1.5-13.8-1-20.8c0.2-2.6-1.2-4.2-3.6-5.3
		c0.9,6.9,0.4,7.8-5.5,8.6c3.9,4.2,2.8,9.1,1.2,13.1c-1.6,4-3.5,9.3-3.8,12.3s-1.7,4.4-4.2,5.4V206z"/>
	<path fill="#E2C1C7" d="M97.5,269.9c8.3,1.7,16.6,2.8,23.9-3.3c0.4-0.4,1.1-0.3,1.8-0.5c0,0,0,0,0,0c9.1-2.8,10.7-2.4,14,3.9
		c1.3,1.2,2.9,1.1,4.5,1c1.6-0.1,3.6-0.1,4.4,2c0,0,0,0.1,0,0.1c10.9-0.2,21.9-0.5,32.8-0.5c10.9,0,24.1-1.7,36,0.5
		c3.1,0.6,5.6-0.5,6.2-4.1c0.1,0,0.1,0,0.2,0.1c0,0-0.1,0-0.1-0.1c-1.7-4-5.7-5.2-9.1-7c0,0-0.1-0.1-0.1-0.1
		c-11.3,2.6-23,3.6-34.6,2.9c-0.1,0-0.1,0.1-0.2,0.1c-9.2,0.3-18.5,0.7-27.7,0.9c-3.8,0.1-7.6-0.5-10.5-3.5c0.1,0,0.1-0.1,0.2-0.1
		c-0.1,0-0.1,0-0.2,0c-4.1-1.3-8-0.6-12.1,0.3c-8.1,1.6-16.1,0.2-23.8-2.5c0,0,0,0,0,0c0,0-0.1,0-0.1,0c-3.4,1.4-7.5,1.6-9.9,5
		C92.9,268.2,94.9,269.4,97.5,269.9z"/>
	<path fill="#8C343C" d="M126.9,262.5c4.1-0.9,8-1.6,12.1-0.3c0.1,0,0.1,0,0.2,0c4.1-2.9,8.7-3.4,13.6-3.1c2.3,0.2,4.8,0.4,6-2.9
		c-4.8-3.2-10.4-5-16.2-5c-7.8-0.2-15.5-0.9-23.2-2.1c-0.8-0.2-1.5-0.6-2.2-1c0.5,0,0.9,0.1,1.4,0.1c-0.5-0.1-0.9-0.2-1.4-0.3
		l-9.8-1.5c-1.8-0.2-3.8-0.5-3.1-3.2c-1.8-1.2-0.2-3.8-2-5c0,0,0,0-0.1,0c0.7,7.2-1.1,14.6,0.9,21.8c0,0,0,0,0,0
		C110.8,262.7,118.8,264.1,126.9,262.5z"/>
	<path fill="#0C0B30" d="M118.3,233.6c11.4,1.1,22.9-0.2,34.4,1.2c3.9,0.5,7.6-1,11.4-1c0.1,0,0.1,0,0.2-0.1
		c1.3-1.4,4.3-1.4,3.6-4.2c-0.8-3-3.3-2.2-5.4-2.6c-11.7-1.9-23.5-0.3-35.2-0.9c-5.1-0.3-10.2,1-15.2-0.8l2.7,0
		c-0.8,0-1.6,0-2.4-0.1c-2.9-0.5-6.1,0.8-8.8-1.1l0.4-0.6c-0.2,0.1-0.5,0.3-0.6,0.6c-1.7,2.2,0.5,4,0.6,6c0,0,0,0,0,0
		C107.8,235,113.5,233.1,118.3,233.6z"/>
	<path fill="#1B1248" d="M104.3,243.2c6.9-3.8,14.6-2.5,21.9-3c23-1.5,46.1-0.4,69.1,1c1-0.3,1.8-1.1,2.2-2.1c0,0,0,0,0-0.1l-0.3-2
		c-9.1,0.4-18.2-1.4-27.4-1.1c-7.5,0.3-14.9,1.2-22.4,1.1c-14.1-0.1-28.2-0.3-42.3-2c-1.4-0.2-3.3-0.8-4,1.3c0,0.1,0,0.3,0,0.4
		l1,1.4c0.1,0,0.1,0.1,0.2,0.1C104.1,239.4,102.5,242,104.3,243.2z"/>
	<path fill="#131C66" d="M115.6,216.3c1-2.8,3.5-3.8,5.7-5.3c0.1,0,0.1,0.1,0.2,0.1c-0.1-0.1-0.1-0.2-0.2-0.3
		c0.9-3.2,3.1-4.2,6.4-4.1c10.8,0.1,21.6,0,32.4-0.1c1.7,0.2,3.5,0.7,5.1-0.5l-6.9-0.2c0,0,0-0.1,0-0.1c0,0-0.1,0.1-0.1,0.1h-24.4
		c-1.3,0-2.6-0.2-3.9-0.6c-1.4-0.5-2.9-1.2-2.6-3.1c0.3-1.9,1.8-2.2,3.4-2.2l10.5,0v-0.9c0,0,0,0,0,0c0,0,0-0.1,0-0.1
		c-0.9-0.4-1.9-0.6-2.9-0.6c-4.9,0.7-11.4-4-14.5,3.9c-0.2,0.6-1.8,1-2.7,1c-5.3,0.2-10,1.7-13.6,5.7c-1,3.6,0.7,7.5-1,11
		c0,0,0.1,0.1,0.1,0.1l0.1-0.1C112.9,222.6,113.3,222.5,115.6,216.3z"/>
	<path fill="#323689" d="M105.1,235c14.1,1.7,28.2,1.9,42.3,2c7.5,0.1,14.9-0.8,22.4-1.1c9.2-0.3,18.3,1.5,27.4,1.1
		c2-2.3-0.1-3.9-0.9-5.9l-0.9-0.2c-0.1-0.1-0.2-0.2-0.2-0.2c0,0,0,0.1,0,0.1c-3.9,4-9.2,2.3-13.9,3c-4.7,0.7-11.5,0.2-17.2,0.2
		c0.1-0.1,0.1-0.2,0.2-0.3c-0.1,0-0.1,0-0.2,0.1c-3.8,0-7.5,1.5-11.4,1c-11.5-1.4-23-0.1-34.4-1.2c-4.8-0.5-10.5,1.4-14.3-3.6
		c0,0-0.1-0.1-0.1-0.1c-2.7,1.5-4.5,3.4-2.9,6.7c0-0.1,0.1-0.2,0.1-0.3C101.8,234.2,103.7,234.8,105.1,235z"/>
	<path fill="#2B3BB2" d="M112.4,225.1c0.8,0,1.6,0.1,2.4,0.1l49.3-0.3c0,0,0.1,0,0.1-0.1v-0.7c0.1-0.1,0.1-0.1,0.2-0.2c0,0,0,0,0,0
		h-0.2l-42.2-0.5c-0.2,0-0.4-0.7-1-1.7l18.1-0.9h0.1c-0.8-3.4-4.1-2.8-6.3-3.9c-3.8-1.9-8.8-1.6-11.4-5.8c-0.1,0-0.1-0.1-0.2-0.1
		c-2.2,1.5-4.7,2.5-5.7,5.3c-2.3,6.2-2.7,6.3-8.9,3.7l-0.1,0.1l-2.6,3.3l-0.4,0.6C106.3,225.9,109.5,224.6,112.4,225.1z"/>
	<path fill="#C39699" d="M91.3,266.1c-1.2,2.1-2.3,4.2-2.1,6.8c7.1,4.9,17.3,5.8,22.8,2c1.5-3,5.4-2.6,7.4-4.9
		c1.2-1.3,2.4-2.6,3.8-3.8c-0.7,0.2-1.4,0.1-1.8,0.5c-7.3,6.1-15.6,5-23.9,3.3c-2.6-0.5-4.6-1.7-4.4-4.9l-1.7,1L91.3,266.1
		L91.3,266.1z"/>
	<path fill="#131360" d="M141.2,200c7.2,0.5,14.6-0.9,22,1c-0.9,3.4-3.6,3.3-4.9,4.8c0,0,0,0.1,0,0.1l6.9,0.2c0,0,0.1-0.1,0.1-0.1
		c4-0.1,5.2,2.7,6.1,5.8c0,0,0,0,0-0.1c3.3,2.1,3.8,6,5.8,9c0,0,0,0,0,0l0.9,0.4c0,0,0,0.1-0.1,0.1c0,0,0,0,0.1,0
		c2-0.1,1.9-1.6,2.3-3.1c0.8-3.1,0.2-6.6,2.8-9.1c0,0,0.1,0,0.1,0.1c0-0.1-0.1-0.1-0.1-0.2c-0.9-2.5-1.6-5-5.1-5.2
		c-1.4,0.1-2.6-0.9-2.8-2.3c-0.3-3.8-3.2-4.6-6-5.6c0,0-0.1,0-0.1,0.1h-4.9c0,0,0,0-0.1,0c0,0,0,0,0,0c-1.6,1.3-3.6,2.1-5.7,2.1
		c-5.8,0.2-11.5,0.6-17.3,1c0,0,0,0,0,0V200z"/>
	<path fill="#A76925" d="M238.3,408.1c0,0.1-0.1,0.1-0.1,0.1c-0.2,0.3-0.3,0.6-0.6,0.9c-1.7,2.1-4.6,2.1-6.5,3.9
		c3.9,4.2,3.6,9.8,3.7,15c0.5,7.9,0.5,8.2,8.2,9c0.5,0.1,1.3-0.1,1.5,0.2c3.8,4.1,7.3,0.9,9.8-1s4-0.8,5,1.6
		c5.8,13.4,18.7,14,30.7,18c0.4,0.7-0.5,2-1,3.4c0,0,0.1,0,0.1,0c5.4-2.1,9.7-5.5,13.9-9.2c0,0,0,0,0,0c-0.5-1.2-1.7-1.9-3-1.9
		c0,0-0.1,0-0.1,0c-6,3.1-8.6,2.2-11.7-3.8c-3.1-6.1-5.6-12.4-3.3-19.5c1-3.2-1.2-4.8-4.1-4.7c-2.9,0.1-5-2.2-4.8-5.6
		c0.2-1.7,0.2-3.3,0-5c-0.5-5.1,2.1-8.1,6.6-9s5.7-3,8.1-6c-4.4-0.5-7.1,3.6-11.3,3.4c-0.7-3,1.2-4.1,3.1-5c2.4-1.1,4.9-2,7.4-2.7
		c3.1-0.7,5.1-2.2,6-5.2c0,0,0,0,0.1-0.1l-17.7,6.3l0,0C265.3,397.6,252.1,403.7,238.3,408.1z"/>
	<path fill="#817E8E" d="M250.2,369c-0.1-0.1-0.1-0.1-0.1-0.2c0,0.1,0,0.1-0.1,0.2c-1.8,2.9-4.6,5-7.9,5.9l-5.8,3.3h0l0,0
		c-0.8,3.1-3.7,4.2-6.1,4.5c-5.1,0.6-9.9,2.6-15.1,2.5c-3-0.1-6.2,1.1-9.1,2.1c-8.6,3-8.8,3-13.8-4.3l0,0c0,0,0,0,0,0
		c-2.6-2.5-7.8-2.7-7.2-8c0,0,0-0.1-0.1-0.1c-1.1,0.2-1.9,1.3-1.7,2.4c0,0.1,0,0.1,0,0.2c0.4,3.1-1.1,5.4-3.2,7.4c0,0,0,0,0.1,0
		c3.5-0.1,7,1.1,9.7,3.3c4.2,3.6,4.1,5.9-0.4,9.5c-2.6-0.3-3.3-3.1-5.8-4.2c0.1,2.1,0.7,4.3-1.4,5.6c-0.1,0-0.1,0-0.2,0
		c1.3,1.7,3.5-1.6,4.6,0.8c1.1,2.4-0.7,3.9-2.4,5.2c-2.9,2.2-6.1,4-9.5,5.2c-6.1,2-12.3,3.9-17.7,7.6c0,0,0,0,0.1,0
		c12.2,1.5,22.7-3.6,33.3-8.2c0.8-0.3,1.5-0.9,1.9-1.6c1.6-4.1,6.1-5.9,6.8-10.8c0-0.1,0-0.2,0.1-0.4c0.1,0.1,0.1,0.2,0.2,0.2
		c5.5,7.4,6.7,8,11.1,4.8c10-7.3,11.2-6.9,8.1-12.9c-0.2-0.3-0.3-0.6-0.5-1l-1.6-1.9l-0.1-0.1h0.1h14.6c0.7-0.5,1.5-0.6,2.3-0.6
		c3.1-0.8,6.3-1.5,9.4-2.5c5.6-1.9,10-5.1,10.2-11.8c0,0,0.1,0,0.1,0c0,0,0,0,0,0c-0.9-0.3-1.8-0.7-1.9-1.9c0,0,0,0,0,0l-0.1,0
		L250.2,369z"/>
	<path fill="#4B5768" d="M146,405c-3.2,0.8-5.7,0.4-5.7-3.8v0h-0.9c0-0.1-0.1-0.1-0.1-0.2c0,0.1,0,0.1,0,0.2c0,0.3-0.1,0.6-0.2,0.9
		c0,0,0,0,0,0c-1,4.9-4.7,7.6-8.5,10.2l-7.3,4.8c-0.1,0.1-0.1,0.2-0.2,0.3c-1.2,1.7-2.9,2.3-4.8,2.6c0.1,1.3,0.3,2.6,0.7,3.8
		c2.5,6.1,1.9,7.9-4.5,9.5c-3.4,0.8-6.9,2.1-10.3,1.3c-1.1-1.5-0.3-2.5,0.2-3.5c1.5-3.2,0.7-4.5-2.9-3.4c-3.5,1.1-5.7-2-8.8-1.9
		c-0.1,0-0.2,0.1-0.3,0.1h0h-0.1c0,0,0,0,0,0c1.9,2.2,5.3,2.1,6.8,4.7c-2.6,5.8-2.1,8.1,3.8,7.8c5.9-0.3,12.2,0.6,18-2.2
		c3.5-1.6,7.1-2.7,10.8-3.4c4.8-1,8.4-3.9,8.8-9.3c0.4-5.4,3.5-9.8,9.1-10.3c5.6-0.5,10.5-2.7,15.7-4.4c3-1,4.5-2.7,4-5.8l0,0
		C161.4,402.8,153.6,403,146,405z"/>
	<path fill="#401B1E" d="M174.2,393.1c-0.1-2.8-1.5-4.2-4-4.1c-2.4,0.1-5.1-1.3-6.7-3.7c-0.1,0-0.1,0-0.2,0c-1-0.3-1.8-1.1-2.2-2.1
		c0,0-0.1-0.1-0.1-0.1c0,0,0,0,0,0c-2.5-1.9-5.4-2.3-8.5-2.1c-5.3,0.3-7.1,2.1-7.3,7.3c0,2.1,0.4,4.3-1.8,5.7c0,0,0,0.1,0,0.1
		c-0.3,2.6-1.4,5.1-3,7.1h-0.1v0c0,4.2,2.5,4.6,5.7,3.8c7.6-2,15.4-2.2,23.2-2l0,0l3.1-2C174.5,398.7,174.3,395.9,174.2,393.1z"/>
	<path fill="#644D5C" d="M183.7,393.5c2.5,1.1,3.2,3.9,5.8,4.2c4.5-3.6,4.6-5.9,0.4-9.5c-2.7-2.2-6.2-3.4-9.7-3.3c0,0,0,0-0.1,0
		c0,0,0,0,0,0h-2.7c-0.1,0-0.2-0.1-0.3-0.1l0.3,0.3c-2.6,3.2-5.9,2-9,1.5c-3-0.5-3.4-0.9-4.9-1.3c1.6,2.3,4.3,3.8,6.7,3.7
		c2.5-0.1,3.9,1.3,4,4.1c0.1,2.8,0.3,5.6-1.9,7.9c3.3-0.2,6.6-0.9,9.8-1.9c0.1,0,0.1,0,0.2,0C184.4,397.8,183.8,395.6,183.7,393.5z"
		/>
	<path fill="#217BAC" d="M107.1,417.1c-7.1-2.4-9.6-6.9-6.8-13.7c2-4.9,3.4-9.4,0.4-14.5s2.2-5.6,3.9-7.9c-1-2.1-4.2-1-4.4-3.8h0
		l0,0c-4.3-2-8.1-3.4-13.3-1.4c-5.2,2-10.4,0.2-15.1-2.9c-4.7-3.1-6.9-3-10.1,0.9c-3.2,3.9-4.6-0.6-7.4-1.2
		c-5.2,6.2-11.5,2.8-17.7,1.5l0-0.2c0,0,0,0-0.1,0c-0.1,1.1-0.4,2.3,0.7,3.1c1,0.4,2.6,0.6,3,1.2c2.4,3.9,5.2,3.7,9.4,2.8
		c4.2-0.9,7.3,1.3,9.5,4.9c0.9,1.5,1,2.8-0.5,3.9c-5.3,3.8-9.8,9.1-17.1,9.1c-2.2,0-3.6,1.3-4.3,3.4l-2,5.6c0.1,0,0.2,0,0.3-0.1
		c5-1.1,10.3-1.4,14.4-5.2c1.4-1.3,3.5-0.8,5.3-0.7c6.5,0.2,12.9-0.3,19.3-1.5c6.6-1.1,13.4,0.1,19.2,3.3c4.1,2.1,4.8,5.4,2.1,9
		c-1.4,1.9-3.4,4.5-2.6,6.3c0,0,0,0,0,0.1c0.8,1.8,2.2,2.8,4,1.8c0.1,0,0.1,0,0.2-0.1C99.9,417.7,104.7,420.4,107.1,417.1z"/>
	<path fill="#343C3C" d="M101.4,427.7c3.6-1.1,4.4,0.2,2.9,3.4c-0.5,1-1.3,2-0.2,3.5c3.4,0.8,6.9-0.5,10.3-1.3
		c6.4-1.6,7-3.4,4.5-9.5c-0.4-1.2-0.6-2.5-0.7-3.8c-6.7,1.3-13.4,2.4-19.9,3.8c-2,0.4-4.9-1.4-5.9,2c0,0,0.1,0,0.1,0
		c0,0,0.1,0,0.1,0C95.7,425.7,97.9,428.8,101.4,427.7z"/>
	<path fill="#156A9A" d="M123.3,417.1l7.3-4.8c3.8-2.6,7.4-5.3,8.5-10.2c-7.9,6.6-16,12.6-26.5,14.4c-1.8,0.3-3.6,0.5-5.4,0.6
		c0,0,0,0-0.1,0c-2.5,3.3-7.3,0.7-9.8,3.8c0,0.1-0.1,0.1-0.2,0.2c6.8,0.3,13.5,0,19.7-3c1.9-0.9,4-1.2,6.1-0.9
		C123.1,417.1,123.1,417.1,123.3,417.1L123.3,417.1z"/>
	<path fill="#81DCF5" d="M54.4,344.6c6-1.7,12-2.2,17.9,0.4c2.9,1.3,5.4,1.2,7.6-1.4c2.2-2.6,3.8-1.9,5.7,0.4c3.3,3.9,5.2,4,9.6,0.3
		c1.8,5.5,5.5,3.9,8.2,1.5c4.3-3.7,7.9-4.3,12.1-0.1c1.9,1.9,3.5,1.3,4.7-1s1.6-3.5,4.1-2.5s-0.4,2.6-0.1,3.8
		c4.9,1.9,8.3,0.7,9.5-4.6c2.4-0.1,2.7,2,4,2.9c1.3,0.9,1.1-2.7,2.4-3.4c0,0,0.1,0,0.1,0.1v-2c0-0.1,0.1-0.1,0.1-0.1
		c-0.3-2.2,0.1-4.5,1.2-6.5c1.2-2.1,1.3-4-1.1-5.4c0,0,0,0,0-0.1c0,0-0.1,0-0.1,0.1c-6.1,2.8-11.4,3.1-15.3-3.7
		c-0.9-1.5-3.1-2.3-4.7-3.5c-6,3.6-11.2,7.9-14.4,14.5c-1.6,3.2-5.9,3.1-8.9,3.4c-6.9,0.6-14,1.2-20.6-1.8c-1.3-0.6-3-1.1-3.8-2.2
		c-3.3-4.6-7-3.4-11.4-1.8c-4.4,1.6-8.9,2.2-13.5,3.1c-2,0.4-4.1,0.1-4.4-2.7c0.1-0.1,0.2-0.2,0.3-0.2c-0.1,0-0.3,0.1-0.4,0.1
		l-15.5,9.7c1,3.1,1.1,6.4,3.2,9.1l0-0.1L54.4,344.6z"/>
	<path fill="#46B7DB" d="M53.5,366.9c2,0.2,3.5-1.6,5.2-2.7c1.7-1.1,5-2.1,6.4,1.4c1.4,3.5,2.4,2.3,5.1,1.7
		c8.6-2.1,17.5-3.2,26.4-3.4c3.2,0,3.1,3.8,6.7,3.5s7.2,1,11-1c2-1.1,5-0.4,7.6-0.3c0.2-0.2,0.4-0.4,0.5-0.5
		c0.7-2.7,2.6-3.4,5.4-2.6c2.9,0.9,3.7,1.6,6.1,0.6c-2.7-3.8-7.7-4.8-10.1-9c0.9-1.1,2.4-1.7,3.8-1.5c3.8,0.1,7.4-0.2,9.6-3.9
		c1.1-1.8,2.5,0,3.7-0.1c0.1-0.1,0.3-0.1,0.4-0.2c0,0,0,0,0,0c-0.1,0-0.1,0.1-0.2,0.1c-2.2-2.4,0.5-5.4-0.9-7.9v0c0,0-0.1,0-0.1-0.1
		c-1.3,0.7-1.1,4.3-2.4,3.4c-1.3-0.9-1.6-3-4-2.9c-1.2,5.3-4.6,6.5-9.5,4.6c-1.1,2.4-2,4.6-5.5,3.1c-1.5-0.7-2.6,0.8-3.7,1.9
		c-4.4,4.1-9.3,5.9-15.5,4.3c-7.1-1.8-14.5-2-21.7-0.7c-2.8,0.5-5.1-1-7.5-2.1c-2.4-1.1-6.2-1-9.8,0.1c-5.1,1.6-10,5.2-15.8,4.2
		c-4.2-0.8-6.9,3.2-10.8,3.2l-0.1-0.2c0,0,0,0,0,0.1l1.4,6.9c0.3,0.1,0.5,0.2,0.8,0.4C41.9,368.4,47.6,366.4,53.5,366.9z"/>
	<path fill="#6BCEED" d="M44.7,356.8c5.8,1,10.7-2.6,15.8-4.2c3.6-1.1,7.4-1.2,9.8-0.1c2.4,1.1,4.7,2.6,7.5,2.1
		c7.2-1.3,14.6-1.1,21.7,0.7c6.2,1.6,11.1-0.2,15.5-4.3c1.1-1.1,2.2-2.6,3.7-1.9c3.5,1.5,4.4-0.7,5.5-3.1c-0.3-1.2,2.6-2.8,0.1-3.8
		s-2.9,0.2-4.1,2.5s-2.8,2.9-4.7,1c-4.2-4.2-7.8-3.6-12.1,0.1c-2.7,2.4-6.4,4-8.2-1.5c-4.4,3.7-6.3,3.6-9.6-0.3
		c-1.9-2.3-3.5-3-5.7-0.4c-2.2,2.6-4.7,2.7-7.6,1.4c-5.9-2.6-11.9-2.1-17.9-0.4l-23.5,6.3l0,0.1l2.9,8.8l0.1,0.2
		C37.8,360,40.5,356,44.7,356.8z"/>
	<path fill="#32A1CB" d="M54.3,372.6c2.8,0.6,4.2,5.1,7.4,1.2c3.2-3.9,5.4-4,10.1-0.9c4.7,3.1,9.9,4.9,15.1,2.9
		c5.2-2,9-0.6,13.3,1.4l0,0c6.1-1.4,11.9-1.6,17.8,1.2c3.1,1.3,4.7-2.4,7.2-3.4c0,0.1,0,0.2,0.1,0.3c0-0.1,0-0.1,0-0.2
		c-0.2-3.3-1.5-6-2.9-8.9c-0.1,0-0.1-0.1-0.2-0.1c-0.1,0-0.2,0-0.3,0c-2.6-0.1-5.6-0.7-7.6,0.3c-3.8,2-7.4,0.7-11,1
		s-3.5-3.5-6.7-3.5c-8.9,0.2-17.8,1.3-26.4,3.4c-2.7,0.6-3.7,1.8-5.1-1.7c-1.4-3.5-4.7-2.5-6.4-1.4c-1.7,1.1-3.2,2.9-5.2,2.7
		c-5.9-0.5-11.6,1.5-17.5,0.3c-0.2-0.1-0.5-0.1-0.7-0.2l1.3,6.9l0,0.2C42.8,375.4,49.1,378.8,54.3,372.6z"/>
	<path fill="#0D7446" d="M43.2,332.2c0.1,0,0.3-0.1,0.4-0.1c5.8-5,13.2-7.2,19.6-11.1l0.1,0c0,0-0.1,0-0.1-0.1
		c-1-4.6-3.5-6.6-7.5-5.7c-6.2,1.3-12.6,0.1-18.7,2.2c-2.7,0.9-2.8-1.9-3.8-3.4c0,0-0.1,0-0.1-0.1c-3.6,0.5-7.7-2.2-11,1.3
		c0.6,9.1,3,17.9,5.6,26.7l0,0L43.2,332.2z"/>
	<path fill="#815767" d="M85.3,309c9.6-1.9,20.4,1,28.6-6.8c-3.1-3.4-0.2-8.3-0.8-12.3c-4.7-2.3-10-1.2-14.9-3.5
		c-4.8-2.3-7.4,2.2-10.8,4.4c0,0.1-0.1,0.1-0.1,0.2c0.3,3.8-1.5,6.9-3.2,10.1c0,0,0,0,0,0v2.9L85.3,309z"/>
	<path fill="#A36F79" d="M98.2,286.4c4.9,2.3,10.2,1.2,14.9,3.5c-1.2-4.9-0.8-10-1.1-15c0,0,0,0,0-0.1c-5.5,3.8-15.8,2.9-22.8-2
		c0,0-0.1,0-0.1-0.1c-1.8,0.9-1.9,2.5-1.9,4.2c0,4.7,0.1,9.3,0.1,13.9c0,0,0.1-0.1,0.1-0.1C90.8,288.6,93.4,284.1,98.2,286.4z"/>
	<path fill="#267E51" d="M37,317.4c6.1-2.1,12.5-0.9,18.7-2.2c4-0.9,6.5,1.1,7.5,5.7c0,0,0.1,0,0.1,0.1l21.8-8.1h0l0.2-3.9l-1.2-5
		c-6.2,2.8-12.5,0.7-18.9,0.9c0,0-0.1,0-0.1,0c-6.4,4-14.1,2.5-20.9,5.1c-2.3,1-4.9,1-7.2,0.2c-3-1.1-4.2,0.6-3.9,3.6
		c0,0,0.1,0.1,0.1,0.2C34.2,315.5,34.3,318.3,37,317.4z"/>
	<path fill="#B5B4B9" d="M279.2,368.7c6,0.8,12.2-1.4,16.6-3.6c4.4-2.2,4.5-4.8,0.4-7.6c-2.4-1.6-5.9-2.3-7.9-2.8
		c-1.9-0.5-4.6-0.5-5-3.3c0-0.1,0-0.2,0-0.3c0,0,0-0.1,0-0.1c-1.2,1-1.9,2.4-2,4C283.9,360.1,281.3,364.3,279.2,368.7z"/>
	<path fill="#975C2A" d="M269.2,362.9c3.6-3,1.5-4.7-1.5-5.9c-5.2-1.9-8.3-5.2-7.6-11.1c0,0,0-0.1,0-0.1c0,0.1,0,0.1-0.1,0.2
		c-4.3,7.1-7.7,14.8-9.9,22.8c0,0.1,0.1,0.1,0.1,0.2l1,0.2l0.1,0l1.9-0.2C257.8,364.9,263.7,364.5,269.2,362.9z"/>
	<path fill="#A3928B" d="M269.2,362.9c-5.5,1.6-11.4,2-16,6.1c8.7,2,17.3,1.1,26-0.2c0,0,0-0.1,0-0.1c2.1-4.4,4.6-8.6,2-13.7h-1.9
		C278.6,361,276.1,362.9,269.2,362.9z"/>
	<path fill="#9D9392" d="M242.9,382.9c-3,1-6.2,1.8-9.4,2.5c-0.8,0.2-1.6,0.4-2.3,0.6c8.1,0.3,16.2-0.1,24-2.7c3.1-1,6.8-1.9,6.9-6
		c0.1-4.1-3.6-4.2-6.2-5.4c-0.9-0.3-1.8-0.6-2.7-0.8c0,0-0.1,0-0.1,0C252.9,377.8,248.5,381,242.9,382.9z"/>
	<path fill="#C06D1E" d="M290,390.2c-2.5,0.7-5,1.6-7.4,2.7c-1.9,0.9-3.8,2-3.1,5c4.2,0.2,6.9-3.9,11.3-3.4c-2.4,3-3.6,5.1-8.1,6
		s-7.1,3.9-6.6,9c0.2,1.7,0.2,3.3,0,5c-0.2,3.4,1.9,5.7,4.8,5.6c2.9-0.1,5.1,1.5,4.1,4.7c-2.3,7.1,0.2,13.4,3.3,19.5
		c3.1,6,5.7,6.9,11.7,3.8c0.1,0,0.1-0.1,0.2-0.1c-2.7-3.7-1.4-7.6-5.1-12.2s-3.3-6.6,2.4-10.1c1.2,1.9-0.4,3.2-0.9,4.6
		s-0.5,2.8,0.9,3.4c1.4,0.6,2.1-0.5,2.6-1.6c1.6-3.7,4.1-8.2,4.2-11.1c0.1-2.9,0.8-6,4.5-7c0.7-0.2,1.8-0.9,1.8-1.4
		c-0.1-4.9,3.6-8.4,4.4-13c1.4-8.2,2.6-16.4,2-24.7c-0.1,0-0.1,0-0.2,0c-7.6,2-14.7,4.9-20.8,10c0,0,0,0-0.1,0.1
		C295.1,388,293.1,389.5,290,390.2z"/>
	<path fill="#B88049" d="M268.2,309.7c-2.8,1.1-6.2-0.9-8.9,1.5c1.2,2.8,3.5,1.7,5.2,1.7s4,0.2,3.7,3.1c-0.1,0-0.1,0.1-0.2,0.1
		c0,0,0,0,0.1,0c-2,7.7-2.9,15.8-6.8,22.9c0-0.2-0.1-0.3-0.1-0.5c0,0.2-0.1,0.3-0.1,0.5c0.1,2.3-0.3,4.6-1,6.8c0,0,0,0.1,0,0.1
		c-0.7,5.9,2.4,9.2,7.6,11.1c3,1.2,5.1,2.9,1.5,5.9c6.9,0,9.4-1.9,10.1-7.9c-0.2-1.2-0.5-2.4-1-3.5c-3.7-7.2-3.2-13.6,2.8-19.5
		c1.7-1.7,3.7-3.8,2.2-7c-0.8-1.7,0.6-2.8,2.3-3.1c6-1,2.9-7,4-9.4c1.1-2.4-2.4-2.2-3.8-3.2c0.2-2,3.6-0.9,2.8-4.2
		c-10.4,1.5-21,2.1-31.5,1.7c0,0,0,0.1,0,0.1c0,0,0.1,0.1,0.1,0.1C260.5,309.5,265.1,306.4,268.2,309.7z"/>
	<path fill="#BD852A" d="M238.9,305.9c-3.9,0.4-6.6,0.4-9.9,0.5c0,0-0.1,0-0.1,0c0,0,0,0,0,0c-5.6,1.5-3.3,6-3.5,9.6
		c8.1-0.9,16,2.2,24.2,0.3c3.7-0.8,6.3,3,9.6,5.7c0,0,0.1,0,0.1,0c-0.7-8.4,4.9-5.6,8.7-5.9c0.1,0,0.1-0.1,0.2-0.1
		c0.3-2.9-2-3.1-3.7-3.1s-4,1.1-5.2-1.7c2.7-2.4,6.1-0.4,8.9-1.5c-3.1-3.3-7.7-0.2-11-2.7c0,0-0.1-0.1-0.1-0.1
		c-1.4-1.1-0.7-2.7-0.9-4c-2.2-1-4.5-2-7-1.8c0,0-0.1,0-0.1,0l0.1,0.1C247,305.3,242.8,305.5,238.9,305.9z"/>
	<path fill="#771406" d="M175.3,201.4c0.2,1.4,1.4,2.4,2.8,2.3c3.5,0.2,4.2,2.7,5.1,5.2c0,0.1,0.1,0.1,0.1,0.2
		c5.8,4,10.8,8.7,12.7,15.8c0.1,2-1.3,3.8-0.8,5.8c0.1,0.1,0.1,0.2,0.2,0.2l0.9,0.2l0.1,0c3.3-1.2,5.3-4.7,9.2-5.1
		c0.9-0.1,0.9-2.1,0-3c-5.9-5.8-5.7-13.7-7.4-21c-0.9-3.6-0.3-8.2-5.2-9.8c-1.6-0.5-2.9-1.2-2.5-3.1c0.4-1.9,2-2.1,3.5-2
		c2.2,0.3,4.3-1,5.2-3H199h-14.8c0,0-0.1,0.1-0.1,0.1c-0.7,0.6-1.6,0.9-2.6,0.8c-5.6,0.3-10.8,4.9-12.3,10.8c0,0,0.1,0,0.1,0
		C172.1,196.8,175,197.6,175.3,201.4z"/>
	<path fill="#5D3510" d="M237.5,292.9c-2.9-0.2-3.9,0.5-5.8-1.4c-1.9-1.9-3.3,1.5-5.3,1.8c-0.1,0-0.1-0.1-0.1-0.1c0,0,0,0.1,0,0.1
		v5.6c0.1,0.1,0.1,0.2,0.1,0.4c1.3,2.2-0.4,5.4,2.4,7.1c0,0,0.1,0,0.1,0c3.3-0.1,6-0.1,9.9-0.5c3.9-0.4,8.1-0.6,10.3-4.7l-0.1-0.1
		l-4.6-3.4c-0.1-1.7,0.9-3.1,1.6-4.5c0-0.1-0.1-0.1-0.1-0.1C243.2,292.4,240.3,293.1,237.5,292.9z"/>
	<path fill="#D49955" d="M225.2,286c-0.1,0-0.1,0-0.2,0.1c0.2,2.4-0.3,4.9,1.2,7.2c0.1,0,0.1,0.1,0.1,0.1c2-0.3,3.4-3.7,5.3-1.8
		c1.9,1.9,2.9,1.2,5.8,1.4c2.8,0.2,5.7-0.5,8.5,0.2c0.1,0,0.1,0,0.2,0c1.9-1.2,4.8-1.5,4.2-4.7c-0.1-0.1-0.2-0.1-0.2-0.2
		c-2.9-2.7-6.4-3.8-10.4-4.2c-1.9-0.2-3.6,1.5-5.4,0.2c0,0-0.1,0-0.1-0.1c-2.8,1.7-5.8,0.9-8.8,0.9c0,0-0.1,0.1-0.1,0.1L225.2,286z"
		/>
	<path fill="#BD95A1" d="M221.3,269.1c-0.1,0-0.1,0-0.2-0.1c-0.6,3.6-3.1,4.7-6.2,4.1c-11.9-2.2-25.1-0.5-36-0.5
		c-10.9,0-21.9,0.3-32.8,0.5c0.6,4.7,3.9,6.6,8.2,5.8c9.2-1.7,18.2-0.7,27.1,1.2c7.6,1.6,15.4,1.9,23.1,0.9c7.4-0.9,14.1,1.4,20.5,5
		c0,0,0,0,0,0.1c0.1,0,0.1,0,0.2-0.1l0.2-0.9l0-0.2l-0.4-7.8c0-0.1,0-0.1,0-0.2C223.7,274.4,223.7,271.1,221.3,269.1z"/>
	<path fill="#E4BCC4" d="M126.2,240.2c-7.3,0.5-15-0.8-21.9,3c-0.7,2.7,1.3,3,3.1,3.2l9.8,1.5c0.5,0.1,0.9,0.2,1.4,0.3
		c9.7,0.6,19.6,1,29.2,2.3c7.6,0.9,14.9-1.1,22.3-0.6c0,0-0.1-0.1-0.1-0.1c3.8-1.7,7.8-0.8,11.8-1c7.6-0.2,15.3,0.4,22.8-1
		c2-0.2,3.9-0.8,5.6-1.9l0.1,0.1c-1.1-2.1-3.1-2.8-5.3-3.1l-9.7-1.7C172.3,239.8,149.2,238.7,126.2,240.2z M117,243.7
		c25.5-3.6,51.4-3.5,76.8,0.5C168.2,248,142.6,247.2,117,243.7z"/>
	<path fill="#BB350D" d="M212.1,261.9c0,0-0.1,0-0.1,0c0,0,0.1,0.1,0.1,0.1c3.4,1.8,7.4,3,9.1,7c0,0,0.1,0,0.1,0.1
		c2.5,2.1,2.4,5.3,3.7,7.8c0,0.1,0.1,0.1,0.1,0.2c2-1,2-1.4,3.1-4.8c1.1-3.4,0.6-6.9,1.2-10.3c1.8-10.4-7.9-18.5-18.1-14.9
		c0,0,0,0,0,0.1C209.9,252.2,207,257.2,212.1,261.9z"/>
	<path fill="#9B6676" d="M204.6,247.8c-7.5,1.4-15.2,0.8-22.8,1c-4,0.2-8-0.7-11.8,1c0,0,0.1,0.1,0.1,0.1c0,0,0,0,0,0
		c7.3,0.8,14.5,1.6,21.8,1.3c2.1-0.1,3.5,0.2,4.5,2.2s-0.3,3.3-1.8,4.5c-5,4.2-11.6,4.3-17.2,6.9c11.6,0.7,23.3-0.3,34.6-2.9
		c0,0,0.1,0,0.1,0c-5.1-4.7-2.2-9.7-0.8-14.7c0-0.1,0-0.1,0-0.2l-1-1l-0.1-0.1C208.5,247,206.6,247.6,204.6,247.8z"/>
	<path fill="#BC8E5E" d="M267.7,273c-7.2,0.1-14.3-0.7-21.4,1.8c10.1,2.3,20.2,3.6,30.2-1C273.6,273.1,270.7,272.9,267.7,273z"/>
	<path fill="#694865" d="M113.1,289.9c0.6,4-2.3,8.9,0.8,12.3c0.1-0.1,0.2-0.2,0.3-0.3c3.3,1.5,5.8,0.2,7.8-2.3s5.4-3.1,8.6,0
		c3.2,3.1,6.6,5.3,8.5,9.4c0.9,2,2.9,2.5,4.9,0.7s5.4-2.7,8.3-0.4c0,0,0,0.1,0,0.1c0,0,0.1-0.1,0.1-0.1c3.3-0.1,7.1-1.8,10,1.6
		c-0.1,0-0.1,0-0.2,0c0.1,0,0.1,0,0.2,0.1c4.9,2.1,7.3,6.5,9.6,10.9c0.7,1.3,0.8,3,2.1,4.1c0.1,0,0.1,0,0.2-0.1
		c1.6-4.8-4.1-8.2-2.7-12.9c0.6-2.5,6.3,1.1,4.7-4c0,0,0,0,0,0c0,0,0,0,0,0c-3.6,1.1-7.2,2-9.9-1.6c1.5-2.6,3.8,0.6,5.5-1.8
		c-2.8-1.8-4.2-6.1-9-3.4c-6.4,3.6-14.9-1.2-15.5-8.8c-0.1-1.8,0-3.6,0-5.4c0,0-0.1,0-0.1,0c-0.1-3.1,0.4-6-2.4-8.7
		c-1.2-1.1-0.5-4-0.7-6.2c0,0,0,0,0,0h-7.9l1-3.1c-3.3-6.3-4.9-6.7-14-3.9c0,0,0,0,0,0c-1.3,1.2-2.6,2.4-3.8,3.8
		c-2,2.4-5.8,1.9-7.4,4.9c0,0,0,0,0,0.1C112.3,279.9,111.9,285,113.1,289.9z M137,279.4c-0.2,4.8-5.7,9.8-9.8,9.5s-3.7-2.5-3.9-4.9
		c-0.2-2.4,4.6-8.1,8.5-8C135.7,276.1,136.7,276.7,137,279.4z"/>
	<path fill="#8D4C5A" d="M194.6,257.9c1.5-1.2,2.8-2.5,1.8-4.5s-2.4-2.3-4.5-2.2c-7.3,0.3-14.5-0.5-21.8-1.3c0,0,0,0,0,0
		c-7.4-0.5-14.7,1.5-22.3,0.6c-9.6-1.3-19.5-1.7-29.2-2.3c-0.5,0-0.9-0.1-1.4-0.1c0.7,0.4,1.4,0.8,2.2,1c7.7,1.2,15.4,1.9,23.2,2.1
		c5.8,0,11.4,1.8,16.2,5c-1.2,3.3-3.7,3.1-6,2.9c-4.9-0.3-9.5,0.2-13.6,3.1c-0.1,0-0.1,0.1-0.2,0.1c2.9,3,6.7,3.6,10.5,3.5
		c9.2-0.2,18.5-0.6,27.7-0.9c0.1,0,0.1-0.1,0.2-0.1C183,262.2,189.6,262.1,194.6,257.9z"/>
	<path fill="#A27987" d="M136.2,273.1h7.9c0,0,0,0,0,0c0,0,0-0.1,0-0.1c2,6,5.9,9.5,12.5,9.6c6.6,0.1,13.7,2.6,20.7,0.5
		c1.9-0.6,3.6,0.2,5.3,1c5.2,2.2,10.4,3.7,16.4,2.1c3.1-0.9,7.3-1.3,8.3,3.8c-0.1-0.1-0.2-0.2-0.3-0.3c0.1,0.1,0.2,0.2,0.2,0.4
		c5.4,5.2,13,7.2,18.6,12.8l0.4-4c0.1,0.1,0.2,0.2,0.2,0.4c0-0.1-0.1-0.2-0.1-0.4v-5.6c0,0,0-0.1,0-0.1c-1.5-2.3-1.1-4.7-1.2-7.2
		c0,0,0,0,0-0.1c-6.4-3.6-13.1-5.9-20.5-5c-7.7,1-15.5,0.7-23.1-0.9c-8.9-1.9-17.9-2.9-27.1-1.2c-4.3,0.8-7.5-1.1-8.2-5.8
		c0,0,0-0.1,0-0.1c-0.8-2.1-2.8-2.1-4.4-2c-1.6,0.1-3.2,0.2-4.5-1L136.2,273.1z"/>
	<path fill="#0E1055" d="M196,224.9h-31.8v-0.1c0,0-0.1,0-0.1,0.1l-49.3,0.3l-2.7,0c5,1.8,10.1,0.5,15.2,0.8
		c11.7,0.6,23.5-1,35.2,0.9c2.1,0.4,4.6-0.4,5.4,2.6c0.8,2.8-2.3,2.8-3.6,4.2c-0.1,0.1-0.1,0.2-0.2,0.3c5.7,0,12.5,0.5,17.2-0.2
		c4.7-0.7,10,1,13.9-3c0,0,0-0.1,0-0.1C194.7,228.7,196.1,226.9,196,224.9z"/>
	<path fill="#4859CD" d="M143.2,220.8c0,0,0.1-0.1,0.1-0.1c-0.1-1.5,1.4-2.4,1.8-3.7c-2.8-1.5-6-1.3-8.9-2c-1.4-0.3-2.7-0.6-2.8-2.2
		c-0.1-1.6,1-2.4,2.2-2.9c0.7-0.4,1.5-0.6,2.3-0.7c6.6,0,13.3-0.1,19.9,0.1c1.5,0.1,4,0.2,4.2,2.7s-1.9,2.7-3.7,3.1
		c-3.9,0.7-7.8,2.1-12,1.9c3,1.7,6.4,1,9.5,0.5c2.9-0.5,5.9-0.7,8.9-0.7c3.7,0.1,6-1.4,6.7-5.1c-0.9-3.1-2.1-5.9-6.1-5.8
		c0,0-0.1,0.1-0.1,0.1c-1.6,1.2-3.4,0.7-5.1,0.5c-10.8,0.1-21.6,0.2-32.4,0.1c-3.3-0.1-5.5,0.9-6.4,4.1c0.1,0.1,0.1,0.2,0.2,0.3
		c2.6,4.2,7.6,4,11.4,5.8c2.2,1.1,5.5,0.5,6.3,3.9H143.2z"/>
	<path fill="#090D43" d="M163.2,201c-7.4-1.9-14.8-0.5-22-1l-10.5,0c-1.6,0-3.1,0.3-3.4,2.2c-0.3,1.9,1.2,2.6,2.6,3.1
		c1.3,0.4,2.6,0.6,3.9,0.6h24.4c0,0,0.1-0.1,0.1-0.1C159.6,204.3,162.3,204.4,163.2,201z"/>
	<path fill="#2B39AE" d="M196,224.9c-1.9-7.2-7-11.9-12.7-15.8c0,0-0.1,0-0.1-0.1c-2.6,2.5-2,6-2.8,9.1c-0.4,1.5-0.3,3-2.3,3.1
		c0,0,0,0-0.1,0c-1.3,3-4,2.7-6.5,2.7h-7.1c0,0,0,0,0,0c-0.1,0.1-0.1,0.1-0.2,0.2v0.7v0.1H196z"/>
	<path fill="#596BD4" d="M171.5,223.9c2.6,0,5.2,0.3,6.5-2.7c0,0,0-0.1,0.1-0.1l-0.9-0.4c0,0,0,0,0,0c0,0.1,0.1,0.1,0.1,0.2h-34
		c0-0.1,0-0.1,0-0.2c0,0-0.1,0.1-0.1,0.1h-4h-0.1l-18.1,0.9c0.6,1,0.8,1.7,1,1.7l42.2,0.5h0.2h0H171.5z"/>
	<path fill="#2B3BB2" d="M164.7,216.9c-3,0-6,0.2-8.9,0.7c-3.1,0.5-6.5,1.2-9.5-0.5c-0.1,0-0.1,0-0.2,0h-0.9c0,0,0,0-0.1,0
		c-0.5,1.3-1.9,2.1-1.8,3.7c0,0.1,0,0.1,0,0.2h34c0-0.1-0.1-0.1-0.1-0.2c-2-3-2.4-6.8-5.8-9c0,0,0,0,0,0.1
		C170.7,215.5,168.4,217,164.7,216.9z"/>
	<path fill="#683B52" d="M195.2,381C195.2,381,195.2,381,195.2,381l1.9-6c0,0,0-0.1,0.1-0.1c-3.4-2.4-4.8-6.2-7.1-9.5
		c-2.3-3.3-0.2-4.3,1-5.9c5.7-7.3,7.6-16.6,12.9-24.1c1.1-1.6,2.1-3.3,3-5.1c0.6-1.1,1.8-2.8,0.3-3.5c-3.7-1.9-4.1-5.8-6.4-8.6
		c-2.3-3-5.9-4.6-9.6-4.3c-5.9,0.2-10.1-2.7-11.9-7.6c-2.2-0.5-3,0.8-3.2,2.7c0,0,0,0,0,0c1.6,5.1-4.1,1.5-4.7,4
		c-1.4,4.7,4.4,8.1,2.7,12.9c0,0.1,0,0.1,0,0.2c0,0,0,0,0,0c0,0,0.1,0.1,0.1,0.1l6.9,18.8c0,0.1,0,0.1,0,0.2c0.8,3.7,3,7,2.9,10.9
		c0,0,0,0.1-0.1,0.1c1.9,6,2.2,12.5,1,18.7h0c0,0,0,0.1,0,0.1c-0.6,5.3,4.6,5.5,7.2,8c0,0,0,0,0,0L195.2,381z"/>
	<path fill="#5C2E09" d="M233.7,373.4c-3,0.7-2.9,0.8-4.4,0.2s-6.9-1.4-7-5.3c-0.1-3.6,1.9-6.9,5.2-8.5c4.8-2.5,9.8-4.7,14.5-7.6
		c4.7-2.9,5.5-8.2,7-12.8s-1.9-4-4.2-4.2c-8.1-1-16.3-2.2-24.5-2.2l-8,16c0,0,0,0.1,0,0.1c2,1,1.6,2.2,0.6,4
		c-3.9,7-1.8,16.5,4.3,21.6c1.4,1.2,3,1.2,4.5,1.8c1.5,0.6,3.5,0.6,4.4,2.5c0,0,0.1,0,0.1,0c3.4,0.3,6.5-3.8,10.1-0.8h0l5.8-3.3
		C239.7,372.4,236.7,372.7,233.7,373.4z"/>
	<path fill="#7D4910" d="M251.9,329.6c-9.5-2.3-18.9-4.1-28.5-5.6c-2.2,2.6-1.8,6.1-3.1,9l0,0c8.2,0,16.4,1.2,24.5,2.2
		c2.3,0.2,5.7-0.4,4.2,4.2s-2.3,9.9-7,12.8c-4.7,2.9-9.7,5.1-14.5,7.6c-3.3,1.6-5.3,4.9-5.2,8.5c0.1,3.9,5.5,4.7,7,5.3
		s1.4,0.5,4.4-0.2s6-1,8.4,1.5c3.3-0.9,6.1-3,7.9-5.9c0-0.1,0-0.1,0.1-0.2c2.3-8,5.6-15.7,9.9-22.8c0-0.1,0-0.1,0.1-0.2
		c0.8-2.2,1.1-4.5,1-6.8c0-0.2,0.1-0.3,0.1-0.5C260.2,333.5,257.2,330.9,251.9,329.6z"/>
	<path fill="#86DDF3" d="M185,374.9c1.3-6.2,0.9-12.6-1-18.7c-1.5,2.4-0.5,5.1-0.7,7.7c-0.2,2.6-1,6.2-5.3,6.3c-1.4,0-2.8,1-4.1,1.6
		c-3.9,1.7-4.2,4.2-1.6,7.3c0,0-0.1,0-0.1,0c0,0,0,0,0,0l4.9,5.7c0.1,0,0.2,0.1,0.3,0.1h2.7c0,0,0,0,0,0c2.1-2,3.6-4.3,3.2-7.4
		c0-0.1,0-0.1,0-0.2C183.1,376.2,183.8,375.1,185,374.9C185,374.9,185,374.9,185,374.9L185,374.9z"/>
	<path fill="#5E4A49" d="M226.2,379C226.2,379,226.1,379,226.2,379c-0.1,0.1,0,0.1,0,0.2c-1.2,2.8-4,2-6.1,2.4
		c-8.3,1.4-16.7,3.1-24.9-0.4l0.1-0.2c0,0-0.1,0-0.1,0l-3,2l0,0c5,7.3,5.2,7.3,13.8,4.3c2.9-1,6.1-2.2,9.1-2.1
		c5.2,0.1,10-1.9,15.1-2.5c2.4-0.3,5.3-1.4,6.1-4.5l0,0C232.7,375.2,229.6,379.3,226.2,379z"/>
	<path fill="#156A9A" d="M172.2,379.1C172.2,379.1,172.2,379.1,172.2,379.1c-2.7-0.1-3.1-2.8-4.8-4.1l0-0.3
		c-0.1,0.1-0.1,0.1-0.2,0.2c-3.7-5.5-7.7-10.8-10.5-16.8c-0.9-1.9-1.9-3.9-3.7-4.6c-3.9-1.4-7-3.4-8-7.2c-2.5-0.2-2.4,2-3.7,2.5
		c0,0,0,0,0,0c0,0,0,0.1-0.1,0.1c-0.1,0-0.2,0.1-0.3,0.1c-1.2,0.2-2.6-1.7-3.7,0.1c-2.2,3.7-5.8,4-9.6,3.9c-1.4-0.2-2.9,0.4-3.8,1.5
		c2.4,4.2,7.4,5.2,10.1,9c-2.4,1-3.2,0.3-6.1-0.6c-2.7-0.8-4.6-0.2-5.4,2.6c0,0.2-0.1,0.3-0.1,0.5c0,0,0,0.1,0.1,0.1
		c1.5,2.9,2.7,5.6,2.9,8.9c0,0.1,0,0.1,0,0.2c1,3.7,1.9,7.4,2.9,11.1c1.1,3.8,3.2,7.6,8,8.5c4.7,0.9,2.9,3.7,3.1,6.1
		c0,0.1,0.1,0.1,0.1,0.2h0.9h0.1c1.6-2,2.7-4.5,3-7.1c0,0,0-0.1,0-0.1c0,0-0.1,0.1-0.1,0.1c-0.1-3-0.2-5.7-2.4-8.3
		c-2.2-2.6,0.2-7.6,4-8.5c3.8-0.9,10.2,0.8,15,2.3c1.4,0.4,1.3,2.2,1.1,3.5c0,0,0.1,0.1,0.1,0.1c0.4,1,1.2,1.8,2.2,2.1
		c0.1,0,0.1,0,0.2,0c1.5,0.4,1.9,0.8,4.9,1.3c3.1,0.5,6.4,1.7,9-1.5l-0.3-0.3L172.2,379.1z"/>
	<path fill="#1378B3" d="M136.2,394.9c-4.8-0.9-6.9-4.7-8-8.5c-1.1-3.7-2-7.4-2.9-11.1c0-0.1,0-0.2-0.1-0.3c-2.5,1-4.1,4.7-7.2,3.4
		c-5.9-2.8-11.7-2.6-17.8-1.2h0c0.2,2.8,3.4,1.7,4.4,3.8c-1.7,2.3-6.9,2.8-3.9,7.9s1.6,9.6-0.4,14.5c-2.8,6.8-0.3,11.3,6.8,13.7
		c0,0,0,0,0.1,0c1.8-0.1,3.6-0.3,5.4-0.6c10.5-1.8,18.6-7.8,26.5-14.4c0,0,0,0,0,0c0.1-0.3,0.2-0.6,0.2-0.9c0-0.1,0-0.1,0-0.2
		C139.1,398.6,140.9,395.8,136.2,394.9z"/>
	<path fill="#224A67" d="M159.9,379.6c-4.8-1.5-11.2-3.2-15-2.3c-3.8,0.9-6.2,5.9-4,8.5c2.2,2.6,2.3,5.3,2.4,8.3
		c0.1,0,0.1-0.1,0.1-0.1c2.1-1.4,1.8-3.6,1.8-5.7c0.2-5.2,2-7,7.3-7.3c3.1-0.2,6,0.2,8.5,2.1c0,0,0,0,0,0
		C161.2,381.8,161.3,380,159.9,379.6z"/>
	<path fill="#99E4F9" d="M92.5,312.4l-7.4,0.5l0,0h0L63.3,321l-0.1,0c-6.4,3.8-13.9,6-19.6,11.1c-0.1,0.1-0.2,0.2-0.3,0.2
		c0.3,2.8,2.4,3.1,4.4,2.7c4.6-0.9,9.1-1.5,13.5-3.1c4.4-1.6,8.1-2.8,11.4,1.8c0.8,1.1,2.5,1.6,3.8,2.2c6.6,3,13.7,2.4,20.6,1.8
		c3-0.3,7.3-0.2,8.9-3.4c3.2-6.6,8.4-10.9,14.4-14.5C112.3,312.5,102.6,311.6,92.5,312.4z"/>
	<path fill="#685379" d="M143.1,325.7L143.1,325.7c-0.1-7.3,4.1-12,9.2-16.3c0,0,0-0.1,0-0.1c-2.9-2.3-6.3-1.4-8.3,0.4
		s-4,1.3-4.9-0.7c-1.9-4.1-5.3-6.3-8.5-9.4c-3.2-3.1-6.6-2.5-8.6,0s-4.5,3.8-7.8,2.3c-0.1,0.1-0.2,0.2-0.3,0.3
		c-8.2,7.8-19,4.9-28.6,6.8l-0.2,3.9l0,0l7.4-0.5c10.1-0.8,19.8,0.1,27.8,7.4c1.6,1.2,3.8,2,4.7,3.5c3.9,6.8,9.2,6.5,15.3,3.7
		c0,0,0.1,0,0.1-0.1C141.1,325.9,142.1,326,143.1,325.7z"/>
	<path fill="#35A2CF" d="M145,346.3c1,3.8,4.1,5.8,8,7.2c1.8,0.7,2.8,2.7,3.7,4.6c2.8,6,6.8,11.3,10.5,16.8c0.1-0.1,0.1-0.1,0.2-0.2
		l-1.2-7.7c0,0,0,0,0,0c-5.8-5.6-7.6-13.2-11-20c-4.1-1-7.7-2.9-9.4-7c-1.7-4.1-3.2-3-5.5-1c0,0,0-0.1,0-0.1c0,0-0.1,0.1-0.1,0.1v2
		v0c1.4,2.5-1.3,5.5,0.9,7.9c0.1,0,0.1,0,0.2-0.1C142.6,348.3,142.5,346.1,145,346.3z"/>
	<path fill="#53BCE0" d="M145.8,340c1.7,4.1,5.3,6,9.4,7l-2.1-17c0,0,0-0.1,0-0.1c-3.4,4.2-5.1,4.1-8-0.3c-0.8-1.2-1.4-2.6-2-3.9
		c-1,0.3-2,0.2-2.7,1.2c0,0,0,0,0,0.1c2.4,1.4,2.3,3.3,1.1,5.4c-1.1,2-1.5,4.2-1.2,6.5c0,0,0,0.1,0,0.1
		C142.6,337,144.1,335.9,145.8,340z"/>
	<path fill="#A36519" d="M224.4,320.1C224.4,320.1,224.4,320.1,224.4,320.1l-1,3.9c0,0,0,0,0,0c9.6,1.5,19,3.3,28.5,5.6
		c5.3,1.3,8.3,3.9,9.3,8.9c0,0.2,0.1,0.3,0.1,0.5c3.9-7.1,4.8-15.2,6.8-22.9c0,0,0,0-0.1,0c-3.9,0.3-9.5-2.5-8.7,5.9
		c0,0,0,0.1,0,0.1c0,0-0.1,0-0.1-0.1c-3.4-2.7-5.9-6.5-9.6-5.7c-8.2,1.9-16.1-1.2-24.2-0.3c0,0,0,0,0,0
		C225,317.4,225.6,319,224.4,320.1z"/>
	<path fill="#8B6071" d="M225.8,302.9c-5.6-5.6-13.2-7.6-18.6-12.8c-0.1-0.1-0.1-0.2-0.2-0.4c-2.2-1.7-4.1-2.2-6.4,0.3
		c-2.4,2.6-5.8,3-8.2,1.6c-4.7-2.5-8.8-1.7-13.2-0.6c0,2.9-2.8,3.5-4.5,5.3c0.9,2.1,2.5,3.2,4.9,4.3c1-1.8,0.4-5,3.4-5.3
		c2.5-0.4,5,0.6,6.6,2.6c3.8,5.2,9.5,5.5,15.1,6l8.3,0.9c5.3,0.8,8.3,3.5,9.4,8.7c0.4,2.2,1.3,4.4,2,6.6c1.2-1.1,0.6-2.7,1-4.1
		c0,0,0,0,0,0c0.2-3.6-2.1-8.1,3.5-9.6c0,0,0,0,0,0c-2.8-1.7-1.1-4.9-2.4-7.1c-0.1-0.1-0.2-0.2-0.2-0.4L225.8,302.9z"/>
	<path fill="#522A36" d="M117,243.7c25.6,3.5,51.2,4.3,76.8,0.5C168.4,240.2,142.5,240.1,117,243.7z"/>
	<path fill="#7B4A5F" d="M179.4,306.3c1.8,4.9,6,7.8,11.9,7.6c3.7-0.3,7.3,1.3,9.6,4.3c2.3,2.8,2.7,6.7,6.4,8.6
		c1.5,0.7,0.3,2.4-0.3,3.5c-0.9,1.8-1.9,3.5-3,5.1c-5.3,7.5-7.2,16.8-12.9,24.1c-1.2,1.6-3.3,2.6-1,5.9c2.3,3.3,3.7,7.1,7.1,9.5
		c5.1-7.5,8.1-16.1,13.3-23.5l1.7-2.3c0,0,0.1,0,0.1,0c0,0,0-0.1,0-0.1l8-16l0,0c1.3-2.9,0.9-6.4,3.1-9c0,0,0,0,0,0l1-3.9
		c0,0,0,0,0,0c-0.7-2.2-1.6-4.4-2-6.6c-1.1-5.2-4.1-7.9-9.4-8.7l-8.3-0.9c-5.6-0.5-11.3-0.8-15.1-6c-1.6-2-4.1-3-6.6-2.6
		c-3,0.3-2.4,3.5-3.4,5.3c-2.4-1.1-4-2.2-4.9-4.3c1.7-1.8,4.5-2.4,4.5-5.3c-2.2,0.8-4.6,0.8-6.7-0.1c-5.4-1.9-10.9-0.3-16.4-0.7
		c-3-0.2-6-1-8.8-2.2c0,1.8-0.1,3.6,0,5.4c0.6,7.6,9.1,12.4,15.5,8.8c4.8-2.7,6.2,1.6,9,3.4c-1.7,2.4-4-0.8-5.5,1.8
		c2.7,3.6,6.3,2.7,9.9,1.6c0,0,0,0,0,0C176.4,307.1,177.2,305.8,179.4,306.3z"/>
	<path fill="#0578BF" d="M155.2,318.4c-0.7,4.2-1.4,7.7-2.1,11.5c0,0,0,0,0,0c0,0,0,0.1,0,0.1l2.1,17c3.4,6.8,5.2,14.4,11,20
		c4.8-7.5,10.8-14.2,14.9-22.1c0,0.1,0,0.2,0.1,0.3c0-0.1,0-0.1,0-0.2l-6.9-18.8c0,0-0.1-0.1-0.1-0.1c0,0-0.1-0.1-0.1-0.1
		c-1.3-1.1-1.4-2.8-2.1-4.1c-2.3-4.4-4.7-8.8-9.6-10.9c-0.1,0-0.1,0-0.2-0.1C158.1,311.7,155.9,314.3,155.2,318.4z"/>
	<path fill="#956275" d="M156.1,290.2c5.5,0.4,11-1.2,16.4,0.7c2.1,0.9,4.5,0.9,6.7,0.1c4.4-1.1,8.5-1.9,13.2,0.6
		c2.4,1.4,5.8,1,8.2-1.6c2.3-2.5,4.2-2,6.4-0.3c0.1,0.1,0.2,0.2,0.3,0.3c-1-5.1-5.2-4.7-8.3-3.8c-6,1.6-11.2,0.1-16.4-2.1
		c-1.7-0.8-3.4-1.6-5.3-1c-7,2.1-14.1-0.4-20.7-0.5c-6.6-0.1-10.5-3.6-12.5-9.6c0,0,0,0.1,0,0.1c0.2,2.2-0.5,5.1,0.7,6.2
		c2.8,2.7,2.3,5.6,2.4,8.7c0,0,0.1,0,0.1,0C150.1,289.2,153.1,290,156.1,290.2z"/>
	<path fill="#81DDF6" d="M143.1,325.7L143.1,325.7c0.6,1.3,1.2,2.7,2,3.9c2.9,4.4,4.6,4.5,8,0.3c0,0,0,0,0,0
		c0.7-3.8,1.4-7.3,2.1-11.5c0.7-4.1,2.9-6.7,7-7.5c0.1,0,0.1,0,0.2,0c-2.9-3.4-6.7-1.7-10-1.6c0,0-0.1,0.1-0.1,0.1
		C147.2,313.7,143,318.4,143.1,325.7z"/>
	<path fill="#A06D81" d="M131.8,276c-3.9-0.1-8.7,5.6-8.5,8c0.2,2.4-0.2,4.6,3.9,4.9s9.6-4.7,9.8-9.5
		C136.7,276.7,135.7,276.1,131.8,276z"/>
	<path fill="#7384E1" d="M146.1,217.1c0.1,0,0.1,0,0.2,0c4.2,0.2,8.1-1.2,12-1.9c1.8-0.4,3.9-0.6,3.7-3.1s-2.7-2.6-4.2-2.7
		c-6.6-0.2-13.3-0.1-19.9-0.1c-0.8,0.1-1.6,0.3-2.3,0.7c-1.2,0.5-2.3,1.3-2.2,2.9c0.1,1.6,1.4,1.9,2.8,2.2c3,0.7,6.1,0.5,8.9,2
		c0,0,0,0,0.1,0H146.1z"/>
	<path fill="#3B1B0F" d="M210.5,351.4c-5.3,7.4-8.3,16-13.3,23.5c0,0,0,0.1-0.1,0.1l-1.8,6l-0.1,0.2c8.2,3.5,16.6,1.8,24.9,0.4
		c2.1-0.4,4.9,0.4,6.1-2.4c0-0.1-0.1-0.1-0.1-0.2c-0.9-1.9-3-1.9-4.4-2.5c-1.5-0.6-3.1-0.6-4.5-1.8c-6.1-5.1-8.2-14.6-4.3-21.6
		c1-1.8,1.4-3-0.6-4c0,0-0.1,0-0.1,0L210.5,351.4z"/>
	<path fill="#5FD4F4" d="M166.2,367C166.2,367,166.2,367,166.2,367l1.2,7.7l0,0.3c1.7,1.3,2.1,4,4.8,4.1c0,0,0.1,0,0.1,0
		c-2.6-3.1-2.3-5.6,1.6-7.3c1.3-0.6,2.7-1.6,4.1-1.6c4.3-0.1,5.1-3.7,5.3-6.3c0.2-2.6-0.8-5.3,0.7-7.7c0,0,0-0.1,0.1-0.1
		c0.1-3.9-2.2-7.2-2.9-10.9c0-0.1,0-0.2-0.1-0.3C177,352.8,171,359.5,166.2,367z"/>
</g>
</svg>
