<?xml version="1.0" encoding="utf-8"?>
<!-- Generator: Adobe Illustrator 21.0.0, SVG Export Plug-In . SVG Version: 6.00 Build 0)  -->
<svg version="1.1" baseProfile="tiny"
	 id="svg160" inkscape:version="0.92.2 5c3e80d, 2017-08-06" sodipodi:docname="9 #8535.svg" xmlns:cc="http://creativecommons.org/ns#" xmlns:dc="http://purl.org/dc/elements/1.1/" xmlns:inkscape="http://www.inkscape.org/namespaces/inkscape" xmlns:rdf="http://www.w3.org/1999/02/22-rdf-syntax-ns#" xmlns:sodipodi="http://sodipodi.sourceforge.net/DTD/sodipodi-0.dtd" xmlns:svg="http://www.w3.org/2000/svg"
	 xmlns="http://www.w3.org/2000/svg" xmlns:xlink="http://www.w3.org/1999/xlink" x="0px" y="0px" viewBox="0 0 850 850"
	 xml:space="preserve">
<sodipodi:namedview  bordercolor="#666666" borderopacity="1" gridtolerance="10" guidetolerance="10" id="namedview162" inkscape:current-layer="svg160" inkscape:cx="594.18074" inkscape:cy="502.53441" inkscape:pageopacity="0" inkscape:pageshadow="2" inkscape:window-height="978" inkscape:window-maximized="1" inkscape:window-width="1920" inkscape:window-x="0" inkscape:window-y="1" inkscape:zoom="0.58897835" objecttolerance="10" pagecolor="#ffffff" showgrid="false">
	</sodipodi:namedview>
<g id="g158" transform="translate(0.000000,0.000000) scale(1.00000,1.00000)">
	<path id="path4" fill="none" d="M0,0l88.3,0.1l88.2,0.1l-10.8,2.4c-11.7,2.6-15,4-18.5,7.7c-3.7,3.9-3.9,11.4-0.6,20
		c0.4,1.2-1,2.3-5.8,4.5c-11.1,5-15.5,13-12.8,23.1c1.9,7.1,17.7,29.6,27.4,38.8l8.6,8.3h-13.1c-12.5,0-13.1,0.1-15.4,2.5
		c-1.4,1.3-2.5,2.9-2.5,3.4c0,5,7.4,13.3,18.2,20.1l7.9,5.2l-2.6,3.1c-15.7,19.4-20.2,30.2-21.2,51.3c-0.5,10.7-0.3,13,1.7,19.5
		c1.2,4,3.2,9.4,4.5,11.9c1.2,2.5,3,7,4,10c3.9,12.1,10,20,20.9,26.9c3.6,2.2,8,6.2,10.4,9.4c2.4,3,7.7,8.3,11.9,11.8
		s9.3,8.5,11.3,11.1c3.7,4.6,3.8,4.9,5,17.9c1.7,17.6,0.8,40.1-1.8,48.6c-2.1,6.7-1.4,10.1,2,8.8c2.9-1.1,9.7-19.5,12.6-34.2
		l1.7-8.6l4.5,5.9c2.4,3.2,6.9,8.5,9.8,11.8l5.5,5.9l-0.7,9.4c-0.4,5.2-1.4,12.4-2.1,16c-0.8,3.7-1.2,7-0.9,7.5
		c2.1,3.3,7-3,11.7-15.2c1.6-4.1,3.2-7.9,3.7-8.3c1.1-1.3,16.3,6.8,17.9,9.5c5.2,8.6,12.4,16.6,18.5,20.3c3.6,2.2,6.5,4.2,6.6,4.5
		c0,0.4-2.7,1.2-5.9,1.8c-17.8,3.7-37,19-46.5,37.1c-6.5,12.5-8.1,19.7-8,36.6c0,13.7,0.2,15.7,2.8,23c3,8.7,7,16.2,12.2,23.1
		l3.3,4.3l-3,5c-2.8,4.5-3,5.3-2,8.2c0.6,1.8,1,3.3,0.9,3.4c-0.2,0.1-3.7,0.8-7.8,1.5c-13.4,2.3-14.5,3.8-9.7,13
		c1.6,3.3,2.8,6.2,2.6,6.4s-3.5,1.9-7.4,3.8c-4.3,2.1-7.1,4.1-7.3,5.2c-0.3,1.2,1.4,3.7,4.6,7c2.7,2.8,7,8,9.5,11.6
		c8.3,11.9,12.1,14,25,14c9.6,0,12.8-1.6,15.4-7.8c1.1-2.6,1.8-3.2,3.1-2.7c3.9,1.6,10.8,1.7,14.6,0.1c2.1-0.9,5.5-1.6,7.5-1.6h3.6
		l2.8,9.1c1.5,5,2.6,9.3,2.4,9.5s-3.2,0.7-6.7,1.1c-4.8,0.5-7,1.2-9.2,3.2c-6.9,6.2-3.7,21.6,9.4,45.6c3.9,7.1,7.5,13.6,8,14.5
		c0.8,1.2-0.3,2.8-4.6,7.1c-6.1,6.1-6.8,8.6-4,14.1l1.6,3l-4.6,4.7c-5.3,5.4-5.8,8-2.6,16.3c2.7,7.3,2.6,8.8-1.9,17.1
		c-2.1,4-6.9,13-10.6,20.2c-3.7,7.1-10.7,19.7-15.5,28c-30.5,52.5-30.8,53.3-32.7,67.7l-0.6,4.8H116.4H0V425V0z"/>
	<path id="path6" fill="none" d="M529.3,0.1L850,0v425v425H696.6H543.2l1.5-3.1c2.3-4.5,0.7-8.7-4.5-12.2c-3.8-2.5-4.2-3.3-4.2-6.8
		c0-4,3.3-11.9,4.9-11.9c0.5,0,1.8,1.1,2.8,2.5s3.1,2.6,4.8,2.9c1.7,0.2,10.7,3.1,20.1,6.4c19.4,6.9,23.8,8.1,43.6,12.1
		c14.1,2.9,28.5,4.6,34.3,4.2c6.2-0.4,22.4-7.6,36-15.9c4.4-2.7,12.5-7.5,18-10.6c5.5-3.2,11.5-6.9,13.4-8.2s4.2-2.4,5.3-2.4
		c2.6,0,4.5-4.4,2.7-6.6c-0.7-0.9-6-4-11.8-6.9l-10.6-5.3l-4.8-9.8c-10.3-20.9-25.3-39.7-58.4-73.4c-9.4-9.6-17.6-18.8-18.2-20.3
		c-0.6-1.6-1.1-4.4-1.1-6.3c0-1.9-0.7-4.8-1.5-6.3c-2.2-4.4-10-6.9-16.1-5.2c-3.8,1.1-4,1-7.4-2.7c-14.3-15.9-20.3-23.3-22.6-27.9
		c-3.9-7.6-5.4-8.6-13.2-9.1c-6.6-0.4-6.8-0.5-11.3-5.6c-2.6-2.8-8.5-8.2-13.2-12l-8.6-6.9l-3.6-15.1c-2-8.3-3.8-16-4-17.2
		c-0.3-1.4,0.6-3,2.6-5c7.2-6.7,8.7-15.6,3.9-22.3l-3.1-4.2l3.1-4.2c4.1-5.6,3.8-7.8-1.5-13.4l-4.6-4.7l4.1-12.4
		c2.2-6.7,4.5-15.4,5.2-19.3c0.9-5.8,1.4-6.9,2.7-6.3c0.9,0.4,4.5,1.5,8,2.5s6.5,2,6.6,2.1c0.1,0.2,4.8,6.5,10.4,14
		c5.6,7.6,13.5,18.1,17.6,23.3l7.5,9.6l-1.6,3.7c-4.2,9.5-8.4,23.1-8.4,27.3c0,7,2.8,10.2,15.2,17.3l10.7,6.1l0.1,5.2
		c0,7,2.8,9.3,11,9.3h5.8l7.5,12.2c9.7,15.9,30.2,54.3,36.8,68.9c2.8,6.3,12,25.5,20.5,42.7c14.1,28.7,15.9,31.8,21.2,37.2
		c4.5,4.5,7.1,6.2,11.2,7.4c2.9,0.9,6.1,2.3,7.1,3.2c1.4,1.3,3.3,1.5,8.2,1.2c5.3-0.3,8.3-1.3,18.2-6.3c6.5-3.3,13.5-7.6,15.4-9.5
		c5.7-5.6,8.1-14.3,9.3-33.9c1-15.5,0.9-16.9-1.1-24c-1.1-4.2-2.7-10.6-3.6-14.4c-0.8-3.7-2.3-8.4-3.4-10.5c-1-2-3.1-7.7-4.6-12.6
		c-1.6-5-4.2-10.7-6-13c-1.7-2.3-4.8-7.3-6.8-11.2c-2.1-3.8-5.7-9.2-8.2-12c-2.4-2.8-5.1-6.9-6-9s-3.1-5-5-6.4
		c-3.2-2.3-14.6-14.9-31.9-35.4c-3.8-4.4-8.1-10.9-9.6-14.2c-1.8-3.9-4.1-7.2-6.4-8.9c-3.2-2.4-3.6-3.2-3.6-7.4c0-2.9-0.8-5.9-2.1-8
		c-2-3.3-2-4-1-14.6c2.3-23.5,0.8-48.7-3.2-54.9c-3.3-5-9.2-5.7-18.2-2.1c-1.3,0.5-0.8-0.5,1.7-3.1c6.6-6.9,8.1-14,5.7-25.6
		c-1.4-6.2-1.2-6.4,10.4-11.4c6.9-2.9,7.2-3.2,7.5-6.7c0.2-2-0.5-5.3-1.5-7.4c-2-4.3-18.5-21.9-21.4-22.8c-1-0.3-3.6,0.3-5.9,1.4
		c-4.1,2-4.2,2-7.3,0c-1.8-1-4-1.9-4.9-1.9c-1.4,0-1.8-0.9-1.8-4.4c0-7-3.1-9.9-13.6-12.6c-3.6-0.9-5.2-2.3-11.4-10
		c-12.3-15.5-22.9-25.8-37.9-37.1c-15.8-11.9-24.6-16.3-40.6-20.4c-17.6-4.5-35.2-4-48,1.5c-4.3,1.9-4.7,1.9-4,0.3
		c6.2-15.1,9-26.9,10.1-42.7l0.7-9.4l4.9,6c8.1,9.7,15.1,20,17.6,25.8c3.8,8.7,6.4,14,7.1,14c0.3,0,1.2-0.4,2-0.9
		c1.1-0.7,1.3-3.1,0.8-11.7c-0.6-12.6-3.7-24.3-9.7-37.2c-3.1-6.5-3.6-8.2-2.2-7.7c8.7,3.7,21.5,7.7,28.3,8.9
		c12.1,2.2,23.9,3.1,23.9,1.8c0-1.6-5.7-6-11.4-8.9c-6.2-3.1-21.5-13.7-29.6-20.4c-5.6-4.6-6-5.3-6-9.2c0-7-5.1-25.5-10.5-38.1
		c-0.9-2.1,9.5,4.8,23.8,15.6c6.8,5.2,15.7,14.6,15.7,16.7c0,1.4,4.1,5.1,5.5,5.1c3.4,0-0.1-13.5-6.2-24c-9.4-16.3-33-39.1-51-49.2
		c-3-1.7-5.2-3.2-4.9-3.5c0.7-0.8,36.8,6.7,44.3,9.2c14.8,5,27.8,12.4,42.6,24.2c10.5,8.5,14.7,11.3,16.9,11.3
		c1.5,0,2.8-0.4,2.8-0.9c0-0.6-2.4-3.6-5.3-6.8c-2.9-3.2-7.8-9-10.9-12.8c-14-17.4-32.5-32.6-55.1-45.4c-3.2-1.8-5.6-3.5-5.4-3.7
		c1.3-1.4,27.3,12,32.2,16.6c1.9,1.8,6.6,4,8.5,4c2.5,0-2.4-7.1-9-12.8c-18.6-16.3-46.7-31.5-69-37.3l-4.5-1.2l6.5-1.2
		c16.5-3.2,29-8.4,29-12.2c0-1.2-1.3-1.3-7.2-0.6c-4,0.4-15.4,0.7-25.3,0.6l-18-0.3l-3-3.7c-10.8-13.9-40.2-34.9-59.7-42.8
		C363.2,7,323.2,3.8,293.5,10.7c-10.4,2.4-14.4,2.1-44.5-3.6c-15.1-2.8-30.4-5.5-34-6C211.3,0.6,348.4,0.2,529.3,0.1z"/>
	<path id="path8" fill="#008000" d="M363.2,16.9c30.4,6.6,53.1,18.7,75.6,40.5c3.4,3.3,6.2,6.3,6.2,6.7c0,1.5-47.7-11.1-74-19.5
		c-39.8-12.8-79-26-79-26.6c0-0.4,4.8-1.5,10.8-2.3C318.3,13.4,350,14.1,363.2,16.9z"/>
	<path id="path10" fill="#008000" d="M277.5,19c0.6,0,5.5,1.8,11,4c12,4.7,89.6,30.1,110,35.9c21.6,6.2,49.6,12.3,59.5,12.8
		c8.2,0.5,9.7,0.8,7,1.4c-9.4,2-25.9,2-47.5-0.1c-41.6-4-52-4.9-64.4-5.6l-12.3-0.7l-10.9-10.2c-13.7-12.8-27.6-23.2-42.1-31.3
		C281.6,21.8,277,19,277.5,19z"/>
	<path id="path12" fill="#006400" d="M266.1,32.9c9.7,3.4,31.1,14.1,43.7,21.7c6.7,4.2,12.2,7.8,12.2,8.1c0,0.9-5.2-0.7-15.5-4.9
		c-5.5-2.2-13.6-5.1-17.9-6.4c-12.6-3.8-37.7-8.4-52.5-9.5c-13.9-1.1-36.5-0.9-37.7,0.4c-0.4,0.4,0.1,1.3,1.1,2.1
		c1.3,0.9,7.2,1.5,19.9,1.9c20.3,0.7,42.3,3.8,60.6,8.6c18.1,4.6,23.4,6.9,54,23.1c4.1,2.2,8.2,4,9.2,4s5.9,4,11,8.9l9.3,8.9
		l-4.5,0.6c-27.5,3.5-33,4.8-33,7.6c0,2.5,1.9,2.5,12.6,0.5c4.4-0.8,12.4-1.9,17.9-2.4l10-0.9l3,3.6c10.7,13,15.4,14,8,1.7
		c-2-3.2-3.4-5.9-3.3-6.1c0.8-0.7,23.3-3.6,30.8-4c20.1-0.9,62.5,4.8,83.7,11.2c29.9,9,44.4,16.7,58.2,30.8l6.4,6.5l-8.4-4.4
		c-4.7-2.4-12.6-5.8-17.6-7.4c-11.8-4-39.8-9.5-58.8-11.6c-8.2-0.9-17.8-2-21.1-2.5c-16.9-2.7-46.1-4-74.7-3.4
		c-54.2,1.2-90.9-2.2-117.3-10.7c-6.6-2.1-12.7-3.9-13.4-3.9c-2.7,0,4.2,5.8,9.8,8.3c7,3.1,32.3,8.3,47.5,9.8
		c6.2,0.6,37.3,1.4,69.2,1.9c51.5,0.7,59.5,1,71,2.8c20.1,3.3,33.9,8.8,50.8,20.5c14.3,9.9,33.3,28,38.1,36.5c0.5,0.8-3.6-1.9-9-5.9
		c-11.7-8.7-28.6-19.2-37.2-23.1c-8.9-4.1-33.1-12.2-43.7-14.6c-13.4-3.1-31-5.2-44.8-5.2c-7.1-0.1-14.7-0.7-18.2-1.5
		c-9.2-2.2-19.7-1.9-29.5,0.9c-12.6,3.6-14,3.8-32.5,2.7c-32.6-1.8-79.5-9.1-94.2-14.7c-5.4-2-8.9-1.6-8.5,0.9
		c0.3,1.6-0.8,1.3-6.5-1.9c-3.7-2.1-7.2-4.4-7.6-5.1c-0.5-0.7-3.4-2.6-6.6-4.2c-9.9-5.1-23.3-14.7-30.4-21.8
		c-6.6-6.7-19-23.3-22.7-30.4c-3.3-6.3-3-12.6,0.6-16.2c5.8-5.9,34.1-14.1,53.4-15.5C219.8,27,254,28.7,266.1,32.9z M181.4,47
		c-4.5,1-9.2,4.1-14.7,9.7c-6.8,7.1-8.4,14.1-4.8,21.8c3.1,6.6,4.6,8.2,6.5,6.6c1.4-1.2,1.4-1.7-0.4-5.1c-2-3.9-2.5-7-2.2-12.3
		c0.4-5.5,14.2-16.6,20.9-16.7c1.2,0,3.4-0.5,5-1.1c2.2-0.8,2.5-1.2,1.3-1.8C190.5,46.7,184.7,46.2,181.4,47z M183.8,79.4
		c-10.3,2.8-12,6.5-7.4,16.1c2.7,5.7,5.4,8.4,14.5,14.5c4.5,3.1,6.8,4.1,7.8,3.4c2.6-1.6,1.8-2.8-4.9-7.4
		c-9.1-6.1-11.5-8.6-13.4-13.6c-1.3-3.3-1.4-4.7-0.5-5.8c1.4-1.7,10.7-3.6,17.5-3.6c14.8,0,81.9,13.6,98.7,20
		c6.7,2.5,8.9,2.6,8.9,0.2c0-1.5-2.1-2.6-9.2-5C274.4,91,248.3,85.1,220.3,81C197.8,77.8,191,77.5,183.8,79.4z"/>
	<path id="path14" fill="#008000" d="M347.6,72.4c1,0.3,10.7,1.2,21.4,2c26.9,2.1,75.9,7.3,90.2,9.6c6.5,1.1,15.1,2.9,19.1,4.1
		c7.5,2.2,26,9.9,25.3,10.6c-0.2,0.2-4.3-0.8-9.2-2.2c-14.9-4.3-25.8-5.6-48.2-5.6c-20.9,0-31.5,1-54.2,5.1
		c-5.8,1.1-13.2,2.2-16.5,2.5l-6,0.7l-8.5-9.8c-4.7-5.4-10-11.6-11.9-13.7C346.5,72.7,346.1,71.9,347.6,72.4z"/>
	<path id="path16" fill="#008000" d="M187.3,117.4c4.2,1.9,7.7,4,7.7,4.5c0,2.1,36.3,22,54,29.7c4.7,2,17.7,6.7,29,10.5
		s19.9,6.9,19.1,6.9c-3.9,0-66.6-13.8-80.1-17.7c-23.5-6.8-26.2-7.8-44.5-16.8c-15.7-7.8-31.2-17.9-32.2-21.2
		c-0.3-0.7,0.9-1.3,2.9-1.6C156.9,110,176.8,112.6,187.3,117.4z"/>
	<path id="path18" fill="#008000" d="M245.8,135.5c15.2,2.9,50.7,7.5,62.7,8.1l12.1,0.7l-6.1,6.1c-3.4,3.4-7.5,7.9-9.1,10l-3,3.9
		l-23.5-7.8c-12.9-4.3-29-10.4-35.9-13.7c-11.6-5.5-12.4-6-10.6-7.4C234.9,133.6,235.9,133.6,245.8,135.5z"/>
	<path id="path20" fill="#008000" d="M387.7,141.1c11.8-0.1,11.7-0.2,14.9,10.3l1.8,5.8l-3.4,2.9c-1.9,1.6-4.8,3.9-6.5,5.1l-3,2.1
		l3.3-3.5c2.9-3.1,3.1-3.6,1.7-4.8c-1.2-1-2.1-0.8-5.1,1.6c-8.6,6.8-10.3,7.2-5.3,1.1c2.9-3.5,3.1-5.7,0.7-5.7
		c-0.6,0-2.7,1.5-4.8,3.4l-3.8,3.4l-5.3-1.4c-2.9-0.8-7-1.4-9-1.4c-5.4,0-15.8,3.6-20.4,7c-7.3,5.4-7.6,5.5-17,3.5
		c-4.7-1-8.5-2.2-8.5-2.7c0-2.1,12.8-14.2,19.9-18.8c8.1-5.3,8.7-5.4,28.6-6.9C372.6,141.6,382.1,141.2,387.7,141.1z"/>
	<path id="path22" fill="#008000" d="M410.3,142.4c2.6,0.3,6.7,0.9,9.1,1.2c5.3,0.7,5.3,0.7,6.7,16.6c1,12.3,0.1,25.7-3.2,45.7
		c-1.6,9.4-5.9,26-7.3,27.8c0,0.1-0.1-11.2-0.1-25c0-21.8-0.3-26.8-2.2-37.2c-2.1-11-5.1-23.1-6.9-27.9
		C405.7,141.9,406.1,141.8,410.3,142.4z"/>
	<path id="path24" fill="#008000" d="M432.1,146.5c4.5,1.4,15.4,5.8,21.4,8.7c7.9,3.8,9.5,5.8,9.5,12.1v5.1l-2.5-3.4
		c-5.7-7.7-17-12.2-24.5-9.6l-3.9,1.3l-0.6-4.6c-0.4-2.5-0.9-5.9-1.2-7.4C429.8,146,430,145.9,432.1,146.5z"/>
	<path id="path26" fill="#008000" d="M185.8,159.1c-1.9,9.2-2.2,13.2-2,35.4c0.2,34.2,2.2,56.9,6.7,73.5c0.8,3,1.3,5.5,1.1,5.7
		c-0.1,0.2-3-2.5-6.3-5.9c-6.7-7-9.2-12.6-12.3-26.8c-4.4-20-5.6-51.2-2.6-64.4c1.9-8.1,8.1-21.8,12-26.4
		C187.7,144,188.5,146,185.8,159.1z"/>
	<path id="path28" fill="#006400" d="M195,150.5c1,0.3,3.6,1.1,6,1.8l4.3,1.2l-0.2,9c-0.1,4.9-0.5,9.3-0.7,9.7
		c-0.7,1.1,1.4,52.4,2.6,64.9c3,29.7,10.6,57.1,22,79.9c6.2,12.5,9.7,17.6,16.5,24.9c2.7,3,4.1,4.9,3,4.3
		c-6.5-3.5-23.5-24.8-29.6-37.4c-11.2-22.7-16.6-36.8-21.3-56c-4.6-18.9-6.3-29.1-8.1-49c-1.5-17.6-1.1-25.3,2.1-44
		C193.1,151.5,193.6,150.1,195,150.5z"/>
	<path id="path30" fill="#F4A460" d="M211.6,156c0.2,0,6.4,1.6,13.6,3.5c7.3,1.9,25.7,5.9,40.8,9c15.1,3,28.3,5.8,29.3,6.1
		c0.9,0.3,1.7,1.5,1.7,2.8c0,5.1,4.4,6,10.2,2c3.6-2.5,4-2.6,13.8-1.9l10,0.7l-2,2.8c-3.4,4.8-5,9.6-4.3,13.1l0.6,3.2l1.9-2.4
		c1.6-2.1,1.6-1.8-0.3,2.8c-2.2,5.4-2,10.8,0.4,10.1c0.7-0.3,2.6-2.5,4.2-4.9c1.7-2.5,4.5-6.5,6.4-8.8l3.5-4.4l1.2,6.2
		c0.7,3.4,2,7.5,2.8,9.2c1.4,2.9,1.4,3-2.7,7l-4.2,4l5-2.7l5-2.7l4,2.5c9.3,6,19.4,6.4,24.8,0.9c3.1-3.1,3.2-3.3,3.2-12.4
		c0-10.4-1.8-15.2-8.2-21.8l-3.5-3.7l4.1-0.7c4.4-0.7,10.7,0,13.1,1.5c1.1,0.7,1.6,3.8,2,12.7c0.3,6.5,0.2,12-0.3,12.1
		c-0.4,0.2-2.6,3.3-4.8,6.8c-5.1,8-8.5,10.1-19.6,12c-12.1,2-12.2,2.1-11.5,4.6c0.5,2,1,2,8.6,1.5c11.1-0.8,17.5-2.9,21.8-7.2
		c3.5-3.5,3.5-3.5,7.1-2l3.7,1.5v-2.9c0-1.8-0.7-3.4-1.7-4c-1.5-0.8-1.1-1,2-1.1c2,0,3.7-0.5,3.7-1c0-1.5-3.8-5-5.5-5
		c-2,0-1.9-2,0.1-3.4c1.6-1.2,3.3-7.3,3.4-12.2c0-2.6,0.6-3.3,4.5-5.2c4.5-2.2,4.9-3,4.5-8.2c-0.3-3.9-0.8-4.1-5.1-2
		c-2.1,1.1-3.9,1.8-3.9,1.5c0-0.9,9.3-11.5,10.1-11.5c1.2,0,4,18.3,5,32.6c1.6,23.6-1.8,52.1-7.7,65.6c-1.8,4-1.4,6.8,1,6.8
		c1.5,0,10.1-16,16.2-29.9c3-7,3.2-7.2,3.8-4.4c1.4,6.1-4.2,23.6-12.1,38.3c-7.7,14.3-16.2,25.7-27.3,36.9
		c-13.2,13.2-20.1,17.5-27.3,17.3c-8.7-0.2-43.6-7.8-58.8-12.7c-26.7-8.7-33.1-13.7-42.7-33.3c-6.2-12.8-10.4-18-20.3-25.3
		c-3.8-2.9-6.9-5.5-6.9-6c0-0.4,1.5-1.1,3.4-1.4c2.9-0.6,4.2-0.1,9.6,3.9c3.5,2.6,6.8,4.5,7.4,4.3c2.4-0.8,1.4-3.6-3.5-10
		c-4.3-5.6-5-7.1-4.4-9.5c0.6-2.8,6.9-11.2,8.3-11.2c0.4,0,0.5,2.4,0.4,5.4c-0.5,7.4,2,15.3,6.3,20.3c4.1,4.8,11,7.9,15.2,6.8
		c2.3-0.5,2.6-0.4,1.5,0.7c-0.8,0.8-3.7,1.3-7.5,1.3c-7.3,0-10.7,1.4-8.3,3.4c1.1,0.9,1.3,1.9,0.5,3.7c-1.3,3.6-1.3,3.6,2.5,2
		c3.4-1.4,3.5-1.4,4.4,1.2l0.8,2.6l2.4-3.2c1.4-1.8,4.3-4.1,6.5-5.1c5.9-2.6,10.5-6.9,10.5-9.7c0-1.3-0.6-2.4-1.2-2.4
		c-0.9,0-1.3-2-1.3-6.8c-0.1-5.2-0.7-8-2.8-12.6c-1.9-4.1-2.4-6.3-1.7-7c2-2,0.9-4.7-3.2-8.7c-5.5-5.2-8.8-6.9-15.1-7.9
		c-10.4-1.6-23.1,2.4-27.4,8.6c-1,1.5-2.9,3.7-4.1,5c-1.7,1.6-2.2,2.9-1.7,4.4c0.6,2,0.6,2-2.8,0.4c-2-0.9-4.2-1.4-5.1-1.1
		c-1.5,0.6-1.5,0.9,0,3.2c0.9,1.4,2.7,2.8,3.9,3.1c1.3,0.3,3.1,1.4,4.1,2.5c1.7,1.8,1.6,1.9-2.2,1.8c-2.1,0-5.5-0.5-7.4-1.2
		c-3-1-3.6-1.8-4.2-5.2c-1.7-9.9,5.7-22.7,16.1-28c7.6-3.8,14.8-4.8,23.9-3.4c12.6,1.9,16.6-0.5,10.5-6.4c-3.6-3.4-8.3-5.3-16.6-6.7
		c-9.7-1.7-16.3,0.4-23.1,7.4c-2.8,2.9-6.4,7.6-8.1,10.4c-1.6,2.8-3.3,5.2-3.7,5.2c-1,0-1-41.3-0.2-48.8
		C211,158.4,211.4,156,211.6,156z M288.6,258.6c0.5,3.9,0.3,5.8-1,7.5c-2.5,3.7-2,5.7,2.2,7.8c6.1,3.1,10.6,3.6,14.1,1.5l3.1-1.9
		l-6.1-3.1l-6.2-3.1l-0.1-6.2c-0.1-5-0.5-6.6-2-7.7C288.8,250.7,287.8,251.9,288.6,258.6z M336.9,264.4
		c-5.3,3.6-22.3,12.2-29.9,15.1c-3.7,1.4-7.5,3.4-8.5,4.5c-1.6,1.8-1.5,1.9,2.2,2.6c2.4,0.4,7.9,3.6,15.5,9.1
		c19.5,13.9,28.7,16.9,34.5,11c2.4-2.4,2.8-3.6,3.1-10.1c0.5-8.5-2.2-20.9-6.4-29.4C344.4,261.2,342.5,260.6,336.9,264.4z"/>
	<path id="path32" fill="#F08080" d="M341.5,269.5c2.3,0.4,5.8,12,6.3,20.6c0.5,10.2-0.5,12.9-4.9,12.9c-4.1,0-8.5-2-17.3-7.9
		c-6.4-4.4-7.6-5.6-8.2-8.7c-0.4-2-0.2-4,0.3-4.5c0.6-0.6,5.9-3.6,11.9-6.8C335.6,271.9,341,269.3,341.5,269.5z"/>
	<path id="path34" fill="#DEB887" d="M455.6,173c2,3,2.8,5.7,3.2,11c0.5,7.9-0.6,13.3-4.9,22.9l-3.1,6.9l-6.6-0.6
		c-3.7-0.2-7.9-1.1-9.4-1.8c-1.5-0.8-3.6-1.4-4.6-1.4c-1.9,0-1.9-0.3-0.6-6.8c0.8-3.7,1.6-12.3,1.9-19.2c0.8-15.6,0.9-16.4,3.7-17.8
		C441.7,163.1,451.2,166.3,455.6,173z"/>
	<path id="path36" fill="#008000" d="M471.8,167.9c4.6,2.4,16.7,15.1,21.7,22.6c5.1,7.6,10.4,19.5,8.7,19.5
		c-1.3,0-17.6-17.1-24.1-25.3c-5.8-7.2-8.1-11.7-8.1-16C470,167.3,470.4,167.1,471.8,167.9z"/>
	<path id="path38" fill="#2F4F4F" d="M338.8,179c1.2,0,0.9,0.7-1.3,2.7c-1.7,1.6-4,4.1-5.3,5.8c-2,2.5-2.1,2.6-1.1,0.5
		c0.6-1.4,2.2-4,3.6-5.8C336,180.5,337.9,179,338.8,179z"/>
	<path id="path40" fill="#006400" d="M469.9,185.1c13,16.9,38.7,40.6,56.9,52.7c2.9,1.9,5.1,3.7,4.9,3.9c-0.6,0.6-17.2-4.5-23.1-7.1
		c-10.4-4.6-25.8-15.7-41.6-30c-3.9-3.5-4-3.8-3.1-7.4c0.6-2,1.2-5.9,1.5-8.5c0.3-2.7,0.9-5.3,1.2-5.9
		C467,182.2,468.4,183.2,469.9,185.1z"/>
	<path id="path42" fill="#008000" d="M462.1,207.3c0.6,0.9,6.3,6.2,12.9,11.7c13.9,11.7,17.4,15.8,22.8,26.5
		c4.5,9.1,10.5,25.5,9.3,25.5c-0.4,0-1.2-1-1.8-2.3c-3.8-8.1-34-41.2-43.3-47.2c-3.3-2.1-6-4.3-6-4.7c0-0.5,1.2-3.2,2.6-6
		C460.7,206.6,461.4,205.9,462.1,207.3z"/>
	<path id="path44" fill="#FF4500" d="M434.3,219c2.9,3.3,4.2,3.7,5.1,1.5c0.7-1.8,4.7-2,6.4-0.3c2.5,2.5,1.2,5.8-4.8,12l-5.9,6.2
		l-2.2-2c-2.7-2.3-6.9-11.1-6.9-14.2c0-1.3,0.5-3.2,1-4.3C428.5,215.1,431.5,215.6,434.3,219z"/>
	<path id="path46" fill="#2F4F4F" d="M242.9,217c0.8,0-8.5,7.9-9.3,8c-1.4,0,2.6-4.1,5.9-6.1C241.2,217.8,242.7,217,242.9,217z"/>
	<path id="path48" fill="#006400" d="M453.8,223c1.9,0,11.2,7.3,16.2,12.8l6,6.5v10.1c0,9.9-1.8,25.6-2.9,25.6
		c-0.3,0-1.4-4.1-2.4-9.2c-2.1-10.9-9.3-28.5-14.7-36.1c-2.7-3.8-3.7-6-3.3-7.5C453,224,453.5,223,453.8,223z"/>
	<path id="path50" fill="#006400" d="M430.9,243c0.9,0.5,2.3,1.1,3.2,1.3c1.6,0.5,7,13.4,6.8,16.5c0,1-0.5,0.6-1.1-1.1
		c-0.6-1.6-1.7-2.7-2.9-2.7c-2.4,0-2.4-0.6,0.5,12.1c3.4,15.2,4,21.7,2.6,31.4c-1.1,8.1-1.3,8.5-3.7,8.5s-2.5-0.2-1.8-3.7
		c1-5.5,0.7-24.3-0.5-29.9c-0.6-2.7-2-7.7-3.1-11.2c-1.6-4.9-2.5-6.2-4.1-6.2c-1.5,0-1.8-0.5-1.4-1.7c0.4-0.9,1.4-4.4,2.2-7.9
		C429,243.1,429.5,242.3,430.9,243z"/>
	<path id="path52" fill="#006400" d="M424.1,261c0.9,0,3.8,10.1,5,18c1.1,7.4,0.8,25.8-0.6,29.2c-0.6,1.6-4.5,2.6-4.5,1.2
		c0-0.3-1.1-5.3-2.4-11.2c-1.3-5.9-2.7-13.8-3.1-17.5c-0.7-6.2-0.5-7.4,2.1-13.2C422.2,263.9,423.8,261,424.1,261z"/>
	<path id="path54" fill="#008000" d="M238,266.6c0.9,1.1,2.7,6.6,4,12.4c3,13.6,4.6,18.3,10.9,31c4,8.2,4.6,9.8,2.5,7.5
		c-4.9-5.7-14.3-20.5-16.3-26c-2.7-7.2-4.4-17.9-3.5-22.8C236.2,264.9,236.3,264.8,238,266.6z"/>
	<path id="path56" fill="#F4A460" d="M412.7,283.7c0.1,0.4,1.3,6.2,2.7,12.8s3.6,15.5,4.9,19.7l2.5,7.6l-9.2,9
		c-9.2,9.1-18.1,15.4-29.3,21.1l-6.2,3.1l-0.6-3.8c-0.3-2-1.7-8.4-3.2-14.1l-2.6-10.4l2.9-2.1c9.2-6.5,25.7-24.8,33.8-37.4
		C410.6,285.7,412.6,283.2,412.7,283.7z"/>
	<path id="path58" fill="#008000" d="M269.2,309c3.1,2,7.1,4.3,8.8,5c3,1.2,3.2,1.6,2.6,4.9c-0.4,2-0.9,8.1-1.3,13.5
		c-0.5,8.8-0.8,9.7-2,8c-3.9-5.3-21.3-35.4-21.3-37C256,302.1,263.2,305.1,269.2,309z"/>
	<path id="path60" fill="#9932CC" d="M542.5,315c16.9,8.1,37.1,25.2,52.1,44c7.9,9.8,16.5,24.2,15.3,25.4c-0.9,0.9-30,6.5-39.4,7.6
		c-17.7,2-44.4,0.7-56.4-2.6c-2.1-0.6-2.2-0.5-1.2,1.4c1.6,3.1,3.8,4,13.6,5.7c20.6,3.6,52.8,1.2,78.3-5.7
		c12.4-3.4,12.5-3.4,9.2-10.6c-2.1-4.6-2.1-4.6,3.2-3.2c4.1,1.2,4.8,2.9,4.7,11.7c-0.1,6.7,0.5,8.4,5.7,16c4.8,7,5.7,11.8,2.7,14.5
		c-8.7,7.6-32.9,12.8-60,12.8c-40.8,0-90.7-15.2-110.4-33.6c-3.7-3.4-8.5-7.2-10.7-8.3c-2.9-1.5-4.4-3-4.8-4.9
		c-0.4-1.5-1.6-3.7-2.6-4.9c-1.4-1.5-2.2-4.1-2.5-8.5c-1.9-24.2,17.6-54,40.8-62.4c2.4-0.9,7.1-2.2,10.4-3
		C503.8,303.3,525.5,306.9,542.5,315z M619,405.9c-3.3,1.9-20.1,6.1-30.5,7.6c-19.3,3-56.1,1.6-70.2-2.6c-6.2-1.9-7.6-2-8.3-0.9
		c-1.4,2.2,0.7,3.8,7.6,6c13.8,4.2,53.5,5.7,72.6,2.6c9.9-1.5,32.3-7.8,34.1-9.5c0.4-0.4,0.5-1.5,0.1-2.4
		C623.7,404.9,621.4,404.5,619,405.9z"/>
	<path id="path62" fill="#B22222" d="M464.8,307c0.3,0.8-14.5,16-15.5,16c-0.1,0,1.9-3.1,4.5-7c3.4-5.1,5.2-6.9,6.5-6.6
		c1,0.3,2.3-0.4,3-1.5S464.6,306.4,464.8,307z"/>
	<path id="path64" fill="#B22222" d="M436.6,315c0.6,0,1.4,2,1.6,4.4c0.6,5.4,4.6,12.5,5.9,10.4c2-3.1,0.6,0.7-2.5,6.9
		c-1.8,3.8-4.3,9.8-5.5,13.5c-2,5.9-3.1,7.5-10.9,15c-8.8,8.4-23.9,19.6-32.2,23.8c-8.5,4.3-18.1,7-24.9,7c-6.6,0-16.6-2.1-18.3-3.8
		c-0.9-0.9,1.8-9.2,3.1-9.2c0.4,0,1.6,0.7,2.8,1.5c1.7,1.2,2.3,1.2,3.2,0.1c1.9-2.2,0.4-4.1-7.9-10.1c-7-4.9-7.8-5.9-7-7.6
		c1-1.8,1.2-1.8,3.6-0.3c4.1,2.7,19,1.4,29-2.6c10-3.9,21.9-10.7,31.2-17.7c8.9-6.8,22.1-20.7,25.3-26.8
		C434.4,317,436,315,436.6,315z M438.2,330c-0.4,0-6.8,6.1-14.2,13.6c-7.4,7.4-18.7,17.8-25,22.9s-13.1,10.9-15,12.9l-3.5,3.7
		l4.4-1.6c6.1-2.1,10.2-4.8,20.6-13.5c19.6-16.2,33.5-31.1,33.5-35.6C439,331.1,438.7,330,438.2,330z"/>
	<path id="path66" fill="#008000" d="M288.3,318c0.1,0,4.5,1.3,9.7,2.8c8.1,2.4,9.4,3.1,9.1,4.8c-1.5,8,1.6,24.7,6.3,34.6
		c1.4,2.9,2.4,5.3,2.2,5.5c-0.1,0.1-3.4-3-7.4-6.9c-4.4-4.4-8.4-9.6-10.6-13.7c-3.6-7-7.9-18.4-8.9-23.9
		C288.3,319.5,288.2,318,288.3,318z"/>
	<path id="path68" fill="#008000" d="M310.2,324.3l7.6,1.8c4.2,1.1,8.8,2.1,10.2,2.4c1.7,0.3,3.8,2.5,6.5,6.8
		c2.5,3.8,6.4,8,10.3,10.9l6.2,4.7l-3.6,2.9c-3.9,3.2-5.4,3.2-12.7-0.3c-5.6-2.6-15-11.8-17.6-17.1c-1.4-2.7-3.5-6.5-4.7-8.5
		L310.2,324.3z"/>
	<path id="path70" fill="#006400" d="M269.3,339.6c2.3,2.2,5.4,4.9,6.9,6c2.3,1.8,2.9,3.4,4.2,11.5c0.9,5.2,2.2,11.5,3,14.1
		c0.8,2.7,1.1,4.8,0.8,4.8c-1.4-0.1-10.2-12.8-12.5-18.1c-2.8-6.2-6.7-18.3-6.7-20.6C265,336.3,266.5,337.1,269.3,339.6z"/>
	<path id="path72" fill="#006400" d="M285.4,336c0.3,0,1.9,2.8,3.6,6.2c9.4,18.8,24.1,33.1,39.5,38.3c1.7,0.5,1.8,0.8,0.4,1.5
		c-4.8,2.7-24.8,9-27.8,8.8c-3.3-0.3-3.5-0.5-7.8-11.2c-4.4-11.2-6.6-20.7-7.8-35.4C285.1,339.7,285,336,285.4,336z"/>
	<path id="path74" fill="#800000" d="M370.1,347.4c0.4,0.6,0.9,3.5,1.2,6.4c0.6,5,0.5,5.3-1.9,6.2c-1.4,0.6-5.8,1.5-9.7,2
		c-4,0.6-8.7,1.3-10.6,1.6c-3.2,0.5-3.2,0.5-1.8-1.5c2-2.9,9.1-8.3,16.2-12.4C367.3,347.6,369.7,346.7,370.1,347.4z"/>
	<path id="path76" fill="#006400" d="M315.7,346.5l3.9,3.9c4.9,4.8,11.5,9.4,15.5,10.8c2.3,0.8,2.9,1.5,2.5,2.9
		c-0.3,1.1-0.9,2.8-1.2,3.9c-0.5,1.6,0.4,3.2,4,6.6l4.8,4.5l-5.1-0.4c-4.6-0.4-5.5-0.9-10.9-6.3c-6-6.1-11.6-15.9-12.8-22.4
		L315.7,346.5z"/>
	<path id="path78" fill="#20B2AA" d="M418.8,379.5c1,0.9-7.4,10.3-11.6,12.9c-18.5,11.7-25.7,17-32.9,23.8
		c-7.7,7.4-8.4,7.8-12.7,7.8c-2.5,0-4.8,0.4-5.1,1c-0.3,0.5-1.5,1-2.6,1c-1.7,0-1.9-0.7-1.9-5.9c0-3.3-0.4-6.2-0.9-6.6
		c-1.1-0.6-5.5-14.4-4.9-15.1c0.3-0.2,2.2,0.3,4.4,1.2c2.2,1,7.9,1.9,13,2.2c7.6,0.4,10.5,0.1,16.5-1.8c9-2.7,20.1-8.3,30.5-15.5
		C414.9,381.5,418.6,379.3,418.8,379.5z"/>
	<path id="path80" fill="#1E90FF" d="M438.4,385.8c1.4,0.8-0.2,20.6-2.9,35.9l-2.5,14l7.4,15.4c8.4,17.3,10.3,24.4,11.3,42l0.6,10.9
		l-9.4-4.4c-12.5-5.9-36.7-14-50.4-16.7c-6-1.3-11.3-2.7-11.7-3.2c-0.6-1-10.3,1.7-12.4,3.4c-1.7,1.4-12.1,4-17.9,4.5
		c-18.3,1.7-20.5,1.7-20.5-0.3c0-1.6-0.8-2-4.1-2.1c-2.2-0.1-4.9-0.7-6-1.2c-1.1-0.6-2.3-0.8-2.8-0.5s-3.5-0.2-6.7-1
		s-8.6-1.5-12-1.5c-3.5,0-7.4-0.6-9-1.5c-1.9-1-5.8-1.5-11.1-1.5c-4.6,0-8.3-0.4-8.3-0.9s1.1-1.8,2.4-2.8c2.6-2.1,7.9-12.9,7.3-14.7
		c-0.5-1.3,4.8-12,7.9-15.8c1.2-1.5,2.5-4.3,2.8-6.3c0.7-3.5,3-8.4,7.4-15.5c1.2-1.9,2.2-4.5,2.2-5.8c0-1.2,0.1-2.2,0.3-2.2
		c0.1,0,2.9,1.4,6.1,3c3.2,1.7,6.4,3,7.1,3s2.6,0.7,4.3,1.5c1.7,0.9,5.6,2,8.6,2.5s6.5,1.5,7.8,2.3c3.8,2.4,15.8,4,26,3.5l9.4-0.5
		l7.9-8c12.5-12.4,31-24.2,51-32.3C433.5,386.9,437.9,385.5,438.4,385.8z"/>
	<path id="path82" fill="#9932CC" d="M315.5,395.1c1.1,0.4,4.8,1.3,8.2,2c3.5,0.6,6.8,1.8,7.4,2.5c0.6,0.8,2,1.4,3,1.4
		c1.1,0,2.9,1,4.1,2.2c1.3,1.3,2.9,2.2,3.5,2c1.8-0.4,5.8,9.2,6.7,15.6c0.6,4.9,0.5,5.3-1.1,4.8c-1-0.3-3.6-0.8-5.8-1.2
		c-2.2-0.4-5-1.3-6.1-2.1c-1.2-0.7-4.7-1.8-7.8-2.3c-3.2-0.5-8.5-2-11.9-3.3s-7-2.7-7.9-3c-1-0.4-1.8-1.2-1.8-2
		c0-1.6-5.1-6.7-6.7-6.7c-1.4,0-3.3,5.4-3.3,9.5c0,1.8-1.1,4.9-2.5,6.9s-2.5,4.2-2.5,4.7c0,0.6-0.9,2.2-1.9,3.5
		c-1.1,1.4-2.2,4.4-2.6,6.7s-1.5,5.1-2.6,6.2c-2.9,3.2-13.7,25.4-12.5,25.8c1.4,0.5-5.1,7.4-8.6,9.3c-1.6,0.8-2.8,2.1-2.8,2.9
		c0,1.2,2.2,1.5,13,1.5c9.2,0,13.9,0.4,15.8,1.4c1.5,0.7,6.5,1.6,11.2,1.9c4.7,0.2,10.8,1,13.7,1.7c5.1,1.1,5.2,1.2,4.7,4.3
		c-0.3,1.8-1.3,5.2-2.1,7.6c-1.1,3.1-1.3,4.6-0.5,4.9c1.3,0.4-0.4,6-2.5,8c-0.7,0.7-1.3,1.8-1.3,2.3s-0.9,2.8-1.9,5.2
		c-1.6,3.5-3.2,9.9-3.6,14.2c-0.1,2-14,0.7-22.1-2c-11-3.7-17.9-8.2-26.6-17.4c-18.6-19.4-24.3-46.5-15.3-72.4
		c3.4-10,8-17.1,16.5-25.8c11.4-11.6,22.2-16.6,43.5-19.8C308.6,395.2,314.4,394.7,315.5,395.1z"/>
	<path id="path84" fill="#DDA0DD" d="M445.2,394.1l4,2.2c6,3.3,6.9,5.3,7.5,16.6c0.5,8.8,0.9,10.3,2.9,12.2l2.4,2.2v-9.5v-9.6l9.8,5
		c5.3,2.8,10,5.4,10.3,5.7c0.4,0.3,0.9,3.2,1.1,6.4c0.4,5,0.3,5.7-1.1,5.1c-5.2-2.3-12.9-4.4-15.7-4.4c-3.3,0-6.6,2.9-7.9,7.1
		c-1.4,4.3-11.1,1.1-15.8-5.2c-1.9-2.6-1.9-3-0.4-12c0.9-5.2,1.9-12.2,2.3-15.6L445.2,394.1z"/>
	<path id="path86" fill="#DDA0DD" d="M645.9,394c2.2,0,17.5,15.7,18.3,18.8c0.5,1.8-0.4,2.6-7.3,5.8c-11.9,5.6-12,5.7-10.4,21.4
		c0.7,6.6,0.5,8.1-1.3,11.7c-2.8,5.5-7.3,8.5-13.4,9.1l-4.9,0.5l0.7-5.2c0.5-4.2,0.3-5.5-1.1-7.1c-1-1.1-2.4-2-3.1-2
		c-0.8,0-2.6-1.5-4.1-3.2c-1.6-1.8-4.1-4.5-5.7-6c-2.5-2.5-2.6-2.8-0.8-2.8c1.1,0,5.6,0.7,9.9,1.5c10.2,2,11.3,1.9,11.3-0.4
		c0-2.1-1-2.6-7.5-3.7c-6.1-1-6.1-1.4-0.3-4.1c5.6-2.6,11.8-7.8,11.8-10c0-0.9,1.5-1.3,4.4-1.3c5.7,0,7.6-0.8,7.6-3.1
		c0-1.6-0.8-1.9-5.4-1.9h-5.3l-2.7-5.1c-1.5-2.9-2.5-5.3-2.4-5.4c0.2-0.1,2.5-1.9,5.1-3.9C642,395.6,645,394,645.9,394z"/>
	<path id="path88" fill="#DDA0DD" d="M489.5,422c0.6,0,5.6,1.6,11.2,3.6l10.3,3.7l-1.9,3.1c-2.5,4-7.1,19.8-7.1,24.2
		c0,2.8-0.5,3.6-2.7,4.5c-5.7,2.3-16.5-2.7-19.8-9.1c-1.4-2.8-1.4-2.9,3-6.4c5.3-4.4,6.8-8.6,6.3-17.4
		C488.6,424.5,488.9,422,489.5,422z"/>
	<path id="path90" fill="#DDA0DD" d="M520.1,431.4l13.1,2.3c7.3,1.2,13.5,2.6,13.9,3c0.4,0.5,1.4,6.8,2.2,14.1
		c1.3,11.5,1.8,13.7,4.1,16.6c1.4,1.9,2.6,3.7,2.6,4.1c0,1.3-7.2,3.5-11.8,3.5c-4.7,0-13.3-2.1-16.1-3.9c-1.2-0.8-1.3-2-0.2-8.3
		c0.7-4,2.6-11.2,4.2-16.1c3.5-10.6,3.5-11.2,0.5-9.2c-2.4,1.6-6.9,10.5-8.1,16c-1.3,5.9-1.5,6.1-3.1,2.9c-1.6-3.3-5-5.4-8.7-5.4
		c-4.3,0-4.8-1.2-3.2-6.6c0.9-2.7,2.2-6,3-7.4c1.3-2.3,1.4-2.1,1.2,4.2c-0.1,7.1,0.3,8.4,2.7,7.5c0.9-0.4,1.7-2.7,2.1-6.4
		c0.3-3.2,0.8-6.9,1.1-8.4L520.1,431.4z"/>
	<path id="path92" fill="#6495ED" d="M472.1,433.1c1.9,0.9,2,1.7,1.3,8.8c-0.8,9.7,0.4,13.8,5.6,18.5c4.7,4.2,15.6,7.9,20.6,7
		c4.7-0.9,8.4-4.6,8.4-8.4c0-2.5,0.4-3,2.3-3c3.9,0,6.7,2.7,6.7,6.6c0,1.9,0.7,5.1,1.5,7.1c0.8,1.9,1.5,4.9,1.5,6.5
		c0,4.9-8.3,35.5-10.4,38.5c-0.1,0.1-2.6-0.7-5.6-1.7c-6.6-2.3-9.6-2.5-10.3-0.6c-0.4,0.9,2.1,2.6,7.6,5.4c8.4,4.1,16.7,9.6,16.7,11
		c0,0.4-1,2-2.3,3.6l-2.3,2.9l-12.5-3.2c-6.8-1.7-15.8-3.5-19.9-3.9l-7.5-0.7l6.2-2.3c3.4-1.3,6.5-2.7,6.8-3.2
		c1.3-2-3.1-7-12.8-14.6c-17-13.4-15.4-11.2-17.2-25.1c-1.8-14.1-4.5-22.3-12.1-36.7c-6.1-11.5-6.8-14.3-2.6-10.3
		c4.8,4.6,13.6,7,18.7,5.1c0.9-0.4,2.5-2.4,3.6-4.5C466.1,431.8,468.3,431,472.1,433.1z"/>
	<path id="path94" fill="#DDA0DD" d="M603.5,437.4c4.2,2,10.5,6.7,10.5,7.8c0,0.3-1.2,1-2.7,1.6c-1.6,0.5-5.1,2.8-8,5l-5.2,4.1
		l-1.5-5.2c-0.9-2.8-2.2-7.3-3-9.9l-1.5-4.7l3.7-0.3C598,435.6,601.1,436.2,603.5,437.4z"/>
	<path id="path96" fill="#DDA0DD" d="M555.8,437c4,0,5.9,2.1,11,12l4,8h-2.9c-5.1,0-9.7,2.6-11.2,6.2c-1.3,3.2-1.4,2.8-2.1-7.7
		c-0.4-6.1-1-12.7-1.3-14.8C552.8,437.1,552.8,437,555.8,437z"/>
	<path id="path98" fill="#DDA0DD" d="M565.9,437h10.4h10.5l3.1,9.2c1.7,5,4,10.1,5.1,11.3c1.8,1.9,2,2.9,1.3,7c-1,6-4.5,9-10.3,8.9
		c-5.2-0.2-7-1.8-7-6.3c0-2-0.7-4.6-1.5-5.7c-0.8-1.2-1.2-2.4-0.9-2.7c0.6-0.6-5.9-14.6-8.9-19L565.9,437z"/>
	<path id="path100" fill="#D2B48C" d="M619.3,464.3c4.8,3.4,6.7,4.1,10.7,4.1c2.8,0.1,5,0.1,5,0.2c0,0.3-14,9.4-14.5,9.4
		s-9.5-17.5-9.5-18.5C611,458.7,612.2,459.4,619.3,464.3z"/>
	<path id="path102" fill="#D2B48C" d="M603.8,461.4c0.4,0.2,3.2,5.4,6.2,11.5l5.4,11.1l-6.1,6.3c-7.6,7.8-13.8,15.5-20.4,25.5
		c-2.9,4.2-5.5,8-5.9,8.5c-0.3,0.4-2.7-1.9-5.2-5c-2.5-3.2-7.8-10.1-11.9-15.3c-6.9-8.8-16.9-22.7-16.9-23.4c0-0.2,1.7-0.6,3.8-1
		c5.4-0.8,9.5-5.4,10.2-11.4c0.5-4.5,0.7-4.7,3.8-5c4.3-0.4,6.2,1.2,6.2,5.5c0,2.6,0.8,4.3,3.4,6.9c3,3,4,3.4,8.5,3.4
		c9.5,0,16.3-5.2,17.5-13.5C602.8,463,603.4,461.2,603.8,461.4z"/>
	<path id="path104" fill="#D2B48C" d="M658.7,471.7c1.3,3.2,1.2,3.3-1.2,3.3c-11.4,0-42.3,29.5-60.9,58.2
		c-6.5,10-11.9,21.3-14.3,29.9l-1.6,5.9l-2.5-2.2c-1.3-1.3-2.8-3.1-3.3-4c-1.3-2.5,3.4-17.8,8.5-27.3c14.6-27.3,42.7-55.9,63.5-64.6
		C655.1,467.4,657,467.6,658.7,471.7z"/>
	<path id="path106" fill="#D2B48C" d="M660,481.5c0.9,1.1,1.1,7,0.8,24.2c-0.3,12.6-0.8,23.5-1.2,24.4c-0.6,1.4-1.4,1.5-4.8,0.8
		c-8.7-2-16.1,1.4-25.9,11.8c-7.5,8-14.8,18.6-18.9,27.5c-3.7,8.2-4.1,11.2-1.5,11.5c1.6,0.2,2.7-1.2,5.5-7.5
		c1.9-4.2,5.6-10.9,8.2-14.7c5.3-8,18.1-20.9,22.4-22.5c3.5-1.4,15.9-0.4,17.2,1.3c0.5,0.7,1.2,3.9,1.5,7.2c0.5,5.2,1,6.4,3.9,8.8
		c1.8,1.5,3.7,3.1,4.1,3.5c0.5,0.4,2.3,3.5,4,7c2.8,5.5,23.9,31.3,45.6,55.6c7.1,8,15.2,20.5,20.1,31.3c2.2,4.7,4,9,4,9.5
		s0.9,2.8,2.1,5.1c1.2,2.3,4.1,9.6,6.6,16.2c4.3,11.6,4.5,12.4,5,26.2l0.6,14.3l-4.2,12.9c-4.2,12.8-4.3,13-8.9,16
		c-2.6,1.6-7.1,4.8-10.1,7c-6.9,5.1-10.2,5.8-19.3,3.6c-8.7-2.1-14.8-5.4-18.2-9.8c-2.2-2.9-10.9-20.2-42.1-84.3
		c-12.2-25-25.7-50-35.7-65.9l-6.3-10l-6.8-0.3c-4.5-0.2-7-0.7-7.3-1.6c-0.3-0.8,0.4-6.3,1.5-12.2c2.4-12.2,2.5-14.4,1.1-14.4
		c-2,0-5.9,5.5-6.5,9.2c-0.4,2.1-0.9,3.8-1.1,3.8c-1.6,0-8.6-4.4-9.1-5.6c-1.7-4.4,6.5-23.2,17-38.9c12.9-19.3,37.1-43.9,49.1-50
		C658.2,479.6,658.4,479.5,660,481.5z M640.1,551.9c-7.7,5.9-20.4,19.3-26.3,27.9c-2.4,3.5-2.7,4.6-1.8,5.7
		c1.7,2.1,3.3,1.9,10.8-1.4c6.4-2.8,10-3.5,31.1-6.1c4.6-0.5,8.6-1.2,8.8-1.4s0.1-1.1-0.3-2c-0.5-1.2-1.9-1.6-5.9-1.6
		c-8.7,0-25.2,2-29.6,3.5c-2.3,0.9-4.4,1.4-4.6,1.2c-1-1.1,19-20.5,25.6-24.9c4.2-2.8,7.7-5.2,7.9-5.3c0.1-0.1,0-1-0.4-1.9
		C654.2,542.5,650.5,544,640.1,551.9z"/>
	<path id="path108" fill="#6495ED" d="M364.7,490.1c2.1-0.1,2.2,0,0.7,3.5c-0.8,2-1.4,4.6-1.2,5.8c0.2,2-1.2,4.6-5.4,9.8
		c-1,1.1-1.8,2.9-1.8,3.8c0,1-0.6,2.3-1.4,2.9c-2.2,1.9-2.4,10-1.1,50.7c0.4,14.9,0.5,27.9,0.2,28.9c-0.6,1.5-1.1,1.3-4.5-1.3
		c-2-1.7-8.1-7.1-13.6-12.1c-5.4-5-10.6-9.3-11.6-9.6c-0.9-0.3-6.4,0.6-12.1,2c-9.6,2.3-14.9,3.1-14.9,2.1c0-0.8,9.9-26.6,11-28.6
		c0.6-1.1,1.9-2,2.9-2c1.6,0,1.9-1.3,2.4-11.3c0.5-9.2,1.1-12.3,3.1-16.7c1.4-3,2.6-6.5,2.6-7.6c0-1.2,0.9-3.2,1.9-4.6
		c1.1-1.3,2.1-4.2,2.3-6.4l0.3-3.9l11.5-0.7c6.3-0.3,14.9-1.6,19-2.6C359.1,491.1,363.5,490.1,364.7,490.1z"/>
	<path id="path110" fill="#6495ED" d="M371,496c2.1,0,16.5,7,16.9,8.2c0.7,2.2,8.2,13.1,13,18.7c2.5,3,7.9,8.1,12,11.3
		c6.5,5.2,7.6,5.8,8.9,4.5s0.2-2.7-8.8-11.4c-8.4-8-18-19.6-18-21.6c0-0.3,3.5,0.6,7.8,1.9c12.8,4.1,35.7,8.2,47.6,8.6
		c6,0.2,7.6-1.6,7.6-8.4c0-2.6,0.2-4.8,0.6-4.8c2.1,0,20.4,15.4,19.3,16.4c-0.2,0.2-6.9,2.7-14.9,5.6c-17.7,6.4-23.8,9.4-25,12.3
		c-0.9,2-6.1,25.8-9.1,41.6l-1.2,6.5l-4.4-5c-6.7-7.5-37.2-44-43.5-51.9c-6.5-8.3-8-11.1-10.3-18.9c-1.4-4.8-1.5-6.6-0.6-9.7
		C369.6,497.7,370.5,496,371,496z"/>
	<path id="path112" fill="#008B8B" d="M363.2,512.5l2.8,6c1.5,3.3,6.7,10.7,11.8,16.6l9,10.6l-8.2,3.3c-4.4,1.8-10.3,4.6-13,6.2
		c-2.6,1.6-4.9,2.8-5.1,2.6c-0.8-1.2-2.1-30.4-1.3-30.9c0.6-0.4,0.7-1.5,0.4-2.6c-0.4-1.2,0.3-4.1,1.5-6.9L363.2,512.5z"/>
	<path id="path114" fill="#A0522D" d="M256.6,522c0.2,0,2.8,1.8,5.6,4.1c2.8,2.2,6.9,4.9,9,6s3.8,2.3,3.8,2.8c0,1.7-6.1,7.1-8,7.1
		c-2.4,0-13-11.5-13-14.1c0-1.1,0.5-2.9,1-4C255.6,522.9,256.3,522,256.6,522z"/>
	<path id="path116" fill="#008B8B" d="M471.5,534.4c30.8,1,46.5,7.1,46.5,18.1c0,4-2.7,8-4.4,6.6c-3.4-2.8-28.5-6.1-46.1-6.1
		c-4.9,0.1-12.6,0.7-17,1.5c-11.8,2.2-11.5,2.3-10.3-2.8c2.8-12.6,3.7-13.8,12.6-16.4C456.1,534.4,461.8,534.1,471.5,534.4z"/>
	<path id="path118" fill="#A0522D" d="M285.3,540.3c0.7,2.3,0.2,5.2-2.4,13.8l-3.3,10.9l-2.2-2.7c-1.9-2.4-2.9-2.8-6.8-2.7
		c-2.6,0-4.5-0.2-4.4-0.5c0.2-0.3,3.6-5.5,7.6-11.4C281.5,536.3,283.5,535,285.3,540.3z"/>
	<path id="path120" fill="#A0522D" d="M291.6,550.2c1.4,0.6,3.4,0.6,5.9-0.1c2.2-0.6,4-0.9,4.2-0.7s-1.4,4.8-3.5,10.2
		c-2.2,5.4-4.7,12-5.6,14.5c-1.1,3.2-2.4,4.9-3.9,5.3c-4.3,1.1-9.5,0.6-11.8-1.3l-2.3-1.9l2.4-3.5c1.4-2,3.4-3.8,4.5-3.9
		c1.6-0.2,2.6-2.3,4.9-9.9C289.2,549.8,289.5,549.3,291.6,550.2z"/>
	<path id="path122" fill="#6495ED" d="M258,559c-11.1,13.1-12.4,17.8-6.7,23.5c2.5,2.5,4.5,3.4,8.5,4c8.2,1.1,6.3,3.5-2.8,3.5
		c-8.8,0-13.1-2.8-20.2-13.5c-2.3-3.3-5.4-7.4-7-9.1l-2.9-3.1l11.3-4.2c6.2-2.2,14.2-5.2,17.8-6.5C265.7,550,265.7,549.9,258,559z"
		/>
	<path id="path124" fill="#008B8B" d="M390.1,551c0.9,0,12.1,14.1,11.5,14.7c-0.3,0.3-4.2,2.1-8.8,3.9c-9.1,3.8-22.2,11-28,15.6
		l-3.8,3v-11.9v-11.8l6.8-4.2c3.7-2.3,10.1-5.3,14.2-6.7C386.1,552.2,389.7,551,390.1,551z"/>
	<path id="path126" fill="#F4A460" d="M506.9,563.5c0.4,0.6,2.3,7.3,4,15c1.7,7.7,4.1,17.5,5.2,21.7c2.1,7.6,2.2,7.9,8.3,12.2
		c3.3,2.4,9.2,7.6,13.1,11.5c5.4,5.6,6.5,7.1,4.9,7.1c-2.9,0-31.8,7.2-45.7,11.5c-11.6,3.5-32.8,11.3-41.5,15.3
		c-3.9,1.7-4.7,1.8-7.2,0.6c-12.8-6.4-33.7-2-44.9,9.5c-2.6,2.7-5.3,6.2-6,7.9c-1.2,2.8-1.4,2.9-5.2,2.1c-9.3-2.1-24,2.9-30.5,10.4
		c-2.3,2.6-3.5,3.4-3.1,2.2c7.3-25.9,9.7-35.5,9.7-38.7c0-4.9-1.9-10.2-10.1-28.8c-6.2-13.8-6.7-15.6-5.4-16.9s1.9-1.3,3.6-0.3
		c2.7,1.7,2.8,1.5,3.8-4.7c1-6.1,2.1-7.5,11-13.5c10.8-7.2,35.2-18.3,36.4-16.5c3,4.3,21.4,22.9,22.7,22.9c2.3,0,2.4-0.4,5.5-17.4
		c1.3-7.6,2.6-14,2.8-14.2c0.1-0.2,3.9-1,8.2-1.8C459.8,558.1,503.8,560.2,506.9,563.5z M393.6,642c-2.2-1.9-2.5-2-4-0.5
		c-1.4,1.5-1.4,1.9,0,4.7c1.4,2.7,1.4,3.1,0,4.7c-3.2,3.5-0.9,11.9,2.8,10.5c0.8-0.3,2.3-2.6,3.3-5.2c1.5-3.6,1.7-5.5,1-8.3
		C396.2,645.8,394.8,643.2,393.6,642z"/>
	<path id="path128" fill="#A0522D" d="M270.6,571.1c-2.1,2.5-2.5,3.8-2,6.4c0.3,1.8,0.2,3.5-0.3,3.8c-0.4,0.3-3.3,0.1-6.3-0.4
		c-5.5-0.9-8-2.7-8-5.8c0-2.8,4.4-7.1,8.5-8.6C271.4,563.4,275.2,565.5,270.6,571.1z"/>
	<path id="path130" fill="#A0522D" d="M336.8,591c0.4,0.1,3.1,2.2,6,4.8l5.3,4.8l-1.8,3.2c-2.1,3.7-3.1,3.9-6.6,1.2
		c-3-2.4-5.1-8.1-4.3-11.6C335.8,592.1,336.4,591,336.8,591z"/>
	<path id="path132" fill="#A0522D" d="M316.1,612c3.5,1.1,13.8,5.7,22.8,10.3l16.5,8.2l2.7,7c1.5,3.8,2.6,7.1,2.5,7.1
		c0,0.1-5.5-2.5-12.1-5.7c-21.4-10.5-42-15.3-49.4-11.6l-3,1.5l-1.1-5.2c-1.7-7.6-1.1-11.9,2-12.7C301.8,609.6,309.9,610,316.1,612z
		"/>
	<path id="path134" fill="#D2B48C" d="M320.5,633.4c7.3,1.9,21.7,8.1,32.2,13.8c7,3.7,9.3,5.5,9.3,7c0,1.8-0.9,5.9-4.1,18l-0.9,3.7
		l-4.3-1.9c-9.9-4.4-26.6-5-34.4-1.4c-2,1-5.4,4.2-7.8,7.5c-2.4,3.2-4.5,5.5-4.9,5.2c-1.5-1.5-0.2-3.8,4.7-8.7
		c8.4-8.5,14.9-16.5,14.2-17.6c-1.1-1.7-3.3-1.1-6.9,2l-3.4,3l-2-3.2c-1-1.8-4.5-8.3-7.7-14.5c-5-9.4-5.6-11.4-4.6-12.7
		C301.6,631.6,313.4,631.5,320.5,633.4z"/>
	<path id="path136" fill="#8B008B" d="M564.4,640.6c1.3,2.7,7.3,10.5,13.4,17.4c6.9,7.8,10.6,12.7,9.9,13.1
		c-0.7,0.4-7.7,2.3-15.7,4.4c-25.4,6.6-66,21-96.8,34.3c-7.2,3.1-9.2,3.6-8.7,2.4c1.7-4.4,3.5-14.3,3.5-19.2
		c0-9.9-3.7-19.5-10.3-26.8c-1.3-1.3-1.7-2.6-1.1-3.1c1.4-1.3,19.6-8.5,31.8-12.6c10.5-3.4,44-12.2,55.6-14.4c3-0.6,6.4-1.3,7.5-1.5
		C560,633.3,561.4,634.1,564.4,640.6z"/>
	<path id="path138" fill="#008B8B" d="M460.7,678.7c5.2,10.8,3.3,27.5-5.2,44.3c-4.9,9.7-16.1,26.3-25.3,37.3
		c-4.5,5.4-8.7,10.7-9.2,11.8c-0.6,1-1.7,1.9-2.5,1.9c-2.4,0-25.4-9.7-31.2-13.2c-8-4.8-18.3-16.2-22.6-25c-4.6-9.6-7-19.6-6.2-25.8
		c0.9-6.4,5.4-15.7,9.6-19.7c6.5-6.2,17.8-8.8,25.9-5.9c2.4,0.8,4.5,1.4,4.6,1.3c0.1-0.1,1.2-2.2,2.4-4.7c4.9-9.8,10.1-14.4,20.2-18
		C436.8,657.4,453.4,664,460.7,678.7z M419.6,673.4c-5.3,2-14.3,8.3-17.5,12.3c-2.6,3.2-2.6,3.3-9.2,2.7c-5.3-0.5-7.4-0.3-11,1.3
		c-14.8,6.6-20.5,22.9-13.3,38.3c5.5,11.8,17.9,22.9,34.6,31.1c8.6,4.2,9.4,3.8,19.2-8.4c11.4-14.4,16.2-21.7,21.1-32
		c6.3-13.3,8.2-21.2,6.8-29.2c-1.4-7.9-3.1-10.5-9.4-14C434.7,672.1,425.5,671.2,419.6,673.4z"/>
	<path id="path140" fill="#006400" d="M443,686.4c5,13.3-6.4,39.6-27.3,63l-5.3,5.9l-9.4-4.9c-18-9.3-29-22.9-29-35.8
		c0.1-8.5,2.6-13.8,8.7-17.6c4.1-2.7,5.5-3.1,9.8-2.7c2.8,0.3,6.2,0.8,7.6,1.2c2.2,0.6,3.3-0.2,8.5-5.5c5.6-5.9,10.8-9.3,16.4-11.1
		C430.7,676.6,440.6,680.3,443,686.4z"/>
	<path id="path142" fill="#BA55D3" d="M603.1,674c6,0,7.9,2.3,7.9,9.3v4.9l19.3,19.7c32.7,33.4,48.4,52.9,59,73.8l6.5,12.8l6.4,2.8
		c3.4,1.5,7.3,3.5,8.6,4.5l2.3,1.8l-4.3,3c-2.4,1.7-7.9,5-12.3,7.4c-4.4,2.4-12,6.8-16.8,9.7c-12.6,7.6-19.1,10.7-27.9,13.3
		c-7.3,2.1-8.3,2.2-17,1.1c-13.2-1.8-22.1-3.7-39.3-8.3c-14-3.7-36-10.4-37.8-11.5c-0.5-0.3,0.1-1.5,1.2-2.7c5.2-5.6,7-18.7,3-22.7
		c-1.8-1.8-3-2-9.2-1.7l-7.2,0.3l-0.3-3.5c-0.2-2.5,0.4-4.7,2.1-7l2.3-3.5h9.9c8.2,0,10.6-0.4,13.3-2c5.3-3.2,7.5-7.7,8-16.5
		c0.5-8.7-1.1-13.2-6.9-18.8c-2.9-2.8-10.8-6.2-14.5-6.2c-0.6,0-2.2-0.8-3.4-1.8c-3.9-3.1-2-7.4,7.5-17.2c4.5-4.7,8.8-9.5,9.4-10.7
		c2.9-5.7-0.1-13.7-6.5-17.5c-1.9-1.1-3.3-2.2-3-2.5c0.2-0.2,8-2.4,17.2-4.9s17-4.7,17.3-4.9C598.1,674.2,600.5,674,603.1,674z"/>
	<path id="path144" fill="#D2B48C" d="M341.4,676.5c8.1,1.7,10,3,5.8,3.8c-1.6,0.3-8.7,2.9-15.8,5.7c-13.4,5.3-17.7,8.1-15.7,10.1
		c0.9,0.9,4,0,12.5-3.4c12.7-5.1,25.8-9,25.8-7.7c0,2.9-7.4,27.6-8.5,28.2c-0.7,0.4-1.8,2.2-2.6,4c-0.7,1.7-10.1,12-20.9,22.7
		c-12.9,12.9-22.6,23.5-28.2,31.1c-7.8,10.5-12.5,18-11.4,18c0.2,0,1.1,0.3,1.9,0.6c1,0.3,3-1.7,6.3-6.2c2.6-3.7,7.5-10,10.8-13.8
		c6.9-8.2,37.8-39.8,38.3-39.2c0.6,0.5-6.3,52.9-9.8,75.2l-3.3,20.4l-3.2,1.9c-4.5,2.7-8.5,9.1-9.2,14.6c-0.3,3.2-1.1,4.9-2.5,5.6
		c-2.2,1.2-60.8,2.6-65,1.5c-4.9-1.2-7.1-9.2-4.5-16.6c1.3-3.8,10.1-19.7,29.5-53c15.2-26.2,30.2-54.3,31-58.2
		c0.3-1.5-0.4-5.8-1.6-9.7c-1.1-3.8-2.1-7.4-2.1-8.1c0-0.6,2.7-4.3,6-8.1s7.4-9.4,9-12.3c3.1-5.5,4-6,13.5-8
		C331.3,674.8,334.6,675,341.4,676.5z"/>
	<path id="path146" fill="#DA70D6" d="M552.3,687.1c0.4-0.1,3.7,1.2,7.2,2.8c10.8,4.9,11.2,10.4,1.4,19c-5.1,4.5-6.2,5.1-7.5,4
		c-1.8-1.5-10.2-1.8-18.6-0.6L529,713v-6.4c0-12.1-0.2-11.7,11.8-15.8C546.7,688.8,551.8,687.1,552.3,687.1z"/>
	<path id="path148" fill="#BA55D3" d="M523.3,697c2.7-0.1-4.9,67.7-9.9,87.3c-5,20-10.4,37.9-15,49.5c-2.6,6.4-4.7,12.7-4.8,13.9
		l-0.1,2.3h-84.9h-84.9l2.1-2.3c1.2-1.3,2.2-3.1,2.2-4.1s1.4-3.5,3.2-5.5c30.5-35.2,60.7-65.1,65.7-65.1c0.6,0,5.8,1.8,11.6,4
		s11.1,4,11.9,4c0.7,0,5-4.8,9.5-10.8c4.5-5.9,10.6-13.9,13.6-17.7c3.1-3.9,8.1-11.3,11.2-16.5s6.1-10.4,6.8-11.6
		c1.8-2.9,16.8-10,40.5-19.3C513.3,700.7,522.8,697,523.3,697z"/>
	<path id="path150" fill="#8B008B" d="M351.5,716.2c0.2,0.2,1.1,3.4,1.9,7.2c2.2,9.4,9.8,23.6,16.5,30.9c3.1,3.3,8.9,8.2,12.9,10.8
		l7.3,4.6l-4.8,3.6c-5,3.7-16.1,14.9-39.2,39.5c-7.3,7.9-13.5,14.1-13.7,13.9c-0.2-0.2,0.1-2.8,0.6-5.8c1-5.1,6.1-40,9.6-64.9
		c3-22.2,5.5-35.5,7-37.8C350.5,716.9,351.3,716,351.5,716.2z"/>
	<path id="path152" fill="#DA70D6" d="M552.3,716.6c0.3,0.3-0.3,2-1.3,3.7c-1,1.8-2.2,4.8-2.5,6.9l-0.7,3.6l-3.2-1.3
		c-1.8-0.8-6.3-1.9-9.9-2.5c-6.3-1.1-6.7-1.4-6.7-3.9c0-4,1.3-5.2,6.6-6C540.5,716.1,551.4,715.8,552.3,716.6z"/>
	<path id="path154" fill="#DA70D6" d="M547.8,736c5.9,2.2,12.6,4.4,14.8,5c8.1,2,12.4,7.7,12.4,16.5c0,5.4-2.2,11.3-4.6,12.2
		c-1.3,0.5-2.8-0.5-5.3-3.4c-2-2.2-4.6-4.6-5.8-5.2c-3.6-1.8-10.1-1.2-23.5,2.3c-7.9,2-12.8,2.9-12.8,2.2c0-0.6,0.9-8.1,2-16.6
		s2-16.1,2-16.9C527,729.9,535.7,731.5,547.8,736z"/>
	<path id="path156" fill="#DA70D6" d="M546.8,766.5c0.1,0.1-0.4,1.5-1.2,3.1c-7.4,15.2-8.2,20.9-3.6,25.6c3,2.9,3.3,3,9.5,2.3
		l6.5-0.7v3.4c0,5.6-1.9,10.6-5.2,13.3l-3.1,2.6l-2.8-2.7c-5.8-5.5-12.9-2.1-15.8,7.5c-2.6,8.7-0.9,15.4,4.4,17.7
		c3.1,1.3,3.5,1.8,3.5,5.2c0,2.1,0.5,4.3,1.2,5c0.9,0.9-3.9,1.2-21.8,1.2c-14.8-0.1-22.3-0.4-21.3-1c0.9-0.5,2.6-3.2,3.8-6
		c1.2-2.7,2.4-5,2.8-5c0.3,0,4.8,2.1,10,4.8c7.9,4,9.5,4.5,10.3,3.2c1.3-1.9-0.8-3.6-10.8-9.1c-4.2-2.3-7.8-4.3-7.9-4.3
		c-0.1-0.1,1.2-3.9,2.8-8.5c1.6-4.5,4.1-12.9,5.5-18.4c1.5-5.6,3-10.7,3.3-11.4c0.4-0.7,5.3,0.8,15.5,4.8c8.2,3.3,15,5.8,15.2,5.6
		c1.1-1-13.2-10.1-20.3-12.9c-9.3-3.7-9-3.3-7-13.3l1.2-6l12.5-3.1C540.9,767.7,546.6,766.4,546.8,766.5z"/>
</g>
</svg>
