<?xml version="1.0" encoding="utf-8"?>
<!-- Generator: Adobe Illustrator 21.0.0, SVG Export Plug-In . SVG Version: 6.00 Build 0)  -->
<svg version="1.1" baseProfile="tiny"
	 id="svg148" inkscape:version="0.92.2 5c3e80d, 2017-08-06" sodipodi:docname="17 #15693.svg" xmlns:cc="http://creativecommons.org/ns#" xmlns:dc="http://purl.org/dc/elements/1.1/" xmlns:inkscape="http://www.inkscape.org/namespaces/inkscape" xmlns:rdf="http://www.w3.org/1999/02/22-rdf-syntax-ns#" xmlns:sodipodi="http://sodipodi.sourceforge.net/DTD/sodipodi-0.dtd" xmlns:svg="http://www.w3.org/2000/svg"
	 xmlns="http://www.w3.org/2000/svg" xmlns:xlink="http://www.w3.org/1999/xlink" x="0px" y="0px" viewBox="0 0 850 850"
	 xml:space="preserve">
<sodipodi:namedview  bordercolor="#666666" borderopacity="1" gridtolerance="10" guidetolerance="10" id="namedview150" inkscape:current-layer="svg148" inkscape:cx="635.67395" inkscape:cy="577.7848" inkscape:pageopacity="0" inkscape:pageshadow="2" inkscape:window-height="978" inkscape:window-maximized="1" inkscape:window-width="1920" inkscape:window-x="0" inkscape:window-y="1" inkscape:zoom="0.29448918" objecttolerance="10" pagecolor="#ffffff" showgrid="false">
	</sodipodi:namedview>
<g id="g146" transform="translate(0.000000,0.000000) scale(1.00000,1.00000)">
	<path id="path4" fill="none" d="M0,0l242.8,0.2c133.5,0.1,240.9,0.3,238.7,0.5c-12,1-34,4.7-45.7,7.7
		c-35.4,8.9-67.2,25.8-111.1,58.8c-20.3,15.4-27.5,23.5-49.8,56.9c-7.5,11.3-20,29-27.7,39.2c-15.8,20.9-21.9,29.7-28.5,41.2
		c-5.5,9.6-18.7,39.5-19.7,44.8c-0.7,3.5-0.5,3.9,2.2,5.3c1.7,0.9,3.4,1.2,3.8,0.7c0.4-0.4,2.4-4.6,4.5-9.3
		c9.1-21.1,21.9-39.3,40.3-57.3c6.6-6.4,12.4-11.7,12.9-11.7s-0.3,6.2-1.9,13.7c-2,9.9-3.1,19.1-3.8,32.3c-1.1,21-2.1,27.4-5.7,37.4
		c-1.5,3.9-4.3,13.6-6.3,21.6l-3.6,14.5l-4.5,0.3c-4.1,0.3-4.5,0.1-6.3-3.2c-2.9-5.4-6.2-6.2-15.9-4.2c-8.6,1.9-43.1,14.3-47.3,17.1
		c-2.9,1.9-4.4,5.3-4.4,10.1c0,1.9-1.3,6-2.9,9.2c-1.6,3.1-4.3,10.6-6,16.5c-4.9,16.9-9.4,24.9-22.7,40.3
		c-7.7,9-11.6,15.5-12.8,20.9c-1.5,7.4-3.6,27.8-3.6,36c0,5.1,0.9,13.2,2,18.5c1.1,5.2,2,10.7,2,12.2s-2.5,13.1-5.5,25.9
		c-3.1,12.8-6.9,30.5-8.5,39.4c-4.2,22.7-14,87.1-14.7,96.3c-0.8,11.1,1.6,22.5,7.1,33.8c3.3,6.6,4.7,10.9,5.2,15.5l0.6,6.4L88,705
		c-18.4,21.3-20.4,24.7-20.5,35c0,9.3,2.5,14.9,12,26.7l6.6,8.2L81,791.2c-5.4,17.5-5.8,20.8-3.5,27.8c0.8,2.5,1.7,6.1,2,8
		c0.5,3.4,0.6,3.5,4.7,3.3c2.4-0.1,4.3-0.2,4.4-0.2c0.4-0.3-2.7-13.2-3.7-15.7c-1.1-2.8-0.8-4.7,3-18c4.8-16.7,6.6-21.4,11-27.7
		c1.7-2.5,2.8-4.7,2.6-4.9c-0.3-0.3,12.1-12.7,27.5-27.6c15.3-15,27.6-27.2,27.3-27.2c-2.3,0-20.7,9.9-26.1,14.1l-6.7,5.1l8.5-8.4
		c10.9-10.8,19.8-15.5,31.6-16.8c17.4-1.8,58.8,0.9,85.4,5.6c19,3.4,34.6,7.3,74.5,18.8c18.2,5.2,34.6,9.8,36.6,10.1
		c3.5,0.6,3.6,0.5,4.3-2.6c0.3-1.8,0.3-3.6-0.1-4c-0.7-0.6-37.9-11.6-43-12.7c-7.8-1.6,8.2-4.8,16.4-3.3c6.1,1.2,24.4,10,34.1,16.4
		c7.9,5.3,22.2,17.3,22.2,18.7c0,0.6-1,1-2.2,1c-5.3,0-6.5,1-7.6,6.2c-2.4,10-1.8,12.5,5.1,23.4c9.4,14.7,22.7,36.2,22.7,36.6
		c0,0.5-23.1,1.2-38.5,1.1c-7.7,0-19.4-0.8-26-1.7c-6.6-0.8-22.1-2.7-34.5-4.1c-42.2-4.7-61.8-8.7-97.2-20.1
		c-13.3-4.2-14-4.3-13.2-0.6c1,4.4,3.3,5.8,16.4,10.1c29.1,9.4,49,13.5,84.6,17.6c12.6,1.4,24,2.8,25.4,3c1.4,0.3,10.3,1.4,19.8,2.5
		c19.7,2.3,36.1,2.6,47.5,0.8c6.7-1,8.8-0.9,15.2,0.6c4,1,7.9,2.4,8.6,3.2c1,1.2,3.4,1.5,11.6,1.3c5.7-0.1,10.3-0.6,10.3-1.1
		c0-0.7-20.4-38.3-30.2-55.6l-3.1-5.4l6.4,0.7c3.5,0.3,21.6,2.1,40.1,3.9c22.8,2.3,34.3,3.8,35.4,4.7c1.2,1,26.4,32.1,42.1,51.8
		c0.3,0.4,2.9,0.6,11.3,0.9l4.9,0.2l5.2,7.8c7.3,10.9,7.5,10.9,3.4-0.3c-2-5.5-4.1-11.2-4.7-12.8c-0.7-1.9-0.7-3.1,0.1-4
		c0.6-0.8,11.1-8.5,23.3-17.3c12.2-8.7,24.4-18,27-20.5c4.6-4.5,4.8-4.8,4.8-10.4c0-5.7-2.9-17.3-9.1-36.2l-3-9.2l8.7-16.8
		C613.3,694.7,617,688,617,689c0,0.3-2.2,7.2-4.9,15.3l-5,14.7l2.5,0.6c1.8,0.5,2.3,1.1,1.8,2.3c-1.6,3.9-1.4,4.7,1.7,6.4
		c1.7,1,3.3,1.6,3.4,1.5c0.2-0.2,4.4-7.2,9.5-15.6s9.4-15.1,9.6-14.9c0.3,0.2,1.4,7.8,2.5,16.8c3.3,26.2,1.7,35.5-9,50.9
		c-28.3,40.8-42.8,62.8-41.5,63.1c0.2,0,2.3,0.1,4.6,0.1c3.1,0.1,4.5-0.4,5.3-1.8c1.4-2.5,15.1-22.8,30.8-45.7
		c21.3-30.9,21.8-33.5,16.7-73.2l-3.2-25.1l6-24.4c3.3-13.5,6.8-28.6,7.7-33.5c2.2-12,3.5-14.4,11.7-21.6c8.1-7.2,9-8.7,9-14.4
		c0-5-2.1-9.6-6.7-14.5l-3.2-3.5l1.9-4.4c1.7-3.8,2.3-4.3,4.6-3.8c1.5,0.3,4.5,0.8,6.7,1.2l4,0.6l-5.7-3.1c-3.2-1.7-5.8-3.4-5.8-3.9
		c0-0.4,0.9-3.4,2-6.7c2.3-6.5,6-25.9,6-31.1c0-1.8,2.3-9.5,5.1-17c2.8-7.6,6.1-17.3,7.2-21.5c1.2-4.3,2.4-7.8,2.7-7.8
		c0.8,0,0.1,12.2-1.4,25.5c-0.7,6-1.1,11.5-0.9,12.2c1,2.6,8.8-4.5,12.7-11.4c7.2-12.9,9.3-20,14.1-46.5c2.5-13.9,5.2-28,5.9-31.3
		l1.2-6l4.2,12.6c8.8,26.8,12.8,47.6,14,72.3l0.7,15.8l3.7-6.9c3.6-6.7,3.7-7.3,7.2-35.8c4.6-37.8,6.1-63.8,4.6-83.8
		c-1.1-15.2-4.6-46.4-7.5-67.1c-0.8-6-1.5-11.7-1.5-12.5c0.1-0.9,2.1,2.4,4.6,7.4c5.9,11.5,16.5,26.9,19,27.4c1,0.2,2.4,1,3,1.9
		c2.4,3.3,2.2-6.8-0.5-31.3c-1.6-13.8-2.5-25.2-2.1-25.5s1.2-3.5,1.8-7.1c1.8-11.4-1.5-25.5-10.1-43.9
		c-11.1-23.7-15.8-39.8-21.7-75.2c-5.5-32.6-15.4-53.5-33.5-70.6c-9.4-8.9-22.3-18-30.6-21.4l-5.4-2.3L685,71l8.5-0.5l-7.5-4.2
		c-9.6-5.3-13.5-6.3-24.6-6.3h-9.1l-1.3-4.3C646.9,42,640.6,33,632.2,29.3c-6.8-3-7.6-2.9-5.5,0.4c2,3,1.2,2.8-4.2-1.3
		c-4.9-3.7-18.4-10-27.2-12.8c-16.2-5-53.6-12.4-73.3-14.5c-5.2-0.5,56.7-0.9,159.8-1L850,0v425v425H425H0V425V0z"/>
	<path id="path6" fill="#B8860B" d="M519.1,9c39.9,4,76.7,13.1,93.5,23.1c12.1,7.1,24.9,21.7,29.1,32.9c2.1,5.6,2,5.5,3.7,4.1
		c1.5-1.2,6.6,0.1,6.6,1.7c0,0.5,3.9,2.2,8.8,3.7c25.1,8,42.7,20.1,57.1,39.2c10.9,14.6,14.3,23.8,20.1,54.8
		c6.7,35.8,12.7,56,23.5,79.2c3,6.6,5.8,13.3,6.1,15.1c0.6,2.8,0.4,3.2-1.6,3.2c-1.8,0-2.1,0.4-1.6,2.7c0.3,1.6,1.7,13.8,3.1,27.3
		c1.4,13.5,2.8,26,3.1,27.8c0.9,5.7-1.5,2.8-6.7-8.2c-8.8-18.6-16-45.4-18.3-68.2c-0.9-8.2-2.1-17.8-2.7-21.3l-1.2-6.3l-3.5,0.5
		c-1.9,0.4-3.6,0.7-3.7,0.9s0.2,3.9,0.7,8.3c1,9.3,9.5,90.1,10.3,99c0.4,3.3,2.2,18.4,4.1,33.5c3.7,28.9,5.4,55.7,3.5,53
		c-0.6-0.8-2.5-6-4.2-11.5c-3.9-12.7-8.7-23.7-13.9-31.8l-4-6.4v-33.2V299h-4h-4l-0.1,25.2l-0.1,25.3l-2.5-5.5
		c-1.4-3-3.6-11.4-4.9-18.5c-2.9-15.2-14.8-91.9-16.3-104.9c-0.6-4.9-1.2-9-1.4-9.2s-2-0.1-4,0.3c-3.6,0.5-3.6,0.6-3.1,4.7
		c0.8,7.3,9.4,71.7,11.5,86.3c1.8,12.6,5.6,30.7,7.4,35.6c0.5,1.2,0.3,1.6-0.7,1.2c-0.9-0.4-2.2,0.4-3.2,2
		c-1,1.5-7.8,20.1-15.1,41.3c-16.4,47.6-15.7,45.7-19,52.3c-4.3,8.5-8.2,13.6-18.9,24.9c-11.9,12.6-24.2,27.5-32,38.7
		c-3.2,4.6-5.9,8.3-6.1,8.3c-0.2,0,0.1-1.5,0.6-3.3c4.5-15.4,5-18,4-18.6c-0.7-0.5-0.8-1.8-0.1-4.1c0.6-1.9,1-3.7,1-3.9
		c0-1.6-8,8.5-14.9,18.9c-14.7,22.1-30,42-57.9,75.8C535.3,586,531,590.2,531,587.1c0-0.4,7.3-12.2,16.2-26.2
		c23.4-36.7,26.2-43.1,31.3-70.9c3.1-17.4,4.6-23.2,9.2-36.9c3.3-10.1,10-27.1,11-28.1c0.3-0.3,0.2,4.4-0.1,10.5
		c-0.4,6-0.9,15-1.1,20l-0.5,9l3.5-6.8c2-3.7,6.2-14.3,9.4-23.5c3.3-9.2,7.8-21.9,10.1-28.2c11-30.5,17.6-52.6,21.4-72.5
		c2.3-11.8,4.6-30.7,4.6-38.1c0-3.5,0.4-6.4,0.8-6.4c0.4,0,1.6,3.1,2.6,7c1,3.8,2.1,7,2.5,7c1.5,0,0.4-27.3-1.3-32.5
		c-1.9-5.7-14.8-36.6-15.2-36.2c-0.1,0.1,0.4,5.6,1.3,12.2c1.9,14.9,2.1,47.7,0.4,61c-2.6,20.7-8.3,46.7-15.5,70.3
		c-3.6,11.8-4.5,13.7-5.4,11.3c-0.3-0.8-2.2-3.3-4.3-5.6c-4.6-5-4.7-6.2-2.4-24.2c2.3-17.5,2.1-16.8,5-14.9c3.6,2.4,3.9,2,1.1-1.7
		c-1.5-1.9-2.6-4.6-2.6-6.1c0-2.8,4.4-32.9,10.4-71.8c2.6-17.1,3-20.8,1.8-21.3c-2.1-0.8-7.2-0.6-7.2,0.2c0,0.5-2.7,19.1-6.2,41.6
		c-3.9,25.3-6.6,40.6-7.3,40.4c-1.7-0.6-1.8-25-0.1-31.6c0.9-3.1,3-10.8,4.7-17.1c4.4-16.4,9.9-42.4,9.1-43.1
		c-0.4-0.4-1.9-0.9-3.4-1.3c-2.4-0.5-2.8-0.3-3.4,2.1c-4.8,19.2-21.2,80.4-21.7,81c-0.4,0.4-1.4,0-2.2-0.8
		c-1.3-1.3-1.2-3.2,1.1-16.4c2.5-13.9,2.7-17,2.5-41.2L591,231l4.6-11.2c7-17.1,11.4-28.7,11.4-30.2c0-1.1-0.8-1.2-3.6-0.6
		c-2,0.5-4,1.2-4.4,1.7c-0.4,0.4-2.2,4.8-4,9.8c-5.3,14.2-13.2,31.4-21,45.2c-7.2,12.7-24.4,39.2-31.7,48.8c-3.6,4.6-4.2,5-8.7,5.3
		c-4,0.3-4.8,0-4.3-1.2c6-15.6,11.8-32.1,17-48.6c8.9-28,20.9-68.1,20.5-68.6c-0.2-0.2-2.6,1.9-5.4,4.5c-4.8,4.6-5.3,5.6-10.4,20.7
		c-6,17.9-9.3,25.2-15.5,33.9c-6,8.5-10.1,12-45,39.1c-17,13.3-32.8,26.1-35.1,28.5c-5.5,6-12,15.9-15.5,23.3
		c-1.5,3.3-2.8,5.3-2.9,4.4c-0.1-5.4,8.6-36.5,14.3-50.8c2.8-7.1,3.7-8.5,5.5-8.4c2.6,0.1,2.8-0.5,0.5-2.1
		c-1.5-1.1-1.1-2.2,4.1-11.4c3.2-5.6,9-14.3,13-19.4c4-5.1,15.5-19.8,25.7-32.7c11.5-14.6,21.4-28.4,26.2-36.4
		c4.2-7.1,7.6-13,7.4-13.2c-0.3-0.3-25.5,27-31.9,34.6c-3,3.6-15.7,20.1-28.2,36.8s-23.4,30.6-24.1,30.8c-1,0.4-8.5-2.6-10.3-4.1
		c-0.4-0.4,7.5-19.1,12.4-29c7.3-14.7,16.9-28.5,36.6-52.6c19.8-24.1,33.9-38.2,47.6-47.8c5-3.6,9-6.6,8.8-6.8
		c-0.5-0.6-17.5,4.6-20.8,6.3c-5.9,3.1-15.4,12.2-30.4,29.6c-21.9,25.1-30.3,35.7-37.1,46.7c-3.2,5.1-10.5,14.8-16.3,21.5
		c-5.8,6.6-13.4,15.6-16.8,19.8c-5.7,7-9.2,9.6-9.2,6.8c0-1.9,17.9-37.6,23.6-47c8.8-14.6,15.7-23.5,27.5-35.3
		c5.9-6,10.2-10.6,9.6-10.4c-13.4,5.2-16.9,7.2-23.1,13.6c-8.9,8.9-15.2,17.9-24.9,34.9l-8.1,14.4l-12.3,10.4
		c-6.7,5.8-12.8,11.4-13.4,12.5c-1.3,2.5-8.3,5.8-12.2,5.9c-3.6,0-3.5-0.3,5.2-18.5c11.5-23.7,22.9-41,36.7-55.4
		c4.1-4.3,7.4-8.1,7.4-8.3c0-0.8-9.2,0.3-11.2,1.3c-2.6,1.4-17.4,19.5-24.4,30c-3.5,5.3-10.2,17.6-14.9,27.5
		c-4.7,9.8-9.3,19.4-10.2,21.3c-1.6,3.1-2.9,3.8-14.3,7.7c-6.8,2.4-12.5,4.2-12.7,4c-0.3-0.2,3.1-12.8,4.2-15.9
		c0.4-0.9,0.3-1.7-0.3-1.7c-0.6,0-2.2-0.4-3.6-1l-2.5-0.9l5.1-9.3c21.9-39.8,48.5-74.6,82.4-107.8c16.9-16.6,32.1-28.7,46-36.6
		c8.9-5.1,14.4-9,14.4-10.3c0-0.4-1.6-1.3-3.5-1.8c-4-1.3-5.4-0.7-21.3,9.1c-13.5,8.4-29.6,21.8-46.7,39
		c-17,17.1-26.4,28.1-43.8,51.1c-19.9,26.3-29.3,41.6-43.3,70.2c-4.7,9.5-8.6,17.3-8.8,17.3c-0.6,0,6.7-28.3,9.9-38.5
		c6.7-21.9,18.2-46,30.3-64c13.1-19.4,25.5-32.7,44.7-48c5.2-4.2,9.5-7.9,9.5-8.2c0-1-4.2-5.3-5.2-5.3c-1.7,0-24.2,19.2-32.2,27.4
		c-15.4,15.8-29.4,36.8-42.7,64.1c-10.2,20.7-14,33-23.4,76c-5.6,25.9-8.9,38.6-12.7,48.9c-3.9,10.6-4.7,12-4.8,7.8
		c0-5.4,2.9-31.7,4.5-40c0.8-4.2,1.5-7.8,1.5-8s-2.1,1.1-4.7,2.9c-3.7,2.6-4.5,2.8-3.9,1.3c2.8-6.9,18.8-57,18.9-59.1
		c0.2-2-0.4-2.8-2.6-3.6c-1.6-0.5-3.2-0.5-3.7-0.1c-0.5,0.5-4.5,12.8-8.9,27.4c-4.4,14.6-11.1,35.3-15,46.1
		c-11.3,31.8-18.2,57.9-21.5,81.4c-4.1,28.8-4.7,61.1-1.6,86c1.1,8.7,1.8,16.1,1.6,16.3c-0.8,0.7-4.9-11.6-7.7-22.8
		c-13.1-53.1-11.3-123.4,4.5-177.3c7-23.7,15.1-42.7,29.7-70.1c15.6-29,27.8-48.8,43.3-70.3l3.7-5.2l-3.3-2.1l-3.3-2l-2.3,2.7
		c-1.3,1.6-7.6,10.7-14.1,20.3c-12.6,18.8-27,43.6-37.2,64.2c-3.5,7.1-6.6,12.8-6.9,12.8c-1.9,0,3.9-35.7,8.2-50.9
		c7.9-28.1,17.4-43.8,40.8-67.1c13.1-13.1,19.6-21,17.2-21c-0.4,0-3.1,0.7-5.8,1.6c-4.1,1.4-7.2,4.1-19.4,16.3
		c-18.7,18.8-28,32.3-35.9,52.2c-1.9,4.9-4,7.2-15.9,18c-7.5,6.8-13.2,11.7-12.7,10.9s7.4-10.3,15.3-21c7.9-10.7,20.3-28.3,27.5-39
		C309,88.1,316,81.4,360.5,52.5c36.4-23.7,45.2-27.8,76-35.4c11.1-2.7,35-7.5,42-8.4C485.1,7.8,509.4,8.1,519.1,9z M405.9,58.1
		c-5.1,0.2-19.8,5.4-24.6,8.6c-12.1,8-31.7,30.4-37.4,42.8c-2.1,4.5-2.9,8.2-3.4,15l-0.6,9l6.4-12.2c3.6-6.7,9.1-15.9,12.3-20.4
		c7.8-10.9,22.4-24.5,36.9-34.7C402,61.7,406.7,58,405.9,58.1z M648.8,136c-5.2,0-5.2,0.1-3.4,23.1c0.9,11.8,1.6,22.2,1.6,23.1
		c0,1.4,0.9,1.8,4.1,1.8h4.2l-0.7-8.5c-0.3-4.7-0.4-8.5-0.2-8.5c1.1,0,11.6,39,11.6,43.2c0,2.3,1.3,2.9,5,2.1
		c3.1-0.6,3.2-0.7,2.6-4.7c-2.8-17.8-11.9-48.4-19-63.9C651.7,137.4,650.6,136,648.8,136z"/>
	<path id="path8" fill="#FFA500" d="M409.8,242.4c0.2,0.2-0.8,2.7-2.2,5.5c-2.3,4.5-3,5.1-5.8,5.1h-3.2l5.4-5.5
		C406.9,244.5,409.6,242.2,409.8,242.4z"/>
	<path id="path10" fill="#FFA500" d="M436.5,243c0.8,0-5.2,14.4-6,14.7c-0.6,0.1-1.6-0.1-2.4-0.6c-1.1-0.7-0.7-1.8,1.9-5.7
		c1.8-2.7,4-5.7,4.8-6.7C435.6,243.8,436.4,243,436.5,243z"/>
	<path id="path12" fill="#FFDEAD" d="M582.5,248.4l0.8,6.1c1.8,13.9-2.7,55.6-5.9,54.8c-0.5-0.1-3.6-1.4-6.9-2.7
		c-3.3-1.4-9.5-3.3-13.8-4.3c-4.3-0.9-7.6-2-7.5-2.4c0.2-0.5,7.7-12.2,16.8-26.2L582.5,248.4z"/>
	<path id="path14" fill="#FFA500" d="M336.4,251c0.8,0-0.2,2.6-6.1,14.9c-3,6.2-5.7,11.1-5.9,10.8c-0.3-0.3,2.1-6.2,5.4-13.1
		C333.2,256.7,336.1,251,336.4,251z"/>
	<path id="path16" fill="#DEB887" d="M536.2,253.1c2.2-0.4-12.1,39.3-25.2,69.9c-7.9,18.3-10.7,23.9-16.3,32.2l-4.4,6.7l2.3,2.2
		l2.4,2.3l3.6-3.5c2-1.9,6.7-7.3,10.5-12.1l7-8.7l3.2,1.9c3.7,2.3,6.6,2.4,20.5,0.8l10.2-1.2v-3.3V337h-14.5c-8,0-14.5-0.3-14.5-0.6
		c0-1.5,19.5-25.5,20.5-25.2c0.6,0.2,8.4,3.2,17.3,6.8c10.9,4.4,16.2,7,16.2,8c-0.1,0.8-1.1,6.2-2.3,12c-2.2,10-2.5,10.5-4.8,10.3
		c-1.3-0.2-7.1-0.8-12.9-1.4c-19.4-2.1-31.6,0.2-40.5,7.6l-4.5,3.6l2.5,5c2.3,4.5,2.8,4.9,6.1,4.9c2.5,0,3.5,0.4,3.1,1.3
		c-2,5.3-2.9,14.3-2.3,24.3l0.7,11.1l-4.2,1.6c-2.4,0.9-4.1,1.9-3.8,2.1c0.2,0.2,8,3.8,17.4,8.1c9.3,4.2,17.2,7.8,17.4,8.1
		c0.2,0.2-0.4,1.4-1.5,2.6c-1.9,2.1-1.9,2.1,0.1,1.4c4.5-1.7,7.4-1.7,10.4-0.2l3.1,1.7v-3.6c0-2.2,0.5-3.5,1.3-3.5
		c0.7,0,3.8-1.5,6.9-3.4c5-3,5.8-3.2,7.1-1.8c1.4,1.3,2.8,0.7,13.1-5.2c6.3-3.6,11.8-6.6,12.1-6.6s0.5,1.2,0.5,2.6
		c0,2-0.4,2.4-1.8,2c-2.1-0.7-3.2,1.4-11.1,21.4c-9,22.9-13,36-15.6,51.5c-4,23.8-9.3,37.9-22.2,59.5l-7.4,12.5l-15.1,10.9
		c-9.8,7.1-15.3,10.5-15.7,9.7c-0.4-0.6-1.8-4.6-3-8.9l-2.2-7.8l21.9-44.1c12.1-24.2,23.8-46.8,26.1-50.2s7.7-9.9,11.9-14.4
		s9.1-10,10.8-12.2c3.5-4.5,9.4-14.7,9.4-16.2c0-0.9-5-3.7-5.5-3.1c-0.1,0.2-1.7,2.5-3.5,5.3c-9.4,14-23.4,28.6-34.3,35.8
		c-15.3,10.1-32.3,15.6-50.8,16.5l-11.5,0.5l-4.4-12.4c-5.3-15.2-6-16.7-10.2-20.8c-7.7-7.7-13.3-7.9-43.3-1.6
		c-31.8,6.7-29.7,6.7-35.1,1.4c-7.3-7.1-14.9-17-18.2-23.4c-3-6.1-12-33.3-16.6-50.5c-3.5-13-5.6-27.7-5.5-39v-9.5l4.5,8.9
		c4,7.7,4.8,8.7,6.7,8.2c1.2-0.3,2.8-0.6,3.5-0.6c1.5,0,1.6-6.8,0.1-17.9c-0.7-5.2-0.8-8.6-0.2-9.2c1.4-1.4,7.7-2.3,10.7-1.5
		l2.4,0.6l-2.8,5.7c-3.1,6.4-5,14.2-5,20.7c0,5.1,2.9,22.4,4.1,24.7c0.6,1.1,7.3,3.2,21.1,6.7c23.5,5.9,20.9,6.4,29-5.8
		c2.7-4.1,5.1-7.6,5.2-7.7c0-0.1-0.1,3.4-0.2,7.6c-0.4,7.8-0.4,7.8,2.3,8.5c1.6,0.4,3.2,0.3,3.7-0.2c0.4-0.4,3.5-7.4,6.7-15.4
		c7.5-18.3,13.4-30.1,17.7-35.5c6.1-7.5,34.5-31.3,58-48.5c6.5-4.9,13.9-10.8,16.4-13.2C533.5,255.2,535.8,253.2,536.2,253.1z"/>
	<path id="path18" fill="#FFDEAD" d="M393.7,265h6.5l-0.5,2.7c-1,5.9-5,20.8-5.7,21.6c-1,1.1-21-0.3-21-1.4s8.6-15.6,11.6-19.7
		C387,265.2,387.4,265,393.7,265z"/>
	<path id="path20" fill="#FFDEAD" d="M376,266.4c0,0.7-8.1,14.6-8.5,14.6c-1,0,4-12.7,5.3-13.8C374.3,266,376,265.6,376,266.4z"/>
	<path id="path22" fill="none" d="M409.5,267c1,0,0.5,1.6-1.1,3.6c-0.8,1-1.4,1.4-1.1,0.9c0.2-0.6,0.7-1.8,1-2.8
		C408.7,267.8,409.2,267,409.5,267z"/>
	<path id="path24" fill="#FFDEAD" d="M420.7,268.4c0.8,0.3,2,0.6,2.6,0.6c3.8,0.1,3.9,1.4,0.8,17.1c-1.7,8.4-3.1,15.5-3.1,15.6
		c0,0.8-2.5,0-8.4-2.7c-3.6-1.7-6.6-3.5-6.6-4c0-1.5,4-10.3,8.7-18.8C417.9,270.2,419.6,268,420.7,268.4z"/>
	<path id="path26" fill="#FFA500" d="M361.4,271.2c-0.4,1.3-1.7,5.8-2.9,10c-2.9,10.2-4.6,12.5-11.1,15.4c-6.6,2.9-8.3,5.7-6.6,11.1
		c1.1,3.6,0.9,4.2-6,17.1c-4.8,9-7.5,13.1-8.5,12.8c-0.9-0.4-1.3,0.4-1.3,2.8c0,3.1-2.5,10.6-3.5,10.6c-0.2,0-0.2-1.2,0-2.8
		c0.3-1.5,1.4-8.3,2.5-15.2c2.6-15.4,4.8-25.2,10.1-44.2l4.2-14.6l9.6-2.5C360.6,268.4,362.4,268.3,361.4,271.2z"/>
	<path id="path28" fill="#FFDEAD" d="M439.4,273l2.5,0.9l-4.6,8.1c-6.8,12-7.4,11.8-4.7-1.8C434.3,271.7,434.8,271.2,439.4,273z"/>
	<path id="path30" fill="#D2691E" d="M290.5,285.2c0.2,0.2-0.2,4.6-1,9.8c-2.5,16.2-3.8,39.8-3.2,56c0.8,18.8,4,38.5,13.3,81.5
		c8.3,38.6,8,36.5,6.2,36.5c-1,0-2.5-3.5-4.6-10.8c-9-31-15.2-61.9-21.2-105.4c-1.6-11.4-3.1-21.2-3.5-21.8c-0.4-0.6,0-3.2,0.9-5.8
		c0.8-2.6,4-12.7,7.1-22.5C287.6,292.9,290.3,285,290.5,285.2z"/>
	<path id="path32" fill="#1E90FF" d="M221.6,296c0.6,0,1.6,1.1,2.2,2.5c1.1,2.5,1.1,2.5-3.2,2.5c-8,0-21.4,3-33.3,7.4
		c-6.5,2.4-12.7,4.6-13.8,5c-1.9,0.7-1.9,0.7-0.2-0.7c1.7-1.4,18.8-7.6,37.7-13.6C216.2,297.4,221,296.1,221.6,296z"/>
	<path id="path34" fill="none" d="M438,298.1c-0.7,1.1-1.4,1.8-1.7,1.5c-0.3-0.3,0-1.2,0.7-2.1C438.8,295.4,439.3,295.6,438,298.1z"
		/>
	<path id="path36" fill="#D2691E" d="M322.8,297.4c0.2,0.3-0.1,2-0.6,3.8c-1.6,5-6,27.9-7.8,40.3c-1.9,13.7-3,70.3-1.2,64.2
		c0.6-2,1.5-3.7,1.8-3.7c1.4,0,9.1,30.3,11,43.1c2.9,19.4,3.1,18.3-3.6,19.8c-3.1,0.7-6,0.9-6.4,0.4c-1.1-1.2-10.4-39.3-13.9-57
		c-4.4-22.1-8.1-52.1-8.1-65.6c0-3.2,0.3-3.7,1.8-3.3c1.5,0.5,4-3.2,14.2-20.9C316.7,306.7,322.5,297.2,322.8,297.4z"/>
	<path id="path38" fill="none" d="M433.6,308.1c1.8,1.5,1.8,2.9,0,2.9s-2.9-1.7-2.1-3C432,307.2,432.6,307.3,433.6,308.1z"/>
	<path id="path40" fill="#FFA500" d="M527.6,307.4c0.9,0.3,2,0.6,2.5,0.6s0.9,0.4,0.9,0.9c0,1.1-10.2,14.3-10.6,13.8
		c-0.2-0.2,0.7-3,2-6.3c1.2-3.2,2.6-6.7,3-7.8C525.8,307.5,526.6,307,527.6,307.4z"/>
	<path id="path42" fill="#1E90FF" d="M229.7,311.1c8,3.9,8,3.9,6.7,25.5c-0.7,10.4-1.3,21.4-1.3,24.3c-0.1,3.2-0.5,5.1-1,4.5
		c-0.4-0.5-2.5-5.4-4.6-10.9c-5.3-13.9-7.7-18.4-16.1-30.7c-4-5.8-7.5-11.2-7.6-11.9c-0.2-0.7,1-1.6,2.7-2
		C215.2,308.4,225.2,308.9,229.7,311.1z"/>
	<path id="path44" fill="#1E90FF" d="M202.1,312.1c1.1-0.1,2.3,1.6,3.4,4.6c1,2.7,4.6,11.7,8.1,20.2s6.3,15.5,6.1,15.6
		c-0.1,0.1-4.5,1-9.8,1.8c-18.2,3.1-33.9,10.4-54.9,25.5c-5.8,4.2-14.5,11.6-19.5,16.4c-4.9,4.8-9.1,8.8-9.2,8.8
		c-0.2,0,0.3-1.6,1.1-3.5s4.7-7.1,8.6-11.6c15.2-17.3,20.7-26.8,26-45.4c2.8-9.4,5.2-15.8,6.6-17.4c0.2-0.3,1.1,0.4,1.9,1.5
		c1.3,1.8,1.4,1.7,1.5-1.7c0-4.7,1.5-5.7,16.6-10.7C195.1,314,201.2,312.1,202.1,312.1z"/>
	<path id="path46" fill="#800080" d="M386.3,313c4,0,35.7,9.6,37.5,11.3c1,1.1,0.9,2.9-0.3,9.6c-2,10.4-4.7,17.7-8.5,22.9
		c-4.7,6.5-5,6.5-20.9,2.8c-7.8-1.8-14.6-3.7-15.2-4.3c-1.8-1.8-4.1-15.6-3.5-21.4c0.7-6.7,3.1-14.3,5.8-18.2
		C382.6,313.7,384,313,386.3,313z"/>
	<path id="path48" fill="#FFA500" d="M584.2,329c0.6,0,0.7,0.9,0.3,2.2c-0.3,1.3-1.4,5-2.3,8.3c-2.2,8.2-2.8,5.1-0.7-3.5
		C582.4,332.1,583.7,329,584.2,329z"/>
	<path id="path50" fill="#FFDEAD" d="M594.1,335.2c0.2,0.7,0.2,7.7-0.1,15.5l-0.5,14.2l-4.6-3.5l-4.7-3.4l1.3-4.3
		c2-6.2,4.5-13.8,5.7-17C592.3,333.8,593.6,333.2,594.1,335.2z"/>
	<path id="path52" fill="#D2691E" d="M338.3,335.5l1.3,10c2.1,15.7,7.8,39.1,14.4,57.9c3.8,11.1,2.3,9-7.8-10.4
		c-8.2-15.7-14.5-30.6-15.7-37c-0.5-2.9,0.2-5.1,3.6-12L338.3,335.5z"/>
	<path id="path54" fill="#1E90FF" d="M271.5,348.2c0.2,0.2,1.5,8.6,3,18.8c1.4,10.2,3.7,25,5.1,32.9c2.9,17.1,2.9,19.5,0.3,12
		l-2-5.7l-3.5,0.8c-2,0.5-3.7,1-3.8,1.2c-0.1,0.1,0.1,4.6,0.5,9.8c0.4,5.2,0.8,15.6,0.8,23c0.1,11.8,2,28.9,3.6,33.2
		c0.5,1.1-0.5,1.8-3.5,2.6c-3.1,0.7-4.2,0.7-4.5-0.1c-0.2-0.7-1.2-7.1-2.2-14.2c-2.2-16.1-2.5-61.2-0.5-77.5
		c1.4-11.1,4.9-32.2,5.8-35.3C270.9,348.7,271.3,348,271.5,348.2z"/>
	<path id="path56" fill="#FFA500" d="M709.5,355.2c0.2,0.2,3.1,4.7,6.4,10.2l6.2,9.8l-2.1,18.7c-3.4,30.9-5.8,47.8-9,64.1
		c-5.5,28.1-8.5,35.3-7.4,18c0.5-6.3,0.2-14.4-0.6-21.3c-1.2-10.8-1.2-11.7,1.3-24.2c5.3-26.2,6.4-33.7,5.3-34
		c-4.9-1.5-6.5-1.4-7,0.2c-0.2,1-2.8,13.7-5.6,28.3c-5.7,29.4-11.4,54.3-13.1,56.8c-0.9,1.5-1,1.4-0.4-0.3c0.4-1.1,1-9.4,1.5-18.5
		c0.6-12.3,1.3-17.9,2.7-22c3.8-10.4,3.7-10.7-0.2-12.1c-2.6-1-3.4-1.8-2.9-2.9c5.1-12.7,11.6-30.8,17.4-48.8
		C706,364.9,709.4,355,709.5,355.2z"/>
	<path id="path58" fill="#4169E1" d="M218.7,361.1l4.2-0.1l5.4,10.4l5.5,10.5l0.9,14.3c0.6,7.9,0.9,14.5,0.7,14.7
		c-1.3,1.5-17.1-13.9-22.5-21.8c-1.9-2.8-3.6-5.1-3.9-5.1s-1.6,0.9-2.9,1.9l-2.5,1.9l3.5,5.8c4.7,7.9,14.9,18.7,22.5,23.5
		c7.3,4.8,7.4,4.9,10.3,22.5c2.3,13.2,5.7,26,9.6,35.6c1.4,3.4,2.4,6.2,2.2,6.3c-0.1,0.1-9.9,2.6-21.7,5.5
		c-23.2,5.7-25.2,6.4-29,10.4c-1.9,2.1-2.5,4-2.8,8.9c-0.4,6.8-1.8,1.5,21.4,80.4c6.8,23.2,12.4,42.4,12.4,42.7
		c0,0.7-8.2-1.4-11.2-3c-11.3-5.8-25.8-28.3-50.4-78.2c-6.9-13.8-12.9-25.2-13.5-25.2s-2.4,0.8-3.9,1.7l-2.9,1.7l13.9,27.5
		c7.7,15.2,18.7,35.5,24.4,45.1l10.4,17.5l-3.8,1.7c-6.8,2.9-8.7,10.4-5.3,20.4c2.1,6.3,5.8,11.7,12,17.6l5,4.6l-3,0.6
		c-1.6,0.3-4.7,0.6-6.9,0.6c-5,0-15,2.5-20,5.1c-2.1,1.1-6.8,4.5-10.5,7.7c-10.8,9.2-15.2,11.8-36.1,21.3c-10.8,5-20.1,9.4-20.5,9.8
		c-0.8,0.8,1.7,7.1,2.8,7.1c0.2,0,8.4-3.6,18.1-8c20.7-9.4,30.7-15.2,40.7-23.4c8.9-7.2,13.4-9.3,22.8-10.5
		c12.9-1.7,24.5-2.3,23.4-1.3c-0.5,0.5-3.8,3-7.2,5.5c-3.4,2.6-9.5,8.1-13.5,12.3l-7.3,7.6l-11.2-0.6c-15.3-0.8-23.9,0.5-33.8,5.4
		c-9.2,4.4-14.1,9.1-35.9,34L95,749.5v5.3c0,5.1-2.7,11.2-4.9,11.2c-1.2,0-9.5-10.9-11.8-15.5c-6-12-4.2-16.9,14.1-37.7
		c7.9-9,23.4-25.9,34.4-37.6c21-22.1,31.4-34.5,39.9-47.2c5.4-8.2,13.8-22.9,13.2-23.4c-0.2-0.1-1.8-1.2-3.6-2.5l-3.2-2.2l-4,7.8
		c-5.4,10.8-14.3,24.1-23.4,35c-10.1,12.2-32.7,35.5-34,35c-0.6-0.2-1.5-2.1-2.2-4.3c-0.6-2.2-3-8.1-5.3-13.1
		c-7.3-15.7-7.5-20-2.2-50.8c1.6-9.4,4.5-28.5,6.5-42.5c8.6-61,15.5-88.6,33-132.6c4.1-10.3,7.5-19.3,7.5-20c0-1.3-5.7-3.7-6.9-2.9
		c-0.4,0.2-4.3,9.8-8.7,21.4c-4.3,11.6-8.2,21.1-8.6,21.1c-1.1,0-2.1-10.8-1.6-19.3c0.7-12.9,3.4-17.8,17.7-31.8
		c10.6-10.3,25.4-21.9,26.5-20.8c1,0.9-5.7,19-10.4,28.4c-6.4,12.9-8.4,20.7-7.7,30.5c0.6,8.4,2.2,13.8,7.7,25.5l3.8,8l0.1-8.5
		c0.1-5.4-0.7-12-2.1-18.2c-3-13.4-2.1-18.5,6.6-36.1c5.9-12,9-21.3,11-32.9c0.7-3.6,1.1-4,9.9-8.2c10-4.7,16.8-7.2,23.8-8.5
		C212.5,361.6,216.4,361.2,218.7,361.1z M151.1,482.9c-1.7,1.1-1,5.5,2.6,16.6c7.6,23.3,23.9,50,34.6,56.8
		c10.1,6.4,13.2,8.1,12.1,6.7c-23.8-31.1-33.5-47.8-40.9-70.5C156.2,482.3,154.7,480.6,151.1,482.9z"/>
	<path id="path60" fill="#FFA500" d="M325.5,366.1c0.2,0.2,1.9,4.2,3.8,8.9c2,4.7,5.6,12.9,8.1,18.2c2.5,5.4,4.2,9.9,3.8,10.2
		c-2,1.2,1.7,26.8,7.1,48.9l1.5,5.8l-2.6,1c-1.4,0.5-2.8,0.6-3.2,0.2c-1-1.1-18.6-51.6-20.6-59.1c-1.6-5.8-1.9-6.3-4.1-5.9
		c-1.2,0.2-2.3,0.1-2.3-0.3c0-0.7,1.8-7,5.6-19.9C324,369.6,325.3,366,325.5,366.1z"/>
	<path id="path62" fill="#800080" d="M531.9,366h9.3c15.2,0,31.4,4.7,35.2,10.1c2,2.9,2.1,11.4,0.2,18.8c-2.7,9.9-9,16.7-19.1,20.5
		l-4.6,1.8l-11-5.3c-6-2.9-11.4-5.8-11.9-6.4s-1.4-5.2-2.1-10.2c-1.2-9.7-0.3-19.1,2.6-26L531.9,366z"/>
	<path id="path64" fill="#191970" d="M587,384.5c1.6,1,1.2,6.9-0.6,9.1c-1.4,1.7-1.5,1.7-1,0.1c0.3-1,0.6-3.7,0.6-5.8
		C586,385.5,586.4,384.1,587,384.5z"/>
	<path id="path66" fill="#FFA500" d="M729.5,387c0.3,0,4.4,7.9,9,17.5c4.7,9.6,8.7,17.5,8.9,17.5c0.3,0,1-1.8,1.6-4
		c1.2-4.5,2.2-5,3.8-1.8c0.9,1.8,0.7,7.7-1.1,26.8c-1.3,13.5-2.6,23.4-3,22c-0.3-1.4-1.8-7.7-3.3-14s-5.8-20.5-9.5-31.5
		c-5.7-16.4-6.9-21.1-6.9-26.2C729,389.8,729.2,387,729.5,387z"/>
	<path id="path68" fill="#FFA500" d="M615,398.2c0,0.2-1.6,4.3-3.5,9.3l-3.4,9l-0.1-7.7c0-7.4,0.1-7.7,2.8-9.1
		C613.4,398.3,615,397.7,615,398.2z"/>
	<path id="path70" fill="#FFA500" d="M350.6,420c0.1,0,3.4,5.3,7.2,11.7c3.8,6.5,8.9,13.9,11.2,16.5c4.6,5.3,4.8,5-4.8,7.1
		c-4.8,1.1-6.5,1.2-6.8,0.3c-0.2-0.6-1.9-8.9-3.8-18.4C351.8,427.7,350.4,420,350.6,420z"/>
	<path id="path72" fill="#DAA520" d="M681.7,433.3c0.1,0.1-1.5,4.7-3.5,10.2c-2.9,7.8-3.8,9.4-4,7.2c-0.2-1.8,1.1-5.5,3.5-10.2
		C679.7,436.4,681.6,433.2,681.7,433.3z"/>
	<path id="path74" fill="#1E90FF" d="M283.5,447.8c1.6,5.1,1.8,5.3,4.5,4.7c3.4-0.7,4.2,0.4,5.9,8.5c0.7,3,1.4,6.5,1.7,7.7
		c0.7,2.5-0.9,3.4-7.7,4.7c-3.7,0.6-3.7,0.6-5.4-4.1c-1-3-1.9-9.3-2.2-16.8C279.7,439.6,280.5,438.5,283.5,447.8z"/>
	<path id="path76" fill="#1E90FF" d="M378.9,446.9c3,3.4,3.2,5.1,0.6,5.1c-0.7,0-1.6-1.1-1.9-2.4s-0.9-3.2-1.2-4.3
		C376.1,444.3,377.1,444.9,378.9,446.9z"/>
	<path id="path78" fill="#66CDAA" d="M449.7,446.1c5.2-0.1,6.6,0.3,9.1,2.4c4.1,3.5,5.5,7,19.7,52c23.5,74.3,26.6,84.8,25.3,85.7
		c-0.9,0.5-2-0.1-3.3-1.9c-1.1-1.6-4.5-5.3-7.5-8.4c-8.3-8.3-18.7-11.3-24.2-6.9c-3.3,2.5-3.9,5.9-2.3,12.9s3.8,24.1,3.3,24.7
		c-0.3,0.2-4.2-0.6-8.8-1.7c-8.6-2.2-13-1.8-17.1,1.4c-5.2,4.2-31.9,42.9-31.9,46.4c0,2.9-2.4,2.1-7.8-2.5c-8-6.8-9.9-8-25.7-16.1
		c-12.7-6.6-14.4-7.2-18.4-6.7c-5.5,0.7-12.9,4.7-17.7,9.7l-3.7,3.8l-6.9-6.4L325,628h-7c-4.6,0-8.8-0.7-12.2-2
		c-7.5-2.8-10.6-2.5-19.4,2s-9.6,4.6-19,2.4c-4.1-0.9-10.5-1.4-16.8-1.3c-9.8,0.2-10,0.1-10.7-2.2c-0.4-1.3-7.9-27-16.8-57.1
		c-8.8-30.1-16.4-56.4-16.9-58.5c-1.1-4.9,0.2-8.7,3.4-10.2c5.9-2.6,105.9-26.4,179.9-42.7c23.7-5.2,45.5-10,48.5-10.8
		C441,446.8,446.3,446.2,449.7,446.1z"/>
	<path id="path80" fill="none" d="M666,471.5c0,2.5-0.4,4.5-1,4.5c-1.1,0-1.4-4.9-0.4-7.4C665.6,466,666,466.8,666,471.5z"/>
	<path id="path82" fill="#4169E1" d="M651.1,474c0.3,0,4,3.5,8.1,7.8c6.1,6.3,7.9,8.8,9.2,13.2c0.9,2.9,1.6,6.4,1.6,7.6
		c0,1.3-2.2,8.7-4.8,16.6c-6.8,19.9-6.7,19.1-3.4,21l2.8,1.7l2.8-4.5c1.6-2.5,3-4.3,3.2-4.1c0.7,0.6-3.4,15.4-5.1,18.6
		c-1.8,3.6-2.6,3.7-6.2,1.3c-2.4-1.5-6-1.7-28.5-2.1c-14.2-0.2-25.8-0.6-25.8-1s1.1-3.9,2.4-7.8c6.1-17.9,18.7-39.1,34.6-58.1
		C646.7,478.6,650.8,474,651.1,474z"/>
	<path id="path84" fill="#FFA500" d="M537.7,476.4c0.6,0.6-34.6,70.6-35.6,70.6c-1.1,0-2.7-4.2-4.2-11.3c-1.4-6.4-0.2-17.6,2.7-26.1
		c1.8-5.3,8.3-11.6,25.7-25.1C532.3,479.8,537.5,476.1,537.7,476.4z"/>
	<path id="path86" fill="#1E90FF" d="M500.8,494.7c-1.4,1.6-3.5,4.4-4.7,6.3c-1.1,1.9-2.1,2.9-2.1,2.1c0-2,3.8-7.9,6.3-9.6
		C503.5,491.3,503.7,491.7,500.8,494.7z"/>
	<path id="path88" fill="none" d="M488.1,495c0.6,0,0.7,0.4,0.4,1c-0.3,0.5-1.1,1-1.6,1c-0.6,0-0.7-0.5-0.4-1
		C486.8,495.4,487.6,495,488.1,495z"/>
	<path id="path90" fill="#4169E1" d="M603.7,513.4c0.2,0.2-1.7,8.9-4.3,19.4l-4.6,19l-7.6,1.7c-10.8,2.3-10.2,1.9-9.2,5.6
		c0.5,1.7,1.1,3.4,1.4,3.6c0.2,0.2,3,0,6.2-0.6c7.9-1.5,7.7-1.6,7.2,2.9c-0.2,2.3,0.1,4,0.7,4c2.3,0,7.5-4.1,7.5-5.9
		c0-3.9,1.9-4.2,25.1-4c21,0.2,32.9,1.2,32.9,2.7c0,0.4-0.9,1.8-1.9,3.2c-1.8,2.2-2.2,2.3-4.8,1.1l-2.8-1.3l2.2,2.4l2.2,2.3
		l-10.4,16c-8.8,13.5-22.6,31.2-24.6,31.4c-0.3,0.1-1.2-1.2-2-2.7l-1.4-2.9L589,623.6c-14.6,6.8-26.8,12.3-27.1,12.3
		c-0.3,0.1-1.1-1.7-1.8-4c-0.8-2.7-3.6-6.6-8.5-11.7c-6.6-7-7.4-8.3-8.4-13.6c-0.7-3.3-2.1-7.5-3.2-9.4c-2.4-4-3.4-2.2,8.6-15.7
		c13.3-14.9,33.9-40.1,44.4-54.3C598.7,519.5,603.6,513.2,603.7,513.4z"/>
	<path id="path92" fill="#5F9EA0" d="M487.7,581.9c7.7,7.8,9.7,12.7,10.1,24.8l0.4,10.3l-9.3-3.3l-9.3-3.2l-3.1-17.3
		c-1.7-9.5-2.9-17.4-2.7-17.7C475.6,573.7,482.8,577,487.7,581.9z"/>
	<path id="path94" fill="none" d="M525.8,578.5c0.8,0.8-2.5,4.5-4,4.5c-2.6,0-2.2-1.3,0.9-3.2C524.2,578.9,525.6,578.3,525.8,578.5z
		"/>
	<path id="path96" fill="#4169E1" d="M663.4,581c0.3,0,1.4,1.5,2.5,3.4c3.1,5,2.7,7.6-2.1,12.3c-4.1,3.8-53.9,45.3-60.3,50l-3,2.3
		l3.2,2.9l3.2,3l-1.8,5.3c-1.1,2.9-4.1,10.5-6.9,16.8c-5.5,12.8-7.6,18.9-6.9,19.6c0.7,0.8,7-2.1,8.3-3.7
		c2.1-2.6,10.4-21.9,13.5-31.2c1.7-5,4.4-11.2,6-13.8c2.6-4.2,15.5-15.6,16.5-14.7c0.2,0.3-2.4,8.8-5.9,18.9
		c-6.3,18.6-6.6,19.2-10.7,17.5c-1.1-0.5-2.7,1.6-6,8.1c-10.8,21.2-20.5,39.3-21,39.3c-0.3,0-1.8-3.2-3.4-7c-2-5-2.6-7.8-2.1-9.7
		c1.5-5.9,1.7-11.5,0.5-14.4c-1.8-4.1-6.5-7.8-11-8.5c-3.4-0.6-4.2-1.2-6-4.8c-1.1-2.4-2-6.1-1.9-8.7v-4.4l14.7-7.2
		c20.5-10.1,36.3-22.5,53.1-41.8l5.2-6l-3.5,7.2c-2,4-3.6,7.5-3.6,7.9c0,0.3,3.2-2.3,7-5.7c7.2-6.4,12.1-13.2,18.4-25.7
		C661.4,584.2,663.2,581,663.4,581z"/>
	<path id="path98" fill="#1E90FF" d="M506,589.9c1.2,2.4,1.3,7.4,0.1,6.7c-0.5-0.3-1.1-1.6-1.4-2.8c-0.2-1.3-0.8-3.1-1.2-4.1
		C502.5,587.3,504.7,587.5,506,589.9z"/>
	<path id="path100" fill="#5F9EA0" d="M527.1,594.7c6.9,6.2,7.9,9.3,7.9,24.3c0,7.1-0.4,13-0.9,13s-1.4-0.7-2.2-1.6
		c-1.6-2-8.3-5.4-10.6-5.4c-2.8,0-8.7-1.8-10.6-3.2c-1.6-1.2-1.5-2.2,1.2-13.6c2-8.8,3.4-12.9,5.1-14.7
		C520.2,590.1,522.3,590.4,527.1,594.7z"/>
	<path id="path102" fill="#3CB371" d="M452.6,611c1.6,0,47.6,15.9,48.3,16.7c0.4,0.3,0,0.8-0.7,1c-0.6,0.3-1,0.8-0.7,1.3
		s-11.2-3.1-25.5-7.8c-22.2-7.4-25.8-8.9-24.3-9.9C450.6,611.6,451.9,611,452.6,611z"/>
	<path id="path104" fill="#3CB371" d="M443.1,620.5l31.9,10.6c21.3,7.2,32,10.3,32.3,9.6c0.3-0.8,0.9-0.6,1.8,0.5
		c0.8,1,4.3,3.7,7.8,6.2c18.4,12.7,37,37,52.1,68.1c6.3,12.9,9.4,20.8,14,35c3.1,9.5,8,28.9,8,31.5c0,1.6-40.1,31.2-42.5,31.4
		c-0.7,0-6.1-6.9-12-15.4c-28.3-40.7-50.6-67.1-93.6-110.5l-25.8-26l5.2-10.1c2.9-5.5,8.7-14.7,13-20.5L443.1,620.5z"/>
	<path id="path106" fill="#1E90FF" d="M614,621.4c0,1.1-15.1,12.2-25.3,18.5c-6.2,3.9-13.4,9.3-16.2,12.1c-2.7,2.7-5.2,5-5.6,5
		c-0.4,0-1.9-2-3.3-4.4c-1.9-3.3-2.4-5.1-1.9-8s0.8-3.3,1.7-2.1s4.7-0.2,25.6-9.9C616.5,619.7,614,620.9,614,621.4z"/>
	<path id="path108" fill="none" d="M648,625c0,2.2-0.1,2.3-2.4,1.4c-1.3-0.5-1.4-0.9-0.5-2C646.7,622.4,648,622.7,648,625z"/>
	<path id="path110" fill="#5F9EA0" d="M543.9,624c1.4,0,5.9,5.5,8,9.7c1.2,2.3,2.1,6,2.1,8.1c0,4.4-1.7,10.2-3.1,10.2
		c-0.5,0-2.7-2.3-4.9-5.1c-3.5-4.5-4-5.7-4-10.2c0-2.9,0.3-6.9,0.6-9C543,625.7,543.6,624,543.9,624z"/>
	<path id="path112" fill="#1E90FF" d="M209.9,630.5c9.4,4.3,19.4,7.5,23.7,7.5c1.2,0,2.5,0.6,2.7,1.2c0.4,1,0.8,1,1.5-0.1
		c1.8-2.5,29.2-2.7,29.2-0.2c0,0.4-1.9,2.2-4.2,3.9c-2.4,1.7-6.3,5-8.8,7.3c-3.8,3.6-6,4.7-14.5,7.1c-16.1,4.5-20.9,3.6-31.1-5.5
		c-7-6.4-13.7-19.9-12-24.3C197.3,625.2,199.8,625.7,209.9,630.5z"/>
	<path id="path114" fill="#008B8B" d="M510,630.5c3.5,1.4,7.8,2.5,9.5,2.5c3.8,0,4.5,0.7,26.4,24.8c9.1,10.1,18.1,20.9,20,24
		c4.6,7.7,13,25.4,17.9,37.7c8.4,21.1,18,55.1,16.2,56.9c-0.5,0.5-1.1,0.8-1.3,0.5c-0.2-0.2-2.3-7.8-4.6-16.9
		c-5.1-19.9-9.3-31.6-17.1-47.5c-11.5-23.5-32.3-53.6-43.3-62.7c-3.6-2.9-11.9-8.5-18.6-12.3c-6.6-3.9-12-7.6-12.1-8.3
		C503,627.7,502.5,627.6,510,630.5z"/>
	<path id="path116" fill="#1E90FF" d="M646.6,629.2c0.6,0.6-5.6,28.6-8.6,38.7c-1.7,5.8-4.7,14.4-6.6,19.1c-3.8,9-11.3,23.4-12,22.7
		c-0.4-0.3,10.7-34,22.3-67.5C644.2,634.9,646.4,629.1,646.6,629.2z"/>
	<path id="path118" fill="#4169E1" d="M297.2,632c0.9,0,3.8,1,6.5,2.1c3.3,1.5,6.8,2.2,11.5,2.2c6.6,0,6.7,0.1,11,4.4
		c4.2,4.3,4.2,4.5,2.3,5.9c-14.6,10.8-17.7,14.5-17.3,20.9c0.1,3.6-0.4,4.6-4.5,8.9c-6,6.1-13.9,18.1-16.8,25.4
		c-1.2,3.1-2.3,5.8-2.4,5.9c-0.2,0.3-45-8.6-46.9-9.3c-2.8-1.1-2.9-5.1-0.6-12.4c4.5-14.1,15.8-29,25-32.9c2.7-1.2,5-2.4,5-2.7
		c0-0.4-0.7-0.4-1.5,0c-0.8,0.3-1.5,0.2-1.5-0.2c0.1-1.3,11.5-9,20.1-13.7C291.7,634.1,296.3,632,297.2,632z"/>
	<path id="path120" fill="none" d="M352.3,641c-3.6,2.5-4.3,2.8-2.8,1c1.1-1.2,3.4-3.1,5-4.1C360.3,634.3,358.9,636.3,352.3,641z"/>
	<path id="path122" fill="#1E90FF" d="M375.3,641.7c1.7,0.8,2.6,2,2.4,2.8c-1,2.4-7.9,11.5-8.8,11.5c-1.7,0-12.4-6.1-12.4-7
		c0-0.5,2.7-2.9,6-5.4C368.7,639,369.7,638.8,375.3,641.7z"/>
	<path id="path124" fill="#1E90FF" d="M386.3,647c1,0,8.1,4.9,11.8,8.2c16.6,14.7,18.5,17.1,10,12.9c-7.2-3.7-12.5-4-18.2-1.1
		l-4,2.1l-5.2-2.8c-3.3-1.8-5.2-3.5-5.1-4.5c0.1-0.9,2.3-4.6,5-8.2C383.2,649.9,385.8,647,386.3,647z"/>
	<path id="path126" fill="#1E90FF" d="M344,654.1c1.7-0.2,5,3.3,4.5,4.8c-0.4,1.2,2.4,3.9,10.5,10.1c6,4.7,10.9,8.8,11,9.2
		c0,0.6-4.8,4-13.5,9.6c-4.8,3-3.9,3.4-20.5-9.4c-4.9-3.8-8.9-7.5-8.9-8.2c-0.1-2.4,5.1-8.3,10.8-12.2
		C341,655.8,343.7,654.1,344,654.1z"/>
	<path id="path128" fill="none" d="M326,659.3c0,0.2-1.5,1.6-3.2,3.3l-3.3,2.9l2.9-3.3C325.2,659.2,326,658.5,326,659.3z"/>
	<path id="path130" fill="none" d="M558.4,659c0.3,0,0.8,0.4,1.1,1c0.3,0.5,0.1,1-0.4,1c-0.6,0-1.1-0.5-1.1-1
		C558,659.4,558.2,659,558.4,659z"/>
	<path id="path132" fill="#1E90FF" d="M240,666.4c0,0.2-1.1,2.3-2.5,4.8c-4,7.2-7.5,17.5-7.5,22.3c0,4.3-0.1,4.4-2.7,4
		c-1.6-0.2-8.1-0.7-14.5-1.1c-6.5-0.3-11.8-0.9-11.8-1.4c0-2.2,15.8-15.1,28-22.9C237.8,666.6,240,665.4,240,666.4z"/>
	<path id="path134" fill="#3CB371" d="M397,672.1c2.1-0.1,4.7,1.8,16.5,11.7c20.5,17.4,74.6,74,71.7,75c-0.9,0.3-48.8-4-58.9-5.4
		c-3.5-0.4-4.5-1.1-6-3.9c-5.7-10.7-45.7-49.1-56-53.8c-1.3-0.6-2.3-1.3-2.3-1.6c0-0.6,14.4-10,28-18.5
		C393,673.7,396.2,672.2,397,672.1z"/>
	<path id="path136" fill="#1E90FF" d="M315.3,688c0.1,0,3.1,0.9,6.5,2c3.5,1.1,7.5,2,8.9,2c3.2,0,14.1,8.7,11.6,9.2
		c-1.3,0.2-0.8,0.9,2,2.5c2.2,1.3,3.7,3,3.7,4.1c0,1.8-0.2,1.8-5.7-0.1c-8-2.7-18-1.9-29.2,2.2c-10.3,3.8-11.4,3.9-10.6,0.8
		c1.2-4,6.4-14.2,9.5-18.5C313.6,689.9,315.1,688,315.3,688z"/>
	<path id="path138" fill="#008B8B" d="M358.6,703c2.8,0,8.6,4.3,22.9,17c12.6,11.2,24.4,23.2,28.3,28.7l2.3,3.3h-2.9
		c-2.6,0-3.4-0.8-6.8-6.6c-7-12-28.3-32.6-40.6-39.4C358.2,704,357.2,703,358.6,703z"/>
	<path id="path140" fill="#008B8B" d="M102.8,753.4c0.6,0.6-2,9.6-2.8,9.6c-0.4,0-1.3-0.7-2-1.5c-0.9-1.1-0.6-2.1,1.6-4.9
		C101.2,754.7,102.6,753.2,102.8,753.4z"/>
	<path id="path142" fill="#008B8B" d="M399.6,759.4c2.2,0.3,9.8,1,16.9,1.6c13.7,1.1,61,5.7,68.2,6.6c3.9,0.5,7.2,2.4,4.1,2.4
		c-1.4,0-47.2-4.5-56.8-5.6c-3-0.4-12.2-1.2-20.4-1.8c-10.9-0.8-15.1-1.5-15.4-2.5S396.6,758.9,399.6,759.4z"/>
	<path id="path144" fill="#008B8B" d="M507.9,773.7c12.7,15.9,29,38.3,27.8,38.3c-0.3,0-24.3-29.4-29.9-36.7
		c-0.6-0.7-0.6-1.7-0.2-2.4C506.1,772.1,506.8,772.3,507.9,773.7z"/>
</g>
</svg>
