<?xml version="1.0" encoding="utf-8"?>
<!-- Generator: Adobe Illustrator 21.0.0, SVG Export Plug-In . SVG Version: 6.00 Build 0)  -->
<svg version="1.1" id="图层_1" xmlns="http://www.w3.org/2000/svg" xmlns:xlink="http://www.w3.org/1999/xlink" x="0px" y="0px"
	 viewBox="0 0 850 850" style="enable-background:new 0 0 850 850;" xml:space="preserve">
<g transform="translate(0.000000,0.000000) scale(1.00000,1.00000)">
	<path d="M291.2,1.1c6.6,1.4,31.3,12.8,39.3,18.2c7.2,5,21.2,18.9,28.3,28.3c2.9,3.8,7.6,11.5,10.5,17.2c5.1,10.1,5.3,10.3,8.2,9.8
		c20.8-3.5,32.2-3.1,46.4,1.7c6.9,2.3,7.7,2.4,12.5,1.1c6.7-1.8,23.3-1.7,32,0.1c3.8,0.8,9.7,2.8,13.1,4.3l6.1,2.9l4.7-9.1
		c8-15.3,23.9-31.9,38.8-40.4C543.8,28,559.7,24,583.4,22c11.4-1,14-0.9,14.8,0.2c1.7,2.4,0,34.3-2.4,44.1c-1.2,4.8-1.9,8.9-1.6,9.2
		c0.2,0.2,4.4,1.6,9.4,3c20.8,6.1,42,19.2,58,35.7c18,18.7,29,38.1,35.5,62.3c3.2,11.8,3.3,12.4,3.3,34.5l0.1,22.5l-3.3,11.5
		c-5,17.4-10.8,27.6-21.7,38.6c-9.9,9.9-15.4,13.7-23.2,15.7c-4.7,1.1-5.7,2-10.2,7.8c-8.6,11.4-16.5,16.3-28.1,17.6
		c-5.9,0.6-6.7,1-12.7,6.4c-9,8.2-16.5,11.6-28.6,13.1c-8.5,1.1-11.2,1-19.8-0.5c-5.4-0.9-11.7-2.6-13.9-3.7c-2.1-1.1-5.5-2-7.4-2
		c-5.1,0-11.3-2.8-13.7-6.2c-2.6-3.6-3.5-9.8-1.9-12.8l1.2-2.3l-3,2.2c-1.7,1.1-4.4,2.4-6.1,2.7c-3,0.6-3.1,0.6-2.2-1.9
		c0.6-1.5,1.9-4.4,3.1-6.6c2.7-5.4,2.6-6.1-1.5-6.1c-2.7,0-4.5-0.9-7.6-3.8c-3.7-3.4-4.1-4.3-4.6-10c-0.5-5.6-0.3-6.5,1.7-8.7
		c3.6-3.8,8.2-5,12.1-3l3.2,1.7l-0.6-3.8c-0.9-5.7-1.9-6-7.4-2.3c-3.9,2.7-6,3.4-11,3.7c-5.8,0.4-6.2,0.6-6.8,3.2
		c-1.2,5.3-7.4,13.7-12.8,17.3c-7.6,5-10,6.1-22.7,10.2c-6.3,2-11.6,3.8-11.8,3.9c-0.1,0.2,1.4,1.9,3.4,3.9
		c4.6,4.4,8.6,5.4,24.2,6.1c10.5,0.5,13.1,0.3,17.7-1.3l5.4-1.9l5.5,2.6c7.2,3.5,18.2,14,20.7,19.8c2.3,5.6,2.4,7.8,0.3,11.3
		c-1.6,2.6-1.5,3.6,1,16.2c1.5,7.4,3.8,18.1,5,23.9c1.3,5.8,3.2,14.9,4.1,20.3c1.7,9.4,1.9,9.8,4.9,11.1c3.8,1.6,6,4.1,7.5,8.5
		c1.7,5,1.3,9.5-0.9,12.3l-1.9,2.5l4.9,12c5.5,13.5,9.2,25.8,11.6,38.2c2.6,13.9,3.1,14.4,17.1,17c9.1,1.8,25.6,6.2,28.5,7.7
		c4,2.1,3.7,5.6-0.6,9c-3.3,2.7-3.4,2.9-2,5.5c0.8,1.6,1.4,3.4,1.4,4.1s0.9,3,2,5.1c1.2,2.2,1.8,4.7,1.5,5.8
		c-1.1,3.4-5.1,3.4-15.9-0.2l-10.3-3.4l1.1,2.7c0.7,1.9,0.6,3.1-0.3,4.2c-2.5,3-6,1.9-27.5-8.3l-12.6-6l-2.9-6.3
		c-1.5-3.5-4.5-10.2-6.6-15c-2-4.8-8-15.8-13.2-24.5c-5.3-8.7-11.5-19.9-13.9-24.8c-2.6-5.4-5.9-10.6-8.3-13c-3-2.8-4.1-4.7-4.1-7
		c0-1.6-0.7-3.9-1.5-4.9c-2.1-2.8-1.9-7,0.5-9.1c2.3-2.1,2.4-3.8,0.9-10l-1.1-4.3l-5.9,3.5c-6.8,4.1-6.5,3.7-7.4,8.4
		c-0.6,3.2-0.3,4.1,2.6,7.4c2.5,2.8,3.3,4.7,3.4,7.8c0.1,3.7,0.7,4.7,7.7,11.1c10.1,9.6,13.3,13.8,21.7,29.5
		c8.4,15.4,8.4,14.8-0.3,23.5l-4.8,4.9l1.6,3.4c0.9,1.8,1.6,3.8,1.6,4.3c0,2.7-19,14.3-31.2,19.1c-2.8,1.1-6.3,3.3-7.8,4.9
		c-1.6,1.7-3.5,3-4.4,3c-2.3,0-3.2,2.5-5.1,14.5c-0.9,6-3,16.1-4.6,22.3c-2.7,10.4-2.9,12.1-2.1,19.5c2,18.9-2,35.3-11.7,47.5
		c-5.3,6.6-11.1,10.6-15.5,10.4c-3.2-0.1-3.4,0-4,4.5c-1.6,11.7-0.2,65.7,2.5,91.3c0.5,5.8,3.3,19.7,6.1,31c4.4,17.8,5,21.2,4.4,27
		c-1,11.2-3.1,16.3-8.3,21c-5.4,4.7-7.6,5.5-14.8,4.7c-7.2-0.7-10.8-2.8-15.9-9.4c-9.8-12.5-12.6-22.1-12.6-44.3
		c0-20.7-3-44.2-8.4-65.2c-6.3-24.7-8.3-50.4-5.5-67.8l1.2-6.9l-7.3-23.8c-6.6-21.4-11.6-35-26.4-70.8l-4.5-11l-12.7-5.8
		c-7-3.1-13-6-13.3-6.3c-0.3-0.2,0-1.8,0.6-3.4c1.1-2.9,1-3-6.6-8.4c-8.6-6-11.6-8.8-20.3-18.9l-6-6.9l3.6-3.7l3.5-3.6l-3.5-5.6
		c-4.6-7.3-8.8-19.7-7.3-21.5c1.8-2.2,31.9-14.5,43.7-17.7l11.3-3.2l-0.5-2.9c-0.9-4.4,1.9-9.2,6.3-11c3.3-1.2,3.9-2,4.4-5.3
		c1.2-7.1,0.9-8.2-2.8-10.4c-1.9-1.2-3.5-2.7-3.5-3.5c0-0.7,1.8-3,4.1-5.1c3.6-3.3,3.9-4.1,3.5-7.3c-0.3-1.9-0.8-6.9-1.1-11.1
		l-0.7-7.7l-3.3,0.9c-4.1,1.2-7.3,0-13.1-4.7c-4.8-4-7-9.4-6-14.9c0.6-2.9-0.4-4.5-10.4-17.3c-7-8.9-11.9-14.4-13.3-14.6
		c-1.2-0.3-5.4-0.7-9.3-1c-15.7-1.3-28-7-39.1-18.3c-6.1-6.2-7.8-7.3-10.6-7.3c-9.8,0-16.9-5.3-27-20c-5-7.4-6.2-8.4-12.4-11.4
		c-8-4-12.1-8.1-19.6-19.7c-16.5-25.4-23-56-18.3-86.4c3.1-20.4,14.8-45.1,28.3-59.7c22.8-24.9,49.8-39.2,80.8-43.1
		c9.8-1.2,10-1.2,9.7-3.7c-0.2-1.4-0.6-14.3-0.9-28.8c-0.5-27.8-0.5-28.4,4.2-30.2C274.4-0.3,285.1-0.2,291.2,1.1z M272,5.5
		c-2,2.4-0.4,3.2,8.3,3.8c10.9,0.9,23.2,4.5,36.2,10.6c17.6,8.3,25.7,14.7,37.6,29.7c8.1,10.2,10.8,13.1,7.4,7.6
		c-6.4-9.9-25.4-29.8-34-35.4c-7.6-5-21.7-11.7-31.7-15.2C286.9,3.6,274.1,2.9,272,5.5z M273,12.3l-3.3-0.6l0.6,13.8
		c0.4,7.6,0.7,16.2,0.7,19.2c0,4.4,0.3,5.3,1.8,5.3c4.1-0.1,4.2-0.9,3-15.3c-1.4-16.2-1-17.8,5.4-20l4.3-1.5l-4.6-0.1
		C278.3,13,274.8,12.7,273,12.3z M287,18c0,0.6,3.9,5.5,8.8,10.8c4.8,5.4,13.4,15.3,19.2,22.1l10.5,12.2l4-0.8
		c2.2-0.4,6.8-0.7,10.2-0.7l6.2,0.1l-1.7-2.6c-9.7-15.3-24.8-28.7-41.3-36.5C292.8,17.8,287,16.1,287,18z M595,25l-4.7,0.1
		c-16.1,0.5-36.1,4.2-48.4,9.1c-10.7,4.2-26.5,16.2-35.3,26.8c-3.9,4.6-6.1,8-5,7.5c5.2-2.2,9.1-3.4,10.7-3.5c1,0,5.4-3.3,9.8-7.3
		c15.7-14.2,33.2-22.3,51-23.4c8.5-0.6,8.8-0.5,11.4,2.1c2,2,2.6,3.5,2.5,6.4c-0.1,2-0.2,4.2-0.1,4.8c0.1,1.5,5.7,3.8,7,2.9
		c0.7-0.4,1.1-5.4,1.1-13.1V25z M279.8,27.5c-1.2-1.3,0.1,15.6,1.8,23.5c2,8.8,11,26.9,18.1,35.9c3.2,4.1,6.4,7.6,7.1,7.9
		c0.8,0.3,1.2-1.2,1.2-5.1c0-6.4,1.4-11,4.7-15.5l2.4-3.2l-11.3-13.8c-6.3-7.5-14-17.1-17.2-21.2C283.3,31.9,280.3,28.1,279.8,27.5z
		 M575.9,37.6c-0.7-0.6-14.7,2.2-20.1,3.9c-13.5,4.5-30.2,15.9-37.4,25.8c-2.4,3.2-4.4,6.3-4.4,6.8s2.7,0.9,6,0.9s7.8,0.7,10,1.6
		l4.1,1.7l8.7-8.4c4.8-4.6,14.3-13.7,21.1-20.2S576.1,37.8,575.9,37.6z M582.7,45.4c-0.2-0.2-9.4,8.8-20.6,20l-20.3,20.3l2.6,5.1
		c1.5,3,2.6,6.8,2.6,9.2c0,2.2,0.4,4,0.9,4c2.6,0,16-12.8,21.6-20.5c5.6-7.8,11.2-21.5,12.5-30.6C582.6,49,582.9,45.6,582.7,45.4z
		 M272.4,54.4c-1,2.5,3.4,19.9,7.2,28.9c3.3,7.8,4,8.8,5.8,8.2c1.2-0.4,3.9-1.2,6.2-1.8l4.1-1.1l-4.2-6.5c-5.3-8.3-8.2-14-10.6-20.9
		c-1-3-2.4-6.1-3-6.8C276.4,52.6,273.1,52.6,272.4,54.4z M267.6,66.1c-5.5,0.2-25.9,4.3-32.6,6.6c-31.1,10.3-57.1,33.1-71.6,62.7
		c-11.3,23.2-14.6,49.6-9.3,74.5c5.1,23.7,19.4,50,31.5,57.7c2.9,1.9,5.5,3.4,5.8,3.4c0.2,0-0.6-1.9-1.9-4.3
		c-3.2-5.6-7.9-20.3-9.6-29.7c-0.8-4.2-1.3-13.8-1.3-22c0-12.1,0.5-16.2,2.7-25c8.2-33.5,29.5-61,60.2-77.9
		c9.8-5.5,23.2-10.3,33.8-12.2c3.7-0.7,6.7-1.6,6.7-2s-2-4.8-4.4-9.7c-2.4-4.9-5.1-11.9-6.1-15.6C270,67.1,269.4,66,267.6,66.1z
		 M584.2,66c-0.5,0-2.6,3.5-4.7,7.7c-2,4.3-4.7,9.2-6.1,11l-2.4,3.2l3.1,2.2c1.7,1.2,3.9,3.5,4.9,5.2l1.8,3l2-3.9
		c2.5-5,8.2-21,8.2-23.3c0-0.9-1.3-2.4-2.9-3.4C586.5,66.8,584.7,66,584.2,66z M334,74.6c-8.8,2.6-14.1,11.4-11.9,19.7
		c1,3.8,6.9,10.7,9.2,10.7c0.7,0,4.6-3.5,8.7-7.8s9.1-9,11-10.4c3.4-2.6,3.5-2.7,2-5.4c-0.8-1.5-3-3.7-4.8-4.7
		C343.2,73.8,339,73.1,334,74.6z M376,78.7c-2.1,0.5-1.7,0.7,2.4,1.4c5,0.8,15.6,5.6,15.6,7.1c0,1.4-3.6,0.9-8.6-1.2
		c-2.6-1.1-7.6-2.5-11.2-3c-5.7-0.8-7.2-0.6-11,1c-4.3,1.9-16.6,10.2-17.6,11.9c-0.5,0.7,4,15.8,5,17c0.4,0.4,13.8,2.9,16.1,3
		c0.8,0.1,0.9-0.8,0.2-3.1c-1.2-4.4-1.1-13.5,0.2-14.3c1.7-1.1,11.5,4.3,14.8,8.1c3.7,4.2,8.5,13.3,10.1,19.4c0.7,2.5,2.5,6,4.1,7.8
		c2.9,3.2,3.8,7.8,2.3,11.7c-1.1,2.8-6.1,4.7-10.8,4c-2.8-0.5-4.6-0.3-5,0.4c-0.4,0.6-1.7,1.1-2.9,1.1c-1.3,0-3.4,1.3-4.9,3
		c-4.1,4.7-10.1,3.9-13.1-1.9c-0.7-1.2-4.2-3.9-8-5.9c-8.6-4.7-13.3-8.5-15.3-12.4c-2.5-4.7-0.7-5.7,8.9-4.9c4.2,0.4,7.7,0.4,7.7,0
		c0-0.3-2.2-4.6-4.8-9.5c-2.7-4.9-5.7-11.3-6.6-14.2c-1.8-5.2-1.8-5.3-3.8-3.5c-1.1,1-2.6,3-3.4,4.5c-1.3,2.4-1.2,3.3,0.7,8
		c1.1,2.9,2.8,6.1,3.6,7c1.4,1.6,1.4,1.8-0.1,2.4c-2.2,0.8-3.9-0.8-6.1-5.6c-1-2.2-2.1-4-2.5-4c-1,0-6,15.1-6,18
		c0,5.6-0.9,6.6-6.9,7.8c-10.4,2.2-17,9-19,19.7c-0.5,2.4-0.6,4.6-0.4,4.9c0.3,0.2,2.5-0.9,5-2.5c2.6-1.5,6.1-3.4,8-4
		c3.8-1.2,8.6-0.4,8.1,1.3c-0.4,1.2-1.1,1.4-9.4,3.7c-5.1,1.4-12.3,7.6-16,13.8c-3.5,6.1-4.4,15.8-2,23.1c1.5,4.5,8,14.2,9.5,14.2
		c0.3,0,0.6-4.4,0.6-9.8c0-10.7,2.1-17,7.2-22.5c5.1-5.3,6-1.7,1.3,5.2c-4.1,6.1-5.3,11.2-4.7,20.4c0.6,9.4,4.1,17.4,9.3,21.4
		c3.2,2.4,3.7,2.5,5.1,1.1s1.1-2-2.5-5.6c-4.2-4.2-5.7-8.3-5-13.8c0.2-2.1,0.8-2.9,2.3-2.9c1.8,0,2,0.6,1.7,4.6
		c-0.3,4.4-0.1,5,4,9.2c5.8,6.1,10.5,6.9,18.3,3.3c3.1-1.4,5.4-3,5.1-3.4c-0.3-0.5-3.3-1.2-6.8-1.6c-7.6-0.8-12.6-3.2-15.5-7.6
		c-2.4-3.4-3.1-8-1.3-8c0.5,0,2.1,1.8,3.5,4c3.3,5.2,7.9,8,13.2,8c5.4,0,6.4-1.6,1.5-2.4c-8-1.2-14.4-8.3-15.7-17.2
		c-0.7-4.6,0.9-7.9,2.5-5.4c0.5,0.8,1,2.8,1,4.3c0,11,15.1,19,26.5,14.3c4.3-1.8,4.4-3,0.5-4.6c-6.9-2.9-10.6-10.7-9.6-20.2
		c0.9-7.3,1.4-8.8,3.2-8.8c1,0,1.4,1.4,1.4,5.2v5.3l2.9-3.6c1.6-1.9,5.4-4.7,8.4-6.2c4.7-2.2,5.8-3.4,8.1-8.1
		c2.6-5.3,8-10.6,9.4-9.2c0.3,0.4,0,2.1-0.7,3.9c-0.8,1.8-1.6,4.6-1.8,6.2c-0.5,3-0.4,3.1,5.4,4.3c6.4,1.3,10.3,3.5,10.3,5.8
		c0,1.8-0.3,1.8-7.4-0.6c-3.3-1.1-6.1-1.8-6.3-1.6c-1.1,1.1,7.7,6.7,12.3,7.7c6.4,1.4,16,0.4,13-1.5c-10.1-6-13.4-16.1-8.3-25.1
		c5.8-10.2,20.1-12.3,28.4-4c3.2,3.2,3.2,3.2,5,1.2c2.8-3.2,10-6,13.7-5.3c8.3,1.6,13.5,8.6,13.6,18.1c0,6-2.3,10.3-7.4,13.4
		c-2.7,1.7-4.4,2.1-6.8,1.6c-3.2-0.6-3.2-0.5-1.3,1.1c6.1,5,17.2,6,24.5,2.1c2.4-1.3,4.5-2.8,4.7-3.4c0.6-1.7-7-2.6-11.4-1.4
		c-4.9,1.4-5.3,1.4-5.3-0.4c0-2.7,4-3.8,12.2-3.3l7.8,0.5v-5.4c0-2.9,0.4-5.3,0.8-5.3c2.1,0,3.2,2.9,3.2,8c0,5.4,0.1,5.7,3.5,7.3
		c1.9,0.9,5.2,3.2,7.3,5.2c2.2,1.9,4.2,3.5,4.4,3.5c1.3,0,2.9-8.6,2.3-12.1c-0.5-3.1-0.4-3.9,0.8-3.9c3,0,4.2,3.1,4.2,10.9
		c-0.1,4.2-0.6,8.6-1.3,9.8c-1,1.8-0.9,2.9,0.5,5.7c0.9,2,2.2,3.6,2.9,3.6c1.2,0,5.4-5,5.4-6.4c0-0.4,0.7-2.2,1.4-4.1
		c1.1-2.5,1.9-3.3,3.1-2.9c1.2,0.5,1.5,1.4,1,3.3c-0.4,1.4-1.1,5.2-1.5,8.4c-1.1,7.3-5.2,12.7-12.2,16l-5.1,2.5l3.9,1.8
		c9.4,4.5,16.9,0.7,20-10c1.2-4.1,2.8-3.8,3.2,0.6c0.4,5.1-2,9.3-7.3,12.4c-3.9,2.2-5.4,2.6-10.4,2.2c-6.8-0.5-7.2,0.8-1.4,4.3
		c2.8,1.7,4.5,2.1,9.4,1.7c7.1-0.5,10.6-3.3,14-11.1c1.8-4.4,2.1-6.3,1.5-12.5c-0.4-5.6-0.3-7.3,0.7-7c3.6,1.3,4.7,10.1,2.2,18.3
		c-0.8,2.7-1.2,5.1-1,5.3c0.2,0.3,1.8-1,3.5-2.8c8.4-9,7.4-27.5-2-35.4c-3-2.5-3.3-4.6-0.6-4.6c4.6,0,11.6,11.6,11.8,19.3
		c0,2.6,0.4,4.4,0.9,4.1c1.3-0.8,4.9-13.2,4.9-16.8c0-11.3-9.2-23.6-17.7-23.6c-2.3,0-3.3-0.5-3.3-1.5c0-1.1,1.2-1.5,5-1.5
		c4.7,0,5.5,0.4,10.1,4.7l5.1,4.8l-0.7-5c-1.1-8.1-2.5-11.6-6.7-16.1c-4.5-4.9-8.7-6.5-14.8-5.7c-3.3,0.5-4,0.3-4-1.1
		c0-0.9,0.7-1.9,1.5-2.1c0.8-0.3,2.1-0.7,2.9-0.9c1.1-0.4,1-1.9-0.7-9c-1.2-4.7-2.4-8.6-2.7-8.6s-1.3,2.3-2.3,5.1
		c-1.4,3.7-2.3,4.9-3.5,4.7c-2.1-0.5-2-1.7,0.9-9.1c2.2-5.6,2.2-5.8,0.4-9.8c-2.1-4.5-2.9-3.9-3.9,2.6c-0.8,4.6-4.6,12-6.3,12
		c-0.6,0-2.8,2.2-5,5c-4.8,6.1-11.1,11.8-15.2,14c-1.7,0.8-3.1,2-3.1,2.5s-1.4,1.7-3.1,2.5c-3.6,1.9-8.5,1.2-9.9-1.5
		c-0.7-1.3-2-1.8-4.6-1.7c-2.8,0.1-4.2-0.5-6-2.6c-1.3-1.5-3.3-2.7-4.4-2.7c-1.2,0-3.5-1.4-5.2-3c-3.6-3.6-3.5-6.2,0.6-18
		c5.1-14.3,13-24.3,23.1-29.1c6.6-3.2,8.1-3.5,8.7-1.7c0.4,1.1-0.3,7.5-1.7,15.8l-0.7,3.9l6.3-1.9c3.4-1.1,6.6-1.7,7.1-1.4
		c1.3,0.8,0.9,9.2-0.7,13.1c-1.9,4.6-2,4.6,1.3,3.8c1.6-0.3,4.7-0.2,6.9,0.3c3.8,0.9,4.2,0.7,5.2-1.4c2.4-5.3,5.1-18.4,4.2-20.2
		c-1.3-2.4-13.1-13.6-16-15.1c-2.6-1.5-6.8-1.1-21.9,1.6c-6.7,1.2-9.5,1.4-10.3,0.6c-1.8-1.8,1.6-2.9,13.5-4.7
		c6.1-0.9,11.2-1.9,11.5-2.1c1.1-1.2-16.7-0.4-23.6,1.1c-8.3,1.7-11.6,1.3-9.2-1.1c1.7-1.8,19.2-4.9,22.8-4.1
		c1.8,0.4,2.1,0.3,1.1-0.3c-3.3-1.9-18-4.5-26-4.5c-4.7,0.1-11.7,0.9-15.7,1.8c-7,1.7-7.1,1.7-11.3-0.4c-2.3-1.2-7.2-2.8-10.9-3.6
		C404.2,75.3,386.2,75.9,376,78.7z M593.7,80c-0.4,0-1.2,1.2-1.8,2.7c-3.7,10.3-7.2,16.6-14.5,26.4c-4.6,6.1-8.4,11.2-8.4,11.4
		c0,0.1,2.1,0.6,4.7,1c5.9,0.9,20,5.8,27.8,9.7c35,17.7,59.1,53.8,63.5,95.3c1.9,16.9-1.1,35.9-8.6,55c-2,4.9-4.2,10.1-5.1,11.3
		c-0.8,1.3-1.2,2.6-1,2.9c1.1,1,11.6-4.9,17.9-10.2c8.6-7,13.3-13,18.6-23.6c7.5-14.8,12-39.3,10.7-57.9
		c-1.4-19.1-7.6-42.1-15.5-56.5c-9.4-17.2-27.8-37.6-43.1-47.8c-10.6-7-26.9-14.8-37-17.6C597.8,80.9,594.1,80,593.7,80z M510,90.2
		c-5.9,4.1-5.9,4.9-0.2,11.7c2.8,3.4,6.7,8.8,8.7,12.1s4,6,4.5,6c2.3,0,8.9-7.8,9.9-11.8c2-7.2-1.5-15.4-7.9-18.7
		C520.6,87.2,513.9,87.6,510,90.2z M569.2,91.1c-0.4,0-2.3,1.9-4.2,4.1c-1.9,2.3-5.9,5.7-8.7,7.6c-2.9,1.9-5.3,3.8-5.3,4.1
		c0,0.3,1.6,1.6,3.5,2.9c1.9,1.2,4.8,4,6.4,6.2l2.9,4l4.4-5.3c4.9-5.6,9.8-12.5,9.8-13.7c0-0.4-1.8-2.8-4.1-5.4
		C571.7,93.1,569.5,91,569.2,91.1z M296.8,92.1c-2.8,0.2-10.8,3.3-10.8,4.2c0,0.7,5.4,8.8,7.9,11.9c0.4,0.4,3.3-0.6,6.5-2.2
		c3.2-1.7,6.7-3,7.7-3c3.2,0,2.1-1.7-4-6.4C300.8,94.1,297.6,92,296.8,92.1z M477.8,100c-7.3,0.2-21,16.5-23.3,27.7
		c-0.6,3-0.4,3.3,1.8,3.3c1.3,0,3.2,0.9,4.2,2s2.2,2,2.6,2c1.4,0,10.7-14.8,12.7-20.2c1.1-2.9,2.3-7.4,2.6-10.1
		C479,101.1,478.8,100,477.8,100z M283.2,102.1c-0.9,0.1-4.5,0.7-7.9,1.5c-56.1,12.3-95.6,61.9-93,116.9
		c1.2,25.1,9.4,47.5,24.2,66.3c6.8,8.6,10.9,11.6,16.9,12.8l3.9,0.7l-3.3-4.7c-12.8-18.7-18.5-45-14.6-67.5c2.1-12,1.5-13-8.1-15.6
		c-8.4-2.2-11.3-4.1-11.3-7c0-4.1,3.3-5.9,9.5-5.1c3,0.3,5.5,0.5,5.5,0.3c0-0.1-2.9-3.3-6.5-6.9c-7.5-7.7-8.7-10.9-5.6-14.2
		c1.1-1.2,2.1-3,2.1-3.9c0-2.6,4.5-5,7.7-4.2c1.5,0.3,6.5,2.9,11.1,5.6c4.6,2.7,8.5,4.9,8.7,4.9s-1.4-3.8-3.6-8.4
		c-4.4-9.4-4.7-11.6-2.1-13.9c2.6-2.4,6.5-2.1,8.9,0.5c1.7,2,3.3,4.1,9.5,13.2c0.3,0.5,3.2-1.3,6.5-4.1
		c15.6-13.3,33.7-21.6,53.2-24.3c6.9-0.9,9-1.7,12.7-4.5c2.7-2.1,6.1-3.6,8.9-4.1c4.2-0.6,4.6-0.9,5.6-4.6c0.6-2.2,0.7-4.4,0.2-4.8
		c-0.4-0.4-4.4-1.5-8.8-2.5c-11.6-2.5-14.5-4.3-22-14C287.6,105.6,284.1,102,283.2,102.1z M370.5,103c-1.3,0,0.4,11.9,2.4,16.5
		c1,2.3,3.5,6.7,5.4,9.8l3.6,5.5l3.5-1.6c1.9-1,3.5-2.2,3.6-2.9c0-2.2-4.7-14.3-7-17.6c-1.2-1.7-4.1-4.7-6.5-6.5
		C373.2,104.5,370.9,103,370.5,103z M311.6,106.1c-3.2,0.1-14.6,5.3-14.3,6.4c0.7,2,9.3,6.5,15.2,7.9c12.3,2.9,11.3,3,12.9-0.6
		c1.6-3.9,0.9-5.1-4.3-7.8c-2-1-4.5-2.7-5.5-3.9C314.5,106.9,312.7,106,311.6,106.1z M544.4,114.9c-3,6.8-8.3,12.2-13.8,14.2
		c-3,1.1-3.6,1.8-3.6,4.1c0,1.6,0.7,3.1,1.5,3.4c2.4,1,20-5.5,26.5-9.7c6.9-4.4,6.9-4.9,0.3-10.9C546.7,108,547.5,108.1,544.4,114.9
		z M482.7,118.8c-4.1,1.5-5.4,2.7-10.2,9.9c-3,4.5-5.5,8.6-5.5,9.1c0,0.4,1.4,1.6,3,2.6c3,1.7,3.1,1.7,6.4-0.3
		c6.6-4.1,13.6-14.7,13.6-20.6C490,116.6,489.1,116.5,482.7,118.8z M354,118.4c0,2.3,4.8,9.3,10.8,15.7c6.8,7.2,7,7.3,8.9,5.6
		c1.1-0.9,2.7-1.7,3.7-1.7c2.2,0,2.2,0.2-3.8-9.3c-4.1-6.4-5.6-7.9-8.5-8.7C359.7,118.5,354,117.7,354,118.4z M566.9,124
		c-0.9,0-3.7,1.6-6.3,3.6c-4.5,3.4-14.1,8.6-18.1,9.7c-1.1,0.3-4.6,1.3-7.7,2.2c-4.5,1.3-5.8,2.1-5.8,3.6c0,1.2,0.7,1.9,1.9,1.9
		c2.1,0,8.6,4.1,11.9,7.6c1.2,1.3,3.5,2.6,5,2.9c5.5,1.2,18.2,5.6,25.6,9c11.9,5.4,21.3,12.1,31.7,22.4
		c20.2,20.3,29.9,43.3,29.9,71.2c0,22-5.8,40.3-18.6,58.2l-3.5,4.8l3.8-0.7c12.8-2.2,22.3-11.5,32.5-31.9
		c10.5-20.9,14.2-44.4,10.7-69c-1.3-9.5-6.1-26-9.6-32.9c-14.8-29.5-42-52.1-72.3-60.1C572.8,125.1,567.8,124,566.9,124z
		 M345.2,132.4c-3.1-0.5-3.2-0.4-2.3,1.5c1.3,2.4,4.7,4.8,12.8,9c5.9,3.2,6.2,3.2,8.7,1.6c1.4-1,2.6-2.1,2.6-2.5s-1.9-2.3-4.3-4.3
		c-3.1-2.6-5.7-3.7-9.3-4.2C350.7,133.2,347,132.7,345.2,132.4z M492.3,133.9c-2.9,0.5-5.6,2-9,5.1c-2.6,2.4-5,4.5-5.2,4.6
		c-0.6,0.5,4.3,4.3,5.5,4.4c1.9,0,8.8-5.5,12.7-10.3C500.5,132.6,500.4,132.6,492.3,133.9z M452.5,136c-2.2,2.5-1.3,6.6,1.7,7.6
		c1.6,0.5,2.7,0.1,4-1.6c2.3-2.8,2.3-3.5-0.2-6S454.8,133.5,452.5,136z M385,140.7c0,2.3,2.9,5.3,5.2,5.3c3.5,0,6.3-5.8,4.2-8.9
		C391.6,133.1,385,135.6,385,140.7z M376,142.4c-2.7,3.3,1.8,7.2,4.8,4.2c1.3-1.3,1.4-2,0.6-3.4C379.9,140.9,377.6,140.6,376,142.4z
		 M461.5,146.9c0.9,2.9,4.2,3.6,6.6,1.5c2.3-2.1,2.4-2.8,0.3-4.8C465.2,140.4,460.2,142.8,461.5,146.9z M366.6,147.6
		c-2.1,2-2,2.7,0.4,4.9c2,1.8,2.1,1.8,4.1-0.2c1.7-1.7,1.9-2.4,1-4.2C370.7,145.6,368.7,145.4,366.6,147.6z M473,149.5
		c-1,1.2-1,1.8,0,3c1.6,2,4.4,1.9,6.1-0.1c1.1-1.4,1-1.8-0.6-3C476.1,147.6,474.6,147.6,473,149.5z M409.4,153
		c-2.5,0-1.5,1.6,2.6,4.5c2.2,1.5,4,3.4,4,4.1c0,1.8-3.6,1.8-4.3,0c-0.7-1.8-8.6-5.6-10.3-4.9c-2.5,0.9-1.5,2,3.2,3.3
		c4.3,1.2,6.5,3.3,5,4.7c-0.3,0.3-3-0.1-6.1-1c-9.2-2.6-6.2-0.3,6.4,4.8l11.9,4.8l8.3-3.6c4.6-1.9,11.3-4.5,14.8-5.8
		s5.9-2.5,5.2-2.7c-0.6-0.2-3,0.3-5.2,1.2c-4.9,2-5.9,2-5.9,0.2c0-0.8,2-2.2,4.5-3.2c2.5-0.9,4.3-1.9,4.1-2.1
		c-0.5-0.5-8.1,3-10.9,4.9c-1.4,1-1.9,1-2.5,0.1c-0.6-1-1.7-1-4.7-0.2c-3.1,0.9-4,0.8-4.6-0.3c-0.5-0.8-1.8-2.6-3-3.9l-2.1-2.4
		l1.7,2.9c3.1,5.3,0.1,5.1-5.4-0.3C413.2,155.3,410.2,153,409.4,153z M441.4,154c-1.1,0-3.3,1.4-5,3.2l-2.9,3.1l3-2
		c1.7-1.1,3.9-2.5,5-3.1C443.5,154.1,443.5,154.1,441.4,154z M295.1,161.1c-3.8,0.5-13.7,3.1-18.1,4.9c-10.1,4-15,7.1-14.8,9.4
		c0.1,1.2-0.4,3.8-1.1,5.9c-1,2.9-1,5.2-0.2,10c0.8,4.9,0.8,8.1-0.4,14.5l-1.4,8.3l4.6,7.6c2.5,4.1,7.3,10.4,10.5,13.9l5.9,6.3
		l6.2-4.6c6.6-4.9,17.1-10.3,19.9-10.3c0.9,0,1.9-0.4,2.2-0.8c0.8-1.4-2.7-5.9-7.1-9.1c-7.9-5.7-13.3-16.4-13.3-26.5
		c0-6.2,1.9-12.2,5.9-18.6c2.2-3.4,2.8-5.3,2.4-7.8C296,162.5,295.5,161,295.1,161.1z M220.8,162c-2.5,0-2.3,2.1,1.1,8.8
		c3.9,7.8,6.7,17,5.5,18.2c-0.6,0.6-3.3-0.7-7.4-3.6c-7.3-5.1-17.2-10.4-19.5-10.4s-1.8,3.6,0.8,4.7c4,1.9,17.7,13.3,17.7,14.8
		c0,2.9-3.2,1.4-11.8-5.5c-4.8-3.9-9.2-7-9.9-7c-3.3,0-0.7,4.7,6.9,12.5c4.4,4.7,7.8,8.9,7.4,9.3c-0.5,0.4-4.3,0.7-8.7,0.7
		c-4.7,0-7.8,0.4-7.6,1c0.1,0.5,3.3,2,7.1,3.2c5.7,1.8,8,3.2,12.7,7.9c3.2,3.1,7.9,6.9,10.6,8.3c8.3,4.5,21.9,25.2,27.8,42.4
		l3.1,8.8l8-5.7c9.5-6.8,20.4-16.2,20.4-17.6c0-0.5-3.9-4.9-8.8-9.6c-8.2-8.2-16.8-19.8-19.7-26.4c-0.9-2.3-1-4.1-0.2-7.2
		c1.3-5.5,1.5-34.6,0.2-34.6c-2.3,0.1-3.6,2-6,8.9c-1.3,4-3.8,9.3-5.4,11.8c-1.7,2.5-3.3,6.6-3.7,9.2c-0.3,2.5-1.1,5.2-1.6,5.8
		c-4.1,5.1-3.4-7.1,0.8-14.7l2.7-5l-1.9-2.8c-1.1-1.5-5.7-8-10.4-14.5C225.6,166.1,222,162,220.8,162z M437.7,171.1
		c-10.7,4.3-12.7,5.4-12,6.8c0.4,0.9,0.8,4.2,0.8,7.3c0,3.2,0.1,5.8,0.3,5.8c0.2,0,2.5-1,5.3-2.1l4.9-2.1l-2.9-4
		c-3-4.1-3.1-6.8-0.3-6.8c0.8,0,2.3,0.7,3.2,1.5c0.9,0.8,3,1.7,4.6,2.1c3.7,0.7,8.8-3.1,9.8-7.3c0.4-1.6,0.9-3.6,1.2-4.6
		C453.4,165.2,451.9,165.5,437.7,171.1z M417,175.3l-10-4.1c-9.4-3.8-10-3.9-10-2c0,5.4,7.2,11.8,13.4,11.8c3.6,0,3.3,2.6-0.5,4.9
		l-3,1.9l2.8,1c1.5,0.5,3.5,1.3,4.4,1.7c1.4,0.5,1.6-0.1,1.5-3.7c0-2.4,0.2-5.9,0.7-7.9L417,175.3z M550.4,170
		c-1.8,0-1.9,9.6-0.3,18.4c1.4,7.6-0.7,17.1-5.1,23.1c-1.6,2.2-4.2,6.7-5.8,10c-3.5,7.2-6.3,10-11.8,11.4c-7.2,1.9-7.1,3.3,0.5,6.9
		c17.3,8.3,28.5,28.4,28.5,51.2c0,15.1-4.7,28.6-13.6,39.3c-2.4,2.7-3.7,5.2-3.2,5.7c2.4,2.2,11.7,4.4,20.9,4.8
		c22.7,0.9,37-6.7,48.3-25.7c12-20.3,15.9-42.4,11.8-67.1c-1.9-11.5-4.2-18.5-9.5-28.7c-10.9-20.9-30.8-38.6-52.5-46.7
		C554.9,171.2,551.1,170,550.4,170z M376,180.9c-3.9-4.4-5.4-4.4-3.8,0.2c1.4,4.1,6,7.5,11,8.3c6.8,1,7.7,2,4.8,5.1
		c-9.7,10.4-25.8,11.2-34.7,1.9c-5.2-5.4-5.7-4-0.6,1.6c2.4,2.8,5,4.5,8,5.3c2.3,0.6,4.3,1.6,4.3,2.2c0,1.4-6.7,6.3-13,9.6
		c-3.2,1.6-4,2.4-2.7,2.7c0.9,0.2,1.7,1,1.7,1.7c0,2.3-5,7.4-8.5,8.7c-1.9,0.6-3.5,1.7-3.5,2.2c0,0.6,1.1,4,2.5,7.6
		c2.3,5.9,3,6.8,7,8.8c5.2,2.5,6.6,2.7,8.3,1c1.8-1.8-2.5-4-5-2.5c-2.4,1.6-5.1-0.8-2.8-2.4c1.1-0.8,1.2-1.2,0.3-1.6
		c-0.7-0.2-1.3-1.2-1.3-2c0-1.1,0.7-1.4,2.4-0.9c1.3,0.3,3.7-0.1,5.5-1c2.6-1.3,2.9-1.8,2.1-3.5c-0.9-1.6-0.7-1.9,0.8-1.9
		c1,0,2.3,0.5,3,1.2s3.8,1,7.9,0.9c10.7-0.3,21.1,4,24.4,10c2.1,4.1-0.6,4.3-4.9,0.5c-2.1-2-5.5-4.2-7.3-5
		c-4.3-1.7-14.9-3.1-14.9-1.8c0,1.4,4.8,3.2,8.8,3.2c7.5,0,19.2,9.4,19.2,15.4c0,3.8-1.3,3.9-7.5,0.1c-3.2-1.9-7.7-3.7-10-4.1
		c-5.2-0.7-13.2,0.8-17.5,3.5c-3.7,2.2-7,1.7-7-1c0-1.8-6.3-5.9-7.4-4.8c-0.8,0.8,4.4,25.2,6.3,29.4c2.7,6.1,6.5,10,17.3,17.7
		c10.7,7.6,27.8,15.9,38.3,18.5c6.2,1.5,6.6,1.5,17.7-1.2c17.7-4.3,33.4-9.3,39.9-12.6c12.2-6.1,14.7-9.9,23.4-34.9
		c2.6-7.4,6.4-16.8,8.5-20.9l3.9-7.3l-5.6-5.7c-4.6-4.6-5.5-5.1-5-3.1c0.4,1.4,0.7,3.1,0.7,3.7c0,0.7,0.8,1.3,1.9,1.3
		c2.8,0,4.5,2.4,2.7,3.9c-0.8,0.7-2,1.1-2.8,1c-0.7-0.2-2.3,0.1-3.6,0.5c-1.3,0.4-2.6,0.6-2.8,0.3c-0.3-0.3-1.4-4.6-2.4-9.6
		c-2.1-10.3-4.1-14.1-10.5-20c-5.3-4.8-8.3-5.2-17.7-2c-10.8,3.6-14.9-0.1-5.4-5c2.9-1.5,7.1-2.7,10.7-2.9
		c7.8-0.6,15.2,2.9,21.1,9.9c2.3,2.7,4.3,4.7,4.6,4.4c0.3-0.2-1.2-2.5-3.3-5c-7.2-8.9-20.5-12.9-29.7-9.1c-2.1,0.9-3.9,1.1-4.8,0.6
		c-2.3-1.4-0.3-2.7,7.9-4.9c4.7-1.3,8.5-3.1,10.3-4.8c3.9-3.7,3.5-4.4-1.3-2c-5.9,2.9-12.9,3.3-19.9,1.2l-5.8-1.8l-9.3,3.8l-9.2,3.7
		l-9.6-3.6c-7.1-2.7-11.1-3.6-15.6-3.6c-4.3,0-7.6-0.7-11.5-2.5C381.9,186.1,377.9,183.2,376,180.9z M366.6,178
		c-0.1,0-2.2,1.3-4.7,2.9c-4.7,2.9-8.9,7.5-8.9,9.5c0,1.8,5,6.3,8.3,7.5c4.6,1.8,12.6,1.3,17.4-1c4.1-2,5.6-3.9,3.1-3.9
		c-0.6,0-3.1-0.9-5.4-2.1c-3.4-1.6-4.9-3.2-7-7.5C368,180.4,366.7,178,366.6,178z M479.1,186.7l-3-1.8l-2,3.9
		c-1.1,2.1-2.7,4.4-3.5,5.1c-2.5,2.1-1.9,2.8,3.5,4.6c4.2,1.4,5.8,1.5,8.9,0.6c2.1-0.6,4.4-1.8,5.1-2.7c1.2-1.5,0.9-2.1-2.3-4.8
		C483.8,189.9,480.8,187.7,479.1,186.7z M223.1,228c-1.6,0-3.4,18.9-2.8,29.4c1.1,18.3,7.4,35.4,18.4,49.8c7.3,9.5,19.7,16,35,18.3
		c5.3,0.8,9.9,1.2,10.1,1c0.4-0.4-14.4-20.9-17.5-24.2c-1.3-1.4-3.4-2.3-5.1-2.3c-4.7,0-8.2-3.4-8.2-8c0-2.2-0.5-5.1-1.2-6.5
		c-0.8-1.9-0.8-3.1,0-5.1c1-2.1,0.8-3.8-1.3-10c-4.9-14.5-15.1-32.1-22.6-38.9C225.7,229.6,223.6,228,223.1,228z M311,229.3
		c-1.4-0.4-14.4,6-20.8,10.2l-7.3,4.9l5.6,5.6c3,3,5.5,6.4,5.5,7.5s1.4,3.2,3.2,4.6c2.3,1.9,3.3,3.7,3.7,6.8l0.6,4.3l6.7-5.1
		c10.8-8.2,11.3-9.2,11.3-22.6v-11.2l-4-2.4C313.3,230.6,311.3,229.4,311,229.3z M503,243.2c-1.1,1.8-2,3.6-2,3.9
		c0,0.4,1.9,0.4,4.3,0.2c4.8-0.5,10.1,1.1,9.4,3c-0.2,0.6-1.3,1.2-2.5,1.1c-1.7,0-1.9,0.3-1.1,2.3c0.5,1.4,0.9,3.8,0.9,5.6
		c0,4.7,1.8,2.1,3.2-4.6c1-4.9,1-6.1-0.5-9.2c-0.9-1.9-2.8-4-4.3-4.5C506.3,239.4,505.1,239.8,503,243.2z M519.2,240.5
		c-3.4-0.7-3.4-0.7-1.8,1.7c3.2,4.9,3,10.1-0.9,22.5c-0.6,1.7-0.3,2.4,1.1,2.8c9.1,2.8,19.9,11.8,24.2,20.1
		c3.8,7.4,5.5,15.3,4.9,22.3c-0.3,3.7-0.9,7.5-1.3,8.6c-0.5,1.4-0.4,1.7,0.4,1c2.2-2.1,6.2-16.5,6.8-24.6c1.5-20.7-9-42.5-24.3-50.6
		C525.1,242.6,521,240.9,519.2,240.5z M340.2,247c-0.4,0-2.2,0.9-3.9,2c-2.9,1.7-3.2,2.3-2.6,5.1c0.6,3,0.5,3.2-2,2.5
		c-2.3-0.5-2.7-0.3-3.3,2.1c-0.6,2.2-0.2,3.1,2.7,5.5c3.9,3.3,5.4,3.6,3.9,0.8c-2.1-3.8,2.2-8,6.1-6c2.3,1.3,2.4,0.4,0.8-7
		C341.3,249.3,340.5,247,340.2,247z M504.2,251.1c-2.4,0.4-4.2,1.1-4.2,1.7c0,0.4,1.8,1.7,4,2.9c4.3,2.3,5.2,1.4,2.4-2.5
		C505.6,252,504.6,251.1,504.2,251.1z M322.4,258.9c-7.3,11.1-6.9,27.1,0.8,33.6c6.9,5.8,17.1,0.6,16.7-8.7c-0.2-2.9-0.2-3-0.6-0.6
		c-0.5,3.3-5.6,7.8-8.8,7.8c-3,0-7.9-4.1-9.5-8c-2-4.9-0.8-16.5,2.4-22.8C326.5,254.1,326.1,253.4,322.4,258.9z M288.5,256.4
		c-0.5-0.2-3.7,2.2-7,5.3c-3.3,3-10.4,8.7-15.8,12.6c-10.1,7.2-11.8,9-9.9,10.9c2.6,2.6,15.7-5,27.1-15.8c6.2-5.8,7.2-7.1,6.9-9.7
		C289.6,258,289.1,256.5,288.5,256.4z M496.2,258c-0.5,0-1.4,1.7-2.1,3.7c-0.7,2.1-1.4,4.3-1.7,4.9c-0.3,0.7,0.4,1,2.1,0.6
		c2.7-0.5,6.5,2.1,6.5,4.5c0,0.7-0.9,2.2-2,3.3c-2.9,2.9-1.5,2.5,3.6-1.1c4.3-2.9,5.4-5.4,2.4-5.4c-0.8,0-1.7-0.9-2-2.1
		c-0.3-1.1-1.7-3.5-3.2-5.2C498.3,259.4,496.7,258,496.2,258z M505.7,260.8c-2.7-1.9-2.3-1.3,2,4c10.3,12.3,11.4,29,2.2,33.8
		c-1.8,0.9-4.5,1.4-6.2,1.1l-3.1-0.4l2.3,1.8c3.8,3.1,7.4,2.4,11.4-2c6.9-7.6,5.5-20.6-3.5-33.3
		C509.8,264.3,507.5,262.1,505.7,260.8z M295.2,265.7c-1.7-1.6-2-1.4-5.5,2.7c-5.1,6.1-15.8,14-24.9,18.4c-6.3,3-7.8,4.1-7.8,6
		c0,1.4,0.9,2.7,2.5,3.4c2.2,1,3.5,0.7,8.7-1.8c8.1-3.9,13.4-7.7,21.8-15.8c4.6-4.5,7-7.6,7-9.1C297,268.3,296.2,266.6,295.2,265.7z
		 M328.2,266.5l-3-2.5l-0.6,2.3c-0.3,1.2-0.6,3.9-0.6,6c0,3.6,0.1,3.7,2.3,2.3c5.8-3.6,13.8-2.1,15.7,2.9c1.6,4.1,1.2,12.3-0.6,15.1
		c-2,2.9-6.3,5.4-9.7,5.4c-2.8,0-6.1,2.2-5.6,3.8c0.3,0.7,2.9,0,7.4-1.9c8.1-3.4,11.4-2.9,15.9,2.1c1.4,1.7,3.6,3,4.7,3
		c1.2,0,6.4,1.8,11.6,4c8.3,3.6,10.3,4,15.6,3.8l6.2-0.3l-4-1.9c-2.2-1-9.3-5.5-15.9-9.9c-12.3-8.4-16.1-12.6-21-23.4
		c-1.7-3.9-2.3-4.3-8.7-6.2C334.2,269.9,329.8,267.9,328.2,266.5z M341.6,267.1c-1.9,1.9-1.9,1.9,0.7,1.9c1.7,0,2.7-0.5,2.7-1.4
		C345,265.3,343.7,265.1,341.6,267.1z M313.6,268.1c-0.1,0-2.4,1.9-5.3,4.2c-2.8,2.3-5.2,4.5-5.2,4.8c-0.2,1.1,12,17.9,13,17.9
		c1.5,0,1.1-3.8-0.8-7.3c-1.2-2.3-1.7-5.5-1.7-11.5C313.6,271.7,313.6,268,313.6,268.1z M495.5,271c-0.8,0-1.5,0.4-1.5,1
		c0,0.5,0.7,1,1.5,1s1.5-0.5,1.5-1C497,271.4,496.3,271,495.5,271z M519,272.3c0,0.2,0.7,2.5,1.6,5.1c1.3,3.7,1.5,6.5,0.9,11.9
		c-0.4,4-0.8,10.4-0.8,14.2c-0.2,5.1-0.7,7.9-2.1,10l-1.9,3l2.6-1.8c5-3.3,6.7-0.9,2.2,3.3c-3.1,2.9-3.1,4.1,0,7
		c1.6,1.5,4,2.4,7.2,2.7c9.5,0.9,14-5.1,14.2-18.7c0.2-14.4-7.1-27.7-19-34.8C520.5,272.1,519,271.6,519,272.3z M491.3,274.1
		c-1.1-1.2-1.3-1.2-1.9,0.3c-0.8,2-0.7,2.1,3.1,3c2.5,0.6,2.8,0.5,1.5-0.6C493.2,276.1,491.9,274.9,491.3,274.1z M298,277
		c-0.3,0-2.6,2.1-5,4.6c-3.9,4-20.2,15.6-23.3,16.7c-1.2,0.4,11.4,17.7,34.1,47c7.4,9.6,12,14.7,13,14.5c2.2-0.4,9.6-11.6,12.2-18.5
		c1.4-3.8,2.4-9.1,2.7-15.4l0.6-9.6l-4.4-3c-6.3-4.3-12.2-11.2-21.4-24.6C302.1,282.3,298.3,277,298,277z M327.7,278.8
		c-1.8,1.9-2.3,5.2-0.9,5.2c0.8,0,1.6-1.4,4-6.3C331.5,276.3,329.3,277,327.7,278.8z M500.5,291c-1.6,1.8-1.7,2.2-0.4,3.4
		c2.5,2.4,5.3,2.6,7.9,0.6l2.5-2l-2.4-2C505.1,288.5,502.8,288.5,500.5,291z M338,301.4c0,0.2,1.1,2.6,2.4,5.3
		c1.3,2.6,3,7.6,3.7,11.1c1.5,7.7,0.7,24.6-1.5,31.7c-2.4,7.9-11.2,21.2-16.3,24.8c-4.2,3-4.3,3.2-2.1,3.8
		c6.5,1.6,12.3-3.5,18.8-16.6c7-14.1,9.4-29.5,7-44.2c-1.5-8.8-3-12.5-6.2-14.7C341.8,301.1,338,300.4,338,301.4z M328.7,306.2
		c-1.2,1-1.7,2.1-1.2,2.4c4.6,2,7.3,4.5,7.9,7.4c0.9,4.7,0.7,11.9-0.4,18.1c-2.4,12.8-15.7,33.2-20.1,30.9c-1.6-0.9-1.9-0.7-1.9,1
		c0,2.8,2.6,7.6,4.5,8.3c2.4,1,11.4-7.1,15.7-14.3c5.7-9.5,7.8-17.3,7.8-29c0-9.4-2.5-21.4-5.1-24.6
		C334.1,304.2,331,304.1,328.7,306.2z M391.9,315.1c-1.3,0.1-4.4,0.5-6.9,1c-2.5,0.6-6.4,0.7-8.7,0.4c-2.4-0.4-4.3-0.4-4.3-0.1
		c0,0.2,0.9,2.5,2,5.1c1.1,2.5,2.7,7.4,3.6,10.8c1.1,4.5,3,8.1,6.9,13.2c5.7,7.4,15.1,17.2,15.9,16.4c0.3-0.2-2.3-5.4-5.6-11.4
		c-7.4-13.4-8.2-17.7-4.5-23.5c1.5-2.1,3-5.7,3.3-7.9C394.2,315.3,394.1,315,391.9,315.1z M433.8,316c-1.7,0-1.6,2,0.2,6.9
		c1.1,2.8,2,6.2,2,7.6s-3.2,8.9-7.1,16.6c-3.8,7.8-6.8,14.3-6.6,14.6c0.6,0.6,22.1-18.4,30.1-26.5l5.9-6.1l-3.9-0.6
		c-7.7-1.3-12.4-3.6-16.1-8.1C436.2,318,434.2,316,433.8,316z M407.3,321.6c-1.6,4.2,5,10.1,8.2,7.4c2.6-2.2,4.5-6.5,3.5-8
		c-0.7-1.2-1.4-1-3.6,1l-2.6,2.5l-1.5-2.3C409.5,319.6,408.2,319.4,407.3,321.6z M392.3,331.5c-1,2.8,0.6,7.5,6.8,19.1
		c5.9,11.1,6.3,11.6,8.9,11c1.6-0.3,4.2-0.1,6,0.4l3.1,0.9l7.4-15.2c4.1-8.3,7.2-15.3,7-15.5c-0.3-0.3-3,0-6.1,0.7
		c-8.4,1.6-16,1.4-24.2-0.9C392.6,329.6,393.1,329.6,392.3,331.5z M490.9,342.1c-5.7,8.4-7.6,13.1-9.4,23.3c-1.7,10.2-2,21-0.5,20.1
		c0.6-0.3,1-1.4,1-2.4c0-3.5,8.1-18.3,12.7-23.2c7-7.5,11.8-9.5,16.3-6.7c2.6,1.6,3.4,0.6,2.6-3.4c-1-5.4-4.3-9.8-8.9-11.8
		C497.4,334.6,495.6,335.2,490.9,342.1z M468.5,344.2c-3.9,5.2-4.2,5.7-1.4,3.1c1.9-1.8,4.2-4.6,5.2-6.3
		C475.1,336.3,473.7,337.5,468.5,344.2z M355.8,354.5c-6.6-1-7.1,0.3-6.2,16.5c0.4,8.5,0.2,17.2-0.6,25.5c-1,9.4-1.1,12.8-0.2,13.7
		c0.9,0.9,3.2,0.6,9.4-1.1c10.2-2.7,31.1-12.8,30.4-14.7c-0.3-0.7-1-3.1-1.6-5.3c-1.8-6.9,1.8-17.8,7.3-21.6c2-1.4,1.8-1.6-4.4-4.4
		c-3.5-1.6-11.6-4.1-17.9-5.5C365.7,356.3,358.4,354.8,355.8,354.5z M507,355c-0.3,0-3.2,2.1-6.5,4.7c-6.2,5.1-11.2,12.9-14,21.8
		c-0.9,2.7-2.3,6.2-3.1,7.7c-1.3,2.4-1.1,3.9,1.7,16.5c1.6,7.6,3.6,17,4.2,21c0.7,3.9,1.5,7.4,1.8,7.8c0.5,0.5,19.4-3.8,31.2-7.1
		c2.4-0.7,2.2-2.8-1.7-21.6c-1.9-8.9-4.9-23.3-6.6-31.8c-1.8-8.9-3.8-16.2-4.7-17.2S507.4,355,507,355z M471.9,360l-8.2,0.1
		c-8.1,0-16.8,1.8-29.4,6c-3.5,1.1-6.3,2.5-6.3,2.9c0,0.5,1.1,2.6,2.5,4.6c4.3,6.3,4.5,15.8,0.5,21.8l-1.9,3l9.2,4.2
		c11.9,5.4,20.7,8.4,25.2,8.4c3,0,3.5-0.3,3.5-2.3c0-1.2,1.2-6.5,2.5-11.7c2.9-10.9,4.1-23.2,3.1-31.3L471.9,360z M391.9,377.4
		c-2.3,5.2-2.3,9,0,14.1c3.6,8.1,13.1,13.5,21,12c4.4-0.8,10-3.7,12.3-6.2c4.6-5,6-13.6,3.3-20c-2-4.8-4.1-7.1-8.5-9.3
		C409.1,362.6,396.8,366.7,391.9,377.4z M380.5,404.3c-5.8,3.1-14.3,6.4-20.3,8.1l-10.4,2.8l-2.6-1.9c-2.3-1.7-2.7-2.9-3-7.7
		l-0.3-5.7l-6.5,5.7c-3.5,3.1-6.4,5.9-6.4,6.3c0,0.3,3.5,2.6,7.8,5c10.5,6,17.5,10.6,24.9,16.3l6.1,4.8l11.8-17.2
		c6.5-9.5,11.8-18.2,11.8-19.3C393.5,398.3,391.1,398.8,380.5,404.3z M425,402.3c0,0.6,17.9,43,18.4,43.4
		c0.3,0.4,36.7-21.5,40.5-24.3c0.2-0.2-2.5-3.7-6-8l-6.4-7.6l-1,4.8c-0.7,3.4-1.6,5-2.8,5.2c-2.9,0.6-19.4-4.6-30.1-9.4
		C429,402.6,425,401.3,425,402.3z M397.5,404c-0.4,0-7.5,10.9-7.5,11.5c0,1,6.8,0.5,11.6-1c6.6-2,9.1-1.9,12.1,0.5
		c2.6,2,13,5.6,13.9,4.8c0.5-0.5-4.4-12.9-5.5-14.1c-0.4-0.4-2.1-0.3-3.7,0.3c-4.2,1.6-12.5,1.4-16.9-0.4
		C399.4,404.7,397.6,404,397.5,404z M413,418.9c-4.2-2.4-4.7-2.5-8.5-1.2c-2.2,0.8-7.1,1.7-10.9,2.1l-7,0.7l-6.8,10
		c-3.8,5.5-7.5,10.6-8.2,11.3c-1,1-2.9,0-10.1-5.5c-8.7-6.5-22.2-15.3-23.6-15.3c-0.4,0-1,1.7-1.3,3.7c-0.4,2.1-0.9,4.5-1.2,5.4
		c-0.3,1.1,0.6,2,2.8,2.9c1.8,0.7,16.4,7.7,32.4,15.7l29.2,14.4l17.8-6.6c9.9-3.6,18.9-7,20.1-7.5l2.3-1l-2-4.7
		c-1-2.7-3.2-7.9-4.8-11.8l-2.9-6.9l-6.4-1.6C420.4,422.2,415.4,420.3,413,418.9z M521,431.4c-2.5,0.7-10.1,2.8-17,4.6
		c-14.4,3.7-17,5-17,8.5c0,2.6,0.9,3.2,2.6,1.5c2.7-2.7,37.4-11.4,42.1-10.5c2.7,0.5,3.2,0.3,2.7-1c-0.4-0.9-1.9-2.2-3.5-3
		C527.6,429.7,526.9,429.7,521,431.4z M328.7,435.2c-1,0.5-2.2,2.1-2.8,3.5c-1.2,3.3,1,7,4.9,7.9c6.5,1.6,45.6,18,55.8,23.5
		c6.1,3.2,11.8,5.9,12.6,5.9c0.8,0,9.9-3.2,20.3-7.1c19-7.1,27.1-9.1,42.4-10.5c6.1-0.5,8.9-1.2,10.2-2.5c2.5-2.5,2.4-5.4-0.2-8
		c-1.8-1.8-2.9-2.1-7.3-1.6c-6.5,0.7-37.9,10.4-52.5,16.2c-6.2,2.5-11.9,4.5-12.8,4.5c-0.8,0-7.7-3.4-15.2-7.4
		c-13.5-7.4-20.8-11-38.6-18.8C330.2,434,330.6,434.1,328.7,435.2z M511.3,443c-19.6,5.4-21.3,6.2-21.3,9.9c0,1.6,0.8,3.7,1.7,4.6
		c1.5,1.6,1.8,1.5,3.5-1.8c2-3.9,4.2-4.8,24.1-9.9c8.5-2.2,8.9-2.2,11.9-0.5c2.5,1.4,3.3,1.5,3.9,0.5c1.4-2.2,1-4.7-1-5.8
		C530.9,438.3,526.2,438.9,511.3,443z M513.8,451c-12.8,3.3-15.8,5-15.8,8.8c0,4.8,6.3,18.3,15.5,33.2
		c11.8,19.3,12.5,20.6,18.1,34.4c3.6,8.7,5.7,12.5,7.9,14.2c2.9,2.2,29.6,14.4,31.5,14.4c2.6,0-0.7-4-8.5-10.5
		c-2.3-1.9-2.7-2.7-1.7-3.3c0.9-0.6,3.2,0,6.5,1.8c7.2,3.8,27.4,10.7,28.4,9.7c1.1-1.2-2-3.5-13.6-10.1c-5.6-3.1-10.1-6.2-10.1-6.7
		c0-2.5,3.4-1.6,11.4,3.1c4.8,2.7,8.9,5,9.2,5c0.2,0,0.4-0.6,0.4-1.4s-3.8-4-8.5-7c-4.7-3.1-8.5-6-8.5-6.6c0-1.9,3.6-1,8.4,2.1
		c5.8,3.6,7.2,3.2,2.2-0.6c-3.6-2.7-4.7-5.5-2.3-5.5c0.7,0,3.2,1.6,5.5,3.6c3.5,3,4.5,3.4,5.7,2.4c0.8-0.7,1.5-1.6,1.5-2
		c0-1.3-11.2-4.8-26-8c-10.2-2.2-15.1-3.7-16.7-5.2c-1.6-1.5-3.2-6.2-6.2-18.9c-3.8-15.5-13-42.1-16.7-47.7
		C529.5,447.4,527.3,447.5,513.8,451z M320.5,449.7c-6.2,1.5-30.4,10-39,13.7c-8.5,3.6-10,4.7-10.3,6.7c-0.3,2.9,2.3,9.6,6.4,16.1
		l2.9,4.6l12.5-11.4c6.9-6.3,17.7-15.4,24.2-20.2c7.3-5.4,11.2-9,10.5-9.4C326.4,449,323.7,448.9,320.5,449.7z M334.4,452.2
		c-2.1-0.6-32.9,24.1-49.4,39.6l-9.5,8.9l5,5.8c5.1,6,18.4,17.8,23.3,20.7l2.9,1.7l10.3-18.2c12.1-21.1,16.7-28.6,26.1-41.8
		c3.8-5.3,6.9-10.1,6.9-10.6s-3.3-2-7.2-3.3C338.8,453.6,335,452.4,334.4,452.2z M475.1,459c-0.4,0-1.3,0.6-1.9,1.2
		c-0.7,0.7-3.5,1.5-6.2,1.8l-5,0.5l8.6,10.5c10.6,13,19.4,26,24.5,36.2c2.2,4.3,4.3,7.8,4.8,7.8s3-2.3,5.5-5.2l4.5-5.2l-6.7-13
		c-6.1-11.8-7.7-14.1-17.1-23.8C480.4,463.8,475.4,459,475.1,459z M354.5,460c-3,0.1-46.5,71.1-46.5,75.8c0,2.6,36.3,17.4,38.1,15.5
		c0.4-0.4,3.5-9.4,6.8-19.9c3.4-10.6,9.8-28.1,14.2-39c4.4-11,8.3-20.8,8.5-21.9c0.4-1.7-1-2.6-9.8-6.3
		C360.1,461.9,355.1,460,354.5,460z M445.6,464.6c-3.8,0.8-7,1.5-7.1,1.6c-0.2,0.2,2.3,6.7,5.5,14.5c6.7,16.4,13.3,35.6,18,52.8
		c1.8,6.6,3.7,12.4,4.1,12.9c1.1,1.3,20.8-8,28.1-13.4l6.7-4.9l-4.6-8.8c-9-17.1-15.3-27-26.5-41.3
		C457,461.7,457.8,462.1,445.6,464.6z M433.1,468.1c-1.2,0.1-15,5.1-19.3,7.1c-0.3,0.2-0.2,2.5,0.3,5.3c2.3,13.3,5.1,44,5.6,61.6
		l0.6,19.5l11.6-1.8c9-1.4,29.1-6.8,30.9-8.3c0.3-0.2-1.6-7.7-5.4-21.5c-4.2-15-12.7-38.7-21.1-58.3
		C435.4,469.5,434,468,433.1,468.1z M388.5,475.5c-8.2-4.5-8.4-4.5-9.5-2.5c-5.4,10-30.6,80.7-29.7,83.3c0.4,1.2,12.4,5.1,25.2,8.2
		c7.1,1.7,14.5,2.5,25.8,3l15.7,0.7v-22c0-17.8-0.5-25.6-2.5-40.8c-1.4-10.4-2.8-20.9-3.1-23.4c-0.3-2.4-0.7-4.6-0.9-4.9
		c-0.2-0.2-2.2,0.4-4.5,1.3c-2.2,0.9-5,1.6-6.1,1.6C397.7,480,393.1,478,388.5,475.5z M339.2,553.9c-2.8-1-5.2-1.5-5.2-1.2
		s2,5.2,4.5,10.8c11.8,27.2,23.7,60.1,28.6,79.3c1.3,5.1,2.6,9.2,2.9,9.2s2.3-2.8,4.5-6c2.2-3.3,6.6-8.6,9.8-11.7l5.7-5.7l7.3,7.2
		c7.9,7.9,11.4,9.9,4.9,2.8c-5.8-6.3-7.9-11.1-9.3-21.2c-1.3-9.3-1.8-31-0.9-40.4l0.5-5.4l-9-1.3c-4.9-0.7-15.7-3.4-24-6.1
		c-12.2-3.9-15-5.1-15-6.6C344.5,556.2,343.1,555.2,339.2,553.9z M441,561.6c-5.2,1.3-12.1,2.7-15.2,3c-5.6,0.5-5.8,0.6-5.8,3.5v2.9
		h-11.4c-6.9,0-11.7,0.4-12.1,1s-0.9,7.9-1.2,16.3c-0.9,26.2,2.4,41.7,10.4,48.7c2.9,2.6,4.1,3,9.4,3c5.7,0,6.2-0.2,10.7-4.4
		c3.5-3.3,6.6-8.1,11.8-18.3c8.4-16.3,10.5-22.2,13.9-40.3c1.4-7.4,2.8-14.5,3-15.8C455.2,558.4,453.8,558.4,441,561.6z
		 M446.2,613.6l-0.7-3.9l-4.7,9.9c-5.3,11.3-8.8,16.1-15.3,21.1c-4.2,3.4-4.8,3.5-10.6,3.1l-6.1-0.4l0.5,5.3
		c1.1,10.5,6.5,17.7,13.5,17.7c2.5,0,4.3-1.1,8.3-5c2.7-2.7,6.3-7,8-9.5c3.5-5.5,7.9-21.9,7.8-29.3
		C446.9,619.8,446.6,615.8,446.2,613.6z M390,634c-1.3,0-9.4,9.4-14.4,16.7c-3.1,4.6-4.9,8.5-5.6,12.2c-0.6,3-0.9,5.6-0.7,5.8
		c0.2,0.2,2.1-2.4,4.2-5.8c4.9-8,15.3-20.9,16.9-20.9c1.1,0,11.3,11.2,20.2,22.2c2.1,2.6,4,4.5,4.3,4.3c0.2-0.3-1.2-2.2-3.2-4.4
		c-2.2-2.5-4.3-6.2-5.3-9.7c-1.3-4.5-3-7-8.6-13C393.9,637.3,390.4,634,390,634z M390.5,647.1c-0.5,0-5.9,6.8-11.8,15.2l-10.9,15.2
		l0.7,8.5c1.2,16.7,3.4,31.6,5.9,40c6.3,21.8,8.4,37.5,9.1,67c0.4,21.2,1.6,27.7,6.2,36.3c3.4,6.2,9.7,13.3,13.4,15.2
		c3.6,1.9,11.2,1.9,14.7,0.1c6.4-3.3,8.9-8.7,9.9-20.6c0.4-6.2,0.1-9.1-2.1-17c-8.5-30.4-10.6-50.5-11.1-103.7
		c-0.2-15.5-0.7-28.8-1.2-29.6c-0.4-0.9-5.5-7.2-11.3-14.1C396.2,652.7,391.1,647.1,390.5,647.1z"/>
	<path d="M416.5,112.7c6.5,6.8,10,14.3,6.6,14.3c-0.4,0-2.2-2.1-3.8-4.8c-1.7-2.6-4.3-5.8-5.7-7.1c-1.4-1.4-2.6-3.3-2.6-4.3
		C411,108.1,412.5,108.6,416.5,112.7z"/>
	<path d="M441.9,114.3c2.9,0.4,2,2.5-2.3,5.2c-2.5,1.6-5.9,4.8-7.6,7.2c-3.2,4.3-4.4,5.1-5.5,3.3c-1.4-2.2,4.8-9.9,11.5-14.3
		C439.4,114.8,441.1,114.2,441.9,114.3z"/>
	<path d="M411.6,119.4c5.1,3.4,11.4,10.4,11.4,12.5c0,2.2-3,1-5.2-2c-1.3-1.7-4.9-4.9-8-7.1c-5.7-3.8-6.5-4.8-5.1-6.1
		C405.7,115.6,406.2,115.8,411.6,119.4z"/>
	<path d="M401.7,125c2.9,0,13.9,5.9,18.5,10c2.5,2.2,4.9,4,5.2,4c0.4,0,2.1-1.5,3.9-3.3c3.5-3.5,16.4-10.7,19.1-10.7
		c0.9,0,1.6,0.7,1.6,1.5c0,0.9-3,3-7.3,5.1c-4.5,2.1-9.3,5.4-12.2,8.4l-4.8,4.9l-5.6-5.1c-3.1-2.7-8.5-6.3-12.1-8
		c-7.3-3.3-9.2-4.6-8.4-5.9C399.9,125.4,400.8,125,401.7,125z"/>
	<path d="M470.6,211.6c8.3,5.4,13,17.1,12,29.9c-0.7,9.3-1.4,12.5-2.9,12.5c-0.6,0-3.2-1.8-5.8-4c-2.6-2.2-5-4-5.2-4
		c-0.3,0-0.1,1.7,0.4,3.7c1.6,7.3,2.2,19.3,1,19.3c-0.7,0-0.9,0.9-0.5,2.5c0.8,3.1-1.5,3.4-4.1,0.5c-2.2-2.4-4.4-2.6-6-0.3
		c-1.2,1.5-1.5,1.4-3.7-1.1c-2.4-2.8-2.5-2.9-5.1-1.1l-2.7,1.7v-4c0-2.4-1.3-6.7-3.2-10.8c-7.6-16-3.3-37.7,8.8-45.1
		C459,208.1,465.4,208.2,470.6,211.6z M453.5,216.1c-5.9,5.4-8.5,12.4-8.5,22.7c0,9.5,1.1,13.7,5.3,19.9c3.6,5.3,9.2,8.1,14,6.9
		c2.4-0.6,2.7-1.1,2.7-4.9c0-7.1-0.9-9-3.8-8.4c-3.9,0.7-6.8-0.8-9.6-5c-3.7-5.7-4.9-12.1-3.5-20c2.2-12.5,11.6-18.5,18.1-11.6
		c5.5,6,7.2,12.7,5.6,22.2c-1,6.2-1,6.5,1.3,8.2s2.4,1.7,3.2-0.4c0.5-1.2,0.7-5.6,0.5-9.7c-0.5-9-3.4-15.5-9-20.6
		C464.2,210.4,459.5,210.6,453.5,216.1z M455.6,239c1.6,4,3.9,6,6.8,6c1,0,1.5-0.8,1.3-2.3c-0.1-1.7,0.3-2.2,1.9-2s2.4-0.6,3.3-3.6
		c2.3-7.8,1.3-13.9-3.2-18.9C458.4,210.2,450.6,226.4,455.6,239z"/>
	<path d="M418.2,261.8c1.4,1.4,0.5,5.7-1.2,5.7c-1.9,0-2.5-3.2-0.9-5.1C416.8,261.5,417.7,261.3,418.2,261.8z"/>
	<path d="M371.7,268.6c0.7,1.8-1.2,6.4-2.7,6.4c-1.7,0-2.3-3-1.2-5.6C369.1,266.7,370.8,266.3,371.7,268.6z"/>
	<path d="M381.5,269c1.8,1.5,2,4.6,0.4,5.6c-1.8,1.1-3.2-1.3-2.5-4.1C380,268.3,380.3,268,381.5,269z"/>
	<path d="M416.7,270.2l11.8,0.3l0.6,5.5c1.2,11.3-2.1,23.8-7.3,27.4c-5,3.6-11.1,0.8-15-6.7c-1.7-3.2-2.3-6.5-2.6-13.9
		c-0.2-5.4-0.2-10.5,0.2-11.3C404.9,270.2,406.8,270,416.7,270.2z M425.5,274.5l-9.3-0.3l-9.3-0.3l0.6,8.3
		c0.7,8.6,3.5,16.3,6.7,18.2c2.8,1.7,6.7-0.9,9-6.2c1.6-3.4,2.2-6.8,2.2-12.2L425.5,274.5z"/>
	<path d="M455.4,275.9c1.5,1.6,1.5,1.9,0.1,3.1c-1.3,1.1-1.9,1.1-3.1-0.2c-0.8-0.8-1.2-2.2-0.8-3.1
		C452.4,273.5,453.3,273.6,455.4,275.9z"/>
	<path d="M465.6,276.6c1.5,2.2,1.5,2.7,0.3,3.5c-1.5,1-4.9-2.2-4.9-4.7C461,273.1,463.8,273.8,465.6,276.6z"/>
	<path d="M406.6,373.4l2.8,2.3l3.4-2.3c4.6-3.2,7.7-3,11.3,0.5c3.8,3.8,3.9,8.6,0.2,15.3c-3.2,5.8-10.4,11.8-14.1,11.8
		c-6.5,0-16.2-10.8-17-18.9c-0.4-4.1-0.1-5,2.6-7.9C399.4,370.3,402.8,370.1,406.6,373.4z M398.6,376.6c-3.8,3.7-0.1,13.5,6.8,18.2
		c4.4,3,5.9,2.8,10.7-1.5c6.6-6,8.9-13.1,5.3-16.7c-2.5-2.5-5-1.9-8.3,2.1l-3.1,3.7l-3.4-3.7C402.9,374.7,401,374.2,398.6,376.6z"/>
</g>
</svg>
