<?xml version="1.0" encoding="utf-8"?>
<!-- Generator: Adobe Illustrator 21.0.0, SVG Export Plug-In . SVG Version: 6.00 Build 0)  -->
<svg version="1.1" baseProfile="tiny"
	 id="svg94" inkscape:version="0.92.2 5c3e80d, 2017-08-06" sodipodi:docname="51.svg" xmlns:cc="http://creativecommons.org/ns#" xmlns:dc="http://purl.org/dc/elements/1.1/" xmlns:inkscape="http://www.inkscape.org/namespaces/inkscape" xmlns:rdf="http://www.w3.org/1999/02/22-rdf-syntax-ns#" xmlns:sodipodi="http://sodipodi.sourceforge.net/DTD/sodipodi-0.dtd" xmlns:svg="http://www.w3.org/2000/svg"
	 xmlns="http://www.w3.org/2000/svg" xmlns:xlink="http://www.w3.org/1999/xlink" x="0px" y="0px" viewBox="0 0 850 850"
	 xml:space="preserve">
<sodipodi:namedview  bordercolor="#666666" borderopacity="1" gridtolerance="10" guidetolerance="10" id="namedview96" inkscape:current-layer="svg94" inkscape:cx="525.10802" inkscape:cy="796.62852" inkscape:pageopacity="0" inkscape:pageshadow="2" inkscape:window-height="978" inkscape:window-maximized="1" inkscape:window-width="1920" inkscape:window-x="0" inkscape:window-y="1" inkscape:zoom="0.83294118" objecttolerance="10" pagecolor="#ffffff" showgrid="false">
	</sodipodi:namedview>
<g id="g92" transform="translate(0.000000,0.000000) scale(1.00000,1.00000)">
	<path id="path4" fill="none" d="M0,0l214.3,0.1h214.2l-5.5,2c-3.8,1.4-10,2.3-20,3c-18.2,1.2-24.1,2.2-31,5.6
		c-7.3,3.6-15.5,11.4-17.6,16.9c-2.2,5.7-1.5,14,1.4,18.2c5.6,7.8,25.2,12.3,37.1,8.5c0.9-0.3-0.6,0.8-3.4,2.5
		c-10.9,6.5-16.6,13-21.6,24.8c-2.5,5.8-2.6,6.9-2.2,18.5c0.3,7.6,1.1,14,2,16.6c1,2.7,1.3,5.7,0.9,8c-0.3,2.1,0.2,8,1.1,13.1
		c0.9,5,1.4,9.4,1.2,9.5c-0.2,0.2-6.5,3.3-13.9,6.9c-7.4,3.6-16.6,8.9-20.4,11.8c-7.7,5.9-14.6,12.7-14.6,14.4
		c0,0.6,4.2,2.1,9.3,3.4c12.5,3.1,22.1,7.8,28.4,13.9c5.7,5.6,7.1,9.6,5.6,16c-0.8,3.8-0.9,3.8-14.8,9.3
		c-16.7,6.7-18.5,8.4-18.5,18.4c0,3.4-0.7,8.9-1.5,12.4c-1.4,6-1.4,6.7,0.6,13.4c2,6.4,2.1,8.6,1.6,21.7c-0.4,8-1.4,19.1-2.2,24.6
		c-1,6.3-1.4,12.4-1,16.5c0.5,5.4,0,8.6-2.4,18c-5.1,19.5-23,67.4-30.3,81c-8,14.8-9.4,16.6-18.1,22.1c-13.5,8.5-32.8,23-38.9,29.2
		c-5.7,5.8-12.6,17.6-11.4,19.6c0.4,0.5,2.2,0.7,4,0.4c5-0.8,12.4,2.1,22.9,8.9c5,3.3,9.5,6.3,9.9,6.7s-1.3,6-3.7,12.5
		c-2.5,6.5-4.5,12.9-4.5,14.3c0,1.3-3.6,11.9-8.1,23.6c-15.9,41.6-20.5,56.3-31.7,101.2c-9.7,38.6-12.9,63.6-11.9,90.6l0.5,14.7
		l5.5,12.5c5.9,13.7,18.3,35.7,23.5,41.8c2.9,3.4,18.3,13.9,20.4,13.9c1.3,0,0.9-3.4-1.2-9.5c-2.7-7.9-2.6-10.1,1.6-20.8
		c4.6-12.2,8-18,18-31.4c9.1-12.1,17-19.2,27.9-24.9c9.4-4.9,10.1-4.7,10.8,2.7c0.5,5.8,1.2,7.2,7.2,15.5c1.2,1.7,1.6,7.6,2,34
		c0.3,17.5,0.8,34.5,1.1,37.6l0.5,5.8H161.5H0V425V0z"/>
	<path id="path6" fill="none" d="M641,0h209v425v425H717.1h-133l-2.1-5.6c-2.6-7.1-9.2-30.5-8.7-31c0.2-0.2,9.8-3.9,21.3-8.3
		c20.9-7.9,29.8-10.1,41.4-10.1c10.5,0,10.5-1.9,0-5.9c-11.7-4.5-18.9-6-33.8-6.7c-13.3-0.7-13.3-0.7-14.8-3.5
		c-2.1-4.2-1.7-5.5,0.9-3.1c4.9,4.6,5,1.6,0.1-8l-3.6-7.1l1.7-4.4c2.5-6.5,9.7-15.4,18-22.4c4.1-3.5,7.7-6.9,8-7.7
		c0.6-1.7-5.6-7.9-10.1-10.2c-5.1-2.5-25.6-18.2-33.3-25.5c-21-19.9-36.5-44.9-44.6-72c-1.4-5-5.3-17.1-8.5-27s-9-28.6-12.9-41.5
		s-8-26-9.2-29c-1.1-3-2.5-7.5-2.9-10c-0.5-2.5-2.2-8.4-3.9-13.1c-1.7-4.8-3.8-13.3-4.7-19c-2.2-13.7-4.7-25.8-7.3-34.4
		c-1.2-3.9-2.8-11.8-3.7-17.6c-1.5-10.4-1.5-10.8,0.6-16.5c1.2-3.2,3.5-9.9,5.2-14.8l3.1-8.9l-1.8-9.1c-0.9-5-1.7-14.3-1.8-20.6
		c-0.1-10.9,0.1-11.9,3.1-19c1.8-4.1,6.6-13.4,10.6-20.5c4.1-7.2,8-14.3,8.8-15.9l1.5-2.9l0.6,3c0.3,1.6,0.9,7.7,1.2,13.4
		c0.8,13.4,4.9,37.3,7.4,43.5c3.3,8.2,19.8,39.5,22.2,42c2.9,3.1,13.2,8.3,17.9,9c8.2,1.3,20.7-6.9,24.6-16.2
		c0.8-2,5.2-15.8,9.8-30.7c8.9-28.9,10.8-38.1,12.7-62.2c0.8-11.5,1.6-15.3,4-21.3c3.9-9.9,3.8-13.5-0.5-17.8
		c-3.6-3.6-5.7-4.1-10.2-2.4c-1.8,0.7-3,0.7-3.9,0c-1-0.8-0.5-2.8,2.2-9c4.4-10.2,4.3-14.5-0.6-17.7c-5.6-3.8-8.7-3.1-14.8,3.2
		c-2.9,3-5.6,5.5-6,5.5c-1.1,0-10.8-6.3-12-7.9c-0.7-0.8-1.3-2.8-1.3-4.3c0-2.7-10-23.1-14.2-29c-1.6-2.3-2.7-2.8-5.1-2.6
		c-6.4,0.6-9.6,10.2-6.2,18.4l1.5,3.6l-2.3-1.4c-2.8-1.9-8.3-3.7-11.9-4c-1.6-0.1-2.8-0.5-2.8-0.9c0-0.8,11.8-16.3,19.9-26.2
		c3.1-3.8,6.5-8,7.5-9.3c1.5-1.8,1.7-2.7,0.9-3.5c-0.7-0.7-8.2-4.4-16.9-8.4c-15.2-7.1-15.8-7.4-19-12.4c-1.7-2.9-4.2-8.9-5.4-13.4
		c-3.7-13.9-11.9-39.5-14.6-45.4c-3.5-8-12.6-21.4-19.8-29.1c-3.7-4-5.3-6.3-4.1-5.9c10.2,3.2,20.5,4.8,26.3,4.2
		c7.2-0.8,19.1-3.9,20.6-5.5c1.7-1.7-1.6-3.6-8.7-4.9c-10-1.9-10.8-2.4-5.2-3.2c11.1-1.6,16.5-1.1,23.7,2.3c5.3,2.4,7.1,2.9,8,2
		c1.6-1.6-8.6-11.2-15.4-14.6l-4.8-2.4l4.8-3c7.4-4.8,13.3-7.2,18-7.2c5.7,0,5.1-1.9-1.4-4.3c-6.3-2.4-13.6-1.8-22.7,1.8
		c-4.8,2-7.7,2.6-10,2.1c-6.4-1.2-25.9-7.3-25.1-7.8c0.5-0.3,2.8-0.9,5.1-1.3c4.5-0.7,7.6-3.1,5.2-3.9c-0.8-0.2-4.3-0.7-7.9-1
		s-12.1-2.1-19-4.1c-6.9-1.9-15-3.8-18-4.2c-3-0.3-4.9-0.8-4.2-1.1c0.6-0.2,1.2-1,1.2-1.8C432,0.2,461.4,0,641,0z"/>
	<path id="path8" fill="#660099" d="M419.6,7.1c0.5,0,1.5,0.4,2.1,1c0.8,0.8,2.4,0.8,6-0.1c4.6-1.2,5.9-1,17.4,2
		c6.8,1.8,14.9,3.8,17.9,4.5l5.5,1.2l-3.5,0.7c-1.9,0.4-4.8,0.3-6.3-0.3c-3.5-1.4-6.7-1.4-6.7-0.1c0,1.4,6.1,3.8,17,6.6
		c5.2,1.4,13,3.8,17.2,5.4c4.3,1.7,8.7,3,9.9,3c1.1,0,5.1-1.3,8.7-2.9C512.1,25,520,23.3,520,25c0,0.5-0.6,1-1.3,1
		c-0.8,0-4.5,2-8.5,4.6c-3.9,2.5-8.8,4.7-10.9,5c-6.9,1-8.3,1.4-8.3,2.9c0,1.1,1.3,1.5,5.5,1.5c5.8,0,14.4,2.8,18.5,6l2.5,1.9
		l-5-1.5c-4-1.2-6.4-1.3-12-0.5c-3.8,0.5-9.7,1.3-13.1,1.6c-12.3,1.3-11.2,3.6,3.4,6.8c5.6,1.2,10.2,2.5,10.2,2.8
		c0,0.9-13.1,2.9-18.8,2.9c-5.8,0-23.9-4.5-39.7-9.8c-10.6-3.6-11-3.8-10.7-6.4c0.2-1.5-0.2-3.7-0.8-4.9c-1.1-2-1.8-2.1-7.4-1.7
		c-8.5,0.7-10.6,2-10.6,6.3c0,1.9-0.2,3.5-0.5,3.5s-6,1.2-12.7,2.6c-15.7,3.4-26.7,3.1-34.4-0.9c-9-4.6-11.4-11.6-7.2-20.9
		c2.8-6.1,7.8-10.5,16-14.3c7-3.2,13.9-4.5,24.7-4.6C403.6,8.8,410,8.5,413,8C416,7.6,419,7.2,419.6,7.1z"/>
	<path id="path10" fill="#6633CC" d="M423.3,41.1c4.3-0.1,4.7,0.1,4.7,2.3c0,2.6-2.1,3.6-8.2,3.6c-3.4,0-3.8-0.3-3.8-2.4
		c0-1.3,0.6-2.7,1.3-2.9C417.9,41.4,420.6,41.1,423.3,41.1z"/>
	<path id="path12" fill="#660099" d="M474.4,82.4c7.6,11.3,10.1,17.4,18.4,45.4c6,20.1,6.6,23,4.8,21.3c-1.2-1.2-2.5-2.1-2.9-2.1
		c-1.1,0-0.8,3.8,0.3,4.5c2,1.2,1,2.6-1.1,1.5c-1.1-0.7-2.2-1-2.4-0.8c-0.2,0.2,0.8,3,2.1,6.3c2.5,6,2.8,10.3,0.4,5.2
		c-2.2-4.5-3.5-2.5-4.1,6.4c-0.3,5-0.6-2-0.7-16.9c-0.2-19.3-0.6-27-1.8-32.5c-2-8.7-7.2-22.7-8.5-22.7c-1.5,0-1.1,2.2,2.2,12.6
		c3.4,11.2,4.9,21.9,4.8,34.4l-0.1,8.5l-1.8-9c-1.5-7.2-6.6-27.1-9.7-37.8c-0.4-1.4-3.3-2.6-3.3-1.3c0,0.2,2,7.9,4.5,17.1
		c6.1,23.2,8.3,34.9,8.9,49.7c0.4,9.8,0.2,13.8-1,18c-2.1,7.1-3.9,8.8-3,2.8c1.8-11.9,1.9-16.5,0.4-17.8c-1.3-1-1.6-0.2-2.1,6.4
		c-0.4,5.4-1.4,9.2-3.3,13.2c-2.6,5.2-2.8,5.5-3.8,3.3c-0.7-1.6-0.6-2.5,0.2-2.9c3.6-2.3,4-11.4,1.2-28.7c-1.1-6.6-2-12.3-2-12.8
		c0-0.4-0.7-0.7-1.6-0.7c-1.2,0-1.4,0.7-1,2.7c2.2,11,3.7,22.7,3.4,27.8l-0.3,6l-3.4-6.5c-5-9.8-19.2-31.1-20.2-30.4
		c-1.5,0.9-1.1,1.8,4.7,10.4c5.5,8.2,9.9,16,9,16c-0.3,0-4-5.1-8.4-11.3c-4.4-6.1-11.2-15.5-15.1-20.7c-6.4-8.5-21-33.9-30.4-52.5
		c-5.9-11.6-15.9-26-18.4-26.3c-2.5-0.4-6.2,4.1-10.3,12.6c-2.5,5-3.7,5.8-7.3,4.4c-1.6-0.7-1.5-1.1,0.9-5.9
		c6.8-13.8,24.1-25.8,40.2-28.2C439.2,47.2,457.1,56.3,474.4,82.4z M395,68.7c0,1.2,1.1,1.4,7.4,0.8c6.1-0.6,8.1-0.4,11.7,1.2
		c6,2.7,10.2,6.4,15.3,13.7C452,116.7,454,119.2,454,116c0-1.2-8-13.4-20.1-30.6c-8.3-11.8-12.3-15.6-19-17.9
		C408.4,65.2,395,66,395,68.7z M439.6,76.8c-0.3,0.5,2.1,4.3,5.3,8.5c12.8,16.7,20.4,35.8,27.7,69.9c1.5,7.1,2.5,9.1,3.7,7
		c0.3-0.4-0.6-5.7-1.8-11.7c-6.3-30-13.6-48.5-25.4-64.2C442.5,77.5,440.4,75.5,439.6,76.8z M421,105.3c0,4.9,25.1,48,25.8,44.3
		c0.2-1-3.2-8.1-7.6-15.9c-4.4-7.8-9.9-17.7-12.3-21.9C422.7,104.3,421,102.5,421,105.3z M461.6,130.8c-0.3,0.5,0.6,3.6,2.1,6.8
		c3.1,7,2.9,6.8,4.2,6c0.6-0.4,0-2.8-1.5-6.4C463.5,130.8,462.5,129.4,461.6,130.8z"/>
	<path id="path14" fill="#6633CC" d="M389.7,72.1c1.2,1,1.1,1.5-0.5,3.3c-2.7,2.9-5.2,8.1-5.2,10.6c0,2.1-3.3,2.9-4.5,1.1
		c-0.5-0.9,2.5-6.6,7.1-13.6C387.9,71.5,388.5,71.2,389.7,72.1z"/>
	<path id="path16" fill="#6633CC" d="M392.5,77c1.9,0,1.9,0.9,0,3.4c-0.8,1.1-1.5,3.6-1.5,5.7c0,3.3-0.2,3.6-2.5,3.1
		c-2.9-0.5-2.8-1.7,0.6-8.5C390.2,78.7,391.7,77,392.5,77z"/>
	<path id="path18" fill="#6633CC" d="M396.3,80.9c0.6,0.6,0.2,1.9-1.2,3.7c-2.3,2.9-2.8,2-0.9-2.1C394.9,80.9,395.7,80.3,396.3,80.9
		z"/>
	<path id="path20" fill="#CCFF00" d="M370.4,88.5c1.2,0.3,4.6,1.3,7.6,2.1c3,0.9,10,1.9,15.4,2.3c6.6,0.4,10.1,1,10.4,1.8
		c0.3,1-1.9,1.3-8.6,1.3c-10.5,0-10.3-0.3-10.3,11v7.1l-6.7-8.8c-4.5-5.8-6.8-8.1-7-7c-0.4,1.9,2.5,6.5,7.2,11.4
		c1.6,1.8,2.6,3.3,2.2,3.3c-1.1,0-9.3-4.9-10.4-6.3c-0.5-0.7-1.2-5.2-1.4-10C368.4,88.1,368.4,87.9,370.4,88.5z"/>
	<path id="path22" fill="#CCFF00" d="M406.8,100.4c2,1.9-0.4,6.4-3.8,7.1c-2.2,0.5-2.7,1.1-2.7,3.5c0,3.2,2,4.1,3.4,1.6
		c0.4-0.8,1.5-1.6,2.3-1.7c2.2-0.5,11,5.9,11,8.1c0,1.7-24.2,1.3-26.6-0.4c-1.9-1.4-1.9-1.4,0.1-1.3c1.4,0.1,2-0.4,2-1.8
		c0-1.5-0.6-1.9-2.2-1.8c-1.6,0.2-2.3-0.3-2.3-1.5c0-1.3,0.7-1.8,2.1-1.8c2.5,0.1,3.3-1.2,2-3.3c-0.8-1.2-1.2-1.2-2.5-0.2
		c-1.4,1.2-1.6,1-1.6-1.3c0-1.6,0.4-2.5,1-2.1c0.6,0.3,1.9,0.3,3.1,0c1.6-0.6,1.8-0.9,0.8-2.2c-0.7-0.8-2.1-1.2-3.1-1
		c-1.7,0.5-2.4-0.3-1.3-1.5C389.5,97.8,405.5,99.2,406.8,100.4z"/>
	<path id="path24" fill="#99CC00" d="M368.7,108.6l2.9,2.7c1.6,1.6,5.5,3.6,8.6,4.5c3.2,0.9,5.8,2.3,5.8,2.9c0,3.2,4.7,4.4,19.2,4.8
		c8.4,0.3,14.4,0.9,14.6,1.5c0.6,1.7-26.1,1.1-37.2-0.8l-9.9-1.7l-1.2-4.5c-0.7-2.5-1.7-5.6-2.1-6.9L368.7,108.6z"/>
	<path id="path26" fill="#CCCC99" d="M384,129l2.5,2l-3.2-0.6c-2.9-0.6-3.3-0.4-3.3,1.4c0,2.8,5.7,9.2,9.7,10.8
		c4,1.7,9.5,1.8,11.1,0.2c1-1,1.7-1,3.2,0c1.2,0.7,2.1,0.8,2.5,0.2c0.9-1.4-0.7-3.8-4.1-6.2c-2.7-1.9-2.7-2-0.5-1.4
		c2.6,0.5,6.1-0.8,6.1-2.4c0-0.6-1.7-1-3.7-1c-2.1,0-4.4-0.4-5.1-0.9c-0.8-0.5,2.7-1.1,8.5-1.4c5.4-0.4,10.8-1,12-1.3
		c3.2-0.9,4.3,2.2,1.4,4.2c-2.4,1.7-5.1,6.5-5.1,9c0,1.3,0.3,1.4,1.4,0.5s1.4-0.3,1.9,3.1c1.1,8.3,6.7,12.9,16.8,13.7
		c7,0.6,7.1,0.6,10.5,5.2l3.4,4.7l-7.7,6.6c-8.3,7-19.8,13.4-24.9,13.8c-4.3,0.3-12.9-5.1-21.4-13.3c-10.7-10.4-15.9-23.1-17.3-42.2
		C378.2,126.2,379.2,125.2,384,129z M406.7,165.7c-0.9,0.9,1.2,3.3,2.9,3.3c1.9,0,1.8-2.6-0.2-3.4
		C407.5,164.9,407.5,164.9,406.7,165.7z M413.7,167.5c-0.4,0.8-0.2,1.7,0.3,2c1.3,0.8,6.2-1.4,5.5-2.5
		C418.6,165.5,414.3,165.8,413.7,167.5z M427.5,172.1c-2.2,0.4-8.9,0.8-14.9,0.8c-12.2,0.1-13,1.2-3.3,4.5c5,1.7,5.7,1.7,11.6,0.2
		c6.7-1.7,12.8-4.3,13.7-5.7C435.2,170.9,433.1,170.9,427.5,172.1z M415,180.5c-6.5,0-6.8,0.1-5.3,1.7c2.1,2.4,8.5,2.4,10.6,0
		C421.8,180.6,421.5,180.5,415,180.5z"/>
	<path id="path28" fill="#66CC00" d="M425.7,135.3c1.4,1.3,1.4,1.8-0.1,3.8c-2.1,3.1-2,5.1,0.5,8.3c1.6,2,2.9,2.6,5.9,2.6
		c3.2,0,4.3,0.6,6,3l2.1,3h-3.3c-5.7-0.1-11.7-3.4-13.4-7.7c-1.5-3.6-1.4-10.9,0.2-13.5C424,134.2,424.8,134.4,425.7,135.3z"/>
	<path id="path30" fill="#6699CC" d="M370.3,151c0.4,0,0.7,1.9,0.7,4.2c0.1,15.6,4.2,26.1,13.3,34.4c5.5,5,12.3,9.1,13.3,8.2
		c0.2-0.2-0.8-2.1-2.3-4.2c-2.7-4.1-2-4,4,0.8c3.1,2.4,3.7,3.6,3.7,6.6c0,4.3-1.3,5.7-8.7,9.4c-6.7,3.4-9.1,3.3-10.4-0.1
		c-2-5.3-10.1-16.3-15.2-20.6c-6.5-5.5-14.8-10.8-20.6-13.1c-4.3-1.7-6.4-1.7-15.6,0.1l-3,0.5l2.4-2.6c3.7-4,15.5-11.8,27.1-18
		C364.8,153.5,369.8,151,370.3,151z"/>
	<path id="path32" fill="#99FF99" d="M376,152c1.2,0.6,2.8,2.8,3.6,4.8c3.3,8.6,7.3,14.8,13.1,20.5c5,4.9,6.2,6.7,6.5,9.8
		s0.1,3.6-1.2,2.9c-3.5-1.9-10.7-10.9-13-16.2c-1.4-3.2-2.9-5.8-3.3-5.8c-0.5,0-0.6,0.8-0.3,1.7c0.3,1,0.8,3.1,1.2,4.8
		c0.4,1.6,2.3,6.1,4.2,10c2.8,5.8,3.1,6.7,1.3,5.1c-3.4-3.1-5.7-7.5-8.7-16.6c-1.5-4.7-3.2-8.8-3.7-9.2c-0.6-0.3-1.3-3.4-1.5-6.8
		C373.7,150.9,373.8,150.8,376,152z"/>
	<path id="path34" fill="#6699CC" d="M497.5,158c1.6,0,37.7,15.9,39,17.2c0.2,0.2-14,7.6-31.5,16.4l-31.9,16l-6.2-1.8
		c-6.1-1.7-10.9-5.1-13.1-9.3c-0.8-1.5-0.3-1.3,2.2,0.8c1.8,1.5,3.4,2.6,3.6,2.4c0.2-0.2-0.1-1.8-0.7-3.6c-1.8-5.1-0.5-4.6,3.6,1.5
		c3.4,4.8,4,5.4,5.1,4c1-1.5,1.3-1.4,2.6,0.6l1.5,2.2l3.2-3.4l3.1-3.4v2.7c0,1.5,0.4,2.7,0.9,2.7c1.1,0,6.1-6.2,6.1-7.5
		c0-0.4,1.1-1.8,2.4-3c3-2.8,4.5-7.7,5.3-17.4l0.6-7.4l2.9,6.1c1.6,3.4,3.4,6.2,4,6.2c1.1,0,0.3-10.4-1.1-14.3
		c-0.5-1.2-1.1-3.4-1.5-5C497.3,159.2,497.2,158,497.5,158z"/>
	<path id="path36" fill="#99FF99" d="M451.1,171.5l6.2,6.6c3.4,3.7,7,6.9,8,7.2c1.8,0.7,2,3.5,0.8,9.2l-0.6,3l-2.1-3
		c-3.2-4.6-5.4-9.2-5.4-11.5c0-1.1-0.4-2-0.9-2c-1.5,0-3.3,5.7-2.6,8.1c0.4,1.3,0.3,1.9-0.3,1.5c-1.4-0.9-3.2-8.8-3.2-14.3
		L451.1,171.5z"/>
	<path id="path38" fill="#CCCC99" d="M447.5,175.4l1.1,10.7c0.9,9.1,1.4,11.2,3.7,14.2c3.3,4.3,8,7.3,13,8.2c2,0.4,3.7,1,3.7,1.4
		s-4.7,3.3-10.4,6.5c-5.7,3.2-15.1,9.4-21,13.7c-6.9,5.1-12.1,8.2-14.9,8.9c-5.8,1.3-18,1.2-25.2-0.3l-6-1.3l-2.2-8.4
		c-2.6-10.4-2.7-12-0.8-12c0.8,0,1.5,0.4,1.5,0.8c0,0.4,3.2,1.8,7,3.1c4,1.3,7.6,3.1,8.3,4.2c1.3,2.1,3.7,2.6,3.7,0.6
		c0-3.2-3.3-5.7-10.2-7.8l-7.1-2.1l4.4-2.5c7.8-4.5,8.6-4.6,9.8-1.2c1.6,4.6,3.5,3.7,2.7-1.3c-0.4-2.3-1.1-4.5-1.5-4.8
		s-1.1-4.4-1.5-9.2l-0.6-8.7l5,2.6c4.6,2.4,5.3,2.5,9.7,1.4c7.4-1.9,14.3-5.6,21.3-11.4L447.5,175.4z M441.3,188.7
		c-2.8,8.4-5.9,13-13.6,20.6c-4.6,4.5-9.2,9.4-10.2,10.9c-0.9,1.6-2.3,2.8-3.1,2.8c-1.8,0-4.8,4.6-3.8,6.1c0.5,0.9,1,0.8,1.8-0.3
		c2-2.7,5.1-3.7,19.7-6.3c16.4-3,23.9-5.3,23.9-7.3c0-1-0.7-1.2-2.2-0.8c-2.8,0.8-22.5,5.1-29.2,6.4l-4.9,1l10.1-10.1
		c8.5-8.5,10.5-11.2,12.2-15.9c1.1-3.2,2-6.4,2-7.3C444,186.4,442.1,186.6,441.3,188.7z M393,226.9c0,1.3,5.9,6.1,7.6,6.1
		c2.2,0,1.6-1.6-1.7-4.4C395.8,226,393,225.2,393,226.9z M433.8,227.5c-0.7-0.3-3.7,0.6-6.6,2c-3,1.4-6,2.5-6.7,2.5
		c-2.3,0-2.6,1.6-0.7,3.3c1.7,1.6,2.2,1.4,7.2-1.8c3-1.9,6.5-3.5,7.7-3.5c1.3,0,2.3-0.5,2.3-1c0-0.6-0.4-1-0.9-1
		C435.6,228,434.6,227.8,433.8,227.5z"/>
	<path id="path40" fill="#9999FF" d="M341.6,179.3c4.9,0.2,7.2,1,11.8,3.7c27.6,16.6,36.7,39.9,35.3,89.5
		c-0.6,20.5-2,27.7-12.6,66.4c-3.4,12-6.1,22.6-6.1,23.5s-0.4,1.6-0.9,1.6c-1.5,0-13.5-13.3-15.6-17.3c-1.1-2-2.3-3.7-2.7-3.7
		c-3.4,0,4.2,12.4,11.9,19.6l5.6,5.2l-4.9,19.8l-4.9,19.9H353c-3-0.1-6.3-0.5-7.3-0.9c-1.4-0.7-1.6-0.5-1.1,0.9
		c0.9,2.1,4.5,3.5,9.3,3.5h3.8l-2.8,16.2c-1.6,8.8-3,16.2-3.2,16.4c-0.1,0.2-2.2-0.2-4.5-0.8c-11.8-3-22.6,7.8-20.7,20.5l0.7,4.4
		l-4.2,0.7c-6,0.9-11.9,6.7-12.7,12.3c-0.5,3.7-0.2,4.5,2.6,7.3c2.9,2.9,3,3.3,1.6,5.4c-2.6,3.9-2.9,11.6-0.7,15.8l1.9,3.7l-8.3,4
		c-4.6,2.2-8.4,4.5-8.4,5.1c0,1.4,2,0.8,11.7-3.6c7.6-3.5,7.6-3.5,11.2-1.7c5.2,2.4,15.1,2.9,19.2,0.9c1.8-0.9,3.3-1.5,3.4-1.4
		c0.1,0.2,0.8,1.3,1.4,2.6c1.7,3.1,0.1,5.4-11.1,16.5c-5,4.9-8.8,9.1-8.5,9.3c1.5,1.5,9.6-4.9,16.5-13c1.8-2.1,3.6-3.5,3.9-3.2
		c0.4,0.4,0.7,13.6,0.7,29.4l0.1,28.7l-3.2,10.5c-4.6,15.4-11.7,30.5-31.8,67.5c-30,55.5-48.2,94.6-63.1,136c-2.2,6.3-2.3,21.8,0,29
		c0.8,2.7,1.4,5,1.3,5.2c-0.8,0.7-11-7.2-14-10.9c-10.3-12.9-26.2-44.8-27.7-55.7c-2.5-18.6,0.1-46,8.1-84.9c1.8-8.6,2.4-10,3.6-9
		c1.1,0.9,2.5,0.9,6.1-0.1c4-1,5.4-0.9,8.5,0.4c7.8,3.2,17.7,0.9,23-5.5c6.2-7.3,8.5-14.7,6.8-21.9c-0.9-4.3-0.8-4.7,2.4-8.2
		c5.8-6.5,6.2-19.9,0.8-26.7c-7.3-9-18.1-14.5-24.4-12.3c-1.8,0.6-3.4,0.9-3.6,0.7s2.7-8.8,6.3-19.1c5.4-14.9,6.9-18.3,7.6-16.6
		c1.3,3.6,2.8,1.3,2.8-4.3c0-2.9,0.3-5.6,0.6-5.9c0.4-0.4,0.8-2.1,1-3.9c0.3-3.7,6.1-21.2,11.9-35.8c7.3-18.3,21.5-45.2,35.3-66.5
		c6.1-9.4,16.8-30.4,22.5-44c3.6-8.6,6-17,9.6-33c6.1-27.6,6.3-30.2,6.7-69.4c0.2-32.1,1-46.6,3-57.9c0.5-2.4,0.3-3.2-0.8-3.2
		c-1.7,0-3.2,6.3-4.4,17.5c-0.4,3.8-0.8,22.3-1,41c-0.1,18.7-0.6,35.8-1.1,37.9l-0.8,4l-1.3-6.3c-1.8-8.6-3-11.7-4.3-10.4
		c-0.6,0.6,0.1,5,2.1,12.7l3,11.8l-2.9,14.7c-3.8,18.5-7,29.5-12.7,43.5c-5.5,13.4-15.1,31.9-21,40.1c-6.5,9.3-21.2,35.5-28.4,50.7
		c-3.5,7.6-6.8,13.8-7.2,13.8s-4.2-2.3-8.5-5.2c-8.9-6-17.4-9.7-22-9.8c-4.5,0-4.2-1.6,1.2-8.8c5.5-7.3,10-11.1,26.5-22.6
		c24.7-17.2,24.9-17.3,29.4-24.4c7.4-11.4,13-23.8,22.4-49.2c9.9-26.9,13.3-37.4,15.2-46.5l1.3-6l1.4,3.2c0.7,1.8,1.8,3.3,2.3,3.3
		c1.4,0,1.3-0.4-1.6-10.3l-2.6-8.8l1.7-9.2c1-5.3,1.9-17,2.2-27.3c0.5-15.6,0.3-18.9-1.2-23.4c-1.5-4.6-1.6-6.4-0.7-13.4
		c0.7-4.5,1.3-10.5,1.5-13.4c0.5-7,2.1-8.4,13.7-12.8c5.2-1.9,11-4.4,12.8-5.4c1.8-1.1,3.8-1.8,4.3-1.5c2.9,1.8,3.9-13.5,1.3-19.1
		c-3.5-7.3-14.1-14.6-27.8-18.9c-3.9-1.3-6.3-2.5-5.5-2.8C334.9,179.3,338.2,179.2,341.6,179.3z"/>
	<path id="path42" fill="#9999FF" d="M530.3,183.1c1.2-0.1,0.2,1.3-8.8,12.9c-6.4,8.3-12.7,17.1-14,19.7c-0.1,0.2-3.5-0.8-7.5-2.2
		c-8.4-2.8-16.1-3.3-18-1c-1.7,2.1-0.5,7.8,2.6,11.4c1.4,1.6,5.7,4.5,9.7,6.4c9.1,4.4,17.5,11,18.3,14.5c0.4,1.5,1.6,4.3,2.7,6.2
		c1.7,3,1.8,4.1,0.8,7.5c-0.6,2.2-2.4,6.3-4.1,9.2c-2.9,5-3.1,5.2-6.7,4.6c-2.1-0.3-6.8-1.9-10.6-3.6c-4.8-2.1-8.1-3-11.5-2.8
		c-13.1,0.4-16.8,0.7-17.9,1.4c-3.1,2-0.5,10.9,4,13.6c1.1,0.8,6.8,2,12.6,2.7c8,1.1,11.4,2,14.3,3.9c2.1,1.4,3.8,3,3.8,3.6
		s-4.6,9.4-10.1,19.5L479.7,329l-1.8-3c-2.4-3.8-7.5-7-11.4-7c-4.7,0.1-10.9,3.4-14.1,7.6c-2.6,3.3-2.9,4.6-2.9,10.9
		c-0.1,6.3-0.4,7.6-2.8,10.4c-5,5.9-6.3,17-2.7,22.9c3.2,5.3,12.8,8,18.1,5.2c1.4-0.8,2.5-0.7,4.1,0.5c1.5,1,3.4,1.3,5.4,0.9
		c2.7-0.5,3.2-0.2,3.7,1.8c1.4,5.1,0.4,10-5.2,25.8c-3.2,9.1-6.1,17.7-6.5,19.2c-0.9,4,1.1,4.4,2.7,0.6c1.4-3.3,1.4-3.3,2,4.2
		c0.3,4.1,2.5,14,4.7,22c2.6,8.9,4.5,18.4,5.1,24.5c0.8,8,2.2,13.8,7.4,29.1c3.5,10.5,8.2,25.7,10.4,33.7
		c3.4,12.1,8.6,29.2,10.9,35.7c0.3,0.9-0.6,0.4-2.2-1c-2-1.8-3.8-2.4-6.5-2.4c-3.2,0.1-3.9-0.3-5-2.8c-1.6-3.6-6.5-6.8-10.5-6.8
		c-4.3,0-9,4.2-12.3,10.7l-2.9,5.8l-4.9-0.3c-6.5-0.3-10.9,2.3-13.5,8.1c-2.3,5-2.5,9.1-0.6,14.5c1.4,3.9,1.4,4-1,4.6
		c-5.2,1.3-14.4,12.2-14.4,17c0,4.9-2.5,0.7-8-13.2c-11.4-28.6-15.8-44.9-14.4-52.2c0.5-2.4,0.3-3-1.1-3c-1.6,0-1.7,0.8-1.2,8.2
		c0.9,14.3,8.7,39.4,18.8,60.8c2.2,4.7,4.5,11.1,5,14.4c1.6,9.8,6.6,17.5,14.5,22.5c2.5,1.6,7.1,6.5,11.6,12.6
		c17.9,24.1,43.5,48.4,68.3,64.7c8.3,5.5,33.6,18.7,48.2,25.1c6.1,2.7,6.2,2.8,6.9,7.5c0.4,2.6,1.3,6.5,2.1,8.6
		c0.7,2.2,1.1,4.1,0.9,4.4c-0.3,0.2-6.2,1-13.3,1.8c-16.7,1.8-25.6,3.5-49.8,9.4c-34.6,8.4-35.3,8.5-54,8.5c-19.1,0-23.8-1-35.8-7.3
		c-6.5-3.4-7.6-4.5-22.1-23.1c-8.4-10.8-17-22.3-19.2-25.6c-17.9-26.7-30.5-63.8-35.9-106c-0.8-6.6-1.9-27.5-2.5-46.5
		c-0.5-19-1.1-42.5-1.4-52.3c-0.3-10-0.1-17.7,0.4-17.7c0.4,0,3.6,0.7,7.1,1.6c4,1,7.8,1.4,10.8,0.9c5-0.7,12.6-3.7,15.1-6
		c0.9-0.8,5.1-1.6,10-2c13.6-1.1,22-6.2,22-13.4c0-1-0.9-4.4-2.1-7.4l-2.1-5.5l6.3-11.8c7.5-14.4,11.6-21,17.9-28.9
		c5.4-6.8,11.4-16.4,10.8-17c-0.2-0.3-2.5,1.9-4.9,4.8c-10.6,12.3-23.3,31.6-28.5,43.4c-1.4,3.2-2.7,6-2.9,6.2
		c-0.2,0.1-2.1-1.1-4.3-2.8c-2.1-1.8-5.5-3.4-7.5-3.8c-2.1-0.3-3.7-0.7-3.7-1c0-0.2,0.9-2.1,2-4.3c2.4-4.7,2.5-8.3,0.5-14.1
		c-3.7-10.4-12-17.9-20-17.9c-5,0-13.5,4-16.8,8l-2.4,2.8l-1.7-2.9c-1.1-1.8-1.5-4-1.2-6.1c2.5-15.4,6-33.4,6.6-34.1
		c0.3-0.4,4.5-1.4,9.3-2.3c19.1-3.3,29.8-7.9,49.5-21.1c12.9-8.7,16-11.3,13.3-11.3c-0.6,0-6.1,3.3-12.3,7.3
		c-21.8,14.2-28.3,17-47.4,21.1c-6.5,1.3-11.9,2.4-12.1,2.3c-0.7-0.8,9.4-37.6,10.2-37.3c12,5.5,14.1,6,24,6c6.5,0,12.4-0.6,17-1.8
		c14.9-3.9,13.8-5.7-1.6-2.6c-13,2.6-21.2,2.3-30-0.9c-10.5-4-10.3-1.1-2.2-31.7c4-14.8,8.3-32.9,9.7-40.2c2.1-10.9,3.3-14.8,7-22
		c2.5-4.8,6.8-11.5,9.5-14.8c5.8-7.1,28-26.1,39.6-33.8c11.2-7.5,51-29.5,69-38.2C522.8,186.4,529.9,183.1,530.3,183.1z
		 M426.4,291.1c-1.9,2.2-1.9,2.2,0.1,1.5c2.5-0.9,15.8-4.6,16.5-4.6c0.3,0-0.1,0.4-0.9,0.9c-2.5,1.6-0.3,3,2.9,1.8
		c3.5-1.3,3.8-2.2,1.1-3.7C441.8,284.7,429.9,287.2,426.4,291.1z M447.2,303.4c-6.8,21.4-22.6,38.4-39.6,42.7
		c-4.4,1.1-5.3,1.8-4,3.1c1.1,1.1,13.6-3.1,18.5-6.3c6.6-4.2,18-16.7,21.7-23.7c3.4-6.4,8.2-20.4,8.2-23.9
		C452,290.6,450.4,293.3,447.2,303.4z M466.5,389.9c-1.4,3.8-4.9,10-7.8,13.8c-14.6,19.2-22.2,31.4-18.8,30.1
		c1-0.3,16.6-20.7,23.4-30.3c4-5.8,9.1-18.1,8.1-19.7C470.2,381.9,469,383.4,466.5,389.9z"/>
	<path id="path44" fill="#CCCCCC" d="M534.7,200c1.7,0,6.7,7.6,11.3,17.2c3.2,6.6,4.3,10.5,5.5,19.3c0.9,6,1.8,12.4,2.1,14.2
		c0.6,4.2,4.9,9.3,7.8,9.3c1.2,0,2.5,0.9,3.1,2.2c0.6,1.2,2.2,2.9,3.7,3.7c2.3,1.3,3.2,1.3,6.2,0.3c3.5-1.3,10-2.7,18.2-3.8
		c3.6-0.6,4.3-0.3,6.2,2.1c1.2,1.5,2.2,3.7,2.2,4.9c0,2.6-9.3,22-11,23.1c-0.9,0.6-0.9,0.3-0.1-1.3c3.9-7.3-2.2-12-9.1-7.1l-3,2.2
		l2-3.9c3.3-6.5,6.2-13.2,6.2-14.3c0-0.5-0.5-1.3-1-1.6c-1.1-0.7-11,19.5-11,22.2c0,0.8,1,3.2,2.1,5.4l2.2,3.8l-3.4,5.8
		c-4,6.6-10.1,11.8-16,13.3c-5.1,1.4-8,0.8-14.9-3.3l-5.5-3.2l5.7-0.5c6.2-0.6,8.8-2.4,13.8-9.6c1.6-2.2,5.4-5.8,8.4-7.9
		c3.1-2.1,5.6-4.1,5.6-4.5s-3.9-2.1-8.7-4c-11.3-4.2-23-9.8-31.6-15c-3.8-2.3-7-4-7.2-3.8c-0.5,0.6,2.4,28.2,3.3,31.4
		c1.5,4.9,4,9.2,6.4,10.8c1.2,0.9,2,1.6,1.8,1.6c-2.4,0-17.4-3.1-18.8-3.9c-2.7-1.4-7.5-7.1-10.3-12c-2.6-4.8-10.6-10.5-16.4-12
		c-2.2-0.5-7.3-1.3-11.4-1.6c-8-0.8-11.1-2.7-11.1-6.9c0-2.2,0.4-2.4,9.5-3c9.4-0.7,9.7-0.7,16,2.4c3.6,1.8,8.8,3.4,11.9,3.7
		l5.4,0.6l3.4-5.5c4.6-7,6.1-12,5.5-17.4l-0.4-4.3l4.9-1.7c2.7-0.9,5.3-1.2,5.7-0.8c0.3,0.5,1.7,2.1,3,3.6c1.4,1.5,2.5,3.8,2.6,5
		c0.2,2.7,2.2,3.5,2.9,1.1c0.2-1,1-5.3,1.6-9.5c1.4-9.3-0.2-16.2-6.2-27.6c-4.2-8.1-4.7-11.9-2.1-16.3
		C532.7,201.3,534,200,534.7,200z M594.6,273.1c-3.2-3-4.6-0.8-1.5,2.5c2.5,2.7,3.9,3.1,3.9,1.1C597,275.9,595.9,274.3,594.6,273.1z
		"/>
	<path id="path46" fill="#CCCCCC" d="M498,217c10.7,3.3,14.6,6.1,21.5,15l4.6,5.9L520,240c-3.3,1.7-4,1.8-4,0.5c0-0.8-0.5-1.5-1-1.5
		c-0.6,0-4-2.2-7.5-5c-3.6-2.7-8.4-5.5-10.7-6.2c-5.5-1.6-11.8-7.6-11.8-11.1S486.2,213.2,498,217z"/>
	<path id="path48" fill="#CCCCFF" d="M516.9,217.4c4.9,0.8,9.6,2.9,12.9,5.9l2.2,2.1l-3.1,1.3c-4,1.7-2.9,3.2,1.9,2.6l3.9-0.5
		l1.5,5.3c1.1,4,1.2,6.5,0.5,10.2c-0.9,4.6-1.1,4.8-2.4,3.1c-0.8-1-1.7-3.2-2-4.7c-0.3-1.6-1.5-3.4-2.5-4
		c-1.9-1.2-13.8-16.2-13.8-17.4c0-0.4-0.8-1.5-1.7-2.6C512.5,216.7,512.6,216.7,516.9,217.4z"/>
	<path id="path50" fill="#CCCCCC" d="M580.6,233c2.8,0,8.4,3.4,8.4,5.2c0,2.1-5.7,16.9-7.1,18.2c-0.5,0.6-0.9-0.3-0.9-2.4
		c0-1.8-0.7-4.2-1.7-5.2c-2-2.2-7.1-2.3-10.2-0.2l-2.3,1.6l2-3.8c1.1-2.2,3.9-6,6.2-8.7C577.3,235.1,579.8,233,580.6,233z"/>
	<path id="path52" fill="#CCCCFF" d="M555.4,238c1.1,0,9.6,6.4,9.6,7.2c0,2-2.3,10.4-3.1,11.2c-1.7,1.9-4.7-2.5-5.4-7.7
		c-0.3-2.9-0.8-6.4-1.1-8C555.1,239.2,555.1,238,555.4,238z"/>
	<path id="path54" fill="#99FF99" d="M393.8,241.5c7.1,1.8,15.2,2.6,20.7,2.1l6-0.6l-2.5,2.1c-2.3,2-3.3,2.1-13,1.6
		c-12-0.6-14-1.1-14-3.9C391,241.1,391.4,240.9,393.8,241.5z"/>
	<path id="path56" fill="#CCCCFF" d="M528.8,275.5l2.4,2.7c1.2,1.4,4.2,3.9,6.6,5.4c3.4,2.2,4.2,3.2,3.8,4.8
		c-0.4,1.2-0.9,4.9-1.3,8.3c-0.5,5.3-0.3,6.3,0.9,6.3s1.8-1.6,2.3-5.8c1.2-10.3,1.3-10.4,4.6-8.7c1.6,0.9,4.9,1.8,7.4,2.2
		c2.5,0.3,4.5,0.8,4.5,1.1c0,1-8.4,11.4-10.8,13.3c-3.2,2.5-9.2,2.5-12.4-0.1c-4.1-3.1-7-11.3-7.5-21L528.8,275.5z"/>
	<path id="path58" fill="#CCCCFF" d="M582.8,291.4c3.8,3.1,4.1,3.5,2.3,4.1c-2.9,0.9-5.7-1-6.9-4.5
		C576.8,287.2,577.5,287.2,582.8,291.4z"/>
	<path id="path60" fill="#6666FF" d="M593.9,293c0.6,0-1,16-2.9,30c-1.5,10.5-3.7,19.4-10.1,40c-4.5,14.6-8.9,28.1-9.9,30
		c-3.8,7.3-12.2,13-19.3,13c-4.7,0-15.1-5.4-18.6-9.7c-1.6-1.9-4.1-6.4-5.7-10.1c-1.5-3.6-4.9-10.4-7.6-15.1
		c-9.2-16.5-14.5-39.2-13.3-58.1c0.3-5.7,0.8-10.6,1-10.9c0.3-0.2,2.3,1.3,4.5,3.3s4.5,3.6,5,3.6c0.6,0,2.4,2.2,4,4.9
		c3.7,6,10,11.3,17.7,14.9c5,2.3,7.1,2.7,15.5,2.7c9.1,0,9.9-0.2,14-3c5.1-3.6,11.1-14.4,12.9-23.5c1-5.2,1.4-5.9,3.9-6.3
		c1.5-0.4,4.1-1.7,5.6-3.1C592.2,294.2,593.7,293,593.9,293z"/>
	<path id="path62" fill="#CCCCFF" d="M576.8,308.5c0.8,0.6-3.2,8.3-6.5,12.6c-3.7,4.9-6.1,6.3-12.5,7.4c-4.2,0.7-16.2-1.6-20.8-4
		c-3.8-2-11.7-9-13.2-11.8c-1-1.9-0.8-2,4.7-1.4c3.6,0.4,7.1,1.5,9.4,3c11.6,7.7,17.3,8.5,26.9,3.6c3.3-1.6,7.4-4.5,8.9-6.3
		S576.6,308.4,576.8,308.5z"/>
	<path id="path64" fill="#990000" d="M466.8,322c0.1,0,1.8,0.6,3.7,1.4c6.6,2.8,7.7,8.5,4,20.6c-1.5,5-1.8,12.6-1.1,26.5
		c0.1,2.7-0.2,3-3.1,3.3c-3.8,0.4-3.8,0.6-1.7-4.3c1.9-4.6,0.8-8-3.1-9.5c-5.7-2.2-10.7,3.3-6.7,7.2c2.6,2.6,5.1,1.4,2.6-1.3
		c-1.5-1.7-1.5-1.9,0-2.5c4.6-1.8,6.3,3.6,2.4,7.4c-7.3,6.7-18.8,1.3-18.8-8.9c0-1.9,1.2-6,2.8-9c2.9-5.7,2.6-5.6,10.4-4.3
		c3.3,0.5,4.1,0.2,6.8-2.4c1.6-1.7,3-4,3-5.2c0-2.7-4.3-7-7-7s-2.5,1.4,0.5,3c4.5,2.4,2.7,8-2.6,8s-8-5.4-6-11.9
		c1.3-4.5,4.6-7.8,9.8-9.6C464.8,322.7,466.6,322.1,466.8,322z"/>
	<path id="path66" fill="#990000" d="M349.5,447.3c1.7,1.3,1.7,2,0.2,16.3c-0.9,8.2-1.9,18.6-2.3,23.2c-0.4,4.5-1.1,8.5-1.7,8.9
		s-2.6,0.6-4.4,0.5c-3.7-0.3-8.7,3.6-7.8,6c0.3,0.8-2.1,2.7-6.8,5c-4,2.1-7.6,3.8-7.9,3.8c-1.3,0-4-8.9-3.3-11.2
		c1.5-5.3,2.8-7.8,4.1-7.8c2.4,0,1.5-1.7-2.1-3.8c-4.2-2.5-5.2-5.9-3.1-10.1c1.5-2.7,7.9-7.1,10.5-7.1c0.6,0,2.2,2.5,3.6,5.5
		c3,6.2,5.3,7.4,10.9,5.5c4.8-1.5,7.6-5.3,7.6-10.1c0-6.4-5.5-9.8-11-6.9c-2,1.1-3.3,5-2.4,7.4c0.9,2.5,1.9,1.9,2.9-1.6
		c1.6-5.5,7.5-4.6,7.5,1.1c0,3.6-1,4.8-5.4,6.6c-2.7,1.2-4.1,1.3-5.1,0.5c-3.4-2.8-4.8-20.7-2-26c0.8-1.5,2.7-3.8,4.1-4.9
		C338.7,445.6,346.6,445.2,349.5,447.3z"/>
	<path id="path68" fill="#990000" d="M376.8,447.1c2.1-0.2,8.5,2.8,11,5.2c2.9,2.7,6.7,10,7.5,14.5c1.4,6.9-6,17.2-12.3,17.2
		c-5.9,0-9.9-10.1-6.3-16.2c2.2-3.9,3.6-4.4,5.7-2.2c1.3,1.3,1.6,2.7,1.1,5.8l-0.6,4.1l2.1-2.4c2.6-3,2.6-6.1-0.1-9.5
		c-2.9-3.6-6-3.3-9.8,0.9c-2.4,2.8-3.1,4.5-3.1,7.8c0,4.6,2.7,11.4,5.3,13.6c1.8,1.4,7.1,1.1,14.9-1c4.2-1.1,5.2-1,8.9,0.6
		c5.4,2.5,7.3,5.5,6.5,10c-0.7,3.6,0.9,5,2.1,1.8c0.6-1.5,0.7-1.5,1.4,0.3c0.4,1,0.8,3.8,0.8,6.1c0.1,3.9-0.2,4.5-4,7
		c-3.1,2-5.7,2.8-11.5,3.2c-4,0.4-7.4,0.5-7.4,0.3s0.9-1.5,2-2.9c3-3.8,2.6-8.8-0.9-12.4c-3.7-3.7-7.9-3.8-12-0.3
		c-3.6,3-3.9,5.1-1,8.8c1.6,2.1,2.8,2.6,5.3,2.4c2.6-0.3,3.2-0.8,3.4-3.2c0.5-3.9-1.5-5.8-2.4-2.2c-0.7,2.9-2.5,3.4-4.3,1.2
		c-1.7-2.1,0.2-5.4,3.6-6.2c2.1-0.6,3.1-0.1,5,2c3,3.5,2.9,4.5-0.6,9.3c-3.5,4.8-8.3,8.6-13,10.2c-4.4,1.4-14.8,1.3-18.3-0.2
		l-2.8-1.2l6.4-8.9c7-9.8,14.1-22.4,13.2-23.3c-0.8-0.8,0.4-2.4-11.6,15.5c-6.6,9.9-10.6,15-11.2,14.4c-0.6-0.6-0.7-4.8-0.3-10.8
		l0.7-9.9l7.9-6.8c7.2-6.2,9.3-8.7,7.1-8.7c-0.5,0-3.9,2.7-7.8,5.9c-3.8,3.3-7,5.9-7.1,5.8c0-0.1,0.7-8.1,1.8-17.7
		c1-9.6,1.9-18.1,1.9-18.9c0-2.6,1.3-0.2,1.9,3.6c0.8,4.8,3.6,5.7,3.7,1.3c0.2-4.4,7.8-11.7,14-13.3
		C374.6,447.5,376.1,447.2,376.8,447.1z"/>
	<path id="path70" fill="#993300" d="M345.8,504.2c0.4,3.8-2.3,8.5-6,10.4c-3.5,1.8-11.9,1.5-15.8-0.6c-2.1-1.1-1.9-1.3,3.5-4.2
		c3.1-1.6,7.7-4.2,10.3-5.8C343.4,500.6,345.4,500.6,345.8,504.2z"/>
	<path id="path72" fill="#990000" d="M486.8,565.6c4.5,3.1,6.9,12.3,4,15.2c-2.8,2.8-8.2,0.4-7.8-3.5c0.4-3.1,0-3.6-1.5-2.3
		c-2.1,1.7-1.9,4.3,0.6,7.4c4.3,5.4,13.9,1.8,13.9-5.4c0-4.6,4.3-4.2,9.4,1c4,4.1,5.8,8.9,12.6,32.9c3.6,12.5,3.6,14.2,0.7,20.5
		l-2.3,5l-3-4.4c-5.3-8-10.1-8.8-16.8-2.9c-4.1,3.5-7.1,10.7-6.2,14.4c1.9,7.6,11.1,10.1,16.7,4.6c3-3.1,3.7-6.7,1.9-10.2
		c-1.6-2.9-3-2.3-2.4,1c0.4,1.7-0.1,4.1-1.1,6c-1.4,2.8-2,3.2-5.2,2.9c-2.5-0.2-4.2-1.1-5.6-3c-2-2.6-2-2.8-0.3-7.2
		c2-5.3,5.7-8.6,9.6-8.6c5.1,0,10,8,10.7,17.5c0.5,7.2-1.3,10.7-7.9,15.6c-7.5,5.5-11.5,6.9-20.4,6.9s-12.6-1.6-16.7-7.2l-2.1-2.8
		l2.6-2.7c5.7-6,6.4-13.8,1.8-18.5c-2.9-2.8-3.5-3-8.6-2.6c-6,0.5-8.8,2.5-9.9,6.8c-0.9,3.9,2.7,8,7,8c1.9,0,3.7-0.5,4-1
		c0.3-0.6-0.3-1-1.5-1c-5.7,0-8.1-5.4-3.8-8.4c3.5-2.5,8.3-2,10.7,1c1.2,1.5,2.1,3.6,2.1,4.8c0,2.8-3.3,8.1-6.3,10
		c-3.2,2.2-11.3,3.2-13.1,1.7c-2.8-2.4-17.6-26.9-17.6-29.3c0-7.6,7.3-18.7,13.4-20.2c2.3-0.6,3.4-0.1,6.5,3.2
		c7.4,7.6,15.8,7.7,20.8,0.3c4.5-6.6,2.1-13.8-6.1-18.1c-4.3-2.3-4.8-2.4-7.4-1c-4.1,2.4-5.6,6.2-3.8,9.8c1.4,2.8,3.4,4.2,5.8,4.2
		c0.5,0,0-1.2-1.1-2.6c-5.5-7,1.3-11.6,8.1-5.5c4.1,3.6,4.4,8.8,0.8,12.6c-5.8,6.2-16.3,0.4-20.5-11.4c-0.8-2.4-1.5-5.4-1.5-6.8
		c0-3.3,3.4-9.5,6.1-11.2c2.6-1.6,9-1.7,11.8-0.2c3,1.6,4.3,1.3,3.6-0.8c-0.9-2.9,2.3-9.7,6.1-13.1
		C481.5,563.6,483.5,563.3,486.8,565.6z"/>
	<path id="path74" fill="#6666FF" d="M347.8,596.5c0.1,0.1,0.7,8.1,1.2,17.6c1.3,23,2.4,31.8,7,53.9c4.6,22,7.4,31.3,14.6,47.8
		c3,6.8,5.4,12.8,5.4,13.4c0,3.2-15.8,18.9-22.8,22.6c-3.1,1.7-8.4,3.8-11.7,4.7c-6.1,1.8-11.5,4.4-11.5,5.6c0,0.8,8.2-0.7,14.5-2.7
		c12-3.9,23.3-12.1,29.5-21.2c1.9-2.8,3.7-5.2,4-5.2s1.4,1.5,2.5,3.2c1,1.8,4.3,7,7.2,11.5c5.2,7.9,5.4,8.4,4.3,12.1
		c-1.8,6.7-4.5,8.9-19.4,16.2c-15,7.2-23.8,10.3-32.3,11.5c-7.5,1-8.9,0.2-12-6.7c-1.5-3.3-4.8-9-7.5-12.6
		c-5.7-7.7-5.6-6.4-3.4-40.7c0.8-12.1,1.8-32.8,2.2-46l0.7-24L326,647c7.9-14.7,14.6-29.6,18.3-41
		C346.1,600.6,347.6,596.4,347.8,596.5z"/>
	<path id="path76" fill="#990000" d="M254.8,605.4c5.9,3,12.7,10.3,13.7,14.5c0.9,4.2-0.2,11.8-2.3,15.4c-1.8,2.9-8.4,6.7-11.9,6.7
		c-3,0-8-4.5-8.6-7.7c-1.3-7,3.9-9.8,8.8-4.6l2.5,2.8v-2.7c0-2.7-4-6.8-6.6-6.8c-7.1,0-10.7,8.8-6.4,15.7c3,5,6.1,6.5,12.2,6.1
		l5.3-0.3l0.9,3.5c1.6,6.7-3.2,17.3-10,22c-7.2,4.9-20.4,2.5-20.4-3.8c0-4.3,1.9-10,3.6-10.6c2-0.8,5,0.8,5.8,3.1
		c0.8,2.1-2.5,5.3-5.5,5.3c-2.8,0-3.2,1.7-0.5,2.4c5.8,1.4,11.1-3.9,8.8-8.8c-1.6-3.5-5.7-6-8.7-5.2c-3.8,1-6,5.2-6.2,12
		c-0.1,6.5-1.6,8.3-5.9,7.2c-3.6-0.9-3.9,0.4,6.2-37.6c4.7-17.7,7.6-25.4,10.5-28.3C243.8,602.2,248.4,602.1,254.8,605.4z"/>
	<path id="path78" fill="#9999FF" d="M523.5,628.2c0.2,0.2,2.8,5.8,5.8,12.5c7.4,16.6,12.6,24.5,25.9,39.8
		c13.8,15.7,17.9,19.5,32.8,29.4c23,15.5,23.6,15.9,17.9,13.9c-12.4-4.3-25.2,8.7-25.3,25.7c-0.1,3.8,0.3,8.3,0.7,9.8
		c0.7,2.7,0,2.4-20-7.7c-21.9-11-33.9-18.1-46.3-27.3c-11.1-8.3-42.9-40.2-52.1-52.2c-4.4-5.7-7.8-10.5-7.7-10.6
		c0.2-0.1,2.7-0.5,5.6-0.9c3.7-0.5,5.2-0.3,5.2,0.5c0,2.3,4.9,7.6,8.6,9.4c2.8,1.3,6,1.7,12.7,1.6c11.1-0.1,17-2.5,24.5-10
		c6.3-6.2,8-11,6.5-17.7c-1-4.2-0.9-5,1.3-8.2c1.4-2,2.7-4.6,3-5.9C523,629,523.4,628,523.5,628.2z"/>
	<path id="path80" fill="#99CCFF" d="M316.3,666c0.6,0,0.7,3.2,0.4,7.7c-0.3,4.3-1.1,19.5-1.7,33.8c-0.7,14.3-1.5,28.9-1.8,32.4
		l-0.7,6.3l-6.2,2.3c-9.4,3.4-16.8,8.2-25.2,16.5c-8.8,8.7-21.6,27.2-26.7,38.7c-7.1,15.6-2.5,0.4,7.7-25.9
		c12.3-31.7,14.8-37.1,36.2-78.6C307.7,681,315.8,666,316.3,666z"/>
	<path id="path82" fill="#99CCFF" d="M604.8,726.6c2.1,0.6,1.6,1.3-5.9,8.2c-4.4,4.1-9.6,9.8-11.5,12.6l-3.4,5.1v-3.6
		c0-9.5,5.5-18.9,12.5-21.4C601.1,725.9,601.7,725.8,604.8,726.6z"/>
	<path id="path84" fill="none" d="M395.8,760c0.4,0,5.3,5.7,10.9,12.7c5.6,7.1,12.2,14.9,14.7,17.5c5.6,5.9,15.7,11,26.1,13.3
		c4.4,0.9,10,2.5,12.5,3.5c7.3,3,37.1,11.1,49.9,13.6c4.4,0.9,4.5,1,6.7,7.4c1.2,3.6,3.6,9.8,5.3,13.9c1.7,4.1,3.1,7.5,3.1,7.7
		s-35.2,0.4-78.3,0.4h-78.3l1.7-16.3c0.9-8.9,2.6-22,3.8-29.2c1.1-7.2,2.3-15.9,2.7-19.5l0.6-6.5l6.1-3.5
		c6.1-3.6,11.7-9.8,11.7-13.2C395,760.8,395.3,760,395.8,760z"/>
	<path id="path86" fill="#669999" d="M372.5,780.4l0.3,3.2c0.2,1.8-0.8,10.2-2.2,18.6c-2.1,12.8-5.6,41.6-5.6,46.4
		c0,1.1-3.7,1.4-19.5,1.4H326v-11.8c0-6.4-0.3-21.6-0.6-33.7c-0.4-17.4-0.3-21.6,0.7-20c3.2,5.4,5.1,6.5,10.8,6.5
		c7.6,0,16-2.2,26.7-6.8L372.5,780.4z"/>
	<path id="path88" fill="#99CCFF" d="M594.9,786.2c14.6-0.2,18.8,0.1,26.5,1.9c11.4,2.7,13.7,3.8,7.6,3.9c-7.3,0.1-16.7,2.5-31,8
		c-20.1,7.8-32.3,11.9-44,14.8c-9.4,2.4-12.3,2.7-27.5,2.6l-17-0.1l-21.5-5.5l-21.5-5.5l8.5-0.7c9.1-0.8,15.8-2.1,46-9
		c19.5-4.4,45-9.2,52.5-9.9C575.7,786.5,585.3,786.3,594.9,786.2z"/>
	<path id="path90" fill="#669999" d="M569.1,814.9c0.4,0.3,2.1,6,3.9,12.6s4.1,13.9,5.1,16.3c1.1,2.4,1.9,4.8,1.9,5.3
		s-10.7,0.9-25.4,0.9h-25.4l-1.5-3.8c-0.9-2-3.5-8.4-6-14.2l-4.4-10.5l11.6-0.3c11.4-0.3,28.3-2.9,35.7-5.6
		C566.8,814.8,568.8,814.5,569.1,814.9z"/>
</g>
</svg>
