<?xml version="1.0" encoding="utf-8"?>
<!-- Generator: Adobe Illustrator 21.0.0, SVG Export Plug-In . SVG Version: 6.00 Build 0)  -->
<svg version="1.1" id="图层_1" xmlns="http://www.w3.org/2000/svg" xmlns:xlink="http://www.w3.org/1999/xlink" x="0px" y="0px"
	 viewBox="0 0 850 850" style="enable-background:new 0 0 850 850;" xml:space="preserve">
<g transform="translate(0.000000,0.000000) scale(1.00000,1.00000)">
	<path d="M467.7,1.6c0.3,1,0.2,4.8-0.3,8.5l-1,6.9l7.1-0.3c6.9-0.2,7-0.2,6.7,2.3c-1.4,11.8-1.4,16,0,16c0.8,0,2.3,0.9,3.3,2
		s2.2,2,2.8,2c0.5,0,2.7,1.6,4.8,3.5c2.2,1.9,4.7,3.5,5.7,3.5c1.1,0,2.7,0.9,3.7,2s2.4,2,3.1,2s2.6,1.1,4.2,2.5
		c1.6,1.3,4,2.9,5.3,3.5s4,2,5.9,3.1c1.9,1,4.6,1.9,5.9,1.9c1.4,0,3.3,0.8,4.3,1.7s3.3,1.6,5.1,1.6c1.7-0.1,4.7-0.2,6.6-0.3
		c1.9-0.1,4.1,0.6,5.2,1.6c1.4,1.3,4.1,1.7,11.9,1.9s10.5,0.7,12,2c1.8,1.6,2,1.6,4.9-0.1s3.1-1.7,5.1,0.1c4.1,3.7,2,7.9-4,7.7
		c-2.3-0.1-5.4,0.5-7,1.3c-2.1,1.1-3.6,1.2-5.4,0.5c-1.4-0.5-3.2-0.7-4-0.4c-0.8,0.3-3.8-0.6-6.8-2c-4-1.9-6.3-2.4-9.4-1.9
		c-3.3,0.4-4.8,0.1-7.1-1.7c-1.7-1.2-4.9-2.4-7.3-2.7c-2.4-0.4-5.9-1.7-7.8-3c-1.9-1.2-4.8-2.3-6.4-2.3c-1.6,0-4.5-0.7-6.5-1.5
		c-1.9-0.8-4.2-1.5-5.1-1.5s-2.7-1-4-2.3l-2.5-2.2l1.2,2.3c0.6,1.2,2.4,3,3.9,3.9c4,2.6,10.2,9.1,10.2,10.8c0,1.6,3,3.5,5.7,3.5
		c1,0,3.5,2,5.5,4.4c2.3,2.7,4.8,4.6,6.7,4.9c1.8,0.4,3.2,1.4,3.6,2.7c1.1,3.3,4.6,6,8.1,6c1.7,0,4.2,0.8,5.5,1.8s4.7,2.9,7.4,4.2
		c2.8,1.3,6.8,4,9.1,6.1c3,2.7,4.8,3.6,6.5,3.2c3.1-0.6,7.9,3.1,7.9,5.9c0,3.1-2.9,5.8-6.1,5.8c-2,0-3.5-1-5.4-3.4
		c-2-2.7-3.5-3.5-7.2-4.1c-6.5-1-20.1-8.3-21.9-11.7c-1.7-3.2-6.6-6.1-8.9-5.2c-1,0.4-2.9-0.8-5.6-3.6c-2.2-2.3-4.2-4-4.4-3.8
		c-0.7,0.6,16.5,22.7,25.5,32.7c17.4,19.3,28.6,27.1,45.4,31.3c10.9,2.7,18.4,2.1,23.4-1.9c9.7-7.9,9.9-20.4,0.5-26
		c-5.9-3.4-13.3-3.5-20-0.2c-5.9,3-6.7,6-2.8,10.8c3.2,3.7,1.8,4.1-2.4,0.5c-3.8-3.1-5-8.4-2.8-11.8c0.9-1.3,3.8-3.4,6.4-4.7
		c3.9-2,6.4-2.4,13.8-2.4c7.7,0,9.8,0.4,14.6,2.6c11.2,5.3,17.9,13.6,19.9,24.7c1.3,7.4,0.2,14.5-3.3,20.7
		c-2.4,4.3-10.4,10.3-14.9,11.2c-4.6,0.9-4.2,2.1,1.4,4.9c10,5.1,22.3,13.9,30.3,21.9c9.3,9.2,15.3,19.6,20.4,35.6
		c3.8,12,5.1,20,5.1,31c0,10-1.1,16.4-5.2,31.4c-4.7,16.9-9.6,27.4-16.4,35.1c-3.3,3.6-7.9,9.8-10.2,13.7c-2.4,4-5.9,9-7.7,11.2
		c-1.7,2.2-5.6,9.6-8.5,16.5c-9.3,21.9-19.1,36.3-34.6,51.1c-11.8,11.2-19.8,15.2-37.4,18.9c-7.1,1.5-8.5,2.1-8.4,3.6
		c0.4,6.9,9.6,56,12.5,66.1c2,7.4,2.7,9.2,14.7,36.8l6.9,16l5.3,2.9c4.6,2.5,5.5,3.6,8.2,9.5c2.8,6.1,2.9,7,2,11.6
		c-1,4.8-0.9,5.1,1.6,7.3c1.5,1.2,5.4,3.6,8.7,5.2c5.5,2.6,6.5,3.6,10.6,10.7c7.7,13,11.2,22.6,11.6,31.8c0.3,5.4,0,8.8-0.9,10.5
		c-2.6,4.8-4.7,3.8-17.1-8.4L603,642l0.6,4.8c2.1,17,8.8,62.2,10.9,72.7c4,19.8,8.7,29.5,16.3,33.4c7.1,3.7,11.6,11.1,12.8,21.3
		c0.6,5.1,0.3,6.2-3.9,15c-2.7,5.6-5.6,10.3-7.2,11.4c-2.7,2-2.7,2.1-1.6,7.5c0.7,3.1,0.9,6.4,0.5,7.5c-1.8,4.7-19.6,30.2-23.2,33.2
		c-2.2,1.7-6.3,1.5-9.1-0.4c-2-1.5-2.3-2.2-1.7-6.3c2.9-23.1,2.9-25.4-1.4-54.8c-2.3-15.3-4.6-33.4-5.1-40.3
		c-1.1-13.6-4.2-29.6-9-46c-5.3-18.4-29.1-90.4-30.3-91.9c-4.1-5.2-82.9-34.4-124.1-46.1c-8.2-2.3-19.7-5.5-25.5-7.2
		c-12.6-3.5-23.6-9.1-26.1-13.3c-3.3-5.3-2.1-26,4-69.3c1-7,1.7-12.9,1.5-13.1s-2.9,1.1-6.1,2.9c-9.1,4.9-21.8,9.9-29.5,11.5
		c-12.3,2.6-26.9,1.4-33.8-2.8c-3.2-1.9-4.7-2.1-17-1.8c-11.4,0.2-14.4-0.1-19.5-1.8c-23.7-8-25-8.6-31.5-14.7
		c-4-3.7-7.5-9.6-9.4-15.6c-0.4-1.3-1.3-1.6-3.9-1.1c-4.9,0.8-19-2.2-25.3-5.4c-9.7-4.9-18.6-15.6-23.5-28.2
		c-2.7-6.8-3.2-21.6-1-26.9c1.3-3.1,1.3-3.3-2.9-7.8c-5.3-5.8-7-9.9-7-17.2c0-14.1,9-30.3,25.6-46.3c14-13.3,31.3-24.5,64.9-42
		l18-9.3l-4.2-0.8c-11.5-1.9-17.3-9.5-17.3-22.6c0-12.5,6-28.4,15.4-40.9c11.2-14.8,30.8-23,48.9-20.4c4.3,0.6,8.3,1.3,8.8,1.7
		c2.4,1.4-0.6,1.9-7.8,1.2c-7.8-0.7-16.9,0.2-23.4,2.3c-5.2,1.8-16.4,9.5-20.4,14.1c-10.4,12.2-10.2,26,0.5,32.2
		c4.6,2.7,17,2.8,25,0.1c26.5-8.7,64.8-40.6,75.5-63c3.5-7.3,7.3-21.2,7.8-27.9l0.2-3.9l-7.2-1.3c-5.4-0.9-8.8-2.2-13.5-5.2
		c-16-10.3-18.2-14.1-18.3-31.7c0-14.9,1.7-19,10.9-26.3l2.7-2l-2.2-4.2c-4.2-7.9-0.9-18.4,7.2-22.9c3.7-2.1,7.4-2.6,10.3-1.5
		c2.3,0.9,2,2.1-0.8,2.8c-3.9,1-8.6,6-8.6,9.3c0,1.6,0.5,3.4,1.2,4.1c2.9,2.9,11.5-0.1,19-6.7l4.3-3.9l-3.3-3
		c-1.7-1.6-3.2-3.7-3.2-4.5c0-1.7,4.1-2.7,10.6-2.7c2.4,0,4.4-0.2,4.4-0.4c0-0.3-1.2-3.2-2.6-6.5c-3.2-7.4-2.7-9.6,1.9-8.7
		c1.7,0.4,7.7,1,13.2,1.4s11,1.3,12.2,2c3.7,2.1,5.9,1.4,12.4-3.8c3.9-3.1,8-5.4,11.3-6.3c2.8-0.8,6.7-1.9,8.6-2.5
		C464.3-0.3,467-0.2,467.7,1.6z M454.5,6.6c-9.3,2.8-16.8,8.4-17.3,12.9c-0.5,3.9,0.6,4.5,6.2,3.3c4.1-0.8,5.8-0.7,11.2,1.1
		c3.6,1.2,6.6,2.1,6.8,2.1c0.2,0,0.6-3.9,1-8.8c0.4-4.8,1-9.7,1.3-11C464.3,3.6,464.7,3.6,454.5,6.6z M412.6,15.5h-10.3l3,6.7
		l2.9,6.6l4.3-1.8c2.3-1,6.8-2.1,9.9-2.5c6.5-0.8,7.3-2.6,3-6.6C423,15.7,422.1,15.5,412.6,15.5z M441.5,26.2
		c-1.6,0.5-7.7,1-13.5,1.1c-9.9,0.2-10.9,0.4-18,3.9c-4.1,2-11.7,6.9-16.9,10.9C382.7,50,378.8,52,373.6,52c-4.5,0-7.7-2.8-8.6-7.6
		l-0.8-3.9l-0.1,4.7c-0.1,3.9,0.3,5,2.5,6.7c1.4,1.1,4.1,2.3,6,2.7c4.9,0.9,4.2,2.8-2,5.4c-3,1.2-7.2,3.7-9.4,5.6
		c-4.1,3.5-8.2,10.6-8.1,14c0,1.7,0.1,1.7,1.6-0.4c3.8-5.5,18.7-12.5,22.9-10.7c1.8,0.7,1.8,0.7-0.1,1.5c-1.1,0.5-4.6,1.6-7.7,2.5
		c-10.4,2.8-15.9,9.9-15.9,20.4c-0.1,6.9,1.7,11.5,6.1,15.6l3.2,3l-0.9-3c-1.7-6.2-0.8-13.7,2.2-19.3s6.7-9.2,9.3-9.2
		c0.8,0-0.2,1.7-2.7,4.1c-6.3,6.3-8.9,17.7-5.7,25.2c1.7,4.1,7.4,9.1,12.1,10.7c4.5,1.5,5.5,0.7,2.7-2.3c-7.8-8.3-8.3-27.4-0.8-33.6
		c2.7-2.2,2.7-0.9,0,4.6c-4.3,8.7-3.2,18.1,3.2,27.5c2.8,4,6.8,6.3,12.9,7.3l4,0.6l-3.8-2.1c-5.7-3.1-9-9-9.5-16.6
		c-0.6-9,0.5-14.8,3.3-17.8l2.4-2.6l0.5,3.2c0.3,1.8,0.7,5.4,1,8c0.6,4.8,4.9,14.8,6.4,14.8c0.5,0,1.5-1.5,2.4-3.3
		c1.4-2.9,1.4-3.6-0.4-7.7c-4.4-10.2-4.1-21.7,0.6-26.3c3.1-3.2,6.5-8.4,5.8-9.1c-0.3-0.3-1.6-0.6-2.8-0.6c-3.2,0-4-1.8-1-2.6
		c3.3-0.8,8.2,1.9,10.1,5.6c0.9,1.7,2,2.8,2.4,2.6c0.5-0.3,1.6,2.2,2.6,5.7c3.3,11.8,6.5,15.9,13.3,16.9c4.3,0.6,4.1-0.9-0.6-6.3
		c-4.7-5.3-5.9-7.4-7.1-12.8c-1.1-5.1-0.1-5.2,3.4-0.4c6.1,8.3,13.9,15,13.4,11.5c-0.4-2.1,0.2-2.4,1.4-0.8c1,1.3,2,1.6,3.5,1.2
		c2.7-0.9,2.7-1.4,0.1-4.5c-1.5-1.8-2.3-2.1-3.1-1.3c-0.7,0.7-1.6,1.2-2,1.2c-1.3,0-0.9-2.7,0.7-4c1.2-1,1.1-1.8-1.1-6.1
		c-5.4-10.8-14.5-17.4-20.7-15.1c-4,1.5-4.9,0.6-1.7-2c3-2.4,7.9-1.8,13.1,1.8c3.2,2.2,4,2.3,6.3,1.3c2-1,3.5-1,6.6,0
		c3.2,1,5.5,3,11.7,10.4c10,12.2,11.4,12.9,18,10.2l3.6-1.5l-3.3-2.3c-1.9-1.2-6.1-5.8-9.4-10.2c-8.4-11-14.2-14.5-23.9-14.5
		c-2.3,0-3.6-0.4-3.2-1c1.1-1.8,11.8-1.1,16,1c2.2,1.1,4.3,2,4.8,2c1.5,0,5.7-10.5,5.7-14.5c0-4.8-1.3-3.7-3,2.7
		c-1.1,4.3-5.3,9.8-6.5,8.6c-0.3-0.3,0.6-2.5,1.9-4.9c3.6-6.6,4.1-10.4,1.7-12.8c-1.1-1.1-3.7-2.4-5.8-3
		C448.8,24.8,445.5,24.8,441.5,26.2z M467.6,38.2c-0.4,1.8-1.9,5.8-3.5,8.8l-2.9,5.5l3,3.5c2.8,3.4,3,3.4,4.4,1.6
		c2.1-3,5.4-12.3,5.4-15.6c0-1.7-0.9-3.9-2-5C469.2,34.2,468.4,34.5,467.6,38.2z M475.6,47.3c-0.9,3.2-2.8,7.8-4.2,10.3
		c-1.4,2.5-2.4,5-2.2,5.5c0.2,0.5,2.6,2,5.5,3.3l5.1,2.4l2.3-5.1c2.7-6.5,3.1-15,0.7-17.4c-1.4-1.4-1.8-1.4-2.2-0.2
		c-0.2,0.8-1.2,3.7-2.1,6.6c-1.5,4.7-6,11.1-7.1,10.1c-0.2-0.3,0.7-2.5,2-4.9c1.4-2.4,3-6.5,3.6-9.1
		C478.8,41.9,477.6,40.6,475.6,47.3z M366.3,54.6c-1.4-0.6-1.5-0.5-0.6,0.5c0.7,0.7,1.5,1,1.8,0.7S367.3,54.9,366.3,54.6z M487,56.8
		c0,1.6-1.1,5-2.4,7.5l-2.3,4.7h3.2c3.2,0,8.5-3.7,8.5-6c0-0.6-1.2-2.8-2.6-5C488.3,53.3,487,52.9,487,56.8z M438.7,58.6
		c-0.7,0.7,4.6,9.4,7,11.6c1,0.9,3.6,1.8,5.8,2c2.2,0.3,4.9,0.9,5.9,1.3c2.4,1.1-6.1-10.3-10-13.4C444.9,58.1,440,57.3,438.7,58.6z
		 M494.9,67.6c-2,2.4-6.4,4.4-10.1,4.5c-1.8,0.1-2.5,0.3-1.6,0.6c1.4,0.3,1.2,0.9-1.4,3.2l-3.1,2.8l15.8,27.9
		c8.7,15.3,16.1,28.3,16.5,28.7c0.4,0.5,2.6-0.1,4.9-1.2c4.7-2.4,4.9-1.2-2.5-13.6c-9-15.1-25.4-44.9-25.4-46.2
		c0-3.1,2.1-0.3,11.5,15.5c8.1,13.6,23.1,36,26.4,39.4c0.7,0.8,7.1-1.2,7.1-2.2c0-0.3-4.1-5.7-9.2-12c-13.2-16.6-22.7-32-19.8-32
		c0.6,0,4.8,5.7,9.4,12.7c8.5,13,20.7,28.7,23.8,30.7c3.2,2,3.2-0.4,0-4.2c-8.1-9.5-18.1-22.7-25.2-33.2
		C496.9,66.4,496.4,65.8,494.9,67.6z M410.9,67c-0.6,0-1.9,2.1-3.1,4.7c-2.4,5.4-2.1,12.5,0.7,18.5c1.6,3.2,2.3,3.6,6.8,4.2
		c6.6,0.9,7.5-0.2,4.4-5.6c-1.4-2.3-3.7-8.2-5.1-13.1C413.1,70.9,411.5,67,410.9,67z M478.1,70.7c-1.7-0.4-2.1-0.3-1.3,0.5
		c0.5,0.5,1.6,0.8,2.3,0.6C479.9,71.5,479.4,71.1,478.1,70.7z M402,84.5c0,6.2,3,14.2,5.7,15.2c2.5,1,2.5-0.4-0.1-5.4
		c-1.4-2.7-3-7-3.5-9.6C402.9,77.8,402,77.8,402,84.5z M470.4,84.4c-1,0.8-1.6,1.8-1.2,2.2s1.5,0.1,2.4-0.7c1.6-1.3,1.7-1.1,1.1,1.3
		c-0.6,2.1-0.4,2.6,0.7,2.2c0.9-0.4,1.4,0.3,1.4,2.1c0,3.3,1.3,4.8,3.5,3.9c1.5-0.5,1.4-1.1-1-5.5C473.9,83.5,472.8,82.7,470.4,84.4
		z M450.8,91.1c-2,0.6-8.4,6.3-9.6,8.5c-1.5,2.8-1.5,2.8-2.5,0.7c-1.2-2.8-4.5-2.6-7.9,0.6c-3.2,2.8-3.6,4.4-1,3.9
		c0.9-0.1,1.8,0.2,2,0.7c0.2,0.6-2.2,1.4-5.4,1.9c-5.4,0.9-12,0.2-16.8-1.9c-1.8-0.8-1.8-0.7-0.2,1.7c2.5,3.8,7,5.4,11.7,4.1
		c5.5-1.5,5.2,0.9-0.6,4.2c-3.3,2-6.4,2.8-12.1,3.2c-5.5,0.4-7.1,0.9-5.9,1.5c0.9,0.6,3.2,0.7,5.1,0.4c2.7-0.6,3.4-0.4,3.4,0.9
		c0,1.9,0.9,1.9,3.4,0c3.4-2.6,17.3-1.7,16.2,1c-0.3,0.8,0.2,1.6,1,1.9c2.5,1,0.6,2.4-4.2,3.2c-3.5,0.5-5,1.4-7.1,4.1
		c-2.4,3.1-2.8,3.3-3.9,1.9c-0.6-0.9-1.4-1.6-1.8-1.6c-0.6,0,4,6.9,9.2,13.7c3.1,4.2,11,8,19.2,9.3c11,1.7,12.6,1.4,17.4-3
		c4.7-4.3,12.9-15.7,16.5-22.8c1.4-2.8,3.3-4.8,5.3-5.6c2.3-1,2.6-1.5,1.4-1.9c-2.5-1-2-4.6,0.9-5.7c3.2-1.2,3.2-2.8,0-4
		c-2.9-1.1-3.9-4.3-2.7-8.5c0.6-1.9,0.5-3.7-0.2-5c-0.6-1.1-1.2-2.1-1.2-2.3c-0.4-0.9-6.4,3.6-6.8,5c-0.7,2.9-2.2,2.1-4.1-2.3
		c-1.7-3.6-6-7.9-8.1-7.9c-0.5,0,0.2,0.7,1.5,1.6c3,2.1,6.1,8.9,6.1,13.5c0,2.9,0.5,3.8,2.3,4.3l2.2,0.7l-2.2,1.6
		c-1.3,0.8-2.3,2.2-2.3,3s-0.6,1.3-1.2,1c-0.7-0.2-2.9,0.4-4.8,1.5c-1.9,1-4.5,1.8-5.8,1.8c-1.9,0-2.2-0.4-1.7-2.1
		c0.5-1.5,0-2.9-1.8-4.7c-5.3-5.5-7.1-13.7-4.2-19.2C450.4,92.3,450.9,91,450.8,91.1z M454.4,97.6c-1.3,5.1,3.5,10.6,6.2,7
		c1.4-2,0.3-7.4-1.8-8.8C456.5,94.4,455,95,454.4,97.6z M451.7,100.4l-0.4-2.9l-0.2,3.2c-0.1,3.7,1.8,8.5,3.1,7.7
		c0.5-0.3,0.2-1.6-0.6-2.8C452.8,104.3,452,102,451.7,100.4z M393,105c-2-4.3-2.1-4.4-1.4-1c0.9,4.8,2.9,8.6,5.6,10.4
		c3.8,2.7,4.4,1.8,1.1-1.7C396.5,111,394.2,107.5,393,105z M465.2,103.6c-0.9-2.8-1-2.9-1.1-0.7c-0.1,1.4-1,3.4-2.1,4.6
		c-1.2,1.3-1.7,2.8-1.3,4.3c0.8,3.2,2.2,2.7,3.9-1.5C465.8,107.5,465.9,105.9,465.2,103.6z M389.9,107.2c-1-3.2-1.8-4.8-1.8-3.6
		c-0.1,3.7,3,11.1,5.6,13.5l2.7,2.4l-2.4-3.3C392.8,114.3,390.9,110.3,389.9,107.2z M491.3,115c-0.8,0-3.3,3.4-3.3,4.5s2-0.6,3-2.6
		C491.6,115.9,491.7,115,491.3,115z M619.9,128.5c4.7,5.4,5.8,10.4,3.7,17.1c-3.4,10.7-13.7,17.2-25.5,16.1
		c-12.8-1.2-29.9-9.6-43.2-21.4c-4-3.5-7.6-6.3-8.1-6.3c-2.3,0,0.1,2.7,9.5,10.5c12.8,10.8,23.5,18,39.4,26.3
		c11.7,6,12.8,6.4,17.3,5.9c7.3-0.9,15.6-5.2,19-9.9c1.6-2.2,3.4-6.4,4-9.4c2.4-11.6-1.9-21.3-12.8-29.2
		C617.3,124,616,124.1,619.9,128.5z M395.2,126c-1.7,0-2.2,1-3.2,5.7c-3.3,17.1-7.9,29.1-14.8,38.8c-14.9,21-45.5,44.7-67.9,52.6
		c-7.1,2.6-21.2,3.6-27.1,2c-5.7-1.6-10.7-6.2-12.8-11.8l-1.8-4.7l-1.3,5c-3.1,12-0.6,25.6,5.3,28.2c3.5,1.7,13.5,1.5,20.5-0.3
		c8.3-2.2,21.3-8,35.2-15.7c6.4-3.7,11.7-6.3,11.7-5.9c0,3.1-27.9,18.6-42.2,23.5c-17.9,6.1-29.7,3.7-33.7-6.9l-1.1-3l0.5,3.5
		c1.7,11.4,14.8,15.5,31,9.7c3.9-1.3,11.2-4.3,16.4-6.6c5.2-2.2,9.8-4.1,10.3-4.1c2.5,0-1.6,2.7-12.5,8.2
		c-63,31.5-90.3,47.8-107.4,64.2c-15,14.3-23.7,27.7-24.9,38.4l-0.5,4.7l2.4-5.7c1.3-3.1,4-7.8,6-10.5c4.8-6.6,18.6-19.8,27.7-26.5
		c12.7-9.5,55.9-34.9,92.2-54.3c17.5-9.3,18.7-10.2,18.8-12.8c0-5.1,12.6-15.5,31.4-26c4.2-2.3,14.3-8.8,22.4-14.4
		c13.8-9.5,15.1-10.7,19.5-17.7c9.9-15.6,16.7-32,16.7-40.3c0-1.8-0.9-3.8-2.1-4.9c-2.4-2.2-5.9-8.6-5.9-10.9c0-0.8-0.9-1.5-2-1.5
		c-1.7,0-2,0.7-2,4.9c0,6.9-2.7,21.4-5.4,29.3c-4.7,13.4-17.7,30.8-32.4,43.4c-4.2,3.6-8.7,7.3-10,8.2c-3.9,2.6-3.6,0.5,0.4-3
		c16.1-13.7,28.7-28.5,35.1-41.1c4.2-8.4,8.2-23.3,9-34C397.3,126.4,397.2,126,395.2,126z M483.2,129.6l-0.7-2.8l-2,2.2
		c-3.4,3.8-3.4,15.1,0.1,25.8c2.5,7.4,2.9,10.3,2.9,19.9c0,10.2,0.2,11.3,2.3,13.5c1.2,1.4,2.2,3.7,2.2,5.4c0,3.9,2.5,7.3,6.6,9
		c5.2,2.2,9.5,1.7,16.5-1.9c6.1-3.1,6.4-3.4,7.1-7.7c1-5.6,0.2-6.3-9.3-7.9c-7-1.1-7.3-1.1-11.1,1.4c-2.9,1.9-3.8,3.2-3.6,4.8
		c0.4,2.5,6.2,6.7,9.2,6.6c1.7,0,1.5-0.3-1.1-1.6c-3.1-1.5-4.4-3.3-2.5-3.3c2,0,10.2,3.3,11.1,4.4c0.8,1,0.1,1.6-3,2.6
		c-3.9,1.3-4.4,1.3-9.7-1.6c-6.4-3.3-6.6-3.6-8.2-12.4c-1.7-9.3-1.4-17,0.8-19.9c2.1-2.9,14.1-8.1,18.6-8.1c2.4-0.1,3.6-0.8,5.1-3.2
		c1.1-1.7,8.3-7.6,16-13s14.1-10.2,14.3-10.7c0.6-1.8-3.2-2.1-9.4-0.6C524.6,133,522,134.6,512,145c-7.5,7.8-10.4,10.1-13.8,11.1
		c-3,0.9-4.9,1-6,0.3c-2.8-1.7-6.3-9.9-7.4-17.1C484.3,135.6,483.5,131.2,483.2,129.6z M542.8,137c-0.2,0.1-1.4,1-2.7,2.1
		s-3.1,2.4-3.9,2.8c-1.2,0.7,0.6,3.4,9.2,13.2c18.6,21.3,41.1,43.4,59.1,57.9c30.7,24.8,38.9,35.9,47,64c5.9,20.7,6.9,42.1,2.5,56.2
		l-1.9,6.3l3.4-4c6.8-8,11.5-19.3,16.9-41.1c3.4-13.4,4.1-22.4,2.7-32.2c-3-20.8-11.3-40.1-21.9-51.3c-11.9-12.7-16.9-16-50.6-33.6
		c-24-12.5-37.4-21.2-50.8-32.7C547,140.4,542.9,137,542.8,137z M416.1,144.8c-0.6-1.8-0.9-1.2-1.5,2.9c-1,7.5-3.9,15.2-9.8,26.1
		c-6.6,12-6.7,12.2-3.5,9.3c1.4-1.3,2.9-3.6,3.2-5c0.3-1.5,2.4-5,4.7-7.7c4.4-5.2,10.8-17.9,10.8-21.3c0-1.2-0.7-2.1-1.5-2.1
		C417.6,147,416.6,146,416.1,144.8z M537.5,152.1c35.2,44.5,40.1,50.2,58.1,69c23.1,24.1,37.6,47.2,44.1,70.5
		c2.6,9.2,2.8,11.2,2.7,27.9c0,14.5-0.5,20-2.2,28.2c-1.2,5.5-2.2,10.5-2.2,11c0.1,1.8,7.1-10.4,10-17.3c4.4-10.6,6-17.8,6-26.9
		c0-30.1-10.5-60.2-27.3-78.2c-3.4-3.6-13.4-12.5-22.2-19.6c-19.7-16.1-37.3-33.1-56.2-54.7C532.9,144.5,527.8,139.9,537.5,152.1z
		 M529.4,147.3c-0.7-0.2-2.5,0.7-4,2.1c-1.6,1.4-2.4,2.6-1.7,2.6c2.2,0,7.4,5.3,9.8,9.9c2.6,5.3,4.5,14.5,4.3,20.6
		c-0.2,3.3,0.5,5,3.9,9.5c4.7,6.3,29.6,45.5,36.5,57.5c18.2,31.8,27.8,59.7,30.8,89c1.4,13.4,0.6,25.1-2.7,41.5
		c-4.6,22.8-12.8,40-25.7,53.7c-4.3,4.6-7.5,8.3-7.1,8.3s3.5-1.5,6.9-3.3c8.4-4.4,24.5-20.7,32.5-32.8c11-16.5,19.1-35.4,23.8-54.9
		c3.6-15.2,4.3-39.6,1.5-53c-3.3-16.2-13.3-37-25.8-53.6c-3.2-4.3-12.5-14.7-20.5-23.1c-8.1-8.3-17.8-19.1-21.5-23.9
		c-3.8-4.7-14.3-17.9-23.4-29.2C537.9,156.9,530,147.5,529.4,147.3z M442,158c-0.5,0-1,0.9-1,2s0.5,2,1,2c0.6,0,1-0.9,1-2
		S442.6,158,442,158z M499.5,163.9c-6.4,2.9-8.5,5.7-8.5,11.1c0,3.8,0.9,3.8,4.6-0.1c5-5.3,7.1-5.9,16.8-5.1c7.7,0.7,8.7,0.6,9.2-1
		c0.8-2.6-1.2-5.5-4.7-6.7C511.7,160.3,505.9,160.9,499.5,163.9z M471.4,165.1c-2.2,0.2-8.7,3.8-11.2,6.2c-3.8,3.7-5.8,3.5-3.1-0.3
		c1.3-1.6,2-3.2,1.7-3.5s-2.6,2.1-5.1,5.5c-3.4,4.4-4.8,7.3-5.2,10.8c-0.4,2.6-0.9,5.6-1.1,6.7c-0.3,1.3,0.6,0.6,2.8-2
		c1.8-2.2,7.5-8.4,12.7-13.8C468.1,169.4,472,165,471.4,165.1z M511.2,172.5l-8.3-0.6l-5,4.9c-2.8,2.8-4.9,5.8-4.9,7.1
		c0,2.2,1.4,2.8,2.6,1c1.7-2.9,6.4-3.6,14.2-2.3c4.2,0.8,7.9,1,8.3,0.6c1.4-1.5,3.1-8.4,2.3-9.2
		C519.9,173.6,515.8,172.9,511.2,172.5z M414.5,184.5c-0.4,4.8-0.4,12.3-0.1,16.8c1,11.4,1,11.4-0.9,19.5c-0.9,4.1-1.4,7.6-1,8
		c0.7,0.7,8.4-3.4,16.8-9.1c4.5-3,5.7-4.3,5.1-5.5c-1.7-3.9-1.6-10.6,0.2-13.9c1.7-3.3,1.7-3.5-0.4-7.8c-2.5-5.2-8.5-12.1-12.1-13.9
		C415.2,175.1,415.3,175.1,414.5,184.5z M472.1,182.6c-6.9,1.8-16.1,6.7-19.7,10.5c-2.8,2.9-2.8,2.9-1.1,6.4
		c3,6.3,1.8,13.2-2.9,17.1c-1.1,0.9,0.4,3,7,10.4c4.6,5.1,8.7,9.3,9.2,9.4c2.4,0.4,5.7-18.8,3.4-19.6c-0.5-0.2,2.2-6.6,6.2-14.3
		c6.4-12.5,7-14.4,6.4-17.8C479.8,180.6,479.7,180.5,472.1,182.6z M403,187.5c-0.8-0.5-1.1-0.3-20.5,13.5
		c-8.2,5.9-19.5,13.3-25,16.5c-21.5,12.3-34.2,22.2-31.7,24.7c0.7,0.7,2.8-0.4,6.2-3.1c6-4.7,11.7-7.4,18.9-9
		c7.4-1.6,11.5,0.3,14.2,6.4c2.4,5.3,0.6,5.9,20.4-6.8l13-8.3l-0.1-8c-0.1-4.3-0.3-8.8-0.5-9.9c-0.3-1.5,0.2-2.1,2.2-2.3
		c1.5-0.2,3.5-1.2,4.4-2.2c1.6-1.7,1.6-2.5,0.5-6.5C404.3,190,403.4,187.8,403,187.5z M536.8,190c-0.5,0,0.1,1.3,1.4,3
		c1.2,1.6,2.3,3,2.5,3s-0.4-1.4-1.4-3C538.4,191.3,537.2,190,536.8,190z M484.9,195c-1.6-4.4-1.7-4.4-2.7-2
		c-0.5,1.4-2.4,5.6-4.1,9.3c-3.3,7.1-3.3,8.7-0.1,8.7c5,0,17,2.4,17,3.4c0,0.6-6.4,7.4-14.1,15.2l-14.1,14.2l11.6,2.7
		c6.4,1.4,12.3,2.5,13.2,2.3c1.4-0.3,21.3-36.7,21.4-39.1c0-0.4-1.3-0.7-3-0.7c-7.3,0-20.6-4.4-22.3-7.3
		C487.1,200.5,485.8,197.5,484.9,195z M534.5,193c-0.1,0-1.9,2-4,4.5l-3.7,4.5l6.7,15.7c10,23.7,16.5,43.6,19,58.5l0.6,3.7l11.4-0.2
		c12.4-0.2,14.2,0.4,12.7,4.4c-0.5,1.3-1.3,5.1-1.7,8.5l-0.7,6l4.1,1.8c2.2,1,4.9,2.8,6.1,4.1l2,2.1l-6,10.5
		c-6,10.5-6.9,13.4-5,16.9c1.8,3.4,0,6.8-8.6,15.9c-6.6,7.1-8.4,9.7-8.9,12.8c-2.1,13.8-6.7,29-12.1,39.9l-5.7,11.5l2.2,10.7
		c1.3,5.9,2.4,10.9,2.7,11.1c0.7,0.7,11.4-7.9,18.3-14.9c13.6-13.6,23.3-31.5,27.2-50.3c6.2-30.4,4.8-60.6-4.2-87.1
		c-6.7-19.8-28.2-58.3-45.6-81.9C537.7,196.9,534.7,193,534.5,193z M524.2,203.8c-0.4-0.4-1.5-0.1-2.5,0.6c-1.6,1.2-1.4,1.9,2.7,9.2
		c8.6,15.1,14.4,35.3,16.8,57.8c0.7,6.4,1.6,11.6,2,11.6c0.3,0,1.8-0.4,3.2-1c2.1-0.7,2.6-1.6,2.6-4.2c0-8.6-8.2-35.1-18.5-59.8
		C527.4,210.6,524.6,204.2,524.2,203.8z M404,216.5l-3-6l0.5,5.5c0.6,5.9,6.5,19.2,11,24.5l2.5,3l-1.5-4.4c-0.9-2.4-2-5-2.5-5.6
		c-0.6-0.7-1.7-3.4-2.5-6.1C407.6,224.7,405.6,219.8,404,216.5z M516.5,212c-0.3,0-1.2,1.5-2.1,3.3c-1.5,3.1-1.4,3.6,1.6,11.1
		c5.1,13.1,7,22.6,7,36.4V275l5.5-3.6c3-2,5.5-4.3,5.5-5.1s-0.9-6.1-2.1-11.6c-2.4-12-6.6-25-11.3-35.3
		C518.7,215.3,516.9,212,516.5,212z M489.1,216.4l-8-1.5c-9-1.7-9.1-1.7-9.1,6.2c0,2-0.9,6.2-2,9.4s-1.9,6-1.7,6.1
		c0.2,0.2,4.9-4.3,10.5-9.9L489.1,216.4z M429.1,231.7c-9.3,15.3-11,17.5-12.2,16.7c-0.5-0.3-0.9,0.2-0.9,1.1c0,1.4,0.3,1.4,2.8,0.1
		c1.6-0.8,6.6-4.6,11.3-8.5c5-4.2,9.3-7.1,10.7-7.1c1.2,0,4.1,0.9,6.2,2c2.2,1.1,4,1.8,4,1.4c0-1.5-8.2-17.9-9.3-18.6
		C438.7,216.9,437.1,218.6,429.1,231.7z M510.9,222c-0.7,0-4.5,7.5-12.5,24.5c-2.4,5.2-2.4,7.8,0.2,22.5l0.6,3.5l1.5-3
		c3.3-6.5,15.7-16.6,18.3-15c2.5,1.5,0.3-10.2-4.7-24.8C512.8,225.5,511.3,222,510.9,222z M429.8,223c-0.2,0-1.6,0.9-3.3,1.9
		c-1.6,1-5.1,3-7.7,4.5l-4.7,2.6l1.5,4.8c0.9,2.6,1.8,5.3,2,6.1c0.5,1.5,5.2-5.6,10-15C428.9,225.2,429.9,223,429.8,223z M401,227.3
		l-1.5-2.9l-15.6,9.9c-13.9,8.8-15.5,10.1-15.1,12.2c0.5,3,10.6,20,11.8,20c1.6-0.1,10.3-13.7,16.2-25.2
		C402.2,230.6,402.4,230.1,401,227.3z M465,240.4l-7.5-7.4c-4.1-4.1-7.5-7.1-7.5-6.8c0,0.4,1.6,4.4,3.6,9c1.9,4.6,3.8,9.1,4.2,10.1
		c0.6,1.6,1.1,1.4,3.9-1.5L465,240.4z M354.2,232c-2.5,0.1-11.8,3.6-15.5,5.9c-10,6.2-17.3,19.8-11.6,21.6c1.1,0.4,2.2,0.5,2.3,0.3
		c0.1-0.1,1.4-2.4,2.9-4.9c4.6-8,15.5-16.5,25-19.4l4.2-1.3l-2.8-1.1C357.1,232.5,355.1,232,354.2,232z M404,234
		c-0.3,0-2.8,4.6-5.7,10.3c-4.5,8.8-9,16.1-14.8,24.2c-1.3,1.9-1.1,2.6,2.8,8.5c2.4,3.6,5.7,8.4,7.4,10.8l3.2,4.3l1.4-2.3
		c0.8-1.3,4.7-8.4,8.7-15.7l7.3-13.5l-1-7.2c-0.8-5.5-1.9-8.6-4.9-13.3C406.2,236.8,404.3,234,404,234z M440.8,237
		c-0.2,0-3.9,3-8.2,6.6s-9.7,7.4-11.9,8.5l-3.9,2.1l0.6,5.7c0.9,7.8,5.4,32,6.3,33.4c1.1,1.9,14.9,18,17,19.9
		c1.8,1.7,2.3,1.5,11.3-4.5c16.1-10.7,21.5-13.7,34.2-19.2c8.1-3.5,12.2-5.8,11.9-6.7c-1.4-4.9-3.1-14.4-3.7-20.5
		c-0.4-4-1.2-7.9-1.8-8.7c-0.6-0.7-5.3-2.1-10.4-3c-5.2-0.9-11.2-2.3-13.5-3.1c-4.1-1.4-4.2-1.4-7.4,1.7c-3.9,3.8-5.8,3.2-6.7-2.2
		c-0.6-4-1-4.3-7.1-7.1C443.9,238.3,440.9,237,440.8,237z M351.4,241c-10.2,5.1-19.4,15.7-19.4,22.4c0,4.2,1.8,3.9,3.8-0.6
		c1-2.4,4.2-6.5,7.1-9.1c5-4.7,15.9-10.7,19.4-10.7c1.8,0,2.1-0.8,1.1-3.4C362.5,237.2,358,237.7,351.4,241z M354.2,249.1
		c-6.9,3.4-15.7,12.3-16.7,16.8c-0.7,3.3,0.8,7.1,2.9,7.1c0.8,0,1.6-1.6,2-4c0.8-5.2,10.7-16,17.6-19.2c2.7-1.3,4.9-2.6,5-3.1
		C365,245.1,360,246.2,354.2,249.1z M324.3,247c-1.4,0.1-59.2,32.3-74.8,41.7c-22.7,13.6-28.2,17.3-39.1,26.1
		c-22.1,17.8-34.1,34.9-31.8,45.6c0.6,2.8,4.9,8.6,6.4,8.6c0.3,0,1.3-1.5,2.2-3.3c2.8-5.9,16.5-23.2,25.6-32.3
		c26.1-26.3,48.7-43.9,88.7-68.9c20.7-12.9,23.4-14.9,23.5-16.8C325,247.3,324.7,247,324.3,247z M575,250.9c0,0.6,0.4,1.3,1,1.6
		s0.7-0.1,0.4-0.9C575.7,249.8,575,249.5,575,250.9z M365.3,251c-4.5,0.3-15.5,9.3-18.9,15.5l-1.9,3.5l15.6,15.6l15.6,15.6l8.9-1.1
		c14.9-2,14.3-1.1,7.1-10.5c-6.2-8.2-15-21.3-21.9-32.5C367.8,253.7,365.7,251,365.3,251z M577.6,254c-0.3,0,1.5,4.3,4,9.7
		c14.2,30.5,18.5,56.2,14.9,88.3c-3.7,33-11,50.4-29.4,69.3c-3.6,3.8-9.7,9.4-13.5,12.4c-6.7,5.5-6.8,5.6-6.3,9.5
		c0.3,2.2,0.8,4.2,1.1,4.5s3.9-0.2,8-1.2c5.9-1.3,8.9-2.6,13.5-6.1c16.3-12.2,28.5-34.9,34.3-63.6c3.2-15.8,3.2-38.5,0-54.7
		c-3.9-19.3-9.3-34.3-20.3-56.4C580.6,259.3,577.8,254,577.6,254z M321,256.1c-1.4,0.1-52.3,33.3-60.8,39.5
		c-12.3,9.1-36.1,30.3-47.4,42.3c-8.7,9.3-18.1,20.9-21.3,26.6c-1.6,3-1.6,3,0.2,0.5c14.8-20,28.3-32.2,65.4-58.8
		c10.7-7.6,28-19.4,38.4-26.1c10.5-6.8,21-13.7,23.5-15.4c2.5-1.7,4.6-3.1,4.7-3.2c0.2-0.1-0.3-1.3-1-2.8
		C322.1,257.2,321.3,256,321,256.1z M517,272.2l-0.5-14.4l-4,3c-13.9,10.2-15.6,24-3,23.4c5-0.2,7.5,1.6,7.5,5.3
		c0,1.3,0.5,2.7,1.1,3c1.8,1.2,2.3-0.4,0.8-3.2C518.1,287.5,517.4,281.4,517,272.2z M327.6,263c-0.6,0-7.4,4.2-15.1,9.2
		c-7.7,5.1-21.9,14.4-31.5,20.7c-9.6,6.3-24.4,16.6-32.9,22.9c-36.2,27-53.1,44.8-60.6,63.7c-2.4,6-2.7,7.9-2.3,15
		c0.4,6.5,1.1,9.2,3.7,14.4c4.1,7.9,11.8,15.7,19.2,19.3c6.1,3,16.5,5.1,22.4,4.6l3.8-0.3l0.2-12c0.3-14.5,3-24.5,10.5-39.8
		c9.3-18.6,22.4-36.3,46-62.2c13.4-14.8,38.2-39.3,42.5-42.1c3.3-2.1,3.2-3.8-0.5-6.4c-1.6-1.2-3.3-3.2-3.6-4.6
		C329.1,264.1,328.3,263,327.6,263z M536.3,270.1c-0.9,0.1-14.2,9.4-15.7,10.9c-0.9,0.9,1.8,9.5,3.4,10.5c0.5,0.3,3.3-0.7,6.3-2.1
		c5.2-2.6,5.5-2.9,6.1-7.2c0.3-2.5,0.6-6.2,0.6-8.3C537,271.7,536.7,270,536.3,270.1z M329.5,283.9c-25.2,22.1-58.9,68.1-72.3,98.6
		c-1.7,3.9-4.3,11.1-5.7,16c-2.3,7.7-2.6,10.3-2.2,17.5c1.1,18.3,7.9,36.8,15.8,43.2c6.2,5,13.9,7.1,27.1,7.1
		c6.5,0.1,12-0.2,12.4-0.5c0.3-0.4-0.3-2-1.5-3.6c-10.9-15.4-12.2-48.6-2.9-75.7c5.6-16.4,16-36.6,29.4-57.2l7.2-11.2l-3.1-2.5
		c-3.8-3-2.9-4.2,4.3-5.2c4-0.6,5.6-1.7,14-10.1l9.5-9.4l-8-7.5C342.6,273.3,341.5,273.3,329.5,283.9z M556,282.6
		c-5.7,0.9-11.1,2.8-21.5,7.7c-7.7,3.6-12.3,5.2-15.2,5.2c-2.4,0-4.3,0.3-4.3,0.6c0,0.3,1.5,1.2,3.3,2.1c2.4,1.2,3.8,1.3,5.2,0.6
		c1.1-0.7,11.2-1.1,25.1-1.2l23.3-0.1l0.6-4.5c0.4-2.5,1-5.7,1.5-7.2c0.5-1.4,0.6-2.9,0.3-3.2C573.6,282,560.2,282,556,282.6z
		 M503,286.1c-5.3,1.1-24.6,9.9-33.8,15.4c-4.2,2.5-11.7,7.5-16.5,11c-4.9,3.6-9.5,6.5-10.2,6.5c-2.6,0-22.5-23.6-22.5-26.6
		c0-1.9-1.9-1.8-2.6,0.1c-1,2.5,1.6,7.4,7.9,15.2c6.1,7.6,15.5,16.3,17.6,16.3c0.7,0,6.7-3.3,13.4-7.3c13.3-8,30.1-17.4,41.4-23.1
		c7.7-3.8,9.3-5.3,7.2-6.7C504.1,286.4,503.3,286.1,503,286.1z M367.4,297l-3.9-4l-7,7.1c-5.3,5.5-6.4,7-4.5,6.4
		c1.4-0.4,6.1-1.7,10.5-2.8c4.4-1.2,8.2-2.3,8.5-2.5C371.2,301.1,369.6,299.1,367.4,297z M491.5,299.8
		c-13.5,7.1-33.8,19.1-41.5,24.6c-4.6,3.3-5.4,5.3-2,4.8c1-0.2,2.1,0.2,2.5,0.8c0.5,0.8,1.2,0.4,2.2-0.9c2.1-3,6.8-2.8,8.9,0.4
		c1.3,2,2,2.3,3,1.4c0.8-0.6,2-0.9,2.8-0.6s1.8-0.4,2.4-1.9c1.3-2.8,5.6-4.1,7.7-2.4c1.2,1,1.6,0.9,2.1-0.5c0.8-1.9-0.1-13-1.2-15.9
		c-0.5-1.4-0.3-1.7,0.7-1.4c1.3,0.4,2,2.6,3.6,10.8c0.4,2.2,0.6,2.3,1.4,0.7c0.6-0.9,2.1-1.7,3.4-1.7c3,0,7.1-3.8,6.7-6.1
		c-0.3-1.8,4.2-5.9,6.3-5.9c1.4,0,2.5-2.2,2.5-5.1c0-1,1.1-2.9,2.5-4.1s2.5-2.5,2.5-3C508,291.9,503.7,293.5,491.5,299.8z
		 M514,301.2c0,3.2-0.9,4.2-5.2,6.3c-3.2,1.4-3.7,2.1-3.2,4c0.7,2.7-2.5,6.5-5.3,6.5c-2.6,0.1-5.6,3-6.8,6.5
		c-0.6,1.6-2.1,3.5-3.3,4.1c-2,1-2.1,1.3-0.7,2.4c0.8,0.7,1.5,1.8,1.5,2.4c0,1.6,3.8,4.9,7.2,6.4c1.7,0.7,3,2.2,3.4,3.9
		c0.4,1.5,1.4,3.3,2.2,3.9c0.8,0.6,1.3,1.9,1,3c-0.4,2.4-4.8,3.2-6,1c-0.5-0.9-1.9-1.6-3.1-1.6c-2.9,0-4.7-1.8-4.7-4.6
		c0-2.7-1.7-4.2-5.5-4.6l-2.9-0.3l-1.3,10.4c-0.8,5.7-1.2,10.5-1,10.8c0.2,0.2,5.1-1.2,10.9-3.2c14-4.7,28.6-6.5,35.2-4.3l4.6,1.5
		v-5.1c0-12.1-6.3-27.6-14.5-36c-5.6-5.8-5.2-7.1,0.6-2.5c9.2,7.3,15.7,21.6,16.6,37c0.5,7.3,0.2,9.2-1.6,13.3
		c-1.1,2.7-2.1,5.1-2.1,5.4c0,0.2,2.2,0.2,5,0c8.6-0.8,17.3-6,27.5-16.3c11.1-11.2,12.4-13.4,10.1-16.9
		c-2.2-3.4-15.5-14.7-23.6-20.1c-3.7-2.4-11.1-5.9-17-8c-5.8-2-12-4.5-13.8-5.6C514.1,298.5,514,298.5,514,301.2z M556.5,300.4
		c-8.8,0-19.4,0.1-23.5,0.3l-7.5,0.4l7,2.3c12.2,4,23.5,10.9,34.6,21.3l4.7,4.4l2.1-4.6c1.1-2.6,3.7-7.4,5.7-10.6
		c2-3.3,3.3-6.7,3-7.5s-2.7-2.5-5.3-3.7C573.1,300.8,570.6,300.6,556.5,300.4z M396.9,301.5c-0.3,0.2-6.6,1.2-14,2
		c-8.3,1-19.1,3.2-28.4,5.7c-8.2,2.3-15.2,4.3-15.4,4.5c-0.3,0.2,0.6,1.1,2,2c1.3,0.9,4.7,4.1,7.5,7.1l5.1,5.4l8.9-4.5
		c12.6-6.4,28.1-12.3,41.2-15.7c4.8-1.2,5.4-3,1.7-5.4C403.2,301.1,397.9,300.4,396.9,301.5z M407.8,310.1
		c-4.4,0.1-30.4,9.6-40.8,14.8c-11.2,5.7-22.2,12.9-21.5,14.1c0.2,0.4,4.5,2.4,9.5,4.5c5.1,2,11.4,5.3,14.2,7.1l5,3.4l9.7-9.8
		c5.3-5.4,14.4-13.6,20.3-18.1l10.8-8.4l-2.5-1.9c-1.4-1.1-2.5-2.8-2.5-3.9C410,310.6,409.3,310,407.8,310.1z M423.7,314.7
		c-1.8,1.8-0.5,3.3,2.9,3.3c3,0,3.7,0.5,4.9,3.2c1.5,3.7,5,6.4,6.1,4.7c0.3-0.6,0.4-1.2,0.3-1.3c-0.2-0.2-3-2.6-6.2-5.4
		C426,314,424.9,313.4,423.7,314.7z M340.5,320.6c-2.5-0.9-15.7,19.7-27.1,42.6c-9.7,19.2-14.1,32.6-16.1,48.6
		c-1.5,11.4-1.5,13.4,0,23.9c1.6,11.7,4.3,19.1,9.4,26.5c6.5,9.4,24.4,12.5,42.5,7.4c9.8-2.8,32.1-13.3,31.3-14.6
		c-0.3-0.5-4.2,1.1-8.8,3.5c-11.4,6-16.9,7.7-25.6,7.7c-6.2-0.1-8.4-0.6-13.6-3.1c-17-8.4-25.4-27.4-24.2-55
		c0.4-10.3,1.2-14.8,4.1-25.1c6.1-21.7,13.7-38.5,24.7-54.7C340.8,322.8,341.6,321.1,340.5,320.6z M416.8,320c-0.2,0-3.9,3-8.3,6.6
		c-11.7,9.5-28,25.9-32.6,32.8l-4,6l5.3,1.3c6.8,1.8,7.6,2.3,19.5,13.6c5.5,5.2,11.3,10.2,13,11c7.7,4,16.2,2.9,21.2-2.8
		c4.2-4.8,3.9-6.8-1.1-10.3c-6.6-4.5-8.3-6.9-8.2-11.1c0.1-4.1,6.1-17.3,11.7-26c2.9-4.5,3.3-5.8,2.4-8c-0.6-1.6-1.8-2.7-3.1-2.8
		c-6.9-0.5-11.6-3.1-11.6-6.4c0-1-0.9-2.3-1.9-2.9C418,320.5,417,320,416.8,320z M344.6,324c-1.6,0-11.7,15.9-17.4,27.5
		c-6.6,13.4-10.8,26.1-12.8,38.6c-1.5,9-1.5,12.1-0.5,22.8c1.9,20,6.7,32.1,15.7,40c9.7,8.5,25.1,9.3,41.8,2.1l5-2.1l-5.2-5.2
		c-3.1-3.1-6.4-8-8.4-12.2c-3-6.4-3.3-8-3.6-19.2c-0.6-16.6,2.7-37.3,8.8-54.7c1.1-3.3,2-6,2-6.2c0-0.9-10.9-6.8-17.3-9.3
		c-4.3-1.7-9-3.9-10.4-4.8l-2.6-1.7l4.7-4.1c5.1-4.5,5.4-5.4,3-9C346.5,325.1,345.3,324,344.6,324z M278.4,336.8
		c-29.5,35.4-42.2,62.2-41.1,86.7c0.7,17.8,5.4,26.8,16.8,32.6c3.3,1.6,5.9,2.5,5.9,2c0-0.6-0.5-1.3-1-1.6
		c-2.1-1.3-7.3-13.2-9.7-22.4c-3.8-14-3.7-27.5,0.1-39.1c5.5-16.7,17.9-40,30.8-58c3-4.1,5.7-8.1,6.2-8.8
		C288.1,325.4,286,327.6,278.4,336.8z M452.8,336.1c-0.9-1.2-1.9-1.7-2.7-1.2c-0.7,0.4-2.3,0.6-3.5,0.4c-1.3-0.3-2.7,0-3,0.6
		c-0.4,0.6-1.6,1.1-2.6,1.1c-1.3,0-3.3,2.3-6.2,7.2c-5.1,8.8-9.1,16.9-8.5,17.4c0.2,0.2,1.9-0.4,3.8-1.3c7.7-4,27.4-1.3,36,4.8
		c1.7,1.2,3.2,1.9,3.4,1.7c0.9-0.8,3.6-15.5,4.2-22.4c0.5-6.6,0.4-7.3-1.5-8.3c-1.6-0.9-2.6-0.8-4.1,0.1c-1.6,1-2.3,0.9-3.8-0.5
		c-1.8-1.5-1.9-1.5-3.1,0.3c-0.8,1.3-2.3,2-4.2,2C455.3,338,453.6,337.2,452.8,336.1z M479.5,334.2c-0.7-0.7-2.5,3.8-2.5,6.3
		c0,1.5-1.1,9.1-2.6,16.9c-2.5,14.3-5,21.3-9.8,27.5c-3.3,4.4-2.4,5.1,6.5,5.1c11.3,0,24.5-3.6,23.6-6.4c-0.2-0.6-3.9-3-8.2-5.2
		c-9.9-5.2-10.8-6.5-10.1-12.9c0.3-2.8,1.2-10.8,2-18C479.2,340.4,479.7,334.3,479.5,334.2z M507.4,358.5
		c-12.9,2.3-25.1,6.7-26.9,9.5c-1.1,1.8,2.4,4.8,9.7,8.7c3.8,2,7.4,4.5,7.9,5.5c2.4,4.5-8.6,10.5-21.3,11.5
		c-3.9,0.3-6.8,1.1-6.8,1.7s3.5,9.2,7.9,19.1c4.3,9.9,12.9,29.7,19.1,44s15.5,35.7,20.7,47.5c12,27.2,14.7,33.8,17.8,45
		c2.7,9.4,5.1,16.3,15.8,44.5c5.9,15.6,25.4,74.2,32.6,98c4.4,14.6,7.8,28.9,9.1,38c0.6,4.4,1.3,9,1.6,10.3l0.4,2.2l5.8-2.9
		c3.1-1.6,7.2-4.2,9.1-5.8l3.4-2.9l-2.1-8.9c-2.1-9.3-7.2-41.6-11.8-75.5c-4.6-34.4-14.5-67.8-30.1-101.5
		c-9.5-20.6-11.4-27.7-19.8-74.5c-7.6-42.5-23.2-105.1-28.1-112.8C519.7,356.7,517.9,356.6,507.4,358.5z M446.8,362h-6.1
		c-14.2,0.1-19.5,8.5-8.9,13.9c5.3,2.7,7.5,5.5,6.6,8.3c-1.3,4.2-4.7,7.8-9.8,10.3c-7.8,3.9-15,3.1-24-2.5c-2.7-1.7-4.9-3-5.1-2.8
		c-0.3,0.4-9.5,47.4-12.4,63.3c-3.7,19.9-9.1,65.6-9.1,76.6c0,9.7,0.2,10.7,2.3,12.6c5,4.6,14.6,8.3,38.3,14.8
		c36.8,9.9,96.6,31,123.8,43.4c3.8,1.8,7,3,7.2,2.8s-1.8-5.9-4.5-12.7l-4.8-12.3l-4.5-1.2c-5-1.2-6.9-2.5-22.4-14.6
		c-36.4-28.5-60.7-40.1-88.7-42.4c-7.6-0.6-8.7-1-8.2-2.4c8.1-20.7,41.5-123.3,41.5-127.4c0-0.6-2.5-7.2-5.6-14.5L446.8,362z
		 M553.7,362.8c-0.5,0.7-3,2.3-5.7,3.7c-3.9,2-5,3.1-5.5,5.7c-0.4,1.8-2.2,7-4.1,11.5l-3.5,8.1l2.1,8.4c1.2,4.5,2.3,8.4,2.5,8.6
		c0.5,0.6,6.2-10.3,8.9-17.1c1.5-3.8,3.6-10.9,4.7-16C555.1,366.7,555.4,360.2,553.7,362.8z M369.1,371.7c-1.5,1.4-2.6,4.8-4.5,14.3
		c-4.6,23.4-4.3,37.3,1.1,49.2c2.7,6,9.5,13.3,15.1,16.2c3.1,1.6,3.2,1.6,3.2-0.5c0-1.2-1.3-4.3-3-6.9c-3.7-5.7-6.3-13.3-8-22.6
		c-1.7-9.8-0.7-31.4,1.9-41.9c1.2-4.4,2.1-8.3,2.1-8.8C377,369.3,371.2,370,369.1,371.7z M538.6,370c-1,0-1.6,0.9-1.6,2.3
		c0,1.3-0.9,4.9-1.9,8c-1.1,3.2-1.6,5.7-1.2,5.7c0.8,0,4-7.9,5.6-13.8C540,370.6,539.7,370,538.6,370z M187.6,372
		c-0.3,0-1,0.9-1.6,2s-0.8,2-0.6,2c0.3,0,1-0.9,1.6-2S187.8,372,187.6,372z M379.2,375.7c-4.3,14.7-5.4,34.6-2.7,48.1
		c1.5,7.5,6.8,20.2,8.4,20.2c0.5,0,1.1-1.9,1.5-4.3c0.3-2.3,2.7-15.6,5.3-29.5l4.7-25.3l-5-5c-2.7-2.8-6.1-5.7-7.6-6.5
		C380.3,371.6,380.5,371.4,379.2,375.7z M462.8,392.2c-1.6-0.3-4.6,8.3-13.4,38.3c-2.5,8.8-6.1,20.8-7.9,26.7
		c-3.8,12.3-4.1,11.7,5.7,9.7c8.7-1.8,18.9-7.3,24.9-13.3c5-5,10.9-14.6,10.9-17.8c0-0.8-4.2-10.8-9.4-22.3
		C468.2,401.5,463.6,392.4,462.8,392.2z M486.9,442.8l-1.5-3l-1.9,4.3c-3.1,6.9-13.1,16.4-21.6,20.5c-7.7,3.6-5.8,3.8,3.5,0.4
		c7.4-2.8,15.4-8.7,19.4-14.3C488.1,446.1,488.2,445.7,486.9,442.8z M489.9,450.7c-0.2-0.2-2.9,2.1-5.9,5.2
		c-6.4,6.5-15,11.3-23.3,13.2c-7.9,1.7-5.4,2.9,6.3,2.9c9.6,0,20.5-1.2,27.2-3.1l3.7-0.9l-3.8-8.5
		C492,454.8,490.1,450.8,489.9,450.7z M441.3,473.3c-3.7-0.6-2.7-2.4-9.8,17.3c-2.5,6.6-5.4,14.2-6.5,16.8c-2.6,6.3-2.6,7.6,0.5,7.6
		c1.4,0,6.1,0.7,10.3,1.5c24.9,5.1,48,17.3,79.2,41.8c12.2,9.6,21.4,15.6,22.5,14.5c1-1-9.9-34-15.9-47.9
		c-21.3-49.3-22.4-51.4-25.3-51.3c-1.5,0-9.2,0.7-17.1,1.4c-11.6,1.1-16.2,1.2-24.5,0.2C449.1,474.5,443,473.7,441.3,473.3z
		 M594.3,605.2c1.1,3.1,3.7,13,5.3,20.7c1.6,7.8,3.9,12.1,6.3,12.1c1.5,0,2.4-7.7,1.6-13.8c-1.2-10.5-2.1-12.5-7.5-16.5
		C594.7,603.8,593.5,603.2,594.3,605.2z M610.1,617.7c1.1,6.8,1.1,21.5-0.1,23.3c-0.7,1.2,0.9,3.4,7.3,9.7c4.5,4.6,8.7,8.3,9.4,8.3
		c2.5,0,2.1-9.9-0.9-19c-2.5-7.9-9.1-21-12.3-24.4C610,611.8,609.2,612.4,610.1,617.7z M609.8,738.7c-1.9,1.6-6.3,4.1-9.7,5.8
		l-6.3,3l0.5,3.8c0.3,2.1,0.8,4.1,1.1,4.4c1.1,1.2,8.4-1.7,12.8-5.1c6-4.6,8.1-8,7.3-11.7C614.7,735.3,614.2,735.3,609.8,738.7z
		 M617.5,745c-0.2,0-1.3,1.3-2.4,2.9c-2.6,3.6-10.3,8.8-15.2,10.3c-3.4,1-3.7,1.3-3.3,4.2c0.2,1.7,0.9,6.7,1.4,11.1
		c1.9,14.9,6.2,41.2,7,42.6c1.4,2.2,5.9-0.9,9.5-6.6c7.3-11.6,8.2-14.3,9.6-28.1c1.6-17.3,0.8-25.4-3.3-31.6
		C619.2,747.1,617.6,745,617.5,745z M628.1,756c-0.6,0-1.1,5.7-1.3,13.4c-0.2,7.4-0.1,13.3,0.2,13.1s2.6-4.7,5-10.1l4.4-9.7
		l-3.7-3.3C630.7,757.5,628.6,756,628.1,756z M633.2,777.1l-4.2,9.1l2.1,2.9c1.1,1.6,2.2,2.9,2.5,2.9c0.2,0,1.8-2.8,3.5-6.2
		c2.6-5.1,3-6.9,2.5-10.6C638.5,767,637.7,767.2,633.2,777.1z M625.7,803.5l-1.3-5l-1.6,2.5c-0.8,1.4-3.2,5.3-5.3,8.8
		c-3.9,6.7-7,9.3-10.9,9.6c-3.1,0.1-3.3,1-4.2,14.9c-0.6,9.9-0.6,10.7,1.1,10.7c2.3,0,8.1-6.3,15-16c6.8-9.7,8.5-13.2,8.5-17.2
		C627,810,626.4,806.3,625.7,803.5z"/>
	<path d="M424,40.9c0,0.5-1.4,1.4-3,2.1c-1.7,0.7-4,2.6-5.1,4.1c-1.1,1.6-2.9,2.9-3.9,2.9s-2,0.5-2.2,1.1c-0.3,0.9-0.9,0.9-2.5,0
		c-3.1-1.6-5.8-1.4-10.4,1l-4,2l1.1-2c1.7-3.3,6.7-5.4,10.9-4.6c3.3,0.6,3.4,0.5,1.6-0.8c-1.1-0.8-2.9-1.6-3.9-1.8
		c-2.9-0.6-3.2-2.9-0.4-2.9s8.8,3.5,8.8,5.2c0,0.7,0.7,0.2,1.6-1.1c0.9-1.2,3-3.1,4.8-4.2C420.7,39.9,424,39.4,424,40.9z"/>
	<path d="M434.1,121c1.1,0,3.1,4.8,2.5,5.8c-0.3,0.6-0.2,1.3,0.4,1.7c0.5,0.3,1,1.3,1,2c0,1.2-0.5,1.2-2.3,0.4
		c-2-0.9-2.4-1.8-2.3-5.5C433.5,123,433.8,121,434.1,121z"/>
	<path d="M453.6,129.7c-0.2,1-0.8,4.7-1.1,8.3c-1.3,12.1-3.7,12.9-11.9,3.8c-3.1-3.4-5.6-6.5-5.6-6.9c0-1.1,5.2-3.8,10.4-5.4
		C451.6,127.5,454.2,127.6,453.6,129.7z M449.9,131.1c-2.7,0.1-10.8,3-11.5,4c-0.7,1.2,7.3,9.9,9.2,9.9c1.6,0,2.3-2,3-8.6
		C451.1,132.1,451,131,449.9,131.1z"/>
</g>
</svg>
