<?xml version="1.0" encoding="utf-8"?>
<!-- Generator: Adobe Illustrator 21.0.0, SVG Export Plug-In . SVG Version: 6.00 Build 0)  -->
<svg version="1.1" baseProfile="tiny"
	 id="svg282" inkscape:version="0.92.2 5c3e80d, 2017-08-06" sodipodi:docname="63.svg" xmlns:cc="http://creativecommons.org/ns#" xmlns:dc="http://purl.org/dc/elements/1.1/" xmlns:inkscape="http://www.inkscape.org/namespaces/inkscape" xmlns:rdf="http://www.w3.org/1999/02/22-rdf-syntax-ns#" xmlns:sodipodi="http://sodipodi.sourceforge.net/DTD/sodipodi-0.dtd" xmlns:svg="http://www.w3.org/2000/svg"
	 xmlns="http://www.w3.org/2000/svg" xmlns:xlink="http://www.w3.org/1999/xlink" x="0px" y="0px" viewBox="0 0 850 850"
	 xml:space="preserve">
<sodipodi:namedview  bordercolor="#666666" borderopacity="1" gridtolerance="10" guidetolerance="10" id="namedview284" inkscape:current-layer="svg282" inkscape:cx="484.46989" inkscape:cy="601.69614" inkscape:pageopacity="0" inkscape:pageshadow="2" inkscape:window-height="978" inkscape:window-maximized="1" inkscape:window-width="1920" inkscape:window-x="0" inkscape:window-y="1" inkscape:zoom="0.58897835" objecttolerance="10" pagecolor="#ffffff" showgrid="false">
	</sodipodi:namedview>
<g id="g280" transform="translate(0.000000,0.000000) scale(1.00000,1.00000)">
	<path id="path4" fill="none" d="M0.1,0H425h425v362.2v362.3l-2.8-5c-14.5-26.1-38.8-52.6-67.1-72.9c-27.3-19.7-54.3-33.3-92.6-46.6
		l-18.9-6.5l-1.2-4l-1.1-4l8.3-8.6c4.6-4.8,8.4-9.4,8.4-10.2c0-2.3-2.4-3.3-12.9-5.3c-7.6-1.5-9.5-2.2-10.1-3.9
		c-0.4-1.1-1.5-4.4-2.4-7.3c-1.7-5.1-6.5-14.2-7.6-14.2c-0.3,0.1-2.7,3.1-5.5,6.8c-2.7,3.6-6.3,8.1-7.9,9.9l-2.8,3.3H622
		c-6.6,0-12.1,0.4-12.4,0.9c-0.3,0.5,2.3,5.9,5.9,12c3.6,6.2,6.5,11.3,6.5,11.5s-27.1-3-27.7-3.3c-0.1-0.1,1.4-3.1,3.3-6.7
		c2.1-4,3.4-8,3.4-10.3c0-3.3,0.6-4.2,6.8-9.2c8.6-7.1,12.3-13.6,13-22.9c0.3-5.3,0-7.6-1.6-11.3c-1.2-2.6-2.5-4.7-3-4.7
		s-0.9,2.4-0.9,5.4c0,8.9-5.5,15.6-12.6,15.6c-4.6,0-8.7-4.1-8.7-8.5c0-6.1,3.5-9.5,16.2-15.8c18-8.9,25.5-17,29.3-31.2
		c4.3-16.8-1.9-35.6-14.3-43.1l-5.2-3.1l4.7-1.8c5.5-2.1,13.4-9.2,16.9-15c5-8.7,6.6-15.2,6.6-27c-0.1-16.5-3.7-29-12.4-42.3
		l-4.1-6.4l1.3-5.1c0.8-2.9,1.5-8.1,1.5-11.7c0.1-3.6,0.5-10.4,1-15.1c0.7-7.9,0.6-9.1-1.4-13.3c-6.8-13.9-22.8-21.5-45.5-21.6
		c-15.4,0-25.1,3.3-43.6,15c-22.4,14.1-27.4,16.9-35.4,19.5c-11.7,3.8-21.3,3.3-31.8-1.7l-7.2-3.4l5-2.9c15.5-9,24.8-18.3,30.9-30.8
		c5.8-11.9,8.5-23.2,9.5-38.7c0.5-8.8,1.5-14.6,3.1-19.5c1.9-5.5,2.4-9,2.3-16.5c-0.2-19.4-6.4-34.1-20.8-48.4
		c-4.9-4.9-8.2-8.6-7.3-8.3c0.9,0.3,3.5,1.1,5.9,1.7c15.4,4.2,29.9,18.7,30.1,30c0.1,5.9,1.2,5.7,2.1-0.4
		c1.6-10.4-4.5-27.4-12.9-36.1c-5.3-5.4-15-10.3-22.4-11.2l-5.1-0.6l4.1-4.4c2.2-2.5,4.9-6.3,5.9-8.6c5.4-12.2,4.4-26.8-2.7-41.1
		c-3.1-6.2-12-17.3-13-16.2c-0.2,0.2,0.7,2.7,2.1,5.4c3.2,6.3,4.6,14.9,3.4,21c-2.2,12-12,24.6-21.5,27.6c-2,0.6-2.4,0.2-3.9-5
		c-3.5-12.3,0.5-33.2,9-46c2-3,3.4-6,3-6.6c-0.7-1.1-25.2-0.6-37.5,0.8l-5.7,0.7l1.9-7.9c3.1-12.9,2.2-19.1-3.5-24.4
		c-2.3-2-3.9-2.5-9.9-2.8c-4-0.2-11.2,0.3-16.2,1.2c-22.9,4-42.2,16.4-50.9,32.7c-1.6,3-3.4,5.7-3.9,6.1c-0.6,0.3-2.8-0.1-5.1-0.9
		c-2.3-0.8-7.6-2.3-11.8-3.3c-4.3-1-8.2-2.1-8.8-2.5c-0.5-0.3-2.7-3.2-4.9-6.3c-12-17.8-26.3-27.7-47.9-33.6L264,3.1l-3.4,3
		c-4.5,4-9.9,14.9-11.5,23.3c-0.7,3.6-1.7,6.6-2.4,6.6c-0.6,0-3.3-0.7-6.1-1.6c-15.4-4.8-40.7-7.4-54.5-5.7l-6.5,0.8l0.1,5.1
		c0.1,3.6,1.7,8.9,5.3,17.9c2.8,7,5.1,13.7,5.1,14.9c0,1.5-1.7,3.5-5.2,6.1c-12.8,9.7-26.3,24.4-35.4,38.7
		c-13.7,21.3-29.7,62.4-35.5,90.8c-1.9,9.6-2,12.4-1.4,32c0.9,30.4-1.7,46.1-10.6,61.8c-5.2,9.1-18.7,21.9-30.4,28.7
		c-37.4,21.7-52.4,41.4-52.5,68.5c0,23.2,9.9,41.3,31,56.7c10.9,8,17,15.4,17,20.6c0,6.5-5.7,13.8-11.9,15.2
		c-4.2,0.9-11.2-2.4-14.6-6.9c-2.4-3.2-2.7-4.2-2.3-9.6c0.4-5.1,0.9-6.5,3.6-9.3c3.3-3.4,3.9-4.7,2.2-4.7c-2.2,0-9.9,8.3-13.1,14.2
		l-3.4,6.3l0.1,17v17l3.6,6c4.3,7.1,11.1,14.4,16.8,18l4.2,2.6l-0.7,8.2c-0.5,6.7-0.3,9.4,1.3,14.4c3.6,11.4,10.2,19.5,22.8,27.8
		c7,4.6,12.2,6.4,21,7.2l7.2,0.6l0.6,4.2c1,6.1,5.6,12.8,11.1,16.1c4.5,2.6,4.6,2.8,4,6.3c-0.4,2-1,4-1.4,4.4s-2.8-0.1-5.3-1.2
		c-11-4.7-21.2-5-33.1-1c-17.7,6-26.5,18.6-28.3,40.9c-1.5,17.9,6.1,37.5,20.8,53.6l5,5.4l-16.4,18.8
		c-38.1,43.9-46.4,53.6-48.3,55.9c-1.9,2.3-2.1,2.4-5.7,0.9c-2.1-0.9-4.3-2.6-5-3.8c-1.1-1.9-1.3-77.9-1.6-399.1L0.1,0z
		 M668.8,445.2l-0.3-3.9l-4.5,1.8c-2.5,0.9-5.9,1.7-7.7,1.7c-4.1,0.1-4.8,1.4-3.3,6.1c1.1,3.4,1,4.2-0.9,7.3c-1.1,1.8-1.8,3.7-1.4,4
		c0.3,0.4,2.4,0.7,4.6,0.7c3,0,4.6,0.6,6.3,2.5c3.2,3.4,4.2,3.2,6.4-1.7c1.2-2.7,3-4.7,5.1-5.7c1.8-0.9,3.4-2.1,3.5-2.6
		c0.2-0.6-1.4-2.2-3.6-3.7C669.8,449.5,669.1,448.3,668.8,445.2z"/>
	<path id="path6" fill="#FF4500" d="M666.5,444.4l0.3,3.2c0.2,2,1.3,4,2.9,5.3l2.5,2l-3,2.5c-1.6,1.4-3.3,3.7-3.7,5.2l-0.6,2.6
		l-2.5-2.6c-1.6-1.8-3.5-2.7-5.5-2.7c-2.7,0-2.9-0.2-1.8-2.1c0.6-1.2,0.9-3.9,0.6-6c-0.6-4.3,0.4-4.9,3.9-2.4
		c1.9,1.3,2.3,1.2,4.5-1.8L666.5,444.4z"/>
	<path id="path8" fill="#0000CD" d="M266.9,8.5c5.2,0.9,21.2,7.6,27.8,11.6c10.8,6.5,24.2,22.4,31.6,37.4
		c3.6,7.1,12.2,30.4,11.5,31.1c-0.9,0.9-8.9-1.6-15.5-4.9c-11-5.4-19.2-15-23.3-27.1l-1.8-5.1v4c-0.1,4.4,3.7,12.9,8.5,19
		c4.3,5.4,12.9,10.7,23.5,14.4c5.1,1.9,10,3.9,10.8,4.5c1,0.7,1.2,2.6,0.8,6.7c-0.8,8.6-5,15.9-9.3,15.9c-1.2,0-8.4-3.3-16.1-7.4
		c-18.5-10-26.9-12.8-40.5-13.4c-13.7-0.6-22.1,1.7-29.1,7.9c-2.6,2.2-4.7,4.8-4.7,5.7c0,1.1,1.1,0.5,3.8-2c5.5-5.5,12.1-8,22.2-8.6
		c15.6-0.9,27.8,2.6,48.4,13.7l10.9,5.9l-3.1,1.6c-8.7,4.5-34.1,6.9-50.3,4.7c-18.4-2.4-33.1-8.3-33.7-13.3
		c-0.8-6.5,4.7-20,16.4-40.4c3.5-6.1,6.4-11.6,6.4-12.3c0-2.2-1.5-1-4.2,3.1l-2.6,4.1l-0.8-4.9c-0.4-2.7-0.8-11.2-0.8-18.9
		c-0.1-15.5,1-20.3,6.5-29C263.1,7.9,263.3,7.8,266.9,8.5z"/>
	<path id="path10" fill="#0000CD" d="M426.6,16.1c2.3-0.2,5.5,3.5,6.4,7.6c0.8,3.2,0.5,7.1-1.1,16c-1.1,6.5-2.7,15.8-3.5,20.8
		c-0.8,4.9-1.7,10-2,11.3c-0.4,1.9-0.1,2.3,1.3,1.8c1.6-0.5,2.1,0.6,3.7,7.6c1,4.5,2.2,14,2.7,21.2c0.9,13.9,0.3,16.8-3.8,18
		c-20.1,5.8-41.3,8-53.5,5.6c-9.3-1.8-19.1-5.1-18.2-6c0.5-0.5,7.4-3.9,15.4-7.6c15.3-7.1,25.7-10.4,32.5-10.4
		c6.4,0,15.1,2.7,21,6.5c6.2,3.9,7.2,3.2,2.1-1.3c-5.6-4.9-13.8-7.5-23.6-7.5c-9.8,0-14.1,1.4-33.9,11.2c-6.8,3.4-12.6,6-12.8,5.8
		c-0.1-0.2,0.8-3.1,2.2-6.5c1.6-3.8,2.5-8.1,2.5-11.4c0-2.9,0.4-5.8,0.8-6.5c1.3-2.1,6.2-3.3,13.5-3.3c5.4,0,6.8-0.3,5.9-1.2
		c-1.6-1.6-11.9-1.3-17,0.6l-4.2,1.5l-2.1-4.1l-2.1-4.1l2.1-2.6c4.1-5,8-12.5,9.2-17.4c1-4.2,0.9-5.1-0.5-6.5
		c-1.3-1.3-1.8-1.4-2.8-0.3c-1.1,1-1,1.2,0.2,0.9c4.1-0.9-1.2,15.2-6.8,20.5l-2.9,2.8l-3.6-4.5c-2.1-2.4-3.7-5-3.7-5.6
		c0-2.8,10.2-21.9,14-26.3c12.4-14.2,30.7-22.9,53.5-25.5C421.9,16.7,426,16.2,426.6,16.1z"/>
	<path id="path12" fill="#4169E1" d="M211.6,34.9c6.6,1,17.1,2.7,23.2,3.6c6.2,1,11.7,2.3,12.1,2.9c1.4,1.8,5.2,27.5,4.4,29.4
		c-0.6,1.4-5.9,10.9-6.8,12.1c-0.2,0.2-3.8-1.3-8-3.3c-8.3-3.9-8.4-4-8.4-2.8c0,0.4,3.2,2.5,7,4.6c3.9,2,7,4.1,7,4.6
		c0,0.4-1.3,3.9-2.9,7.6c-3.4,7.9-4.6,13.4-3.7,16.8c1.5,5.9,15.3,14.6,27.5,17.1c3.6,0.8,11.7,1.7,17.9,2.1s10.9,1,10.5,1.4
		s-3.3,1.6-6.3,2.5c-12.4,4.1-38.4,15.1-51.9,22.1c-7.9,4.1-14.5,7.4-14.6,7.4s-0.5-2.1-0.9-4.7c-0.8-5.9-4.1-11.5-13.3-22.8
		c-12-14.6-13.2-20.5-9.1-45.8c3-19,2.2-23.4-7.2-42c-3.8-7.6-7-14-7-14.2C181.1,32.3,200.9,33.2,211.6,34.9z"/>
	<path id="path14" fill="#4169E1" d="M468.8,49.1c1.7-0.2,1.6-0.1-2.3,6.5c-2,3.3-4.7,9.6-6.2,14.2c-3.6,11.5-2.9,22.2,2.2,37.5
		c4,12.1,6.5,26.5,6.5,37.6c0,6.3-0.2,7.2-1.6,6.7c-2.8-1.1-8.5-1.6-27.9-2.6c-21.7-1.1-36.3-3.5-50.1-8.5c-9-3.2-23-10.2-22.1-11.1
		c0.2-0.2,3.5,0.3,7.3,1.2c5.3,1.2,10.4,1.5,21.4,1.2c16.2-0.5,26.2-3,35.3-8.8c7.1-4.5,8-7.5,7.2-22.6l-0.7-12.3l4.6-5.3
		c6.1-7,5.9-8.5-0.4-2.3c-2.7,2.7-5.1,4.7-5.4,4.4c-1.3-1.3-4.8-14.3-5.3-19.4c-0.6-6.3,1.3-13.1,3.9-14c0.7-0.3,8.3-0.9,16.8-1.3
		C460.5,49.7,468.1,49.2,468.8,49.1z"/>
	<path id="path16" fill="#4169E1" d="M340.6,54.1c8.4,2.7,8.9,3.1,8.1,7c-1,5.4-1.9,6.1-7.7,6.3l-5.3,0.1l-3.2-7.5
		c-1.8-4.1-3.3-7.8-3.3-8.3C329.1,50.8,332.6,51.5,340.6,54.1z"/>
	<path id="path18" fill="#FF0000" d="M495.1,63.8c0.4,0.4,1.5,3.2,2.5,6.2c1.5,4.2,1.9,8.3,1.9,17.5c0,10.3-0.4,12.7-2.3,17
		c-3,6.5-8.5,12.2-14.7,15.1c-4.8,2.3-10.5,3.2-10.5,1.6c0-0.4-0.9-3.7-1.9-7.5l-2-6.7l5.3-2.5c6.8-3.2,14.9-11.8,18.3-19.2
		c2.1-4.7,2.7-7.4,2.7-14C494.5,66.8,494.8,63.4,495.1,63.8z"/>
	<path id="path20" fill="#4169E1" d="M344.5,71c3,1.1,15.3,19,16.2,23.6c0.7,3.9-1.8,13.2-5.1,18.4c-2.9,4.6-7,6.4-13.5,5.8
		c-6-0.6-6.8-1.2-4.8-3.5c4.6-5.2,6.2-10.6,6.2-20.8c0.1-5.9-0.3-10.1-0.9-10.2c-0.5-0.1-0.9,0.5-0.7,1.3c0.6,2.7-0.9,1.4-2.4-2.2
		c-1.8-4.2-3.4-12.1-2.6-12.9C337.7,69.7,341.7,69.9,344.5,71z"/>
	<path id="path22" fill="#8B0000" d="M191,76c0.9,0,0.6,3.1-2.1,19c-2.4,14.4-2.1,22,1.2,29.8l2.3,5.3l-3.6,7.7
		c-6,12.8-7.8,21-8.4,36.7c-0.4,12.5-0.2,15.4,2.2,26.8c1.4,7.1,2.9,13.5,3.2,14.3c0.8,2.2-6.2,4.7-12,4.1
		c-5.1-0.4-8.8-2.6-12.1-7.1c-3.4-4.5-2.9-14.3,1.1-22.9c3.7-7.8,2.8-8.8-1.8-2c-4.2,6-6.9,13.3-6.9,18.4c0,2.2-0.7,5.3-1.4,6.8
		c-0.8,1.5-2,4.9-2.7,7.4c-1,4.3-0.9,5.1,1.4,9.5c1.4,2.6,3.2,7.1,4,9.9c0.9,2.8,2.1,6.1,2.7,7.3c1,1.8,0.5,2.7-3.5,7.3
		c-2.5,2.9-5.8,7.7-7.3,10.7c-2.3,4.7-2.7,6.7-2.6,13.5c0.1,9.7,2.3,15.3,8.7,22.2c4.5,4.8,7.7,10.1,7.7,12.5c0,0.7-5,6.3-11,12.3
		c-6.1,6-10.9,11.4-10.7,11.9s-4,4.8-9.3,9.6c-15.4,14.1-19.2,18.7-25.9,32.2c-7.4,14.8-9.1,21.9-7.2,31c0.7,3.3,2.4,7.8,3.8,9.9
		c1.4,2.2,2.4,4,2.2,4.2c-0.2,0.1-1.6,1.3-3.1,2.6c-2.7,2.4-2.8,2.4-4.9,0.5c-5-4.5-6.4-9.1-6.4-21.4c0-10.9,0.2-11.9,3.2-18.2
		c4.5-9.6,8.5-15,18.7-25.6c4.9-5.1,8.7-9.4,8.4-9.7c-0.8-0.8-15.6,13.4-20.2,19.4c-15.4,20-17.8,42-6.1,55.9c2.8,3.3,3.3,7.2,1,7.2
		c-2.2,0-8.1-5.6-9.9-9.5c-4.5-9.5-4.1-23.2,1-34.4c1.3-2.9,2.4-5.8,2.4-6.5c-0.1-2.1-4.3,3.8-7.4,10.4c-2.8,6-3.1,7.3-3,17
		c0,9.7,0.2,10.9,2.9,15.9c1.6,3,5.1,7.1,7.6,9.3c4.4,3.7,4.7,4.2,5.1,10.1c0.9,11.2,6.4,18.2,16.9,21.7l4.9,1.7l-9.7,5.6
		c-5.4,3-10.7,6.7-11.8,8.1c-2.7,3.6-3.3,18.3-1.1,28.5c1.8,8.5,1.5,9.3-5.5,14.8c-6.6,5.2-14.1,7.6-22.4,7.1
		c-12.1-0.8-20.8-7.2-27.7-20.3c-4.5-8.8-6.3-17.3-5.5-27c0.7-7.3,3.4-16.5,3.6-11.9c0.1,1.2,1.7,4.1,3.5,6.6
		c5.7,7.4,14,9.6,22.1,5.9c10.6-4.8,14.6-18.7,8.2-28.2c-1.2-1.9-7.1-7.2-12.9-11.9c-5.9-4.7-10.7-8.8-10.8-9.3
		c0-1.2,24,15.1,28.4,19.2c7.8,7.3,10.6,18.2,6.7,26c-2.5,4.8-9.1,10.8-14.9,13.3c-3.6,1.6-5.9,1.9-11.4,1.6c-7-0.5-9.2,0.5-3.7,1.7
		c6.3,1.4,13.7,0.7,18.7-1.9c6.2-3.1,12.9-10.6,14.3-16c1.7-6.4,0.6-15-2.8-20.4c-2.7-4.4-13.1-13.2-19.1-16.3
		C50,440.6,36.2,428,32.2,420.1c-3.2-6.2-5.2-13.3-6.1-21.1c-1.9-17.5,3.4-31.1,18.1-46.5c9.4-9.9,15.9-14.8,35.4-26.6
		c25.3-15.5,35.5-25,43-40.4c6.3-12.8,7.9-21.8,8-44c0-11.1-0.4-18.1-1-18.3s-0.9,5.2-0.7,15.4c0.2,9.2-0.1,19-0.8,23.3
		c-1.4,8.6-5.7,21.1-9.6,27.9c-3.4,5.7-12.8,15.7-19.1,20.1l-4.8,3.3l2.6-2.9c4.8-5.4,9.3-12.8,13.6-22.7
		c8.1-18.4,9.6-29.8,7.9-60.2c-0.8-14.2-0.7-15.5,1.7-25.5c5-20.4,18.7-56.5,29.3-77c8.8-17,23.9-36.5,34.6-44.5
		C187.6,78,190.6,76,191,76z"/>
	<path id="path24" fill="#B22222" d="M335.6,121.8c2.2,0.7,6.7,1.5,9.9,1.6c5.5,0.2,6.1,0.5,9.4,4.1c15.5,17.6,19.7,39.1,12.2,61.5
		c-4.6,13.7-15.2,27-25.3,31.9c-8.9,4.3-22.7,6.1-22.7,3c0-0.5,0.3-0.8,0.8-0.7c0.7,0.2,7.5-1,10.5-1.8c3.9-1.2,1.3-1.9-5.3-1.6
		c-10.5,0.6-11.5-0.3-4.2-3.8c3.4-1.6,6.2-3.4,6.2-3.9c0-0.6-1.5-0.4-3.4,0.6c-3,1.4-4.1,1.4-8,0.3c-2.5-0.7-4.6-1.6-4.6-2
		c0-0.5,1.6-1.8,3.6-3c4.3-2.7,3.8-3.8-0.6-1.5c-3.9,2-11,4.6-11,4c0-0.3,1.5-2.5,3.4-4.9c6-7.9,7.1-12.3,7.1-28.6
		c0-13.1-0.3-15.3-2.8-23c-1.5-4.7-4.2-11.3-6.1-14.8l-3.4-6.2l5.2-2.3c2.8-1.2,9.6-4,15.1-6.2C331.2,120.5,331.7,120.4,335.6,121.8
		z M314.1,194.7c0,0.9,13,3.5,13.8,2.7c0.2-0.1-0.6-0.7-1.7-1.4C323.3,194.5,314.1,193.5,314.1,194.7z"/>
	<path id="path26" fill="#B22222" d="M357.8,126c3.2,3.8,12.3,10.8,18.8,14.4c7.5,4.2,19.7,8.4,32.5,11.4
		c10.7,2.4,13.2,2.6,36.7,2.7c17,0,25.6-0.4,26.3-1.1c0.6-0.6,1.4-5.5,1.8-10.8l0.7-9.7l6.5,3.3c8.3,4.2,20.3,15.9,25.8,25.3
		c7.8,13.2,11.7,31,9.8,44c-0.8,5.3-1.7,5-3.6-1c-1.3-4.3-11.6-27.8-15.7-35.9c-2.5-4.9-12.2-16.1-13.1-15.1c-0.3,0.2,2,3.7,5.1,7.7
		c5.5,7.3,8.2,11.7,7.5,12.3c-0.2,0.2-4.7-3.7-10.1-8.7s-10.1-8.8-10.4-8.4c-0.4,0.3,3.4,4.8,8.4,9.9c16.6,17,22.3,28.7,25.3,51.9
		c1.9,14.4-0.9,31.7-7.6,45.8c-6.3,13.4-23.1,27.2-42.4,34.8c-10.7,4.2-16.8,5.3-26.8,4.7c-7.3-0.5-8.3-0.3-6.2,0.7
		c1.4,0.6,2.7,1.3,2.9,1.5c0.2,0.1-1.5,2-3.8,4c-5.3,4.8-6.4,9.4-3.1,13.5c1.2,1.6,3.5,3,5.5,3.4c4.2,0.8,4.4,1.6,0.9,3.9
		c-5.4,3.5-16.4,1.3-16.4-3.4c0-5.9,8.3-22.6,15.3-30.6l3.4-4l10.7-0.6c9.4-0.6,11.5-1.1,18.3-4.3c6.5-3.1,9.2-5.3,18-14.4
		c15.2-15.7,19.1-22.2,21.2-35.3c2.4-14.3,0.6-16.2-2.6-2.7c-3.2,13.3-7.4,20.8-16.8,30.4c-10.8,11-16.9,13.9-28.5,13.9
		c-7.2,0-9.2-0.4-12.7-2.4c-2.4-1.4-4.3-2.7-4.3-3.1c0-0.3,2.6-1,5.9-1.7c7.5-1.4,17.4-6.2,23.2-11.3c4.1-3.5,11.9-13.7,11.9-15.5
		c0-0.3-4.2,3.1-9.2,7.6c-12.9,11.4-26,17.1-32.1,14c-1.2-0.6-3.4-1.5-4.9-2.1c-4.6-1.6-3.5-3.8,2.3-4.6c5.9-0.8,4.8-2.4-1.7-2.4
		c-2.3,0-4.7-0.6-5.3-1.4c-0.9-1.1,0.1-1.9,5.3-4.4c3.5-1.7,8-4.5,10-6.2c11.5-10.2,16.2-41.6,9.1-62.5c-1.4-4.4-4.3-10.7-6.2-14
		c-4.7-7.7-5.3-8.6-6.4-7.9c-0.5,0.3,0.9,4,3,8.3c7.1,13.9,8.8,27.1,5.6,41c-3.5,14.6-16.2,31.4-27.7,36.5c-14.5,6.4-35.5,6-46-0.9
		c-4.9-3.2-6.3-1.3-2,2.6c1.8,1.6,3.2,3.1,3.2,3.4c0,0.3-2.8,0.5-6.2,0.5c-4.5,0-7.8-0.7-11.4-2.4c-6.7-3.1-7.2-4.2-2.4-5
		c4.8-0.8,11.5-4.5,10.2-5.8c-0.5-0.5-2-0.5-3.6,0.2c-1.5,0.5-5.5,1-9,1c-5.5,0-6.8-0.4-11.2-3.5c-2.7-1.9-6-3.5-7.4-3.5
		c-1.4-0.1-3.8-0.7-5.5-1.5c-2.9-1.3-2.7-1.3,4.3-1.4c4.6-0.1,7.1-0.5,6.7-1.1c-0.3-0.6-2.1-1-4-1c-5.1,0-5.1-1.7,0-2.5
		c2.5-0.3,8.1-2.4,12.4-4.6c12.8-6.4,20.7-16.5,26.8-34.2c2.5-7.2,2.8-9.6,2.8-20.4c0-13.8,0.6-14.2,5.4-3.9
		c14.9,31.5-3.8,69.6-34.1,69.6c-5.6,0-7.7,1.3-4,2.4c3.3,1.1,18.4-2.2,24.7-5.3c14.9-7.3,24.2-25.6,23.3-45.9c-0.3-8-0.2-8.2,1.2-5
		c1,2.3,1.4,7,1.5,15.3c0,11-0.2,12.5-2.7,17.8c-5.4,11.4-13.9,19-25.4,22.7c-5.6,1.8-5.7,1.9-2.2,1.9c4.5,0.1,7.5-1.1,14.9-6.1
		c14.4-9.5,21.4-24.8,18.9-41.2c-2.3-15.2-7.7-26.2-18.9-38c-5.3-5.7-18.3-20.8-22.4-26.2C353.1,121.9,354.8,122.5,357.8,126z
		 M416,227.5c0,0.3,3.2,2.1,7,4c6.7,3.4,8.9,3.5,5.3,0.3c-1-0.9-3.5-2.3-5.7-3.2C418.8,227,416,226.5,416,227.5z"/>
	<path id="path28" fill="#FF0000" d="M501,125.6c8.2,3.2,17.4,9.8,20.8,14.9c1.8,2.7,3.2,5.2,3.2,5.6c0,0.4-2.1-1.3-4.7-3.7
		c-10.2-9.3-22.3-13.9-37-13.8c-9.2,0.1-10.3-0.1-10.3-1.7c0-1.3,1.2-2.1,4.3-2.8C483.2,122.7,495.6,123.5,501,125.6z"/>
	<path id="path30" fill="#DC143C" d="M195.7,134c2,1.7,1.8,2.1-2,7.9c-7.9,11.7-9.1,25-4.2,45.1c3.1,12.4,3.6,20.2,1.7,23.9
		c-1.8,3.2-2.5,1.9-4.7-7.9c-1.5-6.7-1.9-12.4-1.9-27c0.1-17.6,0.2-18.9,2.9-27c1.6-4.7,3.7-10.2,4.8-12.3
		C193.9,133.5,194.5,133.1,195.7,134z"/>
	<path id="path32" fill="#B22222" d="M298.3,133.9c1,1,5.6,16.2,6.8,23.1c1.8,9.6,1.6,23.4-0.3,32c-2,8.6-7.9,19.5-11.7,21.6
		c-3.4,1.8-30.4,12.4-30.8,12c-0.1-0.2,1.3-3.6,3.3-7.7c3.1-6.6,3.5-8.2,3.5-15.7c0-12.6-5.7-27.9-14.9-40.2c-2.3-3-4.1-5.7-4.1-6
		s8-3.6,17.8-7.4c9.7-3.9,20.4-8.2,23.7-9.7C294.9,134.4,297.9,133.5,298.3,133.9z M298.3,194.1c-3.8,0.2-16.4,2.8-21.1,4.4
		c-5.2,1.7-8.2,4-3.9,3c1.2-0.2,7.2-1.6,13.1-3c6-1.4,11.8-2.5,12.8-2.5c1.1,0,1.7-0.5,1.4-1C300.3,194.4,299.2,194,298.3,194.1z"/>
	<path id="path34" fill="#B22222" d="M199.3,138.5l4,4.5c7.1,7.9,9.8,13.6,9.8,20.7c0,3.5,0.3,6.3,0.8,6.3c0.4,0,7.6-3.4,16.1-7.5
		c8.4-4.1,16-7.5,16.7-7.5c1.8,0,6.8,8.9,9.6,17c2,5.5,2.3,8.5,2.3,20c-0.1,13.3-0.1,13.6-3.4,20c-1.9,3.6-4.2,7.1-5.2,7.8
		c-1.1,0.7-1.9,1.9-1.9,2.7c0,2.3-5.6,5.6-8.4,4.9c-2.1-0.5-2.4-0.3-1.9,1.4c0.3,1.4-0.2,2.4-1.7,3.2c-1.2,0.6-1.9,1.4-1.7,1.7
		c0.3,0.2,1.9-0.3,3.6-1.1c3.5-1.9,10.7-2.1,11.7-0.4c0.4,0.6-0.3,2-1.7,3.1c-2.1,1.7-2.4,1.7-2.7,0.4s-0.6-1.3-2.3,0.4
		c-1.4,1.4-3.3,1.9-7.3,1.9c-5.9,0-9,1.9-3.4,2.1c1.8,0.1,4.4,0.4,5.8,0.8l2.5,0.7l-4.2,4c-2.3,2.1-5.8,5.4-7.8,7.2
		c-16,14.7-55.9,10.1-65.8-7.6c-1.6-2.9-2.7-5.5-2.4-5.8c0.3-0.4,2.9,0.2,5.8,1.1c9.7,3.3,19.3,0.4,26.7-8c7.3-8.3,9-18.6,5.1-30.6
		c-7.6-23.5-7.9-42.9-1-58.4L199.3,138.5z"/>
	<path id="path36" fill="#DC143C" d="M311.2,167.5c1.8,11.3-0.1,25.9-4.4,34.1c-1.8,3.4-7.4,9-8.2,8.2c-0.3-0.3,0.8-2.9,2.5-5.8
		c4.8-8.2,5.9-11.4,7-22.3c0.8-7.2,0.8-12.9,0.1-19.2c-0.6-5-1-9.5-1-10C307.4,150.4,310.2,160.8,311.2,167.5z"/>
	<path id="path38" fill="#DC143C" d="M263.5,183.4c3.6,11.1,4.2,18,2.1,25.2c-2.1,7.4-5.9,13.4-8.5,13.4c-3.3,0-3.2-1.8,0.6-10.2
		c3.5-7.8,3.8-8.9,3.8-18.3c0.1-5.5-0.3-12-0.7-14.5C259.7,172.9,260.5,174.1,263.5,183.4z"/>
	<path id="path40" fill="#B22222" d="M156.5,209l1.8,3.4c3.8,7.5,13.2,12.4,21.2,11.2c5.7-1,9.7-3.7,13.1-9.2l3-4.8l0.3,4.2
		c0.7,9.5-5,19.1-14,23.6c-11.9,5.9-23.8,1.1-27.4-10.9c-1.4-5.1-1.4-5.9,0.3-11.5L156.5,209z"/>
	<path id="path42" fill="#DC143C" d="M286.1,217.6c-12.2,3.7-12.6,3.8-11.5,2.6c0.9-0.9,14.2-5.4,19-6.5
		C301,212,296.1,214.6,286.1,217.6z"/>
	<path id="path44" fill="#DC143C" d="M448.7,219.4c0.8,0.7-2.1,10.3-4.8,16.1c-3.2,7-6.3,10.6-11,13.1c-3.8,2-11.9,3.5-11.9,2.3
		c0-0.5,3.1-3.1,6.9-5.9c7-5.1,15.2-14.8,18.7-22.2C447.6,220.7,448.5,219.2,448.7,219.4z"/>
	<path id="path46" fill="#FFE4C4" d="M310.1,235.3c1.4,2.6,2.9,4.7,3.3,4.7s2.4-1.1,4.5-2.5c2.4-1.6,3.8-2.1,4.3-1.4
		c0.5,0.8,0.8,0.8,1.3,0c1-1.6,6-1.4,10.2,0.4c1.9,0.8,6.3,4.1,9.8,7.4c10,9.7,22.1,14,29.9,10.7c3.5-1.4,4.4-1.4,10.8,0.1
		c3.8,0.9,6.9,1.9,6.9,2.2s-1.8,1.9-4,3.5c-5.5,4.1-3.5,5.7,2.2,1.8c8.6-5.9,16.7-6.4,22.1-1.3c4,3.6,5.6,7,6.3,13.5
		c0.4,3.1,1,5.6,1.4,5.6s1.5-1.8,2.5-4s2-4,2.2-4c1.4,0,8.2,4.2,10.2,6.4l2.4,2.5l-8.4,8.9c-10.3,10.8-14.9,18.9-20.1,35.2
		c-7.2,22.3-9.7,28.2-13.9,33l-4,4.4l-10.2,1.3c-5.6,0.7-11.8,1.2-13.9,1.3h-3.6l3.1-5.8c1.7-3.1,5.7-8.2,9-11.2
		c18.8-17.6,21.6-20.8,23.2-26.5c2.5-8.6,0.5-10.6-6.2-6.5c-4,2.4-4.1,2-0.4-3.4c7-10.2,12.6-23.4,13.9-33.4
		c1.1-7.7,0.7-10.7-1.5-13.4c-3.4-3.9-11.7-2.7-18.8,2.8c-4.3,3.2-11.7,15-14.6,23c-4.6,12.6-2.4,29.4,4.3,32.5l3,1.5l-3.8,2.5
		c-2.2,1.4-5.2,3.4-6.7,4.4l-2.8,1.8l2.1-5.7c3.3-8.8,1.7-9-2.4-0.2c-2.4,5.2-5,9.1-7.5,11.2c-2.1,1.8-6.5,7.3-9.9,12.1
		c-10.7,15.7-20.1,27.2-22.7,27.9c-2.9,0.7-5.3,0-26.5-8.3c-19-7.5-24.9-10.5-34.2-18c-9.7-7.7-16.5-16.2-27.6-34.5l-2.3-3.6
		l5.8-2.7c3.2-1.4,6.9-3.6,8.2-4.8c3.5-3.2,6.1-9.6,6-14.7l-0.1-4.5l-0.8,3.5c-1,4.1-3.3,6-7.5,6c-10.1,0-13-20.4-4.3-29.7
		c2.9-3.1,3.6-2.9,4.4,1.2c1.1,5.8,2.1,4.9,2.6-2.3c0.7-8.9,4-15.3,12.3-23.6c8-8,17.6-13,29-15
		C300.7,225.4,305.8,227.3,310.1,235.3z M289.8,234.1c-9.7,0.2-17.8,4-24.5,11.4c-12.2,13.3-14,27.3-6,47.8c1,2.6,1.2,2.7,2.9,1.1
		c1.8-1.6,1.9-1.6,1.9,0.4c0,2.8,0.8,2.8,3.7,0c1.3-1.2,2.3-1.6,2.3-1s-0.4,1.4-1,1.7c-0.6,0.4-0.5,1.2,0.2,2.4
		c0.8,1.3,0.8,2.7-0.1,5.1c-0.6,1.9-0.8,3.7-0.4,4.1c1.9,1.6,14.3,4.8,19.8,5c5.1,0.2,6,0,5.7-1.4c-0.1-0.9,0.4-2.9,1.2-4.5
		c0.8-1.5,2.5-7.1,3.8-12.3c4.5-18.3,2.6-49.7-3.4-57.4C294.4,234.5,293.1,234,289.8,234.1z M365.6,293c-0.2,0-1,1.8-1.9,4
		c-2.3,5.8-2.1,14.7,0.5,18.9c2.6,4.2,3.1,3.7,1.7-1.9c-0.5-2.5-0.8-8.2-0.5-12.8C365.7,296.7,365.8,293,365.6,293z M335,339.6
		c-4-2.3-4.8-2.4-6.4-1.2c-1.8,1.3-1.4,1.6,4.9,3.5c7.6,2.3,8.4,2.5,7.1,1.2C340,342.7,337.5,341.1,335,339.6z"/>
	<path id="path48" fill="#00008B" d="M288.7,246.2c2.4,0.2,3,1,4.2,4.8c0.8,2.5,1.6,10.6,1.9,18c0.4,13.1,0.4,13.4-1.2,10
		c-0.9-1.9-2.1-4.3-2.6-5.2c-1.6-3.1-1-8.1,1.3-10.5l2.1-2.3h-2.1c-1.7,0-2.4-1.1-3.7-5.8c-0.9-3.1-1.9-6.5-2.1-7.5
		C286,246.2,286.4,245.9,288.7,246.2z"/>
	<path id="path50" fill="#1E90FF" d="M276.5,266.8c2.5,5,2.6,10.6,0.2,14.8c-1.1,2-2.6,3.9-3.2,4.1s-2.6-0.8-4.3-2.2
		c-2.8-2.4-3.1-3.2-3.1-8.4c0-6.1,1.7-9.7,5.4-11.1C274.1,263,274.8,263.4,276.5,266.8z"/>
	<path id="path52" fill="#00008B" d="M287,284.4c1.7,0.9,3,2.2,2.8,2.8c-0.1,0.7,0.8,1.7,2.1,2.3c2.2,1,2.8,2.5,1.5,3.8
		c-1.2,1.2-1.2,6.1-0.1,7.5c0.9,1,0.4,2-2,4.5c-2.7,2.7-3.2,2.9-3.2,1.3c0-1.1,0.8-2.8,1.8-3.9c1.6-1.8,1.6-1.9-0.8-1.6
		c-2.3,0.4-2.5,0.1-2.2-3.4c0.2-3,0-3.7-1-3.1c-0.7,0.4-0.5-0.1,0.4-1.2c1.5-1.7,1.6-2.3,0.4-4c-0.7-1-1.7-2.9-2.1-4.2
		C283.9,282.9,283.9,282.9,287,284.4z"/>
	<path id="path54" fill="#00008B" d="M280.2,288c1.3,0,0.2,5-1.6,7c-1,1.1-1.4,2-0.9,2s0.9,2,0.9,4.5s-0.1,4.5-0.2,4.5
		c-0.4,0-4.3-8.3-4.3-9.1c0-0.4,1.2-2.6,2.7-4.8C278.3,289.8,279.8,288,280.2,288z"/>
	<path id="path56" fill="#B22222" d="M163.9,254c0.4,0,2.4,1.2,4.3,2.6c4.7,3.5,11.6,7,16.7,8.3c2.3,0.7,4,1.6,3.7,2.1
		s-2.9,1.7-5.8,2.6c-3.9,1.4-4.6,1.9-2.9,2.2c1.2,0.2,4.7-0.8,7.8-2.2c8.6-4,4.7-0.4-6.6,5.9c-10.6,5.9-16.8,11.3-19.9,17.2
		c-2.8,5.3-2.5,2,0.4-5.2c2.9-7,2.8-6.5,1.5-6.5c-2.1,0-6,10.3-6,16l-0.1,5.5l-2.9-3.4c-9.4-11-7.2-30.2,4.5-41
		C161,255.8,163.4,254,163.9,254z"/>
	<path id="path58" fill="#CD5C5C" d="M227.9,261.5c0.2,0.9-1.3,5.2-3.4,9.5c-6.5,13.9-2.4,10,5-4.7c1.8-3.7,3.4-5.5,5.2-5.9
		c1.4-0.4,2.8-0.4,3.1,0c0.3,0.3-1.5,5.5-4,11.5c-6.6,15.6-6.3,21.9,1.5,28c3,2.4,9.6,2.8,11.7,0.8c1.1-1,1.1-0.8,0.2,1.1
		c-1.5,2.8-7.6,6.8-11.8,7.7c-5.3,1.1-10.8-1.1-15.1-6c-5.3-6-6.7-11.3-5.8-22.2c1-12.4,2.9-15.9,10.1-19.7
		C227.3,260.2,227.6,260.2,227.9,261.5z"/>
	<path id="path60" fill="#B22222" d="M206.8,268.5c-5.9,1.4-8,5.6-7.3,14.5c0.4,6.1,3.3,15.7,4.3,14.6c0.3-0.2-0.2-3.6-1.1-7.5
		c-2.3-10.2-2.1-14.1,1-17.4c3.4-3.7,6.1-3.3,5.4,0.8c-1.4,8.2-0.3,15.5,3.4,22.9c3.3,6.8,6.5,10.4,13.8,15.8
		c2.3,1.8,2.2,1.8-2.9,1.2c-6.4-0.8-6.9,0.1-1,1.7c5.1,1.3,10.2,5,12.2,8.9c2.3,4.4,2,4.8-2.9,3.9c-6.5-1.2-10.3-3.1-17.3-8.3
		c-10.6-8-15.2-15.6-19.3-31.4c-1.8-7.3-1.9-8.3-0.5-12.8c2.1-7,2.8-7.7,8.2-8.5C213,265.5,215.4,266.4,206.8,268.5z"/>
	<path id="path62" fill="#00008B" d="M397,271.2c1.2,0.2,1.7,1.8,1.9,6.6c0.3,6.1,0.2,6.2-2.3,6.2c-2.8,0-2.9-0.7-1.9-8.4
		C395.2,272,395.8,271,397,271.2z"/>
	<path id="path64" fill="#DC143C" d="M190.3,273c0.3,0,0.5,9.3,0.3,20.7c-0.4,23.4,0.2,26.9,5.2,32l3.4,3.3h-2.6
		c-6.4,0-14.9-7.1-18.6-15.5c-2.6-5.9-3.6-17.2-2-23c1.5-5.7,6.5-13.2,10.3-15.5C188.1,273.9,189.9,273,190.3,273z"/>
	<path id="path66" fill="#B22222" d="M617.7,282.3c8.5,4.4,14.6,14.9,14.1,24.2l-0.3,5.6l-3.9-5.1c-5.4-7.1-15.9-14.3-25.9-17.7
		c-7.2-2.5-9.6-2.8-19.7-2.8c-13.4,0.1-17.9,1.4-46,13.5c-9.1,4-17.2,7.4-18,7.7c-2.7,1,32.3-19.8,40.2-23.8
		c4.2-2.2,10.9-4.8,15-5.9C585.8,274.5,606.6,276.6,617.7,282.3z"/>
	<path id="path68" fill="#1E90FF" d="M377,300c-2.9,1.6-3.9,0.4-3.9-4.7c0-5.2,3.8-12.9,6.7-13.6C386.5,280.2,384,296.3,377,300z"/>
	<path id="path70" fill="#B22222" d="M170.7,287.7c-6.6,10-7.6,22.9-2.2,29.7c2.7,3.4,3.6,0.7,1-3.2c-2.2-3.1-2.5-4.6-2.2-9.2
		c0.3-3.3,1.5-7.7,3.1-11c1.5-3,2.5-4.4,2.2-3c-3.4,15.8-2.8,20,4.1,30.3c2.1,3,3.1,5.4,2.7,6.5c-0.4,0.9-3.1,6.2-6.1,11.7
		c-11.9,21.4-16,31.3-17.2,40.7c-1.4,11.8,0.5,19.5,7.1,29c2.5,3.4,2.4,3.8-0.6,3.8c-3.2,0-26.4,4.2-41.8,7.6
		c-6.4,1.4-12.8,2.3-14.1,2c-1.7-0.4-3.3-2.3-5.2-6.1c-2.4-5.1-2.6-6.3-2.2-13.8c0.6-9.4,4.4-20.3,10.5-30.4
		c4.5-7.4,14.7-19.4,18.5-21.7c4.3-2.6,28.6-26.5,32-31.4c2.8-4.1,3-4.7,1.9-8.2c-2.5-8.5-0.7-16,5.7-23.1
		C173,282.2,174.4,282.1,170.7,287.7z"/>
	<path id="path72" fill="#00008B" d="M395.7,286c1.2,0,1.4,0.6,0.8,3.2c-0.7,3.6-3.2,7.8-4.5,7.8c-0.9,0-0.2-4.8,1.2-8.8
		C393.7,287,394.8,286,395.7,286z"/>
	<path id="path74" fill="#DC143C" d="M610.3,295.3c6.7,3.5,16,12.3,18.8,17.8c1.2,2.4,1.9,5.8,1.9,9.1l-0.1,5.3l-3-7
		c-4.4-10.3-5.3-11.7-9.8-15.2c-7.9-6.2-23.4-10.3-38.4-10.3c-15.1,0.1-26.1,3.1-51.2,14.2c-24.1,10.7-38.1,12.6-55.9,7.4
		c-7.7-2.3-6.6-3.1,1.5-1.1c16.7,3.9,31.1,1.1,58.2-11.4c18.8-8.7,32.7-13.7,42.2-15.1C585.3,287.4,600.4,290,610.3,295.3z"/>
	<path id="path76" fill="#00008B" d="M388.5,297c0.7,0.7,0.4,2.6-0.9,5.8c-1,2.6-2,6.3-2.1,8.2c-0.1,1.9-0.2,4-0.3,4.7
		c0,0.7-1,1.7-2.1,2.3c-1.9,1-2,0.9-1.4-3.1c0.4-2.4,1.3-5.4,2.1-6.8c0.7-1.4,1.3-4.2,1.3-6.2c0-1.9,0.5-4,1.2-4.7
		C387.1,296.4,387.8,296.3,388.5,297z"/>
	<path id="path78" fill="#B22222" d="M578.5,298.3c8.5,0.4,12.3,1,17,2.8c14.8,5.9,24.2,13.9,29.5,25.2c1.7,3.4,3,6.8,3,7.4
		c0,0.7-3-0.9-6.7-3.6c-24.7-17.9-55-23.8-90.3-17.5c-1.9,0.4-3.2,0.4-2.9,0c0.9-0.9,13.6-5.8,27.9-10.7
		C567.2,298,567.8,297.9,578.5,298.3z"/>
	<path id="path80" fill="#DC143C" d="M194.1,300.8c3,7.2,10.3,15.4,21.9,24.1c8,6,8,7.9-0.1,3.7c-2.7-1.4-6.4-2.6-8.1-2.6
		c-6.8,0-14.8-12.8-14.6-23.4C193.2,299.1,193.4,298.8,194.1,300.8z"/>
	<path id="path82" fill="#DC143C" d="M474.4,307c9.5,4.7,17,6.4,25.1,5.7c4.8-0.5,5.5-0.4,3.5,0.5c-1.4,0.6-7.3,1.3-13.1,1.5
		c-8.1,0.4-11.9,0.2-16.5-1.2c-6.3-1.8-15.4-6.3-15.4-7.6c0-0.5,1.5-1.3,3.3-1.8C466.1,302.7,465.9,302.7,474.4,307z"/>
	<path id="path84" fill="#8B0000" d="M442.4,307c7.7,0,8.1,0.1,13,3.9c14.7,11.2,29.3,13.5,58.1,9.1c31.4-4.7,36.8-5.2,49.5-4.7
		c15,0.6,28,3.7,40.2,9.5c18.2,8.6,29.4,20.3,37.1,39c3,7.3,3.1,8.4,3.1,20.7c0,12.5-0.1,13.3-3.2,20.5c-4,9.2-8.9,16-14.4,20
		c-4.1,3-7.4,4.2-5,1.8c2.7-2.7,0.9-2.9-2-0.2l-3.2,2.9l2.8-3.8c4.1-5.6,2.6-5.5-3.1,0.3c-5,5-8.3,6.4-8.3,3.5
		c0-0.8-1.4-5.7-3.1-10.7c-2.3-6.9-3.2-12.1-3.8-20.3c-0.9-13.9-2.2-16.8-12.6-27.1c-6-6-10-9-15.6-11.7c-14.2-7-15.3-7.1-55.4-7.3
		c-30.1-0.1-37-0.4-42-1.8c-9-2.5-11.5-3.7-11.5-5.5c0-0.9-1.7-2.5-3.7-3.6c-2.9-1.5-17.2-11.7-21.2-15.1c-0.2-0.2,0.1-1.6,0.8-3
		c1.3-3,0.7-4.4-1.1-2.6c-2,2-2.8,1.4-4.8-3.4c-2.5-5.6-2.5-8-0.2-9.3C433.7,307.5,438.1,307,442.4,307z M597.3,328.7
		c-5.1-2.6-9.3-4.4-9.3-4s4,3,8.7,5.8c5,2.8,11.6,7.8,15.5,11.6c11.6,11.3,15.8,23.7,15.8,46.3c0,4.3,0.5,9.5,1.1,11.5
		c0.9,3.1,0.7,4.8-1.4,11.1c-1.4,4.1-2.4,7.7-2.2,7.8c0.2,0.2,1.5-1.9,2.9-4.6c3.4-6.8,5-17.5,4.2-29.2c-1.2-19.4-6.6-32.3-18.5-44
		C608.4,335.3,604.2,332.3,597.3,328.7z"/>
	<path id="path86" fill="#FFE4C4" d="M394.3,318c0.3,0-0.1,1.9-1,4.2c-1.7,4.5-7.9,11.1-21.3,23c-5.9,5.1-8.4,8.3-11,13.5
		c-2.8,5.7-4,7-6.9,7.9c-1.9,0.6-3.6,1.6-3.8,2.3c-0.5,1.5,7.6,1.4,23.1-0.4c11.5-1.3,14.3-1.3,26.5,0c7.5,0.9,19,1.8,25.5,2.2
		c6.4,0.3,11.7,1,11.7,1.4c0,1.4-6.4,4.6-12.5,6.4c-4.3,1.2-9.4,1.7-18,1.6c-6.6,0-17.7,0.6-24.6,1.5c-11.3,1.3-13.1,1.3-17,0
		c-5.1-1.8-5.9-1.9-5.9-0.8c0,1,12.6,7.1,22.5,10.7c9,3.4,12.9,6.1,29.7,20.8l14,12.2l-4.5,0.3c-6.8,0.5-14.3-2.9-23.8-10.8
		c-7.7-6.5-14.7-10-19.6-10c-1.9,0-9.1-3.7-13-6.8c-2.6-1.9-3.3-2.1-3.3-0.9c0,0.9,3.4,4.2,7.6,7.4c12.9,9.8,17.7,13.8,18.1,14.9
		c0.2,0.6-2.8,3.8-6.7,7.2l-7.2,6l-6.9-3c-3.8-1.7-6.9-3.4-6.9-3.9c0-0.4,0.7-1.5,1.7-2.4c1.3-1.4,2.8-1.6,7.2-1.1
		c5.2,0.6,5.4,0.5,3.7-0.9c-2.3-1.7-9.8-2-12.7-0.4c-1.1,0.5-5.7,4.4-10.2,8.5c-10.9,10-18.4,14.8-29,18.6c-4.8,1.7-8.5,3.3-8.2,3.6
		c0.3,0.3,3.6,0.5,7.3,0.4l6.7-0.1l3.4,7.4c1.8,4.1,3.1,8,2.8,8.8s-2.2,2.7-4.1,4.2c-3.2,2.4-4.1,2.6-8.3,2
		c-9.3-1.3-28.6-6.5-30.3-8c-4.3-3.9-11.3-33.2-9.6-40c0.9-3.6,3.2-5.7,23.8-22.6c22.5-18.4,32.6-28.8,43.5-45
		c5-7.4,10.4-14.6,11.9-16c1.6-1.5,10.1-7.4,18.9-13.3C386.4,322.8,393.9,318,394.3,318z"/>
	<path id="path88" fill="#B22222" d="M182.9,329c0.8,0.1,10.3,3.2,14.4,4.8l2.6,1.1l-2.1,7.8c-1.7,6.2-2.1,10.8-2.1,22.3
		c-0.1,14.3-0.1,14.6,3.3,22.3c2.2,5.1,4.9,9.4,8,12.5c4.4,4.5,12.3,9.2,15.6,9.2c2.1,0,1.9,1.3-0.5,3.5c-1,0.9-2.4,3.2-3,5
		c-1.1,3.4-5.8,6.5-9.7,6.5c-1,0-6.1-1.5-11.3-3.4s-12.8-4.5-16.9-5.6c-10.5-3-15.2-8.5-18.6-21.7c-4.1-15.6-0.2-30.6,13.9-54.6
		C179.6,333.4,182.5,329,182.9,329z"/>
	<path id="path90" fill="#CD5C5C" d="M231.7,332.2c-5.7,19.4-3.9,32.4,6,44.4l3.5,4.3l-3.1,6.1c-1.7,3.4-3.7,6.3-4.4,6.6
		c-0.8,0.3-2.9-0.1-4.7-0.9c-8.7-3.6-14.5-12.4-17.4-26.2c-0.9-4.4-1.8-8.1-2.1-8.4c-0.2-0.2-0.4,2.7-0.4,6.6
		c0,15.1,7.1,29.2,17.3,34.4c3.6,1.9,3.8,2.2,2.4,4.2c-2.4,3.6-4.1,4.1-9,2.7c-7-1.9-12.1-6.9-16.7-16.3c-2.9-5.8-4.4-10.5-5.2-16.2
		c-1.1-8-1-10.1,2.9-33.3c0.6-3.5,5.3-8.2,8.3-8.2c0.9,0,3.4,0.7,5.3,1.5c5.1,2.1,7.9,1.9,11.8-0.9
		C230.7,329.4,232.5,329.3,231.7,332.2z"/>
	<path id="path92" fill="#B22222" d="M240.3,333.5c0.9,1.9,0.8,3.8,0,7.6c-2.3,9.8-0.6,24.5,3.4,30.7c1.6,2.5,1,6.2-1,6.2
		c-0.7,0-2.4-1.2-3.9-2.8c-9-9.4-10.9-33.5-3.4-43C236.9,330.3,239,330.8,240.3,333.5z"/>
	<path id="path94" fill="#2E8B57" d="M437.6,334c3,0,13.4,7,17.2,11.6c9.2,11.1,13.9,30.5,11.6,47.8c-0.4,2.5-1,4.6-1.3,4.6
		c-0.4,0-1.3-1.7-2-3.8c-1.9-5.2-5.4-9.6-10.6-13.2c-6.6-4.5-10.2-4.1-20.5,2.2c-10.3,6.2-20.2,13.9-22.4,17.3
		c-1.9,2.9-1.4,3.1-9.6-3.9c-3.4-2.8-3.4-2.8-1.8-5.7c2-3.3,1-3.8-1.7-0.9c-2.5,2.7-2.8,2.6-5.4-2l-2.2-4h6c4.9,0,6.1,0.3,6.1,1.6
		c0,1.4,0.2,1.4,2.2,0c1.5-1.1,4.5-1.6,9-1.6c8.7,0,16.1-1.6,21.9-4.7c5.3-2.8,9.1-8.5,7.2-10.4c-0.9-0.9-8.2-1.8-24.7-2.8
		c-0.9-0.1-0.2-7.3,1-10.4c0.3-0.9,0.1-1.7-0.5-1.7c-0.5,0-1.5,1.9-2.1,4.2c-2.3,8.8-1.4,8.1-9.3,7.4c-3.9-0.4-7.3-0.9-7.5-1.1
		c-0.3-0.2,1.7-3.8,4.3-7.8c4.8-7.4,4.9-7.4,18.9-15C429.2,337.5,436.4,334,437.6,334z"/>
	<path id="path96" fill="#800000" d="M243.7,338c0.2,0,2.1,2.4,4.2,5.2c3.4,4.6,4,6.2,4.5,12.1c0.4,3.7,1.5,8.8,2.7,11.4
		c2.6,6,2.6,6.7-0.7,5.8c-3.7-0.9-5.1-2.1-7.5-6.9c-4-7.9-5.9-19-4.2-25.4C243.1,339,243.5,338,243.7,338z"/>
	<path id="path98" fill="#B22222" d="M474.7,352.6c5.6,1.3,12.4,1.5,39.8,1.2c36.8-0.3,39-0.1,53.1,6.7c13.4,6.5,25.1,22.1,26.2,35
		c0.2,3,0.2,5.5-0.1,5.5c-0.4,0-3.5-1.5-6.9-3.4c-6.1-3.3-14.9-6.3-25.3-8.6c-3.1-0.7-15.5-1.1-33.3-1.1
		c-22.1,0.1-29.7-0.2-34.9-1.4c-7.6-1.8-17.9-6.9-19.8-9.9c-0.7-1.2-2-5.6-2.9-10c-0.8-4.3-2.4-9.6-3.4-11.7
		C464.9,350.3,465,350.3,474.7,352.6z"/>
	<path id="path100" fill="#800000" d="M254.7,352c1.3,0,9.3,6.4,10,7.9c2.8,6.7,2.5,13.1-0.7,13.1c-3.8,0-7.4-6.9-9.3-17.8
		C254.4,353.5,254.4,352,254.7,352z"/>
	<path id="path102" fill="#6B8E23" d="M283.4,371c3.4,0,36,12.2,34.9,13.1c-0.4,0.4-5.4,4.5-11,9.3c-12.1,10-13.6,10.4-24.7,5.8
		c-8.5-3.5-10.9-6.4-10.8-13c0.1-5.7,2.2-10.2,6-13.1C279.3,372,281.8,371,283.4,371z"/>
	<path id="path104" fill="#32CD32" d="M259.1,376.5c3,0.2,6.1,0.4,6.8,0.4c0.8,0.1,1.2,1.8,1.2,5.1c0,5.8-1.8,7.4-5,4.5
		c-1.5-1.3-2-1.4-2-0.5c0,4.2,15.6,14.7,26.9,18.1c2.3,0.7,4.1,1.5,4,1.8c0,0.3-2.7,2.8-6,5.6c-3.2,2.7-6.8,6.5-8,8.2
		c-2.8,4.4-3.4,12.3-1.6,20.8c0.8,3.8,1.2,7.3,0.8,7.7c-0.3,0.4-2.9-0.3-5.7-1.6c-3.6-1.7-5.4-3.2-6.3-5.5c-1.2-2.8-1.8-3.1-5.8-3.1
		c-7.9,0-13.8-3.8-14.5-9.3c-0.3-2.7-0.6-2.9-6.1-3.2c-5.5-0.3-14.7-4.3-14.7-6.4c0-0.4,2-2.9,4.3-5.5c2.4-2.6,6.5-8.4,9.2-12.9
		c7.3-12.5,14.6-23.5,15.8-24.1C253.1,376.4,256.1,376.3,259.1,376.5z"/>
	<path id="path106" fill="#2E8B57" d="M447.3,381.3c6.5,2.8,13.7,13.2,15,21.8c0.9,5.9-0.1,6.3-7.7,3.5c-10.7-3.8-14.8-8.9-15-18.4
		c0-4.2,0.4-5.7,1.9-6.8C443.8,379.7,443.4,379.7,447.3,381.3z"/>
	<path id="path108" fill="#CD5C5C" d="M478,382.9c9.7,6,12.3,6.5,39.5,7.1l25,0.5l-17.2,2.4c-22.2,3.1-30.4,2.7-42.9-2.3
		c-9.2-3.8-10.4-4.7-10.4-8.4C472,379.4,472.3,379.4,478,382.9z"/>
	<path id="path110" fill="#228B22" d="M436.5,384.1c0.6-0.1,0.9,2.1,0.7,5.4c-0.7,10,5.3,17.7,15.3,20.1c5,1.2,10,4.1,13.2,7.8
		c6,6.8,10.5,24.3,8.4,32.4c-1.9,6.8-4.1,7.7-20.1,7.8c-11,0.1-14.6,0.5-19.4,2.3c-8,2.8-13,6.3-16.3,11.2l-2.7,4.1L414,472
		c-2.5-4.8-3-2.5-0.8,3.8c1.6,4.7,1.8,6.3,0.9,8.8c-1.5,4.1-1.4,8.1,0.4,14c1.3,4.4,1.3,6-0.7,17.9c-1.6,10-2.5,13.4-4,14.7
		c-1.1,1-2.3,1.8-2.7,1.8c-0.4,0-1.5-4.8-2.4-10.8c-0.9-5.9-2.8-14.8-4.2-19.7c-5.1-17.6-9.5-24.4-19-29.2c-2.7-1.4-5.1-2.6-5.2-2.7
		s1-3.1,2.4-6.6c3.3-8.2,3.7-18.2,0.9-25.3l-1.8-4.9l6.6-6.3c3.6-3.5,6.6-7.2,6.6-8.2c0-1.1-1.6-3.4-3.5-5.3
		c-5.5-5.3-4.1-5.6,2.5-0.4c6.3,4.9,8.6,9.2,7.4,13.8c-0.9,3.9,0.4,9.2,3.2,12.5c1.3,1.6,2.3,3.3,2.2,3.8c-0.4,1.6,1.3,8.3,2.4,8.9
		c0.8,0.5,0.9-0.9,0.5-4.9c-0.6-4.9-0.4-6,1.8-9.3c1.4-2,2.5-4.9,2.4-6.3c-0.1-2.5-1.3-0.5-5.3,8.4c-0.7,1.5-3.5-2.5-4.6-6.6
		c-0.6-2-0.7-5.1-0.4-6.9c0.8-3.6,0.8-3.6,10.9,0.1c5.3,1.9,6.7,2,11.9,1.1c3.2-0.6,6.1-1.3,6.4-1.6c1.5-1.6-1.8-6-9.8-13
		c-4.9-4.4-9-8.3-9-8.8c0-1.5,9.6-9.9,17.6-15.3C431.9,386.5,436,384.1,436.5,384.1z M433,441.9c-9.1,2.4-21.4,8.4-24.1,11.8
		c-3,3.8-1.5,3.8,3.8-0.1c6.9-5,14.1-8.4,23-10.8c4.3-1.2,8-2.3,8.2-2.5C444.9,439.4,440,440.1,433,441.9z"/>
	<path id="path112" d="M383,385c3,0,4.2,0.6,5.5,2.5c0.9,1.4,1.3,2.5,1,2.5c-2.3,0-11.2-3.5-10.8-4.2C379,385.4,380.9,385,383,385z"
		/>
	<path id="path114" fill="#800000" d="M221.1,390.4c1.8,1.5,5.1,3.4,7.2,4.3c3.8,1.5,4.7,2.7,2.8,3.8c-1.9,1.2-9.9-4.6-12.2-9
		C218.1,388,218.6,388.3,221.1,390.4z"/>
	<path id="path116" fill="#B22222" d="M480.6,393.7c15.2,6,24.4,6.6,49,3.3c8.2-1.1,20.3-2.3,26.9-2.7c14-0.7,20.3,0.6,28.1,6
		c21.6,14.8,23.3,49.6,3.2,64.3c-2.7,2-5.1,3.5-5.2,3.3c-0.2-0.2,0.2-3.3,1-6.9c3.1-14.1-3-29.6-13.7-35.1
		c-7.8-3.9-17.7-5.7-47.4-8.4c-17.6-1.7-23.6-2.8-36.6-7.1c-7.3-2.4-7.9-2.8-11.3-8.1c-3.2-4.9-4.6-10-3.1-11.5
		C471.8,390.5,475.9,391.8,480.6,393.7z"/>
	<path id="path118" fill="#3CB371" d="M468.9,402c0.8,0,10,21,11.8,27c1.1,3.6,1.1,5.9,0.2,11.7c-0.6,4-1.5,7.3-1.8,7.3
		s-0.6-4.4-0.6-9.8c-0.1-8.9-0.3-10.2-3.2-15.7c-3.2-6.1-6-9.7-8.8-11.3c-1.5-0.8-1.5-1.2,0-5C467.5,403.9,468.5,402,468.9,402z"/>
	<path id="path120" fill="#556B2F" d="M489.8,414.7c9.4,3.2,11.3,4.2,15.8,8.7c5.9,5.9,8.4,12,8.4,20.6c0,5.9-1.3,10.9-2.8,10.9
		c-0.5,0-1.6-1.7-2.6-3.7c-3.2-6.7-17.6-24.5-22.1-27.3c-2.1-1.3-4-3.8-5.4-6.9c-1.1-2.8-2.1-5.2-2.1-5.4
		C479,411.4,483.8,412.7,489.8,414.7z"/>
	<path id="path122" fill="#228B22" d="M202.9,425.9c9,3.2,9.2,3.3,9.2,6.4c0,1.8,0.5,3.7,1.1,4.3c0.8,0.8-1.4,1.4-7.6,2.3
		c-11.4,1.6-24.9,0.9-29.5-1.5l-3.5-1.8l2.5-0.9c1.4-0.5,6.1-0.9,10.5-0.8c9.5,0.2,10.8,0.1,7.5-1c-6.5-2.1-22.8-0.3-23.7,2.5
		c-0.4,1.3,7.3,5.2,13,6.5c3,0.7,9.3,0.5,21.4-0.6c18.3-1.7,21.6-1.5,23.2,1.5c0.9,1.7,0.1,2.3-7.2,5.8c-7.6,3.7-19.8,12-21.3,14.5
		c-0.8,1.3-0.7,1.2,8.8-4.9c6.8-4.4,20.4-11.3,22.3-11.3c0.5,0,2.9,1.3,5.3,2.9l4.3,2.8l-12.3,4.9c-17.8,7-38.5,20.1-48.3,30.4
		c-4.6,4.8-4,8.4,4,23.4c3.7,7,6.4,13,6.1,13.3c-1.8,1.8-20-6.5-28.4-13.1c-6.5-5.1-9.8-9.9-11.7-17.3c-1.8-6.5-1.4-9.8,2.1-22.2
		c2.8-9.8,3-15.9,0.7-22.7c-3.5-10.4-11.6-18.3-22.8-22.1c-2.7-0.9-4.3-1.9-3.5-2.1s8.7-1.8,17.5-3.6
		C168,416.3,177.2,416.9,202.9,425.9z"/>
	<path id="path124" fill="#DC143C" d="M504.5,418.6l6.5,0.8c9.4,1,13,3,16.3,9.2c3.6,6.8,4.8,13.3,3.6,20.7c-1,6.2-2.9,9.7-8.7,15.8
		c-3.9,4.1-4.5,4.1-6.7-0.2c-1.4-2.7-1.3-3.2,0.7-7.2c1.8-3.3,2.3-6,2.3-11.3c0-8.3-3.4-16.2-9.9-23.3L504.5,418.6z"/>
	<path id="path126" fill="#DC143C" d="M525,420.9h3.8c7,0.1,17.3,2,21.3,4c13.2,6.8,20.2,22.5,14.9,33.5c-3.7,7.7-13.1,12-19.4,9
		c-3.2-1.5-8.6-7.9-8.6-10.1c0-0.6,1.4-2.9,3.1-5.2c3.2-4.4,2.7-5.8-0.8-2c-8.9,9.8-7.1,23.4,3.9,28.7c5.9,2.8,16.5,2.9,22.2,0.2
		c4.2-2,16.9-6.1,18.9-6.1c3.3,0-5.5,6-16.9,11.5c-10.3,5.1-14.1,7.5-17.2,11c-2.2,2.5-4.2,4.5-4.6,4.5c-1,0-3.6-5.9-3.6-8.4
		c0-3.3-2.5-5.6-6.1-5.6c-5.9,0-10.8-2.9-13.9-8.3l-2.9-5.1l4.4-4.7c12-12.9,13.6-27.8,4.5-42.3L525,420.9z"/>
	<path id="path128" fill="#32CD32" d="M226.4,425.9c2.5,1.1,6.7,2.2,9.3,2.4c4.4,0.4,4.8,0.7,7.1,4.9c3,5.3,5.6,6.7,12.6,6.7
		c5,0,5.3,0.2,7.1,3.5c2.1,3.8,4.9,6,9.1,7.1c2,0.5,2.4,1.1,1.9,2.3c-1.7,3.7-1.5,11.4,0.5,19.9c1.2,4.9,2.1,10,2.1,11.2
		c0,1.9-0.2,2.1-1.6,0.9c-0.8-0.7-2.7-3.5-4-6.1c-1.5-3-3.8-5.7-6-7c-2.1-1.2-3.6-3-4-4.7c-0.3-1.4-0.7-3.6-1-4.9
		c-0.7-3.3-9.1-9.1-13.4-9.2c-4.1,0-6.3-1.3-14.2-8.6c-3.6-3.3-7.6-5.8-10.8-6.9c-7.7-2.6-9.5-8-3.7-11.5
		C221.3,423.5,220.9,423.5,226.4,425.9z"/>
	<path id="path130" fill="#FF0000" d="M563.6,431.1c5.3,4.9,8.3,11.1,10,20.8c1.3,7.5,0.9,12.4-1.4,16.5c-1.6,3-6.4,7.2-9.5,8.4
		c-3.8,1.4-12.9,1.4-16.4-0.1c-2.7-1.1-2.7-1.1,2.5-1.9c9.2-1.2,16.9-8.1,19.8-17.6c2.8-9.1,0-17.6-9-27.1
		C553.9,423.9,556.6,424.6,563.6,431.1z"/>
	<path id="path132" fill="#800000" d="M568.2,428c7.9,4.1,12.5,11.3,13.5,21.2c0.7,7.7-1,16.4-3.9,19.4c-3.1,3.3-3.9,2.8-2.2-1.2
		c1.8-4.4,1.8-11.1-0.1-19.9c-1.7-8-5-14.1-10-18.5C561.4,425.4,562.3,425,568.2,428z"/>
	<path id="path134" fill="#2E8B57" d="M113.8,427.3c10.1,0.8,17.2,3.8,24.8,10.3c3.5,3.1,6.2,6,5.9,6.5c-0.3,0.4-2.4,0.9-4.7,1
		c-4,0.1-4,0.1-0.7,0.5c7.5,0.8,7.9,1,9.6,7c1.9,6.6,1.5,10.8-2.3,24.6c-2.1,7.8-3.5,10.8-6.4,14l-3.6,4.2l-0.8-4.5
		c-2.3-13.7-7.7-20.3-19.5-24.1c-13.5-4.2-17-8.4-17-20.4c0-8.9,1.5-14.1,4.8-17.2C106.4,426.8,107.1,426.7,113.8,427.3z"/>
	<path id="path136" fill="#6B8E23" d="M356.9,427.9c0.1,0,3.3,1.5,7,3.4c3.8,1.9,7.7,3.4,8.7,3.3c2.8-0.3,4.8,4.7,5.3,13.5
		c0.5,8.6-1.1,16.9-3.7,19.2c-1.7,1.5-2.5,1.5-10-0.6l-8.3-2.2l-3.5-7c-4.2-8.5-7.8-12.6-11.1-12.6c-1.3,0-2.2-0.4-2-0.8
		c0.2-0.5,4.1-4.3,8.8-8.5C352.8,431.4,356.7,427.9,356.9,427.9z"/>
	<path id="path138" fill="#6B8E23" d="M486.4,430.9c1.1,0,17.3,23.7,21.8,32c1.4,2.5,4,7.2,5.8,10.5c1.8,3.3,4.1,7.1,5.2,8.4
		c1,1.3,1.7,2.6,1.5,2.8c-0.2,0.2-8.7,0.7-18.8,1.1c-20.9,1-23.2,1.7-32.2,10c-2.7,2.6-4.8,4.2-4.6,3.7c0.2-0.6,2.6-5.2,5.2-10.4
		c8.3-16,13.7-36.1,13.7-50.6c0-3.4,0.3-6.5,0.7-6.8C485,431.2,485.8,430.9,486.4,430.9z"/>
	<path id="path140" fill="#CD5C5C" d="M619.9,434.4c7.7,3.9,14.6,16,15.7,27.4c1.1,10.7-4.2,26.7-11.1,33.4
		c-5.1,4.9-6.2,4.7-2.5-0.5c1.7-2.3,3.7-6.4,4.5-9.1c1.9-6.5,1.9-20.9,0-27.3c-2.1-7.2-8.7-16.9-14-20.6c-2.5-1.8-4.5-3.5-4.5-4
		C608,432.3,616.9,432.8,619.9,434.4z"/>
	<path id="path142" fill="#B22222" d="M609.9,438.3c4.2,2.2,9,8.2,12.5,15.6c2.6,5.6,3.1,7.9,3.4,16.5c0.3,8.5,0,10.9-1.9,15.9
		c-2.6,7.1-9.5,14.4-15.4,16.5c-10.8,3.7-18.1,7.9-22.6,12.9c-4.9,5.5-6.3,9.5-4.8,14.6c2.1,7.4,12.5,13,17.8,9.7
		c1-0.6-0.3-1.4-4.2-2.5c-9.3-2.7-12-8.7-7.5-16.7c2.4-4.4,4.3-5.3,2.8-1.3c-2.5,6.4,0.5,13.5,6.7,16c3,1.3,4.4,1.4,8,0.3
		c2.4-0.6,4.6-1.6,4.9-2c0.3-0.5,1.3-0.9,2.3-0.9s2.3-1.2,3-2.6c1.8-4.1,2.5-2,1,3.3c-2.5,9.2-14.3,18.2-26.7,20.5
		c-5.1,1-6.8,0.8-13-1.1c-9.1-2.7-10.7-4.7-11.6-14.3c-0.7-7.6-3.4-14.6-8.7-22.9c-6.8-10.7-2.5-18.1,18.6-32.1
		c7.6-5.1,11.5-8.3,12.6-10.6c0.9-1.8,3.6-5.4,6.1-8c2.4-2.6,5.9-6.8,7.7-9.5c1.9-2.6,3.8-4.7,4.2-4.7c0.5,0,1.5,2.3,2.4,5.2
		c3.4,11.6,0.5,23.7-7.8,31.8c-2.8,2.9-7.1,6.5-9.4,8.1c-3.7,2.6-5.5,4.9-3.8,4.9c1.3,0,8.6-5.2,13.6-9.8
		c6.4-5.8,10.2-12.3,12.5-21.1c2-7.9,1.2-14.4-2.7-21.8c-1.6-3-2.9-6.8-2.9-8.4C607,436.9,607,436.9,609.9,438.3z"/>
	<path id="path144" fill="#6B8E23" d="M340.5,449c1.4,2,1.2,2.6-1.4,7.3c-1.6,2.8-3.3,5.2-3.7,5.3c-0.5,0.2-2-2.6-3.5-6.2
		c-2.4-5.9-2.5-6.6-1-7.5C334,446.2,338.9,446.7,340.5,449z"/>
	<path id="path146" fill="#556B2F" d="M478.7,449.3c0.9,0.8-6.4,19-14.8,37.2c-4.5,9.6-7.9,17.7-7.6,18c0.8,0.8,16.4-31.4,20.4-42.1
		c4.6-12.3,3.4-4.6-1.6,10.1c-5.8,17.4-18.2,38.4-22.6,38.4c-3.8,0-4.5-17.3-1.1-28.5c1.9-6.1,7-12.4,13-15.9
		c5.4-3.1,11.1-9.7,12.7-14.3C477.7,450.3,478.4,449,478.7,449.3z"/>
	<path id="path148" fill="#32CD32" d="M279.2,455.5c2.3,5.2,2.3,6.1-0.1,3.9c-1.9-1.8-2-1.7-2,0.1c0,3.5,2.7,6,10.7,9.6
		c7.3,3.4,11,4.3,45.1,11.5l7.2,1.5v10.5V503l-10.7-0.4c-12.1-0.4-22.2-2.5-32.7-6.7c-9.8-3.9-14.5-6.8-15-9.4
		c-0.2-1.1-1.6-7.7-3-14.6c-2.8-13.1-3-15.7-1.9-18.6C277.3,451.9,277.8,452.3,279.2,455.5z M323.2,484.5c-2.4,2-3.1,3.4-3.1,6.2
		c0.1,8.5,8.9,11.9,14,5.5c1.1-1.4,2-3.4,2-4.5c0-3.1-2.7-7.3-5.5-8.6C327.1,481.5,326.7,481.5,323.2,484.5z"/>
	<path id="path150" fill="#FF4500" d="M333.1,491.6c0,2.3-3.2,6.3-5,6.3c-3.8,0-6.7-8.9-3.8-11.8
		C327.5,482.9,333.1,486.5,333.1,491.6z"/>
	<path id="path152" fill="#32CD32" d="M349,464c5.2,9.9,5.3,10.2,4.1,14.3c-1.3,4.6-6.7,13.6-8.1,13.6c-0.5,0-0.9-2.7-0.9-6
		c0-6.2-1.3-8-5.7-8c-1,0-3.5-0.5-5.6-1.1l-3.8-1l3.3-4c4.7-5.8,9.8-14.1,9.8-16.2C342.1,452.2,343.7,454.1,349,464z"/>
	<path id="path154" fill="#228B22" d="M252.2,457.9c6.3,3.3,6.4,4,3,26.5c-1.7,11-3.3,22.2-3.7,25c-0.3,2.7-1,5.6-1.3,6.3
		c-0.5,0.8-3.5-2.3-8.6-8.9c-4.4-5.6-9-10.9-10.4-11.8c-1.9-1.2-5-1.6-13.1-1.6c-8.2,0-13.1-0.7-22.7-3c-6.8-1.6-12.3-3.2-12.3-3.5
		c0-1,18.8-13.8,26.8-18.4c9.1-5.2,15.4-7.8,25.1-10.6C243.6,455.5,247.3,455.5,252.2,457.9z"/>
	<path id="path156" fill="#6B8E23" d="M466,461.4c0,0.2-4.8,3.6-10.7,7.6c-11.7,7.7-18.8,14-23.4,20.6c-4.9,7-3.2,7.2,3.1,0.3
		l5.9-6.5l-0.6,3.7c-0.7,4.5,0.9,11.1,4.2,18.1c1.4,2.8,2.5,5.2,2.5,5.3c0,0.1-2.2,0.4-4.8,0.8c-2.7,0.3-5.7,1.3-6.8,2.1
		c-1,0.8-2.2,1.5-2.6,1.5c-2.1,0.1-12.8-10.4-14.8-14.5c-2-4.2-2.2-5.7-1.7-13.6c0.4-5,1.3-10.2,2.1-11.7c2.8-5.4,9.4-10,18.1-12.8
		C440.2,461.1,466,460.3,466,461.4z"/>
	<path id="path158" fill="#800000" d="M540.5,466.7c2.6,2.3,5.6,4.2,6.6,4.2s2.1,0.4,2.4,1c0.7,1.1-1.8,1.3-6.1,0.4
		c-3.1-0.6-5.6-3.3-6.9-7.4C535.8,462.8,536.3,463,540.5,466.7z"/>
	<path id="path160" fill="#9ACD32" d="M357.7,468.9c0.3,0,6.9,3.2,14.6,7.1l14,7.2l2.8,6.1c6.4,14.3,14.5,43.6,12.4,45.5
		c-0.5,0.4-4.5,2.7-8.9,5.1c-10,5.3-11,6.2-13.1,11.6c-1.6,4.3-1.6,13.4,0.1,19c0.5,1.7-1,3.2-8.8,9.2
		c-11.1,8.4-12.6,10.9-10.7,17.7l1.3,4.5l-5,5.3c-6.3,6.7-6.8,7.6-14.1,28.2c-3.3,9.3-6.4,17.8-6.8,18.9c-0.6,1.6-1.4,1.8-5.8,1.2
		c-12.9-1.5-26-6.5-28.1-10.7c-0.8-1.5-3-10.3-5-19.5c-1.9-9.2-3.8-17-4.1-17.3c-1.3-1.2,0.5,21.5,2,26.4c0.8,2.7,1.4,5,1.3,5.1
		c-0.8,0.8-36.1-8.6-37.5-10c-1.6-1.6-4.5-13.6-3.3-13.6c0.3,0,2.7,0.7,5.3,1.7l4.7,1.7l-2.1,2.8c-3,4.3-1.3,4.7,2.4,0.6
		c4.2-4.4,13.4-23,15.1-30.4l1.3-5.6l2.9,3.7c1.7,2,6.2,5.5,10,7.8c8,4.7,21.6,17.9,25.9,25.1c1.5,2.6,2.5,5,2.2,5.3
		c-0.9,0.9-7-0.6-10.4-2.7c-2.4-1.5-4.3-4.1-6.8-9.5c-1.9-4-3.4-7.8-3.4-8.4s-0.4-1.1-1-1.1c-1.3,0-1.3-0.4,0.6,6.1
		c2.3,7.7,5.4,12.8,8.9,14.7c3.8,1.9,12.2,4.2,15.7,4.2h2.7l-3.1-4.8c-11-16.4-19.3-25.3-27.8-29.7c-5.9-3-6.1-3.3-17.2-22
		c-15.8-26.7-18.1-31.4-18.1-35.9c0-5.7,8.9-39.9,11.9-45.8c2.4-4.7,3.7-5.7,4.8-3.9c0.3,0.5,3.1,2.6,6.1,4.6c6.1,4,6,3.2,2.3,13.3
		c-1.2,3.2-3.8,7.1-6.8,10.2c-5,5.1-4.5,6.9,0.8,2.6c3-2.6,8.2-11.6,10.2-17.9c1.3-4.1,2.5-4.5,7.3-2.3c1.8,0.8,4.9,1.7,6.9,2.1
		l3.8,0.6l-0.2,13.2c-0.1,10.1,0.3,14.6,1.6,19.2c2.3,7.9,5.6,15.5,6.7,15.5c1.2,0,1.2-0.1-1.1-5.4c-4.3-9.7-6.1-25.5-3.9-35.6
		l1.1-5l12.6,0.6c7,0.3,13.3,0.7,14,1c0.7,0.2,1.2,2,1.2,4.5c0,3.4-0.7,4.9-4,8.6c-2.2,2.5-4,5.2-4,5.9c0,3.5,16.5,17.6,24.3,20.9
		c4.7,2,6.4,4.7,7.2,11.8c0.6,5,1.9,7.7,3,6.6c0.2-0.2-0.4-4.1-1.3-8.6c-1.7-8.2-1.7-8.3-6.7-11.5c-4.6-3.1-5.1-3.8-6.6-9.8
		c-1.5-5.6-2.4-7.1-6.8-11l-5.2-4.6l1.7-3.2c1.4-2.9,1.4-4.2,0.4-9.8c-1.4-7.3-0.5-11,3.3-13.3c2-1.3,2.6-0.9,11.4,8.5
		c5.1,5.4,9.3,9.5,9.3,9.1c0-1.6-4.4-7.2-11.2-14.2l-6.7-7.1l2-3.3l2-3.2l9.2,0.7c11,0.8,10.9-0.7-0.1-2.1c-8.5-1.1-8.1-0.5-6.6-9.3
		C357,470.4,357.4,468.9,357.7,468.9z M274.1,511.8c-1.2,2.4-1.4,9.4-0.1,7.1c0.5-0.8,1.1-3.2,1.5-5.3
		C276.3,509.5,275.7,508.8,274.1,511.8z"/>
	<path id="path162" fill="#32CD32" d="M121.2,472.9c2.6,0,7.5,6.2,9.9,12.7c2.7,7.2,2.4,14.4-0.8,17.6l-2.2,2.1l-4.2-2.1
		c-2.4-1.1-7.2-4.7-10.8-8c-3.6-3.3-8.2-7.1-10.3-8.5l-3.8-2.6l10.3-5.5C115,475.5,120.3,473,121.2,472.9z"/>
	<path id="path164" fill="#32CD32" d="M261.1,472.9c1.5,0,3.9,3,7.5,9.5l3.6,6.4L270,493c-5.6,11.1-11.2,30.9-12.4,44.6
		c-0.7,6.8-0.9,7.3-2.9,6.9c-14.8-3.1-23.6-5.5-23.6-6.7c0-0.5,3.9-2.9,8.8-5.5c4.8-2.7,9.2-5.5,9.9-6.3c0.6-0.9,1.7-4.5,2.3-8.1
		c1.5-9.2,5.9-33.5,7.1-39.8C259.8,475.3,260.6,472.9,261.1,472.9z"/>
	<path id="path166" fill="#6B8E23" d="M450.6,476.2c0.5,0.5-4,19.7-4.7,19.7c-1.2,0-1.6-7.3-0.7-11.5c0.5-2.2,1.9-5,3-6.2
		C449.4,476.9,450.5,476,450.6,476.2z"/>
	<path id="path168" fill="#2E8B57" d="M96.5,487.9c3.7,0,8.6,3.1,16.4,10.4c13,12.2,15.9,12.3,24.9,1.4l5.7-7l1.9,5.6
		c1.9,5.6,1.8,5.6-0.2,8.2c-2.7,3.4-1.8,4.4,1.2,1.6l2.3-2.2l1.6,2.8c0.9,1.5,3.5,8.3,5.8,15.2c3.5,10.5,4.1,13.4,3.8,18.5
		c-0.7,9.6,0.7,12.4,1.6,3.2c0.4-4.2,1.1-7.7,1.5-7.7c1.1,0,32.3,27.3,35.4,31c2,2.3,2.7,4,2.3,5.6c-0.8,3.1,0.9,7.3,4.7,11.3
		c3.1,3.3,3.1,3.4,0.7,2.7c-1.4-0.3-8.8-2-16.5-3.6c-19.7-4.2-21.1-4.7-25.7-8.8c-6.1-5.4-8.1-10.8-7.4-19.1
		c0.7-7.5-0.4-10.7-4.5-13c-2.2-1.2-3.2-1.2-8.5,0.5c-7.7,2.5-19.3,2.5-25.5,0.1c-5.7-2.2-9.7-6.3-14.3-14.7
		c-4.8-8.9-7.6-19.5-8.3-31.8C94.9,489,95,487.9,96.5,487.9z"/>
	<path id="path170" fill="#9ACD32" d="M517.1,488.3c17.5,0.1,19.9,0.7,19.9,4.8c0,2.4,3.2,8.6,7.5,14.6c4,5.7,10.6,18.8,14,27.8
		l2.5,6.6l-1.9,4.4c-3.3,7.4-14.1,22.2-23.8,32.7c-5.1,5.5-9.1,10.3-8.8,10.5c0.2,0.3,4-2.7,8.4-6.7c4.3-3.9,8.2-7.1,8.5-7.1
		c1.8,0-14.1,26.5-23.5,39.1c-6.9,9.3-13,14.7-23.9,21.2c-11.1,6.5-22.2,11.1-30.5,12.6c-10.4,1.9-10.9,1.8-20.6-6.6
		c-4.9-4.2-8.9-8.1-8.9-8.6c0-0.4,1.2-2.4,2.7-4.3l2.6-3.5l5.4,5.3c2.9,2.9,5.3,4.7,5.3,4.1c0-0.6-0.7-1.6-1.5-2.3
		c-2.7-2.2-7.8-9.1-7.2-9.6c1-1.1,12.2,1.8,14.2,3.6c3,2.8,7.4,4.2,10.9,3.5c5.4-1.1,35.9-10.9,34.9-11.2c-0.6-0.2-7.7,1.2-15.9,3.1
		c-17.5,4.1-22.2,5-24.8,4.8c-1.1,0-3.8-1.9-6-4c-2.3-2.2-5.1-4.5-6.3-5.1c-1.7-0.8-7.3-9.1-7.3-10.7c0-0.9,13-0.3,15.9,0.7
		c4.5,1.6,5.2,0.2,0.8-1.6c-2.1-0.9-6.7-1.5-11.1-1.5c-7.3,0-7.4-0.1-9.5-3.3l-2-3.2l7.7-0.5c9.2-0.7,15-3.2,22.2-9.7
		c6.7-6,5.7-6.7-1.3-1c-6.6,5.4-14.9,8.7-21.8,8.7c-6.1,0-9.7-1.8-13.2-6.3c-2.3-3-2.5-3.9-1.7-6.8c1.2-4.1,0.5-5.1-1.1-1.5
		c-1.5,3.2-1.6,3.2-5.4,0.1c-2.7-2.2-3-3-2.9-8.2c0.1-8.3,2.6-14.7,8.9-23.3l5.6-7.5l-5.8,6c-7.3,7.6-10.4,13.8-11.1,22.1
		c-0.2,3.5-0.6,6.4-0.7,6.4s-3.3-1.1-7.1-2.5c-3.8-1.4-7-2.5-7-2.5c-0.1,0,0.2-1.7,0.7-3.8c1.7-7.2,0.6-15.4-2.5-19.7
		c-2.1-2.9-3.2-1-1.2,1.9c1.2,1.9,1.6,4.9,1.6,11.5c0,4.9-0.3,9.2-0.7,9.4c-0.5,0.3-4.5,0.2-9-0.1l-8.3-0.5v-6.1
		c0-7.3,2.4-13.1,6.9-16.9c1.8-1.4,10.4-6.3,19.2-10.8c13.1-6.7,17.3-9.4,23.4-15.1c4.1-3.8,8.7-7.3,10.2-7.7
		c1.6-0.5,13.5,0.2,28.3,1.5c32.4,2.9,43.9,3.1,47,0.6c3.4-2.8,1.9-5.6-4.6-8.8c-8.4-4.1-17.9-4.4-28.8-1c-4.7,1.4-8.8,3.1-9.2,3.7
		c-0.4,0.7,0,0.9,1.2,0.5c10.2-3,17.7-4.6,22-4.6c6.3,0,14.1,2.4,18,5.5l2.9,2.3l-4.3,1.3c-3.7,1.1-8.3,0.9-31.3-1.1l-27-2.4
		l8.3-8.4c11.4-11.5,14.6-13.2,26.1-14.2C496.3,488.5,508,488.2,517.1,488.3z"/>
	<path id="path172" fill="#2E8B57" d="M190.8,492.4c4.8,1.4,12,2.8,16,3.2c4,0.3,7.3,0.8,7.3,1c0,0.4-15.7,18.8-20.5,24.1
		c-1,1.1-2.4-0.7-7.3-9.6c-6.8-12.3-8.7-17.8-7-19.9C180.7,489.5,180.7,489.5,190.8,492.4z"/>
	<path id="path174" fill="#FF0000" d="M557.8,493.6c-2,2.1-4.6,5.8-5.8,8.2c-1.6,3.3-2.4,4.1-3.1,3c-1.6-2.6-0.9-4,4.5-9.5
		C559.5,489.3,563.5,487.7,557.8,493.6z"/>
	<path id="path176" fill="#2E8B57" d="M230.3,499.6c2.1,2,3.8,4.6,3.8,5.6c0,1.7-0.5,1.8-3.5,1.3c-4.3-0.8-4.6,0.1-0.4,1.6
		c2.2,0.7,2.9,1.5,2.4,2.7c-3,7.8-5.3,25.8-3.6,28.9c1.4,2.6,14.7,7.1,23.3,7.9c6,0.6,7.5,1.6,9.6,6.5l1.2,2.8H258
		c-8.3,0-24.5-3.8-38.2-8.9c-7-2.7-12.6-4.3-12.4-3.7c0.5,1.4,16.8,7.8,28.3,11.1c4.9,1.4,13.3,2.8,18.8,3.3l9.8,0.7l3.9,6.4
		c2.2,3.6,3.9,7,3.9,7.7c0,2.3-13,6.6-23.1,7.5c-11.2,1.1-25-0.1-29.9-2.5c-3.7-1.7-25.8-20.7-45-38.6c-9.6-8.9-11.9-11.7-13.9-16.4
		c-1.3-3.1-2.1-6-1.8-6.3s3,0.9,6,2.6c6.7,3.8,17.9,8.1,21.3,8.1c4.4,0,7.7-2.6,17.4-13.7c5.2-5.9,11.2-12.5,13.4-14.6
		C221.8,494.6,225.2,494.6,230.3,499.6z"/>
	<path id="path178" fill="#6B8E23" d="M426.4,513.1c3.3,2.9,3.8,3.8,3.2,6.1c-0.5,2.1-2.3,3.5-7.7,6.3c-3.9,1.9-7.3,3.3-7.5,3.1
		s0.3-5.1,1.1-10.8c0.8-5.7,1.5-10.8,1.5-11.2C417,505.6,420.9,508.3,426.4,513.1z"/>
	<path id="path180" fill="#556B2F" d="M237.4,507.9c1.3,0,10.6,15,10.1,16.3c-0.4,1.1-3.6,2.9-16.5,9.5c-0.3,0.1,0.8-5.6,2.5-12.8
		C235.2,513.8,236.9,507.9,237.4,507.9z"/>
	<path id="path182" fill="#6B8E23" d="M344.5,525.1c4.8,3.9,9.6,13.8,6.7,13.8c-0.4,0-3.8-2.7-7.5-6.1c-6-5.6-7.7-8.4-5.9-10.2
		C339,521.3,340.7,521.9,344.5,525.1z"/>
	<path id="path184" fill="#B22222" d="M94.6,527.9c0.6,0,1.9,1.7,3,3.7c5.1,9.8,16.2,18.2,25.9,19.8c4.5,0.7,4.1,1.4-3.1,5
		c-5.8,2.9-16.6,5.5-22.9,5.5c-4.7,0-13.2-2.3-18.8-5.2c-4.4-2.3-9.8-7.7-8.9-9.1c0.3-0.5-0.3-2.4-1.3-4.2c-2.1-3.9-2-4,2.3-4.9
		c2.9-0.7,3.4-0.4,7.4,4.9c5,6.7,6.2,6.6,1.9-0.1c-1.9-3-2.6-5.2-2.1-5.7c0.6-0.6,4.3-2.9,8.3-5.3C90.3,529.9,94.1,527.9,94.6,527.9
		z"/>
	<path id="path186" fill="#B22222" d="M58.5,538.9c3.9,0,4.8,0.9,6.5,7c2.5,8.6,14.5,17.1,27.5,19.3c11.9,2,25.8-2.1,36.7-10.8
		c7.6-6.1,19.8-8.5,23.4-4.5c1.5,1.6,1.6,3,1,9.4c-0.4,4.5-1.2,8-2.1,8.7c-2.1,1.7-1.8,10.5,0.7,17.7c2.1,6.3,3.5,8.4,2.3,3.5
		c-0.7-2.7-0.6-2.6,2.4,0.9c3.6,4.1,4.1,5.3,1.3,3.9c-1.4-0.8-2.2-0.7-3.1,0.4c-2.1,2.6-8.5,1.9-12.1-1.3c-2.6-2.3-3.3-3.8-3.7-8
		c-0.2-3,0.1-6.4,0.8-8.2c1.9-4.5,0.4-4.8-3.8-0.8c-5.4,5.2-12.8,9.6-20.1,11.8c-16,5-31.9,0.2-46.2-14
		c-9.9-9.8-14.8-20.1-14.9-31.3C55.1,539.1,55.2,538.9,58.5,538.9z"/>
	<path id="path188" fill="#FF4500" d="M650.1,539.9c0.6,0,4.9,9.2,4.9,10.5c0,0.3,0.9,2.8,2.1,5.5c2.3,5.4,4,6.3,13.4,7.5
		c2.8,0.4,6.4,1.2,8,1.9l3,1.3l-8.4,8.2l-8.3,8.2l0.6,5.2c1.6,12.8,1.9,21.7,0.6,21.7c-0.7,0-6.3-2.9-12.5-6.5
		c-6.1-3.6-11.9-6.5-12.9-6.5c-0.9,0-5.8,1.6-10.7,3.5c-5,1.9-9.5,3.5-10,3.5c-1.2,0-0.5-3.3,2.8-13.6c2.9-9.3,2.7-11.4-1.8-17
		c-3.2-4-7.9-12.6-7.9-14.4c0-0.6,4.2-1,11.4-1h11.5l6.8-9C646.4,544,649.8,540,650.1,539.9z"/>
	<path id="path190" fill="#800000" d="M562.9,552.9c2.2,0,5.6,6.4,4.4,8.3c-0.4,0.7-0.8,1.8-0.8,2.7c-0.1,0.8-0.5,2.6-0.9,3.9
		c-0.6,1.6-0.5,2.1,0.3,1.7c1.6-1,1.4,0.6-0.5,3.2c-0.8,1.2-1.9,2-2.4,1.7c-0.4-0.3-1.3,0.2-2,1c-1.1,1.3-4.5,2.7-10.2,3.9
		c-1.9,0.4-2.8,0.2-2.8-0.7c0-2.2,6.9-15.8,10.6-20.9C560.6,555.1,562.5,552.9,562.9,552.9z"/>
	<path id="path192" fill="#800000" d="M587,558.9h10l-0.7,3.2c-0.8,4.6-4.3,10.8-7.3,12.9c-2.8,2-3.9,2.2-13.4,2l-6.8-0.1l3-3.5
		c2.9-3.3,5.2-8.9,5.2-12.8C577,559.1,578.1,558.9,587,558.9z"/>
	<path id="path194" fill="#556B2F" d="M155.9,574.9c3.7,7.8,10.5,11.6,25.2,14c4.1,0.6,8,1.8,8.6,2.6c1,1.2,1.3,1.2,2.4-0.1
		c0.7-0.8,2.7-1.5,4.5-1.5h3.2l-0.8,4.2c-0.4,2.4-0.8,5.1-0.9,6c0,3,5.8,8.4,12.2,11.4c5.5,2.4,7.5,2.8,15.3,2.7
		c5.8,0,10.6-0.6,13.4-1.7c4.3-1.6,4.6-1.6,6.3,0.2c1.8,1.8,1.6,1.9-7.9,3c-5.4,0.6-13.6,2.3-18.2,3.8l-8.3,2.7l-3.5-4.2
		c-4.1-4.9-13.5-11.8-21.5-15.7c-5.9-2.9-7.2-4.3-4-4.5c0.9-0.1-1.2-0.5-4.8-0.9c-4.8-0.4-8-1.5-12.1-3.9c-5.2-3.1-7-5.2-11.1-12.5
		c-1.8-3.1-2.4-8.7-1.1-10C153.2,570.2,154.6,572.1,155.9,574.9z"/>
	<path id="path196" fill="#556B2F" d="M205.2,572.9c2.2,0,4.9,2.1,4.9,3.9c0,2.9,12.3,6.2,25.6,6.8c12.4,0.6,22.7-1.1,32.3-5.3
		c2.9-1.3,5.7-2.4,6.2-2.4c0.4,0,2,2.1,3.5,4.6l2.7,4.6l-1.7,5.9c-2.4,8.7-11.2,25.9-13.3,25.9c-2.2,0-25.3-12.7-37.4-20.5
		c-10.9-7.1-23.9-18.8-23.9-21.6C204.1,573.7,204.6,572.9,205.2,572.9z"/>
	<path id="path198" fill="#32CD32" d="M382.6,574.9l9,0.4c10.4,0.4,19.9,3.1,26.7,7.6c5.8,3.8,14.1,13.9,20.6,25
		c5.3,8.9,5.3,9,1.3,14l-2,2.5l0.6-4.1c0.4-3.4,0.1-4.6-1.6-6.3c-2.5-2.5-6.1-2.7-10.1-0.6c-8.3,4.3-1.8,16.1,7,12.8
		c3.6-1.4,3.4-0.9-2.9,6.5l-4.5,5.4l-2.2-4.4c-1.2-2.4-3.6-7.9-5.3-12.3c-3.6-9.3-9.5-17.3-17.2-23.2c-9-6.9-14.4-9.3-20.8-9.3
		c-5.7,0.1-12.1,1.1-15.5,2.5c-3.7,1.6-0.1-2.6,8.5-9.6L382.6,574.9z"/>
	<path id="path200" fill="#DC143C" d="M135.3,583.4c-0.3,2.5,0.4,4.9,2.7,8.9l3,5.4l-4.3,2.6c-2.4,1.4-6.4,4.8-9,7.7
		c-5.2,5.8-6.1,5.8-11.9,0.4c-4.2-3.8-7.1-9.7-6.2-12.4c0.3-1,2.7-2.4,5.9-3.4c5.3-1.7,16.1-8.2,18.6-11.2
		C135.8,579.4,135.8,579.4,135.3,583.4z"/>
	<path id="path202" fill="#3CB371" d="M620.4,584.9c0.4,0.5-0.4,4.9-1.8,9.8c-2.4,8.3-3.1,12.2-2.3,12.2c1,0,16.8-5,20.4-6.5
		l4.2-1.7l8.3,5c4.6,2.8,10.5,6.1,13.1,7.3c4.8,2.3,4.9,2.3,6.3,0.5c0.8-1.1,1.4-3.8,1.4-6c0-6.9,0.3-6.9,13-3
		c44.7,14,85,36.4,117.5,65.1c18.4,16.3,36.8,40.1,47.4,61c2.1,4.2,2.1,5.1,2.1,62.8v58.5H640.3H430.5l-2.1-4.6l-2.2-4.7l7.9-9.9
		c9-11.3,10-13,9-14.6c-0.9-1.5-8-2.8-19.8-3.7c-10.6-0.9-9.8-0.3-17.1-12.6c-2.9-4.8-6.7-9.8-8.7-11.3l-3.4-2.7l-2.5,3.8
		c-2.9,4.4-5,9.9-7.6,19.7c-1.1,3.8-2.5,7.5-3.2,8.2s-6.9,3-13.8,5c-15.5,4.6-16.4,5.3-12.5,9.5c1.7,1.7,7.3,6,12.6,9.4
		c5.3,3.5,10,6.8,10.3,7.4c0.5,0.8-7.6,1.1-28.3,1.1c-16,0-29.1-0.2-29.1-0.4c0-0.3,0.4-1.6,1-3c1.8-4.9-3.3-13.6-8-13.6
		c-1,0-2.1-0.4-2.4-0.9c-0.7-1-6.1-19.5-10-34.1c-4.4-16.6-8.2-55.6-6.9-72.5c0.6-7,0.8-7.6,2.7-7.3c1.7,0.2,2.2,1.2,2.8,5.8
		c0.7,6,1.3,48.7,0.7,53.4c-0.3,2.5,0,3.1,2,3.6c2.1,0.5,2.7,1.8,5.2,12c2.9,12.2,9,29.3,9.6,27.3c0.2-0.6-1.9-9.1-4.6-18.7
		c-2.8-9.6-5.1-18.6-5.1-20c0-1.7,1.6-4.2,4.6-7.3c6-6,10.2-14.9,16.5-34.6c4.6-14.3,5.3-15.7,7.4-15.7c1.7,0,3,1.2,5,4.7
		c5.1,8.8,9.6,12.3,15.7,12.3h3.4l9.8,21.8c5.4,11.9,10.6,22.6,11.6,23.6c4.4,4.5,8.5-2.3,8.4-13.9c0-6.4-0.8-10.2-3.7-19
		c-2-6-3.7-11.3-3.7-11.8c0-0.4,4.1,2.6,9.2,6.8c5.1,4.1,10,7.5,11,7.5c4.3,0,4.8-8.2,0.9-17.3l-2-4.7h2.9c1.6,0,13.2,1.6,25.9,3.5
		c12.6,1.9,23.4,3.5,24,3.5s3.8,2.4,7,5.4c7,6.4,11.7,8.1,20.1,7.1c4.6-0.5,6.2-0.3,9.1,1.3c6.5,3.9,11.6,4.6,18.6,2.7l6.3-1.7
		l4.7,3.2c4.6,3.1,5.1,3.2,12.6,2.7c5.9-0.4,7.7-0.2,7.7,0.8c0,2.8,9.3,19.7,16.6,30.1c16.5,23.7,34.3,37.9,57.4,45.7
		c27.9,9.5,59.3,1.5,70.7-18c6.7-11.4,8.4-27.6,4.4-40.5c-2.1-6.5-9.9-19.5-14-23.2c-2-1.8-1.9-1.8,1.6-6.8
		c11.3-15.6,12.4-41.1,2.5-57.7c-11.4-19.3-28.8-30.2-53-33.1c-17-2.1-30.2,0.7-48.1,10.1c-5.2,2.7-9.7,4.6-10.1,4.2
		c-0.3-0.5-1.4-3.9-2.3-7.6c-1.5-5.6-1.6-7.2-0.5-9.1c5.5-9.7,7.1-13.7,6.2-14.6c-0.6-0.6-4-1.3-7.6-1.7c-3.7-0.3-7-0.8-7.5-1.2
		c-0.5-0.3-3-3.4-5.7-6.9c-2.6-3.4-5.4-6.2-6.1-6.2c-0.8,0-3.2,3.5-5.2,7.7c-3.5,7.3-4.1,7.9-8,9c-2.4,0.7-6.2,1.9-8.5,2.5
		c-6.7,2-6.3,4.5,1.4,10.1c8.8,6.4,10,7.6,9.4,9.4c-0.3,0.8-0.9,5.3-1.2,9.9c-0.8,10.4-0.1,10.7,8.9,3.4c3.4-2.8,6.9-5,7.7-5
		c0.9,0,4.6,1,8.3,2.2l6.6,2.3l-3.5,3.7c-2.7,2.9-4.3,3.8-6.9,3.8c-5.2,0-7.9,4-7.2,10.7c0.3,2.9,0.4,5.3,0.2,5.3s-3.4-3.2-7.2-7.1
		c-10-10.5-29.8-26.7-43.4-35.6c-6.5-4.3-11.8-8-11.8-8.3s3.2-2,7-3.8c10.7-5.2,21.4-13.8,29.7-24.1c4.1-5,7.7-9.3,8.2-9.6
		c0.4-0.2,7.5-1.2,15.6-2c16.3-1.7,35.4-5.2,35.4-6.6c0-1.2,0.3-1.2-12.6,1c-12.9,2.2-34.3,4.5-35.1,3.7c-0.4-0.4,7.7-15,12.5-22.4
		c0.5-0.7,3.7-1.9,7.3-2.6C564.4,580.8,617.1,581.9,620.4,584.9z M625.3,616.1l-4.3,3.1l-4.9-2.6c-2.7-1.5-5.3-2.7-5.7-2.7
		c-0.5,0-0.8,2.4-0.6,5.2c0.3,6,0.2,6.2-5.5,10.7c-2.4,1.8-4.3,3.6-4.3,4.1c0,0.4,2.1,1.3,4.8,2c7.7,1.9,9.1,2.8,10.9,6.7
		c2.7,5.7,4.7,5.4,8.4-1.1c2.7-4.9,3.5-5.6,6.2-5.7c1.8-0.1,4.3-0.4,5.6-0.8c2.4-0.6,2.4-0.7-1.8-5.5c-3.2-3.6-4.1-5.4-3.6-7
		c0.3-1.2,0.9-3.8,1.2-5.9C632.4,611.9,631.1,611.8,625.3,616.1z M344,761.3c-5.4-5.3-6.5-4.8-7.5,3.8c-0.4,3.1-0.9,6-1.3,6.6
		c-0.3,0.6-3.2,2.1-6.3,3.5c-3.2,1.4-5.8,3.1-5.8,3.7c0,0.5,2.9,2.5,6.5,4.2c3.6,1.8,6.7,3.9,6.9,4.8c0.2,0.8,1,4.4,1.7,7.8
		c0.6,3.5,1.8,6.6,2.4,6.8c0.7,0.3,3.4-1.8,6.1-4.6l4.9-5.1l4.5,1c4.8,1.1,11,1.4,11,0.6c0-0.3-1.1-3.2-2.5-6.5
		c-2.6-6.2-3.1-11.8-1.5-18.5c1.4-6-0.3-7.3-6.9-5.1c-2.7,0.9-5.6,1.6-6.3,1.6C349.2,765.9,346.6,763.9,344,761.3z M471,785.9
		c-1.6,0-2,1.9-2,10v8.7l-6,4.8c-3.4,2.6-5.9,5.2-5.7,5.9c0.2,0.6,2.8,1.7,5.8,2.4c11.7,2.7,11.1,2.3,15.9,10.2
		c2.5,4.1,5.2,7.5,6,7.5s2.7-2.4,4.1-5.3c3.3-6.9,4.3-7.7,11-9.1c3.1-0.6,6.5-1.8,7.5-2.5c1.8-1.3,1.6-1.7-3.5-7l-5.3-5.7l0.7-5.2
		c0.3-2.9,0.8-6.4,1.1-8c0.8-3.9-1.8-4.5-8-1.8c-7.9,3.5-7.9,3.5-14.6-0.8C474.5,787.7,471.4,785.9,471,785.9z M445.5,830.4
		c-5.9,5.8-1.2,16.5,7.3,16.5c2.3,0,4.5-0.6,5.2-1.5c1.4-1.7,0.3-1.9-3.3-0.6c-5.4,2.1-11.9-4.7-9.8-10.2c1.5-3.9,3.7-5,8.7-4.3
		c4.1,0.5,4.5,0.4,3.4-0.9C455,826.9,448.3,827.5,445.5,830.4z"/>
	<path id="path204" fill="#00FFFF" d="M628.5,620.5l-1.4,4.6l3.5,3.8c3.7,4.1,3.3,5-2.7,5c-2.6,0-3.3,0.7-5.6,5.5l-2.7,5.5l-1.9-3.5
		c-2.1-4.1-7-7.5-10.9-7.5c-1.6,0-2.8-0.5-2.8-1c0-0.6,0.4-1,0.8-1s2.4-1.5,4.4-3.3c3.4-3.1,3.6-3.6,3.1-7.7l-0.6-4.4l4.6,2.8
		c5,2.9,6.5,2.7,10.1-1.3C629.4,614.7,630,615.5,628.5,620.5z"/>
	<path id="path206" fill="#FF0000" d="M339.9,760.9c0.4,0,2.5,1.9,4.8,4.1l4.2,4.1l6.2-2.1l6.3-2.1l-0.7,3.8
		c-2,11.2-1.9,12.7,0.9,18.1c1.4,2.9,2.5,5.5,2.3,5.6c-0.2,0.2-2.1,0-4.3-0.5c-7.8-1.8-9.7-1.4-13.7,3.2c-2,2.4-3.9,4-4.2,3.7
		c-0.3-0.3-1.2-3.4-1.9-7l-1.2-6.4l-5.8-3c-3.1-1.7-5.7-3.2-5.7-3.6c0-0.3,2.2-1.3,4.9-2.3c5.5-2,5.6-2.1,6.6-9.9
		C339,763.4,339.6,760.9,339.9,760.9z"/>
	<path id="path208" fill="#FF0000" d="M471.8,788.9c0.5,0,3.4,1.8,6.5,4c3,2.2,6.2,4,7,4s4-1.4,7.1-3c3.1-1.7,5.6-2.7,5.6-2.3
		c-0.1,0.5-0.5,3.9-1,7.8l-0.9,7l5.1,5.2l5.1,5.1l-3.9,1.1c-2.2,0.6-4.8,1.1-5.9,1.1c-3.4,0-6.2,2.7-8.9,8.5c-1.4,3-2.7,5.5-3,5.5
		s-1.9-2.6-3.5-5.8c-3.3-6.6-5.4-8.7-9.6-9.6c-9.9-2.3-10.7-2.7-9.4-4.2c0.7-0.9,3.3-2.9,5.7-4.6l4.5-3.1l-0.7-8.3
		C471.2,792.5,471.3,788.9,471.8,788.9z"/>
	<path id="path210" fill="#FFE4C4" d="M404.1,604.6c4.7,4.2,11,13.3,11,15.8c0,0.6-3.2,2.8-7,4.9l-7,3.8l-2.1-2.4l-2-2.3l0.4,2.5
		c0.3,1.4,1.2,5.2,2.1,8.5c4.1,15.1-0.3,50.5-9.9,78.4c-1.4,4.1-2.5,8.1-2.5,8.9c0,0.8,2.2,3.8,4.9,6.7c2.7,2.8,5.8,7,7,9.4
		c2,3.7,4.4,13.1,3.6,13.9c-0.6,0.6-25-22-26.3-24.3c-0.9-1.9-1-5-0.2-13.5c0.9-11.2,0.6-14.4-1.4-13.7c-1.2,0.4-1.9,4.8-3,18.8
		c-0.6,8.2-0.6,8.7,2,12.5c1.5,2.1,3.3,5.9,4.1,8.4c9,29.3,10.2,36.4,7.2,42.3l-1.5,2.7l-4.1-9.7c-2.3-5.4-6.5-15-9.2-21.3
		c-3.4-7.9-6.4-17.5-9.7-30.8c-4.1-17.2-7.1-24.9-8.8-23.2c-0.3,0.3,0.1,3,0.8,6s2.4,10.2,3.6,16c1.2,5.7,2.5,11,2.7,11.7
		c0.3,0.7-0.7,1.8-2.1,2.4c-2.4,1.1-3,0.9-6.2-2.2c-4.2-4-8-11.7-12.3-25c-3.2-9.7-5.4-13.9-6.6-12.8c-0.3,0.4,0.1,3.4,0.9,6.7
		c2.4,9.1,2.3,10-2.2,19.2c-2.3,4.7-5.8,13.9-7.7,20.5c-4.6,15.3-8.3,23.2-13.6,29c-7.2,7.8-8,7.6-4.8-1.3
		c1.5-4.3,3.7-12.3,4.9-17.7c5.3-24.9,10.9-43,25-81c4.3-11.6,10.1-28,13-36.5c6-17.7,6.9-19.6,11.1-24.5c3.9-4.4,19.9-17.2,23-18.3
		C385,591.6,395.6,597,404.1,604.6z"/>
	<path id="path212" fill="#7CFC00" d="M220.1,599c0.3,0,4.3,2.2,9,4.9l8.5,4.9l-3,1.1c-1.8,0.7-6.2,1-10.6,0.8
		c-6-0.4-8.6-1-12.3-3.2c-5-2.9-5.9-4.6-2.3-4.6c1.2,0,4-0.9,6.2-1.9C217.8,599.9,219.8,599,220.1,599z"/>
	<path id="path214" fill="#00BFFF" d="M197.6,617.1c11.8,11,19.6,28.4,19.7,43.9c0,8.3-0.8,10.7-5.8,15.9c-8,8.4-10.3,22.1-5,30
		c3.1,4.7,7.3,7.6,13.5,9.2c3.8,1,4.6,1.7,6.4,5.6c1.6,3.8,1.9,6,1.4,12.6c-1.6,25-18.6,41.6-42.6,41.6c-12,0-19.8-2.6-29.4-9.9
		c-9.6-7.1-19.5-23.5-21.8-35.6c-1.6-9-1.8-9.2-3.7-5.4c-2.3,4.6-6.1,6.2-15.9,6.7c-15.1,0.8-26.4-4.5-39.8-18.9
		c-11.3-12.1-17.5-28.2-17.7-45.4c0-7,0.4-10.3,2.1-14.7c4.8-12.5,12.2-19.7,24.7-23.8c8.9-3,21.5-2.5,28.8,1.1
		c5.4,2.6,6.1,3.4,7.6,9.4c1,4.3,3.5,8.4,4.4,7.4c0.3-0.3-0.1-3.8-1-7.9c-1.2-5.8-1.3-8.4-0.4-12.4c2.5-11.7,11.7-21.1,24.5-25.2
		C161.2,597,183.7,604.1,197.6,617.1z M148.4,632.6c-3.4,5.6-3,10.9,1.4,21.2c5.8,13.4,4.8,20.2-3.3,21.7c-6.4,1.2-9.5-0.2-20.4-9.7
		c-12.5-10.8-17.2-13.2-25.5-13.3c-10.9,0-16.5,4.8-18.5,15.7c-2.8,15.1,6.5,31.7,20.2,36.3c3.6,1.2,7.1,1.5,11.9,1.2
		c7.7-0.6,12.7-3.2,18.9-9.9c6.7-7.1,15.5-6.1,20.3,2.3c2.1,3.6,2.6,6,3,14.8c0.6,12.3,2.5,18.9,7.6,25.6c5.3,7,10.9,10.6,17.4,11.2
		c13.1,1.1,21.3-9.8,18.5-24.8c-1.6-8.8-5.2-14.8-13.9-23.1c-7.3-7-7.9-7.8-7.9-11.6c0-3.1,0.9-5.3,3.5-8.9c1.9-2.7,4.4-6.2,5.5-7.9
		c4.5-6.8,5.1-22.4,1.2-30.1c-3-5.9-9.9-12.3-16.7-15.5C161.1,622.7,153.4,624.3,148.4,632.6z"/>
	<path id="path216" fill="none" d="M169.8,631.9c10,5,10,4.8-3.2,13.4c-6.4,4.2-12.1,7.3-12.7,7c-1.7-1.1-3.8-7.1-3.8-10.9
		c0-4.7,2.3-9.1,5.8-10.9C160,628.2,163.1,628.6,169.8,631.9z"/>
	<path id="path218" fill="#3CB371" d="M181.2,643c2-0.3,5.9,10.6,5.9,16.5c0,5.2-2.8,11.6-7,15.9c-4.6,4.8-6,8-6,14.3
		c0,6,3,11.1,9.5,16c2.6,2,5.7,4.9,6.8,6.4c2,2.6,2,2.8,0.2,7.5c-4.3,11.3-11.5,25.3-13,25.3c-2.8,0-10.1-7.8-13.5-14.4
		c-2.9-5.8-3.3-7.6-3.9-18.3c-0.6-10.5-1-12.3-3.4-16.1c-3.5-5.4-8-8.2-13.4-8.2c-5.8,0-8.4,1.2-15.6,7c-3.4,2.8-7.8,5.5-9.9,6.2
		c-3.3,1-10.8,0.4-10.8-0.8c0-1.5,6.4-8.2,12.9-13.7c11.7-9.8,11.7-9.8,16.4-8.1c5.3,1.9,9.4,1.7,14.4-0.6c6.2-2.8,8.5-7,7.7-14.2
		c-0.7-6.5-1.4-5.6,13.6-15.2C176.8,645.5,180.9,643,181.2,643z"/>
	<path id="path220" fill="none" d="M108,657.5c4.1,1.2,6.8,3,12.4,8.5c6.4,6.2,7,7,5.5,8.2c-0.9,0.7-7.1,6.2-13.8,12.2
		c-6.7,6.1-12.6,11.2-13.1,11.4c-1.9,0.6-8.7-7.8-10.8-13.4c-4.8-12.9-1.5-24.8,7.9-27.8C98.9,655.6,102.8,655.9,108,657.5z"/>
	<path id="path222" fill="#2E8B57" d="M194.1,721.9c2.9,0,2.4,14.7-0.7,18.9c-2.3,2.9-8.9,5.9-10.2,4.5c-0.5-0.5,1.6-6,4.6-12.2
		C190.7,727,193.6,721.9,194.1,721.9z"/>
	<path id="path224" fill="#FF4500" d="M431.9,613.9c1.7,0,4.1,3.7,4.1,6.5c0,1.7-2.7,4.5-4.5,4.5c-3.9,0-5.9-6.4-2.9-9.4
		C429.4,614.6,430.9,613.9,431.9,613.9z"/>
	<path id="path226" fill="#3CB371" d="M252.1,624.8c0,1,1.1,3.8,2.3,6.4l2.4,4.6l-4.6,3c-5.5,3.6-18.3,16.3-24.7,24.6
		c-2.5,3.3-4.9,6.3-5.2,6.7c-0.4,0.4-0.5-2.9-0.4-7.2c0.5-8.9-1.6-20-5.4-29.4c-1.3-3.3-2.3-6-2.1-6.2c0.9-0.9,18.3-5.6,23.2-6.3
		C250.3,619.2,252.1,619.6,252.1,624.8z"/>
	<path id="path228" fill="#FF00FF" d="M544.9,627.9c0.3,0.1,2.7,3.2,5.3,6.9c4.9,7.2,6.5,8.1,15.6,8.1c4.1,0,4,1-0.7,8.8l-3.8,6.2
		l1.9,8.1c1.1,4.5,1.8,8.3,1.6,8.5s-4-0.8-8.3-2.1c-4.4-1.4-8.3-2.5-8.8-2.5c-0.4,0-2.6,1.7-5,3.9c-2.3,2.1-5.3,4.4-6.6,5
		c-2.3,1.3-2.3,1.2-1.8-2.6c0.3-2.1,0.9-6.4,1.2-9.5l0.6-5.7l-8-5.8c-4.4-3.2-8.1-6.1-8.1-6.4c0-0.3,3.6-1.4,7.9-2.3
		c4.4-1,8.5-2.5,9.3-3.4s2.7-4.7,4.2-8.5C543,630.9,544.5,627.9,544.9,627.9z"/>
	<path id="path230" fill="#3CB371" d="M417.2,630c1.1-0.2,3.6,2.7,4.3,5c0.4,1.2,1.6,3.7,2.7,5.6l2.1,3.4l2.8-2.7
		c3.1-2.9,3-3,10.5,3.2c10.8,8.7,20.1,11.2,33.4,9c5.9-1,9.1,0.3,23.3,9.8c13,8.7,28.9,21.3,40.1,31.9c8.9,8.4,8.9,8.5,4.7,19.8
		l-2.1,5.6l-3.9-1c-2.9-0.8-5.3-0.7-9.3,0.2c-5.3,1.3-5.6,1.3-9.7-1.4c-5-3.3-12.2-4.3-18.6-2.5c-3.9,1.1-4.8,1-6.3-0.2
		c-7.2-6.3-21.4-6.7-27.7-0.8c-2,1.9-2.4,1.9-21-0.9c-10.5-1.6-24.8-3.7-31.8-4.6c-7.6-1.1-13.1-2.3-13.3-3c-0.3-0.7,0.6-5.3,2-10.2
		c4.1-14.5,5.8-26.8,6-41.5c0-7.6,0.4-13.8,0.8-13.8c0.3,0,3.8,3.4,7.7,7.6c8.2,8.9,17.1,22,26.6,38.9
		c11.1,19.9,14.1,22.5,13.3,11.6c-0.6-6.6-5.2-18.9-10.5-28c-4.1-7-22.6-27.1-23.8-25.9c-0.4,0.4,3.2,5,8.1,10.1
		c9.2,9.7,15,18.3,20.2,30.3c2.9,6.6,5.6,17.4,4.3,17.4c-0.3,0-3.9-6.2-8-13.8c-13.1-24.2-23-37.9-35.3-49.1c-2.7-2.4-4.8-5-4.8-5.7
		c0-1.2,4.4-2.9,10-3.8C415.4,630.3,416.8,630.1,417.2,630z M496.1,697.3c1.8,6.5,10.7,8.8,15.4,4.1c3.6-3.5,3.4-8.8-0.4-12.6
		C504.1,681.8,493.5,687.9,496.1,697.3z"/>
	<path id="path232" fill="#00FFFF" d="M504.3,687.9c8.6,0.1,11.3,10.7,3.4,13.4c-7.6,2.7-13.7-6.2-8.1-11.9
		C500.5,688.6,502.6,687.9,504.3,687.9z"/>
	<path id="path234" fill="#2E8B57" d="M272.3,639.9c4,1,10.5,2.4,14.3,3.1c9,1.5,9.7,1.9,14,8.4l3.6,5.4l-4,8.3
		c-2.1,4.6-4.7,10.9-5.7,14c-1,3.2-2.1,5.8-2.5,5.8c-0.3,0-2.6-0.7-4.9-1.5c-5.2-1.9-10.3-1.8-15.5,0c-3.9,1.4-4.1,1.4-7-1.4
		c-1.6-1.6-4-3.4-5.2-4c-3.1-1.6-10.6-1.4-15.2,0.5c-3.9,1.5-4,1.5-8-1.4c-2.3-1.6-5.7-3.3-7.6-3.6c-3.3-0.6-3.4-0.9-2.3-2.9
		c1.6-3,24.4-26.3,29.2-29.8C260.1,637.4,262.6,637.2,272.3,639.9z M271.2,644.9c-0.6,0-1.6,2-2.4,4.5c-1.2,4.2-1.8,4.8-7.2,7.3
		l-5.9,2.8l4.6,3.2c4.2,2.9,4.7,3.6,5.3,8.2c0.7,5.3,1.4,6,3.6,3.4c2.6-3.1,6.8-4.6,10.1-3.5c4.3,1.5,5.1,0.6,4.5-5.3
		c-0.5-4.3-0.2-5.7,1.8-9.1c1.4-2.2,2.5-4.3,2.5-4.8c0-0.4-2-0.7-4.5-0.7c-3.5,0-5.1-0.6-7.8-3C273.9,646.2,271.8,644.9,271.2,644.9
		z"/>
	<path id="path236" fill="#FFD700" d="M271.6,648.9c0.2,0,2.5,1.1,5.1,2.5s5.3,2.5,6.1,2.5c1.1,0,1.1,0.5-0.2,3
		c-0.8,1.6-1.5,4.7-1.5,6.9c0,3.8-0.1,3.9-3.3,3.8c-2,0-4.6,0.8-6.5,2.2l-3.2,2.2v-3.2c0-2.3-0.9-4-3.4-6.4l-3.5-3.2l3.9-1.2
		c3.4-1,4.1-1.7,5-5.1C270.7,650.7,271.4,648.9,271.6,648.9z"/>
	<path id="path238" fill="#3CB371" d="M331.9,661.4c0.6,0.5-9.2,30.9-10.8,33.4c-1.1,2-18-0.7-18-2.8c0-8.1,5.8-31.5,8.2-33.1
		C312.2,658.2,331,660.5,331.9,661.4z"/>
	<path id="path240" fill="#2E8B57" d="M304.7,664.2c0.2,0.2-0.3,3.5-1.1,7.3c-0.8,3.8-1.7,10-2.1,13.7c-0.7,6.9-2.3,9.2-4.6,6.9
		c-1.7-1.7,0.7-13.4,4.4-21.5C303,666.9,304.6,664,304.7,664.2z"/>
	<path id="path242" fill="#00BFFF" d="M633,665.5c3.6,0.8,10.6,3.5,15.7,5.9c14.7,7.1,25,18.1,30.3,32c5.9,15.7-0.1,40.5-12.3,51.2
		c-2,1.8-3.7,3.4-3.7,3.7s1.5,0.2,3.3,0c2.7-0.5,3.7,0,6.4,2.8c12.5,13,17.1,37.4,9.9,52.2c-4.6,9.3-13.9,16.5-27.6,21.2
		c-7.7,2.6-28.2,2.7-36,0.1c-9.6-3.2-24-10.8-32.1-16.9c-24.3-18.3-44.6-51-46.5-75c-0.5-6.7-0.2-8.4,3.9-21.4
		c5.7-18,5.9-18.2,10.7-19c5.3-0.9,8.4-4.3,7.7-8.6c-0.3-1.8-0.7-4.2-1.1-5.3c-1.5-5.2,22-19.1,38.1-22.5
		C610.5,663.6,624.4,663.4,633,665.5z M584.9,699c-10.3,7-17.2,17.4-20.4,31c-2.7,11.5-2.2,15,4.3,29c7,14.9,10.1,19.7,18.6,28.2
		c18.1,18.1,37.3,27,54.1,25.2c15.7-1.6,24.8-15,20.1-29.3c-2.4-7.1-6.8-11.6-17-17c-10.4-5.5-12.5-8.2-11-13.9
		c0.8-3.3,2.1-4.6,9.9-9.9c11.2-7.7,14.5-12.9,14.5-23c0-14.6-11.4-26.1-29.9-30C613.5,686.2,598.9,689.5,584.9,699z"/>
	<path id="path244" fill="#2E8B57" d="M638.7,698.6c8.7,4,13.8,9.9,14.9,16.9c1.5,10-2.6,17.5-12.6,23.4
		c-10.9,6.4-13.8,12.1-10.2,20.2c2.1,4.9,3.2,5.9,13.2,11.7c7.9,4.7,12.6,10.4,13.6,16.6c2.1,14-7.3,21.6-25,20.2
		c-13-1-23.9-6.7-38-19.8c-13.3-12.4-22.4-27.1-26-42c-1.4-6.2-1.3-13.4,0.4-14.4c1.4-0.9,34.8,45.6,41.9,58.2
		c1.4,2.7,2.5,0.8,1-1.9c-3.2-6.1-32.1-49-36.7-54.5c-2.9-3.4-5.2-6.7-5.2-7.3s1.3-3.7,2.9-6.9c5.5-10.8,21.6-22.5,34.3-25
		C618,691.8,627.4,693.2,638.7,698.6z"/>
	<path id="path246" fill="#6495ED" d="M232.8,680.4c2.3,1.4,4.3,2.9,4.3,3.2c0,0.4-1.2,2.5-2.7,4.7c-2.5,3.6-2.8,4.8-2.8,12.9
		c0,8.4-0.1,8.9-2.5,10.2c-4.3,2.3-12.7-0.3-18.7-5.8c-4.1-3.8-4.3-4.2-4.3-9.9c0-7.2,2.7-13,7.3-15.8
		C218.2,676.9,227.2,677.2,232.8,680.4z"/>
	<path id="path248" fill="#6495ED" d="M255.1,682c4.7,1.1,9,4.3,9,6.7c0,0.8-0.8,2.9-1.9,4.6c-1,1.7-2.2,4.1-2.6,5.3
		c-1.2,4.1,0.9,2.3,4.3-3.6c3.9-6.8,7.8-9.1,15.3-9.1c5.8,0,9.9,1.8,12.3,5.5c2.3,3.6,6.2,5,17.9,6.5c5.4,0.8,9.7,1.8,9.7,2.4
		c0,0.6-1.1,4.5-2.4,8.6c-1.7,5.4-2.9,7.6-4.2,7.8c-1.1,0.1-6.2-0.4-11.4-1.1c-9.4-1.4-9.4-1.4-11.2,0.8c-2.5,3.2-10.3,5-15.4,3.6
		c-5.5-1.5-9.9-4.4-12-8c-2.2-3.7-3.9-4.1-3-0.6c0.8,3.2-1.6,4.5-8.6,4.5c-5.9,0-11.9-2.8-15-7c-6-8.2-1.2-23,8.7-26.5
		C249.4,680.7,249.5,680.7,255.1,682z M288,699.6c-1.8,2.1-1.8,9.8-0.1,11.5c1.1,1.1,1.3,0.5,0.7-3.2c-0.4-2.5-0.2-5.7,0.4-7.3
		C290.2,697.5,289.9,697.2,288,699.6z"/>
	<path id="path250" fill="#00FFFF" d="M559,689.4c1.7,2,1.6,6.4-0.1,8c-2.9,2.7-5.7,2.7-8.4,0.1c-2.9-2.9-3.2-5.8-0.9-8
		C551.6,687.5,557.4,687.4,559,689.4z"/>
	<path id="path252" fill="#6495ED" d="M410.4,712.9c13.4,2.1,47.4,7,48.9,7c0.4,0,0.1,1.5-0.8,3.2c-1.1,2-1.7,5.6-1.7,9.2v5.8
		l-4.1-0.6c-51.3-7.2-55.4-8-59.2-11.7c-3.2-3.1-3.2-3.1-1.7-6.8c0.9-2,1.9-4.6,2.4-5.9C395.2,710.4,395.1,710.4,410.4,712.9z"/>
	<path id="path254" fill="#3CB371" d="M240.7,717.4c4.8,3.3,9.5,4,15.8,2.5c4.9-1.1,5.3-1.1,11.1,2c5.5,2.9,6.5,3.1,12,2.5
		c3.3-0.3,6.9-0.9,8.1-1.1c2-0.5,2.1-0.1,2.7,17.3c1.2,31.6,4.8,53.3,12.8,77.6l4.9,14.8l-3,3c-3.1,3.1-4.6,8.3-3.5,11.8l0.6,2.1
		h-40h-40.1l3.4-6.8c5.1-10.2,5.7-10.7,19-14.6c6.5-1.9,12.3-3.9,12.9-4.5c1.3-1.3-3-6.7-10.9-13.6c-5-4.4-6.3-6.1-5.9-7.8
		c0.2-1.2,1.6-7.4,3-13.8c3-13.8,2.9-12.9,0.9-12.9c-1.6,0-20.2,9-23.9,11.6c-2.9,2.1-4.2,1.8-14.9-3c-9.1-4.1-9.7-4.5-7-5.2
		c3.7-0.8,12.8-5.8,17.6-9.7c4.7-3.8,11.1-12.9,13.9-19.8c3-7.5,3.8-21.9,1.5-28.5c-0.9-2.6-1.6-5.1-1.6-5.6
		C230.1,713.9,237.2,715,240.7,717.4z"/>
	<path id="path256" fill="#6495ED" d="M475.8,715c2.3-0.2,9.6,2,11.6,3.4c1.8,1.4,1.8,1.6-0.9,7.6c-2.4,5.5-2.7,7.1-2.3,13.6
		c0.5,7.3,0.5,7.5-2.1,8.5c-3.9,1.5-10.7,0.4-15.1-2.6c-12-8-9.8-26.3,3.5-29.5C472.7,715.5,475.1,715.1,475.8,715z"/>
	<path id="path258" fill="#2E8B57" d="M302.1,718.8l4.8,0.7c2.6,0.3,4.9,0.8,5.1,1c0.6,0.6-6.9,34.7-7.9,35.7c-1,1.1-2-12.1-2-26
		V718.8z"/>
	<path id="path260" fill="#6495ED" d="M510.6,720.5c5.7,2.7,6.1,3.8,2.8,9.7c-2.5,4.5-2.9,6.3-2.9,13.2v8l-4.3,1.4
		c-3.8,1.2-4.8,1.1-9-0.5c-9.1-3.4-12.5-9.9-10.3-19.8c1.5-6.8,3.4-9.4,8.5-11.7C500.5,718.5,506.1,718.4,510.6,720.5z"/>
	<path id="path262" fill="#6495ED" d="M534.4,723.9c2.6,0.9,2.6,1,2,9.7c-0.4,5.3-0.2,11,0.5,14.4c0.6,3,0.9,6.3,0.6,7.1
		c-1.4,3.5-12.1,2.9-17.4-0.9c-3.6-2.6-7.1-9.9-7.1-14.6c0-6.6,5.7-13.6,12.8-15.7C529.6,722.8,531.5,722.7,534.4,723.9z"/>
	<path id="path264" fill="#3CB371" d="M81.8,727.9c0.3,0,2.9,1.3,5.7,2.9s7.6,3.7,10.6,4.7c6.9,2.2,19.7,2.2,25.9,0
		c2.4-0.9,4.6-1.4,4.9-1.1c0.3,0.3,1.8,3.6,3.2,7.4c5.8,14.9,16.4,27,28.7,33.1c3.5,1.7,6.3,3.5,6.3,3.9c0,0.5-0.7,2.8-1.5,5.2
		c-0.9,2.4-3.9,12.5-6.6,22.4c-2.8,9.9-5.3,18.7-5.6,19.5c-0.4,0.8-1.1-1.3-1.7-4.7c-0.6-3.4-1.4-6.5-1.8-6.9
		c-0.4-0.3-4.2,1.4-8.5,4c-8.6,5.1-9.4,5.2-18.8,3.1c-10-2.3-10.2-1.8-4.9,10.9l3.6,8.6l-2.6,4.5l-2.7,4.5H58.1h-58v-10.5
		c0-9.2,0.2-10.4,1.6-9.8c2.5,0.9,3.4-1.6,3.4-9.4v-7.1l6.5-3.7c3.6-2,6.5-3.9,6.5-4.2s-0.6-1.1-1.4-1.7c-1.2-0.9,0.5-3.3,9.6-13.6
		c6.1-6.9,20.9-23.6,33-37.3C71.3,739,81.4,727.9,81.8,727.9z M97.6,753.9c-0.7,0-3.1,2.4-5.3,5.4c-3.6,4.8-4.5,5.4-8.8,6
		c-2.6,0.3-5.9,0.6-7.5,0.6c-4.7,0-4.3,2,1.4,7.1l5.6,4.9l-0.6,9c-0.7,10.1-0.2,10.7,5.3,6.5c4.2-3.2,5.3-3.1,11,0.5
		c2.6,1.6,5.1,2.7,5.7,2.3c0.5-0.3,0.7-3.2,0.4-6.8c-0.2-3.5-0.2-6.7,0.2-7.2c0.3-0.5,2.8-2.1,5.4-3.7c2.7-1.5,4.7-3.2,4.5-3.8
		c-0.2-0.5-3-2.4-6.2-4.1c-5.8-3.1-6-3.3-7.9-10C99.7,756.9,98.2,753.9,97.6,753.9z"/>
	<path id="path266" fill="#FFD700" d="M97,757.9c0.5,0,1.4,2.3,2.1,5c1.2,5.2,4.7,8.9,9.8,10.5c3.2,0.9,2.7,2-2,4.7l-4.3,2.4
		l0.2,6.6l0.2,6.7l-3.2-2c-1.8-1.1-4.1-2.6-5.3-3.4c-1.8-1.4-2.3-1.2-5.5,1.5c-1.8,1.6-3.8,2.9-4.2,3c-0.4,0-0.5-3.7-0.2-8.3
		l0.6-8.2l-4.6-3.5c-2.5-1.9-4.5-3.8-4.5-4.2c0-0.5,2.8-0.8,6.1-0.8c5.9,0,6.3-0.1,10-4.2c2.2-2.4,3.9-4.6,3.9-5
		C96.1,758.2,96.5,757.9,97,757.9z"/>
	<path id="path268" fill="#2E8B57" d="M173.9,779.6c2,0.4,7.6,0.8,12.4,0.8c7.3,0,8.5,0.2,7.8,1.5c-0.4,0.8-0.3,6.6,0.3,12.7l1,11.3
		l-5.9,6.2c-6.4,6.7-10.4,12-10.4,13.6c0,0.6,5.4,2,12,3.2c13.5,2.6,12.6,1.9,19.3,14.2l3.7,6.8h-25.8c-26.4-0.1-26.4-0.1-20.6-3.5
		c1.5-0.9,0.8-1.8-5-6.3c-6-4.7-6.6-5.6-6.6-8.8c0-7.3,9.4-43.5,13.2-50.7C170,779.1,170.9,779,173.9,779.6z"/>
	<path id="path270" fill="#FFD700" d="M243.1,779.6c-0.1,2.4-3,16.3-4,19.1c-1.6,4.4-0.7,7.4,3.7,11.4c2,1.8,5.9,5.4,8.6,7.9l5,4.5
		l-6,2.2c-3.3,1.2-8.4,2.6-11.4,3.2c-7.5,1.4-9.8,3.4-14.7,13.4c-2.4,4.7-5,8.6-5.7,8.6c-1.4,0-5.3-5.5-8.3-12
		c-3.6-7.7-4.2-8.1-16.2-10.5c-6.1-1.2-11.3-2.5-11.7-2.8c-0.3-0.4,2.1-3.6,5.3-7.2c10.6-11.9,9.9-9.9,8.6-22.2
		c-0.6-6-0.7-11.2-0.2-11.7c0.4-0.4,4.8,1,9.8,3.3c4.9,2.2,9.8,4.1,10.9,4.1c1.1,0,6.9-2.7,12.9-5.9
		C240.2,779.2,243.1,778.1,243.1,779.6z"/>
	<path id="path272" fill="#FF4500" d="M394.6,789.9c2.1,0,8,7.5,12.1,15.3c2,4,3.9,7.4,4.1,7.6c0.2,0.3,6.6,1.2,14.3,2.2
		s14.4,2,15,2.4c1.3,0.8-3.6,7.8-11.3,16.1l-5.8,6.3l2.5,4.4c1.4,2.4,2.6,4.7,2.6,5c0,0.4-10.8,0.7-24,0.7c-20.8,0-24-0.2-24-1.5
		c0-0.9-5.1-4.9-11.4-9c-11.5-7.6-14.3-10-12.9-10.8c0.9-0.5,20.5-6.2,24.4-7.1c3-0.7,3.7-2.1,7.3-14.6c1.3-4.7,3.2-10.4,4.1-12.8
		C392.5,791.8,393.9,789.9,394.6,789.9z"/>
	<path id="path274" fill="#FF00FF" d="M0,799l6.3,2.5c3.5,1.4,6.7,2.9,7.1,3.4c0.5,0.4-1.5,2.1-4.5,3.6l-5.3,2.9l-0.3,7.8
		c-0.2,5.6-0.6,7.7-1.5,7.4c-0.8-0.2-1.3-4.4-1.5-14L0,799z"/>
	<path id="path276" fill="#FF00FF" d="M148.2,816.9c0.9,0,1.9,5.3,1.9,10.1c0,5.9,1.7,8.4,8.6,12.9c3.5,2.3,6.4,4.5,6.4,5
		c0,0.4-1.6,1.7-3.6,2.9c-3.2,1.9-5,2.1-23,2.1c-10.7,0-19.4-0.3-19.4-0.7s1.2-2,2.7-3.5l2.7-2.8l-4.1-10c-2.2-5.5-3.5-10-2.9-10
		s4.5,0.7,8.8,1.7l7.7,1.6l6.7-4.6C144.5,819,147.8,816.9,148.2,816.9z"/>
	<path id="path278" fill="#FF0000" d="M311.6,835.9c5.8,0,9.7,7.7,6.2,12.4c-1,1.4-2.5,1.7-7.2,1.4c-5.8-0.3-6-0.4-6.3-3.2
		c-0.5-3.7,0.4-7.1,2.4-9C307.5,836.6,309.8,835.9,311.6,835.9z"/>
</g>
</svg>
