<?xml version="1.0" encoding="utf-8"?>
<!-- Generator: Adobe Illustrator 21.0.0, SVG Export Plug-In . SVG Version: 6.00 Build 0)  -->
<svg version="1.1" baseProfile="tiny" id="图层_1"
	 xmlns="http://www.w3.org/2000/svg" xmlns:xlink="http://www.w3.org/1999/xlink" x="0px" y="0px" viewBox="0 0 850 850"
	 xml:space="preserve">
<g transform="translate(0.000000,0.000000) scale(1.00000,1.00000)">
	<path d="M1,0c0.6,0,1,0.4,1,1c0,0.5-0.4,1-1,1C0.5,2,0,1.5,0,1C0,0.4,0.5,0,1,0z"/>
	<path d="M849,0c0.6,0,1,0.4,1,1c0,0.5-0.4,1-1,1c-0.5,0-1-0.5-1-1C848,0.4,848.5,0,849,0z"/>
	<path d="M220.1,36.6c5,7.9,9.7,14.4,10.4,14.4c2.3,0,6.7,4.3,8.5,8.4c1,2.3,5,8.3,8.9,13.5c3.9,5.2,7.1,9.8,7.1,10.3
		c0,1.6-1.4,0.8-5.2-2.9l-3.7-3.6l-1.1,2.8c-0.8,2.1-0.8,3,0.2,3.6c0.9,0.6,0.8,1.2-0.5,2.7c-0.9,1-1.7,2.6-1.7,3.5
		s-0.7,1.7-1.5,1.7c-1.7,0-2,1.6-0.5,2.5c1.6,1,1.2,2.8-0.5,2.1c-1-0.3-1.8,0.1-2.2,1.2c-0.4,0.9-0.9,1.9-1.2,2.2
		c-0.3,0.3-2.3,3.1-4.5,6.2c-2.1,3.2-4.2,5.8-4.7,5.8s-4.5,3.4-8.9,7.6c-4.4,4.3-8.3,7.4-8.7,7.1c-1.1-1.2,3.9-12.7,11.8-26.9
		c2.4-4.3,2-7.9-1.4-12.1l-2.2-2.8l-4,1.7c-3.3,1.5-6.5,1.7-18.3,1.5c-11.1-0.2-15.7,0.1-21.2,1.5c-8.9,2.3-10.6,1.2-5.9-4
		c1.7-2,5.1-4.8,7.5-6.2c5.7-3.4,21.3-8.9,29.4-10.4c3.6-0.7,7.3-1.7,8.2-2.2c4.2-2.1,3.1-14.5-2.8-32.2c-1.9-5.5-3.4-10.9-3.4-11.9
		C208,18.4,210.3,21.3,220.1,36.6z M213.2,31.5c0.6,2,4.3,16.5,5.6,21.7l0.7,2.6l3.3-2.7l3.3-2.8l-6.2-9.9
		C213,29.4,212.5,28.6,213.2,31.5z M219.2,61.9c-2.6,5.4-2.9,5.6-8.2,6.9c-10.5,2.6-25.5,7.4-30.1,9.8c-5,2.5-10.9,7.1-10.9,8.4
		c0,1.5,7.3-1.1,13-4.6c6.3-3.9,16.5-7.7,18.9-7.1c1.3,0.3,1.3,0.5-0.4,1.2c-11.9,4.7-16.5,6.8-16.5,7.6c0,0.5,3.4,0.9,7.5,0.9h7.6
		l4.8-4.5c4.2-3.9,7.1-5.6,7.1-4c0,0.3-1.8,2.1-4,4.2c-2.3,2-3.7,4-3.2,4.5c0.4,0.4,3.1,0.1,5.9-0.7c3.7-1.1,6.1-2.7,8.6-5.5
		c4.3-5,7-5.4,3.2-0.4c-2.4,3.1-2.5,3.7-1.2,5.2c2.3,2.7,4.7,7.9,4.7,10.4c0,1.3-1.1,4.3-2.5,6.8c-5,9-8.5,16-8.5,17.1
		c0,0.6,2.5-1.2,5.6-4c3-2.8,5.9-5.1,6.4-5.1c0.4,0,2.2-2.2,4-5c2.5-3.9,3-5.6,2.5-7.9c-0.6-2.6-0.3-3.2,2.5-4.6
		c2.2-1.1,3-2.1,2.6-3.2c-0.4-0.9,0.2-2.5,1.2-3.7c1.1-1.2,2.5-3.8,3.2-6c1.2-3.8,1.2-3.9-2.7-7.8l-4-3.9l-3.6,1.7
		c-2,1-4,1.4-4.4,0.9c-0.5-0.4-0.3-1,0.4-1.2c3.3-1.2,7.8-5.1,8.1-7.1c0.2-1.4-0.7-3.3-2.7-5.2C228.7,50.6,223.6,52.6,219.2,61.9z
		 M238,64.8c0,0.5,1.2,1.9,2.7,3.3l2.7,2.4l-2.3-3.3C238.8,64,238,63.3,238,64.8z"/>
	<path d="M230.5,62.1c0.4,0.6,0.5,1.2,0.3,1.4c-0.7,0.7-4.8-0.7-4.8-1.6C226,60.6,229.7,60.8,230.5,62.1z"/>
	<path d="M393.7,67c0.6,0,1.5,2,1.8,4.4c2,13.4-17.1,28.6-36,28.6c-2.8,0-3.7,0.6-5,3c-2.3,4.5-2,6,1.3,5.5
		c15.8-2.6,38.6-4.5,64.7-5.3c17.9-0.6,20.9-0.9,20.6-2.2c-1.3-5.2-1.1-9.8,0.6-13c1.9-3.7,8.2-8.5,12.4-9.5
		c2.3-0.6,2.8-0.2,3.8,2.6c0.6,1.7,1.1,4.3,1.1,5.5c0,1.3,0.2,2.4,0.5,2.4c0.2,0,3.3-1.5,6.7-3.4c7-3.8,27.5-10.6,32-10.6
		c3.6,0,3.8,3.1,0.3,8.2c-6.5,9.6-24,17.7-38.2,17.8c-10.8,0-4.7,1.6,12.5,3.3c18.1,1.8,40.7,5.9,52.2,9.6c8.4,2.7,9.5,2.6,15.5-0.9
		c13.9-8.2,22.4-10.1,35.8-8.2c9.9,1.4,21,6.5,21.5,9.8c0.7,5.1-20.4,9.6-35.3,7.5c-4.6-0.6-10.5-1.9-12.9-2.8
		c-3.2-1.2-4.9-1.4-5.6-0.7c-0.7,0.7,1.7,2.1,7.7,4.3c4.9,1.8,18,7.8,29.2,13.3l20.5,10.1l2-2.5c5.1-6.2,13.1-8.1,27.4-6.7
		c10.3,1.1,15.1,2.5,18.8,5.4c2.5,2,2.7,2.5,1.5,3.9c-0.7,0.9-3.6,2.3-6.3,3.1c-6.5,1.9-24.9,3.8-29.3,2.9c-1.9-0.3-3.5-0.4-3.5-0.1
		c0,0.3,4.5,3.5,9.9,7.1l9.9,6.6l4.8-1.5c2.7-0.8,8.2-1.5,12.2-1.5c4.8,0,8.4-0.6,10.4-1.6c5-2.6,18.1-1.4,29.1,2.6
		c9.1,3.3,10.9,4.9,8.6,7.6c-3.3,4-9.1,5.8-18.9,5.9c-11.8,0-18.2-1.7-22.5-6.2c-1.7-1.8-4.2-3.3-5.4-3.3c-2.7,0-11.1,2.1-11.1,2.7
		c0,0.3,1.2,1.5,2.7,2.7c11.9,9.3,28,25.9,38.4,39.5l2.5,3.4l4.5-2.5c2.4-1.4,5.8-2.9,7.4-3.3c1.7-0.3,4.1-1.7,5.5-3
		c9.7-9.2,34.2-10,41.4-1.4c1.4,1.7,2.4,3.5,2,4c-1,1.7-9.9,5.7-15.5,6.9c-5.3,1.2-16.4,1-27.4-0.5c-3-0.5-4.8-0.1-7.5,1.6l-3.5,2.2
		l2.5,0.9c1.4,0.6,5.3,2.3,8.8,3.9c4.8,2.2,7.7,2.9,12.5,2.9c11.1,0,22.4,3.6,30.5,9.7c4,3,8.2,9.4,8.2,12.6c0,2.1-0.6,2.5-4.5,3
		c-6.2,0.9-19.1-1.5-26.1-4.9c-3.5-1.7-8.6-5.5-12.4-9.3c-5.9-5.8-12.5-10-15.7-10.1c-0.7,0,3.9,7.8,10.1,17.2
		c6.2,9.5,13.7,21.5,16.7,26.5c5.3,9.1,5.5,9.3,10.6,10.8c4.8,1.4,11.5,5.7,16.3,10.5c1.1,1.1,2.9,2,4,2c3.7,0,11.5,3.2,14.3,5.8
		c1.6,1.5,3.7,4.3,4.7,6.3c3.3,6.3,4.4,17.8,2,20.3c-2.3,2.4-17.3-3.9-23.2-9.8c-5.3-5.2-7.2-9.2-7.1-15.4c0-4.9-0.2-5.5-3.6-8.1
		c-8.5-6.7-8.6-6.1-1.2,8.6c8.4,16.8,10.7,22.3,16.1,38.3c4.2,12.1,4.5,12.7,10.8,18.9c3.6,3.5,8.8,7.6,11.6,9
		c3.4,1.8,6.2,4.3,8.3,7.5c2.8,4.1,3.3,5.7,3.3,11c0,4.3-0.6,7-2,9.4c-1.8,2.9-2.2,3.1-4.3,2.1c-4.8-2.5-8.6-6.1-12.3-11.6
		c-3.3-5-3.8-6.5-4-12.1c-0.2-5.2-0.6-6.9-2.4-8.6l-2.2-2.1l0.6,4c3.4,20.9,3.6,24.2,3.6,52.1c0,24.2,0.2,29.4,1.4,30.4
		c0.8,0.6,2.9,3.4,4.6,6.1c1.8,2.7,3.8,4.9,4.6,4.9c2.4,0,8.4,6.2,11,11.1c1.7,3.4,2.4,6.5,2.4,10.2c0,9.3-4.1,10-12.8,2.2
		c-6.4-5.7-8.6-10.3-7.9-16.4c0.5-4.5-1.3-10.1-3.2-10.1c-0.4,0-1.1,5.5-1.5,12.2c-0.4,6.8-1.3,15.8-2,20.1l-1.3,7.8l3.3,2
		c2,1.2,3.9,3.6,4.9,6.2c1.2,3.3,2.7,4.8,6.4,6.9c3.1,1.7,5.4,3.8,6.4,6.1c2.2,4.5,2.2,13.5,0.1,16.5c-1.5,2.1-1.6,2.1-4.7,0.6
		c-5.8-3-11.6-8.4-12.5-11.6c-0.4-1.8-0.4-5.6,0.2-8.5c0.8-4.7,0.7-5.7-1-8c-3-4-4.2-3.9-5.4,0.9c-3.2,12.5-6.4,23.1-10.5,33.8
		l-4.4,12l2.7,4.4c1.7,2.8,3.6,4.6,5.2,4.9c4.4,0.9,9.3,5.1,11.8,9.9c1.9,3.7,2.4,6.3,2.4,12c0.1,8.3-2.4,15.8-5.1,15.8
		c-2.4,0-14.7-11.5-17.7-16.6c-2.8-4.7-3.4-11.6-1.5-15.2c1.2-2.3,1.5-8.2,0.4-8.2c-0.5,0-5,8.5-10,18.8c-9.1,18.4-9.2,18.7-7.5,21
		c0.9,1.3,3.4,3,5.6,3.7c2.1,0.7,5.1,2.6,6.7,4.1c3.9,3.7,7.9,12.3,8.6,18.3c0.7,5.8-1.1,12.1-3.5,12.1c-2.6,0-12.7-11.4-16.1-18.1
		c-1.7-3.4-3.1-7.6-3.1-9.3c-0.1-2.8-1.9-6.6-3.3-6.6c-0.3,0-2,2.6-3.8,5.7c-3.9,6.9-14.2,22.8-19.3,29.8c-2,2.7-3.6,5.3-3.6,5.6
		s1.8,1.4,3.9,2.4c4.5,2,9.2,6.6,11.2,11c1.1,2.3,2.3,3.1,5.6,3.7c9.8,1.6,16.9,7.3,20.2,16.3c3.6,9.6,2.1,22-3.2,26.4
		c-1.4,1.1-2.2,0.9-5.4-1.7c-5.5-4.4-15.5-15-18.9-20.1c-2.7-4.1-2.9-5.1-2.7-12.4c0.2-5.3-0.2-8.8-1.2-10.7
		c-3.4-6.6-13.4-11.3-16.1-7.5c-1.1,1.4-1,2.1,0.1,3.9c0.7,1.1,1.6,3.7,2,5.6c0.4,1.9,1.7,4.6,2.8,6.1c2.7,3.7,3.2,10.9,1.4,19.6
		c-1.9,9-4.1,12.6-7.1,11.7c-6-1.9-9.9-7.2-10.4-14.4c-0.4-5.6,0.5-7.9,6.3-17.6c1.6-2.6,1.7-3.6,0.8-5.7c-1.2-2.5-1.3-2.4-11.7,8.1
		c-5.8,5.9-13.7,13.2-17.5,16.2c-6.9,5.4-7,5.6-7,10.2c-0.1,3.7,0.3,5,1.8,5.7c1,0.6,3.1,3.4,4.5,6.3c5.2,10.5,2.5,30.5-5.2,38.7
		l-3.4,3.6l-2-2.5c-4.7-5.6-10.8-22.2-10.8-29.2c0-4.2,3.7-13.2,6.5-15.8c2.2-2.1,3.6-6.7,1.8-5.8c-0.5,0.2-5.9,3.6-12,7.7
		c-11.1,7.2-11.3,7.4-11.3,11.1c0,2.1-1,6.9-2.2,10.6c-1.3,4.2-2.1,8.8-1.9,11.6c0.5,7.9-3.9,17.6-9.5,21.2
		c-3.1,2.1-4.8,1.3-8.4-4.2c-1.8-2.8-3-3.9-3-2.8c0,1-1.2,4-2.7,6.7c-2.6,4.6-2.7,5-1.1,7.6c2,3.6,1,6.5-3.5,9.5
		c-3.1,2-3.5,2.8-4.1,8.2c-0.3,3.2-0.6,8.3-0.6,11.3c0,4.7-0.4,5.9-2.8,8.3c-1.6,1.6-4.9,3.4-7.3,4.2c-5.6,1.6-21.4,1.6-30.2-0.1
		c-9.6-1.9-10.1-3.2-5.8-15.8l3.2-9.5l-2.4-2.7c-3.5-3.7-4.7-6.4-4.7-10.4c0-2.1-0.7-4.1-2-5.2c-3.4-3.1-2.6-7.2,2.2-11.8l4.2-4
		l-2.7-10.5c-1.5-5.8-2.9-10.7-3.1-10.9s-2.2,0.1-4.5,0.7c-2.9,0.8-4.2,1.7-4.6,3.3c-3.2,14.3-3.2,14.8,0.5,17c4.9,3,5.5,5.1,2.5,10
		c-1.4,2.6-2.5,5.9-2.5,8.1c0,5.2-2.3,9-6.5,11c-2,1-3.9,2.5-4.1,3.4c-0.3,0.9-1.7,4.6-3.1,8.2c-4.7,11.6-8.4,14.1-22.3,14.8
		c-6.1,0.2-12.7-0.2-18.4-1.2c-15.9-2.8-17.3-6-7.1-15.8c7-6.6,7.9-9.2,4.5-12.3c-1.1-1-2-2.4-2-3.2c0-0.7-0.5-1.3-1-1.3
		c-1.8,0-8,4.5-8,5.8c0,2.5-3.9,9-6.9,11.5c-3.2,2.7-9.9,5.1-16.8,6.2c-3.4,0.5-4.4,0.3-4.9-0.9c-1.9-5,6.5-15,15.2-18
		c6.3-2.3,10.3-4.2,13.4-6.6l2.5-2h-13.1c-13.3,0-29.7-1.2-41.5-3.1l-6.7-1l-9,4.5c-6.1,3.1-10,5.7-11.8,8.1
		c-5.8,7.6-17.5,12.9-27.1,12.3c-4.6-0.3-4.8-0.4-5.1-3.5c-0.3-2.6,0.5-4.1,3.7-7.6c5.7-6.2,14.7-10.2,23.2-10.3
		c5.2-0.1,7.5-0.7,11-2.7c4.9-2.9,5-2.8-6.6-5.2c-10-2-30.6-7.6-40.4-11c-4.1-1.4-7.8-2.5-8.2-2.5s-0.9,3.3-1.1,7.4
		c-0.3,6.5-0.7,7.9-3.4,11.3c-3.4,4.2-14.2,10.2-18.9,10.6c-3,0.2-3,0.1-2.8-4.6c0.3-9.6,7.4-19.2,15.6-21.2
		c2.2-0.6,4.4-4.2,3.2-5.3c-0.2-0.2-2.3,0.5-4.7,1.6c-2.4,1.2-6.8,2.6-9.8,3.3c-3,0.6-6.6,1.9-8,2.9c-9.3,6.5-30.5,9.8-40.4,6.3
		c-2.7-1-5.1-2.3-5.3-2.9c-1.1-3.4,8.5-10,18.1-12.3c6.1-1.5,19.2-1.6,24.6-0.1c3,0.8,5.6,0.8,9.3,0c8.7-1.8,8.5-2.3-2.5-7
		c-12.9-5.4-28.2-13-36.7-18.2l-6.6-4l-6.2,1.2c-3.4,0.6-9,1.3-12.5,1.4c-3.5,0.2-8.1,1-10.3,1.9c-5.5,2.2-22.5,2.2-31.1,0.1
		c-6.5-1.7-12.4-4.8-13.1-7.1c-0.6-1.8,9-6.3,17-7.9c9-1.9,17.8-0.7,26.1,3.6c6,3,9.5,3.5,17,2.2l4-0.7l-9.1-6.7
		c-11.2-8.4-27.1-22.6-34.6-30.9l-5.6-6.4l-3.3,4c-1.8,2.1-4.1,5.7-5,7.8c-4.2,9.3-12.1,15.5-22.8,17.8c-6.2,1.3-7,0.7-7-6.1
		c0-5.3,2.4-9.7,7.4-13.5c3.7-2.8,11.2-5.5,15.3-5.5c2.4,0,9.3-4.7,9.3-6.4c0-1.3-6.8-0.1-13.5,2.4c-4.8,1.8-8.1,2.3-17,2.3
		c-12.8,0.1-20.3-2.2-26.4-7.9c-4.2-4-3.9-4.4,5.8-7.4c11.4-3.6,31.3-2,40,3.1c2.5,1.5,4.4,1.9,6.8,1.4l3.4-0.6l-4.2-4.7
		c-4.9-5.6-19.6-27.5-23.3-34.9c-1.4-2.8-3.4-5.4-4.3-5.6c-5.5-1.5-11.1-2.1-21.8-2.1c-10.3-0.1-12.7-0.4-17-2.4
		c-8.1-3.7-13.1-9.8-14.5-17.4c-0.6-3.3-0.4-4.1,1.4-5.3c10.8-6.8,36.2,2.4,42.1,15.4c1.6,3.6,4.8,6.1,6.1,4.9
		c0.2-0.3-2.7-7-6.5-14.9c-3.7-7.9-8.8-19.3-11.2-25.3c-3.5-8.8-4.9-11.2-7.2-12.5c-1.6-0.9-5.2-3.3-8-5.3
		c-3.1-2.3-7.1-4.2-10.4-4.8c-11.1-2.3-20.3-12.4-20.6-22.7l-0.2-4.8l5.9,0.2c10.8,0.4,19.7,4.8,23.2,11.4c0.8,1.6,1.9,5.2,2.4,8.1
		c0.9,4.6,4.1,9.8,6.1,9.8c0.4,0-0.8-4.3-2.7-9.5c-7.7-21.7-16.4-57.1-16.4-67.3c0-3.8-0.5-4.8-4.5-8.4c-2.4-2.2-4.9-5.6-5.5-7.4
		c-0.9-2.8-2.3-3.9-7.6-6.4c-4.5-2.2-7.2-4.2-8.9-6.8c-4-6.3-5.5-20.2-2.1-20.2c0.7,0,3.5,0.7,6.3,1.5c11.4,3.4,18.2,12,16.9,21.5
		c-0.5,3.7-0.2,5.2,1.1,6.9c1.7,2.1,1.8,1,1.9-27.6c0-27.6,0.2-31,2.8-46.6l2.7-16.8l-2.5-3c-1.5-1.7-2.6-3.7-2.6-4.4
		c0-0.7-1.9-2.8-4.1-4.6c-4.4-3.4-8.2-10.5-9.4-17c-0.8-4.1,1.6-10.9,3.8-10.9c2.8,0,11.1,6.5,13.9,10.9c2.6,4.1,2.9,5.2,2.3,9.6
		c-1.9,14.7-0.2,13.7,5.1-3c6.3-20.2,14.8-39.5,24-54.7l3.6-6l-2.2-7.5c-1.2-4.2-2.5-10.4-2.8-13.8c-0.4-5.9-0.7-6.3-3.7-7.8
		c-7-3.3-11.3-13.2-9.9-22.6c0.9-6.2,4-14.5,6.3-16.5c1.7-1.6,2.1-1.4,7.6,4.1c11,11,14.2,22.9,9,32.8c-2.5,4.6-2.5,5-1.5,12.9
		c0.6,4.4,1.5,8.5,1.9,8.9c0.5,0.4,3.8-3.4,7.4-8.5c10.1-14.2,20.5-26.9,34.6-42.4l12.8-14l-5.1-2.7c-2.8-1.5-6.5-2.7-8.2-2.7
		c-7.1,0-16.7-5.5-21.1-12.1c-2.5-3.8-4.1-11.4-3-14.2c0.7-1.9,10-0.5,16.8,2.5c5.5,2.3,12.5,9.3,13.5,13.5c0.8,3.2,4.1,7.3,6.1,7.3
		c1.9,0,1.7-0.4-2.1-4.2c-4.2-4.2-5.6-9-5.6-18.8c0.1-11.5,4.5-27,7.8-27c0.8,0,3.7,2.2,6.3,4.9c6.2,6.5,9.2,14.2,9.3,24.1
		c0.1,7.7-0.8,10.2-5.5,16.1c-1.2,1.5-1.9,3.3-1.7,4.2c0.2,1,4.4-2.3,12.8-10c6.9-6.4,17.9-16.1,24.5-21.6
		c6.6-5.5,12.4-10.4,12.9-10.8c0.5-0.5-1-2.9-3.6-5.6c-6.1-6.6-8.3-12.5-7.5-20.6c0.6-6.3,3.6-15.7,6-19.1c1.2-1.6,1.4-1.6,3.8,0.3
		c7.8,6.1,13.7,20.7,12.5,30.8c-0.3,2.9-0.4,5.3-0.1,5.3c0.2,0,2.8-1.5,5.7-3.4c13.9-8.8,34.6-17.4,54.4-22.6
		c6.5-1.7,11.8-3.1,11.9-3.3c1.4-2.8,9.1-13.9,10.6-15.3c1.1-1,3.3-4.6,5-8.1c4.5-9.4,11.1-13.9,26.3-17.8
		C388.4,68.2,393,67.1,393.7,67z M383,71.6c-12.8,3.4-23,10.8-24.5,17.6c-0.4,1.7-2.4,4.9-4.4,7.2c-2.1,2.3-5.5,6.9-7.6,10.4
		c-2.7,4.4-4.6,6.4-6.4,6.8c-24.6,5.4-51.5,16.3-66.9,27c-6.8,4.7-8.8,5.4-7.7,2.6c3-7.7,2.8-17.3-0.5-24.9
		c-2.2-5.1-7.8-12.3-9.6-12.3c-2.7,0-7,16.7-5.9,22.9c0.9,5.1,4.8,11.3,9.6,15.4l4,3.5l-12.8,10.7c-7,5.9-19.6,16.9-27.9,24.5
		c-8.4,7.7-15.4,13.6-15.8,13.3c-0.3-0.4-0.6-2.5-0.6-4.8c0-3,0.6-4.7,2.1-6.1c8-7.2,6.7-25.3-2.7-36.2c-1.9-2.3-4.2-4.2-4.9-4.2
		c-2.3,0-5.7,11.8-6.2,22.1c-0.5,8.2-0.3,10.2,1.5,14.1c1.1,2.6,3.2,5.4,4.6,6.3c2,1.3,2.6,2.6,2.6,5.1c0,1.9-0.3,3.4-0.6,3.4
		c-0.4,0-2.4-1-4.5-2.2c-2.9-1.6-4.3-3.4-5.9-7.3c-3.6-8.8-11.7-14.7-22.4-16.1c-4.5-0.7-4.6-0.6-4.6,2.1c0,9.8,14.1,21.7,24.1,20.4
		c1.4-0.2,3.8,0.6,5.5,1.8c1.6,1.2,4.4,2.5,6.2,3c1.8,0.4,3.2,1.2,3.1,1.8c0,0.5-4.5,5.7-9.8,11.5c-17,18.3-31,35.4-42.1,51.4
		c-2.9,4.2-5.8,7.5-6.4,7.3c-1.4-0.5-3.4-8.4-4.2-16.8c-0.6-6-0.4-7,1.7-9.8c1.9-2.6,2.4-4.5,2.4-9.4c0-7.8-2.8-13.6-10.1-20.8
		l-5.3-5.3l-2.3,5c-1.6,3.4-2.3,7.3-2.6,12.9c-0.2,6.9,0,8.5,2,12c1.4,2.3,4.1,5,6.6,6.3c3.9,2.2,4.2,2.6,4.2,6.6
		c0,2.4,1,7.8,2.1,12.2c3.6,13.2,3.6,13.3-1.1,20.5c-9.2,14.2-20.8,41.9-26.1,62.2c-2.5,9.4-4,10.6-6.8,5.5
		c-1.3-2.3-1.3-3.6-0.3-8.7c1.6-7.7,0.3-11-6.3-16.9c-5.5-4.8-7.2-5.2-8.4-1.8c-2,5,1.8,14.8,8.1,21.1c2.2,2.2,5.5,6.1,7.3,8.6
		l3.3,4.7l-1.3,6.3c-4.1,19.5-5,30.1-5,60.7c0,16.6-0.3,30.2-0.7,30.2c-0.4,0-2-1.6-3.5-3.5c-2.4-3.1-2.8-4.4-2.8-10.3
		c0-6-0.4-7.3-2.8-10.5c-3-3.9-7.7-6.8-13.9-8.5l-3.8-1v5.2c0,8.4,3.2,13.4,11.1,17.3c5.4,2.7,6.8,4,8.9,8c1.4,2.6,3.9,5.7,5.6,6.8
		c3,1.9,3.2,2.5,5.3,15.5c2.9,17.3,8.6,39.7,15.1,59c2.8,8.4,4.9,15.4,4.6,15.7c-0.6,0.7-6.7-3.1-8.8-5.4c-0.9-1-2.1-4.4-2.8-7.5
		c-1.3-6.7-4.3-11.5-8.7-14c-3.9-2.4-17.3-5.2-18.5-4c-0.5,0.5-0.4,2.9,0.3,5.7c1.9,7.4,9.5,14.8,17.4,16.9
		c6.9,1.9,7.9,2.4,17.2,8.7l6.8,4.6l4.4,10.9c2.4,6,7.9,18.2,12.1,27.2l7.9,16.2h-3.8c-4.7,0-6.5-1.4-9.3-7
		c-4.3-8.5-16.5-15-28.1-15c-3.4,0-7.3,0.3-8.6,0.7c-2,0.5-2.2,1-1.7,4.2c1.5,9.4,11.5,16.7,24.2,17.8c4.3,0.3,8.4,0.1,10.6-0.6
		c2.7-0.9,4.2-0.9,6.4,0c1.6,0.7,4.9,1.5,7.3,1.8c4.3,0.6,4.4,0.7,11,11.6c8.5,14.1,16,24.9,22.2,32c2.7,3.1,4.7,6.1,4.4,6.6
		c-1.1,1.7-11.2,1-14.7-1.1c-9.8-5.7-29.7-6.6-42.1-1.8c-3.5,1.3-2.4,2.9,4.4,6.4c10,5,27.7,5.2,38.6,0.4c2.8-1.2,6.7-2,10-2h5.5
		l13.1,13.3c13,13.1,28.7,26.4,37.9,32.2c2.7,1.7,4.8,3.3,4.8,3.6c0,1.1-4.2,1.9-13,2.6c-8,0.5-8.8,0.4-12.2-2
		c-8.3-5.6-24.5-6.3-35.1-1.4c-3.1,1.4-5.7,2.8-5.7,3.1c0,1.1,6.2,3.7,12.7,5.2c9.9,2.3,23,2.1,28.9-0.5c3-1.4,6.8-2.1,10.7-2.1
		c3.3,0,8.7-0.5,12.1-1.1l6.2-1.2l12.9,7.1c12.4,6.8,41.3,20.2,43.5,20.2c2.6,0,0.6,2.3-3.7,4.2c-5.1,2.3-9.2,2.5-25.9,1.3
		c-6.9-0.5-10.7-0.3-15.5,0.9c-6.8,1.7-14.4,6.3-14.4,8.6c0,0.8,1.9,2,4.5,2.8c8.8,2.6,26.2-0.3,35.7-6c1.8-1,6.5-2.8,10.5-3.9
		c4-1.1,8.7-2.9,10.4-4c5.2-3.2,7.6-0.8,5.8,5.8c-0.4,1.4-1.7,2.3-4,2.8c-6.6,1.2-12.9,8.9-14.9,18.3c-0.9,4.2,0.8,4.2,9.2,0.3
		c4.3-2.1,7.1-4.2,9.2-7.1c2.7-3.7,3-4.8,2.8-11.5c-0.1-4.1,0.2-7.7,0.5-8.1c0.4-0.3,5.5,1,11.5,3c13.9,4.5,30.1,8.9,43.3,11.7
		c5.8,1.2,10.9,2.5,11.3,2.9c0.4,0.4-2.2,2.6-5.8,4.9c-6.1,3.8-7.1,4.1-11.3,3.5c-8.5-1.1-20.9,4.8-25.3,12
		c-2.8,4.6-2.5,5.6,1.9,5.6c8.9,0,21.3-6.1,25.5-12.6c1.5-2.3,4.9-4.6,11.8-7.9l9.6-4.8l12.9,1.8c7.1,0.9,22,1.9,33.2,2.2
		c11.1,0.3,20.2,0.9,20.2,1.2c0,1.5-11.8,8.9-16.5,10.4c-2.7,1-6.4,2.6-8.1,3.6c-3.7,2.2-8.1,7.7-8.6,10.6c-0.3,1.7,0.2,1.9,3.1,1.7
		c4.6-0.5,10.6-2.7,14.2-5.3c3-2.1,6.9-8.6,6.9-11.4c0-0.8,2.5-3.1,5.5-5c4.2-2.8,5.5-4.1,5.5-6V765h-11.8h-11.8l-2.1-4.8
		c-1.3-2.9-1.9-5.9-1.6-7.9c0.8-5-0.5-9.9-3.4-13.4l-2.6-3.1l-1.3,2.4c-0.7,1.2-1.3,4.2-1.4,6.5c0,3.5,0.6,5,3.4,8
		c3.4,3.8,6.6,9.3,6.6,11.3c0,0.6-2.7,1-6.9,1h-6.9l-3.9-5.3c-3.1-4.1-4.1-6.4-4.5-10.4c-0.3-3.5-1.3-6.3-3.2-8.7
		c-2.9-3.8-12.9-9.3-18.8-10.2l-3.6-0.6l0.7,3.3c0.9,4.1,3.5,9.3,6.8,13.6c2.7,3.5,11.3,8.3,14.9,8.3c2.1,0,8.4,6.2,8.4,8.2
		c0,1.9-17.9-0.8-41-6.2c-6.9-1.7-13.5-3.2-14.7-3.5c-3-0.7-10.2-12-10.3-16c-0.1-7.2-7.7-17.7-15.5-21.4c-5.6-2.6-7.2-2.6-8-0.1
		c-2,6.2,5.9,17.1,15.5,21.4c4.9,2.2,6.7,3.7,9,7.4c3.4,5.4,3.8,7.6,1.3,6.8c-1-0.3-3.8-1-6.3-1.6c-16.9-4.3-43.5-13.6-58.3-20.4
		l-7.9-3.6l0.7-4.3c0.4-3,0.3-3.8-0.4-2.7c-0.6,0.8-1.1,2.3-1.1,3.2c0,2.6-1.6,3-3.9,1c-1.3-1-2.7-4.3-3.7-8.5
		c-1.6-6.5-1.6-6.8,0.2-8.8c2.8-3.1,2.5-10.4-0.4-15.2c-2.7-4.2-10.4-9.2-12.8-8.3c-1.3,0.5-1.5,1.5-1,5.1c0.7,5.8,2.9,10,7.6,15
		c3.1,3.2,3.9,4.9,4.3,9c0.2,2.7,0.8,5.8,1.2,6.7c0.5,1.2,0.3,1.8-0.7,1.8c-2.2,0-27.1-16.7-38.3-25.7c-21.1-16.9-50.2-50.1-58.9-67
		l-1.6-3.2l4.9-3.7c6.5-4.9,9.5-10.3,8.7-15.6c-0.4-2.2-1.6-5.8-2.7-8l-2.1-4l-3.5,3.3c-4.5,4.4-7.3,9.8-8,16
		c-0.3,2.7-1,4.9-1.4,4.9c-0.5,0-2.1-1.9-3.6-4.3c-3.1-4.9-18.3-36.2-18.3-37.7c0-0.5,0.9-1,2.1-1s1.7-0.4,1.3-1.1
		c-0.3-0.6,0.5-2.3,1.9-3.7c3-3.2,5.7-9.1,5.7-12.6c0-1.8,1-3,4-4.7c2.3-1.3,5-3.8,6.2-5.7c3.8-6.1,1.1-18.5-5.8-26.7l-2.5-3l-3,3.5
		c-7.5,8.9-9,22.6-3.2,29.8c3.6,4.4,3.5,7.1-0.6,14.9c-1.9,3.8-6.6,8.2-7.5,7.2c-0.9-0.9-11.1-24.3-15.7-35.7
		c-3.7-9.1-11.9-35.2-11.9-37.8c0-0.1,2.2-2.5,4.8-5.3c2.7-2.8,6.1-7.8,7.7-11c2.6-5.4,3-5.9,6.7-6.4c11-1.5,19.1-16.1,15.7-28.2
		c-1.3-4.3-1.8-5-4.3-5.3c-4.3-0.5-7.2,0.5-11.1,4c-6.9,6-9.8,15.4-7.6,24.5c1.1,4.5,1,5.4-1.2,10.4c-2.3,5-8.7,12.9-10.6,12.9
		c-2.2,0-7.1-35.8-7.8-57.6l-0.6-18.2l3.2-1.7c2.7-1.3,4.1-1.4,8.4-0.6c2.9,0.6,13.1,0.9,22.7,0.8c19.2-0.4,24.1-1.5,28.1-6.5
		c1.9-2.5,2-2.7,0.2-4c-1.4-1.1-4.2-1.3-11.4-0.9c-10.3,0.5-16.8,2.6-20.3,6.6c-1.6,1.8-3,2.1-9.2,2.1c-4,0-7.6-0.5-7.9-1
		c-0.4-0.6,1.1-3,3.2-5.3s5.3-6.3,7.1-9c2-2.8,4.1-4.7,5.2-4.7c1.1,0,4.4-0.9,7.4-2c6.2-2.4,11.7-7.8,13.6-13.5
		c1.5-4.4,0.9-21-0.7-22.6c-1.7-1.7-12.2,4.3-18.2,10.4c-8.2,8.2-11.7,17.7-9.2,24.8c1,2.8,0.8,3.8-1.3,7.4
		c-3,5.1-10.1,11.7-15.5,14.4c-2.2,1.2-4.3,2.1-4.7,2.1c-1.1,0,0.5-21.1,2.7-36.4c1.8-12.4,8.1-39.9,10.7-46.7
		c1-2.5,1.1-2.6,7.9-1.7c8,1.1,19.3,0.3,27.9-1.8c5.6-1.4,6.6-1.4,11.4,0.2c7.5,2.5,18,1.5,26.2-2.5c7.5-3.6,14.5-9.8,12.8-11.5
		c-0.7-0.7-6.6-1.1-16.3-1.1c-14.4,0-15.5,0.1-20.9,2.7c-3.8,1.7-6.2,3.6-7.2,5.6c-1.7,3.3-2.3,3.6-11,5.1
		c-7.6,1.4-12.6,1.4-12.6,0.1c0-1.8,9.8-11,11.7-11c3.2,0,12.2-5.9,14.8-9.7c1.4-2.1,2.5-5.2,2.5-7c0-2.9-0.3-3.3-2.7-3.3
		c-3.7,0.1-10.3,3.1-13,6.1c-2.5,2.8-4.3,7-4.3,10.3c0,1.5-2.4,4.8-6.9,9.4l-6.8,7.1l-5.7-0.6c-3.1-0.3-5.6-1-5.6-1.5
		c0-6.7,26.8-56.8,35.3-66c3.7-4,21.3-9.3,29.2-8.8c19.4,1.3,27-1.4,33.6-11.8c4.3-6.8,4-7.8-2.8-8.6c-15.5-1.6-29.5,4.2-35.8,14.8
		c-2.2,3.8-3.1,4.3-10.5,6.5c-4.4,1.3-8.3,2.1-8.7,1.8c-0.8-0.9,11.7-17.2,22.5-29.5c14.6-16.6,30.7-31.8,47.9-45.6l7.1-5.7
		l14.9,3.1c10.7,2.3,16.2,3,19.8,2.5c5.8-0.7,14.2-3.2,15-4.5c0.3-0.5-2.7-2.6-6.7-4.6c-9.3-4.7-16.9-5.4-27.8-2.6
		c-4.1,1.1-7.7,1.8-7.8,1.7c-1.6-1.5,12.3-14,25.3-22.6c9-6.1,30.7-17.3,35.6-18.4c2.4-0.6,2.8-0.1,5.4,5
		c3.9,8.1,11.6,13.4,21.7,14.9c4.8,0.7,17.4-1,18.3-2.5c1.6-2.4-18.8-14-29-16.4c-9.8-2.4-10-2.4-8.8-3.6c1.8-1.8,14.6-4.8,35.2-8.3
		c22.3-3.8,31-5,32.6-4.4c0.6,0.2,0.9,2.8,0.7,5.8c-0.2,4.3,0.3,6.4,2,9.4c4.7,8.1,18.8,11.9,28.3,7.7c4.8-2.1,4.8-2.1,2.9-4.2
		c-3.4-3.8-17-13.6-22.8-16.4c-3.1-1.5-5.6-3.1-5.6-3.5c0-0.9,6.3-1.6,28-3.1c29.3-2,61.8,0,85.1,5.1c12.8,2.8,16.9,4,16.9,5
		c0,0.5-2.5,1.6-5.6,2.5c-3.2,0.9-7,3-9.1,4.9c-3,2.7-3.6,4.1-4.1,8.5c-0.5,5.2-0.4,5.3,1.9,4.6c1.3-0.3,5.2-2,8.5-3.6
		c3.4-1.6,6.4-2.9,6.6-2.9c0.3,0,0.8,2.3,1.1,5.1c0.4,2.8,1.5,6.5,2.6,8.3c3.2,5.1,13,9.8,24.1,11.5l5.2,0.8l-0.5-4.4
		c-0.7-6.3-5.7-15.8-12.8-24.3c-6.2-7.3-6.2-7.3-3-6.7c12.4,2.5,64.1,28.5,88.2,44.3l9.6,6.3l-0.4,7.3c-0.3,4-1.1,9-1.9,11.1
		c-3.7,9.8,0.8,18.7,12.4,24.8c5.7,2.9,6.4,1.8,5.9-8.2c-0.5-10.1-3.3-15.5-9.9-18.8l-4.8-2.3v-5.4c0-3.9,0.4-5.4,1.3-5.4
		c2.2,0,22.4,18.8,32.5,30.1c16.3,18.6,31.1,39.3,42.7,59.9l5.8,10.4l-3.7,7c-2,3.9-4.3,9-5.1,11.4c-0.8,2.3-2.8,5.4-4.5,6.8
		c-7.3,6.2-10.5,16.3-7.5,23.9c0.9,2.5,2,4.5,2.5,4.5c1.5,0,11.9-12.3,14-16.5c2.4-5,2.5-9.3,0.3-13.9c-1.4-3-1.4-4.1-0.3-7.9
		c1.3-4.9,4.5-10.7,5.8-10.7c1.1,0,15.9,27.8,21.7,41c5.9,13.2,10.7,25.9,10,26.9c-1,1.6-22.3,3.4-26.7,2.3c-8-2-11-2.2-17.6-1.1
		c-11.6,1.8-21.2,8.9-22.8,16.7l-0.6,3.2h5.8c11.7,0,25.9-5.1,33.9-12.2c2.4-2,5.3-3.4,8.3-3.9c6.2-1,14.2-1.1,14.2-0.1
		c0,1.9-12.8,13.1-16.3,14.2c-4.9,1.5-10.3,6.2-12.8,11.2c-1.9,3.6-2.9,12.2-1.6,13.5c1.1,1.1,10.2-4.1,14.3-8.2
		c4-4,7.3-12.2,5.9-14.6c-1.3-2,0.9-5.1,8-10.9c4-3.3,7.8-6,8.3-6c1.7,0,4.6,14.4,7.2,35.2c1,8.6,1,8.8-1.8,14.5
		c-1.6,3.2-3.2,7-3.6,8.6c-0.3,1.5-1.1,2.7-1.6,2.7c-2.3,0-10,8.4-11.6,12.6c-1.9,4.9-1.5,17.8,0.6,19.8c1.6,1.5,8.6-6.4,11.8-13.4
		c2.1-4.6,2.5-6.8,2.4-13.9c0-6.6,0.4-9.3,1.9-12.3c1.1-2.1,2.4-3.6,2.9-3.3c1.4,0.8,1.2,26.6-0.4,51.2l-1.2,20.2l-7.1,7.8
		c-5.3,5.8-8,8.1-11,8.9c-9,2.6-15.3,8.2-17.2,15.1c-1.4,4.8-1.4,16-0.1,16.8c1.3,0.8,5.6-1.6,11.7-6.4s9.9-11.9,11.1-20.7
		c0.7-5.3,1.5-6.9,5.6-11.8c2.7-3.1,5.3-5.6,5.8-5.6c3.1,0-5.8,42.3-12.7,59.9c-2.8,7.4-6.5,9.3-19,9.7c-9.8,0.4-24.2,2.2-26.4,3.4
		c-1.1,0.6-0.8,1.1,1.2,2.5c3.9,2.5,11.6,2.1,22.7-1.3c10.8-3.3,15.6-4.5,16.7-4c1.1,0.4,0.4,4.1-1,5.5c-1.3,1.3-12.9,5.5-22,8
		c-13,3.5-21.4,11.7-23.7,22.9c-0.7,3.1-1,5.8-0.7,6c1,1,13-5.8,17.3-9.8c2.5-2.3,7-7.9,9.9-12.4c3-4.5,6.3-8.5,7.2-8.8
		c5.2-1.4,8.3-1.7,8.3-0.7c0,0.6-2.9,8-6.5,16.4c-8.4,19.5-16.8,34.4-20.6,36.6c-1.7,0.9-2.7,2.2-2.4,3c1,2.7-13.2,24.2-25.5,38.6
		c-12.1,14.1-34.9,33.7-53.5,46c-4.9,3.3-10.5,7.4-12.2,9.2c-3.5,3.4-13,6.9-25.5,9.4l-6.8,1.3v5.3c0,2.9,0.3,5.3,0.6,5.3
		c0.7,0,16.6-8.6,21.6-11.7c5.6-3.4,6.8-3.1,6.8,2c0,2.4-0.7,6.5-1.6,9.1c-1.4,4.1-2.3,5.1-5.9,6.7c-5.8,2.6-10.5,8-10.5,12.3
		c0,3.3,5,11.6,7,11.6c1.7,0,5.2-4.4,7.7-9.8c2-4.2,2.4-6.4,2-10c-0.4-3.4,0.2-6.7,2-12.2c1.7-4.9,2.3-8.7,2-11.2
		c-0.5-3.6-0.3-3.8,4.2-6.4c2.5-1.5,8.8-5.6,13.9-9.1c5.2-3.5,9.7-6.2,10-5.8c1.4,1.4-0.1,8.1-2.3,10.5c-5.2,5.7-6.9,12.3-5.4,20.7
		c1.1,6.1,8.3,22.3,9.9,22.3c1.4,0,5.7-7.9,7.4-13.9c3.4-11.5,1.4-23.3-4.8-29c-2.2-2.1-2.6-3.3-2.6-8.2v-5.7l5.8-4.3
		c3.1-2.3,11.5-10,18.6-17.1c14-14,15-14.3,16.2-6.6c0.5,3,0,4.7-3.2,9.9c-3.4,5.4-3.9,7.1-3.9,12c0,5.2,0.3,6.1,3.4,9.3
		c1.9,2,4.1,3.6,4.8,3.6c1.9,0,4.2-5.2,5.5-12.8c1.3-7.9,0.4-13.1-3.2-17.2c-1.1-1.3-2-3.5-2-4.9c0-1.5-0.7-3.7-1.6-4.9
		c-1.7-2.5-1.2-5.1,1.4-7.5c4-3.6,15.2,2.5,19.3,10.5c1.7,3.3,1.9,4.7,1.1,8.4c-1.2,5.7-0.2,10,3.6,15.6
		c3.2,4.6,17.7,18.8,19.3,18.8c0.5,0,1.6-1.5,2.6-3.3c2.6-4.7,2.4-16.9-0.4-22.2c-4.2-8-10.1-12.2-18.4-13.2
		c-4.7-0.6-5.1-0.8-6.6-4.5c-1.8-4.5-8.1-10.2-12.9-11.8c-1.9-0.7-3.4-1.6-3.4-2.1c0-0.6,3.5-6,7.8-12.2
		c4.4-6.2,10.9-16.3,14.7-22.5l6.8-11.3l2.8,2.7c2.1,2,2.9,3.7,2.9,6.3c0,2,1.3,6.3,2.9,9.6c2.8,5.9,11.7,16.5,13.8,16.5
		c1.9,0,2.5-5.6,1.3-11.4c-1.9-9.2-9.5-18.6-15.2-18.6c-0.9,0-3-1.6-4.6-3.6l-3-3.6l7.2-14.2c4-7.7,8.6-17.1,10.2-20.9
		c1.5-3.7,3.2-6.7,3.5-6.7c1.4,0,4.9,5.3,4.9,7.4c-0.1,1.1-0.7,3.2-1.5,4.6c-2.4,4.2-1.8,10.1,1.3,15.1c2.9,4.5,13,13.9,15,13.9
		c3,0,4.4-16.2,1.8-22.3c-1.9-4.8-7.1-9.5-11.2-10.3c-2.7-0.5-3.9-1.5-5.4-4.3c-1-2.1-2.5-4.3-3.3-5c-1.4-1.1-1.2-2.1,1.3-8.2
		c3.9-9.3,10.4-29.5,12.6-39.2c1.9-8.3,3-9.2,7-5.9c3.8,3,4.6,5.9,3.9,13.3c-0.6,6-0.4,7.2,1.5,9.9c1.2,1.6,4.2,4.2,6.7,5.6
		c5.6,3.3,6.5,2.4,6-5.9c-0.3-4.6-0.9-6.3-3.1-8.6c-1.6-1.6-4.2-3.5-5.8-4.2c-1.9-0.8-3.5-2.5-4.5-5.1c-1.4-3.5-5.6-8.1-8.3-9
		c-0.7-0.2-0.5-3.7,0.5-10.8c0.9-5.8,1.9-16.1,2.3-22.9c0.5-8.2,1.1-12.6,1.9-12.8c0.6-0.3,2.4,1.5,4,3.8c2.4,3.6,2.8,5.3,2.8,11
		c0,6,0.3,7.1,3.1,10.6c3.8,4.7,10.8,9.8,12.3,8.9c1.8-1.2,1.2-9.3-1-14.1c-2.4-5.1-8-10.5-11-10.5c-1.2,0-2.3-1-3-2.7
		c-0.6-1.5-2.6-4.6-4.5-6.9l-3.4-4.2v-27.6c0-27.6-1.3-44.3-4.4-56.3c-1.8-7-0.5-7.7,4.8-2.4c3.9,4,4.1,4.4,4.2,10.6
		c0.1,5.7,0.5,7.1,3.7,12c4.2,6.2,11.1,11.5,12.9,9.7c1.6-1.6,2.2-10.5,0.9-14.4c-1.4-4.3-6.5-9.6-11.1-11.7
		c-2-0.9-6.8-4.8-10.6-8.6l-7.1-7l-4.8-14.4c-2.9-8.5-8.8-22.4-14.6-34.2c-6.9-13.9-9.3-19.9-8.3-19.9c2.3,0,9,3.7,12.9,7.1
		c3.2,2.8,3.5,3.6,3.5,8.6c0,2.9,0.6,6.6,1.4,8.1c3.4,6.4,14.2,13.9,22.5,15.7l3.4,0.7l-0.5-7c-0.9-13-6-19.1-17.5-21.5
		c-4.8-1-7-2.1-10.6-5.4c-5.2-4.8-9.1-7-14.3-8.1c-3.5-0.7-4.3-1.7-13.9-17.2c-5.5-9.1-13.8-22-18.3-28.7
		c-4.5-6.7-8.2-12.5-8.2-12.8c0-1.1,4.2-0.4,9.7,1.7c4.3,1.6,7.4,3.8,12.3,8.7c9.7,9.9,19.5,14,33.3,14.1c7.6,0,8.1-0.7,4.2-6.1
		c-6.7-9-20.6-14.9-35.6-14.9c-5.4,0-7.5-0.5-12.1-3c-3-1.6-7.4-3.1-9.7-3.4c-4.9-0.4-5.2-1.1-2.1-4.3c3.9-4.1,7.8-5.5,12.9-4.9
		c15.1,1.9,21.9,1.9,28.8-0.2c7.5-2.4,11.7-4.8,10.7-6.4c-0.4-0.5-3-2.1-5.8-3.4c-9.4-4.4-23.2-2.6-32,4.1c-2.5,1.9-6.2,3.9-8.3,4.4
		c-2.1,0.6-5.5,2.2-7.5,3.6s-4.1,2.5-4.5,2.5c-0.4,0-2.7-2.6-5-5.8c-8.9-12.2-23.7-27.4-38.3-39.3c-4.4-3.6-4.4-3.6-2.1-4.8
		c1.2-0.7,5-1.9,8.4-2.6l6.2-1.3l-4.4-0.1c-2.5-0.1-7,0.6-10.2,1.5l-5.7,1.6l-9.9-6.5c-5.4-3.5-11.3-7.3-13-8.3
		c-1.8-1-3.3-2.1-3.3-2.5c0-0.3,7.5-0.9,16.8-1.2c16.1-0.5,27.2-2.4,27.2-4.6c0-0.5-2.4-1.9-5.2-3.1c-4.1-1.8-7.9-2.4-16.4-2.8
		c-13.3-0.6-16.9,0.4-21.9,5.9l-3.6,4l-21.2-10.4c-11.7-5.8-25.6-12.2-31-14.2c-5.4-2.1-9.6-4.2-9.4-4.8s1.4-1.9,2.8-2.9
		c2.4-1.8,2.6-1.8,7,0.1c10.9,4.8,31,4.8,41.9,0l4.5-2l-4-2.5c-9.9-6-25.1-7.9-36.2-4.6c-3.8,1.2-8.1,3-9.4,4
		c-1.3,1.1-4.8,3.1-7.8,4.6l-5.4,2.7l-6.1-2c-18-5.9-42-10.1-66.3-11.7c-5.7-0.4-10.3-1.1-10.3-1.5c0-2.5,4.2-4.9,8.8-4.9
		c12.5-0.1,26.2-6,34.3-14.7c7.5-8.3,7.2-8.6-6.4-4.7C477,82.7,467,87,462.4,90.5c-4.5,3.5-5.4,3.2-5.4-1.9c0-8.5-2-9.6-8.8-4.6
		c-5.6,4-7.1,8.9-4.8,15.6c0.9,2.6,1.6,4.8,1.6,4.9s-10.2,0.5-22.7,0.8c-23.9,0.6-37.3,1.6-58.6,4.3c-7,0.9-13,1.4-13.4,1
		c-1.1-1,1.6-8.2,4.1-10.9c2-2.1,3.3-2.6,7.8-2.6c15.4,0,34.5-15.2,31.3-25C392.7,69.6,390.7,69.5,383,71.6z M399.1,112.5l-3.3,0.6
		l3.8,2.1c5.3,2.8,16.2,10.9,20.2,15c3.2,3.4,3.2,3.5,1.3,5.2c-4.8,4.3-15,5.7-23.4,3.2c-9.6-2.9-14.7-9.3-14.7-18.6
		c0-2.9-0.4-5-1.1-5c-2.4,0-39.1,6.2-48.6,8.2c-5.7,1.2-10.3,2.5-10.3,2.9c0,0.4,1.8,1,3.9,1.4c8.2,1.4,32.8,15.9,31.8,18.8
		c-0.2,0.7-3.5,2-7.3,3c-8.7,2.3-18.2,1.7-25-1.5c-5.9-2.7-12.4-9-14.3-13.8c-0.8-1.9-1.6-3.7-1.7-3.9c-0.2-0.2-6.3,2.6-13.6,6.2
		c-15.3,7.5-28.8,16.2-37.4,24.1l-5.9,5.5l3.5-0.7c1.9-0.4,7.3-0.7,12-0.7c8.2,0,8.8,0.2,16.9,4.6c4.7,2.5,8.6,5,8.8,5.6
		c0.8,2.3-14.5,7.2-22.4,7.3c-3.4,0-20.5-3.3-28.8-5.5c-4.8-1.3-47.7,39.2-66.7,63c-4.9,6-8.8,11.2-8.8,11.6c0,0.4,2.3,0,5.1-0.9
		c4-1.3,5.7-2.6,8.4-6.3c7.8-11,21.1-16.1,36.9-14.5c8.8,1,9.3,1.4,7.2,6.9c-2.4,6.5-8.6,13-14.8,15.8c-4.7,2.1-6.6,2.4-17.3,2.2
		c-10.8-0.2-13,0.1-21.5,2.7c-6.7,2.1-10.4,3.8-12.2,5.7c-7.7,8.2-30.6,49.8-33.3,60.6c-0.6,2.2-0.3,2.5,3.1,3
		c3.5,0.6,3.9,0.3,10-6.1c3.8-4.1,6.3-7.6,6.4-9c0.1-6.9,6.7-14.1,15.2-16.7c6.9-2,7.7-1.9,8.8,1.1c2.9,7.6-6.6,19.3-18,22.4
		c-3.4,0.9-9.9,6.4-8.9,7.4c0.3,0.3,3.7,0,7.7-0.6c6.4-0.9,7.4-1.4,9.8-4.5c1.5-2,5.1-4.7,8.3-6.2c5.3-2.5,6.4-2.6,22.3-2.6
		c19.2,0,20.4,0.4,17.4,6c-2.5,4.5-10.7,10.1-18.5,12.6c-7.3,2.2-17.8,2.4-23.5,0.4c-3.4-1.2-4.7-1.2-10,0.3
		c-4.4,1.2-9.9,1.7-19.9,1.7l-13.7-0.1l-2,6.6c-3.4,11.8-5.9,22.3-7.9,34.5c-2.1,12.3-4.6,37.3-3.9,38.1c1.1,1,10-5.9,13.7-10.6
		l4.1-5.2l-0.6-6.8c-0.6-6.2-0.4-7.4,2.4-13.4c3.7-8,10.5-14.9,18.9-19.4c8.3-4.4,9.9-4.2,11.4,1c1.9,6.6,1.7,17.6-0.4,23
		c-2.6,6.8-9,12.2-17.4,14.8c-6,1.8-7.1,2.5-9.5,6.3c-1.5,2.3-3.9,5.3-5.3,6.7c-1.4,1.3-2.5,2.7-2.5,3.2c0,0.4,2.4,0.8,5.3,0.8
		c4.3,0,5.8-0.5,7.3-2.1c3.6-4.1,10.2-6.2,20.9-6.7c11-0.4,15.5,0.6,15.5,3.6c0,2.6-3.5,6.9-7.2,8.8c-4.8,2.5-18,4.5-23.1,3.5
		c-2.4-0.4-8-0.6-12.3-0.4c-4.3,0.3-9.7,0.1-11.9-0.4c-2.5-0.6-5.1-0.6-6.9,0l-2.9,1l0.6,16.6c0.4,9.1,1.3,21.1,2.1,26.6
		c3.1,22,4,27.5,4.6,27.5c1.5,0,6-5.9,7.9-10.3c1.6-3.6,1.8-5.3,1.1-7.3c-1.4-3.6-1.2-12.2,0.4-16.7c3.1-8.6,10-14.9,17.7-16.2
		c5.2-0.9,7.3,1,8.9,7.7c2.1,8.4-0.5,18.3-6.3,24.6c-2.7,2.9-8.9,6.2-11.7,6.2c-1.5,0-2.7,1.5-4.7,5.5c-1.4,3.1-4.6,7.9-7.1,10.6
		l-4.5,5.1l1.8,7.6c2.7,11.5,7.8,25.8,16.2,44.7c4.2,9.3,7.7,17.2,7.9,17.4c0.8,0.9,3.3-2.3,5.3-6.4c2.3-4.8,2.7-9,1.1-10
		c-0.6-0.4-1.9-2.4-3-4.5c-2.4-4.8-2.6-13-0.5-19.1c1.8-5.1,7.4-13.6,9.4-14.4c1.9-0.7,8,6,10.7,12c1.7,3.6,2.4,6.8,2.4,11.4
		c0,7.5-2,11.5-7.8,15.3c-3,2-4,3.5-5.1,7.6c-0.7,2.8-2.2,6.3-3.3,7.7c-2.2,2.8-1.1,3.2,3.7,1.1c1.9-0.8,3.8-2.9,5.5-6.1
		c2-4,3.5-5.5,8.1-7.8c3.6-1.8,7.3-2.9,10.5-3l4.9-0.2l-0.1,4.6c-0.4,9.4-5.1,13.9-14.7,13.9c-3.3,0-6.9,0.8-9.6,2.1
		c-2.3,1.1-6.5,2.3-9.2,2.6c-2.7,0.3-4.9,0.8-4.9,1.1c0,0.3,3.9,8.4,8.6,18.1l8.6,17.6l1.3-4c1.8-6.2,3.9-9.6,8.9-14.5
		c4.4-4.3,4.6-4.3,6.1-2.5c2.2,3,5.5,12.2,5.5,15.6c0,5.8-4.5,12-12.9,17.6c-0.6,0.4,6.6,11.9,12.5,19.9c6.1,8.4,27.1,31.2,37,40.3
		c8.5,7.8,23.2,18.8,34.4,25.9l8.5,5.3l0.3-4.2c0.3-3.7-0.1-4.6-3.7-8.3c-6.4-6.6-9.7-16.2-7.5-22c1-2.6,5.8-1.9,11,1.7
		c8.5,5.7,11.9,16.4,7.3,22.8c-2,2.8-2,3-0.3,8.9c0.9,3.3,2,6,2.3,6c1.2,0,6.1-11,6.1-13.6c0-6.7,6.7-14.1,15.5-17.1
		c4.6-1.5,4.9-1.5,6.2,0.3c1.8,2.4,0.9,7.6-2.3,13c-3,5.3-7.4,9-12.5,10.5c-4.6,1.4-5.4,2.3-6.3,6.6c-0.6,2.6-0.3,3.4,1.6,4.7
		c10.2,6.5,65.8,25.3,65.8,22.2c0-2.6-3.5-5.8-9.3-8.5c-12.3-5.5-20.3-19.5-14.9-26.1l1.8-2.3l6.2,2.8c9.6,4.3,18.1,15,18.2,22.8
		c0,1.6,1.6,5.5,3.5,8.6l3.6,5.8l15.7,3.8c16.2,3.9,36.3,7.7,37.1,6.9c0.9-0.9-3.3-4.4-5.4-4.4c-3.3,0-12.2-4.8-15-8.2
		c-3.9-4.6-7.2-11.7-8-17.1c-0.9-5.8-0.7-5.8,11.1-1.6c12.9,4.7,18.4,10.5,18.4,19.4c0,2.4,1,4.9,2.7,7.3c3.9,5.4,5.2,6.2,10,6.2
		c5.5,0,5.7-1.8,0.8-6.7c-2-2-4-4.4-4.5-5.4c-1.7-3.2-1.1-11.1,1.1-14.8l2-3.4l3.1,2.9c4.2,4,5.8,8.2,5.8,15.4c0,3.5,0.6,7.4,1.5,9
		l1.6,3H447h11l-0.6-4.3c-0.6-3.9-0.3-4.8,2.5-8c3.1-3.4,3.2-3.9,2.9-11.3l-0.3-7.8l-12.3-3.2c-6.8-1.7-12.8-3.6-13.5-4.3
		c-0.6-0.6-2.5-1.1-4.2-1.1c-3.9,0-13.6-2.8-15.2-4.4c-1-0.9-0.7-7.8,1.2-33.1c3.1-40.8,3-38.5,1.1-42c-2-3.8-2-9,0-16.8
		c1.4-5.5,1.4-6.1,0-6.9c-4.7-2.6,2.4-23.9,10.2-30.8c2.4-2.2,4.9-4,5.4-4s-0.1-1.3-1.3-2.9c-3-4.1-2.1-8.4,4-19
		c4-7,5.3-10.4,6.6-17.6c3.5-19.2,6.7-34.8,7.5-37.1c0.9-2.2,0.7-2.4-2.3-2.5c-1.7,0-11.6-0.4-21.9-0.8l-18.7-0.7l-7.8-4.8
		c-16.7-10.1-42.9-30.4-46-35.7c-1.3-2.1-2.5-2.9-4.6-2.9c-3.8,0-8-2.6-10.1-6.1c-0.9-1.6-3.2-4-5-5.4c-4-3.1-6.1-7.5-5.2-11
		c0.5-2,0-3.4-1.9-5.6c-3-3.7-3.2-6.3-0.5-10.6c2.4-4,1.8-8.6-1.4-10.1c-2.3-1-5.6-6.7-5.6-9.5c0-0.8,0.9-2.6,2-4
		c1.1-1.4,2-3.4,2-4.5c0-1,0.9-2.7,2-3.7s2-3,2-4.5s0.6-3.3,1.4-3.9c1.1-1,1.1-1.7,0-4.9c-0.7-2-1.3-4.8-1.4-6
		c0-1.5-0.5-2.2-1.2-1.9c-0.9,0.3-1.2,2-1,4.8c0.2,2.4,0.1,6.2-0.3,8.5c-0.6,3.9-0.7,4.1-5.6,5.2c-2.8,0.7-5.5,1.2-6.1,1.2
		c-2,0-0.1-15.1,3.2-25.5c4.9-15.4,5.1-14.1-1.7-14c-5.3,0-5.8-0.2-5.6-2.1c0.1-1.3-1.2-3.4-3.2-5.4c-1.9-1.9-3.5-3.7-3.5-4
		c0-0.3-2-2.8-4.5-5.4c-2.4-2.6-4.7-5.5-5-6.5c-0.3-0.9-2.5-3-4.7-4.6c-5.8-4.2-5.9-5.5-0.6-5.5c6.3,0,17.9,3.5,29,8.7
		c5.3,2.5,10.3,4.3,11.1,4c0.9-0.3,1.5-2,1.5-4.6c0.1-4.9,2.3-8.5,6.4-10.2c2.6-1.1,3.8-1,7.8,0.4c2.6,0.9,7.3,1.7,10.4,1.7
		c6.8,0,6.6,1-1,4.6c-6.3,3-7.2,5-5.4,12.5c2.3,9.4,0.1,17.1-7.1,25.3c-2.1,2.4-3.9,4.9-3.9,5.5c0,0.6-0.5,1.1-1.1,1.1
		s0.3,1.7,1.9,3.8c3.3,4.1,10.2,16.8,12,21.9c0.6,1.8,1.8,3.3,2.6,3.3c0.9,0,2.6,1.8,3.8,4c1.4,2.4,2.9,3.9,3.8,3.7
		c2.5-0.6,6.8,2.1,8.7,5.3c1.4,2.5,2.4,3,5.6,3c5.4,0,10.7,3.1,14.6,8.5c1.8,2.5,3.5,4.4,3.7,4.2c0.2-0.2-0.3-2.4-1.2-4.8
		c-1-2.6-1.7-7.6-1.8-12.4c-0.1-7,0.3-8.8,3-14.5c1.7-3.6,5-8.3,7.2-10.5c2.3-2.2,4.2-4.3,4.2-4.8c0-0.4-1.3-2.5-2.9-4.7
		c-3.6-5-5.5-12.5-4.8-19.3c0.4-4.6,0.1-5.7-2.5-9.5c-8.8-12.8-8.8-27.5,0.2-45.8c5.1-10.2,11.4-18,21.3-26.4
		c6.1-5.1,8.5-8,11.3-13.5c9-17.4,22.6-33.4,37.8-44.8c14.3-10.5,36.4-19.7,47.6-19.7c3.3,0,6.8-1.2,13.8-4.7
		c15.4-7.8,25.7-7.1,36.2,2.3c2.3,2.1,5.6,6.2,7.2,9c2.8,5.1,3,5.2,6.1,4.3c8.3-2.4,20.8-0.1,27.3,5c1.5,1.1,3.4,2.1,4.4,2.1
		c0.9,0,4.4,1.4,7.8,3.1c4.7,2.3,7.6,4.8,12.5,10.7c26.8,32.2,42,73.9,38.7,106c-1.2,11.5-3,18.3-9.4,35
		c-4.2,11.1-4.6,12.9-4.6,21.1c0,9.7,1.2,14.3,7.5,29.5c4.6,10.9,5.5,19.1,3.1,26.5c-0.9,2.7-1.6,7.9-1.6,11.6
		c0,8.7-2.5,20.7-5.8,27.5c-3.5,7.2-14.2,17.9-21.4,21.4c-8.7,4.2-21.8,7.2-21.8,4.8c0-0.4,1.2-1.8,2.6-3.1
		c3.5-3.3,5.2-6.9,7.5-15.8c2.7-10.6,2.4-13-0.8-6.3c-3.1,6.6-13.8,17.4-20.6,21l-4.7,2.5V519c0,20.5,1.7,41.4,4.1,52
		c2,8.3,2.1,10.4,1.2,16.9c-0.7,4.4-1.7,7.9-2.6,8.6c-1.3,0.9-1.3,2.3,0.4,11c1,5.5,4.6,27.8,7.9,49.5c3.3,21.7,6.3,41.2,6.6,43.3
		c0.3,2,1,3.7,1.4,3.7c1.6,0,21.4-14.2,31.9-22.8c19.8-16.3,33.6-31.5,46.6-51.5c3.1-4.9,5.5-9,5.3-9.2c-1.1-1.1-8.4,2.6-10.1,5.1
		c-7,10.1-16.7,15.8-28.2,16.6c-4,0.3-4,0.3-4.3-3.4c-0.4-5,2.8-11.9,7-15.1c5.5-4.3,10.4-5.8,21.4-6.7c7.5-0.6,11.7-1.4,15.7-3.3
		c4.9-2.2,6-3.3,9.8-9.8c4.9-8.3,19.2-39.9,18.5-40.7c-0.3-0.2-1.6-0.2-2.9,0.2c-1.7,0.4-4,3-7.1,8.1c-2.6,4.1-6.8,9.6-9.4,12.1
		c-4.6,4.7-16.8,11.4-20.6,11.4c-1.7,0-1.8-0.5-1.3-5.4c0.7-6.8,3.8-14.1,8-18.5c3.3-3.5,13.8-9.1,17-9.1c1,0,5.1-1.3,9-2.8
		c4-1.6,8.4-3.2,10-3.6c1.5-0.3,2.7-1.3,2.7-2c0-1.5-4.9-0.3-16,3.9c-2.5,0.9-7.7,1.7-11.7,1.8c-5.8,0.2-7.7-0.2-9.9-1.9
		c-3.2-2.3-5.1-5-4.2-5.9c1.1-1.2,19.4-3.5,27.6-3.5c6.2,0,9.6-0.5,13.3-2.1l4.9-2.1l4.5-14c4.5-13.9,7.8-28.3,9-38.8l0.7-5.5
		l-3.5,3.6c-2.9,3-3.5,4.5-4,9.9c-0.9,8.3-3.7,13.9-9.7,19.3c-5.5,5-15.5,10.6-16.7,9.3c-0.4-0.4-0.8-5.3-0.8-10.9
		c0-9.2,0.3-10.6,2.7-14.7c2.8-4.9,10.8-10.5,16.5-11.6c2.4-0.5,5.1-2.6,9.7-7.8l6.4-7.2l1.1-13.9c1.6-20.4,2.5-51.2,1.5-50.2
		c-0.5,0.5-0.9,4.8-0.9,9.6c0,7.8-0.3,9.3-3.3,15.3c-3.2,6.5-12.4,16.4-14.2,15.3c-1.4-0.9-3-9.3-3-15.7c0-8.7,3.4-15.4,10.1-20.3
		c2.7-1.9,4.9-4.1,4.9-4.7c0-0.7,1.3-4.1,2.9-7.4l2.9-6.2l-1.4-11.3c-1.4-11.4-4.1-26.6-5-28.1c-0.6-0.9-5.6,2.8-11.2,8.1
		c-2.3,2-2.9,3.4-2.5,5c0.9,3.5-1.7,10.7-5.3,15c-3.5,4.1-17.7,12.1-19,10.8c-0.4-0.4-0.8-3.5-0.8-7c0.1-10.3,5.5-18,16.1-22.7
		c4.6-2,12.3-8.5,12.3-10.3c0-0.5-2.6-0.5-5.7-0.2c-4.5,0.6-6.9,1.6-10.8,4.5c-11,8.4-22.6,12.3-35.2,11.8l-7.8-0.3l0.3-2.9
		c0.9-7.8,8.9-16.5,17.6-19.1c8.5-2.5,17.4-2.9,24.4-1.1c5.4,1.4,7.7,1.4,15.8,0.4c5.2-0.6,9.4-1.5,9.4-2c0-4.8-27.4-62.1-29.4-61.5
		c-0.6,0.2-1.9,2.7-2.8,5.6c-1.5,4.8-1.6,5.6-0.3,8.2c2.1,4,1.8,10.6-0.6,15.7c-2.8,5.7-15.2,18.7-16.9,17.7c-2.2-1.3-5-8.9-5-13.5
		c0-5.9,2.8-11.8,8.3-17.7c2.4-2.7,5-6.6,5.7-8.8s2.7-6.7,4.5-10.1l3.4-6l-7.7-13.2c-9.7-16.7-21.6-33.7-32.8-47.1
		c-9-10.8-29.4-31.6-34.5-35.2l-2.9-2v3.1c0,2.6,0.6,3.3,3.3,4.5c3.7,1.5,6.7,4.6,9.3,9.5c1.5,2.7,1.9,5.7,1.9,13.2
		c0,6-0.4,10.1-1.2,10.8c-1.5,1.6-10.5-2.9-15.7-7.8c-6.6-6.3-8.3-13.9-5-22c0.9-2.5,1.4-6.2,1.2-10.3l-0.3-6.4l-6.5-4.3
		c-9.7-6.4-35.7-21.1-50.5-28.5c-14.1-7-32.5-15.1-33.1-14.5c-0.2,0.2,1.4,2.8,3.6,5.6c8.1,10.9,13.4,26.3,9.5,27.8
		c-2.7,1.1-16.3-2.3-23.2-5.6c-7.1-3.5-9.9-6.8-11.6-13.9l-1.1-4.9l-3,1.5c-1.6,0.8-5.3,2.3-8.2,3.3c-4.6,1.6-5.3,1.7-5.8,0.3
		c-1.1-2.7-0.6-9.4,0.9-12.2c1.8-3.5,6.9-7.9,10.1-8.7c1.3-0.3,2.4-1,2.4-1.4c0-1-17.8-4.7-31.5-6.5
		C461.8,109.9,414,109.9,399.1,112.5z M658.3,163.8l-4.2,1.7l2.5,3.2c5.3,6.8,23.8,9.2,33.7,4.4c2.6-1.2,4.7-2.6,4.7-3.1
		c0-1.1-8.4-4.5-15.6-6.4C671.5,161.6,663.6,161.6,658.3,163.8z M535.9,185.4c-13.5,4.8-49.1,29.9-67.3,47.5
		c-3.7,3.6-6.4,5.7-5.8,4.6c2.4-4.8,25.5-24.7,41.8-36.1c5.4-3.8,9.2-7,8.4-7.2c-0.9-0.1-5.8,0.8-11.1,2.2
		c-22.5,5.7-44.3,21-60.3,42.4c-5.7,7.5-14,21.1-13.3,21.8c0.1,0.1,2.7-1.3,5.7-3.2c5.8-3.7,18.2-10.2,16.5-8.7
		c-0.5,0.5-6.8,4.8-14,9.5c-23.6,15.7-31.9,23.9-39.5,39.3c-5.6,11.4-7.6,20.9-6.1,29.3c1.3,6.8,3.9,13,6.4,15.1
		c1.3,1,2,0.3,4.7-4.7c1.7-3.2,5.8-9.3,9.1-13.5c6-7.4,6.1-7.8,6.3-14.1c0-3.5-0.2-6.2-0.7-5.9c-0.9,0.6-4.5,7.6-6.2,12.2
		c-1,2.6-1.4,3-1.4,1.5c-0.1-3.4,6.3-15.1,13.5-24.9c7.4-9.9,43.2-46.5,45.5-46.5c0.8,0-3.8,5.1-10.1,11.3
		c-21.8,21.3-22.9,22.7-25,30.3c-2.8,10.5-3.2,12.6-2.2,12.2c0.5-0.1,5.3-5.5,10.7-11.8c5.3-6.3,10.2-12,10.7-12.5
		c4.5-4.2-12.8,17.9-30,38.3c-17.2,20.6-21.5,27.7-22.8,37.8c-1.5,12.7,4.5,21.6,22.1,32.3c12.1,7.3,15.6,11.1,15.4,17l-0.1,3.6
		l-0.8-3.3c-1.3-5.7-3-6.3-3-1c0,8.4-6.3,14.5-16.2,15.4c-3.8,0.3-4.7,0.2-3.3-0.5c1.1-0.5,3.1-1,4.5-1c4-0.1,9.2-3.5,11.2-7.2
		c1.1-2.1,1.8-5.5,1.8-9.1V392l-5.1-2.8c-2.8-1.5-7.9-4.6-11.5-7c-3.5-2.3-6.8-4.2-7.2-4.2c-1.4,0-9,8.5-11.1,12.4
		c-5.1,9.7-4.8,20.2,0.8,32.3c3.6,7.6,11.6,15.4,16.9,16.6c2.1,0.4,13.3,0.7,25.1,0.7l21.3-0.2l5.2-4.1c8.1-6.7,16.7-10.1,25.6-10.2
		c4.1-0.1,10.1-0.9,13.3-1.9c5-1.5,6-2.3,7.7-5.7c1.1-2.1,2.9-4.5,4-5.1c2-1.3,2.8-3.8,1.2-3.8c-0.4,0-4.4-0.5-8.8-1
		c-10.1-1.3-21.1-5-28.6-9.5c-3.1-1.9-5.9-3.5-6.2-3.5c-0.3,0-0.6,1-0.6,2.2c0,2.7-2.4,5.9-6.2,8.2c-1.4,1-3.8,4.1-5.2,7
		c-3,6.1-11.2,14.4-17.5,17.6c-6.2,3.1-6.2,1.7,0.1-2.3c6.8-4.4,14.4-12.5,16.9-18.2c1.1-2.4,2.6-7.2,3.4-10.7l1.5-6.3l-0.6,6
		l-0.5,5.9l3.1-2.9c4.2-4,4-7.3-1-13c-8.1-9.4-9.5-14.8-6.1-24.7c1.9-5.4,1.9-5.4-0.4-10.9c-1.2-3.1-3.9-10.6-6-16.9l-3.8-11.4
		l-8,8.3l-8,8.3l0.5,7.1c0.6,8.3,3.7,15.9,9.3,22.5c2,2.3,3.2,4.2,2.6,4.2c-1.6,0-9.1-9.9-11.3-14.7c-1-2.3-2.2-6.8-2.6-10l-0.8-5.8
		l-2.3,4.4c-1.4,2.7-2.6,7.3-3,11.5c-0.6,6.1-0.9,6.7-1.6,4.1c-1-3.6,0.7-12.1,3.6-18.3c1.4-2.7,8.2-10.6,17.4-20.1
		c8.3-8.6,18.6-20.3,22.9-26c10.4-14,28.1-40.6,34-51.2c2.6-4.7,7.1-11.6,9.9-15.4c13.6-18.2,37.6-26.2,48.6-16.2
		c3.2,3,6.1,9.5,6,13.7c-0.1,3.2-0.2,3.1-1.3-1.6c-1.6-6.8-4.7-10.8-9.6-12.8c-5.3-2.1-10.5-2-17.8,0.2C525.9,221,516.8,230,504,252
		c-8.5,14.4-20.3,32.5-30.2,45.8c-3.7,5-6.8,9.4-6.8,9.7c0,1.4,10.2-4.8,14.8-9c7.2-6.5,13-15.7,22.8-36.2
		c9.8-20.6,14.2-29.4,15.6-30.8c0.5-0.6,0.4,0.3-0.2,1.9c-0.6,1.6-0.9,3-0.7,3.2c0.2,0.3,2.3-0.3,4.7-1.1c6.4-2.3,12.8-1.9,18.8,1.1
		c2.9,1.4,5.2,2.9,5.2,3.4c0,0.4-2.1-0.4-4.7-1.7c-4.1-2.1-5.8-2.4-11.3-2c-3.6,0.2-8.4,1.2-10.7,2.1c-3.5,1.5-4.5,2.6-6.6,7.4
		c-1.3,3.1-2.3,5.8-2.2,6c0.7,0.8,9.2-2.1,10.3-3.6c1-1.3,2.9-1.7,8.7-1.7c5.2,0.1,7.6-0.3,7.9-1.2c1-2.5,9-0.5,13.5,3.2
		c1.6,1.4,3.1,2.5,3.3,2.5s0.5-1.6,0.6-3.5c0.3-4.1-0.9-6.8-5.1-11.2c-1.7-1.8-2.7-3.6-2.3-4c1.3-1.3,8.5,7.6,9.2,11.3
		c0.8,4.1,1.5,3.8,2.4-1.3l0.8-3.8l0.1,4.1c0,2.2-0.3,4.4-0.8,5c-1.7,1.6-0.1,6.4,2.1,6.4c1.4,0,1.8,0.5,1.4,1.5
		c-0.3,0.8,0.3,1.9,1.4,2.5c2.5,1.4,3.1,1.3,2.8-0.4c-0.2-0.8,0.2-1.5,0.7-1.6c1.4-0.3,8.8,18.5,11.5,29
		c4.9,18.7,10.1,36.9,12.4,43.5l2.5,7l-0.5-12.5c-1-24-4.2-39.5-12.4-61.4c-2.2-6-3.8-11.1-3.6-11.4c1-0.9,6.2,11.7,10,23.8
		c5,16.1,6.6,26.2,7.5,46.8c0.6,14.3,1.1,18.5,2.4,20.6c2.2,3.3,2.1,3.9-0.2,2.6c-1.1-0.5-2.3-1.9-2.6-3c-1-3.1-2.5-2.4-2.5,1.2
		c0,5-2.6,16.2-5,21.4c-2.4,5.6-3.8,5.4-1.4-0.1c1.8-4.4,4.4-17.2,4.4-21.8v-3.1l-3,3.4c-5.8,6.7-14.6,20.6-17.2,27.1
		c-4.5,11.1-6.2,21.8-4.9,30.2c1.8,12.4,4.5,19,11.8,29.7l1.7,2.5l-2.2-1.9c-5.9-5.1-11.2-17.1-13.5-30.4l-1.2-7l-6.7,3.9
		c-6.1,3.6-10.8,8.7-10.8,11.7c0,0.7,1.3,1.8,2.8,2.6c2,1,3.7,3.4,5.6,7.9c2.5,5.9,3.2,6.7,8.7,9.8c12.5,7.1,21.3,16.1,27,27.4
		c4.7,9.6,6,15.7,6.6,32.2l0.6,15.3l4-2.3c6.2-3.4,16-13.7,19.1-19.8c3.8-7.8,4.3-14.1,1.8-20.7c-2.6-6.9-0.3-5.1,2.8,2.1
		c2,4.5,2.2,6.3,1.7,14.7c-0.5,10.5-3.4,21.1-6.9,25.5l-2.2,2.8l3.9-0.6c6.1-1,18-7.2,23.3-12.2c5.5-5.1,10.1-13,12.8-22
		c1.4-4.6,1.8-9.2,1.7-19.1c0-7.2-0.4-14.2-0.8-15.5c-0.4-1.4-0.4-2,0.1-1.6c0.5,0.5,1.4,2.5,2,4.5l1.1,3.7l0.8-5
		c1-6.5-0.4-13.2-5.1-23.7c-3.9-8.8-6.3-17.1-6.5-22.8c-0.1-1.9-0.3-2.6-0.6-1.5c-0.2,1.1-0.6,3-0.9,4.3c-0.8,3.7-2.3,1.5-1.7-2.6
		c1-7.3,3.5-15.5,8.7-29.5c6.8-18.1,8.6-26.8,8.6-41.7c0-19.9-4.1-35.4-15.4-58.6c-7.8-16-11.6-22.2-21.3-34.1
		c-8.7-10.8-15.9-15.3-24.5-15.3c-2.6,0-4.8-0.5-4.8-1c0-0.6,0.5-1,1-1c2.8,0,0.4-2.1-4.5-3.9c-5.5-2.1-13.5-2.6-18.5-1.2
		c-2.5,0.7-2.5,0.7-2.2,10.8c0.4,10.1-1.7,21.5-4.1,23c-0.7,0.4-0.8-0.1-0.3-1.3c0.4-1,1.4-5.4,2.2-9.8c3.1-17.6-4.1-34.2-17.9-41
		C549,183.7,541.9,183.2,535.9,185.4z M544,248.6c0,1.3-0.8,1.4-4.7,0.8c-7.2-1.1-9.7-1-10.8,0.2c-0.5,0.6-3.5,1.6-6.5,2.3
		c-10.3,2.3-11.3,3.2-18.5,17.9c-7.4,15.1-12.4,22.8-18.7,28.9c-4.8,4.6-14.5,10.8-18.6,11.9c-2.6,0.6-11,9-10,9.9
		c0.2,0.3,1.9-0.6,3.7-1.9c1.7-1.3,5.2-2.9,7.7-3.6c2.5-0.7,4.9-2.2,5.5-3.2c1.1-2,1.1-1.9,3.7,0.4c1.5,1.4,4.8,3.7,7.5,5.2
		c4.9,2.8,8.4,7.2,11.2,14.1l1.7,4l-4.7-5.3c-2.6-2.8-5.1-5.2-5.6-5.2c-1.5,0-4.9,6.3-4.9,9c0,3.7,1.4,5.3,4.7,5.4
		c2.7,0.1,2.8,0.3,3.1,5.9c0.5,9.8-5.4,19.9-10.7,18.2c-3.3-1-6-5-7.6-11c-2.5-9.9-0.1-17.1,8.4-24.7l5.1-4.6l-2.8-1
		c-5.6-2.2-7.3-2.3-13.2-0.6c-3.7,1-7.9,1.5-11,1.2c-3.4-0.4-5-0.1-5,0.6c0,1.5,7,22.1,10,29.6l2.2,5.5l-2.2,6.3
		c-2.7,7.7-2.3,11.5,2,17.7c6.3,9.2,20.1,17.9,34.1,21.5c9.3,2.5,22.7,2.6,29.3,0.4c2.6-0.9,5-1.4,5.3-1c0.9,0.9-7.8,4.6-10.9,4.6
		H520v10c0,5.5,0.2,10,0.5,10s1.6-0.7,2.8-1.5s4.9-1.7,8.2-2.1c3.3-0.3,7.5-1,9.3-1.6l3.2-1v-8.2c0-7.6,0.2-8.6,3-12.4
		c1.7-2.4,5-5.2,7.8-6.6c8.1-4.1,9.1-5.4,11.2-14.2c3.3-14,9.8-26.1,21.5-39.8c3.1-3.7,5.4-7,5.2-7.3c-0.3-0.3-2.1,0-3.9,0.6
		c-4,1.3-6.5,0.7-17.3-4.5c-6.9-3.4-9.1-3.9-16.2-4.2c-9.3-0.4-15.2,1.1-22.3,5.8c-2.4,1.6-4.6,2.7-4.8,2.5
		c-1.1-1.1,7.1-9.4,11.9-12c4.9-2.7,6.3-3,14.4-2.9c5,0,10.6,0.2,12.5,0.4c1.9,0.2,4.9,0.1,6.6-0.3c2.9-0.7,3.1-0.6,2.7,1.5
		c-0.4,2,0.5,2.8,7.1,6c4.2,2.1,7.6,3.5,7.6,3.2c0-0.4-1.3-5-2.9-10.3c-1.6-5.3-4.8-16.7-7-25.3c-3.8-14.6-6.6-23.2-9.2-28.5
		c-0.6-1.1-3.3-3.3-6-4.8c-2.7-1.4-4.9-3.1-4.9-3.6c0-0.6-0.8-0.8-1.8-0.5c-1.2,0.4-2.7-0.5-4.7-3c-1.7-2-4.2-4.2-5.7-5
		C545.3,246.6,544,246.6,544,248.6z M430.6,286.3c-0.2-0.2-2.4,2.1-4.9,5.1c-3.6,4.4-4.9,7.1-6.1,12.5c-2.8,12.1-2.4,12.4,5.1,3.9
		c3.8-4.4,4.9-6.4,4.6-8.2c-0.3-1.3,0-4.8,0.6-7.7C430.5,289.1,430.9,286.5,430.6,286.3z M336.1,317.7c-2.3,2.2-3,3.9-3.4,8
		c-0.4,5-0.3,5.2,2.4,5.8c2.8,0.6,4.6,2.2,3.6,3.1c-0.5,0.6-15-4.8-23.9-8.9c-3.2-1.5-5.8-2.4-5.8-2.2c0,0.3,0.7,1.7,1.6,3
		c1.4,2.1,1.4,2.6,0.1,3.9c-0.8,0.8-3.2,1.6-5.3,1.8l-3.9,0.3l3.1,1.7c1.7,1,4.8,1.8,6.8,2c2.8,0.2,4.8,1.3,8.7,5
		c2.8,2.6,4.7,4.8,4.2,4.8s-0.8,1.3-0.5,2.9c0.2,1.6-0.8,6.4-2.3,10.7c-3.4,10.2-5.5,19-5.5,23.5c0,3.3,0.2,3.6,2.4,3.2
		c1.6-0.3,2.6-1.3,2.8-2.7c0.2-1.4,0.9-2,2.2-1.8c1.7,0.3,1.8-0.1,1.2-4.7c-0.4-2.8-0.9-5.7-1.1-6.4c-0.3-0.7,1.6-2.5,4.2-4.1
		c3.2-2,4.3-3.1,3.3-3.4c-0.9-0.3,0.1-1,2.5-1.6c2.8-0.8,5.1-2.6,8.2-6.4c5.1-6.2,6.8-11.9,5.7-18.2c-0.5-2.5-0.8-8-0.7-12.2
		l0.2-7.6l-3.1-1.1C339.6,314.6,339.4,314.6,336.1,317.7z M292.2,318.4l-3.7-0.6l3.4,2.6c1.9,1.4,4.3,2.8,5.3,3.2
		c1,0.3,1.8,1.1,1.8,1.7c0,1.1,10,5,10.8,4.2c0.2-0.2-0.7-1.9-2-3.9c-1.7-2.7-3.5-4-7.1-5.1C298,319.7,294.2,318.8,292.2,318.4z
		 M351.5,318c-0.8,0-1.5,0.4-1.5,1c0,0.5,0.7,0.7,1.5,0.4c0.8-0.4,1.5-0.8,1.5-1C353,318.2,352.3,318,351.5,318z M479.5,331
		c-0.1,0-0.9,0.8-1.7,1.7c-2.5,2.8-4.8,8-4.8,10.6c0,2.1,0.8,2.7,5.8,4.1c8.5,2.4,9.2,2.2,9.2-1.9c0-2.8-0.4-3.5-1.9-3.5
		c-3.5,0-6.5-3.4-6.5-7.4C479.6,332.6,479.5,331,479.5,331z M316,339.8c-1.1-1.8-2-2.5-2.4-1.9c-0.4,0.6-1.9,1.1-3.3,1.1h-2.7
		l2.7,2.8c1.5,1.5,2.7,3.6,2.7,4.6c0,1.6,0.6,1.8,4.1,1.3c5.2-0.7,5.8-1.4,3-3.3C318.9,343.5,317,341.4,316,339.8z M474.3,348.3
		c-1.9-0.7-1.6,2.5,0.6,7.4c2,4.2,4.6,6.4,6.9,5.6c1.2-0.5,5.2-7.4,5.2-9.1c0-0.4-2.6-1.4-5.7-2.1
		C478.1,349.4,474.9,348.6,474.3,348.3z M333,367c-3.1,0-2,7.2,2.6,16.1c1.3,2.6,2.1,4.9,1.8,5.2s-0.1,1.4,0.5,2.4
		c0.9,1.6,1,1.5,1.1-1c0-3.4,2.4-4.5,5-2.2c2.7,2.4,7.6,12.2,6.6,13.2c-0.5,0.4-1,0.3-1.2-0.2c-1.2-3.2-6.6-11.5-7.5-11.5
		c-0.6,0-0.7,2.6-0.3,7.4c0.4,5,0.3,7.5-0.5,8c-0.6,0.4-1.1,2.7-1.1,5.2c0,2.6-0.5,4.4-1.1,4.4c-1.1,0-1-2.8,0.7-14.8
		c0.4-2.7,0.2-4.2-0.5-4.2c-0.6,0-1.1,0.9-1.1,1.9s-0.7,2.1-1.5,2.5c-0.8,0.3-1.5,1.7-1.5,3.1c0,1.5-0.7,2.8-1.7,3.2
		c-2.8,1-3.4,2.5-2.7,6.8c0.7,4.1,4,12.1,5.4,13c2.5,1.5,13.3-12.6,16-20.9c1.1-3.4,1-4.4-0.3-7c-0.8-1.7-3.8-7.8-6.6-13.6
		s-6.4-12-8-13.8C335.5,368.5,333.6,367,333,367z M332.6,383c-2.7,0-2.1,8.4,0.9,11.7l2.4,2.8l0.1-4.3c0-2.4-0.7-5.6-1.5-7.2
		C333.6,384.3,332.8,383,332.6,383z M327.4,393.5c-0.6,1.5,3.4,9.5,4.8,9.5s0.9-3.7-0.9-7.4C329.4,391.8,328.3,391.2,327.4,393.5z
		 M327,400.6c-1.8-1.8-1.8-1.8-2.9,0.3c-0.9,1.7-0.8,2.9,0.5,5.6c2.1,4.5,3.1,4.4,3.7-0.3C328.6,403.5,328.3,402,327,400.6z
		 M358,403c-2.7-4.1-3-4.3-3-1.9c0,3.4-5.9,15.2-10.2,20.3c-3.3,4-11.2,9.6-13.5,9.6c-2.1,0-1.5-2.1,0.7-2.7
		c2.4-0.6,2.5-1.2,0.4-4.2l-1.7-2.4l-1.3,2.4c-2.1,3.8-1.7,4.8,3.4,9.5c5.7,5.3,8.3,5.5,14.1,1.4c6.4-4.6,14.1-18.5,14.1-25.3
		C361,408.5,359.6,405.5,358,403z M363.2,404c-0.4,0-0.7,2.6-0.7,5.8c0,9.7-8.6,24.6-16.6,28.8c-3.2,1.6-9.5,1.9-10.4,0.4
		c-1.2-1.9-3.5-1-3.5,1.2c0.1,2.9,15,18.8,17.6,18.8c5.4,0,11.9-7,16-17.1c7.1-17.1,7.2-28.6,0.5-35.7
		C364.9,405,363.6,404,363.2,404z M376.9,412.3l-3.9-0.6v7.8c0,12.5-6.6,29.9-14,37c-1.6,1.6-3,3.4-3,4.1c0,3.9,36.7,32.7,50.5,39.6
		c4.5,2.3,9.2,2.7,28.9,2.9l18,0.1l3.6-11.4c2.1-6.2,4.9-14.3,6.3-18.1c1.4-3.7,2.4-6.7,2.1-6.7c-0.3,0-3,1.7-6,3.7
		c-5.5,3.9-7.1,6.3-7.7,12.3c-0.3,3-0.4,2.8-0.5-1.1c-0.2-3.4,0.4-5.4,2-7.4c2.2-2.8,13.8-10.9,14.5-10.1c0.3,0.2-2,7.8-5.1,16.8
		c-6.9,20.5-12,40.6-14.6,57.4c-2,13.6-3.6,18.1-10.5,29.9c-4,6.8-4.4,10.4-1.5,13c1.8,1.6,2.6,1.7,8.8,0.6
		c3.7-0.6,9.1-1.3,12.1-1.4l5.3-0.2l3.7-9.5c4.6-11.7,8.5-19.5,16.7-33.1c16.2-27,45.1-63.5,75.2-94.9c8.1-8.5,8.9-9.6,7.4-10.8
		c-1.4-1.1-2-0.9-3.6,1.5c-4.5,6.4-16.4,17.2-22.7,20.3c-11.4,5.8-23.8,5.2-31.7-1.6c-8.4-7.1-9-14.1-2-22.1
		c3.3-3.8,3.8-4.9,2.4-5.1c-2.1-0.4-10.6,3.6-11.3,5.4c-0.3,0.8-1.2,1.4-1.9,1.4c-1.1,0-1.2-0.4-0.5-1.9c0.9-1.6,0.7-2-1.4-2.5
		c-5.1-1.3-17.4,3.2-25.3,9.2c-3.2,2.4-3.3,2.7-1.6,3.9c2.2,1.6,3.6,1.5-17.6,1.4c-9.6,0-18.4,0.3-19.5,0.8c-1.8,0.7-1.7,1,1.5,2.6
		c4,2,19,12.4,19,13.1c0,0.3-0.3,0.3-0.7,0.1c-0.5-0.2-5.1-3-10.5-6.1c-11.3-6.6-22.6-11.6-26.3-11.6c-2,0-5.7-3.2-16.6-14.1
		C382.5,414.4,380.4,412.7,376.9,412.3z M546,415.6c0,3.1,0.2,3.5,1.5,2.4c2.5-2.1,1.9,1.6-0.7,3.9c-2.7,2.6-6.6,3.8-15,4.6
		c-5.6,0.5-7.1,1.1-8.8,3.2c-1.1,1.4-2,3.1-2,3.8s-0.7,1.8-1.6,2.6c-2.1,1.8-4.5,6.5-6,12.2c-1.2,4.7-1.2,4.7,1.6,6.2
		c3.9,2,12.4,1.8,18.5-0.4c4.4-1.6,5-2.1,4.8-4.4c-0.3-3.9-6.4-15.9-9-17.5c-2.3-1.5-2.3-1.5-6.8,4.3c-1,1.2-0.8,0.3,0.5-2.3
		c2.5-5.1,5.8-5.6,9.5-1.6c2.5,2.7,6,9.5,7.1,13.8c0.3,1.5,1.1,2.5,1.8,2.3c0.6-0.2,4.1-5.1,7.8-11l6.8-10.6l-2.5-4.9
		c-1.4-2.8-2.5-5.4-2.5-5.9c0-0.6-0.8-1.7-1.8-2.6C546.5,411.3,546,411.6,546,415.6z M517.1,415c-0.6,0-2.4,3-4.2,6.7
		c-1.8,3.8-4.7,8.5-6.6,10.6c-4.3,4.9-3.5,6,1.2,1.8c2-1.7,4.3-3.1,5.2-3.1c1.1,0,0.2,1.1-2.3,2.9c-2.1,1.6-4.9,4.3-6.1,5.9l-2.2,3
		l2.9,4c3.4,4.7,4.9,5.8,5.4,4c2.1-7.5,3.4-10.7,5.3-13.5c2-2.9,2.3-4.7,2.3-12.8C518,419.2,517.6,415,517.1,415z M559.5,428.6
		c-1.3-0.5-7.5,7.8-11.5,15.5c-1.1,2.2-0.9,2.1,2-0.6c3.8-3.5,11-12.3,11-13.5C561,429.6,560.3,429,559.5,428.6z M569.5,435
		c-1.3,0-18.1,17.7-32.4,34c-26,29.5-49.1,61.7-60.5,84c-5.2,10.1-11.6,25-11.6,27c0,0.6,1.2,1,2.8,1c2.5,0,3.3-1.1,9.2-12.2
		c24.5-46.3,41-70.8,66.8-99.6c14.4-16,19.8-21,31.1-28.9c0.3-0.2-0.6-1.4-1.9-2.8C571.7,436.1,570.1,435,569.5,435z M577,442
		c-1.8,0-13,9.3-20.7,17.1c-9.6,9.8-27,30.1-34.9,40.6c-9.9,13.1-27.9,43-43.2,71.5l-5.2,9.6l3.5,1.2c4,1.3,7.1,4.8,8,8.9
		c0.5,2.6,1.1,2.9,6.1,3.5c10.8,1.3,32.1-2.8,35.2-6.7c0.5-0.7,1.7-7.1,2.6-14.2c3-23.2,9.3-47.7,18.2-70.5
		c7.6-19.4,15.4-34.1,15.4-29c0,0.6-1.8,4.6-3.9,8.9c-12.8,25.4-22.7,57.2-27.2,87.6c-2.5,16.9-3.7,48.1-2,51.4
		c1.5,2.7,8.9,6.1,18,8.4c6.1,1.6,8.8,2.7,6.2,2.7c-0.6,0-4.6-0.7-8.7-1.6c-4.2-0.8-7.8-1.3-8.1-1c-0.9,0.9,0.8,6.5,2.8,9
		c2.7,3.4,6.2,3.9,21.6,2.7c15.4-1.1,21.2-3.1,23.8-8.1c0.9-1.8,1.4-3.4,1.2-3.7c-0.3-0.2-3.3,0.1-6.6,0.8c-7.1,1.4-9.4,0.6-3-1.1
		c6.9-1.7,9.5-3,12-5.6c2.7-2.9,2.8-5.5,0.6-18.8c-2.4-14.7-3.9-40.5-4-73.6c-0.2-27.5,0.3-35,2.1-35c0.4,0,0.5,12.5,0.4,27.7
		c-0.4,27.1,1.3,71.1,2.7,72.5c1.3,1.4,8.9-2.3,9.4-4.6c1.9-7.6,1.8-13.5-0.2-21.4c-2.8-10.9-4-28.2-4.5-65.7
		c-0.3-19.5-0.9-32.9-1.6-36c-1.8-7.2-7.3-18.3-11.5-23.3C579.5,443.9,577.5,442,577,442z M176.3,555.4c-6.4,2.1-10.9,5.3-12.3,8.9
		c-0.8,1.7-2,4-2.8,4.9c-0.9,1.1-1.1,1.8-0.4,1.8c0.6,0,1.4-0.5,1.7-1c0.3-0.6,3.3-1,6.6-1c9.5,0,13.6-3.3,14.2-11.5
		C183.5,554,182.2,553.6,176.3,555.4z M444,584.4c-12.1,3.5-15.6,6.7-20.4,18.6c-5.3,13.3-5,14.9,3.7,17.1l4.8,1.2l3-3.5
		c1.6-2,4-3.9,5.4-4.2c3.7-0.9,9.1,2,10.7,5.6l1.3,3l8-0.5c4.4-0.3,9.8-1.2,12.1-2.1l4.1-1.7l2.8-13.5c3.2-15.3,2.9-17.5-3-20
		C472.1,582.6,450.4,582.6,444,584.4z M525.5,591.1c-0.5,0-2.6,0.8-4.5,1.6c-5.6,2.4-18.8,4.4-27.5,4.1l-8-0.3l-0.6,7.7
		c-0.4,4.2-0.9,8.8-1.3,10.1c-0.5,2.3-0.4,2.4,6.5,3c8.9,0.8,27.9-0.9,32.4-2.7l3.4-1.4l0.3-11.1C526.4,595.1,526.1,591,525.5,591.1
		z M591.8,599.7c-2.1,0.5-2.2,1.8-0.3,10.3c2,9.2,1.9,11.4-1.2,15c-2.5,3-2.7,3.9-2.6,11.9c0.1,4.7-0.3,9.3-0.8,10.3
		c-0.5,0.9-2.9,2.4-5.4,3.3c-4.2,1.7-4.4,1.8-3,3.8c2.2,3.2,1.8,5.2-1.6,8.6c-4,4.1-9.9,4.3-14.9,0.6c-3.8-2.8-6-3.1-7.9-1.3
		c-1,1.1-1.7,0.7-3.7-1.5c-1.3-1.5-2.4-3.5-2.4-4.3c0-0.9-1-1.4-2.9-1.4c-4.2,0-6.1-2.4-6.1-7.6c0-3-0.7-5.4-2.1-7.3
		c-1.2-1.6-2.4-5-2.6-7.5c-0.4-3.3-1.1-4.7-2.4-5.1c-2.8-0.9-5.9-5.4-5.9-8.7c0-2.2-0.4-2.9-1.4-2.5c-6,2.3-12,3-25.9,3.1l-15.8,0.1
		l-0.5,2.5c-4.4,20-8.5,25.9-20.7,29.5c-8.5,2.5-23.6,1.7-36.3-2c-2-0.6-2.1-0.1-3.3,17.2c-0.7,9.8-1.9,25-2.5,33.8
		c-0.7,8.8-1,16.3-0.7,16.7c0.7,0.8,11.8,3.8,14.3,3.8c1.6,0,1.8-1,1.8-7.8c0-12.8,2.2-44.6,3.2-46.2c0.6-1,0.8-0.4,0.4,2
		c-0.3,1.9-0.8,14.6-1.2,28.2l-0.7,24.8l3.4,1.4c5.2,2.1,26,6.6,38.9,8.3c17,2.3,37.7,0.6,47.3-3.8c2.5-1.1,2.5-1.3,3.2-15.8
		c1-22.4,1.7-22.4,5.5,0.3l2.4,13.8l8.5-0.4c6.2-0.3,9.7-1,12.6-2.5c8.2-4.3,7.6-2.4,8.3-27.6c0.4-13.8,1.1-22.8,1.7-23
		c0.6-0.1,3,9.9,5.5,22.1c3.2,15.7,5,22.6,6.1,23.2c2.1,1.2,18.9-2.6,25.7-5.8c2.9-1.4,5.8-3.5,6.4-4.7c1-2.2-5-45.3-12.5-89
		C596.4,598.9,596.2,598.5,591.8,599.7z M480.6,609.9l-1.9,9.3l-4.4,2c-2.7,1.2-8.1,2.3-13.1,2.6c-8.4,0.7-8.6,0.8-9.3,3.6
		c-1.1,4-3.6,6.5-7.4,7.2c-5.6,1-10.7-2.9-11.7-9.1c-0.4-2.6-8.5-4.6-9.8-2.5c-1.5,2.5-3.2,13.8-2.5,16.9c1.5,7.2,10.5,10.5,28,10.6
		c10,0,11.5-0.2,16.6-2.8c9.3-4.5,12.5-10.7,15.9-31C483.5,602.1,483.2,596.8,480.6,609.9z M435,624.4c0.1,7.6,9.4,11.2,13.5,5.3
		c2.3-3.3,1.9-9-0.8-11.5C442.6,613.4,435,617.2,435,624.4z M695.5,618.1c-1.6,0.5-6.6,1.1-11,1.3s-9.8,1.1-12,2
		c-7.1,3-13.5,10.6-13.5,16.1c0,2.1,0.5,2.5,2.8,2.5c8.9,0,23.2-8.7,26.2-15.9c1-2.4,2.3-3.3,6.6-4.6c3-0.9,5.4-1.8,5.4-2
		C700,616.9,699.1,617,695.5,618.1z M581.5,640.1c-4.4,2.7-11.5,3.9-26.5,4.5c-7.8,0.2-13.6,0.9-13.8,1.5c-0.2,0.5-0.1,2.2,0.3,3.6
		l0.6,2.6l14.7-0.6c14.1-0.5,25-2.4,27.9-4.9c0.7-0.6,1.3-2.5,1.3-4.4C586,638.2,585.2,637.8,581.5,640.1z M570.4,653.2
		c-2.1,0.1-7.6,0.4-12.1,0.5c-8.7,0.4-9.7,1.1-7,4.7c1.2,1.6,1.6,1.7,3.4,0.5c1.8-1.1,2.7-0.8,7.2,2.1c5,3.2,7.6,3.5,5.2,0.6
		c-0.8-0.9-0.8-1.6-0.2-2c0.6-0.4,1.6,0.2,2.3,1.4c0.7,1.1,1.9,2,2.6,2c0.9,0,0.8-0.7-0.4-2.5c-2.4-3.7-0.7-4.4,2.1-1
		c2.7,3.3,3.4,2.2,0.9-1.3c-2.1-3-1-4.1,1.6-1.7c1.1,1,2,1.4,2,0.8c0-0.5-0.8-1.7-1.8-2.6C575,653.6,572.9,653.1,570.4,653.2z
		 M185,669c-2.8,2.5-5.5,4-7.1,4c-7.5,0-17.5,5.4-20.4,11c-1.6,3-2,9.6-0.7,10.3c1.5,0.9,11.7-2.5,15.1-5.1
		c5.1-3.8,6.8-5.9,10.2-12.7c1.6-3.2,4.1-7.2,5.6-8.7C191.5,663.8,190.3,664.4,185,669z M569.6,686.2c-0.3-0.3-0.7,5.7-0.8,13.4
		c-0.2,20.1-0.1,19.4-3,21.9c-3.8,3.2-12.1,6.2-20,7c-9.3,1-10,0.4-11.9-10.2l-1.6-8.8l-0.8,9.3c-0.5,6.2-1.2,9.5-2.2,10
		c-1.1,0.7-0.9,2.9,1.6,13.3c1.6,6.8,3.2,14.2,3.6,16.3l0.6,3.9l12.2-0.7c12.7-0.7,22.7-2.5,27.7-5.1l3-1.6v-17.5
		c0-10.5-0.4-18.3-1.1-19.5c-0.6-1.1-2.3-8.6-3.9-16.6C571.4,693.3,569.9,686.6,569.6,686.2z M295.1,693.1
		c-6.9,2.7-10.5,7.4-12,15.4c-0.8,4.2-0.7,4.5,1.3,4.5c6.5-0.1,16.6-10.8,16.6-17.6C301,691.7,299.7,691.2,295.1,693.1z
		 M606.4,721.1c-0.5,0-6.6,3.2-13.6,7.1l-12.8,7v5.3c0,5,0.2,5.5,3.3,7.4c1.9,1.1,3.9,3.1,4.5,4.3c1,2.2,1.1,2.1,1.1-1
		c0.2-5.8,5.4-12.9,11.3-15.1c3.6-1.3,5.6-4.7,6.4-10.4C607,723.1,606.9,721,606.4,721.1z M468.8,732.4c-3.8-0.7-3.8-0.6-3.8,2.7
		c0,1.9,0.3,7.1,0.6,11.6l0.7,8.1l6.6,1.7c8,2,23.6,3,31.1,1.8l5.4-0.8l2.7-11.8l2.6-11.7l-11.6,0.6c-6.6,0.3-15.7,0.1-21.1-0.5
		C476.8,733.5,470.8,732.7,468.8,732.4z M580,751c0,1.1,0.5,2,1,2c0.6,0,1,0.6,1,1.4c0,2.2-11.7,6.8-21.4,8.2
		c-16.2,2.5-37.1,1.5-29.9-1.4c1.5-0.5,1.8-1.3,1.3-3.2l-0.6-2.5l-3.2,3.2c-3.6,3.6-4,6.1-1.3,8.4c1.1,1,2.1,3.7,2.5,6.7
		c0.4,3.2,1.6,6.2,3,7.9c2.3,2.7,2.9,2.8,12.4,3.1c21.7,0.8,40.9-5.2,38.7-12.1c-1.7-5.7-1.7-6.9,0.3-9.7c3.5-4.7,3.7-7.3,0.7-10.8
		C581.4,748.5,580,748.2,580,751z M461.6,751.9c-1.4,1.5-1.8,3.9-1.9,11.8c0,5.4,0.3,10.8,0.7,12.1c0.4,1.2,2.6,3.2,4.9,4.4
		c3.6,1.9,6.1,2.3,17.8,2.6c22.6,0.6,31.9-3.1,31.9-12.9c0-2.4,0.9-5.8,2.2-8l2.2-4l-2.6-2.6c-2.6-2.6-4.8-2.4-4.8,0.3
		c0,0.9,0.7,1.4,1.8,1.2c1.1-0.2,2,0.1,2.1,0.7c0.3,1.5-4.9,2.4-17.4,3.1c-11.6,0.7-22.3-0.4-30.8-3.2c-4.6-1.5-4.8-1.8-4.2-4.5
		C464.3,749.5,463.9,749.3,461.6,751.9z M467.3,783.7c-2.4-0.6-3.3-0.5-3.3,0.4c0,0.6-2.9,4.1-6.5,7.6s-6.5,7-6.5,7.8
		c0,2.1,2.9,3.3,12.5,5c14.5,2.5,26.6,1.5,31.8-2.5c2.4-1.9,7.1-10.6,8.2-15.2l0.6-2.3h-16.8C478.1,784.5,469,784.1,467.3,783.7z
		 M575.6,783.1c-2.2,1.6-13.2,3.2-24.9,3.6l-14.7,0.5l-0.6,2.7c-0.4,1.4-1.8,5.3-3.1,8.5c-3.5,8.5-2.8,10.1,4.9,11.4
		c16.4,2.8,26.3,2.3,33-1.6c3.6-2.1,4.6-5,5.1-16C575.5,787.2,575.7,783,575.6,783.1z"/>
	<path d="M381.5,150.4c2.1,2.1,2.8,2.3,5.7,1.4c7.1-2.1,12.9,4,10.8,11.3c-0.6,1.9-1,3.5-1,3.6c0,0.2,1.5,0.3,3.4,0.3
		c7.1,0,10.1,8.9,4.7,13.9c-2.3,2.1-2.7,3.1-1.9,4.5c0.5,1,0.7,3.3,0.3,5.2c-0.8,4.5-4.2,6.7-9.4,6.2c-3.6-0.3-4-0.1-4.5,2.4
		c-1.3,6.7-9.5,9.2-14,4.3c-2.1-2.2-2.7-2.4-5.1-1.5c-3.7,1.4-8.8-0.3-10.5-3.5c-0.8-1.4-1.1-4-0.7-6.4c0.5-3.8,0.3-4.1-1.9-4.1
		c-1.4,0-3.6-1.1-4.9-2.5c-3.3-3.2-3.3-7.8-0.1-11c2-2,2.4-3.1,1.9-5.9c-0.9-5.6,0.3-8.6,4.3-10.2c2.7-1.1,4.3-1.3,6.5-0.5
		c2.8,1,2.9,0.9,2.9-2.4c0-2.4,0.7-3.9,2.6-5.4C374.2,147.3,378.5,147.4,381.5,150.4z M372.1,151.6c-2.1,1.5-2.3,2.2-1.8,6.5
		c0.6,5.2,0.3,5.7-2.7,3.4c-2.7-2.1-7.9-1.9-9.9,0.3c-2.1,2.3-2.2,6.1-0.2,8.9c1.5,2.1,1.4,2.3-1.5,3.8c-3.8,1.9-4.8,5.6-2.5,9.1
		c1.5,2.3,2.2,2.6,6.1,2.1c4.7-0.5,5.4,0.4,2.9,3.7c-3.3,4.3-0.5,10.6,4.6,10.6c1.7,0,4-0.5,5.1-1.1c1.7-0.9,2.3-0.8,3,0.4
		c2.5,4.6,6.7,6,10.2,3.4c1.4-1,1.8-2.6,1.8-6c-0.1-5.1,0.3-5.4,3.2-3.2c3.1,2.4,7.2,1.9,9.5-1.1c2.5-3.2,2.6-4,0.7-7.7
		c-1.4-2.6-1.4-2.8,1.4-4.2c6.2-3.2,4.3-11.5-2.6-11.5c-1.9,0-4.4,0.5-5.6,1.1c-3.1,1.7-3.3,0.3-0.4-3.1c3-3.6,3.5-9,1-11.4
		c-1.9-1.9-6.6-2.1-9.5-0.4c-1.8,1.1-2.3,1-2.7-0.1c-0.2-0.7-1.3-2.2-2.3-3.2C377.6,149.6,375.2,149.5,372.1,151.6z"/>
	<path d="M377.6,171.5c1.7,1.1,3.5,1.4,5.9,0.9c4-0.7,4.3-0.2,1.4,3.4c-1.6,2-1.9,3.4-1.4,6.4c0.8,4.3,0.3,4.6-3.2,1.8
		c-1.4-1.1-3.9-2-5.4-2c-2.9,0-3.8-1.7-1.9-3.6c0.5-0.5,1.1-2.3,1.2-3.9c0.1-1.7,0.3-3.4,0.6-3.8C375,170.3,376.3,170.6,377.6,171.5
		z M379.9,174.8c-3.6-0.6-5.1,2.6-2.2,4.7c2.5,2,2.7,1.9,4-1.4C382.7,175.3,382.6,175.2,379.9,174.8z"/>
	<path d="M227.8,345.5c0.8,1.5,2.1,2,5.5,2c9,0.1,13.2,7,8.9,14.7l-2,3.8h2.9c4.1,0,7.9,3.9,7.9,8.2c0,3.8-2.3,7.6-5.2,8.7
		c-1.6,0.6-2,1.7-2.2,5.5c-0.2,3.9-0.7,5.3-3,7.2c-3.1,2.7-6.8,3-10.8,1c-2.6-1.4-2.8-1.3-2.8,0.5c0,3.1-5.3,7.9-8.8,7.9
		c-3.2,0-7.8-3-8.6-5.8c-0.5-1.3-1.5-1.6-4.9-1.4c-7.8,0.6-12.7-6.1-9.3-12.9c2-4,2-3.9-0.4-3.9c-3.3,0-7-4.4-7-8.4
		c0-4.8,0.8-6.5,4.1-8.1c2.4-1.3,2.8-2,2.2-4.5c-0.8-4.4,1.5-9,5.3-10.6c2.8-1.2,4-1.2,7.3,0l4,1.3l0.6-2.8c0.4-1.6,1.8-3.8,3.2-4.9
		C219.2,339.5,225.2,340.6,227.8,345.5z M215.9,344.9c-1.9,1.5-2.4,2.8-2.3,6.5c0,2.5-0.1,4.6-0.4,4.6c-0.2,0-1.7-1.1-3.4-2.5
		c-7.4-6.2-15-0.9-12.5,8.7c0.5,2.1,0.4,2.8-0.6,2.8c-2.9,0-6.7,4.1-6.7,7.1c0,4.2,3.1,6.9,8.1,6.9h4.1l-2.6,3.1
		c-3.4,4-3.6,10.1-0.4,12.3c2.6,1.8,6.1,2,8.8,0.6c1.7-0.9,2.2-0.5,3.4,2.4c3.5,8.5,12.7,6.8,13.2-2.5c0.2-2.4,0.3-4.6,0.3-4.8
		c0.1-0.3,1.4,0.7,2.9,2.2c5.9,5.7,13.5,3.8,13.6-3.4c0-1.9-0.4-4.1-0.8-5.1c-0.6-1.2-0.1-1.8,2.3-2.3c5.7-1.2,8-7.6,4-11.6
		c-1.6-1.6-3.1-2-7.2-1.8c-5.6,0.3-7.1-1-3.4-3c2.5-1.4,5.7-6,5.7-8.4c0-0.8-1-2.7-2.2-4.2c-2-2.5-2.5-2.7-7.5-2.2
		c-3.9,0.4-5.3,0.2-5.3-0.7c0-0.7-0.9-2.5-2.1-4C222.5,342.5,219.2,342.2,215.9,344.9z"/>
	<path d="M220,367c1.4,1.1,3.7,2,5.3,2c3.4,0,3.5,1.3,0.2,3.4c-1.9,1.2-2.5,2.5-2.5,5.1c0,4-0.9,4.4-3.5,1.5c-1-1.1-3.1-2-4.7-2
		c-3.3,0-3.5-1.3-0.8-4.7c1.1-1.4,2-3.6,2-4.9C216,364.5,216.7,364.4,220,367z M217.2,371.5c-1,2.1-0.9,2.6,0.9,3.6
		c1.1,0.6,2.1,0.9,2.2,0.7c0.1-0.2,0.7-1.2,1.3-2.4c1-1.7,0.9-2.2-0.7-3.2C218.4,368.6,218.5,368.6,217.2,371.5z"/>
	<path d="M353,509c1.1,1.1,2,2.4,2,3c0,0.5,2.1,1,4.7,1c6,0,9.3,2.8,9.3,8c0,1.9-0.7,4.5-1.5,5.7c-1.4,2-1.3,2.2,1.5,2.8
		c3.6,0.8,7,4.8,7,8.3c0,1.5-1.3,3.7-3.5,5.8c-2.7,2.6-3.5,4-3.5,6.9c0,5-3.9,8.9-8.3,8.3c-1.8-0.3-3.9-0.8-4.8-1.2
		c-1.2-0.5-2,0.1-2.9,2.4c-1.5,3.6-3.7,5-7.7,5c-3.2,0-5.5-1.5-7.1-4.5c-0.8-1.5-1.9-1.9-5.1-1.6c-3.3,0.2-4.5-0.3-6.7-2.4
		c-2.1-2.1-2.5-3.3-2.2-6.3c0.3-2,0.8-4.5,1.2-5.5c0.6-1.3,0.3-1.7-1.3-1.7c-3.3,0-6.1-3.5-6.1-7.6c0-2.7,0.7-4.3,3-6.4
		c2.3-2.2,3-3.7,3-6.6c0-6.8,6.8-10.7,13-7.4c1.5,0.8,1.9,0.5,2.4-1.5c0.4-1.4,1.5-3.4,2.6-4.5C344.7,506.3,350.4,506.4,353,509z
		 M344.4,509.8c-2,1.3-3.5,5.1-2.8,7.6c0.8,3.4-0.9,4-3.6,1.1c-5.4-5.7-12.9-1.6-11.7,6.3c0.6,3.4,0.4,3.8-2.6,5.2
		c-6.5,3.1-4,11,3.5,11c2.1,0,3.8,0.3,3.8,0.6s-1.1,1.9-2.5,3.6c-3.1,3.6-3.2,7.1-0.4,9.9c2,2,5,2.2,8.9,0.5
		c1.2-0.5,1.9,0.3,2.9,2.9c1.3,3.7,4.3,5.2,7.9,4c2.4-0.7,4.3-5.4,3.5-8.4c-0.7-2.7-0.2-2.6,4.3,0.4c4.5,3.1,5.4,3.1,8.9,0.3
		c2.4-1.9,2.7-2.6,2.1-6.4c-0.5-3.8-0.3-4.3,1.9-4.8c1.4-0.4,3.2-1.8,4.1-3.2c3.3-5-2-10.2-9.2-8.8c-1.9,0.3-3.4,0.3-3.4-0.1
		c0-0.3,1.6-2.1,3.5-3.9c4.1-3.9,4.7-8.2,1.5-11.1c-1.5-1.4-2.9-1.6-6.5-1.2c-4.2,0.6-4.5,0.5-5.1-1.8c-0.3-1.4-1.4-3-2.4-3.5
		C348.8,508.8,345.9,508.7,344.4,509.8z"/>
	<path d="M347.1,531.1c1.4,1.6,2.5,1.9,4.8,1.4c3.8-0.8,3.9,0.4,0.6,3.5c-1.5,1.4-2.5,3.5-2.5,5.2c0,3.3-1,3.5-3.5,0.8
		c-1-1.1-3.1-2-4.7-2c-3.3,0-3.6-1-0.8-3.5c1.1-1,2-3.1,2-4.7C343,528.5,344.6,528.2,347.1,531.1z M344.7,535.2
		c-0.6,2,0.6,3.7,2.4,3.8c1.5,0,1.8-3.2,0.5-4.6C345.7,532.5,345.3,532.6,344.7,535.2z"/>
	<path d="M254.9,603.9c1.5,1.5,2.8,1.8,6.4,1.4c3.7-0.4,4.8-0.2,6.7,1.7c1.9,1.9,2.2,3,1.8,7.1c-0.5,4.7-0.4,4.9,2.1,4.9
		c3.2,0,4.4,0.8,6,3.7c1.6,3.2,1.4,4.8-1.2,8c-1.8,2.1-2.3,3.7-2,6.3c0.3,2.6-0.1,4.3-1.8,6.4c-2,2.5-2.7,2.8-6.6,2.3
		c-4.2-0.4-4.3-0.4-4.3,2.4c0,5.4-7.3,7.8-12.2,4c-1.8-1.5-3.4-1.8-6.4-1.4c-5.7,0.7-8.7-2.3-8.2-8.2c0.3-4,0.1-4.4-2.3-4.9
		c-1.5-0.3-3.4-1.2-4.3-2.1c-2.2-2.3-2-7.8,0.4-10c1.5-1.4,1.8-2.6,1.4-5.9c-0.9-6,1.9-9.1,7.9-9c4.1,0.1,4.5-0.1,4.5-2.4
		c0-1.5,0.9-3.4,2.2-4.4C247.9,601.5,252.5,601.5,254.9,603.9z M246.5,605.3c-1.4,1.1-1.7,2.2-1.2,5.5c0.5,4.1-0.5,6.3-1.8,4.2
		c-1.2-2-5.4-3-7.9-2c-3.1,1.2-4.1,4.4-2.5,8.2c1.2,2.9,1.1,3.2-1.4,5c-5.1,3.7-2,10.7,4.2,9.5c3.7-0.8,4.4,0,2.6,2.7
		c-2.4,3.3-1.9,7.3,1.1,9.2c2.3,1.6,2.8,1.6,5.9,0.1c3.4-1.6,3.4-1.6,4.7,1.1c1.5,3,4.6,3.9,7.9,2.2c1.8-1,2.1-1.8,1.6-5.6
		c-0.5-4.8,0.1-5.2,3.8-2.8c5.2,3.4,11.2-1.6,8.6-7.2c-1-2.3-0.8-2.9,1.9-5.4c3.5-3.2,3.6-3.7,1.4-6.9c-1.5-2.1-2.2-2.3-7.1-1.7
		l-5.4,0.6l2.5-3.3c3.1-4,3.3-7.7,0.8-10c-2.3-2.1-5.1-2.2-7.9-0.2c-2,1.4-2.3,1.4-3.4-0.7c-0.7-1.3-1.7-2.6-2.3-3
		C250.9,603.6,248.6,603.9,246.5,605.3z"/>
	<path d="M251.5,623.1c0.4,0.6,2.1,0.9,3.9,0.8c3.8-0.4,4.1,0.2,2.1,4.1c-0.9,1.7-1.3,3.5-1,4c1.3,2-0.6,3-2.8,1.5
		c-1.2-0.8-3.2-1.5-4.5-1.5c-1.9,0-2.3-0.4-1.7-1.8c0.5-0.9,1-3.2,1.3-5C249.2,622,250.3,621.1,251.5,623.1z M253.1,626
		c-2.5,0-3,3.5-0.6,4.4c0.8,0.3,1.5,0.1,1.5-0.3c0-0.5,0.3-1.6,0.6-2.5C255,626.4,254.6,626,253.1,626z"/>
	<path d="M580.3,238c6.6,0,14.7,3.7,20.5,9.3c4.5,4.4,10.5,13.4,11.7,17.7c0.3,1.4-1-0.2-3-3.5c-8.8-14.3-16.8-20.4-28-21.3
		c-3.6-0.2-6.5-0.9-6.5-1.3C575,238.4,577.4,238,580.3,238z"/>
	<path d="M635,303c1.5,2.3,1.2,16.9-0.6,31.5c-2.9,23.5-0.7,39.6,7.1,51.3c4,6.2,4.5,7.6,1.2,3.5c-10.4-12.4-13.3-28.3-10.3-55.2
		c0.9-7.9,1.6-18.5,1.6-23.5C634,304.4,634.3,302,635,303z"/>
	<path d="M602.5,412.2c3.4,11.7,2.5,26.8-2.4,38.1c-3.3,7.4-5.2,8.5-2.1,1.2c5.6-13.6,6.3-27.6,2-40.1c-1.1-3.1-2-6.2-2-6.8
		C598.1,402.4,601.1,407.6,602.5,412.2z"/>
	<path d="M550.7,278.4c3.9,0.4,16.1,5.2,15.2,6c-0.4,0.4-16.1-4.7-18.4-5.9C547,278.2,548.4,278.2,550.7,278.4z"/>
	<path d="M485.5,310.1c4.2,1.1,9.5,5.4,9.5,7.6c0,2-1,1.6-3.2-1.2c-2.4-3.1-6.9-5.5-10.2-5.5c-1.4,0-2.8-0.5-3.1-1
		C477.7,308.7,480.5,308.7,485.5,310.1z"/>
	<path d="M554.8,310.9c0.9,0.5-1.2,1-5.6,1.3c-4.5,0.3-8.9,1.4-12.7,3.2c-3.2,1.4-6,2.4-6.2,2.2c-0.9-0.9,5.9-4.7,10.8-6
		C547.3,309.9,552.9,309.6,554.8,310.9z"/>
	<path d="M558,326.6c0,0.3-0.9,1.7-2,3.1c-2.3,2.9-2.5,4.7-0.9,9.1c1.3,3.8,4.2,4.9,7.4,2.8c1.3-0.9,2.7-1.6,3.1-1.6
		c0.9,0-0.3,13.6-1.6,18.2c-1.5,5.3-7,10.8-10.7,10.8c-9.7,0-15.1-17.6-9.4-30.5c2.5-5.7,4.4-8.1,8.6-10.6
		C555.5,326,558,325.4,558,326.6z M552.2,335.3l-0.7-4.8l-2.3,3.2c-3,4.2-5.2,9.6-5.2,12.7c0,2.1,0.7,2.6,4.9,3.6
		c2.8,0.6,6.7,1,8.8,0.8c3.5-0.3,3.8-0.1,4.4,2.7c0.6,2.7,0.7,2.8,0.8,0.5c0.1-1.4,0.4-4.2,0.7-6.2l0.6-3.6l-4,0.5
		c-3.5,0.5-4.2,0.2-5.7-2C553.6,341.3,552.5,338,552.2,335.3z M545.8,351.5c-1.5-0.6-1.8-0.2-1.8,2.1c0.1,4.5,3.6,11.2,6.5,12.6
		c4.4,2,7.6-1.4,8.8-9.3l0.5-3.7l-6.1-0.4C550.3,352.5,546.7,352,545.8,351.5z"/>
	<path d="M494.1,365c0.6,0,0.8,0.7,0.5,1.6c-0.3,0.9-0.6,2.1-0.6,2.7c0,0.8-0.3,0.8-1.1,0c-0.7-0.7-0.9-1.9-0.6-2.7
		C492.7,365.7,493.4,365,494.1,365z"/>
	<path d="M513.3,381c2.6,1.3,3.4,3.4,1.9,5.6c-2.3,3.5-11.1,4.5-16.1,1.9c-3.1-1.5-8.1-7-8.1-8.7C491,378.3,509.7,379.4,513.3,381z
		 M501.6,381.3l-8.1-0.6l2,2.3c4.2,4.7,10.6,6.3,16,3.8c3.1-1.4,3.2-2.4,0.4-3.9C510.7,382.3,506.1,381.6,501.6,381.3z"/>
	<path d="M342.4,318.6c2.9,1.1,1.7,2.4-2.1,2.4c-3.6-0.1-3.7-0.2-1.9-1.5C340.7,317.8,340.4,317.8,342.4,318.6z"/>
	<path d="M494,442c0.6,0,0.6,0.9,0,2.6c-2.9,7.5,0.2,16.1,7.6,21.9c2.6,1.9,4.2,3.5,3.6,3.5c-1.8,0-9.6-6.4-11.9-9.9
		c-2.5-3.7-3.1-10.9-1.3-15.5C492.5,443.2,493.4,442,494,442z"/>
	<path d="M696,95c0.5,0,1,1.8,1,4c0,3.8,1.2,5.2,2.5,3c1.3-2.1,2.4,0.1,1.4,2.7c-1.4,3.9-0.5,3.8,2.5-0.2c3.1-4,10.3-9.2,11.3-8.1
		c0.4,0.4,0,3-1,5.9c-1.4,4.7-2.6,12.2-3.2,21.7c-0.1,1.9-0.5,4.8-1,6.3c-0.5,1.9-0.3,3.7,0.6,5.4c1.2,2.2,1.1,2.6-1.1,4.4
		c-1.4,1-3.5,2.2-4.7,2.5c-1.3,0.3-2.3,1-2.3,1.4c0,0.5,3.3,3.5,7.3,6.8c9.5,7.8,19.9,19,19.5,21c-0.2,0.9-2.1,2.3-4.3,3.1
		c-2.2,0.8-4.3,1.9-4.6,2.4c-0.9,1.2-4.5-2.8-7.9-8.7c-2.7-4.6-3.1-4.9-7.2-5c-2.3-0.1-4.8,0.2-5.5,0.7c-1.7,1.2-16.5-3.9-21.2-7.4
		c-2.6-1.9-4.9-4.7-6.2-7.7c-1.2-2.6-2.9-6.3-3.8-8.2l-1.7-3.5l-7.7,0.2c-4.2,0.2-7.7-0.1-7.7-0.6c0-0.4,1.9-2.1,4.3-3.6
		c2.3-1.6,6-4.8,8.3-7.2c3.3-3.5,4.7-4.3,7.6-4.3c4,0,9.2,3.6,10.3,7c1.2,3.8,2.1,2,3.3-6.3c1.4-10.7,3.4-17.1,7.1-23
		C693.6,97.1,695.4,95,696,95z M694.5,100c-1.9,0-6.5,13.8-7.9,24c-0.8,5.2-0.5,5,5.6-4.5c4.3-6.6,7.6-15.7,4.6-12.7
		c-2.2,2.2-3.1,1.3-2.4-2.8C694.7,101.8,694.8,100,694.5,100z M711.8,100.5c-0.2-0.3-2.9,2-5.9,5.1c-5.1,5.1-5.4,5.8-5.4,10.4
		c0,2.8-0.4,5-1,4.9c-0.5,0-0.9-1.3-0.7-3c0.1-1.6-0.1-2.9-0.5-2.9c-0.5,0-3.6,4.4-7.1,9.8c-7.5,11.6-11.8,16.7-12.6,15.4
		c-0.3-0.6,0.5-2.3,1.8-3.9c2.1-2.5,2.3-3.2,1.1-4.4c-0.7-0.8-2.8-2.9-4.5-4.8c-2.6-2.9-3.5-3.2-6.3-2.7c-3,0.6-7.7,4.6-7.7,6.6
		c0,0.5,1.8,2.7,3.9,4.8c2.2,2.2,4.3,5.2,4.7,6.8c2.1,9,7.5,14.1,18.1,17.4c5,1.5,6.1,1.6,8.5,0.4c2-1,2.7-1.1,3-0.2
		c0.3,0.8,2.3,1.2,5.2,1.1c4.2-0.2,4.8,0.1,5.7,2.5c1.9,5,5.1,9.4,5.9,8.2c0.6-0.9,1.2-0.9,2.7,0.1c2.2,1.3,5.3,0.6,5.3-1.2
		c0-1.2-7.5-8.9-20.5-21c-7.5-6.9-8.8-8.6-7.9-10.1c0.4-0.7,1.3-3.5,2-6.3l1.2-5l0.1,4.3c0.1,2.4-0.4,5.2-0.9,6.3
		c-0.9,1.6-0.7,1.9,1.3,1.9c4.2,0,5.9-2.2,6.1-7.8c0.1-2.9,0-5.2-0.1-5.2c-0.2,0-1.2,0.5-2.3,1.2c-2.7,1.7-3.9,0-1.4-2.1
		c2.5-2,5.9-8.1,4.6-8.1c-0.5,0-2.1,0.9-3.5,2c-4,3.2-4.1,0.7-0.1-4.5c1.9-2.6,3.3-4.9,3-5.2c-0.3-0.3,0.7-2.7,2.1-5.5
		C711.1,103.1,712.1,100.7,711.8,100.5z M660.6,133c-0.8,0-1.8,0.4-2.1,1c-0.3,0.5,0.3,1,1.4,1c1.2,0,2.1-0.5,2.1-1
		C662,133.4,661.4,133,660.6,133z"/>
	<path d="M673,128.9c0,1.1-5.9,2-6.5,1.1c-0.3-0.4-0.2-1,0.2-1.4C667.7,127.7,673,127.9,673,128.9z"/>
	<path d="M136.4,137.3c2.1,2.1,3.1,2.3,7.8,1.9c5-0.4,5.7-0.2,7.6,2.3c2.4,3,2.7,5.9,1.2,9.9c-0.9,2.4-0.8,2.6,2,2.6
		c7.4,0,11.4,9.7,5.9,14.4c-2.1,1.8-2.4,2.8-2.1,6.8s0,5.1-2.3,7.4c-2.3,2.3-3.3,2.6-7.1,2.1c-4.1-0.4-4.4-0.3-4.4,2
		c0,6.3-9.2,9.6-14,5c-2-1.8-3.4-2.1-7.5-1.9c-4.3,0.3-5.3,0-7.4-2.2c-2-2.1-2.3-3.2-1.9-7.1c0.5-4.2,0.4-4.5-1.9-4.5
		c-1.3,0-3.5-1.1-4.8-2.5c-3.3-3.2-3.3-8,0-11.5c2.2-2.3,2.4-3,1.5-5.7c-0.9-2.4-0.8-3.9,0.4-6.7c1.6-4,4.6-5.2,10.2-4.3
		c3.2,0.5,3.4,0.4,3.4-2.4c0-1.8,0.9-3.9,2.5-5.4C128.7,134.3,133.3,134.2,136.4,137.3z M127.1,138.6c-2.1,1.5-2.3,2.2-1.8,6.5
		c0.7,5.3,0.4,5.5-3.3,3.4c-7.4-4.2-13.9,2.2-9.9,9.7c1,1.8,0.7,2.4-2,4.5c-5.9,4.7-2.5,12.1,5,10.9c4.3-0.7,4.5-0.3,2.4,3.4
		c-4.2,7.4,2.2,13.9,9.7,9.9c1.8-1,2.4-0.7,4.5,2c2.9,3.7,6.4,4,9.4,1c1.8-1.8,2-2.8,1.4-6.6l-0.7-4.6l3.5,2.2
		c4.3,2.7,7.1,2.7,9.8,0c2.1-2.1,2.3-5.9,0.5-10.1c-0.6-1.3-0.2-2,1.7-2.7c4.4-1.7,5.2-8.1,1.2-10.7c-2.1-1.4-3.2-1.5-7.1-0.5
		c-2.6,0.7-4.9,1-5.2,0.7c-0.2-0.3,0.9-2.1,2.7-4.1c3.4-4,3.9-6.9,1.5-10.3c-1.8-2.6-6.8-3-10.1-0.7c-2.1,1.5-2.3,1.4-3.7-1.4
		c-0.8-1.5-2.3-3.1-3.1-3.5C130.9,136.7,129.6,136.9,127.1,138.6z"/>
	<path d="M131.9,158.6c0.9,0.4,3.4,0.9,5.6,1c2.2,0.2,4.1,0.3,4.3,0.3c0.2,0.1-0.4,1.1-1.2,2.3c-0.9,1.3-1.6,4.3-1.6,7.1v4.8l-2.6-2
		c-1.7-1.3-4.1-2.1-6.5-2.1c-4.1,0-4.9-0.9-2.4-3c0.8-0.7,1.8-3,2.1-5.2C130.1,158.7,130.6,158,131.9,158.6z M135,161.8
		c-2.2-0.3-3,0-3.4,1.6c-0.8,3.1-0.8,3.2,1.9,4.4c3.1,1.4,3.8,1.5,3.1,0.3c-0.4-0.5-0.2-2,0.3-3.4
		C137.8,162.4,137.6,162.2,135,161.8z"/>
	<path d="M101.9,666.4c1.9,2,2.8,2.3,4.8,1.5c4.1-1.5,6.3-1,9.5,2.1c3.1,3.1,3.5,6.4,1.3,11.2c-0.6,1.5-0.2,1.8,2.5,1.8
		c4.5,0,6.7,1.5,8,5.4c0.9,2.8,0.8,4-0.4,6.4c-0.8,1.6-2.2,3.2-2.9,3.5c-1.1,0.4-1.3,1.8-1,5.4c0.7,7.1-1.7,9.8-8.6,9.7
		c-4.2,0-5.1,0.3-5.1,1.7c0,6.8-9.2,10.5-13.9,5.5c-2-2.1-2.9-2.4-7.4-1.9c-4.6,0.4-5.5,0.2-7.5-2c-2.3-2.4-3.3-8.2-1.8-10.5
		c0.3-0.6-1-1.3-2.9-1.6c-6.5-1.3-8.8-9.4-4-14.2c2.1-2.1,2.3-2.8,1.4-5.1c-2.5-6.6,1.7-11.9,9.2-11.6c4.6,0.1,4.9,0,4.9-2.5
		c0-1.4,1-3.6,2.2-4.9C93.2,663.1,98.9,663.2,101.9,666.4z M91.5,668c-1.4,1.5-1.6,2.9-1.2,6.5c0.7,4.8,0.3,5.3-2.7,3
		c-2.6-1.9-9-1.9-10.6,0c-1.2,1.4-1,7.5,0.3,10.5c0.5,1-0.3,2-2.3,3.2c-2.2,1.3-3,2.4-3,4.6c0,4.8,2.2,6.7,7.4,6.4
		c4.9-0.2,5.3,0.2,3.1,3.2c-2.1,2.7-1.9,7.9,0.3,9.9c2.3,2.1,6.1,2.2,8.9,0.2c1.9-1.4,2.3-1.2,4.7,2c3.1,4.1,6.5,4.6,9.7,1.4
		c1.8-1.8,2-2.8,1.4-6.5c-0.6-4.5,0.3-5.6,2.4-3c1.7,2,5.6,2.8,8.5,1.6c3.1-1.2,4.3-5.2,2.7-9.4c-1-2.7-0.9-3.3,0.6-4.3
		c3.7-2.5,4.3-3.4,4.3-6.2c0-5.1-5.2-7.5-11.4-5.1c-3.5,1.3-4-0.2-1.1-3c6.9-6.5,1.5-16.7-6.7-12.6c-3.8,2-4.8,2-4.8,0.3
		c0-0.8-0.8-2.1-1.8-3C97.7,665.4,93.7,665.6,91.5,668z"/>
	<path d="M97.9,687.5c1.8,0.9,4.1,1.2,6,0.9c3.4-0.7,3.9,0.2,1.6,3.2c-0.8,1-1.5,3.8-1.5,6.1v4.3l-3.2-2c-1.8-1.1-4.4-2-5.7-2
		c-2.1,0-2.2-0.3-1.5-2.8c0.4-1.5,0.9-4.1,1-5.7c0.1-1.7,0.3-3.1,0.3-3.3C95,686.1,96.3,686.6,97.9,687.5z M99.9,690.7
		c-2.3-0.6-2.7-0.3-3.2,2.1c-0.6,3.2-0.8,2.9,2.4,3.7c2.3,0.6,2.7,0.3,3.2-2.2c0.3-1.5,0.5-2.8,0.4-2.9
		C102.6,691.3,101.3,691,99.9,690.7z"/>
	<path d="M725,714.5c2.3,2.2,3,2.4,5.5,1.5c6.5-2.5,13,2.4,12.2,9c-0.2,1.9-0.7,4.3-1.1,5.2c-0.7,1.5-0.3,1.8,2.8,1.8
		c7.9,0,11.3,8.4,5.8,14c-2.3,2.3-2.7,3.4-2.4,6.4c0.2,2,0.1,4.7-0.2,6.1c-0.9,3.5-5.8,5.8-10.6,5c-3.5-0.6-3.7-0.5-3.7,2
		c0,6.7-9.5,10.1-14.2,5.1c-2-2.1-2.9-2.4-7.4-1.9c-4.2,0.4-5.7,0.2-7.7-1.5c-2.1-1.7-2.5-2.8-2.4-7.6c0-5.4-0.1-5.6-2.7-5.6
		c-6.1,0-9.3-9.9-4.5-14.3c2-1.9,2.3-2.9,1.8-7.8c-0.4-5.2-0.2-5.7,2.4-7.8c2.4-1.9,3.8-2.2,7.7-1.8c3.8,0.3,4.7,0.1,4.3-1
		c-0.7-1.8,1.1-6.3,3.2-7.9C716.7,711.2,722.1,711.7,725,714.5z M714.5,716c-1.3,1.5-1.6,3-1.3,6.5c0.6,4.8-0.2,5.5-3.6,3
		c-6.7-5.1-15,3.2-10.2,10.1c1.3,1.9,1.2,2.2-2,4.8c-3.8,3-4.3,5.8-1.8,9.5c1.5,2.1,2.2,2.3,6.5,1.8c2.7-0.3,4.9-0.4,4.9-0.2
		c0,0.2-0.9,2-2.1,4c-4.6,7.7,2.1,14.5,10,10.1c2.3-1.3,2.6-1.1,4.6,1.8c2.4,3.7,5.6,4.4,9.2,2.1c2.3-1.5,2.5-2.2,2.1-6.6
		c-0.3-2.7-0.3-4.9-0.1-4.9c0.1,0,2,0.9,4,2c4.7,2.5,5.4,2.5,8.8-0.1c2.2-1.8,2.6-2.8,2.3-5.8c-0.3-2-0.8-4.3-1.2-5.2
		c-0.5-1.1,0.1-1.9,1.9-2.7c3.4-1.6,4.9-5,3.6-8.5c-1.3-3.3-5.1-4.4-10.3-3c-4.2,1.1-5.7,0.3-3.2-1.8c2.1-1.7,4.4-6.4,4.4-8.9
		c0-4.8-7.1-7.6-12.2-4.9c-1.8,1-2.4,0.7-4.5-2C721.4,713.4,717.3,713,714.5,716z"/>
	<path d="M718,734.9l3.1,1.6c1.9,1,4.1,1.4,6,1c3-0.7,4,1,1.8,3.2c-0.6,0.6-1.2,3-1.4,5.4c-0.4,4.6-1.5,5.1-4.6,2.3
		c-0.8-0.8-3.2-1.4-5.2-1.4H714l2-3.3c1.1-1.7,2-4.4,2-6V734.9z M722.9,739.7c-2.2-0.6-2.8-0.3-3.3,1.6c-0.8,3.1-0.8,3.4,0.7,3.4
		c0.6,0,1.9,0.4,2.8,0.7c1.2,0.5,1.8,0,2.3-2c0.4-1.4,0.6-2.7,0.4-2.9C725.6,740.4,724.3,740,722.9,739.7z"/>
	<path d="M1,848c0.6,0,1,0.4,1,1c0,0.5-0.4,1-1,1c-0.5,0-1-0.5-1-1C0,848.4,0.5,848,1,848z"/>
	<path d="M849,848c0.6,0,1,0.4,1,1c0,0.5-0.4,1-1,1c-0.5,0-1-0.5-1-1C848,848.4,848.5,848,849,848z"/>
</g>
</svg>
