<?xml version="1.0" encoding="utf-8"?>
<!-- Generator: Adobe Illustrator 21.0.0, SVG Export Plug-In . SVG Version: 6.00 Build 0)  -->
<svg version="1.1" baseProfile="tiny"
	 id="svg2" inkscape:version="0.91 r13725" sodipodi:docname="people_928.svg" xmlns:cc="http://creativecommons.org/ns#" xmlns:dc="http://purl.org/dc/elements/1.1/" xmlns:inkscape="http://www.inkscape.org/namespaces/inkscape" xmlns:rdf="http://www.w3.org/1999/02/22-rdf-syntax-ns#" xmlns:sodipodi="http://sodipodi.sourceforge.net/DTD/sodipodi-0.dtd" xmlns:svg="http://www.w3.org/2000/svg"
	 xmlns="http://www.w3.org/2000/svg" xmlns:xlink="http://www.w3.org/1999/xlink" x="0px" y="0px" viewBox="0 0 850 850"
	 xml:space="preserve">
<sodipodi:namedview  bordercolor="#666666" borderopacity="1" gridtolerance="10" guidetolerance="10" id="namedview498" inkscape:current-layer="svg2" inkscape:cx="560.51938" inkscape:cy="731.31499" inkscape:pageopacity="0" inkscape:pageshadow="2" inkscape:window-height="974" inkscape:window-maximized="1" inkscape:window-width="1920" inkscape:window-x="0" inkscape:window-y="1" inkscape:zoom="0.26074563" objecttolerance="10" pagecolor="#ffffff" showgrid="false">
	</sodipodi:namedview>
<g id="g6" transform="translate(0.000000,0.000000) scale(1.00000,1.00000)">
	<path id="path8" fill="#FF9933" d="M7.5,0c4,0,4.1,0.1,4.5,2.7c3.1,19.1,5.6,27.6,11.4,38.9c7.6,14.7,17.6,25.3,41.1,43.2
		c18.8,14.4,29.8,27.1,38.3,44.2c3.7,7.3,7.7,17.2,7.7,18.7c0,0.5-1.8-1.2-4.1-3.9c-6.4-7.6-16.9-17.3-32.5-29.7
		c-22.6-18-35.5-31.4-45.7-46.9c-5.7-8.9-13.6-25.6-17.3-36.9C7.7,20.9,3.3,3.9,3.3,1C3.3,0.4,4.7,0,7.5,0z"/>
	<path id="path10" fill="#FFFF00" d="M15.8,0h8.6H33l1,4.3C36.8,16,45.4,26.9,61.3,38.7C80,52.7,85.5,60,101.7,92.8
		c26.1,52.7,41.8,74.8,63.3,88.7c3.8,2.5,12.2,7.1,18.7,10.2l11.7,5.6l-8.2,0.6c-15.9,1-18.6,0.8-24.3-1.5c-14.9-6.1-29.3-19-41-37
		c-4.7-7.4-6.7-11.3-13.9-27.6c-5.5-12.5-13.9-25.2-22.2-33.6c-3.5-3.6-11.8-10.6-18.4-15.5C39.6,61.9,27.3,47.2,20.8,27
		c-2.7-8.1-5.1-19.7-5.1-24.2V0z"/>
	<path id="path12" fill="#FF9933" d="M36.7,0h9.7H56l0.9,4.7c2.2,11.1,9.2,24.8,18.4,35.9c2.1,2.5,11.7,12.6,21.3,22.4
		s19,19.7,20.9,22c4.3,5.3,10.5,15,20.1,31.1c19.7,33.2,35,47.6,56.9,53.1c3.7,0.9,8.6,1.7,11.2,1.7c4.5,0,4.9,0.2,9.4,4.4l4.7,4.4
		l-13,1.8c-13.3,1.9-26.4,2.3-31.9,1.1c-7.6-1.8-24.9-16.4-34.6-29.5c-10.4-14-22.3-34.9-36.6-63.9C88.5,58.2,81.5,49.1,62.3,34.8
		c-15-11.1-22.5-20.6-24.8-31.3L36.7,0z"/>
	<path id="path14" fill="#FFCC00" d="M59.6,0h5.7H71l1,4c1.2,4.8,8.2,19.3,14.7,30.5c8,13.9,14.6,22,23.2,28.3
		c1.7,1.2,6.1,6,9.7,10.4c9.1,11.3,13.5,14.9,27.7,22.5c15.2,8.1,22.7,13.2,30,20c10.4,9.6,13,13.9,26.4,42.3l4.6,9.8h-2.7
		c-10-0.1-25.4-6.6-34.9-14.9c-11-9.6-19.1-20.1-33-43.2C122.6,84.3,120,81,92.9,54C80.5,41.7,76.3,36.8,71.6,29.7
		c-5.9-8.8-10.2-18.8-11.5-26.1L59.6,0z"/>
	<path id="path16" fill="#FF9933" d="M86.6,0h11.8l2,5.1c6.5,16.9,13.2,25.9,25.8,34.4c13.6,9.2,26.9,13.8,50.2,17.2
		c24.7,3.7,28.7,5.6,43.7,20.4c9.9,9.7,10.6,10.7,12.2,15.8c0.9,3,1.5,5.6,1.3,5.7s-1.7-0.8-3.5-2.2c-4.6-3.7-14.7-9-22.7-11.9
		c-9.2-3.4-19.1-5.4-36.9-7.4c-27.3-3.2-36.7-5.3-48.3-11.1c-11.1-5.6-19-12.7-26.5-23.7c-7.4-11.1-21-37.9-21-41.4
		C74.7,0.3,78.2,0,86.6,0z"/>
	<path id="path18" fill="#FFCC00" d="M102.1,0h12.8h12.7l1.5,3.9c2.1,5.6,9.3,12.4,17.5,16.6c8.3,4.3,12.8,5.8,23.1,7.8
		c8.6,1.7,16,4.6,22.7,9.1c5.1,3.5,16.7,14.7,21.9,21.2c4.1,5.1,11.5,16.7,11.5,17.9c0,0.3-1.7-1.1-3.9-3.2
		c-13.1-12.7-19.2-15.5-42.6-19.5c-23.6-4-37.8-8.5-49.3-16c-13.3-8.5-19.6-16.6-26.1-33.5L102.1,0z"/>
	<path id="path20" fill="#FF9933" d="M162.2,0h30.1l2.3,3.3c3.8,5.6,12.6,13.2,22.8,19.8c5.2,3.4,12.7,8.3,16.6,10.9
		c9.3,6.1,19.3,15.7,23.3,22.5c3.1,5.2,6.6,15.3,11.1,31.4c2.7,9.9,6.6,18.3,11.5,24.7c2.1,2.7,9.5,10.4,16.4,16.9
		c8,7.6,14,14.1,16.7,18c2.2,3.4,3.8,6.1,3.4,6.1s-2.8-0.9-5.3-2c-6.6-2.9-9.6-3.6-22.2-5.1c-6.1-0.7-13.7-2-16.8-2.9
		c-14.4-4.3-19.7-14.7-21.5-42.3c-1.6-25.5-4.3-35.4-13.4-49.3c-9.3-14-19.6-22.2-31.7-25.1c-3.2-0.7-12.9-1.7-22.7-2.1
		c-13.3-0.6-18.3-1.1-22.4-2.3c-6.6-2.1-16-6.9-20.3-10.3c-3.3-2.7-8.1-9.2-8.1-11.2C132,0.3,137.9,0,162.2,0z"/>
	<path id="path22" fill="#FFFF00" d="M196.6,0h20c19.7,0,20,0,24.1,2.1c5.1,2.7,14.2,11,18.3,17c6.3,9.4,9.9,18.3,17.5,44.7
		c5.3,18.3,8.7,27.1,14.5,38.3c6.3,12,14.3,23,23.6,32.4c10.1,10.1,17.2,15,38.6,27c21.3,11.9,31.4,18.5,39.3,25.7
		c3.3,3.1,5.9,5.7,5.7,5.9s-4.9-1.7-10.6-4.2c-17.6-7.6-30.5-11.2-40.9-11.4c-5-0.1-5.9-0.7-9.5-6.2c-1.8-2.7-5.2-6.7-7.6-8.7
		c-5.9-4.9-5.9-4.9-12.5-15c-4.7-7.2-8.1-11-17.9-20.3c-20.3-19.3-24.1-25.6-30.6-51.7c-1.2-4.8-3.8-12.2-5.9-16.4
		c-3.2-6.5-4.9-8.9-11.4-15.4c-4.8-4.9-10.7-9.7-15.9-13.1c-4.6-3-12-7.8-16.6-10.8c-8.4-5.4-17.3-12.9-20.4-17.3L196.6,0z"/>
	<path id="path24" fill="#FF9933" d="M244.6,0h11.5h11.5l4.5,5.6c6.5,8.1,12.6,17.8,17.3,27.2c7.5,14.9,11,26.8,13,44.4
		c1.3,10.7,1.7,37.4,0.6,37.4c-1,0-7.5-10.6-11.4-18.7c-4.4-9-8.2-20.1-13.8-39.4c-8.6-30.1-16.4-44.2-29.7-53.8L244.6,0z"/>
	<path id="path26" fill="#FFCC00" d="M272.1,0h9.6h9.5l7.6,7.2c13.6,12.9,21.5,25.3,25.1,39.4c1.6,6.4,1.7,8,1,21.4
		c-0.4,8-0.7,22.3-0.7,32c0.1,16,0.2,18.1,2.2,25.6c1.2,4.4,3.7,11,5.5,14.4c1.8,3.5,3.2,6.5,3.1,6.6c-0.7,0.7-11.6-8.2-18.2-14.9
		c-10-10.2-10-10.4-9.4-22.6c0.9-18.3-2.1-44.2-7-59.4C295.7,35,285,15.5,275.4,3.9L272.1,0z"/>
	<path id="path28" fill="#FF9933" d="M296.9,0h16.3h16.2l3.1,3.5c4.2,4.8,8.4,13.9,9.9,21.6c1.8,8.8,1.7,25.9-0.3,45.1
		c-1.8,17.5-2.1,31.3-0.7,39.4c2.1,12.8,10.4,32.2,20.1,46.7c3,4.5,5.2,8.1,5,8.1c-1.1,0-22.7-12.1-22.7-12.7c0-0.3-1.6-2.6-3.5-5
		c-4.5-5.6-8.5-14.5-10.8-23.6c-2.1-8.5-2.4-26-1.2-52.5c0.6-12.7,0.5-16.5-0.6-22.1c-2.7-14.4-9.9-27-22.7-40.3L296.9,0z"/>
	<path id="path30" fill="#FFFF00" d="M334.5,0h11.5h11.5l2.2,4.7c6.4,14.4,6.6,27.8,1,57.1c-3.9,20.5-4.9,29.2-4.2,39.3
		c1,17.6,7,38.5,16.8,59c2.9,6.1,5.3,11.3,5.3,11.5c0,1.1-2.9-1.7-6.6-6.6c-10.9-14.4-21.6-34.1-24.9-46.2c-3.7-13.5-4-24.3-1.2-52
		c3-31,0.7-48.3-8-61.8L334.5,0z"/>
	<path id="path32" fill="#FFFF00" d="M371.7,0c9.8,0,9.8,0,11.5,2.3c9,12.1,13.7,33.1,13.7,60.3c0,18.3-1,24.9-5.6,37.8
		c-2.9,8.1-3.2,9.5-3.5,19.9c-0.3,11.5-0.2,12.5,4.5,28.2c0.6,2.1,0.6,2.1-2.2-0.4c-9.9-9.2-16.9-25.4-20.8-47.7
		c-2.4-13.9-3.8-44.1-2.5-53.1c2.6-17.8,1.7-30.5-2.8-41.7c-1.2-2.8-2.1-5.2-2.1-5.4S366.3,0,371.7,0z"/>
	<path id="path34" fill="#FFCC00" d="M386.1,0h8.5h8.5l4.7,9.3c9.2,18.3,11.8,28.1,11.7,44.7c0,12.9-0.8,16.4-7.1,32.5
		c-5.3,13.7-8,23.2-9.6,33.7c-0.7,4.6-1.5,8.4-1.7,8.2c-0.2-0.2-1-4.2-1.9-8.8c-2-10-2.2-22.6-0.4-32c2.7-15.4,2.3-41.1-0.9-56.9
		c-1.9-9.2-6-21-9.1-26.1L386.1,0z"/>
	<path id="path36" fill="#FF9933" d="M407,0h15.9c18.6,0,17-1,17,10.5c0,9.2-2.6,22-8,39c-5.8,18.6-8.3,28.7-9.5,38.8
		c-2.2,19,2.2,36.6,11.8,47.1l3.6,3.8v13.6c0,15.4,1.1,21.2,6.2,33.2c1.7,4.1,2.9,7.3,2.7,7.3c-1.1,0-10.2-7.6-15.3-12.6
		c-8.1-8.2-15.9-19.5-21.8-31.8l-5.3-10.8l0.7-7.9c1.6-16,2.9-20.8,12.8-48.7c1.7-4.6,3.6-11.3,4.2-14.8c3.5-17.9-0.3-38.2-11-58.9
		L407,0z"/>
	<path id="path38" fill="#FFFF00" d="M442.8,0h12h12l-0.6,5.1c-0.9,7.9-3.8,15.5-12.5,32.7c-17.2,34.3-19.9,51.6-12,75.7l1.7,5.1
		l-1.9,7.3c-1,4-2.2,7.6-2.5,8c-1.4,1.7-8.1-8.3-10.8-15.9c-5.3-15.6-3.5-34.1,7-67.6c6.2-20,8.2-30.6,7.9-41.8L442.8,0z"/>
	<path id="path40" fill="#66FFFF" d="M472.7,0h2.9v21.7v21.6L473,43c-2.4-0.2-2.7-0.7-3.6-4c-0.6-2.1-2-5.9-3.3-8.5l-2.3-4.7
		l2.1-5.2c2.5-6.1,4-12.7,4-17.3C469.8,0.1,469.9,0,472.7,0z"/>
	<path id="path42" fill="#66FFFF" d="M478.9,0h25.7h25.7l-0.2,21.3L530,42.8h-25.3h-25.3l-0.2-21.4L478.9,0z"/>
	<path id="path44" fill="#66CCFF" d="M533.7,0h25.3h25.3v21.6v21.6h-25.3h-25.3V21.6V0z"/>
	<path id="path46" fill="#66CCFF" d="M587.7,0H613h25.3v21.6v21.6L613.3,43l-25.2-0.2l-0.2-21.4L587.7,0z"/>
	<path id="path48" fill="#66FFFF" d="M641.6,0h25.7h25.7l-0.2,21.3l-0.2,21.4h-25.3h-25.3l-0.2-21.4L641.6,0z"/>
	<path id="path50" fill="#66FFFF" d="M696.4,0h25.7h25.7v21.6v21.6h-25.7h-25.7V21.6V0z"/>
	<path id="path52" fill="#66FFFF" d="M751.2,0h26.1h26.1l-0.2,21.3l-0.2,21.4h-25.7h-25.7l-0.2-21.4L751.2,0z"/>
	<path id="path54" fill="#66CCFF" d="M806.8,0h21.6H850v21.6v21.6h-21.6h-21.6V21.6V0z"/>
	<path id="path56" fill="#FFCC00" d="M0.2,3.8l1.6,6.9c4.4,19.7,12.9,41.2,22.6,56.6c10.8,17.3,23.4,30.5,47.1,49.4
		c21.7,17.3,33.7,29.4,40.4,40.8c4.7,8.1,8.2,22.7,12.6,52.5c1.4,9.3,2.3,17.1,2.2,17.3s-0.7-0.5-1.2-1.4c-0.5-1-2.4-2.7-4.2-3.8
		c-1.8-1.2-3.3-2.6-3.3-3.2c0-2.1-7.5-21.6-11.5-30c-2.2-4.7-4.3-10.2-4.6-12.2c-0.7-5-2.7-11.1-5.2-16
		c-4.7-9.5-11.9-16.8-34.6-35.3c-6.4-5.2-14.2-12.1-17.3-15.3C31.2,96.6,21.3,79.7,11.8,54c-2.3-6.1-5.9-15.3-8-20.2l-3.8-9
		l0.1-10.5L0.2,3.8z"/>
	<path id="path58" fill="#FFFF00" d="M185.5,29.1h7.1c16,0,27.7,6.1,38.1,20c6.2,8.1,11.2,18.3,13.4,26.9c1,4,2.2,13.2,2.9,22.8
		c1.4,19.4,3,27.1,7.1,34.6c5.6,10.3,11.4,13.2,33.3,16.3c10.5,1.5,16.4,2.8,21.2,4.6c11.5,4.5,22.7,12.9,26.5,20.1l1.2,2.2
		l-9.7,0.5l-9.7,0.4l-4.2-4c-5.4-5.1-10-7.4-23.7-11.9c-6.1-2.1-13.3-4.8-16.1-6.2c-15.2-7.7-24.5-21.1-31.9-46.2
		c-5.6-19.2-7.5-24.6-10.9-31.9c-8.1-17.4-24.2-36-38.9-45L185.5,29.1z"/>
	<path id="path60" fill="#FF9900" d="M461.9,31c0.4,0.2,1.7,2.5,2.9,5.2c1.9,4.5,2.1,5.9,2.1,17.3c-0.1,13.3-0.3,15-6.7,38.5
		c-3.9,14.2-5.3,23.2-5.3,33c0,15.9,4.1,31.1,13.3,49.3c4.6,9.3,6.2,12.1,19.1,34c16.4,27.7,27.3,58.8,33.2,93.9
		c2,11.5,3.2,42,1.7,39.8c-0.4-0.7-4-6.3-7.8-12.5c-6.2-10-6.9-11.4-6.2-13.7c1.2-3.8,0.9-14.4-0.5-22.5c-3.2-18.4-7.6-29-16-37.8
		c-4.9-5.2-5.6-6.5-7-11.7c-1.7-6.9-6.3-15.4-12.9-24.1c-2.7-3.5-8.3-10.8-12.5-16.4c-8.1-10.5-14-21.7-16.4-30.4
		c-0.7-2.8-1.6-9.7-1.8-15.8c-0.5-14,1-21.6,9.7-48.1c3.6-11,7.3-23.7,8.2-28.4c2.2-11,2.3-24.4,0.1-34.9l-1.6-7.8l1.8-3.7
		C460.2,32.4,461.4,30.8,461.9,31z"/>
	<path id="path62" fill="#FF9933" d="M0.1,34.5l1.5,3.3c0.8,1.8,3.5,8.5,5.9,14.9C15.9,75.3,22,87.4,30.5,99
		c8.7,12,13.3,16.3,40.3,38.6C83.4,148,89.8,155.2,93.6,163c4.2,8.5,4.2,9.9,0.1,5.1c-9.4-11-15.7-15.9-37.9-29.3
		c-19.3-11.6-27.2-17.3-34.3-24.7c-7.6-8-12.1-18.1-19-41.9C0.2,63.7,0,62.6,0.1,48.9V34.5z"/>
	<path id="path64" fill="#66FFFF" d="M455,44.6c1.3,1.4,2.6,15.8,2.1,23.9c-0.5,7.6-2.5,18.2-4.7,25.2l-0.9,2.7l-5.1-0.2l-5.1-0.2
		l-0.2-5.3c-0.4-9.1,3.9-25.9,10.4-40C453,46.9,454.6,44.3,455,44.6z"/>
	<path id="path66" fill="#66FFFF" d="M473.1,46.5h2.5v24.9v24.9h-6.2c-3.5,0-6.2-0.3-6.2-0.8c0-0.4,1.5-6.5,3.2-13.4
		c3.4-13.3,5.6-28.1,4.6-32.8C470.6,46.7,470.7,46.5,473.1,46.5z"/>
	<path id="path68" fill="#99FFFF" d="M478.9,46.5h25.7h25.7l-0.2,24.7L530,95.9h-25.3h-25.3l-0.2-24.7L478.9,46.5z"/>
	<path id="path70" fill="#66FFFF" d="M533.7,46.5h25.3h25.3v24.9v24.9h-25.3h-25.3V71.4V46.5z"/>
	<path id="path72" fill="#66FFFF" d="M587.7,46.5H613h25.3v24.9v24.9l-25.1-0.2l-25.2-0.2l-0.2-24.7L587.7,46.5z"/>
	<path id="path74" fill="#66CCFF" d="M641.6,46.5h25.7h25.7l-0.2,24.7l-0.2,24.7h-25.3h-25.3l-0.2-24.7L641.6,46.5z"/>
	<path id="path76" fill="#66CCFF" d="M696.4,46.5h25.7h25.7v24.9v24.9h-25.7h-25.7V71.4V46.5z"/>
	<path id="path78" fill="#66CCFF" d="M751.2,46.5h26.1h26.1l-0.2,24.7l-0.2,24.7h-25.7h-25.7l-0.2-24.7L751.2,46.5z"/>
	<path id="path80" fill="#66FFFF" d="M806.8,46.5h21.6H850v24.9v24.9h-21.6h-21.6V71.4V46.5z"/>
	<path id="path82" fill="#FFFF00" d="M122.2,70.6c0.2,0,3.4,1.1,7.1,2.5c8.9,3.2,19.6,5.3,38.8,7.5c25.5,2.9,34.8,5.1,48.4,11.8
		c12.8,6.2,19.2,12.5,21.7,21c7.5,24.4,17.5,37.9,34.2,46l8.5,4.2l-10.8,0.1c-25.3,0-36.4-6.3-55.6-31.5
		c-9.4-12.3-17.5-20.6-24.5-25.1c-11.9-7.6-27.8-14.1-39.2-16.1c-10.8-1.8-16.8-5.6-25.7-16.3C123.3,72.4,122,70.6,122.2,70.6z"/>
	<path id="path84" fill="#FF9900" d="M362.8,71.9c0.4,0.2,0.7,2.9,0.7,6c0,6.7,1.8,22,3.7,31.3c4.1,19.8,12.5,35.4,23.7,44.2
		c3.7,2.8,5.8,5.4,8.2,9.7c4.6,8.4,13.1,20.4,25.2,35.8c10.2,12.9,22.1,29.6,22.1,31.1c0,1.2-10.9-3.5-11.7-5.1
		c-1.6-3-12.2-13.5-19.1-19.1c-3.9-3.2-8.7-7.7-10.6-10.1c-3.7-4.8-12-12.9-16.8-16.6c-2.2-1.6-4.2-4.7-7.4-11.2
		c-10-20.3-14.4-31.6-18-46.7c-2.6-10.9-3.5-31.5-1.9-42.6C361.7,74.6,362.4,71.7,362.8,71.9z"/>
	<path id="path86" fill="#FFCC00" d="M0.1,76.8l3.7,11c5.3,16.2,8.5,21.7,17.3,30.6c8.5,8.5,11.1,10.4,33.7,24
		c29.6,17.9,36.8,24.9,47.6,46.5c11,22.1,18.4,47.1,23.1,78c3.7,24.9,8.9,39.4,17,47.5c4.7,4.7,11.5,8.4,26.1,13.9
		c4.3,1.7,9.5,4.2,11.3,5.5c3,2.2,3.5,3.1,4,6.9c1.8,13.2,9.1,36.3,15.4,48.9c3.5,6.9,3.2,7.8-1.7,5.3c-6-3.2-10-10-15.8-26.5
		c-6.7-19.5-10.5-23.9-34.6-40.2c-15.6-10.6-24.4-18.5-28.8-26.1c-3-5.1-6-14.4-10.7-33.5c-6.2-25.2-11.2-37.3-21.5-51.9
		c-5.8-8.2-19.2-21.9-33.5-34.3c-23.4-20.2-45.9-45-51-56.3c-1.5-3.4-1.7-5.4-1.6-26.5V76.8z"/>
	<path id="path88" fill="#FF9900" d="M162,97.3c14,4.8,28.7,13.1,36.4,20.6c2.7,2.7,8.2,9.4,12.2,14.7c9.5,13,13.8,17.8,19.5,22.3
		c13.1,10.3,27,13.6,49.4,11.9c8.4-0.7,11.8-0.7,14.1,0.2c5.4,1.7,13,5.8,15.8,8.5l2.7,2.6l-11.2,1.9c-12.4,2.1-25.4,6.1-34.2,10.5
		l-5.7,2.8l-4.5-2.9c-7-4.5-14.3-7.6-22.2-9.5c-9-2.2-12.2-3.8-17.1-8.6c-4.9-5-8.3-10.7-14.7-25.4c-5.7-13-10.7-21.2-17.3-28.4
		c-5.2-5.7-15.5-13.9-24.2-19.3C154.2,95.1,154.4,94.6,162,97.3z"/>
	<path id="path90" fill="#66FFFF" d="M445.7,99.6c2.3,0,4.2,0.3,4.2,0.7c0,0.7-4.1,12-4.6,12.4c-0.2,0.2-2.2-5.8-3.3-10.9
		C441.4,99.6,441.4,99.6,445.7,99.6z"/>
	<path id="path92" fill="#66FFFF" d="M461.7,99.6h7h7V114v14.4l-7.3,1.4c-10.9,2.1-10.1,2.4-10.1-5.1c0-6.5,0.9-13.9,2.6-21.2
		L461.7,99.6z"/>
	<path id="path94" fill="#66FFFF" d="M478.9,99.6h25.7h25.7v11.5v11.5l-7.6,0.6c-14.2,1-34.9,3-38.8,3.7c-2.1,0.3-4.1,0.5-4.4,0.3
		c-0.4-0.2-0.7-6.6-0.7-14.1V99.6z"/>
	<path id="path96" fill="#99FFFF" d="M533.7,99.6h25.3h25.3v12.1v12.1l-14.7-0.6c-8.1-0.3-19.5-0.7-25.3-0.7h-10.6v-11.5V99.6z"/>
	<path id="path98" fill="#66FFFF" d="M587.6,99.6H613h25.3v16.3c0,15-0.1,16.2-1.4,15.8c-5.1-1.5-23.3-4.4-43.8-7l-5-0.6l-0.2-12.3
		L587.6,99.6z"/>
	<path id="path100" fill="#66CCFF" d="M641.6,99.6h25.7h25.7v23.7c0,13-0.2,23.7-0.6,23.7c-0.4,0-4-1.2-8.1-2.6
		c-8.8-3-31.1-9.2-37.9-10.6l-4.8-1v-16.6V99.6z"/>
	<path id="path102" fill="#66FFFF" d="M696.4,99.6h25.7h25.7v25.7v25.7h-22.4c-18.6,0-22.9-0.2-25.7-1.3l-3.3-1.3V124V99.6z"/>
	<path id="path104" fill="#66CCFF" d="M751.2,99.6h26.1h26.1l-0.2,25.5l-0.2,25.6l-25.9,0.2l-26,0.2v-25.7V99.6z"/>
	<path id="path106" fill="#66CCFF" d="M806.8,99.6h21.6H850v25.7v25.7h-21.6h-21.6v-25.7V99.6z"/>
	<path id="path108" fill="#FF9933" d="M394.4,111.7c1.2,13,6.6,29.8,14.1,43.6c10.5,19.3,23,33,38.4,42.4c3.2,1.9,6.1,3.9,6.4,4.5
		c0.3,0.5,4,5.1,8.1,10.3c4.1,5.1,9,11.5,10.9,14.3c4.2,6.1,9,16.3,9,18.8c0,1.7-0.2,1.8-2.2,1c-1.3-0.5-4.6-0.7-7.5-0.6
		c-5.1,0.2-5.2,0.2-8.7-3.2c-2-1.9-5-4.4-6.6-5.6c-1.7-1.2-4.1-4.2-5.3-6.6c-3.7-7.1-11-17.5-24-34.2
		c-26.6-34.3-34.9-50.6-35.9-70.3c-0.3-8.1,0.7-17.8,2.2-20.2C393.6,105.4,394.1,108,394.4,111.7z"/>
	<path id="path110" fill="#00CC99" d="M594.7,129.2c47.1,4.7,96,18.8,140.7,40.3c6.6,3.2,11.7,5.9,11.5,6.1
		c-0.2,0.2-3.7,1.3-7.8,2.5c-14.5,4.2-22.3,9.1-24.8,15.8c-2.7,7-0.2,9.9,8.5,9.7c7.3-0.1,25.1-5.6,40-12.4c3.3-1.5,6.4-2.7,6.7-2.7
		c1,0,19.4,12,29.5,19.1c12.1,8.6,30.4,23.3,41.8,33.6l9.1,8.3l0.1,7.7v7.7l-3.5-2.1c-2-1.1-5.1-2.5-7.1-3.1
		c-7.5-2.2-16.8,2.3-16.8,8.2c0,6.5,7.6,14.7,19.8,21.3l7.6,4.2v47.9c0,26.4-0.2,48-0.4,48c-1.7,0-9.9-6.3-11.5-8.9
		c-3.2-4.8-3.7-9-3.2-25.4c0.4-12.5,0.2-16.4-0.9-21.6c-2.7-12-7.4-18.9-18.9-28.4c-2-1.7-2.1-2.2-2.7-14.1
		c-0.9-20.4-3.2-33.7-7.1-42.3c-5.8-12.7-16.6-14.1-20.6-2.7c-2.5,7.4-1.8,25,1.9,46.4l0.5,3.1l-4.8-1.2c-6.9-1.8-12-4.6-15.6-8.6
		c-3.7-4-5-7-9.1-19.8c-3.8-11.9-6.4-16.7-11.8-22.2c-5.1-5.1-11.1-8.2-19.4-10c-8.1-1.7-14.7-1.1-25.3,2.6
		c-12,4.1-15.7,4.7-19.6,3.7c-5.5-1.5-9-5.3-13.4-14.9c-2.2-4.8-4.7-10-5.5-11.5c-2.2-4.3-8.4-10-13.9-12.6
		c-13-6.5-26.6-5.1-47.8,4.9c-9.2,4.3-16.5,6.3-20.3,5.5c-7.1-1.6-22.2-9.9-21.6-11.8c1.6-3.9,2.3-17,1.5-24.1
		c-1.7-15-6.9-19.7-14.3-13c-6.1,5.6-11,16.6-12.2,28.1l-0.7,5.7l-7.1,1.4c-12.3,2.6-20.4,6.4-27.7,13.2c-2.2,2.1-4.2,3.4-4.4,3
		c-0.2-0.5-3.4-6.1-7.3-12.7c-3.9-6.6-8.5-14.6-10.4-17.9l-3.4-6.1l5.6-2.6c10.2-4.8,23.6-15.5,25.7-20.6c1.9-4.5,1.5-8-1.2-10.5
		c-2.1-2-3.3-2.4-8.3-2.8c-4.8-0.3-6.9,0-11,1.5c-6.1,2.2-13.1,6.5-17.3,10.5l-3,2.8l-1.7-6.1c-1-3.3-2-7.7-2.2-9.8l-0.6-3.8l12-2.2
		c14.9-2.8,27.2-4.4,44.2-5.6c7.3-0.4,14.8-1,16.6-1.1C543.4,125.8,572.7,126.9,594.7,129.2z M612.2,167.8c0,3.7,0.3,4.3,3.8,7.6
		c8,7.5,25.4,17.3,33.8,18.8c9.9,1.8,18-3.3,16.3-10.5c-0.8-3.5-9.8-11.8-17.2-16c-3.6-2-9.5-4.6-13.3-5.9
		C620.1,156.6,612.2,158.6,612.2,167.8z"/>
	<path id="path112" fill="#669933" d="M621.4,162.7c14.5,0,41,14.9,41,23.2c0,2.4-0.4,2.8-3.9,4.4c-3.7,1.7-4,1.7-8.9,0.3
		c-11.3-3.2-30.9-15.4-33.5-20.9c-1.2-2.5-1.2-2.9,0.1-4.8C617.4,163,618.2,162.7,621.4,162.7z"/>
	<path id="path114" fill="#FF9933" d="M0,130.9l4.1,5.7c8.8,12.5,25.6,30.2,43.7,46c35.9,31.4,46.5,46.9,55.2,81
		c1.3,5.4,2.3,9.9,2.2,10c-0.1,0.2-2-2.6-4.2-6c-11.1-17.5-23.1-30.2-42.8-45.2c-13.3-10.1-23.2-19.4-29.1-27.4
		c-1.9-2.5-7.6-13.2-12.8-23.7C11,160.9,5.3,150.3,3.4,148c-3.3-4.2-3.4-4.5-3.4-10.7V130.9z"/>
	<path id="path116" fill="#669966" d="M501.1,152.4c-3.9,7.4-27.8,23.2-30.2,20c-0.4-0.6-2-3.7-3.5-7.1l-2.7-6.1l2.7-2.8
		c3.7-3.8,10.5-8.2,16.3-10.7C494.9,141,505,145,501.1,152.4z"/>
	<path id="path118" fill="#FF9900" d="M0,149l3.1,4.6c2.7,4.1,8.1,14.9,14.8,29.5c6.5,14.4,17.7,27,36.4,41
		c23.2,17.3,34,29.3,48.6,53.3c3.2,5.3,6.6,12,7.6,14.9c5.5,16.2,12.7,24.1,35.9,39.6c15.4,10.2,23.2,17.3,26.9,24
		c1.3,2.7,4.1,9.5,5.9,15.1c4.6,13.6,7.1,18.8,11.3,22.9c3.2,3.3,9.5,6.2,13,6.2c2.3,0,5.6,6.1,6.9,13c1.7,8.9,4.3,16.4,6.7,19.3
		c1.8,2.2,2.6,4.2,1.5,4.2c-1.9,0-21.3-7.1-26-9.5c-13.8-7.3-22.3-19.7-34.9-51c-5.5-13.6-9.4-20.8-15.1-27.7
		c-12-14.5-23.3-25.5-36.7-35.4c-6.7-5-6.7-5.1-11.5-14.9c-9.6-20.2-15.2-25.8-41.1-41c-14.7-8.6-20.8-14.4-28.1-26.2
		c-3.2-5.1-7.9-11.5-10.5-14.3c-3.7-3.8-4.8-5.5-4.8-7.5c0-5.1-2.7-24.3-4.3-31.5c-1-4.6-2.4-8.1-3.7-9.6c-1.8-2.2-2-3.2-2-10.5V149
		z"/>
	<path id="path120" fill="#66FFFF" d="M730.3,154.5l17.6-0.1v8.3c0,4.6-0.2,8.3-0.7,8.3c-0.3,0-1.4-0.6-2.4-1.2s-7.5-3.9-14.5-7.1
		c-7-3.2-13.8-6.4-15.2-7.1C712.9,154.7,714.4,154.5,730.3,154.5z"/>
	<path id="path122" fill="#66FFFF" d="M751.2,154.4l26,0.2l25.9,0.2l0.2,24c0.1,14.4-0.1,24.3-0.6,24.8s-5.6-2.4-13.9-7.9
		c-13.3-8.8-23-14.8-32.4-19.8l-5.2-2.8v-9.4V154.4z"/>
	<path id="path124" fill="#66CCFF" d="M806.8,154.4h21.6H850v24.9v24.9h-21.6h-21.6v-24.9V154.4z"/>
	<path id="path126" fill="#FF9933" d="M127.7,176.2c2.5,7,5.8,12.2,12,18.7c10.3,10.9,19.5,16.7,36.7,23.5c12.5,5,20.4,9,24.7,12.5
		c3.1,2.6,6.4,7.8,6.4,10.2c0,0.7-1.7,3.9-3.9,7.1c-4.4,6.6-4.5,6.6-13.1,4.2c-15.8-4.4-23.8-9.5-36.8-22.9
		c-15.2-15.8-28.4-38.9-32.5-57.3c-0.9-4.2-1.9-8.2-2.2-9.1C117.7,158.7,125.9,170.9,127.7,176.2z"/>
	<path id="path128" fill="#669933" d="M552.8,163.5c2.7,1.4,4.2,8.5,4.2,19.1c0,5.2-0.2,10.1-0.4,10.8c-0.2,0.7-0.6,2.2-0.8,3.4
		l-0.4,2.1l-5.6-1.4c-3.2-0.8-7.3-1.5-9.2-1.5l-3.7-0.1l0.6-5.2c1.2-10,6.6-22.7,11.5-26.5C551.1,162.5,550.9,162.5,552.8,163.5z"/>
	<path id="path130" fill="#FFFF00" d="M0.9,172.9c1.5,2.6,3.8,17.6,5.7,36.7c4.8,50,9,69.9,18.8,89.3c9.4,18.8,22.9,31.9,60.1,58
		c37.1,26.1,45.8,35.1,68.6,70.6c12.9,20.3,17.8,27.1,22.9,32c8.5,8.1,20.8,15.4,33,19.5c9.5,3.2,21.2,4.2,27.5,2.2l3.7-1.2l3.2,6.1
		c5.9,11.5,18.2,20.6,32.5,24.1c8,2,30.9,2.2,35.7,0.2c3.2-1.3,3.4-1.3,6.4,0.8c1.7,1.2,3.2,2.4,3.2,2.7c0.1,2.4-36.4,2.7-50.1,0.4
		c-10.5-1.8-25.6-5.4-35.3-8.5c-6-1.9-7-2.5-8-4.8c-2.3-5.5-6.1-8.2-24.1-17.9c-30.5-16.4-45.3-29.9-62.3-56.1
		c-16-24.8-30.1-37.4-70.1-62.7c-25.3-15.9-32.9-21.3-40.6-29C20,324,12.8,312.3,5.9,293.6C-0.2,277.4,0,279,0,222.3
		C0.1,186.1,0.3,171.8,0.9,172.9z"/>
	<path id="path132" fill="#669933" d="M751.5,178.6c1.5-0.1,13.9,6.6,13.9,7.5c0,0.7-18.8,8.1-27.8,11c-4.1,1.2-10.4,2.6-13.9,2.8
		c-7.6,0.6-8.6-0.4-6-5.4c3.2-5.8,10.2-9.7,25.2-13.9C746.8,179.5,750.6,178.6,751.5,178.6z"/>
	<path id="path134" fill="#FFFF00" d="M138.5,184.5c11,10.5,19.3,14.6,42.7,21.3c25.2,7.1,37,12.2,39.6,16.9c1.2,2.1,1,2.3-4.1,8.5
		c-3,3.5-5.6,6.3-5.8,6.3s-1.2-1.3-2-2.9c-3.7-6.9-12.2-12.3-29.1-18.6c-17.4-6.6-31.6-15.5-39.6-25.2c-3.7-4.6-6.6-8.9-6.6-10.3
		C133.6,180.1,135.8,182,138.5,184.5z"/>
	<path id="path136" fill="#CC9966" d="M362.3,183.5c12.1,3.1,34.2,12.6,42.7,18.4c5.2,3.6,18.5,14.8,18.1,15.2
		c-0.2,0.2-3.2-0.4-6.5-1.3c-3.6-1.1-9.9-2-14.9-2.2c-8.3-0.4-9.1-0.3-13.6,1.7c-8.9,4.1-22.8,19.9-22.8,26c0,0.9-1.2,2.7-2.6,4.1
		c-7.4,7-14.5,20.3-17.4,32.5c-1.5,6.1-1.7,9.1-1.4,18.5c0.3,9.9,0.7,12.2,3.1,19.1c1.5,4.3,3.7,9.5,4.7,11.5c1.2,2,2,3.7,1.8,3.8
		c-0.1,0.1-2.5,1.2-5.2,2.6c-6.9,3.2-14.9,11.5-18.6,19.1l-2.7,5.8l-7.6-3.7c-11.5-5.6-17.8-7.1-31.6-7.1c-13,0-19,1.2-29.3,5.9
		c-10.2,4.6-21.3,13.7-28,22.7c-1.2,1.7-3.4,3.3-5.1,3.9c-5.1,1.7-12.7,10.5-15.2,17.3l-0.9,2.5l-2.6-4.2
		c-10-15.9-19.3-47.1-20.3-68.1c-0.6-10.6,0.8-27.2,3.1-36.1c4.1-16.6,12.5-34.9,21.9-47.7c14.4-19.8,38.4-40.9,56.5-50.1
		c11.2-5.6,28.1-10,46.9-12.1C332.7,179.4,348.8,180.1,362.3,183.5z"/>
	<path id="path138" fill="#FF9933" d="M234.2,184.4c4.9,1,14.1,5.1,19.6,8.5l3.7,2.2l-6.1,4.2c-3.3,2.2-8.1,5.8-10.4,7.9l-4.4,3.7
		l-2.6-3c-3.7-4.2-11-7.6-19.6-9.2c-4-0.7-9-1.9-11-2.6c-7.6-2.7-19.9-8-19.9-8.6c0-0.4,2.9-0.7,6.5-0.8c3.5,0,10.9-0.7,16.4-1.6
		C218,183.4,228.1,183.1,234.2,184.4z"/>
	<path id="path140" fill="#FFFF00" d="M130.2,203.4c7.1,12.8,12.8,20.2,23.8,31.1c9,9,11.9,11.5,17.4,14.3
		c6.7,3.4,21.4,8.5,24.6,8.5c0.9,0,1.6,0.2,1.4,0.6c-0.1,0.4-1.6,3.7-3.1,7.5l-2.9,6.9h-4.1c-17.2,0-42.3-21.2-53.8-45.2
		c-2.8-6.1-7.4-23.9-7.4-29.1C126.2,197,128,199.5,130.2,203.4z"/>
	<path id="path142" fill="#669933" d="M537.9,199.3c6.9-0.1,22.9,4.8,21.1,6.5c-0.4,0.4-6.9,0.9-14.4,1.2
		c-11.9,0.3-14.6,0.7-20.5,2.6c-9.3,3-18.8,10.5-20.6,16.4c-0.3,0.8-0.8,1.6-1.3,1.6c-0.8,0-4.9-7.7-4.9-9.4c0-0.7,1.6-2.7,3.6-4.5
		c6.6-6.1,15.3-10.2,27.1-12.7C531.8,200.1,536.3,199.3,537.9,199.3z"/>
	<path id="path144" fill="#669933" d="M660.7,217.5c4.2,8.4,4.2,8.5-1.8,5.4c-11-5.8-24.2-8.6-40.5-8.8c-5.2-0.1-12.7-0.3-16.6-0.7
		l-7.1-0.5l6.2-3.2c7.6-4,15.4-7,22-8.5C638.2,197.7,654.3,204.7,660.7,217.5z"/>
	<path id="path146" fill="#FF9933" d="M201.7,201.3c13.9,0.2,20.8,2,26.6,6.5c5.9,4.5,5.9,5,1,9.9l-4.3,4.2l-2.2-2.7
		c-3.7-4.3-23.5-12.8-38.5-16.4l-2.9-0.7l4.2-0.5C187.8,201.3,195.1,201.1,201.7,201.3z"/>
	<path id="path148" fill="#66FFFF" d="M828.4,207.5H850v18.3v18.3l-5.6-5.1c-6.6-6.1-22.2-19.2-31.2-26.1c-3.5-2.7-6.4-5-6.4-5.1
		C806.8,207.7,816.5,207.5,828.4,207.5z"/>
	<path id="path150" fill="#66FF00" d="M570.7,211.4c4.6,2.2,7.6,2.9,13.9,3.5c4.5,0.4,8.5,1,9,1.3c0.5,0.3,9.7,0.8,20.6,1.2
		c16.9,0.7,20.8,1,27.9,2.8c12.5,3.2,19.5,7.1,27.5,15.1c5.2,5.4,7.4,7,10.4,7.8c2.1,0.5,6,1.7,8.7,2.5s8.4,1.7,12.5,2.1
		c10,0.7,17.7,2.4,22.1,4.6c4.6,2.4,11.3,8.8,17.8,17.1c6.8,8.6,13,14.3,19.2,17.3c2.7,1.3,6.1,3.5,7.6,4.7c1.5,1.3,3.1,2.4,3.5,2.4
		s2.7,1.6,5.1,3.6c2.4,2,8.5,6.5,13.5,10.1c17.8,12.7,20.3,15.6,30.7,35.2c2.7,5.1,6.2,10.9,7.7,12.6c2.7,3.2,2.8,3.4,3,11.8
		c0.1,6.5,0.5,9.1,1.7,11.3c1.1,2.1,1.6,5,1.7,10.8c0.2,4.4,0.5,9,0.8,10.1l0.5,2.2l-8.2-1.8c-4.5-1.1-10.8-2.2-13.9-2.5
		c-5.8-0.6-5.8-0.6-7.7-4.2c-1-1.9-4.7-7.9-8.2-13.1C747.1,303.5,662.5,252.8,570,243.6c-12.1-1.2-36.2-1.2-58.2-0.1
		c-3.2,0.2-3.2,0.2-5.5-5.1c-2.2-5.1-2.2-5.5-1.1-8.3c2.1-5,5.9-9.5,10.7-12.8c7.7-5.1,17-7.1,34-7.3c6-0.1,11.7-0.3,12.9-0.7
		C564.3,208.9,566.4,209.4,570.7,211.4z"/>
	<path id="path152" fill="#0066CC" d="M400.9,217c7.9,0.4,18.3,2.7,24.5,5.4l3.3,1.5l-10.9-0.4c-16.7-0.6-29.5,2.7-41.8,10.7
		c-2.7,1.7-5.2,3.2-5.5,3.2s0.7-1.6,2-3.6c3.7-5.1,12.8-13.6,16.9-15.6C392.5,216.8,394.2,216.7,400.9,217z"/>
	<path id="path154" fill="#FFCC00" d="M18.3,227c5.4,8,5.6,8.3,6.1,14.9c1.7,21.2,8.8,41.7,20,58.9c5.4,8.2,19.1,21.7,28.2,27.8
		c4.2,2.7,12.5,7.9,18.7,11.4c14.1,8.1,16.4,9.9,31.3,23.4c6.7,6.1,14.5,12.9,17.4,15c4.4,3.3,5.6,4.8,8.4,10.5
		c1.7,3.7,5.3,12.5,8,19.5c9.3,25.1,14.4,34.1,24.6,43.5c5.2,4.8,8.2,6.6,23.5,14.2c9.6,4.7,18.7,9.5,20,10.7l2.5,2.1l-2.2,0.1
		c-4.1,0-15-3.3-22.7-7c-18.8-8.9-25.6-15.6-42.7-42.4c-16.4-25.6-24.4-36.2-35.2-46.6c-9.5-9.2-17.7-15.6-39.6-31
		c-20.8-14.5-27.5-19.9-37.4-29.8c-15.4-15.5-22.7-28.6-28.6-52.4c-2.2-9-4.9-24.8-6.1-36.9c-0.5-4.6-1.1-9.7-1.3-11.5
		C10.5,216.5,12.1,217.7,18.3,227z"/>
	<path id="path156" fill="#FF9900" d="M120.2,225.4l1.7,2.1c1.7,2.1,3,4.5,17.8,34.9c5.1,10.5,9.6,18.6,13,23.2
		c8.3,11,17.5,16.7,27.2,16.7h3.7l-0.6,4.3c-0.2,2.4-0.5,9-0.5,14.5v10l-4.3-2.3c-2.4-1.3-8.9-4.1-14.4-6.2
		c-16-6.3-21.8-11-26.6-21.4c-3.5-7.6-5.2-14.8-8.7-35.9c-1.8-11-4.2-23.5-5.3-27.8c-1.2-4.3-2.3-8.8-2.7-10L120.2,225.4z"/>
	<path id="path158" fill="#990033" d="M429.6,228.3c28.8,6.9,49.6,31.5,51.5,61.2c2,29.7-15.9,57.1-44.3,67.4
		c-31.7,11.6-67.7-2.7-82.8-32.8c-5.4-10.9-6.7-16.8-6.7-30.2c0-13.9,1.1-18.8,6.2-29.6c9-18.4,26-31.9,46.1-36.4
		C407.3,226.1,421.7,226.4,429.6,228.3z M398.6,234c-13,3.3-26.2,11.8-33.8,21.8c-12.5,16.4-16.3,38.5-9.8,57.4
		c3.2,9,6.7,14.9,13,21.9c25.7,28.1,70.6,26.1,93.9-4.4c25.6-33.5,10.5-81.8-29.9-95.5C423.1,232.3,407.7,231.7,398.6,234z"/>
	<path id="path160" fill="#0099FF" d="M415,236.1c7.9,0.2,10.8,0.7,16.5,2.6c18.3,6.1,33.1,22.2,38,41.1c1.9,7.3,1.9,20.3-0.1,28
		c-0.8,3.3-1.7,6.1-1.9,6.1s-2.9-1.3-6-2.9c-3-1.6-11.6-5.8-19.2-9.5c-23.5-11.3-29.7-18.7-38.2-45.7c-1.9-6.1-4.2-12.6-5.1-14.4
		c-0.9-1.8-1.5-3.3-1.3-3.5s1.9-0.7,4-1.2C403.8,236.3,409.8,235.9,415,236.1z"/>
	<path id="path162" fill="#3366CC" d="M393.3,239.1c1.5,0,4.2,6.5,8.5,19.9c7.6,24.3,16,34.8,35.7,44.2c4.8,2.3,12.9,6.2,18.1,8.7
		c5.1,2.4,9.5,5,9.8,5.6c0.7,1.9-5.3,11.2-11.2,17.1c-22.1,22.1-57,22.8-79.9,1.7c-11.7-10.8-18-24.1-18.8-39.5
		c-1.1-23.5,10.8-44.1,31.6-55C389.9,240.3,392.7,239.2,393.3,239.1z"/>
	<path id="path164" fill="#FF9900" d="M131.4,231.6c0.2,0.2,2.7,4,5.6,8.3c6.5,9.7,19,22.5,27.2,27.8c7.6,4.9,15.6,7.9,21.6,7.9
		c3.9,0,4.3,0.2,3.8,1.4c-0.3,0.8-1.7,6.1-3.2,11.8l-2.6,10.2l-4.6-0.3c-11.5-0.8-22-10.2-32-28.6c-5.9-10.9-15-31.5-15.7-35.4
		C131.2,232.8,131.1,231.4,131.4,231.6z"/>
	<path id="path166" fill="#669933" d="M726.1,237c8.6,1.1,19.1,9.4,23.8,18.8c2.1,4,9.7,25.8,9.2,26.2c-0.8,0.8-8.4-6.4-14.6-13.9
		c-4.1-5-9-10.5-10.9-12.4c-7-6.7-16.5-10.2-30.6-11.4c-11-0.9-11.3-1.3-2.4-4.6c4.3-1.5,9.7-3,12-3.3
		C716.8,236,719.4,236.1,726.1,237z"/>
	<path id="path168" fill="#669933" d="M797.5,242.9c5.6,3.9,10.1,22.7,11.5,48.1l0.6,10.9l-9-3c-5-1.6-9.1-3-9.3-3.1
		c-0.1,0-1-3.8-1.9-8.3c-2.1-10.5-3.1-33.4-1.7-39c0.6-2.2,1.7-4.7,2.3-5.6C791.6,241.2,795,241.2,797.5,242.9z"/>
	<path id="path170" fill="#FFCC00" d="M28,242l5.9,5.6c4.1,3.8,10.3,8.1,19.9,13.9c15.9,9.5,21.7,13.8,27.6,21.1
		c3.5,4.3,11.6,18.8,11.6,20.7c0,0.3-3.2-0.9-7.1-2.8c-3.9-1.8-10-3.9-13.4-4.6c-5.6-1.2-6.8-1.2-10.1-0.1c-5.7,1.8-5.1,3.2,2.7,7.4
		c22,11.7,44.8,30.8,61.3,51c6.4,8,13.7,18.5,13.2,19c-0.2,0.2-6.6-5.2-14-12c-14.9-13.6-18.3-16.1-32-24
		c-23.7-13.6-36.8-24.5-45.7-37.8c-10.2-15.4-17.3-34.6-19.2-51.9L28,242z"/>
	<path id="path172" fill="#66FFFF" d="M526.1,246.7l4.3-0.2v6.2v6.3l-8.5-0.2l-8.4-0.2l-1.7-4.8c-0.8-2.7-1.3-5.1-1-5.4
		c0.3-0.3,2.8-0.8,5.6-1.1C519.4,247,523.7,246.7,526.1,246.7z"/>
	<path id="path174" fill="#66FFFF" d="M533.7,246.6h13.5c12.3,0,24.5,0.8,33.6,2.2l3.5,0.5v4.9v4.9h-25.3h-25.3v-6.2V246.6z"/>
	<path id="path176" fill="#996633" d="M479.7,250.9c5.3,2.5,13.4,11,16.5,16.9c3.1,6,6.3,17,8.1,27.2c1.3,8,1.7,17.6,0.6,18.3
		c-0.4,0.2-5.1-6-10.6-13.9c-9.4-13.6-10-14.5-11.2-21c-1.5-7.1-6.3-18.4-10.6-24.7c-1.4-2-2.6-3.9-2.6-4.2
		C469.8,248.4,476.3,249.2,479.7,250.9z"/>
	<path id="path178" fill="#66FFFF" d="M607.2,253.7c22.7,5.2,22.7,5.2,0.2,5.2l-19.8,0.1v-4c0-2.2,0.2-4.3,0.6-4.6
		C588.9,249.7,591.9,250.2,607.2,253.7z"/>
	<path id="path180" fill="#66FFFF" d="M522.8,262.5l7.2,0.2l0.2,25.5l0.2,25.6h-2.3h-2.3l-1.9-12.3c-1-6.7-3.3-17.9-5.1-25
		c-1.7-7.1-3.2-13.1-3.2-13.5C515.5,262.6,518.7,262.4,522.8,262.5z"/>
	<path id="path182" fill="#99FFFF" d="M533.7,262.3h25.3h25.3v25.7v25.7h-25.3h-25.3v-25.7V262.3z"/>
	<path id="path184" fill="#66CCFF" d="M613.4,262.3h24.9v25.7v25.7l-25.1-0.2l-25.2-0.2l-0.2-24.5c-0.1-13.4,0-24.9,0.2-25.5
		C588.4,262.6,594.1,262.3,613.4,262.3z"/>
	<path id="path186" fill="#669933" d="M848.2,268.1c1.8,1.5,1.8,2,1.7,11.5l-0.2,10l-6.2-3.6c-8.1-4.6-13.9-9.9-15.9-14.3
		c-1.9-4.2-1.1-6.4,2.9-8.2C834.7,261.5,842.8,263.6,848.2,268.1z"/>
	<path id="path188" fill="#66CCFF" d="M642.5,264c2.2,0,21.9,8.5,35.3,15.3l14.9,7.6l0.2,13.4l0.2,13.5h-25.7h-25.7v-24.9
		C641.6,272.9,642,264,642.5,264z"/>
	<path id="path190" fill="#FF9900" d="M0.1,288.5l2.5,6.6c7,18.4,14.8,31.1,26.1,42.3c8.7,8.7,15.9,13.9,39.8,28.8
		c40.5,25.3,54,37.2,71.8,63.7c5.5,8.1,12.3,17.3,15.3,20.8c10.7,12.4,24.6,23,43.4,33.4c19.3,10.5,23.4,13.1,24.8,15
		c0.7,1.1,1.2,2.2,1.2,2.5c0,1.3-20.3-6.9-31.5-12.7c-23.2-12.1-29.5-16.9-58.1-45.2C103.7,412.4,95.2,406,72,396.2
		c-23.7-10-36.9-18.2-48.4-29.7c-7.7-7.6-15.9-18.8-20.8-28.8L0,332l0.1-21.7V288.5z"/>
	<path id="path192" fill="#66FFFF" d="M696.9,289.7c1.6,0,34.4,22.7,34.4,23.7c0,0.2-7.8,0.3-17.4,0.3h-17.4v-12
		C696.4,295.1,696.7,289.7,696.9,289.7z"/>
	<path id="path194" fill="#CC9966" d="M485.1,293c0.5,0,17.3,24.2,24.1,34.7c17.1,26.4,28.2,51.7,31.6,72
		c3.2,19.3,0.7,63.6-5.4,95.4c-2,10-5.2,17.1-10.9,23.2c-3.3,3.7-5.5,5.1-11.2,7.5c-16.4,6.8-33.5,11.5-54.3,14.8
		c-10.5,1.7-15.2,1.8-37.8,1.9c-27.2,0-32.1-0.5-46.3-4.6c-16.4-4.8-35.3-15.4-56.8-31.5c-4.7-3.6-12.8-9-18-12l-9.5-5.6l8-1.4
		c16.4-2.8,27.9-8.7,39-19.9c15.4-15.4,22.7-36.8,20.1-57.8c-1.1-8.5-4.5-19.9-7.6-25c-2.2-3.7-2.2-8.1,0.1-13.2
		c0.8-2,1.7-3.6,2-3.6c0.8,0,6.9,9.5,9.8,15.4c4.2,8.5,5.5,12.3,7.2,22.2c1.1,5.8,2.4,10.4,3.9,13.2c5.1,9.3,14.6,16.5,20,15.2
		c4.8-1.2,8.9-5.3,7.1-7.1c-0.6-0.6-1.8-0.2-3.7,1.3c-5,3.8-10,2.3-15.7-4.6c-4.7-5.9-7.3-11.7-8.2-19.1
		c-1.4-11.1-7.3-25.2-14.9-35.4l-3.2-4.2l3.2-2.9c4.6-4.2,10.1-7.1,14.3-7.7c3.2-0.4,4.6-0.1,9.1,2.2c16.9,8.5,35.2,10.5,52.6,5.4
		c22.7-6.6,40.3-23.7,47.6-46.1c1.9-5.9,3.5-14.4,3.5-19.3C484.8,294.4,484.9,293,485.1,293z M411.5,376.5c-1.4,1.4-0.3,2.7,3,3.5
		c5.6,1.4,10.4,5.4,12.7,10.5c2.7,5.6,2.1,9.4-1.9,13.8c-2.7,3-3.1,4.9-0.7,4.9c1.6,0,5.2-4.2,6.6-7.6c3.5-8.2-1-17.9-10.3-22.7
		C416.6,376.8,412.3,375.7,411.5,376.5z M415.4,403c0.7,1.9,3,1.5,3-0.5c0-1,1.3-3.1,3-4.6c1.6-1.6,2.7-3.2,2.4-3.7
		C421.7,391,413.8,399.1,415.4,403z M482.6,411.8c-27.3,1.4-31,2-36.1,5.3c-1.6,1-5.3,5.1-8.2,9c-3.7,5-6.7,8.1-9.9,10.2
		c-10.5,6.7-13.2,11.3-14.3,23.8c-0.5,4.6-1.2,11.7-1.7,15.8c-0.7,6.1-0.7,7.6,0.2,8.5c3.8,3.7,26,5.6,38.1,3.2
		c13.6-2.7,26.6-10.9,32-20.2c7.3-12.5,8.5-29.8,3.2-46.6c-1.1-3.3-1.7-6.7-1.5-7.6C484.8,412,484.6,411.7,482.6,411.8z
		 M401.3,415.4c-2.7-0.7-10.4,5.3-10.4,8.1c0,2.2,2.3,1.8,4.6-0.9c1.2-1.2,3.2-2.8,4.6-3.4c1.6-0.7,2.5-1.6,2.3-2.3
		C402.2,416.2,401.8,415.5,401.3,415.4z"/>
	<path id="path196" fill="#FF6633" d="M470.8,415.1c9.9-0.1,10.5,0.4,5.4,4.3c-4.1,3.1-7.6,4.7-12.4,5.6c-2.3,0.5-5.1,1.4-6.1,2
		c-1,0.7-4.4,4.8-7.5,9.2c-6.1,8.5-8.5,10.9-15.5,14.4c-4.2,2.2-4.3,2.3-5.3,7.2c-1.8,9-4.4,14.4-9,19.3c-2.4,2.4-4.8,4.4-5.4,4.4
		s-0.8-0.3-0.6-0.7c0.2-0.3,0.8-6.2,1.4-13c1.4-17.9,3.3-22.2,12.7-28.2c4.6-3,8.2-6.6,11.3-11.2c5-7.6,10-11.1,17.6-12.4
		C459.9,415.6,465.9,415.2,470.8,415.1z"/>
	<path id="path198" fill="#FF6633" d="M484.8,426.8c1.8,7.8,2.2,19.7,0.7,26.6c-4.5,21.4-24.8,34.2-52.2,32.8
		c-5.2-0.2-11-0.9-12.7-1.4l-3.2-0.9l3.6-3.2c2-1.7,4.2-4.2,4.7-5.4c0.8-1.5,2.1-2.3,4.2-2.7c11-1.8,22-8.1,31.5-18.2
		c9.9-10.5,14.1-18.2,15.5-28.2c0.3-2.7,1.2-4.9,2.7-6.5C482.3,417,482.4,417.3,484.8,426.8z"/>
	<path id="path200" fill="#FFFFCC" d="M474,427.1c0,9.1-13.5,27.4-26.9,36.1c-4.6,3-13.7,6.6-16.8,6.6c-2.4,0-1-2.3,3.1-5.1
		c6.5-4.5,31.2-28.7,34.1-33.4c1.4-2.3,3.2-4.7,3.9-5.3C473.2,424.5,474,424.8,474,427.1z"/>
	<path id="path202" fill="#FFFFCC" d="M465.6,429.3c-2.3,4.4-32.6,33.8-33.7,32.7c-0.2-0.2-0.2-1.9,0.2-3.8c0.5-3.1,1-3.6,5.2-5.7
		c5.6-2.9,10.7-8.1,16.7-16.9c3.6-5.2,4.9-6.5,7.4-7.1C466.3,427.2,466.7,427.3,465.6,429.3z"/>
	<path id="path204" fill="#FF9900" d="M69.1,298.4c15.1,2.3,35.8,15.6,56.6,36.5c15.6,15.5,23.2,27.2,30.7,46.9
		c4.5,11.8,12.3,27.1,17.1,33.4c8,10.5,15.6,15.4,33.8,21.4l13.2,4.3l4.3,8.6c3.1,6,6.1,10.4,9.8,14.4c4.6,5.1,5.3,6.2,5.5,9.4
		l0.2,3.6l-3.7,0.9c-4.1,1.1-3.6,1.2-10.5-4c-2.2-1.7-11.6-6.9-20.8-11.4c-27.3-13.5-31.9-19.1-45.6-55.3
		c-9-23.6-16.8-37.7-30.4-54.8c-15.3-19.3-38.6-39.2-58.9-50.4c-2.7-1.5-5-3-5-3.4S67.1,298.1,69.1,298.4z"/>
	<path id="path206" fill="#669933" d="M798.5,301.8c11.3,3.2,23.9,12.6,28.1,21c2.9,5.6,5.1,15.4,5.1,23.1c0,3.7-0.2,6.9-0.6,6.9
		c-0.8,0-3.7-4.6-11-17.9c-3.2-6-7.6-12.9-9.7-15.2c-2.1-2.3-9-8.1-15.3-12.6c-6.3-4.6-11.5-8.5-11.5-8.6
		C783.6,298.1,792.5,300.1,798.5,301.8z"/>
	<path id="path208" fill="#66FFFF" d="M526.4,317.1h2h2v19.5c0,10.7-0.2,19.5-0.4,19.5c-0.2,0-1-1.2-1.7-2.6
		c-1.1-2.2-1.4-5.9-1.6-19.5L526.4,317.1z"/>
	<path id="path210" fill="#99FFFF" d="M533.7,317.1h25.3h25.3v25.7v25.7h-24.5c-23.3,0-24.5-0.1-25.3-1.6c-0.5-1-0.8-10.7-0.8-25.7
		V317.1z"/>
	<path id="path212" fill="#99FFFF" d="M613.4,317.1h24.9v25.7v25.7l-25.1-0.2l-25.2-0.2l-0.2-24.5c-0.1-13.4,0-24.9,0.2-25.5
		C588.4,317.4,594.1,317.1,613.4,317.1z"/>
	<path id="path214" fill="#66CCFF" d="M641.6,317.1h25.7h25.7l-0.2,25.5l-0.2,25.6h-25.3h-25.3l-0.2-25.6L641.6,317.1z"/>
	<path id="path216" fill="#99FFFF" d="M696.4,317.1h19.8h19.8l6,5.1l6,5.1v20.7v20.7h-25.7h-25.7v-25.7V317.1z"/>
	<path id="path218" fill="#66FFFF" d="M751.2,330.8l10.2,10.4c9.2,9.4,23,25.5,23,26.9c0,0.2-7.4,0.4-16.4,0.3l-16.4-0.2l-0.2-18.7
		L751.2,330.8z"/>
	<path id="path220" fill="#990033" d="M355.3,334.6c1.2,0,7.8,7.6,8.2,9.4c0.1,0.4-1.7,1.4-4,2.2c-9.7,3.5-15.6,9.6-19.8,20.6
		c-0.7,1.8-0.7,1.8-5.1-2.1l-4.5-4.1l1-3c2.7-8.1,10.9-17.3,18.8-21.1C352.2,335.5,354.6,334.5,355.3,334.6z"/>
	<path id="path222" fill="#FFFF00" d="M1.4,342.4c4.2,8.2,14,21.5,20,27.2c3.2,3.2,3.2,3.3,2.5,6.6c-0.4,1.9-0.7,5.6-0.4,8.1
		c1.7,20.7,22.3,30.5,72,34.4c8.2,0.7,10.8,1.6,15.4,5.9l3.4,3.2l-11.7-0.2c-6.5-0.2-16.9,0.1-23.2,0.5c-13.1,0.9-23.1,0.2-30.6-2.3
		c-19.8-6.6-38.1-21.3-45.9-37L0,383v-21.6C0.1,341.3,0.2,340.1,1.4,342.4z"/>
	<path id="path224" fill="#0066CC" d="M370,348.8c0.7,0.7-0.2,1.6-4.6,3.7c-9,4.2-16.8,12.1-19.2,19.6c-1.2,3.5-1.7,3.8-3.1,1.7
		c-1.3-2.1,0.7-9.3,3.8-13.9c3.2-4.6,7-7.6,13-10C365.3,347.7,368.5,347.3,370,348.8z"/>
	<path id="path226" fill="#990033" d="M305,352.4c7.7,2.1,19.3,8.2,25.8,13.6c10.4,8.5,18.4,21.4,22.1,34.8c2.4,9,2.4,24.6,0,33.6
		c-5.1,18.8-18.8,35.4-36.2,43.7c-9,4.3-15,5.8-25.6,6.4c-31.9,1.7-59.1-17.8-68.4-49.3c-1.7-6.1-2.2-9-2.2-17.3
		c-0.1-12,1.3-18.4,6.4-29.1c9.1-19.4,25.6-32.6,46.7-37.3C280.8,350,297.9,350.4,305,352.4z M277.1,357
		c-23.5,4.2-43,22.4-48.8,45.3c-2.2,8.7-2.2,21.8,0,30.5c4.3,17.1,16.9,32.3,32.7,39.9c9.4,4.5,15.4,5.7,26.6,5.7
		c11.3,0,17.3-1.2,26.6-5.7c21.3-10.2,34.4-31.2,34.4-55.2c0-27.7-16.9-50.6-43.7-58.9C298.5,356.6,283.7,355.7,277.1,357z"/>
	<path id="path228" fill="#0099FF" d="M304.2,362c25.1,7.7,41.2,29.5,41.2,55.5c0,10.5-1.9,18.1-6.8,27.4c-3,5.7-7.1,11.4-7.7,10.7
		c-0.2-0.2-0.9-3-1.7-6.1c-3.3-13.5-17.1-35.7-29.4-47c-8.4-7.7-14.5-11-29.6-15.8c-15.4-5-24.5-8.3-24.5-9.2c0-1,7.1-6.7,12.5-10
		c5.3-3.2,13.1-6.1,19.7-7.3C284.3,359.1,297.7,359.9,304.2,362z"/>
	<path id="path230" fill="#3366CC" d="M243.2,381c0.3,0,2.7,0.9,5.1,2c2.5,1.1,9.7,3.5,16.1,5.5c6.4,1.9,15.1,5.1,19.3,7.1
		c6.6,3.2,8.9,4.9,15.4,11.4c14.9,14.9,27.9,38.6,27.9,51c0,2.3-0.7,3.2-5.1,6.3c-11.5,8.1-20.2,11-34.3,11
		c-8.7,0-10.9-0.2-17.3-2.4c-20.1-6.6-34.8-22.6-39.3-42.7c-1.8-8.1-1.2-23.4,1.2-30c2.1-5.9,5.6-12.9,8.3-16.4
		C241.6,382.3,242.9,381,243.2,381z"/>
	<path id="path232" fill="#99FFFF" d="M560.7,371.9h23.7v25.3v25.3h-18.2c-14.6,0-18.3-0.2-19.1-1.2c-0.6-0.7-1.3-5.8-1.8-11.4
		c-0.9-11.5-3.2-23.3-6.2-31.5c-1.1-3.1-2-5.7-2-6.1C537.1,372.1,547.7,371.9,560.7,371.9z"/>
	<path id="path234" fill="#66CCFF" d="M587.7,371.9H613h25.3v25.3v25.3H613h-25.3v-25.3V371.9z"/>
	<path id="path236" fill="#99FFFF" d="M641.6,371.9h25.7h25.7v25.3v25.3h-25.7h-25.7v-25.3V371.9z"/>
	<path id="path238" fill="#66CCFF" d="M696.4,371.9h25.7h25.7v20.3c0,19.3-0.1,20.3-1.7,21.2c-0.9,0.5-3.8,2.7-6.6,5l-5,4.2h-19.2
		h-19.1v-25.3V371.9z"/>
	<path id="path240" fill="#99FFFF" d="M751.2,371.9h18.3h18.3l6.9,10.5c10.3,15.8,10.3,14-0.2,14.6c-13.2,0.8-32.2,6.1-39.8,11
		c-1,0.7-2.2,1.2-2.7,1.2s-0.8-6.4-0.8-18.7V371.9z"/>
	<path id="path242" fill="#CCFFFF" d="M27.9,376c0.2,0,2.8,1.7,5.8,3.8l5.3,3.8v9c0,10.4-0.4,10.9-5.1,5.9c-5.1-5.3-7.8-12.8-6.9-19
		C27.2,377.6,27.7,376,27.9,376z"/>
	<path id="path244" fill="#0066CC" d="M224.7,383.8c0.2,0.2-0.8,3.1-2.2,6.5c-3.5,8.9-5.1,16.5-5.2,25.3c-0.1,4.2-0.4,7.4-0.7,7.1
		c-0.9-1-3.2-11.1-3.7-16.9c-0.5-5-0.3-6.1,1.6-10c1.2-2.5,4-6.2,6.1-8.4C222.6,385.3,224.5,383.7,224.7,383.8z"/>
	<path id="path246" fill="#CCFFFF" d="M42.3,386l8.1,4.1c4.4,2.2,11.8,5.6,16.4,7.6c10.7,4.5,23,10.9,28.1,14.6
		c2.2,1.7,3.9,3.1,3.7,3.2c-0.4,0.4-15.9-1.1-26-2.6c-10.7-1.5-19.9-3.7-26-6.2l-4.3-1.8v-9.4V386z"/>
	<path id="path248" fill="#669933" d="M838.4,386.8l4,2.2c7.2,4.2,7.6,4.8,7.6,11.8c0,3.3-0.2,6-0.6,5.8c-0.4-0.2-2.6-1-5-1.9
		c-3.7-1.3-4.4-2-5.1-4.6c-0.5-1.7-0.9-5.3-0.9-8.1V386.8z"/>
	<path id="path250" fill="#CCFFFF" d="M0,391.6l3.5,5.1c4.7,7.1,13.3,15.4,21.1,20.8c3.7,2.3,6.7,4.5,6.9,4.6s-6.8,0.3-15.5,0.3H0
		v-15.4V391.6z"/>
	<path id="path252" fill="#FF3300" d="M805.2,400.5c12.9,0.3,24.2,2.3,34.9,6.3c3.9,1.4,7.7,2.7,8.5,3c1.3,0.4,1.4,4.6,1.4,72.5
		c0,39.7-0.2,72.1-0.3,72.1s-5.6-2.4-12-5.3c-24.5-11.3-69.3-28.9-102.3-40.2c-6.6-2.3-15.4-5.3-19.5-6.8
		c-4.1-1.4-14.9-5.2-23.8-8.4c-9-3.2-16.9-6-17.7-6.2c-0.9-0.4,0.3-1.6,4.2-4.2c10-6.6,19.4-15.4,34.8-32.6
		c22.9-25.7,31.7-33.5,45.2-40.3c10.7-5.3,18.6-7.7,33-9.9C792.9,400.4,799,400.4,805.2,400.5z"/>
	<path id="path254" fill="#99FFFF" d="M0,425.8l19.3,0.2l19.3,0.2l0.2,24.7l0.2,24.7H19.5H0v-24.9V425.8z"/>
	<path id="path256" fill="#66FFFF" d="M568.1,425.8h16.3v17.5v17.5l-4.3-3.7c-4-3.3-27.3-28.9-27.9-30.6
		C552,426.2,558.5,425.8,568.1,425.8z"/>
	<path id="path258" fill="#99FFFF" d="M613.6,425.8h24.7v24.9v24.9h-17.3h-17.3l-8.1-5.9l-8.1-5.8v-18.5c0-10.1,0.2-18.8,0.6-19
		C588.5,426.1,600,425.8,613.6,425.8z"/>
	<path id="path260" fill="#66CCFF" d="M667.7,426l25,0.2l0.2,20.8l0.2,20.8l-4.6,3.9l-4.6,3.8h-21.1h-21.1v-24.3
		c0-13.4,0.2-24.7,0.6-24.9C642.6,426.1,654,425.9,667.7,426z"/>
	<path id="path262" fill="#66FFFF" d="M696.4,425.8h17c9.4,0,17,0.3,17,0.7c0,0.4-1.2,1.7-2.6,3.2c-1.4,1.3-9,9.6-16.7,18.3
		c-7.7,8.8-14.2,16-14.4,16c-0.2,0-0.3-8.6-0.3-19.1V425.8z"/>
	<path id="path264" fill="#CC9966" d="M546.7,426.7c0.1,0,6.1,6.6,13.4,14.6c7.2,8.1,17,17.9,21.8,22.1c10.2,8.7,28,20.8,37.8,25.6
		l6.8,3.4l-2.2,3.9c-4.2,7.4-2.2,17.7,4.2,22.7l2.7,2.1l-2.7,0.6c-3.7,0.8-9.5,6.4-11.3,10.9s-1.2,10.5,1.2,15.2l1.8,3.4l-3.7,0.9
		c-4.6,1.2-10.1,5.8-12.1,10.2c-0.8,1.9-1.6,5.3-1.6,7.7c0,3-0.3,4.4-1,4.4c-1.8,0.1-8.9,5.7-10.8,8.7c-1.7,2.5-2.4,2.9-5.1,2.9
		c-8.4,0-17.1,8.2-17.2,16.1c0,2.1-0.2,2.2-1.8,1.7c-1.1-0.3-4.2-0.8-6.9-1c-4.1-0.3-5.6,0-8.7,1.7c-4.8,2.5-8.4,7.6-8.9,12.5
		l-0.5,3.8l-2.2-1.6c-9.9-6.9-23.8-2.4-27.6,8.9l-0.9,2.8l-1.8-1.7c-4.3-4.1-12-5.3-17.7-3c-1.6,0.7-3,1.2-3.2,1.2
		c-0.1,0-0.6-1.6-1.2-3.6c-1.6-5.3-7.7-16.4-12.8-23.2c-6.8-9-25.6-30.8-33.8-38.9c-3.9-3.9-9.4-8.8-12.3-10.9l-5.1-3.7l3.1-0.6
		c1.7-0.2,5.3-0.5,8-0.5c21.7,0,58.9-8.1,81.9-17.8c9-3.8,16.7-12.9,20.3-23.7c2.9-8.6,8.7-51.6,8.7-64.6c0-2.7,0.2-6.8,0.5-9.2
		C546.2,428.7,546.5,426.7,546.7,426.7z"/>
	<path id="path266" fill="#99FFFF" d="M43.8,427.9c8.8,3.5,22.7,4.7,40.8,3.7l7.1-0.4l0.2,22.2l0.2,22.2H67.2H42.3v-24.2
		C42.3,428.8,42.4,427.3,43.8,427.9z"/>
	<path id="path268" fill="#66FFFF" d="M95.5,430.8h6.1c3.4,0,9,0.7,12.7,1.7c5.6,1.4,7.1,2.2,10,5.2l3.4,3.5l-2.7,10.8
		c-1.5,5.9-3.4,13.7-4.2,17.2l-1.3,6.5h-12h-12v-22.4V430.8z"/>
	<path id="path270" fill="#00CC99" d="M131,444.9c0.2,0,5.4,4.8,11.5,10.7c6.1,5.9,13.4,12.7,16.5,15.1c3,2.4,5.3,4.6,5.2,4.9
		c-0.2,0.2-1.8,3.7-3.7,7.6c-3.6,7.1-6.9,18-6.9,22.7c0,7.3,3.7,12.9,8.5,12.9c5.6,0,9.5-4.4,16.8-18.8c2.5-5,5-9.6,5.4-10.3
		c0.7-1,2.2-0.5,9.1,2.9c4.6,2.2,8.4,4.3,8.4,4.6s-1.7,1.5-3.7,2.9c-10,6.6-16,20.2-15.2,34.2c0.7,12.5,7.2,21.7,21.4,30
		c8.4,4.9,11.6,7.6,11.6,10c0,2.7-3.2,6.6-8.9,11.2c-18.6,14.9-25.7,30.7-21.4,47.5c3.6,13.6,9.5,19.6,25.4,25.6
		c16.4,6.2,20.2,10.5,20.1,23c0,7.8-4.7,28.9-6.6,29.6c-0.5,0.2-3.7-0.7-7-2.2c-8-3.4-11.3-3.9-16.8-2.2c-8.4,2.4-10.3,7.3-4.6,11.6
		c2.9,2.2,14.9,7.1,21.9,8.8c4.7,1.2,4.6,0.9,5.6,9.5c0.8,6.4,5,16.1,9,21.2c4.9,6.2,9.5,8.4,24.6,11.6c14.4,3.1,19.3,5.1,25.2,10.7
		c5,4.7,8.2,10.3,12.1,21.2c4.1,11.2,7.1,16.9,12.2,22.1c5.1,5.5,12.3,9.2,20,10.8c5.1,1,24,0.7,34.9-0.7c4.1-0.4,4.5-0.3,4,0.9
		c-0.3,0.8-0.6,4.6-0.6,8.5v7h-48.8h-48.7l-2-5.2c-3.5-9-11.6-24.3-15.2-28.4c-4.6-5.2-8.1-6.7-11.5-5c-3,1.6-3.7,4-3.1,10.2
		c0.7,6.4,2.5,12.8,5.8,21.3l2.8,7.1h-7.2h-7.2l-5.7-6.1c-8.4-8.6-32.6-39.2-31.7-39.9c0.1-0.2,3.1-1.1,6.5-2.2
		c15.5-4.6,24.1-12,25.4-21.8c0.8-5.8-0.3-6.7-7.2-6.1c-10.3,0.9-24.4,6-33.6,12.1l-2.6,1.7l-6.6-11c-19.3-32.3-36-72.9-45.7-110.2
		l-2.9-11.2l5.6-5c17.3-15.1,20.9-22.2,14.7-28.4c-1.8-1.8-2.7-2.1-6.2-1.7c-5.1,0.5-9.6,3.5-14.6,9.6c-4.2,5.1-3.7,6.1-6-11
		c-3.1-21.8-3.8-33.5-3.7-60.6c0.1-38.2,3-63.5,11.6-100.3C129.2,450.8,130.8,444.9,131,444.9z M136.3,540.6
		c-1.9,7,3.8,22.9,14.8,40.8c7.1,11.7,11.3,15.4,17.5,15.4c3.8,0,7.9-4.4,8.6-9.4c1-6.3-0.2-11.1-5.3-20.8
		c-8.1-15.8-15.9-26.6-20.8-29.1C144.7,534.3,137.6,535.7,136.3,540.6z"/>
	<path id="path272" fill="#669933" d="M150,541.2c5.3,3.2,14.9,17.7,21.1,31.5c4.2,9.6,3.4,18.4-1.9,20.3c-3.2,1.2-5.8-0.3-10-5.6
		c-4.1-5.1-13.9-22.9-17-30.5c-2.5-6.1-3.5-14.2-1.9-16C141.7,539.1,146.8,539.2,150,541.2z"/>
	<path id="path274" fill="#996633" d="M244.2,474c0.2,0,3.5,1.8,7.2,4.1c7.6,4.6,16.6,7.9,25.7,9.3c5.1,0.8,7.8,2,15.4,6.3
		c10.7,6.2,19.6,12,19.6,12.9c0,2.3-23.7,2.6-33.5,0.3c-16.9-3.8-31.7-16.9-34.3-30.2C244,475.2,244,474,244.2,474z"/>
	<path id="path276" fill="#669933" d="M167.7,478.1c1.1,0,13.7,8.3,13.7,9c0,1.7-11.2,21.6-13.9,24.7c-3.7,4.2-5.3,4.5-8,1.7
		c-4.1-4.3-2.7-14.5,3.7-27.7C165.2,481.6,167.3,478.1,167.7,478.1z"/>
	<path id="path278" fill="#CCFFFF" d="M0,479l19.3,0.2l19.3,0.2l0.2,24.7l0.2,24.7H19.5H0v-24.9V479z"/>
	<path id="path280" fill="#99FFFF" d="M42.3,479l24.7,0.2l24.7,0.2L92,504l0.2,24.7H67.2H42.3v-24.9V479z"/>
	<path id="path282" fill="#66FFFF" d="M95.5,479h11.6c6.4,0,11.6,0.2,11.6,0.4c0,0.2-0.7,5-1.7,10.5c-2,12.6-4.2,30.6-4.2,35.3v3.6
		h-8.7h-8.7v-24.9V479z"/>
	<path id="path284" fill="#66CCFF" d="M624.6,479h13.7v4.2c0,3.7-0.2,4.2-1.7,4.2c-1,0-2.8,0.6-4.2,1.2c-2.3,1.2-2.8,1.2-6.8-0.6
		c-6-2.6-14.8-7.6-14.8-8.3C610.9,479.2,617.1,479,624.6,479z"/>
	<path id="path286" fill="#66FFFF" d="M660.5,479c20.6,0.1,20.4-0.1,8.1,5.9c-8.4,4.1-16.6,6.2-18.3,4.9c-0.7-0.6-2.8-1.5-4.7-2.1
		c-3.2-0.9-3.6-1.3-3.8-3.7c-0.2-1.5-0.1-3.2,0.2-3.9C642.3,479.2,645.7,479,660.5,479z"/>
	<path id="path288" fill="#3300FF" d="M674.7,491.4c5.1,1.9,6.3,2.7,6.1,3.9c-1.6,8.5-0.5,11.5,7.4,20.7c2.7,3.2,5.1,6.6,5.5,7.8
		c1.8,7.6,5.7,9.4,15.5,7.1c8.2-1.9,14.5-5.1,16.4-8.4c0.8-1.4,1.8-4.6,2.3-7s1-4.6,1.1-4.7c0.2-0.1,8.6,2.8,18.9,6.5
		c10.2,3.7,19.8,7.1,21.3,7.6c2.3,0.7,2.7,1.2,2.2,2.6c-3,9,1.2,17.9,8.3,17.9c2.6,0,3.7-0.6,13.7-7.8c2.9-2.2,3.1-2.2,6.5-0.8
		l3.5,1.4l-2.9,3.2c-3.5,3.9-4.9,8.9-4.2,14.8c0.6,5.1,1.4,6.9,5.1,11.1c1.6,1.7,2.8,3.5,2.8,4.1s-0.9,2.3-2,3.9
		c-3.1,4.5-3.3,6.6-1.2,10.9c1.5,2.9,3.2,4.5,8.1,7.5c3.4,2.1,6.8,4.6,7.6,5.8s1.8,4.8,2.3,8.1c0.5,3.7,1.4,7,2.5,8.5
		c4.7,6.6,16.8,5.1,25.2-3.1l3.1-3v31.9l-0.1,32l-2.2-2.5c-17.8-20.8-25.8-29.4-40.9-44.5c-17.7-17.7-30.6-29.5-47.1-43
		c-4.7-3.8-8.5-7.2-8.5-7.5s1.3-1.4,2.9-2.6s3.9-3.6,5.1-5.3l2.3-3.2v-14.6c0-18.8-1.4-22.9-8.8-26.6c-6.1-3.2-9.7-1.8-17.2,6.2
		c-3.8,4.1-4.6,4.6-7.6,4.6c-4.9,0-7.1,3.1-7.9,10.7c-0.3,3.2-0.8,5.9-1.2,5.9s-4.6-3.2-9.7-7.1c-5-3.9-16.1-12.4-24.7-18.8
		L669,513.6l1.6-1.7c4.9-5.2,4.2-14.8-1.5-19.9c-0.9-0.8-1.5-1.8-1.3-2.2C668,489.3,671.1,490.1,674.7,491.4z M775.7,561
		c-2.8,1.7-6.6,8.2-7.5,12.8c-0.7,3.7,0.7,8.7,2.7,9.4c0.7,0.2,2.6,2.2,3.9,4.3c4.6,7,11,8.8,14.2,3.9c1.3-1.9,1.3-2.7,0-12.2
		c-1.7-11.9-3.5-16.5-7.1-18.3C778.9,559.2,778.7,559.2,775.7,561z M834.1,627.6c-0.2,0.1-1.1,0.3-2.1,0.5c-2.5,0.5-4.4,3.3-4.4,6.5
		c0,1.4,1.1,4.8,2.5,7.6c2.2,4.5,2.9,5.3,6.6,6.9c4.4,1.8,6.5,2.2,8.2,1c1.5-0.9-0.1-9.7-2.7-15.7c-1.6-3.4-2.7-4.6-4.9-5.6
		C835.5,628.1,834.1,627.6,834.1,627.6z"/>
	<path id="path290" fill="#3300FF" d="M784.1,569.8c2.4,11,2.7,21.2,0.5,21.2c-1.9,0-6-3.7-7.3-6.5c-0.9-1.9-2.4-3.7-3.4-4.2
		c-1.5-0.7-1.9-1.6-1.9-4.2c0-3.7,1.7-8.6,3.9-11C778.6,562.1,782.9,564.6,784.1,569.8z"/>
	<path id="path292" fill="#6666FF" d="M837.5,633.4c1.7,1.8,4.8,12,4,12.9c-0.2,0.3-1.4,0.3-2.6,0c-4.2-1-8.8-10-7-13.3
		C832.9,631.2,835.5,631.4,837.5,633.4z"/>
	<path id="path294" fill="#00FFFF" d="M652.3,496.7c3.1,4.6,3.2,12.2,0.2,16.6c-6,8.7-18.7,8.7-24.7-0.1c-5.3-8-1.6-18.8,7.8-22.2
		C641.4,488.8,648.7,491.3,652.3,496.7z"/>
	<path id="path296" fill="#6633FF" d="M666.9,494.7c2.8,3.2,3.4,5,3.1,9.5c-0.4,5.5-1.8,6.8-5.7,5.3c-3.4-1.2-6-4.1-6-6.5
		c0-1.2-0.7-3.8-1.7-5.8s-1.6-3.7-1.5-3.8c0.2-0.1,1.6-0.5,3.2-1C662.9,491,663.7,491.3,666.9,494.7z"/>
	<path id="path298" fill="#6633FF" d="M690.1,496.9c3.2,1.2,3.8,1.6,3.3,3c-1.2,3.8,0.4,6.9,7.6,14.3c7.8,8.1,9.7,8.8,13.3,5.4
		c2.5-2.3,3.7-6.5,3.1-10.5c-0.4-2.3-0.2-2.8,0.7-2.5c0.7,0.2,2.6,0.9,4.3,1.5c3.4,1.2,3.4,1,1.3,9.1c-1.2,5.1-6.2,8.4-15.5,10.3
		c-6.9,1.5-8.9,1-10.1-2.3c-1.8-4.8-2.5-5.9-7.1-11.4c-7.2-8.5-9-12.9-6.8-16.6C685.4,495.2,685.2,495.2,690.1,496.9z"/>
	<path id="path300" fill="#669933" d="M210,500.3c1.6,0.7,4.5,1.8,6.5,2.5l3.6,1.2l-3.7,2.4c-5,3.1-8.5,8.1-10.6,15.1
		c-2.4,8-1.8,24.2,1.2,34.4l2.1,6.9l-3-1.8c-14.3-8.6-19.1-15.3-19.8-27.4c-0.2-4.9,0-7.6,1.4-12.1c3-10,8.6-16.9,17.1-21.2
		C206.8,499.1,207.4,499.1,210,500.3z"/>
	<path id="path302" fill="#6666FF" d="M705.1,502.1c7.1,2.5,8.7,4.2,8.8,9.2c0,3-1.9,6.6-3.5,6.6c-0.8,0-12.1-11.6-13.4-13.9
		c-0.4-0.6-0.4-1.8-0.2-2.7C697.5,499.3,697.2,499.3,705.1,502.1z"/>
	<path id="path304" fill="#66FF00" d="M232,508.4c2.7,1.2,3,1.6,2.6,3.6c-1.6,8-2.5,24.3-2.6,43c0,18.6,0.2,23.2,1.9,33.6
		c1.1,6.6,2.5,15.9,3.2,20.8c1.6,10.9,6.8,31.9,11,44.2c10.8,31.9,25,58.2,45.5,84.2c8.5,10.8,13.5,16.2,30.5,33.2
		c15.4,15.4,24.1,22.8,37.8,32.6c8.3,5.9,8.9,6.5,8.3,8.5c-1,3.7-1.3,3.9-6,2.7c-2.5-0.7-11.5-1.5-21.3-2c-19.5-0.8-27-2.2-35.3-6.1
		c-7.8-3.8-9-5-12-12c-1.3-3.2-3.8-8.1-5.4-10.6c-1.7-2.5-3-5.1-3-5.7c0-2.7-3.5-10.8-6.5-15.3c-4.2-6.1-10.1-11.5-24-21.8
		c-16.4-12.3-22-19.5-24.4-31.3c-0.9-4.2-0.9-6.2-0.1-10.8c3.4-18.5,3.2-25.8-1.3-32.1c-1.7-2.6-2.5-4.7-2.8-8.5
		c-0.7-6.8-3.7-12.7-13.6-25.8c-10.5-13.9-13.2-19.5-13.1-27.1c0-8,2.3-12.9,8.3-17.8c9.5-7.8,11.8-13.9,7.1-19.3
		c-4.7-5.4-8.1-16.4-9-28.9c-1-15.6,3.9-27.2,13.4-31.7C224.8,506.2,227.1,506.4,232,508.4z"/>
	<path id="path306" fill="#66FFFF" d="M240.6,510.9c0.7,0.2,4.4,1.2,8.2,2.2l6.9,1.7v7v7h-9.5c-9.5,0-9.5,0-9.2-1.9
		c0.2-1,0.7-4.8,1-8.5c0.2-3.7,0.7-7,0.9-7.3C239.1,510.7,239.8,510.6,240.6,510.9z"/>
	<path id="path308" fill="#CC9966" d="M658.7,510.8c3.6,1.3,74.2,55.4,97,74.1l10,8.2l-0.2,4.1c-0.1,3.1-1.1,6-4.1,11.5
		c-5.1,9.8-5.6,15.1-2.5,23c3.7,9.4,2.9,12.2-4.7,15.6c-8.1,3.7-9.4,6.2-6,12.6c2,3.8,2.2,5.1,2.3,15.2l0.2,11l-3.1,6
		c-1.7,3.3-3.2,6.6-3.2,7.4c0,4.2,2.4,10.2,5.6,14c4.2,4.9,4.3,7,1,11.4c-2.2,2.9-2.5,3.9-2.5,9c0,4.7,0.4,6.5,2.3,10
		c9.9,18,9.5,16.9,8.3,18.8c-2,3.2-5.1,1.8-7.8-3.4c-1.2-2.2-1.7-2.4-3.8-2c-1.4,0.2-4.1,1.6-5.9,3c-2.6,1.9-4.3,2.5-7.1,2.5
		c-4.7,0-6.3-0.9-12-6.9l-4.6-5l-4.7,0.4c-4.5,0.4-5,0.7-8.6,4.6c-2.2,2.4-4.6,4.3-5.6,4.3c-0.8,0-3.1-0.9-4.9-2.1
		c-4.7-2.9-8.5-2.7-12.9,0.6c-2,1.5-4.2,3.2-4.9,3.7c-1.1,0.8-2.7,0.7-8.4-0.7c-10-2.4-16.2-1.9-23.6,2.1c-6.4,3.3-7.5,3.5-13.3,1.7
		c-4.9-1.5-6.8-1.1-13.8,2.7c-5.3,3-5.6,3.1-14.5,3.1c-10.2,0-15,1.5-19.2,6l-2.2,2.3l-11.1-11.5c-30.2-31.2-52-61.8-70.8-99.2
		l-5.7-11.4h4.3c6.1-0.1,11.2-3.2,13.9-8.5c1.1-2.2,2.1-4.2,2.2-4.3c0.1-0.2,1,0.4,2.1,1.3c10.8,9.9,27.8,4,30.1-10.4
		c0.5-3.2,0.7-3.5,2-2.2c2.5,2.2,8.9,4,12.7,3.4c7.5-1.2,12.9-6.1,14.9-13.6c0.7-2.8,1.2-3.5,2.2-3c2.4,1,11.5,1.4,14,0.5
		c1.9-0.7,2.7-0.5,4.4,0.7c3.7,2.8,10.5,4.9,16.4,4.9c5.4,0,5.6,0.1,7.4,2.8c2.2,3.4,6.3,6.6,10.1,7.9c7.8,2.6,17.7-1.3,21.5-8.6
		c4.8-9.3,1.2-20.6-8.1-25.3c-2.9-1.5-3.1-1.8-3.7-6.7c-0.2-3.2-1.4-7.1-2.9-10l-2.4-4.8l2-3.9c2.7-5.3,2.7-11.2-0.1-16.6
		c-1.2-2.2-2.1-4.2-2.1-4.2c0-0.1,1.5-0.3,3.2-0.7c4.2-0.7,9.8-5,12-9.1c2.2-4.1,2.7-10.2,1.4-14.2c-0.6-1.7-2.5-4.7-4.2-6.6
		l-3.2-3.5l3.3-1.5c3.7-1.7,8.6-6.6,9.5-9.5C657.3,511.1,658,510.6,658.7,510.8z"/>
	<path id="path310" fill="#66FFFF" d="M261.4,515.9c4.7,1.4,20.2,3.1,33.1,3.5l15.1,0.5v4.4v4.5h-25.3H259v-6.1
		c0-3.4,0.2-6.4,0.6-6.6C259.9,515.7,260.7,515.7,261.4,515.9z"/>
	<path id="path312" fill="#66FFFF" d="M326.2,517.2c0.2,0,1.3,0.5,2.4,1.3c1.1,0.7,5.1,3.3,9,5.8l7.1,4.4h-15.9h-15.9l0.2-4.7
		l0.2-4.8l6.2-0.9C323,517.8,326,517.3,326.2,517.2z"/>
	<path id="path314" fill="#00FFFF" d="M647.4,532.3c2.2,4.5,2.2,8.9,0.2,12.9c-2.9,5.7-7.3,8.5-13.4,8.5c-6.1,0-10.5-2.7-13.4-8.5
		c-4.2-8.1,0.4-17.7,9.9-20.6C636.4,522.8,644.6,526.6,647.4,532.3z"/>
	<path id="path316" fill="#6633FF" d="M752.8,527.9c4.1,2.8,4.9,6.1,5.6,20.6c0.6,13.4,0.6,13.4-1.6,17c-1.2,2.1-3.7,4.7-5.5,6
		l-3.3,2.3l-4.2-3.1c-2.2-1.7-4.2-3.3-4.2-3.7s2.2-2.4,5-4.5c7.1-5.6,10.5-13.4,8.3-18.8c-2.3-5.6-9.4-3.5-12.8,3.7
		c-1.8,3.9-2.4,4.5-4.8,4.7c-2.1,0.2-3.2,1-4.7,3.3c-2.2,3.3-2.6,3.3-6.6-0.2c-1.7-1.5-1.8-1.9-1-4.2c0.5-1.5,0.9-4.5,0.9-6.6
		c0-4.6,1.9-6.6,6.6-6.6c2.3,0,3.6-0.7,7.5-5c2.6-2.7,5.8-5.5,7.1-6.2C747.7,525.4,749.7,525.6,752.8,527.9z"/>
	<path id="path318" fill="#3300FF" d="M776.8,527.9c0.7,0,13.4,4.8,14.5,5.6c0.9,0.5-2.5,3.5-7.5,6.6c-4.2,2.6-6.3,2.2-8.6-1.6
		c-1.9-3.2-2-6.2-0.2-8.7C775.6,528.8,776.4,527.9,776.8,527.9z"/>
	<path id="path320" fill="#66CCFF" d="M0,532.1l19.3,0.2l19.3,0.2v25.3v25.3l-19.3,0.2L0,583.6v-25.7V532.1z"/>
	<path id="path322" fill="#CCFFFF" d="M42.3,532.1l24.7,0.2l24.7,0.2v25.3v25.3l-24.7,0.2l-24.7,0.2v-25.7V532.1z"/>
	<path id="path324" fill="#66FFFF" d="M95.5,532.1h8.1h8.1l-0.1,25.7v25.7h-8.1h-8.1v-25.7V532.1z"/>
	<path id="path326" fill="#66FFFF" d="M236.7,532.1h9.5h9.5v25.7v25.7h-9c-8.6,0-9-0.1-9.5-1.9c-0.9-2.9-1.7-36-1-43.2L236.7,532.1z
		"/>
	<path id="path328" fill="#99FFFF" d="M284.7,532.1h24.9v25.7v25.7l-25.1-0.2l-25.2-0.2l-0.2-24.5c-0.1-13.4,0-24.9,0.2-25.5
		C259.6,532.3,265.4,532.1,284.7,532.1z"/>
	<path id="path330" fill="#99FFFF" d="M332.2,532.1h18.5l7.2,3.1l7.3,3.2V561v22.6l-25.9-0.2l-26-0.2l-0.2-24.5
		c-0.1-13.4,0-24.9,0.2-25.5C313.6,532.3,318.1,532.1,332.2,532.1z"/>
	<path id="path332" fill="#99FFFF" d="M369.5,540.4c0.6,0,3.6,0.7,6.6,1.6c7.7,2.2,19.3,4,30.1,4.6c6.5,0.4,10,1.1,12.3,2.2l3.1,1.7
		l-0.2,16.4l-0.2,16.4h-26.1H369l-0.2-21.4C368.5,545,368.7,540.4,369.5,540.4z"/>
	<path id="path334" fill="#6633FF" d="M807.9,540.4c1.1,0,15.9,6.2,28.3,12l6.6,3l-1.7,1.9c-2.5,2.7-3.6,5.1-3.6,8
		c0,4.3,1.4,6.5,7.1,10.9l5.4,4.3v11.4c0,11.4,0,11.5-2.5,14.9c-5.1,7.1-15.3,11.7-20.4,9.5c-2.3-1.1-4.5-5.5-4.5-9
		c0-7.1-3.3-12-11.2-16.4c-2.9-1.6-5.9-3.7-6.6-4.8c-1.8-2.7-1.5-6.3,0.8-9.4c3-4,2.7-7-1.2-11.5c-6.4-7.5-6.5-16.6-0.2-22.1
		C805.7,541.5,807.3,540.4,807.9,540.4z M818.4,556.2c-2.7,2.5-2.7,2.7-2.3,8.1c0.5,6.4,3.2,12.5,9.2,20.5
		c8.5,11.4,12.2,13.6,15.2,9.1c1.1-1.7,1.3-3.3,0.9-8.1c-0.4-5.1-1.2-7.4-5.1-15.1c-2.5-5.1-5.9-10.9-7.6-13.1
		C825.2,552.8,822.5,552.4,818.4,556.2z"/>
	<path id="path336" fill="#6666FF" d="M823.4,557c2.1,0,12.8,19.5,14,25.6c1.1,5.4,1.2,9,0.2,9.7c-1.1,0.7-8.1-7-11.9-12.9
		c-6.2-9.7-8.1-17.4-4.8-20.7C821.9,557.7,823,557,823.4,557z"/>
	<path id="path338" fill="#6666FF" d="M749.5,544.9c0.7,0.9,0.7,2.1,0.1,4.7c-1.2,4.6-3.4,7.3-9,11.5c-3.6,2.7-4.6,3.2-6,2.5
		c-1.1-0.6-1.6-1.7-1.6-3.7c0-3.2,1.5-4.7,4.2-4.5c1.5,0.2,2.5-0.7,4.6-3.9c1.5-2.3,3.3-5,4-6.1
		C747.3,543.4,748.1,543.3,749.5,544.9z"/>
	<path id="path340" fill="#99FFFF" d="M425,552.8l1.9,1.5c7.1,5.6,11.8,10.1,19.3,18.7c4.7,5.3,8.6,9.9,8.6,10.1s-6.7,0.5-14.9,0.5
		H425v-15.4V552.8z"/>
	<path id="path342" fill="#00FFFF" d="M635.7,570.9c-0.2,2.3-1,5.2-1.7,6.4l-1.4,2.1l-4.2-2.8c-5-3.3-11.4-4.9-17.8-4.4l-4.6,0.4
		v-2.8c0-6.1,4.9-12.6,10.5-14.2C626.6,552.7,636.4,560.6,635.7,570.9z"/>
	<path id="path344" fill="#6666FF" d="M847.8,557.7c1.7,0.7,1.8,1.3,2.1,9.1c0.2,5.3-0.1,8.4-0.6,8.4s-2.6-1.6-4.6-3.6
		c-4.6-4.5-5-7.4-1.2-11.7C845.4,557.7,846.3,557.2,847.8,557.7z"/>
	<path id="path346" fill="#0099FF" d="M620.6,576.5c2.2,0.7,5.2,2.2,6.6,3.3c2.1,1.7,2.3,2.2,1.2,2.9c-2.2,1.5-7.3,2.6-9.7,2
		c-5.6-1.3-12-6.5-10.6-8.6C608.8,574.8,615.9,575.1,620.6,576.5z"/>
	<path id="path348" fill="#0099FF" d="M604.6,578.4c4.4,8.4,16,12,24.3,7.7l3.6-1.7l2.2,4.3c1.4,2.8,2.2,5.8,2.3,8.5l0.1,4.2
		L633,602c-8.2,1.2-14.4,8.3-15.3,17.4l-0.4,4.2l-6-0.3c-4.2-0.2-7-1-9.4-2.3c-3.7-2.2-4.2-3.3-2.1-5.1c2.2-1.9,4.4-7.6,4.4-11.8
		c0-6.6-3.2-12-9.9-16.4l-2-1.2l2.7-3.2c1.5-1.7,4.1-3.7,5.7-4.6C603.6,577.2,604,577.2,604.6,578.4z"/>
	<path id="path350" fill="#66FFFF" d="M0,586.9h19.5H39V613v26.1H19.5H0V613V586.9z"/>
	<path id="path352" fill="#99FFFF" d="M42.3,586.9h24.9h24.9V613v26.1H67.2H42.3V613V586.9z"/>
	<path id="path354" fill="#66FFFF" d="M95.5,586.9h8.3h8.2l0.4,2.7c0.2,1.5,0.8,7.4,1.3,13.1c0.8,9.5,3.4,28.6,4.6,34.2l0.5,2.3
		h-11.7H95.5V613V586.9z"/>
	<path id="path356" fill="#66FFFF" d="M238,586.9h8.9h8.8v26.2v26.1l-3.9-0.2l-4-0.2l-1.4-5.4c-2.6-9.2-5.6-24.7-6.5-32.3
		c-0.4-3.9-1.1-8.7-1.3-10.7L238,586.9z"/>
	<path id="path358" fill="#66CCFF" d="M259,586.9h25.3h25.3V613v26.1l-25.1-0.2l-25.2-0.2l-0.2-26L259,586.9z"/>
	<path id="path360" fill="#66CCFF" d="M312.9,586.9h26.1h26.1V613v26.1h-26.1h-26.1V613V586.9z"/>
	<path id="path362" fill="#99FFFF" d="M368.5,586.9h26.6h26.6V613v26.1l-26.3-0.2l-26.4-0.2l-0.2-26L368.5,586.9z"/>
	<path id="path364" fill="#99FFFF" d="M425,586.9h16.9h16.8l4.6,5.6c2.5,3.1,6.3,7.9,8.5,10.8l3.9,5.1v15.4v15.4h-25.3H425V613
		V586.9z"/>
	<path id="path366" fill="#00FFFF" d="M585,589.4c1.7,0,1.9,0.2,1.3,2.7c-0.3,1.5-0.6,5.3-0.6,8.5c0.1,4.9,0.6,6.6,3,11.4
		c1.6,3.2,2.7,5.8,2.4,6.1c-0.2,0.2-2.3,0.4-4.6,0.4c-5.6,0-9.5-2-11.4-5.9c-0.9-1.7-2-3.3-2.5-3.7c-1.1-0.7-1.1-7.1,0.1-10.1
		c1.2-3.1,4.7-6.8,7.8-8.2C582,590,584,589.5,585,589.4z"/>
	<path id="path368" fill="#0099FF" d="M593.5,591.4c6.7,3.5,9.4,12.5,5.6,19.5c-2.7,5.1-4.5,5-7.6-1c-2-3.9-2.4-5.8-2.4-10.5
		c0-3.1,0.4-6.5,1-7.5C591,590.3,591.2,590.3,593.5,591.4z"/>
	<path id="path370" fill="#CC99FF" d="M769.7,596.9l3,2.4c1.7,1.3,4.8,4.1,7,6l4,3.6l-1.5,3.2l-1.6,3.1l-2.8-4.3
		c-3.3-5-5.3-6.5-6.7-5.1c-0.7,0.7-0.1,2,2.2,4.9c5.3,7.1,5.5,8,2.9,16.7c-1.2,4.2-2.4,7.9-2.7,8.1c-0.7,0.7-5.9-10.4-6.3-13.7
		c-0.6-4.2,1.4-4.5,3.2-0.6c1.4,3.3,2.7,3.5,3.1,0.5c0.5-4.3-3.6-8.1-7.4-6.9c-4.1,1.3-3.2,9.5,2.1,19.1c3.5,6.2,4.1,9.5,2.7,15.4
		l-1.1,4.6l-1.7-3.4c-1-1.8-2.3-3.8-3-4.4c-1-0.7-1.2-2.1-0.8-5.4c0.3-3.6,0-5.5-1.7-9.9c-3.2-8.1-2.8-11.6,2.6-20.5
		c1.5-2.5,3.2-6.5,3.7-8.9L769.7,596.9z"/>
	<path id="path372" fill="#669933" d="M197.8,599.3c0.1,0,0.2,2.9,0.2,6.5c0,6,0.2,7.1,3.5,13.5c1.9,3.8,6.7,11,10.7,16.1
		c3.9,5,8.2,11.3,9.5,13.9c3.5,7,4.2,13.7,1.2,10.7c-0.5-0.4-5.2-2.6-10.6-4.7c-15.4-6.1-20.5-11.3-23.5-24.1
		c-2.2-9.7-0.2-19.7,5.9-28C196.2,601.1,197.6,599.3,197.8,599.3z"/>
	<path id="path374" fill="#0099FF" d="M634.4,605.1c2.1,0,2.2,0.2,1.8,1.8c-2.2,7.4-15.4,18.8-15.4,13.3c0-5.4,3.7-11.4,8.5-13.7
		C630.9,605.8,633.2,605.1,634.4,605.1z"/>
	<path id="path376" fill="#00FFFF" d="M565.3,607.2c2.5,1.3,7.1,7.6,8,10.7c0.7,3.2-1.2,8.9-4.2,11.8c-5.7,5.7-14.5,5.5-20-0.6
		c-3.3-3.7-4.1-6.1-3.5-11.2c0.4-4.3,3.5-8.6,7.4-10.5C556.4,605.6,562.1,605.6,565.3,607.2z"/>
	<path id="path378" fill="#00FFFF" d="M641.1,606c2.2,0,6.4,3.6,8.1,6.7c3.3,6.6,2,13.9-3.4,18.5c-6.3,5.2-14.5,4.8-20.1-1.2
		c-1.7-1.8-3.2-3.6-3.2-4s1.5-1.4,3.4-2.2c4.3-2,11-9.3,12.8-14.1C639.6,607.6,640.6,606,641.1,606z"/>
	<path id="path380" fill="#FF3300" d="M786.2,611.7l4.7,4.1c10.9,9.5,40.6,41.2,54.4,58l4.7,5.8v84.8V849l-3.5-1.3
		c-1.9-0.7-5.6-3.6-8.3-6.1c-3.6-3.6-5.5-4.8-7.1-4.8c-2.8,0-4.3-1.3-4.3-4c0-1.1-0.4-2.7-0.8-3.6c-0.5-0.8-0.6-1.6-0.2-1.6
		c1.7,0,8.5-7,10.8-11c3-5.2,7-16.2,6.3-17.3c-1.2-1.9-2.7-0.3-4.5,4.4c-4,11-7.7,16.7-13.4,20.3c-3.2,2.1-3.3,2.1-7.6,0.8
		c-5.2-1.6-8.8-4.2-8.8-6.4c0-0.9-0.4-2.4-0.8-3.2c-0.7-1.3-0.5-1.7,1.2-2.2c2.5-0.6,6.6-5.1,8.3-9.1c0.7-1.6,2.5-7.4,4.2-12.9
		c4.6-15.5,7.8-20.7,12.8-20.7c1.9,0,2,0.2,1.5,4.3c-0.4,4.3-3.9,12.8-7.1,17.7c-1.1,1.7-1.4,2.9-0.9,3.7c1.2,1.9,4.4-1.7,7.9-8.8
		c3.1-6.2,4.5-13.1,3.4-17.3c-1.2-4.7-8.4-4.5-12.5,0.5c-3.4,4.1-5.2,8.3-8.4,19.6c-3.6,12.6-6.2,17.9-9.6,19.3
		c-1.4,0.6-2.7,0.7-3.1,0.2c-1.6-1.7-2.7-9.2-3.5-24c-2-36.7,3.7-76.1,12.7-89.6c2.1-3.1,2.3-5.5,0.5-5.5c-2.3,0-7.4,9.8-10.1,19.6
		c-2.8,9.8-5.2,25.2-6.4,41c-1,13.9-0.4,42.6,1,51c0.5,2.7,0.7,5,0.4,5.2c-1.1,1.2-6.1-3.2-9.7-8.5c-7.1-10.3-11.3-22.2-16.1-46.5
		c-7.8-39.2-7.7-64.8,0.5-103.8c3.5-16.3,6.7-27.1,10.5-34.7L786.2,611.7z"/>
	<path id="path382" fill="#66FFFF" d="M479.4,615.1c0.6,0,2.6,4.2,4.4,9.6l1.7,5.1l-2.2,4.6c-3.7,7.5-4.3,6.3-4.3-7.4
		C478.9,620.5,479.1,615.1,479.4,615.1z"/>
	<path id="path384" fill="#00FFFF" d="M542.9,637.3c-1.2,4.5-3.8,7.6-7.9,9.5c-4.3,2-7.5,1.9-11.8,0c-8.8-4-11.4-15.1-5.1-22.2
		c1.4-1.7,3.7-3.5,5.1-4.1C534,615.8,545.9,626.1,542.9,637.3z"/>
	<path id="path386" fill="#669933" d="M142.5,635.2c-4,5.2-16.6,15.9-17.3,14.5c-0.2-0.5-0.8-2.5-1.1-4.3c-0.3-1.8-0.7-3.9-1-4.6
		c-0.5-1.7,7.2-11.8,11.5-14.9C143.2,619.7,149,626.6,142.5,635.2z"/>
	<path id="path388" fill="#00FFFF" d="M499.1,628.6c13.1,1.1,16.5,18.5,4.7,24.4c-2,1.1-4.6,1.9-5.8,1.9s-3.8-0.8-5.8-1.9
		c-10-5-9.7-18.8,0.4-23.5C494.1,628.8,496.8,628.5,499.1,628.6z"/>
	<path id="path390" fill="#66CCFF" d="M0,642.5h19.5H39v24.9v24.9H19.5H0v-24.9V642.5z"/>
	<path id="path392" fill="#66FFFF" d="M42.3,642.5h24.9h24.9v24.9v24.9H67.2H42.3v-24.9V642.5z"/>
	<path id="path394" fill="#66FFFF" d="M95.5,642.5h12c6.6,0,12,0.2,12,0.6c0,3,8,34.2,12.1,47.7c0.4,1.4-0.8,1.5-17.8,1.5H95.5
		v-24.9V642.5z"/>
	<path id="path396" fill="#66FFFF" d="M252.3,642.5h3.3v9.5c0,5.2-0.2,9.5-0.3,9.5c-0.4,0-6.3-17.7-6.3-18.7
		C249,642.7,250.5,642.5,252.3,642.5z"/>
	<path id="path398" fill="#66CCFF" d="M284.9,642.5h24.7v24.9v24.9h-20.3c-15.2,0-20.4-0.2-21-1.1c-0.4-0.5-2.7-5.1-5.1-10.3
		l-4.3-9.3v-14c0-7.7,0.2-14.3,0.6-14.5C259.8,642.7,271.3,642.5,284.9,642.5z"/>
	<path id="path400" fill="#99FFFF" d="M312.9,642.5h26.1h26.1v24.9v24.9h-26.1h-26.1v-24.9V642.5z"/>
	<path id="path402" fill="#66CCFF" d="M395.5,642.5h26.1v24.9v24.9l-26.3-0.2l-26.4-0.2l-0.2-23.7c-0.1-13,0-24.1,0.2-24.7
		C369.2,642.7,375.2,642.5,395.5,642.5z"/>
	<path id="path404" fill="#99FFFF" d="M425,642.5h25.3h25.3v17.6v17.7l-4.5,7.1l-4.4,7.1h-20.7h-20.7l-0.2-24.7L425,642.5z"/>
	<path id="path406" fill="#66FFFF" d="M480.1,642.5c0.6,0,1.6,1.7,2.2,3.7c0.6,2.1,1.4,4,1.7,4.2c0.4,0.2,0.7,1.2,0.7,2
		c0,2.3-4.1,14.8-5,15.4c-0.5,0.3-0.8-4.3-0.8-12.4C478.9,645.1,479.2,642.5,480.1,642.5z"/>
	<path id="path408" fill="#CC99FF" d="M761.9,648.6c0.7,0.1,2.4,2.4,3.9,5.1c3.9,6.9,3.7,11.3-0.2,7c-2.3-2.6-8.5-6-9.9-5.4
		c-2.9,1.1,0.5,11.3,3.7,11.3c2,0,2.2-1.5,0.3-4c-2.5-3.7-0.3-2.9,3.7,1.2l3.9,4.1l-0.7,5.2l-0.7,5.2l-3.5-3.8
		c-1.9-2.1-3.9-3.7-4.4-3.7c-2.4,0-1.3,2.7,2.7,7.1c4.2,4.6,4.5,5.1,4.5,9.2c0,2.7-0.3,4.4-0.9,4.4c-1.7,0-5.4-3.2-7.6-6.4
		c-1.9-2.7-2.2-4.3-2.7-12.7c-0.4-7.7-0.9-10.3-2.5-13.4c-1.9-3.7-2-3.9-0.6-5.6c0.7-0.9,3.3-2.4,5.6-3.3
		C758.9,649.2,761.3,648.6,761.9,648.6z"/>
	<path id="path410" fill="#3300FF" d="M488.6,655.2c1.3,1.5,11.7,23.5,11.1,23.7c-2.3,0.8-6.5,4.4-8.7,7.6c-2.1,3-2.5,4.3-2.5,8.6
		c0,4.6,0.4,5.8,3.6,11c3.2,5.3,3.6,6.6,4.2,13.4c1,11,4,14.4,10.7,12.6c4.4-1.2,6.4-2.8,10-8.1c1.7-2.7,3.9-5.3,4.6-6
		c1.3-1.1,1.7-1,3.2,1.2c12,16.6,19.6,26,34,42.2l4.7,5.4l-2.4,4.7c-3.3,6.1-3.9,10.8-2.2,15.3c3.2,7.8,9.3,9.5,20.5,5.6
		c3.2-1.2,6.2-2.1,6.6-2.1s4.3,3.4,8.8,7.6c17.1,15.9,37,31.5,57,44.7l11.5,7.6h-18.3h-18.3l-0.5-2.9c-0.7-3.8-6.5-15-9.5-18.8
		c-3-3.7-15.2-12.5-21.8-15.9c-5.2-2.7-11.9-3.8-14.6-2.3c-0.9,0.5-2.3,2.3-3.1,4c-1.3,3.1-1.5,3.2-6,3.2c-4.3,0-4.7,0.2-7.4,3.2
		c-5.1,5.8-5.7,16.9-1.5,25.2c1.1,2.2,2,4.1,2,4.2c0,0.2-7.8,0.2-17.3,0.2h-17.3l-2-4c-3.7-7.6-10.8-23.7-10.5-23.9
		c0.2-0.2,1.7,0.1,3.5,0.6c3.7,1.1,8.5,0,10.6-2.4c0.8-0.9,1.4-3.3,1.6-6.4c0.2-4.6,0.4-5.1,2.7-6.1c3.9-1.7,8.7-6.8,9.5-10
		c1-3.7,0.4-5.6-4.2-15.4c-4.4-9.3-4.7-14.1-1.3-21.2c2.9-6.1,2.9-9.2-0.2-12.6c-2.1-2.3-3-2.7-6.3-2.7c-3.5,0-4.2,0.3-6.9,3.4
		c-1.7,1.8-4.1,4.7-5.3,6.3c-1.7,2.2-3,3-5.6,3.4c-4.6,0.6-7,2.3-9.2,7c-1.7,3.6-2,5.1-2,14.5c0,5.7-0.1,10.5-0.2,10.4
		c-0.3-0.4-11.4-28.6-20.6-52.9c-6.1-16-10.2-27.9-9.7-28.1c4.3-1.4,7.7-7.4,9.7-16.6c1.4-6.8,1.8-21.5,0.6-22.7
		c-0.4-0.4,0.2-3.6,1.7-8.1C487.2,658.4,488.5,655,488.6,655.2z M492,739.6c-1.9,3.2-1.7,5.1,0.4,7.9c6.8,8.6,24.6,6.1,23.7-3.5
		c-0.2-2.9-0.4-3.2-3-3.2c-1.5-0.1-4.9-1.1-7.5-2.2C497.4,734.8,494.6,735.1,492,739.6z M536.2,827.4c0,4.8,0.2,5.6,2.4,7.8
		c4.2,4.2,9.8,3.1,12-2.3c2.8-7.2,2.5-14.9-0.8-17.9C543.6,809.4,536.2,816.1,536.2,827.4z"/>
	<path id="path412" fill="#6633FF" d="M504.5,741.6c2.2,1.1,4.9,2.2,6.2,2.5c1.2,0.2,2.2,0.9,2.2,1.3c0,1.7-4.5,3.7-8.7,3.7
		c-6.6,0-11-3.6-9.5-7.6C495.7,739,499.4,739,504.5,741.6z"/>
	<path id="path414" fill="#6666FF" d="M547.8,818.4c1.2,2.3,1,9.6-0.3,12.9c-1.4,3.3-4.3,3.9-6.6,1.3c-1.7-1.9-1.2-10.8,0.7-13.9
		C543.2,816.4,546.6,816.1,547.8,818.4z"/>
	<path id="path416" fill="#6633FF" d="M481.6,675.8c0.4,1,0.5,3.6,0.2,5.6c-1,7.2-2.8,16.3-3.7,18.8c-1.1,2.9-4,6.2-5.5,6.2
		c-0.6,0-1.8-2.3-2.7-5.2l-1.7-5.2l4.3-6.6c2.4-3.7,5.3-8.6,6.5-11C480.8,674.3,481,674.1,481.6,675.8z"/>
	<path id="path418" fill="#6633FF" d="M504.1,684.9c1.8,3.3,1.8,3.7-0.7,7c-4.4,5.7-3.1,17.2,2.4,20.8c2,1.2,2.3,1.2,4.7,0
		c1.5-0.7,3.2-2.5,4-3.8c0.8-1.3,1.6-2.4,1.8-2.4s1.4,1.6,2.7,3.6l2.2,3.5l-2.7,2.9c-1.5,1.6-3.8,4.5-5.1,6.4
		c-2.9,4.3-5.5,6.1-9,6.1c-3.5,0-4.7-2.3-4.7-9c0-6.1-1.2-10-4.6-15.8c-1.5-2.6-3.1-5.9-3.3-7.2c-0.7-3.5,1.7-9,5.1-12
		C500.5,681.7,502.2,681.7,504.1,684.9z"/>
	<path id="path420" fill="#CC99FF" d="M754.1,687.6l1.5,2c0.8,1.1,3.2,2.9,5.2,4.1c3,1.7,3.7,2.6,3.7,4.6c0,1.3-0.4,2.4-0.8,2.4
		c-2.2,0-5.8-2.7-6.3-4.6c-0.6-2.2-2.6-2.8-3.3-0.9c-1.2,3.1,4.5,8.8,8.6,8.8c1.3,0,1.7,0.7,2.1,4.7c0.2,2.7,0.2,4.9,0.2,5.1
		c-0.9,1-3.8-2.1-5-5.2c-1.4-3.6-3.1-4.7-4.2-2.8c-0.9,1.4,2,8.1,4.3,9.9c1.2,0.9,2.8,1.7,3.7,1.7c1.1,0,1.6,0.6,1.6,2
		c0,1.1,0.2,3.2,0.6,4.7l0.5,2.7l-3.6-3.1c-2-1.7-3.9-3.1-4.2-3.1s-1-1.2-1.5-2.6c-0.5-1.5-2.2-4.2-3.8-6.2c-1.7-2-3.5-5.4-4.2-7.6
		c-1.2-4-1.2-4,1.9-10.3L754.1,687.6z"/>
	<path id="path422" fill="#6666FF" d="M511.7,698.2l2.2,3.7l-1.9,3.7c-1,2-2.4,3.7-3.2,3.9c-3.8,0.7-6-10.5-3-15.1
		C507.6,691.7,508.2,692.1,511.7,698.2z"/>
	<path id="path424" fill="#CCFFFF" d="M0,695.6h19.5H39v26.1v26.1H19.5H0v-26.1V695.6z"/>
	<path id="path426" fill="#99FFFF" d="M42.3,695.6h24.9h24.9v26.1v26.1H67.2H42.3v-26.1V695.6z"/>
	<path id="path428" fill="#99FFFF" d="M95.5,695.6h19.1c12,0,19.1,0.3,19.1,0.8c0,1.3,8.2,22.9,12.5,33.1c3.2,7.4,4.1,10.4,4.1,13.9
		v4.5h-27.4H95.5v-26.1V695.6z"/>
	<path id="path430" fill="#66CCFF" d="M290.5,695.6h19.1v25.7c0,24.3-0.1,25.7-1.5,25.7c-1.8,0-3.7-2-11.5-12
		c-10.1-13.1-25.2-36-25.2-38.5C271.4,695.9,277.1,695.6,290.5,695.6z"/>
	<path id="path432" fill="#99FFFF" d="M312.9,695.6h26.1h26.1v25.7v25.7h-26.1h-26.1v-25.7V695.6z"/>
	<path id="path434" fill="#66CCFF" d="M395.7,695.6h26v24.2c0,21.3-0.2,24.4-1.4,25.7c-1.2,1.4-3.2,1.5-26.6,1.5h-25.2v-25.2
		c0-13.9,0.2-25.5,0.6-25.7C369.4,695.9,381.3,695.6,395.7,695.6z"/>
	<path id="path436" fill="#66CCFF" d="M463.2,696.3c0,1.2-11.9,15.6-19,23c-3.9,4.1-9.5,10.4-12.5,13.9c-2.9,3.6-5.6,6.5-6,6.5
		c-0.8,0-0.9-42.7-0.1-43.4C426.3,695.4,463.2,695.5,463.2,696.3z"/>
	<path id="path438" fill="#FF3300" d="M465.7,700.4c0.2,0.3,1.2,2.7,2,5.1c8.2,24.5,40.7,106.2,52.8,132.8c2.7,6.1,5,11.1,5,11.3
		s-35.4,0.3-78.5,0.3h-78.6l0.6-9.5c1-17.1,3.3-26.4,9.8-39.1c7.4-14.6,16.9-26.6,34.4-43.7c7.1-7,16.7-17,21.3-22.2
		c4.6-5.2,11-12.4,14.3-15.8c3.2-3.4,8.2-9.3,11.2-13C462.8,702.9,465.4,700.1,465.7,700.4z"/>
	<path id="path440" fill="#669933" d="M217.1,712.5l6.6,2.7l-0.2,4.6c-0.2,2.5-0.5,4.6-0.7,4.8c-0.7,0.7-19-5.8-22.6-7.9
		c-4-2.4-4.3-4.2-1-5.9C203,708.9,209.8,709.6,217.1,712.5z"/>
	<path id="path442" fill="#669933" d="M229.3,713.9c5.1,13.2,9.2,17.9,27.2,31.5c7.2,5.6,15,12.2,17.3,14.8c4.2,4.7,9,12.9,8.1,13.9
		c-0.2,0.2-1.9-0.5-3.6-1.7c-3.9-2.6-9-4.2-20.8-6.2c-16.5-3-22.2-7.2-27.9-20.8c-3.2-7.6-4.2-18.2-2.4-27.7
		C228.3,712.5,228.6,712.1,229.3,713.9z"/>
	<path id="path444" fill="#CC99FF" d="M757.1,723.8c1.3,0,5.7,4.4,8.1,8.1c1.8,2.9,2.7,5.7,3.5,10.8c0.5,3.8,0.7,7.1,0.6,7.4
		c-0.7,0.7-3.6-1.2-4.9-3.2c-0.7-1.1-1.5-2.9-1.8-4.2c-0.5-2.2-0.4-2.2,1.6-1.7c1.7,0.4,2.1,0.2,2.1-1.2c0-2.2-4.4-4.2-6.2-2.7
		c-4.1,3.4,2.3,16,8.5,16.8c2.2,0.2,2.4,0.7,3.8,7.1c0.8,3.8,1.4,7.1,1.2,7.3c-0.2,0.2-2.4-0.2-4.8-1.1c-4.4-1.5-4.5-1.6-5-5.2
		c-0.5-3.3-5.9-14.4-10.2-21c-2.2-3.2-1.6-10.8,1.2-14.5C755.6,725.1,756.8,723.8,757.1,723.8z"/>
	<path id="path446" fill="#6633FF" d="M533.1,749.6c3,0,5.6,2.1,5.6,4.3c0,0.9-1.2,4.3-2.6,7.6c-3.4,7.7-3.1,11.5,2.1,22.7
		c5.4,11.8,5.1,14.3-2.7,19.4c-5.4,3.7-6,4.6-6,9.5c0,5.6-1.5,6.7-8.1,6.3c-2.5-0.2-7.7-4.9-9-8.2c-1.4-3.4-1.4-3.7,0.1-3.1
		c1.8,0.7,7.2-1.3,9.8-3.7c3.6-3.2,5.7-8.1,6.2-13.9c0.7-9.5-1.4-14.4-6.3-14.4c-4.6,0-6.8,4.3-8.5,16.6c-0.8,6.2-2.6,11.6-3.7,11.6
		c-1.4,0-2.2-5-2.5-16.9c-0.4-12.5-0.3-14.1,1.2-18.3c2.1-5.6,2.8-6.2,8-7.1c4.2-0.8,4.5-1.1,11-9.1
		C529.9,750.3,531.1,749.6,533.1,749.6z"/>
	<path id="path448" fill="#66FFFF" d="M339.7,750.4h25.6v24.9c0,13.7-0.2,24.9-0.7,24.9c-2.1,0-22.8-17.6-36-30.6
		c-14.2-13.9-16.7-17-15-18.6C313.8,750.7,325.6,750.4,339.7,750.4z"/>
	<path id="path450" fill="#99FFFF" d="M414.2,751c0,0.2-5.1,5.8-11.4,12.2c-12.3,12.5-19.5,22.1-26.1,34.3c-2.2,4.2-4.3,7.7-4.6,7.7
		c-0.2,0-1.1-0.4-2-0.8c-1.5-0.8-1.6-2-1.6-26.9c0-14.3,0.2-26.2,0.6-26.5C369.8,750.2,414.2,750.2,414.2,751z"/>
	<path id="path452" fill="#66CCFF" d="M0,751.2l19.3,0.2l19.3,0.2l0.2,25.1l0.2,25.2H19.5H0v-25.3V751.2z"/>
	<path id="path454" fill="#99FFFF" d="M42.3,751.2l24.7,0.2l24.7,0.2l0.2,25.1l0.2,25.2H67.2H42.3v-25.3V751.2z"/>
	<path id="path456" fill="#CCFFFF" d="M95.5,751.2h27.4h27.4v25.3v25.3h-27.4H95.5v-25.3V751.2z"/>
	<path id="path458" fill="#66FFFF" d="M160.7,760.1c6.1,11.5,14.4,25.6,19.6,33.3c6.3,9.3,7.3,8.5-10.6,8.3l-15.7-0.2l-0.2-24.1
		c-0.1-13.2,0-24.5,0.2-25.1C154.8,750,156.1,751.6,160.7,760.1z"/>
	<path id="path460" fill="#CC99FF" d="M721.3,759.3c1.1,1.7,3,3.7,4.2,4.6l2.2,1.6l-2.3,4.6c-1.5,2.9-2.3,6-2.3,8.2
		c0,1.9-0.3,3.7-0.7,4c-0.3,0.2-2.2,0.2-4.2-0.1c-3.7-0.5-4.1-1.2-2.7-4.9c0.8-2.2,0.9-2.2,2.1-0.7c1.2,1.5,1.3,1.5,2.9-0.4
		c1.9-2.2,2.2-4.2,0.7-5.7c-2.7-2.7-7.6,1-9.1,6.8l-1,3.8h-4.4h-4.4l1.2-3.2c0.7-1.7,2.3-4.4,3.7-6c2.3-2.9,2.6-5,0.5-5
		c-1.7,0-5.4,4.8-7.6,9.9c-1.7,3.8-2.2,4.3-3.8,3.9c-1-0.2-3.5-0.5-5.6-0.5l-3.7-0.1l2.3-2.1c1.4-1.2,2.2-2.6,1.9-3.2
		c-0.7-2-2.2-1.5-5.6,2s-7.6,5.1-8.3,3.2c-0.7-1.7,0.8-6.1,2.7-7.7c1.7-1.5,1.7-1.5,2.8,0.1c1,1.2,1.4,1.4,2.2,0.6
		c1.4-1.4,0-5.6-2-5.9c-3.5-0.7-8.3,4.9-9.3,10.8c-0.6,3.1-0.7,3.2-3.2,3c-2.3-0.2-2.7-0.7-3.8-4.2c-0.8-2.8-1-4.7-0.4-7.1l0.7-3.1
		l5.8-0.2c4.6-0.2,6.2-0.6,7.9-2.2c5.6-5.2,7.7-5.6,12.3-2.6c1.9,1.3,4.2,2.1,6.1,2.1c2.7,0,3.7-0.7,7.6-4.6
		C712.8,753,717,753,721.3,759.3z"/>
	<path id="path462" fill="#CC99FF" d="M747.4,761.2c0.4,0,2.1,1.5,3.7,3.4c2.7,3.2,3.2,3.3,6.3,3c2.5-0.2,4.3,0.2,6.7,1.6
		c1.8,1,5,2.1,7.1,2.4l3.7,0.6l2.1,6.7c1.1,3.7,3.2,9.3,4.7,12.4s2.4,5.6,2,5.6c-1.5,0-15-4.9-16.9-6.2c-2.4-1.6-4.7-6-4.6-8.9
		c0-1.7,0.2-1.7,1.4,0.8c0.8,1.7,1.8,2.6,2.6,2.4c1.8-0.3,1.3-3.2-1.2-7.2c-2.2-3.5-4.8-4.4-5.7-2c-0.8,2.2-0.6,9.5,0.4,11.3
		c1.2,2.2,0.7,2.5-3.4,1.8s-7.1-3.5-7.9-7.6c-0.7-4,0.5-5.4,1.7-1.8c1.2,3.7,3.7,4.3,3.7,1c0-2.9-2.6-8.5-4.5-10.2
		c-1.3-1.1-1.7-1-2.6,0.3c-1.6,2.2-2.3,9-1.4,12.5c0.8,2.7,0.7,3-0.9,3c-3.1,0-3.5-1-3.5-8.3c0-5.7-0.2-7.1-1.2-7.1
		s-1.3,1.4-1.7,6.4c-0.2,3.5-0.7,6.6-0.9,6.9c-0.3,0.2-2.8,0.2-5.6-0.1l-5.1-0.6v-3.6c0-4.9,2.2-10.1,4.9-11.5
		c1.2-0.6,3.5-1.3,5.1-1.7c1.7-0.3,4.6-1.7,6.6-3S747,761.2,747.4,761.2z"/>
	<path id="path464" fill="#CC99FF" d="M663.1,764.4c0.7,0.6,0.8,1.3,0.1,3.4c-0.9,2.6-0.7,8.5,0.5,12.3c0.6,1.8,0.3,1.9-3.2,1.9
		c-4.3,0-5.4-1.5-3.9-5.3c1.2-3.3,1.1-4.8-0.6-4.5c-1.9,0.3-3.6,3.7-3.6,7.4v3l-4.7,0.6c-2.7,0.3-6.2,0.7-7.9,1.1
		c-3.7,0.6-4.2-0.7-1.4-4.2c1.9-2.4,1.2-4.5-1.2-3.6c-1,0.4-4.8,6.9-5.1,8.5c0,0.1-1.2,0.4-2.7,0.7l-2.7,0.6v-4.5
		c0-3,0.7-5.7,1.9-8.1l1.8-3.7l4.7,0.2c4,0.2,5.5-0.1,9.5-2.2c2.7-1.5,6-3,7.4-3.3C655.2,763.6,661.6,763.5,663.1,764.4z"/>
	<path id="path466" fill="#CC99FF" d="M626.5,769.2c-2.6,5-3.4,8.1-3.5,12.5c-0.1,5.1-0.2,5.2-2.3,5.2c-1.3,0-2.3-0.4-2.3-1.1
		c0-0.6-1.2-3.2-2.8-5.8l-2.8-4.6l5.6-3.3C623.3,769.1,627.4,767.7,626.5,769.2z"/>
	<path id="path468" fill="#6633FF" d="M566.6,770.5c0.5,0.2,4.5,4,8.9,8.5l7.9,8.4l-5.1,1.8c-6.5,2.3-10.5,2.3-13.3,0.2
		c-4.1-3.2-4.4-8.9-0.9-16C564.9,771.7,566,770.4,566.6,770.5z"/>
	<path id="path470" fill="#CC99FF" d="M608.1,776.2c2.1,1.7,6,7.8,6.6,10.1c0.5,2.1,0.3,2.2-1.9,2.2c-1.3,0-4.5-1.2-7.1-2.5
		c-4-2.2-4.7-2.3-5.6-1.2c-0.8,1-0.5,1.5,2.1,3.1c2.8,1.6,3,1.8,1.5,2.4c-0.9,0.3-3.5,0.9-5.6,1.2l-3.9,0.7l-4.9-4.9l-4.9-4.8l1.9-2
		c1.9-2.1,5.3-4.1,8.9-5.2C598.1,774.2,606.5,774.9,608.1,776.2z"/>
	<path id="path472" fill="#669933" d="M220.1,777.1c1.2-0.2,1.5,1.7,0.7,5c-1.1,4-6.5,9.7-11.5,12.3c-4.3,2.2-15.6,5.9-18,5.9
		c-1.3,0-2.7-1.3-5-4.7l-3.1-4.6l1.9-1.6c3-2.3,14.7-7.9,19.8-9.3c2.6-0.7,6.9-1.7,9.5-2.1C217.3,777.5,219.8,777.1,220.1,777.1z"/>
	<path id="path474" fill="#6666FF" d="M524.7,781.3c1.4,2.7,0.5,12-1.6,16.2c-2.7,5.4-9.5,9.8-7.7,5c0.4-1.1,1.2-4.9,1.7-8.5
		c1-7.1,2.2-11.8,3.6-13.4C521.9,779,523.6,779.2,524.7,781.3z"/>
	<path id="path476" fill="#FF3300" d="M691.9,784.9c19.6,0.2,26.2,0.6,35.7,2.1c29.5,4.5,57.1,12.6,62.2,18.2
		c1.6,1.7,1.6,1.7-1.2,1.7c-1.6,0-9.1-0.8-16.9-1.8c-18.3-2.2-40.3-2.5-49.4-0.4c-11,2.6-25.7,11-25.7,14.8c0,2.4,1.3,1.9,6.5-2.1
		c5.7-4.5,12.5-7.6,20.4-9.4c8.8-2,28.1-1.7,47,0.6c8.9,1.1,17.4,1.7,20.3,1.4c5.6-0.5,9.9,1.1,12.9,4.9c1.5,1.9,2.4,5.3,1.5,5.3
		c-0.2,0-5.9-1.2-12.7-2.6c-17.2-3.6-29.9-4.1-40.4-1.7c-13.4,3.1-22.2,8.4-22.2,13.4c0,1.5,0.9,3.4,2.4,5.1
		c2.3,2.6,2.7,2.7,9.4,3.1c3.7,0.2,13.5-0.4,21.7-1.2c13-1.3,14.7-1.7,14.7-3c0-1.9-3-1.9-17.6-0.2c-14.4,1.7-23.2,1.4-25.6-1.1
		c-1.7-1.7-1.7-1.9-0.4-4c2-3,5.6-5.1,13.4-7.6c5.8-1.9,8.1-2.2,18.3-2.2c10-0.1,13.6,0.3,25.7,2.7c12.5,2.4,21.2,5.2,21.2,6.9
		c0,0.2-1.6,1.9-3.5,3.6c-4.2,3.6-11.2,5.8-22.2,7.1c-9.5,1.1-10.8,1.4-10.8,2.9c0,1.7,0.9,2,5.4,1.2c2.3-0.3,7.3-1.1,11.1-1.7
		c10.2-1.4,15.5-3.7,20.3-8.4c2.2-2.2,4.5-4.1,5.1-4.1c2.2,0,5.4,3.7,5.9,6.7l0.6,3l-6.6,0.4c-5.1,0.3-8.2,1.1-15.2,4
		c-4.8,1.9-11,4.4-13.9,5.5l-5.2,2h-56.7h-56.7l-17.3-11.5c-9.5-6.3-20.3-13.8-24-16.5c-14.9-11.3-31-25.6-29.8-26.7
		c1.7-1.6,47.9-8.9,64.7-10.3C666,784.8,678.7,784.8,691.9,784.9z"/>
	<path id="path478" fill="#66CCFF" d="M0,805.2h19.5H39v22.4V850H19.5H0v-22.4V805.2z"/>
	<path id="path480" fill="#CCFFFF" d="M42.3,805.2h24.9h24.9v22.4V850H67.2H42.3v-22.4V805.2z"/>
	<path id="path482" fill="#66CCFF" d="M95.5,805.2h27.4h27.4v22.4V850h-27.4H95.5v-22.4V805.2z"/>
	<path id="path484" fill="#99FFFF" d="M171.4,805.2h16.8l7.1,9.7l7.2,9.8v12.6V850H178h-24.5v-21.8c0-12,0.2-22.2,0.6-22.4
		C154.4,805.4,162.2,805.2,171.4,805.2z"/>
	<path id="path486" fill="#669933" d="M306,809.8c9.7,4.3,15.5,5.3,34.4,6.1c9.8,0.5,19.9,1.3,22.4,1.9c4.5,1.1,4.6,1.2,4.4,3.8
		c0,1.5-0.3,4-0.6,5.4l-0.5,2.7l-10.2,1c-25.1,2.5-36.9,0.2-46-9c-2.8-2.9-8.5-12-8.5-13.5C301.3,808,303.4,808.7,306,809.8z"/>
	<path id="path488" fill="#6633FF" d="M593.7,815.8c8,4.2,18.3,12,21.6,16.3c2.7,3.7,6.6,11.9,7.6,15.6l0.5,2.3h-8.6H606l-5.6-8.5
		c-6.2-9.4-10.4-12.9-15.9-13.7c-3-0.4-3.7-0.2-6,2.1c-2.1,2.2-2.5,3.2-2.5,6.6c0,2.5,0.7,5.6,2.1,8.4c1.2,2.5,2.1,4.6,2.1,4.8
		s-2.2,0.3-4.9,0.3c-4.4,0-5.1-0.2-7.5-2.7c-3.2-3.2-4.5-7.6-4.5-14.4c0-5.6,1.7-9.5,4.9-11.7c1.8-1.2,2.7-1.2,5.9-0.4
		c4.2,1.2,5.2,0.8,5.2-1.6c0-1.9,1.5-5.1,2.8-5.9C584.2,812,587.9,812.8,593.7,815.8z"/>
	<path id="path490" fill="#669933" d="M246.9,818c3.4,3.5,11.7,18.6,15.3,27.7l1.7,4.3h-7.5c-8.7,0-8.5,0.2-12.5-10.6
		c-3.5-9.6-5.5-20.3-4.3-23C241.1,813.4,243,813.8,246.9,818z"/>
	<path id="path492" fill="#66FFFF" d="M206.2,829.3c0.2,0,2.5,2.7,5.1,6c2.7,3.3,6.6,8.1,9,10.5l4.1,4.3h-9.3h-9.2v-10.4
		C205.9,833.9,206,829.3,206.2,829.3z"/>
	<path id="path494" fill="#6666FF" d="M584.1,831.8c3.6,0,9.5,5.4,14.3,12.9l3.3,5.3h-8.5h-8.5l-2.7-5.3c-2.7-5.5-3.3-10.2-1.6-12
		C581,832.2,582.6,831.8,584.1,831.8z"/>
	<path id="path496" fill="#FF0000" d="M836.7,845l5.4,5H818H794l4.6-2.2c8.8-4.1,16.2-6.1,22.3-6.1c3.2,0,6.1-0.4,6.3-0.8
		C828.3,839,831.6,840.4,836.7,845z"/>
</g>
</svg>
