<?xml version="1.0" encoding="utf-8"?>
<!-- Generator: Adobe Illustrator 21.0.0, SVG Export Plug-In . SVG Version: 6.00 Build 0)  -->
<svg version="1.1" baseProfile="tiny"
	 id="svg254" inkscape:version="0.92.2 5c3e80d, 2017-08-06" sodipodi:docname="61 #4198.svg" xmlns:cc="http://creativecommons.org/ns#" xmlns:dc="http://purl.org/dc/elements/1.1/" xmlns:inkscape="http://www.inkscape.org/namespaces/inkscape" xmlns:rdf="http://www.w3.org/1999/02/22-rdf-syntax-ns#" xmlns:sodipodi="http://sodipodi.sourceforge.net/DTD/sodipodi-0.dtd" xmlns:svg="http://www.w3.org/2000/svg"
	 xmlns="http://www.w3.org/2000/svg" xmlns:xlink="http://www.w3.org/1999/xlink" x="0px" y="0px" viewBox="0 0 850 850"
	 xml:space="preserve">
<sodipodi:namedview  bordercolor="#666666" borderopacity="1" gridtolerance="10" guidetolerance="10" id="namedview256" inkscape:current-layer="svg254" inkscape:cx="533.88884" inkscape:cy="348.58521" inkscape:pageopacity="0" inkscape:pageshadow="2" inkscape:window-height="978" inkscape:window-maximized="1" inkscape:window-width="1920" inkscape:window-x="0" inkscape:window-y="1" inkscape:zoom="1.1779567" objecttolerance="10" pagecolor="#ffffff" showgrid="false">
	</sodipodi:namedview>
<g id="g252" transform="translate(0.000000,0.000000) scale(1.00000,1.00000)">
	<path id="path4" fill="none" d="M0,0h425h425v425v425H425H0V425V0z M304.5,7c-2.2,0-2.9,6.2-1.6,14.6c0.6,4.1,1.1,9.9,1.1,12.9v5.4
		l-6.2,3.1c-8.4,4.1-20.3,14.1-24.1,20.2c-2.8,4.4-3.4,4.9-5.9,4.4c-3.3-0.6-3.6,0.4-0.8,2.2l2.1,1.3L267,74
		c-2.5,3.5-7.2,15.8-6.8,17.8c0.2,0.8,1.6-0.6,3.5-3.5c3.3-5.1,10.3-12.2,14.1-14.2c1.9-1,1.8-0.6-0.8,4.5c-1.7,3.1-3,6.4-3,7.4
		s-1.4,4.7-3,8.3c-2.8,5.9-3.1,7.3-2.8,14.8l0.3,8.4l2.1-4.6c1.2-2.6,3.9-6.5,5.9-8.8c4.2-4.7,16.5-14.6,16.5-13.3
		c0,4-3.5,11.2-7.1,14.7c-7.3,7-9.1,13.5-6.8,23.3c1.4,5.5,2.9,7.7,2.9,4.2c0.1-3.8,3.4-10.1,7.1-13.7l3.4-3.2v14.4
		c0,9.5,0.4,14.8,1.1,15.5c0.9,0.9,1.4,0.1,1.9-3.2c0.7-4,1.8-5.7,3.8-5.8c1.5,0,0.7,5.9-1,6.9c-4.1,2.4,6.4,1.1,11.3-1.4
		c2.7-1.4,5-2.5,5.2-2.5c0.1,0,0.2,2.1,0.2,4.7c0,2.7,0.5,5.5,1,6.3c0.8,1.3,1,1.3,1-0.2c0-2.6,3.1-9.8,4.1-9.8
		c0.5,0,0.9,1.1,0.9,2.4c0,1.4,0.4,3.6,1,5c0.8,2.1,0.3,3.3-3.5,8.2c-2.5,3.1-5.7,6.5-7.2,7.4c-1.6,0.9-7.5,7.8-13.3,15.3
		s-10.8,13.6-11.1,13.6c-0.4,0.1-1-1-1.3-2.4c-0.4-1.4-1-2.5-1.5-2.5c-0.4,0-2.9,2-5.5,4.3c-3.1,2.9-4.5,4.9-4.1,5.9
		c0.5,1.2-0.8,2.4-4.4,4.3c-5.8,3.2-6.7,4.9-4.6,8.1c2.5,3.9,1.8,5.9-5.1,13.3c-6.8,7.3-6.8,7.9-0.3,6c3.1-1,4.2-0.9,5.5,0.2
		c1.4,1.1,1.9,1.1,3.3-0.7c0.9-1.1,3-3.8,4.8-6l3.2-3.9l0.1,3c0,1.6-1.8,9.7-4,18c-5.3,20-5.3,24.5,0.1,37.3
		c4.7,11.1,6.6,13.2,11.9,13.2s8-2.3,25.2-21.5c8.4-9.4,15.5-16.9,15.8-16.9c0.3,0.1,1.9,4,3.6,8.5c3.7,10.1,5,12.8,12.2,24.2
		c4.2,6.7,5.7,10.2,6.3,14.3c0.7,5.4,0.7,5.5-5.7,16.1c-5.9,9.8-12.4,23.6-12.4,26.3c0,1.6-13.1,9.7-21.1,13
		c-11.8,4.8-18.1,12.7-18.2,23.1c-0.1,5.3,1.3,7.5,7,11l3.4,2.1l-2.6,4.3c-3.2,5.5-3.1,6.7,0.4,11.8c6.1,8.8,13.8,14.5,24.4,18.1
		c2.9,1,3.6,4.7,2.3,12c-0.9,4.5-2,7.4-3.5,8.8c-2.2,2-2.3,3.3-1,11.3c0.1,0.5-1,9.2-2.6,19.3c-2.8,18-2.8,18.4-1.1,24.5
		c1,3.4,5.5,13.2,10.1,21.7c6.4,11.9,8.2,16.2,7.8,18.2c-0.8,4,0.3,7.3,3.6,11c1.5,1.8,3.6,4.7,4.5,6.5l1.6,3.2l-4.2,0.3
		c-5,0.4-5.9,2.2-2.9,5.9c1.3,1.6,3,2.4,5,2.4c3.7,0,3.6,0,2.1,9.2c-1.3,7.2-1,10.3,1,10.3c1.3,0,1.6-0.9,3-9.9l1.2-7.4l3.4,6.4
		c1.9,3.5,3.4,6.4,3.4,6.6c0,0.2-1.5,0.3-3.4,0.3s-3.6,0.6-3.9,1.4c-0.8,2.1,3,7.6,5.3,7.6c1.1,0,2,0.2,2,0.4
		c0,0.3-2.5,4.8-5.6,10.1c-5.1,8.6-6.2,12.5-3.5,12.5c0.5,0,2.3-2.2,4.1-5c1.8-2.7,3.4-5,3.6-5c0.4,0,0.1,1.8-4.7,26.5
		c-8.2,41.9-20.6,93.4-25.4,106c-1.9,4.9-7,15.9-11.2,24.4c-8.5,16.7-11.5,20.2-22,25.5c-12.3,6.2-16.8,15.7-15.7,33.1l0.7,10.2
		l4.6,2.9c7.8,5,12.8,6.4,22.3,6.4c4.8,0,9-0.5,9.3-1c0.3-0.6,1.8-1,3.3-1c5.4,0,15.2-5.8,23.3-13.6c6.2-6.1,9.9-8.7,18.1-12.8
		c7.5-3.7,10.9-6,12.6-8.6c2.4-3.4,2.4-3.8,1.8-19c-0.7-17.4-2.2-25.3-5.8-30.8c-2.1-3.1-2.5-5-2.6-12.2c-0.1-9.8,1.5-15.5,15-52
		c8.9-24.2,12.4-33.8,13.1-36c0.4-1.5,1.5,0.5,6.2,12c1.2,3,4.1,9.9,6.3,15.3c2.3,5.4,4.8,13.2,5.6,17.4c1.5,6.8,1.5,9,0.1,22.1
		c-1.1,10.8-2.1,15.4-3.5,17.7c-1.1,1.8-2,3.9-2,4.8c0,0.8-1.5,3.8-3.4,6.6c-5.6,8.3-5.7,13.6-0.5,30.7c1.7,5.6,2.2,6.3,7.1,9
		c4.5,2.5,6.4,2.9,12.8,2.9s8.5-0.5,14.3-3.2c13.5-6.4,22.2-17.9,24.8-32.8c1.3-7.9,2.5-10.6,10.3-22.4c9.5-14.5,8.9-21.2-3.3-35.4
		c-4.3-5.1-10.6-11.6-14-14.5c-4.9-4.3-6.3-6.2-7.2-9.8c-0.6-2.4-2.5-6.1-4.1-8.2c-5-6.2-8-13.4-20.1-47.7l-11.6-33l0.2-32.5
		l0.2-32.5l3.3-12c5.1-19.1,24.9-80.9,25.5-79.9c0.3,0.5,1.2,4.4,2.1,8.6c1.5,7.1,1.5,8.3-0.1,15.3c-1.5,7-1.5,7.7,0,9.2
		c1.3,1.3,2.1,1.4,4.1,0.5c1.9-0.8,3-2.7,4.5-7.9c1.1-3.7,2.1-8.2,2.3-9.8c0.3-2.8,1.2-1.8,12.1,12.8c6.5,8.7,13.2,16.6,15,17.7
		c4.3,2.7,7.3,2.5,9.3-0.5c1.5-2.3,1.5-3-0.1-9.4c-1.8-7.6-1.2-16.6,1.8-24.6c1-2.7,1.2-4.7,0.6-6.3c-0.5-1.3-5.6-8.4-11.4-15.7
		c-5.8-7.3-10.5-14-10.5-14.9c0-2.2,3.6-9.2,5.2-10.3c0.7-0.4,2.6-1.3,4.3-1.8c4-1.4,6.9-6.1,9-14.5c1.7-7,7-16.6,11.3-20.3
		c1.1-1.1,4-2.3,6.4-2.9c5.1-1.1,8-3.6,11.4-9.8c1.5-2.7,4.2-5.6,6.7-7.2c2.3-1.5,6.4-4.8,9.1-7.3c2.7-2.5,5.3-4.5,5.8-4.5
		c1.4,0,16.9,8,25.8,13.3c4.6,2.8,12.9,8.4,18.3,12.5c5.4,4.1,10.1,7.1,10.5,6.7c1.1-1.2-23.9-24.6-36.3-34.1
		c-6.3-4.8-11.5-8.9-11.5-9.1c0-0.3,1.3-3.5,2.9-7.1c4.4-10.1,6.4-20.8,6.4-35.2c0.1-13.7-0.8-19.5-5.5-34.3
		c-1.6-5.3-2.8-10.3-2.5-11.1s3.6-2.9,7.2-4.6c5.3-2.5,7-3.9,8.1-6.6c1.1-2.7,2.9-4.1,9-7.1c7.2-3.5,17.4-11.5,19.4-15.3
		c1.4-2.7-5.1-9.4-15.4-16c-10.3-6.6-12.2-9.9-8.6-14.9c6.2-8.8,10.2-23.6,7.5-27.7c-1.9-2.9-4.9-3.3-16.9-2.4
		c-11.6,1-19,3.4-24.9,8.1l-4,3.3l0.6-6.5c1.5-14.5,11.5-27.3,32.2-41.2c6.1-4,11-8,11-8.8c0-0.9-2.2-1.9-6.1-2.9
		c-3.4-0.9-6.8-2.1-7.7-2.8c-1.2-1-2.5-1.1-5.1-0.3c-2.2,0.5-3.8,0.6-4.2,0c-0.9-1.4-1.9-1.1-5.8,2c-2.1,1.7-4.3,2.8-5,2.5
		c-0.6-0.2-2.3,0.7-3.6,2.1s-3.2,2.5-4.2,2.5c-1.1,0-2.9,2-4.8,5.4c-1.7,3-4,5.6-5,5.9c-1.3,0.3-2,1.4-2,3c0,1.3-0.8,3.5-1.9,4.8
		c-1.6,2.1-3,6.1-6.7,19c-0.4,1.4-0.9,1.2-3.2-1c-4.7-4.7-19.1-5-23.7-0.5c-2.1,2.1-3.9,5.8-6,12.2c-1.7,5.3-1.7,5.4,0.8,12
		c1.9,5.2,2.4,7.9,2,11.7c-0.5,4.7-1.1,5.4-8.4,12.3c-4.3,4-8.1,8.2-8.4,9.2c-1,3.2,1.3,8.6,5,11.4c2,1.6,3.6,3.8,4,5.8
		c1,4.5,2.4,6.5,6.7,9.4c2.3,1.7,4.1,4,4.9,6.3c1.3,4.1,5.2,9.6,7.7,11c1,0.5,3.3,1.2,5.3,1.6l3.5,0.6l3.2-9.4
		c1.7-5.1,4.7-13.3,6.5-18.1l3.4-8.8l0.8,3.8c0.4,2.2,0.9,8.4,1.1,13.9c0.2,5.5,1.2,13.4,2.2,17.5l1.8,7.5l5.1-0.3l5-0.2l2.1,5.7
		c4.7,12.9,6.2,26.6,4.3,39.5c-1,7.4-5.4,20.2-7.2,21.4c-0.5,0.2-5-2-10.1-5c-18.6-10.8-32.4-17-46.9-21c-3.1-0.9-6.7-2.4-8-3.5
		c-1.3-1-7.8-12.5-14.4-25.4c-11.9-23.2-12-23.5-10.1-25.5c1-1.2,1.6-2.8,1.2-3.8c-0.3-0.8,0.1-4,0.9-6.9c0.9-2.9,1.3-6.4,1-7.8
		c-0.6-2.4-7.7-9.2-15.2-14.7c-2-1.4-4.5-4.9-6.2-8.6c-5.3-11.4-14-18.4-22.9-18.4c-2.7,0-4.2-0.4-4.2-1.3c0-0.7-0.9-1.8-2-2.5
		s-2-2-2-3c0-1.4,0.2-1.4,0.9-0.3c0.8,1.2,1.7,1,5.3-1.3l4.3-2.9l-2.9,3.2c-4.4,4.6,0.8,3.7,6-1.1c2.2-1.9,2.2-1.9,4.7,1.3
		s2.7,3.2,5.3,1.9c4.1-2.2,12.3-10.7,13-13.6l0.6-2.4l4.4,4c2.4,2.2,4.8,4,5.4,4c1.3,0,1.3,0.1-1-4.5c-3.3-6.5-2.7-11.6,3.5-27.5
		c6-15.5,7-22.5,4-29.7c-0.8-1.9-1.5-6-1.5-9.1s-0.7-8.1-1.6-11.2c-1.5-5.5-1.5-5.9,0.5-9.8c2.4-4.8,7.1-22.1,6.1-22.7
		c-0.3-0.2-5.1,0-10.6,0.5c-22.3,2-19.6,2.4-27.7-3.6c-8.2-6-13.4-7.7-20.9-6.8c-4.8,0.6-5.8,0.3-10.7-2.7c-5.1-3.2-6-3.4-14-3.3
		c-4.7,0-12.1,0.8-16.4,1.7l-7.9,1.7l-10.3-4c-5.7-2.3-13.1-5.9-16.4-8C308.7,8.8,305.3,7,304.5,7z"/>
	<path id="path6" fill="#DAA520" d="M306.4,9.7c0.6,0.4,3.4,2.1,6.1,3.8c2.8,1.8,8.8,4.7,13.5,6.5c11.6,4.4,17,7.3,20.3,10.8l2.8,3
		l-3,1c-6,2.1-17.4,10.4-26.2,19.1l-8.9,8.8v-3.8c0-2.1-0.4-4-0.9-4.3c-0.5-0.4-0.5-1.8,0.1-3.4c0.9-2.3,0.4-5.4-2.6-16.9
		c-3.3-12.9-4.5-23-3-24.6C305,9.3,305.8,9.4,306.4,9.7z"/>
	<path id="path8" fill="#8B0000" d="M366.3,20.1c2.3-0.1,8.1,2.3,11.9,5l3.1,2.2l-4.7,2.4c-4.2,2.1-4.8,2.2-6.2,0.8
		c-2.3-2.2-4-1.8-2,0.4c1,1.1,1.5,2.5,1.1,3c-1,1.8,1.5,1.3,4.4-0.8c4.6-3.3,12.9-6.1,17.9-6.1c5.3,0,12.4,3.1,18.1,7.8l3.3,2.9
		l-9.4,2.2l-9.5,2.3l-5.8-3.1c-6.6-3.5-8.9-3.7-16-1.3l-5,1.7l-4-2.8c-2.2-1.5-5.8-3-8-3.4c-4.7-0.7-14.4-8.2-12.3-9.4
		c0.7-0.4,4.5-1.2,8.3-1.8c7.2-1.2,14.1-0.5,18.7,2c1.5,0.8,1.9,0.8,1.3,0c-0.3-0.6-2.1-1.8-3.8-2.5
		C365.7,20.7,365.1,20.1,366.3,20.1z M361,27.8c0,0.4,1.6,2.4,3.6,4.3c3.2,2.9,3.5,3.1,2.4,0.9c-0.7-1.4-1.9-3.3-2.8-4.3
		C362.6,26.9,361,26.4,361,27.8z"/>
	<path id="path10" fill="#8B0000" d="M359.2,37c1.4,1,2.8,1.7,3.1,1.3c0.9-0.8,3.8,1.7,3.1,2.8c-0.8,1.4,1.1,1.1,6.1-1.1
		c12.2-5.2,21.9,0.6,30.7,18.1C411.1,76,415,95.7,413,111.8c-0.6,5.2-1.8,11.5-2.5,13.9c-1.5,4.9-8.2,15.7-11.9,19.2
		c-2.1,2-1.9,1.2,1.4-5c7-13.4,10.2-30.1,8.6-45.2c-1.2-10.4-2.2-7.9-1.8,4c0.6,14.7-2.5,31.1-7.4,39.3c-1.4,2.4-1.4,2.4-0.8-1.5
		c0.3-2.2,1.5-8.2,2.5-13.4c1-5.2,1.9-11,1.8-13c0-2.1-1,1-2.4,7.7c-2.9,14.2-8.4,26.1-15.5,33.6c-2.7,2.9-5.5,5.3-6.2,5.3
		c-0.7,0.1-5.6,1.3-10.8,2.7c-8.6,2.3-9.7,2.4-11.8,1c-4.1-2.7-1.5-4.4,7.2-4.8c6.1-0.3,8.5-0.9,10.8-2.6l3-2.2l-0.7,2.3l-0.8,2.4
		l2.3-2l2.3-2l-0.7,2.2c-1.3,4.1,0.3,2.4,3.3-3.5c3.3-6.5,6.3-15.4,8.5-25c1.6-7.1,0.4-8.6-1.3-1.6c-1.7,6.5-2.2,5.1-1.1-2.9
		c0.6-3.7,0.9-7.1,0.9-7.5c-0.1-0.4,0-0.9,0.1-1.2c0.5-1.2,0.6-8.1,0.1-8.4c-0.3-0.2-0.4-3.2-0.3-6.6l0.4-6.2l2.9,2.8
		c1.6,1.5,2.9,2.3,2.9,1.7c0-0.5-0.9-1.8-2.1-2.9c-2.8-2.5-4.4-5.8-5.9-12.2c-0.6-2.8-1.6-5.5-2.1-5.8c-1-0.6-0.4,3,1.2,7.4
		c0.5,1.3,0.9,3,0.9,3.9c0,2.3-2.7-0.2-3.4-3.3c-1.3-5.1-4.8-13.4-5.6-13.4c-0.5,0,0.2,2.6,1.4,5.7c4.3,10.6,4.3,10.2-1,9.2
		c-2.6-0.5-5-1.2-5.3-1.5s-0.5-4.4-0.5-9c0.3-13.2-1.3-9.8-2,4.3c-0.4,7.1-1.1,13.5-1.5,14.3c-1.6,3-3.8,2.2-4.9-1.7l-1.1-3.8
		l0.2,4.9c0.1,3.4-0.2,5-1.2,5.4c-1.1,0.4-1.3-0.5-0.8-4.4c0.8-6.1,2.3-17.5,3.2-23.4c0.4-2.9,0.3-4-0.3-3
		c-0.5,0.8-1.7,6.4-2.6,12.5c-1,6-2,12.6-2.3,14.5c-0.5,3.4-0.6,3.4-2-2.4c-1.4-5.2-1.4-6.5-0.1-11.3c0.9-2.9,1.1-5.3,0.7-5.3
		c-0.5,0-0.2-1.7,0.7-3.8c3.1-7.2,2.5-7.6-1.2-0.7c-2.1,3.8-5.2,11.4-7,16.9c-3.4,10.5-3.2,10.5-4.9,0.6c-0.8-4.4,1.7-16.5,4.5-22
		c1.2-2.3,1.9-4.4,1.7-4.6c-1-1-3.7,4.9-7.7,16.7c-4.4,12.9-6,16.1-6,11.8c0-6.1,2.3-14.9,5.5-21.8c4.5-9.4,2.1-7.3-3.2,2.9
		c-2.1,4.1-4.6,8.6-5.5,10c-1,1.4-2,4.5-2.4,7c-1.2,7.8-2.4,8.1-2.3,0.5c0.3-9.1,1.9-14.3,6.4-20.5c2.1-2.8,3.5-5.3,3.2-5.6
		s-2,1.6-3.8,4.3c-1.8,2.6-3.6,4.9-4.1,5.1c-0.4,0.2-0.8,0.8-0.8,1.4s-1.1,2.5-2.4,4.3c-1.4,1.8-3.3,6.2-4.2,9.9
		c-1,3.6-2.2,6.6-2.6,6.6c-1.5,0-0.8-9.8,1.2-16.3c1.1-3.6,3.6-8.9,5.5-11.7c4.1-6.1,4.4-7.2,1.1-4.1c-4.2,4-8.9,15.8-9.6,24.1
		c-0.5,6.9-1,8.3-6.1,16.6c-3,5-6.8,12.5-8.5,16.7c-1.6,4.2-3.2,7.7-3.6,7.7c-0.8,0,2.4-11.9,4.7-17.4c0.9-2.2,3.3-6.4,5.2-9.4
		s3.2-5.6,2.9-5.9c-0.7-0.8-11.5,16.2-14.9,23.5c-1.6,3.5-3.1,6.1-3.4,5.8c-1-1,6.2-19.8,11.3-29.4c5.8-11,5.8-12.9,0-3.4
		c-7.5,12.4-13.5,30.9-13.7,42c0,3.7-0.2,4.2-0.9,2.5c-0.8-2,0.3-19.2,1.6-25.7c0.4-1.9,0.3-2.6-0.5-2.2c-0.5,0.4-1.3,2.3-1.7,4.2
		c-0.4,2.1-1.6,4.1-3.1,5.1c-1.3,0.9-3.5,3.2-4.9,5.2c-1.3,2-2.4,2.9-2.4,2.1c-0.1-0.9-0.6-0.6-1.3,0.8c-2.6,4.5-3.6-0.2-1.5-7
		c1.4-4.8,8.7-13.4,8.7-10.3c0,1.1-0.6,3.8-1.4,6c-1.9,5.4-1.2,5.5,1.8,0.3c3.1-5.2,4.6-10.5,2.7-9.3c-1.3,0.8-1.3,0.9,2.3-10.5
		c6.2-18.9,35.4-50.8,52.2-56.8C351.3,34.5,356.5,34.8,359.2,37z M312.2,69.4c-6.9,7.9-16.2,24.7-16.2,29.2c0,1.1,1.5-1.5,3.4-5.7
		c3.5-8.2,5.2-10.9,12.9-20.7C317.4,65.7,317.4,63.5,312.2,69.4z"/>
	<path id="path12" fill="#D2691E" d="M306.2,36.5l1.4,4.5c0.8,2.5,1.4,5.4,1.3,6.5c-0.2,4.5,0.1,13.1,0.6,15.1
		c0.5,2.1-4,9.3-5.9,9.4c-0.5,0-0.3-0.7,0.4-1.5c1-1.2,1-2.1,0-4.5c-0.9-2.3-1-3.3-0.1-4.4c0.7-0.8,0.9-2.5,0.5-4
		c-0.4-1.6-0.2-2.6,0.5-2.6s1.1-3.2,1.2-9.3L306.2,36.5z"/>
	<path id="path14" fill="#DAA520" d="M443.3,37.1c1.3-0.2,0.7,1.1-1.8,4.1c-1.4,1.6-2.5,3.6-2.5,4.4c0,0.8-4.9,6.5-11,12.7
		c-8.4,8.5-11,11.8-11,13.8c0,1.5-0.6,2.9-1.4,3.2c-0.9,0.4-1.2,1.4-0.9,2.6c0.4,1.5,0.1,2.1-1,2.1c-1,0-2-1.5-2.7-4
		c-1.9-7.1-7.7-19.7-11.8-26c-2.2-3.3-3.7-6.2-3.2-6.5c1.7-1,24.7-4.5,35.5-5.4C437.6,37.7,442.8,37.2,443.3,37.1z"/>
	<path id="path16" fill="#D2691E" d="M444.5,40.2c1.2,1.2-3.4,13.8-8.9,24.8c-3.5,6.9-6.1,13-5.9,13.7c0.2,0.6-0.5,1.6-1.5,2.2
		c-1.3,0.7-1.8,1.8-1.5,2.9c0.2,1-0.5,2.6-1.6,3.6c-1.6,1.5-1.8,2.2-0.9,3.3c0.9,1.1,0.4,2-2.4,4.3c-2,1.6-3.9,4.1-4.2,5.5
		c-1.2,4.7-2.2,2.5-3.4-7.7c-1.2-10.1-1.2-10.3,0.9-11.9c1.2-0.9,1.9-2.1,1.5-2.8c-0.4-0.6,0-1.4,0.8-1.7c1-0.4,1.6-1.8,1.6-3.8
		c0-2.6,1.5-4.6,9.5-12.6c5.3-5.2,10.9-11.9,12.6-14.9C442.8,42.2,444.3,40,444.5,40.2z"/>
	<path id="path18" fill="#CD853F" d="M303.4,42c1.7,0,1.4,5.4-0.5,7.6c-0.9,1.1-0.8,1.4,0.5,1.4c2.1,0,2.1,1.6,0,2.4
		c-1,0.4-1.3,1.3-0.9,2.5c0.3,1-0.1,2.3-1,3.1c-0.8,0.7-1.2,1.6-0.9,2.1c0.9,1.4-5.9,5-8.4,4.4c-1.2-0.3-3.5,0.1-5,0.9
		c-1.5,0.7-3.8,1.7-5.2,2.1c-2.2,0.7-2.3,0.6-1.1-0.9c1.7-2,0.7-2.1-2.4,0c-1.3,0.9-3.2,1.4-4.2,1.2c-1.2-0.2,0.3-1.9,5.7-6.1
		c8.3-6.5,8.5-7.4,0.5-2.2c-3,1.9-5.5,3.1-5.5,2.6c0-1.8,7.9-7.8,17.3-13.1c5.3-3,9.7-6.1,9.7-6.8C302,42.6,302.6,42,303.4,42z"/>
	<path id="path20" fill="#CD853F" d="M301,65.8c0,3.4-21.4,7.8-25.6,5.4c-1.5-0.9-0.7-1.2,4.1-1.2c3.6,0,8.6-1,12.5-2.4
		C299.3,65,301,64.6,301,65.8z"/>
	<path id="path22" fill="#CD853F" d="M439.5,77.3c0,11.5,0.5,10.1-13.2,34.3c-10.8,19.2-13.5,26.2-14.1,36.1
		c-0.2,4.6-0.8,8.3-1.2,8.3c-1.1,0-3.8-3.3-4.8-6c-1-2.6-1-2.6-2.7,2.6c-0.3,0.9-0.8,1.5-1,1.2c-0.3-0.3,0.2-2.4,1-4.8
		c1.9-5.5,1.9-7.3-0.2-3.5c-2.1,4.1-5.2,7.4-8.5,9.1c-4.5,2.3-3.3,0,3.8-7.7c7.5-8.2,11.7-15.1,13.9-22.6c0.9-2.9,3.9-9.2,6.9-14
		c9.3-15.3,10.8-18.7,10.5-23.8c-0.2-2.7,0.2-4.9,0.8-5.3c0.7-0.4,1.1-1.7,1.1-2.8c-0.1-1.1,1.1-4.7,2.6-7.8
		C438.3,62.7,439.5,64.3,439.5,77.3z"/>
	<path id="path24" fill="#CD853F" d="M301.7,68c3.3-0.1-1.8,12.9-5.9,15.1c-1.1,0.6-1.7,1.7-1.4,2.4c0.3,0.9-1.5,2.8-4.5,5
		c-2.8,2-7.2,5.5-9.7,7.8s-4.2,3.5-3.8,2.7c1.2-2.4-2.3,2.1-5,6.5l-2.5,4l0.4-5.5c0.8-11.2,8.1-21.5,23.4-32.3
		C297,70.6,301,68.1,301.7,68z"/>
	<path id="path26" fill="#CD853F" d="M272,73c0,0.5,0.8,0.7,1.8,0.3c0.9-0.3-0.8,2.1-3.8,5.4c-3,3.4-5.9,6.1-6.4,6.2
		c-0.5,0,0.1-1,1.3-2.3c1.3-1.4,2-2.9,1.6-3.5c-0.3-0.6,0.3-2.5,1.5-4.1C270.1,72,272,71.1,272,73z"/>
	<path id="path28" fill="#CD853F" d="M287,73.1l3.5-0.1l-3.5,2.7c-1.9,1.5-5.2,4.4-7.2,6.5c-2.1,2.1-4,3.8-4.3,3.8
		c-1,0,5.4-11.8,6.7-12.3C282.9,73.4,285.1,73.1,287,73.1z"/>
	<path id="path30" fill="#D2B48C" d="M355.9,83.1c-2.1,8.5-2.3,11.3-0.6,10.6c1.1-0.4,2,0.6,3.2,3.5c1.5,3.8,1.7,3.9,3.4,2.4
		c2.8-2.5,3.4-1.9,1,1.3c-3.3,4.4-1.4,5.9,2.6,2.1c4.2-4.1,6.5-3.1,3.3,1.3c-1.9,2.6-2.4,4.8-2.6,11.7c-0.3,5.8-0.8,8.9-1.8,9.6
		c-1.1,0.9,0.2,1.6,5.9,3.2c6.5,1.9,7.4,2,9.5,0.6c2.9-1.9,5.2-7.2,6.1-13.9l0.7-5l0.7,5.5c0.6,4.5,0.2,7.4-2.1,15.5l-2.8,10l-6,3.7
		c-7.2,4.3-22.2,9.8-26.8,9.8c-2.2,0-4.8-1.2-7.9-3.6l-4.7-3.7v-6.8c0-3.7-0.5-7.1-1.1-7.4c-1.2-0.8-4.9,2.2-4.9,3.9
		c0,0.6-0.4,1.7-0.9,2.5c-1.2,1.8-7.3-3.7-10.9-9.7c-2.3-4.1-2.4-4.7-1.4-9.4c0.7-2.7,1.2-6.4,1.2-8.1c0-2.2,0.3-2.8,0.9-1.8
		s1.3,1.1,2.9,0.2c2.9-1.5,3.4-1.4,7.7,1.5c2.8,1.9,4.1,2.2,4.9,1.4c1.7-1.7-5.6-8-9.3-8c-1.6,0-3.1,0.6-3.5,1.5
		c-0.3,0.8-1.4,1.5-2.4,1.5c-2.9,0-3.8-7.1-1.5-11.1c2.1-3.6,3.3-3.7,3.3-0.4c0,1.4,0.5,2.5,1,2.5c0.6,0,1-0.5,1-1.2
		c0-2.2,4.2-16.8,4.9-16.8c0.3,0,0.7,2.6,0.8,5.8c0,3.1,0.7,7.3,1.5,9.2l1.4,3.5l1.3-7.5c0.7-4.1,1.9-8.6,2.7-10l1.5-2.5l-0.4,2.9
		c-0.6,3.4,1.2,16.6,2.2,16.6c0.4,0,1.3-3.4,2-7.5c1.3-7.9,3.1-10.9,3.1-5.2c0,4,2.7,13.7,3.9,13.7c0.4,0,1.4-3.1,2.1-7
		c0.7-3.8,1.7-6.7,2.2-6.4c0.4,0.3,0.8-0.3,0.8-1.3s0.5-3.6,1.1-5.8C356.7,75.2,357.4,77.5,355.9,83.1z M341.7,133.7
		c-0.8,1.3,0.2,4.3,1.4,4.3c0.5,0,0.9-0.3,0.8-0.8C343.7,135,342.3,132.7,341.7,133.7z"/>
	<path id="path32" fill="#DAA520" d="M557,85.4c0,0.9,2,1.6,6.5,2.1c3.6,0.3,6.7,1,6.9,1.4c0.3,0.4-4.8,4.3-11.2,8.6
		c-13.4,9.2-22.5,17.8-26.4,25.1c-2.9,5.3-5.7,15.7-5.8,20.9c-0.1,5.5-1.1,5.9-7.3,2.9c-6.1-3-7.7-5.6-7.7-12.3s4.4-20.1,6.6-20.1
		c0.9,0,1.4-1.1,1.4-2.9c0-3.9,0.9-6.1,2.5-6.1c0.8,0,2.6-2.4,4.2-5.3c1.6-3,3.5-5.2,4.5-5.2c0.9,0,2.6-1.3,3.8-2.8
		c1.4-1.8,2.8-2.6,3.8-2.2c0.8,0.3,2.5-0.4,3.7-1.5c1.4-1.3,4-2.2,7-2.5c2.6-0.2,5-0.6,5.3-0.9C555.8,83.5,557,84,557,85.4z"/>
	<path id="path34" fill="#8B0000" d="M383.6,87.1c0.8,0.7,1.4,3,1.4,5.5v4.3l-3.5-2.1c-2.9-1.7-6.5-7-6.5-9.6
		C375,84.3,382.1,85.9,383.6,87.1z"/>
	<path id="path36" fill="#B22222" d="M373.4,86.9c2.4,2,2.7,5.1,0.5,5.1c-1.5,0-1.9-0.7-1.9-3.1C372,86.3,372.3,86,373.4,86.9z"/>
	<path id="path38" fill="#D2691E" d="M429,87.7c-0.1,1.8-1.8,3.5-2.4,2.4c-0.4-0.6-0.4-1.6-0.1-2.1C427.2,86.8,429,86.7,429,87.7z"
		/>
	<path id="path40" fill="#CD853F" d="M441.4,86.8l1.4,3.8c2.1,6.2,1,12.7-4.8,26.9c-3.9,9.7-5.3,14.4-5.3,18.4l-0.1,5.4l-1.4-3.4
		c-1.4-3.4-1.3-15,0.2-19.4c0.4-1.1-0.1-0.7-1,1c-2.7,4.5-2.5,17,0.4,21.9c1.2,2,1.8,3.6,1.4,3.6s-1.7-1.5-2.7-3.3
		c-1.6-2.5-2-5-2-11.9c0-4.7-0.3-8.4-0.6-8.2c-1.3,0.8-1.8,9.7-0.9,14c0.9,3.9,0.7,5-1.2,8.7l-2.3,4.2l-0.3-7.9
		c-0.4-11,2.9-22.1,12-39.8L441.4,86.8z"/>
	<path id="path42" fill="#8B0000" d="M388,89c1.3,2,1.3,10,0,10c-0.6,0-1-2.6-1-5.8C387,89.2,387.3,87.9,388,89z"/>
	<path id="path44" fill="#CD853F" d="M427,94.5c0,0.5-12.1,20.5-12.4,20.5c-1.1,0,1.5-9.3,3.2-11.5c1.2-1.5,2.2-3.3,2.2-4.1
		c0-0.7,1.2-2.2,2.8-3.3C425.4,94.1,427,93.5,427,94.5z"/>
	<path id="path46" fill="#F4A460" d="M376,98c3.9,0,3.9,1.5,0,1.6c-1.7,0.1-3-0.3-3-0.7C373,98.4,374.4,98,376,98z"/>
	<path id="path48" fill="#000080" d="M380.9,103.2c3.6,3.7,4.1,14.4,1,21c-1,2.3-3.7,4.4-4.4,3.6c-0.2-0.2,0.2-3.3,0.7-7.1
		c0.9-5.7,0.8-7.1-0.6-9.2c-2.8-4.2-6.9-2.7-9.6,3.5c-0.9,2.2-1,2-0.5-1.4c0.9-5.3,3.3-10,5.8-11.3
		C376.8,100.6,378.8,100.8,380.9,103.2z"/>
	<path id="path50" fill="#B22222" d="M316.5,108.9c1.1,8.3-0.2,13.8-4.4,17.6c-5.2,4.8-9.1,7.8-9.6,7.3c-0.3-0.2,1.3-3.2,3.5-6.5
		c4.1-6.3,8-16.5,8-20.8C314,102.1,315.8,103.8,316.5,108.9z"/>
	<path id="path52" fill="#00BFFF" d="M376.9,118.9c-0.1,6.2-0.2,6.3-0.9,2.3c-0.6-4.2-2.1-6.2-4.7-6.2c-2.3,0-1-3.3,1.7-4.2
		C375.9,109.8,377,112,376.9,118.9z"/>
	<path id="path54" fill="#B22222" d="M310.8,112.5c0.7,0.7-2.1,8.2-3.9,10.6c-1.5,1.8-1.3,0.8,0.8-4.3
		C309.3,115.2,310.6,112.3,310.8,112.5z"/>
	<path id="path56" fill="#00BFFF" d="M371.3,116.2c2.4,0.3,4.2,5.6,3.3,9.4c-0.6,2.1-0.9,2.2-3,1.3c-2.4-1.1-3.4-4.2-2.8-8.7
		C369.1,116.5,369.7,116,371.3,116.2z"/>
	<path id="path58" fill="#D2691E" d="M302.6,117.2c0.4,0.5-2,12.4-3.1,15c-0.4,1-1.2,1.8-1.7,1.8c-1.2,0-0.2-4.7,2.4-11.8
		C301.3,119.3,302.4,117,302.6,117.2z"/>
	<path id="path60" fill="#D2691E" d="M423.6,119.3c0.7,0.6-1.9,10.7-2.7,10.7c-0.8,0-0.4-2.3,1.3-7.8
		C422.7,120.4,423.4,119.1,423.6,119.3z"/>
	<path id="path62" fill="#800000" d="M496.7,127.3c4,0.2,7.9,0.9,8.6,1.5c1.6,1.4,7.2,14,6.5,14.7c-0.3,0.3-4.9-0.6-10.4-2
		c-9.7-2.6-13.4-4.5-13.4-7.1c0-0.7-0.4-1.6-1-1.9c-0.5-0.3-1,0.2-1,1.3c0,3,3.6,6,9.5,7.8c6,1.9,6.8,2.9,3,3.8
		c-2.7,0.7-8.5,6.2-12.6,11.9l-2.6,3.6l-2.8-7c-2.7-6.5-2.8-7.4-1.6-11.7c1.9-7.2,4.2-11.3,7.5-13.4
		C488.9,127.2,490.8,126.9,496.7,127.3z"/>
	<path id="path64" fill="#CD853F" d="M388,129c0.6,0,1,0.2,1,0.4c0,0.3-0.4,0.8-1,1.1c-0.5,0.3-1,0.1-1-0.4
		C387,129.5,387.5,129,388,129z"/>
	<path id="path66" fill="#B22222" d="M317.3,131.6c1.2,2-0.9,5.1-5.1,7.7c-8.5,5.2-9,4.6-2.3-2.2
		C314.7,132.1,316.7,130.7,317.3,131.6z"/>
	<path id="path68" fill="#B22222" d="M312.3,131c2,0-2.9,5.7-8.5,9.9c-1.6,1.2-1.8,1-1.8-1.6c0-2.5,0.8-3.4,4.8-5.6
		C309.4,132.2,311.9,131,312.3,131z"/>
	<path id="path70" fill="#D2691E" d="M418,133c1.2,1.8,1.2,6.8,0,9.5c-0.6,1.4-0.9,0-0.9-4.5C417,133.5,417.3,132,418,133z"/>
	<path id="path72" fill="#B22222" d="M320.2,134.8c0.9,0.9,0.6,2.3-1.2,5.9c-1.9,3.9-2.5,4.4-2.8,2.7c-0.2-1.2,0.4-3.9,1.3-6
		C318.7,134.5,319.3,133.9,320.2,134.8z"/>
	<path id="path74" fill="#C71585" d="M336,139.3c-0.1,4.8-2,9.3-7.9,18.4c-5.1,8.1-5.2,8.1-8.2,7.1c-1.6-0.5-2.9-1.1-2.9-1.3
		s2.5-3.8,5.5-8c3-4.3,6.9-10.6,8.6-14.1C334.3,134.7,336,133.9,336,139.3z"/>
	<path id="path76" fill="#CD853F" d="M386.7,135.4c0.5,0.5-3.7,11.5-4.6,12c-0.4,0.3,0.3-2.4,1.7-5.9
		C385.2,137.9,386.5,135.2,386.7,135.4z"/>
	<path id="path78" fill="#800000" d="M571.6,136c2.5,1,2.6,1.3,2.1,5.8c-0.7,5.8-4,14.9-7.2,19.5c-2,3.1-2.3,4.8-2.4,12.4
		c0,7.5,0.4,9.4,2.4,12.8c2.7,4.7,4,10.4,3,13.4c-1.2,4-8.1,6.6-17.5,6.6c-8.4,0-8.7-0.1-15.2-4.3c-3.6-2.4-9-6.8-11.8-9.8l-5.3-5.5
		l3.4-3.5c3.1-3.2,3.8-3.5,7.3-2.9c2.1,0.3,5.2,1.5,6.7,2.6c1.6,1.1,2.9,1.6,2.9,1c0-1.6-5.1-5.1-7.6-5.1c-3.1,0-4-1.7-2-3.9
		c0.9-1,1.6-2.5,1.6-3.4c0-1.1,0.8-1.7,2.1-1.7c2.3,0,8.9-6,8.9-8.1c0-0.7-1.8,0.4-3.9,2.5c-5.2,5.1-7.4,4.6-8.3-1.7
		c-0.3-2.6-1.6-6.4-2.8-8.5l-2.2-3.7l4.8-4.3c6.2-5.7,10.6-7.8,19.5-9.6C559,134.9,567.9,134.6,571.6,136z M560,175
		c-0.5,0-1.2,0.4-1.5,1c-0.3,0.5,0.3,1,1.5,1s1.8-0.5,1.5-1C561.2,175.4,560.5,175,560,175z"/>
	<path id="path80" fill="#CD853F" d="M396.5,137c0.2,0-0.5,2.7-1.7,6c-1.1,3.3-2.4,6-2.9,6c-1.5,0-1.1-1.8,1.6-7
		C394.9,139.2,396.2,137,396.5,137z"/>
	<path id="path82" fill="#B22222" d="M324,138.5c0.6,0.3,1,2.3,1,4.3c0,2.8-0.3,3.3-1,2.2c-0.5-0.8-1-2.8-1-4.3
		C323,139.1,323.4,138.1,324,138.5z"/>
	<path id="path84" fill="#D2691E" d="M415.1,146.1c-0.7,3.9-1,7.4-0.7,7.6c0.2,0.2,1.2-1.4,2.2-3.6c2-4.5,3-5.1,3.9-2.1
		c0.4,1.4-0.3,2.7-2.7,4.9c-1.8,1.6-3.7,2.7-4.2,2.4c-0.8-0.6-0.2-10,1-14.9C415.9,135.4,416.2,139,415.1,146.1z"/>
	<path id="path86" fill="#B22222" d="M327,141.5c0.6,0.3,1,1.2,1,2s-0.4,1.7-1,2c-0.6,0.4-1-0.5-1-2S326.4,141.1,327,141.5z"/>
	<path id="path88" fill="#DA70D6" d="M380.8,145.1c0.1,0-0.2,0.8-0.8,1.9c-1.3,2.4-10.7,7-14.1,7c-1.6-0.1,0.3-1.4,6.1-4.4
		C376.7,147.2,380.6,145.2,380.8,145.1z"/>
	<path id="path90" fill="#FF0000" d="M526.3,155.1c2.5,4,4.9,12.9,3.5,12.9c-0.2,0-3.3-1.2-6.9-2.6c-3.5-1.5-12.4-3.9-19.7-5.4
		c-7.3-1.6-13.5-3-13.7-3.2c-1.3-1.3,4-6.9,8.6-9.2C508.6,142.4,520.4,145.5,526.3,155.1z"/>
	<path id="path92" fill="#C0C0C0" d="M335.1,150c0.3,0,0.9,1.9,1.5,4.2c1.1,5.1,3.4,6.3,3.4,1.9c0-3.6,0.4-3.8,3.7-1.1
		c1.4,1.1,4.1,2,5.9,2c2.2,0,3.4,0.5,3.4,1.3s0.9,2.2,2,3.2s2,2.5,2,3.4s-0.9,2.2-2,2.9s-2,1.9-2,2.7c0,1-1,1.5-2.9,1.5
		c-5.4,0-10.9,5.2-18.6,17.6c-2.6,4.2-9,9.3-11.7,9.4c-1.9,0,13.1-18.7,17.4-21.7c2.6-1.9,4.8-4.1,4.8-4.9c0-2.2-4-3.7-8.4-3.1
		c-3,0.4-4.7,0.1-6.5-1.2l-2.4-1.8l4.9-8.1C332.3,153.7,334.8,150.1,335.1,150z"/>
	<path id="path94" fill="#DA70D6" d="M385,158.5c-2.6,2.7-1.7,3.5,1,1c1.6-1.4,1.8-1.4,2.3,0c0.4,0.9-0.2,2-1.6,2.9
		c-3.9,2.6-16.3,6.4-21.8,6.7c-5.4,0.4-5.4,0.4-5.7-2.6c-0.3-3-0.2-3.1,6.9-4.8c4-1,7.4-1.5,7.6-1.3c0.3,0.3-1.1,1.5-3.1,2.8
		s-3.6,2.7-3.6,3.1c0,0.5,0.3,0.6,0.8,0.4c0.4-0.3,4.7-3,9.6-6.1C386.6,154.8,389.1,154.1,385,158.5z"/>
	<path id="path96" fill="#FF0000" d="M490.4,160c9.6,0,31.6,5.7,37.8,9.8l2.7,1.8l-4.5,5.8c-2.9,3.6-6.1,6.5-8.7,7.7
		c-4.2,1.8-13.2,2.5-15.3,1.1c-2.2-1.5-7.4-12.6-6.4-13.6c1.8-1.8,1.1-4.4-1.5-5c-1.4-0.4-3.1-0.4-3.7,0c-0.7,0.4-0.8,0.3-0.4-0.4
		c1-1.6,4.8-1.5,7.2,0.3c1.8,1.4,1.8,1.5,0.1,4.7l-1.7,3.3l2.5-2.8c3.1-3.5,2.1-6-3-7.7c-6.3-2.1-8,1.4-5,10.1
		c1.5,4.4,1.5,4.4-0.4,2.1c-1.9-2.2-4.1-10.1-4.1-14.7C486,160.2,486.4,160,490.4,160z M494.7,162.1c-3.4,0-2.2,0.6,6.8,2.8
		c6.1,1.6,13.4,4,16.3,5.5c3,1.5,5.9,2.5,6.5,2.3c1.8-0.6-7.8-5.2-17.1-8.1C502.6,163.2,497,162,494.7,162.1z"/>
	<path id="path98" fill="#DA70D6" d="M392.7,163.7c0.7,1.9-14.8,9-22.3,10.2c-9.7,1.5-16.5-0.6-15-4.6c0.7-1.7,0.8-1.6,2.4,0.5
		s2,2.2,7.6,1.1c6.4-1.2,22.5-6.5,24.1-8C390.6,161.8,392.2,162.2,392.7,163.7z"/>
	<path id="path100" fill="#8B0000" d="M485,168.8c0.1,9.6,11.9,20.2,22.4,20.2h4.5l-1.7,2.9c-0.9,1.6-2.1,2.7-2.7,2.5
		c-0.5-0.2-1.9,1.1-3,2.8c-8,12.7-29.1,7.4-28.9-7.1c0-4.5,3.9-16.1,5.3-16.1c0.4,0,0.5,1.9,0.3,4.1c-0.3,2.9-0.1,4,0.7,3.5
		c1.3-0.9,1.5-11.5,0.2-14.9c-0.6-1.4-0.7-2.8-0.4-3.1C482.7,162.7,484.9,166.3,485,168.8z"/>
	<path id="path102" fill="#C71585" d="M323.8,168.3c5,2.3,5.8,3.6,4.2,6.6c-1.1,2.1-1.1,2.1-6.3-0.6c-6.8-3.7-6.7-3.6-6.7-2.6
		c0,0.5,2.5,2.2,5.5,3.8c5.6,3.1,6.5,4.7,4.2,8c-1.3,1.7-1.6,1.7-5.3-0.9c-4-2.7-5.4-3.2-5.4-1.8c0,0.5,1.6,1.7,3.5,2.8
		c4.3,2.3,4.4,3.9,0.4,8.7c-3.1,3.8-5.2,4.5-7.9,2.7c-1.3-0.9-1.3-1.1,0-2c0.8-0.5,2.2-0.7,3.1-0.5c0.9,0.3,2.2-0.2,3-1.1
		c1.3-1.6,1.1-1.7-1.4-1.2c-2.1,0.4-3.1,0-4.2-1.6c-1.5-2-1.5-2-1.5,0c0,1.1-0.5,2.5-1.1,3.1c-0.9,0.9-0.9,1.9,0,4.2
		c1,2.2,1,3.4,0.1,5c-0.7,1.4-0.7,2.1,0,2.1c0.6,0,1.3-1.4,1.7-3c0.5-2.6,1-3,3.8-3c2.9,0,3.9-0.8,8-6.5c2.5-3.6,5.1-8,5.7-9.8
		c1.3-3.6,3.7-7.8,5.3-8.9c1.3-1,5.9-1,6.8-0.1c0.4,0.3-1.8,2.9-4.9,5.6c-3,2.7-7.7,8.2-10.4,12.2c-5.5,8.2-9.7,12-18.2,16.5
		c-3.2,1.7-5.8,3.5-5.8,4.1c0,1.4,1.1,1.1,3.2-0.8c1.8-1.6,2.3-0.8,1.2,2.1c-0.3,0.9-1,1.4-1.4,1.1c-1.1-0.7-7,1.5-7,2.6
		c0,1.3,1.1,1.1,4.3-0.5c2.8-1.5,3.6-0.9,1.5,1.3c-1.1,1-1,1.1,0.5,0.6c1.4-0.6,1.7-0.1,1.7,3.6v4.2l-2.6-2.4
		c-2.2-2.1-2.7-2.2-3.4-0.8c-0.5,0.9-1.8,2.6-2.8,3.9l-1.8,2.3l-1.8-4.7c-1-2.5-2-4.6-2.4-4.6c-0.3,0-2.6,1.9-4.9,4.2l-4.3,4.2v-4.7
		c0-4.1-0.3-4.7-2.5-5.3c-1.4-0.3-2.5-1-2.5-1.4c0-0.5,2.3-2.7,5.2-5c4-3.1,5.3-4.9,5.6-7.3c0.2-1.7,0.8-3.9,1.3-4.9
		c1.5-2.7,22.9-30.1,24.6-31.5C313.6,164.8,317.9,165.6,323.8,168.3z"/>
	<path id="path104" fill="#7B68EE" d="M398.4,166c5.9,0,12.8,3.6,16.3,8.6c2.4,3.4,7.3,12.9,7.3,14.2c0,0.4-3.3,1.9-7.2,3.1
		c-8.7,2.8-13.5,5.1-16.7,8.2c-1.4,1.3-2.6,1.8-2.8,1.2c-0.2-0.5-1.1-1.9-1.9-2.9c-1.5-1.8-1.5-1.8-0.9,0.1c0.4,1.1,0.9,2.9,1.2,4
		c0.4,2,0.4,2-1.1,0.1c-0.9-1.1-1.9-1.7-2.2-1.3c-0.4,0.4-0.1,1.3,0.5,2.1c0.7,0.8,1,2.4,0.7,3.4c-0.4,1.1,0,2.4,0.9,3.2
		c1.2,1,1.4,2.5,0.9,7.4l-0.6,6.2l6.2,5.7c3.4,3.2,6.1,6,5.9,6.2s-4.5-1-9.6-2.6c-8.6-2.8-9.2-3.2-10.3-6.4c-0.7-2-3.1-5.1-6-7.5
		c-2.7-2.3-5.2-5-5.5-6.1c-0.4-1-1-1.7-1.5-1.4s-1.8-0.4-2.9-1.6c-1.1-1.2-3.2-2.3-4.6-2.5c-1.5-0.1-4.9-0.8-7.7-1.4
		c-6.4-1.6-12.6-0.9-18.7,2.2l-4.9,2.4l-2.2-3.4l-2.3-3.3l3.5-2.9c4.2-3.5,11.2-13.4,10.6-15.1c-0.2-0.7-1.9,1.1-3.7,4
		c-3.1,5.1-3.3,5.2-5.1,3.6s-1.8-1.8,1.3-6.8c6.5-10.6,13.1-15,19-12.8c3.1,1.2,3.6,3.1,0.8,3.1c-4.5,0-10.8,8.1-9.5,12.3
		c0.9,3.1,3.4,5.7,5.5,5.7c2.7,0,7.8-4.8,8.7-8.3c0.5-1.8,0.5-4.5,0.1-6.1c-1-3.5-0.7-3.9,2.9-4.3c9.5-1.2,13.9-2,15.1-2.7
		c1.1-0.7,1.3-0.5,0.8,0.7c-0.7,1.8,0.8,2.4,1.8,0.8c0.3-0.5,3.3-2.8,6.6-5C392.3,166.6,394,166,398.4,166z"/>
	<path id="path106" fill="#DDA0DD" d="M490.9,170.5c1.3,0.8,3.4,7.3,2.8,8.8c-0.3,0.6-0.6,0.3-0.6-0.8c-0.1-1.1-0.8-3.3-1.6-4.9
		c-0.8-1.5-1.5-3-1.5-3.3C490,170.1,490.4,170.1,490.9,170.5z"/>
	<path id="path108" fill="#800000" d="M479.7,172c0.1,0-1.1,2.5-2.8,5.6c-3.6,7-4.1,16-0.9,21.1c4.2,6.9,16.7,9.6,24,5.2
		c4.3-2.6,10.3-8.8,12.4-12.6c3.2-5.8,1.4,0.1-4.8,15.9c-3.5,8.9-6.7,17.8-7.1,19.5c-1.4,6.9-9.9,2.8-14.3-7c-2.1-4.6-3.9-7-6.4-8.5
		c-3.4-2.1-4.7-4.2-6.4-10.2c-0.4-1.4-2.2-3.9-4.1-5.5c-1.9-1.7-3.6-4.4-3.9-6.2c-0.6-2.9,0-3.7,6.7-10.2
		C476.2,175.2,479.6,172,479.7,172z"/>
	<path id="path110" fill="#800000" d="M566.2,175l3.7,2.2c9.4,5.6,14.4,9.3,17.1,12.6l2.9,3.5l-2,2.8c-3.2,4.5-8.9,8.7-16.6,12.4
		c-6.7,3.3-11.3,7.3-11.3,10c0,0.7-1.9,2-4.3,2.9c-2.4,0.9-6.7,3.7-9.7,6.2c-2.9,2.4-6.6,5.2-8.2,6c-4.2,2.2-14.7,3.7-16.3,2.4
		c-3.3-2.8-4.8-20.4-3.1-38.2l0.8-8.7l7.7,7.7c5.5,5.4,8.3,9.1,9.6,12.4c1,2.7,2.2,4.8,2.6,4.8c1.2,0,1.1-0.5-0.6-4.7
		c-0.8-2-1.3-3.8-1.1-4c0.2-0.3,1.9,0.4,3.8,1.4c2.5,1.3,5.2,1.7,11,1.6c9.7-0.2,15.9-2.7,18.3-7.4c2-3.7,1.2-7.6-3.1-16.2
		c-1.6-3.1-2.2-5.5-1.8-7.2L566.2,175z"/>
	<path id="path112" fill="#4169E1" d="M357,182c0,3.5-4.4,9-7.3,9c-1.1,0-1.7-0.3-1.4-0.7c0.4-0.3,0.2-1.2-0.4-2
		c-0.9-1-0.8-1.8,0.5-3.1c0.9-1,1.3-2.1,1-2.5c-0.3-0.3,0.9-1.5,2.7-2.6C356,177.7,357,178.1,357,182z"/>
	<path id="path114" fill="#DDA0DD" d="M497.6,182.2c1.4,2.8,1.5,3.1,0.2,2c-0.9-0.7-1.8-2.2-2.1-3.2
		C494.9,178.1,495.7,178.6,497.6,182.2z"/>
	<path id="path116" fill="#4169E1" d="M358.6,184.2c1,1-2.5,6.7-4.9,7.9c-1.8,1-1.6,0.5,1.1-2.5c1.7-2,3.2-4.2,3.2-4.8
		C358,184.2,358.3,183.9,358.6,184.2z"/>
	<path id="path118" fill="#8B0000" d="M517.2,188c0.6,0,0.8,1,0.4,2.2c-0.3,1.3-0.6,3.6-0.6,5.3c-0.1,3-0.1,3-1.1,0.6
		c-0.5-1.4-0.7-3.7-0.4-5.3C515.9,189.3,516.6,188,517.2,188z"/>
	<path id="path120" fill="#DDA0DD" d="M285.2,190.6c0.9,0.6,1.1,5.5,0.2,7.8c-1,2.6-2.4,1.8-2.4-1.4c0-1.7-0.5-3-1.1-3
		c-1.1,0-1,0.7,0.6,8.5l0.6,3l-3-3.3c-1.7-1.8-3.1-3.9-3.1-4.6c0-0.8,1.7-2.8,3.7-4.5C282.7,191.5,284.7,190.3,285.2,190.6z"/>
	<path id="path122" fill="#4169E1" d="M426,191.9c0,1.9-3.4,3.5-7.1,3.3c-3.8-0.3-8.8,1.6-12.2,4.6c-1,0.9-3.3,2.1-5,2.7
		c-1.7,0.5-4.2,2.5-5.4,4.4c-2.2,3.2-2.3,3.3-2.3,1c0-3.6,7.7-9.1,18.6-13.3C421.4,191.1,426,190.2,426,191.9z"/>
	<path id="path124" fill="#4169E1" d="M332.9,195.4c1.8,2.2-0.9,3.8-3.4,2c-1.7-1.3-1.8-1.6-0.5-2.4
		C331,193.7,331.6,193.8,332.9,195.4z"/>
	<path id="path126" fill="#7B68EE" d="M427.6,194c0.7,0,4.1,2.7,7.5,5.9c5.7,5.5,6.1,6.2,5.6,9.3c-1,6.4-2.5,8.8-5.2,8.8
		c-1.8,0-2.8,0.7-3.5,2.6c-0.9,2.4-1.5,2.6-5.5,2.2c-3.4-0.2-4.4,0-4.2,1.1c0.3,2.1-4.7,5.4-7.1,4.7c-1.5-0.5-1.9-1.2-1.5-2.4
		c0.6-1.5,0.4-1.5-1-0.4c-0.8,0.8-1.7,2.6-1.9,4c-0.5,4.5-4,4-10.4-1.5l-5.5-4.8l0.5-5.7c0.8-8.1,2.8-12.6,6.2-13.4
		c1.9-0.5,3-0.2,3.9,1c1.7,2.3,2.6,2,1.9-0.8c-0.4-1.8,0.2-2.9,2.7-5.1c2.9-2.3,4-2.7,8.1-2.3c3.8,0.4,5.1,0.1,6.4-1.3
		C425.6,194.8,426.9,194,427.6,194z"/>
	<path id="path128" fill="#C0C0C0" d="M328.4,199.3c1.5,1.1,1.5,1.5,0.4,2.4c-0.7,0.6-2.6,1.3-4.3,1.5c-2.5,0.2-3.5,1.2-5.5,5.2
		c-3.2,6.4-5,7-5,1.9c0-4.9,2.2-8,7.4-10.3C326.5,197.7,326.2,197.7,328.4,199.3z"/>
	<path id="path130" fill="#DDA0DD" d="M278,202.5c1.2,1.3,1.2,1.7-0.2,3.1c-0.8,0.9-2.7,1.7-4.2,1.7c-1.4,0.1-2.6,0.5-2.6,0.9
		c0,1.4,4.5,0.8,6.8-0.8c1.3-0.9,2.5-1.4,2.8-1.1c0.5,0.5-8.9,8.7-10,8.7c-0.7,0-3.6-5.5-3.6-6.9c0-0.6,2.1-2.4,4.8-4.1
		C275.9,201.4,276.7,201.3,278,202.5z"/>
	<path id="path132" fill="#DDA0DD" d="M312.5,204c0,0,0,3,0,6.7c0,3.8-0.6,7.8-1.3,9c-0.6,1.2-1.2,3.6-1.2,5.4
		c0,2.8-2.4,6.7-8.2,13.3c-0.4,0.6-0.8-2.3-0.8-6.4c0-5.8,0.3-7.1,1.2-6.2c1.9,1.9,2.8,1.4,2.8-1.7c0-4.6,0.8-5.9,3.6-5.3
		c2.9,0.5,2.9,0.2,0.4-4.8c-2.7-5.2-2.5-6.7,0.8-8.4C311.3,204.8,312.5,204.1,312.5,204z"/>
	<path id="path134" fill="#7B68EE" d="M324.9,205.1c1.6-0.1,8.1,6.5,8.1,8.1c0,0.7,1,0.2,2.3-0.9c3.8-3.5,8.9-5.6,13.6-5.4
		c6.7,0.1,15.1,1.9,17.9,3.7c3.7,2.5,17.2,16.1,17.2,17.4c0,0.7-3.7-2.1-8.2-6.2c-10.8-9.7-13.5-11.5-19.2-12.8
		c-3.9-0.8-5.6-0.7-10.9,1.1c-3.4,1.1-7.7,2.9-9.6,4c-3.3,2-3.5,2-4.5,0.2c-2.1-3.8-6.6-7.5-8.6-7c-2.2,0.6-2.8-0.8-0.7-1.6
		C322.9,205.4,324.1,205.1,324.9,205.1z"/>
	<path id="path136" fill="#00BFFF" d="M328.3,212.3c1.3,1.5,1.7,3,1.3,5.2c-1.3,6.3-1.8,13.5-1.2,16.7c0.3,1.8,3.3,8.1,6.6,13.8
		c3.3,5.8,6.7,12.9,7.6,15.9c0.8,3,4.3,10.9,7.7,17.5c4.7,9.1,6.2,13.2,6.3,16.6c0.1,2.5,0.5,7,0.9,10l0.7,5.5l-8,11.5
		c-8.2,11.6-14.9,22.5-20.9,33.5c-4.2,7.8-4.1,6,0.3-7.8c4.4-13.6,10.3-26.4,17.3-37.5c4-6.4,5-8.8,4.5-10.5
		c-0.4-1.2-0.7-3.2-0.5-4.4c0.3-2.6-0.9-4.9-8.2-16.6c-5.5-8.7-11.7-22.1-11.7-25.2c0-0.9-3.4-5.2-7.5-9.5
		c-8.5-8.9-11.4-14.3-11.5-21.1c0-4.8,1.2-7,7.4-13.7C322.7,208.6,325.2,208.6,328.3,212.3z"/>
	<path id="path138" fill="#00BFFF" d="M351.2,210.1c0.4-0.1-1,3.2-3.2,7.1c-3,5.4-4,8.5-4,11.8c0,5.9,3.7,13.7,9.3,19.7
		c3.8,4.1,4.6,5.8,5.5,11.1c0.7,3.6,3.7,11.9,7.2,19.6c4.8,10.7,5.9,14,5.4,16.5c-0.4,1.9-0.2,3.7,0.6,4.6c0.9,1.1,1.2,5.5,1.1,15.5
		c-0.2,16.1,3.4,46,7.5,61.7c3,11.7,3,13.4-0.1,6c-9.7-23.5-20.5-63.2-20.5-75.6c0-2.8-0.5-5.3-1.1-5.7c-0.6-0.4-0.8-2-0.5-4
		c0.6-2.7-0.3-5.3-5.2-15.1c-3.3-6.5-6.9-14.5-8.2-17.8c-1.2-3.3-2.7-7.3-3.3-8.8c-0.5-1.6-2.8-5.6-5-9s-4.6-7.9-5.3-10.1
		c-1.4-4-1.8-12.4-0.8-16.3c0.8-2.8,7.4-7.2,14.4-9.4C348,210.9,350.8,210.1,351.2,210.1z"/>
	<path id="path140" fill="#1E90FF" d="M361.5,212.5c1.7,0.7,8,5.6,14,10.9c12.9,11.4,12.4,9.8,12.4,33.4c0.1,15.3,0.2,16.6,2.5,20.5
		c1.3,2.3,2.7,6.3,3,8.8c0.5,3.3,1.3,4.9,2.8,5.6c1.9,0.8,1.7,1.1-2.2,3.7c-5,3.3-4.6,4.8,0.4,1.8l3.6-2.1l3.8,2.5l3.9,2.6l-2.3,5.6
		c-1.2,3.2-3,9.3-3.9,13.7s-2.2,10.5-3,13.5c-3.9,15.8-9.4,60.4-7.8,63.2c0.2,0.5,0.1,0.8-0.4,0.8c-1.2,0-4.9-12.8-7.7-27
		c-3.7-18.3-5.7-37.4-5.5-53.7c0-9.9-0.3-14.8-1.1-15.8c-0.7-0.8-1-2.9-0.8-4.7c0.4-2.4-1.1-6.7-5.9-17.6c-4.3-9.6-6.7-16.3-7-19.9
		c-0.5-4.8-1.2-6-5.3-10.3c-5.6-5.8-7.9-10.3-8.7-17c-0.6-5.5,0.4-8.9,5-16.3C354.5,209.6,354.6,209.6,361.5,212.5z"/>
	<path id="path142" fill="#DDA0DD" d="M306.5,212.2c0.1,0.2,0.8,1.4,1.5,2.6c1.1,2.2,1,2.3-1.2,1.7c-3.1-1-3.3-1.2-1.8-3
		C305.7,212.6,306.4,212.1,306.5,212.2z"/>
	<path id="path144" fill="#DDA0DD" d="M275.7,217.8c0.9,0.6,0.1,2.2-2.8,5.7c-2.3,2.8-4.3,5.2-4.5,5.4s-1.1-0.2-1.9-0.9
		c-1.2-1-2.1-1-4-0.2c-3.7,1.7-3,0.3,2.7-5.5C270.2,217.2,273,216.1,275.7,217.8z"/>
	<path id="path146" fill="#4169E1" d="M436.6,220c3.7,0,2.9,2.8-1.3,4.7c-12.4,5.5-17.1,7.8-19.2,9.5c-1.3,1-3.4,1.8-4.7,1.8H409
		l2-2c1.1-1.1,2-2.5,2-3c0-0.6,1.5-1,3.4-1c2.2,0,4.5-0.9,6.4-2.5c1.7-1.4,4.2-2.5,5.6-2.5c1.6,0,3.1-0.9,4.2-2.5
		C433.6,221,435.2,220,436.6,220z"/>
	<path id="path148" fill="#CD853F" d="M288.3,221.3c0.6,0.2,1.7,2.2,2.6,4.5c0.8,2.3,1.9,4.2,2.3,4.2s1.9-1.7,3.3-3.7l2.5-3.8v11.1
		c0,7.4,0.5,12.6,1.5,15.4c2.1,6,1.9,10.7-1,16.7c-1.3,2.9-2,5.3-1.6,5.3c1.2,0,6.1-11.4,6.1-14.1c0-1.3-0.7-4.9-1.5-7.9
		s-1.5-5.8-1.5-6.2c0-0.3,2.1-3.1,4.6-6.2l4.5-5.6l2.7,5c1.5,2.7,4.9,7.2,7.6,10l4.9,5.1l-2,2.2c-33,37.1-31.5,35.6-37.4,35.7
		c-4.6,0-5.9-1.5-10.5-12.5c-4.7-11.3-4.7-16.5-0.5-32.7c1.7-6.4,3.1-12,3.1-12.3s2.1-2.8,4.7-5.6
		C285.2,223.2,287.8,221.1,288.3,221.3z"/>
	<path id="path150" fill="#CD853F" d="M435.4,227.4c0.5,0.1,6.1,10.3,12.5,22.6c6.4,12.4,12.6,24.1,13.9,26c4.4,7,4.6,10.9,2.8,52.7
		c-0.9,21.3-1.8,41.7-2.1,45.3c-0.3,3.6-0.5,7.9-0.5,9.7c0,1.9-1,4.3-2.4,6l-2.4,2.8l-1.3-2.8c-1.6-3.6-2.5-3.4-5,0.8
		c-1.2,1.9-2.4,3.5-2.7,3.5c-0.4,0-1.9-1-3.4-2.3c-2.6-2.1-2.7-2.7-4.2-21.2c-1.4-17-3-49.8-3.9-79.5l-0.3-10.5l-11.7-20.7
		c-6.4-11.4-11.7-20.9-11.7-21.2c0-0.8,9.7-6.6,11.2-6.6c0.8,0,3.5-1.1,5.9-2.4C432.5,228.2,434.9,227.3,435.4,227.4z"/>
	<path id="path152" fill="#DAA520" d="M545.1,231c0.9,0,5.8,15,7,22c1.6,9.3,1.4,34-0.5,42.8c-1.4,6.8-6.2,19.2-7.4,19.2
		c-0.9,0-13.2-8.2-13.2-8.8c0-0.3,1.2-3.4,2.6-7c3.1-7.7,5.4-19.4,5.4-27.2c0-7-2.3-19.7-5-27.6c-2.5-7.2-2.5-7.1,0.8-7.9
		c1.6-0.3,4.4-1.7,6.3-3C543,232.2,544.8,231.1,545.1,231z"/>
	<path id="path154" fill="#4169E1" d="M389.6,233.4c3.5,1.3,10.5,2.9,15.3,3.5c7.4,0.8,7.8,2.2,3.4,14.6c-4.1,11.8-4.5,18-1.5,24.7
		c1.7,3.7,2.6,4.7,4.9,5c2.2,0.2,2.9,0.9,3.4,3.3c0.4,1.6,0.8,2.4,0.9,1.7c0.1-0.6,0.4-1.7,0.5-2.2c0.1-0.6,0.3-1.4,0.4-1.9
		c0.2-1.4,15.1-4.5,16.3-3.3c0.5,0.5,1.2,4,1.5,7.9l0.6,7l-8.4,0.6c-4.6,0.3-9.2,0.9-10.3,1.3c-1.6,0.6-1.7,0.4-1.1-1.7
		c0.7-2.1,0.3-2-3.4,1.4c-2.2,2-4.4,3.7-4.7,3.7c-1.6,0-6.4-3.6-6.4-4.8c0-0.8,2.3-3.4,5-5.9c6.4-5.8,5.7-6.9-0.8-1.4
		c-2.8,2.2-5.6,4.1-6.4,4.1c-2.3,0-3.8-2.2-3.8-5.6c0-1.7-1.1-5.2-2.5-7.8c-2.3-4.3-2.5-5.8-2.6-17.4c0-7-0.4-16-0.8-20
		C388.6,234.6,388.7,233.1,389.6,233.4z M402,280.6c-2.4,2.1-2.8,2.9-1.9,4s1.6,1.1,4.1-0.2c3.7-1.9,3.1-2.9-0.8-1.4l-2.9,1.1l2.9-3
		C407,277.3,406.3,277.1,402,280.6z"/>
	<path id="path156" fill="none" d="M420.1,255.1c3.9,6.8,8.1,14.2,9.4,16.5l2.4,4.1l-8.2,2.2c-10.8,2.8-13.6,2.1-15.9-4
		c-2.8-7.2-2.1-11.1,4.7-29.8C412.9,243.2,416,247.8,420.1,255.1z"/>
	<path id="path158" fill="#4169E1" d="M469.1,279.6c5.1,0.9,17.5,5.3,25.4,8.9c24,10.9,63.9,37.8,83,55.9c6.8,6.5,6.4,6.3-5.6-1.6
		c-10.2-6.8-27.9-16.1-40.6-21.4c-6.9-2.9-9.3-4.3-9.5-5.9c-0.5-3.1-7.7-6.1-17.6-7.5c-4.8-0.6-13-2.4-18.2-4s-11.4-3.4-13.6-4.1
		l-4.1-1.1l-0.6-7.7c-0.3-4.2-0.9-8.6-1.3-9.8C465.8,279.2,466,279,469.1,279.6z"/>
	<path id="path160" fill="#4169E1" d="M431.5,296.4l3,0.1l0.7,17c0.3,9.3,1.2,23.4,1.8,31.3c0.7,7.8,1,14.6,0.6,14.9
		c-1.6,1.6-9.2-5.6-13.4-12.7c-6-10.2-9.9-14.7-17.1-20c-3.3-2.4-6.1-5.1-6.1-5.8c0-1.3,4-15.3,4.5-16c0.7-0.9,12.6,4.3,18.2,7.9
		c6.7,4.4,9.7,4.8,4.1,0.6c-3.8-2.9-17.6-9.7-19.6-9.7s-1-2.1,2.1-4.4c1.9-1.4,5.1-2.2,10.5-2.7C425,296.6,429.9,296.3,431.5,296.4z
		"/>
	<path id="path162" fill="#4169E1" d="M468.3,301c1.9,0,15.8,3.8,16.5,4.5c0.3,0.3-2,0.3-5.1-0.1c-4-0.5-5.7-0.3-5.7,0.5
		c0,0.6,1.2,1.1,2.8,1.1c9.7,0.1,32.4,3.1,37.5,5l5.7,2.1v9.7c0,17.7-5.8,30.2-13.8,30.2c-3.9,0-7.7,2.7-11.3,7.9
		c-1.9,2.8-3.7,5.1-4,5.1c-1.3,0,1.2-8.5,3.7-12.7c1.3-2.3,3.6-5.1,5.1-6.2c1.4-1.2,2.4-2.4,2.1-2.7c-1-0.9-6.8,4.7-9.2,9
		c-1.5,2.6-3.4,9.1-5.1,17.6c-3.1,16.3-3.6,17.5-7.6,19.5l-3.1,1.7l0.6-2.9c0.6-2.6,0-3.6-6.3-9.5l-6.9-6.6l0.4-8.4
		c0.2-4.5,0.9-17.1,1.4-28c0.6-10.8,1-23.5,1-28.2C467,303.4,467.3,301,468.3,301z"/>
	<path id="path164" fill="#1E90FF" d="M358.3,316.6l3.8,15.4l3.7,15.3L362,358c-2.1,5.9-4.3,14.1-4.9,18.4c-1.3,9.3-1.3,8.6-0.3,8.6
		c0.5,0,1.4-3.9,2.1-8.6c1.1-7.9,5.2-21.8,7.1-23.7c0.4-0.5,1.5,1.1,2.4,3.5c11.2,30.7,13.6,36.3,14.8,34.6c0.6-0.9,0.8-0.7,0.4,0.8
		c-0.4,1.3,0.5,4.1,2.3,7.4l2.9,5.3l0.6-4.4c0.3-2.4,0.8-8.5,1.1-13.4c0.7-10.2,3.3-33.2,4.1-35.5c0.8-2.2,4.1,4.6,5.9,12.2
		s1.8,14,0.1,23.6c-0.8,4.8-0.9,7.1-0.2,6.9c1.7-0.6,2.8-7.6,2.9-18.7c0.1-9.2-0.3-11.4-2.7-18c-1.5-4.1-3.2-7.9-3.7-8.5
		c-1.3-1.3-1.1-5.7,0.5-12.8c0.8-3.4,1.7-7.4,2.1-9c0.5-2.3,0.8-2.6,2.5-1.7c4.5,2.4,14.3,12.7,19,20.1c2.9,4.4,4.9,8.3,4.7,8.6
		c-0.3,0.2-2.6-0.7-5.1-2.2s-5.1-2.5-5.8-2.3c-0.9,0.3,8.8,6,20.9,12c2.6,1.3,3,2.9,3.8,17.1c0.6,8.8,0.4,10.7-0.7,10.5
		c-1-0.2-1.3,1.1-1.3,4.9c0.1,4.8-0.1,5.2-2.3,5.5c-2.4,0.3-2.4,0.4,1.7,5.8c5.6,7.4,5.5,9.6-0.6,10.5c-6.7,1-9.2,2.6-14.8,9.1
		c-2.9,3.3-6.6,6.5-9,7.5c-5.6,2.5-17.2,4.4-21.5,3.6c-1.9-0.4-8.7-3.6-15-7.2c-7-3.9-13.2-6.7-16-7.1l-4.5-0.7l3-1.3
		c1.7-0.7,5.6-1.6,8.8-2c3.1-0.3,5.7-1.1,5.7-1.6s-1.6-0.6-3.5-0.3c-1.9,0.3-5.2,0.8-7.2,1.1c-2.1,0.3-7.4,2.2-11.8,4.2
		c-6.9,3.1-9,3.5-15.5,3.5c-9.5,0-15.1-1.5-21.7-5.9c-5.9-3.8-14.3-13.8-14.3-16.9c0-2.7,7.2-13.6,11.5-17.4
		c1.9-1.6,11-8.4,20.3-14.9c10.8-7.7,17.8-13.4,19.5-16c3.3-4.7,6-12.9,4.6-13.7c-0.5-0.4-0.9,0.3-0.9,1.5c0,3.5-2.6,8.5-6.6,13
		c-4,4.4-21.4,16.7-21.4,15.2c0-3,18.6-34,28.2-46.9L358.3,316.6z"/>
	<path id="path166" fill="#DAA520" d="M522.9,320c1.6,0,13.1,5.2,13.1,5.9c0,1-8,8.4-11.9,11.1l-3.4,2.4l0.6-5.5
		c0.4-3,0.7-7.3,0.7-9.7C522,321.9,522.4,320,522.9,320z"/>
	<path id="path168" fill="#1E90FF" d="M328.1,347c0.4,0-0.6,4.6-2.2,10.2c-1.6,5.7-2.9,11.2-2.9,12.2s-1.9,3.5-4.2,5.5
		c-2.3,2-6.8,6.1-10,9.1l-5.9,5.4l-3.6-1.9c-5.2-2.8-6.7-5.6-5.9-11c1.3-10.2,5-14.2,19.1-21c6.1-2.9,11.9-6,13-6.8
		C326.6,347.8,327.8,347,328.1,347z"/>
	<path id="path170" fill="#00BFFF" d="M465.8,378.1c4.1,3.1,10.2,9.4,10.2,10.6c0,1.1-4.8,4.3-6.5,4.3c-0.4,0-0.4-2.3,0-5.1l0.7-5.1
		l-3.1,1.6l-3.1,1.7v-4.7C464,377.1,464.1,376.9,465.8,378.1z"/>
	<path id="path172" fill="#C71585" d="M467.8,386c0.1,0,0,2.3-0.4,5l-0.7,5.1l2.7-1.1c1.5-0.5,3.2-1,3.7-1c0.8,0-0.9,3.2-3.8,6.9
		c-0.1,0.2-0.9-0.2-1.8-0.9c-1.7-1.5-1.9-0.7-0.5,2.1c1,1.8,0.7,1.9-5.5,1.9c-4.2,0-6.4,0.4-6,1c0.3,0.5,3.2,1,6.3,1h5.7l7.9,10.7
		c4.3,5.8,7.9,11.5,8.1,12.7c0.1,1.1,1,6.9,1.9,12.8c2.2,14.3,1.1,16.6-2.4,4.9c-1.5-5.1-3-9.5-3.4-9.8c-1.6-1.6-0.1,4.6,4.9,19.7
		c4.7,14.4,5.7,18.6,4.1,16.9c-2-2.1-16.6-26.7-16.6-28c0-1-0.4-2.1-1-2.4s-1,0.4-1,1.7c0,2.2,7.8,15.9,15.1,26.5
		c3.5,5,3.5,5.3,0.7,5.3c-4.2,0-7.7-3.6-21.4-21.8c-7.5-10.1-13.8-18.1-14.1-17.9c-0.2,0.2,0.1,1.6,0.6,3c2.1,5.4-2.4,22.2-5.9,22.2
		c-1.6,0-1.6,0.1-0.4-14c0.4-5.1,0.1-8.6-1-12.5c-1.6-5.3-2.2-19.3-1-22.4c0.5-1.3,0.9-1.4,2-0.5c2.8,2.3,1.3-0.8-1.7-3.7
		c-1.7-1.6-4-4.2-5.2-5.8l-2.1-2.9l2.2,0.5c2.5,0.7,2.6,0,1-5.3c-0.6-2.2-0.9-4.2-0.5-4.5c1-1,4.7,0.7,8.2,3.7l3.3,2.9l1.4-4.1
		c1.6-4.9,3-5.2,4.2-1c1.1,3.8,1.7,3.9,3.8,0.1c0.9-1.6,3.2-3.9,5-5C466,386.9,467.6,386,467.8,386z M459.1,400
		c-2.3,0-4.1,0.4-4.1,1c0,0.5,1.5,1,3.4,1s3.8-0.5,4.1-1C462.9,400.4,461.5,400,459.1,400z"/>
	<path id="path174" fill="#CD853F" d="M436.8,417c3,0,3.2,0.2,3.2,3.4c0,1.9-2,9.7-4.4,17.3c-24.9,77.4-24.7,76.6-25.7,95.6
		c-0.4,8.9-0.8,20.8-0.9,26.4c0,9.9-0.1,10.4-2.9,13.5l-2.9,3.3l-13.8,0.3c-8.9,0.2-15.3-0.1-18.2-0.9l-4.4-1.2l0.6-4.6
		c0.3-2.5,1.2-8.9,2.1-14.1c0.8-5.4,1.5-16.2,1.5-25.1c0-21.4,3.6-61.5,8.1-89.7c1.3-8,0.8-7.7,8.4-4.8c5.2,2,9.6,2,17,0.1
		c9.3-2.4,14.2-5.3,18.1-10.4c1.9-2.5,5.2-5.6,7.2-6.8C431.8,418,435,417,436.8,417z"/>
	<path id="path176" fill="#CD853F" d="M369.6,427c4.6,2.3,8.4,4.6,8.4,5.1s-1.5,0.9-3.2,0.9c-1.8,0.1-6,0.2-9.3,0.4
		c-5.4,0.3-13.2-1.7-24.5-6c-0.9-0.4,0.7-1.5,4.5-3C353.8,421.1,359,421.6,369.6,427z"/>
	<path id="path178" fill="#00FA9A" d="M331.7,426.6c2.1,0.4,8.8,2.4,14.8,4.6c10.1,3.5,11.8,3.8,20.8,3.7c5.4-0.1,10.1,0.1,10.4,0.4
		c0.3,0.4,0.3,1.2,0,2c-1.2,3.2-19.7,2.4-28.9-1.2c-1.3-0.5-5-1.5-8.3-2.2c-6.8-1.4-9.9-3-11.5-6C327.9,426,328.1,425.9,331.7,426.6
		z"/>
	<path id="path180" fill="#FF1493" d="M488,432.8c3.3,3.5,3.6,5.2,1.6,9.7l-1.2,3l-1.7-6.7c-0.9-3.7-1.7-7.3-1.7-8
		C485,430.1,486.4,431,488,432.8z"/>
	<path id="path182" fill="#CD853F" d="M334.7,434.1c1.5,0.6,5.6,1.7,9,2.5c3.5,0.8,9.3,2.1,13.1,3c3.7,0.8,9.3,1.4,12.5,1.2
		c3.1-0.2,5.7-0.1,5.7,0.2c0,1.2-6.2,18.6-6.9,19.2c-0.4,0.5-4.5,0.8-9.1,0.8c-11.3,0.1-11.9,0-16.6-1.7c-2.2-0.8-4.4-1.3-5-1.1
		c-1.4,0.4-8.9-2.9-10.3-4.6s-1.2-5.5,0.9-15.4C329.2,432.7,329.9,432.3,334.7,434.1z"/>
	<path id="path184" fill="none" d="M376.6,444.3c0.2,0.2-0.7,8.9-2,19.3c-1.4,10.4-3,24.1-3.6,30.4c-0.7,6.3-1.4,11.7-1.6,11.9
		c-0.7,0.8-3.3-3.2-5-7.8c-1.7-4.2-1.7-4.8,0.6-16.3c1.9-10.1,2.7-12.5,5.1-14.9c3.5-3.5,4.3-6.2,2.9-9c-0.9-1.7-0.7-3.3,1-8
		C375.3,446.6,376.4,444.1,376.6,444.3z"/>
	<path id="path186" fill="#00FA9A" d="M324.4,449.8c-0.9,4.5,5.4,10.1,12.1,10.7c5,0.4,12.2,1.7,14.7,2.7c1.5,0.5,3.2,0.6,3.9,0.2
		c0.7-0.4,3.8-0.6,7-0.5c4.8,0.2,6-0.1,7.9-2.1l2.3-2.3l-0.7,3c-0.4,1.6-1.3,3.3-1.9,3.8c-2.5,1.7-35-1.2-37.1-3.3
		c-0.5-0.5-1.8-1-2.7-1c-2.7,0-6.9-5.7-6.9-9.4c0-1.8,0.3-3.6,0.7-3.9C324.8,446.5,325,446.9,324.4,449.8z"/>
	<path id="path188" fill="#CD853F" d="M325.9,460.3c4.2,3.7,10.4,5.5,20.1,5.9c2.5,0.1,5,0.5,5.7,1c0.6,0.5,4.1,0.8,7.7,0.6
		c3.6-0.2,6.6,0,6.6,0.5s-1.2,5.4-2.6,10.9c-3.3,12.6-2.9,16.5,2.2,24.8l3.9,6.3l-0.3,10.1c-0.3,12.7-1.8,15.1-13.6,23.1
		c-8.4,5.6-8.6,5.7-11.1,4.1c-1.5-1-4.3-5.4-6.9-10.9c-2.4-5-7.1-14.1-10.4-20.1c-3.4-6-6.7-13.3-7.3-16.2
		c-1.3-5.6-0.5-14.7,2.8-32.7C324.1,459.8,324.4,459.1,325.9,460.3z"/>
	<path id="path190" fill="#9932CC" d="M368.5,534.8l0.3,2.8c0.4,3.2-3.2,6.9-10.1,10.5c-3.8,2-3.8,2.1-3.6,7.5
		c0.2,5-1.1,8.7-2.7,7.1c-1-0.9-3.4-11.9-2.8-12.9c0.3-0.4,3.5-2.7,7.2-5.1s7.8-5.6,9.2-7.2L368.5,534.8z"/>
	<path id="path192" fill="#9932CC" d="M337.8,542c0.5,0,1.3,1.1,1.6,2.5c0.4,1.4,2.4,3.6,4.6,5c2.9,1.8,4,3.2,4,4.9
		c0,1.4,0.5,3.7,1,5.2c1.8,4.7,0.3,3.7-3.5-2.3c-2.1-3.2-4.5-6.7-5.5-7.8s-2.2-3.2-2.5-4.8C337.1,543.1,337.2,542,337.8,542z"/>
	<path id="path194" fill="#800000" d="M368.8,544.6c0.9,0.6-1.2,11.7-2.5,13c-0.8,0.7-3.2,1.4-5.4,1.4c-3.9,0-3.9,0-3.9-3.9
		c0-3.6,0.3-4,5.8-7.3C365.9,545.9,368.6,544.5,368.8,544.6z"/>
	<path id="path196" fill="#800000" d="M367,561c0,0.5-1.9,1-4.2,1c-3.2,0-3.9-0.3-2.8-1C362,559.7,367,559.7,367,561z"/>
	<path id="path198" fill="#9370DB" d="M341.6,563c2.3,0,2.5,0.2,1.4,1.5c-1.6,2-0.5,3.2,3.5,3.8c2.5,0.3,2.3,0.4-1,0.6
		c-4.4,0.1-6.5-1.2-6.5-4.1C339,563.5,339.8,563,341.6,563z"/>
	<path id="path200" fill="#800000" d="M362.5,563.2c1.9-0.2,3.5,0.2,3.5,0.8c0,0.5-1.6,1-3.5,1s-3.5-0.4-3.5-0.8
		C359,563.8,360.6,563.3,362.5,563.2z"/>
	<path id="path202" fill="#9370DB" d="M353,564c1.6,0,2.4,3,1.1,4.3c-1.5,1.5-3.6-0.6-2.8-2.7C351.7,564.7,352.4,564,353,564z"/>
	<path id="path204" fill="#9370DB" d="M344.9,565c1.1,0,2.3,0.4,2.6,1c0.3,0.5-0.3,1-1.4,1s-2.3-0.5-2.6-1
		C343.2,565.4,343.8,565,344.9,565z"/>
	<path id="path206" fill="#800000" d="M365,568.9c0,0.5-0.6,1.4-1.4,2c-1,0.8-1.6,0.8-2.5-0.2c-0.6-0.8-0.8-1.7-0.4-2
		C361.6,567.7,365,567.9,365,568.9z"/>
	<path id="path208" fill="#9370DB" d="M357,569.5c1.3,0.8,4.3,6.5,3.7,7.1c-0.4,0.5-4.7-6.1-4.7-7.2
		C356,569.1,356.5,569.2,357,569.5z"/>
	<path id="path210" fill="#9370DB" d="M353,570.5c1.4,0.9,8.3,14.6,7.6,15.2c-0.2,0.3-2.3-3.2-4.6-7.7
		C353.7,573.5,352.4,570.1,353,570.5z"/>
	<path id="path212" fill="#9370DB" d="M348.9,578.5c-1.1,7.8-1.7,10-2.4,9.3c-0.4-0.4,0.7-8.4,2.1-14.7
		C349.7,568.2,349.9,571.9,348.9,578.5z"/>
	<path id="path214" fill="#800080" d="M410.3,577.3c-1.5,3.2-6.9,4.5-21.9,5.4c-12.4,0.7-13.7,1.2-17.1,6.9c-1,1.8-1.1,1.8-1.8,0.1
		c-1.1-2.6,2.3-9.6,4.9-10.2c1.2-0.3,8-0.6,15.2-0.7c12.5-0.3,13.3-0.4,16.5-3C409.9,572.8,412,573.6,410.3,577.3z"/>
	<path id="path216" fill="#EE82EE" d="M365.5,576.1c1.6,1.6,0.9,12.9-0.7,12.9s-2-2.9-1.3-8.6C364.1,575.6,364.4,575,365.5,576.1z"
		/>
	<path id="path218" fill="#EE82EE" d="M370.1,577c1.4,0,1,3.3-0.6,5.4c-1.6,2.2-2,0.9-0.9-3.2C369,578,369.6,577,370.1,577z"/>
	<path id="path220" fill="#8B0000" d="M406.9,598.4c-3.6,23.1-9.5,42.4-28.6,93.6c-14.9,40.1-15.1,41.1-14.9,53.2
		c0.2,6.5,0.7,9.2,1.9,10.6c0.9,1,2.3,3.5,3.2,5.5c1.9,4.5,3.8,19,3,21.8c-0.4,1.1-7.7,7.6-16.3,14.4l-15.6,12.4l-2.7-6.5
		c-3.6-8.5-7.1-13-13.1-16.7c-3.1-2-4.8-3.7-4.8-5c0-1.1,3.6-9,8-17.5s8-16.8,8-18.2c0-1.5,0.7-3.3,1.6-4.1
		c3.8-3.2,6.2-10.8,17.4-55.6c6.1-24.6,9.1-39.1,12.5-60.3c1.4-9.1,2.9-17.2,3.2-18c0.3-0.8,1.3,2.5,2.2,7.5c1.2,6.6,2,9,3.1,9
		c2.2,0,2.3-4.1,0.6-13.5c-0.9-4.5-1.6-9.1-1.6-10.2c0-1.8,0.2-1.8,2.2-0.4c4.5,3.2,8.8,1.4,8.8-3.6c0-3.1-1.7-4.2-8.2-5.3
		c-4.2-0.7-4.7-1.6-2-4.3c1.5-1.5,4.1-2,13.8-2.5c6.5-0.4,13.3-1.1,14.9-1.6C410,581.1,409.8,580.3,406.9,598.4z"/>
	<path id="path222" fill="#EE82EE" d="M361.4,589c0.8,0.8,0.3,1-1.8,0.8c-3.8-0.4-4.5,1.7-0.9,3l2.8,1l-2.7,0.1
		c-4,0.1-8.1-4.2-6-6.3C353.7,586.6,360,587.6,361.4,589z"/>
	<path id="path224" fill="#EE82EE" d="M367,590c1.6,0,2.4,3,1.1,4.3c-1.5,1.5-3.6-0.6-2.8-2.7C365.7,590.7,366.4,590,367,590z"/>
	<path id="path226" fill="#8B0000" d="M421,620.5c14.4,40.3,14.5,40.5,18.9,46.7c2.2,2.9,4.4,7.2,5,9.3c0.8,3,3.5,6.4,11.1,14
		c7,7,10,10.7,10,12.3c0,1.3-2.7,8.8-6,16.7s-6.8,17.3-7.7,20.9l-1.7,6.4l-4.3-3c-5.9-4-10.7-5.9-17.6-6.8c-3.3-0.5-6.1-1-6.2-1.2
		c-0.2-0.2,0.5-7.2,1.6-15.7c2-15.2,2-15.4,0.1-20.5c-1.1-2.8-3.4-9.8-5.2-15.4c-1.7-5.7-5.2-14.9-7.6-20.5
		c-2.5-5.6-6.1-13.9-8.1-18.5l-3.6-8.3l2.2-7.2c1.8-6.4,5.6-23.9,7.6-35.2C410.1,590.7,410.8,592.2,421,620.5z M433.7,683.7
		c-0.2-0.6-1.1,0.1-2.1,1.5c-1,1.5-1.6,3.3-1.4,3.9c0.2,0.6,1.2,0,2.2-1.5C433.3,686.1,434,684.4,433.7,683.7z M442.9,686.1
		c-2,0-9.9,4.1-9.9,5.1c0,0.7,9.5-3.3,10.7-4.6C444.1,686.3,443.7,686,442.9,686.1z"/>
	<path id="path228" fill="#EE82EE" d="M380,593.6c4,1.1,5,3.3,2.4,5.8c-1.4,1.4-1.9,1.4-5.5-0.4c-2.1-1.1-3.9-2.2-3.9-2.4
		s1.8-0.2,4,0.1c4.3,0.6,5.4-0.7,2.3-2.7C377.8,593.1,377.9,593,380,593.6z"/>
	<path id="path230" fill="#EE82EE" d="M361.6,595c0.8,0-1.3,4.1-5.3,10.2c-7.8,12.1-7.2,11.2-7.7,10.7c-0.2-0.2,2.3-5,5.6-10.7
		C357.5,599.6,360.8,595,361.6,595z"/>
	<path id="path232" fill="#00008B" d="M364.4,596c0.7,0-14.6,72.7-19.8,94c-0.8,3-2.8,11.8-4.6,19.5c-4.5,19.2-6.6,26.4-9,30.3
		c-3.2,5.3-4.1,3.7-1.6-3c2.3-6.2,10.9-38.9,14.1-53.8c0.9-4.1,3-13.8,4.6-21.5c1.7-7.7,5-24.3,7.5-36.9c3.1-16.1,5-23.7,6.5-25.7
		C363.2,597.3,364.2,596,364.4,596z"/>
	<path id="path234" fill="#800080" d="M368.7,601.4c-0.7,5.3-3.1,20.1-6.8,40.3c-2.8,15.7-15.1,67.5-20.4,85.7
		c-1.7,5.9-3.6,10.1-5.5,12.3c-2,2.2-3,4.5-3,6.5c0,1.9-2.2,7.1-5.9,13.7c-7.1,12.8-10.4,20.3-9.9,22.7c0.1,1,3,3.6,6.2,5.8
		c4.8,3.3,6.7,5.5,9.8,11.1c4.1,7.6,5.1,14.1,2.3,15.2c-2.2,0.8-2.3,0.6-4.9-9.1c-2.8-10.4-4.7-12.7-13.2-15.7
		c-4.7-1.7-6.4-2.8-6.4-4.1c0-3.4,4.9-13.9,10.3-22.1c6.4-9.9,8.9-15.1,8-17.2c-0.3-0.9,0.3-2.6,1.5-3.8c1.1-1.2,2.7-3.6,3.5-5.2
		c1.4-2.7,10.3-39.1,17.1-69.5c1.4-6.3,3.9-17.4,5.5-24.5c1.6-7.2,4.1-19.8,5.6-28c1.5-8.3,3.1-16,3.6-17.3
		C367.5,594.5,369.3,596.7,368.7,601.4z"/>
	<path id="path236" fill="#EE82EE" d="M370.8,596.5c0.5,0.5,1.7,5.7,2.7,11.5c0.9,5.8,1.9,11.4,2.2,12.5c0.3,1.3,0.2,1.7-0.5,1
		c-0.5-0.6-1.7-5.5-2.7-11c-0.9-5.5-1.9-11.1-2.2-12.5C369.9,596.3,370.1,595.8,370.8,596.5z"/>
	<path id="path238" fill="#800080" d="M402.4,647.5c1.8,4.4,5.9,14.2,9,21.8s6.7,17.6,8.1,22.3c1.3,4.6,3,9.4,3.6,10.5
		c0.8,1.6,0.8,4.5,0,11.3c-0.6,5-1.4,12.5-1.7,16.7l-0.7,7.6l6.7,0.7c11.3,1.3,24.2,9.3,23.4,14.6c-0.3,2.1-0.6,2-5.5-2.4
		c-6.6-6-10.6-7.6-20.9-8.3c-6.8-0.5-8.4-0.9-8.4-2.2c0.1-0.9,0.9-8.6,1.9-17.1c1.7-15.1,1.7-15.7-0.1-22
		c-5.3-18.1-9.5-29.6-14.9-40.4c-6.2-12.5-6.5-13.8-4.8-18.3C399.1,639.6,399.2,639.7,402.4,647.5z"/>
	<path id="path240" fill="#00008B" d="M395.5,650c1.3,0,11.9,23.9,14.9,33.7c8.4,26.5,7.8,22.8,5.9,40.2
		c-1.6,14.6-1.9,15.8-4.4,18.4c-3.6,3.6-5.5,3.5-2.8-0.2c1.7-2.3,2.5-6,4-19.2l1.8-16.4l-2.1-8c-1.1-4.4-5.6-16.5-9.9-26.8
		c-4.4-10.4-7.9-19.5-7.9-20.3S395.2,650,395.5,650z"/>
	<path id="path242" fill="#191970" d="M468.8,705c1.9,0,5.1,4.8,6.3,9.3c1.9,7.6,0.7,11.8-6,22c-6.4,9.8-8.4,14.3-10,23.3
		c-3,15.8-13.4,27.5-28.6,31.9c-10.5,3.1-23.7-0.3-25.9-6.7c-1.3-3.7-0.6-4.1,4-2.2c8.3,3.5,24.7-1,32.6-8.8c1.9-2,4.8-6.5,6.4-10.2
		c1.6-3.6,3.5-6.6,4.3-6.6c1,0,1.2-1,0.8-4.3c-0.8-5.7,3-19.3,9.2-33.3c2.6-6,5.1-11.7,5.4-12.7C467.7,705.8,468.3,705,468.8,705z"
		/>
	<path id="path244" fill="#8B0000" d="M422.7,744.2c14,1.2,14.9,1.5,20.5,6.7l5.3,4.9l-1.9,5.7c-4.2,12.3-15.4,19.8-29.7,19.9
		c-9.2,0.1-12.2-1.3-14.9-6.9c-4.7-9.6-0.8-22.4,8.7-28.9C413.6,743.6,414.6,743.5,422.7,744.2z"/>
	<path id="path246" fill="#00008B" d="M327.1,746.2c1.2,2.1-1.6,8.7-6.5,15.5c-2,2.8-5.7,9.4-8.2,14.7c-4.1,8.7-4.8,9.6-7.2,9.6
		l-2.7-0.1l2.7-1.4c1.9-1.1,5-6.1,11.1-17.7c4.6-9,8.8-17.6,9.2-19.3C326,745,326.3,744.8,327.1,746.2z"/>
	<path id="path248" fill="#191970" d="M371.5,785.8l0.3,8.1c0.4,11.5-0.6,13-12.4,18.7c-7.5,3.6-11.5,6.4-18.1,12.5
		c-10.1,9.3-17.7,13.4-28.3,15c-12.3,1.9-22.7,0.1-30.2-5.2c-2.2-1.6-2.7-2.8-3-7.4c-0.1-3-0.1-5.4,0.2-5.2c0.3,0.2,4,2,8.3,4.1
		c7.6,3.8,7.8,3.8,17.5,3.4c7-0.3,11-1,14.2-2.5c5.9-2.7,14.4-8.8,18.9-13.7c2-2.1,9.2-8.2,16.1-13.6c6.9-5.3,13.4-10.7,14.5-12
		L371.5,785.8z"/>
	<path id="path250" fill="#8B0000" d="M306.9,787.1c0.4-0.1,8.5,3.5,14.9,6.7c3.8,1.8,5.7,4.9,6.8,10.7c0.4,2.2,1.3,5.8,2.1,7.9
		c1.3,3.8,1.2,4.1-1.4,6.8c-6.3,6.5-21.1,10.7-31.2,8.8c-5.2-1-11.4-3.7-16.5-7.3c-2.7-1.9-2.8-2.3-2.2-7.5
		c1.5-12.7,8.4-20.1,23.1-24.8C304.7,787.7,306.7,787.1,306.9,787.1z"/>
</g>
</svg>
