<?xml version="1.0" encoding="utf-8"?>
<!-- Generator: Adobe Illustrator 21.0.0, SVG Export Plug-In . SVG Version: 6.00 Build 0)  -->
<svg version="1.1" id="图层_1" xmlns="http://www.w3.org/2000/svg" xmlns:xlink="http://www.w3.org/1999/xlink" x="0px" y="0px"
	 viewBox="0 0 850 850" style="enable-background:new 0 0 850 850;" xml:space="preserve">
<g transform="translate(0.000000,0.000000) scale(1.00000,1.00000)">
	<path d="M447.5,10.6c5.6,6.6,10.1,14.5,12.5,21.9l1.3,4l1.7-6.1C467,15.6,473.8,3,477.7,3c0.7,0,3.3,1.8,5.8,4.1l4.4,4.1l5-1.3
		c6.1-1.5,6-1.6,20,11.7c12.4,11.8,24.7,26.4,31.9,37.7c14.3,22.7,29,67.5,32.8,99.8c1.6,14.2,1.4,23.9-0.6,23.9
		c-1.1,0-1.7-2.5-2.4-10.6c-0.6-6.9-6.3-30.2-10-41.2c-2.9-8.5-17.7-42.4-18.3-41.9c-0.2,0.2,1,4,2.6,8.3
		c5.7,15.6,10,33.3,13.2,54.4c1.6,10.2,2.2,20.4,2.6,41.5c0.5,25.5,0.7,28.4,2.6,32c2,4.1,13,20.6,18.8,28.2c1.8,2.4,3,4.6,2.6,4.9
		c-1.1,1.1-5.4-2.3-16.7-13.2l-10.9-10.5l-1.2,4c-1.9,6.3-3.3,5-2.5-2.3l0.6-6.3l-6.5-10.4c-3.6-5.7-7.3-12.3-8.2-14.6
		c-1-2.4-2-4.3-2.3-4.3s-0.5,12.3-0.5,27.3c0,26.2-0.1,27.7-2.9,40.1c-1.5,7.1-3.7,15.4-4.7,18.4s-1.9,5.6-1.9,5.7s3.7,0.5,8.3,0.8
		c19.6,1.6,39.4,6.6,50.7,12.9c8.5,4.7,14,9.5,33.2,28.4c15.9,15.7,21.9,22.9,26.9,32.1c1.4,2.7,3.5,3.6,20,9.1
		c11.1,3.7,19.8,6,21.9,5.9l3.5-0.2l-0.1,8.5c0,4.7-0.6,10.3-1.3,12.5s-1.8,7.6-2.5,12c-1,7-1.5,8-3.4,8.3c-1.2,0.2-2.2-0.1-2.2-0.6
		c0-0.9-12.9-4.6-13.6-3.9c-0.2,0.1,0.5,3.1,1.6,6.4c6.3,20.2,5,51.7-3.5,85.4l-0.6,2.6l10.8,1.3c5.9,0.7,11.4,1.7,12.1,2.3
		c1.5,1.2,1.7,13.8,0.1,15.4c-0.7,0.7-5,0.3-14.6-1.4c-7.5-1.3-13.8-2.1-14-1.9c-1,0.9-17.3,29.9-17.3,30.6c0,0.4,1.1,1.1,2.5,1.4
		c1.3,0.3,2.9,1.5,3.4,2.5c1.3,2.3-2.9,10.7-11,22l-5.7,7.9l11.2,2.7c22.7,5.4,42.2,10.7,46.4,12.5l4.2,2v6.1c0,5.9-0.1,6.3-4.2,10
		c-2.4,2.1-6.1,4.9-8.4,6.1l-4.1,2.2l-7.9-3.1c-24.4-9.7-47.7-18.4-48.3-18.1c-0.4,0.2-4.6,4.7-9.5,10.1c-6.5,7.3-8.6,10.1-7.7,11
		c0.6,0.6,1.1,1.8,1.1,2.7c0,1.9-10.6,12.3-19.7,19.4c-3.5,2.7-6.3,5.2-6.3,5.6c0,0.3,6.4,4.6,14.3,9.4c25.2,15.4,59,39.9,58.5,42.3
		c-0.2,0.9-3,2.5-7.1,3.8c-7.1,2.4-8.2,3.1-13.4,7.8l-3.1,2.9l-4.4-3c-2.3-1.7-7.9-6.1-12.4-9.9c-34.9-29.5-44-36.3-48.5-36.3
		c-1.3,0-7,2.7-12.6,5.9s-12.5,6.9-15.3,8.2c-2.7,1.3-4.9,2.8-4.7,3.4c0.2,0.5,2.5,1.3,5.2,1.8c2.7,0.4,6.1,1.9,7.7,3.3
		c1.6,1.3,3.8,2.4,4.9,2.4c1.1,0,3.2,0.8,4.7,1.8s3.6,2.3,4.7,2.8c3,1.6,6.4,7.1,8.1,13.3c3.1,11.6,6.9,22,12.4,34.6
		c10.5,23.9,13,32.9,13,46.3c0,9.7-2.7,15.8-9.7,22.3c-4.7,4.5-13.9,8.9-18.4,8.9c-3.4,0-9.3-3.6-13.6-8.3
		c-5.1-5.5-6.3-7.6-8.3-15.2c-1.4-4.9-2.1-6-4.3-6.6c-2.5-0.7-2.7-0.5-2.7,2.2c0,3.9-2.2,8.9-5.1,11.6c-3.7,3.3-10.3,4.7-22.9,4.6
		c-12.3-0.1-22.8-2.2-41.9-8.2c-8.9-2.8-9.5-2.9-13.5-1.4c-2.2,0.8-7.4,1.7-11.5,2c-7.2,0.6-7.6,0.8-11.6,5
		c-3.9,4.1-4.5,4.3-9.7,4.3s-5.6,0.2-6.2,2.6c-0.6,2.4-1,2.6-4.4,2.1c-2-0.3-4.7-0.9-5.8-1.2c-2.1-0.7-2.1-0.5-1.6,11
		c0.5,11.1,0.4,11.7-1.4,11.3c-1.7-0.3-1.9-1.5-2.2-13l-0.3-12.7l-2.8-0.6c-1.8-0.4-4.7,0.2-8.2,1.6c-3,1.2-6.7,2.3-8.2,2.5
		c-1.5,0.1-4.2,0.9-6,1.7c-1.8,0.7-9,3.6-16,6.3l-12.9,4.9l0.7,4.7c0.5,4.4,0.4,4.8-1.5,4.8c-1.6,0-2-0.6-2-3.3
		c0-1.9-0.2-3.6-0.5-3.9s-5.8,0.5-12.3,1.9c-21.8,4.4-27.8,5.1-31.9,3.7c-5.2-1.8-12.3-9.6-12.3-13.6c0-3.7,6.2-27.5,10.1-38.3
		c2.9-8.4,15.8-37.9,25.3-57.9c3.1-6.5,5.6-12,5.6-12.1s-3.6-0.6-7.9-0.9l-7.9-0.7l-15.8,7.9c-16.7,8.4-27.7,15.3-43.4,27.1
		c-15.5,11.7-24.2,20.2-37.7,37.1c-13.1,16.2-18.6,24.6-28.1,42.8c-4,7.6-5.8,10.2-7.3,10.2c-1,0-1.9-0.2-1.9-0.5
		c0-1,13.2-24.9,18.7-33.7c11.3-18.4,32.7-42.4,49.8-56c12.8-10.2,32.8-23,45.7-29.2c7-3.3,12.8-6.4,12.8-6.9
		c0-3.1-15.9,3-34.6,13.4c-48.1,26.7-81.1,59.5-102.8,101.8c-3.3,6.5-6.3,11.1-7.1,11.1s-1.5-0.4-1.5-1c0-4,17.3-34,26.6-46
		c9.6-12.5,22.3-25.7,34.4-35.9c20.4-17.1,34.4-26.1,61.9-39.9c7.2-3.6,10.7-5.8,9.5-6.1c-3.1-0.5-4.6-2.3-4-4.6
		c0.5-2-0.1-2.4-5.7-3.9c-20.4-5.6-37-12.6-38.4-16.3c-0.3-0.9,0-2.5,0.7-3.6c0.9-1.5,0.9-2.2,0.2-2.5c-2.7-0.9-19.7-12.1-25.2-16.7
		c-8.7-7.2-16.2-16.3-15.4-18.7c0.4-1.5-2-4.6-11.3-14.1c-11.3-11.6-19.6-22-22.1-27.9c-0.8-2.1-0.8-2.9,0.2-3.8
		c1.1-0.9,0.4-2.6-3.5-9.3c-6.1-10.2-11.4-22.6-10.2-23.8c0.5-0.5,5.1-2.1,10.1-3.6c9-2.5,9.2-2.6,8.5-5.2c-1.2-4.3-0.9-7.3,0.7-8.2
		c3.4-1.8,30.4-7,43.9-8.4c7.9-0.8,22.6-1.5,32.8-1.5h18.4l16.7-5.9c18.6-6.5,36.1-11.5,46.7-13.1c10.3-1.6,10.1-1.4,13-9.3
		c1.5-4,3.4-9,4.2-11.2c4.6-12.2,11.7-53.4,10-57.8c-0.4-1-1.7-1.7-3.2-1.7c-2.8,0-10.5-3.6-11.7-5.4c-0.4-0.6-0.8-2.3-0.8-3.7
		s-0.9-3.4-2-4.4s-2-2.3-2-3c0-0.6,3.9-4.7,8.6-9l8.7-7.9l-0.6-17.3c-0.7-19.2,0.8-36.8,4.2-48.7c2.3-7.9,1.9-9.6-4.4-15.6
		c-2-1.9-4.6-5.2-5.8-7.3c-1.1-2-2.4-3.7-2.8-3.7c-1.1,0-2.1,5.8-1.7,9.9c0.2,2.1-0.2,3.6-1,3.8c-1.5,0.6-4.2-5.5-4.2-9.7
		c0-1.6-0.4-3-0.9-3c-0.8,0-0.6,11.5,0.5,19.7c0.3,2.3,1.6,5.8,2.9,7.7c2.9,4.2,1.6,5.6-2.5,2.6c-5.9-4.2-10.2-13.6-11.5-25
		c-0.8-7.5-2.4-11.5-2.5-6.2c0,3.8-0.5,4-9.1,5c-6.1,0.7-6.4,0.8-6.4,3.4c-0.1,4.8-1.7,5.4-16.5,6l-6.5,0.3v-7.8l0.1-7.7h-5.2
		c-4.7,0-8.3,1.7-6.8,3.3c1.3,1.3-0.8,4.7-2.9,4.7c-3.2,0-20.8-6.6-21.9-8.2c-0.4-0.7-0.8-6.1-0.7-12c0.1-5.8-0.2-11.1-0.5-11.7
		c-1.2-1.9-4.6-1.3-4.6,0.9c0,1.1-0.7,2-1.5,2c-2.3,0-19.4-7.1-21.1-8.8c-1.3-1.2-1.4-3.9-0.9-16.6l0.7-15.1l-7.2-4
		c-4-2.2-9.2-5.8-11.6-8.1l-4.4-4l1.6-5.5c0.9-3,3.3-9.9,5.5-15.3c2.2-5.4,3.7-10.7,3.4-11.7s-2-3-3.8-4.5
		c-4-3.3-10.7-11.5-10.7-13.1c0-0.7,1.4-3.5,3-6.1c1.7-2.7,3-5.3,3-5.9c0-0.5-2.2-2.2-5-3.8c-2.7-1.7-5.2-3.6-5.5-4.3
		c-0.2-0.7,0.9-4.4,2.7-8.3l3.1-7l-4-4.2c-6.9-7.1-7-8-2.7-14.3c2.1-3,7.4-10.1,11.9-15.7l8.2-10.3l-3.4-4.8
		c-4.1-5.9-4.2-9.6-0.5-13.5c2.2-2.4,17.7-14.3,30.6-23.6l2.8-2l-2.6-4.5c-1.4-2.5-2.6-5.2-2.6-6c0-2.1,4.4-4.9,19.5-12.3
		c27.5-13.6,57.5-16.7,70-7.2l4.4,3.4l5.7-3.4C344,36.4,361.9,31,370.3,31c1.8,0,4.2,0.7,5.3,1.5c2.6,1.7,6.3,11.5,6.7,17
		c0.2,3.8,0.1,4-3.3,4.5l-3.5,0.5l3.2,2.3l3.2,2.3l6.5-13.3c8.7-17.9,18.5-29.4,33.8-39.6l3.9-2.5l3.6,3.4c1.9,1.9,3.7,2.9,3.9,2.4
		c0.2-0.6,1.3-2.5,2.4-4.3C438.6,1,439.9,1.7,447.5,10.6z M441.1,8.7c-2.2-1.8-2.2-1.7-6.3,7c-7.9,17.2-15.3,42.2-18,60.8
		c-1.8,13-1.6,44.7,0.5,56.6c2.9,16.5,3.4,15.4,2.9-5.9c-0.6-23.7,0.8-40.2,4.8-58.7c1.5-7.2,3.1-15.7,3.5-18.9
		c0.8-6.9,2.1-10.9,3.4-10.2c0.4,0.3,0.2,3.8-0.6,7.8c-0.7,4-1.6,15.2-2,24.8c-0.6,18.2,0.8,33,4.2,44.5l1.5,5l-0.6-4.5
		c-0.3-2.5-1.2-9.2-1.9-15c-2.9-21.4-1.4-44.5,4.6-69.2c3.1-12.9,5.8-19.1,5.9-13.6c0,1.5,1.2,3.9,2.6,5.5
		c4.1,4.3,10.2,13.7,12.4,19l2.1,4.8l-0.6-4.8c-0.7-6.7-5.8-18.4-11.5-26.4C445.4,13.6,442.2,9.7,441.1,8.7z M478.5,8
		c-3.6,0-9.3,12.2-13.4,28.4c-1.7,6.6-2.9,12.1-2.7,12.3c0.2,0.2,1.7-3.7,3.5-8.5c1.7-4.9,4.7-11.6,6.7-14.7c1.9-3.2,3.2-6.5,3-7.2
		c-0.9-2.4,0.9-1.4,4.5,2.4c26.4,28.1,45.1,73.4,48.9,118.5c0.8,8.9,0.8,8,0.5-7c-0.4-14.8-1-19.9-4-34.6
		c-7.4-36.9-18.9-61.7-37.6-81.1C483.4,11.8,479.2,8,478.5,8z M425.6,9.1c-1.6,0-9.3,6.2-16.4,13.2c-10,9.8-17.4,21.9-22.6,36.7
		c-1.9,5.5-2.1,6.8-0.8,5C399.3,44.7,422,21,427,21c2.2,0,3-0.6,3.9-3.2c1-2.9,0.9-3.4-1.6-6C427.8,10.3,426.1,9,425.6,9.1z
		 M492.3,14.8c-0.9,0.5,0.7,3.2,5.2,8.7c14.5,17.7,26.2,47.4,32,80.8c1.1,6.4,2.3,10,4.4,13c5.8,8.4,7.4,18.6,5,30.8
		c-0.9,4.6-0.7,6.3,0.9,11.4l1.9,6l0.8-8.9c0.9-10.7-0.8-37.1-2.9-43.6c-0.8-2.5-3-8.3-5-13c-3.7-8.6-4.3-11-2.7-11
		c0.9,0,5.8,10.9,11,24.5c7.9,21,14.1,45,16.5,64.5c2.4,18.9,2.5,19.4,2,7.6c-1-22.6-6.4-53.6-13.5-78
		c-7.6-25.9-14.3-41.3-24.5-55.8c-5.5-7.8-6.5-11-2.3-7.2c2.6,2.3,12.8,16.8,19.9,28.4c8.9,14.2,18.6,34.7,25.4,53.3
		c1,2.7,2,4.6,2.3,4.4c1-1-13.3-40.9-18.7-52.3c-7.3-15.5-12.2-23-24.7-37.9c-9.8-11.7-14.9-16.5-24.2-23.3
		C496.6,14,494.5,13.4,492.3,14.8z M477.9,22c-0.9,0-9.4,18.8-12.4,27.5c-1.5,4.4-3.1,8.4-3.5,8.8c-0.4,0.5-2.6-3.7-4.9-9.2
		c-2.4-5.5-5.6-11.9-7.1-14.3c-3.8-5.7-7.8-10.3-8.4-9.8c-0.2,0.3-1.9,7.3-3.7,15.5c-3.1,14.3-3.3,16-3.3,37.5l-0.1,22.5l5.8,1.4
		c5.6,1.3,5.7,1.3,9.3-1.4c5.2-4,12.9-6.6,20.9-7.2c6.1-0.4,7.6-0.2,11.9,2l4.9,2.6l-0.7-5.2c-0.3-2.9-1.1-10.5-1.8-17
		c-0.7-7.4-1.6-11.7-2.3-11.7c-2.3,0-16.2,15-21,22.8c-5,8.1-8.4,10.8-7.1,5.7c1.7-6.7,7.1-20,10.4-25.5
		c4.6-7.5,12.7-17.5,16.6-20.3l2.9-2l1.8,2.2c1.1,1.3,2.8,5.1,3.8,8.6c3.9,12.4,5.1,21.1,5.1,35.7c0.1,12.5,0.3,14.6,1.9,16.5
		l1.9,2.3l5.7-2.6c4.8-2.2,6.6-2.5,11.2-2c4.9,0.6,5.4,0.5,5-1.1c-8-29.2-17.5-49.1-34.6-72C481.9,26.6,478.2,22,477.9,22z
		 M421.1,27.6c-14.7,12.6-36,40.3-43.6,56.7c-4.4,9.4-10.1,26.7-10.9,32.7c-0.5,3.6-0.2,3,1.7-3c5.3-17.3,19.8-40.4,38.4-61.5
		c8.3-9.3,17.5-21.2,19.9-25.8C428.7,22.7,426.4,23.1,421.1,27.6z M374.3,35.5l-4.9-0.2c-7.8-0.2-17.1,2.3-27.4,7.5
		c-8.7,4.4-9.5,5-9.3,7.5c0.1,1.5-0.2,2.7-0.6,2.7s-2.7-2.1-5.1-4.6c-8.2-8.5-15.6-10.3-33-8c-7.8,1.1-15.2,2.9-23.1,5.6
		c-11.7,4.2-27.5,12.4-29.3,15.2c-0.7,1.2,0.1,3.4,3.3,8.7c2.4,3.9,4.7,7.1,5.1,7.1s5.2-2.8,10.6-6.2c8.5-5.3,26-14.2,29.5-15
		c0.6-0.2,1.3,0.2,1.6,0.8c0.2,0.6-2.7,2.4-6.4,4c-3.7,1.5-13,6.6-20.5,11.1c-7.5,4.6-14.3,8.3-15.1,8.3s-2.2-1.1-3.1-2.5
		s-2.2-2.5-2.8-2.5c-1.6,0-35.8,25.8-35.8,27c0,2.8,9.3,15,11.3,15c0.5,0,8.3-7.2,17.2-16c9-8.8,16.6-16,16.9-16
		c2.5,0-1.6,4.7-16.5,18.9c-16.4,15.8-17.1,16.3-19.5,15.1c-1.5-0.8-2.8-1-3.2-0.4c-8.6,10.1-11.9,14.2-16.6,20.8l-5.7,7.9l4.7,4.8
		l4.8,4.8l3.3-4.9c2.8-4.2,5.3-6.3,5.3-4.5c0,0.2-2.8,5.5-6.3,11.7c-8.7,15.5-8.5,14.3-2.9,17.8s4.8,4.2,12.7-10.6
		c5.8-10.8,9.4-15.9,9.5-13.5c0,0.8-5,10.7-11,21.8c-8.7,16.2-10.8,20.8-10.1,22.2c1.2,2.2,16.9,17.1,18.1,17.1
		c1.1,0,1.1-0.2,5.8-21c9-40.2,8.6-38,6.7-39.4c-2.2-1.6-3.2-10.4-1.5-13.6c1-1.9,1.8-2.2,5.6-1.7c5.1,0.5,9.4,3,9.4,5.4
		c0,0.9-2,3.5-4.5,5.8c-4.2,3.8-4.6,4.6-5.9,12.1c-0.8,4.3-2.4,11.7-3.5,16.4s-3.4,15-5.2,23c-3.7,16.6-4.5,18.1-8.4,15.6l-2.6-1.7
		l-1.9,4.4c-3.8,8.5-8.8,23.9-8.3,25.3c0.3,0.7,4.3,3.9,9,7.1c6.7,4.5,8.6,5.4,9.3,4.3c0.5-0.7,2.1-7.7,3.5-15.4
		c3.7-19.3,9.8-42.2,11-41.6c1.3,0.6,1.2,1.8-1.4,12c-6.5,26.6-9.2,45-9.4,66.3l-0.2,13.8l7.9,3.5c4.3,1.9,7.9,3.3,8.1,3.2
		c0.1-0.2-0.2-13.4-0.7-29.3c-0.6-19.8-1.4-30.5-2.4-33.8c-2-7-0.8-8.8,5.5-8.4c6.3,0.4,8.5,2.1,7.7,6.1c-0.9,4.2-5.4,9.9-7.4,9.1
		c-1.4-0.5-1.5,2.1-0.9,24.7c0.7,26.8,0.8,27.1,5.8,28.3c2.4,0.6,2.7,0.3,3.7-3.7c0.7-2.6,0.8-4.4,0.2-4.6c-0.5-0.2-1.9-1.1-3-2
		c-1.9-1.6-1.9-2.2-0.9-8.7c2.1-13.4,14.8-51.6,24.2-72.7l2.6-5.8l-4.2-1c-6.3-1.6-6.7-1.8-7.3-3.5c-0.4-0.9,0.3-5.5,1.5-10.3
		c3.5-14,19.8-53.2,22.1-53.2c1.5,0,1.2,1.7-1.4,6.8c-7.9,15.7-20.6,52.2-19.3,55.5c0.6,1.6,18.6,6.2,19.8,5
		c0.5-0.5,1.4-6.6,2.1-13.6c1.1-12.4,1.1-12.7-1-15l-2.2-2.3l2.1-7.4c4.2-14.7,12-33,14.1-33c1.3,0,1,1.4-2.3,9.1
		c-3.6,8.4-9.3,24-10.3,28.2c-0.6,2.7-0.3,2.9,6.6,6.2l7.3,3.3l5.1-15.6c2.8-8.6,6.1-18.1,7.3-21c1.5-3.7,2.1-7.4,2.1-12.7
		c0-4,0.3-8,0.6-8.9c1.7-4.4,2.4,0,2.4,15.1c0.1,9.3,0.7,22,1.4,28.3c0.7,6.3,1.1,11.8,0.9,12.2c-1,1.9,2.2,0.5,8.8-3.8
		c6.1-3.8,7-4.8,6.5-6.7c-3-10.6-6.7-27-6.3-28.1c0.6-1.5,12.7-5.2,21.7-6.7c3.6-0.6,6.6-1.2,6.8-1.4c0.2-0.2,1.2-4.5,2.2-9.7
		c1.9-9.9,4-16,11.2-32.8c6.9-15.9,6.9-15.2-0.1-20c-8.8-5.9-9.8-6.1-21.2-4.9c-7,0.8-10.4,0.8-11.1,0.1c-1.5-1.5,0.8-1.9,19-3.5
		c8.4-0.8,15.5-1.6,15.7-1.9c0.3-0.2-0.6-3.6-1.8-7.4L374.3,35.5z M422.8,38.5c-0.2-0.3-2.7,3.5-5.6,8.3c-18.3,31-26,64.6-21.8,95.7
		c0.9,6.6,2,13.3,2.6,15l1,3l-0.5-3.5c-1.6-12.2-1.6-31.1-0.1-40.3c2.9-17.3,10.4-41.4,17-54.4c1.3-2.7,3.7-9.1,5.1-14.2
		C422,43,423,38.7,422.8,38.5z M484,48.5c-1.5-0.9-2.1,1.4-0.9,3.6c2,3.8,5.9,32.9,6.6,48.9c0.6,13.3,0.8,14.7,1.5,10
		c1.3-8.9,1.3-30.9-0.1-39c-0.7-4.1-2.4-11-3.7-15.2C486,52.5,484.5,48.8,484,48.5z M461,50c-0.5,0-0.7,0.7-0.4,1.5
		c0.4,0.8,0.8,1.5,1,1.5s0.4-0.7,0.4-1.5S461.6,50,461,50z M410.6,52c-0.9,0-16.3,19.5-19.9,25.1c-1.9,3.1-4.2,8-5.1,11
		c-2.2,7.9-4.8,22.6-4.4,25.5l0.3,2.5l5.5-3.8l5.5-3.8l1.7-9c2.8-15,7.4-28.7,14-41.8C409.7,54.6,410.8,52,410.6,52z M475.7,56.2
		c-6.6,8.3-12.1,17.4-14.8,24.6c-1.2,3.1-0.9,2.8,5.1-5.1c2.4-3.2,7-7.9,10.2-10.3c5.9-4.6,6.5-6,5.2-11.2
		C480.5,51.1,479.6,51.4,475.7,56.2z M415.3,69c-1.6,0-12.1,33.6-10.8,34.8c0.2,0.2,1.9-0.1,3.9-0.8l3.4-1.1l0.6-7.7
		c0.4-4.2,1.2-11.6,1.9-16.5C415,72.9,415.5,69,415.3,69z M448.9,104.6c-4.5,4.4-9.9,14.1-9.9,17.8c0,2.7,7.4,25.9,10.9,33.8
		c1.2,2.9,1.6,5,1,5.3c-0.5,0.4-3.9-5.5-7.6-13.1s-6.9-13.2-7.1-12.5c-0.7,2.2,2.9,20.1,5.5,27.3c5,13.3,19.9,32.8,32.7,42.7
		l5.5,4.3l6.9-3.7c3.8-1.9,10.5-6.5,15-10.1c7.9-6.3,21.3-20.8,24.1-26.2c2.5-4.7,0-46.7-3.5-58.3c-1.3-4.4-10.1-5-18.6-1.2l-6,2.7
		l-1.7-2.3c-1.6-2.2-1.7-1.9-3.5,8.9c-2,12.5-4.7,23.5-7.2,29.5c-2.7,6.4-2.7,2.8,0.1-10.7c2.7-13.4,3.5-33.1,1.5-36.9
		c-0.6-1-2.8-2.8-5-3.9C473.1,93.5,457,96.7,448.9,104.6z M361,126.1c-7.8,0.5-24,4.7-24,6.3c0,0.6,1.4,7,3.2,14.2l3.3,13.2
		l25.5-0.5c14-0.3,25.6-0.7,25.8-0.8c0.2-0.2-0.4-5.4-1.2-11.6c-0.9-6.3-1.7-13.4-1.8-15.9l-0.3-4.5l-11.7-0.3l-11.7-0.3l-1,3.8
		c-0.6,2.1-1.3,7.2-1.6,11.3c-0.8,9.6-1.3,12-2.6,12c-0.7,0-0.9-4.7-0.7-13.5C362.5,128,362.3,126,361,126.1z M402.8,128.1
		c-2.6-0.1-2.7,0.2-3,5.1c-0.3,5.6,0.8,25.8,1.5,26.4c0.2,0.3,4.8,0.7,10.2,1.1l9.8,0.6l-0.7-2.4c-0.4-1.3-2-8.3-3.5-15.4l-2.7-13
		l-4.5-1.2C407.5,128.7,404.3,128.1,402.8,128.1z M425.3,133.4l-2.9-0.6l0.8,10.4c0.5,5.7,1.2,12.1,1.6,14.3c0.7,3.9,0.8,4,7.2,5.6
		c3.6,0.9,6.6,1.5,6.8,1.4c0.2-0.2-0.6-3.4-1.7-7.1c-1.2-3.8-2.4-10-2.8-13.9c-0.7-6.2-1.1-7.1-3.4-8.2
		C429.4,134.6,426.9,133.7,425.3,133.4z M548.5,142.5c-2.2-8.1-2.4-8.4-1.9-3.6c0.3,2.9,0,11.5-0.6,19l-1.1,13.6l3.4,10
		c5.5,16,9.1,25.5,9.7,25.5s-0.6-21.4-1.5-27.3c-0.4-2.3-1.8-9.6-3.1-16.2S549.9,147.4,548.5,142.5z M320.6,149l-1.1-11.4l-5.9,18.2
		c-3.2,10-6.2,18.5-6.6,18.7c-0.4,0.3-3.3-0.6-6.4-2l-5.5-2.4l-0.5,3.2c-0.3,1.8-1.1,8.1-1.7,14.2c-0.7,6-1.6,11.5-2.1,12.1
		c-0.6,0.9-2.1,0.8-5.5-0.2c-2.5-0.8-4.8-1.3-4.9-1.1c-0.9,0.9-11.6,27.4-14.9,36.7c-5.2,14.8-12.5,40.7-12.5,44.1
		c0,2.6,0.8,3.3,7.9,6.9c4.4,2.2,12.6,5.7,18.3,7.9c9.9,3.7,35.3,12.1,36.8,12.1c0.4,0,1-2.3,1.3-5.2c0.4-2.8,1.2-5.5,1.8-5.9
		c0.7-0.4,1.6-3.5,2-6.9s1.3-6.9,2.1-7.8c3.8-4.4,3.3-4.8-9.8-9.6c-6.9-2.5-12.9-4.6-13.2-4.6c-0.4,0-2.2,2.5-4,5.5
		c-3.1,5.2-5.2,6.9-5.2,4.4c0-0.6,0.8-2.3,1.9-3.7c3.9-5.7,5-9.3,7.5-25.7c1.4-9.4,2.8-18.5,3.1-20.3c0.6-3,0.4-3.2-2.6-3.2
		c-4.1,0-9.7-2.7-10.4-5.1c-1.8-5.6,8.1-22.6,19.2-32.9c6.4-6,6.8-6.6,9.4-15.4C321.7,160.7,321.7,160.2,320.6,149z M537.7,161.5
		l-1.4-4l-2.6,5.2c-2.5,4.8-2.6,5.4-1.2,8c0.8,1.5,3.1,7.1,5.1,12.3c4.2,11,12.6,28,17.8,36l3.5,5.5l0.1-3.5c0-1.9-1-5.5-2.1-8
		c-5.6-12.1-11.1-26.1-14.3-36.3C540.7,170.6,538.5,163.7,537.7,161.5z M532.3,176.1l-1.9-4.4l-1.8,8.3c-1.1,5.4-1.4,8.5-0.7,8.9
		c1,0.7,4.1,14.9,6.2,28.6c0.6,4.4,1.5,15,1.8,23.5l0.7,15.5l0.8-9.8c1.2-14,0.1-51.7-1.8-59.7C534.8,183.4,533.3,178.5,532.3,176.1
		z M525.5,175c-0.3,0-0.5,0.4-0.5,0.9c0,1.9-20.2,22-26.9,26.6c-5.6,3.9-7,5.4-6.7,7c0.3,1.1,1.3,5.1,2.3,9l1.8,7l0.3-6.3
		c0.5-10,2.2-7.2,2.2,3.5c0,28.6-6.2,60.2-17,87.3c-4,10.1-0.1,3.6,6.6-11c3.6-8,7.9-18.8,9.5-24c2.6-8.6,6.9-35.2,6.9-43.3
		c0-3.3,1.5-6.6,2.5-5.6c0.3,0.3,0,7.4-0.6,15.8c-1,13.6-0.9,15.9,0.7,21.9c2,7.6,8.4,24.5,9.1,23.9c0.2-0.3-0.3-4.6-1.2-9.6
		c-4.5-26.3-6.2-86.3-2.1-75.6c0.3,0.9,0.3,3.4,0,5.8c-0.9,6.9,1.4,48.2,3.5,62.2c2,13.5,6.6,33.4,8.1,34.9c0.5,0.4,0.4-1.1-0.1-3.4
		c-2.8-12.6-4.6-66.2-3-90.7c1.9-29.1,2.1-31.3,3.7-31.3c0.8,0,1.4-1,1.4-2.5C526,176.1,525.8,175,525.5,175z M525.7,191.7
		c-1.5,2.5-2.7,24.3-2.7,51.2c0,15.1,0.3,27.2,0.6,26.8c0.3-0.3,1.6-5.4,2.9-11.4c3-13.7,4.9-34.7,4.1-43.8
		C529.6,204.4,526.6,190.3,525.7,191.7z M404.6,197.3c-0.3-0.4-0.6,0.2-0.5,1.3c0,1.1,0.3,1.4,0.6,0.6
		C405,198.5,404.9,197.6,404.6,197.3z M424.3,197c-2.3,0-4.1,4.1-6.1,13.5c-2.2,10.6-5.6,19.5-7.4,19.5c-1.1,0-0.9-1.3,1.5-10.1
		c0.8-3.1,1.8-8.3,2.1-11.5l0.6-5.9l-1.6,5.5c-3.7,13.3-6.6,22-7.5,22c-1.2,0-1.1-3.2,0.1-6.5c0.8-2.2,0.5-3.8-2-9
		c-1.6-3.4-3-6.8-3-7.4s-0.4-1.1-1-1.1c-1.3,0-1.2,0.2,0.5,7.5c1.8,7.3,1.8,8.8,0.3,8.3c-0.6-0.2-1.9-3.2-2.8-6.6
		c-2-7.1-2.6-8-4.2-6.4c-0.9,0.9-0.9,1.5-0.1,2.3c0.6,0.6,0.9,1.8,0.6,2.5c-0.3,0.8,0,2.1,0.7,2.9c0.9,1.1,1,1.5,0.1,1.5
		c-0.8,0-1,0.8-0.6,2c0.6,1.8,0.2,2-3.3,2c-4.6,0-5.8,1.7-3.5,5c1.1,1.5,1.8,1.9,2.6,1.1c0.6-0.6,1.7-1.1,2.4-1.1
		c1.1,0,1.3,1.6,1.1,6.7c-0.3,6.3-0.5,6.9-3.1,8.1c-1.5,0.7-3.5,2.4-4.3,3.8c-1.8,2.7-3.4,3.1-3.4,0.9c0-1.7-2.5-2-3.5-0.5
		c-0.9,1.4-2.5,0.3-2-1.3c0.5-1.3-6.3-9.3-7.1-8.4c-0.3,0.3,0.2,2.1,1,4.1c2.1,5,0.1,5.5-2.4,0.6c-1.1-2.2-2.2-4-2.5-4
		s1.1,4.4,3,9.7c2.2,6.2,4.5,10.8,6.5,12.8c1.7,1.8,3,3.8,2.8,4.5c-0.9,3.8,31.7,23,39,23c4.7,0,8.9-3.3,9.6-7.7
		c0.4-2.1,1-4.9,1.3-6.3c0.6-2.4,0.6-2.4-2.5,0.7c-4.3,4.2-8.2,5-13,2.6c-4.4-2.3-10.2-10.4-10.2-14.4c0-4.3,3-5.6,14.7-6.4
		c9.7-0.6,10.2-0.5,11.7,1.7c1.5,2.1,1.6,1.9,1.6-5.2c0-8.5,0.6-9.8,4-10.2c3.2-0.4,4.1,1.6,8.1,17.4c1.8,7.1,3.5,12.8,3.9,12.8
		c0.3,0,2.2-1.7,4.1-3.8c2.5-2.5,4.1-5.6,5.2-9.9c2.4-8.8,2.2-9.1-2.3-3.5c-4.2,5.3-8.3,8.8-8.8,7.4c-0.1-0.5,1.3-3.2,3.2-6
		s4.6-8.8,6.2-13.4c1.5-4.6,2.9-9,3.2-9.8c0.3-0.9-0.4-0.6-1.7,0.7c-1.2,1.3-2.8,2.3-3.5,2.3c-0.8,0-1.9,0.7-2.6,1.5
		c-1.6,1.9-3,1.9-3-0.1c0-1.4-0.2-1.4-2.2,0c-2.9,2-4.2,2-3.4,0c0.4-1-0.6-3-2.8-5.5c-4-4.3-5.3-9.4-3.7-14c0.6-1.8,1.1-3.7,1.1-4.2
		c0-2.1-1.7,0.9-3.6,6.1c-1,2.9-2.5,5.9-3.3,6.5c-1.2,1-1.3,0.6-0.7-2.8c0.4-2.2,1-4.9,1.3-6c0.3-1.3,0.2-1.7-0.5-1
		c-0.5,0.5-1.7,3.6-2.6,6.7c-2.4,8.3-4,7.5-3.2-1.5c0.3-3.9,0.8-11.1,1.2-16C425,200.4,424.9,197,424.3,197z M470.5,206.3
		c-4.2-3.1-4.4-3.2-5-1.2c-0.4,1.1-0.5,4.6-0.4,7.7c0.2,3.3-0.2,6.7-0.9,8c-1.4,2.4-9.2,28.2-8.6,28.2c1.5,0,6.5-14,11.9-33.4
		c1.1-3.9,2-5.5,2.6-4.9c0.9,0.9,0.4,3.6-4.4,22.4c-0.2,0.8-0.2,1.1,0,0.6c1-1.6,2.3-0.5,2.3,2c0,4.1-8.5,37.5-13.3,52.3
		c-2.5,7.4-4.3,13.7-4.1,13.8c0.9,1.1,6.3-13.6,9.4-25.6c1.4-5.6,3.4-5.6,2.5,0c-1.1,6.1-6.9,25.2-10.5,34.3
		c-1.7,4.4-3.4,8.7-3.7,9.5c-1.1,3,5.9-7.7,9.1-14c9.5-18.5,15.3-40.5,15.7-58.8c0.2-12.2,0.5-14.2,2-14.2c0.5,0,0.9,2.8,1,6.2
		c0.1,6.3,0.1,6.3,1.1,2.3c1.2-5.2,0.5-26.3-1.1-29.5C475.4,210.6,472.9,208,470.5,206.3z M332.5,227.8c-0.8,6.9,0.8,20.1,3.5,29.3
		c3.2,10.8,4.2,10.5,7.3-2.3c2.8-11.1,2.8-11.2,0.9-13.8c-2.9-3.9-6.9-12.1-7.7-15.8C335.4,219.9,333.3,221.3,332.5,227.8z M323,223
		h-4c-2.7,0-4.3,0.5-4.7,1.5c-0.3,0.9-0.4,7-0.1,13.5c0.2,6.6,0.1,12-0.3,12c-1.7,0-4.7-11.2-5.1-19.3c-0.3-5.2-1.1-7.7-2.3-6.5
		c-0.9,0.9-5.5,38.2-4.8,38.8c0.4,0.4,5.5,2.5,11.3,4.5c5.8,2.1,11,4,11.6,4.2s1.4-0.7,1.8-2.1c0.9-3.6,2.4-3.3,7.3,1.6
		c3.4,3.4,4.3,3.8,4.8,2.5c0.3-0.9,0.7-2.4,1-3.3c0.3-0.8-0.9-2.9-2.8-4.9c-7.3-7.5-13.7-25.2-13.7-38.1L323,223L323,223z
		 M464.7,236c-0.8,0-2.5,5.7-3.7,12.6c-0.6,3.4-2.4,10.3-4,15.5c-1.6,5.1-2.8,9.5-2.6,9.6c1.3,1.4,8.5-22.3,10.2-33.5
		C464.9,237.9,465,236,464.7,236z M413,258.2c-7.5,1.2-8.4,2.3-6.1,7.3c2.4,5.3,7.4,9.5,11.3,9.5c6.2,0,13.6-11.8,9.7-15.5
		C426,257.8,419.6,257.2,413,258.2z M356.6,284.4c-2-0.8-2.6,2.8-2.6,16.2c0,10.8,0.2,12.4,2.1,14.8c1.2,1.5,4,7.7,6.4,13.7l4.2,11
		l1.6-2.5c1-1.4,1.7-2.8,1.7-3.1c0-0.8,11.1-19.1,18.7-30.8c3.4-5.4,6.3-10.2,6.3-10.6c0-1.9-18.5-6.8-23.3-6.2
		c-0.9,0.1,3.9,9.8,6,12.3c0.8,0.9,1.3,2.2,1.1,2.9c-0.6,1.9-7.7-4.9-10.9-10.7c-2.5-4.3-3.6-5.3-6.5-5.9
		C359.4,285.2,357.3,284.7,356.6,284.4z M258.9,288.2c-1.5-0.6-3,10.8-2.7,21.8l0.3,11.3l8.4,2.9c4.7,1.5,8.6,2.6,8.8,2.5
		c0.1-0.2,0-7.5-0.4-16.3l-0.6-15.9l-6.5-3C262.6,289.8,259.4,288.4,258.9,288.2z M399.2,293.7c-1.7,0.7-5.5,6.3-17.1,25.6
		c-13.1,21.7-14.8,25.2-17.8,36.6c-2.3,8.7-2.6,12-3.1,33.9c-0.2,13.4,0,24.8,0.4,25.2c0.6,0.6,3.1-0.8,5.9-3
		c4.8-3.8,15.1-9.3,26.2-14l5.3-2.2l20.2,11.8c25.8,15,40.8,23.4,41.9,23.4c0.5,0,0.9-1.4,0.9-3.1s1.4-7.3,3.2-12.5
		c2.9-8.5,3.1-9.8,1.8-11.7c-7.6-11.9-12-22.1-15.6-35.7c-2.5-9.5-5.4-28-5.4-34.3v-6l-10.4,10c-9.7,9.4-13.9,12.2-15.1,10.3
		c-0.3-0.5,1.8-2.4,4.7-4.3c9.5-6.1,18-17.8,24.2-33.2l1.6-4l-2.1,2.5c-2.5,3-6.2,10.1-7.8,15.3c-1.4,4.2-3.9,6-8.1,5.5
		c-2.5-0.2-3.6,0.7-8.7,7.2c-3.2,4.2-7.4,9.8-9.2,12.5c-1.9,2.8-4.4,6.2-5.5,7.8c-2.3,3.2-2.4,10.6-0.1,12.3
		c1.7,1.3,1.8,5.8,0.2,12.9l-1.2,5l-5,0.3c-6.3,0.4-12.1-1.3-13.5-3.9c-2.1-3.9,0.8-16.4,4-17.4c1-0.3,2.8-2.2,4.2-4.3
		c2.2-3.5,2.3-4.2,1.5-14.2c-0.9-12.6-0.2-25,1.9-32.1l1.6-5.3l-2.5-1.8c-5.6-4.1-7-5.5-6-6.1c0.5-0.4,2.8,0.7,5.1,2.4l4.1,3l3.6-7
		c1.9-3.9,3.5-7.3,3.5-7.6C411,292.9,400.9,293,399.2,293.7z M275.9,295.6c-1.3-0.6-1.6-0.2-1.2,1.6c0.2,1.3,0.7,6.8,1.1,12.3
		l0.7,10l6.8,0.3c7.9,0.3,8.4-0.3,8.6-10.3c0.1-4.2,1.5-7.4,2.7-6.3c0.3,0.4-0.1,7.3-1.1,15.3c-0.9,8-1.5,15.1-1.2,15.8
		c0.4,1,2.1,1.1,8.1,0.3l7.6-0.9v-12.9c0-7,0.1-13.1,0.3-13.5c0.1-0.3-6.8-3-15.3-5.9C284.5,298.6,276.8,295.9,275.9,295.6z
		 M408.8,303.8l-2.5,5.8l2.4,2.8c1.2,1.5,2.3,3.5,2.3,4.4c-0.1,1.3-0.7,0.9-2.5-1.3c-3.2-3.9-3.9-2.8-5.6,8.1
		c-1.3,8.9-0.8,33.9,0.8,35.5c0.5,0.5,3.9-3.4,8.4-9.8c4.2-6,9.9-13.7,12.7-17.2c5.7-7.1,5.6-6.9,4.2-10.6c-0.9-2.2-1.3-2.4-3.1-1.5
		c-3.2,1.8-3.7,0.1-0.7-2.4l2.7-2.1l-1.2-7.5c-1-6-1.6-7.5-3-7.4c-0.9,0-3.3,0.1-5.2,0.2c-2.9,0.2-3.5,0.6-3.5,2.4
		c0,3.4-1.1,6.8-2.2,6.8c-0.5,0-0.6-2.5-0.2-6C413.4,296.3,412.1,296.3,408.8,303.8z M528.3,304.1c-0.7,0.7-0.5,3.3,0.9,8.7
		c2.3,9,5.2,15.1,7.6,15.8c0.9,0.3,3.8,1.6,6.3,2.9c4.3,2.2,5.3,2.3,11,1.5c11.7-1.7,11.4-1.9,12.2,7.5l0.4,4l12.4,5.3
		c18.6,7.9,24.6,9.8,33.9,11.1c4.7,0.6,12.1,2,16.5,3c4.4,1.1,8.1,1.8,8.3,1.6c0.4-0.3-12.9-21.5-15.8-25.3
		c-3.7-4.7-20.2-16.1-32.1-22.2c-12.9-6.6-23.5-10.5-34.7-12.6C545.2,303.5,529.7,302.7,528.3,304.1z M518.1,304.1
		c-0.3,0.1-4,0.5-8.1,1s-8.2,1-9,1.2c-0.8,0.1,4.8,4.4,12.4,9.5c7.7,5.1,14.1,9.1,14.2,8.9c0.5-0.5-6.5-17.9-7.8-19.5
		C519.2,304.6,518.5,304.1,518.1,304.1z M473.1,305c-1,0-1.8,2.3-4.1,13c-1.5,6.6-2.5,8-5.6,8c-2.8,0-4-2.3-5-10.1l-0.7-5.2
		l-2.4,3.9c-2.2,3.6-2.3,4.6-1.7,12.9c1.4,21.6,4.1,32.4,13.7,55.1c7.5,17.9,8.7,16.7,3.7-3.8c-1.8-7.2-3.5-18.1-4.2-26.1
		c-1-11.8-1.4-13.6-2.5-12.1c-2,2.8-2.9,0.6-1-2.4c3.1-4.7,4.4-8.5,7-19.2c1.4-5.8,2.8-11.3,3.2-12.3S473.8,305,473.1,305z
		 M487.4,307c-0.4,0-15.2,22.7-16.9,25.9c-2.1,4.2-1.9,17.3,0.5,31.8c2.6,15,4.2,22.3,4.9,22.3c0.4,0,2.3-5.5,4.3-12.3
		c4.7-15.7,4.6-15.3,2.8-14.8c-4.1,1.1-7,1.2-7,0.3c0-0.5,2.7-1.7,6-2.6c5.5-1.6,6.7-1.6,14.9-0.2c4.9,0.9,11.5,2.5,14.6,3.7
		c3.1,1.1,6.2,1.9,6.9,1.6s3.8-5,6.9-10.6c4.5-8,5.5-10.7,5.1-13c-0.5-2.2-0.1-3.2,1.7-4.5c1.2-0.8,2.1-1.7,1.8-2
		c-0.2-0.2-6.9-4.3-14.9-9.1c-8-4.8-15.7-9.6-17.2-10.7c-1.5-1-5.3-2.8-8.4-3.8C490.2,307.9,487.6,307,487.4,307z M555.8,339.7
		c-5-1.3-5.8-1.3-5.8-0.1c0,0.8-0.4,1.4-1,1.4c-2.4,0-0.5,2.8,4.4,6.7c2.9,2.4,5.6,4.3,5.9,4.3c1.1,0,4-9.1,3.1-9.9
		C561.9,341.7,558.9,340.6,555.8,339.7z M533.2,343.3c-1.8,2.3-12.5,21.8-12.1,22c1.4,1,9,3.9,9.3,3.6c0.5-0.6,13.6-25.7,13.6-26.1
		C544,341.9,534,342.3,533.2,343.3z M549.8,347.8l-3.7-2.9l-1.6,2.5c-0.9,1.4-1.5,3-1.3,3.5c0.3,1,11.7,13.1,12.3,13.1
		c0.1,0,0.6-2.1,1-4.6c0.5-3.7,0.3-5-1.2-6.6C554.3,351.7,551.8,349.5,549.8,347.8z M565,348c-1.5,0-5.1,7.3-6.2,12.4
		c-0.7,2.8-2,5.9-2.9,6.8c-2.1,2.1-3.6,8.6-2.3,9.7c0.5,0.5,10.1,3.4,21.4,6.5c26.4,7.4,28.8,8.2,39,12.4
		c13.8,5.7,33.3,12,51.8,16.7c9.6,2.5,17.8,4.5,18.2,4.5c0.5,0,1.1-1.9,1.5-4.3c0.4-2.3,1.4-6.7,2.3-9.7c0.8-3,1.7-8,1.9-11l0.4-5.5
		l-18.8-6.2c-24.5-8.1-37.5-11.6-55.9-15.2c-14.7-2.8-27.9-7.1-42.3-13.7C569,349.5,565.4,348,565,348z M541.9,354
		c-1.5,0-4.1,6.2-3.5,8.4c0.3,1.1,3,4.8,6,8.1l5.4,6l1.6-5.4l1.6-5.3l-5.2-5.9C545,356.7,542.3,354,541.9,354z M493.8,360.5
		l-4.7-0.6l-1.6,5.8c-0.9,3.2-3.7,12-6.2,19.6l-4.5,13.7l5.2,8.3c7.1,11.2,24.1,32.7,29.6,37.6c9.1,8,62.7,37.5,84.4,46.4
		c16.8,6.9,57.1,19,58.4,17.6c1-1.1,6.7-19.6,8.3-26.9c1.4-6.8,1.8-12.3,1.6-27c-0.2-16.6-0.5-19.6-3-29.5
		c-2.8-10.9-2.8-10.9-6.3-11.9c-8.3-2.1-36.9-11.9-43.4-14.8c-3.9-1.7-13.8-5-22.1-7.4c-8.2-2.3-20.6-5.8-27.5-7.8
		c-11.6-3.4-12.6-3.5-13.7-1.9c-0.7,0.9-1.3,2.4-1.3,3.2c-0.1,2.2-2.4,5.1-4.2,5.1c-1.9,0-4.6-3.1-9-10c-3.2-5.1-4.4-6.1-13.8-10.8
		c-5.6-2.9-12.8-5.9-15.9-6.7C501,361.8,496.4,360.9,493.8,360.5z M536,365c-0.4,0-1.3,1.3-2,2.9c-1.1,2.8-0.9,3.5,3.2,10
		c2.3,3.9,4.6,7.1,4.9,7.1c0.4,0,1.4-1.8,2.3-4.1l1.6-4l-4.6-6C538.8,367.7,536.4,365,536,365z M401.9,400.5l-2.6-1.4l-0.6,9.7
		c-1.1,16.4-0.9,21.5,0.8,20.8c0.8-0.3,3.7-0.8,6.4-1.2c8-1,8-0.9,1.2-14.3c-5.7-11.2-6.7-14.7-2.9-10.4c2.1,2.4,9.2,15.7,11.4,21.2
		l1.8,4.4l-4.9,4.3l-4.9,4.2l4.4,0.6c6.5,0.8,19,1.4,19,0.9c0-0.2-3.4-6.3-7.5-13.6c-4.2-7.2-7.7-14.1-7.9-15.2
		c-0.2-1.1-2.5-3.3-5.7-5.2C406.9,403.5,403.3,401.3,401.9,400.5z M395.2,400c-2.6,0.1-23.2,24.1-23.2,27.1c0,0.8,10,4.4,10.3,3.8
		c0.2-0.2,0.9-2.2,1.6-4.4c0.7-2.2,3.7-9.1,6.6-15.3C393.5,405.1,395.6,400,395.2,400z M380.8,406.6c-1.7,0.9-2.5,2-2.2,2.9
		c0.4,0.9-1.5,4.2-4.9,8.3c-6,7.4-15.2,21-14.6,21.6c0.2,0.2,2.5,1,5.2,1.9l4.7,1.6v-8.4c0-9.3,0.3-9.9,12.3-23.8
		C386.2,405,386,403.7,380.8,406.6z M395.8,407c-0.8,0-6.9,13.7-9.2,20.5c-1.5,4.5-2.8,6.9-3.7,6.8c-0.8-0.1-2.5-0.5-3.9-0.8
		c-2.3-0.6-2.7-0.2-4.3,4.3c-2.7,7.4-3.7,8.5-6.8,7.3l-2.6-0.9l-0.6,12.7c-0.6,13.4-4.1,33.1-8.2,47.1c-1.3,4.7-2.5,8.8-2.5,9.1
		c0,1.6,32.3,8.2,48.6,10c11.4,1.2,37.1,1.5,38.2,0.4c0.3-0.3-0.9-7-2.8-14.8c-1.9-7.8-3.6-16.1-3.8-18.4c-0.4-3.9-0.1-4.3,3.9-7.2
		c2.3-1.7,4.9-3.1,5.8-3.1c2.4,0,16.9,15.5,24.1,25.7c3.5,5.1,6.5,9.1,6.7,8.9c0.2-0.1-1.1-4-2.8-8.7c-9.2-24.9-10.2-28.3-10.8-37.9
		l-0.6-9.5l-8.3-1.7c-5.3-1-9.2-2.4-10.6-3.7c-1.2-1.2-5.2-2.7-9.4-3.6c-8.9-1.8-11-2.9-12.2-6.1c-0.9-2.2-1.5-2.4-7.5-2.4
		c-7.4,0-10.5-1.2-10.5-4c0-3.8-1-4.9-3.6-4c-3.5,1.4-3.8-0.1-3-14.1C395.8,412.4,396,407,395.8,407z M370.9,412.8
		c-3.3,2.2-5.4,4.2-5.1,5c0.2,0.8-1.2,3-3.1,5c-4.4,4.5-14.7,17.4-14.7,18.4c0,0.6,8.5,4.8,9.8,4.8c0.3,0,0.1-0.5-0.6-1.2
		c-3.1-3.1-1.3-7.1,8.9-20.8c5.5-7.4,10.3-13.8,10.6-14.3C377.4,408.5,376.7,408.9,370.9,412.8z M417.4,410c-0.1,0,2.2,4.1,5.2,9.1
		s7,12.2,8.9,16c3.1,6.1,3.3,6.9,1.9,8.3c-0.8,0.9-2.5,1.6-3.6,1.6c-1.2,0-1.9,0.2-1.7,0.4c0.8,0.8,23.9,5.4,23.9,4.7
		c0-0.3-4.3-6.9-9.5-14.6s-9.5-14.3-9.5-14.7c0-2.6,3,0.9,11.6,13.4c9.6,14.1,12,18.8,9.3,18.8c-0.8,0-0.9,0.3-0.4,0.9
		c0.6,0.5,4.3,1.2,8.3,1.6c7.3,0.7,8.8,0.1,5.7-2.5c-2.3-1.9-19.5-23.6-19.5-24.6c0-1.1-1.4-2-17.4-11.1
		C423.5,413.3,417.6,410,417.4,410z M470.9,411c-0.8,0-5,13.3-5.6,17.9c-0.5,3.5-0.1,3.9,6.6,9.9c4.1,3.7,7.1,7.2,7.1,8.2
		c0,1.1-1.4,3-3.1,4.2c-2.3,1.7-2.9,2.8-2.4,4.5c0.4,1.9,0,2.5-2,3.3c-1.5,0.6-3.8,1-5.2,1h-2.6l0.6,7.2c0.5,6.5,6.1,25.2,13,43.3
		l1.6,4V504c0.1-11.1,1.7-31.8,2.7-34.3c0.5-1.5,12-4.8,14-4c2.1,0.8,9.3,19,22,55.3c3,8.5,5.8,15.7,6.2,16.1
		c0.4,0.3,6.3,2.3,13.2,4.5l12.5,3.8l32,0.7c20.1,0.5,35.5,1.3,41.5,2.3c9.4,1.5,9.5,1.5,11.6-0.7c2.1-2.1,13.4-22.2,13.4-23.7
		c0-0.4-2.6-1.3-5.7-2c-16.2-3.5-50.5-16-67-24.3c-13.8-7-40.5-25.3-51.2-35.2c-5.2-4.7-13.6-12-18.6-16.1
		c-9.5-7.6-21.6-19.7-29.5-29.7C473.5,413.6,471.2,411.1,470.9,411z M663.4,417.7c3.6,15.7,4,19.5,4,39.3c0,22.3-0.7,27.1-6.4,44.7
		c-1.7,5.3-3,9.6-2.8,9.8c0.2,0.1,1.9,0.5,3.9,0.9l3.6,0.6l2.2-7.5c1.2-4.1,3.3-15,4.7-24.2c2.1-13.8,2.5-19,2-28.8
		c-0.5-12.5-4.3-30.9-7.2-35.2C665.2,413.9,662.6,414.2,663.4,417.7z M362.3,419c-1.4,0.1-16.2,13.4-15.9,14.4
		c0.6,2.5,2.8,1,9.5-6.4C359.9,422.6,362.8,419,362.3,419z M452.7,430c-0.8,0,16.1,20.4,17.2,20.8c0.4,0.1,1.7-0.8,3-2.1l2.2-2.4
		l-5.8-5c-3.2-2.8-8.1-6.4-10.9-8.2C455.6,431.4,453,430,452.7,430z M527,460.3c0,0.9,18.3,14.7,28,21c13,8.5,39,21.4,53,26.2
		c17.3,6,47.6,14.4,61.5,17.1c7.1,1.3,14,2.7,15.1,2.9c2,0.4,2.2,0,2.6-4c0.3-4.3,0.2-4.5-2.7-5c-18.3-2.7-26.4-4.3-41-8
		c-15.5-4-30-8.5-46-14.5c-10-3.8-39.2-18.2-52.3-25.8C531.7,462.3,527,459.8,527,460.3z M488,470.4c-3.4,1.2-3.5,1.4-4.2,8.2
		c-0.7,8.2-1.2,39.4-0.5,40c0.2,0.3,1-2.8,1.6-6.8c2.5-16.2,7.1-39.2,8.1-40.2c0.5-0.5,1-1.4,1-1.8C494,468.7,492.2,468.9,488,470.4
		z M494.7,472.7c-0.2,0.4-0.8,3.1-1.2,5.9c-0.6,4.5-0.3,5.9,2.4,11.2c4.9,9.7,11,25.8,13.9,36.6c2.5,9.3,2.9,10,5.7,10.7
		c1.6,0.5,3.1,0.7,3.3,0.5c0.2-0.3-1.9-6.9-4.6-14.8C506.3,500.1,495.3,471.8,494.7,472.7z M443.4,483c-0.7,0-2.6,1.1-4.2,2.5
		c-2.3,1.9-2.8,3.1-2.5,5.2c1.9,11,14.7,60,19.7,75.3c4.3,13.2,10.7,29,11.7,29c0.6,0,1.9-0.5,3-1.1c2.6-1.4,2.7-1-8.2-33.8
		c-11.4-34.6-21.5-73.8-19.5-75.9c1.1-1,2.4,1.7,3,6.3c0.6,3.5,1.6,4.9,7.1,9.6c3.5,2.9,9.7,9.2,13.7,13.7
		c6.7,7.8,12.8,13.3,12.8,11.6c0-0.4-1.9-3-4.3-5.8s-7.2-8.9-10.7-13.6s-9.5-11.8-13.4-15.8C447.8,486.3,444.1,483,443.4,483z
		 M494.8,496l-2.4-5.5l-2.7,14.1c-3.3,17.5-3.4,20.4-0.6,21.1c1.1,0.3,5.7,2.3,10.1,4.5c4.5,2.1,8.3,3.7,8.5,3.4
		c0.6-0.6-2.4-10.6-6.7-22.1C498.9,506,496.1,499,494.8,496z M452.1,502.1l-3.8-3l2.5,10.7c1.3,5.9,2.8,11,3.1,11.5
		c0.7,0.6,8.8-0.5,12.9-1.9c0.9-0.3-0.7-2.8-4.8-7.4C458.6,508.2,454.1,503.7,452.1,502.1z M364.2,519.1l-11.4-2.9l-1.4,3.4
		c-3.6,8.6-3.7,8.5,7.8,12.7c20.6,7.5,38,10.1,66.6,10c10.6,0,19.4-0.2,19.7-0.5c0.3-0.2-0.3-3.8-1.3-7.9l-1.8-7.4l-14,0.3
		c-10.6,0.2-18.5-0.3-33.4-2.2C384.3,523.2,370.4,520.7,364.2,519.1z M468.2,522.1c-2.7,0.1-12.4,1.9-13,2.4
		c-0.4,0.4,3,13.9,3.7,14.7c0.3,0.4,4.4-0.3,9.1-1.6l8.5-2.3l0.3-4c0.3-3.5-0.1-4.4-2.8-6.7C472.1,523.1,469.7,522,468.2,522.1z
		 M652,524.7c0,0.5-3.1,6.3-6.8,12.9c-4.2,7.3-7.1,13.5-7.4,16.1c-0.5,3.8-0.4,4.1,1.9,4.6c2.8,0.5,3.4-0.3,14.3-19.7
		c3.7-6.6,6.5-12.4,6.2-12.8C659,524.7,652,523.7,652,524.7z M346.2,531.1c-2.1,0.1-30.3,6.9-38.7,9.3c-3.3,0.9-12.4,3.9-20.2,6.7
		c-14.1,4.9-14.2,4.9-27,4.9c-21.2,0-43.7,1.9-60.1,5c-18.2,3.5-23.2,4.9-23.2,6.5c0,4.6,14.7,37.8,16.5,37.2c3.1-1.3,27-8.8,35-11
		c9.4-2.7,32.7-8,40.5-9.2c3.2-0.5,10.4-4.2,25-13c11.3-6.7,21.9-13,23.7-13.9c3.7-1.9,5.5-0.4,2.1,1.7c-1.3,0.8-11.7,7.1-23.3,14
		l-21,12.6l-13.5,2.6c-7.4,1.5-19.3,4.2-26.5,6.1c-17.6,4.7-47.5,14.5-47.5,15.6c0,3.2,27.9,31.8,31,31.8c0.7,0,2.4-0.8,3.8-1.9
		c11.9-8.3,73.5-37,79.6-37.1c2.9,0,0.2,2.7-4.2,4.1c-6.5,2.1-48.4,20.9-57.2,25.6c-4.7,2.6-12.1,6.9-16.4,9.7l-7.9,5l3.4,2.8
		c8.2,6.9,25.9,18.5,36.5,24l11.4,5.9l14.8-13.8c8.1-7.6,17.6-16.3,21.2-19.4c10.2-8.9,39.2-31.9,40.2-31.9c2.3,0-0.4,2.6-13.8,13.5
		c-21.8,17.7-62.4,54.4-62.4,56.4c0,0.7,6.6,2.9,24.5,8.2c11.3,3.3,30.9,7.4,40.1,8.5l6.2,0.6l1.7-5.3c5.8-17.5,31.5-74.5,37.5-82.9
		c4.8-6.8,3.6-2.2-2.9,10.7c-19.5,39-37.1,82.8-33.8,83.8c0.7,0.2,6.7,0.9,13.3,1.5c9.1,0.9,15.4,0.9,25,0.1
		c18.8-1.6,38.8-4.2,39.8-5.2c0.6-0.5,1.2-22.1,1.5-50.5c0.4-33.5,0.9-49.8,1.7-50.1c1.2-0.4,1.2,80.6-0.1,96.1l-0.8,9.9l8.9-0.6
		c16.2-1.2,57.1-10.1,71.7-15.6c2.6-1,2.7-1.2,1.3-3.3c-4.8-7.6-42.6-78.1-42.6-79.5c0-3.8,4.1,2.9,21.5,35.2
		c9.8,18.1,19,35.1,20.4,37.7c1.4,2.7,3,4.8,3.4,4.8c0.9,0,30.6-17.7,34.1-20.3c1.7-1.3,1.1-1.8-8-6.7
		c-13.6-7.2-22.7-13.4-25.6-17.3c-8.1-10.5-16-33.9-24.8-73.2c-2-8.6-2.4-9.6-3.2-7.5c-0.6,1.4-1.2,8.3-1.4,15.5
		c-0.7,18.6-0.9,19.4-4.9,21.1c-6.7,2.8-6.6,2.8-13.2-14.9c-3.4-8.9-7.5-21-9.3-26.9c-3.2-10.6-3.4-10.7-5.9-10.1
		c-4.9,1.4-34.4,0.7-46.6-1.1c-21.6-3-23.9-3.5-36.8-8.1C353.7,533,347.1,531,346.2,531.1z M493.6,541.5c-10.9-9.7-12.6-8.3-9,7.2
		C487,559.4,497,589.4,500,595c0.6,1.1,5.3,5.5,10.4,9.8c7.3,6.1,13.3,10,26.3,16.7c9.2,4.8,20.8,11,25.6,13.8l8.8,5l4.5-4.4
		c2.5-2.4,10.2-10.6,17.1-18.2c10.3-11.4,12.1-13.8,10.6-14.4c-1-0.3-7-2.6-13.3-5.1c-6.3-2.4-23.2-8.8-37.5-14.2
		s-30.5-11.9-36.1-14.3c-5.5-2.5-11.8-5.3-13.9-6.1c-2.7-1.2-3.5-2-2.8-2.7c1.2-1.2,10,2,23.3,8.6c12.8,6.4,14.4,6.4,5.5,0
		c-4.4-3.2-12.2-9.2-17.3-13.2C506,552.2,498.1,545.5,493.6,541.5z M491,535.4c0,1.9,43.1,35.6,52.6,41.2c2.2,1.3,24.3,10.2,49,19.8
		c24.7,9.5,48.5,18.7,52.9,20.5c4.4,1.7,14.2,5.3,21.8,8.1l13.8,5.1l3.4-2.1c2.5-1.5,3.5-2.9,3.5-4.6c0-1.4,0.7-2.7,1.5-3
		c2.4-1,1.7-4.9-1.3-8.2c-3.3-3.5-11.8-6.4-32.7-11.2c-18.6-4.2-41.6-10.5-89.7-24.6c-20.6-6-22.4-6.9-47.2-24.3
		c-8.2-5.7-17.5-11.9-20.7-13.7C492.4,535.1,491,534.5,491,535.4z M514,539.5l-13.5-3.3l3,2.4c5.5,4.5,37,25.1,42,27.6
		c14.5,7.2,51.8,17.2,66.5,18l6.4,0.3l8.3-14.4c4.6-8,8.3-15,8.3-15.6c0-2.1-29.6-4.7-57-5.1c-30.2-0.4-31.2-0.5-42.1-4
		C531.3,543.9,521.4,541.2,514,539.5z M475.7,538.1c-0.1,0.1-3.5,1.1-7.4,2.2c-5.3,1.4-7.3,2.4-7.3,3.6c0,0.9,1.5,6.2,3.4,11.6
		l3.3,10l2.6-8.5c1.4-4.7,3.2-10.9,4.1-13.8C475.2,540.4,475.8,538.1,475.7,538.1z M483,553c-0.9-3.6-1.9-5.8-2.2-5
		c-0.2,0.8-0.1,2.8,0.3,4.5c0.4,1.6,3,12.7,5.8,24.5c8.8,36.7,16.2,56.1,24.5,64.4c4.1,4.2,11.8,8.7,44.6,26.1
		c18.8,10,27.9,15.9,36.5,23.7c6.5,5.9,27.4,23.4,34.1,28.6c4.3,3.3,6.4,4,6.4,2.1c0-0.6,3.9-2.9,8.7-5.1l8.7-4.1l-3.3-2.6
		c-1.9-1.4-11.4-8.2-21.2-15.1c-27.7-19.4-52.5-34.5-66.6-40.6c-6.9-3-18.8-8.6-26.5-12.6C512,631.2,509,627.1,496.5,594
		c-3.4-9.1-7.4-20.6-9-25.5C486,563.5,483.9,556.6,483,553z M637.8,560.5c-1.8-0.7-3.4,1.4-9.8,13c-1.9,3.3-4.2,7.3-5.3,8.8
		c-1.9,2.8-1.9,2.8,0.2,3.4c1.4,0.3,2.1,1.3,2.1,2.8c0,1.8,0.7,2.5,3,3c3.9,0.9,4.6,0.3,11.8-10.3c6.1-9,9.2-14.4,9.2-16.1
		c0-0.6-2.1-1.7-4.7-2.5C641.6,561.8,638.7,560.9,637.8,560.5z M175.8,574.1c-0.7,0-4,0.7-7.3,1.4c-3.3,0.8-6.6,1.4-7.2,1.4
		c-0.7,0.1-1.3,0.7-1.3,1.4c0,1.9,7.3,16.7,11.5,23.2c3.7,5.8,3.7,5.8,9.3,3.8c0.6-0.3,1.2,0,1.2,0.6c0,0.7-2,2.1-4.5,3.2
		c-2.5,1.1-4.5,2.4-4.5,2.8c0,2.2,11.1,16,21.8,27.1l12,12.5l3.2-1.8c4.7-2.6,4.9-1.2,0.5,3.3l-3.9,4l3.9,4.1
		c8.1,8.4,22,18.9,32.3,24.4l5.3,2.9l3-3.7c1.7-2,3.5-3.7,4-3.7c2,0,0.7,2.5-4.1,8s-4.9,5.8-3.1,7.4c2.8,2.5,19.4,8.8,35,13.2
		l6.4,1.7l3.8-4.4c2.1-2.4,3.9-4.7,3.9-5.2c0-0.4,0.5-0.7,1-0.7c2.1,0,0.8,3.2-3.5,9.2c-2.5,3.4-4.5,6.5-4.5,6.9
		c0,0.7,2.3,1.2,20.5,3.9c8.9,1.4,18.2,2,29.6,2c17.8,0,18.1-0.1,19.4-5.2c0.4-1.5,1.3-3.2,2.1-3.9c2.1-1.7,1.8,1.9-0.6,7.6
		c-1.1,2.6-2,4.9-2,5.1c0,1.7,28.7-0.5,44-3.4l9.5-1.9l0.6-3.7c0.3-2,1.2-4.2,1.9-4.9c1-1,1.1,0,0.7,4.9c-0.4,3.3-0.9,6.9-1.3,7.9
		c-0.7,1.6-0.2,1.7,6.2,1.1c14.2-1.5,32.2-4.6,40.8-7.1c13-3.8,12.7-3.5,12-10.3c-0.9-8.6-0.4-8.3-8.6-6.1c-4,1-14.9,2.8-24.2,4
		c-17.6,2.2-21.6,1.9-21.6-1.7c0-1.1-0.5-1.4-1.7-0.9c-5.3,2-31.3,4-51.3,3.9c-24-0.1-27.3-0.7-27.8-4.7c-0.3-2.1-1-2.7-3.5-3.1
		c-1.8-0.2-6.7-0.9-11-1.5c-10.1-1.4-32.4-7-46.2-11.6c-12-4-14.2-5.2-12.5-6.9c0.5-0.5,1-1.4,1-1.8c0-0.4-4.2-2.9-9.2-5.4
		c-5.1-2.6-11.8-6.2-14.8-8.2c-9.3-5.9-28-20.3-28-21.6c0-0.7,0.5-1.7,1.2-2.4c0.9-0.9-1.6-3.9-11.5-13.3
		c-12.6-12-18.7-19.3-18.7-22.4c0-0.8,1.1-2,2.5-2.5l2.4-0.9l-2.3-5.3c-1.3-2.9-4.2-9.2-6.4-14.1C179,577.9,176.5,574,175.8,574.1z
		 M510,607.9c-4.4-3.8-8-6.8-8-6.6c0,0.3,2.2,5.2,4.9,11c7.9,16.8,11.6,19.8,41.5,33.7l12.8,6l5.9-3.3c3.2-1.7,5.9-3.4,5.9-3.7
		c0-0.7-32.6-18.9-44.8-24.9C521.2,616.5,515.5,612.8,510,607.9z M609,605.6c-1.1-0.5-4.3,2.4-10.9,9.9c-5.1,5.8-9.2,10.8-9,11
		s3.1,1.5,6.4,3l6,2.7l9.7-10.4c5.4-5.7,9.8-10.6,9.8-10.9s-2.4-1.5-5.2-2.7C612.9,607.1,609.8,605.9,609,605.6z M587,629
		c-0.3,0-3.4,2.8-6.8,6.3c-6.2,6.3-6.3,6.3-4.3,8.1c2.7,2.4,2,3.3-5,6.3c-3.2,1.4-5.9,2.9-5.9,3.2c0,0.4,2.9,2.2,6.4,4.1l6.4,3.4
		l7.3-5.7c10.1-7.7,20.5-17.4,19.8-18.1c-0.4-0.4-4.4-2.2-9-4.1C591.3,630.6,587.3,629,587,629z M546.8,665.8
		c-1.1-0.5-5.1,1.4-12.5,5.8c-5.9,3.6-11.3,7.1-12,7.7c-0.9,0.9-0.3,2.6,2.8,7.4c2.2,3.5,4.5,6.3,5.2,6.3c1.1,0,11-5.3,26.5-14
		c3.4-1.9,6.2-3.8,6.2-4.2s-3.3-2.5-7.2-4.5C551.8,668.2,547.7,666.2,546.8,665.8z M517.7,682.1c-2.5,0.2-9.6,5.5-9.9,7.4
		c-0.2,1.6-3,2.8-16.3,6.6l-16,4.6l0.3,6.9c0.2,3.8,0.7,7.2,1.1,7.6c0.9,1,38.9-11.7,45.5-15.3c6.3-3.4,6.3-2.6-0.1-12.6
		C520.5,684.4,518.4,682,517.7,682.1z M529.5,699.1c-0.5,0-2.8,1.2-5,2.6c-5.1,3.4-34.8,13.7-48.5,16.9c-18.6,4.3-28.4,7-35,9.9
		c-7.4,3.1-28.9,13.9-37,18.7l-5.5,3.2l6.9,1.7c3.7,1,7.3,2.3,8,2.9c1.1,1.3-1.2,1.2-12.2-0.6c-4-0.6-4.6-0.4-6.8,2.2
		c-1.3,1.6-2.3,3.4-2.4,4c0,0.6,3.2,4.3,7.1,8.3c3.9,4.1,8.5,9.7,10.2,12.5s4.1,6,5.3,7.1c2.7,2.4,5.4,11.1,5.4,17.6
		c0,3.9-0.4,4.9-2,5.4c-1.5,0.5-2,1.5-2,4.5c0,3.3,0.3,3.8,2.6,4.3c4.1,0.8,9.2-1.1,11.1-4.1c0.9-1.5,1.9-2.9,2-3.2
		c0.2-0.2,3.9-0.7,8.1-1.1c8.9-0.8,15.8-3.4,29.6-11.4c5.3-3,10-5.5,10.6-5.5c2.9,0,0,2.4-8.7,7.4l-9.6,5.4l3.7,1.6
		c2,0.8,9.8,3.2,17.4,5.3c12.8,3.5,14.6,3.8,27.7,3.8c21.7,0,23.7-1.9,24.3-22.8c0.2-7,0.8-12.7,1.2-12.7c0.5,0,1.1,3,1.5,6.7
		c0.3,3.8,0.7,7.5,0.8,8.3s1.4,1.6,2.8,1.8c2.1,0.2,3.4-0.6,5.8-3.4c4.8-5.9,6.3-11.4,6.8-25.9c0.6-15.7-0.5-21.2-7.3-34.7
		c-6-11.9-7.2-15.6-7.9-23.1c-0.5-5.4-1.1-6.7-4.2-10C532.2,700.7,530.1,699,529.5,699.1z M539.8,702c-1.6,0-1.6,0.3,0.2,3.2
		c1.4,2.3,1.8,4.3,1.4,6.8c-0.4,3.1,0.4,4.9,7.3,15.5c6.2,9.4,10,13.9,17.7,21c5.4,4.9,10.9,10.6,12.2,12.5c3.1,4.4,3.1,3.3,0-2.8
		c-3-6-7.8-19.2-11.2-30.7c-1.4-5-3.3-10.2-4-11.8c-2.5-4.7-3.2-2.9-1.1,3c1,3.2,2.1,8.2,2.4,11c0.5,4.9,0.4,5.3-1.6,5.3
		c-2.4,0-9.6-6.1-11.6-10c-0.7-1.4-1.9-5.5-2.5-9c-1.3-7.4-2.4-9.8-5.4-12.2C542.5,702.8,540.7,702,539.8,702z M400.5,726.6
		c-3.3,0.7-14.1,1.8-24,2.3c-16.2,0.8-18.2,0.7-19.5-0.8c-1.2-1.3-3.9-1.7-13.2-1.9l-11.7-0.4l-5.9,11.9c-3.3,6.5-8.2,17-11,23.3
		c-2.7,6.3-7.6,17.3-10.7,24.5c-5.3,12-14.4,43-14.5,49c0,2.5,6,8.8,10,10.5c2.5,1,4.9,0.8,15.7-1.3c7-1.5,15.1-2.9,17.8-3.3
		c6.8-0.9,20.8-5.4,33.5-10.8l10.5-4.5l-0.3-3.8c-0.2-3.7-6.5-17.7-9.8-21.8c-1.5-2-1.5-2-3.7,0.6c-1.2,1.4-5.3,6.2-9.1,10.8
		c-7.2,8.4-13.6,14.1-13.6,12c0-0.6,2.9-4.2,6.4-7.9c6.7-7.1,18.2-21.9,25.6-33c2.4-3.6,10.5-14.8,18-25c16.9-22.9,21-28.8,21-30.6
		C412,724.7,408.8,724.8,400.5,726.6z M546.3,729c-1.6,0,6,10.8,11,15.6c5.8,5.6,5.9,5.6,1.5,0.8c-2.5-2.8-6.2-7.6-8.3-10.7
		C548.4,731.6,546.5,729,546.3,729z M560.6,751.5c-7.9-6.7-8-6.2-0.6,8.5c2.7,5.3,6,13.5,7.4,18.2c3.2,10.4,5.5,13.9,12.4,19
		c4.9,3.6,5.2,3.7,5.2,1.7c0-1.2-1.2-6.8-2.6-12.3c-2.9-10.8-7.6-21.2-12.1-26.2C568.8,758.6,564.4,754.6,560.6,751.5z M569.2,754.4
		l-5.7-4.8l6.1,6.4c3.3,3.6,6.6,7.6,7.3,8.8c0.7,1.3,1.5,2.1,1.8,1.8s-0.4-2-1.6-3.9S572.4,757.1,569.2,754.4z M558.6,763l-1.5-3.5
		l-0.1,8.8c0,5.9,0.5,9.7,1.5,11.7c0.8,1.5,2.9,7.7,4.6,13.7c1.7,5.9,4.2,12.9,5.6,15.4l2.4,4.6l5.7-0.4c3.1-0.3,6.2-0.6,6.9-0.8
		c1.3-0.4,3.6-4.4,4.8-8.3c0.6-2.1,0.5-2.2-1.3-1.1c-1.7,1.1-2.8,0.6-8.5-3.4c-8.5-6.1-10.1-8.4-14.7-22
		C561.9,771.6,559.5,764.9,558.6,763z M390,764c-0.4,0-3.2,3.5-6.3,7.7c-5.3,7.4-5.5,7.9-3.9,9.5c1.6,1.7,2.2,1.5,10.5-2.4
		c4.8-2.3,8.7-4.7,8.7-5.2c0-0.6-1.9-3-4.2-5.3C392.5,765.9,390.3,764,390,764z M583.9,770.7c-3.3-6.9-3.2-6.9,1,6
		c1.7,5,3.8,13,4.7,17.7c1.5,7.5,1.5,9.2,0.3,12.8c-2.3,6.9-3.6,7.9-12,8.8c-4.1,0.4-8.6,1.3-9.9,2c-2.9,1.5-9,7-9,8.2
		c0,0.5,1.6,1.6,3.5,2.5c3,1.4,4,1.5,7.7,0.4c9.6-2.9,16.3-8.6,20.1-17c1.6-3.8,1.9-5.8,1.4-12.5c-0.4-4.5-1.6-11.4-2.7-15.4
		C587.8,780.2,585.5,774.1,583.9,770.7z M579.8,769c-0.6-1-0.7-0.7-0.2,1c0.3,1.4,1.1,3.2,1.6,4c0.6,1,0.7,0.7,0.2-1
		C581.1,771.6,580.3,769.8,579.8,769z M402.5,776.3c-0.6-0.1-5.2,1.7-10.3,4.2l-9.2,4.4l2.7,5.5c1.5,3.1,3,5.6,3.3,5.6
		c1.7,0,20.5-7,20.7-7.7c0.2-0.4-1.2-3.2-3-6.2S403,776.5,402.5,776.3z M378.1,783.6c-2.1-1.9-2.5-1.5-7.9,6.5l-3.1,4.6l2.6,3.6
		l2.5,3.6l2.9-2.1c2.3-1.7,3.6-2,7.4-1.5l4.6,0.7l-3.6-6.9C381.5,788.3,379,784.4,378.1,783.6z M561.1,797c-1.1-4.1-2-6.7-2-5.7
		c-0.1,1-1.1,4.1-2.2,6.8c-1.8,4-2.6,4.9-4.6,4.9c-1.9,0-2.4,0.4-1.9,1.6c0.4,0.9,1.1,3.7,1.8,6.3c0.6,2.5,2.2,6.1,3.5,7.9l2.5,3.3
		l3.3-3c1.9-1.6,4.2-3.2,5.3-3.5c1.9-0.6,1.9-0.9-0.8-5.9C564.4,806.8,562.2,801.1,561.1,797z M412.3,791.1
		c-1.7,0.2-21.3,6.8-22.2,7.5c-0.2,0.2,0.3,1.2,1.2,2.2c1,1,1.7,3,1.7,4.4c0,2.4,0.2,2.5,11.3,3.5c6.3,0.6,11.7,0.7,12.3,0.2
		c1.1-0.9,0.1-11-1.7-15.6C414.4,792,413.3,791.1,412.3,791.1z M376.4,802.5c-1.9,1.4-1.9,1.5,0.4,3.3c1.8,1.4,2.1,2.3,1.6,5
		c-0.6,2.9-0.4,3.2,1.8,3.2c2.5,0,5.6-2.7,7.7-6.7c1.7-3.3,1.4-4-2-5.2C381.6,800.6,378.7,800.7,376.4,802.5z M391.6,812
		c-0.8-2.5-1.4-4-1.5-3.3c-0.2,2.1-6.2,8.3-8.1,8.3c-2.5,0-2.9,0.9-1.8,4.8c0.8,2.9,1.2,3.2,3.6,2.6c4.4-1,8.7-3.9,9-6
		C392.9,817.4,392.4,814.5,391.6,812z M397.3,810.6c-1.8-0.3-3.3-0.3-3.3,0s0.5,2.5,1.1,4.9c1.1,4.2,1.5,4.6,6.8,6.6
		c3.1,1.1,6.7,2.1,8.1,2.2c2.4,0.2,2.5,0,2.5-5.8v-6l-6-0.7C403.2,811.4,399,810.9,397.3,810.6z"/>
	<path d="M264.8,84.2c0.7,0.7,2.7,1.7,4.4,2.2c1.8,0.6,3.4,1.8,3.6,2.8c0.7,3.4-10.9,13.1-13.7,11.4c-0.5-0.3-1.2-3.5-1.6-7.2
		c-0.6-5.5-0.4-6.9,1.1-8.5C260.6,82.7,263,82.4,264.8,84.2z"/>
	<path d="M410,245.5c0,0.8-0.4,1.5-0.9,1.5c-1.3,0-2.2-1.6-1.4-2.4C408.8,243.5,410,244,410,245.5z"/>
	<path d="M324.4,253.2c1.3,2.1-0.9,9.7-3,10.5c-1.9,0.7-8.4-5.4-8.4-7.8c0-2.2,1.9-3.6,5.5-4.2C322.5,251.2,323.2,251.3,324.4,253.2
		z"/>
	<path d="M391.6,491.6c-0.3,0.8-1,1.4-1.6,1.4c-1.1,0-0.4-10.1,0.8-13C391.6,478.2,392.3,489.7,391.6,491.6z"/>
</g>
</svg>
