<?xml version="1.0" encoding="utf-8"?>
<!-- Generator: Adobe Illustrator 21.0.0, SVG Export Plug-In . SVG Version: 6.00 Build 0)  -->
<svg version="1.1" baseProfile="tiny" id="图层_1"
	 xmlns="http://www.w3.org/2000/svg" xmlns:xlink="http://www.w3.org/1999/xlink" x="0px" y="0px" viewBox="0 0 850 850"
	 xml:space="preserve">
<g transform="translate(0.000000,0.000000) scale(1.00000,1.00000)">
	<path d="M1,0c0.6,0,1,0.4,1,1c0,0.5-0.4,1-1,1C0.5,2,0,1.5,0,1C0,0.4,0.5,0,1,0z"/>
	<path d="M307.2,0h3.2l-2.6,2.7c-1.4,1.6-4,5.2-5.8,8c-1.7,2.9-3.6,5.3-4,5.3c-0.5,0-2.4-0.9-4.2-1.9C284,8.4,266,12,253.1,22.3
		c-10.9,8.7-21.2,23.8-26,38.2c-2.7,8.3-5.7,24.2-4.7,25.2c0.2,0.3,1.4-0.1,2.6-0.7c2-1.1,2.1-1,1.5,1.2c-1.4,4.7-3.4,6.4-11.4,9.6
		c-13.1,5.2-24.6,6.1-42.5,3.1c-3.2-0.6-6.1-0.8-6.4-0.5c-1.2,1.2,14.9,7.6,23.1,9.2c4.8,1,8.4,2,8,2.4c-0.4,0.4-4.8,3.3-9.7,6.5
		c-16.3,10.7-35,30.6-45.7,48.6c-3.7,6.2-10.5,23.6-9.6,24.5c0.2,0.2,2.4-2.7,5-6.4c6.4-9.3,17-19.6,27.4-26.4
		c4.7-3.2,8.8-5.6,9-5.4s-1.5,3.3-3.7,7.1c-5.1,8.3-9.7,19.6-11.6,28.3c-1.5,7.1-3.1,27.1-2.1,26.2c0.4-0.3,2.3-5.3,4.3-11
		c1.9-5.8,5.4-14.1,7.7-18.4c6.9-13.4,19.5-29.3,25.3-32.1c1.9-0.9,7.5-5.2,12.5-9.6c4.9-4.3,9.8-7.9,10.7-7.9
		c0.9,0.1,4.4,0.7,7.7,1.5c13.6,3.3,31.9,1.4,47.5-4.9c5.8-2.4,12-6.9,12-8.7c0-0.4-2.1-2.1-4.8-3.7c-14.6-9-22.4-24.6-22.6-45.7
		C256.5,59.9,258.5,52,265,39c5.1-10.1,14.9-18.9,19.8-17.7c1.3,0.3,1.1,0.6-1,1.5C270,28.5,258.1,57.3,261,77.9
		c1.5,10.9,6.3,22.7,12,30.1l2,2.5v-8c0-4.4,0.7-11.2,1.5-15c1.7-8.1,11-27.5,13.1-27.5c1.2,0,1.2,0.6-0.2,3.7
		c-7.5,17.4-9.6,25.2-9.6,36.3c-0.1,6.3,0.5,8.7,3.1,14.7c3.7,8.4,3.3,10.4-2.6,15c-8.9,7.1-22.4,11.3-35.8,11.3
		c-10.1,0-15.6,1.6-24.3,7c-24.9,15.6-38.2,35.4-42.2,62.8c-1.6,10.6-0.3,18.2,4.9,28.8c3.6,7.3,14.9,21.4,17.1,21.4
		c0.4,0-0.4-3.3-1.8-7.3c-2.4-6.4-2.7-8.6-2.6-20.2c0-11.7,0.3-13.8,2.8-20.5c4-10.8,12.3-25.5,17.6-31c2.5-2.6,7.2-6.1,10.5-7.7
		c6.5-3.2,18.3-6.8,19.3-5.9c0.3,0.4-0.9,2.5-2.6,4.9c-10.1,13.3-13.5,36.2-8.1,53.7c2.3,7.6,4.2,11.9,4.9,11.5
		c0.4-0.2,1-4.2,1.3-8.8c0.8-10.4,2.6-16.2,6.6-22c4.5-6.6,8.9-9.6,15.8-10.8l5.9-1l1.3-6.2c3.9-19.1,15.7-36.7,33.5-49.9
		c10.6-7.9,21.6-13.4,21.6-10.7c0,0.5-0.4,0.9-0.9,0.9s-5.1,2.8-10.2,6.2c-16.8,11.2-29.4,26.2-35.4,42.2c-1.4,3.8-2.4,7-2.3,7.2
		c0.2,0.2,2.5-2.6,5.1-6.1c8.9-12,28.8-26.1,41-28.9c5-1.2,2.9,1.3-3.7,4.3c-14.2,6.4-29.9,19.6-33.6,28.3
		c-1.9,4.5-2.2,6.4-1.7,13.3c1,15.7,7.3,26.3,22.1,37.4c5.2,3.9,9.7,7.1,10.1,7.1s-1.2-2.2-3.4-4.9c-10.9-13-15.5-24.8-15.6-39.6
		c0-11.9,1.8-18,7.6-25.8c3.8-5,6.8-6.9,6-3.7c-4.2,16.8,8.7,45.3,28.1,62.1c7.7,6.7,13.8,11.2,14.3,10.7c0.2-0.2-1.2-2.7-3.1-5.5
		c-13.5-20.1-18.3-42.5-13.6-62.3c1.1-4.7,3.1-10.8,4.3-13.5c3.3-7.4,3.5-3.3,0.6,11.9c-2.6,13.1-2.5,16.2,0.6,22.2
		c2.5,4.9,12.1,13,20,16.9c7.3,3.6,20.7,7.9,20.6,6.7c0-0.4-2.7-3-6-5.7c-6-5-13.9-14.2-13.9-16.3c0-1.2,19.1,6.9,39.7,16.8
		c12.7,6.1,25.5,14,35.2,21.8l3.4,2.7l-0.7-2.5c-1.9-6.3-12-25.5-18.7-35.5c-8.3-12.4-8.4-12.5-7.2-12.5c1,0,17.2,13.2,28.1,22.9
		c8.2,7.3,22.3,23,31.3,34.7c3.3,4.3,6.5,8.1,7.1,8.3c0.6,0.2-2.6-6.6-7.1-15.1c-7.9-15.2-9-17.8-7.2-17.8c0.5,0,7.2,10,14.9,22.2
		c7.8,12.3,16.2,24.8,18.7,27.8c5.8,7,11.7,18.6,19.1,37.5c3.6,9.3,6,14.2,6.2,13c0.3-1.1,0.2-16.3,0-33.8
		c-0.2-17.4-0.1-31.7,0.3-31.7c1.1,0,2.1,6.6,3.3,22.9l1.1,15.4l5.4-8.9c3-4.9,7.2-11.2,9.3-14.1c4.9-6.6,14.8-16.4,16-15.7
		c0.5,0.3-0.8,2.8-2.7,5.6c-2,2.7-3.4,5.2-3.1,5.5c0.6,0.6,11.3-10.1,17.1-17c5.1-6.1,10.6-8.3,16.8-6.6c3.1,0.8,6,2.9,11.3,8.2
		c8,8.2,13.8,18.5,18,32.4c1.4,4.7,2.7,8.3,2.9,8.1c0.1-0.2,4-13.1,8.5-28.8c7.8-27.1,11.1-36,9.6-26.3c-0.3,2.5-0.2,4.3,0.3,4.3
		c3.1,0,3.7-55.7,0.8-72.5c-3.1-18-6.1-30.5-7.4-30.5c-0.7,0-1.7-1.9-2.3-4.3c-0.6-2.3-2-7.6-3.1-11.7c-2.7-10.2-11.6-28-18.4-36.5
		c-7.4-9.4-18.4-18.8-27.2-23.2c-6.1-3-8.5-3.6-16-4c-15.8-0.9-28,3.5-40.6,14.7c-9.1,8-11.5,8.1-5.8,0.2
		c11.4-15.7,39.6-24.2,58.2-17.6c2.3,0.8,4.4,1.2,4.7,0.9c1-0.9-2.3-5.8-7.7-11.7c-10-10.9-23.6-15.4-43.3-14.6
		c-10.8,0.5-17,2-29,7.3c-3.6,1.5-1.7-1.5,2.5-3.9c6.4-3.7,17.3-6.7,26.7-7.2c4.7-0.3,9.5-0.7,10.8-1l2.3-0.5l-2.8-5.2
		c-1.5-2.9-5.3-7.8-8.5-11L528.2,0l3.1,0.1c2.7,0,4.1,1.1,8.7,6.5c3,3.6,6.6,8.8,8,11.6c2.4,4.8,2.9,5.2,9.2,7.3
		c16.2,5.4,27.1,15.5,30.9,28.3c1,3.4,2.6,5.4,6.8,8.9c15.6,12.5,27.3,27.5,33,42.3c4.7,12.1,18.1,61.5,19.3,70.9
		c1.6,13.2,0.4,47.3-2.2,59.4c-2.6,12.4-5.4,19.7-8.5,22.7c-3,2.8-4.3,6.8-9,27.5c-3.5,14.9-6.6,27.1-10,39
		c-0.8,2.7-1.7,10.4-2.1,17.2l-0.7,12.3h7c8.9,0,12.7,1.4,15.2,5.3c5.3,8.5,33.8,30.7,45.8,35.7c14.1,5.9,48.3,14.4,78.3,19.4
		c15.7,2.6,86.9,13.6,88.3,13.6c0.4,0,0.7,1.2,0.7,2.6c0,2.3-0.3,2.5-2.7,2c-1.6-0.3-16.1-2.6-32.3-5.1
		c-69.5-10.9-78.1-12.5-104-19.9c-8.5-2.5-15.6-4.3-15.8-4.1c-0.2,0.1,4.7,3.1,10.9,6.6c13.7,7.8,21.7,15.4,35.1,33.3
		c12.9,17.3,15.5,22.1,33,60.3c50,109.7,59.8,133.5,69.2,169.3c5.5,20.9,4.6,30.8-3.8,39.5c-7.2,7.5-8.6,7.7-56.3,6.9
		c-34.1-0.6-41.5-0.5-42.9,0.7c-1.5,1.2-1.4,1.5,1.2,3.6c3.2,2.5,1.7,3.1-3,1.3c-3.1-1.2-3.3-2.9-0.5-6.4l2-2.6h41.3
		c46.7,0,48.9-0.3,55.4-6.8c3.7-3.7,6.2-9.6,6.2-14.6c0-6.6-11.7-46.6-20.3-69.6c-6.7-17.9-17.4-42.8-30.2-70.5
		c-5.4-11.6-13.9-30.6-19.1-42.2c-12.5-28.5-20-43-29.8-57.6c-16.4-24.5-24.2-32.4-40.1-40.7c-18-9.4-38.3-23.1-53-35.9
		c-4.3-3.7-7.6-5.9-8.6-5.6c-1.8,0.6-3.9-1.5-6.3-6.3c-3.2-6.2-4.9-7.2-12.7-7.2h-7l5.2,7.5c2.9,4.1,5.4,7.4,5.5,7.2
		c0.2-0.1-0.1-2-0.6-4.2c-2.2-9.3-0.6-8.7,4.7,1.8c2.3,4.5,7.5,13.1,11.4,19.2c48.4,74,73.4,141.1,83.8,224.7
		c5.2,41.8,6.4,58.7,5.9,87.1c-0.5,29.5-1.1,27.7,8.5,27.7c3.8,0,6.1,0.6,7.8,1.9c3,2.3,10,15.5,12.9,24.3c1.2,3.7,3,7.4,3.9,8.2
		c0.9,0.9,8.4,2.9,16.6,4.6c17.8,3.6,21.9,5.2,21,8c-0.4,1.3,1.5,5.3,6.6,13.2c4,6.2,9.8,16.2,13,22.3c6.4,12.2,16.9,34.9,16.9,36.5
		c0,0.5-1,1-2.3,1c-1.9,0-2.9-1.6-6.6-10.3c-10.3-24.2-27.5-54.4-34.5-60.5c-2.4-2.1-6.5-3.8-14.9-6.1c-14.9-4.1-17.8-4.6-19.9-2.9
		c-0.9,0.7-9.1,12.3-18.2,25.8c-23.6,34.7-30,43.3-37,49l-6.1,5h-12.6c-10.8,0-12.8-0.2-13.3-1.6c-0.4-0.9-9.6-15.7-20.5-32.8
		c-26.5-41.6-37-59.6-50.6-87.1c-13.4-27.2-22.1-47-48.2-109.9c-10.6-25.8-20.1-47.8-21-49c-1.5-2-1.5-2-1-0.1
		c0.3,1.1,3.3,10.1,6.7,20c24.3,71.3,39.9,151.6,42.5,218.5c0.2,7.4,0.7,19.9,1,27.7l0.6,14.3h-2.6H578v-14.8
		c0-27.3-3.3-66.3-8.6-100.2c-10.4-67.7-32.6-151.2-46.7-175.8c-6.5-11.5-7.6-12.2-27.1-16.6c-19.5-4.4-18.7-4.6-22.5,5.9
		c-10.3,28-18.9,72.1-21.1,108c-0.5,9.4-1.2,19.6-1.4,22.7c-0.2,3.2-0.1,6,0.3,6.3c0.5,0.2,2-4.2,3.5-9.8
		c3.6-13.2,5.1-16.3,8.6-17.6c4.1-1.4,9.5,0.4,12.2,3.9l2.2,3l2.2-2.1c1.7-1.6,2.3-3.6,2.8-10.2c0.3-4.5,0.9-9.9,1.2-11.9
		c0.4-2.7-0.3-6.7-2.7-14.5c-2.3-7.7-3.3-12.7-3.2-17.3c0-5.4,3.1-20.6,9.8-49.8c0.3-1.3,0.9-2.1,1.4-1.8c0.7,0.5-1.2,11.3-6.9,39.4
		c-2.3,11.1-2.3,11.5-0.7,20c0.9,4.9,3,11.3,4.7,14.7l3.1,6l-1.7,12c-1,6.7-1.5,12.9-1.1,13.9c0.7,1.8,1.6,1.9,14.5,1.1
		c18.3-1.1,21.4-1,25.1,0.8c1.7,0.8,3.1,1.3,3.1,1.1c0-0.3-7.9-9.3-17.6-20c-9.7-10.7-17.4-19.8-17-20.1c1-1,25.8,23.9,33.1,33.2
		c21,26.8,33.6,56.9,38.9,92.8c1.7,11.7,5.2,52.7,6.1,72.7c0.3,6.9,0.8,15.3,1.1,18.8c0.5,5.8,0.4,6.2-1.5,6.2
		c-2.7,0-2.7,0.2-4.6-31.5c-2.1-34.7-4.1-58.7-6.1-70c-3.1-18.5-9.7-38.6-18.7-57.6c-5.2-10.8-7.9-14.4-14.9-20l-4.8-3.8l-21.4,0.4
		c-15.6,0.2-21.9,0.7-23.5,1.7c-2,1.2-2.5,1-5.7-3c-9.3-11.1-16.9,0.9-16.9,26.6c0,6.1-0.3,11.2-0.7,11.2c-1.4,0-4.7-5.3-6.3-9.9
		c-0.9-2.7-2.4-5.5-3.3-6.3c-2-1.8-29.3-14.1-29.8-13.5c-0.2,0.2,1.4,4.4,3.7,9.3c6.9,14.7,9,21.4,10.4,32.3c1.3,9.6,1.8,11,6.1,18
		c13.8,22.1,21.4,37.1,28.5,56.4c5.2,14.2,10.5,33.6,12.4,45.2c2,12.4,2,14.5-0.5,14.5c-1.1,0-2-0.1-2-0.3c0-0.8-5.2-26.4-6.5-32
		c-3.8-16.4-11-35.8-20.3-54.5c-8.5-16.9-19.2-35.2-20.7-35.2c-2,0-2.6-2.7-1.9-8.1c1.7-12.7-8.5-36.7-23.4-55.3
		c-9.4-11.7-29.2-33.6-30.4-33.6c-0.6,0-2.5,1.3-4.4,3c-1.8,1.6-4.9,3.2-6.8,3.6c-2.5,0.4-4.6,1.9-7.2,5.1
		c-5.1,6.2-10.6,10-18.1,12.3c-3.5,1.1-8.2,3.4-10.4,5.2c-3.8,3.1-4.6,3.3-14.7,3.9c-8.6,0.5-11.8,1.1-16.2,3.2
		c-16.5,7.8-50.9,5.6-77.3-4.9c-8.9-3.6-22.7-11.2-22.7-12.6c0-1.4,2-0.8,8.8,2.6c17.5,8.8,35.8,13.4,56.2,14.3
		c23,0.9,37.6-2.4,40.4-9.2c0.8-1.9,1.9-3.5,2.5-3.5c0.5,0,1.9,1.6,3,3.6c2.1,3.5,2.4,3.6,6.2,3c2.3-0.4,5.7-1.3,7.6-2.1
		c3.4-1.4,3.5-1.6,1.9-3.4c-1.6-1.7-1.3-1.8,6.4-2.9c4.5-0.7,10.1-2.2,12.9-3.6c4.9-2.5,13.1-10.8,13.1-13.2c0-0.7,1.7-1.6,3.8-2
		c5-0.9,8.2-3,8.2-5.5c0-3-8.1-14-12.7-17.2c-6.1-4.2-10.8-5.7-22.5-7.3c-10.9-1.4-16.8-3.5-20-7.1c-3.1-3.4-5-9.6-5-16.1
		c0-3.4-0.5-6.2-1-6.2s-2.5,0.7-4.6,1.6c-2,0.9-6.6,2-10.2,2.4c-5.3,0.7-8.8,2.1-18.5,7.4c-14.7,8.1-27.9,12.6-37.1,12.6
		c-6.8,0-9.3-0.8-13.2-4.3c-3.5-3.2-2.8-5.2,0.8-2.5c7.8,5.7,24.4,2.5,49.5-9.7c7.2-3.5,15-6.6,17.5-6.9c14.3-2,29.9-17.9,37.1-37.8
		c2.1-5.7,3.6-8.5,4.4-8.2c1.6,0.6,3.5-11.5,3.5-22c0-9.9-2.6-23.9-5.5-30.4c-1.4-3.1-5.3-8.3-9.1-12.3c-6.6-6.8-6.8-6.9-11.8-6.9
		c-10.1,0-12.3-4-13.3-23.5c-0.3-7.5-1.1-14.2-1.7-15.1c-1.8-2.5-28.5-11.6-31.8-10.9c-1.9,0.5-3.6,0-5.6-1.4
		c-4.2-3-7.3-3.4-12.3-1.7c-6.5,2.3-11.7,2-16.4-0.9c-2.4-1.5-5.5-2.4-8-2.5c-3.7,0-3.8-0.1-2.3-1.7c2.2-2.1,6.6-1.9,11.5,0.5
		c5.9,3,8.7,3.3,13.3,1.7c6-2.1,9.9-1.9,15.6,1c2.7,1.4,6.5,2.5,8.4,2.5c2,0,6.8,0.9,10.8,2c8.8,2.5,8.2,2.5,8.2-0.5
		c0-1.7-1.2-3.3-4.5-5.5c-6.2-4.2-5.8-7.1,0.5-3.5c5.2,3,9.8,1.3,11.4-4.3c0.4-1.2,1.3-2.2,2.1-2.2c1,0,1.5-2.8,2-10.6
		c1.4-19.5,1-20.9-10.4-44.1c-13-26.3-19-35.5-30.5-46.8c-11.6-11.4-25.5-19.8-39.4-24c-2.2-0.6-2.3-0.5-1.2,1.4
		c1.5,2.9-1.1,3.9-5.4,2.2c-9.9-4.1-11.2-4.3-31.1-4.6c-11-0.2-21.8-0.8-24-1.4c-5.8-1.5-15.6-1.3-23.4,0.5
		c-4,0.9-13.3,4.7-22.2,9.1c-18.3,8.9-19.9,9.6-19.9,8.2c0-0.5,2.9-2.8,6.5-5c3.6-2.3,6.5-4.3,6.5-4.6c0-0.9-10.7,0.8-17.3,2.6
		c-9.4,2.8-18,6.5-24.1,10.6c-3,2-9,4.9-13.3,6.4c-18.5,6.6-32.2,16.2-42,29.6l-2.2,3l-0.1-3c0-2.5,1.4-4.4,7.2-10.1
		c12.7-12.3,22.5-18.5,35.8-22.5c4.1-1.2,10.5-4.2,14.2-6.6c13.1-8.5,26-12.7,42.4-13.9c5.2-0.4,10.3-1.4,12.4-2.4
		c12.6-6.3,27.7-8.1,46.3-5.5c11.9,1.7,29.7,1.8,31.3,0.2c0.4-0.3-1.7-3.9-4.7-7.9c-2.9-4-5.4-7.5-5.6-7.7c-0.1-0.2-1.6,0.9-3.4,2.3
		c-4.4,3.7-11.8,7.3-18.6,9.1c-6,1.6-13.5,2-14.6,0.8c-0.4-0.4,2.5-2.3,6.5-4.2c8.8-4.4,13-9.4,18.8-22.9c3.5-8.1,4-10.3,4-16.6
		c0-9.4,2.3-22.6,5.4-31.3c1.4-3.7,2.3-6.9,2.1-7.1c-0.7-0.7-6.4,8.9-11.5,19.3c-5.3,10.7-8.5,21.1-9.6,30.6c-0.4,3.2-1,5.9-1.4,5.9
		c-1.4,0-3.9-7.7-5.1-15.2c-2-13,0.7-30.3,7-44.1c1.6-3.7,2.6-6.7,2.1-6.7c-1.2,0-6.7,4.7-10.8,9.2c-7.8,8.6-12.9,16.8-17.6,28
		c-1.8,4.6-3,4.8-4.7,0.7c-7.6-18.5,20.1-63.2,52.8-85.2c3.4-2.3,6.3-4.5,6.3-4.8c0-0.4-1.7-1-3.7-1.4c-11.1-2-25.4-10.3-33.3-19.2
		c-4.4-5-8.5-12.1-7.6-13c0.3-0.3,2.7,1.4,5.3,3.7c15.1,13.5,46.5,18.3,65.7,10l4.3-1.8l0.7-9.7c0.9-12.4,3.5-22.6,8.2-31.7
		c4.7-9.6,8.7-14.8,17.6-23.4c8.9-8.7,15.3-12.9,23.7-15.4c7.6-2.4,13.7-2.5,21.4-0.5c3.2,0.8,6.2,1.5,6.6,1.5
		c0.5,0,2.5-2.5,4.5-5.5C303.5,0.8,304.5,0,307.2,0z M222.2,138.1l-5.3-2.1l-6.1,5.7c-7,6.7-13.9,15.2-19.3,23.8l-3.8,6l8.9-9
		c9.1-9.3,19.5-17,27.2-20c2.4-1,4.2-1.9,4-2C227.6,140.3,225.1,139.2,222.2,138.1z M216.6,186.2c-7.5,7.6-9.1,12.7-9,28.8
		c0,10.9,0.4,13.4,2.6,19.2c3.8,10,8.3,16.9,16.6,25l7.3,7.3l4-4.4c2.1-2.4,3.9-4.9,3.9-5.6c0-0.7-2.2-5.9-4.9-11.6
		c-6.4-13.7-8.5-21.9-8.5-34.4c0-12.9,2.6-22.8,9.2-35.8C239.6,171.2,222.3,180.6,216.6,186.2z M306.8,177.5c-0.4-3-0.5-2.9-2.8,2
		c-2.2,4.4-2.5,6.4-2.4,15.5c0.1,12.4,1.8,18.2,8.7,28.9c5.6,8.5,12.7,15.4,23.6,22.9c4.7,3.1,8.6,6.2,8.8,6.9
		c0.9,2.7-15-2.8-29.9-10.4c-18.9-9.7-30.6-25.4-31.6-42.3c-0.2-4.4-0.8-8-1.2-8c-1.7,0-3.5,12.3-3.5,24.5
		c0.1,10.8,0.6,14.9,2.9,24.3c1.5,6.2,2.6,11.6,2.3,11.9c-1.6,1.5-10.1-18.2-11.2-26c-0.4-2.6-1.1-4.7-1.5-4.7
		c-1.7,0-10,10.3-12.4,15.3c-3.3,7.2-5.9,16.4-5.2,19c0.3,1.2,3,5.3,6.1,9.1c3,3.8,5.3,7.1,5.1,7.4c-1,0.9-9.5-4.9-12.4-8.3
		l-2.9-3.6l-4.3,3.9l-4.4,3.9l5.7,4.3c4,3,5.4,4.6,4.8,5.4c-0.7,0.8,1.9,4,8.5,10.5c5.1,5.1,11.6,12.6,14.3,16.7
		c4.9,7.2,21,39,25,49.2c2.2,5.7,2.7,13.5,1.1,19.2c-0.5,1.9-1.1,19.3-1.2,38.7c-0.3,35-0.3,35.3,1.9,37.4l2.1,2.2l12.1-2.2
		c14.9-2.6,15.6-2.6,18.1-0.1c3.3,3.3,2.4,4-5.2,4c-11.5,0-11.5,0.4-0.9,11.9c5.1,5.6,9.8,10.1,10.3,10.1c0.6,0,1.9-1.1,3-2.5
		c2.4-3,4.2-3.1,10.8-0.5c6.1,2.4,8.8,2.5,11.1,0.4c1.2-1,7.3-2.4,17.9-4c11.8-1.7,19.5-3.5,28.1-6.4c17.4-6,17.9-5.6,7.9,6.3
		c-15.7,18.7-29.6,30.9-40,34.8c-3.3,1.3-7.6,1.9-12.5,1.9c-4.1,0-7.5,0.4-7.5,0.9c0,1.1,16.1,38.4,18.9,43.9
		c2.6,4.9,6.6,8.7,12.1,11.1c5.3,2.3,30.5,5.6,36.7,4.7c11.1-1.5,19.9-8.9,55.3-46.2c13.5-14.2,31.7-33.3,40.5-42.4
		c19-19.7,25.1-27.4,31-39.5c7.7-15.6,8.8-21.5,9-47.5c0.1-12.4,0.5-23.9,0.9-25.5c1.5-5.8,1.5-5.8,3.1-4.5c2.5,2,4.2,0.4,7.9-7.3
		l3.5-7.4l10.8-4.7c13.6-6,19.1-9.5,24.7-15.8c6.4-7.1,8.9-14.1,8.8-25.3c-0.1-11.8-2.8-21.9-9.1-34.3
		c-5.8-11.2-11.7-18.4-17.2-21.2c-5-2.6-6.3-2.5-11.5,0.5c-3.2,1.9-6.2,5.4-12,14c-4.3,6.3-8.1,11.5-8.4,11.5
		c-0.4,0-0.5-1.2-0.2-2.6c0.5-2.5,0.4-2.5-6.3,1.8c-6.2,4-7.3,5.2-14.3,16.8l-7.7,12.5l-0.7,18.5c-0.8,18.9-1.1,21.5-2.7,20.6
		c-0.4-0.3-3.8-9.7-7.5-20.8c-3.7-11.3-8.5-23.8-10.9-28.1c-4.4-8.1-16.6-25.7-17.9-25.7c-0.5,0-0.8,1.8-0.8,3.9
		c0,7.5-2.6,5.9-8-4.9c-6.4-12.8-16.5-26-34-44.7c-5.8-6.1-12.7-13.1-15.3-15.4l-4.9-4.2l5.5,8.4c6.6,10.2,9.9,16.6,12.6,24.7
		c2,5.8,2.8,13.2,1.5,13.2c-0.3,0-4-2.7-8.1-6.1c-9.7-7.7-19.4-14.3-31-20.8c-9.4-5.3-29.3-14.5-29.9-13.8c-0.2,0.2,3.9,3.4,9.1,7.3
		c5.2,3.8,9.3,7.3,9.1,7.9c-0.5,1.5-15.3,0.9-22.6-1c-9.3-2.4-19.4-8-26.7-14.9c-7.2-6.6-7.7-6.1-4.2,4.5c3.3,10,8.2,17.8,20.5,32.6
		c3.5,4.3,6.4,8.1,6.4,8.5c0,2.9-11.4-1.3-21.2-7.8c-20-13.3-34.3-32.9-39.7-54.1C308,184,307,179.1,306.8,177.5z M262.4,201.4
		c-6.1,2.8-12.7,10.1-14.9,16.4c-1.6,4.9-3.2,17.2-2.2,17.2c0.3,0,2.3-3.3,4.4-7.3c2.5-4.9,6.2-9.6,11.5-14.9
		c5.5-5.5,7.8-8.5,7.8-10.2C269,199,267.9,198.8,262.4,201.4z M268.1,211c-0.5,0-3.2,2.5-6,5.6c-6,6.5-13,20.2-13.7,26.5l-0.5,4.4
		l3.1-6.4c4-8.4,10-16.3,14.4-19.1c3.3-1.9,3.6-2.6,3.6-6.6C269,213,268.6,211,268.1,211z M203.5,223.5l-1.2-8L201,220
		c-1.4,5-1.9,19.1-0.8,23.1c0.7,2.2,17.4,17.9,19.2,17.9c0.3,0-0.9-2.1-2.8-4.8c-3.9-5.4-8.7-14.9-10.6-20.7
		C205.3,233.3,204.2,227.9,203.5,223.5z M174,228.5c-0.4-0.3-2.2,2.5-3.9,6.1c-1.7,3.7-4.7,8.8-6.7,11.5c-2,2.7-3.1,4.9-2.5,4.9
		c2.3,0,10.7-4.9,13.5-7.9c2.9-3,2.9-3.1,1.7-8.6C175.4,231.5,174.5,228.8,174,228.5z M204,255.3c0,1.7,3.2,4.7,4.9,4.7
		c0.8,0,0.3-1.2-1.1-2.9C205.3,253.8,204,253.3,204,255.3z M610.3,334c-0.4,0-2.1,0.9-3.8,1.9c-1.6,1-9.4,5.3-17.2,9.5l-14.2,7.8
		l2.1,2.8c4.6,6.3,25.8,21,25.8,18c0-0.7-0.5-3-1.2-5.1c-0.6-2.2-0.9-4.2-0.5-4.5c0.3-0.3,2.9,1.4,5.9,3.8
		c5.1,4.1,13.9,9.8,15.3,9.8c0.4,0-0.3-1.7-1.5-3.8c-1.3-2-4.1-7-6.3-11.1l-4.1-7.5l0.3-10.8C611,338.9,610.7,334,610.3,334z
		 M579.9,364l-6.6-6.7l-1.7,2.9c-1,1.6-3.5,4-5.7,5.3c-2.1,1.4-3.9,2.6-4,2.8c0,0.1-0.5,10.8-0.9,23.7c-0.9,24.7-1.8,30.6-6.6,42.9
		c-6.5,16.4-11,22.1-49.9,63.2c-34.7,36.8-33.1,34.9-31.6,35.8c0.7,0.5,4.3,1.1,8,1.5c9.3,1,24.7,4.2,34.4,7.2
		c9.6,3.1,23.7,9.3,23.7,10.5c0,1.3-0.9,1.1-9-1.6c-4.1-1.4-7.8-2.4-8.3-2.2c-1.5,0.5,6.2,9.5,10.6,12.5c2.3,1.6,7.6,4.4,11.7,6.4
		c7.9,3.8,12.4,6.7,10.2,6.8c-0.7,0-4.5-0.9-8.4-2c-3.9-1.1-7.4-1.8-7.6-1.5c-0.6,0.5,45.2,104.4,53.3,121c3,6,9.1,16.2,13.8,22.5
		c4.6,6.3,14.1,19.8,21,30c23,33.5,33.1,44.5,55.9,61.6c14.8,11.1,28.2,18.4,33.7,18.4c2,0,3.8-0.8,5.1-2.3
		c2.8-3.2,35.6-55.8,36.4-58.4c0.4-1.4-1-6.4-4.5-14.9c-2.8-7.1-5.5-13.4-6-14c-0.5-0.7-3-1.5-5.5-1.9c-2.5-0.3-6.6-1.3-9.2-2
		l-4.7-1.4l-0.1-31.8c0-17.5-0.4-33.9-0.8-36.5l-0.7-4.8h-18.2h-18.2l-11.4,4c-6.3,2.2-11.9,4-12.3,4c-0.5,0-0.4-0.9,0.2-1.9
		c0.5-1.1,4.7-3.8,9.1-6l8.1-4.1h21.4c11.8,0,21.4-0.4,21.4-0.8c0-2.8-7.4-56.7-9.1-66.2c-11.2-62.9-33.8-120.8-69.8-178.8
		c-9.5-15.3-14.5-20.6-21-22.6c-2.6-0.7-7.1-2.8-10-4.6c-5.5-3.4-7-3.5-5.2-0.2c1.5,2.8,1.4,4.2-0.4,4.2c-2.2,0-10.8-4.5-18-9.3
		C589.2,372.5,583.5,367.6,579.9,364z M291.8,402.2c-0.3-1.8-0.5-1.8-3.7,0.2l-3.4,2l3.4,1.1c2.7,1,3.5,0.9,3.7-0.1
		C292,404.6,292,403.2,291.8,402.2z M390,474.4c-6.9,2.2-15.4,5.9-18.9,8.1c-6.4,4-6.6,4-15.8,3.8l-9.3-0.1v4.2
		c0,4.9,3.1,10.3,7,12.3c4.3,2.2,14.8,1.6,20.5-1.1c6.9-3.2,20.4-13.4,24.1-18.2c3.9-5,7.4-10.8,7.4-12.3
		C405,469.5,403.8,469.7,390,474.4z M384.5,473.1l-5,0.1c-10.8,0.2-14.8,1.2-18.1,4.5c-3.5,3.6-4.5,3.5-14-0.6l-4.9-2.2l-1.7,2.2
		c-1,1.1-1.8,2.5-1.8,2.9c0,1.4,16.8,2.3,22.3,1.2c2.9-0.6,9.3-2.6,14.2-4.6L384.5,473.1z M334.9,487c-0.6,0-0.8,1.6-0.4,4.2
		c2.5,18.4,2.3,30.5-0.8,39.3c-2,5.6-13.7,25.1-18.9,31.4c-6.3,7.8-7.6,10-8.3,14.2c-1.9,11.3,8.3,22.9,20.2,22.9
		c2.6,0,7.5,0.7,10.8,1.5c8.8,2.1,18.1,1.9,23.5-0.6c2.5-1.1,6.9-4.5,9.8-7.6l5.2-5.7l8.8-0.1c7.4,0,9.5-0.5,13.7-2.7
		c6.2-3.2,13.5-10.5,11.4-11.3c-0.8-0.2-6.1-1.2-11.8-2c-12.2-1.8-18.1-4.2-23.4-9.3c-4.6-4.4-5.5-6-14.7-27.7
		c-8.7-20.3-16.6-36.4-20.9-42.3C337.4,488.9,335.5,487,334.9,487z M470.5,538c-3,0-5.1,1.6-17.6,12.9
		c-14.3,13.1-22.2,18.4-29.4,19.6c-6.2,1.1-8.2,2.9-12.6,11.7c-5,10.1-9.1,15.8-16.1,22.4c-6.8,6.4-9.7,8.1-10.9,6.3
		c-1.8-3-10.8,9-10.9,14.5c0,1,4.6,6.4,10.8,12.5c5.9,5.8,13.6,14.2,17.1,18.6c10,12.8,9.8,12.6,23.2,17.4
		c6.8,2.4,14.1,5.3,16.1,6.3c2.1,1,4.2,1.8,4.8,1.8c0.6,0,1-2.8,1-6.8c0.1-34.7,10.4-88.6,23.9-124.7c2.3-5.9,4.1-11.2,4.1-11.6
		C474,538.4,472.4,538,470.5,538z M398,588.6c-4.9,1.6-15.2,2.1-18.6,1c-1.9-0.6-2.5,0-4.4,3.9c-2.5,5.2-7.2,8.8-14.5,11.1
		c-2.7,0.8-5.6,1.8-6.4,2c-1,0.3,1.1,3.1,6.4,8.4c4.4,4.4,8.2,8,8.6,8c0.3,0,1.1-1.7,1.7-3.8c1.8-6,6.6-10.8,14.5-14.6
		c6.9-3.3,8.8-5.1,17-15.3C404.4,586.7,404.2,586.7,398,588.6z M607.3,727.6c17.2,34.2,57.6,101.4,67,111.2c6.8,7,16.5,9.2,24.9,5.4
		c4.1-1.8,14.8-10.6,14.8-12.1c0-0.4-4.2-2.9-9.2-5.5c-17.8-9.3-41.2-27.5-54.6-42.5c-9.8-10.9-13.4-16-32.7-46.1
		C597.4,706.4,596,705,607.3,727.6z"/>
	<path d="M430.6,258.4c2.5,1.9,2.4,1.9-16,5.1c-15.8,2.7-18.2,3.6-43.6,17.3c-22.7,12.2-52.5,30.5-58.2,35.9
		c-3.6,3.5-5.8,2.5-5.8-2.6c0-5.5,1.3-8.4,6.1-13.6c5.8-6.2,11.1-10,27.5-19.3c19.3-11,29.1-15.9,34.4-17.2c2.5-0.6,13.3-2.4,24-4
		C421.4,256.7,427.8,256.4,430.6,258.4z M366.6,270.8c-7.4,3.3-52.2,31.4-53.6,33.6c-1.7,2.7-3,8.6-2,8.6c0.5,0,5.8-3.6,12-8
		c16.1-11.5,35.4-23.3,51.9-31.7c8-4,14.7-7.5,14.9-7.8C391.3,264,372,268.5,366.6,270.8z"/>
	<path d="M601.2,274.8c3,6,3.3,7.6,3.3,15.2c0,9.9-2.7,16.9-9.1,23.9c-3.6,4.1-12,9.8-13,8.9c-0.2-0.3,3.2-4.7,7.6-9.9
		c10-11.7,11.9-16.7,10.1-26.8C598,275,591.3,264,586.5,264c-1.3,0-12.3,7.9-14.3,10.3c-0.9,1.1,0.6,1.9,7.9,4.2
		c11.5,3.7,12.9,5.3,12.9,14.7c0,7.6-1.5,12.2-5.1,15.5c-3.7,3.4-9.7,5.6-13.6,4.8c-5-0.9-4.2-3.3,1.5-4
		c10.4-1.3,14.6-5.8,14.6-15.7c0.1-7.4-1.4-8.9-12-12.3c-9.6-3.1-10.1-2.9-14.5,4.2l-2.1,3.4l4.7,4.1c4.8,4.2,7.5,8.9,7.5,12.9
		c0,3.5-2,1.7-5.3-5.1c-2.5-5-4.1-6.8-7-8.3l-3.7-1.9l3.6-6.9c3.9-7.4,12.6-17.3,18.4-20.8C587.8,258.4,595.1,262.4,601.2,274.8z"/>
	<path d="M442,297.9c0,0.4-2.5,2.5-5.5,4.5c-3,2-5.5,3.8-5.5,4c0,0.2,1.8,0.2,4-0.1c6.2-0.9,4.8,1.1-3.1,4.2
		c-3.8,1.6-7.2,3.2-7.5,3.7c-0.3,0.4,3.1,0.8,7.5,0.8c8.4,0,10.9,1.3,4.4,2.3c-2.1,0.4-9.1,0.9-15.6,1.3s-12,1-12.2,1.5
		c-0.3,0.4,2.4,1.7,6,2.9c3.6,1.2,6.3,2.5,6.1,2.9c-0.3,0.4-5.8-0.1-12.3-1.1l-11.8-1.8l-17.5,2.6c-9.6,1.4-20.6,3.2-24.3,4.1
		c-3.8,0.8-7.1,1.2-7.5,0.8c-0.4-0.4,1.4-2.6,4-5c5.8-5.2,9.5-6.2,27.6-6.9c7.3-0.4,15.2-1,17.6-1.6c2.4-0.5,13.5-5.2,24.7-10.4
		C444.1,295.9,442,296.7,442,297.9z"/>
	<path d="M414.8,302.5c-1.3,1.3-38.6,6.9-39.7,5.9c-0.8-0.7,11.6-3.6,20.6-4.9C406,302.1,415.7,301.6,414.8,302.5z"/>
	<path d="M365.4,312.4c-0.6,1.7-5.3,5-6,4.3c-0.3-0.2,0.9-1.6,2.6-3.1C365.6,310.6,366.2,310.4,365.4,312.4z"/>
	<path d="M563.8,319.1c-1.8,3.5-1.9,4.6-1,7.7c1.3,4.1,0.8,5.1-1.6,3.6c-2.9-1.8-2.7-8,0.3-12C565.1,313.7,566.4,314.1,563.8,319.1z
		"/>
	<path d="M322.2,324.2c4.9,3.4,5.6,4.3,4.1,4.9c-3.5,1.2-8.5-1.6-10.9-6.3C313.4,318.9,315,319.2,322.2,324.2z"/>
	<path d="M351.8,441.7c-0.2,1.4-1.6,1.9-6.3,2.3c-6.6,0.6-8.5,1.4-8.5,3.6c0,1.1-0.8,1.4-2.7,1.2c-4.4-0.5-3.3-2.9,2.6-6
		C343.4,439.4,352.4,438.8,351.8,441.7z"/>
	<path d="M548.1,503.7c-1.2,20.8-2.1,40-2.1,42.6c0,2.8-0.4,4.7-1.1,4.7c-2.7,0,0.5-72.4,3.7-85C550.1,460.1,550,468,548.1,503.7z"
		/>
	<path d="M668,495.7c1.7,12.4,2.3,43.1,1.1,60.3c-1.3,18.8-4.7,44.6-6.2,47c-0.7,1.1-0.8,0.7-0.5-1.5c5.9-34,7.3-91.9,2.6-109.9
		c-1.1-4.4-2-8.4-2-9C663.2,479.3,667.1,489.9,668,495.7z"/>
	<path d="M564.7,579c2,0,12.7,8.6,18.5,14.8c13.6,14.8,21.4,29.2,20.9,38.6c-0.1,1.1-1.9-1.7-4.1-6.2c-6.4-13.3-15.8-25.9-30.9-41.5
		C566.1,581.6,564.1,579,564.7,579z"/>
	<path d="M570,602.1c1.6,8-0.3,21-2.6,18.6c-0.9-0.8-0.6-18.9,0.3-22.5C568.4,595.1,568.8,595.7,570,602.1z"/>
	<path d="M618.7,662.5c5,3.7,6.6,4.4,9.1,3.9c3.6-0.7,4.6,0.6,2.6,3.4c-2.4,3.5-6.2,2.8-12.9-2.3c-5.4-4.2-20.2-12-29.7-15.9
		c-2.1-0.8-3.8-2-3.8-2.5C584,644.7,606.9,653.6,618.7,662.5z"/>
	<path d="M439.7,575.3c0.6,8.7-5.5,28.7-8.7,28.7c-1.7,0-1.2-2.4,3.5-18.1c2.5-8.3,4.6-15.4,4.7-15.7
		C439.3,569.8,439.5,572.1,439.7,575.3z"/>
	<path d="M367.4,0.1l3.9-0.1l-9.5,9.3c-7.3,7.1-10.3,10.9-13.1,16.6c-2,4.1-3.7,8.2-3.7,9.2c0,2.7-2,3.4-2.1,0.7
		c-0.4-8.7,3.1-15.1,18.3-33C362.9,0.8,364.4,0.1,367.4,0.1z"/>
	<path d="M849,0c0.6,0,1,0.4,1,1c0,0.5-0.4,1-1,1c-0.5,0-1-0.5-1-1C848,0.4,848.5,0,849,0z"/>
	<path d="M368.7,55.2c3.6,3.4,2.7,3.7-2.9,0.9c-4.7-2.3-6.5-2.6-15.3-2.5c-11.3,0-20,2-29,6.4c-5.9,2.9-15,9.9-11,8.4
		c1.1-0.4,4.7-1.7,8.1-3c15.1-5.6,33.1-7,44.9-3.3c3.7,1.1,6.4,2.4,5.9,2.8c-0.5,0.5-5.6,0.3-11.4-0.2c-18.4-1.8-33.7,1.3-50.9,10.3
		c-8.4,4.4-13.7,9.3-14.6,13.5c-0.3,1.4-0.8,3.7-1.2,5.2c-0.7,2.7-0.7,2.6-1.1-1c-0.2-2.4-0.8-3.7-1.8-3.7c-1.9,0,8.6-13.9,16-21.1
		c9.4-9.2,21.8-15.4,35.7-17.8C351.4,48.1,363.4,50.2,368.7,55.2z"/>
	<path d="M370.6,80.1c16,7,33.4,19.9,33.4,24.7c0,2.7-1.1,2.8-2.7,0.3c-2.1-3.4-9.1-6.6-31.3-14.6c-28.8-10.4-31.1-12.4-6.9-6
		c7.2,2,13.4,3.3,13.7,3.1c0.5-0.6-17.5-9.6-24.1-12.1c-2.6-1-5-2.2-5.3-2.6C346.5,71.5,361.4,76.1,370.6,80.1z"/>
	<path d="M438.5,77c21.7,5.9,42,20.1,49,34.3c2.3,4.8,3.3,8,2.9,9.4c-0.9,3.2-2.5,2.9-6.5-1.3c-9.9-10.5-29.1-21.8-45.9-27.2
		c-9.5-3-8-4.3,2-1.8c9.4,2.4,20,7.2,31.7,14.2c5.9,3.5,10.8,6.2,11,6c0.2-0.2-2.1-3.1-5.3-6.5c-19.7-21.3-57.1-32.4-86-25.5
		c-5.2,1.2-1.3-1.4,4.6-3.1C404.1,73.3,427.7,74.1,438.5,77z"/>
	<path d="M497.7,181.4c1.7,1.8,7.5,10.5,12.9,19.2c5.4,8.8,10.8,17.6,12.2,19.7c1.3,2.2,2.5,3.7,2.8,3.5c0.2-0.3-0.9-6.8-2.5-14.6
		c-2.8-14-2.7-17.8,0.2-10.5c5.7,14.5,11.2,49.7,9.3,59.8c-0.4,2-0.9,3.5-1.1,3.3c-0.2-0.2-0.9-4.4-1.6-9.3
		c-0.6-4.9-1.8-10.7-2.6-12.9c-2.2-6.4-24.8-46.7-30.8-55.1c-3-4.2-5.5-7.8-5.5-8.1C491,175.3,495,178.2,497.7,181.4z"/>
	<path d="M100.7,309.7c0.2,0.7,0,10.8-0.6,22.5c-0.8,16.9-1.3,21.3-2.5,22c-0.8,0.5-3.6,4.5-6.3,9c-5.6,9.4-11.7,15.1-17,15.8
		c-3,0.4-4.5,1.5-7.6,5.5c-7.2,9.4-9.1,16.1-6.7,24.4c0.9,3.2,0.7,3.7-3,7.7c-4.3,4.7-7.4,13.1-8.5,23.1l-0.7,5.9l8.4,8.5
		c6.6,6.5,9.3,10.1,12.1,15.9c4.9,10.3,6.6,20.1,4.7,27.8c-0.8,3.1-1.5,9.6-1.5,14.3c0,8.1,0.2,9,4.2,17
		c4.7,9.3,10.7,18.2,11.7,17.2c0.3-0.3,0.6-2.4,0.6-4.5c0-6.1,1.5-4.4,2.8,3.3c0.7,3.9,2.3,9.5,3.7,12.4c2.5,5.2,9.9,14.5,11.5,14.5
		c0.5,0,0.3-2-0.5-4.5c-1.6-5.4-0.6-6.6,2-2.2c5.2,9.1,11,14.1,18.3,15.8c3.8,0.8,3.9,0.4,0.8-5.2c-1.4-2.4-3.4-7.8-4.5-11.9
		c-2.4-8.4-2.4-9-1.3-9c0.5,0,1.9,3.3,3.1,7.3c2.8,8.9,6.3,14.2,12,18.2c4,2.8,4.8,3,13.4,3c5.1,0,12.1-0.4,15.6-0.8
		c7.4-1,8.1,0.5,1.7,3.7c-6,3-14.8,3.2-24,0.6c-6.1-1.7-9.1-2-13.7-1.5c-5.3,0.6-6.4,0.4-11.1-2.3c-2.9-1.6-6.9-3.4-9-4.1
		c-5.1-1.7-11.9-8-15.3-14.2c-1.5-3-6-10.1-9.8-15.8c-3.8-5.8-8.5-13.4-10.3-17c-2.6-5.4-3.4-6.2-3.9-4.6
		c-4.6,13.4-11.7,21.2-24.1,26.2c-15.7,6.5-17,10-6,16.8c3.6,2.2,6.5,4.4,6.6,4.9c0,0.8-6.1,0.4-9.9-0.5c-1.7-0.5-5.2,7.4-7.7,17.3
		c-2.2,8.7-1.5,23.1,1.6,31.3c2.7,6.9,12.9,18.1,15.6,17.1c0.8-0.3,3.8,0.7,6.7,2.3c8.3,4.7,15.9,6.5,27.7,6.5
		c5.8,0.1,14.5-0.5,19.3-1.3c8.5-1.4,8.8-1.4,10.2,0.6c2.6,3.7,23.5,11,37.9,13.3c4.8,0.8,12.7,1.1,21.1,0.8
		c7.5-0.3,13.8-0.2,14.1,0.3s-1.2,1.7-3.3,2.6c-2.9,1.2-7,1.6-17.3,1.6c-16.6,0-28-2.7-43.4-10.2c-13-6.3-12.1-6.1-19.6-4.5
		c-3.6,0.7-10.5,1.4-15.5,1.3c-9,0-13.5-0.7-29.3-4.9c-4.6-1.2-8.6-1.9-8.9-1.6c-0.3,0.3-0.1,8.4,0.5,17.9
		c1.4,20.8,4.2,32.9,12.7,55.2C77,769.2,85.3,794.3,91.6,821c6.5,27.6,5.3,24.9-12.6-28.3c-8.3-24.6-18.9-55.1-23.6-67.9
		c-4.7-12.8-9.1-24.8-9.7-26.6c-0.6-1.7-1.4-3.2-1.8-3.2c-1.8,0-5.4,28.3-6.5,51c-0.8,15.7,0,19.8,5.1,26.5c1.9,2.5,3.2,4.5,2.7,4.6
		c-0.4,0-2,0.2-3.7,0.2l-3,0.2l-0.3,12c-0.4,14.7,1.3,30.2,3.9,34.4c1,1.6,3.5,4.1,5.6,5.4c7.4,4.7,7.6,6,1.9,15.4
		c-2.5,4.4-3.6,5.3-5.8,5.3c-1.6,0-2.8-0.2-2.8-0.4c0-0.3,1.8-3.4,4.1-7s3.9-7.2,3.6-8s-1.9-1.7-3.6-2.1c-7.8-1.7-11.6-14.1-11.4-37
		c0-7.7,0.5-16,1-18.5c0.6-3.3,0.4-6.1-1-11.5c-1.5-5.8-1.8-9.4-1.3-21c0.5-16,2.1-26.1,7.2-46.1l3.5-14l-0.8-19.1l-0.9-19.1
		l-5.5-5.9c-7-7.3-8.4-9.5-10.9-16.9c-1.6-4.4-2.1-8.3-2.1-15.9c0-11.2,1.6-18.6,6.2-28.6l3.1-6.6l-2.2-5.1l-2.2-5.1l-9.6,0.2
		c-13,0.1-18.2-0.9-18.2-3.5c0-1.5,0.4-1.8,2.2-1.2c1.2,0.4,6.3,0.7,11.3,0.7c9.7-0.1,22.1-3.2,23.2-5.8c0.3-0.8,2.4-2,4.6-2.6
		c10.9-2.9,17.9-8.8,22.5-18.8c2.1-4.5,2.7-7.9,3.3-17.6c0.4-6.6,1.3-14,1.9-16.5c2.8-11.3-3.7-28.6-16-42.2l-3.9-4.3l-0.1,2.8
		c0,3.8-2.2,3-3.7-1.4c-1.8-5.1-1.5-10.4,0.8-18.8c2.2-7.8,4.8-13.7,8-18.1c1.6-2.1,1.7-3.1,0.8-6.5c-2.5-8.8,1-18.3,10.1-27.6
		c4.3-4.3,6.5-5.9,8.5-5.9c4,0,13.9-10.5,17.8-18.8c2.3-5,3.2-8.7,3.9-16.1c1.1-12.3,2.6-22.8,4-27.7
		C99.8,310.3,100.5,309,100.7,309.7z"/>
	<path d="M202.4,364c7.6,2.9,15,10,16.6,16c1.5,5.5,0.9,8.6-1,4.7c-1.9-3.9-2.7-3.4-3.4,2.2c-0.9,7-5.8,13.8-12.1,17.1
		c-6.6,3.4-18,3.5-24,0.3c-9.3-4.9-13.1-13.1-10.2-21.9c0.9-2.7,1.4-5,1.2-5.3c-0.7-0.6-5.7,3-8.7,6.3c-3.2,3.4-3.7,8.4-1.3,12.6
		c1.9,3.3,1.8,4.1-0.2,3.3c-4.1-1.4-6.3-4.6-6.3-9c0-7.8,6.2-16.1,16-21.7c2.5-1.4,3.8-2.6,3-2.6c-2.7,0.1-9.4,3.6-14.7,7.9
		c-5.7,4.4-6.9,4.1-2.8-0.7c3.2-3.8,11.3-9,16.8-10.8C177.8,360.2,194.9,361.1,202.4,364z M191.6,371.1c0,0.1-2.8,0.5-6.1,0.9
		c-3.3,0.3-7.2,1.4-8.6,2.3c-4.8,3.2-8.2,14.8-5.2,17.8c1.7,1.7,21-6.2,20.3-8.2c-0.3-0.8-0.4-4-0.4-7.2
		C191.7,373.6,191.7,371.1,191.6,371.1z M196.5,373.4c-3.1,3.1-3.2,6.6-0.2,9.4c4.4,4.1,11.7,1.9,11.7-3.6c0-1.1-1-3.2-2.2-4.6
		C202.3,370.8,199.5,370.4,196.5,373.4z M179.7,393.4c-4.7,2.3-5.1,2.9-2.7,5.1c6.9,6.3,20.8,5.7,27.7-1.2c4.3-4.3,4.2-6-0.4-7.2
		C197.6,388.2,187.9,389.5,179.7,393.4z"/>
	<path d="M227.8,374.1c10.2,6.2,14.3,8,18.6,8.2c4.9,0.2,5.7,1,2.7,2.7c-3.8,2-8.5,1.1-15.6-3c-7.2-4.2-9.5-6.3-9.5-8.8
		C224,372.2,224.9,372.4,227.8,374.1z"/>
	<path d="M80.2,383c1.1,0,1.2-0.4-2.8,9.4c-1.9,4.9-3.3,9-3.1,9.3c0.3,0.2,1.7-1.7,3.2-4.2c1.5-2.6,2.9-4.5,3.1-4.2
		c0.6,0.5-18.9,50.7-19.7,50.7c-1.7,0-1.5-3.4,0.6-13.2c4.3-19.4,9-33,14.8-42.6C78,385.4,79.8,383,80.2,383z"/>
	<path d="M259.6,425.2c6.8,3.6,8.9,4.2,14.8,4.4c3.9,0.2,7.9,0.8,9,1.4c9.3,4.9,10,24.8,1.3,36.2c-5,6.6-9.9,9-17.2,8.5
		c-3.3-0.2-6.8-0.7-7.7-1.1c-1.3-0.6-2.6,0.1-4.7,2.5c-1.7,1.8-2.8,3.6-2.6,3.9c1.1,1.7,12.4,6.2,20.4,8.1
		c11.4,2.8,11.1,2.7,11.1,3.8c0,4.1-15.7,1.1-26.8-5c-7.1-3.9-7.5-4-12.3-3c-7.3,1.6-22.7,1.4-28.7-0.4c-5-1.5-11.3-5.8-10.2-6.9
		c0.3-0.3,3.5,0.5,7,1.6c5.1,1.7,8.9,2.2,18,2.2c12.1,0,15.4-0.9,19.3-5.2c1.8-2,1.7-2-3.7-4.5c-7.4-3.4-14.8-10.9-16.9-17.2
		c-4.3-12.6-0.8-24.3,9.1-30.6C245.4,419.7,249.8,420,259.6,425.2z M249.2,424.3c-5.1-0.6-10,2.3-13.7,8.2c-2.6,4.1-3,5.8-3,11.4
		c0.2,14.9,11.4,24.4,32.7,27.6c9.5,1.4,17.2-5.1,20.3-17.2c1.9-7.1,1.9-10.5,0.1-14.6c-2.4-5.7-4.8-7.1-11.3-6.3
		c-5.6,0.6-6.1,0.5-13.6-4C256.5,426.9,251.3,424.6,249.2,424.3z"/>
	<path d="M255.7,430.1c4.6,1.7,5.7,5.7,2.6,9.1c-2,2.2-5.2,2.3-9.8,0.1c-5.8-2.7-5.8-6.4-0.1-8.9
		C252.2,428.8,252.2,428.8,255.7,430.1z M248.1,433.4c-1,1.1-0.7,1.7,1.1,3c2.8,2,5.2,2,6.7,0.2c0.9-1.1,0.8-1.8-0.4-3
		C253.5,431.6,249.6,431.5,248.1,433.4z"/>
	<path d="M268.8,442.9c1.1,0.7,1,0.9-0.3,1.5c-1.5,0.5-5.5-0.8-5.5-1.9C263,441.7,267.4,442,268.8,442.9z"/>
	<path d="M773.3,474c3.7,0,6.7,0.3,6.7,0.7c0,0.5,15.7,6.9,35,14.3c31.6,12.2,35,13.7,35,15.7c0,1.3-0.3,2.3-0.6,2.3
		c-1.2,0-80.9-31.3-81.8-32.1C767,474.4,769.4,474,773.3,474z"/>
	<path d="M213,595.5c0,1.3-6.6,3.6-12.7,4.5c-6.8,0.9-14.3,0.4-14.3-1c0-0.4,2.6-1.2,5.8-1.8c3.1-0.7,6.6-1.3,7.7-1.6
		C202.4,595,213,594.9,213,595.5z"/>
	<path d="M219.5,597.9c-2.1,2-16.5,10-16.5,9.2c0-1.6,8.3-8.1,11.5-9C218.7,596.8,220.6,596.8,219.5,597.9z"/>
	<path d="M773,616c0.4,0,2.4,4.8,4.5,10.7c9.1,26.6,20.7,52.1,28,61.9c2.1,2.7,5.6,6.5,7.9,8.5c4.7,4.2,4.4,5.7-0.6,3.6
		c-11.8-4.9-27.4-35.8-38.1-75.5C773.3,620.2,772.5,616,773,616z"/>
	<path d="M768.8,637.5c0.7,23-4.5,68.5-7.9,68.5c-0.5,0-0.7-1.6-0.4-3.8c0.2-2,1.9-18.8,3.5-37.2c1.7-18.4,3.4-34.6,3.8-36
		C768.2,627.6,768.6,631.1,768.8,637.5z"/>
	<path d="M828.8,767.6c19.5,35,21.2,38.5,21.2,42.9c0,3-0.4,4.5-0.9,4c-1.3-1.4-39.7-73.5-43.8-82.2c-1.8-3.9-3.3-8.2-3.3-9.5
		C802,719.6,803.6,722.2,828.8,767.6z"/>
	<path d="M389.3,735.7c-0.6,15.8-4.1,30-11.9,49.6c-8.3,20.6-18.6,37.7-33.2,55.3c-6.7,8.1-8.1,9.3-10.9,9.3
		c-1.8,0.1-3.3-0.1-3.3-0.4c0-0.2,4.7-6,10.4-12.8c13.7-16.4,21.5-28.1,29.2-44.1c9.4-19.4,15.6-40.5,18-60.9
		C388.5,723.8,389.7,726.5,389.3,735.7z"/>
	<path d="M105.9,729.2c0.5,0.1,3.7,4.6,7.2,9.8c6.7,10.2,20.3,24.5,28.3,30c3.1,2.1,6.5,3.5,9.4,3.8c3,0.3,5.5,1.4,7.2,2.9
		c6.4,6.2,23.2,12.3,33.5,12.3c10.9,0,15.9-2.3,33.1-15.1c16.7-12.5,19.8-14.1,25.7-13.7c3.8,0.3,4.2,0.6,4.5,3.2
		c0.3,2.6,0.1,2.8-2,2.1c-5.5-1.8-7.6-0.9-19.4,8.1c-22.4,17.3-27.4,19.7-41.3,19.5c-9.6,0-18-2.7-28.7-9.1
		c-5.2-3.1-10-5.2-13.8-5.9c-4.2-0.8-7.5-2.3-12-5.5c-12.1-8.6-26.3-26.1-30.8-37.9C105.8,731,105.4,729,105.9,729.2z"/>
	<path d="M778.8,781.9c0.2,1-6.7,16.7-15.2,34.7c-14.2,30.2-15.7,32.9-18.1,33.2c-2.6,0.3-1.9-1.3,15.2-34.7
		C770.5,795.9,778.6,780.9,778.8,781.9z"/>
	<path d="M260,782.4c0,0.3-5.3,3.5-11.7,7.1c-16.5,9.2-29.1,18.4-40.5,29.5c-8.3,8.1-9.9,10.2-11,14.3c-0.9,3.6-1.6,4.6-2.8,4.1
		c-0.8-0.3-2.2-0.8-3-1.1c-0.8-0.2-6.2,2.8-11.9,6.7c-8.8,6.1-10.8,7.1-14,6.8l-3.6-0.3l8-5.3c4.4-2.8,11-6.4,14.7-7.9
		c6.5-2.5,6.9-2.9,9.3-8.1c5.2-11.3,24.7-26.9,51-40.9C252.9,782.9,260,780.6,260,782.4z"/>
	<path d="M800,822c1.1,11.3,2.3,22.2,2.6,24.2c0.5,3.4,0.3,3.8-1.5,3.8c-2.4,0-2.7-0.9-4.1-14.2c-1.1-11-1.3-26.4-0.3-32.3
		C797.6,798.2,797.6,798.3,800,822z"/>
	<path d="M446.2,826c2.4,0-0.2,3.9-8.8,13.4c-7.1,7.8-10.3,10.6-12,10.6c-1.3,0-2.4-0.6-2.4-1.2c0-0.7,5-6.1,11.2-12
		C440.3,830.8,445.7,826,446.2,826z"/>
	<path d="M1,848c0.6,0,1,0.4,1,1c0,0.5-0.4,1-1,1c-0.5,0-1-0.5-1-1C0,848.4,0.5,848,1,848z"/>
	<path d="M849,848c0.6,0,1,0.4,1,1c0,0.5-0.4,1-1,1c-0.5,0-1-0.5-1-1C848,848.4,848.5,848,849,848z"/>
</g>
</svg>
