<?xml version="1.0" encoding="utf-8"?>
<!-- Generator: Adobe Illustrator 21.0.0, SVG Export Plug-In . SVG Version: 6.00 Build 0)  -->
<svg version="1.1" baseProfile="tiny"
	 id="svg238" inkscape:version="0.92.2 5c3e80d, 2017-08-06" sodipodi:docname="27.svg" xmlns:cc="http://creativecommons.org/ns#" xmlns:dc="http://purl.org/dc/elements/1.1/" xmlns:inkscape="http://www.inkscape.org/namespaces/inkscape" xmlns:rdf="http://www.w3.org/1999/02/22-rdf-syntax-ns#" xmlns:sodipodi="http://sodipodi.sourceforge.net/DTD/sodipodi-0.dtd" xmlns:svg="http://www.w3.org/2000/svg"
	 xmlns="http://www.w3.org/2000/svg" xmlns:xlink="http://www.w3.org/1999/xlink" x="0px" y="0px" viewBox="0 0 850 850"
	 xml:space="preserve">
<sodipodi:namedview  bordercolor="#666666" borderopacity="1" gridtolerance="10" guidetolerance="10" id="namedview240" inkscape:current-layer="svg238" inkscape:cx="754.97719" inkscape:cy="556.52094" inkscape:pageopacity="0" inkscape:pageshadow="2" inkscape:window-height="978" inkscape:window-maximized="1" inkscape:window-width="1920" inkscape:window-x="0" inkscape:window-y="1" inkscape:zoom="0.58897835" objecttolerance="10" pagecolor="#ffffff" showgrid="false">
	</sodipodi:namedview>
<g id="g236" transform="translate(0.000000,0.000000) scale(1.00000,1.00000)">
	<path id="path4" fill="none" d="M0,0h309.9h309.9L616,9c-5.5,12.9-9.2,18.4-19.9,29.6c-8.6,9-9.4,9.6-8.8,6.6
		c0.8-3.9-0.7-8.2-2.8-8.2c-1.1,0-1.5-1.1-1.5-3.8c0-8.5-4.4-16.8-6.3-11.9c-0.8,2-1,1.9-2.1-1.5c-1.4-3.8-5.7-9.6-8.3-11.2
		c-0.9-0.5-1.9-0.4-2.6,0.3c-0.7,0.7-2.3-0.1-5.3-2.9c-4.6-4.2-5.1-4.5-7.2-3.1c-1,0.6-0.5,2.7,2.4,9.7l3.7,8.9l-0.5,17.3
		c-0.3,11.1-0.9,17.7-1.6,18.4c-0.9,0.9-1.2,0.6-1.2-1.2c0-2.9-2.7-6-5.2-6c-1.5,0-1.7,0.3-0.8,1.9c1.8,3.4,1.1,4.1-1.5,1.6
		c-2.8-2.9-4.2-3.1-7.3-0.9c-3,2.1-2.8,4.4,0.3,4.4c1.9,0,2.8,0.8,3.6,2.7c0.8,2.3,0.5,3.7-2,8.7c-3.3,6.2-3.8,10.6-2.1,16.7
		c1.4,5,3.5,6.7,6.2,5c1.8-1.1,2.5-0.9,5.9,2.5c2.8,2.7,3.5,4,2.6,4.6c-0.6,0.4-6.9,0.8-13.9,0.8c-11.3,0-12.8,0.2-13.7,1.8
		c-1.4,2.6,0.6,6.1,4.8,8.6c2.2,1.2,5.9,2.1,10.7,2.4c4,0.2,7.1,0.8,6.9,1.2c-0.3,0.4-3.6,2.6-7.5,5c-6.3,3.7-7.1,4.5-6.8,6.8
		c0.2,1.8,1.3,3.1,3.3,4.1c1.7,0.8,3.5,2.1,4.1,2.9c0.6,0.8,3.9,1.9,7.3,2.3c8,1.1,8.7,1.6,6.3,4.3c-3.2,3.5-4.1,5.9-3.1,7.8
		c1.9,3.5,8.9,1.6,13.8-3.6c2.8-3,5.7-3.6,4.5-0.9c-1.3,3.2-1,7.5,0.8,8.6c1.3,0.9,2.8,0.4,6.9-2.1l5.2-3.3l4.6,1.6
		c7.9,2.6,7.9,2.7,3.9,8.7c-1.9,2.9-4.3,6.9-5.3,8.8c-0.9,1.9-2.6,4.4-3.7,5.6c-1,1.2-2.1,3.7-2.4,5.6c-0.5,2.9-0.1,4.1,2.5,7
		c1.7,2,4.4,4.1,6.1,4.8c1.6,0.7,3,1.7,3,2.2s-3.4,10.9-7.5,23.1s-7.9,25.1-8.4,28.6c-0.6,3.5-1.3,6.6-1.6,6.9
		c-0.9,1-20.7,5.2-32.6,6.9c-10.1,1.5-12.2,1.5-16,0.3c-2.4-0.7-5.1-2-6-2.7c-0.8-0.7-1.9-1.3-2.3-1.3c-0.5,0-2.1-1.1-3.7-2.4
		c-1.5-1.3-3.3-2.6-3.8-2.8c-0.5-0.1,1-4.2,3.3-8.9c4.9-10,6.6-16.6,6.6-25.5c0-7.4-1.7-11.5-5.5-13.2c-3.6-1.7-5.5-1.5-9.4,0.9
		c-3.1,1.9-3.3,1.9-2.7,0.2c3.3-8.5,11-35.7,12.2-43.3c3.1-19.3,2.1-31.6-3.7-43.1c-5-9.9-16.6-5.6-25.5,9.6
		c-2.1,3.5-4.1,6.2-4.5,5.9c-0.4-0.2,0.8-3,2.7-6.2c5.1-8.4,6.8-15,6.8-27.2c0-9.5-0.3-11.3-3.2-18.6c-5.7-14.3-12.8-21.5-26.9-27.4
		c-17.5-7.4-42.4-3.6-53,8c-9.2,10.2-9,10-13,10c-6.1,0-21.5,4.6-30.2,9c-6.4,3.2-9.2,4-13.4,4c-6.7,0-15.3,2.2-23.9,6.2l-6.6,3
		l-6.9-2.8c-20.8-8.5-52.1,2.8-60.9,22.1c-3.6,7.8-5,18.1-3.7,26.1c2,11.6,10.2,25.2,17.4,28.9l2.7,1.5l-4.4,7.6
		c-5.6,10-6.8,15.3-6.1,29c0.5,12.4,1.7,17,5.3,21.4c4.2,4.9,5.3,4,3.8-3.3c-1.6-7.2-1.8-14.3-0.5-15.1c0.4-0.3,1.1,1.8,1.4,4.6
		c1.1,9.1,4.5,17.3,9.4,22.8c4.8,5.4,8.9,8,12.3,8c2.6,0,2.5-0.7-0.7-5.5c-2.6-3.8-2.5-3.8,2.4,1.2c2.7,2.8,7.8,6.5,11.1,8.2
		l6.2,3.1v5.3c0,3-0.3,5.6-0.6,6c-0.4,0.3-2.3-0.2-4.3-1.2c-2-1.1-9.2-3.7-16.1-6c-33-10.7-58-15.5-77.5-14.9
		c-11.1,0.3-12.4,0.6-17.5,3.3c-4.2,2.3-5.7,3.7-6.4,6.2c-1.1,3.9,1,10,5.4,16.1c8.9,12.3,54.7,41.3,69.2,43.7
		c4.8,0.8,4.9,2.1,0.1,3c-6.4,1.2-11.2,3.6-14.4,7.3c-2.7,3.1-3.1,4.1-2.6,7.9c0.8,7.5,8,13.2,21.6,17.3l7.3,2.3l-5.8,3.1
		c-3.1,1.7-7.5,4.7-9.7,6.8c-2.2,2-6.2,5.2-8.8,7c-2.7,1.8-4.9,3.9-4.9,4.6c0,2.6,3.5,2.4,12.9-0.5c5.3-1.7,10.7-3.4,12.1-3.7
		c1.4-0.3,7.2-3.2,13-6.6l10.5-6h8.8c4.8,0,8.7,0.3,8.7,0.6c0,0.3-1.1,1.9-2.5,3.6c-4.7,5.6-2.5,10.2,7.1,15.1
		c7.2,3.6,15.2,5,24.1,4.1c7.2-0.6,7.6-0.6,6.8,1.2c-0.4,1.1-0.8,2.6-0.9,3.6c-0.1,0.9-0.8,2.3-1.5,3.1c-0.6,0.8-1.5,3.1-1.8,5
		c-0.5,3.1,0,4,3.6,8c2.2,2.4,4.1,5.1,4.1,5.9s1.1,3.1,2.4,5c1.8,2.7,2.9,7.2,5.1,21.4c1.5,9.8,3.7,22.9,4.9,29.1l2.3,11.1l-2.6,0.5
		c-1.4,0.3-4,1-5.7,1.7c-2.8,1.2-3.4,1.1-6.6-1.3c-1.9-1.5-3.9-2.7-4.4-2.7c-0.6,0-3.2,1.4-5.8,3.1l-4.8,3l-4-2.7
		c-2.1-1.5-4.1-3.1-4.4-3.6c-1.1-1.7-4.8-0.7-9.5,2.8l-4.8,3.5l-4.3-2.9c-7.3-5-8.3-5-13.1,0c-2.3,2.4-5.4,5.9-6.8,7.8l-2.6,3.4
		l-4.5-2.3l-4.4-2.4l-4,2.6c-3.8,2.6-9.4,8.6-14.5,15.5l-2.4,3.4l3,2.4c8.7,7.1,35,17.3,55,21.3c19.9,3.9,27.5,4.6,55.3,4.6
		c26.8,0,27.3,0,26.9,2c-10,41.9-13.3,70.2-8.9,75.4c0.9,1.1,5.5,3.5,10.2,5.4l8.5,3.4l0.8,5.4c2.2,15.4,4.6,26.6,13.2,60.9
		c10.6,42.4,14.8,61.7,13.9,63.2c-0.4,0.6-2.2,0.8-4.1,0.5c-5.4-0.9-24.2,1-38.8,3.9l-13.5,2.7l-4.5-4.2c-2.5-2.3-5.4-4.1-6.7-4.1
		s-7,1.7-12.8,3.8c-9.9,3.5-11.6,3.8-21.7,3.3c-1.5-0.1-3.6-2-6.5-5.8c-8.3-11.4-14.6-15.5-24.3-15.8c-3.3-0.1-8.5-0.8-11.6-1.5
		c-7.3-1.6-9.6-1-15.7,4.5c-5.5,4.9-10.6,13.8-11.7,20.4l-0.7,4l-9.9-4.9c-5.9-3-11.2-5-13.2-5c-12.9,0-27.3,13.8-33.4,31.9
		c-2,5.9-2,6.8-0.7,8.9c1.4,2.1,1.3,2.3-1.8,4.2c-1.8,1.1-6.2,3-9.7,4.1c-5.6,1.9-7.6,3.3-14.6,10.3c-13.5,13.4-24.5,30-24.5,36.7
		c0,3.7,4,8.1,11,11.9l5.5,3H84.3H0V425V0z"/>
	<path id="path6" fill="none" d="M620.9,0h114.5H850v425v425l-336.7-0.1H176.5l14-7.1l14-7.1l14.5-1.8c17.3-2.3,20.7-3,37.4-8.1
		c11.7-3.5,13-3.8,14.5-2.4c2.2,2,5.4,2,9.3,0c3.1-1.6,3.3-1.6,5.3,0.7c1.1,1.3,4,4,6.5,5.9s6.9,5.6,9.8,8.2
		c5.7,5.1,11.4,7.5,15.7,6.4c2.8-0.7,9.8-7.3,18.3-17.4l5.3-6.2h15.2c14.2,0,32.4,1,78.9,4.5c31.7,2.4,43.9-0.7,55.2-13.9
		c4.4-5.1,5.1-5.5,14.3-8.1c21.2-6,23.2-7.9,27.9-27.2c8.2-33,12.2-61.8,13.1-93.8c0.5-20.9,0.6-21,3.2-23.8c3.4-3.7,3.4-9,0.1-13.7
		c-2.4-3.3-2.5-4.2-2.5-17.5c0-13.1,0.2-14.3,2.3-16.9c2.7-3.5,2.9-8.7,0.3-11c-1.8-1.7-1.8-1.8,0-5.4c1-2,2.1-5,2.4-6.6l0.6-2.9
		l2.5,3.7c2.7,3.9,4.4,4.5,6.4,2.1c5.9-7.1-16.6-109.7-29.3-133.8c-2.6-4.9-2.8-6.1-1.9-8.3c1.7-3.7,1.5-5.2-1.3-7.6
		c-2-1.8-2.4-2.8-1.9-5.4c0.3-1.8,0.1-3.5-0.5-3.8c-0.7-0.5-1.1-6-1.1-15.9c0-17.6-2.2-37.6-4.9-44.7c-1.1-2.8-1.7-5.9-1.4-6.9
		s0-2.7-0.5-3.8c-0.7-1.3-0.6-3.7,0.4-7.8c0.8-3.3,1.5-10.3,1.6-15.5c0.2-8.1-0.1-10.1-2-13.7c-1.2-2.3-2.6-4.4-3.2-4.8
		c-0.5-0.3-1.4-1.4-2-2.5c-0.8-1.5-0.6-1.7,0.9-1.3c3.3,0.9,9.4-2.7,14.9-8.7c3-3.3,6.2-6.4,7.1-6.9c0.9-0.5,5.5-1.5,10.1-2.1
		c17.9-2.3,58.9-14.3,64-18.7c5-4.1,9.5-20.3,13.5-47.8c0.8-6.1,2.7-17.5,4-25.5c2.8-16.1,1.5-13.9,13.8-24.3
		c3.1-2.6,6.8-6.8,8.2-9.2c2.5-4.2,2.6-4.5,1-7.5c-0.9-1.7-2.2-3.3-3-3.6c-0.7-0.3-3.6-3.9-6.4-7.9c-3.8-5.5-5.1-8.2-5.1-10.9
		c0-2.5-0.7-4.2-2.2-5.4c-2.5-2-3.7-3.3-11-12.2c-3.8-4.7-8.4-8.5-16.1-13.6c-6-4-10.8-7.5-10.8-7.9c0-0.3,2.6-2.6,5.7-5
		c6-4.7,10.2-6.1,15.6-5.2c1.8,0.2,7,1,11.6,1.7c7.5,1.2,8.5,1.2,10-0.4c1.4-1.4,1.5-1.8,0.3-2.5c-2.1-1.3-0.3-1.8,9.9-2.6
		c18.6-1.4,25.3-3.3,21.4-6.2c-2-1.5-3.1-1.1,13.4-4.9c6.7-1.5,12.2-3.1,12.2-3.5c0-0.3-1.4-1.2-3.2-2c-2.6-1.1-5-1-15.2,0.6
		c-12.2,1.8-27,2.9-55.6,4.1l-15.5,0.6l2.8-2.9c1.5-1.6,2.7-3.6,2.7-4.4s1.2-2.2,2.8-3.1c4-2.4,6.6-5.6,6.7-8.4
		c0.1-1.3,1.2-3.5,2.4-4.8c2.8-3,3.5-9.2,1-8.8c-1.4,0.2-1.2-0.6,0.8-4.5c2.6-5.3,2.9-12,0.4-11.5c-0.9,0.2-1.1-0.2-0.6-1.5
		c1.7-3.8,2.8-11,2.1-13.6c-0.7-2.9-3-3.6-4.3-1.3c-0.5,0.9-0.8-0.3-0.8-3.2c0-2.6-0.4-5.7-0.8-7L620.9,0z"/>
	<path id="path8" fill="#00FF7F" d="M555.6,7c1.3,0,8.6,11.4,8.9,13.9c0.4,3.1,0.4,3.1-2,1.5c-1.4-0.9-2.5-2.1-2.5-2.8
		c0-0.6-1.1-3.7-2.4-6.9C556.3,9.6,555.4,7,555.6,7z"/>
	<path id="path10" fill="#00FF7F" d="M618.8,12.5c0.4,1.9-5.4,14.6-9.2,20.1c-1.7,2.5-2.2,4.2-1.6,4.8c0.6,0.6,1.3,0.6,1.9,0
		c1-1,12-16.2,13.8-19c1.1-1.7,1.2-1.5,0.6,1.1c-0.9,4.7-4.1,10.5-9.7,17.5c-4.3,5.5-5.1,6.1-5.4,4.2c-0.2-1.2-1.2-2.7-2.3-3.2
		c-2.5-1.4-2.5-1.7,1.6-8c1.9-2.9,4.9-8.4,6.7-12.2S618.7,11.7,618.8,12.5z"/>
	<path id="path12" fill="#20B2AA" d="M567.4,14c1.4,0,5.6,10.6,5.6,13.9s-0.1,3.3-1.9,1.7c-1.1-1-2-3.6-2.4-6.9
		c-0.3-2.9-0.8-6-1.2-7C567.1,14.8,567.1,14,567.4,14z"/>
	<path id="path14" fill="#7FFF00" d="M561.2,26c1.6,0,3.8,6.1,4.4,12.6c0.4,3.8,1,7.6,1.4,8.4c1,1.7,2.4-8.9,1.8-12.5
		c-0.8-3.8,0.8-3,2.5,1.2c0.9,2.6,1.3,5.8,0.9,9.7c-0.5,6.4,1.1,7.3,2.2,1.1c0.4-1.9,1.2-3.5,1.8-3.5c1.1,0,0.7,7.4-0.7,13l-0.7,2.5
		l2.1-2.5c2.7-3.2,2.8-0.7,0.1,2.7c-2.4,3-2.6,4.7-0.5,3.9c1.8-0.6,2,0.5,0.4,2.1c-0.8,0.8-0.6,1.3,0.9,1.7c2.1,0.7,3.7,5.9,2.5,8
		c-0.4,0.6-0.6,2.4-0.4,4c0.2,2.1-0.4,3.5-2.1,4.8c-1.8,1.4-2,2-1,2.7c1.1,0.6,1,1-0.3,1.5c-1.4,0.5-1.5,0.9-0.5,2.1
		c2.9,3.5,16.4-2.7,14-6.4c-0.6-1-0.1-2,1.5-3.3c2.1-1.6,2.7-1.7,6.6-0.4c9.8,3.2,11.6,3.5,15.4,3.1l4-0.5l-3.4,1.3
		c-5,1.9-5.4,4.2-0.7,3.4c5.1-0.8,4.5,0-1.3,1.7c-2.7,0.8-8.6,3.9-13,7c-4.5,3-10,6-12.4,6.7c-5.8,1.5-15.6,0.6-21.2-2.1
		c-4.3-2.1-10.5-7.3-10.5-8.9c0-1.4,8.4-6.3,8.8-5.1c0.3,0.8,0.8,0.8,1.8-0.1c2.7-2.2,1.7-9.9-2.3-18c-3.5-7-3.7-7.8-3.4-15.4
		c0.2-4.4,0.4-12.2,0.5-17.3C560.4,30.2,560.8,26,561.2,26z M565.6,48.1c-1.1-0.9-1.5-0.5-2,2c-1,5.1-0.7,8.1,0.7,7.6
		c1.3-0.4,3.7,4.3,3.7,7.4c0,2.4,1.6,2.4,2.9,0c0.7-1.3,0.6-2.4-0.4-3.7c-0.8-1.1-1.5-2.9-1.5-4.1c0-1.2-0.4-2.5-1-2.8
		c-0.5-0.3-1-1.7-1-2.9C567,50.3,566.4,48.7,565.6,48.1z M569.9,73.9c2.3,3.2,2.7,4.6,1,3.5c-0.7-0.4-0.9,0.1-0.5,1.5
		c0.3,1.1,0.9,3.1,1.2,4.3l0.6,2.1l1.9-2.4c2.6-3.3,2.4-6.2-0.7-9.3C569.6,69.9,567.2,70.1,569.9,73.9z"/>
	<path id="path16" fill="#00FF7F" d="M579.6,28c0.2,0,0.4,3,0.4,6.7v6.8l-2.5-2.5l-2.5-2.5l2.1-4.3C578.3,29.9,579.4,28,579.6,28z"
		/>
	<path id="path18" fill="#00FF7F" d="M614.7,47.9c-4,3.9-6.7,5.9-7.2,5.2c-1-1.8,0.5-7.1,2.1-7.1c0.7,0,4.2-2.7,7.6-5.9
		C627.8,30.1,625.5,37.2,614.7,47.9z"/>
	<path id="path20" fill="#00FF7F" d="M600.5,42c-1.9,3.7,0,5.3,2.5,2c0.9-1.2,1.9-1.9,2.2-1.4c1,1.9-1.3,7.3-4.2,9.8
		c-1.7,1.3-3,2.9-3,3.5c0,1.4,2.7,1.4,3.5,0.1c0.3-0.6,1-1,1.6-1c1.5,0-1.3,3.8-3.8,5.1c-1.3,0.7-2.3,1.8-2.3,2.6
		c0,1.5,2.6,1.8,3.5,0.3c0.3-0.6,1.1-1,1.8-1c1.9,0-1.1,2.4-4.6,3.6c-3.9,1.3-5.3,4.9-1.5,4c1.7-0.4,1.6-0.2-0.4,0.6
		c-1.6,0.7-2.8,1.8-2.8,2.5c0,1.4-1.2,1.7-2.3,0.6c-0.4-0.3-0.1-1.3,0.6-2.1c0.7-0.9,0.8-1.7,0.2-1.9c-3.1-1.1-3.5-1.9-2.3-5.1
		c1-2.6,1-3.4,0-4c-0.8-0.6-0.9-1.7-0.2-4.1c0.5-1.9,0.7-3.8,0.4-4.3s2-3.8,5.2-7.3C601.9,36.7,603.6,36,600.5,42z"/>
	<path id="path22" fill="#20B2AA" d="M583.8,43.8c0.7,2.1-0.8,8.3-1.9,7.7c-1.3-0.8-1.1-4.2,0.3-6.8
		C582.9,43.2,583.5,42.9,583.8,43.8z"/>
	<path id="path24" fill="#BA55D3" d="M473.7,60.2l3.2,3.3l-1.3,5.1c-1.5,5.7-2.9,8.6-6.3,13.2c-3.1,4.2-6.5,5.8-13.6,6.5l-5.7,0.6
		l-3.2-6.2c-1.7-3.4-4.1-9-5.4-12.4c-2.4-6.4-4.2-18.9-3.1-21.7C440.3,43.6,465.7,51.9,473.7,60.2z"/>
	<path id="path26" fill="#FF00FF" d="M435,53.8c0,6.7,2.9,19,6,25.4l2.1,4.3l-2.6-3c-4.2-4.8-6.3-9.8-7.5-17.1
		c-1-6.4-1.1-12.9-0.3-14.7C433.9,46.4,435,48.8,435,53.8z"/>
	<path id="path28" fill="#BA55D3" d="M428,49c0.6,0,1,2.9,1,6.8c0,17,7.9,30.7,22,37.9c11.1,5.7,23.7,2.9,30.6-6.8
		c4.7-6.4,5.2-5.5,5.3,8.1c0.1,11.6-0.8,13.3-8.3,15.5c-9.9,2.9-20.3-1.3-31.8-12.8c-6.6-6.6-8.8-7.9-8.8-5.5s15.6,16.5,21.5,19.4
		c7.2,3.4,15.5,4.3,20.8,2.1c4-1.7,4.5-1.1,2.3,3.1c-3.9,7.6-11,8.7-21.9,3.4c-7.3-3.6-17.5-13.7-22.1-21.8
		c-8.1-14.3-12.7-33-11.7-47.7C426.9,49.8,427.5,49,428,49z"/>
	<path id="path30" fill="#BA55D3" d="M423,53.6c0,7.2,3.5,24.8,6.5,32.9c1.9,5,4.3,11.9,5.4,15.3c2.8,9.1,9.1,19.1,16.1,25.6
		c3.4,3.1,6.5,5.6,7.1,5.6c0.5,0,0.9,0.4,0.9,0.9c0,0.6-2,1.3-4.5,1.7c-4.1,0.6-5.1,0.2-11.3-3.4c-3.7-2.3-7.5-4.4-8.4-4.8
		c-3-1.1-8.7-11.5-11.8-21.4c-4.1-13.3-6-25.4-6-38.6c0-6.9-0.4-11.5-1.1-11.9c-1.5-1-1.7-0.6-2.2,4.6c-0.3,2.5-1.3,6.1-2.3,8
		c-1.6,2.9-1.9,5.6-1.9,19.9c0.1,17.8,1.5,25.5,5.6,30.1l2,2.4l-0.4-2.5c-0.3-1.4-1.2-5.7-2.1-9.5c-2-9-3-26.6-1.8-33l1-5l0.1,5
		c0.3,13,5.1,32.7,10.7,43.7c2.3,4.5,2.4,5,0.7,4.4c-1-0.4-4-1.2-6.6-1.9c-3.8-0.8-5.4-1.9-7.7-5c-6-8.1-12.8-30.5-11.5-37.7
		c2-11.4,9.5-22.3,18-26.1C422.7,50.5,423,50.5,423,53.6z"/>
	<path id="path32" fill="#7FFF00" d="M549.5,65.1c-0.6,1.8-0.4,2,1.3,1.4c3.6-1.1,9.6,2.8,11.4,7.4c1.6,4,1.6,4.2-0.8,7
		c-1.3,1.6-4,3.8-5.9,5l-3.5,2l-4.7-4.1c-4.6-3.9-7.1-6.8-5.8-6.8c0.7,0,2.9,1.8,6,5c2,2,2.9,2.3,4.2,1.4c2.6-1.6,2.6-2.9-0.2-4.4
		c-1.4-0.7-2.5-2.2-2.5-3.2c0-2.4-2.7-3.4-5.1-1.9c-1.1,0.6-1.9,0.9-1.9,0.5c0-1,2.2-4.8,4.7-8.2C549.5,62.5,550.4,62.1,549.5,65.1z
		"/>
	<path id="path34" fill="#8A2BE2" d="M481,70c3.4,6.2,2.2,11.6-3.7,17.2c-5.4,5.1-14.8,7.5-21.3,5.2c-2.1-0.7-1.6-0.9,3.2-1.5
		c3.9-0.4,6.9-1.5,9.1-3.2C472,84.9,479,72.6,479,68.9C479.1,66.8,479.3,66.9,481,70z"/>
	<path id="path36" fill="#4B0082" d="M397.3,69.1c1-0.1,0.9,1.2-0.4,6.3l-1.1,4.4l-6.1,0.6c-11.1,1.3-27.8,7.7-30.2,11.6
		c-0.8,1.4-1.1,1.4,9-2.5c5-2,12.8-4.2,17.4-5c9.7-1.7,10.1-1.8,10.1-0.7c0,0.4-3,1.8-6.7,3c-8,2.5-18.3,8.7-18.3,10.9
		c0,0.8,0.3,1.3,0.8,1.1c25.4-12.6,24-12.5,26.5-3l2,7.3l-4.3,4.4c-3,3-4.1,4.8-3.4,5.5s2.4-0.1,5.2-2.6l4.2-3.5l2.7,5.8
		c1.5,3.2,2.9,6.1,3.1,6.5c0.2,0.5-0.5,0.8-1.5,0.8s-2.6,0.7-3.6,1.4c-1.6,1.3-1.1,1.5,5,2.1c15.4,1.5,27.9,6.4,38.9,15.4
		c5.5,4.4,16.4,16.8,16.4,18.6c0,0.3-1.3-0.3-3-1.5c-1.6-1.1-5.5-3.2-8.7-4.6s-7.7-4.3-10-6.5c-9.3-8.5-25.9-16.7-31.2-15.4
		c-2.3,0.6-1.5,1.1,5.5,3.9c11.6,4.6,17,8.1,24.7,15.7c4.7,4.7,7.6,8.7,9.7,13.3c1.7,3.6,3,6.9,3,7.4s-5.1-4.2-11.2-10.3
		c-9-8.8-13-11.9-19.5-15.3c-7.7-4-11.3-5.1-11.3-3.5c0,0.5,3.3,2.5,7.3,4.5c9.9,5.1,19,12.9,27.5,23.4c3.9,4.9,6.9,9,6.7,9.2
		c-0.1,0.2-3-0.8-6.3-2.1c-7.8-3.2-15.6-8.6-27.1-18.8c-5.2-4.5-9-7.6-8.6-6.8c2,3.3,6.1,8.7,9.4,12.1c3,3.3,3.2,3.8,1.5,3.8
		c-1.1,0-5.5-3.6-10.4-8.5c-4.7-4.7-8.8-8.5-9.2-8.5c-1.4,0,5,9.4,9.1,13.5c2.3,2.1,4.1,4.2,4.1,4.6c0,0.4-1.3,1.2-3,1.7
		c-2.9,1-3.2,0.8-11.5-8.1c-8.4-9-11-10-5.9-2.2c1.5,2.2,4.5,5.9,6.8,8.3c3.4,3.5,3.8,4.4,2.6,5.2c-0.8,0.5-2.1,1-2.9,1
		c-2.3,0-12.8-9.8-18.6-17.6c-4.9-6.4-7.5-8.8-7.5-6.9c0,2.5,5.7,10.3,13.1,18l8.9,9.2l-3.5,3.3l-3.4,3.3l-7.3-6.2
		c-8.1-6.8-11.7-10.9-14.9-17c-1.1-2.3-2.5-4.4-3-4.7c-1.9-1.1-2,2.6-0.1,6.3c2.7,5.2,12.6,19,16.9,23.4c3.2,3.4,3.3,3.7,1.8,5.3
		c-1.6,1.5-2,1.5-5.7-0.6c-8.6-4.9-19.6-19.2-23.2-30.2c-0.5-1.5-0.9-1.7-1.8-0.8c-2.4,2.4,1.9,11.7,10.4,23
		c9.8,12.9,12.2,15.6,17.2,19.3c3.7,2.7,3.8,2.9,1.4,2.9c-1.4,0-6.3-1.9-10.9-4.2c-11.4-5.6-23.5-17.6-30.2-29.8
		c-2.5-4.7-4.6-7.7-4.7-6.7c0,3,3.7,12.3,6.7,16.9c1.6,2.4,4.4,7.4,6.3,11.3c2.2,4.7,5.3,8.9,9.3,12.7c3.3,3.2,5.5,5.8,5.1,5.8
		c-1.8,0-11.1-5.9-15.6-9.9c-5.6-4.9-13.2-16.1-16.4-24c-1.3-3-2.8-5.7-3.3-5.9c-1.9-0.6-1.2,4.1,1.5,9.8c1.4,3,3.8,9,5.3,13.2
		l2.8,7.8h-4.1c-3.8,0-4.5-0.4-7.9-4.8c-6.1-8.1-10.5-20-11.7-32.2c0-0.3-0.5,0.2-1,1c-1.4,2.2-1.2,10,0.5,15.6
		c0.8,2.7,3.5,8.2,6,12.2c2.5,4.1,4.5,7.8,4.5,8.3s-1.3,0.9-2.9,0.9c-2.6,0-3.1-0.6-6.1-7.8c-1.8-4.2-4-11.2-4.8-15.5
		c-0.9-4.2-2-7.7-2.4-7.7c-1.3,0-0.9,9,0.7,15.6c0.8,3.4,2.5,8.7,3.9,11.8l2.5,5.6l-2.5,1.6c-1.3,0.9-2.6,1.5-2.8,1.3
		c-1.1-1.5-4.6-16.1-4.6-19.3c0-3.3-0.2-3.7-1.5-2.6c-4.4,3.6,0.6,23,8.1,31.3c3.4,3.8,4.2,5.3,3.3,6.3c-0.9,1.1-0.3,1.5,3,2
		c3.9,0.6,4.1,0.8,2.6,2.4c-2,2.2-0.4,3.6,2.2,2.1c1.4-0.7,2.6-0.2,5.3,2.1l3.5,3l-3-0.7c-5.5-1.1-13.4-5.6-19-10.7
		c-9.4-8.6-14.6-22.8-14.9-40.7c0-5.2-0.5-8.6-1.2-8.8c-4-1.3-2.6,23.6,2,34.9c0.7,1.8,1.6,4.6,2,6.3l0.6,3l-1.7-3
		c-1.7-2.9-1.8-2.9-2.1-0.7c-0.7,4.7,4.2,15.8,10.7,24c3.8,4.8,3.9,5.1,1.5,4.2c-7.5-2.9-15.7-10.7-19.9-19c-5.5-10.9-6.7-21.7-4-37
		c1.8-10,1.9-11.8,0.6-10.5c-1.6,1.7-4.9,12.8-5.6,19c-0.3,3.3-0.1,8.9,0.5,12.5s1.5,9.5,2,13.2c0.5,3.8,1.7,8.3,2.6,10l1.6,3.3
		l-3.1-3c-6.3-5.9-10.1-17.9-10.1-32c0-7.5,1.9-14.5,5.9-22.5c1.8-3.4,3-6.5,2.7-6.7c-3.3-3.3-15.4,23.5-16.5,36.7l-0.7,7.5
		l-0.8-5.7c-1.4-9.5,2.9-22.9,11-34c2.5-3.6,3.3-5.3,2.5-6.1c-0.6-0.6-1.2-0.9-1.4-0.6c-0.2,0.2-2,2.6-4,5.3s-3.7,4.5-3.7,3.9
		c0-1.6,6.1-9.5,14.9-19.2c5.7-6.2,7.8-9.1,6.3-8.7c-1.2,0.4-2.2,0.5-2.2,0.2c0-2,2.3-10.6,2.9-10.6c0.3,0,1.7,0.7,2.9,1.6
		c3.4,2.4,3.8,0.9,0.8-2.6c-4.4-5.3-2.9-5.1,2.8,0.4c3,2.9,7.9,6.5,10.8,8l5.3,2.8l-9.8-9.4c-11.1-10.5-11-10.1-4.7-19.3l3-4.4
		l10.3-0.3c9.4-0.3,10-0.4,7.2-1.6c-1.6-0.7-5.5-1.7-8.5-2.1l-5.5-0.7l6.5-1.5c4.3-1,6.5-2,6.5-3c0-1.4-1.7-1.5-7.5-0.4
		c-2.1,0.4-1.6-0.3,3.1-4.7c9.9-9.4,22.6-15.5,35.9-17.3l5.5-0.7l-3.6,3.8c-5.7,6.3-6.4,7.5-5.1,8.3c0.7,0.4,3.7-1.7,7.4-5.4
		c9.8-9.4,24.2-16.2,39.3-18.4C393.8,69.6,396.8,69.2,397.3,69.1z"/>
	<path id="path38" fill="#BA55D3" d="M295.5,86.4c1.6,0.3,5.4,8.5,6.1,13.2c0.6,3.9,0.3,4.7-4.1,10.8c-2.6,3.6-5.9,8.9-7.5,11.7
		c-1.5,2.8-3,4.7-3.3,4.3c-0.9-1.5-4.6-25.5-4.9-31.9l-0.3-6l6.5-1.1C291.6,86.7,295,86.3,295.5,86.4z"/>
	<path id="path40" fill="#BA55D3" d="M312.4,88.8l4,1.6l-5.5,4.8c-5.9,5.2-5.3,5.4-7.9-2.7c-0.7-2.2-1.5-4.6-1.8-5.3
		C300.6,85.6,306.3,86.4,312.4,88.8z"/>
	<path id="path42" fill="#BA55D3" d="M278,90.4c0,4.7,2.7,23.8,4.6,32.1c2.3,10.4,2.4,11.4,1,15.3c-0.9,2.4-1.8,6.5-2.2,9.2
		c-0.6,4.2-3.6,9.3-4.8,7.9c-0.2-0.2-1.5-5.2-3-11c-2.9-11.7-5.1-35.5-4-45c0.6-5.1,1-5.8,3.8-7.2C276.6,90.1,278,89.7,278,90.4z"/>
	<path id="path44" fill="#FF1493" d="M266.1,112c0.7,15,1.7,21.6,6,38.3c1.4,5.4,1.7,8.3,1,9s-1.3,0.3-1.9-1.4
		c-2.7-7-6.1-18.1-7.3-23.4c-1.8-8-1.7-31,0.1-35C265.3,96.7,265.5,97.8,266.1,112z"/>
	<path id="path46" fill="#800000" d="M561.1,102.1c2.7,1.4,1.8,2.4-4,4.3c-6.1,2-19.7,0.9-25.1-2l-3.5-1.8l3.5-0.7
		C537.8,100.8,559,100.9,561.1,102.1z"/>
	<path id="path48" fill="#8A2BE2" d="M258.8,104c0.4,0,0.6,4.6,0.4,10.2c-0.4,12.2,1.7,25.7,5.9,37c1.5,4.3,2.4,7.8,2,7.8
		s-1.9-1.2-3.3-2.8c-2.1-2.2-2.9-4.4-3.8-11.2c-2-14.3-2.5-16.3-3.9-16.8s-1.3,2.6,0.4,15.8l0.5,3.5l-2.1-4.5
		c-4.3-9-3.5-26.1,1.7-36.2C257.4,105.2,258.4,104,258.8,104z"/>
	<path id="path50" fill="#800000" d="M590.2,105c0.7,0,6.7,3.5,13.3,7.8c12.3,8,19.3,15,23.7,23.5c1.5,3,2.2,3.6,3.2,2.7
		c2.4-1.9,2.7,1.8,0.6,6.5c-1.1,2.4-2,4.9-2,5.4c0,1.8,1.8,1.3,3.3-0.9c1.3-1.9,1.6-1.6,6,4.8c2.6,3.7,4.7,7.5,4.7,8.5
		c0,2.6-7.6,10.5-14.4,14.9c-5.1,3.3-6.7,3.8-11.6,3.8c-8.9,0-23.1-5.2-27.7-10.2l-2.3-2.4l4.6-7.9c6.3-11.2,6.2-11.1,11.7-8.4
		l4.7,2.3l9.5-1.8c7.1-1.4,9.5-2.2,9.5-3.3c0-1.3-0.8-1.4-4.2-0.9c-10.8,1.6-13.8,1.8-16.5,1.1s-2.8-0.7-0.5-1.6
		c1.2-0.4,2.2-1.3,2.2-1.8c0-0.7,0.9-0.7,2.4,0c3.2,1.5,10.2,0.4,14.4-2.1c4.7-2.9,3.9-4.1-1.5-2.5c-2.7,0.8-4.9,1.5-5.1,1.5
		s-0.1-0.9,0.3-1.9c0.5-1.8,0.3-1.8-3.3-0.6c-5.6,2-12.3,0.1-20.6-5.8l-2.9-2l3.4-1.1c2.6-0.8,3.5-1.7,3.7-3.8
		c0.3-2.3,0-2.6-1.9-2.3c-3.7,0.7-7.1,3.4-14.9,11.6c-4.2,4.3-8,7.9-8.6,7.9c-2.3,0,7.9-17.5,13.3-23.1c3.5-3.6,5.1-5.9,4.4-6.4
		c-1.5-0.8-10.8,6.5-22.7,17.7c-5.1,4.9-9.9,8.8-10.8,8.8c-1.8,0-2.1-1.5-0.6-2.5c0.6-0.4,3.4-4.1,6.2-8.3
		c6.6-9.8,19.3-22.5,21.8-21.7c1.3,0.4,2.1-0.2,2.8-2.5C588.4,106.4,589.5,105,590.2,105z"/>
	<path id="path52" fill="#FF00FF" d="M447.8,115c3.7,3.6,8.6,7.4,11,8.4c2.3,1,3.9,2.3,3.6,2.8s0.8,1.4,2.5,2.1
		c3.7,1.4,4,2.7,0.7,2.7c-4.1,0-7.4-1.7-12.8-6.7c-4-3.8-11.8-14-11.8-15.5C441,108.6,444,111.4,447.8,115z"/>
	<path id="path54" fill="#800000" d="M579.4,108.9c1.4,0.1,0.7,0.9-2.5,3.1c-3.1,2.1-5.6,3-8.5,3c-2.8,0-6.9,1.5-13.8,5
		c-9.7,4.9-12.8,5.8-15.5,4.1c-0.9-0.6,1.4-2.7,8.6-7.4c5.4-3.6,10.9-7,12.1-7.4C561.8,108.5,570.8,108.4,579.4,108.9z"/>
	<path id="path56" fill="#FF4500" d="M508.7,115c6.8,13.7,5.1,38.3-4.9,68.9c-2.2,6.8-5.5,16-7.4,20.3c-1.9,4.4-3.2,8.4-2.9,8.9
		c0.3,0.5,3.8-2.5,7.8-6.6s7.7-7.5,8.4-7.5c0.7,0,2.4,1,3.8,2.2c5.8,5.1,3.9,19.4-4.8,36c-4.6,8.7-5.5,9.9-9.2,11.4
		c-2.2,0.8-4.9,2.4-6,3.4s-3.6,2.1-5.5,2.4c-1.9,0.4-4.7,0.9-6.2,1.3l-2.8,0.5v-8.6c0-5.6,0.4-8.5,1-8.1c0.6,0.3,1,2.6,1,5.1
		c0,5.6,2.5,6.1,3.9,0.6c3.5-13.1,2-27.4-4.4-40.3l-3.6-7.5l4-8c6-12.3,7.4-18.7,6.9-33.4c-0.3-8.7-1-14.3-2.3-18.3l-1.9-5.9
		l2.7-5.2c3.4-6.5,8.2-12.3,12.1-14.7C503.3,108.9,506.1,109.7,508.7,115z"/>
	<path id="path58" fill="#800000" d="M564,124.6c0,0.3-0.9,1.9-2.1,3.5c-2.3,3.2-3.4,3.4-11.1,1.8l-5.2-1.2l4.4-2.3
		C554.1,124.3,564,123,564,124.6z"/>
	<path id="path60" fill="#BA55D3" d="M480.2,133.7c3.1,6.9,4.7,15.6,4.7,24.8c0.1,9.4-0.9,14.5-4.6,23.8l-2.7,6.9l-1.3-6.3
		c-1.1-5.6-1.1-6.8,0.8-12.3c3.1-9.2,3.6-25.2,1.1-33.8c-1-3.7-1.7-7-1.4-7.3C477.8,128.6,478.1,129,480.2,133.7z"/>
	<path id="path62" fill="#4B0082" d="M474.8,137.6c1.7,4.8,1.9,10.4,0.8,25.6l-0.8,11.7l-3.6-2.9c-3.9-3-11-5.4-13.4-4.5
		c-0.9,0.4-2.4-1.6-4.6-6c-1.7-3.6-2.9-6.5-2.6-6.5c1.2,0,7.3,3.5,13.2,7.6c3.5,2.4,6.5,4.4,6.7,4.4s0-1.4-0.5-3.2
		c-1.4-4.6-6.6-12.9-11.9-18.6l-4.7-5.1l6.3-2c3.5-1.2,6.6-2.1,6.8-2.1c0.3,0,0.5,2.4,0.5,5.4c0,5.5,1.4,8,3.2,5.5
		c0.5-0.8,0.7-4,0.5-7.1c-0.3-3.1-0.2-5.9,0.1-6.3C472,132.3,473.4,133.7,474.8,137.6z"/>
	<path id="path64" fill="#B22222" d="M593.6,137.9c1.3,1.6,4.5,3.9,6.9,5.1c2.5,1.2,4.5,2.4,4.5,2.6s-1.5,0.1-3.2-0.2
		c-4.8-0.8-16.8-4.4-16.8-5c0-0.2,0.7-1.6,1.6-2.9C588.7,134.2,590.6,134.4,593.6,137.9z"/>
	<path id="path66" fill="#B22222" d="M648,166.3c0,4.1-13.6,17.4-22.3,21.8c-5.4,2.8-11.6,2.2-26.4-2.5c-8.7-2.8-11.7-4.3-13.7-6.6
		c-1.4-1.7-2.3-3.7-2-4.5c0.5-1.2,1.4-0.9,4.8,1.4c5.1,3.5,14.3,7.4,21.4,9.1c8.4,1.9,13.9,1,20.8-3.7c6.8-4.7,14-11.6,14.9-14.4
		C646.2,164.7,648,164.3,648,166.3z"/>
	<path id="path68" fill="#FF00FF" d="M433,172.6c3,2,7.8,4.7,10.5,6c3.9,1.9,4.5,2.4,2.5,2.4c-5.1-0.1-22-8.6-22-11.1
		C424,168,427.8,169.2,433,172.6z"/>
	<path id="path70" fill="#FF00FF" d="M422.4,174.5c2.7,3.4,2.7,3.5,0.5,3.5c-2.3,0-9.9-3.9-9.9-5.1c0-0.4,0.6-1,1.3-1.2
		C417.5,170.3,419.9,171.2,422.4,174.5z"/>
	<path id="path72" fill="#FF00FF" d="M460.7,171c2.9,0,8.2,3,10,5.6c1.6,2.5,3.6,14.2,2.6,15.4c-0.8,0.9-2.3-2.6-2.3-5.5
		c-0.1-2.8-0.2-2.9-1.5-1.1c-1.3,1.8-1.6,1.8-3.9,0.2c-1.6-1-2.3-2.2-2-3.1c0.4-1,0-1.5-1.5-1.5c-1.2,0-2.1-0.5-2.1-1
		c0-1.3,1-1.2,4,0.5s4,1.8,4,0.5c0-2-4.1-5-6.9-5c-3.1,0-4.6-2.1-2.8-3.9C458.9,171.5,460,171,460.7,171z"/>
	<path id="path74" fill="#4B0082" d="M402,180.9c0.8,1.6,0.6,2.3-1.2,3.5c-1.2,0.8-2.4,1.4-2.7,1.2s-1.4-0.6-2.4-0.9
		c-1.6-0.6-1.5-0.9,1-3.2C400.1,178.5,400.6,178.5,402,180.9z"/>
	<path id="path76" fill="#8A2BE2" d="M463.2,188.1c12,9.5,19.9,25.7,19.7,40.7c-0.1,7.4-0.1,7.6-1.4,4.7c-0.8-1.7-1.4-5-1.5-7.5
		c0-2.5-0.4-5.1-0.9-5.9c-1-1.6-1.6,2.9-2.7,19.2c-0.3,5.4-0.8,9.6-1,9.4c-0.3-0.2-1.3-4.8-2.3-10.1c-2-10.2-2.5-11.6-4.1-10
		c-0.5,0.5-0.5,2.6,0.1,5.3c0.5,2.4,0.8,4.9,0.6,5.5c-0.6,1.3-1-0.1-2.6-7.4c-0.7-3-1.9-7.5-2.6-10c-0.8-2.5-2.1-7.5-3-11.2
		s-2.8-8.1-4.1-9.9c-3-4.1-3-3.3,0,6.1c1.3,4.1,2.6,8.8,2.9,10.5c0.3,1.6,2,8.2,3.7,14.5c2.9,10.7,4.9,15.4,9.4,22.2
		c1.8,2.8,1.8,2.8-0.3,2.8c-3.1,0-9.4-6.2-12.1-11.9c-2.3-5-3.3-6-4.4-4.3c-0.7,1.2,3.7,10.2,6.8,13.9c3.5,4.1,2.5,4.2-2.5,0.3
		c-4.6-3.7-8.7-11.8-9.5-18.6c-0.3-2.7,0.1-10.9,1-18.3c0.9-7.4,1.4-14.8,1-16.5c-1-5.1-3.5-9.6-5.3-9.7c-0.9,0-0.3-0.5,1.2-1.1
		c3.8-1.4,2.8-3.4-1.4-3c-5,0.4-2.2-2,3.3-2.8C456.7,184.1,458.7,184.6,463.2,188.1z M461.7,191.7c-0.4,0.3,1.4,2.8,3.9,5.5
		s6.1,8.2,8.1,12.3c4.1,8.7,6.3,9.1,3.1,0.7c-2.5-6.7-5.6-11.9-8.9-14.7C463.7,191.8,462.3,191,461.7,191.7z"/>
	<path id="path78" fill="#FFEBCD" d="M595.8,189c0.2,0,5.3,1.1,11.3,2.5c7.4,1.7,12.2,2.3,14.9,1.9c4.5-0.7,4.5-1,2.6,7.1
		c-0.8,3.3-2.4,12.9-3.5,21.3c-4.1,30.4-9.3,51.6-13.3,54.1c-5.9,3.7-37.3,12.8-56.8,16.6c-4.7,0.8-9.5,1.8-10.8,2.1
		c-2.2,0.4-2.2,0.2-2-5.8c0.3-8.4-0.7-16.3-2.7-21.8c-2.9-7.9-2.9-7.9-0.4-8.4c22-4.2,41-7.6,43.1-7.6c2.6,0,2.6-0.2,1.7-3
		c-1.6-4.3,0.9-15.1,8.8-38.7C592.5,198.1,595.6,189,595.8,189z"/>
	<path id="path80" fill="#000080" d="M427.5,193.4c3,4.5-1.6,10.1-5.3,6.4c-1.8-1.8-1.5-6.5,0.6-7.7
		C425.3,190.6,425.8,190.7,427.5,193.4z"/>
	<path id="path82" fill="none" d="M379.1,193.7c1.3,1.6,1.2,1.7-0.3,0.4c-1-0.7-1.8-1.5-1.8-1.7C377,191.6,377.8,192.1,379.1,193.7z
		"/>
	<path id="path84" fill="#FFEBCD" d="M359.8,196.5c11.3,8.1,27.2,12.7,33,9.6c1.5-0.8,2.1-0.8,2.5,0.2c0.2,0.7,2.1-0.6,4.5-3.3
		c3.3-3.6,4.1-4.1,4.2-2.5c0,2.5,5.1,11.4,7.9,13.9c2.7,2.5,2.7,3.6-0.3,3.6c-2.5,0-5.3,2.5-3.8,3.4c1.1,0.6,18.2-2,22.8-3.5
		c1.8-0.5,4-1.9,4.9-2.9c1-1.1,2.1-2,2.5-2s1,4.8,1.3,10.7c0.4,6,0.9,12.2,1.3,13.8c0.5,2.7-0.2,3.8-5.8,9.9
		c-3.5,3.8-10.6,10.8-15.8,15.4l-9.4,8.4l-5.5-0.6c-4.2-0.5-7.1-1.8-12.4-5.2c-7.7-5.1-11-6-18.2-4.7c-6.9,1.2-9.7,0.4-11.5-3.4
		c-1.9-4.1-4-4.3-4-0.3c0,1.6-0.3,3-0.6,3c-0.3,0-3.3-1.9-6.7-4.3c-5.2-3.6-6.5-5.2-9.4-11.5c-3.2-6.9-3.3-7.5-1.7-8.7
		c1.7-1.2,1.6-1.3-0.3-1.9c-4.6-1.5-7.3-4.6-7.3-8.5c0-3.5,1.4-6.1,3.2-6.1c0.4,0,0.8,0.8,0.8,1.8c0,3.2,4.8,11.6,8.9,15.6
		c3.6,3.5,3.8,4.1,2.4,5.1c-1.5,1.1-1.4,1.4,0.4,3.2c3,3,6.5,2.1,12.8-3.3c5.4-4.7,6.3-5.9,4.7-6.6c-0.5-0.2-2.1-3.8-3.5-8.1
		c-2-6.1-2.3-7.7-1.1-7.7c2.9,0,0.1-3.9-3.8-5.3c-1-0.4-1.8-1.5-1.8-2.6c0-1.9,0.1-1.9,5.2,0.1c5,1.9,18.8,3.7,18.8,2.5
		c0-0.3-2.4-1.7-5.4-3c-5.2-2.4-18.6-14.4-18.6-16.7C355,193.5,357.2,194.6,359.8,196.5z M378,236c-1.7-2.2-1.9-2.3-2.5-0.7
		c-0.4,0.9-0.2,2.4,0.5,3.2c1.3,1.6,4,2.1,4,0.7C380,238.8,379.1,237.4,378,236z M400.3,234c-0.4,0.1-2.8,1.2-5.3,2.5
		s-6.7,3.2-9.5,4.1c-2.7,0.9-5.1,1.7-5.2,1.8c-0.5,0.4,18.5,19.5,20.4,20.5c6.4,3.3,9.1-0.6,7.3-10.6c-0.7-3.4-2.5-9-4.1-12.3
		C402.4,236.7,400.7,234,400.3,234z"/>
	<path id="path86" fill="#FF0000" d="M399.1,239c1.5-0.1,5.3,10.9,5.7,16.4c0.5,6.6,0.6,6.6-6.4,1c-4-3.2-7.4-8.6-7.4-11.8
		c0-0.8,1.7-2.4,3.8-3.5C396.8,240,398.8,239.1,399.1,239z"/>
	<path id="path88" fill="#000080" d="M438.2,195.4c2.3,2,2.6,3,2.1,6c-0.3,1.9-1.3,4.2-2.3,5.1c-1.6,1.5-1.8,1.2-2.4-3.7
		c-0.4-2.9-1-6.3-1.3-7.6C433.6,192.4,434.8,192.4,438.2,195.4z"/>
	<path id="path90" fill="#4B0082" d="M450,203.6c0,4.8-0.5,12.5-1,17.3c-0.6,4.7-1.4,11.7-1.8,15.6l-0.8,7l-1.2-4
		c-2.9-9.6-3.6-18.2-2.4-30.3c0.9-8.7,1.7-12,2.9-13C449.4,193.5,450,194.6,450,203.6z"/>
	<path id="path92" fill="#4B0082" d="M387,196.6c2.4,0.5,3.1,1.1,2.7,2.5c-0.6,2.2,0.3,2.5,2.1,0.7c1.5-1.5,1.6-0.3,0.2,2.2
		c-1,1.8-1.3,1.8-5.5-1.3c-2.4-1.8-4.4-3.5-4.4-4C382,195.8,382.8,195.8,387,196.6z"/>
	<path id="path94" fill="none" d="M340.3,197c0.2,0,1.2,0.9,2.2,2s1.3,2,0.7,2c-0.6,0-1.6-0.9-2.2-2S340.1,197,340.3,197z"/>
	<path id="path96" fill="#BA55D3" d="M350.6,206.1c4,2.4,4.2,2.9,1.2,2.2c-3.6-0.8-6.8-2.5-6.2-3.5
		C346.3,203.6,346.9,203.8,350.6,206.1z"/>
	<path id="path98" fill="#000080" d="M433,209.5c0,2.4-2.4,4.3-7.7,5.9c-3,0.9-3.1-1.5-0.2-5.5C427.9,206,433,205.7,433,209.5z"/>
	<path id="path100" fill="#000080" d="M354.5,220c1.7,1.9,1.7,2.2,0.3,3.7c-2.4,2.3-4.8,0.9-4.8-2.7
		C350,217.5,351.8,217.1,354.5,220z"/>
	<path id="path102" fill="#8A2BE2" d="M302.9,220.8l5.5,4.8c3.1,2.6,5.6,4.9,5.6,5s-0.6,1.6-1.4,3.4l-1.3,3.3l-2.6-4.4
		c-1.4-2.4-3.3-6.1-4.2-8.3L302.9,220.8z"/>
	<path id="path104" fill="#000080" d="M359.3,230.6l0.9,2.4c0.7,1.8,0.4,2.8-1.1,4.4c-1.8,1.8-2.1,1.8-2.7,0.3
		c-0.3-1,0.2-2.9,1.1-4.4L359.3,230.6z"/>
	<path id="path106" fill="#4B0082" d="M317,232.4l9,2.9c8.5,2.8,9,3.1,10.1,6.5c0.7,2.1,2.3,5.5,3.6,7.7
		c11.9,20.3,16.4,37.5,9.8,37.5c-3.1,0-9.8-14.7-11.2-24.5c-0.3-2.8-1.1-4.5-1.9-4.5c-2.1,0-1.8,4.6,1.2,16.5
		c0.2,1.1-0.4,0.4-1.5-1.5c-1.1-2-2.7-6.5-3.6-10c-2.4-9.6-2.4-9.7-3.5-8c-0.7,1-1-1.2-1-6.5c-0.1-8.9-1.2-8.6-2.9,0.9
		c-2.2,12,2.7,27.3,12.4,38.3c2.5,2.8,4.1,5.4,3.7,5.7c-1.5,0.9-10.1-5.4-13.7-10.1c-5.4-7.1-7.5-13.5-9-28.8
		c-0.6-5.9-2.1-7.9-3.1-4.1c-1.4,5.8,0.2,15.9,4.4,26.6l4.1,10.5l-3-3.5c-1.7-1.9-3.7-4.7-4.5-6.2c-2.1-4.1-4.4-14.6-4.4-20.8
		c0-7.9,0.8-10,3.6-10c3.2,0,3.7-1.4,1.4-3.5c-2.2-2-2.5-3.9-1-8.1L317,232.4z"/>
	<path id="path108" fill="#FF7F50" d="M212.5,238.1c9.2-0.1,31,3,42.7,6c14.7,3.7,41,12,47.3,14.8c6.2,2.8,6.2,2.9,6.9,7.7
		c1.5,9.8,7.7,20.4,15,25.3c5.9,4,8,4.6,7.3,2.2c-0.5-1.9-0.3-1.9,2.8,0.2l3.4,2.2l-2.3,3c-1.2,1.6-4,5.3-6.1,8.2
		c-4.5,6.1-16.2,14.5-24.7,17.9c-3.3,1.3-9.3,4.3-13.2,6.8c-13.7,8.5-11.9,8.2-25.2,3.7c-12.3-4.2-15.8-6.5-18.1-12
		c-1.3-3.1-1.3-3.6,0.4-6c3.9-5.4,13.9-8.4,34.6-10.6c4-0.5,5.7-1.1,5.7-2.1s-1.5-1.4-5.9-1.4c-15.3,0-30.6-4.9-49-15.7
		c-29.9-17.6-44.1-30.8-44.1-41.1c0-3.7,1.5-4.9,8.7-7.2C202.3,238.8,207.6,238.1,212.5,238.1z"/>
	<path id="path110" fill="#FF00FF" d="M447.3,252.1c1.6,2.7,3.4,4.8,4,4.6c0.7-0.3,1.1-0.9,1-1.3c-0.1-0.5-0.4-2.3-0.8-3.9l-0.6-3
		l1.8,2.5c0.9,1.4,3.5,4.2,5.6,6.2l3.9,3.7l-4.4,2.2l-4.5,2.2l-2.2-2.2c-1.1-1.1-2.9-2.1-3.9-2.1c-1.4,0-1.8-0.9-2-4.7
		c-0.1-2.6-0.6-5.1-1.2-5.7c-0.5-0.5-1-1.6-1-2.3C443,245.7,444.5,247.1,447.3,252.1z"/>
	<path id="path112" fill="#FFDEAD" d="M436.8,252.4c0.7,0.8-0.7,2.4-4.1,4.7l-3.2,2.2l3.4-3.6C434.8,253.7,436.6,252.2,436.8,252.4z
		"/>
	<path id="path114" fill="#87CEFA" d="M501.4,253.3c-1.2,0.7-1.9,1.7-1.7,2.3c0.3,0.8,2.2,0.6,6.4-0.7c8.2-2.6,9.3-2.4,13.9,1.7
		c4.2,3.9,5,5.8,2.5,6.8c-1.4,0.5-1.4,0.9,0.1,3.8c0.9,1.8,2.6,4.5,3.7,6c2.6,3.5,2,11.8-1.2,15.1c-2.5,2.7-2.8,6.5-0.5,7.4
		c2.1,0.8,4.4-1.5,2.5-2.6c-0.9-0.6-1-1.1-0.2-1.5c1.9-1.2,3.1,0.4,3.1,4.2c0,3-0.9,4.6-5,8.9c-2.7,2.9-6.1,5.5-7.5,5.9
		c-3.7,0.9-11.8-1.5-11.1-3.3c0.4-0.8,0.6-2.2,0.6-3.1c0-1.2,0.3-1.3,1.2-0.4c0.7,0.7,1.8,1.2,2.5,1.2c2,0,1.5-2.4-0.7-3.8
		c-2-1.2-2.5-5-1.1-8.5c0.6-1.7,0.8-1.7,2-0.3c1.6,1.9,4.1,2.1,4.1,0.3c0-1.7-1.1-3-4.1-4.9c-3.5-2.2-4.3-6.7-2.3-14
		c0.8-3.3,1.3-6.7,1-7.5c-0.8-2-6.8-4.4-8.2-3.2c-0.8,0.6-1.5,0-2.4-2.1c-0.7-1.6-1.6-3-2.1-3c-1.9,0-0.8-3.7,1.4-4.8
		C501.4,251.7,504.1,251.7,501.4,253.3z"/>
	<path id="path116" fill="#FFDEAD" d="M442,256.1c0,4.6-5.2,9.3-12.6,11.4c-3.2,0.9-7.8,2.6-10.2,3.7c-2.4,1.1-4.5,1.8-4.8,1.5
		c-0.8-0.8,6.8-6.3,10.5-7.6c5-1.6,15-8.3,15.7-10.4C441.4,252.1,442,252.6,442,256.1z"/>
	<path id="path118" fill="#6495ED" d="M491.9,258c1.3,0,4.6,5.6,6.1,10.5c0.7,2.2,2.1,5.2,3.1,6.7c3.8,5.4,5.1,20.7,2.3,27.3
		c-1.4,3.3-1.7,3.6-3,2.3c-1.2-1.1-1.2-2.1-0.4-4.2c2-5.4,0.4-21.6-2.8-27.3c-0.6-1.2-1.2-3.2-1.2-4.4c0-1.2-1.1-4.2-2.5-6.6
		C492.1,260,491.3,258,491.9,258z"/>
	<path id="path120" fill="#6495ED" d="M530.5,264.3c0.9,2.8,1.9,5.9,2.2,6.7c0.4,0.8,0.7,2.6,0.8,4s0.6,5.3,1,8.7
		c0.5,4.1,0.4,6.3-0.2,6.3c-2.3,0-3.2-3-3-9.7c0.1-4.1-0.3-7.6-1-8.4c-0.6-0.8-1.4-3.2-1.8-5.4c-0.3-2.2-0.8-5.1-1.1-6.3
		C526.5,255.9,528.8,258.9,530.5,264.3z"/>
	<path id="path122" fill="#8A2BE2" d="M351.7,261.2c1.5,1.4,2.3,3.3,2.3,5.2l-0.1,3.1l-1.5-3.5c-0.8-1.9-2.2-4.2-3.1-5.2
		C347,258.3,348.9,258.6,351.7,261.2z"/>
	<path id="path124" fill="#6495ED" d="M489.1,262.3c4,5.7,8.2,23.3,7.7,32.3l-0.4,5.9l-4.9-0.3c-3.9-0.3-5.7-1-8.2-3.5
		c-2.8-2.6-3.3-2.8-3.9-1.3c-0.4,1,0,2.4,1,3.5c0.9,1,1.6,2,1.6,2.3s-2.7,1.7-6,3.2l-6.1,2.7l-7.2-2.8c-5.7-2.2-8.4-4-12.9-8.7
		s-5.4-6.2-4.4-7c1.8-1.5,4-6,6.3-13.1c1.9-5.9,2.1-6.1,9.3-9.9c6.5-3.4,8-3.8,14.6-3.9c4.1,0,7.4-0.4,7.4-0.9
		C483,259.1,487.6,260.2,489.1,262.3z"/>
	<path id="path126" fill="#BA55D3" d="M384.5,264.9c1.9,0.8,1.9,0.8-0.2,1.5c-2.5,0.8-3.2,4.9-1.2,6.2c0.8,0.5,0.6,1-0.5,1.6
		c-2.1,1.2-2.1,7.1-0.1,8.8c0.9,0.7,2.9,1.3,4.6,1.2c2.6-0.1,3,0.3,2.7,2.1c-0.4,3.1-3.8,3.3-10.6,0.7c-6-2.3-12.2-5.2-12.2-5.8
		c0-0.1,1.1-2.4,2.5-5.1c1.3-2.7,2.1-5.1,1.8-5.5c-0.3-0.3,0-1.2,0.7-2.1c0.7-0.8,0.9-1.5,0.5-1.5s-0.2-0.7,0.5-1.5
		C374.3,263.9,381,263.6,384.5,264.9z"/>
	<path id="path128" fill="#FFDEAD" d="M443,271.3c0,4.6-7.2,11.2-14,12.6c-8.9,1.9-24.6,1-27-1.6c-0.4-0.4-1.1-1.8-1.4-3
		c-0.7-2.2-0.5-2.2,6.6-2.1c5.7,0.1,8.6-0.4,13.3-2.4c3.3-1.4,8.9-3.5,12.3-4.8c3.5-1.3,6.6-2.9,6.9-3.7C441,263,443,266,443,271.3z
		"/>
	<path id="path130" fill="#6495ED" d="M448.6,266.2c1.1,1.1,0.9,2.7-1.1,9.2c-3.2,10.3-7.1,14.6-10.2,11.5c-0.9-0.9-0.4-1.7,2-3.3
		c4.2-2.8,6.6-7.4,7.4-13.6C447.2,265.8,447.5,265.1,448.6,266.2z"/>
	<path id="path132" fill="#4682B4" d="M503.3,266c2.4,0,3.6,2.2,2.6,4.9c-1.1,2.8-2.4,2-3.4-2.2C502,266.7,502.2,266,503.3,266z"/>
	<path id="path134" fill="none" d="M390.1,272.8c0.9,2.3,0.3,2.7-1.6,1.2c-1.3-1.1-1.3-1.5-0.3-2.1
		C389,271.4,389.7,271.7,390.1,272.8z"/>
	<path id="path136" fill="#D2B48C" d="M387.9,277.9c1.2,2.1,0.5,3.1-2.1,3.1c-1.8,0-2.5-2.9-1.1-4.3
		C385.8,275.5,386.9,275.9,387.9,277.9z"/>
	<path id="path138" fill="#6495ED" d="M397,279c0,0.5-0.8,1-1.7,1c-3,0.1,4.1,5.7,8.9,7.2c4.7,1.4,20.7,1.7,25,0.5
		c2.4-0.6,2.8-0.5,2.5,1.3c-0.2,1.1-0.6,2.2-0.9,2.5c-0.3,0.4-5.5,0.6-11.5,0.7c-8.3,0-12.4-0.5-17-2c-9.5-3.1-10.6-3.9-9.8-7
		c0.4-1.5,1.1-3.3,1.7-3.9C395.5,277.8,397,277.6,397,279z"/>
	<path id="path140" fill="#8A2BE2" d="M364,285c0.8,0,3,0.9,4.8,2s3.9,2,4.8,2c0.8,0,2.8,0.7,4.4,1.5c2.7,1.4,2.8,1.8,2.5,7.2
		c-0.3,5.5-0.5,6-5.4,10.5c-5,4.6-15.9,9.7-24.1,11.2l-3.5,0.7l2.6-2.3c1.4-1.3,3.9-3.3,5.5-4.5l2.9-2.3l-3,0.6
		c-3.3,0.7-3,0.3,2.9-4c2.8-2.1,3.5-3.1,2.5-3.7s-0.6-1.1,1.5-1.9c1.8-0.7,2.6-1.5,2.2-2.5c-0.3-0.9,0.6-2.1,2.4-3.2
		c5.4-3.2,3-5.3-2.7-2.5c-2.1,1.1-5.8,2.3-8.3,2.7c-2.5,0.4-6.1,1.4-8,2.1l-3.4,1.5l2.4-2.7c1.4-1.5,5.4-4.9,9-7.5
		C359.6,287.2,363.2,285,364,285z"/>
	<path id="path142" fill="none" d="M343.3,287.1c1.5,0.7,2.7,1.6,2.7,2.1c0,1.4-1.6,0.9-3.6-1.3
		C340.5,285.8,340.5,285.8,343.3,287.1z"/>
	<path id="path144" fill="#6495ED" d="M394,291.4l7.2,2.4c6.1,2,9.1,2.4,19.1,2.3c10.3,0,11.9,0.2,12.3,1.7
		c2.1,6.3,7.3,11.3,12.4,11.7c3.9,0.3,4.3,0.7,3.1,3.7c-0.6,1.5-3.9,4.2-9.3,7.3c-16.8,9.7-32,22.5-38,31.8
		c-1.8,2.7-3.4,4.5-3.6,3.8s0.8-3,2.2-5.1c2.9-4.3,1.6-5.5-2.3-2.3c-2.3,1.9-4.6,9.6-3.5,11.5c0.5,0.7,0.1,0.9-0.9,0.5
		c-9.3-3.6-21.7-3.9-33.1-0.9c-4.4,1.2-8.1,2-8.2,1.9s-1.1-3.2-2.3-6.9c-2.4-7.2-2.9-13.1-1.8-18.9c0.7-3.5,1-3.7,4.7-3.7
		c3.6-0.1,4,0.2,4,2.4c0,3.1,1.7,3.1,4.9,0c3.9-3.7,14-6.8,18.2-5.6c5.1,1.5,6.2,1.3,5.6-1c-0.3-1.3,0-2,0.9-2
		c1.5,0,3.5-3.9,2.7-5.3c-0.2-0.4,0.9-3.5,2.6-6.9c2.7-5.3,3.1-7.2,3.1-14.3L394,291.4L394,291.4z"/>
	<path id="path146" fill="#8A2BE2" d="M383.2,293h3.4c3,0,3.4,0.3,4,3.6c0.9,5-1.1,13.4-4.6,18.6c-3.4,5-9.1,8.8-17.6,11.7
		c-5.7,1.9-6.9,1.9-17.7,0.9c-11.3-1.2-12-1.1-22.4,1.5c-11.6,2.9-16.2,3.4-10,1.2c2.1-0.8,5-2.3,6.5-3.3c1.7-1.2,5.2-2.2,9.2-2.5
		c16.8-1.4,22.4-2.6,30.5-6.6c15.4-7.4,20.2-12.6,19.2-20.8L383.2,293z"/>
	<path id="path148" fill="#800000" d="M460,306.9c9.2,4.6,9.6,4.9,13,11.1c2,3.8,4.3,6.6,5.4,6.8c1.1,0.3,1.6,0,1.2-0.7
		c-0.4-0.6-0.5-1.1-0.2-1.1s1.4,2.1,2.5,4.6c1.4,3.1,2.5,4.4,3.5,4.1c0.9-0.4,2.5,1.3,4.6,4.6c2.9,4.7,3.1,5.4,2.1,9.1
		c-0.6,2.3-2,11.3-3.2,20.1c-1.1,8.8-2.4,17.9-3,20.2c-0.5,2.3-0.6,4.9-0.3,5.8c0.4,0.9-0.1,2.4-1,3.4c-1.8,2-3.1,8-4.1,19.3
		c-0.4,4.3-1,7.8-1.4,7.8s-2.6-2.7-4.9-5.9c-2.3-3.3-6.6-8.6-9.6-11.9c-4.7-5-7.1-6.6-16.5-10.8c-6.1-2.7-11.1-5.2-11.1-5.5
		s3.3-1.6,7.3-2.9c11.1-3.5,11.7-3.8,11.7-5.9c0-1.2,0.9-2.1,2.5-2.5c1.4-0.4,2.5-1.1,2.5-1.6c0-0.6-1.1-1.5-2.5-2s-2.5-1.6-2.5-2.3
		c0-0.8-0.9-2.2-2-3.2c-4.6-4.1-7.2-20.8-4.6-29.4c0.9-3,1.9-9.6,2.2-14.7c0.4-5.2,1-9.4,1.4-9.4s1.5,0.9,2.5,2
		c1.5,1.6,1.7,3,1.2,7.8c-0.5,4.4-0.3,6.4,0.9,8c1.4,2,1.4,2.4,0,4.4c-3.4,4.9-0.1,5.3,3.9,0.6c2.6-3,2.7-3.7,2.3-11.3
		c-0.4-8.3-2.8-14.1-5.3-13.1c-1.4,0.5-9.5-7.3-9.5-9.2C449,301.5,449.5,301.6,460,306.9z M464.8,376c-0.7,0-1.8,1.3-1.8,2.1
		c0,0.6,14.4,8.9,15.5,8.9c0.1,0,0.5-0.7,0.8-1.5c0.4-1-1.6-2.6-6.7-5.5C468.6,377.8,465,376,464.8,376z M460,383.2
		c0,0.5,14.4,11.8,16.8,13.2c0.7,0.4,1.2,0.1,1.2-0.9c0-1.8-3.8-5.6-9-9.1C465.7,384.3,460,382.2,460,383.2z"/>
	<path id="path150" fill="#87CEFA" d="M497,307.2c9.4,6.4,15.6,12.3,18.1,17.4c2,4.1,2.1,5.7,1.7,15.4c-0.3,5.9-1,11.6-1.6,12.6
		c-0.8,1.4-0.9-0.1-0.5-5.7c0.3-4.2,0.2-10.2-0.1-13.3c-0.7-4.9-1.4-6.5-6.1-11.9c-2.9-3.4-8.5-8.7-12.4-11.7s-7.1-5.8-7.1-6.3
		C489,302.3,490.8,303.1,497,307.2z"/>
	<path id="path152" fill="#6495ED" d="M483.3,305.1l4.5,3.2c6.7,4.8,20.1,17.6,21.8,20.9c1.2,2.3,1.5,6.3,1.3,18
		c-0.1,9.1,0.2,15.3,0.8,15.7c0.6,0.3,1.3,2.8,1.6,5.6c0.3,2.7,1.3,9.5,2.2,15c1.3,8.3,3.3,35.6,3.9,53.3c0.1,3.6,0.7,4.8,3.4,7
		l3.3,2.7l-1.7,7.2c-0.9,4-1.4,8-1,8.8c0.8,2.2,2.6,1.9,2.6-0.4c0-1.1,0.4-2.2,0.9-2.6c4.3-2.6,22.2,90.9,22,115.5
		c0,16.6-1.8,19.4-14.4,23l-7,2l-2.6-2.8l-2.6-2.9l-0.7-33.4c-0.4-18.4-1-38.1-1.5-43.9c-0.4-5.8-0.4-10.6,0-10.8
		c0.4-0.2,0.1-1.5-0.6-3c-0.8-1.5-2.3-9-3.5-16.8c-1.1-7.7-2.5-15.6-3-17.5c-1.4-4.8-1.4-4.7,3-6.5c4.4-1.8,5.7-5.1,1.6-4
		c-1.3,0.3-3.1,0.9-4,1.2c-1.2,0.4-1.5,0.2-1-0.9c0.3-0.8-0.2-3.1-1-5.2c-0.9-2.1-1.6-4.1-1.6-4.4c0-0.4,1.8-1.7,4-3
		c6.6-3.7,4.5-5.7-2.5-2.4c-4.2,2-5.3,1.2-3.1-2.2c0.9-1.4,1.4-3,1.1-3.4c-0.3-0.5-1-10.1-1.5-21.3c-0.6-11.2-1.5-22.9-2.2-26.1
		l-1.1-5.8l3.2-3.3c3.4-3.5,2.9-5.6-0.9-3.6c-1.1,0.6-2.5,0.8-3,0.5c-1.9-1.2-1-4,2.6-7.6c5-5.1,3.5-7-1.9-2.3l-4.2,3.5l-0.8-4.3
		c-0.5-2.4-1.7-7.8-2.8-12.1c-1.7-7.1-1.7-8.2-0.4-11.4c2.3-5.5,1.8-8.3-2.9-17.4c-4.5-8.7-5.9-9.6-10.7-7.5
		c-1.9,0.9-6.4-2.6-8.5-6.5l-1.5-3l5.2-2.4L483.3,305.1z"/>
	<path id="path154" fill="#6495ED" d="M448.2,319.1c1-0.1-2.4,20.5-3.6,21.7c-0.3,0.2-3.5-2.2-7.1-5.4c-4.8-4.3-6.3-6.1-5.3-6.7
		c0.7-0.4,4.5-2.7,8.3-5.1C444.4,321.2,447.8,319.1,448.2,319.1z"/>
	<path id="path156" fill="#4682B4" d="M488,323.4c0,0.8,0.3,2.3,0.6,3.3c0.6,1.6,0.4,1.5-1.6-0.3c-1.2-1.2-1.9-2.7-1.6-3.3
		C486.4,321.5,488,321.7,488,323.4z"/>
	<path id="path158" fill="none" d="M320,325.1c2.2,0,2.1,0.2-1,1.4c-4.7,1.8-7.1,1.8-4,0C316.4,325.7,318.6,325.1,320,325.1z"/>
	<path id="path160" fill="#FF7F50" d="M340.1,331h3.6v8.7c0,6.2,0.6,11.2,2.2,16.7c1.8,6.2,2,8,1,8.7c-2.5,1.5-17.5,2.1-23.1,1
		c-7.7-1.6-14.8-6.3-14.8-9.7c0-3.5,4.6-7.7,10.7-9.6c2.7-0.9,4.8-2.2,4.8-2.9c0-0.8-0.5-1.3-1.1-1.2c-0.6,0.1-5.7,0.5-11.5,0.9
		c-7,0.4-10.1,0.3-9.4-0.4c1.9-1.9,15.9-7.4,24.9-9.7C332.4,332.2,338.1,331.1,340.1,331z"/>
	<path id="path162" fill="#6495ED" d="M427.5,332.1c0.6-0.1,4.5,3.4,8.8,7.7c7.7,7.8,7.8,7.9,9.8,16.5c1.1,4.8,3.2,10.3,4.5,12.3
		c1.9,2.7,2.3,4.3,1.8,6.9c-0.6,3.2-1,3.4-10.8,6.9c-5.6,2-10.7,3.6-11.4,3.6c-2.9,0-6.3,2.6-7.4,5.7c-0.8,2.1-1.9,3.3-3,3.3
		c-1,0-1.8,0.7-1.8,1.5s0.8,1.5,1.9,1.5c2.3,0,3.3,1.3,5.5,7.3c1.8,4.7,1.8,4.7-0.5,6.6c-2.6,2.1-2.1,2.5-14.3-12.9
		c-5.9-7.3-6.7-8.8-6.2-11.5c0.3-1.6,0.9-5.6,1.2-8.7l0.7-5.7l-4.2-3.7c-2.2-2.1-4.1-4.5-4.1-5.5c0-0.9,2.3-5.1,5-9.3
		c4.7-6.9,7.8-10,19.5-19.3C424.7,333.5,427,332.1,427.5,332.1z"/>
	<path id="path164" fill="#4682B4" d="M493.5,335.1c0.9,1.7,1.4,3.6,1.2,4.2c-0.4,1-3.7-5.1-3.7-6.8
		C491,331.2,492.1,332.3,493.5,335.1z"/>
	<path id="path166" fill="#87CEFA" d="M389.3,364c3.1,1.2,5.7,2.5,5.7,2.9c0,1-10.5,0.2-14.7-1c-2.5-0.8-4.2-0.6-8.3,1.2
		c-4.5,1.9-5.5,2-8.9,0.9c-3.1-1-4.3-0.9-7.6,0.4c-4.4,1.9-5,1.7-3-1c0.8-1.3,3.5-2.5,7.2-3.3c3.2-0.7,6.7-1.6,7.8-2.1
		C371.1,360.7,383.3,361.8,389.3,364z"/>
	<path id="path168" fill="#87CEFA" d="M376.7,369c0.7,0,4.5,1.6,8.4,3.6c5.3,2.6,7.4,3.3,8.3,2.4c1.1-1.1,0.1-2.2-2.9-3.3
		c-0.5-0.3-0.7-0.7-0.4-1c0.3-0.4,2.6,0.5,5.2,1.8c2.5,1.4,5.4,2.5,6.3,2.5c1.2,0,1.5,0.6,1.1,2.2c-0.4,1.3-0.9,4.2-1.3,6.5
		c-0.6,3.9-0.8,4.1-2.3,2.6s-1.7-1.3-2.9,3c-1.5,5.5-4.1,6.7-10.3,4.8c-4-1.2-5-2.7-2.4-3.7c2.5-1,1.7-2.4-1.4-2.4
		c-1.8,0-3.4,0.8-4.3,2.2c-1.2,1.9-2.8,2.3-9.4,2.9c-7,0.7-8.2,0.5-10.8-1.3c-2.2-1.6-3.3-1.8-4.6-1c-1.3,0.8-2.5,0.3-5.5-2.3
		l-3.9-3.2l1.4-4.2c1-3,1.8-4,2.9-3.6c1,0.3,2-0.3,2.6-1.6c1.3-2.8,7.7-5.3,11.3-4.4c2.6,0.6,2.7,0.7,0.7,2.2
		c-1.1,0.8-2.9,1.9-3.9,2.5c-1.6,0.9-1.8,0.7-1.3-1.1c0.4-1.7,0.1-2.1-1.1-1.9c-1,0.2-1.8,1.5-2,3c-0.5,4.1,3.7,4.8,8.6,1.5
		c2-1.4,5.7-4,8.1-5.6C373.3,370.4,375.9,369,376.7,369z"/>
	<path id="path170" fill="#87CEFA" d="M497.8,381.8c0.3,1.8-0.4,2.6-3.2,3.7c-2.5,1.1-3.4,2-2.9,3.1c0.3,0.8,1.1,1.3,1.7,1.1
		c4.8-1.8,5.4-1.7,5.9,0.6c1.5,5.7,2.7,21.4,2.7,34.8v14.6l-8.2,1.7c-4.6,1-11.1,2.1-14.5,2.4c-4.4,0.3-6.3,0.9-6.3,1.8
		c0,1.9,10.3,1.8,19-0.1s8.8-1.9,8.3,0.9c-0.6,3.1-6.3,4.6-21.7,5.6c-11.1,0.7-14.1,0.1-11.8-2.2c1.8-1.8,1.5-4.3-0.8-6.3
		c-2.3-2.1-2.8-6-0.6-5.2c0.8,0.3,4.2,0.9,7.4,1.3c5.6,0.6,6.1,0.5,7.5-1.7c0.8-1.4,1.7-6.1,2-10.9c0.8-11.8,3.7-28.2,5.3-30
		c0.7-0.9,1.6-4.6,2-8.3c0.6-5.9,1-7,3.3-8.2C496.2,378.7,497.4,379.1,497.8,381.8z"/>
	<path id="path172" fill="#800000" d="M429.6,390c3.6,0,27.7,11.7,31.4,15.2c5.9,5.6,15.9,21.1,16.6,25.7c0.4,2.2,0.3,4.1-0.2,4.1
		c-0.5-0.1-4.3-5.1-8.4-11.2c-11.9-17.7-15.3-20.9-29.4-27.9C433,392.7,428.5,390,429.6,390z"/>
	<path id="path174" fill="#FFDEAD" d="M442,401c0.3,0,2.7,1.3,5.2,2.9c4.4,2.8,14.8,14.2,14.8,16.2c0,0.6-2.7,4.5-5.9,8.8
		c-3.3,4.3-10.2,14.3-15.4,22.2c-14.4,22.2-18.5,26.6-34.3,38.4c-7.6,5.7-15.2,10.6-16.8,10.9c-4.9,1-9.7-2.1-13-8.4
		c-3.6-6.6-9.8-28.3-12.6-43.5c-2.5-13.7-7.1-43.7-6.8-44c1.1-0.9,12.6-2.1,13.9-1.5c0.8,0.5,2.1,0.5,2.9,0c0.9-0.5,1.9-0.5,2.7,0.1
		c0.8,0.7,1.8,0.7,2.9,0.1s2.8-0.6,4.6,0c1.6,0.6,5.1,0.8,7.8,0.6c5.7-0.6,5-2.4,7.5,17.5c1.5,12.4,1.2,14.7-2.4,16.6
		c-4.9,2.7-15.6,24-13.2,26.4c1.3,1.3,1,1.9,5.6-8.6l3.8-8.8l20.6-19.4c11.3-10.6,22.2-20.9,24-22.9C439.8,402.6,441.7,401,442,401z
		"/>
	<path id="path176" fill="none" d="M401.7,402.5c2.2,2.2,13.3,18.2,13.3,19.1c0,0.5-2.4,3-5.4,5.6l-5.4,4.7l-1-8.7
		c-0.6-4.8-1.4-11.6-1.8-15.2C401,403.8,401.1,401.9,401.7,402.5z"/>
	<path id="path178" fill="#6495ED" d="M461,440.4c0,1.6,0.8,3.8,1.7,4.8c1.3,1.4,1.4,2.1,0.5,3c-0.7,0.7-1.2,1.9-1.2,2.7
		c0,1.4-1.2,1.5-7.6,1.1c-4.2-0.3-7.8-0.2-8.1,0.2c-0.9,1.5,0.8,2.8,3.6,2.8c1.6,0,4.2,0.3,5.8,0.6c2.5,0.5,3,1.1,3,3.6
		c0,2.7-0.3,2.9-2.6,2.5c-9.7-1.9-10.1-1.9-10.1-0.4c0,1.1,2.2,2,7.3,3.1l7.3,1.7l-2.3,6.8c-5.4,16.1-7,41.2-4.9,74.6
		c2,30.2,2.4,34.9,4.2,45.8c1.6,9.3,1.3,10.6-2.9,14.5c-1.7,1.6-4.1,2.5-8,2.9c-5.9,0.6-24.1-1.3-26.9-2.8c-1-0.5-3-3.1-4.5-5.7
		l-2.8-4.7l0.1-28.5c0.1-25.9,0.3-30.1,2.8-45.5c2.7-16.9,6.5-34.1,9.1-41.5c0.8-2.2,3.1-6.3,5.3-9.2c2.1-2.9,8.3-11.8,13.7-19.8
		c5.4-8,10.5-15.3,11.3-16.3C457.6,433.4,461,435.4,461,440.4z"/>
	<path id="path180" fill="#6495ED" d="M505.5,455.1c1.5,2.8,1.5,3.3,0.1,5.4c-1,1.5-3.3,2.8-5.8,3.5c-6.7,1.7-7.9,2.3-6.9,3.9
		c0.7,1.1,1.7,1.1,6.1,0.1c2.9-0.7,5.5-0.9,6-0.4c0.4,0.5,1.7,5.8,2.8,11.9c7.1,37.1,11.6,105.8,7.8,117.3c-1,2.9-2.8,5.9-3.9,6.7
		c-5.2,3.3-36.3,8.3-40.7,6.5c-2.7-1.1-5.5-4.2-7.9-8.8c-5-9.4-9.1-80.4-6.1-106.5c0.6-4.8,2.4-13.1,4.1-18.3l3-9.6l10.7,0.7
		c6.3,0.4,11.7,0.3,13.2-0.3c2.8-1.1,4-0.8-15.4-3.5c-9.1-1.2-11.6-2.7-10.3-5.9c0.4-1.2,3.6-1.7,15.7-2.2
		c8.4-0.4,16.8-1.4,18.8-2.1C502.4,451.5,503.8,451.7,505.5,455.1z"/>
	<path id="path182" fill="#E9967A" d="M322.4,464.1l3,2.3c17.6,13.4,42.7,26.2,42.6,21.8c0-0.4-6-3.7-13.3-7.5
		c-7.2-3.7-14.3-7.6-15.6-8.6l-2.5-1.9l4.3-2.1l4.2-2.2l10.9,7.6c6,4.1,11.3,7.5,11.8,7.5s1.4,1.9,2.1,4.2c2.3,7.8,6.3,14,11,17
		c6.4,4,9.6,3.7,16.7-1.7c3.2-2.4,6.2-4.5,6.6-4.5s-6.7,19.2-7.8,20.8c-0.1,0.2-6.4,0.8-14,1.4c-24,1.9-65.2-2.1-84.7-8.2
		c-9.9-3.1-24.7-9.3-32.2-13.5c-7.7-4.3-7.7-4.3,2.1-14.1c6.1-6.1,8.9-7.5,11-5.5c2.3,2.3,20.9,12.2,30,15.9
		c13.9,5.6,33.3,11.7,46.1,14.3c11.9,2.4,31.3,3.2,32,1.3c0.2-0.7-3.2-1.3-10.4-1.7c-14.3-0.8-31.6-4.5-51.2-11.2
		c-14.5-4.9-30.6-12.1-35.5-15.8c-1.9-1.4-1.9-1.5,0.4-4.8c3.1-4.6,8.2-9.9,9.4-9.9c0.5,0,6.4,3.5,13,7.9
		c6.7,4.3,15.7,9.7,20.2,11.9c17.6,8.8,43.9,18.2,39.8,14.3c-0.5-0.5-8-3.9-16.6-7.5c-8.7-3.6-18.6-8-22-9.7
		c-7.9-4-18.8-10.8-18.8-11.8c0-0.4,1.7-2,3.7-3.4L322.4,464.1z"/>
	<path id="path184" fill="#FF7F50" d="M362.2,467.1c1-0.1,3.8,2.9,3.8,4.2c0,0.7,0.3,2.2,0.6,3.5c0.7,2.3,0.5,2.3-4.5-0.8
		c-2.8-1.7-5.1-3.5-5.1-3.9c0-0.5,1-1.3,2.3-1.9C360.5,467.6,361.8,467.1,362.2,467.1z"/>
	<path id="path186" fill="none" d="M511.7,477.7c0.2,0.7,0.2,1.9,0,2.5c-0.3,0.7-0.5,0.2-0.5-1.2S511.4,477.1,511.7,477.7z"/>
	<path id="path188" fill="none" d="M512.6,482.3c0.3,0.3,0.4,1.2,0.1,1.9c-0.3,0.8-0.6,0.5-0.6-0.6
		C512,482.5,512.3,481.9,512.6,482.3z"/>
	<path id="path190" fill="#6495ED" d="M419.7,484.4c0.2,0.2-0.1,1.5-0.6,2.9c-1.5,3.8-6,27.4-7.8,40.7c-1.1,8-1.7,20.9-1.9,41.9
		l-0.2,30.5l-2.4,1.7c-2.3,1.7-2.6,1.6-10.5-1.8c-4.9-2.1-8.5-4.2-8.8-5.3c-0.9-2.8,1.4-28.5,3.6-40c2.9-15.4,8.3-36.3,11.7-45.5
		c5.4-14.5,7.5-18.2,12.2-21.9C417.4,485.7,419.6,484.2,419.7,484.4z"/>
	<path id="path192" fill="none" d="M513.7,491.7c0.2,0.7,0.2,2.1,0,3c-0.3,1-0.5,0.4-0.5-1.2C513.2,491.8,513.4,491.1,513.7,491.7z"
		/>
	<path id="path194" fill="#87CEFA" d="M541.4,496.1c1,1,9.7,37.8,12,50.4c3.5,19.6,6.2,40.5,5.1,40.5c-0.2,0-1.6-1.7-2.9-3.8
		c-2.1-3.1-2.7-6.1-4-19.7c-2.2-21.1-4.1-33.9-7.7-51.3c-1.6-7.9-2.9-14.8-2.9-15.4C541,496.2,541.2,495.9,541.4,496.1z"/>
	<path id="path196" fill="none" d="M515.9,506.5c1,5.5,1.5,10.4,1.2,11c-0.7,1.2-1.7-4.6-2.4-14C514.2,497,514.3,497.2,515.9,506.5z
		"/>
	<path id="path198" fill="none" d="M517.7,521.7c0.2,0.7,0.2,1.9,0,2.5c-0.3,0.7-0.5,0.2-0.5-1.2S517.4,521.1,517.7,521.7z"/>
	<path id="path200" fill="#FFDEAD" d="M522.3,600c1.5,2.5,2.4,3,5.6,3c2.1,0,5.8-0.7,8.1-1.5c5.5-1.9,6-1.9,6,0.4
		c0,2.8-4.1,5-10.7,5.7c-3.2,0.4-6.2,1-6.8,1.4c-1.6,1.2-15.5,2-15.5,0.9c0-0.5,0.8-1.2,1.8-1.6c3-1,6.1-4.5,7.2-7.9
		C519.4,596.2,520.1,596.2,522.3,600z"/>
	<path id="path202" fill="#EEE8AA" d="M415,607.9c1.7,2.2,3.9,4.2,4.8,4.5s7.6,1,14.7,1.5c16,1.3,19.7,0.6,24-4.5l3.1-3.7l3.3,4
		c2,2.5,4.4,4.3,6.2,4.7c1.5,0.3,9.7-0.6,18-2c8.4-1.3,15.3-2.3,15.5-2.1s0.5,20.1,0.6,44.3c0.2,35.9,0,47.5-1.5,63.9
		c-2.8,31-7.4,67.4-9.8,77.6c-1.9,8.3-2.6,9.8-6.7,14.1c-5.3,5.7-13.9,10.1-23,11.9c-6.4,1.2-11,1.1-43.2-1
		c-34.7-2.4-69.7-4.1-90.9-4.6c-12.3-0.3-22.7-0.8-23-1.1s-0.6-5.4-0.6-11.2c0-8.3,0.6-12.4,2.3-18.1c3-9.5,5.2-11.6,12.8-12.6
		c8.5-1,22.7-4,40.4-8.5c25.2-6.3,42.3-8.1,57.5-6c13.9,2,17.5,3,17.5,5c0,1-1.2,2.7-2.6,3.7c-2.3,1.7-2.4,2.1-1,3.2
		c1.3,1.1,1.9,0.9,4.1-1.3c2.1-2.1,2.5-3.4,2.5-8.3c0-9.8-7.6-47-18.1-88.3c-10.7-42-15.3-66.5-12.7-68.1
		C411.3,603.6,411.6,603.8,415,607.9z"/>
	<path id="path204" fill="#FFDEAD" d="M543,632.4c0,11.9-0.3,16.6-1.3,17.4c-0.7,0.6-5.9,1.6-11.7,2.3c-11.7,1.3-12,1.3-17.2,1.1
		L509,653v-16v-16l4.5,0.7c2.5,0.3,6.6,0,9.2-0.6c9.7-2.5,12.8-3.3,14.8-4.1C543,614.7,543,614.6,543,632.4z"/>
	<path id="path206" fill="#FFDEAD" d="M539.4,663.1l2.8-0.1l-0.5,25.7c-0.5,28.2-2.1,40.8-9.2,73.8c-6.5,29.9-6.9,30.6-23.7,36
		c-6.1,2-11.3,3.4-11.5,3.1c-0.3-0.2,0.9-8.9,2.6-19.3c5.1-31,9.1-78.3,9.1-107.1V665l11.3-0.1c6.1-0.1,12.3-0.5,13.7-0.9
		S537.8,663.2,539.4,663.1z"/>
	<path id="path208" fill="#7B68EE" d="M283,723c2.2,0,4,0.4,4,1c0,0.5-0.5,1-1,1c-1.6,0-10,8.1-11.4,10.9c-0.8,1.5-2.4,6.6-3.6,11.6
		c-1.3,4.9-2.5,9.2-2.7,9.4c-0.2,0.3-1.5-0.6-2.9-2c-2.2-2.1-2.5-2.9-1.9-6.9c0.9-6.7,5.9-16.2,11-20.9
		C278.2,723.7,279.7,723,283,723z"/>
	<path id="path210" fill="#4B0082" d="M312.3,736c8.8,8,8.8,8.1,1.7,14.6c-5.4,5-7.5,8.4-5.2,8.4c0.4,0,3.3-2.2,6.3-4.8
		c6.2-5.6,9.5-7.6,11-6.6c0.7,0.4-0.2,1.9-2.1,3.9c-3.6,3.7-2.4,6.1,1.4,2.6c3.1-2.9,3.6-2.6,2.4,1.4c-0.9,2.8-1.4,3.2-2.9,2.5
		c-2.8-1.6-5.3-1.2-13.3,2l-7.6,3l-6.2-3.1c-8.9-4.5-18.3-7.9-21.8-7.9c-1.7,0-3-0.2-3-0.4s0.9-3.3,2-6.8
		c2.3-7.5,7.6-14.3,13.3-16.8C294.9,725,303.4,727.8,312.3,736z"/>
	<path id="path212" fill="#7B68EE" d="M354.8,745.7c-2.8,3.1-5.2,7.1-6.8,11.3c-2.8,7.9-3.4,8.6-6.5,9.3c-3.3,0.6-3.3-1.4,0.1-8.1
		c1.5-3.1,5.2-7.6,9.1-11.2C358.6,739.8,361.1,739.1,354.8,745.7z"/>
	<path id="path214" fill="#FFDEAD" d="M423.1,741.1l10.5-0.1l1.6,8.2c0.9,4.6,1.5,8.4,1.3,8.6c-0.1,0.1-2.2-0.2-4.6-0.8
		s-11.6-1.4-20.4-1.7c-17.4-0.6-31.3,1.1-51.4,6.3c-5.1,1.3-9.7,2.4-10.1,2.4c-0.5,0,0.3-2.7,1.7-6c1.8-4.1,3.3-6.2,4.7-6.5
		c1.9-0.4,47.1-8.7,53.6-9.8C411.4,741.5,417.3,741.2,423.1,741.1z"/>
	<path id="path216" fill="#7B68EE" d="M241,743.9c2.2,0.6,1.9,0.9-3.2,3.4c-7.8,3.8-17.2,14-21.5,23.3c-1.8,4-3.3,7.7-3.3,8.2
		c0,2.6-8.6,10.2-16.1,14.2c-14.1,7.6-36,30.5-38.4,40.3c-0.9,3.5-2.5,4.5-2.5,1.5c0-3.2,7.2-16,13-23.3
		c8.1-10.1,15.9-16.9,22.2-19.3c6.7-2.5,16.1-7.7,17.8-9.8c1-1.1,0.8-1.8-1.3-3.4l-2.6-2l2.1-6c3.7-11.2,12-21.4,21.3-26.3
		C231.6,743,236.7,742.7,241,743.9z"/>
	<path id="path218" fill="#7B68EE" d="M347,745.1c0.2-0.1-1.5,1.9-3.9,4.3c-2.8,2.8-5,6.4-6.1,9.8c-2,5.9-5,7.6-6.9,3.9
		c-0.9-1.6-0.6-3,1.1-6.8c2-4.2,3.2-5.2,8.8-8C343.6,746.5,346.7,745.1,347,745.1z"/>
	<path id="path220" fill="#4B0082" d="M245.3,748c5.3,0,23.2,17.7,22.2,21.9c-0.6,2.3-0.5,2.3,4,1.7c2.5-0.4,4.5-0.4,4.5-0.1
		c0,0.4-1.8,3.7-3.9,7.4c-3.4,5.8-4.4,6.8-7,7c-7,0.6-13.1,0.4-22.1-0.7c-5.2-0.6-13-1.2-17.2-1.2c-11,0-11.1-0.1-8.7-6.3
		c5-12.8,13.5-22.8,23.3-27.7C242.6,748.9,244.9,748,245.3,748z"/>
	<path id="path222" fill="#4B0082" d="M273.9,755c2.1,0,14.5,4.3,20.2,7l6.1,2.9l-4.3,2.1c-3.8,2-4.6,2.1-8,1c-2-0.7-4.8-1-6.1-0.7
		c-3.8,1-6.6-0.3-8.8-3.8c-1.6-2.6-1.8-3.8-1-5.9C272.5,756.2,273.4,755,273.9,755z"/>
	<path id="path224" fill="#7B68EE" d="M319.3,761c0.5,0-1,2.1-3.2,4.8c-4.8,5.7-10.4,17.5-12.2,25.7c-2.1,10.1-1.6,22.6,1.6,34
		c1.5,5.5,3.2,10.8,3.7,11.8c1.5,2.9,0.5,2.9-2.5,0.1c-2.1-1.9-2.7-3.4-2.7-6.4c0-2.5-1.2-6.2-3.2-10.1c-2.9-5.4-3.3-7.3-3.6-15.9
		c-0.5-11.1,0.6-17.1,4.9-27.9c3.7-9.2,4.9-10.7,11.4-13.7C316.3,762.1,318.9,761,319.3,761z"/>
	<path id="path226" fill="#7B68EE" d="M300.5,770.7c-2.6,6.1-5.4,14.4-5.9,17.9l-0.7,4.1l-5.2-0.9c-2.9-0.5-6.2-1.1-7.4-1.3
		l-2.2-0.5l2.1-4.8c2.7-6.2,6.1-9.8,12.8-13.2C300.5,768.6,301.5,768.4,300.5,770.7z"/>
	<path id="path228" fill="#7B68EE" d="M283.2,771c0.5,0,0.8,0.3,0.6,0.7c-0.2,0.5-2.1,4.2-4.2,8.4c-3,6.3-4.1,7.6-5.7,7.2
		c-1-0.3-1.9-0.8-1.9-1c0-0.9,4.2-7.6,7.3-11.6C280.9,772.7,282.6,771,283.2,771z"/>
	<path id="path230" fill="#4B0082" d="M216,786.5c1.4,0.2,9.5,0.9,18,1.5s17,1.5,18.9,2.1c3.2,1.1,7.7,0.8,11.4-0.6
		c1.3-0.5,1.7-0.2,1.7,1.2c0,3.1,1.2,3.5,3.7,1.1c2.1-1.9,2.6-2,3.4-0.8c0.5,0.8,0.7,2.7,0.5,4.2c-0.7,3.5,1.5,3.8,3.6,0.6
		c1.4-2.1,1.6-2.2,8.6-0.8l7.2,1.3v5.7c0,6.9,1.5,15.3,3.4,19.2c0.8,1.5,1.1,2.8,0.8,2.8c-0.4,0-4.1-1.9-8.2-4.3
		c-6.7-3.8-7.8-4.9-11-10.6c-3.8-7.1-6.6-9.3-5.4-4.4c0.9,3.6,5,12,6.4,12.8c1.7,1.1,1.1,2.3-1.7,3c-2.2,0.5-3.4-0.1-7.7-4.4
		c-2.9-2.8-5.7-5.1-6.4-5.1c-1.7,0-1.5,0.8,0.8,3.7c1.1,1.4,2,2.9,2,3.3c0,0.4-3.7,1.9-8.2,3.3c-21.7,6.7-26.5,7.8-39.3,8.7l-13,0.9
		l-15,7.6c-17.3,8.7-20,9.1-26.4,4.5c-4.6-3.4-4.7-3.8-0.9-11.8c5.4-11.5,19.7-25.7,34.9-34.6c4.6-2.7,10-6.2,11.9-7.8
		C212.5,786.8,214.2,786.1,216,786.5z"/>
	<path id="path232" fill="#7B68EE" d="M317.5,820h9.6l-3.3,4.7c-3.8,5.4-9.5,11.3-10.8,11.3c-0.9,0-1.2-0.7-3-8
		c-0.6-2.5-1.3-5.3-1.6-6.3C307.9,820.2,308.8,820,317.5,820z"/>
	<path id="path234" fill="none" d="M295.5,826.7c1.1,0.6,2.6,0.8,3.3,0.6c0.7-0.3,1.2,0.4,1.2,1.7c0,1.7-0.3,1.9-1.8,1.1
		c-1-0.5-2.5-1.8-3.3-2.7C293.6,825.8,293.7,825.8,295.5,826.7z"/>
</g>
</svg>
