<?xml version="1.0" encoding="utf-8"?>
<!-- Generator: Adobe Illustrator 21.0.0, SVG Export Plug-In . SVG Version: 6.00 Build 0)  -->
<svg version="1.1" baseProfile="tiny"
	 id="svg144" inkscape:version="0.92.2 5c3e80d, 2017-08-06" sodipodi:docname="10 #15434.svg" xmlns:cc="http://creativecommons.org/ns#" xmlns:dc="http://purl.org/dc/elements/1.1/" xmlns:inkscape="http://www.inkscape.org/namespaces/inkscape" xmlns:rdf="http://www.w3.org/1999/02/22-rdf-syntax-ns#" xmlns:sodipodi="http://sodipodi.sourceforge.net/DTD/sodipodi-0.dtd" xmlns:svg="http://www.w3.org/2000/svg"
	 xmlns="http://www.w3.org/2000/svg" xmlns:xlink="http://www.w3.org/1999/xlink" x="0px" y="0px" viewBox="0 0 850 850"
	 xml:space="preserve">
<sodipodi:namedview  bordercolor="#666666" borderopacity="1" gridtolerance="10" guidetolerance="10" id="namedview146" inkscape:current-layer="svg144" inkscape:cx="650.33357" inkscape:cy="631.12453" inkscape:pageopacity="0" inkscape:pageshadow="2" inkscape:window-height="978" inkscape:window-maximized="1" inkscape:window-width="1920" inkscape:window-x="0" inkscape:window-y="1" inkscape:zoom="0.41647059" objecttolerance="10" pagecolor="#ffffff" showgrid="false">
	</sodipodi:namedview>
<g id="g142" transform="translate(0.000000,0.000000) scale(1.00000,1.00000)">
	<path id="path4" fill="#9370DB" d="M0,0l158.8,0.1c142.5,0.1,158,0.2,151.8,1.5c-3.9,0.9-11.6,3.9-18,7.1
		c-35.7,17.9-59.5,44-71.2,78.3c-4.2,12.6-5.6,20.4-5.6,31.5c0,17.1,3.9,27.7,17.6,47.9c4.9,7.1,9.9,15.1,11.2,17.7
		c4.7,9.3,2.8,18.6-7.2,34.6c-7.8,12.6-17.5,21.5-37.4,34.5c-35.1,22.9-40.2,29.5-50.1,63.8c-5,17.3-5.3,19.2-5.3,29
		c0.1,11.9,2.7,21.5,8.6,31.5c6.9,11.6,7.8,13.8,7.8,19.4c0,8.6-2.6,12.7-18.6,28.4c-18.4,18.2-19.9,21.2-19.8,37.2
		c0,11.3,1.8,17.9,5.7,21.5c12.5,11.8,24.9,23.3,27.5,25.5c3.6,3,6.2,7.3,6.2,10.2c0,2.4-2.7,7.4-11.2,20.6
		c-8.9,13.8-11,19.7-11.2,30.8c-0.1,7.9,0.1,8.9,2.9,13.4c3.8,6.2,9.8,10,19,12c18.5,4.2,20.9,5.7,17.6,11.2c-1,1.6-6.5,7.6-12,13.2
		c-16.7,16.6-18.6,24.2-10.6,42.3c2.1,4.9,4,8.6,4.2,8.5c0.2-0.2-0.7-4.7-1.8-9.9c-2.5-10.8-2.2-13.3,2.2-18.2
		c2.6-3,19.2-13.6,21.3-13.6c0.3,0,0.6,3.7,0.6,8.2c0.1,10.2,3,25.3,4.8,25.3c1.6,0,2.8-2,8.6-14.5c2.6-5.4,6-11,8-12.9l3.5-3.4
		l1,2.5c0.5,1.5,2.3,3.4,4,4.4c4,2.3,4.2,3.1,3.4,12.2c-0.6,7.5-0.7,7.8-5.2,12.2c-2.6,2.5-7.7,7.1-11.4,10.3
		c-11.1,9.7-19.2,25.8-20.5,41.1c-0.8,9-0.6,10.9,3.6,35.3c2.8,16.1,3.4,17.9,7.8,26c7.3,13.5,11.5,19.3,20.2,27.5
		c11.7,10.9,26.9,18.3,43.2,20.7c3.6,0.6,11.7,1.3,18,1.6s13,0.8,14.7,1.1l3.2,0.5l-4.7,9.5c-4.6,9.3-4.6,9.6-2.8,11
		c1.7,1.2-16.8,1.4-140.2,1.4H0V425V0z"/>
	<path id="path6" fill="#9370DB" d="M595.3,0.1L850,0v425v425l-129.7-0.1c-71.4-0.1-128-0.5-125.8-0.9c7.6-1.4,21-5.2,26-7.5
		c9.6-4.3,10.5-4.4,15.5-1.3c2.4,1.6,6,3.3,8,3.8c8.3,2.3,31.7,0.3,46.1-4c8.1-2.4,20.8-7.7,22.9-9.5c0.8-0.7,3-1.6,4.8-2
		s7.5-3.1,12.7-6.2c11.3-6.5,18-13.5,22.5-23.1c1.8-3.7,4.3-8.2,5.7-10.1c2.9-3.8,6.8-14.4,9.1-24.6c2.1-9.5,2-40.9-0.1-46.9
		c-1.7-4.5-2.7-10.4-3.1-18.2c-0.2-2.9-1.5-7.6-3-10.7c-1.4-3.1-2.6-5.8-2.6-6.1s-2.7-4.8-6-10.1s-6-10.3-6-11.1
		c0-2.1-9.9-12.4-11.9-12.4c-0.9,0-4.5-1.2-7.9-2.7l-6.4-2.7l0.8-3.5c1.7-7.5,0.8-16.2-2.5-24.4c-4-10.1-4-13.8,0.1-18.9l3.2-4
		l-1.4-5.7c-0.7-3.1-1.2-9.3-1.1-13.8c0.2-7.5,0-8.7-2.9-14.1c-1.7-3.2-4.8-7.9-6.9-10.5c-2.1-2.5-8.6-13.9-14.4-25.4
		c-5.9-11.4-12-22.4-13.6-24.3c-4.7-5.7-11.2-8.5-35.6-15c-12.6-3.5-23.6-6.7-24.2-7.2c-0.7-0.6-1.3-2.1-1.3-3.5
		c0-3.3-1.8-6.5-8.8-15.6c-3.4-4.3-6.6-9.4-7.3-11.4c-2.1-6.4-0.6-10.8,10.9-31.5c13.5-24.4,16.6-34.5,14.2-46.1
		c-2.4-11.6-8.6-16.4-27.7-21.3c-7.9-2-30.6-5.4-36-5.4c-0.8,0-0.5-2.5,1.1-8.3l2.2-8.2l7.4-0.8c15.8-1.7,19.2-4.7,35.7-30.8
		c1.7-2.8,5.6-12.4,8.5-21.2c5-15.4,5.3-16.7,5.3-26.5c0-5.6,0-10.2,0.2-10.2c0.1,0,1,2.5,1.9,5.5c1,3,2.1,5.5,2.5,5.5
		c1.2,0,3.9-7.8,4.5-13.2c0.3-3.4-0.1-8.7-1.4-14.9c-1.6-7.8-1.7-10.8-0.9-16.4c1.9-13.2-2.3-25.3-12.2-35.1c-3-3-5.1-5.4-4.7-5.4
		c1.9,0,7.6,4.7,14.4,11.8l7.4,7.7l-3.8-7c-15.5-28.8-31.3-42.1-54.5-45.9l-3.7-0.7l2.1-5.2c3-7.5,3.1-24.7,0.1-29.7
		c-1.9-3.3-6.7-7-7.8-6c-0.2,0.3,0,2.9,0.6,5.9c1.1,6.2,0.1,9.6-4.5,14.7c-3.1,3.6-6.4,4.9-14.7,5.9c-7.8,0.8-13.1-0.5-35.6-8.6
		c-51.1-18.4-55.8-19.6-75-18.5l-12.1,0.7l-0.5-5.4c-1-11.8-8-19.8-19.4-21.9l-5.9-1.2l-3.9-8.2c-11-23.3-34.2-44.8-52.9-48.9
		C341.4,0.4,378.6,0.1,595.3,0.1z"/>
	<path id="path8" fill="#556B2F" d="M375.1,26C387.2,38,396,52.4,396,60.6c0,2.6-7.1,13.1-9.5,14.1c-2.3,0.8-7.7-1.5-13.3-5.7
		c-6.1-4.5-10.5-6-18.1-6c-9.1,0-12.4,1.6-22.1,10.8c-8,7.5-9.5,9.5-13.6,18.1c-8.1,16.9-9.3,32.2-3.9,50c3.6,12,3.3,17.1-1.7,31.5
		c-5.1,15.1-6.1,26.1-3.3,38.1c1.7,7.2,1.7,7.9,0.1,13.7c-3.8,13.5-10.1,22.7-20.4,29.6c-6.4,4.3-8.2,6.6-6.5,8.3
		c0.8,0.8,3.8-0.9,11.4-6.4c5.7-4.1,10.5-7.4,10.7-7.2c0.7,0.6,4.4,31.4,5.2,42.8c0.7,11.8,1.1,13.3,4.5,20.5
		c6.8,14.1,8.7,20.7,9.2,32.5c0.6,12.6-1,21-6.3,32.5c-4.2,9.2-9.4,15.8-19.2,24.5c-21.3,19-31.6,24.2-63.2,32.3
		c-12.6,3.2-15.6,4.4-23.5,9.6c-17.3,11.6-26.4,26.6-23.5,39c0.7,2.6,2.9,7.2,5.1,10.3c5.6,8,6.9,10.9,6.9,15.3c0,4.7-4,10.8-9.9,15
		c-7.8,5.6-19.8,21.2-22.6,29.3c-0.8,2.3-1.5,7.4-1.5,11.3c0,13.1,6.7,22.4,19.2,26.5c3.6,1.2,7.4,3.2,8.5,4.4
		c4.4,4.8,3.5,13.4-2,19.3c-1.8,1.8-8.8,6.8-15.7,11s-12.9,7.8-13.3,8.1c-0.5,0.3-0.4-0.4,0.2-1.5c0.6-1.1,4.5-5.1,8.7-8.8
		c10.4-9.3,13.4-13.6,13.4-18.9c0-3.6-0.5-4.8-3.4-7.3c-3.9-3.4-7.2-4.6-17.3-6.2c-8.2-1.3-13.7-4.4-17.3-9.8
		c-2.2-3.1-2.5-4.7-2.5-11.6c0-7.3,0.4-8.9,3.8-16c2.1-4.4,6-10.9,8.6-14.5c7-9.4,9.3-14.4,10-21.4c0.7-6.8,3.4-11.3,9.1-15.5
		c4.5-3.4,7-8,7-13c0-5.9-1.8-9.6-8.3-17c-3-3.5-5.7-7.6-6.1-9.2c-0.3-1.8,0.5-6.8,2-12.6c1.4-5.3,2.4-9.8,2.1-10
		c-0.2-0.3-2.4,2.7-4.7,6.7c-7.5,12.3-6.6,20.1,3.4,29.8c5.5,5.4,7.2,9.7,5.7,14.4c-1.2,3.5-8,11.3-12.4,14.2l-2.8,1.8l-7.7-7.4
		c-4.2-4.1-10.8-10.1-14.5-13.4c-9.8-8.5-11.5-11.7-12.3-24.5c-0.5-8.6-0.4-11.2,0.9-13.6c0.8-1.6,8.2-9.5,16.5-17.4
		c18.3-17.8,20.7-21.5,20.7-33.5c0-7.3-0.3-8.7-3.4-14.5c-9.9-18.9-11.1-21.7-12.3-29.3c-2.3-14.8,2.3-31.4,12.8-46.8
		c3.8-5.6,4.9-8,4.1-8.8c-0.8-0.8-2-0.2-4.6,2.1c-2.6,2.5-3.2,2.8-2.7,1.3c2-5.5,8.5-15.4,14.1-21.3c6.9-7.4,10-9.7,32-24.1
		c22.8-14.9,36.5-30.2,43.6-48.6c6.1-15.6,4.7-21.3-10.5-42.4c-9.8-13.6-13.1-19.8-15.1-28.3c-7.1-31.4,3.7-64.2,30.5-92.1
		c9-9.5,19.8-19,18.2-16.1c-0.6,1.1-1.9,2.7-2.8,3.5c-1,0.8-4.3,5.3-7.5,10.1c-15.8,24.1-19.1,51.6-9.3,77.7
		c1.4,3.6,6,12.9,10.4,20.6c4.3,7.7,9.5,18,11.6,23c3.8,8.9,3.9,9.2,3.9,22c0,10.1-0.4,14.2-1.9,18.5c-3.4,10.1-8.9,19.3-15.6,26.2
		c-6,6.1-8.2,7.5-28,17.5c-11.9,5.9-25.2,12.5-29.6,14.5c-6.2,2.8-10,5.5-16.9,12.1c-7,6.6-8.7,8.8-7.8,9.7c0.9,1,2.8-0.1,8.5-4.8
		c11.9-9.8,21.5-15.4,36.9-21.6c7.9-3.2,16.6-7,19.2-8.3c7.4-3.7,24.7-16,24.7-17.6c0-0.5,1.3-2.6,2.8-4.6
		c4.6-5.9,7.9-12.3,10.8-20.7c2.3-6.7,2.7-9.6,2.8-18.9c0-17-0.7-19.1-19.6-56C257.1,114.5,254,104,254,91c0-11.3,2.9-24.5,7.8-35.2
		c6.9-15.3,21.7-32,33.8-38.5c7-3.8,24.5-9.1,33.5-10.2C345.9,5,359.3,10.5,375.1,26z M263.3,270c-0.4,0.1-4.8,2.8-9.8,6
		c-9.2,6.1-15.1,11.7-17.6,16.7c-0.8,1.6-2.8,5-4.4,7.8c-2.7,4.5-3,5.9-3,13.1s0.3,8.6,3,12.9c4.8,7.8,10,10.4,25.2,12.7
		c20.5,3.2,27.3,6,30.8,12.8c2.1,4.1,1.9,12.3-0.4,16.9c-2.4,4.7-12.6,14.2-19.4,18.1c-2.9,1.7-11.6,5.1-19.5,7.6
		c-13.4,4.3-16.2,5.9-14.8,8.2c1,1.7,26.1-6,35.9-10.9c24.9-12.6,32.8-34.1,17.8-48.2c-5.5-5.2-9.9-6.8-25.6-9.2
		c-14.9-2.3-19.5-3.9-23.5-8c-3-3.1-3.5-4.2-3.8-9.9c-0.3-4.7,0.1-8.1,1.7-12.8c1.9-5.8,3.4-7.8,15.2-20.1
		C258.3,276.2,263.8,270,263.3,270z"/>
	<path id="path10" fill="#1E90FF" d="M410.2,66.1l3.9,1.9c5.1,2.6,8.9,9.1,8.9,15.2c0,5.4-0.2,5.5-11.5,11.4
		c-9.9,5-12.2,5.4-13.4,2.1c-2.2-5.8-4.3-17.7-3.7-21c0.8-4.2,2.6-5.9,2.6-2.5c0,3.5,2.7,6.8,5.6,6.8c1.5,0,3.8-1.3,5.6-3
		c2.6-2.7,3-3.6,2.5-7L410.2,66.1z"/>
	<path id="path12" fill="#6B8E23" d="M366.2,71.1c4,2,4.1,2.2,2,3c-1.2,0.5-2.8,0.6-3.5,0.3c-2.3-0.9-10.6,1.5-14.7,4.2
		c-4.8,3.2-9.3,10-11.4,17.3c-2,6.9-2.1,21.2-0.1,27.6c0.8,2.7,1.1,5.4,0.7,6c-0.4,0.7-3.6,5.1-7.1,9.8l-6.5,8.7l-1.2-3.3
		c-0.6-1.7-1.9-5-2.8-7.1c-1.5-3.2-1.7-6-1.3-15.5c0.6-14.3,1-16.3,5.4-27.8c2.5-6.3,4.8-10.5,7.7-13.6c5.9-6.3,11.8-10.5,16.2-11.6
		C354.9,67.8,361.2,68.5,366.2,71.1z"/>
	<path id="path14" fill="#FFD700" d="M376.7,79c4.7,0,5.8,0.4,9.2,3.5c5.1,4.7,6.9,10.6,4.9,16.7c-1.8,5.4-6.2,7.8-15.3,8.6
		c-5.3,0.4-6.9,0.1-9.9-1.7c-4-2.5-6-7.4-5.4-13.1l0.4-3.5l1.3,2.7c1.7,3.3,6.2,5.4,8.8,4c1-0.6,3.1-2.4,4.6-4
		c2.8-2.9,2.8-3,1.3-6.7c-0.9-2.1-2.4-4.4-3.4-5.1C371.7,79.2,372.2,79.1,376.7,79z"/>
	<path id="path16" fill="#6B8E23" d="M354.2,94.4c-0.6,4.8,1.2,9.6,5.4,14.4l3.5,4.1l-5.8,3.4c-3.4,2-6.2,3.1-6.8,2.6
		c-2.1-2-1.8-13.7,0.5-20.9C353.4,90.5,354.8,88.9,354.2,94.4z"/>
	<path id="path18" fill="#556B2F" d="M448.5,92.4c14.5,0.6,29.9,4.5,50.9,13.1c29.9,12.3,40.7,15.2,53.8,14.3
		c7.3-0.4,14.7-3.7,18.4-8.2c1.4-1.5,2.8-2.6,3.1-2.2c1,1-1.5,11.5-3.4,14.1c-2.8,3.9-7,5.2-18.3,5.9c-5.8,0.3-13.2,1.2-16.5,1.9
		l-6,1.3l5,0.7c2.8,0.4,15,1.2,27.2,1.7c24.7,1.1,31.6,2.6,39.4,8.1c5,3.6,10.9,9,10.9,10c0,0.3-3.6-0.2-8-1.3
		c-10.9-2.6-34.3-2.3-34.8,0.4c-0.3,1.6,0.5,1.8,6.7,1.8c15.8,0,26.8,4.6,38.1,16c9.8,9.7,12.5,15.1,12.5,24.7
		c0,3.9-0.3,7.5-0.7,7.8c-0.4,0.4-3.8-1.6-7.6-4.4s-9.6-6.3-12.8-7.8c-5.4-2.6-6.8-2.8-17.2-2.7c-13.7,0.1-17,1.8-5.5,2.9
		c20.2,1.9,36.7,11.4,43.3,25c2.2,4.6,3.8,13.5,2.3,13.5c-0.5,0-2.9-2.1-5.3-4.6c-5.9-6.1-15.1-12.6-23.1-16.4
		c-7.4-3.5-8.9-3.7-8.9-1.3c0.1,1.2,3.2,3.6,8.7,6.8c12.4,7.2,17.3,13.9,19.4,26.4c1,5.9,0.2,17.8-1.1,16.4
		c-0.4-0.4-1.5-3.1-2.4-5.9c-2.7-8.4-9.4-17.5-14.6-20.1c-9.6-4.6-9.9-4-2.4,4c15.1,16.2,18.9,33.1,11.2,50
		c-3.3,7.1-4.7,7.4-4.8,0.7c-0.1-5.7-2.7-16.7-5.5-22.8c-3.2-6.9-7.5-11.6-13.6-14.7c-4.4-2.3-4.7-2.6-5.8-8.6
		c-0.7-3.5-2.2-8.5-3.3-11.3c-2.3-6.1-8.1-15.3-8.6-13.8c-0.1,0.5,1.1,7,2.9,14.4c6.5,27,5,37.9-6.7,49.6c-5.6,5.5-6.6,6.2-9.1,5.6
		c-1.5-0.4-3.2-1-3.6-1.4c-1.2-1-1.1-7.4,0.2-15c2-12.1,0.4-38.8-2.9-47.5c-1.2-3.3-9.1-15.7-9.6-15.2c-0.2,0.1,1.1,4.5,2.8,9.7
		c2.9,8.6,3.2,10.7,3.2,22.5c0.1,10.8-0.3,14.2-2.2,20.2c-2.3,7.5-4.8,11.1-3.4,5.1c0.4-1.8,0.7-8.7,0.6-15.3
		c0-10.3-0.4-13.1-2.7-19.7c-3.3-9.6-7.7-16.8-11.5-19.1c-3.3-1.9-9.3-2.3-12.1-0.8c-1.5,0.9-1.9,0.3-3-4c-2.5-9.6-10.7-12-18.2-5.2
		c-2.3,2.1-4.8,5.2-5.5,6.9c-1.6,3.9-4,17.7-5.4,32.4c-1.2,10.9-4.6,25.5-7.3,30.6c-2,3.7-2.2-40.3-0.2-59.5
		c0.8-8.5,1.3-15.6,1.1-15.9c-0.8-0.8-5.6,9.7-7.1,15.5c-0.9,3.5-1.5,10.3-1.5,17.3c0,18.9-3.9,38.9-9.5,48.6c-1.4,2.3-4,5.5-6,7.3
		c-4,3.5-13.5,8.6-13.5,7.2c0-0.4,1.1-3.4,2.5-6.5c7.8-17.6,11.8-38.6,11.8-61.6c0-17.8-0.5-21.3-3.1-20.8
		c-1.5,0.3-1.7,2.1-1.9,13.3c-0.3,21.8-4.1,38.2-12.3,53.1c-4.5,8-6.1,9.7-8.7,9.2c-1.7-0.3-1.8-1.9-1.8-20.8
		c0-11.3-0.4-26.1-0.8-33c-0.7-9.3-0.5-15.4,0.6-24c0.8-6.3,1.3-11.7,1.1-11.8c-0.4-0.5-5.4,9.5-6.7,13.3
		c-0.5,1.6-1.3,13.6-1.7,26.5c-0.6,20.3-2.2,35.1-3.6,33.7c-0.3-0.2,0.1-5.9,0.7-12.6c1.4-13.5,0.5-21.1-3.2-29.8
		c-2.2-5.1-7.9-14.6-8.5-14c-0.2,0.2,0.9,5.2,2.5,11.3c4.1,15.2,4.5,19.7,2.7,28c-2.8,13.5-12.7,29.5-19.3,31.3
		c-2,0.6-3.8,0.9-3.9,0.8c-0.2-0.2,1.9-5.5,12.5-31.2c3.4-8.3,5.5-14.3,4.8-13.5c-0.8,0.8-7.7,10.5-15.2,21.5
		c-16.9,24.5-19.9,28-26.4,30l-2.4,0.7l0.6-7.4c1-11.5,3.9-18.9,14.6-37.6c11.8-20.8,13.6-26.1,12.6-38c-0.4-4.6-0.9-8.2-1.1-7.9
		c-0.3,0.2-1.1,4-1.9,8.3c-2.4,13.2-3.6,16.2-15.1,35.6c-11.1,18.5-18.4,35.8-21.4,50c-1.5,7.2-2.6,9.8-6.6,15.3
		c-5.4,7.6-5.2,7.7-8.4-4c-3-11.1-3.8-29.3-1.6-40.4c1.6-8.6,1.5-10.1-0.8-10.1c-4.2,0-7.2,31.5-4.4,45.2c1.6,7.7,0.9,8.9-1.5,2.5
		c-5.5-14.8-4.9-40.1,1.3-58.2c2.9-8.3,4.3-14.5,3.4-14.5c-0.8,0-5.3,5.3-6.8,8c-2.6,4.7-4.6,14.8-5.9,29.2l-1.3,14.3l-1.2-5.3
		c-2.8-12.4-0.9-31.4,4.4-45c4.3-10.9,13.9-25.7,20.8-32.1c1.4-1.4,2.6-3,2.6-3.7c0-1.2-3.8-4-4.4-3.2c-0.2,0.2-3.1,3.9-6.6,8.3
		c-3.5,4.4-8,10.6-10.1,13.9l-3.9,5.8l-1.1-2.8c-1.8-4.7-0.6-21.8,2.1-29.4c9.2-26.3,29.3-50.4,50.4-60.6c7-3.4,8.9-3.7,6.7-1
		c-1.3,1.6-0.7,3.6,1.1,3.6c0.5,0,2.4-1,4.1-2.2s2.8-1.8,2.5-1.2c-0.4,0.5-2.7,4-5.3,7.9c-5.4,8.3-9.4,20.1-10.2,30.4
		c-0.6,6.7-0.5,7.3,1.2,7c1.4-0.3,2.3-2.3,3.6-8.4c4.5-21,12.9-35,26.3-43.9c10.2-6.7,21.5-8.9,34.9-6.7c3.4,0.6,5.2,0.4,6.7-0.6
		c3.1-2.2,2.4-3.1-3.2-3.9c-2.9-0.4-4.7-0.9-4-1.1c2.1-0.8,16.2,2.7,25.7,6.4c9.5,3.6,14.7,6.3,23.3,12.1c2.8,1.9,5.4,3.3,5.7,3.1
		c0.2-0.3-0.9-2.8-2.5-5.6c-4.8-8.4-14.5-13.6-33-17.5c-5.2-1.1-10.4-2.4-11.5-2.9C438.2,92.3,441.6,92.1,448.5,92.4z"/>
	<path id="path20" fill="#FFDEAD" d="M505.9,217.1l5.2,6.6l3.7-3.4c3.3-3,3.8-3.2,4.9-1.7c0.7,0.9,1.8,1.4,2.5,1.1
		c2.3-0.8,9.2,4.6,11.3,8.8c3.3,6.8,3.3,24.3-0.1,41.7c-0.5,2.7-0.8,2.8-6.8,2.8c-8.1,0-16,1.5-23.3,4.4c-5.4,2.2-10.5,6.8-9.1,8.2
		c0.4,0.3,6.2-0.8,13-2.4c16.3-3.9,23.2-4.9,22.6-3.1c-0.3,0.9-2.4,1.5-6.1,1.7c-11.5,0.5-24.2,7.3-29.9,16c-2,3.1-3.5,5.8-3.3,6
		s1.9-0.7,3.7-2.1c5.5-4,6.3-4.2,4-0.9c-8.2,11.5-8.8,35.6-1,46.4l1.9,2.8h-2.5c-2,0-2.6,0.5-2.6,2.1c0,1.5,1.4,2.6,5.3,4.3
		c10.6,4.7,12.3,5.1,14.1,3.3c1.3-1.2,2.3-1.4,4.8-0.6c4.4,1.2,4.8,1.2,4.8-0.6s0.1-1.8,7.4-0.4c3.2,0.6,6,0.8,6.3,0.5
		c0.3-0.2-1.2-1.3-3.4-2.4c-2.1-1.1-4.8-3.2-6-4.6c-2.6-2.9-4.4-3.2-7.6-1.2c-1.2,0.8-3.3,1.7-4.7,2c-1.8,0.5-1.5,0.1,1.1-1.3
		c12.5-6.9,19.9-25,16.7-40.9c-0.8-4-1.3-7.2-1.2-7.2c1.3,0,6,8.2,7.9,13.7c2.3,6.6,2.4,6.7,3.4,3.9c0.6-1.5,1.1-3.3,1.1-4.1
		c0-2,1.7-2.7,4.8-2l2.8,0.6l-4.3,16.2c-2.4,8.9-4.8,19.1-5.3,22.7c-3.8,24.4-16.8,43.2-41.5,59.9C485,424.5,467,435,464.5,435
		c-1.3,0-7.4-2.3-13.6-5.1c-33-14.6-55.9-30.8-67-47.1c-5.7-8.3-8.9-16.6-14.3-37.3c-4.2-15.7-8.4-31.1-10.2-36.8
		c-0.6-1.9-0.1-1.8,9.6,2.6l5.5,2.4l-4.8,1.3c-5.5,1.5-8.2,4.6-4.5,5.5c1.3,0.2,3.9,0.6,5.8,0.7c3.5,0.3,3.5,0.3,3.8,5.5
		c0.2,2.9,0.5,5.3,0.8,5.3s1.5-1.2,2.8-2.6l2.2-2.7l3,7.3c1.6,3.9,4.6,9.2,6.7,11.6c3.3,3.7,3.6,4.4,1.9,4.4
		c-2.3,0-10.2,5.5-10.2,7.1c0,1.1,2,1,8.4-0.7c2.5-0.6,2.7-0.5,2,2c-0.7,2.9,0,3.2,3.6,1.1c3.8-2.1,7.5-1.9,9.2,0.7
		c1.4,2.1,1.6,2.1,3.2,0.5c1-0.9,2.8-1.7,4-1.7c3,0,10.9-3.5,12.6-5.5c1.1-1.3,1.1-1.9-0.3-3.2c-1.4-1.4-1.9-1.4-5.6,0.1
		c-5.7,2.2-5.8,2.1-1.6-2.5c4.5-5,5.9-8.3,7.5-17.5c1.2-7.6,0.3-16.5-2.6-23.3c-0.8-1.9-1.3-3.5-1.1-3.7c0.1-0.1,3.3,2.2,7,5.2
		s6.8,5.4,7,5.4s-0.1-2.2-0.7-5l-1-5l4.2-3.5c2.2-2,3.9-4.1,3.6-4.8c-0.2-0.7,1.7-2.2,4.5-3.5c6.9-3.1,15.1-10.9,18.9-17.9
		c3.9-7.1,4.1-5.1,1.1,7.8c-1.1,4.9-1.9,9.4-1.7,10c0.6,1.9,8.5-6.7,12.2-13.4c7.3-13,11-25.3,12.1-40.7c0.8-10.6,2.3-22.3,3.6-27.3
		C493.8,204.2,496.8,205.6,505.9,217.1z M474.9,357.7c-2.6-0.7-2.7-0.2-3.1,12c-0.3,9.2-0.2,10.2,1.4,10.7c1.4,0.3,2.5-0.9,4.9-5.5
		c2.6-5.2,2.8-6.2,1.5-7.4c-0.8-0.8-1.7-3.2-2.1-5.4C477.1,359.4,476.3,358,474.9,357.7z M448.8,383c-0.9,0-1.8,4.4-1,5.1
		c0.4,0.4,4.3,1.8,8.6,3.3c6.2,2,8.2,2.3,8.8,1.3c2-3.1,0.7-4.3-7.5-7C453.1,384.2,449.1,383,448.8,383z"/>
	<path id="path22" fill="#6B8E23" d="M582.9,249c1.8,0,10.4,10.3,12.6,15.3c3.2,7,5.5,18.2,5.5,27c0,8.9-2.8,15.5-8.8,20.9
		c-5.3,4.7-7.1,4.9-3.7,0.3c5-6.4,6.9-18,4.3-25.6c-1.8-5.4-4.3-8.3-9.8-11.3c-6.1-3.3-7-2.8-7,4.5c0,7.9-2.7,14.6-7.7,19.5
		c-4.3,4.2-8.3,6.3-5,2.6c0.9-1,3.9-7.4,6.7-14.2c2.8-6.9,5.5-13.4,6-14.5c2.2-5.1,6-18.3,6-21.3C582,250.5,582.4,249,582.9,249z"/>
	<path id="path24" fill="#6B8E23" d="M586.1,285.9c5.6,11.1-0.3,25.5-12.4,30.6c-3.7,1.5-3.7,1.5-4.7-1c-2.4-6.3-2.3-6.8,2.3-10.7
		c6.6-5.5,9.1-11.3,8.4-19.6c-0.2-3.7-0.8-7.6-1.2-8.7C577.4,273.2,583.8,281,586.1,285.9z"/>
	<path id="path26" fill="none" d="M541,281.9c0,1.3-3.7,2.4-5.1,1.5c-0.8-0.4-0.7-0.9,0.2-1.5C538,280.7,541,280.8,541,281.9z"/>
	<path id="path28" fill="#FFE4C4" d="M376.2,282c1.3,0-0.5,8.6-2.4,11.4l-2.1,2.9l2.7,5.4l2.7,5.5l-7.8-0.7
		c-4.3-0.4-8.1-0.9-8.5-1.2c-1-0.5,3.7-12.7,6.3-16.5c1.2-1.6,3.6-3.9,5.3-4.9C374.1,282.9,375.8,282,376.2,282z"/>
	<path id="path30" fill="none" d="M352,293c0.6,0,1,1.2,1,2.6s-0.4,2.3-1,1.9c-0.5-0.3-1-1.5-1-2.6C351,293.9,351.5,293,352,293z"/>
	<path id="path32" fill="#6B8E23" d="M326.5,306.8c6.3,8.5,8.2,11.9,10.2,18.5c2.9,9.5,6.1,16.2,10.9,23l3.4,4.7l-4,7.9
		c-2.1,4.4-6.4,11.6-9.5,16.1c-10.5,15.4-16.3,29.8-18.7,46.4c-2.9,20.4,3.9,32.6,22.8,40.6c3.5,1.5,6.6,2.9,6.9,3.2
		c0.6,0.6-30.9,6.8-52.5,10.3c-31,5.1-42.3,10.6-54.4,26.8c-14.1,18.6-27.3,58.9-25.1,76.2c0.4,2.7,1.6,8.5,2.7,12.8
		c2.6,9.9,2.1,12.8-3.8,22.8c-3.7,6.5-5.8,8.8-10.7,12.1c-3.3,2.2-7.9,6-10.3,8.4c-2.3,2.4-4.5,4.4-4.8,4.4c-0.9,0-0.7-9.2,0.3-12.5
		c0.5-1.7,3.1-5.3,5.9-8.2c6.1-6.2,7.2-9.6,7.2-21.8c0-12.6-1.9-19.1-8.7-29.4c-7-10.5-9.5-17.1-8.7-22.6c1.3-8,4.2-11.7,20.8-25.8
		c7.2-6.2,10-11.4,10-18.7c0-5.8-1.4-9.1-8-18.4c-2.7-3.8-3.4-5.8-3.4-9.4c0-4.3,0.4-5,6.3-10.8c5.8-5.6,9-7.5,34.1-19.9
		c36.6-18.1,48.4-26,63.7-42.2c15.6-16.6,21.9-31.3,21.9-51.2c0-11.7-1.5-18.4-7.9-34.9c-2.7-7-5.2-14.5-5.6-16.7
		C316.6,293.7,316.5,293.6,326.5,306.8z"/>
	<path id="path34" fill="none" d="M431.5,297c0.8,0,1.5,0.2,1.5,0.4c0,0.2-0.7,0.6-1.5,1c-0.8,0.3-1.5,0.1-1.5-0.4
		C430,297.4,430.7,297,431.5,297z"/>
	<path id="path36" fill="#000080" d="M515.4,301.3c3.1,4.2,3.4,13.1,0.6,19.6c-4.4,10-9.8,8.8-11.6-2.7c-0.6-4.3,2.5-15.3,5.2-18.3
		C511.7,297.5,512.8,297.8,515.4,301.3z"/>
	<path id="path38" fill="#000080" d="M407.5,309.8c2.2,6.8,1.4,13.4-2.1,16.9l-2.4,2.4l-3.3-2.7c-4.4-3.6-5.6-6.1-5.7-11.4
		c0-5.2,1.8-8.3,6.4-11.1C404.2,301.6,405.1,302.3,407.5,309.8z"/>
	<path id="path40" fill="#000080" d="M413.4,302.9c2.4,2,5.8,11.3,6.4,17.5l0.5,5.9l-2.5-1.9c-2.1-1.6-2.8-3.5-4.2-11
		c-0.9-4.9-1.6-9.6-1.6-10.3C412,302.1,412.3,302,413.4,302.9z"/>
	<path id="path42" fill="none" d="M381.1,304c1.4,0,1,1.7-0.5,2.3c-1,0.4-1.3,0.1-0.9-0.9C380,304.7,380.6,304,381.1,304z"/>
	<path id="path44" fill="#00BFFF" d="M512,336.5c3.5,0.1,5.6,0.7,6.8,1.9c1.6,1.7,1.5,1.9-2.2,5.2c-4.4,3.8-8.7,4.4-12.4,1.9
		l-2.2-1.6l2.5-3.7C506.8,336.7,507.3,336.5,512,336.5z"/>
	<path id="path46" fill="#00BFFF" d="M403.3,338.3c2.3,0.2,6,1.1,8.1,2l3.9,1.5l-2.5,2.5c-4.5,4.4-10,4.8-14.9,0.8
		c-2.3-1.8-2.3-1.9-0.5-4.6C399,338.1,399.7,337.9,403.3,338.3z"/>
	<path id="path48" fill="#9370DB" d="M569.8,350.9c4.3,1.1,11.5,2.7,16.1,3.5c10.3,2,15.6,4.3,20,8.7c5.3,5.3,7.3,10.7,7.2,20.2
		c0,13.5-3.7,22.5-15.7,38.8c-3.5,4.7-7.5,11-8.8,14c-4.6,10.1-4.3,20.8,0.9,31.1l2.5,5l-4.2-0.7c-7.5-1.2-19.2-6.3-29.9-13
		c-5.7-3.6-11.8-6.8-13.5-7.1c-3.9-0.7-9.2,1.5-15.9,6.5c-6.3,4.7-8.8,6.1-11.4,6.1c-3.3,0-6.8-2.1-8-4.7
		c-0.6-1.4-1.4-10.9-1.8-21.4l-0.6-18.8l12-11.8c12.5-12.4,16.4-17.5,23.2-30.9c3-6.1,5-8.7,7.6-10.3c4.1-2.4,7.5-7.5,7.5-11.3
		c0-1.5,0.7-3.4,1.6-4.2C560.5,348.6,560.6,348.6,569.8,350.9z"/>
	<path id="path50" fill="#228B22" d="M604.9,353.1l4,1.6c4.9,1.9,11.6,7.5,13.5,11.2c3.5,6.9,2.7,18.3-2,27.9
		c-1.4,2.9-2.7,5.2-2.9,5s0.3-2.8,1.1-5.8c3.3-12.1-0.5-27.3-8.8-35.2L604.9,353.1z"/>
	<path id="path52" fill="#9370DB" d="M357.2,364l2.8,3c1.8,1.9,4.1,3.2,6.8,3.6c3.8,0.6,4.2,1,7.2,7c6.5,13.2,15.6,23.1,33.1,35.5
		c6.6,4.7,10,7.9,10.7,9.8c1.3,3.8-0.4,26.5-2.3,30.9c-1.6,3.4-6.7,7.2-9.9,7.2c-1.1,0-4.8-3-8.5-7c-3.6-3.9-7.4-7-8.4-7
		s-4.2,2.2-7,4.8c-2.9,2.7-6,5.2-7,5.5c-2.5,0.9-19.2-4.6-24.8-8.1c-7.5-4.8-10.9-11-13-24c-1.2-8.1-0.1-16.5,4.2-30
		c3.6-11,8.8-21.9,13.1-27.5L357.2,364z"/>
	<path id="path54" fill="#228B22" d="M335.6,391.3c0.3,0.3-0.4,3.6-1.6,7.4c-2.7,8.4-3.7,24.5-2.1,32.5c1.6,7.7,6.4,17,10.7,20.7
		c5.1,4.5,12.3,7.9,21.5,10.1c13.8,3.3,20.2,8.5,23.5,19.6c3.2,10.6,1.3,16.2-11,32c-4.9,6.3-9.1,11.2-9.3,11
		c-0.2-0.2,1.4-4.9,3.7-10.4c2.2-5.6,4.5-12.7,5.1-15.8c3.2-17.2-7.5-31.9-28.2-38.9c-10-3.5-17.1-8.3-20.6-14.2
		c-2.6-4.4-2.8-5.6-2.7-14.3c0-11,2.7-23,7.3-33.4C333.7,393.8,335.3,391,335.6,391.3z"/>
	<path id="path56" fill="#FFDEAD" d="M501.3,421.1c0.4-0.1,0.7,8.6,0.7,19.3c0,11.2,0.5,20.6,1.1,22.4c1.5,4.2,4.4,5.9,14.9,8.3
		c7.3,1.7,9,2.4,9,3.9c0,2.9-22.7,46.4-25,47.8c-4.7,2.9-26.6,4.2-35.9,2c-4.2-0.9-6-0.8-11.6,0.7c-6.5,1.7-6.7,1.7-8.5-0.1
		c-2.1-2.2-38-57.1-38-58.2c0-0.4,2.4-1.8,5.3-3.2c7.4-3.5,9.2-6.8,10-17.8c0.9-12.2,3.4-18.2,7.7-18.2c1,0,7.8,2.8,15.1,6.2
		c19.8,9,19,9.1,38.4-3C493.3,425.7,500.8,421.1,501.3,421.1z"/>
	<path id="path58" fill="#228B22" d="M600.6,428.2c0.2,0.2-0.4,2.4-1.2,4.8c-3.1,8.9-0.5,18,8.1,28.6c2.4,3,4.9,7.3,5.6,9.6
		c1.5,5.6,0.8,14.3-1.6,19.1c-1.9,4-8.2,11.4-9,10.5c-0.2-0.2,0-2.2,0.6-4.4c2.1-7.4,0.6-14.8-5.6-26.9c-8.4-16.7-8.5-23.3-0.2-36.8
		C598.9,430.1,600.4,428.1,600.6,428.2z"/>
	<path id="path60" fill="#6B8E23" d="M228.5,445.1c-14.7,8.1-24,15.2-27,20.3c-4.2,7.2-3,18.2,2.5,23.1c5.4,4.8,7.4,13.4,4.8,20.6
		l-1.3,3.4l-0.6-5.8c-0.6-5.7-1.7-7.7-8.9-17.1c-8.5-11-5.4-21.3,10.6-35c7.7-6.6,12.1-9.1,22.9-13.2
		C240.9,437.8,240.3,438.5,228.5,445.1z"/>
	<path id="path62" fill="#FF0000" d="M388.7,454c0.7,0,3,2.4,5.1,5.2c4.8,6.6,43.2,63.3,45,66.5l1.3,2.3h-8c-4.4,0-9-0.4-10.3-0.9
		c-1.7-0.6-25.3-18.7-29.7-22.6c-0.1-0.2,0.5-3.4,1.4-7.1c2.9-11.7,0-22.6-8.6-31.9l-4.2-4.6l3.3-3.4C385.9,455.6,388,454,388.7,454
		z"/>
	<path id="path64" fill="#FF0000" d="M544.6,458c0.8,0,4.1,1.7,7.2,3.9c8.4,5.7,16.4,9.4,28.2,13.2c5.8,1.8,10.7,3.4,10.8,3.5
		c0.6,0.4-17.8,22.3-19.8,23.7c-1,0.7-6.2,5.4-11.5,10.5c-6.8,6.4-10.9,9.5-13.4,10.1c-6.7,1.7-27.4,2.4-31.9,1
		c-2.3-0.7-4.2-1.4-4.2-1.7c0-0.4,7-14,20.5-39.7c2.9-5.5,6.9-13.3,8.9-17.3C541.5,461,543.7,458,544.6,458z"/>
	<path id="path66" fill="#DC143C" d="M364.1,486.2c6.3,7.2,7,8.4,6.5,11.1c-0.3,1.7-0.8,3.2-1,3.5c-0.2,0.2-7-5.2-15-11.9
		c-13.9-11.8-14.5-12.4-12.3-13.6C348.4,471.9,353.8,474.6,364.1,486.2z"/>
	<path id="path68" fill="#DC143C" d="M330.9,486.6c4.2,3.7,13.1,11.8,19.9,18.2c11.1,10.3,12.3,11.8,11.7,14.1c-0.4,1.4-1,3-1.5,3.5
		c-1,1-18.3-9.2-34.5-20.2c-12.6-8.6-24.8-18.2-24-19c0.3-0.3,3.5-1.1,7.2-1.8C322.2,479.2,322.4,479.3,330.9,486.6z"/>
	<path id="path70" fill="#DC143C" d="M597.3,484c2.9-0.1-1.6,5.4-17.2,21.1C566,519.3,561.7,523,559.6,523c-1.4,0-2.6-0.5-2.6-1.1
		c0-1.2,14.7-15.4,30.5-29.7C592.5,487.7,596.8,484,597.3,484z"/>
	<path id="path72" fill="#FF0000" d="M298.1,487.2c2.1,2.3,4.3,6.8,3.6,7.5c-0.2,0.2-5.2,0.8-11.1,1.3c-16.4,1.4-23,5.9-29.3,19.9
		c-3.1,7-2.5,11.4,1.5,10.5c4.2-1,6.9-2.6,18.4-10.8c7.6-5.4,10.6-8,10.2-9.1c-0.4-0.8-1-1.5-1.6-1.5c-0.5,0-5.9,2.9-11.9,6.5
		c-6.1,3.6-11.3,6.5-11.5,6.5c-1,0,1.9-4.3,5.4-8.2c5.4-5.9,10.3-8.1,19.7-8.5c8.8-0.4,12.8,0.9,13.3,4.2c0.1,1.3-4.5,7.9-13.4,19
		c-7.5,9.3-15.9,20.3-18.5,24.4c-4.8,7.2-15.3,28-14.6,28.7c0.6,0.6,8.6-9.9,15.7-20.6c11.5-17.2,31.8-43.5,32.8-42.6
		c0.4,0.4,3.2,16.9,2.9,17.2c-0.1,0.1-1.9,0.9-3.9,1.7s-4.4,2.7-5.3,4.1c-1.8,2.7-15.8,41-17.6,48.1l-1,4l-5.3,0.1
		c-5.2,0-13.1,3-16.8,6.2c-3,2.5-2.5,15.5,0.7,21.1c1.4,2.3,2.5,4.4,2.5,4.6c0,0.4-7.9,2.3-12.5,3c-5,0.8-9.6,5.5-14.9,15.2
		c-3.7,6.9-11.9,16.3-13.1,15.1c-0.4-0.3-0.2-3.1,0.4-6.2c1.3-7,0.4-9.7-4.3-12.4c-6.1-3.6-5.6-5,13.3-33.5c6-9.2,7.1-11.5,7.1-15
		l-0.1-4.2l-2.5,3c-1.3,1.6-3.9,5.1-5.7,7.7c-1.7,2.6-3.5,4.8-3.8,4.8s-1.4-4.7-2.4-10.4c-2.7-16.2-1.9-25.8,3.9-43.1
		c2.6-7.7,7-18.7,9.9-24.5c4.3-8.8,6.4-11.8,13.2-18.6c8.9-9.1,16.7-13.5,27.5-15.8C289.3,484.3,295.5,484.6,298.1,487.2z"/>
	<path id="path74" fill="#DC143C" d="M632.3,486.1c3.2-0.1,17.7,4,17.7,5c0,0.4-8.7,7.7-19.2,16.4c-10.6,8.7-20,16.5-20.9,17.2
		c-1.5,1.2-2.7,1.1-9.3-0.9l-7.6-2.3l14-14.7c9.5-9.9,15.2-15.1,17.6-16c2.8-1,3.2-1.4,1.7-1.9c-1.6-0.6-1.5-0.8,0.7-1.7
		C628.4,486.6,630.8,486.1,632.3,486.1z"/>
	<path id="path76" fill="#FF0000" d="M677.4,504c3.3,3.5,6.9,9.8,12.7,21.7c8.8,18,12,23.3,18.5,30.3c2.3,2.5,4.5,5.5,4.8,6.7
		c0.4,1.3,1.2,2.3,1.7,2.3s0.9,1.9,0.9,4.2v4.2l-3.8-3.7c-2.1-2-5.9-4.4-8.5-5.3c-5-1.7-5.6-2.2-6.2-5.3
		c-0.5-2.8-11.8-23.1-17.8-32.1c-6.6-9.8-15.7-18.7-23.5-22.8c-3.4-1.8-6.2-3.7-6.2-4.3c0-0.5,1.5-1.8,3.3-2.9
		C660.1,492.8,669.5,495.6,677.4,504z"/>
	<path id="path78" fill="#DC143C" d="M311.1,499.1c1.3,0.9,12.4,8,24.7,15.9c12.2,7.9,22.1,14.4,21.9,14.6
		c-0.1,0.2-9.3,0.8-20.2,1.3c-15.3,0.8-20.3,0.7-21.1-0.2c-0.6-0.7-2.3-7.3-3.8-14.7c-1.5-7.4-3-14.6-3.4-16
		C308.7,497.6,308.7,497.6,311.1,499.1z"/>
	<path id="path80" fill="#FF0000" d="M649.2,506.9c13.4,5.8,23.7,17.7,38.2,44.1c7,12.7,9.7,15.7,15.6,17.4c6.1,1.8,12,8.9,14,17
		c1.1,4.5,1.1,6.2,0.2,7.4c-6.3,8.6-6.6,11.7-2.2,23c3.7,9.9,4.6,16.6,2.7,21.1l-1.4,3.3l-0.7-2.6c-0.7-2.9-8.6-9.6-15.6-13.1
		c-6.4-3.2-11-4.3-27.8-6.6c-8-1-15.1-2.4-15.6-2.9c-0.6-0.6-5.7-34.9-6.6-44.8c0-0.7-6.1,0-9.1,1c-5.7,1.9-8.8,4.9-11.8,11.2
		c-2.2,4.7-3,5.6-3.4,4.1c-1.9-6.3-12.7-51.9-12.7-53.4s20.2-20,22.8-20.9c1.6-0.5,13.2,33.5,13.1,38.3c0,0.5-1.6-2.3-3.4-6.3
		c-3.2-6.8-3.6-7.2-5.5-6.2c-2.4,1.3-2.1,4.2,1.2,11.9c2.3,5.5,10.6,18.1,11.9,18.1c2.1,0,1.3-20-1.2-29.9
		c-1.1-4.2-4.3-12.5-7.2-18.4l-5.3-10.9l2.4-1.9C644.8,504.6,643.9,504.6,649.2,506.9z"/>
	<path id="path82" fill="#FA8072" d="M521.2,533.7c1.1,0.9,1.8,3,1.8,5v3.5l-4-0.7c-5.9-1-10.4,0.9-12.6,5.3
		c-2.4,4.7-3.1,5.2-7.7,5.2c-3.8,0-3.9-0.1-7.3-7.4c-1.9-4.1-3.4-7.9-3.4-8.5c0-1.5,5.7-5.2,10.3-6.7
		C505.1,527.2,516.4,529.3,521.2,533.7z"/>
	<path id="path84" fill="#FF6347" d="M471.2,532c5.9,2.3,8.6,4.3,11.2,8.2c1.6,2.5,1.6,2.8-0.3,6.5c-1.1,2.1-4.7,7.2-8,11.3
		l-6.1,7.5l0.1,12.2c0.1,15-1.1,18-8.3,20.3c-2.6,0.8-5,1.8-5.4,2.2c-1.7,1.8-4.9,0.6-8.4-3.1c-6.2-6.3-7.6-10.5-4.5-13.1
		c1-0.8,1.2-1.6,0.6-1.9c-0.6-0.4-0.7-2.1-0.1-4.6c2.2-9.4,0.5-18.1-4-20.5c-2.9-1.5-2.5-5.5,0.9-10.9c3.8-5.9,9.5-11.3,14.6-13.9
		C458.6,529.5,464.5,529.5,471.2,532z"/>
	<path id="path86" fill="#FFE4B5" d="M403.7,543.6c4.6,2.4,10.8,11.3,17.5,25.3c6.4,13.7,6.3,12.3,2.6,26.3c-1.1,4.3-2.5,7.8-3,7.8
		s-5.8-3.3-11.6-7.4c-17.9-12.3-28-16.3-38.3-15.2c-9,0.9-33.5,10.8-40,16.2c-3,2.4-5.7,4.4-6,4.4c-1.7,0-2-9.9-0.5-15.1
		c0.8-3,1.9-9.3,2.4-14.1c0.9-8.5,1.1-9,6.8-16.9c4.1-5.7,6.8-8.5,8.9-9.2c1.7-0.6,5.4-2.7,8.4-4.8c3-2.2,5.7-3.9,6-3.9
		s0.6,3.1,0.7,7c0.1,9.6,2.4,14.8,8.6,20.1c2.8,2.3,4.9,3.8,4.7,3.3c-0.2-0.5-1.9-4-3.7-7.7c-5.8-11.8-3.8-23.9,4.3-26
		C376.2,532.5,390,536.8,403.7,543.6z M388.7,547c-2.4,0-5,0.6-5.9,1.2c-1.4,1.2-3.5,10.8-2.3,10.8c0.3,0,3.2-1.7,6.5-3.7
		c4.4-2.8,6-4.4,6-6C393,547.3,392.5,547,388.7,547z M344.7,551.4c-0.7-0.7-7.7,7.5-8.7,10.2c-1.7,4.4-1.2,9.1,1.4,12.1
		c1.3,1.5,2.7,2.6,2.9,2.3c0.3-0.3,1.5-5.8,2.7-12.4C344.2,557.1,344.9,551.6,344.7,551.4z"/>
	<path id="path88" fill="#FF6347" d="M527.5,546c2.4,0,10.5,7.1,10.5,9.2c0,1,0.2,1,0.9-0.1c1.1-1.7,4.3-0.7,9.7,3
		c6.8,4.6,6.9,5,3.4,11.2c-2.5,4.4-3.5,5.4-5.1,5c-3.2-0.9-5.3,2.1-8.4,11.7c-2.7,8.5-4.8,11.8-4.2,6.8c0.3-3.3-3.9-3.8-6.1-0.7
		c-1.5,2.2-1.6,2.2-2.9-2.4c-1.6-5.4-2.8-6-3.7-1.7c-0.3,1.7-0.9,2.9-1.3,2.8c-0.5-0.2-3.7,1.9-7.1,4.6l-6.4,4.8l-8.1-1.6
		c-4.5-0.9-12.4-1.6-17.4-1.6c-5.1,0-9.3-0.3-9.3-0.8c0-0.4,0.5-4.8,1.1-9.7c0.6-5,1.1-11.5,1-14.5c-0.1-6.1,0.2-6.8,4.1-9.2
		c1.4-1,4.1-4.2,5.8-7.3l3.2-5.6l1.9,3.1c2.5,4,7.8,6.3,12.7,5.4c5.7-1,7.2-2.2,9.2-7c1.8-4.2,2.1-4.4,6-4.4h4l-1.5,3.7l-1.5,3.8
		l3.6-4.3C523.9,547.6,526.1,546,527.5,546z"/>
	<path id="path90" fill="#EEE8AA" d="M294.7,566.4c0.4,0.3-3.6,30.8-4.1,31.3c-0.2,0.2-1.3-0.8-2.5-2.1l-2.3-2.5l4.3-13.5
		C292.4,572.1,294.5,566.2,294.7,566.4z"/>
	<path id="path92" fill="#EEE8AA" d="M644.2,576.8c0.4,0.4,1.8,9.9,3.3,21.2c3.1,25.5,2.9,24.6,6.3,25.8c2.2,0.8,3.5,2.6,6.6,9.8
		c6.4,14.6,8.4,24.6,4.9,23.8c-3.6-0.9-4.5,0.9-2.7,5.2c4.5,10.6,5.6,16.8,6.2,34.9c0.9,24.5,0.5,27.3-7.1,45.6
		c-9.2,21.9-10.6,24.7-13.9,27c-2.9,2.1-3.1,2.1-6.8,0.4c-7.1-3.2-14.5,1.1-17.9,10.5c-1.4,3.9-2.1,4.5-4.7,4.8
		c-4.1,0.4-5.8-1.8-5-6.2c0.7-3.6,3.7-6.6,9.5-9.8c1.7-1,4.4-3.8,5.9-6.4c1.5-2.6,4.9-7.1,7.5-9.9c3.3-3.7,5-6.5,5.4-9.1
		c0.4-2.2,1.7-5.9,2.9-8.4c2.6-5.1,4.3-11.9,4.4-16.6c0-1.8,1.5-6.3,3.2-10c4.1-8.7,4.2-14.8,0.6-25.9c-4-12-16-55.7-15.4-56.2
		c0.2-0.3,2.6,0.5,5.1,1.6c2.6,1.2,5,2.1,5.3,2.1s-2.2-2.7-5.6-5.9c-4.1-3.9-7.2-7.9-8.8-11.6c-2.3-5-2.6-6.7-2.2-13.9
		c0.5-10.1,4-18.5,9-21.5C642,576.9,643.8,576.4,644.2,576.8z"/>
	<path id="path94" fill="#FF4500" d="M383.6,587.1c9.2,4,26.6,15.3,29.9,19.4c6,7.4,12.8,20.3,12.2,23.3c-0.3,1.4,0.2,4.4,1,6.5
		c1.4,3.3,1.4,4,0.2,4.8c-2.4,1.5-4.6,1-5.4-1.4c-0.7-2.1-0.8-2-1.2,0.8c-0.3,1.6-1.1,3.7-1.9,4.6c-0.7,0.8-1.3,2.8-1.3,4.5
		c0,1.6-0.3,4.6-0.8,6.6l-0.8,3.7l-4-4.9c-6.1-7.4-11.2-10.6-24.2-15c-14.2-4.8-20-5.1-28.8-1.5c-3.3,1.4-8,2.5-10.3,2.5
		c-3.7,0-4.8,0.5-7.5,3.5c-1.7,1.9-3.9,3.5-4.9,3.5c-2.2,0-2.2-0.4-0.4-6.4c1.4-4.7,1.4-4.7-1-5.7c-3.9-1.4-4.1-1.2-6,4.3
		c-0.9,2.9-1.9,5.9-2.2,6.5c-0.2,0.8,0.4,1.3,1.4,1.3c1.4,0,1.1,0.7-1.6,3.5c-1.9,1.9-3.9,3.4-4.4,3.2c-1.8-0.6-3.4-7.8-3.5-15
		c-0.1-5,0.5-8.3,2.3-12.5c1.3-3.1,3.1-8.4,4.1-11.7c1.3-4.8,2.7-7.1,7.3-11.7c3.2-3.3,7.1-6.3,9.2-6.9c1.9-0.6,6.3-2.6,9.8-4.5
		c3.7-2,10-4.2,15-5.3C377.4,584.7,378,584.7,383.6,587.1z M341,613.7c0,5.3,1.5,5.9,4.6,1.9c1.6-2.1,4.3-4.6,6.1-5.7
		c3.7-2.3,5-5.3,3.3-7.4C351,597.6,341,605.7,341,613.7z M417.5,617.2l-3.4-3.7l-0.1,5.1c0,2.8-0.3,7.2-0.6,9.8
		c-0.8,5.5,0.1,5.7,4.4,1.5c2.1-2.1,3.2-4.1,3.2-6C421,621.9,419.8,619.7,417.5,617.2z"/>
	<path id="path96" fill="#EEE8AA" d="M281,601.9c0.1,2.9,0.2,3.3,1.1,1.8c3.1-5.3,5.1,2.8,4.2,17.3c-0.6,10.4-0.9,11.9-4.5,19.2
		c-2.1,4.4-3.8,8.2-3.8,8.5c0,0.4,1-0.3,2.3-1.4c1.2-1.1,2.7-2.3,3.3-2.6c1-0.6,0.3,5.2-5.8,45.1c-1,7.2-1,9.7,0.4,17.9
		c1.4,8.1,2.7,11.7,8.7,23.7c3.8,7.7,8.2,17,9.7,20.6c8.7,21.3,13.1,26,24.1,26c4,0,5.1,0.5,8.8,4.3c4.5,4.5,6.3,9.4,5.1,14.2
		c-0.8,3.3-2.1,3.2-3.6-0.4c-1.7-4.2-5.7-9.3-8.3-10.8c-1.2-0.7-3.8-1.2-5.8-1.3c-3.2,0-3.8,0.4-5,3.2c-0.7,1.8-1.3,3.4-1.5,3.6
		c-0.4,0.6-13.3-5.6-16.4-7.8c-1.7-1.2-4.3-5-6.1-8.8c-1.8-3.7-5.2-10-7.6-14c-6.7-11.1-8.2-15.1-9.8-26.6
		c-0.8-5.9-3.1-16.8-5.1-24.4c-5-19.1-5.1-29.2-0.5-44.7c3-9.9,3.4-12.8,4-28.5c0.4-9.6,0.4-18.2,0-19.1c-0.4-0.8-1.1-4.9-1.5-9
		c-0.7-8.2-0.2-9.2,5.3-10.9C278.9,595.1,281,596.4,281,601.9z"/>
	<path id="path98" fill="#708090" d="M598.1,601.2c8.4,2.8,12.1,8.1,13.4,19.3c0.4,3.3,1.8,11.3,3.1,17.7
		c2.9,14.3,3.2,18.2,1.6,20.1c-1.8,2.1-10.2,4.1-11.5,2.8c-0.6-0.6-2.6-1.1-4.5-1.1c-4.7,0-9.7-3.3-12.8-8.5
		c-3.3-5.6-4-8.4-5.8-23.2c-2.6-20-2.2-22.7,3.7-26.3C588.9,599.7,593.2,599.5,598.1,601.2z M588,608.8c-3,2.4-2.9,8.1,0.5,26.4
		c3,16.3,3.6,18.2,6.9,20.3c3.6,2.4,6.5,1.5,9.9-2.8l3.1-3.8l-2.8-11.2c-1.5-6.2-3-11.8-3.3-12.5s0.1-1,0.9-0.7
		c1.1,0.5,1.3-0.6,0.8-5.6c-0.5-5.3-1-6.6-3.8-9C596.4,606.5,591.4,606.1,588,608.8z"/>
	<path id="path100" fill="#FFD700" d="M522.4,608.7c1.1,3.6,3.5,5.3,7.2,5.3c3.2,0,3.5-0.2,2.9-2.3l-0.6-2.2l2,2.4
		c2.6,2.9,2.7,6.7,0.1,10.8c-2.5,4.2-6.8,6.3-12.7,6.3c-8.4,0-14.3-5.8-14.3-14c0-4.5,1.7-8.2,4.8-10.8
		C515.5,601.3,520.9,603.5,522.4,608.7z"/>
	<path id="path102" fill="#708090" d="M572,607.3c1.1,1.9,7.9,44.6,8,50.4c0,1.8-0.6,2.3-2.6,2.3c-1.8,0-3.8,1.3-6.3,3.9
		c-5.9,6.5-11.3,7.7-16.7,3.6c-1.8-1.4-4.4-2.9-5.8-3.5c-1.8-0.6-2.6-1.9-3-4.2c-3-19.7-4.9-33.8-4.9-36.3c-0.1-1.7,1.2-5.8,2.7-9.2
		c2.5-5.5,3.5-6.5,7.9-8.8C559.4,601.5,568.8,602.3,572,607.3z M553.5,610.3c-2.5,2.1-2.7,2.7-3.7,19.5c-1.4,21.1-0.5,26.5,4.8,31.1
		c1.9,1.7,4,3.1,4.6,3.1c2.8,0,9.1-2.6,11.3-4.6c2.4-2.2,2.5-2.9,2.4-13.1c0-5.9-0.4-13.3-0.8-16.4c-0.4-3.1-0.3-6.9,0.1-8.5
		c1-3.6-1.5-11-4.2-12.4C564.4,607.1,556.3,607.8,553.5,610.3z"/>
	<path id="path104" fill="#FFA500" d="M565.2,614.7c2.2,2,2.4,4.5,0.3,3.7c-3-1.2-6.6,0.6-8,3.9l-1.4,3.2l-0.1-4.7
		c0-2.9,0.6-5.2,1.6-6.2C559.6,612.5,562.9,612.6,565.2,614.7z"/>
	<path id="path106" fill="#FFD700" d="M564.4,625.1c0.8,0.8,1.7,3.2,2,5.4l0.7,4l-2.5-3l-2.5-3l-0.1,7c0,5.5-0.3,6.6-1.1,5.1
		c-1.3-2.1-0.7-9.7,1-14C562.9,624.1,563.3,623.9,564.4,625.1z"/>
	<path id="path108" fill="#FFA500" d="M556.4,645.5c0.7,1.7,2.5,3.6,3.9,4.2c2.2,1,3,0.9,5.1-0.8l2.6-2v4c0,3.5-0.4,4.3-3,5.6
		c-4.4,2.3-6.7,1.9-8.4-1.3c-1.5-3-2-6-1.7-10.2C555.1,642.5,555.1,642.5,556.4,645.5z"/>
	<path id="path110" fill="#FF0000" d="M667.2,622.4c17.8,2.2,26.5,4.5,34.3,9.1c5.7,3.3,14.5,13,14.5,16c0,2.9,1.8,4.8,6.2,6.5
		c4,1.6,10.8,6.3,15.4,10.7c3.1,2.9,10,15.9,11.9,22.3c0.4,1.4,1.6,4.5,2.7,7c8,17.6,8.8,22.3,8.8,52c0,19.7-0.5,26.7-2.4,29.5
		c-0.9,1.3-1.6,3.3-1.6,4.4c0,1-0.7,2.1-1.5,2.5c-0.8,0.3-1.5,1.6-1.5,2.8c0,1.3-1.5,5.2-3.3,8.8c-6.4,12.6-10.3,17.4-17.7,21.7
		c-5.4,3.2-17.9,8.4-20.3,8.5c-1.2,0.1-3.1,0.9-4.2,1.8c-1.1,1-3,2.3-4.2,2.9c-2.9,1.5-28.6,7.7-39.7,9.7
		c-14.4,2.5-18.8,1.1-37.5-11.6c-12-8.1-12.1-8.2-16.1-16.2c-3.5-7-4-8.9-4-14.7c0-3.7,0.3-7,0.6-7.3c0.3-0.4,1.4,0.2,2.5,1.3
		c3.5,3.5,8.5,2.5,21.9-4.2c12.4-6.2,18.6-10.3,25.3-16.7c4.2-4.1,4.2-4.2,2.3,5.4c-0.9,4.9-3,10.2-6.9,17.6
		c-3.2,5.8-5.7,11-5.7,11.5s1.1,1.5,2.4,2.1c2.3,1,2.5,0.8,7.9-11.6c3-7,6-15,6.6-17.7c1.9-8.4,7.4-24.5,8.3-24.5
		c0.4,0,0.8,1.7,0.8,3.7c0,8.2,2.4,37.3,3,36.6c1.3-1.5,4-16.4,4-22.1c0-3.1-0.7-8.4-1.5-11.7c-1.9-7.9-1.9-15.5,0.1-25.1
		c2.2-10.8,2.6-11.4,5.2-7c2,3.3,2.3,3.5,4.6,2.5l2.5-1.2l-2.8-4.1c-1.5-2.2-3.3-5.6-4-7.5c-1.6-5-2.6-17.1-1.4-17.1
		c0.6,0,1.4,0.7,1.7,1.6c0.4,0.9,0.9,1.4,1.2,1.2c0.3-0.3-0.4-5.2-1.6-10.8c-1.1-5.6-2-10.4-2-10.7s3.7,3.8,8.2,9.1s8.3,9.4,8.6,9.2
		c0.9-1-8.1-16.6-12.7-22c-3-3.5-6-8.5-7.5-12.5c-2-5.3-11.4-29.3-15.7-39.9C662,621.8,662,621.8,667.2,622.4z"/>
	<path id="path112" fill="#FF0000" d="M262,631c0,2-0.7,3.3-2.2,4.1c-7.4,3.8-10.1,9.3-14.3,29.4c-3,14.3-3.4,15.2-8.1,21
		c-7.8,9.7-13.7,24.3-15,37.4c-0.6,6.6-0.5,7.1,1.3,7.1c1.6,0,2.3-1.6,4.2-10c2.2-9.9,9.3-26.3,12.6-29c1.3-1.1,1.5-0.8,1.5,2.1
		c0.1,11.5,2.3,44.8,3.5,52.4c1.4,9,7,29.3,8.4,30.8c0.4,0.4,1.5,0.5,2.3,0.2c1.4-0.5,1.3-1.5-0.8-7.9c-3.5-11-5.5-23.6-5.2-31.9
		l0.3-7.5l8.5,11.1c11.6,15,18.3,25.3,23.7,35.8c2.7,5.5,5.7,9.9,7.7,11.4c1.8,1.3,9.9,5.7,18.2,9.6c8.2,3.9,15.1,7.3,15.3,7.5
		c1.8,1.6-19.1,12.6-28.2,14.9c-22.1,5.5-51.8,0.2-71.8-13.1c-8.8-5.8-20.7-18.5-26.2-27.9c-4.8-8.1-6.9-14.9-8.6-28
		c-0.6-4.4-1.7-11.6-2.5-16c-3.7-19.5-0.4-34.8,10.5-49.2c3.3-4.5,21.9-20.7,22.7-19.9c0.1,0.2-2.3,4.5-5.3,9.7
		c-6.9,11.5-12.5,23.3-15.4,31.9c-2.7,8.4-4.3,20.2-2.7,21.2c1.8,1.3,2.5,0.9,3-1.5c3.7-18.9,8.8-30.3,24.8-56.2
		c5.7-9.4,12.2-20.2,14.3-24c7.6-14,9.5-15.8,19-17.8C261.6,627.8,262,628,262,631z"/>
	<path id="path114" fill="#008000" d="M485,642c0,0.5,0.9,1,1.9,1c1.1,0,2.9,1.2,4,2.6c1.8,2.3,2,3.8,1.8,12
		c-0.2,9.2-0.2,9.3,3.1,12.6c3.7,3.9,3.6,3.5,1.6,8.3l-1.5,3.7l-2.8-2.6c-2.3-2.2-3-2.4-4.5-1.3c-1.7,1.2-1.6,1.6,1.3,6.2
		c4,6.3,4,7.5-0.4,7.5H486v-6.8c0-8.8-2.9-14.9-8.3-17.6c-2.1-1-4-1.6-4.3-1.3s-0.8,3-1.1,6.1c-0.7,6.4-2.4,7.3-4.8,2.6
		c-1.9-3.7-1.9-6.4,0-8c0.8-0.7,2-3.1,2.6-5.4c1.8-7.1,7.6-18.2,10.1-19.4C483.1,640.8,485,640.7,485,642z"/>
	<path id="path116" fill="#FFFF00" d="M379.8,644.4c2.6,1.3,7.4,2.9,10.7,3.6c7.7,1.6,9.4,2.5,10.6,5.9c0.5,1.5,4.1,5.4,7.9,8.6
		l6.9,5.8l-2,2.5c-2.4,3.2-2.4,6.3,0.1,9.5c2.4,3,2.6,6,0.5,7.7c-0.9,0.7-1.5,0.8-1.5,0.2c0-1.3-2.6-2.3-4.4-1.6
		c-0.8,0.3-1.7,2.3-2.1,4.3l-0.6,3.8l-22.7,0.6c-12.5,0.4-33.4,1-46.6,1.3l-23.8,0.7l0.7-9.4c0.9-11.1,2.3-15,7.4-20.4
		c2.1-2.2,4.5-5.4,5.2-7c1.5-3.1,5.3-4.8,13.1-6c2.8-0.4,4.1-1.3,5.6-3.8c1.7-2.9,2.3-3.3,5.4-2.9c2.2,0.2,4.8-0.3,6.9-1.5
		c1.9-1,4.8-2.3,6.4-3C368.5,641.4,374.6,641.8,379.8,644.4z M337.5,668.9c-3.9,1.6-5.8,4.8-5.7,9.7c0.1,2.6,0.4,4.9,0.6,5.2
		c0.8,0.8,3-1.4,7.7-7.4c4-5.2,4.1-5.5,2.3-6.9C340.2,667.9,340.2,667.8,337.5,668.9z"/>
	<path id="path118" fill="#008000" d="M455.9,662.6c2.1,1.7,3.6,4.4,4.7,8.2c2.3,7.8,5,12.9,7.3,13.7c1,0.3,1.8,1.3,1.7,2.2
		c-0.2,2.5,4.7,4,8.4,2.6c3.1-1.2,3.6-0.8,2.1,1.6c-0.8,1.2-5.7,1.7-24.2,2.4c-24.5,0.9-27.9,0.6-27.9-1.9c0-1.2,0.5-1.4,1.8-0.9
		c7.1,3.1,11.7,0.3,11.6-7.2c0-2.6-0.4-6.9-0.8-9.5c-1.1-6.1,0.6-10.6,4.8-12.4C450,659.4,452.5,659.7,455.9,662.6z"/>
	<path id="path120" fill="#FFD700" d="M544.2,674.9c3.9,3.4,7.8,10.4,7.8,13.9v2.2h-25.1h-25.1l0.7-3.8c1.4-7.9,7.5-15.1,15.5-18.6
		C525.7,665.3,536.1,667.8,544.2,674.9z"/>
	<path id="path122" fill="#FFD700" d="M591.1,668.3c13,0.6,20.9,7.1,20.9,17.1v4.6h-21h-21v-3c0-6.2,4.2-13.2,10.5-17.2
		C583,668.2,584.9,667.9,591.1,668.3z"/>
	<path id="path124" fill="#8B4513" d="M635.4,707.1l5.9-0.1l-0.5,4.5c-0.4,3.5-0.2,4.5,0.9,4.5c0.8,0,1.3,0.6,1,1.2
		c-8.7,21.4-19.3,44.9-21.2,46.7c-2.3,2.3-3.4,2.5-17.2,3.2c-14.9,0.8-107.5,2.9-125.5,2.9H469l4.5-4.1c4.2-3.8,4.5-4.5,4.5-9.1
		c0-5.2-0.1-5.2-6.1-6.2c-2-0.4-5.3-2.1-7.5-4c-5.4-4.6-9.3-5.3-14.8-2.6c-5.8,2.8-7,5.7-5.7,14.1c0.6,3.5,2,7.6,3.1,9.1s2,3,2,3.3
		s-14.5,0.5-32.2,0.6c-17.8,0-47.1,0.4-65.3,0.8c-29.3,0.7-33.4,0.6-36.5-0.8c-3.1-1.4-4.5-3.6-11.7-17.6c-4.5-8.8-8.5-16.5-8.7-17
		c-1.3-2.8-4.7-16.8-4.3-17.9c0.4-0.9,11.4-1.5,43.8-2.4c72.9-2.1,146.9-4.3,222.9-6.6C596.9,708.3,632.1,707.2,635.4,707.1z"/>
	<path id="path126" fill="#FF0000" d="M563,774.5c0,0.3-2.4,4.7-5.2,9.8c-5,8.7-5.3,9.6-5.1,15.7c0.1,6.1,2.7,20.1,7.1,38.5
		c1.6,6.7,2.3,8.2,4.8,9.7c2.8,1.7,0.7,1.8-54.8,1.8c-31.8,0-57.8-0.3-57.8-0.8c0-1.2,13.8-18,15.7-19.1c2.6-1.4,6.7,1.1,14.8,8.9
		c8,7.7,10.5,8.9,14.1,6.5c2.1-1.3,2.5-2.3,2.2-5.3c-0.3-3.3-0.9-4-6.3-7.2c-3.3-1.9-8.2-5-10.8-6.9l-4.7-3.4l6.3-7.1
		C493.7,803.8,495,802,495,799c0-3.6-4.1-7-8.4-7c-2.1,0-4.4-1-6.6-3l-3.5-2.9l4-3.6c7.6-6.7,8.3-6.9,27.5-7.6
		C533,774.2,563,773.9,563,774.5z"/>
	<path id="path128" fill="#DC143C" d="M574,774c2.4,0,2.4-0.3,0.5,5c-2.1,6-1.9,7.8,1.4,11.1c3.7,3.7,6,3.7,17.3-0.1
		c4.9-1.7,9.1-3,9.3-3s-0.1,1.4-0.7,3c-1.6,4.8-0.6,15.5,1.9,18.8c1.1,1.5,2.4,4.3,2.8,6.1c0.9,4.2,7.2,10.5,15.5,15.5
		c6.1,3.6,6.3,3.9,4,4.6c-1.4,0.4-4.5,1.7-7,2.8c-9.3,4.3-30.8,9.1-40.5,9c-10.2,0-10.7-0.3-12.1-8.3c-0.6-3.9-2.2-10.8-3.4-15.5
		c-2.4-9.4-3.6-21.8-2.6-27.2c0.5-3,4-9.6,10.2-19.6C571.4,775,572.9,774,574,774z"/>
	<path id="path130" fill="#FAFAD2" d="M609,774.8c0,2-4.5,4.6-14.5,8.3c-5.8,2.1-11.6,3.9-12.7,3.9c-1.9,0-2-0.5-1.6-5.2
		c0.4-3.4,1.2-5.6,2.4-6.5C584.6,773.8,609,773.4,609,774.8z"/>
	<path id="path132" fill="#FF0000" d="M437.3,776.2c4.4-0.1,8.8,0.3,10,0.9c2.9,1.5,10.7,7.9,10.7,8.7c0,0.4-3.6,2.5-8,4.6
		c-7.7,3.7-13,8.2-13,11c0,2.4,3.9,6.3,6.9,6.9c1.9,0.4,5.8,3.3,10.3,7.6l7.3,7l-10.3,9.7c-10.3,9.7-10.3,9.7-9.7,13.5l0.7,3.9
		h-78.7h-78.7l2.4-2.8c1.3-1.5,4.5-6.7,7.2-11.4c2.6-4.8,5.8-9.6,7-10.6c3.3-3.1,44.3-26.2,46.4-26.2c1.1,0,3.3,0.7,4.8,1.5
		c8.1,4.2,14.2-1.6,13-12.5c-0.6-4.8-0.4-6,1.4-8.3l2.1-2.7l30.2-0.3C415.9,776.6,433,776.4,437.3,776.2z"/>
	<path id="path134" fill="#FAFAD2" d="M343.3,777.4c4.6,0.2,9.3,0.8,10.4,1.5c5.2,2.7,8,12.2,4.7,15.5c-1.4,1.5-2.1,1.3-7.6-1.7
		c-6.9-3.6-15.8-11.5-15.8-13.9C335,777.4,336.2,777.2,343.3,777.4z"/>
	<path id="path136" fill="#B22222" d="M469.8,794c0.6,0,8.6,6.3,9.4,7.4c0.4,0.6,0.3,1.7-0.2,2.5c-1.4,2.6-9.1,11.1-10.1,11.1
		c-1.1,0-1.1-4.8-0.2-14.3C469,797,469.5,794,469.8,794z"/>
	<path id="path138" fill="#B22222" d="M462.5,795.9l0.3,4c0.2,2.1-0.1,5.2-0.5,6.9l-0.8,2.9l-3.9-3.7l-3.8-3.7l4.3-3.2L462.5,795.9z
		"/>
	<path id="path140" d="M449.5,849c0.4,0.6-0.9,1-3.2,0.9c-3,0-3.4-0.2-1.8-0.9C447.2,847.8,448.8,847.8,449.5,849z"/>
</g>
</svg>
