<?xml version="1.0" encoding="utf-8"?>
<!-- Generator: Adobe Illustrator 21.0.0, SVG Export Plug-In . SVG Version: 6.00 Build 0)  -->
<svg version="1.1" baseProfile="tiny"
	 id="svg2" inkscape:version="0.91 r13725" sodipodi:docname="UNADJUSTEDNONRAW_thumb_9c8.svg" xmlns:cc="http://creativecommons.org/ns#" xmlns:dc="http://purl.org/dc/elements/1.1/" xmlns:inkscape="http://www.inkscape.org/namespaces/inkscape" xmlns:rdf="http://www.w3.org/1999/02/22-rdf-syntax-ns#" xmlns:sodipodi="http://sodipodi.sourceforge.net/DTD/sodipodi-0.dtd" xmlns:svg="http://www.w3.org/2000/svg"
	 xmlns="http://www.w3.org/2000/svg" xmlns:xlink="http://www.w3.org/1999/xlink" x="0px" y="0px" viewBox="0 0 850 850"
	 xml:space="preserve">
<sodipodi:namedview  bordercolor="#666666" borderopacity="1" gridtolerance="10" guidetolerance="10" id="namedview74" inkscape:current-layer="svg2" inkscape:cx="640" inkscape:cy="640" inkscape:pageopacity="0" inkscape:pageshadow="2" inkscape:window-height="817" inkscape:window-maximized="1" inkscape:window-width="1440" inkscape:window-x="0" inkscape:window-y="1" inkscape:zoom="0.46171875" objecttolerance="10" pagecolor="#ffffff" showgrid="false">
	</sodipodi:namedview>
<g id="g6" transform="translate(0.000000,0.000000) scale(1.00000,1.00000)">
	<path id="path8" fill="none" d="M0,0h152h152l-1.4,2.2c-4,6.2-5.9,8.5-7.2,8.5c-0.7,0-3.7-0.6-6.6-1.3c-3.7-1-7.3-1.2-12.3-0.9
		c-12.4,0.7-20.7,5.2-33.7,18.3c-9.2,9.3-13.4,15.3-17.5,24.7c-3.9,9-6.1,18.1-6.6,28.4c-0.3,5.8-0.9,9.4-1.7,10.1
		c-4.1,4.1-21.5,6.9-34.7,5.5c-15.3-1.6-24.9-5.4-34.8-13.8c-3-2.6-5.5-4.2-5.5-3.7c0,2.1,4.3,9,8.3,13.5
		c7.9,8.8,18.4,15.1,30.5,18.3l7.1,1.8l-5.3,3.7c-18.8,12.9-36.5,32.1-47,51.2c-5.1,9.2-8.8,21-8.8,27.7c0,5.2,1.4,9.9,3.2,10.5
		c0.5,0.2,2.3-3,4.2-7c4.5-10.2,10.2-18.6,18.1-26.6c8.5-8.6,10.5-9.1,7.1-1.7c-6.4,13.6-9.2,30-7.6,43.8c0.9,8,3.1,14.9,5,16
		c0.6,0.3,1.1-1,1.4-3.4c1.7-12.8,6-26.3,11.8-36.8c4-7.1,9.5-15.9,9.9-15.6c0.1,0.2-0.8,3.3-2.2,7.1c-3.6,10-5.1,18.6-5.4,29.7
		c-0.2,9.8-0.3,10-4.2,18.7c-6.6,14.7-11,20-19.8,23.6c-6.1,2.6-6.8,3.1-5.2,4c1.9,1,13.1-0.5,19.2-2.7c2.7-0.9,7.6-3.5,11-5.7
		l6.1-4.2l5.5,7.4c3.1,4.1,5.3,7.8,5,8.3c-0.7,1.1-24.6,1.1-29.1,0c-1.8-0.5-8-1.1-13.7-1.4c-12.6-0.6-20.5,0.7-32.7,5.6
		c-6.1,2.4-9.3,3.2-12.9,3.2c-14.4,0-30.2,5.1-45.7,14.9c-3.7,2.3-8.4,4.6-11.4,5.3c-12.1,3.1-23.7,10.1-36.1,21.9L0,317.3V158.6V0z
		"/>
	<path id="path10" fill="#003333" d="M309.8,0h27h27l-3.7,4.2c-13.4,15.6-16.6,21-17,29.4c-0.3,4.6-0.2,5,0.9,3.5
		c0.7-0.9,1.3-2.2,1.3-3.1c0-0.7,1.6-4.5,3.5-8.3c2.9-6,4.8-8.4,12.9-16.4l9.5-9.3h78.1h78.1l4.5,3.9c4.3,3.8,12.5,15.1,12.5,17.3
		c0,0.7-2.4,1.2-8.1,1.7c-15.4,1.1-30,5.3-34.3,10c-2.5,2.7-2,2.7,6.6-0.8c21.7-8.6,46.6-6.5,62,5.5c4.2,3.2,10.9,11.5,12.1,14.9
		c0.6,1.6,0.4,1.7-1.2,1.2c-9.4-2.7-12.7-3.2-19.3-3.2c-12.6,0.1-25,4.5-34.9,12.5c-4.7,3.8-10.4,10.4-10.4,12
		c0,1.8,2.6,0.3,8.7-5.1c3.7-3.2,9.1-7.1,12.2-8.7c14.6-7.7,31.8-8.1,45.4-1.3c7.1,3.6,18.3,13.2,24.6,21.1
		c10.4,12.9,15.9,24.2,21.1,42.7c1.8,6.6,3.5,11.3,4.1,11.2c1.5-0.3,4.7,13.3,7.7,33c1.6,10,1.9,15.7,1.9,32.8
		c0.1,20.2-1.2,37.8-2.9,37.8c-0.3,0-0.4-2-0.2-4.4c1-8.8-1.5-2.3-9.7,26c-4.6,15.7-8.5,28.6-8.6,28.8s-1.3-3-2.6-7
		c-4.4-14.3-9.1-23.4-16.6-32.2c-10.9-12.8-22-13.3-31.1-1.4c-6.3,8.2-14.4,16-15.4,14.9c-0.2-0.2,1.2-2.5,3-5.1
		c1.8-2.5,3.3-4.8,3.3-5.1c0-2.7-10,6.5-16.5,15.3c-2.6,3.4-6.9,9.9-9.5,14.4c-3.9,6.3-5.1,7.8-5.5,6.6c-0.3-0.8-0.8-6.6-1.1-12.8
		c-0.5-12.2-1.9-22.2-3.2-23.6c-0.6-0.6-0.7,10.9-0.3,33.6l0.5,34.4l-1.7-3.2c-1-1.7-3.9-8.9-6.6-15.9c-7.2-18.8-11.9-27.6-19.2-36
		c-1.7-2-9.3-13.4-16.9-25.6c-7.6-12-14.2-22.2-14.6-22.4c-2.3-1.4,0.2,4.9,6.8,17.8c4.2,7.9,7.3,14.7,7.1,14.9
		c-0.3,0.2-1.2-0.4-1.9-1.6c-5.4-7.6-19.8-24.4-28.5-33.1c-13.3-13.4-37.4-33.5-37.4-31.1c0,0.2,1.8,3,4.1,6.1
		c9,12.4,17.9,28.6,22.2,39.9l2,5.3l-4-3.3c-12.9-10.6-25.1-17.6-51.1-29.2c-23.2-10.3-23.8-10.5-23.8-9.1c0,1.7,8.1,11,14.4,16.5
		c3.5,2.9,6.1,5.5,6,5.6c-0.4,0.3-8.6-2-14.6-4.1c-10.7-3.9-23.6-13.9-26.9-21c-2.6-5.5-2.5-8.8,0.3-22.9
		c2.6-12.5,2.7-15.5,0.8-13.6c-1.2,1.2-5,11.8-6.3,18.1c-2,8.8-1.7,22.6,0.4,31.6c2,8.1,8,21.5,13.1,29.1c1.8,2.7,3.6,5.4,4,6.1
		c1.5,2.6-10.5-6.6-17.6-13.4c-12-11.6-19.3-23.5-23.8-38.6c-2.3-7.6-2.7-12.5-1.8-19.3l0.7-4.6l-3.3,3.2c-1.9,1.7-4.5,5.3-5.9,8
		c-9.3,17.4-5.6,40.9,9.5,59.2c2.5,3.1,4.6,5.7,4.6,6s-2.9-1.5-6.4-3.8c-8.1-5.4-17.4-14.8-20.4-20.4c-3-5.6-5.6-15.9-5.6-22.3
		c0-8.5,2.4-13.7,9.8-20.8c7.6-7.3,15.9-13.2,25.3-17.8c4-1.9,7.2-3.8,7.2-4.2c0-2.5-14.4,3.6-24.3,10.3c-6.7,4.6-17.1,14.6-21,20.3
		c-1.7,2.6-3.3,4.2-3.5,3.8c-0.3-1.2,3.7-11.6,6.6-16.8c3.8-6.9,10-14.9,15.4-20c5.8-5.6,16.9-13.9,22.7-17c2.3-1.2,4-2.4,3.8-2.7
		c-1.9-1.9-15.4,5.8-27.3,15.4c-12.3,10-22.8,26.9-27.1,43.5l-2.2,8.5l-5.2,0.6c-6.4,0.7-10.3,3.2-14.9,9.3
		c-4.8,6.3-6.5,11.5-7.6,22.9c-0.6,5.5-1.2,10-1.6,10c-0.2,0-1.3-2.2-2.2-4.8c-4.9-13.7-6.2-26-3.9-37.9c1.6-8.5,5.5-18.6,8-20.8
		c1.6-1.4,4.1-5.4,4.1-6.6c0-1.6-13.4,2.1-20.3,5.6c-7.7,4-14.8,12.7-22.3,27.7c-6.4,12.7-7.6,17.9-7.6,31.9
		c0.1,11.3,0.2,12.5,2.7,19.3c1.4,4.2,2.2,7.3,1.7,7.3c-1.5,0-9.5-9.1-13.9-15.8c-2.6-3.8-5-8.9-6.3-13.1c-1.9-6.1-2.1-7.8-1.7-16.2
		c0.5-11.4,2.7-19.8,7.7-30.4c6.4-13.4,15.1-23.6,28.1-33c3.7-2.6,9.5-6.1,12.9-7.7c5.9-2.8,6.8-3,17.8-3.6
		c6.4-0.2,13.9-1.2,16.6-1.8c11.6-3.1,24.5-11.8,24.5-16.4c0-1.2-1.2-4.6-2.7-7.8c-5.6-11.8-4-26.6,4.9-47.5c3-7,3.1-9.7,0.2-6
		c-3,3.9-9,17-10.8,23.7c-1.3,4.8-1.8,9.1-1.9,15.5c-0.1,5.6-0.4,8.9-0.9,8.7c-0.4-0.2-2.6-3.1-4.6-6.6
		c-10.5-17.3-11.9-37.4-4.1-56.9c4.9-12.1,10.1-18.9,17.4-22.7c2.6-1.3,3.3-2,2.3-2.2c-2.2-0.4-11.1,4.7-14.5,8.4
		c-3.2,3.6-8.8,14.9-11.9,23.8c-2.8,8.3-3.2,23.8-0.9,33.6c3.5,14.4,10.1,24.6,20.4,31c3,1.9,5.4,3.7,5.4,4.1c0,1.5-5.6,6.1-10,8
		c-10.1,4.6-18.8,6.6-31.1,6.9c-9.6,0.3-12.8,0.2-18.6-1.2c-5-1.2-7.6-1.4-9-0.9c-1.1,0.4-5.2,3.8-9.1,7.5s-9.2,7.7-11.7,9.1
		c-3.2,1.7-6.2,4.4-9.5,8.3c-12.5,14.9-18.5,25.6-24.8,43.9l-3.6,10.4l-0.2-4.6c-0.9-15.4,5.1-37.4,14.1-51.5c1.6-2.5,3.2-5,3.5-5.6
		c0.9-1.6-3.5,0.7-11.1,5.9c-8.4,5.7-19.7,16.8-25,24.5c-5.9,8.7-5.9,8.7-4,1.7c5.9-21.4,25.1-46.5,49-64.2c4.4-3.2,9.8-7,12-8.3
		l4.1-2.4l-6.4-1.1c-9.8-1.6-24.3-6.8-26-9.5c-0.7-1-1.4-1.1,8.4,0.4c9.7,1.5,22.6,1.6,28.7,0.3c2.4-0.5,8.1-2.4,12.6-4.3
		c7.1-2.9,8.3-3.7,9.3-6.1c0.7-1.6,1.2-3.3,1.2-4.1c0-1.2-0.2-1.2-2.1,0.1l-2.1,1.3v-3.2c0-9.2,4.6-25.8,9.7-35.2
		c6.6-12,19.3-26.1,28.1-30.9c10.6-5.7,25.9-7.3,33.4-3.3c1.9,1,3.9,1.8,4.3,1.8c0.4,0,1.8-1.6,3-3.6c1.2-1.9,3.7-5.5,5.5-7.9
		L309.8,0z M344.5,49.5c-10,1.7-12.9,2.5-18.4,4.6c-12.5,4.9-22.6,13.1-33.7,27.8c-5.3,6.9-6.1,8.3-3.9,7.5c1-0.3,1.2,0.3,1.2,3.2
		c0,2.1,0.4,3.7,0.8,3.7c0.5,0,0.8-0.7,0.8-1.7c0-0.9,0.4-3.4,1-5.6c1.4-5.6,6-9.7,16.4-14.9c17.4-8.5,30.9-11.1,49.4-9.5
		c13.4,1.2,14.6,0.7,5.7-2.6c-12.5-4.4-31.3-2.4-51,5.5l-5.4,2.1l3.2-2.8c1.8-1.5,6.1-4.3,9.8-6.2c15.9-8.2,37.3-9.7,47.8-3.2
		c2.2,1.4,2.7,1.5,2.7,0.4c0-1.7-4.7-5.1-9.1-6.7C358.2,49.7,348.1,48.8,344.5,49.5z M347,72.9c0.7,0.4,5.4,2.5,10.4,4.6
		c9.5,4,21.6,10.4,19.7,10.5c-0.6,0-7.5-1.7-15.3-3.8c-12.6-3.4-16.2-3.9-14.5-2.3c0.2,0.3,10.5,4.2,22.7,8.6
		c25.2,9.1,26.5,9.6,30.5,13.9c3.2,3.2,4.2,3.2,3.4-0.2c-1.8-7.1-24.8-21.9-44-28.2C351.1,73,344.7,71.6,347,72.9z M390.2,77.5
		c-1.4,0.7-2.6,1.5-2.6,1.7c0,0.1,2.3-0.2,5.2-0.9c8.7-1.9,22.4-2.2,31.3-0.7c21.7,3.6,43.7,14.9,55,28.5c2.2,2.6,3.8,4.8,3.7,5
		s-3.6-1.8-7.6-4.4c-15.2-9.5-30.9-16.2-41.4-17.3c-2.7-0.3-4.8-0.4-4.6-0.2c0.2,0.2,4.1,1.7,8.5,3.1c17,5.5,32.4,14.3,44.7,25.6
		c5.9,5.5,6.5,5.8,7.2,4.3c1.4-2.5,1.2-3.9-1.9-10.5c-2.2-4.6-4.2-7.5-8.5-11.5c-14.4-13.9-33.2-22.8-52.7-25.3
		C412.4,73,396.8,74.2,390.2,77.5z M491.1,176c-0.3,0,1,2.2,2.9,4.7c5.8,8.1,8.4,12.4,19.4,32.2c14.1,25.3,14.4,26.1,16.4,38.4
		c0.8,5.7,1.7,10.6,1.9,10.8s0.6-1.5,0.9-3.7c1.2-8.1-1.7-32.6-5.6-47.9c-1.7-6.7-5.5-16.1-6.1-15.4c-0.3,0.3,3.2,19.5,5,27
		c1,4.3-1.4,1.1-10.4-13.7c-12.5-20.4-17-27.1-20.8-30C493,177.1,491.3,176,491.1,176z"/>
	<path id="path12" fill="none" d="M692.2,0H850v214.2v214.2l-1.8-0.3c-1.8-0.4-27-4.3-70.4-10.9c-31.7-4.9-54.3-9.6-78.7-16.6
		c-17.8-5.1-22.8-7.6-38.9-19.8c-13.2-10-17.8-14.1-21.5-19.1c-2.1-2.7-4.4-5.5-5.2-5.9c-0.7-0.5-5.1-1-9.6-1.2l-8.3-0.4l-0.2-5
		c-0.5-8.5,1.3-23.2,3.6-29.4c1.2-3.2,3.7-12.9,5.7-21.7c7.6-33.3,8.1-34.8,11-38.4c1.5-1.9,3.5-4.9,4.4-6.8
		c2.2-4.5,5.5-18,6.7-27.7c1.2-9.5,1.2-46.9-0.1-54.1c-1-5.5-12.9-48.8-16.3-59.2c-6.1-18.9-18.8-36.5-34.5-48.1
		c-4.6-3.3-5.9-4.8-7-7.9C583,39.5,572.8,30,555.6,25c-3.3-1-6.1-2.2-6.1-2.8c0-2.5-4.3-9.8-8.4-14.3c-2.5-2.7-5-5.6-5.6-6.5
		C534.4,0.1,542,0,692.2,0z"/>
	<path id="path14" fill="#336600" d="M217.6,136.3c0.6,0.2,3.1,1.2,5.5,2c2.3,0.8,4.3,1.7,4.3,2.1c0,0.2-1.8,1.3-4.2,2.3
		c-8.1,3.7-17.1,10.3-26.1,19.3c-8.1,8.1-8.7,8.6-6.6,5.1c4.2-7.2,11.3-16.4,18.7-23.8C213.5,139,217,136,217.6,136.3z"/>
	<path id="path16" fill="#336600" d="M237,174.3c0.7,0,0.4,1.5-1.2,4.7c-4.6,9.4-7.5,21.2-7.5,31.5c0,11.5,4.5,27.6,10.9,39
		c3.3,5.8,3.2,7.9-1,12.4c-1.9,2.1-3.7,3.7-4.2,3.7c-1.2,0-10.8-9.3-14.4-14c-9.9-12.9-14.1-28.6-12.1-45c1.7-13.9,7.4-21.8,21-28.6
		C232.6,176,236.4,174.3,237,174.3z"/>
	<path id="path18" fill="#FFCC99" d="M306.6,173.9l0.7,5.2c2.7,23.9,18.4,47.8,41.5,63.3c3.9,2.7,9.2,5.6,11.8,6.6
		c4.5,1.7,9.6,2.3,9.6,1.2c0-0.2-3.3-4.5-7.3-9.4c-11.8-14.1-17.6-23.7-20.4-33.5c-2.5-8.7-2.1-9,4.9-2.5
		c6.8,6.3,15.5,11.4,24.9,14.3c7.4,2.2,24.5,3.4,24.5,1.6c0-0.7-4.4-4.5-9.8-8.5c-10.5-8-10.2-8.1,3.4-2.1
		c17.4,7.7,34.4,18.1,48.9,29.9l8,6.6l0.6-2.5c1.2-5.3-5.1-21.5-13.3-34.2c-2.2-3.3-4.6-7-5.2-8.1c-1.8-3,22,20.7,29.1,28.9
		c9.5,11.1,17.7,22.4,21.8,30.5c5.1,10,7.6,13.2,9,12c0.7-0.6,1.2-2.7,1.4-4.7l0.2-3.7l7.4,9.9c9.3,12.5,13.9,22,21.2,43.8
		c7.5,22.7,7.4,22.5,8.6,21.2c0.7-0.7,1.1-6.9,1.4-19.5l0.5-18.5l6.6-11.1c8.5-14.4,8.6-14.6,15.6-19.3l6-3.9l0.4,2.7l0.4,2.7
		l2.3-3.3c1.3-1.8,4.9-7.1,8-11.6c6.6-9.7,10.9-13.3,16.1-13.3c11.1,0.1,26.4,22.8,30.8,46.1c3.8,19.9-1.7,34.6-16.4,43.8
		c-4.8,3-23.1,11.8-24.6,11.8c-1.3,0-4.2,3.9-5.5,7.4c-2.7,8-6.4,11.2-9.3,8.3c-0.7-0.7-1.2,1.2-2.2,6.6c-1.1,6.1-1.2,10.4-0.8,23.1
		c0.6,17.3-0.3,25.4-4.2,36.9c-5.6,16.6-13.2,27.4-34.4,49.2c-8,8.3-24.8,25.8-37.4,39.1c-41.6,43.9-48.7,49.9-60.8,50.8
		c-5.4,0.4-25.9-1.7-31.8-3.2c-7.6-2-14-7.6-17.4-15.3c-4.7-10.5-17.8-40.9-17.8-41.3c0-0.2,3.8-0.5,8.5-0.7c7.6-0.2,9-0.6,14.7-3.2
		c10.6-5.1,21.7-15.3,40.1-36.8c2.6-3.1,4.7-6,4.7-6.4c0-1.5-4.2-0.7-14.2,2.9c-11.5,4.1-18.6,5.6-34,7.6c-8.3,1.1-11,1.7-13.4,3.4
		c-1.6,1.1-3.3,2-3.8,2c-0.6,0-4-1.2-7.7-2.7l-6.7-2.6l-3.3,3.2l-3.4,3.2l-9.8-10.4c-6.6-6.9-9.5-10.6-9-11.2
		c0.5-0.5,4.4-0.8,8.7-0.8c8.6,0,9.4-0.6,5.7-4.2c-2.4-2.5-4.1-2.6-15.4-0.4c-11.9,2.2-16.2,2.2-17.6-0.2
		c-1.5-2.6-1.8-36.8-0.6-59.1c0.5-9.6,1-21,1-25.3l0.1-7.9l-7.6-16c-8.9-18.7-16.3-32.4-21.1-39c-1.8-2.6-7.5-8.8-12.5-13.7
		c-7.9-7.7-9-9-7.8-10c1.2-0.8,0.6-1.6-4.4-5.1c-3.2-2.3-5.6-4.5-5.6-4.9c0.2-0.5,2-2.2,4.1-4.1l3.8-3.2l4.5,4.5
		c4.5,4.6,9.1,7.6,10.8,7.1c0.4-0.2-1.7-3.3-4.6-7.1c-3-3.7-5.8-7.7-6.3-8.9c-0.8-2.2,1.3-11.2,4.6-18.3c2.2-4.9,8.7-13.8,11.5-15.6
		l1.9-1.3l1.3,6.6c1.4,7.2,7.3,21.4,9.8,23.7c2.1,1.8,2,1.7-0.8-9.7c-4.8-18.8-5.1-33.7-1.2-46.5l1.4-4.5l0.6,7.1
		c2.1,24.7,19.8,42.3,53.5,53c7.3,2.4,10.2,2.7,9.2,1c-0.2-0.3-4.6-3.5-9.9-7c-13.3-8.9-23.2-19.9-28-30.9
		c-5.5-12.8-5.6-28.9-0.2-39L306.6,173.9z M422.3,257.4c-7.1,0.1-41.1,5-48.4,7c-5.6,1.5-13.6,5.6-35.4,18
		c-12.1,6.9-16.4,9.8-21.9,15c-7.7,7.2-9.5,10.3-9.5,16.2c0,6.1,1.4,6.8,6.1,2.8c4.5-3.9,25.2-17.3,39-25.2
		c14.6-8.4,42.3-22.9,46.4-24.4c2-0.7,9-2.2,15.6-3.3c17.5-3,17.4-3,17.4-3.7c0-0.4-0.7-1.1-1.6-1.6
		C429.1,257.7,425.7,257.3,422.3,257.4z M585.9,260.6c-5.3,0.2-19.3,13.4-24.2,22.9c-1.7,3.3-3.1,6.4-3.1,6.9c0,0.5,1.2,1.4,2.8,2.1
		c2.7,1.1,8,7.1,8,9c0,1.6,2.7,6.5,3.5,6.5c0.6,0,0.7-1.5,0.5-3.7c-0.6-4.6-4.5-10.4-8.5-12.5c-1.7-0.9-3-1.9-3-2.3
		c0-1.2,6.6-10.5,7.5-10.5c2.5,0,16.9,5.4,18.8,7c2.1,1.7,2.2,2.5,2.2,7.7c0,9.1-4.3,14.5-12.6,15.6c-5.6,0.8-6.8,1.2-6.8,2.5
		c0,1.5,4.9,2.4,8.7,1.7c3.7-0.7,9.4-5.1,11.3-8.8c1.2-2.2,1.6-4.6,1.6-10.9c0-10.7-0.5-11.3-12.6-15.4l-9.2-3.1l3.2-2.7
		c1.7-1.6,5.1-4.2,7.6-5.8c3.9-2.7,4.6-3,6.6-2.1c6.1,2.6,12.2,15.9,12.2,26.6c0,7.8-1.9,12.4-8.1,18.9c-11,11.8-12.6,15.3-4.5,10.2
		c14.4-9.2,20.5-27,14.5-42.9c-2.3-6.5-7.6-13.2-11.7-15.2C588.8,261.4,586.6,260.6,585.9,260.6z M441.4,297.2
		c-0.2,0-8.3,3.8-18.1,8.4c-9.8,4.6-19.7,9.1-22,10c-4.2,1.7-24.1,3.9-35.4,4c-4.4,0-6.5,0.5-9.9,2.2c-4.2,2.2-10,8.1-9,9
		c0.3,0.2,1.9,0.1,3.7-0.5c6.1-1.7,39.7-6.6,45.5-6.6c3.2,0,9,0.6,12.9,1.2c12.9,2.2,15.8,1.2,5.4-2.1c-3.4-1.1-6.2-2.2-6.2-2.6
		s2.3-0.8,5.2-1.1c2.8-0.2,9.6-0.8,15-1.3c5.4-0.5,10.2-1.1,10.6-1.3c1.9-1.2-1-2-7.9-2.1h-7.6l7.9-3.9l7.9-3.8l-4.1-0.4l-4.1-0.5
		l5.1-3.6c2.8-2,5.1-3.9,5.1-4.4C441.6,297.5,441.5,297.2,441.4,297.2z M415.5,302.3h-5.4c-9.1,0-28.1,3.1-34,5.6
		c-1.7,0.7-1.3,0.8,2.1,0.5c12-1.2,25.6-3.2,31.1-4.5L415.5,302.3z M361.9,313.9c-2.2,1.9-3.2,3.2-2.4,3.2c0.7,0,2.5-1.3,4.1-2.9
		C367.5,310.2,366.4,309.9,361.9,313.9z M565.8,314.6c-0.2,0-1.2,0.7-2.3,1.7c-4.4,3.4-6.2,11-3.3,13.5c2.2,2.1,3.8,1.8,3.2-0.5
		c-1.6-5.4-1.5-6.4,0.7-10.5C565.1,316.5,566,314.6,565.8,314.6z M315.8,323.7c1.5,2.8,6.1,5.8,9,5.8c3.7,0,3.2-1.3-1.7-4.7
		C314.4,318.7,313.2,318.6,315.8,323.7z M347.1,439.9c-5.3,0-11,2.2-14.5,5.6c-2.1,2-2.2,2.2-0.8,2.8c2.9,1.2,5.2,0.7,5.2-0.9
		c0-2.1,5.2-4.2,9.4-3.6c3.2,0.3,6.9-1.7,5.9-3.2C352,440.3,349.7,439.9,347.1,439.9z"/>
	<path id="path20" fill="#003366" d="M390.9,264.9c1.2-0.2-1.9,1.4-15.7,8.4c-18.3,9.4-34.7,19.3-51.7,31.5
		c-12,8.5-12.6,8.9-12.9,6.9c-0.5-3.6,2.4-8,7.3-11.3c8.5-5.6,42.3-26.3,46.2-28.4c4.9-2.5,11-4.2,19.8-5.8
		C387.6,265.5,390.7,264.9,390.9,264.9z"/>
	<path id="path22" fill="#336600" d="M267.7,199.6c0.5,0.1,0.9,1.4,1.1,2.8c0.2,2.2-0.6,3.4-7.5,10.3c-6.1,6-8.5,9.2-11.3,14.5
		c-4,7.6-5.1,8.9-5.1,5.5c0.1-13.9,6.8-26.4,17-31C264.6,200.4,267.3,199.4,267.7,199.6z"/>
	<path id="path24" fill="#336600" d="M268.2,210.8c0.4,0,0.7,1.9,0.7,4.2c0,3.3-0.3,4.5-1.8,5.6c-6.5,4.9-11.5,11.2-15.1,18.5
		c-3.2,6.7-3.7,7.4-3.8,5.1c0-6.6,7-20.2,14.7-28.6C265.4,213.1,267.8,210.8,268.2,210.8z"/>
	<path id="path26" fill="#336600" d="M203.7,224c1,10.5,5,20.7,12.5,31.6l4.7,6.9l-6.5-5.2c-3.5-2.9-8.1-7-10.3-9
		c-3.6-3.4-4-4.2-4.5-8.6c-0.7-5.5-0.2-13.3,1.3-19.2C202.1,215.7,203,216.6,203.7,224z"/>
	<path id="path28" fill="#336600" d="M173.7,227l1.5,4.6c2.3,7.1,2.1,9.4-1.3,12.4c-3,2.6-12.8,8-13.4,7.3c-0.2-0.2,1.4-2.9,3.5-6.1
		c2.2-3.2,5.2-8.5,6.8-12L173.7,227z"/>
	<path id="path30" d="M207.5,256.9c2.5,2.6,2.6,2.9,1.2,2.9c-1.8,0-3.9-1.9-4.7-4.4C203.1,253.2,204.4,253.8,207.5,256.9z"/>
	<path id="path32" fill="#CCCCFF" d="M152.3,263.2c1.8,0.5,12.9,1.2,24.5,1.4c20.8,0.6,21.2,0.7,26.1,2.9c7.1,3.3,10.9,2.8,8.8-1.2
		c-0.9-1.6-0.8-1.7,1-1.2c4.5,1.4,15.7,6.3,19.8,8.7c12.9,7.6,24.2,18,33,30.5c5.3,7.5,23.9,43.3,26.7,51.6c1.7,4.8,2,13,1,27.6
		c-0.3,6.2-0.7,7.9-1.6,7.6c-0.7-0.2-1.5,0.5-2.1,1.9c-1.2,3.2-4,6.1-5.9,6.1c-0.9,0-3.5-0.8-5.7-1.7c-6.2-2.7-7-0.9-1.2,2.9
		c4.4,2.9,6.3,5.9,5.1,7.8c-0.3,0.5-3.3,0.1-7.6-1.1c-3.8-1.1-9.1-2.2-11.8-2.6c-2.6-0.3-6.5-1.4-8.6-2.5c-4.5-2.3-9-2.5-14-0.7
		c-5,1.7-7.1,1.6-13.7-1.2c-6.7-2.9-9.5-3.1-12.1-0.8l-2,1.6l3.7,0.1c2.4,0,5,0.7,7.9,2.4c6.1,3.5,9.2,3.9,15,1.8
		c6.6-2.3,9.3-2.2,14,0.8c3.5,2.2,4.3,2.4,6.2,1.6c1.8-0.7,4-0.2,14.2,3.4c19.8,7,19.1,6.3,19.1,18.8c0.1,9.4,1.2,18.9,2.6,22
		c1.6,3.5,4.7,5.1,10.6,5.2l5.2,0.2l6.1,6.1c7.1,7.1,10.5,12.9,12.8,22.4c2.2,9,3,24.2,1.7,33.2c-1.5,10-1.7,11-3,9.9
		c-0.8-0.7-1.5,0.3-2.9,4.7c-3.7,11.4-10.4,22.4-18.7,30.6c-6.1,6.1-12.1,9.1-20.4,10.7c-4.4,0.7-8.6,2.4-14.9,5.6
		c-15.7,8.2-32.3,13.9-40.9,13.9c-4.2,0-9-1.7-11.5-3.9c-2.2-2.1-2.7-0.7-0.7,2.2c1,1.3,3.5,3.2,5.6,4.3c3.2,1.5,4.7,1.7,9.5,1.3
		c11.9-1,19.2-3.8,46.1-17.9c2.8-1.5,5.2-2.1,7.8-2c2.4,0.1,5.8-0.7,9.8-2.3c3.3-1.3,6.3-2.4,6.5-2.4c0.2,0,0.4,3.1,0.4,6.8
		c0,10.4,3.3,16.4,11.4,20.5c1,0.5,6.6,1.6,12.5,2.2c16.3,2.1,23.5,5.5,30.5,14.3c5.1,6.4,6.5,9.5,5.5,12c-0.8,2.1-4.6,3.9-8.1,3.9
		c-1.4,0-2.4,0.8-3.4,2.7c-2.2,4.2-9,10.5-13.7,12.8c-4.2,1.9-8.6,3-16.8,4.1c-4.2,0.6-4.2,0.6-2.3,2.1c1.4,1.2,1.7,1.7,0.8,2.3
		c-1.7,1.4-8.8,3.5-11.7,3.5c-2.5,0-3.1-0.5-5.1-3.9l-2.2-3.9l-1.5,1.9c-0.9,1.1-1.6,2.7-1.6,3.5c0,3.5-9.7,6.9-23.7,8.2
		c-24.2,2.4-50.5-2.9-74.5-15c-5.1-2.6-6.5-2.9-6.5-1.7s11.8,8.2,19,11.3c17,7.2,29.1,9.6,49.9,10.1c18.2,0.4,23.3-0.2,32.8-4.7
		c4.7-2.2,6.2-2.5,13.1-2.5c9.1,0,12.3-0.9,16.5-4.6c1.7-1.6,4.2-3,5.4-3.3c9.7-2.1,16.8-6.4,22.1-13.3c2.1-2.7,4.3-4.7,5.6-5
		c2.9-0.6,8.3-3.2,11.1-5.5l2.3-1.9l4.9,5.4c11,12,24.7,27.8,29.1,33.9c6.7,8.9,15.1,26,17.8,36.3c1.8,6.9,2.1,9.2,1.6,14
		c-0.6,5.7-0.5,5.9,2,8c3,2.5,11.2,16.5,19.7,33.4c9.5,18.8,15,33.2,19.8,50.7c2.2,8.5,8.1,37.2,7.6,37.7
		c-0.1,0.2-10.5,0.2-22.9,0.1l-22.6-0.2l9.6-10.6c5.3-5.9,9.6-11,9.6-11.4c0-2.4-2.7-0.7-11.1,7.1c-5.2,4.8-10.5,10.3-11.7,12.1
		l-2.3,3.2h-43.2h-43.2l3.1-3.6c12.6-14.6,20.3-25.2,27.3-37.6c9.6-17.1,18.8-41.7,21.7-58.8c1.3-7.9,1.7-24.6,0.5-23.3
		c-0.3,0.5-1.2,4.7-1.7,9.5c-2.7,24.7-14.4,55.7-29.8,78.6c-3.7,5.4-11.4,15.6-17.2,22.6L329.3,850h-80.1H169l5.4-3.7
		c2.9-2.1,7.6-5.3,10.5-7.2c5.6-3.6,5.1-3.6,10.2-0.8c0.3,0.1,0.8-1.2,1.2-2.9c0.9-5.2,3.3-8.7,10.1-15.2c13.6-13,27.1-22.8,44.1-32
		c5.1-2.7,9.3-5.2,9.3-5.6c0.1-3.7-23.7,7.9-40.5,19.9c-14.2,10.1-25.6,22.2-27.2,28.7c-0.2,1.3-1.2,2.6-1.9,2.8
		c-7.2,2.5-15,6.4-21.6,10.8l-7.8,5.2h-57.1H46.6l3.8-6.6c4.6-8.1,4.4-9.6-1.3-13.1c-6.4-4-8.3-7.1-9.6-16.1
		c-0.7-4.3-1.2-13.9-1.2-22.1v-14.3h3.7c2.1,0,3.7-0.2,3.7-0.7c0-0.3-1.5-2.6-3.3-5.1c-1.8-2.4-3.7-5.9-4.2-7.8
		c-2-7.3,0.7-48.2,4.2-63.3l1.6-6.6l1.3,3.2c4.9,11.2,22.3,60.6,38.3,108.5c10.4,31,13,36.9,9.5,20.7
		c-5.9-26.6-16.1-58.2-33.9-104.6c-9.3-24.2-12-35.6-13.4-57.5c-1.2-17.8-1.2-17.1,1.1-17.1c1,0,6.7,1.3,12.6,3
		c13.4,3.7,28.6,4.7,38,2.5c3.2-0.7,6.7-1.3,8.1-1.3c1.3,0,6.4,2,11.4,4.5c16.4,8.3,28.5,11.3,45.1,11.3c10.7,0,17.9-1.1,19.8-2.9
		c2.4-2.4,1.7-2.5-13.4-1.6c-11.1,0.7-21.9-0.5-33-3.4c-11.4-3.1-22.5-7.6-25.4-10.5l-2.7-2.6l-6.9,1.5c-8.7,1.8-27.3,2.1-34,0.4
		c-2.5-0.6-7.7-2.7-11.6-4.5c-3.9-1.9-7.7-3.3-8.6-3.2c-2.2,0.2-9.1-5.1-12-9.5c-9.2-13.9-9.7-33.3-1.3-52.2
		c1.8-4.2,2.2-4.6,3.9-4.1c3,1,9.8,1.5,9.8,0.7c0-0.3-3-2.5-6.6-4.6c-6.8-4.1-8.7-6.2-8-8.7c0.7-1.9,7.8-6.2,14.7-8.9
		c10.6-4.2,17.2-10.9,21.2-21.7l2.2-6l3.8,7.2c2.1,4,6.6,11.5,10,16.8s7.4,11.5,8.7,14c3.7,7.1,8.1,11.4,14.3,14.3
		c3.1,1.4,6.3,3,7.2,3.5c8.3,4.6,8.9,4.8,15.5,4.2c5.1-0.4,7.4-0.2,12,1.2c8.3,2.5,12.7,2.9,18.2,1.8c5.6-1.2,11.1-3.9,11.1-5.6
		c0-0.8-0.7-1-3.1-0.7c-22,3.2-27.6,2.6-35.1-4.2c-3.8-3.3-7.2-9.7-9.6-17.8c-1.3-4.5-2.8-6.5-2.8-3.8c0,3.1,3.5,14.3,6,18.9
		c1.5,2.9,2.8,5.6,3,5.8c0.4,0.9-7.1-0.7-9.6-2.1c-2.9-1.5-8.1-7.1-11.4-12.3c-2.7-4.4-4.2-5.1-3.4-1.8c0.3,1.2,0.8,3.3,1.1,4.7
		c0.5,2.4,0.4,2.5-1.2,1.3c-3.1-2.2-7.9-8.5-10.3-13.5c-2.2-4.6-3.1-7.8-4.5-16.5c-0.2-1.7-0.8-3.1-1.2-3.1c-0.5,0-0.8,1.4-0.9,3.1
		c-0.1,6.8-0.9,6.7-5.9-0.7c-7.6-11.4-10.3-17.9-11.1-27.1c-0.4-4.3-0.2-6.7,1.3-11.6c2.3-7.6,2-16-1.1-24.9
		c-3.2-9.2-6.9-14.7-15.4-23.2l-7.9-7.7l0.9-7.2c1.3-10,4.6-18.4,8.8-22.7l3.4-3.3l-1-3.7c-2.1-7.8-1.1-12.6,4.2-20.7
		c5.1-7.7,6.2-8.7,9.9-8.7c2.5,0,3.9-0.7,6.6-3.2c5.1-4.4,6-5.6,10.8-13.4c2.3-3.8,5.1-7.6,6.1-8.5c1.7-1.5,1.9-2.5,2.4-17.5
		c0.2-8.8,0.7-18.4,1.1-21.6c0.2-3.5,0.2-5.6-0.3-5.6c-1.3,0-4.4,16.1-5.1,27.4c-0.8,11.8-2.5,17.4-7.1,24.3
		c-4.4,6.6-11.5,13-14.4,13c-1.7,0-3.7,1.5-9,6.8c-9.7,10-12.3,16.6-10.4,26.7l1,5.2l-2.8,3.7c-1.8,2.3-4,7.1-5.7,12.4
		c-2.3,7.2-2.8,9.8-2.7,15.8c0,5.5,0.4,7.7,1.5,9.5c1.2,1.8,1.7,2.1,2.2,1.2c0.4-0.7,0.7-2.1,0.7-3.2c0.1-1.9,0.3-1.7,3.8,2.1
		c12.5,13.9,18.8,30.5,16.1,42.9c-0.6,2.9-1.3,9.9-1.7,15.6c-0.7,10.8-1.5,14.7-4.4,20.3c-4,8-10.5,13.3-19.3,15.9
		c-2.7,0.7-5.6,2.2-6.4,3.1c-0.8,0.8-4.2,2.5-7.5,3.7c-5.1,1.7-7.6,2.2-15.6,2.2c-5.2,0-10.5-0.2-11.8-0.6L0,557V440.3V323.6
		l2.8-3.9c4.5-6.1,13.7-14.5,20.9-19.1c6.1-3.9,21.8-10.9,24.7-10.9c0.7,0,3.4-1.5,6.1-3.2c7.8-5,11.7-7.1,18.9-9.9
		c6.4-2.4,25-6.6,25.8-5.7c0.2,0.2-2.7,2.4-6.6,4.8c-6.9,4.3-8.4,5.7-6,5.7c0.6,0,8.4-3.6,17.3-7.9c9-4.3,19-8.6,22.3-9.5
		C133.1,262.2,146.8,261.8,152.3,263.2z M161.4,367.3c-5.6,3.5-11.5,10.4-9,10.4c0.2,0,2.2-1.6,4.3-3.4c3.8-3.4,12.7-8.2,15-8.2
		c0.7,0-1,1.3-3.7,2.9c-5.1,3.1-11.2,9-13.3,13.1c-2.2,4.2-2.3,10.5-0.4,13.6c1.5,2.4,5.3,4.4,6.4,3.3c0.2-0.2-0.3-1.7-1.2-3.2
		c-3.5-5.6-1.5-11.2,6-16.6c4.4-3.2,5.1-3.1,3.4,0.7c-2.9,6.9-1.2,16.1,4,20.7c6,5.6,16.9,7.6,26,5c8.8-2.6,16.2-12.3,16.2-21.4
		c0-3.2,0.9-2.9,3.1,0.8l1.8,3.1v-2.9c0-10-8.6-18.9-21.5-22.2C183.9,359,172.2,360.4,161.4,367.3z M224.5,372.7
		c-3.1,0,1.2,4.5,8.3,8.9c8.1,4.9,11.7,5.6,16.4,3l2.7-1.4l-5.1-0.6c-5.4-0.7-9-2.2-16.5-7.1C227.9,374,225.3,372.7,224.5,372.7z
		 M80.4,383.4c-0.7-2.2-8,11-11.9,21.7c-2.5,7.1-8.8,32.3-8.9,35.9c-0.1,2.4,0.6,3.8,1.5,2.9c1-0.9,19.4-49.1,19.2-49.9
		c-0.2-0.4-1.5,1.3-3,4c-1.5,2.6-2.9,4.6-3.2,4.4c-0.2-0.2,1.2-4.4,3.1-9.2S80.5,383.9,80.4,383.4z M239.8,423.2
		c-9.6,6.1-13.6,15.3-11.5,26.4c1.8,9.8,10,19,20.7,23.2l3.5,1.4l-1.9,2c-2.8,3.1-5.4,4.2-12.5,5.2c-7.8,1.2-15.1,0.5-24.6-2.2
		c-3.8-1.1-7.1-1.7-7.4-1.5c-1.2,1.1,4,4.7,8.9,6.3c7.6,2.4,17.8,2.9,27.1,1.2c7.1-1.2,7.6-1.2,10.4,0.2c1.6,0.8,5.1,2.7,7.9,4.1
		c9.7,5,23.7,6.8,23.7,3.1c0-0.6-2.1-1.4-5.1-2c-9.8-1.9-26.5-8.1-26.4-9.9c0.1-1.1,4.6-5.9,5.8-6.1c0.7-0.2,3.2,0.2,5.6,0.8
		c5.5,1.3,9.9,0.7,14.7-2.4c7.6-4.9,12.4-14.5,12.5-25.3c0-5.2-0.3-7.4-1.8-10c-2.1-4.1-6.2-7.8-8.7-7.9c-1-0.1-4.1-0.2-6.8-0.2
		c-4.2-0.1-6.3-0.7-13.7-4.5C249.2,419.9,245.5,419.6,239.8,423.2z M196.7,596c-5.8,1-10.8,2.5-10.8,3.2c0,1.2,7.5,1.7,13.9,0.8
		c6.6-0.9,12.7-2.9,12.7-4.2C212.5,595,202,595.1,196.7,596z M207.9,601.6c-2.5,2-5,5.1-4.5,5.6c0.3,0.2,15.9-8.7,17-9.8
		C222.7,595.2,211.2,599.1,207.9,601.6z M106.1,728.8c-1.4-0.1-0.5,2.6,3.1,9.6c4.7,9.5,10.1,16.5,18.9,25
		c9.7,9.3,14.7,12.5,21.8,13.9c4.3,0.8,7.6,2.2,13.5,5.7c11,6.7,19,9.1,29.6,9.1c7.4,0,9-0.2,14.9-2.7c3.7-1.4,8.7-4.2,11.3-6.1
		c2.6-1.9,9.5-7.1,15.3-11.5c11.1-8.5,13.7-9.5,18-7.2c2,1.1,2.6,0.7,2.6-2.2c0-2.7-1.4-3.7-5.6-3.7c-5,0-8.5,2.1-24.1,13.7
		c-7.7,5.8-16,11.5-18.3,12.5c-8.9,4.2-18.7,4.5-29,1c-8.5-2.9-16.6-7-20-10c-2.6-2.3-4.1-3-7.6-3.3c-5.9-0.6-11.5-4.4-22.6-15.6
		c-6.1-6.2-10.5-11.6-14.9-18.5C109.5,733.2,106.4,728.9,106.1,728.8z"/>
	<path id="path34" fill="#0000CC" d="M192,371.1c0.4,0,0.4,0.7,0,1.7c-0.7,1.9-0.7,8.1-0.2,11c0.2,1.2-1.2,2.2-8.4,5.1
		c-12.1,5.1-11.3,4.9-12.4,1.9c-1.8-5.3,1.3-13.9,6.3-16.8c1.5-0.8,5.2-1.8,8.3-2.2C188.8,371.5,191.7,371.2,192,371.1z"/>
	<path id="path36" fill="#0000CC" d="M205.7,374.9c3.1,3.2,3.4,5.7,0.8,8.4c-4.1,4.3-12.3,1-12.3-4.9c0.1-3,1.2-4.8,3.7-6.3
		C200.3,370.7,202.5,371.5,205.7,374.9z"/>
	<path id="path38" fill="#0000CC" d="M207.7,393c-0.3,2.6-6.4,7.6-10.5,8.7c-5.6,1.6-13.6,0.7-18.3-2.1c-2.1-1.2-3.7-2.7-3.5-3.2
		c0.4-1.4,7.5-4.8,12.5-6.1C197.1,388.2,208.2,389.7,207.7,393z"/>
	<path id="path40" fill="#FFCCCC" d="M262.9,430.8c4,2.4,5.5,2.8,8.5,2.7c7.8-0.6,9.1-0.4,10.9,1.2c3,2.7,4.3,6.1,4.3,11.5
		c0,13.7-7.3,24.3-17.2,25.2c-5.4,0.4-14.5-1.6-21.7-4.8c-15.1-6.8-20.4-25.1-10.5-36.6c1.7-1.9,4.2-4,5.5-4.6
		C248.2,422.9,251.3,423.8,262.9,430.8z M245,437.1c2.8,3.4,11.1,4.7,13.4,2.2c1.9-2.1,1.7-6.2-0.2-8
		C253.1,426.7,240.7,432,245,437.1z M266.5,442.4c-3.7,0-4.1,0.3-1.7,1.7c1.8,1,5,0.4,5-0.9C269.8,442.8,268.3,442.4,266.5,442.4z"
		/>
	<path id="path42" fill="#FF9999" d="M254.9,433.1c2.6,2.2,1.7,4.3-1.9,4.3c-1.5,0-3.5-0.7-4.4-1.3c-1.7-1.2-1.7-1.2,0.3-2.9
		C251.3,431.2,252.5,431.2,254.9,433.1z"/>
	<path id="path44" fill="#003300" d="M610.8,333.7c0.2,0,0.2,5,0.1,11c-0.2,12.4-0.4,11.9,7.7,25.4c2.3,3.8,4,7.1,3.7,7.4
		c-0.8,0.7-8.5-3.9-14.9-9c-3.3-2.7-6.1-4.5-6.3-4.1c-0.2,0.3,0.3,2.8,1,5.5c0.7,2.7,1.2,5,1,5.1c-0.4,0.5-10.4-5.5-15-9
		c-5.3-3.9-13.4-12.1-12.6-12.9c0.3-0.3,8.3-4.8,17.8-10C602.8,337.9,610.6,333.7,610.8,333.7z"/>
	<path id="path46" fill="#FFCC99" d="M573.5,357.8c0.2,0,2.7,2.6,5.8,5.6c8.5,8.7,23.1,18.7,29.6,20.1c3.6,0.8,4.1,0.2,2.4-3.2
		c-0.7-1.5-1.2-2.8-0.9-3.1c0.2-0.2,2.9,1.1,6.1,2.9c3.2,1.7,7.7,3.8,10.1,4.6c6,1.9,10.9,6.9,18.7,19.3
		c36.8,58.3,61,120.3,72,184.1c2.7,15.4,8.3,58.2,8.3,62.7v2.7l-19-0.5c-17.2-0.5-19.5-0.4-24,1c-9,2.7-18.3,8.8-16.5,10.5
		c0.2,0.3,5.5-1.2,11.5-3.3l11.1-3.8h18.8h18.7l0.6,4.3c0.3,2.4,0.7,18.8,1,36.3c0.2,23.7,0.6,32.1,1.3,32.5
		c0.6,0.3,4.5,1.3,8.7,2.1c5.5,1.1,8.1,2,9.2,3.2c2.5,2.9,11.2,26,10.6,28.2c-0.6,2.3-33.6,55.4-36.6,58.9c-1.9,2.2-2.5,2.3-6,1.9
		c-11.5-1.2-44.2-24.3-60.6-42.7c-8.6-9.5-14-16.8-29.7-39.6c-7.2-10.5-16.4-23.6-20.4-29.1c-3.9-5.5-8.3-12-9.7-14.5
		s-9.3-19.7-17.4-38.2c-8.1-18.5-20.4-46.1-27.1-61.3c-6.7-15.2-12-27.8-11.8-28.1s3.9,0.5,8.1,1.7c12.6,3.6,11.1,1.3-3.7-5.8
		c-5-2.4-10.8-5.9-12.9-7.7c-3.8-3.4-8.8-9.9-8.1-10.5c0.2-0.2,4.2,0.9,8.8,2.4c4.6,1.6,8.6,2.6,8.9,2.2c0.7-1.1-13.5-7.8-22.7-10.7
		c-9.3-3-24.6-6.2-36.4-7.6c-4.7-0.6-8.5-1.3-8.5-1.6c0-0.5,23.3-25.6,47.9-51.5c20.2-21.2,25.9-28.5,31.3-39.3
		c8-16,9.6-24.4,10.4-52c0.3-12.1,0.8-22.5,1.2-23c0.4-0.6,2-1.7,3.7-2.5c1.7-0.7,3.9-2.8,5.1-4.5
		C572.2,359.3,573.3,357.8,573.5,357.8z M549.5,464.6c-2-2.2-5.9,43.1-5.7,66.7c0.1,10,0.9,21.5,1.5,19.9c0.1-0.2,1.2-19.7,2.5-43.2
		C549,484.5,549.8,464.9,549.5,464.6z M663.2,482.3c-0.3,0,0.2,3.3,1.3,7.5c5,19.3,4.6,62.9-1,104c-0.7,5.4-1.2,10-0.9,10.2
		c0.5,0.5,2.7-12.3,4.3-24.9c4.2-32.5,3.5-81.5-1.3-92.6C664.6,484.2,663.6,482.3,663.2,482.3z M564.4,578.6c-0.5,0,3,4.2,7.7,9.3
		c15.1,16.5,22.8,27.1,28.7,39.5l3,6.4l0.3-3.2c0.4-4.7-2.7-12.1-9-21.7c-7.1-10.5-14.8-18.9-23.2-25.3
		C568.2,580.8,564.8,578.6,564.4,578.6z M569.2,598.5l-1.2-2.9l-0.5,6.2c-1.2,14.9-1.2,17.3-0.1,18.3c1.8,1.5,3-2.8,3-11.3
		C570.4,604.1,569.9,600.2,569.2,598.5z M583.9,648.4c-0.7,1.2,0.3,1.8,11.4,6.6c9.2,4,18.4,9.4,24.8,14.4c4.4,3.5,6.8,3.7,9.5,0.9
		c3-2.9,2.6-3.7-1.6-3.7c-3.2,0-4.6-0.7-10.2-4.6c-7.9-5.6-13.3-8.5-22.9-11.9C587,647.3,584.8,647,583.9,648.4z"/>
	<path id="path48" fill="#999999" d="M623.6,359.4c7.9,0,8.3,0.3,12.6,7.9c2.7,4.7,3.4,5.4,6.1,5.4c1.2,0,4.4,2.2,8.3,5.6
		c13.3,11.5,29.4,22.7,45.9,31.8c16.3,9,18.3,10.2,24.2,15.7c6.8,6.3,13.7,15,22.8,28.7c11.5,17.3,15.4,24.9,29.1,56
		c3.9,8.9,11.8,26.2,17.4,38.6c25.2,54.5,35.2,79.6,45.3,114.1c9.2,31.2,9.5,37.7,2,45.5c-7,7.3-11.1,7.8-58.9,7.5l-38.1-0.2l-2,2.3
		c-3.4,4-2.5,6.5,2.8,7.5c3.4,0.7,3.5-0.7,0.1-2.3c-2.5-1.3-2.5-1.4-1.1-3c1.5-1.7,2.4-1.7,45.6-1.4l44,0.2l4.2-2.2
		c8.5-4.5,13-13,13.1-24.3c0-5.2-0.7-9.5-3.5-19.6c-4.5-16.7-10.1-34.3-15.1-46.8c-9-22.7-63.7-145-70.8-158.1
		c-6.9-12.9-25-36.9-34.4-45.8c-5.3-5-12.7-10-22.4-15.2c-3.3-1.8-5.9-3.4-5.6-3.6c0.2-0.2,6.4,1.3,13.9,3.5
		c27.8,7.7,37.5,9.8,76.6,15.8c30.5,4.7,60,9.5,62.5,10l1.8,0.4v34.5v34.4l-1.8-0.6c-1.1-0.2-16.1-6.1-33.5-12.8
		s-32.4-12.5-33.5-12.8c-1-0.3-1.7-1-1.4-1.4c0.3-0.4-2.3-0.7-6.3-0.7c-4.3,0-6.6,0.3-6.1,0.7c0.7,0.8,13.1,5.7,59.5,23.7l23,9
		v149.1c0,82-0.3,148.5-0.7,147.8s-8.9-16-18.9-34c-29.6-53.1-28.5-51.3-28.5-47.1c0,3.2,8,18.8,38.7,75.9l9.5,17.6v16.7V850h-5.4
		c-3,0-5.4-0.3-5.4-0.8c0-1.2-14.4-32.3-18-38.8c-1.7-3.1-6.6-11.2-10.9-18c-5.9-9.3-7.9-13.2-8-15.4c-0.1-3.6-0.3-3.7-20.4-7.8
		c-8.1-1.7-15.4-3.7-16.5-4.5c-1.2-0.9-2.9-4.2-4.6-9c-3.2-8.7-8.7-19.6-11.7-22.7c-1.8-1.9-3.1-2.2-8.8-2.7
		c-3.7-0.3-7.2-0.9-7.8-1.4c-0.8-0.7-0.9-6.7-0.6-25.9c0.3-19.5,0.2-28.6-0.9-40.8c-2.8-32.5-7.1-66-11-85.5
		c-12.5-63.4-36.7-122.4-73.5-179.1c-5.1-7.9-11.2-17.8-13.6-22.2c-7.1-12.9-7.1-12.9-7.6-11.9c-0.2,0.6,0,3,0.5,5.3
		c0.5,2.4,0.8,4.5,0.6,4.6c-0.3,0.3-9.6-12.6-9.6-13.4C616.7,359.6,619.8,359.4,623.6,359.4z M776.6,631.9c7.1,24.2,14,41.1,22.8,55
		c4.2,6.8,12.4,14.5,15.2,14.5c3.1,0,2.7-0.9-1.9-4.9c-10-8.4-22.9-33.9-34.9-69C771.8,610.2,771.1,612.9,776.6,631.9z M768.9,630.4
		l-0.8-3.3l-0.6,3.7c-0.5,3.5-5.6,54.5-6.8,69.1c-0.4,4.4-0.2,6.5,0.3,6.5c2.3,0,6.2-27.5,7.7-54.8
		C769.4,639.4,769.5,632.7,768.9,630.4z"/>
	<path id="path50" fill="#0000CC" d="M291.8,400.2l0.2,2.9c0.2,1.7,0.2,3.2,0,3.3c-0.5,0.4-6.5-1.5-6.5-2.2c0-0.2,1.4-1.3,3.2-2.3
		L291.8,400.2z"/>
	<path id="path52" fill="#CC9999" d="M404.1,469.9c1.7-0.2,1.2,1.8-2,7.1c-3.8,6.3-9,11.7-17.5,17.8c-10.1,7.4-15.1,9.4-22.7,9.4
		c-6.6,0-9.9-1.2-12.8-4.4c-2-2.2-3.7-8.5-3.2-11.9l0.3-2.5l4.3,0.7c5.8,0.9,13.1,0.7,15.5-0.6c1.1-0.6,3.9-2.3,6.2-3.9
		c2.6-1.7,9.4-4.6,17.4-7.3C397.1,472,403.5,469.9,404.1,469.9z"/>
	<path id="path54" fill="#CC9999" d="M383.4,473.5c-0.6,0.6-13.5,5.4-17.8,6.6c-7.2,2.1-10.9,2.3-19.1,1.3l-7.9-1.1l1.7-2.6
		c1.8-2.9,1.9-2.9,8.5,0c2.6,1.2,6,2.3,7.6,2.6c2.4,0.3,3.1,0.1,5.3-2.7c2.4-2.9,3.2-3.2,7.5-3.7C374.9,473.3,383.9,473,383.4,473.5
		z"/>
	<path id="path56" fill="#999999" d="M340.9,494.1c5.8,9.4,9,15.9,19,39.4c4.8,11.1,9.8,21.9,11.2,23.9c5,7.3,12.8,11,28.1,13.2
		c5.2,0.8,10,1.7,10.6,2c1.8,1.1-6.2,8.8-11.9,11.5c-4.4,2.1-5.9,2.3-13.5,2.3l-8.6,0.1l-4.8,5.4c-8.5,9.5-17.8,12.3-30.8,9.1
		c-4-1-9.2-1.7-11.8-1.7c-11.5,0-20.7-7.5-21.8-17.9c-0.7-6.1,0.7-10.1,6.6-17.4c2.9-3.6,7.4-10,9.9-14
		c12.3-19.8,13.5-23.7,12.8-41.1c-0.3-6.6-0.7-14.4-1-17.3C334.2,484.7,335.4,485.2,340.9,494.1z"/>
	<path id="path58" fill="#999999" d="M473.6,538.7c0.2,0.4-1.4,5.8-3.7,12c-13.4,35.8-21.7,77.8-23.8,120.2
		c-0.3,6.3-0.7,11.5-0.9,11.5s-1.5-0.6-3-1.3c-1.4-0.7-9-3.7-16.8-6.6l-14.1-5.1L403,659c-4.6-5.6-13.3-15.3-19.3-21.3
		c-12.3-12.3-12-11.5-8.4-19c2.1-4.3,7.3-9.2,8.2-7.6c1.2,1.8,5.8-0.9,12.1-7.1c6.6-6.4,12.3-14.8,16.6-24c1.5-3.3,3.2-6.5,3.8-7
		c0.6-0.5,3.7-1.4,6.7-2.2c10.2-2.4,15.9-6.1,30.7-20.3c4.6-4.4,9.7-9,11.2-10.3C467.5,537.9,472.5,537.1,473.6,538.7z M440,572.2
		c-0.6-2.1-0.9-1.6-2.8,4.7c-7.1,23.5-8.1,27.4-6.5,27.4c2.4,0,7.7-14,9-23.8C440.3,577.2,440.4,573.4,440,572.2z"/>
	<path id="path60" fill="#999999" d="M480.3,539.2c0.9,0.2,8.5,1.8,16.9,3.7c8.4,1.8,16.2,3.9,17.2,4.6c2.4,1.5,7.8,9.9,11.9,18.2
		c9.2,18.9,25.6,76.4,34.9,123.1c11.1,55.3,15.5,93.4,16.9,146.3l0.4,14.8H576c-2.2,0-2.4-0.2-2.4-3.2c0-12.2-4.3-72.1-6.3-88.2
		c-5-39.9-17.8-71.3-41-100.9c-6.1-7.7-30.6-32.1-31.7-31.5c-0.8,0.5,0.2,1.7,19.5,23c8.1,8.9,14.7,16.4,14.7,16.7
		c0,0.3-1.2-0.1-2.7-0.8c-3.2-1.7-7.9-1.7-26-0.7c-10.9,0.6-12.6,0.5-13.5-0.7c-0.9-1.1-0.8-3.5,0.7-14.1l1.8-12.9l-1.7-2.4
		c-3.7-5.2-6.8-16.9-6.8-25.7c0-3.3,1.7-14.1,4.6-27.8c3.2-15.9,4.3-22.8,3.7-23.7c-0.4-0.8-0.8-1.2-0.8-0.8
		c0,0.3-2.3,10.8-5.1,23.2c-6.4,27.8-6.6,33-2.4,45.3c3.5,10.1,3.9,14.4,2.3,21.5c-0.7,3.1-1.3,7.6-1.2,10c0.2,3.5-0.2,4.6-1.8,6.4
		c-2.6,2.7-2.7,2.7-4.5-0.2c-0.7-1.3-2.7-3-4.2-3.7c-7.1-3.4-11.7-0.5-14.6,9.5c-1,3.4-2.7,9-3.8,12.4l-2,6.2l0.5-14.5
		c0.7-24.5,3.4-49.1,7.8-71.4c4.6-23.8,14.4-56.9,17.8-60.3C478,539.6,479.5,539,480.3,539.2z"/>
	<path id="path62" fill="none" d="M0,560.5l3.2,0.9c1.7,0.5,8,0.9,13.9,0.9l10.8-0.1l1.8,4.5c1,2.4,1.8,5,1.8,5.7
		c0,0.7-1.3,4-2.9,7.2c-3.4,7.2-5.2,14.4-5.9,23.8c-1.1,14.4,3.1,26.8,12.1,35.9c2.7,2.7,5.4,5.7,5.9,6.6c0.4,0.9,1.2,10,1.6,20.3
		c0.7,18.3,0.7,18.7-1.3,26.3c-8.5,31.6-11.2,59.4-7.1,73.9c1.5,5.2,1.7,7.1,1,10.4c-1.7,8.1-1.9,25.1-0.5,34.2
		c2.4,15.8,4.4,19.7,10.9,21.8c4.3,1.5,4.2,2.8-0.7,10.9l-4,6.4H20.3H0V705.2V560.5z"/>
	<path id="path64" fill="#999999" d="M533.5,570.2c0.8,1.1,9.5,21.1,19.2,44.4c48.8,117.5,55.5,130.7,105,208.3
		c9,14,16.4,25.9,16.4,26.3c0,0.5-16.4,0.8-45.5,0.8H583l-1-27.2c-1.8-49-5.9-84.3-15.1-129.7c-7.1-35.5-15.2-65.4-27-100.9
		c-3.8-11.5-7.1-21.5-7.5-22.4C532.1,568.5,532.2,568.5,533.5,570.2z"/>
	<path id="path66" fill="#999999" d="M403.3,586.9c1.1-0.1-7.2,10.5-10.8,13.8c-1.1,0.9-3.7,2.3-5.7,3.1c-6.7,2.6-11.6,7-14.9,13.5
		l-3,6l-8.1-8.2l-8.1-8.1l3.7-1c10.2-2.7,16.9-7.2,19.3-13.1l1.3-3.2l8.5,0.3c6.9,0.2,9.4,0,12.7-1.2
		C400.3,587.8,402.7,587,403.3,586.9z"/>
	<path id="path68" fill="#999999" d="M466.5,661.7c1.7-0.1,4.2,2.2,6.6,5.5c2.2,3.2,3.5,3.4,6.9,1c2.2-1.6,2.8-1.7,5.9-0.8
		c2.5,0.7,8.1,0.7,19.7,0.2l16.2-0.7l4.3,2.8c6.6,4.3,10.5,9.2,15.2,18.5c13.1,26.1,19.9,50.4,22.7,80.5c1.2,12.9,5.5,74.7,5.5,79.3
		v2.1h-45.5h-45.5l-1.1-8.5c-3.7-29.8-17.8-68.1-35.9-97.7c-9.5-15.4-11.5-19.7-11.5-23.2c0-9.4-3-19.8-10.1-35.2
		c-2.7-5.9-4.7-10.9-4.5-11.1c0.6-0.6,28,11.9,30.1,13.7c1,0.9,2.4,3.7,3.2,6.4c0.8,2.8,2.5,6,4.2,7.7l2.7,3l-0.1-11.2
		c-0.1-15.7,3.1-28.6,7.6-31C464.3,662.2,465.8,661.7,466.5,661.7z"/>
	<path id="path70" fill="#999999" d="M622.6,745.8c16.7,26.1,20.4,31,34.4,44.8c16.1,16,33.4,28.7,50.7,37.5c3.2,1.6,6,3.1,6.1,3.2
		c0.7,0.7-8.5,9.5-12,11.5c-5.4,3.2-11.1,4.2-16.4,2.6c-7.4-2.2-11.2-5.8-20.2-19.3c-14-21.3-26.1-40.8-36.9-59.8
		c-10.9-19.1-28.1-52.4-28.1-54.4C600.1,710.9,602.8,714.8,622.6,745.8z"/>
	<path id="path72" fill="#999999" d="M793.8,777.5c6.1,3.6,24.7,35.4,36.2,61.9c2.3,5.4,4.2,10,4.2,10.1c0,0.2-7.1,0.4-15.7,0.4
		h-15.6l-0.5-4.7c-3-29-4.1-39.4-4.6-42.6c-0.6-3.6-0.7-3.4-1.3,3.7c-0.7,8.4-0.1,26.5,1.2,36.4c0.5,3.7,0.7,6.7,0.6,6.9
		s-11.5,0.2-25.3,0.2l-24.9-0.2l15.2-32.2c14.4-30.5,17.3-37.1,15.6-37.1c-0.3,0-8.5,15.6-18.2,34.7l-17.5,34.6l-21.9,0.2l-21.9,0.2
		l2.5-1.8c5.8-4.2,15.4-15.1,22.4-25.4c32.2-47.5,35.7-52.4,37.9-53.2C765.1,768.5,788.3,774.4,793.8,777.5z"/>
</g>
</svg>
