<?xml version="1.0" encoding="utf-8"?>
<!-- Generator: Adobe Illustrator 21.0.0, SVG Export Plug-In . SVG Version: 6.00 Build 0)  -->
<svg version="1.1" baseProfile="tiny"
	 id="svg120" inkscape:version="0.92.2 5c3e80d, 2017-08-06" sodipodi:docname="57.svg" xmlns:cc="http://creativecommons.org/ns#" xmlns:dc="http://purl.org/dc/elements/1.1/" xmlns:inkscape="http://www.inkscape.org/namespaces/inkscape" xmlns:rdf="http://www.w3.org/1999/02/22-rdf-syntax-ns#" xmlns:sodipodi="http://sodipodi.sourceforge.net/DTD/sodipodi-0.dtd" xmlns:svg="http://www.w3.org/2000/svg"
	 xmlns="http://www.w3.org/2000/svg" xmlns:xlink="http://www.w3.org/1999/xlink" x="0px" y="0px" viewBox="0 0 850 850"
	 xml:space="preserve">
<sodipodi:namedview  bordercolor="#666666" borderopacity="1" gridtolerance="10" guidetolerance="10" id="namedview122" inkscape:current-layer="svg120" inkscape:cx="775.19294" inkscape:cy="575.08526" inkscape:pageopacity="0" inkscape:pageshadow="2" inkscape:window-height="978" inkscape:window-maximized="1" inkscape:window-width="1920" inkscape:window-x="0" inkscape:window-y="1" inkscape:zoom="0.58897835" objecttolerance="10" pagecolor="#ffffff" showgrid="false">
	</sodipodi:namedview>
<g id="g118" transform="translate(0.000000,0.000000) scale(1.00000,1.00000)">
	<path id="path4" fill="none" d="M0,0l208.3,0.1c175,0,207.2,0.3,202.2,1.4c-7.4,1.6-15.2,4.7-20.4,7.9l-3.9,2.5l-5.9-2.1
		c-8.4-2.9-22.6-2.7-35.4,0.5c-10.5,2.8-23.2,8.7-32.4,15.2c-3.3,2.4-10.9,6.4-16.9,9c-27.4,11.7-46.1,24-62.1,40.6
		c-11.2,11.7-16.1,18.5-22.6,31.2c-5.3,10.6-5.7,11.1-10,12.6c-10.4,3.7-16.2,9.3-19.9,19c-1.5,4-3.7,7.3-7.2,10.7
		c-7,6.8-13.2,15.7-17.8,25.7c-5.5,11.7-7.5,25.4-6.6,46.2c0.6,15.3,2.3,23,7.1,32.6c2.2,4.3,14.5,22.6,20.2,30.1
		c4.9,6.4,11.5,18.2,13.8,24.7c1.4,4,1.4,4.6-0.4,8.5c-3.7,8.5-14.4,14.6-25.6,14.6c-6,0-8.1-0.5-14-3.4
		c-10.2-4.9-16.5-12.6-16.5-20c0-5.9-2.8-7.4-5.6-3c-2.4,3.6-2,15.2,0.7,24c1.8,5.6,2.2,9.5,2.3,20.4c0.1,13.5,0.1,13.7,3.6,20.5
		c9.3,18.5,31.2,30.1,55.5,29.5c13.3-0.3,16.1-0.2,26.1,0.5c7.6,0.6,10.4,0.4,17.5-1.5c10.1-2.6,17.7-6.5,24.8-12.7
		c2.8-2.5,5.3-4.4,5.5-4.2c0.2,0.2,1.1,3.5,2,7.3c3.3,13.4,10.4,23.8,22.7,33.3c4.5,3.5,8.6,6.3,9.1,6.3c2,0,1.9-3.3-0.1-6
		c-1.1-1.6-2.1-3.2-2.1-3.4c0-0.3,3.2,1.7,7,4.5c3.9,2.8,7,5.4,7,5.8c0,0.3-4.2,3-9.3,6c-5,3-10.7,6.5-12.5,7.8
		c-3.2,2.4-3.2,2.6-1.8,4.9c0.9,1.3,1.6,2.5,1.6,2.7s-2.9,2.5-6.5,5.1s-6.5,5.3-6.5,6.1c0,0.7-1.7,2.5-3.7,4.1
		c-2.1,1.5-7.5,6.4-12.1,10.8c-7.5,7.3-8.5,8.7-10.2,14.6c-2.8,9.3-5.1,28.9-5.5,47.7c-0.2,9.6-1.1,19.7-2.1,24.7
		c-1.9,10-1.5,13.5,2.7,20.1c2.7,4.2,3,5.6,2.6,9.5c-0.3,2.5-1.3,11.2-2.3,19.5c-2.6,21.4-2.6,67.3,0,76
		c6.4,21.4,34.7,49.5,49.9,49.5c2.2,0,8.5-1.2,13.9-2.6c5.5-1.4,10.1-2.4,10.3-2.2c0.3,0.2,0.5,6.5,0.6,13.9
		c0.1,14.8-0.1,15.4-7.4,30.9c-5.6,11.7-7.5,17.4-8.6,25.5c-1.5,10.5-0.2,14.2,10.6,29.5c5.2,7.3,6,9.9,4.7,14.7l-0.6,2.3H158.9H0
		V425V0z"/>
	<path id="path6" fill="none" d="M643.3,0.1L850,0v425v425H711c-76.4,0-139-0.3-139-0.8c0-0.4-0.7-4.7-1.5-9.7s-1.5-9.9-1.5-11
		s3.1-5.6,6.9-10c15.9-18.3,21.8-35.5,15.7-45.9c-1.3-2.3-5.8-11.7-10-20.9c-7.3-16.2-7.7-17.3-9.6-30.6c-1-7.6-2.4-19.6-3-26.7
		c-0.6-7.1-1.7-16.5-2.5-20.9c-0.7-4.4-2.1-13.2-3-19.5s-1.9-12.6-2.2-14c-0.9-4.7,7.5,14.4,10.2,23c3.5,10.8,7.8,17.4,18.5,28.1
		c18.4,18.5,35.8,26.4,46.7,21.3c4.2-2.1,15.4-14.4,21-23.2c6.6-10.5,8.7-18.2,8.1-30.5c-0.9-16.4-6.7-30.7-22.5-54.7
		c-11-16.7-12.5-19.3-22.9-41.3l-9.5-19.9l12.8-13.2c18.3-18.7,20.1-21.1,22.5-30.3c1.6-6.2,1.9-9.9,1.5-18.3
		c-0.7-15.1-1.3-16.6-12.6-28.3c-5.3-5.6-11.2-12.3-12.9-14.9c-3.6-5.2-6.9-6.7-10.8-4.9c-2.1,0.9-3,0.8-5.1-0.9
		c-1.4-1.1-3.4-2-4.4-2s-2.5-1.3-3.4-3c-0.8-1.6-2.4-3.4-3.5-4c-1.7-0.9-1.8-1.4-0.8-3.5c0.7-1.6,1.9-2.5,3.3-2.5
		c1.3,0,2.8-0.6,3.5-1.4c0.9-1.2,0.7-1.8-0.9-3.3c-1.8-1.5-2.1-2.5-1.6-6.3c1.2-9,1-8.7,7-9.3c19-2,31.1-20.6,24.6-37.9
		c-6.1-16-21.3-24.2-36-19.4c-2.7,0.9-5.2,1.6-5.5,1.6c-0.2,0-0.6-3.6-0.8-8c-0.2-5.5,0.1-8,0.8-8c0.6,0,3.6,1.1,6.5,2.4
		c10.3,4.5,18.5,6.1,31.9,6.1c13.6,0,19.1-1.3,28.6-6.6c4.9-2.6,5.6-2.8,14.1-2.2c6.8,0.4,10.3,0.2,14.8-1.2
		c17.6-5.1,28.2-15.7,35.1-35.1c2.3-6.8,2.7-9.4,2.7-18.4c0-7.9-0.5-11.9-2-16c-1.9-5.2-1.9-6-0.5-14.4c1.1-6.5,1.2-10.8,0.6-15.5
		c-0.8-6.1-1.1-6.6-3.3-6.6c-2.1,0-2.7,0.9-4.7,6.7c-7.3,21.8-27.7,34.5-45.4,28.3c-13.2-4.7-18-11.4-18-25.4
		c0-4.8,0.7-11.3,1.4-14.6c0.8-3.3,2.6-14.6,4.1-25c3.8-26.2,2.8-42.5-3.7-62c-6.9-21-31.8-45-49.9-48c-2.4-0.4-5.7-1.8-7.4-3
		c-4.9-3.7-9.2-5.5-12.9-5.5c-3.2,0-4-0.7-8.9-7.3c-17-22.7-39.7-38.9-68.3-48.6C489,8.3,480,6.4,461,4.5c-8-0.8-16.7-2.1-19.5-2.9
		C437.1,0.3,460.2,0.1,643.3,0.1z"/>
	<path id="path8" fill="#FF8C00" d="M426,5.2c9.3,0,10.7,0.2,7.1,0.9c-8.9,1.7-15.4,4-14.4,5c0.7,0.7,4,0.4,9.9-0.7
		c7.1-1.3,12.4-1.5,25.9-1.1c18.9,0.6,29.8,2.5,48,8.4c13.3,4.3,20.4,7.8,31,15.1c17.5,12.1,26.6,20.7,34.7,32.5l4,5.9l-2.5,2.6
		c-3,3.2-4.7,7.2-4.7,11.3c0,3.5,0,3.5-5,0.9c-4.1-2.1-7-2.6-7-1.1c0,0.4,3,2.6,6.6,4.7c7.6,4.4,22.7,19.6,29.2,29.3
		c2.7,4.1,5.6,10.5,8.3,18.9c3.7,11.3,4.1,13.7,4.1,22.2c0,9.5-1.8,22.1-4.7,33.5c-2.8,10.7-8.7,21.3-16.8,30
		c-8.5,9.2-23.5,22-22.3,19c0.5-1.1,1.2-3.5,1.6-5.3c0.4-1.8,2.3-4.9,4.2-7c8.6-9.6,16.5-24.7,20-38.5c1.7-6.9,2-10.1,1.5-20.1
		c-0.4-8.9-0.9-12.2-2.1-13.4c-2.3-2.4-2.7-1.2-1.6,5.4c3,17.7-3.5,41.9-15.7,58.7c-3.3,4.4-16.4,15.7-18.4,15.7
		c-2.1,0-1.7-5.6,1.5-21c2.6-12.6,3.8-16.6,5-16.8c2-0.4,2-1.1,0.1-3.2c-1.3-1.4-1.1-2.3,2-8.1c5.8-11,7.9-20.5,7.7-34.9
		c-0.1-14.3-2.1-23.3-7.7-36.1c-6.3-14.3-19.3-31.9-23.6-31.9c-2.6,0-2.4,0.5,1.7,4.7c8.8,8.8,17.9,24,23.2,38.8
		c3.3,9.3,4.3,31.3,1.8,41.7c-1.2,5.2-7.2,19.4-9.1,21.6c-0.1,0.1-3.2-1.6-6.9-3.8c-3.6-2.2-8.7-5-11.1-6.2
		c-2.5-1.2-4.5-2.9-4.5-3.7c0-0.9,0.9-4.4,2-7.8c1-3.4,2.4-10.8,3-16.5c1.2-11.4,0.2-18.7-4.6-33.8c-3.7-11.7-10.7-23-12.9-20.9
		c-0.3,0.3,1.9,5.3,4.9,11c7.4,14.3,10,25.9,9.3,40.7c-0.6,13.7-4.2,26.8-7.2,26.5c-1.1-0.1-6.6-1-12.2-2l-10.3-1.8l0.8-5.5
		c0.4-3,0.7-11.6,0.6-19c-0.1-15-2-23.1-9.1-40c-6.7-15.9-20.1-36.2-25.6-38.8c-4.4-2.1-4.4-0.6,0,3.5c10.5,9.8,27.2,42.3,30.2,58.7
		c1.2,6.5,1.3,34.5,0.2,38.6c-0.6,2.3-1.3,2.5-11.1,3.7c-5.8,0.6-11.6,1.4-13.1,1.7l-2.5,0.5l0.4-14.7c0.3-10.8,0-16.8-1.1-22.2
		c-1.8-8.4-5.1-17-6.7-17s-1.2,2,1.7,10.1c2.5,7,2.7,8.4,2.8,25.1c0,10.5-0.4,18.1-1,18.7c-0.5,0.5-2.8,1.7-4.9,2.6l-3.9,1.6
		l0.6-3.7c1.1-6.6-1.2-27.8-4.3-40.1c-1.7-6.5-4.8-15.5-6.9-20c-4.1-8.4-12.6-21.8-15.5-24.2c-3.7-3-2.6,0.3,2.4,7.5
		c6.6,9.5,14.3,26.6,17.4,38.7c3.1,11.9,5,28.3,4.2,36c-0.5,5.5-1,6.4-5.1,10.4c-6.2,5.9-6.1,10.7,0,6.7c1.4-0.9,2.5-1.2,2.5-0.8
		c0,1.9-3.9,14.2-6.3,20.1c-2.3,5.7-11.5,21-12.1,20.2c-0.8-1,1.4-17.9,2.8-21.7c2.1-5.7,4.8-24.7,4.4-30.8
		c-0.6-8.9-2.3-5.2-2.9,6.1c-1.1,20.1-8.6,38.9-20.4,51.4l-6.2,6.4l-5.5-3.6c-17.8-11.9-33.2-38.1-39.9-68.2
		c-2.9-13.1-3.6-34.8-1.4-44.5c1-4.1,2-9.1,2.2-11c0.9-6.2-2.1-1.4-4.7,7.5c-2,6.7-2.4,10.1-2.3,21c0.1,15.8,1.1,21.6,7,41
		c5,16.7,9,25.1,17.5,36.9c3.1,4.4,5.5,8.2,5.3,8.4c-1.5,1.5-21.6-11.9-27.9-18.7l-3-3.1h2.7c1.5,0,2.7-0.5,2.7-1
		c0-1.9-5.2-6-9.2-7.2c-3.3-1-4.5-2.2-7.9-7.9c-2.3-3.7-5.3-10.1-6.7-14.1c-2.5-6.9-2.7-8.3-2.7-25.8c0.1-16.2,0.4-19.5,2.3-26.5
		c3.2-10.9,9.2-23.4,15.3-31.7c4.9-6.6,5.7-9.4,2.1-7.2c-3.3,2.1-12,15.4-15.7,24.1c-6,14.5-7.9,24.3-7.9,42.8
		c-0.1,17.1,0.8,21.6,7.1,35c1.2,2.7,2.3,6,2.3,7.2c0,2-0.5,2.3-3.9,2.3c-4.5,0-6.4-2-10.6-11.2c-7-15.3-10.4-41-7.5-55.3
		c2.3-11.3,2.3-11.5,0.7-11.5c-1.8,0-4.5,9.3-5.3,18.2c-0.8,8.2,1.1,26.5,3.6,35.7c1.2,4,3.7,10.9,5.7,15.2c2,4.4,3.4,8.1,3.1,8.4
		c-0.2,0.3-4,1-8.4,1.5c-4.3,0.6-12.3,2.6-17.7,4.4l-9.8,3.4l-3-4.7c-8.8-13.9-11.9-25-11.9-42.6c0-8.8,0.5-14.3,2-20.1
		c2.4-9.7,9.5-24.2,14.9-30.8c3.9-4.6,5.2-7.6,3.1-7.6c-2,0-11.2,12.9-15.4,21.5c-7.1,14.5-8.1,19.4-8.1,39c0,16.7,0.1,17.1,3.2,25
		c2.3,5.9,3.3,10.4,3.8,17.2l0.6,9.1l-5.3,4.2l-5.3,4.2l-2.3-5.3c-4.2-9.5-7.3-24.5-7.9-38.2c-0.6-14-2.1-16.4-3.7-6.2
		c-1.7,10.4,2.7,33.1,9.4,49.1c1.3,3,1.2,3.2-3,7c-2.4,2.1-4.8,3.9-5.3,3.9c-1.5,0-9.3-11.7-12.8-19c-3.1-6.6-5.9-21.2-5.9-31.3
		c0-9.1,2.7-25.3,5.6-34.1c2.5-7.6,7.5-17.2,11.6-22.3c1.2-1.5,1.8-3.1,1.4-3.5c-2.3-2.3-10.2,8.6-14.7,20.1
		c-4.7,12.1-8.2,33.6-7.4,45.6c1.1,17.2,3.9,25.3,13.6,39.7c4.9,7.2,5.8,9.6,3.9,10.8c-1.8,1.1-1.1,3.7,0.8,3.1
		c1.4-0.5,2.7,1,6.1,7.5c2.4,4.4,7.4,12.7,11.2,18.5c3.8,5.7,6.9,10.6,6.9,10.8c0,1.2-10.8-2.7-16.2-5.7
		c-12.9-7.3-20.9-16.6-29.4-34.2c-6.8-14.2-8.4-20.6-8.4-33.9c0-5.8-0.4-10.6-0.9-10.6c-1.6,0-2.1,3-2.1,12.4
		c0,12.6,2.6,22.2,10,36.5c7,13.5,12.6,20.7,22.5,28.7c9.7,7.8,18.8,16.4,17.5,16.4c-0.5,0-5.7-1.1-11.5-2.5
		c-18.8-4.4-30.1-10.3-43-22.6c-19.6-18.6-27-35.7-26.9-61.9c0.1-26.5,8.2-49.8,22.2-63.7c6.7-6.7,7.3-8.6,4.7-14.8
		c-0.8-2.1-2.5-3.9-4-4.5c-2.1-0.8-2.5-1.4-1.9-3.3c2.9-9.4,14.4-26.6,24.7-36.8c16-15.9,28-24.5,46.2-33.3
		c23.9-11.6,40.6-16.6,62.9-19c10.5-1.1,14.6-2.8,9.2-3.8c-3.1-0.6-23.5,1.8-30.6,3.7c-3,0.8-5.6,1.2-5.8,1
		c-0.6-0.6,9.8-6.3,17.5-9.5c16.4-6.9,35.8-7.9,46.7-2.4c3,1.5,3.3,1.4,12.1-3.1C399.4,10,406,7.3,409,6.6
		C412.3,5.7,419.1,5.1,426,5.2z"/>
	<path id="path10" fill="#B22222" d="M596.5,84.5c3.5,5.2,4,6.7,4,11.5c0,4.2-0.6,6.3-2.4,8.9c-2.6,3.6-8.4,6.6-10.4,5.4
		c-0.7-0.4-5.4-5.1-10.5-10.5c-8.2-8.5-9.2-10-9.2-13.3c0-5.5,4.2-12,9-13.8S591.2,76.6,596.5,84.5z M572,83c0,8.1,7.4,21,12.1,21
		c2.5,0,2.4-0.8-0.5-3.1c-3.3-2.6-7.4-11.2-8.2-17.1C574.4,76.6,572,76.1,572,83z M592.5,103c-2.5,1.6-2.6,2-1.2,2.6
		c1.8,0.7,6.7-2,6.7-3.6S595.8,100.8,592.5,103z"/>
	<path id="path12" fill="#FFA500" d="M613.9,87.6c9.3,5.7,23.7,20.2,27.9,28.2c3.6,6.8,8.5,22.8,10.2,33.5
		c1.7,10.1,0.9,21.4-3.1,44.2c-4.8,27.9-5.4,33.8-4.2,40.3c0.6,3.1,0.9,5.8,0.8,6c-0.7,0.7-6-9.4-8.2-15.6c-1.3-3.6-2.7-9.5-3-12.9
		c-0.7-7.4-2.6-8.1-3.1-1.1c-0.4,6,2.2,15.8,6.1,23.1c3.9,7.4,13.6,16.4,22.4,20.8c6.4,3.2,7.4,3.4,17.3,3.4
		c10.2,0,10.7-0.1,16.5-3.5c8.3-4.8,15.5-12.2,19.5-20.3c1.8-3.7,3.4-6.6,3.6-6.4c0.2,0.2-0.1,4.4-0.7,9.3
		c-1.4,12.8-5.7,21.1-15.2,30c-11.8,11-17.6,14.1-29,15.9c-5.7,0.9-3.4,2.8,2.7,2.3c8.3-0.7,17.3-5.6,26.5-14.3
		c4.4-4.2,9.5-10,11.3-12.8l3.3-5.1l1.2,4c3,10.1,0.5,28-5.6,40.2c-6.7,13.4-21.1,22.9-35.7,23.9c-13.8,0.9-26.9-3.5-38.7-12.8
		c-12.1-9.7-21.4-23.9-24-36.7c-1.4-6.8-2.7-7.3-2.7-1c0,8.6,6.4,21.3,16.2,32.2c6.5,7.2,18.7,15.9,24.9,17.7
		c2.2,0.7,3.8,1.7,3.6,2.3c-0.5,1.5-10.5,5.4-16.8,6.6c-7.4,1.4-15.4,1.2-25-0.6c-26-4.9-48.4-27.4-53.9-54.4
		c-1.8-8.6-1.8-9.7-0.4-11.8c1.4-2.1,1.4-2.6,0.2-3.9c-1.1-1-1.3-2.6-0.8-6c0.6-4,1.5-5.3,6.1-9.2c16.2-13.7,26.2-25.2,30.5-35
		c5.1-11.4,8.5-26.3,10-43.2c1.1-12.2-4.2-33.9-10.9-45.1l-3.5-5.7l2.8-1.1c3.5-1.5,8.6-6.7,9.9-10.3c1.7-4.3,1.3-10.7-0.9-15.6
		c-1.1-2.4-2-4.6-2-4.8C600,80.8,607.3,83.6,613.9,87.6z"/>
	<path id="path14" fill="#B22222" d="M215.6,126.5c0.6,3.2,0.2,3.9-6,10.7c-3.6,4-8.4,10.6-10.6,14.9c-2.2,4.2-4.7,8-5.6,8.3
		c-0.9,0.4-3.1-0.3-4.8-1.4c-2.9-1.8-2.9-2-0.8-2c2.4,0,8.2-2.6,8.2-3.7c0-0.3-2.7-0.3-6,0c-5.7,0.5-6,0.4-6.6-1.9
		c-2.6-10.3,8-25.8,20-29.3C210.8,119.9,214.6,121.3,215.6,126.5z M210.6,123c-1.5,0-3.2,9.3-2,11.2c1.3,2,3.4-2.4,3.4-6.9
		C212,124.3,211.6,123,210.6,123z"/>
	<path id="path16" fill="#FFA500" d="M179.5,148.9l0.6,2.8c1.2,6.1,6.1,11.3,10.5,11.3c2.9,0,2.8-0.7,0.5,8.2
		c-3.2,11.9-4.4,23.2-3.8,35.2c0.9,15.5,2.9,23.5,8.8,35.6c4.7,9.6,6.2,11.5,16.3,21.5c9.9,9.8,12.3,11.6,22.3,16.8
		c8.3,4.3,14.4,6.6,23,8.8c9.6,2.4,12.2,3.4,14,5.6c6.7,8.2,11.2,34.1,7.2,41.3c-0.5,0.9-0.9-1.2-0.9-5.6c0-4.8-0.5-7.5-1.4-8.3
		c-1.1-0.9-1.4,1.1-1.8,12.6c-0.4,11.6-0.9,15.1-3.2,21.8c-6.9,20.2-21.6,33.9-41.1,38c-7.2,1.5-17.7,2-18.8,0.9
		c-0.3-0.4,2.6-2.2,6.6-4.1c8.8-4.2,19.6-12.9,23.7-19.1c5.3-8.1,1.7-6.8-7.7,2.7c-7.5,7.6-10.3,9.7-17.4,13c-15,7-31.6,8.8-45,4.7
		c-7.7-2.4-18.9-8.5-23.9-13.2c-7.9-7.4-13-19.4-13-30.8c0-2.3,0.2-4.5,0.5-4.7c0.2-0.3,3.6,2.5,7.4,6.2
		c11.1,10.6,24.3,16,39.1,15.8c8.5-0.1,12.2-0.9,12.8-2.7c0.3-1-1.4-1.2-7.9-0.7c-20.9,1.7-42-9.4-49.7-26.2
		c-2.9-6.4-6.6-18.3-5.8-19c0.2-0.2,1.4,1.2,2.7,3.2c3.1,4.6,9.4,9,17.2,12.2c5.4,2.2,7.3,2.5,14.7,2.1c10.4-0.5,16.9-3.5,24-10.9
		c8.7-9.1,13-20.3,13-33.7c0-6.1-3.6-22.9-5.1-23.8c-2.1-1.3-2.1,0.9-0.1,9.4c1.2,4.8,2.2,11.7,2.2,15.2c0,6.6-2.8,18.7-4,17.3
		c-0.3-0.4-1.9-3.8-3.4-7.4c-1.5-3.7-8.4-14.7-15.6-25c-19.7-28-22.4-34.5-23.6-57.4c-0.5-8.7-0.2-13.5,1.5-23.3
		c3-17.5,9.2-30.1,21-42.5L179.5,148.9z"/>
	<path id="path18" fill="#FF8C00" d="M488.7,181.1l5.2-0.1l-2,4.7c-1.1,2.7-4.1,7.9-6.7,11.7c-3.9,5.7-5.5,7.1-9.6,8.7
		c-5.3,2-8.9,4.7-8,6.1c0.3,0.5,2.2,0,4.1-1.2c5.9-3.5,4.8-1.5-2.8,4.9c-4,3.3-7.4,5.9-7.7,5.7c-1.2-1.2,5.2-35.1,6.9-36.1
		c0.4-0.3,4.1-1.4,8.1-2.5C480.2,182,485.8,181.1,488.7,181.1z"/>
	<path id="path20" fill="#FF8C00" d="M500.9,181c4.5,0,20.1,2.3,20.1,2.9c0,1.2-9.1,16.6-10.9,18.4c-1.5,1.5-2.6,1.7-8.2,1
		s-6.4-1.1-6.2-2.8c0.2-1.1,0.8-5.9,1.5-10.8C498.4,181.5,498.6,181,500.9,181z"/>
	<path id="path22" fill="#FF8C00" d="M525.6,185c1.8,0,21.4,10.2,21.4,11.1c0,1.1-7.6,10.5-12.1,15L531,215l-3.7-2.5
		c-4.7-3.2-6.7-1.7-2.7,2c2,1.8,2.3,2.3,0.8,1.6c-4-1.9-4.3-3.1-3.4-14.6c0.5-6.1,1.1-12.2,1.5-13.8
		C523.9,186.2,524.8,185,525.6,185z"/>
	<path id="path24" fill="#FF8C00" d="M327,206.3l7.4,0.2l2.3,8c2.4,8.9,2.2,9.4-3.7,9.5c-1.9,0-6.6,1.2-10.5,2.5
		c-3.8,1.4-7.8,2.5-8.7,2.5c-1.8,0-16.8-14-16.8-15.8c0-1.2,6.9-3.6,16.1-5.7C316.6,206.8,322.9,206.2,327,206.3z"/>
	<path id="path26" fill="#FFFACD" d="M358.8,215.2c9.9,9.8,22.3,18.1,30.8,20.7c3.6,1.2,8,3.1,9.7,4.3c5,3.7,11.8,6.7,13.6,6.1
		c0.9-0.4,2.2-1.1,3-1.7c1.5-1.1,11.7-13.9,13.8-17.2c1-1.5,1.1-0.8,0.6,4.2c-1,11.3,3.6,8.8,12.7-6.7c2.9-4.9,5.4-8.9,5.6-8.9
		c0.1,0-0.2,1.5-0.7,3.2c-0.5,1.8-0.9,4.5-0.9,6c0,4.6,2.7,3.3,7.2-3.5c2.3-3.5,3.8-5.1,3.4-3.7c-0.3,1.4-0.9,4.3-1.3,6.4
		c-0.6,3.8-0.5,3.9,2,3.2l2.6-0.6l-0.2,19.7c-0.1,22.2,1.3,32.2,6.3,45.2c3.2,8.2,8.8,17.1,10.8,17.1c1.9,0,1.5-1.5-1.8-6.3
		c-4.3-6.4-6.8-12.8-9.7-24.7c-2.2-8.8-2.6-12.9-2.6-25.5c-0.1-17.8,1-22.5,6.1-27.3c3.5-3.2,10.6-7.1,16.1-8.7
		c1.8-0.6,2.3-0.4,1.9,0.6c-2,5.4-2,5.9,0.4,5.9c1.3,0,5-1.6,8.2-3.5c6.7-4,9.6-4.3,16.1-1.5l4.6,2l-0.6,5.5c-0.4,3-0.4,5.5,0,5.5
		s2.5-1,4.6-2.2c4.5-2.5,5.4-2,9.4,4.9c4.9,8.3,7.7,18,8.2,29.1c0.5,9,0.2,11.7-2.3,22c-1.5,6.4-3.2,11.9-3.7,12.1
		c-1.7,0.7-7.7,6.3-7.7,7.2c0,2.3,3.8,0.4,7.9-3.9c2.6-2.7,5.5-5.4,6.6-6c2-1,6.2-12.6,8.2-22.6c0.7-3.2,1.4-4.1,3.6-4.7l2.7-0.7
		v5.6c0,6.8-7.5,53.2-8.6,53.2c-0.2,0-2.1-0.9-4.1-2c-2.1-1.1-4.7-2-5.8-2s-3-0.3-4.3-0.6l-2.3-0.7l2.3-2.4l2.3-2.5l-2.4-1.9
		c-1.5-1.3-3.9-1.9-7.1-1.9c-4.8,0-11,1.6-11,2.9c0,0.4,1.4,2,3,3.6c3.6,3.5,3.7,3.9,0.6,5.3c-7.3,3.3-13.3,11.8-14.3,20.2
		c-0.8,6.9,0.3,11.1,4.3,17c1.9,2.8,3.2,5.5,2.9,6c-2,3.3-28.7,23-41.7,30.8c-20.3,12.2-27.2,14.6-42.8,14.6
		c-9.5,0.1-13.4-0.4-22.4-2.7c-22.4-5.9-54-17.4-71.1-25.9c-9.1-4.6-22-13.4-24.1-16.5c-1-1.6-6.7-12.7-12.7-24.8
		c-12.2-24.8-16.2-36.9-12.5-38.1c1.3-0.4,2.8,0.2,4.2,1.5c2.8,2.7,3.8,2.7,3.4-0.1c-0.6-3.9,1.7-2.9,3.5,1.6c1,2.4,3.7,7.4,6,11
		c3.1,4.9,5,6.9,7.5,7.7c3.6,1.2,5.2,0.6,3.7-1.5c-0.6-0.7-2.4-3.2-4.2-5.5c-3.4-4.5-8.8-18.4-10.4-26.5
		c-2.1-11.2-0.3-23.3,4.8-32.7c3.5-6.5,6.5-9.2,15.6-13.8l7.6-4l5.2,1.5c2.9,0.9,6.4,2.1,7.8,2.6c2.5,1.1,2.4,1.1-2,1.9
		c-9.1,1.4-13.3,5.2-18.6,16.4c-2.6,5.6-2.8,6.8-2.6,18c0,6.9,0.8,14.9,1.7,18.7c2,8.7,6.9,18.7,11.6,23.8c3.2,3.5,3.5,4.2,2.1,5
		c-1.2,0.6-1.3,1.2-0.5,2c2.3,2.3,32.3-2.9,38.2-6.6c3-2,2.9-3.8-0.3-3c-1.4,0.4-2.5,0.5-2.5,0.4c0-0.2,1-3.2,2.1-6.8
		c4.4-13.7,3.2-38.2-2.5-50.6c-2.9-6.2-8.7-12.9-13.5-15.4c-2.9-1.6-3.2-1.9-1.4-2c1.2,0,2.8-0.6,3.6-1.4c1.2-1.3,1.8-1.2,4.7,0.5
		c3.6,2.3,6,1.9,6-0.9c0-2.6-4.6-6.7-10.2-9.2c-3.2-1.4-5.3-3.2-6.4-5.2l-1.6-3.1l2.6,0.5c1.5,0.3,2.9,0.2,3.1-0.3
		c0.8-1.2-2.4-3.9-4.6-3.9c-1.3,0-2.5-1.2-3.5-3.5c-0.7-1.9-1.4-3.8-1.4-4.1c0-0.4,3.9,3.1,8.8,7.8c10.3,10.1,19.2,16.1,19.2,13
		c0-0.4-2.7-4.3-6-8.7c-5.6-7.5-12-18.2-12-20.1C351,207.9,354.5,211,358.8,215.2z M479.9,230.1c-7.3,5.2-11.5,18.9-10.5,34.5
		c1.3,19.6,4.8,30,13.2,39.3l4.6,5.1h-3.7c-4.9,0-4.1,2.3,1.1,3.2c12.1,2.1,40.7-3.7,37.5-7.6c-0.8-1-0.4-3.1,1.6-8.2
		c2.3-6,2.7-8.7,3.1-20.9c0.4-15.6-0.9-23.1-5.6-31.8c-3.7-7-12.1-14.3-18.4-16.2C494.6,225.1,485.5,226.1,479.9,230.1z M362.9,249
		c-1.2,0-1.3-0.3,2.2,10c6.1,18.2,8.5,42.2,5.5,53.9c-1.7,6.7-1.6,7.7,0.7,6.8c2.3-0.9,3.8-11.4,3.2-22.8
		c-1.1-18.7-3.9-33.5-8.2-42.7C365,251.4,363.4,249,362.9,249z M420,306.3c-3.5,1.8-3.9,4.1-0.6,3.5c2.2-0.4,2.6-0.2,2,1.1
		c-2.1,5.2-1.3,7.1,3.2,7.1c1.7,0,2.3-0.8,2.8-3.5c0.4-1.9,0.2-4.4-0.4-5.5C425.4,306,422.7,304.9,420,306.3z M313.2,326.2
		c0.5,1.5,10.7,4.8,12.6,4.1c2.4-1,1.1-2-4.8-3.6C313.9,324.7,312.7,324.6,313.2,326.2z M440.9,328.4c-1.5,1.3-6.2,3.8-10.4,5.5
		c-9.5,4-18.3,4.9-28,2.8c-3.8-0.8-7.3-1.3-7.6-1.1c-0.4,0.2-1.2,3.2-1.9,6.7c-2.1,11.6,1.2,23.1,8.9,30c7.1,6.4,15.6,8.6,26.3,6.7
		c8.5-1.5,14.1-5,18.3-11.3c6.5-9.9,7.1-21.1,1.9-32.8c-1.6-3.5-2.8-6.9-2.6-7.6C446.3,325.3,443.7,325.8,440.9,328.4z M322.5,339
		c-6,1.3-11.5,5.2-11.5,8.1c0,2,4.5,5.9,6.9,5.9c2.2,0,12.5-10.5,11.7-11.9C328.4,339.1,325.6,338.3,322.5,339z"/>
	<path id="path28" fill="#800080" d="M490.7,240c8.6,0,14.5,8.9,16.2,24.5c1.4,11.7,0.1,17.5-4.9,22.8c-3.3,3.6-4.2,4-8.4,4
		c-5.3,0-8.8-2-12.4-7.3c-2.7-4.1-3.8-8-5.2-19.3c-1.5-12.5,0.4-18.6,7.4-22.8C485.1,240.8,488.3,240,490.7,240z"/>
	<path id="path30" fill="#DDA0DD" d="M520.9,271.7c1.9,2.3,2,2.9,0.8,4.7c-1.7,2.5-5.2,3.2-7.3,1.6c-2.1-1.8-1.7-5.7,0.8-7.4
		C518.2,268.5,518.5,268.6,520.9,271.7z"/>
	<path id="path32" fill="#DDA0DD" d="M517.9,292.5c2.3,2.2,2.4,2.7,1.3,6.4c-1.6,5.1-6.6,9.5-9.2,8.1c-3-1.6-6-6.1-6-8.9
		c0-3.2,2.5-6.9,5.4-8.1C512.2,288.9,515,289.7,517.9,292.5z"/>
	<path id="path34" fill="#CD5C5C" d="M440.7,339.5c9.5,8.1,9.6,19,0.3,28.6c-10.1,10.4-28.9,10.4-38.4-0.1c-4.5-5-5.8-9.6-5.4-19.5
		l0.3-8l7.2,0.3c7.9,0.4,20.4-1.2,26.1-3.3C436,335.6,436.2,335.6,440.7,339.5z"/>
	<path id="path36" fill="#FF8C00" d="M292.1,215.1c0.3-0.1,4.4,3.7,9.2,8.3l8.7,8.5l-4.5,3.7c-7,5.7-5.2,7.9,2.1,2.4
		c3.6-2.7,8.4-4,8.4-2.3c0,0.5-1.8,1.6-4,2.6s-6.2,3.9-9,6.4s-5,3.9-5,3.1c0-0.8,0.5-1.9,1.1-2.5c1.8-1.8,0.1-3.5-2.2-2.2
		c-1.2,0.6-2.2,0.9-2.3,0.7c-2.4-4.2-7.6-20.9-7.6-24.7c0-1,1-2.3,2.3-2.9C290.5,215.6,291.8,215.1,292.1,215.1z"/>
	<path id="path38" fill="#FF8C00" d="M282.8,220.4c0.2,0.3,1.2,3.9,2.3,8.1s3.1,10.1,4.4,13.2c3.4,7.5,3.1,8.3-1.1,4.2
		c-4.8-4.6-13.4-16.8-13.4-19.1c0-0.9,1.7-2.9,3.7-4.2C280.7,221.2,282.6,220.2,282.8,220.4z"/>
	<path id="path40" fill="#FF8C00" d="M271.1,229.8c0.3,0.4,2.7,3.8,5.4,7.7c2.7,3.8,6.9,9,9.4,11.4l4.6,4.4l-3.5-0.7
		c-8-1.5-25.1-12.4-25-15.9c0.1-0.7,2-2.6,4.3-4.4S270.8,229.4,271.1,229.8z"/>
	<path id="path42" fill="#FF8C00" d="M266.8,246.7c5.4,4.1,13.2,8,18,8.9c1.7,0.3,3.2,1,3.2,1.5c0,2.1-3.5,2.1-7.7,0
		c-7-3.4-7.6-1.1-1,3.8l5.4,4.1l-1.1,4.9c-0.6,2.7-1.4,5.2-1.7,5.5c-1.1,1.1-19.9-29-19.9-31.9C262,243.3,264.1,244.7,266.8,246.7z"
		/>
	<path id="path44" fill="#800080" d="M362.2,286.1c0.2,12.4-4.6,18.9-14.1,18.9c-6,0-10.2-2.6-13.6-8.4c-8.1-13.8-6.9-32.7,2.4-37.6
		C350.3,251.9,361.8,264.2,362.2,286.1z"/>
	<path id="path46" fill="#FF8C00" d="M564.8,298c3.8,5.9,3.9,7,1,9.7c-4.6,4.2-14.9,8.1-14.8,5.5c0.3-4.1,4.1-18.6,5.1-19.3
		C559.2,292,561.5,293.1,564.8,298z"/>
	<path id="path48" fill="#DDA0DD" d="M328.2,295.2c2.6,2.1,2.8,4.5,0.7,7.2c-2.3,3-4.1,3.3-6.3,1c-2.2-2.1-2-5,0.4-7.4
		C325.3,293.7,326.1,293.6,328.2,295.2z"/>
	<path id="path50" fill="#FF8C00" d="M570.5,307.1l4.4,4.4l4.4,4.3l-2.8,3.6c-2.8,3.6-15.2,10.6-21.8,12.2c-4.2,1-6.9-1.9-6.1-6.5
		c1-5.7,2.1-6.9,7.8-8.5c3.3-1,7-3.1,9.7-5.5L570.5,307.1z"/>
	<path id="path52" fill="#DDA0DD" d="M339.3,311.9c3,1.2,5.1,6,4.2,10c-1.3,5.9-6.6,7.6-11.3,3.6c-4.2-3.5-4.3-7.6-0.3-11.6
		C335.1,310.7,335.7,310.6,339.3,311.9z"/>
	<path id="path54" fill="#FF8C00" d="M581.2,320.6c1.1,0.7,2.8,10.3,2.8,16.3c0,8.5-0.8,11.1-4.5,15.5c-2.8,3.4-3.6,3.8-5.5,3
		c-2-0.9-2.1-1.6-2.3-14.1l-0.1-13.2l4.5-3.9C578.5,322,580.8,320.4,581.2,320.6z"/>
	<path id="path56" fill="#FFFF00" d="M534.3,324.5c7.8,2,10.2,3.8,13.2,9.8c4.2,8.6,2.9,16.3-3.3,18.1c-4.9,1.4-3.3,3.1,2.9,3.1
		c3,0,5.7,0.4,6.1,0.9c0.4,0.6,2.5,0.2,5.3-0.8c2.5-1,4.9-1.5,5.2-1.2s-0.2,0.8-1.1,1.2c-3.4,1.3-1.6,2.7,2.9,2.1
		c3.4-0.5,4.5-0.3,4.5,0.7c0,1.4,9.9,7,10.9,6.1c0.3-0.3,0-1.5-0.7-2.6c-1.5-2.4,0.4-6.6,5.2-11.7c5.7-6.2,15.2-9.2,22.5-7.2
		c8.8,2.3,18.1,13,19.5,22.3c1.1,7.1,0,8.2-3.7,4c-1.8-2-4.6-4.2-6.4-4.9c-7.5-3.2-20.7-0.7-26.1,4.9c-3.5,3.6-3.5,3.5,1,15.2
		c1.1,2.7,2.3,8.1,2.5,11.9c0.6,6.5,0.5,6.9-1.3,6.2c-1-0.5-3.2-1.3-4.7-1.8c-2.8-1-2.9-1.2-2.5-7.2l0.3-6.1l-9.7-0.3l-9.6-0.3
		l-9.5-9.8c-5.2-5.4-11.4-12.8-13.8-16.5c-2.4-3.6-4.8-6.6-5.4-6.6c-0.5,0.1-2.1,0.7-3.5,1.4c-2.4,1.4-2.5,1.3-5.6-5.3
		c-4.5-9.1-9.9-14.2-15.8-14.8c-2.5-0.3-4.6-0.9-4.6-1.4c0-1.7,8.7-8.1,13-9.4C527.8,322.7,527.6,322.7,534.3,324.5z"/>
	<path id="path58" fill="#FF8C00" d="M568.8,341.3l0.3,9.7h-3.9c-3.2,0-4.1-0.4-4.5-2.1l-0.6-2.1l-3.4,2.1c-1.9,1.1-3.6,2.1-3.8,2.1
		s-0.3-3.5-0.2-7.7l0.1-7.8l6.4-2.2C568.6,330.1,568.5,329.9,568.8,341.3z"/>
	<path id="path60" fill="#FF8C00" d="M289.6,338.7c0.7,0.3,3.2,4.8,5.6,10.1l4.5,9.7l-4,0.3c-4.7,0.4-10.9-1.8-15.1-5.2l-3-2.3
		l2.6-5.9c2.1-4.9,3-6,5.4-6.5C287.2,338.6,289,338.5,289.6,338.7z"/>
	<path id="path62" fill="#9ACD32" d="M513,339c2.9,0,4.4,0.8,7.7,4.2c5.1,5.3,7.5,9.9,6.2,11.9c-0.5,0.8-0.8,3.1-0.7,5.2
		c0.3,5.4-1.9,7.3-6.6,5.7c-8-2.6-13.9-10.7-14-19.3c-0.1-3.7,0.4-5.2,1.8-6.3C508.5,339.6,511,339,513,339z"/>
	<path id="path64" fill="#FF8C00" d="M276.8,355c0.1,0,2.7,1.4,5.8,3.1c4,2.3,7.2,3.3,12,3.7c6.3,0.5,6.6,0.6,9.1,4.5
		c1.6,2.5,2.1,4.3,1.5,4.9c-1.6,1.6-14.3,2.8-18.8,1.8c-4.9-1.1-13-4.5-13.8-5.8c-0.3-0.5,0.5-3.4,1.7-6.5
		C275.5,357.5,276.6,355,276.8,355z"/>
	<path id="path66" fill="#7FFF00" d="M537.1,358c0.4,0,3.5,3.5,6.8,7.7c3.2,4.3,9.1,10.9,13,14.8c3.9,3.8,7.1,7.2,7.1,7.6
		c0,0.3-1.8,1.3-4.1,2.2c-3,1.2-4,2.1-3.7,3.4c0.3,1.6,1.3,1.8,7.2,1.5c6.5-0.3,7.3,0,17.9,5.3c6,3.1,11.3,5.8,11.8,6
		c0.4,0.3,0.5,1.4,0.2,2.5c-0.4,1.6-1.4,2-4.7,2c-2.2,0-5.7-0.3-7.7-0.6c-3.1-0.5-3.8-1.1-4.3-3.6c-0.6-3.2-2.8-3.4-3.4-0.4
		c-0.7,3.4,2.4,6.3,7.5,7c10.6,1.5,10.5,1.4,8.8,4.7c-1.8,3.4-1.9,3.4-7.5,1.4c-5-1.8-7-1.9-7-0.4c0,0.5,2.1,1.9,4.6,3
		c5.6,2.5,5,3.6-4.4,8c-6.2,3-6.6,3.1-7.9,1.3c-0.7-1-1.3-2.1-1.3-2.6c0-1.3-5.8-3.8-9-3.8c-3.9,0-9,4.7-9,8.4
		c0,4.3,3.8,7.6,9.7,8.3c4.7,0.5,5.4,0.3,7.7-2.2l2.5-2.7l1.2,2.5c0.7,1.6,0.8,3.5,0.2,5.4c-0.7,2.3-2.8,3.8-11.3,8.1
		c-10.7,5.3-24.2,10.2-28.4,10.2c-1.8,0-2.7-1-4-4.4c-0.9-2.4-2.6-5.2-3.6-6.1c-2.7-2.4-2.5-4.2,1-9.7c2.8-4.5,3-4.6,7-4.1
		c3.3,0.5,4.5,0.2,6.5-1.7c1.3-1.2,2.6-3.3,2.9-4.6c1.5-5.8-6-12.3-12.6-10.9c-2.5,0.6-3.6,0.2-6.5-2.6c-3.9-3.7-9.3-10.7-9.3-12.1
		c0-0.4,1.5-0.8,3.3-0.8c1.7,0,3.9-0.4,4.7-1c1.1-0.7,0.9-1.1-1.3-1.9c-1.6-0.6-3.9-1.1-5.3-1.1c-2,0-2.4-0.5-2.4-2.8
		c0-3.9,0.8-4.4,4.1-2.7c3.3,1.7,6.9,2,6.9,0.4c0-0.5-2.1-1.9-4.6-3l-4.6-2.1l2.5-2.6c1.4-1.5,3.7-5.3,5.1-8.5
		c2.7-5.9,4.1-7.5,3-3.2c-0.5,2.2-0.1,2.7,5.2,5c3.2,1.4,7.3,3.7,9,5c3.5,2.7,5.4,3.2,5.4,1.5c0-2.4-4.1-8.9-7.8-12.2
		c-4.8-4.4-7.7-5.4-9.9-3.6c-3.4,2.7,0.6-3,6.3-9.2C533.7,360.7,536.6,358,537.1,358z M520,389.8c-3.5,2.8-1.6,4.7,2,2
		c1.6-1.2,2.7-2.5,2.4-3C523.6,387.6,522.4,387.8,520,389.8z M524,391.9c-1.4,2.7-1.3,4.1,0.4,4.1c1.4,0,2.6-2.1,2.6-4.6
		C527,389.4,525.2,389.7,524,391.9z M546.2,393.2c-2.6-0.4-4.2,2.5-2.1,3.9c2.2,1.4,4.4,0.6,4.4-1.6
		C548.5,394.2,547.7,393.4,546.2,393.2z M534,398c-1.3,0-2.6,1.2-3.6,3.3c-1.5,3.1-1.5,3.6,0,6.5c1,2,2.7,3.4,4.4,3.8
		c4.9,1,5.2,1.3,5.2,4.2c0,4.6,2,9.1,4.3,9.8c2.5,0.8,6.7-3.5,6.7-6.7c0-2.8,1.8-5.9,3.4-5.9c2.1,0,4.8-3.7,4.4-6.2
		c-0.4-2.8-2.2-2.7-2.6,0.2c-0.2,1.2-1.5,2.6-2.8,3.2c-2,1-2.9,0.8-5.5-1.1c-2.7-2-3.4-2.1-6-1.1c-6.1,2.5-10.7-1.5-7.5-6.5
		c0.9-1.3,1.6-2.7,1.6-3C536,398.2,535.1,398,534,398z M568.6,405.6c-1,2.5,0.4,3.7,2,1.7c0.7-1,1.4-2.1,1.4-2.6
		C572,403.3,569.2,404,568.6,405.6z"/>
	<path id="path68" fill="#FF0000" d="M546.4,412.4c2.3,1.5,2.3,4.4,0.1,8.6l-1.3,2.5l-1.1-2.8c-1.2-3.2-1.4-8-0.4-9
		C544,411.3,545.3,411.6,546.4,412.4z"/>
	<path id="path70" fill="#9ACD32" d="M620.8,371.3c4.5,4.3,4.2,10.5-0.7,14.5c-3.5,2.8-11.3,6.3-15.4,6.8c-5,0.7-5.5,0.3-8.8-7.5
		c-2.1-5.1-2.2-5.4-0.5-6.7c1.9-1.3,1.4-5.2-0.8-6.6c-1.5-1-0.3-1.9,5.6-3.9C609.4,364.7,614.9,365.6,620.8,371.3z"/>
	<path id="path72" fill="#ADFF2F" d="M516.6,368.5c2,0.8,3.8,1.5,4,1.5c0.8,0-6.2,13.9-8.5,16.7c-2.5,3.1-5.4,4.2-6.5,2.5
		c-0.3-0.5,0.1-3.3,0.9-6.3s1.5-6.6,1.5-8s1.1-3.8,2.5-5.3C512.9,367,513,367,516.6,368.5z"/>
	<path id="path74" fill="#FF8C00" d="M277.2,373c6,2.4,8.8,2.9,15.9,3h8.6l0.7,5.2c1.5,11.4,7.9,23.5,17.7,34
		c2.7,2.9,4.9,5.3,4.9,5.5c0,0.1-1.9,1.3-4.2,2.7l-4.2,2.5l-6.1-3.2c-7.9-4.2-15.6-11.9-19.4-19.5c-3.2-6.3-6.2-17-5.8-20.7
		c0.1-1.2-0.4-2-1.3-2c-1.2,0-1.5,1.6-1.5,9c0.1,8.2,1.4,14.6,5.2,24.5c1,2.7-5.8-4.4-9.3-9.7c-1.9-2.9-4.6-8.1-5.9-11.7
		c-2.5-6.5-4.2-18.2-3.2-21C269.8,370.4,271.1,370.6,277.2,373z"/>
	<path id="path76" fill="#FF8C00" d="M314.3,376.3c4.8,3.7,18.5,10.9,29,15.2c6.1,2.6,7.1,3.4,9.3,7.6c1.3,2.7,2.4,5.1,2.4,5.4
		c0,0.9-14.9,7.5-16.9,7.5c-1,0-4.6-2.9-7.9-6.4c-5.3-5.7-8.2-10.6-12.1-19.9c-1.5-3.8-3.1-2.5-2.4,2.1c0.7,4.5,5.9,13.4,12.5,21.3
		c2.6,3.2,4.8,6,4.8,6.3c0,1.1-4,2.6-5.5,2c-3-1.2-13.6-14.8-17-21.9c-1.9-3.9-4-9.9-4.7-13.4c-1.2-5.9-1.1-6.4,0.7-7.7
		C309.1,372.5,309.4,372.6,314.3,376.3z"/>
	<path id="path78" fill="#ADFF2F" d="M504.8,375.9c0.4,1.2-5.4,18.1-6.6,19.3c-1.5,1.5-6.3-0.2-5.8-2.1c0.3-0.9,1-3.8,1.7-6.4
		c0.9-3.9,2-5.5,5.8-8.3C502.4,376.4,504.6,375.3,504.8,375.9z"/>
	<path id="path80" fill="#ADFF2F" d="M505.4,392.6c1,0.4,1.6,1.8,1.6,3.5c0,3.1-1,3.5-4,1.9c-1.7-0.9-1.8-1.4-0.8-3.5
		C503.5,391.7,503.3,391.8,505.4,392.6z"/>
	<path id="path82" fill="#9400D3" d="M479.5,395.1c1.1-0.1,6.8,1.3,12.8,3c8,2.4,10.5,3.5,9.7,4.4c-1.2,1.5-0.3,2.5,2.4,2.5
		c1.5,0,2.9,1.5,5,5.5c1.6,3.1,5.1,7.5,7.8,10c4.1,3.7,4.8,4.8,4.2,6.9c-0.3,1.4-0.1,3.9,0.5,5.6c0.9,2.7,0.6,3.8-2.5,9.6
		c-2,3.5-5.1,7.6-7,9c-3.6,2.8-3.8,5.3-0.8,10.1c0.8,1.2,1.4,2.4,1.4,2.6c0,0.1-8.3,0.3-18.5,0.3c-10.2-0.1-18.5-0.4-18.5-0.7
		c0-0.4,2.4-5.8,5.2-12c5-10.7,5.3-11.9,5.5-20.1c0.1-4.8,0.7-10.5,1.2-12.5c0.6-2.1,1.1-5.3,1.1-7.2c0-5-5.7-12.7-7.9-10.6
		c-0.3,0.3-0.1,1.2,0.4,1.9c4.5,6.1,4.6,6.4,3.9,11.6c-0.4,3.1-1.3,5.4-2.1,5.7c-0.8,0.3-3.8-0.4-6.7-1.6c-6.1-2.5-8.4-2.6-10.6-0.6
		c-1.6,1.4-1.9,1.1-3.9-4.1c-1.1-3.1-2.1-6.3-2.1-7.2c0-1,3.5-3.7,8.8-6.9C473.6,397.5,478.4,395.1,479.5,395.1z"/>
	<path id="path84" fill="#9400D3" d="M387.6,407.3c3.8,1.4,3.9,1.5,4.2,6.6c0.2,2.9-0.2,7.7-0.8,10.6c-1.1,5.2-1.2,5.4-4.8,5.7
		c-3.3,0.3-4,0.8-6.4,5.3c-1.5,2.7-3.7,5.8-4.9,6.8c-2.8,2.3-3.3,1.8-9.3-8.8l-4.6-8l4.7-4.7c3.5-3.6,4.4-5.1,3.6-5.9
		s-2.5,0.1-6.2,3.6c-2.8,2.6-5.1,5.5-5.1,6.5c0,3.2,8.2,16.7,18.4,30.3c10.9,14.5,20,24.7,30.9,34.3l6.8,5.9l-2.6,5.7
		c-1.4,3.2-3.2,8.4-3.8,11.7c-0.7,3.3-1.5,6.2-1.8,6.5c-0.9,1-17.6-6-25-10.4c-7.4-4.4-19-13.8-32.4-26.1
		c-11.7-10.7-18.9-16.8-28-23.4c-16.5-12-22.5-16.7-22.5-17.4c0-1.3,18-12.1,20.2-12.1c1.1,0,2.2-0.8,2.5-1.8c0.2-0.9,3-3.2,6.1-5.1
		c20.9-12.5,25.9-14.6,38.2-16.6C374.3,405,381.5,405.2,387.6,407.3z"/>
	<path id="path86" fill="#FAEBD7" d="M458.1,414.7c0.4,0.1,1.9,3.6,3.4,7.7c2.7,7.5,5.7,11.7,6.9,9.7c0.4-0.6,0-2.7-0.9-4.7
		c-1.5-3.6-1.4-3.9,0.4-5.7c2.4-2.4,5.7-1.6,4.6,1.1c-0.4,0.9-1.4,4.2-2.2,7.2c-3.5,13-13.6,24.6-38.3,43.9c-4.2,3.3-9.6,8.7-12,12
		c-2.5,3.4-4.8,6.1-5.3,6.1c-1.9,0-26.6-25.9-33.4-35l-7.2-9.5l3.4-2.7c1.8-1.6,4.1-4.8,5.1-7.3c1.3-3.6,2.2-4.5,4-4.5
		c2.2,0,2.3,0.3,1.8,4.7c-0.6,4.5-0.5,4.7,1,3.2c1-0.9,2.6-5.8,3.7-11.5c1.1-5.4,2.2-10,2.3-10.1c0.1-0.2,3.7,0.4,8,1.2
		c14.8,2.8,36.4,1.3,47.6-3.4C454.6,415.6,457.8,414.5,458.1,414.7z M397,442.4c0,0.9,3.8,2.9,9.8,5.2c11.1,4.3,12.8,5.4,8.7,5.4
		c-3.9,0-10.5,1.9-10.5,2.9c0,2,3.5,3.4,10,3.9c7.4,0.5,9.7-0.9,3.8-2.3c-3.1-0.8-3.1-0.8-0.8-1.2c9.8-1.6,11.7-4.8,4-6.9
		c-2.5-0.6-8.6-2.8-13.7-4.8C398,440.6,397,440.4,397,442.4z"/>
	<path id="path88" fill="#F5DEB3" d="M481.1,424.9c1.8,1.4,2.3,3,2.6,7.7c0.4,5.3-0.1,6.9-4.3,15.9c-2.5,5.5-5.2,11.6-5.9,13.5
		c-1,2.8-2.1,3.7-5.1,4.6c-3.8,1.1-5.9,3.4-3,3.4c0.8,0,4.5-0.7,8.3-1.6c5.3-1.2,10.3-1.5,22.3-1.1c27.9,0.8,39.1-1.3,63.3-12
		c11.3-5,18.6-7.6,22-7.9c5-0.5,5.1-0.4,3,1.2c-3.5,2.5-2.8,3.6,2,2.9c5.2-0.7,7.7,0.6,5.8,2.9c-0.8,0.9-1.9,1.6-2.5,1.6
		c-2.3,0-13.7,6.1-30.6,16.3c-18.3,11-20.4,11.8-33.7,13.7c-8.3,1.2-14.7,3.9-9.3,4c5.4,0,22.4-3.1,26.3-4.8
		c2.3-1.1,10.7-5.8,18.6-10.6c7.8-4.7,14.9-8.6,15.7-8.6c2.8,0,1.3,3-3.3,6.7c-2.7,2.1-10.9,9.9-18.3,17.4
		c-7.8,7.9-14.6,13.9-16,14.2c-1.4,0.3-8.6,1.5-16.2,2.8c-13.6,2.2-16.9,3.1-15.5,4.5c1.1,1.1,30.3-3.3,34.3-5.2
		c1.9-0.9,7.1-5.7,11.6-10.5c4.4-4.9,8.4-8.9,8.9-8.9c1.3,0-0.9,6.1-4.3,11.8c-4,6.5-14.7,16.8-20.3,19.3c-2.3,1-9.2,3.1-15.5,4.8
		c-6.3,1.6-12.7,3.4-14.2,3.9c-2.7,1.1-4.4,2.9-3.5,3.8c0.3,0.3,8-1.6,17.1-4.2c9.2-2.6,17-4.4,17.3-4c0.9,0.9-8.4,10.3-11.9,12.2
		c-1.5,0.8-8.7,2.4-16,3.5s-16.4,3.1-20.3,4.5c-3.8,1.4-12.6,4.5-19.5,6.9c-19.9,7.1-22.5,8.2-22.5,9.8c0,2.3-38.4,58.7-40,58.7
		c-3.2,0-12.8-4.4-17.3-7.9C381,602,373,586.9,373,575.6c0-4.4,0.4-4.9,17-24c18.1-20.9,17.5-19.8,20.4-35.6
		c1.7-9.6,8.4-24.1,14.2-30.9c1.9-2.2,9.4-8.9,16.7-14.8c7.3-5.9,15.5-13,18.2-15.8c5.5-5.4,11.4-15.8,13.9-24.4
		c0.9-3,2.2-5.8,2.9-6.3C478,422.7,478.5,422.8,481.1,424.9z"/>
	<path id="path90" fill="#ADFF2F" d="M531.8,426.2c0.2,1,1.2,1.8,2.3,1.8c1.4,0,1.9,0.7,1.9,2.8c0,3.4-1.6,5.2-4.6,5.2
		c-2.4,0-7.4-4.2-7.4-6.3c0-2,2.5-3.8,4.3-3.1c0.8,0.3,1.9-0.1,2.3-0.8C531.3,424.8,531.5,424.9,531.8,426.2z"/>
	<path id="path92" fill="#ADFF2F" d="M559.6,430.1c0.7,0.6,1.8,0.8,2.3,0.5c1.8-1.2,3.1,2.8,1.8,5.5c-2.4,4.8-11.7,2.8-11.7-2.6
		c0-2.9,1.6-4.1,3.5-2.5c1.2,1,1.6,0.9,2.1-0.4S558.6,429.2,559.6,430.1z"/>
	<path id="path94" fill="#F5DEB3" d="M592.5,429c1.4,0,3.5,5.5,4.5,11.5c0.6,3.8,2.7,11.9,4.6,17.8c5.3,16.6,5.3,17.3-0.1,30.7
		c-2.5,6.3-4.9,12.1-5.2,12.7c-1.2,3,2.6,1,4-2c5.3-11.3,8.7-21.2,8.7-25.1c0-2.4-1.8-9.7-4-16.4c-4-12.1-5.2-21.3-2.9-22.8
		c2.1-1.2,4.6,3.1,13.3,22.1c9.8,21.8,10,22.8,6.2,37.2c-2.5,9.9-2,14.8,0.9,7.9c4.9-11.6,5.9-33.3,1.7-36.5
		c-2.8-2.1-11.6-20.7-10.5-22.3c0.4-0.7,0.6-2.5,0.4-4c-0.3-3.7,1.3-3.5,4,0.4c1.3,1.8,6.8,8,12.2,13.8c5.5,5.8,10.6,12,11.4,13.9
		c2,4.7,2.8,18.5,1.4,25.3c-2.4,11.3-6,16.6-23.7,34.3c-9,9.1-16.4,16.7-16.4,16.9c0,0.3,1,0.6,2.2,0.8c2,0.3,7,10,17.4,33.5
		c1.4,3.2,1.4,3.3-4.8,10.4c-6.8,8-12.6,11.3-22.4,12.9c-7.5,1.2-17.2-0.2-23.8-3.4c-8.2-4-9.3-5.8-11.6-18.2
		c-3.5-19-7-32.6-9.5-35.8c-3.3-4.4-5.6-9.4-7.1-14.9c-1.1-4.3-1-5.4,0.6-9.1c1-2.3,3.6-5.7,5.8-7.4c5.8-4.6,13.1-15.9,16.1-24.8
		c2.3-6.8,3.2-8.3,7.1-11.2c8.3-6.2,8.2-6,7.8-10.3c-0.2-2.5,0.1-4,0.9-4.3c1-0.4,1.3,1.7,1.3,9c0,8.8-0.3,10.3-3.5,17.7
		c-1.9,4.4-3.5,8.9-3.5,10c0,3.8,2.5,0.9,6-6.9c3.2-7.3,3.5-8.8,3.8-19.7l0.4-11.9l4.3-1.9c4.2-1.9,5.5-3.4,5.5-6.8
		c0-2.1-4.6-6.6-7.7-7.6c-2-0.6-2.3-1.3-2.2-5.8c0.1-3.5,0.3-4.4,0.7-2.9c1,3.5,2.6,3.1,3.2-0.8c0.4-2,1-4.1,1.4-4.8
		C591.8,429.5,592.3,429,592.5,429z"/>
	<path id="path96" fill="#483D8B" d="M292.8,453c0.8,0,11,7,22.7,15.5c17.1,12.4,23.1,17.4,30.8,25.7c5.3,5.7,11.4,11.6,13.6,13.3
		c2.2,1.6,4.1,3.3,4.1,3.6c0,1.2-28,25-28.9,24.5c-0.4-0.3-1.1-1.9-1.4-3.5c-1.2-5.9-9.9-27.8-14.3-35.8
		c-5.7-10.6-14.5-22.3-24.1-32.4c-7.2-7.5-7.5-8-5.7-9.4C290.6,453.7,292.1,453,292.8,453z"/>
	<path id="path98" fill="#ADFF2F" d="M518.1,454.1c1.3-0.2,3.9,3.7,4.5,6.7c0.6,3.1,0.5,3.2-2.5,3.2c-2.5,0-3.6-0.7-5.1-3.3
		c-2.5-4-2.5-4.2,0.3-5.5C516.5,454.6,517.8,454.1,518.1,454.1z"/>
	<path id="path100" fill="#7B68EE" d="M280.1,464l3.2,1.6c1.8,0.9,4.9,3.3,7,5.3c4.6,4.3,16.7,23.1,23,35.8
		c5.9,11.6,16.2,36.3,15.2,36.3c-0.2,0-2.1-2.6-4.1-5.8C305.3,508,277.2,480,267,480c-3.2,0-2.3,1.6,1.8,3.2
		c13.7,5.4,46.1,41.8,57.8,64.9c1.9,3.8,3.4,7,3.4,7.3c0,0.2-0.9,0.2-2-0.1s-2-0.2-2,0.2c0,1.2,4.5,8.8,10.2,17.2
		c2.6,4,4.8,7.9,4.8,8.7c0,3.3-4.5,12.6-6,12.3c-1.2-0.2-1.4,1-1.2,6.4l0.3,6.5l-8.3,8c-6,5.7-10.9,9.3-17.6,12.8
		c-5.6,3-10.3,6.2-11.6,8c-2.6,3.6-8.6,16.9-8.6,19.1c0,3.3,1.7,1.1,6.5-8.3c4.2-8.2,5.8-10.2,9.9-13c2.7-1.8,5.9-3.1,7.1-3
		c3,0.4,18.5-14,40.3-37.2c9-9.6,16.8-17.7,17.3-17.8c0.5-0.2,0.9,1.5,0.9,3.7c0,2.3,1.4,7.8,3.1,12.2c2.4,6.3,4.4,9.5,9.1,14.4
		c6.7,7.2,17.3,14.4,22.4,15.2l3.4,0.6l-2.2,3.6c-2.3,3.7-27.2,39.4-40.6,58.1c-20.5,28.6-35,40.9-55.7,47.3
		c-13.5,4.1-15.5,4.1-24.4-0.4c-6.4-3.2-9.6-5.7-17.2-13.7c-5.2-5.4-11.1-12.7-13.2-16.3c-6.8-11.6-7.2-13.9-7.1-45.9
		c0-25,0.9-40.5,3-55.7l0.6-4.3l2,2.6c1.4,1.7,2.4,2.2,3,1.6c0.7-0.7-0.6-3.9-3.8-9.4c-8.9-15.7-8.6-14.7-7.3-22.1
		c0.7-3.7,1.6-6.4,2.1-6.1c0.4,0.3,0.8,1.3,0.8,2.3c0,2.1,2.6,5.8,3.5,4.9c0.4-0.3-0.3-5.2-1.4-10.9c-2.5-12.3-2.7-26.4-0.6-43.9
		c3-23.7,3.7-25.3,18.7-38.5L280.1,464z"/>
	<path id="path102" fill="#483D8B" d="M366.8,514c0.7,0,4.3,1.8,7.9,3.9c3.6,2.2,9.9,5.4,14.2,7.2c4.2,1.7,9.1,3.8,11,4.5
		c3.1,1.3,3.3,1.6,1.9,3.2c-0.8,0.9-3.8,4.6-6.8,8.2c-12.8,15.3-56.8,61.5-57.7,60.6c-0.3-0.2,1.4-5,3.7-10.6l4.1-10.2l-2.5-5.4
		c-1.7-3.6-2.9-8.8-3.6-15.7c-0.6-5.6-1.5-12-2-14.2c-1.1-4.8-0.9-5,17-21.1C360.3,518.7,366.1,514.1,366.8,514z"/>
	<path id="path104" fill="#483D8B" d="M539.5,527.9l2.3,7.3c2.9,9.2,5,20,4.6,23c-2,13.4-3.4,33.2-2.5,34.1
		c1.4,1.4,2.7-2.1,3.6-10.1c0.4-3.5,0.9-6.2,1.1-6c0.6,0.7,3.4,21.7,4.4,33.8c0.6,6.3,3.5,29,6.4,50.5c3,21.4,6.4,47.2,7.6,57.2
		l2.1,18.1l5.8,12.9c3.2,7,7.7,16.5,10,21c5.1,10.1,5.2,14,1.1,23c-1.6,3.5-3,6.7-3,6.9c0,1.6-9.4,14.8-14.1,19.8l-5.4,5.8l-14,1.4
		c-14.9,1.5-63.6,3.7-64.4,2.9c-0.6-0.6,1.6-17.2,2.4-18.5c0.4-0.6,6-1,12.8-1c14.7-0.1,33.8-1.5,38.9-3
		c11.7-3.4,17.7-18.2,16.5-40.4c-0.9-15.3-1.5-17-9.3-24.6c-3.6-3.6-8.4-8.9-10.6-11.9c-4.2-5.5-16.8-30-16.8-32.4
		c0-3.5-2.6-4-11.3-2.3c-4.9,1-11.7,1.6-16.7,1.4l-8.3-0.3l8.7-7.5c9.3-8,29.1-29,30.9-32.8c2-4.3-0.5-3.6-4.6,1.3
		c-11.8,14.3-36.9,38-41.4,39.1c-1.3,0.4-2.6,0.5-2.8,0.2c-1-0.9-2.5-46.9-3-92.9l-0.6-50.6l10.9-4.2c13.9-5.3,14.7-5.5,32.5-8.6
		c15.4-2.6,17.4-3.4,23.2-9.5L539.5,527.9z"/>
	<path id="path106" fill="#483D8B" d="M457.5,556.6l0.7,9c0.4,4.9,0.7,30.3,0.6,56.4c0,38.8,0.3,49.6,1.6,58.9
		c0.9,6.3,1.6,12.8,1.6,14.3c0,2.8,0,2.9-4.7,2.2c-4.2-0.5-35.8,1.8-42,3.1c-1.2,0.3-3.3,2.5-4.9,5.2c-5.8,10.1-20.9,28.5-36.3,44.4
		l-10.3,10.7l-1,8.9c-0.5,4.8-0.8,13.7-0.6,19.8c0.3,9.9,0.6,11.5,3.1,15.7c5.7,9.8,18.8,12.6,43.7,9.4c6.9-0.9,22.2-2.1,34-2.6
		s23.9-1.2,26.8-1.6l5.2-0.6l-0.1,2.8c-0.1,4-2.2,15.7-3.1,17c-0.5,0.7-8,1.3-20.5,1.7c-10.9,0.4-29.9,1.6-42.3,2.7
		c-12.4,1-31.7,2.4-43,2.9c-11.3,0.6-25.3,1.3-31.1,1.6l-10.6,0.5l-6-8.7c-12.5-18.3-13.1-20.5-8.9-32.9
		c4.4-13.1,10.9-27.9,12.9-29.5c1.9-1.5,1.9-2.4,1.3-17.5c-0.4-8.7-1-16.9-1.3-18.1c-0.4-1.8,0.8-3,7.4-7.4
		c16.4-11,31.2-27.7,55-61.7c14.3-20.4,25.7-37.4,29.8-44.1c3.7-6.1,22.7-34.6,26-39.1c2.2-3,5.6-8.1,7.5-11.4
		c1.9-3.2,4.9-7.2,6.5-8.9L457.5,556.6z"/>
	<path id="path108" fill="#7B68EE" d="M626.8,587.8c0.7,0.9,3.3,4.8,5.9,8.7c2.6,3.8,6.4,9.5,8.4,12.5c5.1,7.5,14.1,25.3,16.9,33.1
		c3.1,9.1,3.8,23.9,1.5,32.5c-2.9,10.7-15.5,28.1-24.2,33.5c-4.1,2.6-8.4,2.1-16.9-1.6c-11.2-5-27-18.2-34.5-28.9
		c-7.2-10.2-9.9-19.3-17.3-58.6c-3.6-18.7-3.9-21-3.3-21c0.4,0,2.2,1.1,4.2,2.4c5.2,3.5,12.7,4.9,24.1,4.4
		c12.8-0.5,19.1-3.3,27.9-12.5C624.9,586.7,625.6,586.2,626.8,587.8z"/>
	<path id="path110" fill="#EE82EE" d="M462,701.5c2.5,1.5,0.8,5.5-4,9.8c-2.7,2.5-5,4.8-5,5.1c0,1.4,2.5,0.4,6.1-2.5
		c2.8-2.2,4-2.7,4.4-1.7c0.2,0.7,1.3,10.7,2.5,22.3c1.1,11.5,3.6,28.8,5.5,38.4c1.9,9.5,3.8,21.1,4.1,25.6l0.7,8.3l-6.4,0.6
		c-3.5,0.3-16.5,1.1-28.9,1.6c-12.4,0.6-28.1,1.7-35,2.6c-20.8,2.7-32.3,0.5-36.9-7c-2-3.2-4.5-18.5-3.5-21.1
		c0.3-0.7,3.4-3.5,6.9-6.3c11.3-9.1,34.2-38.6,51.7-66.6c5.6-8.9,5.5-8.9,17-9.7C451.7,700.2,460.3,700.4,462,701.5z"/>
	<path id="path112" fill="#EE82EE" d="M490.4,700.2l12.1,0.3l6,11.5c6.6,12.7,18,31.4,24.8,40.7c2.4,3.2,7.7,8.3,11.7,11.3l7.3,5.4
		l-0.6,7.5c-0.5,8-4.3,19.8-7.2,23.1c-3.6,4-9.9,5.2-33.5,6c-12.4,0.5-22.9,0.6-23.3,0.3c-0.5-0.3-0.7-1.4-0.4-2.4
		c1-3.6-1.2-21.4-4.2-34.9c-3.9-17.5-5.7-28.8-7.7-49l-1.6-16.4l2.3-1.8C478,700.2,479.9,700,490.4,700.2z"/>
	<path id="path114" fill="#4169E1" d="M565.9,839.8l1.8,10.2h-41.8H484v-8.4v-8.3l8.3-0.6c4.5-0.4,13.7-0.7,20.4-0.7
		c10.1,0,43-2.3,48.3-3.4C563.5,828.1,563.9,829.2,565.9,839.8z"/>
	<path id="path116" fill="#4169E1" d="M464.9,834.2l7.4-0.2l-0.7,5.2c-0.3,2.9-0.6,6.5-0.6,8v2.8h-74c-40.7,0-74-0.2-74-0.5
		s0.6-2.1,1.4-3.9c1.3-3.2,1.5-3.3,9.1-3.9c4.3-0.4,13.3-0.7,20.1-0.7c6.8,0,24.7-1.1,39.8-2.5c15-1.4,35.6-2.9,45.7-3.4
		C449.2,834.7,460.8,834.2,464.9,834.2z"/>
</g>
</svg>
