<?xml version="1.0" encoding="utf-8"?>
<!-- Generator: Adobe Illustrator 21.0.0, SVG Export Plug-In . SVG Version: 6.00 Build 0)  -->
<svg version="1.1" baseProfile="tiny"
	 id="svg2" inkscape:version="0.91 r13725" sodipodi:docname="UNADJUSTEDNONRAW_thumb_9c5.svg" xmlns:cc="http://creativecommons.org/ns#" xmlns:dc="http://purl.org/dc/elements/1.1/" xmlns:inkscape="http://www.inkscape.org/namespaces/inkscape" xmlns:rdf="http://www.w3.org/1999/02/22-rdf-syntax-ns#" xmlns:sodipodi="http://sodipodi.sourceforge.net/DTD/sodipodi-0.dtd" xmlns:svg="http://www.w3.org/2000/svg"
	 xmlns="http://www.w3.org/2000/svg" xmlns:xlink="http://www.w3.org/1999/xlink" x="0px" y="0px" viewBox="0 0 850 850"
	 xml:space="preserve">
<sodipodi:namedview  bordercolor="#666666" borderopacity="1" gridtolerance="10" guidetolerance="10" id="namedview330" inkscape:current-layer="svg2" inkscape:cx="120.20305" inkscape:cy="813.26565" inkscape:pageopacity="0" inkscape:pageshadow="2" inkscape:window-height="817" inkscape:window-maximized="1" inkscape:window-width="1440" inkscape:window-x="0" inkscape:window-y="1" inkscape:zoom="0.46171875" objecttolerance="10" pagecolor="#ffffff" showgrid="false">
	</sodipodi:namedview>
<g id="g6" transform="translate(0.000000,0.000000) scale(1.00000,1.00000)">
	<path id="path8" fill="none" d="M0,0h425h425v425v425H425H0V425V0z M299.1,84.8c-4,1.2-4.7,3.2-3.7,9.5c0.5,2.9,2.2,9,3.6,13.4
		c2.4,7.6,2.7,9,2.7,21c0.2,14.1,1.3,20.7,5.1,28.7c3.1,6.8,11.5,14.9,18.9,18.5l5.8,2.7l-5.4,5.6c-3,3-7.6,7-10.3,8.8
		c-11.1,7.5-18.4,16.2-22.7,27c-3.9,9.8-5.4,18-5,26.8c0.6,10.6,2.8,16.2,9,22.3l4.8,4.6l-4.1,3.8c-3.6,3.3-4.6,3.8-7.7,3.8
		c-5.3,0-11.8,2.2-15.1,5.1c-3.8,3.4-9.9,15.6-11.6,23.7c-2.1,9-1.4,15.5,2.3,24.8c1.7,4.1,3.1,8.7,3.1,10.2
		c0,6.6,5.5,18.3,10.9,23.3c2.4,2.2,3.4,2.2,6.4-0.2l2.4-2.1l2.4,3.2c4.8,6.2,10.3,9.5,14.7,8.6c1.2-0.2,3.6-1.9,5.2-3.7l3-3.3
		l1.8,1.7c1,1,2.7,1.7,3.9,1.7c1.1,0,2.5,0.7,3.1,1.7c1,1.6,12.8,10.8,13.9,10.8c0.3,0,2.7-1.4,5.1-3.1c6.2-4.1,9.4-8.5,9.4-13.2
		v-3.5l6.9,3.9c15.6,9,31.4,15.2,41.3,16.4l5.1,0.6l2,4.5c1.1,2.4,2,4.6,2,4.7s-1.2,0.7-2.5,1.3c-1.8,0.7-2.7,0.8-3.7,0.1
		c-1.3-1.1-4.5-0.6-19.9,3.3c-12.8,3.2-17.3,5.8-20.3,11.7c-1.5,3.2-2.3,4-3.9,4c-2.5,0-2.7,0.7-9.4,19.5
		c-15.3,43.6-14.3,41.3-16.9,42.1c-1.7,0.6-2.9,2-3.9,4.3c-0.8,1.8-4.6,7-8.3,11.3c-12.3,14.2-20.3,24.3-30.2,37.7
		c-11.2,15.2-14.4,20.8-12.9,22.6c0.7,0.9,0.6,2.6-0.7,7.6c-2.7,10.2-2.9,12.9-1.5,16.4c4.7,11.4,14.4,13.8,23.1,5.6
		c1.2-1.2,2.4-2,2.6-1.7c0.1,0.2,1,2.1,2,4.2c4.5,9.5,11,8.1,11-2.5v-4.4l2.7,0.5c3.2,0.7,4.9-0.9,9.1-8.6l2.9-5.3l1.2,2.4
		c1.7,3.4,15.4,50.3,19.8,67.7c1.4,5.7,2.1,7.3,3.4,7.5c1.2,0.2,2.5,3,6.1,13.9c8,24.2,8,24.2,8.3,48.2c0.2,20.3,0.3,21.5,2.5,28.2
		c4.2,13.6,15,31.6,20.5,34.2c5.6,2.7,19.6,1.4,22.7-2c1.3-1.5,1.4-2.2,0.5-6.4c-1.7-8.6-2-23.5-1.1-55.8
		c0.9-29.9,1.8-47.1,3.1-55.4c0.5-3.2,0.7-3.6,2.7-3.6c1.2-0.1,8-1.2,15-2.4c7.1-1.3,12.9-2.2,13.1-2.2c0.2,0.2,1.7,5.8,3.5,12.5
		c3.3,12.9,8.2,28.9,10.8,34.7c0.8,1.9,3.4,5.7,5.8,8.5c5.7,6.6,10.7,13.6,17.1,24.3c7.1,11.7,10.5,20.5,10.6,27.5l0.2,5.4l2.8-0.2
		c5.4-0.6,15.1-3.5,19.3-5.7c6.6-3.6,6.9-4.4,6.7-18.9c-0.2-18.3-1.9-26-9.6-41.8c-6.1-12.5-7.6-19-7.6-34.2
		c0-16.9,1.2-43.2,2.2-43.7c0.8-0.6,0.8-8.1-0.1-12c-0.6-2.7-0.5-3.1,1.7-4.6c1.3-0.8,3.2-2.8,4.2-4.4c3.2-5,2.8-17.2-0.6-25.2
		c-0.3-0.8-0.2-1.4,0.2-1.4s1.2,1.3,1.5,3c0.5,2.7,2.7,5.4,7.6,9.6c1,0.8,2.1,3.2,2.7,6.2c1.4,7.2,2.7,10.3,5.1,12.1
		c2.1,1.6,2.3,1.6,4.3,0.2c1.8-1.2,2.2-2,2.2-5.6c0-2.6-0.7-5.4-1.7-7.6l-1.7-3.3l3-2.5c3.4-2.8,5.1-7.6,4.2-12.4
		c-0.4-2.5-0.1-4.2,1.7-7.7c2.7-5.6,2.3-8.5-1.6-12.4c-2.2-2.2-2.8-3.6-3.3-7.2c-0.2-2.5-0.7-5.4-1-6.4c-0.5-1.9-0.5-1.8,4.8,0.5
		c10,4.6,22.3,5.3,30.1,1.8c7.6-3.4,9.9-9.5,7.7-20.2c-0.8-3.7-1.2-7-1.1-7.3c0.7-1.2,7.7-4,11.5-4.6c3.6-0.6,3.9-0.5,3.9,1.2
		c0,3.2,2.8,5.1,7.9,5.1c3.4,0,5.2,0.5,7.6,2.1c4.1,2.7,6.7,3.4,9.6,2.2c1.7-0.6,3.2-0.7,4.9,0c3.8,1.3,6.6-0.2,9.3-5.4
		c2.3-4.5,2.7-6.8,1.5-8.8c-0.5-0.7-0.2-2.1,0.8-3.7c1.8-3,1.9-3.7,0.7-6.9c-0.5-1.2-1-4.3-1.1-6.6c-0.2-5.5-2.1-7.7-6.2-7.7
		c-2.5,0-3.3-0.5-4.9-3c-2-3-7.3-6.1-10.7-6.1c-1,0-2.9,1-4.3,2.2c-2,1.7-3.2,2-4.7,1.7c-4.3-1.1-8.6,3.9-7,8.1
		c0.7,1.8,0.5,2.1-1.6,2.6c-4.2,0.9-6.1,3.9-6.6,10.1c-0.5,5.5-0.5,5.6-3.2,6.1c-1.4,0.3-4.6,1.5-7,2.7l-4.3,2.2l-2.4-2.1
		c-1.3-1.1-3.2-2.2-4.4-2.5c-1.1-0.2-2-0.7-2-1.1c0-0.2,2.3-1.8,5.1-3.4c12-6.8,19.8-17.8,19.8-27.8v-5h6.1c5.6,0,6.6-0.2,9.8-2.5
		c4.2-3.1,9.1-9.7,11.6-16.1c1.3-3.4,1.8-6.6,1.8-11.7c0.1-6.4-0.2-7.6-2.7-12.6c-3.4-6.9-10-13.2-15.4-14.8
		c-5.2-1.4-13.1-0.7-19.5,1.9l-5.3,2.2l-4.7-5.1l-4.7-5.1l5.5-1.3c7.9-1.8,13.9-5.2,19.6-11c6.4-6.4,9.5-12.5,9.5-18.4
		c0-4.2,0.2-4.5,3.6-6.8c4.6-3.3,10.8-10,12.9-14.2c4.7-9.2,5.4-23.1,1.7-34.1c-1-3-2.1-8.5-2.3-12.5c-0.4-5.7-1.2-8.3-3.5-13.3
		c-3.7-7.9-10-14.7-16.7-18.3c-4.7-2.5-6-2.8-12.6-3c-9-0.2-14.9-2.2-14.2-4.8c3.4-12,3.7-15.9,1.7-24.4
		c-2.6-10.7-5.6-15.2-18.3-27.7c-10.6-10.4-11.9-11.9-13.9-17c-7.9-20-22.7-34.4-38.9-37.7c-4.4-0.9-4.9-1.2-4.4-2.7
		c0.3-0.9,1.7-5.6,2.9-10.5c3.1-11.1,3.5-12.3,7-17.8c3.4-5.2,6.3-10.8,6.3-12c0-1.5-2.6-3.3-5.6-4.2c-6.1-1.7-28.3-3.7-40.8-3.7
		c-11.3,0-13.9,0.2-21.1,2.2c-15.9,4.2-27.4,12-32.6,21.9c-2.3,4.3-3.2,6.9-4.7,13.6c-0.3,1.5-1.7,2.8-4.6,4.3l-4.2,2.2l-3.5-1.8
		c-2.4-1.2-4.9-1.8-8.2-1.8l-4.8,0.1v-3.5c0-5.1-2.9-15.6-6-21.4c-3.7-7.1-10-13-17.3-16.8c-6.6-3.3-20.2-7.1-32.4-9.1
		C317.6,83.8,303.3,83.5,299.1,84.8z M172.7,88.8c-1,0-5.3,8.9-6.2,12.7c-0.4,1.7-0.1,2.7,1.6,4.2c1.2,1.1,2.2,2.4,2.2,2.8
		s-6.6,11.2-14.5,23.8c-8,12.7-14.4,23.4-14.1,23.7c0.2,0.4,4.2,3.2,9,6.1c44.2,27.8,53.7,33.8,54,33.8s7.1-10.6,15.2-23.7
		c11.2-17.9,15.2-23.6,16.1-23.2c0.7,0.3,2.4,0.7,3.8,0.9c2.2,0.3,3.1-0.2,7.2-4.8c2.7-2.8,4.7-5.6,4.7-6.3c0-0.7-1.2-1.1-3.9-1.1
		c-2.5,0-5.6-0.8-8.3-2c-4.2-2-4.3-2.1-3.3-4.6c1.4-3.7,0-6.8-4-8.7c-2.7-1.3-4.9-1.6-12-1.5c-6.3,0.1-9-0.2-10-1.1
		c-0.7-0.6-2.2-1.5-3.5-2c-1.5-0.6-2.5-1.8-3.2-4c-1.7-5-5.7-12.3-8.4-14.9c-2.9-2.8-6.6-3-9.3-0.5c-1.1,1-2.3,1.8-2.7,1.8
		c-1.3,0-7.6-6.9-8.5-9.4C173.9,89.8,173.2,88.8,172.7,88.8z M702.7,93c-1.4,0-3.2,0.6-3.8,1.2c-1,0.9-2,1-4.6,0.4
		c-1.8-0.4-6.4-0.8-10.2-0.8c-11.5,0-21.6,4.5-29.2,13c-4,4.4-7.3,9.8-6.5,10.6c0.2,0.2,1.9-0.5,3.7-1.7c2.2-1.5,3.8-2,5.3-1.7
		c2.9,0.7,5.8,4.2,5.8,7.1c0,2.7,0.6,3,3,1.2c0.8-0.7,3-1.2,4.6-1.2c3.7,0,6.5,3,6.5,7.1c0,3.3,0.2,3.4,3.1,1.2
		c1.2-0.9,2.4-1.7,2.8-1.7c1.1,0-16.6,35.9-18.4,37.5c-2.4,2.1-5.5,1.8-7.8-0.5c-1.7-1.7-2-2.5-1.5-6.1c0.4-3.7,0.2-4.2-1.2-4.6
		c-2.7-0.8-4.3,0.2-5.3,3.7c-3.7,12.2,12,20.8,20.6,11.5c1.1-1.1,5.9-10.2,10.8-20.3c4.9-10,9-18.4,9.1-18.6c0.6-0.8,1.2,0.8,1.7,4
		c0.5,3.6,1.1,4.2,2.7,2.2c1.5-1.7,5.1-2.4,7.6-1.3c2.5,1,4.2,3.9,4.2,7.1c0,2.4,0.6,2.5,2.8,0.8c2.7-2,7.4-1.6,9.6,0.8
		c1.6,1.7,1.8,2.7,1.4,5.4c-0.7,5.3,1.5,4.2,3.5-1.9c5.3-15.9,1.4-31.8-10.5-43c-3.1-2.8-5.6-5.8-5.7-6.5c-0.1-0.7-0.3-2.2-0.7-3.2
		C705.6,93.4,704.8,93,702.7,93z M85.6,105.4c-1.8,0-4.8,3.4-5.6,6.4c-0.6,2.2-0.8,2.2-3.7,0.7c-3.3-1.9-6.6-1.6-7.6,0.8
		c-1.6,3.5,0.4,8.1,5.8,13.6c5.4,5.4,13.8,11.3,15,10.5c0.5-0.3,1.7-3,2.6-6c3.2-10.2,1.6-22.7-3.2-25.2
		C88,105.8,86.5,105.4,85.6,105.4z M606.8,162.7c-1.2,0-6.2,4.9-6.7,6.5c-0.2,0.7-1.2,0.6-3.7-0.7c-3.9-2-4.9-2.1-6.6-0.3
		c-1.8,1.8-1.7,5.7,0.6,10.2c1.9,3.9,12,14.9,15.4,16.6c1.7,0.9,2,0.7,4-3.7c5.5-12.5,5.3-24.7-0.4-27.7
		C608.4,163.1,607.3,162.7,606.8,162.7z M748.4,217.7c-0.9,6,2.2,22.9,4.6,24.3c1.2,0.7,9.1-4.6,13.4-9c5.8-6,8-13,5.1-17
		c-1.5-2.2-4.6-2.3-7.8-0.6c-2.7,1.5-4.2,1.6-4.2,0.1c0-0.6-0.7-2.1-1.7-3.3C754.3,207.8,749.5,210.7,748.4,217.7z M692.9,275
		c-5.7,4.4-9.5,11.7-10.3,20.1c-0.4,5-0.7,5.7-4,9c-5.1,5.1-6,8.7-4.2,19.3c6.6,40.8,6.3,40.1,13.9,43.9c7.8,3.9,6.7,4.2,60.3-12.8
		c12.2-3.8,15.9-6.2,18.5-12c3-6.6,2.4-9-7.6-30.3c-5.1-10.7-10.2-20.6-11.4-21.9c-3-3.2-8.1-5.5-12.3-5.5c-2.7,0-3.7-0.4-4.8-2
		c-2.5-3.9-7.6-8.2-12-10.3C710.4,268.4,700.1,269.4,692.9,275z M220.8,281.5c-1.6,0.2-3.2,1.2-5.6,3.6c-2.5,2.3-2.8,2.4-3.6,1.1
		c-1.3-2.3-5.5-4.1-7.3-3.2c-2.5,1.3-3.6,5.6-2.5,9.5c1.3,5,6.3,14.1,9.9,18.1l3.1,3.5l2.2-2.4c6.6-7.6,10.6-18.8,9-24.6
		c-0.5-1.7-1.7-3.7-2.8-4.5C222,282,221,281.4,220.8,281.5z M99.6,291.3c0,1-1.4,2.6-3.7,4.2c-7.8,5.4-14.4,15.4-16.4,24.8
		c-1.7,8.1,0.3,23.4,3.2,23.4c0.7,0,1.1-1.1,1.1-2.9c0-5.9,6.2-9,10.8-5.4c2.8,2.2,3.1,2.1,3.7-1.2c0.7-3.2,3.9-6.2,6.8-6.2
		c1,0,3,1,4.4,2.2c2.7,2.2,2.7,2.2,3.8-2.6c0.4-2,0.7-2.2,1.3-1.1c0.7,1.3,11.6,28.9,13.6,34.6c2.7,7.7-5.1,12.6-9.9,6.3
		c-2.4-3.1-4.6-3.7-6.3-1.7c-1.5,1.8-0.5,4.6,2.8,7.8c4.1,3.9,9.9,4.6,14.5,1.5c3.5-2.3,5.9-6.6,5.9-10.4c0-1.3-3.4-11.1-7.5-21.7
		c-4.2-10.6-7.4-19.7-7.3-20.1c0.2-0.4,1.7,0.2,3.4,1.3c1.7,1.2,3.1,2,3.2,1.9c0-0.1,0.2-0.9,0.3-1.7c0.8-4.4,1.5-5.6,3.7-6.7
		c3.3-1.7,4.5-1.6,7.3,0.8c1.4,1.2,2.7,2.1,2.9,2.1c0.2,0,0.6-1.5,0.9-3.3c1-6.2,7.9-8.4,11.7-3.7c3.7,4.4,4,1.1,0.5-5
		c-4.5-7.9-12.8-14.9-21.5-18.1c-3.9-1.5-6.6-1.8-14.9-1.8c-7,0-10.5-0.3-11.1-1.1C104.2,284.6,99.6,287,99.6,291.3z M683.2,409.1
		c0,2.6,0,2.6-4.6,2.6c-3.7,0-4.6,0.3-5.4,1.7c-1.9,3.5,1.5,8.4,8.7,12.5c4.9,2.8,13.6,5.8,16.7,5.8h2.2l-0.5-7.7
		c-0.6-9.5-2.9-16.1-6.9-19.6C688.1,399.7,683.2,402,683.2,409.1z M244.5,436.3c-1.3,1.6-3.9,3.7-5.7,4.6l-3.3,1.7l-2.3-2.6
		c-4.4-4.9-10.2-2.5-16.9,7c-2.2,3-4.5,5.4-5.2,5.4c-0.8,0.1-2.3,0.6-3.4,1.2c-1.7,0.9-2.8,0.8-8.3-0.9c-4.6-1.5-7.6-2-10.8-1.7
		c-5.2,0.4-6.7,1.8-6.7,6.5c0,3.1-0.1,3.2-3.9,3.7c-2.2,0.3-5.4,0.2-7.1-0.2c-1.8-0.5-3.4-0.6-3.7-0.2c-0.6,0.9,3.7,9.4,5.8,11.7
		c1.2,1.2,2.2,1.6,4.3,1.2l2.7-0.4l7.7,23.2c4.2,12.7,8,23.6,8.3,24.2c0.7,1.2,64.7-19.8,64.7-21.2c0-0.5-3.5-11.5-7.8-24.4
		l-7.9-23.4l2.6-1.3l2.6-1.3l-0.5-6.4c-0.2-3.5-0.7-7.1-1.1-7.8C247.8,432.8,247.3,433,244.5,436.3z M108,448.2
		c-2.4,0-4.9,2.7-5.5,6.1l-0.6,2.8l-5.1-0.1l-5.1-0.1l-0.2,2.7c-0.3,3.7,1.7,7.2,6.7,11.1c4.2,3.4,14.9,9,16.9,9
		c1.4,0,2.2-5,2.2-12.5c0-8.2-1.4-12.9-4.8-16.4C111,449.5,109,448.2,108,448.2z M767.5,450c-0.5,0-2,1.3-3.3,2.9
		c-2.3,2.8-7.6,6.1-9.9,6.1c-0.6,0-1.9-1.2-2.9-2.5c-4.2-5.6-12-1.7-20,10.1c-1.8,2.7-3.2,4-4.5,4c-1,0.1-2.7,0.6-3.8,1.2
		c-1.7,0.9-2.7,0.8-7.5-0.8c-3.7-1.3-7.4-2-11.4-2c-6.9,0-8.6,1.2-9.4,6.8c-0.5,3.3-0.7,3.6-3.8,4.2s-7.9,0.3-10.7-0.7
		c-2.8-1.1-0.3,5.9,4.3,12c1.8,2.5,2.4,2.7,5.2,2.3l3.2-0.4l8.8,26.5c4.9,14.6,9.3,26.5,9.8,26.5c1.5,0,69-22.5,69.8-23.3
		c0.6-0.5-12.5-41.8-16.5-52.4c-0.3-0.7,0.6-1.7,2.5-2.6c2.6-1.2,2.9-1.7,2.9-4.4c0-1.7-0.4-5.4-1-8.3
		C768.8,452.3,768,449.9,767.5,450z M86.6,566.1c-1.6,0-4.2,2.6-5.2,5c-2.1,5.1,0.4,23.7,3.7,27.1c0.7,0.7,2.2,0.1,6.6-2.8
		c9.5-6.4,15.4-16.3,12.9-21.7c-1.3-2.7-5.1-3.4-9-1.4c-2.2,1.2-2.7,1.2-3.3,0.2c-0.4-0.6-0.7-1.3-0.7-1.6s-0.9-1.5-2.1-2.7
		C88.2,567.1,86.9,566.1,86.6,566.1z M649.8,576.4c-4.2,1.2-5.2,1.8-10,6.1c-2.2,2.1-3.9,2.9-6.4,3.1c-7.2,0.6-9.3,2.8-20.6,21.9
		c-7.4,12.6-8.5,16.1-7,21c1.9,5.6,5.1,7.7,28.4,17.3c12,5.1,22.9,9.4,24.2,9.6c5.4,1.1,11.7-2.1,14.4-7.2c0.6-1.2,3.1-9.6,5.4-18.6
		c4.7-18.6,4.7-20.7-0.3-25.6c-2.2-2.3-2.7-3.2-2.3-5.7c0.8-7.4-4.5-17-11.5-20.6C659.9,575.7,654.4,575.1,649.8,576.4z
		 M754.1,583.2l-2.8,3.1l-2.6-2.2c-3.8-3.2-6.4-2.9-8,0.8c-1.2,2.7-1.2,3.5,0.1,7.3c0.7,2.3,2.2,5.7,3.3,7.6
		c2.4,4.2,9.4,12.8,10.3,12.8c1.1,0,6.6-8.8,8.5-13.5c2.4-6,2.5-13,0.2-16.1C760.5,579.4,757.5,579.5,754.1,583.2z M169.5,633.2
		c-2.7,2.7-4,3.3-7.3,3.7c-2.2,0.2-5.1,1.1-6.4,1.9c-2.7,1.7-19.3,28.9-20.5,33.5c-1.1,4,0.2,8.5,3.4,12.1c2.4,2.7,13,7.6,40.5,18.7
		c9.7,3.9,14.9,4.2,19,1.1c4-3,5.1-5.6,9.4-22.7c5-19.3,5-21.2,0.3-26.2c-2.5-2.6-2.9-3.7-2.9-6.9c0-8.9-4.1-16.1-11-19.5
		C185.8,624.7,176.3,626.4,169.5,633.2z M277.2,653.7l-2.7,2.9l-2.2-2c-3.7-3.6-6.3-3.6-8.2,0.1c-1.5,2.9-1.1,6.1,1.5,11.5
		c2.6,5.6,9.6,15.3,11.5,15.9c1.6,0.7,3.6-1.9,7.4-9.3c2.3-4.6,3.1-7.1,3.4-11.6c0.3-5.1,0.1-6.1-1.5-8.1
		C283.8,649.8,280.6,650,277.2,653.7z M608.4,690.6c-3.9,0-5.8,3.8-5.7,11.6c0,6.7,3,20,4.6,20.5c1.7,0.6,11.4-6.7,15-11.2
		c7.7-9.5,6.1-18.9-2.8-16c-1.7,0.6-3.5,1.2-4,1.4c-0.4,0.2-1.7-1.2-2.7-3C611.3,691.2,610.4,690.6,608.4,690.6z"/>
	<path id="path10" fill="#5599FF" d="M316.3,86c10,1,18.8,3,22.4,5.1c4.6,2.7,22.9,20.8,33.5,33.4c7.5,8.8,8.1,9.7,7.6,12.4
		c-0.5,3.1-1.3,4.4-1.9,2.7c-1.1-3-8.1-12.2-13.9-18.3c-13.4-14-28.9-25.6-41.5-31c-4.1-1.7-8.2-3.5-9.1-3.9
		C312.3,85.8,313.2,85.7,316.3,86z"/>
	<path id="path12" fill="#0066FF" d="M335.8,99.9c15.6,10.5,34.4,29.6,40,40.7c1.7,3.4,1.9,4.6,1.3,7.1l-0.7,3l-1.9-3.6
		c-6.9-13.4-15.1-21.5-20.9-20.7c-0.7,0.1-3.2-2.2-5.6-5c-7.1-8.5-23.2-20.1-41.7-30c-4.3-2.3-7.1-4.3-6.5-4.6
		C305.1,84.8,323.1,91.3,335.8,99.9z"/>
	<path id="path14" fill="#5599FF" d="M297.6,89.6c1.1,0,11.3,5.6,19.4,10.5c12.9,7.9,21.2,14.1,26.7,19.9c6.1,6.5,6.9,8.1,5.3,9.4
		c-0.9,0.7-1.8,0.2-4.6-2.4c-4.2-4.1-19-14.2-34.1-23.3c-6.1-3.7-11.6-7.3-12.1-8.1c-0.6-0.7-1.1-2.4-1.1-3.7
		C297.2,90.7,297.3,89.6,297.6,89.6z"/>
	<path id="path16" fill="#0066FF" d="M344.9,91.3c2.2,0,12.4,4.2,16.4,6.8c7.7,4.9,14.2,14.4,16.9,24.7c0.7,2.9,1.2,5.4,1,5.6
		s-4.6-4.6-9.9-10.6c-5.3-6.1-13.2-14.5-17.5-18.8C347.3,94.8,344.2,91.3,344.9,91.3z"/>
	<path id="path18" fill="#0066FF" d="M457,97l13.7,0.5c7.6,0.2,15.1,0.7,16.9,1.1l3.2,0.7l-7.3,2.7c-4.1,1.4-10.6,3.6-14.6,4.7
		c-13.5,4.1-34.6,15.9-53,29.9c-3.9,2.9-7.1,5.2-7.1,5.2c-0.1-0.1,0.1-1.7,0.4-3.7c0.4-3.2,1.2-4.1,6.7-8.6
		c14.6-12,30.7-24.8,35.7-28.5L457,97z"/>
	<path id="path20" fill="#5599FF" d="M448.7,98.9c2.1-0.1,2,0-10,9.2c-5,4-13.4,10.7-18.7,15c-5.2,4.4-9.7,7.8-9.8,7.6
		c-0.2-0.2-0.1-1.4,0.2-2.8c0.4-1.8,3.6-5.4,11.3-12.7c11.7-11,15.2-13.5,21.3-15.2C445.3,99.4,447.7,98.9,448.7,98.9z"/>
	<path id="path22" fill="#0066FF" d="M303.5,102.2c15.6,8.8,39.4,25.2,41.3,28.3c0.6,1,0.2,2-1.8,4.4c-2.2,2.4-2.5,3.2-1.8,4.6
		c1.1,2.1,1.2,2.1-4.6-0.5c-2.7-1.2-11-4.6-18.6-7.5l-13.7-5.2l0.2-3.6c0.2-3.2-0.5-6.2-5.3-21.7C298.7,99.6,299.4,99.9,303.5,102.2
		z"/>
	<path id="path24" fill="#5599FF" d="M501.1,100c6.4,0.7,8.7,1.7,8.4,3.9c-0.2,1.8-0.6,1.9-6.6,1.7c-13.8-0.6-34.4,7.1-62.8,23.5
		c-6,3.4-11.5,6.2-12.1,6.2c-2.5,0-10.4,4.4-15.8,8.9c-3,2.4-5.4,4.1-5.4,3.6c0-3.2,26-21.6,44-31c4.8-2.6,15.4-6.7,27-10.6
		C494.5,100.4,497.3,99.6,501.1,100z"/>
	<path id="path26" fill="#0066FF" d="M506.9,108.2c0.2,0.2-1,2.4-2.7,5.1c-1.7,2.6-3.4,5.7-3.9,7.1c-0.7,2.1-1.5,2.6-6.6,3.7
		c-9,2.1-32.5,9.4-43.2,13.4c-5.3,2-10,3.7-10.5,3.7s-1.2-0.9-1.7-2.1c-0.6-1.2-1.6-2.3-2.2-2.6c-0.7-0.3-1.2-0.8-1.2-1.2
		c0-1.1,14.8-9.5,26.8-15.3c12.3-5.9,23.2-10,31.3-11.6C497.8,107.2,505.9,107.2,506.9,108.2z"/>
	<path id="path28" fill="#5599FF" d="M425.7,107.9c0.7,0-6,6.6-8.5,8.5l-2.4,1.7l2-2.7c1.1-1.5,3.5-3.8,5.2-5.1
		C423.8,109,425.5,107.9,425.7,107.9z"/>
	<path id="path30" fill="#5599FF" d="M498.3,127.3c-0.3,1.7-1,2-4.3,2.4c-5.3,0.7-42.3,12.4-52.5,16.8c-1.2,0.4-1.5,0.2-1.5-1.1
		c0-2.7,10.7-6.6,51.9-18.8C497.9,124.9,498.7,125,498.3,127.3z"/>
	<path id="path32" fill="#5599FF" d="M305.3,129.1c0.7,0.3,3.3,1.2,5.6,2.1c7.6,2.7,25.2,9.9,29.6,12.1c2.4,1.2,5.9,3.8,7.9,5.8
		c3.5,3.6,10.6,8.6,12.2,8.6c0.4,0-0.8-1.1-2.9-2.4c-5.2-3.4-9.5-7.3-8.9-8c1.1-1.1,9,3.5,18.2,10.3c14.9,11.1,13,11.3-7.7,0.7
		c-16.5-8.5-32.5-15-46.5-19.1l-9-2.6v-4.1C303.8,129,304,128.6,305.3,129.1z"/>
	<path id="path34" fill="#0066FF" d="M373,149.2c3.7,7.3,3.7,8.2,0.5,4.3c-1.3-1.7-7.3-7.1-13.3-12c-5.9-5-10.8-9.3-10.8-9.6
		s0.8-1.2,1.8-1.9C357.1,125.8,364.7,132.5,373,149.2z"/>
	<path id="path36" fill="#0066FF" d="M496.6,131.6c0.7,0.4-1.2,7-3.7,13.6c-1.7,4.3-2,4.5-5.1,4.8c-5.2,0.4-43.3,10.4-50.6,13.1
		c-1.2,0.5-1.2,0.2-0.1-2.5c0.7-1.7,1.7-4.8,2.2-7.1l0.8-4.2l8.5-3.3c9.5-3.7,31.9-10.9,41.3-13.3
		C493.1,132.1,496.2,131.5,496.6,131.6z"/>
	<path id="path38" fill="#0066FF" d="M347,133.6c1.2,0,20.8,16.8,25.2,21.7c5.7,6.4,4.7,7.3-2.2,2.1c-8.3-6.2-15.2-10.2-20.3-11.9
		c-3.5-1.1-4.6-1.9-6.1-4.5l-1.7-3.2l2.1-2.1C345.1,134.6,346.5,133.6,347,133.6z"/>
	<path id="path40" fill="#0066FF" d="M432.2,137c1.2,0,5.2,3.7,5.2,4.8c0,0.4-3.8,2.6-8.5,5c-4.7,2.3-11.9,6.4-15.9,9
		c-4.2,2.7-8.1,5.2-8.7,5.6c-0.7,0.4-0.1-0.7,1.4-2.6c4.2-5.3,14.9-15.1,20.3-18.7C428.8,138.5,431.6,137,432.2,137z"/>
	<path id="path42" fill="#003380" d="M387.9,137.8c0.4,0,0.6,1,0.2,2.2c-3.2,14.6-4.3,29.1-2.7,33.9c0.3,0.9,0,0.6-0.8-0.7
		c-1.2-2.1-1.3-4.1-0.9-12.5c0.2-5.6,1.1-12.9,1.8-16.5C386.4,140.7,387.4,137.8,387.9,137.8z"/>
	<path id="path44" fill="#003380" d="M383.2,138.6c1,0,1.2,0.6,0.7,2.7c-3,14.6-3.7,27.2-1.7,32c1.4,3.4,1.6,4.7,0.4,4
		c-0.4-0.2-1.6-3.2-2.6-6.3c-1.5-5-1.7-7.2-1.3-14.7c0.2-4.9,1-10.9,1.7-13.3C381.4,140.1,382.3,138.6,383.2,138.6z"/>
	<path id="path46" fill="#003380" d="M391.4,138.6c0.5,0,3.9,1.7,4.5,2.2c0.2,0.2-1.1,1.8-2.9,3.7c-2.4,2.6-2.7,3.2-1.2,2.4
		c1.8-0.9,1.9-0.9,1.5,0.9c-0.9,3.7-2.4,19.9-2,21c0.2,0.7-0.4,2-1.5,3l-2,1.9l-0.6-2.3c-1-4,1.3-25.7,3.4-31.8
		C390.7,139.1,391.1,138.6,391.4,138.6z"/>
	<path id="path48" fill="#003380" d="M406.7,139.9c0,0.6-1.6,6-3.4,11.8c-3.3,10.2-4.2,17.2-3.1,23.9c0.2,1-0.2,1.7-0.9,1.7
		c-3,0-3-9.2,0-26.6c1.2-7.1,1.9-9.5,3.3-10.6C404.8,138.3,406.7,138.2,406.7,139.9z"/>
	<path id="path50" fill="#0066FF" d="M304,139.3l2.8,0.6c3.6,0.7,19.3,5.9,28.6,9.6c3.9,1.5,13.8,6.1,22,10.4
		c8.2,4.2,15.9,7.8,17.3,8.1c2.7,0.7,2.9,2.2,0.6,4.2c-1.7,1.5-2.4,1.4-32.5-4.6c-30.7-6.1-30.8-6.1-32.4-8.6
		c-2.2-3.6-4.6-10.2-5.5-15.3L304,139.3z"/>
	<path id="path52" fill="#5599FF" d="M418.9,141.9c0.1,0-3.1,3.2-7.1,7.2c-4,4.1-7.4,7.2-7.6,7.1c-0.7-0.4,5.8-7.5,9.9-10.7
		C416.7,143.6,418.9,141.9,418.9,141.9z"/>
	<path id="path54" fill="#0066FF" d="M398.1,144.7c-1.2,5.2-3.1,19-3.2,24.2c-0.1,7.4-1.3,4.9-1.4-2.8c-0.1-5.3,1.9-21,2.8-22.5
		C397.4,142,398.6,142.8,398.1,144.7z"/>
	<path id="path56" fill="#5599FF" d="M438.3,146.4c0,0.7-3.2,2.9-7.1,5.1c-6.1,3.3-18.1,10.7-19.4,12c-1.6,1.6-9.1,7.5-9.5,7.5
		c-0.2,0-0.4-1.2-0.2-2.7c0.2-2.2,1.2-3.3,8.1-8c4.2-3,11.9-7.6,17-10.2C436.7,145,438.3,144.5,438.3,146.4z"/>
	<path id="path58" fill="#800066" d="M495.1,146.9c2.6,0,10.3,2.5,14.5,4.6c18.3,9.3,29.4,28.6,35.4,61.8c2,11.4,2,34.3-0.1,41.2
		l-1.5,5.1l-4.3,0.5c-2.3,0.3-5.9,1.5-7.8,2.6l-3.5,2v-3.2c0-6.1-1.8-16-4.2-23.6c-2.5-7.6-8.4-19.3-11.5-23
		c-0.9-1.1-0.2,0.8,1.7,4.4c7.1,13.4,10.9,27,11,39.7l0.1,7.9l-3.5,5.1c-1.9,2.8-4.4,7.1-5.5,9.5c-1.1,2.5-3.2,5.7-4.8,7.2l-2.8,2.7
		l1.2-6.4c1.6-8.8,1.5-28.3-0.2-40.8c-3.8-28.4-10.4-43.1-28.2-63.3l-6.1-7.1l4.3-3.9c2.4-2.1,5.6-5.7,7.2-8.1
		c1.6-2.3,3.2-4.2,3.7-4.2c0.5,0,3.7,2.8,7.1,6.3c6.5,6.6,6.4,6.9-0.1,2.2c-2.2-1.5-4.1-2.7-4.4-2.7c-1.9,0,0.7,2.6,9,8.7
		c10.1,7.6,15.1,13.5,23.6,28.1c2.1,3.5,3.9,6.3,4.1,6.1c0.5-0.5-4.3-9.9-9.5-18.1c-5.8-9.5-12.9-18.3-21.6-27.3l-7.1-7.2l1.7-3.4
		C494,148.4,494.9,146.9,495.1,146.9z"/>
	<path id="path60" fill="#0066FF" d="M437,151.1c1,0-0.2,6.6-1.8,10c-1.9,4-5.7,5.2-12.7,4.1c-2.8-0.4-5.6-1.1-6-1.3
		c-0.9-0.5,3.4-3.5,12.7-8.7C433.1,152.9,436.5,151.1,437,151.1z"/>
	<path id="path62" fill="#5599FF" d="M488.7,154c-0.5,1.2-1.6,2.1-2.4,2.1c-1.7,0-20.3,5.1-38.9,10.7c-7.6,2.2-17.8,5.2-22.8,6.7
		c-5,1.4-10.8,3.6-12.8,4.6c-2.7,1.5-3.9,1.7-4.7,1.1c-1.8-1.5-1.4-2.1,3.7-4.3c12.3-5.5,50.6-17.2,69.6-21.2
		C490.2,151.5,489.9,151.5,488.7,154z"/>
	<path id="path64" fill="#0066FF" d="M485.6,159.3c0,0.5-2.1,3.1-4.6,5.9c-6.6,7.1-25.8,18.8-36.9,22.4c-6.7,2.2-16.2,2.4-22,0.4
		c-4.4-1.5-11.2-5.4-11.2-6.4c0-1.3,6.9-4,21.2-8.1c8.2-2.4,23-6.7,32.8-9.5C483.4,158.5,485.6,158,485.6,159.3z"/>
	<path id="path66" fill="#0066FF" d="M316.3,164.5c1.2,0.2,13.1,2.6,26.6,5.2c13.4,2.6,25.2,5.1,26.1,5.4c1.5,0.6,1.3,0.8-1.4,2
		c-4.2,1.8-5.3,1.7-20.4-1.2c-24.8-4.8-27-5.5-30.1-8.8C314.3,164.3,314.3,164.2,316.3,164.5z"/>
	<path id="path68" fill="#0066FF" d="M414.5,164.4c0.7,0,5.1,1.2,8.8,2.2c0.7,0.2-2.4,1.8-6.9,3.6c-4.5,1.7-9,3.7-10.2,4.5
		c-2,1.3-3.7,1.2-3.7-0.3c0-0.4,2.5-2.8,5.6-5.3C411.3,166.4,414.1,164.4,414.5,164.4z"/>
	<path id="path70" fill="#800066" d="M378,172.9l1.5,3.2c2,4.5,3.5,4.8,6.8,1.7l2.7-2.7l4.1,2.2c2.6,1.3,5.1,2.1,7.1,1.9
		c2.4-0.1,3.7,0.4,6.5,2.8c7.9,6.7,19.2,10.4,29.2,9.5c5.1-0.4,5.7-0.3,9.5,2.1c6,3.8,13.1,11.4,15.7,16.7
		c3.1,6.2,3.1,10.8,0.1,19.8c-2,5.9-2.4,8.5-2.4,15.9c-0.1,9.8,0.7,11.8,6,15.2c1.4,0.9,2.6,2.1,2.7,2.7c0,1.7-5.5,8.1-8.7,10
		c-3.2,1.8-3.2,1.9-0.8,1.4c3.7-0.7,8.1-4.6,10.7-9.5c1.8-3.4,2.5-6,2.9-11.4c0.3-3.7,0.8-7.1,1.2-7.5c1.1-1.1,4.6,3.1,5.9,7
		c1.7,4.7,1.7,11.8,0.1,15.5c-1.8,4.6-9,11.6-13.9,13.7c-5.4,2.3-13.9,2.5-21.2,0.4c-2.8-0.8-5.1-1.6-5.1-1.7s1-1.3,2.2-2.6
		c13.4-14.1,5.9-43.5-13.2-52.2c-7.4-3.4-16.2-3.7-22.3-1c-5.9,2.7-9,5.6-11.8,10.5c-5.8,10.8-0.3,22.7,12.7,27.6
		c4,1.5,5.1,1.6,8.1,0.7c8.1-2.2,11-10.2,6.5-17.9c-2.7-4.4-3.5-4.7-1.3-0.5c3.6,7.1,2.7,12-2.7,15.2c-3.3,2.1-6.6,2.1-11,0.1
		c-7.2-3.2-12.7-10.3-12.8-16.3c0-3.3,3.4-10.3,6.3-13c9.1-8.5,25.5-7.6,35.4,2.2c8.8,8.6,12.9,23.4,9.5,34.8c-1.5,5-9,12.2-15,14.4
		c-16.9,6.4-35,2.7-46.2-9.4c-4.2-4.6-8.9-13.9-11-21.8c-5.1-20.3,2.2-40.9,22.4-62.4c2.7-2.9,4.9-5.5,4.7-5.6
		c-0.2-0.2-3.7,3-7.7,7.1c-15.3,15.2-23.4,32-23.7,49c-0.1,3.7-0.3,6.6-0.7,6.2c-1.3-1.6-3.2-7.8-4.2-13.9
		c-1.9-12.9,2.2-28.7,11.6-45.3c2.3-4.1,2.4-4.3,0.5-2.1c-3.6,4.2-11.2,20.3-12.9,27.3c-3,11.9-2.1,24.8,2.3,34.9
		c2.2,4.7,2.2,4.6,0.7,4.6c-3,0-7.1,5.1-8.3,10.4c-0.5,2.2-0.3,2,1.8-1.3c4.4-6.9,8.5-8.3,11.6-4.1c1,1.3,1.8,2.7,1.8,3
		s1.2,2.7,2.5,5.5c2.8,5.5,2.7,6.7-0.5,10.6c-4.4,5.1-13.4,5-20.6-0.4c-7.6-5.9-9-18.3-3.8-35.3c2.2-7.1,0.4-5.1-2.2,2.6
		c-1.6,4.6-2.2,8.6-2.7,15.7l-0.5,9.5l-2.1-4.2c-1.7-3.6-2.1-5.3-2.1-12.5c0-11.3,2.8-20.2,11.6-36.1c3.7-6.8,0.7-3.3-3.7,4.2
		c-13.3,22.8-14.3,42.9-2.6,53.5c1.8,1.7,3.3,3.2,3.3,3.4c0,1.2-6,3.2-10,3.2c-6.1,0-11.5-2.7-16.2-7.9c-4.6-5.1-6.2-10.1-6.3-19.7
		c-0.1-8.4-1.3-6.2-1.5,2.5c-0.1,6.7,2.1,14.3,6.1,20.8c1.6,2.7,2.6,4.8,2.2,4.8c-1.6,0-8.4-5.1-11.9-9c-5.6-6.2-7.6-11.8-7.6-22.1
		c0-9.7,1.8-17.3,6.8-28.1c2.7-5.9,3.9-7.6,7.5-10.2c4.6-3.5,5.1-4.8,0.7-2.1c-5.1,3.2-15.8,15.1-19,21.3c-4.7,9-6.7,18.3-5.1,24.2
		c0.8,3,2,2.2,2-1.2l0.1-3.1l1.3,2.5c0.7,1.3,1.9,3.2,2.7,4.2c0.8,0.9,2,3.3,2.7,5.4c0.6,2.1,2.3,5.5,3.8,7.6c3,4.6,2.2,5-3.2,1.7
		c-13.8-8.8-17.1-25.2-9.6-47.5c1.5-4.3,4.2-10,5.8-12.6c6.1-9,18.3-18.7,33.6-26.3l6.9-3.5l11.4-0.2c12.5-0.2,18-1.7,23.5-6.3
		L378,172.9z"/>
	<path id="path72" fill="#5599FF" d="M330,174.6c0.9,0.2,6.7,1.4,12.9,2.7c6.1,1.2,11.4,2.4,11.6,2.7c0.2,0.2-2.4,0.2-5.8-0.2
		c-7-0.6-15.1-2.6-18.3-4.3C328.9,174.6,328.7,174.4,330,174.6z"/>
	<path id="path74" fill="#003380" d="M477,179.5c12.8,13.4,22,28.6,26,43c1,3.4,1.7,6.6,1.7,7.1c0,0.4-2.6-4.2-5.6-10.4
		c-7.6-15-20.4-33.9-27.5-40.2c-1.3-1.2-1.5-1.8-0.8-2.7C472.1,174.6,472.4,174.7,477,179.5z"/>
	<path id="path76" fill="#003380" d="M482.6,195.9c10,13.8,23.3,40.3,24.2,48.1c0.3,2.4,0.1,2.1-1.3-1.7
		c-5.9-15.9-19-38.3-32.2-54.6c-3.7-4.6-6.8-8.5-6.8-8.8C466.5,176.4,475.1,185.5,482.6,195.9z"/>
	<path id="path78" fill="#5599FF" d="M336.3,180.1c4.2,0,3.2,1.2-2.8,3.5l-6,2.2l3.2-2.9C332.8,181.2,334.9,180.1,336.3,180.1z"/>
	<path id="path80" fill="#0066FF" d="M469.9,187c20.7,24.6,37.7,58.9,38.6,78.2l0.3,6.6l-1.7-4.6c-9.6-24.5-20.7-46.7-35-70.8
		c-4.9-8.1-8.9-14.9-8.9-15.2C463.2,179.9,465.8,182.1,469.9,187z"/>
	<path id="path82" fill="#0066FF" d="M460.1,182.6c1.8,0,17.6,26.7,28,47.4c14.2,28.2,22.5,51.4,19.2,53.4c-0.4,0.2-1-0.9-1.3-2.7
		c-1.2-6.5-9.6-30.2-14.8-41.6c-6.5-14.2-15.5-30.3-25.1-44.6c-3.9-5.7-7.1-10.8-7.1-11.2S459.5,182.6,460.1,182.6z"/>
	<path id="path84" fill="#003380" d="M465.1,196.9c12.5,18.9,21.7,36.4,29.5,56.3c6.2,15.9,12.5,37.7,11,38.6
		c-0.4,0.2-1.2-1.7-1.7-4.4c-1.9-8.4-8.2-26.4-13.9-39.3c-8-17.9-22.4-42.7-34.3-58.6c-1.8-2.4-2.3-3.6-1.6-3.8
		C456.7,184.7,457.6,185.7,465.1,196.9z"/>
	<path id="path86" fill="#003380" d="M450.8,187.7c0.9-0.2,3.8,3.7,9.7,12.5c19.3,29,33,57.8,40.5,85.3c2.8,10.2,3.4,14.2,2.2,15.4
		c-0.3,0.3-1.5-3.8-2.6-9.2c-4.1-21-15.2-46.9-29.1-68.1c-3.7-5.6-7.5-11.9-8.4-13.9c-1.8-4.2-9.9-13-15.1-16.7
		c-1.7-1.2-3.2-2.5-3.2-2.8c0-0.3,1.2-1,2.7-1.5C449.1,188.2,450.6,187.8,450.8,187.7z"/>
	<path id="path88" fill="#800066" d="M543.6,195.1c0.2,0,4.8,4.2,10.1,9.4c10.5,10.1,13.9,15.4,15.7,24.4c1.2,6,0.7,17.1-1.2,21.4
		l-1.3,3.3l-5.6,0.1c-3.5,0.1-7.2,0.7-10,1.8l-4.4,1.7l0.6-2.2c0.2-1.2,0.7-8.6,1-16.4c0.5-15.2-0.7-26.9-3.8-38
		C543.8,197.6,543.3,195.1,543.6,195.1z"/>
	<path id="path90" fill="#AA0088" d="M310.2,218.6c0.2,0.2-1.2,3.5-3,7.3c-3.7,7.8-5.9,17.2-5.9,25c-0.1,4.2-0.2,4.9-1,3.7
		c-1.2-2.2-3.2-9.5-3.2-12.4c0-3.2,4.8-13.3,9.1-19C308.3,220.5,310,218.5,310.2,218.6z"/>
	<path id="path92" fill="#AA0088" d="M466,219.1c0.7,0,10.6,16.1,15,24.4c5,9.6,5.3,11.7,2.5,17.1l-1.1,2.1l-0.5-2.5
		c-2.1-10.4-3.4-13-7.3-15c-3.7-1.9-4.6-0.6-5,7.2c-0.2,3.7-0.7,7-1.2,7.5c-0.6,0.6-1.7,0.1-3.7-1.7c-5.6-5-6-12.9-1.1-28.1
		c1.2-3.6,2.1-7.5,2.1-8.8C465.7,220.1,465.8,219.1,466,219.1z"/>
	<path id="path94" fill="#FFDD55" d="M574.2,258.9c2.7,1.5,6.4,4.2,8.1,5.9l3.2,3.2l-2.2,0.5c-1.5,0.4-3.1,0.1-5-1.2
		c-3.9-2.4-8.5-2.2-12,0.4c-2.5,1.9-3.1,2-5.6,1.2c-2.2-0.7-3.7-0.7-6,0.1c-3.2,1.1-11.4,8.6-12.2,11.4c-0.2,0.8-2.5,2.5-4.9,3.7
		c-9.6,4.7-12.4,8.7-12.1,17.3c0.2,5.7,0.2,5.9-2.7,8.2c-5.2,4.3-7.1,11-4.4,16.1c1.7,3.2,1.6,3.6-0.6,1.6
		c-3.7-3.3-7.7-5.2-11.2-5.2H503v-6.9c0-9.5,2.7-16.4,9.7-25.2c3-3.7,10-7.7,13.7-7.7c2.2,0,3.1-1.1,1.6-2.1
		c-0.8-0.4-5.8,0.5-8.7,1.7c-1.3,0.6-1.2,0.1,0.8-3.7c4.6-8.5,13-15.8,18.2-15.8c1.3,0,1.1,0.5-1.2,2.8c-1.5,1.6-2.3,3-1.9,3.3
		c0.4,0.2,1.3-0.1,1.9-0.8c2.2-2.7,12-9,16-10.5C559.6,254.8,567.8,255.5,574.2,258.9z"/>
	<path id="path96" fill="#AA0088" d="M487.2,257.3c0.2,0,1.6,2.7,2.8,6c2.3,5.9,2.3,6,0.7,8.1c-1.9,2.6-7.9,5.7-12,6.5l-3.1,0.5
		l2.9-4.9c1.6-2.7,2.9-5.1,2.9-5.6s0.9-1.9,2.2-3.2c1.2-1.4,2.3-3.7,2.6-4.9C486.4,258.4,486.8,257.3,487.2,257.3z"/>
	<path id="path98" fill="#FFDD55" d="M594.3,262c13.4,6,23.9,26,19.6,37.2c-1.5,3.9-4.6,7.5-4.7,5.4c0-0.7-0.8-2.4-1.9-4
		c-1.7-2.7-1.7-3.2-0.7-7.1c1.2-5,0.5-8.5-2.6-12.2c-1.2-1.4-2.2-3.1-2.2-3.7c0-1.7-4.7-6.9-7.6-8.4c-1.2-0.6-3.1-1.2-4-1.2
		c-1.6,0-8.3-6.4-9.1-8.5C580.6,258.1,589.1,259.6,594.3,262z"/>
	<path id="path100" fill="#FFDD55" d="M576.3,268.6l2.6,1.4l-2.2,1.7c-1.2,1-2.2,2.2-2.2,2.8c0,1.2,1.3,1.3,2.1,0.2
		c0.8-1.3,6.4-4,9.6-4.6c3.9-0.7,9.4,1.5,11.7,4.8c1.2,1.6,1.9,4,2,6.2c0.2,4.3,0.8,5.1,2.2,3.2c1.1-1.4,1.2-1.3,2.2,1.1
		c0.7,1.7,0.9,3.9,0.6,6.3c-0.6,3.5-0.7,3.7-2.3,2.7c-0.9-0.6-3-1.8-4.6-2.8c-3.5-1.9-4.2-3.9-2.2-6.1c1.3-1.4,1.2-1.6-2.2-3.2
		c-2-0.8-4.3-2.4-5.1-3.4c-2.3-2.6-4.4-2.2-7.8,1.7c-5.1,5.6-9.9,6.9-17.2,4.5c-4.4-1.6-6.8-0.7-3.3,1.1l2.3,1.2l-2,1.6
		c-1.1,0.8-4.1,1.9-6.6,2.4c-4.2,0.7-9.1,2.2-12.6,3.7c-1.2,0.6-1.3,0.2-0.9-2.3c0.5-3-0.7-4.2-1.7-1.7c-0.8,2.2-0.6,7.6,0.4,8.2
		c0.5,0.3,1.7-0.2,2.7-1.1c1-0.9,2.7-2.1,3.7-2.6c1.6-0.7,2-0.7,2.7,0.7c1.3,2.6-1.1,6.9-6.6,11.7c-3.6,3.1-5.6,5.7-7.7,10.1
		c-4.2,8.6-5.9,14.5-5.8,19.7c0.1,2.5,0.2,7.6,0.2,11.2c0.1,9.3,1.4,14.8,5.1,21.7c3.2,6,3.2,6.1,1.3,6.1c-1.7,0-2.1-0.5-2.6-4.1
		c-1-7.1-3-9.2-11.9-12.6l-1.9-0.7l2.1-3.5c3.6-6.1,4.8-12.5,3.7-19.8c-0.5-3.4-1.6-7.8-2.5-9.8c-0.8-1.9-1.6-5.1-1.6-6.9
		c0-2.9,0.6-3.9,4.2-7.6c4.2-4.2,4.2-4.2,3.7-8.5c-0.7-5.8,0.7-9.8,4.1-12.9c3.9-3.4,8.1-5.6,8.5-4.3c0.6,1.8,1.7,0.8,3.3-2.7
		c0.9-2,3.1-5.1,4.8-7.1c4.8-5.4,9-7.1,12.8-5.1c1.5,0.7,1.5,1.1,0.4,4.2c-1.7,4.9,0.6,4.5,2.4-0.4c0.8-2,2.6-4.6,3.9-5.8
		C570.8,267,572.7,266.8,576.3,268.6z"/>
	<path id="path102" fill="#FFF6D5" d="M378.5,273.5l4.5,4.2c5.1,4.8,12.9,9,19.4,10.3c9.7,2,22.1,0.7,30.1-3.2
		c3.4-1.6,3.4-1.6,7.6,0.2c5.5,2.2,16.6,2.9,21.7,1.5c2.1-0.6,5.3-2.1,7.3-3.3c1.9-1.2,5.2-2.5,7.2-2.7c2.1-0.3,4.6-0.7,5.5-1.1
		c1.5-0.4,1.9,0,2.4,2.7c0.4,1.7,0.6,8.5,0.5,15.2c-0.2,13.4,0.5,18,3.8,25.2l2.2,4.7l-2.3,2.4c-3.4,3.6-1.2,4.1,2.5,0.6
		c3.5-3.4,9-5.5,14.6-5.5c4.7,0,7.6,1.3,11.1,5.1c3.7,3.9,5.3,7.5,5.3,11.8c0,6.6-5.3,18-7.7,16.5c-0.5-0.3-2.7-0.9-4.7-1.2
		c-2.1-0.4-4.7-0.9-6-1.2c-1.6-0.2-2.9,0.1-4.5,1.3c-1.2,1-2.9,1.6-3.7,1.3c-0.9-0.2-2.5,0.4-4,1.7c-1.3,1.2-3.5,2.1-4.6,2.1
		c-1.2,0-2.6,0.7-3.2,1.7c-1.4,2.2-2.2,2.1-5.2-0.8l-2.7-2.6l-2.2,1.7c-5.2,4.1-31.4,15-49.1,20.4c-6.6,2.1-8.8,2.3-19.1,2.3
		c-13.1,0.1-16.9-0.9-32.2-8.1c-17.2-8.1-27.1-15.3-30.3-21.5c-2.2-4.3-2.2-5.7-0.6-13.4c0.7-3.2,1.2-10.1,1.2-15.4
		c0-14.8,3.7-26.7,9.4-31c1.9-1.4,3.6-1.7,8.1-1.7c5.8,0,5.9,0.1,8.9,3.4c1.7,1.8,3.5,4.1,4,4.9c0.5,0.9,1.2,1.2,1.8,0.9
		c1.3-0.8-2.7-6.7-7.6-11c-4.2-3.7-8.4-5.2-14.5-5.2c-5.1,0-10.8,2.1-9.5,3.4c0.7,0.7,1.4,0.7,2.5,0.1c1.9-1,10.2-2.2,10.2-1.6
		c0,0.2-1.6,1.2-3.5,2.1c-6.4,2.8-12,11-13,18.8l-0.5,4.2l-5.1-8.3c-6.1-9.9-11.4-21.2-10-21.2c0.6,0,2.2,0.3,3.7,0.7
		c1.9,0.6,2.9,0.5,3.3-0.2c0.2-0.5,0.1-1.1-0.5-1.2c-0.7-0.2-2.3-1.5-3.7-2.8L325,278l3.7,1.9c5.6,2.9,15.1,2.7,19.6-0.2
		c3.2-2.2,3.4-2.2,5.4-0.7c5,3.5,13.2,4.4,18.2,1.8c1.6-0.7,3.7-2.7,4.8-4.3L378.5,273.5z M427.9,291.9c-3.6,0.9-9.5,3.8-9.9,4.9
		c-0.7,1.7,0.3,1.5,5.5-0.9c3.7-1.7,5.6-2.1,11.5-2l7.1,0.1l-5.4,1.1c-9.5,1.8-13.4,4.3-16.7,10.5c-2.5,4.9-1.9,5.2,2.4,1.4
		c6-5.3,10.2-7,18-7c5.6,0,7.4,0.3,11.3,2.3c8.8,4.2,16.9,14.6,20.7,26.2c1,3.2,2.2,5.9,2.5,5.9c0.4,0,1.7-1.2,2.8-2.6
		c1.5-1.7,2.2-3.5,2.2-5.7c0-3.6-1.5-5-5.3-5c-1.2,0-2.2-0.5-2.2-1.1c0-3.4-5.5-11.6-11.5-17.2c-6.9-6.5-9.8-8.2-16.7-10.3
		C439.9,291.4,431.6,291,427.9,291.9z M357.8,304.8c-5.2,5.1-8.4,12.2-8.4,18.7c0,12.1,7.6,22.8,14.4,20.2c5.4-2,8.7-17.8,5.1-24.7
		c-1.4-2.7-2.5-3.3-3.4-1.8c-1.6,2.6-6.2-1.4-6.2-5.4c0-1.4,0.7-4,1.7-5.8C363.5,301.2,362,300.7,357.8,304.8z M430.4,307.9
		c-9.7,5.9-13.3,21.8-7.6,33.6c4.6,9.3,13.3,9.5,17.9,0.5c2.6-5,4.2-18.8,2.6-21.5c-0.6-0.9-1.2-0.7-3.2,0.7
		c-3.2,2.3-5.7,1.7-7.3-2.2s-1.5-6.7,0.5-9.5c0.9-1.2,1.4-2.5,1.1-2.8C433.6,306,433.1,306.1,430.4,307.9z M492.2,336.1
		c-3.2,2.6-1.5,2.8,3.7,0.4c2.6-1.2,5.2-1.9,5.9-1.7s2.4,2.2,3.7,4.4c2,3.1,2.5,3.5,2.5,2.1c0-1.1-0.6-3.2-1.2-4.9l-1.2-3l3.9,0.5
		c3.9,0.4,3.9,0.4,1.5-0.7C506.2,331.1,496.9,332.5,492.2,336.1z M349.5,342c-0.4,0-0.8,0.6-0.8,1.3c0,0.7,0.4,1,0.8,0.7
		c0.5-0.2,0.8-0.8,0.8-1.3C350.3,342.3,350,342,349.5,342z M354.9,345.7c-0.2,0.7,0,1.2,0.7,1.2c0.7,0,1.2-0.3,1.2-0.7
		C356.9,344.8,355.4,344.5,354.9,345.7z M424.2,347.8c-0.4,0-0.8,0.7-0.8,1.7c0,0.9,0.4,1.4,0.8,1.2c0.5-0.2,0.8-1.1,0.8-1.7
		S424.7,347.8,424.2,347.8z M381,348.6c-0.4,0-0.8,0.6-0.8,1.2s0.4,1.2,0.8,1.2c0.5,0,0.8-0.6,0.8-1.2S381.5,348.6,381,348.6z
		 M428.5,350c-0.5-0.2-1.2-0.1-1.4,0.4c-0.8,1.2,0.2,2.1,1.3,1C429,350.8,429,350.3,428.5,350z M446.2,353.6
		c-1.6,3.1-1.6,6.6,0,12.8c1.7,6.4,1.7,6.5,4.6,5.1c6.2-3.2,10.8-9,10.8-13.5c0-3.5-1.9-4.9-5.1-3.7c-2.3,0.8-2.7,0.7-4.2-1.1
		C450.1,350.4,447.7,350.5,446.2,353.6z M388.5,371.1c0,3.7,1.4,7,4,9.3c2,1.8,4.8,1.2,5.6-1.2c0.6-1.7-0.7-6.7-2.6-9.6
		C392.5,364.9,388.5,365.8,388.5,371.1z"/>
	<path id="path104" fill="#37ABC8" d="M356.5,309.3l0.2,2c0.7,5.7,4.4,9.6,8.3,8.6c2.1-0.6,3.7,2,3.3,5.3c-0.2,2.2-0.2,2.2-6.5,2.1
		c-3.4-0.1-7.3-0.5-8.6-1c-2.2-0.9-2.3-1.1-1.7-4.7c0.6-4.1,1.6-6.9,3.7-10.3L356.5,309.3z"/>
	<path id="path106" fill="#0055D4" d="M355.1,329c1.7,0.2,5.2,0.5,7.9,0.5c4.6,0,4.7,0.1,4.7,2.3c0,3.4-3.4,9.6-5.5,10
		c-2.6,0.3-5.8-2.7-8.1-7.7c-1.2-2.4-2.2-4.7-2.2-5.1C352,328.8,353.4,328.7,355.1,329z"/>
	<path id="path108" fill="#37ABC8" d="M429.6,316c1.7,7.5,4.6,10.2,9.2,8.5c2.9-1.2,2.8-1.2,2.8,2c0,2.6-0.3,2.9-2.7,3.5
		c-3.7,0.8-12.4,0.6-15-0.4c-1.9-0.7-2.1-1.2-1.7-4c0.6-3.8,3.2-10,5.1-12.1C428.7,312,428.7,312.2,429.6,316z"/>
	<path id="path110" fill="#0055D4" d="M422.3,331.3l2.7,0.7c1.6,0.5,5.3,0.8,8.5,0.8h5.6l-0.6,3.1c-0.8,5-3.3,10-5.1,10.4
		c-4.6,1.2-9.5-4.2-10.7-11.7L422.3,331.3z"/>
	<path id="path112" fill="#D40000" d="M451.5,356.1l0.8,2.5l3-1.4c4-1.9,5.2-0.7,3.3,3.4c-1.4,2.9-7.1,8.8-8.7,8.8
		c-1.7,0-3.3-11-2-14.4C448.7,352.8,450.5,353.4,451.5,356.1z"/>
	<path id="path114" fill="#FF0066" d="M394.3,372c1.9,4.2,2.2,7.3,0.5,7.3c-1.7,0-5.3-8.3-4.2-10C391.5,367.7,392.7,368.6,394.3,372
		z"/>
	<path id="path116" fill="#AA0088" d="M493.1,273.1c0.7,0,3.7,10.4,5.3,18.1c1.7,8.4,2.5,17.6,1.5,17.6c-2.4,0-9.4-11.5-11.8-19.4
		c-2.7-8.5-2.3-11.2,1.4-13.9C491.2,274.2,492.9,273.2,493.1,273.1z"/>
	<path id="path118" fill="#AA0088" d="M304.2,274.8c0.9,0,11.8,4.5,13.5,5.6c2.4,1.5,4.3,3.5,4.3,4.6c0,0.3-1.1,0.7-2.3,0.7
		c-2.7,0-5.8,2.9-8.3,8c-2.6,5-6.6,19.1-7.7,26.9c-1.3,9.4-0.6,24.5,1.7,32c0.9,3.2,1.9,6.6,2.2,7.5c0.2,1-1.3-0.2-4.2-3.1
		c-7.6-8.1-12.9-21.2-12.9-32.8c0-3.7,0.4-4.7,2.9-7.9c1.7-1.9,4.7-5.1,6.9-7.1c2.2-2,3.2-3.2,2.2-2.7c-5.6,2.7-19.4,19.1-19.6,23.2
		c0,1.2-0.2,1.1-0.7-0.2c-1.1-2.6-0.9-13.5,0.3-19.5c2.5-11.6,7.8-21.2,16.5-29.9C301.8,277,304.1,274.8,304.2,274.8z"/>
	<path id="path120" fill="#FFDD55" d="M586.9,280.6c0,0.5,1.3,1.7,2.8,2.6c2.6,1.5,2.9,2,2.7,4.6c-0.2,2.5-0.8,3.2-3.4,4.6
		c-2.7,1.5-3.6,1.5-8.7,0.6c-14.6-2.6-31.5,6.6-38.2,21c-3.2,6.7-3.4,14.8-0.7,20.6c1,2.1,2,6.2,2.3,9.3
		c1.3,13.2,12.2,21.7,28.8,22.8c10.3,0.7,16.6-1.3,23.2-7.4l3.7-3.4v2.6c0,12.5-16.4,27.8-31,29c-4.8,0.4-5.9,0.2-10.6-2.2
		c-2.8-1.4-5.6-2.6-6.1-2.6c-2.2,0-12.3-6.1-14.2-8.6c-3.8-5-6.5-12-6.9-18.3l-0.3-5.9l2.7,2.5l2.7,2.5l-1.6-2.5
		c-3.7-5.7-4.2-7.5-4.2-13.8c0-5.4,0.5-7.5,3.3-14.5c2.9-7.1,4.2-9,9.2-14.4c6.9-7.3,8.1-9.1,7.6-12.7c-0.2-2.5-0.1-2.7,3.1-3.2
		c4.5-0.7,7.1-1.8,9-4c1.2-1.4,2.6-1.7,6.6-1.7c5.9,0,9.9-1.7,12.9-5.6C583.9,279.9,586.9,278.7,586.9,280.6z"/>
	<path id="path122" fill="#800066" d="M292.2,283.6c0,0.2-0.9,1.7-2,3.1c-8.1,10.8-12.5,27.8-10.5,41.3c0.6,3.8,1.1,10.5,1.2,14.9
		c0.2,4.3,0.6,8.8,0.9,10c1.2,3.9-7.6-5.7-10.8-11.8c-4.6-8.7-6.2-14.2-6.2-21.2c0-7.2,1.6-14,5.1-21.2c4.5-9.4,8.6-13.2,15.9-14.7
		C290.2,283.1,292.2,282.9,292.2,283.6z"/>
	<path id="path124" fill="#AA0088" d="M326.5,295c1.6,3.3,4.7,9,7.1,12.6c6,9.3,7,12.1,7.5,20.8c0.4,8.2-1.8,22.7-3.5,22.7
		c-2.2-0.1-11-12.9-16.7-24c-3.7-7.6-9.5-23.6-9.5-26.5c0-2.3,4.7-11.5,6.4-12.5C321.1,286.1,323.1,287.8,326.5,295z"/>
	<path id="path126" fill="#FFDD55" d="M610.6,312.4c2.8,6.7,3.7,14.3,2.2,18.2c-0.3,0.8-0.7-1.4-0.7-5c0.1-7.7-2.1-13.4-6.8-17.9
		c-4.2-4.1-8.6-5.7-15.5-6c-3.2-0.2-7.3-0.7-9.1-1.4l-3.3-1.2l2.9-0.7c1.6-0.3,5-1.7,7.5-3.1C597.1,290.4,603.5,295.1,610.6,312.4z"
		/>
	<path id="path128" fill="#AA0088" d="M489.6,298.9c1.1,2.3,4,6.3,6.5,9c4.1,4.5,4.4,5,4.6,9.5l0.2,4.8l-4.1,1.6
		c-2.2,0.8-4.2,1.4-4.2,1.3c-1.3-1.7-4.1-8.6-5-12.9c-1.2-5.6-1.6-16-0.7-16.9C487.3,295,488.4,296.7,489.6,298.9z"/>
	<path id="path130" fill="#FFCC00" d="M580.6,295.5c0.2,0.5-0.4,0.8-1.6,0.8c-1.1,0-3.2,0.9-4.5,2.1c-1.4,1.2-2.9,2.1-3.4,2.1
		s-2.6,1.7-4.6,3.7c-5,5-7.1,12-7.1,23.3c-0.1,16.4,6.1,24.7,18.5,24.4l4.4-0.1l-4.7-0.7c-8-1.2-12.5-4.6-14.9-11.3
		c-1.6-4.6-1.4-19.4,0.4-25.4c1.7-5.5,7-11.5,10.9-12.5c6.1-1.5,14.2,4.2,16.4,11.6c1.4,5.1,1.2,14-0.3,17.9
		c-3.1,7.4-10.5,12.1-17.4,11.2c-2-0.2-4.3-0.7-5.1-1c-0.9-0.2-0.5,0.1,0.8,0.7c3.7,1.8,10.6,1.7,14.4-0.3
		c6.7-3.4,10.9-11.2,10.9-20.7l0.1-4.6l1.3,2.5c0.9,1.7,1.4,4.5,1.4,8.5c0,5.2-0.3,6.6-3.1,12c-2.3,4.6-2.6,5.5-1.1,3.7
		c1.2-1.3,2.5-3.4,3.2-4.6c0.6-1.2,2.1-3.5,3.3-5.1c1.2-1.6,2.7-4.6,3.2-6.6c1.1-4.2,2.1-3.6,3,2c0.8,5.1,2.2,6.6,1.5,1.7
		c-0.7-5.1-4.6-14.9-7.3-18.3c-2.7-3.3-3.3-2.4-1.2,1.8c2.2,4.3,2.7,8.5,1.9,12.5c-0.6,3.2-0.7,3.1-1.2-2.2
		c-0.8-6.4-3.8-12.9-7.8-16.8c-1.6-1.6-2.9-3.1-2.9-3.5c0-0.3,1.6-0.6,3.6-0.6c5.1,0,11.6,3.3,14.5,7.4c6.9,9.5,4.9,25.4-3.9,32.5
		c-2.7,2.2-3.2,3-2.9,4.8c0.9,4.4-7.8,13.2-14.9,15.1c-1.9,0.5-6.7,0.7-11,0.6c-6.2-0.3-8.6-0.9-12.9-2.9
		c-8.8-4.1-12.9-8.5-14.4-15.9c-0.6-2.7-0.5-2.7,1.8-2.2l2.3,0.6l-2.2-2.8c-6.6-8.7-8-17.3-3.9-25.8c4-8.5,13-16.5,21.9-19.2
		C570.4,294.6,579.9,294.3,580.6,295.5z"/>
	<path id="path132" fill="#FFDD55" d="M616,302.1c1.2-0.1,3.2,11.3,3.2,18.1c0,9-1.5,14.2-5.9,20.8c-3.1,4.6-9.8,10.9-11.7,10.9
		s0.8-5,4.6-8.4c2.3-2.2,5.4-5.9,6.7-8.3c3.4-6.1,3.5-14.4,0.2-22.4l-2.2-5.5l2.2-2.6C614.5,303.4,615.7,302.2,616,302.1z"/>
	<path id="path134" fill="#800066" d="M309.5,305.5c0.3,0,1.6,3.2,2.8,6.9c4,12.2,11.9,27.1,18.8,35.4c2.3,2.8,3.1,4.4,3,6.6
		c-0.2,3.6-2.2,6.6-4.3,6.5c-0.8,0-2.6,0.2-3.7,0.5c-1.9,0.6-2.5,0.1-6.3-5.5c-6.8-9.9-14.4-26.4-14.4-31.4c0-1.3,0.8-6.1,1.7-10.8
		C308.2,309.2,309.3,305.5,309.5,305.5z"/>
	<path id="path136" fill="#AA0088" d="M288.9,329.5c0.1,11.2,10.5,29.6,19.4,34.4c3.8,2.1,4.4,3.9,2.2,7.4c-2.1,3.3-5.6,5-8.9,4.2
		c-6.1-1.6-16.4-16.7-18.6-27.5c-1.2-5.6-0.2-12.9,2.7-19.6C287.6,324.1,288.8,324.5,288.9,329.5z"/>
	<path id="path138" fill="#AA0088" d="M305.5,333.3c0.4,0.2,0.8,1,0.8,1.5c0,2.2,8.4,18,12.4,23.4c2.3,3.2,4.1,6.1,3.9,6.6
		c-0.2,0.4-0.8,2.2-1.4,3.9c-1.2,3.8-2.4,4-5.2,0.7c-5-6-9.8-19.8-10.8-31C304.7,334.6,304.9,332.9,305.5,333.3z"/>
	<path id="path140" fill="#AA0088" d="M275.3,351.2c2.2,2.3,5,4.8,6.3,5.6c1.3,0.7,3.1,2.7,3.9,4.4c1.6,3,1.6,3-0.3,4.8
		c-1,0.9-2.2,1.7-2.7,1.7c-2.4,0-11-15-11.1-19.3C271.4,347.6,272.8,348.5,275.3,351.2z"/>
	<path id="path142" fill="#800066" d="M339.4,353.9c1.2,1.3,0.6,3-1.2,3c-1.7,0-2.5-2.5-1.1-3.4
		C337.8,353.1,338.7,353.3,339.4,353.9z"/>
	<path id="path144" fill="#800066" d="M343.4,359.6c2.2,2.1,2.2,1.9-0.7,2.7c-2.1,0.5-2.3,0.2-2.3-1.4c0-1.1,0.2-2.2,0.6-2.5
		C341.2,358,342.3,358.6,343.4,359.6z"/>
	<path id="path146" fill="#AA8800" d="M504.3,358.2c1.4,0.2,3.7,0.6,5,0.7c1.4,0.1,3.4,0.7,4.6,1.3c1.2,0.7,4.3,1.9,7,2.8
		c5.6,2,7.9,4.5,8.5,9.4l0.4,3.4l-4.7,0.6c-4.7,0.7-4.7,0.6-7.3-2.5c-4.4-5.4-11.5-7.5-17.6-5.1c-6.3,2.4-8.9,6.1-9,13
		c-0.1,4.9-0.1,4.9-4.2,7.8c-2.8,2.1-4.4,2.7-5,2.1c-0.4-0.4-0.8-3.9-0.8-7.6c0-8.3,2-12.9,8.3-19.4c3.2-3.3,4.8-4.4,6.7-4.4
		c1.3,0,3.2-0.7,4.1-1.3C501.2,358.1,502.6,357.8,504.3,358.2z"/>
	<path id="path148" fill="#800066" d="M338.3,360.3c0.2,0.5,0,1.4-0.6,2.1c-1.5,1.4-3.7,0.2-3-1.7
		C335.4,359.3,337.5,359,338.3,360.3z"/>
	<path id="path150" fill="#D40000" d="M333,365.3l2.6,2.6l3.5-1.7c1.9-1,4.3-1.7,5.2-1.7c4.6,0,6.1,6.8,2.6,11.8
		c-0.9,1.2-3.5,3.6-5.8,5.3l-4.2,3.1l-5.6-3.8c-3.1-2.1-6.2-5-7.1-6.4c-2-3.4-1.3-7.6,1.7-10C328.9,362.2,330,362.3,333,365.3z
		 M329.1,365.2c-4.8,0-7.1,5.7-3.7,9.1c3.4,3.4,9.1,1.1,9.1-3.7c0-1.5-0.6-3.4-1.3-4.1C332.5,365.8,330.6,365.2,329.1,365.2z"/>
	<path id="path152" fill="#FFCC00" d="M331.5,368.2c1.8,1.7,1.7,3.3-0.5,4.8c-3.3,2.4-6.8-2.2-3.8-5.1
		C328.5,366.6,330,366.6,331.5,368.2z"/>
	<path id="path154" fill="#37C8AB" d="M475.6,363.7c0.2-0.1,1.9,1.2,3.7,2.7l3.3,2.8l-1.3,3.2c-0.7,1.7-1.6,3.8-1.8,4.6
		c-0.4,1.3-0.7,1.2-3.6-0.7c-4.6-3.2-9.5-1.7-13.9,4.2c-2.1,2.7-2.2,8.1-0.2,12c1.7,3.2,1.7,3.5,0.2,3.5c-0.6,0-1.6,0.6-2.2,1.2
		c-0.8,1-2.3,1.2-7.8,0.7c-3.7-0.3-7.1-0.9-7.6-1.3c-1.4-1.1-2-6.9-1.3-13l0.6-5.3l7.8-3.2c4.2-1.7,11.4-5,15.8-7.2
		C471.6,365.6,475.4,363.8,475.6,363.7z"/>
	<path id="path156" fill="#AA8800" d="M510.7,371.1c2.2,1.2,6.4,5,6.4,5.8c0,0.3-2,1.1-4.3,1.6c-2.4,0.6-7.6,2.3-11.4,3.8
		c-3.9,1.6-7.4,2.8-7.7,2.8c-1.2,0-0.7-6.2,0.8-9c0.8-1.6,2.8-3.6,4.4-4.4C502.1,370,508,369.7,510.7,371.1z"/>
	<path id="path158" fill="#37C8AB" d="M471.1,376.9c3.7,0,7.9,4.8,7.9,9.1c0,1.6,0.3,4.2,0.8,5.8c0.7,2.4,0.6,3.1-0.9,4.6
		c-1.7,1.7-2,1.8-4.4,0.7c-1.4-0.7-3.9-1.4-5.6-1.7c-3.7-0.6-4.5-1.4-5.8-6.5c-0.9-3.2-0.9-4.2,0.2-6.6l1.2-2.7l-0.3,4.2
		c-0.4,3.7-0.2,4.4,1.5,5.6c2.8,1.9,6.3,1.7,8.6-0.7c2.6-2.5,2.7-5.3,0.3-8.3c-1.5-1.8-2.3-2.2-5-1.9c-2.4,0.2-2.9,0.1-2.2-0.7
		C468,377.4,469.6,376.9,471.1,376.9z"/>
	<path id="path160" fill="#A0892C" d="M540.8,380.3l2.5,1.1l-2.2,0.3c-3.5,0.4-2.8,1.8,0.8,1.8c4.5,0,12.2,2.2,17,4.8
		c2.2,1.2,6.8,5.1,10.2,8.7l6.1,6.6l5.6-2.3c3.6-1.4,7.8-2.4,11.6-2.7c5.3-0.3,6.6-0.1,10.5,1.8c11.3,5.5,16.5,19.7,12.4,33.5
		c-2,6.5-6.1,12.7-10.5,15.9c-3.9,2.7-10.7,3.4-14.4,1.5c-1.5-0.7-2.7-1.1-2.7-0.7c-0.1,0.4-0.2,3.5-0.2,6.9
		c-0.1,8.1-3.1,14.3-9.6,20.8c-8.2,8.1-24.4,14.9-35.5,14.9c-4.2,0-14.6-2.2-17.8-3.8c-1.6-0.8-2.4-0.9-2.8-0.2
		c-1.5,2.5,10.2,5.8,20.4,5.9l7.9,0.1l-1.9,3.9c-2.1,4.2-2.7,13.5-1.1,15.2c0.5,0.5,0.9,0.7,1,0.5c0-0.2,0.1-3,0.2-6.1
		c0.2-8.4,3.5-13.7,9.4-15.3c3.7-1.1,8.1-0.1,11.4,2.5l2.2,1.7l-4.9,5.1c-11.3,11.9-15.3,21.2-9.7,22.6c2.7,0.7,4.2-0.6,7.1-6.3
		c2.2-4.5,9.4-13.3,10.8-13.3c0.4,0,1.1,1.9,1.6,4.2c3,13.7-1.2,19.6-14.6,20.5c-12.5,0.8-23.6-3.4-33.5-12.8
		c-4.1-3.8-5.8-5.1-6.1-4.2s-1.8,1.2-4.6,1.2c-8,0-9.8,5.6-3.2,10.1c1.8,1.2,3.2,2.4,3.2,2.7s-1.5,1.4-3.2,2.7
		c-2.7,1.9-3.3,2.8-3.3,5.1c0,1.5,0.4,3.2,1,3.7c0.5,0.5,0.9,2.7,0.7,5.1c-0.2,5.1,1.7,9,4.5,9.7c1.2,0.2,2.1,0.8,2.1,1.2
		s-2.1,2-4.6,3.7c-2.5,1.7-4.6,3.3-4.6,3.7s0.7,2.6,1.7,5c2.2,6,2.3,16.9,0.1,20.6c-2.1,3.4-6.4,6-12.1,7.2
		c-6.1,1.2-15.4-0.6-24.7-5l-6.6-3.1l0.5-3.7c0.6-4.5,4.1-11.6,9.9-20.3c3.9-5.9,4.6-6.5,6.6-6.1c4.2,0.6,3.2-0.9-1.7-2.3
		c-7.6-2.1-13.3-4.6-18.3-7.9c-5.6-3.6-12-10.3-14-14.4c-1.5-3.2-2.7-3.9-2.7-1.5c0,3.6,9,13.6,16.3,18.2c1.5,0.9,1.5,1-0.1,2.6
		c-0.9,0.9-5.9,4.2-11.1,7.2l-9.5,5.5l-3.7-0.9c-13.8-3.5-24.8-14.9-27.7-28.7c-0.7-3.8-0.7-5,0.2-6.7c2.3-4.2,4.8-5.1,14.5-6.1
		c10.9-1.1,17.3-0.7,19.3,1.2c0.8,0.7,1.9,1.4,2.4,1.4c0.7,0,8.5-16.1,8.5-17.7c0-1.5-1.7-0.3-3.2,2.3c-0.9,1.7-2.3,2.9-3.2,2.9
		c-1.7,0-7-6.6-9.2-11.7c-0.9-2-1.8-5.7-2.2-8.2c-0.8-6.6,0.3-7.6,11.7-10.3c13.7-3.2,32.8-2.8,42.2,0.8c2.2,0.8,3.5,1,4.1,0.4
		c0.7-0.7,0-1.2-2-1.9c-22.8-8-36.7-26.8-34-46.1c1.7-12.6,7.5-24.2,16.5-33.8c10.5-10.9,22.7-17.5,38.8-20.8
		C523.5,378.3,537.1,378.6,540.8,380.3z M498,409.2c-2.7,0-5,2.6-5,5.6c0,2.3,2.7,5.2,5,5.2s5-2.9,5-5.2c0-1-0.6-2.7-1.3-3.7
		C500.9,409.9,499.5,409.2,498,409.2z M589.4,414.4c-2,1.1-4.1,2.5-4.5,3.2c-0.5,0.8,0.3,4.2,2.8,11.4l3.7,10.1h4.2
		c4.7,0,9.1-2.3,10.9-5.8c2.6-5-0.4-15.4-5.1-18.6C597.7,412.2,593.6,412.1,589.4,414.4z M516.3,430.1c-1.2,2.2-0.4,5.5,1.7,6.6
		c0.9,0.5,1.7,1.5,1.7,2.3c-0.1,2.5-3.2,8.5-4.7,9c-2.7,0.9-10.2,6.9-10.2,8.1c0,1.6,1.2,1.6,2.5,0.1c0.5-0.7,2.8-2.4,5.1-3.9
		c4.8-3.2,4.9-3.2,8.3,4.6c1,2.5,2.4,4.6,3,4.6c1.6,0,1.2-1.4-1.9-7.6l-3-5.7l1.8-5c1-2.7,2.2-4.9,2.8-4.9c1.6,0,3.9-3.1,3.6-4.6
		c-0.2-0.8-1.7-2.4-3.6-3.4C519.2,427.9,517.5,427.8,516.3,430.1z M555.5,429.6c-1.2,0.8-1.8,2.1-1.8,4.1c0,3.4,1.8,5.4,4.9,5.4
		c2.7,0,3.8-1.1,4.6-4.3c0.4-1.7,0.1-2.7-1.6-4.3C559.2,428,558.1,427.8,555.5,429.6z M471.1,496.2c-4.8,3.2-8.2,6-7.8,6.3
		c0.5,0.5,13.9-7.2,14-8.1C477.3,493.2,474.3,494.1,471.1,496.2z"/>
	<path id="path162" fill="#0044AA" d="M498,410.9c1.2,0,2.6,2.5,2.3,4.3c-0.2,1.4-0.8,1.9-2.3,1.9s-2.2-0.5-2.3-1.9
		c-0.2-1.1,0.2-2.5,0.7-3.2C497,411.5,497.7,410.9,498,410.9z"/>
	<path id="path164" fill="#AA8800" d="M595.5,415c4.2,0,8.3,4.1,9.5,9.6c1.6,7.5-1.5,12-8.4,12.2l-3.4,0.2l-3.2-8.3
		c-1.7-4.6-3.1-8.8-3.2-9.4c0-0.6,1.2-1.7,2.7-2.7C591,415.8,593.7,415,595.5,415z"/>
	<path id="path166" fill="#C8AB37" d="M521.7,431.7c3.7,2.2,3.9,4.2,0.3,3.9c-2.9-0.2-4.6-2.2-3.8-4.3
		C518.7,430.1,519,430.1,521.7,431.7z"/>
	<path id="path168" fill="#0044AA" d="M560.1,431.8c2.2,2.2,0.2,6.2-2.6,5.1c-1.8-0.7-2.4-2.7-1.4-4.6
		C557.1,430.6,558.6,430.3,560.1,431.8z"/>
	<path id="path170" fill="#5FD3BC" d="M440.4,379.4c0.5-0.1,0.7,3,0.6,8.2c-0.3,7.9-0.2,8.3,1.8,10.4c1.9,1.9,2.7,2.1,9.6,2.1h7.6
		l-0.2,6.8l-0.2,6.9l-4.6,1.7c-4.2,1.5-6.5,1.7-25.7,1.5c-11.6,0-23-0.4-25.3-0.8l-4.1-0.7l0.2-3.7c0.5-8.1,1-9.1,5.5-10.9
		c2.2-0.8,4.1-1.4,4.2-1.3c1.1,2.4,3.4,6.4,3.8,6.4c0.2,0-0.7-3.6-2.3-8c-1.5-4.4-2.7-8.5-2.7-9c0-0.7,1.4-1.3,4-1.7
		c4.6-0.6,16-3.7,22.6-6.1C437.4,380.3,439.9,379.4,440.4,379.4z"/>
	<path id="path172" fill="#37C8AB" d="M472.6,381.5c2,2,1.7,5.1-0.7,6.6c-1.9,1.2-2.2,1.2-4.2,0c-2.5-1.7-2.7-4.1-0.4-6.3
		C469.3,379.8,470.9,379.8,472.6,381.5z"/>
	<path id="path174" fill="#37C8AB" d="M462.4,397.6h3.7c3.2,0,8.8,1.3,8.8,2.1c0,0.2-1.8,2.9-4,6.1c-2.2,3.2-4.6,7.3-5.5,9.1
		c-0.8,1.9-1.9,3.2-2.2,3c-0.4-0.2-0.7-4.9-0.7-10.4V397.6z"/>
	<path id="path176" fill="#00FF66" d="M398.8,400.1c0.4,0,0.4,1.6,0.2,3.5c-0.9,5.6-3.6,32-4.7,46.6c-0.8,10.3-0.8,14.4-0.1,18.9
		c1,5.9,6.5,23.7,9.4,30.4c1.7,4,1.9,3.7-4,5.2c-3.9,1-5.1,3-1.3,2.2c1.5-0.2,3.7,0.5,7.3,2.4c2.8,1.6,8.3,3.8,12.1,5
		c6.1,1.9,8.1,2.1,16.1,1.7c5.4-0.2,10.3-0.8,12-1.6c2.1-0.9,3.3-1,4.3-0.4c1.2,0.8,1.2,1.1,0,3.7c-0.9,2-1.7,2.7-2.6,2.2
		c-0.7-0.2-3.2-0.9-5.5-1.3c-5.2-1.2-22.3,0.6-26.3,2.6c-7.1,3.7-8,10.9-2.4,22.2c5.6,11.3,13.5,17.8,26,21.5l4.7,1.3l9.8-5.6
		c5.3-3.1,10.9-6.6,12.2-7.7l2.4-2.2l4.6,1.7c2.6,1,5.3,2.1,6.1,2.3c1.2,0.5,1.1,1-1.4,4.5c-3.9,5.5-7.9,12.4-9.5,16.4
		c-0.7,1.9-2.3,4.6-3.7,6.1c-1.2,1.5-2.9,3.9-3.6,5.4c-1.2,2.4-1.1,2.3,2-1.1l3.3-3.7l0.1,2.6c0,3.2,1.6,4.6,7.6,7.3
		c8.3,3.7,14.4,4.9,22.8,4.5c8.6-0.5,8.2-0.7,9,6.2l0.5,4.3l-4.4,4.2c-12.8,12-30.4,20.8-53.2,26.6c-10.4,2.7-36.8,6.9-47.1,7.6
		c-7.9,0.6-26.7-0.6-41.4-2.4c-7.2-0.9-7.9-1.2-8.5-3.1c-0.3-1.2-2.2-7.9-4.1-14.9c-5.8-21.7-14-50-16.2-55.4
		c-3.2-8.1-2.7-11.1,2.4-14.1c1.8-1.1,3.2-2.7,3.5-4.1c1-3.9,5.3-12,9.6-17.8c6.1-8.2,20.9-22.2,23.1-21.7c2.2,0.6,7.5-0.4,7.5-1.4
		c0-0.4-1.2-0.8-2.7-1c-2.2-0.2-2.7-0.7-3.3-2.7c-2.2-7.8-4.8-50.9-4.8-79.4c0-7.7-0.3-12.4-0.9-12.7c-0.5-0.3-1.1,0.2-1.3,1.2
		c-0.4,1.5-1.9,2.6-1.9,1.2c0-0.9,1.9-4.2,3.7-6c2.7-3.1,5.8-4.3,19.2-7.7C392.4,401.6,398.4,400.2,398.8,400.1z M380.9,512.1
		c-2.7,2.7-3,4.8-1.2,8.3c1.3,2.7,2.7,3.4,6.6,3.4c2.9,0,5.7-2.3,6.6-5.6c0.7-2.2-1.3-6.5-3.6-7.7
		C386.5,509,383.5,509.6,380.9,512.1z M349.1,564.8c-4-0.9-1.9,0.9,5.4,4.8c6.1,3.2,10.8,6.6,20.8,14.8l3.6,2.9l-2.3-2.9
		c-3.7-4.6-11.5-10.9-18.6-15.1C354.4,567.1,350.5,565.1,349.1,564.8z M443.3,592.8c-1.6,1.2-4.8,1.9-14.5,2.9
		c-13.4,1.5-39.3,2-42.7,0.9l-2.1-0.7l2,1.7c1.1,1,2.5,1.7,3.2,1.7c0.7,0,3.5,2.2,6.2,4.7c3.5,3.3,5.1,4.4,5.4,3.7
		c0.2-0.7-1.2-2.5-3.2-4.2l-3.7-3.1l8.3-0.6c10.3-0.7,31.7-2.9,34-3.5c3.6-0.9-2.2,2.7-16,10c-14.5,7.7-15.8,8.5-14.9,9.3
		c0.8,0.9,19.6-9.1,31.3-16.8c3-1.9,7-3.9,9-4.4c1.9-0.6,3.5-1.2,3.5-1.4c0-0.2-1-0.1-2.2,0.2c-2.1,0.6-2.2,0.5-1.2-0.7
		C447.2,590.5,445.8,590.8,443.3,592.8z"/>
	<path id="path178" fill="#5FD3BC" d="M389.8,514.2c1.8,2.8,1,5.7-2.2,7.1c-2.1,0.8-2.8,0.8-4.6-0.3c-2.4-1.6-2.8-5.5-0.7-7.5
		C384.3,511.4,388.2,511.8,389.8,514.2z"/>
	<path id="path180" fill="#87DECD" d="M460,416c1-0.2,1.1,8.7,0.1,13.2c-1.4,6.2-1.3,15.4,0.2,20.7c1.3,4.5,1.2,6.5-1.5,22.2
		l-0.8,5.1l-7.7,1.7c-4.2,1-9,2.6-10.4,3.5l-2.7,1.6l0.3,6.4c0.4,7.1,2.5,12.8,6.5,17.8c1.4,1.7,2.5,3.2,2.5,3.5
		c0,1.1-7.8,2.3-14.9,2.4c-6.4,0-9.2-0.4-14.8-2.2c-5.9-1.9-6.7-2.4-6.1-3.7c1.7-3.2,5.6-5.8,10-6.8c2.5-0.6,5.1-1.3,5.8-1.7
		c1.7-1-4.4-0.2-12.7,1.7l-6.6,1.5l-1.7-3.9c-0.8-2.1-3.3-8.9-5.5-15c-3.6-10.6-3.8-11.8-4.2-22c-0.2-6.6,0.2-15.9,1-23.7
		c2.2-20.2,2.2-20.9,3.5-20.4c0.7,0.2,8.4,0.9,17.3,1.4c17.3,1.2,31.7,0.3,38.3-2C458,416.6,459.7,416,460,416z"/>
	<path id="path182" fill="#87DECD" d="M360.5,420h3.7l0.5,10.1c0.3,5.5,0.6,14.4,0.6,19.7c0,17.1,2.5,50.7,4.2,56.5
		c0.6,1.9,0.3,2.4-1.2,3.2c-2.9,1.3-15.8,13.9-21.3,20.7c-5,6.2-8.8,12.9-10.6,18.7c-0.7,2.2-2.2,3.9-4.5,5.5
		c-2.1,1.4-3.7,3.2-4.2,4.7c-1.9,6.6-3.3,9.9-6.4,14.5c-3.2,4.9-3.4,5.1-6,4.6c-8-1.6-21.3-9.9-31.4-19.3l-5.7-5.3l1.4-2.6
		c1.7-3.6,18.4-26.9,24.7-34.6c2.7-3.4,9.5-11.5,15-17.8s10.5-12.8,11.1-14.3c0.7-1.8,1.7-2.7,3.2-2.9c1.9-0.2,2.4-1.2,5.9-11.2
		c3.7-10.6,5.1-13.4,5.1-10.9c0,2.2,3.1,4.2,5.3,3.7c3.8-1,6.1-8.2,3.5-11.7c-0.8-1.2-1.7-1.4-4.1-1l-3,0.5l1.6-4.3
		c0.9-2.4,1.7-4.5,1.7-4.7s0.7,0.8,1.7,2.2c2,3.3,4.3,3.5,7.1,0.7c2.2-2.2,2.8-6.6,1.2-9.6c-1-1.8-4.9-2.2-6.5-0.6
		c-1.3,1.3-1.3,1.2,1.5-6.7c1.4-3.8,2.5-7.1,2.5-7.2S358.6,420,360.5,420z"/>
	<path id="path184" fill="#5FD3BC" d="M357.8,437c1.2,2.6-0.7,6.7-3,6.7c-2.2,0-2.8-4.9-0.7-7.1C356,434.5,356.8,434.5,357.8,437z"
		/>
	<path id="path186" fill="#5FD3BC" d="M351.5,455.7c0,4.4-2.2,6.4-4.2,3.8c-1.3-1.8-0.8-4.2,1.2-6.6
		C350.5,450.7,351.5,451.7,351.5,455.7z"/>
	<path id="path188" fill="#5FD3BC" d="M468.1,464.3c2,2.7,5.8,6.4,8.5,8.3c2.7,1.9,4.8,3.7,4.8,3.9c0.1,0.4-20.1,0-20.5-0.4
		c-0.2-0.2,0.2-4,1-8.5c0.7-4.6,1.3-8.5,1.3-9C463.2,457.7,463.5,458.1,468.1,464.3z"/>
	<path id="path190" fill="#FF2A7F" d="M621.7,469.9c1,2.3,1.3,2.5,4,2c4.1-0.7,6,1.2,6,6.1c0,2.1,0.5,5.1,1,6.6
		c0.9,2.5,0.8,3.2-0.8,6.2c-1.2,2.2-1.6,3.7-1,4.2c1.3,1.3,1,3.6-1.2,8c-2.2,4.3-3.4,4.9-7.4,3.4c-1.3-0.6-2.8-0.5-4.4,0.1
		c-3.1,1.2-6.1,0.4-9.3-2.2c-2.2-1.9-3-2.1-6.5-1.7c-5.6,0.7-7.3-0.7-7.2-5.7c0.1-2.9-0.2-3.9-1.3-4.2c-3.2-1-4.2-3.2-3.6-7.9
		c0.6-5.2,2.2-7.1,6.6-7.9c5.6-0.9,5.9-1.2,3.4-3.1c-2.7-1.9-2.9-3.6-0.9-5.8c1.4-1.6,4.8-2,5.6-0.7c0.7,1.2,2.9,1.1,2.9-0.2
		c0-0.5,0.7-1.7,1.4-2.6C611.8,461.5,619.6,464.7,621.7,469.9z M610.4,481.6c-4.3,2.1-4.2,8.5,0.2,10.5c4.9,2.2,9.8-2.6,7.7-7.6
		c-0.6-1.3-1.9-2.8-3-3.2C612.9,480.4,612.7,480.4,610.4,481.6z"/>
	<path id="path192" fill="#D4FF2A" d="M616.7,486.9c0,2.7-3.2,4.2-5.7,2.9c-1.9-1.1-2.3-4.2-0.7-5.7
		C612.4,481.9,616.7,483.8,616.7,486.9z"/>
	<path id="path194" fill="#FF2A7F" d="M591.2,494c1.4,0.7,1.5,1.1,0.6,1.7c-0.7,0.4-2.3,0.7-3.7,0.7s-5.2,1.3-8.5,2.9
		c-7.1,3.6-13.5,10.2-17.7,18.2c-1.8,3.6-3.3,5.5-4.2,5.5c-2.2,0-1.8-1.8,1.6-7.6c5.8-9.7,14.3-17.5,22.6-20.8
		C586.3,492.9,588.8,492.7,591.2,494z"/>
	<path id="path196" d="M410.2,503.9c0.5,0,0.5,0.5-0.2,1.2c-1.2,1.4-2.2,1.1-1.2-0.3C409.1,504.3,409.7,503.9,410.2,503.9z"/>
	<path id="path198" d="M405,505.5c0.4,0,1.1,0.3,1.3,0.8c0.2,0.4,0.2,0.8-0.3,0.8c-0.4,0-1.1-0.4-1.3-0.8
		C404.4,505.8,404.5,505.5,405,505.5z"/>
	<path id="path200" fill="#FFF6D5" d="M529.3,522.4c9.7,11,6,29.6-5.9,29.6c-2,0-4.6-0.4-5.7-0.9c-2.7-1.2-4.2-5.5-3-8.6
		c0.7-1.7,0.6-2.7-0.2-3.7c-3.2-3.7-1.2-7.6,4.5-9.3c1.7-0.6,3.2-1.3,3.2-1.7c0-0.3-1.9-1.8-4.2-3.2c-5.1-3.2-6.6-5.6-4.5-7.1
		C517.3,514.6,524.4,516.8,529.3,522.4z M525.7,539.9c-2.4,1-4.4,2.2-4.4,2.8c0,0.7,0.6,0.9,1.9,0.5c2.8-0.8,6.2-2.7,6.8-3.7
		C530.9,538.1,530.3,538.1,525.7,539.9z"/>
	<path id="path202" fill="#5FD3BC" d="M539,543.5c2.5,2.7,2.7,6.4,0.4,10.4c-1.7,3-2,4.5-1.7,8.3c0.4,5.7-0.9,9.4-4,11
		c-2,1.1-2.7,1-5.5-0.4c-1.7-0.9-4.2-1.7-5.4-1.7c-2.7,0-5.4-3-6.6-7.6c-0.5-1.8-0.7-3.4-0.6-3.5c0.2,0,1.7-1.2,3.6-2.7
		c1.8-1.4,4.8-2.8,6.6-3.2c3.9-0.7,9.1-5.7,10-9.5C536.5,541.6,537.1,541.5,539,543.5z"/>
	<path id="path204" fill="#FFF6D5" d="M282.3,560.8c3.6,3.8,13.9,11.1,21.1,15c6,3.2,7.1,4.1,7.2,5.9c0.2,5.3-0.7,9.3-2.2,9.3
		c-1.7,0-4.4-3.7-5.9-8.4c-0.7-2.2-1.7-4.1-2-4.1s-2,1.5-3.8,3.3c-1.7,1.8-4.8,3.9-6.6,4.6c-4.9,1.8-8.6,0.2-12-5.1
		c-3.2-5.1-3.2-7.4,0.1-19.7C279.2,558.1,279.7,558,282.3,560.8z"/>
	<path id="path206" fill="#80E5FF" d="M528.9,576.2c4.8,5.1,6.6,10.5,4.8,14c-2.1,3.8-5.4-0.1-6.6-7.9c-0.6-3.2-1.3-6.6-1.8-7.4
		C524,572.6,526.2,573.3,528.9,576.2z"/>
	<path id="path208" fill="#004455" d="M503.4,613.6l0.7,2.6c0.3,1.5,0.3,5.6,0.1,9.3c-0.5,6.2-0.7,6.8-3.5,9.8
		c-3.7,3.8-15.9,11.3-24.2,14.8c-6.6,2.8-16,4-22,2.7c-3.5-0.7-4.5-2.3-5.8-9.6c-0.6-2.9-0.5-3,2.7-3.6c5.3-1,21.7-6.9,28.7-10.4
		c7.3-3.7,13.5-7.6,19.5-12.4L503.4,613.6z"/>
	<path id="path210" fill="#87DECD" d="M502.9,636.8c0.2-0.1,0,3.7-0.3,8.4c-0.7,10,0.7,23.4,3,31.1c0.9,2.9,3.7,9.5,6.1,14.8
		c5,10.4,6.6,15.6,7.9,25.6c1.2,9.5,1.2,9.3-2.8,13.4c-2.9,2.9-5,4.1-10.4,5.7c-3.7,1.2-8.1,2.2-9.6,2.2c-2.7,0-2.9-0.2-7.3-9
		c-5.1-10.2-13.9-23.8-20.7-31.7c-6.7-7.9-9.8-14.9-14.8-33.6c-1-3.7-1.9-7.2-2.2-8c-0.3-1.2,0.2-1.2,4.6-0.5
		c11.2,1.8,28.1-4.3,42-15.2C500.8,638.2,502.8,636.8,502.9,636.8z"/>
	<path id="path212" fill="#004455" d="M356.2,644.8l3.5,0.4c11.1,1.6,27,2.4,39,2.2l13.9-0.3v2.2c0,4.5-6.6,7.9-17,8.7
		c-6.8,0.5-21.2-1.4-30.8-4.2c-6.5-1.8-6.5-1.8-7.6-5.5L356.2,644.8z"/>
	<path id="path214" fill="#87DECD" d="M361.3,655.3c11.2,3.3,17.3,4.2,29.6,4.2c11.6,0.1,13.3-0.1,16.9-1.8l4.1-1.8l-0.5,5.6
		c-1.2,12.7-1.7,25.7-2.2,56.4l-0.5,32.2l-4,2.5c-5.1,3.2-13.7,3.9-20.8,1.8l-4.8-1.4l-4-8.5c-6.1-12.9-6.6-15.5-6.5-36.3
		c0.2-20.9-0.8-28.1-6-42.4c-1.8-5.1-3.3-9.7-3.3-10.1S360.3,655,361.3,655.3z"/>
	<path id="path216" fill="#004455" d="M520,730.7l0.2,4.5c0.3,5.7-1.1,8.5-5.4,10.9c-3.6,1.9-12.5,4.8-16.5,5.3
		c-2,0.2-2.2,0-2.5-3.8c-0.2-2.2-0.5-4.7-0.7-5.6c-0.4-1.2,0.2-1.5,3.1-2c6.5-0.9,14.3-3.8,18.1-6.6L520,730.7z"/>
	<path id="path218" fill="#004455" d="M408.5,753c0.2,0,1,2.6,1.6,5.7c1.3,7.2,0.8,8-6.3,9.3c-7.7,1.4-12.5,0.3-16.1-3.5
		c-1.6-1.7-3.6-4.3-4.4-5.7l-1.5-2.6l3.6,0.6c7.1,1.2,14.4,0.7,18.7-1.6C406.2,754,408.2,753,408.5,753z"/>
	<path id="path220" fill="#E3D7F4" d="M171.9,93.1l5,5.1c4.6,4.8,4.9,5.2,4.1,7.6c-0.4,1.3-0.8,3.3-0.8,4.3c0,1.1-0.2,2-0.5,2
		c-0.7,0-10.6-8.3-11-9.1c-0.1-0.3,0.6-2.7,1.5-5.2L171.9,93.1z"/>
	<path id="path222" fill="#E3D7F4" d="M189.9,98.8c2.2,0,6.1,4.6,8.7,10c3.2,7,3.4,8,1.5,8.6c-0.9,0.2-2.5,1.5-3.4,2.7l-1.7,2.1
		l-6.4-4.1c-4.6-2.9-6.6-4.6-6.7-6c-0.4-2.7,1.9-8.5,4.4-11.2C187.4,99.8,189.1,98.8,189.9,98.8z"/>
	<path id="path224" fill="#8D5FD3" d="M173.8,111.5c0.9,0.7,6.3,4.1,12,7.6c9.8,6.2,10.1,6.6,9,8.3c-0.7,0.9-5.7,9-11.3,17.9
		c-5.6,8.9-11.5,18.2-13.1,20.6l-2.8,4.4l-2.7-1.7c-1.5-1-6.6-4.2-11.5-7.3c-5-3.1-9-5.9-9-6.3c0-0.3,6.2-10.5,13.8-22.7
		C171.5,111.2,172.2,110.4,173.8,111.5z"/>
	<path id="path226" fill="#E3D7F4" d="M208.3,121.8c3.1,2.9,3.7,5.2,2.2,7.4c-1.2,1.6-1.2,1.6-5-0.4c-2.2-1.1-4.8-2.9-6-4
		c-2.1-1.9-2.1-2.1-0.7-3.7C201,118.7,205.3,119,208.3,121.8z"/>
	<path id="path228" fill="#E3D7F4" d="M231.3,124.7c2.5,1.2,3.2,3,2.4,6.1c-0.7,2.7-4.3,6.8-7.3,8.4c-2.4,1.2-2.6,1.2-8.6-2.6
		c-6.1-3.8-7-4.8-5.3-5.8c0.5-0.2,0.8-2,0.8-3.7c0-2.7,0.3-3.2,1.9-3.7C218.4,122.7,228.9,123.5,231.3,124.7z"/>
	<path id="path230" fill="#E3D7F4" d="M199.9,128.2c5,3,5.3,3.5,4.3,5.4c-1.8,3.5-25.2,40.3-26.1,41.3c-0.8,1-1.7,0.7-4.6-1.1
		c-2.2-1.4-3.3-2.6-3-3.4c0.2-0.7,5.5-9.1,11.5-18.8c6.1-9.7,12.1-19.2,13.4-21.2C197.6,126.9,197.6,126.9,199.9,128.2z"/>
	<path id="path232" fill="#8D5FD3" d="M207.5,132.8l6.8,4.2c15.4,9.6,17.3,10.9,17.3,11.5c0,0.8-25.6,41.7-27.1,43.2
		c-0.9,1-2.7,0.2-12.1-5.7c-6.1-3.8-11.5-7.3-12-7.8c-0.7-0.7,1.8-5.2,9.8-17.9c5.9-9.4,12.2-19.3,14-22.2L207.5,132.8z"/>
	<path id="path234" fill="#E3D7F4" d="M234.2,136.2c0.3-0.1,2.2,0.7,4.2,1.5c2,0.9,5.1,1.9,6.8,2.2l3.2,0.7l-3.6,3.6
		c-2,2-4.2,3.7-5.1,3.7c-0.8,0-4.2-1.3-7.4-2.9l-5.8-3l3.6-2.8C232.1,137.5,233.9,136.2,234.2,136.2z"/>
	<path id="path236" fill="#C83737" d="M704.6,96.6c0.2,1.2,0,1.4-1.7,0.9c-2.5-0.8-2.6-0.9-1.9-2.1C701.8,94,704.2,94.8,704.6,96.6z
		"/>
	<path id="path238" fill="#C83737" d="M719.5,117.7c3,6.2,3.1,6.5,3.1,16c0,9.6-0.7,12.5-2.2,9.6c-1.5-2.6-5.6-4.2-9.6-3.6
		c-2.9,0.3-3.6,0.2-3.6-0.8c0-0.7-1.2-2.4-2.5-3.8c-2.3-2.3-2.9-2.5-6.9-2.2c-4.3,0.3-4.3,0.3-5.8-2.7c-2.2-4.6-6.4-5.9-11.5-3.7
		c-1.1,0.4-1.5,0.2-1.5-0.7c0-4.3-5.4-7.7-10.8-6.8c-2.7,0.4-3.3,0.2-3.3-0.8c0-0.7-1.1-2.4-2.4-3.7c-1.9-1.9-3.2-2.4-6-2.4h-3.6
		l4.4-4.5c5.1-5.1,11.7-9,18.4-10.8C692.7,92.2,711.3,101.1,719.5,117.7z"/>
	<path id="path240" fill="#4400AA" d="M687.1,128.7c0.2,0.7-3.9,9.9-9,20.3c-10.2,20.7-11.3,22-17.8,22c-5.8,0-9.9-4.8-9.3-10.9
		c0.4-4.3,2.3-4.1,2.3,0.3c0,6.9,5.7,10.7,11.6,7.6c2.2-1.2,4-4.1,12.2-21C682.4,136.3,686.9,128,687.1,128.7z"/>
	<path id="path242" fill="#D45500" d="M91.3,120.2c0,6.3-1.3,13.1-2.7,13.9c-1.7,1-11.8-7-15.8-12.5c-2.3-3.2-3.1-7.4-1.5-8.4
		c0.4-0.2,2.6,0.4,4.8,1.6c4.2,2.2,5.1,2.1,5.1-0.2c0-0.7,0.7-2.6,1.7-4.1C86.7,104.4,91.3,109.7,91.3,120.2z"/>
	<path id="path244" fill="#FF2A7F" d="M609.4,186.1c-1,3.1-2.2,5.8-2.7,6.1c-2,1.2-15.3-14.2-15.7-18.3c-0.6-5.2,1-5.9,6-2.5
		c1.7,1.2,3.2,2.1,3.5,2.1s1-1.2,1.6-2.7c0.7-1.5,1.8-3.3,2.6-4.2C610.4,160.9,613.5,173.8,609.4,186.1z"/>
	<path id="path246" fill="#FF2A7F" d="M757.5,216.3c0.7,2,1.7,3.7,2.1,3.7s1.9-0.7,3.4-1.7c3.5-2.2,6.1-2.1,7.3,0
		c1.2,2.3-1.9,9.2-6.2,13.5c-4.2,4.3-9.5,7.6-10.4,6.7c-1.2-1.2-3.3-12.4-3.3-17.4c0-4.4,1-7.6,2.7-8.8
		C754.7,211.3,756.1,212.7,757.5,216.3z"/>
	<path id="path248" fill="#AAD400" d="M726.7,280.9c3.3,4.1,3.4,4.3,1.7,5c-0.8,0.3-2.2-0.6-3.9-2.5c-12.5-14.1-34.2-7.6-36.1,10.9
		c-0.3,3.5-0.8,4.5-2.2,4.9c-1.5,0.4-1.6,0.1-1.2-4.7c0.7-8.8,5.7-16.3,13.3-20C707.4,269.9,720,272.8,726.7,280.9z"/>
	<path id="path250" fill="none" d="M715.9,279.7c4,1.8,8.5,6.4,7.4,7.5c-1,0.8-30.4,10-32.2,10c-1.1,0-1.2-0.5-0.8-2.3
		c1.6-7.6,4.9-12.4,10.7-15.4C704.4,277.7,711.9,277.7,715.9,279.7z"/>
	<path id="path252" fill="#CCFF00" d="M743.2,289.2c1.7,1.1,4.1,3.3,5.1,5.1c1.7,2.9,1.7,3.3,0.7,6.5c-2.8,8.1-9.3,16.3-16.8,21.5
		l-3.7,2.5l-2.8-2.7c-2.5-2.4-3.5-2.8-7.1-2.8c-3.8,0-4.5,0.3-7.1,3.1c-2,2.2-2.8,3.9-2.8,5.7v2.7l-6.1-0.5
		c-9.5-0.8-18.4-4.6-24.7-10.4c-4.2-3.9-2-12.3,4.2-16.2c1.6-0.9,13.2-5,25.8-9C733.8,286.5,737.7,285.8,743.2,289.2z"/>
	<path id="path254" fill="#CCFF00" d="M752.1,301.9c0.3,0.3,2.6,5,5,10.2c2.3,5.2,5.4,11.8,6.7,14.5c2.8,5.6,3.3,11,1.2,15.1
		c-1.7,3.4-6.6,7.5-9.9,8.4c-1.5,0.4-13.5,4.2-26.8,8.3c-33,10.4-33.7,10.5-40,6.6c-4.7-2.8-5.7-5.6-9-24.5
		c-1.6-9.6-2.9-17.8-2.9-18s2.1,0.9,4.7,2.5c6.2,4.1,12.3,6.1,21.2,7.1c5.7,0.7,7.6,1.3,8.2,2.5c1.1,2,5.1,4,8.2,4
		c5.3,0,10-4.4,10-9.4c0-1.5,1.2-2.8,4.6-5.1c6.1-4.2,12.3-11.3,15.4-17.7C750.3,303.6,751.8,301.6,752.1,301.9z"/>
	<path id="path256" fill="#003380" d="M723.7,323.4c6.7,5.6-0.4,16.4-8.2,12.4c-3.2-1.7-5.3-6.1-4.2-9c0.4-1.1,1.8-2.8,3.1-3.8
		C717.4,320.7,720.7,320.7,723.7,323.4z"/>
	<path id="path258" fill="#DD55FF" d="M223,286c1,1.6,1.2,3.1,0.8,6.1c-0.5,3.7-4.9,13.8-7.6,17.2c-1.2,1.7-1.3,1.6-3.8-1.2
		c-3.4-4-9-15.5-9-18.8c0-5.1,4-5.5,7.1-0.7c0.7,1.2,1.7,2.1,2.1,2.1s2.1-1.5,3.7-3.3C219.8,283.3,221,283.1,223,286z"/>
	<path id="path260" fill="#2AFF80" d="M105.4,288.9c1.4,0.8,1.2,1.2-1.4,2c-1.3,0.4-1.9,0.2-1.9-0.6c0-0.6,0.2-1.4,0.6-1.7
		C103.3,287.9,103.9,287.9,105.4,288.9z"/>
	<path id="path262" fill="#2AFF80" d="M122.9,290.4c9.8,0.8,21.2,7.1,26.6,14.4l2.6,3.6l-3.3,0.4c-4.2,0.7-7.5,2.8-8.1,5.4
		c-0.4,1.7-0.7,1.9-2.6,1.2c-4.8-1.8-10.1,0-11.9,4.2c-0.8,2.1-1.2,2.4-2.5,1.7c-2.9-1.5-7.2-0.9-9.9,1.3c-1.4,1.2-2.6,2.7-2.6,3.2
		c0,0.8-1.2,1-4.9,0.7c-4.6-0.4-5.1-0.3-7.4,1.9c-1.3,1.3-2.6,3-2.7,3.6c-0.3,1-0.9,1-3.1,0.2c-3.2-1.1-8.1,0.1-9.5,2.4
		c-1.7,2.8-2.2,1.7-2.2-5.7c0-11.9,3.7-20.3,12-28.2c5.6-5.3,13.7-9.2,20.8-10C116.9,290.3,120.8,290.2,122.9,290.4z"/>
	<path id="path264" fill="#217844" d="M116.9,322.9c0.4,0,4.2,8.7,8.3,19.3c8.5,21.5,9,24.5,5.6,28.7c-3.2,3.8-7,4.7-11.5,2.7
		c-3.9-1.7-6.2-4.6-4.6-5.6c0.5-0.3,1.4,0.2,2,1.1c1.9,2.7,5.6,3.8,9,2.7c5.6-1.8,7-7.3,3.7-14.7c-2-4.6-13.2-33.4-13.2-33.9
		C116.2,323.1,116.5,322.9,116.9,322.9z"/>
	<path id="path266" fill="#D45500" d="M692.1,406.2c3.1,3.3,5.3,9.5,5.7,16.4c0.6,7.6,0.7,7.5-6.5,5c-10-3.4-17.1-8.7-16.4-12.3
		c0.3-1.6,4.4-2,7.8-0.8c1.6,0.6,1.8,0.2,2.2-4c0.2-2.5,0.7-4.9,1-5.4C687,403.6,690.3,404.2,692.1,406.2z"/>
	<path id="path268" fill="#FF2A7F" d="M247.4,439.7c0,0.8,0.2,2.9,0.5,4.6l0.5,3.1l-5.9,2.9c-3.2,1.7-6.1,3-6.3,3s-0.4-2-0.4-4.4
		c0-4.2,0.1-4.5,2.7-5.4c1.4-0.5,3.8-1.9,5.1-3.1C246.6,437.9,247.4,437.8,247.4,439.7z"/>
	<path id="path270" fill="#FF2A7F" d="M233.7,447.2c0.8,5.5-0.4,7.1-7.2,9.3c-4.7,1.5-6.1,1.7-6.5,0.8c-0.2-0.6-1.2-2-2.3-3.1
		c-2.6-2.5-2-3.9,4.1-10C228.1,437.7,232.4,438.8,233.7,447.2z"/>
	<path id="path272" fill="#FF2A7F" d="M199.6,455c3.2,1.1,3.2,1.2,3.2,5.2v4.1l-6.5,2.1l-6.5,2.2l-2.3-2.7
		c-3.8-4.2-4.8-10.1-2.2-12.1C186.7,452.9,195.6,453.6,199.6,455z"/>
	<path id="path274" fill="#D35F5F" d="M243,453.6c0.5,0.4,15,44.7,14.8,45.1c-0.6,0.5-22.2,7.6-23.3,7.6c-0.7,0-3.9-8.3-8.5-22.3
		l-7.5-22.4l12.1-4.1C237.3,455.3,242.9,453.6,243,453.6z"/>
	<path id="path276" fill="#FF2A7F" d="M216.5,455.9c2.2,2.2,1.1,3.7-4.6,5.5c-3,0.9-5.8,1.6-6.2,1.3c-1.2-0.8-0.7-4,1.2-5.9
		C208.8,454.6,214.7,454.1,216.5,455.9z"/>
	<path id="path278" fill="#FF2A7F" d="M181.8,462.4c0.7,0,5.2,6.6,4.8,7.1s-9,2.1-10.5,2.1c-0.9,0-2.3-1.5-3.7-4.1l-2.2-4l5.1-0.1
		c2.8-0.1,5.3-0.2,5.6-0.5C181,462.5,181.5,462.4,181.8,462.4z"/>
	<path id="path280" fill="#FF2A7F" d="M224,485.5l7.5,22.3l-3.2,0.9c-1.7,0.5-3.5,0.9-4,0.9c-0.7,0-15.1-41.4-15.1-43.7
		c0-0.5,1-1.3,2.3-1.7C216.4,462.4,216,461.7,224,485.5z"/>
	<path id="path282" fill="#D35F5F" d="M206,465.8c0.5-0.1,15.8,44.9,15.4,45.2c-1.2,1-23.4,7.7-23.8,7.2
		c-0.8-0.8-15.2-44.2-14.9-44.6c0.2-0.2,5.4-2,11.5-4.1C200.4,467.5,205.7,465.8,206,465.8z"/>
	<path id="path284" fill="#D45500" d="M114.2,458.9c1.3,4.4,1.4,16.8,0.2,18c-1,1-12.4-5.6-16.5-9.5c-6.8-6.3-6.1-10.9,1.1-8.1
		c1.8,0.7,3.7,1.2,4,1c0.3-0.2,0.9-1.8,1.2-3.5c0.3-1.7,0.9-3.8,1.3-4.6C107.6,448.3,112.2,451.9,114.2,458.9z"/>
	<path id="path286" fill="#AFDDE9" d="M767.1,455.5c0.2,0.8,0.7,3.2,1.1,5.3l0.6,3.9l-5.1,2.6c-2.7,1.4-6,3-7.1,3.4
		c-2.1,0.7-2.1,0.7-2.1-4v-4.7l4.5-2.3c2.5-1.3,5.1-3.1,6-4C766.4,454.1,766.5,454.1,767.1,455.5z"/>
	<path id="path288" fill="#AFDDE9" d="M749.5,458c2.6,2.6,3.8,8.1,2.7,12.1c-0.6,2.1-1.5,2.7-6.1,4.3c-9.4,3.2-9,3.1-9,1.6
		c0-0.7-1.2-2.5-2.6-3.8l-2.6-2.4l2.9-3.9c3.2-4.3,6.7-7.8,9.3-9.2C746.6,455.4,746.9,455.5,749.5,458z"/>
	<path id="path290" fill="#AFDDE9" d="M718.9,475.7c-0.2,0.7-0.4,2.1-0.4,3.2c0,1.2,0.2,2.6,0.4,3.2c0.2,0.7-1.9,1.9-7.1,3.7
		l-7.4,2.5l-3.2-3.3c-4.5-4.8-5.5-12.8-1.7-13.9C704,469.9,719.6,473.6,718.9,475.7z"/>
	<path id="path292" fill="#00AAD4" d="M761.9,471.8c0.7,0,4,8.5,9.4,24.6c4.5,13.4,8.1,24.7,8.1,24.9c0,0.8-26.8,9.2-27.4,8.5
		c-0.7-0.8-15.9-46.5-16.1-48.2c-0.1-0.9,3.6-2.6,12.4-5.6C755.2,473.6,761.3,471.7,761.9,471.8z"/>
	<path id="path294" fill="#AFDDE9" d="M734.5,476.7c-0.3,2.2-11.1,6.1-12.9,4.6c-2.6-2.2-0.7-6.2,3.9-8.1
		C729.6,471.5,734.9,473.6,734.5,476.7z"/>
	<path id="path296" fill="#AFDDE9" d="M695,481.6c0.7-0.1,1.4,0.2,1.4,0.7c0,0.4,1.2,2.1,2.6,3.7c2.8,3.2,2.9,3-3.6,4.5
		c-6.9,1.6-7.9,1.3-10.6-3c-1.4-2.2-2.5-4.2-2.5-4.6c0-0.3,2.5-0.7,5.6-0.9C691,481.9,694.2,481.7,695,481.6z"/>
	<path id="path298" fill="#AFDDE9" d="M733.1,482.2c0.6,0.5,16.4,47.6,16.4,48.8c0,0.8-8.2,3.6-8.6,2.8
		c-0.7-1.4-16.4-49.2-16.2-49.4c0.2-0.2,2-0.8,4.1-1.5C730.9,482.2,732.8,481.9,733.1,482.2z"/>
	<path id="path300" fill="#00AAD4" d="M721.7,485.1c0.7,0.2,17.1,47.8,17.1,49.6c0,0.2-5.8,2.5-12.9,4.9
		c-10.5,3.5-13.1,4.2-13.7,3.2c-0.9-1.5-15.9-46.4-16-48c-0.1-0.8,3.7-2.6,12.4-5.6C715.4,486.9,721.3,485,721.7,485.1z"/>
	<path id="path302" fill="#FF0066" d="M89.5,572.8c1,2.1,2.2,3.7,2.5,3.7c0.3-0.1,2.3-0.9,4.5-2.1c3.2-1.6,4.1-1.7,5.1-0.8
		c3.8,3.1-1.8,13.4-10.6,19.5c-2.3,1.6-4.5,2.9-4.8,2.9c-1.1,0-3.5-12.3-3.5-17.9c-0.1-4.7,0.2-6.3,1.5-7.7
		C86.3,567.9,87.2,568.4,89.5,572.8z"/>
	<path id="path304" fill="#0055D4" d="M672.9,595.2c0.4,3.9,0.2,5.1-0.6,4.7c-0.6-0.2-1.2-2.1-1.4-4.4
		c-1.2-13.6-15.5-19.9-26.4-11.6c-4,3.1-5.6,3.7-4.9,1.7c0.7-1.8,6-5.6,9.4-6.8C660.7,574.7,671.8,582.4,672.9,595.2z"/>
	<path id="path306" fill="none" d="M665.1,586.6c2.7,3,5.3,11.9,3.5,11.9c-0.2,0-6-2.3-12.8-5.1c-12.1-5-12.4-5.1-11-6.7
		c1.8-2,4.1-3.2,7.3-3.9C656.5,581.6,662.2,583.4,665.1,586.6z"/>
	<path id="path308" fill="#0055D4" d="M655.8,595.7c19.3,8,22.7,10.1,23.7,15.4c1.1,5.5,0.1,7.1-6,9.9c-4.9,2.3-6.5,2.7-13,2.7
		l-7.5,0.1l-0.6-3.2c-1.1-6.4-7.8-9.2-12.7-5.4l-2.2,1.8l-2.9-2.8c-4.4-4.3-7.6-9.8-9.2-15.9c-1.7-6.1-1.4-6.6,3.5-9.3
		C632.7,586.9,636.6,587.9,655.8,595.7z"/>
	<path id="path310" fill="#0055D4" d="M622.1,596.8c0.1,0,1,2.3,2.1,5.1c2,5.6,7.1,13.1,10.4,15.3c1.7,1.1,2.1,2.1,2.1,4.6
		c0,6.1,7.2,9.5,12.5,5.9c1.6-1.2,3.9-1.5,10-1.6c6.5-0.1,8.8-0.4,13.3-2.2c2.9-1.2,5.4-2.1,5.5-2c0.5,0.4-7,26.4-7.9,27.5
		c-1.6,1.9-6.3,3.8-9.4,3.8c-2.8,0-42.5-15.9-47.8-19.3c-3.3-2-5.1-5.4-5.1-9.4c0-3.5,0.7-4.9,8.5-18.1
		C619.3,601.2,622.1,596.8,622.1,596.8z"/>
	<path id="path312" fill="#501644" d="M648.7,617.6c3.3,3.7-0.9,10.9-5.7,9.6c-5.2-1.3-6-8.8-1.2-10.9
		C644.8,615.2,646.8,615.5,648.7,617.6z"/>
	<path id="path314" fill="#D45500" d="M762.5,591.3c-0.6,4.6-5.1,15.1-7.3,16.9c-1.4,1.2-2.8-0.1-7.2-6.6
		c-5.5-8.1-7.3-14.9-4.7-17.1c1-0.8,1.8-0.4,4.5,1.9c1.8,1.7,3.6,3,4,3c0.4-0.1,1.7-1.6,3-3.3C758.9,579.9,763.5,583,762.5,591.3z"
		/>
	<path id="path316" fill="#C87137" d="M199.2,635.9c2.4,3.4,4.6,11.5,3.8,13.7c-0.9,2.3-2,1.1-2.3-2.8c-0.5-5.5-2.9-9.9-6.7-12.7
		c-6-4.3-14.4-3.9-20,0.9c-1.5,1.4-3.2,2.5-3.7,2.5c-3.4,0,3.7-6.1,9-7.9C186.6,627.3,194.8,629.9,199.2,635.9z"/>
	<path id="path318" fill="none" d="M190.9,634.6c3.7,1.9,6.8,6.6,7.3,10.8c0.2,2.1,0.1,3.7-0.3,3.7c-1.1,0-23.1-9.2-23.9-10
		c-0.9-0.8,1.1-2.7,4.9-4.5C182.2,633,187.9,633,190.9,634.6z"/>
	<path id="path320" fill="#DEAA87" d="M165.2,639c2.7,0.4,30.8,11.6,37.4,14.9c4.2,2.1,6.6,6.2,6.6,11.1v4.1l-5.6,2.7
		c-5.1,2.4-6.4,2.7-13.5,2.7h-7.8l-0.6-3.1c-1-6.4-6.6-9-12.1-5.6l-3.2,1.8l-3.5-3.8c-3.9-4.3-7.3-10.8-8.5-16.1
		c-0.6-2.9-0.5-3.8,0.9-5.6c0.8-1.2,2.8-2.4,4.2-2.7C161.1,638.9,163.6,638.7,165.2,639z"/>
	<path id="path322" fill="#DEAA87" d="M152.7,649.6c0,2.9,5.2,12.1,9.1,16.1c3.1,3.2,4.2,4.9,4.2,6.7c0,3.1,3.7,7.2,7.1,7.9
		c1.8,0.3,3.3-0.1,5.5-1.6c2.5-1.7,3.7-1.9,7.6-1.6c5.6,0.4,13.8-1,18.3-3.3l3.2-1.7l-0.4,2c-1.7,7.9-5.8,22.2-6.9,24.4
		c-0.7,1.4-2.5,3.2-3.8,4c-4.7,2.8-8.1,2-29.8-7c-23.8-9.9-26.7-11.4-28.6-15.3c-2.5-5.2-2.1-6.6,6.6-21.4
		C150.9,648.8,152.7,646.6,152.7,649.6z"/>
	<path id="path324" fill="#C87137" d="M180.1,672.5c0,2.2-3.7,5.6-6.2,5.6c-4.7,0-7.1-6.6-3.7-10
		C173.6,664.8,180.1,667.6,180.1,672.5z"/>
	<path id="path326" fill="#FF0066" d="M284.3,654.1c2.2,2.5,1.4,10.6-1.8,17.4c-4.4,9.3-4.4,9.3-8.7,3.7c-4.1-5.3-7.9-12.2-8.1-14.9
		c-0.7-6.6,1.3-7.7,5.9-3.2l3.2,3.2l1.4-2c0.8-1.2,2.2-2.9,3.3-4C281.7,652,282.4,652,284.3,654.1z"/>
	<path id="path328" fill="#FF0066" d="M608.4,692.3c1.2,0,4.2,5,4.2,6.8c0,1.9,0.9,1.9,4.5-0.2c1.7-0.9,3.9-1.6,5.2-1.4
		c3.5,0.4,3.5,4.1,0.1,9.8c-2.6,4.2-11.5,12.5-13.5,12.5c-1.2,0-2.7-4.7-3.8-12.9c-0.9-6.7-0.6-9.5,1.4-12.7
		C607.1,693.1,608,692.3,608.4,692.3z"/>
</g>
</svg>
