<?xml version="1.0" encoding="utf-8"?>
<!-- Generator: Adobe Illustrator 21.0.0, SVG Export Plug-In . SVG Version: 6.00 Build 0)  -->
<svg version="1.1" id="图层_1" xmlns="http://www.w3.org/2000/svg" xmlns:xlink="http://www.w3.org/1999/xlink" x="0px" y="0px"
	 viewBox="0 0 850 850" style="enable-background:new 0 0 850 850;" xml:space="preserve">
<g transform="translate(0.000000,0.000000) scale(1.00000,1.00000)">
	<path d="M191.5,0.1c17.4-0.1,23.6,0.7,57.8,7.1c29.8,5.6,33.9,5.9,44.2,3.5c36.8-8.5,84.2-2,114.6,15.8
		c16.3,9.6,36.2,25.5,43.4,34.8l3,3.7l18,0.3c9.9,0.1,21.3-0.2,25.3-0.6c5.9-0.7,7.2-0.6,7.2,0.6c0,3.8-12.5,9-29,12.2l-6.5,1.2
		l4.5,1.2c22.3,5.8,50.4,21,69,37.3c6.6,5.7,11.5,12.8,9,12.8c-1.9,0-6.6-2.2-8.5-4c-4.9-4.6-30.9-18-32.2-16.6
		c-0.2,0.2,2.2,1.9,5.4,3.7c22.6,12.8,41.1,28,55.1,45.4c3.1,3.8,8,9.6,10.9,12.8s5.3,6.2,5.3,6.8c0,0.5-1.3,0.9-2.8,0.9
		c-2.2,0-6.4-2.8-16.9-11.3c-14.8-11.8-27.8-19.2-42.6-24.2c-7.5-2.5-43.6-10-44.3-9.2c-0.3,0.3,1.9,1.8,4.9,3.5
		c18,10.1,41.6,32.9,51,49.2c6.1,10.5,9.6,24,6.2,24c-1.4,0-5.5-3.7-5.5-5.1c0-2.1-8.9-11.5-15.7-16.7
		c-14.3-10.8-24.7-17.7-23.8-15.6c5.4,12.6,10.5,31.1,10.5,38.1c0,3.9,0.4,4.6,6,9.2c8.1,6.7,23.4,17.3,29.6,20.4
		c5.7,2.9,11.4,7.3,11.4,8.9c0,1.3-11.8,0.4-23.9-1.8c-6.8-1.2-19.6-5.2-28.3-8.9c-1.4-0.5-0.9,1.2,2.2,7.7
		c6,12.9,9.1,24.6,9.7,37.2c0.5,8.6,0.3,11-0.8,11.7c-0.8,0.5-1.7,0.9-2,0.9c-0.7,0-3.3-5.3-7.1-14c-2.5-5.8-9.5-16.1-17.6-25.8
		l-4.9-6l-0.7,9.4c-1.1,15.8-3.9,27.6-10.1,42.7c-0.7,1.6-0.3,1.6,4-0.3c12.8-5.5,30.4-6,48-1.5c16,4.1,24.8,8.5,40.6,20.4
		c15,11.3,25.6,21.6,37.9,37.1c6.2,7.7,7.8,9.1,11.4,10c10.5,2.7,13.6,5.6,13.6,12.6c0,3.5,0.4,4.4,1.8,4.4c0.9,0,3.1,0.9,4.9,1.9
		c3.1,2,3.2,2,7.3,0c2.3-1.1,4.9-1.7,5.9-1.4c2.9,0.9,19.4,18.5,21.4,22.8c1,2.1,1.7,5.4,1.5,7.4c-0.3,3.5-0.6,3.8-7.5,6.7
		c-11.6,5-11.8,5.2-10.4,11.4c2.4,11.6,0.9,18.7-5.7,25.6c-2.5,2.6-3,3.6-1.7,3.1c9-3.6,14.9-2.9,18.2,2.1c4,6.2,5.5,31.4,3.2,54.9
		c-1,10.6-1,11.3,1,14.6c1.3,2.1,2.1,5.1,2.1,8c0,4.2,0.4,5,3.6,7.4c2.3,1.7,4.6,5,6.4,8.9c1.5,3.3,5.8,9.8,9.6,14.2
		c17.3,20.5,28.7,33.1,31.9,35.4c1.9,1.4,4.1,4.3,5,6.4c0.9,2.1,3.6,6.2,6,9c2.5,2.8,6.1,8.2,8.2,12c2,3.9,5.1,8.9,6.8,11.2
		c1.8,2.3,4.4,8,6,13c1.5,4.9,3.6,10.6,4.6,12.6c1.1,2.1,2.6,6.8,3.4,10.5c0.9,3.8,2.5,10.2,3.6,14.4c2,7.1,2.1,8.5,1.1,24
		c-1.2,19.6-3.6,28.3-9.3,33.9c-1.9,1.9-8.9,6.2-15.4,9.5c-9.9,5-12.9,6-18.2,6.3c-4.9,0.3-6.8,0.1-8.2-1.2c-1-0.9-4.2-2.3-7.1-3.2
		c-4.1-1.2-6.7-2.9-11.2-7.4c-5.3-5.4-7.1-8.5-21.2-37.2c-8.5-17.2-17.7-36.4-20.5-42.7c-6.6-14.6-27.1-53-36.8-68.9l-7.5-12.2H605
		c-8.2,0-11-2.3-11-9.3l-0.1-5.2l-10.7-6.1c-12.4-7.1-15.2-10.3-15.2-17.3c0-4.2,4.2-17.8,8.4-27.3l1.6-3.7l-7.5-9.6
		c-4.1-5.2-12-15.7-17.6-23.3c-5.6-7.5-10.3-13.8-10.4-14c-0.1-0.1-3.1-1.1-6.6-2.1s-7.1-2.1-8-2.5c-1.3-0.6-1.8,0.5-2.7,6.3
		c-0.7,3.9-3,12.6-5.2,19.3l-4.1,12.4l4.6,4.7c5.3,5.6,5.6,7.8,1.5,13.4l-3.1,4.2l3.1,4.2c4.8,6.7,3.3,15.6-3.9,22.3
		c-2,2-2.9,3.6-2.6,5c0.2,1.2,2,8.9,4,17.2l3.6,15.1l8.6,6.9c4.7,3.8,10.6,9.2,13.2,12c4.5,5.1,4.7,5.2,11.3,5.6
		c7.8,0.5,9.3,1.5,13.2,9.1c2.3,4.6,8.3,12,22.6,27.9c3.4,3.7,3.6,3.8,7.4,2.7c6.1-1.7,13.9,0.8,16.1,5.2c0.8,1.5,1.5,4.4,1.5,6.3
		c0,1.9,0.5,4.7,1.1,6.3c0.6,1.5,8.8,10.7,18.2,20.3c33.1,33.7,48.1,52.5,58.4,73.4l4.8,9.8l10.6,5.3c5.8,2.9,11.1,6,11.8,6.9
		c1.8,2.2-0.1,6.6-2.7,6.6c-1.1,0-3.4,1.1-5.3,2.4c-1.9,1.3-7.9,5-13.4,8.2c-5.5,3.1-13.6,7.9-18,10.6c-13.6,8.3-29.8,15.5-36,15.9
		c-5.8,0.4-20.2-1.3-34.3-4.2c-19.8-4-24.2-5.2-43.6-12.1c-9.4-3.3-18.4-6.2-20.1-6.4c-1.7-0.3-3.8-1.5-4.8-2.9s-2.3-2.5-2.8-2.5
		c-1.6,0-4.9,7.9-4.9,11.9c0,3.7,0.4,4.3,4,6.6c2.3,1.4,4.5,3.8,5.1,5.2c1.3,3.4,0.2,8-2,9.3c-2.6,1.3-4.1-0.6-4.1-5.2
		c0-3.4-0.4-3.9-3.5-5.2c-5.3-2.3-7-9-4.4-17.7c2.9-9.6,10-13,15.8-7.5l2.8,2.7l3.1-2.6c3.3-2.7,5.2-7.7,5.2-13.3v-3.4l-6.5,0.7
		c-6.2,0.7-6.5,0.6-9.5-2.3c-4.6-4.7-3.8-10.4,3.6-25.6c0.8-1.6,1.3-3,1.2-3.1c-0.2-0.1-5.9,1.2-12.8,2.9l-12.5,3.1l-1.2,6
		c-2,10-2.3,9.6,7,13.3c7.1,2.8,21.4,11.9,20.3,12.9c-0.2,0.2-7-2.3-15.2-5.6c-10.2-4-15.1-5.5-15.5-4.8c-0.3,0.7-1.8,5.8-3.3,11.4
		c-1.4,5.5-3.9,13.9-5.5,18.4c-1.6,4.6-2.9,8.4-2.8,8.5c0.1,0,3.7,2,7.9,4.3c10,5.5,12.1,7.2,10.8,9.1c-0.8,1.3-2.4,0.8-10.3-3.3
		c-5.2-2.6-9.7-4.7-10-4.7c-0.4,0-1.6,2.3-2.8,5c-2.3,5.4-5.3,8-7.2,6.1c-0.7-0.7-0.3-2.6,1.3-6.3c5.9-13.8,12-33,18.4-58.5
		c4.3-16.7,12.3-84.9,10.3-86.9c-0.8-0.8-38.8,14.2-50.5,19.9c-5.7,2.8-11,6-11.7,7.1c-0.7,1.2-3.7,6.4-6.8,11.6
		c-3.1,5.2-8.1,12.6-11.2,16.5c-3,3.8-9.1,11.8-13.6,17.7c-4.5,6-8.8,10.8-9.5,10.8c-0.8,0-6.1-1.8-11.9-4s-11-4-11.6-4
		c-2.3,0-15.9,11.3-25.4,21.2c-9,9.2-32.1,34.5-40.3,43.9c-1.8,2-3.2,4.5-3.2,5.5s-1,2.8-2.2,4.1c-2.1,2.2-2.7,2.3-16.7,2.1
		c-12.7-0.1-13.5-0.2-6.1-0.7c4.7-0.3,9-0.9,9.6-1.3c0.6-0.4,1.4-2.8,1.6-5.3c0.7-5.5,4.7-11.9,9.2-14.6l3.2-1.9l3.3-20.4
		c3.5-22.3,10.4-74.7,9.8-75.2c-0.5-0.6-31.4,31-38.3,39.2c-3.3,3.8-8.2,10-10.8,13.7c-2.6,3.7-4.9,6.7-5.1,6.7s-1-0.3-1.9-0.6
		c-1.4-0.5-1.4-0.9,0.1-3.7c4.7-9.3,19.9-27.4,38.3-45.8c10.8-10.7,20.2-21,20.9-22.7c0.8-1.8,1.9-3.6,2.6-4
		c1.1-0.6,8.5-25.3,8.5-28.2c0-1.3-13.1,2.6-25.8,7.7c-8.2,3.3-11.7,4.2-12.5,3.4c-2-2,2.1-4.7,14.4-9.6c6.6-2.6,13.9-5.3,16.2-6
		l4.2-1.3l-2.7-1c-4.8-1.9-15-3.3-19.2-2.7c-9.7,1.5-11.4,2.5-14.6,8.1c-1.6,2.9-5.7,8.5-9,12.3s-6,7.5-6,8.1c0,0.7,1,4.3,2.1,8.1
		c1.2,3.9,1.9,8.2,1.6,9.7c-0.8,3.9-15.8,32-31,58.2c-28.5,49.1-30.7,53.3-30.7,59.7c0,3.7,2.2,8.8,4.2,9.6c0.7,0.3-1.8,0.6-5.6,0.6
		l-6.9,0.1l0.6-4.8c1.9-14.4,2.2-15.2,32.7-67.7c4.8-8.3,11.8-20.9,15.5-28c3.7-7.2,8.5-16.2,10.6-20.2c4.5-8.3,4.6-9.8,1.9-17.1
		c-3.2-8.3-2.7-10.9,2.6-16.3l4.6-4.7l-1.6-3c-2.8-5.5-2.1-8,4-14.1c4.3-4.3,5.4-5.9,4.6-7.1c-0.5-0.9-4.1-7.4-8-14.5
		c-13.1-24-16.3-39.4-9.4-45.6c2.2-2,4.4-2.7,9.2-3.2c3.5-0.4,6.5-0.9,6.7-1.1s-0.9-4.5-2.4-9.5l-2.8-9.1h-3.6c-2,0-5.4,0.7-7.5,1.6
		c-3.8,1.6-10.7,1.5-14.6-0.1c-1.3-0.5-2,0.1-3.1,2.7c-2.6,6.2-5.8,7.8-15.4,7.8c-12.9,0-16.7-2.1-25-14c-2.5-3.6-6.8-8.8-9.5-11.6
		c-3.2-3.3-4.9-5.8-4.6-7c0.2-1.1,3-3.1,7.3-5.2c3.9-1.9,7.2-3.6,7.4-3.8s-1-3.1-2.6-6.4c-4.8-9.2-3.7-10.7,9.7-13
		c4.1-0.7,7.6-1.4,7.8-1.5c0.1-0.1-0.3-1.6-0.9-3.4c-1-2.9-0.8-3.7,2-8.2l3-5l-3.3-4.3c-5.2-6.9-9.2-14.4-12.2-23.1
		c-2.6-7.3-2.8-9.3-2.8-23c-0.1-16.9,1.5-24.1,8-36.6c9.5-18.1,28.7-33.4,46.5-37.1c3.2-0.6,5.9-1.4,5.9-1.8c-0.1-0.3-3-2.3-6.6-4.5
		c-6.1-3.7-13.3-11.7-18.5-20.3c-1.6-2.7-16.8-10.8-17.9-9.5c-0.5,0.4-2.1,4.2-3.7,8.3c-4.7,12.2-9.6,18.5-11.7,15.2
		c-0.3-0.5,0.1-3.8,0.9-7.5c0.7-3.6,1.7-10.8,2.1-16l0.7-9.4l-5.5-5.9c-2.9-3.3-7.4-8.6-9.8-11.8l-4.5-5.9l-1.7,8.6
		c-2.9,14.7-9.7,33.1-12.6,34.2c-3.4,1.3-4.1-2.1-2-8.8c2.6-8.5,3.5-31,1.8-48.6c-1.2-13-1.3-13.3-5-17.9c-2-2.6-7.1-7.6-11.3-11.1
		s-9.5-8.8-11.9-11.8c-2.4-3.2-6.8-7.2-10.4-9.4c-10.9-6.9-17-14.8-20.9-26.9c-1-3-2.8-7.5-4-10c-1.3-2.5-3.3-7.9-4.5-11.9
		c-2-6.5-2.2-8.8-1.7-19.5c1-21.1,5.5-31.9,21.2-51.3l2.6-3.1l-7.9-5.2c-10.8-6.8-18.2-15.1-18.2-20.1c0-0.5,1.1-2.1,2.5-3.4
		c2.3-2.4,2.9-2.5,15.4-2.5H164l-8.6-8.3c-9.7-9.2-25.5-31.7-27.4-38.8c-2.7-10.1,1.7-18.1,12.8-23.1c4.8-2.2,6.2-3.3,5.8-4.5
		c-3.3-8.6-3.1-16.1,0.6-20c3.5-3.8,7-5.2,19.1-7.8C174.9,0.7,180.8,0.1,191.5,0.1z M302.8,15.7c-6,0.8-10.8,1.9-10.8,2.3
		c0,0.6,39.2,13.8,79,26.6c26.3,8.4,74,21,74,19.5c0-0.4-2.8-3.4-6.2-6.7c-22.5-21.8-45.2-33.9-75.6-40.5
		C350,14.1,318.3,13.4,302.8,15.7z M277.5,19c-0.5,0,4.1,2.8,10.3,6.2c14.5,8.1,28.4,18.5,42.1,31.3l10.9,10.2l12.3,0.7
		c12.4,0.7,22.8,1.6,64.4,5.6c21.6,2.1,38.1,2.1,47.5,0.1c2.7-0.6,1.2-0.9-7-1.4c-9.9-0.5-37.9-6.6-59.5-12.8
		c-20.4-5.8-98-31.2-110-35.9C283,20.8,278.1,19,277.5,19z M191,29.2c-19.3,1.4-47.6,9.6-53.4,15.5c-3.6,3.6-3.9,9.9-0.6,16.2
		c3.7,7.1,16.1,23.7,22.7,30.4c7.1,7.1,20.5,16.7,30.4,21.8c3.2,1.6,6.1,3.5,6.6,4.2c0.4,0.7,3.9,3,7.6,5.1c5.7,3.2,6.8,3.5,6.5,1.9
		c-0.4-2.5,3.1-2.9,8.5-0.9c14.7,5.6,61.6,12.9,94.2,14.7c18.5,1.1,19.9,0.9,32.5-2.7c9.8-2.8,20.3-3.1,29.5-0.9
		c3.5,0.8,11.1,1.4,18.2,1.5c13.8,0,31.4,2.1,44.8,5.2c10.6,2.4,34.8,10.5,43.7,14.6c8.6,3.9,25.5,14.4,37.2,23.1
		c5.4,4,9.5,6.7,9,5.9c-4.8-8.5-23.8-26.6-38.1-36.5c-16.9-11.7-30.7-17.2-50.8-20.5c-11.5-1.8-19.5-2.1-71-2.8
		c-31.9-0.5-63-1.3-69.2-1.9c-15.2-1.5-40.5-6.7-47.5-9.8c-5.6-2.5-12.5-8.3-9.8-8.3c0.7,0,6.8,1.8,13.4,3.9
		c26.4,8.5,63.1,11.9,117.3,10.7c28.6-0.6,57.8,0.7,74.7,3.4c3.3,0.5,12.9,1.6,21.1,2.5c19,2.1,47,7.6,58.8,11.6
		c5,1.6,12.9,5,17.6,7.4l8.4,4.4l-6.4-6.5c-13.8-14.1-28.3-21.8-58.2-30.8c-21.2-6.4-63.6-12.1-83.7-11.2c-7.5,0.4-30,3.3-30.8,4
		c-0.1,0.2,1.3,2.9,3.3,6.1c7.4,12.3,2.7,11.3-8-1.7l-3-3.6l-10,0.9c-5.5,0.5-13.5,1.6-17.9,2.4c-10.7,2-12.6,2-12.6-0.5
		c0-2.8,5.5-4.1,33-7.6l4.5-0.6l-9.3-8.9c-5.1-4.9-10-8.9-11-8.9s-5.1-1.8-9.2-4c-30.6-16.2-35.9-18.5-54-23.1
		c-18.3-4.8-40.3-7.9-60.6-8.6c-12.7-0.4-18.6-1-19.9-1.9c-1-0.8-1.5-1.7-1.1-2.1c1.2-1.3,23.8-1.5,37.7-0.4
		c14.8,1.1,39.9,5.7,52.5,9.5c4.3,1.3,12.4,4.2,17.9,6.4c10.3,4.2,15.5,5.8,15.5,4.9c0-1.3-25.6-16.1-37.5-21.7
		c-18-8.6-22-9.8-37.3-11.5C232.8,27.9,209.5,27.8,191,29.2z M347.6,72.4c-1.5-0.5-1.1,0.3,1.5,3.3c1.9,2.1,7.2,8.3,11.9,13.7
		l8.5,9.8l6-0.7c3.3-0.3,10.7-1.4,16.5-2.5c22.7-4.1,33.3-5.1,54.2-5.1c22.4,0,33.3,1.3,48.2,5.6c4.9,1.4,9,2.4,9.2,2.2
		c0.7-0.7-17.8-8.4-25.3-10.6c-4-1.2-12.6-3-19.1-4.1c-14.3-2.3-63.3-7.5-90.2-9.6C358.3,73.6,348.6,72.7,347.6,72.4z M140.3,113.3
		c1,3.3,16.5,13.4,32.2,21.2c18.3,9,21,10,44.5,16.8c13.5,3.9,76.2,17.7,80.1,17.7c0.8,0-7.8-3.1-19.1-6.9s-24.3-8.5-29-10.5
		c-17.7-7.7-54-27.6-54-29.7c0-0.5-3.5-2.6-7.7-4.5c-6.3-2.9-10.1-3.9-19.3-5C152.3,110.5,139.5,110.9,140.3,113.3z M232.4,135.4
		c-1.8,1.4-1,1.9,10.6,7.4c6.9,3.3,23,9.4,35.9,13.7l23.5,7.8l3-3.9c1.6-2.1,5.7-6.6,9.1-10l6.1-6.1l-12.1-0.7
		c-12-0.6-47.5-5.2-62.7-8.1C235.9,133.6,234.9,133.6,232.4,135.4z M387.7,141.1c-10.3,0.2-28,1.3-37.3,2.4c-3.7,0.4-7,1.9-12.5,5.5
		c-7.1,4.6-19.9,16.7-19.9,18.8c0,0.5,3.8,1.7,8.5,2.7c9.4,2,9.7,1.9,17-3.5c4.6-3.4,15-7,20.4-7c2,0,6.1,0.6,9,1.4l5.3,1.4l3.8-3.4
		c2.1-1.9,4.2-3.4,4.8-3.4c2.4,0,2.2,2.2-0.7,5.7c-5,6.1-3.3,5.7,5.3-1.1c3-2.4,3.9-2.6,5.1-1.6c1.4,1.2,1.2,1.7-1.7,4.8l-3.3,3.5
		l3-2.1c1.7-1.2,4.6-3.5,6.5-5.1l3.4-2.9l-1.8-5.8c-1-3.3-2.4-6.9-3.2-8.2C398,141.1,397.3,141,387.7,141.1z M410.3,142.4
		c-4.2-0.6-4.6-0.5-3.9,1.2c1.8,4.8,4.8,16.9,6.9,27.9c1.9,10.4,2.2,15.4,2.2,37.2c0,13.8,0.1,25.1,0.1,25
		c1.4-1.8,5.7-18.4,7.3-27.8c3.3-20,4.2-33.4,3.2-45.7c-1.4-15.9-1.4-15.9-6.7-16.6C417,143.3,412.9,142.7,410.3,142.4z
		 M430.3,148.7c0.3,1.5,0.8,4.9,1.2,7.4l0.6,4.6l3.9-1.3c7.5-2.6,18.8,1.9,24.5,9.6l2.5,3.4v-5.1c0-3.4-0.6-5.8-1.7-7.2
		c-2-2.2-10-6.4-20.3-10.4C429.7,145.4,429.7,145.4,430.3,148.7z M175.9,161.6c-5.7,12.1-7.1,19.3-7,37.5c0,16.9,1.2,28.6,4.1,41.9
		c3.1,14.2,5.6,19.8,12.3,26.8c3.3,3.4,6.2,6.1,6.3,5.9c0.2-0.2-0.3-2.7-1.1-5.7c-4.5-16.6-6.5-39.3-6.7-73.5
		c-0.2-22.2,0.1-26.2,2-35.4c1.2-5.7,1.9-10.8,1.6-11.2C185.7,145.1,180.9,150.8,175.9,161.6z M195,150.5c-1.4-0.4-1.9,1-3.4,9.3
		c-3.2,18.7-3.6,26.4-2.1,44c1.8,19.9,3.5,30.1,8.1,49c4.7,19.2,10.1,33.3,21.3,56c6.1,12.6,23.1,33.9,29.6,37.4
		c1.1,0.6-0.3-1.3-3-4.3c-6.8-7.3-10.3-12.4-16.5-24.9c-11.4-22.8-19-50.2-22-79.9c-1.2-12.5-3.3-63.8-2.6-64.9
		c0.2-0.4,0.6-4.8,0.7-9.7l0.2-9l-4.3-1.2C198.6,151.6,196,150.8,195,150.5z M211.6,156c-0.2,0-0.6,2.4-1,5.2
		c-0.8,7.5-0.8,48.8,0.2,48.8c0.4,0,2.1-2.4,3.7-5.2c1.7-2.8,5.3-7.5,8.1-10.4c6.8-7,13.4-9.1,23.1-7.4c8.3,1.4,13,3.3,16.6,6.7
		c6.1,5.9,2.1,8.3-10.5,6.4c-9.1-1.4-16.3-0.4-23.9,3.4c-10.4,5.3-17.8,18.1-16.1,28c0.6,3.4,1.2,4.2,4.2,5.2
		c1.9,0.7,5.3,1.2,7.4,1.2c3.8,0.1,3.9,0,2.2-1.8c-1-1.1-2.8-2.2-4.1-2.5c-1.2-0.3-3-1.7-3.9-3.1c-1.5-2.3-1.5-2.6,0-3.2
		c0.9-0.3,3.1,0.2,5.1,1.1c3.4,1.6,3.4,1.6,2.8-0.4c-0.5-1.5,0-2.8,1.7-4.4c1.2-1.3,3.1-3.5,4.1-5c4.3-6.2,17-10.2,27.4-8.6
		c6.3,1,9.6,2.7,15.1,7.9c4.1,4,5.2,6.7,3.2,8.7c-0.7,0.7-0.2,2.9,1.7,7c2.1,4.6,2.7,7.4,2.8,12.6c0,4.8,0.4,6.8,1.3,6.8
		c0.6,0,1.2,1.1,1.2,2.4c0,2.8-4.6,7.1-10.5,9.7c-2.2,1-5.1,3.3-6.5,5.1l-2.4,3.2l-0.8-2.6c-0.9-2.6-1-2.6-4.4-1.2
		c-3.8,1.6-3.8,1.6-2.5-2c0.8-1.8,0.6-2.8-0.5-3.7c-2.4-2,1-3.4,8.3-3.4c3.8,0,6.7-0.5,7.5-1.3c1.1-1.1,0.8-1.2-1.5-0.7
		c-4.2,1.1-11.1-2-15.2-6.8c-4.3-5-6.8-12.9-6.3-20.3c0.1-3,0-5.4-0.4-5.4c-1.4,0-7.7,8.4-8.3,11.2c-0.6,2.4,0.1,3.9,4.4,9.5
		c4.9,6.4,5.9,9.2,3.5,10c-0.6,0.2-3.9-1.7-7.4-4.3c-5.4-4-6.7-4.5-9.6-3.9c-1.9,0.3-3.4,1-3.4,1.4c0,0.5,3.1,3.1,6.9,6
		c9.9,7.3,14.1,12.5,20.3,25.3c9.6,19.6,16,24.6,42.7,33.3c15.2,4.9,50.1,12.5,58.8,12.7c7.2,0.2,14.1-4.1,27.3-17.3
		c11.1-11.2,19.6-22.6,27.3-36.9c7.9-14.7,13.5-32.2,12.1-38.3c-0.6-2.8-0.8-2.6-3.8,4.4c-6.1,13.9-14.7,29.9-16.2,29.9
		c-2.4,0-2.8-2.8-1-6.8c5.9-13.5,9.3-42,7.7-65.6c-1-14.3-3.8-32.6-5-32.6c-0.8,0-10.1,10.6-10.1,11.5c0,0.3,1.8-0.4,3.9-1.5
		c4.3-2.1,4.8-1.9,5.1,2c0.4,5.2,0,6-4.5,8.2c-3.9,1.9-4.5,2.6-4.5,5.2c-0.1,4.9-1.8,11-3.4,12.2c-2,1.4-2.1,3.4-0.1,3.4
		c1.7,0,5.5,3.5,5.5,5c0,0.5-1.7,1-3.7,1c-3.1,0.1-3.5,0.3-2,1.1c1,0.6,1.7,2.2,1.7,4v2.9l-3.7-1.5c-3.6-1.5-3.6-1.5-7.1,2
		c-4.3,4.3-10.7,6.4-21.8,7.2c-7.6,0.5-8.1,0.5-8.6-1.5c-0.7-2.5-0.6-2.6,11.5-4.6c11.1-1.9,14.5-4,19.6-12c2.2-3.5,4.4-6.6,4.8-6.8
		c0.5-0.1,0.6-5.6,0.3-12.1c-0.4-8.9-0.9-12-2-12.7c-2.4-1.5-8.7-2.2-13.1-1.5l-4.1,0.7l3.5,3.7c6.4,6.6,8.2,11.4,8.2,21.8
		c0,9.1-0.1,9.3-3.2,12.4c-5.4,5.5-15.5,5.1-24.8-0.9l-4-2.5l-5,2.7l-5,2.7l4.2-4c4.1-4,4.1-4.1,2.7-7c-0.8-1.7-2.1-5.8-2.8-9.2
		l-1.2-6.2l-3.5,4.4c-1.9,2.3-4.7,6.3-6.4,8.8c-1.6,2.4-3.5,4.6-4.2,4.9c-2.4,0.7-2.6-4.7-0.4-10.1c1.9-4.6,1.9-4.9,0.3-2.8
		l-1.9,2.4l-0.6-3.2c-0.7-3.5,0.9-8.3,4.3-13.1l2-2.8l-10-0.7c-9.8-0.7-10.2-0.6-13.8,1.9c-5.8,4-10.2,3.1-10.2-2
		c0-1.3-0.8-2.5-1.7-2.8c-1-0.3-14.2-3.1-29.3-6.1c-15.1-3.1-33.5-7.1-40.8-9C218,157.6,211.8,156,211.6,156z M432.5,169.4
		c-0.2,1.2-0.6,7.7-1,14.6c-0.3,6.9-1.1,15.5-1.9,19.2c-1.3,6.5-1.3,6.8,0.6,6.8c1,0,3.1,0.6,4.6,1.4c1.5,0.7,5.7,1.6,9.4,1.8
		l6.6,0.6l3.1-6.9c4.3-9.6,5.4-15,4.9-22.9c-0.6-8.4-3.8-13.9-9.8-17C442.4,163.6,433.4,164.9,432.5,169.4z M470,168.7
		c0,4.3,2.3,8.8,8.1,16c6.5,8.2,22.8,25.3,24.1,25.3c0.4,0-0.2-2.5-1.2-5.6c-2.9-8.2-12-21.3-20.2-28.9
		C472.2,167.5,470,166.2,470,168.7z M338.8,179c-1.7,0-5.6,4.5-7.7,9c-1,2.1-0.9,2,1.1-0.5c1.3-1.7,3.6-4.2,5.3-5.8
		C339.7,179.7,340,179,338.8,179z M469.9,185.1c-3-3.8-3.7-3.3-4.5,3.6c-0.3,2.6-0.9,6.5-1.5,8.5c-0.9,3.6-0.8,3.9,3.1,7.4
		c15.8,14.3,31.2,25.4,41.6,30c5.9,2.6,22.5,7.7,23.1,7.1c0.2-0.2-2-2-4.9-3.9c-13.8-9.1-34.9-27.6-46.5-40.6
		C476,192.4,471.3,187,469.9,185.1z M462.1,207.3c-0.7-1.4-1.4-0.7-3.5,3.5c-1.4,2.8-2.6,5.5-2.6,6c0,0.4,2.7,2.6,6,4.7
		c9.3,6,39.5,39.1,43.3,47.2c0.6,1.3,1.4,2.3,1.8,2.3c1.2,0-4.8-16.4-9.3-25.5c-5.4-10.7-8.9-14.8-22.8-26.5
		C468.4,213.5,462.7,208.2,462.1,207.3z M429.9,216c-2.1,0-3.9,2.8-3.9,6.2c0,3.1,4.2,11.9,6.9,14.2l2.2,2l5.9-6.2
		c6-6.2,7.3-9.5,4.8-12c-1.7-1.7-5.7-1.5-6.4,0.3c-0.9,2.2-2.2,1.8-5.1-1.5C433,217.3,431,216,429.9,216z M242.9,217
		c-1,0-6.6,4-8.3,5.9c-3.2,3.5-0.4,2.3,4.3-1.9C241.3,218.8,243.1,217,242.9,217z M453.8,223c-0.3,0-0.8,1-1.1,2.2
		c-0.4,1.5,0.6,3.7,3.3,7.5c5.4,7.6,12.6,25.2,14.7,36.1c1,5.1,2.1,9.2,2.4,9.2c1.1,0,2.9-15.7,2.9-25.6v-10.1l-6-6.5
		c-3.3-3.6-8.2-8-10.8-9.7C456.5,224.4,454.1,223,453.8,223z M430.9,243c-1.4-0.7-1.9,0.1-3.3,5.4c-0.8,3.5-1.8,7-2.2,7.9
		c-0.4,1.2-0.1,1.7,1.4,1.7c1.6,0,2.5,1.3,4.1,6.2c1.1,3.5,2.5,8.5,3.1,11.2c1.2,5.6,1.5,24.4,0.5,29.9c-0.7,3.5-0.6,3.7,1.8,3.7
		s2.6-0.4,3.7-8.5c1.4-9.7,0.8-16.2-2.6-31.4c-2.9-12.7-2.9-12.1-0.5-12.1c1.2,0,2.3,1.1,2.9,2.7c0.6,1.7,1.1,2.1,1.1,1.1
		c0.2-3.1-5.2-16-6.8-16.5C433.2,244.1,431.8,243.5,430.9,243z M424.1,261c-0.3,0-1.9,2.9-3.5,6.5c-2.6,5.8-2.8,7-2.1,13.2
		c0.4,3.7,1.8,11.6,3.1,17.5c1.3,5.9,2.4,10.9,2.4,11.2c0,0.3,0.9,0.6,1.9,0.6c2.6,0,3.2-2,3.8-13.5c0.6-10.5-0.7-21.4-3.4-30.3
		C425.4,263.4,424.4,261,424.1,261z M238,266.6c-1.7-1.8-1.8-1.7-2.4,2.1c-0.9,4.9,0.8,15.6,3.5,22.8c2,5.5,11.4,20.3,16.3,26
		c2.1,2.3,1.5,0.7-2.5-7.5c-6.3-12.7-7.9-17.4-10.9-31C240.7,273.2,238.9,267.7,238,266.6z M412.7,283.7c-0.1-0.5-2.1,2-4.3,5.5
		c-8.1,12.6-24.6,30.9-33.8,37.4l-2.9,2.1l2.6,10.4c1.5,5.7,2.9,12.1,3.2,14.1l0.6,3.8l6.2-3.1c11.2-5.7,20.1-12,29.3-21.1l9.2-9
		l-2.5-7.6c-1.3-4.2-3.5-13.1-4.9-19.7S412.8,284.1,412.7,283.7z M256,303.4c0,1.6,17.4,31.7,21.3,37c1.2,1.7,1.5,0.8,2-8
		c0.4-5.4,0.9-11.5,1.3-13.5c0.6-3.3,0.4-3.7-2.6-4.9c-1.7-0.7-5.7-3-8.8-5c-3.2-2-7.2-4.2-9.1-4.8C256.3,302.9,256,302.8,256,303.4
		z M443.4,347.9c-5,12.3-5.8,27.9-1.6,32.4c1,1.2,2.2,3.4,2.6,4.9c0.4,1.9,1.9,3.4,4.8,4.9c2.2,1.1,7,4.9,10.7,8.3
		c7.2,6.8,18,12.8,34.8,19.5c21.1,8.4,51.7,14.1,75.6,14.1c27.1,0,51.3-5.2,60-12.8c3-2.7,2.1-7.5-2.7-14.5c-5.2-7.6-5.8-9.3-5.7-16
		c0.1-8.8-0.6-10.5-4.7-11.7c-5.3-1.4-5.3-1.4-3.2,3.2c3.3,7.2,3.2,7.2-9.2,10.6c-25.5,6.9-57.7,9.3-78.3,5.7
		c-9.8-1.7-12-2.6-13.6-5.7c-1-1.9-0.9-2,1.2-1.4c12,3.3,38.7,4.6,56.4,2.6c9.4-1.1,38.5-6.7,39.4-7.6c1.2-1.2-7.4-15.6-15.3-25.4
		c-10.2-12.8-22.1-24.3-34.7-33.4c-11.5-8.2-22.3-13.6-34.9-17C488.3,298.4,457.3,313.4,443.4,347.9z M464.8,307
		c-0.2-0.6-0.8-0.2-1.5,0.9s-2,1.8-3,1.5c-1.3-0.3-3.1,1.5-6.5,6.6c-2.6,3.9-4.6,7-4.5,7s3.7-3.4,8-7.5
		C461.6,311.4,465,307.6,464.8,307z M436.6,315c-0.6,0-2.2,2-3.5,4.5c-3.2,6.1-16.4,20-25.3,26.8c-9.3,7-21.2,13.8-31.2,17.7
		c-10,4-24.9,5.3-29,2.6c-2.4-1.5-2.6-1.5-3.6,0.3c-0.8,1.7,0,2.7,7,7.6c8.3,6,9.8,7.9,7.9,10.1c-0.9,1.1-1.5,1.1-3.2-0.1
		c-1.2-0.8-2.4-1.5-2.8-1.5c-1.3,0-4,8.3-3.1,9.2c1.7,1.7,11.7,3.8,18.3,3.8c6.8,0,16.4-2.7,24.9-7c8.3-4.2,23.4-15.4,32.2-23.8
		c7.8-7.5,8.9-9.1,10.9-15c1.2-3.7,3.7-9.7,5.5-13.5c3.1-6.2,4.5-10,2.5-6.9c-1.3,2.1-5.3-5-5.9-10.4C438,317,437.2,315,436.6,315z
		 M288.3,318c-0.6,0,1.3,7.2,3.5,13.5c4.2,12.1,8.8,19.7,16.4,27.3c4,3.9,7.3,7,7.4,6.9c0.2-0.2-0.8-2.6-2.2-5.5
		c-4.7-9.9-7.8-26.6-6.3-34.6c0.3-1.7-1-2.4-9.1-4.8C292.8,319.3,288.4,318,288.3,318z M317.8,326.1l-7.6-1.8l2.2,3.6
		c1.2,2,3.3,5.8,4.7,8.5c2.6,5.3,12,14.5,17.6,17.1c7.3,3.5,8.8,3.5,12.7,0.3l3.6-2.9l-6.2-4.7c-3.9-2.9-7.8-7.1-10.3-10.9
		c-2.7-4.3-4.8-6.5-6.5-6.8C326.6,328.2,322,327.2,317.8,326.1z M269.3,339.6c-2.8-2.5-4.3-3.3-4.3-2.3c0,2.3,3.9,14.4,6.7,20.6
		c2.3,5.3,11.1,18,12.5,18.1c0.3,0,0-2.1-0.8-4.8c-0.8-2.6-2.1-8.9-3-14.1c-1.3-8.1-1.9-9.7-4.2-11.5
		C274.7,344.5,271.6,341.8,269.3,339.6z M285.4,336c-0.8,0,0.5,14.9,2.2,24.6c0.7,4.4,3.3,13,5.7,19c4.3,10.7,4.5,10.9,7.8,11.2
		c3,0.2,23-6.1,27.8-8.8c1.4-0.7,1.3-1-0.4-1.5c-15.4-5.2-30.1-19.5-39.5-38.3C287.3,338.8,285.7,336,285.4,336z M370.1,347.4
		c-1.1-2-19.3,9.6-22.8,14.7c-1.4,2-1.4,2,1.8,1.5c1.9-0.3,6.6-1,10.6-1.6c3.9-0.5,8.3-1.4,9.7-2c2.4-0.9,2.5-1.2,1.9-6.2
		C371,350.9,370.5,348,370.1,347.4z M319.6,350.4l-3.9-3.9l0.7,3.5c1.2,6.5,6.8,16.3,12.8,22.4c5.4,5.4,6.3,5.9,10.9,6.3l5.1,0.4
		l-4.8-4.5c-3.6-3.4-4.5-5-4-6.6c0.3-1.1,0.9-2.8,1.2-3.9c0.4-1.4-0.2-2.1-2.5-2.9c-1.7-0.6-5-2.4-7.3-4
		C325.4,355.5,321.7,352.5,319.6,350.4z M418.8,379.5c-0.2-0.2-3.9,2-8.2,5c-10.4,7.2-21.5,12.8-30.5,15.5c-6,1.9-8.9,2.2-16.5,1.8
		c-5.1-0.3-10.8-1.2-13-2.2c-2.2-0.9-4.1-1.4-4.4-1.2c-0.6,0.7,3.8,14.5,4.9,15.1c0.5,0.4,0.9,3.3,0.9,6.6c0,5.2,0.2,5.9,1.9,5.9
		c1.1,0,2.3-0.5,2.6-1c0.3-0.6,2.6-1,5.1-1c4.3,0,5-0.4,12.7-7.8c7.2-6.8,14.4-12.1,32.9-23.8c2.6-1.6,6.3-5.1,8.3-7.7
		C417.5,382,419,379.7,418.8,379.5z M438.4,385.8c-1.1-0.6-16.2,5.5-25.4,10.1c-11.4,5.9-27.3,17.3-35.5,25.4l-7.9,8l-9.4,0.5
		c-10.2,0.5-22.2-1.1-26-3.5c-1.3-0.8-4.8-1.8-7.8-2.3s-6.9-1.6-8.6-2.5c-1.7-0.8-3.6-1.5-4.3-1.5c-0.7,0-3.9-1.3-7.1-3
		c-3.2-1.6-6-3-6.1-3c-0.2,0-0.3,1-0.3,2.2c0,1.3-1,3.9-2.2,5.8c-4.4,7.1-6.7,12-7.4,15.5c-0.3,2-1.6,4.8-2.8,6.3
		c-3.1,3.8-8.4,14.5-7.9,15.8c0.6,1.8-4.7,12.6-7.3,14.7c-1.3,1-2.4,2.3-2.4,2.8s3.7,0.9,8.3,0.9c5.3,0,9.2,0.5,11.1,1.5
		c1.6,0.9,5.5,1.5,9,1.5c3.4,0,8.8,0.7,12,1.5s6.2,1.3,6.7,1s1.7-0.1,2.8,0.5c1.1,0.5,3.8,1.1,6,1.2c3.3,0.1,4.1,0.5,4.1,2.1
		c0,2,2.2,2,20.5,0.3c5.8-0.5,16.2-3.1,17.9-4.5c2.1-1.7,11.8-4.4,12.4-3.4c0.4,0.5,5.7,1.9,11.7,3.2c13.7,2.7,37.9,10.8,50.4,16.7
		l9.4,4.4l-0.6-10.9c-1-17.6-2.9-24.7-11.3-42l-7.4-15.4l2.5-14c1.4-7.7,2.8-18.8,3.1-24.7C439,391,438.9,386.1,438.4,385.8z
		 M315.5,395.1c-2.3-0.8-21.6,1.9-29,4.2c-10.6,3.1-19.7,8.6-27.5,16.6c-8.5,8.7-13.1,15.8-16.5,25.8c-9,25.9-3.3,53,15.3,72.4
		c8.7,9.2,15.6,13.7,26.6,17.4c8.1,2.7,22,4,22.1,2c0.4-4.3,2-10.7,3.6-14.2c1-2.4,1.9-4.7,1.9-5.2s0.6-1.6,1.3-2.3
		c2.1-2,3.8-7.6,2.5-8c-0.8-0.3-0.6-1.8,0.5-4.9c0.8-2.4,1.8-5.8,2.1-7.6c0.5-3.1,0.4-3.2-4.7-4.3c-2.9-0.7-9-1.5-13.7-1.7
		c-4.7-0.3-9.7-1.2-11.2-1.9c-1.9-1-6.6-1.4-15.8-1.4c-10.8,0-13-0.3-13-1.5c0-0.8,1.2-2.1,2.8-2.9c3.5-1.9,10-8.8,8.6-9.3
		c-1.2-0.4,9.6-22.6,12.5-25.8c1.1-1.1,2.2-3.9,2.6-6.2s1.5-5.3,2.6-6.7c1-1.3,1.9-2.9,1.9-3.5c0-0.5,1.1-2.7,2.5-4.7
		s2.5-5.1,2.5-6.9c0-4.1,1.9-9.5,3.3-9.5c1.6,0,6.7,5.1,6.7,6.7c0,0.8,0.8,1.6,1.8,2c0.9,0.3,4.5,1.7,7.9,3s8.7,2.8,11.9,3.3
		c3.1,0.5,6.6,1.6,7.8,2.3c1.1,0.8,3.9,1.7,6.1,2.1s4.8,0.9,5.8,1.2c1.6,0.5,1.7,0.1,1.1-4.8c-0.9-6.4-4.9-16-6.7-15.6
		c-0.6,0.2-2.2-0.7-3.5-2c-1.2-1.2-3-2.2-4.1-2.2c-1,0-2.4-0.6-3-1.4c-0.6-0.7-3.9-1.9-7.4-2.5C320.3,396.4,316.6,395.5,315.5,395.1
		z M449.2,396.3l-4-2.2l-0.6,6.2c-0.4,3.4-1.4,10.4-2.3,15.6c-1.5,9-1.5,9.4,0.4,12c4.7,6.3,14.4,9.5,15.8,5.2
		c1.3-4.2,4.6-7.1,7.9-7.1c2.8,0,10.5,2.1,15.7,4.4c1.4,0.6,1.5-0.1,1.1-5.1c-0.2-3.2-0.7-6.1-1.1-6.4c-0.3-0.3-5-2.9-10.3-5.7
		l-9.8-5v9.6v9.5l-2.4-2.2c-2-1.9-2.4-3.4-2.9-12.2c-0.3-6.4-1.1-10.8-2-12.2C453.9,399.5,451.4,397.5,449.2,396.3z M645.9,394
		c-1.4,0-5.9,2.9-11.7,7.5c-0.1,0.1,0.9,2.5,2.4,5.4l2.7,5.1h5.3c4.6,0,5.4,0.3,5.4,1.9c0,2.3-1.9,3.1-7.6,3.1
		c-2.9,0-4.4,0.4-4.4,1.3c0,2.2-6.2,7.4-11.8,10c-5.8,2.7-5.8,3.1,0.3,4.1c6.5,1.1,7.5,1.6,7.5,3.7c0,2.3-1.1,2.4-11.3,0.4
		c-4.3-0.8-8.8-1.5-9.9-1.5c-1.8,0-1.7,0.3,0.8,2.8c1.6,1.5,4.1,4.2,5.7,6c1.5,1.7,3.3,3.2,4.1,3.2c0.7,0,2.1,0.9,3.1,2
		c1.4,1.6,1.6,2.9,1.1,7.1l-0.7,5.2l4.9-0.5c6.1-0.6,10.6-3.6,13.4-9.1c1.8-3.6,2-5.1,1.3-11.7c-1.6-15.7-1.5-15.8,10.4-21.4
		c9.8-4.6,9.7-4.9-1.2-16.3C651.3,397.7,646.9,394,645.9,394z M489.5,422c-0.6,0-0.9,2.5-0.7,6.2c0.5,8.8-1,13-6.3,17.4
		c-4.4,3.5-4.4,3.6-3,6.4c3.3,6.4,14.1,11.4,19.8,9.1c2.2-0.9,2.7-1.7,2.7-4.5c0-4.4,4.6-20.2,7.1-24.2l1.9-3.1l-10.3-3.7
		C495.1,423.6,490.1,422,489.5,422z M533.2,433.7l-13.1-2.3l-0.5,2.5c-0.3,1.5-0.8,5.2-1.1,8.4c-0.4,3.7-1.2,6-2.1,6.4
		c-2.4,0.9-2.8-0.4-2.7-7.5c0.2-6.3,0.1-6.5-1.2-4.2c-0.8,1.4-2.1,4.7-3,7.4c-1.6,5.4-1.1,6.6,3.2,6.6c3.7,0,7.1,2.1,8.7,5.4
		c1.6,3.2,1.8,3,3.1-2.9c1.2-5.5,5.7-14.4,8.1-16c3-2,3-1.4-0.5,9.2c-1.6,4.9-3.5,12.1-4.2,16.1c-1.1,6.3-1,7.5,0.2,8.3
		c2.8,1.8,11.4,3.9,16.1,3.9c4.6,0,11.8-2.2,11.8-3.5c0-0.4-1.2-2.2-2.6-4.1c-2.3-2.9-2.8-5.1-4.1-16.6c-0.8-7.3-1.8-13.6-2.2-14.1
		C546.7,436.3,540.5,434.9,533.2,433.7z M464.1,435.9c-1.1,2.1-2.7,4.1-3.6,4.5c-5.1,1.9-13.9-0.5-18.7-5.1c-4.2-4-3.5-1.2,2.6,10.3
		c7.6,14.4,10.3,22.6,12.1,36.7c1.8,13.9,0.2,11.7,17.2,25.1c9.7,7.6,14.1,12.6,12.8,14.6c-0.3,0.5-3.4,1.9-6.8,3.2l-6.2,2.3
		l7.5,0.7c4.1,0.4,13.1,2.2,19.9,3.9l12.5,3.2l2.3-2.9c1.3-1.6,2.3-3.2,2.3-3.6c0-1.4-8.3-6.9-16.7-11c-5.5-2.8-8-4.5-7.6-5.4
		c0.7-1.9,3.7-1.7,10.3,0.6c3,1,5.5,1.8,5.6,1.7c2.1-3,10.4-33.6,10.4-38.5c0-1.6-0.7-4.6-1.5-6.5c-0.8-2-1.5-5.2-1.5-7.1
		c0-3.9-2.8-6.6-6.7-6.6c-1.9,0-2.3,0.5-2.3,3c0,3.8-3.7,7.5-8.4,8.4c-5,0.9-15.9-2.8-20.6-7c-5.2-4.7-6.4-8.8-5.6-18.5
		c0.7-7.1,0.6-7.9-1.3-8.8C468.3,431,466.1,431.8,464.1,435.9z M595.8,435.8l-3.7,0.3l1.5,4.7c0.8,2.6,2.1,7.1,3,9.9l1.5,5.2
		l5.2-4.1c2.9-2.2,6.4-4.5,8-5c1.5-0.6,2.7-1.3,2.7-1.6c0-0.4-1.5-1.9-3.3-3.3C605.5,437.7,599.9,435.4,595.8,435.8z M555.8,437
		c-3,0-3,0.1-2.5,3.7c0.3,2.1,0.9,8.7,1.3,14.8c0.7,10.5,0.8,10.9,2.1,7.7c1.5-3.6,6.1-6.2,11.2-6.2h2.9l-4-8c-2.2-4.3-4.9-8.8-6-10
		S557.7,437,555.8,437z M586.8,437h-10.5h-10.4l1.8,2.7c3,4.4,9.5,18.4,8.9,19c-0.3,0.3,0.1,1.5,0.9,2.7c0.8,1.1,1.5,3.7,1.5,5.7
		c0,4.5,1.8,6.1,7,6.3c5.8,0.1,9.3-2.9,10.3-8.9c0.7-4.1,0.5-5.1-1.3-7c-1.1-1.2-3.4-6.3-5.1-11.3L586.8,437z M611,459.5
		c0,1,9,18.5,9.5,18.5s14.5-9.1,14.5-9.4c0-0.1-2.2-0.1-5-0.2c-4,0-5.9-0.7-10.7-4.1C612.2,459.4,611,458.7,611,459.5z M603.8,461.4
		c-0.4-0.2-1,1.6-1.4,4.1c-1.2,8.3-8,13.5-17.5,13.5c-4.5,0-5.5-0.4-8.5-3.4c-2.6-2.6-3.4-4.3-3.4-6.9c0-4.3-1.9-5.9-6.2-5.5
		c-3.1,0.3-3.3,0.5-3.8,5c-0.7,6-4.8,10.6-10.2,11.4c-2.1,0.4-3.8,0.8-3.8,1c0,0.7,10,14.6,16.9,23.4c4.1,5.2,9.4,12.1,11.9,15.3
		c2.5,3.1,4.9,5.4,5.2,5c0.4-0.5,3-4.3,5.9-8.5c6.6-10,12.8-17.7,20.4-25.5l6.1-6.3l-5.4-11.1C607,466.8,604.2,461.6,603.8,461.4z
		 M646.9,470.9c-10.2,4.2-21.3,12.5-33.9,25.2c-18,18.1-31.4,38.8-36.4,56.2c-2.8,9.5-2.6,10.5,1.6,14.5l2.5,2.2l1.6-5.9
		c2.4-8.6,7.8-19.9,14.3-29.9c18.6-28.7,49.5-58.2,60.9-58.2c2.4,0,2.5-0.1,1.2-3.3C657,467.6,655.1,467.4,646.9,470.9z
		 M652.4,482.5c-12,6.1-36.2,30.7-49.1,50c-10.5,15.7-18.7,34.5-17,38.9c0.5,1.2,7.5,5.6,9.1,5.6c0.2,0,0.7-1.7,1.1-3.8
		c0.6-3.7,4.5-9.2,6.5-9.2c1.4,0,1.3,2.2-1.1,14.4c-1.1,5.9-1.8,11.4-1.5,12.2c0.3,0.9,2.8,1.4,7.3,1.6l6.8,0.3l6.3,10
		c10,15.9,23.5,40.9,35.7,65.9c31.2,64.1,39.9,81.4,42.1,84.3c3.4,4.4,9.5,7.7,18.2,9.8c9.1,2.2,12.4,1.5,19.3-3.6
		c3-2.2,7.5-5.4,10.1-7c4.6-3,4.7-3.2,8.9-16l4.2-12.9l-0.6-14.3c-0.5-13.8-0.7-14.6-5-26.2c-2.5-6.6-5.4-13.9-6.6-16.2
		c-1.2-2.3-2.1-4.6-2.1-5.1s-1.8-4.8-4-9.5c-4.9-10.8-13-23.3-20.1-31.3c-21.7-24.3-42.8-50.1-45.6-55.6c-1.7-3.5-3.5-6.6-4-7
		c-0.4-0.4-2.3-2-4.1-3.5c-2.9-2.4-3.4-3.6-3.9-8.8c-0.3-3.3-1-6.5-1.5-7.2c-1.3-1.7-13.7-2.7-17.2-1.3
		c-4.3,1.6-17.1,14.5-22.4,22.5c-2.6,3.8-6.3,10.5-8.2,14.7c-2.8,6.3-3.9,7.7-5.5,7.5c-2.6-0.3-2.2-3.3,1.5-11.5
		c4.1-8.9,11.4-19.5,18.9-27.5c9.8-10.4,17.2-13.8,25.9-11.8c3.4,0.7,4.2,0.6,4.8-0.8c0.4-0.9,0.9-11.8,1.2-24.4
		c0.3-17.2,0.1-23.1-0.8-24.2C658.4,479.5,658.2,479.6,652.4,482.5z M364.7,490.1c-1.2,0-5.6,1-9.7,2.1c-4.1,1-12.7,2.3-19,2.6
		l-11.5,0.7l-0.3,3.9c-0.2,2.2-1.2,5.1-2.3,6.4c-1,1.4-1.9,3.4-1.9,4.6c0,1.1-1.2,4.6-2.6,7.6c-2,4.4-2.6,7.5-3.1,16.7
		c-0.5,10-0.8,11.3-2.4,11.3c-1,0-2.3,0.9-2.9,2c-1.1,2-11,27.8-11,28.6c0,1,5.3,0.2,14.9-2.1c5.7-1.4,11.2-2.3,12.1-2
		c1,0.3,6.2,4.6,11.6,9.6c5.5,5,11.6,10.4,13.6,12.1c3.4,2.6,3.9,2.8,4.5,1.3c0.3-1,0.2-14-0.2-28.9c-1.3-40.7-1.1-48.8,1.1-50.7
		c0.8-0.6,1.4-1.9,1.4-2.9c0-0.9,0.8-2.7,1.8-3.8c4.2-5.2,5.6-7.8,5.4-9.8c-0.2-1.2,0.4-3.8,1.2-5.8
		C366.9,490.1,366.8,490,364.7,490.1z M371,496c-0.5,0-1.4,1.7-2.1,3.9c-0.9,3.1-0.8,4.9,0.6,9.7c2.3,7.8,3.8,10.6,10.3,18.9
		c6.3,7.9,36.8,44.4,43.5,51.9l4.4,5l1.2-6.5c3-15.8,8.2-39.6,9.1-41.6c1.2-2.9,7.3-5.9,25-12.3c8-2.9,14.7-5.4,14.9-5.6
		c1.1-1-17.2-16.4-19.3-16.4c-0.4,0-0.6,2.2-0.6,4.8c0,6.8-1.6,8.6-7.6,8.4c-11.9-0.4-34.8-4.5-47.6-8.6c-4.3-1.3-7.8-2.2-7.8-1.9
		c0,2,9.6,13.6,18,21.6c9,8.7,10.1,10.1,8.8,11.4s-2.4,0.7-8.9-4.5c-4.1-3.2-9.5-8.3-12-11.3c-4.8-5.6-12.3-16.5-13-18.7
		c-0.3-0.8-3.9-2.9-8.2-4.8S371.5,496,371,496z M366,518.5l-2.8-6l-2.1,4.9c-1.2,2.8-1.9,5.7-1.5,6.9c0.3,1.1,0.2,2.2-0.4,2.6
		c-0.8,0.5,0.5,29.7,1.3,30.9c0.2,0.2,2.5-1,5.1-2.6c2.7-1.6,8.6-4.4,13-6.2l8.2-3.3l-9-10.6C372.7,529.2,367.5,521.8,366,518.5z
		 M256.6,522c-0.9,0-2.6,3.8-2.6,5.9c0,2.6,10.6,14.1,13,14.1c1.9,0,8-5.4,8-7.1c0-0.5-1.7-1.7-3.8-2.8c-2.1-1.1-6.2-3.8-9-6
		C259.4,523.8,256.8,522,256.6,522z M452.8,535.3c-8.9,2.6-9.8,3.8-12.6,16.4c-1.2,5.1-1.5,5,10.3,2.8c4.4-0.8,12.1-1.4,17-1.5
		c17.6,0,42.7,3.3,46.1,6.1c1.7,1.4,4.4-2.6,4.4-6.6c0-7.8-7.8-13.1-23.5-16C482.3,534.3,458.9,533.6,452.8,535.3z M273.8,547.7
		c-4,5.9-7.4,11.1-7.6,11.4c-0.1,0.3,1.8,0.5,4.4,0.5c3.9-0.1,4.9,0.3,6.8,2.7l2.2,2.7l3.3-10.9c2.6-8.6,3.1-11.5,2.4-13.8
		C283.5,535,281.5,536.3,273.8,547.7z M291.6,550.2c-2.1-0.9-2.4-0.4-5.2,8.7c-2.3,7.6-3.3,9.7-4.9,9.9c-1.1,0.1-3.1,1.9-4.5,3.9
		l-2.4,3.5l2.3,1.9c2.3,1.9,7.5,2.4,11.8,1.3c1.5-0.4,2.8-2.1,3.9-5.3c0.9-2.5,3.4-9.1,5.6-14.5c2.1-5.4,3.7-10,3.5-10.2
		s-2,0.1-4.2,0.7C295,550.8,293,550.8,291.6,550.2z M256,553.6c-3.6,1.3-11.6,4.3-17.8,6.5l-11.3,4.2l2.9,3.1c1.6,1.7,4.7,5.8,7,9.1
		c7.1,10.7,11.4,13.5,20.2,13.5c9.1,0,11-2.4,2.8-3.5c-4-0.6-6-1.5-8.5-4c-5.7-5.7-4.4-10.4,6.7-23.5c2.6-3,5-6.1,5.4-6.8
		C264.3,550.6,263.8,550.7,256,553.6z M390.1,551c-2.9,0.2-17,6-22.3,9.3l-6.8,4.2v11.8v11.9l3.8-3c5.8-4.6,18.9-11.8,28-15.6
		c4.6-1.8,8.5-3.6,8.8-3.9c0.4-0.3-2-3.8-5.2-7.6C393.2,554.2,390.4,551,390.1,551z M446.5,560.6c-4.3,0.8-8.1,1.6-8.2,1.8
		c-0.2,0.2-1.5,6.6-2.8,14.2c-3.1,17-3.2,17.4-5.5,17.4c-1.3,0-19.7-18.6-22.7-22.9c-1.2-1.8-25.6,9.3-36.4,16.5
		c-8.9,6-10,7.4-11,13.5c-1,6.2-1.1,6.4-3.8,4.7c-1.7-1-2.3-1-3.6,0.3s-0.8,3.1,5.4,16.9c8.2,18.6,10.1,23.9,10.1,28.8
		c0,3.2-2.4,12.8-9.7,38.7c-0.4,1.2,0.8,0.4,3.1-2.2c6.5-7.5,21.2-12.5,30.5-10.4c3.8,0.8,4,0.7,5.2-2.1c0.7-1.7,3.4-5.2,6-7.9
		c11.2-11.5,32.1-15.9,44.9-9.5c2.5,1.2,3.3,1.1,7.2-0.6c8.7-4,29.9-11.8,41.5-15.3c13.9-4.3,42.8-11.5,45.7-11.5
		c1.6,0,0.5-1.5-4.9-7.1c-3.9-3.9-9.8-9.1-13.1-11.5c-6.1-4.3-6.2-4.6-8.3-12.2c-1.1-4.2-3.5-14-5.2-21.7s-3.6-14.4-4-15
		c-0.5-0.5-4.6-1.5-9.2-2.2C484,559.2,455.8,558.8,446.5,560.6z M256.3,570.7c-4.3,5.3-2.3,8.9,5.7,10.2c3,0.5,5.9,0.7,6.3,0.4
		c0.5-0.3,0.6-2,0.3-3.8c-0.5-2.6-0.1-3.9,2-6.4c1.4-1.7,2.3-3.8,2-4.6C271.4,563.2,260,566.1,256.3,570.7z M336.8,591
		c-1.5,0-2,5-0.8,8.4c1.1,3.5,5.2,7.6,7.4,7.6c0.6,0,1.9-1.4,2.9-3.2l1.8-3.2l-5.3-4.8C339.9,593.2,337.2,591.1,336.8,591z
		 M297,610.9c-3.1,0.8-3.7,5.1-2,12.7l1.1,5.2l3-1.5c7.4-3.7,28,1.1,49.4,11.6c6.6,3.2,12.1,5.8,12.1,5.7c0.1,0-1-3.3-2.5-7.1
		l-2.7-7l-16.5-8.2c-9-4.6-19.3-9.2-22.8-10.3C309.9,610,301.8,609.6,297,610.9z M308.4,632c-10.8,0-11,0.7-3.9,14.3
		c3.2,6.2,6.7,12.7,7.7,14.5l2,3.2l3.4-3c3.6-3.1,5.8-3.7,6.9-2c0.7,1.1-5.8,9.1-14.2,17.6c-4.9,4.9-6.2,7.2-4.7,8.7
		c0.4,0.3,2.5-2,4.9-5.2c2.4-3.3,5.8-6.5,7.8-7.5c7.8-3.6,24.5-3,34.4,1.4l4.3,1.9l0.9-3.7c3.2-12.1,4.1-16.2,4.1-18
		c0-1.5-2.3-3.3-9.3-7c-10.5-5.7-24.9-11.9-32.2-13.8C317.8,632.6,312.3,632,308.4,632z M553.5,634.6c-1.1,0.2-4.5,0.9-7.5,1.5
		c-11.6,2.2-45.1,11-55.6,14.4c-12.2,4.1-30.4,11.3-31.8,12.6c-0.6,0.5-0.2,1.8,1.1,3.1c6.6,7.3,10.3,16.9,10.3,26.8
		c0,4.9-1.8,14.8-3.5,19.2c-0.5,1.2,1.5,0.7,8.7-2.4c30.8-13.3,71.4-27.7,96.8-34.3c8-2.1,15-4,15.7-4.4s-3-5.3-9.9-13.1
		c-6.1-6.9-12.1-14.7-13.4-17.4c-1.2-2.7-2.9-5.3-3.6-5.7C559.5,634,557,633.9,553.5,634.6z M412.5,667c-4,2.5-8.4,7.8-11.5,14
		c-1.2,2.5-2.3,4.6-2.4,4.7c-0.1,0.1-2.2-0.5-4.6-1.3c-8.1-2.9-19.4-0.3-25.9,5.9c-4.2,4-8.7,13.3-9.6,19.7
		c-0.8,6.2,1.6,16.2,6.2,25.8c4.3,8.8,14.6,20.2,22.6,25c5.8,3.5,28.8,13.2,31.2,13.2c0.8,0,1.9-0.9,2.5-1.9
		c0.5-1.1,4.7-6.4,9.2-11.8c9.2-11,20.4-27.6,25.3-37.3c8.5-16.8,10.4-33.5,5.2-44.3c-3.6-7.3-11.3-14.2-18-16.2
		C433,659.6,421.7,661.3,412.5,667z M603.1,674c-2.6,0-5,0.2-5.2,0.5c-0.3,0.2-8.1,2.4-17.3,4.9s-17,4.7-17.2,4.9
		c-0.3,0.3,1.1,1.4,3,2.5c6.4,3.8,9.4,11.8,6.5,17.5c-0.6,1.2-4.9,6-9.4,10.7c-9.5,9.8-11.4,14.1-7.5,17.2c1.2,1,2.8,1.8,3.4,1.8
		c3.7,0,11.6,3.4,14.5,6.2c5.8,5.6,7.4,10.1,6.9,18.8c-0.5,8.8-2.7,13.3-8,16.5c-2.7,1.6-5.1,2-13.3,2h-9.9l-2.3,3.5
		c-1.7,2.3-2.3,4.5-2.1,7l0.3,3.5l7.2-0.3c6.2-0.3,7.4-0.1,9.2,1.7c4,4,2.2,17.1-3,22.7c-1.1,1.2-1.7,2.4-1.2,2.7
		c1.8,1.1,23.8,7.8,37.8,11.5c17.2,4.6,26.1,6.5,39.3,8.3c8.7,1.1,9.7,1,17-1.1c8.8-2.6,15.3-5.7,27.9-13.3
		c4.8-2.9,12.4-7.3,16.8-9.7c4.4-2.4,9.9-5.7,12.3-7.4l4.3-3l-2.3-1.8c-1.3-1-5.2-3-8.6-4.5l-6.4-2.8l-6.5-12.8
		c-10.6-20.9-26.3-40.4-59-73.8L611,688.2v-4.9c0-2.8-0.7-5.8-1.6-7.1C608.2,674.5,606.9,674,603.1,674z M552.3,687.1
		c-0.5,0-5.6,1.7-11.5,3.7c-12,4.1-11.8,3.7-11.8,15.8v6.4l5.8-0.7c8.4-1.2,16.8-0.9,18.6,0.6c1.3,1.1,2.4,0.5,7.5-4
		c9.8-8.6,9.4-14.1-1.4-19C556,688.3,552.7,687,552.3,687.1z M351.5,716.2c-0.2-0.2-1,0.7-1.9,2c-1.5,2.3-4,15.6-7,37.8
		c-3.5,24.9-8.6,59.8-9.6,64.9c-0.5,3-0.8,5.6-0.6,5.8c0.2,0.2,6.4-6,13.7-13.9c23.1-24.6,34.2-35.8,39.2-39.5l4.8-3.6l-7.3-4.6
		c-4-2.6-9.8-7.5-12.9-10.8c-6.7-7.3-14.3-21.5-16.5-30.9C352.6,719.6,351.7,716.4,351.5,716.2z M534.6,717.1c-5.3,0.8-6.6,2-6.6,6
		c0,2.5,0.4,2.8,6.7,3.9c3.6,0.6,8.1,1.7,9.9,2.5l3.2,1.3l0.7-3.6c0.3-2.1,1.5-5.1,2.5-6.9c1-1.7,1.6-3.4,1.3-3.7
		C551.4,715.8,540.5,716.1,534.6,717.1z M527,732.1c0,0.8-0.9,8.4-2,16.9s-2,16-2,16.6c0,0.7,4.9-0.2,12.8-2.2
		c13.4-3.5,19.9-4.1,23.5-2.3c1.2,0.6,3.8,3,5.8,5.2c2.5,2.9,4,3.9,5.3,3.4c2.4-0.9,4.6-6.8,4.6-12.2c0-8.8-4.3-14.5-12.4-16.5
		c-2.2-0.6-8.9-2.8-14.8-5C535.7,731.5,527,729.9,527,732.1z"/>
	<path d="M193,48.1c1.2,0.6,0.9,1-1.3,1.8c-1.6,0.6-3.8,1.1-5,1.1c-6.7,0.1-20.5,11.2-20.9,16.7C165.5,73,166,76.1,168,80
		c1.8,3.4,1.8,3.9,0.4,5.1c-1.9,1.6-3.4,0-6.5-6.6c-3.6-7.7-2-14.7,4.8-21.8c5.5-5.6,10.2-8.7,14.7-9.7
		C184.7,46.2,190.5,46.7,193,48.1z"/>
	<path d="M220.3,81c38.3,5.6,84.7,17.7,84.7,22.2c0,2.4-2.2,2.3-8.9-0.2c-16.8-6.4-83.9-20-98.7-20c-6.8,0-16.1,1.9-17.5,3.6
		c-0.9,1.1-0.8,2.5,0.5,5.8c1.9,5,4.3,7.5,13.4,13.6c6.7,4.6,7.5,5.8,4.9,7.4c-1,0.7-3.3-0.3-7.8-3.4c-9.1-6.1-11.8-8.8-14.5-14.5
		c-4.6-9.6-2.9-13.3,7.4-16.1C191,77.5,197.8,77.8,220.3,81z"/>
	<path d="M292.6,253.4c1.5,1.1,1.9,2.7,2,7.7l0.1,6.2l6.2,3.1l6.1,3.1l-3.1,1.9c-3.5,2.1-8,1.6-14.1-1.5c-4.2-2.1-4.7-4.1-2.2-7.8
		c1.3-1.7,1.5-3.6,1-7.5c-0.3-2.9-0.3-5.6,0.1-5.9C289.6,251.7,290.4,251.8,292.6,253.4z"/>
	<path d="M347.4,267.2c4.2,8.5,6.9,20.9,6.4,29.4c-0.3,6.5-0.7,7.7-3.1,10.1c-5.8,5.9-15,2.9-34.5-11c-7.6-5.5-13.1-8.7-15.5-9.1
		c-3.7-0.7-3.8-0.8-2.2-2.6c1-1.1,4.8-3.1,8.5-4.5c7.6-2.9,24.6-11.5,29.9-15.1C342.5,260.6,344.4,261.2,347.4,267.2z M341.5,269.5
		c-1.1-0.3-22.1,10.7-23.8,12.4c-0.5,0.5-0.7,2.5-0.3,4.5c0.6,3.1,1.8,4.3,8.2,8.7c12.3,8.3,19.1,10.1,21.5,5.8
		c1.9-3.6,0.6-18.4-2.2-25.3C343.6,272.3,342.1,269.6,341.5,269.5z"/>
	<path d="M624.4,406.7c0.4,0.9,0.3,2-0.1,2.4c-1.8,1.7-24.2,8-34.1,9.5c-19.1,3.1-58.8,1.6-72.6-2.6c-6.9-2.2-9-3.8-7.6-6
		c0.7-1.1,2.1-1,8.3,0.9c14.1,4.2,50.9,5.6,70.2,2.6c10.4-1.5,27.2-5.7,30.5-7.6C621.4,404.5,623.7,404.9,624.4,406.7z"/>
	<path d="M438.2,330c0.5,0,0.8,1.1,0.8,2.4c0,4.5-13.9,19.4-33.5,35.6c-10.4,8.7-14.5,11.4-20.6,13.5l-4.4,1.6l3.5-3.7
		c1.9-2,8.7-7.8,15-12.9s17.6-15.5,25-22.9C431.4,336.1,437.8,330,438.2,330z"/>
	<path d="M655.4,545.6c0.4,0.9,0.5,1.8,0.4,1.9c-0.2,0.1-3.7,2.5-7.9,5.3c-6.6,4.4-26.6,23.8-25.6,24.9c0.2,0.2,2.3-0.3,4.6-1.2
		c4.4-1.5,20.9-3.5,29.6-3.5c4,0,5.4,0.4,5.9,1.6c0.4,0.9,0.5,1.8,0.3,2s-4.2,0.9-8.8,1.4c-21.1,2.6-24.7,3.3-31.1,6.1
		c-7.5,3.3-9.1,3.5-10.8,1.4c-1.5-1.8,1.5-6.3,12.5-18.8c7.3-8.3,20.8-19.7,25.7-21.7C653.6,543.7,654.7,543.8,655.4,545.6z"/>
	<path d="M393.6,642c3.6,3.5,4.4,8.6,2.1,14.2c-1,2.6-2.5,4.9-3.3,5.2c-3.7,1.4-6-7-2.8-10.5c1.4-1.6,1.4-2,0-4.7
		c-1.4-2.8-1.4-3.2,0-4.7C391.1,640,391.4,640.1,393.6,642z"/>
	<path d="M440.9,675.5c6.3,3.5,8,6.1,9.4,14c1.4,8-0.5,15.9-6.8,29.2c-4.9,10.3-9.7,17.6-21.1,32c-9.8,12.2-10.6,12.6-19.2,8.4
		c-23.5-11.5-37.7-28.2-37.6-44.1c0.1-11.7,5.8-20.6,16.3-25.3c3.6-1.6,5.7-1.8,11-1.3c6.6,0.6,6.6,0.5,9.2-2.7
		c3.2-4,12.2-10.3,17.5-12.3C425.5,671.2,434.7,672.1,440.9,675.5z M406.6,690c-5.2,5.3-6.3,6.1-8.5,5.5c-1.4-0.4-4.8-0.9-7.6-1.2
		c-4.3-0.4-5.7,0-9.8,2.7c-6.1,3.8-8.6,9.1-8.7,17.6c0,12.9,11,26.5,29,35.8l9.4,4.9l5.3-5.9c16.9-18.9,28.3-40.7,28.3-54.3
		c0-9.5-2-12.9-9.5-15.8C426.1,676.1,416.4,679.8,406.6,690z"/>
</g>
</svg>
