<?xml version="1.0" encoding="utf-8"?>
<!-- Generator: Adobe Illustrator 21.0.0, SVG Export Plug-In . SVG Version: 6.00 Build 0)  -->
<svg version="1.1" baseProfile="tiny"
	 id="svg96" inkscape:version="0.92.2 5c3e80d, 2017-08-06" sodipodi:docname="39.svg" xmlns:cc="http://creativecommons.org/ns#" xmlns:dc="http://purl.org/dc/elements/1.1/" xmlns:inkscape="http://www.inkscape.org/namespaces/inkscape" xmlns:rdf="http://www.w3.org/1999/02/22-rdf-syntax-ns#" xmlns:sodipodi="http://sodipodi.sourceforge.net/DTD/sodipodi-0.dtd" xmlns:svg="http://www.w3.org/2000/svg"
	 xmlns="http://www.w3.org/2000/svg" xmlns:xlink="http://www.w3.org/1999/xlink" x="0px" y="0px" viewBox="0 0 850 850"
	 xml:space="preserve">
<sodipodi:namedview  bordercolor="#666666" borderopacity="1" gridtolerance="10" guidetolerance="10" id="namedview98" inkscape:current-layer="svg96" inkscape:cx="574.88387" inkscape:cy="833.57864" inkscape:pageopacity="0" inkscape:pageshadow="2" inkscape:window-height="978" inkscape:window-maximized="1" inkscape:window-width="1920" inkscape:window-x="0" inkscape:window-y="1" inkscape:zoom="0.41647059" objecttolerance="10" pagecolor="#ffffff" showgrid="false">
	</sodipodi:namedview>
<g id="g94" transform="translate(0.000000,0.000000) scale(1.00000,1.00000)">
	<path id="path4" fill="none" d="M0,0h259.9h259.9l-1.9,5.1c-2.8,7.3-5.2,11.8-8.7,16.2c-3.4,4.3-13,12.2-13.8,11.4
		c-0.3-0.3,0-3.2,0.6-6.6c1.3-7.1,0.1-15.5-2.8-20.5c-2.7-4.5-4.7-4.4-7.2,0.3c-2.6,5.2-7.7,8.6-15.9,10.7c-7,1.7-10.7,1.6-25.6-1
		c-4.9-0.9-15.5-2-23.5-2.6c-33.4-2.3-62.5,3.6-80.5,16.5C337,32,334,34,333.8,34s-2.9-2.5-6-5.5c-6.4-6.1-14.2-9.2-20.1-8
		c-5.2,1.1-12.5,5.5-16.7,10.2c-6.6,7.1-5,10,4.5,7.7c8.5-2,18.1-1.8,23.1,0.5c5.4,2.5,6.2,3.9,3.3,5.9c-1.3,0.9-5.7,4.8-9.8,8.6
		c-36.5,34.9-43.9,80.4-20.4,124.5l5.6,10.5l-0.2,10c-0.2,12.3,2.1,21.2,7.2,27.1c2.7,3.1,3.2,4.3,2.4,5.6c-1.9,3.1,0,4.6,9.2,6.9
		c8.5,2.2,11.7,4,7.1,4c-3,0-2.7,4.4,0.5,5.8c4.2,1.9,13.6,4,23.5,5.2c5.2,0.6,11.3,1.3,13.5,1.6c3.7,0.4,4.2,0.9,7.3,6.5l3.2,6
		l-5.9,10.7c-6.4,11.4-11.1,26.6-11.1,35.6c0,8-2.1,14.8-8.5,28.1c-7.2,14.8-17.5,30.6-32,49.2C301.7,405.9,300,408.9,300,415
		c0.1,6.3,2.9,11.8,8.5,16.8c4.2,3.7,13.2,8.8,18.8,10.6c0.9,0.3,1.7,1.2,1.7,1.9c0,0.8-2.4,7.9-5.3,15.8s-5.9,16.3-6.5,18.6
		c-0.8,2.6-2.4,5-4.2,6.3c-3.8,2.7-4.9,4.9-12,23.4c-6.5,17.2-10.5,31.5-12,43.1c-0.6,4.9-2.8,12.7-5.6,20.2c-3.7,9.7-4.5,13-4,15.7
		c1.2,6.2,7.8,12,15.9,14c3.4,0.8,3.5,2.8,0.1,9.2c-2.6,5-12,30.5-16.7,44.9c-4.3,13.3-8.7,31.1-12.2,49c-3.3,17.1-6.1,26.7-9,31.2
		c-1.3,1.9-2.1,2.2-3.8,1.7c-3.1-1.1-6.7-0.8-8.1,0.6c-0.6,0.6-1.4,5.5-1.7,10.8c-0.4,7-1.2,10.8-2.7,13.7
		c-2.3,4.5-13.5,15.6-23.3,23.3c-10.9,8.5-12.5,12.6-10.9,27.9c2.2,20.6,7.6,30.4,19,34.3c5.5,1.9,4.5,1.9-110.2,2H0V425V0z"/>
	<path id="path6" fill="none" d="M524,0h163h163v425v425l-300.7-0.1c-288.4-0.1-300.5-0.2-292.8-1.8c10.8-2.4,27.6-7.7,35.2-11.1
		c7.8-3.6,19.1-11,19.8-13c1.2-3.6,2.4-17.2,2.5-26.5c0-14.8,1.4-21.7,5.5-27.7c4.6-6.6,4.9-10.7,1.3-16.5c-1.9-3.2-1.9-3.5-0.2-14
		c1.3-8.5,3.3-14.8,9.2-29.8c12.7-32.3,21-58.8,25.2-80.5c1.3-6.3,2.7-12,3.2-12.5c0.5-0.6,5.8-0.9,13.2-0.6
		c14.2,0.4,22.6-1.4,25-5.2c0.7-1.2,1.7-6,2-10.7c0.7-9.2,4.8-38.5,7.1-51.5c2.5-13.9,7.8-36.5,8.5-36.5c0.4,0,1,1.9,1.4,4.2
		c0.7,4.2,1.7,8.7,9.5,42.3c2.2,9.3,5.1,23.1,6.5,30.5c3.5,17.8,3.8,18.4,10,21.5c5.9,2.9,16.5,4.9,20.8,4c5.2-1.2,7.4,1.3,9.6,11.2
		c1.1,4.8,2.3,10.8,2.7,13.3c1.7,11.2,9.2,30.9,21.1,55.1c13.4,27.2,13.7,28.2,12.3,35.7c-1.3,7.2-0.7,13.4,1.7,18.5
		c1.6,3.3,1.6,4.1,0.1,11.9c-2,9.8-2.2,19.5-0.5,25c1.3,4.5,8.2,12.6,13.2,15.7c1.8,1.2,7.9,4.1,13.4,6.5c5.6,2.4,18.7,9.2,29.2,15
		c24.7,13.9,24.4,13.8,35.7,13.7c16.9-0.1,30.5-4.3,36.8-11.2c4.5-5,5.1-7.8,3.2-14.7c-0.9-3.2-1.9-7.5-2.2-9.7
		c-1.2-8-9.4-22.1-16.4-28.3c-1.4-1.3-7.8-5.8-14.1-9.9c-18.2-12-23.1-18.1-28-35.2c-1.7-6-3-8.3-6.4-11.7c-3.4-3.3-5.3-6.9-9.9-18
		c-16.9-41.5-41.2-106.5-40.5-108.4c0.2-0.6,2.5-2.7,5.3-4.8c8.4-6.4,8.5-6.6,3.6-23.4c-5.3-18.8-7.9-26.7-13.5-41.1
		c-2.5-6.4-4.8-14.1-5.2-17c-1-7.8-3.9-14.6-8.5-20.2c-2.3-2.7-5.4-7.5-7-10.5c-1.7-3-4.1-7-5.4-8.9c-1.6-2.2-2.5-4.7-2.5-7.1v-3.8
		l9.4-3.6c10.3-4,17.1-8.4,18.7-12c1.2-2.6,0.1-5.3-7.3-17.8c-2.2-3.7-3.8-7.2-3.6-7.8c0.4-1.3,10,4.9,14.9,9.7
		c3.6,3.5,7.1,4.5,22.6,7c5.1,0.8,10.2-1.5,16.9-7.8c4.5-4.2,7.6-6.2,11.5-7.3c2.9-0.9,5.8-1.6,6.5-1.6s2.6-1.2,4.3-2.6
		c5.6-4.7,3.2-12.9-4.5-15.4c-3-1-4.8-0.9-10.1,0.5c-3.5,1-6.7,1.5-7,1.2c-0.9-1,2.6-10.7,6.3-17.3c4.4-7.8,4.4-10.6,0-15
		c-5.9-5.9-9.7-4.3-14.8,6.4l-2.7,5.7l0.6-6.6c0.5-6.3,0.4-6.7-2.2-8.7c-1.5-1.2-3.6-2.2-4.6-2.2c-2.7,0-7.1,4.3-8.4,8.1
		c-1.2,3.6-4.5,6.5-8.5,7.4c-1.9,0.4-3.8-0.4-8-3.6c-3-2.3-9.5-6.5-14.5-9.4c-9.5-5.6-11.8-7.7-15.4-13.7c-1.9-3.2-2.2-5-2-11.6
		c0.3-9-1-11.9-9.4-20.9c-4.9-5.2-4.9-5.2-2.6-6.2c1.3-0.5,6.4-1.7,11.2-2.6c19.2-3.8,30-14.8,33.3-33.8c4.4-25.6,4-24.4,11.5-35.9
		c11.1-17,12.3-22,7.6-31.2c-1.5-2.8-3.8-9.1-5.3-14c-2.4-8.3-4.3-11.4-8.6-14.1c-0.9-0.6-1.9-2.3-2.2-3.8c-0.6-2.6-0.5-2.7,1.3-1.8
		c1.1,0.6,2.4,1.1,3,1.1c1.9,0,12.8-14.6,15.9-21.3c11.6-24.5,7.7-52-10.8-76.1l-5.1-6.6l2-6.5c3-9.5,5.3-26.9,4.5-33.4
		c-1-8-3.9-16.9-7.3-22.4L524,0z"/>
	<path id="path8" fill="#4169E1" d="M523.2,11.1c0.3-0.1,1.5,2.3,2.5,5.1c1.4,4.1,1.8,8.1,1.7,17.8c-0.1,11-0.5,13.7-3.2,22.7
		c-1.8,5.6-3.2,10.7-3.2,11.2s3.1,5.1,6.9,10.2c8.4,11.5,11.7,17.8,14.2,27.7c3.7,14.7,2,29-5.2,43.4c-3,5.9-5.7,8.9-4.4,4.9
		c0.4-1.3,0.1-2.8-0.5-3.6c-2.4-2.9-4.6-1.6-8.1,5c-1.8,3.6-3.7,6.5-4.1,6.5c-0.4,0-1-1.1-1.4-2.4c-0.4-1.8,0.3-3.7,2.4-6.8
		c4.1-6,6.1-11,7.8-19.6c1.7-8.9,1.8-12.6,0.3-11.7c-0.6,0.4-0.9,1.9-0.8,3.3c0.1,1.5-0.1,3.4-0.4,4.2c-0.3,0.8-1,3.7-1.7,6.5
		c-1.8,7.6-6.9,16.4-12.9,22.2c-5.1,5-5.6,5.3-10.6,5.3c-4.8,0-5.5,0.3-8.9,4c-2,2.2-4.6,4-5.7,4c-1.8,0-1.8-0.4,1.1-5.8
		c3-5.8,7-19.4,7-23.9c0-1.5,2.2-4.7,5.9-8.7c5.4-5.8,9.8-12.3,8.9-13.1c-0.2-0.2-3.1,2.8-6.4,6.8c-5.6,6.8-15.4,15.1-21.7,18.3
		l-2.7,1.5l0.6-9.4c0.8-11.4-0.8-23.8-4.2-32.1c-1.7-4.1-2.4-7.9-2.4-12.3c0-3.5-0.4-6.3-0.8-6.3c-0.5,0-1.4,3.9-2.1,8.8
		c-1.3,9.8-5.2,21.7-7.7,24.1c-1.5,1.5-1.6,1.2-1-3.4c1.1-9.1-4.8-27.8-11.3-35.5l-2-2.5L449,81c0,5.7-3.4,27-4.2,27
		c-0.4,0-0.8-2.9-0.8-6.3c0-3.5-0.7-8.6-1.5-11.3s-1.8-7.7-2.1-11.2c-0.4-3.4-1.1-6.2-1.5-6.2c-0.5,0-0.9,3.1-0.9,6.9
		c0,7.6-2.8,22.4-6,31.5c-2.6,7.6-9.7,18.9-14.9,24l-4.1,4l-2.4-2c-9.7-7.7-14.9-11.5-20.3-14.8c-7.2-4.3-15.5-13.7-18.9-21.4
		c-1.3-2.8-2.7-5.2-3-5.2c-1,0,0.6,11,2.3,15.9c0.8,2.5,2.6,6.3,4,8.5l2.5,4.1l-3.5-3.4c-4.9-4.6-10.6-15.7-13.7-26.6
		c-1.5-5-3-8.9-3.6-8.9c-0.5,0.1-3,6.5-5.7,14.2c-5.2,15.3-8.2,31.6-7.2,39.1l0.6,4.6l-1.9-2.5c-3.5-4.2-8-14.3-8.7-19.3
		c-0.6-3.5-1.1-4.5-1.8-3.8c-0.8,0.8-1.2,7.9-1.2,20.9v19.7l3.7,10.3c2,5.6,3.1,9.9,2.5,9.6c-0.7-0.4-4.4-3.2-8.4-6.2
		c-6.9-5.2-11.7-10.6-17.8-20c-3.9-5.9-4.4-4.5-0.9,2.5c1.9,4,6,8.9,12.6,15.5c5.4,5.4,9.8,10.3,9.8,11c0,3.3,2.4,9.1,5.5,13.7
		l3.4,5.1h-4.8c-7.2,0-17.5-5.5-24.4-13c-4.7-5-5.7-5.7-6.7-4.5c-0.7,0.8-1.6,1.5-2.1,1.5s-3.9-6.1-7.5-13.5
		c-12-24.6-14.1-46.9-6.8-70c2.3-7.2,9.8-21.2,15.4-28.6c8.3-11.1,34.6-34.3,46.1-40.8c7.8-4.4,21.1-8.7,33-10.7
		c12.6-2.1,44.7-1.5,57.4,1.1c4.4,0.9,12.1,1.9,17.2,2.2c10.8,0.6,20.2-1.7,27.1-6.7c2.3-1.6,4.4-3,4.7-3c1.3,0,0.2,14-1.5,19
		c-2.5,7.1-2.5,7.8,0.4,8.6c1.5,0.4,4.6-0.6,9.2-2.8c8.7-4.2,18.2-13.5,22.1-21.7C521.2,13.8,522.8,11.1,523.2,11.1z"/>
	<path id="path10" fill="#4169E1" d="M318.6,29.1c4.2,2,7.1,4.5,6.2,5.4c-0.2,0.2-2.4-0.5-4.7-1.7c-3.3-1.6-6.2-2.1-11.7-2.1
		c-4.1,0-7.4-0.2-7.4-0.3c0-0.2,1.2-1,2.8-1.8C307.6,26.5,313.7,26.7,318.6,29.1z"/>
	<path id="path12" fill="#BDB76B" d="M357.9,97.4c0.1,1,1.9,5.6,4,10.2l3.9,8.3l-6.6,2.2c-3.7,1.2-7.7,2.8-9,3.6
		c-3.6,2.2-1.6,3.4,3.1,1.7c3.1-1.1,6.1-1.3,11.6-0.8c6.4,0.6,8.1,1.2,14,5c3.6,2.4,7.2,4.4,7.9,4.4c2.2,0,1.3-1.8-1.8-3.7
		c-1.6-0.9-3-2.1-3-2.5c0-1.2,1.4-1,2.8,0.4c1,1,1.7,1,3.1,0.1c1.6-1,3-0.4,9.3,3.8c4,2.8,9,6.7,11,8.7c3.6,3.4,3.9,3.5,6.4,2.1
		c3.5-1.8,12.4-13,15.8-19.6c2.2-4.5,5.7-8.1,10.5-10.8c2.8-1.6-0.1,6-4,10.2c-4.1,4.5-6.3,10.1-5.7,14.8c0.3,2.9,0.4,2.8,2.9-2.5
		c1.5-3,3.4-6.4,4.3-7.5c1.5-1.9,1.5-1.7,1,3.5c-0.9,8,4,39.3,6.8,43.8l2.1,3.5l-2.6-0.5c-1.9-0.4-2.7-0.1-2.7,0.9
		c0,1.3,2,1.4,12.3,1.2l12.3-0.4l-1.4,2.6c-2.4,4-0.9,7.5,4.1,9.7c6.4,2.8,7.3,4.4,5.6,9.5c-1.9,5.7-1.5,12.5,1,18.2
		c1.2,2.6,2.1,5.3,2.1,6c0,1.8-7.8,7-17.9,12c-6,3-13.7,5.6-23.3,8c-7.9,2-15.1,3.8-16,4.1c-1,0.3-3.2-0.9-5.6-3
		c-7.3-6.6-12.9-7.1-27.2-2.5c-5.2,1.6-10.7,3.1-12.2,3.1c-1.4,0.1-7.3-2.2-13-5c-8.7-4.2-11.5-6.2-17-12
		c-4.2-4.5-7.9-9.7-10.2-14.4c-5.4-11.3-5.4-11.2,3.2-11.6c3.9-0.2,7.2-0.6,7.2-1s-1.3-1.6-2.9-2.5c-3.9-2.3-12.3-18.7-9.6-18.7
		c0.2,0,1.9,0.9,3.7,2c5.5,3.3,5.8,2.3,1.8-5.4c-2.1-4-4.5-10.7-5.4-14.7c-1.5-7-2.7-31.9-1.6-31.9c0.3,0,2,3,3.7,6.7l3,6.7
		l-1.8,4.1c-2.6,5.7-2.4,11.8,0.7,18.3c1.4,3,3.4,7.4,4.4,9.7c1.7,4,4,6.7,4,4.7c0-0.4-1.3-4.8-3-9.7c-1.6-4.9-3-10.7-3-13
		c0-5.2,1.7-10.2,3.7-10.9c0.8-0.4,1.3-1.2,1-1.9c-0.3-0.8-0.1-2,0.4-2.8c0.6-0.9,0.9,0.2,0.9,3.3c0,2.6,1.1,7.7,2.4,11.5
		c1.3,3.7,3.9,12,5.6,18.3c3.5,12.6,5.3,16.8,7.6,17.7c1.1,0.4,1.2,0.8,0.3,1.9c-1.8,2.1-0.9,2.4,4.6,1.2
		c8.1-1.7,26.8-9.9,25.6-11.1c-0.8-0.8-2-0.6-4.2,0.7c-3.7,2.2-4.3,1.8-2.9-1.9c0.8-2.2,0.7-4.6-0.5-9.9
		c-2.6-11.6-8.5-29.8-11.1-34.4c-1.4-2.3-2.1-4.2-1.6-4.2c1.3,0,9.5,5.5,11.1,7.3c1.6,2,3.1,2.2,3.1,0.4s-6.7-8.1-11-10.3
		c-5.7-3-16.5-2.4-24,1.3l-6,3v-5.1c0-6.9,6.9-34.3,9.7-38.9C356.4,91.5,357.8,94.4,357.9,97.4z M414,177.1c-1.1,1.9-1,2.4,0.6,3.6
		c2.7,2,3.5,1.6,2.8-1.5C416.4,175.2,415.3,174.5,414,177.1z M436.2,185.1c-19.3,1.7-25.6,3-34.2,7.4c-7.2,3.7-7.3,3.8-4.5,14.9
		c5.1,20.7,15,30.4,30.2,29.7c3.2-0.2,8.3-5,10.5-9.8c3-6.7,3.9-18.4,2.4-30c-0.7-5.5-1.6-10.5-2-11.2
		C438.2,185.5,437.1,185.1,436.2,185.1z"/>
	<path id="path14" fill="#DC143C" d="M430.3,189.1l6.7-0.1v4c0,2.2-0.2,4-0.4,4c-0.2,0-2.1-0.7-4.2-1.6c-5.8-2.4-16.9-1.5-22.5,1.8
		c-2.4,1.5-5.5,3.8-6.8,5.2c-3.3,3.5-4.3,3.3-3.9-1.2c0.3-3.4,0.7-3.9,5.8-6.5c3.1-1.5,8.5-3.4,12-4.1
		C420.6,189.8,426.5,189.1,430.3,189.1z"/>
	<path id="path16" fill="#DC143C" d="M433.9,198.5l4.4,1.8l-0.5,11.1c-0.8,17.2-4.8,23.3-14.8,22.4c-9.1-0.9-17-8.8-20.7-20.6
		l-1.8-5.5l4.5-4c2.5-2.2,6.3-4.8,8.5-5.9C418.3,195.5,427.2,195.8,433.9,198.5z"/>
	<path id="path18" fill="#BDB76B" d="M473.6,102.2c0.8,0.8,4.3,17.2,4.9,22.3c0.6,6,0.6,6-1.2,3.5c-1-1.4-3.5-4.4-5.7-6.7l-3.8-4.3
		l2.1-4.9c1.1-2.7,2.1-5.8,2.1-6.9c0-1,0.3-2.2,0.7-2.5C473,102.3,473.4,102.1,473.6,102.2z"/>
	<path id="path20" fill="#9400D3" d="M460.2,120.7c0.2,2,0.8,2.7,2.1,2.5c1-0.2,2.1,0.6,2.6,2.1c1.1,2.9,6.2,38,5.5,38.6
		c-0.2,0.3-1-0.1-1.6-0.7c-3.4-3.4-9.1,1.7-7,6.3c0.8,1.7,2,2.5,3.7,2.5c2.8,0,3.4,1.5,0.9,2.4c-2.5,1-14.3,0.7-16.3-0.4
		c-1-0.5-2.3-2.2-2.9-3.7c-1.3-3.3-4.6-24.3-3.9-24.9c0.2-0.3,1,0.9,1.7,2.6c1.7,4,4.4,5.5,6.4,3.5c0.8-0.8,1.7-1.5,2-1.5
		s1,2.7,1.7,6c1.3,6.5,3.4,9.4,5,6.9c1.4-2.3,1-10.7-1-19.9c-1.5-6.6-2.4-8.9-4.5-10.5c-1.4-1.1-2.6-2.7-2.6-3.5s-0.9-3-2.1-4.9
		c-1.1-1.8-1.8-3.6-1.5-3.9s2.3-0.8,4.3-1.2C459.3,117.7,459.8,117.8,460.2,120.7z"/>
	<path id="path22" fill="#BDB76B" d="M474.7,132.9c1.9,3.9,2.7,7,2.7,10.8c0,2.9,0.4,5.3,0.9,5.3s0.6,1.5,0.3,3.4
		c-1,5.4,1.1,5.1,2.9-0.3c1.3-4.1,2.5-5.5,6.6-8.2c2.7-1.7,5.2-2.9,5.5-2.6c1.1,1-4.8,19.2-8.2,25.3c-1.9,3.3-3.4,6.4-3.4,6.8
		c0,0.3,1.8,0.3,4,0l4-0.7l-1.1,3.3c-0.9,2.6-1.5,3.1-3.3,2.5c-1.1-0.3-4.3-1.3-7.1-2.1c-2.7-0.9-6-1.6-7.2-1.6h-2.2l2.1-4
		c1.8-3.5,2-5,1.4-12.7c-0.8-10.7-4.1-30.3-5.5-33c-0.6-1.1-1.1-2.5-1.1-3.2C466,119.7,471.8,127.1,474.7,132.9z"/>
	<path id="path24" fill="#FF00FF" d="M449.9,130.3c2.3,6.6,2.8,18.1,1,19.3c-4.5,2.8-10.9-22.2-6.7-26.4
		C446,121.4,447.6,123.4,449.9,130.3z"/>
	<path id="path26" fill="#9400D3" d="M371.9,139.4c3.1,5,11.1,31,11.8,38.3c0.8,8.2-0.7,10.4-8.7,13.1c-10.8,3.7-13.3,1.1-18.9-19.8
		c-1.1-4.1-2.2-8.4-2.6-9.5c-0.3-1.1,0.1-0.7,1.1,1c2.2,4.1,5.5,7.5,7,7.5c0.7,0,1.9-0.9,2.7-2c1.3-1.9,1.6-1.7,3.7,4.2
		c2.6,7.2,3.6,8.6,5,7.2c1.6-1.6-0.8-15.9-3.9-23.4c-1.9-4.8-3.2-6.6-4.8-6.8c-1.2-0.2-2.4-1.3-2.7-2.6c-0.9-3.8-4.5-7.6-7.2-7.6
		c-4.4,0-5.1,6.8-1.8,18c0.4,1.7,0.3,2.2-0.3,1.5c-1.4-1.4-3.3-9.6-3.3-14.3s1.7-6.5,8.5-8.5C366,133.1,368.4,133.7,371.9,139.4z
		 M378.2,176c-1.7,0-4.2,3.7-4.2,6.1c0,4.9,4.7,6.6,7.4,2.7c2.1-3,2-4.4-0.4-6.8C379.9,176.9,378.6,176,378.2,176z"/>
	<path id="path28" fill="#FF00FF" d="M362.8,160c0.3,4.1,0,7-0.6,7.4c-1.1,0.6-3.8-2.7-6.5-8c-1.9-3.6-3.9-14.8-3-16.9
		C354.7,137.1,362,149.8,362.8,160z"/>
	<path id="path30" fill="#BDB76B" d="M508.4,169.1c3.9,2.3,4,2.4,3.7,8.4c-0.1,2.4,0.4,4.8,1.3,6c1.5,1.9,1.7,1.9,2.7,0.2
		c1.6-2.8,7.3-2.2,9.8,0.9c2.5,3.2,2.6,4.5,0.5,8.5c-1.7,3.4-1,5.4,1,2.6c1.9-2.5,2.3-2.2,3.1,2.4c0.6,3.2,0.3,4.5-1.2,6.1
		c-1.8,2-1.8,2,0.2,1.8c1.1-0.1,2.5-0.2,3.1-0.1c1.8,0.2,3.7,5.8,3,9.2c-0.6,3.3-9.6,18.9-10.8,18.9c-0.5,0-0.8-1.8-0.8-3.9
		c0-2.5-0.5-4.1-1.5-4.5c-1.2-0.4-1.5,0.4-1.5,4.2c0,2.6-0.5,6.5-1,8.8c-0.5,2.2-2.3,11.8-4,21.4c-3.5,19.6-5.7,25-12.7,30.7
		c-5.9,4.8-12.4,7.1-27.5,9.3c-7.2,1.1-13.2,2-13.3,2c-0.1,0-0.4-5.1-0.7-11.3c-0.3-9.4-0.8-12.1-3.1-17c-1.8-4.1-2.3-5.9-1.4-6.2
		c6.3-2,16.3-5.8,18.5-6.9c5.8-3.1,12.2-11.8,16.7-22.7c1.4-3.4,3.2-7.1,4.2-8.1c2.2-2.4,1-3.4-2.4-1.9c-2.4,1.1-2.9,0.9-7-3.1
		c-8-7.7-10-15.3-7.1-26.2c1.4-5.5-0.2-8.5-6.3-11.6c-3.1-1.6-4-2.6-3.7-4.3c0.7-5,14.5-2,18,3.9c2.3,3.9,3.6,4.2,6.9,1.5
		c2.1-1.6,2.2-2.2,1.1-4.5c-1.3-2.8-3.2-3.5-3.2-1.1c0,0.8-0.4,1.5-1,1.5c-2.5,0,1.2-10.4,5.2-14.8
		C499.9,166.4,503.8,166.4,508.4,169.1z"/>
	<path id="path32" fill="#BDB76B" d="M311.8,191c2.6,3,6.8,6.3,10.1,7.9c6,3.1,5.6,2.5,11.7,18.5c0.7,1.7,0.2,1.8-6.9,1.5
		c-5.9-0.3-8.3-0.9-10.6-2.7c-2.2-1.6-3.1-1.9-3.1-0.9c0,3.9,8.6,7.7,17.4,7.7c6,0,6.6,0.2,9.2,3.2c2.6,3.2,2.6,3.3,0.6,3.6
		c-4.2,0.6-20.3-1.7-24.5-3.6c-5.7-2.6-9.3-7.3-11.3-15.3c-2-7.9-1.3-20.2,1.3-23.1C307.3,186,307.5,186.1,311.8,191z"/>
	<path id="path34" fill="#9932CC" d="M485.3,231.6l2,2.6l-2.9,6c-1.6,3.4-5.1,8.4-7.7,11.2l-4.8,5.1l-1.5-3.5
		c-0.8-1.9-3.1-5.1-5-7.1l-3.5-3.6l9.3-5.2c5.1-2.9,9.9-5.9,10.7-6.6C483.1,229.3,483.6,229.5,485.3,231.6z"/>
	<path id="path36" fill="#1E90FF" d="M319.2,231.4c6,1.4,16.9,2.3,20.9,1.9c4.2-0.5,5-0.1,12,4.9c6.9,4.9,9.6,6.4,15.2,8.2
		c1,0.3,1.6,0.9,1.3,1.4c-0.4,0.7-23.7-0.5-24.5-1.4c-0.2-0.2,0.4-1.3,1.3-2.3c1.7-1.9,1.7-2-0.6-3.4c-2.3-1.5-22.8-7.7-25.4-7.7
		c-0.7,0-1.6-0.5-1.9-1C317.1,231.3,317.7,231.1,319.2,231.4z"/>
	<path id="path38" fill="#9932CC" d="M412.8,246.7c3.7,2.8,10.9,13,9.9,14c-0.4,0.3-4.9,0.1-10.1-0.5c-14.4-1.8-22.5-1.5-29,0.9
		c-3,1.2-6.2,1.9-7,1.6c-1.7-0.7-5.6-7.8-5.6-10.1c0-0.9,2-2,5.3-2.9c2.8-0.8,9.9-2.8,15.7-4.4C403.7,242,406.9,242.2,412.8,246.7z"
		/>
	<path id="path40" fill="#9932CC" d="M452.5,244.7c5.4,1.5,12.5,9,12.5,13.3c0,2.5-0.6,3-5.1,4.5l-5.1,1.7l-3.4-3.3
		c-3.7-3.6-3-3.6-12.3-0.1c-0.9,0.4-0.8-0.4,0.5-2.9c0.9-1.9,2.3-5.2,2.9-7.3c0.9-3.2,1.9-4.2,4.6-5.2
		C449,244.7,451.4,244.4,452.5,244.7z"/>
	<path id="path42" fill="#EE82EE" d="M399.4,263c6.4,0,6.8,0.7,3.7,6.8c-5.1,10.1-8.4,28.5-8,44.6l0.3,10.1l-3.8,0.3
		c-5.4,0.5-13.4-5.7-17.1-13.3c-2.4-4.9-2.7-6.4-2.3-12.3c0.7-10,6.1-19.7,18.1-32.5C393.5,263.3,394.2,263,399.4,263z"/>
	<path id="path44" fill="#EE82EE" d="M451,268c8.6,13.4,9.3,31.4,1.8,48.2l-3.1,6.8h-13.2h-13.3l-0.8-7.7c-0.8-8.9,0.1-22.4,2-30.3
		c1.2-5,5.5-17.9,6.3-18.9c0.2-0.3,3.1-1,6.6-1.7C447.3,262.4,447.4,262.5,451,268z"/>
	<path id="path46" fill="#EE82EE" d="M417.8,264.6c5.3,0.4,9.9,0.8,10,1c0.2,0.1-0.7,3.1-2.1,6.6c-4,10-5.8,21.6-5.6,36.8l0.1,13.5
		l-9.6,0.8c-5.3,0.5-10.3,0.6-11.1,0.3c-1.2-0.4-1.5-2.9-1.5-12.3c0-6.5,0.5-14.7,1-18.3c1-6.1,6.1-23.3,8.2-27.3
		C408,264.2,409.1,264,417.8,264.6z"/>
	<path id="path48" fill="#EE82EE" d="M369.2,307c0.6,5.9,4.3,12,9.3,15.3c1.9,1.2,3.5,2.5,3.5,2.8c0,0.4-2.4,0.9-5.2,1.1
		c-2.9,0.3-8.4,1.9-12.3,3.6c-3.8,1.7-7.1,2.9-7.3,2.7c-0.2-0.2,0.3-2.8,1.2-5.9c0.9-3,1.9-8.9,2.3-13.1c0.5-6.5,1-7.9,3.1-9.5
		C367.7,300.9,368.7,301.5,369.2,307z"/>
	<path id="path50" fill="#EE82EE" d="M459,315c1.9,0,8.9,5,10.7,7.6c1.5,2.4,5.1,22.8,5.3,29.7v2.9l-5.2-4.7
		c-8.4-7.6-18.5-14.4-29.3-19.7l-10-4.9l6,0.6c3.3,0.3,8.1,0.8,10.6,1.1l4.6,0.5l3.1-6.5C456.5,318,458.4,315,459,315z"/>
	<path id="path52" fill="#9370DB" d="M419.5,326.2c8.4-0.3,30.3,11.1,47,24.5l8,6.4l0.6,7.7c0.5,7.4,0.9,8.4,9.5,24
		c4.9,9,11,18.9,13.5,22c2.6,3.1,6,7.9,7.6,10.7l3,5h-8.1c-7.5,0-8.9,0.4-18.9,4.7c-6,2.7-11.2,4.8-11.6,4.8s-1.5-1.6-2.4-3.5
		c-2.1-4.4-12.4-20.7-18.5-29.3c-4.3-6.1-4.5-6.2-6.4-4.6c-1.9,1.8-13.5,17.3-22.2,29.6c-2.7,4-5.4,6.8-6.4,6.8
		c-3,0-26.4-6.9-31.8-9.4c-2.8-1.3-7.7-4-10.8-6c-8.2-5.2-16-8.2-27.4-10.6c-17.1-3.4-27.6-2.3-34.3,3.7c-2.9,2.6-3.9,3.1-3.9,1.9
		c0-2.9,2.9-7.5,11.9-19c13.8-17.6,30.2-42.9,35.4-54.7l2.5-5.6l8.8-3.3c6.4-2.4,11-3.4,16.4-3.6c4.1-0.2,13.6-0.8,21-1.2
		C409.4,326.7,417.3,326.2,419.5,326.2z"/>
	<path id="path54" fill="#BDB76B" d="M481.9,344c0.4,0,1.2,1.5,1.9,3.4c1.9,5.2,8.4,11.9,15,15.4c14,7.5,28.2,19.3,34.9,28.9
		c2.2,3.2,4,5,4.9,4.6c2.2-0.8,1.6-2.4-3.1-8.7c-4.2-5.6-5.7-9.6-3.5-9.6c0.5,0,1.4,0.9,2,2c1.5,2.8,3,2.5,3-0.6
		c0-3.4,1.5-2.3,2.5,1.8c0.7,2.8,0.9,2.1,1.6-4.9c0.8-8.2,2.1-12.3,4-12.3c0.6,0,0.7,2.7,0.3,7.5c-0.7,8.2,0.5,13,3.7,14
		c4,1.3,5.6-0.4,9-9.8c2.2-5.9,4-9.2,4.9-9.2c2.8,0,2.2,3.8-2.4,13.5c-5.2,11.1-5.9,16.7-2.6,20c2.4,2.4,5.8,2.5,10.7,0.5
		c4.5-1.9,9.7-1.9,11.3,0s0.6,3.2-3.3,4c-7.8,1.7-15.2,5.8-20.2,11.1c-4.8,5.1-5.4,5.4-9.8,5.4c-4.1,0-5.2-0.5-7.8-3.2
		c-1.6-1.8-2.9-3.6-2.9-4.1c0-0.4-0.4-0.5-1-0.2c-0.5,0.3-0.7,1.9-0.3,3.5c0.5,2.9,0.5,2.9-2.7,2c-1.7-0.5-5-2.5-7.2-4.5
		c-6.4-5.9-12.2-9-20.8-11.5l-8-2.3l-4.9-8.6c-10.3-18.3-11.2-20.6-11.8-30.2c-0.4-5.8-0.2-10.4,0.7-13.3
		C480.7,346,481.6,344,481.9,344z"/>
	<path id="path56" fill="#9370DB" d="M343.3,412.9c0.4,0.4,0.1,2.4-0.8,4.4c-0.8,2-1.5,4.7-1.5,6c0,1.6-1.2,3.4-3.6,5.2
		c-2,1.5-4,4-4.6,5.6c-0.5,1.6-1.4,2.9-2,2.9s-4.2-1.7-8.1-3.7c-7.1-3.8-14.7-10-14.7-12.1c0-0.7,1.3-2.6,2.8-4.3
		c2.1-2.4,4.3-3.5,8.8-4.5C325.5,411.1,341.7,411.5,343.3,412.9z"/>
	<path id="path58" fill="#008B8B" d="M348.3,414c2.2,0,13.8,5,19.9,8.5c10.8,6.3,22.5,10.9,36.4,14.4c6.5,1.7,12.2,3.1,12.6,3.1
		s2.3-2.8,4.2-6.2c2.1-3.8,3.7-5.7,4-4.8c0.2,0.8,0.7,5.8,1,11c0.3,6,1.3,11.5,2.6,14.9c1.5,3.9,1.9,6.6,1.5,9.5
		c-1.1,6.7-5.1,13.8-10.1,17.6c-4.7,3.6-6.4,6.4-6.4,10.6c0,1.4-1.1,5.2-2.5,8.5c-3.8,8.8-9,27.8-11.4,41c-2.8,15-8.1,54-8.1,58.9
		c0,2.1-0.4,4.1-0.9,4.4c-0.5,0.4-4.9-2-9.8-5.2c-12.7-8.5-22.7-13.7-31.8-16.8c-7.8-2.6-8.7-2.6-33.2-2.8l-25.2-0.1l-3,2.9
		c-1.7,1.7-3.1,2.5-3.1,1.9s1.7-5.3,3.9-10.4c2.1-5.2,4.1-10.6,4.5-12.1c0.3-1.5,1.5-3.2,2.6-3.8c4.1-2.2,17.4-4,29-4
		c6.7,0,12.1-0.4,12.5-1c1.3-2.1,5.8-18.3,9.6-34.8c2.2-9.5,5.1-19.6,6.5-22.5c3.9-8.4,2.8-20.2-2.1-22.1c-4.3-1.6-14.7,0.4-23,4.4
		c-2.6,1.2-4.8,2-5,1.8s2.7-8.9,6.5-19.3c4.4-11.8,7-20.3,7-22.9c0-4.9,0.7-6.2,4.1-7.5c2.2-0.8,2.8-1.8,3.4-5.8
		c0.4-2.6,1.3-6.3,2-8.1C347.3,415.5,348.1,414,348.3,414z"/>
	<path id="path60" fill="#008B8B" d="M435.4,413.8l4.4,0.6c2.5,0.3,6.4,0.6,8.7,0.6h4.2l6,10.2c3.3,5.7,6.3,11.1,6.6,12.1
		c1,2.7,3.5,3.1,8.6,1.3c2.5-0.9,4.9-1.6,5.2-1.6c1.2,0,4,12.5,4.7,21c0.6,7.5,1,8.6,2.9,9.5c3.1,1.3,9.8,14.6,8.9,17.8
		c-0.8,3.2,1.8,12.8,4.9,18.1c1.4,2.4,3.4,7.9,4.6,12.2c5.6,22.2,13.2,40.5,17.5,42.6c2.8,1.3,3.9,3.8,5.8,12.5
		c0.7,3,0.6,3.1-4.6,4.3c-9.1,2.2-28,8.9-36.3,13c-4.4,2.2-12.3,7.4-17.5,11.5c-5.2,4.2-10.5,7.8-11.7,8.1
		c-3.4,0.9-12.5-1.4-15.4-3.9c-2.3-1.9-3-4.1-5.4-16.2c-3-15.9-9.7-45.6-16-72c-5.9-24.2-5.5-26.2,6.4-31.7
		c10.3-4.7,29.2-10.4,40.6-12.2c6.4-1.1,10.9-2.7,9.5-3.6c-1.5-0.9-25.4,3.2-34.3,6c-3.8,1.2-7.3,2-8,1.7
		c-1.4-0.4,19.2-10.7,21.6-10.7c0.9,0,1.7-0.5,1.7-1.1c0-2.2-8.1-0.1-17.4,4.5c-5.1,2.5-9.5,4.6-9.9,4.6c-0.3,0,0-1.9,0.8-4.1
		c2-5.6,1.9-8.9-0.6-15.7c-1.3-3.5-2.4-10-2.9-17.2l-0.9-11.5l3.6-5.4L435.4,413.8z"/>
	<path id="path62" fill="#9370DB" d="M508.4,432.9l2.9,2.9l-3.4,2.1c-3.8,2.4-18.1,8.1-20.1,8.1c-1.6,0-5-10.1-3.9-11.3
		c0.5-0.5,4.2-1.9,8.2-3.3C500.8,428.6,504.4,428.9,508.4,432.9z"/>
	<path id="path64" fill="#8B008B" d="M346.3,478c3.4,0,3.9,0.3,5.3,3.7c1.5,3.4,1.4,4.2-0.2,9.5c-0.9,3.2-2.2,6.2-2.8,6.7
		s-8.1,4.5-16.6,9l-15.6,8.1l-3.4-1.8c-1.8-0.9-3.7-2.6-4.1-3.8c-0.8-2.3,3.9-15.4,6.6-18.4c2.2-2.5,12.6-7.9,20.5-10.6
		C339.6,479.1,344.2,478,346.3,478z"/>
	<path id="path66" fill="#8B008B" d="M346.3,504c0.5,0,0.6,0.8,0.3,1.7c-0.3,1-1.4,5.6-2.6,10.3c-1.1,4.7-3.7,14.4-5.7,21.6
		l-3.5,13.1l-14.7,0.6c-8.8,0.3-16.6,1.2-19.6,2.1c-2.7,0.8-5.1,1.3-5.4,1.1c-1.2-1.3,7.8-36.1,10.6-40.8c0.3-0.4,1.6,0.4,3,1.8
		c4.4,4.3,8.8,3.5,23.8-4.5C339.7,507.2,345.9,504,346.3,504z"/>
	<path id="path68" fill="#BDB76B" d="M513.3,582.3c0.5,0.1,4.4,10.8,8.7,23.7c4.4,12.9,11.8,33.2,16.4,45l8.6,21.5l-4.4,4
		c-8.1,7.6-19,11.9-35.1,14c-3.4,0.4-5.5,0.2-6.7-0.7c-4.1-3.2-18.1-40.8-20.4-54.5c-1.5-9.6-3.6-16.9-7.2-26L471,604l5.3-3.9
		c8.8-6.6,15.1-10,25.9-14.1C507.8,583.8,512.9,582.2,513.3,582.3z"/>
	<path id="path70" fill="#BDB76B" d="M339.8,585.5c5.6,0.6,21.2,6,21.2,7.5c0,0.5-1.8,4.2-4,8.3c-3.3,6.1-4.7,10.5-7.5,23.8
		c-1.9,9-5.2,22.5-7.4,29.9c-4.6,15.2-14.1,43.1-15.1,44.3c-0.3,0.4-2.2-0.4-4-1.8c-7.9-5.8-25.9-8.8-39.9-6.6c-4,0.6-7.5,1-7.7,0.8
		c-0.6-0.6,11.5-41.5,16-53.9c2.5-6.8,6.3-16.3,8.6-21.1c2.2-4.8,4-9.6,4-10.7c0-1.6,3.1-11.7,6.5-20.8
		C311,583.9,324.1,584.1,339.8,585.5z"/>
	<path id="path72" fill="#4682B4" d="M552,685.3c1,2.8,4.1,10.6,6.9,17.2s5.1,12,5.1,12.1s-2.2,0.4-5,0.6c-3.3,0.3-6.1,1.4-8.5,3.2
		c-4.5,3.4-6.2,6.1-9,13.9l-2.3,6.2l-6.1,0.3c-10.8,0.5-15.7-3.9-18-16c-0.5-3.1-3.4-10.7-6.4-16.8s-5.1-11.2-4.8-11.4
		c0.3-0.2,3.9-0.7,7.9-1c13-1.3,22.8-5.1,31.7-12.5C549,676.5,548.8,676.4,552,685.3z"/>
	<path id="path74" fill="#4682B4" d="M306.2,695.1c5.8,1.2,18.8,7.7,18.8,9.4c0,0.5-1.4,3.9-3.1,7.5c-4.1,8.6-7.8,21.6-8.5,30.1
		l-0.7,6.9h-5.6h-5.7l-1.7-4.8c-2-5.3-6.6-10.5-11-12.1c-6.5-2.5-16.4-1-22.4,3.4c-2.1,1.6-2.1,1.6,0.2-4.2c2.5-6.1,5.8-20,7-29.1
		c0.4-2.9,1.3-5.6,1.9-5.8c0.7-0.3,4.2-0.9,7.7-1.3C292.6,693.9,300.2,693.9,306.2,695.1z"/>
	<path id="path76" fill="#1E90FF" d="M569,720.3c2.8,1.4,5.9,8.4,5.9,13.4c0.1,2.3-1.1,4.9-4.1,8.9c-4,5.3-4.4,5.6-7.9,5.1
		c-2-0.3-5.5-1.9-7.9-3.6c-2.3-1.7-5.8-3.3-7.6-3.7c-1.9-0.3-3.6-1-3.9-1.4c-0.7-1.1,4.1-11.8,6.3-14.4c0.9-1,3.1-2.7,4.7-3.7
		C558,718.7,565.3,718.4,569,720.3z"/>
	<path id="path78" fill="#483D8B" d="M512.7,732.5l3.7,4.2c4.7,5.4,8.8,6.7,18.9,6c13.2-0.9,21,3.3,25.7,13.7
		c2,4.5,4.4,7.7,8.6,11.4c4.3,3.9,5.6,5.6,4.9,6.5c-6.9,9.2-11.5,20.1-11.5,27.3c0,2.1-0.6,3.7-1.5,4c-2.4,1-37.6-18.4-43.8-24.1
		c-4.3-4-4.6-6.7-2.1-18c2.7-11.8,2.7-12.2,0.5-16.8c-1.1-2.3-2.4-6.5-2.7-9.2L512.7,732.5z"/>
	<path id="path80" fill="#00BFFF" d="M281.2,735c5.1,0,6.2,0.4,9.4,3.2c3.4,3,7.3,9.6,7.4,12.5c0,0.7-1.8,2.2-4,3.3
		s-5.4,3.3-7.2,4.9c-2.9,2.5-12.7,7.6-13.3,6.9c-0.1-0.2-1-1.7-1.9-3.5s-3.2-4.4-5.1-5.9c-3.1-2.3-3.5-3.2-3.5-7
		c0-3.5,0.6-5.1,3.2-8c1.8-2,4.6-4.3,6.3-5C274.1,735.7,278.1,735.1,281.2,735z"/>
	<path id="path82" fill="#1E90FF" d="M250.4,743c0.2,0,2.5,0.9,5.1,2.1l4.8,2.1l-0.5,8.2c-1.1,16.3-8.3,24.5-21.8,24.6h-3.4l5.7-5.8
		c7.2-7.3,9.7-13.3,9.7-23.7C250,746.4,250.2,743,250.4,743z"/>
	<path id="path84" fill="#1E90FF" d="M575.9,752.1c4.4,0.9,6.4,2.1,11.5,6.7c3.3,3,6.3,5.6,6.5,5.8c0.1,0.1-1.7,0.8-4,1.4
		c-2.4,0.7-6,2.1-8.1,3.2l-3.6,2.1l-5.7-4.9c-3.9-3.3-6.5-6.6-8.1-10.2c-1.3-2.9-2.4-5.5-2.4-5.8C562,749.8,566.9,750.4,575.9,752.1
		z"/>
	<path id="path86" fill="#483D8B" d="M313.9,755.6c1.7,1.4,3.1,3.5,3.1,4.6s-1.8,4.6-4.1,7.8l-4,5.8l-0.8,18.5
		c-0.5,10.2-1.2,19-1.6,19.6c-0.3,0.6-3.8,2.7-7.6,4.6c-7.6,3.9-7.4,4-8.3-4c-0.9-7.3-5.8-16.6-11.6-21.8l-5-4.5l3.5-3.8
		c3.4-3.7,4.3-5.6,6.5-14.1c1.1-4.5,4-7.3,12.9-12.5C303.2,752.1,309.7,752,313.9,755.6z"/>
	<path id="path88" fill="#1E90FF" d="M279.6,767c2.8,0-1.6,10.8-6,14.9c-2.6,2.4-2.9,2.4-10.1-0.3c-2.2-0.8-5.6-1.5-7.5-1.6
		c-4.8,0-3.3-1.1,10.6-7.5C273.1,769.5,279,767,279.6,767z"/>
	<path id="path90" fill="#483D8B" d="M599.6,768.1c5.1-0.1,6.7,0.3,10.6,2.9c12,8,21.5,22.2,22.5,34l0.6,6l-4.4,4.4
		c-2.5,2.5-6.1,4.9-8.4,5.6c-6.1,1.8-27.6,2.5-30.6,1c-9.8-5-24.2-13.6-24.6-14.7c-0.8-2,2.4-15.2,5.1-20.9
		c4.2-9.1,11.4-15.3,20.1-17.5C592.2,768.5,596.2,768.2,599.6,768.1z"/>
	<path id="path92" fill="#483D8B" d="M254.8,783c18.8,3.1,27.8,11.2,32.3,29c1.8,6.9,1.9,8.4,0.8,9.5c-2.5,2.3-22.2,9.3-32.1,11.4
		c-14.1,3-34.6,2.7-38-0.7c-1.8-1.8-3.9-11.8-4.4-21.7c-0.7-11.8-0.6-12.1,10.8-21.2c6-4.8,7.9-5.7,12.7-6.3
		C245.3,781.9,247.9,781.9,254.8,783z"/>
</g>
</svg>
