<?xml version="1.0" encoding="utf-8"?>
<!-- Generator: Adobe Illustrator 21.0.0, SVG Export Plug-In . SVG Version: 6.00 Build 0)  -->
<svg version="1.1" id="图层_1" xmlns="http://www.w3.org/2000/svg" xmlns:xlink="http://www.w3.org/1999/xlink" x="0px" y="0px"
	 viewBox="0 0 850 850" style="enable-background:new 0 0 850 850;" xml:space="preserve">
<g transform="translate(0.000000,0.000000) scale(1.00000,1.00000)">
	<path d="M446.5,6.1c2.6,3.2,2.7,3.2,5.5,1.6c6.2-3.7,11.7-1.1,15.5,7.3l1.8,4h7c6,0,7.5,0.4,10.4,2.6c5.2,3.9,7.7,9.7,7.8,17.7
		c0,5.6,0.3,6.6,1.5,6.1c0.8-0.4,4.8-0.9,8.8-1.2c16-1.1,26.6,7.9,26.6,22.8c0,8.5-1.4,12.4-8,21.6c-3,4.1-5.4,7.7-5.4,8
		c0,0.2,1,0.4,2.3,0.4c3.3,0,11.9,4.4,14.8,7.6c5.9,6.3,7.9,10.5,7.9,15.9c0,2.8-0.7,7.4-1.5,10.2c-1.4,4.7-2.9,7-9.9,15.8
		c-2.8,3.5-2.9,3.7-1.4,6.9c1.9,3.9,7.6,7,11.3,6c1.4-0.4,2.5-0.2,2.5,0.4c0,2.1-10.3,6.9-18.3,8.7c-1.6,0.3-5,2.6-7.7,5.1
		c-4.2,3.9-6.2,5-15.9,8c-1.8,0.6,4.8,7.5,13.1,14c5.6,4.3,20.9,12.4,23.6,12.4c2.4,0,0.1,2.2-4.4,4.2c-2.4,1-4.4,2.1-4.4,2.3
		s2.1,1.6,4.6,3.1l4.6,2.7l-4,3.4c-2.2,1.8-5.3,5.4-6.9,8c-1.7,2.7-6,9.6-9.6,15.4c-3.7,5.8-6.7,11.2-6.7,12
		c0,4.6,6.7,18.5,18.4,37.9c8.1,13.5,8.1,13.5,8.5,21.5l0.3,7.9l8.2,9c4.4,4.9,12,13.2,16.8,18.3c4.7,5.2,8.9,10.6,9.3,12.1
		c0.4,1.5,2.3,4.9,4.2,7.6c3.2,4.4,3.5,5.4,3,9.7c-0.7,5.3-1.3,5.1,8.8,2.3c5.8-1.7,23-3.5,25.1-2.7c2.4,0.9,1.2,4.5-2.1,6.4
		c-1.6,1-6.3,2.4-10.4,3.3c-8.1,1.6-10.7,3.1-7.9,4.7c4.5,2.5,7.9,6.6,11.7,13.8c2.2,4.3,4.1,8.6,4.1,9.5c0,2.2,5,6.5,14.3,12.3
		c4.5,2.7,13.2,8.1,19.2,11.8c6.1,3.8,13.5,8,16.5,9.3c3,1.4,7.2,3.6,9.4,5l3.9,2.4l-0.7,9c-0.6,7.8-1.6,11.6-5.1,20.2
		c-0.7,1.5,2.7,5.2,18.3,20.5c12.3,12.1,19.3,19.7,19.8,21.5c0.9,3.9-2.8,7.5-13.7,13.1c-4.9,2.5-9.1,5-9.4,5.4
		c-0.7,1.2,7.3,7.9,19,16.2c20,14.1,35.2,27.7,38.5,34.4c2,4.1,2.2,5.8,1.8,17.3c-0.3,11.8-0.5,13.2-3.5,19.3
		c-5.1,10.9-13.1,21.8-22.7,31.3c-10.4,10.1-17,15-31.1,23.1c-21.3,12.1-30.9,20.6-42.9,37.8c-13.6,19.4-20.1,25.9-33,32.8
		c-5.7,3.1-6.6,3.2-22,4c-14.1,0.7-17.2,1.2-25,3.8c-15.8,5.5-23.9,11.7-33.6,26.1c-3.1,4.7-7.2,10-9.1,11.8
		c-7,6.9-17.1,10.3-38.9,13.1c-9.1,1.2-17.1,2.4-17.7,2.6c-0.7,0.2-1.3,1.7-1.3,3.2c0,9.5-6.6,17.9-16.2,20.7
		c-9,2.6-10.2,2.3-16.6-4.2c-3.1-3.2-6.4-6.9-7.3-8.2c-1.5-2.3-1.6-2.3-8-0.9c-9.9,2.2-34.2,1.7-45-0.9c-16-3.9-24.8-4.5-47.6-3
		c-27.6,1.7-47.8,1.6-57.3-0.5c-17.1-3.6-38.5-15.7-54.5-30.8c-10.7-10-11.2-10.3-25.6-15c-6.8-2.2-19.1-7.3-27.4-11.4
		c-15.8-7.8-27.9-11.9-40.8-13.7c-4.2-0.6-7.7-1.6-7.7-2.2c0-3.4,10.4-26,16.9-36.7c2.2-3.7,11.5-17.1,20.6-29.9
		c9.2-12.8,16.5-23.3,16.3-23.5c-8.1-6.6-14.8-12.9-14.8-14c0-6.9,30.3-70.5,46.8-98.5c5.1-8.4,9.2-15.7,9.2-16.1
		c0-0.4-1.1-1-2.5-1.3c-3.7-0.9-9.2-6.3-10.5-10.2c-1-3.1-0.7-4.5,3.1-14.7c2.3-6.1,6-14.8,8.1-19.1l4-7.9l-6.9-6.9
		c-3.7-3.9-9.4-8.8-12.6-11c-3.2-2.2-5.7-4.3-5.5-4.6c0.3-0.7,19.2-18.5,33.2-31.3l6.1-5.6l-6.1-5.9c-5.4-5.2-16-12.2-16.8-11.2
		c-0.2,0.1-1.8,3.2-3.6,6.8c-4.4,8.8-5.8,9.7-8.6,5.5c-1.6-2.4-1.5-2.9,0.5-9c2.5-7.7,2.6-10.8,0.6-12.5c-3.5-2.9-21.2,4-36.5,14.2
		c-6.6,4.4-12.5,7.6-13.1,7.3c-0.6-0.4-0.9-2.3-0.7-4.1c0.4-3.4,0.4-3.4-2.9-2.8c-4.6,0.9-5.1-1.4-1.7-7.5c2.8-5,2.8-5,0.9-7.1
		l-2-2.2l5-4.5c5.7-5.1,12.5-8.7,23.9-12.9c4.3-1.6,8.1-3.5,8.3-4.2c0.3-0.7-0.2-4-1-7.4c-1.1-4.4-1.3-6.7-0.5-8.1
		c0.5-1.1,5.6-4.1,11.1-6.7c7-3.3,10.5-5.6,11.2-7.2c0.6-1.3,3.8-3.9,7.3-5.8s14.7-8.5,25-14.6c18.4-11,18.7-11.2,20-15.5
		c3.9-13.5,8.5-19,28.2-34.6c5.8-4.6,12.2-9.9,14.3-11.9l3.8-3.6l-3.8-3.3c-3.6-3.1-3.7-3.4-2.6-6.4c0.9-2.5,0.8-3.7-0.4-6.2
		c-0.8-1.7-1.3-4.4-1-6.2c0.3-2.1-0.3-4.8-1.9-7.9c-5.5-10.9-5.3-21.3,0.4-24.1c1.5-0.8,6.9-2.7,12-4.2c5-1.6,9.2-3.2,9.2-3.6
		c0-1.9-2.1-1.8-5.5,0.2l-3.6,2.2l-5.1-2.4c-4.5-2.1-6.6-2.4-17.2-2.4c-11.5,0-12.4,0.2-18.8,3.2c-3.7,1.7-9.7,5.4-13.4,8.3
		l-6.8,5.1l-3.2-3.5c-1.7-1.9-4.5-4.1-6.3-5c-1.7-0.9-3.1-2-3.1-2.4c0-1.6,17.8-11.8,24.4-14c9.9-3.2,21.3-4.4,31.6-3.2
		c4.7,0.5,10.1,0.6,12,0.2c3.3-0.7,3.5-1.1,3.8-5.1c0.3-3.9,0.1-4.3-1.5-3.5c-3.4,1.7-13.6,0.9-19.6-1.5c-11-4.3-14.4-9.7-13.4-21.2
		c0.5-6.2,2.3-10.2,6.7-15.2l2.9-3.4l-5.4-2.2c-9.6-4-13.6-10.8-13.6-23.1c-0.1-10.4,5-18.6,15.9-25.7c2.8-1.8,5.2-3.9,5.2-4.7
		c0-0.7,1.1-2.3,2.4-3.5c1.4-1.3,2.6-3.9,3-6.3c1.9-11.8,12.4-19.4,24.9-18.1l4.7,0.6v-3.5c0-4.3,4.7-11.8,7.3-11.8
		c1.6,0,1.7,0.3,0.7,1.5c-1.4,1.7-0.6,6.1,1.9,9.3l1.7,2.4l2.6-4C315.3,41.6,330,29,332.3,29c0.3,0,1,1.4,1.6,3.1l1.1,3.2l5.2-5
		c10.6-9.9,20.3-15.1,33.1-17.7c20.2-4.2,42.5,0.4,54.9,11.3l4.5,4l2.4-3.2c5.8-7.5,6.1-10.5,2.5-18.4c-1.3-2.8-2.2-5.4-1.8-5.7
		C437.4-1,442.8,1.8,446.5,6.1z M458.5,9.3c-4.8-0.6-19.7,13.6-25,23.8c-2.3,4.4-2.3,4.6-0.4,5.7c1,0.7,2.1,2.3,2.5,3.7
		c0.3,1.4,0.9,2.5,1.4,2.5c2.4,0,13.4-4.7,21.6-9.2l9.5-5.3l-0.5-4c-0.2-2.1-2-6.9-3.8-10.5C461.6,11.6,459.8,9.4,458.5,9.3z
		 M387,14.6c-8.4-0.6-10.3-0.3-16,1.7c-10.5,3.8-13.6,5.3-19.7,9.5c-9.1,6.2-9.3,7.4-0.4,3.6c11-4.8,21.9-6.7,35.5-6.2
		c10.7,0.4,11.4,0.6,19.2,4.5c4.4,2.3,10.2,5.8,12.8,7.8c5.8,4.4,9,4.2,11.1-0.8c1.3-3.1,1.2-3.3-1.8-6.5
		c-4.4-4.6-17.8-11-25.2-12.2C399.2,15.6,392.2,14.9,387,14.6z M475.9,22c-4.3,0-4.9,0.3-4.9,2.1c0,1.1,0.5,3,1.1,4.2
		c1,1.8,0.8,2.3-0.9,3.5c-2.2,1.4-2.1,1.4,1,3.6c5,3.4,7.2,7,7.2,12.2c0.1,2.8-0.4,4.9-1.1,5.1c-0.8,0.3-1-0.6-0.6-3
		c0.5-3,0-4-3.9-8.1c-4.9-5.1-7.7-5.7-13-3l-3.2,1.6l4.5,2.2c5.6,2.7,10.1,9.1,10.7,15.6c0.3,2.9,0,5-0.7,5.4
		c-0.6,0.4-1.1,0-1.1-1.1c0-7.4-6.5-16.6-13-18.3c-3.3-0.9-5.2-0.6-13.2,2c-10.6,3.3-11.7,4.3-19.6,16.3c-6.6,10-6.7,14.4-0.4,21
		c4.2,4.5,7,5.4,16.7,5.7c5,0.1,10.5,0.3,12.4,0.4c2.9,0.1,3.7-0.4,5.3-3.4c6.8-12.3,11.2-19,12.3-19c2,0,13.7-13.1,16.7-18.7
		c4-7.3,4.4-11.8,1.6-17.3c-1.3-2.5-3.8-5.5-5.7-6.7C481.7,22.7,479.2,22,475.9,22z M369.5,27c-12.3,1.8-30,11.4-41.2,22.3
		c-6.6,6.3-4.3,5.6,3.9-1.3c13.2-11.2,28.4-17,44.3-17c8.2,0,10.6,0.4,18.8,3.4c5.2,1.9,10.3,4,11.4,4.7c1.5,0.9,3.2,1,6.3,0.3
		l4.2-0.9l-8.9-5.1c-4.8-2.8-10.3-5.6-12.2-6.3C392.4,25.9,377.4,25.8,369.5,27z M338,47.5c-9.7,6.4-21.9,19.8-26.9,29.4
		c-2.2,4.3-4.7,8.4-5.6,9.1c-1.4,1.2-4.8,1-8.7-0.5c-2.8-1.1-2.2,1.9,1.1,5.4c2,2.2,2.7,3.8,2.3,5.3c-0.3,1.3-0.1,1.9,0.5,1.5
		s1.3,1.2,1.7,4.1c1.1,7.8,5.2,11.2,13.5,11.2h5.5l-3.6-3.3c-3.6-3.2-5.4-8.2-4.6-12.3c0.5-3,2.4-2.6,2.6,0.7
		c0.3,3.6,1.6,6.5,4.5,9.6c2.5,2.8,4.2,3,2.5,0.4c-0.9-1.5-0.8-3.6,0.7-10c2.4-10.4,4.5-12.7,4.5-4.8c0,3.6,0.5,5.9,1.5,6.7
		c1.3,1.1,1.5,0.8,1.5-1.4c0-3.6,1.7-6.6,3.6-6.6c1.2,0,1.4,0.5,0.8,1.7c-1.6,3.8-1.6,9,0,9.6c1.2,0.5,1.4,0.1,0.9-2.3
		c-0.7-3.8,1.8-7.7,5.5-8.6c1.5-0.4,4.2-2.1,6-3.8c2.7-2.5,4.2-3.1,7.7-3.1c5.3,0,8.5,2.5,8.6,6.9l0.1,3.1l1-3.2
		c0.9-2.6,0.7-3.7-0.7-5.9c-0.9-1.4-2.6-2.9-3.6-3.1c-2.4-0.7-2.5-2.3,0-2.3c3.5,0,7.1,3.8,7.1,7.7c0,3,0.2,3.4,1.5,2.3
		c0.9-0.8,1.5-2.9,1.5-5.5c0-3.7-0.5-4.7-3.2-6.9c-3.1-2.4-3.2-2.6-1-2.6c1.3,0,3.4,1.2,4.9,2.6c2.2,2.3,2.5,3.1,2,7.7l-0.5,5.2
		l3.9-4.5c2.2-2.5,3.9-5.1,3.9-5.9c0-1.5-7-8.7-11-11.3c-5-3.2-1-2.8,5.8,0.6c11.1,5.6,13.9,10.4,10.7,18.1
		c-0.9,1.9-0.8,1.9,1.5,0.4c9-5.9,8.5-15.6-1.1-25.1c-6.6-6.5-8.2-10.3-5.3-12.6c2.5-1.9,13.4-6.8,18.4-8.3c2.2-0.7,4-1.6,4-2
		c0-0.5-2.6-1.6-5.7-2.5c-3.2-0.9-8-2.2-10.7-3C374,31.5,355,36.2,338,47.5z M416.5,42.6c-2-0.5-4.1,0-14.5,3c-8.2,2.3-19,7.5-19,9
		c0,1.2,19.3,22.4,21,23.2c0.3,0.1,3.8-2.5,7.7-5.7c7.6-6.4,17.3-18.4,17.3-21.4c0-2.6-5.4-7.7-8.2-7.7
		C419.5,43,417.6,42.8,416.5,42.6z M504.5,47.5c-0.5,0.2-3.1,0.6-5.7,1c-2.9,0.4-6,1.6-7.8,3.1c-3.3,2.8-4.1,5.1-1.2,3.5
		c6.8-3.6,19.4-1.6,24.9,4.1c3.9,4,5,6.8,5.9,14.6c0.7,6.4-0.5,11.5-3.8,16.7c-1.5,2.4-1.2,2.2,1.6-0.9c7.3-8,10.9-19.6,9.2-29
		c-0.8-4-4.6-9-8.5-11C516.5,48.2,506.4,46.7,504.5,47.5z M477.1,66c-7.9,7.1-8,7.3-9.1,15.5c-0.5,3.3-1.2,7-1.5,8.2
		c-0.6,1.8,0.1,2.5,5.3,4.8c7.5,3.4,10.3,6.3,14.1,14.7c2,4.3,3.8,6.9,5.2,7.3c3.7,1.2,9.8,7.5,10.9,11.3c2.6,9.6-0.1,21.4-6.4,27.1
		c-3.9,3.7-4,2-0.2-4.4c5.6-9.2,5.7-16.5,0.4-25.3c-2.4-4-8.4-8.2-11.6-8.2c-1.7,0-2.2-0.4-1.9-1.5c0.4-0.9-0.9-2.5-3.5-4.4
		c-6-4.4-17-9.8-17.4-8.5c-1.8,4.8-9.2,15.2-15.1,21.2c-3.9,4-6.3,7-5.2,6.7c1-0.4,1.9-0.2,1.9,0.4c0,0.5-0.9,1.2-1.9,1.6
		c-3.3,1-8.8,8-11.1,14.1c-3.5,9.3-2,17.5,4.6,25.3c2.7,3.3,9.1,7.1,11.9,7.1c2.4,0,11.5-7.1,15.7-12.3l3.8-4.5l-2.5-0.6
		c-4.4-1.1-2.7-2.3,3.3-2.3c4,0,7.4-0.8,11.5-2.6c6.9-3.2,8.9-3.4,8.5-0.8c-0.3,2,5.1,14.1,6.4,14.1c0.4,0,1.7-1.4,3-3
		c1.2-1.7,2.5-3,3-3c1.6,0,0.8,2.9-1.7,5.8c-2.6,3.2-3.1,4.7-1.6,5.6c1.1,0.7,6.3-3.5,9.1-7.4l2-2.8l-2-3.5l-2.1-3.5l3.4-4.9
		c5.2-7.1,6.8-11.9,6.9-19.4c0-8.4-2.6-13.8-8.7-18.1c-4.8-3.4-5.2-5.7-0.6-3.3c15.6,8,17.8,24.9,5.5,41c-2.9,3.9-2.7,4.2,1.5,2
		c4.4-2.2,11.8-11,13.5-16.2c2.1-6,2.1-15.5,0-19.8c-2.7-5.7-12.5-11.9-20.6-13.1c-7.4-1-7.5-1.3-2.3-4.4c5.5-3.1,9.3-7.4,13.1-14.9
		c3.4-6.5,4-11.8,2-17.8c-1.9-5.7-5.4-9.5-10.8-11.7C497,53.9,487.6,56.7,477.1,66z M282.5,71.9c-5.1,1.3-15.3,6.2-15.9,7.8
		c-1,2.6,4.7,24.3,6.3,24.3c1.9,0,12-4.6,16.9-7.7c5.1-3.2,5.2-3.4,3.7-5.5c-1.6-2.4-2-11.4-0.6-13.7c0.7-1.1,1.3-0.7,2.5,1.7
		c1.8,3.5,4.3,5.2,7.6,5.2c2,0,2-0.1,0.6-2.2c-0.9-1.2-1.6-3.9-1.6-5.9c0-3-0.4-3.8-2.2-4.3C296.8,70.8,286.3,71,282.5,71.9z
		 M257.8,87.7c-10.6,8.1-14.9,19.3-11.7,30.6c1.4,5.2,7.1,11.2,12.5,13.3c4.6,1.7,7.4,1,3.9-1c-1.1-0.6-3.6-2.7-5.6-4.6
		c-4.9-4.7-6.6-10.6-5-17.5c1.3-5.7,6.1-13.6,9.7-16c1.8-1.1,2.4-2.3,2.2-4.5C263.5,84.3,262.3,84.2,257.8,87.7z M350,91
		c-1.9,1.6-4.4,3-5.6,3c-4.7,0-6.5,5.3-3.9,11.2c1.1,2.8-3.2,2.3-9.9-1c-5.5-2.8-5.6-2.8-5.6-0.8c0,1.2,0.7,3.2,1.6,4.5
		c1.5,2.1,2.1,2.2,8.6,1.6c5.7-0.6,7-0.5,6.6,0.6c-0.3,0.8-1.5,1.5-2.9,1.7c-7.3,0.9-12.9,2.5-14.9,4.4c-1.6,1.5-2.5,1.8-2.8,1
		c-0.4-1.3-3.2-1.7-3.2-0.5c0,0.4,4.9,8.1,10.9,17.2s12.4,19.5,14.2,23c3.9,7.3,5.9,9,18.8,16.2c7.3,4,11.2,5.4,17.7,6.5l8.3,1.5
		l7.7-4.3c4.3-2.4,10.5-6.9,13.9-10c6.2-5.7,6.2-5.8,5.7-10.6c-0.2-2.6,0.1-6.5,0.7-8.7c1-3.6,0.8-4.2-1.4-6.5
		c-3.1-3.2-4-7.7-2.2-11c1.2-2.2,1-3-1-6.9c-1.3-2.5-2.3-6.1-2.3-8.5c0-4.1,3.8-13.7,5.9-15s1.1-2.5-2.8-3.6
		c-2.5-0.7-5.1-2.4-6.9-4.6l-2.9-3.5l-4.3,2.5c-3.8,2.1-4,2.5-2.1,3.1c4.4,1.4,1.7,2-9.2,2.2c-6.9,0.1-13.3,0.8-16.7,1.8
		c-9.3,2.7-9.5,2.7-9.2-2.3c0.2-2.4-0.2-5-0.8-5.8C358,87.1,353.8,87.8,350,91z M260.6,97.3c-3.2,4.1-5.6,10.8-5.6,15.4
		c0,5.8,3.8,13.1,8.2,15.4c1.3,0.7,1.2,0-0.7-3.3c-4.1-7.1-3-19.3,2.1-24.9c1-1.1,1.3-2.6,0.9-3.8C264.6,93.2,263.5,93.5,260.6,97.3
		z M297,101.3l-0.5-5.2l-3.9,3c-5.5,4-6.8,6.3-13.2,22.9c-3.1,8-6.3,15.3-7.2,16.2c-3.2,3.7,1.3,14.3,7.7,18.1
		c4.4,2.6,4.5,2.1,0.2-1.9c-2.2-1.9-4.5-5.1-5.2-7.1c-1.4-4.4-0.6-11,1.6-13.2c1.5-1.5,1.6-1.3,1,3.2c-0.8,5.5,1.2,12.3,4.7,15.3
		c2.1,1.9,2.1,1.9,1.3-0.1c-1.5-3.4-1.8-14.4-0.5-16c2-2.4,2.7-0.9,2.2,4.8c-0.5,6.7,1.7,11.8,6.3,14.7c4.9,3.1,7.9,2.6,11.2-1.7
		c3.5-4.6,4-12.8,0.9-16.2c-2.8-3.1-1-3.9,2-0.9c3.7,3.7,4.4,10.5,1.5,15.4c-3.1,5.2-2,5.2,2.3,0c3-3.7,3.6-5.2,3.6-9.1
		c0-6.6,2.4-5.4,3,1.6l0.5,5.4l2.3-2.9c1.2-1.6,2.2-3.4,2.2-4.1c0-0.6-3.5-4.1-7.9-7.8c-8.6-7.2-11.7-12-12.7-20.2
		c-0.4-2.8-1.2-5.9-1.8-7C298,107.4,297.3,104.2,297,101.3z M441.1,97.3c-8.1-0.5-8.7-0.4-10.8,1.8c-6.2,6.7-5.6,15.8,1.6,24.9
		c2,2.5,2,2.5,3.9,0.5c1.1-1.1,5.4-7.1,9.6-13.4c6.8-10.1,7.5-11.6,6-12.4C450.5,98.2,445.8,97.5,441.1,97.3z M509.8,101.1
		c-2.7,1.5-2.2,2.5,2.5,4.3c16.2,6.1,22.4,25.4,13,40.1c-2.5,3.9-2.4,3.9,3.1-1.5c3.1-3,6.8-7.8,8.2-10.6c2.6-5.3,4.1-13.6,3.1-17.6
		c-0.9-3.5-8.6-10.8-14.2-13.4C520.2,99.9,512.8,99.3,509.8,101.1z M266.9,101c-0.4,0-1.4,1.8-2.3,4c-2.2,5.6-2,13.5,0.5,19l2.1,4.5
		l1.2-5.5c0.7-3,2.4-7.6,3.9-10.1c3.2-5.5,3.3-5.9,0.7-5.9c-1.3,0-2.8-1.2-3.8-3C268.3,102.4,267.2,101,266.9,101z M417,129.6
		c-1.3-1-1.3-0.9-0.1,0.6c0.7,1,2.3,1.7,3.5,1.7c2-0.1,2-0.2,0.1-0.6C419.4,131,417.8,130.3,417,129.6z M437.8,131.1
		c-0.2,0.1-2,0.5-4.1,0.9c-7.2,1.4-15.1,11.8-15.1,20c0,4.8,3.4,12.1,7,15.1c1.5,1.3,1.6,1.2,0.8-1.1c-0.5-1.4-0.9-5.7-0.9-9.5
		c0-8.4,3.5-16.8,9.1-22.1C436.5,132.5,438,131.1,437.8,131.1z M268,134c-1.8,0-9.7,8.6-11.8,12.7c-4.1,8-3.4,13.8,2.7,21.3
		c2.6,3.3,3.3,2.3,1.6-2.5c-0.8-2.2-1.4-5.2-1.5-6.6c0-3.4,2.8-11.5,4.6-13c2.3-1.9,2.7-0.4,0.8,3.3c-1,1.9-1.8,5.7-1.8,8.9
		c-0.1,7.1,3.3,12.7,9.6,15.8c4.7,2.2,8.8,2.8,8.8,1.1c0-0.6-0.7-1-1.5-1s-3-1.4-5-3.1c-5.1-4.6-5.7-7.6-5.5-30.2
		C269,136.7,268.6,134,268,134z M323,147c-1.4,3.3-6.4,8.1-11,10.5c-6.9,3.6-2.8,5.3,18,7.6c5.8,0.7,11.1,1.7,11.8,2.2
		c0.8,0.7,1.2,2.8,1,6.1l-0.3,5.1l-6-0.2c-3.4-0.1-11.5-1.8-18.5-3.8c-6.9-2-13.3-3.7-14.3-3.8c-1.4-0.2-2.6,1.5-4.8,6.8
		c-1.6,3.8-2.9,8.1-2.7,9.5c0.4,3.6,5.9,6.2,11.8,5.5c2.5-0.4,6.1-0.8,8-1c1.9-0.1,6.9-1.8,11-3.7c4.2-1.9,10.5-4.5,14.2-5.7
		c4.8-1.6,6.8-2.8,7.7-4.7c1.8-4,1.3-6.6-2-10c-2.7-2.8-3.6-3.1-6.9-2.7c-4.4,0.6-9.8-0.9-13.4-3.8c-3.9-3-3.3-4.2,1.7-3.5
		c5.9,0.8,7.6-0.4,5.2-4.1c-1-1.5-2.7-3.9-3.9-5.1C325.8,144,324.4,143.7,323,147z M276.6,157.9l-4.9-3l0.6,4.1
		c0.9,6.8,8.1,14,14.1,14c1.3,0,5.6-6.1,5.6-8c0-1.4-5.5-4-8.3-4C282.5,161,279.2,159.6,276.6,157.9z M514.1,157.1
		c-3.6,0.8-7.1,2.5-6.8,3.4c0.5,1.5,7.1,4.5,11.4,5.1l3.8,0.6l-3.2-2.1c-1.8-1.1-3.5-3.2-3.9-4.6
		C515.1,158.1,514.5,157.1,514.1,157.1z M481.6,159.8c-1.6,2.6,9.5,30,15.7,38.6c2.3,3.3,8,9.3,12.5,13.4l8.4,7.4l3.1-3
		c1.8-1.6,4.9-3.9,7.1-4.9l3.9-2l-7.9-4.2c-16.7-9.1-28.8-21.4-36-36.8C484.4,159.7,482.9,157.8,481.6,159.8z M466.2,167
		c-3.5,5.1-7.7,8.9-17.5,15.4c-6.5,4.4-17.2,15.6-20.5,21.5l-2.2,3.9l3.5,2.2c1.9,1.2,4.5,3.5,5.8,5.2l2.4,3l3-6.3
		c1.7-3.5,8.7-13.9,15.7-23.1c14-18.6,16.6-22.5,16.6-25.1C473,160.4,469.5,162.1,466.2,167z M417,164c-0.3,0.1-3.5,2.9-7.2,6.4
		c-6.6,6.2-16.3,11.9-22.1,13.1c-2.1,0.4-2.7,1-2.3,2.1c1.6,4.1-10.6,10.4-20.1,10.4c-5.3,0-5.4,0.9-1,7.5l3.3,5l6.9-0.4
		c3.9-0.1,7.1-0.4,7.2-0.5c0.1,0-0.2-2-0.7-4.4c-1.1-6.4,0-10.3,3.8-12.5c2.8-1.7,3.7-1.7,8.6-0.6c4.7,1,6.4,0.9,11.6-0.5
		c6.5-1.9,9.3-1.5,12.7,1.6c3.1,2.8,3.7,6.9,1.9,11.3c-2.1,5-2,5.3,0.9,4.7c1.6-0.3,3.2-1.6,4.1-3.6c0.9-1.7,3.6-5.6,6-8.7l4.3-5.6
		l-3.1-2.9c-3.3-3.2-5.8-8.1-5.8-11.6c0-1.3-1.8-4-4.2-6.5C419.5,165.9,417.3,164,417,164z M345.3,184c-0.4,0.1-7.5,3-15.8,6.7
		c-8.2,3.6-20.3,8.5-26.8,10.8l-11.8,4.1l4,1.2c2.2,0.7,6,3.1,8.5,5.5c3.7,3.4,5.5,6.3,9.4,15.7c4,9.7,5.2,11.6,7.6,12.5
		c2.3,0.8,3.5,0.5,6.4-1.3c2.1-1.2,11.5-6,20.9-10.7l17.2-8.5l-0.6-3c-0.3-1.8,0-3.6,0.7-4.5c1-1.2,0.7-2.1-1.8-5
		c-2.9-3.2-5.2-8.8-5.2-12.6c0-2.5-3.8-6.8-8.1-8.9C347.8,184.9,345.7,184,345.3,184z M463.5,185c0,0-1.6,1.9-3.6,4.2
		c-9.3,11.4-17.8,25.1-19.4,31.5c-1.4,5.4-3.1,6.6-4.1,2.8c-1.2-5-2.4-0.4-2,7.9l0.4,7.9l4.9,4.9c7.6,7.7,10.5,7.6,21.6-1.3l6.6-5.3
		l-7.7-4.3c-8.7-4.9-16.1-11.8-14.4-13.5c0.8-0.8,2.6,0.3,6.2,3.4c5.9,5.2,27.8,17.8,30.9,17.8c2.2,0,9.1-7.8,16.1-18
		c2.2-3.2,4.9-6.5,6-7.3c2-1.4,1.9-1.6-3.7-7.4c-3.3-3.4-7.7-9.6-10.2-14.3c-3.8-7.2-4.6-8.1-6.5-7.5c-4.7,1.6-11.7,1.7-16.3,0.1
		C465.8,185.7,463.6,185,463.5,185z M263.2,188.1c-14.9,0.3-20.8,1.7-34.6,8.6l-8.8,4.4l2.8,3.2c1.6,1.8,3.2,3.6,3.6,4.1
		c0.3,0.4,3.4-1.5,6.8-4.3c11.2-9.4,20.3-12.7,32.7-11.8c8.4,0.6,9.6,0.1,6.7-2.7C271.2,188.4,269,188,263.2,188.1z M403.5,193.7
		c-3.3,1.2-4.9,1.2-9.1,0.2c-2.9-0.6-6.4-0.9-7.8-0.5c-2.2,0.5-2.6,1.2-2.6,4.2c0,5.3,2,12.1,4.1,14c1.7,1.5,2.1,1.5,6.2-0.5
		c5.3-2.6,6.4-2.6,10.4-0.1c3.1,1.8,3.3,1.9,4.2,0.2c0.7-1.4,4.1-16.8,4.1-18.8C413,191.5,407.3,192.3,403.5,193.7z M285.1,208.4
		c-5.2-0.6-6.1-0.4-8,1.5c-1.7,1.7-2.1,3.3-2.1,7.8c0,5.7,3.1,14.9,4.7,14c5.8-3.1,23.3-14.2,23.3-14.8c0-1.2-5.1-4.9-8.8-6.4
		C292.5,209.7,288.3,208.8,285.1,208.4z M397.5,212c-2.8,1.1-4.1,2.9-4.9,6.7c-0.8,3.7,0.9,11,3.1,13.5c3.5,4,8.5,1.2,10.4-5.6
		c1.2-4.5-1.2-13-4.1-14.6C399.9,210.9,400.1,210.9,397.5,212z M413.7,213.2c-4.1,1.8-4.6,2.4-4,4.2c0.4,1.1,0.7,4.2,0.6,6.8
		c-0.3,4.5-0.1,4.8,2.2,4.8c3,0,6.6,1.5,13.3,5.7l5.2,3.3v-7.4c0-4.1,0.4-8.6,1-10.1c1.2-3.1-0.7-6.6-4.6-8.3
		C423.7,210.5,419.1,210.8,413.7,213.2z M369.8,213.2c-3.4,1.2-3.4,2-0.7,5.8c1.8,2.4,2.1,3.6,1.5,7.2c-0.4,2.4-1,5.7-1.3,7.4
		c-0.3,1.8,0,4.2,0.7,5.4c1.1,2,1.7,2.1,5.8,1.5c5.9-0.9,11-3,13.9-5.7c2.1-1.9,2.1-2.2,0.7-5c-1-2-1.5-4.9-1.2-8.5
		c0.3-5.4,0.2-5.6-3.2-7.4C382.2,211.8,374.4,211.5,369.8,213.2z M509.8,217c-1.4,0-7,6.4-14.1,16.2c-4.7,6.4-9.5,11.9-10.7,12.3
		c-1.3,0.4-3.6-0.1-6.1-1.4c-6.6-3.5-9.9-2.9-17.1,3.1c-5.7,4.8-6.8,5.3-12.8,5.9c-6.1,0.7-16,4.4-16,6c0,0.3,0.7,1.2,1.5,1.9
		c2.4,2,1.7,4.3-2.1,6.8c-1.9,1.3-3.4,2.8-3.1,3.5c0.4,1.2,14,6.7,16.5,6.7c0.8,0,3.4-1.8,6-4l4.5-4l10.2,0.2
		c11.7,0.2,13.8-0.7,21.3-8.6c2.3-2.6,5-4.7,6-4.8c0.9,0,4.6-0.2,8.2-0.2l6.4-0.1l9.2-14.5c5-8,10.6-16.2,12.3-18.2l3.2-3.7l-3-1.5
		c-4.1-2.2-4.8-2.1-8.1,1.5l-2.8,3.1l-4.5-3.1C512.2,218.4,510,217,509.8,217z M304.9,220.3c-0.8-0.1-5.6,2.7-10.8,6.2
		c-9.3,6.3-9.3,6.3-6.8,7.7c3.2,1.6,8.9,9.1,14.4,18.7c4,7,4.3,7.3,5.1,5c0.6-1.3,3.7-4.6,7.1-7.2c3.3-2.7,6.1-5.2,6.1-5.6
		c0-0.4-1.2-1.4-2.6-2.1c-3.1-1.7-3.9-3.1-7.9-14C307.7,224.3,305.7,220.4,304.9,220.3z M364.2,223.2c-0.6,0.7-6.6,4-13.4,7.3
		c-14.1,6.9-13.7,6.6-12,7.2c2.9,1.1,7.4,5.9,9.7,10.2c4,7.9,12.5,14.5,12.5,9.6c0-0.8-0.6-1.2-1.3-0.9c-0.7,0.2-2.5-0.9-4.1-2.5
		c-4.2-4.4-3.3-6.9,4-11l6.2-3.5l0.6-6.1c0.3-3.3,0.7-7.1,0.8-8.4C367.5,222.4,365.8,221.3,364.2,223.2z M405.1,234.4
		c-1.7,2-7.9,3-9.7,1.5c-1.8-1.4-3.1-0.4-7.8,6c-3.9,5.2-5.1,8.9-4.2,12.5c0.8,3.2,3,3.9,7.3,2.1c4.9-2.1,7.6-1.9,13.1,0.8
		c5.5,2.7,10.2,2.5,10.2-0.3c0-2.3-4.6-21.6-5.5-23S406.5,232.7,405.1,234.4z M321.7,247.6l-8.3,7.6l5,5.3c2.8,2.8,6.3,6,7.8,6.9
		l2.7,1.8l8-6.2c8.6-6.7,13.3-7.8,6.9-1.7l-3.8,3.5l2.9,1c1.5,0.5,5.6,3.5,9,6.5c7.1,6.4,10.9,7.7,14.9,5.2c3.5-2.3,8.1-6.6,9.3-8.6
		c0.7-1.4,0.2-1.6-3.1-1.5c-2.6,0-4.9-0.7-6.9-2.1c-1.6-1.3-4.8-2.5-7.1-2.9c-5.5-0.9-8.3-3.3-13-11.4c-2.4-4.1-5.3-7.7-7.4-8.9
		C332.9,238.6,330.9,239.2,321.7,247.6z M363.5,244.6c-1,0.7-2.2,1.5-2.8,1.7c-1.2,0.4,5.5,14.8,7.7,16.6c1,0.8,2.9,1.1,5.3,0.6
		c3.3-0.5,4.5-0.1,8.1,2.4c4.9,3.6,6.9,3.8,15.4,1.1c7.9-2.5,11.2-2.5,16.7,0c5.5,2.6,6.2,2.5,13.2-0.6c5.7-2.6,7.5-4.4,4.4-4.4
		c-2.5,0-4.9-3.6-7.5-10.9c-1.3-3.9-2.7-7.1-3-7.1s-0.4,2-0.2,4.4c0.5,5.5-1.8,10.6-5.7,12.9c-3.9,2.3-6.4,2.1-11.9-0.8
		c-5.3-2.8-7.6-3-11.2-1c-2.7,1.5-7.8,1.9-9.5,0.7c-0.6-0.4-1.6-2.5-2.2-4.6c-1-3.1-0.9-4.6,0.2-7.4c0.8-1.9,1.5-3.7,1.5-4.1
		C382,242.8,365.4,243.3,363.5,244.6z M358,250.5c-1.1-1-2-1.4-2-0.8c0,0.5,0.9,1.8,2,2.8s2,1.4,2,0.8
		C360,252.8,359.1,251.5,358,250.5z M297.9,254c-0.3,0-1.6,1.2-3,2.6c-1.3,1.5-11.8,10.7-23.4,20.4c-21.9,18.5-24.1,20.8-28.1,29.3
		c-3.3,7.1-3.1,9.6,1,13.6l3.4,3.3l2.2-4.2c3.2-6.3,15-17.3,16.8-15.6c0.3,0.4-2.1,3.3-5.5,6.4c-6.3,5.7-10.3,11.3-10.3,14.3
		c0,0.9,0.9,2.4,2,3.4c1.9,1.7,2.5,1.8,6.8,0.6c2.6-0.8,5.8-1.6,7.2-1.9c4.5-0.9,0.3,2.6-4.8,4.1l-4.5,1.3l10.4,6.5l10.4,6.4
		L275,345l-3.5,0.5l-0.3,9.2c-0.1,5.1-0.6,9.3-1.1,9.3c-1.1,0-2.3-12.3-1.5-15.5c0.6-2.2,0.1-2.7-4.5-4.8c-2.7-1.3-5.6-2.9-6.4-3.5
		c-1.1-1-2.1,0.4-5.2,7.3c-2.1,4.7-4.2,8.5-4.7,8.5c-1.4,0-0.2-4.4,3.2-11.8l3-6.4l-7.3-6.8c-7.1-6.8-7.2-6.9-8.7-4.8
		c-3.3,4.7-4.7,6.1-5.3,5.1c-0.3-0.5,0.5-2.6,1.8-4.6c1.4-2,2.5-4.3,2.5-5.2c0-1.4-0.3-1.4-2.7,0.3c-1.6,1.1-11.6,7-22.3,13.1
		s-20.2,11.5-21,12c-1.1,0.6,2.2,2,11.3,5c7.1,2.2,15.1,5.3,17.8,6.8c7.8,4.2,12.8,12.1,15.6,24.6c2,9.3,5.6,16.9,9.5,20.2
		c3,2.5,3.4,2.6,11.7,2l8.6-0.6l5.4,4c6.2,4.8,9.4,5.1,20.6,2.3c6.5-1.7,7-2,7.3-4.8c0.2-1.6-0.1-5.4-0.8-8.4
		c-1.8-8.1-16-50.2-17.6-52.1c-0.8-0.8-1.4-1.8-1.4-2.1c0-0.3,2.4-2.3,5.3-4.5c7.6-5.8,14.8-13.6,21.4-23.3
		c5.2-7.5,12.4-17.5,24.4-33.5c2.1-2.8,5.4-6.6,7.3-8.4c5.7-5.5,4.3-6.5-4.4-3.4c-6.2,2.2-9.2,1-15.4-6.3c-2.6-3-5.3-5.4-6-5.4
		s-2.1,0.9-3.1,2c-2.7,3-4.3,2.5-7.3-2.5C299.7,256.1,298.2,254,297.9,254z M508.5,260.5l-6.5-0.2c-3.6-0.1-7.2,0.1-8,0.4
		s-4.3,3.2-7.7,6.4c-6.9,6.3-10,7.5-18.4,6.7c-4.3-0.5-4.9-0.3-4.3,1.1c3.1,7.2,9.3,23.9,9.4,25.2c0,0.8,1.7,7.6,3.8,15.1
		c3.8,13.1,7.5,21.8,9.8,22.5c0.7,0.2,2.2-1,3.4-2.7c2.1-3,2.1-3.1,0.4-7.5c-0.9-2.5-1.4-4.8-1.1-5.1c1.1-1.1,2.7,0.7,3.8,4.6
		l1.2,3.9l2.6-1.9c1.5-1,6.7-3.5,11.6-5.5c5-2.1,9.1-3.8,9.3-4c0.9-0.8-3.3-13.7-5.9-18.4c-3.3-5.7-3-8.2,0.3-4.1
		c3,3.6,6.8,12.1,7.6,17.2l0.7,4.3l5.6,0.5c3.1,0.3,6.3,1.1,7.2,1.9c1.6,1.2,1.7,0.8,1.7-4.1c0-5-0.6-6.4-5.7-14.4
		c-9.8-15.6-14.6-24.4-17.7-33.3L508.5,260.5z M383.4,270.7l-3-2.5l-4.8,5.5c-2.7,3-8.2,8.3-12.3,11.8c-4.1,3.5-7.4,6.7-7.4,7.2
		c0.1,0.4,1.4,1.1,2.9,1.5c1.6,0.4,6.4,4.2,10.8,8.4l7.8,7.6l2.8-3.4c5.8-6.8,14.4-22.9,16.7-31.3l0.9-3.5l-5.7,0.6
		C387,273.2,386.1,273,383.4,270.7z M403.3,269.7c-1.9,0.7-1.6,4.8,1.2,17.5c3.4,15.9,5.4,22.1,6.8,21.4c14-6.1,14.2-6.2,29.5-4
		c2.3,0.3,4.2,0.3,4.2-0.1s-1.5-2.4-3.4-4.5c-3.9-4.4-10.9-15.9-13.9-23.2c-1.9-4.7-2.2-4.9-5-4.4c-1.9,0.4-4.5-0.1-7.4-1.4
		C411,269.1,406,268.6,403.3,269.7z M452.4,279c-0.7,0-13,6.6-14.3,7.6c-0.9,0.7,2.5,6.9,6.6,12.2l4.4,5.7l-2.6,2.2
		c-3.1,2.7-4.5,2.8-12.2,0.8c-5.5-1.4-6.2-1.4-12.8,0.6c-3.8,1.2-8,3.1-9.3,4.2c-2.2,2-2.2,2-3.6,0.1c-1.6-2.1-5.6-13.6-5.6-15.9
		c0-1.1-1.2-1.5-4.9-1.5h-4.9l-6.1,8.5c-3.4,4.7-7.1,9-8.2,9.5c-1.6,0.9-3.1-0.1-10.4-7c-8.8-8.2-12.2-10-11.1-5.7
		c0.3,1.3,0.8,5.7,1.2,9.8c0.7,8.6,2.1,11.2,7.2,13.8c17.1,8.7,54.8,5.9,78-5.8l8.2-4.1l-0.2-6.3c-0.1-3.4,0.2-11.3,0.6-17.5
		C452.9,284,452.8,279,452.4,279z M327.4,296.6c-3,0.7-7,5.2-16.3,18.4c-8.1,11.4-8.2,11.6-7.7,16.5c0.3,2.7,0.8,11.6,1.2,19.7
		c0.3,8.2,0.9,14.8,1.3,14.8c0.3,0,5.3-2.6,11-5.8c10.4-5.7,10.5-5.7,15.7-14.3c2.9-4.7,9.2-12.7,14-17.8l8.7-9.2l-0.7-10.2
		c-0.3-5.6-1.1-10.6-1.7-11.2C351.9,296.5,331.4,295.8,327.4,296.6z M454.2,316.3c-0.4-0.1-3.7,1.6-7.4,3.8c-7.9,4.6-8.1,2,2.2,23.4
		c8.1,17,14,31.4,14,34.5c0,3.7-1.7,1.2-5.3-7.7c-6.3-15.6-20.5-44.3-22-44.3c-2.8,0-7.7,2.2-7.7,3.5c0,0.8,1.3,6.6,3,13
		c3.1,12.2,5,26.8,3.3,25c-0.6-0.6-2.9-8.7-5.2-18.1c-2.3-9.3-4.6-17.6-5.1-18.3c-0.6-1.1-1.7-1.1-5.6-0.2
		c-5.3,1.2-23.5,2.9-29.8,2.7l-3.9-0.1l-1.7,6c-0.9,3.3-2.9,10.2-4.4,15.3c-1.4,5.1-3.8,16.1-5.3,24.5c-2.3,13.8-2.6,17.8-2.7,43.2
		c-0.1,22.4,0.3,30.2,1.7,38.9c0.9,6,1.5,11.1,1.2,11.4c-3.1,3.2-5.9-20.8-5.9-51.3c0-19.8,0.4-26.7,2.2-39.5
		c2.8-18.9,5.5-31.6,8.7-41.1c2.6-7.5,2.5-8.9-0.3-8.9c-3.5,0-8.9-2.1-14.6-5.5c-6.9-4.1-6.5-4.3-16.1,6.6
		c-9.3,10.5-17.5,23.2-25.8,39.8c-5.9,11.7-7.3,13.9-7.5,11.6c-0.2-1.8,1.4-6.4,4.7-13.1c2.8-5.7,4.8-10.4,4.4-10.4
		c-0.3,0-3.1,1.5-6.2,3.4c-6.5,3.9-13.7,7.6-14.8,7.6c-0.4,0-0.8-2.8-0.8-6.2c-0.1-11.3-1.8-33.9-2.6-33.6
		c-2.5,0.9-13.9,11.4-13.9,12.8c0,1,2.5,8.6,5.6,17.1c6.9,18.7,12.4,37.9,12.4,43c0,2.4-0.9,5.2-2.5,7.5c-2.8,4.2-2.8,4.1,1,29.8
		c1.2,8.1,2.2,17.1,2.1,19.9c-0.1,5.1-0.1,5.1-4,6c-4.8,1.2-18.2-0.5-23.3-3c-2-0.9-6.4-4.5-9.8-8l-6.2-6.3h-7.6
		c-6.3,0-8.3-0.4-13-2.9l-5.5-2.9l-7.9,12.2c-10.5,15.9-17,26.9-23.1,39.2c-4.9,9.8-10.2,22-10.2,23.5c0,0.4,1.5,0.5,3.4,0.2
		c4.4-0.7,11.8,2.8,20.4,9.7c4,3.2,8.3,5.5,11.8,6.6c5.2,1.5,6.6,1.5,19.8-0.1c11.2-1.4,14.9-1.5,18.3-0.6c6.8,1.9,13.3,7,17.9,14.1
		c8.7,13.4,14.1,20.1,19.3,24c6.4,4.8,10.3,5.1,20.1,1.6c3.6-1.3,9.3-3.4,12.8-4.6l6.2-2.3v-14.3c0-14.4,3.9-47.5,7.6-63.9
		c0.9-3.9,2.9-13.3,4.5-20.9c1.6-7.7,3.3-14.4,3.9-15c1.7-1.7,1.2,2.9-2,19.4c-5.3,27.4-8,47.3-9.5,68.2c-2.1,29.3-2.7,26,5.4,28.6
		c3.9,1.3,9.3,3.9,12.2,5.9c2.8,1.9,9.1,5.4,13.8,7.7c7.9,3.8,9.3,4.1,16.6,4.1c6.9,0,9.2-0.6,17-3.8c7.9-3.3,9.9-3.7,17.3-3.7
		c5.9,0,11.4,0.8,18.5,2.7c8.7,2.3,12.3,2.7,24.7,2.7c13.4,0.1,14.8-0.1,19-2.3c9.2-4.9,13.7-10,15.4-17.5
		c1.7-6.9,6.7-10.8,18.1-14.1c3.3-1,8.8-2.9,12.3-4.2c7.4-3,9.2-5.6,9.2-13.5c0-5.9,4.5-25.3,9.2-39.8c5-15.3,29.1-70.8,31.9-73.4
		c3-2.8-0.6,8-7.5,22.3c-6.4,13.3-15.1,34.1-20.2,48.6c-1.4,3.8-1.2,3.7,7.8-5.1c10.8-10.5,18.3-15.8,31.1-21.9
		c13.6-6.5,22.4-8.6,40.7-9.3l15.5-0.7l-13-7.6c-7.1-4.2-15.6-9-18.7-10.8c-3.2-1.8-10.8-7-17-11.7c-14.9-11.2-15.7-11.2-22.8,0.6
		c-4,6.7-21.6,27.4-29.6,35c-6.2,5.9-24,20.4-28.6,23.4c-1.5,1-3.2,1.6-3.8,1.4s6-6.2,14.6-13.3c11-9.1,18.9-16.7,26.6-25.5
		l10.8-12.5l-6.7-3.3c-10.8-5.4-13.1-7.2-18.9-15.5c-3.1-4.2-5.7-7.7-6-7.7c-0.2,0-1.1,1.7-1.9,3.7c-2.8,6.6-7.6,13.2-11.2,15.4
		c-3,1.9-4.4,2.1-10.4,1.5c-4-0.3-7.8-0.2-8.8,0.4c-1,0.5-4.7,5.1-8.2,10.2c-7.2,10.5-14,17.5-20.3,20.8c-5.9,3.2-7.6,2.3-7.6-3.8
		c0-5.8,3.7-40.3,5-47c1-5.1,1.5-4.3-6.5-10.7l-2.6-2l2.4-6c1.4-3.3,4.5-10.7,7-16.5c4.4-10.3,8.7-23.2,8.7-26.3
		c0-0.8-7.5-8.2-16.6-16.3C462.3,323.2,454.6,316.4,454.2,316.3z M531.4,333.8c2.5,3.2,4.6,6.1,4.6,6.5c0,2-2.4,0-7.2-5.8
		c-5.1-6.3-5.4-6.5-8.8-5.9c-1.9,0.3-3.7,0.7-3.9,1c-0.2,0.2,1.3,3.1,3.3,6.4c2,3.4,3.6,6.6,3.6,7.1c0,2.4-2.2,0.3-5.9-5.6
		c-2.3-3.6-4.6-6.5-5.2-6.5c-2,0-14.5,7-17.7,10c-2.7,2.5-3.2,3.6-3.2,7.6c0,5.3-3.7,16.8-11,34.1c-2.8,6.4-5,12.5-5,13.4
		s1.3,2.2,2.9,2.9c4.1,1.6,11.7,0,23.2-4.9c5.2-2.3,10.4-4.1,11.5-4.1c2.1,0,2-0.2-1.2-8.3c-4.5-11.5-8.9-28.1-7.9-30.4
		c0.6-1.4,1.2-0.2,2.7,4.7c2.4,8,11.6,32.2,12.7,33.3c0.5,0.5,5.3-3,10.7-7.8c16.5-14.6,23.5-18.2,33.8-17.3
		c2.6,0.2,4.6,0.1,4.6-0.1c0-0.4-7.4-9-21.4-24.8c-6-6.8-11.1-11.6-12.9-12.3C526.4,324.5,525.7,326.6,531.4,333.8z M199.5,355.1
		l-11-3.8l-8.8,4.7l-8.8,4.7l9.1,3.7c11.5,4.8,23.1,12.4,26.8,17.5c1.6,2.2,4.4,7.4,6.2,11.4c3,6.8,3.6,7.5,7.9,9.4
		c5.9,2.5,8.7,6.1,14,18.3c4.5,10.5,8.6,16.2,13.3,18.6c1.7,0.9,7.5,2.2,13,3c5.4,0.7,10.7,1.8,11.8,2.4c1.1,0.6,3.4,3.8,5,7.1
		c1.8,3.5,4,6.3,5.3,6.8c3.6,1.3,15.7,3.4,16.4,2.8c0.3-0.4-0.2-5.5-1-11.4c-2.6-17.5-4-31.9-3.5-34.8c0.5-2.3,0.3-2.6-1.6-2.1
		c-1.1,0.3-5.4,1.3-9.3,2.2l-7.3,1.6l-7.9-4.7l-8-4.6l-7,0.7c-6.1,0.6-7.4,0.4-10.5-1.5c-4.9-3-7.1-7.2-10.2-18.7
		c-1.4-5.4-3.7-12-4.9-14.5c-2.8-5.3-8.9-11.2-14.2-13.4C212.2,359.6,205.6,357.2,199.5,355.1z M546.8,372.3
		c-2.5,1.4-8.7,6.4-13.9,11c-12.9,11.4-13.4,11.7-18.3,11.1c-3.4-0.5-5.6,0.2-12.7,3.5c-4.7,2.2-10.4,4.3-12.7,4.7
		c-2.3,0.4-4.5,1-4.7,1.5c-0.5,0.8-1.9,10-5,33.4c-0.9,6.6-1.8,13.1-2,14.5c-0.3,1.4-0.1,3.1,0.4,3.9c2,3.1,12.3-6.2,23.1-20.9
		c8-11,8.5-11.2,16.2-10.4c11.3,1.1,15.5-2.1,22.7-17.8c2.4-5.1,5.2-9.6,7.2-11.2c2.8-2.4,3.9-2.7,9.1-2.4l5.9,0.3l5.7-6
		c3.1-3.3,6.6-6.5,7.6-7.1c1.9-1,1.8-1.3-1.7-6.6c-2.1-3.1-4.7-5.8-6-6.2C562.4,366.2,553.9,368.1,546.8,372.3z M186.6,372
		c-0.6,0.1-2.7,0.9-4.6,2c-1.9,1-8.8,3.8-15.2,6.1c-6.5,2.3-11.5,4.5-11.3,5c0.3,0.4-2,2.7-5.2,5c-6.8,4.9-15,12.6-16.5,15.4
		c-0.6,1.1,0.9,0.1,3.3-2.1c9.6-9.1,23-17.6,22.9-14.7c-0.1,0.5-6.1,5.5-13.5,11.3c-7.3,5.8-13.2,10.7-13,10.9
		c0.6,0.5,11.5-5.8,17-9.9c7.7-5.7,9.8-7,11.3-7c2.4,0,0.8,1.7-7.3,7.7c-9.3,6.9-18.2,14.9-17.5,15.6c0.3,0.3,3.9-2,8-5
		c12.7-9.2,30.6-17,37.6-16.1c5.9,0.7,8.5,8.9,4.9,15.7c-0.9,1.8-1.5,4.6-1.3,6.2c0.2,2.4,1.6,0,7.6-12.8
		c10.4-22.4,9.9-20.8,7.7-23.3c-1-1.2-4.6-3.9-7.8-6.1C190.4,373.8,187.3,372,186.6,372z M608.5,387.2H603c-3-0.1-8.9,0.8-13,1.8
		c-4.1,1.1-11,2.2-15.2,2.6c-6.3,0.6-8.1,1.1-9.9,3c-1.9,2-3.2,2.4-8.4,2.4c-4.7,0-6.8,0.5-8.8,2c-4.7,3.7-4.4,5.2,3.2,14.7
		c6.1,7.8,7.9,9.4,15,13.1c9.6,5.1,11,3.8,3.1-2.9c-2.7-2.3-5-4.5-5-4.9s3.5-1,7.8-1.3c8.2-0.5,17.2-2.5,17.2-3.7
		c0-0.4-2.4-1.2-5.2-1.9c-10.9-2.4-10.6-4.8,0.4-3.1c4.7,0.7,8.7,2,11.3,3.7l4,2.6l-3.5-3.8c-1.9-2.1-5.9-5.3-8.7-7.2
		c-4.9-3.1-6.7-5.3-4.4-5.3c0.5,0,2.9,0.9,5.4,1.9c5.6,2.4,10.8,7.6,14.9,14.8c3.6,6.4,5,5.7,1.7-0.9c-3.6-7.3-6.5-10.3-13.8-14.7
		c-7.2-4.2-9-6.5-4.8-5.9c1.2,0.1,3.9-0.8,5.9-2c2-1.3,6.5-2.9,10-3.7L608.5,387.2z M205.6,388c-0.3,0-8.6,16.8-8.6,17.5
		c0,0.1,2.4,1.5,5.4,2.9c7.1,3.5,14.1,9.8,21.1,19.2c6.4,8.4,13.6,15.8,17.7,18c1.4,0.7,5.9,1.6,10,2c10.7,0.9,13.3,1.9,18,7.6
		c2.4,2.7,5.6,5.7,7.2,6.5c3.8,1.9,22.1,5.3,23.6,4.3c0.7-0.4-2-1.3-6.1-1.9c-4.1-0.7-8.8-1.4-10.5-1.6c-3.6-0.6-6.7-3.6-8.8-8.7
		c-2.5-5.8-5.4-7.4-14.8-8.2c-9.8-0.8-17.4-4-21-8.9c-1.4-1.7-5.2-8.9-8.6-15.8c-6-12.6-6.2-12.7-11.3-15c-4.7-2.2-5.4-3-9-10.1
		C207.7,391.5,205.8,388,205.6,388z M220.4,430.4c-1.2-0.3-16.8,13.9-26.9,24.5l-8,8.3l2.5,1.6c3.1,2,11.8,10.6,15.2,15.1l2.5,3.3
		l4.2-7.5c2.3-4.1,8.2-13.2,13.1-20.3l8.9-12.8l-5.3-6C223.7,433.3,220.9,430.5,220.4,430.4z M655.5,458.7
		c-6.9-0.5-20.5,0.2-20.5,1.1c0,1.7,28.1,28.5,28.9,27.6c1.4-1.4,6.1-17.7,6.1-21.1c0-3.5-1.1-4.6-6-6.1
		C662.1,459.6,658.3,458.9,655.5,458.7z M627.8,461.1c-13.1,0.5-36.2,10.9-49.3,22.2l-4,3.5l-0.3,29.8l-0.3,29.9l2.9-4.5
		c6.8-10.7,19.5-20.5,31.1-24.1c9.1-2.8,21.5-4.6,35.6-5.4c11.1-0.5,13.2-0.3,28.3,2.9c8.9,1.8,16.2,3,16.2,2.6s-2.6-3-5.7-5.7
		c-7.7-6.7-38.4-37.2-45.6-45.1C631.9,461.9,630.6,461,627.8,461.1z M556.4,513.5c-1.5-5.1-1.8-4.4-4.9,14.4
		c-2.3,13.5-3,15.9-5.6,19.2c-1.6,2-2.9,4.4-2.9,5.2c0,3,7.2,22.2,13.6,36c8.6,18.6,11.8,24.7,17.6,33.4c4.5,6.8,5.9,10.3,4,10.3
		c-0.5,0-4.1-4.9-8.1-11c-8.5-12.7-21.2-39.4-26.7-56c-2.1-6.3-3.9-11.6-4-11.8s-17.9,5.2-22.7,7c-3.3,1.3-5.7,4.6-8.2,11.2
		c-4,10.9-15.5,18.9-28.7,20.1c-6.5,0.6-12.8,0-22-2.1c-2.7-0.6-2.8-0.5-2.8,3.9c0,7.8,3,26.6,5.1,31.8c2.1,5.5,2.3,6.9,1,6.9
		c-2.7,0-6.7-16.4-9.1-36.8c-0.7-6.5-0.8-5.2-0.5,7.8c0.3,15.5,3.3,34.4,7.1,45.1c3,8.6,0.9,9.6-2.4,1.1
		c-4.6-11.8-9.2-39.2-9.2-54.7v-7.4l-5.7-1.2c-10.2-2.3-17.7-1.6-28.3,2.7c-8.4,3.4-10.5,3.8-18.5,3.8c-9,0.1-9,0.1-17.2-4.7
		c-4.6-2.6-12-6.8-16.5-9.5c-7.8-4.4-8.7-4.7-15.3-4.7c-5.7,0.1-8.8,0.8-16.5,3.9c-5.2,2.1-11.7,4-14.5,4.3c-4.4,0.4-5.7,0-10.5-2.9
		c-4.4-2.7-7-5.4-13.2-14.3c-8.6-12.4-18.6-23.5-21-23.5c-3.7,0-15.4,33.3-18.8,53.5c-2.4,14.1-2.7,15.2-4.1,13.8
		c-1.1-1.1,0.9-15.9,3.7-26.8c2.3-9.1,7.3-24.1,11.1-32.8c1.8-4.3,3.3-8.3,3.3-8.9c0-0.5-1.2-0.8-2.7-0.6c-2.2,0.3-3.1,1.4-5.5,7.3
		c-5.2,12.7-9.5,23.9-11.3,29.5c-2,6.2-2.9,7.5-4.3,6.6c-1.3-0.8,4.8-18.5,11.3-33c2.5-5.5,4.2-10.2,4-10.5
		c-0.3-0.2-5.3,0.3-11.3,1.2c-14.3,2.1-19.5,1.2-28.2-4.7c-3.5-2.5-6.5-4.4-6.6-4.3c-18.6,31.3-26.6,46-37,68.2
		c-4.2,8.8-8.8,18.5-10.4,21.5c-3.6,7-13,29.6-13,31.1c0,0.9,2.6,1,10.3,0.3c5.6-0.5,14.5-0.9,19.7-0.8c8.2,0,10.4,0.4,15.5,2.8
		c3.3,1.5,8.5,4.7,11.5,7.1c6.3,4.8,9.9,6,21.5,7c18.5,1.6,29.1,4.8,43.7,13.2c12.2,7,16.4,8.3,27.1,8.3c15.2,0,23.3,3.4,38.1,16.2
		c12,10.3,18.1,13.2,36,16.8c13.8,2.8,20,2.6,31-1.1c10.4-3.4,18.5-8,33.5-18.8c19.3-13.9,32.4-19.1,47.6-19.1
		c8.5,0,23.9,3.2,33.5,7c9.3,3.7,16.4,4.9,21.1,3.8c4.5-1.2,10.9-7,10.9-9.9c0-1.1-3.1-8.3-7-16.1c-7.8-16-15.5-36.2-20.6-54.3
		c-3.6-12.7-7.4-30.1-7.4-34.1c0-4.1,1.7-2.6,2.7,2.3c4.4,20.7,15.2,55.1,23.1,72.9c3.9,8.7,11,23.4,11.8,24.3
		c0.2,0.2,1.2-0.3,2.2-1.2s4.5-2.6,7.8-3.8c4.8-1.7,9.4-2.3,25.4-2.9c24.2-1,27.9-2.1,38-11.6c7.9-7.5,12.8-9.9,23-11.3
		c8.8-1.2,23.7-5.3,29.8-8.2c8.4-4.1,16.8-14.5,19.4-24.2c2.5-9.4-4.2-19.3-17.3-25.4c-12.5-5.9-41-12-71.8-15.3
		c-15.9-1.7-33.6-6.7-35.7-10.1c-1.6-2.7-3.6-12.3-4.3-21.5c-0.8-9.9-0.9-10.3-5-15.4c-2.3-2.9-4.9-6.7-5.8-8.4
		S557.1,515.7,556.4,513.5z M637.9,516.9l-5.7,0.6l6.4,8.5c8.8,11.8,28.5,34,30.1,34c0.7,0,1.3-0.6,1.3-1.4
		c0-3.1,8.1-10.5,16.2-14.6c11.3-5.8,16.8-9.3,16.8-10.6c0-0.7-1.7-2.7-3.9-4.7c-4.6-4.1-15.4-8-28.6-10.1
		C659.5,516.9,645.4,516.1,637.9,516.9z M625.5,518.1c-6.1,0.2-23.5,5.3-23.5,6.9c0,1.9,28.9,30,35,34.1
		c3.6,2.4,17.3,10.8,30.5,18.6c13.2,7.9,25.7,16,27.8,18c4.8,4.6,7.7,10.1,7.7,14.6c0,5.9-3,15.1-6.8,20.6
		c-7.8,11.3-16,15.5-41.2,21.1c-8,1.8-15.8,3.9-17.3,4.7c-1.6,0.8-5.5,3.9-8.7,6.8c-10.8,10-18.8,12.5-39.1,12.5
		c-23,0-31.3,2.7-36.2,11.8c-1.8,3.3-4.5,6.3-7,8c-5.9,3.9-15.7,3.7-28.6-0.7c-5.2-1.7-9.6-3-9.8-2.7c-0.7,0.7,17,33.5,24.4,45.2
		c4.6,7.2,6.8,11.6,6.3,12.4c-1.5,2.4-27.7-40-31.6-50.9c-3.3-9.3-2.8-8.9-9.1-9.8c-3.2-0.4-10.3-0.8-15.8-0.7
		c-8.8,0.1-10.9,0.5-18,3.3c-9.4,3.8-14.1,6.6-29.1,17.2c-12.1,8.5-21.5,13.7-31.1,16.8c-7.3,2.4-22.5,2.9-32.9,0.9
		c-3.5-0.6-6.6-0.9-6.9-0.7c-0.7,0.8,2.9,13.2,7,23.8c6.7,17.7,20.6,42.2,32.2,57c7,9,7.7,10.1,6.4,10.1c-1.6,0-13.6-14.5-19.9-24
		c-11.4-17.2-22.5-40.7-27.6-58.4l-3.2-11l-4.3-1.4c-2.3-0.8-4.4-1.2-4.7-0.9c-0.8,0.8,7.3,31,11.4,42.2c2.3,6,4.4,12.3,4.8,14
		c0.6,2.7,0.5,2.8-0.9,1.5c-4.2-4-16.2-40.6-18.2-55.2c-0.6-4.7-0.8-5-13.6-15.2c-17.5-14-19.3-14.8-34.8-15.3
		c-13.8-0.5-16.6-1.3-30.2-8.8c-8.8-4.9-21.8-9.8-28.4-10.9c-2.2-0.3-8.8-1-14.8-1.6c-12-1.1-12.3-1.2-22.6-8.7
		c-4.1-2.9-7.5-5.2-7.7-5c-1,0.9-4.6,20.4-5.8,31.3c-3,26.4-3,52,0.1,64.2c0.4,1.8,0.2,2.3-0.8,2c-1.7-0.6-3.5-10-4.2-21.8
		c-0.7-13.5,1-39.2,3.8-55.5c1.4-8.3,2.8-16.6,3.2-18.6l0.5-3.6l-4.7-0.6c-9.7-1.4-9.8-1.3-17,7c-8.5,9.9-28.5,37.2-38.2,52
		c-7.4,11.3-21.4,38.2-20.7,39.5c0.2,0.4,3,1,6.2,1.3c8.2,1,21.6,5.7,38.2,13.5c8,3.8,19.8,8.7,26.2,10.9
		c15.5,5.3,16.5,5.9,26.6,15.4c9.7,9.2,28.8,22.4,37.2,25.7c20.6,8.1,35.1,9.5,68.5,6.5c20.5-1.9,30.3-1.9,40.1,0
		c21.3,4,31.5,5.5,38,5.5s17.9-2.1,51.5-9.4c6.4-1.4,20.4-3.7,31-5.1c20.4-2.6,32.7-5.8,39-9.9c2.2-1.5,6-6.1,9.4-11.3
		c7.3-11.2,11.1-15.6,17.7-20.6c6.8-5.2,15.4-9,25.1-11.3c4.2-1,7.7-2,7.7-2.3c-0.1-0.3-2.1-2.2-4.6-4.1
		c-8.7-6.7-23.9-23.6-31.5-35.1c-7.8-11.8-9.5-14.9-7.9-14.9c1,0,2.8,2.3,10.9,13.5c13.9,19.4,33.2,38.8,39.9,40.1
		c7.2,1.4,18.5-0.1,25.6-3.4c11.6-5.5,15.1-8.7,30.1-28.2c19.3-25,26.2-31.3,46-42c19.2-10.4,34.2-23.9,45.9-41.2
		c8.5-12.7,10.9-20.3,10.4-32.9l-0.3-9.2l-7.4-6.8c-8.1-7.5-15-11.5-32-18.4c-16.5-6.7-29.6-13.9-36-19.9
		c-4.7-4.3-21.7-24.8-28.7-34.5C629.2,518.9,628.2,518,625.5,518.1z M602.5,531.7l-5-5.7l-4.5,3.3c-10.2,7.6-17.9,18.4-18,25
		c0,4.4,2.6,9.5,6.1,11.6c4.3,2.6,13.8,4.6,36,7.6c10.3,1.3,25.3,3.8,33.4,5.5s15,2.9,15.2,2.6c0.2-0.2-1.8-1.6-4.4-3.1
		c-2.6-1.6-12.4-7.9-21.8-14c-12.7-8.4-18.9-13.2-24.5-19.1C610.9,541,605.3,534.9,602.5,531.7z M678.6,553c-0.2,0-2,1.9-4,4.2
		c-3.2,3.9-3.3,4.4-1.9,6c2,2.2,14.2,8.5,27.6,14.2c5.9,2.5,12.6,5.5,14.8,6.7c2.3,1.1,4.3,1.9,4.5,1.7c0.3-0.4-6.4-5.5-27.3-20.7
		c-3.9-2.8-8.5-6.8-10.2-8.7C680.4,554.6,678.9,553,678.6,553z M455.3,825.1c-5,0.2-31.3,7.3-31.3,8.4c0,0.7,2.5,3.9,5.6,7.3
		c4.4,4.9,6.2,6.2,8.5,6.2c3.8,0,9.7-2.5,12.8-5.3c2.8-2.6,7.1-11.3,7.1-14.5C458,825.4,457.5,825,455.3,825.1z"/>
	<path d="M495.8,61.9c3.9,2,6.8,4.8,9.7,9.4c2.3,3.5,2.2,15-0.1,18.5c-2.2,3.4-2.6,2.3-1.4-3.6c2.2-10.1-3.2-19.1-14-22.9
		c-2.7-1-5-2.1-5-2.5C485,59.3,492.1,60,495.8,61.9z"/>
	<path d="M445.5,136.2c-9.7,11.4-5.7,27.3,8,31.8c3.8,1.3,4.7,3,1.5,3c-3.3,0-11.4-4.6-14.7-8.4c-1.8-2-3.4-5.1-3.8-7.4
		c-1.2-7.1,3.5-19.1,8.5-21.7C448.5,131.6,448.7,132.4,445.5,136.2z"/>
	<path d="M388,99.5c1.1,1.3,0.6,1.5-3.8,1.5c-2.8,0-5.7,0.3-6.6,0.6c-1,0.4-1.6,0.1-1.6-0.9c0-0.8,0.6-1.8,1.3-2
		C380.1,97.5,386.8,98.1,388,99.5z"/>
	<path d="M400.6,102.5l-1.6,2.4l3.6-1.5c2-0.8,3.9-1.3,4.1-1c0.9,0.9-4,4.6-6.9,5.2l-2.8,0.6l3.2,4.1c2.6,3.3,3.2,5,3.4,9.8l0.3,5.8
		l-4.3,2c-4.4,2.2-11.6,2.8-11.6,1.1c0-0.6,1-1,2.3-1c2.2-0.1,2.2-0.1,0.2-1.5c-6.4-4.5-10.2-11.9-9.2-18c0.6-3.9-0.6-4.6-2.5-1.5
		c-1,1.5-2.3,2-5.3,1.9c-2.2,0-3.4-0.3-2.6-0.6c1.1-0.4,0.8-1-1-2.5l-2.4-1.9l4,0.5c3.7,0.6,3.8,0.5,2.1-0.8c-1-0.9-2.4-1.7-3-1.9
		c-0.6-0.2-0.8-0.7-0.5-1.1c0.3-0.3,2.1,0,4,0.8c2.3,1,4.1,1.1,5.8,0.5c1.3-0.6,5.4-0.7,9.1-0.3c6.2,0.6,6.7,0.5,9-1.9
		C400.9,98.6,402.7,99.2,400.6,102.5z"/>
	<path d="M340.1,115c2.7,0,4.9,0.4,4.9,1c0,0.5-2,1-4.4,1c-2.5,0-4.7,0.3-4.9,0.7c-0.3,0.5,3.2,0.7,7.6,0.7c9.8-0.2,12.6,1,16.5,6.8
		c2.4,3.7,2.7,5.1,2.7,12.3c0,5.4-0.5,8.8-1.4,9.8c-1.1,1.4-0.6,2,4.3,4.4c5.7,2.7,7,4.3,3.9,4.3c-2.6,0-8-3.5-9.3-6
		c-0.7-1.4-0.9-4.8-0.5-9.9c0.6-6.7,0.5-8.3-1.4-11.9c-1.2-2.3-2.3-4.2-2.5-4.2c-0.3,0-1.3-0.3-2.3-0.7c-1.6-0.5-1.6-0.3,0.3,1.8
		c4.6,5.2,5.8,13.8,2.2,16.3c-2.5,1.8-10.3,2.2-11.3,0.6c-0.3-0.6,0.4-1,1.7-1c2,0,1.9-0.3-1.5-3.1c-4.9-4-8-10.1-7.2-14
		c0.4-1.8,0.3-2.9-0.4-2.9c-0.6,0-1.1,0.4-1.1,1c0,2.1-4.1,5-7,5c-3.5,0-4-1.7-0.8-2.9c2.1-0.8,2.1-0.8-0.5-1.5
		c-1.5-0.3-2.7-1.1-2.7-1.7s0.9-0.9,1.9-0.6c1.4,0.3,1.8,0.1,1.4-1c-0.5-1.2-0.1-1.4,1.6-0.8c1.7,0.5,2.7,0.1,3.7-1.4
		C334.8,115.4,336.2,115,340.1,115z"/>
	<path d="M400.6,150.5c1.2,3.1-1.7,11.4-5.4,15.4c-5.6,6.1-6.6,6-17.3-1c-9.2-6.1-9.3-6.1-6.8-7.5c1.4-0.7,7-2.7,12.5-4.4
		c5.4-1.8,10.4-3.3,10.9-3.5C397.1,148.6,400.1,149.1,400.6,150.5z"/>
	<path d="M380.3,436.5c0.6,28.8,2.1,48.4,4.7,59c1.3,5.3,1.2,5.5-0.4,5.5c-1.5,0-2.3-3.6-5.1-23.1c-1.7-11.2-3.3-70.3-2.1-73.5
		C379.1,399.9,379.8,407,380.3,436.5z"/>
</g>
</svg>
