<?xml version="1.0" encoding="utf-8"?>
<!-- Generator: Adobe Illustrator 21.0.0, SVG Export Plug-In . SVG Version: 6.00 Build 0)  -->
<svg version="1.1" baseProfile="tiny"
	 id="svg2" inkscape:version="0.91 r13725" sodipodi:docname="IMG_1834.svg" xmlns:cc="http://creativecommons.org/ns#" xmlns:dc="http://purl.org/dc/elements/1.1/" xmlns:inkscape="http://www.inkscape.org/namespaces/inkscape" xmlns:rdf="http://www.w3.org/1999/02/22-rdf-syntax-ns#" xmlns:sodipodi="http://sodipodi.sourceforge.net/DTD/sodipodi-0.dtd" xmlns:svg="http://www.w3.org/2000/svg"
	 xmlns="http://www.w3.org/2000/svg" xmlns:xlink="http://www.w3.org/1999/xlink" x="0px" y="0px" viewBox="0 0 850 850"
	 xml:space="preserve">
<sodipodi:namedview  bordercolor="#666666" borderopacity="1" gridtolerance="10" guidetolerance="10" id="namedview622" inkscape:current-layer="svg2" inkscape:cx="581.8932" inkscape:cy="535.29497" inkscape:pageopacity="0" inkscape:pageshadow="2" inkscape:window-height="980" inkscape:window-maximized="1" inkscape:window-width="1920" inkscape:window-x="0" inkscape:window-y="1" inkscape:zoom="1.2564872" objecttolerance="10" pagecolor="#ffffff" showgrid="false">
	</sodipodi:namedview>
<g id="g6" transform="translate(0.000000,0.000000) scale(1.00000,1.00000)">
	<path id="path8" fill="none" d="M0,0h425h425v425v425h-93.5c-74,0-93.6-0.3-93.9-1.3c-1.8-6.4-15.5-46.1-19.5-56.7
		c-23.5-61.7-31.1-75.6-57.3-104.5c-12.5-13.8-36.1-37.1-47.9-47.4c-2-1.7-4.2-4.5-4.9-6.1c-0.9-2.2-3.2-4.1-7.9-6.7
		c-3.6-2-9.5-5.7-13.1-8.1c-4.2-3-9.1-5.3-14-6.7c-8.7-2.4-9-2.8-11.5-15.2c-1.3-6.4-1.6-12.5-1.3-27.8c0.3-19.7,0.3-19.7,2.8-21.6
		c1.4-1.1,9.4-6.9,17.8-13c14.7-10.5,15.5-11,18.4-10c1.7,0.6,5,1.1,7.3,1.1h4.3l0.7,4.6c0.6,4.1,0.9,4.6,2.9,4.2l2.3-0.5l-0.5,12.1
		c-0.5,15.7,1.5,29.2,5.7,38.1c1.7,3.7,3.5,6.4,4,6.1s1.2-3,1.6-5.9c1.3-10.6,3.4-13.9,6.5-10.2c0.7,0.8,1.8,1.5,2.5,1.5
		c1.4,0,2-2,3.1-10.5c1-7.9,2.7-10.7,12.1-20.7c4.8-5.1,10.6-11.8,12.7-14.8c7.6-10.6,6.9-10.3,12.5-4.9
		c7.7,7.4,26.6,15.5,31.6,13.5c1.6-0.6,1.6-0.8,0.1-2.9c-2.8-3.7-5.6-10.1-5.6-12.7c0-2.5,0-2.5,8.2-2.2c4.6,0.2,10-0.1,12.1-0.8
		c3.6-1,10.7-6.4,10.7-8c0-0.4-2.5-1-5.5-1.2c-6.2-0.5-11.5-4-14.9-9.8l-1.9-3.2l2.4-1.9c1.3-1,4.9-2.3,7.9-2.9
		c3-0.6,8.4-2.1,12-3.3c5.8-2,6.5-2.5,7.1-5.4c0.3-1.7,0.3-6.5-0.1-10.5c-0.4-4-0.6-7.4-0.4-7.6c0.1-0.2,1.4,0.4,2.9,1.4
		c4.2,2.7,5.9,7,5.9,15.1c0.1,5,0.5,7.3,1.3,7.3c1.9,0,10.1-12.2,12.6-18.9c1.3-3.4,2.8-6.2,3.3-6.2s1.5,2.4,2.2,5.5
		c1.8,7,3.5,7.6,7.9,3c4.2-4.5,6.5-9,9.2-18c1.2-3.9,3-8.3,4.1-9.6c2.7-3.5,15.4-13.8,17-13.8c0.7,0,2.7,0.9,4.5,2
		c1.7,1.1,4.7,2.1,6.6,2.2c3.3,0.3,3.4,0.3,2.9-3.2c-0.3-1.9-0.5-9.6-0.5-17v-13.5l4,0.3c2.2,0.2,7.3,1,11.4,1.8
		c8.2,1.6,10.7,0.9,7.8-2.3c-0.9-1-2.6-4.4-3.8-7.5c-2.8-7.4-2.1-10.8,3.8-18.2c4.3-5.4,4.8-5.7,6-4c0.7,1,1.3,3.7,1.3,6
		c0,2.4,0.4,4.5,0.9,4.9c1.4,0.8,4.9-3.3,6.2-7.3c1.2-3.5,0.8-19.6-0.7-29l-0.7-4.2l3.9,1.4c5.5,1.9,22.2,4.8,23.4,4.1
		c1.8-1.1,1.1-2.3-5.8-10.2c-6-7-13.5-16.5-15.6-20.1c-0.6-1,1.3-1.2,9.5-1l10.3,0.3l3.4-6.5c3.6-7.1,5.2-16.3,3.4-19.7
		c-0.9-1.6-2.4-2.1-7.7-2.5c-5.8-0.5-7.7-1.3-16.3-6.4c-5.3-3.3-10.7-6.8-12-7.9l-2.3-2l5-5.2c3.4-3.5,5.1-6.1,5.1-7.8
		c0-2.8-1.7-3.2-4.6-1c-4.4,3.3-18.1,1-27.8-4.8c-3.9-2.3-11.3-8.2-16.5-13.2c-9.9-9.5-39-43.4-52.7-61.3
		c-4.5-5.9-13.4-15.8-19.8-22L653,145.9l1.2-6.7c1.7-9.3,1.7-60.7,0-72.7c-2-13.9-6-30.2-8.7-35.6c-5.3-10.4-16.9-13.1-38.5-8.9
		c-14.6,2.7-29.1,8.4-54.8,21.3l-20.3,10.2l-5.2-2.9c-11.4-6.3-25.5-9.4-53-11.6c-11.4-0.9-14-0.8-22.1,0.9
		c-5.1,1.1-11.3,3-13.9,4.2l-4.6,2.3l-7.8-3.7c-16.4-7.7-29.5-9.2-53.5-6.1c-12.1,1.6-39.1,8.9-50.1,13.6l-4.7,2l-11.9-7.6
		c-23.7-15.2-52.4-26.3-72.6-28.2c-8.1-0.7-21.2,0.9-25.5,3.1c-1.7,0.9-3.7,3.1-4.6,5.3c-2.7,6.4-6.2,21.4-8.9,38.8
		c-2.5,15.7-2.6,18.4-2.1,38.4c0.3,11.8,0.7,23,0.8,24.9c0.3,3.1-0.2,3.8-5.1,7.2c-3,2.1-8.5,6.8-12.4,10.6
		c-11.6,11.4-42.5,50.2-54.2,68c-11.4,17.3-25.1,35.9-33.6,45.8c-19,21.9-30.1,30.2-49.2,36.9c-3.1,1-1.5,3.8,4.8,8.4
		c5.9,4.2,6.1,4.3,12.7,3.8c3.7-0.3,8.8-1.4,11.4-2.5c2.6-1.2,5.1-2.1,5.5-2.1c1.4,0-11.7,16.4-15.1,18.8c-3.9,2.9-3.8,4.2,0.5,6.9
		c1.9,1.3,4.2,3.4,5.1,4.9c2.1,3.1,4.5,12,3.8,13.8c-0.3,0.8-2.7,2.9-5.5,4.7c-2.7,1.9-4.7,3.8-4.6,4.4c0.2,0.5,2.6,1.1,5.4,1.3
		c4.4,0.3,9.8-1,17.3-4.1c1.1-0.5,2.4,1,4.7,4.9l3.2,5.6l-2.5,2.5c-2.5,2.5-2.9,2.6-12.5,2c-8.1-0.4-9.9-0.3-9.9,0.9
		c0,2.6,6.9,9.1,13.2,12.5c5.5,2.9,7.3,3.4,14.3,3.6c4.4,0.1,8.3,0.2,8.7,0.2c0.3,0.1,1.2,1.8,1.9,3.8c2.1,6.8,4.9,11.3,6.7,11.3
		c1,0,5.2-1.1,9.2-2.5s7.7-2.5,8.2-2.5c2.8,0-3.5,14.5-10,23.2c-2.3,3-4.2,5.8-4.2,6.3c0,2,13-0.3,21.5-3.9c5-2,9.7-3.8,10.5-3.9
		c2.7-0.3,6.2,12.4,6.6,23.8c0.1,5.6,0.7,10.1,1.3,10.3c1.4,0.5,3.4-4.6,5.5-13.8c2.6-11,2.5-10.8,4.2-8.6c0.8,1.1,1.4,3.9,1.4,6.3
		c0,4.4,1.4,5.5,3.7,3.2c3.1-3.1,2.6,11.1-0.8,20.8c-1,3-2.7,6.7-3.9,8.2c-4.8,6.9-0.2,6.9,8,0l6.2-5.1l5.7,5.6
		c3.4,3.3,8.7,7.2,13.1,9.4c8.5,4.3,9.7,6.2,8.6,13.7c-0.6,3.4-1.6,5.7-3.7,7.8c-2.2,2.2-2.7,3.3-1.9,4.1c1.8,1.8,10.1,1.1,14.6-1.2
		c3.9-2,12.4-10.5,12.4-12.3c0-2.8,2.1,0.1,5,6.8c1.8,4.3,6.7,14.2,10.7,21.9c10.9,20.9,13.7,29.5,14.3,43.6c0,1.3,4.8,0.9,8.3-0.6
		c1.8-0.7,5.3-2.9,8-5c2.6-2,5.1-3.6,5.6-3.6s1.9,2.6,3.2,5.8c3.1,7.8,13.6,27.7,15.4,29.2c2.1,1.7,3.4-1.6,4.1-10.2
		c0.8-9.6-0.8-19-6.2-35.8c-5.2-16.2-6.5-21.8-5.3-22.6c0.5-0.3,1.6,1.3,2.5,3.5c2.5,6.2,3.9,5.4,5.8-3.3l1.1-5.1l8.3-0.8l8.3-0.7
		l11.2,8.7c6.2,4.9,16.3,12.6,22.5,17.3c12.4,9.4,12.1,8.9,14.3,23c1.3,8.6,0.6,34.5-1.1,42.8c-1.4,6.3-2.9,7.3-14.7,9.5
		c-8.8,1.7-19.4,6.1-28.9,12.2c-6.6,4.2-7.4,5.1-7.4,8.2c0,2.5-5.8,7.6-23.7,21c-12.1,9.1-36.3,33.3-48.8,48.8
		c-15.5,19.2-29.2,43.2-39.6,69c-7.3,18.5-17.4,49.9-20.6,64.2l-2.7,12.3H86.3H0V425V0z"/>
	<path id="path10" fill="#CCFF00" d="M257.2,27.4c19.5,7,22,8.1,34.5,15.7c26.2,16.1,32.3,20.7,46.1,34.6
		C345.4,85.4,351,91.9,351,93c0,1,0.3,2.1,0.8,2.4c0.4,0.2,5.7-0.6,11.7-1.9c25.2-5.5,69.3-6,95-1.1c7.7,1.5,17.3,3.5,21.3,4.6
		l7.2,1.8l1.5-2.7c3-5.9,26-24.7,43.5-35.7c45.4-28.6,79.4-39.8,100.9-33.3c7.7,2.3,9,4.2,12.2,17.9c5.6,23.7,7.7,68.6,4.4,92
		c-1.3,9-2.2,11.9-6.5,20.5c-7.3,14.6-11.3,21.2-15.5,25.5c-3.7,3.8-3.8,3.9-3.1,9.8c1.1,10.1,0.1,9.8-18.9-6.3
		c-38.8-32.8-65.9-47.7-111-61c-31-9.1-48.5-12.2-74.3-13.4c-21-1-35.4-0.2-51.4,2.9c-44.8,8.7-72,19.4-97.1,38.1
		c-11.2,8.3-32.3,27.1-40.2,35.9c-2.7,3-6.9,7.3-9.2,9.5c-4.2,4.2-10.8,8.3-11.7,7.4c-0.3-0.2,0.2-3.5,1-7.2
		c1.5-6.6,1.5-6.9-1.1-14.4c-5.7-16.7-12.1-52.9-13.6-77.8c-2.3-38,5.3-79.9,15.4-84.9C219.6,18,237.3,20.3,257.2,27.4z M237.2,49.4
		c-8.9,2.2-14.1,9.3-14.2,19.1c0,2.7-0.7,7.7-1.5,11c-1.2,5.3-1.2,6.7,0.2,12.4c1.5,5.8,1.5,6.8,0,11c-2.3,6.8-2.7,11.8-1.6,19.1
		c0.6,3.6,1,8.1,0.9,9.9c0,1.9,1,5.9,2.2,8.8c2.1,5.1,2.1,5.4,0.5,8.8c-2.4,5-2.2,6.6,1.7,11.1l3.4,3.9l7.3-7
		c17.1-16.2,65.8-46.6,82.6-51.6c2.4-0.6,5-2,5.9-3c1.4-1.6,1.5-2.2,0.3-5.2c-2.2-5.4-13.7-17.3-19-19.5c-2.5-1.1-5.8-3.2-7.2-4.6
		c-2-2-3.6-2.6-6.8-2.6c-3.6,0-4.6-0.5-8.4-4.6c-3.2-3.6-4.8-4.6-6.3-4.2c-1.3,0.4-2.6,0-3.4-1c-2-2.4-10.7-7.6-16.8-10
		C249.8,48.3,243.7,47.8,237.2,49.4z M603,53.6c-0.8,0.3-4,1.6-7,2.9c-3,1.2-8.9,3.4-13,4.8c-9.4,3.1-25.5,10.2-29.2,12.9
		c-1.6,1.1-3.5,3.2-4.3,4.8c-0.8,1.6-3.4,4.1-5.7,5.7c-2.3,1.6-5.2,4.4-6.5,6.3c-3.7,5.9-5.1,6.9-11.3,8.7c-3.3,0.9-6,2-6,2.4
		c0,1.2,4.9,4.3,14,8.9c11.6,5.8,36.4,20.4,42.6,25.1c2.9,2.1,7.4,6.4,10,9.5c2.7,3.2,7.2,8,10,10.8s5.9,6.4,6.9,7.9
		c1,1.5,2.3,2.7,3,2.5c2.8-0.7,9.3-9.8,10-14c0.4-2.4,1.6-6,2.6-8c1.4-2.8,1.8-4.8,1.3-7.8c-0.6-3.4-0.2-4.7,2.1-8
		c3-4.4,3.5-8.4,2.1-18.2c-0.8-5.3-0.7-5.9,1.8-8.8c3.4-4.1,3.4-8.3-0.1-14.6c-1.8-3.4-2.6-6.3-2.6-9.8c0.1-3.5-0.6-5.8-2.3-8.4
		c-1.9-2.7-2.4-4.6-2.2-8.1c0.3-4.1,0-4.7-2.4-5.9C613.7,53.8,605.3,52.7,603,53.6z"/>
	<path id="path12" fill="#FFCC00" d="M247.2,52.1c2.9,1.2,8.4,9.2,9.4,13.4c1.4,5.9,3.6,8.7,11.2,13.6c4.2,2.8,8,5.6,8.4,6.3
		s0.2,4.3-0.4,7.9c-1.3,7.8-2.6,7.7-5.3-0.4c-1.1-3.1-2.8-5.7-4.7-7.1c-4-3-8.1-7.2-18.3-19.2c-8.2-9.5-10.3-13.7-7.2-14.9
		C242.4,50.8,244.8,51,247.2,52.1z"/>
	<path id="path14" fill="#FF9900" d="M237.7,57.1c1.2,2.2,5.4,7.5,9.3,11.7c10.9,11.9,15.8,23.7,16,38.9c0,5.7-6.3-2.4-8.6-11
		c-1.8-6.7-5.1-12-13.3-20.9c-3.9-4.3-7.7-9.1-8.6-10.7c-2.2-4.4-1.9-8.7,0.7-10.5C235.3,53.1,235.5,53.2,237.7,57.1z"/>
	<path id="path16" fill="#FF9900" d="M259,55.5c2.9,1.5,3.3,2.3,4.5,8.5c0.4,1.9,1.6,5.2,2.7,7.3c2.4,4.8,1.8,5.6-2,2.8
		c-2.8-1.9-6.2-8.3-6.2-11.5c0-0.7-1.1-3-2.5-5C252.8,53.5,253.9,52.8,259,55.5z"/>
	<path id="path18" fill="#FFCC00" d="M271.5,64c3.6,3.7,3.9,4.5,4.3,10.5c0.4,6.4-0.4,7.9-2.6,5.2c-1.9-2.3-6.9-13.1-7.7-16.5
		C264.6,58.7,266.6,59,271.5,64z"/>
	<path id="path20" fill="#FFCC00" d="M228.3,60.5l1.7,4c1,2.2,5.2,7.8,9.3,12.3C246.6,85,253.1,95,251.1,95c-0.5,0-1.3-0.5-1.6-1
		c-0.4-0.6-4.1-3.4-8.3-6.2c-8.6-5.8-9-6.2-12.8-13.3c-2.5-4.7-2.5-5.3-1.4-9.5L228.3,60.5z"/>
	<path id="path22" fill="#FF9900" d="M280.4,68.7c0.7,1.6,1.9,6.2,2.5,10.2c1.1,7.2,3.4,12.5,6.6,15.1c1.7,1.4,2.1,9.5,0.5,10.5
		c-0.5,0.3-2.3-0.4-4-1.7c-5.6-4.1-6.4-6.3-7.1-19.8c-0.4-6.9-1.1-13.5-1.5-14.8C276.5,65,278.6,65.4,280.4,68.7z"/>
	<path id="path24" fill="#FFCC00" d="M290.1,77.5c0.3,2.2,1.3,5.5,2.2,7.3c1.4,2.4,1.5,3.7,0.7,5.2c-1.5,2.8-2.5,2.5-4.9-1.4
		c-2.3-3.6-3.8-11.4-2.7-14.1C286.6,71.4,289.5,73.3,290.1,77.5z"/>
	<path id="path26" fill="#FF9900" d="M296.3,76.8c2.6,2.6,2.7,3.1,1.6,5.1c-0.8,1.1-1.9,2.1-2.5,2.1c-2.2,0-4.4-7.7-2.7-9.4
		C293.1,74.3,294.7,75.2,296.3,76.8z"/>
	<path id="path28" fill="#FF9900" d="M226,75c0.6,0,1,0.6,1,1.3c0,2,5.8,8.4,10.6,11.7c2.4,1.7,5.6,5.2,7.1,7.8
		c2.7,4.5,2.8,5.2,2.8,18.9c0,7.9-0.2,14.3-0.5,14.3c-1.2,0-5-3.2-5.9-4.9c-0.7-1.2-0.5-3.7,0.4-7.7c0.8-3.2,1.4-6.9,1.5-8.2
		c0-4.4-5.2-13-11.6-19.2c-5.8-5.5-6.4-6.5-6.4-10C225,76.8,225.5,75,226,75z"/>
	<path id="path30" fill="#FFFF33" d="M300,86c-1.7,4.2-0.7,14.1,1.9,18.5l2.1,3.6l-3.3,1.9c-4,2.5-4.2,2.5-6.1-0.2
		c-3.3-4.7-1.4-18,3.5-24.9C300.7,81.2,301.7,81.8,300,86z"/>
	<path id="path32" fill="#FFCC00" d="M310.2,84.7c1.3,1.1,1.8,3,1.8,6.5c0,2.7,0.7,6.4,1.5,8.4c1.3,3.1,1.3,3.6-0.1,4.1
		c-2.5,0.9-4-1.7-5.9-9.7c-0.9-4.1-1.9-8.3-2.2-9.3C304.7,82.5,307.7,82.4,310.2,84.7z"/>
	<path id="path34" fill="#FFCC00" d="M224.7,86c0.5,0,3.2,2.2,6,4.9c8.7,8.3,12.3,17.9,8.9,24.1l-1.4,2.5l-0.8-3.9
		c-0.5-2.7-2.3-5.7-5.9-9.6c-3.1-3.3-5.5-7.1-5.9-8.9c-0.3-1.7-0.9-4.5-1.2-6.1C224.1,87.3,224.2,86,224.7,86z"/>
	<path id="path36" fill="#FFFF33" d="M262.7,86c1.8,0,4.4,3.7,6.4,9.1c1.2,3,2.5,5.9,3.1,6.6c0.9,1.1,1.8,13.3,1,13.3
		c-0.2,0-1.5-0.6-3.1-1.4c-3.6-1.9-5-5.4-6.1-14.6c-0.5-4.2-1.2-8.8-1.5-10.3C262.1,87.2,262.2,86,262.7,86z"/>
	<path id="path38" fill="#FF9900" d="M305.6,95.9c2.4,8.8,2.5,11.9,0.2,10.5c-3.3-2-6-14.2-4.2-18.9
		C302.5,85.2,302.8,85.8,305.6,95.9z"/>
	<path id="path40" fill="#FF9900" d="M313.9,89.5l4,4.4c2.3,2.4,4.1,4.7,4.1,5.1c0,0.4-1.1,1.2-2.5,1.8c-3,1.4-4.1-0.2-5-6.9
		L313.9,89.5z"/>
	<path id="path42" fill="#FFCC00" d="M248.9,97c1,0,3.7,8.7,5.1,16.5c0.5,3.3,2.5,8.9,4.3,12.5c1.7,3.6,3.3,6.8,3.5,7.1
		c0.3,0.7-6.7,5.4-7.2,4.8c-0.1-0.2-1.5-3.5-3-7.4c-2.6-6.5-2.7-7.6-2.1-17c0.3-5.7,0.2-11.4-0.4-13.3C248.6,98.5,248.5,97,248.9,97
		z"/>
	<path id="path44" fill="#FFCC00" d="M277.8,97.7l5.7,4.9c11.9,10.1,12,10.4,7.8,12.3c-2.4,1.1-2.9,0.9-6-2.1
		c-4-3.8-5.7-6.9-6.8-11.7L277.8,97.7z"/>
	<path id="path46" fill="#FF9900" d="M230.3,105.8c3.5,3.5,6.6,10.6,5.3,11.9c-0.3,0.3-2.4-0.6-4.7-2.1c-4.4-2.9-7.4-8.5-6.4-11.7
		C225.4,101.2,226.1,101.5,230.3,105.8z"/>
	<path id="path48" fill="#FF9900" d="M278.2,106.6c1,2.1,3.4,5.5,5.4,7.5l3.5,3.6l-3.3,2.2l-3.3,2.1l-1.7-2.1
		c-3-3.6-4.6-11.6-3.1-15.4C276.2,103.1,276.7,103.6,278.2,106.6z"/>
	<path id="path50" fill="#FFFF33" d="M256.3,106.3c2.9,4.5,9,13.5,11.3,16.6c3.1,4.4,3,5.7-0.5,7.5c-2.8,1.5-2.9,1.5-5.5-2.4
		c-3.3-5-6.6-14.9-6.5-19.7C255.1,105,255.3,104.7,256.3,106.3z"/>
	<path id="path52" fill="#FFCC00" d="M222.6,112c0.4,0,2.2,1.2,4,2.7c8.9,7.2,12.8,11.1,14,14c3.1,7.4,0.9,7.1-7-1
		c-3.3-3.5-7.1-6.9-8.2-7.7c-1.2-0.8-2.4-3-2.8-4.8C222.3,113.5,222.3,112,222.6,112z"/>
	<path id="path54" fill="#FFFF33" d="M264.2,113c1.9,0,9.8,5.1,12.3,7.9c1.9,2.2,1.9,2.3,0,3.7c-2.9,2.1-4,1.7-6.8-2.4
		c-1.5-2-3.6-4.9-4.7-6.5C263.4,113.8,263.2,113,264.2,113z"/>
	<path id="path56" fill="#FF9900" d="M227.1,123.7c3.2,1.9,6.9,8.5,6.9,12.2v2.3l-4.1-2.4c-4-2.4-6.8-7.3-6.9-12.1
		C223,121.6,223.5,121.6,227.1,123.7z"/>
	<path id="path58" fill="#FF9900" d="M245.9,131c2.6,1.3,6.1,5.9,6.1,7.9c0,1.8-3.6,4.5-4.9,3.7c-0.9-0.6-3.1-8.4-3.1-11.1
		C244,130.3,244.4,130.1,245.9,131z"/>
	<path id="path60" fill="#FF9900" d="M236.9,134c1.3,0,6.8,6.6,7.6,9c0.6,2-0.9,5-2.5,5c-0.9,0-2.9-4.2-4.6-9.8
		C236.7,135.9,236.5,134,236.9,134z"/>
	<path id="path62" fill="#FFCC00" d="M231.3,139c4.9,3.1,8.5,8.6,7.4,11.5c-0.5,1.3-1.9,0.4-6.6-4.2c-3.2-3.2-6.4-6.8-7-8.1
		C223.4,135,225.5,135.3,231.3,139z"/>
	<path id="path64" fill="#FF9900" d="M230.5,147.6c1.5,0.6,5.2,6.4,4,6.4c-1.4,0-6.5-4.5-6.5-5.7C228,146.8,228.2,146.8,230.5,147.6
		z"/>
	<path id="path66" fill="#FF9900" d="M229.1,153.3c2.5,1.6,3.1,3.3,1.5,4.6c-1,0.9-1.9,0.6-3.7-0.8c-2-1.6-2.1-2.1-1-3.4
		C226.9,152.4,227.5,152.3,229.1,153.3z"/>
	<path id="path68" fill="#FFFF33" d="M609.6,58c3,0,5.4,0.4,5.4,0.8c0,2-15.5,13.1-16.6,11.9c-0.8-0.8,1.3-6.3,3.8-10
		C603.9,58.3,604.8,58,609.6,58z"/>
	<path id="path70" fill="#FF9900" d="M600,59.5c0,0.3-1.3,3.5-3,7.2c-1.6,3.6-3,7.1-3,7.7c0,1.4-5.8,8.6-7,8.6
		c-0.5,0-0.2-1.6,0.6-3.7c0.9-2,1.9-6.3,2.2-9.7c0.7-5.7,0.9-6.1,4.7-8.3C598.5,59,600,58.5,600,59.5z"/>
	<path id="path72" fill="#FFCC00" d="M615.1,63.1c0.4,0,0.9,1.1,1.1,2.6c0.3,1.6,0.9,3.6,1.3,4.5c0.6,1.4,0.2,1.8-1.6,1.8
		c-4.3,0-12.3,5.7-21.1,14.9c-4.7,5-9.3,9.1-10.2,9.1c-2.2,0-2-0.7,1.3-6.5c3.7-6.4,13.7-16.3,22.1-21.9
		C611.6,65.2,614.8,63.2,615.1,63.1z"/>
	<path id="path74" fill="#FFCC00" d="M586.4,64.6c2.3,0.9,2,5.4-0.9,13.7c-1.3,4-3.1,10.1-3.9,13.6c-1.1,4.9-2.4,7.3-4.9,9.9
		l-3.4,3.4l-0.7-5.3c-0.6-4.7-0.4-5.6,2.3-9.8c5.8-8.7,8.1-14.3,8.1-19.7c0-2.8,0.3-5.4,0.7-5.7C584.5,63.9,584.5,63.9,586.4,64.6z"
		/>
	<path id="path76" fill="#FFFF33" d="M581,69.9c0,2.1-0.5,5.3-1.2,7.2c-1.5,4.5-7.8,14-8.9,13.4c-0.8-0.5,0.6-5.7,3-12
		c0.7-1.6,0.9-4.5,0.6-6.6c-0.5-3-0.3-3.9,1.2-4.8C579.4,64.9,581,65.7,581,69.9z"/>
	<path id="path78" fill="#FFCC00" d="M573,74.4c0,1.8-4.7,11.2-7.2,14.6c-2.4,3.3-8.4,7.2-12.8,8.5c-1.8,0.5-0.4-1.3,5.2-6.6
		c6.7-6.5,7.8-8.1,9.3-13.4c1-3.3,2-6.4,2.3-6.9C570.4,69.6,573,72.8,573,74.4z"/>
	<path id="path80" fill="#FFCC00" d="M566,74.8c0,3.4-4.5,10.8-8.9,14.5c-4.4,3.7-5.9,3.4-2.6-0.4c2.9-3.5,6.5-10.1,6.5-12
		c0-0.7,0.7-2.1,1.7-3.1C565,71.3,566,71.6,566,74.8z"/>
	<path id="path82" fill="#FFFF33" d="M619.8,77.2c0.3,2.3-0.2,2.8-3.5,3.7c-4.7,1.3-11.3,1.4-11.3,0.2c0-1.1,4.8-4.7,8.1-6
		C617.1,73.4,619.5,74.2,619.8,77.2z"/>
	<path id="path84" fill="#FFCC00" d="M558.2,78.6c-0.4,2.4-4.4,8.4-5.6,8.4c-1.4,0,0.2-7.1,2-9.1C556.7,75.6,558.6,76,558.2,78.6z"
		/>
	<path id="path86" fill="#FF9900" d="M621.8,84.7c0.2,0.9-0.9,1.3-3.8,1.3c-2.3,0-5.1,0.5-6.3,1.2c-1.2,0.6-3.7,1.5-5.7,2
		c-1.9,0.5-5,1.3-6.8,1.8c-4.3,1.1-4.8-0.2-1.7-3.9c2.5-2.8,3.1-3,10.8-3.4C619.8,83.2,621.3,83.3,621.8,84.7z"/>
	<path id="path88" fill="#FFCC00" d="M549.2,87c1.9,0,0.1,10.8-2.6,15.4c-3.3,5.6-5,7-8.1,6.2c-3.4-0.9-3.1-3.5,0.5-4.8
		c3.3-1.1,7.1-7.3,8.5-13.6C547.8,88.5,548.6,87,549.2,87z"/>
	<path id="path90" fill="#FFCC00" d="M619.4,88.9c1.7,0.7,1.6,0.9-1.2,2.9c-1.7,1.2-5.6,5.6-8.6,9.7c-5.8,7.6-7.3,9.1-8.3,8.2
		c-1.1-1.2-0.6-10.5,0.7-13.6c1.3-3.1,2.2-3.7,10-6.7C616,87.9,616.8,87.8,619.4,88.9z"/>
	<path id="path92" fill="#FF9900" d="M544,89c1.6,0,1.7,0.4,0.9,3.2c-1,3.8-3.9,8-5.9,8.6c-1.7,0.6-0.7-6,1.5-9.4
		C541.3,90.1,542.9,89,544,89z"/>
	<path id="path94" fill="#FF9900" d="M568,91.5c1.1,0.7,3,9.5,3,13.9c0,4.8-2.8,13.2-5.3,16.1l-2.2,2.5l-2.8-2.2l-2.8-2.3l2.5-5
		c1.6-3.1,2.8-7.5,3.2-11.5c0.4-3.6,1.3-7.8,2.1-9.3C566.5,92.2,567.5,91.2,568,91.5z"/>
	<path id="path96" fill="#FFFF33" d="M625,94c1.4,2.1,1.3,2.4-1.5,5.6c-2.9,3.4-4.1,9.8-2.5,13.8c1.3,3.5,0.7,4.2-4.7,5.1l-4.2,0.7
		l4.3-9.4c2.4-5.1,5.1-11.1,6-13.3C623.7,93.4,624.3,92.9,625,94z"/>
	<path id="path98" fill="#FFFF33" d="M596.4,95.2c-3.8,6.5-17.4,23.3-20.6,25.7c-4.8,3.5-8.5,4.2-7.2,1.3c0.4-0.9,1.6-4.3,2.7-7.4
		c2.5-7.2,8.6-13.6,16.9-17.7C594.7,93.8,597.6,93.2,596.4,95.2z"/>
	<path id="path100" fill="#FF9900" d="M619.6,97.2c-5.7,13.2-9.2,19.8-12.4,23c-4.8,5.1-6.2,4.9-6.2-0.7c0-3.7,0.6-5.2,3.3-8.2
		c1.8-2.1,5.7-6.8,8.7-10.6C618.9,93.3,622,91.7,619.6,97.2z"/>
	<path id="path102" fill="#FF9900" d="M558.3,98.7c0.7,0.4-2.5,5.3-7.7,11.7c-1.8,2.1-2.9,2.6-4.5,2.1c-1.1-0.3-2.1-1.2-2.1-1.8
		c0-2.2,6.1-8.7,9.8-10.6C555.9,99,557.8,98.4,558.3,98.7z"/>
	<path id="path104" fill="#FF9900" d="M535.8,99.1c0.9-0.3-0.1,3.1-1.6,4.9c-1.5,1.8-2.1,2-4.6,1l-2.8-1l4.3-2.4
		C533.5,100.2,535.6,99.1,535.8,99.1z"/>
	<path id="path106" fill="#FFCC00" d="M561.2,100.1c1.3-0.1-0.4,9.2-2.3,13.1c-2.2,4.3-3.1,5-5.3,4.2c-3.3-1.3-2.8-4.2,2.1-10.8
		C558.3,103.1,560.8,100.1,561.2,100.1z"/>
	<path id="path108" fill="#FFCC00" d="M597.5,99.5l0.9,7.5c1.2,9.8-0.3,20.3-4,27.7c-4.1,8-5.5,8.6-10,4.2l-3.5-3.6l6-12.6
		c3.4-6.9,6.1-13.1,6.1-13.7s1-3,2.2-5.3L597.5,99.5z"/>
	<path id="path110" fill="#FF9900" d="M590.8,108c0.6,1.7-10,23-11.8,24c-1.2,0.6-3,0-6-2l-4.3-2.8l3.9-2c4.7-2.4,10-7.4,14.5-13.7
		C589,108.9,590.6,107.4,590.8,108z"/>
	<path id="path112" fill="#FFFF33" d="M616.7,124.4c-5.7,2.5-7.2,4.2-13,14.6c-2.1,3.6-4.6,7.6-5.7,9l-1.9,2.5l-2.7-2.7l-2.7-2.6
		l2-2.9c1.1-1.5,3.2-5.1,4.7-8c3-6,7.7-10,14.9-12.4C622.4,118.4,625.8,120.4,616.7,124.4z"/>
	<path id="path114" fill="#FF9900" d="M619.3,128.2c-1.2,1.4-2,4.2-2.3,9.1l-0.5,7.1l-4,1.6c-2.3,0.8-6.2,2.8-8.8,4.4
		c-2.7,1.6-5,2.6-5.2,2.4c-0.5-0.5,11.9-21.6,13.8-23.5c0.7-0.6,2.5-1.9,4.1-2.7C620.1,124.7,621.7,125.6,619.3,128.2z"/>
	<path id="path116" fill="#FFCC00" d="M613.3,148c1.1,0,0.8,1.8-0.8,5c-1.3,2.4-2.2,3-4.9,3c-1.9,0-4.1,0.3-5,0.6
		c-1,0.4-1.6,0.1-1.6-0.8c0-0.7,2.6-2.8,5.8-4.5C609.9,149.5,612.8,148,613.3,148z"/>
	<path id="path118" fill="#FF9900" d="M610,158.9c0,0.5-0.7,1.4-1.5,2.1c-1.2,1-1.8,1-3,0c-0.8-0.7-1.2-1.6-0.9-2.1
		C605.3,157.7,610,157.7,610,158.9z"/>
	<path id="path120" fill="#990033" d="M422.3,45.4c9,4.1,10.1,5.4,9.4,10.7c-0.3,2.2-0.8,4.3-1.1,4.6s-3.3-1.3-6.7-3.6
		c-8.5-5.7-14.3-7.3-28.4-7.8c-9.7-0.4-14-0.1-22.5,1.7c-13.6,2.8-30.6,8.3-35.2,11.5c-2,1.4-3.9,2.5-4.2,2.5
		c-0.7,0-10-8.1-10.4-9.1c-1.3-3.3,38.4-14.3,60.3-16.7C397.8,37.6,409.3,39.4,422.3,45.4z"/>
	<path id="path122" fill="#990033" d="M489.6,44c8.5,1.5,26.1,6.9,31.7,9.7c5.6,2.8,5.8,4.7,1,7.6c-3.2,1.8-3.4,1.8-9.7-0.3
		c-4.1-1.3-10.9-2.4-18.8-3c-6.7-0.4-18.8-1.4-26.8-2c-16.7-1.4-19.9-0.9-28,4.5c-2.9,1.9-5.4,3.5-5.6,3.5c-1.2,0-0.1-7,1.5-9.6
		c2.2-3.6,10.9-8.9,16.7-10.3C457.1,42.8,482.4,42.8,489.6,44z"/>
	<path id="path124" fill="#993300" d="M413.2,53.9c8.5,3.3,18.8,10.5,18.8,13.3c0,1.4-3.4,0.9-7-1.2c-10.8-6.2-13.4-7.1-21.6-8.1
		c-9.6-1.1-22.5,0.5-32.8,4.1c-5.5,1.9-19.3,9.1-24.3,12.6c-2.2,1.6-2.5,1.5-6.3-2.4c-2.2-2.2-4-4.4-4-5c0-3.1,22.4-11.8,37.9-14.7
		C385.3,50.3,405.8,51.1,413.2,53.9z"/>
	<path id="path126" fill="#990066" d="M487.5,59.9c20,1.9,27.5,3.3,27.5,5.1c0,1.3-7.3,7-8.9,7c-0.7,0-4.6-1.2-8.5-2.6
		c-7.4-2.6-19.6-5.4-32.8-7.4c-9.5-1.4-16.8-0.2-25,4c-4.1,2.1-5.8,2.6-5.8,1.7c0-1.9,8.3-7.7,13.4-9.3
		C452.1,56.8,456.3,57,487.5,59.9z"/>
	<path id="path128" fill="#990066" d="M421.1,66.1c3.6,2.1,7,3.9,7.7,3.9c2.2,0,2.3,2.1,0.1,5.6c-1.7,2.7-2.7,3.5-4.3,3.1
		C411.3,75.6,407.2,75,396,75c-20.7,0.1-32.8,2.4-39.9,7.7l-3.3,2.6l-3.1-3.2c-3.9-3.9-3.3-5.2,4.9-10.3c8.4-5.3,20.3-9.7,30.3-11.3
		C399.7,58.1,410.6,59.8,421.1,66.1z"/>
	<path id="path130" fill="#993300" d="M471.5,65.5c14.8,2.5,31,7.4,31,9.2c0,0.6-1.7,2.5-3.8,4.1c-3.8,3-3.9,3.1-8,1.6
		c-10.7-3.8-27.1-7.4-34-7.4c-9.4,0-20.1,1.6-23.8,3.5c-3.8,2-3.9,0.2-0.1-3.4c4-3.7,12.4-8,17.4-9
		C456.6,62.8,456.4,62.8,471.5,65.5z"/>
	<path id="path132" fill="#990033" d="M471.5,77.5c15.1,4,19.5,5.6,19.5,7c0,4-13.5,6.5-24.2,4.6c-3.4-0.6-13.7-1.8-22.8-2.6
		c-9-0.9-16.6-1.8-16.8-2c-0.6-0.6,3.6-4.2,7.3-6.2c1.7-0.9,5.5-2,8.5-2.4C450.8,74.8,464.4,75.6,471.5,77.5z"/>
	<path id="path134" fill="#990033" d="M416.5,79c4.3,1.1,8.1,2.2,8.3,2.5c0.3,0.2-0.1,1.1-0.8,2c-1,1.2-3.9,1.5-15.4,1.5
		c-7.8,0-20.3,0.6-27.7,1.2c-13.5,1.2-23.7,1.3-24.8,0.2c-0.9-0.9,4.1-4.2,8.9-5.9c2.5-0.8,7.3-1.9,10.5-2.4
		C387.4,76.4,408,76.8,416.5,79z"/>
	<path id="path136" fill="#990000" d="M395.3,117c3.6,0,3.7,0.1,3.7,3.5c0,1.9-1.3,9.4-3,16.7c-4.5,20.5-6.6,45.5-5.2,64.2
		c1.1,15.2,5.2,34.8,8.7,41.6c2.5,4.8,1.9,8.2-2.6,14.3c-4.2,6-6.3,7.3-5.3,3.3c1.1-4.4-1.6-20.9-6.9-42.1l-5.2-21l0.1-21.5
		c0-18.5,0.3-22.7,2.2-30.5c4.4-18.3,7-26.7,8.3-27.6C390.9,117.4,393.2,117,395.3,117z"/>
	<path id="path138" fill="#990099" d="M410.1,117c7.1,0,8,0.2,9.3,2.2c6,9.4,10.1,48.4,7.6,72.3c-0.7,6.8-2.9,18.6-5.2,27.5
		c-5.9,22.8-7.5,30-8.3,35.4l-0.7,4.8l-3-2.8c-5-4.9-9.3-14.6-13.4-30.9c-5.5-21.6-4.8-59.3,1.6-87.5c1.6-7.4,3-14.5,3-15.7
		s0.3-2.8,0.6-3.7C402.1,117.3,403.8,117,410.1,117z"/>
	<path id="path140" fill="#990033" d="M423.7,117c5.5,0,12.3,24.1,14.8,52.6c0.9,9.1-0.9,29.6-4.1,48.9c-2,11.3-2.5,17.6-2.2,25.7
		c0.4,12.1,0.6,11.8-7.3,11.8c-3.6,0-5.4-0.5-6.9-2c-2.3-2.3-2.2-4.8,1.1-16c3.8-13.2,8.8-35.7,9.8-44c2.7-21.5,0.1-51.7-6.5-74.8
		C421.9,117.5,422.2,117,423.7,117z"/>
	<path id="path142" fill="#990000" d="M432.5,117.4c1.1,0.3,2.5,0.6,3.1,0.6c1.8,0,6.3,10.4,8.4,19.2c3.8,16.6,4.4,24,3.4,47.3
		c-1.5,37.4-1.2,49.6,1.5,60.3c1.3,5.1,2.1,9.6,1.8,9.9c-0.4,0.3-3.8,0.8-7.6,1.1c-6.9,0.5-7.1,0.4-8.1-2.2
		c-1.7-4.6-1.1-19.1,1.5-35.5c3.9-24.8,4.8-42.2,3-57.2c-1.7-14.6-5.9-33.7-8.6-39c-1-2-1.5-4-1.1-4.3
		C430.1,117.2,431.4,117.1,432.5,117.4z"/>
	<path id="path144" fill="#990000" d="M386,120.1c0,0.6-1.4,6.3-3,12.8c-4.9,18.9-6,27.3-6,44.4c0,16.9,0.7,21.7,7.6,48.6
		c1.9,7.4,3.7,16.6,4,20.5c0.6,7,0.6,7.2-2.6,10.3c-2.7,2.8-16.8,10.8-17.6,10.1c-0.1-0.2,0.4-2.8,1.2-5.8c2.9-11.4,1-29.3-5.4-50
		c-5-16.1-7.1-29.2-7.1-44.2c-0.1-16.4,2.7-29.6,8.7-41.5c2-3.8,2.5-4.1,7.9-5.1C381.8,118.9,386,118.8,386,120.1z"/>
	<path id="path146" fill="#990000" d="M442.8,119c1.7,0,3.8,0.7,4.7,1.6c4.1,4.2,9.6,18.2,12.7,33c2.2,10.4,2.3,12.9,2.3,53.4
		c0,23.4,0.4,44.7,0.9,47.4c1,5.6,0.8,5.6-6.2,1.2c-3.7-2.3-4.1-3-6.3-11.8c-2.7-10.7-2.9-19.6-1.5-59.3c0.8-22.2,0.7-24.9-1.3-36.3
		c-1.8-10.5-4.6-20.8-7.5-27.5C439.9,119.3,440.3,119,442.8,119z"/>
	<path id="path148" fill="#990033" d="M461.7,122.1c3,1.1,10.2,18.1,15.8,37.5c3.6,12.3,7.9,48.8,7.2,61.4c-0.4,9-5.1,31-6.6,31
		c-0.4,0-1.5-7.1-2.4-15.9c-1-8.7-2.2-17.4-2.7-19.2c-4.5-17.8-8-36.5-9-47.6c-1.3-16-4.9-31.4-9.6-40.6c-1.9-3.8-3.4-7.3-3.4-7.9
		C451,119.8,457.6,120.5,461.7,122.1z"/>
	<path id="path150" fill="#990033" d="M364.8,122.7c-6.6,13.3-8.9,22.9-9.5,40.9c-0.7,17.8,0.7,27.3,6.6,46.9
		c4.4,14.9,7.1,29.1,7.1,38.1v6.2l-3.8,1.5c-2.1,0.9-5.5,1.8-7.4,2.2l-3.6,0.7l-0.7-6.4c-0.9-8.3-4.1-30.2-5.9-40.3
		c-5.4-30.2-6.1-60.2-1.6-74c3.8-11.9,5.4-14.2,10.2-15.3C361.6,122,365.3,121.8,364.8,122.7z"/>
	<path id="path152" fill="#990099" d="M468.8,123.4c0.9,0.3,5.7,1.4,10.5,2.5c11.2,2.6,11.8,3,15.7,9.1
		c12.4,19.3,18.9,49.1,17.7,81.4c-0.6,16.7-1.9,22.6-7.2,33.8c-1.9,4-3.8,9.4-4.1,12c-0.4,2.6-1,4.8-1.4,4.8
		c-2.3,0-6.5-5.1-10.1-12.4c-4.6-9.4-4.9-11.9-3.5-30.6c0.7-8.3,0.4-14.8-1.3-30.5c-3-26.9-5-35.5-14.2-58.8
		c-2.2-5.3-3.9-10.2-3.9-10.8S467.8,123.1,468.8,123.4z"/>
	<path id="path154" fill="#990066" d="M349,125.4c0,0.2-1.1,2.8-2.4,5.7c-1.3,3-3.1,9-4.1,13.3c-2.7,12.1-1.7,40.2,2.4,64.1
		c3.8,23.2,6.4,41.9,5.9,44.2c-1.1,5.3-11.8-22.1-15.8-40.4c-3.3-15-6-38.9-6-52.4c0-13.6,1-20.6,4.2-28c1.7-4.2,2.3-4.7,6.6-5.6
		C344.9,125.2,349,124.8,349,125.4z"/>
	<path id="path156" fill="#990033" d="M330.6,131.2c-3.2,11.9-3.9,18.9-3.3,34.8c1.3,32.5,8.4,64.9,18.8,85.5
		c3.8,7.5,6.3,17.5,4.3,17.5c-0.5,0-3.8-3-7.4-6.8c-3.6-3.7-9.1-8.9-12.2-11.5c-7.5-6.2-13.5-14.9-18.6-26.7
		c-7.3-17.1-10.4-27.7-10.9-37.5c-0.6-10.5,1.8-30,4.7-39c3.4-10.2,4.9-11.9,13.7-15.4C329.4,128.3,331.5,128.2,330.6,131.2z"/>
	<path id="path158" fill="#990099" d="M508.8,134.6c11.6,4.3,16,8.3,21.4,19.6c4.6,9.3,10.2,26.9,12.2,37.8
		c2.2,12.2,4.6,36.7,4.6,47.4c0,9.3-2,24.6-4,30.3l-1.2,3.2l-5.1-2c-2.9-1.2-8-3-11.4-4c-7.2-2.3-6.5-0.7-9-19.4
		c-1.3-9.3-1.7-17.6-1.5-29c0.7-31.5-3.5-55.9-13.1-75.5c-2.8-5.8-5.3-10.8-5.5-11.3C495.4,130.2,499.3,131.1,508.8,134.6z"/>
	<path id="path160" fill="#660033" d="M192.7,135c1.4,0,1.6,0.7,3.8,13.5c0.9,4.9,1.8,9.7,2.1,10.6c0.3,1.2-1.9,3.2-7.8,7.2
		c-11.4,7.5-37.7,32.3-46.5,43.8c-12.5,16.2-22,29-30.5,40.9c-21.8,30.7-33.3,43.1-45.9,49.4c-9.3,4.7-13,5.3-17.9,3.1
		c-2.2-1-4.7-2.6-5.6-3.6c-1.6-1.7-1.6-1.9,0.2-2.4c5.7-1.7,14.8-7.3,21.7-13.2c12.5-11,23.4-23.8,49.8-58.8
		c31.5-41.8,57.6-74,67.6-83.2C188,138.3,192.1,135,192.7,135z"/>
	<path id="path162" fill="#990099" d="M307,138.4c0,0.2-1.1,3.2-2.4,6.7c-3.1,8.3-4.5,17.6-5.8,38.4c-1.4,22-1.5,35.1-0.4,50
		c1,14,0.2,17.3-6.8,28.9c-2.3,3.9-6.1,10.7-8.4,15.1s-5.9,9.8-7.9,11.9c-4.1,4.3-12.1,8.4-18,9.3l-3.8,0.6l3.2-3.7
		c4.6-5.2,6.7-9.7,10.8-23.2c4-13.2,5.8-26.6,7.5-56.4c1.6-28.3,4.7-45.5,10.7-58.9c3.5-8.1,6.6-11.6,13.6-15.5
		C305.1,138.2,307,137.5,307,138.4z"/>
	<path id="path164" fill="#990033" d="M526.9,142c2.1,0,17.7,7.8,19.4,9.7c2.6,3,12.3,26.3,16.2,38.9c6.6,21.7,8.1,43.1,4.5,66.9
		c-1.1,7.1-2,15.4-2,18.2c0,2.9-0.2,5.3-0.5,5.3c-1.6,0-7.1-7.6-10.8-14.9l-4.2-8.4l-0.7-18.1c-0.8-22.2-3.1-44.1-5.8-54.7
		c-4.2-16.5-9.6-30.7-15-39.3C526.8,143.6,526.3,142,526.9,142z"/>
	<path id="path166" fill="#990033" d="M286,149c0.4,0-0.3,2.2-1.6,4.9c-6.3,13.1-10.8,39.4-12.3,71.6c-1.2,25.9-3.6,39.4-9.8,56.5
		c-2.2,6.2-4.8-28.1-3.9-53.5c0.8-26.8,5.3-55.2,10.4-65.4c1.1-2.2,4.5-5.5,9.1-8.8C282,151.4,285.6,149,286,149z"/>
	<path id="path168" fill="#660033" d="M653.3,153.1c6.3,3.3,29.3,28,44.9,48.1c15.7,20.3,45.5,51.3,54.3,56.3
		c5.8,3.4,19,6.7,23.2,5.9c5.3-1,3.8,1.5-3,5c-10.7,5.5-18.4,3.8-32.9-7.2c-21.6-16.3-46.3-39.8-63.7-60.7
		c-6.5-7.7-16.1-18.4-21.5-23.8c-10.7-10.8-10.3-9.6-6-19.3C650.9,152.3,651.1,152,653.3,153.1z"/>
	<path id="path170" fill="#990066" d="M552.3,154.6c2.7,0.7,5.5,2.5,12.5,7.6c6.1,4.6,8,8.2,18.7,36c12.5,32.5,16.1,62,10.3,83.9
		c-3,11.1-6.2,17.6-11.5,23.7l-3.8,4.3l-0.1-8.3c0-9.3-2.6-19.4-7.6-29.2l-3-6l1.7-12.8c4-28.8-0.3-55.8-14-87.5
		C550.6,155,550.3,154,552.3,154.6z"/>
	<path id="path172" fill="#993300" d="M199.1,164c0.3,0,2.3,6.5,4.3,14.5c2.9,11.1,3.5,14.9,2.7,16.4c-0.6,1.1-4.2,4.1-8.1,6.7
		c-20.9,14-50.3,43.5-76.5,76.8c-22.5,28.6-28.7,36.9-40,53.4c-4.9,7.2-9.2,13.2-9.6,13.2c-0.3,0-1.3-2.2-2.3-5
		c-1-2.7-3.6-7-5.8-9.5l-4-4.5l5.4-5.3c2.9-3,8.4-10.4,12.2-16.7c3.9-6.2,10.8-16,15.5-21.9c4.8-5.8,11.5-14.7,15-19.6
		c6.6-9.2,24-32.7,36.3-49.2c10.3-13.6,38.5-40.2,49.3-46.4C196.3,165.3,198.8,164,199.1,164z"/>
	<path id="path174" fill="#990099" d="M264.3,165c0.5,0,0.6,1,0.3,2.2c-1.8,6-4.7,21.6-6.1,32.8c-3,24.4-3,49.8,0.2,83.3l0.6,6.7
		l-5.6,5.6c-6,6-6.4,7.9-1.6,7c1.6-0.3,4.2-0.8,5.8-1.1l2.8-0.6l0.6,12.3c0.4,6.8,1.1,24.8,1.7,40.2c0.5,15.3,1.2,28.2,1.5,28.6
		c0.3,0.5,0.2,4.1-0.1,8.1c-0.7,7-0.9,7.5-5.3,11.9c-5.2,5.2-13.3,9.5-15.9,8.5c-1.6-0.6-1.6-0.7,0.1-1.6c4.1-2.4,5.2-6.7,5.1-20.9
		c0-12.9-0.3-14.6-5.8-37.5c-10.9-46-12.9-59.2-13-87c-0.1-15.2,0.4-24.8,1.8-34.5c2-15.1,6.6-34.3,9.7-40.7
		c1.2-2.6,6.2-8.2,12.1-13.8C258.8,169.3,263.8,165,264.3,165z"/>
	<path id="path176" fill="#330000" d="M644.9,170c2.8,1.5,19.5,19,28.1,29.5c4.6,5.5,16.6,18.8,26.8,29.5
		c10.1,10.7,27.4,30.1,38.2,43c14.5,17.2,22,25.2,28,30c4.5,3.6,10.8,9.3,13.9,12.7c6.6,7.2,22.6,29.2,21.8,30
		c-0.7,0.6-12.7-2.9-18.9-5.6c-5.7-2.4-14.6-9.3-23.8-18.3c-8.2-7.9-20.3-23.2-49.7-62.8c-38.4-51.8-58.8-76.7-65.5-80.1
		c-4.2-2.2-4.5-2.9-2.2-6.4C642.8,169.6,643.6,169.3,644.9,170z"/>
	<path id="path178" fill="#990099" d="M583.1,175.2c6.7,5.1,7.3,5.8,12.4,16.3c13.1,27.5,16.2,40.6,18.5,80.5
		c1.1,20,4.3,54.4,6.1,66c4.1,27,9,41.4,18.2,53.2c3.4,4.5,2.7,4.7-6.2,1.9c-10.9-3.4-26.5-17.1-32.3-28.5c-2-3.9-2-4.5-0.8-18.8
		c0.9-10.6,1.1-19.5,0.4-31.1c-0.4-8.9-0.9-27.9-0.9-42.2c0-26.2-0.5-31.6-4.5-49c-2.4-10.1-8.5-27.9-14.4-41.8
		c-2.5-5.9-4.6-10.9-4.6-11.2C575,169.4,576.3,170.2,583.1,175.2z"/>
	<path id="path180" fill="#330033" d="M638.2,177l4.1,2.3c2.2,1.2,6.5,5.1,9.6,8.6c3.1,3.5,7.4,8.5,9.7,11
		c4.5,5,18.1,22.7,43.5,56.6c26.5,35.2,30.9,41.3,30.9,42.4c0,1.8-7,2.4-12.6,1.2c-14.3-3.2-24.2-11.9-35.3-30.7
		c-13.8-23.5-18.9-31.1-27.1-40c-9.4-10.3-18-17.6-25.3-21.4c-5.3-2.8-6.7-5.9-6.3-14.2c0.2-3.7,1-5.7,4.5-10.2L638.2,177z"/>
	<path id="path182" fill="#990033" d="M597.8,188c0.5,0,7,6,14.5,13.2c13.3,13,13.6,13.4,15.6,20.3c4.5,15.3,8.2,32.9,10.2,48.5
		c2.9,22.6,2.4,67.6-1,90.3c-3,20.1-3.1,20.3-6.4,13c-6.8-15.1-11.6-51.1-15.2-113.3c-1.3-22.1-6.2-43.9-13.4-59.4
		c-2.2-4.7-4.2-9.5-4.6-10.6C597.2,188.9,597.3,188,597.8,188z"/>
	<path id="path184" fill="#990000" d="M236.8,191.4c0.2,0.2-0.6,3.5-1.7,7.3c-2.6,8.7-4.8,21.3-6.1,35.6c-0.6,6.1-1.6,12.5-2.1,14.2
		c-4.8,14-6.8,29.4-8,63c-1.2,35.9-1.2,101.2,0.1,112.9c3.3,28.5,10.4,48.8,25.8,73.8c2.3,3.7,4.9,8.6,5.8,10.8c0.9,2.2,2.1,4,2.6,4
		c1.2,0,0.8-3.8-1.6-14.5c-2.1-9.6-2-21.5,0.3-21.5c0.4,0,1.4,4.4,2.3,9.7c2,11.6,6.9,28.1,13.9,47c5.9,15.9,5.9,16.2-2.5,22
		c-7.3,5-8.2,4.7-9.5-4.2c-1.2-8.4-7.2-22.4-19.2-45.1c-8.6-16.4-18.7-42.9-22.7-60c-7.9-33-9.7-76.4-6.2-148.9
		c1.5-31.2,8.3-77.5,12.9-88.1c1.3-2.8,5-7.7,8.8-11.6C233.4,194.1,236.6,191.2,236.8,191.4z"/>
	<path id="path186" fill="#990066" d="M303.7,208c3.5,9.4,4.6,25.8,2.8,41.7c-1.3,11.1-3.7,20.3-5.4,20.3c-0.3,0-0.6-8.4-0.6-18.8
		c0-10.3-0.4-25.8-0.9-34.6C298.6,198.6,299.4,196.8,303.7,208z"/>
	<path id="path188" fill="#330000" d="M204.7,213.2c-0.3,7.4-1.1,11.3-3.8,19c-3.4,9.4-3.7,9.8-9.7,14.3c-10.5,7.9-26.5,27.3-33,40
		c-5.2,10.3-10.5,26.1-18.2,54.3c-2.7,9.6-7.9,17.3-18.1,26.6c-10.8,9.7-26.1,15.7-36.3,14.1c-4.9-0.8-11.7-3.7-15.1-6.4l-2.5-1.9
		l7.8-0.3c7.3-0.4,8.3-0.7,14.7-4.9c16.6-10.8,35-33.9,43.2-54.2c1.4-3.4,4.5-14,7-23.7c6.3-25.2,10.8-38.1,15.6-45.4
		c7.5-11.2,31.8-33.7,42.3-39.2C204.7,202.3,205.2,202.9,204.7,213.2z"/>
	<path id="path190" fill="#660033" d="M632.8,208c2.2,0,11.7,6.7,18.6,13.2c11.1,10.2,18.1,19.4,29.5,38.6
		c16,27.1,20.8,32.4,34.7,39c5.1,2.3,7.2,2.7,15,2.7h9.2l6.5,8.1c3.6,4.5,10.9,12.1,16.1,17c8.2,7.6,10,9.9,13,16.4
		c4,8.8,6.9,21.7,6,26.6c-0.8,4.3-2,4.4-2.8,0.1c-0.3-1.9-3.6-7.2-7.2-12c-7.6-10-15.1-15.6-29.7-22c-12.3-5.3-16.2-8.2-28.8-20.7
		c-12-11.9-21.5-24.2-31.6-41c-13.6-22.5-32.4-47.4-43-56.9c-3.5-3.1-6.3-6.4-6.3-7.4C632,208.8,632.3,208,632.8,208z"/>
	<path id="path192" fill="#990066" d="M216.4,216.7c-0.2,1-1.7,9.4-3.3,18.8c-4.4,24.5-6.8,50.5-8.2,86.7
		c-2.6,68,2,116.8,14.1,148.1c1.6,4.3,3,9.3,3,11.1c0,5.5-4.7,13.5-9.8,16.7c-6.1,3.8-8.7,3.9-7.8,0.1c2.3-9.5,1.8-29.2-1.3-51.7
		c-0.5-3.9-1.7-15.3-2.6-25.5c-0.9-10.2-2.6-25.5-3.6-34c-5.3-40.9-2.6-115.2,5.1-143.5c2.4-9.1,8.6-23.4,11.2-26.3
		C215.8,214.6,217,214.4,216.4,216.7z"/>
	<path id="path194" fill="#993300" d="M640.4,221.6c10.8,11,29,35.9,40,54.7c10.3,17.6,24.2,34.6,38.6,47.4
		c6.6,5.8,11.1,8.7,19.8,12.9c15.8,7.6,23.6,12.7,28.7,19c6.2,7.7,6.4,8.9,2.2,13.3c-1.9,2-4.7,5.7-6.2,8.3c-1.5,2.7-3,4.8-3.4,4.8
		c-0.4,0-4.3-4.1-8.7-9.1c-4.3-5.1-17.3-17.6-28.9-27.9c-11.5-10.3-22.5-20.3-24.2-22.4c-4.7-5.3-13.4-18.5-26.1-39.6
		c-6.1-10.2-13.6-21.5-16.7-25c-12.2-14-21.2-29.4-23-39.3C631.5,213.4,633,213.9,640.4,221.6z"/>
	<path id="path196" fill="#FFCC99" d="M468.1,216c0.5,0,0.9,1.2,0.9,2.7c0,1.6,1.1,9.3,2.5,17.3s2.5,17.8,2.5,21.7
		c0,4.1,0.4,7.3,1,7.3c0.5,0,2.4-2,4.2-4.5c1.8-2.4,3.8-4.4,4.3-4.4c0.6,0,2.7,2.2,4.8,4.9c5.3,7,19.9,18.1,21.6,16.5
		c0.2-0.3-0.9-2.3-2.4-4.5c-2.4-3.5-2.7-4.6-2.2-9c0.7-6.1,4.4-14.7,5.7-13.4c0.5,0.5,1.2,4.7,1.7,9.3l0.8,8.5l9,2.6
		c5,1.4,11.7,4,15.1,5.7c6.2,3.2,7.3,3.2,9.1,0c0.8-1.6,1.5-1.2,5.1,3.7c2.3,3,5.1,6,6.2,6.6c1.9,1,4,6.6,4,10.8
		c0,2.2-0.3,2.3-4.7,1.7c-2.7-0.4-6.4-1.1-8.3-1.7c-9.8-2.7-20.3-4-38-4.5c-24.7-0.7-26.7-0.2-30.8,7c-4.3,7.8-5.5,11.7-3.7,12.4
		c0.9,0.3,2.5-0.1,3.8-0.9c6.7-4.2,14.7-5.9,31.6-6.4c31.4-1,51.2,4,53.3,13.6c2.9,12.9,4.8,27.9,4.8,37c0,5.8-1.4,22.4-3,37
		c-1.7,14.6-3.7,32.6-4.6,40c-4,35.5-6.9,50.1-11.3,56.9c-2.3,3.6-31.5,30.5-39.6,36.5c-9.5,7-53.4,32.9-70,41.3
		c-9.3,4.8-19.5,5.1-36.5,1.2c-10-2.3-14.3-4.6-35.5-19.1c-29.1-19.8-39.9-28.1-53.1-41.1c-14.2-13.8-23.6-25.8-29.3-37.7l-3.6-7.5
		l-0.1-55.5c0-30.5-0.4-61.9-0.8-69.6l-0.8-14.2l4.6-2.3c2.5-1.2,5.4-3.1,6.3-4.1c0.9-1,2.2-1.8,3-1.8c0.7,0,4-1.1,7.3-2.5
		s7.3-2.5,8.9-2.5c1.7,0,5.1-0.7,7.7-1.6c8.3-2.8,54.2-1,60.1,2.3c2.2,1.3,5.3,0.8,5.3-0.9c0-1.7-11.2-12-14.6-13.4
		c-1.8-0.8-7.8-1.5-13.2-1.8c-5.5-0.2-10.4-0.6-11-1c-0.5-0.3-7-0.1-14.3,0.4c-11.6,0.9-14.5,1.5-22.3,4.7
		c-11.3,4.5-18.2,7.8-22.4,11c-1.7,1.3-3.7,2.1-4.2,1.8c-1.4-0.9-1.1-17.4,0.4-21.7c2.2-6.1,10.8-20.1,11.6-18.8
		c0.4,0.7,0.5,3.2,0.2,5.6c-0.6,5.5,0.7,5.7,5,0.9c2.7-3.2,3.2-3.4,4.7-2.1c1.4,1.2,2.7,1.1,10.8-1.6l9.2-3l2.7-7.4l2.7-7.4l2.9,2.1
		c5.9,4.3,9.7,9.1,11.7,15.2c1.2,3.3,2.1,6.9,2.1,7.9c0,5.5,4.6-1.5,7.5-11.5c1.9-6.5,3.6-8.7,7.1-8.7c2.8,0,2.9,0.5,0.8,5.5
		c-0.9,2.3-1.2,4.1-0.6,4.7c1.1,1.1,9.3-2,18-6.8l6.2-3.5v3.5c0,1.9-0.4,4.6-1,6c-0.7,1.9-0.6,2.6,0.3,2.6c2.2,0,5.1-2.6,11.2-9.9
		l5.8-7l6.6,5.8c10.4,9.2,13.8,10.4,11.3,4c-1.5-3.9-1.5-4.2,0.3-5.5c1.6-1.2,10-1.6,31.1-1.5c1.7,0.1,6.4,1.4,10.4,3.1
		c4.1,1.7,7.7,2.7,8.2,2.2s0-2.8-1.1-5.3c-3.6-8.1-4.5-16.7-3.1-31C466.7,221.8,467.6,216,468.1,216z M342.5,325.4
		c-13.9-0.4-15.8,0.2-29.2,8.9c-11.6,7.5-16.8,8.5-21.3,4.2c-1.7-1.6-3.3-2.6-3.6-2.2c-1.3,1.2,0.7,7.5,3.6,11.5
		c3.4,4.8,14.8,14.5,16,13.7c0.5-0.3,0.6-2,0.4-3.8c-0.5-2.8,0-3.8,3.9-7.6c2.5-2.4,5-4.1,5.5-3.7c0.6,0.3,1.3,2.9,1.7,5.6
		c0.4,2.8,1.8,7.1,3,9.5l2.4,4.4l-5.2,0.3c-6.1,0.4-6.5,1.7-1,3.7c3.1,1.1,6.6,1.1,19.3,0.2c8.5-0.6,18.1-1.1,21.2-1.1
		c6.1,0,10.8-1.3,10.8-3c0-0.5-2.3-1-5.1-1c-4.9,0-5.1-0.1-4.5-2.3c0.4-1.2,1.4-5.8,2.3-10.2s1.7-8.1,1.9-8.3c0.7-1,4.9,2.6,8.5,7.3
		c2.3,3,4.5,5.5,5,5.5c1.9,0,0.8-6-2.2-12c-4.4-8.7-10-14.2-17.4-17C354.1,326.3,349.9,325.7,342.5,325.4z M504.5,325.5
		c-0.5,0.2-3.3,1-6.2,1.9c-2.9,0.9-8,3.2-11.3,5.2c-5.6,3.3-6.4,4.2-10.2,11.8c-2.6,5.3-3.9,9-3.4,10.1c0.5,1.5,1.6,0.7,6.4-4.4
		c7-7.4,9.8-8,10.7-2.4c0.3,2.1,1.5,6.3,2.6,9.3c3.3,8.9,3.3,8.7,0.7,9.3c-1.3,0.4-3.3,0.7-4.5,0.7c-1.3,0-2.3,0.4-2.3,0.8
		c0,2.2,6,2.8,27,2.7c18.8-0.1,23.4-0.4,27.8-1.9c4.8-1.6,7.3-3.8,5.9-5.2c-0.3-0.3-1.9,0.2-3.6,1c-3.1,1.7-9.1,2.2-9.1,0.8
		c0-0.4,0.9-3.3,1.9-6.3c1.1-3,2.3-7.8,2.7-10.7c0.3-2.9,1-5.2,1.4-5.2c0.4,0,2.8,1.8,5.4,4.1c3.5,3.1,4.6,4.8,4.6,7
		c0,1.6,0.4,2.9,0.9,2.9c2.2,0,11-12.5,12.5-17.8c2-7.2,0.7-9.1-3-4.4c-3.6,4.5-6.5,4.2-19.2-2.2c-6.3-3.3-13.1-5.9-16.6-6.5
		C520.1,325.1,506.9,324.7,504.5,325.5z M310.8,390.3c-4.1,6.4-10.8,18.8-10.8,19.9c0,2.1,2.2-0.7,5.2-6.5c1.7-3.4,4.6-8.6,6.4-11.5
		c1.9-2.9,3.4-5.5,3.4-5.7C315,384.9,313.1,386.6,310.8,390.3z M518.7,391.2c-0.9,1.8-3.4,6.5-5.6,10.5c-2.3,3.9-3.7,7.4-3.2,7.7
		c0.8,0.5,12.1-19.1,12.1-20.9C522,386.9,520.2,388.4,518.7,391.2z M298,389c-1.3,0-4.2,5.8-3.7,7.3c0.2,0.7,1.4-0.7,2.6-3.1
		C298.1,390.9,298.6,389,298,389z M304.6,390.3c-0.6-0.6-3.6,4-3.6,5.4c0,2.4,1.6,1.3,2.8-1.9C304.4,392.1,304.8,390.5,304.6,390.3z
		 M340.6,406.7c-0.9,1.9-1.2,3.3-0.6,3.3c0.5,0,1-0.4,1-0.8c0-0.5,2.5-4.8,5.5-9.7c3-4.8,5.5-8.9,5.5-9.1
		C352,387.8,345.2,397.5,340.6,406.7z M544.1,390c-1.9,0-12,19.4-10.8,20.6c0.4,0.4,0.8,0.5,1,0.3c0.1-0.2,2.6-5,5.5-10.7
		C542.7,394.6,544.7,390,544.1,390z M551.7,391.7c-0.4-1.3-6.7,9.1-6.7,11.1c0,2.3,2,0.2,4.6-4.9C551,395.1,551.9,392.3,551.7,391.7
		z M329.6,393.9c-1,1.1-1.6,2.7-1.4,3.7c0.2,1.2,0.8,0.6,2-2C332.2,391.5,332.1,391.2,329.6,393.9z M524.5,394.5
		c-0.8,1.4-2.2,3.6-3,4.9c-0.8,1.4-1.1,2.7-0.6,3.1c0.5,0.3,1.2,0.2,1.4-0.2c0.2-0.5,1.6-2.9,3.2-5.6
		C528.2,392,527.3,389.9,524.5,394.5z M319.1,393c-0.4,0-1.7,1.8-3,4c-1.7,3.1-1.9,4-0.8,4c0.8,0,2.1-1.8,3-4
		C319.1,394.8,319.5,393,319.1,393z M338.8,393.5c-0.2-0.2-1,0.5-1.7,1.6c-0.7,1.2-1,2.3-0.8,2.6c0.3,0.3,1.1-0.5,1.7-1.7
		C338.6,394.8,339,393.7,338.8,393.5z M509.5,396.1c-2.3,4.4-1.2,6,1.3,1.9c1.2-1.9,2.2-3.8,2.2-4.3
		C513,391.9,510.9,393.3,509.5,396.1z M556.2,395.5c-1.4,3.1-1.5,3.5-0.4,3.5c0.8,0,3.2-4.3,3.2-5.5
		C559,392,557.1,393.4,556.2,395.5z M533,394c-1.2,0-3.4,4-2.6,4.8c0.6,0.6,3.5-2.7,3.6-4.1C534,394.3,533.6,394,533,394z
		 M406.2,408.2c-0.7,5.7-2.3,15-3.6,20.8c-2.1,9.5-2.2,10.8-0.9,13.3c1.6,3.1,9.4,7.2,11.9,6.3c2.8-1.1,1.4-3.3-2.4-4
		c-2.1-0.3-4.8-1.6-6-2.9l-2.2-2.4l2.6-11.9c1.4-6.5,2.8-15.8,3.1-20.7C409.5,394.5,407.6,395.6,406.2,408.2z M356.8,399.8
		c-0.3-0.8-0.9-0.4-1.7,1c-1.5,2.8-0.9,3.9,0.9,1.8C356.6,401.7,357,400.5,356.8,399.8z M445.4,442.5c-1,2.4-4.1,3.7-6.2,2.6
		c-2.5-1.3-4.7,0.6-3.1,2.6c1.8,2.1,6.7,1.5,9.4-1.2c1.4-1.3,2.5-2.9,2.5-3.4C448,441.3,446,440.8,445.4,442.5z M381,478.4
		c0,3.1,0.4,3.6,3.8,4.7c5.3,1.7,6.7,2.9,11.3,9.5c5,7.2,12.2,14.8,16.9,17.7c2.8,1.7,5,2.2,11,2.1c11.7,0,21-5.2,29.6-16.4
		c2.1-2.7,6.4-6.9,9.6-9.2c5.7-4.2,7.6-6.8,6.3-8.8c-1.1-1.8-3.1-1.1-5.3,2c-4.2,5.6-6.6,6.5-18.2,6.6c-5.8,0-12.4,0.4-14.7,0.9
		c-3.1,0.5-5.3,0.3-8.4-0.9c-2.5-1-9.4-2.1-17-2.6c-13.4-1-16.7-2-20.8-6.4C381.9,474.1,381,474.3,381,478.4z M405,478
		c-1.8,1.2-1.8,1.2,9.5,1.6c5,0.1,10.8,0.3,13,0.4c2.2,0.1,5.4,0.1,7-0.1c1.7-0.1,5.8,0.1,9.3,0.5c8.6,1.2,8.1-0.8-0.5-2.1
		C434.4,476.9,406.9,476.7,405,478z M398,511.3c0,2.6,7.7,9.1,14.8,12.5c6.7,3.2,7.8,3.4,14.5,3c8.5-0.6,13.5-2.8,19.1-8.7
		c5.1-5.2,3.9-6.5-1.5-1.6c-9.6,8.6-20.7,10-32.7,4c-4.2-2.1-8.1-4.9-9.6-7C399.8,509.9,398,509,398,511.3z"/>
	<path id="path198" fill="#0066FF" d="M343.5,341.7c-0.9,3.8-2.3,5.3-5.1,5.3c-4.8,0-6.6-6.7-2.8-10.5
		C339.2,333,344.8,336.7,343.5,341.7z"/>
	<path id="path200" fill="#0000CC" d="M357.2,338.8c2.3,2.3,3.9,8.4,3.2,12.6c-0.9,5.6-4.6,12.6-6.8,13.1c-1.2,0.2-6.6,0.6-12.1,1
		c-8.2,0.4-10.4,0.3-12.3-1c-5.5-3.9-7.8-14.7-4.8-22c2-4.8,3.6-4.4,3.6,0.8c0,6.8,2.6,14.2,6.1,17.1c3.9,3.3,10.5,3.6,13.6,0.6
		c2.8-2.6,6.5-12.3,7.1-18.8C355.3,336.9,355.3,336.8,357.2,338.8z"/>
	<path id="path202" fill="#6699FF" d="M348,355.3c0,1.4-2,3.7-3.2,3.7c-1.2,0-1-2.4,0.4-3.8C346.8,353.6,348,353.7,348,355.3z"/>
	<path id="path204" fill="#0066FF" d="M514.6,337.5c3.2,4.9-2.4,10.8-6.6,7c-2.2-2-2.7-6.4-0.8-8.3
		C509.2,334.2,512.8,334.8,514.6,337.5z"/>
	<path id="path206" fill="#0000CC" d="M499.9,337c0.5,0,1.1,3.5,1.3,7.7c0.4,9.4,2.9,14.9,7.9,17.7c9.7,5.3,19.9-4.5,21.1-20.3
		c0.3-4.1,1.4-4.8,2.9-1.9c3.2,5.9,2.5,17.2-1.4,23.2L530,366l-13.7-0.6c-7.5-0.2-14.4-0.9-15.3-1.4c-5.1-2.7-7.5-18.5-3.7-24.3
		C498.2,338.2,499.4,337,499.9,337z"/>
	<path id="path208" fill="#6699FF" d="M523,355.3c0,1.7-2,3.7-3.7,3.7c-1.6,0-1.7-2.2-0.1-3.8C520.8,353.6,523,353.7,523,355.3z"/>
	<path id="path210" fill="#FF3300" d="M402,489.4c0,1.6-1.8,3.1-2.7,2.2c-0.3-0.3-0.3-1.2,0-2.1C400.1,487.6,402,487.5,402,489.4z"
		/>
	<path id="path212" fill="#FF0066" d="M409.5,488c1.2,0,1,1-1,5c-1.4,2.7-3,5-3.5,5c-1.5,0-1.2-1.7,1-6
		C407.1,489.8,408.7,488,409.5,488z"/>
	<path id="path214" fill="#FF3300" d="M415,489c0,2.1-3.5,8-4.7,8c-1.7,0-1.7-0.4,0.7-5C412.9,488.3,415,486.7,415,489z"/>
	<path id="path216" fill="#FF3300" d="M406,489.7c0,0.5-0.9,1.9-2,3.3c-2.1,2.6-2.7,1.2-1-2.1C404,489,406,488.3,406,489.7z"/>
	<path id="path218" fill="#FF3300" d="M420.3,489.6c0.9,0.9-1.9,6.1-3.7,6.7c-2.4,1-2.9-1-0.9-4.3
		C417.4,489.1,419,488.3,420.3,489.6z"/>
	<path id="path220" fill="#FF0066" d="M425.2,492.6c-0.5,3-3,5-4.3,3.7c-0.9-0.9-0.8-1.8,0.5-3.8
		C423.3,489.6,425.7,489.7,425.2,492.6z"/>
	<path id="path222" fill="#FF0066" d="M440.6,491.4c0.9,2.2-2.4,7.6-4.6,7.6c-1.7,0-1.8-0.4-1-2.6c0.6-1.4,1.5-3.4,2-4.5
		C438.3,489.7,439.8,489.4,440.6,491.4z"/>
	<path id="path224" fill="#FF3300" d="M446.3,490.6c0.7,0.8-2.8,8-4.4,8.9c-2.2,1.4-2.2-0.7-0.1-5
		C443.9,490.2,444.9,489.3,446.3,490.6z"/>
	<path id="path226" fill="#FF3300" d="M434.6,491c1.1,0,1,0.9-0.6,4c-2.4,4.6-4.6,5.4-3.5,1.3c0.4-1.6,1.1-3.4,1.7-4
		C432.8,491.6,433.9,491,434.6,491z"/>
	<path id="path228" fill="#FF0066" d="M450.3,491.9c1.1,1.1-3.5,9.1-5.3,9.1c-1.5,0-1.2-0.9,1.6-5.8
		C448.4,492.1,449.5,491.1,450.3,491.9z"/>
	<path id="path230" fill="#FF3300" d="M429.5,493.7c-0.4,1-1,2.6-1.2,3.5c-0.6,1.9-3.3,2.5-3.3,0.8c0-0.5,0.5-2.1,1.2-3.5
		C427.5,491.6,430.7,490.9,429.5,493.7z"/>
	<path id="path232" fill="#FF3333" d="M422.3,500.2c1.2,0.6,4.2,1,6.7,0.9c2.5,0,6.5,0.5,9,1.3l4.5,1.3l-6,2.9
		c-8.1,3.8-15.3,3.9-21.6,0.2c-6-3.5-7.8-5.6-5.8-6.9S419.7,498.8,422.3,500.2z"/>
	<path id="path234" fill="#990066" d="M310,227c0.3,0,1.7,2.4,3.2,5.2c1.4,2.9,4.3,7.5,6.4,10.3l3.9,5l-0.2,9.4
		c-0.1,6.2-0.6,9.9-1.5,10.7c-0.7,0.7-4.1,2.2-7.6,3.3c-5.5,1.7-6.4,1.7-6.9,0.4c-0.3-0.8,0-7.6,0.8-15.1c0.7-7.6,1.4-17.2,1.4-21.5
		C309.5,230.5,309.7,227,310,227z"/>
	<path id="path236" fill="#330000" d="M642.2,247.1c5.9,6.2,16.4,21.2,23.9,33.9c16.5,28.2,29.8,45.1,46.4,59.3
		c12.4,10.5,30.6,29.2,37.3,38.2c2.4,3.3,6.2,9.5,8.3,13.7l3.9,7.8h-3.3c-8.3,0-15.3-4.5-29.7-18.9c-8.3-8.4-13.4-14.9-24.4-31.1
		c-7.7-11.3-16.3-23.4-19.1-27c-9-11.3-18-23.3-22.5-30c-2.4-3.6-7.3-10.1-11-14.5c-9.3-11.2-9.7-11.9-11.4-22
		c-0.9-5-1.9-10.1-2.2-11.5C637.9,242.9,638.5,243.1,642.2,247.1z"/>
	<path id="path238" fill="#993300" d="M196.7,245.3c0.2,0.2-0.1,3.7-0.7,7.8c-0.5,4.1-1.7,14.4-2.5,22.9
		c-2.3,21.9-1.5,20.1-9.2,23.9c-13.1,6.5-24.7,17.3-35.2,32.9c-3.4,5.2-6.4,9.2-6.7,9c-0.2-0.3,1.4-7.1,3.6-15.3
		c5.8-21.5,13-39,20.7-50.5c6.6-9.6,18.6-22.8,25.7-28.1C194.6,246.3,196.5,245.1,196.7,245.3z"/>
	<path id="path240" fill="#993300" d="M735,259.9c13.3,11,17.4,13,27.3,13.8c6.6,0.4,7.8,0.9,14.5,5.5c9.1,6.2,23.6,12.7,30.2,13.5
		l5,0.6v4.1c0,5.1-5,16.2-7.8,17c-2.5,0.8-19-2.7-23.4-5c-11.3-5.8-20.6-14-34.8-30.8c-6.5-7.8-14.9-17.7-18.6-22
		C719.4,247.2,719.9,247.4,735,259.9z"/>
	<path id="path242" fill="#660033" d="M147.6,251.3c0.2,0.1-1.2,5.2-3.1,11.2c-1.9,6.1-4.2,14.6-5.1,19c-1.4,6.6-2.2,8.4-4.8,10.5
		c-8,6.6-18.6,17.4-25.8,26.3c-17.3,21.2-27.5,30.9-36.7,34.9c-4.7,2-6.7,1.6-3.5-0.7c1.1-0.7,7.8-9.7,14.9-19.9
		c7-10.2,18.4-25.6,25.2-34.3c6.9-8.7,16.4-20.8,21.1-26.8c4.8-6.1,10.7-13.1,13.1-15.8C145.3,253.1,147.4,251.1,147.6,251.3z"/>
	<path id="path244" fill="#990033" d="M227.2,270.5c1.2,20.9,4.4,41,11.9,73.4c7.3,31.3,8.8,42.6,7.4,53.6c-0.8,6.6-3.8,10.5-8,10.5
		c-1.5,0-2.5,0.6-2.5,1.4c0,2.3,5.5,3.9,10.5,3.1l4.6-0.6l-0.7,17.3c-0.3,9.5-0.1,22.7,0.4,29.4c1,11.8,1,12.3-1.4,18.4
		c-2.5,6.1-2.5,6.3-1.1,14.6c0.7,4.6,1.1,8.4,0.8,8.4c-1.1-0.1-8.8-13.2-13.5-23c-8.5-17.3-13.7-38-15.5-61
		c-1.2-15.4-0.8-74.6,0.7-110.5c0.9-21.9,3.3-44.4,5-47C226.2,258,226.8,263.3,227.2,270.5z"/>
	<path id="path246" fill="#660033" d="M642.8,271.5l4.1,3.9c2.2,2.1,7,8.2,10.8,13.4c7.7,10.8,22.3,30.3,28.1,37.7
		c2.1,2.7,10.4,14.4,18.3,26c9.5,13.9,17.5,24.2,23.5,30.5l9.1,9.6l1.1,7.9c1.8,13.4,2.5,26.2,1.4,26.9c-1.4,0.8-9.4-7.1-12.5-12.5
		c-1.5-2.5-4.7-9.9-7.2-16.5c-6.6-17.5-18.6-38.2-29.2-50.5c-2.6-3.2-9.1-11.2-14.3-18c-5.2-6.7-12.8-16.1-16.9-20.8
		c-11.2-13.2-13.9-17.6-14.6-24.6c-0.3-3.3-0.8-7.6-1.1-9.5L642.8,271.5z"/>
	<path id="path248" fill="#990000" d="M567.9,273c1.4,0,6.1,11.5,7.6,18.7c1.8,8.5,1.8,13.7,0,18.8c-0.8,2.2-1.5,4.3-1.5,4.7
		c0,1.6,2.5,0.7,5.1-1.8l2.7-2.6l0.8,5.8c0.3,3.1,0.4,9.8,0,14.8c-0.9,13.5-2.4,39.3-3.6,64.1c-1.9,40.1-2.9,51.7-5.5,62.2
		c-2.6,10.9-4.4,23.6-4.6,32.3l-0.1,5.5l-2.4-9.5c-2.2-9.1-2.3-10.2-1.3-24.5c0.6-8.3,1.7-20,2.5-26c0.8-6.1,2.8-21.6,4.6-34.5
		c4.2-31.8,4.2-47-0.1-83.5c-1.7-14.9-3.6-28.8-4.1-31s-1-6.1-1-8.8C567,275.1,567.4,273,567.9,273z"/>
	<path id="path250" fill="#990033" d="M595.4,284.5l0.9,10c1.4,14.7,1.4,46.5-0.1,66.5c-0.7,9.6-1.9,26.3-2.7,37
		c-0.8,10.7-1.9,27.4-2.5,37c-2.9,49.6-7.1,66.2-26.3,104.5c-5.8,11.5-11.3,23.6-12.3,26.7c-1,3.2-2.1,5.8-2.5,5.8
		c-2.6,0-3.6-19.3-2-35.1c1.2-11.5,11.8-53.7,14.1-56.2c0.4-0.4,2.2,5.2,4.1,12.5c1.9,7.3,3.8,13.2,4.3,13.1c0.6-0.2,1.1-7.3,1.2-16
		c0.2-12,0.8-18.1,2.4-25.3c4.1-18,4.9-23.6,6-46.5c0.6-12.7,1.9-36.5,2.8-53c0.9-16.5,1.7-36.4,1.7-44.2c0-12.8,0.2-14.4,2.1-17
		c3.1-4.1,6-10.1,7.5-15.3L595.4,284.5z"/>
	<path id="path252" fill="#330033" d="M135.8,295.9c0.5,2.9-7,21.2-13.4,32.9c-6.4,11.5-18.6,25.5-26.1,29.9l-4.4,2.6l-2.9-2.8
		c-1.6-1.6-3.5-4.4-4.1-6.2c-1.1-3.4-1-3.5,6.3-11.1c4.1-4.2,11.7-12.9,17-19.2c12.7-15.3,15.3-18.1,21.8-23.5
		C134.8,294.4,135.5,294.1,135.8,295.9z"/>
	<path id="path254" fill="#990033" d="M273.5,295.2l0.7,5.6c1.9,16.4,3.2,63.8,3,108.7c-0.3,50.9-0.5,53.5-4.9,65.2
		c-1.5,4.1-5.8,9.2-6.8,8.1c-0.4-0.3,0.2-4.6,1.1-9.4c2.3-11.2,2.5-43.2,0.6-77.9c-0.7-13.2-1.7-34.6-2.2-47.5
		c-0.4-12.9-1.1-26.5-1.5-30.1c-0.4-3.7-0.4-9.2-0.1-12.3c0.7-5.5,0.9-5.7,5.4-8L273.5,295.2z"/>
	<path id="path256" fill="#660000" d="M499.8,295c2.9,0,3.1-0.2-5.6,6.5c-3.4,2.6-6.6,4.5-7,4.1c-0.4-0.5,1.7-3,4.6-5.7
		C495.4,296.6,498,295,499.8,295z"/>
	<path id="path258" fill="#660000" d="M512,296c0,0.5-0.5,1-1.1,1c-0.6,0-2.9,1.3-5.2,2.9c-2.3,1.7-5.5,3.3-7.2,3.7l-3,0.7l2.5-2.8
		c2.9-3.1,5.3-4.6,9.5-5.6C511.8,294.9,512,294.9,512,296z"/>
	<path id="path260" fill="#663300" d="M518.8,299.8c-6.1,3.4-9.8,4.5-11.6,3.3c-1.5-0.9,2.4-3.7,8.9-6.5
		C524,293.1,526.1,295.7,518.8,299.8z"/>
	<path id="path262" fill="#660000" d="M348.5,297.9c4.6,2,10.5,6.8,10.5,8.3c0,1.9-6.3-0.1-11.5-3.6c-2.8-1.8-6.1-3.7-7.4-4.1
		c-1.8-0.5-2.1-0.9-1-1.6C341.2,295.6,344.1,295.9,348.5,297.9z"/>
	<path id="path264" fill="#663300" d="M489.1,296h3.1l-4,4.7c-5.2,6.2-9,9.8-9.8,9.1c-0.7-0.8,2-6.2,5.3-10.6
		C485.5,296.8,486.9,296,489.1,296z"/>
	<path id="path266" fill="#993300" d="M646.8,297.5c1.1,1.1,7.5,8.7,14.3,17c35.5,42.9,46.4,59.4,57.1,86.3
		c3.2,7.9,7.4,16.6,9.3,19.4c2,2.7,3.4,5.6,3.1,6.4c-0.3,0.7-3.1,3-6.3,5c-3.2,2-7.7,5-10,6.5l-4.2,2.8l-2.5-2
		c-5-3.9-10.6-14.3-18.5-34.2c-4.4-11.1-9.7-24-11.9-28.7c-5.4-11.6-17.5-32.5-22.1-38c-2.1-2.5-4.2-5.4-4.8-6.5
		c-1.4-2.7-3.1-12.4-3.8-21c-0.3-3.9-0.8-8.8-1.1-11C644.9,295.5,644.9,295.5,646.8,297.5z"/>
	<path id="path268" fill="#660000" d="M339,300.3c8.1,4.2,8.7,5.7,2.2,5.7c-4,0-5.9-0.7-10.5-3.7c-3-2.1-5.3-4.1-5.1-4.5
		C326.7,296,333.1,297.2,339,300.3z"/>
	<path id="path270" fill="#660000" d="M366.3,302.7c3.7,2.5,6.7,4.7,6.7,4.9c0,0.2-1.6,0.4-3.5,0.4c-2.6,0-4.7-1.1-8.6-4.3
		c-2.9-2.3-5.4-4.8-5.7-5.6C354.5,295.9,358.8,297.7,366.3,302.7z"/>
	<path id="path272" fill="#660000" d="M534.5,297.9c-1.5,1.3-12.3,5.1-14.8,5.1h-2.1l2.2-1.6c1.2-0.8,3.5-2.2,5-3
		C527.7,296.9,536,296.4,534.5,297.9z"/>
	<path id="path274" fill="#663300" d="M368.8,299.1c3.2,1.1,13,9.4,12.1,10.3c-0.7,0.8-14.9-9.1-14.9-10.4
		C366,298.5,367.1,298.5,368.8,299.1z"/>
	<path id="path276" fill="#660000" d="M317.3,299c2.8,0,12.1,4.2,13.2,6c1.1,1.7-4.6,1.1-12.4-1.4c-6.3-2-7.1-2.5-5.5-3.4
		C313.6,299.6,315.8,299,317.3,299z"/>
	<path id="path278" fill="#663300" d="M542.6,299.1c2.1-0.2,7.4,1.1,7.4,1.9c0,1.6-7,3.1-13.4,2.9c-3.6-0.1-6.6-0.5-6.6-0.9
		c0-1,4.7-2.8,8.5-3.3C540.2,299.5,542,299.2,542.6,299.1z"/>
	<path id="path280" fill="#660033" d="M190.3,300c1.8,0,0.4,5-2.9,10.4c-2,3.3-5.3,9.4-7.4,13.5c-7.3,14.5-18.2,32.6-23.7,39.3
		c-7.6,9.4-21.9,22.7-28.5,26.6c-6.4,3.8-18.5,8.3-20.4,7.5c-1.4-0.5-3.7-10.1-3.2-13.4c0.2-1.5,2.6-3.6,7.1-6.3
		c3.7-2.3,8.3-5.4,10.2-6.9c5.7-4.6,15.4-16.5,26.4-32.6c12.3-18,21.9-27.7,33.8-33.9C186,301.9,189.8,300,190.3,300z"/>
	<path id="path282" fill="#660000" d="M557.8,302.1c2.2-0.2,5.2,1.9,5.2,3.4c0,1.7-3.1,1.9-9.5,0.6l-4-0.8l3.5-1.5
		C554.9,302.9,557.1,302.1,557.8,302.1z"/>
	<path id="path284" fill="#663300" d="M319,307.1c0,2.2-13.1,2.3-18.5,0.3c-1.7-0.7-1.7-0.8,0.1-2.1
		C304.1,302.8,319,304.2,319,307.1z"/>
	<path id="path286" fill="#663300" d="M303,311c0,1.7-5.9,2.9-9,1.9c-3.4-1.2-3.9-2.5-1.2-3.2C297.2,308.5,303,309.3,303,311z"/>
	<path id="path288" fill="#993300" d="M189.9,311c0.3,0,0.5,8.7,0.3,19.2c-0.3,23.1-0.7,24.5-10.1,34.3c-7,7.4-12.7,14.8-15.5,20.3
		c-3.3,6.5-7.4,21.9-9.6,36.2c-1.2,8-2.3,14.7-2.5,14.9c-0.2,0.2-0.7-1-1-2.5c-0.3-1.6-1.2-4.9-2-7.4c-2.7-8.6-3.7-18.1-3.3-31.3
		c0.5-15.8,1.1-17.5,10.6-29.2c7.6-9.4,15.3-22,25.8-41.8C186.3,316.7,189.6,311,189.9,311z"/>
	<path id="path290" fill="#663300" d="M291.7,315.6c0.5,1.6-6.4,5.7-8.2,5c-2-0.7-1.9-3.1,0.1-5.1
		C285.4,313.7,291.1,313.8,291.7,315.6z"/>
	<path id="path292" fill="#990066" d="M642.8,320c0.4,0,1.7,6.5,3,14.5c5.9,36.5,5.1,71.7-2.2,96.5c-1.4,4.7-4.8,16.3-7.6,25.8
		c-5.9,20.4-7,28.9-4.6,38.2c2.2,8.8,5.9,13.9,12.5,17.2l5.4,2.8l-2.9,1.1c-4.4,1.8-13.8,2.3-17.8,0.9c-4.6-1.5-6.2-4-7.1-11.2
		c-1.1-10,3.1-50.3,8-75.8c1.9-9.6,4-20.9,4.7-25l1.3-7.5l4-0.3c5.9-0.5,6.4-1.7,2.4-6c-5.8-6-6.8-8-5.8-11
		c1.7-5.3,5.9-40.9,5.9-50.5C642,324.4,642.3,320,642.8,320z"/>
	<path id="path294" fill="#330000" d="M668.9,366.6c5.7,10.5,10.9,22.3,17,38.5c10,26.7,11.5,30,17.1,36.4c3.8,4.4,4,5,4,11.1
		c0,6.9-1.8,12.5-5.2,16.1c-3,3.2-3.4,2.9-4.2-1.9c-0.9-5.8-7.9-19.5-12.4-24.3c-11.2-11.9-13.5-15.8-19.4-31.4
		c-2.2-5.8-5.7-14.3-7.9-18.8c-3.7-7.9-3.9-8.7-3.9-18.5c0-5.7-0.7-14.8-1.5-20.3c-0.8-5.5-1.5-10.6-1.5-11.3
		C650.9,337,658.6,347.4,668.9,366.6z"/>
	<path id="path296" fill="#330000" d="M190.3,362c0.4,0,0.7,3,0.7,6.6c0,5.8-0.6,7.8-4.4,15.8c-2.4,5-6.4,11.8-8.9,15.1
		c-4.4,5.6-7.2,12.6-10.7,26.2c-0.6,2.4-1.4,4.3-1.8,4.3c-0.4-0.1-2-2.7-3.6-6c-3-5.9-3-5.9-1.7-14.1c2.5-16.5,7.6-26,20.8-39.1
		C185.5,365.9,189.8,362,190.3,362z"/>
	<path id="path298" fill="#990000" d="M598.1,367c0.4,0,2.4,2.3,4.4,5.1s5.4,7.1,7.7,9.5l4,4.4l-0.1,13.2
		c-0.7,58.2-9.8,102.1-26.4,126.8c-1.6,2.5-7,8.6-11.8,13.6c-9.7,10-13.9,17.3-14.7,25.6c-0.5,5.3-1.7,6.2-3.2,2.2
		c-2-5.1-0.9-8.5,9.1-28.6c11.8-23.7,14.7-30.7,18.2-44.3c3.4-13.1,5.4-26.7,6.7-46.2c0.6-8.7,1.5-22.1,2-29.8
		c0.5-7.7,1.5-22.4,2.2-32.8C596.8,375.4,597.7,367,598.1,367z"/>
	<path id="path300" fill="#330033" d="M145.7,378.4c0.2,0.2-0.1,2.3-0.6,4.7c-0.6,2.4-1.1,9-1.1,14.5v10.2l-3.5,3
		c-6,5.3-21.7,13.3-23.2,11.8c-0.3-0.3,0.6-2,2-3.8c3.2-4.3,6.7-11.4,10.7-21.5c2.7-7.1,4-9,9.2-13.8
		C142.6,380.5,145.5,378.2,145.7,378.4z"/>
	<path id="path302" fill="#660033" d="M192,380c0.8,1.7,3.5,22.9,4.5,36l0.7,8.6l-4.1,2.8c-5.5,3.8-8.2,7.6-14,19.7
		c-4.6,9.6-12.1,20.1-13.5,18.9c-0.3-0.4,0.7-3.5,2.2-7c2.6-6.2,2.7-7.1,2.5-21.9c-0.3-20.9,1.3-26.4,12.2-41.6
		c3-4.2,5.5-8.1,5.5-8.5s0.7-2.5,1.6-4.6C190.8,379.6,191.4,379,192,380z"/>
	<path id="path304" fill="#990033" d="M617.6,388c0.3,0,2,1.1,3.7,2.4c1.8,1.3,5.1,3.2,7.5,4.1l4.3,1.8l-0.6,5.6
		c-0.9,7.4-5.2,30.7-6.5,35.1c-2.1,7.2-6.3,48.6-6.4,63c0,15.2,1.1,21.6,5.6,30.3c1,2.1,1.7,4.1,1.4,4.4c-0.2,0.3-3.7-1.2-7.7-3.3
		c-8.4-4.4-18.5-13.6-19.5-17.8c-0.5-2.1,0.3-6,2.9-14c7.7-23.5,11.5-45.9,12.8-76.1c0.6-12.7,1.2-25.8,1.5-29.3
		C616.9,390.8,617.4,388,617.6,388z"/>
	<path id="path306" fill="#660033" d="M654.9,392c1,0,5.4,9.8,11.1,24.8c3.8,10.1,5.2,12.4,12.6,21.2c11,13.1,10.8,12.7,9.4,21
		c-1.2,7.3-7.4,21.5-8.9,20.6c-0.4-0.3-1.1-2.4-1.5-4.7c-1-6.3-6-18.5-16.2-39.7c-5.1-10.6-9.4-20.5-9.6-22
		c-0.2-2.6,0.8-12.9,1.8-18.5C653.9,393.2,654.5,392,654.9,392z"/>
	<path id="path308" fill="#990000" d="M264.2,401c1.4,0,2.2,14.3,2.3,37.5c0,20.8-0.3,25.5-2.2,35.7c-2.7,13.5-2.7,13.8-1.2,13.8
		c2.8,0,9.7-8.7,12-15l2.4-6.5l0.6,19.5c0.4,10.7,1.2,23.1,1.8,27.5c1.2,7.8,6.2,28.4,10.2,41.4c1.9,6.3,2.7,20.1,1.1,20.1
		c-1.1,0-17.4-31.1-20.2-38.5c-4.8-12.9-10.2-29.4-12.5-38.5c-4.9-19.3-7.5-54.3-5.7-76.2l1-11.8l4.8-4.5
		C261.3,403.1,263.8,401.1,264.2,401z"/>
	<path id="path310" fill="#330000" d="M655.8,428.7c7.9,15.6,16.4,34.4,15.8,35c-0.3,0.3-2-0.7-3.9-2.3c-1.8-1.6-5.4-4.3-8-6.1
		c-5.5-3.8-11.4-11.5-12.3-16.1c-0.6-3,1-16.5,2.3-19.9C650,418.5,652.7,422.7,655.8,428.7z"/>
	<path id="path312" fill="#330000" d="M196.9,428.5c0.2,0.3,1,5.1,1.7,10.8c0.7,5.6,2,15.6,2.8,22.1c2.3,17.1,1.9,17.7-8.8,12.6
		c-6.5-3-11.5-8.2-14.1-14.4c-1.4-3.3-1.3-3.8,2.1-11.3c4.5-9.9,7.9-14.9,12.3-17.9C194.8,429.1,196.6,428.3,196.9,428.5z"/>
	<path id="path314" fill="#660033" d="M647.2,445.2c1.1,1.8,3.9,5.3,6.2,7.8c3.5,3.7,4.6,6,6.4,13c1.2,4.7,2.3,10.7,2.5,13.5
		c0.2,5.6-0.5,6.2-9.6,8.7c-4,1-5,1-5.6-0.1c-0.5-0.7-2.5-7.3-4.5-14.7l-3.7-13.5l2.7-8.2c1.5-4.5,2.9-8.6,3.1-9
		C645,442.2,646.1,443.3,647.2,445.2z"/>
	<path id="path316" fill="#330000" d="M638.1,466.7c1.2,1.2,6.1,20.1,5.7,22c-0.2,0.9-2,2.2-4,2.9l-3.7,1.3l-1.2-3.6
		c-1.3-4.1-0.5-16.9,1.3-20.9C636.8,467.1,637.7,466.3,638.1,466.7z"/>
	<path id="path318" fill="#990066" d="M284.9,478c0.4,0,3.1,3.9,6,8.7c2.8,4.9,8.1,12,11.6,15.9c7.3,8.1,7.2,8.4-2.5,8.4
		c-6.3,0-8,1.3-8,5.9c0,3.6-1.6,3.1-4.7-1.3c-3-4.2-3.1-4.9-3.8-18.4c-0.4-7.7-0.5-15.2-0.1-16.6C283.7,479.2,284.4,478,284.9,478z"
		/>
	<path id="path320" fill="#990066" d="M548.2,501c0.3,0-0.1,3-1,6.7c-0.8,3.8-2.2,10.1-3.1,14.2c-1.7,7.9-3.6,10.1-4.6,5.4
		c-0.4-1.5-0.8-3.4-1.1-4.1c-0.2-0.8-2.5-1.2-6.9-1.2c-3.7,0-6.5-0.4-6.5-1c0-0.6,0.3-1,0.8-1c0.4,0,5.4-4.3,11.2-9.5
		S547.8,501,548.2,501z"/>
	<path id="path322" fill="#FFCC99" d="M361.5,551c0.3,0,6.2,3.7,13.1,8.2c13.9,9,21.3,12.1,34.1,14.3c11.7,2.1,21.8,1.9,28.4-0.4
		c6.1-2.1,27-12.4,37.2-18.3c3.8-2.2,7.3-3.6,7.7-3.2c0.4,0.5,0.4,3.8-0.2,7.4c-1,6.7-0.4,24.4,1.3,36.5c1.3,9.8,3.2,15.4,9.2,27.2
		l5.1,10.2l-3,3.8c-8,10-26.7,21.1-39.9,23.8c-16.5,3.3-46.9,2.7-56.6-1.2c-6.5-2.5-27.4-14.7-33.5-19.4c-3-2.3-6.3-5.6-7.4-7.4
		c-2-3.2-2-3.5-0.4-7.7c5.8-15.9,7.4-24.8,7.4-42.3c0-10.1-1.1-22.7-2.5-29.3C361.2,552,361.2,551,361.5,551z"/>
	<path id="path324" fill="#66CC00" d="M503.9,619.3c1.1,1.4,1,2.2-0.9,5.2c-2.5,4-3.1,4.2-5.2,1.7c-1.8-2-6.8-10.6-6.8-11.5
		C491,612.7,501.5,616.5,503.9,619.3z"/>
	<path id="path326" fill="#66CC00" d="M353.3,622.4c-1.7,3.2-2.8,2.6-3.8-2.2c-0.6-2.8-0.3-3.3,1.7-4.1
		C356.4,613.9,356.9,615.3,353.3,622.4z"/>
	<path id="path328" fill="#669900" d="M342.1,618c1,0,3.6,3.3,5.7,7.6c4.8,9.4,22.1,25.8,33.2,31.4c6.9,3.4,16.3,6.5,26,8.5
		c4.1,0.9,7.8,1.9,8.2,2.3c1.7,1.7-3.3,12.9-9.1,20.2c-6.5,8.3-17.6,16.6-29.1,21.6c-5.4,2.4-7.9,2.8-15,2.9c-7.4,0-9.2-0.4-14-2.9
		c-8.8-4.6-19-15.5-23.8-25.6c-2.2-4.7-4.8-11-5.6-14c-1.8-6.3-5.9-36.8-5.1-38c0.8-1.2,19.1-10.8,24-12.5
		C339.7,618.7,341.8,618.1,342.1,618z"/>
	<path id="path330" fill="#669900" d="M511.7,623.1c0.9-0.5,17.5,10.4,18.4,12.1c2.6,4.9-1.2,31.3-7,48c-3.2,9.2-10,21.4-14.3,25.8
		c-5.8,5.8-13.9,9.3-21.3,9.3c-11,0.1-22.8-6.1-30.5-15.9c-2.5-3.2-7.6-9.4-11.3-13.7c-7.3-8.6-9.7-13.1-9.7-18.1v-3.2l8.9-1.2
		c25.9-3.5,45.8-15.4,58.7-35.4c2.4-3.6,5.2-6.9,6.2-7.1C510.7,623.4,511.6,623.2,511.7,623.1z"/>
	<path id="path332" fill="#00FF66" d="M307.2,645c1.5,0,0.5,3.2-1.4,4.4c-2.5,1.5-3.4-0.1-1.3-2.4C305.5,645.9,306.7,645,307.2,645z
		"/>
	<path id="path334" fill="#00FF66" d="M534.8,645c1,0,6.1,3.3,9.6,6.2c2.5,2.1,2.7,2.7,1.7,4.6c-0.6,1.2-1.6,2.2-2.1,2.2
		c-1.1,0-10-10.8-10-12.1C534,645.4,534.3,645,534.8,645z"/>
	<path id="path336" fill="#00FF66" d="M305.9,655.1c5.6,5.1,8,8.7,8.1,12.2c0,1.7-0.3,1.6-4.1-0.5c-2.3-1.3-6.4-4.8-9.1-7.8
		l-4.9-5.5l2.2-1.7C300.2,650,300.3,650.1,305.9,655.1z"/>
	<path id="path338" fill="#00FF66" d="M540.2,657.3c1.9,2.6,1.9,3,0.4,4.5c-1.4,1.5-1.8,1.4-4.6-1.3s-4-7.2-2.3-8.8
		C534.5,650.9,537.5,653.4,540.2,657.3z"/>
	<path id="path340" fill="#CCFF00" d="M293.6,655c0.7,0,2.2,1.3,3.3,2.8c2,2.9,2,2.9,0,6.9c-3.4,7-7.8,10.3-15.3,11.6
		c-5.9,1-6.8,0.9-8.3-0.6c-2.7-2.7-0.6-5.1,5-5.7c5.6-0.7,8.8-3.5,11.9-10.2C291.4,657.2,292.9,655,293.6,655z"/>
	<path id="path342" fill="#66CC66" d="M548.9,656.1c0.9-0.2,4.1,3.3,4.1,4.5c0,2.8-25.2,27.5-26.6,26.1c-0.4-0.3,0.2-3,1.2-5.9
		c1.4-4.3,3.5-7,11.3-14.9C544.2,660.6,548.7,656.2,548.9,656.1z"/>
	<path id="path344" fill="#CC6600" d="M287.8,659.5c0.2,0.2-0.3,1.6-1.1,3.2c-1.6,3-5.7,5.8-7.5,5.2c-1.4-0.5,0.3-2.7,4.8-6.1
		C285.9,660.3,287.6,659.3,287.8,659.5z"/>
	<path id="path346" fill="#00FF66" d="M535.5,663c1.8,2,1.8,2.1-1.3,5.3c-2.9,2.9-3.2,3-3.2,1.1c0-1.2,0.3-3.6,0.6-5.3
		C532.4,660.5,533,660.3,535.5,663z"/>
	<path id="path348" fill="#CCFF00" d="M557.2,663.7c1.5,1.3,1.8,2.5,1.3,5.3c-0.8,5.1,3.8,12.1,10.5,15.7c5.8,3.2,6.5,5.3,1.8,5.3
		c-10-0.2-20.6-8.1-22.1-16.6c-0.5-2.6,0-3.9,3-7.3C555.1,662.1,555.3,662,557.2,663.7z"/>
	<path id="path350" fill="#66CC66" d="M300.5,663c0.2,0,3.6,2.3,7.7,5c6.6,4.6,9.1,7.5,6.3,7.5c-1.7,0-19.5-2.8-19.5-3
		c0-0.1,1.2-2.3,2.6-4.9C299,665.1,300.3,663,300.5,663z"/>
	<path id="path352" fill="#669966" d="M428.9,670.4c1.2,1.8,2.4,4.7,2.7,6.5c0.6,2.8,0.4,3.1-2.4,3.7c-8,1.6-12.1,9.8-8.9,17.6
		c2.3,5.4,5.9,7.4,13.1,7c5.5-0.2,6.8-0.7,12.2-4.7c0.9-0.6,2.1-0.2,3.9,1.5c1.4,1.3,2.5,2.7,2.5,3.1c0,1.6-14.3,3-27.5,2.7
		l-13.9-0.3l0.3-9c0.2-6.8,0.8-10,2.6-13.5c1.2-2.5,2.8-6.3,3.5-8.5c0.7-2.2,1.9-5.2,2.7-6.8C421.7,665.6,426.2,665.9,428.9,670.4z"
		/>
	<path id="path354" fill="#CC6600" d="M567.1,672.7c11.4,12.2,12,13.5,5.6,11.4c-5.9-2-14.1-12.1-12.2-15.1
		C561.5,667.3,562.4,667.8,567.1,672.7z"/>
	<path id="path356" fill="#66CC66" d="M545.2,674c0.3,0,1.6,2.1,2.8,4.6c2,4,7.6,9.3,11.3,10.7c0.9,0.3,0.9,0.7,0,1.7
		c-1,1.1-2.4,0.8-7.2-1.4c-3.2-1.4-8.4-3.1-11.5-3.8c-3.1-0.6-5.6-1.5-5.6-2s2.1-2.9,4.8-5.3C542.4,676,544.8,674.1,545.2,674z"/>
	<path id="path358" fill="#CC6600" d="M269.5,674.5l0.3,3.3c0.4,4.1-1.2,6.2-4.9,6.2c-4.3,0-4.3-1.4,0.4-5.6L269.5,674.5z"/>
	<path id="path360" fill="#669966" d="M298.1,681.9l1.8,5.1h-2.4c-4,0-5.5-1.1-7.5-5.3c-1.1-2.2-2-4.2-2-4.4c0-0.1,1.5-0.6,3.3-1.1
		C295.2,675.1,295.8,675.6,298.1,681.9z"/>
	<path id="path362" fill="#669966" d="M305.5,676.8c1.4,0.9,3.6,8.2,2.9,9.4c-0.3,0.4-1.8,0.8-3.4,0.8c-2.3,0-3-0.7-4.4-4
		c-0.9-2.2-1.6-4.7-1.6-5.5C299,675.9,303.6,675.4,305.5,676.8z"/>
	<path id="path364" fill="#CCFF00" d="M285.1,679.2c2.3,1,3.9,6,4.6,14.4l0.6,7.1l-3.9,0.6c-4.8,0.8-14.2,0.9-17,0.1
		c-2.7-0.7-4.1-3.5-4.8-9.7c-0.8-6.7,1.4-7.3,6.3-1.9c5.9,6.5,12.4,7.2,12.9,1.4c0.4-4.3-2-7.9-6.6-10l-3.7-1.6l5-0.6
		C281.3,678.7,284.2,678.8,285.1,679.2z"/>
	<path id="path366" fill="#669966" d="M309.2,678h3.8c4.8,0,5.5,1,2.9,4.4c-2.8,3.5-4.4,3.3-5.6-0.9L309.2,678z"/>
	<path id="path368" fill="#CC6600" d="M276.9,683.5c3.2,1.6,6,7,4.4,8.6c-1.5,1.5-6.1,0-8.3-2.8c-2.3-3-2.5-4.4-0.8-6.1
		C273.7,681.7,273.5,681.7,276.9,683.5z"/>
	<path id="path370" fill="#669999" d="M320,686.3c0,0.7-2.3,3.5-5.1,6.2c-2.8,2.8-6.8,7.5-8.8,10.6c-5.2,7.8-6.9,9.8-12.9,14.8
		c-3,2.5-8.5,8.2-12.4,12.8c-6.5,7.8-8.6,9.3-9.5,6.6c-0.2-0.5,2.3-4.2,5.7-8.2c3.3-3.9,8.2-10.4,10.9-14.4
		c4.3-6.4,9.4-11.2,17.7-16.8c1.1-0.8,4.4-4.2,7.3-7.7C317.7,684.5,320,683.2,320,686.3z"/>
	<path id="path372" fill="#0033FF" d="M430.8,684c2.5,0,6.9,3.9,11.1,9.9c1.9,2.7,2,2.9,0.3,4.3c-6.6,5.8-16.7,4.6-19-2.2
		c-1.3-3.6-0.8-5.6,2.6-9.3C427.3,685.2,429.4,684,430.8,684z M428,692.6c0,1.2,0.7,1.5,2.7,1.1c1.5-0.3,3.8-0.1,5.1,0.4
		c3,1.2,3.9,0.5,2.2-1.6C436.2,690.3,428,690.4,428,692.6z"/>
	<path id="path374" fill="#CCFF00" d="M262.5,691.2c1,5.4-1.1,10.5-6.8,16.5c-6.4,6.8-11.7,8.6-15.3,5.2c-4.6-4.3-2.7-7.6,4.6-8.1
		c4.4-0.3,4.6-0.5,7.3-5.8c1.5-3,3.2-7.4,3.7-9.8C257.6,682.8,261.1,683.9,262.5,691.2z"/>
	<path id="path376" fill="#669966" d="M533.4,687c4,0,8.6,1.5,8.6,2.8c0,1.2-11.9,6.4-13.1,5.7c-0.5-0.4-1.4-1.5-1.9-2.5
		c-0.8-1.5-0.6-2.4,1-4C529.2,687.8,531.3,687,533.4,687z"/>
	<path id="path378" fill="#CC6600" d="M583.7,690.2c5.1,4.9,4,7.3-2.4,5.6c-3.4-0.9-5.1-4.2-3.9-7.3
		C578.2,686.2,580.1,686.7,583.7,690.2z"/>
	<path id="path380" fill="#66CC66" d="M291.8,689.3l9.1,0.1c5,0.1,9.1,0.3,9.1,0.6c-0.1,1.4-4.2,5.2-9.7,8.8
		c-6.9,4.7-6.9,4.7-7.9-4.2L291.8,689.3z"/>
	<path id="path382" fill="#669966" d="M548.6,691.4c1.3,3.4-6.5,11.6-10.9,11.6c-0.9,0-2.8-1.1-4.3-2.4l-2.8-2.3l7.5-4
		C546.4,689.8,547.8,689.4,548.6,691.4z"/>
	<path id="path384" fill="#CC6600" d="M252.8,694.2c-1.8,5.4-4.7,8.8-7.4,8.8c-1.3,0-2.4-0.4-2.4-0.9s2.1-3.2,4.6-6
		C252.9,690.2,254.3,689.7,252.8,694.2z"/>
	<path id="path386" fill="#66FFCC" d="M324.4,701.3c0.2,3.2,1.2,7,2.1,8.4c2,3,1.4,3.9-1.5,2.3c-2.4-1.3-4-0.1-4,3.1
		c0,0.9-2.9,3.1-6.8,5.3c-7.5,4.1-13.5,9.4-19.2,17c-2.1,2.8-5.4,6.6-7.3,8.5c-4,3.7-3.8,3.8-9.9-1.8c-4.1-3.6-3.5-4.4,2.6-3.7
		c4.8,0.6,5.7,0.5,7.6-1.4c2.2-2.2,2.4-6,0.5-11.6c-0.5-1.7,0.7-3.2,7.3-8.7c7-5.9,8.5-6.7,12.2-6.7c5.3,0,7.5-1.2,8.9-5
		c1.1-3.3,0.7-5.5-1.8-8.3c-1.5-1.8-1.3-2.1,1.7-4.8C322.5,688.8,323.4,689.7,324.4,701.3z"/>
	<path id="path388" fill="#CCFF00" d="M567.8,692.3c3.5,0.3,6.6,0.8,6.9,1.1c1,0.9-1.8,3.6-6,5.7c-2.5,1.3-4.4,3.2-5.3,5.4
		c-1.9,4.6-1.8,6.1,0.6,8.5c2.7,2.7,7,2.5,11.4-0.5c2-1.4,3.9-2.5,4.1-2.5c0.3,0,1.6,2.2,3,4.9l2.5,4.9l-3.5,3.1
		c-1.9,1.6-5.1,3.3-7.1,3.7c-5.6,1-19.4-1-23.3-3.5c-1.1-0.7-1.2-2-0.1-7.7c1.9-10.1,4.7-17.4,7.8-20.7
		C561.3,692,561.9,691.9,567.8,692.3z"/>
	<path id="path390" fill="#66FFCC" d="M523.3,692.9l4.9,5.3c6.1,6.6,8.6,12.1,10.2,22c1.1,6.3,2.3,9.3,6.9,17
		c3.1,5.1,5.9,11.1,6.3,13.3c0.3,2.2,1.5,5.4,2.6,7.2l1.9,3.1l-5.3,2c-2.9,1.1-5.6,1.7-5.9,1.4c-0.3-0.4-2-5-3.7-10.3
		c-1.9-6.2-4.8-12.3-8.1-17.3c-2.8-4.3-5.1-8.3-5.1-8.8s1-2.7,2.3-4.8c2-3.7,2.1-4.2,0.7-6.7c-0.9-1.6-3-3.3-5-3.9
		c-3.4-1.1-7-5.4-7-8.2c0-0.7,1-3.6,2.1-6.3L523.3,692.9z"/>
	<path id="path392" fill="#669966" d="M554.6,694.4c0.7,1.8-3.5,11.6-5,11.7c-2.1,0.2-7.1-0.3-7.9-0.8c-0.5-0.3,0.7-1.9,2.7-3.5
		c2-1.6,4.3-4.3,5.1-5.9C551.1,692.8,553.7,692.1,554.6,694.4z"/>
	<path id="path394" fill="#CC6600" d="M579,698.5c1,1.2,1,2.4,0.1,5.5c-1.5,5.2-5.4,8.2-10,7.8c-3.2-0.3-3.6-0.6-3.9-3.3
		c-0.3-3.3,1-5,6.8-8.9C576.2,696.7,577.4,696.5,579,698.5z"/>
	<path id="path396" fill="#CC6600" d="M588.9,697c0.7,0,4.9,4.8,9.4,10.7c0.7,1,0.2,1.3-1.8,1.3c-3.7,0-8.5-5-8.5-8.9
		C588,698.4,588.4,697,588.9,697z"/>
	<path id="path398" fill="#66CC99" d="M406.1,703.5c-0.3,4.3-0.8,4.5-5.6,2.9c-2.5-0.9-4.5-1.9-4.5-2.2s1.5-1.8,3.3-3.3
		C404.5,696.4,406.7,697.2,406.1,703.5z"/>
	<path id="path400" fill="#CCFF00" d="M586,702.5c1.5,4.5,5.8,8,11.7,9.4c4.3,1.1,5.2,1.8,8.6,7c4.1,6.4,4.3,7.3,2.2,9.1
		c-1.1,1-2.6,0.8-7-0.6c-6.8-2.1-14.4-8.6-17.4-14.7c-2-4.2-2.8-11.6-1.4-13C584,698.3,584.9,699.1,586,702.5z"/>
	<path id="path402" fill="#FF6600" d="M314.8,703.6c0.4,4.1-2,6.4-6.4,6.4c-1.9,0-3.4-0.3-3.4-0.6c0-1.1,2.3-5,4.3-7.2
		C312.1,699.2,314.4,699.8,314.8,703.6z"/>
	<path id="path404" fill="#669966" d="M266.6,702.5c0.9,0.8,2.4,1.5,3.4,1.5c2.3,0,5,3.6,5,6.7c0,2.3-1.4,3.1-2.4,1.4
		c-0.3-0.5-2.6-1.8-5.2-3c-3.3-1.6-4.4-2.6-4-3.7c0.3-0.9,0.6-2.2,0.6-3C264,700.6,264.8,700.6,266.6,702.5z"/>
	<path id="path406" fill="#66CC66" d="M290,703.2c0.3-0.1,1.1,0.2,1.8,0.7c1,0.6,1,1.1-0.3,2.1c-0.9,0.8-3.7,4.5-6.1,8.3
		c-5,7.7-11.4,15.7-12.6,15.7c-0.4,0,0.1-1.5,1.2-3.3c2.9-4.9,4.2-12,3.1-16.9c-0.6-2.3-0.8-4.5-0.5-4.8c0.3-0.3,3.3-0.8,6.7-1.1
		S289.7,703.2,290,703.2z"/>
	<path id="path408" fill="#669966" d="M260.9,705.6c0.2,0.2,0,3.5-0.4,7.4c-0.7,6.5-0.9,7.2-3.7,8.6c-3.4,1.7-4.2,1.2-5.4-3.4
		c-0.5-1.8,0.4-3.4,4.2-7.5C258.3,707.8,260.7,705.5,260.9,705.6z"/>
	<path id="path410" fill="#669999" d="M331.3,705.5c6.3,1,19.6,9.2,18.3,11.3c-0.4,0.8-1.7,0.6-4.1-0.4c-1.9-0.8-5.3-1.4-7.6-1.4
		c-3.3,0-4.7-0.6-6.9-3c-1.5-1.6-3-3.9-3.3-5C327.2,705,327.4,704.9,331.3,705.5z"/>
	<path id="path412" fill="#66CC99" d="M400.4,709c6.6,2.8,6.2,5-1,5c-5.6,0-13.4-1.7-13.4-2.9c0-0.4,1.2-1.4,2.8-2.3
		C392.3,706.5,394.8,706.6,400.4,709z"/>
	<path id="path414" fill="#669966" d="M455.8,709.3l2.3,2.1l-2.3,1.3c-1.3,0.7-5,2.2-8.4,3.3c-5.2,1.8-8.1,2-20.5,1.8l-14.4-0.3
		l-1.3-2.8c-0.8-1.6-1.1-3.2-0.7-3.5c0.4-0.4,8.8-1,18.8-1.3c10-0.4,19.6-1.1,21.2-1.7C453,707.4,453.9,707.6,455.8,709.3z"/>
	<path id="path416" fill="#669999" d="M516.9,707c1.1,0,8.1,14.4,8.1,16.6c0,3.5,2.1,8.7,5.6,13.6c4.8,6.8,7.1,11.7,9.5,20.4
		c2.1,7.5,2.1,7.8,0.3,9.1c-4.1,3-5.6,1.4-8.9-9.7c-3.3-11.2-5.1-15.1-9.6-21.5c-1.9-2.7-3.2-6.2-3.9-10.6
		c-0.5-3.7-1.7-8.6-2.5-10.9c-1.1-3.2-1.2-4.6-0.4-5.6C515.7,707.6,516.5,707,516.9,707z"/>
	<path id="path418" fill="#669999" d="M539.5,707.4c1.1,0.4,3.9,1,6.3,1.3l4.3,0.6l-0.6,4.1c-0.4,2.3-1.3,5.6-2.1,7.4
		c-1.3,3.2-1.3,3.2,2,4.6c3.7,1.5,4.3,2.9,7.1,15.7c0.9,4.4,2.6,9,4,10.9c3.1,4.2,3.1,4.4,0,5.8c-2.1,1-2.7,0.8-4.3-1.3
		c-1.1-1.4-2.3-4.5-2.6-6.9c-0.4-2.8-2.8-8-6.3-13.7c-4.4-7.3-5.8-10.7-6.9-16.8c-0.7-4.2-1.7-8.7-2-10
		C537.8,707,537.9,706.8,539.5,707.4z"/>
	<path id="path420" fill="#669966" d="M270.9,714.1c4.5,3.2,4.6,3.8,2.1,10.5l-1.1,2.7l-2.7-2.5c-1.5-1.4-3.7-3.1-4.9-3.7
		c-2.3-1.2-3-5-1.7-8.5C263.5,710.2,266.2,710.7,270.9,714.1z"/>
	<path id="path422" fill="#6699CC" d="M235,712c0.4,0,4.5,3.2,9.1,7c4.6,3.9,10.4,8.3,12.8,9.8s8.3,6.5,13,11.2
		c9.5,9.5,18.3,15.2,31.6,20.6c4.9,2,11,4.6,13.6,5.9c15.1,7.7,49.6,16.5,71.9,18.5c19.9,1.8,21.4,2.1,21.8,4.9
		c0.6,4-0.8,4.4-12.9,3.1c-23.7-2.5-55.2-7.1-64.3-9.5c-16.2-4.2-38.1-14-46.3-20.7c-2.2-1.8-8.3-6.2-13.4-9.8
		c-5.2-3.6-12.4-9.4-16.1-13c-9.6-9.4-18-16.6-22.2-19.1c-2-1.1-3.6-2.3-3.6-2.5c0-0.3,1-1.8,2.2-3.4C233.4,713.3,234.7,712,235,712
		z"/>
	<path id="path424" fill="#6699FF" d="M385.8,714.3c3.5,2.7-3.9,16.2-10.8,19.7c-4.1,2.1-10,2.7-10,1c0-0.6,0.9-1,1.9-1
		c1.9,0,6.5-5.1,9-9.7c0.6-1.2,1.1-3.7,1.1-5.7c0-2.4,0.6-3.9,2.1-5C381.2,712.2,383.3,712.4,385.8,714.3z"/>
	<path id="path426" fill="#66FFFF" d="M512.2,712.5l1.4,3.3c0.8,1.7,1.8,6.2,2.4,9.9c0.5,4,1.8,7.8,3,9.6c1.8,2.4,2,3.3,1.1,5.9
		c-2.7,7.6,0.4,14.8,6.3,14.8c2.2,0,2.7,0.7,4.1,5.2c2.1,7.3,1.9,8.5-1.6,10.4l-3.2,1.6l-6.1-6c-3.3-3.3-8-7-10.3-8.1L505,757
		l3.2-5.8c1.7-3.1,3.5-6.1,4-6.7c1.5-1.7,0.8-3.5-1.3-3.5c-1.7,0-5.4-1.4-6.8-2.6c-0.2-0.2,0.8-1.7,2.3-3.4c3-3.7,5.6-11.6,5.7-17.9
		L512.2,712.5z"/>
	<path id="path428" fill="#009900" d="M466,716.8c6,3.1,10,8.5,10,13.5c0,5.8-2.2,11.7-5.2,13.8c-1.6,1.2-3.1,1.9-3.3,1.7
		c-0.3-0.2,0.4-3.1,1.6-6.3c2.5-7.3,1.9-12.7-2.1-16.7c-3.2-3.2-4.9-3.4-9-1.3c-6.1,3.1-7.8,16.2-3,22.7c1.2,1.6,1.9,3.2,1.6,3.5
		c-1,1-7.1-3.3-9.3-6.7c-3-4.4-2.9-9,0.5-17c2.2-5.2,3.5-6.8,6.2-8.2C458.7,713.5,459.7,713.6,466,716.8z"/>
	<path id="path430" fill="#FF6600" d="M529,717.6c1,2.5,0.4,5.4-1.1,5.4c-0.7,0-2.9-6.1-2.9-8.2C525,713.2,528.2,715.4,529,717.6z"
		/>
	<path id="path432" fill="#6699FF" d="M326.3,715.5c1.2,0.3,5.7,1,9.9,1.4c4.2,0.4,8.8,1.5,10.1,2.4c1.9,1.2,7.4,12.7,6.1,12.7
		c-0.2,0-2.4-1.6-5-3.5c-5.4-4.2-10.7-4.8-12.4-1.4c-1.6,2.9-0.6,5.9,3,9.4c2.5,2.4,4,3,7.6,3c2.4,0,4.4,0.2,4.4,0.5s-2,1.3-4.5,2.4
		c-5.7,2.3-8.5,1.6-13.3-3.2c-4-4-8.2-14.9-8.2-21.1C324,715.1,324.2,714.8,326.3,715.5z"/>
	<path id="path434" fill="#339933" d="M510,717.5c0,2.8-2.5,4.5-6.9,4.5c-4.2,0-3.9-1,1.2-4.2C509.6,714.5,510,714.4,510,717.5z"/>
	<path id="path436" fill="#6699FF" d="M356.2,718.5c-0.2,1.1-0.3,4.5-0.3,7.5c0.1,5-0.1,5.3-1.4,3.6c-1.7-2.2-3-9.9-2.1-12.2
		C353.3,715.2,356.6,716.1,356.2,718.5z"/>
	<path id="path438" fill="#0099FF" d="M374.8,718.7c0.4,2.8-3.1,9.7-6,11.7c-3,2.1-9.4,2.1-10.2,0c-1-2.7-0.7-10,0.7-11.7
		c0.8-1.1,3.1-1.7,6.7-2C374,716.2,374.5,716.3,374.8,718.7z"/>
	<path id="path440" fill="#66FF66" d="M396.9,716.9c1.9,1.2,0.7,2.8-4.7,6.2c-6.3,4-7.4,3.8-5.1-0.8c1-2.1,1.9-4.3,1.9-5
		C389,715.8,394.7,715.5,396.9,716.9z"/>
	<path id="path442" fill="#66FF66" d="M408.2,723.5c0.4,3.1-4.3,3.2-7.7,0.2l-2.8-2.3l2.8-2.2C405.5,715.3,407.2,716.2,408.2,723.5z
		"/>
	<path id="path444" fill="#66FFFF" d="M445.3,719.2c2.1-0.2,2.1-0.4-0.3,5.2c-2.6,5.8-5.5,6.1-8.7,1c-1.3-2-2.3-3.9-2.3-4.4
		s2.1-1.1,4.8-1.3C441.4,719.5,444.3,719.3,445.3,719.2z"/>
	<path id="path446" fill="#669999" d="M320.2,720c0.9,0,3.8,8.7,3,9.4c-0.3,0.3-1.9,0.6-3.6,0.6c-3.7,0-11.9,3.7-16.1,7.2
		c-1.7,1.4-5,5.5-7.5,9.2c-4.7,6.8-5.9,7.6-8,5.1c-1-1.2-0.2-2.6,4.7-8.2c8.9-10.4,17.3-18.2,22.3-20.9
		C317.5,721.2,319.8,720.1,320.2,720z"/>
	<path id="path448" fill="#669966" d="M415.4,720.2c2,0.3,2.1,0.8,2.2,14.3c0.1,7.7,0.5,20.2,0.9,27.7c0.9,17.4,0.1,24.8-2.6,24.8
		c-1,0-1.9-0.6-1.9-1.3c0-0.6-0.5-9.8-1.1-20.2c-0.6-10.5-0.7-25-0.4-32.3C413.2,720.3,413.3,719.9,415.4,720.2z"/>
	<path id="path450" fill="#66CC99" d="M431.4,722.5c2.2,3.3,2.1,3.5-1.3,3.5c-6.3,0-12.2-3.9-7.8-5.2
		C427,719.5,429.7,720,431.4,722.5z"/>
	<path id="path452" fill="#669999" d="M228.9,721c2,0,9.4,5.8,20.3,16c6.8,6.3,16.6,14.4,21.7,18c5.2,3.6,11.2,8,13.4,9.8
		c4.6,3.8,22.5,12.6,33.5,16.6c15.4,5.5,34.5,9,71.7,13.1c18.6,2,17.8,1.7,16.8,6.8c-1,5.3-1,25.1,0.1,38.4l0.9,10.3h-15.1
		c-14.1,0-15.1-0.1-15.7-2c-1-3.1-5.4-6-9.2-6c-3.6,0-8.3,3.6-8.3,6.5c0,1.3-5.1,1.5-45.1,1.5h-45.1l0.5-2.8
		c0.3-1.5,1.6-9.3,2.8-17.4c2-13.2,2.1-15.3,0.9-20.5c-1.6-7-2-7.7-3.1-6.6c-0.5,0.5-0.3,3.1,0.6,6.1c1.5,4.8,1.4,6.1-1,21.9
		c-1.4,9.3-2.8,17.4-3,18c-0.3,0.9-3,1.3-8.8,1.3c-7.8,0-8.4-0.2-9.6-2.4c-1.4-2.6-5-4.6-8.2-4.6c-2.9,0-7.7,2.7-8.9,5
		c-1,1.9-2.1,2-23,2h-22v-3.4c0-1.9-1.1-4.9-2.6-7.2l-2.7-3.9l2.3-10c1.2-5.5,2.9-11.8,3.7-14c0.8-2.2,2-6,2.8-8.5
		c0.7-2.5,1.8-5.9,2.5-7.5c0.7-1.7,1.4-3.9,1.5-5c0.9-6.4,20.9-48.4,29-60.8C225.6,724.9,228.5,721,228.9,721z M228,745.1
		c0,3.9,5.5,5.2,8.3,2.1c2-2.2,2.2-4.3,0.5-6C234.1,738.5,228,741.2,228,745.1z M241.7,755c-2.3,0-8,3.1-9.1,4.8
		c-0.4,0.7-1.8,0.7-4.1,0.1c-5.5-1.6-10.7,0.9-12.6,5.9c-1.2,3.2,0.6,6.5,5.5,10c4.1,2.9,16.4,8.2,19.1,8.2c0.7,0,3.1-3.4,5.1-7.5
		c4.8-9.7,5.1-15.6,1-19.2C245.1,756.1,242.9,755,241.7,755z M259.9,777.9c-3.4,3.5-3.6,5.4-0.9,8.1c2.6,2.6,8.1,2.6,10.3,0.2
		c2-2.2,2.2-8.3,0.5-10C267.6,774,263,774.8,259.9,777.9z M210.3,785.2c-2.3-0.2-3.6,0.3-5.2,2.4c-2.6,3.3-2.6,3.6-0.2,5.8
		c2.6,2.4,6,1.7,8.5-1.7c1.6-2.1,1.8-3.2,1-4.5C213.8,786.3,211.9,785.4,210.3,785.2z M314.2,790.7c-0.7,0.3-1.9,1.8-2.7,3.4
		c-1.4,2.7-2,2.9-7.4,2.9c-8.8,0-11.5,4-6.7,9.7c3.3,3.9,22.2,10.6,23.6,8.3c3.1-4.9,3.7-20.2,1-23.5
		C320.8,790.1,316.8,789.6,314.2,790.7z M232.9,799.7c-2.7,2.3-4.2,2.8-8.7,2.8c-4.4,0-5.7,0.4-7.3,2.4c-5.5,6.8,1,13.6,17.4,18.1
		c6.3,1.7,7.2,0.8,9.3-9.1c1.8-8.3,1.4-11.9-1.6-14.9C239.3,796.3,236.8,796.5,232.9,799.7z M374.1,810.7c-1,2-1.3,2.1-4,0.7
		c-2.1-1.1-3.6-1.2-5.5-0.4c-3.5,1.3-4.1,3.3-2.7,8c1.4,4.8,5.2,7.3,14.1,9.4c7.6,1.7,8,1.5,10.4-5.7c2.3-6.8,2.1-14.2-0.4-16.7
		C382.3,802.3,377.5,804.2,374.1,810.7z M299,827.8c-2.6,0.8-6,4.5-6,6.3c0,2,3.6,4.9,6.2,4.9c2.5,0,4.8-2.8,4.8-5.9
		C304,829.9,301.2,827,299,827.8z M330,835.1c0,3.4,1.8,4.9,5.6,4.9c5.5,0,8.9-7.6,4.5-10C335.3,827.5,330,830.1,330,835.1z
		 M199.2,836.3c-3.9,4.1-2.6,8.7,2.4,8.7c5.7,0,8.8-4.5,6.4-9.1C206.5,833.2,201.9,833.4,199.2,836.3z"/>
	<path id="path454" fill="#006600" d="M235.6,743.1c1,1.7-2.3,4.6-3.7,3.2c-0.7-0.7-0.9-1.9-0.6-2.7
		C232,741.8,234.6,741.5,235.6,743.1z"/>
	<path id="path456" fill="#FF99FF" d="M242.3,757.6c3.8,1.1,4.7,2.5,4.7,7.1c0,5.1-5.2,16.3-7.6,16.3c-2.8,0-15.9-6.1-18.6-8.7
		c-3.2-3.1-3.6-6.3-1-8.5c2.7-2.4,4.7-2.7,9.1-1.6c3.8,1,4.3,0.9,7.7-2.1C239.2,757.7,240.7,757.1,242.3,757.6z"/>
	<path id="path458" fill="#FFCC00" d="M269,779c1.5,2.8,0.3,5.9-2.7,7.1c-5.1,1.9-8.4-3.1-4.6-7.3C263.9,776.4,267.7,776.5,269,779z
		"/>
	<path id="path460" fill="#006600" d="M212.6,788.5c0.8,2-1.3,4.5-3.8,4.5c-2.4,0-3.4-2.6-1.8-4.5
		C208.6,786.6,211.9,786.6,212.6,788.5z"/>
	<path id="path462" fill="#FF99FF" d="M321,793.9c2.1,4,0.2,19.1-2.4,19.1c-2.1,0-15.8-4.9-18.3-6.6c-1.8-1.1-2.3-2.3-2.1-4.2
		c0.2-2.3,0.9-2.8,3.6-3c1.9-0.2,4.7,0.1,6.3,0.7c2.8,0.9,3,0.8,4.4-2.7c0.9-2,2.1-4,2.8-4.4C317.4,791.4,319.9,791.9,321,793.9z"/>
	<path id="path464" fill="#FF0099" d="M240.9,801.4c2,2.2,2.1,2.7,1.1,8.9c-0.6,3.7-1.5,7.8-2,9.1l-0.9,2.5l-5.3-1.6
		c-14.9-4.4-21-11.1-13.6-14.9c2.7-1.4,3.6-1.4,7.1-0.3c3.4,1.1,4.1,1.1,4.5-0.1c0.3-0.8,1.5-2.4,2.8-3.7
		C237.5,798.4,238.1,798.4,240.9,801.4z"/>
	<path id="path466" fill="#FF0099" d="M384.2,807.7c2.3,2.1,2.4,8.2,0.2,14.7c-1.6,4.7-1.7,4.8-5.3,4.1c-11.2-2-15.5-4.9-14.9-10.1
		c0.4-3.5,3.5-4.3,7.2-1.9c3,2,4.1,1.5,5.1-2.2c0.3-1.6,1.4-3.6,2.2-4.6C380.7,805.6,381.8,805.6,384.2,807.7z"/>
	<path id="path468" fill="#006600" d="M301.8,833.2c0.4,3-2,4.3-4.9,2.8c-2.5-1.4-2.4-3.3,0.4-4.6
		C300.4,829.8,301.5,830.3,301.8,833.2z"/>
	<path id="path470" fill="#FF9933" d="M339.8,833.9c0.7,4.5-5.7,7-7.8,3.1c-0.8-1.4-0.8-2.6,0-4.1
		C333.7,829.9,339.4,830.6,339.8,833.9z"/>
	<path id="path472" fill="#FFCC00" d="M206.8,838.7c0.3,2.5-0.2,3.2-2.7,4.3c-5.4,2.2-7.2-2.2-2.4-6
		C205,834.4,206.4,834.8,206.8,838.7z"/>
	<path id="path474" fill="#66FFCC" d="M496.4,721.9c0.4,0.2-0.3,1.5-1.7,2.9l-2.5,2.5l-2.8-2.2c-2.2-1.8-3.5-2.1-7-1.5
		c-2.3,0.3-4.9,0.2-5.6-0.2c-0.8-0.6,2.6-1.1,8.7-1.4C491,721.7,495.9,721.7,496.4,721.9z"/>
	<path id="path476" fill="#00CC00" d="M465.8,724.5c3.2,4,3.5,8.6,1.2,14.9c-1.2,3.1-3.1,6.1-4.2,6.7c-4.3,2.3-9.8-7.3-8.2-14.4
		c1-4.7,3.1-8.5,5.1-9C463.1,721.8,463.9,722,465.8,724.5z"/>
	<path id="path478" fill="#669966" d="M589.1,723.6c0.7,0.8,2.9,2.4,5,3.4c5,2.6,7.4,9,3.3,9c-1,0-2.6-1.9-10.3-12.2
		C585.5,721.6,587.2,721.4,589.1,723.6z"/>
	<path id="path480" fill="#669966" d="M260.2,725.5c0.3,1.6,0.1,2.5-0.7,2.5c-1.8,0-3.8-2.7-3-4C257.6,722.1,259.8,723,260.2,725.5z
		"/>
	<path id="path482" fill="#669966" d="M267.8,726.3c2.6,2.4,2.8,4,0.7,5.7c-2.3,1.9-5.5-1.4-5.5-5.7
		C263,722.6,263.6,722.6,267.8,726.3z"/>
	<path id="path484" fill="#339933" d="M508.8,723.2c0.6-0.4,0.1,2.4-0.7,3.7c-0.6,1-2.1,1.1-6,0.6c-6.7-0.9-6.2-2.8,1-3.6
		C506.1,723.6,508.6,723.3,508.8,723.2z"/>
	<path id="path486" fill="#66FF66" d="M395.8,724.1c0.2-0.1,1.6,0.7,3,1.8c1.5,1,4.2,2.2,6,2.6c4.2,0.9,4.1,2.8-0.3,5.5
		c-4.5,2.8-7.3,2.1-11.4-2.6c-3.3-3.7-3.3-5,0.3-6.4C394.5,724.5,395.7,724.1,395.8,724.1z"/>
	<path id="path488" fill="#66FFFF" d="M484.4,725.1c2.5-0.1,6.6,3.7,6.6,6.1c0,1.5-0.9,1.8-5,1.9c-2.7,0.1-5.6,0.2-6.2,0.3
		c-0.8,0.1-1.4-1.3-1.6-3.2c-0.3-2.6,0.1-3.4,2-4.1C481.5,725.5,483.4,725.1,484.4,725.1z"/>
	<path id="path490" fill="#66CC66" d="M584,725c1.1,0,7.2,7.1,9,10.5c1.2,2.2,1.1,2.7-0.6,4c-2.8,2.2-4.7,1.8-7.8-1.4
		c-2.6-2.7-2.8-3.3-2.1-8C582.9,727.3,583.6,725,584,725z"/>
	<path id="path492" fill="#0099FF" d="M349.8,733.7c1.3,2.1,1.2,2.3-1.2,3.3c-4.5,1.7-11.6-2.2-11.6-6.5c0-1.2,0.3-2.5,0.7-2.8
		C339.7,725.7,346.8,729.3,349.8,733.7z"/>
	<path id="path494" fill="#66FFCC" d="M435.3,729c0.4,0.4-1.2,1.3-3.8,2c-4.1,1.1-4.8,1.1-6.5-0.5c-1.1-1-2-2.1-2-2.5
		C423,727.1,434.3,728,435.3,729z"/>
	<path id="path496" fill="#66CC66" d="M579,742.8c-1,4.6-1.6,5.5-4.6,7c-4.6,2.1-5.8,0.8-8-8.2c-2.5-9.9-1.6-11.9,5.9-12.7
		c3.2-0.4,6.1-1,6.5-1.4C580,726.3,580.2,737.3,579,742.8z"/>
	<path id="path498" fill="#669966" d="M561.5,728.9c1.6,0.6,1.9,1.6,1.7,5.7c-0.1,3.1,0.7,7.5,2.2,11.9c2.3,6.8,2.5,8.5,0.6,8.5
		c-2.7,0-9.4-17.8-9.9-26.3C556,727.8,558.9,727.9,561.5,728.9z"/>
	<path id="path500" fill="#FF6600" d="M287.5,731.1c1.6,5.1-2.7,9.6-7,7.2c-1.4-0.8-1.2-1.4,1.5-5.1
		C285.4,728.5,286.6,728,287.5,731.1z"/>
	<path id="path502" fill="#66FF66" d="M390.9,732.7c1.7,2.1,3.1,4.1,3.1,4.5c0,1.7-4.6,0.7-8.2-1.8c-3.6-2.6-4.6-4.3-3.1-5.7
		C384.4,727.9,388.1,729.2,390.9,732.7z"/>
	<path id="path504" fill="#339933" d="M502.3,730.1c3.3,0.9,3.6,1.2,2.7,2.9c-2.8,5.3-11,4.5-11-1.1
		C494,728.6,495.7,728.2,502.3,730.1z"/>
	<path id="path506" fill="#669933" d="M612.7,730.2c3.1,2.5,0.9,6-5.7,9.3c-4.4,2.2-25.5,16.4-33.6,22.6c-7.7,5.8-19,12.1-27.8,15.4
		c-18.8,7.1-50.6,15-66.6,16.5c-16.4,1.6-28.6,3.1-34.9,4.2c-3.5,0.6-10,0.9-14.5,0.7c-4.5-0.1-10.1-0.2-12.5-0.1l-4.3,0.1l0.6-3.1
		c0.3-1.7,0.6-3.6,0.6-4.2c0-0.8,6.1-1.1,20.7-1.2c12.6,0,22.8-0.5,25.8-1.3c2.8-0.6,9.7-1.8,15.5-2.6c15.1-2.1,29.7-4.8,37-6.9
		c13.9-4.1,43.7-17.1,57.6-25.2c27.3-15.8,32.9-19.2,36.9-22.2C610.4,730,611.8,729.4,612.7,730.2z"/>
	<path id="path508" fill="#66FFFF" d="M424.3,732.8c2.1,2.1,3.2,4.5,3.7,7.9c0.9,5.7-0.7,8.3-5.1,8.3c-2.2,0-2.9-0.5-3.4-3
		c-0.6-2.9,0.2-13.6,1.2-15.4C421,730.2,422.6,731.1,424.3,732.8z"/>
	<path id="path510" fill="#336600" d="M327.3,737c2,2.7,3.7,5.1,3.7,5.3c0,0.2-1.8,1-3.9,1.7c-3.8,1.2-4.1,1.1-7.8-1.9
		c-2.1-1.7-4.9-4-6.3-5l-2.5-2l3.5-1.5C320.5,730.8,323.1,731.4,327.3,737z"/>
	<path id="path512" fill="#66FFCC" d="M442,733.4c0,0.8,0.3,2.1,0.6,2.9c0.3,1-0.2,1.8-1.5,2.2c-1.1,0.3-3.6,1.7-5.7,3.1
		c-4.2,2.9-5.4,2.2-5.4-3.1c0-3.4,0.8-4.9,3-5.8C436.2,731.5,442,732,442,733.4z"/>
	<path id="path514" fill="#CCCC00" d="M359.8,735.6c3.5,2.4,2.6,5.8-1.5,6.2c-2.7,0.3-3.5-0.1-4.4-2.2c-0.9-2-0.9-2.9,0.1-4.1
		C355.6,733.6,357,733.6,359.8,735.6z"/>
	<path id="path516" fill="#6699FF" d="M389.4,742.3c3.9,4,7.8,8.6,8.6,10.1c1.7,3.3,1.1,3.8-6.4,6.1c-5.7,1.7-11.1,1.8-18.1,0.2
		c-4.4-1.1-5-1.5-5.6-4.5c-0.6-3.2-0.6-3.3,1.8-2.7c7.1,1.7,8,1.7,10.7-0.7l2.8-2.3l-2.1-2.6c-1.9-2.5-3.3-3.3-10.6-6l-3-1.1l5-1.7
		C380.9,734,381.6,734.2,389.4,742.3z"/>
	<path id="path518" fill="#669966" d="M407.4,734.5l0.2,2.5c0.1,1.4,0.8,12.3,1.5,24.3c0.9,16.9,0.9,22.1,0,23
		c-2.1,2.1-2.8-0.9-3.5-14.7c-1-17.2-0.7-29.3,0.7-32.5L407.4,734.5z"/>
	<path id="path520" fill="#009900" d="M499,739.2c5.8,2.3,10.7,4.3,10.9,4.4c0.5,0.4-4.8,9.3-8,13.5c-3.5,4.5-13.5,9.9-18.3,9.9
		c-2.3,0-3.6-0.5-3.6-1.3c0-0.8-1.6-3-3.5-5s-3.5-3.7-3.5-3.9c0-0.2,2-0.2,4.4,0c3.8,0.3,4.7,0,6-2.1c3.8-5.8-1.5-8.1-11.6-5.1
		c-2.7,0.8-2.2-2.1,0.6-3.9c1.3-0.9,3-3.3,3.6-5.2c0.7-2,2.2-4,3.4-4.5C483.6,734.3,488.7,735.1,499,739.2z"/>
	<path id="path522" fill="#669999" d="M620.6,747.9c1.5,4.2,5.4,13.4,8.7,20.6c7.7,17,12.2,28.8,19.3,51.9
		c5.5,18.1,5.7,18.9,3.8,19.9c-1,0.5-3.8,3-6,5.3l-4.1,4.4h-33h-33l-1.8-14c-1.8-13.4-1.8-14.3-0.1-19.6c1-3.1,1.5-5.8,1.3-6.1
		c-0.3-0.2-1.7,1.9-3.1,4.8l-2.7,5.2l2.1,13.9c1.1,7.7,2,14.4,2,14.9s-4.5,0.9-10,0.9c-9.3,0-10-0.1-10-2c0-3.2-5.7-8.9-10.2-10
		c-7.5-2.1-15.1,1.9-16.4,8.6l-0.6,3.4h-57.4H412v-4.6c0-2.5-0.7-7.2-1.5-10.3c-0.8-3.1-1.5-10.6-1.7-16.6
		c-0.3-10.2-0.1-11.2,2-14.3l2.3-3.2h13.3c7.3,0,15.7-0.4,18.7-0.9c3-0.5,12.6-1.6,21.4-2.5c32.3-3.3,69.6-12.6,88.7-22
		c4.7-2.4,15.6-9.2,24.2-15.2c8.6-6,20.2-13.7,25.9-17.2C617.1,736,616.3,735.8,620.6,747.9z M582,776.6c0,6.7,5.2,9.4,10.4,5.3
		c2-1.6,2.6-2.9,2.6-5.9c0-2.2-0.7-4.5-1.6-5.4C589.5,766.7,582,770.6,582,776.6z M611,794.5c0,3.5,1.3,4.5,5.5,4.5
		c4.5,0,8.3-7.8,5.3-10.8C618.4,784.8,611,789,611,794.5z M551.4,790.2c-2.7-1.4-8.1,1.7-9,5.2c-0.4,1.7-1.5,2.6-3.8,3
		c-12.4,2.3-9.1,12.1,5.2,15.1c4,0.8,7.7,1.5,8.2,1.5c2.9,0,5.2-18.9,2.7-22.1C554,792,552.6,790.8,551.4,790.2z M494.2,808.6
		c-0.8,1.5-1.8,1.9-4.4,1.7c-4-0.5-9.8,2.8-9.8,5.5c0,4.3,2.9,6.3,15.5,10.7c7.8,2.7,7.8,2.7,10.3-5c2.9-8.6,3.8-16.4,2.3-19.3
		C505.6,797.6,498,801.1,494.2,808.6z M598.5,818.2c-0.7,2.6-1.1,2.8-5.5,2.8c-4.8,0-8,2-8,5c0,2.8,4.5,6.1,10.9,7.9
		c12.4,3.6,11.9,3.6,13.1-0.6c1.8-6.4,2.4-17.7,1.1-20.1C607.6,808.5,600.1,811.7,598.5,818.2z M432.8,821.5
		c-3.6,2-6.1,9.9-4.7,14.8c1.8,6.6,9.5,11,16.2,9.3c1.3-0.3,3.7-1.6,5.2-2.8c1.6-1.3,5.4-3.2,8.4-4.3c3-1.1,5.6-2.6,5.9-3.3
		c0.2-0.7-1.8-2.2-5.1-3.6c-4.1-1.9-5.6-3.1-6.1-5.1c-0.4-1.7-1.8-3.1-4-4C443.2,820.2,435.9,819.8,432.8,821.5z"/>
	<path id="path524" fill="#FFCC99" d="M592.3,773.1c2.8,4.4-3.9,11.6-6.9,7.4c-1.9-2.5-1.8-5.4,0.3-7.7
		C587.6,770.6,590.8,770.8,592.3,773.1z"/>
	<path id="path526" fill="#FFCC99" d="M619.7,793.5c-2,4-5.2,4.7-6.3,1.3c-0.5-1.6-0.1-2.7,1.6-4
		C618.9,787.6,621.9,789.3,619.7,793.5z"/>
	<path id="path528" fill="#FF99FF" d="M551.5,792.4c1.7,1.2,2,2.4,1.9,8.7c0,4.1-0.5,8.3-1.2,9.5c-1.1,2-1.3,2.1-8.3,0.7
		c-7.6-1.4-10.9-3.4-10.9-6.4c0-2.4,3.7-4.9,7.2-4.9c2.2,0,3.1-0.7,4.2-3.4c0.8-1.9,2.2-3.9,3.3-4.4
		C549,791.4,550,791.5,551.5,792.4z"/>
	<path id="path530" fill="#FF99FF" d="M506.8,805.9c0.4,4-2.4,16.2-4.3,18.7c-1.2,1.7-1.5,1.7-5.1,0.2c-2.2-0.9-6-2.4-8.7-3.3
		c-6.1-2.2-7.9-5.1-4.6-7.8c1.8-1.5,3.2-1.7,7.1-1.2c4.4,0.6,4.8,0.5,4.8-1.4c0-1.1,1.4-3.6,3.1-5.6
		C503.2,800.8,506.4,801,506.8,805.9z"/>
	<path id="path532" fill="#CC3300" d="M608.6,815.6c0.7,2.7-0.2,14.2-1.3,17c-0.7,1.8-3.5,1.5-12.3-1.4c-5.6-1.8-7.7-3.9-6.7-6.6
		c0.7-1.8,8.1-2.3,9.2-0.6c1.2,1.9,2.5,1,2.5-1.8c0-1.5,0.9-4.2,2-6C604.4,812.2,607.7,811.9,608.6,815.6z"/>
	<path id="path534" fill="#FFCC99" d="M449.4,829.5c1.4,3.8,0.6,7.7-2.4,10.7c-2.7,2.6-3.6,3-6.8,2.5c-5.5-0.9-8.6-4.9-7.9-10.4
		c0.2-2.4,1-5,1.7-5.8C436.6,823.3,447.8,825.6,449.4,829.5z M437,832.6c0,0.8,0.4,1.3,0.8,1c0.5-0.3,2.1,0.2,3.7,1
		c3.6,1.9,5.6,0.3,2.4-2C440.9,830.5,437,830.5,437,832.6z"/>
	<path id="path536" fill="#FFCC99" d="M456.2,833.4c3.3,0.7,4.4,1.3,3.6,2.1c-0.2,0.3-1.9,0.8-3.6,1.1c-2.8,0.6-3.2,0.4-3.2-1.6
		C453,833,453.4,832.8,456.2,833.4z"/>
	<path id="path538" fill="#336600" d="M307.8,738c2.3,0,11.4,5.9,12,7.7c0.2,0.7-1.2,2-3.2,2.9c-3.3,1.6-3.8,1.6-7.3,0.1
		c-2.1-0.9-5.3-2-7.1-2.4l-3.3-0.8l3.4-3.8C304.2,739.7,306.7,738,307.8,738z"/>
	<path id="path540" fill="#66CC99" d="M402.3,738.1c1-0.1,0.9,12.7-0.2,13.4c-1,0.6-7.7-7-8.3-9.4c-0.2-0.8,1.2-1.8,3.7-2.6
		C399.7,738.8,401.8,738.2,402.3,738.1z"/>
	<path id="path542" fill="#009900" d="M442,740c0.3,0,2.3,1.8,4.4,3.9c2.2,2.2,5.2,4.5,6.7,5.2c4.4,1.8,3.5,3.1-1.5,2.4
		c-6.2-1-10.5,0.2-11.8,3.1c-0.9,1.9-0.8,2.8,0.7,4.4c2.3,2.6,7,2.6,11.9-0.1c4.5-2.4,5.8-1.8,3,1.4c-1.1,1.2-2.8,3.4-3.7,4.9
		c-2,3.2-4.3,3.5-10.8,1.3c-5.1-1.8-15.5-9-17.7-12.2c-1.3-2.1-1.2-2.3,0.9-3.2c1.3-0.5,5.7-3.2,9.8-6S441.6,740,442,740z"/>
	<path id="path544" fill="#669966" d="M582.5,740c2.1,0,3.1,3,1.4,4.1c-2.3,1.4-2.9,1.1-2.9-1.6C581,740.9,581.6,740,582.5,740z"/>
	<path id="path546" fill="#0099FF" d="M375,744.3c5.2,2.5,6.4,5.3,2.7,6.2c-4.5,1.2-13.7-4.3-13.7-8.1
		C364,740.3,368.6,741.1,375,744.3z"/>
	<path id="path548" fill="#FF6600" d="M524.6,744.2c4,7.8,3.5,11.4-1.1,8.4c-2.5-1.7-3.4-6.2-1.9-10
		C522.4,740.4,522.7,740.5,524.6,744.2z"/>
	<path id="path550" fill="#6699FF" d="M352,743.7c0,0.3-1.6,3-3.6,5.9c-6.1,8.9-5.6,17.4,1.1,17.4c4.4,0,10.5-10.4,10.5-18.1
		c0-5.3,1.9-4.8,4.2,1.2c3.3,8.6,1.7,16.2-4.8,22.7c-4.1,4.2-4.5,4.4-8.6,3.7c-7.1-1.1-13.8-3.6-14.8-5.5c-1.6-3-1.1-11.1,0.9-15.5
		c1-2.2,3.9-5.9,6.4-8.3C347.4,743.5,352,741.6,352,743.7z"/>
	<path id="path552" fill="#336600" d="M339.8,746.5c0.3,0.3-0.4,1.5-1.6,2.8c-1.1,1.2-3,4.4-4.2,6.9c-2.2,5-4.4,6.8-8.1,6.8
		c-1.9,0-2.1-0.4-1.5-3.8c0.3-2,0.6-5.5,0.6-7.8c0-3.2,0.5-4.3,2.3-5.2C329.4,745.1,338.6,745.3,339.8,746.5z"/>
	<path id="path554" fill="#0099FF" d="M357.8,749.8c0.2,3.1-0.4,5.4-2.5,9.2c-3.1,5.5-5.7,7-8.1,4.7c-2.1-2.2-0.4-8.4,3.9-14.2
		C355.3,743.9,357.4,744,357.8,749.8z"/>
	<path id="path556" fill="#336600" d="M301.9,748.5c1.9,0.4,4.4,1.1,5.5,1.7c1.7,0.9,1.7,1.1,0.3,1.9c-2.3,1.4-13.7,2.4-13.7,1.2
		c0-0.5,1-1.9,2.1-3.2C297.9,748.2,298.9,747.9,301.9,748.5z"/>
	<path id="path558" fill="#CCCC00" d="M468.1,752.1c1.3,2.6,0.5,3.5-4.2,4.3c-2.6,0.5-4,0.2-4.8-0.8c-1.7-2-0.4-5.5,2.2-6.5
		C463.9,748.1,466.5,749.3,468.1,752.1z"/>
	<path id="path560" fill="#336600" d="M321.1,749c1.4,0,2,3.6,1.3,8.6c-0.5,4.2-1,5.3-2.8,5.8c-3.3,0.9-5.1,0.7-7-0.7
		c-1.6-1.2-1.7-1.8-0.5-5.6c1-3.2,2.1-4.7,4.8-6.1C318.9,749.9,320.8,749.1,321.1,749z"/>
	<path id="path562" fill="#00CC00" d="M482,751.5c1.7,2.1,0.4,3.5-3.5,3.5c-6.2,0-8.6-2.2-4.2-4C477.6,749.7,480.6,749.8,482,751.5z
		"/>
	<path id="path564" fill="#00CC00" d="M452.8,753.6c1.7,0.5,2,0.9,1.1,2c-1.5,1.9-7.5,3.7-9.9,2.9c-2.2-0.7-2.7-4-0.7-4.8
		C445,752.9,450.1,752.9,452.8,753.6z"/>
	<path id="path566" fill="#336600" d="M309.1,754.1c1.5-0.3,1.7,1.4,0.3,4.1c-1.6,3.1-2.8,3.1-8.9,0l-3-1.6l5.5-1.1
		C306,754.8,308.8,754.2,309.1,754.1z"/>
	<path id="path568" fill="#66FFFF" d="M401.2,757.1c1.5-0.2,2,2.6,2.2,14.4c0.3,11.3,0.2,12.5-1.4,12.5c-1.3,0-1.9-1.2-2.3-5.1
		c-0.4-3.1-2.1-7.7-4.2-11.6c-2-3.6-3.5-6.6-3.3-6.7c0.2-0.2,2.1-1,4.3-1.8C398.7,757.9,400.8,757.2,401.2,757.1z"/>
	<path id="path570" fill="#66CC99" d="M421.6,757c0.4,0,2.1,1.3,4,2.9c1.8,1.6,4,3.3,4.9,3.9c1.5,0.8,1.4,1.5-1.4,7
		c-1.7,3.4-3.5,8.5-3.9,11.4c-0.5,3.8-1.2,5.4-2.5,5.6c-1.6,0.3-1.7-1-1.7-15.2C421,764,421.3,757,421.6,757z"/>
	<path id="path572" fill="#009900" d="M468.8,759c3,0,7.9,4.6,9.2,8.6c1.8,5.2,0.8,13.4-1.8,15.5c-1.2,0.9-4.8,1.9-8.1,2.3
		c-6.8,0.8-10.5-0.5-14-5c-3.1-4-3.5-7-1.7-11.8c1.6-4.1,6.1-9.5,7.1-8.4c0.3,0.2,0,2.9-0.6,6c-0.9,4.6-0.9,6,0.5,8.7
		c2.4,4.5,5.8,5.9,9,3.7c1.4-0.9,2.8-2.7,3.2-4c0.7-2.7-1.1-9.9-3.3-13.3C466.9,759.2,466.9,759,468.8,759z"/>
	<path id="path574" fill="#339933" d="M370.9,761c1.1,0.5,2.3,1.5,2.7,2.1c0.7,1.2-4.4,12.9-5.7,12.9c-1.6,0-3-5.7-1.9-8.3
		c0.5-1.5,1.4-3.8,2-5.2C368.8,760.3,369.3,760.1,370.9,761z"/>
	<path id="path576" fill="#00CC00" d="M466.9,763.3c2.9,4.8,3.7,10.9,1.6,13c-2.1,2.2-2.8,2.1-5.6-0.2c-2-1.6-2.4-2.8-2.3-6.8
		c0-2.6,0.6-5.8,1.3-7.1C463.5,759.2,464.5,759.4,466.9,763.3z"/>
	<path id="path578" fill="#339933" d="M388.8,762.6c2.8,0.6,8.1,11,8.9,17.6l0.6,4.1l-4.3-0.7c-5.6-0.9-5.5-0.8-7.6-6.8
		c-1.1-2.8-3.8-7.2-6.1-9.8c-2.3-2.6-4.1-4.9-3.8-5.1C376.9,761.4,385.6,761.9,388.8,762.6z"/>
	<path id="path580" fill="#003300" d="M513.8,764.6c3.5,2.3,2.7,3.2-3.5,4c-8.7,1.1-10.9,0.9-13.9-1.1c-2.7-1.7-2.7-1.8-0.6-2.9
		C499.1,762.9,511.1,762.8,513.8,764.6z"/>
	<path id="path582" fill="#66FFFF" d="M332,765.2c0,0.7,0.3,2.4,0.7,3.7c0.5,2.1,0.3,2.3-1.8,1.6c-1.3-0.4-4-1.4-5.9-2.2l-3.5-1.5
		l4.5-1.3C332.1,763.8,332,763.8,332,765.2z"/>
	<path id="path584" fill="#339933" d="M376.3,765.8l2,2c1.7,1.7,1.8,2.5,0.9,4.9c-0.6,1.5-1.4,4.3-1.7,6c-0.8,3.8-0.6,3.7-4.1,2.1
		c-2.2-1-2.5-1.7-2.1-4.5c0.3-1.9,1.6-5,2.8-6.9L376.3,765.8z"/>
	<path id="path586" fill="#66FF66" d="M440.6,769c4.4,1.9,4.6,2.2,3.1,3.7s-2,1.4-6.5-0.7c-3.2-1.5-4.8-2.9-4.5-3.7
		C433.4,766.5,435,766.7,440.6,769z"/>
	<path id="path588" fill="#003300" d="M495.2,769.3c1.1,0.9,1.8,3.1,2,6.3l0.3,4.9l-3.8,0.3c-2.1,0.2-4.5-0.2-5.3-0.9
		c-1.4-1.2-2-9.9-0.7-11.2C488.8,767.6,493.4,768,495.2,769.3z"/>
	<path id="path590" fill="#003300" d="M483.3,769.2c1.4,0.5,2.3,9.8,0.8,9.8c-1.9,0-2.9-4.3-2.2-9.6
		C482,769.1,482.6,769,483.3,769.2z"/>
	<path id="path592" fill="#003300" d="M448.4,769.5l0.7,4.2c1,5.4,2.5,8.2,5.8,11c2.2,1.8,2.4,2.2,1,2.8c-0.9,0.3-3.4,0.5-5.5,0.3
		c-3.4-0.3-3.9-0.6-4-2.8c0-1.4-0.4-4.2-0.8-6.3c-0.6-2.9-0.4-4.3,1-6.5L448.4,769.5z"/>
	<path id="path594" fill="#003300" d="M522,773.9c0,0.4-2.1,1.4-4.7,2.3c-4.7,1.4-4.9,1.4-8.5-1.1c-4.5-3.1-4.7-3.8-1-4.4
		C513.3,769.7,522,771.7,522,773.9z"/>
	<path id="path596" fill="#66FF66" d="M436.6,774.1c3.8,2.3,4.1,3.1,2,4.8c-1.1,1-2.3,0.8-5.5-0.9c-4.4-2.2-4.8-2.9-2.9-4.8
		C431.8,771.6,432.7,771.7,436.6,774.1z"/>
	<path id="path598" fill="#66FFFF" d="M363,773c0.6,0,1.9,2.3,3.8,6.4c0.4,0.9-6.4-0.1-8.1-1.1c-0.5-0.3,0.2-1.6,1.4-2.9
		C361.3,774.1,362.6,773,363,773z"/>
	<path id="path600" fill="#003300" d="M504.8,775c3.2,2,4.2,4,2,4c-0.7,0-2.3,0.3-3.5,0.6c-1.8,0.5-2.5,0.1-3.2-1.7
		c-0.4-1.3-0.6-3-0.4-3.7C500.4,772.6,500.9,772.7,504.8,775z"/>
	<path id="path602" fill="#339933" d="M383.8,776.5c2,4.3,1.5,6.7-1,6.3c-2.5-0.3-3.3-2.6-2.4-6.4
		C381.2,773.3,382.4,773.3,383.8,776.5z"/>
	<path id="path604" fill="#66FF66" d="M434,781.1c0,0.8-5.1,3.9-6.5,3.9c-0.7,0-0.6-4.5,0.2-5.3C429,778.3,434,779.4,434,781.1z"/>
	<path id="path606" fill="#66FF66" d="M443.8,783.7c0.2,3-0.1,4.2-1.3,4.7c-0.9,0.3-2.1,0.4-2.6,0c-1.3-0.8-1.1-6.8,0.3-8.2
		C442.2,778.2,443.5,779.4,443.8,783.7z"/>
	<path id="path608" d="M483.9,781.4l2.4,1.3l-2.7,0.7c-3.2,0.8-4.7,0.1-3.9-1.9C480.3,779.7,480.8,779.7,483.9,781.4z"/>
	<path id="path610" fill="#66FF66" d="M436,786.5c0,2.2-0.4,2.5-3.5,2.5c-4.2,0-4.5-1.4-0.7-3.4C435.5,783.5,436,783.6,436,786.5z"
		/>
	<path id="path612" fill="#CC3300" d="M180.3,838.6l1.8,2.3c1.1,1.3,1.9,3.8,1.9,5.7c0,3.1-0.2,3.4-3.1,3.4c-2.4,0-2.9-0.4-2.5-1.8
		c0.3-0.9,0.8-3.5,1.2-5.6L180.3,838.6z"/>
	<path id="path614" fill="#006600" d="M539,839c6.7,0,13,4.5,13,9.2c0,1.6-1.1,1.8-11.5,1.8H529v-2.6c0-1.5,1.2-3.8,2.9-5.5
		C534.2,839.6,535.7,839,539,839z"/>
	<path id="path616" fill="#006600" d="M654.5,843c0.8,0,1.5,0.1,1.5,0.3c0,0.1,0.4,1.7,0.9,3.5l1,3.2h-6.2l-6.2-0.1l3.7-3.4
		C651.3,844.6,653.7,843,654.5,843z"/>
	<path id="path618" fill="#FFCC99" d="M367.4,844c2,0,6.6,3.6,6.6,5.2c0,0.4-2.9,0.8-6.5,0.8s-6.5-0.3-6.5-0.7c0-0.4,1-1.7,2.2-3
		C364.4,845,366.3,844,367.4,844z"/>
	<path id="path620" fill="#CC3300" d="M239.8,845c3.3,0,7.2,2.3,7.2,4.2c0,0.4-3.5,0.8-7.7,0.8h-7.6l2.3-2.5
		C235.6,845.8,237.4,845,239.8,845z"/>
</g>
</svg>
