<?xml version="1.0" encoding="utf-8"?>
<!-- Generator: Adobe Illustrator 21.0.0, SVG Export Plug-In . SVG Version: 6.00 Build 0)  -->
<svg version="1.1" baseProfile="tiny"
	 id="svg206" inkscape:version="0.92.2 5c3e80d, 2017-08-06" sodipodi:docname="28 #14605.svg" xmlns:cc="http://creativecommons.org/ns#" xmlns:dc="http://purl.org/dc/elements/1.1/" xmlns:inkscape="http://www.inkscape.org/namespaces/inkscape" xmlns:rdf="http://www.w3.org/1999/02/22-rdf-syntax-ns#" xmlns:sodipodi="http://sodipodi.sourceforge.net/DTD/sodipodi-0.dtd" xmlns:svg="http://www.w3.org/2000/svg"
	 xmlns="http://www.w3.org/2000/svg" xmlns:xlink="http://www.w3.org/1999/xlink" x="0px" y="0px" viewBox="0 0 850 850"
	 xml:space="preserve">
<sodipodi:namedview  bordercolor="#666666" borderopacity="1" gridtolerance="10" guidetolerance="10" id="namedview208" inkscape:current-layer="svg206" inkscape:cx="641.30014" inkscape:cy="524.33592" inkscape:guide-bbox="true" inkscape:pageopacity="0" inkscape:pageshadow="2" inkscape:window-height="978" inkscape:window-maximized="1" inkscape:window-width="1920" inkscape:window-x="0" inkscape:window-y="1" inkscape:zoom="0.58897835" objecttolerance="10" pagecolor="#ffffff" showgrid="false" showguides="true">
	</sodipodi:namedview>
<g id="g204" transform="translate(0.000000,0.000000) scale(1.00000,1.00000)">
	<path id="path4" fill="none" d="M0,0l218.8,0.1c188.6,0.1,217.7,0.3,211.1,1.5c-16.1,2.9-33.5,9.6-45.7,17.8
		c-9.9,6.6-24.5,22.1-33.3,35.6c-15.5,23.6-17.5,27.7-23.9,50.1c-6.9,23.9-11,29.7-33.3,47.7c-14.9,12-21.8,20.8-23.3,29.9
		c-0.3,2.3,0.3,8.6,1.6,15.8c1.2,6.6,2,14.1,1.8,16.7c-0.6,5.6-5.1,15.4-14.7,31.3c-6.9,11.6-11.1,21.9-11.1,27.4
		c0,1.4,0.9,6,2,10.1c1.8,6.8,1.8,7.6,0.4,8.5c-6.7,4.2-9.2,7.6-7,9.7c1.2,1.2,0.9,2.2-2,6.9c-6.2,10.1-6.6,13.6-5.3,46
		c0.7,15.8,0.9,29.4,0.5,30.4c-0.5,1.5-1.4,1.6-5.9,1.1c-4.6-0.6-5.8-0.4-8.9,1.8c-2.3,1.5-4.5,2.2-5.8,1.9c-1.4-0.4-3,0.3-4.8,1.9
		c-1.5,1.4-4,3-5.7,3.5c-3.3,1.1-3.4,2.1-1.8,11.3c0.4,2.4,0.5,8.3,0.2,13c-1.1,14.3,1.8,21.8,10.2,26c2.1,1.1,3.9,2.6,3.9,3.3
		c-0.1,0.6-1.1,6.6-2.3,13.1c-2.2,11.7-2.3,11.9-3.6,8.8s-8.2-10.2-10-10.2c-0.5,0-5.6-4.3-11.3-9.5c-8-7.4-10.9-9.5-12.8-9.3
		c-3.8,0.4-3.7,3.9,0.4,11.4c4.7,8.5,14.2,29.2,17.2,37.4c4.5,12.5,8.6,28.5,9.1,35.8c0.5,6.3,0.9,7.6,3,8.9
		c1.9,1.3,2.8,1.3,5.3,0.3c3.6-1.5,4.5-3,5.4-8.8c1.7-11.4,7.8-17.1,30.5-28.6c16-8.3,22.1-12.6,26.8-19.1c1.9-2.6,2.4-2.8,4-1.8
		c1,0.7,5.3,3.1,9.5,5.3c4.3,2.2,8.1,4.8,8.7,5.7c0.5,1,5.8,16.6,11.9,34.8c6,18.1,13,38.2,15.5,44.5s4.7,12,4.9,12.6
		c0.2,0.6-5.5,5-12.6,9.7c-17.4,11.8-37.6,27.8-50.7,40.3c-6.1,5.9-11.6,10.4-12.7,10.4s-5,0.9-8.6,2c-7.7,2.4-10.6,5.5-8.8,9.5
		c1,2.2,0.5,2.8-10.1,10.3c-19.8,14.1-49.7,39.4-74.5,62.9c-9,8.5-9.2,8.9-8.6,12.3c0.4,1.9,1.1,4.1,1.7,4.7
		c1.2,1.6,12,1.7,22.1,0.2l7.5-1.1l4.5,4.5c2.4,2.5,6.2,5.5,8.4,6.6c2.1,1.1,5.3,3.2,7,4.6c3.9,3.3,25.7,15.5,27.7,15.5
		c0.8,0,2.6,1.9,4.1,4.2c1.4,2.4,10.4,11.9,19.9,21.3c17.4,17.1,21.5,22.6,20.2,27.4c-0.8,3.1,5.6,4.6,13.5,3.3
		c17.2-2.9,21.3-3.3,33.3-3.5c14.1-0.2,20,1,21,4.4c0.9,2.8,3.8,2.4,11.6-1.7l7-3.7l16.2,0.7c20.8,1,31.8,2,39,3.7
		c5.2,1.2,6.6,1.1,12.5-0.4c3.7-1,9.2-3.3,12.2-5.1s7.4-4.3,9.8-5.5l4.2-2.2l3.3,2.5c1.7,1.3,4.6,2.8,6.2,3.2c1.7,0.4,4.8,1.7,7,2.8
		c3.9,2.1,8.1,2.3,22,1.4c2.2-0.1,8.7,0.3,14.5,0.9c5.8,0.7,20.4,1.3,32.5,1.5c21.8,0.3,22,0.3,25.3-2.1c3.2-2.2,4-2.3,13-1.8
		c6.6,0.4,12.3,1.4,17.7,3.2c5.3,1.8,10.7,2.8,16,3c8.1,0.3,10.9,1.2,19.5,6.1c2.5,1.4,8.1,3.6,12.5,4.9s10.3,3.1,13,4.1
		c13.5,4.6,30.1,4.4-320.3,4.4H0V425V0z M210.4,189.6c4.8,4.8,10.5,5,14.9,0.3c2-2.2,2.7-3.9,2.7-7c0-5.1-1.3-7.5-5-9.4
		C211.7,167.7,201.5,180.7,210.4,189.6z M221,200c-4.1,0-5.4,7.1-1.7,9.4c3.7,2.3,7.7-4.3,4.6-8C223.3,200.6,222,200,221,200z
		 M262,544c-1.5,1.5-2,3.3-2,7.9c0,5.7,0.2,6,3.4,8c4.8,3,9.1,2.7,12.7-0.8c1.7-1.8,2.9-4,2.9-5.6c0-3.4-2.4-8-5.2-9.9
		C270.6,541.3,264.4,541.6,262,544z M230.2,584.6c-5.4,3.7-0.6,11.6,5.2,8.4c3.3-1.7,3.8-4.5,1.4-7.5
		C234.5,582.6,233.3,582.4,230.2,584.6z"/>
	<path id="path6" fill="none" d="M654.3,0.1L850,0v425v425h-92.1c-63.4,0-91.8-0.3-91.4-1c1.2-1.9-11.5-31.3-35.2-81.5
		c-12.5-26.4-12.2-25.5-9-29.7c1.5-1.9,2.7-4.1,2.7-4.8s-2.7-4.4-6-8.1c-4.5-5.1-7.3-9.5-11.1-18.1c-7.4-16.3-14.8-30.9-26.2-51.3
		c-28.1-50.6-44.3-76.1-55.9-88.1c-4.6-4.8-4.9-5.3-4.2-8.9l0.7-3.7l11.6,11.4c15.5,15.3,26.5,25.3,35.6,32.7
		c6.4,5.1,8.2,6.1,11.5,6.1c6.5,0,9.2-3.4,16.2-20c8-19.2,8.4-23.2,3.4-42c-2-7.4-5.2-20-7.1-28c-2-8-5.6-21.2-8.1-29.3
		c-2.6-8.1-4.4-15-4.2-15.3c1.1-1,24.6,5.9,33.1,9.7c15.4,6.9,21.7,7.4,21.7,1.5c0-2.3-4.4-7-9.5-10c-5.5-3.4-8.7-7-12.5-14.6
		l-3.8-7.5l3-5.8c6.3-12.6,5.8-21.8-2.3-35.9c-3.9-7-4-7.4-2.4-9.8c3.7-5.7,5.8-11.8,6.3-18.2c0.3-3.8,0.8-6.8,1.1-6.8
		c0.4,0,7.9,1.5,16.8,3.4c13.3,2.8,16.4,3.1,17.3,2.1c3.3-4-6.7-11.9-28-22.3l-17.5-8.6l6-1.3c3.3-0.7,14.8-1.8,25.5-2.3
		c10.7-0.6,20.5-1.5,21.8-2c1.9-0.8,2.3-1.7,2-4.2c-0.3-3-0.8-3.4-7.8-5.9c-4.1-1.5-11.1-4.8-15.5-7.3c-8.8-5.1-15.9-7.6-21.7-7.6
		H611l3.1-5.7c2.3-4.3,2.9-6.4,2.4-8.7c-0.6-3.1-1.1-7-1.4-10.5c0-1-1.3-3-2.7-4.5l-2.7-2.6l4.8-10.3c2.6-5.6,6-12.1,7.6-14.5
		c3.6-5.4,3.7-8,0.4-8.8c-3.6-0.9-6.3,0-13,4.4l-6,3.8l0.8-9c0.4-5,1.4-11.2,2.2-13.7c0.8-2.6,1.5-5.2,1.5-5.9
		c0-2.9-16.5-14-20.8-14c-2.7,0-3.5-0.7-5.8-4.8c-1.5-2.6-4.4-7.2-6.4-10.2c-8.2-12.2-7.7-16.6,3.2-29.2
		c10.2-11.8,12.3-16.8,12.3-28.8c0-8-0.6-11.4-3.7-22c-2.1-6.9-4.7-17.2-5.9-23c-2.2-11.3-4.3-17.1-8.2-22.2
		c-1.4-1.8-2.8-4.4-3.2-5.8c-1.5-5.1-7.7-15.7-12.3-21c-6.7-7.9-24.9-25.1-30.2-28.6c-5.2-3.5-12.1-5.3-23.8-6.1
		c-7.5-0.5-8.7-0.9-13.2-4.3c-6.1-4.5-11.3-6.6-22.7-9C458.7,0.2,462.2,0.2,654.3,0.1z M621,220c-1.6,1.6-1.8,2.5-1,4
		c1.9,3.5,4.7,4.3,7,2c2.4-2.4,2.4-2.9,0.4-5.8C625.5,217.5,623.6,217.4,621,220z M637.5,706.3c-6.6-2.5-7.4-1-2.3,4
		c1.8,1.8,3.3,3.6,3.3,4.2c0,1.7,5.1,1.7,6.4,0.1c1.1-1.3,1-1.8-0.3-3.1c-0.9-0.9-1.6-2-1.6-2.4C643,708.6,640.5,707.4,637.5,706.3z
		 M671,735.8c-4.5,3.6,0.3,10.8,5.5,8.4c3.2-1.5,4-4.7,2.1-7.7C676.6,733.5,674.1,733.3,671,735.8z M682,789.7
		c0,8.2,11,13.1,18.8,8.3c6.9-4.2,7.8-15.2,1.4-18.4C692.2,774.6,682,779.7,682,789.7z"/>
	<path id="path8" fill="#D00000" d="M473.4,11c6.9,2.2,10.6,4.1,15,7.7c6.8,5.5,7.6,6.8,4.4,7.7l-2.3,0.6l2.3,1.8l2.4,1.8l-2.9-0.2
		c-1.5-0.1-4.7-0.5-6.9-0.9c-2.7-0.5-4.4-0.3-4.9,0.4c-1.1,1.9,1.3,3.9,5.4,4.6c5.4,0.9,9.6,3.8,13.6,9.4c2.5,3.4,4.1,4.8,5.1,4.4
		s1.4-1.3,1-2.8c-1.2-4.7,5.9-4.7,15,0c9.5,5,13.4,4.6,7.7-0.7c-6.2-5.8-16.5-9-22.4-6.9c-3.9,1.3-4.9,0.7-2.6-1.7
		c2.4-2.4,8-2,15.4,1.2c3.4,1.4,6.5,2.6,6.8,2.6s-0.2-1.3-1.1-2.9c-2.6-4.4-10-7.5-16.7-6.9l-5.4,0.4l-1.4-3.5
		c-0.8-2-1.5-3.9-1.7-4.2c-0.6-1.4,5-1.8,10-0.8c10.4,2.2,25.3,10.8,22.9,13.2c-2,2-1.1,3.3,4.5,6c7.2,3.6,14.3,10.3,20.5,19.5
		c5.1,7.7,6.3,10.8,2.9,7.7c-1.6-1.5-2.2-1.6-3.5-0.5s-0.5,2.3,6.3,8.9c8.9,8.6,7.5,5.1,16.4,40.6c6.2,25.1,6.5,30.1,2.4,39.2
		c-3.3,7.3-6.9,11.4-4.2,4.8c3.9-9.2,2.8-24.5-2.1-31.8c-1.4-2-2.8-3.5-3.1-3.3c-0.2,0.3,0.4,4.8,1.3,10.1c2.7,14.7,1.8,20.5-5,34
		c-4.9,9.7-5.5,11.7-5.5,17c0,7.1,1.8,11.3,8.9,21.8c2.8,4.1,5.1,7.9,5.1,8.5c0,1.9-3.3,3.1-5.3,2c-1.2-0.6-2.3-0.6-3.2,0.2
		c-1,0.9-1.5-0.3-2.5-6.2c-0.7-4-2.1-9.6-3.1-12.3c-2.8-7.6-5.9-20.4-5.9-24.5c0-2,2.1-9.9,4.7-17.6c4.1-12.3,4.7-15.2,5.1-24.9
		c0.5-12.2-1.6-24.9-4.8-29.5c-1-1.4-2.1-4.8-2.5-7.5c-1.7-11.1-7.8-26.6-11-27.9c-3.3-1.2-3.3-0.5-0.4,5.9
		c2.5,5.6,6.9,20.8,6.9,24.1c0,0.6-1,1-2.2,1c-2.1-0.1-2.4,0.5-3,6.7c-1.5,15.3-4.9,24.3-12.5,32.7c-4.4,4.9-12.8,10.8-13.9,9.7
		c-0.3-0.3,1-2.9,3-5.9c1.9-2.9,4.7-8.1,6-11.4c4-9.9,5.9-25.2,3.6-29.5c-1.6-2.9-3-2.3-3,1.4c0,8.1-6.6,25-12.5,32.2
		c-2.4,3-2.4,2.9,0.4-3.5c5.6-12.7,9.8-37.6,8.8-52.7c-0.4-7.1-1.1-9.7-4.1-15.8c-3.9-7.9-7.4-11.5-11.2-11.5
		c-1.3,0-2.4,0.3-2.4,0.6c0,0.4,1.8,2.7,4.1,5.1c7,7.7,8.4,11.9,8.4,26.3c0,11.1-0.3,13.5-2.9,21.4c-3.1,9.4-9.9,20.8-15.8,26.4
		l-3.4,3.2l3.7-7.6c5.8-11.9,7.1-18.4,7.7-39.6c0.5-21.1,0-25.8-2.8-25.8c-2.4,0-2.9,1.6-1.9,6c1.2,5,1.1,17-0.1,17
		c-0.5,0-1-0.5-1-1c0-0.6-0.9-1-2-1c-1.4,0-2.1,0.9-2.5,3.7c-0.3,2.1-1.3,5.3-2.1,7.1c-0.8,1.8-1.4,4.3-1.4,5.6s-0.9,3.5-2,4.9
		s-2,3.1-2,3.7c0,2.3-6.4,14.4-10.3,19.7c-3.7,5-5.7,5.9-5.7,2.7c0-0.8-0.6-1.7-1.4-2c-2-0.8-3.6-8.9-3.6-18.3
		c0-9.6,3.5-22.4,8.7-32.4c3.4-6.4,3.5-7.1,2-8.2c-2.3-1.7-2.2-2.2,1.7-7c2.6-3.2,3.2-4.5,2.3-5.4c-0.6-0.6-1.7-1.1-2.4-1.1
		c-1.7,0-9.5,10.6-14.5,19.8c-4.1,7.5-6.1,8.6-6.6,3.9c-0.4-3.4-1.5-3.4-4.1,0c-5.1,6.8-6.4,7.1-5.5,1c0.8-5.7,7.3-18.9,12.7-25.8
		c5.2-6.5,12.5-11.6,17.6-12.4c6.5-1.1,9.2-3.9,4.7-5.1c-3.5-0.8-12.5,2-17.4,5.6c-7.5,5.4-20.6,25.2-26.8,40.5
		c-4.5,10.9-5.7,17.9-5.2,29.7c0.4,11-0.3,10.9-2.6-0.4c-2-9.5-2-25.3-0.1-33.3c1.5-6.7,5.6-16.5,8.6-20.6c1-1.5,1.9-3.2,1.9-3.9
		c0-1.7-4.2-0.2-6.2,2.4c-2.3,2.8-7.5,15.3-9.3,22.3c-1.5,5.8-2.8,7.5-5.1,6.6c-0.9-0.3-0.8-1.9,0.6-7.1c1-3.7,2.6-8.4,3.5-10.5
		c6.7-16.1,6.4-16.8-1.5-3.7c-7.4,12.2-8.5,16.7-8.5,33.7c0,7.9-0.3,14.3-0.7,14.3c-0.8,0-4.1-8.8-5.9-15.7c-1-4.3-1-6.7,0-13.3
		c0.7-4.4,1-9.5,0.7-11.5c-1-5.3,4.1-15.4,12.2-23.7C442,37.1,452.3,32,465.6,32c7.9,0,9.7-1,6.2-3.4c-3.2-2.3-13.5-2.1-20.5,0.4
		c-11.4,4-24.2,14.1-31.3,24.7c-5.1,7.6-10.3,19.9-11.5,27c-0.5,3.5-1.1,4.3-2.8,4.3c-3.9,0-4.7,1.5-6.2,12.1
		c-5.1,36.7-11.2,54.1-26.4,75.3c-13.9,19.5-18.6,30-20.6,45.9c-0.8,6.3-1.6,7.5-3.5,5.2c-2-2.5-0.7-26.5,1.8-33.7
		c1.1-3.1,6.6-13.7,12.3-23.5c13.1-22.6,16.2-29.6,23.9-52.3c13-38.5,16.1-45.3,26.5-56.9c6.3-7.1,7.1-9.6,2.5-8
		c-3.6,1.3-8.7,6.9-14.6,16c-5.6,8.7-9,16.8-15.5,37.3c-5.5,17.2-15.7,42.6-17.2,42.6c-0.5,0-0.6-1.7-0.3-3.8c0.4-2,1-8.9,1.5-15.3
		c1-13,2.8-18.4,8.6-25.1c4.1-4.8,4.4-6.8,1.2-6.8c-2.8,0-9.9,9.2-12.3,16c-0.8,2.5-2.3,6-3.1,7.7c-1.2,2.3-1.6,6.6-1.8,15
		c-0.1,13.4-1.2,17-7.6,24.5c-2.1,2.6-3.9,5.1-3.9,5.6s-3.1,3.5-7,6.6c-3.8,3.1-7,5.4-7,5.2s1.1-2.4,2.5-4.7c3.4-6,4.1-9.1,6-25.9
		c2-17.5,3.7-25.7,7-32.1c1.3-2.7,7.4-10.4,13.5-17.1c10.8-11.8,16-19.4,26.5-38.1c2.8-4.9,7.4-11.3,10.4-14.3
		c6.2-6.3,16.8-11.9,25.6-13.5c3.3-0.6,7.1-1.6,8.4-2.1l2.4-0.9l-2.3-1.6c-2-1.4-3.3-1.5-8.7-0.6c-7.5,1.3-17.8,5.9-24.4,11
		c-6,4.5-10.7,10.7-17,22.4c-6.5,11.9-11.6,19.1-23.2,32.4c-18.3,21.2-19.8,24.4-22.3,50.5c-1.7,17.3-4,24.8-10.1,33.2
		c-12,16.3-14.6,23.2-14.4,38.6l0.2,11.2l-4.8,7.3l-4.8,7.2l-0.3-8.7c-0.3-9.6,1.5-19.4,4.9-25.9c1.5-3,1.8-4.4,1-5.2
		c-2.1-2.1-4.5,0.7-8.2,9.4c-6.4,14.8-6.9,16.9-7,30.9v13h-5.2h-5.2l0.1-18.8c0-20.8,0.9-24.6,8.1-38.4c4.7-9.1,9-13.8,17.6-19.3
		c16.7-11,21.2-18.9,24.8-43.5c3.2-21.9,4.8-25.9,13.4-34.5c5.7-5.6,6.7-7.5,3.9-7.5c-2.7,0-8.1,3.8-11.4,8
		c-5.4,6.8-7.7,13.5-10,29.5c-3.3,23.4-5,25.8-24,35.5c-10.8,5.6-19.1,13.9-24.8,24.7c-2.2,4.3-4.4,9.6-4.8,11.8
		c-0.6,3.5-0.8,3.7-1.6,1.6c-1.9-5.3-2.1-15.7-0.3-21.1c2-6.1,5.8-10.1,22.6-24.1c19-15.8,24.7-23.6,30-40.9
		c5.5-18.3,10.8-27.7,22.4-39.9c7-7.2,8.5-9.8,6.9-11.4c-0.8-0.8-4.2,0.9-7.3,3.7c-2.9,2.5-2.4,1.6,4.8-9.4
		c6.9-10.5,22.2-26.1,31.6-32.2C404.2,15.2,419.9,9,435,7.1C449.3,5.2,458.2,6.1,473.4,11z"/>
	<path id="path10" fill="#F7D1C4" d="M449.8,98.5c0.5,9.8,4.4,27.9,6.9,32.2c1.3,2.4,2.6,4.3,2.9,4.3s0.2-1.6-0.2-3.5
		c-0.8-4.3,0.3-4.6,1.7-0.5c1.4,3.7,2,3.8,4.2,0.1c1.6-2.7,1.6-2.9-0.3-4.6c-2.1-1.9-2.7-4.5-1.1-4.5c0.5,0,1.2-3,1.6-6.8
		c0.4-3.7,1.2-9.2,1.9-12.2l1.3-5.5l0.5,11.5c0.6,14.2,2.9,21.6,7.3,24c2,1.1,3,2.5,2.9,3.9c-0.1,2.5,0.3,2.5,3.6,0.6
		c1.4-0.8,3.5-1.4,4.7-1.5c1.2,0,3.8-1.3,5.6-3l3.4-3l-1.6,4.5c-1.8,5.2-1.2,6.3,4.2,7.2c3.2,0.5,4,0.1,8.6-4.2
		c2.8-2.6,6.4-6.8,8.1-9.3c4.2-6.3,3.7-3.1-0.7,4.8c-6.6,12-7.3,13.4-7.3,15.2c0,3,5,2.2,9.5-1.5l4-3.2l-2.2,3
		c-4,5.7-5.4,6.5-9.8,5.5c-5.6-1.3-7.8-1.2-10.1,0.5c-2.5,1.9-0.9,3,5.8,3.8c2.7,0.4,7,1.7,9.5,2.9c5.9,2.9,15.3,11.4,15.3,13.8
		c0,2.5-3.2,3.6-4.5,1.4c-4.1-6.9-11.9-11.8-21.7-13.4c-6.8-1.1-10.1-0.4-9.3,1.9c0.3,1.1-0.9,3.1-3.6,5.6
		c-4.3,4.1-9.4,13.6-10.5,19.3c-0.3,1.7-0.3,5.2,0.1,7.7c0.5,3.9,1.2,4.9,4.8,7.2c2.3,1.5,5,2.7,5.9,2.8c1,0.1,2.5,0.8,3.5,1.7
		c3.2,2.8,8.8,2.7,8-0.1c-0.6-2.5,1-3.1,6.2-2.4c2.7,0.4,4.1,0.2,4.1-0.6c0-0.6,0.6-1.1,1.4-1.1s2.1-0.9,2.9-2
		c0.8-1.1,1.6-1.7,2-1.4c0.3,0.3-0.9,2.5-2.6,4.8c-1.8,2.2-5.7,8.8-8.7,14.6c-7.7,14.7-12.3,19-27.5,25.9
		c-32.6,14.7-39.4,16.1-48,10.1c-7-4.8-22.8-20.9-31-31.6c-3.7-4.9-7.5-9.4-8.3-10.1c-1.2-1-1.3-3-0.7-11c1-13.5,2-18.5,5.7-28.1
		c2.2-5.8,4-8.9,6-10.3c2.2-1.6,2.8-2.8,2.8-5.8c0-2.6,0.7-4.4,2.1-5.7c2.1-1.9,2.2-1.9,1.6,0.1c-2.2,7.7-2.7,11-2.1,14.2
		c0.5,2.5,0.3,3.4-0.4,2.9c-0.6-0.4-2.3-0.4-3.7,0c-1.9,0.5-2.5,1.2-2.3,2.8s0.9,2,2.8,1.8c1.4-0.2,3-1,3.6-1.8
		c0.6-0.7,1.4-1.1,1.7-0.7c0.4,0.3,0.2,1.3-0.5,2c-0.9,1.2-0.5,2.1,2.3,4.8c1.9,1.9,4.3,4.5,5.4,5.7c1.9,2.1,2,2.2,2.3,0.4
		c0.4-1.6,0.9-1.3,3.8,2l3.3,3.9l0.1-3l0.1-3l2.3,2.8c2.6,3.2,6.1,2.9,5-0.5c-0.3-1,0-2.5,0.6-3.3c1-1.3,0.7-1.6-1.9-2.1
		c-1.7-0.4-3.1-0.9-3.1-1.3c0-0.3,1.8-1.8,3.9-3.4c5.2-3.6,8.3-10.1,8.5-17.7c0-3.3,0.4-6,0.7-6c0.3,0,1.4,0.9,2.3,1.9
		c3.3,3.6,7.8,3.3,8.1-0.6c0-1,0.4-2.3,0.7-2.9c1.2-1.9-1.7-5.9-5.9-8.2c-2.3-1.2-7.9-3.2-12.4-4.4c-8.1-2-14.6-2.1-23-0.2
		c-2.6,0.6-2.7,0.5-2-2.8l0.7-3.3l8.4-0.3c7.6-0.3,9.6,0.1,21,3.9c6.9,2.2,13,4.5,13.7,5c0.6,0.6,2.5,1.4,4.2,1.9
		c2.4,0.7,3.1,0.6,3.1-0.6c0-2.3-3.1-4.7-10.2-7.9c-4.1-1.8-7.1-3.9-7.7-5.3c-1.6-3.3-1.3-4.6,0.5-2.8c3.7,3.7,4.9,0.3,3.3-8.9
		c-1.1-6.2-0.8-12.2,0.9-20.5C449.5,93.6,449.5,93.7,449.8,98.5z M466.9,205.5c-5.4,2.9-4.3,8.2,1.5,6.9c3.9-0.8,7-3.4,5.7-4.7
		c-0.5-0.5-0.7-1.6-0.4-2.3C474.4,203.5,470.4,203.6,466.9,205.5z M441.4,211c-2.6,0-2.4,2,0.5,5.4c2.1,2.4,8.9,5.8,10.1,5.1
		c0.6-0.4,1.7,0.1,2.6,0.9c2,2.1,8.8,2.1,10.5,0c1.7-2-0.2-3.3-5.1-3.5c-1.9-0.1-3.9-0.3-4.5-0.4c-1.9-0.3-9.2-4.4-10.4-5.9
		C444.3,211.7,442.7,211,441.4,211z M444,227.8c0,1.9,5.2,5.2,8.2,5.2c3.1,0,4.8-2.4,3-4.2C453.7,227.3,444,226.4,444,227.8z"/>
	<path id="path12" fill="#EC0000" d="M403.8,118.6c0.2,5.6-0.1,9-0.8,9.2c-1.8,0.6-4,3.3-4,4.8c0,0.8,0.9,1.4,2.1,1.4
		c2,0,2.1,0.3,1.4,6.2c-0.4,3.5-0.9,6.5-1.1,6.7s-1.2-0.3-2.2-1.2c-1-1-2.4-1.7-3-1.7c-1.5,0-1.7,1.5,2.3-14.6
		c1.9-7.6,3.5-14.8,3.5-16c0-1.1,0.3-2.4,0.8-2.8C403.2,110.2,403.6,113.8,403.8,118.6z"/>
	<path id="path14" fill="#EC0000" d="M418,116c0.6,0,1,0.4,1,0.9c0,0.4,1.1,2.5,2.5,4.5l2.4,3.6H418h-6v-3.2v-3.1l2.3,2.1
		c3.4,3.2,4.7,2.9,3.6-1c-0.5-1.8-0.9-3.4-0.9-3.5C417,116.1,417.5,116,418,116z"/>
	<path id="path16" fill="#A90000" d="M429.5,126.2l4.8,0.1c2.7,0,5.2,0.6,5.9,1.4c1.7,2.1,0.8,2.1-5.2,0.2L429.5,126.2z"/>
	<path id="path18" fill="#FC0C0C" d="M553.7,139.7c0.7,3.5-2.4,24.3-4.5,30.8c-1.1,3.3-2.8,10.5-3.8,15.9
		c-2.1,12.3-1.5,33.4,1.6,50.6c1.1,6.3,2,13.6,2,16.2c0,4.5-0.1,4.7-2.7,4.5c-1.9-0.1-3-0.9-3.3-2.2c-0.3-1.1-1.9-2.7-3.6-3.5
		c-3.1-1.5-3.1-1.6-2.6-7.6c0.3-3.9-0.1-8-1.1-11.5c-2.4-8.2-3.6-23.3-2.6-32.4c0.4-4.4,2.4-14.5,4.4-22.5c1.9-8,3.5-15.9,3.5-17.5
		c0-1.7,0.8-4.2,1.8-5.6c8.6-12.9,10.2-15.3,10.3-16.3C553.2,138,553.5,138.5,553.7,139.7z"/>
	<path id="path20" fill="#EC0000" d="M393.3,146.9l2.2,2.1c1.2,1.1,2.7,2,3.4,2c0.7,0,1.1,0.5,0.9,1.1s-0.6,0.9-0.8,0.8
		c-0.3-0.1-1.6,0.3-2.9,1.1l-2.5,1.3l2.3,1.8l2.3,1.9l-4.5,10.9c-2.5,6-6.4,14-8.7,17.8c-10.1,16.6-16.9,34.2-17.7,45.6
		c-0.6,7.5-0.7,7.7-2.4,6.1c-2.4-2.2-2.4-5.4,0.1-27c1.2-10.9,2.7-19,4-22.4c1.2-2.9,6.2-11.6,11.1-19.2c5-7.6,9.9-16,11.1-18.8
		L393.3,146.9z"/>
	<path id="path22" fill="#0EFFF0" d="M422.5,150.5c0,1.3-0.8,2.1-2.4,2.3c-3.2,0.5-4.8-1.2-3.1-3.3
		C418.8,147.3,422.5,148,422.5,150.5z"/>
	<path id="path24" fill="#FC0C0C" d="M534.9,153.6c0.2,0.2-0.3,1.2-1.2,2.2c-1.9,2.1-2.2,4.2-0.7,4.2c0.6,0,1,0.9,1,2
		c0,2.8-1.2,2.5-7.4-1.9l-5.5-3.8l4.2-2C528.9,152.5,533.5,152.2,534.9,153.6z"/>
	<path id="path26" fill="#FC0C0C" d="M355,169.4c0,0.2-2.3,5.1-5.1,11c-6.2,12.9-6.6,15.9-7.2,47.4c-0.4,20.7-0.3,23.1,1.1,22
		c2.3-2,4.2-7.3,4.2-11.8c0-2.5,0.4-3.9,1-3.5c0.6,0.3,1,3.7,1,7.6c0,6.2-0.2,6.9-2,6.9c-1.1,0-2.5,0.9-3.2,1.9
		c-1.1,1.8-1.4,1.8-4.1,0.5c-4.1-2.2-6.9-1.4-9.6,2.8l-2.4,3.7l-3.7-2.2l-3.8-2.1l3.3-3.9c6.5-7.6,7.7-16.1,5.1-34.8
		c-2-13.9-0.3-20.9,7-29.1c1.8-2.1,3.6-4.8,4-6c0.3-1.3,3.1-4.2,6.2-6.5C351.8,169.7,355,168.1,355,169.4z"/>
	<path id="path28" fill="#00008D" d="M431,170.4c0.9,1.2,0.4,1.8-2.9,3.5c-4.8,2.5-7.4,2.6-9.1,0.6c-1-1.3-1-1.9,0.5-3.5
		C421.7,168.6,429.1,168.2,431,170.4z"/>
	<path id="path30" fill="#00008D" d="M512.1,176.6c2.5,2.3,4.9,6.6,4.9,9c0,2-5.1,10.3-6.4,10.4c-0.5,0-1.7,0.6-2.5,1.4
		c-1.8,1.5-11.1,3.8-11.1,2.6c0-0.4,1.1-1.2,2.4-1.8c5.1-2.3,10.6-12.6,10.6-20C510,174.7,510,174.7,512.1,176.6z"/>
	<path id="path32" fill="#FC0C0C" d="M551.4,179.5l0.8,4c0.5,2.2,2.7,9.6,5.1,16.5c3.6,10.9,4.1,13.6,4.1,21
		c-0.1,8.9-1.2,12.5-5.9,18.8l-2.4,3.3l-0.6-3.8c-0.4-2.1-1.3-7.1-2.1-11.2c-1.9-9.8-2.1-33.6-0.4-42.1L551.4,179.5z"/>
	<path id="path34" fill="#0EFFF0" d="M526.4,184.3c-0.3,0.9-1.2,1.3-2,1c-1.9-0.7-1.8-2.1,0.4-2.5
		C527,182.3,527.2,182.4,526.4,184.3z"/>
	<path id="path36" fill="#0EFFF0" d="M497.5,189.4c1.7,1.2,1.7,1.6,0.5,3.1c-1.9,2.3-6.5,4.5-9.5,4.5c-2,0-2.5-0.5-2.5-2.5
		c0-1.8,1-3,3.8-4.4C494.3,187.7,495.1,187.6,497.5,189.4z"/>
	<path id="path38" fill="#0EFFF0" d="M522.1,195.7c1.3,1.6,1.2,1.7-0.3,0.4c-1-0.7-1.8-1.5-1.8-1.7
		C520,193.6,520.8,194.1,522.1,195.7z"/>
	<path id="path40" fill="#FC0C0C" d="M386.2,195c0.2,0,0,5.7-0.5,12.7c-0.9,14.7,0.3,31.2,3.2,42.4c1,4.1,1.8,7.5,1.6,7.7
		c-0.1,0.2-4.6-2.7-9.8-6.3l-9.6-6.7l0.6-7.1c0.7-10.3,3.7-20.7,9.3-32.5C383.7,199.6,386,195,386.2,195z"/>
	<path id="path42" fill="#EC0000" d="M522.1,207c0.9,0,1.5,8,1.2,16.2c-0.1,2.8-1.5,7.4-3.4,11.5l-3.2,6.8l-1.2-7.5
		c-0.7-4.1-1.6-9.1-2-11c-0.6-3-0.1-4.3,3.6-9.8C519.4,209.8,521.7,207,522.1,207z"/>
	<path id="path44" fill="#FCFCB4" d="M392.1,219.5l2.7,3.5c9.8,12.5,18.9,22.5,27.8,30.2c10.1,8.8,11.4,10.4,11.4,13.6
		c0,1.3-0.4,1.2-1.9-0.7c-2.3-3-5.1-2.9-12.4,0.3c-3.2,1.4-7.5,2.6-9.7,2.6c-2.1,0-4.5,0.7-5.3,1.5c-1.3,1.2-1.6,0.9-2.2-3.3
		c-0.4-2.6-2.2-9.4-4.1-15.2c-3.9-12.3-6.4-23.6-6.4-28.8L392.1,219.5z"/>
	<path id="path46" fill="#EC0000" d="M278.5,223.7l0.8,4.4c0.8,4.5,0.4,16.1-0.8,19c-0.6,1.5-1.1,1.5-4.3,0.4
		c-2-0.8-4.5-1.6-5.4-1.9c-1.5-0.4-1.3-1.2,1.5-5.9c1.8-2.9,4.3-7.7,5.7-10.6L278.5,223.7z"/>
	<path id="path48" fill="#F57900" d="M571.1,225.8l4.2,3.5c4,3.3,4.2,3.8,4.4,9.3c0.1,3.3,0.5,7.4,0.8,9.2c1.6,7.3-5.2,17.1-15,21.6
		c-3.2,1.4-5.9,2.6-6.1,2.6c-0.2,0-1.6-1.8-3-4c-2.4-3.6-2.6-4.7-2.2-10.8c0.6-8,2.2-11.4,9-18.9c2.7-3,5.7-7.1,6.5-9L571.1,225.8z"
		/>
	<path id="path50" fill="#EC0000" d="M528.3,231.7l1.5,2.9c1.6,3.1,1.9,13.1,0.4,14.6c-0.5,0.5-2.6,0.6-4.5,0.3l-3.6-0.7l2.4-4.7
		c1.3-2.6,2.7-6.4,3.1-8.6L528.3,231.7z"/>
	<path id="path52" fill="#E9B96E" d="M599.4,236.5c-0.8,1.9-1.4,6.6-1.4,10.8c0,9.1-2.3,16.5-5.3,17.2c-3.3,0.7-12.7,1.1-12.4,0.5
		c3.8-6.4,5.8-12.6,5.5-17.1l-0.3-5.1l4-1.3c2.2-0.8,5.4-3,7-4.9C600.4,232.2,601.3,232.1,599.4,236.5z"/>
	<path id="path54" fill="#48981C" d="M355.6,238c0.4,0,1.2,0.6,1.8,1.3c2.6,3.1,13.6,11.8,20.1,15.8c10,6.2,15.4,10.8,18.7,15.8
		c3.5,5.6,3.5,7.9,0,13.5l-2.8,4.4l-3.5-2.6c-4.4-3.4-4.9-4.1-4.9-7.9c0-6-8.4-9.5-13.8-5.7c-2.2,1.5-2.5,1.3-8.3-3.7
		c-3.4-2.9-6.5-6.3-7-7.6c-0.5-1.4-0.9-7.1-0.9-12.9C355,242.7,355.3,238,355.6,238z"/>
	<path id="path56" fill="#EC0000" d="M266.7,246.4c0.2,0.2,2.1,3.2,4.2,6.7c3.8,6.2,3.9,6.5,2.3,8.9c-4.9,7.5-8.1,15.4-8.8,21
		c-0.6,5.4-1,6.3-3.6,7.6c-3.3,1.7-3,2.2-5.3-9.2c-1.5-7.6-1.5-8.3,0.4-14.2c1-3.5,3.8-9.6,6.2-13.7
		C264.4,249.4,266.5,246.2,266.7,246.4z"/>
	<path id="path58" fill="#73D216" d="M498.2,250.1c0.8-0.1-0.1,2.8-1.4,4.5c-0.5,0.7-0.6,2.9-0.2,5.1c0.5,3.2-0.1,5.4-2.6,11.4
		c-4.1,9.2-5.3,22.9-2.6,29.3c0.9,2.2,1.3,4.4,0.8,5.3c-1.2,2.1-4-4.9-4.5-11.4c-0.3-4.2-0.9-5.7-3.1-7.4c-1.4-1.1-2.6-2.7-2.6-3.4
		c0-0.7-1.2-2.7-2.6-4.4l-2.5-3.1l2.7-2.3c2.1-1.9,2.9-3.6,3.6-8.7c1.1-8.3,2.6-10.4,9-12.9C495.1,251,497.8,250.1,498.2,250.1z"/>
	<path id="path60" fill="#70C04C" d="M280.4,254.4c5.2,1.3,16.5,2.6,23.2,2.6c9.4,0,16.9,1.5,20.5,4.1c3.7,2.6,3.7,4.3-0.1,8.6
		c-1.6,1.8-3,4.4-3,5.7v2.3l-5.2-1.8c-2.9-1-7.9-1.8-11.1-1.9c-7.1,0-12-2-17-6.8c-3.8-3.6-9.7-11.4-9.7-12.7
		C278,254.1,279.1,254.1,280.4,254.4z"/>
	<path id="path62" fill="#F57900" d="M510.9,258.6c5.6,3,13.1,10.4,13.1,13c0,1,1.5,4,3.3,6.8c2.8,4.5,3.2,5.9,3.2,12.2
		c0,6.2-0.4,7.6-3,11.5c-1.6,2.4-3.3,5.3-3.6,6.4c-0.5,1.8-1.2,2-6.5,1.6c-3.2-0.2-7.1-0.9-8.6-1.7s-3.6-1.4-4.6-1.4
		c-2.8,0-8-6.3-8.8-10.5c-1.2-6.6,0.1-15.7,3.5-24c1.8-4.5,3.2-9.5,3.1-11.5c-0.1-1.9-0.2-3.8-0.1-4.3
		C502.1,255.3,505.9,256.1,510.9,258.6z"/>
	<path id="path64" fill="#E9B96E" d="M615.8,259c0.2,0-10.8,22.2-11.3,22.8c-0.1,0.2-2.8-1.1-5.9-2.7c-3.1-1.7-6.7-3.1-8.1-3.1
		c-2.3,0-9.4-3.8-9.5-5.1c0-0.4,3.7-0.9,8.3-1.1c8.3-0.5,14.4-2.8,23.2-8.7C614.2,259.9,615.6,259,615.8,259z"/>
	<path id="path66" fill="#EC0000" d="M540.9,262.6l3.1,0.6l-2.1,2.7c-1.9,2.4-2,3.4-1.4,12.2c0.8,11.6-0.8,18.5-5.5,23.9l-3.1,3.5
		l1.6-3.4c2-4,3-12.6,2.1-17.4c-0.4-1.9-2-5.4-3.6-7.8s-3-5-3-5.8c0-0.7,1.4-3.1,3.1-5.2C535.3,261.8,535.8,261.6,540.9,262.6z"/>
	<path id="path68" fill="#EC0000" d="M548.1,266c1.1,0,0.6,2.4-1.6,7.5l-1.3,3l-0.1-3.3c-0.1-1.8,0.4-4.2,0.9-5.3
		C546.6,266.9,547.5,266,548.1,266z"/>
	<path id="path70" fill="#6C0090" d="M554,275.4c0,1.6-4.6,7.8-6.6,8.9c-2.7,1.5-2.8-0.2-0.2-2.8c1.4-1.4,3.1-3.9,3.8-5.5
		C552.2,273.1,554,272.8,554,275.4z"/>
	<path id="path72" fill="#C4A000" d="M569.1,275.4c-1.2,1.3-2.6,3.9-3.2,5.9c-0.8,2.9-2,4.1-6.7,6.7c-14,7.9-18.6,14.5-18.9,27.4
		c-0.1,6.6-0.5,8-2.2,9.3c-1.2,0.8-2.1,1-2.1,0.5s-1.8-3.2-4-5.9l-4-5l3.8-2.7c5-3.4,10.7-11,12.3-16.3c0.7-2.6,2-4.5,3.2-4.9
		c1-0.3,4.7-3.5,8.1-7c3.3-3.5,7.9-7.3,10.1-8.3C570.8,272.4,571.8,272.5,569.1,275.4z"/>
	<path id="path74" fill="#C4A000" d="M580.9,277.6l2.3,1.7l-3.7,1.3c-2.1,0.7-4.3,1-5,0.8c-0.7-0.3-2,0.5-2.9,1.8
		c-1.4,1.9-1.6,2-1.6,0.4c0-0.9,1.3-3.1,2.9-4.7C576.3,275.6,577.6,275.4,580.9,277.6z"/>
	<path id="path76" fill="#48981C" d="M317.1,282c2.4,1.1,6.3,3.8,8.6,5.8l4.2,3.7l-12.2,0.1c-10.4,0-12.9,0.3-17,2.2
		c-5.8,2.6-8.9,2.7-22.6,0.4l-10.3-1.7l11.8-5.8c6.6-3.1,13.7-6.1,15.9-6.7C301.5,278.6,312,279.5,317.1,282z"/>
	<path id="path78" fill="#F57900" d="M566.5,291.7c-0.8,1.9-0.9,5.2-0.1,6c0.2,0.3,1.4,0,2.5-0.7c1.7-0.8,2.1-0.8,2.1,0.4
		c0,2-1.7,2.4-7.6,1.8c-7.8-0.7-16.4,4.5-16.4,10c0,2.6,1.4,2.2,5.4-1.3c4.4-3.8,9-4.6,15.4-2.5c4.7,1.6,5.1,2,7.7,8.1
		c3.3,8,7.5,11.9,11.9,11.2c1.7-0.3,3.9,0,4.9,0.5c1.6,0.8,1.3,1.3-2.4,4.4c-2.2,1.8-4.8,3.4-5.7,3.5c-1,0-3.9,0.2-6.7,0.4
		c-2.7,0.1-7,0.5-9.5,0.9c-6.7,1.1-17.8-2.9-20.3-7.2c-2.4-4-3.3-13.4-1.8-18.8c1.4-5.1,7.1-11.2,14.3-15.3
		C566.3,289.6,567.5,289.3,566.5,291.7z"/>
	<path id="path80" fill="#EDD400" d="M396.8,302c4.2,8.4,4.2,8.6,2.9,13l-1.3,4.5l-6.1,0.6c-3.3,0.3-7.9,1.5-10.1,2.6l-4,2l-2.1-4.2
		c-2.5-5-2.7-9.8-0.5-11.6c0.8-0.7,2.4-2.9,3.4-4.8c1-2,3.4-5.2,5.4-7c2-1.9,3.6-4.1,3.6-4.9C388,288.7,392.7,294,396.8,302z"/>
	<path id="path82" fill="#48981C" d="M328.3,297.4c1.8,0.7,4.5,2.7,6.1,4.4c3.5,3.8,3.1,6.2-0.6,3.3c-1.4-1.2-3.2-2.1-3.9-2.1
		c-2.2,0-4.9,3.2-4.9,6c0,1.5-0.2,2.9-0.5,3.2c-0.3,0.3-5.8-0.8-12.3-2.4c-11.6-2.8-11.8-2.8-17.4-1.2l-5.7,1.7l-15.8-4.7
		c-21.3-6.4-20.8-6.2-14.8-7.1c3-0.5,9.2-0.3,15.5,0.4c19.5,2.4,20.9,2.4,29-0.3C311.6,295.7,323.1,295.2,328.3,297.4z"/>
	<path id="path84" fill="#A40000" d="M439.7,303.8c0.7,1,1.2,4.8,1.3,9.4v7.6l-4.6,4.1c-7,6.1-12,6.5-19.6,1.4
		c-5.9-4-13.1-20-8-17.7c6.7,2.9,13.4,4.6,16.4,4c4.6-0.9,9.6-4.1,11.6-7.5C438.3,302.5,438.6,302.4,439.7,303.8z"/>
	<path id="path86" fill="#5C3566" d="M254.3,305c0.5,0,8.2,2.3,16.9,5.2c15.6,5.1,16,5.2,21.7,4c7.5-1.6,9.6-1.5,19.7,0.5
		c7,1.3,8.4,1.9,7.9,3.2c-1.6,4-1.6,7.2-0.1,10.2c0.9,1.8,1.6,3.5,1.6,3.8s-3,0.6-6.7,0.7c-11.7,0.1-20.5,5.9-34.6,22.7
		c-2.7,3.1-7.4,7.5-10.6,9.6c-9.1,6.2-9.2,6.5-2.4,9.2c8.1,3.1,21.1,3.7,30.6,1.4c4-0.9,12-3.9,17.9-6.7c5.9-2.7,12.4-5.2,14.5-5.5
		l3.8-0.5l-4.8,3.1c-4.9,3.2-7.7,7.7-7.7,12.6c0,2-1.3,3.3-6.4,6.5c-6.9,4.4-13,10.4-12.3,12.3c0.2,0.7,2.2,1.1,4.8,1
		c19.6-0.9,35.6-1.9,36.4-2.5c0.7-0.4,1,2.6,1,8.5c-0.1,8.3-0.3,9.1-2.4,10.6c-4.2,2.7-10.7,1.8-23.6-3.4
		c-9.5-3.8-13.5-4.9-19.5-5.3c-6.5-0.4-7.7-0.2-9.3,1.5c-1.6,1.9-1.6,2.1,0.2,3.7c1,0.9,3.3,2.1,5.1,2.6c2.8,0.8,3.3,0.7,3.7-1
		c0.6-2.3,2.1-2.4,7.8-0.6l4,1.3l-4.5,1.2c-5,1.5-12.6,5.2-21.4,10.5c-8.4,5-12.6,4.9-24.2-0.8c-10.2-5-12.3-6.9-15.9-14.9l-2.7-5.8
		l-0.6-33.7c-0.9-48.5-0.9-47,1.5-52.3c1.1-2.6,3.8-6.5,5.8-8.8C251.6,306.9,253.7,305,254.3,305z"/>
	<path id="path88" fill="#73D216" d="M488.5,313c1.2,5.6-0.4,10.7-5.3,16.6l-4.6,5.6l-2.3-4.6c-1.3-2.5-3.4-5.3-4.8-6.2
		c-3-2-3.2-3.4-0.5-3.4c1,0,3.4-1.3,5.2-2.9c1.8-1.5,4.8-3.6,6.6-4.5c1.7-0.9,3.2-2.1,3.2-2.6C486,308.7,487.9,310.3,488.5,313z"/>
	<path id="path90" fill="#EDD400" d="M344.3,312.5c2,0.8,5.7,1.5,8.2,1.5c5.9,0,7.2,0.7,12.9,7.5c6.3,7.3,7.4,11.7,4.1,16.7
		c-1.3,2-2.7,4.8-3,6.1c-0.7,2.7-2.9,3.7-8.5,3.7c-2.9,0-4.3-0.8-7.2-3.8c-4.5-4.6-6.8-9.2-6.8-13.3c0-1.7-0.9-4.7-2.1-6.5
		c-1.6-2.7-1.8-3.7-0.9-5.4c0.9-1.7,0.8-2.6-0.4-4.5c-0.9-1.4-1.6-2.7-1.6-3C339,310.6,340.6,310.9,344.3,312.5z"/>
	<path id="path92" fill="#A40000" d="M446.1,310.5l5.7,6.2c4,4.3,7.4,6.9,11.4,8.7c5.8,2.5,9.8,6.9,9.8,10.8c0,2.4-6.1,3.4-11.3,1.8
		c-9.6-2.8-15.7-11.3-15.6-21.5V310.5z"/>
	<path id="path94" fill="#48981C" d="M615.5,323.3c7.4,0.2,7.6,0.3,23.5,9l8.5,4.7H638c-8.9,0-17.5,1-34.6,4.1l-7.1,1.3l-3.7-2.9
		l-3.7-2.8l2.8-2.3c1.5-1.2,4.5-3.8,6.5-5.7c2-1.8,5.2-3.9,7-4.5S611.7,323.2,615.5,323.3z"/>
	<path id="path96" fill="#A40000" d="M442.1,327c0.6,0,4.5,5.6,5.7,8.2c0.2,0.5-3.3,0.8-7.7,0.8c-8.5,0-10-1-5.3-3.4
		c1.5-0.8,3.6-2.3,4.6-3.5C440.5,327.9,441.6,327,442.1,327z"/>
	<path id="path98" fill="#CC0000" d="M489,331c1.4,0,2,3,2,9.8c0,5.1,0.3,6.3,1.2,5.4c0.7-0.7,1.5-1.2,1.9-1.2
		c1.2,0,3.3,6.4,3.1,9.1c-0.2,1.5,0.6,4.2,1.7,6c3.7,6.1,1.8,15.2-3.4,16.5c-4,1-13-4-16.3-8.9c-5.3-8-2.9-21.8,5.9-32.8
		C486.8,332.8,488.5,331,489,331z"/>
	<path id="path100" fill="#70C04C" d="M556.7,338c6.7,2.3,8.6,2.4,16.5,0.8c7-1.4,9.1-0.6,19.9,7.7c4.8,3.7,14,8.9,25.8,14.6
		c10.1,4.9,18.1,9.2,17.8,9.5c-1.2,1.2-21.6-3.9-32.2-8.1c-21.6-8.5-45.4-11.5-64.5-8c-4.1,0.7-7.6,1.2-7.7,1.1
		c-0.1-0.1,0.4-2.3,1.2-4.9c1.2-3.9,2.8-7,6.1-11.5c0.1-0.2,2-1,4.1-1.7C548.8,335.6,550.1,335.7,556.7,338z"/>
	<path id="path102" fill="#70C04C" d="M320.4,339.5c1.3,1.4,2.8,2.5,3.3,2.5c1,0,2.6,4,2,4.7c-0.2,0.1-3.2-0.2-6.8-0.8
		c-7.6-1.2-11-0.7-20.7,3.2c-4.1,1.6-7.6,2.9-7.9,2.9c-1.2,0,4.2-5.2,8.9-8.6c2.5-1.9,6.4-4.1,8.5-4.9
		C313.7,336.3,317.8,336.6,320.4,339.5z"/>
	<path id="path104" fill="#729FCF" d="M445.4,340.8c11.5,0.5,16.6,1.9,16.6,4.9c0,0.8,0.9,3,1.9,4.7s2.2,4.7,2.5,6.6
		c0.7,3.9,0.6,3.7-4.5-4.4c-5.4-8.8-17.2-10.7-28.9-4.7c-3.6,1.8-7.5,4.2-8.7,5.4c-2.6,2.3-3,0.9-0.9-3.1c1.6-3.1,7.4-8.7,9.5-9.4
		C433.7,340.6,439.4,340.6,445.4,340.8z"/>
	<path id="path106" fill="#70C04C" d="M322,351.5c4.7,0.8,14.4,1.5,21.5,1.5h13l-4.5,2.2c-3.3,1.6-7.3,2.3-15,2.8
		c-9.9,0.6-11.1,0.9-21.7,5.8c-13.6,6.2-24.7,8.7-34.1,7.8c-3.6-0.4-6.9-0.9-7.4-1.3c-1.2-0.6,10.9-9.6,17.4-12.9
		c2.6-1.3,8-3.5,12-4.9C311.9,349.6,311.3,349.6,322,351.5z"/>
	<path id="path108" fill="#CC0000" d="M525.7,352c2.3,0,2.4,0.3,1.8,3.2c-2.2,10-11,19.9-19.3,21.7c-2.6,0.5-4.8,0.8-5,0.6
		c-0.2-0.2,0.4-1.7,1.2-3.4c2-3.8,2-9.7,0.1-13.5c-1.9-3.7-1.9-3.9,0.4-2.6c3.3,1.7,9.6,1.2,11.6-1c1-1.1,2.4-2,3-2
		c0.7,0,1.8-0.7,2.5-1.5C522.7,352.7,524.4,352,525.7,352z"/>
	<path id="path110" fill="#48981C" d="M370,358.5c0,1-1,1.5-2.7,1.5c-4.8,0-14.4,5.5-23.8,13.5c-8.6,7.3-10.1,8.3-15.2,9.9
		c-2,0.6-2.1,0.4-1.6-3.6c0.3-2.4,1-5.1,1.5-6.1c0.9-1.8,20-11.8,28.3-14.8C362.9,356.6,370,356.4,370,358.5z"/>
	<path id="path112" fill="#FFE4E1" d="M555.8,358h7.2v4.2c-0.1,4.2-0.1,4.3-1.5,1.7c-1.2-2.2-6.2-5.5-7.1-4.6
		c-0.2,0.2,0.5,2.6,1.6,5.3c1.4,3.9,1.7,5.9,1,9c-0.7,3-0.6,4.2,0.7,5.6s1.4,3.2,0.9,10c-0.9,10.7-3.4,27.7-4.5,30.3
		c-0.6,1.4-3.5,3.1-8.2,5c-4.1,1.5-13.5,5.7-21,9.2c-7.4,3.4-14,6.3-14.6,6.3c-1.2,0-1.8-3.6-3.3-20.2c-1-11.2-2.4-15.8-6.6-22
		l-2.6-3.6l1.8-5.6c1.6-5,2-5.6,4.5-5.6c5.3,0,13.3-3.8,17.8-8.4c2.5-2.5,4.8-4.3,5.1-4.1c0.4,0.3,3.6-1.4,7.1-3.7s8.2-5.2,10.4-6.5
		C547.7,358.5,550,358,555.8,358z"/>
	<path id="path114" fill="#FCE94F" d="M569.7,358.3c1,0.3,3.8,0.9,6.3,1.2c7.9,1.2,29.4,8.5,31.3,10.7c2,2.3,2.3,9.2,0.6,15.3
		c-1.8,6.6-17.3,20.5-22.9,20.5c-0.4,0-1.9-1-3.4-2.1l-2.7-2.2l3.6-3.7c7.2-7.4,10.1-20,4.8-20.8c-1.8-0.3-2.9,1.2-6.8,8.8
		c-5.5,10.5-8.3,13.2-13.4,12.8c-2.6-0.2-3.5-0.7-3.3-1.8c0.2-0.8,0.4-6.4,0.4-12.4c0.1-9.5,0.4-11.7,2.5-16.3
		c1.7-3.6,2.3-6.3,1.9-7.9C568,358.3,568.2,357.9,569.7,358.3z"/>
	<path id="path116" fill="#729FCF" d="M411.6,365.7c-0.3,1-0.8,3.5-1.2,5.5c-0.8,4.8-2,5.7-8.2,6.5c-4.8,0.5-5.2,0.4-9.3-3.5
		c-2.4-2.2-4.2-4.3-3.9-4.5c0.3-0.3,5.2-1.6,11-3C413,363.6,412.2,363.7,411.6,365.7z"/>
	<path id="path118" fill="#48981C" d="M374,365.8c0,0.4,2.2,3.3,4.9,6.3l5,5.6l-7.7,1.6c-4.2,0.9-9.9,1.9-12.7,2.3
		c-6.7,0.8-10.1,2.1-15.4,6.1s-7.8,4.5-20.6,4.1l-10-0.3l6.9-1.8c9.6-2.5,15-5.5,23.4-13.1c7.1-6.4,11.2-9.1,16.2-10.7
		C367.4,364.9,374,364.8,374,365.8z"/>
	<path id="path120" fill="#729FCF" d="M417,373.1c0.5,2.5,1.7,6.4,2.9,8.6c1.8,3.6,1.9,4.2,0.5,4.7c-4.8,1.9-7.7-8.4-4.7-16.4
		C416.1,369.2,416.6,370.6,417,373.1z"/>
	<path id="path122" fill="#F8DAD0" d="M396.9,383h3c2.5,0,3.6,1,7.4,6.7c2.5,3.8,8.9,11.4,14.2,17.1c6.2,6.6,10.9,12.5,12.9,16.5
		c2.7,5.4,4.2,7,12.1,12.5c5,3.5,9.7,6.8,10.5,7.2c1.2,0.7-0.7,3.1-8.9,11.4l-10.4,10.4l-5.5-4.5c-3.1-2.5-7-5.1-8.7-5.8
		c-3.5-1.5-13.5-3-29-4.5c-16.7-1.6-20.7-2.6-24.8-6.4c-3.7-3.4-4.9-7.6-2.3-7.6c2.5,0,2.6-1.5,0.7-6.6c-1-2.7-2.4-8.2-3.1-12.2
		c-1-5.4-1.7-7.2-2.8-7c-2.8,0.6-3.7,3.3-2.4,7.5c0.6,2.1,1.3,5.3,1.7,7.2c0.5,3.4,0.5,3.4-1.5,1.6c-1.4-1.3-2-3.1-2-6.2
		c0-3.9-0.5-5-4.1-8.5c-3.5-3.5-4-4.5-3.5-7.1c0.3-1.6,0.6-3.6,0.6-4.4c0-1.1,0.6-1.1,3,0.4c2.3,1.3,3.2,1.5,4.2,0.5
		c0.9-0.9,0.3-2.2-3.2-5.7l-4.4-4.4l4.5-2c5.5-2.6,8.5-2.6,13.2-0.2c2.1,1.1,9.3,2.9,16,4.1s13.4,2.6,14.9,3.2
		c1.4,0.5,3.6,0.7,4.8,0.3c2-0.6,2-0.8-0.9-4.1c-1.7-1.9-3.8-4.8-4.6-6.4L396.9,383z M365.8,389c-4.5,0.1-7.9,7.1-5.6,11.6
		c1.9,4,3.8,4.2,3.8,0.5c0-1.8,0.7-4.8,1.5-6.8c0.8-1.9,1.5-3.9,1.5-4.4S366.4,389,365.8,389z"/>
	<path id="path124" fill="#FCE94F" d="M477.5,386c2,0,10.4,5.9,15.1,10.5c6.7,6.7,8.1,10.9,9.4,26.9c0.6,7.6,1.6,15,2.1,16.5
		c0.9,2.5,0.9,2.5-0.7,0.6c-2.7-3.4-6.1-10.7-7.9-17c-4-14-9.7-20.5-22.3-25.4c-6.2-2.3-7.1-3-5.3-3.6c1.2-0.3,2.9-1.9,3.8-3.3
		c0.9-1.5,2.3-3.3,3.2-4C475.7,386.6,476.9,386,477.5,386z"/>
	<path id="path126" fill="#729FCF" d="M420.1,395.1c7,6.2,11.9,12.1,11.9,14.1c0,1-15.6-15.2-17.9-18.6
		C413.3,389.4,416,391.5,420.1,395.1z"/>
	<path id="path128" fill="#729FCF" d="M460.9,389.5c0.3,0.4-0.5,1.4-1.8,2.4c-1.3,0.9-3.5,2.7-4.9,4c-3.1,2.9-7.6,4-15.5,4.1
		c-5.4,0-6.2-0.3-9.4-3.5c-2-2-3.4-3.7-3.2-4c0.2-0.2,2.9,0.3,5.9,1.1c3,0.8,7.3,1.4,9.6,1.4c4.7,0,17-3.5,18-5.1
		C459.9,389.3,460.5,389.2,460.9,389.5z"/>
	<path id="path130" fill="#70C04C" d="M234.9,392c0.9,0,2.1,5.9,2.1,10.7c0,4.7,3.7,13.7,7.7,19c3.4,4.4,3.5,4.8,2.3,8.7
		c-2.6,8.7-12.9,14.4-23.9,13c-5.1-0.6-5.4-0.8-7.2-4.9c-2.2-4.9-3.5-15-2.5-18.9c0.4-1.5,2.2-4.3,4-6.4c1.8-2,3.9-5.4,4.5-7.5
		c0.9-2.7,2.3-4.3,4.9-5.6c2.1-1.1,4.5-3.3,5.5-5S234.5,392,234.9,392z"/>
	<path id="path132" fill="#84D45C" d="M464.8,400.6c16.1,4.7,21.7,9.8,25.7,23.9c1,3.3,2.4,7.3,3.2,8.8c0.8,1.6,1.2,3.1,1,3.4
		c-0.9,0.8-6.7-5.1-10-10.2c-5.7-8.7-8.4-9.8-29.2-11.1c-13.1-0.8-15.8-1.7-17.8-5.9c-0.9-2-1.7-3.8-1.7-4c0-0.3,2.1-0.5,4.8-0.5
		c6.7-0.1,12.2-1.5,14.6-3.9C457.9,398.6,457.8,398.6,464.8,400.6z"/>
	<path id="path134" fill="#58A42C" d="M601.8,403.7c0.7,1,3,5.2,5,9.2c3.3,6.7,3.7,8.4,3.7,15c0,6.2-0.5,8.7-2.7,13.4
		c-2.5,5.2-2.9,5.7-4.7,4.7c-1.8-0.9-1.9-1.3-0.6-4.3c3.1-7.5,2.3-19.2-2.2-30.4c-2.1-5.3-2.3-6.6-1.2-7.9
		C600.3,402,600.5,402,601.8,403.7z"/>
	<path id="path136" fill="#204A87" d="M562.5,404.1l4.5-0.1c4.1,0,4.8,0.3,6.4,3.2c2,3.6,5.6,7.8,6.5,7.8c0.3,0,1.2-0.4,2-0.9
		c1.3-0.8,1.3-1.2,0.1-2.8c-0.8-1,1.4,0.9,4.8,4.2c3.4,3.3,6.2,6.3,6.2,6.8s-2.2,0.7-4.9,0.5c-3.6-0.4-6-1.4-9-3.7
		c-4.3-3.4-5.3-3.3-8.3,0.5c-1.5,1.9-10.4,5.1-11.4,4.1c-0.2-0.2-0.1-2.5,0.2-5.1c0.6-4.3,0.8-4.5,2.3-3.1c1.5,1.3,2,1.3,3.9-0.1
		c3.2-2.2,2.9-6.7-0.5-9.3L562.5,404.1z"/>
	<path id="path138" fill="#EF2929" d="M351.8,417.2c1.4,1.4,1.5,2.8,0.3,4.7c-0.8,1.2-1.3,1.1-3.4-0.6c-2.4-1.9-2.5-2.1-0.9-3.6
		C349.7,415.7,350.2,415.6,351.8,417.2z"/>
	<path id="path140" fill="#EF2929" d="M320.7,424.5c3.3,3.6,6.7,6.5,7.7,6.5c1.5,0,1.5-0.3,0.1-3.8c-0.9-2-2.8-5-4.3-6.6
		c-2-2.2-2.2-2.7-0.9-2.3c1,0.4,2.3,0.7,2.8,0.7s2.6,1.5,4.6,3.4c6.8,6,10.3,7.1,10.3,3.1c0-3.6,1.5-3.1,7.1,2.3l5,4.7l-2.1,2.8
		c-2.8,3.5-7.3,3.6-14,0.2c-2.7-1.4-5.4-2.5-6-2.5c-0.5,0-2.1,1.8-3.4,3.9c-3.6,5.6-9,7.2-15.9,4.5c-0.9-0.3-2.7,0.8-4.6,2.8
		c-2.7,2.9-3.7,3.3-7.8,3.2c-2.7,0-6.5-0.4-8.6-0.9c-3.4-0.7-4.1-0.5-6.7,2c-1.6,1.6-4.6,3.1-7,3.5c-3.8,0.7-4,0.6-3.4-1.4
		c0.4-1.1,2.5-5.7,4.7-10.1l3.9-8l1.7,4.4c1.9,5.3,4.2,7.1,6.5,5.2c0.9-0.8,1.6-2.7,1.6-4.3c0-2.5-0.3-2.8-2-2.3s-2,0.2-2-2.4
		c0-2.5,0.8-3.6,4.1-5.7c4.7-2.9,5.3-2.5,6.3,3.5c0.8,4.9,3,8,4.7,6.4c0.9-0.9,0.9-2.5,0-6.9c-1.5-7.7-1.5-7.9,1.4-9.2
		c2.3-1.1,2.6-0.9,3.9,2.2c0.7,1.8,1.7,4.2,2,5.4c1.6,4.8,8.1,5.2,9.2,0.6c0.8-3.3-0.9-5.2-3.1-3.4c-1.3,1.1-1.7,0.7-3-2.3
		c-0.8-2-1.5-4.1-1.5-4.7C312,416.5,315.2,418.5,320.7,424.5z"/>
	<path id="path142" fill="#204A87" d="M579.1,425.5c2.4,1.4,5.4,2.5,6.6,2.5h2.2l-2.4,3.7c-5.9,9.2-6.9,9.7-12.3,6.9
		c-2.4-1.2-9.2-8.6-9.2-10c0-0.2,1.3-0.7,2.9-1.1c1.6-0.3,3.7-1.5,4.7-2.6C573.8,422.5,573.9,422.5,579.1,425.5z"/>
	<path id="path144" fill="#5C3566" d="M562.3,434.9c5.1,7,10.5,9.9,23.2,12.1c5.8,1,12.7,2.9,15.2,4.1c3.9,1.9,5,3.1,7.4,8.5
		c3.3,7.2,7.5,12.3,12.5,15.5c1.9,1.2,3.3,2.3,3,2.6c-1,1-5.6-2.5-15.1-11.6c-11.1-10.6-18-14.8-29.5-18c-9.9-2.8-15.7-2.7-23.2,0.4
		c-3.4,1.4-6.6,2.5-7.1,2.5c-0.6,0-3.4-1.6-6.2-3.5c-2.8-2-7.8-4.6-11-5.9l-5.8-2.4l3.4-1.5c1.9-0.8,7-3,11.4-5
		c4.4-1.9,8.7-3.7,9.5-4C554.8,427,557.7,428.4,562.3,434.9z"/>
	<path id="path146" fill="#F8DAD0" d="M481.3,430.7c1.7,3.3,6.1,7.5,12,11.4c3.1,2.2,5.7,4.3,5.7,4.7s-2.5,3.8-5.5,7.4
		c-3,3.7-16.7,21.9-30.3,40.6c-33.1,45.5-48.9,63.8-80.6,93.4c-21.2,19.8-27.7,23.1-33.1,16.7c-7-8.4-18.6-38-37.3-95.1
		c-5-15.2-11.4-33.8-14.1-41.2c-2.8-7.5-5.1-14.2-5.1-14.9c0-0.9,1-1.2,3-0.9c4.7,0.7,9.7-0.6,13-3.4c2.3-2,3.6-2.4,5.9-1.9
		c4.6,1,11.2-1.3,14.8-5.1c3.9-4.2,3.9-4.2,7.8,10c3.6,13.4,20.9,63.5,24,69.6c1.4,2.7,2.5,5.5,2.5,6.1s-2.5,4.2-5.5,7.9
		c-5.3,6.5-6.5,9.8-4.7,12.7c0.6,0.9,2.1-0.7,4.8-4.8c4.6-7.1,22.5-24.2,43.9-41.9c27.2-22.5,45.2-38.9,61.7-56
		C477.9,431.6,480.6,429.3,481.3,430.7z"/>
	<path id="path148" fill="#204A87" d="M593.8,436.2c0.5,6.2-0.2,7.1-4.6,6.3c-2-0.4-3.8-0.8-4-1c-0.7-0.7,3.9-7,6-8.1
		C593.4,432.2,593.5,432.3,593.8,436.2z"/>
	<path id="path150" fill="#8E6885" d="M360.1,437.8c0.6,4.8,2.2,6.8,9.5,11.8c4.6,3.2,6.5,3.8,14.8,4.9c8.9,1.1,9.9,1.5,15.2,5.6
		c9.6,7.3,17.2,14.8,18.3,17.9c1,3,0.8,3.2-8.2,10.8c-5,4.2-16.4,14.1-25.4,21.9l-16.2,14.2l-4.1-10.6
		c-4.6-11.7-20.4-58.1-21.5-63.1c-0.4-2.2-0.3-3.2,0.5-3.2c2,0,13-10.2,13.6-12.7C357.5,431.7,359.4,433.1,360.1,437.8z"/>
	<path id="path152" fill="#287C00" d="M248.5,438.7l1.2,4.4c1.6,5.6,3.8,9.6,7.6,13.6l3,3.2l-3.4,0.5c-1.9,0.3-6.8,1-10.9,1.6
		c-10.7,1.5-16.7,5.1-20.2,12.1c-3.8,7.4-3.7,6.5,0.8-16.2l1.7-8.7l4.1-0.6c5.7-0.9,12.4-4.3,14.4-7.4L248.5,438.7z"/>
	<path id="path154" fill="#5C3566" d="M527.6,445.6c2.6,0.9,7.8,3.6,11.7,6c4,2.4,8.2,4.4,9.5,4.4c1.2,0,4.9-1.1,8.2-2.5
		s7.7-2.5,9.8-2.5c9.5,0,25.2,6.5,33.4,13.9c2.7,2.4,4.7,4.5,4.5,4.7s-7.5-1.7-16.3-4.3c-15.1-4.5-16.5-4.7-27.9-4.7
		c-14,0.1-21.2,2.1-37.7,10.5c-5.4,2.8-10.2,4.9-10.7,4.7c-2-0.7-18-12.4-18.1-13.1c0-0.5,2-3.3,4.4-6.2l4.4-5.4l1.2,3.2
		c4.2,10.7,6.4,14.8,7.9,14.5c2.1-0.4,2.7-12.4,1-18.6c-1-3.6-1-4.5,0.2-5.3C515.3,443.5,522.5,443.8,527.6,445.6z"/>
	<path id="path156" fill="#287C00" d="M189.8,458.2c2.7,2.6,7.5,6.3,10.5,8.2c6.9,4.4,8.2,7.4,7.3,16.5c-0.5,5.1-0.3,7.8,0.8,10.4
		c1.1,2.8,1.3,5.6,0.7,12.4c-0.6,7-0.9,8.2-1.5,5.8c-4.4-16.9-11.8-36.3-18.9-50c-1.8-3.3-3.4-6.5-3.6-7
		C184.9,453.9,187,455.6,189.8,458.2z"/>
	<path id="path158" fill="#287C00" d="M269.8,468.3l4.3,4.3l-3.1,4.2c-4.2,5.9-9.2,9.2-27.5,18.5c-18.8,9.5-24.8,14.6-28.3,24
		c-1.2,3.2-2.2,6.9-2.2,8.2c0,2.4-1.6,4.2-2.8,3.1c-0.3-0.4,0.2-3.7,1.1-7.4c0.9-3.7,1.9-10.1,2.2-14.2c0.8-9.4,2.2-12.6,7.9-18.6
		c2.5-2.6,6.1-7.7,7.9-11.2c4.5-9.1,6.1-10.1,21.2-12.2c7-1,13-2.1,13.3-2.4C264.8,463.5,265.6,464,269.8,468.3z"/>
	<path id="path160" fill="#F8DAD0" d="M571.4,466.9c2.3,0.9,8.4,21.2,19.6,64.8c6.6,26,6.9,27.5,5.9,32.9
		c-1.4,7.6-5.3,18.3-9.6,26.6c-4.5,8.6-6.2,8.8-15.3,1.9c-9.7-7.3-100-98.1-100-100.5c0-1.1,11.9-18.1,15.4-22.1l3.1-3.6l15,10.6
		c8.3,5.8,20.4,14,27,18.2c31.2,19.9,43.1,28.2,47.8,33.7c5.2,6,7.7,7.1,7.7,3.2c0-4.6-9.3-13.1-27.8-25.3
		c-9.7-6.3-18.6-12-19.8-12.5c-1.8-0.9-3-3-4.8-9.2c-4.3-14.2-4.3-13.4-0.2-15.1c2-0.9,6-2.2,8.9-3
		C549.8,466.1,568.2,465.6,571.4,466.9z"/>
	<path id="path162" fill="#77216F" d="M463.5,503.3l0.8,2.6c2.6,9.2,1.5,77.3-1.4,80.7c-2.1,2.5-4.2,1.7-3.5-1.4
		c1.4-6.5,1.9-45.6,0.7-59.9l-1.3-14.9l2.3-3.5L463.5,503.3z"/>
	<path id="path164" fill="#77216F" d="M482.1,512c0.4,0,0.9,6.9,1.2,15.2c0.2,8.4,1,24.7,1.7,36.1c1.5,22.2,1.4,22.6-3.2,22.7
		c-1.3,0-1.7-1.5-2.3-8.6c-0.7-8.3-0.1-38.6,1.2-56.7C481,515.9,481.6,512,482.1,512z"/>
	<path id="path166" fill="#9E7D96" d="M512.5,542.6l4.4,5l-1.4,6c-2.3,9.5-2.2,10,5.3,17.9c9.3,9.8,18.9,23.5,31.7,45.5
		c5.9,10.2,11.6,19.6,12.5,21c7.6,11.2,41,77.9,41,81.9c0,1.8-3.8,5.8-8,8.4c-1.4,0.9-7.1,2.9-12.7,4.5c-7.5,2.2-11.3,3.9-14.5,6.5
		c-2.4,2-5.6,4.1-7.1,4.6c-3.8,1.5-21.3,1.4-27.6-0.1c-4.3-1-5.3-0.9-7.7,0.7c-3.3,2.1-11.6,4.5-16,4.5c-1.7,0-5.8-1.2-9-2.6
		c-8.4-3.7-14.6-4.2-19.3-1.6c-7.8,4.4-15.9,5.5-36.5,4.8c-16.3-0.6-19.9-1.1-26.9-3.3c-7.9-2.5-8.3-2.5-13.3-0.9
		c-7,2.2-9.9,2-20.2-1.3c-10-3.3-18.8-7.5-26.7-12.8c-2.9-1.9-7.3-4-9.9-4.8c-2.5-0.8-6.5-2.7-8.9-4.3c-2.3-1.6-7-3.8-10.3-4.9
		c-3.4-1.2-8.6-3.6-11.5-5.5c-7.5-4.8-29.7-24.6-34.9-31c-4.6-5.7-9-14.1-9-17.2c0-1.1-1.9-3.8-4.3-6c-2.5-2.4-5.1-6.1-6.1-9
		l-1.8-4.8l7.8-8c14.1-14.3,41.4-35.3,58.5-45.1l4.5-2.6l2.8,5.6c1.5,3,2.6,5.6,2.4,5.8c-0.2,0.1-5,3.4-10.8,7.2
		c-5.8,3.9-11.8,8.4-13.3,10c-2.4,2.6-2.6,3.2-1.3,4.2c1.3,1.1,3.5-0.2,13.5-7.3c6.6-4.7,12.6-8.8,13.4-9.1c0.8-0.4,2.3,0.8,3.8,2.9
		c1.3,1.9,3.5,4.1,4.9,4.8s2.7,1.3,2.8,1.4c0.2,0.1-2.9,4-6.8,8.6c-4,4.6-9.1,10.7-11.3,13.6c-3.6,4.8-3.9,5.5-2.5,6.9
		s2.8,0,14.7-13.8c10.3-12.1,14.9-16.7,21.8-21.6c8.8-6.3,27.6-24,47.7-45l10.7-11.3l-0.5,13.3c-0.7,16.6-5.7,45.2-16.7,95
		c-5.4,24.5-6.3,31.7-3.9,31.7c2.3,0,17.8-70.1,23.1-104.5c0.6-4.4,1.3-8.1,1.4-8.3c0.7-0.9,3.5,1.3,3.5,2.8c0,2.6,3.9,7,6.2,7
		c1.7,0,1.9,0.4,1.4,2.5c-0.3,1.4-0.9,3.6-1.2,5c-0.9,3.7,0.2,7,2.9,8.4l2.4,1.3l-0.1,27.2c-0.1,22,0.2,27.6,1.3,29
		c1.3,1.5,1.5,1.5,3.2,0c1.8-1.7,1.9-1.5,1.9,4.7c0,3.5-0.9,14.5-2.1,24.4c-2.9,26.4-2.9,26.3-0.8,26.8c2.3,0.6,2.5-0.1,4.3-13
		c2.6-18.6,3.6-39,3.6-75.7V593h3c1.8,0,4.2-1.1,6.3-3c1.9-1.7,4.1-3,4.8-3c3,0,8.9,58.5,8.9,87.6c0,14.9,0.3,18.4,1.5,19.4
		c2.6,2.2,3-1.4,2.9-26c0-24.6-1.2-41-4.4-62.2c-2.5-15.6-2.5-15,0.2-14.6c1.8,0.2,2.9,2,5.5,9.3c7.8,21.1,13.9,33.5,15.7,31.4
		c1.4-1.7,1.4-6,0-7.4c-0.9-0.9-4.5-8.8-8-17.7l-6.3-16l2.1-2.9c2-2.6,2.1-3.6,1.4-15.1c-1.8-33.4-1.9-40.7-0.6-45.5
		c0.7-2.6,1.5-5.2,1.8-5.7C492.3,520.7,501.8,530.3,512.5,542.6z M517.1,588.4c13,21.2,26.3,45.1,34.1,61.4
		c6.4,13.6,8.7,16.4,9.6,11.9c0.5-2.6-8.2-22.1-16.2-36.2c-5.6-9.9-7.1-13.4-6.4-14.7c0.6-1.3-0.4-5-3.6-13.2
		c-5.8-15-6.9-17-12.3-22.8c-4.6-4.8-6.9-5.8-9-3.7c-0.8,0.8-1.7,0.8-3.1,0C505.2,568.4,506,570.5,517.1,588.4z M496.7,572.7
		c-1.4,1.3-0.6,4.5,2.7,11.2c4.4,8.7,18.3,47.5,24.1,67.5c4.4,15.1,10.6,43.3,12,54.8c0.8,6.8,2.7,10,4.6,8c1.1-1,0.9-4-0.9-15.7
		C534,664.9,518,612,503.6,580.9C500.9,575.1,497.8,571.5,496.7,572.7z M420.6,575.2c-0.2-0.2-1.5,0.7-2.9,2c-3.4,3-7,17.1-9.3,36.6
		c-1.6,13.8-1.6,14.3,0.2,16.3l1.9,2.1l2.2-2.7c2.7-3.1,3.2-8.1,0.8-7.1c-1.3,0.5-1.5,0-1-2.7c0.3-1.7,1.4-9.1,2.5-16.2
		c1-7.2,2.8-16.4,3.9-20.5S420.7,575.4,420.6,575.2z M399.4,594.5c-12.6,26.9-33.4,83.3-33.4,90.4c0,1.5,0.5,2.1,1.6,1.9
		c1.1-0.2,5.4-10.8,13.8-33.8c14.3-39.1,17.7-47.4,25.8-63.2c3.3-6.5,5.7-12.2,5.3-12.8C410.4,573.5,407.4,577.5,399.4,594.5z"/>
	<path id="path168" fill="#77216F" d="M514,573.6l4.5,4.4c3,3,5.5,6.9,8,12.8c2,4.6,3.5,8.5,3.3,8.7c-0.2,0.1-3.8-5.6-8-12.8
		L514,573.6z"/>
	<path id="path170" fill="#77216F" d="M446.8,527c0.4,0,0.5,11.4,0.1,25.2c-0.5,27.3-1.2,31.2-5.2,30.6c-2.9-0.4-3.1-3.3-2.2-28.5
		l0.7-19.2l3-4C444.8,528.8,446.5,527,446.8,527z"/>
	<path id="path172" fill="#77216F" d="M434.8,543.5c0.6,4.7-1.4,30-2.3,29.5c-1.4-0.7-0.7-24.7,0.8-28.5
		C434.3,542,434.5,541.9,434.8,543.5z"/>
	<path id="path174" fill="#8E6885" d="M455.8,559.2c0.2,3-0.1,10.8-0.6,17.4c-0.7,9.5-1.4,13-3.5,17.7c-2.4,5.3-4.7,7.1-6.2,4.7
		c-0.3-0.5,0.9-6.5,2.8-13.2c1.9-6.8,4.3-16.7,5.3-22.1C455.5,554,455.5,553.9,455.8,559.2z"/>
	<path id="path176" fill="#77216F" d="M472,564c2.2,0,2.7,2.6,2,10.4c-0.3,4.1-1,6.2-2.2,7c-0.9,0.5-1.9,0.8-2.2,0.6
		c-0.2-0.3-0.2-4.4,0.1-9.3C470.2,565.3,470.5,564,472,564z"/>
	<path id="path178" fill="#411A35" d="M257.4,647.1c2.3-0.1,2.6,0.2,1.7,1.2c-0.8,1.1-0.6,1.8,1,3.3c1.1,1,2.7,3.3,3.4,5.1
		c1,2.4,2.1,3.3,3.6,3.3c1.7,0,2,0.3,1.2,1.1c-1.5,1.5-0.4,5.2,1.3,4.5c1.7-0.6,1.8,0.6,0.3,2.1c-0.8,0.8-0.4,1.6,1.5,2.8
		c1.4,1,2.6,2.6,2.6,3.6c0,1.1,0.7,2.2,1.5,2.5s3.3,3.5,5.5,7s5.6,7.4,7.5,8.7c1.9,1.2,3.5,2.7,3.5,3.3s1.1,1.6,2.5,2.2
		c1.4,0.6,2.5,1.6,2.5,2.1s0.9,1.1,1.9,1.4c1.1,0.3,2.9,2,4,3.8c1.2,1.9,2.4,3.2,2.7,3c0.3-0.2,2.1,1,3.8,2.7
		c1.8,1.6,5.3,3.7,7.8,4.5c2.5,0.9,6.3,2.8,8.4,4.2c2,1.4,4.9,2.8,6.3,3.2c1.4,0.3,3.4,1.4,4.4,2.4c1,1.1,2.4,1.9,3.1,1.9
		c0.8,0,1.9,0.7,2.6,1.5s2.1,1.5,3.1,1.5s3.4,1.4,5.4,3.1c2.8,2.5,3.5,2.8,3.5,1.4c0-1.4,0.3-1.5,1.5-0.5c0.8,0.7,1.3,1.6,1,2
		c-0.8,1.3,2.1,3.1,3.9,2.4c1.2-0.5,1.9,0,2.3,1.5c0.5,2,0.9,2.3,3.6,2.5c0.6,0.1,1.5,0.4,1.8,0.8c0.3,0.5,1.9,1,3.7,1.2
		c1.7,0.2,4.3,1.2,5.8,2.2c6,4.2,6.6,4.4,23.4,4.3c9.4,0,22.5,0.7,30.5,1.7c17.2,2.1,38.4,2.9,39.8,1.5c0.6-0.6,1.6-0.6,2.9,0.2
		c1.6,1,2.2,0.9,3.3-0.7c0.9-1.2,2.9-2,5.2-2.2c5.4-0.3,5.3-0.3,5.3-1.9c0-0.8,0.9-1.5,2-1.5s2,0.5,2,1.1c0,0.7,1.1,0.9,2.7,0.6
		c2.9-0.5,5.5,0.4,8.8,3.3c2.4,2.1,10.2,3.1,10.9,1.4c0.6-1.4,11.2-3.4,14.8-2.7c1.5,0.3,4.1-0.2,5.8-1.1c2.5-1.2,4.2-1.3,7.4-0.6
		c7.2,1.6,19.5,2.3,20.8,1.3c0.7-0.6,3-1.6,5.1-2.3c2.3-0.7,4.6-2.5,6-4.4c1.2-1.8,2.7-3.1,3.3-2.9c0.7,0.2,1.8-0.3,2.6-1
		c0.8-0.8,3.3-1.8,5.6-2.2s4.2-1.1,4.2-1.6s1.2-0.9,2.6-0.9c1.4,0,3.7-0.9,5.1-2c1.4-1.1,3.2-2,4-2s2.9-1.6,4.7-3.6
		c3.1-3.4,3.5-3.6,5.4-2.2c5.3,3.7,7.4,8.8,3.6,8.8c-0.8,0-1.4,0.4-1.4,1c0,0.5-0.7,1-1.5,1s-3,1.5-4.9,3.4c-2.5,2.4-4.8,3.6-8,4
		c-2.5,0.4-6.1,1.8-8,3.2c-2,1.3-5.2,3.5-7.2,4.9c-2.6,1.7-5,2.5-8.1,2.5c-2.4,0-6.1,0.9-8.3,2s-4.7,2-5.8,2c-1,0-2.2,0.4-2.8,1
		c-1.1,1.1-23.7,3.3-26.3,2.5c-1-0.3-3.5,0.2-5.7,1.1c-3.1,1.3-5.5,1.5-11.9,0.9c-11.1-1-39.5-1.4-39.5-0.5c0,0.4-2,0.5-4.5,0.2
		c-2.6-0.2-5.8,0.1-7.6,0.8c-2.1,0.9-3.3,1-3.7,0.3c-0.7-1-19.9-2.2-45.7-2.9c-6-0.1-12.3-0.3-14-0.4c-5.3-0.2-12.8-2.1-18.3-4.6
		c-2.9-1.3-7-2.4-9.1-2.4c-2.2,0-4.4-0.6-5.1-1.5c-0.7-0.8-1.8-1.5-2.5-1.5s-1.8-0.7-2.5-1.5s-2.2-1.5-3.4-1.5
		c-1.2,0-3.1-0.7-4.2-1.5c-1-0.8-2.8-1.5-3.9-1.5s-3.8-1.1-6-2.5c-2.2-1.3-4.8-2.5-5.8-2.5c-3,0-11.9-5-16.8-9.4
		c-2.6-2.2-6.9-5-9.5-6c-3.5-1.4-7.4-4.5-13.4-10.7c-4.7-4.7-10-9.4-11.8-10.3c-2.2-1.1-3.5-2.6-3.8-4.5
		c-0.7-3.1-9.4-11.4-13.8-13.1c-1.4-0.5-2.6-1.6-2.6-2.4s-1.3-2.5-2.9-3.9c-1.6-1.3-3.9-4.4-5.2-6.8c-3.6-6.6-5.1-8.4-8.5-10.2
		c-2.4-1.2-3.1-2.3-3.2-4.6c0-1.7-1-4.5-2.2-6.1c-2.3-3.3-2.5-3.1,4.5-4.8C252.7,647.6,255.8,647.2,257.4,647.1z"/>
	<path id="path180" fill="#85377D" d="M243.5,659.9l0.8,3.1c0.5,2,1.7,3.5,3.5,4.2c3.4,1.5,6.2,3.8,6.2,5.2c0,0.6-2.4,2.3-5.3,3.8
		c-8.4,4.4-37.1,26.6-61.3,47.5c-14.7,12.5-16.2,13.2-29.7,13.3h-7.9l9.9-9.4c22.7-21.5,49.9-44,72.6-59.9L243.5,659.9z"/>
	<path id="path182" fill="#85377D" d="M258.5,681c0.5,0,2.5,2.2,4.3,5c2.1,3.2,4.2,5.2,6,5.6c3.4,0.9,9.4,6.9,11.1,11.1
		c0.8,1.8,1.8,3.3,2.3,3.3c1.9,0,0.2,1.8-9.2,9.6c-10.6,8.8-35.6,33.6-44,43.7c-3,3.6-5.8,6.6-6.1,6.6c-0.4,0.1-4.8-2.5-9.9-5.7
		c-5-3.1-12.8-7.9-17.3-10.5c-9.5-5.7-12.1-7.8-13.7-11.7c-1.4-3.5-3.1-2,29.4-28.1c22-17.8,27.8-21.9,20.8-14.6
		c-2.4,2.5-2.9,3.6-2.1,4.9c1.1,2,3.1,2.3,6,0.7c1.5-0.7,1.7-1.4,1-2.3c-1.4-1.6,3.9-6.7,13.3-13C254.3,683.1,257.9,681,258.5,681z"
		/>
	<path id="path184" fill="#85377D" d="M300.9,722c3.3,4.1,9.7,7.9,13.3,8c2.3,0,11.8,7.2,11.8,8.9c0,0.7-2.9,4.7-6.4,9
		c-10.7,12.8-32,41.9-40.2,54.8l-7.7,12.2l-4.6-5.2c-2.5-2.8-5.2-5.5-5.9-6.1c-4.6-3.6-27.9-28.3-30.3-32.1l-2.8-4.5l16.8-17.7
		c16.5-17.5,26.3-26.8,37-35.1C289.2,708.4,290.3,708.9,300.9,722z M311.7,735c-1.6,0-12.6,11.2-15.7,16c-3.6,5.5-3.7,7.5-0.9,9.1
		c1.8,0.9,2.6,0.7,4.8-0.9c3.2-2.3,3.8-4.9,1.4-5.4c-1.4-0.3-0.1-2.1,5.9-8.4c6-6.2,7.5-8.3,6.6-9.2
		C313.1,735.5,312.2,735,311.7,735z"/>
	<path id="path186" fill="#85377D" d="M340,745.8c4.7,3.5,8.9,5.2,12.9,5.2c4.9,0,7.4,2.1,6.2,5.3c-0.5,1.2-3.9,9.5-7.5,18.5
		c-6.9,17.1-11.7,31.7-13.6,41.5c-1,4.9-1.5,5.7-2.8,5.1c-7.5-3.3-27.6-3.2-49.7,0.1c-11.7,1.8-13.7,1.6-12-1
		c0.6-0.8,4.8-7.4,9.4-14.6c10.8-16.9,43.3-60.1,47.5-63C331.6,742,337,743.6,340,745.8z"/>
	<path id="path188" fill="#85377D" d="M613.8,745.5c0.4,0.4,11.3,23.5,22.9,48.5c10.8,23.5,20.5,46.1,20,46.7
		c-0.2,0.2-4.1-1-8.6-2.7c-4.5-1.6-9.1-3-10.1-3s-6.2-2.2-11.7-5c-5.4-2.7-11.2-5.3-13-5.6s-3.6-1.1-4.2-1.8
		c-0.5-0.6-3.3-6.9-6.2-13.9c-4.3-10.6-5-13-3.8-13.8c1.2-0.7,0.9-2.2-1.5-9.1c-1.6-4.6-4.6-12.2-6.8-17l-4.1-8.7l3.3-2.8
		c5.4-4.5,8.5-6.1,13.5-6.9c2.6-0.3,5.9-1.7,7.3-2.9C612.3,746.2,613.6,745.3,613.8,745.5z"/>
	<path id="path190" fill="#6B4D62" d="M364.1,757c0.4,0,1.2,0.6,1.8,1.4c1,1.1-0.2,4.8-5.5,17.8c-7.9,19.4-11.8,30.6-13.4,38.5
		c-1.1,5-3,8.2-5.2,8.3c-2,0.1,6.1-26.1,15.3-49.7C360.6,764.3,363.8,757,364.1,757z"/>
	<path id="path192" fill="#85377D" d="M378,760.5c1.4,0.8,3.4,1.4,4.4,1.5c1,0,4.4,1.2,7.3,2.7c5.3,2.5,5.7,2.6,11.8,1.4
		c4.9-1,6.8-1,8.5-0.1s2.9,0.9,4.8,0.1c1.3-0.7,2.6-1,2.7-0.9c0.2,0.2-0.1,6.6-0.6,14.3c-0.9,13.1-2.7,26.6-5.1,37.8
		c-1,4.8-1.1,4.9-4.2,4.3c-5.7-1.1-24.8-2.7-40.3-3.4c-8.3-0.4-15.5-1-15.8-1.4c-0.4-0.4,0.3-3.7,1.5-7.5c2-6,18.5-47.6,19.7-49.6
		C373.3,758.6,375.2,758.9,378,760.5z"/>
	<path id="path194" d="M580.7,761c0.5,0,2.4,3,4.2,6.7c3.8,7.9,2.8,7.4-1.8-1C581.3,763.6,580.2,761,580.7,761z"/>
	<path id="path196" fill="#85377D" d="M573,763.3c3.4,0.2,3.7,0.5,9.4,11.7c7.2,13.8,20.8,45.9,20,47.1c-0.9,1.6-5.6,1-13.9-1.7
		c-5.7-1.8-11.2-2.7-19-3.1c-6-0.3-11.1-0.6-11.2-0.7c-0.1-0.1-1.3-5.9-2.8-13s-4-17.4-5.6-23c-1.6-5.5-2.9-10.7-2.9-11.4
		c0-0.8,1.5-1.2,4.3-1.2c2.3,0,7.4-1.1,11.2-2.5C566.4,764.2,571.1,763.2,573,763.3z"/>
	<path id="path198" fill="#85377D" d="M535.5,766.5c1.1,0.3,2.8,0.5,3.7,0.5c1.9,0,3.1,3.3,7.8,21.1c4,15.2,7.2,32.1,6.2,33.1
		s-5.6,1-34.2-0.1c-14-0.5-26.8-1.4-28.4-1.8l-2.9-0.9l-0.1-24.9l-0.1-25l4.9,0.4c2.8,0.2,7.3-0.2,10.2-0.9c4.5-1.1,5.4-1,7.8,0.5
		c3.3,2.2,15.5,1.7,20.1-0.8C532.2,766.8,534.4,766.2,535.5,766.5z"/>
	<path id="path200" fill="#7E5273" d="M430.7,767.8l7.9,0.3l-1.4,12.2c-1.5,13.4-0.9,20.3,2.1,22.1c1.4,0.9,2.1,0.7,3.5-1.1
		c1.7-2.2,1.7-2.2,1.4,3.1l-0.4,5.3l-6.6,3.8c-14.6,8.4-21.2,10.9-21.2,8.2c0-0.8,1.1-7.3,2.5-14.5c1.3-7.3,2.7-18.7,3.1-25.4
		c0.3-6.8,0.7-12.8,0.9-13.3C422.6,767.9,426,767.6,430.7,767.8z"/>
	<path id="path202" fill="#85377D" d="M454.4,769.5c2.5,1.9,7.9,1.9,11.5,0c2.2-1.1,3.7-1.2,6.5-0.4c2.5,0.7,4.7,0.7,6.6,0l2.9-0.9
		l0.6,6.2c0.4,3.4,0.5,14.7,0.3,25c-0.2,15.2-0.6,18.8-1.8,19.6c-2.9,1.8-11.3,1-16.5-1.5c-2.7-1.4-5.7-2.5-6.5-2.5
		c-0.9,0-3.3-1.7-5.4-3.7l-3.9-3.8l0.7-10.4c0.3-5.7,0.6-14.6,0.6-19.8C450,767.5,450.5,766.6,454.4,769.5z"/>
</g>
</svg>
