<?xml version="1.0" encoding="utf-8"?>
<!-- Generator: Adobe Illustrator 21.0.0, SVG Export Plug-In . SVG Version: 6.00 Build 0)  -->
<svg version="1.1" id="图层_1" xmlns="http://www.w3.org/2000/svg" xmlns:xlink="http://www.w3.org/1999/xlink" x="0px" y="0px"
	 viewBox="0 0 850 850" style="enable-background:new 0 0 850 850;" xml:space="preserve">
<g transform="translate(0.000000,0.000000) scale(1.00000,1.00000)">
	<path d="M88.6,0.1h10.5c8.5,0,10.1,0.2,8.6,1.2c-1,0.7-3.7,2.5-6,4.2C94.6,10.7,85.7,16,84.1,16c-0.8,0-5.1,2.7-9.4,6
		c-4.4,3.3-8.3,6-8.7,6c-0.3,0-0.9,1.9-1.3,4.2C63.9,37.1,59,43,55.7,43c-1.2,0.1-3.2,1.4-4.6,3.1S43.6,53.2,37.6,58
		c-6.1,4.9-11.9,10.4-13,12.2c-1,1.8-4.7,6.1-8.1,9.6c-3.3,3.4-7.3,8.5-8.8,11.2c-2.4,4.4-2.7,5.8-2.4,13.2c0.2,4.6,0.7,8.3,1.1,8.3
		s2.5-3.9,4.7-8.8C19,85.9,31,70.8,49.7,55.4c8.9-7.3,10.9-8.5,13.6-8.2c3.1,0.3,3,0.5-9.4,11.6C28,81.9,17.9,95,11.5,113.7
		c-4.3,12.6-5.8,24.7-5.1,39.3c0.6,10.4,2.7,20.2,4.6,21.4c0.4,0.3,3.1-5,5.9-11.8c9.4-22,20.6-40.4,33.6-55.1
		c5.3-6,7.6-7.7,7.6-5.7c0,0.5-3.9,6-8.6,12.3c-15.8,21-24.4,37.4-29,55.8c-4.8,18.8-4,33.7,2.3,45.2c2.9,5.4,14.3,16.9,16.7,16.9
		c2.5,0,4-3.2,13.6-29c8.3-22.3,13.3-33,14.7-31.7c0.2,0.3-2.7,9.2-6.5,19.9c-3.8,10.6-8,23.6-9.2,28.8c-3.3,14.3-2.9,31.1,1,41.5
		c0.6,1.5,1.3,2.6,1.5,2.3c0.3-0.2,1.2-6.5,2-13.9c0.9-7.4,1.9-14.5,2.2-15.9c0.9-4,5.5-15.1,6-14.6c0.3,0.2-0.5,4.9-1.6,10.5
		c-4.5,21.8-2.1,39.3,7.3,52.5c5.1,7.2,18.2,18.3,26.1,22.1c5.4,2.7,16,5.3,17.1,4.3c0.3-0.4-3.2-11.4-7.9-24.5
		c-8.3-22.8-8.8-25.2-5.6-25.3c0.4,0,3.3,7,6.5,15.7c6.2,16.9,9.1,21.6,16.9,27.5c6.3,4.8,18.2,9.8,23.3,9.8h3.9l-0.9-5.8
		c-2.3-14.9-6.5-20.9-19.6-27.7c-20.5-10.6-32.5-24.8-40.4-47.5c-3-8.9-3.2-10.4-3.3-23c0-11.9,0.3-14,2.2-18l2.2-4.5l-0.6,9
		c-1.9,31.3,9.9,58.7,31.7,73.5c6,4.1,22,12.4,22.6,11.7c0.2-0.2-3.2-5.3-7.7-11.3c-9.3-12.5-10.9-15.3-13.8-24.8
		c-2.7-8.9-7.1-44.9-7.1-58.6c0-8.9,0.4-11.7,2.8-18.5c3.5-9.9,6.8-15.2,14.5-23.2c6.9-7.2,9.7-7.5,3.7-0.3
		c-13.7,16.4-19.6,37-17.1,59.8c2.5,22.2,7.3,33.5,19.5,45.6c4.4,4.4,8.2,7.4,8.4,6.8c0.2-0.6-1-4.4-2.7-8.5
		c-6.3-15.8-6.6-27.6-1.6-58c6.3-37.8,10.4-50,24.4-71.2c6.2-9.4,22.8-25.9,32.6-32.4c14.7-9.6,32.5-17,32.5-13.3
		c0,0.4-4.4,2.8-9.8,5.3c-29.5,14.1-52.9,37.6-63.7,64.1c-12.8,31.3-12.9,64.9-0.3,87.8c4.7,8.5,5.4,9,11.6,9
		c5.8,0,13.2,1.8,13.2,3.1c0,0.5-3.7,0.9-8.2,1.1l-8.3,0.3l6.5,6.6c6.2,6.2,13.7,11.3,18.7,12.5l2.3,0.6l-1.6-4.3
		c-3.2-9.2-4.6-18.5-4.6-30.9c0-21.1,3.3-32.4,19.2-64.3c10.3-20.6,15.8-34.8,19.5-49.7c2.2-9.1,12.7-30.2,16.1-32.5
		c1.9-1.2,2.5-1.3,2.1-0.4c-0.3,0.8-2.9,6.6-5.8,12.9c-11.2,24.9-16.6,46.3-17.6,69.5c-0.7,18,1.1,31.5,6.3,47.5c5,15,5.8,15,4.8,0
		c-1.5-20.6-0.8-41.1,1.5-52.7c5.5-26.9,18.7-50.5,35.9-64.4c5.8-4.7,8-5.9,10.9-5.9c4.9,0,8.7,4.4,11.4,13.2l2.2,7l4.3-7.9
		c2.3-4.3,5.3-8.7,6.6-9.9c3.3-2.9,7.6-4.6,8.4-3.3c0.7,1.1,1.5,11.8,3.4,41.9c1.3,21.8,2.8,29,8.4,40.4c4,8.3,14.5,24,15.4,23.1
		c0.2-0.2-0.1-1.9-0.7-3.7c-2.9-9.2-4.1-21.6-4.1-44.4c0-14.6,0.4-23.4,1-23.4c1.2,0,1.7,2.5,2.5,12.5c1.3,17.4,5.7,36,11.2,47
		c3.1,6.2,10.2,16.1,13.8,19.5c2.4,2.2,2.1,1.3-2.3-7.5c-2.8-5.5-6-13.1-7.1-17c-2.2-7-3.9-18.5-2.8-18.5c0.3,0,1.4,2.4,2.3,5.2
		c0.9,2.9,5.8,13.4,10.8,23.3c11.2,22.2,10.3,21.5,29.4,21.5c8,0,13.2-0.4,13.2-1c0-0.5-1.6-4.9-3.6-9.7c-8-19.3-12-34.4-11.2-42.8
		c0.3-3.5,1.5-0.4,9,21.9c4.8,14.2,9.5,27,10.3,28.3c2.1,3.1,7.3,6.3,10.5,6.3c3.6,0,9.3,1.7,11.5,3.5c2.2,1.7,1.7,1.7-11.8,0
		l-4.8-0.6l2,3.8c9.1,18,37.4,39.6,49.7,38.1c2.4-0.3,1.7-1.5-16-26.2c-10.2-14.2-18.6-26.2-18.6-26.7c0-0.4,0.4-1,0.9-1.3
		c1.3-0.9,7.2,6.1,19.6,23.4c12.6,17.5,16.8,22.7,19.6,23.5c1.1,0.4,5.9-0.7,11.1-2.5c7.4-2.6,10.3-3.1,15.7-2.8
		c6.4,0.3,6.6,0.2,8-2.6c1.1-2.5,1.2-4.5,0.2-12.9c-1.6-12.6-5-24.8-10.2-35.7c-4.5-9.4-8-14.7-18.1-26.8c-3.8-4.5-6.6-8.2-6.3-8.2
		c0.3,0,2.3,0.9,4.5,2c7.5,3.8,22,24.7,28,40.1c4.8,12.4,6.2,20.8,6.4,36.9l0.1,14.5l4.6,7c2.5,3.8,5.8,9.3,7.3,12.2
		c1.6,2.8,3.5,5.4,4.2,5.7c5,1.9,28.1-11.5,45.8-26.7c5.4-4.6,11.2-9.2,12.8-10.2c2.9-1.7,3-1.7,2,0.2c-1.8,3.3-20.4,20.5-29.6,27.5
		c-4.9,3.6-13.2,8.8-18.5,11.5c-5.3,2.6-9.8,4.9-10,5.1c-0.3,0.1,0.1,0.8,0.7,1.4c2.8,2.8,21.8-3.7,32.9-11.4
		c2.7-1.8,8.4-6.6,12.8-10.7c8.1-7.6,10.4-8.1,6.2-1.4c-5.6,8.9-18.6,18.2-38.9,27.8c-5.5,2.6-9.9,5.3-10.2,6.3
		c-0.2,0.9-0.7,4.8-1.1,8.7c-1.3,14.9-4.3,21.3-15.3,32.7c-3.6,3.8-6,6.8-5.4,6.8c2.2,0,16.8-6.2,28.2-12c25.3-12.9,26.9-11,2.5,3
		c-14.2,8.2-25.1,13.3-34.5,16c-6,1.8-8.3,3.1-11.5,6.4c-2.2,2.2-5.4,4.8-7.2,5.8c-5.7,3-6.7,6.4-6.5,22.8
		c0.2,15.3,0.8,22.7,2.1,24.9c1.5,2.3,4.6,0.3,13.6-8.7c23.6-23.4,63.1-75.6,75-98.9c12.2-24,18.8-55.8,18.8-90.3
		c0-26.6-2.4-45-10.5-81.4c-8-35.9-16.7-54.1-34.9-73.1c-7.5-7.8-8-8.5-5.5-8.5c1.9,0,5.6,2.5,12.9,8.6c5.6,4.7,12.9,10.2,16.2,12.1
		c23,13.4,34.2,26.6,49.5,57.8c8.5,17.3,12.9,29.5,15.3,42c2.3,12,2.6,15.1,4.7,67c4.4,107.1,5.5,126.4,8.1,141.3
		c4.6,27.5,11.9,49.4,27.5,83.4c8.7,19.1,24.8,57,27.3,64.5c4.8,14.3,5,28.1,0.6,46.2c-6.5,26.7-16.5,49-28.8,64.3l-4.9,6l2.3,2.4
		l2.2,2.4l4.9-6.3c16.7-21.5,28.4-45.2,32.2-65.4c3.5-18.7,3-29.3-2.8-70.3c-1.3-9.1-2.2-16.7-2-16.9c0.7-0.8,4.6,9.5,6.4,16.9
		c3,11.9,4.2,24.2,4.2,42.5c0,32.8-6.5,60.7-22.3,96.6c-3.8,8.5-6.9,16.5-6.9,17.8c0,1.2,1.7,5.3,3.8,8.9l3.7,6.7l0.6-9.5
		c1-16.4,3.9-20.7,26-38.5c29.2-23.5,36.9-31.8,44.5-47.8c12.5-26.5,11.7-66.1-2.1-100.8c-3.5-8.7-25.5-52.2-45-88.9
		c-21.6-40.5-24.2-47.3-25.2-65.5c-1-19.5,2.3-31.5,16.6-60.5c10.3-20.7,15.5-34.9,19.3-52c1.9-9.1,2.3-13.4,2.3-32
		c0-20.9-0.1-22-3.7-40c-6.5-31.8-10.3-45.5-15.7-56.5c-6.3-13-13-22.4-24.4-34.1c-5-5.2-9.5-10.2-10-11c-1.2-2.1-6.5-6.9-11-9.9
		C666.5,25,655,19,653.6,19c-0.7,0-2.3-0.9-3.7-1.9c-1.3-1.1-4.4-2.4-6.8-3.1c-2.5-0.7-5-1.6-5.6-2.1s-3.6-1.8-6.7-2.8
		c-3-1.1-6.6-2.6-7.9-3.5c-1.2-0.8-5.2-1.9-8.7-2.3c-3.6-0.5-6.6-1.3-6.9-2.1c-0.3-0.9,2-1.2,9-1.2c5.2,0,9.8,0.4,10.3,0.9
		c0.6,0.5,3.3,1.6,6.1,2.5s6.8,2.5,9,3.6c2.1,1.1,4.6,2,5.5,2s2.7,0.8,4,1.9c1.3,1,4.2,2.4,6.4,3.1c2.2,0.7,5.1,2.1,6.4,3.1
		c1.3,1.1,2.8,1.9,3.3,1.9c0.6,0,3,1.3,5.5,3c2.4,1.6,4.7,3,5.1,3c2,0,27.4,30.2,34,40.3c6,9.3,13.5,25.2,17.1,36.4
		c11.8,36.6,15.7,86.9,9.1,117.8c-1,4.9-3.5,16.2-5.4,25s-3.8,18-4.1,20.5l-0.7,4.4l8.3-7.5c4.6-4.1,14.7-12.9,22.4-19.4
		c16.1-13.6,34.5-31.8,42.7-42.1c17.9-22.5,29.4-45.8,35.6-71.9c2.4-10,2.6-12.9,2.7-31.5c0-21.3-0.6-26-5.6-43
		c-2.1-7.3-4.8-10.5-13.9-16.3c-3-1.9-8.2-5.5-11.4-8.1c-3.3-2.5-8-5.6-10.5-6.7c-2.5-1.2-5.3-2.7-6.1-3.4c-1.4-1.2-9.8-5.5-17-8.9
		C769.3,8,760,5,751.7,3c-4.3-1-8.1-2.1-8.4-2.4c-0.4-0.3,3.9-0.6,9.4-0.6c9.6,0,17.2,1.5,23.3,4.4c9.2,4.5,17.7,9.1,19,10.2
		c0.8,0.7,2.7,1.5,4.1,1.9c1.4,0.3,5.8,3,9.6,5.9c3.9,2.9,10.9,7.8,15.6,10.9c13,8.6,13.6,9.6,18,29.9c5.5,25,7,38.5,6.4,55.3
		c-0.6,15.5-2.6,25.2-7.7,37.5c-9.1,22.1-24.8,41.6-53,65.8c-49.2,42.4-53.5,46.9-60.9,65c-7.1,17.2-7.7,30.5-1.9,42.2
		c8.3,16.9,28.6,27.8,42.3,22.6c5.4-2.1,11.3-8.5,15.2-16.5c5.7-11.6,4-29-3.8-38.3c-2.1-2.6-3.9-4.9-3.9-5.3c0-0.3,2.3,0.6,5,2.1
		c14.6,7.9,21.8,25.1,17.5,41.4c-0.9,3.6-1.9,10.1-2.2,14.5c-1.3,20.8-13.3,30-38.8,29.9c-13.1,0-19.2-1.6-31.4-8
		c-4.6-2.4-8.5-4.3-8.6-4.2c-1.2,1.2,26.5,53.9,60.2,114.8c8.8,15.9,12.8,31.5,12.7,49.5c-0.1,14.5-2.7,27.8-8.2,41.3
		c-5.7,14-8.6,17.5-39,48.1c-31.3,31.6-33.2,34-35.3,45.6c-1.5,8,0.1,17.7,5.3,32c9.7,26.8,10.4,31.2,11.3,66.8
		c0.6,19.8,0.4,26.1-0.5,27.2c-0.7,0.9-1.6,3.2-2.1,5.3c-1.2,5.7-3.8,12.2-6,15.1c-1.1,1.4-3.5,4.7-5.4,7.2
		c-4.9,6.7-16.7,15.2-23.5,16.8c-3,0.8-7.3,2.2-9.5,3.2s-5.1,1.9-6.5,1.9c-1.5,0-3,0.4-3.6,1c-0.5,0.5-4.5,1.7-8.9,2.6
		c-4.4,0.9-8.9,2.3-10,3c-1.4,1-5.2,1.4-13,1.4c-10.2-0.1-10.8-0.2-7.9-1.4c1.8-0.8,5.8-2,9-2.7c3.3-0.7,6.9-2,8.2-3
		c1.2-0.9,5.7-2.4,10-3.3c4.2-0.9,8.9-2.3,10.4-3.1c1.4-0.8,3.8-1.5,5.3-1.5c1.4,0,3.8-0.6,5.3-1.4c1.5-0.8,5.2-2.1,8.3-2.9
		c8.2-2.1,17.8-9.5,23.5-18c7.5-11.3,10.7-27.1,12.1-58.7c0.6-14.2-1.1-26.5-5.3-39.2c-3.2-9.9-14.7-33-21.4-43.3
		c-21.8-33.3-51-56.9-84-67.9c-37.3-12.3-73.5-3.9-104.2,24.2c-17.2,15.7-25.6,26.4-93,118.7c-26.2,35.9-29.8,41.4-29.8,45.2
		c0,1.2-0.4,2.4-0.9,2.7c-1.8,1.1-5.1,9.7-5.1,13.1c0,2-0.7,4.6-1.5,5.8s-1.9,6.7-2.5,12.2s-1.8,11.5-2.6,13.3
		c-0.8,1.8-1.4,5.1-1.4,7.2v4h-6.5H354v-3c0-1.6,0.6-4.7,1.4-6.7c0.8-2.1,1.7-5.6,2-7.8c1-7.1,2.4-12.9,4-17.2
		c0.9-2.3,1.9-6,2.2-8.3l0.7-4h-42.1h-42.1l5.4-5.1l5.5-5.2l15.7-1.8c8.7-1,18.3-1.9,21.3-1.9c27.1-0.2,49.3-18.3,50.8-41.3
		c0.6-10-1.4-16.6-7.8-25c-2.8-3.7-5.5-6.7-6.1-6.7c-0.5,0-2.8-1.7-5.2-3.8c-2.3-2.1-5.8-4.8-7.8-6c-6.2-3.8-14.7-13.6-18.5-21.5
		c-6.1-12.9-6.4-18.6-2.3-40c1.1-5.6,0.7-9.3-0.8-8.4c-1.4,0.9-45.2,2.9-47.9,2.3c-3.8-1-1.2-3.6,3.6-3.6h3.8l0.8-8.3
		c0.9-8.2,0.9-8.2-1.5-8.5c-1.3-0.2-5.8,0.9-9.9,2.4c-22,8-49.3,34.7-62.7,61.4c-3.3,6.5-6.8,17.2-7.9,24c-0.6,3.5-0.6,3.6,4,4.8
		C222.9,713.6,228,723,228,739c0,7.2-0.4,9.5-2.3,13.1c-3.7,6.9-7.5,8.5-22,9.2c-15.1,0.7-21.2,2.6-24.2,7.7
		c-1.8,3.1-2,4.9-1.8,16.2L178,798h-2.9c-5,0-8-1.8-11-6.5l-2.8-4.5l-3.6,5.1c-2,2.8-6,7.1-8.9,9.6s-5.9,5.4-6.5,6.3
		c-0.7,1-4.3,4.2-8,7.2c-3.8,2.9-9.3,7.8-12.3,10.9c-5.2,5.3-12.9,16.8-14.4,21.6c-0.7,2.1-1.3,2.3-8.2,2.3c-7.6,0-8.8-0.6-5.4-2.7
		c1-0.7,3.8-3.8,6.1-6.9s6.2-8,8.8-10.9c2.5-2.8,5.8-6.5,7.2-8.1s5.6-5.6,9.3-8.9c3.6-3.3,6.9-6.9,7.2-8.1c0.3-1.1,1.9-2.8,3.5-3.8
		c1.6-0.9,3.6-3.4,4.4-5.3c0.9-2.1,6.5-8.5,13.4-15.2c13.1-12.8,30.8-35.6,36.6-47.2c1.9-3.8,3.5-7.1,3.5-7.4
		c0-0.4-6.2-0.3-13.7,0.1c-11.2,0.5-15,0.3-20.2-1c-9.1-2.3-15.4-6.1-21.9-13.1c-6.8-7.2-11.8-16.4-16.2-29.8
		c-1.7-5.3-3.5-9.7-3.9-9.7c-2,0-11.4,7-17.1,12.9c-10.9,11.1-21.3,28.3-27,44.6c-1.7,4.9-4.6,16.6-6.5,26c-1.9,9.3-4.3,19.7-5.5,23
		s-2.8,9.8-3.7,14.5c-0.8,4.7-1.9,10.5-2.3,13c-0.5,2.5-0.9,11.3-0.9,19.6c-0.1,11.6-0.4,15.5-1.6,17c-0.8,1-1.5,3.1-1.5,4.6
		c0,2.4-0.4,2.8-3,2.8c-2.9,0-3-0.2-3-4.3c0-2.4,0.4-4.7,0.9-5.3c0.5-0.5,1.2-8.3,1.4-17.4c0.3-9.1,0.7-17.9,1-19.5
		c1.1-7.4,1.9-11.3,3.2-15c0.8-2.2,3.8-13.7,6.9-25.5c6.6-26,10.1-36.1,17.2-50.5c8.7-17.6,18.7-30.5,36.1-46.5
		c7-6.5,7-6.5,7.7-12.9c0.9-9.8,5.6-21.8,12.1-31.7c4.5-6.6,11.3-14.1,29.4-31.7c71.6-70,79.1-79.3,79.1-97.9
		c0-11.9-0.7-12.8-29.1-36.8c-13.7-11.7-27.4-24-30.5-27.3c-9.8-10.9-15.3-25.7-15.4-41.2c-0.1-22.2-3.6-49.9-7.8-61.2
		c-1.4-3.8-2.4-5-5.2-6c-1.9-0.7-9.6-3.5-17-6.2c-7.4-2.8-13.6-4.9-13.8-4.7c-0.9,1,3.1,6.7,7,10c4.7,4.1,17,10.6,19.9,10.6
		c1.1,0,1.9,0.4,1.9,1c0,1.6-10.9,1.2-14.5-0.6c-1.8-0.8-6-4-9.4-7c-5.5-5-7-5.8-15.3-8c-12.3-3.3-22.1-8.1-31.3-15.4
		c-4.1-3.3-7.5-6.4-7.5-6.8c-0.1-0.4-1.7-2.5-3.6-4.7l-3.6-4l2,5.1c2.5,6.6,6.9,13,15,21.5c3.5,3.8,6.1,6.9,5.8,6.9
		c-0.4,0-2.4-0.9-4.4-1.9c-6-3.1-12.6-11.1-18.1-22.1c-2.8-5.6-7.4-13.9-10.2-18.4c-7.2-11.3-9.9-18.6-10.5-27.7l-0.6-7.7l-4.9-2.2
		c-16.1-7.3-25.3-21.9-26.5-42c-0.4-7.7-1-10.2-2.9-13c-8.2-12.3-10.6-25.5-8.1-44.9L4,124.8l-2.2-3c-2-2.7-2.2-4.3-2.5-18.3
		L-1,88.1l6.8-7.8c3.7-4.3,7.7-8.5,8.8-9.4c2.5-2.1,5.7-8.6,8.2-16.3c1.5-4.9,3-7.1,8.9-13c9.2-9.1,16.1-14.9,20.1-17
		c1.8-0.9,5.6-3.7,8.5-6.2c2.8-2.6,6.5-5.3,8.2-6.1s6.9-3.9,11.6-6.8L88.6,0.1z M578,76.3c-4.9-2.1-5-2.1-5-0.2
		c0,1.1,1.1,4.1,2.4,6.7c7.3,14.4,16.4,40.3,21.6,61.1c6.5,26.3,8.5,44.6,7.7,70.6c-0.9,27.3-3.9,46.8-10.3,66.4
		c-6.8,20.8-12.9,29.8-54.7,81.6l-23.5,29l4.2,0.8c2.2,0.5,5.1,1.1,6.4,1.3c2,0.4,6.2,5.6,6.2,7.7c0,0.4-1.9-0.2-4.2-1.4
		c-6-3.1-10.4-3.9-14-2.7l-2.9,1l4.8,2.8c17,9.7,24.4,33,14.2,45.3c-1.6,1.9-4.9,4.5-7.3,5.6l-4.4,2.2l6.9,15.5
		c15,34,23,44.4,52.2,67.7c32.8,26.2,41.5,37.9,43,57.7c0.7,9.6,4.7,14,4.7,5.2c0-6.8-7.1-34.2-11.5-44.7
		c-9.4-22.3-15.7-44.2-18.9-66.2c-3.2-21.4-5.5-66.3-4.1-80.7c0.6-6.6,0.9-7.6,2.6-7.6c1.8,0,1.9,1,1.9,24.7
		c0,55.7,5.3,85.7,22.2,126.2c7.5,18.1,10.7,30.5,11.5,44.3c0.4,8,1,11.1,2.2,12.2c2.6,2.3,39.2,27.6,40,27.6c0.4,0,3.1-3.3,6-7.3
		c10.7-14.7,22.6-44,26.7-65.5c1.9-10.4,1.5-26.6-1-35.7c-1.9-6.8-17.5-43.7-27.7-65.6c-16.5-35.2-25.7-64.6-29.4-93.4
		c-1.6-13-3.6-50.3-6-113c-3-78.4-3.7-85.5-11.1-106.6c-4.7-13.6-15.5-34.6-25.2-48.8c-6.1-9.1-9.1-12.5-14.4-16.5
		C586.1,80.8,580.8,77.5,578,76.3z M257.1,116.9c-5.5,5.5-8.5,10.9-12.9,23.4c-5.9,16.7-7.5,27.1-7.5,47.7c0,21.4,1.6,31.1,8.4,50.1
		c2.3,6.2,3.9,12,3.7,12.8c-0.2,0.9-2-1.7-4.1-5.8s-6-10.2-8.7-13.5c-11.7-14.4-16.8-30.3-17.6-55.1l-0.6-15.9l-4,4.4
		c-4.7,5.3-12.4,20.9-16.6,33.6c-7.5,23.2-6.4,42.8,3.7,61.6c2,3.7,3.3,7,2.9,7.4c-0.3,0.4-3.5-0.1-7.1-1s-6.8-1.6-7.1-1.6
		s0.8,2.7,2.5,6c3.4,6.7,3.6,8,1.5,8c-2,0-2,6.1,0.1,20.5c0.9,6,1.8,13.6,2,16.9c0.3,5.1,2.8,23,3.6,26.6
		c0.3,1.4-20.8,10.7-21.9,9.7c-0.3-0.3,0.5-2.2,1.7-4.1l2.1-3.6l-4.9-12.2c-9-22.3-10.7-29.1-11.7-47.9c-0.4-6.3-0.9-12.1-1.1-12.9
		c-1.1-3.3-2.4,1.7-2.4,9.5c0,10.3-0.6,11.1-5.5,9.1c-2-0.9-4.1-1.6-4.6-1.6c-0.4,0,1.2,5.7,3.8,12.7c11.7,32.7,15.3,48.4,17.3,76.4
		c1.6,21.6,5.4,33.5,14.6,45.9c7.9,10.4,24.4,26.1,41.9,39.7c9.4,7.3,20.8,16.6,25.5,20.8c15,13.5,29.6,18.7,45.8,16.4
		c7.7-1.1,46.2-12.6,47.7-14.3c0.6-0.6,3.3-1.1,6-1.2c8.5-0.1,14.9-2.6,46.5-18.1c28.5-14,30.6-15,39.8-21.2
		c4.7-3.1,9.5-6.3,10.8-7.1c2.6-1.7,5.7-7.6,7.2-14c1.6-6.7,2.9-22.6,5.3-62.7l2-36.2l-3.1-11.8c-5.6-21.2-18.1-63.6-19.5-66.2
		c-1.2-2.4-4.7-5.9-11.9-12.1l-2.8-2.5l2.7,5.4c1.6,3.3,2.2,5.2,1.3,4.9c-6-2.5-27.1-11-30.3-12.3l-4-1.7l2.9,3
		c2.7,2.9,2.8,5.2,0.3,5.2c-0.7,0-5.5-3.4-10.7-7.6s-10.9-8.7-12.7-10.1l-3.2-2.5l-4.1,3.3c-2.2,1.8-4,3.5-4,3.9
		c0,1.4,6.7,9.2,9.6,11.1c3.7,2.4,7,2.4,11.9-0.1c2.1-1.1,4-1.8,4.1-1.7c0.2,0.2,0.1,1.3-0.2,2.4c-0.4,1.6-2.1,2.7-5.8,3.9
		c-2.8,0.9-5.3,1.8-5.4,2c-0.2,0.1,0.4,3.9,1.3,8.3l1.8,8l4.9,1.2c3.2,0.9,4.8,1.8,4.6,2.7c-0.2,1.1-2.1,1.4-7.3,1.4h-6.9l-1.1-4.8
		c-1.6-6.7-3.7-10.4-8.7-15.2c-5-4.7-13.8-11.6-13.8-10.7c0,0.3,1,4.3,2.3,8.8c1.9,7,2.2,10.7,2.2,25.2c0,16-0.2,17.4-2.8,25
		c-1.6,4.4-4.6,11-6.8,14.7c-2.1,3.6-3.9,6.9-3.9,7.1c0,0.3,3-0.2,6.7-0.9c3.6-0.8,6.8-1.3,7-1.1c0.2,0.2-3,2.3-6.9,4.7
		c-7,4.2-7.6,4.4-15.6,4.4c-9.1,0.1-9.3,0.2-15.8,9.2l-2.2,2.9l0.9-4.5c1.3-7.1,1.3-7-3.5-7c-2.5,0-4.7-0.4-5-0.9
		c-0.8-1.2,7.2-3.1,13.1-3.1c7.5-0.1,12.4-1.6,15.7-5l3.1-3.1l-4.2-3.5c-3.3-2.7-4.7-4.8-5.9-9c-1.6-5.8-1.3-8,1.8-13.2l2-3.3
		l2.4,2.2c1.3,1.2,2.4,1.9,2.4,1.5c0-2,3,2,5.5,7.1c1.5,3.2,3,5.2,3.5,4.7c2.1-2.2,4.3-17.4,4.3-29.4c0.1-18.5-4-33.7-10.8-40
		c-3.3-3.1-9.5-3.8-25.5-2.8c-16.8,1.1-18.4,2.8-19.6,22c-1.3,19.6,3.1,38.5,13,55.8c2.9,5.2,5.1,9.7,4.9,10
		c-1.2,1.2-8.8-9.1-12.9-17.4c-7.2-14.7-8.7-22-8.8-42.8c-0.1-9.7-0.3-17.4-0.7-17c-0.3,0.4-1.8,2.4-3.3,4.5
		c-3.5,4.8-6.4,6.1-11.1,5.3c-3-0.6-3.6-1.1-3.2-2.6c0.4-1.7-0.2-1.9-5.7-2.2l-6.1-0.3l3-1.6c1.7-0.9,4.8-2,7-2.4
		c4.3-0.7,6.1-1.8,7.6-4.6c0.8-1.5,0-2.3-4.6-5.1c-3-1.8-5.3-3.8-5.1-4.4c0.2-0.5-5.1,0.4-11.8,2.2c-12.4,3.4-16.1,4-17,2.6
		c-0.2-0.4,1.9-3.3,4.7-6.4l5.2-5.6l26-3.3c18.3-2.2,31.9-3.3,46.1-3.7l20.2-0.4l-9.8-13.8c-16.1-22.9-21.4-35.1-25-57.9
		c-1.1-6.7-2.5-13.2-3.1-14.2c-1.3-2.6-4.7-2.4-11.3,0.5l-5.5,2.4l-3.7-4.4c-2-2.5-5.3-5.6-7.3-6.9
		C273.4,107.6,264.9,109.1,257.1,116.9z M145.7,207.3c-0.6-0.7-1.6,7.2-1.6,13.2c0,6.1,2.2,17.1,4,20.6c1,1.8,1.2,1.8,5.5-0.3
		c2.5-1.2,4.5-2.5,4.5-2.9s-2.7-7.4-6-15.5C148.8,214.3,145.9,207.5,145.7,207.3z M293.7,218.1c-4.3,2.2-8,3.8-8.3,3.5
		c-0.2-0.2,0.1-1.4,0.7-2.7c1.1-1.9,1-2.1-0.3-1.6c-0.9,0.3-3.2,0.9-5.1,1.3c-2,0.3-3.6,0.9-3.6,1.3c0,0.4,2.2,1.8,4.9,3l4.9,2.3
		l7.6-5.1c4.2-2.8,7.6-5.4,7.6-5.6C302.1,213.8,302.5,213.7,293.7,218.1z M491.3,246.9c-10.3,3.5-17.2,9.8-19.1,17.6
		c-1.1,4.2-3.7,62.4-2.8,63.2c0.2,0.3,4.8,1.5,10.1,2.8c11,2.6,13.4,4.3,14.2,10.3c0.5,3.8,0.1,4.7-3.7,9.8
		c-2.7,3.6-5.6,6.2-8.3,7.4l-4.2,1.9h3.8c2.1,0.1,5.2-0.5,7.1-1.3c1.8-0.7,11-9.2,20.5-18.7c20.9-21,23.5-25.2,23.5-38.4
		c0-10.3-2.7-19.3-10.5-34.6c-6.6-12.9-12-19-18.5-20.8C498.3,244.7,497.5,244.7,491.3,246.9z M728.6,245.2c-0.2-0.1-2.9,5.7-5.9,13
		c-15,35.7-17,42.7-17,62.3c-0.1,13.3,0.1,14.5,3.2,23.7c3.9,11.4,7.6,15.7,18,21.1c17.6,9.2,40.1,9.5,53.3,0.7
		c5.7-3.8,7.1-6.7,9.7-20.5c3.3-17.7,3.9-24.7,2.4-29.9c-1.8-6.2-3.2-6.6-2-0.6c1.9,9.5-2.2,21.9-10.6,32.1
		c-6.5,8-11.6,10.3-21.3,9.7c-10.8-0.7-21.8-6.3-30.5-15.6c-7.7-8.1-11.4-15.2-13.6-25.8c-2-10-1-17.7,4.6-32.4
		c2.1-5.8,5.3-16.6,6.9-24C727.5,251.6,728.7,245.4,728.6,245.2z M173.4,268c-5,0-5.5,2.4-4.3,18.8c1.6,21.9,3.4,29.4,10.1,42.8
		c4.5,9.3,6.2,11.1,10.4,11.6c2.6,0.3,3-0.1,3.9-3.1c0.8-2.8,0.7-3.6-1.1-5c-3.1-2.4-4-4.9-4.7-13.4L187,312h3.1
		c3.2,0,3.2,0,2.5-4.3c-0.8-4.9-4.8-21.3-7.6-30.9c-1.7-5.8-2.3-6.7-5.1-7.7C178.2,268.5,175.3,268,173.4,268z M470.8,357.2
		c-2.7-1.1-2.8-1.1-2.8,2.1c-0.1,10-3.1,68.3-4,76c-3.2,27-9.6,52.2-20,79c-1.3,3.1-2.1,6-1.8,6.3c0.6,0.5,35.8-3.3,39-4.2
		c2-0.6,2.6-2,4.4-11.4c1.9-10,1.8-17.3-0.8-44c-1.5-16.4-2.2-31.8-2.4-56.5c-0.2-18.7-0.3-34.8-0.4-35.8c0-1-1.9-3.7-4.2-6
		C475.4,360.4,472.3,357.9,470.8,357.2z M491.8,413.6c-6.9,6.1-6.6,12.8,3.2,78.3c3.7,24.4,3,23.4,19.1,24.3
		c14.5,0.7,27.3,3.2,32.4,6.2c6.4,3.7,8.1,8.1,9.5,24.8c1.7,19.6,4,36.1,5.3,37.4c0.7,0.6,6.3,1.9,12.5,2.7
		c13.4,2,26.1,5.5,34.2,9.6l5.9,3l1.6-4.5c2.1-5.4,1.6-7.9-3.5-16.5c-6.1-10.4-11.2-15.3-28.9-28.1c-22.5-16.3-26-19.4-34-30.7
		c-23-32.2-33.9-58.8-38.2-92.6c-1.1-8.9-2.2-16.7-2.4-17.4C507.6,407.7,495.8,410.1,491.8,413.6z M451.2,444
		c-0.4,0-2.7,1.6-5.2,3.5c-2.5,1.8-7.6,5.3-11.5,7.6c-3.8,2.3-8.8,5.8-11,7.9c-4.5,4.2-7.6,5.9-15.5,8.4c-3,1-10.2,4-16,6.7
		c-15.8,7.5-29.2,12.9-31,12.3c-0.8-0.2-4.4,0.4-7.9,1.4c-5.8,1.6-6.7,2.2-8.5,5.7c-1.6,2.9-2.1,5.6-2,10.4
		c0.2,5.7,3.8,29.7,4.7,30.6c0.1,0.2,9.9-1.3,21.7-3.3c16.6-2.7,21.9-4,23.3-5.4c1-1.1,2.8-1.9,4-1.9s3.3-0.7,4.5-1.6
		c1.2-0.8,2.2-1,2.2-0.5c0,2.4,10,0.3,16-3.5c2-1.2,5.9-2.5,8.8-2.9s5.4-1.1,5.8-1.6c0.3-0.5,1.4-0.9,2.5-0.9c1.5,0,2.7-1.5,4.6-5.8
		c3-6.9,12.6-40.1,14.1-49.2c1.4-8.3,2.1-15,1.6-15c-0.2,0-5.2,8.1-11,18c-9.2,15.5-12.4,20-12.4,17.4c0-0.3,3.3-7,7.4-14.8
		c4.1-7.7,8.4-16.2,9.5-18.9C451,446,451.6,443.9,451.2,444z M255.4,491.4l-5.9-5.3l-1.8,6.2c-3.4,11.7-12.8,35.2-19.8,49.4
		c-10.6,21.3-21.6,37.8-38.1,56.6c-4.4,5-10.9,13.6-14.4,19.1c-3.6,5.5-7.8,11.9-9.4,14.2c-1.6,2.4-2.5,4.3-2,4.3
		c0.4,0,3.4-0.9,6.6-2c3.2-1.1,8.6-2.4,11.9-3c11.7-1.8,37.2-4.9,49.6-6c23-2,32.6-4.4,49.3-12.3c8.5-4,10.9-5.5,11.4-7.5
		c1.2-5-0.6-18.1-3.4-24.5c-3.6-8.4-3.6-13.2,0.2-18.1c6.6-8.7,11.2-10.9,37.5-18.1c7.6-2,10.1-3.2,12.4-5.7
		c2.8-3.1,2.9-3.3,2.3-11.2c-0.7-9.7-3.6-19.4-7.6-25.8l-3-4.7l-7.3,2.5c-24,8.2-41.9,8.3-56.9,0.3
		C263.8,498.1,258.6,494.3,255.4,491.4z M483,520.5c-13.2,1.3-35.6,4.6-36.6,5.5c-0.7,0.6-2.5,0.9-4,0.7c-3.1-0.3-3.5,0.1-15.2,17
		c-4.7,6.7-13.4,16.1-33.1,35.4c-31.4,30.9-50.1,51.1-47.7,51.6c2.7,0.6,29.5-6.4,56.4-14.7c34.2-10.5,40.6-12.4,54.2-16
		c27.6-7.3,56.2-12.5,75.5-13.7c11.6-0.7,16.1-1.8,17.5-4.4c1.2-2.3,1.2-29.6,0.1-39.9c-0.6-4.6-1.6-8.3-2.8-10
		c-2.5-3.4-10.3-7.6-17.9-9.6C523.5,520.8,493.3,519.6,483,520.5z M417,529.9c-4.7,1.6-11,3.2-14,3.5c-5.3,0.6-5.6,0.8-9.4,6.1
		c-4.2,6.2-5.4,6.5-3.1,1.1c1.9-4.6,1.9-4.7-0.6-4.7c-3.6,0-70.5,15.2-81.9,18.6c-6.5,1.9-12.3,7.2-13.8,12.7
		c-0.8,2.8-0.7,5.3,0.5,10.4c1,4.5,1.8,14.9,2.2,30.5c0.4,15.8,1,24.1,1.8,24.9s5.1,0.8,17.5-0.1l16.3-1.1l2.7-3.2
		c3.3-3.8,3.4-2.9,0.8,4.8c-1.1,3.2-2,7.1-2,8.7c0,2.3,1.1,0.8,5-6.9c7.4-14.4,15.9-24.2,43.3-50.1c13.6-12.9,27.4-26.3,30.7-30
		c6-6.5,20-26.4,20-28.3C433,525.1,429,525.8,417,529.9z M224,536.5c-0.6-0.6-77,73.1-82.4,79.4c-6.3,7.5-14.1,23.5-16,33.2
		c-4.3,21.8,1.6,44.3,15.6,59.3c8,8.5,14.5,11.7,25.4,12.3c8.4,0.5,46.4-2.6,47.9-3.9c1.7-1.6-7-2.2-19.3-1.3
		c-18.3,1.2-22.9,1-28.9-1.6c-6.9-3-13.3-10.1-15.5-17.2c-5.4-17-3.7-37.1,4.3-52.8c5.7-11.2,26.6-41.8,49.3-72
		c4.5-6.1,10.4-15.6,13.9-22.8C221.6,542.4,224.2,536.7,224,536.5z M547,591.2c-10.7,0-20.8,0.2-22.5,0.3
		c-30.8,3.5-45.3,6.7-99.7,21.8c-16.7,4.6-40.6,11.2-53.3,14.6c-12.6,3.3-24.2,6.6-25.7,7.1c-2.1,0.9-3.1,2.4-4.7,7.7
		c-7.1,23.6-6.9,36,0.7,42.4c3.8,3.2,16.5,8.2,24.5,9.7c20.6,3.8,30.9,19.3,31.1,46.8c0.1,6.2,0.3,11.3,0.6,11.2
		c0.3,0,6.7-8.3,14.4-18.5c22.7-30.3,63.2-82.2,72.3-92.6c25.8-29.7,46.7-43.1,77.3-49.6C565.4,591.4,561.9,591.1,547,591.2z
		 M228.6,629.5c-38.9,4.9-56,7.6-59.7,9.5c-11.4,5.8-17.6,20.6-16.6,39.9c0.9,16.4,6,26.9,15.2,31.1c5.1,2.3,10.3,2.4,23.9,0.2
		l10.7-1.7l1.1-4c5.9-23.4,18.5-44.8,39.2-66.2c5.3-5.6,9.7-10.4,9.7-10.8C252.1,626.6,249.8,626.8,228.6,629.5z M349.7,697.7
		c-0.7,1.2,5.9,7.4,11.9,11.1c6,3.8,18.9,17.8,21,22.8c5.1,12.2,1.2,28-10.5,42.8c-2.7,3.3-6,7.1-7.4,8.4c-3.6,3.4-3.3,4,1.7,2.9
		c6.6-1.4,12.4-4.6,16.1-8.9c4.3-5.1,9.3-17.7,10.8-27.5c3.5-22.2-7.7-44.3-25.3-50.3C361.7,696.9,350.7,696.1,349.7,697.7z
		 M200.5,722.6c-2.7,1.3-4.2,3.9-10.4,17.7c-4,8.8-7.4,16.6-7.6,17.1c-0.5,1.2,12.5,0.4,24.9-1.5c11.8-1.8,14.7-5.3,14.9-17.8
		c0.1-9.8-1.5-13.3-7.2-15.6C210.1,720.5,204.6,720.5,200.5,722.6z"/>
	<path d="M333.7,258.3c2.7,20.3,0.4,29.5-7.7,31.7c-9,2.5-14.9-1.2-18.8-11.5c-4.8-12.6-6.2-25.3-4.1-36.6c1.3-7.2,2.9-9.9,6.5-11.5
		C321.7,225.1,330.6,235.5,333.7,258.3z M310.6,236c-2.6,2.7-2.8,3.5-2.6,10.2c0.2,9,1.8,25.9,3,31.1c1.2,5,4.5,8.5,8.8,9.3
		c4.9,0.9,7.9-1.5,9.8-8c1.5-5,1.5-6.6,0-18.1c-1.8-13.5-4-20.3-8.3-24.8C317.9,232.1,314.3,232.2,310.6,236z"/>
	<path d="M208.6,342c4,8,3.2,13.3-3,19.3l-3.6,3.5l6.5,10.4c4.9,7.8,6.2,10.6,5.4,11.6c-0.9,1-3-0.5-10-7.5
		c-7.8-7.7-8.8-9.2-8.8-12.3c0-3,0.5-3.8,4.1-5.8c6.1-3.5,8.1-7.4,7.6-14.7c-0.3-3.3-0.8-6.8-1.2-7.8
		C204.1,335,206.2,337.3,208.6,342z"/>
	<path d="M281.6,401.7c0.6,1.8-2,4.5-7.7,8.1c-1.6,0.9-2.8,2.1-2.8,2.7s-1.3,2.9-2.9,5.1c-1.7,2.2-4.2,6.3-5.6,9.2
		c-1.6,3.1-3.3,5.2-4.2,5.2c-1.6,0-4.4-1.6-14.3-8.3c-3.7-2.6-5.7-3.2-11.5-3.4c-10.3-0.5-11.7-1-11.3-3.6c0.3-2.1,0.8-2.2,9.9-2.2
		c9.5,0,9.8,0.1,15,3.6c5.1,3.5,9.3,5.9,10.2,5.9c0.6,0,7.7-10.6,9.6-14.2c0.9-1.7,3.8-4.7,6.5-6.5
		C277.9,399.6,280.6,399.2,281.6,401.7z"/>
	<path d="M508.3,258.4c6.6,2.7,14.4,14.8,17.2,26.8c1.4,6,2.2,32.8,1,31.6c-0.3-0.3-1.9-8.6-3.6-18.4c-4.3-26-9.1-35-19.6-37
		c-5-0.9-9.8,1.3-14.7,6.7c-8.2,9.2-12.3,16.9-10.1,19.1c0.3,0.3,2.4,0.1,4.8-0.5c9.5-2.1,18.3,3.6,24.4,16.1
		c5.1,10.2,5.2,15.7,0.6,20.4c-3.7,3.7-5,3.4-2.8-0.8c3.5-6.8,0.6-16.9-7.4-25.6c-4.4-4.8-5.9-5.8-8.6-5.8c-1.8,0-4.3,0.8-5.4,1.8
		l-2.2,1.7l3,6.5c2.7,5.8,3,7,2,10.3c-0.9,3.5-8.5,12.4-9.6,11.3c-0.2-0.2,0.9-3.1,2.6-6.5c4.3-8.3,4.1-10.8-1.4-17.2
		c-4.6-5.4-6.9-10.7-5.8-13.7c2.2-6,15.9-23.4,20.7-26.3C497,256.7,503.7,256.4,508.3,258.4z"/>
	<path d="M177.1,273l3,2.1c3.5,2.6,4.2,4.2,7.9,18.5l2.9,11.1l-3.5,6.1c-1.9,3.4-3.8,6.2-4.2,6.2s-2.1-2.4-3.8-5.3
		c-3.2-5.3-4.6-10.6-6.3-23.7c-0.9-7.1-0.8-7.7,1.6-11.3L177.1,273z"/>
	<path d="M428.6,475.2c0.3,0.3,0.4,1.2,0.1,1.9c-0.3,0.8-0.6,0.5-0.6-0.6C428,475.4,428.3,474.8,428.6,475.2z"/>
	<path d="M513.9,47c4.3,0,8.7,20.6,7.7,36.2c-1.1,17.4-2,15.8-5.5-9.8c-1.8-13.2-3.4-24.5-3.6-25.2C512.2,47.5,512.9,47,513.9,47z"
		/>
	<path d="M498.9,67.6c-1.3,12.3-9.5,30-19.1,41.6c-3.9,4.7-10.4,9.5-11.5,8.5c-0.3-0.4,1.7-3.4,4.4-6.9
		c11.7-14.9,15.3-21.6,21.9-39.6c1.8-5.1,3.6-9.8,4-10.3C499.7,59.1,499.7,60.3,498.9,67.6z"/>
	<path d="M507.4,150.2c7.1,7.1,13.4,17.3,17.6,28.1c3,7.6,4.9,17.7,3.4,17.7c-0.5,0-2.4-3.9-4.3-8.8c-5.9-15.2-11.3-24.5-22.9-40
		C497.1,141.8,500.8,143.6,507.4,150.2z"/>
	<path d="M590.4,169.2c-1.4,4.8-12.9,26.3-18.6,35.1c-9.9,15.2-22.8,30.5-22.8,27.2c0-0.5,8.1-13.4,32.3-51.8
		C588.9,167.7,592,164.2,590.4,169.2z"/>
	<path d="M510.9,177.9c6.6,4.7,12.1,14.6,12.8,23.3c0.4,3.5,0.2,5.8-0.4,5.8c-0.8,0-13.1-24.6-15.2-30.3
		C507.9,176.1,509.1,176.7,510.9,177.9z"/>
	<path d="M544.5,341.1c0.6,0-0.1,0.9-1.5,2c-7.1,6-22.8,11-33.9,10.8c-8-0.1-8.2,0,15.4-7C535,343.8,544,341.2,544.5,341.1z"/>
	<path d="M321.6,652.7c-0.6,0.5-7.3,3.5-15,6.7c-12.2,5.1-15,5.9-22.1,6.3c-7.2,0.4-8.9,0.1-13.8-2.1c-7.1-3.3-7.4-5.2-0.3-2.5
		c7.3,2.8,13.9,2,32.2-4.2C316.4,652.3,323.9,650.7,321.6,652.7z"/>
	<path d="M323.2,659c0.4-0.1,1.2,0.5,1.8,1.3c0.9,1.1-1.5,3.3-12.1,11.3c-23.1,17.3-28.2,20.2-35.5,20.3c-5.7,0-9.4-3.3-12.3-11
		c-2.2-5.9-2-9.5,0.4-5.6c5.2,8.7,10.3,10.8,18.6,7.7c7.1-2.7,23.6-12.4,32-18.9C319.7,661.3,322.9,659,323.2,659z"/>
	<path d="M746.3,758.1c19.1,1.6,27.3,17.6,19,37.3l-3,7l-12.6,0.3c-7,0.1-12.7,0-12.7-0.4c0-0.3,2.3-3.4,5-6.9
		c8-10.1,10.5-17.4,8.1-23.8c-0.5-1.4-3-4.8-5.5-7.6c-2.5-2.9-4.6-5.4-4.6-5.8C740,757.9,742.8,757.9,746.3,758.1z"/>
</g>
</svg>
