<?xml version="1.0" encoding="utf-8"?>
<!-- Generator: Adobe Illustrator 21.0.0, SVG Export Plug-In . SVG Version: 6.00 Build 0)  -->
<svg version="1.1" baseProfile="tiny"
	 id="svg2" inkscape:version="0.91 r13725" sodipodi:docname="UNADJUSTEDNONRAW_thumb_9c6.svg" xmlns:cc="http://creativecommons.org/ns#" xmlns:dc="http://purl.org/dc/elements/1.1/" xmlns:inkscape="http://www.inkscape.org/namespaces/inkscape" xmlns:rdf="http://www.w3.org/1999/02/22-rdf-syntax-ns#" xmlns:sodipodi="http://sodipodi.sourceforge.net/DTD/sodipodi-0.dtd" xmlns:svg="http://www.w3.org/2000/svg"
	 xmlns="http://www.w3.org/2000/svg" xmlns:xlink="http://www.w3.org/1999/xlink" x="0px" y="0px" viewBox="0 0 850 850"
	 xml:space="preserve">
<sodipodi:namedview  bordercolor="#666666" borderopacity="1" gridtolerance="10" guidetolerance="10" id="namedview234" inkscape:current-layer="svg2" inkscape:cx="620.66059" inkscape:cy="230.94593" inkscape:pageopacity="0" inkscape:pageshadow="2" inkscape:window-height="817" inkscape:window-maximized="1" inkscape:window-width="1440" inkscape:window-x="0" inkscape:window-y="1" inkscape:zoom="0.26074563" objecttolerance="10" pagecolor="#ffffff" showgrid="false">
	</sodipodi:namedview>
<g id="g6" transform="translate(0.000000,0.000000) scale(1.00000,1.00000)">
	<path id="path8" fill="#000066" d="M0,0h425h425v425v425H425H0V425V0z M667.5,65.7c-4.2,1.4-10.2,7.3-17.3,17.1
		c-12,16.5-17,22.7-20.4,24.9c-3.3,2.2-3.7,2.2-16.7,2.2c-7.4,0-18.9-0.2-25.8-0.4c-11.6-0.4-12.7-0.2-15.9,1.4
		c-4,2.1-8.4,6.8-10,10.7c-0.7,1.6-1.2,4.7-1.2,7.1c0,6.2,2.8,11.5,15.7,29.7c11.9,16.7,14,21.3,12.7,27.1c-0.4,1.8-4.1,12-8.1,22.7
		c-6,16-7.3,20.3-7.3,24.1c0,10.5,7.4,18.6,18,19.7c3.7,0.3,7.3-0.5,25.2-5.9c22.9-6.9,27.4-7.6,32.6-4.7
		c1.7,0.9,10.1,7.3,18.7,14.2c8.6,7,17.2,13.3,19,14.2c3.7,1.7,10,2,14.9,0.7c4.6-1.2,11-7.5,12.5-12.2c0.8-2.8,1.3-10,1.7-26
		c0.2-12.7,0.8-23.2,1.3-24.5c1.9-5.1,5.6-8.1,23.2-19.8c10.5-6.9,19-13.1,20.3-14.8c4.2-5.6,5.6-12.5,3.9-19
		c-1-3.6-5.9-9.5-9.3-11.2c-1.4-0.7-11.2-4.3-21.7-7.9c-10.5-3.7-20.6-7.6-22.2-8.6c-4.5-3-6.8-7.6-10.5-21.2
		c-1.7-6.6-4.3-15.8-5.6-20.3c-2.8-10.2-6-15-11.5-17.8C679.1,65,671.9,64.2,667.5,65.7z M378.8,90.6c-3.2,3.3-7.2,10.6-7.9,14.3
		c-0.5,2.8,1.7,2.3,2.6-0.6c1.2-3.6,6.1-8.7,9-9.4c2.9-0.7,10,1.6,13.4,4.5l2.9,2.4l-5.6,0.6c-17,1.7-35.4,10.5-53.4,25.6
		c-31.2,26.1-46.1,66.7-36,98.6c1.9,6.3,2.1,13.2,0.5,21.7c-1.4,7.1-3.1,11.5-5.9,15.2c-2.6,3.4-2.6,3.7,0.2,3.7
		c3.4,0,10.5-4.5,13.7-8.6l2.7-3.7l1.8,8c1,4.5,3.2,10.8,4.8,14.1c3.2,6.6,10.6,15.2,11.9,13.8c0.5-0.4-0.2-3.9-2.1-9
		c-1.6-4.5-2.7-8.4-2.5-8.5c0.7-0.7,6.3,8.6,8,13.4c1,2.7,1.9,7.7,2.1,11.1c0.2,3.3,0.6,6.3,0.7,6.6c1,1,5.8-2,9-5.6l3.6-4l1.6,2.9
		c1.9,3.5,6.4,7.6,9.1,8.2c3,0.7,6.6,8.4,5.9,12.4c-0.4,2.2-0.3,2.9,0.6,2.9c1.7,0,7.1-6.1,7.7-8.7c0.5-2.1,0.6-2.1,5.5,2.5
		c2.7,2.5,5.2,4.6,5.6,4.6c0.4,0,0,1.5-0.9,3.3c-1.2,2.3-2.2,3.3-3.5,3.3c-0.9,0-3,0.7-4.4,1.7c-2.1,1.2-2.7,2.2-2.7,4.1
		c0,2.2-0.6,2.7-4.3,4.6c-2.4,1.2-5.1,2.8-6.1,3.7c-0.9,0.8-3.4,2.1-5.6,2.9c-5.8,2.2-15.6,13-15.6,17.4c0,2-8.4,14-14.9,21.4
		c-2.3,2.7-6.4,6.4-9,8.3c-15.7,11.5-19.5,14.6-20.5,16.5c-1.1,2-0.7,3.4,3.5,16.2c5.1,15.3,5.5,18.6,3.3,26.5
		c-1.6,5.7-1.8,18-0.6,26.1c1.7,10.1,8.5,21.1,15.8,25.5c1.9,1.1,3,3.7,7.7,18c4.8,14.8,7.7,24.4,9.2,31.3c0.8,3.7,7.2,5.1,13.2,2.7
		c1-0.3,1.3,0.8,1.8,6.9c2.4,32.7,5.9,54.8,11,70.6c2.1,6.5,2.2,7.1,1.2,12.1s-0.9,5.9,1.6,15.9c1.4,5.9,3.7,14.4,5.1,18.8
		c1.4,4.6,2.4,8.3,2.2,8.4c-0.2,0.2-9.2,0.9-20.2,1.7c-42.8,3.2-78.6,8.6-107.9,16.7c-20.3,5.6-36.7,12.8-44.5,19.5
		c-4.2,3.5-7.4,9.3-7.4,13c0.1,6.2,6.7,14,16.6,19.6c55.8,31.1,233.1,42.7,360,23.4c59.7-9,96.5-23.7,100.6-39.8
		c1-4.2,0.2-7.7-2.8-12c-13.8-20-87.8-37.4-176.4-41.6c-10.7-0.5-22.1-1.2-25.2-1.5l-5.6-0.6l8.1-6.2c4.5-3.4,12.1-10,16.9-14.7
		c13.7-13,16-18.8,16.9-41.3c0.3-6.9,1.2-20.3,1.8-29.7c1.2-16.9,1.2-46.7-0.2-56.5c-0.3-2.6-0.2-4.6,0.5-6c0.7-1.3,0.9-3.7,0.5-7.7
		c-0.4-5.3-0.3-6.1,1.6-8.9c2.8-4.2,2.7-7.9-0.3-10.5c-1.3-1.2-2.7-3-3-4.1s-1.3-3.4-2.2-5.1c-1.5-3-1.5-3.4-0.3-7.6
		c1.9-6.5,1.7-8.3-1.6-12c-1.6-1.7-2.9-3.9-2.9-4.8c0-0.8-1.3-7.3-2.9-14.3c-1.6-6.9-2.9-13.2-2.9-13.9c0-0.8,3.1,1.6,7.7,6.1
		c4.2,4.2,9,8.3,10.6,9.3c3.6,2.2,10.9,3.8,13.7,3.2c2.2-0.6,8.4-8.4,11.5-14.6c1.7-3.2,2.4-3.9,5.6-4.7c3.3-0.9,4.1-1.7,7.6-7.1
		c2.2-3.3,5.1-7.6,6.7-9.6l2.8-3.6l-2-4.5c-1.1-2.5-3.1-6.1-4.4-8l-2.3-3.5l1.9-6.6c1-3.7,2.2-10.5,2.7-15.4l0.8-8.8l3.7-4l3.7-4
		v-6.5c0-5,0.4-7.3,1.7-9.8c2.7-5.1,0.4-11.2-4.1-11.2c-1.2,0-3-0.7-3.7-1.6c-0.8-0.9-2.3-1.7-3.3-1.9c-1.6-0.2-1.8-0.9-2.3-7.4
		c-0.5-7.4-3.2-15.2-5.3-16c-1.7-0.7-3.7,0.3-3.7,1.9c-0.1,0.7-0.1,3.9,0,7.1l0.2,5.8l-2.8-5c-2.9-5.1-5.6-7-8.5-5.9
		c-1.7,0.6-1.6,1.3,0.8,15.4c1.2,7.3,1.2,7.9-0.1,9.3c-1.3,1.5-1.3,2.2-0.3,7.2c0.6,3,1.2,11,1.2,17.6c0.1,11.4-0.1,12.3-2.1,16.7
		c-2.1,4.4-2.3,4.6-4.8,4.2c-3.3-0.5-5.6,1.4-6.8,5.7c-0.8,2.6-1.4,3.2-3.7,3.7c-1.6,0.2-3.5,0.1-4.4-0.4
		c-0.9-0.4-6.8-7.8-13.1-16.4c-13.4-18.2-16.3-21.5-19.7-23.2c-1.4-0.7-4.1-2.8-5.9-4.7c-3.5-3.5-4.7-4.4-14.9-10.5
		c-3.1-1.9-8-5.7-10.8-8.5c-3.7-3.7-6.6-5.8-10.6-7.6c-3.2-1.3-5.6-2.9-5.6-3.4c0-0.6,2.5-1.2,6.5-1.5c23.2-2,42.6-8.1,50.1-15.6
		c1.8-1.8,3.4-3.2,3.6-3c0.1,0.2,0.8,1.7,1.5,3.3c0.7,1.7,1.7,3.2,2.1,3.2c0.4,0,1-2.8,1.3-6.3c0.5-6.6,2-12.8,3-12.8
		c0.3,0,1.2,0.9,2,2.1c3.2,4.9,13.4,9.7,11.7,5.6c-0.9-2.3-2.9-12-2.9-14.3c0-1.2,0.9-4.7,2-7.9c1-3.2,2.7-9.3,3.8-13.5
		c2.5-9.9,3.6-9,4,3.2c0.4,10.5,1.1,11.3,5,5.1c6.3-9.8,9.3-19.8,9.3-31.5c0-4.2,0.2-7.6,0.3-7.6s1.9,0.9,3.9,2
		c4.1,2.2,9.7,3.4,12.4,2.6c2.4-0.7,2.1-1.6-1.7-4.2c-5-3.2-10.5-8.5-13.4-12.7c-1.7-2.6-3.1-6.3-4.6-12.9
		c-6-26.7-21.7-54.7-40.9-73.1c-18.1-17.2-38.6-26.5-61.1-27.6l-9.1-0.5l-2.4-4.5c-2.9-5.6-8.5-10.5-13.5-12.2
		C393,81.8,385.9,83.3,378.8,90.6z M176.3,96c-4.6,2.2-5.3,4.6-5.3,17.3c0,8.3-0.3,12-1.2,13.6c-0.7,1.3-4.9,4.9-9.9,8.3
		c-4.7,3.2-9.5,6.9-10.4,8.1c-3.3,4.2-1.7,12.4,3.1,14.8c1.2,0.6,6.3,2.3,11.3,3.9c11.6,3.5,12.8,4.6,15.9,15.4
		c3.1,11.1,4.4,14.1,6.9,16c2.5,2,9,2.2,11.5,0.4c1-0.7,4.7-5.2,8.2-10c3.6-4.8,7.5-9.3,8.7-10c1.8-0.9,4.7-1.1,13.4-0.7
		c12.8,0.6,15.7-0.3,18.4-5.8c2.2-4.6,1.3-7.4-6.1-17.5c-8-11-8.1-11.7-3.3-24.6c1.8-5,3.3-10.3,3.3-11.8c0-3.8-3.1-8.1-6.8-9.5
		c-2.9-1.2-3.7-1-14.4,2.3c-7.7,2.4-12.1,3.3-13.8,3c-1.4-0.2-5.6-2.9-9.3-5.8c-3.7-2.9-8.1-6.1-9.6-7.1
		C183.4,94.3,179.9,94.2,176.3,96z M241.2,245.8c-0.1,0-0.7,0.2-1.3,0.5s-3.9,3.2-7.1,6.6l-6,6.2l-9.5-0.6c-9-0.6-9.6-0.5-11.3,1.2
		c-2.8,2.8-2.2,6.7,2,14c2.1,3.5,3.7,6.9,3.7,7.6s-1.5,4.5-3.3,8.5c-3.7,8.1-3.8,10.4-0.2,13.2c2.5,2,4.7,2,11.5,0.4
		c8.3-2,9-1.8,15.2,4c6.3,5.9,9,7.1,12.5,5.2c2.9-1.5,4-4.2,4.6-11.5c0.7-7.7,1.6-9.2,7.1-12.2c7.8-4.2,9.9-6.2,9.9-10
		c0-3.9-2.7-6.5-9.2-8.8c-6.7-2.4-8.5-4.6-9.8-12c-1.4-7.9-2.7-10.4-6-11.5C242.5,246.1,241.3,245.7,241.2,245.8z M608.7,308
		c-5.4,0-6.4,1.8-6.7,12c-0.3,9.4-0.6,9.8-6.8,14c-6.7,4.5-8.3,6.4-8.3,9.8c0,4.3,2.2,6.1,10.5,8.6c8,2.5,8.6,3.2,10.7,11.6
		c1.7,6.7,4.6,10.4,8.4,10.4c3.2,0,4.1-0.7,8.9-7.1c5.5-7.4,6.7-8.1,14.9-7.4c4.9,0.3,7,0.2,8.9-0.8c5.4-2.8,5.3-7.1-0.4-14.9
		c-5.1-6.8-5.3-8-2.7-15.4c2.7-7.6,2.8-10.7,0.6-13.1c-2.7-2.8-4.9-2.9-12-0.7c-3.7,1.2-7.6,2.2-8.6,2.2c-1.2,0-4.5-1.9-8-4.6
		C613.1,308.7,611.5,308,608.7,308z M94.6,382.9c0,2.4,1.2,14.2,2.5,26.3c1.3,12.1,2.4,24.6,2.4,27.8c-0.1,11.1-1.6,13.1-24.4,32.6
		C53.5,488.3,50.4,491.2,48,496c-2.4,4.6-3,13.9-1.2,19.3c1.7,5.3,7.6,11.9,12.5,14.3c2,1,15.8,4.3,30.6,7.5
		c14.9,3.2,28.1,6.3,29.6,7.1c7.8,4.1,9.5,6.9,22.9,39.3c10,24.2,12,27.5,19.7,31.1c8.7,4.2,18.6,3.5,26.1-2
		c4.5-3.2,8.9-9.7,21.6-32.4c11.5-20.5,16.7-26.9,23-28.9c1.8-0.6,10.2-1.6,18.7-2.3c36.1-2.9,40.3-3.4,44.5-5.2
		c5.1-2.3,9.8-6.8,12.6-12.1c1.9-3.6,2.2-5.1,2.2-11.6c0-6.6-0.2-7.9-2.2-11.3c-1.2-2.2-10.5-12.9-20.5-24
		c-10.9-11.9-19-21.6-20.2-23.9c-3.1-6.4-2.5-11.5,4.2-39.7c7-29.1,7.3-32.9,3.7-40.6c-3.9-8.2-11.3-13.4-20.5-14.3
		c-2.5-0.2-6.1-0.1-8.1,0.4c-3.4,0.9-20.5,8.4-42.5,18.7c-11,5.1-17.8,6-24.9,3.3c-2.2-0.9-13.9-7.6-25.7-14.8
		c-11.9-7.3-23.4-13.9-25.7-14.7C112,353.5,94.6,365.7,94.6,382.9z M677.6,407.8c-4.6,1.7-9.9,6-14.5,11.9c-33,41.7-33,41.7-39.4,44
		c-4.5,1.6-15.7,1.4-40.8-0.6c-18.7-1.5-22.7-1.6-26.9-0.7c-15.4,3.3-24.7,20.7-18.6,35.1c0.6,1.6,7.8,12.9,15.9,25.1
		c8.1,12.3,15.6,24.4,16.7,27c3.6,8.8,3.3,9.8-11,44.8c-9,21.9-9,22-9,29.1c-0.1,8.5,1.7,12.9,7,18.3c5.1,5.1,10.7,7.5,17.8,7.5
		c4.8,0,10.3-1.2,31.1-7.1c27.9-7.8,32-8.5,37.9-7.1c5.2,1.2,8.6,3.8,31.1,22.8c11.3,9.5,20.3,16.4,23.1,17.7
		c5.6,2.7,13.4,3,19.8,0.8c5.3-1.8,12-7.6,14.3-12.5c2.7-5.6,3.2-10.7,4.2-38.1c0.7-18.3,1.2-26.6,2.2-29.8c2-6.6,7.3-11.2,27.7-24
		c27.5-17.1,29.6-18.6,32.9-23.6c7.5-11.3,4.8-26.8-6-35c-2.3-1.7-11.6-5.6-27.4-11.5c-13.2-4.9-25.7-9.6-27.9-10.6
		c-4.8-2.2-10-7.4-12.2-12.3c-0.9-2.1-4.1-13.4-7.1-25.4c-7.9-31.4-8.9-34.3-13.6-39.2c-2.7-2.7-5.5-4.6-8.7-5.8
		C690.8,406.5,682.1,406.2,677.6,407.8z M303.2,586.9c-5.4,0-6.4,1.8-6.7,12c-0.3,9.4-0.6,9.8-6.8,14c-6.7,4.5-8.3,6.4-8.3,9.8
		c0,4.3,2.2,6.1,10.5,8.6c8,2.5,8.6,3.2,10.7,11.6c1.7,6.7,4.6,10.4,8.4,10.4c3.2,0,4.1-0.7,8.9-7.1c5.5-7.4,6.7-8.1,14.9-7.4
		c4.9,0.3,7,0.2,8.9-0.8c5.4-2.8,5.3-7.1-0.4-14.9c-5.1-6.8-5.3-8-2.7-15.4c2.7-7.6,2.8-10.7,0.6-13.1c-2.7-2.8-4.9-2.9-12-0.7
		c-3.7,1.2-7.6,2.2-8.6,2.2c-1.2,0-4.5-1.9-8-4.6C307.6,587.6,306,586.9,303.2,586.9z"/>
	<path id="path10" fill="#6699FF" d="M684.1,70.2c5,3.5,6.6,6.9,11,23.6c6.1,22.8,6.8,25.1,9.4,29.1c1.3,2.1,3.8,4.6,5.4,5.6
		c1.7,1,11.6,4.8,22.2,8.4c10.5,3.7,20.2,7.1,21.5,7.8c2.8,1.5,7.4,6.6,8.5,9.5c1.4,3.7,1,10.4-0.8,14c-2.2,4.5-5.8,7.3-21.6,17.6
		c-26.8,17.3-25.2,14.6-25.8,45.7l-0.4,22.8l-2.5,5c-3.4,6.8-8.4,10-15.7,10c-3-0.1-6.1-0.6-7.6-1.4c-1.3-0.7-9.8-7.1-18.7-14.3
		c-17.4-13.9-20-15.5-25.7-16.1c-4.3-0.4-8.1,0.5-28.6,7c-17.8,5.6-24.2,6.4-29.2,3.7c-6.8-3.4-10.9-10.9-9.9-18.1
		c0.2-1.8,3.8-12.4,8-23.4c8-21.2,8.5-24.2,6.2-30.7c-0.7-1.9-6.2-10.6-12.4-19.4c-6.1-8.8-11.9-17.3-12.8-18.8
		c-3.9-6.8-3-14.4,2.4-20.3c5.9-6.4,7.2-6.6,33-5.4c24.2,1.1,26.4,0.8,32-2.9c1.8-1.3,8.6-9.5,16.7-20.3
		C659.8,74,662.9,70.5,665.9,69C671.2,66.2,679.3,66.8,684.1,70.2z"/>
	<path id="path12" fill="#003333" d="M414.5,97c2.5,4,4.2,11,3.6,15.6c-0.2,2.7-0.2,3.5,0.5,2.8c0.5-0.5,1.1-3.2,1.2-5.9l0.3-5h6.8
		c19.4,0,40.3,8.5,57.9,23.7c14.9,12.9,30.8,36.9,38.8,58.6c1.4,3.9,3.6,11.4,4.7,16.6c2.4,10.9,4,13.7,12.1,21.6
		c3.2,3.2,5.3,5.6,4.6,5.6c-2.2-0.1-8.6-3.5-11.2-6c-1.5-1.5-3-2.4-3.2-2.1c-0.2,0.2-0.1,2.9,0.4,5.8c0.5,2.9,0.9,6.7,0.9,8.5
		c-0.1,7.1-3.8,20.1-7.6,26.1l-1.8,2.9L522,260c-0.3-3.3-1.3-7.6-2.2-9.5c-1.4-3.2-1.5-4.1-0.5-9.7c0.7-3.4,1.3-11.1,1.5-17
		l0.4-10.8l-1.2,9.5c-2.2,17.5-5.3,32.1-10,47.9c-2.6,8.5-2.7,9.7-2,14.5c0.4,2.9,1,5.9,1.2,6.6c1.5,4.8-7-2.7-9.4-8.2
		c-1.2-2.8-1.1-3.1,1.7-7.3c3.5-5.1,8.3-14.5,7.8-15c-0.2-0.2-1.4,1.4-2.7,3.6c-4.3,7.6-20.1,29-20.8,28.3c-0.2-0.2,0.7-3.2,1.7-6.6
		c4.7-14.9,7.1-45.8,5.5-69.1c-1.2-16.9-2.7-23.1-2-8.7l0.5,10.4l-3.2-2.8c-3.3-2.8-10.6-6.7-12.9-6.7c-0.7,0-1.9-1.7-2.8-4
		c-0.8-2.2-3.1-6.7-5.1-10.1c-2.7-4.7-3.7-7.5-4.1-11.6c-0.3-3-1.2-7.8-1.8-10.8c-3.3-14.4-4.3-15.6-1.9-2.1
		c2.4,13.5,3,35.4,1.2,49.1c-3.4,26.6-9.3,42.8-20.1,55l-3.9,4.5l-1.5-4.9c-1.9-6.1-1.9-6.3,0-5.3c0.8,0.5,1.7,0.7,2,0.4
		s-1.7-4.8-4.3-10.1c-2.7-5.3-6.2-13.3-7.9-17.6c-4.3-11.1-4.6-11.7-4.1-8.3c0.7,4,4.7,15.4,8.2,23.1c2.5,5.6,2.7,6.1,0.8,3.9
		c-5.6-6.8-12.9-22-18.7-38.9c-1.9-5.4-3.4-10-3.4-10.1s2.3-0.3,5.1-0.3c6.3,0,5.6-1.2-1.3-2.2l-4.9-0.7l-1.9-6.6
		c-1.2-4.2-2-9-2-12.9c-0.2-10.8-1.8-3.6-2.3,9.7c-0.3,10.8-0.5,11.9-1.9,11.9c-1.1,0-1.7-1-2.5-3.5c-3.2-11.7-6.1-34.2-7.1-52.9
		c-0.4-8-0.8-10.6-1.4-9.5c-0.5,0.9-0.7,7.6-0.2,18.2c0.4,13.2,0.2,18-0.7,22.5c-5.7,27.1-6.6,52.9-2.6,68.7
		c0.7,2.7,1.2,5.1,0.9,5.2c-0.7,0.7-10.1-12.9-13.8-20.1c-4.9-9.6-7-17.7-7-27.4c0-4.2-0.2-6.5-0.6-5.4c-1.1,3.9-0.7,15.3,0.6,20.7
		c0.7,3,3,9,4.9,13.4c2.9,6.3,3.9,9.7,4.9,17c2.4,17.4,6.9,29.1,14.6,38.4c2.4,2.8,4,5.1,3.5,5.1c-1.3,0-15.1-9-22-14.4
		c-12.4-9.7-18-16.6-24.7-29.9c-4.2-8.4-5.4-10.3-6.3-9.4c-0.2,0.2,2.4,6.1,5.9,13.1c3.4,7,6.2,13.4,6.2,14.2c0,0.7,0.4,1.7,0.8,1.9
		c0.6,0.3,0.7-0.2,0.4-1.8l-0.5-2.3l2.1,2.5l2.1,2.4l-2.7,0.9c-3.7,1.2-4.9,3.9-4.3,10.4c0.6,6.1-0.5,8.4-5.5,12.1l-2.8,2.1
		l-0.5-6.1c-0.8-10.2-4.1-17.6-11.1-25.4c-5.4-5.9-5.8-4.3-2.2,7.4c2.2,7.1,2.3,7.6,0.7,5.8c-4.1-5-8-14.7-10.5-26.6
		c-0.8-3.8-1.8-7.1-2.3-7.2c-0.4-0.1-1.8,1.7-3.2,4.2c-2.2,3.9-8.5,9.7-10.5,9.7c-0.4,0-0.2-1,0.4-2.3c3.5-6.8,6.4-25,5.6-35.3
		c-0.3-5-1.5-6.4-2-2.5c-0.2,1.8-0.6,1.2-1.5-2.7c-0.8-3.3-1.2-9-1.2-17c0.1-10.3,0.4-13.2,2.3-20.3c2.7-10,8.7-23,14.8-31.7
		c8.4-12.3,24.8-27.1,39.8-36c11-6.6,25.4-11.3,35.5-11.7c5.9-0.2,6.2,0,11.5,9.2c3.7,6.3,3.5,3.1-0.2-4.4
		c-5-10-15.1-16.9-24.1-16.1c-4.1,0.2-4.5,0-2.2-1.8c3.7-3.1,4.5-3.6,7.4-4.6C397.4,83.4,408.8,88,414.5,97z M360.5,130.2
		c-11.4,9.1-21.1,24.7-24.4,39.4c-0.5,2.7-1.2,4.7-1.5,4.7s-1-0.7-1.6-1.7c-3-4.8-11.3-4.6-14.3,0.3c-3.5,5.6-1.2,12.8,4.6,14.7
		c2.5,0.8,3.4,0.7,6.1-0.6l3.2-1.6V200c0,13.6,1.2,25.1,2.9,29.7c1.4,3.6,1.4,1.7,0.2-8.1c-0.6-5.2-1.1-15-1.2-21.7v-12.1l2.6,1.2
		c4.6,2.3,9-1.7,7.8-7.3c-0.7-3.1-2.5-4.4-5.9-4.3c-1.6,0.1-2.8-0.2-2.8-0.4c0-0.3,0.9-4,2.1-8.2c4-14.9,10.6-26.3,20.8-35.9
		C366.1,126.3,366.6,125.3,360.5,130.2z M479.9,133.1c-2.5-0.3-3.4,0-4.9,1.6c-5,5.3,1.2,16.2,9.5,16.8c2.6,0.2,3.4-0.2,4.6-1.9
		c0.8-1.2,1.5-3.2,1.5-4.6c0-2.9-2.7-7.9-5.5-10C483.9,134.1,481.6,133.3,479.9,133.1z M420,141.1l-2.5-2.9l2.2,3.3
		c7,10.7,16.1,34.1,21.5,55.2c4.3,16.7,5.5,34.7,3.4,50.4c-0.7,5.6-1.6,10.8-1.8,11.6c-0.4,1.4-0.4,1.4,0.7,0
		c2.4-2.9,3.5-11.4,3.5-28c-0.1-17.9-0.8-23.4-5.9-40.9c-4-13.5-9.6-28.3-14.5-37.9C424.3,147.6,421.4,142.7,420,141.1z
		 M462.8,146.2c-3.7,2.8-2.8,8.5,1.5,10.3c6.6,2.7,11.8-5,6.7-10C468.6,144,465.8,143.9,462.8,146.2z M449.9,154.4
		c-3.2,3.2-1.2,9.1,3.1,9.1c3.9,0,6-6.6,2.9-9.4C453.8,152.3,451.9,152.4,449.9,154.4z M490.5,155.2c-2.2-2.7-2.2-2.4,0.6,2
		c6.2,10,10.6,21.7,15.2,40.1c4.2,16.6,5.3,26.1,4.9,42.4c-0.3,14.9,0.3,16.7,1.9,5.4c2.8-19.8-5.1-58.4-16.4-79.9
		C494.6,161.3,491.8,156.8,490.5,155.2z M345.7,185.3c-0.8,3.2,2.8,6.9,6.1,6.1c4.2-1,5.9-6.2,2.8-9
		C351.5,179.5,346.7,181.1,345.7,185.3z"/>
	<path id="path14" fill="#669933" d="M325.9,171c3.1,0,7,4.2,7,7.5c0,3.2-3.9,7.5-7,7.5c-1.2,0-3.1-0.9-4.4-2
		c-1.8-1.6-2.3-2.7-2.3-5.5c0-2.8,0.5-3.9,2.3-5.5C322.8,171.9,324.7,171,325.9,171z"/>
	<path id="path16" fill="#669933" d="M342.8,183.4c0,1.2-0.4,2.6-1,3.2c-2.9,2.9-6.8-1.2-5-5.2C338.5,177.7,342.8,179.2,342.8,183.4
		z"/>
	<path id="path18" fill="#669933" d="M479,135.3c5.7,0,11.4,8,8.6,12.1c-1.8,2.8-4.8,2.6-8.3-0.7c-3.2-3-4.6-6.7-3.7-9.5
		C476.2,135.8,477,135.3,479,135.3z"/>
	<path id="path20" fill="#669933" d="M470.2,148.9c2.4,3.6-1.5,7.6-5.3,5.6c-2.4-1.3-3-4.1-1.2-6
		C465.7,146.3,468.7,146.5,470.2,148.9z"/>
	<path id="path22" fill="#669933" d="M454.9,156.5c1.3,1.6,0.2,4.6-1.6,4.6c-2.4,0-3.7-2.1-2.6-4.1
		C451.8,154.9,453.5,154.7,454.9,156.5z"/>
	<path id="path24" fill="#669933" d="M352.8,183.8c1.3,1.7,0.7,5-1.1,5.3c-3.3,0.7-5.3-3.9-2.4-5.6
		C351.2,182.4,351.6,182.5,352.8,183.8z"/>
	<path id="path26" fill="#CCCCCC" d="M392.7,198c2.7,13.3,2.8,12.7-2.7,14.9l-4.8,2v-1.8c0-2.5,2.2-18.2,3.5-24.2
		C389.8,183,389.7,182.9,392.7,198z"/>
	<path id="path28" fill="#CCCCCC" d="M465.3,195.1c0.5,0,6.1,12,6.1,13c0,0.4-1.5,1.2-3.3,1.7l-3.3,0.8v-7.7
		C464.8,198.6,465.1,195.1,465.3,195.1z"/>
	<path id="path30" fill="#336600" d="M403.3,203.8c1.3,1.2,2.2,5.4,1.1,5.4c-0.5,0-0.9-0.7-0.9-1.6c0-0.9-0.2-2.3-0.5-3.2
		C402.5,203.5,402.6,203.2,403.3,203.8z"/>
	<path id="path32" fill="#336600" d="M408,218.1c1.3,4.1,3.7,10.6,5.5,14.7c1.7,4.2,3.1,7.6,2.9,7.7c-0.7,0.8-5.5-2.7-6.1-4.6
		c-3.4-9-4.5-12.5-5.6-17.7c-0.7-3.2-1.1-6.2-0.7-6.6C404.9,209.8,405.7,211.2,408,218.1z"/>
	<path id="path34" fill="#CCCCCC" d="M472.9,211.8c1.2,1.6,3.3,8.4,5.1,16.8l1.7,7.4l-4.5,4.2c-5.4,5.1-7.6,11.2-6.6,18.3
		c0.6,4.6,1.4,6.4,4.8,10.5l2.3,2.7l6.6-0.5l6.6-0.4l-0.5,3.4c-1,6.1-4.4,17.1-7.1,22.3c-3.5,7-2.1,7.9,3,1.9
		c4.2-4.9,6.6-5.2,4.2-0.6c-4,7.7-19.2,13.9-42,17.3c-11.8,1.7-31.8,1.2-39.4-0.9c-7.9-2.2-18.8-7.6-19.3-9.5c-0.5-2-0.2-2-3.5-0.3
		c-2.4,1.2-3.9,1.2-12.2,0.5c-5.9-0.6-10.2-1.4-11.5-2.2c-4.3-2.8-8.8-12-8.8-17.8c0-6.8,5.3-6.5,14.3,0.7
		c12.5,9.9,33.3,22.4,35.9,21.4c0.7-0.3-1.7-3.2-6.6-8.2c-11.7-12-16.4-22.7-19.1-43.8l-0.5-3.7l2.5,2.9c1.4,1.6,3.2,4.6,4.2,6.6
		c0.9,2.1,2.7,4.7,3.9,6.1l2.2,2.2l-2.8-0.6c-4.6-0.9-1.7,1.7,3.8,3.5c5.7,1.7,19.6,1.4,24.8-0.7c3.6-1.4,3.7-1.4-5,0l-3.3,0.5
		l2.8-2.2c5.1-3.8,6.7-7.1,7.6-14.7c0.5-5.6,0.4-7.2-0.5-8.3c-1.7-1.8-1.4-3.2,0.5-2.7c0.9,0.2,2.9,2.8,4.6,6c1.7,3,4.1,7,5.3,8.8
		c3.3,5,7.7,16.9,7.6,20.9c0,2,0.3,3.6,0.7,3.6c1.8,0,8.8-7.6,13.3-14.3c7.6-11.7,11.8-24.3,14.7-45.4l1.4-10.3l2.9-1.1
		C471.2,210.7,472,210.6,472.9,211.8z M464.8,276.8c-1-0.7-2,1.7-1.2,2.9c0.8,1.4,2.1,0.9,2.1-0.7
		C465.7,278.1,465.3,277.1,464.8,276.8z M354.7,287.4c0.3,1.7,0.3,1.7,0.5-0.4c0.1-2.4,1.5-2.9,4.2-1.4c1.2,0.7,1.5,1.4,1.1,3.7
		c-0.3,1.9-0.2,2.9,0.5,2.9c0.5,0,0.9-0.7,0.9-1.5c0-0.8,0.2-1.8,0.6-2.1c0.7-0.7,4.4,2.7,4.4,3.9c0,0.4,1,1.9,2.2,3.2
		c2.6,2.7,1.7,2.9-3.1,1c-1.9-0.7-3.7-1.2-3.9-0.8c-1.7,1.7,5.1,3.8,11.6,3.7c2.6-0.1,4.7-0.2,4.7-0.3s-2-1.4-4.4-2.7
		c-2.9-1.7-4.8-3.4-5.5-5c-0.6-1.3-2.7-3.7-4.6-5.1C357.5,281.8,353.7,282.2,354.7,287.4z M452.8,295.3c-3.3,0.7-7.8,1-13.4,0.7
		c-4.7-0.2-8.5-0.1-8.5,0.3c0,1.4,3.7,2,12,1.8c8.9-0.1,17.1-1.6,17.7-3.3C460.9,293.6,459.4,293.7,452.8,295.3z"/>
	<path id="path36" fill="#336600" d="M399.9,211.7c1.2,0,1.7,1.4,2.8,7.2c0.7,4,1.2,7.4,1.1,7.6c-0.3,0.3-5.4-12.7-5.4-13.9
		C398.4,212.1,399.1,211.7,399.9,211.7z"/>
	<path id="path38" fill="#336600" d="M476.8,211.7c2,0,8.9,3.7,12.1,6.3l2.7,2.3l-0.3,7.1c-0.2,5.4-1.1,9.2-3.4,15.8
		c-1.7,4.8-3.4,9-3.8,9.5c-0.5,0.5-1-1.4-1.3-4.9c-1.4-15.7-3.5-26.3-6.6-34.6C475.6,212.1,475.9,211.7,476.8,211.7z"/>
	<path id="path40" fill="#CCCCCC" d="M395.4,212.8c0.3,0.1,1.7,2.9,3,6.3c1.2,3.4,3.4,8.6,4.8,11.5c1.5,2.8,2.7,5.5,2.7,5.8
		c0,0.2-2.4,0.6-5.4,0.7c-3.8,0.1-6.8,0.7-10,2.2c-2.6,1.2-5,2.2-5.4,2.2c-0.8,0-1-20.9-0.2-23.8c0.3-1.3,1.8-2.3,5.2-3.5
		C392.6,213.4,395,212.7,395.4,212.8z"/>
	<path id="path42" fill="none" d="M491.4,242.9c0,1.2-0.3,1.9-0.7,1.7s-0.6-1.2-0.3-2.2C490.9,240.1,491.4,240.3,491.4,242.9z"/>
	<path id="path44" fill="#0033FF" d="M412.5,245.4c2.4,3.1,2.2,3.7-1.1,3.7c-4.2,0-5.5,0.7-5.5,3.3c0,2.9,1.8,4.4,5.5,4.5
		c2.7,0.1,2.8,0.2,2.4,2.2c-2.2,8.8-12.9,14.1-20.8,10.3c-3.1-1.5-6.1-4.4-3.4-3.4c1.9,0.7,1.8-0.4-0.6-6.4
		c-3.3-8.2-3.2-9.4,1.2-11.9c2-1.2,5.9-2.6,8.7-3.2C407.2,242.6,410.5,242.9,412.5,245.4z M398.2,247.4c-3.9,0-6,2.5-6,7.2
		c0,3.1,0.4,4.1,2.3,5.7c3,2.6,5.6,2.5,8.4-0.2c2.9-3,3-7.9,0.1-10.7C401.7,248,400.1,247.4,398.2,247.4z"/>
	<path id="path46" fill="#0033FF" d="M479.8,245.2c0,0.6-0.7,1.3-1.6,1.6c-2,0.5-5.1,5.2-5.1,7.8c0,2.2,1.7,6.1,2.6,6.1
		c0.3,0,1.2,0.6,2,1.3c1.2,1.3,1.5,1.3,2.9-0.2c0.8-0.8,2.8-3.7,4.3-6.1c1.9-3.2,3.2-4.5,4.2-4.3c1.9,0.4,2,8.5,0.1,11.4
		c-3.4,5.2-11.7,7.1-15.1,3.5c-2.4-2.6-3.5-5.8-3.5-10.9c0-4.8,0.7-6.2,5-9.1C479,243.8,479.8,243.6,479.8,245.2z"/>
	<path id="path48" fill="none" d="M491.4,247.8c0,0.7-0.6,1.2-1.2,1.2c-1.3,0-1.7-1-0.7-1.9C490.4,246.1,491.4,246.4,491.4,247.8z"
		/>
	<path id="path50" fill="#6666FF" d="M413.4,251.9c1.3,1.6,0.4,2.9-2,2.9c-2.2,0-4.2-2-3.4-3.3C408.7,250.3,412.2,250.5,413.4,251.9
		z"/>
	<path id="path52" fill="none" d="M489.7,267.3c0,0.7-2.7,2.5-3.8,2.5c-0.3,0,0.1-0.7,0.9-1.7C488.4,266.4,489.7,266,489.7,267.3z"
		/>
	<path id="path54" fill="#336666" d="M497.1,283.6c0.2,0.2-0.3,1.7-1,3.6c-0.7,1.7-1.6,5.1-1.9,7.6c-0.6,4.6-1.4,4.6-2.7-0.2
		c-0.7-3.1-0.7-3.5,2.2-7.2C495.4,285,497,283.4,497.1,283.6z"/>
	<path id="path56" fill="#336600" d="M367.7,306.1l1.8,0.5c1.1,0.2,3,0.5,4.3,0.5c2.2,0,2.3,0.2,1.8,2.7c-0.9,4.7-4.6,8.7-4.6,5
		c0-0.7-0.7-3.1-1.7-5.1L367.7,306.1z"/>
	<path id="path58" fill="#336600" d="M381.8,307.1c1.4,0,2.5,0.3,2.5,0.7s0.2,2,0.5,3.5l0.6,2.8l-3.1-2.8c-1.7-1.6-3-3.2-3-3.6
		S380.5,307.1,381.8,307.1z"/>
	<path id="path60" fill="#336600" d="M392.6,311.1c3.2,1.7,5.8,3.5,5.8,4.1c0,0.6-1.4,1.2-3.3,1.6c-1.8,0.3-3.6,0.9-3.8,1.2
		c-0.2,0.4-0.7,0.7-1.2,0.7c-0.7,0-3.3-7-3.3-9.2C386.8,308.4,387.7,308.5,392.6,311.1z"/>
	<path id="path62" fill="#CCCCCC" d="M548.1,318.4c1.5,3.8,2.4,15.4,1.3,16.4c-0.2,0.2-1.7,0-3.2-0.6c-2.1-0.7-2.6-1.3-2.2-2.7
		c0.2-0.9,0.5-5.3,0.5-9.8C544.5,312.5,545.6,311.5,548.1,318.4z"/>
	<path id="path64" fill="#CCCCCC" d="M401.7,315c3.4,1.4,16.8,3.7,21.4,3.7h5.1l0.2,7.6c0.2,4.2,0.2,7.9,0.1,8.1s-1.2-0.3-2.3-1.1
		c-1.2-0.8-7.2-2.7-13.4-4.3c-13.1-3.4-14.7-4.1-13.9-6c0.3-0.7,0.8-3,1-5C400.3,315.2,400.6,314.6,401.7,315z"/>
	<path id="path66" fill="#CCCCCC" d="M540.9,330.4c0.6,4.1,0.7,3.7-4.8,6.5c-0.4,0.2-0.7-0.7-0.7-2.1c0-1.2-0.7-5.7-1.6-9.8
		c-0.8-4.2-1.4-7.7-1.2-8.1C534.2,314.3,540,323.7,540.9,330.4z"/>
	<path id="path68" fill="#0099FF" d="M397.6,319.9c0,1.7-1.4,2.4-1.9,1.2c-0.2-0.8-0.7-0.8-1.4-0.2c-1.6,1.6,0.5,4.4,4.6,6.2
		c2,0.9,8.2,2.7,13.9,4.2c8.5,2.1,15.6,4.9,15.6,6.1c0,0.2,0.2,1,0.5,1.8c0.5,1.4,0.5,1.4-0.7,0c-2.6-3.3-7.1,1.3-12.8,12.9
		c-1.3,2.7-2.7,4.8-3.2,4.8c-2.2,0-9.6-5.3-13.4-9.5c-5.5-6-11-14.4-11-16.6c0-3.7,1.8-8,4.2-10
		C394.6,318.6,397.6,318.1,397.6,319.9z"/>
	<path id="path70" fill="#0099FF" d="M437.4,326.3c7.2,3.8,10.7,7.8,12.5,14.5c2.7,9.8,2.3,10-4.4,3.2c-3.3-3.4-6.8-6.4-7.8-6.6
		c-2.3-0.6-5.3,1-5.3,2.7c0,0.7-0.2,1.2-0.4,0.9c-0.8-0.8,1.1-7.6,2.9-10c2.2-2.9,1.2-3-1.8-0.1c-2.1,2-2.3,2.1-2.3,0.6
		c0-0.8-0.2-3-0.5-4.7C429.6,322.9,430.9,322.7,437.4,326.3z"/>
	<path id="path72" fill="#6666FF" d="M383.9,328.7c1.8,0,2.1,0.3,2.1,2.8c0,3.6,3.1,8.1,16.5,24.2c20.2,24.2,39,44.2,40.6,43.2
		c1.3-0.8,4.3-9.3,5.7-16.3c0.7-3.8,1.2-10.9,1.2-18.2c0-11.1,0.1-11.9,1.3-10.5c2.2,2.2,1.8,24.3-0.5,33.1c-1.9,7-6.6,16.4-8.3,17
		c-1.5,0.5-15.9-14.2-26.3-26.8c-4.6-5.5-14.9-17.5-23-26.7c-8.1-9.3-14.8-17.2-14.8-17.7c0-0.4,0.7-1.6,1.7-2.5
		C381.1,329.5,382.7,328.7,383.9,328.7z"/>
	<path id="path74" fill="#CCCCCC" d="M544.4,336.2c2.2,0,6,3.4,6,5.4c0,1.5-2.7,1.7-5.1,0.3c-1.4-0.7-2-0.6-3.3,0.7
		c-1.7,1.7-1.7,1.7,0.6,2.7c3.3,1.7,5.1,4.6,6.7,10.6c1.2,5.1,1.2,8.2-0.1,12.3c-0.7,2.4,0.8,2.6,2.1,0.2c1.2-2.2,1.3-6.9,0.6-11.9
		c-0.6-3.3-0.5-3.9,0.7-3.9c0.7,0,2,0.6,2.7,1.3c0.9,0.8,2.2,1.2,3.7,0.8c1.8-0.3,2.3-0.1,2.7,1.4c1.3,5.1-0.2,10.2-3.9,12.1
		c-2.8,1.5-3.7,4.1-4.3,12.5c-0.3,3.8-1.2,9.6-2.1,12.9c-1.6,6.3-7.2,22-8.3,23.1c-0.3,0.4-2.2-0.1-4-1
		c-7.1-3.6-11.5-10.3-12.4-18.7c-0.4-4.1-0.2-4.6,2.6-8.5c6.3-8.9,7.4-13.9,6.3-30.2c-0.4-6.8-1.2-13.2-1.7-14.1
		c-1.2-2.2,0.7-4.5,5.5-6.6C541,336.9,543.3,336.2,544.4,336.2z"/>
	<path id="path76" fill="#CCCCCC" d="M555.5,337.6c3.1,2.8,0.7,13-3,12.5c-2.2-0.3-2.8-4.1-1-5.6c1.6-1.2,1.7-4.2,0.4-5.6
		c-0.5-0.5-0.7-1.3-0.4-1.8C552.3,335.8,553.7,335.9,555.5,337.6z"/>
	<path id="path78" fill="#6666FF" d="M377.4,337.1c0.6-0.1,7.6,7.5,15.8,16.8c16.9,19.4,26.6,31,23,27.9c-1.3-1.2-6.3-5.6-11.1-10
		c-16.5-14.9-33.6-28.1-36.2-28.1c-2.9,0,0.9-3.9,5.6-5.7C375.5,337.5,376.9,337.1,377.4,337.1z"/>
	<path id="path80" fill="#0066FF" d="M452.2,338.7c0.2,0,3.2,1.7,6.5,3.7c6.5,4.1,6.5,4.1,11.8,17.4c7.1,17.8,10,29.1,16.8,62.8
		c3.7,18.4,6.9,34.2,7.2,35.1c0.4,1.6,0.4,1.6-1.5-0.1c-2.6-2.3-5.6-3.8-6.5-3.3c-0.4,0.2-2.5-1.8-4.6-4.6
		c-4.5-5.7-4.5-4.4,0.2-16.9l2.5-6.6l-7.5-8.5l-7.6-8.5l2.7-9l2.7-9l-1.9-2.8c-1.1-1.5-4.5-5.4-7.7-8.6l-5.7-6l2.7-8.1l2.7-8.1
		l-5.6-5.1c-5-4.5-5.8-5.6-6.7-9.4C452.2,340.6,452,338.7,452.2,338.7z"/>
	<path id="path82" fill="#CC3300" d="M437.3,339.7c2.6,0.5,2.3,9-0.2,9c-0.9,0-1.2-1.1-1.2-4.6C435.8,340.1,436,339.4,437.3,339.7z"
		/>
	<path id="path84" fill="#CCCCCC" d="M562.6,340.8c2.3,1.6,2.4,4.8,0.2,8.4c-1.5,2.5-5.2,4.4-6.4,3.3c-0.2-0.3,0.3-2.4,1.3-4.6
		c0.9-2.2,1.7-5.1,1.7-6.2C559.5,339.2,560.1,339,562.6,340.8z"/>
	<path id="path86" fill="#CC3300" d="M431,346c1.5,2.4,1.5,2.5-0.5,2.8c-1.7,0.3-2.5-0.2-4.5-3.1c-1.7-2.5-2.2-3.8-1.6-4.5
		C425.5,340.2,429.1,342.7,431,346z"/>
	<path id="path88" fill="#6666FF" d="M441.5,342.8c0.4,0,1.7,1.3,3,2.9c1.6,2.2,2.5,4.6,3.1,9c0.9,6.6,0.4,24.4-0.8,25.6
		c-1.2,1.2-4.2-11-3.2-13.7c1.2-3.7,0.2-13.6-1.6-15.8c-1.1-1.2-1.5-2.8-1.3-5C440.8,344.2,441.2,342.8,441.5,342.8z"/>
	<path id="path90" fill="#996600" d="M399.9,370.5c29.4,25.6,84,81.7,84,86.2c0,1.6-2.7,8.1-3.2,8.1c-0.2,0-2.9-3.1-5.9-6.7
		c-13.5-16.9-35.2-39.5-62.7-65.3c-28-26.2-36.9-33.8-49.6-41.9c-4.8-3.1-5.2-4.2-1.9-5.5C366.8,342.7,372,346.1,399.9,370.5z"/>
	<path id="path92" fill="#6666FF" d="M421.8,344.1l1.8,2.2c1.5,1.7,2,3.7,2.4,8.5c0.7,7.1,2.6,12.7,4.8,13.9
		c1.4,0.7,1.6,1.8,1.6,9.3l-0.1,8.5l-4.6-5c-6.6-7.1-20.2-23.1-19.9-23.4c0.2-0.1,1.6,0.2,3.1,0.6c1.6,0.4,3.2,0.5,3.5,0.2
		s2.2-3.8,4.1-7.6L421.8,344.1z"/>
	<path id="path94" fill="#3300FF" d="M355.5,349.5c3.2,0,24.2,16,38.8,29.6c8.7,8.1,8.7,8.1,8.5,11.7c-0.3,3.4-0.1,3.7,7.2,11.5
		l7.6,8l-1.5,2.7c-3.6,6-7.6,13.7-7.6,14.4c0,0.5,3.5,4.9,7.8,9.9l7.8,9l-6.2,12.3l-6.1,12.4l8.3,8.5c4.6,4.6,8.4,8.9,8.4,9.4
		c0,0.6-2.1,5.1-4.6,10.3l-4.6,9.2l1.8,2.7c1,1.4,2.8,3.9,4.2,5.6l2.3,3l-4.6,2.7c-6.1,3.5-9.8,3.7-20.6,1.6
		c-6.9-1.4-10.4-1.7-14.9-1.3l-6,0.5l-2.1-3.5c-1.1-1.9-3.3-6.5-5-10.2c-2.8-6.2-3-6.7-1.7-8.1c0.9-1.1,1.5-3.6,1.7-7.7
		c0.3-5.9,0.2-6.1-2.2-8.6c-2.4-2.5-2.5-2.8-2-7.5c0.6-5.9-1-9.1-4.3-9.1c-1.9,0-2.1-0.2-1.5-2.3c0.4-1.2,0.7-8.1,0.7-15.3l-0.1-13
		l1.9,1.2c6.6,4.4,10-4.2,10.1-25.6c0.1-16.4-3.2-30.5-10.9-45.7c-3.3-6.7-8.7-13.4-11.5-14.3c-1.2-0.4-1.4-0.8-0.7-2.2
		C354.1,350.2,354.9,349.5,355.5,349.5z"/>
	<path id="path96" fill="#3300FF" d="M471.8,352c1.5,1.6,4.4,3.9,6.4,5.1c2.3,1.4,5.3,4.6,8.2,8.5c2.5,3.5,8.7,11.8,13.7,18.5
		l9.1,12.2l4,0.2c5,0.3,5.1,1.7,0.5,7.7c-3.2,4.2-3.3,4.7-3,8.7c1,10.4,12.9,24.8,22,26.6c4,0.8,3.2-0.7-1.4-2.8
		c-6.3-2.9-12-8.5-15.4-15.3c-3.7-7.6-3.8-11.5-0.4-15.6c1.5-1.7,3.3-5.6,4.6-9.7c1.3-4.4,2.7-7.3,3.9-8.1c2.4-1.7,3.7-0.7,1.7,1.3
		c-1.9,2.2-1.8,8.7,0.1,14.6c2.7,7.9,11.1,15.1,19.4,16.4c2.7,0.4,3.7,0.2,5.1-1.2c1.8-1.8,2.3-3.4,1-3.4c-0.4,0-1.2,0.6-1.7,1.2
		s-1.7,1.2-2.7,1.2c-1.2,0-1.5-0.3-1-1.9c1.4-4.7,3.5-9.3,4.2-9.2c0.7,0.1,7,11,7,12.1c0,0.4-1.3,2.1-2.8,3.8
		c-1.6,1.7-4.3,5.6-6.1,8.5c-2.9,4.7-3.7,5.4-6.9,6.2c-3.4,0.8-3.9,1.3-8.1,8.3c-6.4,10.8-7.2,11.5-12.9,10.8
		c-6.1-0.8-10-3.5-20.2-13.9l-8.3-8.5l-3.2-16.2c-2.2-11.9-3.2-19-3.4-26.6c-0.2-11-1.7-21.5-3-22.8c-1.1-1.1-1,1.7,0.5,12.8
		c0.7,5.2,1.2,9.6,1,9.8s-1-2.2-1.8-5.3c-1.6-6.1-7.7-23.5-10.9-31.1c-1.1-2.7-2-5.1-2-5.4S470.2,350.4,471.8,352z M518,410.6
		c-1.1-1.1-1.2-1.7,1.5,8.5c1.2,4.8,2.8,8.9,3.4,9c1.3,0.4,0.7-2.6-2.1-11C519.7,414,518.5,411.1,518,410.6z M499.8,420
		c-3.3,5.5-1.7,5.1,2.8-0.7c2.5-3.2,4.6-6.1,4.6-6.3C507.2,411,502.6,415.3,499.8,420z M508.5,415c-0.8,1.2-0.7,17.9,0.1,20.2
		c0.4,1.2,0.8-1.7,1.1-8.9C510.2,416.1,509.7,412.9,508.5,415z"/>
	<path id="path98" fill="#CC3300" d="M441.6,360.8c0,5.4-0.2,6.2-1.7,7.1c-2.3,1.2-7.8-0.3-9-2.6c-1.2-2.3-3.2-11.6-2.7-12.9
		c0.2-0.7,1.6-1.3,3-1.5C439.2,349.8,441.6,352,441.6,360.8z"/>
	<path id="path100" fill="#6666FF" d="M454.5,351.3l2.1,1.5c1.2,0.8,2.9,2.4,3.9,3.5l1.9,2l-2.2,6.8c-1.1,3.7-2.4,6.8-2.7,6.8
		c-1.8,0-2.4-2.7-2.7-11.3L454.5,351.3z"/>
	<path id="path102" fill="#6699FF" d="M357.2,358.5c7,7.4,14.1,24.5,16.9,39.9c2.2,13.1,0.3,36.9-3.2,39.2c-1.5,0.9-4.3-1.3-4.6-3.8
		c-0.2-1.2,0.4-3.1,1.3-4.2c2.8-3.6,3.7-9.7,3.2-21.1c-0.6-14.4-3.1-24.3-9.1-36.2c-3.5-7-9.5-15.4-11.1-15.4c-1.4,0-1.4-1.4,0-1.9
		C352.7,354.1,353.5,354.5,357.2,358.5z"/>
	<path id="path104" fill="#3300FF" d="M349.9,359.4c1.3,0,7.1,8.4,10.6,15.4c3.1,6.1,5.9,14.9,6.8,21.1c0.5,3.6,0.2,3.4-4.1-4.6
		c-7.5-13.8-9.7-17.5-9.1-15.4c0.8,3.2,9,20.3,12.1,25.2c2.5,4,2.7,4.6,2.7,12.5c0,5.9-0.4,9.1-1.3,11.2c-1.2,2.4-1.4,2.6-1.4,1
		c-0.1-1-0.4-1.8-0.9-1.8c-0.9,0-1.2,1-2.5,9.5c-0.5,3.2-1.8,9.6-3,14.4c-1.2,4.6-1.9,9.2-1.6,10c0.3,1.1-0.4,2.3-2.4,4.1l-2.9,2.5
		l-4.4-1.7c-5.8-2.2-12.4-5.5-14.1-7.1c-1.2-1-1.2-1.6-0.6-2.5c1.2-1.4,4.1-1.4,9.6,0.2c5.8,1.7,6.6,0.8,1.4-1.4
		c-7.7-3.5-14.5-2-13.3,2.8c0.6,2.5,9.2,7.2,17,9.4l5.2,1.5l2.9-3.2c2.4-2.7,3.1-2.9,4.2-2c1,0.7,1.2,2.1,0.8,5.4
		c-0.5,4.4-0.4,4.4,1.7,4.2c3.4-0.2,4.3,0.7,4.3,4.6c0,5.6-0.7,5.9-6.2,3.5c-2.7-1.2-6.9-2.7-9.5-3.2l-4.6-1.1l5.2-1.5
		c2.8-0.8,5.4-1.7,5.6-2.1c0.4-0.6-11,1.2-14,2.2c-0.9,0.3-5,0.6-9,0.6c-4.6,0.1-7.6,0.5-8.2,1.1c-2,2-2.8,1.1-4.1-4.6
		c-4.7-21.3,4.8-66.3,21.3-100.9C346.8,363.8,349.4,359.4,349.9,359.4z"/>
	<path id="path106" fill="#CC3300" d="M435,370.4h2.9c1.6,0,2.9,0.1,2.9,0.2c0,0,1.1,3.9,2.4,8.6c2.3,8,2.4,8.8,1.3,11.9
		c-1.9,5.2-2,5.3-5.9,1.5L435,389v-9.3V370.4z"/>
	<path id="path108" fill="none" d="M455.7,373.9c1.1,0.7,1.1,2.9,0,4.6c-0.6,0.9-0.8,0.4-0.8-1.9
		C454.9,374.7,455.2,373.6,455.7,373.9z"/>
	<path id="path110" fill="#993300" d="M337.7,377.3c0.1,0.1-0.6,2.2-1.6,4.7c-1.6,4.1-2.7,5.4-12.2,13.3c-5.8,4.8-12.1,9.7-14,11
		c-2,1.2-3.6,2.7-3.6,3.1s1.3,5.9,2.9,12.2c4.5,17.8,3.7,19.5-1.7,3.8c-2.6-7.3-4.8-14.3-5.1-15.5c-0.4-2.3,1-3.7,19.7-17.5
		c3.8-2.8,8.9-7.5,11.2-10.2C335.5,379.4,337.5,377.2,337.7,377.3z"/>
	<path id="path112" fill="#6666FF" d="M459.1,376.9c0.9,0,11.6,11.8,12.5,13.8c0.6,1.2,0.2,3.7-1.5,9l-2.2,7.4l-3.3-3.7
		c-1.8-2-4.9-5.6-7-8l-3.7-4.3l2.3-7.1C457.5,380,458.8,376.9,459.1,376.9z"/>
	<path id="path114" fill="#6666FF" d="M413,396.5c7.1,6.6,7.6,7.3,6.8,9.1c-0.4,1-1.1,1.9-1.4,1.9c-0.2,0-3.5-3.2-7.1-7.3
		c-4.9-5.3-6.5-7.7-6.3-9.1C405.2,389.5,406.1,390.1,413,396.5z"/>
	<path id="path116" fill="#993300" d="M331.9,392.2c0.2,0.2-0.4,2.7-1.4,5.6c-2.2,6.6-6.7,24.7-6.7,26.6c0,0.7-0.8,2.1-1.7,2.9
		c-1,0.7-3,2.4-4.5,3.7c-3.2,2.7-3.7,2.8-3.7,0.7c0-0.9-1.1-5.9-2.5-11c-1.3-5.2-2.5-9.8-2.5-10.3c0-0.4,1-1.3,2.3-2.1
		c1.2-0.7,6.3-4.7,11.4-8.9C327.5,395.2,331.7,392,331.9,392.2z"/>
	<path id="path118" fill="#6666FF" d="M452,392.6c0.2,0,3.5,3.7,7.5,8.3c6.1,7.1,7.1,8.6,6.8,10.6c-0.6,3.2-3.7,13.6-4.3,14.1
		c-0.2,0.3-4.6-3.7-9.7-8.8l-9.3-9.2l1.7-1.9c1-1.1,3-4.4,4.4-7.6C450.6,395.1,451.8,392.6,452,392.6z"/>
	<path id="path120" fill="#6666FF" d="M422.8,405.7l7.3,7.3l7.3,7.2l-1.2,2.5c-0.7,1.3-1.3,2.2-1.4,2.1c-0.2-0.1-3.5-3.7-7.5-7.7
		c-7.1-7.4-7.1-7.6-5.9-9.5L422.8,405.7z"/>
	<path id="path122" fill="#6666FF" d="M419.2,412.5c0.5,0,8.5,8.2,12.5,12.7l2.1,2.3l-4.2,7.8c-2.3,4.3-4.4,7.9-4.6,7.9
		c-0.6,0-14-15.4-14-16.1c0-0.2,1.7-3.7,3.9-7.6C416.9,415.7,418.9,412.5,419.2,412.5z"/>
	<path id="path124" fill="#6666FF" d="M469.1,412.5c1.1,0,12.4,13.5,12.4,14.8c0,0.7-1.2,4.4-2.7,8.2l-2.7,7.1l-5.6-6.1
		c-3.1-3.3-5.8-6.7-6.1-7.5c-0.2-0.8,0.5-4.8,1.7-9C467.4,416,468.7,412.5,469.1,412.5z"/>
	<path id="path126" fill="#6666FF" d="M439.1,422.5c0.9,0,13.3,13,13.3,14c0,1.4-2.4,5.9-3.2,5.9c-0.3-0.1-3.3-3.7-6.7-8
		c-5.7-7.4-6.1-8.1-5.1-10C438.1,423.4,438.8,422.5,439.1,422.5z"/>
	<path id="path128" fill="#6666FF" d="M435.5,429.1c0.3,0,8.4,10.1,11,13.9l2,2.8l-3.6,8.2c-1.9,4.5-3.7,8.2-4.1,8.2
		c-0.2,0-3.6-3.7-7.4-8.3l-6.9-8.3l4.2-8.3C433.2,432.9,435.2,429.1,435.5,429.1z"/>
	<path id="path130" fill="#993300" d="M322.1,431.6c0,0.3-0.7,5.5-1.7,11.4c-2.1,13.5-2.1,17.5,0.1,26c2.9,11.4,0.2,15-3.2,4.6
		c-2.7-7.7-2.7-18-0.2-24.2c0.9-2.3,1.5-4.3,1.2-4.3c-1,0-4.4,9-4.9,12.9c-0.7,5.5,0.8,14.7,3.4,20.3c1.1,2.4,2,5.3,2,6.4
		s1.7,4.7,3.7,8.1c2.1,3.4,3.7,6.6,3.7,7.2c0,1.7-7.7-4.6-10.5-8.6c-8.8-12.7-10-36-2.7-50.6c0.9-1.7,3-4.6,4.6-6.4
		C320.5,430.9,322.1,430,322.1,431.6z"/>
	<path id="path132" fill="#6666FF" d="M454.6,438.3c0.1,0,3.6,3.8,7.6,8.4c7.5,8.5,7.5,8.5,6.2,10.7c-4,6.6-3.4,6.8-10.5-2.7
		c-3.5-4.8-6.4-9-6.4-9.5s0.7-2.2,1.4-3.9C453.7,439.6,454.5,438.3,454.6,438.3z"/>
	<path id="path134" fill="#6699FF" d="M362.5,447.4c0.1,0,0.2,2.6,0.2,5.8c0,3.4-0.3,5.8-0.8,5.8c-1.6,0-1.9-2.6-0.8-7.1
		C361.7,449.4,362.3,447.4,362.5,447.4z"/>
	<path id="path136" fill="#6666FF" d="M425.6,448.2c0.2,0,11.5,13.4,13.4,15.9c0.8,1.2,0.4,2.7-3.2,10c-2.2,4.7-4.6,9.3-5.1,10.2
		c-0.8,1.4-1.7,0.8-8.6-6.1l-7.7-7.7l5.5-11.1C422.9,453.2,425.5,448.2,425.6,448.2z"/>
	<path id="path138" fill="#6666FF" d="M451,449.1c5.4,6.8,13.9,18.8,13.9,19.5c0,1.4-7.4,14.5-8.1,14.4c-0.3,0-3.7-4.1-7.3-9l-6.8-9
		l2.5-5.7c1.3-3.2,3-7.1,3.7-8.6C449.8,448.2,450.1,448,451,449.1z"/>
	<path id="path140" fill="#996600" d="M488.7,457.3c3.2,1.7,7.6,7.7,7.6,10.2c0,0.6-0.7-0.2-1.5-1.7c-1.7-3.3-5.4-6.4-6.7-5.6
		c-1.8,1.2-5.1,7.9-5.2,10.8c-0.1,2.7,0.4,3.5,4.4,7.1c5.6,5.1,5,6.3-0.8,1.7c-6.3-5-6.5-5.9-3.4-13.7c1.4-3.6,3-7.2,3.4-8.1
		C487.1,457,487.7,456.7,488.7,457.3z"/>
	<path id="path142" fill="#6666FF" d="M472.5,458.8c0.9,0.8,2.9,3.2,4.4,5.3c2.4,3.2,2.7,4.2,2.3,6.9c-0.2,1.8-0.1,3.8,0.5,5
		c0.8,1.5,0.8,2.4-0.1,4.6l-1.2,2.8l-6.2-9.1l-6.2-9l2.5-4C470.8,457.5,471,457.4,472.5,458.8z"/>
	<path id="path144" fill="#996600" d="M491.4,464.2c2.8,4.4,3.8,7.7,3.3,11.2c-0.3,2-0.7,3.8-1.1,4.1c-0.7,0.7-8.9-6.2-8.9-7.6
		c0-1.5,2.2-6.9,3.4-8.4C489.5,461.9,490,462,491.4,464.2z"/>
	<path id="path146" fill="#6666FF" d="M441.6,468.2c0.5,0,4,4.5,13.4,17c0.6,0.8-8.7,17.6-9.5,17.2c-0.2-0.1-3.5-3.3-7.2-7.1l-6.6-7
		l4.7-10C438.9,472.6,441.3,468.2,441.6,468.2z"/>
	<path id="path148" fill="#6666FF" d="M467.3,471.3c0.3,0.3,2.7,3.7,5.2,7.5l4.7,7l-3.4,7.8c-1.9,4.3-3.7,7.8-4,7.8
		c-0.3,0-3.1-3.6-6.1-7.9l-5.5-7.9l4.3-7.5C464.9,474.1,467.1,470.9,467.3,471.3z"/>
	<path id="path150" fill="#996600" d="M498.1,474c0.5,0,3.6,3.2,4.3,4.6c0.3,0.6,0,2.8-0.7,5c-0.7,2.2-1.2,5.1-1.2,6.3
		c0,3.4-2.3,2.1-4.3-2.6c-1.6-3.7-1.6-3.9-0.1-8.5C497,476.1,497.9,474,498.1,474z"/>
	<path id="path152" fill="#6699FF" d="M329.1,475.5l9.5,0.5c11.7,0.6,15.1,1.4,23.7,5.4c8.8,4.2,10.7,6.5,10.1,12.5
		c-0.2,2.5-1.1,5.1-1.7,5.7c-1.2,1.2-1.4,0.9-2.8-2.4c-2.9-6.8-11.9-12.6-17-11c-3.5,1.1-17.2,12.8-17.2,14.8c0,0.4,1.6-0.7,3.6-2.6
		c5-4.8,12.9-10.2,15.2-10.2c2.5,0,6.1,1.4,8,3.1c1.4,1.2,1.2,1.4-2.5,3.2c-5.1,2.3-19.3,14.1-19.3,15.9c0,1.1-0.6,0.8-2.5-1
		c-1.3-1.3-2.5-2.8-2.5-3.5c0-0.6-0.7-1.4-1.7-1.9s-2.9-3.4-4.4-6.5c-1.5-3.1-3.7-7.1-4.7-8.9c-2.6-4.5-1.8-7.1,2.7-10.5
		L329.1,475.5z"/>
	<path id="path154" fill="#0066FF" d="M482.2,479.8l3.6,2.5c2,1.3,4.5,2.6,5.6,2.7c1.4,0.2,2.3,1.1,2.9,2.8c1.2,3.4,2.8,5.3,6,6.6
		c2.1,0.9,2.8,1.8,3.2,4.1c0.3,1.9,1.7,4.1,3.6,5.8l3,2.8l-1.7,3.1c-2.4,4.6-7.3,9.1-10.3,9.7c-2.2,0.5-9.5-0.6-10.7-1.5
		c-0.2-0.2,3.5-9.5,6.1-15.9c0.2-0.5-2.7-4.6-6.6-9c-3.9-4.5-7-8.4-6.7-8.7c0.2-0.3,0.7-1.6,1.2-2.8L482.2,479.8z"/>
	<path id="path156" fill="#6666FF" d="M457.6,488.8c0.4,0.4,3.1,4.1,6,8.1l5.2,7.3l-2.5,4.9c-2.3,4.6-2.6,4.8-5,4.3
		c-1.4-0.2-4.1-0.5-6-0.5c-3.2,0-3.6-0.3-5.8-3.7c-2.7-4.3-2.7-4.1,3.1-13.9C455.1,491.2,457.2,488.4,457.6,488.8z"/>
	<path id="path158" fill="#6666FF" d="M479,488.1c0.2,0,1.3,1.1,2.5,2.4s3.8,4.5,6,6.9l4,4.6l-3,7.4c-1.7,4.1-3.2,7.6-3.6,8
		c-0.8,1-6.7-0.2-6.7-1.4c0-0.5-1.5-3.3-3.4-6.2l-3.3-5.2l3.6-8.1C477,491.8,478.7,488.1,479,488.1z"/>
	<path id="path160" fill="#6666FF" d="M430.4,490.3l6.8,7.3c3.8,4,6.9,7.6,6.9,8s-0.9,2.7-1.9,5.1c-1.9,4.2-2.2,4.5-6.9,6.1
		c-2.7,0.9-5.1,1.7-5.4,1.7c-0.3,0-2.2-2.3-4.3-5.1l-3.7-5.1l4.2-9L430.4,490.3z"/>
	<path id="path162" fill="#CCCCCC" d="M366.1,498.2c0.9,2,2.2,4.5,2.8,5.6c0.7,1.2,3,5.7,5.1,10.3c4.6,9.5,10.5,16.5,17.7,20.7
		c4.2,2.5,4.7,3.2,5.6,6.8c0.6,2.2,0.8,4.2,0.6,4.5c-0.2,0.3-1.5-0.7-2.7-2.2c-1.2-1.4-2.9-2.7-3.7-2.7c-0.7,0-4.6,3.2-8.5,7.1
		c-7.1,7.1-8.4,8-9,6c-0.2-0.5-1.8-5.1-3.7-10l-3.3-9l-13-12.5l-12.9-12.5l1.9-2c2.5-2.7,12.9-10.6,16-12.2
		C363,494,364.3,494.4,366.1,498.2z"/>
	<path id="path164" fill="#993300" d="M329.8,505.2c1.8,0.7,4.5,5.7,5.1,9.5c1.2,7.4,5.6,24.5,7.2,28c1.8,3.9,3.8,4.8,9,4
		c3.2-0.5,3.3-0.4,3.3,1.6c0,1.5-0.6,2.3-2.2,2.9c-3,1.2-8.3,1-9.3-0.2c-0.4-0.5-1.8-4.6-3-9.1c-1.2-4.5-4.3-14.4-6.8-22
		c-2.4-7.6-4.5-14.1-4.5-14.4S329.2,504.9,329.8,505.2z"/>
	<path id="path166" fill="#6699FF" d="M470.7,507.6c1.2,0.7,5.2,7.9,4.8,8.4c-0.5,0.4-9-1.3-9-1.8c0-0.2,0.7-1.9,1.7-3.7
		C469.2,508.6,470.2,507.3,470.7,507.6z"/>
	<path id="path168" fill="#6699FF" d="M446.2,508c0.2,0,0.9,1.1,1.7,2.4c1.2,2.4,1.2,2.5-1.3,3c-1.4,0.3-2.7,0.4-2.7,0.2
		c-0.2-0.1,0.2-1.5,0.8-3C445.3,509.3,445.9,508,446.2,508z"/>
	<path id="path170" fill="#993300" d="M338.8,513c1.2,0,3.4,1.5,6.2,4.3l4.2,4.4l-0.1,7.1c0,8.5,0.6,10.6,3.3,11.7
		c2.9,1.1,2.2,3.4-1.4,4.2c-4.2,0.9-5.7,0.1-7.4-3.7c-1.4-3.2-5.1-17.7-6.4-24.9C336.8,513.2,337,513,338.8,513z"/>
	<path id="path172" fill="#6666FF" d="M450.3,515l3,4.6l2.9,4.6l-3.7,0.6c-2.1,0.2-6.6,0.6-9.9,0.6l-6.1,0.1l2.3-4.3
		c2.2-4.2,2.5-4.4,6.9-5.2L450.3,515z"/>
	<path id="path174" fill="#6699FF" d="M453.1,514.4l4,0.6c2.2,0.2,4.2,0.8,4.6,1.2c0.3,0.3-0.2,2-1.2,3.7l-2,3.2l-1.6-2.3
		c-0.9-1.2-2.2-3.2-2.7-4.3L453.1,514.4z"/>
	<path id="path176" fill="#6666FF" d="M464.8,516.5l6,1.2c3.3,0.6,7,1.3,8.1,1.7l2.1,0.6l-2.5,1c-2.8,1.2-15.4,3.3-16.9,2.8
		c-0.7-0.2-0.2-1.6,1.1-3.7L464.8,516.5z"/>
	<path id="path178" fill="#6699FF" d="M437.4,518.6c0,0.4-0.5,1.3-1.1,2.2c-1,1.3-1.2,1.3-2.2,0.2c-0.9-1.1-0.8-1.4,0.8-2.1
		C437.6,517.9,437.4,517.9,437.4,518.6z"/>
	<path id="path180" fill="#6699FF" d="M504.8,519.6c0.3,0.2,0.7,2,1.1,4c0.5,3.2,0.3,3.8-1.9,5.9c-2.7,2.6-10.4,5.1-15.5,5.1h-3.3
		l-1-6.8c-0.5-3.7-0.8-7-0.6-7.1c0.2-0.2,2.7,0.1,5.7,0.7l5.3,1l0.6,4.6c0.5,4.2,0.7,4.5,1.4,2.7c0.4-1.1,0.7-3.1,0.5-4.3
		c-0.2-2,0.3-2.6,3.5-4.2C502.6,520,504.5,519.4,504.8,519.6z"/>
	<path id="path182" fill="#6699FF" d="M433.7,523.4l2.5,2.1h-5.6c-4.5,0-5.6,0.2-5.6,1.2c0,0.9,1,1.2,4.2,1.2h4.2v3.7
		c0,2,0.2,4.3,0.5,5.1c0.5,1.2-0.4,1.2-7.6,1.1l-8.2-0.2v-4.9c0-4,0.3-5.1,1.6-5.8c0.9-0.5,3.3-1.9,5.4-3.2
		C429.5,520.8,430.6,520.8,433.7,523.4z"/>
	<path id="path184" fill="#6699FF" d="M479.9,523c1.5-0.1,2.4,3,2.4,8.2c0,3.1,0,3.2-3.9,3.7c-2.2,0.3-5.4,0.7-7.1,1l-3.2,0.5v-4.2
		c0-2.3-0.2-4.7-0.4-5.4c-0.4-0.8,0.9-1.5,5.1-2.4C476,523.7,479.1,523.1,479.9,523z"/>
	<path id="path186" fill="#6699FF" d="M353.6,525.9c1.1,1,1.7,2.6,1.7,4.6c0,1.7,0.2,3.7,0.5,4.4c0.9,2.5,1.7,1.3,1.3-2.1
		c-0.2-2.1,0-3.3,0.5-3.2c1.4,0.6,7.6,6.5,7.6,7.3c0,0.9-11.7,1.7-12.8,0.7c-1-0.7-1.7-8.4-1-11.1
		C352,524.5,352.1,524.4,353.6,525.9z"/>
	<path id="path188" fill="#6699FF" d="M390.6,524.6h7.1v5.4v5.4l-3.5-1.7c-4.2-2.1-10.6-7.1-10.6-8.3
		C383.5,524.9,386.6,524.6,390.6,524.6z"/>
	<path id="path190" fill="#6699FF" d="M399.8,525.4c0.4,0.1,3,0.6,5.7,1.2c2.7,0.7,6.1,1.2,7.5,1.2h2.5v5.1l0.1,5.1l-7.1-0.5
		c-3.8-0.3-7.4-0.9-7.8-1.3c-0.5-0.5-1.1-3.2-1.2-5.9S399.4,525.4,399.8,525.4z"/>
	<path id="path192" fill="#6699FF" d="M461.8,526.4l3.9-0.2v4.9v4.9l-6.3,0.6c-7.4,0.7-7.8,0.4-7.8-5.6c0-3.9,0-3.9,3.2-4.2
		C456.4,526.7,459.5,526.5,461.8,526.4z"/>
	<path id="path194" fill="#6699FF" d="M446.8,527.3l3.1-0.2v4.9v4.9l-6.8,0.3c-3.8,0.2-7,0.3-7.1,0.2c-0.1,0-0.4-2.2-0.7-4.7
		l-0.6-4.7l4.5-0.3C441.7,527.5,445.1,527.3,446.8,527.3z"/>
	<path id="path196" fill="#0066FF" d="M503.9,534.9c0,2.4-3.5,6.1-9.9,10.2c-4.9,3.2-14.3,7.7-16.1,7.7c-0.7,0-2.4-3.2-4.1-7.5
		l-3-7.5h3.2c1.7,0,3.2,0.3,3.2,0.8c0,1.5,4.3,10.4,4.6,9.5c0.2-0.5-0.4-3.1-1.3-5.8c-0.9-2.7-1.5-5-1.2-5.2c0.2-0.2,4.4-0.7,9.3-1
		c5.6-0.3,10-1.1,11.5-1.9C503.4,532.5,503.9,532.6,503.9,534.9z"/>
	<path id="path198" fill="#990000" d="M468,538.1c0.4-0.2,4.4,9.1,5.6,13.3c0.7,2.2,1.5,4.1,1.8,4.3c1.1,0.7,13.5-4.6,18.5-7.9
		c2.5-1.5,5.9-4.1,7.6-5.6l3.1-2.8l0.7,2.4c1.1,3.9,0.6,36.9-0.9,54.8c-0.7,9.2-1.3,20.3-1.3,24.5c0,9-1.2,17.7-3,23.3
		c-2.7,8.2-12.4,18.1-35.1,35.9c-7,5.5-9.7,8.1-9.9,9.6c-0.7,5.4-1.8,7.3-5.6,8.7c-3.8,1.4-5.7,3.6-6.7,7.3
		c-0.7,3.2-3.1,4.1-8.5,3.4c-6.1-0.7-8.7-2.2-13.9-7.6l-4.2-4.4l1.7-2.7c1.2-2,1.7-4.2,1.7-8.1c0.1-4.8,0.5-6.1,3.7-11.6
		c4.2-7.5,14.1-19.6,17.8-21.7c2.3-1.5,2.5-1.9,2.1-5c-0.6-4.5-0.2-5.2,4.1-8.2c3.6-2.4,3.7-2.6,3.2-6c-0.7-4.7-4.1-17.4-7.5-28.1
		l-2.9-8.9l1.8-3.6c5.6-11.1,9-14.1,19.4-16.9c4.2-1.2,5.8-2.2,10-6.4c2.7-2.7,3.7-4,2.1-2.7c-6.4,4.8-9.1,6.5-12.2,7.1
		c-1.7,0.4-3.3,0.6-3.5,0.3c-0.2-0.2,2-2.7,5-5.4c4-3.8,4.6-4.6,2.6-3.5c-1.6,0.8-7,5.3-12.1,10c-8.6,7.8-9.6,9-13.1,16.2
		c-10,20.2-15.4,40.7-20.7,77.9c-1,7.1-1.9,14.7-2,17c-0.1,2.7-0.9,5.9-2.4,9c-1.9,3.9-2.2,5.6-1.8,8.3c0.2,1.9,0.7,7.2,0.8,11.9
		c0.2,4.6,0.8,9.4,1.3,10.6c1.2,3.1,1.1,4.6-0.3,4.6c-2.7,0-14.9,7.1-19.3,11.2c-2.6,2.5-4.9,4.6-5,4.6c-0.2,0-0.2-1.1-0.2-2.5
		c0-1.7-0.7-2.9-2.2-3.9c-2.1-1.3-2.2-1.7-1.6-5.6c0.8-6.2,0.7-7-1.6-9.7c-2-2.3-2.2-3.2-2.2-9.9c0-7.6,0.9-10,2.3-6
		c0.5,1.2,1.4,3,2.2,3.9c1.2,1.6,1.2,1.5,0.5-0.8c-0.4-1.4-3.2-9.6-6.2-18.3c-6-17.7-12.9-42.4-12.9-46.6c0-1.5,0.4-4.3,0.9-6.3
		c0.8-3.1,0.7-4.2-0.7-8.5c-5.8-16.5-9.9-44.2-12.2-83.5c-0.4-6.4-0.2-9,0.4-9.5c0.5-0.3,2.9-0.3,5.4,0l4.4,0.5l2.6,7.1
		c3.2,8.8,3.2,9.9,0.1,11.5c-2.6,1.3-3.3,2.9-1.3,2.9c2.1,0,10.8-6.5,16.7-12.4c3.2-3.2,6.1-5.9,6.5-5.9s1.8,1.1,3.1,2.5
		c2.6,2.8,4.2,3.1,6.1,1.2c1.2-1.2,1.7-1,6.3,1.7c13.6,8,30.9,13.6,31.9,10.4c0.2-0.7,1.5-5.2,2.9-10.2c1.3-4.9,2.6-9,2.7-9.2
		c0.2-0.1,2.6-0.4,5.3-0.7l5.1-0.6l0.6,10.5c1.1,18.3,2,20.4,1.8,4.3l-0.2-14.7l5.4-0.3C465.3,538.3,467.8,538.1,468,538.1z
		 M495.4,588.1c-0.5,36.9-1.4,47.7-4.9,59c-1.6,5-2.5,6.4-7.3,11.1c-4.9,4.8-9.2,8.1-25.4,19.3c-3.7,2.5-4.7,3.7-5.5,6.6
		c-1.3,4.6-1.7,5-7.9,8.6c-4.6,2.7-5.7,3.8-7.6,7.9c-2.7,5.6-1.8,5.6,1.1-0.2c1.7-3.2,3-4.6,7.4-7c5.7-3.2,8-5.6,8-8.4
		c0.1-2.2,1.5-4,4.6-5.9c1.4-0.9,3.7-2.4,5-3.5c1.3-1.1,5.1-3.7,8.4-5.8c3.2-2.2,8.5-6.1,11.5-8.8c7.1-6.4,9.6-11.6,11.9-24.7
		c2.2-13,3.7-42.4,2.9-60.9C496.6,548.8,495.9,552.7,495.4,588.1z M407.6,559.9c-0.6-3.6-0.7,10.4-0.4,48.1
		c0.5,51.5,0.4,53.5-1.3,65.2c-2.3,15.5-2.1,25.4,0.8,30.5c1.9,3.4,1.9,3.8,1.1,11.2c-0.5,4.2-1.2,8.4-1.4,9.3
		c-0.3,0.9,0,0.6,0.7-0.7c1.3-2.3,2.2-7.8,2.4-13.9c0-1.6-0.9-4.7-2-7c-1.7-3.5-1.9-5.3-1.9-11.6c0.1-4.2,0.8-11.1,1.7-15.4
		c1.3-7.2,1.5-12.5,1.3-59.4C408.6,585.5,408.2,562.9,407.6,559.9z M450.2,643.8c-0.7,2.8,0,15.4,1,17.1c0.5,0.9,0.7-2.1,0.8-9
		C452.1,642.2,451.4,639,450.2,643.8z M406.2,728.8c-0.7,0-0.2,0.7,1.2,1.7c1.2,1.1,1.3,1,0.2-0.3
		C407.1,729.5,406.4,728.8,406.2,728.8z"/>
	<path id="path200" fill="#0066FF" d="M413.8,539.5h14.3l0.6,3.1c0.2,1.7,0.5,4.8,0.6,6.9c0.1,5.8,1.4,1.6,1.5-4.8l0.1-5.1h5.4
		c3,0,5.4,0.2,5.4,0.6c-0.1,0.4-1.1,4.4-2.4,9c-2,7.1-2.7,8.3-4.2,8.5c-5.2,0.8-34.2-12.9-35.1-16.6
		C399.4,539.6,400.3,539.5,413.8,539.5z"/>
	<path id="path202" fill="#666699" d="M440.9,607.2c2.8,9,6.2,22,6.8,26.6c0.5,3.2,0.3,3.4-2.8,5.3c-3.7,2.3-4.6,4-4.2,8.5
		c0.2,2.7-0.1,3.3-2,4.2c-2.1,0.9-13.8,15.3-16.1,19.6c-0.6,1.1-1.2,1.8-1.4,1.7c-0.5-0.6,2.9-22.6,5.1-33.5
		c3.2-15.1,8.4-32.6,11.4-38.2C438.4,600,438.9,600.8,440.9,607.2z"/>
	<path id="path204" fill="#330066" d="M475.6,687.7c86.9,2.6,164.1,17.8,188.5,37.1c22.2,17.5-6.4,36.9-72.7,49.6
		c-45.4,8.6-94.3,12.5-157.7,12.5c-49.1,0-90.2-2.7-131.6-8.4c-53.5-7.5-96-22.4-102.4-36c-2-4.2-1.4-9.5,1.6-13.4
		c10-13.1,48.3-26.1,99.2-33.5c18.3-2.7,53.5-6.1,71.3-6.9l5.2-0.2l2.3,6.6c2.2,6.4,2.3,6.9,1.5,14.3c-1.1,9.5-0.4,14.4,2.4,17.8
		c2,2.4,2.1,2.7,1.1,6.2c-1.2,4.1-0.2,8.1,2.2,9c0.7,0.2,1.2,1.5,1.2,2.7c0,3.2,3.3,12.9,5,14.7c1.4,1.5,1.8,1.5,13.8-0.6
		c20.5-3.4,28.2-6.6,28.7-11.4c0.2-2.2,0.7-2.8,2.8-3.4c4.6-1.2,5.7-3.3,5.7-11.4c-0.1-3.9-0.4-10.2-0.7-14
		c-0.5-4.6-0.5-7.5,0.2-8.7c0.5-1,1.5-3.2,2.3-5.1c1.1-2.3,2.3-3.6,4.9-4.6c4.3-1.8,6.2-4.4,6.2-8.2c0-1.7,0.6-3.2,1.5-4
		C459.2,687.4,462.4,687.3,475.6,687.7z"/>
	<path id="path206" fill="#333366" d="M415,699.6l4.6,4.6c4.6,4.7,7.6,6.1,17,7.8c5.3,0.9,5.1,3.1-0.3,3.4c-5.6,0.3-14-2.7-18.1-6.6
		c-2.6-2.4-3.2-3.6-3.2-6.1V699.6z"/>
	<path id="path208" fill="#333366" d="M415.9,710.6l4,2.4c4.3,2.7,12.1,5,16.9,5c2,0,3.2,0.4,3.6,1.3c0.8,2.2,0.7,2.2-3.2,1.7
		c-5.5-0.8-9.8,0.7-13.3,4.5c-1.7,1.8-3,3.7-3,4.2c0,0.5-0.7,0.8-1.7,0.8c-2.6,0-2.1-2.5,1.7-8.1c3.7-5.8,3.2-6.9-0.9-1.8
		c-3.3,4.2-4.1,3.3-4.1-4.3V710.6z"/>
	<path id="path210" fill="#333366" d="M440.8,724.3c0.5,0.5,0.9,3.3,1,6.4c0.2,6.1-0.4,7.2-4.6,7.2c-1.7,0-3.2-1-5.5-3.3
		c-1.8-1.9-4.2-3.6-5.7-3.8c-1.5-0.3-2.7-0.8-2.7-1.2c0-1.2,2.9-4.1,5.4-5.4C431.4,722.8,439.4,722.9,440.8,724.3z"/>
	<path id="path212" fill="#333366" d="M432.7,741.3l0.5,2.1l-6.8,0.2c-3.7,0-7.6,0.2-8.4,0.4c-1.2,0.2-1.7-0.4-2.3-2.5
		c-0.4-1.7-1.7-3.3-3.2-4.2l-2.6-1.6l4.5-1.7C424.3,730.1,430.6,732.7,432.7,741.3z"/>
	<path id="path214" fill="#333366" d="M413,740.8c2.3,3.6,1.3,4.6-7.1,7.6c-4.3,1.4-9.1,2.8-10.5,3.2c-2.4,0.4-2.7,0.2-2.7-1.4
		c0-2.1,2.4-4.6,8.2-8.8C405.7,737.9,411,737.7,413,740.8z"/>
	<path id="path216" fill="#663366" d="M440.4,739.7c1.4-0.2-1.7,2.2-3.5,2.8c-1.4,0.3-1.9,0.2-1.9-0.7c0-0.7,1-1.3,2.3-1.6
		C438.5,740,439.9,739.8,440.4,739.7z"/>
	<path id="path218" fill="#663366" d="M431.9,746.4c1.2,0.9,0.2,1.1-5.4,1.1c-6.1,0.1-8.4,0.6-19.5,4.4c-6.9,2.4-12.9,4.3-13.4,4.3
		s-0.9-0.6-0.9-1.2c0-0.7,0.7-1.2,1.9-1.2c2.6,0,8.7-1.8,18-5.3C421,745.2,429.1,744.4,431.9,746.4z"/>
	<path id="path220" fill="#663366" d="M429.6,749.5c1.5,0.6,1.5,0.7-0.8,2c-1.4,0.7-4.6,1.8-7.1,2.6c-5.2,1.4-24.7,4.8-25.8,4.5
		c-0.7-0.2,23.5-8.5,27.1-9.3C425.6,748.7,427.7,748.8,429.6,749.5z"/>
	<path id="path222" fill="#FF9999" d="M189.8,101.4c10.1,7.9,13,9.8,15.6,10.3c1.9,0.3,5.6-0.5,12.9-2.9c11.2-3.7,13-4,16.5-2.2
		c4.5,2.2,4.6,6.6,0.3,17.7c-2.2,5.8-3.2,9.4-3.2,12.7c0,4.5,0.2,4.9,5.9,12.5c3.2,4.3,6.3,8.6,6.9,9.6c1.7,3.2,1.1,6.8-1.5,9.5
		l-2.4,2.4h-12.5c-7.9,0-13.3,0.3-14.6,1c-1.2,0.6-5,4.8-8.5,9.5c-7,9.6-9.4,11.9-12.8,11.9c-4.7,0-6.9-3.2-10.4-15
		c-4-13.8-4.7-14.6-16.3-18.2c-12.1-3.7-13.1-4.2-14.9-7c-3.4-5.6-1.2-8.9,11-16.8c10.7-7,11-7.5,11-22.3c0-12.9,0.6-14.8,4.7-16.6
		C181.3,96.1,184.2,97,189.8,101.4z"/>
	<path id="path224" fill="#FF6600" d="M247.8,257.9c0.7,3.7,1.6,7.6,2.1,8.5c0.6,1,4.3,3.3,8.7,5.4c6.1,2.8,8,4.1,8.3,5.6
		c0.8,3.2-0.7,5-6.1,8c-9.7,5.1-10.3,6-11.3,16.9c-0.6,6.1-2.3,8.9-5.4,8.9c-0.8,0-4.3-2.4-7.6-5.4c-3.3-3-6.9-5.6-7.9-5.9
		c-1.1-0.3-4.6,0.1-7.8,0.8c-7.5,1.7-9.8,1.7-11.7-0.1c-2.2-1.9-1.9-3.7,1.4-10.2c3.8-7.6,3.7-10.3-0.3-17.3
		c-4.4-7.4-4.8-9.5-2.7-11.7c2-2,3.7-2.1,11.8-0.8c7.4,1.2,9.4,0.3,13.6-5.1c1.7-2.2,4.1-4.8,5.2-5.7
		C243,246,246.1,248.7,247.8,257.9z"/>
	<path id="path226" fill="#CCFF00" d="M608.4,309.6c1.8,0,5.1,1.8,9.9,5.7c6.1,5,7.6,5.1,16,2.2c7-2.4,8.4-2.6,10.1-0.7
		c1.9,1.8,1.7,5.2-0.7,11.6c-3.2,8.5-3,9.4,3.6,17.8c6.5,8.5,4.4,11.5-8.1,11.5c-9.3,0-10.2,0.4-14.6,7.2c-3.4,5.1-7.1,7.8-9.5,7.1
		c-2.1-0.6-3.6-3.5-5.3-10.2c-2.1-8.1-2.7-8.8-10.9-11.3c-7.3-2.2-10.3-4.2-10.3-6.8c0.1-2.1,1.5-3.7,7.1-7.4
		c8.1-5.5,8.3-5.8,8.4-15.4c0.1-7.6,0.2-8.5,2-9.9C607,310.3,608.1,309.6,608.4,309.6z"/>
	<path id="path228" fill="#9933FF" d="M129.1,361.8c1.8,0.8,8.4,4.6,14.5,8.4c6.1,3.8,16.4,10,22.7,13.9
		c19.8,11.9,19.5,11.9,54.2-3.7c23.7-10.5,26-11.4,31.5-11.7c4.6-0.2,6.7,0,9.6,1.3c7.6,3.3,12.8,10,14.4,18.5
		c0.7,3.7,0.2,6.1-6.6,34.8c-6.4,27.1-6.7,31.1-2.9,38.7c1.7,3.4,8.1,11.1,20.6,25c20.3,22.4,22.1,25.2,22.1,34
		c-0.1,9.5-7.1,19-16,21.7c-1.7,0.5-14.9,1.8-29.2,3c-29.4,2.3-29.6,2.4-34.8,5c-6.1,3.1-9.7,8-22.8,31
		c-13.2,23.2-16.8,28.1-22.3,31c-5.1,2.7-13,2.9-18.9,0.7c-8.5-3.2-10.4-6.1-22.2-34.4c-5.6-13.6-11.4-26.3-12.6-28.3
		c-2.8-4.4-7.8-8.1-13-9.9c-2.2-0.7-15.1-3.6-28.8-6.4s-26.3-5.8-28-6.6c-6.5-3.2-11.5-10.5-12.6-18.2c-0.7-4.6,1-11.3,3.7-15.4
		c1.1-1.7,10.8-10.6,21.6-19.9c23-19.8,26-23,27.9-29.4c1.5-5.1,1.3-8.1-2.6-44.1c-2-18.9-1.7-23.8,1.6-29.6
		c2.4-4.2,6.2-7.5,10.8-9.5C115.3,359.8,124.6,359.8,129.1,361.8z"/>
	<path id="path230" fill="#66FF99" d="M704.2,416.9c3.7,4.2,5,8.1,12,36.9c6,24.4,7.4,28.1,12.3,33.6c4.1,4.5,6,5.4,34.1,15.8
		c13.4,4.9,25.6,9.8,27.1,10.7c4.2,2.6,8.5,8,10,12.6c1.7,5.1,1.2,13.1-0.9,17.7c-2.8,5.7-7.7,9.5-30.3,23.7
		c-13.4,8.4-23.7,15.4-26.2,17.8c-6.1,6.1-6.9,9-7.9,29.5c-1.9,41.3-2,42.5-4.4,47.6c-5.3,11.2-19.6,16.4-30.8,11
		c-2.3-1.1-13.4-9.6-25.3-19.6c-13.2-11-22.8-18.5-25.6-19.8c-6.8-3.1-13.5-2.7-28,1.3c-35.1,10-39.8,11.2-45.7,11.2
		c-9.3,0.1-15.9-4.2-20.3-12.9c-2.1-4-2.6-6.1-2.6-10.2c0-6.2,0.7-8.1,11.9-35.7c9.8-23.8,10.8-27.6,9.5-34.4
		c-1.2-6.2-2.3-8.3-17.3-30.8c-16.3-24.2-17.7-27-18.1-33.6c-0.5-7.5,1.6-12.9,6.8-18.2c4.7-4.7,10-7.1,16.2-7.1
		c2.1,0,15.8,0.7,30.5,1.7c25.3,1.7,26.8,1.7,31.1,0.4c7.5-2.4,11.2-5.9,25.6-24.2c23.1-29.2,24.2-30.4,31.4-32.5
		C688,407.2,698.7,410.4,704.2,416.9z"/>
	<path id="path232" fill="#990099" d="M303,588.5c1.8,0,5.1,1.8,9.9,5.7c6.1,5,7.6,5.1,16,2.2c7-2.4,8.4-2.6,10.1-0.7
		c1.9,1.8,1.7,5.2-0.7,11.6c-3.2,8.5-3,9.4,3.6,17.8c6.5,8.5,4.4,11.5-8.1,11.5c-9.3,0-10.2,0.4-14.6,7.2c-3.4,5.1-7.1,7.8-9.5,7.1
		c-2.1-0.6-3.6-3.5-5.3-10.2c-2.1-8.1-2.7-8.8-10.9-11.3c-7.3-2.2-10.3-4.2-10.3-6.8c0.1-2.1,1.5-3.7,7.1-7.4
		c8.1-5.5,8.3-5.8,8.4-15.4c0.1-7.6,0.2-8.5,2-9.9C301.5,589.2,302.6,588.5,303,588.5z"/>
</g>
</svg>
