<?xml version="1.0" encoding="utf-8"?>
<!-- Generator: Adobe Illustrator 21.0.0, SVG Export Plug-In . SVG Version: 6.00 Build 0)  -->
<svg version="1.1" baseProfile="tiny"
	 id="svg172" inkscape:version="0.92.2 5c3e80d, 2017-08-06" sodipodi:docname="32.svg" xmlns:cc="http://creativecommons.org/ns#" xmlns:dc="http://purl.org/dc/elements/1.1/" xmlns:inkscape="http://www.inkscape.org/namespaces/inkscape" xmlns:rdf="http://www.w3.org/1999/02/22-rdf-syntax-ns#" xmlns:sodipodi="http://sodipodi.sourceforge.net/DTD/sodipodi-0.dtd" xmlns:svg="http://www.w3.org/2000/svg"
	 xmlns="http://www.w3.org/2000/svg" xmlns:xlink="http://www.w3.org/1999/xlink" x="0px" y="0px" viewBox="0 0 850 850"
	 xml:space="preserve">
<sodipodi:namedview  bordercolor="#666666" borderopacity="1" gridtolerance="10" guidetolerance="10" id="namedview174" inkscape:current-layer="svg172" inkscape:cx="712.25708" inkscape:cy="528.82054" inkscape:pageopacity="0" inkscape:pageshadow="2" inkscape:window-height="978" inkscape:window-maximized="1" inkscape:window-width="1920" inkscape:window-x="0" inkscape:window-y="1" inkscape:zoom="0.41647059" objecttolerance="10" pagecolor="#ffffff" showgrid="false">
	</sodipodi:namedview>
<g id="g170" transform="translate(0.000000,0.000000) scale(1.00000,1.00000)">
	<path id="path4" fill="#996666" d="M0-1h425h425v425v425H654H458.1l-1.1-4.3c-2.4-9.3-21.3-65.4-23.1-68.6
		c-1.1-1.8-1.8-3.5-1.6-3.7c0.2-0.2,4.1,0.7,8.8,2c4.6,1.4,10,2.7,11.9,3s4.9,0.8,6.5,1.1c1.7,0.3,9.1,1,16.5,1.6
		c8.6,0.7,16.1,2,20.7,3.4c7,2.3,10.7,1.9,6.1-0.6c-2.1-1.1-2.1-1.2,1.7-3.1c8.9-4.6,19.6-0.6,41.1,15.4
		c14.2,10.5,22.3,15.8,24.3,15.8c2.5,0-0.1-5.6-4.6-10.2c-5.7-5.8-17.3-11.9-17.3-9.1c0,0.5,2.8,2.3,6.3,4.1
		c3.5,1.7,8.3,5.3,10.7,7.8c2.5,2.6,3.8,4.3,3,3.9c-5.1-2.9-16.4-10.5-21.5-14.5c-5.8-4.6-20.2-14.3-22.8-15.4
		c-1.5-0.6,3.2-4.9,8.8-7.8c3.3-1.7,5-2,10.8-1.4c7.8,0.7,21.4,3.6,33.7,7.2c8.8,2.5,12,2.9,12,1.6c0-1-14.2-5.3-27.7-8.3
		c-5.7-1.3-10.3-2.6-10.3-3s1-0.9,2.3-1.2c1.2-0.3,6-2,10.7-3.8c7.6-2.9,9.9-3.2,21.9-3.7c12.6-0.4,13.3-0.3,12.8,1.4
		c-0.7,2.3-2.2,24.3-1.8,26.4c0.5,3.2,6.9,12.6,15.4,22.8c4.9,5.8,9.9,12.4,11.3,14.7c2.8,4.9,6.8,7.2,9.1,5.3
		c3.1-2.6-0.1-18.7-5.4-27.1c-1.3-2.1-2.2-4.1-2-4.4c0.3-0.2,2.7,0.7,5.4,2c2.6,1.3,8.4,3.7,12.7,5.2c4.4,1.6,10,4.3,12.6,6.1
		c8.9,6.1,30.5,17.3,35.6,18.5c6.5,1.5,8.4,0.8,8.4-2.9c0-4.1-9-12.3-22.2-20.2c-5.9-3.5-10.5-6.6-10.3-6.8c0.5-0.5,16,3.5,18.4,4.8
		c1.1,0.5,4.5,3.2,7.5,5.8c7,6.2,14.2,10,20,10.8c4.2,0.6,4.6,0.5,4.8-1.5c0-1.1,0.1-2.5,0.2-3.1c0.1-0.5-3-4.1-6.8-8.1
		c-4.1-4.3-7.7-9.2-9.2-12.5c-2.7-6.1-3-7.4-1.2-5.6c2,2,7.6,1.5,8.8-0.8c1.5-2.8,0.2-4.8-7.2-11.2c-10.1-8.7-12.7-10.2-17-9.9
		c-2.1,0.1-3.8-0.1-3.8-0.6c0-0.9,0.2-1.1,17.3-11.4c7-4.3,12.2-8.1,11.7-8.4c-1.8-1.1-9,0.5-18.1,4c-10.3,3.9-15.2,6.9-19.7,11.9
		c-3.2,3.6-5.5,4.5-6.7,2.6c-0.3-0.6-1.7-1-2.9-1c-1.3,0-2.9-0.7-3.6-1.5c-0.7-0.8-2-1.5-2.9-1.5c-1.7,0-17.9-11.2-19.3-13.4
		c-1.8-2.7-0.3-31.7,2.8-54.1c1.4-10.7,1.6-11.1,5.3-14.5c2.2-1.9,5.1-5.3,6.5-7.4c2.3-3.5,2.6-4.8,2.6-13.3s0.3-9.9,3.1-15.5
		c2.8-5.5,3.1-6.9,2.6-12.2c-0.4-4.3-0.1-7.1,1.1-10c1.5-3.5,1.7-8.2,1.6-32.6c0-23.8-0.4-31.2-2.3-45l-2.3-16.5l8.3-7.7
		c4.6-4.2,8-8,7.6-8.4c-0.8-0.9-4,1.2-10.5,7.1c-2.9,2.6-5.4,4.6-5.5,4.4c-0.2-0.2-0.8-2.9-1.4-5.9c-0.7-3-1.8-8.1-2.5-11.2
		c-1.1-5.3-1-6.4,1.2-13c3.2-10.1,3.9-22.5,1.4-28c-1.5-3.3-1.6-4.2-0.5-4.6c0.9-0.3,0.6-1.2-1.2-3.1c-2.4-2.5-10.7-23-10.7-26.4
		c0-0.9,0.9-3.9,2-6.7c2.6-6.6,2.5-11-0.4-22.8c-1.3-5.3-3.9-17.4-5.6-26.7c-3.8-20.3-4.9-23.6-10.1-30.9
		c-3.2-4.4-5.9-6.7-13.7-11.2c-5.3-3.2-12.8-7.2-16.7-8.9c-10.4-4.6-11.3-5.2-12-8.7c-0.4-1.8-0.9-4.1-1.2-5.1
		c-0.2-1,2.4,1.2,5.9,4.8c3.5,3.6,7.2,6.5,8.2,6.5c1.8,0,1.7-0.5-1.8-5.3c-1.7-2.4-2.1-4.4-2.1-12c0-7.8,0.5-10.8,3.4-19.6
		c3.6-10.8,5.2-12.6,2.7-3c-1.4,5.5-1.2,7.9,0.6,6.1c1.7-1.7,5.8-19.5,5.8-25.4c0-4.6,0.4-5.9,1.9-6.8c3.8-2,5.6-12.2,4.1-23.5
		c-0.7-6.3-2-10.1-5.8-17.9l-4.9-9.8l4,0.5c3.9,0.5,10.7-1.7,10.7-3.5c0-0.5-2.2-0.6-5-0.2c-5.8,0.8-8.6-0.6-11.9-6
		c-2.8-4.5-3.5-6.9-7.1-24.9c-3.5-17.6-3.6-19.6-1-24.7c2.3-4.4,7.8-18.2,9.1-22.4c0.8-2.6,0.4-3.3-4.7-8
		c-4.6-4.3-9.7-7.8-19.2-13.3c-1.1-0.7-0.9-2.8,1.3-11.1c2.3-8.7,2.5-10.8,1.5-13.2c-1.8-4.4-5.2-6-13.8-6.7
		c-6.6-0.5-9.1-0.2-17.6,2.2l-9.9,2.9l-8.4-1.8c-7.9-1.6-8.8-1.7-17,0c-6.2,1.2-8.8,1.4-9.1,0.6c-0.7-2.1-19-15.3-22.6-16.3
		c-4.2-1.1-10.6,0.2-12.7,2.7c-0.7,0.9-4.8,4.3-9,7.5c-8.2,6.4-10.9,10.4-10.9,16.3c0,3.1-0.3,3.6-2.3,3.6
		c-8.3,0-37.8,13.9-48.5,22.8c-2.7,2.3-5.4,4.2-5.9,4.2c-1,0-11.7,10.1-16,15.2c-3.8,4.6-6.4,4.8-10.4,0.9
		c-3.3-3.3-3.8-7.4-1.3-10.9c2.1-3,1-4.1-1.6-1.7c-1.5,1.3-2,3.1-2,6.5c0,4,0.5,5.3,3.3,8c3.1,3.1,3.1,3.2,0.7,2.5
		c-4.3-1.2-6.9-3.4-7.6-6.3c-1.4-6.3-1.5-6.4-3.1-5c-2.1,1.7-1.3,14.3,1.1,18.4l1.7,2.9l-5.1,5.3c-7.3,7.6-10.6,16.7-7.5,20.7
		c1.4,2,1.5,2,3.4-0.4l1.9-2.5l0.6,13c0.6,13.9,2,23,4.2,28.2c1.6,3.9,3.2,3.6,2.7-0.5c-0.2-1.5,0.2-4.8,1-7.3l1.4-4.5l1.1,5.4
		c2,8.7,10.8,19,13.1,15.2c0.5-0.8,3,0.4,7.5,3.3c3.7,2.5,7.4,4.2,8.2,3.9c2.1-0.8,2,17.9-0.2,23.8c-2,5.6-3.1,26.5-1.6,30.7
		c1.1,3.1,1,3.2-4.9,6.3c-6.2,3.3-12.6,8.9-17.2,14.9l-2.6,3.4l-10.8,0.6c-5.9,0.3-11.7,1.1-12.8,1.7c-3.6,2-19.4,19-21.2,22.7
		c-0.9,2-2,3.6-2.4,3.6c-1.5,0-10.1,9.2-11.4,12.3c-2.7,6.4-5.9,32.3-5.5,44.8c0,3.1-0.6,9.7-1.4,14.5c-1.7,10.2-2.9,20.1-3.1,25.9
		c-0.6,13.6-1.6,29.4-2.1,31.8c-0.3,1.5-2.8,5.4-5.6,8.5c-2.8,3.1-6.2,8.1-7.6,11.1c-2.4,5.3-2.5,5.7-1.8,20.5
		c0.4,8.3,1.1,22.7,1.5,32.1c0.4,10.2,1.2,17.9,1.9,19.2c1,1.9,1,2.3-0.1,2.3c-0.8,0-12.4-3.7-25.8-8.2l-24.4-8.1l-16.5-0.9
		c-23.7-1.3-36.6,0.6-46.6,6.8c-8.3,5.1-11.4,7.6-13,10.4c-1,1.6-2.2,3-2.6,3s-0.8,0.6-0.8,1.2c0,1.5-13,13.4-14.2,13.1
		c-0.4-0.2-1.3,0.7-1.9,2c-0.6,1.2-2.3,3.4-3.7,4.9c-2.4,2.6-2.5,3-2.3,17.2c0.1,8,0.3,15.1,0.6,15.8c0.4,1.1,1.8,16.4,3.1,33.3
		c0.2,2.7,0.8,7.7,1.4,11c3.8,22.5,3.7,21,4.5,39.5c0.5,12.2,0.4,14.8-0.9,16.5c-2.5,3.3-1.9,7,2.2,12.2c9,11.7,9.7,12.6,7.3,11.3
		c-2-1-2.2-1-1.3,0.7c0.6,1,3.4,4.1,6.4,6.9c16.2,15.6,44.6,46.9,57.5,63.4c11.7,15.1,27.3,38.6,27.3,41.3c0,0.4-54,0.7-120,0.7H0
		V424V-1z M126,227c-0.5,0-1,0.5-1,1.1c0,0.5,0.5,0.7,1,0.4c0.6-0.3,1-0.8,1-1.1C127,227.2,126.6,227,126,227z M678.6,462
		c-0.3,0-0.8,0.4-1.1,1c-0.3,0.5-0.1,1,0.4,1c0.6,0,1.1-0.5,1.1-1C679,462.4,678.8,462,678.6,462z M541.6,783.9
		c-0.3,0.5,1.8,1.9,4.7,3.1c19.7,8.4,47.8,24.6,58.4,33.6c4.9,4.2,7.3,5.4,7.3,3.6c0-1.4-14.8-12.5-25.3-19
		c-11.7-7.3-22.2-12.7-35-18.3C541.4,782.5,542.3,782.7,541.6,783.9z M510.8,788.3c-2.5-1.8-4.9-3-5.2-2.5s4.5,4.8,10.7,9.5
		c6.1,4.7,17.7,14.2,25.7,21.1c14,12.1,16.5,14,15.4,11.3c-0.7-1.6-31.6-28.8-37.4-32.8C517.5,793.1,513.4,790.2,510.8,788.3z"/>
	<path id="path6" fill="#66FFFF" d="M480.2,60c4,0,15.4,7.8,22.2,15.1c3.6,3.9,6.6,7.7,6.6,8.5c0,2.8-1.9,2.2-5.5-1.7
		c-4.1-4.6-7.9-6.9-11.3-6.9c-1.7,0-2.1,0.4-1.5,1.4c1.4,2.3,7.3,6.9,8.1,6.2c0.4-0.4-0.4-1.6-1.8-2.6c-1.4-1.1-2-2-1.5-2
		c0.6,0,3.3,2.2,5.9,4.9c3.4,3.5,4.7,5.5,4.2,6.6c-1,2.7-5.4,1.3-21.5-6.8c-10.2-5.1-15.9-7.3-19.5-7.7l-5.1-0.5l3-1.7
		c1.7-0.9,5.9-4.1,9.3-7.2C475.3,62.5,479,60,480.2,60z"/>
	<path id="path8" fill="#66FFFF" d="M576.5,75c0.8,0.7,1.5,2.7,1.5,4.6c0,3.3-3.7,18-6.7,26.2l-1.5,4.3l-5.2-4.9
		c-2.8-2.7-6.2-5.1-7.6-5.5c-7.1-1.7-32.9-4.8-36.2-4.4c-2.1,0.3-3.8,0.2-3.8-0.3c0-1.2,6.7-2,17.3-2c7.3,0,9.7-0.3,9.7-1.3
		c0-3.8-7.3-4.9-15-2.2c-2.3,0.8-5.4,1.5-6.8,1.5c-2.6,0-2.6,0-0.7-1.9c2.4-2.2,30.1-12.7,38.9-14.7C567.3,72.9,574.2,73.1,576.5,75
		z"/>
	<path id="path10" fill="#6699FF" d="M534.2,77.1l5.2,1.2l-3.9,1.4c-2.2,0.8-6.2,2.3-8.8,3.4c-4.1,1.5-5.6,1.7-9.7,0.8
		c-4.4-0.9-8-3.2-6.8-4.4c0.2-0.3,3.3-1.1,6.9-1.9C525.3,75.8,527.7,75.7,534.2,77.1z"/>
	<path id="path12" fill="#6699FF" d="M479.1,83c5.6,2.8,10.4,5.2,10.6,5.4c0.2,0.2-1.6,0-3.9-0.5c-2.4-0.4-9.5-0.8-15.9-0.9
		c-12.8,0-14.5-0.7-13.3-5.5c0.4-1.5,1.6-3.1,2.8-3.6C463,76.4,468.5,77.8,479.1,83z"/>
	<path id="path14" fill="#6699FF" d="M515.3,86.1c2-0.1,3.7,0.2,3.7,0.6c0,0.3-1.1,2.1-2.6,4c-2.1,2.8-3,3.2-5.2,2.7
		c-4.2-1-4.4-1.4-2-4.4C511,86.8,512.3,86.1,515.3,86.1z"/>
	<path id="path16" fill="#CC3300" d="M524.6,103.5c15.7,10.1,28.6,30.5,34,54c2.7,11.6,2.5,33-0.5,44.4c-2.4,9.5-2.7,10.1-3.6,7.3
		c-0.3-1.1-2.4-3.7-4.5-5.6c-4.3-3.8-8.2-4.6-12.3-2.4c-1.2,0.6-3.1,1.2-4.3,1.4c-2,0.2-2.1-0.4-2.7-10.5
		c-0.4-5.8-1.2-12.4-1.8-14.6c-1.9-6.7-7.1-19.5-8-19.5c-1.4,0-1,2.4,1,7.1c2.9,6.6,5.9,18.9,6.6,27.1l0.6,7.3l-3.4-9.5
		c-5.8-16.2-13.8-33-15.8-33c-1.3,0-1.2,0.5,2.2,7.2c2,3.9,3.8,9.9,4.9,16.2c1.9,10.5,1.8,13.3-0.2,7.5c-2.9-8.3-22.8-40.9-25-40.9
		c-0.5,0,1,3.3,3.2,7.4c5,9.2,12.5,31.6,10.5,31.6c-0.3,0-1.5-2.1-2.7-4.7c-5.2-11.8-26.8-41.4-26.8-36.8c0,0.3,1.7,4,3.9,8.3
		c3.5,7.1,8.1,20.8,8.1,24.3c0,0.8-1.1-1.1-2.3-4.1c-4.9-11.7-18.8-32-22-32c-0.5,0,0,1.5,1.1,3.2c4.6,7.8,10.5,32.9,8,34.4
		c-0.4,0.3-1.5-1.2-2.4-3.3s-3.7-8-6.1-13.2c-5.6-12-15.3-25.5-15.3-21.3c0,0.5,1.4,4.8,3.1,9.8c2.7,7.6,3.2,10.6,3.5,20.9l0.3,12
		l-1.4-6.4c-3.7-16.2-11.3-34.3-14.6-34.9c-4.6-0.9-7.2,29-3.6,40.7c2.1,6.7,2.1,6.7,0,5c-5.3-4.5-9.5-24.1-7.7-36.3
		c1.2-8.1-0.3-9-3.4-1.8c-3,6.9-4.4,16.5-4,27.5c0.2,5.4,0,9.7-0.3,9.7s-1.4-3.6-2.4-7.9c-1.8-7.8-1.7-11.7,0.1-25.5
		c0.9-6.7-0.7-5.4-4.5,3.8c-3.4,8.1-6.6,24.3-5.7,28.5c0.5,2.2,0.5,2.3-0.5,0.8c-2-3.3-2.3-15.7-0.5-22.6c1.6-6.4,1.5-8.4-0.5-6.4
		c-1.5,1.5-6.9,23.4-7.9,32.2c-0.8,6.7-0.8,6-0.6-5.9c0.2-7.4,0.6-14.3,1.1-15.3c1-2.5-1.2-2.2-2.5,0.4c-2.5,4.6-2.9,39.7-0.5,46.4
		c0.5,1.6,0.5,1.7-0.4,0.5c-0.6-0.8-2-5.7-3.2-10.8c-1.7-7.4-2-11-1.6-18c0.4-4.8,0.9-9.9,1.3-11.5c0.8-3.3-1-3.6-2.8-0.5
		c-0.9,1.6-1.3,6.4-1.3,14.8c0.1,12.1,0.3,13.4,4.1,22.5c0.7,1.8,0.6,1.9-1,0.6c-3.4-2.8-6.9-10.2-7.1-15.2c-0.5-7.7-2-5.3-2,3.1
		c0,6.1,0.5,8.5,2.6,12.8c1.5,2.9,2.1,5.1,1.5,4.9c-1-0.3-7-9.4-7.9-12.1c-0.2-0.6-0.8-0.8-1.2-0.4c-0.5,0.5-0.3,2,0.4,3.4
		c1.6,3.7,0.6,4.2-1.3,0.6c-2.4-4.7-3-12.2-1.3-16.5c1.8-4.2,0.5-5.9-1.8-2.4c-1.9,3-3.8,13.2-3.1,16.3c0.4,1.3,0.3,2.4-0.2,2.4
		c-1.5,0-3.4-8.2-3.4-15c-0.1-5.6,0.5-8.1,3.6-15.1c2.1-4.6,4-9,4.3-9.7c0.3-0.6-0.1-1.2-0.9-1.2c-1.4,0-3.1,2.9-7.7,13
		c-1.2,2.5-3.2,6.5-4.6,8.9s-2.5,5.7-2.5,7.3c0,1.7-0.4,2.7-1,2.3c-0.5-0.3-1-3.5-1-7.1c0-7.6,2.7-16,7-22.2c3.1-4.4,3.7-6.2,2-6.2
		c-0.5,0-2.1,2-3.6,4.5c-2.5,4.4-4.7,5.8-2.5,1.7c1.4-2.5,1.4-3.2,0.1-3.2c-0.5,0-1.6,1.2-2.4,2.7l-1.5,2.8L356,171
		c0-3.2,3.9-11.6,7.4-15.7c1.5-1.8,2.6-3.8,2.4-4.4c-0.2-0.6-4.1,2.8-8.7,7.6c-8.4,8.8-9.7,8.6-4.2-0.5c2.4-4.1,6.1-7.1,15.2-12.5
		l3.4-2l-4.3-0.3c-4-0.3-4.5-0.6-6.3-4.5c-2-4.6-2.7-8.6-0.8-5.4c1.6,2.7,6.4,4.7,11.4,4.7c4.4,0,5-0.4,13.3-8.2
		c4.8-4.6,8.9-8.5,9.2-8.8c2.3-2.7,24.9-16.4,34.5-21c13.6-6.6,17.4-7.8,28.3-8.9C483.2,88.3,507.8,92.8,524.6,103.5z M515,103.9
		c0,0.7,0.5,2.1,1,3.2c1.6,2.8-0.5,9.2-4,12.6c-3.3,3.1-3.7,4.3-1.6,4.3s7.3-6.4,8.1-9.9c0.4-1.7,0.4-4.4,0-6
		C517.8,105,515,101.7,515,103.9z M511.8,111.4c-1.2,2.3-3.2,4.1-6.9,6c-4.9,2.4-6.2,2.6-18.8,2.6c-7.5,0-16.5,0.5-20,1
		c-6.5,1.1-16.1,5.3-16.1,7c0,1.5,1.2,1.2,7.6-1.7c5.5-2.5,7.1-2.7,24.9-3.3c10.5-0.4,19.9-1,21-1.5c5.4-2.2,11.5-8.8,11.5-12.5
		C515,106.9,513.3,108.1,511.8,111.4z M450.5,110.2c-3.3,1.8-11.5,10.1-11.5,11.6c0,0.9,2-0.4,4.8-3c2.6-2.4,6.2-5.3,8-6.3
		c1.7-1.1,3.2-2.3,3.2-2.7C455,108.7,452.9,108.9,450.5,110.2z M411.4,111.4c-1,2.7,0.5,8.2,2.9,10.4c3.1,2.9,4.2,1.6,1.6-1.9
		c-1.1-1.6-2.1-4.3-2.1-5.9C413.7,110.5,412.3,109.1,411.4,111.4z M530.2,116.7c0.8,4.9,0.6,7.1-1.5,14.1c-2.8,9.5-1.4,10.7,2,1.6
		c2.3-6.3,2.9-14.6,1.3-18.8C530.3,109,529.3,110.8,530.2,116.7z M528.8,121.5c-0.5-3.3-0.7-2.9-3.3,5.9c-1.3,4.6-2.7,6.8-6.8,10.7
		c-5.6,5.3-5.8,7.7-0.3,3.5c4.8-3.6,8.2-8.3,9.6-13.1C528.6,126.3,529,123.1,528.8,121.5z M396.7,131c-1.4-1.1-2.8-1.6-3.1-1.1
		c-1.1,1.8,5.8,6.1,9.7,6.1c4.9,0,4.7-1.6-0.1-2.4C401,133.3,398.1,132.1,396.7,131z M411.8,134.1c-0.2,0-2.1,0.9-4.3,2
		c-4.5,2.1-9.1,2.4-13.1,0.9c-3.3-1.3-4.6-0.3-2,1.5c3.6,2.7,10.1,2.9,15.1,0.5c2.5-1.2,4.5-2.8,4.5-3.6S411.9,134,411.8,134.1z
		 M548.1,137.4c-1.3-2.3-1.3-2.3-1.1,9.6c0.1,7.6-0.5,11.8-3,21.2c-3.4,13.2-3.3,12.8-2.1,12.8c1,0,4-8.5,6.7-19
		c1.1-4.6,1.5-8.9,1.1-14.6C549.5,142.9,548.7,138.4,548.1,137.4z M551.5,171.2c-0.4,2.4-2,7.6-3.6,11.7c-1.6,4.1-2.7,7.6-2.5,7.8
		c0.8,0.9,5.7-7.5,7.2-12.3c0.8-2.6,1.4-6.2,1.4-8.1C554,165.6,552.3,166.2,551.5,171.2z"/>
	<path id="path18" fill="#6699FF" d="M551.9,101.7c5.7,1.3,8.2,2.5,11.5,5.4c3.5,3.2,3.9,3.8,2.3,4.4c-2.3,1-22.8-2.3-28.9-4.5
		c-4.1-1.5-14.8-7.8-14.8-8.7C522,97.2,542.2,99.5,551.9,101.7z"/>
	<path id="path20" fill="#66FFFF" d="M575.2,105.1l7,3.7c3.9,2,9.3,5.7,12.1,8.2l5,4.6l-1.8,5.4c-1.7,5.2-7.2,18-8,18.8
		c-0.2,0.3-3.9-2.6-8.2-6.3c-8.2-7-26.8-20-36.6-25.5c-6-3.4-7.1-4.9-2.1-3c4.5,1.8,16.2,4,20.6,4c4.8,0,9-2.7,10.8-6.9L575.2,105.1
		z"/>
	<path id="path22" fill="#CC3300" d="M571.9,136.6c2.5,3.2,7.8,16.8,8.7,22.3c0.4,2.2,1,3.8,1.5,3.6c1.7-1.1,4.9,17.8,4.9,29
		c0,5.7,1.4,9.1,2.6,6.2c1.9-5.1-3.6-41.5-7-45.7c-0.7-0.8-2.7-4.4-4.4-7.8l-3.3-6.4l2.9,2.1c4.6,3.2,9.9,9.6,11,13.2
		c1.4,4.3,5.3,26.1,4.8,26.6c-0.3,0.4-1.5-4.2-3.2-12.5c-0.5-2.3-2.4-3.1-2.4-1c0,2.5,3.9,17.6,5.9,22.7c1.1,2.9,4.7,9.8,8,15.4
		c6.2,10.5,10.3,20.1,11.6,27.2c1,5.6,0.1,4.3-3.4-5.4c-3.1-8.5-9.1-20.4-11.7-23c-2.7-2.9-2.5-0.2,0.6,5.2
		c5.3,9.5,9.1,22.1,9.6,32.2l0.5,9l-2.6-8.3c-2.6-8.7-5.8-15.6-7.5-16.7c-1.6-1-1.3,0.4,3.1,13.6c2.8,8.5,4.2,14.6,4.5,19.4
		c0.3,6.4,0.2,6.6-0.6,2.3c-0.9-5.3-1.6-6.8-3.1-6.8c-0.6,0-0.7,0.9-0.4,2.1c1.6,5,0.5,12.3-3.9,25.1c-2.4,7.3-4.7,14.6-5,16.3
		c-0.6,2.8,0.4,10.4,1.9,15c1.1,3.3-3.1-2.2-6.1-7.9c-2.1-4-2.7-6.9-3.2-15.4c-0.5-7.1-1.1-10.7-1.9-11c-1-0.3-1.3,2.1-1.4,9.5
		c-0.1,9.1-0.2,9.5-1.1,5c-1.5-7.1-3.2-5.9-2.4,1.7c0.6,5.8,1.9,11.4,4.1,17.1c0.6,1.4-0.2,1.1-2.8-1.4c-4.8-4.5-9.6-13.8-10.9-21.1
		c-1-5.8-2-7.4-3.1-4.8c-0.7,2,1.1,13.4,2.8,17.5c2.2,5.3,1.1,5.2-1.4-0.2c-2.5-5.4-4.1-12.8-4.1-19.5c0-5.9-1-11-2.1-11
		c-0.5,0-0.9,2.4-0.9,5.4c0,4.8-2.4,20.3-3.3,21.2c-0.2,0.2-0.3-3.4-0.3-7.9c-0.1-5.2-1-12-2.6-18.7c-1.4-5.8-2.9-12.4-3.3-14.8
		c-0.4-2.3-1-4.2-1.5-4.2c-1.3,0-2,5.7-2.1,16.4l-0.1,10.1l-1.4-5c-1-3.3-1.4-8.6-1.2-15.5c0.3-10.5,0.3-10.6,3.9-15
		c6.4-7.9,8.3-12.6,8.1-20.3c-0.1-4.9,0.5-8.7,2.4-14.4c5.4-16.2,5.4-38.8-0.2-57.8c-3.3-11.4-9.5-24.5-14-29.4
		c-1.9-2.1-3.4-4.1-3.4-4.4C542,114.6,569.9,134.1,571.9,136.6z M576.8,188.6c-0.4,0.3,0,2.3,0.8,4.2c0.8,2,2.7,8.1,4.1,13.7
		c2.4,8.6,2.7,12,2.8,24.7c0,8.2,0.3,14.8,0.7,14.8c1.4,0,2.1-4.8,2.1-15c0-11.7-1.2-19.6-4.8-31.5C580,191.3,578,187.4,576.8,188.6
		z M564.5,193.7c1.5,6,3.3,17.1,3.8,23.3c0.3,3.6,0.3,5.4,0,4c-1-5.2-2.3-4.3-2.3,1.5c0,3.3-0.7,12.7-1.5,20.8
		c-1.5,14.7-1.3,22.1,0.6,28.4c1.6,4.9,3.2,4.2,2.2-1c-1-5-0.6-27.3,0.6-37.2c0.7-5.6,0.9-6.2,1-2.7c0,2.6,0.5,4.1,1.1,3.7
		c2.5-1.5,0.6-27.7-2.7-38.3C565.6,190.9,563.2,188.8,564.5,193.7z M580.6,218.1c1.3,9.5,0.6,19-2.7,34.4c-2.7,12.8-3,16.3-2.5,23.5
		c0.3,4.7,0.6,9.3,0.6,10.2c0,1,0.4,1.8,1,1.8s0.9-4.1,0.8-10.3c-0.1-7.7,0.5-13.3,2.6-23.2c3.4-16,4.2-27.1,2.7-34.7
		C581.5,212.1,579.5,210.8,580.6,218.1z"/>
	<path id="path24" fill="#FFDEAD" d="M451.4,176.6c1.8,7.9,3.5,14.6,3.8,14.9c1.3,1.4,3.1-6.8,3.5-16.5c0.3-8.5,0-11.9-1.6-17.5
		c-1.1-3.8-1.8-7.1-1.6-7.3c1-1.1,11.7,23.9,14.2,33.1c2.2,8.6,3.1,10.6,4.3,10c4-1.8,10.7-1.4,17.1,1c6.7,2.5,14.2,6.7,15.4,8.7
		c1.6,2.5,2.5,0.5,2.5-5.5c0-3.6,0.3-6.5,0.6-6.5c0.5,0,5.3,3.1,7.3,4.7c0.3,0.2,0.7,2.2,1,4.6c1.1,7.7,2.6,3.5,2.6-7.1
		c0-9.7,0.1-10.1,1.4-7c2.9,7,6.2,22.7,6.8,31.8c0.6,9.9-1,25.8-2.9,29.4c-2.3,4.3-16.7,21.3-22.9,27c-7.7,7.2-14.5,11.6-26.7,17.5
		l-9.1,4.5l-6.4-2.5c-8.9-3.6-26.8-14.4-33.3-20.2c-7.4-6.6-10-11.5-11.3-21c-1.3-9.4-5.6-20.2-12.1-30.1c-3.1-4.7-5-8.9-5.4-11.7
		c-0.3-2.4-0.3-3.7,0.1-2.9c2.8,6.8,2.7,6.8,3.3-1.9c0.5-7.8,0.7-8.5,3.4-10.5c2.1-1.5,3-1.7,3.3-0.9c0.6,1.8,2.3,1.6,2.3-0.2
		c0-0.9,1-1.9,2.3-2.4c5.9-2.2,6.3-2.2,7.5,0.4c2.6,5.7,4.5,0.9,3-7.7c-1-5.9,0-25,1.2-22.7c0.4,0.8,1,4.1,1.4,7.3
		c0.9,8.2,4.9,16.5,10.3,21.7l4.5,4.4l-0.5-4c-0.3-2.2-1.3-7.2-2.1-11c-2.4-10.6-1.9-24.7,1.1-33.5
		C440.9,143.7,448.2,162.2,451.4,176.6z M480,193.1c-2.5,0.4-7.7,2.3-8.7,3.1c-1.8,1.4-1.6,3.8,0.2,3.8c1.2,0,1.5,1.4,1.5,6.8
		c0,8.2,2.2,15.1,6,19.2c3.3,3.6,7,3.9,11.7,1c7.3-4.4,9-12.1,4.8-22.3c-1.2-2.9,1-1.9,6.3,2.8c5.7,5.1,7.2,5.5,7.2,2.1
		c0-4.6-11.3-12.1-22.7-15.1C483.2,193.7,480.3,193,480,193.1z M414,198.1c-3.6,1.5-8,6-8,8.1c0,2.6,0.6,2.3,4.6-2.2
		c4.4-4.8,8.3-5.8,14.2-3.4c5,1.9,6.5,1.3,2.8-1.1C424.4,197.4,417.4,196.7,414,198.1z M413.2,202.6c-2.8,1.9-5.2,6.5-5.2,9.9
		s2.6,3.2,3.6-0.3c0.7-2.4,0.8-2.2,1.4,2.3c1.7,11.5,5,18.5,10.3,21.5c3.2,1.8,5.1,0.9,8.5-4.1c2.1-3,2.3-4.2,1.7-9.4
		c-0.3-3.3-1.7-8.1-3-10.8l-2.4-4.7l2.6,0.6c3.8,1,2.5-1.6-2.3-4.3C423.8,200.6,416.5,200.3,413.2,202.6z M492,230.6
		c-1.4,0.8-4.1,1.4-6,1.3c-1.9,0-4.1-0.1-4.7,0c-1.8,0.1-1.6,2.1,0.2,2.1c0.8,0,1.5,0.4,1.5,1c0,1.5,5.5,0.6,9.5-1.6
		c1.9-1,3.5-2.4,3.5-3.1C496,228.7,495.2,228.8,492,230.6z M430.7,237.1c-1,0.6-3.6,0.9-5.8,0.7c-4-0.4-4.4-0.1-3.1,1.8
		c1.4,2.2,5.3,2.3,8.8,0.2c1.9-1.1,3.4-2.4,3.4-2.9C434,235.7,432.9,235.8,430.7,237.1z M442.2,244.1c0.3,2.4,3.3,4.8,4.4,3.6
		c0.4-0.4,0.2-1.8-0.4-3.2C444.8,241.4,441.7,241.1,442.2,244.1z M476.3,248.1c-1.6,0-4.1,0.5-5.8,1c-1.6,0.5-9.1,1.5-16.5,2.2
		l-13.5,1.2l0.3,3.5c0.8,8.7,8.5,19.9,16,23.2c3.6,1.6,4.8,1.7,7.7,0.8c7.5-2.5,14.5-15.6,14.5-27.1
		C479,248.2,478.9,248,476.3,248.1z"/>
	<path id="path26" fill="#6633FF" d="M481,200.9c1.3,2.6,1.3,3.3-0.4,5.6c-1.2,1.6-1.6,1.7-3,0.6c-1.6-1.3-2.2-6.2-0.9-7.4
		C477.9,198.4,479.9,199,481,200.9z"/>
	<path id="path28" fill="none" d="M489.1,207c0.9,0,2.2,0.7,2.9,1.5c1.6,1.9,0,1.9-2.6,0C487.8,207.3,487.8,207.1,489.1,207z"/>
	<path id="path30" fill="#6633FF" d="M489.6,210c0.1,0,0.8,0.8,1.5,1.7c1,1.1,1,1.4,0.2,0.9c-1.6-0.9-1.7,0.6-0.1,2.2
		c1.8,1.8,3.1,1.5,2.3-0.6c-0.5-1.3-0.3-1.4,0.5-0.5c3.2,3-4.3,14-7.6,11.2c-1.5-1.2-1.9-4.1-0.7-5.2c0.3-0.4,1.7,0.3,3,1.5
		c1.9,1.8,2.3,1.9,2.3,0.5c0-0.9-0.9-2.2-1.9-2.9c-1.7-1.2-1.8-1.8-0.8-5.1C489,211.7,489.5,210,489.6,210z"/>
	<path id="path32" fill="#6633FF" d="M478.9,214.7c1.8,1.8,3.5,3.3,3.9,3.3s0.7,2,0.7,4.5l0.1,4.4l-2.7-2.5
		c-1.5-1.4-2.9-3.8-3.2-5.2c-0.3-1.5-0.8-3.8-1.2-5.2C475.8,211.6,475.9,211.7,478.9,214.7z"/>
	<path id="path34" fill="#6633FF" d="M419,212c-0.6,1.1-1.5,2-2,2c-1.1,0-2.3-5.6-1.5-7C417.4,204,420.7,208.8,419,212z"/>
	<path id="path36" fill="#6633FF" d="M416.9,220.5l2.6,2.8c3,3.1,4.5,3.1,6-0.1c1.2-2.6,2.5-2.9,2.5-0.5c0,1.7-4,4.3-6.7,4.3
		c-1.9,0-1.6,1.1,1.4,4.2c1.5,1.5,2.2,2.8,1.6,2.8c-2.1,0-5.5-5.2-6.7-10.5L416.9,220.5z"/>
	<path id="path38" fill="none" d="M430.8,224.9c0.5,1.4-0.5,2.7-1.4,1.8c-0.3-0.3-0.2-1.1,0.2-1.8
		C430.2,223.8,430.4,223.8,430.8,224.9z"/>
	<path id="path40" fill="#FF3366" d="M476,254.3c0,8.7-6,20.2-11.8,22.6c-4.2,1.8-9.3-0.8-14.4-7.2c-4.1-5.3-4.3-6.8-1.5-12.7
		c1.1-2.2,2.1-2.6,8.2-3.2c3.9-0.4,9-1.2,11.5-1.7C475.7,250.6,476,250.6,476,254.3z"/>
	<path id="path42" fill="#FFDEAD" d="M484,175.6c0.9,2.3,0.8,2.4-3.5,2.4H476v-3.8c0-3.4-2.4-14.4-4.5-20.7
		C469.8,148.3,481.5,169,484,175.6z"/>
	<path id="path44" fill="#FFDEAD" d="M485.5,158c1.3,0,15.2,23.7,14.3,24.5c-0.2,0.1-2.2-0.6-4.5-1.7c-3.2-1.4-4.4-2.6-4.8-4.6
		c-0.3-1.5-1.6-6.2-2.9-10.5C486.3,161.5,485.3,158,485.5,158z"/>
	<path id="path46" fill="#FFDEAD" d="M415,174.5c0.9,4.4,2,9.2,2.4,10.6c0.6,2.2,0.4,2.7-1.6,3.3c-5.1,1.3-5.1,1.2-4.5-8.2
		c0.4-4.8,1-9.8,1.4-11.2C413.2,167,413.7,168.2,415,174.5z"/>
	<path id="path48" fill="#FFDEAD" d="M481.9,181.2c4.4,0.3,4.6,0.4,5.8,4.7l1.2,4.3l-3.1-0.6c-1.7-0.3-4.6-0.6-6.4-0.6
		c-3.2,0-3.4-0.2-3.4-3.3c0-1.9,0.3-3.7,0.7-4.1S479.4,181,481.9,181.2z"/>
	<path id="path50" fill="#FFDEAD" d="M491.8,182c0.4,0,2.9,1.3,5.6,2.8c4.3,2.3,5.3,3.5,7.2,8.2c1.2,3,2.1,5.6,2.1,5.7
		c-0.1,0-3.7-1.5-7.9-3.5l-7.7-3.7l-0.1-4.8C491,184.1,491.3,182,491.8,182z"/>
	<path id="path52" fill="#FF3300" d="M599.3,192.4c1.6,2.8,2,4.3,1.1,3.5c-1.8-1.5-4.4-6.2-4.4-8C596,186.3,596.1,186.5,599.3,192.4
		z"/>
	<path id="path54" fill="#CCCC99" d="M549,206c5.6,6,7,16.8,3.3,25.2c-2.1,4.6-9.7,13.8-11.4,13.8c-2,0-0.7-3.5,2.7-7.2
		c4-4.5,7.3-11.1,7.4-14.7c0-1.6-1.5-3.9-4.6-6.8c-3.9-3.6-4.4-4.4-2.9-4.9c1.3-0.5,2.6,0.2,4.6,2.7c3.3,4,3.9,2.1,0.9-2.9
		c-2.9-4.7-6.2-4.4-9.7,0.9c-2.3,3.5-2.8,3.8-3.4,2.3c-0.4-1.1-0.8-3.3-0.8-5.1c-0.1-2.5,0.5-3.6,2.7-4.7
		C542.2,202.2,545.8,202.6,549,206z"/>
	<path id="path56" fill="#FF3300" d="M531,205.2c0.6,1,1.2,9.2,1.5,18.5c0.3,16.1,0.3,16.3-0.4,4.3c-0.5-6.9-1.1-15.3-1.5-18.5
		C530.1,205.1,530.2,204,531,205.2z"/>
	<path id="path58" fill="#FF3300" d="M391.5,217c1.4,1.3,2.5,3.2,2.5,4.3c0,1.5-0.6,1.1-2.5-1.7c-1.4-2-2.5-4-2.5-4.3
		C389,214.9,390.1,215.7,391.5,217z"/>
	<path id="path60" fill="#CCCC99" d="M541.1,215c1.6,0,6.9,6,6.9,7.7c0,2.7-4.4,11.5-6.9,13.7c-2.8,2.5-2.7,0.7,0.4-5.4
		c1.4-2.7,2.5-5.2,2.5-5.4c0-0.3-1.4-1.8-3.1-3.4c-2.8-2.6-3-3.1-1.8-5C539.9,216,540.8,215,541.1,215z"/>
	<path id="path62" fill="none" d="M408.6,238.3c0.3,0.3-0.1,1.8-1,3.4c-1.8,3.3-2.1,2.6-0.6-1.3C407.6,238.9,408.3,238,408.6,238.3z
		"/>
	<path id="path64" fill="#996666" d="M536.1,251c1.7,0,1.9,0.8,1.9,7.4c0,10.7-2.4,22.2-5.7,26.8c-2.7,4-4.1,5.3-4.8,4.6
		c-0.3-0.2-1.1-3.6-2-7.6l-1.5-7.1l3-6.6c1.6-3.6,3.4-8.4,4.1-10.8c0.6-2.3,1.6-4.8,2.1-5.5C533.8,251.6,535.1,251,536.1,251z"/>
	<path id="path66" fill="#996666" d="M412.4,251.5l0.8,5.4c1.1,7,5.1,14.3,10.8,19.3c5.8,5.2,25.6,18.3,31.7,21.1
		c3.2,1.4,6.7,2.1,10.4,2.1l5.6-0.1l0.7,6c1.1,10.9,1,11.4-3.6,14.8c-2.9,2-5.1,2.9-6.7,2.6c-1.3-0.3-3.8-0.1-5.5,0.5
		c-2.7,0.8-18.6,1.9-18.6,1.3c0-0.1,1.1-2.2,2.4-4.6c2.6-4.7,6-18.4,5.1-20c-0.4-0.5-2.1-0.9-4-0.9c-2.6,0-4.2-0.9-6.8-3.5
		c-1.9-1.9-3.9-3.5-4.4-3.5c-0.6,0-0.8-1.1-0.5-2.5c0.3-1.7-0.1-2.7-1.2-3.1c-0.9-0.3-1.6-1.4-1.6-2.4c0-3.1-2.8-5-7.4-5
		c-2.4,0-4.8-0.6-5.3-1.3c-2-2.6-3.3-11.9-2.6-19L412.4,251.5z"/>
	<path id="path68" fill="#FF3300" d="M393.7,259.2c0.2,3.7,0.2,10,0,14c-0.1,4-0.3,1-0.3-6.7C393.4,258.8,393.5,255.5,393.7,259.2z"
		/>
	<path id="path70" fill="#FFDEAD" d="M518.8,262.9c0.5,3.3-2.9,8.2-8,11.7c-2.6,1.8-4.4,3.5-4.1,3.8c1.6,1.5,4.6,0.3,8.3-3.4l4-4
		l0.6,2.7c1,4-3.6,12-11.2,19.6c-3.5,3.5-6.1,6.7-5.7,7.1c0.3,0.3,1.4-0.1,2.4-1c1.3-1.2,4-1.7,9.1-1.8c4-0.1,7.9-0.4,8.6-0.7
		c0.9-0.3,2.4,2.5,4.6,8.5c2.4,6.8,3.8,9.4,5.9,10.6l2.8,1.7l-4.3,4.3c-5.5,5.5-10.4,8.8-20.7,13.9c-10.4,5.3-20.8,8-33.1,8.8
		c-12.2,0.7-15.1-0.5-17.4-7.4c-0.9-2.5-1.6-5-1.6-5.3c0-0.6,3.4-3,13.2-9.4l2.6-1.7l-0.1,3c-0.1,1.7,0.3,3,0.8,3
		c0.6,0.1,1-5.5,1-14.6v-14.7l12.8-9.1c14-10,18.7-14.2,25-22.4C517.9,261.4,518.5,260.9,518.8,262.9z"/>
	<path id="path72" fill="#996666" d="M540.3,263.5l1.7,6.5c1.8,7.3,7.5,19,9.1,19c0.7,0,0.9-3.1,0.5-9.8c-0.4-7.7-0.3-8.9,0.5-5.7
		c1.3,5.2,1.7,28.2,0.5,31.5l-0.9,2.5l2.3-2c1.2-1.1,3.5-4.2,5-6.8l2.7-4.8l2.7,5.4c3.6,7.4,13.6,16.6,13.6,12.5
		c0-0.6,0.9-0.3,2,0.7s1.8,2,1.6,2.2c-0.4,0.4-10-1.4-21.5-4.1c-3.5-0.8-6.3-1-6.7-0.5c-0.3,0.5-2.8,0.9-5.6,0.9
		c-2.9,0-6.7,0.5-8.5,1.2c-4.4,1.6-5.3,0.6-8.7-10.1l-2.6-8.5l3.4-3.5c4.6-4.8,7.3-11.1,8.2-19.6L540.3,263.5z"/>
	<path id="path74" fill="#CC3300" d="M413.4,281.5c8.3,0.5,10,1,7.6,2.5s-2,8.7,0.4,11.1c5.8,5.6,7.9,6.7,10.9,5.7
		c2.2-0.8,3.2-0.7,4.7,0.7c1.1,1,2.6,1.5,3.6,1.1c1.4-0.6,1.6-0.1,1,3.4c-3.6,22.4-22.4,35-52.6,35.3c-9.9,0.1-12-0.1-15.5-2
		c-2.2-1.1-4.8-2.9-5.7-4c-2.4-2.6-4.8-9.8-4.8-14.3c0-3.6,0.2-3.8,3.9-4.4c2.2-0.3,5.2-1.6,6.7-2.9c2.3-2,2.5-2.6,1.5-4.4
		c-0.6-1.2-2.3-2.3-3.8-2.5c-1.4-0.2-2.8-0.8-3-1.5c-0.2-0.6,2.4-4,5.9-7.5c6.8-6.9,16.7-12.7,25.9-15.3
		C403.8,281.5,408.1,281.2,413.4,281.5z M408.5,287c-0.9,0-1.5,0.5-1.3,1.1s0.8,1,1.3,1s1.1-0.4,1.3-1
		C410,287.5,409.4,287,408.5,287z M389.5,298c-0.9,0-1.5,0.5-1.3,1.1s0.8,1,1.3,1s1.1-0.4,1.3-1C391,298.5,390.4,298,389.5,298z
		 M408.3,298.1c-7.4,0.1-13,2.6-19.1,8.4c-4.5,4.4-5.3,5.7-4.7,7.7c1,3.6,5.1,6.6,9.9,7.3c14.5,2.2,29.5-12.7,21.1-21
		C413.6,298.5,412.1,298,408.3,298.1z M377,299.1c-0.7-0.2-1.1,0.2-0.8,0.8c0.4,1.3,1.8,1.6,1.9,0.4
		C378.1,299.9,377.6,299.4,377,299.1z M425.1,305c-1.2,0-2.1,0.4-2.1,1c0,0.5,0.6,1,1.4,1s1.8-0.5,2.1-1
		C426.8,305.4,426.2,305,425.1,305z M431,318.4c0,0.9,0.7,1.6,1.6,1.6s1.4-0.5,1.2-1.2C433.2,317,431,316.7,431,318.4z M367.5,324
		c-0.9,0-1.5,0.5-1.3,1.1s0.8,1,1.3,1s1.1-0.4,1.3-1C369,324.5,368.4,324,367.5,324z M381.5,333c-0.9,0-1.5,0.5-1.3,1.1s0.8,1,1.3,1
		s1.1-0.4,1.3-1C383,333.5,382.4,333,381.5,333z M393,338c0,1.1,0.4,2,0.9,2c1.1,0,2.2-2.6,1.4-3.4C394.1,335.4,393,336.1,393,338z"
		/>
	<path id="path76" fill="#CC9933" d="M409.1,301c6.5,0,7.9,5.7,2.8,11.5c-1.7,1.9-3.5,3.5-4,3.5s-0.9-3.4-0.9-7.5
		C407,301.6,407.2,301,409.1,301z"/>
	<path id="path78" fill="#CC9933" d="M402.5,302c1.9,0,2,0.5,1.7,7.7c-0.4,7.9-1,9.3-4.7,9.3c-1.9,0-2-0.6-1.9-7.6
		c0.1-5.3,0.5-7.9,1.5-8.5C399.9,302.4,401.4,302,402.5,302z"/>
	<path id="path80" fill="#CC9933" d="M394.6,308.2c-0.3,1.3-0.6,4.2-0.6,6.6v4.3l-3-2.1c-3.7-2.6-3.8-4.6-0.3-8.2
		C393.9,305.4,395.4,305.2,394.6,308.2z"/>
	<path id="path82" fill="#FFDEAD" d="M372.2,309.6c2.5,1.5-2.5,2.9-18.6,5.3c-7.4,1.1-10.7,3.3-14.8,9.8c-2.3,3.8-2.5,3.9-5.7,1.3
		l-2.3-2l6.2-6.9c4.9-5.6,7-7.2,10.3-8C351.3,308.1,370.5,308.5,372.2,309.6z"/>
	<path id="path84" fill="#993399" d="M549.8,314.7c-0.2,0.5-3.4,6.8-7.1,14.1c-7.4,14.6-7.6,14.7-25.2,24.5
		c-14.3,7.9-40.9,12.6-54.6,9.7c-7.2-1.6-11.3-4.1-15.1-9.5c-4.3-6.1-4.6-10.3-1.4-17.9c2.3-5.3,3.2-6.5,5.5-6.9
		c1.6-0.3,4.2-0.9,5.7-1.3l2.9-0.6l-2.4,1.7c-1.8,1.4-2.2,2.4-1.8,4.9c1.1,6.7,3.4,10.4,7.8,12.7c3.9,1.9,5.4,2.1,15.4,1.6
		c9.3-0.4,12.5-1,20.6-4c10.8-3.9,18.6-7.7,24.4-11.8c4.9-3.4,12.6-10.6,14.8-13.8c1-1.5,3.1-2.7,5.4-3.1
		C550.1,313.9,550.2,313.9,549.8,314.7z"/>
	<path id="path86" fill="#6699CC" stroke="#6699FF" d="M568.3,316.6c4.5,1.3,9.2,2.4,10.4,2.4c3.3,0,3.4,1.1,0.7,5.5
		c-12.2,19.6-27.8,59.3-36.2,92l-1.7,6.9l-13-0.3c-7.2-0.1-13.2-0.4-13.4-0.6s0.4-2.3,1.2-4.7c0.9-2.4,3.2-9.7,5.2-16.3
		c8.1-26.5,30.2-77.5,37.2-85.6C560,314.4,560.8,314.5,568.3,316.6z"/>
	<path id="path88" fill="#996666" d="M359.3,318.1c0.4,0,0.7,2,0.7,4.5c0,2.8,1,6.6,2.6,10l2.6,5.5l-6.3,6.7
		c-8.5,8.9-10.5,9.3-7.7,1.6c1.6-4.4-0.1-8-5.7-12.4c-2.4-1.9-4.4-4-4.4-4.5c-0.1-0.6,1.5-2.8,3.3-5c2.7-3.2,4.4-4.2,8.7-5.1
		C356.1,318.7,358.8,318.2,359.3,318.1z"/>
	<path id="path90" fill="#CC0066" d="M589.5,324c0.2,0,7.8,3.6,16.8,7.9c23.9,11.6,24.5,12.4,29.7,43.6c1.6,9.9,3.4,19.4,4,21
		c0.5,1.7,1.8,6.3,2.8,10.4c1.6,6.7,1.7,7.9,0.4,13.2c-0.8,3.3-1.8,5.9-2.2,5.9c-0.3,0-1.4-2.5-2.4-5.5c-1.8-5.9-3.6-8-3.6-4.2
		c0,3,3.1,11.8,11.5,33.2c8.7,21.7,8.9,24.2,4.3,41l-1.1,4l-1.1-4.4c-1.2-4.7-3.6-6.8-3.6-3.2c0,1.2,0.9,5.4,2,9.5
		c3,11.4,6.9,33.4,9.1,52.1c2.4,20.4,3.7,60.1,2,66c-0.6,2.2-3.1,7.1-5.6,10.9c-4.9,7.5-5.1,9.6-0.6,5.2l2.8-2.7l0.7,2.7
		c0.5,2-0.3,4.8-3.4,11.3c-3.7,7.7-4,8.7-2.5,9.7c1.4,1.1,1.5,2.2,0.6,8.3c-0.5,3.9-1.8,8.6-2.8,10.3c-3.1,5.3-24.8,16.3-34.5,17.4
		c-5.1,0.6-6.1,0.4-11.2-2.6c-7.2-4.1-8.6-6.3-8.9-14.2c-0.2-4.5-0.9-7.4-2.5-9.9c-1.2-2-2.5-5.2-2.9-7c-0.6-3.1-0.5-3.3,1.1-2
		c3.5,2.9,2.7-0.1-1.8-6.1c-2.5-3.4-5.1-8-5.7-10.3c-1.7-6.3,0-22.2,7.1-66c5.2-31.6,6.6-44.6,5.3-47c-0.9-1.5-1.2-0.9-1.7,3.6
		c-1.6,13.7-7.1,44.8-7.7,44.2c-0.8-0.9-11.3-25.6-12.4-29.1c-0.4-1.5,1-7.3,4.3-17.5c6.9-20.9,10-33.5,11.2-45.2
		c1.6-16,1.7-24.2,0.2-25.7c-0.9-0.9-1.2,0.2-1.2,5.7c0,11-1.9,23.7-6.1,41.5c-4,17-6.8,26-8,26s-10.8-21.7-14.4-32.7
		c-4.2-12.6-5-16.3-7-33.3c-2.4-19.8-2.4-20-5.1-21.2l-2.3-1.1l2.4-2.9c1.4-1.6,3.1-5.3,3.9-8.1c0.8-2.9,2.6-9.5,4-14.7
		c9.5-34.9,21.8-66.3,32-82.3C587.4,326.6,589.2,324,589.5,324z M618,353.7c-10,11.4-42.3,60.1-50.1,75.6
		c-7.7,15.2-11.3,26.7-11.2,35.8c0,4.1,0.8,10.2,1.8,13.4c3,10.5,16.3,34.7,17.3,31.7c0.2-0.6-1.2-3.8-3.1-6.9
		c-8.5-14.1-13.7-28.6-13.7-38.2c0-7.2,4.8-21.8,11.9-35.8c6.1-12.3,37.4-60,45.8-69.8c5.5-6.4,6.3-7,9.6-6.9
		c3.9,0.1,4.5-0.4,2.5-2.4C626.2,347.6,622.3,348.8,618,353.7z M584.3,453c-1.7,0-5.2,4.5-7.4,9.4c-3.4,7.7-4,31.6-0.8,31.6
		c0.6,0,0.7-0.9,0.3-2.3c-0.4-1.2-0.7-5.4-0.6-9.3c0.1-7.6,3.6-20,7.4-26.2C584.3,454.5,584.8,453,584.3,453z M634.7,624.7
		c-1.2,10.1-9.2,24.5-18.6,33.8c-3.7,3.6-5.1,5.7-5.1,7.7c0,2.4,0.4,2.8,2.9,2.8c3.9,0,18.5-7.6,23.3-12.1c2.8-2.6,3.8-4.4,3.7-6.5
		c0-2.6-0.1-2.7-1.2-1c-0.7,1-2,2.9-3,4.1c-2.3,3-22.7,13.9-23.8,12.8c-0.5-0.5,1.6-3.3,5.2-6.7c10.8-10.4,18.9-25.1,18.9-34.6
		C637,618.6,635.5,618.5,634.7,624.7z M616.8,641.5c-5.5,5.3-9,7.9-12.7,9.2c-2.8,1-5.1,2.1-5.1,2.5c0,1.2,3.7,0.9,7.3-0.6
		c3.5-1.4,19-15.2,19.5-17.3C626.5,632.7,624.4,634.2,616.8,641.5z"/>
	<path id="path92" fill="#FFDEAD" d="M327.7,326c0.3,0,4.9,3.3,10.4,7.2c9.5,6.9,10,7.5,9.5,10.3c-0.9,4.3-2.2,5.2-4.3,2.7
		c-1.5-1.9-15.5-10.4-18.7-11.5c-0.7-0.2-0.3-2,0.8-4.5C326.5,327.9,327.5,326,327.7,326z"/>
	<path id="path94" fill="#6699CC" stroke="#6699FF" d="M439,329.5c0,0.3-2.1,5.4-4.6,11.3c-10.3,24.1-19.4,50-25.3,72.7l-2.6,10
		l-11.2,0.3c-6.2,0.1-11.3,0-11.3-0.3c0-1.1,6.4-24,11.5-41.1c6-19.9,11.9-37,13.6-39.1c2.3-2.7,2.9-1.2,1.1,2.4
		c-5.9,11.8-13.7,36.3-21.2,67.1c-2.1,8.2-2.2,11.7-0.4,10c0.3-0.4,3.7-12.4,7.5-26.7c4.4-16.8,8.9-31.4,12.7-40.7l5.8-14.5l5.4-2.3
		c3-1.2,7.8-3.8,10.5-5.9C434.9,329.5,439,328,439,329.5z"/>
	<path id="path96" fill="#FFDEAD" d="M332.5,341.9c4.4,2.3,7.6,4.8,8.8,6.8c1.7,3.1,1.7,3.1-1.7,10.7c-3.8,8.4-6.2,10.2-4.1,3.2
		c2.2-7.2,1-9.4-8.2-15.6c-10-6.8-9.9-6.6-8.3-8.5C320.7,336.4,323.6,337.1,332.5,341.9z"/>
	<path id="path98" fill="#FFDEAD" d="M370.3,341.6c1.2,0.3,2.5,0.9,2.9,1.3c0.4,0.3-1.8,3.5-4.8,7.1c-7.8,9.2-11.7,15.3-15.4,24.5
		c-2.8,6.6-4.7,9.4-11,16c-4.3,4.4-8.3,9.1-9,10.3c-1.6,3.3-3.1,29.8-2.4,46.2c0.2,7.4,1.2,20.7,2.1,29.5l1.5,16.1L331,499
		c-4.4,8.8-11.3,18.4-15.7,21.7l-3.6,2.8l-4.4-5c-3.1-3.5-5.5-8.1-8.4-15.4c-3.9-10.1-4.1-10.7-3-16c3-15.3,7.5-58,9.1-86.3
		c0.5-8.6,1.3-18.2,1.9-21.5c0.6-3.2,1.7-11.6,2.5-18.6c1.5-12.9,3.1-17.7,6.1-17.7c2.2,0,16.9,9.9,17.6,11.8
		c0.6,1.6-2.7,18-3.8,19.2c-1.1,1.2-3.3-3.7-3.3-7.3c0-3.1,0.3-3.8,1.5-3.3c0.9,0.3,1.5,0,1.5-0.9c0-1.5-7.7-8.5-9.4-8.5
		c-2.1,0-1,10.4,2.2,20.9c3.4,11.1,3.9,15.9,2.1,20.9c-0.6,1.7-0.9,3.9-0.6,4.9c0.7,3.1,4.7-6.7,4.7-11.8c0-2.5-0.7-6.8-1.5-9.5
		c-1.9-6.2-1.9-6.1,0.5-3.9c1.9,1.7,2.1,1.7,4,0c1.1-1,2-2.4,2-3.2c0-0.8,1.3-1.9,2.9-2.4c2.3-0.8,3.5-2.4,5.7-7.5
		c3.4-8.1,4.9-9.5,7-6.6c2.2,3.2,4.8,2.7,7.6-1.6c1.4-2,4.6-5.9,7.2-8.5C367.1,341.8,368.5,341,370.3,341.6z"/>
	<path id="path100" fill="#CC0066" d="M405.7,344.2c-4.8,10.9-16.6,47.2-16.8,51.7c0,0.9-0.3,1.1-0.5,0.5c-0.3-0.6,0.9-6.9,2.6-13.9
		c3.5-14.9,3.7-17.8,1.3-17.3c-1.5,0.3-6.2,7.1-6.3,9c0,1.9,2.1,0.5,3.5-2.3c0.9-1.7,1.8-2.9,2-2.7c0.1,0.1-0.8,4.3-2.1,9.3
		c-1.2,4.9-2.6,11.6-3,14.7c-0.3,3.2-1,5.8-1.3,5.8c-1.4,0-6.1-14.2-7.6-22.7c-0.8-4.8-1.7-10-2-11.4c-0.5-2.3,0.6-3.6,9.5-11.2
		c5.5-4.8,11-8.9,12.3-9.1c1.2-0.3,3.1-0.7,4.2-0.9C405.3,342.9,406.2,343,405.7,344.2z"/>
	<path id="path102" fill="#CC0066" d="M441.1,346.6l3.3,6c4.2,7.5,9.1,11.1,18.1,12.9c8.8,1.9,15.7,1.9,26.5,0
		c14.9-2.6,30.4-8.6,40.7-15.6l4.2-2.9l-4.5,10.7c-12.7,30.1-20.6,56.6-20.8,69.4c0,2.1,0.9,4.8,2.3,6.7l2.2,3.2l-38.8-0.1
		c-21.3,0-44.8,0.3-52,0.7C415,438,409,438,409,437.5c0-0.4,0.8-1.9,1.9-3.3c1-1.5,2.9-6.3,4.1-10.7c6.2-22.7,18.4-59.4,23.7-71.3
		L441.1,346.6z"/>
	<path id="path104" fill="#CC0066" d="M372.5,364.8l0.9,4.4c2.8,14.1,5.1,22.2,8.3,29.1l3.7,7.8l-2.8,12c-2.3,10.2-2.6,12.5-1.6,15
		c1,2.2,1,4,0.1,7.5c-1.2,4.8-1.2,5.4,2.1,22.4c1.4,7.8,2,15.7,2.2,30.5c0.2,11.1,0.9,22.3,1.5,25.2l1.3,5.2l-7.7,12.3
		c-7.3,11.6-22,30.1-30,37.8l-3.6,3.5l-15.7-5.4c-8.6-3-20.9-7.4-27.2-9.7c-11.3-4.1-11.5-4.3-13.4-8.6c-1.6-3.5-2.2-8.2-3-25.8
		c-0.5-11.8-1-26.7-1.1-33v-11.5l4-5.7c2.2-3.2,4.3-5.7,4.7-5.8c0.9,0-0.1,6.5-1.8,11.9c-1.9,6.1-1.8,8,1.1,16.3
		c5.1,14.4,14.2,26.7,18.9,25.2c5.9-1.9,15.4-13.3,21.1-25.6c2.6-5.6,3.3-14.4,1.6-20.4c-0.5-1.7-1.2-6.4-1.5-10.5l-0.7-7.4l2.6,3
		c4.1,5,6,11.9,4.6,17.7c-1.4,6.1-1.5,18.8-0.1,18.8c0.6,0,1-2,1-4.5s0.4-4.5,0.8-4.5c0.5,0,1.8,1.7,2.9,3.7
		c1.7,3.2,2.1,6.2,2.6,18.8c0.5,15.1,1.1,18.5,2.9,18.5c0.7,0,0.8-2.9,0.4-8.3c-0.4-4.5-0.7-11.8-0.8-16.2
		c-0.1-9.2-0.7-11.3-4.9-16.6c-2.5-3.2-2.9-4.5-2.4-7.1c1.4-7.3,1.1-7.1,7.3-2.9c3.1,2.1,6.9,5.2,8.4,6.7
		c2.9,3.1,8.7,14.3,10.8,20.9c2.9,8.9,4,10.7,5.5,9.5c1.9-1.6,2-10,0.1-12.6c-2-2.7-2.8-1.3-1.5,2.4c0.6,1.7,0.9,3.7,0.7,4.3
		c-0.2,0.6-1.7-2.5-3.2-7c-4.9-14.1-11.5-22.5-21.6-27.6c-3.3-1.7-5.1-3.4-6-5.7c-0.8-1.8-2.9-5.7-4.7-8.6s-3.3-6-3.3-6.8
		c0-0.9,2.1-5.1,4.6-9.3c4.5-7.4,4.6-7.8,4.5-15.3c-0.2-9.2,0.8-11.9,8.5-23c6.4-9.2,9.4-15.3,7.2-14.6c-0.7,0.2-2.2,2.1-3.3,4.1
		c-2.8,5.1-3.9,4.6-3.1-1.4c0.6-4.1,2.5-8.1,9.4-19.1L372.5,364.8z M362.3,428.8c1.7,16,17,55.2,20.3,51.9c0.4-0.3-1.7-5.1-4.5-10.6
		c-4.8-9.3-11.4-30.6-13.6-43.4C363.5,420.5,361.6,422.2,362.3,428.8z M352,505c0,0.8,1.2,3.1,2.7,5.2c3.5,5.1,3.9,11.3,1.9,25.2
		c-0.9,6-1.4,11.1-1.2,11.3c2.1,2.1,4.1-5.6,5.2-19.5c0.6-8.5,0.5-9.4-2-14.5C355.9,507,352,502.6,352,505z"/>
	<path id="path106" fill="#99CCFF" d="M386.9,433h9.1c9.5,0,9.7,0.1,6.2,4.2c-1,1.3-3,1.8-6.2,1.8c-4,0-4.9-0.4-6.8-3L386.9,433z"/>
	<path id="path108" d="M408.7,433c0.7,0-3.6,5.8-4.9,6.6c-0.7,0.4,0.1-0.9,1.6-2.9C407,434.7,408.4,433,408.7,433z"/>
	<path id="path110" fill="#99CCFF" d="M528.7,433h10.6l-2.3,2.5c-2.2,2.3-2.8,2.4-9.4,1.9c-6.8-0.6-9.6-1.7-9.6-3.5
		C518,433.4,522.8,433,528.7,433z"/>
	<path id="path112" fill="#6666FF" d="M468.2,440.2l47.6-0.2l2.8,3.2l2.7,3.3l-58.9,0.5c-32.4,0.3-59.2,0.3-59.6,0s0.2-1.6,1.2-3
		c1.6-2.1,2.9-2.6,9.2-3.1C417.2,440.6,441.9,440.3,468.2,440.2z"/>
	<path id="path114" fill="#6666FF" d="M543,441.2c2.7,0.9,2.9,1.4,3.5,7.6c2.4,25.8,4,33.8,10.5,52.6c4.5,13.2,6.8,18.1,11.2,24.3
		c2.1,2.9,2.8,4.7,2.3,6.3c-1,3.1-2.6,2.1-6.2-3.9c-7.9-13.1-15.5-36.9-19.8-62.1c-1.4-8.5-3-16.2-3.4-17c-0.5-0.8-2.3-1.6-4.1-1.8
		l-3.3-0.3l3.3-3.4C539.9,440.6,540.5,440.3,543,441.2z"/>
	<path id="path116" fill="#99CCFF" d="M399.4,448.6c2,2,2,4,0,4.8c-2.4,0.9-3.1,0.8-4.9-1c-1.5-1.5-1.5-1.8,0.1-3.5
		C396.7,446.6,397.4,446.5,399.4,448.6z"/>
	<path id="path118" fill="#6699CC" stroke="#6699FF" d="M474.6,449.2l46-0.2l2.2,3c2.8,3.8,6.3,3.9,9.1,0.4c1.5-1.9,2.7-2.5,4.8-2.2
		l2.8,0.3l2.8,16.5c5.5,32.7,12.6,52.7,24.3,68.9c1.3,1.9,2.4,4.5,2.4,5.7c0,1.3,1.8,6.3,3.9,11.1c5.1,11.5,5,11.1,5.5,23.8
		c0.4,8.6,0.2,11.5-1,13.2c-1.6,2.5-3.4,3-3.4,1c0-0.7-0.5-1.8-1.2-2.5c-0.9-0.9-1.6-0.5-2.9,1.8c-1.7,2.8-2,2.9-11.6,3.3
		c-5.4,0.2-16.4,1-24.5,1.7c-8.1,0.8-15,1.1-15.4,0.8c-0.3-0.4,0-2.3,0.7-4.2c1.1-2.9,1.1-3.8,0-4.8c-1-1.1-1.7-0.7-3.4,1.5
		c-6.6,8.7-7.2,9-14,8.2c-3.4-0.4-8.4-0.7-11.2-0.6c-24.4,0.1-25,0.1-30.9-2.1c-5.1-1.9-6.4-2-10.3-1c-5.6,1.5-8.8,0.3-18.4-7.3
		c-3.9-3-7.7-5.5-8.5-5.5c-2.3,0-1.6,2.4,1.6,5.5c1.7,1.6,3,3.2,3,3.6c0,1-10.6-2.6-13.5-4.5c-1.2-0.8-4.3-4.5-6.8-8.3
		c-4.4-6.4-4.9-7.7-8.1-23.5c-1.9-9.1-4.9-21.5-6.6-27.5c-3-10.3-3.2-12-4-35.3c-0.6-17.3-1.3-26.1-2.4-30c-2.4-8.2-2.2-9,1.8-9
		c2.5,0,3.6,0.5,4.1,1.9c0.3,1,1.9,2.4,3.4,3.1c3.6,1.4,6.7,0.1,8.1-3.5c0.9-2.4,1.3-2.4,13.2-2.8
		C423,449.6,449.2,449.3,474.6,449.2z M405.9,490.6c-2.7,6-2.8,13.7-0.4,22c2,7.3,9.3,21.2,14.6,28c10.7,13.9,31.9,30.4,39,30.4
		c2.3,0,16.3-7.6,26.4-14.4c10.7-7.1,19.4-14.7,24.1-20.9c5.7-7.6,7.6-11.3,10.3-20.2c5.3-17.1-1.9-33.9-17.6-41.3
		c-5.1-2.3-7.1-2.7-15.8-2.7c-11.3,0-14.4,1.1-24.7,9.1l-5.7,4.5l-4.1-4.5c-2.2-2.4-6.2-5.3-8.9-6.5
		C427.4,467.4,413.4,473.5,405.9,490.6z"/>
	<path id="path120" fill="#FF0000" d="M450.4,483l4.6,4.3v7.7c0,4.2-0.3,9.9-0.7,12.5l-0.6,4.8l-14.1-0.7c-7.8-0.4-18.1-1.3-23-1.9
		c-8.7-1.2-9-1.3-9.8-4.2c-3.3-11.5,6.9-27.3,19.7-30.6C433.6,473.1,443.1,476.3,450.4,483z"/>
	<path id="path122" fill="#CC3300" d="M481.7,474.1c2.1-0.1,2.1,0,2,18.9l-0.2,19.1l-7-0.3l-7-0.3l-0.3-16.1
		c-0.3-17.8-0.4-17.3,6.4-19.8C477.7,474.8,480.5,474.1,481.7,474.1z"/>
	<path id="path124" fill="#CC3300" d="M498.4,475.6c1,0.4,1.4,4.6,1.8,17.7c0.3,9.5,0.5,17.3,0.4,17.3c0,0.1-3.4,0.4-7.3,0.7
		l-7.3,0.6v-18.3c0-10,0.3-18.6,0.8-19C487.5,473.8,495.7,474.6,498.4,475.6z"/>
	<path id="path126" fill="#CC3300" d="M501.7,476.7l3.2,1.9c8.5,4.9,14.4,15.5,13.9,24.9c-0.3,4.9-0.3,5-4.3,5.7
		c-2.2,0.4-5.7,0.7-7.7,0.7L503,510v-5.3c0-2.8-0.3-10.3-0.7-16.6L501.7,476.7z"/>
	<path id="path128" fill="#CC3300" d="M466.4,480c0.3,0,0.6,7.2,0.6,16.1v16l-5.1-0.3l-5.2-0.3l0.2-11.5l0.1-11.5l4.5-4.3
		C463.9,481.9,466.1,480,466.4,480z"/>
	<path id="path130" fill="#FF6600" d="M422.5,513.5c5.5,0.8,14.8,1.5,20.8,1.5c9.5,0,10.7,0.2,10.7,1.7c0,1,0.3,4.2,0.6,7l0.7,5.3
		h-7.9c-11.9,0-29.3-1.9-32.4-3.5c-1.8-0.9-3.3-2.9-4.3-5.7c-0.8-2.4-1.8-5.1-2.2-6.1C407.6,511.6,408.9,511.5,422.5,513.5z"/>
	<path id="path132" fill="#FF0000" d="M507.1,512.1c2.3-0.1,2.8,0.4,3.8,4.4c0.6,2.4,1.8,4.8,2.8,5.3c1.4,0.8,1,1.8-3.1,8
		c-5.8,8.8-13.9,16.3-26.3,24.5c-11.1,7.3-23.9,14.4-24.7,13.7c-0.5-0.5-2.6-31.9-2.6-38.9c0-3.4,0.3-3.8,2-3.4
		c3.8,1,7.1-0.6,8.6-4.4c0.9-1.9,1.3-4.2,1-4.9c-0.4-1,0.4-1.4,2.7-1.5c1.8,0,10-0.6,18.2-1.3C497.8,512.9,505.7,512.2,507.1,512.1z
		 M486.6,522.9c-3.8,4-3.7,7.7,0.3,11.3c3.9,3.5,6.1,3.5,10,0.2c4.1-3.4,4.2-8,0.5-11.8C493.8,519.1,490.1,519.2,486.6,522.9z
		 M464.2,539.6C456,543,458,556,466.6,556c4.6,0,7-1.4,8.9-5c2.1-4,1.9-5.4-1-8.8C471.6,538.7,468.3,537.8,464.2,539.6z"/>
	<path id="path134" fill="#CC0099" d="M496.9,530.4c-0.7,1.5-2.4,2.9-3.7,3.3c-5.1,1.2-9.2-4.9-5.7-8.7
		C491.8,520.2,499.5,524.6,496.9,530.4z"/>
	<path id="path136" fill="#CC0099" d="M474,546.8c0,4.6-6,8.3-10,6.2c-3.6-2-3.4-8.7,0.4-11.2C467.7,539.5,474,542.8,474,546.8z"/>
	<path id="path138" fill="#CC0099" d="M461.5,515c4,0,4.5,0.2,4.5,2.2c0,2.9-0.9,4.2-3.8,5.7c-3.2,1.7-5.2-0.1-5.2-4.5
		C457,515,457.1,515,461.5,515z"/>
	<path id="path140" fill="#FF6600" d="M422.8,529.7c4.2,0.7,13.2,1.4,19.9,1.6l12.1,0.2l0.4,7c0.2,3.8,0.2,7.3,0,7.7
		c-0.4,1-15,0.9-22-0.1c-6-0.8-9.3-3.5-14.8-11.8c-1.9-2.8-3.4-5.3-3.4-5.5C415,528.5,418.5,529,422.8,529.7z"/>
	<path id="path142" fill="#FF6600" d="M430.5,548.7l5.5,0.7c3,0.3,8.8,0.6,12.8,0.6h7.2v5.1v5.2l-6.7-0.6c-6.9-0.7-11.5-3-16.4-8.4
		L430.5,548.7z"/>
	<path id="path144" fill="#996666" d="M387.9,533c0.6,0,2.5,7.7,6.6,26.7c1.5,7,3.8,13.8,5.9,18c5.7,11.3,5.3,19.3-1,19.3
		c-5.5,0-18.8-4.6-32.2-11.1l-14.3-7l6.8-7.2c6.8-7.2,23.1-29.3,26.1-35.5C386.7,534.5,387.6,533,387.9,533z"/>
	<path id="path146" fill="#6699CC" d="M212,543.5c18.1,0.4,24.3,1.6,43,8c5.8,2,20,6.4,31.5,10c27.8,8.4,57.1,18.9,72.5,26
		c6.9,3.1,12.9,6.1,13.4,6.5c0.5,0.5-1.8,0.3-5-0.5c-7.3-1.7-42.8-7.9-54.9-9.6c-4.9-0.7-16.6-1.3-26-1.4h-17l-10.9,5
		c-19.4,8.9-26.4,18-30.1,39l-0.7,4l-1.9-5.2c-2.2-6.5-13.7-28.9-15.5-30.4c-2.6-2.2-1.5,1.7,2.5,8.8c7.5,13.3,13.1,28.7,13.1,36.2
		c0,8.2-1,8.9-5,3.6c-3.1-4.1-5-5.6-5-3.8c0,0.4,1.9,3.4,4.2,6.7c3.8,5.4,4.3,6.9,4.9,13.6c0.6,6.6,1.6,9.4,8.4,23.5
		c8.2,17,10.2,24.2,8,28.5c-1.2,2.3-1.4,2.1-5.9-6.7c-2.5-5-5-9.4-5.6-9.8c-2.7-1.6-0.4,4.8,5.9,16.8c10.4,19.6,11.9,27.9,8.2,44.2
		c-1.2,5.5-1.5,8.9-0.9,11c2.6,8.9,4.7,23.7,5.4,37.2c0.4,9.1,1.1,15.3,1.7,15.3c1.1,0,0.3-31.9-0.9-35.9c-0.5-1.7-0.4-2.2,0.4-1.7
		c0.9,0.5,1.2-0.8,1.2-4.3c0-2.8,0.5-5.1,1-5.1c0.6,0,1,1.1,1,2.4c0,1.4,0.7,5.8,1.6,9.8c2.4,11,1.7,33.2-1.8,56.1
		c-1.1,7.4-1.3,7.7-3.8,7.7c-2.1,0-3-0.8-4.4-3.8c-3.3-6.9-11.1-19.7-15.1-24.7c-2.2-2.8-7.1-9.3-10.9-14.5
		c-9.2-12.7-21.4-26.7-42.6-49c-21.5-22.6-25.6-27.6-24.3-29.3c2.1-2.5,10.8-45.9,9.8-48.5c-1.1-2.9-2.2,0.4-4.4,12.9
		c-2.6,14.9-6,30.9-7,33.4c-0.8,1.7-1.2,1.4-3.1-2.9c-1.8-4-2.1-5.9-1.6-11c0.8-7.5-0.7-27.1-3.8-51.1c-4.3-32.2-6-69.9-3.4-74.8
		c1.7-3.3,12.1-15.7,17-20.3c4.6-4.4,19.4-16.4,23.1-18.8c1.2-0.8,5.6-1.9,9.7-2.5C192.1,543.6,202.9,543.3,212,543.5z"/>
	<path id="path148" fill="#6699CC" d="M299.5,586c24.9,2.1,73.9,10.9,99.5,17.9c8,2.2,23.5,6.3,34.5,9c19.1,4.8,42.4,12,56.5,17.4
		c7.6,3,29.8,13.6,35.2,16.9c3.9,2.4,6.5,1.8,3.2-0.7c-1-0.8-5.4-3.3-9.7-5.6c-4.3-2.2-7.7-4.2-7.5-4.4c0.7-0.8,11.3,2.2,17.4,4.8
		c10.6,4.5,20.1,10.2,30.2,18c0.8,0.7,1.2,0.5,1.2-0.6c0-4.6-33.4-23.2-43.8-24.4c-3.7-0.4-5.6-0.2-6.1,0.6s-2,0.5-5.2-1.3
		c-2.4-1.3-8.4-3.9-13.4-5.7l-9-3.4l5.8-0.3c4.2-0.2,6.2,0.1,7.3,1.2c2.8,2.8,25.5,1.6,27.5-1.5c0.5-0.8,0.8-6.9,0.7-13.7l-0.3-12.2
		h7c3.9,0,11-0.5,15.9-1c7.1-0.8,9.1-0.8,9.8,0.2c0.4,0.7,0.8,5.1,0.8,9.8c0,9.2,0.7,13.3,2.1,12.4c1.2-0.7,1.2-16,0-20.2
		c-0.7-2.4-0.7-3.2,0.4-3.2c2,0,2.5,2.4,2.5,12.6c0,5.9,0.4,9.4,1.1,9.4c0.6,0,0.9-3.8,0.8-10.8l-0.2-10.7l4.9-1.2
		c6.2-1.4,12.4-1.6,12.4-0.3c0,0.5-0.7,0.7-1.6,0.3c-1.2-0.4-1.4-0.1-0.7,2.3c0.9,3.2,0.8,8.4-0.2,15c-0.7,4.8-2.2,5.6-12,6.9
		c-6.6,0.8-8.5,1.4-8.5,2.7c0,0.7,2.3,0.8,6.9,0.4l6.8-0.7l2.1,4.8c1.1,2.6,2.3,6,2.7,7.5l0.7,2.8l-4.5-2
		c-5.3-2.4-13.7-3.7-13.7-2.3c0,0.6,3,1.8,6.6,2.7c3.7,0.9,8.4,2.6,10.4,3.6c3.6,1.8,3.9,2.4,4.7,7.7c1,6.9,0.9,17.7-0.1,21.6
		l-0.7,2.9l-3.9-3.5c-2.1-2-4.8-4.1-6-4.7c-3.7-2-3.6-0.1,0,2.7c5.3,4,13,12.1,13,13.7c0,0.7-0.7,1.9-1.5,2.6
		c-1,0.8-1.3,2.1-0.9,3.4c0.4,1.5-0.2,1.1-2.4-1.4c-4.7-5.5-4.9-2.7-0.3,4l4.2,6l-1.6,10.3c-1.8,11.1-5.9,24.6-10.1,32.9
		c-5.7,11.3-10.5,15-16.5,12.9c-3.6-1.2-5.9-0.1-5.9,2.9c0,1-0.7,2.3-1.6,3.1c-1.3,1.1-2.5,0.8-7.4-1.9c-6.9-3.9-7.8-3.9-8.6-0.7
		c-0.8,3.4-3.7,3.3-13.2-0.6c-9.9-3.9-26.1-12.8-27.2-14.9c-1.5-2.8-10.3-8.8-35.1-24.3c-25.7-16-47-28-67.7-38.5l-13.2-6.7l-2.1-7
		c-3.1-10.2-6.5-17.5-8.3-17.5s-2.1,1.1-0.7,2.6c0.8,0.8,8.1,18.5,8.1,19.7c0,0.9-4.4-0.5-6.2-2.1c-0.9-0.8-2.5-3.7-3.4-6.6
		c-2.3-7.3-7.6-16.5-14.4-25c-10.6-13.4-10.9-11.3-0.5,3.4c6.1,8.7,11.1,17,10.2,17c-0.2,0-3.8-2.8-8-6.3
		c-7.2-5.9-28.1-19.8-32.1-21.3c-5-1.9,0.1,2.5,13.4,11.5c9.2,6.2,15.2,10.9,16.4,13c2.1,3.6,3.8,10.1,2.6,10.1
		c-0.4,0-2.8-1.8-5.3-4c-4.2-3.7-6.7-5-6.7-3.3c0,0.3,3.6,3.9,8,8c15.2,14.2,26.9,32.7,27.8,44.2c0.5,5.5,0.6,5.8,9.6,15.1
		c9.2,9.6,11.7,13.6,17.7,28c1.7,4.1,7.3,15.9,12.4,26.1c15.1,29.9,19.7,41.1,27.4,65.6l2.9,9.3h-43.2h-43.2l0.9-10.3
		c1-12.2,0.4-22.3-2.3-41.5c-2.8-19.7-5.4-31.5-10.1-45.9c-3.7-11.3-5.2-14.3-6.5-13c-0.3,0.2,1.3,6,3.6,12.7
		c8.2,24.9,13.5,60.6,12.4,83.8l-0.7,14.3l-11.5-0.3l-11.4-0.3l-6-10.5c-3.3-5.8-9.5-16.4-13.7-23.5c-4.3-7.2-9.3-15.7-11.1-19
		c-1.9-3.3-6.6-11-10.5-17c-3.9-6.1-8.6-13.7-10.5-17c-1.8-3.3-4.6-7.8-6-10c-8.9-13.2-38.2-72.6-42.1-85.4
		c-1.9-6.6-2.1-8.7-1.5-19.6c1-19.2,7.7-40.6,14.9-47.3c3-2.8,24.6-12,30.7-13.1C281.5,584.9,285.2,584.9,299.5,586z M551.9,619.5
		c-0.3,0.2-5.2,0.5-10.9,0.6c-10.7,0.1-13,0.5-13,2c0,1,14.7,1,22.9,0.1c3-0.4,5.6-1.3,5.9-2C557.1,619.1,552.9,618.4,551.9,619.5z
		 M535,653.9c0,0.4,3,2.8,6.8,5.1c3.7,2.4,12.1,9.8,19,16.8c6.8,6.8,12.5,12.2,12.8,12c0.5-0.5-5.7-8.9-9.1-12.4
		c-7.5-7.8-19.4-17.8-23.5-19.9C535.6,652.8,535,652.6,535,653.9z"/>
	<path id="path150" fill="#99FFFF" d="M426.8,591.4l5.7,1.2l-0.4,7.4c-0.1,4.1-0.5,7.7-0.7,7.9s-2.9-0.1-5.9-0.8l-5.5-1.2v-6.4
		c0-3.5,0.2-7,0.5-7.8C421,590.5,422,590.5,426.8,591.4z"/>
	<path id="path152" fill="#99FFFF" d="M459.9,596.6c6.9,2.4,21.9,3.1,29.4,1.5l3.7-0.9v7.2c0,3.9,0.3,9.4,0.6,12.2l0.7,5.2l-7.9,0.5
		c-7.5,0.4-8.8,0.2-27.3-5.6c-21.6-6.8-21.9-7-20.6-15.7c0.9-5.9,1-6,4.6-5c2,0.6,4.3,0.5,6.7-0.3
		C453,594.6,454.3,594.7,459.9,596.6z"/>
	<path id="path154" fill="#99FFFF" d="M521.2,609.9c0.2,6.4,0.1,12-0.3,12.4c-1.2,1.5-19.2,3-22.2,1.8l-2.8-1.1l0.3-12.2l0.3-12.3
		l2.5,0.5c3.7,0.6,7.9,0.4,13-0.6C520.7,596.5,520.8,596.6,521.2,609.9z M515.6,599.7c-0.8,0.8-0.8,11.6,0,16.5
		c1.2,7,2.4,3.9,2.4-6.1C518,601,517.3,598,515.6,599.7z M499.3,600.2c-1.4-0.4-1.8,7.3-0.7,14c1.2,6.9,2.5,3.9,2.2-4.9
		C500.6,603.5,500.1,600.5,499.3,600.2z"/>
	<path id="path156" fill="#6699FF" d="M584,655.5l2.5,4.7c1.8,3.4,2.5,6.3,2.5,10.3c0,6,1.9,11.7,5,15c1.3,1.4,2.2,4.2,2.6,8.3
		c0.6,5.8,0.4,6.9-2.9,14c-1.9,4.2-6,13.6-9,20.7c-8.8,20.9-13.4,27.5-19.2,27.5c-2.5,0-14,5.3-16.6,7.7c-2.2,2-3.2,2.2-7.1,1.7
		c-7.2-1-10.8,0.2-17.5,5.7c-6,4.9-6.3,5-10,4c-5.8-1.6-7.6-1.4-12.7,2.1c-4.3,2.8-5.1,3-8,2c-1.7-0.6-7.8-1.3-13.6-1.7
		c-15.4-1-23-2.1-37.9-5.7l-13.3-3.3l-2.3-4.5c-1.3-2.5-5.4-9.7-9.2-16c-3.7-6.4-9.3-16.2-12.3-21.9c-8-15-10.9-18.9-19.1-26.1
		c-6.6-5.7-7.5-6.9-7.9-10.6c-0.3-2.4-1.3-5.1-2.3-6.2c-1.1-1.2-1.7-3.6-1.7-7V671l8.1,4c34,17.2,92,52.1,104.1,62.7
		c7.1,6.3,23.7,15.5,35.5,19.7c7.1,2.5,10.3,2.6,10.3,0.2c0-0.6,0.4-1.7,0.9-2.4c0.6-1.1,2.1-0.7,7.1,1.8c5.8,2.9,6.3,3,8,1.5
		c1-0.9,2.1-2.7,2.4-4c0.5-2.1,0.9-2.2,4-1.3c1.9,0.6,4.5,0.8,5.9,0.4c7.7-1.9,18.5-24.2,22.8-47.1l1.3-7l0.9,4
		c1.4,6.3,1.7,6.9,2.7,5.9c0.6-0.6,0.3-3.7-0.9-8.4c-4.2-16.9-4.3-17.3-2.8-18.7c1.1-1.2,2-0.4,5.8,4.9c3,4.4,4.5,5.8,4.7,4.6
		c0.3-1.8-1.9-5.3-9.2-14.1c-3.5-4.3-3.8-5.1-2.7-7.3c0.6-1.4,1.1-5.3,1.1-8.7V655.5z"/>
	<path id="path158" fill="#6699FF" d="M358.6,671.5l3.5,3C373.7,684.6,374,685,374,691l-0.1,5.5l-4.2-8.1c-2.3-4.4-5.8-10-7.6-12.5
		L358.6,671.5z"/>
	<path id="path160" fill="#FFDEAD" d="M637.5,684.2c-3.5,15.9-7.1,67.9-4.8,70.2c0.4,0.3,1.2-0.2,1.8-1.3c0.9-1.9,1.4-1.7,7.8,3.3
		c12.3,9.5,22.9,13.6,35.2,13.6c8.1,0,13.5,2.1,21.3,8.5c3.9,3.3,7,6.1,6.7,6.3c-0.7,0.8-8.9-2.9-11.2-5c-2.5-2.4-19.1-5.3-20.7-3.7
		c-1.5,1.4,0.2,2.6,10.4,6.7c8,3.2,9.9,4.5,12.2,7.8c3.1,4.5,2.9,5.4-0.6,2.7c-3.1-2.5-28.4-11.8-29.4-10.9
		c-1.1,1.2,2.6,3.4,11.2,6.6c13.7,5.1,18,7.7,27.6,17.1c5.1,5,9.1,9.2,8.9,9.3c-1.3,1.3-11.6-4.4-18.1-9.8c-8.3-7-10.1-7.7-28.8-12
		c-6.1-1.4-10.9-2.1-11.4-1.6c-1.4,1.4,4.5,6.3,17.7,14.6c12.1,7.6,22.7,15.8,22.7,17.4c0,0.5-1.2,0.5-2.7,0.1
		c-4.3-1.2-28.2-13.4-33.8-17.3c-2.8-1.8-8.7-4.7-13-6.2c-4.4-1.6-11-4.2-14.7-5.7c-11.5-5-13.7-3.6-9,5.7c3.8,7.7,7.4,18.8,7,21.6
		c-0.3,1.9-0.6,1.8-2.9-1.8c-1.4-2.1-7.1-9.6-12.6-16.6c-15.1-19.1-14.9-18.7-13.4-27.2c2.7-14.7,2.6-35.4-0.6-79.5
		c-0.6-9-0.5-9.4,1.3-8.6c6.6,2.8,11,2.9,19.5,0.2c4.6-1.5,9.8-3.6,11.4-4.7C636.5,681.3,638.2,681.4,637.5,684.2z"/>
	<path id="path162" fill="#6699FF" d="M378.1,697c0.3,0,4,3.7,8.3,8.2c6.5,6.9,10.1,12.1,20.9,30.8c15.1,26.2,22.7,41.5,25.6,52
		c1.1,4.1,3.7,12.2,5.6,18c4,11.8,12.5,40.3,12.5,41.9c0,0.6-1.3,1.1-2.8,1.1c-2.8,0-3-0.3-6.6-12.3c-6.9-22.4-13.2-37.2-28.4-66.7
		c-5-9.6-10.2-20.4-11.5-24c-4.6-12.3-7.8-17.3-17.1-26.8c-9-9.3-9-9.3-9.1-14.5c0-2.9,0.5-5.7,1-6.4
		C377.1,697.6,377.8,697.1,378.1,697z"/>
	<path id="path164" fill="#996666" d="M597.5,711.5l0.6,9.5c0.4,5.2,0.7,14.6,0.8,20.7L599,753h-2.7c-2.9,0-9.4-2.7-12.7-5.2
		c-1.8-1.4-1.5-2.2,6-18.9L597.5,711.5z"/>
	<path id="path166" fill="#6699FF" d="M249.6,736.3c2.3,5.1,2.4,5.9,1.5,15.3c-0.6,5.4-1.3,14.4-1.7,19.9l-0.7,10l-1.8-8
		c-1.7-7.4-1.7-8.5-0.3-14.9c1.7-7.9,2-19.6,0.5-24.4C245.6,729.3,246.8,730.4,249.6,736.3z"/>
	<path id="path168" fill="#6699FF" d="M269.3,758.9c2.1,0.8,6.6,7.2,14,19.7c0.4,0.6-1.7,2.7-4.7,4.8c-6.8,4.6-16.9,15.2-16.1,16.7
		c0.4,0.6,3.6-1.7,7.9-5.8c7.5-7.3,12.7-11.3,14.5-11.3c2.7,0,0.6,3-5.6,8.4c-7.2,6.2-9.2,8.6-7.2,8.6c0.7,0,4.3-2.7,8-6
		s7.1-6,7.6-6s4.2,5.7,8.3,12.7c18.5,32.1,25.4,44,26.8,46l1.4,2.3h-33.6c-31.3,0-33.6-0.1-33.6-1.8c0-0.9,0.9-7.8,1.9-15.2
		c3.1-21.4,3.2-23.8,2.2-36c-0.7-7.5-2.1-15-4-21.7c-3.4-11.3-3.7-13.3-1.9-15.1C256.6,757.8,265.8,757.6,269.3,758.9z"/>
</g>
</svg>
