<?xml version="1.0" encoding="utf-8"?>
<!-- Generator: Adobe Illustrator 21.0.0, SVG Export Plug-In . SVG Version: 6.00 Build 0)  -->
<svg version="1.1" baseProfile="tiny" id="图层_1"
	 xmlns="http://www.w3.org/2000/svg" xmlns:xlink="http://www.w3.org/1999/xlink" x="0px" y="0px" viewBox="0 0 850 850"
	 xml:space="preserve">
<g transform="translate(0.000000,0.000000) scale(1.00000,1.00000)">
	<path d="M1,0c0.6,0,1,0.4,1,1c0,0.5-0.4,1-1,1C0.5,2,0,1.5,0,1C0,0.4,0.5,0,1,0z"/>
	<path d="M849,0c0.6,0,1,0.4,1,1c0,0.5-0.4,1-1,1c-0.5,0-1-0.5-1-1C848,0.4,848.5,0,849,0z"/>
	<path d="M507.1,35.1c9-0.2,22.1,6.9,26.4,14.4c4.7,7.9,4.2,18.6-1,26.6l-2.3,3.6l8.2,1c14.5,1.8,23.8,8.7,27.3,20.2
		c0.9,3.1,1.8,5.8,2,6c0.1,0.2,1.8-1,3.8-2.8c4.4-3.8,7.6-4.7,11.1-2.9c7.9,3.8,8.1,10.5,0.6,18.9c-3.5,3.9-4.3,5.4-3.2,5.7
		c0.8,0.3,2.8,1.8,4.4,3.4c2.8,2.9,3.1,4.9,1.1,10c-0.6,1.5-0.1,1.7,4.4,1.1c8.9-1,20.1,5.3,20.1,11.3c0,2.5,0.4,2.8,5.2,3.8
		c3.5,0.8,6.8,4.3,6.8,7.3c0,4.5-2.8,8-8.2,10.6c-5.3,2.5-5.3,2.6-2.6,3.6c1.4,0.5,2.9,1.5,3.3,2.1c0.4,0.7,1.9,0,4.1-2
		c3.9-3.3,8.3-3.9,10.8-1.4c2,1.9,2,4.1,0.1,7.7l-1.5,2.8l5.8-0.7c6.8-0.8,7.2-1,7.2-3.4c0-1,1-3.1,2.3-4.5c4-4.7,13.7-4.5,13.7,0.3
		c0,0.8-1.8,3.2-4,5.2l-3.9,3.6l3.3,3.2c6.5,6.1,7.2,14.2,1.5,18.4c-2.8,2.1-8.4,2.7-10.1,1s0.1-3.2,3.7-3.2c6.7,0,8.4-7.2,3-12.6
		c-3.4-3.3-4-3-4,2c0,5-1.8,7.6-5.1,7.6c-4.1,0-5.4-5.7-2.8-12.4c0.7-1.8,0.4-1.9-4.1-1.3c-2.7,0.4-5,0.9-5.3,1.2
		c-0.2,0.2,0.7,1.8,2.2,3.5c3.6,4.3,3.7,10.6,0.1,12.2c-3.5,1.6-7.2-1.2-9.7-7.3c-1.1-2.7-2.4-4.9-2.8-4.9c-1.5,0-5.5,3.9-4.1,4
		c5.3,0.1,8.2,9.8,4.1,13.5c-2.6,2.3-2.5,3.2,0.3,3.9c3.8,0.9,12.5,10.1,13.8,14.6c1.8,6.1-0.2,13.7-5.1,19.2l-3.8,4.4l5,4.3
		c2.7,2.4,7.4,7.3,10.3,10.9c4.4,5.3,5.2,6.8,4.4,8.3c-0.5,1.1-2.1,1.9-3.4,1.9c-3.3,0-3.8,1.4-1.3,3.6c3.5,3.1,10.8,13.5,10.8,15.4
		c0,2.9-5.6,4.5-16,4.4c-5.2,0-11.2-0.5-13.2-1.1c-2-0.6-3.8-1-4-0.8c-0.2,0.2-0.2,2.5,0,5c0.4,4.3,0.6,4.6,2.6,3.9
		c1.1-0.4,7.7-0.9,14.6-1.1c15.7-0.5,17,0.1,13.9,6.5c-3.1,6.2-10.5,13.9-16.5,17.3c-4.6,2.6-5.3,3.5-6.3,7.6
		c-1.6,6.2-4.2,9.6-8.9,11.7l-3.8,1.7l2.5,5.1c3,6.2,3.6,16.9,1,20.8c-1.2,1.9-1.3,3.3-0.7,5.5c7.1,24,6.4,49.6-2.3,84.4
		c-4.5,18-7.9,27.1-19,50.2c-15.1,31.3-23.5,58.9-24.6,80.5l-0.6,12.1l3.3,7.2c3.3,7.1,6.8,11,12.9,14.3c4.2,2.3,3.9,4.8-1,9.3
		c-5.1,4.6-13.3,8.3-20.2,9.1c-6,0.7-16.1-1.5-21.4-4.6l-3.3-1.9l-1.6,3.2c-4.3,8.4-10.2,11.2-17.8,8.3l-4.3-1.7l-5.3,3.6
		c-4.7,3.2-5.8,3.5-12.2,3.5c-8.2,0-8.2-0.8-0.6,11.9c2.9,4.7,7.9,11.3,11.2,14.5c24.5,23.8,40.4,32.9,77.6,44.4
		c12.9,4.1,28.3,8.8,34.1,10.7c12.2,3.8,35.9,14.9,40.7,18.9c7.1,6.1,11.9,20.2,12.9,38c0.6,9.2,0.5,9.8-1.3,9.4
		c-1.4-0.2-2-1.3-2.2-4.3c-1.2-18.8-4.6-31.7-10-37.6c-6.5-7.3-28.8-17.2-56.7-25.3c-52.6-15.2-69.3-23.8-95.9-49.4
		c-17-16.4-29.7-43.8-32.6-70.4c-1.4-12-0.4-57.3,1.4-71.1c0.9-6,0.9-8.7,0.2-8.7c-0.6,0.1-8.1,6.3-16.6,14
		c-10.7,9.7-17.6,15-22.4,17.5c-6.4,3.2-7.5,3.5-16,3.5c-13.3,0-17-2.1-39.1-21.5c-9.9-8.7-18.5-16.6-19.2-17.4
		c-2.1-2.8-2.2-0.7-0.7,8.4c2,12.5,3.1,66,1.5,77.7c-3.8,28-17.1,53.5-37.4,71.9c-21.2,19.2-37.7,28.1-70.2,38.4
		c-11.5,3.6-24.5,7.5-28.7,8.6c-8.7,2.2-27.3,9.9-39.3,16.2c-12.6,6.6-16.3,14.1-18.9,38.2c-0.9,8.5-1.5,11-2.6,11
		c-1.2,0-1.5-1.6-1.3-8.5c0.4-16,5-31.7,11.2-37.9c6.7-6.6,30.4-17.1,54.6-24.2c53.6-15.7,69.6-23.6,94.8-47.1
		c8.4-7.8,11.3-11.3,16.5-20c3.4-5.8,6.2-11,6.2-11.5c0-0.6-2.6-1.3-5.9-1.6c-8.3-0.9-18.2-4.8-24.4-9.5l-5.3-4.1L306,647
		c-10.6,2.8-24.1,2.7-31.7-0.2c-7.1-2.6-17.6-12.6-17.1-16.1c0.3-1.9,0.9-2.2,4.1-1.9c6.5,0.5,14-2.3,18.1-6.8
		c1.9-2.2,3.8-5.1,4.2-6.6c2-8.1-3.3-35.6-10.2-52.1c-1.9-4.6-8-17.4-13.5-28.5c-5.6-11.2-11.7-24.3-13.6-29.2
		c-4.9-12.5-10-33.3-11.4-46.1c-1.2-11-0.6-31.5,1-40.3c0.8-4.2,0.8-4.3-1.3-3.7c-1.1,0.4-3.2,0.8-4.6,0.9c-2.4,0.1-2.5-0.2-2.8-6.1
		c-0.2-3.8,0.3-7.5,1.2-9.7c1.7-4.1,2-3.7-5.7-6.1c-7.9-2.5-15.3-9-14.4-12.7c0.6-2.1,2-3.1,7.7-5.2c3.9-1.4,7.9-2.6,8.9-2.6
		c3.5,0,2.8-1.3-3.1-5.8c-7.3-5.6-10.3-9.4-9.4-11.8c0.6-1.5,1.7-1.6,9.1-1.2c8.2,0.6,8.5,0.5,8.5-1.6c0-1.4-2.6-4.7-7.3-9.3
		c-14.1-13.6-19.1-32.3-14.3-52.6c2.1-9,3.8-12.2,9.9-18.4l5-5.2l-2.6-0.6c-3.8-1-5.1-2.9-3.7-5.4c1-1.9,0.8-2-2.2-1.4
		c-4.3,0.8-4.3,0.7-1.4,3.6c3.5,3.5,3.3,7.1-0.3,10.8c-2.4,2.4-3.8,2.9-7.6,2.9c-2.5,0-6-0.7-7.6-1.6c-3.8-1.9-4.3-1.5-3.5,3
		c0.5,2.8,1.6,4,4.7,5.8c6.6,3.7,8.6,9.9,5.5,17.2c-2.9,7-10,9.5-16.3,5.6c-6.1-3.7-6.7-14.3-1.2-22c2-2.8,2.9-5.2,2.9-7.9v-4
		l-5.1,3.5c-2.8,1.9-6.1,3.4-7.4,3.4c-3.2,0-7.5-3.7-7.5-6.5c0-5.5,9.9-12.5,17.6-12.5c3.7,0,4-0.2,5.5-4.5c1.8-4.9,1.2-5.5-3.1-3
		c-3.1,1.8-8.2,1.9-9.8,0.3c-1.9-1.9-1.4-6.2,1-9.8c4.1-5.9,11.8-8.5,18.2-6.1c2.1,0.9,2.8,0.6,5-2.4c1.4-1.8,2.6-3.6,2.6-3.9
		c0-0.3-1.5-0.6-3.3-0.6c-6.5,0-9.5-4.7-6.6-10.3c3.7-7.2,11-7.6,18.1-0.9c2.5,2.3,3,2.4,5.8,1.2l3.1-1.3l-3.5-2.9
		c-4.8-4-5-8.6-0.5-12.1l3.2-2.4l-4.2-5.5c-2.2-3-4.1-6.2-4.1-7.1c0-1.6,3.8-3.1,11.3-4.3c2-0.4,3.7-0.9,3.7-1.3
		c0-0.3-1.6-3.8-3.5-7.6c-2-3.9-3.6-8.8-3.8-11c-0.2-3.8-0.1-4,3.2-4.5l3.3-0.5l-4.1-3.3c-5.6-4.5-8.5-10.3-8.5-17.4
		c-0.1-4.9,0.3-6.1,2.8-8.7c4.9-5.1,11.8-5.3,17.3-0.7l2.9,2.4l1.7-4.6c1.8-5.1,5.6-8.2,10.2-8.2c3.7,0,6.5,1.6,10.1,5.7
		c3.5,4,4.9,3.8,5.9-0.7c0.9-4.1,5.2-7.3,8.7-6.6c1.6,0.3,2.8,0.3,2.8-0.1c0-0.3-2-2.7-4.4-5.3c-4-4.2-6.6-9.8-6.6-13.9
		c0-3.1,4.3-10.1,7.4-12.1c5.5-3.3,12.4-2.2,16.9,2.8c2.4,2.7,5.5,1.9,4.9-1.3c-0.3-1.9-1.3-2.5-4.4-3c-2.2-0.4-4.9-1.6-5.9-2.6
		c-2.6-2.6-2.5-8.1,0.1-10.4c2-1.8,2.3-1.8,6.7-0.2c2.5,1,4.7,1.6,4.7,1.5c3.4-7,3.4-7.1,0.4-9.6c-3.2-2.7-3.7-6.5-1.2-10
		c2-2.9,5.2-2.8,8.6,0.5c2.6,2.5,2.9,2.6,4.7,0.9c1-0.9,2.2-3.7,2.6-6.2c1.7-11.4,14.8-16.1,22.4-8c1.9,2,2.3,3.2,1.8,6.1
		c-0.3,1.9-0.4,3.5-0.3,3.5c0.2,0,2-0.7,3.9-1.5c5.1-2.1,8.2-1.9,11.4,0.9c2.6,2.2,2.8,3,2.9,9.6c0.1,5,0.5,7.5,1.5,8.1
		c2.4,1.5,2.9,1,2.9-2.5c0-1.9,0.7-4.2,1.6-5.1c1.6-1.5,1.9-1.4,5.3,1.9c2,2,4,3.6,4.3,3.6c0.3,0,0.9-1.5,1.2-3.4
		c0.9-4.6,7.3-17.3,9-17.9c1.7-0.7,7.5,6,10.7,12.4c1.2,2.4,2.4,4.6,2.5,4.8c0.2,0.2,1.7-0.8,3.4-2.3c1.7-1.4,3.7-2.6,4.5-2.6
		c1.3,0,2.5,4.2,2.5,8.6c0,2.9,0.4,3,4,0.4c1.5-1.1,5.9-3.5,9.9-5.4c7.3-3.5,11.9-6.8,17.5-12.4c4.4-4.4,10-4.5,14.9-0.2l3.5,3
		l1.2-2.9c2.9-7,11.1-11.7,16.4-9.3c1.2,0.5,3,2.7,4.1,4.8c1.1,2.2,2.1,4.1,2.2,4.3c0.2,0.2,2.5-1.7,5.3-4.3c5.1-4.8,7.3-6,15-8.2
		C501.5,35.7,505.1,35.1,507.1,35.1z M474.4,68.7c-1.2,5.3-1.2,5.4,1.2,6.4c5.2,1.9,6,1.3,6.1-4.4c0.2-9.6,4.6-17.1,12.6-21.7
		c7.1-4.1,13.3-4.1,20.3-0.1c10.5,6.1,12.9,16.6,5.7,25.2c-6.8,8-21.4,9.2-25.3,2c-3-5.7,0.3-15.4,6.3-18.4c3.2-1.6,3.9-1.6,7-0.4
		c6.7,2.9,8.8,9.7,4.2,14.2c-2.7,2.8-7.9,3.4-8.8,1.1c-0.8-1.9,0.1-2.6,3.4-2.6c2.7,0,3.9-1.5,3.9-5.1c0-2.5-4.3-5.2-6.9-4.4
		c-5.4,1.7-8.2,11.3-4.3,14.8c4.3,3.9,14.7,1,19-5.3c2.8-4.2,2.8-7.8-0.1-12.1c-6.6-9.8-18.9-10.8-26.8-2.2
		c-4.2,4.4-6.2,9.3-6.3,15.1c0,4.6,0.3,5.7,2.4,7.3c1.4,1.1,4.3,3.4,6.5,5.1c3.4,2.8,4.7,3.3,9.5,3.2c18.6-0.2,31.6-13.8,28.6-29.9
		c-0.9-4.7-6.6-11-13-14.2C501.1,32.9,479.8,45.3,474.4,68.7z M321.9,43.5c-2.6,1.4-5.3,6-4.4,7.4c0.2,0.5,1.5,0.6,2.9,0.4
		c1.3-0.3,2.7,0,3,0.6c1,1.6,5.8,1.3,8.4-0.5c3.2-2.2,2.9-6-0.8-7.9C327.5,41.7,325.3,41.7,321.9,43.5z M459.1,51.5
		c-2.1,4.5-2.6,10.7-1.2,17c0.5,2.6,0.9,2,2.4-4.7c1.9-7.8,3.1-9.8,4.8-8.1c0.6,0.6,0.4,3.2-0.5,6.9c-2.1,8.7-2.6,12.4-1.8,12.4
		C464,75,474,52.5,474,49.9c0-1.4-0.7-3.5-1.6-4.7C469.2,40.6,462.8,43.6,459.1,51.5z M441.9,50.1c-1.1,0.7-1,1.2,0.9,2.4
		c2.9,2.1,5.2,6.6,5.2,10.3c0,1.7,0.6,3.2,1.5,3.6c0.8,0.3,2.1,2,3,3.8c1.5,3.2,1.5,3.2,1.1-4c-0.3-5-1.2-8.5-2.7-11.2
		C448.6,50.9,444.3,48.6,441.9,50.1z M384.7,53.5l-2.5-2.9l-2.7,5.3c-1.4,2.9-3,7.7-3.5,10.5c-0.7,4.5-0.5,5.7,1.8,10.3
		c2.8,5.8,3.3,6.1,5.2,3.8c0.7-0.9,1.9-1.4,2.6-1.1c1.5,0.6,5.4-8.1,5.4-12.1c0-1.5-0.9-4.6-1.9-6.8C388,58.3,386.1,55.2,384.7,53.5
		z M335,63c-1.2,4.6,0.1,15,2.3,18.4c1.6,2.4,5.7,3.7,5.7,1.7c0-0.5-1.4-3.9-3.1-7.5c-4.2-8.9-3.7-9.9,4.9-9.5l6.7,0.4l0.3-5.1
		c0.2-3.7-0.2-5.6-1.3-6.8C346.3,50.4,337,55.5,335,63z M331,56.2c-1.4,0.5-4.8,0.7-7.7,0.5c-3.5-0.4-5.7-0.1-7,0.8
		c-1.7,1.3-1.6,1.4,0.9,1.5c9.4,0.1,13.3,9.9,5.4,13.7c-3.9,1.8-7.2,1.3-10.3-1.7c-3.5-3.2-6.6-2.6-8.6,1.6l-1.7,3.5l4.3-0.6
		c3.7-0.6,4.8-0.3,7.3,1.8l3,2.6l2.9-3.1c2.5-2.7,3.4-3,7.2-2.5l4.3,0.5v-6.5c0-3.9,0.6-7.6,1.6-9.4C334.4,55.2,334.3,54.9,331,56.2
		z M430.5,60c-2.9,5.6-1.7,19.2,2.1,24.4c2.1,2.9,2.5,1.6,1.4-5c-1.2-6.7-0.4-13.4,1.4-13.4c0.9,0,1.5,2.7,1.9,8.7
		c0.4,4.7,1,9,1.5,9.5c1.2,1.2,5.2-14.7,5.2-20.4c0-2.4-0.7-5.4-1.6-6.6C439.7,53.4,433.1,54.9,430.5,60z M300.5,58
		c-0.9,1.5,0.4,4.7,2.2,5.4c2.7,1.1,3.6-0.9,1.8-3.8C302.7,56.8,301.5,56.4,300.5,58z M313,64c-2.2,1.4,2.6,6.2,5.9,5.8
		c3.2-0.4,4.9-3.1,3.2-5.2C320.6,62.8,315.4,62.5,313,64z M423.3,64c-1.8,0-10.9,5-14.5,8c-2.8,2.3-3.8,3.9-3.8,6
		c0,2.8,0.2,2.9,3.1,2.3l3.1-0.6l-0.7,4.2c-0.8,4.6-0.1,5,4.6,2.5c3.7-1.9,7.5-9.5,8.5-17.2C424,66.2,423.9,64,423.3,64z
		 M393.3,74.5c-2.7,5.8-3.9,15.3-2.1,17c1,1.1,7.4-4.5,8.7-7.5c1-2.4,1.5-8.6,1.2-15.8C400.9,62.4,397.8,64.9,393.3,74.5z M364.7,67
		c-1.3,0-0.3,10.9,1.8,17.7c1.3,4.5,2.2,5.6,5.7,7.4c4.3,2.2,5.2,1.9,6.1-2.1c0.8-3.1-3.5-12-8.8-18.5C367.4,69,365.3,67,364.7,67z
		 M342,70.9c0,1.9,2.9,7.2,7.1,12.8c3.9,5.2,4.1,5.3,8.9,5.3c5.6,0,5.6,0,3.7-8.4c-1.1-4.5-1.7-5.2-5.7-7.3
		C350.7,70.6,342,69.1,342,70.9z M448,71c-1.4,0-1.2,1.3,0.6,3.6c1.4,1.7,1.5,1.7,1,0.1c-0.3-1-0.6-2.3-0.6-2.8S448.6,71,448,71z
		 M469.9,72.5c-0.7-0.7-1.9,0.5-1.9,1.9c0,0.6,0.5,0.5,1.2-0.2C469.8,73.6,470.1,72.8,469.9,72.5z M289,78.5c0,1.8,0.7,2.8,2.6,3.5
		c5.7,2.2,7.5-0.2,2.8-3.9C290.8,75.3,289,75.4,289,78.5z M322.4,79.5c-1.3,1.3-2.4,3-2.4,3.8c0,3.9,6.3,16.7,8.2,16.7
		c0.4,0,0.2-1.2-0.4-2.6c-0.9-1.9-0.9-3-0.1-4.3c0.7-1.1,0.8-2.3,0.2-3.2c-1.5-2.4-1-3.8,1.6-4.5c2.9-0.7,3.1-2.1,1-5.1
		C328.2,77.1,325.1,76.8,322.4,79.5z M303,82.5c0,2.3,5.6,4.8,8,3.5c2.3-1.2,2.5-2.3,1-5.1C310.3,77.8,303,79.1,303,82.5z
		 M424.1,80.9c-1.5,2.7-1.4,3.1,0.9,3.1c1.3,0,2-0.7,2-1.9C427,79.3,425.3,78.6,424.1,80.9z M444.4,81.5c-0.8,3.4-0.3,3.8,2.5,1.9
		c1.7-1.3,2-1.9,1-3C446.2,78.3,445.1,78.7,444.4,81.5z M473,79.4c-12.5-0.6-20,2.4-27.5,10.8c-3.6,3.9-3.7,4.2-2,5.5
		c2.9,2,4.3,1.6,9.2-2.6c6.7-6,12.2-7.8,19.1-6.3c14.2,3,19.6,9.1,19,21.3c-0.4,8.3-3.6,13-11.2,16.5c-16.9,7.9-31.4-4.7-22.4-19.5
		c4.7-7.6,17.2-8,20.6-0.6c1.7,3.6,1.5,4.8-0.9,7.9c-3.9,5-9.7,5.7-12,1.4c-1.6-3,0.4-4.7,3-2.4c1.5,1.4,2.4,1.5,3.9,0.7
		c5.4-2.9,2.8-9.1-3.8-9.1c-7.8,0-12.8,10.6-7.8,16.5c2.1,2.4,3.4,2.9,8.4,3.3c4.8,0.3,6.7-0.1,10.4-2c8.3-4.4,11.2-14.7,6.3-22.8
		c-1.9-3.3-8.9-6.7-15.7-7.6c-7.4-1-16.1,4.4-19.7,12.1c-3.9,8.5-1.3,19.4,5.8,23.8c9.7,6.1,23.4,7.7,31.1,3.8
		c10.4-5.3,16-21.7,11.6-34.3c-1.8-5.4-6.9-11-12.7-13.9C482.7,80.3,479.2,79.6,473,79.4z M537.2,84.4c-10.9-0.7-18.2,2.2-25,10
		c-8.3,9.5-6.2,23.8,4.9,32.6c9.8,7.7,21,7.9,29.8,0.4c5.6-4.8,7.7-10.7,6.1-17.3c-2.5-10.7-12.1-16.8-22-14.1
		c-8.2,2.2-12,6.5-12,13.5c0,5.6,2.5,9.4,7.7,11.7c11.2,4.9,20.2-3.2,14.3-13c-2.3-3.8-5.1-4.1-8-1c-2.5,2.7-2.5,4.4,0,6.5
		c2.5,2.2,2.6,4.3,0.2,4.3c-5.1,0-7-8.8-2.9-13.4c1.2-1.5,3.7-2.9,5.4-3.2c7.3-1.4,14,11.3,9.7,18.5c-2.8,4.7-7,6.4-14.2,5.9
		c-10.4-0.7-15.7-6.2-15.7-16.2c0-5.4,0.4-6.8,2.9-10c4.2-5.5,10.2-7.9,18.6-7.4c8.9,0.5,13.8,3.6,17.5,11.2
		c3.4,7,3.7,13.5,0.7,19.2c-2.4,4.8-9.1,11.1-12.7,12c-3.1,0.8-3.2,1.7-0.1,3.7c2.2,1.5,2.6,1.4,6.8-1.2c4.6-2.9,9.2-8.2,12.4-14.1
		c2.7-5,2.6-16.9-0.2-23c-2.6-5.7-7.7-10.8-13.2-13.2C545.9,85.7,540.9,84.7,537.2,84.4z M385.7,87.4l-1.3-2.5l-1.1,2.4
		c-3.1,6.7-2.3,15.6,1.6,19.1c1.9,1.7,2,1.6,2.7-2.9c0.3-2.6,0.4-6.7,0-9.1C387.3,91.9,386.4,88.8,385.7,87.4z M405.8,86.4
		c-0.9-0.8-8.6,5.7-11,9.3c-2,3.1-4.2,9.3-3.3,9.3c1.3,0,7.4-2.6,8.7-3.8c0.9-0.8,2.7-4.3,3.9-7.9C405.2,89.8,406,86.7,405.8,86.4z
		 M313.9,88.6c-1.3,1.6-7.4,1.6-11.3-0.1c-1.4-0.6-1.7-0.4-1.5,1c0.3,1.6,1.5,1.8,8.1,1.9c8.2,0.1,9.2-0.2,8.2-2.8
		C316.6,86.6,315.6,86.6,313.9,88.6z M332.5,89.1c-0.5,0.6,1.5,3.2,5.4,7l6.3,6.2l5-0.6c2.8-0.4,5.3-0.9,5.7-1.2
		c0.9-0.9-4.1-9.6-6.3-11.1C344.8,87,334.9,86.8,332.5,89.1z M416.5,90.1c-6.3,2.4-7.8,3.6-9.8,7.5l-1.6,3.2l3.5,0.6
		c2.6,0.5,4.3,0.2,6.8-1.4c3.7-2.2,10.6-9.4,10.6-11C426,87.5,422,87.9,416.5,90.1z M273,97.6c-1.7,5.1,0.8,11.3,6.6,16
		c2.5,2,4.7,3.5,4.9,3.2c0.3-0.3-0.2-2.4-1-4.8c-1.9-5.3-1.9-8-0.1-8c0.9,0,2.3,2.7,3.7,6.7l2.3,6.8l1.3-4.5
		c2.7-8.9,1.6-16.8-2.8-20.9C283.1,87.7,275.3,90.6,273,97.6z M429,92.7c0,0.8,1.3,1.3,3.7,1.3c3.5,0,3.6,0,1.8-2
		C431.9,89.1,429,89.5,429,92.7z M503.7,90.7c-2.3,0.4-2.7,0.8-2.1,2.6c1.3,4.2,2.5,7,2.8,6.6c0.1-0.2,1.5-2.5,3-5.2
		C510.3,89.6,510.4,89.7,503.7,90.7z M360.2,93h-4.3l1.7,3.2c2.7,5.2,12.2,14.1,14.2,13.3c0.9-0.4,3.2-0.9,5-1.2
		c3-0.5,3.3-0.8,2.7-3.2c-1-4.5-4-7.5-9.6-9.8C366.9,94.1,362.6,93,360.2,93z M303.7,95.7c-1.2,1.2-0.7,3.1,1,3.7
		c1.7,0.7,3.3-0.9,3.3-3.2C308,94.9,304.8,94.5,303.7,95.7z M312.5,97.5c-4.2,4.1-3,15.9,2.1,22.1l2.4,2.9l-0.7-3.5
		c-1.3-6-1-10.5,0.7-10.5c0.9,0,1.7,1.5,2.2,4.4c1,5.8,1.4,6,2.7,1.4c1.7-6,1.3-12.4-0.9-16.1C318.6,94.3,315.8,94.1,312.5,97.5z
		 M297.1,97c-1.3,0-1.6,0.8-1.3,4c0.2,2.2,0.8,4,1.2,4c1.7,0,3.1-2.9,2.4-5.4C299.1,98.1,298.1,97,297.1,97z M422.2,100
		c-2.3,1.4-3.2,2.6-2.8,3.6c0.3,0.9,0.2,2.3-0.4,3.3c-0.8,1.5-0.3,2,2.9,3c3,0.9,4.8,0.8,8.5-0.3c4.3-1.3,13.5-7.2,13.6-8.8
		c0-0.3-1.4-1.1-3.1-1.7C435.5,97.2,426,97.7,422.2,100z M338,102c-0.5,0-1,0.4-1,1c0,0.5,0.5,1,1,1c0.6,0,1-0.5,1-1
		C339,102.4,338.6,102,338,102z M569.7,113.7c-4.5,8.4-3.4,9.6,2,2.3c3.6-4.9,6.3-6.4,6.3-3.7c0,0.8-1.5,3.3-3.2,5.7
		c-6.9,9.1-6.8,8.7-1.9,6c5.2-2.9,12.1-11.2,12.1-14.5c0-1.3-1-3.1-2.2-3.9C578.2,102.4,574.6,104.7,569.7,113.7z M354.1,105.1
		c-5.8,0-15.9,2.3-17.5,3.9c-1.5,1.5,8.4,4.8,19.9,6.5c3.3,0.5,4.7,0.2,6.9-1.6l2.7-2.2l-3.2-3.3C359.9,105.3,359.1,105,354.1,105.1
		z M395.3,107.9c-3.7,1.9-2.6,3.1,3,3.1c6.2,0,15.1-3.5,12.7-5C408.3,104.3,400,105.3,395.3,107.9z M326.3,111.7
		c-0.6,3.2-0.9,5.9-0.8,6.1c0.2,0.2,1.2-0.1,2.3-0.7c2.9-1.6,7.8-1.4,11.3,0.4c1.6,0.9,3.5,1.3,4.1,0.9c0.6-0.4-2.1-2.3-6.3-4.3
		c-5.5-2.7-7.5-4.2-7.7-5.9C328.6,104.3,327.4,105.8,326.3,111.7z M298.6,108.5c-1,0.8-2.2,1.6-2.7,1.7c-0.4,0.2-1,1.5-1.4,3
		l-0.7,2.6l4.9-2.4c2.6-1.4,4.8-2.9,4.7-3.4c-0.1-0.6-0.2-1.5-0.2-2C302.9,106.6,300.8,106.8,298.6,108.5z M440,109.7
		c-2.9,3.7-2.2,10.5,1.6,16.3c5,7.6,18,15.2,28.1,16.5c5.1,0.7,5.3,0.6,6.3-2c1.4-3.6,0.9-4.1-4.7-4.8c-7.1-0.8-15.4-4.2-20.1-8.3
		c-4.4-3.7-7.2-10.4-7.2-17.1C444,106.3,442.8,106.1,440,109.7z M412.7,111.1c-1.8,0.6-4.7,2.3-4.7,2.8c0,0.3,1.7,2.3,3.7,4.5
		l3.6,3.9l7.5-0.6c12.6-1,11.9-3.7-2.1-8.2C416.4,112.1,412.8,111,412.7,111.1z M379.8,112c-4.7,0-13.4,3.6-15.8,6.5
		c-1.4,1.7-1.2,1.8,4.8,1.3c6.1-0.6,15.2-4.7,15.2-6.8C384,112.4,382.1,112,379.8,112z M433.4,113c-0.8,0-1.2,0.5-0.9,1
		c0.6,0.9,2.5,0.5,2.5-0.6C435,113.2,434.3,113,433.4,113z M505.9,118.7l-2.7-5.8l-1.2,3.6c-1.6,4.9-0.2,8.1,6.4,14.3
		c7,6.6,10.9,8.6,13.6,7c2.7-1.7,2.6-2.2-1.5-4.1c-1.9-0.9-5.3-3.3-7.6-5.4C510.6,126.2,507.5,121.9,505.9,118.7z M303.3,115
		c-1.2,0-5.6,3.1-7,5c-1.9,2.3-1.5,11,0.6,15.5l1.9,4l0.1-6.1c0.1-5.9,2.1-10.8,3.8-9.1c0.4,0.5,0.6,3.5,0.5,6.8
		c-0.2,3.2,0,5.9,0.5,5.9c0.5,0,2.2-2.7,3.8-5.9c3.1-6.7,2.9-9.8-1-13.7C305.2,116.1,303.7,115,303.3,115z M394,115.3
		c0,0.2,0.9,2.2,2,4.5c1.1,2.2,2,4.8,2,5.7c0,1.9,6.8,5.1,12.8,6.1c3.4,0.5,4.2,0.4,4.2-0.9c0-2-8.4-13.3-10.9-14.6
		C402.4,115.1,394,114.5,394,115.3z M389.7,117.1c-2.4-1.9-3.1,0.5-2.5,8.2c0.5,6,3.9,14.7,5.7,14.7c2.6,0,2.7-12,0.2-17.5
		C392.1,120.3,390.6,117.9,389.7,117.1z M352,119c-2.6,0-4.3,0.5-4.6,1.5c-0.6,1.6,1.4,8.5,2.4,8.5c1.8-0.1,5-4,5.7-6.8
		C356.2,119,356.1,119,352,119z M383.2,124.3l-0.7-5.1l-3.8,2c-2.9,1.4-4.5,3.2-6.2,7.1c-2.8,6-4.2,13.2-2.8,14
		c1.1,0.7,11.8-8.4,13.2-11.2C383.4,130.2,383.5,127.1,383.2,124.3z M328.8,121.1c-2.6,1.4-2.2,2.9,0.7,2.9c2.8,0,7.5-2,7.5-3.2
		C337,119.7,330.9,119.8,328.8,121.1z M277.8,123.6c-4.4-0.7-4.9-0.5-5.9,1.8c-1.5,3.3-0.5,7,2.3,8.3c1.3,0.6,4.4,2.7,7,4.6l4.8,3.7
		l0.6-2.5c0.8-3.3,0-4.2-4.6-5.6c-2.2-0.7-4-1.8-4-2.6c0-1.9,4.9-1.6,9.3,0.6c2.4,1.2,3.7,1.5,3.7,0.7c0-2-3-5.5-5.8-7
		C283.7,124.9,280.4,123.9,277.8,123.6z M341,125.9c-1.3,2.5-1.3,6.8,0,7.6c2.7,1.7,5-3.7,3.4-7.9
		C343.6,123.5,342.3,123.6,341,125.9z M361.5,125.7c-1.6,0.9-4.5,2.7-6.3,4.1c-3.5,2.7-10.7,12-9.9,12.8c0.8,0.9,8.8-1.6,14.8-4.6
		c5.7-2.9,5.7-3,9.6-12.8C370.4,123.4,365.2,123.7,361.5,125.7z M430.8,124.1c-0.2,0.1-3,0.6-6.3,1.2c-3.3,0.6-6.2,1.2-6.4,1.3
		c-0.2,0.2,0.3,1.4,1.2,2.8c2.7,4.1,15.6,7.2,19.6,4.7c1.1-0.7,1-1.4-0.7-3.9c-1.2-1.6-3.3-3.7-4.6-4.6
		C432.2,124.7,430.9,124.1,430.8,124.1z M247.1,126.7c-5.2,4.3-2.6,16.2,5.5,25.3c6.1,6.7,8.1,6.6,4.3-0.3
		c-3.1-5.6-3.8-10.7-1.5-10.7c0.8,0,1.7,1.2,2.1,2.7c0.7,3.1,6.5,13.6,7.1,13c0.2-0.2-0.6-5.9-1.8-12.7c-1.9-10.5-2.6-12.8-5.1-15.7
		C254.4,124.5,250.5,124,247.1,126.7z M498.6,125c-0.6,0-5.9,6-5.5,6.2c0.2,0.2,2.6,1.4,5.3,2.8c5,2.5,9.7,7.8,12.2,13.7
		c0.8,1.8,1.6,3.3,1.9,3.3c0.5,0,4.5-7.5,4.5-8.4c0-0.2-2.8-2.4-6.3-4.9c-3.5-2.5-7.6-6.4-9.1-8.6C500,126.8,498.6,125,498.6,125z
		 M315.6,127.4c-1.4-1.8-1.5-1.8-2.6,1c-0.6,1.6-0.9,3-0.7,3.2c0.5,0.6,4.7-0.8,4.7-1.5C317,129.7,316.4,128.5,315.6,127.4z
		 M328.5,128c-1.7,0-2.5,0.5-2.2,1.2c0.2,0.7,1.2,1.3,2.2,1.3s2-0.6,2.3-1.3C331,128.5,330.2,128,328.5,128z M567,131.6
		c-5.9,2.7-17.9,10.5-18,11.6c0,0.3,3.5-0.9,7.9-2.8c9-3.9,12.6-4.6,12.6-2.4c0,0.8-2.9,2.5-7.5,4.3c-11,4.1-11.1,5-0.5,4.5
		c10.5-0.5,15.8-2.6,19.2-7.7c2.8-4.2,2.9-5.5,0.3-8.1C578.3,128.3,573.7,128.5,567,131.6z M335,131c-2.1,0-1.8,2.1,0.9,7.5l2.9,5.7
		l1.7-2.6c1.7-2.6,1.7-2.7-0.8-4.6c-1.4-1.1-2.9-2.9-3.2-4C336.1,131.9,335.5,131,335,131z M222.5,134.5c-6,5.9-0.4,19,10.5,24.5
		c8.8,4.5,9.2,1.5,1-6.8c-5.6-5.7-7.5-9.2-4.9-9.2c0.6,0,3,1.9,5.3,4.3c2.6,2.7,5.9,4.9,8.9,5.9c2.6,0.8,4.7,1.3,4.5,0.9
		c-2-4.2-12.9-19.3-15-20.5C229,131.3,225.3,131.6,222.5,134.5z M400.8,133c-2.4,0-2.4,5.6-0.2,9c2.3,3.4,8.6,10,9.6,10
		c2.8,0-2-15-5.5-17.5C403.5,133.7,401.8,133,400.8,133z M321,134c-3,0-4.8,0.7-7.2,2.9c-2.9,2.6-3.1,3-1.5,3.6
		c1.9,0.8,12.7-4,12.7-5.6C325,134.4,323.2,134,321,134z M480.4,140c-1,2.4-3.3,12.5-2.9,12.8c0.2,0.2,1.8-1.3,3.7-3.2
		c5.7-6.2,17.6-7,23.5-1.4c2.6,2.5,2.9,1.9,0.9-2c-1.9-3.7-7.5-8.9-10.9-10.1C489.1,134,482.1,135.9,480.4,140z M268.5,139.7
		c0.2,2.1,0.7,6.2,1,9.1c0.9,7.8,2,9.6,7.8,12c2.8,1.2,5.2,2.1,5.3,1.9c0.1-0.1-1.5-3.1-3.7-6.7c-4.4-7.4-4.6-8-2.1-8
		c1,0,2.6,1.5,3.6,3.5c3.4,6.3,4.6,6.4,4.6,0.7c0-4.5-0.4-5.5-3.5-8.7c-2-1.9-5.3-4.4-7.5-5.5C268.5,135.2,267.9,135.4,268.5,139.7z
		 M381.6,138.9c-3.4,3.6-4.8,9.5-3.9,17.4c0.5,5.4,0.7,5.7,2.3,4.2c2.5-2.2,7-11.6,7.7-15.9c0.3-2.3,0.1-4.7-0.7-6.2
		C385.3,135.3,385,135.4,381.6,138.9z M411,136.4c0,0.2,0.9,2.4,1.9,4.9c1.5,3.5,2.9,4.9,6.3,6.6c4.7,2.2,7.3,2.6,8.2,1.2
		c0.7-1.1-5-9.7-7.7-11.6C417.8,136.2,411,135.3,411,136.4z M440.5,137.6c-2.7,1-5.7,1.4-9.2,1L426,138l3.3,6.2
		c4.1,8,3.7,7.6,5.1,5.3c2.5-4.4,7.8-8.5,11.8-9.2l4.1-0.6l-2.2-1.9C445.4,135.7,445.7,135.7,440.5,137.6z M329.7,137.7
		c-0.3,0.4-0.8,2.4-1.2,4.3c-0.8,4.3,1.3,7.7,4,6.6c1.4-0.5,1.7-1.4,1.2-4.8C333.2,139.8,330.7,136,329.7,137.7z M523.9,141.7
		c-3.8,3.5-8.6,11-7.6,12c0.3,0.2,2.1-0.3,4.2-1.1c5.9-2.5,18.5-3.2,22.3-1.2c4.3,2.2,4.4,2.1,2.7-2.1c-2-4.8-5.2-8.2-9.2-9.9
		C531.1,137.2,528.4,137.7,523.9,141.7z M362.3,141.3c-2.6,1.1-4.3,5.5-4.3,10.8c0,3.3,0.4,4,2.5,4.5c1.8,0.5,3.6-0.2,7.1-2.7
		c5.1-3.7,7.3-6.4,6.1-7.6c-0.4-0.4-1.7-0.2-2.7,0.5c-2.2,1.3-5,1.6-5.1,0.4c0-0.4-0.3-2-0.5-3.7C364.8,139.9,365,140,362.3,141.3z
		 M291.4,142c-1.9,0-2.6,3.3-2.6,11.4c0.1,9.4,1.7,15.6,5.2,19.5c5,5.4,6.8,3.8,4-3.7c-2.5-6.6-3.1-13.7-1-13.7c0.9,0,2,2.5,3.3,7.8
		c1.1,4.3,2.4,7.6,2.9,7.5c0.5-0.2,1.1-3,1.2-6.3s0.6-6.8,1.1-7.9c0.6-1.4-0.6-3.1-6-8.2C295.8,144.9,292.1,142,291.4,142z
		 M305.7,144.7c-0.8,4,1.8,7.7,4.6,6.8c1.2-0.4,3.6-0.9,5.3-1.2c2.4-0.4,3.5-1.4,4.8-4c0.9-2,1.5-3.7,1.4-3.9
		c-0.2-0.1-2.5,0.4-5.1,1.3c-4.3,1.4-4.9,1.4-7.2-0.1C306.3,141.5,306.3,141.5,305.7,144.7z M436.5,157l-0.8,3.5l3-3.2
		c5.5-5.9,16.8-7.6,24.7-3.6c4.9,2.5,2.6-0.8-3.6-5.1C448,140.5,439.3,143.6,436.5,157z M586,146.1c0,0.5,1.2,0.9,2.8,0.9
		c4.4,0,10.4,2,9.9,3.3c-0.4,1.3-2.8,1.4-10.2,0.4c-4.6-0.7-4.8-0.6-3.1,0.8c1.1,0.8,4.4,2.4,7.4,3.5c6,2.3,10,2,12.6-0.9
		c1.5-1.7,1.5-2-0.6-4.6c-1.2-1.5-3.6-3.4-5.4-4.1C594.7,143.4,586,143.9,586,146.1z M347,146.5c-3.2,0.8-6,1-7,0.5
		c-1.1-0.7-1.9-0.1-3,2.3c-2.1,4.5-6,4.8-10.1,0.8c-3-3-3-3-3.8-0.8c-0.7,1.8-0.2,2.8,2.7,5.3c3.1,2.7,4.2,3,7.8,2.6
		c3.2-0.3,5,0.1,7.2,1.6l2.9,2.1l5.1-2.7c4.5-2.3,5.2-3.1,5.2-5.7c0-1.7,0.3-4,0.6-5.3C355.3,144.7,355,144.6,347,146.5z
		 M399.7,147.5c-1.7-2-2.6-2.5-3.1-1.6c-0.5,0.7-1.8,1-3,0.7c-1.9-0.5-2.5,0-3.4,3.1c-0.9,2.8-0.8,4.2,0.3,6.4
		c1.4,2.6,6,6.9,7.5,6.9c1,0,2.8-4.6,3.5-9.1C402,151,401.7,149.8,399.7,147.5z M466.1,145.6l-3.4-0.6l4.9,5.3
		c2.7,2.9,5.2,5.2,5.7,5c0.4-0.3,0.7-2.2,0.7-4.3c0-3.3-0.4-4-2.2-4.4C470.5,146.3,468,145.9,466.1,145.6z M489.2,148.7
		c-2.4,0.3-4.1,1.5-6.2,4.5c-1.7,2.3-3,4.4-3,4.8c0,0.3,3.4-0.1,7.4-0.9c5.9-1.2,8.6-1.3,12.8-0.4c2.9,0.6,5.4,0.9,5.6,0.8
		c0.6-0.5-2.6-6.1-4.2-7.4C499.9,148.7,494.1,148,489.2,148.7z M415,153.9c0,2.6,0.8,3.3,8,6.9c8.9,4.4,8.5,4.6,9.2-3.6l0.3-3.3
		l-5.7-0.4c-3.1-0.2-6.5-0.8-7.6-1.4C416,150.4,415,150.8,415,153.9z M550.8,151.6c-0.8,0.7,0.3,4.6,1.1,4.2c0.3-0.2,1.8-1,3.4-1.7
		c1.5-0.8,2.7-1.8,2.7-2.3C558,150.9,551.7,150.7,550.8,151.6z M552.7,160.9c-2.1,2-4.7,5.3-5.8,7.3c-1.9,3.7-2.6,11.8-1.1,11.8
		c0.5,0,3.3,2.5,6.3,5.5c4.5,4.7,5.8,5.5,7.9,5c3.5-0.9,3.6-1.3,1.1-3.7c-9.6-8.8-4.7-25.8,7.3-25.8c7.1,0,11.6,5.1,11.6,13
		c0,10.1-12.1,12.4-15.9,3.1c-1.5-3.5-0.2-6.8,3.2-8c4.8-1.8,9.5,2.6,6.2,5.8c-1.5,1.5-1.7,1.5-3.1-0.3c-2-2.8-4.1-0.7-2.4,2.4
		c1.7,3.2,7,2.4,8.2-1.2c1.2-3.5-1.3-9.1-4.8-10.7c-3.9-1.7-9.1,0.9-11,5.5c-1.4,3.4-1.4,4.1,0.1,7.9c0.8,2.4,2.3,4.9,3.3,5.7
		c2.3,2,10.2,3.9,13.2,3.1c13.5-3.3,16.2-23.9,4.2-31.8C572.8,150,562,152,552.7,160.9z M312.2,154.7c-2,0.8-4.2,5.9-4.2,9.7
		s1.2,4.9,6.8,6.1c2.5,0.5,3.2,0.3,3.2-0.9c0-0.9,1.6-3.4,3.6-5.6c2-2.2,3.4-4.6,3.1-5.3c-0.3-0.8-2.1-2.1-4-3
		C317.2,154,314.6,153.7,312.2,154.7z M534.5,154.3c-11.2-0.3-18.9,2.9-8.3,3.5c5.6,0.2,9.3,1.1,15,3.6c4.6,2,5.4,0.8,2.5-3.5
		C541.5,154.6,541.2,154.5,534.5,154.3z M368.8,157.6c-3.3,2.4-3.5,2.9-2.6,5c1.1,2.4,2.6,2.8,6.5,1.8c1.8-0.5,2.1-1.1,1.6-4.2
		C373.5,155,372.9,154.7,368.8,157.6z M406.5,155c-0.8,0-1.5,0.4-1.5,1c0,0.5,0.7,1,1.5,1c0.8,0,1.5-0.5,1.5-1
		C408,155.4,407.3,155,406.5,155z M439,166.5v3.3l6.8-3.4c5.1-2.7,8.4-3.6,14-4.1c4.4-0.4,7.1-1,6.9-1.7c-0.2-0.5-2.3-2-4.7-3.3
		C452,152,439,157.2,439,166.5z M244,158.8c0,0.4,0.7,3.4,1.5,6.6c2,7.6,6.7,14.2,10.7,15c6,1.2,6,0.6,0.4-5.5
		c-3.1-3.4-5.5-6.6-5.3-7.2c0.8-2.4,2.7-1.6,6.2,2.8c2.1,2.5,4.1,4.5,4.5,4.5c1.1,0-0.8-8.1-2.3-9.9c-0.7-0.8-3.9-2.7-7.2-4.3
		C246.4,158,244,157.4,244,158.8z M386.6,158c-0.2,0-1.5,1.7-2.9,3.7l-2.6,3.7l3.3,3.7c1.9,2,3.7,5.1,4.1,6.8c0.7,3.1,3,5.1,5.8,5.1
		c1.2,0,1.5-1.5,1.6-6.8c0-6.6,0-6.8-4.5-11.5C388.9,160.1,386.8,158,386.6,158z M591.8,163.5c0.8,2.5,1.7,4.5,2.1,4.5
		c0.3,0,1.8-1.6,3.4-3.5l2.7-3.4l-3.7-1C590.3,158.4,590.1,158.5,591.8,163.5z M599,168.2c-4.8,6.5-3.5,6.5,3.5-0.1
		c6.8-6.3,7.9-6.9,9.1-4.9c0.4,0.7-0.8,2.4-3.2,4.4c-4.4,3.8-4.1,5.1,1,3.4c7.6-2.5,11.3-8.5,6.7-11
		C611.3,157.5,604.4,160.7,599,168.2z M331.5,161.4c-4.9,2.1-9.5,6.6-9.5,9.1c0,1.3,1.7,5.6,3.8,9.7l3.8,7.5l3.9-4.5
		c2.2-2.5,5.4-5.4,7.2-6.5c2.3-1.3,3.3-2.6,3.3-4.3c0-3.4-2.4-7.8-5.6-10.3C335.3,159.7,335.4,159.7,331.5,161.4z M356.1,160
		c-2.7,0-4.8,0.7-6.7,2.3c-2.4,2.1-2.6,2.7-2,7c0.6,4,1,4.7,3,4.7c1.3,0,4.2,0.7,6.5,1.5l4.2,1.5l1.5-3.5c1.9-4.6,1.8-6.4-0.6-10.3
		C360.3,160.5,359.5,160,356.1,160z M485.8,161.1c-7,2-4.2,3.1,6.6,2.7c9.8-0.3,12.8-0.9,11.3-2.4
		C502.6,160.2,489.6,160.1,485.8,161.1z M399.5,178.1c0.8,5.7,2.5,6.6,2.5,1.4c0-4.3,2.3-9,4.9-10.5c2.8-1.5,13-1.2,18.6,0.5
		c2.7,0.8,5.1,1.3,5.3,1.1c0.7-0.7-8.8-6.7-12.9-8.1C405.3,158,397.7,164.6,399.5,178.1z M516,163c0,1.6,8.9,5.1,14.2,5.7
		c5.3,0.5,10.8-0.8,10.8-2.6c0-0.5-1.8-1.6-4-2.5C530.5,161,516,160.6,516,163z M265,166.5c0,4.5,3.5,13.7,6,16
		c2.3,2.1,2.3,2.1,3.8-2.4c1-2.9,0.9-3.8-0.9-6.8c-1.7-2.7-1.9-3.7-1-4.6s1.9-0.4,4,2.2c2.5,3.1,3.1,3.3,6.6,2.7l3.7-0.7l-2.8-3
		c-1.5-1.6-4.6-3.8-6.8-4.8C269,161.1,265,161.6,265,166.5z M232.7,166.4c-5.4-0.6-5.7-0.6-5.7,1.5c0,2.9,4.6,11.9,7.8,15.3
		c1.8,2,3.6,2.8,5.9,2.8c4.8,0,4.3-2.6-1.4-7.7c-3.3-2.8-4.5-4.5-3.8-5.2s2.4-0.1,5.5,1.9c2.5,1.7,4.9,3,5.3,3
		c1.3,0-3.6-8.1-5.8-9.6C239.4,167.7,235.9,166.8,232.7,166.4z M452.2,167.5c-4.4,1.4-12.2,6.2-12.2,7.5c0,1.4,7.3,1.9,11.8,0.9
		c6.3-1.4,16.2-7.1,16.2-9.3C468,165.5,456.5,166.1,452.2,167.5z M502,167.1c-1.4,0.6-6.6,0.9-11.7,0.7c-8-0.3-9-0.1-7.8,1.1
		c0.8,0.8,4.5,1.8,8.2,2.3c5.8,0.7,7.3,0.5,11-1.3c2.4-1.1,4.3-2.5,4.3-3C506,165.8,505.2,165.8,502,167.1z M366.5,174
		c-0.4,1.4-1.2,3-1.7,3.7c-0.6,0.8-0.2,3.2,1.4,7.2c1.8,4.7,2.8,6.1,4.4,6.1c1.2,0,3.5,0.5,5.3,1.1c2.8,1,3.5,0.9,5.7-1.2
		c1.3-1.2,2.9-4,3.6-6.1c1.5-5.1-1.1-12.2-5.6-14.9C373.6,166.3,368.3,167.9,366.5,174z M515,168.8c0,3,3,4.4,11.1,5.3
		c4.6,0.5,9.6,1.3,11.1,1.8c3.1,1.1,3.8,0.6,3.8-2.5c0-2.1-0.2-2.2-3.7-1.2c-4.4,1.2-11.3,0.3-17.2-2.3
		C515.1,167.7,515,167.7,515,168.8z M406.1,176c-1,3-0.4,14,0.8,14c0.4,0,2.4-2,4.5-4.5c2.3-2.9,6.2-5.8,10.4-7.9l6.7-3.4l-4-1
		C413.3,170.3,407.8,171.1,406.1,176z M478.6,171.2c-0.5-0.3,0.2,1.4,1.5,3.7c3.6,6.5,11,10.1,13.7,6.8c0.6-0.7,3.4-2.4,6.1-3.7
		c2.8-1.2,5.3-3,5.6-3.8c0.4-1.1,0.1-1.2-1.2-0.6c-1,0.4-5.2,1-9.4,1.2c-5.8,0.3-8.6-0.1-11.5-1.4
		C481.3,172.4,479.1,171.4,478.6,171.2z M511.5,172c-0.2,0-0.7,0.4-1,1c-0.3,0.5,0.1,1,1,1s1.3-0.5,1-1
		C512.2,172.4,511.7,172,511.5,172z M305.1,174.6c-5.1,3.6-6.8,15.1-3.1,21.1c1.9,3.1,6.5,6.3,9.3,6.3c0.9,0,1.2-0.9,0.9-3
		c-0.3-2.3,0.3-3.6,2.6-6c3.2-3.1,6-3.7,9.3-1.9c1.8,0.9,1.9,0.8,1.3-1.8c-1.7-7.2-6.4-13.2-11.7-15.2
		C309.8,172.6,307.8,172.7,305.1,174.6z M461.3,176.2c-2.9,1.6-7.5,3.2-10.3,3.5c-7.2,0.8-6.2,2.3,1.8,2.3c7.4,0,9.7-1,13.2-6
		C468.6,172.4,468,172.4,461.3,176.2z M471.8,177.1c-0.3-1.9-0.6-1.8-3.2,1.5c-4.5,5.7-8.1,7.4-16,7.4c-6.1,0-6.7,0.2-5.5,1.6
		c3.8,4.6,13.9,5.9,18.9,2.4c1.6-1.1,3.6-4,4.5-6.4C471.4,181.2,472,178.3,471.8,177.1z M279,192.1c1.5,3.4,2.5,3.7,4,0.9
		c1.3-2.5,6.1-5,9.5-5c2.7,0,3.3-0.8,3.7-5.4c0.3-2.5-0.2-3.1-3.2-4.2C281.7,174.3,274.5,181.2,279,192.1z M477.3,177.9
		c-0.7-0.7-1.2-0.2-1.5,1.5c-0.6,2.8,0.9,3.6,1.9,1C478,179.6,477.8,178.4,477.3,177.9z M509.7,178.6c-7.7,1.8-11.1,3.7-17.5,9.8
		c-8.1,7.6-9.6,11.2-9.7,22.6c0,8.7,0.2,9.9,2.9,14.4c6.4,10.9,14.8,16.6,28,18.9c7.9,1.3,12.3,0.4,18.5-3.8c2.8-1.9,6.8-4.2,9-5.1
		c2.7-1.1,4.4-2.6,5.6-5c1.6-3.3,1.5-3.7-0.5-8c-2.5-5.2-3-14.6-1-18.4c1.2-2.3,1-2.7-3.1-6.2c-8.3-7.2-18.5-8.4-29.5-3.4
		c-12,5.5-16,22.5-7.9,33.2c4.8,6.3,17.9,8.2,26.9,3.9c9.8-4.7,10.3-17.1,0.9-24.2c-7.1-5.4-15.6-3-18.4,5.4
		c-2.3,7.2,1,12.3,8.1,12.3c7.2,0,10.1-4.5,6.4-9.8c-2-2.9-4.4-1.3-4.4,3c0,4-3.4,3.5-3.8-0.5c-0.8-7,6.5-10.4,10.7-5
		c6.3,7.9,1.6,16.3-9.1,16.3c-7.9,0-11.8-4.1-11.8-12.5c0-5.2,1-7.7,4.8-11.7c5.7-6.2,13.6-5.7,21.5,1.3c5.4,4.7,7.2,9.8,6.2,16.8
		c-2.3,15.1-28.7,20.3-40.2,7.9c-3.6-3.9-5.6-9.8-5.7-16.8c0-5.4,0.5-7.5,2.9-11.9c3.3-6,9.6-11.2,15.8-13.1
		c9.8-2.9,22.5-0.4,28.9,5.7c2.4,2.3,3.1,2.5,5.3,1.5c4.2-1.9,4.2-3.9-0.1-8.3c-5-5.1-12.1-8.5-20.4-9.9
		C520.7,176.7,516.9,176.8,509.7,178.6z M336.1,185.7c-3.6,4.3-3.9,5.7-1.2,4.8c2.6-0.8,8.7,1.8,10,4.3c1.7,3.2,1.3,5.6-1.4,9.7
		c-1.5,2-2.4,4-2,4.3c1.4,1.4,11.3,1.3,14.1-0.1c5.9-3.1,7.8-6.2,8.2-13.5c0.4-8.1-1.7-12.8-6.9-15.4
		C350.1,176.2,342,178.5,336.1,185.7z M425.3,180.1c-7.8,3-17.5,13.2-11,11.5c7.4-1.8,17.7-9,17.7-12.2
		C432,177.6,431.6,177.7,425.3,180.1z M620.9,180.1c-2.3,2.3-2.2,6.2,0.1,6.7c1.5,0.2,6-5.4,6-7.6
		C627,177.3,623.2,177.8,620.9,180.1z M650.2,178c-2,0-5.9,3.6-4.9,4.6c0.7,0.7,6.7-2.7,6.7-3.8C652,178.4,651.2,178,650.2,178z
		 M595.8,183.2c-3.8,1.7-6.8,3.4-6.8,3.8c0,0.3,1.6,0.4,3.5,0.2c2.4-0.3,3.5,0,3.5,0.9c0,0.7,1,0.3,2.4-1.1c1.9-1.7,3.1-2.1,5.3-1.6
		c5,1.2,6.5,1.1,7.6-0.6c0.8-1.2,0.7-2.1-0.2-3.2C609,179.1,603.2,179.7,595.8,183.2z M248.6,183.7c-0.7,0.7,3.5,8.8,6.8,13.2
		c3.6,4.8,10.9,9.8,17.1,11.6c6.6,1.9,6.5,1.9,6.5-0.3c0-1-3.5-4.3-8.5-8c-7.9-5.9-9.8-8.3-7.6-9.6c0.5-0.3,4,1.9,7.7,4.9
		c3.8,3,7.2,5.5,7.7,5.5c1.4,0,0.7-2.2-2.3-6.6c-3.4-4.9-6-6.5-14-8.7C255.3,183.8,249.4,183,248.6,183.7z M435.4,183
		c-0.6,0-2.5,1.6-4.4,3.7c-3,3.1-8.1,6-15.4,8.7c-2.5,0.9-1.6,1.6,3.1,2.6c8.9,2,16.1-2.4,17-10.4C436,185.1,435.9,183,435.4,183z
		 M484,184.5c-2.8-1.5-3-1.4-6.9,2.3c-2.2,2.1-5.5,6.9-7.3,10.8c-3.1,6.5-3.3,7.6-3.3,17.8v10.9l9.3,3.3c5.2,1.9,9.2,3.1,9,2.7
		c-4.4-8.8-6.1-13.4-6.5-18.1c-0.7-7.4,1.8-17.2,5.7-22.5c1.7-2.3,3-4.4,3-4.9C487,186.4,485.7,185.4,484,184.5z M391.4,184
		c-1.2,0-4,3.8-3.2,4.5s9.8,1.2,9.8,0.4c0-0.4-1.2-1.7-2.6-2.8C393.9,184.9,392.1,184,391.4,184z M612.2,189.6
		c-2,1.4-3.1,4.4-1.6,4.4s6.4-3.6,6.4-4.7C617,187.5,614.9,187.7,612.2,189.6z M239,189.6c-6.8-0.4-9.1-0.2-15.3,1.5
		c-3.1,0.8-3.6,1.3-2.8,2.8c2.2,4,10.7,12.4,15.3,15l5,2.9l6.4-2.1c3.5-1.2,6.4-2.4,6.4-2.7c0-0.4-1.9-1.3-4.2-2
		c-9.2-2.7-14.8-5.2-14.8-6.6c0-1.9,1.5-1.8,10,1.1c4,1.4,7.7,2.5,8.2,2.5c1.1,0-1.9-5.2-5.2-9C245.8,190.5,244.6,190,239,189.6z
		 M600.7,189.7c-0.4,0.3-0.7,2.1-0.7,3.9c0,2.3,0.6,3.7,2,4.4c1.6,0.9,2.1,0.8,2.5-0.5c0.3-0.8,0.7-2.2,1-3.1c0.3-0.8,0-2.4-0.5-3.5
		C603.9,189,601.9,188.4,600.7,189.7z M440,190c-0.5,0-1,0.6-1,1.4c0,2.3-5.1,7.8-8.7,9.2c-1.8,0.8-5.8,1.4-9,1.4l-5.8,0.1l3.3,2.9
		c2.7,2.5,4.1,3,8.3,3c9.4,0,13.9-4.1,13.9-12.7C441,192.4,440.6,190,440,190z M591.3,190.7c-3.6,0.7-2.7,2.3,1.2,2.3
		c2.4,0,3.5-0.5,3.5-1.5C596,190,595.4,189.9,591.3,190.7z M292.7,192.1c-4.7,0.1-5.5,0.7-7.7,5c-3.8,7.4-1.9,15.3,4.4,18.3l3.5,1.7
		l6.1-4.5c3.3-2.5,7-4.8,8-5.1c2.3-0.7,2.7-2.5,0.5-2.5c-2.2,0-8.6-6.1-10.2-9.7C296.2,192.5,295.5,192,292.7,192.1z M445.8,192.2
		c-0.5-0.2-0.8,1.5-0.8,3.8c0,4.4-1.1,7.2-4.1,10.5c-2.3,2.6-4.6,11.2-3.4,12.4c0.6,0.5,2.5,1.1,4.4,1.3l3.5,0.3l1.2-6.6
		c0.7-3.7,2.4-9.2,3.9-12.3c1.5-3.2,2.5-5.8,2.4-6c-0.2-0.1-1.7-0.8-3.4-1.6C447.9,193.2,446.2,192.4,445.8,192.2z M385.4,194
		c-1.2,0.5-2.5,1.3-2.8,1.9c-0.6,0.9,1.9,7.1,2.9,7.1c0.2,0,1.8-1.3,3.6-2.9c1.8-1.7,4.5-3.5,6.1-4.2c1.5-0.6,2.8-1.5,2.8-2
		C398,192.8,388.2,192.8,385.4,194z M552.1,199.6c-7.2,8.1-6,20.5,2.8,28.8c3.7,3.5,3.9,3,0.9-1.9c-2.6-4.6-2.8-13.6-0.4-18.4
		c3.4-6.4,12.9-9.1,20.9-5.7c4.1,1.7,9.6,7.9,10.4,11.7c0.9,4.6,2.6,2.2,1.9-2.7c-1.1-8.5-6.3-15.6-12.7-17.4
		C567.4,191.5,557,194,552.1,199.6z M642.8,195c-0.4-2.8-1.8-1.4-1.8,1.9c0,1.8,0.3,2.2,1.1,1.4C642.7,197.7,643,196.2,642.8,195z
		 M317.2,195.2c-3.1,3.1,0.2,10.1,4.6,9.6c2.4-0.3,2.7-0.7,2.6-4c-0.1-2.1-0.7-4.4-1.4-5.3C321.5,193.7,318.8,193.6,317.2,195.2z
		 M331.5,199.3c-2,4.7-1.4,5.7,3.5,5.7c6.2,0,9.4-6.2,4.8-9.4C335.9,192.8,333.8,193.8,331.5,199.3z M368,197.2
		c0,1.3-0.9,4.1-1.9,6.4l-1.8,4.1l3.8,3.7c3.6,3.7,3.9,3.8,7.3,2.6c4.2-1.4,5.6-3.5,5.6-8.5c0-2.9-0.8-4.5-3.4-7.1
		C373.4,194.2,368,193.5,368,197.2z M463.5,195.5c-0.5,0.2-2.3,0.6-3.8,0.9c-2.3,0.6-3.4,1.9-5.9,7.1c-1.8,3.9-3.2,8.9-3.5,12.4
		l-0.6,6l4.4,1.1c2.4,0.6,5.2,1.3,6.2,1.6c1.5,0.5,1.7-0.3,1.7-6.8c0-6.5,1.6-16.1,3.5-21.1C466.2,195.1,465.7,194.8,463.5,195.5z
		 M626,195c-1.9,0-1.9,0.1-0.3,3.5c1.9,4,4.3,5.4,4.3,2.4c0-1.1-0.5-2.9-1-4C628.4,195.9,627.1,195,626,195z M590.7,196.5l-4.8-0.6
		l2.6,4c1.5,2.2,2.9,5.8,3.2,8c0.3,2.3,0.9,4.1,1.4,4.1c0.4,0,2.4-2.1,4.4-4.7l3.6-4.7l-2.8-2.7C596.4,198.1,593.9,197,590.7,196.5z
		 M391.7,202.8c-3.1,2.9-6.2,8.1-5.3,8.9c1.8,1.9,17.6-10.4,17.6-13.7C404,195.6,396,198.7,391.7,202.8z M403,205.2
		c-1.9,2.3-5.3,5.3-7.4,6.7l-4,2.6l4.3,0.3c2.7,0.2,5.2-0.3,6.8-1.3c2.7-1.8,6.4-9.1,5.6-11.2C407.5,200.4,406.9,200.7,403,205.2z
		 M612.8,202.2c-2-0.2-3.9,0.2-4.3,0.8c-1.2,1.9,0.5,6.1,2.8,6.9c3.5,1.4,5.9-0.5,5.5-4.2C616.5,202.8,616.1,202.5,612.8,202.2z
		 M569,204.2c-12.7,0.9-16.1,15.3-6.1,25.9c4.7,4.9,6.3,5.1,5,0.7c-1-3.6-0.4-6.4,1.9-9.1c3.3-3.8,9.4-0.7,10.7,5.4
		c1,4.3,2.3,3.5,3.1-1.7c1.4-9.4-1.7-16.2-9-19.5C572.3,204.9,569.8,204.1,569,204.2z M603,207c-0.7,0-7.9,9.6-8.7,11.5
		c-0.4,1.1,0.9,0.8,4.8-1c3-1.4,6.4-2.5,7.7-2.5c2.8,0,2.8-0.4-0.5-4.6C604.7,208.6,603.3,207,603,207z M221.7,208.7
		c-0.4,0.3-0.7,1.7-0.7,3c0,1.8,0.9,2.8,3.6,3.9c2,0.8,4.2,1.3,4.9,1c1.6-0.6,0.9-4.3-1.3-6.9C226.7,208,222.9,207.4,221.7,208.7z
		 M411.8,209.4c-0.3-1.6-0.7-1.4-2,1.1c-2.6,4.8-6.3,7.6-10.7,8.2c-2.3,0.3-4.1,1-4.1,1.4c0,1.2,2.8,1.1,8.8-0.2
		c4.4-0.9,5.2-1.5,6.7-4.8C411.4,213,412,210.4,411.8,209.4z M313.5,211.6c-2.7,3-4.3,9-2.7,10.6c1.5,1.5,4.6-0.5,7.1-4.6
		c2.5-4,2.7-7.2,0.5-8C316.2,208.7,316.1,208.7,313.5,211.6z M416.6,209c-0.7,0-2.9,9.1-2.3,9.6c1,1,6.7-0.7,6.7-1.9
		c0-0.7,0.3-2.1,0.6-3.3c0.4-1.5-0.1-2.3-2.1-3.2C418.1,209.5,416.8,209,416.6,209z M260.7,211.1c-6.1,0-15.7,2.5-15.7,4
		c0,3.1,11.1,11.6,18.9,14.3l4.2,1.6l1.5-3.5c2-4.8,1.9-5.2-2.3-6c-4.9-0.9-7.3-2.2-7.3-4c0-1.8-0.1-1.8,7.2,0.1
		c5.6,1.4,6.2,1.4,7.9-0.2c3-2.7,2.3-4-3.2-5.2C269.1,211.5,264.1,211,260.7,211.1z M325.3,212.6c-0.3,0.8-0.1,2.9,0.4,4.7
		c0.7,2.5,1.5,3.3,3.7,3.5c3.2,0.4,6.6-2.2,6.6-4.9c0-1-1-2.5-2.2-3.3C330.9,210.5,326.1,210.5,325.3,212.6z M356.5,212.5
		c-1.6,0.8-5,1.4-7.4,1.5h-4.4l4,4.3c2.6,2.8,4.4,6,5.2,9.1l1.2,4.9l4.9-0.6c6.7-0.8,8.8-2.1,9.5-6.1c0.8-3.9-2.1-10.5-5.7-13
		C361.2,210.7,360.5,210.7,356.5,212.5z M303.5,213.8c-7.2,4.4-11.5,12-11.5,20.4c0,6.1,8,13.8,14.4,13.8c4.9,0,11.1-9.9,13-20.7
		c0.5-3.2-0.7-5.3-1.9-3.3c-0.4,0.6-1.8,1.5-3.1,2c-4.8,1.9-9.5-2.6-8.1-7.7c0.3-1,0.8-2.8,1.2-4.1
		C308.3,211.5,307.4,211.4,303.5,213.8z M430,212c-3.4,0-4.1,0.4-4.6,2.4c-0.8,3.4,0.2,4.6,3.6,4.6c3.2,0,3.4-0.2,4.4-4.3
		C434,212.1,433.9,212,430,212z M234,215c0,1.6,0.7,2,3.5,2c4.3,0,4.4-0.5,0.5-2.5C234.3,212.6,234,212.6,234,215z M278.7,219.2
		c-4.9,6.7-5.7,8.3-5.7,11.6c0,5.2,3.7,8.2,10,8.2h5v-4.3c0-2.4,0.7-6.5,1.6-9.1c0.9-2.6,1.5-4.8,1.3-5c-0.2-0.1-2-1.2-4-2.4
		C282.1,215.3,281.5,215.4,278.7,219.2z M377,217.5c-3.3,1.1-3.5,1.4-4,6.8c-0.4,4-1.2,6.3-2.6,7.8c-2.1,2-2.1,2.3-0.5,5
		c1.4,2.6,2.1,2.9,6.5,2.9c7.3,0,13-3.1,15.1-8.2c1.8-4.6,1.3-8.8-1.4-11.2C386.8,217.6,380.9,216.2,377,217.5z M341.2,217.1
		c-0.4,0-2.4,1.9-4.4,4.1c-3.3,3.6-4.1,4-7.7,3.6c-4.9-0.4-5.2,0.8-2,8.1c2.7,6.4,6.9,9.4,13.9,9.9c4.6,0.3,5.8,0.1,7.3-1.6
		c4.5-4.9,2.6-16.6-3.4-21.7C343.2,218.1,341.5,217,341.2,217.1z M606,218.9c-2.3,0.7-2.3,0.8-0.5,1.3c1.1,0.4,3.2,0.9,4.8,1.2
		c3.9,0.9,10.4,7.1,11.7,11.2c0.7,2,0.9,5.1,0.6,7c-0.9,4.3-6.6,10-11.8,11.6c-5.1,1.5-4.9,3.2,0.3,2.4c6.2-1,13.4-5.1,15.8-8.9
		c2.9-4.8,3.7-11.6,1.8-15.3c-2-3.9-7.5-9-11-10.3C614.6,217.9,609.8,217.8,606,218.9z M202.4,221.5c-3.4,3.4-2.8,5.9,1.5,6.3
		c5,0.5,10.1-0.7,10.1-2.3c0-0.7-1.2-2.2-2.7-3.3C206.5,218.9,205.1,218.8,202.4,221.5z M229.8,222.6c-4.7,1.4-6.5,3.4-3,3.4
		c1.6,0,12.2-3.7,13.1-4.6C240.9,220.5,234.1,221.2,229.8,222.6z M397.3,225.3c-0.7,0.5-1.3,2.3-1.3,4c0,7.6-9.2,14.7-19.1,14.7
		c-4.6,0-4.7,0.1-6.4,4.5c-0.9,2.5-3,5.6-4.6,6.7c-1.6,1.2-2.9,2.7-2.9,3.2c0,0.6-0.7,2.4-1.5,4c-1.9,3.5-1.5,3.9,5.4,6.1
		c12.4,4,21.5,0.2,37.3-15.7c15.6-15.7,23.3-20.6,38.3-24.4c3.6-0.9,6.3-2,6-2.4c-0.3-0.4-3.3-1.3-6.7-1.9
		C427.1,221.6,402.1,222.3,397.3,225.3z M573.6,224c-3.8,0-2.5,8.8,1.9,13l2.5,2.3v-4.2c0-2.3-0.7-5.7-1.4-7.6
		C575.8,225.6,574.4,224,573.6,224z M604.8,224c-2.7,0.1-11.8,3.9-11.8,5c0,0.4,1.8,1,3.9,1.4c4.6,0.7,7.1,3.6,7.1,8.1
		s-2.5,7.3-7.8,8.8l-4.6,1.4l5.1,0.7c5.8,0.7,9.1,0.2,14.5-2.5c10.5-5.3,10.2-16.2-0.6-21.3C608.7,224.7,606.1,224,604.8,224z
		 M244.8,225c-5.1,0.1-21.8,7.1-21.8,9.2c0,1.2,8.3,5.7,14.5,7.8c8.3,2.9,11,2.6,15.8-1.5c2.2-1.9,4.4-3.5,4.9-3.5
		c0.4,0,0.8-0.5,0.8-1.1c0-0.7-3.3-1-10.2-0.7c-9.1,0.3-10.3,0.1-10.6-1.5c-0.3-1.5,0.5-1.7,6.5-1.8c3.7-0.1,7.9-0.4,9.3-0.8
		c2.5-0.7,2.4-0.8-1.7-3.4C249.8,226.1,246.7,225,244.8,225z M220.6,229c-0.9,0-1.6,0.4-1.6,1c0,0.5,0.4,1,0.9,1
		c0.6,0,1.3-0.5,1.6-1C221.8,229.4,221.4,229,220.6,229z M454,230c-9.8,1-22.9,5.4-30.1,10.2c-6.5,4.4-17.9,15-17.9,16.7
		c0,1.5,6.8,4.5,14.5,6.6c9.4,2.4,28.5,2,42.7-0.9c6.4-1.4,13.8-3.4,16.5-4.5c7.5-3.1,20.1-6.1,26.2-6.1l5.6-0.1l-2.5-2
		c-3.8-3.2-24.5-13.3-34-16.6C463.9,229.4,462.8,229.2,454,230z M550.9,231c-0.5,0-0.9,0.7-0.9,1.5c0,0.9,0.9,1.5,2.1,1.5
		c1.8,0,1.9-0.2,0.9-1.5C552.3,231.7,551.4,231,550.9,231z M215.7,236l-1.4-4.5l-3.6,3.9c-2,2.2-3.7,4.5-3.7,5.2s1.8,1.5,3.9,1.9
		c5.6,0.9,9.1,4.5,9.1,9.1v3.6l5-5.3c2.8-2.9,5-5.4,5-5.4s-1.7,0.1-3.8,0.3c-3,0.3-4.5-0.2-6.6-2C218.2,241.6,216.4,238.5,215.7,236
		z M589,234.1c-2.8,1-6.6,7.1-5.6,8.8c0.8,1.2,9.6,1.5,13.2,0.5c3.3-0.9,4.7-4.8,2.6-7.3C597.2,233.6,592.5,232.7,589,234.1z
		 M323.4,235.4c-1-1.7-1.3-1.4-3.2,2.9c-1.2,2.7-3.3,6.2-4.7,7.9c-3.5,4.1-3.2,7.3,1,11.5c3.3,3.3,3.9,3.5,8.1,3
		c6-0.6,10.3-4.7,11.1-10.4c0.5-3.7,0.3-4.1-2.6-5.3c-1.7-0.7-4.3-2.7-5.9-4.5C325.7,238.8,324,236.5,323.4,235.4z M357.7,235.9
		c-2.1,0.4-3.3,1.7-4.7,4.8l-1.8,4.2l4.6,3.6c6.3,4.9,9.2,4.5,11.2-1.3c1.4-4,1.3-4.6-0.5-8C364.4,235.4,362.7,234.7,357.7,235.9z
		 M263.5,238.1c-4.6,2.4-12.5,9.7-12.5,11.5c0,2,5.2,2.6,13.7,1.5c9.3-1.2,12.1-2.1,14.8-5c1.6-1.9,1.7-2.4,0.5-3.1
		c-2.1-1.4-5.1-1.2-10,0.5c-5.3,1.9-6,1.9-6-0.1c0-0.8,1.6-2.2,3.6-3c1.9-0.8,3.4-2,3.1-2.7C270.1,235.8,267.8,235.9,263.5,238.1z
		 M540.4,239.9c-8.2,3.7-14.2,10.9-15.7,18.8c-0.8,3.9,1.7,13.6,4.3,17.3c4.9,6.9,17,9,24,4c3.2-2.3,9.4-10,8.6-10.7
		c-0.2-0.3-1.8,0.3-3.5,1.1c-4.8,2.5-12.4,2.1-16-0.9c-7.1-6-6.4-17.6,1.7-28.3C546.6,237.5,546.1,237.3,540.4,239.9z M222.9,239
		c-0.6,0-0.7,0.4-0.4,1c0.3,0.5,1.1,1,1.6,1c0.6,0,0.7-0.5,0.4-1C224.2,239.4,223.4,239,222.9,239z M550.5,240.9
		c-6,3.7-9.4,9.8-9.5,17.4c0,5,1.5,7.6,5.4,9.2c4.2,1.8,9.6,0.6,15-3.2c3.6-2.6,9.1-9.1,8.3-9.9c-0.2-0.2-1.9,0.2-3.9,0.8
		c-3.1,0.9-4.1,0.8-6.2-0.6c-4.3-2.7-4.2-6.3,0.2-14.9C560.6,238.2,553.4,239.1,550.5,240.9z M194.2,242.2c-3.8-0.3-4.7,0.1-7.7,3.1
		c-7.1,7.1-2.4,9.2,6.5,2.9c3-2,5.4-4.2,5.4-4.7C198.5,242.9,196.6,242.4,194.2,242.2z M568.3,242.3c-3.3-0.4-4.4-0.1-6.2,1.8
		c-1.1,1.2-2.1,3.3-2.1,4.6c0,4.6,5.2,4.3,11-0.6c2.6-2.2,3.2-3.3,2.4-4.1C572.8,243.4,570.5,242.6,568.3,242.3z M286.4,245.2
		c-3.9,3.1-5.2,4.6-7.4,9.3c-2.1,4.5-1.3,6.5,2.7,6.5c2.8,0,13.3-9.8,13.3-12.4s-1.3-1.8-4.9,3c-3.2,4.2-5,5.1-5.8,2.8
		c-0.2-0.6,1.2-3,3.2-5.5c1.9-2.4,3.5-4.7,3.5-5.2C291,242.4,289.3,243,286.4,245.2z M205,247.5c0,2.9,2.8,8.3,4.9,9.5
		c2.2,1.1,6.1-0.1,6.1-2c0-0.4,0.3-1.5,0.6-2.4c0.3-0.9-0.5-2.6-2-4.1C211.7,245.6,205,244.9,205,247.5z M235.7,246
		c-2,0-9.8,8-12.5,12.9l-2.4,4.1l3.8,1.6c2.1,0.9,6.1,2.1,8.9,2.7c4.7,0.9,5.5,0.8,9.5-1.4c2.9-1.6,4.6-3.3,5.1-5.2
		c0.9-3.2,0.2-3.3-6.4-1.1c-5.4,1.8-9,1.3-6.6-1c0.8-0.8,3.7-2.1,6.5-3c4.7-1.5,5-1.8,4.6-4.5c-0.3-2.5-1.1-3.1-4.7-4
		C239.1,246.5,236.5,246,235.7,246z M340.4,248.7c-0.3,1-1.4,4.1-2.5,7c-1.9,4.8-1.9,5.3-0.4,7.7c2.2,3.4,5.9,5.6,9.2,5.6
		c5.7,0,12.3-6.4,12.3-11.9c0-1.1-1.4-2.8-3.3-4c-1.8-1.1-4.2-2.9-5.2-4.1C348.1,246.4,341.2,246.2,340.4,248.7z M518.3,248.7
		c-2.9,0.6-2.8,1.4,0.3,3.7c2.7,1.9,4,1.4,4.6-1.9C523.5,248.5,522.1,247.9,518.3,248.7z M580.1,248c-1,0-5.1,10.1-5.1,12.7
		c0,2,3.3,5.3,5.2,5.3c1.6,0,4.8-4.5,4.8-6.9c0-1.3-0.9-4.4-2.1-6.8C581.8,249.9,580.5,248,580.1,248z M200.9,250
		c-0.8,0-5.2,11-4.7,11.5c0.2,0.1,2.9,0,6.1-0.3c5.7-0.4,5.8-0.5,3.8-2.3c-1.1-1-2.5-3.4-3.2-5.4C202.2,251.6,201.3,250,200.9,250z
		 M302.3,251.4c-3.6-0.7-4.3,0.8-4.3,10.1c0,6.8,1.4,9.6,6.2,12.1c3.9,2,6.9,1.2,11.8-3.2c4-3.6,5.2-6.4,2.7-6.4
		c-1.9,0-7.3-5.5-8.7-9c-0.7-1.7-2-3-3-3C306,252,303.9,251.7,302.3,251.4z M271.7,254.1c-14.7,0.7-19.6,2.3-19.7,6.6
		c0,1.6,0.4,1.6,5.3,0.2c2.1-0.6,6.6-1.3,9.9-1.7c5.1-0.6,6.2-1.1,6.9-3C274.9,254.2,274.7,254,271.7,254.1z M496,257
		c-9.3,2.2-19,5.8-19,7.1c0,0.4,2.6,3.5,5.7,6.9c4.7,5.1,7.5,7.1,16.7,11.5c10.7,5.2,16.2,6.8,39.8,11.5c8.9,1.7,24.8,12.1,30,19.5
		c1.7,2.4,3.4,4.3,3.6,4c0.2-0.2-0.6-3.3-1.8-6.9c-2.5-7.6-8.1-16.5-13.7-21.8l-3.9-3.8l-5.4,1.1c-6.1,1.3-11.2,0.4-16.7-3
		c-5.6-3.5-8.4-9-10.8-21.3c-0.3-1.7-1.6-3.3-3.4-4.2C512.4,255.1,505.2,254.9,496,257z M592.2,259l-2.9-3.4l-0.6,4
		c-1.3,7.8-6.4,11.7-12,8.9c-2.4-1.2-3.2-1.3-3.9-0.3c-1.3,2.1-0.9,4.6,1.2,8.8c4.1,8.1,12.1,9.8,17.7,3.7c4-4.4,5.6-10,4.3-14.7
		C595.5,264,593.7,260.9,592.2,259z M618.1,256.1c-2.6,0.2-10.3,1.8-10.8,2.3c-0.2,0.2,2.8,1.6,6.6,3.1c4.2,1.6,7.1,3.3,7.1,4.1
		c0,2-2,1.8-9.5-1.1c-3.6-1.3-6.5-2.3-6.5-2.1c0,0.2,1.1,2.4,2.5,4.9c1.9,3.3,3.7,5,6.8,6.3c4.8,2,22.3,3.2,23.8,1.7
		c1.4-1.4-7.7-12.2-13.7-16.1C621.8,257.4,618.9,256,618.1,256.1z M293.2,258c-1,0-6.7,5.9-6.1,6.2c0.2,0.2,2.4,2.1,4.7,4.3
		c4.1,3.8,4.3,3.9,3.3,1.2c-0.6-1.6-1.1-4.8-1.1-7.3C294,260,293.6,258,293.2,258z M408.4,263.1l-6.2-2.9l-2.9,3
		c-3.8,4-15.7,9.7-21.8,10.4c-3.9,0.5-6.8,0-12.8-2l-7.8-2.6l-4.2,2.1c-2.3,1.2-4.4,2.3-4.6,2.5c-0.1,0.1-0.7,3.7-1.2,7.9
		c-1.4,13-6.8,21.4-20.7,32.5l-4.4,3.5l1.5,6.5c4.5,19.5,2.6,30.1-7.7,43.7c-6.3,8.3-18.4,18.6-21.1,17.8c-6.6-1.9-7.4-1.8-10.5,1.4
		c-4,4-3.5,5.6,1.6,5.3c4.2-0.2,10.8,2.9,12.8,6c1.8,3-0.2,3.1-4.8,0.4c-5.1-3-9.7-3.4-11.7-0.9c-4.2,4.9,3.1,31.6,12.7,47
		c3.8,6,8.1,8.6,14.4,8.7l4.4,0.1l1.7,10c3.6,22.4,6.1,26.4,33.6,54.9c12.2,12.7,23.7,24.3,25.5,25.7c1.8,1.4,8.7,7.5,15.3,13.4
		c15,13.4,19.1,15.6,30.7,16.3c8,0.4,9.1,0.3,15-2.5c4.1-2,10.1-6.4,17.3-12.9c6.1-5.4,13.7-12.2,16.9-14.9
		c3.3-2.8,15.3-14.8,26.7-26.7c18.9-19.8,21.2-22.5,24.8-30c3.5-7.4,5.2-13.3,7.9-28.8c0.8-4.4,0.9-4.5,4.5-4.2
		c4.6,0.4,10.8-2.7,13.7-6.8c6.8-9.5,15-32.9,15-42.7c0-8.5-4.9-10.8-12.3-5.7c-4.6,3.1-8.1,2.6-5.1-0.7s9.2-6.1,13-5.7
		c1.8,0.1,3.4-0.2,3.4-0.7c0-4.8-5.2-7.8-10.7-6.3c-4.8,1.3-6.3,0-2.9-2.7l2.7-2.2l-3.5-5.1c-6.5-9.7-10.4-24.5-9.2-34.8l0.6-5.3
		l-7.3-7.3c-8.7-8.6-13.2-16.9-15-27.7l-1.2-7.4l-4-1.2c-9.3-2.8-21.5-9.6-28.1-15.7c-3.6-3.4-7.2-7.4-7.9-8.9l-1.4-2.7l-7.8,1.9
		c-11.4,2.8-33.7,3.6-43.2,1.5C418,266.8,411.9,264.7,408.4,263.1z M243.9,269.7c-8.5,3.9-13.8,8.8-17.7,16
		c-9.3,17.6-7.9,30.5,4.8,43.8c9.7,10,20.3,13.3,32.9,10.1c13.2-3.4,22.7-11.2,25.6-20.9c2.2-7.3,2-22.1-0.4-27.2
		c-2.3-5.1-10.6-12.8-15.7-14.6c-2.2-0.8-7.8-1.4-12.9-1.4c-8.2,0-9.5,0.3-14.4,3.1c-6.6,3.7-10.5,9-12.6,16.9
		c-3.3,12.7,2.1,24.7,13.6,30.5c4.6,2.4,8.1,2.5,14.1,0.4c10-3.4,16.8-12.5,16.8-22.5c0-7.4-2.4-11.8-8-14.7
		c-5.4-2.7-10.1-2.8-15.7-0.3c-5.8,2.7-7.6,5.9-7.7,13.6c-0.1,7.6,1.8,10.5,7,10.5c7.6,0,12.4-4.1,12.4-10.5c0-5.8-2-8.2-5.7-7
		c-2.2,0.8-2.9,1.7-3.1,4.3c-0.3,2.5-0.8,3.2-2,3c-0.9-0.2-1.8-1.4-2-2.6c-0.8-5.8,7.5-10.9,12.4-7.7c4.7,3.1,5.9,11.5,2.4,17.3
		c-5.2,8.5-20.7,9.5-23.8,1.5c-4.5-12,0.3-23.6,11.1-26.8c6-1.8,7.9-1.8,12.9-0.5c11.4,3.2,16.7,16.3,11.9,29
		c-2.9,7.7-6.4,11.5-13.5,15c-11.9,5.9-19.5,4.9-28.4-3.8c-6.4-6.3-8.5-11.1-9-20.2c-0.7-13.4,5.4-24.3,16.6-29.6
		c5-2.4,6.9-2.8,14.8-2.7c10.6,0,15.2,1.3,21.7,6c5.8,4.3,10.2,10.5,11.8,16.7c1.8,7.1,0.7,22-2,28.1c-8,18.2-34.4,27.3-52.8,18.4
		c-10.9-5.3-21.4-19.7-22.8-31.4c-1.2-9.5,4.4-25,12.2-33.6c2.7-3,3.3-4.3,2.4-4.9c-2.3-1.4-5.4,0.2-10.3,5.2
		c-10.9,11.2-13.4,32.1-6.1,50.6c2.1,5.4,4.1,8.2,10.3,14.3c10,10,18.8,14.4,26.5,13.5c3.7-0.4,5.7-0.2,7.1,0.9
		c2.6,2,6.1,1.9,12.9-0.5c16.6-5.7,27-16.4,31-31.7c2.2-8.5,3-23.1,1.5-29.1c-2.2-9.5-14.2-24.7-22.5-28.7
		C272.7,261.2,258.6,262.8,243.9,269.7z M331.5,263c-2.6,0.2-6.7,2.8-8.9,5.8c-3.1,4.3-9.3,8.8-13.1,9.6c-2,0.4-4.2,0-6.7-1.3
		c-2.1-1-3.8-1.6-3.8-1.2c0,0.3,1.6,3,3.5,5.9c5.4,7.9,7,15.8,5.8,27.9c-0.5,5.4-0.8,10-0.6,10.2c0.9,1.1,11.5-5.2,18.9-11.2
		c9.7-7.8,13.9-14,15.9-23.3c2.2-10.3,2-12.1-1.5-13.9c-1.6-0.8-4.2-3.1-5.7-5C333.8,264.6,332.1,263,331.5,263z M602.5,266.5
		l-2.4-3l-0.1,5.3c0,6.4-2.5,11.7-7.5,16c-4.4,3.9-10.2,4.3-15.4,1.1c-1.8-1.1-3.5-1.8-3.7-1.6c-0.8,0.8,4.1,7,7.8,10
		c4.9,3.9,11.9,4.7,16.5,1.8c7.1-4.5,11-15.3,8.4-23.2C605.5,271,603.9,268.1,602.5,266.5z M197.1,266.4l-2.5,1.4l3.1,3.1
		c2.6,2.5,4,3.1,7.5,3.1c6.7,0,9.2-4.2,4.6-7.4C207.1,264.7,200.4,264.6,197.1,266.4z M181.5,267.2c-3.1,1.7-7.5,6-7.5,7.4
		c0,1.9,3.6,2.7,6.2,1.3c2.7-1.4,9.8-8,9.8-9.1C190,265.6,183.8,265.9,181.5,267.2z M568.1,275.5l-0.6-7l-2.4,3.5
		c-1.3,1.9-3.8,5-5.5,6.8l-3,3.2l4.6,4.7c4.7,4.7,4.7,4.7,6.8,2.8c1.6-1.4,1.9-2.5,1.4-4.5C569,283.6,568.4,279.3,568.1,275.5z
		 M616,279.1c0,0.4,2.7,2.4,6,4.4c5.8,3.5,7.8,6.5,4.4,6.5c-0.9,0-4.6-2.1-8.2-4.6c-7.1-4.9-7.6-4.8-8.8,1.5c-0.8,3.9,1,5.8,8.1,9.1
		c7.5,3.4,27.5,3.8,27.5,0.5c0-1.6-8.2-10.8-12.2-13.7C629.7,280.7,616,277.6,616,279.1z M188.4,291.5c-2,4.8-1.8,8.8,0.7,11.9
		c4.4,5.5,11.7,2.3,12.6-5.6c0.5-4.1,0.2-5-2.3-7.5c-2.8-2.7-2.9-2.8-3.2-0.6c-0.2,1.2,0.1,3.8,0.7,5.8c0.8,3,0.7,3.7-0.6,4.2
		c-2,0.8-3-1.1-3.8-6.9C191.7,287.1,190.4,286.7,188.4,291.5z M576.9,295.3l-4.5-4.3l-2.1,2.1l-2.1,2.2l3.1,6.3
		c1.7,3.5,3.4,6.4,3.7,6.4c0.7,0,7.3-8.1,6.8-8.3C581.6,299.6,579.4,297.6,576.9,295.3z M519.5,295.1c-1.4,2.1,0.7,10.1,4.6,17.8
		c5.3,10.7,10.7,15.5,26,23.1c6.8,3.4,13.2,7,14.3,7.9c2.3,2,6.1,9.5,7.1,13.9c0.4,1.9,1.1,3,1.5,2.5c2.6-2.7,3.9-21.5,2-28.4
		c-0.6-2-3.4-7.4-6.3-12c-8.2-13-19.3-20.1-37.6-23.8C518.9,293.6,520.3,293.8,519.5,295.1z M598.4,300.3c-4.3,2.2-5.6,4.1-6.5,9.5
		c-0.4,2.6-1,5.4-1.3,6.2c-0.4,1.1,0.7,1.9,4.5,3.1c5,1.6,5,1.6,9.5-1.2c6.1-4,8.6-8.2,8.1-13.8c-0.3-2.7-1.2-5-2.3-5.8
		C607.9,296.5,604.7,297,598.4,300.3z M585.6,304c-3,0-6.2,3.9-7.7,9.2c-1,3.9-0.4,9.8,1,9.8c1,0,6.7-6.1,8-8.7
		c0.6-1.2,1.1-4,1.1-6.2C588,304.4,587.7,304,585.6,304z M627.5,312.1c-3.3,0.3-8,1.4-10.3,2.5l-4.4,1.9l3.1,2.3l3,2.2l5.1-2
		c2.8-1.1,6.2-2,7.5-2c4.4,0,2.7,2.6-3,4.4c-3,0.9-5.7,2.1-6,2.6s0.1,2.3,1,4l1.6,3l3.2-1.6c5.5-2.9,9.5-6.4,12.7-11.2
		c1.6-2.5,3-4.9,3-5.3C644,311.9,634.6,311.4,627.5,312.1z M318.1,320.1c-0.3,0-3.1,1.2-6.2,2.5c-5.4,2.4-5.8,2.9-7.9,8.5
		c-2.6,7.2-11.8,17.6-19.5,22c-5.8,3.3-5.6,3.4,2.2,1.4c7.5-2,16.7-2,18.3,0c0.9,1.1,0.6,2.2-2,5.4c-3.2,4-11.6,10.4-17.7,13.5
		c-2.7,1.3-6.3,5.9-6.3,7.9c0,1.4,3.5,1.5,5.8,0.3c1.7-0.9,4.4-1.2,7.3-0.9c4.3,0.5,4.9,0.3,10-4.3c17.1-15.1,22.1-28.1,18.4-47.3
		C319.5,324.1,318.5,320,318.1,320.1z M605.2,322.2c-1.6,0.8-2.1,1.6-1.6,2.7c0.4,0.9,0.9,3.2,1.1,5.1c0.4,2.9-0.1,4.1-2.3,6.3
		c-1.5,1.5-3.8,3-5.1,3.3c-1.2,0.4-2.3,0.7-2.3,0.9c0,0.1,1.2,2.4,2.7,5l2.6,4.8l6.5-0.6c10.2-1,14.4-5,14.4-13.5
		c0-5.6-2-10.1-5.8-13.1C612.5,320.8,608.8,320.5,605.2,322.2z M585.5,323.9c-5.6,2.5-6.7,4.1-5.9,8.9c0.6,3.8,0.9,4.1,4.3,4.4
		c5.6,0.5,13.1-0.9,15.2-2.8c2.7-2.5,2.3-6.1-1-9.5C594.7,321.5,591.3,321.2,585.5,323.9z M543.7,337.5l-2.7-0.7v7.5
		c0,7.4,2.4,17.8,5.7,24.1c2.4,4.7,8.6,12.6,9.9,12.6c0.6,0,2.3,0.9,3.7,2l2.6,2.1l2.8-5.3c2.4-4.5,2.8-6.5,2.8-13.3
		c0-6.9-0.4-8.9-3-14c-2.8-5.6-3.5-6.3-11-10.2C550.1,340,545.2,337.8,543.7,337.5z M582.7,341.4c-1.8-0.7-2.3,0.7-3.2,8.8
		c-0.7,6.4-0.7,6.5,2.5,9.1c3.6,3.1,8.4,3.5,11.8,1.1c1.8-1.2,2.2-2.5,2.2-6.6c0-4.4-0.4-5.4-3.4-8.4c-2.1-2.1-4.4-3.4-5.9-3.4
		C585.3,342,583.5,341.7,582.7,341.4z M234.9,356.2c0.8,2.2,7.7,8.5,8.5,7.7c0.2-0.2,0.7-1.4,1-2.6c0.6-1.9,0-2.6-4.3-4.8
		C234,353.4,233.9,353.4,234.9,356.2z M603.2,354c-2.5,0-3.1,0.5-3.7,3.2c-0.3,1.8-0.6,5.6-0.5,8.5c0,2.8-0.8,7.7-1.9,11
		c-2.1,6.3-1.7,7.3,3.2,7.3c4.1,0,9.3-2.5,11.2-5.4c3.9-5.9,2.6-16.6-2.5-21.8C607.2,355,605.1,354,603.2,354z M300.4,357h-5.5
		c-3,0.1-7,0.7-9,1.4c-4.3,1.5-10.9,5.5-10.9,6.5c0,1.9,1.6,1.8,6.1-0.4c5.6-2.9,6.9-3.1,6.9-1c0,0.8-1.8,2.4-4,3.5
		c-4,2-5.3,4-2.7,4c2,0,12.7-7.2,16.1-10.9L300.4,357z M251.2,359.6c-3.8,2.6-4.5,5-2.6,8.9c2.3,5,4.6,6,7.8,3.4
		c3.1-2.4,3.6-8.1,1-11.7C255.6,357.6,254.2,357.4,251.2,359.6z M273.8,358.1c-0.2,0.1-2.7,0.9-5.5,1.8c-4.7,1.4-5.3,1.9-5.3,4.4
		v2.7l3.8-1.5c3.6-1.5,7.2-4.8,7.2-6.6C274,358.4,273.9,358.1,273.8,358.1z M222,359.1h-4.5l4.6,4.2c5.8,5.4,15.7,10.7,19.8,10.7
		c1.7,0,3.1-0.4,3.1-0.8c0-1.7-9.8-10.2-14-12.1C228.5,360,224.5,359.1,222,359.1z M577.6,361c-0.5,0-3.4,9.3-3,9.8
		c0.1,0.2,2.3-1,4.8-2.5l4.6-2.9l-3-2.2C579.4,362,577.9,361,577.6,361z M594.8,368.6l-0.3-2.5l-5.5,2c-9.9,3.5-17.1,9.4-21.4,17.7
		c-2.7,5.1-1.5,5.8,3.3,1.8c6.1-5.1,8-6.1,9.5-4.6c0.8,0.8,0.4,1.7-1.9,3.3c-4.7,3.4-11.6,9.9-11.1,10.5c0.3,0.2,3.9-1.1,8-3.1
		c9.4-4.5,15.7-10.6,18-17.5C594.4,373.4,595,370,594.8,368.6z M266.3,370.2c-2.7,1.3-2.7,1.2-0.9,6.2c1.9,5.6,6.1,7.1,9.6,3.6
		c2.7-2.7,2.6-7.5-0.2-9.4C272.2,368.8,269.5,368.7,266.3,370.2z M256.6,377.7c-0.6,1.5,0.8,3.2,2.5,3.3c1.3,0,3.1-2.9,2.4-4
		C260.5,375.4,257.3,375.8,256.6,377.7z M225.5,377.6c-4.5,1.1-13.5,4.7-13.5,5.5c0,1.4,6.5,5.8,10.9,7.4c6.2,2.1,9.4,1.9,12.1-0.9
		l2.3-2.5l-6.4-0.3c-4.9-0.2-6.4-0.7-6.4-1.8s1.5-1.6,6.1-1.8c5.4-0.3,6.3-0.6,6.8-2.5c0.3-1.1,0.4-2.2,0.3-2.3
		C237.1,377.9,227.2,377.2,225.5,377.6z M241.2,383.2c-0.6,5.4,9.4,9.4,11.8,4.7c1.4-2.4,0.6-6.1-1.6-8.3
		C248.3,376.5,241.7,378.8,241.2,383.2z M257.7,389.5c-0.1,2.8,0.5,4.2,2.2,5.6c6.5,5.2,10.5-1.2,5.5-8.9
		C262.6,381.9,257.9,383.9,257.7,389.5z M271.3,385.8c-0.9,0.6-1,1.7-0.2,4.5c0.8,2.9,1.5,3.7,3.3,3.7c1.9,0,2.6-0.8,3.4-4
		c0.5-2.1,0.7-4.2,0.4-4.5C277.4,384.7,272.7,384.9,271.3,385.8z M610.5,385.5c-0.6-0.2-2.6,0.4-4.5,1.1c-2.2,0.8-5.4,1.1-8.7,0.8
		c-4.9-0.6-5.4-0.4-9.7,3.2c-2.5,2.1-4.4,3.9-4.2,4.1c0.1,0.2,2.9,0.8,6.2,1.4c7,1.3,17.2,5.8,19.7,8.7c1.2,1.3,1.6,2.8,1.3,4
		c-0.8,2.4-14.5,9.8-22.5,12.2l-5.5,1.6l4.5,2.6c6,3.6,10.2,7.7,13.9,13.4c3.5,5.5,3,6.8-3.4,8.4c-8.7,2.2-8.3,1.5-8.9,14.7
		c-0.9,21.4-6.7,35.5-26.4,64.6c-21.4,31.6-23.3,34.5-28.2,44.1c-8.2,16-9.6,21.1-9.6,35.6c0,11.5,0.2,13,2.7,18.3
		c1.7,3.5,5.3,8.4,9.5,12.6c6,6.1,7.6,7.2,13.7,9c3.7,1.2,8.3,2.1,10,2.1c5,0,12.7-2.6,17.9-6.1c4.9-3.2,5.9-5.4,2.9-6.3
		c-3.9-1.3-10.1-8.9-13.2-16.1c-3.3-8.2-3.9-16.5-2-30c2.7-18.9,12.4-47.5,24.9-73.4c12.8-26.5,17.2-40,22.6-68.1
		c3.8-20.1,3.7-37.8-0.3-54.9C612.3,389,611,385.6,610.5,385.5z M236.7,393.7c-3.4,3.7-5.7,9.3-5.7,14.3c0,4.8,1,5,7.1,1.2
		c3.5-2.3,4.8-3.9,6.4-8.3c1.1-3,2.1-5.7,2.3-6.2c0.2-0.4-0.1-0.7-0.6-0.7c-0.6,0-2.4,2.5-4.1,5.5c-1.7,3-3.5,5.5-4,5.5
		c-2.3,0-2-2.4,0.8-7.4c1.7-2.9,2.8-5.6,2.4-5.9C240.2,390.6,239.5,390.9,236.7,393.7z M250,397.2c-3.8,6.3-5,19.3-2.4,26.2
		c1.7,4.4,7.1-5.5,9-16.8c1.4-7.8,1.4-8-0.8-10.3C253,393.3,252.3,393.4,250,397.2z M272.7,397.5c-0.7-0.3-1.9,0-2.5,0.8
		c-1,1.1-0.3,3.4,3,10.6c2.2,5,3.8,9.4,3.4,9.8c-1.6,1.6-4.2-1.8-7.4-9.5c-2.5-5.8-4-8.2-5.2-8.2c-2.5,0-3.1,3.4-1.4,8.9
		c2.4,8.1,12,18.9,14.6,16.3c2.1-2.1,0.5-28.2-1.7-28.2C274.7,398,273.5,397.8,272.7,397.5z M576,400.1c-8,1.5-10,2.8-10,6.1
		c0,2.6,0.3,2.9,2.3,2.5c5.7-1.4,13.5-1.8,14.1-0.9c1,1.6-2.1,2.9-9.8,4.1c-6.9,1-8.6,2-8.6,5.3c0,1.6,1,1.8,7.4,1.8
		c4,0,9.8-0.4,12.7-1c6.5-1.2,21.9-8.6,21.9-10.5c0-1.5-8.1-5.6-14.5-7.4C586.9,398.8,582.4,398.8,576,400.1z M239.9,419.7
		c-0.9,4.4-1.4,13.3-1.3,25.3c0,16.5,0.3,19.8,2.8,30.3c4.4,18.8,9.6,32.3,23.1,60.2c13.4,27.4,18,39.5,21.4,56.2
		c2.8,13.4,2.7,22.3,0,28c-2.9,6.1-9.6,11-17.1,12.4l-5.9,1.2l3.3,3.4c8.6,9,22.3,11,41.3,5.9c6.4-1.7,10.3-6.6,13.9-17.3
		c2.2-6.5,2.6-9.7,2.6-18.5c0-18.5-2.6-27.6-15.2-54.3c-19.3-40.5-23.6-51.9-29-76.2c-1.7-7.8-2.2-13.3-2.2-27
		c-0.1-16.7-0.2-17.2-2.3-18.2c-3.7-1.7-10.3-8.2-13-12.9l-2.6-4.4l-2.2,4.5c-3.1,6.6-7.3,11.7-9.5,11.7c-2.9,0-3.6-1.8-5.4-14.2
		C242.1,411.9,241.2,413.3,239.9,419.7z M561.8,424.6c-1.6,1.5-0.7,2.2,5.7,4.5c7,2.5,9.8,4.5,7.3,5.4c-0.7,0.3-4-0.4-7.2-1.5
		c-7.2-2.5-8.6-2.5-8.6-0.3c0,3.5,11.6,9.4,22.2,11.3c5.6,1,12.7,0.7,16.4-0.7c3.6-1.3-7.2-12.8-15.4-16.5
		C577.4,424.7,563.2,423.1,561.8,424.6z M283,431c-2.5,0-2.8,25-0.5,38.5c4.5,25.8,7.6,34.4,29.1,80.2c11.4,24.3,14.9,35,16.2,50.2
		c1.3,14.9-1.5,28.5-7.9,38c-3.5,5.1-3.2,5.7,5.3,10.8c6.4,3.9,16.1,6.5,22.5,6.1l4.8-0.3l1.7-5.3c6.3-18.7,6.3-19,6.2-56.2
		c0-27.7-0.4-36.6-1.8-45.3c-0.9-5.9-1.6-11.5-1.4-12.5c0.2-1.3-4.9-7.4-15.7-18.6c-8.8-9.2-17.4-18.9-19.1-21.4
		c-4.7-6.9-8.1-15.9-10-25.8c-0.9-4.9-1.7-9.4-1.9-10s-2.3-1.6-4.7-2.2c-2.3-0.7-5.8-2.1-7.6-3.2c-3.7-2.3-9.9-11.4-12.6-18.4
		C284.6,433.1,283.5,431,283,431z M559.6,446.9c1.5,3.3,2.4,6.8,2,7.7c-0.9,2.4-2.8,0.4-5.1-5.5c-1.1-2.8-2.2-5.1-2.6-5.1
		c-0.3,0-1.9,1.9-3.4,4.1c-3.2,4.9-2.8,6.1,3.6,14.5c4.1,5.3,12.6,12.1,13.7,10.9c0.4-0.4,0.7-5.5,0.7-11.3c0-12-1.8-17.1-7.4-21.1
		C556.1,437.5,555.9,438.3,559.6,446.9z M575.2,446.6c-2.9-0.7-5.2-1.3-5.2-1.2s0.7,2.6,1.5,5.6c2.9,10.7,1,26.2-3.1,26.8
		c-4.4,0.6-17.5-11.5-23.2-21.5c-0.6-0.9-2.2-0.8-6.7,0.6c-5.9,1.8-6,1.9-6.7,6.2c-2.1,12.1-3.3,16.1-7.4,24.7l-4.3,9.3l1.4,7.7
		c1.9,9.5,2.1,23.4,0.5,29.3c-0.7,2.4-4.3,11.6-8.1,20.4c-10.3,24-13.6,39.7-12.6,59.5c0.6,12.3,2.5,18.1,9.5,28.5
		c5.1,7.6,10,11.5,14.3,11.5c3.6,0,8.6-5,9.5-9.6c0.6-3,0.2-3.9-3.4-7.8c-7.6-8.3-11.2-18.3-11.2-31.5c0-15.4,8-34.6,24.6-59.2
		c29.1-43,32.2-48.3,36.9-62.9c2.3-7,2.9-10.9,3.3-21.8l0.4-13.2h-2.4C581.5,448,578.1,447.4,575.2,446.6z M516.1,502
		c-0.4,0-8.1,7.8-17.2,17.2l-16.5,17.3l-1.7,12.5c-2.1,16.2-3.2,60.3-1.8,73.5c1,9.9,4.6,24.5,7.8,31.7l1.6,3.8h7.5
		c6.3,0,8.3-0.4,11.9-2.5c2.3-1.4,4.3-3,4.3-3.6c0-0.6-1.8-3.7-4.1-7c-9.5-14-12.2-26.3-10.1-46.6c1.6-15.6,4.7-26.8,12.7-45.4
		c8.5-19.5,9.8-25.7,8.5-38.2c-0.5-5.2-1.2-10.2-1.6-11.1C517.1,502.7,516.5,502,516.1,502z"/>
	<path d="M369.5,362.6c5.5,0.8,15.1,2.2,21.4,2.9c11.7,1.4,13.8,2.2,12.8,4.9c-1.5,3.9-4.8,4-25,0.7c-25-4-32.7-3.5-50.4,3.4
		c-11.2,4.4-15.3,4.9-15.3,2c0-1.5,9.1-7.3,16.3-10.5c2.5-1.1,7.4-2.7,10.9-3.4C348.7,360.7,357.6,360.7,369.5,362.6z"/>
	<path d="M504.5,364.5c10.7,2.2,28.6,11.9,27,14.6c-1.2,1.8-6.5,0.8-16.3-3.1c-7.7-3.1-12.4-4.3-20.4-5.2c-9.8-1.1-11.2-1-29.2,2.1
		c-15.5,2.7-19.3,3-21.6,2.1c-3.1-1.3-4.6-3.8-3.1-5.3c0.5-0.5,6.1-1.6,12.3-2.3c6.2-0.7,14.9-2,19.3-2.8
		C483,362.7,495.8,362.7,504.5,364.5z"/>
	<path d="M353.7,383.2c1.9,1.5,0.8,2.5-5,4.4c-5.1,1.6-12.5,5.2-15.9,7.6c-2.5,1.8-4.7-0.4-2.8-2.7c1.8-2.2,10.2-6.4,17-8.6
		C350.8,382.7,352.9,382.5,353.7,383.2z"/>
	<path d="M499.3,386.3c8.2,3,15.7,7.4,15.7,9.2c0,2.6-1.9,2.5-6.6-0.4c-2.6-1.7-7.5-4-11-5.1c-6.5-2.2-8-3.3-6.9-5
		C491.4,383.6,492.1,383.7,499.3,386.3z"/>
	<path d="M324.9,399.1c0.2-0.1,4,1.6,8.5,3.6l8.1,3.8l16.1,0.3c12,0.3,17.7-0.1,22.9-1.3c12-2.8,10.3,1.6-2.2,5.5
		c-19.3,6-40.2,4.6-56.6-3.7c-5.7-2.8-5.9-5-0.7-6.9C322.9,399.7,324.7,399.1,324.9,399.1z"/>
	<path d="M525.5,403c3,1.1,3.1,2.1,0.8,4.2c-2,1.7-12.3,5.9-19.3,7.9c-7.3,2-26.1,1.5-35.8-0.9c-15.7-4.1-21.8-10-6.9-6.7
		c5.8,1.3,11.2,1.6,22.9,1.3c15.3-0.3,15.3-0.3,23.3-4.1C518.4,401,519.9,400.9,525.5,403z"/>
	<path d="M307,441.9c2.1,4-1.9,7.4-5.1,4.5c-2.2-2-2.5-5-0.6-5.7C303.9,439.6,306,440.1,307,441.9z"/>
	<path d="M544,444.2c0,2.1-2.6,3.7-5.1,3.1c-2.4-0.7-3.4-4-1.9-5.8C539.4,438.6,544,440.4,544,444.2z"/>
	<path d="M442.8,459.7c0.2,0.8-1.7,2.2-4.5,3.5c-8.4,3.8-25.3,2.3-25.3-2.3c0-2.1,1.2-2.4,4.1-0.8c3,1.6,14.9,1.3,18.9-0.4
		C440,457.9,442.1,457.9,442.8,459.7z"/>
	<path d="M417.1,482c1.2,0,3.4,0.8,5,1.7c2.5,1.5,3.3,1.6,6.2,0.4c6.8-2.8,7.2-2.7,15.4,4.1c13.6,11.2,14.8,12,17.9,11.2
		c1.5-0.4,4.7-2.7,7.1-5.1c4-4.2,6.3-4.9,6.3-1.8c0,2.6-10,10.4-15.5,12.1c-4.8,1.5-6.4,1.6-13.7,0.5c-8.1-1.3-8.4-1.2-13.8,1.3
		c-3,1.4-6.1,2.6-6.8,2.6c-0.7,0-3.9-1.2-7-2.7c-5.1-2.5-6.9-2.8-16.7-2.9c-8.1,0-12.1-0.5-15.2-1.8c-4.4-1.9-10.3-7.6-10.3-10.1
		c0-3,2.3-2.6,5.3,1c1.7,2.1,4.4,4.3,6.1,5c2.9,1.3,3.4,1,15.3-7.1C409.5,485.8,416,482,417.1,482z M417.3,486
		c-1.6,0-19.3,12.1-19.3,13.3c0,0.5,2.7,0.6,6.8,0.2c6.2-0.6,7.2-0.4,13.5,2.5l6.8,3.2l6.2-2.7c6-2.7,6.3-2.8,13.5-1.6
		c4.1,0.7,7.6,1,7.9,0.7c0.4-0.3-0.7-1.6-2.3-2.8c-1.6-1.3-5.8-4.7-9.3-7.7l-6.3-5.4l-3.5,1.7c-4.1,2-7,2-10.3,0.1
		C419.6,486.7,418,486.1,417.3,486z"/>
	<path d="M447.8,523.8c0.6,1.8-6.8,6-12.7,7.3c-9.6,2-27.8-1-31.7-5.2c-1.6-1.7-1.6-1.9,0-2.5c0.9-0.3,3.9,0.3,6.6,1.5
		c4.1,1.8,7.1,2.2,15.6,2.2c9.4,0.1,11-0.2,15.2-2.5C445.7,522,447.1,521.8,447.8,523.8z"/>
	<path d="M349,731c24.1,0,38.1,1,45,3.2c8.5,2.7,16.2,11,13,14.1c-0.9,0.9-1.5,0.8-2.4-0.8c-2.2-3.8-7.4-8.1-11.2-9.3
		c-8.2-2.4-23.6-3.4-48.8-3.1c-25.5,0.4-28.2,0.1-22.5-2.8C323.8,731.4,331.6,731,349,731z"/>
	<path d="M517.8,733.1c1.2,0.5,2.2,1.4,2.2,2.1c0,1-5.6,1.2-27,1c-16.5-0.3-30.4,0.1-35.7,0.7c-10.9,1.5-18.4,4.8-21.4,9.7
		c-2,3.2-2.3,3.4-3.7,2c-1.5-1.4-1.4-1.8,0.4-4.3c6.5-8.6,14.7-11.3,37.4-12.2C488.4,731.4,514.6,731.9,517.8,733.1z"/>
	<path d="M1,848c0.6,0,1,0.4,1,1c0,0.5-0.4,1-1,1c-0.5,0-1-0.5-1-1C0,848.4,0.5,848,1,848z"/>
	<path d="M849,848c0.6,0,1,0.4,1,1c0,0.5-0.4,1-1,1c-0.5,0-1-0.5-1-1C848,848.4,848.5,848,849,848z"/>
</g>
</svg>
