<?xml version="1.0" encoding="utf-8"?>
<!-- Generator: Adobe Illustrator 21.0.0, SVG Export Plug-In . SVG Version: 6.00 Build 0)  -->
<svg version="1.1" id="图层_1" xmlns="http://www.w3.org/2000/svg" xmlns:xlink="http://www.w3.org/1999/xlink" x="0px" y="0px"
	 viewBox="0 0 850 850" style="enable-background:new 0 0 850 850;" xml:space="preserve">
<g transform="translate(0.000000,0.000000) scale(1.00000,1.00000)">
	<path d="M388,1.9c17.7,5.5,30.6,20.6,31.8,37.3c0.3,3.8,0.9,7.1,1.3,7.4c0.5,0.3,0.9,1.4,0.9,2.5c0,1.7,0.4,1.8,4.3,1.2
		c2.3-0.5,8.5-0.8,13.7-0.8c8.1,0.1,10.3,0.4,15.1,2.7c9.2,4.2,15.1,8.7,28.6,21.9c14.1,13.6,17.7,19,22.8,34.4
		c2.5,7.2,2.7,9.5,2.8,23.5c0.1,14.7,0,15.9-2.8,24c-2.9,8.3-3,9-3,28v19.5l-3.8,7.2c-2.1,4.1-4.4,7.3-5.2,7.3
		c-1.9,0-1.9-0.4,0.1-7.9c0.8-3.3,1.4-8.4,1.2-11.3l-0.3-5.3l-1.6,4.5c-1,2.5-2.5,7.4-3.5,10.9s-3.1,8.1-4.6,10.2s-2.8,4.1-2.8,4.4
		c0,0.3,1.3,0.5,3,0.5c9,0,14.7,5.9,17.1,17.7c2,9.8,0,33.2-3.5,40.8c-1.4,3.2-2.6,6.9-2.6,8.4c0,2.4-0.9,4.2-5.3,10.4
		c-1,1.4-3.1,8.3-4.7,15.4c-1.5,7-4,17.3-5.4,22.8c-1.4,5.4-2.6,11.5-2.6,13.5c0,3.8,8.5,38.9,12.2,50c1.1,3.6,3.4,9.2,5,12.4
		c3.3,6.6,3.2,11.2-0.3,14.4c-1.9,1.8-1.8,2,5.2,14.8c3.9,7.1,8.9,15.5,11.1,18.6c4.7,6.7,4.5,8.1-1.6,12.8c-2.5,1.8-4.7,4.3-5,5.6
		c-0.4,1.5-2.3,3.2-5.4,4.8l-4.8,2.4l0.7,10.4c0.4,5.6,1.3,17.6,1.9,26.6c1.9,28.7,4.1,35.6,19,58.8c10.6,16.5,17.3,29.1,25.3,47.9
		c7,16.4,11.1,28.1,15.8,45c7.3,26.4,13.6,46.1,19.4,60.5c3.5,8.5,6.6,17.3,7,19.5s2,7,3.6,10.7c2.4,5.5,2.9,8,2.9,14.6
		c0,4.9,0.8,11.1,2.2,16.3c1.3,5.1,2.2,11.6,2.2,16.4c0.1,11.4-2.8,17-13.9,26.9l-8.3,7.4l-13.9-0.6c-7.6-0.3-16.5-0.5-19.9-0.4
		c-6,0.2-6.1,0.2-9.3-3.8c-1.7-2.2-3.8-4-4.5-4c-1.9,0-7.5-6.6-9.3-10.9c-1.9-4.5-1.9-13.7-0.1-18.1c0.8-1.9,3.6-6,6.2-9
		c2.6-3,5.6-7.1,6.6-9c3.3-6.4,6.2-17.4,6.2-23.2c-0.1-4.3,0.6-6.9,2.5-10.5c3.4-6.5,2.7-12.6-3.3-28.5c-5.3-14-6.7-17-21-43.8
		c-5.7-10.7-11.6-22.7-13.3-26.5c-14.3-34.1-22.8-53.9-25.3-59c-3.5-6.9-24.8-63.3-31.8-84.3c-2.6-7.9-4.9-14.4-5.1-14.5
		c-0.2-0.2-3.2-0.1-6.6,0.1l-6.3,0.4v4.1c0,2.3-0.4,4.7-0.8,5.3c-1.3,2-5.1,3.4-10.9,4c-7.3,0.7-9.3-0.6-11.3-7.7
		c-0.9-2.9-2.1-5.4-2.7-5.6c-0.7-0.3-3.6,7.1-7.6,19.5c-3.6,10.9-9.1,25.7-12.2,32.8c-3.1,7-7,16.5-8.5,20.9s-4,10.9-5.5,14.5
		s-4.5,12.7-6.6,20.2c-4,14.2-11.2,31.9-23,56.9c-9.3,19.7-14,34.6-18.4,58.4c-3.4,18.1-3.6,20.4-2.5,24.5c0.7,2.5,1.6,9.9,2,16.5
		c0.7,9.6,1.4,13.3,3.5,18.4c5.2,12.4,3.9,23.3-4,34.1c-3.9,5.3-6.8,6.4-13.1,5c-2.1-0.5-6.1-0.7-8.9-0.4c-2.7,0.3-9.6,0.1-15.3-0.4
		l-10.3-0.9l-6.4-6.9c-14.3-15.4-12.8-28.2,8-67.9c11.9-22.7,16-35.9,20.6-66.5c5.7-38.6,10.6-61.7,15-72c1.3-3,7.5-15.1,13.7-26.7
		c9.8-18.5,15.9-32,19.2-42.7c0.5-1.6,1.1-14.6,1.2-28.9l0.3-26.1l-6.4-3.7c-3.5-2-6.7-4.3-7.1-5c-0.4-0.8,2.3-9.7,6.2-20.4
		c13.2-36.1,13.4-36.8,12-37.2c-3.7-1.3-3.3-3.9,4.3-25.6c4.1-11.7,7.5-21.7,7.5-22s-1.7-1.8-3.7-3.2c-2.7-1.8-5.1-2.5-8.3-2.5
		c-3.5,0-6.1-0.9-10.9-3.8c-9.8-5.7-9.9-5.8-6.8-21.5c2.2-11.1,3.3-14.6,7.6-22.8c2.8-5.4,5.1-10.7,5.1-11.9c0-1.1-0.9-3.9-2-6.1
		l-2.1-3.9l5.1-6.1c2.7-3.3,5-6.3,5-6.7c-0.1-0.4-3.1-2.7-6.8-5.2c-6.1-4.1-6.8-5-9.1-11c-1.3-3.6-2.4-8.5-2.4-11
		c0-11.8,0.9-29.6,1.5-30.5c0.8-1.3-0.2-10.5-1.3-10.5c-2,0-13.1-10.5-15.6-14.7c-1.5-2.6-6.6-14.4-11.4-26.3
		c-4.7-11.8-13.2-30.5-18.8-41.5c-12.2-23.9-14.7-32.2-13.8-45.3c0.7-9.6,3.7-21.2,7.8-29.8c4.8-10.2,15-18.3,29-23
		c8.5-2.9,16.9-3.1,28.6-0.8l8.2,1.7l3.8-3c2.1-1.7,5.4-4,7.3-5.2c6.1-3.7,0-2.6-7.6,1.4c-9.2,4.8-10.6,3.2-3.3-3.5
		c9.9-9.2,21.8-13.3,38.6-13.4c5.7-0.1,10.3-0.2,10.3-0.3c0-0.2-2.4-1.8-5.2-3.7c-5.2-3.4-9.4-4.5-17.1-4.6c-4.3,0-4.7-2-0.6-3.1
		C372.8-0.4,381.9,0,388,1.9z M397.7,11.4c-2.5-1.5-2.2-0.8,2.2,4.9c5.4,7.1,7.5,12.4,6.9,17.2c-0.3,2.8-0.5,2.7-3.5-3
		c-3.9-7.4-6.6-10-12.2-12c-5.2-1.8-11.1-1.9-19.8-0.3c-6.6,1.2-6.8,2.7-0.3,2.8c4.7,0.1,13.9,3.9,19.1,8.1c3.2,2.5,3.9,3.5,2.6,3.7
		c-0.9,0.2-1.7,1-1.7,1.7c0,0.9-1.7,1.6-4.7,2c-14,1.8-23.5,5.5-31.1,12c-5.2,4.5-4.9,5.6,0.6,2.1c5-3.1,9.7-4.4,19.8-5.2
		c10.2-0.8,15.4,0,15.4,2.5c0,3,4.6,3.3,6.5,0.5c0.9-1.3,2.2-2.4,3-2.4c2.8,0,1.5-1.7-3.5-4.4c-8.2-4.5-6.1-6.5,2.3-2.2
		c5.8,2.9,6,1.9,0.7-2.7c-4.5-3.8-4.9-4.7-2.1-4.7c1,0,4.4,2.7,7.5,6.1c4.5,4.9,6,5.9,7.7,5.4c1.9-0.7,2.1-1.2,1.6-6.1
		c-0.6-6.3-4.3-13.4-10-19.7C402.4,15.2,399.2,12.4,397.7,11.4z M356.9,31.8c-5.9,3.5-4.8,4.2,1.8,1.3c6-2.8,14.8-4.4,20.2-3.7
		c4.6,0.5,4.6,0.5,1.6-0.9C374.5,25.7,365.2,27,356.9,31.8z M322,38.3c-11.6-0.4-14.5,0.4-25.6,6.8c-14.4,8.2-21.6,21.6-23.1,42.4
		c-1,13.8,2.2,23.3,17.2,51.5c2.4,4.7,8.1,17.7,12.5,28.9c4.5,11.2,9.5,23,11.1,26.4c3.9,7.7,12.3,16.1,17.6,17.7
		c3.5,1.1,4.3,1,7.4-0.9c2.5-1.5,5.1-2.1,9.6-2.1c5.8,0,6.5-0.2,10.1-3.8c5.1-4.8,6.2-9,6.1-22.7l-0.1-11l-1.5,7
		c-1.9,9.2-4.8,14.7-10.1,19.6c-7.8,7.2-13.2,8.4-22.9,4.8c-10.7-4-16.4-12.2-26.8-38.9c-3.1-8-9.5-21.6-14.2-30.3
		s-9.7-19.2-11.1-23.5c-4.8-14.5-3.1-40.1,3.2-48.7c3.3-4.6,2.7,2.2-1.1,12.2c-0.3,0.8,0.3,1.3,1.6,1.3c2.3,0,4.7-3.5,3.1-4.5
		c-1.5-0.9-1.2-5.1,0.5-6.5c1.2-1,2.1-1,4.1-0.1s3.1,0.8,5.3-0.3c3.4-1.8,5.5-4.2,4.7-5.5c-0.9-1.4,2.2-4.1,4.6-4.1
		c1.1,0,2.2,0.8,2.5,2c0.6,2.4,0.2,2.4,6.8,0.5c2.9-0.9,5.6-2.2,5.9-3c0.8-2.1,5.9-1.8,7.8,0.4c1.9,2.3,9.5,3.8,11.1,2.2
		c0.6-0.6,1.9-1.1,2.9-1.1c1.8,0,3.4-2.9,4.5-8c0.4-2.4-0.1-2.8-6.4-5.4C333.6,39.2,330.8,38.7,322,38.3z M411.3,48.5
		c-1.4,1-3.2,1.3-4.8,0.9c-2.9-0.7-5.5,1-5.5,3.6c0,1.7,7.2,9,8.9,9c0.5,0,2.3-1.6,4-3.5c3.2-3.7,4.1-8.1,1.9-10.3
		C414.3,46.7,413.9,46.7,411.3,48.5z M385,49.1c-3.5-0.1-11.2,2.8-12.3,4.7c-0.4,0.5,1.1,0.1,3.2-1c2.1-1,5.8-2.2,8.2-2.7
		C388.4,49.2,388.4,49.2,385,49.1z M431,54.9l-3.5,0.7l2.8,1.4c1.5,0.7,2.7,1.7,2.7,2.1c0,1.9-2.2,1.8-5.9-0.1
		c-6.9-3.5-9.8-2.1-4.1,2c2.6,1.9,3.9,2.1,8.8,1.5c7.6-0.9,18.5,1.5,26.4,5.7c11.5,6.1,24.9,20.9,27.9,30.7c0.6,2,1.5,9.9,2,17.7
		c0.6,10.1,1.4,15.3,2.8,18.5c1.1,2.4,2.9,9.3,4.1,15.4c1.3,6,2.5,11.2,2.8,11.5c0.2,0.3,0.2-6-0.1-14c-0.6-14.9-2-22.2-6.6-32.5
		c-1.2-2.6-1.9-5-1.7-5.2c0.8-0.8,6.7,8.4,8.7,13.6c1.1,3,2.5,10.4,3.1,16.3c1.6,15.3,3.1,11.5,3.2-8.2c0.1-15.4,0.1-15.6-3.2-23.5
		c-6.4-15.4-8.8-18.8-21.6-31.1c-12.3-11.9-19-16.9-27.2-20.4C447.3,54.8,436.4,53.7,431,54.9z M388.3,55c-6.4,0-12.5,2.4-16.3,6.5
		l-2.2,2.3l2.1,5.7c1.2,3,2.1,6.8,2.1,8.4c0,1.5,0.3,3.1,0.7,3.4c0.3,0.4,3.4-1.9,6.8-5.1c9.2-8.6,15.8-14.2,16.7-14.2
		c1.5,0,0.8-1.7-1.7-4.4C394.4,55.4,393.3,55,388.3,55z M414.7,64.5c-1.5,1.4-3.5,2.5-4.3,2.5s-1.4,0.7-1.4,1.5c0,2,0.3,1.9,5.8-1
		c2.6-1.4,5.4-2.5,6.2-2.5c1.1-0.1,1-0.4-0.4-1.5C418.1,61.6,418,61.6,414.7,64.5z M437.9,66.4c-8.6-0.4-15,1-22.5,4.9
		c-2.3,1.2-5.4,1.6-11.5,1.4c-7.5-0.2-8.9,0.1-12.9,2.5c-5.5,3.2-14.1,12.1-16.8,17.4c-2.4,4.7-7.2,19.8-7.1,22.2
		c0,0.9,1.6-1.7,3.6-5.8c4.9-10.5,10.2-19,11.9-19c2.2,0,1.8,1.4-4,12.3c-6.2,11.7-9.6,21.9-9.5,28.6v4.6l2.5-5.5
		c1.4-3,3.6-9.3,4.9-13.9c1.5-5.4,3.2-9.3,4.9-10.9c2.9-2.9,4.3-2.5,2.6,0.8c-1,1.8-0.9,2.4,0.1,3.1c1.1,0.7,1.6-1.1,2.6-8.4
		c0.6-5.1,1.2-9.3,1.2-9.5c0.1-0.1,2-2.3,4.2-4.7c2.7-2.9,5-4.5,6.5-4.5c3.3,0,3,1-1.2,5.1c-5,4.7-7.4,10.2-7.3,16.9l0.1,5.5l1.2-5
		c0.7-2.8,2-6.5,2.9-8.4c2.1-4.2,8.8-13.1,9.9-13.1c0.4,0,0.8-0.6,0.8-1.4c0-0.7,0.6-1.9,1.4-2.5c1.9-1.6,3.2,0.3,3.9,6.1
		c1,7.3,5.3,16.8,11,24c2.8,3.6,5.3,6.5,5.4,6.4s-2-4.6-4.7-10c-6.2-12.7-10.1-27.6-7-27.6c1.2,0,3,3.3,3,5.7c0,1,1.1,4,2.4,6.8
		c2.2,4.8,6.5,10,22.3,26.8l7.3,7.9l-3.4-7.9c-4-9.3-7-15.4-10.3-20.6c-2.3-3.7-2.5-6.7-0.4-6.7c0.5,0,2.5,2.5,4.3,5.6
		c1.8,3,5.2,7.9,7.6,10.7c3.6,4.3,9.7,13.1,19,27.3c3.6,5.6-2.9-21.6-8.5-35.5c-1-2.5,2.1-0.5,4.4,2.8c3.2,4.7,5.9,12.5,8.2,23.3
		c1.1,5.1,3.3,13,4.9,17.5l2.9,8.2l0.6-7c0.3-3.9,0.3-10.8,0-15.5c-0.4-5.7-0.3-8.4,0.5-8.4c1.7,0,2.2,1.4,3.7,9.3l1.3,7.2l0.1-5.1
		c0.3-12.7-4.7-25.1-15.3-38.2c-3.6-4.5-6.6-8.5-6.6-8.8s2,0.9,4.5,2.7c4.3,3.1,9.4,9.1,14.4,16.9l2.2,3.5l-0.6-3.5
		c-0.9-5-6-13.2-12.8-20.6c-4.7-5.1-7.8-7.3-15.1-11C447.2,67.3,445.4,66.8,437.9,66.4z M407.2,105.2c0.5,10.8,1,12.5,6.6,19.8
		c3.7,5,4.4,9.1,1.2,8.3c-2.4-0.6-2.4-0.5-0.5,4.1c1.3,3.1,1.3,3.6,0.1,3.6c-1.6,0-6-5.9-9.1-12c-2.1-4.1-3.2-5-6.2-5
		c-2.8,0-2.8,0,0.2,5.9c1.9,3.8,3.5,5.4,7,7.1c4.5,2.2,9,7.1,8.3,9.2c-0.2,0.6-1.8-0.2-3.8-1.9c-5.6-4.8-9.2-6.2-4.3-1.7
		c2.3,2.1,5.4,6.1,6.9,8.8l2.8,4.9l-2.7-0.5c-2.4-0.5-2.7-0.2-2.7,2.1c0,1.4-0.9,4.3-1.9,6.2c-1.7,3.2-1.8,3.6-0.4,3.5
		c3-0.2,2.4,2.2-0.8,3.3c-2.3,0.8-4.3,0.8-7.6-0.1c-3.5-0.8-4.7-0.8-5.3,0.2c-1.1,1.8-2.9,0.4-2.3-1.9c0.3-1.4,0-1.9-1.3-1.8
		c-2.5,0.3-2.8-2-0.5-3.3c1.6-0.8,2.7-0.8,4.3,0.1c1.9,1,2,0.9,1.3-0.7c-0.5-1.1-1.1-4.3-1.3-7.2c-0.4-4.8-0.1-5.7,2.5-8.4l2.8-3.1
		l-3.9,0.6c-2.1,0.4-4.9,1.6-6.2,2.8c-2.6,2.4-6,1.9-5-0.7c0.4-0.9-0.1-2.8-0.9-4.1c-0.9-1.3-1.5-3.2-1.3-4.1
		c0.3-1.5,0.6-1.4,2.6,0.6c2.8,2.8,2.9,2.8,2.4-0.8s0.9-3.9,3.1-0.8c1.3,1.8,1.6,1.9,1.6,0.7c0.1-0.9,1.2-2,2.6-2.3l2.6-0.7l-1.8-3
		c-1-1.7-2.5-3.7-3.5-4.5c-2.6-2.5-6.9,0.4-9.7,6.4l-2.4,5l1.8,7.4c1,4,2.7,9.5,3.7,12.3c1.1,2.9,2.3,9.3,2.7,15l0.8,10l5.9,5.3
		c6.9,6.3,20.1,15.3,26.8,18.3l4.7,2.1l6.7-2.1c9.1-2.8,21.6-10.1,28-16.4c5-4.9,7.6-9.3,2.9-4.9c-2.2,2.1-5.2,3-4.5,1.4
		c0.2-0.4,1.8-3.6,3.5-7.2c4.2-8.3,6.3-16.8,6.2-24.5c0-5-0.2-5.6-1-3.5c-0.6,1.4-2,3.5-3.1,4.7l-2.1,2.3h2.8c2.6,0,2.7,0.1,1.2,1.8
		c-1.2,1.3-1.3,2.2-0.6,2.9c0.7,0.7,0.3,1.7-1,3.4l-2,2.4l-5.1-2.8c-6-3.3-11-3.5-18-0.7c-5.4,2.1-7.3,1.9-6.3-0.5
		c0.3-0.8,0-1.5-0.7-1.5c-1.1,0,0-1.6,5.7-8.8c2-2.6,2.5-2.7,11.1-2.7c7.3,0,9.4,0.3,11,1.8c2,1.9,2.1,1.8,3.3-2.1
		c2.4-8.3-1.3-17.2-7.3-17.2c-1.7,0-1.9,0.6-1.6,4.7c0.4,6.2-1.5,6.6-3.3,0.6c-0.8-2.6-2-4.9-2.8-5.1c-1-0.3-1.2,0-0.8,1.2
		c0.4,0.9,1,2.3,1.3,3.1c0.8,2-1.5,1.9-3.7-0.1c-1.7-1.5-2.3-1.5-7.6,0.3c-9.6,3.2-12.7,0.6-5.3-4.3l4-2.7l-9.4-9.7
		c-9.7-10-16.6-19.5-18.6-25.6C407.8,91.9,406.7,94.5,407.2,105.2z M396.6,100.7c-0.9,2.6-1.6,7.7-1.6,11.5c0,5.8,0.3,6.8,1.8,6.8
		c4-0.1,4.4-1.2,3.2-9.9c-0.7-4.4-1-9.2-0.8-10.6C400.1,94.3,398.3,95.7,396.6,100.7z M428,108.5c0,1.5,7.9,14.1,11.3,18
		c2.3,2.6,3.7,3.5,5,3c0.9-0.4,1.7-1,1.7-1.5c0-0.4-2.9-4-6.4-8.1C432.6,111.7,428,107.2,428,108.5z M382.1,117.5
		c-3.5,6.3-3.7,6.6-1.6,5.9c0.8-0.4,1.5-0.4,1.5-0.1c0,0.2-0.7,2.4-1.5,4.7c-2.3,6.6-1.7,6.1,2.5-2c2.1-4.1,3.9-9,4-10.8
		C387,110.6,385.6,111.2,382.1,117.5z M371.6,143.3c-0.3-0.4-0.6,0.2-0.5,1.3c0,1.1,0.3,1.4,0.6,0.6
		C372,144.5,371.9,143.6,371.6,143.3z M489.2,144.8c-1.5-1.5-2,6.4-1.3,19.7c0.6,11.3,0.7,11.7,1.6,7c0.5-2.8,0.9-9.7,0.8-15.3
		C490.3,150.5,489.8,145.4,489.2,144.8z M401.6,148.9c-0.3,0.5,0.1,1.4,0.9,2.1c1.2,1,1.5,1,1.5-0.3
		C404,148.8,402.4,147.6,401.6,148.9z M403.8,156.9c-0.4-1.1-0.6-1.1-1.2,0c-0.9,1.3,0,2.8,1,1.8C403.9,158.4,404,157.6,403.8,156.9
		z M447.4,156c-1.1,0-2.9,0.7-4,1.5c-2.5,1.9-1.5,1.9,2.7,0C448.6,156.5,449,156.1,447.4,156z M481.1,167c-0.5,1.6-0.7,3-0.2,3
		c1.3,0,3.1-2.4,3.1-4.2C484,163,482.3,163.7,481.1,167z M483.3,173c-0.5,0-2.8,1.3-5.2,2.9c-2.5,1.7-4.8,2.8-5.2,2.6
		c-0.4-0.3-0.9,0.2-1.3,1c-0.8,2.1,1,2.8,5.2,2c5.7-1.1,7.2-2.2,7.2-5.5C484,174.3,483.7,173,483.3,173z M378.1,185l-2.1-6.5
		l0.6,8.9c0.6,8.6,0.6,8.8-1.4,7.7c-1.1-0.6-2.6-2.5-3.3-4.3l-1.3-3.3l-0.3,3c-0.7,5.4-4.3,15.2-6.4,17c-1.7,1.7-1.8,2-0.3,3.6
		c2.3,2.6,1.5,9.1-1.3,10.4c-1.7,0.7-2.1,1.5-1.7,3c0.8,2.3,2.2,3.5,4.5,3.5c2.2,0,6.9,3.8,6.9,5.6c0,2.1,0.4,1.8,5.7-3.7
		c4.8-5,5-5.1,12.7-6c4.3-0.4,8-1,8.2-1.2c0.2-0.1-0.7-2.4-2-4.9c-1.4-2.8-2.8-8.2-3.5-13.9c-1-8.2-1.7-10.1-4.9-14.7
		c-5-7.3-5.6-7.4-4.8-0.8c0.7,5.5,0,7-2.2,4.3C380.7,192.1,379.3,188.6,378.1,185z M478,186.1c-1.4,0.6-3.3,0.8-4.2,0.6
		c-2.6-0.7-12.8,11.6-12.8,15.4c0,2.9,0.2,3,3.7,2.7c3.7-0.3,3.7-0.3,5.4-7.2c3.1-12.4,5.3-11.1,4.8,2.8c-0.2,4.7-0.1,8.2,0.2,7.8
		c1.6-1.8,3.9-11.1,3.9-15.9c0-4.6,0.3-5.3,2-5.3c1.1,0,2-0.5,2-1C483,184.8,481.3,184.8,478,186.1z M456.3,202.1
		c-0.5,0-3.7,1.9-7.3,4c-3.6,2.2-8.3,4.5-10.5,5.1c-5.2,1.5-5.7,2-5,5.1c0.6,2.4,0.9,2.5,2.8,1.2c1.2-0.7,5.1-1.9,8.7-2.5
		c13.1-2.2,12-1.5,12-7.6C457,204.4,456.7,202,456.3,202.1z M462,215.1c-1.5,1.1-6.4,2.5-12,3.4c-12.8,2.1-12.5,2-10.2,5
		c1.1,1.4,3.1,6.8,4.3,12c1.3,5.2,2.6,9.5,2.9,9.5c1.1,0,8.8-8.5,13.9-15.4c4.3-5.8,5.1-7.6,5.1-11.2
		C466,213.2,465.3,212.7,462,215.1z M426.5,216.5c-0.5,0.2-3.1,0.6-5.6,1l-4.7,0.6l1,4c0.6,2.2,2.2,4.9,3.6,6l2.5,2l2.9-2.8
		c2.2-2.1,2.8-3.6,2.8-7C429,216.2,428.7,215.7,426.5,216.5z M410.6,224.3c-0.2-0.3-7.8,9.5-9.1,11.6c-0.4,0.8,1.2,0,3.7-1.7
		c3.5-2.4,4.7-3.9,5.1-6.4C410.5,226,410.7,224.4,410.6,224.3z M471.1,224c-0.5,0-3.3,3.3-6.2,7.2c-6.4,8.7-17.7,20.8-19.5,20.8
		c-1.4,0-1.9-1.4-3-7.3c-0.3-2-1-3.7-1.5-3.7c-1.7,0-10.5,4.8-11.8,6.4c-1,1.2-3.9,17.8-4.1,23.3c0,0.6-0.7,1.9-1.6,2.7
		c-1.9,2-12.7,2.2-14.1,0.3c-0.9-1.1,1.4-22.2,3.2-29.5c0.3-1.2-0.2-3.6-1-5.2l-1.6-3l-5.7,3.9c-9.1,6.1-15.2,8.1-15.2,4.9
		c0-0.9,4.8-6.8,13.3-16.5l2-2.2l-3.4,0.9c-1.9,0.5-5.8,1.1-8.6,1.5l-5.3,0.7v7.7c0,6.7-0.4,8.6-3.1,14l-3.1,6.2l3.2,4
		c1.9,2.4,3.3,5.4,3.4,7.5c0.3,2.6,1.7,4.9,5.7,9.3c3,3.2,5.7,5.9,6,6c0.3,0,1.3-1.5,2.2-3.4l1.7-3.5h11.4c13,0,14.6,0.7,14.6,6.6
		c0,4.1-1.8,8-5.4,11.3c-1.4,1.4-2.6,2.9-2.5,3.5c0,0.6,2.7,3.1,6.1,5.4l6.1,4.4l5.4-5.4l5.3-5.3l-1.6-4.3l-1.7-4.2l4.2-4
		c4.8-4.4,4.8-3.7,2.1-20.8c-0.9-5.9-1-8.6-0.2-9.4c1.7-1.7,3.2,0,3.2,3.6c0,1.8,0.3,5.5,0.7,8.2l0.7,4.9l1.2-8.2
		c0.6-4.6,1.7-9.7,2.4-11.3c0.7-1.7,6.5-7.7,13.2-13.5l11.8-10.4l-3.9-2.1C473.9,224.9,471.7,224,471.1,224z M435.5,229.8
		c-1,5.9-3.2,8.2-10.8,11.8c-4.6,2.1-6.4,3.3-4.9,3.4c1.2,0,2.5,0.7,2.8,1.5c0.9,2.2,1.9,1.8,3.2-1c0.7-1.5,3.6-3.7,7.4-5.6
		c3.5-1.7,6.5-3.3,6.7-3.5s-0.2-2.4-0.9-4.9C437.4,225.6,436.4,225.1,435.5,229.8z M428.6,229.9c-1,1.1-1.6,3-1.4,4.3
		c0.3,2.2,0.5,2.1,2.6-1.2c1.2-1.9,2.2-3.8,2.2-4.3C432,227.4,430.3,228,428.6,229.9z M485.6,229c-0.6,0.1-6.3,4.7-12.6,10.3
		c-12.7,11.3-15.4,15.4-16.6,24.9c-0.8,7.1-0.3,7.2,9.2,2.3c7.8-4.1,11.8-4,6.9,0.2c-1.6,1.4-6.3,4-10.3,5.9
		c-5.7,2.7-7.5,4.1-8.9,6.8c-1.5,3.3-1.5,3.6,1,7.8c3.2,5.5,6.7,8.8,14,13.1c7.9,4.8,12.2,5.5,15.4,2.5c4.5-4,8.3-10,8.3-12.8
		c0-1.5,1.1-5.2,2.4-8.1c1.8-3.9,2.8-8.8,3.7-17.9c1.9-19.5-1-31.4-8.3-33.9C488.1,229.5,486.2,229,485.6,229z M335.5,237.2
		c2.7,3.2,3,4.5,1.5,6.8c-0.8,1.3-1.1,1.2-2.4-0.5c-1.8-2.3-1.7-2.5-1.8,8.5c0,5.8,0.6,10.2,1.8,13.8c1.7,4.8,2.6,5.9,8.6,9.9
		c6.6,4.4,14.8,6.9,14.8,4.5c0-4.1,4.8-13,10.1-18.6c3.2-3.5,5.9-6.8,5.9-7.4c0-0.6-1.1-2.8-2.5-4.8c-1.3-2-2.7-5.2-3-7.3
		c-1.2-7.4-1.5-7.9-4.5-8.9c-3.6-1.3-3.6-1.2-1,3.8c2.8,5.4,2.5,6.3-1.2,4c-1.8-1.1-6.2-2.9-9.8-4s-8.2-3.1-10.2-4.5
		C334.4,227.4,330,230.7,335.5,237.2z M419.4,232.6c-1.8-1.3-2.4-1.4-2.3-0.4c0.2,0.7-0.1,2.4-0.5,3.7c-0.5,1.3-0.4,2.7,0.2,3.3
		c1.4,1.4,5.2-0.8,5.2-3.1C422,235.1,420.8,233.5,419.4,232.6z M417.1,255.1c-2-1.1-2.1-0.9-3.7,10.1l-0.6,4.8h4
		c4.5,0,4.5-0.1,5.8-10.4c0.6-5.7,0.6-5.8-1.5-4.7C419.7,255.7,418.4,255.8,417.1,255.1z M375.6,260c-1.6,0-10.6,10.3-11.3,12.9
		c-0.6,2.5,0.7,5.6,2.4,5.6c0.6,0,2.9-2.3,5.1-5.1s5.4-5.7,7.1-6.4l3.2-1.3l-2.7-2.8C377.9,261.3,376.2,260,375.6,260z M381,271
		c-2.1,0-8,9.9-8,13.4c0,0.8,2.7,4.5,5.9,8.4c3.3,3.9,11.7,14.5,18.6,23.6c13.9,18.2,24.5,30.2,27.5,31.1c2.3,0.7,9.6-2.9,16.8-8.2
		c7.3-5.5,25.2-21.5,25.2-22.5c0-0.4-0.8-0.8-1.7-0.8c-3.1,0-11.9-5.7-15.7-10.2l-3.6-4.2l-5.8,5.7c-3.2,3.1-6.3,5.7-7.1,5.7
		c-0.7,0-3.6-1.9-6.4-4.3c-2.9-2.4-7-5.4-9.2-6.8c-12.6-7.5-28.2-20.6-33.7-28.2C382.8,272.2,381.5,271,381,271z M404.4,282.5
		c-2.4,3.6-0.6,5.3,2,2c2.2-2.7,2.4-2.8,9-2c4.4,0.4,6.9,1.2,7.3,2.1c0.3,0.8-1.2,3.3-3.6,5.9c-2.3,2.5-3.9,5-3.6,5.6
		c1,1.5,1.9,0.8,5.9-4.4c2.2-2.8,3.6-5.8,3.6-7.6c0-2.7-0.1-2.8-6.7-3.4C407.3,279.6,406.2,279.8,404.4,282.5z M418.1,286h-4.5
		c-3.6,0-4.6,0.4-5.1,2.1c-0.5,1.4-0.1,2.5,1.2,3.4c2.5,2,2.7,1.9,5.7-2L418.1,286z M452,290.2c-2.3-3.1-2.7-3.2-4.5-1.8
		c-2,1.4-2,1.5,0.6,6.8c5,10.2,11.2,15.1,22.4,17.9c4.3,1.1,4.9,1,6.1-0.6c1.8-2.5,1.8-4.5-0.1-4.5c-3,0-13-5.8-17.5-10.1
		C456.5,295.5,453.3,292,452,290.2z M361,289.2c0,0.2,2.2,10,5,21.8c2.7,11.8,5,21.8,5,22.2c0,0.5,1.2,0.8,2.6,0.8
		c1.9,0,2.4-0.4,2-1.8c-0.3-0.9-1.7-7.5-3.2-14.6c-1.9-9.2-2.3-13-1.5-13.5s0.8-2.2,0-6.4c-1-5-1.5-5.7-4-6.2
		c-1.6-0.4-3.1-1.1-3.4-1.6C363,289.1,361,288.6,361,289.2z M374.3,295c0.3,0.9,2,8.3,3.8,16.4c1.8,8.2,3.9,15.5,4.7,16.2
		c0.7,0.8,2.7,1.4,4.4,1.4c2.5,0,4.2,1.2,8.9,6.2c3.3,3.5,6.2,7.3,6.5,8.5c0.8,3.2-1.1,6-5.2,7.3c-3.3,1.1-3.5,1.4-2.8,4.3
		c0.3,1.8,1.3,4.7,2,6.6c2,4.8,1.7,7.7-1.1,11.9c-1.4,2-2.5,4.3-2.5,5.2c0,0.8,2.5,13.5,5.6,28.1l5.7,26.6l9.6,0.6
		c13.7,0.8,38.5-0.7,53.3-3.3c6.9-1.3,13.2-2.6,13.9-3.1c0.8-0.4,1.5-3.5,1.7-7.6c0.2-3.7,0.9-7.3,1.4-8c1.4-1.8,3.8-0.4,3.6,2.1
		c-0.2,2.7,4.3,10.9,5.4,9.8c0.5-0.5-0.5-3.7-2.1-7.3c-3.4-7.2-17.1-58-17.1-63.3c0-1.8,1.5-9.4,3.4-16.7
		c3.9-15.4,6.5-26.9,6.1-26.9c-0.1,0-1.4,1.8-2.8,3.9c-2,2.9-3.4,4.1-5.7,4.3c-2.1,0.2-6.3,3.1-14.4,10.3
		c-6.3,5.5-11.5,10.5-11.5,11.2c-0.1,0.7,2.2,7.8,4.9,15.9c2.8,8.1,5,15.1,5,15.5c0,0.5-0.6,0.9-1.4,0.9c-0.9,0-3.3-5.3-6.6-15
		c-2.9-8.3-5.5-15-5.7-15c-0.3,0-2.2,1.4-4.3,3c-5.9,4.6-12.5,7.3-16.3,6.4c-4.5-1-12.7-9.7-30.5-32.4
		C377.2,297.2,373.5,292.8,374.3,295z M351.3,302.3c-2.1-1.4-2.3-1.1-9.7,13.9c-5.4,11.2-7.9,17.6-9,23.3
		c-2.7,13.4-2.6,14.3,1.4,17.6c2.8,2.3,14.7,6.6,15.6,5.6c0.1-0.1-0.3-2.8-0.9-6c-1.2-6.7,0.5-13.9,4.7-19.6
		c1.4-1.9,2.3-3.8,1.9-4.4c-0.5-0.9-5.6-0.5-13.3,0.9c-3.4,0.7-3.4,0.7-1.9-1.6c0.9-1.3,3.5-3,5.8-3.8c3.9-1.3,4.7-1.2,9.7,0.6
		c7.1,2.6,7.3,2.1,4.4-11.7c-1.7-8.4-2.7-11.1-4.4-12.1C354.5,304.3,352.5,303.1,351.3,302.3z M383.8,335.5
		c-0.2,0.3-4.2,1.4-8.8,2.6c-4.6,1.1-9.6,2.9-11.1,4c-1.5,1-3.4,1.9-4.3,1.9c-2.4,0-2.9,2.2-1.2,6.1c0.8,1.8,1.2,4.5,0.9,6
		c-0.5,2.9,3.1,10.3,7.5,15.4c1.7,1.8,3.1,3.8,3.4,4.5c0.2,0.6,2.5,1.6,5.2,2.1c4.4,0.8,5.4,0.6,9.9-1.9c5.7-3,9.3-7.2,8.4-9.7
		c-0.6-1.4-1-1.4-3.4,0.4c-3.1,2.2-11.9,4.9-12.9,3.9c-1.2-1.3,0.8-2.9,7.2-5.8c5.4-2.4,6.4-3.3,6.4-5.4c0-1.4-0.2-2.6-0.5-2.6
		c-2.8,0-13.7,4.6-14.5,6.1c-1.2,2.1-3.5,2.5-4.6,0.8c-1.2-1.9,4.8-6.9,10.3-8.5c2.9-0.9,6-2.2,6.8-3c1.7-1.8,2-5,0.5-5.9
		c-1.8-1.1-15.2,3.5-17.1,5.8c-1.6,2-1.9,2-3.3,0.7c-2.8-2.8,0.4-5.6,9.9-8.6c4.6-1.6,8.6-3.3,8.8-3.8c0.3-0.6,0.1-2.1-0.4-3.4
		C386.1,335.1,384.9,334.4,383.8,335.5z M363.1,374c-1,0-4.4,8.6-11.2,28.3l-4.4,12.8l2.5,1.9c5.6,4.4,16.3,9.1,24.9,11.1
		c5.1,1.2,9.4,1.9,9.7,1.6c0.5-0.4-9.1-45.2-10.1-46.6c-0.2-0.5-1.6-1.1-3-1.3c-2.9-0.6-2.7-1.1-5.6,14.7c-1.2,6.6-2.5,12.4-3,12.9
		c-2,2.3-1.9-3.3,0.5-17c1.8-10.5,2.3-15.2,1.5-16.5C364.4,374.8,363.5,374,363.1,374z M385.6,381.3c-0.1-0.1-0.8,0.2-1.5,0.7
		c-1.7,1-2.5-3.5,9.4,50.4c4.7,21.3,8.5,39.3,8.5,40c-0.1,0.6-0.8-0.2-1.6-1.7c-0.9-1.6-1.7-2.7-1.9-2.5c-0.2,0.1,0.9,5.7,2.4,12.3
		c2.4,10.7,2.9,12,4.6,11.7c6.7-1.1,7.5-1.5,7.1-3.1c-2.5-8.5-11.5-49.6-12.3-56.4c-0.5-3.4-0.6-3.6-1.8-2c-0.7,1-1.6,1.6-1.8,1.3
		c-0.3-0.3-2.8-11.8-5.7-25.5C388.1,392.7,385.7,381.4,385.6,381.3z M437.6,440.2c-0.6,0-2.6,0.3-4.3,0.5c-3.5,0.4-3.7,1-2.7,6.2
		c0.6,2.7,1.1,3.1,3.8,3.1c4.9,0,5.8-1.1,5-5.8C439,441.9,438.2,440.1,437.6,440.2z M359.8,446.9l-2.9-1.5c-2.3-1.2-3-1.2-3.4-0.2
		c-0.2,0.7-1.3,3.8-2.5,6.8c-1.1,3-2,5.6-2,5.7c0,0.4,7.2,2.5,7.4,2.1c0.2-0.1,1-3.1,1.8-6.6L359.8,446.9z M411,444
		c-1.4,0-2.1,0.9-2.6,3.5c-0.8,4.4,0,6.5,2.6,6.5c1.7,0,2-0.6,2-5C413,444.7,412.7,444,411,444z M421.1,444.3l-4.1-0.6v5.2v5.1h5.1
		h5.2l-0.6-4.1c-0.3-2.2-0.8-4.3-1-4.6C425.4,445.1,423.3,444.6,421.1,444.3z M477.7,447.2c-3.1-0.4-3.3,0.5-1.5,7.3
		c1.2,4.6,1.7,4.9,5.5,3.9c2.1-0.6,2.1-0.6,0.4-5.7C480.6,448.4,479.9,447.4,477.7,447.2z M468.3,448.2l-3-0.3l1.1,5.8
		c1.1,5.1,1.5,5.8,3.6,5.9c3.7,0.1,3.8-0.1,2.5-5.8C471.5,448.9,471.1,448.5,468.3,448.2z M460.8,450.2c-0.7,0-2.8,0.3-4.6,0.5
		c-3,0.4-3.3,0.7-2.8,3.1c0.3,1.5,0.8,4.3,1.2,6.3l0.6,3.6l4-1l4-1l-0.6-4.5c-0.3-2.5-0.6-5.1-0.6-5.8
		C462,450.6,461.4,450.1,460.8,450.2z M365.9,451c-2.4,0-2.8,0.6-4.2,6.2c-0.8,3.5-1.2,6.6-0.9,6.9c0.4,0.4,2.1,1,3.7,1.3l3.1,0.7
		l1.6-6.8c1.2-5.1,1.4-7,0.5-7.5C369,451.4,367.3,451,365.9,451z M446.8,452c-2.7,0-2.8,0.2-2.8,4.7c0,7.7,0.8,9.4,3.9,8.7
		c1.4-0.4,2.9-0.8,3.2-1c0.3-0.1,0.1-3-0.5-6.3C449.7,452.3,449.5,452,446.8,452z M376.6,453c-2.1,0-2.6,0.8-4,6.5
		c-2,8.1-2.1,7.5,1.4,7.5c2.4,0,3.1-0.5,3.6-2.8c0.3-1.5,1-4.2,1.5-6.1c0.4-1.9,0.6-3.8,0.3-4.3C379.1,453.4,377.8,453,376.6,453z
		 M433.2,453.7c-1.6,0.3-2.2,0.9-1.8,2c0.3,0.8,0.6,3.3,0.6,5.6c0,5.9,1,7,5.4,6.2c3.2-0.7,3.6-1,3.6-3.9c0-1.7-0.3-4.8-0.6-6.9
		C439.7,452.8,439.1,452.6,433.2,453.7z M385.9,455c-2.5,0-2.8,0.4-4.1,6.2l-1.4,6.3l3.4,0.9c1.8,0.4,3.5,0.6,3.7,0.4
		c0.7-0.7,2.2-12.7,1.7-13.3C388.9,455.2,387.4,455,385.9,455z M411.4,457c-1.4,0-1.5,0.7-0.9,4.6c1.2,8.5,2.4,9.5,2.4,2.1
		C413,458.2,412.7,457,411.4,457z M422.6,457c-2.3,0-4.6,0.3-4.9,0.7c-0.4,0.3-0.7,3.7-0.7,7.5v6.8h5.9h5.8l-0.4-5.3
		c-0.2-2.8-0.6-6.2-0.9-7.5C427,457.3,426.3,457,422.6,457z M351.3,462.4c-3.3-1.4-3.3-1.4-4.8,2.3c-0.9,2-1.4,4.2-1.1,4.9
		c0.5,1.2,7.4,3.9,8.1,3.2c0.2-0.2,0.5-2.3,0.7-4.7C354.5,464,354.3,463.6,351.3,462.4z M472.1,463c-3.6,0-3.8,0.3-3.3,4.5
		c0.4,3,0.8,3.5,3.1,3.5c4.3,0,5.3-1.2,4-4.8C475,463.7,474.2,463,472.1,463z M463.2,465.1c-0.4,0-2.2,0.5-4.1,1.1
		c-3.3,0.9-3.3,1-2.7,5.5c0.3,2.6,0.7,4.8,0.9,4.9c0.6,0.7,8.7-2.1,8.7-3.1c0-0.5-0.5-2.7-1.1-4.8
		C464.4,466.7,463.6,465,463.2,465.1z M362.8,468.6c-3.7-0.7-3.7-0.6-4.8,3.5c-0.6,2.2-1,4.2-0.8,4.4c0.2,0.1,1.9,0.5,3.8,0.9
		c3.5,0.6,3.6,0.5,4.7-3.6c0.6-2.4,1.1-4.3,1-4.4S364.8,469,362.8,468.6z M451.2,468.1c-0.4,0.1-2,0.4-3.5,0.6
		c-2.4,0.4-2.8,0.8-2.3,2.6c0.3,1.2,0.6,3.5,0.6,5.1c0,2.7,0.2,2.8,3.6,2.3c2-0.3,3.8-0.8,4-0.9c0.1-0.2-0.2-2.5-0.8-5.1
		C452.3,470.1,451.5,468.1,451.2,468.1z M372.9,470.5c-2.4-0.6-2.7-0.3-3.7,3.6c-0.6,2.4-1,4.4-0.9,4.5c0.1,0.2,1.5,0.4,3.1,0.6
		c2.7,0.3,3.1-0.1,3.9-3.5c0.5-2.1,0.8-4,0.6-4.2S374.3,470.9,372.9,470.5z M441.3,470.1c-8.4,1.5-7.8,1-7.4,5.9
		c0.1,2.5,0.5,4.8,0.7,5.1c0.2,0.4,2.2,0.2,4.5-0.4c3.9-0.9,4.1-1.2,3.5-4c-0.3-1.6-0.6-3.8-0.6-4.8
		C442,470.8,441.7,470.1,441.3,470.1z M482.9,472.8c-1.5,0.6-1.5,1.2,0.2,6.9c2,6.5,3.1,7.3,6.9,5.3c1.8-1,1.8-1.2-0.2-7
		C487.8,472,486.8,471.2,482.9,472.8z M342.3,477.5l-1.1,3.6l4.8,2.4l4.8,2.4l0.6-3.1c1-4.9,0.8-5.5-2.8-7.2
		C343.9,473.4,343.5,473.5,342.3,477.5z M475,474c-1.6,0-3.2,0.5-3.5,1c-0.8,1.3,1.5,11.9,2.7,12.6c1.3,0.8,6.8-0.6,6.8-1.8
		c0-0.5-0.7-3.4-1.6-6.4C478,474.5,477.6,474,475,474z M429.5,475.5l-6.2-0.1c-5.8-0.1-6.3,0-6.4,2c0,1.1-0.2,3.1-0.5,4.3
		c-0.4,2.2-0.1,2.3,6.7,2.3h7l-0.3-4.3L429.5,475.5z M466.1,478.1c-4.1,0.7-8.1,2.4-8.1,3.4c0,0.8,0.5,3.6,1.2,6.4l1.1,5.1l4.1-0.6
		c2.3-0.4,4.4-0.9,4.8-1.3c0.4-0.3,0-3.4-0.9-6.9C467.5,480.8,466.5,478,466.1,478.1z M359.3,480.6c-3.1-0.7-3.2-0.7-3.9,3.9
		c-0.7,5-0.2,5.9,3.7,6.8c2.4,0.6,2.6,0.3,3.5-4.4c0.6-2.7,0.8-5.1,0.5-5.3C362.8,481.4,361.1,480.9,359.3,480.6z M454.2,481.9
		c-0.4-0.3-2.2-0.2-4.1,0.3c-3.2,0.9-3.3,1.1-2.6,4.6c1.2,6.9,1.4,7.2,5.2,7.2h3.6l-0.7-5.7C455.2,485.1,454.6,482.2,454.2,481.9z
		 M370.3,482.7c-3.1-0.6-3.1-0.5-4.3,4.4c-0.7,2.8-1.1,5.1-0.9,5.3c0.2,0.2,1.8,0.6,3.5,0.9c3.1,0.6,3.2,0.5,4.2-4.6
		c0.6-2.9,0.9-5.2,0.9-5.3C373.6,483.3,372.1,483,370.3,482.7z M380.4,484c-2.8,0-3.1,0.3-4.1,4.7c-1.3,5.4-0.7,6.3,4,6.3
		c1.5,0,3,0.1,3.4,0.2c0.4,0.2,1.1-1.9,1.6-4.6c0.6-3.7,0.5-5.1-0.5-5.7C384.1,484.4,382.1,484,380.4,484z M437.7,484.7
		c-2.7,0.4-2.8,0.6-2.1,5.1c0.8,6,1.5,6.6,5.9,5.8c3.5-0.7,3.7-0.9,3.1-3.8c-0.3-1.7-0.6-4.1-0.6-5.4
		C444,483.9,443.6,483.8,437.7,484.7z M392.9,486c-2.4,0-2.7,0.4-3.2,4.7c-0.3,2.7-0.2,5.1,0.1,5.4c0.4,0.4,2.9,0.9,5.5,1.2l4.9,0.5
		l-0.7-4.7c-0.3-2.5-1.4-5.2-2.3-5.9C396.3,486.6,394.4,486,392.9,486z M345.9,489c-1.3,0-1.1,32.2,0.2,35.7
		c2.7,7.3,12,12.3,23.9,13c11.2,0.7,12.1,0.1,14.9-9.8c1.4-4.6,3.9-12.4,5.8-17.2c1.8-4.9,3.3-9.1,3.3-9.3c0-0.2-1.7-0.4-3.7-0.4
		c-4.1,0-10.2-1.1-27.2-4.7c-12.6-2.6-13.1-2.8-13.1-4.8c0-0.7-0.7-1.6-1.6-1.9C347.5,489.3,346.4,489,345.9,489z M481.2,491.4
		c-3.5,0.7-6.7,1.9-7.2,2.6c-0.4,0.7-7.2,2.2-16,3.6c-8.4,1.3-15.4,2.5-15.5,2.6c-0.1,0.2,3,9.9,6.9,21.5l7.1,21.3l4.5-3
		c6.9-4.6,14.5-7.1,23.8-7.7l8.5-0.6l-0.7-15.1c-0.3-8.3-0.9-17.7-1.2-20.9C490.7,489.3,491.1,489.5,481.2,491.4z M411.8,495
		c-1.4,0.2-6.7,3-7.2,3.8c-0.5,0.9,1.9,9.9,3,11.1c0.1,0.2,1.5-0.6,3-1.8c1.5-1.1,4-2.1,5.5-2.1c1.6,0,2.9-0.5,2.9-1
		c0-2.4-3-7.9-4.8-8.9C413,495.5,412,495,411.8,495z M350.2,535.6l-4.9-3.4l-0.7,6.1c-0.8,7.6-8.9,27-19.4,46.2
		c-16.8,30.9-19.9,39.8-25.6,75.5c-2,12.4-4.7,29-6.1,37c-1.9,11.8-7.4,32-11.1,40.5c-0.3,0.7,1.9,0.9,6.3,0.7
		c6.3-0.4,11.7,0.8,19.4,4.2c1.3,0.6,1.8-0.6,2.8-6.6c5.3-30.5,9.3-43.4,22.7-72.9c13.6-30,15.5-34.8,20.9-53.5
		c2.5-8.5,5.8-18,7.3-21.2c1.6-3.1,3.9-9.1,5.2-13.2c1.2-4.1,4.3-12.2,7-18c7.3-16.3,7.4-15-1.3-15c-4,0-9.6-0.7-12.4-1.5
		C357.5,539.7,353,537.4,350.2,535.6z M493.5,536.5l-7.5-0.2c-7.9-0.3-14.8,1.5-21.3,5.6c-6.9,4.2-6.9,4.4-2.6,15.6
		c2.2,5.5,5.9,15.4,8.4,22.1c2.4,6.6,6.9,17.4,10,24c3.1,6.5,7.2,15.7,9,20.4c7.9,20.1,19.8,46,28.2,61.6c5,9.3,11.1,21,13.6,26
		c5.7,11.3,13.7,34.7,13.7,39.8c0,3.7,0.1,3.8,2.8,3.2c10.5-2.5,22-1.5,28.9,2.4l3.2,1.8l-1.3-4.1c-0.7-2.3-3.6-9.8-6.3-16.7
		c-5.8-14.3-10.5-28.9-16.2-50.6c-9.9-37.2-26.2-74.8-42.8-99.2c-11.6-16.9-16.5-28.5-18.6-43.3L493.5,536.5z M281.8,743.6
		c-9.1,3.9-6.1,15.7,5.5,22.4c2.9,1.6,6.6,3,8.3,3c3.7,0,10.1-5.1,12.9-10.3c1.6-3.1,1.7-4.1,0.7-7.5s-1.9-4.3-6.5-6.3
		C296.1,742,286.8,741.4,281.8,743.6z M549,758.9c-6.6,2.4-8.3,4.4-7.5,9.1c0.9,5.1,3.5,9,8.4,12.7c5.9,4.6,10,4.4,17.7-0.5
		c13.2-8.6,15-15.9,4.8-20.4C565.7,756.9,555.7,756.5,549,758.9z M278.7,765c-0.1,0-0.8,1.4-1.4,3c-1,2.6-1.5,3-3.7,2.4
		c-5.2-1.3-7.5,0.3-10.6,6.9c-5,10.9-4.9,11.2,1,7.2c4.2-2.8,6.2-3.5,10.1-3.5h4.9v-8C279,768.6,278.9,765,278.7,765z M273.3,785
		c-3.4,0-5.1,0.8-9.7,4.6c-3.4,2.7-5.6,5.3-5.6,6.5c0,2.7,2.4,8.1,4.2,9.7c1.3,1.1,1.7,0.8,2.2-1.5c0.4-1.7,3.9-5.8,8.4-10.1
		c6.2-5.9,7.4-7.4,6.2-8.2C278.2,785.5,275.6,785,273.3,785z M306,787.6c0,0.5,1.7,3.3,3.8,6.1c2.1,2.8,4.5,7.1,5.2,9.7
		c0.7,2.5,1.6,4.6,2.1,4.6c2.5,0,1.8-14.4-1-18.9C315.1,787.6,306,786.3,306,787.6z M285.5,789.8c-1.4-0.5-2.6-0.1-4.1,1.5
		c-1.2,1.2-4.4,4.1-7.2,6.4c-4.9,4.2-7.6,9-6.3,11.1c2,3.3,28.4,5.4,39.2,3.1l5.1-1.1l-0.5-4.4c-0.3-3.1-1.7-6-4.6-9.9
		c-2.2-3-4.1-5.9-4.1-6.6s-0.8-0.9-2.2-0.3c-1.3,0.4-4.8,0.8-7.8,0.8C290,790.5,286.6,790.2,285.5,789.8z M531.7,800
		c-1.1,0-10.6,12.6-11.2,14.8c-0.4,1.6,0.3,3.8,2.1,7l2.7,4.6l1.3-4.5c1.3-4.4,5.3-9.4,10.8-13.7c2.4-1.9,2.7-2.4,1.6-3.8
		c-0.8-0.8-2.6-2.2-4.1-3C533.3,800.6,531.9,800,531.7,800z M572,809.4c0,0.8,1.4,4.9,3.1,9.1c1.9,4.9,2.8,8.6,2.5,10.1
		c-0.4,1.3-0.4,2.4-0.1,2.4c0.4,0,3-2.3,6-5.1c8.6-8.1,9.7-15,3-18.2C580.9,805,572,806,572,809.4z M537.3,812.9
		c-5.6,5.3-9.3,12.9-7.5,15.8c0.4,0.6,2.8,2,5.2,3.1c8.8,3.7,13.7,4.5,24.2,4c9.5-0.5,10.3-0.7,12.5-3.2c1.3-1.5,2.3-3.8,2.3-5.2
		c0-2.5-4.5-15.1-6-16.7c-0.4-0.5-2.1-0.2-3.8,0.7c-4.4,2.3-12.9,2.1-17-0.4C542.8,808.3,542.1,808.4,537.3,812.9z"/>
	<path d="M417.3,167c1.5,0,2,3.3,1,6c-0.6,1.6-0.6,3.6-0.1,5c1.3,3.4-1.1,4.5-3.9,1.8s-2.8-3.3-0.1-8.6
		C415.5,168.9,416.8,167,417.3,167z"/>
	<path d="M451,172.2c0,0.7-0.9,2.4-2,3.8l-2,2.5v-3.1c0-1.7,0.3-3.4,0.7-3.7C448.8,170.5,451,170.9,451,172.2z"/>
	<path d="M456,173c0,0.6-0.7,2.5-1.7,4.3c-1.4,2.9-1.7,3-2.3,1.2c-0.4-1.1-0.3-3,0.3-4.3C453.3,172,456,171.1,456,173z"/>
	<path d="M400.4,179.5c-1,1.5-2,2.3-2.2,1.6c-0.2-0.6-1-1.1-1.8-1.1c-1.9,0-1.8-2.9,0.3-5.2C400,171.1,403.3,175.1,400.4,179.5z"/>
	<path d="M438.5,193.6c-3.8,15.9-13.1,18.2-18,4.4c-0.9-2.5-2.5-6-3.5-7.8c-1.1-1.8-1.8-3.8-1.5-4.3c0.4-0.5,3.4-0.9,6.8-1
		c3.4,0,7.8-0.6,9.7-1.3C439.6,180.7,441,182.9,438.5,193.6z M434.8,190.1c-0.3-2.8-0.3-2.8-4.3-1.7c-5.6,1.6-7.3,4.8-5.2,9.9
		c2.3,5.4,5.2,5.1,7.8-0.8C434.2,195,435,191.7,434.8,190.1z"/>
	<path d="M359.4,250.2c5.2,0.4,6.6,3.5,4.7,10c-1.5,4.9-8.6,12.4-12.7,13.4c-3.3,0.8-8.4-3.7-8.4-7.5c0-3.6,3.7-9.4,8.4-13.1
		C354.6,250.5,356.2,250,359.4,250.2z M359,253.3c-4.2-0.7-12,7.8-12,13c0,3.9,4.2,4.8,7.6,1.6c4-3.7,6.6-8.6,6.2-11.6
		C360.6,254.8,359.8,253.4,359,253.3z"/>
	<path d="M438.4,350.2c0.4,0.3,3.6,14,7.1,30.5c3.5,16.4,6.8,31.8,7.4,34.3c1,4.4,0.9,4.5-0.8,2.3c-3.5-4.2-12.8-44-13.8-58.8
		C438,353.5,438,349.8,438.4,350.2z"/>
	<path d="M292,747c12.3,1.9,13,2.1,13,3.5s-12.3,15.7-14,16.3c-1.2,0.4-9-15.8-9-18.6C282,745.7,282.7,745.6,292,747z M290.2,750.5
		l-4.2-0.7l2.1,4.9c1.1,2.6,2.4,5.1,2.8,5.5c0.4,0.5,2.6-1.2,5-3.6l4.3-4.4l-2.8-0.5C295.8,751.4,292.6,750.8,290.2,750.5z"/>
	<path d="M571,765.8c0,0.4-3.2,3.9-7,7.7c-8.1,8.1-8.5,8-13.7-0.6c-4.1-6.7-3.9-9,0.7-10.6C557.1,760.1,571,762.5,571,765.8z"/>
</g>
</svg>
