<?xml version="1.0" encoding="utf-8"?>
<!-- Generator: Adobe Illustrator 21.0.0, SVG Export Plug-In . SVG Version: 6.00 Build 0)  -->
<svg version="1.0" id="图层_1" xmlns="http://www.w3.org/2000/svg" xmlns:xlink="http://www.w3.org/1999/xlink" x="0px" y="0px"
	 viewBox="0 0 850 850" enable-background="new 0 0 850 850" xml:space="preserve">
<g transform="translate(0.000000,0) scale(1.00000,1.00000)">
	<path d="M390.8,19.8c13.7,13.8,19.9,26.3,20.9,42.4c0.8,11.9,1.2,12.2,13.4,10.7c23.2-2.8,51.3,2.8,71.9,14.6
		c22.7,12.9,45.8,36,59,59.1c9.6,16.8,16,35.4,16,46.8c0,24.1,6.8,39.8,26.9,62.6c16.2,18.2,21.9,29.3,20.6,39.3l-0.7,4.9l-1.8-4
		c-2.2-4.8-9.1-14.3-10-13.7c-0.4,0.2-0.1,3.5,0.6,7.2c2.1,10.6,1.8,12.2-3.9,23.9c-3,6-5.7,12.9-6.1,15.3
		c-1.1,7-6.4,15.7-14.9,24.8c-9.1,9.5-16.4,13.7-27,15.5c-4.7,0.8-7.3,1.8-8.8,3.4c-1.2,1.3-2,2.7-1.6,3c0.3,0.4,5.4,1.5,11.2,2.5
		c12.1,2.2,17.1,4.4,21.2,9.2c1.5,1.9,4.1,3.7,5.6,4.1c2,0.5,3.3,1.7,4.4,4.4c1.6,3.9,4.1,7.2,5.4,7.2c0.4,0,1.3-2.5,2-5.5
		c1-4.4,1.6-5.5,2.8-4.9c0.9,0.3,3.3,0.8,5.4,1.1c2,0.3,3.7,0.9,3.7,1.4c0,0.4,1.9,1.7,4.3,2.7c5.8,2.6,6.7,4.1,7.8,12.3
		c0.8,6.8,2.3,10.6,8.5,21.9c2.8,5.1,3,8.6,0.9,13.7c-1.7,3.9-24,39.4-37.3,59.3c-17.7,26.3-34.1,46.5-45.6,56.2
		c-15.4,12.9-17.6,14.3-22.6,14.3c-5.9,0-9.2-2.2-21.5-14.5c-7.5-7.4-9.6-9-12.5-9.2c-2.9-0.3-3.5,0-3.8,1.9
		c-0.7,4.5,2.1,10.4,11.4,24.8c26.3,40.5,49.3,86.5,80.3,160.6C583,753.8,588,767,588,768.4c0,5.3-15.6,18.4-27.3,22.8
		c-6.3,2.4-17.1,2.4-24.5-0.1c-8.1-2.7-15.2-3.7-15.2-2.1c0,2.2-4.9,7.9-8.3,9.7c-7.6,3.9-16.5,3.3-22.5-1.5
		c-6.2-4.9-8.7-6.2-12.1-6.2c-4.9,0-9.5,3.3-12.2,8.8c-2.3,4.6-2.4,5.4-2.2,27.5c0.1,17.9-0.1,22.7-1.1,22.7s-1.5-4.2-1.9-17.3
		c-0.6-17-2.2-29.5-5.2-41.2c-0.9-3.2-1.7-6-1.8-6.1c-0.1-0.1-2.7,0.5-5.7,1.3c-4,1.2-11.7,1.7-27.6,2l-22.2,0.5l-0.6,4.6
		c-1.6,11.9-2.5,33.6-1.7,44.2c0.5,6.3,0.7,11.7,0.5,11.9c-1.4,1.5-1.9-3.3-2.3-20.2c-0.4-21-0.9-23.5-6.1-26.2c-3.8-2-8-2-8,0
		c0,2.7-4.1,3.2-20,2.3c-12.9-0.7-15.9-1.1-18.1-2.8c-2.3-1.6-3.2-1.7-6.5-0.8c-6.1,1.6-18.9,0.5-27.3-2.6c-9.7-3.4-12.1-5-12.1-8.1
		c0-1.4,2.7-13.2,6.1-26.2c6.7-26.1,6.8-27.9,2.5-37.6c-3.7-8.5-6.2-8.9-16.9-2.9c-9,5.1-19.3,8.3-27,8.3c-6,0-7.9-0.5-14.4-3.6
		c-8.6-4.3-8.5-4.8,1.1-10c3.1-1.7,5.6-3.3,5.6-3.6s-2.1-1.2-4.6-2s-4.5-1.9-4.5-2.4c0.1-0.6,4.4-2.7,9.7-4.8
		c15.4-6.1,21.9-11.1,29.8-23c9.9-14.9,23.6-44.9,31.9-69.7c5.5-16.4,15.7-48.8,15.7-50c0-0.6-1.3-2.9-2.9-4.9
		c-6.4-8.1-7.6-11.8-7.6-22.6c0-8.4,0.5-11.4,2.9-18.5c3.8-11.3,30.2-63.4,34.3-67.7c2.8-3,3-3.8,2.2-6.6c-1.4-4.8-1.1-5.7,1.4-5.7
		c3.5,0,6.5-2.6,9.2-8c3.5-7,8.1-11.1,16.6-15.1c21.9-10.2,20.7-9.4,17.9-10.9c-1.5-0.9-7.3-1.7-14.5-2.1
		c-6.6-0.3-12.8-0.9-13.7-1.3c-1.3-0.6-1.8-0.4-1.8,0.8c0,1.2-1,1.6-4,1.6c-5.5,0-10.6-2.8-16.3-8.9l-4.8-5.1l-6.7,6.8
		c-5,5.1-8.1,7.4-12.2,8.9c-6.4,2.4-7.7,2-3.5-1c5.3-3.9,11.4-9.8,12.1-11.9c0.8-2.7-3.8-7.5-8.5-8.8c-2-0.5-6.7-1-10.6-1h-6.9
		l2.1,2.1c1.5,1.6,3.8,2.2,8.7,2.6c3.6,0.3,6.6,0.9,6.6,1.2c0,1.4-9.7,4.1-14.6,4.1c-8.3,0-13.9-2.5-21.5-9.7
		c-3.9-3.7-7.7-8.4-9-11.1c-1.2-2.6-2.3-4.8-2.5-5c-0.1-0.2-3,0.4-6.3,1.4c-3.4,0.9-6.4,1.5-6.6,1.2c-0.3-0.3,1-1.6,3-2.9
		c1.9-1.3,3.5-2.6,3.5-2.9c-0.1-0.3-3-2.5-6.5-4.9c-7.1-4.7-14.5-13.6-18-21.6c-1.2-2.8-2.7-6.1-3.3-7.5c-1-2.3-1.1-2.1-1.1,2
		c0,2.5,0.4,7,0.8,10c0.5,3,0.6,6.1,0.4,6.7c-0.9,2.3-3.2,1.4-3.9-1.5c-0.4-1.5-2.4-7.9-4.5-14.2s-4.3-15.6-5-20.5
		c-1.1-8.7-0.7-26,0.7-30c0.5-1.5,0.4-1.7-0.5-0.9c-3,2.8-6.3,15.7-7,27.8l-0.7,12.1l-2.6-5.5c-5.5-12-6.1-23.7-1.7-37
		c3.8-11.7,9-20.4,24.4-41c9.3-12.5,13.1-20.4,15.6-32.5s2.4-16.6-0.5-22.3c-3-6-5.6-14.6-5.6-18.8c0-2.5-1.4-4.9-6.2-10.7
		c-7.7-9.2-12.1-16.5-15-24.3c-4.5-12.6-2.9-39.9,2.6-43.6c2-1.4,26.1-0.8,35.7,0.8c11.8,2,31.9,8.6,38,12.4
		c5.7,3.7,9.2,3.9,10.7,0.5c0.8-1.8,2.2-2.6,5-3.1l3.9-0.6l0.6-7.7c0.9-10.3,3.9-20.6,9.7-32.8c7.4-15.6,16.7-27.5,29.6-37.9
		c2.7-2.1,5.1-4.2,5.2-4.7C378.9,9.3,383,11.9,390.8,19.8z M376.4,15.8c-3.1,2.5-18.3,19.9-23.1,26.2c-9.7,12.9-16.4,31.9-16.6,47.5
		c-0.1,8.2,0.2,9.6,3.2,16.2l3.3,7.2l3.8-4.7c9.5-11.9,17-17,17-11.6c0,2.3-6.3,13.1-6.8,11.6c-0.2-0.7,0.8-3.3,2.2-5.8
		c3-5.4,3-5.4,1.3-5.4c-1.5,0-12,10.5-13.6,13.7c-1.7,3.3-1.3,6.2,1.4,10.9c3.1,5.2,12.7,11.8,19.3,13.3c7.2,1.5,42.8,3.4,50.2,2.6
		c9-1,16.8-4.1,21.3-8.5c4.2-4.2,4.3-5.2,2.2-13.4c-1.9-7.1-3.8-11.3-8.2-18.3c-3.6-5.9-18.9-23.3-20.4-23.3c-0.5,0-1.5,1.5-2.3,3.2
		c-1.2,3-1.3,2.6-0.8-5.7c0.5-10.6-1.2-18.3-6.4-29.2c-3.9-8.2-13.2-20.4-19.1-25.1C379.6,13.5,379.2,13.4,376.4,15.8z M425.7,75.6
		c-5.6,1.7-5.9,0.8,3.5,11.5l5.8,6.7l17.3,0.4c19.7,0.6,21.6,1.1,40.7,10.6c6.3,3.1,12.9,6.3,14.6,7c5.8,2.4,20.7,15.7,24.4,21.9
		c1.9,3.2,6,9.8,9.2,14.6c3.2,4.9,6.5,11.4,7.4,14.5s2.3,7.6,3.1,9.9c2.9,8.3-1.5,8.5-9.7,0.5c-4.6-4.6-7-8.1-11-16.6
		c-4.4-9.2-6.3-12-12.8-18.5c-8-8-26.9-21.9-35.9-26.5c-7.2-3.6-15.7-5.4-29.2-6.2c-10.1-0.6-11.4-0.5-10.8,0.8
		c0.3,0.9,1.1,5.2,1.7,9.6c1.4,9.5,0.3,12.5-6.2,17.2c-5.8,4.3-12.2,5.8-27.8,6.9c-22.7,1.6-36.7-0.4-54.7-8c-3.2-1.3-3.4-1.2-7.7,3
		c-3.9,3.8-4.9,4.3-8,3.9c-3.8-0.4-4.6,0.4-4.6,4.9c0,8.7-8.3,38.5-14.6,52.2c-4.2,9.2-10.7,17.9-13.8,18.7
		c-3.2,0.8-9.4-2.1-20.7-9.5c-6.8-4.5-9.5-5.8-10.5-5c-2,1.6-7.2,14.9-9.4,24.1c-2.7,10.6-3.6,29.8-2.1,39.8
		c1.7,10.8,7,25.7,13.9,39.5c14,27.6,15.5,43.1,5.6,56.1c-3.8,4.9-3.1,5.1,3.4,1c5.2-3.2,9-8.3,10.8-14.2c2.9-9.6,1.5-20.3-6-45.1
		c-6.8-22.8-7.9-30.2-7.3-46.8c0.3-8.3,1.3-16.5,2.2-20c1.8-6.6,4.1-11.2,3-6c-0.4,1.6-1.4,6.1-2.2,10c-1.8,8.5-2,29.4-0.4,38.5
		c0.7,3.6,3.4,13.8,6.1,22.7c5.6,18.4,8,29.2,8,35.5c0,5.6-2.5,15.3-5,19.4c-2.7,4.2-2.5,6.2,0.9,11.6c3.3,5.2,7.8,8.9,14.2,11.7
		c4.6,2.1,15.9,3.9,15.9,2.7c0-0.4-2.2-4.5-5-9.2c-6.3-10.7-10-18-10-19.6c0.1-0.7,2,2.4,4.3,7c5.3,10.5,12.3,19.2,19,23.7l5.2,3.5
		l0.3-3.8c0.4-5.4-2.5-12.2-10.6-24.4c-3.8-5.8-8.6-14.5-10.6-19.4c-13.4-32-16.3-71.5-7.5-103.2c3.7-13.5,3.7-13.4,4.7-12.8
		c0.5,0.3,0,3.1-1,6.2c-3.1,9-5.7,23.1-6.4,33.9c-0.8,11.3,0.5,33.9,1.6,29c1-4.3,1.6-2,3.4,13c2.7,23,8.8,41.5,17.5,52.9
		c4.6,6.2,6.7,10.2,9.2,17.4c3.3,9.5,2.2,16.8-3.5,23.1c-2,2.2-2,2.3-0.1,1.3c9.4-4.9,13.8-22.5,10.1-40.3c-0.8-3.6-2.8-10.4-4.4-15
		c-5.8-16.3-6.7-22.6-6.7-43.9c0.1-15.9,0.5-21.7,2.3-31.5c2.9-15.3,12.1-58.7,12.7-60c0.3-0.6,0.3,2.1,0.1,6
		c-0.3,3.8-2.5,15.7-5.1,26.2c-2.5,10.6-4.8,22.3-5.1,26l-0.6,6.8l6.9-7c11.5-11.8,20-26.7,24.7-43.1c3.8-13.3,4.8-21.3,4.9-38.2
		c0-8.3,0.1-15.2,0.2-15.2s1.2,3,2.5,6.7c3.1,9.5,11.2,24.9,16.9,32.5c10.3,13.6,23.9,23.6,39.4,28.9c7.5,2.6,25.5,6.4,26.4,5.6
		c0.2-0.2-2.7-3.8-6.5-8c-12.2-13.7-20.8-30.5-28.2-55c-2.2-7.2-3.8-13.2-3.7-13.3c0.1-0.2,4.7,8.4,10.2,18.9
		c5.5,10.6,12.6,23.1,15.8,27.9c5.7,8.6,20,24.8,21,23.8c0.3-0.3-1.5-4.1-4-8.5s-7.8-13.9-11.9-21.1c-7.1-12.5-12.8-25.6-12.2-27.6
		c0.2-0.5,1.8,2.7,3.6,7.1c6.1,14.9,16.6,29,29.4,39.5c10.1,8.3,20.6,14.4,35.8,20.6c6.9,2.9,15,6.9,18,8.9l5.5,3.8l2.7,9.9
		c3.8,13.9,5.2,24.1,4.5,35.3c-0.5,9.5,0.5,9.9,1.8,0.7c0.7-4.4,2.5-6.5,2.5-2.8c0,11.5-8.9,35.8-17.9,49.2c-4.3,6.3-3.9,4.5,1.4-6
		c2.5-5,5.7-13.6,7.2-19.3c2.4-9,2.7-12.1,2.8-26.7c0-13.9-0.3-17.3-1.9-21.4c-1.8-4.8-2-4.9-2.9-2.5c-1,2.2-1.1,15.4-0.4,44.4
		c0.3,11.9-1.4,15.1-14.8,29c-9.5,9.7-10.5,11.2-10.4,14.4c0,4.4,1.4,12.9,2.1,13.7c1.5,1.5,5.4-1,6.9-4.4l1.7-3.7l0.7,3.3
		c0.7,2.8,1.2,3.3,3.4,3c2.4-0.3,2.7-0.8,3.2-5.8c0.8-7.4,3-13.9,9.6-27.8c15.1-32,22.8-72.4,20.3-106.1
		c-0.9-11.1-3.1-24.2-6.5-38.1c-0.5-2-0.4-2.2,0.4-0.9c1.9,2.9,6.1,21.1,7.7,33.3c2.8,21,0.5,50-5.7,72.6c-6.8,24.6-10.2,34-16,44
		c-4.8,8.2-7.9,17.1-7.9,22.7v4.4l6.3-4.3c12.3-8.3,19.8-18.2,24.3-32.2c1.6-5,2.2-5.9,1.7-3.1c-2,13.8-10.8,27.1-23.9,36.1
		c-5.5,3.8-6.6,5.4-3.8,5.4c3.8,0,9.1-4,18.5-13.8c24.2-25.6,26.2-35.2,16.9-81.7c-3.9-19.6-5-26.9-4.9-34c0.2-14.3,1.5-15.6,2.1-2
		c0.5,12.7,0.3,11.7,9.5,34.5l3.8,9.5v16c0,15.5-0.1,16.3-3.3,25.4c-4.1,11.9-9.4,20.8-17.2,29.3l-6.2,6.8h3.2
		c4.5,0,18.1-8.2,23.2-13.9c5.6-6.4,9.7-15,10.4-21.7c0.3-3,0.9-6.7,1.5-8c0.5-1.4,0.7-6.4,0.4-11.2l-0.5-8.7l2.6,7.9
		c2.5,7.6,2.6,7.8,4.5,6c3.5-3.2,7.9-13.4,7.9-18.4c0-5.1-3.3-15.6-7.4-23.8c-1.4-2.8-2.3-5.2-1.9-5.1c0.5,0,5,4.8,10.1,10.5
		c9.4,10.7,10.8,11.1,7.7,2.4c-2.5-7.2-8.4-15.8-17.1-25.1c-8.8-9.5-13.8-16.2-19.7-26.9c-5.6-10.2-7.5-17.4-9.2-34.3
		c-1.7-17-3.4-23.4-10-37.4c-7.8-16.6-17.5-30-31.7-44c-18.7-18.5-43.3-33.2-64.3-38.4C452.4,74.2,432.2,73.4,425.7,75.6z M242.4,86
		c-4.7,1.5-5.9,5.4-5.9,19.5c0,9.8,0.4,13.4,2.3,19.5c3,9.5,7.8,18.3,13.9,25l4.8,5.3l1.7-6.9l1.7-6.9l-0.5,10
		c-0.9,18,2.4,27.4,13.8,39.2c12.4,12.8,28,23.5,31.8,21.7c3.5-1.7,10-10.9,13.6-19.4c6.6-15.8,14.6-51.9,12.4-56
		c-1.8-3.3-9.1-8.9-13.8-10.4c-6.5-2.3-15.7-2-21.2,0.5l-4.5,2.1l3.9,1.4c5.3,1.9,5.6,2.4,1.5,2.4c-2,0-4.4-0.6-5.5-1.4
		c-1.9-1.5-1.9-1.5,0.1-3.4c2.9-2.8,9.9-5.2,17.1-5.9l6.2-0.6l-0.4-9.6c-0.3-7.7-0.7-9.8-2.1-10.9c-6.4-4.8-24.6-11.6-37.1-13.7
		C265.3,85.6,246.4,84.8,242.4,86z M439,97.5c0,2.3,3.1,3.4,13.1,4.5c25.2,2.8,29.2,4.1,44.5,14.2c6,4,12.1,7.9,13.7,8.8
		c5,2.8,11.6,8.5,11.2,9.7c-0.4,1.2,2.5,4.3,4.1,4.3c0.5,0,4.1,5.6,7.9,12.6c7.5,13.5,10,16.8,11,14.1c0.7-1.8-2.2-7.9-7.5-15.7
		c-2-3-5.2-8.2-7.1-11.5c-3.5-6.3-12.9-16.5-15.2-16.5c-0.7,0-2.3-1.4-3.6-3c-1.2-1.7-2.6-2.8-3.2-2.5c-1.5,1-4.9-0.5-4.9-2.1
		c0-0.8-0.8-1.4-1.9-1.4c-1,0-2.4-0.7-3.1-1.5c-0.7-0.8-1.7-1.5-2.2-1.5c-0.6,0-5-2.3-10-5c-4.9-2.8-9.2-4.8-9.7-4.6
		c-0.4,0.3-2.5-0.3-4.6-1.4c-3-1.5-4.2-1.7-5.2-0.8c-1,0.8-1.7,0.8-2.1,0.1c-1.2-1.8-5-2.4-7.1-1.1c-1.5,0.9-2.6,0.9-4.3,0.1
		C449.3,95.6,439,95.8,439,97.5z M326.5,99.6c-1.5,1.5-1.7,3.2-1.3,11.3c0.6,10.8,2.7,17.1,6.4,19.6c3.3,2.1,11.5,3.1,14.2,1.6
		c3.4-1.8,2.7-5.4-2.7-14.4c-2.6-4.5-6.1-10.7-7.7-13.7C332.2,98,329.5,96.6,326.5,99.6z M319.2,106.5c-2.5,5.5-0.8,14.7,3.4,18.6
		l2.7,2.4l-0.6-2.5c-0.3-1.4-1.1-6.3-1.8-11C321.5,104.3,320.8,102.9,319.2,106.5z M383.1,191c-0.7-1-1,2.2-1,9.8
		c-0.2,29.6-10.2,50.5-34,70.7l-8.9,7.6l-0.6,13.7c-1,19.9,0.3,30.2,5.8,46.6c2.5,7.5,5.4,14.8,6.3,16.2c3.5,5.4,33.9,18,54.5,22.6
		c13.9,3.1,45.4,3.3,58.8,0.4c14.9-3.2,28.4-8.7,39-15.9c10.1-6.9,25.4-23.5,28.5-31.1c1.6-3.8,1.9-13.7,0.8-27.4l-0.6-8.2h-3.5
		c-3.1,0-3.4,0.2-2.8,2.5c3.1,12.3-0.7,32.2-7.6,40.3c-2.6,3.1-2.9,3.2-10.6,3.2c-10.4,0-15.6-2.6-19.1-9.3
		c-7.2-14.1-0.7-47.1,10.9-55.2c3.8-2.6,5.2-3,11.1-3c6,0,7.2,0.4,11.3,3.2c2.6,1.8,5.3,3.3,6.1,3.3s1.5,0.4,1.5,0.8
		c0,2-2.5,2.9-6.8,2.5l-4.7-0.4l3.3,3c3.5,3.4,8.1,4.1,10.1,1.7c1.6-1.9,5.3-21.4,4.5-23.8c-0.8-2.7-13.7-10.9-21.5-13.7
		c-13.8-5-28.7-13.6-39.9-23l-5.5-4.6l2.9,5c6.9,11.9,14.1,19.5,18.6,19.5c1.3,0,1.9,0.4,1.4,1.1c-1.2,2.1-7.4,0.1-13.8-4.5
		c-16-11.4-27.5-25.1-41-48.9c-1.5-2.6-2.9-4.7-3.1-4.7c-0.9,0,4.5,13.2,8.5,20.8c4.2,8,12.3,19.5,20,28.4l4.5,5.1l-8-0.6
		c-9.9-0.8-22.8-4-31.3-7.8c-14.4-6.5-28.7-19.9-38-35.6C386.4,196.4,383.6,191.8,383.1,191z M268.4,194.7c-6,25.2-8,29.8-21.3,47.3
		c-10.9,14.3-18.9,29-21.6,39.5c-0.8,3.2-1.5,9.4-1.5,13.7c0,7.8,1.6,17.8,2.8,17.8c0.4,0,0.7-3.3,0.8-7.3c0.1-9.3,2.3-16.5,9-30
		c5.6-11.1,7.7-13.5,4.9-5.8c-0.8,2.3-2.2,8.2-3.1,12.9c-2.7,14.4-0.8,36.5,4.4,50.1c0.6,1.8,1.1-2.5,1.5-14.3
		c0.3-9.3,0.8-17,1.1-17.3c0.3-0.3,1.2,0,2,0.6c1.1,1,1.5,3.4,1.4,9.9c-0.1,5.7,0.5,10.8,1.6,14.7c2.2,7.3,6.8,16.5,7.4,14.7
		c0.2-0.7-0.1-5.5-0.7-10.7c-1.5-13-1.2-17.9,0.5-7c2.4,15.2,9.2,26.3,19.5,31.5c4.7,2.4,6.4,2.1,8-1.4c1.1-2.3,0.7-2.9-4.8-8
		c-3.2-3-7.1-7.7-8.6-10.4c-3.2-5.9-6.2-17.1-7.1-26.2c-0.8-8.4-0.2-6.9,2.4,6c2.7,13.5,6.6,21.6,13.8,28.7l5.6,5.5l0.9-2.8
		c1.2-4.3,0.1-16.1-2.3-22.8c-1.1-3.3-4.9-11.7-8.5-18.8c-13.4-26.4-16.1-36.5-15.2-58.3c0.6-15.5,2.5-24.2,8.2-38.5
		c3.7-9.3,4.3-12.8,2.3-14.8C270,191.4,269.1,191.7,268.4,194.7z M380,195.1c-0.7-2.3-0.8-2.2-0.9,1.4c-0.3,14.4-6.1,35-14.2,50.5
		c-4.3,8.3-4.5,9.1-1.9,6c4.4-5.1,12.7-22.4,14.5-30.3c0.9-3.8,2-10.9,2.4-15.9C380.4,201.8,380.4,196.5,380,195.1z M574,278.6
		c-3.5-7.2-3.6-8.9,0.6,19.9c3,20.9,3.4,22.4,4.5,17c1.2-6.3,1-16.4-0.6-23.9C577.7,287.8,575.7,282,574,278.6z M512,287.5
		c0,0.3,1.2,2.3,2.6,4.4c5.2,7.9,6.8,19.3,4,29.6c-2.9,11.1-6.7,15-15.4,16.1c-4.9,0.6-5.3,0.8-3.2,1.6c2.8,1,10.2-0.5,13.8-2.9
		c2.3-1.4,2.4-1.4,1.7,0.7c-1.1,3.5,1.2,1.5,3.5-3c3-5.9,5-15.6,5-24.7c0-9.5-0.7-11.7-5.1-16.7C515.9,289.1,512,286.3,512,287.5z
		 M504.8,301.1c-7.4,0.5-9,2.7-3.8,5.4c1.6,0.8,3.1,1.5,3.4,1.5s2.6-5.7,2.6-6.6C507,301.2,506,301.1,504.8,301.1z M491,308
		c-1.7,1.7-2,3.3-2,10.4c0,9.7,1.1,11.6,6.6,11.6c4.1,0,8.4-3.7,8.4-7.3c0-1.3,0.7-3.2,1.5-4.3c1.9-2.5,1.9-3.4-0.1-3.4
		c-1.1,0-1.5-0.6-1.1-2c0.4-1.6-0.4-2.6-3.7-4.5C495.4,305.5,493.6,305.4,491,308z M514.7,308.9c-1.3-1.7-1.6-1.8-2.7-0.4
		c-1.2,1.5-0.7,6.5,0.8,6.5c0.4,0,1.3-0.9,2-2C515.8,311.3,515.8,310.6,514.7,308.9z M517.2,314c-0.5,0-3.7,3.2-7.2,7.1
		c-7.6,8.5-9.5,9.8-15.7,10.8l-4.8,0.7l3.2,1.7c4.6,2.5,12.2,2.2,16.4-0.6c3.8-2.5,7.4-9.1,8.4-15.5
		C517.9,315.8,517.8,314,517.2,314z M291,361.1c-1.9,0.2-3,1.4-3,3.2c0,3.9,7.5,14.3,12.1,16.7c1.3,0.7,3,2.1,3.6,3.1
		c1.8,2.4,9.3,5.1,13.3,4.7l3.3-0.3l-4.9-3.2c-7.2-4.6-16.6-13.4-20.5-19.2C293,363.3,291.3,361.1,291,361.1z M352,361
		c-0.6,0-1,5-1,12.9v12.9l3.3,4.8c3.3,4.9,7.8,7.9,13.7,9l3.5,0.7l-5.6-6.1c-6.8-7.3-8.9-12.7-8.9-22.9c0-6-0.4-7.7-2-9.3
		C353.9,361.9,352.6,361,352,361z M504.8,364c-0.2,0-1.5,1.1-2.9,2.4c-2,1.8-3.1,4.5-4.4,10.1c-1.1,5.2-2.6,8.8-4.9,11.8
		c-1.8,2.3-3.5,5.3-3.8,6.5c-0.6,2.1-0.3,2.2,4.6,2.2c5.8,0,9.6-2,9.6-5.1c0-1.1,1.4-4.5,3-7.6c3.5-6.5,3.7-10.1,1-16.1
		C506,365.9,505,364,504.8,364z M366.8,368.7l-5.8-2.6l-1.1,2.1c-1.7,3.1-1.4,11,0.5,15.1c4.7,9.7,14.7,16.7,24.2,16.7
		c2.9,0,5.5-0.4,5.8-0.9c0.3-0.4-0.6-1.9-2.1-3.2c-3.6-3.4-10.1-13.5-11.5-18.1c-0.6-2.1-1.8-4.4-2.7-5.1
		C373.2,371.9,369.9,370.1,366.8,368.7z M488,373.5c-6.9,3.7-21.6,8.2-31.3,9.6c-8.2,1.1-8.6,1.3-9.2,4c-0.4,1.6-0.1,3.8,0.6,5.1
		c0.7,1.3,1.2,2.8,1.1,3.4c-0.3,1.4,5.3,6.2,8.6,7.5c3.2,1.2,4.9,0.6,9.6-3.6c2.2-1.9,5-3.5,6.2-3.5c4.2,0,13.5-4.2,16.9-7.6
		c3.8-3.8,5.8-9.6,4.9-14.3C494.6,370.4,493.9,370.3,488,373.5z M379.3,374c-0.3,0-0.3,1.5,0.1,3.2c3.1,15.6,23.8,30.2,32.6,23
		c2.7-2.2,5.3-13.4,3.6-15.7c-0.6-0.9-4.1-1.9-8.6-2.5c-4.1-0.6-11.9-2.6-17.3-4.5C384.3,375.6,379.6,374,379.3,374z M514,382.3
		c-4.5,1.8-7.4,5.1-6.6,7.3c0.7,1.9,2.2,1.7,11.1-1.8c5.3-2,7.7-2.3,20-2.2c14.4,0.1,14.5,0.1,33.7,6.3c1.9,0.7,3.2,0.5,4.5-0.5
		c1.7-1.3,1.6-1.6-2.2-4.8c-2.9-2.6-6.1-4-12.5-5.6C546.5,377,525,377.6,514,382.3z M523.7,388.6c-6.6,1.6-10.9,4-8.6,4.8
		c4,1.5,21.5,3.6,29.7,3.6c9.8,0,23.1-1.6,24.5-3c1.1-1-8.2-4.5-15.8-5.9C545.5,386.6,530.8,386.9,523.7,388.6z M427.4,389.2
		l-6.1-0.4l-3,5.3c-3.8,6.7-7.9,10.6-16.3,15.7c-7.7,4.7-8,5.5-5,17.3c3.1,12.3,3.9,14.7,5.5,15.3c3,1.1,62.2-3.8,63.6-5.3
		c0.7-0.7-0.6-21.9-1.5-24.7c-0.3-1.1-3.4-3.3-6.9-4.9c-4.8-2.3-6.9-4-9.2-7.7c-2.4-3.7-4.3-5.3-9-7.5
		C435.8,390.7,431.2,389.5,427.4,389.2z M571.7,395.5c-10.4,3.9-33.1,4.3-55.2,1.1c-4.9-0.7-9.1-1.3-9.2-1.2
		c-0.1,0,1.6,5.3,3.8,11.6c4.5,13.1,6.5,15.6,15.4,18.9c8.1,3,18.4,3.7,26.9,1.7c8.2-2,11.4-4.1,15.4-10.3c3-4.6,8.2-18.5,8.2-21.7
		C577,393.7,576.7,393.7,571.7,395.5z M605,400c11.6,10.7,13.4,11.4,10.9,4.3c-0.8-2.4-2.2-3.5-6.2-5.1
		C600.6,395.7,600.4,395.7,605,400z M481.5,397.7c-2.5-0.4-5.4-0.1-7.7,0.8c-5.4,2-13.1,7.6-12.1,8.6c0.5,0.5,4.2,2,8.2,3.4
		c10.6,3.6,15.6,6.8,18.7,12c2.3,3.9,3,4.5,6,4.5c2.4,0,3.4,0.4,3.4,1.6c0,0.9,0.7,2.8,1.5,4.2c0.8,1.5,5.3,10.8,10.1,20.7
		c4.7,9.9,11.1,22.2,14.1,27.2c3,5.1,6.5,12.5,7.7,16.4l2.2,7.1l7.9-9.3c4.3-5.2,14.4-15.8,22.4-23.7c8-7.8,13.9-14.2,13.1-14.2
		c-0.8-0.1-0.1-0.8,1.5-1.7c7.5-3.9,15.1-15.2,14-20.9c-0.8-4.5-4.1-10.5-7.2-13c-2.3-1.8-3.3-2-6.7-1.2
		c-10.1,2.2-11.5,2.9-15.4,7.3c-3.5,4-4.5,4.5-10.6,5.6c-10.3,1.7-25.9,0.8-32.3-2c-4.2-1.9-5.2-2.8-5.1-4.5
		c0.1-1.2-2.4-8.4-5.7-15.9l-5.9-13.8l-3,0.8c-1.7,0.4-5.8,0.8-9.1,0.7C488.2,398.4,483.7,398,481.5,397.7z M585.5,404.5
		c-3.6-1.3-6.5-2.1-6.5-1.8c0,0.4,1.2,2.1,2.8,3.7l2.7,3.1l-3.1-2.8c-3.6-3.2-4.4-3.4-4.4-0.6c0,3.4,1.9,6,10.4,14.4
		c4.9,4.9,9.4,10.5,11.3,14.1l3.1,5.9l-7.6,6.1c-21.4,17.1-43.7,39.8-56.6,57.7c-6.7,9.3-13.8,23.5-15.8,31.7
		c-1.3,5.1-1.6,5.5-5.1,6.2c-2.9,0.6-18,7.8-19.5,9.3c-0.2,0.2,0.6,2.1,1.6,4.2c4.1,8,17.4,17.3,24.7,17.3
		c5.2-0.1,10.7-3.4,20.3-12.5c16.6-15.7,50.3-61.5,72.1-97.9c13.1-21.9,13.1-22,3.3-41.6c-7.6-15.4-7.7-15.4-20.9-16.2
		c-5.7-0.3-7-0.1-6.1,0.9c0.6,0.7,0.8,1.3,0.4,1.3C592.3,407,589.1,405.9,585.5,404.5z M573.6,412.4c-0.3,1.3-0.9,3.2-1.2,4.1
		c-0.6,1.6-0.5,1.6,2.4,0.1c2.8-1.4,2.9-1.8,1.9-4.1C575.2,409.4,574.4,409.3,573.6,412.4z M468.1,413.3c-1.2-2.1-1.3,4.4-0.2,14.2
		l0.7,6l0.8-3.8c0.5-2.2,0.6-6.3,0.3-9.2C469.4,417.5,468.7,414.3,468.1,413.3z M475.1,414.5l-4.1-1.4V424c0,6.3,0.4,11.1,1,11.5
		c1.2,0.8,12.9-3,15.6-5c1.9-1.3,1.8-1.5-0.5-6c-1.3-2.5-3.7-5.5-5.2-6.6S477.3,415.3,475.1,414.5z M391.9,415
		c-0.8,0-0.9,1.8-0.5,5.7c1.1,8.8,3.8,21.3,4.8,21.3c1.2,0,1-2.3-1.2-14.4c-1.1-6-2-11.3-2-11.8C393,415.4,392.5,415,391.9,415z
		 M384,418.7c-4.9,3.2-9.2,7.9-11.6,12.5c-2.7,5.3-2.9,7.1-1.1,8.6c1.2,1,21.4,3.9,22.1,3.1c0.2-0.2-0.7-6-2-12.9
		s-2.3-12.6-2.4-12.8C388.9,416.4,386.1,417.2,384,418.7z M494,429c-0.3,0-1.2,0.6-2,1.3c-3.3,3-18.8,7.8-31.5,9.7
		c-22.2,3.3-36.2,4.3-60.5,4.3s-25.5-0.1-36.4-4.8c-1.8-0.8-1.9-0.5-1.3,3.8c0.6,4.4,0.4,5-2.7,8.5c-4,4.5-21.8,38.8-28,53.8
		c-5.8,14.3-9,28.2-8.2,35.3c0.7,6.2,3.9,14.2,6.7,16.7c2.3,2.1,2.3,2,0-4.9c-1.1-3.2-1.7-5.7-1.2-5.7c0.4,0,1.5,2.2,2.5,5
		c3.1,8.5,4,6.3,3.4-8.3c-0.3-7.2-0.3-13.8-0.1-14.5c0.7-1.7,4-1.5,4.7,0.4c0.9,2.4,0.7,2.8-0.9,1.4c-0.9-0.7-1.8-1-2.1-0.7
		s-0.3,5.5,0.1,11.7c0.8,12.2,2.5,16,7.1,16c2.1,0,2.4-0.4,2.5-4.3c0.1-2.3,0.5-5.6,0.9-7.2c0.7-2.6,0.8-2.3,0.9,2.1
		c0.2,7.8,2.9,14.2,4.4,10.1c0.3-0.9,0.9-0.7,2.4,0.5c2.6,2.3,3.1,2.3,7.8-0.9c3.4-2.3,3.6-2.7,2-3.3c-1.8-0.6-1.7-0.7,0.3-1.2
		c3-0.8,2.8,1.3-0.4,5.1l-2.6,3.1h4c2.9,0,4.9-0.7,7.1-2.5c4.7-4,10.2-12.1,10.8-16c0.3-1.9,0.9-3.5,1.4-3.5c0.4,0,1.1-0.9,1.4-2
		c1.1-3.5,2.3-2.2,1.5,1.8c-0.6,3.6-6.7,14.3-8.9,15.6c-0.6,0.4-1.6,1.7-2.2,2.8c-2.2,4.1,7.3-2.6,10.8-7.6c4.3-6.3,5-10.8,6.5-42.1
		c1.8-37.7,1.7-46.1-0.4-51.3c-1-2.3-1.4-4.2-0.9-4.2s1.4,1.2,1.9,2.7c0.6,1.6,2.2,5.9,3.6,9.6c2.4,6.2,2.5,6.8,0.8,6.3
		c-1.7-0.6-1.9,1.4-3.6,36.9c-1,20.7-1.7,37.7-1.5,37.9c0.7,0.5,33.3,5.7,36.4,5.7c1.7,0,7-0.2,11.9-0.5c7.3-0.5,9.4-1,11.3-2.8
		c1.8-1.7,2.3-1.8,2.3-0.6s1.4,1,8.3-1.4c4.5-1.6,9.1-3.8,10.3-4.9c1.1-1,2.3-1.6,2.7-1.3c1,1,6-3.4,8.4-7.4c2.5-4.1,2.8-9,1.3-20.7
		c-0.5-3.9-1.4-15.3-2-25.5c-1.4-21.7-2.7-28.1-7.7-36.1c-4.5-7.4-3.8-8.7,1.1-2c7.2,9.8,7.9,12.4,8.7,35.1
		c0.4,11.3,1.5,25.3,2.4,31.2c2,13.4,1.2,17.1-5.1,23.8l-4.5,4.8l5.3,3.1c3.8,2.1,5.4,2.6,5.6,1.7c0.2-0.8,1.2-1.1,2.7-0.8
		c3,0.5,16.4-5.6,20-9.2c1.7-1.7,2.5-3.6,2.5-6.1c0-1.9,0.5-3.5,1-3.5c0.6,0,1,1.1,1,2.5c0,4.4,1.6,2.7,3.6-3.8
		c2-6.4,2.5-16.6,1.1-22.6c-0.4-1.9-0.4-3.1,0-2.7c0.5,0.4,1.5,3.7,2.4,7.4l1.6,6.7l1.7-3.7c3.2-7.2,2.4-10.2-8.9-34.1
		c-5.8-12.2-12.1-24.9-14-28.2c-1.9-3.3-5.1-9.5-7.2-13.8C496.2,432.5,494.3,429,494,429z M596.7,438l-1.6-2.3l-1.5,3.8
		c-2.6,6.1-2,7.4,1.5,3.8C598.1,440.4,598.2,440.1,596.7,438z M475.4,545.4c-1.1,0.8-4.8,2.6-8.3,4c-16.2,6.6-35.9,7.7-55.1,3.2
		c-19.1-4.5-18.4-4.5-23,0.4c-5.3,5.7-7.6,10.6-5.9,12.6c3.9,4.7,23.9,11.7,38.1,13.5c15.8,1.9,37.4-0.9,48.1-6.2
		c6.2-3.2,13.5-8.7,14.2-10.9c0.3-1-0.6-5.1-2-9.1C478.5,544.2,478,543.6,475.4,545.4z M340.4,561.5c-3.2-0.7-6.1,2-8.3,8
		c-1.1,3-5,15-8.7,26.7c-10.7,34.5-19.6,56.1-32.5,78.9c-10.3,18.1-18.8,25.9-35.8,32.9c-4.5,1.9-8.1,3.7-8.1,4.2
		c0,0.4,3.2,0.5,7,0.2c3.9-0.4,7-0.5,7-0.2s-2.5,2.3-5.6,4.4c-6.2,4.3-5.7,5.4,1.3,3c5.3-1.8,6.3-1.9,6.3-0.7c0,0.4-4.3,1.8-9.5,3.1
		s-9.5,2.6-9.5,3s1.5,1.5,3.3,2.5c3.3,1.7,3.6,1.7,9.3-0.2c3.2-1.2,6.7-2.4,7.7-2.8c0.9-0.4,1.7-0.3,1.7,0.3s-2.1,1.8-4.7,2.8
		c-7.7,2.8-7.6,3.7,0.3,3c9.4-0.8,15.2-2.7,23.2-7.5c3.7-2.2,7.9-4.3,9.3-4.6c4.4-1.1,8.5,1.8,11.8,8.3c1.6,3.1,3.8,6.8,4.8,8.1
		l2,2.4l0.7-7.4c0.3-4.1,1.3-15.7,2-25.9c1.8-23.6,3.3-27.8,20.7-59.1c13.9-24.9,24.6-46.2,27.5-54.4c0.9-2.8,1.9-9.3,2.2-14.7
		c0.5-11.2,2.2-9.7-13.8-12.3C346.8,562.7,341.6,561.8,340.4,561.5z M374.8,562.8c-3.4,1.5-3.8,2.2-4.3,6.2
		c-1.3,10.2-2.8,16.9-5.6,24c-2.7,7.1-14.7,30.3-30.8,59.5c-3.9,7.1-8.5,16.4-10.2,20.5c-3.9,9.3-7.1,24.5-6.7,31.9l0.3,5.6l1.4-4
		c2.9-8.7,44.2-104.3,54.3-125.7c3.2-6.9,6.2-14.3,6.5-16.2C380.3,560.6,380.1,560.5,374.8,562.8z M485,566c-0.9,0-3,2.3-3,3.3
		c0,0.5,6.9,13.6,15.4,29c21.6,39.7,25.8,48.4,33.3,68.6c3.7,10.2,10.7,36,10,36.7c-0.2,0.3-1.2-2.4-2.2-5.8
		c-8.6-31.5-21.3-61.8-38.3-91.8c-6.7-11.9-21.1-35-21.7-35c-0.4,0-7.5,4-8.4,4.7c-0.2,0.1,0.3,1.1,1.1,2c3.1,3.7,3.1,4.7-0.1,2
		c-3.6-3-5.3-3.3-6.9-1.4c-0.8,0.9,0.1,4.9,3.3,15c2.3,7.5,4,13.9,3.6,14.2c-0.4,0.2-2-3.7-3.5-8.7c-4.9-16.4-9.6-23.2-5.8-8.5
		c6.1,24.1,8.8,51.9,7.2,74.2c-0.6,7.8-1.5,16.1-2,18.5c-0.9,4.3-0.9,4.3-0.5-1.5c2.9-35.7,0.7-62.9-7.2-91.3
		c-2.8-10.2-3-10.3-10.6-8.1c-3.6,1-3.8,1.2-3.2,4c0.8,3.5-0.2,3.8-1.5,0.4c-0.6-1.5-1.7-2.5-3-2.5c-2,0-2,0.5-2,31.9
		c0,20.3-0.4,32.2-1,32.6c-0.7,0.4-1-10.5-1-32v-32.6l-4.2,0.3l-4.3,0.3l-6.7,33c-3.6,18.1-6.7,31.6-6.7,29.8
		c-0.1-4.5,3.3-24.1,7.9-44.6c2.2-9.8,4-18.2,4-18.7c0-0.4-2.7-1.1-6-1.5c-5.5-0.6-6.2-0.5-8,1.7l-2,2.3l0.9-2.7
		c0.8-2,0.7-2.8-0.5-3.2c-4.6-1.8-5-1.1-8.8,13.9c-2,7.9-3.6,16.1-3.6,18c0,2.2-0.4,3.4-1,3c-0.5-0.3-1-1.8-1-3.3
		c0-2.1,5-22.7,7.6-31.4c0.4-1.2-0.7-2.2-4.2-3.7c-8.1-3.6-8.4-3.4-16.2,10.9c-15.5,28.6-29.7,67.1-41.3,112.5
		c-5.3,20.4-5.7,19.3-0.8-2c9.2-39.4,20.2-69.9,38-105.3c5.8-11.6,10.4-21.2,10-21.1c-5.2,0.6-14.3,14.3-29,43.9
		C335.5,667.3,315,718.7,315,731.4c0,4.9-0.6,6.7-3.5,11.4c-2.3,3.8-4.5,9.7-6.5,17.7c-3.1,12.2-6.4,29.4-5.8,30.1
		c0.3,0.3,37-6.5,37.4-7c0.1,0,1.8-12.9,3.8-28.6c3.8-29.1,8.8-60.1,10.6-65.5l1-3l-0.5,3.5c-0.2,1.9-2,15-4,29
		c-10,72.2-9.6,68.4-7.2,69.3c0.7,0.2,7.9,0.1,16-0.2c10.9-0.4,15-1,15.6-2c0.5-0.7,1.2-5.4,1.5-10.5c3-39.5,7.9-92.7,9.2-98.5
		c1.5-7.2,0.8,3.5-3.6,50.9c-2.6,28.9-4.7,52.6-4.6,52.7c0.2,0.2,4.3,0,9.2-0.5l8.9-0.7l0.2-6.5c0.6-16.3,2.6-47.9,3.3-52l0.7-4.5
		l0.2,4.5c0,2.5-0.6,17.7-1.4,33.9s-1.2,29.7-0.9,30c0.9,1,46.9,1.3,50.5,0.4c1.8-0.5,4.2-2.1,5.3-3.7c2.4-3.1,2.4-3.9,1.7-61.9
		c-0.2-17.5-0.1-32.1,0.3-32.4c0.3-0.4,0.6,3.4,0.7,8.3c0.3,39.9,1.7,79.6,2.8,80.3c1.1,0.7,28.1,2.4,28.7,1.8
		c0.2-0.1-1-13.7-2.6-30.2c-1.7-16.5-2.9-31.4-2.9-33c0.2-7.5,1.8,3.6,4.4,31.2l2.8,29.2l3.1-2.4c1.7-1.3,5.4-2.8,8.1-3.2l5-0.9
		l-0.3-4.4c-0.4-6.5-5.7-41.3-9.8-64.4c-3.8-21.3-4.2-28.5-0.6-11.5c3.7,17.6,14.2,83.1,14.2,88.5c0,0.2,4.7,0.4,10.5,0.4
		c11.1,0,17.5-1.5,22.9-5.3c2.8-2,2.8-2.2,2.2-8.7c-0.5-5.2-6-36.2-8.1-45.4c-0.2-1,0-1.5,0.4-1c0.7,0.7,7.1,32.6,9.7,47.7
		c1,5.8,3.8,8.7,8.5,8.7c4.3,0,17.9-2.8,17.9-3.7c0-0.3-1.1-3.1-2.5-6.2c-3.3-7.6-18.7-56.9-18.2-58.4c0.2-0.7,3.7,8.9,7.6,21.3
		c4,12.4,8.1,25.3,9.2,28.7c2.2,6.8,1.9,6.6,13.3,7.9c4.8,0.5,5.8,0.4,5.4-0.7c-1.1-2.6-14.9-34.2-25.6-58.4
		c-11-24.9-36.2-75.7-49.6-100c-4.3-7.7-11.5-19.3-15.9-25.7C489.2,571.3,485.3,566,485,566z M577.3,763.9c-3.2-0.7-3.3-0.6-3.3,2.6
		c0,4.1-0.8,4.7-10,7.3c-6,1.8-8.2,2-11,1.2c-5.3-1.5-9-1.2-16.6,1.4c-3.8,1.3-9.9,2.6-13.7,3c-6.1,0.7-6.7,1-6.7,3
		c0,2.1,1,2.4,17.6,5.5c10.1,1.9,18.8,3,20.3,2.6c7-1.7,30-15.6,32-19.3c1.2-2.2,0.4-3.5-2.9-5.2
		C581.7,765.3,579.1,764.4,577.3,763.9z M491.2,775c-6.7,4.8-7.6,8.3-4.2,14.9c1.3,2.7,3.3,4.6,6.3,6c8.6,4.2,22.5,1.7,21.9-3.9
		c-1.1-11-1.4-12-3.6-12c-5.1,0-9.5-2.1-10.8-5C499.1,771.1,496.5,771.1,491.2,775z M457.7,779.7c-1.9,1.8,0.5,19.2,3.3,24.2
		c0.5,1,1.6-1.1,3.4-6.6c2.6-8.5,3.5-15,2.2-17.1C465.8,778.9,458.8,778.5,457.7,779.7z M482.8,780h-5.4c-5.8,0-5.7-0.1-7.8,6.8
		c-0.7,2.2-0.7,2.2,6.6,1.6c4-0.4,7.4-0.8,7.6-0.9c0.2-0.2,0-1.9-0.3-3.9L482.8,780z M378,784c-1.7,1.7-2,3.1-1.8,8.2l0.3,6.1
		l7.5,2.4c10.9,3.3,10.7,3.4,11.2-4c0.6-6.8-0.7-10.5-4.4-13.1C387.5,781.3,380.5,781.5,378,784z M325.1,788.6
		c-1.9,0.8-7.9,2-13.3,2.6s-9.8,1.5-9.8,1.9s3.8,2.1,8.6,3.8c10.1,3.7,19.7,4.2,25.4,1.3c4.8-2.3,5.3-6.2,1.2-9.1
		C333.7,786.6,329.9,786.5,325.1,788.6z M370.7,790.2c-1.2,0.1-7.7,0.4-14.4,0.7c-6.9,0.4-12.7,1.1-13.3,1.7c-0.6,0.6-1,2.9-0.8,5
		c0.4,4.7,1.2,5,19.4,6l13.5,0.7l-0.7-6.4c-0.3-3.5-0.9-6.7-1.1-7.2C373.1,790.3,371.9,790.1,370.7,790.2z"/>
	<path d="M476.2,167c7.4,14.5,15.8,27.4,26.2,39.7c13.2,15.8,47.5,48.1,48.4,45.5c0.6-1.9-5.5-23.7-9.7-34.4
		c-7.1-18-19.5-38.2-35.2-57.3c-2.2-2.8-0.7-1.4,3.5,3c20.6,21.6,36.7,52.8,42.1,81.9c2.3,12.1,2,12.4-4.5,7.2c-3-2.4-5.8-4-6.1-3.5
		c-0.7,1.3-58.8-57.6-64.6-65.5c-4.6-6.3-6.7-9.6-5.9-9.6c0.2,0,5.6,6.3,12.1,14.1c6.4,7.7,11.9,13.8,12.2,13.6
		c0.2-0.3-2.7-5.4-6.6-11.3c-6.8-10.2-16.2-28.1-17.6-33.4C470.2,155.6,472.7,160.1,476.2,167z"/>
	<path d="M422.5,259.7c1.4,3.2,1.4,3.2-1.8,3.8c-2.2,0.4-6.2-0.4-12.7-2.6c-8.5-2.8-10.4-3.1-17.8-2.6c-11.4,0.7-21,5.3-30.4,14.8
		c-3.8,3.7-6.8,7.4-6.8,8.2c0,2.2,8.2,5.1,12.2,4.3c4.3-0.9,7.2-3.5,5.7-5.3c-0.9-1-0.7-1.3,0.7-1.3c1.1,0,5.5-1.2,9.9-2.6
		c10.5-3.5,21.9-3.8,28.5-0.8c5.1,2.3,11,7,11,8.7c0,0.6-1.2-0.1-2.7-1.6c-5.1-4.8-11.9-7.1-21.1-7c-4.7,0.1-8.9,0.6-9.5,1.2
		c-0.8,0.8-0.1,1.1,2.7,1.1c5.2,0,14.9,2.6,20.7,5.6c12.8,6.4,18.7,19.5,17.7,39.1c-0.5,10-2.6,15.7-7.9,21.8
		c-4.9,5.6-9.9,7.3-25.1,9c-7.3,0.7-14.2,1.7-15.3,2.1c-1.6,0.6-1.8,0.5-0.7-0.7c2.1-2.2,1.4-2.7-4.8-3.4c-3.3-0.4-6.3-1.1-6.6-1.6
		s0.2-0.9,1-0.9c2.8,0,1.7-1.5-2.5-3.2c-2.2-1-3.8-2.2-3.5-2.7c0.4-0.5-0.7-3.1-2.3-5.7c-4.7-7.3-6.3-13.3-5.9-21.9l0.3-7.5
		l-3.5-0.1h-3.5l4-1.5c4.1-1.5,6.5-3.7,6.5-6.1c0-0.9-1.6-1.3-5.4-1.3c-3,0-5.8-0.5-6.1-1c-0.4-0.6,1.7-1,5.6-1
		c5.8,0,6.4-0.2,9.5-3.6c1.9-1.9,3.4-3.9,3.4-4.3c0-0.5-3.8-1.8-8.5-3.1c-4.7-1.3-8.5-2.5-8.5-2.7c0-1.3,6.5-9.4,10.7-13.4
		c8.9-8.5,18.1-13.7,29.3-16.4C402.9,250.1,419.8,253.3,422.5,259.7z M412.2,290.2c10.5,12.8,12.1,26.1,5.1,40.3
		c-5.2,10.7-14.8,16.6-29.4,18.1c-7,0.7-7.3,0.8-4.4,1.9c3.1,1.2,15.8,0.5,19.9-1.1c1.4-0.5,1.7-0.4,1.2,0.4
		c-2.2,3.6,11.3-1.8,15.1-5.9c6.9-7.6,9.4-25.5,5.5-38.6c-2.4-7.6-5.1-11.9-10.7-16.3C409.1,284.7,408.2,285.3,412.2,290.2z
		 M412.8,295.4c-2.1-1.9-2.1-1.9-1.4,0.6c0.3,1.4,1.1,6.3,1.7,11c0.7,4.7,1.5,8.9,2,9.4c3,3.3-0.7,9.6-5.7,9.6
		c-1.2,0-2.7,0.7-3.4,1.5c-2.7,3.2-7.4,5.8-11.9,6.6c-4.6,0.9-19.1,7.7-19.1,9c0,1.5,6.5,3.2,11.8,3.2c13.5-0.2,27.4-10,30.7-21.7
		c2-6.8,1.6-15.2-1-22.7C415.6,299.3,413.9,296.4,412.8,295.4z M374.7,310.9c-0.4,1.8,1.5,4.2,6.6,8c2.1,1.6,4,0.4,6.3-4.1
		c1.2-2.3,1.3-3.3,0.3-4.4c-1.3-1.6-5.5-1.9-6.4-0.4c-0.4,0.7-1.2,0.7-2.5,0C376.3,308.5,375.3,308.8,374.7,310.9z M404,317.7
		c0,4.5,5.3,7.7,8.9,5.4c1.2-0.8,1-1.6-1.2-5C408.1,312.7,404,312.5,404,317.7z M363.2,321c-2.8,5.3,0.6,17.2,5.4,19
		c5.2,2,12.6-1.4,15.5-7.3c1.2-2.3,2.8-5,3.7-6c1.4-1.6,1.3-1.7-1.3-1.7c-2.3,0-2.6-0.3-1.7-1.2c1.6-1.6,1.5-2.9-0.2-2.2
		c-0.8,0.3-3.3-0.6-5.5-2.1C371.8,315,366.2,315.5,363.2,321z"/>
	<path d="M515.3,257.4c4.5,1.6,10.3,5.9,11.8,8.7c0.7,1.4-0.6,0.7-4.1-2c-5.8-4.6-10.9-6-15.4-4.1c-5.2,2.1-9.6,2.5-9.6,0.7
		c0-0.9,1-2.3,2.2-3.1C502.9,255.7,510.1,255.6,515.3,257.4z"/>
	<path d="M449.5,357.1c10.3,0,12.5,0.3,10.5,1.1c-3.2,1.4-17.7,1.4-21,0C437.1,357.4,439.4,357.1,449.5,357.1z"/>
	<path d="M450.1,367c5.8,0.1,6.2,0.2,4.5,1.5c-2.6,1.9-8,1.9-9.6,0C443.9,367.2,444.6,367,450.1,367z"/>
	<path d="M572.3,399.4c1.7,1.3,1.6,1.5-1.1,3.5c-2.6,1.8-3.1,1.9-4.2,0.6c-1-1.3-0.9-1.9,0.5-3.5
		C569.6,397.7,569.9,397.6,572.3,399.4z"/>
	<path d="M514.4,399c1.3,0.1,5.2,2.8,4.5,3.3c-0.2,0.1-1.2,0.9-2.2,1.6c-1.5,1.2-2,1.1-3.7-0.4c-1.5-1.4-1.7-2.1-0.9-3.2
		C512.7,399.6,513.8,399,514.4,399z"/>
	<path d="M561.1,400.6c2.3,2.1,2.4,2.8,0.3,4.8c-3.6,3.7-6.8,0.4-3.9-4C559.1,398.9,559.2,398.9,561.1,400.6z"/>
	<path d="M528.5,402c2,2.2,2,2.2-1.4,4c-1.9,1-2.6,0.9-3.9-0.4c-1.4-1.4-1.4-1.7,0.3-3.6C525.8,399.5,526.2,399.5,528.5,402z"/>
	<path d="M540.3,402.4c2.4,1.9,2.1,3.3-1.1,5c-5,2.6-8.6-1.6-4-4.8C537.9,400.7,538,400.7,540.3,402.4z"/>
	<path d="M552.1,403c2.6,1.4,2.4,2.6-0.7,4.6c-2.3,1.6-2.6,1.6-4.1,0.1s-1.5-1.8,0.2-3.7C549.6,401.7,549.5,401.7,552.1,403z"/>
	<path d="M458.9,445.7c0.1,0.1,0,0.6-0.4,1.2c-0.4,0.7-5.1,1.1-12.2,1.1c-6.4,0-11.3-0.3-10.9-0.7c0.4-0.4,5.7-1,11.9-1.3
		C453.5,445.7,458.7,445.6,458.9,445.7z"/>
	<path d="M369.8,446.4c0.9,0.2,4.9,1,8.9,1.7s7,1.5,6.8,1.9s-2.8,0.3-5.6-0.1c-2.9-0.5-5.6-0.6-6.1-0.2c-1.2,0.7-5.8-1.7-5.8-2.9
		C368,446.3,368.8,446.1,369.8,446.4z"/>
	<path d="M407.5,450.4c5.5,0,7.9,0.1,5.3,0.3c-2.6,0.2-7.1,0.2-10,0S402,450.4,407.5,450.4z"/>
	<path d="M366.7,454.8c-2,2-4.5,5.5-5.6,7.7s-2,3.4-2.1,2.7c0-2.4,3.9-8.9,7-11.6C370.6,449.8,371,450.4,366.7,454.8z"/>
	<path d="M424.9,467c0.6,0,1.1,1.8,1.1,4.2c0,2.4,0.3,6.1,0.6,8.3c0.5,3.2,0.4,3.8-0.6,2.8c-0.7-0.6-1.5-4.3-1.8-8.2
		C423.9,469.2,424.1,467,424.9,467z"/>
	<path d="M509,489.4c2.7,8,4.5,14.6,4.2,14.6c-0.7,0-10.2-27.5-10.2-29.5C503,472.3,504.4,475.8,509,489.4z"/>
	<path d="M520,493.2c2.3,9.2,0.3,7-3.8-4.4c-2.3-6.3-4.2-11.9-4.2-12.4C512.2,474.5,518.9,488.8,520,493.2z"/>
	<path d="M389.2,483c0.4,0,0.5,0.6,0.3,1.2c-0.2,0.7-3.6,14.3-7.5,30.3c-8.6,35.2-9,36.8-9.6,36.2c-0.3-0.2,3.2-15.6,7.7-34.1
		C384.7,498.1,388.7,483,389.2,483z"/>
	<path d="M503.2,488c1.6,3.6,1.6,28,0.1,30.5c-1,1.6-1.2-1.3-1.2-15.5C502.1,489.4,502.4,486.1,503.2,488z"/>
	<path d="M354.6,500.5c0.7,3.8,1.7,9,2.3,11.5c1.2,5.4,0.8,6.2-1.3,2.2c-1.9-3.7-3.8-16.4-2.9-18.9
		C353.2,494.1,353.8,495.9,354.6,500.5z"/>
	<path d="M479.7,496.4c0.9,0.9-2,22.6-3,22.6c-0.5,0-0.6-1.2-0.3-2.8c0.2-1.5,1-6.7,1.7-11.5C478.7,499.9,479.5,496.1,479.7,496.4z"
		/>
	<path d="M349.6,501.3c0.5,0.5-7.8,39.8-9.1,43.6c-0.3,0.8-0.8,1.2-1,0.9c-0.4-0.3,5.6-28.4,9-42.7
		C348.8,501.8,349.3,501,349.6,501.3z"/>
	<path d="M409.7,525c1.1,0,8.3,7.3,8.3,8.4c0,0.5-1.6-0.5-3.5-2.4c-3.7-3.6-4.2-3-2.6,2.8c0.5,1.7,0.6,3.2,0.2,3.2
		c-0.7,0-3.1-8.7-3.1-11.1C409,525.4,409.3,525,409.7,525z"/>
	<path d="M487.4,591c0.9,0,13.6,22.8,19,34c5.6,12,11.1,29.5,10,32.4c-1,2.7-4,1.8-9.3-3c-6.8-6.1-5.7-7,1.3-1c3,2.6,5.7,4.3,6,3.8
		c0.8-1.3-1.9-12.9-4.8-20.7c-1.5-3.8-7.2-15.6-12.7-26.2C491.4,599.7,487.1,591,487.4,591z"/>
	<path d="M515.7,760.7c0.2,2.4,0.2,6.2,0,8.5c-0.2,2.4-0.4,0.5-0.4-4.2S515.5,758.4,515.7,760.7z"/>
	<path d="M343.7,767c0.8,0-0.8,14.2-1.8,16.5c-0.9,2-0.4-6.4,0.8-13.3C343,768.5,343.4,767,343.7,767z"/>
</g>
</svg>
