<?xml version="1.0" encoding="utf-8"?>
<!-- Generator: Adobe Illustrator 21.0.0, SVG Export Plug-In . SVG Version: 6.00 Build 0)  -->
<svg version="1.1" baseProfile="tiny"
	 id="svg82" inkscape:version="0.92.2 5c3e80d, 2017-08-06" sodipodi:docname="3 #36170.svg" xmlns:cc="http://creativecommons.org/ns#" xmlns:dc="http://purl.org/dc/elements/1.1/" xmlns:inkscape="http://www.inkscape.org/namespaces/inkscape" xmlns:rdf="http://www.w3.org/1999/02/22-rdf-syntax-ns#" xmlns:sodipodi="http://sodipodi.sourceforge.net/DTD/sodipodi-0.dtd" xmlns:svg="http://www.w3.org/2000/svg"
	 xmlns="http://www.w3.org/2000/svg" xmlns:xlink="http://www.w3.org/1999/xlink" x="0px" y="0px" viewBox="0 0 850 850"
	 xml:space="preserve">
<sodipodi:namedview  bordercolor="#666666" borderopacity="1" gridtolerance="10" guidetolerance="10" id="namedview84" inkscape:current-layer="svg82" inkscape:cx="965.71411" inkscape:cy="855.9997" inkscape:pageopacity="0" inkscape:pageshadow="2" inkscape:window-height="978" inkscape:window-maximized="1" inkscape:window-width="1920" inkscape:window-x="0" inkscape:window-y="1" inkscape:zoom="0.83294118" objecttolerance="10" pagecolor="#ffffff" showgrid="false">
	</sodipodi:namedview>
<g id="g80" transform="translate(0.000000,0.000000) scale(1.00000,1.00000)">
	<path id="path4" fill="none" d="M0,0h425h425v425v425H425H0V425V0z M430.2,15.2c-6.8,2.8-7.8,3-10.6,1.8
		c-16.6-6.9-30.2-8.7-44.7-5.7c-17.7,3.7-25.5,8.9-28.5,19.4c-3.5,12-0.3,25.2,11,45.8c8.8,16,11,23.4,14.2,47.9l2.7,20.3l-7.9,14.7
		c-11.1,20.6-11.3,20.9-22.6,23.6c-47.4,11.6-87.7,43.8-136.6,109.5c-21.8,29.3-21.9,29.4-13.3,44.5c2.9,5.1,5,9.8,4.7,10.6
		c-0.3,0.8-2.7,2.6-5.3,4.2c-20,11.6-44.8,30.1-77.3,57.6c-8.5,7.2-18.7,15.8-22.7,18.9c-9.2,7.4-11.3,11.6-11.3,21.8
		c0,9.5,2,17.3,6.9,27.4c6.4,13,17.1,24,28.6,29.6c8.4,4.1,10.9,3.9,14.3-1.2c5.6-8.4,7.6-10.3,10.5-9.5c1.4,0.3,3.8,2.2,5.3,4.2
		l2.8,3.6l-4.4,3.6c-8.1,6.7-52.3,48.7-63.1,59.9c-26,27.2-46.9,58.5-46.9,70.2c0,2.3,1.3,7.7,3,11.9c9,23.3,24.4,38,47.4,45.1
		c3.8,1.2,7.5,2.6,8.3,3.2c0.7,0.6,3.6,5.2,6.4,10.1c17.6,30.7,43.4,53.7,77,68.4c16.8,7.4,43.4,15.4,51.3,15.4
		c4.1,0,4.9-1.2,8.6-13.3c1.3-4.2,2.7-7.7,3.2-7.7c1.2,0,17.5,10.7,32.4,21.1c20.7,14.6,34.5,20.7,52.2,23.4
		c13.7,2.1,19.7,1,27.9-5.1c1.7-1.3,4.3-2.4,5.8-2.4s9,3.8,17.8,9.1c21.5,12.8,33.3,18.4,46.7,21.9c17.1,4.5,26.5,4.2,45.2-1.1
		c7.8-2.3,8.8-3.5,8.8-11.3c0-9,0.9-9.6,25.8-16c16.7-4.3,21.9-5.3,23.6-4.5c1.2,0.6,3.7,3.4,5.4,6.4c4.2,7,12.3,14.2,17.5,15.6
		c6.9,1.9,15.7,0.6,24.3-3.5c15.5-7.4,27.6-16.4,50-37.3c6.7-6.2,12.5-11.3,12.9-11.3c0.3,0,2.1,1.1,3.9,2.5
		c8.4,6.4,21.2,9.3,32.8,7.5c15.9-2.4,32.6-11.7,46.6-25.8c10.9-11,12-13.4,11.4-26c-0.7-15.3,1.5-19.2,26.9-48.1l4.6-5.2l2.7,4.1
		c3.1,4.7,7.9,8,11.7,8c3.2,0,10.6-4.7,14.2-9c5.4-6.4,20.7-33.2,20.7-36.3c0-3.4-3.5-10-13-24.2c-14.3-21.4-28.5-38.3-68.3-81.2
		l-3-3.2l6.5-6.4c11.8-11.6,18.4-26.6,21.1-47.9l1.4-11.7l5.2-5.8c6.2-6.9,10.1-14.4,10.1-19.3c0-5.7-4.8-11.8-18.2-23.2
		c-21.7-18.5-46.3-35.9-79.8-56.3c-8-4.9-14.7-9-14.9-9.2c-0.6-0.4,1.5-3,9.7-12.4c11.8-13.6,14.5-21.5,10.3-29.7
		c-5-9.7-43.9-50.9-79.1-83.7c-23-21.4-53.9-48.5-61.8-54.2c-11.4-8.2-22.5-11.2-31-8.2c-2.9,1-3.5,0.6-13.4-7
		c-15.8-12.2-18.3-17.4-17.5-35.6c0.4-10.1,0.8-12.2,5.5-25c2.8-7.7,6.9-18.7,9.1-24.5c8.6-21.7,12.7-42.7,10.2-51.6
		c-2.1-7.7-9.3-12.4-26-17C461,6.2,448.6,7.5,430.2,15.2z"/>
	<path id="path6" fill="#0000FF" d="M413.8,20.4l8.2,3.7l6.4-3.1c23-10.9,51.7-9.7,63.7,2.6l3.4,3.5l-0.1,10.2
		c-0.1,7.7-0.7,12.7-2.7,20.2c-2.5,9.2-15.3,45.1-16.6,46.7c-0.7,0.7-23,3.2-23.7,2.6c-0.4-0.4,7.8-34.4,9.2-38.4
		c0.7-1.8,0.6-1.8-1.5,0.1c-5.3,4.6-8,13.1-10.1,31.5c-0.6,5.2-1.3,9.6-1.5,9.8c-0.2,0.3-3.7-1.1-7.7-3.1
		c-7.5-3.7-17.3-6.7-21.8-6.7c-5.6,0-12.8,3-17.8,7.5c-2.7,2.5-5.2,4.5-5.5,4.5c-0.7,0-3.5-7.1-6.9-17.5
		c-3.2-9.9-8.4-19.5-10.6-19.5c-1,0-1.2,0.6-0.7,1.7c7.1,17.4,11.2,29.5,10.2,29.8c-0.7,0.2-3.2,0.6-5.8,1l-4.5,0.6l-10.6-21.8
		c-5.9-12-11.4-24.5-12.3-27.8s-1.9-11.2-2.2-17.5c-0.5-10.9-0.4-11.7,1.9-15c2.9-4.3,12.6-9.6,21.1-11.5
		C386.6,11.9,399.2,13.8,413.8,20.4z"/>
	<path id="path8" fill="#FF0000" d="M443,118.2c0,4.1-1.8,3.2-6.3-3.3c-4.9-6.9-7.5-8.3-14.7-7.6c-6.5,0.6-11.3,2.7-15.2,6.9
		c-2.5,2.7-2.7,2.7-3.3,0.8c-1-3.2,1.7-7.3,6.5-9.8C422.4,98.8,443,107,443,118.2z"/>
	<path id="path10" fill="#0000FF" d="M470.4,110.3c1.6,1.2,1.9,3.6,2.3,19.8c0.7,22.8,0.9,22.5-10.6,21.5
		c-10.5-0.9-12.3-1.4-11.2-3.5c2.2-4.1,2.3-10.9,0.2-18.5c-1.2-4.2-2.1-8.7-2.1-9.9c0-2.8,4.2-7,9-9.1
		C462.3,108.7,468,108.6,470.4,110.3z"/>
	<path id="path12" fill="#FF0000" d="M417.7,110.6c10,1.4,15.8,5.6,21.8,15.8c3.3,5.6,2.6,8.3-2.7,11.6c-4,2.4-5.6,2.5-8,0.3
		c-1.8-1.6-2-1.5-4.6,1.4c-3.6,4.1-6.3,4.8-9.3,2.4c-4.7-3.8-2.4-12.6,4.4-16.3c2.7-1.4,3.1-0.4,1.3,3.1c-2.2,4.1-2,6.8,0.4,7.6
		c2.5,0.8,3.6,0.1,5.6-3.6c1.5-2.9,1.4-3.1-2.1-6.6c-3-3-4-3.5-6.8-2.9c-4.1,0.8-8.3,5.3-9.8,10.8c-0.7,2.4-1.4,4.4-1.5,4.6
		c-0.1,0.2-1.9-0.4-3.9-1.2l-3.7-1.6l0.7-6.7c0.4-3.8,0.9-7,1.1-7.2s2.2,0.1,4.6,0.7c2.3,0.6,4.4,0.9,4.6,0.7c0.2-0.2-0.2-2-0.9-4
		c-1.3-3.6-1.3-3.8,1.8-6.5C413.4,110.6,414.5,110.2,417.7,110.6z"/>
	<path id="path14" fill="#0000FF" d="M386.8,112.6c2.1,1.4,2.2,2.2,2.2,16.2c0,12.9-0.3,15.1-2,17.9c-1.1,1.8-2.4,3.3-2.8,3.3
		c-2.7,0-7.3-9.4-8.7-17.8c-1-5.9,0.2-14.2,2.5-18C380.2,110.6,383.2,110.1,386.8,112.6z"/>
	<path id="path16" fill="#FF0000" d="M447,136.6c0,4.4-0.3,5-6.6,11c-7.4,7.2-10.2,8.4-13.9,6c-2.3-1.5-2.8-1.5-8.8,1.5
		c-3.6,1.8-7.2,2.9-8.1,2.6c-2.3-0.9-5.6-6.7-5.6-9.9c0-1.8,0.8-3.3,2.5-4.4c2.4-1.6,2.7-1.6,4.5,0.1c2.5,2.3,6.3,2.3,16.5,0
		c10.4-2.3,15.4-4.9,16.8-8.6C445.9,130.7,447,131.3,447,136.6z"/>
	<path id="path18" fill="#20B2AA" d="M396,150.1c0.3-0.1,2.2,2.6,4.2,6c3.1,4.8,4.7,6.4,8.5,8.1c2.7,1.1,4.9,2.2,5.1,2.3
		c0.6,0.6-7.9,16.5-8.8,16.5c-1.6,0-25.1-11.3-24.8-11.9c0.2-0.3,3.7-5.2,7.8-10.8C392.1,154.7,395.7,150.1,396,150.1z"/>
	<path id="path20" fill="#20B2AA" d="M443.2,150c1.9,0,0.6,2.5-3.2,6.1c-5.6,5.4-17.7,8.7-21.9,6c-2.4-1.6,6.4-5.4,10.6-4.6
		c3.6,0.6,8.1-1.4,11.8-5.5C441.5,150.9,442.7,150,443.2,150z"/>
	<path id="path22" fill="#0000FF" d="M378.9,154c0.3,0,2.3,0.5,4.4,1.1l3.7,1l-5.5,6.6c-6.9,8.1-6.9,9.9,0,13.3
		c2.8,1.4,5.1,2.5,5.2,2.5c0.1,0.1-2,4.4-4.8,9.8c-3.9,7.5-5.5,9.7-7.1,9.7c-2.1,0-16.3-7.4-17.3-9c-0.3-0.6,4.2-8.6,10.1-18
		C373.5,161.7,378.5,154,378.9,154z"/>
	<path id="path24" fill="#20B2AA" d="M462.5,156.9c4.2,1.9,12.8,10.7,12.2,12.4c-0.5,1.7-17.1,10.6-19.8,10.7c-2,0-3.3-1.1-6-5.2
		c-6.9-10.6-7.2-13.7-1.7-17.6C451.2,154.5,457,154.3,462.5,156.9z"/>
	<path id="path26" fill="#0000FF" d="M477.1,158c2.4,0,4.3,1.2,8.7,5.7c4.6,4.7,12.2,16.2,12.2,18.6c0,0.3-2.4,2-5.2,3.8
		c-2.9,1.7-6.3,3.8-7.4,4.6c-2,1.3-2.5,0.9-8.3-5.6l-6.2-7l5.3-3c2.9-1.6,5.9-3.4,6.6-3.8c1-0.6,0-2.3-3.7-6.5
		c-2.8-3.1-5.1-5.9-5.1-6.2S475.4,158,477.1,158z"/>
	<path id="path28" fill="#0000FF" d="M445.4,176c6.9,9.8,8.8,10.6,16.1,6.5l5-2.8l7.2,7.8c4,4.3,7,8.2,6.7,8.7s-1,0.6-1.5,0.2
		c-0.5-0.3-3.4-0.5-6.3-0.5c-4,0-8.1,1-15.6,4c-7.8,3.2-12.4,4.4-20.3,5.2c-12.5,1.4-35.6,0.6-45.7-1.5c-12.4-2.7-11.8-1.5-5.9-12.4
		c2.8-5.3,5.4-10,5.8-10.4s3.2,1.1,6.4,3.3c3.5,2.5,6.5,3.9,7.9,3.7s4.1-2.8,7.1-6.8c6-8.1,10.3-12.7,14.2-15.1
		C433.1,161.8,436.9,163.8,445.4,176z"/>
	<path id="path30" fill="#1E90FF" d="M517.5,177.1c5.9-0.1,15.8,4.2,24,10.4c7.3,5.6,41,36.1,64,58.1c26.1,24.9,57.8,59.5,62.1,67.7
		c1.4,2.6,1.3,3.1-1,7c-1.3,2.3-6.8,9.5-12.1,16c-7.5,9.1-10.8,12.3-14.7,14.3c-5,2.5-7,2.6-5,0.2c0.5-0.7,2.2-4.2,3.7-7.7l2.6-6.4
		l-2.2-6.6c-4.9-14.7-6.4-17.6-16.7-31C587.1,253.5,558,225,517.8,196.7c-6.4-4.5-11.7-8.5-11.8-8.9c0-1.2,6,0.3,11.8,2.8
		c3,1.3,10.2,5.7,16,9.7c14.7,10.2,19.2,12.9,19.2,11.7c0-4-17.2-16.8-36.3-27c-9.5-5-10.5-6.2-6.2-7.3
		C511.6,177.4,514.8,177.2,517.5,177.1z"/>
	<path id="path32" fill="#1E90FF" d="M347.9,188.7c0,0.5-6.8,4.8-15,9.7c-10.6,6.3-14.7,9.2-13.9,10c1,1,5-0.8,22-9.9
		c7.1-3.8,15-4.7,18.5-2.1c1.8,1.3,1.3,1.7-6.1,5.4c-23.4,11.8-47.4,32.1-66,55.8c-13.5,17.1-39.6,61.4-36.2,61.4
		c0.7,0,4.7-5.8,8.8-12.7c10.5-17.8,25.4-40.3,33.1-49.8c15.2-18.9,33.9-34.9,49.9-43c12.6-6.3,31-11.6,31-8.9
		c0,0.3-6.4,12.8-14.2,27.7c-16.8,32-20.9,40.7-25.4,54.3c-3.1,9.5-9.2,43-8,44.1c0.8,0.8,9.4-4.5,13.8-8.5c5-4.5,8.7-10,13.8-20.1
		c2.2-4.5,5.4-10.4,7-13.1c3.4-5.7,3.5-6,1.9-6c-1.8,0-4.9,4.5-13.5,19.4c-6.1,10.6-9.1,14.8-12,16.8c-2.1,1.4-4,2.5-4.2,2.3
		c-0.6-0.5,2.8-18.1,5.1-26.5c7-25.3,19.2-50.7,36.9-76.8c6.9-10.1,8.5-11.9,9.4-10.9c0.3,0.3-3.3,9.3-8,19.9
		c-8.3,18.7-9.6,22.8-7.7,22.8c1.5,0,21.5-34.4,20.3-34.8c-1.8-0.6-1.5-1.9,1-4.2c1.7-1.6,3.5-2,8.3-2c3.4,0,6.4,0.2,6.7,0.5
		c0.6,0.6-3.9,16.9-7,25.5c-1.1,3-5.5,14.3-9.7,25c-10.3,25.8-15.1,40.1-17.5,51.8c-4.9,24.6-4.8,66.6,0.4,79.3
		c1.4,3.5,2.2,6.7,1.8,7.1c-1.4,1.4-17.9,3-24.2,2.3c-31.5-3.4-60.7-24.7-69.1-50.4c-3.4-10.3-8.7-19.8-12.4-22.1
		c-4.2-2.6-11.9-2.7-16.1-0.1c-3.7,2.3-5.8,6.5-7.5,15l-1.2,6.3l-4-0.5c-7.3-1-17.9-7.1-24.3-14c-6.3-6.8-14.4-20.2-14.4-24
		c0-4.9,41.1-53.2,63.2-74.2c6.2-5.9,15.9-14.2,21.5-18.4c12.2-9.1,39.8-25.9,46.8-28.3C336.5,188.1,348.1,187.3,347.9,188.7z"/>
	<path id="path34" fill="#1E90FF" d="M508.4,193.4c3.3,1.6,14.4,11,30.6,25.7c49.9,45.2,74.1,70.9,89.5,95.2l1.7,2.7l-5.8,2.6
		c-19.1,8.4-24.6,11.6-30.7,17.7c-6.1,6.2-10.1,12.8-13.7,23.1c-3.8,10.9-9.7,22.3-11.9,22.9c-2.2,0.5-5.3-0.9-13.6-6.1
		c-6.1-3.9-13.1-5.3-20.2-4.2c-2.8,0.5-11.4,3.7-19,7.3c-7.6,3.5-18.2,7.9-23.6,9.7c-11.2,4-12.1,3.8-15.2-3.1
		c-9.5-21.1-8-20.4-40-20.4c-27,0-34.2,1-52.4,7.1c-5.6,2-10.5,3.3-10.8,3c-1.3-1.2-1.5-29.1-0.4-40c2.1-20.1,5.5-31.9,20.8-72.1
		c3.6-9.4,9-23.9,12.1-32.4c6.9-18.8,9.1-21.6,17.2-22.4c3-0.3,10.8-1.1,17.4-1.7c6.5-0.6,12.4-1.4,13.1-1.7
		c1.6-0.5,2.1,1.9,3.5,15.3c1,10.7,3.6,19.4,5.9,20.2c1.1,0.4,1.2-0.7,0.7-5.4c-0.4-3.3-1.1-11.3-1.6-17.8
		c-1-12.8-0.5-15.1,3.3-16.5c3.4-1.3,13.4-0.1,15,1.8c0.8,0.9,3.3,7.9,5.6,15.6c10.7,35.2,28.9,75.3,48.9,107.5
		c7.4,11.9,25.3,37.2,25.9,36.6c0.2-0.2-7-13.4-16-29.3c-22.8-40-35.1-63.2-40.2-76c-6.9-17.1-15.5-45.6-15.4-51.1
		c0.1-7.8,1.5-15.3,3-16.3C494.3,189.4,502.9,190.7,508.4,193.4z M451.6,223c-2.9-6.7-1.8,0.6,3.5,22.4
		c13.6,56.7,19.5,87.4,20.6,106.8c0.5,9,1.1,12.5,2.5,14.9c2.1,3.5,3,3.1,4.6-1.9c2.5-7.5,2.3-36.9-0.3-37.5c-0.6-0.1-1.1,2.9-1.3,7
		c-0.2,4-0.7,7.3-1.1,7.3c-0.5,0-1.2-2.4-1.6-5.3c-4.7-35.2-12.9-72.6-21.9-99.7C454.7,231.2,452.4,224.9,451.6,223z M503.7,275
		c-1.1,0-0.9,1.7,1.3,8.2c26.3,77.5,27.4,80.4,31,81.6c0.9,0.3,1.1-0.1,0.6-1.4c-0.4-1.1-3.4-10.6-6.7-21.2
		c-8.7-28.1-15.5-47.4-20.4-58C506.9,278.9,504.5,275,503.7,275z"/>
	<path id="path36" fill="#98FB98" d="M195.9,314c0.3,0,1.4,2.1,2.5,4.6c2.6,6.2,11.3,17.2,17.8,22.1c8.1,6.3,18.5,11,28.1,12.8
		c2,0.4,3.7,1.2,3.7,1.7c0,2.1-2.2,4.9-5.2,6.4c-3.8,2-8.8,0.9-20.3-4.5c-10.4-4.9-17.2-10.4-22.4-18.1c-5.6-8.4-7.6-15.5-6-20.9
		C194.8,315.8,195.6,314,195.9,314z"/>
	<path id="path38" fill="#98FB98" d="M674.7,318.6c3.9,5.4-1.6,20.4-11,29.5c-3,3.1-11,8.7-18.3,13.1c-17,10.1-16.4,9.9-16.4,5.2
		c0-6,1.8-8.5,7.6-10.5c12.5-4.2,22.5-13.5,31.4-29.3C672.8,318,673.6,317.1,674.7,318.6z"/>
	<path id="path40" fill="#98FB98" d="M630.3,322.1c1.7-0.1,3,2.1,4.3,7.4c0.5,2,0.3,2.3-1.5,1.8c-4.3-1.1-9.2,0.9-18.8,7.8
		c-15.5,11.2-19.8,15.9-22.7,24.9c-1.4,4.1-3,10.4-3.6,14c-1.5,8.6-4,14-7.9,17.3c-6.5,5.4-14.2,5-28.7-1.6
		c-15.3-7-12.8-7.3-34.7,3.7c-21.8,11-27.9,12.8-37,10.7c-6.7-1.5-8.4-3.2-9.7-9.9c-1.7-9.2-5-13.6-13.1-17.1
		c-8.6-3.8-29.7-5.3-43.9-3.1c-12.4,2-29.2,8.4-30.4,11.6c-0.3,0.9,0.3,4.2,1.5,7.4c4.2,11.7,2.1,13.2-20.3,13.8
		c-17.6,0.5-28.1-0.7-40.3-4.5c-30.1-9.5-49.5-28.9-57.9-57.8c-1.4-4.9-3.2-9.5-3.9-10.3c-0.7-0.7-3.1-1.5-5.3-1.8
		c-6.7-1-7.1-1.3-3.9-3.4c4.4-2.9,10.6-2.6,14.4,0.6c1.7,1.4,3.1,3,3.1,3.6c0,2,8.8,19.7,13.2,26.5c12.3,19,30.7,32.1,52.6,37.5
		c6.9,1.7,11.7,2.1,23.2,2.1c20.9-0.1,23.7-1.8,17.9-11.1c-4.3-6.9-3.7-9,3.1-12.4c7.1-3.5,18.4-7.2,28.5-9.4
		c15.3-3.3,47.6-2,54,2.2c1.3,0.8,4.7,6,7.6,11.5c5.7,10.9,8.5,13.9,13.2,13.9c1.9,0,9-3.2,18.6-8.2c28.1-14.8,26.7-14.3,35.1-14.3
		c5.8,0,8.4,0.5,11.5,2.1c13.6,7.3,16.1,8.4,19.3,8.4c2.6,0,4.3-0.9,7.2-3.8c3.1-3.1,4.5-6,8.4-18.1c2.6-7.9,5.8-16,7.1-18.1
		c4.6-7.2,11.7-12.4,25.2-18.3C622.7,324.6,629.3,322.1,630.3,322.1z"/>
	<path id="path42" fill="#98FB98" d="M629.9,335c4.2,0,7.1,1.1,7.1,2.6c0,1.9-5.5,12.8-9.2,18.2l-3,4.3l-6.1-6.7
		c-3.4-3.7-6.3-7.1-6.5-7.5c-0.2-0.5,3.1-3.1,7.4-5.9C623.9,337.2,628.4,335,629.9,335z"/>
	<path id="path44" fill="#00BFFF" d="M202.1,351.2l10.9,5.9c14.1,7.6,23.1,11.1,29.5,11.1c6.3,0.1,9.9-1.7,15.2-7.5l4.1-4.4l5,10.1
		c7.9,15.7,19.4,28,32.5,34.7c2.4,1.3,3.5,2.4,3,3.2c-0.4,0.7-4.8,6.8-9.7,13.7c-22.8,31.6-38.2,63.4-54.2,111.6l-6.7,20l-5.3,1.2
		c-6.5,1.3-11.2,0.2-25.3-6.1c-15.2-6.8-27.3-16.4-34.5-27.1c-2.8-4.2-3.3-9.4-1.5-15.8c2-7.4-3.7-13.2-22.7-23.3
		c-2.6-1.4-4.9-2.7-5.1-2.9c-0.6-0.6,3.9-9.9,9.5-19.5c8.9-15.7,16.1-25.1,42.5-55.9c8.2-9.6,14.7-17.6,14.4-17.8
		c-0.7-0.7-20.7,19.5-30.2,30.6c-16.2,18.9-31.9,41.1-43,60.7c-4.3,7.6-5.5,10.7-5.5,14c0,2.4-0.3,4.3-0.6,4.3
		c-1.7,0-14.8-11.7-17.9-16c-7.7-10.4-11.4-24.5-10-37.5l0.6-6.1l13.2-11.6c29.7-26.2,59.1-48.9,83.1-64.1L202.1,351.2z"/>
	<path id="path46" fill="#00BFFF" d="M607.9,356c2.2,0,8.7,6.9,12.6,13.4c2.2,3.7,4.9,6.9,6,7.2c2,0.5,8.8-2.1,19.8-7.7
		c3.2-1.6,7.2-2.9,9-2.9c5.8,0,30.4,13.7,50.7,28.3c20.6,14.8,47.1,35.9,49.1,39.1c3.8,6.2,1.6,11.5-8.6,20.8
		c-2.9,2.7-5.8,6.3-6.4,8.1s-1,8.1-0.9,14.2c0.1,9-0.3,12.2-2.1,17.4c-3,8.6-6.8,16.1-8.7,16.8c-0.8,0.3-3.3-0.2-5.5-1.2l-3.9-1.8
		l-7.7,3.8c-8.9,4.4-18.5,13.5-37.8,35.7c-6.5,7.5-12.2,13.5-12.7,13.2c-0.4-0.3-0.8-1.3-0.8-2.2s-0.5-3.4-1.1-5.5
		c-1.3-4.9-3.8-5.8-12.6-4.6c-10.2,1.4-18.9,6.2-33.2,18.4c-6.8,5.8-12.7,10.5-13.1,10.5c-0.4,0-1-0.8-1.3-1.8
		c-0.3-0.9-4-10-8.2-20.2c-19.1-46.4-28-80.7-30-115.5c-0.5-9.3,0.6-32.1,1.7-33c0.2-0.1,3.1-0.5,6.5-0.9l6.2-0.7l9.3,12.5
		c15.8,21.2,28.4,43.7,52.4,93.8c12.5,26.1,15.4,31.2,15.4,27.6c0-2-12-32.7-17.8-45.3c-12.2-26.9-37.2-76.7-41.6-82.8
		c-6.2-8.7-6.4-10.5-2.7-21.3c1.6-4.9,3.3-10.6,3.7-12.7c0.3-2,0.9-3.7,1.3-3.7c2.8,0,45.5,41.4,81.4,78.9
		c9.2,9.6,16.7,17,16.7,16.5c0-1.5-16.6-19.2-42.4-45.4c-50.4-51.1-51.6-52.4-51.6-56c0-2.4,1-4.2,3.9-7.1
		C605,357.7,607.3,356,607.9,356z"/>
	<path id="path48" fill="#00BFFF" d="M432.3,382.5c10.1,1.2,23.7,4.3,26.2,5.9c1.5,1,2.9,3.3,3.5,5.8c3.8,15.1,9,18.9,26.2,19.8
		l10.7,0.5l0.4,29.5c0.5,31.4,1.4,41.7,5.2,60c2.2,11,8.3,31.6,9,30.8c0.2-0.2-0.7-7.3-2.1-15.8c-5.7-36.9-5.8-38-5.9-71.5
		c0-40-1-37,16-46.7c7.8-4.4,13.1-6.8,15.1-6.8c2.3,0,5.1,1.5,10,5.3l6.9,5.3l0.7,20.2c1.8,56.4,15.1,101.2,47,159.5
		c6.2,11.2,6.9,13.1,6,15.2c-2.1,4.5-16.1,6.1-23.7,2.6c-5.2-2.3-10.2-8.1-11.1-12.6c-0.4-2.2-1.6-4.2-3-5.2
		c-3.3-2.1-17.7-2.9-24.5-1.3c-6.3,1.4-18.4,7.2-31.9,15.2c-16.5,9.9-32.4,13.4-52.1,11.7c-11.5-1-15.2-1.7-35.4-6.8
		c-30.5-7.6-35-7.6-50.8,0.7c-8.6,4.5-9,4.6-17.5,4.5c-18.6-0.2-40.5-10.7-54.1-25.9c-5.4-6.1-6.1-7.4-9.2-15.8
		c-2.4-6.5-8.7-14.1-14.8-17.8c-2-1.2-3.8-2.5-4.1-2.8c-2-2.5-21.6-4.1-30.9-2.5l-4.3,0.7l0.7-3.3c1.5-7.5,11.7-36.3,17.9-50.9
		c10.6-25,23.5-46.7,39.4-66.7c4.5-5.6,9.5-10.9,11.1-11.8c4.7-2.4,10.4-1.8,21.9,2.2c9.5,3.2,12.1,3.7,23.2,4.1
		c16.6,0.6,32.1-2.4,37.8-7.3c2.3-2,2.7-3.1,3-9.6c0.5-11,1.4-12.6,8.1-14.5c3.1-0.8,7.1-2,9-2.6c2.9-0.9,3.6-0.8,4.7,0.7
		c0.7,0.9,1.1,3.1,0.8,4.8c-0.2,1.8-1.1,9-1.9,16.2c-2.4,20.8-5,28.9-23.8,72.5c-6,14-12.5,29.3-14.4,34
		c-8.4,20.8-13.3,43.8-13.3,61.8c0,12.4,1,24.2,2,24.2c0.4,0,1-6.4,1.3-14.3c1.3-28,6.1-47.1,20.9-82.7c27-65,30.5-75.5,34.3-103.4
		c0.9-6.6,2.1-12.8,2.6-13.9C426,382,426.9,381.9,432.3,382.5z M521.1,416.2c4.2,8.4,11.4,26,17,42c9.5,26.9,17.5,57.5,28.4,108
		c1.9,9.2,4,10.6,3,2c-1.7-15-6-38.4-10.1-55.2c-9.2-37.6-32.6-101.3-37.9-103.4C517.9,408.3,517.8,409.7,521.1,416.2z M322.2,456.7
		c-1.2-2.6-0.3-5.8-7.2,25.3c-2.8,12.4-5.9,26.3-7,31c-1.7,7.2-6.8,30-8.5,37.7c-1.1,4.7,1.2,2.1,5.2-6c4.5-8.9,5.8-14.8,14.4-62.5
		C322.2,464.8,323,458.3,322.2,456.7z"/>
	<path id="path50" fill="#98FB98" d="M92.5,436.5l0.6,11c0.3,6,1.2,12.8,1.9,15c3.7,11.6,11.5,21.3,24.4,30.5c4.2,3,7.6,6,7.6,6.6
		c0,0.7,0.3,2,0.7,3c0.5,1.5,0.2,1.6-2.9,1.1c-9.7-1.5-21.4-10.2-27.2-20.2c-5.3-9-11.4-31.5-10.1-37.3c0.3-1.5,1.6-4.3,2.8-6.2
		L92.5,436.5z"/>
	<path id="path52" fill="#98FB98" d="M762.9,439c0.4,0,1.6,0.9,2.6,2c1.4,1.5,1.7,3.1,1.3,7.4c-0.4,4.6-1,6.1-4.8,10.2
		c-5.9,6.7-8.6,13.2-10.5,24.9c-3.5,22.1-11.4,38.4-22.8,46.6c-4.6,3.3-5.7,3-5.7-1.4c0-4.5-1-7.7-2.4-7.7
		c-2.6,0-17.6,10.8-24.1,17.4c-3.9,3.9-11.2,12.5-16.2,19.2c-15.9,21.1-20.4,22.7-28.7,10.5c-2.6-3.8-3.1-4.2-6-3.6
		c-10,2.2-27.6,11.9-32,17.8c-2,2.8-2,2.9-0.2,6c5.8,9.9,6.7,12.3,5.7,15c-1.3,3.5-8.7,8.2-15.4,9.8c-6.5,1.6-20.8,1.6-26.4,0
		c-6.3-1.8-9-4.7-11.6-12.6l-2.2-7l-4.6,0.1c-6.4,0.3-23.4,6.2-36.5,12.8c-22.2,11.1-40.1,15.2-63.2,14.3c-17-0.7-26.6-2.6-45.9-9.2
		c-7.3-2.5-15.5-4.9-18.2-5.2c-6.4-0.7-14.1,1.2-19,4.7c-8.6,6.3-12,7.4-21.1,7.3c-18.4-0.2-42-10.8-54.8-24.7
		c-4.8-5.2-12.6-16.8-14.8-22.1c-2.7-6.6-7.9-11.2-16.5-14.5c-10.1-3.9-19-6-25.7-6c-4.6,0-5.3-0.3-5-1.8s1.8-1.7,14.3-1.7
		c16.8,0,22,1.5,29.3,8c2.7,2.4,6.3,7.2,8.2,10.7c13.6,25.7,29.3,38.3,54,43.3c12.6,2.6,22.4,1.7,32.5-2.8
		c8.3-3.7,16.9-5.7,23.9-5.7c5,0,16,2.4,37.1,8c15.3,4.1,16.6,4.3,30.5,4.3c11.4,0,16.1-0.5,22-2.1c12.2-3.3,22.8-7.7,35-14.8
		c16.8-9.6,19.8-10.7,30.6-10.8c10.6-0.1,12.8,1,13.8,7.4c2,12.6,22.4,18.9,37.1,11.5c3.3-1.7,6.1-3.7,6.3-4.6
		c0.2-0.9-1.5-4.5-3.7-7.9c-4.9-7.6-5.3-11.9-1.6-17c6.4-8.7,21.7-17.9,36.5-21.9c4.1-1.2,7.8-2.1,8.2-2.1c1.9,0,3.8,3.5,3.8,7.3
		c0,6.5,1,7.3,5.9,4.7c6.2-3.1,11.4-8.2,21.7-21.1c9.2-11.6,14.7-17,26-25.4c6.7-5.1,9.6-5.6,12-2c2.5,3.8,5.6,3.2,9.9-1.8
		c7.5-8.6,10.2-16.9,11.5-35.4c0.5-7.3,1.5-14.3,2.1-15.5c0.7-1.3,2.9-3.8,5.1-5.6c2.1-1.9,5.6-6.5,7.8-10.3
		C760.3,442.1,762.4,439,762.9,439z"/>
	<path id="path54" fill="#98FB98" d="M155.3,488.1c6,5,7.1,7.9,5.6,15.4c-1.2,6.1-1.1,6.5,1.6,12.2c2,4,5.9,8.8,12.4,15.4
		c8.9,8.8,10.6,10,22.1,15.7c15.1,7.3,19.6,8.6,27.6,7.8l6.1-0.6l1.1,5.1c0.7,2.9,1,5.4,0.8,5.6c-0.2,0.3-4-0.1-8.3-0.7
		c-15-2.3-30.6-8.4-43-16.8c-7.3-5-18.6-17-23.3-24.8c-3.2-5.3-3.5-6.7-3.8-14.6c-0.4-7.9-0.7-9-3-11.4
		c-2.8-2.7-18.5-12.4-20.2-12.4c-2,0-0.9-1.9,1.3-2.3C138.4,480.4,149.8,483.5,155.3,488.1z"/>
	<path id="path56" fill="#00CED1" d="M145.8,515c0.6,0,3.5,4.3,6.6,9.6l5.6,9.6l-14.8,16.1c-26.9,29.5-34.3,39.2-41.3,54.2
		c-6.6,14.4-5.3,13.3,7.6-5.9c15.5-23.3,19.6-28.5,32.2-40.6c12.1-11.8,17.7-16.3,20.6-16.3c1.2,0,5.2,2.1,8.7,4.6
		c3.6,2.4,11.9,7.5,18.5,11.1c6.6,3.7,12.4,7.1,12.9,7.6s-2.8,8.7-7.9,19.7c-4.8,10.3-12.1,26.7-16.2,36.3
		c-7.3,17.3-22.3,56.3-22.3,58.1c0,0.5,0.4,0.9,1,0.9c1.9,0,6.4-8.5,12.2-22.8c10.6-26.4,23.5-49.4,41.5-73.9
		c8-11.1,9.4-12.3,14.5-12.3c6.6,0,11.2-2,15.9-7.1c3.5-3.7,5.4-4.9,7.6-4.9c3.4,0,24.2,5.7,25.9,7c0.6,0.6,3.4,4.8,6.2,9.4
		c11.9,19.4,23.7,31,41.8,40.7c7.3,3.9,9.6,5.7,10.1,7.7c0.6,2.4-0.8,23.9-4.3,64.1c-1.5,18.3-0.9,22.9,2,14.9
		c0.9-2.6,2.9-18.2,5.1-40.6c1.9-19.9,3.5-36.4,3.5-36.6c0-0.2,6.2-0.6,13.8-0.8c12.7-0.4,14.4-0.7,23.6-4.1
		c5.5-2,10.1-3.6,10.2-3.4c0.1,0.1-5.7,14.4-12.8,31.7c-31.4,76.4-34.2,86.9-34.2,126.7l-0.1,22.3h-7c-9.2,0-19.3-2.2-27.3-6
		c-7.1-3.3-29.8-18.5-35.2-23.5c-4.9-4.6-29.3-17.9-38.2-20.9c-4.2-1.4-10.7-2.9-14.6-3.2c-3.9-0.4-7.5-1-8.1-1.3
		c-1.4-0.9,1.6-13.3,7.3-29.4c6.6-18.4,8.4-21.4,20.9-34.5c15.9-16.9,24-31.4,29.7-53.6c3.3-13.2,6.8-38.6,5.3-38.6
		c-0.4,0-2.5,6.9-4.7,15.2c-11.9,47.2-14.8,53.2-41.4,84.5c-9.6,11.2-15,21.3-18.6,34.8c-1.4,4.9-3.7,13.5-5.3,19
		c-3.7,13.1-3.7,20.3-0.1,26.7c1.5,2.7,2.2,4.8,1.6,4.8c-2.7,0-32.5-15.5-42.1-22c-12.6-8.4-27.3-22-35.4-32.8
		c-7.6-10.1-14.3-22-14.3-25.3c0-1.5,3.2-8.6,7-15.8c7.6-14.2,20.3-39,20.8-40.6c0.2-0.6-1.3,0.8-3.3,3c-4.7,5.3-12.8,19-20.5,34.8
		c-3.5,7.1-6.9,13.1-7.7,13.4c-0.8,0.3-7.8-2.6-15.6-6.5c-13.1-6.4-14.8-7.6-21.8-14.9c-11.2-11.7-20.2-28.6-21.6-40.4
		c-0.5-4.2-0.1-5.8,2.5-11.1c6.7-13.4,39.5-49,78.9-85.6C138.5,520.9,145.3,515,145.8,515z"/>
	<path id="path58" fill="#00CED1" d="M709.6,534c1.9,0,13.3,7.8,18.6,12.8c7.6,7.1,65,76,68.8,82.5c4.5,7.9,3.6,13.3-5.2,29
		l-6.1,10.8l-5.6-8.2c-30.5-44.6-56.5-72.7-84.6-91.2c-4.9-3.2-9.1-6-9.3-6.2c-0.8-0.8,2.7-5.7,12.2-17.3
		C703.9,539.5,709,534,709.6,534z"/>
	<path id="path60" fill="#228B22" d="M216.3,568.7c-0.4,1.9-24.3,34.5-24.3,33.2c0-2.5,10.7-23.2,14.5-28.2c2-2.7,4.7-5.2,5.8-5.7
		C214.8,567,216.6,567.3,216.3,568.7z"/>
	<path id="path62" fill="#00CED1" d="M680.5,570c2.8,0,13.8,6.3,24.8,14c12.8,9,34.5,31,52,52.7c8.1,10,14.7,18.6,14.7,19.1
		s-1,1.3-2.2,1.9c-1.3,0.6-7.2,4.7-13.3,9.1c-20.8,15.1-35.7,31.1-46.3,49.5l-5,8.8l-9.2-10.8c-22-25.8-38.4-56-52.3-95.8
		c-9.4-27-10.2-30.6-8.8-37.1c1.2-5.1,3.9-9.4,5.9-9.4c0.4,0,4.1,2,8.2,4.5c10.4,6.2,12.8,6.1,22.2-1
		C675.2,572.5,679.4,570,680.5,570z"/>
	<path id="path64" fill="#00CED1" d="M625.9,582c0.4,0,3.3,7.8,6.4,17.2c14.3,42.4,30.4,76.1,49.2,102.8
		c10.4,14.7,29.6,36.2,31.1,34.7c0.3-0.3-0.3-1.9-1.5-3.5c-2.6-3.8-2.6-4.1,0.2-3.5c5.4,1.4,6.1,4.9,2.3,12.8
		c-5.6,12.1-24.6,24.1-43.7,27.5c-8.3,1.5-10,0.3-12.9-9.2c-4.7-16.1-12.3-34.9-23.5-58.3c-9.7-20.3-16.5-35.6-20.2-45
		c-5.1-13.1-10.4-30.4-10.6-34.8l-0.2-3.9l6.7-2.5c13.9-5.2,18.2-12.3,13.9-23.1c-2.1-5.4-2.1-6.2,0.7-9.5
		C624.6,582.8,625.6,582,625.9,582z"/>
	<path id="path66" fill="#00CED1" d="M554.7,599c2.1,0,4.3,3.1,4.3,6.1c0,5.3,2.5,8.6,7.7,10.3c9,2.9,21.1,5.6,25.1,5.6h3.9l2.1,8.7
		c3.3,14,7.5,24.5,20.9,51.5c6.9,13.9,13.8,28.7,15.5,32.8c4.2,10.4,12.8,35.1,12.8,36.5c0,0.7-1.5,1.6-3.2,1.9
		c-4.7,0.9-15.3,6.1-21,10.2c-2.7,2-12.4,10.6-21.6,19.1c-22.3,20.6-34.1,28.3-43.7,28.3c-3.4,0-7.4-3.8-10.2-9.6
		c-1.7-3.6-3.7-6.1-6.2-7.6c-3.4-2.2-4.5-2.3-18.6-2c-25.6,0.5-40.6,3.5-51,10.4c-6.2,4.1-8.5,8-8.5,14.4c0,6.3,0.3,6.2-18,7
		c-21.5,1-29.6-1.7-53.5-17.6c-18-12-26.3-15.8-37.1-17.3l-8.4-1.1l-0.6-3.4c-0.4-1.9-0.4-10.9-0.1-20.1
		c0.9-28.9,7.9-57.3,21.4-86.6c5.2-11.2,29-59.4,29.8-60.3c0.2-0.2,4.9,1,10.6,2.7c19.2,5.5,30.9,7.3,50.9,7.8
		c20.1,0.6,32.9-0.7,50-5l9-2.3l3,9.7c15.4,49.7,26.6,110.3,28.7,154.2c0.6,14.5,1.5,16.4,4.2,9.2c1.3-3.2,1.3-6.2,0.3-19.9
		c-1.8-25.6-4.9-44-20.2-120.9l-7.7-38.8l4.4-2.6c2.4-1.4,8.7-4.5,14.1-6.9C549.1,601,554,599,554.7,599z"/>
	<path id="path68" fill="#BDB76B" d="M44,631.5l5,8.9c2.8,4.9,5,9.3,5,9.8c0,2.1,4.4,9.3,8.2,13.4c6.4,6.9,13,11.3,29.3,19.4l15,7.5
		l5.3,10c7.6,14.2,15.2,24.3,26.4,35c14.9,14.4,35.7,27,68.7,41.9c4.5,2,8.1,4,7.8,4.2c-0.8,0.8-18.5-4.1-29.4-8.2
		c-28.6-10.7-50.1-26-65.2-46.4c-3.1-4.1-8.9-13.7-12.9-21.3L99.8,692l-5.6-1.6c-12.3-3.4-18-5.6-24.1-9.2
		c-7.4-4.3-15.4-12.6-19.4-19.9c-3.3-6.2-6.7-18.9-6.7-25.2C44,636.1,44,631.5,44,631.5z"/>
	<path id="path70" fill="#BDB76B" d="M802.3,636.9l2.3,2.2c3.6,3.4,3.7,6.1,0.3,14.9c-3.8,9.9-9.5,18.5-16.1,24.5
		c-4.9,4.4-9.6,7.6-8.5,5.8c0.2-0.4,3.1-5.1,6.2-10.3c8.1-13.3,12.9-23.7,14.5-30.9L802.3,636.9z"/>
	<path id="path72" fill="#BDB76B" d="M776.9,661.9c5,5,4.5,14.4-0.9,20.4c-2.5,2.7-3.1,3-4,1.7c-2.2-3.3-2.3-6.3-0.2-10.6
		c1.2-2.4,2-4.4,1.8-4.4s-1.9,0.7-3.8,1.4c-13.6,5.7-46.8,43.1-46.8,52.7c0,1.5,1.1,5.1,2.5,8.1c3.2,6.7,3.1,8-0.4,15.3
		c-3.6,7.5-8.3,13-16.4,19c-14.7,11.1-36.4,18.2-47.7,15.7c-3.4-0.8-3.5-1-3.2-4.8c0.2-2.1,0.5-4,0.7-4.2s1.5,0.4,2.9,1.3
		c3.7,2.5,9.2,1.6,20.4-3.3c13.1-5.7,19.5-9.7,26.8-16.9c7.3-7.3,13-17.7,12-21.8c-0.7-2.7-5.9-6.5-8.8-6.5c-2.5,0-2.3-0.6,2.7-9.4
		c10.7-18.8,25.8-33.8,52.4-51.9C773,659.5,774.3,659.3,776.9,661.9z"/>
	<path id="path74" fill="#BDB76B" d="M239.7,754.9c4.3,2.3,16.1,10.2,26.3,17.7c10.2,7.5,21.1,14.9,24.3,16.5
		c7.5,3.9,19.5,7.8,39.1,12.9c8.8,2.3,16.4,4.4,16.9,4.7c1.4,0.9-2.4,4.2-6.1,5.3c-4.4,1.2-15-0.8-26.5-5.1
		c-9.5-3.4-10.8-4.2-40.7-23.3c-12.9-8.3-27.1-16.9-31.6-19.1c-10.2-5.2-22.7-9.3-30.4-10.2c-3.3-0.3-6-0.9-6-1.3
		c0-0.9,3.1-3.6,5-4.3C215.5,746.7,229.5,749.6,239.7,754.9z"/>
	<path id="path76" fill="#BDB76B" d="M642.2,756c3.5,0,8,2,7.5,3.4c-0.2,0.6-5.5,4.6-11.7,8.9c-15.9,11-25.6,18.7-39.5,31.7
		c-11.9,11.1-20.9,18.1-27.4,21.4c-3.6,1.9-16.3,3.3-20.5,2.2c-5.2-1.3-9.4-6.3-11.7-13.9c-3-10.4-4-11.7-9.4-11.7
		c-4.4,0-24.6,4.9-46.5,11.2l-11.5,3.3l0.3,6.4c0.2,5.5-0.1,6.8-2,8.8c-5.5,5.9-26.8,8.9-41.7,5.9c-15.2-3.1-27.9-9-48.2-22.7
		c-13.4-8.9-16.8-10.1-26.1-9.2c-7.2,0.6-7,0.8-8.2-5c-0.5-2.3-0.1-3,2.6-4.7c3.8-2.3,9.5-2.6,14.1-0.6c1.8,0.7,10.6,6.1,19.5,12
		c23.6,15.6,37.3,21.6,53,23.2c6.8,0.7,29.1-1.3,31-2.8c0.7-0.7,1.2-3.7,1.2-8.2c0-6.2,0.3-7.5,2.3-9.3c4.4-4.1,28.5-10.6,45.2-12.3
		c17.4-1.8,23.9-0.3,27.5,6.3c4.9,8.9,10.1,12.7,17.5,12.7c8.1,0,13.2-3.4,42-27.5c23.6-19.8,31.5-26.1,35.1-28
		C638.2,756.7,640.7,756,642.2,756z"/>
	<path id="path78" fill="#BDB76B" d="M208.8,757.5c0.8,0.3,2,0.5,2.7,0.5s4.6,3,8.5,6.6c5.7,5.2,7.7,6.5,9.6,6.1
		c3.8-0.7,4.5,1.2,2.7,7.3c-0.8,3-1.7,5.7-1.9,5.9c-0.6,0.7-11.3-6.8-16.2-11.2c-5.1-4.8-9.9-13.6-7.9-14.9
		C207,757.4,208.1,757.2,208.8,757.5z"/>
	<path d="M490.1,15.2c11.4,5.3,13.8,10.6,12,26.4c-1.3,11.6-4.2,22.2-10.2,37.4c-2.2,5.8-6.3,16.8-9.1,24.5
		c-4.7,12.8-5.1,14.9-5.5,25c-0.8,18.2,1.7,23.4,17.5,35.6c9.9,7.6,10.5,8,13.4,7c8.5-3,19.6,0,31,8.2c7.9,5.7,38.8,32.8,61.8,54.2
		c35.2,32.8,74.1,74,79.1,83.7c4.2,8.2,1.5,16.1-10.3,29.7c-8.2,9.4-10.3,12-9.7,12.4c0.2,0.2,6.9,4.3,14.9,9.2
		c33.5,20.4,58.1,37.8,79.8,56.3c13.4,11.4,18.2,17.5,18.2,23.2c0,4.9-3.9,12.4-10.1,19.3l-5.2,5.8l-1.4,11.7
		c-2.7,21.3-9.3,36.3-21.1,47.9l-6.5,6.4l3,3.2c39.8,42.9,54,59.8,68.3,81.2c9.5,14.2,13,20.8,13,24.2c0,3.1-15.3,29.9-20.7,36.3
		c-3.6,4.3-11,9-14.2,9c-3.8,0-8.6-3.3-11.7-8l-2.7-4.1l-4.6,5.2c-25.4,28.9-27.6,32.8-26.9,48.1c0.6,12.6-0.5,15-11.4,26
		c-26.1,26.3-59,33.8-79.4,18.3c-1.8-1.4-3.6-2.5-3.9-2.5c-0.4,0-6.2,5.1-12.9,11.3c-22.4,20.9-34.5,29.9-50,37.3
		c-8.6,4.1-17.4,5.4-24.3,3.5c-5.2-1.4-13.3-8.6-17.5-15.6c-1.7-3-4.2-5.8-5.4-6.4c-1.7-0.8-6.9,0.2-23.6,4.5
		c-24.9,6.4-25.8,7-25.8,16c0,7.8-1,9-8.8,11.3c-18.7,5.3-28.1,5.6-45.2,1.1c-13.4-3.5-25.2-9.1-46.7-21.9
		c-8.8-5.3-16.3-9.1-17.8-9.1s-4.1,1.1-5.8,2.4c-8.2,6.1-14.2,7.2-27.9,5.1c-17.7-2.7-31.5-8.8-52.2-23.4
		c-14.9-10.4-31.2-21.1-32.4-21.1c-0.5,0-1.9,3.5-3.2,7.7c-3.7,12.1-4.5,13.3-8.6,13.3c-1.9,0-7.9-1.1-13.3-2.5
		c-54.1-13.7-91.4-40.1-115-81.3c-2.8-4.9-5.7-9.5-6.4-10.1c-0.8-0.6-4.5-2-8.3-3.2c-23-7.1-38.4-21.8-47.4-45.1
		c-1.7-4.2-3-9.6-3-11.9c0-11.7,20.9-43,46.9-70.2c10.8-11.2,55-53.2,63.1-59.9l4.4-3.6l-2.8-3.6c-1.5-2-3.9-3.9-5.3-4.2
		c-2.9-0.8-4.9,1.1-10.5,9.5c-3.4,5.1-5.9,5.3-14.3,1.2c-20.1-9.7-35.5-34.4-35.5-57c0-10.2,2.1-14.4,11.3-21.8
		c4-3.1,14.2-11.7,22.7-18.9c32.5-27.5,57.3-46,77.3-57.6c2.6-1.6,5-3.4,5.3-4.2c0.3-0.8-1.8-5.5-4.7-10.6
		c-8.6-15.1-8.5-15.2,13.3-44.5c18-24.1,32.7-41.2,49.4-57.5c29.5-28.8,55.4-44.2,87.2-52c11.3-2.7,11.5-3,22.6-23.6l7.9-14.7
		l-2.7-20.3c-3.2-24.5-5.4-31.9-14.2-47.9c-11.3-20.6-14.5-33.8-11-45.8c3-10.5,10.8-15.7,28.5-19.4c14.5-3,28.1-1.2,44.7,5.7
		c2.8,1.2,3.8,1,10.6-1.8c4.1-1.7,10.6-4,14.4-5.1C458,6.3,474.9,8.2,490.1,15.2z M375.3,14.5c-8.5,1.9-18.2,7.2-21.1,11.5
		c-2.3,3.3-2.4,4.1-1.9,15c0.3,6.3,1.3,14.2,2.2,17.5s6.4,15.8,12.3,27.8l10.6,21.8l4.5-0.6c2.6-0.4,5.1-0.8,5.8-1
		c1-0.3-3.1-12.4-10.2-29.8c-0.5-1.1-0.3-1.7,0.7-1.7c2.2,0,7.4,9.6,10.6,19.5c3.4,10.4,6.2,17.5,6.9,17.5c0.3,0,2.8-2,5.5-4.5
		c5-4.5,12.2-7.5,17.8-7.5c4.5,0,14.3,3,21.8,6.7c4,2,7.5,3.4,7.7,3.1c0.2-0.2,0.9-4.6,1.5-9.8c2.1-18.4,4.8-26.9,10.1-31.5
		c2.1-1.9,2.2-1.9,1.5-0.1c-1.4,4-9.6,38-9.2,38.4c0.7,0.6,23-1.9,23.7-2.6c1.3-1.6,14.1-37.5,16.6-46.7c2-7.5,2.6-12.5,2.7-20.2
		l0.1-10.2l-3.4-3.5c-12-12.3-40.7-13.5-63.7-2.6l-6.4,3.1l-8.2-3.7c-4.5-2-10.4-4.3-13.2-5C392.5,13.3,382.2,12.9,375.3,14.5z
		 M410,105.2c-4.8,2.5-7.5,6.6-6.5,9.8c0.6,1.9,0.8,1.9,3.3-0.8c3.9-4.2,8.7-6.3,15.2-6.9c7.2-0.7,9.8,0.7,14.7,7.6
		c4.5,6.5,6.3,7.4,6.3,3.3c0-4.4-3.9-9.4-9.5-12.2C426.3,102.4,416.1,102.1,410,105.2z M451.8,114.7c-3.4,3.2-3.4,5-0.7,14.9
		c2.1,7.6,2,14.4-0.2,18.5c-1.1,2.1,0.7,2.6,11.2,3.5c11.5,1,11.3,1.3,10.6-21.5c-0.4-16.2-0.7-18.6-2.3-19.8
		C466.4,107.4,457.1,109.6,451.8,114.7z M410.7,113c-3.1,2.7-3.1,2.9-1.8,6.5c0.7,2,1.1,3.8,0.9,4s-2.3-0.1-4.6-0.7
		c-2.4-0.6-4.4-0.9-4.6-0.7c-0.2,0.2-0.7,3.4-1.1,7.2l-0.7,6.7l3.7,1.6c2,0.8,3.8,1.4,3.9,1.2s0.8-2.2,1.5-4.6
		c1.5-5.5,5.7-10,9.8-10.8c2.8-0.6,3.8-0.1,6.8,2.9c3.5,3.5,3.6,3.7,2.1,6.6c-2,3.7-3.1,4.4-5.6,3.6c-2.4-0.8-2.6-3.5-0.4-7.6
		c1.8-3.5,1.4-4.5-1.3-3.1c-6.8,3.7-9.1,12.5-4.4,16.3c3,2.4,5.7,1.7,9.3-2.4c2.6-2.9,2.8-3,4.6-1.4c2.4,2.2,4,2.1,8-0.3
		c5.3-3.3,6-6,2.7-11.6c-4.2-7.1-9.2-12.1-13.8-13.8C417.5,109.7,414.2,109.8,410.7,113z M375.4,122.6c-1,8.3,2,20.9,6.2,25.5
		c2.3,2.6,3.1,2.4,5.4-1.4c1.7-2.8,2-5,2-17.9c0-14-0.1-14.8-2.2-16.2C381.2,108.7,376.7,112.7,375.4,122.6z M444.3,134.9
		c-1.4,3.7-6.4,6.3-16.8,8.6c-10.2,2.3-14,2.3-16.5,0c-1.8-1.7-2.1-1.7-4.5-0.1c-1.7,1.1-2.5,2.6-2.5,4.4c0,3.2,3.3,9,5.6,9.9
		c0.9,0.3,4.5-0.8,8.1-2.6c6-3,6.5-3,8.8-1.5c3.7,2.4,6.5,1.2,13.9-6c6.3-6,6.6-6.6,6.6-11C447,131.3,445.9,130.7,444.3,134.9z
		 M396,150.1c-0.4,0-15.1,19.5-15.8,21c-0.3,0.6,23.2,11.9,24.8,11.9c0.9,0,9.4-15.9,8.8-16.5c-0.2-0.1-2.4-1.2-5.1-2.3
		c-3.8-1.7-5.4-3.3-8.5-8.1C398.2,152.7,396.3,150,396,150.1z M440.5,152c-3.7,4.1-8.2,6.1-11.8,5.5c-4.2-0.8-13,3-10.6,4.6
		c4.2,2.7,16.3-0.6,21.9-6c2.2-2.1,4-4.3,4-4.9C444,149.4,442.5,149.8,440.5,152z M378.9,154c-1.2,0-22,34-21.4,35
		c1,1.6,15.2,9,17.3,9c1.6,0,3.2-2.2,7.1-9.7c2.8-5.4,4.9-9.7,4.8-9.8c-0.1,0-2.4-1.1-5.2-2.5c-6.9-3.4-6.9-5.2,0-13.3l5.5-6.6
		l-3.7-1C381.2,154.5,379.2,154,378.9,154z M447.2,157.2c-5.5,3.9-5.2,7,1.7,17.6c2.7,4.1,4,5.2,6,5.2c2.7-0.1,19.3-9,19.8-10.7
		c0.6-1.7-8-10.5-12.2-12.4C457,154.3,451.2,154.5,447.2,157.2z M477.1,158c-1.7,0-3.1,0.3-3.1,0.6s2.3,3.1,5.1,6.2
		c3.7,4.2,4.7,5.9,3.7,6.5c-0.7,0.4-3.7,2.2-6.6,3.8l-5.3,3l6.2,7c5.8,6.5,6.3,6.9,8.3,5.6c1.1-0.8,4.5-2.9,7.4-4.6
		c2.8-1.8,5.2-3.5,5.2-3.8c0-2.4-7.6-13.9-12.2-18.6C481.4,159.2,479.5,158,477.1,158z M412.3,181c-3,4-5.7,6.6-7.1,6.8
		s-4.4-1.2-7.9-3.7c-3.2-2.2-6-3.7-6.4-3.3s-3,5.1-5.8,10.4c-5.9,10.9-6.5,9.7,5.9,12.4c10.1,2.1,33.2,2.9,45.7,1.5
		c7.9-0.8,12.5-2,20.3-5.2c7.5-3,11.6-4,15.6-4c2.9,0,5.8,0.2,6.3,0.5c0.5,0.4,1.2,0.3,1.5-0.2s-2.7-4.4-6.7-8.7l-7.2-7.8l-5,2.8
		c-7.3,4.1-9.2,3.3-16.1-6.5c-3-4.4-6.7-8.9-8.1-10C431,161,424.1,165.2,412.3,181z M517.5,177.1c-12.2,0.3-12.4,1.7-0.8,7.9
		c19.1,10.2,36.3,23,36.3,27c0,1.2-4.5-1.5-19.2-11.7c-5.8-4-13-8.4-16-9.7c-5.8-2.5-11.8-4-11.8-2.8c0.1,0.4,5.4,4.4,11.8,8.9
		c40.2,28.3,69.3,56.8,104.4,102.4c10.3,13.4,11.8,16.3,16.7,31l2.2,6.6l-2.6,6.4c-1.5,3.5-3.2,7-3.7,7.7c-2,2.4,0,2.3,5-0.2
		c3.9-2,7.2-5.2,14.7-14.3c5.3-6.5,10.8-13.7,12.1-16c2.3-3.9,2.4-4.4,1-7c-4.3-8.2-36-42.8-62.1-67.7c-23-22-56.7-52.5-64-58.1
		c-2.7-2.1-8.1-5.3-12-7.1C524.2,177.8,521.3,177,517.5,177.1z M331.5,189.8c-7,2.4-34.6,19.2-46.8,28.3
		c-5.6,4.2-15.3,12.5-21.5,18.4c-22.1,21-63.2,69.3-63.2,74.2c0,3.8,8.1,17.2,14.4,24c6.4,6.9,17,13,24.3,14l4,0.5l1.2-6.3
		c1.7-8.5,3.8-12.7,7.5-15c4.2-2.6,11.9-2.5,16.1,0.1c3.7,2.3,9,11.8,12.4,22.1c5.8,17.7,19,31.4,41,42.4c8.1,4,18.3,6.9,28.1,8
		c6.3,0.7,22.8-0.9,24.2-2.3c0.4-0.4-0.4-3.6-1.8-7.1c-5.2-12.7-5.3-54.7-0.4-79.3c2.4-11.7,7.2-26,17.5-51.8
		c4.2-10.7,8.6-22,9.7-25c3.1-8.6,7.6-24.9,7-25.5c-0.3-0.3-3.3-0.5-6.7-0.5c-4.8,0-6.6,0.4-8.3,2c-2.5,2.3-2.8,3.6-1,4.2
		c1.2,0.4-18.8,34.8-20.3,34.8c-1.9,0-0.6-4.1,7.7-22.8c4.7-10.6,8.3-19.6,8-19.9c-0.9-1-2.5,0.8-9.4,10.9
		c-17.7,26.1-29.9,51.5-36.9,76.8c-2.3,8.4-5.7,26-5.1,26.5c0.2,0.2,2.1-0.9,4.2-2.3c2.9-2,5.9-6.2,12-16.8
		c8.6-14.9,11.7-19.4,13.5-19.4c1.6,0,1.5,0.3-1.9,6c-1.6,2.7-4.8,8.6-7,13.1c-5.1,10.1-8.8,15.6-13.8,20.1c-4.4,4-13,9.3-13.8,8.5
		c-1.2-1.1,4.9-34.6,8-44.1c4.5-13.6,8.6-22.3,25.4-54.3c7.8-14.9,14.2-27.4,14.2-27.7c0-1.4-6.5-0.4-14.2,2
		c-30.2,9.5-56.4,32.5-82.7,72.4c-5.3,8-13,20.3-17.1,27.3c-4.1,6.9-8.1,12.7-8.8,12.7c-3.4,0,22.7-44.3,36.2-61.4
		c18.6-23.7,42.6-44,66-55.8c7.4-3.7,7.9-4.1,6.1-5.4c-3.5-2.6-11.4-1.7-18.5,2.1c-17,9.1-21,10.9-22,9.9c-0.8-0.8,3.3-3.7,13.9-10
		c8.2-4.9,15-9.2,15-9.7C348.1,187.3,336.5,188.1,331.5,189.8z M492.1,190.9c-1.5,1-2.9,8.5-3,16.3c-0.1,5.5,8.5,34,15.4,51.1
		c5.1,12.8,17.4,36,40.2,76c9,15.9,16.2,29.1,16,29.3c-0.6,0.6-18.5-24.7-25.9-36.6c-20-32.2-38.2-72.3-48.9-107.5
		c-2.3-7.7-4.8-14.7-5.6-15.6c-1.6-1.9-11.6-3.1-15-1.8c-3.8,1.4-4.3,3.7-3.3,16.5c0.5,6.5,1.2,14.5,1.6,17.8
		c0.5,4.7,0.4,5.8-0.7,5.4c-2.3-0.8-4.9-9.5-5.9-20.2c-1.4-13.4-1.9-15.8-3.5-15.3c-0.7,0.3-6.6,1.1-13.1,1.7
		c-6.6,0.6-14.4,1.4-17.4,1.7c-8.1,0.8-10.3,3.6-17.2,22.4c-3.1,8.5-8.5,23-12.1,32.4c-15.3,40.2-18.7,52-20.8,72.1
		c-1.1,10.9-0.9,38.8,0.4,40c0.3,0.3,5.2-1,10.8-3c18.2-6.1,25.4-7.1,52.4-7.1c32,0,30.5-0.7,40,20.4c3.1,6.9,4,7.1,15.2,3.1
		c5.4-1.8,16-6.2,23.6-9.7c7.6-3.6,16.2-6.8,19-7.3c7.1-1.1,14.1,0.3,20.2,4.2c8.3,5.2,11.4,6.6,13.6,6.1c2.2-0.6,8.1-12,11.9-22.9
		c3.6-10.3,7.6-16.9,13.7-23.1c6.1-6.1,11.6-9.3,30.7-17.7l5.8-2.6l-1.7-2.7c-15.4-24.3-39.6-50-89.5-95.2
		c-16.2-14.7-27.3-24.1-30.6-25.7C502.9,190.7,494.3,189.4,492.1,190.9z M195.9,314c-0.3,0-1.1,1.8-1.8,4.1
		c-1.6,5.4,0.4,12.5,6,20.9c5.2,7.7,12,13.2,22.4,18.1c11.5,5.4,16.5,6.5,20.3,4.5c3-1.5,5.2-4.3,5.2-6.4c0-0.5-1.7-1.3-3.7-1.7
		c-9.6-1.8-20-6.5-28.1-12.8c-6.5-4.9-15.2-15.9-17.8-22.1C197.3,316.1,196.2,314,195.9,314z M674.7,318.6c-1.1-1.5-1.9-0.6-6.7,8
		c-8.9,15.8-18.9,25.1-31.4,29.3c-5.8,2-7.6,4.5-7.6,10.5c0,4.7-0.6,4.9,16.4-5.2c7.3-4.4,15.3-10,18.3-13.1
		c6.6-6.4,12.3-17.5,12.3-23.6C676,322.2,675.4,319.6,674.7,318.6z M630.3,322.1c-1,0-7.6,2.5-14.6,5.6
		c-13.5,5.9-20.6,11.1-25.2,18.3c-1.3,2.1-4.5,10.2-7.1,18.1c-3.9,12.1-5.3,15-8.4,18.1c-2.9,2.9-4.6,3.8-7.2,3.8
		c-3.2,0-5.7-1.1-19.3-8.4c-3.1-1.6-5.7-2.1-11.5-2.1c-8.4,0-7-0.5-35.1,14.3c-9.6,5-16.7,8.2-18.6,8.2c-4.7,0-7.5-3-13.2-13.9
		c-2.9-5.5-6.3-10.7-7.6-11.5c-6.4-4.2-38.7-5.5-54-2.2c-10.1,2.2-21.4,5.9-28.5,9.4c-6.8,3.4-7.4,5.5-3.1,12.4
		c5.8,9.3,3,11-17.9,11.1c-11.5,0-16.3-0.4-23.2-2.1c-21.9-5.4-40.3-18.5-52.6-37.5c-4.4-6.8-13.2-24.5-13.2-26.5
		c0-0.6-1.4-2.2-3.1-3.6c-3.8-3.2-10-3.5-14.4-0.6c-3.2,2.1-2.8,2.4,3.9,3.4c2.2,0.3,4.6,1.1,5.3,1.8c0.7,0.8,2.5,5.4,3.9,10.3
		c8.4,28.9,27.8,48.3,57.9,57.8c12.2,3.8,22.7,5,40.3,4.5c22.4-0.6,24.5-2.1,20.3-13.8c-1.2-3.2-1.8-6.5-1.5-7.4
		c1.2-3.2,18-9.6,30.4-11.6c14.2-2.2,35.3-0.7,43.9,3.1c8.1,3.5,11.4,7.9,13.1,17.1c1.3,6.7,3,8.4,9.7,9.9c9.1,2.1,15.2,0.3,37-10.7
		c21.9-11,19.4-10.7,34.7-3.7c14.5,6.6,22.2,7,28.7,1.6c3.9-3.3,6.4-8.7,7.9-17.3c0.6-3.6,2.2-9.9,3.6-14c2.9-9,7.2-13.7,22.7-24.9
		c9.6-6.9,14.5-8.9,18.8-7.8c1.8,0.5,2,0.2,1.5-1.8c-0.3-1.3-1.1-3.6-1.6-5S631.3,322,630.3,322.1z M619.6,340
		c-4.3,2.8-7.6,5.4-7.4,5.9c0.2,0.4,3.1,3.8,6.5,7.5l6.1,6.7l3-4.3c3.7-5.4,9.2-16.3,9.2-18.2c0-0.7-1-1.6-2.2-2
		C629.9,334.3,627,335.2,619.6,340z M213,357.1l-10.9-5.9l-8.7,5.5c-24,15.2-53.4,37.9-83.1,64.1l-13.2,11.6l-0.6,6.1
		c-1.4,13,2.3,27.1,10,37.5c3.1,4.3,16.2,16,17.9,16c0.3,0,0.6-1.9,0.6-4.3c0-3.3,1.2-6.4,5.5-14c11.1-19.6,26.8-41.8,43-60.7
		c9.5-11.1,29.5-31.3,30.2-30.6c0.3,0.2-6.2,8.2-14.4,17.8c-26.4,30.8-33.6,40.2-42.5,55.9c-5.6,9.6-10.1,18.9-9.5,19.5
		c0.2,0.2,2.5,1.5,5.1,2.9c19,10.1,24.7,15.9,22.7,23.3c-1.8,6.4-1.3,11.6,1.5,15.8c7.2,10.7,19.3,20.3,34.5,27.1
		c14.1,6.3,18.8,7.4,25.3,6.1l5.3-1.2l6.7-20c16-48.2,31.4-80,54.2-111.6c4.9-6.9,9.3-13,9.7-13.7c0.5-0.8-0.6-1.9-3-3.2
		c-13.1-6.7-24.6-19-32.5-34.7l-5-10.1l-4.1,4.4c-2.3,2.5-5.4,5.2-7.1,6c-4.4,2.3-12.1,1.9-19.9-1.1
		C227,364.2,219.1,360.4,213,357.1z M607.9,356c-0.6,0-2.9,1.7-5,3.9c-2.9,2.9-3.9,4.7-3.9,7.1c0,3.6,1.2,4.9,51.6,56
		c25.8,26.2,42.4,43.9,42.4,45.4c0,0.5-7.5-6.9-16.7-16.5c-35.9-37.5-78.6-78.9-81.4-78.9c-0.4,0-1,1.7-1.3,3.7
		c-0.4,2.1-2.1,7.8-3.7,12.7c-3.7,10.8-3.5,12.6,2.7,21.3c4.4,6.1,29.4,55.9,41.6,82.8c5.8,12.6,17.8,43.3,17.8,45.3
		c0,3.6-2.9-1.5-15.4-27.6c-24-50.1-36.6-72.6-52.4-93.8l-9.3-12.5l-6.2,0.7c-3.4,0.4-6.3,0.8-6.5,0.9c-1.1,0.9-2.2,23.7-1.7,33
		c2,34.8,10.9,69.1,30,115.5c4.2,10.2,7.9,19.3,8.2,20.2c0.3,1,0.9,1.8,1.3,1.8c0.4,0,6.3-4.7,13.1-10.5c14.3-12.2,23-17,33.2-18.4
		c8.8-1.2,11.3-0.3,12.6,4.6c0.6,2.1,1.1,4.6,1.1,5.5s0.4,1.9,0.8,2.2c0.5,0.3,6.2-5.7,12.7-13.2c19.3-22.2,28.9-31.3,37.8-35.7
		l7.7-3.8l3.9,1.8c2.2,1,4.7,1.5,5.5,1.2c1.9-0.7,5.7-8.2,8.7-16.8c1.8-5.2,2.2-8.4,2.1-17.4c-0.1-6.1,0.3-12.4,0.9-14.2
		s3.5-5.4,6.4-8.1c10.2-9.3,12.4-14.6,8.6-20.8c-2-3.2-28.5-24.3-49.1-39.1c-20.3-14.6-44.9-28.3-50.7-28.3c-1.8,0-5.8,1.3-9,2.9
		c-11,5.6-17.8,8.2-19.8,7.7c-1.1-0.3-3.8-3.5-6-7.2c-2.2-3.6-5.7-8.1-7.8-10C610.7,357.5,608.5,356,607.9,356z M432.3,382.5
		c-7.7-0.9-7.6-0.9-9.8,15.1c-3.8,27.9-7.3,38.4-34.3,103.4c-14.8,35.6-19.6,54.7-20.9,82.7c-0.3,7.9-0.9,14.3-1.3,14.3
		c-1,0-2-11.8-2-24.2c0-18,4.9-41,13.3-61.8c1.9-4.7,8.4-20,14.4-34c18.8-43.6,21.4-51.7,23.8-72.5c0.8-7.2,1.7-14.4,1.9-16.2
		c0.3-1.7-0.1-3.9-0.8-4.8c-1.1-1.5-1.8-1.6-4.7-0.7c-1.9,0.6-5.9,1.8-9,2.6c-6.7,1.9-7.6,3.5-8.1,14.5c-0.3,6.5-0.7,7.6-3,9.6
		c-5.7,4.9-21.2,7.9-37.8,7.3c-11.1-0.4-13.7-0.9-23.2-4.1c-11.5-4-17.2-4.6-21.9-2.2c-1.6,0.9-6.6,6.2-11.1,11.8
		c-15.9,20-28.8,41.7-39.4,66.7c-6.2,14.6-16.4,43.4-17.9,50.9l-0.7,3.3l4.3-0.7c9.3-1.6,28.9,0,30.9,2.5c0.3,0.3,2.1,1.6,4.1,2.8
		c6.1,3.7,12.4,11.3,14.8,17.8c3.1,8.4,3.8,9.7,9.2,15.8c5.5,6.1,16,14.2,23.4,17.9c9.9,4.9,21.4,7.9,30.7,8c8.5,0.1,8.9,0,17.5-4.5
		c15.8-8.3,20.3-8.3,50.8-0.7c20.2,5.1,23.9,5.8,35.4,6.8c19.7,1.7,35.6-1.8,52.1-11.7c13.5-8,25.6-13.8,31.9-15.2
		c6.8-1.6,21.2-0.8,24.5,1.3c1.4,1,2.6,3,3,5.2c0.9,4.5,5.9,10.3,11.1,12.6c7.6,3.5,21.6,1.9,23.7-2.6c0.9-2.1,0.2-4-6-15.2
		c-31.9-58.3-45.2-103.1-47-159.5l-0.7-20.2l-6.9-5.3c-4.9-3.8-7.7-5.3-10-5.3c-2,0-7.3,2.4-15.1,6.8c-17,9.7-16,6.7-16,46.7
		c0.1,33.5,0.2,34.6,5.9,71.5c1.4,8.5,2.3,15.6,2.1,15.8c-0.7,0.8-6.8-19.8-9-30.8c-3.8-18.3-4.7-28.6-5.2-60l-0.4-29.5l-10.7-0.5
		c-17.2-0.9-22.4-4.7-26.2-19.8c-1.4-5.4-3.7-6.9-14.7-9.1C442.4,384.1,435.7,382.9,432.3,382.5z M93.1,447.5l-0.6-11l-2.2,3.5
		c-1.2,1.9-2.5,4.7-2.8,6.2c-1.3,5.8,4.8,28.3,10.1,37.3c5.8,10,17.5,18.7,27.2,20.2c3.1,0.5,3.4,0.4,2.9-1.1c-0.4-1-0.7-2.3-0.7-3
		c0-0.6-3.4-3.6-7.6-6.6c-12.9-9.2-20.7-18.9-24.4-30.5C94.3,460.3,93.4,453.5,93.1,447.5z M762.9,439c-0.5,0-2.6,3.1-4.9,6.9
		c-2.2,3.8-5.7,8.4-7.8,10.3c-2.2,1.8-4.4,4.3-5.1,5.6c-0.6,1.2-1.6,8.2-2.1,15.5c-1.3,18.5-4,26.8-11.5,35.4
		c-4.3,5-7.4,5.6-9.9,1.8c-2.4-3.6-5.3-3.1-12,2c-11.3,8.4-16.8,13.8-26,25.4c-10.3,12.9-15.5,18-21.7,21.1
		c-4.9,2.6-5.9,1.8-5.9-4.7c0-3.8-1.9-7.3-3.8-7.3c-0.4,0-4.1,0.9-8.2,2.1c-14.8,4-30.1,13.2-36.5,21.9c-3.7,5.1-3.3,9.4,1.6,17
		c2.2,3.4,3.9,7,3.7,7.9s-3,2.9-6.3,4.6c-5,2.5-7.1,2.9-13.5,2.9c-12.8,0.1-22.2-5.7-23.6-14.4c-1-6.4-3.2-7.5-13.8-7.4
		c-10.8,0.1-13.8,1.2-30.6,10.8c-12.2,7.1-22.8,11.5-35,14.8c-5.9,1.6-10.6,2.1-22,2.1c-13.9,0-15.2-0.2-30.5-4.3
		c-21.1-5.6-32.1-8-37.1-8c-7,0-15.6,2-23.9,5.7c-10.1,4.5-19.9,5.4-32.5,2.8c-24.7-5-40.4-17.6-54-43.3c-1.9-3.5-5.5-8.3-8.2-10.7
		c-7.3-6.5-12.5-8-29.3-8c-12.5,0-14,0.2-14.3,1.7s0.4,1.8,5,1.8c6.7,0,15.6,2.1,25.7,6c8.6,3.3,13.8,7.9,16.5,14.5
		c2.2,5.3,10,16.9,14.8,22.1c12.8,13.9,36.4,24.5,54.8,24.7c9.1,0.1,12.5-1,21.1-7.3c4.9-3.5,12.6-5.4,19-4.7
		c2.7,0.3,10.9,2.7,18.2,5.2c19.3,6.6,28.9,8.5,45.9,9.2c23.1,0.9,41-3.2,63.2-14.3c13.1-6.6,30.1-12.5,36.5-12.8l4.6-0.1l2.2,7
		c2.6,7.9,5.3,10.8,11.6,12.6c5.6,1.6,19.9,1.6,26.4,0c6.7-1.6,14.1-6.3,15.4-9.8c1-2.7,0.1-5.1-5.7-15c-1.8-3.1-1.8-3.2,0.2-6
		c4.4-5.9,22-15.6,32-17.8c2.9-0.6,3.4-0.2,6,3.6c8.3,12.2,12.8,10.6,28.7-10.5c5-6.7,12.3-15.3,16.2-19.2
		c6.5-6.6,21.5-17.4,24.1-17.4c1.4,0,2.4,3.2,2.4,7.7c0,4.4,1.1,4.7,5.7,1.4c11.4-8.2,19.3-24.5,22.8-46.6
		c1.9-11.7,4.6-18.2,10.5-24.9c3.8-4.1,4.4-5.6,4.8-10.2c0.4-4.3,0.1-5.9-1.3-7.4C764.5,439.9,763.3,439,762.9,439z M130,483.1
		c0,0.5,0.4,0.9,1,0.9c1.7,0,17.4,9.7,20.2,12.4c2.3,2.4,2.6,3.5,3,11.4c0.3,7.9,0.6,9.3,3.8,14.6c4.7,7.8,16,19.8,23.3,24.8
		c12.4,8.4,28,14.5,43,16.8c4.3,0.6,8.1,1,8.3,0.7c0.2-0.2-0.1-2.7-0.8-5.6l-1.1-5.1l-6.1,0.6c-8,0.8-12.5-0.5-27.6-7.8
		c-11.5-5.7-13.2-6.9-22.1-15.7c-6.5-6.6-10.4-11.4-12.4-15.4c-2.7-5.7-2.8-6.1-1.6-12.2c1.1-5.4,1.1-6.7-0.3-9.3
		c-2.2-4.2-8.2-8.9-13.6-10.7C139.2,481,130,480.7,130,483.1z M145.8,515c-3.3,0-64.3,60.5-79.6,79c-13.7,16.5-17.7,23.8-16.9,30.9
		c1.4,11.8,10.4,28.7,21.6,40.4c7,7.3,8.7,8.5,21.8,14.9c7.8,3.9,14.8,6.8,15.6,6.5c0.8-0.3,4.2-6.3,7.7-13.4
		c7.7-15.8,15.8-29.5,20.5-34.8c2-2.2,3.5-3.6,3.3-3c-0.5,1.6-13.2,26.4-20.8,40.6c-3.8,7.2-7,14.3-7,15.8c0,3.3,6.7,15.2,14.3,25.3
		c8.1,10.8,22.8,24.4,35.4,32.8c9.6,6.5,39.4,22,42.1,22c0.6,0-0.1-2.1-1.6-4.8c-3.6-6.4-3.6-13.6,0.1-26.7c1.6-5.5,3.9-14.1,5.3-19
		c3.6-13.5,9-23.6,18.6-34.8c26.6-31.3,29.5-37.3,41.4-84.5c2.2-8.3,4.3-15.2,4.7-15.2c1.5,0-2,25.4-5.3,38.6
		c-5.7,22.2-13.8,36.7-29.7,53.6c-12.5,13.1-14.3,16.1-20.9,34.5c-5.7,16.1-8.7,28.5-7.3,29.4c0.6,0.3,4.2,0.9,8.1,1.3
		c3.9,0.3,10.4,1.8,14.6,3.2c8.9,3,33.3,16.3,38.2,20.9c5.4,5,28.1,20.2,35.2,23.5c8,3.8,18.1,6,27.3,6h7l0.1-22.3
		c0-39.8,2.8-50.3,34.2-126.7c7.1-17.3,12.9-31.6,12.8-31.7c-0.1-0.2-4.7,1.4-10.2,3.4c-9.2,3.4-10.9,3.7-23.6,4.1
		c-7.6,0.2-13.8,0.6-13.8,0.8s-1.6,16.7-3.5,36.6c-2.2,22.4-4.2,38-5.1,40.6c-2.9,8-3.5,3.4-2-14.9c3.5-40.2,4.9-61.7,4.3-64.1
		c-0.5-2-2.8-3.8-10.1-7.7c-18.1-9.7-29.9-21.3-41.8-40.7c-2.8-4.6-5.6-8.8-6.2-9.4c-1.7-1.3-22.5-7-25.9-7c-2.2,0-4.1,1.2-7.6,4.9
		c-4.7,5.1-9.3,7.1-15.9,7.1c-5.1,0-6.5,1.2-14.5,12.3c-18,24.5-30.9,47.5-41.5,73.9c-5.8,14.3-10.3,22.8-12.2,22.8
		c-0.6,0-1-0.4-1-0.9c0-1.8,15-40.8,22.3-58.1c4.1-9.6,11.4-26,16.2-36.3c5.1-11,8.4-19.2,7.9-19.7s-6.3-3.9-12.9-7.6
		c-6.6-3.6-14.9-8.7-18.5-11.1c-3.5-2.5-7.5-4.6-8.7-4.6c-2.9,0-8.5,4.5-20.6,16.3c-12.6,12.1-16.7,17.3-32.2,40.6
		c-12.9,19.2-14.2,20.3-7.6,5.9c7-15,14.4-24.7,41.3-54.2l14.8-16.1l-5.6-9.6C149.3,519.3,146.4,515,145.8,515z M709.6,534
		c-0.6,0-5.7,5.5-11.2,12.2c-9.5,11.6-13,16.5-12.2,17.3c0.2,0.2,4.4,3,9.3,6.2c28.1,18.5,54.1,46.6,84.6,91.2l5.6,8.2l6.1-10.8
		c8.8-15.7,9.7-21.1,5.2-29c-1.8-3.1-28-35.2-51.6-63.3c-14-16.7-19.8-22.3-28.5-28C713.5,535.8,710.2,534,709.6,534z M215.5,567.4
		c-2.2-0.6-5.5,1.7-9,6.3c-3.8,5-14.5,25.7-14.5,28.2c0,1.3,23.9-31.3,24.3-33.2C216.4,568.2,216.1,567.6,215.5,567.4z M680.5,570
		c-1.1,0-5.3,2.5-9.3,5.5c-9.4,7.1-11.8,7.2-22.2,1c-4.1-2.5-7.8-4.5-8.2-4.5c-2,0-4.7,4.3-5.9,9.4c-1.4,6.5-0.6,10.1,8.8,37.1
		c13.9,39.8,30.3,70,52.3,95.8l9.2,10.8l5-8.8c10.6-18.4,25.5-34.4,46.3-49.5c6.1-4.4,12-8.5,13.3-9.1c1.2-0.6,2.2-1.4,2.2-1.9
		s-6.6-9.1-14.7-19.1c-24.8-30.7-47.4-51.6-68-62.9C685.6,571.7,681.6,570,680.5,570z M625.9,582c-0.6,0-3.2,2.8-4.3,4.7
		c-0.3,0.6,0.3,3.5,1.5,6.5c4.3,10.8,0,17.9-13.9,23.1l-6.7,2.5l0.2,3.9c0.2,4.4,5.5,21.7,10.6,34.8c3.7,9.4,10.5,24.7,20.2,45
		c11.2,23.4,18.8,42.2,23.5,58.3c2.9,9.5,4.6,10.7,12.9,9.2c19.1-3.4,38.1-15.4,43.7-27.5c3.8-7.9,3.1-11.4-2.3-12.8
		c-2.8-0.6-2.8-0.3-0.2,3.5c1.2,1.6,1.8,3.2,1.5,3.5c-1.5,1.5-20.7-20-31.1-34.7c-18.8-26.7-34.9-60.4-49.2-102.8
		C629.2,589.8,626.3,582,625.9,582z M554.7,599c-1.6,0-19.6,8.2-25,11.3l-4.4,2.6l7.7,38.8c15.3,76.9,18.4,95.3,20.2,120.9
		c1,13.7,1,16.7-0.3,19.9c-2.7,7.2-3.6,5.3-4.2-9.2c-2.1-43.9-13.3-104.5-28.7-154.2l-3-9.7l-9,2.3c-17.1,4.3-29.9,5.6-50,5
		c-20-0.5-31.7-2.3-50.9-7.8c-5.7-1.7-10.4-2.9-10.6-2.7c-0.8,0.9-24.6,49.1-29.8,60.3c-13.5,29.3-20.5,57.7-21.4,86.6
		c-0.3,9.2-0.3,18.2,0.1,20.1l0.6,3.4l8.4,1.1c10.8,1.5,19.1,5.3,37.1,17.3c23.9,15.9,32,18.6,53.5,17.6c18.3-0.8,18-0.7,18-7
		c0-6.4,2.3-10.3,8.5-14.4c10.4-6.9,25.4-9.9,51-10.4c14.1-0.3,15.2-0.2,18.6,2c2.5,1.5,4.5,4,6.2,7.6c2.8,5.8,6.8,9.6,10.2,9.6
		c9.6,0,21.4-7.7,43.7-28.3c9.2-8.5,18.9-17.1,21.6-19.1c5.7-4.1,16.3-9.3,21-10.2c1.7-0.3,3.2-1.2,3.2-1.9
		c0-1.4-8.6-26.1-12.8-36.5c-1.7-4.1-8.6-18.9-15.5-32.8c-13.4-27-17.6-37.5-20.9-51.5l-2.1-8.7h-3.9c-4,0-16.1-2.7-25.1-5.6
		c-5.2-1.7-7.7-5-7.7-10.3c0-1.6-0.7-3.7-1.6-4.5C556.6,599.7,555.3,599,554.7,599z M49,640.4l-5-8.9v4.6c0,6.3,3.4,19,6.7,25.2
		c4,7.3,12,15.6,19.4,19.9c6.1,3.6,11.8,5.8,24.1,9.2l5.6,1.6l7.4,13.7c4,7.6,9.8,17.2,12.9,21.3c15.1,20.4,36.6,35.7,65.2,46.4
		c10.9,4.1,28.6,9,29.4,8.2c0.3-0.2-3.3-2.2-7.8-4.2c-33-14.9-53.8-27.5-68.7-41.9c-11.2-10.7-18.8-20.8-26.4-35l-5.3-10l-15-7.5
		c-16.3-8.1-22.9-12.5-29.3-19.4c-3.8-4.1-8.2-11.3-8.2-13.4C54,649.7,51.8,645.3,49,640.4z M804.6,639.1l-2.3-2.2l-1.3,6.2
		c-1.6,7.2-6.4,17.6-14.5,30.9c-3.1,5.2-6,9.9-6.2,10.3c-1.1,1.8,3.6-1.4,8.5-5.8c2.8-2.5,6.9-7.3,9.1-10.6
		c5-7.5,10.3-21.1,9.5-24.3C807.1,642.3,805.8,640.2,804.6,639.1z M766.9,663.7c-26.6,18.1-41.7,33.1-52.4,51.9
		c-5,8.8-5.2,9.4-2.7,9.4c2.9,0,8.1,3.8,8.8,6.5c1,4.1-4.7,14.5-12,21.8c-7.3,7.2-13.7,11.2-26.8,16.9c-11.2,4.9-16.7,5.8-20.4,3.3
		c-1.4-0.9-2.7-1.5-2.9-1.3s-0.5,2.1-0.7,4.2c-0.3,3.8-0.2,4,3.2,4.8c11.3,2.5,33-4.6,47.7-15.7c8.1-6,12.8-11.5,16.4-19
		c3.5-7.3,3.6-8.6,0.4-15.3c-1.4-3-2.5-6.6-2.5-8.1c0-9.6,33.2-47,46.8-52.7c1.9-0.7,3.6-1.4,3.8-1.4s-0.6,2-1.8,4.4
		c-2.1,4.3-2,7.3,0.2,10.6c0.9,1.3,1.5,1,4-1.7c5.4-6,5.9-15.4,0.9-20.4C774.3,659.3,773,659.5,766.9,663.7z M206.8,750.8
		c-2.8,2.4-2.2,2.9,4.2,3.5c7.7,0.9,20.2,5,30.4,10.2c4.5,2.2,18.7,10.8,31.6,19.1c29.9,19.1,31.2,19.9,40.7,23.3
		c11.5,4.3,22.1,6.3,26.5,5.1c3.7-1.1,7.5-4.4,6.1-5.3c-0.5-0.3-8.1-2.4-16.9-4.7c-19.6-5.1-31.6-9-39.1-12.9
		c-3.2-1.6-14.1-9-24.3-16.5c-20.9-15.3-30.9-21.1-40.8-23.1C215.1,747.3,210.4,747.6,206.8,750.8z M642.2,756
		c-5.1,0-8.2,2.3-40.7,29.5c-28.8,24.1-33.9,27.5-42,27.5c-7.4,0-12.6-3.8-17.5-12.7c-3.6-6.6-10.1-8.1-27.5-6.3
		c-16.7,1.7-40.8,8.2-45.2,12.3c-2,1.8-2.3,3.1-2.3,9.3c0,4.5-0.5,7.5-1.2,8.2c-1.9,1.5-24.2,3.5-31,2.8c-15.7-1.6-29.4-7.6-53-23.2
		c-8.9-5.9-17.7-11.3-19.5-12c-4.6-2-10.3-1.7-14.1,0.6c-2.7,1.7-3.1,2.4-2.6,4.7c1.2,5.8,1,5.6,8.2,5c9.3-0.9,12.7,0.3,26.1,9.2
		c20.3,13.7,33,19.6,48.2,22.7c14.9,3,36.2,0,41.7-5.9c1.9-2,2.2-3.3,2-8.8l-0.3-6.4l11.5-3.3c21.9-6.3,42.1-11.2,46.5-11.2
		c5.4,0,6.4,1.3,9.4,11.7c2.3,7.6,6.5,12.6,11.7,13.9c4.2,1.1,16.9-0.3,20.5-2.2c6.5-3.3,15.5-10.3,27.4-21.4
		c13.9-13,23.6-20.7,39.5-31.7c6.2-4.3,11.5-8.3,11.7-8.9c0.2-0.6-0.8-1.6-2.2-2.2C646.1,756.5,643.7,756,642.2,756z M208.8,757.5
		c-0.7-0.3-1.8-0.1-2.5,0.3c-2,1.3,2.8,10.1,7.9,14.9c4.9,4.4,15.6,11.9,16.2,11.2c0.2-0.2,1.1-2.9,1.9-5.9c1.8-6.1,1.1-8-2.7-7.3
		c-1.9,0.4-3.9-0.9-9.6-6.1c-3.9-3.6-7.8-6.6-8.5-6.6S209.6,757.8,208.8,757.5z"/>
	<path d="M451.6,223c4.4,10.3,12,35.6,16.5,55.4c2.7,11.9,8.7,45.4,10.4,58.3c0.4,2.9,1.1,5.3,1.6,5.3c0.4,0,0.9-3.3,1.1-7.3
		c0.2-4.1,0.7-7.1,1.3-7c2.6,0.6,2.8,30,0.3,37.5c-1.6,5-2.5,5.4-4.6,1.9c-1.4-2.4-2-5.9-2.5-14.9c-1.1-19.4-7-50.1-20.6-106.8
		c-2.8-11.6-5.1-22.1-5.1-23.5C450.1,219.8,450.3,219.9,451.6,223z"/>
	<path d="M503.7,275c3.2,0,13.6,26.6,26.2,67.2c3.3,10.6,6.3,20.1,6.7,21.2c0.5,1.3,0.3,1.7-0.6,1.4c-3.6-1.2-4.7-4.1-31-81.6
		C502.8,276.7,502.6,275,503.7,275z"/>
	<path d="M521.5,409.6c5.3,2.1,28.7,65.8,37.9,103.4c4.1,16.8,8.4,40.2,10.1,55.2c1,8.6-1.1,7.2-3-2c-10.9-50.5-18.9-81.1-28.4-108
		c-5.6-16-12.8-33.6-17-42c-1.7-3.3-2.7-6.2-2.4-6.6C519.5,408.9,519.5,408.9,521.5,409.6z"/>
	<path d="M322.2,456.7c0.8,1.6,0,8.1-3.1,25.5c-8.6,47.7-9.9,53.6-14.4,62.5c-4,8.1-6.3,10.7-5.2,6c1.7-7.7,6.8-30.5,8.5-37.7
		c1.1-4.7,4.2-18.6,7-31s5.3-23.6,5.6-25C321.2,454.5,321.2,454.5,322.2,456.7z"/>
</g>
</svg>
