<?xml version="1.0" encoding="utf-8"?>
<!-- Generator: Adobe Illustrator 21.0.0, SVG Export Plug-In . SVG Version: 6.00 Build 0)  -->
<svg version="1.1"
	 id="svg58" inkscape:version="0.92.2 5c3e80d, 2017-08-06" sodipodi:docname="68 #40651.svg" xmlns:cc="http://creativecommons.org/ns#" xmlns:dc="http://purl.org/dc/elements/1.1/" xmlns:inkscape="http://www.inkscape.org/namespaces/inkscape" xmlns:rdf="http://www.w3.org/1999/02/22-rdf-syntax-ns#" xmlns:sodipodi="http://sodipodi.sourceforge.net/DTD/sodipodi-0.dtd" xmlns:svg="http://www.w3.org/2000/svg"
	 xmlns="http://www.w3.org/2000/svg" xmlns:xlink="http://www.w3.org/1999/xlink" x="0px" y="0px" viewBox="0 0 850 850"
	 style="enable-background:new 0 0 850 850;" xml:space="preserve">
<style type="text/css">
	.st0{fill:none;}
	.st1{fill:#9900FF;}
	.st2{fill:#9966FF;}
	.st3{fill:#9999FF;}
	.st4{fill:#CC99FF;}
	.st5{fill:#CCCCFF;}
	.st6{fill:#CCFFFF;}
	.st7{fill:#FFCCFF;}
</style>
<sodipodi:namedview  bordercolor="#666666" borderopacity="1" gridtolerance="10" guidetolerance="10" id="namedview60" inkscape:current-layer="svg58" inkscape:cx="835.32556" inkscape:cy="409.64507" inkscape:pageopacity="0" inkscape:pageshadow="2" inkscape:window-height="978" inkscape:window-maximized="1" inkscape:window-width="1920" inkscape:window-x="0" inkscape:window-y="1" inkscape:zoom="0.41647059" objecttolerance="10" pagecolor="#ffffff" showgrid="false">
	</sodipodi:namedview>
<g id="g56" transform="translate(0.000000,0.000000) scale(1.00000,1.00000)">
	<path id="path4" class="st0" d="M0,0h425h425v425v425H425H0V425V0z M471,7c-0.8,0.5-2.7,1.1-4.2,1.5c-5.2,1-6.2,4.3-6.9,21.5
		c-0.9,24.2-5.5,36.8-19.3,53c-5.5,6.5-31.4,31-32.7,31c-0.4,0-3.4-1.8-6.7-4c-5.9-4-11.6-11.1-12.9-16.1
		c-0.3-1.3-0.6-14.1-0.8-28.4c-0.1-22.7-0.4-27-2.2-33.9c-1.1-4.3-2.9-8.6-3.9-9.6c-3-2.8-10.2-4.2-13.3-2.5
		c-4.7,2.4-5.8,4.6-7.3,15.5c-1.8,12.8-5.2,21.3-15.4,38.4c-4.1,6.9-8.9,16.3-10.6,20.8c-2.9,7.5-3.2,9.4-3.2,18.8
		c0.1,9.2,0.4,11.5,3.1,18.5c1.6,4.4,5.1,11.4,7.7,15.5c2.5,4.1,6.1,11.1,7.8,15.5c3,7.5,3.2,9,3.6,22.7
		c0.6,24.2-1.9,29.8-17.1,37.1c-5.2,2.5-11.1,6-13.1,7.7c-3.9,3.5-8.2,10.8-9,15.5c-1.2,6.4-10.7,16.2-30.3,31.2
		c-37.3,28.5-67.2,59.1-88.1,90c-3.4,5-6.2,9.3-6.2,9.6c0,0.2-2.3,4.4-5.1,9.3c-7.1,12.4-40.1,78.7-40.4,81.4c0,0.3-1.5,4.1-3.2,8.5
		c-4.7,12.2-13,39.5-13.8,45.4c-0.2,1.5-1.2,7.2-2.3,12.7c-2.6,12.6-3,16.4-4.2,41.4c-0.6,11.3-1.9,29.9-3,41.5
		c-1,11.5-2.2,32.2-2.6,46c-0.4,16.7-1.1,26.1-2,28.2c-0.9,2.2-2.7,4-6.1,5.7c-8.2,4.2-13.3,10.9-13.3,17.4c0,4.8,5.2,11.8,15,20.2
		s13.2,12.5,18,22.1c3.6,7,6.4,9.4,19.7,16.5c5.8,3.1,12,7,13.7,8.5c5.8,5,17.3,8.8,34,11c24.8,3.3,27.5,4.4,38.8,14.6
		c4.9,4.5,8.4,6.3,12.1,6.3c1.2,0,7.8,2.7,14.6,6c18.7,9.1,23.2,10.1,51.6,11.1c13.2,0.5,26.8,1.1,30.2,1.5
		c6.9,0.7,14.8-1.3,17.8-4.6c2.3-2.5,3-2.5,11.7,0.4c20.1,6.6,53,14.6,60.1,14.6c2.6,0,4.7,0.4,4.7,1s4,1,10,1c5.5,0,10-0.4,10-0.9
		c0-0.4,4.2-1.1,9.3-1.4c11.3-0.7,34.5-5.5,45.2-9.3c10.5-3.7,19.8-3.6,44.2,0.5c10,1.7,20.1,3.1,22.5,3.1c2.6,0,10-2,18.8-5.1
		c8-2.7,16.1-5.4,18.1-5.9c1.9-0.5,4.9-1.6,6.5-2.5c1.6-0.8,3.4-1.5,4.1-1.5c0.6,0,4-2.4,7.5-5.4c3.5-2.9,8.1-6.3,10.3-7.4
		c5.7-2.9,15.9-8.3,23.5-12.5c3.6-2,8.4-4.6,10.7-5.8c2.2-1.2,6.3-3.9,9-6c8.6-6.8,13-9.1,19.6-9.9c7.6-1,8.9-1.5,15.2-5.9
		c6.8-4.7,23.4-20.4,26.7-25.2c7.3-10.8,12.3-35.1,8.7-42.2c-2.9-5.7-4.8-6.7-12.5-6.7h-7.2l-1.1-7.5c-0.6-4.2-1.1-8.8-1.1-10.3
		c0.1-3.2-5.1-42.6-8.7-67.2c-1.4-9.6-2.6-18.2-2.5-19c0-0.8-1.3-9.2-3-18.5c-1.6-9.4-3-17.9-3-19c0-2.9-5.4-31.1-8.3-44
		c-1.4-6.1-2.7-12.1-3-13.4c-1.8-9.6-10.8-36.3-18.5-55.1c-7.8-19.1-24.9-52.3-35.5-69c-1.2-1.9-4.8-7.8-8-13
		c-7.6-12.5-28.7-44.1-34-51c-7-9-32.3-33-42.8-40.5c-5.4-3.9-15-10.2-21.3-14.1c-9.5-5.9-13.8-9.5-26.4-22.1
		c-10.2-10.2-17.1-16.1-21.2-18.4c-3.3-1.9-7.4-4.6-9.2-6.1c-2.9-2.5-3.1-3-3-9.5c0.1-3.8,1.2-10.5,2.4-14.8
		c1.2-4.4,2.3-8.7,2.4-9.5c0.2-1.6,0.9-3.4,5.2-13.6c2.5-5.9,10.5-19,19.2-31.4c2.4-3.4,4.1-6.8,3.8-7.6c-0.5-1.4-4.6-1.9-11.2-1.5
		c-4.4,0.3-9.9-2.2-12.1-5.5c-1.7-2.6-1.8-5.9-1.8-44.9c-0.1-41.9-0.5-48.5-3.7-55.3c-0.8-1.6-2.6-3.1-4.5-3.7
		C483.5,8,482,7.2,482,6.8C482,5.7,472.9,5.9,471,7z"/>
	<path id="path6" class="st1" d="M473.6,14c2.3,0,2.4,0.3,2,3.2c-0.6,3.6-2.5,27.3-2.5,29.8c0.1,0.8-0.2,9.1-0.6,18.5
		c-0.4,10.6-0.3,19.3,0.3,23.2c1.5,8.5,7.3,20,13,25.6c4.4,4.4,15,10.7,17.9,10.7c0.7,0,1.3,0.1,1.3,0.2c0,0.2-3.4,7.2-7.5,15.5
		c-4.1,8.4-7.5,15.5-7.5,15.8c0,0.4-1,2.7-2.1,5.3c-4.4,9.5-6,17.4-6.9,32.9c-1.1,20.1-2.3,22.9-11.2,27.2
		c-27,13.2-48.8,31.9-68.2,58.4c-2.8,3.7-5.2,6.7-5.5,6.7c-0.3-0.1-1.8-1.7-3.3-3.8c-1.5-2-6.6-8.9-11.3-15.2
		c-9.6-12.9-21.9-29.5-25.2-34.2c-3-4.1-2.9-6.8,0.9-16.9c3.1-8.4,3.1-8.5,3.2-27.9l0.1-19.5l-3.3-9.5c-1.8-5.2-5.8-13.9-8.7-19.2
		c-8.1-14.4-9.8-20.4-9.2-30.8c0.5-8.4,2-13.4,7-23.5c1.3-2.8,5-10.4,8.2-17.1l5.8-12l3.6,0.9l3.7,1l0.2,6.7
		c0.4,13.5,6.1,25.9,18.9,40.6c4.3,5,9.4,11.1,11.3,13.5c1.8,2.4,3.7,4.8,4.1,5.2c0.8,1.1,29.2-21.6,38-30.3
		c13.5-13.5,22.5-30.8,25.8-49.5c0.6-3.3,1.1-10.8,1.2-16.7c0.1-9,0.4-11,2.1-12.7C470.2,14.9,472.2,14,473.6,14z"/>
	<path id="path8" class="st1" d="M483.4,32c1.8,0,2.5,0.7,3,3.1c0.9,4.8,0.5,24.3-0.7,35.4c-1.2,9.7-1.3,10-3.7,10
		c-2.3,0-2.5-0.4-3-5.5c-0.7-7.4,0.4-40.2,1.4-41.8C480.8,32.6,482.2,32,483.4,32z"/>
	<path id="path10" class="st1" d="M379.1,43c1.8,0,1.9,1,1.9,17.6v17.5l-2.2-0.3c-2-0.3-2.4-1.1-3.1-6.8c-0.7-6.2-0.3-17.7,0.9-24.8
		C377.1,43.9,377.8,43,379.1,43z"/>
	<path id="path12" class="st2" d="M507.8,226.5c8.5,9.2,10.3,19.8,5.8,33.6c-4.4,13.9-11.7,24.3-25.4,36.2
		c-9.6,8.4-25,16.4-49.7,25.8c-18.4,6.9-31.6,14-42.1,22.6c-2.3,1.8-4.5,3.3-5,3.3s-3.9-3-7.4-6.6c-3.6-3.6-16.4-15.5-28.6-26.5
		c-28.1-25.5-33.5-32.5-35.5-46.5c-0.9-6.2-0.8-9.7,0.7-18.9c1.3-7.8,8.8-16,17.9-19.4c7.4-2.8,8.1-2.7,10.7,1.3
		c2.8,4.1,14.5,20.8,23.8,34.1c3.9,5.5,9.7,13.8,13,18.5c7.3,10.5,9.8,13.6,10.2,13c0.3-0.3,2.6-3.7,5.3-7.5
		c7.4-10.6,15.2-20.3,21.4-26.9c10.2-10.6,31.5-26.6,43.6-32.6c2.2-1.1,8.1-4.2,13-7C493.3,215.5,498.3,216.1,507.8,226.5z"/>
	<path id="path14" class="st3" d="M524.4,248.5c1.2,0.7,3.9,2.4,6.1,3.7c35,20.4,59.5,40.7,78,64.7c8.5,11,15.6,25.6,19.8,40.6
		c2.5,9.3,3.1,13.2,3.3,24.8c0.4,12.9,0.2,14.1-2,18.5c-3,5.8-5.5,8.2-12.6,11.8c-8.2,4.1-17.2,4-26.1-0.3
		c-12.2-6-27.6-22.7-33.6-36.4c-3.4-7.7-18.5-31.9-27.8-44.5c-4.8-6.5-14.1-17.3-20.6-23.8l-11.7-11.9l3.4-4.5
		c4.3-5.7,11.2-13.2,12.1-13.2c0.4,0,2.5,1.7,4.8,3.9c6.9,6.7,27.8,23,28.7,22.5c2.1-1.3-0.2-3.9-15.2-17.3
		c-8.8-7.8-16-14.6-16-14.9c0-0.4,0.7-2.6,1.5-4.9c0.8-2.2,1.6-5.2,1.9-6.6c0.2-1.4,1.2-5,2.2-8
		C522.2,247.4,522.4,247.2,524.4,248.5z"/>
	<path id="path16" class="st3" d="M313,265.7c1.7,1.9,4,9.7,4,13.4c0,6-2.2,9.3-14,21.4c-6.9,7.1-13.3,14.9-17.9,22l-7.2,11l5.6-6
		c3.2-3.3,12.7-13.4,21.3-22.5l15.6-16.5l5.6,6c10.4,11.2,10.2,9.2,1.7,17.9c-7.2,7.3-24.7,29.4-24.7,31.1c0,0.4-1.1,2.3-2.5,4.1
		s-2.5,3.5-2.5,3.7c0,0.3-1.9,3.8-4.2,7.9c-4.3,7.6-20,40.8-19.2,40.8c0.2,0-0.5,1.8-1.6,4.1c-1.2,2.2-4.3,9.5-6.9,16.2
		c-8.2,20.9-16.7,31.7-30.2,38.4c-8.8,4.3-20.8,6.1-29.2,4.4c-3.4-0.7-7.3-1.9-8.7-2.6c-2.9-1.5-14.1-13.1-13.8-14.3
		c0.1-0.4-0.6-3.1-1.5-6.1c-2.3-7.3-2.1-20.4,0.2-31c4.5-19.8,21.6-46,50.5-77.4c16.7-18.1,56.6-52.3,74.5-63.8
		C310.4,266.3,312.7,265.3,313,265.7z"/>
	<path id="path18" class="st3" d="M497.5,303c6.6,4.1,30.3,32.5,41.2,49.5c6,9.3,14.7,25.5,13.7,25.5c-0.3,0,0,1,0.9,2.3
		c1.5,2.3,7.7,20.5,9.6,28.2c0.5,2.2,1,10.1,1.1,17.5c0,10.9-0.3,14.6-1.8,19.1c-7.3,20.9-18.2,32-34.6,35
		c-18.3,3.4-34.6-6.3-44.3-26.2c-6.6-13.6-14.3-38.5-15.9-51.3c-0.2-2.1-1.6-8.6-3-14.5c-1.4-5.8-2.7-11.8-2.9-13.3
		c-0.2-1.5-1.3-5.7-2.5-9.4c-1.1-3.7-2.2-7.9-2.5-9.4c-0.3-1.5-1.6-5.8-3.1-9.6c-3.1-8.2-3.3-9.2-4.1-16.5c-0.5-5.3-0.4-5.6,2.7-8.2
		c1.7-1.5,3.8-2.7,4.6-2.7s4.2-1.1,7.5-2.6c5.8-2.4,6.2-2.4,7.5-0.7c0.7,1,1.4,2.1,1.4,2.5c0,0.7,11.9,25.6,21.5,45.3
		c2.5,4.9,4.5,8.3,4.5,7.5c0-2.9-5-20-7-24c-1.1-2.1-2-4.4-2-4.9c0-0.6-3.6-7.6-8-15.7c-4.5-8-8-14.7-7.8-14.8c0.2-0.1,2-1.4,4.1-3
		c2.1-1.5,5.7-3.8,8-5.2C491.4,300.5,493.3,300.4,497.5,303z"/>
	<path id="path20" class="st3" d="M336.9,306.2c4.8,2.3,14.4,10,15.7,12.6c1.8,3.8,1.7,4.3-5.5,19.4c-2.3,4.7-4.1,8.9-4.1,9.2
		c0,0.3-1.1,2.9-2.4,5.8c-1.3,2.9-4.5,10.7-7.1,17.3c-2.6,6.6-5.1,12.4-5.6,12.9c-0.5,0.6-0.9,1.8-0.9,2.9c0,3.5,3.2,1.3,4.7-3.3
		c0.8-2.5,1.9-5,2.5-5.7c0.5-0.6,1.8-3.3,2.8-6c1.7-4.6,12.4-29.4,15.4-35.8c0.8-1.7,2.4-5.4,3.7-8.3c1.2-2.9,2.5-5.1,2.9-5
		c3.1,1.4,24.5,29.5,25.2,33.2c0.3,1.4,0.1,4.8-0.3,7.4c-0.5,2.6-1.2,7.2-1.4,10.2c-0.3,3-1.6,11.8-3,19.5c-1.3,7.7-2.9,17.1-3.4,21
		c-0.6,3.8-1.8,10.8-2.6,15.5c-0.9,4.7-1.8,10.8-2.1,13.5c-0.4,4.3-4.6,25.7-5.7,29c-0.2,0.5-0.7,2.1-1.1,3.4
		c-2.7,8-12.3,18.6-20.1,22.1c-8.4,3.7-11.5,4.3-22.4,3.7c-14.9-0.8-29.2-6.3-35.5-13.8c-10.7-12.7-16.3-42.7-12.5-67.1
		c2.6-16.5,11.6-38.4,23.2-56.1c3.1-4.8,5.7-9,5.7-9.4c0-0.3,2.1-3.5,4.7-7.2c2.6-3.6,6.8-9.6,9.3-13.3c2.5-3.6,7.8-11.4,11.9-17.3
		C332.9,310.7,336.5,306,336.9,306.2z"/>
	<path id="path22" class="st3" d="M441.5,326.1c0.6,0,3.2,6.8,5.8,15.2c2.7,8.3,5.3,16.2,5.7,17.3c1.1,2.9,8.1,30.2,8.5,33.4
		c0.2,1.4,1.3,7.9,2.6,14.5c3.4,17.6,3.4,44.8,0,59c-3.5,14.6-6.9,21.1-14.6,28.3c-7,6.6-10.3,8-20.6,8.9c-12.1,1-24.3-4.2-34.6-15
		c-5.4-5.6-10.7-14.4-11.8-19.4c-0.2-1-1.1-4.5-1.9-7.8c-4-14.8-3.9-32.4,0-51c0.8-3.8,1.7-8.6,2-10.5c0.2-1.9,0.8-5.5,1.4-8
		c0.5-2.5,1.7-9,2.5-14.5c2.1-14.4,2.1-14.4,5.7-19.7c3.4-4.9,21.1-19.2,23.1-18.5c0.5,0.1,1.1,1.7,1.3,3.4
		c0.2,1.7,1.5,7.5,2.9,12.9c1.4,5.5,2.5,10.9,2.5,12.2c0,1.2,1.3,7.5,2.9,14c1.6,6.4,3.2,14.3,3.5,17.4c0.7,5.8,2,7.8,3.7,6.1
		c0.7-0.7,0.3-4.6-1-10.9c-1.1-5.4-2.5-13.3-3.1-17.4c-0.6-4.1-2-11.3-3.2-16c-3.8-15.5-4.2-23-1.4-25.8c0.9-1,5.1-3.1,9.4-4.8
		C437,327.6,441,326.2,441.5,326.1z"/>
	<path id="path24" class="st4" d="M638.3,365c0.2,0,3.7,5.2,7.8,11.6c4.1,6.4,8.5,13.2,9.8,15.2c4.1,6.3,9,15.3,13.7,25.2
		c2.5,5.2,4.9,10.2,5.4,11.2c0.5,0.9,2.1,6.5,3.7,12.5c2.2,8.8,2.7,13,2.8,22.8c0,7.3-0.5,13.6-1.3,16c-5.3,16-10.7,24.8-18.5,30
		c-4.9,3.3-5.7,3.5-13.3,3.5c-4.5,0-10-0.6-12.2-1.4c-4.6-1.6-13.3-7.8-17.3-12.2c-8.4-9.4-17.7-25-22.5-37.9
		c-1-2.8-2.4-6.1-3.1-7.5c-0.7-1.4-1.3-3-1.3-3.6c0-0.5-1.1-3.9-2.5-7.5c-1.4-3.5-2.7-7.4-2.9-8.6c-0.3-1.2-0.9-3-1.4-4
		s-2.1-5.4-3.5-9.9l-2.5-8.1l4.2,2.2c6.8,3.7,16.6,5.8,24.4,5.3c11.8-0.9,20.1-7,25.5-18.9c2-4.5,4.9-15.3,4.6-17.7
		c-0.1-0.9-0.1-5.4,0-10C637.9,368.7,638.2,365,638.3,365z"/>
	<path id="path26" class="st4" d="M568.3,407.8l4,6.8c2.2,3.8,5.7,10.7,7.9,15.4c2.1,4.7,4.3,9.3,4.8,10.2s1.2,3.1,1.5,4.8
		c0.3,1.7,0.9,3.9,1.4,4.8c1.5,2.9,4,10.5,4.6,14.2c0.3,1.9,1.6,7.1,2.8,11.5c1.9,7,2.2,10.5,2.2,28.5c0,19.8-0.1,20.8-2.9,30
		c-7.1,23.4-16.7,37.2-31.2,44.5c-5.8,2.9-6.2,3-20.4,2.9c-14.4,0-14.6,0-21.5-3.4c-8.1-3.9-18.9-14-22.5-21c-3.1-6-8-20.4-9.1-26.5
		c-0.5-2.8-1.7-8.9-2.8-13.7c-1.1-4.7-2.2-11.2-2.5-14.5c-0.4-3.2-1.9-14-3.4-24.1c-1.6-10.1-2.5-18.5-2.2-18.7
		c0.4-0.2,2.2,1.7,4.1,4.2c11.3,15.8,23.3,23.3,37.4,23.3c14.6,0,28.5-8,37.8-21.7c7-10.4,8.8-18,9.4-39.7L568.3,407.8z"/>
	<path id="path28" class="st4" d="M174.3,421.5l0.8,6.5c0.4,3.6,1.2,8.3,1.7,10.5c0.6,2.2,1.3,5.2,1.6,6.8c0.9,5,7.8,14,13.9,18.1
		c14.4,9.6,38.5,6.5,56.4-7.2c2.4-1.7,4.5-3.2,4.6-3.2c0.5,0-1.2,10.2-4,23.5c-1.4,6.6-2.7,13.8-2.9,16c-0.2,2.2-1.5,9-2.9,15.1
		S241,519.7,241,521c0,3.8-3.1,13.1-7.1,21.7c-3.9,8.1-13,19.4-17.4,21.5c-1.1,0.5-3.3,1.7-5,2.6c-2.3,1.3-5.5,1.7-14.5,1.7
		c-10.7,0-11.9-0.2-17.2-2.9c-10.8-5.5-18.8-16.9-24.1-34.8c-6.8-22.5-7-36.3-1-60.8c2.7-11.3,6.4-20.9,14.5-37.8L174.3,421.5z"/>
	<path id="path30" class="st4" d="M266,434c0.7,0,2.2,8.3,3.5,19.5c1,8,5.2,24,7.6,28.6c2.7,5.4,12.2,15,17.5,17.7
		c7.5,3.8,16.9,6.3,26,6.9c15.5,1,26.9-3.1,36.9-13.1c3.3-3.4,6.9-6.8,7.9-7.6c1.7-1.4,1.8-1.3,1.3,0.5c-0.4,1.1-0.9,8.5-1.2,16.5
		c-0.6,17-0.9,19.1-4.2,33c-3.6,15.7-11.8,40.1-16.5,49.5c-5.4,10.8-16.4,21.3-24.4,23.3c-12.9,3.3-25.8,2.1-37.2-3.5
		c-5.5-2.7-9.1-5.6-15.1-11.8c-4.4-4.6-8.9-10.3-10.1-12.7c-1.2-2.3-2.8-5-3.4-5.8c-0.7-0.8-2.2-4-3.3-7c-4.6-11.8-5.1-14.8-4.8-33
		c0.2-20.3,1.6-28.5,14-81.5c1.4-6.1,2.7-11.7,2.9-12.5s0.6-2.7,1.1-4.3C264.9,435.2,265.6,434,266,434z"/>
	<path id="path32" class="st4" d="M470.3,450.5l1.3,5c3.3,12.3,6.6,27.4,7,32c0.2,2.7,0.9,8.6,1.5,13c2.5,17.7,0.6,50.5-3.7,65.5
		c-0.8,3-2.2,8-3.1,10.9c-4.8,17.3-14.8,28.7-29.4,33.2c-10.4,3.2-21.6,1.9-32.3-3.9c-6.4-3.4-24-20.8-29.3-28.9
		c-4.2-6.5-9.8-18.8-10.7-23.8c-3.1-16.4-3.1-16.5-0.2-63.5c0.9-15.1,2.1-27.9,2.5-28.3c1.6-1.6,3.1,0.3,3.1,3.6
		c0,4.8,4.7,15.7,9.5,22.1c5.1,6.8,12.5,12.7,21.5,17c6.2,3,7,3.1,19.5,3.1c12.5,0,13.2-0.1,18.3-2.9c9-5,14.2-12.3,19-26.3
		c1.2-3.4,2.4-8.1,2.7-10.5c0.3-2.4,0.7-5.4,0.9-6.8c0.3-1.4,0.8-4.3,1.2-6.5L470.3,450.5z"/>
	<path id="path34" class="st5" d="M691.1,472.5c1,2.2,1.9,4.6,1.9,5.2c0,0.7,1.4,5.6,3.1,10.9c1.7,5.2,3.2,10.3,3.4,11.2
		s1.5,5.9,3,11c1.5,5.1,2.8,10.7,3,12.5c0.1,1.8,1.3,8.4,2.6,14.7c3.4,17,3.2,34.8-0.5,49c-4.7,17.8-11.1,26.3-22.2,29.6
		c-5.2,1.5-6.2,1.5-12,0c-8.8-2.1-13.9-5.4-23.2-14.7c-5.8-5.7-9.2-10.2-12.2-15.9c-4.4-8.6-10.4-25-11.4-31.4
		c-0.4-2.1-1.8-7.8-3.2-12.5c-1.4-4.7-2.7-10-2.9-11.6c-0.2-1.7-1.2-5.1-2.1-7.5c-0.8-2.5-2.6-8.3-3.9-12.8c-2-7.2-2.1-8.2-0.7-6.9
		c1.6,1.4,5.5,3.7,13.2,7.7c6,3.2,16.2,6.2,22.5,6.7c11.2,0.9,23.6-6.2,30.1-17.3c4.7-8.1,8.7-20.7,9.4-29.9
		C689.1,469.1,689.7,469.6,691.1,472.5z"/>
	<path id="path36" class="st5" d="M145.6,487.7c0.1,1,1.1,9.7,2.3,19.3c2.5,19.5,5.2,33.7,7.3,39c3.9,9.9,18.9,24.2,28.8,27.5
		c3.7,1.2,7.5,1.6,13.8,1.3c11.3-0.4,19.1-3.9,29.2-13.2c3.9-3.6,7.6-6.6,8.1-6.6c0.9,0,0.7,1.2-1.2,9c-1.5,6.3-4,19.3-4.5,23.2
		c-0.3,2.2-1.6,8.8-3,14.8c-1.3,6-2.6,12.6-2.9,14.7c-0.9,7.3-6.3,25.2-9.1,30.4c-3.4,6.1-9.3,11.5-14.9,13.6
		c-2.2,0.8-8.6,1.7-14.2,2c-8.5,0.5-11.2,0.2-17-1.5c-8.9-2.8-15.4-7-19.7-12.9c-5.9-8-14.3-26.1-17.6-37.8
		c-3-10.8-3.1-11.4-3.1-33.3c0-19.8,0.3-24.1,2.7-37.5c2.6-15.2,6-28.5,11.1-44.9C144.5,486.2,145.5,484.3,145.6,487.7z"/>
	<path id="path38" class="st5" d="M607.4,503.2c1,3.5,3.1,10.8,4.6,16.3c4.8,16.6,8,28.9,8.4,32c0.2,1.7,1.6,9.7,3.1,18
		c2.5,14.1,2.6,16.4,2.2,40c-0.3,21.6-0.7,26-2.5,32.5c-1.1,4.1-2.3,8.9-2.7,10.7c-0.9,5.2-6.9,17.4-11.3,23
		c-8.8,11-21.3,16-38.4,15.1c-12-0.7-20.3-3.4-30.1-9.9c-15.5-10.3-27.9-27.6-36.1-50.4c-1.4-3.9-2.8-8.4-3-10
		c-0.3-1.7-1.5-7.3-2.6-12.5c-1.8-8.4-3.9-30.4-4-41.5v-3.9l4.8,4.5c25.6,24.4,56,27.6,77.3,8c5.2-4.7,14.6-18.8,15.4-23.2
		c0.2-1.1,1.3-4.4,2.4-7.3c1.1-2.9,2.4-8.6,3-12.7c0.6-4.1,1.9-11.8,3.1-17.3c1.1-5.4,2-11.6,2-13.7
		C603,494.8,605.4,496,607.4,503.2z"/>
	<path id="path40" class="st5" d="M488.4,560.8c1.2,8.2,1.6,19.4,1.6,41c0,30.4-0.8,42.5-3.5,55.8c-0.9,4.1-1.8,9.2-2.1,11.2
		c-0.6,5.2-6,22.8-8.6,28.1c-2.7,5.6-12,15.7-16.8,18.1c-7.9,4-23.3,5.2-34,2.6c-14.7-3.5-30.7-16.9-40.8-34.1
		c-12.5-21.2-17.5-51.9-15.7-95.3l0.7-17.6l5.2,5.5c2.8,3,9,10.1,13.9,15.6c10.1,11.7,21.2,20.6,29.4,23.4c9.3,3.2,18.8,3.6,27,1.1
		c8-2.5,16.8-8.4,20.6-13.9c8-11.7,18.6-40.9,19.6-54.3C485.2,544,487,550.4,488.4,560.8z"/>
	<path id="path42" class="st5" d="M364.3,549.5c1.2,2.1,1,39.2-0.3,50.7c-3,28.2-7.2,46.6-15.2,66.8c-8.7,22.1-20.1,32-36.8,32
		c-5.8,0-11.5-1.2-16.7-3.6c-1.7-0.8-3.7-1.4-4.3-1.4c-0.7,0-3.5-1.4-6.2-3c-2.6-1.7-5.3-3-5.9-3c-1.9,0-19.5-18.4-21.7-22.7
		c-1.1-2.3-2.6-5-3.1-6c-1.6-2.8-7.3-15.6-7.5-16.8c-0.1-0.5-1.2-3.9-2.4-7.5c-5.8-17.1-7.9-43.6-4.8-60.6c0.8-4.4,1.7-9.7,2.1-11.9
		l0.7-4l2.7,7.5c6.1,16.6,13.3,27.1,24.9,36.3c14.3,11.5,28.5,15.9,43.5,13.6c15.5-2.4,27.1-11.8,35.5-28.9
		c2.9-5.7,5.2-11.4,5.2-12.5c0-1.2,0.4-2.5,0.9-3c0.7-0.8,4.3-10.7,4.6-12.5c0-0.3,0.9-2.9,2-5.8
		C362.9,549.2,363.6,548.3,364.3,549.5z"/>
	<path id="path44" class="st6" d="M714.4,580.5l0.8,3c0.4,1.7,1.2,6.1,1.7,10c0.5,3.8,1.9,12.4,3,19c1.1,6.6,2.1,14.2,2.2,17
		c0,2.7,1.4,18.3,3,34.5c1.7,16.2,3.1,35.6,3.2,43c0.2,12.9,0.1,13.7-2.5,18.6c-5.7,10.7-25.9,25.7-42.8,31.6c-3,1-7.7,2.3-10.4,2.9
		c-5.7,1.1-6.6,0.4-6.6-5.2c0-2-1.1-9.6-2.5-16.9c-1.4-7.4-2.8-15.9-3-18.9c-0.3-3.1-1.7-11.7-3-19.1c-1.4-7.4-2.7-16-3-19
		s-1.6-11.4-2.9-18.5c-1.3-7.2-2.9-16.6-3.5-21c-0.6-4.4-1.8-11.8-2.6-16.5c-0.9-4.7-1.8-10.5-2-13c-0.3-2.5-0.8-5.8-1.1-7.5l-0.7-3
		l4.9,4c2.7,2.1,6.2,5,7.8,6.3c4.9,4,14.8,8.5,21.4,9.8c10.9,2.1,18.3-0.9,25.2-10c3.9-5.2,10-17.3,10-19.8c0-0.8,0.8-3.7,1.7-6.4
		L714.4,580.5z"/>
	<path id="path46" class="st6" d="M633.5,591c0.3,0,3.5,14,4,17.4c0.1,1.2,1.4,7,2.8,13.1c3.9,17.1,13.6,73.4,13.9,80.5
		c0,1.4,1.4,10.6,3,20.5c3.2,19.5,4.3,36.8,2.7,41.5c-3.5,9.8-28.3,25-54.9,33.6c-22.4,7.3-51.1,6.7-70.1-1.4
		c-8.4-3.6-9.7-6.5-13-27.9c-1.6-10.4-2.9-20.4-3-22.3c-0.1-1.9-1.5-12.5-3.1-23.5c-1.6-11-2.9-21.4-3-23c0-1.7-1.3-11.7-2.9-22.2
		c-3.1-20.9-3.4-23.3-2-23.3c0.5,0,3.6,4,6.9,8.8c8.7,12.6,17.9,21,29.5,26.6c5.2,2.5,10,4.6,10.8,4.6c0.8,0,4.3,0.9,7.7,2
		c16.4,5.1,34.3,0,46.9-13.4c3.2-3.4,6.7-7.7,7.8-9.6c3.7-6.7,7.8-21.5,9-32.5c0.2-1.7,1.5-10.9,2.8-20.5c1.4-9.6,2.5-19.7,2.6-22.3
		c0-2.6,0.3-5.2,0.6-5.7C632.9,591.4,633.3,591,633.5,591z"/>
	<path id="path48" class="st6" d="M233.8,617c0.8,1.9,1.5,4.2,1.7,5c0.2,0.8,1.3,4.2,2.6,7.5c1.3,3.3,2.4,6.5,2.5,7
		c0.6,3.4,8.3,22.5,12.7,31.5c6.1,12.4,13.4,20.4,24.2,26.8c7.4,4.3,18.9,8.3,29.1,10.1c16,2.9,32.8-6.6,41.6-23.5
		c3.1-5.9,8.7-21.7,12.9-36.2c0.7-2.3,1.3-4.1,1.5-4c0.3,0.4,2.4,28.2,2.5,33.3c0.3,16.4,6.3,86.6,8.2,96c2.8,14.4,2.7,18-1,21.6
		c-3.6,3.6-17.3,8.5-29.6,10.5c-11.7,2-28.6,2-40.2,0c-18.6-3-43.2-13.2-61-25.2c-9.6-6.5-12.5-9.1-15.8-14.3
		c-2.1-3.4-2.2-4.5-2-22.1c0.1-10.2,1.6-37.6,3.2-61c1.7-23.4,3-46.9,3-52.3c0.1-5.5,0.6-10.8,1.3-12
		C232.3,613.6,232.4,613.6,233.8,617z"/>
	<path id="path50" class="st6" d="M125.1,620c0.7,0,1.9,2.7,1.8,4.3c-0.1,1.1,6.8,13.3,11.3,19.9c7.7,11.5,21.2,20.2,36,23.3
		c21,4.3,35.6-2.3,44.3-20.1c2.5-5.1,3.4-6.2,3.4-4.4c0.1,1.4-0.8,22.3-1.9,46.5c-1.1,24.2-2,50.2-2,57.7c0,12.7-0.1,13.8-2,14.8
		c-3.5,1.9-14.6,2.3-22.7,1c-7.7-1.3-22.4-6.2-25.3-8.6c-0.8-0.6-3.3-2.1-5.5-3.2c-15.2-7.8-29.6-27.1-36.8-49.2
		c-3.2-10-3.8-13.3-4.5-25.4c-0.7-13.2,0.5-40,2.3-51.9C123.9,622.1,124.6,620,125.1,620z"/>
	<path id="path52" class="st6" d="M496.8,625c0.7,0,4,16,4.7,23c0.2,1.9,1.5,10.2,2.9,18.5c1.4,8.2,2.6,16.3,2.6,18
		c0,1.6,1.3,12.4,3,24c8.7,59.4,8.2,55.7,9.4,73.5c0.8,11.1,0.1,13.1-5.9,17c-4.5,2.9-6.4,3.7-22,9.1c-35.7,12.6-83.8,9.4-100.3-6.5
		c-11-10.5-13.9-21.8-18.6-73.1c-0.8-8.8-1.5-19.8-1.6-24.5c0-4.7-0.4-13.2-1-19c-0.5-5.8-0.9-12.5-1-15v-4.5l5,10.3
		c5.2,10.8,14.5,24.5,20.2,29.8c8.9,8.3,21,15.4,30.7,18.1c8,2.2,21.3,2.2,28.3,0c11.1-3.6,22.3-14.6,27.2-26.8
		c2.9-7.3,9.2-31.2,10-37.9c0.3-2.5,1.7-9.9,3.1-16.5c1.4-6.5,2.5-13.2,2.5-14.7S496.3,625,496.8,625z"/>
	<path id="path54" class="st7" d="M118.1,698.8c0.4,0.4,2.1,4.1,3.8,8.2c10.6,25.7,26.2,43.4,47.7,53.9c5.7,2.8,14.1,6.1,18.6,7.2
		c8,2,10,2.1,30.4,1.6c3.4-0.1,4.9,0.5,9.5,4.4c14.4,12.1,36.3,24.1,51.8,28.5c20,5.6,19.9,5.6,39.6,5.7c16.9,0,19.8-0.2,26.5-2.2
		c4.1-1.2,12.9-3.2,19.6-4.3l12.1-2.2l9.5,5.6c5.3,3.1,13.7,7.2,18.8,9.2c30.4,12.1,65.4,8.9,107.5-9.7c9.4-4.1,18.5-4.2,30-0.3
		c13.3,4.5,41.8,5.3,55,1.6c20-5.7,35.5-13.6,55-28c12.8-9.5,12.8-9.5,26.7-14.4c19.2-6.7,27.7-11.5,38-21.6
		c6.7-6.6,9.4-10.1,11.7-15.1c2.2-4.9,5.1-15.4,5.1-18.5c0-0.2,1.4-1.9,3.1-3.9c2.6-3,3.7-3.5,7.3-3.5c5.2,0,6.1,0.8,3.9,3.3
		c-1.5,1.6-1.8,3.9-1.8,13.6c0,12.6-0.9,15.3-5.9,18.6c-1.3,0.9-2.6,2.8-2.9,4.3c-0.8,3.8-6.3,9.2-14.1,13.8c-4,2.3-7.5,5.2-8.6,7.1
		c-1.8,3.1-2.1,3.2-6.8,2.6c-5.2-0.6-8.2,0.5-15.2,5.6c-3.2,2.3-6.6,3.7-13.7,5.7c-0.7,0.2-2.3,2.1-3.7,4.2
		c-1.7,2.7-3.4,4.1-5.5,4.5c-2.9,0.6-5.6,2.3-19.9,12c-2.9,2-7,3.9-9,4.2c-2,0.3-4.7,0.8-5.9,1.1c-1.2,0.2-4.8,2.9-7.9,5.9l-5.6,5.5
		h-6.9c-3.9,0-6.8,0.4-6.5,0.9c0.9,1.4-1.4,2.7-9.3,5.2c-4.1,1.2-10.2,4.2-13.7,6.6c-3.5,2.4-7.2,4.3-8.4,4.3
		c-1.1,0-5.3-0.9-9.3-2.1c-3.9-1.2-10.6-3-14.7-4c-4.1-1.1-9.1-2.4-11-2.9c-5.9-1.6-19.5-1.1-27.3,0.9c-3.9,1-9.4,2.2-12.2,2.6
		c-2.7,0.4-7.2,1.6-10,2.7c-2.7,1-7.7,2.3-11,2.8s-11.5,2-18.2,3.4c-9.4,2-15,2.6-24.9,2.6c-13.5,0-16.1-0.7-35.9-9.4
		c-12.2-5.4-17.5-6.9-20.1-5.7c-5.6,2.5-11.2,0.6-16.3-5.6l-3.1-3.7l-3.2,3.1c-10.2,9.6-16.3,11.4-22.9,6.8l-3.7-2.4l-5.3,2
		c-5.1,2-6.2,2-18.3,0.9c-7.1-0.6-15.2-1.6-18-2.1c-2.8-0.6-8.5-1.7-12.6-2.5c-16.1-3.2-20-4.5-22.2-7.5c-2.3-3.1-7.8-5.4-10.8-4.6
		c-2.1,0.5-4.3-1-23.7-15.9l-11.8-9.1l-3.9,2.9c-6.3,4.5-12.5,3.8-19.1-2.2c-3.6-3.3-6.6-4.1-10.8-2.9c-3.5,1-4.3,0.5-16.6-9
		c-4.8-3.7-7.9-5.3-12.5-6.3c-8.9-1.9-11.7-4.2-14.1-11.3c-2.6-7.9-2.8-8.1-7.8-9.3c-5.5-1.4-7.8-4-8.4-9.5c-0.5-4-1.4-5.3-8.5-12.3
		l-7.9-7.9l7.8-7.2C114,701.4,117.8,698.5,118.1,698.8z"/>
	<path d="M482,6.8c0,0.4,1.5,1.2,3.3,1.7c1.9,0.6,3.7,2.1,4.5,3.7c3.2,6.8,3.6,13.4,3.7,55.3c0,39,0.1,42.3,1.8,44.9
		c2.2,3.3,7.7,5.8,12.1,5.5c6.6-0.4,10.7,0.1,11.2,1.5c0.3,0.8-1.4,4.2-3.8,7.6c-8.7,12.4-16.7,25.5-19.2,31.4
		c-4.3,10.2-5,12-5.2,13.6c-0.1,0.8-1.2,5.1-2.4,9.5c-1.2,4.3-2.3,11-2.4,14.8c-0.1,6.5,0.1,7,3,9.5c1.8,1.5,5.9,4.2,9.2,6.1
		c4.1,2.3,11,8.2,21.2,18.4c12.6,12.6,16.9,16.2,26.4,22.1c6.3,3.9,15.9,10.2,21.3,14.1c10.5,7.5,35.8,31.5,42.8,40.5
		c5.3,6.9,26.4,38.5,34,51c3.2,5.2,6.8,11.1,8,13c10.6,16.7,27.7,49.9,35.5,69c7.7,18.8,16.7,45.5,18.5,55.1c0.3,1.3,1.6,7.3,3,13.4
		c2.9,12.9,8.3,41.1,8.3,44c0,1.1,1.4,9.6,3,19c1.7,9.3,3,17.7,3,18.5c-0.1,0.8,1.1,9.4,2.5,19c3.6,24.6,8.8,64,8.7,67.2
		c0,1.5,0.5,6.1,1.1,10.3l1.1,7.5h7.2c7.7,0,9.6,1,12.5,6.7c3.6,7.1-1.4,31.4-8.7,42.2c-3.3,4.8-19.9,20.5-26.7,25.2
		c-6.3,4.4-7.6,4.9-15.2,5.9c-6.6,0.8-11,3.1-19.6,9.9c-2.7,2.1-6.8,4.8-9,6c-2.3,1.2-7.1,3.8-10.7,5.8c-7.6,4.2-17.8,9.6-23.5,12.5
		c-2.2,1.1-6.8,4.5-10.3,7.4c-3.5,3-6.9,5.4-7.5,5.4c-0.7,0-2.5,0.7-4.1,1.5c-1.6,0.9-4.6,2-6.5,2.5c-2,0.5-10.1,3.2-18.1,5.9
		c-8.8,3.1-16.2,5.1-18.8,5.1c-2.4,0-12.5-1.4-22.5-3.1c-24.4-4.1-33.7-4.2-44.2-0.5c-10.7,3.8-33.9,8.6-45.2,9.3
		c-5.1,0.3-9.3,1-9.3,1.4c0,0.5-4.5,0.9-10,0.9c-6,0-10-0.4-10-1s-2.1-1-4.7-1c-7.1,0-40-8-60.1-14.6c-8.7-2.9-9.4-2.9-11.7-0.4
		c-3,3.3-10.9,5.3-17.8,4.6c-3.4-0.4-17-1-30.2-1.5c-28.4-1-32.9-2-51.6-11.1c-6.8-3.3-13.4-6-14.6-6c-3.7,0-7.2-1.8-12.1-6.3
		c-11.3-10.2-14-11.3-38.8-14.6c-16.7-2.2-28.2-6-34-11c-1.7-1.5-7.9-5.4-13.7-8.5c-13.3-7.1-16.1-9.5-19.7-16.5
		c-4.8-9.6-8.2-13.7-18-22.1s-15-15.4-15-20.2c0-6.5,5.1-13.2,13.3-17.4c3.4-1.7,5.2-3.5,6.1-5.7c0.9-2.1,1.6-11.5,2-28.2
		c0.4-13.8,1.6-34.5,2.6-46c1.1-11.6,2.4-30.2,3-41.5c1.2-25,1.6-28.8,4.2-41.4c1.1-5.5,2.1-11.2,2.3-12.7
		c0.8-5.9,9.1-33.2,13.8-45.4c1.7-4.4,3.2-8.2,3.2-8.5c0.3-2.7,33.3-69,40.4-81.4c2.8-4.9,5.1-9.1,5.1-9.3c0-0.3,2.8-4.6,6.2-9.6
		c20.9-30.9,50.8-61.5,88.1-90c19.6-15,29.1-24.8,30.3-31.2c0.8-4.7,5.1-12,9-15.5c2-1.7,7.9-5.2,13.1-7.7
		c15.2-7.3,17.7-12.9,17.1-37.1c-0.4-13.7-0.6-15.2-3.6-22.7c-1.7-4.4-5.3-11.4-7.8-15.5c-2.6-4.1-6.1-11.1-7.7-15.5
		c-2.7-7-3-9.3-3.1-18.5c0-9.4,0.3-11.3,3.2-18.8c1.7-4.5,6.5-13.9,10.6-20.8C355.6,56.3,359,47.8,360.8,35
		c1.5-10.9,2.6-13.1,7.3-15.5c3.1-1.7,10.3-0.3,13.3,2.5c1,1,2.8,5.3,3.9,9.6c1.8,6.9,2.1,11.2,2.2,33.9c0.2,14.3,0.5,27.1,0.8,28.4
		c1.3,5,7,12.1,12.9,16.1c3.3,2.2,6.3,4,6.7,4c1.3,0,27.2-24.5,32.7-31c13.8-16.2,18.4-28.8,19.3-53c0.7-17.2,1.7-20.5,6.9-21.5
		c1.5-0.4,3.4-1,4.2-1.5C472.9,5.9,482,5.7,482,6.8z M473.6,14c-5,0-6.3,3-6.5,14.8c-0.1,5.9-0.6,13.4-1.2,16.7
		c-3.3,18.7-12.3,36-25.8,49.5c-8.8,8.7-37.2,31.4-38,30.3c-0.4-0.4-2.3-2.8-4.1-5.2c-1.9-2.4-7-8.5-11.3-13.5
		c-12.8-14.7-18.5-27.1-18.9-40.6l-0.2-6.7l-3.7-1l-3.6-0.9l-5.8,12c-3.2,6.7-6.9,14.3-8.2,17.1c-5,10.1-6.5,15.1-7,23.5
		c-0.6,10.4,1.1,16.4,9.2,30.8c2.9,5.3,6.9,14,8.7,19.2l3.3,9.5l-0.1,19.5c-0.1,19.4-0.1,19.5-3.2,27.9c-3.8,10.1-3.9,12.8-0.9,16.9
		c3.3,4.7,15.6,21.3,25.2,34.2c4.7,6.3,9.8,13.2,11.3,15.2c1.5,2.1,3,3.7,3.3,3.8c0.3,0,2.7-3,5.5-6.7
		c19.4-26.5,41.2-45.2,68.2-58.4c8.9-4.3,10.1-7.1,11.2-27.2c0.9-15.5,2.5-23.4,6.9-32.9c1.1-2.6,2.1-4.9,2.1-5.3
		c0-0.3,3.4-7.4,7.5-15.8c4.1-8.3,7.5-15.3,7.5-15.5c0-0.1-0.6-0.2-1.3-0.2c-2.9,0-13.5-6.3-17.9-10.7c-5.7-5.6-11.5-17.1-13-25.6
		c-0.6-3.9-0.7-12.6-0.3-23.2c0.4-9.4,0.7-17.7,0.6-18.5c0-2.5,1.9-26.2,2.5-29.8C476,14.3,475.9,14,473.6,14z M483.4,32
		c-1.2,0-2.6,0.6-3,1.2c-1,1.6-2.1,34.4-1.4,41.8c0.5,5.1,0.7,5.5,3,5.5c2.4,0,2.5-0.3,3.7-10c1.2-11.1,1.6-30.6,0.7-35.4
		C485.9,32.7,485.2,32,483.4,32z M379.1,43c-1.3,0-2,0.9-2.5,3.2c-1.2,7.1-1.6,18.6-0.9,24.8c0.7,5.7,1.1,6.5,3.1,6.8l2.2,0.3V60.6
		C381,44,380.9,43,379.1,43z M479.5,223c-4.9,2.8-10.8,5.9-13,7c-12.1,6-33.4,22-43.6,32.6c-6.2,6.6-14,16.3-21.4,26.9
		c-2.7,3.8-5,7.2-5.3,7.5c-0.4,0.6-2.9-2.5-10.2-13c-3.3-4.7-9.1-13-13-18.5c-9.3-13.3-21-30-23.8-34.1c-2.6-4-3.3-4.1-10.7-1.3
		c-9.1,3.4-16.6,11.6-17.9,19.4c-1.5,9.2-1.6,12.7-0.7,18.9c2,14,7.4,21,35.5,46.5c12.2,11,25,22.9,28.6,26.5
		c3.5,3.6,6.9,6.6,7.4,6.6s2.7-1.5,5-3.3c10.5-8.6,23.7-15.7,42.1-22.6c24.7-9.4,40.1-17.4,49.7-25.8c13.7-11.9,21-22.3,25.4-36.2
		c4.5-13.8,2.7-24.4-5.8-33.6c-2.8-3.1-6.4-6.3-7.9-7C494.6,216.7,489.3,217.7,479.5,223z M524.4,248.5c-2-1.3-2.2-1.1-3.8,4.2
		c-1,3-2,6.6-2.2,8c-0.3,1.4-1.1,4.4-1.9,6.6c-0.8,2.3-1.5,4.5-1.5,4.9c0,0.3,7.2,7.1,16,14.9c15,13.4,17.3,16,15.2,17.3
		c-0.9,0.5-21.8-15.8-28.7-22.5c-2.3-2.2-4.4-3.9-4.8-3.9c-0.9,0-7.8,7.5-12.1,13.2l-3.4,4.5l11.7,11.9c6.5,6.5,15.8,17.3,20.6,23.8
		c9.3,12.6,24.4,36.8,27.8,44.5c6,13.7,21.4,30.4,33.6,36.4c8.9,4.3,17.9,4.4,26.1,0.3c7.1-3.6,9.6-6,12.6-11.8
		c2.2-4.4,2.4-5.6,2-18.5c-0.2-11.6-0.8-15.5-3.3-24.8c-4.2-15-11.3-29.6-19.8-40.6c-18.5-24-43-44.3-78-64.7
		C528.3,250.9,525.6,249.2,524.4,248.5z M313,265.7c-1.7-1.9-29.1,19.2-57,44c-27.5,24.4-55.6,58.8-66.7,81.8
		c-7.8,16.1-10.5,36.1-6.6,48.6c0.9,3,1.6,5.7,1.5,6.1c-0.3,1.2,10.9,12.8,13.8,14.3c1.4,0.7,5.3,1.9,8.7,2.6
		c8.4,1.7,20.4-0.1,29.2-4.4c13.5-6.7,22-17.5,30.2-38.4c2.6-6.7,5.7-14,6.9-16.2c1.1-2.3,1.8-4.1,1.6-4.1
		c-0.8,0,14.9-33.2,19.2-40.8c2.3-4.1,4.2-7.6,4.2-7.9c0-0.2,1.1-1.9,2.5-3.7s2.5-3.7,2.5-4.1c0-1.7,17.5-23.8,24.7-31.1
		c8.5-8.7,8.7-6.7-1.7-17.9l-5.6-6L304.8,305c-8.6,9.1-18.1,19.2-21.3,22.5l-5.6,6l7.2-11c4.6-7.1,11-14.9,17.9-22
		c5.9-6.1,11.5-12.4,12.4-14.2c2.1-4.1,2-10.1-0.1-15.5C314.4,268.4,313.4,266.2,313,265.7z M492.4,301c-2.1,0-8.4,3.4-14.1,7.6
		c-2.1,1.6-3.9,2.9-4.1,3c-0.2,0.1,3.3,6.8,7.8,14.8c4.4,8.1,8,15.1,8,15.7c0,0.5,0.9,2.8,2,4.9c2,4,7,21.1,7,24
		c0,0.8-2-2.6-4.5-7.5c-9.6-19.7-21.5-44.6-21.5-45.3c0-0.4-0.7-1.5-1.4-2.5c-1.3-1.7-1.7-1.7-7.5,0.7c-3.3,1.5-6.7,2.6-7.5,2.6
		s-2.9,1.2-4.6,2.7c-3.1,2.6-3.2,2.9-2.7,8.2c0.8,7.3,1,8.3,4.1,16.5c1.5,3.8,2.8,8.1,3.1,9.6c0.3,1.5,1.4,5.7,2.5,9.4
		c1.2,3.7,2.3,7.9,2.5,9.4c0.2,1.5,1.5,7.5,2.9,13.3c1.4,5.9,2.8,12.4,3,14.5c0.8,6.2,5.6,25.2,8.8,34.4
		c9.5,27.2,20.7,39.9,38.1,43.1c8,1.5,17.3,0.2,24.6-3.5c6.2-3.2,15.1-12.8,18.5-20c5.9-12.5,6.7-16.1,6.6-30.6
		c-0.1-7.4-0.6-15.3-1.1-17.5c-1.9-7.7-8.1-25.9-9.6-28.2c-0.9-1.3-1.2-2.3-0.9-2.3c1,0-7.7-16.2-13.7-25.5
		c-10.9-17-34.6-45.4-41.2-49.5C495.7,301.9,493.4,301,492.4,301z M336.9,306.2c-0.6-0.3-8.2,10.3-19.9,27.6
		c-2.5,3.7-6.7,9.7-9.3,13.3c-2.6,3.7-4.7,6.9-4.7,7.2c0,0.4-2.6,4.6-5.7,9.4c-11.6,17.7-20.6,39.6-23.2,56.1
		c-3.8,24.4,1.8,54.4,12.5,67.1c6.3,7.5,20.6,13,35.5,13.8c10.9,0.6,14,0,22.4-3.7c7.8-3.5,17.4-14.1,20.1-22.1
		c0.4-1.3,0.9-2.9,1.1-3.4c1.1-3.3,5.3-24.7,5.7-29c0.3-2.7,1.2-8.8,2.1-13.5c0.8-4.7,2-11.7,2.6-15.5c0.5-3.9,2.1-13.3,3.4-21
		c1.4-7.7,2.7-16.5,3-19.5c0.2-3,0.9-7.6,1.4-10.2c0.4-2.6,0.6-6,0.3-7.4c-0.7-3.7-22.1-31.8-25.2-33.2c-0.4-0.1-1.7,2.1-2.9,5
		c-1.3,2.9-2.9,6.6-3.7,8.3c-3,6.4-13.7,31.2-15.4,35.8c-1,2.7-2.3,5.4-2.8,6c-0.6,0.7-1.7,3.2-2.5,5.7c-1.5,4.6-4.7,6.8-4.7,3.3
		c0-1.1,0.4-2.3,0.9-2.9c0.5-0.5,3-6.3,5.6-12.9c2.6-6.6,5.8-14.4,7.1-17.3c1.3-2.9,2.4-5.5,2.4-5.8c0-0.3,1.8-4.5,4.1-9.2
		c7.2-15.1,7.3-15.6,5.5-19.4c-1-2-4.2-5-8.4-7.8C340.5,308.5,337.2,306.4,336.9,306.2z M441.5,326.1c-2.4,0.2-16.6,6.6-18.1,8.1
		c-2.8,2.8-2.4,10.3,1.4,25.8c1.2,4.7,2.6,11.9,3.2,16c0.6,4.1,2,12,3.1,17.4c1.3,6.3,1.7,10.2,1,10.9c-1.7,1.7-3-0.3-3.7-6.1
		c-0.3-3.1-1.9-11-3.5-17.4c-1.6-6.5-2.9-12.8-2.9-14c0-1.3-1.1-6.7-2.5-12.2c-1.4-5.4-2.7-11.2-2.9-12.9c-0.2-1.7-0.8-3.3-1.3-3.4
		c-2-0.7-19.7,13.6-23.1,18.5c-3.6,5.3-3.6,5.3-5.7,19.7c-0.8,5.5-2,12-2.5,14.5c-0.6,2.5-1.2,6.1-1.4,8c-0.3,1.9-1.2,6.7-2,10.5
		c-3.9,18.6-4,36.2,0,51c0.8,3.3,1.7,6.8,1.9,7.8c1.1,5,6.4,13.8,11.8,19.4c10.3,10.8,22.5,16,34.6,15c10.3-0.9,13.6-2.3,20.6-8.9
		c7.7-7.2,11.1-13.7,14.6-28.3c3.4-14.2,3.4-41.4,0-59c-1.3-6.6-2.4-13.1-2.6-14.5c-0.4-3.2-7.4-30.5-8.5-33.4
		c-0.4-1.1-3-9-5.7-17.3C444.7,332.9,442.1,326.1,441.5,326.1z M638.3,365c-0.3,0-0.7,15.3-0.4,18.2c0.3,2.4-2.6,13.2-4.6,17.7
		c-5.4,11.9-13.7,18-25.5,18.9c-7.8,0.5-17.6-1.6-24.4-5.3l-4.2-2.2l2.5,8.1c1.4,4.5,3,8.9,3.5,9.9s1.1,2.8,1.4,4
		c0.2,1.2,1.5,5.1,2.9,8.6c1.4,3.6,2.5,7,2.5,7.5c0,0.6,0.6,2.2,1.3,3.6c0.7,1.4,2.1,4.7,3.1,7.5c4.8,12.9,14.1,28.5,22.5,37.9
		c4,4.4,12.7,10.6,17.3,12.2c2.2,0.8,7.7,1.4,12.2,1.4c7.6,0,8.4-0.2,13.3-3.5c7.8-5.2,13.2-14,18.5-30c0.8-2.4,1.3-8.7,1.3-16
		c-0.1-9.8-0.6-14-2.8-22.8c-1.6-6-3.2-11.6-3.7-12.5c-0.5-1-2.9-6-5.4-11.2c-4.7-9.9-9.6-18.9-13.7-25.2c-1.3-2-5.7-8.8-9.8-15.2
		C642,370.2,638.5,365,638.3,365z M572.3,414.6l-4-6.8l-0.6,17.8c-0.6,21.7-2.4,29.3-9.4,39.7c-11.9,17.6-32,25.7-49.4,19.9
		c-9-3-17.8-10.3-25.8-21.5c-1.9-2.5-3.7-4.4-4.1-4.2c-0.3,0.2,0.6,8.6,2.2,18.7c1.5,10.1,3,20.9,3.4,24.1c0.3,3.3,1.4,9.8,2.5,14.5
		c1.1,4.8,2.3,10.9,2.8,13.7c1.1,6.1,6,20.5,9.1,26.5c3.6,7,14.4,17.1,22.5,21c6.9,3.4,7.1,3.4,21.5,3.4c14.2,0.1,14.6,0,20.4-2.9
		c14.5-7.3,24.1-21.1,31.2-44.5c2.8-9.2,2.9-10.2,2.9-30c0-18-0.3-21.5-2.2-28.5c-1.2-4.4-2.5-9.6-2.8-11.5
		c-0.6-3.7-3.1-11.3-4.6-14.2c-0.5-0.9-1.1-3.1-1.4-4.8c-0.3-1.7-1-3.9-1.5-4.8s-2.7-5.5-4.8-10.2
		C578,425.3,574.5,418.4,572.3,414.6z M175.1,428l-0.8-6.5l-5.1,10.7c-8.1,16.9-11.8,26.5-14.5,37.8c-6,24.5-5.8,38.3,1,60.8
		c5.3,17.9,13.3,29.3,24.1,34.8c5.3,2.7,6.5,2.9,17.2,2.9c9,0,12.2-0.4,14.5-1.7c1.7-0.9,3.9-2.1,5-2.6c4.4-2.1,13.5-13.4,17.4-21.5
		c4-8.6,7.1-17.9,7.1-21.7c0-1.3,1.1-7.3,2.5-13.4s2.7-12.9,2.9-15.1c0.2-2.2,1.5-9.4,2.9-16c2.8-13.3,4.5-23.5,4-23.5
		c-0.1,0-2.2,1.5-4.6,3.2c-17.9,13.7-42,16.8-56.4,7.2c-6.1-4.1-13-13.1-13.9-18.1c-0.3-1.6-1-4.6-1.6-6.8
		C176.3,436.3,175.5,431.6,175.1,428z M266,434c-0.7,0-1.8,3.1-2.6,7c-0.2,0.8-1.5,6.4-2.9,12.5c-12.4,53-13.8,61.2-14,81.5
		c-0.3,18.2,0.2,21.2,4.8,33c1.1,3,2.6,6.2,3.3,7c0.6,0.8,2.2,3.5,3.4,5.8c1.2,2.4,5.7,8.1,10.1,12.7c6,6.2,9.6,9.1,15.1,11.8
		c11.4,5.6,24.3,6.8,37.2,3.5c8-2,19-12.5,24.4-23.3c4.7-9.4,12.9-33.8,16.5-49.5c3.3-13.9,3.6-16,4.2-33c0.3-8,0.8-15.4,1.2-16.5
		c0.5-1.8,0.4-1.9-1.3-0.5c-1,0.8-4.6,4.2-7.9,7.6c-10,10-21.4,14.1-36.9,13.1c-9.1-0.6-18.5-3.1-26-6.9
		c-5.3-2.7-14.8-12.3-17.5-17.7c-2.4-4.6-6.6-20.6-7.6-28.6c-0.3-2.8-1.1-8.3-1.7-12.3C267.2,437.3,266.4,434,266,434z M471.6,455.5
		l-1.3-5l-0.7,4c-0.4,2.2-0.9,5.1-1.2,6.5c-0.2,1.4-0.6,4.4-0.9,6.8c-0.3,2.4-1.5,7.1-2.7,10.5c-4.8,14-10,21.3-19,26.3
		c-5.1,2.8-5.8,2.9-18.3,2.9c-12.5,0-13.3-0.1-19.5-3.1c-9-4.3-16.4-10.2-21.5-17c-4.8-6.4-9.5-17.3-9.5-22.1c0-3.3-1.5-5.2-3.1-3.6
		c-0.4,0.4-1.6,13.2-2.5,28.3c-2.9,47-2.9,47.1,0.2,63.5c0.9,5,6.5,17.3,10.7,23.8c5.3,8.1,22.9,25.5,29.3,28.9
		c10.7,5.8,21.9,7.1,32.3,3.9c14.6-4.5,24.6-15.9,29.4-33.2c0.9-2.9,2.3-7.9,3.1-10.9c4.3-15,6.2-47.8,3.7-65.5
		c-0.6-4.4-1.3-10.3-1.5-13c-0.3-2.8-1.7-10-3.1-16C474.1,465.4,472.3,458.2,471.6,455.5z M691.1,472.5c-1.4-2.9-2-3.4-2.1-2
		c-0.7,9.2-4.7,21.8-9.4,29.9c-6.5,11.1-18.9,18.2-30.1,17.3c-6.3-0.5-16.5-3.5-22.5-6.7c-7.7-4-11.6-6.3-13.2-7.7
		c-1.4-1.3-1.3-0.3,0.7,6.9c1.3,4.5,3.1,10.3,3.9,12.8c0.9,2.4,1.9,5.8,2.1,7.5c0.2,1.6,1.5,6.9,2.9,11.6c1.4,4.7,2.8,10.4,3.2,12.5
		c1,6.4,7,22.8,11.4,31.4c3,5.7,6.4,10.2,12.2,15.9c9.3,9.3,14.4,12.6,23.2,14.7c5.8,1.5,6.8,1.5,12,0c11.1-3.3,17.5-11.8,22.2-29.6
		c3.7-14.2,3.9-32,0.5-49c-1.3-6.3-2.5-12.9-2.6-14.7c-0.2-1.8-1.5-7.4-3-12.5c-1.5-5.1-2.8-10.1-3-11s-1.7-6-3.4-11.2
		c-1.7-5.3-3.1-10.2-3.1-10.9C693,477.1,692.1,474.7,691.1,472.5z M141.7,494.8c-5.1,16.4-8.5,29.7-11.1,44.9
		c-2.4,13.4-2.7,17.7-2.7,37.5c0,21.9,0.1,22.5,3.1,33.3c3.3,11.7,11.7,29.8,17.6,37.8c4.3,5.9,10.8,10.1,19.7,12.9
		c5.8,1.7,8.5,2,17,1.5c5.6-0.3,12-1.2,14.2-2c5.6-2.1,11.5-7.5,14.9-13.6c2.8-5.2,8.2-23.1,9.1-30.4c0.3-2.1,1.6-8.7,2.9-14.7
		c1.4-6,2.7-12.6,3-14.8c0.5-3.9,3-16.9,4.5-23.2c1.9-7.8,2.1-9,1.2-9c-0.5,0-4.2,3-8.1,6.6c-10.1,9.3-17.9,12.8-29.2,13.2
		c-6.3,0.3-10.1-0.1-13.8-1.3c-9.9-3.3-24.9-17.6-28.8-27.5c-2.1-5.3-4.8-19.5-7.3-39c-1.2-9.6-2.2-18.3-2.3-19.3
		C145.5,484.3,144.5,486.2,141.7,494.8z M603,500.9c0,2.1-0.9,8.3-2,13.7c-1.2,5.5-2.5,13.2-3.1,17.3c-0.6,4.1-1.9,9.8-3,12.7
		c-1.1,2.9-2.2,6.2-2.4,7.3c-0.8,4.4-10.2,18.5-15.4,23.2c-7.3,6.8-17.7,11.6-26.6,12.4c-18.5,1.6-34.3-4.8-50.7-20.4l-4.8-4.5v3.9
		c0.1,11.1,2.2,33.1,4,41.5c1.1,5.2,2.3,10.8,2.6,12.5c0.2,1.6,1.6,6.1,3,10c8.2,22.8,20.6,40.1,36.1,50.4
		c9.8,6.5,18.1,9.2,30.1,9.9c17.1,0.9,29.6-4.1,38.4-15.1c4.4-5.6,10.4-17.8,11.3-23c0.4-1.8,1.6-6.6,2.7-10.7
		c1.8-6.5,2.2-10.9,2.5-32.5c0.4-23.6,0.3-25.9-2.2-40c-1.5-8.3-2.9-16.3-3.1-18c-0.4-3.1-3.6-15.4-8.4-32
		c-1.5-5.5-3.6-12.8-4.6-16.3C605.4,496,603,494.8,603,500.9z M484.9,548c-1,13.4-11.6,42.6-19.6,54.3c-3.8,5.5-12.6,11.4-20.6,13.9
		c-8.2,2.5-17.7,2.1-27-1.1c-8.2-2.8-19.3-11.7-29.4-23.4c-4.9-5.5-11.1-12.6-13.9-15.6l-5.2-5.5l-0.7,17.6
		c-2.4,56.6,6.2,89.5,29.5,112.9c12.7,12.8,23.9,17.8,39.7,17.9c8.3,0,16.3-1.5,21.3-4c4.8-2.4,14.1-12.5,16.8-18.1
		c2.6-5.3,8-22.9,8.6-28.1c0.3-2,1.2-7.1,2.1-11.2c2.7-13.3,3.5-25.4,3.5-55.8c0-21.6-0.4-32.8-1.6-41
		C487,550.4,485.2,544,484.9,548z M364.3,549.5c-0.7-1.2-1.4-0.3-2.8,3.7c-1.1,2.9-2,5.5-2,5.8c-0.3,1.8-3.9,11.7-4.6,12.5
		c-0.5,0.5-0.9,1.8-0.9,3c0,1.1-2.3,6.8-5.2,12.5c-8.4,17.1-20,26.5-35.5,28.9c-15,2.3-29.2-2.1-43.5-13.6
		c-11.6-9.2-18.8-19.7-24.9-36.3l-2.7-7.5l-0.7,4c-0.4,2.2-1.3,7.5-2.1,11.9c-3.1,17-1,43.5,4.8,60.6c1.2,3.6,2.3,7,2.4,7.5
		c0.2,1.2,5.9,14,7.5,16.8c0.5,1,2,3.7,3.1,6c2.2,4.3,19.8,22.7,21.7,22.7c0.6,0,3.3,1.3,5.9,3c2.7,1.6,5.5,3,6.2,3
		c0.6,0,2.6,0.6,4.3,1.4c5.2,2.4,10.9,3.6,16.7,3.6c16.7,0,28.1-9.9,36.8-32c11.2-28.2,16.2-57.8,16.3-96
		C365.1,560.1,364.8,550.4,364.3,549.5z M715.2,583.5l-0.8-3l-1.7,4.9c-0.9,2.7-1.7,5.6-1.7,6.4c0,2.5-6.1,14.6-10,19.8
		c-6.9,9.1-14.3,12.1-25.2,10c-6.6-1.3-16.5-5.8-21.4-9.8c-1.6-1.3-5.1-4.2-7.8-6.3l-4.9-4l0.7,3c0.3,1.7,0.8,5,1.1,7.5
		c0.2,2.5,1.1,8.3,2,13c0.8,4.7,2,12.1,2.6,16.5c0.6,4.4,2.2,13.8,3.5,21c1.3,7.1,2.6,15.5,2.9,18.5s1.6,11.6,3,19
		c1.3,7.4,2.7,16,3,19.1c0.2,3,1.6,11.5,3,18.9c1.4,7.3,2.5,14.9,2.5,16.9c0,5.6,0.9,6.3,6.6,5.2c2.7-0.6,7.4-1.9,10.4-2.9
		c16.9-5.9,37.1-20.9,42.8-31.6c2.6-4.9,2.7-5.7,2.5-18.6c-0.1-7.4-1.5-26.8-3.2-43c-1.6-16.2-3-31.8-3-34.5
		c-0.1-2.8-1.1-10.4-2.2-17c-1.1-6.6-2.5-15.2-3-19C716.4,589.6,715.6,585.2,715.2,583.5z M633.5,591c-1,0-1.6,2.4-1.6,6.7
		c-0.1,2.6-1.2,12.7-2.6,22.3c-1.3,9.6-2.6,18.8-2.8,20.5c-1.2,11-5.3,25.8-9,32.5c-1.1,1.9-4.6,6.2-7.8,9.6
		c-12.6,13.4-30.5,18.5-46.9,13.4c-3.4-1.1-6.9-2-7.7-2c-0.8,0-5.6-2.1-10.8-4.6c-11.6-5.6-20.8-14-29.5-26.6
		c-3.3-4.8-6.4-8.8-6.9-8.8c-1.4,0-1.1,2.4,2,23.3c1.6,10.5,2.9,20.5,2.9,22.2c0.1,1.6,1.4,12,3,23c1.6,11,3,21.6,3.1,23.5
		c0.1,1.9,1.4,11.9,3,22.3c2.5,16.4,3.2,19.2,5.6,22.3c6.7,8.8,31.8,13.9,56.5,11.5c16.6-1.6,33.7-7.7,54.3-19.3
		c11.4-6.4,19.8-13.7,21.6-18.8c1.6-4.7,0.5-22-2.7-41.5c-1.6-9.9-3-19.1-3-20.5c-0.3-7.1-10-63.4-13.9-80.5
		c-1.4-6.1-2.7-11.9-2.8-13.1c-0.2-1.1-1.1-5.5-2-9.7C634.6,594.5,633.6,591,633.5,591z M233.8,617c-1.4-3.4-1.5-3.4-2.6-1.3
		c-0.7,1.2-1.2,6.5-1.3,12c0,5.4-1.3,28.9-3,52.3c-1.6,23.4-3.1,50.8-3.2,61c-0.2,17.6-0.1,18.7,2,22.1c3.3,5.2,6.2,7.8,15.8,14.3
		c17.8,12,42.4,22.2,61,25.2c11.6,2,28.5,2,40.2,0c12.3-2,26-6.9,29.6-10.5c3.7-3.6,3.8-7.2,1-21.6c-1.9-9.4-7.9-79.6-8.2-96
		c-0.1-5.1-2.2-32.9-2.5-33.3c-0.2-0.1-0.8,1.7-1.5,4c-4.2,14.5-9.8,30.3-12.9,36.2c-8.8,16.9-25.6,26.4-41.6,23.5
		c-10.2-1.8-21.7-5.8-29.1-10.1c-10.8-6.4-18.1-14.4-24.2-26.8c-4.4-9-12.1-28.1-12.7-31.5c-0.1-0.5-1.2-3.7-2.5-7
		c-1.3-3.3-2.4-6.7-2.6-7.5C235.3,621.2,234.6,618.9,233.8,617z M125.1,620c-2.3,0-4.9,38-3.9,56.6c0.7,12.1,1.3,15.4,4.5,25.4
		c7.2,22.1,21.6,41.4,36.8,49.2c2.2,1.1,4.7,2.6,5.5,3.2c2.9,2.4,17.6,7.3,25.3,8.6c8.1,1.3,19.2,0.9,22.7-1c1.9-1,2-2.1,2-14.8
		c0-7.5,0.9-33.5,2-57.7c1.1-24.2,2-45.1,1.9-46.5c0-1.8-0.9-0.7-3.4,4.4c-8.7,17.8-23.3,24.4-44.3,20.1
		c-14.8-3.1-28.3-11.8-36-23.3c-4.5-6.6-11.4-18.8-11.3-19.9c0.1-0.4-0.2-1.6-0.5-2.6C126.1,620.8,125.5,620,125.1,620z M496,627.8
		c0,1.5-1.1,8.2-2.5,14.7c-1.4,6.6-2.8,14-3.1,16.5c-0.8,6.7-7.1,30.6-10,37.9c-4.9,12.2-16.1,23.2-27.2,26.8
		c-7,2.2-20.3,2.2-28.3,0c-9.7-2.7-21.8-9.8-30.7-18.1c-5.7-5.3-15-19-20.2-29.8l-5-10.3v4.5c0.1,2.5,0.5,9.2,1,15
		c0.6,5.8,1,14.3,1,19c0.1,4.7,0.8,15.7,1.6,24.5c4.7,51.3,7.6,62.6,18.6,73.1c16.5,15.9,64.6,19.1,100.3,6.5
		c27.7-9.7,29-10.9,27.9-26.1c-1.2-17.8-0.7-14.1-9.4-73.5c-1.7-11.6-3-22.4-3-24c0-1.7-1.2-9.8-2.6-18c-1.4-8.3-2.7-16.6-2.9-18.5
		c-0.2-1.9-1.2-7.9-2.2-13.3C497.6,625.3,496,622,496,627.8z M118.1,698.8c-0.3-0.3-4.1,2.6-8.4,6.5l-7.8,7.2l7.9,7.9
		c7.1,7,8,8.3,8.5,12.3c0.6,5.5,2.9,8.1,8.4,9.5c5,1.2,5.2,1.4,7.8,9.3c2.4,7.1,5.2,9.4,14.1,11.3c4.6,1,7.7,2.6,12.5,6.3
		c12.3,9.5,13.1,10,16.6,9c4.2-1.2,7.2-0.4,10.8,2.9c6.6,6,12.8,6.7,19.1,2.2l3.9-2.9l11.8,9.1c19.4,14.9,21.6,16.4,23.7,15.9
		c3-0.8,8.5,1.5,10.8,4.6c2.2,3,6.1,4.3,22.2,7.5c4.1,0.8,9.8,1.9,12.6,2.5c2.8,0.5,10.9,1.5,18,2.1c12.1,1.1,13.2,1.1,18.3-0.9
		l5.3-2l3.7,2.4c6.6,4.6,12.7,2.8,22.9-6.8l3.2-3.1l3.1,3.7c5.1,6.2,10.7,8.1,16.3,5.6c2.6-1.2,7.9,0.3,20.1,5.7
		c19.8,8.7,22.4,9.4,35.9,9.4c9.9,0,15.5-0.6,24.9-2.6c6.7-1.4,14.9-2.9,18.2-3.4s8.3-1.8,11-2.8c2.8-1.1,7.3-2.3,10-2.7
		c2.8-0.4,8.3-1.6,12.2-2.6c7.8-2,21.4-2.5,27.3-0.9c1.9,0.5,6.9,1.8,11,2.9c4.1,1,10.8,2.8,14.7,4c4,1.2,8.2,2.1,9.3,2.1
		c1.2,0,4.9-1.9,8.4-4.3c3.5-2.4,9.6-5.4,13.7-6.6c7.9-2.5,10.2-3.8,9.3-5.2c-0.3-0.5,2.6-0.9,6.5-0.9h6.9l5.6-5.5
		c3.1-3,6.7-5.7,7.9-5.9c1.2-0.3,3.9-0.8,5.9-1.1c2-0.3,6.1-2.2,9-4.2c14.3-9.7,17-11.4,19.9-12c2.1-0.4,3.8-1.8,5.5-4.5
		c1.4-2.1,3-4,3.7-4.2c7.1-2,10.5-3.4,13.7-5.7c7-5.1,10-6.2,15.2-5.6c4.7,0.6,5,0.5,6.8-2.6c1.1-1.9,4.6-4.8,8.6-7.1
		c7.8-4.6,13.3-10,14.1-13.8c0.3-1.5,1.6-3.4,2.9-4.3c5-3.3,5.9-6,5.9-18.6c0-9.7,0.3-12,1.8-13.6c2.2-2.5,1.3-3.3-3.9-3.3
		c-3.6,0-4.7,0.5-7.3,3.5c-1.7,2-3.1,3.7-3.1,3.9c0,3.1-2.9,13.6-5.1,18.5c-2.3,5-5,8.5-11.7,15.1c-10.3,10.1-18.8,14.9-38,21.6
		c-13.9,4.9-13.9,4.9-26.7,14.4c-19.5,14.4-35,22.3-55,28c-13.2,3.7-41.7,2.9-55-1.6c-11.5-3.9-20.6-3.8-30,0.3
		c-50.6,22.3-88.7,22.5-126.3,0.5l-9.5-5.6l-12.1,2.2c-6.7,1.1-15.5,3.1-19.6,4.3c-6.7,2-9.6,2.2-26.5,2.2
		c-19.7-0.1-19.6-0.1-39.6-5.7c-15.5-4.4-37.4-16.4-51.8-28.5c-4.6-3.9-6.1-4.5-9.5-4.4c-20.4,0.5-22.4,0.4-30.4-1.6
		c-4.5-1.1-12.9-4.4-18.6-7.2c-21.5-10.5-37.1-28.2-47.7-53.9C120.2,702.9,118.5,699.2,118.1,698.8z"/>
</g>
</svg>
