<?xml version="1.0" encoding="utf-8"?>
<!-- Generator: Adobe Illustrator 21.0.0, SVG Export Plug-In . SVG Version: 6.00 Build 0)  -->
<svg version="1.1" baseProfile="tiny"
	 id="svg120" inkscape:version="0.92.2 5c3e80d, 2017-08-06" sodipodi:docname="53.svg" xmlns:cc="http://creativecommons.org/ns#" xmlns:dc="http://purl.org/dc/elements/1.1/" xmlns:inkscape="http://www.inkscape.org/namespaces/inkscape" xmlns:rdf="http://www.w3.org/1999/02/22-rdf-syntax-ns#" xmlns:sodipodi="http://sodipodi.sourceforge.net/DTD/sodipodi-0.dtd" xmlns:svg="http://www.w3.org/2000/svg"
	 xmlns="http://www.w3.org/2000/svg" xmlns:xlink="http://www.w3.org/1999/xlink" x="0px" y="0px" viewBox="0 0 850 850"
	 xml:space="preserve">
<sodipodi:namedview  bordercolor="#666666" borderopacity="1" gridtolerance="10" guidetolerance="10" id="namedview122" inkscape:current-layer="svg120" inkscape:cx="800.48302" inkscape:cy="668.21238" inkscape:pageopacity="0" inkscape:pageshadow="2" inkscape:window-height="978" inkscape:window-maximized="1" inkscape:window-width="1920" inkscape:window-x="0" inkscape:window-y="1" inkscape:zoom="0.58897835" objecttolerance="10" pagecolor="#ffffff" showgrid="false">
	</sodipodi:namedview>
<g id="g118" transform="translate(0.000000,0.000000) scale(1.00000,1.00000)">
	<path id="path4" fill="none" d="M0,0h425h425v425v425H425H0V425V0z M542.2,5c-1.2,0-4.1,3.3-6.7,7.4c-1.1,1.8-3.9,6.1-6.2,9.5
		s-4.5,7.5-4.8,9.1c-0.6,2.6-0.9,2.8-2.5,1.8c-1.1-0.7-2.2-1-2.5-0.6c-0.4,0.4-2.3,14.1-2.5,18.7c0,0.2-2-2.3-4.4-5.5
		c-4.5-6.1-9.3-11.1-10-10.3c-0.2,0.2-1.8,4.1-3.6,8.6c-1.7,4.6-3.3,8.3-3.6,8.3c-0.2,0-2.4-3-4.7-6.8c-6.9-10.7-6.9-10.7-9.6,0.6
		c-1.3,5.3-2.7,10.8-3,12.1c-0.6,2.1-1.4,1.3-6.6-7c-7.6-12.2-8.4-13.2-10.1-11.8c-0.8,0.6-1.9,2.9-2.6,5c-0.6,2.2-1.4,3.9-1.7,3.9
		s-2.4-1.9-4.7-4.1l-4.3-4.2l-3.8,7.7c-2,4.2-4,7.6-4.3,7.6c-0.3-0.1-2.5-3.4-4.8-7.5c-2.4-4.1-4.8-7.3-5.3-6.9
		c-1.4,0.8-5.5,9.2-6.9,14.1c-0.7,2.4-1.7,4.3-2.1,4.3c-1.2,0-3.5-3.9-4.9-8.3c-0.6-2.1-1.7-3.6-2.3-3.4c-2.1,0.6-6.8,8.5-10.1,16.8
		l-3.3,8l-3.1-3.6c-3.8-4.3-8.2-12.6-8.2-15.5c0-1.2,0.7-3.4,1.4-4.9c0.8-1.5,1.2-3.8,0.9-5c-0.7-2.7-3.2-2.1-8.3,2
		c-4.3,3.4-13.7,7.8-18.5,8.6c-3.5,0.6-3.5,0.5-2.5-2.1c0.5-1.5,1.5-3.6,2-4.6c1.6-3.1,4.1-17.8,3.8-22.3c-0.5-6.6-2.6-5.1-7.7,5.3
		c-3.4,7-5.5,10.1-8.1,11.8l-3.5,2.3l-0.7-4.3c-0.4-2.4-1-8.2-1.3-13c-0.4-4.7-1.2-9.4-1.9-10.4c-1.1-1.5-1.6-1.1-4.4,3.8
		c-1.8,3.1-3.2,6-3.2,6.5c0,1.9-8.1,18.3-9,18.3c-0.5,0-1.2-1.7-1.6-3.7c-1.2-6.6-8.2-26.5-9.8-28.2c-3-2.9-3.6,0.7-3.6,23.4
		c0,12.1-0.5,23.8-1,26c-0.6,2.7-2.1,5-4.6,7.1c-3.6,3.1-3.7,3.2-3,8.4c0.8,6.1,1.8,4.4-16.9,30.5c-6.6,9.3-13.2,18.6-14.5,20.6
		c-1.4,2.1-5.2,7-8.5,10.9c-5.8,7.1-7.5,9.3-17.7,23.1c-10.4,14.1-21.8,31-21.8,32.4c0,2.9,7.9,3,20.8,0.1c4.5-1,12.8-5.4,18.7-9.9
		c3.3-2.5,6.1-4.5,6.2-4.4s-0.3,4.2-0.9,9c-2,17.4,4.4,45.9,9.3,41c0.5-0.5,3.9-5.8,7.4-11.9c7-11.6,7.2-11.1,2.4,4.4
		c-1.6,5.1-2.9,9.9-2.9,10.8c0,1.3-0.7,1.5-3.4,1c-3.4-0.7-3.5-0.6-4.7,3.5c-1.2,3.7-1.1,4.3,0.6,5.5c1,0.8,2.5,1.4,3.2,1.4
		c2.9,0,0.7,2.9-13.1,16.9c-15.3,15.6-16.6,17.3-16.6,22c0,2.2-4.5,9.7-17.3,28.8c-19.6,29.1-28.1,42.5-46.7,73.3
		c-18.2,30.2-38.9,66.8-56.4,100c-4.3,8-27.9,55.1-52.7,104.7c-24.7,49.6-45.4,90.5-45.9,90.8c-0.6,0.3-1,1.2-1,2
		c0,1.6,22.5,18.4,35,26.1c5.2,3.2,9.7,5.9,9.9,6.1c0.2,0.1-1.8,2.9-4.6,6c-2.7,3.2-6,7.3-7.4,9.2l-2.4,3.3l3.9,3.2
		c2.2,1.7,7,5.8,10.7,9.2c19.6,17.7,59.2,41.1,93.4,55.1c37.8,15.4,90.3,28.9,134,34.3c5,0.6,13.7,1.8,19.5,2.5
		c5.8,0.8,15.2,1.7,21,2s15.2,1.1,21,1.6s24.5,1.2,41.5,1.5c29.2,0.6,31.3,0.5,36.6-1.3c3-1.1,7.5-3.4,9.9-5.2l4.3-3.1h31.1
		c36.5,0,64.1-2.3,93.1-7.6c7.2-1.3,14.8-2.6,17-2.9c19.5-2.8,67.8-17.1,98.5-29.2c18.4-7.2,63.7-29.2,66.4-32.2
		c1.7-1.9,1.5-2.4-4.3-13.2c-3.4-6.2-6.1-11.5-6.1-11.8c0-0.4,3.7-1.7,8.3-3c9.5-2.7,20.9-8.1,29.7-14.1s19.7-16.6,21.2-20.6
		c0.6-1.9,1.6-3.4,2-3.4s0.8-2.7,0.8-6s-0.4-6-0.9-6s-1.2-1.7-1.5-3.8c-0.4-2-1.8-7.8-3.1-12.7c-2.6-9.7-6.6-25.7-11.4-45.5
		c-1.6-6.9-4.4-18.4-6.1-25.5c-3.6-14.9-8.7-31.5-13.1-42.8c-2.9-7.6-9.7-22.4-34.4-75.2c-6.4-13.8-16.3-34.9-22-47
		c-5.6-12.1-12.5-26.7-15.3-32.5c-12.8-26.9-25.2-54.3-24.8-54.7c0.2-0.2,2.7,0.5,5.5,1.7c5.5,2.4,8.1,2.1,8.1-0.8
		c0-1-3.9-8.3-8.6-16.2c-4.8-8-13.2-22.6-18.7-32.5c-21.4-38.5-36.9-57.2-57.7-69.4c-7-4.1-21.7-10.1-24.8-10.1
		c-1.1,0-2.6-0.9-3.3-2c-0.9-1.3-7.7-4.6-17.3-8.4c-8.7-3.6-16.5-7.1-17.3-7.9c-1.5-1.5-8.6-27.2-8.1-28.9c0.2-0.5,3.1,3.2,6.6,8.1
		c6.6,9.6,9.6,12.2,10.6,9.5c0.3-0.9,0.6-8.7,0.6-17.5c0-8.7,0.2-15.9,0.5-15.9c1.4,0,12.7,6.3,18.9,10.4c7.1,4.7,10.6,5.8,10.6,3.1
		c0-2-7.7-18.9-12.9-28.3c-5.7-10.4-13.8-22.5-22.8-34c-7.8-10-8.1-10.5-8.7-17c-0.6-5.9-0.1-8.8,3.7-24.2
		c9.9-39.4,9.8-41.3-0.7-32.3c-2.2,1.8-4.1,3.1-4.3,2.9c-0.3-0.2,0-3,0.6-6.2c1.4-7.2,1.4-18.4,0.1-21.8C543.5,6.2,542.7,5,542.2,5z
		"/>
	<path id="path6" fill="#990033" d="M539.7,18.3c0.2,0.3-0.7,6.2-2.1,13.1c-1.4,6.9-2.6,12.8-2.6,13.1s-0.7,0.5-1.5,0.5
		c-0.7,0-1.9,0.8-2.4,1.7c-0.8,1.5-1,1.1-1.1-2c0-4.2,3.8-16.4,7.1-22.9C538.2,19.6,539.4,18,539.7,18.3z"/>
	<path id="path8" fill="#CC3366" d="M342.5,25.6l0.3,8.4c0.5,12.4-2.8,24.8-9.4,35.2c-3.7,5.8-4.9,4.5-5.2-5.4l-0.3-8.6l7.3-14.8
		L342.5,25.6z"/>
	<path id="path10" fill="#CC3366" d="M319,29c0.9,0,4.3,15.9,4.9,23.5c0.3,3.8,0.4,9.6,0.3,12.9l-0.4,5.8l-3.1-0.6
		c-1.7-0.4-3.5-1-4-1.5s-0.4-9.1,0.4-20.5C317.8,37.8,318.6,29,319,29z"/>
	<path id="path12" fill="#CC3366" d="M361.7,37.4c1,1-3.2,12.7-6.8,18.8c-5.4,9.3-17.6,21.4-19.5,19.5c-0.4-0.3,1-3.5,2.9-7.1
		c2-3.5,4.1-8.2,4.6-10.3c1.7-5.9,4.7-10,9-12.3c2.2-1.1,5.2-3.6,6.7-5.5C360.1,38.5,361.5,37.1,361.7,37.4z"/>
	<path id="path14" fill="#990033" d="M549.6,38.3c0.4,0.4-3.4,17.6-6,26.8c-1.5,5.2-3.4,12-4.3,15.1c-0.9,3.2-2,5.8-2.5,5.8
		s-0.7-0.8-0.4-1.8c1.5-5,3.6-17.7,3.6-21.5c0-2.4-0.7-6.7-1.6-9.7c-1.4-4.6-1.4-5.4-0.1-6.1c0.8-0.5,3.6-2.6,6.2-4.8
		C547.2,39.9,549.5,38.2,549.6,38.3z"/>
	<path id="path16" fill="#990099" d="M523.3,40.5l3.3,7c4.5,9.2,4.5,13.8-0.1,25.8c-6.3,16.3-6,16.2-6,4c0-5.9-0.4-13.3-0.9-16.5
		c-0.7-4.7-0.5-6.8,1.4-13L523.3,40.5z"/>
	<path id="path18" fill="#990099" d="M504.9,42c1.5,0,7.3,10.3,9.7,17c4,11.3,3.9,22.7-0.5,33.7c-1.8,4.5-4,9.1-4.9,10.2
		c-1.4,1.6-9,4.6-9.8,3.8c-0.1-0.1,0.6-2.8,1.7-6.1c4-11.6,3.6-23.1-1.3-37.3l-2.1-6.1l3.3-7.6C502.9,45.4,504.6,42,504.9,42z"/>
	<path id="path20" fill="#990099" d="M485.5,44.8l2.2,2.9c7.6,9.4,12.9,26.8,12,39.3c-0.6,9.2-3.2,17.2-6.6,20.6l-2.6,2.6l-0.6-9.8
		c-0.6-10-3.7-22.3-7.8-30.2l-1.9-3.8l2.6-10.8L485.5,44.8z"/>
	<path id="path22" fill="#990099" d="M463.3,46.3c1.9,0.6,13.5,20.9,17.1,29.7c5,12.6,7.4,31.3,4.2,33.9c-1.5,1.2-24.4,6.6-25.2,5.9
		c-0.2-0.3,0.7-3,2-6c6.9-15.6,7.7-30.1,2.6-46.1c-2.4-7.6-3-10.8-2.5-13.8C461.9,47.7,462.7,46.1,463.3,46.3z"/>
	<path id="path24" fill="#990099" d="M430.5,47c0.2,0,2.1,3.2,4,7.1c4.2,8.3,7.5,22.4,7.5,32.4c0,7.9-3.1,23.9-5.5,28.5
		c-1.6,3.1-5,5.1-7.1,4.3c-0.6-0.2-2.4-4.3-4-9.1c-2.7-8.1-2.9-9.7-2.8-23.7c0-13.3,0.3-16,2.7-23.8c1.5-4.8,2.7-9.1,2.7-9.7
		c0-0.5,0.4-2,1-3.4C429.5,48.2,430.2,47,430.5,47z"/>
	<path id="path26" fill="#990099" d="M450.1,47c1.1,0,6.5,8.9,9.5,15.5c2.6,5.6,2.8,6.9,2.8,19.5c0,13.4,0,13.6-3.8,22.5
		c-2,4.9-4.5,9.8-5.5,10.8c-1.6,1.6-13.1,3.8-13.1,2.5c0-0.2,1.1-3.8,2.5-7.9c4.3-12.4,4.4-32.4,0.4-46.4c-1.1-3.8-1-4.3,2.7-10.2
		C447.8,49.8,449.8,47,450.1,47z"/>
	<path id="path28" fill="#CC3366" d="M384.8,49.5c0.6,0.5-3.9,8.7-7.9,14.6c-4.3,6.3-15.9,17.5-21.2,20.3l-3.5,1.9l-4.6-3.8
		c-2.5-2-4.6-4-4.6-4.4c0-1.8,15.5-19.1,17.1-19.1c2.5,0,17.7-5.6,21.4-7.9C383.2,50.1,384.6,49.4,384.8,49.5z"/>
	<path id="path30" fill="#990099" d="M412.4,55c0.2,0,2.1,2.2,4.1,5l3.6,5l-1.2,7.4c-1.7,11.1-0.7,27.2,2.6,38
		c1.4,4.8,2.3,9.1,2,9.4s-2.1,0.6-4.1,0.5c-8.6-0.2-16.5-12.4-17.2-26.6c-0.5-9.7,2-21.5,6.7-32C410.6,58,412.1,55,412.4,55z"/>
	<path id="path32" fill="#990033" d="M535.5,56.2c0.2,0.2-0.1,5.2-0.5,11.3c-1.1,16-5.6,26.1-13.3,30.2c-1.6,0.8-3.1,1.2-3.3,1
		c-0.3-0.3,1.1-3.3,2.9-6.8c4.8-8.9,8.2-17,11.3-27.2C534.1,59.9,535.4,56.1,535.5,56.2z"/>
	<path id="path34" fill="#990099" d="M385.8,59.9c0.5,1.4-3.5,15.6-5.2,18.9l-1.4,2.6l-1.1-3.9c-1.6-5.7-1.5-5.7,3.1-12.5
		C383.6,61.6,385.6,59.3,385.8,59.9z"/>
	<path id="path36" fill="#990099" d="M389.5,65.8l4.5,5.3l4.5,5.2v14.1c0,15.6,1.1,19.4,7.5,26.4c1.6,1.8,3,3.5,3,3.8
		c0,0.2-4,0.4-8.9,0.4c-5.9,0-9.2-0.4-9.9-1.3c-0.6-0.7-1.7-3.9-2.5-7.2s-2.7-10.5-4.1-15.9l-2.5-10l2.5-6c1.4-3.4,3.3-8,4.3-10.4
		L389.5,65.8z"/>
	<path id="path38" fill="#660099" d="M311.3,72c0.7,0,6.2,1.9,12.2,4.1c6.1,2.2,12.9,4.7,15.2,5.5c4.8,1.8,11.6,8.7,11.1,11.2
		c-0.6,2.8-5.5,1.9-17.9-3.3c-6.3-2.6-13.8-5.7-16.8-6.8c-6-2.3-8-5.1-6.2-8.6C309.6,73,310.6,72,311.3,72z"/>
	<path id="path40" fill="none" d="M373.8,76.5c0.2,0.2,1.3,3.7,2.3,7.7c4.1,15.4,9.3,34.7,11.9,44.3c14.3,52,14.3,52.1,12.9,56.4
		c-0.6,2-1.4,3.9-1.8,4.3c-0.4,0.5-8.1,1-17.1,1.3c-9.1,0.2-18.5,0.8-21,1.4c-2.5,0.5-4.7,0.8-4.9,0.6c-0.4-0.4,3.1-15.9,6.5-29
		c5.6-21.6,3.5-41.9-6.5-63.5c-3.6-7.9-3.3-8.7,7.6-16.7C369,79.3,373.6,76.3,373.8,76.5z"/>
	<path id="path42" fill="#CC3366" d="M310.2,85.1c0.6-0.1,7.6,2.8,8.7,3.6c0.3,0.2-2.4,3.4-6,7.1c-9.4,9.6-14.2,15.8-20.4,26.1
		c-7.8,13-14.3,29.1-17,42.1c-1.5,7.5-11.4,17.4-23,23.3c-4.8,2.4-19.1,6.4-20,5.6c-0.2-0.2,1.3-2.7,3.3-5.4
		c6.3-8.6,55.9-77.4,65-90.2C305.6,90.6,309.8,85.1,310.2,85.1z"/>
	<path id="path44" fill="#CC0066" d="M324.1,91c0.9,0,2.7,0.8,4,1.9l2.3,1.8l-2.3,11.4c-2.8,13.7-11.6,43.2-17.2,57.5
		c-2.3,5.7-7,15.4-10.6,21.6c-3.6,6.2-10,17.3-14.1,24.6s-7.7,13.1-7.9,12.8c-1.8-1.7-3.3-12.8-3.3-23.9c0-11.5,0.4-14.3,3.5-26.5
		c9-35.1,18.7-54.2,37.3-74.1C319.5,94.2,323.2,91,324.1,91z"/>
	<path id="path46" fill="#CC3366" d="M335,95c0.5,0,2,1,3.4,2.2c4.3,3.8,4.8,9.7,4.7,51.7l-0.1,38.4l-5.9,6.3
		c-6.8,7.3-12.3,17.5-14.9,28.2l-1.9,7.3l-3-3.4c-1.6-1.9-4.1-5.6-5.4-8.3c-2.2-4.5-2.4-6-2.3-19.9c0-16.6-0.4-14.4,10.8-50
		c5.6-17.7,10.8-36.9,12.7-46.8C333.7,97.6,334.5,95,335,95z"/>
	<path id="path48" fill="#CC3366" d="M347.9,99c2.9,0,3.4,0.5,6,6.2c9.1,20.4,9.9,38.1,3.1,65.8c-1.6,6.3-3.5,15.2-4.2,19.8
		c-0.7,4.5-1.7,8.1-2.2,7.9c-3.9-1.3-5-18.6-3.2-54.2c0.8-16.8,0.3-28.3-2-41.8C344.8,99.1,344.8,99,347.9,99z"/>
	<path id="path50" fill="#CC0033" d="M536.7,99.1c4.2-0.1,4.4,0.1,11.6,9.1c10.1,12.6,18.3,25.1,25.6,38.9
		c3.3,6.4,6.1,11.8,6.1,12.1c0,0.4-5.1-2-11.2-5.2c-9.3-4.8-12.1-6.8-15.6-11.2c-7.2-9-23.2-37.3-23.2-41.2c0-0.8,0.6-1.7,1.3-1.9
		C531.9,99.4,534.4,99.1,536.7,99.1z"/>
	<path id="path52" fill="#CC0033" d="M525,100.1c0.3-0.1,2.5,3.8,5,8.6c2.5,4.8,8.3,15.4,12.9,23.7c11.3,20.6,12,22.5,12.8,36.7
		c0.3,6.9,0.2,11.9-0.3,11.8c-0.5,0-3.1-3.4-5.8-7.6c-4.4-6.9-6.4-11-13.1-27.3c-1.2-3-3.8-9.3-5.8-14
		c-9.2-22.2-11.7-28.4-11.7-28.7c0-0.1,1.2-0.9,2.8-1.7C523.3,100.8,524.7,100.1,525,100.1z"/>
	<path id="path54" fill="#CC0033" d="M515.1,105c0.6,0,18.6,44.2,19.6,48.1c0.3,0.9-0.7,4.1-2.1,7c-1.4,3-3.5,9.4-4.7,14.2l-2.3,8.9
		l-1.8-2.4c-6.9-9-15.2-30.5-17.2-44.6c-1.2-9.1-1.2-9.5,1.2-15c1.3-3.1,3.4-8.1,4.6-10.9C513.5,107.4,514.8,105,515.1,105z"/>
	<path id="path56" fill="#990033" d="M504.7,109.1c0.6-0.1-1,5.1-3.7,11.6c-2.6,6.5-6,15.6-7.4,20.3c-3.1,10.4-6.6,29.6-6.6,36.9
		c0,6.1,2.3,15.8,5,21.1c2.3,4.5,10,11.7,13.4,12.6c1.4,0.3,2.6,0.9,2.6,1.3c-0.1,1.5-26,11.1-30.2,11.1c-2.9,0-3.7-0.7-7-5.8
		c-10.1-15.6-12.9-32.4-9.3-56c1.9-12.5,10.9-41.9,13.9-45c1.2-1.2,11.4-4.3,22.1-6.7C500.8,109.8,504,109.1,504.7,109.1z"/>
	<path id="path58" fill="#990033" d="M469.2,117.1l2.7-0.1l-1.6,3.7c-2.3,5.5-7.7,23.4-10.4,34.3c-2,7.9-2.4,12-2.4,24.5
		c0.1,13.7,0.3,15.7,2.9,23.3c2.6,7.9,7.1,16.8,10.3,20.4c1.4,1.5,1.2,1.7-2.4,2.4c-6.4,1.3-27.2,0.8-36.8-0.9
		c-14.1-2.4-29.3-8.2-41.8-16l-3.8-2.3l3.9-1.8c5.3-2.4,9.3-6.2,12.7-12.1c3.4-5.7,3.9-13.9,1.2-22c-0.9-2.8-2.8-9.3-4.1-14.5
		c-1.4-5.2-3.9-14.6-5.6-20.9c-1.6-6.2-3-11.5-3-11.7s6-0.4,13.3-0.4c18.1,0,40.2-1.7,52.2-3.9C462,118.1,467.7,117.2,469.2,117.1z"
		/>
	<path id="path60" fill="#CC0033" d="M501.7,136c0.1,0,1.4,3.9,2.8,8.7c1.4,4.9,3.2,11.2,4.1,14.2l1.6,5.4l-3.8,8.4
		c-4.2,9.4-3.8,9.5-8.4-2.1l-3.1-7.6l3.3-13.5C500,142.1,501.6,136,501.7,136z"/>
	<path id="path62" fill="none" d="M535.3,165c0.4,0,0.6,0.4,0.3,0.8c-0.2,0.4,0.8,6.6,2.4,13.7c3.7,16.3,3.8,17.9,0.7,17.1
		c-1.2-0.3-4.7-1-7.7-1.6s-6.5-1.3-7.6-1.5c-2.2-0.5-3.8-3.6-4.7-9c-0.3-1.7-0.9-3.9-1.3-5s1.4,0.8,4,4.3s5.2,6.2,5.8,6
		c1.3-0.5,1.7-1.5,4.9-15.1C533.4,169.4,534.8,165,535.3,165z"/>
	<path id="path64" fill="none" d="M512.5,177.2c0.4,2.3,1.6,6.7,2.6,9.7c1.1,3,1.8,5.5,1.7,5.6c-0.9,0.7-14,3.1-16.8,3.1
		c-3.1-0.1-3.5-0.4-5.1-5.1c-1.9-5.2-2.3-12.6-1-16c0.7-1.7,1-1.4,2.1,2c1.7,5.5,5.9,13.5,6.9,13.5c0.9,0,3.3-5.3,5.6-12.8
		C510.4,171.2,511.5,171.2,512.5,177.2z"/>
	<path id="path66" fill="#CC9999" d="M305.1,199c0.3,7,1.2,13.1,2.2,15.5c0.9,2.2,1.6,5.4,1.7,7.1c0,2.7-3.3,17-4.2,17.9
		c-0.1,0.2-3.4-0.4-7.1-1.2l-6.8-1.5l0.6-3.2c0.4-1.7,1.5-5.8,2.5-9.1c2.2-6.7,8.3-28.1,9.6-33.5C304.3,188.2,304.6,189.7,305.1,199
		z"/>
	<path id="path68" fill="none" d="M343.8,195.2c-0.3,0.7-1.3,1.5-2.4,1.7c-1.6,0.3-1.7,0.1-0.5-1.3
		C342.5,193.7,344.3,193.5,343.8,195.2z"/>
	<path id="path70" fill="#660099" d="M383.8,196.1c7.1-0.1,9.3,0.2,9,1.1c-0.8,2.3-10.2,6.7-16.8,7.8c-7.6,1.3-15.4,4.7-19.2,8.3
		c-3.4,3.2-3.8,5.7-0.5,3.3c9.3-6.7,18-10.2,22.6-9.1c3.5,0.8,10.3,5.4,9.7,6.4c-1.2,1.8-24.6,15.1-31.6,17.9
		c-10.3,4.1-25.5,7.3-37.7,7.9l-10.3,0.6v-2.6c0-1.4,0.5-4.9,1.1-7.7l1.1-5l4.7,5c2.6,2.7,5.5,5,6.4,5c1.8,0,2-0.7,3.6-10.8
		c1.3-8.3,5.7-17.8,9.3-20.4c1.6-1.1,4.5-2.4,6.5-2.8c3.2-0.8,3.9-0.5,7.8,3.1c4.7,4.3,4.4,4.4,5.9-2.3c0.6-2.7,1.7-3,16.6-5.2
		C373.4,196.4,378.7,196.2,383.8,196.1z"/>
	<path id="path72" fill="#660099" d="M516.5,199.1c5-0.1,17.4,2.6,27,5.9c8.1,2.9,32.4,12.7,33.4,13.7c1.4,1.1-5.5,5.7-12,8
		c-6.9,2.5-8.7,2.7-26.9,3c-18,0.2-20,0.1-26.1-2c-3.6-1.2-7.8-3.1-9.4-4.1l-2.9-1.9l7.5-3.8c4.1-2.1,8.2-3.8,9.3-3.9
		c1,0,5.5,0.9,10,1.9c4.4,1.1,10.4,2.3,13.1,2.7c8.3,1.1,4.2-1.1-9.5-5.1c-12.3-3.6-27.7-10.1-26.6-11.2c0.3-0.3,2.7-1.2,5.3-1.9
		C511.4,199.7,514.9,199.1,516.5,199.1z"/>
	<path id="path74" fill="#660099" d="M400.8,219.4l4.4,2.2l-4.2,2.8c-6.7,4.4-11.6,9.3-15.9,15.9c-3.8,5.8-5.4,11.7-3.2,11.7
		c0.5,0,3-3.4,5.6-7.5c3.5-5.6,6.8-9.3,12.7-14c8.3-6.7,10-7.3,15.9-5.4c1.9,0.6,4,1.3,4.7,1.5c1,0.3,0.8,1.1-0.8,3.1
		c-1.1,1.5-3.9,6.5-6.1,11.2s-5.4,10.1-7.2,11.9c-3.3,3.5-13.5,9.2-19.7,11c-1.9,0.6-10.2,3.3-18.5,6.1c-8.2,2.8-15.2,5.1-15.5,5.1
		c-0.9,0,0.8-13.7,2.2-18c0.6-1.9,2.6-6.7,4.6-10.5c4.3-8.7,16.9-21.6,25.7-26.3C392.6,216.5,395,216.3,400.8,219.4z"/>
	<path id="path76" fill="#660099" d="M500.3,226.9c4.9,2.8,8.4,3.9,21.9,7.6c4.8,1.3,7,2.7,14.1,9.5c14.5,13.7,19.2,25.7,19.1,48.5
		c0,18.4-0.1,18.5-6.1,13.8c-2.7-2-12.9-7.6-22.8-12.4s-20-10.1-22.5-11.8c-10.3-7-19.4-18-24.6-29.7c-2.1-4.8-6.4-19.7-6.4-22.2
		c0-0.6,2.5-1.6,5.5-2.2c5-1,5.6-1,8.6,1.2c4.7,3.4,18.3,19.2,24.1,28c4.9,7.5,7.8,9.7,7.8,6c0-3-11.2-18.4-20.8-28.3
		c-5.8-6.1-8.8-9.9-8-10.2C492.9,223.6,495.2,224.1,500.3,226.9z"/>
	<path id="path78" fill="#6600FF" d="M596,227.3c23.7,9,43.5,29,63,63.7c7.6,13.7,8.3,14.9,11.7,21c1.7,3,5.4,9.7,8.2,14.8
		c2.8,5,5.1,9.4,5.1,9.7c0,1.3-11.2,0.2-22.2-2.1c-6.8-1.4-13.2-2.8-14.3-3c-3.5-0.7-22.8-7.1-29.1-9.8c-18.3-7.6-42.6-23-54.9-35
		c-3.9-3.7-4.3-4.7-5.3-11.4c-1.5-10.7-7.4-22.1-16.2-31.4l-7-7.6l10.3,3.9c15.8,6.1,34,15.5,47.6,24.6c6.9,4.6,13.1,8.3,13.8,8.3
		c9.6,0-29.3-24.1-56.6-35.1l-8.4-3.4l7.2-0.7c9.6-1,18.3-3.4,25-6.8C581.2,223.2,585.5,223.3,596,227.3z"/>
	<path id="path80" fill="#660099" d="M434.7,229.4c4.8,0.3,9,0.9,9.4,1.3c0.4,0.5-0.5,6.6-2.1,13.8c-3.4,15.2-4.8,28.9-3.1,29.9
		c1.6,1,2.7-2.5,4.6-15c2.6-16.6,4.4-24.9,6-27c1.1-1.5,3-2,10.4-2.4l9.1-0.5l2.1,9.2c1.5,6.4,2,11.5,1.8,16.6
		c-0.4,6.5-1.1,8.7-6.2,19.3c-6.6,13.5-25.8,47.3-26.9,47.4c-0.5,0-0.8-0.9-0.8-2.1c0-2.5-5.2-15.1-11.8-28.4
		c-9.2-18.6-10.5-23.4-10.6-37c-0.1-13,0.9-16.5,6.8-22.9C426.1,228.8,426.2,228.8,434.7,229.4z"/>
	<path id="path82" fill="#6600FF" d="M357,235.1c0.8,0-2.2,3.6-6.6,8.1c-10.5,10.8-15.7,17.2-23.7,28.9C319.8,282.4,309,303,309,306
		c0,3.9,1.8,2.7,4-2.8c7.2-18,20.3-37.8,35.6-54.1c8.1-8.6,10.5-10.1,7.8-5c-3.7,7.3-6.6,16.9-7.5,24.9c-1,10-0.2,11.8,4.7,10
		c4.9-1.9,22.8-6.9,23.2-6.6c0.2,0.2-1,2.8-2.6,5.7c-1.6,3-3.2,6.6-3.6,8c-1.3,5.6-8.9,15.1-19.5,24.1c-27.5,23.4-64.3,48.7-99.1,68
		c-20.7,11.6-30,16-30,14.5c0-0.8,0.7-6,1.5-11.8c1.9-13.7,7.2-30.6,13.3-42.8C241.9,328,252.7,311,254,311c0.4,0,1.3,2.5,2,5.5
		c1.5,6.1,2.9,7.9,5.4,6.9c3.1-1.2,4.6-6.1,5.4-18.3c0.9-13.5,2-15.9,8.2-19.1c2.2-1.1,4-1.9,4-1.8c0,0.2-1.8,5.9-4,12.7
		c-4.4,14.1-4.2,16.4,1.3,15.9c3.5-0.3,4.1-1.2,8.2-12.1c1.5-3.8,4.7-9.8,7.1-13.4c5.7-8.4,10.2-18.2,11.7-25.7l1.3-5.9l6.4-2.1
		l6.5-2.1l-0.1-4.6v-4.6l11-1.1c6.1-0.5,14.7-2.1,19.1-3.5C351.9,236.3,356.2,235.2,357,235.1z"/>
	<path id="path84" fill="#99FF00" d="M289.3,239.8c15.7,2.7,22.4,4.3,24.3,5.7c2.9,2.2,0.2,3.4-5.4,2.3c-2.6-0.4-6.7-1.1-9.2-1.4
		c-4.7-0.6-18.2-3.3-18.7-3.7c-0.1-0.2,0-1.2,0.3-2.3C281.1,238.4,281.3,238.4,289.3,239.8z"/>
	<path id="path86" fill="#CC9999" d="M288.3,247c2.6,0.1,13.7,2.6,14.4,3.4c0.8,0.7-4.4,18.3-7.3,24.6c-1.4,3-4.3,7.8-6.5,10.8
		c-4.8,6.3-8.9,14.7-8.9,18.3c0,2.7-1.6,4.9-3.7,4.9s-1.5-3.9,2.2-14.5c4.2-12.1,4.5-14.9,1.3-13.9c-5.2,1.6-14.8,8.3-14.8,10.3
		c0,0.4-0.5,6.6-1,13.7c-1,12.1-1.9,15.4-4.3,15.4c-1.4,0-0.3-17.5,1.8-27.3c2-9.6,1.7-12.4-0.8-8.6c-1,1.6-2.1,6-2.6,10.5l-0.8,7.9
		l-0.2-9.2c0-5,0.3-10.3,0.8-11.6c0.5-1.4,7.1-8.5,14.5-15.9c10.8-10.6,13.6-13.9,13.6-16.1C286,247.6,286.5,247,288.3,247z"/>
	<path id="path88" fill="#6600FF" d="M411.1,255.1c0.3-0.1,0.6,1.7,0.7,3.9c0.5,7,5,20.6,10.8,32.2c3.9,7.8,5.4,11.9,5.1,13.7
		c-0.3,1.4-2.6,7.3-5.2,13.1c-8.8,19.6-14.8,38.6-19.3,61.1c-3.5,17-4.5,24.9-3.6,27.2c1.7,4.6,3.8-0.5,5.3-13
		c2.2-17.8,7.7-39.1,15.2-58.8c8-21.2,12.9-29.6,12.9-22.2c0,2.7,4.9,20.9,5.9,22c1.2,1.2,2.6-1.2,4.6-7.3c3.1-9.8,15-31,16.5-29.4
		c0.4,0.5,1.3,3.3,1.9,6.3c1.5,7,7.8,19.1,14.2,27c2.8,3.5,5.1,7,5.1,7.9c0.2,3.6-3.7,18.1-6.8,25.5c-9.7,22.7-21.4,35.9-47.3,53.5
		c-11.3,7.7-19.1,15.6-22.7,23.2l-3,6.2l-8.1-16.8c-9.6-19.7-14.1-30.7-18.8-45.4c-13-41-12.6-72.9,1.3-101.7
		c4.6-9.5,9.2-14.5,15.7-16.7c9.4-3.3,12.1-4.7,15.5-8.1C408.9,256.7,410.7,255.2,411.1,255.1z"/>
	<path id="path90" fill="#6600FF" d="M481.9,265.1c5.7,8.8,13.1,16,22.5,21.9c19.5,12.3,46.8,58.3,54.3,91.5
		c1.7,7.7,2.9,10.5,4.3,10.5c4.2,0-7.1-36-17.2-55c-4.7-8.8-13.9-22.9-22.4-34.3c-3.4-4.5-3.5-4.7-1.1-3.8
		c10.8,4.1,24.3,12.5,30.4,18.8c4.3,4.5,4.9,3.4,5.9-11.7c0.3-5.8,1-11.1,1.3-11.8c0.5-0.9,2.7,0.3,7.6,4.2l6.9,5.5l2.5,11.3
		c2.1,9.8,2.5,13.9,2.5,30.3c0,17-0.2,20.3-2.6,31c-2.6,11.8-8,28.1-11.6,35.2l-1.9,3.5l-40.5-39.6c-22.3-21.8-42.3-42-44.5-44.9
		c-5.8-7.6-9.8-15.2-12.2-23.1c-3.1-10.2-2.8-13.6,2.3-23.5c3.7-7.3,5.3-11.6,8.2-22C476.9,258.4,479.2,261.1,481.9,265.1z"/>
	<path id="path92" fill="#CC0000" d="M252.5,296l0.3,4c0.4,4.5,0.4,4.5-9.9,19.7c-7.4,10.9-10.2,16.2-14.7,27.5
		c-7.4,18.5-13,51.8-8.7,51.8c3.6,0,48.8-24.8,69.8-38.3c3.1-2.1,5.7-3.6,5.7-3.4c0,2.8-20.6,40.9-42.5,78.7c-4.3,7.4-9.3,16-11,19
		c-7.5,13-49,82.7-54.5,91.5c-2,3.3-8.8,14.3-15,24.5c-13.6,22.3-36.1,58.6-40.5,65.5c-1.8,2.7-8.9,13.8-15.8,24.6
		c-19.5,30.4-33.2,49.7-34.4,48.6c-0.4-0.5,0.7-3.5,9.1-24.1c3.1-7.6,7.1-16,8.8-18.6c3.2-4.8,12.6-12,15.7-12c1,0,2.6-0.6,3.6-1.4
		c1.8-1.3,1.6-1.5-2.5-2.6c-7.6-2.1-16.2,0.2-24.7,6.6c-6.2,4.7-11.3,14.2-13.8,25.9l-1.2,6l-0.8-6c-1.5-11.6,2.3-24.6,9.7-33.1
		c3-3.4,15-12.7,32.8-25.4c25.4-18.1,37.4-53.6,22.9-68.1c-11.5-11.5-31-4.2-36.4,13.8c-1.5,4.7-2,14.3-0.9,14.3
		c0.3,0,2.9-2.4,5.7-5.4c5.9-6.2,11.1-8,15.6-5.5c4.5,2.5,5,6.2,1.7,12.5c-1.6,3-4.5,6.7-6.5,8.3c-3.9,3-16.9,10.9-30.2,18.1
		c-8.1,4.4-20.7,15.5-27.3,24l-2.7,3.5l2.5-5c65.4-135.7,118.2-231.3,174-315.3L252.5,296z"/>
	<path id="path94" fill="#CC0000" d="M588.8,310.7c12.2,7.9,28.9,16.2,42.4,21.2c11.1,4.1,14.8,5,34.1,9c4.8,1.1,9,2,9.1,2.2
		c0.7,0.8,5.2,10,11.6,23.9c10.9,23.6,28.8,61.8,33.6,71.7c5,10.3,20.5,43.7,39.6,84.8c19.5,42.1,20.8,45.9,33.8,100
		c1.8,7.1,4.5,18.4,6.1,25c1.7,6.6,4.1,16.3,5.4,21.5c1.3,5.2,3,12.3,3.9,15.7c2.2,8.8,2.1,9.5-2.6,14.8l-4.3,4.7l0.3-8.7
		c0.6-14.6-4.1-26.2-15-36.5l-5.1-4.9l1.6-3.8c0.9-2.1,2.1-6.6,2.8-9.9c3.9-21.3-13.9-49.4-31.3-49.4c-2.6,0-4.9,0.4-5.3,0.9
		c-0.3,0.6,1.9,2.8,4.8,5c8.3,6.1,12.5,11.6,14.9,19.4c2.3,7.7,2.1,13.3-0.7,23l-1.6,5.7l-4.4-3c-13.3-9.1-19.6-26-18-47.9
		c0.5-7.2,1.8-12.9,5.6-24.5c2.7-8.3,4.9-15.7,4.9-16.4c0-2-2.4-1.4-6.7,1.7c-9.1,6.6-15.8,17.5-18.9,30.8
		c-1.8,7.9-2.1,35.3-0.4,42.8c4.1,18.5,10.6,33.1,24.1,54.6c4.5,7.2,9.5,16.3,11.2,20.2c3.5,8.3,4.7,19.1,2.5,21.9
		c-0.7,0.9-4.6,2.5-8.6,3.6l-7.3,2.1l-0.8-2.2c-0.5-1.2-1.9-5.6-3.1-9.7c-9-29.6-21.8-69-30.5-93.5c-2.6-7.2-5-14.2-5.5-15.6
		c-1.5-4.9-13.1-35.6-22.5-59.9c-9.1-23.5-10.8-27.6-25.4-62c-20.4-48.1-34.1-77.5-62.2-132.9c-11-21.6-19.7-39.6-19.4-39.9
		s0.6-0.3,0.8-0.1c0.2,0.2,3,3.8,6.4,7.9c16,20,36.5,49.6,50.5,73c8.5,14.2,20.8,36.5,20.8,37.7c0,0.4,0.9,1.9,1.9,3.2
		c3.3,4.3,3.3,0.4,0-6.1c-16.6-33-47.6-80.4-72.4-110.8c-8-9.8-9.5-12.1-9.5-14.2C580,305.4,581.9,306.3,588.8,310.7z M665.4,463.5
		c-0.6,1.4,2.8,8,24.1,48c6.2,11.5,14.1,26.4,17.5,33c3.5,6.6,6.6,12.4,7,13c0.4,0.5,2.6,4.7,5,9.2c3,6,4.7,8.3,6.1,8.3
		c1,0,1.9-0.3,1.9-0.6c0-0.7-11.4-22.7-21.5-41.4c-3.4-6.3-8.8-16.5-12-22.5c-3.2-6.1-8.1-15.3-10.9-20.5s-7.2-13.4-9.6-18.2
		C668.5,463.1,666.4,460.8,665.4,463.5z"/>
	<path id="path96" fill="#660000" d="M363.4,308c0.1,0-0.4,3.9-1.1,8.7c-1.7,11.1-1.2,31.5,1.2,44.3c1.9,10.1,8.4,30.9,13.3,42.5
		c1.6,3.8,6.6,14.6,11.2,24c4.5,9.3,9.3,19.4,10.6,22.3c2.9,6.4,5.4,6.7,6.6,0.8c0.5-2.1,2.3-6.6,4-9.8c3.6-6.7,9.6-12.2,25.3-23.3
		c9.5-6.7,26.4-22.2,29.8-27.4c0.9-1.4,1.8-2.3,2.1-2c0.2,0.2-0.7,10.7-2,23.4c-2.1,20.8-3.5,35.8-10.4,107.5
		c-1.2,11.8-2.4,23-2.7,24.7c-0.4,2.5-0.2,3.3,1,3.3c1.9,0,2.4-2.3,3.2-13.5c0.6-8.7,3.8-42,9-93.5c1.4-13.5,3-30.6,3.5-38
		c1.3-17.4,1.7-19.4,5.1-26c6.3-12.6,5.8-23.4,5.9,127c0,135.6-0.3,152.5-3.6,182c-0.8,7.4-1.9,17.7-2.4,22.9
		c-1.1,10.2-4.5,30.2-8.5,50.1c-1.4,6.9-3.7,18.1-5,25c-1.4,6.9-3,19.9-3.6,29l-1.1,16.5l-3.1,3.2c-1.8,1.9-5.8,4.2-9.2,5.4
		c-5.7,2-7.2,2.1-33.5,1.6c-49.1-1-90.6-4.7-125.5-11.2c-7.1-1.4-14.8-2.7-17-3c-4.2-0.7-17.6-3.9-33.5-8.2
		c-5.2-1.4-12.3-3.2-15.7-3.9s-7.3-2-8.7-2.9c-5-3.3-5.8-11.4-2.6-26.8c4.5-21.6,13-37.5,23.7-44.6c14.1-9.4,27.9-9.6,39.6-0.6
		c3,2.2,3.6,2.3,4.7,1c1.8-2.2,2.4-9.7,1.1-13.7c-1.6-4.7-7.4-10.4-12.7-12.4c-11.4-4.3-40.7,2.1-62.3,13.7
		c-14.7,7.9-25.1,18.2-30.6,30.1c-3.1,6.7-4.3,19.3-2.7,27.8c0.6,3,0.9,5.6,0.7,5.8c-0.7,0.8-11.4-14.7-14-20.2
		c-5.4-11.7-5.4-26.6,0-34.8c3.5-5.2,8.5-8.6,20.1-13.7c26.6-11.6,31.5-14,39.9-19.5c16.6-10.9,29.1-25,35.6-40.4
		c3.2-7.4,3.3-8.2,3.3-20.7s-0.1-13.3-3.4-21.5c-2.9-7-4.6-9.7-10.1-15.3c-4.1-4.1-7.5-6.7-8.8-6.7c-2.5,0-2.5-0.8-0.6,11.8
		c3.7,24.3-5,42-25.5,52c-8,3.9-26.3,8.9-39,10.7c-7.7,1-23.5,6.4-29.6,10.1c-8.3,5-13,9.9-16.7,17.4c-3.1,6.2-3.2,7-3.1,17.5
		c0.2,12,1.7,17.4,13.3,48c2.7,7.1,4.7,13.2,4.5,13.4c-0.5,0.6-18.6-10.3-31.4-19c-6.3-4.3-15.9-11.7-21.3-16.5l-9.9-8.6l2.4-2.7
		c4-4.3,6.8-8.6,21-31.1c7.4-11.8,16.3-25.8,19.6-31c3.3-5.2,10.6-16.7,16.2-25.5s17.1-26.8,25.5-40c72.1-113,99-158.4,137-232
		c4.8-9.4,9.5-17.8,10.4-18.9c1.4-1.6,50.4-38.9,53.8-40.9c0.7-0.4-0.8,3.1-3.3,7.7c-8.8,16.6-23.9,50.1-35.4,78.6
		c-6,14.9-18.9,52.2-21.4,62c-0.8,3-1.8,6.3-2.1,7.2c-0.5,1.2-0.2,1.8,0.6,1.8c0.9,0,3.7-7,7.8-19.8c6.1-18.5,8.9-26.6,14.8-42.2
		c11.9-31.4,27.5-65.8,41-90.8C361.2,311.7,363.3,308,363.4,308z"/>
	<path id="path98" fill="#660000" d="M584.4,332.1c0.9,0.9,31.6,62.8,41,82.7c9,18.9,22.2,48.1,28.7,63.2c1.5,3.6,4.4,10.3,6.4,15
		s4.5,10.5,5.5,13s3.6,9,5.9,14.5c8.7,20.8,17.1,42.4,26.5,68c6.2,16.7,8.2,22.2,15,41c1.4,3.8,6.6,19.4,11.5,34.5
		c8.8,26.8,10.3,31.3,17.6,54.7c1.9,6.2,3.5,12.9,3.5,14.9c0,2.5,1.8,6.8,6,14.4c3.3,6,6,11.2,6,11.7c0,0.6-24.2,13.6-28,15.1
		c-0.5,0.2-0.4-1.4,0.1-3.5c3.3-14.3-2.3-33.7-14.3-49.7c-9.2-12.2-10.7-13.5-53.3-45.1c-25.4-18.8-36.7-32-42.2-49.3
		c-4.9-15.2-2-28.1,6.7-29.9c3.9-0.7,5.9-3.1,3.9-4.4c-3.8-2.5-17.1,3.1-22.4,9.5c-1.9,2.3-4.9,7.3-6.7,11.2
		c-3.3,6.9-3.3,6.9-3.3,22.4c0,14.6,0.2,16,3.1,24.5c7.3,21.5,18.8,34.6,45.4,51.5c26.1,16.5,36.5,28.4,42.1,48
		c1.1,3.6,1.9,6.8,1.9,7.2s-3.3-0.4-7.2-1.8c-4.3-1.5-11.4-2.9-17.3-3.5c-18.5-1.7-52-5-55.5-5.4c-13.3-1.9-30.7-13-32.9-21.2
		c-2.3-8.2,5.1-18.3,13.5-18.3c3.9,0,9.5,3.7,11.3,7.5c0.8,1.6,1.5,5.4,1.5,8.5c0.1,4.8,0.4,5.5,2.2,5.8c3.3,0.5,10.6-5.7,13.4-11.3
		c1.9-3.8,2.5-6.5,2.5-11.5c-0.1-8.4-2.8-14.5-9.4-20.9c-5.9-5.8-11.6-8-22.1-8.8c-31.3-2.2-53.5,26.8-45.4,59.6
		c5.9,23.9,28.2,42.7,53.1,44.6c27.8,2.2,46.9,5.5,53.6,9.4l5,2.9l-6.4,2c-7.3,2.4-27.7,8.1-31.1,8.7c-1.3,0.3-7.2,1.6-13.3,2.9
		c-15,3.4-37.7,7.5-45,8.2c-3.3,0.3-11.8,1.2-19,2.1c-13.8,1.6-73.7,3.1-80,1.9l-3.5-0.7v-5.5c0-3,0.7-10.1,1.6-15.7
		c2.7-18.1,7.4-45.8,9.9-59.2c4.6-24,7.6-43.9,8.5-56.5c0.6-6.9,1.5-18.4,2.1-25.5c0.8-9.1,1.1-56.4,1-157.9
		c-0.2-141.2,0.1-159.1,2.8-164.3c1-1.9,33.1,29.6,33.1,32.4c0,1.2,1.4,8.1,3.1,15.5c5.1,22.2,8.5,37.7,11.4,50.8
		c1.4,6.9,4.2,19.3,6.1,27.7c1.9,8.3,3.4,15.4,3.4,15.7c0,0.3,0.7,0.6,1.6,0.6c1,0,1.3-0.6,1-1.8c-0.5-1.6-5-22.4-8.2-37.7
		c-0.8-3.9-2.5-11.7-3.8-17.5c-3.2-13.9-8.1-36-9.6-43.5c-0.7-3.3-1.5-6.7-1.8-7.5s9.2,7.9,21.1,19.3c11.9,11.5,22.1,20.6,22.6,20.3
		c1.7-1.1,8-15.3,11.7-26.7c4.4-13.7,7.4-32.6,7.4-47.8C584,336.8,584.2,331.9,584.4,332.1z"/>
	<path id="path100" fill="#6666FF" d="M142.8,562.3c2.3,4.4,2.2,17.3-0.2,24.7c-5.3,15.8-13.3,25.7-30.7,38.1
		c-24.4,17.2-31.8,24.6-36.6,36.1c-3.7,8.8-4.3,21.5-1.5,32.4c1.1,4.3,2.3,9.6,2.7,11.8l0.6,3.8l-3.8-2.3c-2.1-1.2-8.3-5.1-13.7-8.7
		l-9.9-6.3l0.7-9.2c1.6-23.2,9.3-40.6,24.3-54.8c7.4-7.1,15-12.1,29.1-19.4c17.5-9.1,28.2-19.9,28.2-28.5c0-4.8-5.5-10-10.6-10
		c-3.9,0-9,2.4-13.1,6.3l-2.3,2v-3.2c0-6.7,6.9-16.3,14-19.6C127.5,552.2,139.1,555.6,142.8,562.3z"/>
	<path id="path102" fill="#6666FF" d="M747.9,563.7c-0.6,1.6-2.4,8-4.1,14.3c-6.5,25.1-4.4,43.8,6.7,58.8c3.5,4.8,7,7.7,18.6,15.4
		c7.9,5.2,16.1,11.3,18.1,13.6c9.1,10.1,12.9,25.3,9.7,39c-1.4,5.9-6.9,11.2-17.7,16.9l-7.7,4.2l-0.1-5.7
		c-0.2-11-4.6-22.4-14.6-38.7c-22.9-36.8-29.5-62.2-23.9-91.4c2.1-10.8,4.3-15.9,10.2-23.9C747.4,560.5,749.6,559.4,747.9,563.7z"/>
	<path id="path104" fill="#6666FF" d="M761.9,597.8l3.1,1.9c13.9,8,21.8,33.7,15,48.9l-1.9,4.5l-4.1-2.3c-2.2-1.3-4-2.6-4-3
		s1-3.1,2.1-6c1.6-4,2.1-7.6,2.2-14.3c0.1-10.3-2-16.1-8.7-24.8L761.9,597.8z"/>
	<path id="path106" fill="#6666FF" d="M616.1,600.1c0.4-0.1,0,1.8-0.8,4.1c-1.1,3.1-1.4,6.8-1,13.3c0.4,7.6,1,10.2,4.1,16.9
		c7.3,15.9,18.6,28.2,40.5,44.1c41.5,30.1,49.9,37.5,58,51.2c7.1,12,9.5,20.2,9.6,32.4c0,7.1-0.4,11.4-1.4,13.2
		c-1,1.9-4.5,3.9-13.9,7.9c-7,2.9-12.9,5.4-13.3,5.6c-0.4,0.2-1-2.8-1.4-6.5c-3.7-37.7-13.4-52.9-46.5-73.3
		c-29.5-18.2-42.3-34.2-46.6-58.5c-3.5-19.9-0.7-34.4,8.8-46.2C614,602,615.8,600.1,616.1,600.1z"/>
	<path id="path108" fill="#6666FF" d="M233.2,603.8l3.5,3.3c13.9,13.5,16.2,40.2,5,59.9c-11.7,20.9-25.7,31.4-61.2,46.5
		c-16.4,7-22.2,10.3-27,15.7c-8.7,9.6-10.6,21.6-5.9,35.6c2.7,8.1,6.1,14.3,12.5,23c2.2,2.8,3.6,5.2,3.2,5.1
		c-0.4,0-5.9-2.6-12.2-5.7l-11.4-5.7l-3.2-8.5c-1.8-4.7-4.4-11.7-5.8-15.5c-1.4-3.9-4.1-11.3-6-16.5c-1.9-5.3-4.1-12.3-4.7-15.8
		c-2.6-13.1,0.8-26.1,8.9-34c4.7-4.6,15.2-10.3,23.1-12.6c6.5-1.9,26.6-6.2,33-7.1c7-1,18.9-5.3,25.1-9.1c7.3-4.4,16-13.8,19.3-20.8
		c5.1-10.9,7-24.1,4.7-34L233.2,603.8z"/>
	<path id="path110" fill="#6666FF" d="M106.9,655.8c-10.3,6.6-16.3,17.2-24.7,43.7l-1.6,5l-0.7-4c-0.8-4.2,0.3-16.9,2.1-23.4
		c1.5-5.8,8.4-15.7,13-18.7c2.3-1.5,6.2-3.3,8.8-4C111.1,652.4,111.8,652.8,106.9,655.8z"/>
	<path id="path112" fill="#CC0033" d="M50.4,663.1c-0.9,2.4-2,9.1-2.4,14.8c-0.5,5.7-1.1,10.6-1.4,10.9c-0.3,0.2-2.1-0.9-3.9-2.5
		l-3.4-3l6-12.6C51.3,657.9,53.4,654.9,50.4,663.1z"/>
	<path id="path114" fill="#6666FF" d="M610.8,698.3c9.9,9.5,10.9,22.9,2.4,31.9c-3.1,3.4-4.2,3.5-4.2,0.5c0-4.2-4.6-12.3-8.3-14.6
		c-5.7-3.5-9.7-3.7-15.9-0.8c-6.4,2.9-9.6,6.8-10.4,12.9c-1.7,12.6,8.2,23.7,26.6,29.6c9.1,2.9,16.2,4.2,22.8,4.2
		c11,0,40.8,3.1,49.1,5.1c12,2.9,19.1,5.7,19.2,7.7c0.4,5.8-0.5,14.9-1.5,16c-0.7,0.7-7.2,3.4-14.4,6.1l-13.1,4.8l-2.8-1.9
		c-7.4-5.1-17.7-8.6-27.5-9.3c-33.5-2.7-43.3-4.6-55.1-10.7c-13.7-7.2-22-16.6-27.3-31.3c-4.9-13.4-4-25,2.8-37.7
		c5.3-9.9,16.8-18.4,28.1-20.8C590.9,688,603.8,691.6,610.8,698.3z"/>
	<path id="path116" fill="#6666FF" d="M264.3,717.7c4.3,2.5,7.7,7.8,7.7,11.9c0,1.9-0.2,3.4-0.4,3.4c-0.2,0-3-1.2-6.2-2.7
		c-5.2-2.4-7.1-2.8-15.4-2.8c-8.5,0-10.2,0.4-15.5,2.9c-8,3.9-17.9,14-22.7,23.1c-2,3.8-5.3,13.1-7.4,20.5
		c-3.1,11.3-3.7,15.1-3.7,23.2c0,5.4-0.3,9.8-0.7,9.8s-5.2-1.6-10.6-3.6c-11.5-4.2-14.3-6.7-17.4-15.8c-3.8-11.2-2-25.3,4.5-35.6
		c10.7-16.9,34.8-30.7,62.2-35.5C248.8,714.7,260,715.3,264.3,717.7z"/>
	<path d="M542.2,5c2.7,0,3.7,13.7,1.7,24.4c-0.6,3.2-0.9,6-0.6,6.2c0.2,0.2,2.1-1.1,4.3-2.9c10.5-9,10.6-7.1,0.7,32.3
		c-3.8,15.4-4.3,18.3-3.7,24.2c0.6,6.5,0.9,7,8.7,17c9,11.5,17.1,23.6,22.8,34c5.2,9.4,12.9,26.3,12.9,28.3c0,2.7-3.5,1.6-10.6-3.1
		c-6.2-4.1-17.5-10.4-18.9-10.4c-0.3,0-0.5,7.2-0.5,15.9c0,8.8-0.3,16.6-0.6,17.5c-1,2.7-4,0.1-10.6-9.5c-3.5-4.9-6.4-8.6-6.6-8.1
		c-0.5,1.7,6.6,27.4,8.1,28.9c0.8,0.8,8.6,4.3,17.3,7.9c9.6,3.8,16.4,7.1,17.3,8.4c0.7,1.1,2.2,2,3.3,2c3.1,0,17.8,6,24.8,10.1
		c20.8,12.2,36.3,30.9,57.7,69.4c5.5,9.9,13.9,24.5,18.7,32.5c4.7,7.9,8.6,15.2,8.6,16.2c0,2.9-2.6,3.2-8.1,0.8
		c-2.8-1.2-5.3-1.9-5.5-1.7c-0.4,0.4,12,27.8,24.8,54.7c2.8,5.8,9.7,20.4,15.3,32.5c5.7,12.1,15.6,33.2,22,47
		c24.7,52.8,31.5,67.6,34.4,75.2c4.4,11.3,9.5,27.9,13.1,42.8c1.7,7.1,4.5,18.6,6.1,25.5c4.8,19.8,8.8,35.8,11.4,45.5
		c1.3,4.9,2.7,10.7,3.1,12.7c0.3,2.1,1,3.8,1.5,3.8s0.9,2.7,0.9,6s-0.4,6-0.8,6s-1.4,1.5-2,3.4c-1.5,4-12.4,14.6-21.2,20.6
		s-20.2,11.4-29.7,14.1c-4.6,1.3-8.3,2.6-8.3,3c0,0.3,2.7,5.6,6.1,11.8c5.8,10.8,6,11.3,4.3,13.2c-2.7,3-48,25-66.4,32.2
		c-30.7,12.1-79,26.4-98.5,29.2c-2.2,0.3-9.8,1.6-17,2.9c-29,5.3-56.6,7.6-93.1,7.6h-31.1l-4.3,3.1c-2.4,1.8-6.9,4.1-9.9,5.2
		c-5.3,1.8-7.4,1.9-36.6,1.3c-17-0.3-35.7-1-41.5-1.5s-15.2-1.3-21-1.6s-15.2-1.2-21-2c-5.8-0.7-14.5-1.9-19.5-2.5
		c-43.7-5.4-96.2-18.9-134-34.3c-34.2-14-73.8-37.4-93.4-55.1c-3.7-3.4-8.5-7.5-10.7-9.2l-3.9-3.2l2.4-3.3c1.4-1.9,4.7-6,7.4-9.2
		c2.8-3.1,4.8-5.9,4.6-6c-0.2-0.2-4.7-2.9-9.9-6.1c-12.5-7.7-35-24.5-35-26.1c0-0.8,0.4-1.7,1-2c0.5-0.3,21.2-41.2,45.9-90.8
		c24.8-49.6,48.4-96.7,52.7-104.7c17.5-33.2,38.2-69.8,56.4-100c18.6-30.8,27.1-44.2,46.7-73.3c12.8-19.1,17.3-26.6,17.3-28.8
		c0-4.7,1.3-6.4,16.6-22c13.8-14,16-16.9,13.1-16.9c-0.7,0-2.2-0.6-3.2-1.4c-1.7-1.2-1.8-1.8-0.6-5.5c1.2-4.1,1.3-4.2,4.7-3.5
		c2.7,0.5,3.4,0.3,3.4-1c0-0.9,1.3-5.7,2.9-10.8c4.8-15.5,4.6-16-2.4-4.4c-3.5,6.1-6.9,11.4-7.4,11.9c-4.9,4.9-11.3-23.6-9.3-41
		c0.6-4.8,1-8.9,0.9-9s-2.9,1.9-6.2,4.4c-5.9,4.5-14.2,8.9-18.7,9.9c-12.9,2.9-20.8,2.8-20.8-0.1c0-1.4,11.4-18.3,21.8-32.4
		c10.2-13.8,11.9-16,17.7-23.1c3.3-3.9,7.1-8.8,8.5-10.9c1.3-2,7.9-11.3,14.5-20.6c18.7-26.1,17.7-24.4,16.9-30.5
		c-0.7-5.2-0.6-5.3,3-8.4c2.5-2.1,4-4.4,4.6-7.1c0.5-2.2,1-13.9,1-26c0-22.7,0.6-26.3,3.6-23.4c1.6,1.7,8.6,21.6,9.8,28.2
		c0.4,2,1.1,3.7,1.6,3.7c0.9,0,9-16.4,9-18.3c0-0.5,1.4-3.4,3.2-6.5c2.8-4.9,3.3-5.3,4.4-3.8c0.7,1,1.5,5.7,1.9,10.4
		c0.3,4.8,0.9,10.6,1.3,13l0.7,4.3l3.5-2.3c2.6-1.7,4.7-4.8,8.1-11.8c5.1-10.4,7.2-11.9,7.7-5.3c0.3,4.5-2.2,19.2-3.8,22.3
		c-0.5,1-1.5,3.1-2,4.6c-1,2.6-1,2.7,2.5,2.1c4.8-0.8,14.2-5.2,18.5-8.6c5.1-4.1,7.6-4.7,8.3-2c0.3,1.2-0.1,3.5-0.9,5
		c-0.7,1.5-1.4,3.7-1.4,4.9c0,2.9,4.4,11.2,8.2,15.5l3.1,3.6l3.3-8c3.3-8.3,8-16.2,10.1-16.8c0.6-0.2,1.7,1.3,2.3,3.4
		c1.4,4.4,3.7,8.3,4.9,8.3c0.4,0,1.4-1.9,2.1-4.3c1.4-4.9,5.5-13.3,6.9-14.1c0.5-0.4,2.9,2.8,5.3,6.9c2.3,4.1,4.5,7.4,4.8,7.5
		c0.3,0,2.3-3.4,4.3-7.6l3.8-7.7l4.3,4.2c2.3,2.2,4.4,4.1,4.7,4.1s1.1-1.7,1.7-3.9c0.7-2.1,1.8-4.4,2.6-5c1.7-1.4,2.5-0.4,10.1,11.8
		c5.2,8.3,6,9.1,6.6,7c0.3-1.3,1.7-6.8,3-12.1c2.7-11.3,2.7-11.3,9.6-0.6c2.3,3.8,4.5,6.8,4.7,6.8c0.3,0,1.9-3.7,3.6-8.3
		c1.8-4.5,3.4-8.4,3.6-8.6c0.7-0.8,5.5,4.2,10,10.3c2.4,3.2,4.4,5.7,4.4,5.5c0.2-4.6,2.1-18.3,2.5-18.7c0.3-0.4,1.4-0.1,2.5,0.6
		c1.6,1,1.9,0.8,2.5-1.8c0.3-1.6,2.5-5.7,4.8-9.1s5.1-7.7,6.2-9.5c1.2-1.8,2.9-4.2,3.9-5.3C540.5,5.9,541.7,5,542.2,5z M539.7,18.3
		c-0.8-0.8-4.4,6.7-7.2,15.1c-2.5,7.5-3.5,17-1.4,13.3c0.5-0.9,1.7-1.7,2.4-1.7c0.8,0,1.5-0.2,1.5-0.5s1.2-6.2,2.6-13.1
		C539,24.5,539.9,18.6,539.7,18.3z M342.8,34l-0.3-8.4l-7.3,14.8l-7.3,14.8l0.3,8.6c0.2,5.5,0.7,8.7,1.5,8.9
		c2.5,0.9,10-14.4,12.3-24.9C342.6,44.9,343,38.7,342.8,34z M319,29c-1.1,0-3.3,39.1-2.3,40.1c0.5,0.5,2.3,1.1,4,1.5l3.1,0.6
		l0.4-5.8c0.4-8.2-0.5-18.5-2.7-28.2C320.4,32.7,319.3,29,319,29z M361.7,37.4c-0.2-0.3-1.6,1.1-3.1,3.1c-1.5,1.9-4.5,4.4-6.7,5.5
		c-4.3,2.3-7.3,6.4-9,12.3c-0.5,2.1-2.6,6.8-4.6,10.3c-1.9,3.6-3.3,6.8-2.9,7.1c0.9,0.9,5.6-2.6,10.8-7.9c6-6.2,12.1-16.5,14.3-24.2
		C361.4,40.4,361.9,37.6,361.7,37.4z M549.6,38.3c-0.1-0.1-2.4,1.6-5.1,3.8c-2.6,2.2-5.4,4.3-6.2,4.8c-1.3,0.7-1.3,1.5,0.1,6.1
		c0.9,3,1.6,7.3,1.6,9.7c0,3.8-2.1,16.5-3.6,21.5c-0.3,1-0.1,1.8,0.4,1.8s1.6-2.6,2.5-5.8c0.9-3.1,2.8-9.9,4.3-15.1
		c1.4-5.2,3.4-13.3,4.4-18S549.7,38.4,549.6,38.3z M526.6,47.5l-3.3-7l-2.3,7.3c-1.9,6.2-2.1,8.3-1.4,13c0.5,3.2,0.9,10.6,0.9,16.5
		c0,12.2-0.3,12.3,6-4c2.2-5.9,3.5-11,3.5-14C530,55.9,529,52.4,526.6,47.5z M504.9,42c-0.3,0-2,3.4-3.9,7.6l-3.3,7.6l2.1,6.1
		c4.9,14.2,5.3,25.7,1.3,37.3c-1.1,3.3-1.8,6-1.7,6.1c0.8,0.8,8.4-2.2,9.8-3.8c0.9-1.1,3.1-5.7,4.9-10.2c2.8-7.1,3.2-9.4,3.2-17.2
		c0-10.4-3.1-20.7-8.6-28.7C507,44.1,505.2,42,504.9,42z M487.7,47.7l-2.2-2.9l-2.7,10.8l-2.6,10.8l1.9,3.8
		c4.1,7.9,7.2,20.2,7.8,30.2l0.6,9.8l2.6-2.6c3.4-3.4,6-11.4,6.6-20.6c0.6-9.1-2.3-22.5-6.8-31C491.3,53,489,49.2,487.7,47.7z
		 M463.3,46.3c-0.6-0.2-1.4,1.4-1.8,3.6c-0.5,3,0.1,6.2,2.5,13.8c2.7,8.3,3.2,11.3,3.1,19.6c0,10.4-1.4,16.8-5.7,26.5
		c-1.3,3-2.2,5.7-2,6c0.8,0.7,23.7-4.7,25.2-5.9c3.2-2.6,0.8-21.3-4.2-33.9c-1.9-4.7-6.3-13.2-9.8-18.9
		C467.2,51.3,463.9,46.5,463.3,46.3z M430.5,47c-0.6,0-2.5,4.6-2.5,6c0,0.6-1.2,4.9-2.7,9.7c-2.4,7.8-2.7,10.5-2.7,23.8
		c-0.1,14,0.1,15.6,2.8,23.7c1.6,4.8,3.4,8.9,4,9.1c2.1,0.8,5.5-1.2,7.1-4.3c2.4-4.6,5.5-20.6,5.5-28.5c0-10-3.3-24.1-7.5-32.4
		C432.6,50.2,430.7,47,430.5,47z M450.1,47c-0.3,0-2.3,2.8-4.5,6.3c-3.7,5.9-3.8,6.4-2.7,10.2c4,14,3.9,34-0.4,46.4
		c-1.4,4.1-2.5,7.7-2.5,7.9c0,1.3,11.5-0.9,13.1-2.5c1-1,3.5-5.9,5.5-10.8c3.8-8.9,3.8-9.1,3.8-22.5c0-12.6-0.2-13.9-2.8-19.5
		c-1.5-3.3-4.1-8.1-5.8-10.7C452.2,49.1,450.5,47,450.1,47z M384.8,49.5c-0.2-0.1-1.6,0.6-3.3,1.6c-3.7,2.3-18.9,7.9-21.4,7.9
		c-1.6,0-17.1,17.3-17.1,19.1c0,0.4,2.1,2.4,4.6,4.4l4.6,3.8l3.5-1.9c8.7-4.6,21.4-18.8,27.2-30.2C384.1,51.8,385,49.7,384.8,49.5z
		 M412.4,55c-1.2,0-6.8,14.3-8.6,22c-2.9,12.3-2.3,22.6,2.1,31.4c3.7,7.7,8.4,11.8,13.5,11.9c2,0.1,3.8-0.2,4.1-0.5
		c0.3-0.3-0.6-4.6-2-9.4c-3.3-10.8-4.3-26.9-2.6-38l1.2-7.4l-3.6-5C414.5,57.2,412.6,55,412.4,55z M535.5,56.2
		c-0.1-0.1-1.4,3.7-2.9,8.5c-3.1,10.2-6.5,18.3-11.3,27.2c-1.8,3.5-3.2,6.5-2.9,6.8c0.2,0.2,1.7-0.2,3.3-1
		c7.7-4.1,12.2-14.2,13.3-30.2C535.4,61.4,535.7,56.4,535.5,56.2z M385.8,59.9c-0.4-1.2-8.8,10.7-8.8,12.4c0,0.7,0.5,3,1.1,5.2
		l1.1,3.9l1.4-2.6c0.7-1.4,2.3-6,3.4-10.2C385.2,64.4,386,60.5,385.8,59.9z M398.5,76.3l-4.5-5.2l-4.5-5.3l-1.6,4.4
		c-1,2.4-2.9,7-4.3,10.4l-2.5,6l2.5,10c1.4,5.4,3.3,12.6,4.1,15.9s1.9,6.5,2.5,7.2c0.7,0.9,4,1.3,9.9,1.3c4.9,0,8.9-0.2,8.9-0.4
		c0-0.3-1.4-2-3-3.8c-6.4-7-7.5-10.8-7.5-26.4V76.3z M311.3,72c-0.7,0-1.7,1-2.4,2.1c-1.8,3.5,0.2,6.3,6.2,8.6
		c3,1.1,10.5,4.2,16.8,6.8c12.4,5.2,17.3,6.1,17.9,3.3c0.5-2.5-6.3-9.4-11.1-11.2c-2.3-0.8-9.1-3.3-15.2-5.5
		C317.5,73.9,312,72,311.3,72z M373.8,76.5c-0.2-0.2-4.8,2.8-10.1,6.8c-10.9,8-11.2,8.8-7.6,16.7c10,21.6,12.1,41.9,6.5,63.5
		c-3.4,13.1-6.9,28.6-6.5,29c0.2,0.2,2.4-0.1,4.9-0.6c2.5-0.6,11.9-1.2,21-1.4c9-0.3,16.7-0.8,17.1-1.3c0.4-0.4,1.2-2.3,1.8-4.3
		c1.4-4.3,1.4-4.4-12.9-56.4c-2.6-9.6-7.8-28.9-11.9-44.3C375.1,80.2,374,76.7,373.8,76.5z M310.2,85.1c-0.4,0-4.6,5.5-9.4,12.2
		c-9.1,12.8-58.7,81.6-65,90.2c-2,2.7-3.5,5.2-3.3,5.4c0.9,0.8,15.2-3.2,20-5.6c11.6-5.9,21.5-15.8,23-23.3c2.7-13,9.2-29.1,17-42.1
		c6.2-10.3,11-16.5,20.4-26.1c3.6-3.7,6.3-6.9,6-7.1c-0.2-0.1-2.1-1-4.2-2C312.6,85.8,310.6,85,310.2,85.1z M324.1,91
		c-2.1,0-13.4,12.1-20.6,22.1c-11,15.3-17.9,31.6-25,59.1c-3.1,12.2-3.5,15-3.5,26.5c0,11.1,1.5,22.2,3.3,23.9
		c0.2,0.3,3.8-5.5,7.9-12.8s10.5-18.4,14.1-24.6c3.6-6.2,8.3-15.9,10.6-21.6c5.6-14.3,14.4-43.8,17.2-57.5l2.3-11.4l-2.3-1.8
		C326.8,91.8,325,91,324.1,91z M335,95c-0.5,0-1.3,2.6-1.9,5.7c-1.9,9.9-7.1,29.1-12.7,46.8c-11.2,35.6-10.8,33.4-10.8,50
		c-0.1,13.9,0.1,15.4,2.3,19.9c1.3,2.7,3.8,6.4,5.4,8.3l3,3.4l1.9-7.3c2.6-10.7,8.1-20.9,14.9-28.2l5.9-6.3l0.1-38.4
		c0.1-42-0.4-47.9-4.7-51.7C337,96,335.5,95,335,95z M347.9,99c-3.1,0-3.1,0.1-2.5,3.7c2.3,13.5,2.8,25,2,41.8
		c-1.8,35.6-0.7,52.9,3.2,54.2c0.5,0.2,1.5-3.4,2.2-7.9c0.7-4.6,2.6-13.5,4.2-19.8c6.8-27.7,6-45.4-3.1-65.8
		C351.3,99.5,350.8,99,347.9,99z M536.7,99.1c-5.2,0.1-6.7,0.6-6.7,2.5c0,3.9,16,32.2,23.2,41.2c3.5,4.4,6.3,6.4,15.6,11.2
		c6.1,3.2,11.2,5.6,11.2,5.2c0-0.3-2.8-5.7-6.1-12.1c-7.3-13.8-15.5-26.3-25.6-38.9C541.1,99.2,540.9,99,536.7,99.1z M525,100.1
		c-0.7,0-6,2.9-6,3.2c0,0.3,2.5,6.5,11.7,28.7c2,4.7,4.6,11,5.8,14c6.7,16.3,8.7,20.4,13.1,27.3c2.7,4.2,5.3,7.6,5.8,7.6
		c0.5,0.1,0.6-4.9,0.3-11.8c-0.8-14.2-1.5-16.1-12.8-36.7c-4.6-8.3-10.4-18.9-12.9-23.7C527.5,103.9,525.3,100,525,100.1z
		 M515.1,105c-0.3,0-1.6,2.4-2.7,5.3c-1.2,2.8-3.3,7.8-4.6,10.9c-2.4,5.5-2.4,5.9-1.2,15c2,14.1,10.3,35.6,17.2,44.6l1.8,2.4
		l2.3-8.9c1.2-4.8,3.3-11.2,4.7-14.2c1.4-2.9,2.4-6.1,2.1-7c-0.2-1-4.6-12.1-9.7-24.9S515.5,105,515.1,105z M504.7,109.1
		c-5.6,0.4-27.8,6.5-29.3,8.1c-3,3.1-12,32.5-13.9,45c-3.6,23.6-0.8,40.4,9.3,56c3.3,5.1,4.1,5.8,7,5.8c4.2,0,30.1-9.6,30.2-11.1
		c0-0.4-1.2-1-2.6-1.3c-3.4-0.9-11.1-8.1-13.4-12.6c-2.7-5.3-5-15-5-21.1c0-7.3,3.5-26.5,6.6-36.9c1.4-4.7,4.8-13.8,7.4-20.3
		C503.7,114.2,505.3,109,504.7,109.1z M471.9,117l-2.7,0.1c-1.5,0.1-7.2,1-12.7,2c-12,2.2-34.1,3.9-52.2,3.9
		c-7.3,0-13.3,0.2-13.3,0.4c0,0.2,1.4,5.5,3,11.7c1.7,6.3,4.2,15.7,5.6,20.9c1.3,5.2,3.2,11.7,4.1,14.5c2.7,8.1,2.2,16.3-1.2,22
		c-3.4,5.9-7.4,9.7-12.7,12.1l-3.9,1.8l3.8,2.3c12.5,7.8,27.7,13.6,41.8,16c9.6,1.7,30.4,2.2,36.8,0.9c3.6-0.7,3.8-0.9,2.4-2.4
		c-3.2-3.6-7.7-12.5-10.3-20.4c-2.6-7.6-2.8-9.6-2.9-23.3c0-12.5,0.4-16.6,2.4-24.5c2.7-10.9,8.1-28.8,10.4-34.3L471.9,117z
		 M501.7,136c-0.1,0-1.7,6.1-3.5,13.5l-3.3,13.5l3.1,7.6c4.6,11.6,4.2,11.5,8.4,2.1l3.8-8.4l-1.6-5.4c-0.9-3-2.7-9.3-4.1-14.2
		C503.1,139.9,501.8,136,501.7,136z M535.3,165c-0.5,0-1.9,4.4-3.2,9.7c-3.2,13.6-3.6,14.6-4.9,15.1c-0.6,0.2-3.2-2.5-5.8-6
		s-4.4-5.4-4-4.3s1,3.3,1.3,5c0.9,5.4,2.5,8.5,4.7,9c1.1,0.2,4.6,0.9,7.6,1.5s6.5,1.3,7.7,1.6c3.1,0.8,3-0.8-0.7-17.1
		c-1.6-7.1-2.6-13.3-2.4-13.7C535.9,165.4,535.7,165,535.3,165z M508.5,177.2c-2.3,7.5-4.7,12.8-5.6,12.8c-1,0-5.2-8-6.9-13.5
		c-1.1-3.4-1.4-3.7-2.1-2c-1.3,3.4-0.9,10.8,1,16c1.6,4.7,2,5,5.1,5.1c2.8,0,15.9-2.4,16.8-3.1c0.1-0.1-0.6-2.6-1.7-5.6
		c-1-3-2.2-7.4-2.6-9.7C511.5,171.2,510.4,171.2,508.5,177.2z M305.1,199c-0.5-9.3-0.8-10.8-1.5-8c-1.3,5.4-7.4,26.8-9.6,33.5
		c-1,3.3-2.1,7.4-2.5,9.1l-0.6,3.2l6.8,1.5c3.7,0.8,7,1.4,7.1,1.2c0.9-0.9,4.2-15.2,4.2-17.9c-0.1-1.7-0.8-4.9-1.7-7.1
		C306.3,212.1,305.4,206,305.1,199z M340.9,195.6c-1.2,1.4-1.1,1.6,0.5,1.3c1.1-0.2,2.1-1,2.4-1.7
		C344.3,193.5,342.5,193.7,340.9,195.6z M383.8,196.1c-9.7,0.2-10.2,0.2-21.1,2c-6.1,1-6.8,1.3-7.3,3.7c-1.5,6.7-1.2,6.6-5.9,2.3
		c-3.9-3.6-4.6-3.9-7.8-3.1c-2,0.4-4.9,1.7-6.5,2.8c-3.6,2.6-8,12.1-9.3,20.4c-1.6,10.1-1.8,10.8-3.6,10.8c-0.9,0-3.8-2.3-6.4-5
		l-4.7-5l-1.1,5c-0.6,2.8-1.1,6.3-1.1,7.7v2.6l10.3-0.6c12.2-0.6,27.4-3.8,37.7-7.9c7-2.8,30.4-16.1,31.6-17.9
		c0.6-1-6.2-5.6-9.7-6.4c-4.6-1.1-13.3,2.4-22.6,9.1c-3.3,2.4-2.9-0.1,0.5-3.3c3.8-3.6,11.6-7,19.2-8.3c6.6-1.1,16-5.5,16.8-7.8
		C393.1,196.3,390.9,196,383.8,196.1z M516.5,199.1c-3.2,0-12.2,2.2-13.1,3.2c-1.1,1.1,14.3,7.6,26.6,11.2c13.7,4,17.8,6.2,9.5,5.1
		c-2.7-0.4-8.7-1.6-13.1-2.7c-4.5-1-9-1.9-10-1.9c-1.1,0.1-5.2,1.8-9.3,3.9l-7.5,3.8l2.9,1.9c1.6,1,5.8,2.9,9.4,4.1
		c6.1,2.1,8.1,2.2,26.1,2c18.2-0.3,20-0.5,26.9-3c6.5-2.3,13.4-6.9,12-8c-1-1-25.3-10.8-33.4-13.7c-4.9-1.7-12.4-3.8-16.5-4.5
		C522.9,199.7,518.2,199,516.5,199.1z M394,217.1c-8.2-0.1-28,16.9-34.2,29.4c-2,3.8-4,8.6-4.6,10.5c-1.4,4.3-3.1,18-2.2,18
		c0.3,0,7.3-2.3,15.5-5.1c8.3-2.8,16.6-5.5,18.5-6.1c6.2-1.8,16.4-7.5,19.7-11c1.8-1.8,5-7.2,7.2-11.9s5-9.7,6.1-11.2
		c1.6-2,1.8-2.8,0.8-3.1c-0.7-0.2-2.8-0.9-4.7-1.5c-5.9-1.9-7.6-1.3-15.9,5.4c-5.9,4.7-9.2,8.4-12.7,14c-2.6,4.1-5.1,7.5-5.6,7.5
		c-2.2,0-0.6-5.9,3.2-11.7c4.3-6.6,9.2-11.5,15.9-15.9l4.2-2.8l-4.4-2.2C398.4,218.1,395.4,217.1,394,217.1z M490.2,224.7
		c-0.8,0.3,2.2,4.1,8,10.2c9.6,9.9,20.8,25.3,20.8,28.3c0,3.7-2.9,1.5-7.8-6c-5.8-8.8-19.4-24.6-24.1-28c-3-2.2-3.6-2.2-8.6-1.2
		c-3,0.6-5.5,1.6-5.5,2.2c0,2.5,4.3,17.4,6.4,22.2c5.2,11.7,14.3,22.7,24.6,29.7c2.5,1.7,12.6,7,22.5,11.8s20.1,10.4,22.8,12.4
		c6,4.7,6.1,4.6,6.1-13.8c0.1-22.8-4.6-34.8-19.1-48.5c-7.1-6.8-9.3-8.2-14.1-9.5c-13.5-3.7-17-4.8-21.9-7.6
		C495.2,224.1,492.9,223.6,490.2,224.7z M573.9,227c-6.7,3.4-15.4,5.8-25,6.8l-7.2,0.7l8.4,3.4c27.3,11,66.2,35.1,56.6,35.1
		c-0.7,0-6.9-3.7-13.8-8.3c-13.6-9.1-31.8-18.5-47.6-24.6l-10.3-3.9l7,7.6c8.8,9.3,14.7,20.7,16.2,31.4c1,6.7,1.4,7.7,5.3,11.4
		c12.3,12,36.6,27.4,54.9,35c6.3,2.7,25.6,9.1,29.1,9.8c1.1,0.2,7.5,1.6,14.3,3c11,2.3,22.2,3.4,22.2,2.1c0-0.3-2.3-4.7-5.1-9.7
		c-2.8-5.1-6.5-11.8-8.2-14.8c-3.4-6.1-4.1-7.3-11.7-21c-19.5-34.7-39.3-54.7-63-63.7C585.5,223.3,581.2,223.2,573.9,227z
		 M434.7,229.4c-8.5-0.6-8.6-0.6-11.3,2.2c-5.9,6.4-6.9,9.9-6.8,22.9c0.1,13.6,1.4,18.4,10.6,37c6.6,13.3,11.8,25.9,11.8,28.4
		c0,1.2,0.3,2.1,0.8,2.1c1.1-0.1,20.3-33.9,26.9-47.4c5.1-10.6,5.8-12.8,6.2-19.3c0.2-5.1-0.3-10.2-1.8-16.6l-2.1-9.2l-9.1,0.5
		c-7.4,0.4-9.3,0.9-10.4,2.4c-1.6,2.1-3.4,10.4-6,27c-1.9,12.5-3,16-4.6,15c-1.7-1-0.3-14.7,3.1-29.9c1.6-7.2,2.5-13.3,2.1-13.8
		C443.7,230.3,439.5,229.7,434.7,229.4z M357,235.1c-0.8,0.1-5.1,1.2-9.5,2.6c-4.4,1.4-13,3-19.1,3.5l-11,1.1v4.6l0.1,4.6l-6.5,2.1
		l-6.4,2.1l-1.3,5.9c-1.5,7.5-6,17.3-11.7,25.7c-2.4,3.6-5.6,9.6-7.1,13.4c-4.1,10.9-4.7,11.8-8.2,12.1c-5.5,0.5-5.7-1.8-1.3-15.9
		c2.2-6.8,4-12.5,4-12.7c0-0.1-1.8,0.7-4,1.8c-6.2,3.2-7.3,5.6-8.2,19.1c-0.8,12.2-2.3,17.1-5.4,18.3c-2.5,1-3.9-0.8-5.4-6.9
		c-0.7-3-1.6-5.5-2-5.5c-1.3,0-12.1,17-17.2,27.1c-6.1,12.2-11.4,29.1-13.3,42.8c-0.8,5.8-1.5,11-1.5,11.8c0,1.5,9.3-2.9,30-14.5
		c34.8-19.3,71.6-44.6,99.1-68c10.6-9,18.2-18.5,19.5-24.1c0.4-1.4,2-5,3.6-8c1.6-2.9,2.8-5.5,2.6-5.7c-0.4-0.3-18.3,4.7-23.2,6.6
		c-4.9,1.8-5.7,0-4.7-10c0.9-8,3.8-17.6,7.5-24.9c2.7-5.1,0.3-3.6-7.8,5c-15.3,16.3-28.4,36.1-35.6,54.1c-2.2,5.5-4,6.7-4,2.8
		c0-3,10.8-23.6,17.7-33.9c8-11.7,13.2-18.1,23.7-28.9C354.8,238.7,357.8,235.1,357,235.1z M289.3,239.8c-8-1.4-8.2-1.4-8.7,0.6
		c-0.3,1.1-0.4,2.1-0.3,2.3c0.5,0.4,14,3.1,18.7,3.7c2.5,0.3,6.6,1,9.2,1.4c2.6,0.5,5.2,0.5,6,0c2.2-1.4-1.7-3.6-9.6-5.2
		C300.7,241.8,293.8,240.6,289.3,239.8z M286,249.7c0,2.2-2.8,5.5-13.6,16.1c-7.4,7.4-14,14.5-14.5,15.9c-0.5,1.3-0.8,6.6-0.8,11.6
		l0.2,9.2l0.8-7.9c0.5-4.5,1.6-8.9,2.6-10.5c2.5-3.8,2.8-1,0.8,8.6c-2.1,9.8-3.2,27.3-1.8,27.3c2.4,0,3.3-3.3,4.3-15.4
		c0.5-7.1,1-13.3,1-13.7c0-2,9.6-8.7,14.8-10.3c3.2-1,2.9,1.8-1.3,13.9c-3.7,10.6-4.3,14.5-2.2,14.5c2.1,0,3.7-2.2,3.7-4.9
		c0-3.6,4.1-12,8.9-18.3c2.2-3,5.1-7.8,6.5-10.8c2.9-6.3,8.1-23.9,7.3-24.6c-0.3-0.3-3.1-1.2-6.4-1.9
		C287.4,246.3,286,246.5,286,249.7z M411.1,255.1c-0.4,0.1-2.2,1.6-4.1,3.4c-3.4,3.4-6.1,4.8-15.5,8.1c-6.5,2.2-11.1,7.2-15.7,16.7
		c-8.4,17.3-11.4,33.8-10.4,55.6c1.2,26.1,9.7,54,27.9,91.5l8.1,16.8l3-6.2c3.6-7.6,11.4-15.5,22.7-23.2
		c25.9-17.6,37.6-30.8,47.3-53.5c3.1-7.4,7-21.9,6.8-25.5c0-0.9-2.3-4.4-5.1-7.9c-6.4-7.9-12.7-20-14.2-27c-0.6-3-1.5-5.8-1.9-6.3
		c-1.5-1.6-13.4,19.6-16.5,29.4c-2,6.1-3.4,8.5-4.6,7.3c-1-1.1-5.9-19.3-5.9-22c0-7.4-4.9,1-12.9,22.2c-7.5,19.7-13,41-15.2,58.8
		c-1.5,12.5-3.6,17.6-5.3,13c-0.9-2.3,0.1-10.2,3.6-27.2c4.5-22.5,10.5-41.5,19.3-61.1c2.6-5.8,4.9-11.7,5.2-13.1
		c0.3-1.8-1.2-5.9-5.1-13.7c-5.8-11.6-10.3-25.2-10.8-32.2C411.7,256.8,411.4,255,411.1,255.1z M481.9,265.1c-2.7-4-5-6.7-5.3-6
		c-2.9,10.4-4.5,14.7-8.2,22c-5.1,9.9-5.4,13.3-2.3,23.5c2.4,7.9,6.4,15.5,12.2,23.1c2.2,2.9,22.2,23.1,44.5,44.9l40.5,39.6l1.9-3.5
		c3.6-7.1,9-23.4,11.6-35.2c2.4-10.7,2.6-14,2.6-31c0-16.4-0.4-20.5-2.5-30.3l-2.5-11.3l-6.9-5.5c-4.9-3.9-7.1-5.1-7.6-4.2
		c-0.3,0.7-1,6-1.3,11.8c-1,15.1-1.6,16.2-5.9,11.7c-6.1-6.3-19.6-14.7-30.4-18.8c-2.4-0.9-2.3-0.7,1.1,3.8
		c8.5,11.4,17.7,25.5,22.4,34.3c10.1,19,21.4,55,17.2,55c-1.4,0-2.6-2.8-4.3-10.5c-7.5-33.2-34.8-79.2-54.3-91.5
		c-3.8-2.4-9.3-6.6-12.3-9.4C489.1,274.8,484.5,269.2,481.9,265.1z M252.8,300l-0.3-4l-16.1,24.2c-55.8,84-108.6,179.6-174,315.3
		l-2.5,5l2.7-3.5c6.6-8.5,19.2-19.6,27.3-24c13.3-7.2,26.3-15.1,30.2-18.1c2-1.6,4.9-5.3,6.5-8.3c3.3-6.3,2.8-10-1.7-12.5
		s-9.7-0.7-15.6,5.5c-2.8,3-5.4,5.4-5.7,5.4c-1.1,0-0.6-9.6,0.9-14.3c3-10,10.8-17.6,19.7-19.1c9-1.6,19,4.5,21.6,13
		c5.5,18.5-7,45.5-27.8,60.4c-17.8,12.7-29.8,22-32.8,25.4c-7.4,8.5-11.2,21.5-9.7,33.1l0.8,6l1.2-6c2.5-11.7,7.6-21.2,13.8-25.9
		c8.5-6.4,17.1-8.7,24.7-6.6c4.1,1.1,4.3,1.3,2.5,2.6c-1,0.8-2.6,1.4-3.6,1.4c-3.1,0-12.5,7.2-15.7,12c-1.7,2.6-5.7,11-8.8,18.6
		c-8.4,20.6-9.5,23.6-9.1,24.1c1.2,1.1,14.9-18.2,34.4-48.6c6.9-10.8,14-21.9,15.8-24.6c4.4-6.9,26.9-43.2,40.5-65.5
		c6.2-10.2,13-21.2,15-24.5c5.5-8.8,47-78.5,54.5-91.5c1.7-3,6.7-11.6,11-19c21.9-37.8,42.5-75.9,42.5-78.7c0-0.2-2.6,1.3-5.7,3.4
		c-21,13.5-66.2,38.3-69.8,38.3c-1.6,0-1.7-0.9-1.2-9.8c1-15.8,7.5-38.9,15.5-54.7c1.3-2.8,5.4-9.4,9.1-14.8
		c3.6-5.4,7.4-11.1,8.4-12.7C252.5,305.1,253,302.7,252.8,300z M588.8,310.7c-6.9-4.4-8.8-5.3-8.8-3.9c0,2.1,1.5,4.4,9.5,14.2
		c24.8,30.4,55.8,77.8,72.4,110.8c3.3,6.5,3.3,10.4,0,6.1c-1-1.3-1.9-2.8-1.9-3.2c0-1.2-12.3-23.5-20.8-37.7
		c-14-23.4-34.5-53-50.5-73c-3.4-4.1-6.2-7.7-6.4-7.9c-0.2-0.2-0.5-0.2-0.8,0.1c-0.3,0.3,8.4,18.3,19.4,39.9
		c28.1,55.4,41.8,84.8,62.2,132.9c14.6,34.4,16.3,38.5,25.4,62c9.4,24.3,21,55,22.5,59.9c0.5,1.4,2.9,8.4,5.5,15.6
		C725.2,651,738,690.4,747,720c1.2,4.1,2.6,8.5,3.1,9.7l0.8,2.2l7.3-2.1c4-1.1,7.9-2.7,8.6-3.6c2.2-2.8,1-13.6-2.5-21.9
		c-1.7-3.9-6.7-13-11.2-20.2c-13.5-21.5-20-36.1-24.1-54.6c-1.7-7.5-1.4-34.9,0.4-42.8c3.1-13.3,9.8-24.2,18.9-30.8
		c4.3-3.1,6.7-3.7,6.7-1.7c0,0.7-2.2,8.1-4.9,16.4c-3.8,11.6-5.1,17.3-5.6,24.5c-1.6,21.9,4.7,38.8,18,47.9l4.4,3l1.6-5.7
		c5.3-18.2,0.9-31.3-14.2-42.4c-2.9-2.2-5.1-4.4-4.8-5c0.4-0.5,2.7-0.9,5.3-0.9c17.4,0,35.2,28.1,31.3,49.4
		c-0.7,3.3-1.9,7.8-2.8,9.9l-1.6,3.8l5.1,4.9c10.9,10.3,15.6,21.9,15,36.5l-0.3,8.7l4.3-4.7c4.7-5.3,4.8-6,2.6-14.8
		c-0.9-3.4-2.6-10.5-3.9-15.7c-1.3-5.2-3.7-14.9-5.4-21.5c-1.6-6.6-4.3-17.9-6.1-25c-13-54.1-14.3-57.9-33.8-100
		c-19.1-41.1-34.6-74.5-39.6-84.8c-4.8-9.9-22.7-48.1-33.6-71.7c-6.4-13.9-10.9-23.1-11.6-23.9c-0.1-0.2-4.3-1.1-9.1-2.2
		c-19.3-4-23-4.9-34.1-9c-6.4-2.3-16.5-6.8-22.6-9.9C602.5,318.9,593.6,313.8,588.8,310.7z M363.4,308c-0.4,0-8.7,15.6-13.4,24.9
		c-17.5,35.2-33.4,74.3-47.1,116.3c-4.1,12.8-6.9,19.8-7.8,19.8c-0.8,0-1.1-0.6-0.6-1.8c0.3-0.9,1.3-4.2,2.1-7.2
		c2.5-9.8,15.4-47.1,21.4-62c11.5-28.5,26.6-62,35.4-78.6c2.5-4.6,4-8.1,3.3-7.7c-3.4,2-52.4,39.3-53.8,40.9
		c-0.9,1.1-5.6,9.5-10.4,18.9c-38,73.6-64.9,119-137,232c-8.4,13.2-19.9,31.2-25.5,40s-12.9,20.3-16.2,25.5
		c-3.3,5.2-12.2,19.2-19.6,31c-14.2,22.5-17,26.8-21,31.1l-2.4,2.7l9.9,8.6c5.4,4.8,15,12.2,21.3,16.5c12.8,8.7,30.9,19.6,31.4,19
		c0.2-0.2-1.8-6.3-4.5-13.4c-11.6-30.6-13.1-36-13.3-48c-0.1-10.5,0-11.3,3.1-17.5c3.7-7.5,8.4-12.4,16.7-17.4
		c6.1-3.7,21.9-9.1,29.6-10.1c12.7-1.8,31-6.8,39-10.7c20.5-10,29.2-27.7,25.5-52c-1.9-12.6-1.9-11.8,0.6-11.8
		c1.3,0,4.7,2.6,8.8,6.7c5.5,5.6,7.2,8.3,10.1,15.3c3.3,8.2,3.4,9,3.4,21.5s-0.1,13.3-3.3,20.7c-6.5,15.4-19,29.5-35.6,40.4
		c-8.4,5.5-13.3,7.9-39.9,19.5c-11.6,5.1-16.6,8.5-20.1,13.7c-5.4,8.2-5.4,23.1,0,34.8c2.6,5.5,13.3,21,14,20.2
		c0.2-0.2-0.1-2.8-0.7-5.8c-1.6-8.5-0.4-21.1,2.7-27.8c5.5-11.9,15.9-22.2,30.6-30.1c21.6-11.6,50.9-18,62.3-13.7
		c5.3,2,11.1,7.7,12.7,12.4c1.3,4,0.7,11.5-1.1,13.7c-1.1,1.3-1.7,1.2-4.7-1c-11.7-9-25.5-8.8-39.6,0.6c-10.7,7.1-19.2,23-23.7,44.6
		c-3.2,15.4-2.4,23.5,2.6,26.8c1.4,0.9,5.3,2.2,8.7,2.9s10.5,2.5,15.7,3.9c15.9,4.3,29.3,7.5,33.5,8.2c2.2,0.3,9.9,1.6,17,3
		c34.9,6.5,76.4,10.2,125.5,11.2c26.3,0.5,27.8,0.4,33.5-1.6c3.4-1.2,7.4-3.5,9.2-5.4l3.1-3.2l1.1-16.5c0.6-9.1,2.2-22.1,3.6-29
		c1.3-6.9,3.6-18.1,5-25c4-19.9,7.4-39.9,8.5-50.1c0.5-5.2,1.6-15.5,2.4-22.9c3.3-29.5,3.6-46.4,3.6-182
		c-0.1-150.4,0.4-139.6-5.9-127c-3.4,6.6-3.8,8.6-5.1,26c-0.5,7.4-2.1,24.5-3.5,38c-5.2,51.5-8.4,84.8-9,93.5
		c-0.8,11.2-1.3,13.5-3.2,13.5c-1.2,0-1.4-0.8-1-3.3c0.3-1.7,1.5-12.9,2.7-24.7c6.9-71.7,8.3-86.7,10.4-107.5
		c1.3-12.7,2.2-23.2,2-23.4c-0.3-0.3-1.2,0.6-2.1,2c-3.4,5.2-20.3,20.7-29.8,27.4c-15.7,11.1-21.7,16.6-25.3,23.3
		c-1.7,3.2-3.5,7.7-4,9.8c-1.2,5.9-3.7,5.6-6.6-0.8c-1.3-2.9-6.1-13-10.6-22.3c-4.6-9.4-9.6-20.2-11.2-24
		c-4.9-11.6-11.4-32.4-13.3-42.5c-2.4-12.8-2.9-33.2-1.2-44.3C363,311.9,363.5,308,363.4,308z M584.4,332.1c-0.2-0.2-0.4,4.7-0.4,11
		c0,15.2-3,34.1-7.4,47.8c-3.7,11.4-10,25.6-11.7,26.7c-0.5,0.3-10.7-8.8-22.6-20.3c-11.9-11.4-21.4-20.1-21.1-19.3
		c0.3,0.8,1.1,4.2,1.8,7.5c1.5,7.5,6.4,29.6,9.6,43.5c1.3,5.8,3,13.6,3.8,17.5c3.2,15.3,7.7,36.1,8.2,37.7c0.3,1.2,0,1.8-1,1.8
		c-0.9,0-1.6-0.3-1.6-0.6c0-0.3-1.5-7.4-3.4-15.7c-1.9-8.4-4.7-20.8-6.1-27.7c-2.9-13.1-6.3-28.6-11.4-50.8
		c-1.7-7.4-3.1-14.3-3.1-15.5c0-2.8-32.1-34.3-33.1-32.4c-2.7,5.2-3,23.1-2.8,164.3c0.1,101.5-0.2,148.8-1,157.9
		c-0.6,7.1-1.5,18.6-2.1,25.5c-0.9,12.6-3.9,32.5-8.5,56.5c-2.5,13.4-7.2,41.1-9.9,59.2c-0.9,5.6-1.6,12.7-1.6,15.7v5.5l3.5,0.7
		c6.3,1.2,66.2-0.3,80-1.9c7.2-0.9,15.7-1.8,19-2.1c7.3-0.7,30-4.8,45-8.2c6.1-1.3,12-2.6,13.3-2.9c3.4-0.6,23.8-6.3,31.1-8.7l6.4-2
		l-5-2.9c-6.7-3.9-25.8-7.2-53.6-9.4c-3.8-0.2-10-1.6-13.9-2.9c-25-8.7-40.8-30.3-40.8-55.8c0-27.1,21-47.4,47-45.5
		c10.5,0.8,16.2,3,22.1,8.8c6.6,6.4,9.3,12.5,9.4,20.9c0,5-0.6,7.7-2.5,11.5c-2.8,5.6-10.1,11.8-13.4,11.3c-1.8-0.3-2.1-1-2.2-5.8
		c0-3.1-0.7-6.9-1.5-8.5c-1.8-3.8-7.4-7.5-11.3-7.5c-8.4,0-15.8,10.1-13.5,18.3c2.2,8.2,19.6,19.3,32.9,21.2
		c3.5,0.4,37,3.7,55.5,5.4c5.9,0.6,13,2,17.3,3.5c3.9,1.4,7.2,2.2,7.2,1.8s-0.8-3.6-1.9-7.2c-5.6-19.6-16-31.5-42.1-48
		c-26.6-16.9-38.1-30-45.4-51.5c-2.9-8.5-3.1-9.9-3.1-24.5c0-15.5,0-15.5,3.3-22.4c1.8-3.9,4.8-8.9,6.7-11.2
		c5.3-6.4,18.6-12,22.4-9.5c2,1.3,0,3.7-3.9,4.4c-8.7,1.8-11.6,14.7-6.7,29.9c5.5,17.3,16.8,30.5,42.2,49.3
		c42.6,31.6,44.1,32.9,53.3,45.1c12,16,17.6,35.4,14.3,49.7c-0.5,2.1-0.6,3.7-0.1,3.5c3.8-1.5,28-14.5,28-15.1c0-0.5-2.7-5.7-6-11.7
		c-4.2-7.6-6-11.9-6-14.4c0-2-1.6-8.7-3.5-14.9c-7.3-23.4-8.8-27.9-17.6-54.7c-4.9-15.1-10.1-30.7-11.5-34.5
		c-6.8-18.8-8.8-24.3-15-41c-9.4-25.6-17.8-47.2-26.5-68c-2.3-5.5-4.9-12-5.9-14.5s-3.5-8.3-5.5-13s-4.9-11.4-6.4-15
		c-13.4-31.3-31.7-70.3-53.8-114.5C591.8,346.5,584.7,332.3,584.4,332.1z M120,555.5c-7.1,3.3-14,12.9-14,19.6v3.2l2.3-2
		c4.1-3.9,9.2-6.3,13.1-6.3c5.1,0,10.6,5.2,10.6,10c0,8.6-10.7,19.4-28.2,28.5c-14.1,7.3-21.7,12.3-29.1,19.4
		c-15,14.2-22.7,31.6-24.3,54.8l-0.7,9.2l9.9,6.3c5.4,3.6,11.6,7.5,13.7,8.7l3.8,2.3l-0.6-3.8c-0.4-2.2-1.6-7.5-2.7-11.8
		c-2.8-10.9-2.2-23.6,1.5-32.4c4.8-11.5,12.2-18.9,36.6-36.1c13-9.2,20.9-17.3,25.4-25.9c5.3-10.3,7.1-16.7,7.1-25.7
		c0.1-9.3-1.5-13.2-6.9-16.5C132.9,554.2,124.6,553.5,120,555.5z M743.1,566.2c-5.9,8-8.1,13.1-10.2,23.9
		c-5.6,29.2,1,54.6,23.9,91.4c10,16.3,14.4,27.7,14.6,38.7l0.1,5.7l7.7-4.2c10.8-5.7,16.3-11,17.7-16.9c3.2-13.7-0.6-28.9-9.7-39
		c-2-2.3-10.2-8.4-18.1-13.6c-11.6-7.7-15.1-10.6-18.6-15.4c-11.1-15-13.2-33.7-6.7-58.8c1.7-6.3,3.5-12.7,4.1-14.3
		C749.6,559.4,747.4,560.5,743.1,566.2z M765,599.7l-3.1-1.9l3.7,4.9c6.7,8.7,8.8,14.5,8.7,24.8c-0.1,6.7-0.6,10.3-2.2,14.3
		c-1.1,2.9-2.1,5.6-2.1,6s1.8,1.7,4,3l4.1,2.3l1.9-4.5c5.6-12.5,1.6-31.9-9-43.9C769.5,602.9,766.8,600.7,765,599.7z M616.1,600.1
		c-1.1,0-7.3,8.3-9.6,12.9c-4.6,9.2-5.7,22.6-3.1,37.5c4.3,24.3,17.1,40.3,46.6,58.5c33.1,20.4,42.8,35.6,46.5,73.3
		c0.4,3.7,1,6.7,1.4,6.5s6.3-2.7,13.3-5.6c9.4-4,12.9-6,13.9-7.9c1-1.8,1.4-6.1,1.4-13.2c-0.1-12.2-2.5-20.4-9.6-32.4
		c-8.1-13.7-16.5-21.1-58-51.2c-21.9-15.9-33.2-28.2-40.5-44.1c-3.1-6.7-3.7-9.3-4.1-16.9c-0.4-6.5-0.1-10.2,1-13.3
		C616.1,601.9,616.5,600,616.1,600.1z M236.7,607.1l-3.5-3.3l0.9,3.8c2.3,9.9,0.4,23.1-4.7,34c-3.3,7-12,16.4-19.3,20.8
		c-6.2,3.8-18.1,8.1-25.1,9.1c-6.4,0.9-26.5,5.2-33,7.1c-7.9,2.3-18.4,8-23.1,12.6c-8.1,7.9-11.5,20.9-8.9,34
		c0.6,3.5,2.8,10.5,4.7,15.8c1.9,5.2,4.6,12.6,6,16.5c1.4,3.8,4,10.8,5.8,15.5l3.2,8.5l11.4,5.7c6.3,3.1,11.8,5.7,12.2,5.7
		c0.4,0.1-1-2.3-3.2-5.1c-17.5-23.5-19.8-43.9-6.6-58.6c4.8-5.4,10.6-8.7,27-15.7c30.2-12.8,42.9-21.2,53.9-35.5
		c9.7-12.6,14.6-25.5,14.6-38.5c0-8-2.7-18.7-6.4-24.8C241.3,612.4,238.6,609,236.7,607.1z M109.9,653.1c-3.6,0.1-11.2,2.8-14.9,5.3
		c-4.6,3-11.5,12.9-13,18.7c-1.8,6.5-2.9,19.2-2.1,23.4l0.7,4l1.6-5c8.4-26.5,14.4-37.1,24.7-43.7
		C109.4,654.3,110.7,653,109.9,653.1z M45.3,670.7l-6,12.6l3.4,3c1.8,1.6,3.6,2.7,3.9,2.5c0.3-0.3,0.9-5.2,1.4-10.9
		c0.4-5.7,1.5-12.4,2.4-14.8C53.4,654.9,51.3,657.9,45.3,670.7z M571.6,693.5c-11.5,5.4-19.7,15.9-23.2,29.6c-2,7.8-1.3,16.2,2,25.4
		c5.3,14.7,13.6,24.1,27.3,31.3c11.8,6.1,21.6,8,55.1,10.7c9.8,0.7,20.1,4.2,27.5,9.3l2.8,1.9l13.1-4.8c7.2-2.7,13.7-5.4,14.4-6.1
		c1-1.1,1.9-10.2,1.5-16c-0.1-2-7.2-4.8-19.2-7.7c-8.3-2-38.1-5.1-49.1-5.1c-6.6,0-13.7-1.3-22.8-4.2c-18.4-5.9-28.3-17-26.6-29.6
		c0.8-6.1,4-10,10.4-12.9c6.2-2.9,10.2-2.7,15.9,0.8c3.7,2.3,8.3,10.4,8.3,14.6c0,3,1.1,2.9,4.2-0.5c11.1-11.8,5.7-29.9-11.2-37.6
		C592.2,688.1,582.4,688.4,571.6,693.5z M208.4,726.1c-29.7,13.3-44.3,38-36.4,61.5c3.1,9.1,5.9,11.6,17.4,15.8
		c5.4,2,10.2,3.6,10.6,3.6s0.7-4.4,0.7-9.8c0-8.1,0.6-11.9,3.7-23.2c2.1-7.4,5.4-16.7,7.4-20.5c4.8-9.1,14.7-19.2,22.7-23.1
		c5.3-2.5,7-2.9,15.5-2.9c8.3,0,10.2,0.4,15.4,2.8c3.2,1.5,6,2.7,6.2,2.7s0.4-1.5,0.4-3.4c0-4.1-3.4-9.4-7.7-11.9
		C255.3,712.5,230.4,716.2,208.4,726.1z"/>
	<path d="M673,471.8c2.4,4.8,6.8,13,9.6,18.2s7.7,14.4,10.9,20.5c3.2,6,8.6,16.2,12,22.5c10.1,18.7,21.5,40.7,21.5,41.4
		c0,0.3-0.9,0.6-1.9,0.6c-1.4,0-3.1-2.3-6.1-8.3c-2.4-4.5-4.6-8.7-5-9.2c-0.4-0.6-3.5-6.4-7-13c-3.4-6.6-11.3-21.5-17.5-33
		c-21.3-40-24.7-46.6-24.1-48C666.4,460.8,668.5,463.1,673,471.8z"/>
</g>
</svg>
