<?xml version="1.0" encoding="utf-8"?>
<!-- Generator: Adobe Illustrator 21.0.0, SVG Export Plug-In . SVG Version: 6.00 Build 0)  -->
<svg version="1.1"
	 id="svg138" inkscape:version="0.92.2 5c3e80d, 2017-08-06" sodipodi:docname="73 #18908.svg" xmlns:cc="http://creativecommons.org/ns#" xmlns:dc="http://purl.org/dc/elements/1.1/" xmlns:inkscape="http://www.inkscape.org/namespaces/inkscape" xmlns:rdf="http://www.w3.org/1999/02/22-rdf-syntax-ns#" xmlns:sodipodi="http://sodipodi.sourceforge.net/DTD/sodipodi-0.dtd" xmlns:svg="http://www.w3.org/2000/svg"
	 xmlns="http://www.w3.org/2000/svg" xmlns:xlink="http://www.w3.org/1999/xlink" x="0px" y="0px" viewBox="0 0 850 850"
	 style="enable-background:new 0 0 850 850;" xml:space="preserve">
<style type="text/css">
	.st0{fill:none;}
	.st1{fill:#66CC66;}
	.st2{fill:#669900;}
	.st3{fill:#99CC00;}
	.st4{fill:#66FF00;}
	.st5{fill:#669966;}
	.st6{fill:#FF3399;}
	.st7{fill:#669933;}
	.st8{fill:#CC3300;}
	.st9{fill:#99FF66;}
</style>
<sodipodi:namedview  bordercolor="#666666" borderopacity="1" gridtolerance="10" guidetolerance="10" id="namedview140" inkscape:current-layer="svg138" inkscape:cx="1037.7486" inkscape:cy="668.20025" inkscape:pageopacity="0" inkscape:pageshadow="2" inkscape:window-height="978" inkscape:window-maximized="1" inkscape:window-width="1920" inkscape:window-x="0" inkscape:window-y="1" inkscape:zoom="0.58897835" objecttolerance="10" pagecolor="#ffffff" showgrid="false">
	</sodipodi:namedview>
<g id="g136" transform="translate(0.000000,0.000000) scale(1.00000,1.00000)">
	<path id="path4" class="st0" d="M0,0h425h425v425v425H425H0V425V0z M494,22c-3.8,0-7,0.4-7,0.9s-0.9,1.3-2.1,1.6
		c-2.9,1-8.7,6.3-10.5,9.6c-2.3,4.4-3.6,17.3-2.3,22.4c1.8,7.3,0.1,10.4-8.9,16.3c-12.1,7.8-16.3,9.9-22.7,11.6
		c-11.7,3-19.4,3.6-27.5,2.1c-10.3-1.8-28.8-9.4-31.4-12.8c-1.8-2.5-1.9-3-0.6-9.9c1.7-8.7,1.7-8.7-0.4-16.3
		c-2.8-10-7.9-15-18.3-18.1c-9.2-2.7-17.3-2-30.8,2.6c-14.5,5-19.1,7.6-24.3,13.5c-6.6,7.5-10.8,10.2-20.8,13.4
		c-11.6,3.8-17.7,7.2-20.3,11.4c-2.1,3.5-4.1,17.9-4.1,29.6c0,16.9,4.1,25.9,18.8,41.3c14.8,15.5,21.8,18.6,30.6,13.4
		c5.9-3.4,8.9-3.3,15,0.7c2.8,1.9,7,4.6,9.2,6c6.5,4,10.4,13,20.8,48.3c6.3,21.2,7.7,29.1,8.3,46.9c0.7,21.1-0.8,28.4-9.2,44.5
		c-14.4,27.6-28.9,57.1-32.7,66.3c-2.2,5.6-6.9,15.8-10.4,22.7c-3.4,6.9-7.6,15.9-9.2,20c-1.7,4.1-5.7,13.1-9,20
		c-8.1,16.8-16.3,37.7-25.7,65.5c-1.3,3.8-3.8,10.4-5.5,14.5c-6,14.1-10.2,24.5-11,27c-2.5,7.7-14.3,40.9-17.5,49
		c-2,5.2-5.4,14.9-7.5,21.5c-2.1,6.6-5.7,16.5-8,22c-4.2,10.1-12.4,32.9-20.5,57c-2.4,7.1-6.3,18.4-8.8,25
		c-2.4,6.6-6.1,17.6-8.1,24.5c-2.1,6.9-5.4,16.5-7.4,21.5c-2.3,5.9-3.6,10.7-3.6,14l-0.1,5l8.5,4.7c4.7,2.6,14.1,7.3,21,10.4
		c9.7,4.4,13.7,6.8,18,10.9c6.4,6.1,11.2,8.7,23,12.7c11,3.7,21.9,5.1,41,5.3c12.8,0.1,16.7,0.5,22,2.2c16,5.2,39.2,6.8,55.5,3.8
		c19.3-3.6,23.3-3.9,36.5-2.7c7,0.7,15.8,1.9,19.6,2.7c15.3,3.2,37.1,1.4,58.9-4.9c25.3-7.4,22.6-7,38.9-4.5
		c22.8,3.5,45.5,1.6,61.3-5c3.8-1.6,8.3-3.2,10.1-3.6c1.9-0.4,7.3-3.3,12.1-6.6c6.6-4.3,9.1-6.7,10.1-9.1c0.6-1.8,1.5-4,1.9-4.8
		c0.9-1.7,13.1-6.1,24.7-9c16.5-3.9,37.3-16.1,42.9-25c2.5-4,3.5-12,1.5-12c-0.5,0-1-0.7-1-1.5s-2-5.6-4.5-10.7
		c-5.8-11.9-13.8-30.7-22.7-52.8c-3.8-9.6-7.8-19.1-8.9-21.1c-1-2-3.6-8.6-5.8-14.7c-2.2-6.1-4.9-12.8-5.9-14.9
		c-1.1-2.1-3.7-9.2-5.7-15.8c-2.1-6.6-4.6-13.6-5.6-15.6c-2.3-4.6-14-35.1-18.6-48.4c-1.9-5.5-5.2-14.1-7.3-19
		c-3.7-8.6-6.7-16.5-18.1-47.5c-2.7-7.4-7.2-18.9-9.9-25.5c-2.7-6.6-6.9-17.2-9.4-23.5c-2.4-6.3-10.7-25.2-18.4-42
		c-7.6-16.8-14.7-32.3-15.7-34.5c-1-2.2-3.9-8.3-6.5-13.5c-2.6-5.2-4.8-9.8-4.8-10.3c-0.1-0.4-0.8-2-1.7-3.7
		c-4.2-8.1-10.2-23.2-15.2-38c-5.6-16.5-5.6-16.5-6-31.2c-0.5-14.2-0.4-14.9,2.7-25.5c1.8-5.9,5.2-14.7,7.6-19.5
		c5.4-10.8,9.7-21.6,11.4-28.5c1.9-8.1,8-16.8,13.6-19.5c3-1.3,5.8-3.8,7.7-6.4c4-5.7,8-7.5,15.9-7.3c8.2,0.3,12.3-1.8,14.9-7.4
		c1-2.3,1.9-5.4,1.9-6.9c0-2.4,0.6-2.9,4.3-3.8c7.6-2,8.2-2.2,11.6-4.3c2-1.2,4.1-3.7,5.3-6.4c1.8-4.1,1.8-4.6,0.3-10.8
		c-1.8-6.9-1.6-14,0.5-25.3c0.9-4.9,0.9-8,0-13.5c-1.1-6.7-1.6-7.5-6-11.7c-6.5-6.2-13.3-9.7-21.3-11c-9.2-1.4-9.4-1.5-27.5-13.5
		c-13.5-9-17.1-10.8-22.2-11.8c-3.3-0.6-6-1.5-6-1.9C501,22.3,497.9,22,494,22z"/>
	<path id="path6" class="st1" d="M505.3,29.4c6,1.8,10,4.8,12,8.8c1.5,3.1,1.5,3.5-0.3,6.6c-3.9,6.5-1.6,9.3,5.7,7.3
		c2.8-0.8,5.6-0.7,10.8,0.5c3.9,0.8,9.5,1.9,12.5,2.5c10,1.9,21.5,5.2,24.2,7.1c1.5,1,3.9,4.3,5.4,7.4c2.4,4.9,2.6,6.1,1.8,10.2
		l-0.9,4.7l-4-0.3c-2.4-0.2-4.8,0.3-6,1.2c-2,1.5-2,1.5-0.1,4.8c4.8,8.3,10.6,23.5,10.6,27.8c0,3.1-6.6,8-10.8,8
		c-5.6,0-11,1.8-12.7,4.3c-0.9,1.2-1.5,4.3-1.5,7.2c0,2.8-0.5,5.6-1.2,6.3c-1.6,1.6-14.1,1.5-18.1-0.2c-1.8-0.7-4.1-2.3-5.1-3.5
		c-3.3-3.7-10.6-2-9,2.2c0.3,0.9,1.7,2.3,3,3.2c1.8,1.1,2.4,2.5,2.4,5c0,1.8-0.3,3.6-0.7,3.8c-1.8,1.1-17.9-5.5-33.3-13.5
		c-23.3-12.2-28.4-14.9-28.8-15.3c-0.2-0.2,0.4-1.8,1.3-3.5c1.3-2.6,1.5-4.7,1-9.9l-0.7-6.7l4.1-2.8c4.9-3.4,5.5-5.1,4.1-10.8
		c-0.6-2.4-1-6.6-0.8-9.3c0.3-4.6,0.5-5,3.6-5.9c3.7-1,13.2-10.9,13.2-13.7c0-2.1-1.7-3.5-5.2-4.4c-2.7-0.7-3-1.2-4.2-6.7
		c-1.6-7.3,4.9-18.3,12.8-21.9C495.3,27.7,499.2,27.5,505.3,29.4z"/>
	<path id="path8" class="st1" d="M359.3,34.6c5.1,2.6,11.6,9.5,12.7,13.5c1.4,5.1-0.3,16.2-2.9,19.5c-1.2,1.5-2.1,3.8-2.1,5.1
		c0,2.6,2.9,8.3,4.2,8.3s3.8,5.8,3.8,8.9c0,4.3-2.1,5.8-10.4,7.2l-7.5,1.3l1.9,2.6c1.1,1.5,4.3,3.7,7.2,5
		c10.8,4.5,12.7,9.6,6.1,15.7c-6.8,6.2-27.8,23-32.8,26.2c-6.4,4-9,4-11.5-0.2c-4.1-6.9-4.5-7-12.4-2.2c-6.7,4-10,4.3-15.9,1.4
		c-5.5-2.8-7.7-4.8-7.7-7.1c0-1.4,0.8-1.8,4-1.8c3.8,0,4-0.2,4-3c0-3.7-1.3-4.4-13.8-6.9c-12.8-2.6-16.7-6.6-16-16.2l0.3-4.4
		l4.3,0.3c5.7,0.3,6.2-1.5,2.4-7.5c-10.7-16.7-9.3-24.6,5.7-31.4c6.9-3.2,8.3-3.3,5.1-0.4c-1.1,1-2,3.1-2,4.7c0,3.8,3.4,3.8,8.7-0.1
		c4.8-3.5,7.8-7.3,12.2-15.6c5.7-10.6,12.7-16.5,19.6-16.5c3,0,3.5,0.3,3.1,1.7c-2.1,7.1-2,7.3,1.5,7.3c2.8,0,4.3-1.1,10.4-7.5
		c3.8-4.1,8.1-7.9,9.5-8.4C354.6,32.7,355.7,32.8,359.3,34.6z"/>
	<path id="path10" class="st2" d="M391,86.5c0.7,0.8,2,1.5,3,1.5s4.2,1.1,7.2,2.4c11.2,4.9,32.9,4.3,47-1.3c4.2-1.7,9-3.4,10.7-3.7
		c2.6-0.6,3-0.3,3.6,2.5c0.8,4-0.9,9.2-4,12.1c-2.2,2.1-2.5,3.2-2.5,9.8c0,5.9-0.4,8-2.1,10.3c-3.8,5.4-26,18.9-31,18.9
		c-2.8,0-34.5-20.7-36.8-24c-2.3-3.3-5.1-11.6-5.1-15.3c0-4.9,3-13.5,4.8-14C388.9,84.9,389.7,85,391,86.5z"/>
	<path id="path12" class="st2" d="M380,133.2c6.6,0.3,9.8,0.9,14,2.9c5.3,2.5,12.5,7.7,11.7,8.5c-0.2,0.3-3.1-0.8-6.3-2.3
		c-4.7-2.2-7.3-2.7-12.9-2.6c-7.1,0.1-8.8,0.6-29.3,9.2c-4.1,1.7-7.8,2.8-8.3,2.5c-2.4-1.4,2.7-5.9,17.4-15.2
		C371.3,133,371.8,132.9,380,133.2z"/>
	<path id="path14" class="st2" d="M471.8,137.3c9.7,4,26.9,14.7,31.3,19.4c3.8,4.1,5.2,8.3,2.7,8.3c-0.6,0-7.6-3.4-15.5-7.5
		C459,141.2,450,139.2,435,145.3c-3.5,1.4-6.6,2.4-6.9,2.1c-1.4-1.3,11.5-9.8,18.2-12C452.7,133.3,464.2,134.2,471.8,137.3z"/>
	<path id="path16" class="st2" d="M399.5,149.5c3.2,1.6,6,3.4,6.2,4c0.6,2-20.8,7.6-37.1,9.6c-8.7,1.1-16.8,1.9-17.9,1.7
		c-1.9-0.3-1.9-0.6,1.2-4.1c3.6-4.1,13-9.7,21.3-12.8C381.3,145,391.9,145.6,399.5,149.5z"/>
	<path id="path18" class="st2" d="M484.9,161c7.3,4.9,18.3,14.9,17.6,16c-0.8,1.4-18.1-4.8-29.4-10.5c-6-3-13.6-6.3-17-7.5
		c-11.1-3.7-23.3-2.1-32.8,4.3c-6.2,4.2-21.3,12-22,11.4c-0.6-0.7,20.7-15,29.9-20.1c3.6-2,8.6-4.1,11-4.6
		C453.8,147.5,472.1,152.2,484.9,161z"/>
	<path id="path20" class="st3" d="M400,163.7c0,1.6-3.5,4.3-5.7,4.3c-2.3,0-7.5,1.8-21.8,7.5c-3.3,1.4-8.1,3-10.8,3.7
		c-4.4,1.1-4.9,1.1-6.9-0.9c-1.8-1.8-1.9-2.5-0.9-3.7c1.9-2.3,16.5-7.6,20.8-7.6c2.1,0,6.3-0.9,9.3-2
		C389.3,163.2,400,162.3,400,163.7z"/>
	<path id="path22" class="st2" d="M446.5,166.3c14.5,0.7,32.2,7,49,17.5l5,3.2h-6.6c-6.6,0-10.6-0.6-34.4-5.5
		c-6.6-1.3-16.7-2.9-22.5-3.5c-12.3-1.2-13.4-1-31,7c-6.3,2.8-14,5.6-17,6c-3,0.5-7.4,1.2-9.7,1.5c-2.7,0.5-4.3,0.4-4.3-0.3
		c0-0.5,3-1.5,6.6-2.1c9.7-1.7,16.3-4.5,26.5-11.2c6.2-4.1,12.5-7.2,19.3-9.5C436.6,166.2,438.3,165.9,446.5,166.3z"/>
	<path id="path24" class="st3" d="M389,177.4c0,1.8-1.1,3.1-4.4,5c-2.5,1.4-5.1,2.6-5.9,2.6c-0.8,0-4.2,0.9-7.6,2
		c-6,1.9-9.5,1.8-8.8-0.3c0.2-0.6,1-1.4,1.8-1.8c3.9-2.1,14.9-7,18.4-8.3C388.1,174.6,389,174.7,389,177.4z"/>
	<path id="path26" class="st4" d="M437.2,184c10.9,0,13.8,0.4,20.5,2.5c4.3,1.4,11.6,3.2,16.3,4c12,2.2,18.4,4.1,20.4,6.4
		c1.6,1.8,1.6,2-0.6,3.5c-3.8,2.7-9.6,2-17.8-2.1c-7.4-3.7-7.7-3.7-18.8-3.7c-6.1,0-11.5,0.4-11.9,0.8c-1.6,1.6,2.2,3,10.4,3.7
		c10.3,0.9,14.4,2,19.7,5.3c5.3,3.2,3.4,3.8-4.9,1.5c-13.9-3.9-18.7-4.2-30.9-2c-6.1,1.1-13.2,2.3-15.8,2.6c-4.2,0.5-6.5,2-18,11.2
		c-18.9,15.1-33,21.6-35.8,16.4c-2.1-4-1.2-6.7,2.8-8.4c16.9-7.2,23.1-10.2,29.4-14.3c8.1-5.2,22.9-12.8,32.7-16.8
		c9.1-3.7,11.9-7.6,5.3-7.6s-15.8,3.9-27.1,11.5c-12.3,8.3-16.7,10.7-29.8,15.9c-5.8,2.4-10.4,3.6-12.5,3.4c-3-0.3-3.6-0.9-6.5-6.8
		c-1.8-3.6-3.2-6.8-3.2-7.1c-0.1-1.1,3.9-1.8,15.5-2.9c10-0.9,12.1-1.4,24.9-6.9c7.7-3.2,16-6.8,18.5-8
		C423.8,184.4,426.5,184,437.2,184z"/>
	<path id="path28" class="st3" d="M464.1,211.6c9.3,1.7,17.3,5.3,19,8.5c1.1,2.2,1,2.2-4.4,1.5c-12.2-1.4-35.7-8.5-35.7-10.8
		C443,209.5,455.2,209.9,464.1,211.6z"/>
	<path id="path30" class="st3" d="M428.6,216.9c1.2,0.9,6.2,5,11.2,9.3c5,4.2,9.9,8.1,10.9,8.6c3.9,2.2,0.4,1.9-7.2-0.7
		c-10.2-3.4-29.5-13.7-29.5-15.7c0-0.8,1.5-2.1,3.3-2.9C420.9,213.9,425.4,214.4,428.6,216.9z"/>
	<path id="path32" class="st3" d="M445.5,221.4c4.4,1.3,30.2,7.5,32.5,7.8c3.7,0.4,4.1,5.3,0.6,6.2c-7.6,1.9-25.7-4.5-32.1-11.4
		C444.1,221.4,443.9,220.9,445.5,221.4z"/>
	<path id="path34" class="st2" d="M410,229.3c5.4,0.3,8.3,1.3,17.5,5.9c10.7,5.4,16,7,32.5,9.7c3.6,0.6,8.8,1.7,11.6,2.6l5,1.5
		l1.3,13.2c1.3,13,2.3,16.5,10.3,38.1c1.2,3.4,0.3,4.9-10.6,17C470.7,325,459,335,457,335c-0.5,0-3.6-4-6.9-8.8
		c-3.2-4.9-7.7-11.4-9.9-14.6l-4-5.7l-11.7,14.5c-6.4,8.1-12.2,14.6-12.9,14.6c-1.5,0-20.3-18.3-28-27.3c-3.1-3.7-6.3-6.7-7.1-6.7
		c-1.3,0-2.8,4-7.8,21c-6.5,22.3-8.1,27-9.1,27c-2.2,0-16.6-7.4-16.6-8.6c0-1.9,16.5-34.7,22.6-45c4.7-7.9,5.7-10.5,8-21.5
		c2.6-12.5,2.6-17.5-0.2-27.6c-0.6-2.3,2.5-4.3,22.1-13.6C402.7,229.3,404.1,229,410,229.3z"/>
	<path id="path36" class="st1" d="M377.1,308c1,0,41.4,43.4,46.1,49.6c6.3,8.4,9.2,16.5,9.2,26.4c0.1,8.3-1.5,14.4-3.8,14.5
		c-0.5,0-2.9-3.2-5.3-7.2c-5.1-8.4-10.1-12.7-17.8-15.4c-9.1-3.2-13.4-2.2-19.3,4.6c-6.1,6.9-7.6,11-8.2,22.9l-0.5,10.8l-4.7-4.2
		c-5.6-4.8-10.4-14.1-11.9-22.7c-0.9-5.1-0.6-7.9,2.5-22.8c3.9-19.4,7.7-36.2,10.8-48.3C375.3,311.7,376.6,308,377.1,308z"/>
	<path id="path38" class="st1" d="M491.4,309.3c1.4,0.5,3.5,7.6,7.6,25.2c1.8,7.7,4.4,18.5,5.8,24c1.9,7.7,2.5,12.8,2.6,22
		c0.1,11.3-0.1,12.4-2.8,17.9c-2.8,5.7-10.3,14.6-12.3,14.6c-0.6,0-1.2-4.1-1.5-9.8c-0.4-5.5-1.3-11.4-2.2-13.6
		c-3.6-8.6-11.7-15.6-18-15.6c-4.4,0-13.2,3.9-17.8,8c-2.6,2.3-6.1,6.9-8.2,11c-2,3.8-3.9,7-4.2,7c-0.3,0-1.4-1.9-2.4-4.3
		c-3.7-8-2-21.3,4.2-32.9c2.1-3.9,10.3-13.5,25.6-29.8C480.2,319.7,490.8,309.1,491.4,309.3z"/>
	<path id="path40" class="st5" d="M434.2,313c0.9,0,6.2,7.2,13.7,18.3c3.8,5.6,5.1,8.5,4.7,10c-0.5,2.1-12.8,20.1-16.4,24
		c-0.8,1-1.9,1.6-2.3,1.5c-1.8-0.6-17.9-24.5-17.9-26.4c0-1.1,3.9-7.8,8.8-14.7C429.6,318.7,433.8,313,434.2,313z"/>
	<path id="path42" class="st5" d="M340.4,346c1.6,0,17.3,7.9,18.4,9.2c1.1,1.3,1,4.5-0.5,17.7l-1.8,16l-15-6.9
		c-9.4-4.4-14.9-7.4-14.7-8.2c0.2-0.7,3.2-7.3,6.7-14.6C337,352,340.1,346,340.4,346z"/>
	<path id="path44" class="st5" d="M518.3,368c7.7,15,7.7,14.1,1.4,17.3c-3,1.5-5.8,2.7-6.4,2.7c-1.1,0-4.7-30.5-3.8-32.1
		C510.6,354.2,512.3,356.5,518.3,368z"/>
	<path id="path46" class="st6" d="M419.9,391.5c2.3,3.5,2.6,5,2.6,12.5c0,8.3-0.2,9-5.4,20.3c-3,6.4-5.9,11.7-6.5,11.7
		c-1,0-12.9-8.3-22.2-15.5c-4.8-3.7-6.7-8.7-6.7-18c0-5,0.5-9.3,1.5-11.6c2.1-4.8,7.6-10.9,11.3-12.5
		C401.7,375.2,413.2,381.1,419.9,391.5z"/>
	<path id="path48" class="st6" d="M474.8,378.4c4,2.1,7.8,6.5,10.1,11.6c3.9,8.6,2.4,22.4-3.1,29.1c-1.9,2.2-22.4,16.9-23.7,16.9
		c-2.3,0-13.1-26.8-13.1-32.4c0-10.5,9-21.6,20.5-25.2C470.8,376.7,471.6,376.7,474.8,378.4z"/>
	<path id="path50" class="st1" d="M324.2,379.3l8.9,2.8c4.9,1.5,11.2,4,14.1,5.6c10.5,5.7,19.4,17.8,20.6,27.8
		c0.2,2.5,0.2,4.5-0.1,4.5c-0.4,0-3.9-2-7.9-4.4c-9.2-5.7-16.6-7.2-25.1-5.2c-6.6,1.6-10.2,4.3-12.8,10.1
		c-3.5,7.5-1.7,16.9,5.9,30.4l3.5,6.4l-4.9-0.7c-7.7-1.1-14.9-5.3-21.5-12.4c-3.2-3.6-5.9-7-5.9-7.7c0-0.7,1.8-5.3,4.1-10.2
		c2.2-4.8,5.9-13.1,8.1-18.3c2.2-5.2,6-13.8,8.5-19.1L324.2,379.3z"/>
	<path id="path52" class="st1" d="M527.2,385c0.3,0,1.2,1.6,1.8,3.6c0.7,2.1,3.2,7.8,5.5,12.9l4.3,9.1h-11.7
		c-11.4-0.1-11.7,0-17.3,3.2c-3.2,1.8-6,3.7-6.3,4.3c-1.6,2.4-2.7,0.6-2.3-3.5c1.1-9.7,9-20.3,19.9-26.5
		C524.1,386.4,526.8,385,527.2,385z"/>
	<path id="path54" class="st7" d="M443.9,415.5c7,13.6,7.2,14.2,7.8,23c0.5,9.8-0.1,13.6-6.2,36c-1.9,7.1-4.7,17.4-6.1,22.8
		c-1.4,5.4-3,11-3.6,12.3l-1.2,2.5l-1.3-2.5c-0.7-1.4-5-16.8-9.4-34.3c-10-39.6-10-37.2,0.6-58.4c4.2-8.5,8.2-16,8.8-16.7
		C434.8,398.3,435.8,399.6,443.9,415.5z"/>
	<path id="path56" class="st6" d="M365.5,425.4c3.5,6,7.1,32.5,4.6,34c-1.6,1-23.8-1.2-29.2-3c-7.4-2.4-13.2-9.8-16-20.7
		c-3.3-12.7,0.5-20.7,10.9-22.8C347.3,410.7,360,416.1,365.5,425.4z"/>
	<path id="path58" class="st6" d="M537.2,414.4c3,1.3,3.9,2.5,5.8,7.8c2.6,6.9,2.6,9.6,0.4,17.5c-1.6,5.7-5.6,11-10.7,14.2
		c-3.7,2.2-15.6,4.7-27.1,5.6l-7.9,0.6l0.7-9.8c1.7-22.8,5.5-30.4,17.6-35.7C520.5,412.6,532.7,412.6,537.2,414.4z"/>
	<path id="path60" class="st7" d="M496.8,416.5c0.2,0.8-0.1,9.4-0.7,19c-1.1,18.3-2.2,23-7.1,29.3c-3.6,4.6-47.3,48.2-48.3,48.2
		c-1.1,0-0.3-6.5,1.7-13c0.8-2.5,3.1-10.6,5.1-18c10.2-36.8,11.7-40.5,20-47.7c2.7-2.4,10.4-7.7,17-11.8
		C493.4,416.9,496.6,415.3,496.8,416.5z"/>
	<path id="path62" class="st7" d="M373.1,416c1.4,0,26.4,16.7,30.6,20.3c5.7,5,8.4,11.6,15.8,39.2c1.5,5.5,4,14.6,5.6,20.1
		c3.1,10.9,3.7,16.4,1.7,16.4c-1.6,0.1-42.8-41.9-46.7-47.5c-5.3-7.5-7-14.3-8.1-31.2c-0.5-8.6-0.7-16-0.4-16.5
		C371.9,416.4,372.6,416,373.1,416z"/>
	<path id="path64" class="st1" d="M548.1,437.1c0.4-0.1,2,3.3,3.7,7.4l3.1,7.5l-2.3,1.5c-2.7,1.8-13.2,4.2-14.1,3.3
		c-0.4-0.3,1.5-4.9,4.2-10.1C545.3,441.4,547.8,437.1,548.1,437.1z"/>
	<path id="path66" class="st1" d="M298.7,450.4c10.4,1.2,25.3,10.1,25.3,15.2c0,1.1-1.8,1.4-8.4,1.4c-9.4,0-14.5,1.4-21,6
		c-6.6,4.5-8.9,8.2-8.9,14.4c0,9.7,7.8,20.3,19.3,26.1c2.8,1.4,5,3.1,4.7,3.8c-0.5,1.5-6.8,3.7-12.7,4.4c-7.7,0.9-24.6-4.5-27.3-8.8
		c-1-1.7,3.5-14.9,10.3-30.2c2.2-4.8,5.6-13.1,7.6-18.5c2-5.3,4.1-10.8,4.6-12.1C293,449.9,293.4,449.8,298.7,450.4z"/>
	<path id="path68" class="st1" d="M554.7,455c0.4,0,5.3,10.7,5.3,11.5c0,0.3-3.6,0.5-8,0.5c-4.4,0-8-0.3-8-0.6c0-0.3,2.3-3,5.2-6
		C552,457.4,554.5,455,554.7,455z"/>
	<path id="path70" class="st7" d="M354.2,462c15.8,1.2,17.4,2.2,44.7,28.8c20.8,20.1,25.3,25.3,23.8,26.9c-0.3,0.3-4.5-0.6-9.4-2
		c-4.8-1.4-14.9-4.2-22.3-6.2c-34.1-9.3-40.9-12.3-47.2-20.9c-4-5.4-17.8-26.9-17.8-27.7C326,460.2,336.5,460.6,354.2,462z"/>
	<path id="path72" class="st7" d="M533.7,461.2c8.2-0.2,8.2-0.2,7.4,2.1c-0.5,1.2-5,8.4-10,16c-12.8,19.2-12.8,19.3-54.1,30.5
		c-6.3,1.7-15.9,4.3-21.3,5.8c-5.3,1.5-10,2.4-10.3,2.1c-1.2-1.2,2.3-5,23.9-26.4c26.9-26.7,29.6-28.4,46.2-29.4
		C521,461.6,529.2,461.3,533.7,461.2z"/>
	<path id="path74" class="st6" d="M324.8,472.5c3.5,1.5,5.6,3.7,13.3,14.1c7.5,10.3,8.9,12.7,7.9,13.9c-0.7,0.8-1.6,1.5-2.1,1.5
		s-6.2,2.5-12.7,5.5s-13.3,5.5-15,5.5c-4.5,0-13.1-3.5-17.5-7.1c-7.4-6.1-12-17.8-8.9-22.8c4-6.5,9.1-10.1,16.9-12.1
		C311.7,469.8,319.5,470.4,324.8,472.5z"/>
	<path id="path76" class="st6" d="M556.8,471.1c5.1-0.1,6.4,0.2,6.9,1.6c0.3,1,2.9,7.8,5.8,15.1l5.2,13.3l-4.6,4.1
		c-8.9,7.9-15.8,9.5-25.3,5.7c-10.9-4.3-22.8-10.2-22.8-11.4c0-1.7,12.4-18.9,16.7-23c2.1-2,5.2-3.8,7.7-4.4
		C548.6,471.6,553.3,471.2,556.8,471.1z"/>
	<path id="path78" class="st7" d="M351,505.1c3.8-0.2,17.4,2.4,27.5,5.2c5,1.4,14.4,3.9,21,5.6c24.1,6.3,25.5,7,19.8,9.2
		c-1.6,0.6-16.1,4.4-32.3,8.5c-39.9,10-38.6,10-60.1-0.9c-8.9-4.5-16.2-8.7-16.2-9.2c-0.1-1.4,28.8-16.2,33.8-17.3
		C346.7,505.6,349.6,505.2,351,505.1z"/>
	<path id="path80" class="st7" d="M523.7,506.1c5.9,1.4,34.8,16,34.4,17.4c-0.1,0.5-7.2,4.6-15.7,9l-15.5,8l-9.3,0.3
		c-7.7,0.3-11.1-0.1-18.7-2.2c-5.2-1.4-14.6-3.9-20.9-5.6c-24-6.3-27.6-7.3-29.9-8.5l-2.5-1.2l2.2-1.2c2.2-1.2,43.8-12.1,57.7-15.1
		C515.3,504.8,517.5,504.7,523.7,506.1z"/>
	<path id="path82" class="st1" d="M575.3,507.1c1-0.1,7.2,12.7,6.5,13.5c-1.5,1.4-15.4,0.7-19.2-1c-4.7-2-4.5-2.2,5.2-8.2
		C571.5,509.1,574.8,507.2,575.3,507.1z"/>
	<path id="path84" class="st5" d="M268.3,516c1.4,0,9.2,6.1,9.2,7.2c0,1.1-17.4,14.3-18,13.6c-0.1-0.2,1.6-4.9,3.9-10.5
		C265.6,520.6,267.8,516,268.3,516z"/>
	<path id="path86" class="st8" d="M439,519c4.1,4.1,1.5,11-4.2,11c-3.4,0-6.8-3.1-6.8-6.3c0-2.7,0.9-4,3.5-5.5
		C434.5,516.5,436.8,516.8,439,519z"/>
	<path id="path88" class="st1" d="M573.5,524.6c1.1,0.2,4.1,0.6,6.7,0.9c3,0.4,5.1,1.3,5.7,2.3c0.5,0.9,3.5,9.3,6.6,18.7
		c3.2,9.3,8.2,23.2,11.2,30.8s5.3,13.9,5.2,14.1c-0.2,0.1-6.9,1.5-14.8,3.1c-18.6,3.6-26.8,3.3-35.6-1.3
		c-6.8-3.6-10.5-6.5-12.9-10.3l-1.7-2.6l9.8-0.5c12-0.6,17.3-2.7,24.3-9.7c4.8-4.8,5-5.3,5-10.3c-0.1-10.2-6.8-19.7-18.7-26.5
		c-3.5-1.9-6.3-3.6-6.3-3.9c0-1.1,5.8-3.9,9.4-4.4C569.6,524.6,572.4,524.4,573.5,524.6z"/>
	<path id="path90" class="st1" d="M294.8,525c8.7,0,15.7,2,15,4.2c-0.3,0.7-3.1,2.8-6.4,4.6c-11.6,6.5-17.4,15-17.4,25.3
		c0,7.7,3.6,12.4,13.5,17.6c4.1,2.1,6.8,2.7,15.5,3.2l10.5,0.6L320,586c-4.7,4.8-6.7,6-13.7,8.3c-13.3,4.4-19,3.8-54.5-5.1
		c-6-1.4-10.8-3.1-10.8-3.7c0-0.6,2.9-8.4,6.4-17.3s7-17.7,7.6-19.6c1.2-3.6,9.3-11.8,16.2-16.3c2-1.4,6.3-3.5,9.5-4.9
		C285.2,525.6,288.4,525,294.8,525z"/>
	<path id="path92" class="st7" d="M443.7,528.7l4.9,0.8c2.7,0.4,8.3,1.7,12.4,2.9c4.1,1.3,12.9,3.8,19.5,5.6
		c29.8,8.1,33.7,9.6,39.9,15.1c4.5,3.9,21.6,29.6,21.6,32.4c0,0.9-14,0.6-25.5-0.6c-16.2-1.6-19.8-3.3-32.3-15.2
		c-18.5-17.5-36.3-35.1-38.4-38.1L443.7,528.7z"/>
	<path id="path94" class="st7" d="M423,530.8c0,1.8-46.8,47.1-50.8,49.1c-6.9,3.5-14.8,4.9-31,5.6c-14.6,0.7-15.2,0.6-14.5-1.1
		c1.3-3.6,18.1-27.9,21.4-31.1c6-5.6,11.3-7.7,36.9-14.7c5.2-1.4,14.2-3.9,20-5.5C415.3,530.2,423,529.2,423,530.8z"/>
	<path id="path96" class="st6" d="M317.8,534.4c6,0.5,29.5,11.5,28.7,13.4c-0.9,2.3-15.1,21.5-17.8,24c-1.4,1.3-4.2,2.8-6.4,3.3
		c-5.5,1.2-15.2,1-19.5-0.5c-5.1-1.8-11.3-7-12.8-10.6c-3.9-9.5,6.4-25.2,18.8-28.7C311.4,534.6,315.4,534.2,317.8,534.4z"/>
	<path id="path98" class="st7" d="M427.7,534c1.6,0,1,3.3-2.7,16.5c-1.5,5.5-4.2,15.4-6,22c-7.5,27.5-9.9,32.7-18.4,40.2
		c-6.4,5.7-27.3,18.6-28.7,17.7c-1.1-0.7-0.8-9.5,1.2-28.2c1.6-15.5,2.7-17.1,29.8-44.5C415.9,544.7,427.1,534,427.7,534z"/>
	<path id="path100" class="st7" d="M440.8,534c0.4,0,11.6,10.9,24.9,24.2c29.6,29.7,29.2,29,30.5,50.7c0.5,8,0.8,16.5,0.6,18.9
		l-0.3,4.3l-15.6-10.5c-15.2-10.3-18.8-13.5-22.3-20.5c-1.7-3.1-5.4-15.4-11.1-36.6c-1.4-5-3.6-13.1-5-18.2c-1.4-5-2.5-9.9-2.5-10.7
		C440,534.7,440.3,534,440.8,534z"/>
	<path id="path102" class="st6" d="M577.4,550.5c4.7,8.9,2.9,15.2-5.8,20.7c-9.9,6.4-25.1,6.5-31.6,0.3
		c-4.8-4.6-18.2-23.5-17.7-24.9c0.3-0.7,4-2.7,8.3-4.6c4.4-1.8,10.4-4.4,13.4-5.7C556.5,530.9,570.2,536.7,577.4,550.5z"/>
	<path id="path104" class="st7" d="M435.6,537.1c0.7,1.3,1.8,4.6,2.4,7.4c0.7,2.7,2.5,9.9,4,16c13,49.9,13,48.7,1.3,71.5
		c-4.4,8.5-8.4,15.5-8.9,15.4c-0.5,0-4.7-7.6-9.4-16.8l-8.5-16.8l0.1-8.7c0-6.1,0.8-11.4,2.7-18.4c3.5-12.4,7-25.6,10.2-38.1
		c1.4-5.4,3-10.8,3.7-11.9C434.2,534.7,434.3,534.7,435.6,537.1z"/>
	<path id="path106" class="st6" d="M365.8,587.1l5.2-0.1v3.3c0,5.7-2,20-3.6,25.7c-2.5,8.9-8.9,14.3-20.2,17
		c-9.7,2.3-19-0.9-21.8-7.5c-1.6-4-1.8-12.4-0.4-17.5c1.5-5.5,6.5-12.6,10.8-15.5c3.1-2,6.3-2.9,14.3-3.9
		C355.8,587.8,362.9,587.2,365.8,587.1z"/>
	<path id="path108" class="st6" d="M517.1,588.6c17.1,2.3,21.6,5.5,25.9,18.4c2.4,7.2,2.2,14.7-0.6,20.2c-2.9,5.5-14.2,8.2-23.6,5.4
		c-6-1.7-13.8-7.8-16.3-12.7c-1.7-3.1-5.1-29-4.2-31.4C499.1,586.6,502.9,586.6,517.1,588.6z"/>
	<path id="path110" class="st1" d="M328.4,590.6c1.2,0.5,0.7,2.1-3,8.9c-5.4,10-6.5,16.4-4.1,24.6c2.8,9.5,8.1,12.9,20,12.9
		c7.4,0,13.9-2.3,22.4-8c2.9-2,3.4-2,3.9-0.6c0.7,1.9-5,14.2-9.4,20.2c-2.8,3.9-5.7,5.7-15.7,9.9c-2.2,0.9-6.5,2.9-9.5,4.4
		c-3,1.6-10.9,4.3-17.5,6.1c-6.6,1.7-18,5.2-25.3,7.7c-7.4,2.5-13.5,4.3-13.7,4.1c-0.4-0.4,8.1-28.8,15.6-52
		c7.4-23,13.6-31.3,27.4-36.7C325,589.9,326.1,589.7,328.4,590.6z"/>
	<path id="path112" class="st1" d="M543.2,590.4c6.3,1,14.6,5.3,19.4,10.2c5.5,5.5,9.1,12.8,14.2,28.9c2.2,7.1,6.6,20.9,9.6,30.6
		c5.7,17.9,6.4,20.9,4.6,20.9c-3.7,0-62-18.5-68.4-21.7c-7.4-3.7-14.1-10.6-18.1-18.6c-3-5.9-4.7-13.7-3-13.7c0.2,0,3,1.6,6.1,3.6
		c8.3,5.3,11.8,6.5,19.6,6.5c5.3,0,8-0.5,11.6-2.3c7.5-3.8,8.7-6.2,8.7-18.1c0-9.8-0.1-10.4-3.6-16.7c-1.9-3.6-3.9-7.3-4.2-8.4
		C539,589.9,539.3,589.8,543.2,590.4z"/>
	<path id="path114" class="st5" d="M249,593c5.6,1.7,11,4.3,11,5.3c0,0.6-3.4,8.2-7.7,17c-6.6,13.8-7.4,16-6.1,17.3
		c1,1,6.1,1.8,18.1,2.6c9.1,0.6,17.1,1.4,17.7,1.8c0.7,0.4,0.6,2.9-0.3,7.6l-1.2,6.9l-19,0.6c-22.2,0.6-28.9,1.8-39.1,7
		c-5.6,2.8-7.4,3.3-6.9,2.1c0.4-0.9,1.3-4.4,2.1-7.7c2.7-10.6,14.5-44.9,17-49.2c3.3-5.7,7.3-10.3,9.8-11.3
		C245.5,592.6,247.6,592.6,249,593z"/>
	<path id="path116" class="st5" d="M270.3,598c4.5,0,27.9,2.8,28.5,3.4c1.2,1.2-12.2,29.4-14.3,30.2c-1.6,0.6-31.5-2.3-32.4-3.2
		c-0.6-0.6,12.1-27.4,13.7-29.1C266.5,598.6,268.6,598,270.3,598z"/>
	<path id="path118" class="st5" d="M597.4,598.3l5.8,0.2l4.3,9.5c2.3,5.2,5.4,11.9,6.8,14.9c1.5,3,2.6,5.6,2.4,5.7
		c-0.2,0.2-7.4,1.1-16.1,2c-14.1,1.5-15.9,1.5-17.3,0.1c-2.2-2.2-14.4-29.1-13.3-29.5c0.5-0.2,5.5-0.9,11.2-1.7
		C586.9,598.8,594.1,598.3,597.4,598.3z"/>
	<path id="path120" class="st6" d="M410.6,611c0.6,0,3.5,5.3,6.5,11.7c4.9,11,5.3,12.3,5.3,19.8c0.1,9.2-1.2,12.4-7.5,18.5
		c-4,3.9-12.9,8-17.3,8c-3.7,0-8.9-4.2-12.3-10c-3-5-3.3-6.1-3.3-13.9c0-13.6,1.3-15.5,19-28.1C405.7,613.7,410,611,410.6,611z"/>
	<path id="path122" class="st6" d="M458.2,611c2.6,0.1,24.8,17.1,26.5,20.3c4.6,9,1.7,25.9-5.7,33.2c-3.6,3.6-4.6,4-8.8,3.9
		c-5.9-0.1-14.2-4.3-18.3-9.4c-3.5-4.2-6.9-12.8-6.9-17.5c0-1.9,1.9-7.6,4.1-12.7c2.3-5.1,5-11.2,6-13.6
		C456.1,612.9,457.5,611,458.2,611z"/>
	<path id="path124" class="st9" d="M376.5,633.3l0.6,9.8c0.8,11.8,3.4,18,10.4,24.9c4.5,4.4,4.7,4.5,10.8,4.4
		c10.6-0.1,19.2-6,26.1-17.9l4-6.7l1.9,2.6c2.4,3.3,5,3.3,8,0l2.5-2.6l3.1,5.8c9.1,17.2,24.7,23.9,36.5,15.9c2-1.4,3.8-2.5,3.9-2.5
		s0.3,8.7,0.4,19.3c0.2,10.5,0.9,23.5,1.7,28.7c1.5,9.9,3.1,44.9,3,68c0,11.9-0.3,14.1-2.3,18.8c-4.5,10-14,15.6-30.5,17.8
		c-5.5,0.8-12.3,1.8-15.1,2.3c-5.3,1-20.2-0.7-42.5-4.9c-13.1-2.5-19.1-2.5-28.2-0.1c-5.1,1.4-13.3,2.2-26.8,2.9
		c-27.3,1.3-32-0.1-32-9.4c0-4.9,3.9-28.2,11.4-67.4c1.4-7.4,3.9-21.2,5.6-30.5c6.2-33.9,7.8-41.6,9.3-43.8c0.8-1.2,5.5-4,10.6-6.2
		c10.1-4.4,13.2-7,16.5-13.9c1.1-2.5,4.1-7,6.6-9.9L376.5,633.3z"/>
	<path id="path126" class="st5" d="M622.8,633.1c0.6,0,1.2,0.4,1.2,1s1.9,5.1,4.2,10c2.2,4.9,3.9,9.1,3.7,9.4
		c-0.3,0.2-2.5-0.1-4.9-0.7c-2.5-0.6-12-1.1-21.3-1c-19.2,0.1-18.5,0.4-18.9-9.5l-0.3-5.8l11.5-0.8c6.3-0.4,14.2-1.1,17.5-1.6
		C618.8,633.7,622.1,633.2,622.8,633.1z"/>
	<path id="path128" class="st9" d="M491.7,634c1.9,0,7.9,6.3,10.5,11.1c3.8,7.3,8.7,11.8,17.5,16.3c11.3,5.6,32.6,13.7,44,16.6
		c4.1,1,4.2,1.2,5.3,6.7c0.7,3.1,2,7.5,3,9.8s3.7,10.9,6,19.1c2.2,8.2,6.1,20.3,8.5,26.9c8.3,22.8,11.4,45.5,7,52.2
		c-2,2.9-21.4,12.7-32,16.1c-7.2,2.3-9.7,2.6-24.5,2.6c-15.1,0.1-17.2-0.1-24.9-2.5c-6.7-2.1-8.7-3.2-9.8-5.3
		c-1.3-2.4-4.1-27.4-5.8-50.1c-0.3-5-2-23.4-3.6-41c-3.1-33.7-3.7-48.7-2.4-67.3C490.9,639.1,491.4,634,491.7,634z"/>
	<path id="path130" class="st9" d="M636.1,661c1.3,2.4,15.9,39.8,19.1,49c5.6,16.1,6.8,20.1,7.8,26.8c0.6,3.7,1.6,8.8,2.2,11.4
		c1.4,5.6,0.8,6.5-8.9,13.5c-8.9,6.3-16.7,9.9-27.3,12.4c-8.3,1.9-9.9,2-16.9,0.9l-7.8-1.2l-3.2-7.5c-1.7-4.1-4.3-10.9-5.6-15.1
		c-1.3-4.2-4.8-15.6-7.8-25.2c-6.9-21.9-10.6-34.1-12.3-40.3c-1.1-4.4-1.1-4.7,0.4-4.3c4.1,1.3,20.6,4.5,21.2,4.1
		c0.4-0.3-0.8-5.7-2.6-12.1c-3.7-12.5-4-14.9-2.3-16c0.7-0.4,4.8-1,9.3-1.3C615.5,655.1,634.3,657.7,636.1,661z"/>
	<path id="path132" class="st9" d="M273.7,656.6l3,0.6l-1.7,7.1c-2,8.5-3.7,12-8,16.5c-2.1,2.3-2.9,3.9-2.5,5.2
		c0.5,1.7-0.8,5.8-5.1,15.7c-0.8,1.7-3.4,8.3-5.9,14.7c-2.4,6.3-5.8,14.2-7.5,17.5c-1.6,3.3-4.8,10.6-7,16.3
		c-11.9,30.1-16.9,37.8-24.6,37.8c-5.9,0-13.1-2.4-22.9-7.6l-8.7-4.7l0.7-6c0.4-3.3,2-10.6,3.6-16.1c1.6-5.6,2.9-11,2.9-12.1
		s1.1-4.3,2.4-7c1.2-2.8,2.6-6.8,3-9c0.4-2.2,1.8-7.2,3.1-11c1.3-3.9,3.7-12,5.5-18c5.5-18.9,7.9-25.7,9.7-27.1
		c4.5-3.6,16.6-9,24.8-11C247.5,656.1,266.5,655.2,273.7,656.6z"/>
	<path id="path134" class="st9" d="M332,671.7c0,1.6-6.2,30.1-8.1,37.3c-1,4.1-2.6,12.7-3.3,19c-0.8,6.3-2.4,16-3.6,21.5
		c-5.6,25.7-8.4,37.5-10.6,43.4c-1.3,3.5-2.4,7.5-2.4,9c0,4-2.4,6.6-8.2,8.9c-12.5,5-24.5,4.5-44.8-1.7
		c-15.5-4.7-18.7-6.4-19.6-10.3c-0.4-1.8-0.7-4-0.5-4.8c0.2-1.3,9-26.4,15.3-44c5.2-14.2,10.1-28,12-33.5c1.1-3.3,2.8-7.1,3.7-8.5
		c1-1.4,3.3-6,5.2-10.4c2.7-6.1,4-8.1,6.4-9.2c4.5-1.9,34.3-11.4,36.3-11.5c0.9,0,5.8-1.3,10.7-2.9C330.1,670.9,332,670.6,332,671.7
		z"/>
	<path d="M494,22c3.9,0,7,0.3,7,0.8c0,0.4,2.7,1.3,6,1.9c5.1,1,8.7,2.8,22.2,11.8c18.1,12,18.3,12.1,27.5,13.5
		c8,1.3,14.8,4.8,21.3,11c4.4,4.2,4.9,5,6,11.7c0.9,5.5,0.9,8.6,0,13.5c-2.1,11.3-2.3,18.4-0.5,25.3c1.5,6.2,1.5,6.7-0.3,10.8
		c-1.2,2.7-3.3,5.2-5.3,6.4c-3.4,2.1-4,2.3-11.6,4.3c-3.7,0.9-4.3,1.4-4.3,3.8c0,1.5-0.9,4.6-1.9,6.9c-2.6,5.6-6.7,7.7-14.9,7.4
		c-7.9-0.2-11.9,1.6-15.9,7.3c-1.9,2.6-4.7,5.1-7.7,6.4c-5.6,2.7-11.7,11.4-13.6,19.5c-1.7,6.9-6,17.7-11.4,28.5
		c-2.4,4.8-5.8,13.6-7.6,19.5c-3.1,10.6-3.2,11.3-2.7,25.5c0.4,14.7,0.4,14.7,6,31.2c5,14.8,11,29.9,15.2,38
		c0.9,1.7,1.6,3.3,1.7,3.7c0,0.5,2.2,5.1,4.8,10.3c2.6,5.2,5.5,11.3,6.5,13.5c1,2.2,8.1,17.7,15.7,34.5c7.7,16.8,16,35.7,18.4,42
		c2.5,6.3,6.7,16.9,9.4,23.5c2.7,6.6,7.2,18.1,9.9,25.5c11.4,31,14.4,38.9,18.1,47.5c2.1,4.9,5.4,13.5,7.3,19
		c4.6,13.3,16.3,43.8,18.6,48.4c1,2,3.5,9,5.6,15.6c2,6.6,4.6,13.7,5.7,15.8c1,2.1,3.7,8.8,5.9,14.9c2.2,6.1,4.8,12.7,5.8,14.7
		c1.1,2,5.1,11.5,8.9,21.1c8.9,22.1,16.9,40.9,22.7,52.8c2.5,5.1,4.5,9.9,4.5,10.7s0.5,1.5,1,1.5c2,0,1,8-1.5,12
		c-2.9,4.7-7.1,8.1-16.7,13.8c-10.8,6.3-17.1,9-26.2,11.2c-11.6,2.9-23.8,7.3-24.7,9c-0.4,0.8-1.3,3-1.9,4.8
		c-1,2.4-3.5,4.8-10.1,9.1c-4.8,3.3-10.2,6.2-12.1,6.6c-1.8,0.4-6.3,2-10.1,3.6c-15.8,6.6-38.5,8.5-61.3,5
		c-16.3-2.5-13.6-2.9-38.9,4.5c-21.8,6.3-43.6,8.1-58.9,4.9c-3.8-0.8-12.6-2-19.6-2.7c-13.2-1.2-17.2-0.9-36.5,2.7
		c-16.3,3-39.5,1.4-55.5-3.8c-5.3-1.7-9.2-2.1-22-2.2c-19.1-0.2-30-1.6-41-5.3c-11.8-4-16.6-6.6-23-12.7c-4.3-4.1-8.3-6.5-18-10.9
		c-6.9-3.1-16.3-7.8-21-10.4l-8.5-4.7l0.1-5c0-3.3,1.3-8.1,3.6-14c2-5,5.3-14.6,7.4-21.5c2-6.9,5.7-17.9,8.1-24.5
		c2.5-6.6,6.4-17.9,8.8-25c8.1-24.1,16.3-46.9,20.5-57c2.3-5.5,5.9-15.4,8-22c2.1-6.6,5.5-16.3,7.5-21.5c3.2-8.1,15-41.3,17.5-49
		c0.8-2.5,5-12.9,11-27c1.7-4.1,4.2-10.7,5.5-14.5c9.4-27.8,17.6-48.7,25.7-65.5c3.3-6.9,7.3-15.9,9-20c1.6-4.1,5.8-13.1,9.2-20
		c3.5-6.9,8.2-17.1,10.4-22.7c3.8-9.2,18.3-38.7,32.7-66.3c8.4-16.1,9.9-23.4,9.2-44.5c-0.6-17.8-2-25.7-8.3-46.9
		c-10.4-35.3-14.3-44.3-20.8-48.3c-2.2-1.4-6.4-4.1-9.2-6c-6.1-4-9.1-4.1-15-0.7c-8.8,5.2-15.8,2.1-30.6-13.4
		c-14.7-15.4-18.8-24.4-18.8-41.3c0-11.7,2-26.1,4.1-29.6c2.6-4.2,8.7-7.6,20.3-11.4c10-3.2,14.2-5.9,20.8-13.4
		c5.2-5.9,9.8-8.5,24.3-13.5c13.5-4.6,21.6-5.3,30.8-2.6c10.4,3.1,15.5,8.1,18.3,18.1c2.1,7.6,2.1,7.6,0.4,16.3
		c-1.3,6.9-1.2,7.4,0.6,9.9c2.6,3.4,21.1,11,31.4,12.8c8.1,1.5,15.8,0.9,27.5-2.1c6.4-1.7,10.6-3.8,22.7-11.6c9-5.9,10.7-9,8.9-16.3
		c-1.3-5.1,0-18,2.3-22.4c1.8-3.3,7.6-8.6,10.5-9.6c1.2-0.3,2.1-1.1,2.1-1.6S490.2,22,494,22z M490.4,29.9
		c-7.9,3.6-14.4,14.6-12.8,21.9c1.2,5.5,1.5,6,4.2,6.7c3.5,0.9,5.2,2.3,5.2,4.4c0,2.8-9.5,12.7-13.2,13.7c-3.1,0.9-3.3,1.3-3.6,5.9
		c-0.2,2.7,0.2,6.9,0.8,9.3c1.4,5.7,0.8,7.4-4.1,10.8l-4.1,2.8l0.7,6.7c0.5,5.2,0.3,7.3-1,9.9c-0.9,1.7-1.5,3.3-1.3,3.5
		c0.4,0.4,5.5,3.1,28.8,15.3c15.4,8,31.5,14.6,33.3,13.5c0.4-0.2,0.7-2,0.7-3.8c0-2.5-0.6-3.9-2.4-5c-1.3-0.9-2.7-2.3-3-3.2
		c-1.6-4.2,5.7-5.9,9-2.2c1,1.2,3.3,2.8,5.1,3.5c4,1.7,16.5,1.8,18.1,0.2c0.7-0.7,1.2-3.5,1.2-6.3c0-2.9,0.6-6,1.5-7.2
		c1.7-2.5,7.1-4.3,12.7-4.3c4.2,0,10.8-4.9,10.8-8c0-4.3-5.8-19.5-10.6-27.8c-1.9-3.3-1.9-3.3,0.1-4.8c1.2-0.9,3.6-1.4,6-1.2l4,0.3
		l0.9-4.7c0.8-4.1,0.6-5.3-1.8-10.2c-1.5-3.1-3.9-6.4-5.4-7.4c-2.7-1.9-14.2-5.2-24.2-7.1c-3-0.6-8.6-1.7-12.5-2.5
		c-5.2-1.2-8-1.3-10.8-0.5c-7.3,2-9.6-0.8-5.7-7.3c1.8-3.1,1.8-3.5,0.3-6.6c-2-4-6-7-12-8.8C499.2,27.5,495.3,27.7,490.4,29.9z
		 M341.5,42.5c-6.1,6.4-7.6,7.5-10.4,7.5c-3.5,0-3.6-0.2-1.5-7.3c0.4-1.4-0.1-1.7-3.1-1.7c-6.9,0-13.9,5.9-19.6,16.5
		c-4.4,8.3-7.4,12.1-12.2,15.6c-5.3,3.9-8.7,3.9-8.7,0.1c0-1.6,0.9-3.7,2-4.7c3.2-2.9,1.8-2.8-5.1,0.4c-15,6.8-16.4,14.7-5.7,31.4
		c3.8,6,3.3,7.8-2.4,7.5l-4.3-0.3l-0.3,4.4c-0.7,9.6,3.2,13.6,16,16.2c12.5,2.5,13.8,3.2,13.8,6.9c0,2.8-0.2,3-4,3
		c-3.2,0-4,0.4-4,1.8c0,2.3,2.2,4.3,7.7,7.1c5.9,2.9,9.2,2.6,15.9-1.4c7.9-4.8,8.3-4.7,12.4,2.2c2.5,4.2,5.1,4.2,11.5,0.2
		c5-3.2,26-20,32.8-26.2c6.6-6.1,4.7-11.2-6.1-15.7c-2.9-1.3-6.1-3.5-7.2-5l-1.9-2.6l7.5-1.3c8.3-1.4,10.4-2.9,10.4-7.2
		c0-3.1-2.5-8.9-3.8-8.9s-4.2-5.7-4.2-8.3c0-1.3,0.9-3.6,2.1-5.1c2.6-3.3,4.3-14.4,2.9-19.5c-1.1-4-7.6-10.9-12.7-13.5
		C353.4,31.7,350.5,33,341.5,42.5z M385.8,85.7c-1.8,0.5-4.8,9.1-4.8,14c0,3.7,2.8,12,5.1,15.3c2.3,3.3,34,24,36.8,24
		c5,0,27.2-13.5,31-18.9c1.7-2.3,2.1-4.4,2.1-10.3c0-6.6,0.3-7.7,2.5-9.8c3.1-2.9,4.8-8.1,4-12.1c-0.6-2.8-1-3.1-3.6-2.5
		c-1.7,0.3-6.5,2-10.7,3.7c-14.1,5.6-35.8,6.2-47,1.3c-3-1.3-6.2-2.4-7.2-2.4s-2.3-0.7-3-1.5C389.7,85,388.9,84.9,385.8,85.7z
		 M380,133.2c-8.2-0.3-8.7-0.2-13.7,3c-14.7,9.3-19.8,13.8-17.4,15.2c0.5,0.3,4.2-0.8,8.3-2.5c20.5-8.6,22.2-9.1,29.3-9.2
		c5.6-0.1,8.2,0.4,12.9,2.6c3.2,1.5,6.1,2.6,6.3,2.3c0.8-0.8-6.4-6-11.7-8.5C389.8,134.1,386.6,133.5,380,133.2z M446.3,135.4
		c-6.7,2.2-19.6,10.7-18.2,12c0.3,0.3,3.4-0.7,6.9-2.1c15-6.1,24-4.1,55.3,12.2c7.9,4.1,14.9,7.5,15.5,7.5c2.5,0,1.1-4.2-2.7-8.3
		c-4.4-4.7-21.6-15.4-31.3-19.4C464.2,134.2,452.7,133.3,446.3,135.4z M373.2,147.9c-8.3,3.1-17.7,8.7-21.3,12.8
		c-3.1,3.5-3.1,3.8-1.2,4.1c1.1,0.2,9.2-0.6,17.9-1.7c16.3-2,37.7-7.6,37.1-9.6c-0.2-0.6-3-2.4-6.2-4
		C391.9,145.6,381.3,145,373.2,147.9z M442.2,150c-2.4,0.5-7.4,2.6-11,4.6c-9.2,5.1-30.5,19.4-29.9,20.1c0.7,0.6,15.8-7.2,22-11.4
		c9.5-6.4,21.7-8,32.8-4.3c3.4,1.2,11,4.5,17,7.5c11.3,5.7,28.6,11.9,29.4,10.5c0.7-1.1-10.3-11.1-17.6-16c-3.2-2.3-10-5.6-14.9-7.6
		C460.2,149.7,449.9,148.4,442.2,150z M384,165c-3,1.1-7.2,2-9.3,2c-4.3,0-18.9,5.3-20.8,7.6c-1,1.2-0.9,1.9,0.9,3.7
		c2,2,2.5,2,6.9,0.9c2.7-0.7,7.5-2.3,10.8-3.7c14.3-5.7,19.5-7.5,21.8-7.5c2.2,0,5.7-2.7,5.7-4.3C400,162.3,389.3,163.2,384,165z
		 M446.5,166.3c-8.2-0.4-9.9-0.1-19.1,3.1c-6.8,2.3-13.1,5.4-19.3,9.5c-10.2,6.7-16.8,9.5-26.5,11.2c-3.6,0.6-6.6,1.6-6.6,2.1
		c0,0.7,1.6,0.8,4.3,0.3c2.3-0.3,6.7-1,9.7-1.5c3-0.4,10.7-3.2,17-6c17.6-8,18.7-8.2,31-7c5.8,0.6,15.9,2.2,22.5,3.5
		c23.8,4.9,27.8,5.5,34.4,5.5h6.6l-5-3.2c-10.4-6.5-17.4-9.8-28.5-13.4C458.2,167.6,453.4,166.6,446.5,166.3z M387.8,175.1
		c-1.9,0.1-8.4,2.6-15.8,6c-8.9,4.2-9.3,4.4-9.7,5.6c-0.7,2.1,2.8,2.2,8.8,0.3c3.4-1.1,6.8-2,7.6-2c0.8,0,3.4-1.2,5.9-2.6
		c3.3-1.9,4.4-3.2,4.4-5C389,176.1,388.4,175,387.8,175.1z M437.2,184c-10.7,0-13.4,0.4-17.2,2.1c-2.5,1.2-10.8,4.8-18.5,8
		c-12.8,5.5-14.9,6-24.9,6.9c-11.6,1.1-15.6,1.8-15.5,2.9c0,0.3,1.4,3.5,3.2,7.1c2.9,5.9,3.5,6.5,6.5,6.8c2.1,0.2,6.7-1,12.5-3.4
		c13.1-5.2,17.5-7.6,29.8-15.9c11.3-7.6,20.5-11.5,27.1-11.5s3.8,3.9-5.3,7.6c-9.8,4-24.6,11.6-32.7,16.8
		c-6.3,4.1-12.5,7.1-29.4,14.3c-4,1.7-4.9,4.4-2.8,8.4c2.8,5.2,16.9-1.3,35.8-16.4c11.5-9.2,13.8-10.7,18-11.2
		c2.6-0.3,9.7-1.5,15.8-2.6c12.2-2.2,17-1.9,30.9,2c8.3,2.3,10.2,1.7,4.9-1.5c-5.3-3.3-9.4-4.4-19.7-5.3c-8.2-0.7-12-2.1-10.4-3.7
		c0.4-0.4,5.8-0.8,11.9-0.8c11.1,0,11.4,0,18.8,3.7c8.2,4.1,14,4.8,17.8,2.1c2.2-1.5,2.2-1.7,0.6-3.5c-2-2.3-8.4-4.2-20.4-6.4
		c-4.7-0.8-12-2.6-16.3-4C451,184.4,448.1,184,437.2,184z M443,210.8c0,2.3,23.5,9.4,35.7,10.8c5.4,0.7,5.5,0.7,4.4-1.5
		c-1.7-3.2-9.7-6.8-19-8.5C455.2,209.9,443,209.5,443,210.8z M423.5,214.6c-3.6-0.7-9.5,1.7-9.5,3.8c0,2,19.3,12.3,29.5,15.7
		c7.6,2.6,11.1,2.9,7.2,0.7c-1-0.5-5.9-4.4-10.9-8.6c-5-4.3-10-8.4-11.2-9.3C427.4,216,425.2,215,423.5,214.6z M445.5,221.4
		c-1.6-0.5-1.4,0,1,2.6c6.4,6.9,24.5,13.3,32.1,11.4c3.5-0.9,3.1-5.8-0.6-6.2c-1.4-0.2-8.8-1.9-16.5-3.8
		C453.8,223.5,446.6,221.7,445.5,221.4z M410,229.3c-7-0.4-9.7,0.6-29.9,11c-6.4,3.3-7.2,4.1-6.7,6c2.8,10.1,2.8,15.1,0.2,27.6
		c-2.3,11-3.3,13.6-8,21.5c-6.1,10.3-22.6,43.1-22.6,45c0,1.2,14.4,8.6,16.6,8.6c1,0,2.6-4.7,9.1-27c5-17,6.5-21,7.8-21
		c0.8,0,4,3,7.1,6.7c7.7,9,26.5,27.3,28,27.3c0.7,0,6.5-6.5,12.9-14.6l11.7-14.5l4,5.7c2.2,3.2,6.7,9.7,9.9,14.6
		c3.3,4.8,6.4,8.8,6.9,8.8c2,0,13.7-10,20.6-17.7c10.9-12.1,11.8-13.6,10.6-17c-8-21.6-9-25.1-10.3-38.1l-1.3-13.2l-5-1.5
		c-2.8-0.9-8-2-11.6-2.6c-16.5-2.7-21.8-4.3-32.5-9.7C418.3,230.6,415.4,229.6,410,229.3z M377.1,308c-1.3,0-7.2,24.2-13.7,56.5
		c-3.1,14.9-3.4,17.7-2.5,22.8c1.5,8.6,6.3,17.9,11.9,22.7l4.7,4.2l0.5-10.8c0.6-11.9,2.1-16,8.2-22.9c5.9-6.8,10.2-7.8,19.3-4.6
		c7.7,2.7,12.7,7,17.8,15.4c2.4,4,4.8,7.2,5.3,7.2c2.3-0.1,3.9-6.2,3.8-14.5c0-6.9-0.5-9.7-2.7-14.9c-3.7-8.7-7.2-13.2-31.1-38.9
		C387.2,318,377.5,308,377.1,308z M491.4,309.3c-1.9-0.6-45.8,47.1-49.2,53.5c-6.2,11.6-7.9,24.9-4.2,32.9c1,2.4,2.1,4.3,2.4,4.3
		c0.3,0,2.2-3.2,4.2-7c2.1-4.1,5.6-8.7,8.2-11c4.6-4.1,13.4-8,17.8-8c6.3,0,14.4,7,18,15.6c0.9,2.2,1.8,8.1,2.2,13.6
		c0.3,5.7,0.9,9.8,1.5,9.8c2,0,9.5-8.9,12.3-14.6c2.7-5.5,2.9-6.6,2.8-17.9c-0.1-9.2-0.7-14.3-2.6-22c-1.4-5.5-4-16.3-5.8-24
		s-4-16.4-4.9-19.4C493.2,312.1,492,309.5,491.4,309.3z M434.2,313c-1.4,0-18.2,25.3-18.2,27.4c0,1.9,16.1,25.8,17.9,26.4
		c0.4,0.1,1.5-0.5,2.3-1.5c3.6-3.9,15.9-21.9,16.4-24c0.6-2.1-3.8-9.5-13.8-23.1C436.7,315.4,434.6,313,434.2,313z M340.4,346
		c-0.5,0-13,25.5-13.6,27.8c-0.2,0.8,5.3,3.8,14.7,8.2l15,6.9l1.8-16c1.5-13.2,1.6-16.4,0.5-17.7c-0.7-0.8-5-3.3-9.6-5.4
		C344.7,347.7,340.7,346,340.4,346z M509.5,355.9c-0.9,1.6,2.7,32.1,3.8,32.1c0.6,0,3.4-1.2,6.4-2.7c6.3-3.2,6.3-2.3-1.4-17.3
		C512.3,356.5,510.6,354.2,509.5,355.9z M388.1,383.5c-5,5.8-6.4,9.9-6.4,19c0,9.3,1.9,14.3,6.7,18c9.3,7.2,21.2,15.5,22.2,15.5
		c0.6,0,3.5-5.3,6.5-11.7c5.2-11.3,5.4-12,5.4-20.3c0-7.5-0.3-9-2.6-12.5c-3-4.6-8.5-9.8-12.7-11.8
		C399.8,375.9,393.8,377.1,388.1,383.5z M465.5,378.4C454,382,445,393.1,445,403.6c0,5.6,10.8,32.4,13.1,32.4
		c1.3,0,21.8-14.7,23.7-16.9c5.5-6.7,7-20.5,3.1-29.1c-2.3-5.1-6.1-9.5-10.1-11.6C471.6,376.7,470.8,376.7,465.5,378.4z
		 M333.1,382.1l-8.9-2.8l-4.5,9.6c-2.5,5.3-6.3,13.9-8.5,19.1c-2.2,5.2-5.9,13.5-8.1,18.3c-2.3,4.9-4.1,9.5-4.1,10.2
		c0,0.7,2.7,4.1,5.9,7.7c6.6,7.1,13.8,11.3,21.5,12.4l4.9,0.7l-3.5-6.4c-7.6-13.5-9.4-22.9-5.9-30.4c2.6-5.8,6.2-8.5,12.8-10.1
		c8.5-2,15.9-0.5,25.1,5.2c4,2.4,7.5,4.4,7.9,4.4c0.3,0,0.3-2,0.1-4.5c-1.2-10-10.1-22.1-20.6-27.8
		C344.3,386.1,338,383.6,333.1,382.1z M527.2,385c-0.4,0-3.1,1.4-6.1,3.1c-10.9,6.2-18.8,16.8-19.9,26.5c-0.4,4.1,0.7,5.9,2.3,3.5
		c0.3-0.6,3.1-2.5,6.3-4.3c5.6-3.2,5.9-3.3,17.3-3.2h11.7l-4.3-9.1c-2.3-5.1-4.8-10.8-5.5-12.9C528.4,386.6,527.5,385,527.2,385z
		 M433.3,400.2c-0.6,0.7-4.6,8.2-8.8,16.7c-10.6,21.2-10.6,18.8-0.6,58.4c4.4,17.5,8.7,32.9,9.4,34.3l1.3,2.5l1.2-2.5
		c0.6-1.3,2.2-6.9,3.6-12.3c1.4-5.4,4.2-15.7,6.1-22.8c6.1-22.4,6.7-26.2,6.2-36c-0.6-8.8-0.8-9.4-7.8-23
		C435.8,399.6,434.8,398.3,433.3,400.2z M335.8,412.9c-10.4,2.1-14.2,10.1-10.9,22.8c2.8,10.9,8.6,18.3,16,20.7
		c5.4,1.8,27.6,4,29.2,3c1.2-0.7,0.7-11.2-1.2-23.4c-1.6-10.4-7.2-17.8-16.2-21.4C348.5,412.8,340.4,412.1,335.8,412.9z M516,414.6
		c-12.1,5.3-15.9,12.9-17.6,35.7l-0.7,9.8l7.9-0.6c11.5-0.9,23.4-3.4,27.1-5.6c5.1-3.2,9.1-8.5,10.7-14.2c2.2-7.9,2.2-10.6-0.4-17.5
		c-1.9-5.3-2.8-6.5-5.8-7.8C532.7,412.6,520.5,412.6,516,414.6z M496.8,416.5c-0.4-1.9-21.4,11-29.3,17.8c-8.3,7.2-9.8,10.9-20,47.7
		c-2,7.4-4.3,15.5-5.1,18c-2,6.5-2.8,13-1.7,13c1,0,44.7-43.6,48.3-48.2c4.9-6.3,6-11,7.1-29.3C496.7,425.9,497,417.3,496.8,416.5z
		 M371.6,416.8c-0.3,0.5-0.1,7.9,0.4,16.5c1.1,16.9,2.8,23.7,8.1,31.2c3.9,5.6,45.1,47.6,46.7,47.5c2,0,1.4-5.5-1.7-16.4
		c-1.6-5.5-4.1-14.6-5.6-20.1c-9.8-36.3-9.4-35.7-32.3-50.8C374.2,416.1,372.6,415.3,371.6,416.8z M548.1,437.1
		c-1,0.1-10.3,19-9.6,19.7c0.9,0.9,11.4-1.5,14.1-3.3l2.3-1.5l-3.1-7.5C550.1,440.4,548.5,437,548.1,437.1z M298.7,450.4
		c-5.3-0.6-5.7-0.5-6.5,1.7c-0.5,1.3-2.6,6.8-4.6,12.1c-2,5.4-5.4,13.7-7.6,18.5c-6.8,15.3-11.3,28.5-10.3,30.2
		c2.7,4.3,19.6,9.7,27.3,8.8c5.9-0.7,12.2-2.9,12.7-4.4c0.3-0.7-1.9-2.4-4.7-3.8c-11.5-5.8-19.3-16.4-19.3-26.1
		c0-6.2,2.3-9.9,8.9-14.4c6.5-4.6,11.6-6,21-6c6.6,0,8.4-0.3,8.4-1.4c0-2.9-5.4-7.7-12.4-11.1C307.5,452.6,302,450.8,298.7,450.4z
		 M554.7,455c-0.6,0-10.7,10.8-10.7,11.4c0,0.3,3.6,0.6,8,0.6c4.4,0,8-0.2,8-0.5c0-0.2-1.1-2.9-2.4-6
		C556.2,457.5,554.9,455,554.7,455z M326,460.9c0,0.8,13.8,22.3,17.8,27.7c6.3,8.6,13.1,11.6,47.2,20.9c7.4,2,17.5,4.8,22.3,6.2
		c4.9,1.4,9.1,2.3,9.4,2c1.5-1.6-3-6.8-23.8-26.9c-27.3-26.6-28.9-27.6-44.7-28.8C336.5,460.6,326,460.2,326,460.9z M533.7,461.2
		c-35.1,0.7-34.4,0.3-64.4,30.1c-21.6,21.4-25.1,25.2-23.9,26.4c0.3,0.3,5-0.6,10.3-2.1c5.4-1.5,15-4.1,21.3-5.8
		c41.3-11.2,41.3-11.3,54.1-30.5c5-7.6,9.5-14.8,10-16C541.9,461,541.9,461,533.7,461.2z M289.8,483.1c-3.1,5,1.5,16.7,8.9,22.8
		c4.4,3.6,13,7.1,17.5,7.1c1.7,0,8.5-2.5,15-5.5s12.2-5.5,12.7-5.5s1.4-0.7,2.1-1.5c1-1.2-0.4-3.6-7.9-13.9
		c-7.7-10.4-9.8-12.6-13.3-14.1C311.5,467.2,296.9,471.6,289.8,483.1z M556.8,471.1c-9.5,0.2-14.1,1.5-18.1,5.4
		c-4.3,4.1-16.7,21.3-16.7,23c0,1.2,11.9,7.1,22.8,11.4c9.5,3.8,16.4,2.2,25.3-5.7l4.6-4.1l-5.2-13.3c-2.9-7.3-5.5-14.1-5.8-15.1
		C563.2,471.3,561.9,471,556.8,471.1z M344.5,506.2c-5,1.1-33.9,15.9-33.8,17.3c0,0.5,7.3,4.7,16.2,9.2
		c21.5,10.9,20.2,10.9,60.1,0.9c16.2-4.1,30.7-7.9,32.3-8.5c5.7-2.2,4.3-2.9-19.8-9.2c-6.6-1.7-16-4.2-21-5.6
		c-4.9-1.4-12.6-3.1-17-3.9C352.5,504.8,350.3,504.8,344.5,506.2z M505.5,507c-13.9,3-55.5,13.9-57.7,15.1l-2.2,1.2l2.5,1.2
		c2.3,1.2,5.9,2.2,29.9,8.5c6.3,1.7,15.7,4.2,20.9,5.6c7.6,2.1,11,2.5,18.7,2.2l9.3-0.3l15.5-8c8.5-4.4,15.6-8.5,15.7-9
		c0.4-1.4-28.5-16-34.4-17.4C517.5,504.7,515.3,504.8,505.5,507z M575.3,507.1c-1.1,0.1-14,8.2-15.5,9.7c-2.1,2.1,5.6,4.6,14,4.5
		c4-0.1,7.6-0.4,8-0.7c0.3-0.4-0.8-3.6-2.6-7.1C577.5,509.9,575.7,507,575.3,507.1z M268.3,516c-0.8,0-9.3,20.2-8.8,20.8
		c0.6,0.7,18-12.5,18-13.6c0-0.6-1.9-2.4-4.2-4.1C270.9,517.4,268.7,516,268.3,516z M431.5,518.2c-2.6,1.5-3.5,2.8-3.5,5.5
		c0,3.2,3.4,6.3,6.8,6.3c5.7,0,8.3-6.9,4.2-11C436.8,516.8,434.5,516.5,431.5,518.2z M573.5,524.6c-3.4-0.5-10.1,0.9-12.9,2.7
		c-1.4,1-2.6,1.9-2.6,2.1c0,0.3,2.8,2,6.3,3.9c11.9,6.8,18.6,16.3,18.7,26.5c0,5-0.2,5.5-5,10.3c-7,7-12.3,9.1-24.3,9.7l-9.8,0.5
		l1.7,2.6c2.4,3.8,6.1,6.7,12.9,10.3c8.8,4.6,17,4.9,35.6,1.3c7.9-1.6,14.6-3,14.8-3.1c0.1-0.2-2.2-6.5-5.2-14.1s-8-21.5-11.2-30.8
		c-3.1-9.4-6.1-17.8-6.6-18.7c-0.6-1-2.7-1.9-5.7-2.3C577.6,525.2,574.6,524.8,573.5,524.6z M294.8,525c-12.3,0.1-21.1,4-33,14.9
		c-3.3,3-6.2,6.6-6.8,8.7c-0.6,1.9-4.1,10.7-7.6,19.6s-6.4,16.7-6.4,17.3c0,0.6,4.8,2.3,10.8,3.7c35.5,8.9,41.2,9.5,54.5,5.1
		c7-2.3,9-3.5,13.7-8.3l5.5-5.5l-10.5-0.6c-8.7-0.5-11.4-1.1-15.5-3.2c-9.9-5.2-13.5-9.9-13.5-17.6c0-10.3,5.8-18.8,17.4-25.3
		c3.3-1.8,6.1-3.9,6.4-4.6c0.2-0.7-1.2-1.9-3.2-2.7C304.4,525.6,299.9,525,294.8,525z M448.6,529.5l-4.9-0.8l2.1,2.9
		c2.1,3,19.9,20.6,38.4,38.1c12.5,11.9,16.1,13.6,32.3,15.2c11.5,1.2,25.5,1.5,25.5,0.6c0-2.8-17.1-28.5-21.6-32.4
		c-6.2-5.5-10.1-7-39.9-15.1c-6.6-1.8-15.4-4.3-19.5-5.6C456.9,531.2,451.3,529.9,448.6,529.5z M405,533.1c-5.8,1.6-14.8,4.1-20,5.5
		c-25.6,7-30.9,9.1-36.9,14.7c-3.3,3.2-20.1,27.5-21.4,31.1c-0.7,1.7-0.1,1.8,14.5,1.1c16.2-0.7,24.1-2.1,31-5.6
		c4-2,50.8-47.3,50.8-49.1C423,529.2,415.3,530.2,405,533.1z M308.8,535.3c-12.4,3.5-22.7,19.2-18.8,28.7c1.5,3.6,7.7,8.8,12.8,10.6
		c4.3,1.5,14,1.7,19.5,0.5c2.2-0.5,5-2,6.4-3.3c2.7-2.5,16.9-21.7,17.8-24c0.4-1-2.9-3.1-11.9-7.2
		C321,534.3,316.2,533.3,308.8,535.3z M427.7,534c-0.6,0-11.8,10.7-24.8,23.7c-27.1,27.4-28.2,29-29.8,44.5
		c-2,18.7-2.3,27.5-1.2,28.2c1.4,0.9,22.3-12,28.7-17.7c8.5-7.5,10.9-12.7,18.4-40.2c1.8-6.6,4.5-16.5,6-22
		c1.6-5.5,3.1-11.5,3.4-13.3C428.8,535,428.6,534,427.7,534z M440.8,534c-1.3,0-0.9,2.7,1.7,12.3c1.4,5.1,3.6,13.2,5,18.2
		c5.7,21.2,9.4,33.5,11.1,36.6c3.5,7,7.1,10.2,22.3,20.5l15.6,10.5l0.3-4.3c0.2-2.4-0.1-10.9-0.6-18.9c-1.3-21.7-0.9-21-30.5-50.7
		C452.4,544.9,441.2,534,440.8,534z M544,536.3c-3,1.3-9,3.9-13.4,5.7c-4.3,1.9-8,3.9-8.3,4.6c-0.5,1.4,12.9,20.3,17.7,24.9
		c6.5,6.2,21.7,6.1,31.6-0.3c8.7-5.5,10.5-11.8,5.8-20.7c-3.4-6.5-7.4-10.7-13-13.4C557.7,533.7,550.7,533.4,544,536.3z
		 M435.6,537.1c-1.3-2.4-1.4-2.4-2.4-0.4c-0.7,1.1-2.3,6.5-3.7,11.9c-3.2,12.5-6.7,25.7-10.2,38.1c-1.9,7-2.7,12.3-2.7,18.4
		l-0.1,8.7l8.5,16.8c4.7,9.2,8.9,16.8,9.4,16.8c0.5,0.1,4.5-6.9,8.9-15.4c7.5-14.6,8-16,8.5-23.2c0.5-7.9-0.5-12.9-9.8-48.3
		c-1.5-6.1-3.3-13.3-4-16C437.4,541.7,436.3,538.4,435.6,537.1z M371,587l-5.2,0.1c-2.9,0.1-10,0.7-15.7,1.5c-8,1-11.2,1.9-14.3,3.9
		c-4.3,2.9-9.3,10-10.8,15.5c-1.4,5.1-1.2,13.5,0.4,17.5c2.8,6.6,12.1,9.8,21.8,7.5c11.3-2.7,17.7-8.1,20.2-17
		c1.6-5.7,3.6-20,3.6-25.7V587z M498.3,588.5c-0.9,2.4,2.5,28.3,4.2,31.4c2.5,4.9,10.3,11,16.3,12.7c9.4,2.8,20.7,0.1,23.6-5.4
		c2.8-5.5,3-13,0.6-20.2c-4.3-12.9-8.8-16.1-25.9-18.4C502.9,586.6,499.1,586.6,498.3,588.5z M319.5,592.1
		c-13.8,5.4-20,13.7-27.4,36.7c-7.5,23.2-16,51.6-15.6,52c0.2,0.2,6.3-1.6,13.7-4.1c7.3-2.5,18.7-6,25.3-7.7
		c6.6-1.8,14.5-4.5,17.5-6.1c3-1.5,7.3-3.5,9.5-4.4c10-4.2,12.9-6,15.7-9.9c4.4-6,10.1-18.3,9.4-20.2c-0.5-1.4-1-1.4-3.9,0.6
		c-8.5,5.7-15,8-22.4,8c-11.9,0-17.2-3.4-20-12.9c-2.4-8.2-1.3-14.6,4.1-24.6c3.7-6.8,4.2-8.4,3-8.9
		C326.1,589.7,325,589.9,319.5,592.1z M543.2,590.4c-5-0.8-5-0.8,0.7,9.6c3.5,6.3,3.6,6.9,3.6,16.7c0,11.9-1.2,14.3-8.7,18.1
		c-3.6,1.8-6.3,2.3-11.6,2.3c-7.8,0-11.3-1.2-19.6-6.5c-3.1-2-5.9-3.6-6.1-3.6c-1.7,0,0,7.8,3,13.7c4,8,10.7,14.9,18.1,18.6
		c6.4,3.2,64.7,21.7,68.4,21.7c1.8,0,1.1-3-4.6-20.9c-3-9.7-7.4-23.5-9.6-30.6c-7-22.1-12.4-30.3-23.9-35.8
		C550,592.2,545.6,590.8,543.2,590.4z M244.4,593c-2.5,1-6.5,5.6-9.8,11.3c-2.5,4.3-14.3,38.6-17,49.2c-0.8,3.3-1.7,6.8-2.1,7.7
		c-0.5,1.2,1.3,0.7,6.9-2.1c10.2-5.2,16.9-6.4,39.1-7l19-0.6l1.2-6.9c0.9-4.7,1-7.2,0.3-7.6c-0.6-0.4-8.6-1.2-17.7-1.8
		c-12-0.8-17.1-1.6-18.1-2.6c-1.3-1.3-0.5-3.5,6.1-17.3c4.3-8.8,7.7-16.4,7.7-17s-1.9-1.9-4.2-2.8C249,592.7,246.6,592.2,244.4,593z
		 M265.8,599.3c-1.6,1.7-14.3,28.5-13.7,29.1c0.9,0.9,30.8,3.8,32.4,3.2c2.1-0.8,15.5-29,14.3-30.2c-0.3-0.2-6.1-1.1-12.9-1.9
		C270.5,597.7,267.5,597.6,265.8,599.3z M603.2,598.5l-5.8-0.2c-5-0.1-24.7,1.9-27.4,2.9c-1.1,0.4,11.1,27.3,13.3,29.5
		c1.4,1.4,3.2,1.4,17.3-0.1c8.7-0.9,15.9-1.8,16.1-2c0.2-0.1-0.9-2.7-2.4-5.7c-1.4-3-4.5-9.7-6.8-14.9L603.2,598.5z M410.6,611
		c-1,0-13.8,8.7-21.2,14.5c-5.2,4-7.4,9.8-7.4,19.6c0,7.8,0.3,8.9,3.3,13.9c3.4,5.8,8.6,10,12.3,10c4.4,0,13.3-4.1,17.3-8
		c6.3-6.1,7.6-9.3,7.5-18.5c0-7.5-0.4-8.8-5.3-19.8C414.1,616.3,411.2,611,410.6,611z M458.2,611c-0.7,0-2.1,1.9-3.1,4.2
		c-1,2.4-3.7,8.5-6,13.6c-2.2,5.1-4.1,10.8-4.1,12.7c0,4.7,3.4,13.3,6.9,17.5c4.1,5.1,12.4,9.3,18.3,9.4c4.2,0.1,5.2-0.3,8.8-3.9
		c7.4-7.3,10.3-24.2,5.7-33.2c-1-1.9-6.3-6.5-13.4-11.7C464.8,614.9,458.9,611,458.2,611z M377.1,643.1l-0.6-9.8l-4.5,5.4
		c-2.5,2.9-5.5,7.4-6.6,9.9c-3.3,6.9-6.4,9.5-16.5,13.9c-5.1,2.2-9.8,5-10.6,6.2c-1.5,2.2-3.1,9.9-9.3,43.8
		c-1.7,9.3-4.2,23.1-5.6,30.5c-7.5,39.2-11.4,62.5-11.4,67.4c0,9.3,4.7,10.7,32,9.4c13.5-0.7,21.7-1.5,26.8-2.9
		c9.1-2.4,15.1-2.4,28.2,0.1c22.3,4.2,37.2,5.9,42.5,4.9c2.8-0.5,9.6-1.5,15.1-2.3c16.5-2.2,26-7.8,30.5-17.8
		c2-4.7,2.3-6.9,2.3-18.8c0.1-23.1-1.5-58.1-3-68c-0.8-5.2-1.5-18.2-1.7-28.7c-0.1-10.6-0.3-19.3-0.4-19.3s-1.9,1.1-3.9,2.5
		c-4.8,3.2-9.6,4-15.7,2.6c-8.1-1.8-15.4-8.4-20.8-18.5l-3.1-5.8l-2.5,2.6c-3,3.3-5.6,3.3-8,0l-1.9-2.6l-4,6.7
		c-6.9,11.9-15.5,17.8-26.1,17.9c-6.1,0.1-6.3,0-10.8-4.4c-2.5-2.5-5.8-6.9-7.2-9.8C378.3,654.1,377.6,650.8,377.1,643.1z
		 M622.8,633.1c-0.7,0.1-4,0.6-7.3,1c-3.3,0.5-11.2,1.2-17.5,1.6l-11.5,0.8l0.3,5.8c0.4,9.9-0.3,9.6,18.9,9.5
		c9.3-0.1,18.8,0.4,21.3,1c2.4,0.6,4.6,0.9,4.9,0.7c0.2-0.3-1.5-4.5-3.7-9.4c-2.3-4.9-4.2-9.4-4.2-10S623.4,633.1,622.8,633.1z
		 M491.7,634c-0.8,0-2,21.9-1.9,34.5c0.1,6.6,1.5,26.4,3.1,44c1.6,17.6,3.3,36,3.6,41c1.7,22.7,4.5,47.7,5.8,50.1
		c1.1,2.1,3.1,3.2,9.8,5.3c7.7,2.4,9.8,2.6,24.9,2.5c14.8,0,17.3-0.3,24.5-2.6c10.6-3.4,30-13.2,32-16.1c4.4-6.7,1.3-29.4-7-52.2
		c-2.4-6.6-6.3-18.7-8.5-26.9c-2.3-8.2-5-16.8-6-19.1s-2.3-6.7-3-9.8c-1.1-5.5-1.2-5.7-5.3-6.7c-11.4-2.9-32.7-11-44-16.6
		c-8.8-4.5-13.7-9-17.5-16.3c-1.8-3.2-4.7-7-6.6-8.5C493.7,635.2,491.9,634,491.7,634z M592.1,657.4c-1.7,1.1-1.4,3.5,2.3,16
		c1.8,6.4,3,11.8,2.6,12.1c-0.6,0.4-17.1-2.8-21.2-4.1c-1.5-0.4-1.5-0.1-0.4,4.3c1.7,6.2,5.4,18.4,12.3,40.3c3,9.6,6.5,21,7.8,25.2
		c1.3,4.2,3.9,11,5.6,15.1l3.2,7.5l7.8,1.2c7,1.1,8.6,1,16.9-0.9c10.6-2.5,18.4-6.1,27.3-12.4c9.7-7,10.3-7.9,8.9-13.5
		c-0.6-2.6-1.6-7.7-2.2-11.4c-1-6.7-2.2-10.7-7.8-26.8c-3.2-9.2-17.8-46.6-19.1-49c-0.4-0.8-3-2-5.7-2.7
		C620.4,655.6,596,655.1,592.1,657.4z M238.5,658.4c-8.2,2-20.3,7.4-24.8,11c-1.8,1.4-4.2,8.2-9.7,27.1c-1.8,6-4.2,14.1-5.5,18
		c-1.3,3.8-2.7,8.8-3.1,11c-0.4,2.2-1.8,6.2-3,9c-1.3,2.7-2.4,5.9-2.4,7s-1.3,6.5-2.9,12.1c-1.6,5.5-3.2,12.8-3.6,16.1l-0.7,6
		l8.7,4.7c9.8,5.2,17,7.6,22.9,7.6c7.7,0,12.7-7.7,24.6-37.8c2.2-5.7,5.4-13,7-16.3c1.7-3.3,5.1-11.2,7.5-17.5
		c2.5-6.4,5.1-13,5.9-14.7c4.3-9.9,5.6-14,5.1-15.7c-0.4-1.3,0.4-2.9,2.5-5.2c4.3-4.5,6-8,8-16.5l1.7-7.1l-3-0.6
		C266.5,655.2,247.5,656.1,238.5,658.4z M320.5,674c-4.9,1.6-9.8,2.9-10.7,2.9c-2,0.1-31.8,9.6-36.3,11.5c-2.4,1.1-3.7,3.1-6.4,9.2
		c-1.9,4.4-4.2,9-5.2,10.4c-0.9,1.4-2.6,5.2-3.7,8.5c-1.9,5.5-6.8,19.3-12,33.5c-6.3,17.6-15.1,42.7-15.3,44c-0.2,0.8,0.1,3,0.5,4.8
		c0.9,3.9,4.1,5.6,19.6,10.3c20.3,6.2,32.3,6.7,44.8,1.7c5.8-2.3,8.2-4.9,8.2-8.9c0-1.5,1.1-5.5,2.4-9c2.2-5.9,5-17.7,10.6-43.4
		c1.2-5.5,2.8-15.2,3.6-21.5c0.7-6.3,2.3-14.9,3.3-19c1.9-7.2,8.1-35.7,8.1-37.3C332,670.6,330.1,670.9,320.5,674z"/>
</g>
</svg>
