<?xml version="1.0" encoding="utf-8"?>
<!-- Generator: Adobe Illustrator 21.0.0, SVG Export Plug-In . SVG Version: 6.00 Build 0)  -->
<svg version="1.1" id="图层_1" xmlns="http://www.w3.org/2000/svg" xmlns:xlink="http://www.w3.org/1999/xlink" x="0px" y="0px"
	 viewBox="0 0 850 850" style="enable-background:new 0 0 850 850;" xml:space="preserve">
<g transform="translate(0.000000,0.000000) scale(1.00000,1.00000)">
	<path d="M431.1,2.2c1.9,0.9,7.3,2.1,12.1,2.7c16.8,2.2,37,9.8,52.1,19.4c3.2,2.1,6.6,3.7,7.6,3.7s4.2-1.7,7.2-3.9
		c19.9-14.2,42.6-17.3,55.3-7.6c2.8,2.1,8.6,10.9,8.6,13c0,0.4-2.7-1.8-6-4.9c-10.2-9.4-19.3-10.6-32.1-4.1
		c-5.5,2.9-13.6,10.3-12.3,11.4c0.5,0.4,2.9,1.6,5.4,2.6c2.5,1.1,6.7,3.2,9.3,4.7S544,42,545,42c1.1,0,2,0.7,2,1.5s3.3,4.5,7.3,8.2
		c22.3,20.9,24.6,24.5,25.2,39.1c0.2,4.8,1.5,14.3,2.9,21.1c2.9,13.7,3.3,25.1,1.3,36.6c-0.7,3.8-1,9.1-0.7,11.7
		c0.5,4.5,0.8,4.9,6.7,8.7c6.6,4.3,12.7,11.6,16.3,19.6c9.4,20.7,10.9,39,4.5,54.9c-1.4,3.5-2.5,7-2.5,7.9c0,1.9,5.5,3.7,11.3,3.7
		c5.5,0,9.1,3.9,10.7,11.6c1.7,7.8,0.7,38-1.3,44.5c-0.8,2.5-3.2,8.5-5.3,13.3l-3.8,8.8l3.9,3.5c9.5,8.4,10.9,9.9,12.1,13
		c2.9,6.8,0.6,15.8-7.1,27.3l-4.6,6.9l1.7,3.3c1.3,2.6,1.6,4.9,1.1,12.2c-0.3,4.9-0.2,9.7,0.3,10.7c0.5,0.9,3.3,3,6.2,4.7
		c2.9,1.6,6.1,3.9,7.2,5.1c1.8,2,1.8,2.1-0.8,3.1c-1.5,0.5-3.8,1.3-5.1,1.6c-3,0.7-3,0.2-0.5,9.9c3.3,12.8,2.1,25.1-3,31.5l-2,2.5
		V462v-6.5l-2.4,5.6c-3,7.3-5.9,11.4-10.9,15c-4.4,3.2-6.2,3.7-5.3,1.4c0.8-2.2,0.2-1.9-6.3,3c-3.2,2.5-6.7,4.5-7.7,4.5
		c-2.6,0-17.8-15.8-20.7-21.6c-1.4-2.7-3-6.8-3.6-9.1c-0.7-2.4-2.3-5.1-3.8-6.2c-2.7-2.2-9.3-2.9-9.3-1c0,0.6,1.8,3.1,4,5.6
		c4.3,4.9,6,10.4,4,12.8c-0.7,0.8-1.5,1.5-1.9,1.5c-0.3,0-3.1-2-6.1-4.5s-8.1-6-11.3-7.7c-6.4-3.5-9.6-6.8-13.2-13.7
		c-2.9-5.7-7.1-10.3-15.3-16.5c-10-7.6-23.7-21.2-30.3-29.9c-8.6-11.5-13.6-22.2-21.9-47.2c-3.9-12.1-7.8-23.1-8.5-24.4
		c-1.2-2.3-1.3-2.3-4.9,3.7c-12,19.9-12.6,31-2.1,46.5c1.9,2.8,3.5,6.2,3.5,7.5c0,1.6,1,2.7,3.8,3.9c5.3,2.4,13.1,10,12.5,12.3
		c-0.3,1.2,1.2,3.1,4.8,6.1c11,9.2,14.1,12.4,17.5,18c2,3.1,5.3,7.1,7.5,8.8c3.2,2.6,3.9,3.8,3.9,6.7c0,2-1,4.9-2.3,6.8
		c-3.4,5-16,14.2-21.4,15.5c-2.8,0.7-5.9,2.5-7.8,4.4c-2.7,2.8-3.5,4.8-5.9,16.2c-1.5,7.1-4.5,19.7-6.6,28
		c-7.6,29.2-15.4,70-14.4,75.4c0.4,2,2.2,7,4,11.1c7.3,16.8,11.7,34.6,12.9,52c0.4,5.6,0,18.7-0.9,32c-4,57-5.4,90.4-4,95.7
		c0.6,2.1,0.6,2.1,8.2-1.3c4.2-1.9,8.8-3.4,10.2-3.2c2.5,0.3,2.5,0.3,3,12.9l0.5,12.7l4.8,6.1l4.8,6.1h-6c-7.8,0-8.6,0.4-12.3,5.9
		l-3.2,4.6l-1.1-4.5l-1.1-4.5l-1.4,8c-0.7,4.4-1.3,11.5-1.3,15.7c0,7.5,0,7.7-2.6,8.3c-1.5,0.3-5.3,2.3-8.4,4.5
		c-4.2,2.8-7.3,4.1-11.2,4.5c-8.3,1.1-33.6,0.1-36.6-1.4s-4.9-4.9-4.9-8.6c0-1.4-0.1-2.5-0.2-2.5c-0.2-0.1-7.3-0.7-15.9-1.4
		c-17.1-1.5-20.9-2.8-23-7.8c-1.3-3.2-0.8-7.5,1.9-17.3c2.5-9.1,3.4-17.9,1.6-16.5c-2.3,2-2.6-0.8-0.5-5.6c2.7-6,2.6-6.8-0.4-4.8
		c-1.5,1-3.7,1.4-5.5,1.2c-4-0.6-3.8,0.9,0.5,2.9c4.6,2.2,4.5,3.7-0.2,2.9c-2.1-0.3-5-0.6-6.5-0.6c-3.6,0-3.5-1.3,0.2-6
		c2.9-3.6,3-4.2,3-13.5c0-5.3,0.5-10.5,1-11.6c1.3-2.3,5-2.5,9-0.4c2.3,1.2,3,1.3,3,0.3c0-4.1-5.4-47.3-7.9-63.9
		c-6.7-43.8-6.3-56.2,2.7-91.4c3.2-12.6,3.6-15.3,3.6-27c-0.1-10.3-0.6-15.6-2.8-25.5c-4-18.7-9.2-44.4-12.5-63.2
		c-3.6-20.1-5.3-23.8-12.2-27.6c-9.1-4.9-22.8-16.1-24.9-20.3c-3-5.8-1.9-8.2,6.6-14.5c7.2-5.3,10.3-8.8,19.5-22.4
		c3.4-5,6.5-7.9,12.9-12.2c8.2-5.6,8.5-6,14.2-16.5c6.6-12.2,12.3-28.7,13.2-38.3l0.6-6.5l-11.1,22.4l-11,22.3l-10.7,10.7
		c-13.1,12.9-25.7,23.2-34.3,28c-6.1,3.5-6.6,4-10.6,12.3c-4.7,9.7-6.6,11.8-21.8,24.3c-8.3,6.9-10.9,8.5-11.6,7.4
		c-0.5-0.8-0.9-1.8-0.9-2.3s-1,0-2.2,1.1c-3.6,3.3-9.1,6.3-11.5,6.3c-2.7,0-2.8-0.7-0.8-3.4c2.7-3.6,1.6-3.9-2.1-0.6
		c-3.4,2.9-4,3.1-8.8,2.5c-2.8-0.4-5.6-1.5-6.3-2.4c-1.1-1.5-1.2-1.4-1.3,0.2c0,1.6-0.5,1.5-5.1-1c-2.9-1.5-6.4-4.3-7.8-6.1
		c-6.6-8.5-6.1-8.2-5-3.3c1.2,5.4,0.6,6.1-2.5,3c-5.4-5.5-10.2-19.3-9.1-26.2c0.9-5.1,3.9-11.3,7.2-14.9c1.4-1.4,2.2-3.1,1.8-3.8
		c-0.4-0.6,1.3-2.9,3.9-5.4c3.2-2.9,4.6-5,4.6-6.9c0-1.4,0.5-2.9,1-3.2c0.6-0.3,1-3.2,1-6.4c0-4.4,0.5-6.5,2-8.4
		c2-2.5,2.1-3.5,1.4-15c-0.6-10.6-0.4-12.7,1.1-15.7c3-5.9,9.4-10,15.5-10c1.6,0,3-0.2,3-0.4c0-0.3-1.3-3.8-3-7.9
		c-6.9-17.2-7.7-27.6-3.2-42.2c3.5-11.6,8.2-16.8,18.5-20.3c3.7-1.3,6.7-2.8,6.7-3.2c0-0.5-1.9-5.5-4.1-11.2
		c-7.7-19-8.8-23-8.9-29.8c0-10.9,5.8-20,16.6-26.4c6.3-3.6,16.4-12.1,16.4-13.7c0-1.5-2.8-1-7.1,1.2c-6,3-5.7,1.8,0.7-3.1
		c4.5-3.4,5.5-4.6,5-6.4c-4.2-15.5-5.2-40.2-2.2-54.6c4.5-21.2,14.2-39.6,31.1-59c16.2-18.7,44-38.5,63-44.9
		c3.3-1.1,8.7-3.1,11.9-4.6c3.2-1.4,10.2-3.9,15.5-5.5C416.5-0.2,424.8-0.5,431.1,2.2z M409.5,5.7c-14.4,4.4-26.5,8.7-30.2,10.9
		c-2.3,1.3-5,2.4-6,2.4c-2.3,0-20.9,11.2-31.3,18.8c-15.1,11.1-31.8,29.1-39.9,43c-16,27.6-20.6,57.8-13.1,86.3
		c1.7,6.7,4,11.6,2.6,5.5c-3.3-13.7-2.3-39,2.4-57c3.9-15.2,12.1-35.6,14.3-35.6c0.5,0,0.7,0.6,0.4,1.2
		c-11,26.1-15.7,46.3-15.7,67.4c0,13.9,1.7,24.6,6.3,38.4l3.1,9.5l0.8-5c0.4-2.8,1.2-19.4,1.7-37c0.7-26.2,1.3-33.6,2.9-41
		c1.2-5,2.9-12.6,3.8-16.9c1.2-5.5,2.6-8.9,4.5-11c1.5-1.7,6.1-8.8,10.3-15.8c6.7-11.1,10.8-16,12.1-14.6c0.2,0.2-1.6,3.3-4.1,6.8
		c-4.6,6.6-10.8,18.6-11.9,23.2c-1.4,5.5,7,8.1,11.3,3.5l2.2-2.4l-3-2.6c-3.5-3.2-3.9-6.8-0.9-9.6c1.7-1.6,3-1.8,8-1.4
		c5.6,0.5,5.9,0.4,6.8-2c2-5.3,10-7.6,13.4-4c4.1,4.6,2,13.4-5.3,21.7c-3.1,3.5-3.7,3.8-7.6,3.3c-4-0.4-4.2-0.3-4.8,2.6
		c-0.7,3.5-0.7,7.7,0.1,5.9c0.4-1,3.3-1.8,3.3-0.9c0,0.2-1.4,4.3-3,9.3c-7,20.5-11.2,40-12.9,59.4c-0.7,8.7-0.7,11,0.2,9.9
		c0.2-0.2,6.5-14.8,13.9-32.4c7.5-17.5,14-32.1,14.5-32.2c0.6-0.2-0.6,4.9-2.4,11.4c-4.1,14.3-7.5,33.5-7.1,40.1
		c0.3,4.8,0.4,4.6,12.6-22.7c6.8-15.2,12.7-28.3,13.2-29.1c2-3.2,1.8,0-0.5,8c-3.4,12-7.3,32.2-8,41c-0.6,8.4-1,8.7,5.6-5.5
		c4-8.8,26.5-52.4,33.6-65c5.1-9.2,7.1-12.1,7.8-11.4c0.3,0.3-3,7.5-7.3,16c-16.1,31.6-24,55.6-26.6,80.4l-0.7,5.9l2.8-2.4
		c1.5-1.4,6.2-5.7,10.3-9.6c4.1-3.8,9.3-8.3,11.5-9.9c2.2-1.6,9.9-9,17.1-16.4c7.3-7.5,13.4-13.4,13.7-13.1c0.2,0.3-3.8,6.5-9,13.9
		c-5.2,7.3-9.2,13.5-9,13.7c0.4,0.5,9.2-9.5,16.8-19.1c11.6-14.6,17.2-24.3,29.9-51.8c4.3-9.3,7.7-15.4,8.2-14.9s-0.2,3.7-1.7,7.8
		c-1.5,3.8-6,15.7-10,26.4s-10.3,27.3-13.9,36.9c-3.7,9.5-6.5,17.5-6.4,17.7c0.5,0.5,12.8-15,17.7-22.3c5.4-8.1,13.1-23.4,17.6-35.1
		c3.6-9.3,9.5-30.7,9.5-34.3c0-1.8,2.5-3.7,3.5-2.7c0.3,0.2-1.3,7.6-3.6,16.4c-3.8,15.1-4,16.8-4.4,33.9c-0.2,9.9-1.1,22.9-1.9,28.9
		c-2,13.8-2,14,0.9,8.6c3.2-6,8.8-22.9,12.1-36.5c2.9-12,3.7-28.8,2.1-47.3c-0.6-7.6-0.5-9.2,0.6-9.2c1.8,0,2.4,4.4,3.6,26
		c1.5,25.4,5.8,36.6,19.1,50.1c8.5,8.6,15.8,13.4,19,12.4c2.7-0.9,1.8-2.4-8-13c-4.4-4.8-8.7-9.9-9.5-11.5s-1.8-3-2.2-3.2
		c-2.3-0.9-12.7-27.9-13.9-35.8c-1.1-7.2,0.9-3.8,5.9,10c6,16.5,8.1,21.3,11.4,25.8c3.1,4.1,25.2,28.5,26.3,29
		c1.2,0.5,3.4-25.1,3.3-38.3c-0.1-12.7-1.6-22.4-4.7-31.6c-0.8-2.4-1.3-4.5-1.1-4.7c0.7-0.8,4.5,6.3,6,11.3
		c3.9,12.7,4.1,29.8,0.9,59.5c-1,9.1,1.7,1.2,4.3-12.8c2.3-12,2.7-16.4,2.7-34.9c0.1-11.6,0.4-20.6,0.7-20c0.4,0.7,1.3,4.7,1.9,9
		c1.5,9,0.9,24.6-1.4,41.2c-2.5,17.1-2.5,17.5-1.8,17.5c2.7,0,10.5-22.2,12.8-36.5c1.2-7.1,2.1-10.2,2.7-9.6
		c1.6,1.6-1,18.7-4.4,29.4c-1.6,5.1-2.9,9.5-2.9,9.9s2.9-0.6,6.4-2.4c5.4-2.7,6.7-3,8-1.9c0.9,0.8,1.6,2.1,1.6,3
		c0,1.4,0.2,1.4,1,0.1c2.3-3.6,0.6-19.5-4.5-42c-5.7-25-9.4-31.1-25.8-43.5c-2.1-1.6-5.1-4.7-6.7-7c-2.2-3.2-4.6-4.9-10.7-7.8
		c-4.3-2-10.5-4.3-13.8-5.2c-6.6-1.7-19.3-2-24.2-0.6c-4.6,1.3-5.1-0.5-0.6-2l3.7-1.2l-3.4-2.9c-9.3-7.8-44.7-20.8-57.4-21
		c-2.3,0-6.3-0.7-9-1.4C422.4,3.6,415.9,3.8,409.5,5.7z M529.3,17.4C523.2,19.7,515,24.2,510,28l-2.5,2h5c5.5,0,7.6-1.1,14-7
		c2.2-2.1,5.8-4.7,8-5.8C539.8,14.4,537,14.5,529.3,17.4z M348.9,72.9c-1,2.9-1.1,2.9-7.5,2.5c-7.2-0.4-8.6,0.7-6.6,5.1
		c1.1,2.4,11.6,8.5,14.6,8.5c1.9,0,9.6-13.9,9.6-17.3C359,66.8,350.7,67.7,348.9,72.9z M317.9,90c-1.4,0-2.9,6.3-2.3,10.1
		c0.8,4.6,1.7,5.5,3.4,3.4c0.7-0.8,2.9-1.5,5-1.5c3.9,0,5-1.1,5-5c0-1.4-1-2.1-3.4-2.6c-1.9-0.3-4.2-1.5-5.2-2.5
		C319.5,90.9,318.4,90,317.9,90z M335.1,91.9c-3.6,3.6-3.6,16.1-0.1,16.1c1.3,0,4-9.6,4-14.2C339,89.6,337.9,89.1,335.1,91.9z
		 M320.2,107.1c-2,1.1-4.2,1.7-5.3,1.4c-2.5-0.8-3.6,2.1-5.5,14.5c-2.7,18.5-1.3,39,4.3,59c1.4,5.2,2.9,9.9,3.3,10.3
		c0.9,1,3.4-8.1,10-36.4c4.3-18.1,9.8-39.1,11.8-44.9c0.4-1.2,0.2-1.3-0.9-0.3c-2,1.9-3.5,1.6-7.1-1.6
		C326.2,105.1,324.1,104.7,320.2,107.1z M475.8,124.4l-0.3-12.9l-6.2,12.2c-3.5,6.8-6.3,12.6-6.3,13.1c0,1.4,12.1,3,12.6,1.7
		C475.9,137.9,475.9,131.6,475.8,124.4z M494.7,123.9c-0.4,1.8-0.7,5.1-0.7,7.1c0,5,2.7,19.2,3.8,19.9c0.5,0.3,1.2,2.4,1.5,4.5
		c0.4,2.2,1.3,4.3,2.1,4.8c0.8,0.4,1.2,1.6,1,2.5c-0.8,3.2,11.7,21.3,14.7,21.3c0.3,0-2.4-8.1-6.2-18c-3.8-10-8.5-23.4-10.5-29.8
		C495.3,119.5,495.5,120,494.7,123.9z M503.6,127.8c-3.7-6.2-3.8-6.2-3.1-2.4c0.6,3.6,4.9,17.4,7.4,24c1.2,2.9,1.2,2.9,2.6,0.9
		c0.9-1.3,3.1-2.4,5.5-2.8l4-0.7l-6.3-6.4C510.2,136.9,505.7,131.2,503.6,127.8z M492.2,142.6l-1.8-9.9l-1.3,3.9
		c-3.1,9.7-3.1,9.2-0.5,12.3c4.1,4.9,2.8,6.8-1.9,3.1l-2.6-2.1l-2.2,4.2c-1.9,3.9-2,4.1-0.2,3.5c1-0.4,4-1.2,6.7-1.9
		c2.6-0.6,5-1.6,5.2-2.1C493.8,153,493.2,148,492.2,142.6z M576.2,140.9c-0.8-0.8-13.2,6.5-14.9,8.8c-0.8,1-1,3.2-0.6,5.9
		c0.4,3.3,0,5.3-1.6,8.4c-1.8,3.5-2,4.5-0.9,5.8c1.7,2,10.4,7.5,14.6,9.2c4.2,1.6,5.2,0.5,5.2-5.7c0-2.3,0.5-4.5,1-4.8
		c1.5-1,1.2-14-0.6-20.9C577.6,144.3,576.5,141.2,576.2,140.9z M463.2,141.4c-1.7-0.5-3,0.2-5.7,3.1c-4.5,4.7-6.1,7.5-4.3,7.5
		c0.7,0,5.3,0.5,10.1,1.1c4.9,0.6,9.1,0.8,9.4,0.5s0.9-2.4,1.3-4.6c0.9-5-0.6-7-5.3-7C466.9,142,464.5,141.7,463.2,141.4z
		 M381.1,145.2c-0.5,1.3-3.9,9.3-7.6,17.8c-5.8,13.3-6.7,16.2-6.4,20.5c0.8,14.7,0.4,19.9-2.3,25.1c-5.1,9.8-14,14.3-22.6,11.3
		c-3.3-1.1-4.7-3.5-3.6-6.3c0.5-1.4,1-1.3,3.6,0.9c2.9,2.5,6.9,3.2,10.5,1.8c1.6-0.6,1.5-0.8-0.7-1.4c-2.3-0.6-2.2-0.8,2.4-2.9
		c7.6-3.5,9.6-6.2,9.6-12.9c0-5.2-0.3-6-3.6-9.2l-3.5-3.4l1,2.8c1,2.6,0.9,2.8-0.8,2.2c-1.8-0.5-2,0-2.3,5.2c-0.3,5.8-2,7.6-2.6,2.8
		c-0.3-1.9-0.8-2.5-1.9-2.1c-0.8,0.3-1.7,0.6-1.9,0.6c-0.2,0-0.4,0.7-0.4,1.5c0,2.5-1.8,1.7-3.5-1.5c-0.9-1.7-1.7-3-1.9-3
		c-0.4,0,2,11.3,3,14c0.3,0.8-0.7,0.4-2.1-1c-4.2-3.9-5.9-11.8-4.6-20.6c0.6-4,1.9-9.6,3-12.4c1-2.7,1.6-5,1.1-5
		c-1.4,0-3.9,4.8-6.5,12.2c-2.4,7.1-3.1,7.8-6.6,6.4c-1.2-0.5-2.1,1.1-4.2,8.3c-1.5,5-2.7,10.5-2.7,12.3c0,4.7,3.9,9.9,11.8,15.9
		c18.3,13.8,42.4,20.5,78.9,21.6c38.4,1.2,68.5-5.9,83.6-19.7c3-2.8,5.8-5,6.1-5c0.4,0,2.4,1.1,4.4,2.5c4.5,3.1,9.2,3.2,16.7,0.4
		c7.2-2.7,10.6-7,10.8-13.6c0.2-4.5,0-4.8-3.3-6.5c-3.9-1.9-9.5-2.3-10.5-0.8c-0.3,0.5,0.1,1,0.9,1c2.5,0,5.6,3.8,5.6,6.8
		c0,3.1-2.2,5.5-8.2,9.1c-4.8,2.8-5,1.2-0.3-2.3c4.4-3.4,6-6.3,4.6-8c-0.6-0.7-3.5-1.8-6.5-2.5c-7.8-1.7-8.1-2.4-4.9-11.5l2.7-7.7
		l-2.2-2.1l-2.2-2.2l-3.4,3.3c-4.8,4.6-6.4,3.1-2.6-2.4c2.9-4.3,3-4.6,1.5-7.4c-2.6-5.1-8.5-7.7-12.2-5.3c-2.2,1.4,1.3,4.9,6.1,6.1
		c6.4,1.6,7.2,3.5,1.2,2.9c-4.8-0.6-4.8-0.6-4.1,2.1c3.3,12.8-8.9,39-20.4,43.8c-7.4,3.1-35.1,2.5-35.1-0.7c0-0.5,3.5-0.7,7.8-0.5
		c7.1,0.4,7.4,0.3,3.5-0.7c-5.3-1.3-6.2-4.4-1.1-3.4c10,2,22.8,1.8,22.8-0.3c0-0.5-1.1-1.6-2.6-2.5c-2.1-1.4-3.1-1.5-5.9-0.6
		c-3.4,1.1-4.1,0.9-10.5-2.9c-0.8-0.5-3.1-1.5-4.9-2.2c-4.7-1.8-9.8-6.4-12.2-11c-2.4-4.9-3.4-13.9-2.1-20.6
		c1.2-6.5-0.2-5.9-2.3,0.9c-2.9,9.7-1.3,20.1,4.4,30.3c1.7,3,2.8,5.5,2.5,5.5c-2.1,0-6.7-4.8-8.9-9.3c-5.3-10.9-3.9-25.6,3.4-36.7
		c1.7-2.4,2.8-4.6,2.6-4.8c-0.8-0.9-9.3,6.8-11.5,10.3c-2.1,3.5-3.4,4.3-4.4,2.7c-0.3-0.5,2.4-5.2,5.9-10.5s6-9.7,5.5-9.7
		s-1.2,0.5-1.5,1c-0.4,0.6-1,0.8-1.6,0.5c-0.5-0.3,0.8-2,2.8-3.8c3.3-2.9,9-13.3,7.9-14.4c-0.2-0.3-1.3,0-2.4,0.6s-2.8,0.8-3.7,0.5
		c-1.2-0.5-4.4,2.3-11.7,10c-11.9,12.6-21,20-22.6,18.4c-0.8-0.8,0.1-2.5,3.1-6.2c7.4-8.8,7.5-9.2,2.6-5.8
		c-2.6,1.7-7.6,6.3-11.2,10.2c-3.5,3.8-6.9,7-7.4,7s-3.1,2.2-5.8,5c-2.7,2.7-5.3,5-5.7,5c-2.2,0,0.3-23.7,4.1-38.5
		C382.7,143.2,382.8,140.7,381.1,145.2z M519.8,151.4c-4.9-0.6-5.7-0.4-6.2,1.3c-0.8,2.6,0.9,14.9,2.9,20.3c1.7,4.9,9.3,17,10.5,17
		c1.1,0,12-15.5,12-17c0-0.6-1.4-2.8-3.1-4.9c-1.7-2.1-3.6-6.1-4.3-8.7c-0.9-3.5-1.9-5.2-3.7-6.1
		C526.5,152.6,522.8,151.8,519.8,151.4z M536.6,154.6c-0.9,0.8-1.6,1.9-1.6,2.4c0,4.3,8,14,11.4,14c4,0,11.1-9.7,10.4-14.3
		c-0.5-3.4-3.6-3.3-7.2,0.2l-3.2,3.1l-2.5-2.6C540.2,153.5,538.4,152.7,536.6,154.6z M584.6,171c-2.3,0-2.6,0.4-2.6,3.5
		c0,2-0.7,4.9-1.5,6.5c-2.1,4-4.9,3.9-13.8-0.5c-3.9-1.9-7.2-3.5-7.5-3.5c-0.2,0,2.5,5.4,6,12s6.5,12,6.8,12s1.8-3.1,3.5-6.8
		c3.6-8.2,6-10.7,11.5-12.2l4.3-1.1l-3.3-3.4c-2.8-2.9-3.1-3.7-2-5S586.9,171,584.6,171z M588,172.3c0,0.3,2.4,2.4,5.3,4.8
		c3.2,2.7,4.2,3.2,2.7,1.5C593.5,175.7,588,171.5,588,172.3z M549.8,175.5c-0.1-0.1-1,0.1-1.8,0.6c-0.8,0.4-2.6,1-4,1.3
		c-1.6,0.4-4,2.7-6.5,6.2c-3.9,5.5-8.8,10.4-10.5,10.4c-0.5,0-2.3-1.2-4-2.6c-1.7-1.5-3.2-2.5-3.4-2.3c-0.5,0.6-5.6,12.7-5.6,13.4
		c0,0.3,1.3-0.1,3-1c4.1-2.1,12.6-1.9,17.9,0.5c2.4,1.1,4.4,2,4.6,2c0.1,0,0.5-4.6,0.7-10.3c0.2-5.6,0.9-11.1,1.6-12.2
		c0.9-1.6,1.1,0.9,1.2,12.7c0,12.4-0.2,14.8-1.5,14.8c-1.6,0-2.9,3.7-2.3,6.6c0.2,1,2,2.2,4.6,2.9c4.4,1.3,5,0.8,3.1-2.7
		c-1.3-2.4-0.5-3.5,1.4-1.9c1.2,0.9,1.3,0.5,0.6-3.1c-1.2-6.1-1.1-19.7,0.2-27.9C549.7,179,550,175.7,549.8,175.5z M554,176
		c-1.4,0-3.3,11-3.4,19.5c0,7.5,2.1,21.1,3.2,20.1c0.2-0.3,0.4-4.8,0.3-10.1c-0.1-5.2,0.2-9.5,0.7-9.5s1.2,4.6,1.6,10.2
		c0.4,5.8,1.4,11.7,2.4,13.7l1.6,3.6l0.7-10c0.3-5.5,1.2-11.5,1.9-13.3c1.6-4.4,0.8-7.8-4.1-16.7C556.7,179.4,554.4,176,554,176z
		 M292.2,185.2l-1.7-2.2l-7,7c-4.4,4.4-7.5,6.8-8.5,6.5c-2.2-0.7-8.7,4.9-11,9.6c-2.3,4.4-2.9,13.9-0.7,12.1
		c0.9-0.8,1.2,1.8,1.2,12.6c0,12.5,0.3,14.2,2.5,19l2.5,5.4l0.1-12.4c0-8.6,0.5-13.5,1.6-16.3c1.5-3.9,1.5-3.5,1.5,11.5
		c-0.1,13.7,0.1,16.3,2.2,22c1.2,3.6,2.6,6.9,3,7.3c0.5,0.4,1.1-2.6,1.4-6.8c0.9-9.8,3.1-18.2,6.8-25.9c3.1-6.6,3.1-6.3-0.7,10.4
		c-1.3,5.8-2.4,12.7-2.3,15.5v5l2.5-4.8c3.5-6.8,4.7-4.9,1.8,3c-1.3,3.6-2.2,6.8-2,7s2.2-2.9,4.4-6.9c5.2-9.2,6.8-11.5,7.8-10.5
		c0.5,0.4-0.7,3.5-2.5,6.9c-3.6,6.4-3.2,6.6,3.6,1.1c4.6-3.7,5.3-3.9,5.3-1.9c0,0.7-2.5,3.3-5.5,5.6c-3,2.3-5.5,4.5-5.5,4.7
		c0,0.5,3.2-0.1,7.3-1.3c3.5-1.1,1.6,1.4-2.4,3c-2.3,0.9-4,1.9-3.8,2.1c0.4,0.3,14.2-2.3,21.7-4c1.5-0.4,2.2-0.1,2.2,0.9
		c0,1.4-5.2,2.8-22.4,6.1c-4.3,0.8-8.1,1.6-8.3,1.8c-1,1.1,20.5,3.2,31.2,3.1c14,0,20.6-1.8,31.3-8.3c6-3.7,7.2-4.9,11.5-12.5
		c3.6-6.3,4.8-9.3,4.5-11.7c-0.3-3.3-0.3-3.2-3.3,2.7c-3.9,7.8-13.5,19.8-14.8,18.5c-0.6-0.6,1.1-3.4,5-7.8c6-6.7,9.9-15.4,8.6-18.9
		c-0.8-2.2-1.6-1.7-5.2,3.9c-3.9,5.9-5.1,5-2.5-1.8c1.2-3.4,1.4-4.9,0.6-5.7s-1.4-0.4-2.1,1.6c-2.5,6.4-8.6,11.7-16.6,14.5l-3,1.1
		l3.4-2.8c1.9-1.5,5.6-4.7,8.3-7.1c7.1-6.5,6.8-7.8-4.4-15.1c-5.1-3.3-10.2-6-11.3-6c-1.1,0-4.4,0.9-7.3,2s-6.5,2-8,2
		c-2,0-4.7,1.8-9.9,6.5c-3.9,3.5-7.3,6.2-7.6,5.8c-1.3-1.3,5.9-8.6,14.1-14.3c13.5-9.4,12.5-8.1,10.6-12.6c-1-2.3-1.4-5.4-1.1-8
		c0.3-3.4-0.1-4.6-2.4-7.5l-2.8-3.4l-3,2.9c-1.6,1.6-3.3,4.1-3.6,5.6c-0.5,2.1-1.3,2.9-3.6,3.2c-2.8,0.4-2.9,0.3-2.9-3.7
		c0-2.3-0.6-4.9-1.3-5.9c-1.2-1.6-1.6-1.5-4.8,2.1c-2,2.2-4.4,5.4-5.5,7.1c-1.9,3.3-2.9,3.9-3.9,2.3c-0.5-0.9,7.7-13.5,9.6-14.6
		c0.5-0.4,0.9-1,0.9-1.6c0-2.3-3.1-0.4-9.5,6.1c-3.8,3.8-7.3,7-7.7,7c-1.9,0,2.8-6.9,8.8-13C293.8,187.6,293.9,187.5,292.2,185.2z
		 M600.2,183.9c-0.4-0.3-2.2-0.2-4,0.3c-2.6,0.7-3.2,1.3-2.7,2.6c3.6,8.7,4.7,13.7,5.1,21.7c0.3,7.4,0.2,8.4-0.7,5.5
		c-4.9-16.7-8.5-26.2-10.1-27.1c-3-1.6-6.2,2.7-9.2,12.2c-5.3,16.8-5.3,28-0.1,43.9c1.4,4.1,3.3,11.3,4.4,16l1.9,8.5l3-6.5
		c1.7-3.6,3.7-8.2,4.6-10.3c0.8-2,2-3.7,2.5-3.7c1.6,0,1.4,1-1.8,8.6c-4.5,10.8-5.3,12.4-6.7,12.4c-0.7,0-1.3,1.8-1.6,4.5
		c-0.2,2.5-0.1,4.5,0.1,4.5s2.7-2,5.6-4.4c8-6.9,13.5-20.3,15-36.9c0.9-9.5,2.1-10.2,1.7-1c-0.3,8.1,1.1,7.5,2.7-1.1
		c2.4-13.3-0.2-33.4-5.6-43C602.4,187.2,600.6,184.2,600.2,183.9z M480.4,190.6l-1.3-3.1l-0.1,3.1c0,4-2.3,6.2-4.5,4.4
		c-1.7-1.4-1.7-1.5-3.8,7c-1.6,6.3-0.9,10.1,2.4,13.6c5.7,6.1,14.2,0,16.4-11.8c0.9-4.6-0.7-7.6-4.7-9
		C482.9,194.1,481.3,192.5,480.4,190.6z M323.8,191.2c-0.4-2-2.4,2.5-3.3,7.3c-0.4,2.5-0.2,2.3,1.6-1.3
		C323.2,194.8,324,192.1,323.8,191.2z M566.7,199c-0.1,0-1,1.3-2,2.9c-1.2,2.1-1.7,5.1-1.7,10.8c0,8.9,1.9,14.1,6.9,18.7l3.1,3
		v-14.2c0-11.6-0.3-14-1.4-13.6c-0.9,0.3-1.9-0.9-3-3.5C567.7,200.8,566.9,199,566.7,199z M463.3,203c-3.7,0.2-7.2,6.5-5.3,10
		c1.5,2.8,5.6,4.3,8.1,3c2.8-1.5,2.8-10.5,0-12C465,203.5,463.8,203,463.3,203z M540.6,222c-3.1,0-10.6,3.7-10.6,5.1
		c0,0.5,1.5,1.2,3.3,1.7c4.9,1.4,24.1,10.6,22.9,11c-0.6,0.2-6.8-1.8-13.9-4.4c-12-4.4-13.4-4.7-21.8-4.6c-7.1,0.2-9.9-0.2-12.7-1.6
		l-3.6-1.9l-5.1,3.9c-4.1,3.1-4.9,4.2-4.2,5.6c1.7,3.1,6.5,7,12.6,10c3.3,1.7,6.9,3.8,8,4.6c1.9,1.6,1.9,1.6-1,1
		c-6.2-1.4-15.6-6.4-20.4-10.9l-5-4.7l-4.3,2.4c-4.2,2.3-4.3,2.5-4.2,7.4c0.3,11.6,6,22.9,14.9,29.6c9.2,7,11.2,7.3,45,7.3
		c32.8,0,32.9,0,32,1.5c-0.3,0.6-5,1-10.3,1h-9.7l6,3.3c7.5,4,13.6,8.8,18.1,14.4c5.9,7.2,3.3,6.9-4.1-0.4
		c-10.3-10.1-28.8-19-33-15.9c-2.1,1.5-1.3,4.5,4.7,17.5c2.1,4.6,3.6,8.6,3.4,8.8c-0.6,0.7-5.2-5.8-8-11.4
		c-1.4-2.9-3.1-7.5-3.7-10.3c-0.6-2.7-1.4-5-1.9-5c-3.2,0-3.5,1.1-2.9,10.8c0.6,10.1,1.7,13.5,6.7,20.2l2.7,3.5l-3.3-2.4
		c-4-2.8-6-5.7-7.7-11.3c-0.8-2.4-1.4-3.4-1.4-2.2c-0.2,5.7,6.3,18.4,11.1,21.6c1.3,0.9,2,1.8,1.7,2.2c-1,1-8.7-5.3-11-9
		c-1.2-2-3-6.1-4-9.2c-1.3-4.1-1.8-4.9-1.8-3c-0.2,9,5.1,19.5,12.2,24.4c5.2,3.5,18.5,7,33.3,8.8c7.1,0.9,13.9,1.6,14.9,1.5
		c1.1,0-4.5-2.3-12.5-5.1c-8-2.7-14.9-5.4-15.4-5.9c-2.4-2.3,1.2-1.7,12.7,2c13.3,4.2,19.2,6.8,24.5,10.8l3.2,2.4v-7.9
		c0-5.6-0.8-10.6-2.5-16.7c-1.4-4.8-2.3-9-2.1-9.3c0.8-0.8,5.5,9.9,6.2,14.1s2.4,6,2.4,2.5c0-2.9-1.6-13.4-2.5-17.1
		c-0.5-2-0.4-2.7,0.8-2.7c1.9,0,2.7,2.1,2.7,7.3c0,2.3,0.5,4.9,1,5.7c0.6,1,0.7-0.8,0.3-5.3c-0.7-8.1,0.9-9.1,2.7-1.6
		c1.5,6.1,0.8,17.5-1.4,23.6c-0.8,2.4-1.3,4.3-1,4.3c0.7,0,5.3-5.4,7.6-8.9c1-1.4,2.5-5.8,3.5-9.8c1.1-4.7,2.2-7.3,3.1-7.3
		c0.8,0,1.1,0.7,0.8,1.7c-0.2,1-0.7,3.4-1,5.3l-0.6,3.5l1.6-3.4c2-4.5,3.4-12.2,3.4-19.4c0-6.8,0.7-6.8,2.7,0
		c1.3,4.8,1.3,4.7,0.9-4.7c-0.6-14.7-5-24.3-14.7-32c-5.5-4.4-8.7-5-11.2-2.2c-1.6,1.7-1.3,2,5.3,5.2c3.9,1.9,7,4,7,4.7
		c0,1.7,0,1.7-5.5-0.7c-6.5-2.8-11.6-2.6-15.4,0.6c-3.3,2.7-4,4.4-1.8,4.4c2.5,0,13.3,5.8,15.9,8.6c2.9,3.1,5.8,9.2,5.8,12.1
		c0,1-1.6-0.6-3.6-3.7c-2-3-4.8-6.8-6.2-8.3c-2.8-3-8-6.2-8.8-5.4c-0.3,0.2,0.9,1,2.6,1.7c1.6,0.7,3,1.9,3,2.6c0,1.8-0.3,1.8-5-0.6
		c-5.9-3-6-2.5-0.5,2.4c4.7,4.1,11.7,14.6,9.7,14.6c-0.5,0-2.3-2-4-4.4c-1.8-2.5-4.9-5.4-7-6.7c-2-1.2-7.1-4.3-11.2-7
		c-7-4.5-16.4-7.9-21.6-7.9c-2.9,0-5.4-1-5.4-2.1c0-2.4,17.6,0.3,24,3.6l3,1.6v-4.6c0-5.4-3.1-15.1-6.5-20.6
		c-1.9-2.9-2.2-3.9-1.1-3.9c1,0,0-2.4-3.1-7.6c-2.5-4.1-4.3-7.7-4-8c0.7-0.7,9.5,10.3,11.8,14.9c3.1,6,3.3,3.8,0.3-4.1
		c-4.4-11.9-12.1-18.8-26.4-23.7C546.9,223.1,542.3,222,540.6,222z M474.1,243.1c-0.3,0-3.7,0.9-7.6,2c-3.8,1-10.6,2.3-15,2.9
		c-4.4,0.6-9,1.3-10.3,1.6l-2.3,0.5l2.2,3.9c2.2,3.9,2.4,4,7.6,4c3,0,6.8,0.6,8.6,1.4c4.5,1.9,10.3,8.1,13.2,14
		c1.3,2.8,7.1,22.3,12.9,43.4l10.4,38.3l14.5,19.2c7.9,10.6,16.2,21.1,18.4,23.4c2.2,2.2,4.3,5.4,4.7,7c0.4,1.5,3,6.3,5.8,10.5
		c5.8,8.9,9.7,11.4,19.4,12.4l5.9,0.6l5.3-5.7c3.9-4,5.2-6.1,4.7-7.3c-4-9.4-4.7-12-4.1-16c0.6-4.3,0.5-4.5-5.2-10.1
		c-3.1-3.1-7-7.8-8.6-10.5c-5.3-9.1-4.5-20.6,2.3-30l2.8-4l-6.1-2.2c-20.3-7.2-21.1-7.6-26.4-15.7c-5.3-7.9-6.5-12.5-6-22.3l0.4-8.4
		h-3c-1.6,0-5.6,0.7-8.7,1.6c-7,2-9.8,1.4-14.8-3.1c-5.8-5.3-9.4-13.2-15.2-33.3C477.1,251.2,474.4,243,474.1,243.1z M376.3,246.4
		c-3.6-0.5-4.4-0.3-4.9,1.2c-0.4,1.1-2.2,5.1-4,9c-4.2,9-16.6,21.2-24.1,23.9c-10.6,3.7-9.5,1.3-9.2,20.3c0.3,15.6,0.1,17-2.1,22
		c-2.3,5.2-8.7,12-14.2,14.8c-2.3,1.2-12.4,4.1-20,5.8l-2.7,0.6l2.7,5.2c2.2,4.3,2.7,6.5,2.6,12.3c-0.1,11-4.5,19.1-14,25.4l-4.6,3
		l3.6,1.5c4.8,2,4.7,4.2-0.8,13.9c-6.3,11-3.5,10,8.8-3c5.6-5.8,19.6-20.3,31.2-32.2c13.1-13.4,21.6-22.9,22.4-25.1
		c1.2-3.1,6.3-15.1,24.8-59c4.7-11.1,6.6-14.4,10.7-18.6c4.2-4.3,5.9-5.4,10.4-6.3c6.2-1.3,8.1-2.5,8.1-5.1c0-1,1.2-2.7,2.6-3.8
		l2.7-1.9l-12.9-1.7C386.3,247.7,378.6,246.7,376.3,246.4z M428.2,253.1c-0.4,0-4.3,1.3-8.7,2.9c-7.6,2.7-11.5,5.6-11.5,8.5
		c0,2.3,4.9,7.2,7.7,7.8c3.5,0.7,10-2.1,13.2-5.7c2.3-2.5,2.4-2.8,1.2-8.1C429.4,255.5,428.6,253,428.2,253.1z M445.3,262.4
		l-2.8,2.4l-0.3,15.6c-0.4,15.4-0.4,15.6,1.8,15.6c3.4,0,5.8,1.8,8.6,6.1c2.7,4.3,12.3,29.7,19.4,51.4c7.6,23.2,16.6,37.8,33.3,54.4
		c9.5,9.4,8,9.2,16.9,1.7c4.3-3.6,4.5-4,3.4-6.5c-0.6-1.5-2.3-4.2-3.8-6.1s-9.1-12.1-16.8-22.5c-16.1-21.8-13.8-16.1-27.1-65.5
		c-4.5-16.8-9.2-32.5-10.4-35c-2.9-5.6-6.7-9.3-12.5-11.9C449.3,259.5,448.7,259.5,445.3,262.4z M609.9,261h-4.2l3.9,2.8
		c5.6,4.1,10.9,10.3,13.9,16.3c1.5,2.8,2.8,4.9,3,4.7c0.6-0.6-2.4-13.5-3.9-17.3c-1.1-2.4-2.6-4-5-5
		C615.6,261.7,612.2,261,609.9,261z M393.8,265.1c-9.5,0.3-12.5,5.7-40.5,72.9l-5.6,13.5L332,367c-8.6,8.5-18,18-20.8,21.1
		c-4.9,5.3-5.1,5.6-4.1,9c0.9,2.9,1.9,3.7,7.1,5.7l5.9,2.4l7.7-5.8c14.9-11.2,26.9-24.4,33.5-36.9c3.7-6.9,16.8-34.8,16.5-35
		c-0.2-0.1-2.2-0.6-4.6-1.1l-4.4-0.9l3.1-4.5c2.7-4.1,2.9-4.9,2.4-10.7c-0.8-8.1,1-14.6,5.5-20.6c4.1-5.4,8.7-8.5,9.5-6.4
		c1.3,3.3,6.7-9.3,6.7-15.5C396,265.5,395.6,265,393.8,265.1z M268.5,266.2c-1.1,0-4.8,0.8-8.1,1.9c-4.5,1.4-6.8,2.8-8.6,5.2
		c-4.1,5.4-7.3,13.4-8.3,21.2c-0.8,5.9,0.2,5.6,1.3-0.4c1-6.1,2.8-4.6,2.2,1.9c-1.1,12,0.4,30.7,2.1,26.5c0.4-1.1,0.8-4.8,0.8-8.3
		c0.1-3.4,0.5-6.2,1-6.2c1,0,1.6,4.6,2.6,19.1c0.6,8.2,0.8,8.6,4.1,11.3c2,1.5,3.7,2.6,3.9,2.4c0.2-0.1-0.1-4.4-0.7-9.3
		c-0.5-5-0.8-12.9-0.5-17.7c0.6-11.5,3.5-17.5,12.9-26.7l7-6.9l-1.6-3.1c-1.9-3.6-1.4-3.4-13.1-3.5c-7.2-0.1-9-0.4-9-1.6
		c0-0.9,2.5-2.2,7-3.6C267.4,267.2,269.6,266.2,268.5,266.2z M267.5,270.1c-1.6,0-4.1,0.6-5.5,1.4l-2.5,1.5l3-0.7
		c1.7-0.3,4.1-1,5.5-1.4C270.4,270.2,270.4,270.2,267.5,270.1z M400.4,271.8c-0.8-1.4-1.6,0.2-4.2,7.4c-3.2,9.1-3.2,9.2-1.3,11.2
		c3.3,3.2,11.4,3.3,19.3,0.2c9.5-3.8,13.4-3.7,16.7,0.2c4.7,5.7,5.3,4.7,7-11.3c0.4-4.4,0.7-8.2,0.4-8.4c-0.2-0.3-1.8,0.9-3.6,2.7
		c-8.7,8.4-22.6,9.5-30.4,2.5C402.7,274.7,400.9,272.7,400.4,271.8z M494.2,279.5c-2.9-1.8-5.2-3.1-5.2-2.7
		c0,1.2,8.5,11.2,10.9,12.9c1.9,1.3,4.1,1.4,13.6,0.8c8-0.5,11.5-1.1,11.9-2c0.4-1.1-1.1-1.4-6.6-1.4c-4.3,0-9.3-0.8-13.2-2.1
		C502.2,283.9,497.1,281.4,494.2,279.5z M282.3,283.9c-5.9,2.7-12.6,10-16.4,17.7c-2.9,5.8-3.3,7.8-3.5,15.8
		c-0.3,8.8-0.3,8.9,0.6,3.1c1.7-10.4,7.5-24.5,10.1-24.5c1.3,0,1.1,0.6-1,4.8c-4.6,9-8.1,27.2-5.2,27.2c0.5,0,1.3,3.6,1.7,8l0.9,7.9
		l9-3c9.1-3.1,19.2-8.1,25.3-12.7c2.5-1.8,3.7-2.1,4.5-1.3c0.6,0.6,0.9,1.2,0.6,1.4c-0.2,0.1-2,1.5-4,2.9c-1.9,1.4-6.4,4.2-10,6.2
		c-9.8,5.5,1.7,3.9,12.8-1.7c8.6-4.4,12.6-9,16.4-19.1c3.5-9.4,5.1-9.3,3,0c-0.8,3.6-2.5,6.7-5.3,10.1c-8,9.2-7.8,8.9-3.9,6.7
		c4.3-2.4,8.4-8,11.2-15.3c1.7-4.4,2.2-7.8,2.2-15.6c0.1-12-0.8-17.5-2.8-17.5c-1.2,0-1.5,1.5-1.5,6.3c0,10.7-4.8,24.5-10.2,29.4
		c-1.7,1.5-1.6,0.9,0.7-4.2c5.5-12.2,6.6-16.3,6.3-23.8c-0.3-6.9-0.4-7.2-2.9-7.5s-2.6-0.1-3.1,6c-0.3,3.5-1.5,8.1-2.6,10.3
		c-2.1,4.1-7.8,10.2-8.7,9.4c-0.2-0.3,1.1-3,2.9-6c8.4-13.5,7-20.9-4-20.9c-4.7,0-6.3,1-17.1,10.2c-5.1,4.3-9.3,7.5-9.3,7
		c0-1.8,5.9-9,10.9-13.3c3.4-2.9,4.6-4.6,3.8-5.1C291.6,281.5,286.7,282,282.3,283.9z M388.3,289.9c-3.5-2.2-3.3-2.4-4.8,4.9
		c-0.8,3.7,1.2,15.9,2.6,16.8c0.5,0.3,3-0.7,5.5-2.1l4.6-2.7l-0.6-5.2c-0.4-2.8-1.4-6.1-2.4-7.4C392.3,292.9,390.1,291,388.3,289.9z
		 M416.4,292.5c-3.6,1.6-4.2,2.7-5,10.1c-0.7,5.4-0.6,5.6,3.2,9.5c2.1,2.1,4.5,3.9,5.4,3.9c1,0,2.9-3.5,5.6-10.5
		c3.7-9.4,3.9-10.7,2.7-12.5C426.6,290.6,421.2,290.4,416.4,292.5z M528.6,291.3c-0.3-0.4-0.6,0.2-0.5,1.3c0,1.1,0.3,1.4,0.6,0.6
		C529,292.5,528.9,291.6,528.6,291.3z M380,298.5l-0.7-3l-1.1,2.8c-1.3,3.1-1.5,8.8-0.6,12.5c1.1,3.9,3.4,0.6,3.3-4.7
		C380.8,303.6,380.4,300.1,380,298.5z M403.3,296.6l-5.2-0.1l0.6,3c1.1,5.8,3.3,6.8,7.7,3.4c1.7-1.3,2.6-2.9,2.4-4.2
		C408.5,296.9,407.8,296.6,403.3,296.6z M429,303.1c0,1.6-0.5,4.9-1.2,7.3c-1.1,4.1-1,4.7,1.3,8c2.7,4,3.5,4.3,6.6,2.1
		c3.5-2.4,3.4-0.3,0,3.8c-3,3.5-3.7,3.8-13.1,5.2c-9.1,1.5-10,1.5-11.7-0.1c-2-1.8-18.8-3.9-20.1-2.6c-0.3,0.4-0.8,1.6-1,2.7
		c-0.3,1.5-1,1.9-2.9,1.7c-2.5-0.2-2.7,0.1-3.8,7c-1.2,7.1-7.7,25.1-12.8,35.2c-2.4,4.7-2.4,5-0.7,6.3c1,0.7,4.3,2.2,7.3,3.4
		c17.9,6.7,36.1,6.5,60.1-0.8c6.3-1.9,11.9-3.9,12.4-4.4c0.6-0.5,0.2-1.9-1.2-3.6c-4.7-5.9-7.2-12.5-7.2-19.4
		c0-8.2,1.3-12.3,8.4-27.1c3.1-6.5,5.6-12.5,5.6-13.3c0-5-6.3-11.3-13.9-14C433.4,297.8,429,298.7,429,303.1z M404.3,308.9
		c-1.1-0.9-4.5,0.5-6.2,2.5c-1.2,1.4-1,1.7,1.8,2.2c4.8,1,4.7,2.4-0.2,2.4c-4,0-4.6,0.3-6,3.2c-1.5,3-1.5,3.4,0.1,4.2
		c1.7,1,13.7,1.5,14.5,0.6c0.3-0.3-0.3-3.6-1.4-7.5C405.9,312.7,404.7,309.3,404.3,308.9z M412.8,314.4c-2.2-2.1-3.8-3.2-3.5-2.3
		c0.3,1,1.1,4.4,1.8,7.8c0.6,3.3,1.7,6.5,2.4,7.1c1.2,1,13.8-1,15.2-2.3c0.3-0.4-0.4-1.8-1.5-3.4c-1.6-2.1-2.8-2.7-6.1-2.8
		C417.7,318.4,416.2,317.7,412.8,314.4z M391.7,313.4c-0.1-0.2-1,0.2-2,0.8c-1.1,0.5-3.2,0.8-4.8,0.6c-2.3-0.4-3.6,0.3-6.6,3.4
		c-2.2,2.3-3.3,4.1-2.8,4.6c1,0.8,11.5,5.3,11.5,4.9c0-0.1,1.1-3.3,2.4-7.2C390.8,316.7,391.8,313.5,391.7,313.4z M247.3,338.1
		c-14.3,0.4-20,13.7-13.2,30.7c2.8,6.7,3.5,6.1,1.4-1.2c-0.9-3.1-1.4-6.2-1.2-6.9c0.4-1,1.6,1.3,5.6,10.8c0.5,1.2,0.6-1.2,0.4-6
		c-0.3-4.5,0-9.2,0.6-10.8c1.5-3.9,3.3-2.5,1.9,1.4c-1.3,3.8-0.4,11.7,2.2,19.3c2.3,6.7,3.6,8.6,5.9,8.6c1.4,0,1.6-1.5,1.3-12.3
		c-0.3-9.6,0-13.2,1.2-16.2c0.9-2.1,1.5-3.9,1.3-4.1c-1-1-3.1,2.3-6.1,10.1l-3.5,9V366c-0.1-7.5,4.2-14.8,11.2-18.9
		c3-1.9,3.5-2.6,2.6-3.7c-0.6-0.8-1.7-1.4-2.4-1.4c-0.7,0-2.4-0.9-3.8-2C251.3,338.9,248.9,338,247.3,338.1z M616,338.7
		c0,0.5,1.4,3,3,5.8c3.4,5.7,3.6,6.5,1.5,6.5c-0.8,0-2.4-1.8-3.5-4c-2.6-5.1-4.8-5.1-10.6-0.3l-4.5,3.6l2.8,2.4l2.8,2.4l-2.8-0.6
		l-2.8-0.6l2.6,5.2c1.5,2.8,2.5,5.3,2.2,5.5c-0.2,0.2-3.6-3.4-7.5-8.1c-4-4.7-7.9-8.5-8.7-8.5c-2.1,0-2,0.4,2,5.9
		c2.7,3.8,3.2,5,2.1,5.4c-0.9,0.4-2.1-0.5-3.2-2.1c-4.7-7.6-11.7-12.2-18.2-12.2c-4.6,0-7.7,2.5-10.4,8.7c-4,9.1-3.4,18.1,2,29.1
		c2.4,5,8.8,11.9,9.9,10.8c0.3-0.2-1.1-3.1-3-6.3c-3.8-6.2-6.5-17.1-4.9-19.9c0.6-1.1,1.9,2,4.5,10.4c3.2,10.2,4.2,12.3,7,14.4
		c5.4,4.1,5.6,4,2.6-1.5c-3.2-5.9-5.9-15.4-5.9-20.6c0-5.1,1.3-2.9,4.4,7.4c3.3,10.9,7.1,17.7,9.4,17.3c1.9-0.4,2.9-6.8,3.1-20.1
		c0.1-4.2,0.5-7.7,1-7.7c1.3,0,2.3,10.8,1.9,19.9c-0.2,5.1,0.1,7.5,0.9,7.8c1.1,0.4,1.8-1.6,3.7-10c0.9-3.9,2.6-3.3,2.7,1
		c0.1,3.4,0.4,3,2.8-4.2c1.5-4.4,3-8.7,3.4-9.5c1-2.2-0.3,11-1.5,14.8c-0.5,1.8-0.7,3.6-0.3,4c0.3,0.3,3.8-2.6,7.7-6.6
		s7.3-7,7.6-6.7s-0.2,1.3-1,2.2c-0.8,1-1.8,2.5-2.2,3.3s0.6,0,2.2-1.7c3.5-4,9.7-16.1,11.3-22.4c1.1-4,1-5-0.7-8.5
		c-1-2.1-4.3-5.8-7.2-8.1C619.4,338.3,616,336.9,616,338.7z M259.8,351.6c-3.5,3.9-5.1,9.7-5,17.4c0.1,4.1,0.6,8.8,1.1,10.5
		c0.8,2.4,1,1.4,1.1-5.5c0-4.7,0.7-9.8,1.4-11.5c1.3-2.7,1.4-1.9,1.3,8.6c-0.1,9.5,0.2,12.1,1.6,14.3c2.4,3.6,4.9,2.8,10.4-3
		c4.8-5.1,8.3-13.5,8.3-19.9c0-2.5,0.5-4.5,1-4.5c0.6,0,1,2.7,1,6.2c0,6.6-2.3,13.1-5.3,15.7c-1,0.7-1.7,1.8-1.7,2.4
		s1.6-0.5,3.6-2.4c3.4-3.2,3.6-3.3,2.9-0.9c-0.4,1.4-2.1,4-3.8,5.7c-3.7,3.9-2.4,4.2,4.3,0.8c5.6-2.8,11.2-8.1,13.5-12.6
		c3.7-7.1,2.8-18.1-2.1-23.9c-3.6-4.2-4.4-3.8-2.8,1.7c2.5,8.4,1.1,17-3.1,18.6c-1.3,0.5-1.5-0.5-1.5-6.9c0-8.2-1.7-13.6-4.8-15.3
		C276.1,344.4,264,347,259.8,351.6z M237.3,379.2l-6-3.1l-1.1,10.7c-0.7,5.9-1.7,10.8-2.2,11c-0.6,0.2-1,0.8-1,1.3
		c0,1.2,9,0.1,10.5-1.2c0.5-0.5,2.3-0.9,4.1-0.9c3.1,0,3.2-0.1,3.7-5.3c0.3-3.4,0.1-5.9-0.8-7.3C243.8,383.3,240.5,381,237.3,379.2z
		 M441.4,386c-13,5.4-45.6,7.8-58.8,4.4c-3.3-0.9-8.3-2.7-11-4c-2.7-1.4-5-2.3-5.1-2.2c-0.1,0.2-0.7,1.3-1.4,2.5
		c-1.1,2.1-0.7,2.4,6.1,5.7c15,7.1,27.4,9.4,41.1,7.6c10.5-1.4,29.5-6.3,34.4-8.9c6.5-3.4,6.6-3.6,5.4-6
		C450.6,382.4,450,382.5,441.4,386z M621.7,387c-0.4,0.1-7.3,5.1-8.9,6.5c-1.4,1.1-1.6,2.4-1.2,5.7c0.5,3.6,0.1,5-2,8.1
		c-3.1,4.6-3.1,4.7-0.6,4.7c1.2,0,4.3,1.1,7,2.5l4.9,2.5l0.5-3.3c1.8-10.4,2.5-22.9,1.6-24.7C622.4,387.9,621.8,387,621.7,387z
		 M250,389.9c-1.8,3.5-1.2,6.8,1.8,9c2.8,2,2.9,2,6,0.1c4.3-2.6,4.2-5.6-0.2-7.4c-1.8-0.8-3.7-1.9-4-2.5
		C252.5,387.5,251.2,387.8,250,389.9z M265,391.5c-0.5-0.3-1,0.1-1,0.9c0,0.9,0.5,1.6,1,1.6c0.6,0,1-0.4,1-0.9
		C266,392.5,265.6,391.8,265,391.5z M271.4,393.9c-1.2,0.5-3.5,2.6-5.2,4.7l-3.1,3.7l5.1,5.9c2.7,3.2,5.4,6,5.8,6.3
		c1.1,0.7,12.1-18.8,11.1-19.8C283.9,393.5,273.8,392.9,271.4,393.9z M463.6,394.1c-1.4-1.2-1.6-1.1-1.6,0.3c0,1-0.4,1.4-1,1.1
		c-1.5-0.9-1.2,0.3,0.7,3.6c2.6,4.4,0.5,4.9-3,0.6c-6-7.1-6.2-4.2-0.6,8.5c5.2,11.9,5.5,12.8,3.7,12.8c-0.8,0-2.8-3.2-4.7-7.5
		c-1.8-4.1-3.7-7.5-4.2-7.5c-0.4,0-1.6-1.4-2.6-3c-1.9-3.3-3.8-3.7-6.7-1.5c-1.3,1-1.7,2.1-1.2,3.9c0.8,3.1-0.6,3.4-2.6,0.5
		c-0.8-1.3-2.1-2-3.5-1.7c-2.2,0.3-2.2,0.4,1.1,8c3.1,7.1,3.4,8.8,1.5,8.8c-0.4,0-2-2.9-3.5-6.5c-1.6-3.6-3.3-6.4-3.9-6.3
		c-0.5,0-1.8-0.2-2.8-0.7c-1.1-0.4-2.3-0.3-3,0.4c-0.6,0.6-2.6,1.1-4.4,1.1H418v14.9c0,8.9-0.4,15.2-1,15.6s-1.1-1.1-1.1-3.7
		c-0.1-2.4-0.4-9.3-0.8-15.3c-0.6-10.9-0.6-11-3.1-11c-2.3,0-2.5,0.4-2.9,5.5l-0.4,5.5l-1.6-5.4c-1.8-5.9-4.1-8-4.1-3.7
		c0,3.3-1.8,3.4-2.6,0.1c-0.8-3.1-2-2.4-2.9,1.5c-0.8,3.7-2,3.2-2.9-1.1l-0.6-3.2l-2.7,2.4l-2.6,2.4l0.6-2.4l0.6-2.3l-2.5,2.3
		l-2.5,2.3l0.3-3.3l0.3-3.4l-7.2-1.7c-3.9-0.9-7.9-2.4-8.8-3.3c-2.5-2.5-6.2-2.1-8.1,0.8c-2.3,3.5-2.9,2.4-0.9-1.4
		c1.5-3,1.5-3.1-0.4-3.1c-1.1,0-2.1-0.6-2.4-1.3c-0.3-0.8-1.6-0.1-3.9,2c-3.5,3.4-5.4,4.3-4.3,2c0.4-0.6-1.2,0.8-3.5,3.3
		s-4.6,4.9-5.1,5.5c-0.6,0.5-1.8,1.9-2.7,2.9c-7.5,8.6-11.3,12.3-15.2,15c-3.3,2.3-4.5,3.7-4.5,5.6c0.1,2.1,0.5,2.5,2.8,2.2
		c2.5-0.2,2.6,0,2.1,2.7c-0.5,2.4-0.2,3,1.5,3.6c1.2,0.3,3.4,1.8,5.1,3.1l3,2.5l3.6-2.8c2.1-1.5,3.5-2.3,3.3-1.8
		c-0.3,0.6-1.1,2.2-1.9,3.8c-1.2,2.6-1.1,2.9,1.5,5.7c3.7,3.9,5.5,3.8,8.3-0.6c3-4.6,3.6-3.9,1.7,1.6c-1.6,4.6-1.5,4.7,3.9,2.4
		c1.6-0.6,1.8-0.4,1.3,1.7c-0.3,1.3-0.2,3,0.2,3.8c0.9,1.3,5.6,1.9,6.8,0.7c0.3-0.3,2.3-6.9,4.4-14.7c2.1-7.8,4.1-14.4,4.4-14.7
		c0.3-0.3,0.9-0.1,1.4,0.4s-0.8,7.2-3.1,15.6c-2.3,8.1-3.8,15.4-3.5,16.2c0.5,1.2,2.1,1.6,6.1,1.6c4.5,0,5.4,0.3,5.9,2
		c0.4,1.6,1.4,2,4.4,2c2.1,0,5.1,0.7,6.7,1.5c2.2,1.2,3.7,1.3,6.4,0.5c3-0.8,4.3-0.6,7.9,1.2c3.9,1.9,4.5,2,5.9,0.7
		c0.8-0.9,1.9-4.7,2.5-8.5c1.1-7.5,2.4-11.4,3.7-11.4c0.8,0,0.4,4.6-1.3,14.7c-0.5,3-0.4,3.2,2.9,3.8c1.9,0.4,4.3,0.4,5.4,0.1
		c2.2-0.7,4.2-5.3,4.2-9.7c0-5,1.7-3.1,2.5,2.6l0.6,5.5l2.9-1.5c1.6-0.8,4.9-1.5,7.4-1.5s4.8-0.4,5.1-1c0.3-0.5-0.3-4-1.4-7.7
		c-2.7-9.5-3.4-13.3-2.4-13.3c0.5,0,2.2,4.1,3.8,9.1c1.6,5,3.2,9.2,3.6,9.5c0.4,0.2,3.7-0.9,7.3-2.5l6.5-3l-2.4-5.6
		c-2.7-6.1-3-7.5-1.5-7.5c0.5,0,1.9,1.9,3.1,4.2c4.2,8.4,5.4,8.8,11.9,3.8c1.9-1.5,5-3.1,6.7-3.5c1.8-0.3,4.2-1.8,5.3-3.3
		c2-2.5,2.1-3.6,0.5-7.5c-0.5-1.3-0.2-1.7,1.3-1.7c1.1,0,2.2,0.7,2.6,1.5c0.8,2.2,2.8,1.8,6.3-1.2l3-2.6l-5.5-8.6
		c-7.4-11.5-9.3-13.6-16.8-19.3c-3.5-2.7-7.5-6.6-8.8-8.6C466.3,397.1,464.5,394.9,463.6,394.1z M602.1,398.6
		c-1.9,2.4-2.3,2.5-5.5,1.4c-6.5-2.1-7.7,1.9-2.1,6.9c4.6,4,6.9,3.9,11.1-0.3c3.3-3.3,4.1-5.7,2.8-9
		C607.5,395.2,604.4,395.7,602.1,398.6z M308.1,403.3l-5.9-5.2l-4.8,5.1l-4.8,5.1l3.2,2.8c4.9,4.4,7.2,4.5,13.1,0.9
		c2.8-1.7,5.1-3.3,5.1-3.4S311.3,406.1,308.1,403.3z M577.8,398.2c-3.3-0.2-5.8,0-6.2,0.6c-0.9,1.6,10.6,29.2,12.1,29.2
		c2,0,7.9-6,9.5-9.7l2-4.5l-2.5-3.6c-1.4-2-4-5.5-5.9-7.6C583.8,399.1,582.8,398.6,577.8,398.2z M246.1,401l-3.8,0.1
		c-2.1,0.1-5.1,0.5-6.8,0.9c-1.6,0.4-5.6,0.8-8.7,0.9c-3.1,0-5.9,0.5-6.2,1c-0.8,1.2,1.3,2.8,4.7,3.6c1.9,0.5,3.4,2,4.8,4.6
		c1,2.2,2.1,3.9,2.3,3.9c0.1,0,3.3-3.4,7-7.5L246.1,401z M249.9,409.9c-1.8,2.3-3.8,4.1-4.5,4.1c-1.7,0-2.7,3.2-1.3,4
		c0.7,0.5,0.9,1.9,0.4,4l-0.7,3.2l3.3-0.7c1.9-0.4,4.7-1.4,6.3-2.2c2.7-1.4,2.8-1.7,2.4-7.9C255.3,405.7,254.1,404.8,249.9,409.9z
		 M262,407.6c0,0.5,0.7,3.4,1.5,6.4c1.8,6.6,1.8,8,0.4,8c-1.1,0-6.6,2.2-10.1,4c-0.9,0.5-3.9,1.2-6.7,1.6s-5.4,1.1-5.8,1.6
		c-0.3,0.7,5.2,0.8,15.8,0.4c14.7-0.6,16.8-0.5,19.9,1.1c5.3,2.7,5.2,6.3-0.5,13.7c-2.4,3.3-4.3,6.2-4.1,6.4
		c0.6,0.5,16.4-10.5,20.4-14.2c1.9-1.7,4.2-4.7,5.1-6.6c2.2-4.2,3.4-10,2.2-10c-0.5,0-3-1.6-5.5-3.5c-2.6-1.9-5.2-3.5-5.9-3.5
		c-0.7,0-4.5,1.6-8.5,3.5c-6.7,3.2-7.2,3.3-8.4,1.6C269.2,414.5,262,406.7,262,407.6z M216.8,412c-5.2,4.3-7.2,10.3-6.5,19
		c0.8,9.5,2.2,11.9,3,4.8c0.7-6.9,4.5-19.9,6.4-21.8c1.4-1.3,1.5-1.2,0.9,1.5c-1.6,7.3-1.8,19.6-0.6,24.2
		c1.3,4.6,9.2,14.3,11.7,14.3c1.1,0,2.3-9,2.3-16.8c0-5.3,3.2-16.7,6.6-23.5c1.4-2.6,2.2-4.7,1.9-4.7c-0.2,0-2.8,3.5-5.6,7.7
		l-5.3,7.7l-1.7-3.9l-1.7-4l-1.6,3.7c-1,2.3-1.6,6.5-1.6,10.8c0,5.6-0.3,7-1.5,7c-2.3,0-2-13.9,0.4-21c1.8-5,1.8-5.5,0.3-6.7
		C221.7,408.5,220.8,408.7,216.8,412z M529.1,412c-1,0-4,1.6-6.6,3.7l-4.8,3.6l3.4,2.9c7.5,6.4,7.4,6.4,11.8,2.6
		c2.3-1.8,4.1-3.6,4.1-3.9s-1.4-2.5-3-4.7C532.3,413.9,530.2,412,529.1,412z M626.6,415c-0.3,0-1.2,1.3-2.1,3
		c-1.8,3.5-2.6,3.6-8.3,1l-4.3-2l4.3,8.1c2.4,4.5,5.1,8.5,6,9c2.5,1.3,2.2,2.6-0.7,3.3c-2.2,0.6-2.5,1.2-2.5,5.3
		c0,5.9-0.8,5.1-2.6-2.6c-1.8-8-8.1-20.1-10.4-20.1c-0.3,0,0,4.3,0.8,9.6c1.3,8.8,1.1,11.7-0.4,10.1c-0.3-0.3-1.2-3.7-2-7.4
		c-2.2-10.8-2.4-11.4-3.4-10.8c-1.3,0.8-5,13.1-5,16.8c0,1.8,0.9,4,2.2,5.4l2.2,2.3l-2.3,1.6c-1.8,1.3-2,1.9-1,3
		c1,1.2,0.7,2-1.4,4.2c-3.3,3.5-4.1,8.3-2.7,16.3c1.8,9.6,2.2,9.9,5.9,3.5c1.7-3.1,3.6-5.6,4.1-5.6c1.5,0,1.2,1.7-1.1,6.1
		c-1.1,2.3-1.8,4.3-1.5,4.6c1.3,1.3,10.9-9.5,13.7-15.4c2.9-6.1,5.7-8.6,4.6-4.1c-1.6,6.8-1.9,10.1-0.9,9.4c2.4-1.5,6.3-9.6,8-16.7
		c1.5-6,2.2-7.5,3.9-7.7c1.6-0.2,2.3,0.3,2.6,2c0.2,1.3,0.5-0.1,0.6-3c0.1-4.6-3.1-15.2-4.6-15.2c-0.2,0-1.5,0.8-3,1.7
		c-2.5,1.7-2.6,1.7-1.8-0.7c1.1-3.8,4.3-6.8,8.8-8.3l4-1.3l-4.6-2.7C629.2,416.2,626.9,415,626.6,415z M577.6,423.8l-2.2-3.7
		l-3.8,3.8l-3.7,3.8l10.5,6.5l10.4,6.6l1.1-4.3c0.6-2.4,1.1-5.3,1.1-6.5v-2.1l-3.1,2.2c-2.5,1.8-3.5,2-5.5,1
		c-1.3-0.6-2.4-1.6-2.4-2.3C580,428.1,578.9,425.8,577.6,423.8z M535.8,428.7l-3.4,2.7l3.9,6.6c5.4,8.9,8.1,11.7,15.7,15.5
		c3.6,1.8,7.8,4.7,9.4,6.4c1.7,1.7,3.4,3.1,3.8,3.1c1.3,0-1-3.9-5.9-9.8c-4.8-6-5.2-7.6-2.4-9.2c3.7-1.9,8.8-1,19.5,3.5
		c16.1,6.7,16.9,5.5,2.1-3c-7.5-4.4-12.9-8.1-12.7-8.8c0.1-0.9-3.4-2.5-10.5-4.7c-6-1.8-11.2-3.7-11.7-4.1
		C541.9,425.3,539.4,425.9,535.8,428.7z M268.7,436.2c-2.2,2.1-9.4,19.4-8.5,20.4c0.2,0.2,2.1-1,4.1-2.7c4.2-3.4,8.1-10.4,9.1-16.2
		C274.2,433.3,272.5,432.7,268.7,436.2z M237.8,437c-0.2,0,0.1,4.2,0.6,9.2l1,9.3l1-5.3c1.2-6.9,3-6.2,3.6,1.3l0.5,5.9l4.8-7.8
		l4.8-7.8l-4.5,0.6c-4,0.6-4.8,0.4-7.9-2.4C239.8,438.4,238.1,437,237.8,437z M578.8,462.2c2.8,5.2,7.2,10.1,5.8,6.3
		c-0.5-1.1-1.9-4.9-3.3-8.5c-1.4-3.6-2.9-7.1-3.5-7.8C574,447.7,574.7,454.7,578.8,462.2z M586,455c-1.4,0-2,0.7-2,2.3
		c0,3.2,2.9,11.3,4.5,12.7c1,0.9,1.2-0.2,0.8-5.7c-0.2-3.7-0.6-7.4-0.8-8.1C588.2,455.6,587.1,455,586,455z M465.6,465.1
		c-2.6,0.2-6.5,1.8-10.2,4.2c-4.4,2.8-21.3,7.9-31.9,9.6c-13.6,2.2-12.6,1.7-12.3,6.9c0.3,4.5,0.4,4.7,3.3,4.5
		c19.5-1.4,23.6-1.4,32.7,0.1c14,2.3,13.3,2.5,14.8-4.2c0.7-3.1,2.1-9.2,3-13.5C466.3,467.3,466.4,465,465.6,465.1z M353,469
		c-1.4,0-1.2,4.3,0.6,14.2c1.5,8.4,1.7,8.7,4.9,9.8c1.8,0.6,8.6,1.1,15.2,1.1c9.8,0,13.1-0.4,18.9-2.3l6.9-2.3v-4.4v-4.5l-7.5-1.4
		c-4.1-0.7-9.1-1.5-11.1-1.6c-2-0.2-4.7-1-6-1.9c-1.3-0.8-6.6-2.6-11.7-4.1C358.1,470.2,353.5,469,353,469z M407.2,481.5l-0.8-3
		l-1.7,2.5c-1.4,2.3-1.5,3.5-0.3,12.8c0.8,5.7,1.6,10.5,1.8,10.8c0.3,0.2,0.8-4.2,1.2-9.8C407.7,489.1,407.7,483.2,407.2,481.5z
		 M400.1,494.1c-0.3,0.1-2.8,1.1-5.6,2.2c-4.5,2-6.8,2.2-21.8,2.2h-16.8l0.6,2.5c0.4,1.4,3.4,15.5,6.7,31.5c5.6,26.9,6,30,6.2,43
		c0.1,13.4-0.1,14.8-4.1,30.5c-5.2,20.3-6.5,29.7-6.5,47c0,13.7,1.4,26.4,5.7,53.6c6.9,42.4,7.7,57.8,4.8,84.6
		c-0.9,8.7-1.5,16-1.2,16.2c0.2,0.2,3.3-0.2,6.9-1.1c7.1-1.7,21.2-1.3,26.4,0.7c1.6,0.6,3.1,0.9,3.3,0.6c0.2-0.2-1-5.7-2.6-12.2
		c-3.4-13.4-5-25.3-5.1-36.4c0-4.1,0-8.9-0.1-10.5c0-1.7,0.7-9.5,1.5-17.5c0.9-8,2.5-23.3,3.6-34c1.2-10.7,3.2-25.5,4.6-32.8
		c2.8-14.6,2.8-14.8-2.6-35.2c-4.2-16-4.5-29.4-1.5-66c3-36.8,2.9-48.6-0.6-63.8C401.2,496.3,400.4,494,400.1,494.1z M411.1,497.8
		c-0.5,0.9-1.4,9.1-2.1,18.2c-0.6,9.1-2,27.3-3.1,40.5c-4.3,50.7-4.3,50.5,7.1,94.5c13,50,17,76.6,17.3,116.8
		c0.1,21.9,0,22.7-9.3,42.8l-3.7,8.1l7.8,0.6c5,0.4,10,1.6,14,3.2c3.4,1.5,6.5,2.3,6.9,1.8c0.4-0.4,3.6-6.4,7-13.2
		c7.3-14.5,8-18,5-27.1c-1.1-3.6-2.5-10.8-3-16c-1.2-12.3,0.3-43.9,3.2-70.7c3.2-29,3.2-55.7,0-70c-3-13.3-5.5-21-10.4-31.3
		c-5.8-12.2-5.9-13.2-3.2-26.2c1.3-6.2,3.2-16.7,4.4-23.3c1.2-6.6,3.9-20,6.1-29.9c2.2-9.8,3.7-18.2,3.2-18.6c-0.4-0.4-4-1.5-8-2.4
		C437.5,492.8,413.1,494.1,411.1,497.8z M411.7,657.4c-0.2-0.3-1.4,4.4-2.5,10.3c-6.4,33-10.6,74.5-8.6,86.5
		c0.6,3.4,0.8,3.6,3.1,2.7c3.7-1.4,6.1-1.1,7.2,0.9c0.6,1,1.7,6,2.5,11.1c1.5,9.3,1.9,10.3,6.5,15.4c3.1,3.4,1.9,5.3-2.3,3.7
		c-4.8-1.8-5.4-1.4-6.2,4.7l-0.7,5.7l-2.9-3.4l-2.9-3.5l0.7,4c1,5.7,3.1,11.2,6.1,16.4c2.4,4.2,2.7,4.3,4,2.5c2.7-3.7,7.3-14,9-20.4
		c1.5-5.4,1.8-10.7,1.8-31.5c0-31.2-1.9-46.9-10.4-86.4C413.9,666,411.9,657.6,411.7,657.4z M408.4,760.9c-1.9-1.8-2-1.8-4.6,0.4
		c-5.3,4.5-4.2,12.9,2.2,16.2c4.6,2.4,5.3,1.2,4.8-7.2C410.4,764.8,409.8,762.4,408.4,760.9z M358.6,760.8c-0.2,0.4-0.6,5-0.7,10.2
		l-0.3,9.5l2.6,0.3c3.9,0.5,7.8-4.7,7.8-10.5c0-3.6-0.6-5-2.9-7.4C362.2,760.1,359.6,759.2,358.6,760.8z M475.9,772
		c-0.8,0.1-4.4,1.6-8.1,3.5l-6.6,3.4l1.5,5.3c1.9,6.4,3.3,8.1,7.8,9.5c5,1.6,5.9,0,6.3-11.8C477.2,774,477,772,475.9,772z
		 M402,781.3c0,2.2,4.3,7.6,6,7.7c0.3,0,1-1,1.5-2.2c0.6-1.2,2.1-2.5,3.5-2.8c1.7-0.4,2.1-0.8,1.2-1.4c-0.7-0.4-2.1-0.4-3.2-0.1
		c-1.1,0.4-3.4-0.1-5.2-0.9C402,779.7,402,779.7,402,781.3z M472.6,797c-4.7,0-4.8,0.1-4.2,2.6c0.4,1.5,1,3.9,1.3,5.5
		c0.7,3.5,1,3.5,3.9,0.8c1.4-1.3,3.6-2,6.3-2.1c4.2,0,4.2-0.1,2.4-2.2c-1-1.1-2.5-2.6-3.3-3.3C478.2,797.6,475.3,797,472.6,797z
		 M462.8,803.4l-0.3-3.9l-2.6,4.5c-5.3,9-8.7,16.6-9.9,22.2l-1.3,5.7l-3-2.1c-6.1-4.4-13.8-6.8-21.7-6.8c-10.6,0-14.9,2.2-18.4,9.1
		c-4.6,9.3-3.2,11.8,7.8,13.8c12.4,2.3,31,0.7,36.8-3.1c2.2-1.4,2.6-2.6,3.2-9.4c0.9-11.1,3.3-19.3,6.8-23
		C462.6,807.8,463.1,806.5,462.8,803.4z M367.3,813.2c-3.3,3.1-4.8,9.1-3.1,12.5c2,4,6.4,6.1,15.8,7.2c7.5,1,9.4,0.9,15.5-0.8
		c5.5-1.6,7.5-2.7,10.1-5.8c6.5-7.5,5.9-11.3-2.3-15C392.8,806.5,373.3,807.5,367.3,813.2z M461.2,813.9c-1.6,0.9-4.5,17.6-3.7,20.9
		c0.5,1.9,0.8,2.2,2,1.2c1.1-0.9,1.5-3.5,1.5-9.7c0-4.6,0.5-9.3,1.1-10.5C463.3,813.5,463,812.8,461.2,813.9z"/>
	<path d="M452.7,74c0.7,0,1.3,0.8,1.3,1.7c0,3-5.3,27.8-6.1,28.7c-2,2.3-1.8-1.1,0.7-15.3C450.5,78.8,451.8,74,452.7,74z"/>
	<path d="M384.7,233.7c3.5,2.3,12.7,2.3,17.1,0c4.2-2.3,4.1-0.4-0.2,2.2c-6.7,4.2-13.9,3.6-18.6-1.4
		C380.3,231.6,381,231.3,384.7,233.7z"/>
	<path d="M280.7,230c0.9,0,1.2,0.7,0.9,1.7c-0.2,1-0.8,4.6-1.1,8.1c-0.7,6-1.7,8.3-2.9,6.3c-0.4-0.5-0.1-4.3,0.5-8.5
		C278.9,232.2,279.7,230,280.7,230z"/>
	<path d="M529.7,260.6c13.7,2.5,28.8,6.8,29.8,8.4c1,1.5-0.2,1.3-25.6-4.5c-13.1-3-24.6-5.5-25.4-5.5s-1.5-0.5-1.5-1.1
		C507,256.6,509.9,257,529.7,260.6z"/>
	<path d="M545.8,275.6c3,0.5,4.1,1.7,2.5,2.7c-0.9,0.6-26.5-1.2-27.1-1.8c-0.2-0.2-0.1-0.8,0.2-1.3
		C521.9,274.3,539.3,274.6,545.8,275.6z"/>
	<path d="M567.3,308.9c6.4,5,8,7.1,5.6,7.1c-1.4,0-15.9-11-15.9-12c0-0.4,0.3-1,0.7-1.3C558.4,301.9,558,301.7,567.3,308.9z"/>
	<path d="M422.5,353.9c-3.3,3.2-25.9,10.1-32.5,10c-4.4-0.1-3.8-0.3,14.5-6C419.6,353.2,424.2,352.2,422.5,353.9z"/>
	<path d="M430.8,433.3c1.2,6.4,1.6,11,1,11.3c-0.5,0.3-1.1,0.4-1.3,0.3c-0.7-0.8-4.2-22.9-3.7-23.4C428,420.3,428.9,423,430.8,433.3
		z"/>
	<path d="M385.6,437c1,0,1.4,0.6,1,1.5c-0.3,0.9-1.3,4.1-2.2,7.3c-2,7-2.4,7.6-3.6,6.4c-0.7-0.7-0.3-3.4,1.1-8.1
		C383.4,439.2,384.5,437,385.6,437z"/>
	<path d="M377,441.6c1.2,1.2-3.1,15.6-4.8,16.2c-2,0.6-1.1-3.7,3.3-15.7C375.9,441.2,376.4,441,377,441.6z"/>
	<path d="M390.7,447c0.9,0,1.2,0.7,0.9,1.7c-0.2,1-1,5.3-1.7,9.6c-0.6,4.3-1.6,7.6-2.1,7.5c-1.3-0.5-1.2-1,0.2-10.6
		C388.9,449.2,389.6,447,390.7,447z"/>
	<path d="M399.2,454c0.7,0,0.8,1.4,0.4,3.7c-0.3,2.1-0.6,5.5-0.6,7.5c0,2.8-0.4,3.8-1.6,3.8c-1.3,0-1.5-1-0.9-6.8
		c0.4-3.7,0.9-7,1.2-7.5C397.9,454.3,398.6,454,399.2,454z"/>
</g>
</svg>
