<?xml version="1.0" encoding="utf-8"?>
<!-- Generator: Adobe Illustrator 21.0.0, SVG Export Plug-In . SVG Version: 6.00 Build 0)  -->
<svg version="1.1" baseProfile="tiny" id="图层_1"
	 xmlns="http://www.w3.org/2000/svg" xmlns:xlink="http://www.w3.org/1999/xlink" x="0px" y="0px" viewBox="0 0 642.2 802.1"
	 xml:space="preserve">
<title>Anime10_13_50</title>
<g>
	<path fill="none" d="M241,299C241,299,241,299,241,299C241,299,241,299,241,299C241,299,241,299,241,299z"/>
	<path fill="none" d="M569.1,600.6c0-0.1,0-0.2,0.1-0.2c0,0-0.1,0-0.1,0.1C569,600.5,569,600.5,569.1,600.6z"/>
	<path fill="none" d="M516.4,275.3C516.4,275.3,516.5,275.3,516.4,275.3C516.5,275.3,516.5,275.3,516.4,275.3
		C516.4,275.3,516.4,275.3,516.4,275.3z"/>
	<path fill="none" d="M609.6,505.3c0,0.1,0,0.3,0,0.4c0.1-0.1,0.3-0.2,0.4-0.4C609.9,505.3,609.8,505.3,609.6,505.3z"/>
	<path fill="#212730" d="M635.5,1.1H3V1C0.8,1.5,0.9,3.3,0.9,5C1,60.7,1.1,116.4,1.2,172.1V172c2.1-0.3,4.3-0.8,6.4-0.9
		c6.7-0.5,9.3-2.9,9.3-9.6c0-4.4,1.6-6.7,6.2-6.4c7.9,0.6,14.8-3.7,22.5-4.3c0.6,0,1.6-0.6,1.6-1c0.5-6.3,5.4-4.5,9-4.9
		c3.6-0.4,7-3,8.2-7.4c0.6-2.2-0.1-4.7,2.1-7.2c8.5,5.7,15.5-4.9,24.1-2.5c0.2-3.5,6.3-8.7,10.3-8.8c4-0.1,9.5,0.1,14.3-1.5
		c7.3-2.4,14.3-5.2,19.7-11c1.3-1.4,0.8-3.2,2-4.8c2.4,0.1,5.6-0.4,7.3,1.6c4.9,5.7,10,1.9,14.8,0.5c2.9-0.9,5-3.7,8,0.2
		c1.6,2,8.3-0.8,9.4-3.8s1.6-5.6,2.3-8.4c2.3-0.4,1.9,2.3,3.7,2.6c2.3-3.2,6.7-1.6,9.9-4c1.4-1.1,2.5,1.5,3.4,2.9
		c1.7,2.9,3.5,3.7,5.3,0.1c0.3-0.6,0.9-1.6,1.1-1.6c5.6,1.9,9.9-4.2,15.5-2.5c3.2,1,6.7,0.9,9.8-0.3c0.9-0.3,2.2-0.9,2.9-0.5
		c6.6,4,12.3-1.7,18.5-1.5c8.3,0.2,16.7-2,25,0.2c1.7,0.5,2.9-0.2,4.3-0.6c6.4-1.9,13.3,0.8,16.2,6.4c0.6,1,0.3,2.3-0.7,2.9
		c-0.1,0-0.1,0.1-0.2,0.1c-1.3,0.7-2.6,1.3-3.9,1.9c1.4,3.5,7.2,5.9,11.6,4.8c4.4-1.1,8.9-2.8,13.7-0.9c0.7,0.2,1.4,0,1.9-0.4
		c3.8-4.8,9.7-1.9,14.3-4c1.8-0.9,3.1,0.9,4.2,2.1c2.3,2.6,5.6,3.9,9,3.5c6.7-0.4,13.3,0.3,19.7,2.3c4.4,1.4,8.9,2.3,13.7,1
		c4.8-1.3,7.3,2.6,7.6,7.2c0.5,8.3,1.1,8.1,9.7,7.9c5.6-0.1,11.4-0.9,17,1.5c5.6,2.4,9.8,6.1,11.4,12.1c0.7,2.6,2.4,3.5,4.6,3.8
		c2.2,0.3,3.1-1.5,3.6-3.4c0.5-1.9,1.1-3.5,1.6-5.3s0.6-3.7,2.6-3.8c2-0.1,2.3,1.9,2.6,3.6c0.1,0.5,0.3,0.9,0.6,1.3
		c2.2,0.2,3.8-1.2,5.5-2.1s5.4-0.6,5.1,2.9c-0.3,3.5,0.6,4,2.6,4.8c4.2,1.7,6,7.3,11.4,6.7c1.8,8.5,1.8,8.5,6.9,7.1
		c2.7,1.4,0.9,4.7,2.6,6.5c2.8,0.1,1.2-3.9,3.9-3.8c2.7,0.1,0,2-0.1,2.9c-0.4,3,0,5.6,4,4.9s4.9,0.8,3.8,4.4
		c-1.1,3.6,0.1,4.2,2.7,4.2c2.6,0,5.1,4.1,8.6,1.5c0.6-0.5,2.2,0.8,1.9,1.8c-1,3.8,1.9,4.1,4.1,5.6s4.2,4.4,2.3,7.7
		c-1.9,3.3-1.7,4,0.4,6.2c3.1-1.8,6.4-1.2,9.7-0.3c1.2-1.7,0.6-3.4,0.7-5c0.1-1.6,0.6-3.4,2.6-3.7s2.4,1.5,2.7,3
		c1,3.9,1.7,8.1,7.6,8c-3.8,5.7-0.1,9.7,2.2,14.8c4.8-3.2,9.6-2.1,14.4-0.6c1.8,0.7,3.9,0,4.8-1.8c2-3.6,5-6.7,5.6-11.1
		c0.1-1.7,1-3.2,2.5-4.1c1.3-0.8,2.8-2.1,2.4-3.5c-1.8-6.6,4.5-10.8,4.1-17.5c1.7,2.1,1.3,4.6,3.6,5.3c0,0.1,0.1,0.1,0.1,0.2
		c0,0,0,0,0,0c2.4-6.5,5.5-12.8,6.9-19.5c1-4.8,1.6-9.8,2.4-14.6c0.1-0.1,0.2-0.1,0.2-0.2c-0.1,0-0.1,0.1-0.2,0.1
		c0-2.6,0.3-5.3-1.9-7.5c-0.6-0.7-1-1.7-0.9-2.7c0.9-8.6,0.6-17.3-0.9-25.8c0,0,0,0,0,0l0,0c-0.1-3.6-2-7.1-1.1-10.9c0,0,0,0,0,0
		c0,0,0,0,0,0c-2-2.7-3-6-3-9.4c0-5.7-1.1-11.4-4-15.8c-6.6-10-8.7-22-15.5-31.8c-2.5-3.8-3.7-8.3-3.2-12.8c3.9,0.1,5.8,2.3,7.6,4.7
		h0c2.4,2.3,5.2,4.2,7,7.1c0,0,0,0.1,0,0.1c0,0,0,0,0.1,0c4.1,3.5,7.7,7.5,10.7,12c0,0,0,0,0,0c2.6,3.2,5.9,5.8,7.2,9.9
		c17.4,22.9,27.2,48.8,32,76.9c2.6,15.2,3.6,30.4,1.9,45.7c-0.1,1.8-0.6,3.6-1,5.4c0.9,1.8,1.1,3.8,0.6,5.7
		c-2.2,9.6-4,19.2-5.9,28.8c0,0,0,0,0,0c0,0,0.1-0.1,0.1-0.1c1.2,4.8,1.9,9.8,4.5,14.1c0.3,0.4,0.7,1.2,0.6,1.3
		c-5.5,5.9,3.7,10.1,1.4,15.3c11.6,1.8,17.4,10.3,22.9,19.9c1-3.8-4.2-6.8,0.1-9.5c1.9-1.2,3.4-0.4,4.6,1.2
		c0.1-25.5,0.1-51,0.2-76.6c0-45,0-90,0.1-135c0-1.5-1.1-3.5,0.7-4.7c0.1-0.1,0.1-0.2,0.2-0.4c0-14.7,0.1-29.3,0-44
		c0-1.3,1.1-3.6-2-3C638.9,2.1,637,1.1,635.5,1.1z"/>
	<path fill="#5B3226" d="M641,775.6c-0.1-63.5-0.1-127-0.1-190.5c0-1.3-0.1-2.7-0.1-4l0,0v0c-6-1.5-12.1-2.6-18.2-3
		c-3.7-0.3-6.8-1.4-9-4.5s-3.7-3.2-6.1-2.1s-7.1,1.5-10.7,1.6c-1.8,0.1-3.6,0.5-5.4,1c-2.7,0.7-2.6,3.2-3,5.3s1.7,2.3,3.2,2.9
		l11.1,4.6c1.4,0.6,3,1,2.8,3s-1.9,2.1-3.3,2.6c-5.3,1.6-11,1-16.4,1.1c-5.4,0.1-11,4.4-16.7,6.7c0,0.1,0,0.2-0.1,0.2
		c1.3,3.5,3.1,5,6.7,4.2c3.7-0.8,6.7-2,8.2,1.1s-2.7,4.7-4.9,6.4c-3.8,3.2-8,5.1-13.2,5c-3.5,0-6.9,1.2-9.5,3.5
		c-0.4,2.7,3,3.2,2.8,6c-2.6,2.4-6.4,3.1-9.5,3c-9.7-0.4-17.7,5.1-26.7,6.9c-5.2,1-10,2.8-11.7,9.3c-0.9,3.4-5.3,3-8.3,3.1
		c-5.3,0.2-10.6,0.9-15.8,1.9c-9.7,1.7-16.6,7.9-24.3,12.8c-3.7,2.4-7.3,3.8-11.6,3.4c-2.5-0.3-5-0.3-7.5,0
		c-4.7,0.7-10.1,0.1-12.5,6.2c-0.9,2.4-3.6,2-5.7,1.1c-3.3-1.2-6.7-2-10.2-2.3c-3.8-0.5-6.8,0.4-8.5,4.4s-5.5,4.5-9.3,4.5
		c-5.9,0-11.2,1-15.3,5.8c-1.7,2-4.3,2.4-6.9,2.3c-10.2-0.6-20,3.2-30.2,2.2c-0.7-0.1-1.3,0.2-1.8,0.6c-3.5,4.9-8.3,3.9-13.1,3.2
		c-1.6-0.3-3.3-0.2-4.9,0.4c-4.7,2.3-9.4,1.6-14.1,0.2c-2-0.6-4-1.1-5.8,0.1c-3.8,2.6-7.6,2.4-11.9,1.6c-6-1.2-11.9,0.6-17.7,1.9
		c-1.5,0.4-2.7,1.6-3.1,3.1c-1.6,3.6-3.9,3.2-6.2,0.9s-5.1-4.3-5-8.2c0-2-1.8-4.1-3.5-2c-4.3,5.6-9.9,3.2-14.7,2.4
		c-6.6-1.1-13.2-1.7-19.8-2.4c-2.7-0.3-5.1-0.3-4.1-4.2c0.5-2-0.9-3.2-2.7-3.5c-4.7-0.9-9.5-1.7-14.3-2.3c-4.8-0.6-7.7-0.1-11,3.2
		c-3.3,3.3-6.5,2.5-9.9,2.5c-3.4,0-3.8-2.8-4.5-5.2s-0.4-6.6-2.6-9s-5.8,0.7-8.9,0.5c-2.3,0-4.6,0.2-6.9,0.7
		c-5.3,0.8-9.9,0.2-13.1-4.8c-1.9-2.9-5.2-3.6-8.3-3.8c-3.1-0.2-8.1-1.1-12.3-0.3s-9.3-0.7-11.6-5.7c-1.1-2.5-3.2-3.3-5.5-3.8
		c-8.8-2.1-17.1-5.6-25.4-9c-3.8-1.4-6.9-4.3-8.6-8c4.4-1.8,8.7-2.2,13.1-2.3c2-0.1,5,0.8,5.3-2.2c0.3-3-2.6-3-4.5-4
		c-10.1-5.4-21.2-5.4-32.3-5.8c-16.4-0.6-32.8-2.1-49.1-4.6c-1.6-0.3-3.3-0.3-5-0.4c0,0,0,0.1-0.1,0.1v115.8c0,0,0,0,0,0
		c17.1,1,34.4,1,51.2,5.2c1.9,0.5,4.3,0.2,5.2,2.4c0.1,0.1,0.3,0.2,0.4,0.3l2,0.2c1.2-1.3,2.1-0.9,2.7,0.4c0.1,0.1,0.3,0.2,0.4,0.3
		l5,0.3c3.5-2.1,7.2-1.1,10.8-0.6c8,1.2,15.8,3.4,24,3.5c3.9,0.2,7.9-0.5,11.5-2.1c6.1-2.8,11.5-1.1,15,4.3c0.8,1.3,2.3,2,3.8,1.9
		c1.5,0,2.9,0,3.6,1.5c0.1,0,0.3,0.1,0.4,0.1c26.4,4,53.1,6,79.4,10.9c2.7,0.5,5.6,0.2,8.5,0.3l1.1,0.8h1.7c0,0,0,0,0.1,0
		c0.3-0.4,0.5-1.1,0.7-1.1c12.6-1,24.8-7.7,37.7-2.3c2.1,0.9,4.5,1.5,6.4,2.7c4.2,2.7,8.4,3.7,13.3,2.2c1.6-0.5,3.4-0.4,4.9,0.3
		c8.2,3.3,17,4.3,25.6,6c4.9,0.9,9.7,2.6,14.2,4.8c0.4,0.1,0.7,0.2,1.1,0.3h2c0.4-0.3,0.7-0.3,0.9,0.2c8.2,2,16.6,2.7,25,3.8
		c19.6,2.5,39.1,5.4,58.7,7.6c15,1.7,30.1,2.3,45.1,4.6c11.9,2.1,24.1,2.4,35.9,5h0l112.4,0.2c1.6,0,3.7-1.1,5,1h25v-21
		C640.1,779.6,641,777.4,641,775.6z"/>
	<path fill="#5B3226" d="M642.2,582.5c0-0.2-0.1-0.4-0.2-0.6l0,194c0.1-0.2,0.1-0.4,0.2-0.6C642.2,711,642.2,646.8,642.2,582.5z"/>
	<path fill="#8A4423" d="M36.4,801.1l131.5-0.2c0.1-0.1,0.1-0.1,0.2-0.2l-0.2,0c-2.8-3.6-7.2-3.8-11.1-4.7c-10.5-2.3-20-6.8-29.2-12
		c-1.9-1.1-3.9-1.8-6.1-1.9c-6.3,0-12.6-1-18.6-2.8c-8-2.6-16.3-2.2-24-4.6c-7.7-2.4-12.8-6.9-20.9-5.3c-3.5,0.7-7.4-1.5-9.7-5.1
		c-1.3-2-3.7-3.2-5.6-2.2c-6.9,3.7-13.2-0.6-19.8-0.9c-6.6-0.3-14.1-3.9-21.5-3.3c-0.1,0.1-0.1,0.2-0.2,0.3c0,10.2,0,20.3-0.2,30.5
		c0,1.5,0.9,3.4-1,4.5v8.9h31C32.5,800,34.6,801.1,36.4,801.1z"/>
	<path fill="#F2ECEA" d="M1,788.7c0.2-10.2,0.2-20.3,0.2-30.5c0.1-0.1,0.1-0.2,0.2-0.3c0,0,0,0-0.1,0v-18.7l-0.2,0v-2.1
		c0.1,0,0.1,0,0.2,0c0,0,0,0,0,0V621.3c0,0,0-0.1,0.1-0.1c-0.2,0-0.3,0-0.5,0v-74.1c0.1,0,0.2-0.1,0.3-0.1v-4.8c0,0,0,0,0,0
		c-0.1,0-0.1,0-0.2,0v-101c0.1,0,0.1-0.1,0.2-0.1v-9c0,0,0.1-0.1,0.1-0.1v-8.8c0,0-0.1-0.1-0.1-0.1v-11.2c0,0,0.1-0.1,0.1-0.1v-10.6
		v-12.1c0,0-0.1-0.1-0.1-0.1v-9.8c0,0-0.1-0.1-0.1-0.1l0.1-9v-7v-9l0.5-0.1c-0.3-0.1-0.5-0.2-0.8-0.3l0.3-4.7v-69.8V279v-57v-49.9
		C1.1,116.4,1,60.7,0.9,5c0-1.7-0.1-3.5,2.1-4c0.1-0.3,0.1-0.6,0-0.9H0v793v0.1C1.9,792.1,1,790.2,1,788.7z"/>
	<path fill="#F2ECEA" d="M642.1,47.3c-0.1,0.1-0.2,0.1-0.3,0.2c-1.8,1.2-0.7,3.2-0.7,4.7c-0.1,45-0.1,90-0.1,135
		c-0.1,25.5-0.1,51-0.2,76.6c0,0,0.1,0.1,0.1,0.1v28.2c-0.1,0.1-0.2,0.2-0.3,0.3l0.2,8.7v13l0,0l0,16c0,0-0.1,0-0.1,0c0,0,0,0,0,0
		l0.1,11v20v0v12.7c0.1,0.1,0.2,0.2,0.3,0.3l-0.2,11v27c-0.1,0.1-0.1,0.1-0.2,0.2v4.8c-0.1,0-0.1,0-0.2,0v24c0.1,0,0.3,0,0.4,0.1
		l-0.1,17.1c-0.2,0-0.3,0-0.5,0V472c-0.1,0.1-0.2,0.3-0.3,0.4h0.8v58.7c-0.3-0.2-0.6-0.4-0.8-0.5c0,0.1,0.1,0.2,0.1,0.3l0.7,38.2v12
		l0,0c0,1.3,0.1,2.7,0.1,4c0,63.5,0,127,0.1,190.5c0,1.8-0.9,4,1,5.5l0-5.2l0-194L642.1,47.3z"/>
	<path fill="#C4BAB4" d="M3,1L3,1l632.5,0.1c1.5,0,3.4,1,4.5-1H3C3.1,0.4,3.1,0.7,3,1z"/>
	<path fill="#F2ECEA" d="M612,801.1l-112.4-0.2H172.9l-4.8-0.2c-0.1,0.1-0.1,0.1-0.2,0.2l-131.5,0.2c-1.8,0-3.9-1.1-5.4,1h586
		C615.7,800,613.6,801.1,612,801.1z"/>
	<path fill="#0D394E" d="M3.1,221.6c6.9,1.8,10.7-1.4,13-7.5c0.4-1.1,1.2-2,2.3-2.4c3.6-0.7,5.3-3.1,6.2-6.5c4.4,1.3,7.9,1.2,10.2-3
		c0.4-0.6,1.8-1,2.7-1c4.6,0,7.5-2.9,9.7-6.2c2.2-3.3,3-2.9,5.7-2.2c2.7,0.7,4.6,0.2,7,0.4c2.4,0.2,5.2-0.7,5.2-4.3
		c-0.2-2.3,1.4-4.3,3.7-4.6c1.4-0.2,2.6-0.9,3.5-1.9c2.3-2.6,4.5-2.6,6.4,0.2c0.3-0.2,0.7-0.4,1.1-0.6c8.4-1,11.5-9,17.6-13.1
		c2.4-1.6,4,0.8,5.9,0.9c1.9,0.1,1.2-3,2.8-4.3c3.4,1.1,6.1-0.2,8-3.5c0.6-1.1,1.8-2.2,2.8-1.5c3.6,2.7,7.5-0.6,10.6,1.1
		c2-0.9,0.8-3.2,2.6-3.9c1.8-0.7,4.6,3.3,7.8,3c1.8-2,1.3-5.6,4.4-6.9c3.1-1.3,1.1,2.7,2.9,2.7c3.5-1.5,1.9-4.2,1.2-6.9
		c3.7,1,6.8,1.9,7.6,6.5c5.5-5.1,11.8-0.1,17.1-2.6c1.4-2.2-1.4-3.5-0.5-5.7c2.5-1.2,7,1.4,8-3.9s-3-5.4-5-8.3
		c3.6-1.3,6.6-3.3,11-1.9c-1.9,1.8-5.6,1.7-5,4c0.8,3.2,2.4,6.1,4.7,8.4c1.9,1.9,4.7-0.3,6.9-1.4c2.2-1.1,3.4-3.1,5-4.8
		c1.6-1.7,4.6-4.9,8.5-2.5c2.1,1.3,3.5,0.5,4.6-2c1.1-2.5,3.8-3.4,5.4-0.3s2.8,3,5.2,2.2c2.4-0.8,2.9,0,4.4,0.3
		c7.4,1.4,11.3-0.6,14.9-7.4c0.4-0.7,0.8-1.4,1.4-2c0.3-0.3,0.8-0.4,1.3-0.6s0.6,0.6,0.5,0.9c-1.6,9.9-0.3,11,10.9,9.4
		c6.3-0.9,6.7-1.5,5.1-8.2c5,2.6,3.1,9,8,11.1c2.9-3.2,4.8-10.1,11.7-4.9c1.1-2.4-1-6.1,3.2-6.4c1.3-0.1,2.3,0,2.9,1.3
		c1.4,2.9-2,3.4-2.8,5.8c3.1,3.9,7.7-4.8,10,1c2.2-0.6,1-2.5,2.1-3.4c1.1-0.9,0.7-0.1,0.9,0.1c3,3.2,6.4,2.7,10.5,2
		c6.1-1.1,12.2-3.8,18.7-0.3c2.9,1.6,6.8,1.4,10.2,2.1s5.8-3.6,8.9-5.7c2.2,2.4,1.2,5.9,3,8c1.8,2.1,3.4-1.8,5.4-0.7
		c2,1.1-1.5,2.6-0.9,3.6c0.6,1,2.2,0.8,2.7,1.4c7.1,8.1,17.3,7.8,26.5,10.2c3,0.8,5.2-0.3,6.4-3.3c0.7-1.4,1.5-2.8,2.4-4.2
		c3.5,2.6,6.2,1.7,8-1.9c3.2,2.2,0.1,4.9,1.2,7.2c1.1,2.3,1.3,4.4,3,6.4c1.9-2.5-1.2-5,0.5-7.4c2.6,0.4,3.8,2.4,4.6,4.6
		c0.8,2.2,2.3,3.1,4.6,2.9l-0.1-0.1l0.1,0.1c0,0,0,0,0,0c2.4-4.8,4.8-5.9,9.4-3.9c2,1.1,4.5,0.6,5.9-1.1c2.6-2.7,4.9-3.7,8-0.6
		c0.8,0.8,2.5,0.8,4.3,1.3c-3.4,3.4-3.6,6.1,1.4,7.6c1.9,0.6,2,2.4,1.8,4.2c-0.3,4.8,2.8,7.6,7.5,6.1c2.6-0.8,4.6-1.3,6.9,0.5
		c2.3,1.8,3.3-0.2,4.7-1.5c4.4-3.9,5.4-3.3,7.2,2c1.2,3.6,2.2,6.4-0.5,10c-2.7,3.6,0.7,5.5,2.7,7.3c2,1.8,2.5-0.3,3.3-1.9
		c-1.4-1.5-4.1-2.2-3.3-5.3c1.2-4.7,5.1-4.3,8.5-4.9c1.6,1.4,1.2,3,0.3,4.5c-2,3.4-0.2,5.3,3,5.5c3.2,0.2,5.5,4.8,8.7,0.8
		c0.6,0.1,1.2,0.4,1.6,0.8c0.7,0.9,0.3,1.8-0.2,2.8c-1.5,2.7-4.8,3.3-6.9,5.8c1.8,1.4,4.4,1.6,6.4,0.5c4.5-2.5,7.2,0.1,10,2.7
		c0.3,0.2,0.5,0.5,0.6,0.8c3.9,9.4,12.3,15.1,18.7,22.4c1.1,1.3,2.2,2.5,2,4.3c4.3-0.2,8.4-0.3,11.7,3.1v-0.1
		c2.7-1.1,4.2-4.6,7.8-4.1l0.1,0c0,0,0,0,0,0c-1.5-4.6,0.8-7.5,4.4-9.9c1.7-1.1,3-2.7,3.5-4.7c1.5-6.7,7.7-9.5,11.6-14.2
		c0.4-0.6,1.4-0.6,2.2-0.9c0,0,0,0.1,0,0.1c0,0,0-0.1,0.1-0.1l-0.5-4.8c0,0,0,0,0,0c-1.5-1.3-1.7-3.7-0.4-5.2
		c0.1-0.1,0.1-0.1,0.2-0.2c3.4-3.6,4-8.2,4.8-12.7c0-0.1-0.1-0.1-0.1-0.2c-2.3-0.7-1.9-3.2-3.6-5.3c0.4,6.7-5.9,10.9-4.1,17.5
		c0.4,1.4-1.1,2.7-2.4,3.5c-1.5,0.9-2.4,2.4-2.5,4.1c-0.6,4.4-3.6,7.5-5.6,11.1c-0.9,1.8-3,2.5-4.8,1.8c-4.8-1.5-9.6-2.6-14.4,0.6
		c-2.3-5.1-6-9.1-2.2-14.8c-5.9,0.1-6.6-4.1-7.6-8c-0.3-1.5-0.7-3.3-2.7-3s-2.5,2.1-2.6,3.7c-0.1,1.6,0.5,3.3-0.7,5
		c-3.3-0.9-6.6-1.5-9.7,0.3c-2.1-2.2-2.3-2.9-0.4-6.2c1.9-3.3-0.1-6.2-2.3-7.7s-5.1-1.8-4.1-5.6c0.3-1-1.3-2.3-1.9-1.8
		c-3.5,2.6-6-1.5-8.6-1.5c-2.6,0-3.8-0.6-2.7-4.2c1.1-3.6,0.2-5.1-3.8-4.4s-4.4-1.9-4-4.9c0.1-0.9,2.8-2.8,0.1-2.9
		c-2.7-0.1-1.1,3.9-3.9,3.8c-1.7-1.8,0.1-5.1-2.6-6.5c-5.1,1.4-5.1,1.4-6.9-7.1c-5.4,0.6-7.2-5-11.4-6.7c-2-0.8-2.9-1.3-2.6-4.8
		c0.3-3.5-3.4-3.8-5.1-2.9s-3.3,2.3-5.5,2.1c-0.3-0.4-0.5-0.8-0.6-1.3c-0.3-1.7-0.6-3.7-2.6-3.6c-2,0.1-2.1,2-2.6,3.8
		s-1.1,3.4-1.6,5.3c-0.5,1.9-1.4,3.7-3.6,3.4c-2.2-0.3-3.9-1.2-4.6-3.8c-1.6-6-5.8-9.7-11.4-12.1c-5.6-2.4-11.4-1.6-17-1.5
		c-8.6,0.2-9.2,0.4-9.7-7.9c-0.3-4.6-2.8-8.5-7.6-7.2c-4.8,1.3-9.3,0.4-13.7-1c-6.4-2-13-2.7-19.7-2.3c-3.4,0.4-6.7-0.9-9-3.5
		c-1.1-1.2-2.4-3-4.2-2.1c-4.6,2.1-10.5-0.8-14.3,4c-0.5,0.4-1.2,0.6-1.9,0.4c-4.8-1.9-9.3-0.2-13.7,0.9c-4.4,1.1-10.2-1.3-11.6-4.8
		c1.3-0.6,2.6-1.2,3.9-1.9c0.1,0,0.1-0.1,0.2-0.1c1-0.6,1.3-1.9,0.7-2.9c-2.9-5.6-9.8-8.3-16.2-6.4c-1.4,0.4-2.6,1.1-4.3,0.6
		c-8.3-2.2-16.7,0-25-0.2c-6.2-0.2-11.9,5.5-18.5,1.5c-0.7-0.4-2,0.2-2.9,0.5c-3.1,1.2-6.6,1.3-9.8,0.3c-5.6-1.7-9.9,4.4-15.5,2.5
		c-0.2,0-0.8,1-1.1,1.6c-1.8,3.6-3.6,2.8-5.3-0.1c-0.9-1.4-2-4-3.4-2.9c-3.2,2.4-7.6,0.8-9.9,4c-1.8-0.3-1.4-3-3.7-2.6
		c-0.7,2.8-1.2,5.4-2.3,8.4s-7.8,5.8-9.4,3.8c-3-3.9-5.1-1.1-8-0.2c-4.8,1.4-9.9,5.2-14.8-0.5c-1.7-2-4.9-1.5-7.3-1.6
		c-1.2,1.6-0.7,3.4-2,4.8c-5.4,5.8-12.4,8.6-19.7,11c-4.8,1.6-10.3,1.4-14.3,1.5c-4,0.1-10.1,5.3-10.3,8.8
		c-8.6-2.4-15.6,8.2-24.1,2.5c-2.2,2.5-1.5,5-2.1,7.2c-1.2,4.4-4.6,7-8.2,7.4c-3.6,0.4-8.5-1.4-9,4.9c0,0.4-1,1-1.6,1
		c-7.7,0.6-14.6,4.9-22.5,4.3c-4.6-0.3-6.2,2-6.2,6.4c0,6.7-2.6,9.1-9.3,9.6c-2.1,0.1-4.3,0.6-6.4,0.9v0.1V222
		C1.9,221.9,2.6,221.5,3.1,221.6z"/>
	<path fill="#C4BAB4" d="M609.1,182.4c-3.6,1-5.3-0.6-5.2-4.5c0.1-2.2-1.1-4.3-3.1-5.3c-2.8,1.1-3.3,3.7-4,6
		c-1.2,3.6-2.8,7.1-4.7,10.4c-0.6,1.1-1.3,2-2.7,1.7s-2.4-1.2-2.1-2.4c1.4-5.4-2.4-9.3-4-13.8l-1.1-0.2c0,0,0,0,0,0
		c-1.4,2-1.1,4.4-1.2,6.5c-0.1,2.2-0.6,4.9-2.9,6.4c0,0-0.1,0-0.1,0c0,0,0.1,0.1,0.1,0.1c-5.7,5.4-5.1,12.4-5.1,19.3l0,0
		c0.9,3.4,2,6.2,6.3,3.1c1.5-1.1,3.5-1,5.6,0.4l-3.8,15.6c-0.3,1.3-1.2,2.8-0.8,3.8c1.9,4.8,0.1,7.6-3.4,11.2
		c-2.4,2.7-5.9,4.1-9.5,3.9c-3.9-0.1-4.5-4.1-4.5-6.2c0-4.4-2-7-6.7-9.4c8.7-1.9,10.5-7.5,10.3-14.4c-2.7,0.4-2.8,2.9-4,4.6
		c-2.4,3.5-4.1,7.7-9.3,8l0,0v0L549,231c0.1-0.1,0.3-0.1,0.4-0.2c2.4,2,3.2,4.2,2.4,7.4s-1.3,5.7,2.2,7.4c-1.1,1.6-1.7,3.2-2.9,4
		c-4,2.8-6.1,5.9-4.8,11.2c0.6,2.6-1.6,5.1-4,6.3c-2.4,1.2-3.4-1.6-4.9-3l-1.9-1.6c-1.4,1.8,0.3,3.3,0.1,4.9
		c-0.2,1.6,0.2,3.4-1.2,4.6c-5.5,4.9-10.5,10.3-16.7,14.3c-3,1.5-4.8,4.6-4.7,7.9c0,0,0,0,0,0h0l5.1-0.6c1.1,4.4-0.7,6.9-4.8,8.2
		c1.8,2,9.3,1.9,10.1-0.6c2.7-7.7,8.4-5.1,13.2-4.4s7.1-1.1,7.4-5.9c0.1-2.3,0.8-4,3.6-3.4c1.3,1.4-0.2,2.9,0.3,4.3
		c0.5,1.4,2.7,4.3,5.2,2.4c2.5-1.9,4.4-2.4,6.2-4c5.7-5.1,13.6-7.7,17.5-14.9c0.9-1.3,2.5-1.1,3.8-1.2l0,0c4.5-3.3,5.8-8.9,9-13
		c0.1,0,0.1,0.1,0.2,0.1c0-0.1,0-0.1-0.1-0.2c0.6-5.1,0.9-10.7,4.6-14.3c7.3-7,5.5-18.1,12.3-25.1c0,0,0,0,0,0
		c1.9-9.6,3.7-19.2,5.9-28.8c0.5-1.9,0.3-3.9-0.6-5.7C609.6,186.5,610.7,183.8,609.1,182.4z"/>
	<path fill="#F2ECEA" d="M577.6,64.4c2.9,11,5.3,22.2,8.8,33c1,3.6,2.4,7.1,4,10.4c1.4,2.5,1.5,5.5,0.2,8.1
		c-2.6,5.8-4.8,11.7-3,18.2c0.4,1.5-0.4,2.8-1,4.2c0,0,0,0,0,0c1.7,0.6,0.2,2.8,0.9,3.9c4.1,6.4,2.5,12.4-1.3,18.2
		c-1.5,2.3-1.4,4.7-1.3,7.2s1,5.1-1.6,6.9c1.6,4.5,5.4,8.4,4,13.8c-0.3,1.2,0.7,2.1,2.1,2.4s2.1-0.6,2.7-1.7
		c1.9-3.3,3.5-6.8,4.7-10.4c0.7-2.3,1.2-4.9,4-6c2,1,3.2,3.1,3.1,5.3c-0.1,3.9,1.6,5.5,5.2,4.5c1.6,1.4,0.5,4.1,2.8,4.7
		c0.4-1.8,0.9-3.6,1-5.4c1.7-15.3,0.7-30.5-1.9-45.7c-4.8-28.1-14.6-54-32-76.9C577,60.5,577,62.2,577.6,64.4z"/>
	<path fill="#4F3F49" d="M636.2,262.6c-4.3,2.7,0.9,5.7-0.1,9.5c-5.5-9.6-11.3-18.1-22.9-19.9c2.3-5.2-6.9-9.4-1.4-15.3
		c0.1-0.1-0.3-0.9-0.6-1.3c-2.6-4.3-3.3-9.3-4.5-14.1c0,0-0.1,0.1-0.1,0.1c-6.8,7-5,18.1-12.3,25.1c-3.7,3.6-4,9.2-4.6,14.3
		c0,0.1,0,0.1,0.1,0.2c5.3,3.8,7.1,9.2,4.9,14.9c-1.3,3.4-0.6,5.4,3.2,5c3.8-0.4,8,1.3,11.6,4.7s10.7,4.8,16.1,4.8s10.1-0.4,15,1.5
		l0,0.3c0.1-0.1,0.2-0.2,0.3-0.3v-28.2c0,0-0.1-0.1-0.1-0.1C639.6,262.2,638.1,261.4,636.2,262.6z"/>
	<path fill="#C4BAB4" d="M569.2,54.3c3.1,8.6,6.1,17.1,9.1,25.7c1.1,2.6,1.6,5.3,1.6,8.1c4.8,11.6,2,23.3,0.9,35
		c-0.1,0.7-0.8,1.4-1.2,2.1h0v2.5c0,0,0,0,0,0.1c0-0.1,0.1-0.1,0.1-0.2c1.4,1,1.5,2.1,0.6,3.5c-0.1,0-0.1-0.1-0.1-0.1
		c0,0.1,0,0.2,0,0.2l-0.2,4.9l1.3,0.9c1.9-0.2,3.6,0.7,5.3,1.3c0.6-1.4,1.4-2.7,1-4.2c-1.8-6.5,0.4-12.4,3-18.2
		c1.3-2.6,1.2-5.6-0.2-8.1c-1.6-3.3-3-6.8-4-10.4c-3.5-10.8-5.9-22-8.8-33c-0.6-2.2-0.6-3.9,1.4-5.3c-1.3-4.1-4.6-6.7-7.2-9.9
		C567.7,49.3,568.3,51.7,569.2,54.3z"/>
	<path fill="#787372" d="M577.9,120.4c0.5,1.6-0.2,3.7,1.7,4.8l0,0h0c0.4-0.7,1.1-1.4,1.2-2.1c1.1-11.7,3.9-23.4-0.9-35
		c-2.7-0.5-3.6-2.6-4.4-4.8c-4.1-11.8-8.2-23.7-12.4-35.5c-0.9-2.5-2.1-4.8-3.2-7.2c-1.1-2.4-1.1-2.9,1.1-3.4c0,0,0-0.1,0-0.1
		c-1.8-2.9-4.6-4.8-7-7.1h0l0,0c-3.4,0.6-2.9,2.4-1.6,4.7c9.1,15.8,14.3,33.2,20.9,50c1.4,3.4,0.9,7.4-1.2,10.4c0,0,0,0,0,0
		c-0.9,3.8,1,7.3,1.1,10.9l0,0C578.4,109.6,576.3,115.6,577.9,120.4z"/>
	<path fill="#4F3F49" d="M573.3,84.7c-6.6-16.8-11.8-34.2-20.9-50c-1.3-2.3-1.8-4.1,1.6-4.7l0,0c-1.8-2.4-3.7-4.6-7.6-4.7
		c-0.5,4.5,0.7,9,3.2,12.8c6.8,9.8,8.9,21.8,15.5,31.8c2.9,4.4,4,10.1,4,15.8c0,3.4,1,6.7,3,9.4c0,0,0,0,0,0
		C574.2,92.1,574.7,88.1,573.3,84.7z"/>
	<path fill="#5F5E66" d="M562.8,188.9c-0.1,0.1-0.1,0.1-0.2,0.2c-1.3,1.5-1.2,3.9,0.4,5.2c0,0,0,0,0,0l0-0.1
		c2.4-0.7,4.2-2.5,5.9-4.2c0,0,0.1-0.1,0.1-0.1c0,0-0.1,0-0.1,0c0.7-6.4,1.1-12.8,5.6-18.1c2.8-3.1,1.5-8.8,6.4-10.7
		c0.2-4.3,0.5-8.6-0.7-12.8c-1.2-4.2,0.8-7.5,1.1-11.3l-1.3-0.9c-1.4,1.7-0.5,4.7-2.9,5.8c-0.1,0.1-0.1,0.1-0.2,0.2
		c-0.8,4.8-1.4,9.8-2.4,14.6c-1.4,6.7-4.5,13-6.9,19.5c0,0,0,0,0,0C566.8,180.7,566.2,185.3,562.8,188.9z"/>
	<path fill="#9B9CA8" d="M559.9,40.6c1.1,2.4,2.3,4.7,3.2,7.2c4.2,11.8,8.3,23.7,12.4,35.5c0.8,2.2,1.7,4.3,4.4,4.8
		c0-2.8-0.5-5.5-1.6-8.1c-3-8.6-6-17.1-9.1-25.7c-0.9-2.6-1.5-5,2.6-5.1c0,0,0,0,0,0c-3-4.5-6.6-8.5-10.7-12c0,0,0,0-0.1,0
		C558.8,37.7,558.8,38.2,559.9,40.6z"/>
	<path fill="#4F3F49" d="M580,136.1l0.2-4.9c0-0.1,0-0.2,0-0.2c-0.9-0.8-1.1-2.1-0.5-3.2c0,0,0,0,0-0.1v-2.5l0,0
		c-1.9-1.1-1.2-3.2-1.7-4.8c-1.6-4.8,0.5-10.8-4.7-14.4c0,0,0,0,0,0c1.5,8.5,1.8,17.2,0.9,25.8c-0.1,1,0.3,2,0.9,2.7
		c2.2,2.2,1.9,4.9,1.9,7.5c0.1,0,0.2-0.1,0.2-0.1C579.5,140.8,578.6,137.8,580,136.1z"/>
	<path fill="#8A4423" d="M584,566.7c-8.2-0.3-16.3-1.4-24.3-3.1c-3-0.5-5.8-1.8-8.2-3.6c-1.8-1.5-3.5-1.7-5.4-0.2s-6.2,1.5-9-0.9
		s-4.2-3.1-7.2-2.1c-10.2,3.2-16.3,0.2-20.2-9.9c-0.6-1.7-1.2-3.5-1.8-5.2c-0.3-1.5-1.9-2.5-3.4-2.2c-1.5,0.2-2.1,1.3-2.5,2.8
		c-1.1,4.4-1.1,4.4-3.6,7c0.4,1,1.5,2.2,1.2,3c-2.3,6.7,2.8,7,6.9,9.3c6.7,3.6,13.8,4.2,20.8,6.1c7,1.9,15.8,4.6,23,8.8
		c2.8,1.6,5.9,0.6,8.8,0.8s4.9,0.5,5.7,4.9c-5-2-7.8,3.9-12.9,1.9c-2.3-0.9-3.9,2.8-2.2,5.3s4.7,3.3,7.9,2.6
		c5.6-1.2,6.9-0.9,12.3,1.7c-2.9,2.5-6.4,1.8-9.4,2.1c-13.5,1.7-27,4.4-40.5,4.7c-7.5,0.2-15.3,4-22.8,0.1c-1.1-0.6-2.2,0.3-3.2,1
		c-8.2,5.3-17.4,5.6-26.7,5.7c-3.8,0-7.6,0.4-11.4,0.7c-11.4,1-22.7,2.2-33.9,5.2c-11.2,3-21.1,1.8-31.7,3.1
		c-21.3,2.5-42.6,4.8-63.9,6.9c-10.9,1.1-21.9,1.5-32.8,2.2c-18.1,1.3-36.2,1.1-54.3,2.8c-7.6,0.7-15.2,0.2-22.9,0.2
		c-2.2-0.1-4.3-1-5.8-2.6c-2.6-2.4-4.9-2.5-7.1,0.4s-4.7,3.3-7.9,3.2c-19.3-0.1-38.7,0.1-58-0.3c-8.9-0.2-17.8-1.7-26.7-2.8
		c-3.2-0.4-6.2-1.3-4.4-5.7c0.3-0.6,0.2-1.3-0.1-1.9c-2.4-2.5-6.5-1.7-8.8-4.3c-2.3-2.6-5.1-3.3-8.4-0.5c-2.7,2.1-5.9,3.2-9.3,3.3
		c-13,0.6-26,0.6-38.8-2c-1.5-0.3-3.2-0.8-3.8-2.2c-1.9-4.9-5.9-5.6-10.4-6.3c-1.9-0.3-5.6-0.8-4.5-3.3c1.1-2.5,0-7.5,5.5-8.3
		c16.4-2.4,32.9-1.8,49.3-1.9c20.2-0.1,40.3,2.9,60.6,2.2c8.5-0.3,17.1,1.7,25.7,2.6c1,0.1,2,0.2,3,0.1c15.8-1.7,31.6,1.5,47.3-0.2
		c12.1-1.3,24.3,0.2,36.3-1.7c8.1-1.3,10.1,0.4,12.5,9c1.2-2,3.4-2.9,4.1-4.5c3.3-6.6,7.6-6.1,13-2.9c2.3,1.3,5,1.3,7.8,0.9
		c6.4-1,12.9-1.8,19,1.6c1.7,0.9,3.6,0.7,5.4,0.7c9.7,0,19.3,0.3,29-0.1c16.2-0.6,32.1,3.3,48.2,3.1c8.8-0.1,17.6,0.7,26.4-0.9
		c3.7-0.7,7.2,0.9,10.8,1.6s11-1.6,13.6-5.5c2.6-3.9,0.1-5.8-3.8-6c-3.9-0.2-9-0.1-13.5-0.1c-1.7,0-3.6,0.4-4.8-0.8
		c-7.1-6.6-17.2-7.6-24.7-13.9c-4.4-3.7-10.7-2.5-15.6-0.1c-3.7,1.8-7.8,2.8-11.9,2.8c-11.8,0.1-23.7,0.2-35.5,0
		c-20.6-0.4-41.2,3.2-61.8,2c-13.6-0.8-27.1-1.7-40.6-4.2c-9.9-1.8-20.1-1.7-30.2-2l-30.4-0.7c-1.6,0-2.7-1.1-4-1.9
		c-2.8-1.9-5.5-3.8-9.2-2.4c-0.6,0.3-1.4,0.3-2,0c-9.2-4.2-18.9-2.2-28.5-2.9c-4.8-0.4-9.6-1.3-14.2-2.7
		c-12.5-3.6-25.5-4.6-38.2-7.3c-12.7-2.7-23.6-3.3-35.2-6.1c-6.8-1.8-14.2-2.6-21.4-4.9c-4.1-1.3-8.9,0.9-13.2-0.9V547
		c-0.1,0-0.2,0.1-0.3,0.1v74.1c0.2,0,0.3,0,0.5,0c1.7,0.1,3.4,0.1,5,0.4c16.3,2.5,32.7,4,49.1,4.6c11.1,0.4,22.2,0.4,32.3,5.8
		c1.9,1,4.8,1,4.5,4c-0.3,3-3.3,2.1-5.3,2.2c-4.4,0.1-8.7,0.5-13.1,2.3c1.7,3.7,4.8,6.6,8.6,8c8.3,3.4,16.6,6.9,25.4,9
		c2.3,0.5,4.4,1.3,5.5,3.8c2.3,5,7.4,6.5,11.6,5.7s9.2,0.1,12.3,0.3c3.1,0.2,6.4,0.9,8.3,3.8c3.2,5,7.8,5.6,13.1,4.8
		c2.3-0.5,4.6-0.7,6.9-0.7c3.1,0.2,6.7-2.9,8.9-0.5s1.9,6.6,2.6,9s1.1,5.2,4.5,5.2c3.4,0,6.6,0.8,9.9-2.5c3.3-3.3,6.2-3.8,11-3.2
		c4.8,0.6,9.6,1.4,14.3,2.3c1.8,0.3,3.2,1.5,2.7,3.5c-1,3.9,1.4,3.9,4.1,4.2c6.6,0.7,13.2,1.3,19.8,2.4c4.8,0.8,10.4,3.2,14.7-2.4
		c1.7-2.1,3.5,0,3.5,2c-0.1,3.9,2.7,5.9,5,8.2s4.6,2.7,6.2-0.9c0.4-1.5,1.6-2.7,3.1-3.1c5.8-1.3,11.7-3.1,17.7-1.9
		c4.3,0.8,8.1,1,11.9-1.6c1.8-1.2,3.8-0.7,5.8-0.1c4.7,1.4,9.4,2.1,14.1-0.2c1.6-0.6,3.3-0.7,4.9-0.4c4.8,0.7,9.6,1.7,13.1-3.2
		c0.5-0.4,1.1-0.7,1.8-0.6c10.2,1,20-2.8,30.2-2.2c2.6,0.1,5.2-0.3,6.9-2.3c4.1-4.8,9.4-5.8,15.3-5.8c3.8,0,7.6-0.5,9.3-4.5
		s4.7-4.9,8.5-4.4c3.5,0.3,6.9,1.1,10.2,2.3c2.1,0.9,4.8,1.3,5.7-1.1c2.4-6.1,7.8-5.5,12.5-6.2c2.5-0.3,5-0.3,7.5,0
		c4.3,0.4,7.9-1,11.6-3.4c7.7-4.9,14.6-11.1,24.3-12.8c5.2-1,10.5-1.7,15.8-1.9c3-0.1,7.4,0.3,8.3-3.1c1.7-6.5,6.5-8.3,11.7-9.3
		c9-1.8,17-7.3,26.7-6.9c3.1,0.1,6.9-0.6,9.5-3c0.2-2.8-3.2-3.3-2.8-6c2.6-2.3,6-3.5,9.5-3.5c5.2,0.1,9.4-1.8,13.2-5
		c2.2-1.7,6.4-3.3,4.9-6.4s-4.5-1.9-8.2-1.1c-3.6,0.8-5.4-0.8-6.7-4.2c0-0.1,0-0.1-0.1-0.2c0,0,0.1,0,0.1-0.1
		c5.7-2.3,11.3-6.6,16.7-6.7c5.4-0.1,11.1,0.5,16.4-1.1c1.4-0.5,3.1-0.6,3.3-2.6s-1.4-2.4-2.8-3l-11.1-4.6c-1.5-0.6-3.6-0.8-3.2-2.9
		s0.3-4.6,3-5.3c1.8-0.5,3.6-0.9,5.4-1c3.6-0.1,8.3-0.5,10.7-1.6s3.9-1,6.1,2.1s5.3,4.2,9,4.5c6.1,0.4,12.2,1.5,18.2,3v0v-12
		C621.9,567.8,602.9,567.5,584,566.7z"/>
	<path fill="#BE6129" d="M28.3,741.8l-27-2.6v18.7c0,0,0,0,0.1,0c7.5-0.6,15,3,21.5,3.3c6.6,0.3,12.9,4.6,19.8,0.9
		c1.9-1,4.3,0.2,5.6,2.2c2.3,3.6,6.2,5.8,9.7,5.1c8.1-1.6,13.2,2.9,20.9,5.3c7.7,2.4,16,2,24,4.6c6,1.8,12.3,2.8,18.6,2.8
		c2.2,0.1,4.2,0.8,6.1,1.9c9.2,5.2,18.7,9.7,29.2,12c3.9,0.9,8.3,1.1,11.1,4.7l0.2,0l4.8,0.2h326.7h0c-11.8-2.6-24-2.9-35.9-5
		c-15-2.3-30.1-2.9-45.1-4.6c-19.6-2.2-39.1-5.1-58.7-7.6c-8.4-1.1-16.8-1.8-25-3.8c-0.2-0.5-0.5-0.5-0.9-0.2h-2
		c-0.4-0.1-0.7-0.2-1.1-0.3c0.4,0.2,0.8,0.4,1.2,0.6l-36.1-4.4c-18.1-2.2-36.3-4.2-54.4-6.7c-4.5-0.6-9.3,0.1-13.6-2
		c0,0,0-0.1,0.1-0.1c0,0,0,0-0.1,0h-1.7l-1.1-0.8c-2.9-0.1-5.8,0.2-8.5-0.3c-26.3-4.9-53-6.9-79.4-10.9c-0.1,0-0.3-0.1-0.4-0.1
		c0,0.1,0.1,0.2,0.1,0.3c-17.7-2.3-35.7-1.2-53.2-5.2c-5.3-1.2-10.6-2-15.8-3.5c0.1,0,0.1-0.1,0.2-0.1l-5-0.3
		c-0.1-0.1-0.2-0.2-0.4-0.3c0.1,0.1,0.1,0.3,0.2,0.4c-1.1,0.2-2.1,0-3-0.7c0,0,0.1-0.1,0.1-0.1l-2-0.2c-0.1-0.1-0.2-0.2-0.4-0.3
		c0.1,0.2,0.1,0.3,0.2,0.5C47.9,745,38.2,742.7,28.3,741.8z M334.9,780.2L334,780C334.4,779.7,334.7,779.7,334.9,780.2z M226.1,767
		l-1.1-0.8L226.1,767z"/>
	<path fill="#8A4423" d="M241.6,768.9c18.1,2.5,36.3,4.5,54.4,6.7l36.1,4.4c-0.4-0.2-0.8-0.4-1.2-0.6c-4.5-2.2-9.3-3.8-14.2-4.8
		c-8.6-1.7-17.4-2.7-25.6-6c-1.5-0.7-3.3-0.8-4.9-0.3c-4.9,1.5-9.1,0.5-13.3-2.2c-1.9-1.2-4.3-1.8-6.4-2.7
		c-12.9-5.4-25.1,1.3-37.7,2.3c-0.3,0-0.5,0.7-0.7,1.1c0,0,0,0.1-0.1,0.1C232.3,769,237.1,768.3,241.6,768.9z"/>
	<path fill="#8A4423" d="M83.8,749.8c17.5,4,35.5,2.9,53.2,5.2c0-0.1-0.1-0.2-0.1-0.3c-0.7-1.5-2.1-1.5-3.6-1.5
		c-1.5,0.1-3-0.6-3.8-1.9c-3.5-5.4-8.9-7.1-15-4.3c-3.6,1.6-7.6,2.3-11.5,2.1c-8.2-0.1-16-2.3-24-3.5c-3.6-0.5-7.4-1.5-10.8,0.6
		c-0.1,0-0.1,0.1-0.2,0.1C73.2,747.8,78.5,748.6,83.8,749.8z"/>
	<path fill="#8A4423" d="M1.1,739.2l0.2,0l27,2.6c9.9,0.9,19.6,3.2,29.6,3.4c0-0.2-0.1-0.4-0.2-0.5c-0.9-2.2-3.4-1.9-5.2-2.4
		c-16.8-4.2-34.1-4.2-51.2-5.2c-0.1,0-0.1,0-0.2,0V739.2z"/>
	<path fill="#8A4423" d="M63,746c-0.1-0.2-0.1-0.3-0.2-0.4c-0.6-1.3-1.5-1.7-2.7-0.4c0,0-0.1,0.1-0.1,0.1
		C60.9,746,61.9,746.2,63,746z"/>
	
		<line fill="none" stroke="#8A4423" stroke-width="0" stroke-linecap="round" stroke-linejoin="round" x1="225" y1="766.2" x2="226.1" y2="767"/>
	<path fill="#8A4423" d="M334,780l0.9,0.2C334.7,779.7,334.4,779.7,334,780z"/>
	<path fill="#BE6129" d="M594.9,411c-10.3-0.8-20.7,1.5-29.7,6.6c-5.1,2.9-10.9,4.1-16.7,3.5l-20.3-2.1c0,0,0,0,0,0l0,0.1
		c-18.1-0.6-36.1,2.7-52.8,9.6c16.1-0.4,32.1,1,47.9,4c15.6,3.1,30.9,7.4,46.5,11.2c-0.9,2.8-2.8,2.3-4.3,2.3
		c-12.1-0.4-24.2-1.5-36.1-3.5c-7.4-1.1-14.9-1.4-22.3-1.9c-7.4-0.5-17.2-3.7-25.9-5.1c-0.9-0.3-1.9-0.4-2.9-0.4
		c-6.9,1.4-12.8-0.1-18.7-4.1c-3.7-2.4-8.5-1.8-11.5,1.4c-1.1,1.3-2.9,1.8-4.6,1.3c-3.2-1.2-6.2-0.2-9.3,0.2s-6.4,0.7-3.8,5.4
		c1.1,1.9-0.3,3.1-2.2,3.5c-9.2,2-18.4,4-27.6,6.1c-22.9,5.4-46.7,5.8-69.5,11.7c-2.5,0.7-5.3,0.2-7.9-0.2c-5.4-1-11-1-16.4-0.2
		c-5.8,0.8-11.6,1-17.3-0.5c-4.1-1.1-8.2-1.4-12.2,0.5c-0.9,0.5-1.9,0.7-2.9,0.6c-10.6-1.7-21.2,1-31.8,0.1c-4-0.4-8-0.4-10.5-4.4
		c-1.3-2.1-3.8-1.6-6-1.6c-5.2,0-10.5,0.2-15.3-1.9c0-1.5,0.8-1.9,1.6-1.9c9.8,0.4,19.1-4.2,29.1-2.6c2.7,0.4,5.7-2,8.8,0.1
		c1,0.7,2.1-0.5,2.8-1.6l3.6-6.1C218.2,443,182,452.9,147.6,470c2,2.3,5.1,1.2,7.7,1.6c11,1.6,22.1,1.3,33.3,1.1
		c19.5-0.4,38.4-6.4,58.1-4.6c7.8,0.8,15.6,1.2,23.4,1.2c13.4-0.2,26.7-1.9,40.2-2.7c-6.8,1.4-13.6,3.1-20.4,4.3
		c-18.5,3.4-37.3,4.8-56.1,4.1c-12.6-0.5-24.9,0.4-36.9,4.8c-5.3,1.9-11,2.4-16.7,2.3c-15.5-0.2-31,0-46.5,0c-2.2,0-4.3-0.2-6.4,0.8
		c-0.1,0-0.1,0-0.2-0.1c-0.6,2.4-2.7,2-4.4,2.4c-3.9,0.8-4.8,3.4-2.5,6.6s5.3,5.5,9.2,5.2c11-0.8,21.3,2.9,32,4.6
		c2.6,0.5,5.3,0.5,7.9,0.1c4.6-0.8,9.3-0.8,13.9,0.1c3.8,0.7,7.5,1.2,10.8-1.8s6.1-0.9,9-0.1c5.4,1.6,10.7,2.3,16.1-0.1
		c1.4-0.7,3-0.5,4.3,0.3c3,2,5.8,3.4,9.7,2.4c3.9-1,3.2,1.4,2.1,3.5c-1.1,2.1-3,3.1-4.6,4.5c-5.1,4.3-4.7,9,1.1,12.1
		c3.5,1.9,3.5,3,1.8,7.1c-2.6,6.2-5.4,8.7-12.2,10.7c-6.8,2-8.3,2.5-4.2,10.9c0.8,1.5,1.3,3.1,1.6,4.7c0.6,3.6-0.8,5.3-4.7,5
		l-60.1-3.9c-1.8-0.1-3.6-0.6-5.3-1.3c-2.2-0.9-4.5-2-7.1-0.2s-3.9,0.4-5.8-0.2c-7.7-2.3-15.7-3.3-23.7-2.8
		c-11.6,0.6-23.3-0.2-34.7-2.3c-10.1-1.9-20.5-1.6-30.7-2.9c-14-1.7-28.1-2.9-42.1-5.1c-1.1-0.1-2.2-0.1-3.3-0.1c0,0,0,0,0,0v4.8
		v0.1c4.3,1.8,9.1-0.4,13.2,0.9c7.2,2.3,14.6,3.1,21.4,4.9c11.6,2.8,22.5,3.4,35.2,6.1c12.7,2.7,25.7,3.7,38.2,7.3
		c4.6,1.4,9.4,2.3,14.2,2.7c9.6,0.7,19.3-1.3,28.5,2.9c0.6,0.3,1.4,0.3,2,0c3.7-1.4,6.4,0.5,9.2,2.4c1.3,0.8,2.4,1.9,4,1.9l30.4,0.7
		c10.1,0.3,20.3,0.2,30.2,2c13.5,2.5,27,3.4,40.6,4.2c20.6,1.2,41.2-2.4,61.8-2c11.8,0.2,23.7,0.1,35.5,0c4.1,0,8.2-1,11.9-2.8
		c4.9-2.4,11.2-3.6,15.6,0.1c7.5,6.3,17.6,7.3,24.7,13.9c1.2,1.2,3.1,0.8,4.8,0.8c4.5,0,9.6-0.1,13.5,0.1c3.9,0.2,6.4,2.1,3.8,6
		c-2.6,3.9-10,6.2-13.6,5.5s-7.1-2.3-10.8-1.6c-8.8,1.6-17.6,0.8-26.4,0.9c-16.1,0.2-32-3.7-48.2-3.1c-9.7,0.4-19.3,0.1-29,0.1
		c-1.8,0-3.7,0.2-5.4-0.7c-6.1-3.4-12.6-2.6-19-1.6c-2.8,0.4-5.5,0.4-7.8-0.9c-5.4-3.2-9.7-3.7-13,2.9c-0.7,1.6-2.9,2.5-4.1,4.5
		c-2.4-8.6-4.4-10.3-12.5-9c-12,1.9-24.2,0.4-36.3,1.7c-15.7,1.7-31.5-1.5-47.3,0.2c-1,0.1-2,0-3-0.1c-8.6-0.9-17.2-2.9-25.7-2.6
		c-20.3,0.7-40.4-2.3-60.6-2.2c-16.4,0.1-32.9-0.5-49.3,1.9c-5.5,0.8-4.4,5.8-5.5,8.3c-1.1,2.5,2.6,3,4.5,3.3
		c4.5,0.7,8.5,1.4,10.4,6.3c0.6,1.4,2.3,1.9,3.8,2.2c12.8,2.6,25.8,2.6,38.8,2c3.4-0.1,6.6-1.2,9.3-3.3c3.3-2.8,6.1-2.1,8.4,0.5
		c2.3,2.6,6.4,1.8,8.8,4.3c0.3,0.6,0.4,1.3,0.1,1.9c-1.8,4.4,1.2,5.3,4.4,5.7c8.9,1.1,17.8,2.6,26.7,2.8c19.3,0.4,38.7,0.2,58,0.3
		c3.2,0.1,5.7-0.3,7.9-3.2s4.5-2.8,7.1-0.4c1.5,1.6,3.6,2.5,5.8,2.6c7.7,0,15.3,0.5,22.9-0.2c18.1-1.7,36.2-1.5,54.3-2.8
		c10.9-0.7,21.9-1.1,32.8-2.2c21.3-2.1,42.6-4.4,63.9-6.9c10.6-1.3,20.5-0.1,31.7-3.1c11.2-3,22.5-4.2,33.9-5.2
		c3.8-0.3,7.6-0.7,11.4-0.7c9.3-0.1,18.5-0.4,26.7-5.7c1-0.7,2.1-1.6,3.2-1c7.5,3.9,15.3,0.1,22.8-0.1c13.5-0.3,27-3,40.5-4.7
		c3-0.3,6.5,0.4,9.4-2.1c-5.4-2.6-6.7-2.9-12.3-1.7c-3.2,0.7-6.2-0.1-7.9-2.6s-0.1-6.2,2.2-5.3c5.1,2,7.9-3.9,12.9-1.9
		c-0.8-4.4-2.8-4.7-5.7-4.9s-6,0.8-8.8-0.8c-7.2-4.2-16-6.9-23-8.8c-7-1.9-14.1-2.5-20.8-6.1c-4.1-2.3-9.2-2.6-6.9-9.3
		c0.3-0.8-0.8-2-1.2-3c2.5-2.6,2.5-2.6,3.6-7c0.4-1.5,1-2.6,2.5-2.8c1.5-0.3,3.1,0.7,3.4,2.2c0.6,1.7,1.2,3.5,1.8,5.2
		c3.9,10.1,10,13.1,20.2,9.9c3-1,4.4-0.3,7.2,2.1s7.1,2.4,9,0.9s3.6-1.3,5.4,0.2c2.4,1.8,5.2,3.1,8.2,3.6c8,1.7,16.1,2.8,24.3,3.1
		c18.9,0.8,37.9,1.1,56.8,2.4l-0.7-38.2c0-0.1-0.1-0.2-0.1-0.3c-3-1.7-6.4-1.5-9.8-1.4c-3.7,0.2-5.2-1-5.3-4.8
		c-0.2-6.6-4.3-9.2-10.7-6.5c-3.5,1.5-4.7,0.7-5.5-2.7s-1.5-3.7-6.1-6.1c0.9-3.2,4.4-1.2,7.1-3.4c0-0.2,0-0.3,0-0.4
		c-12.2-1-21.3-10.2-33.5-8.3c-1.1,0.3-2.3,0.1-3.4-0.4c-7.5-5.4-16.2-7.5-24.8-9.9c-1.9-0.5-4.6-1.6-4.4-4.1s3.1-2.5,5-3.2
		s1.7-0.2,2.5-0.4c0.8-0.2,4-1.3,4.6-3.4c0.6-2.1-1.5-2.7-2.8-3.7c-0.4-0.4-0.8-0.9-1.2-1.4c0.6-2.4,2.4-2.3,4-2.2
		c10.8,0.4,21.6-1.9,32.3-0.9c8.7,0.9,17.6,0.9,26.3,0c2.6-0.3,4.9,0.1,6.4,2.8c1.5,2.7,3.1,2.2,5.2,2.2H640
		c0.1-0.1,0.2-0.3,0.3-0.4v-13.8c-13.5-1.4-27.2-1.1-40.8-1.1c-2.3-0.1-4.6,0.4-6.7,1.3c-3.9,1.9-8.5,2.2-12.6,0.7
		c-1.9-0.7-4-0.9-4-3.6s1.6-4,3.9-4.5l20-3.9c5.9-1.2,12.1-1.8,17.1-5.8c1.8-1.4,4.1-1.1,6.3-1.1c5.7,0,11.3-0.4,17,0.8v-24
		C625.4,414.2,610.2,412.2,594.9,411z M529.5,585c-6.4,2.6-12.9,9.3-17.5-1.7C523.4,576.8,523.8,576.8,529.5,585z"/>
	<path fill="#0E5673" d="M6,273.4c0.1-3,1.5-3.8,3.9-4.3c5.6-1.3,10.5-3.4,13.3-9.3c1.9-4.2,7.5-4.8,10.1-8.4
		c5.8,3.1,12,1.2,14.7-4.4c1.9-3.9,4.5-6.4,8.9-7.2c2.2-0.4,4-3,5.3-3.5c4-1.4,6-5.3,10.3-6.6c6.9-2,13.5-5,20.5-6.8
		c1.8-0.5,2.6-2.5,3.7-3.9c1.1-1.4,3.4-3.4,6-2.8c2.6,0.6,5.2-0.5,7.9-1.4c2.7-0.9,7.5-1.2,8.4-6.4c0.2-1.3,4.2-2.1,6.5-2.8
		s4.8-1.1,6-3.1c2.1,0.2,2.7,1.7,4.1,2.6c2.4-3.1,6.7-2.1,9.5-4.5c2.8-2.4,4.1-1.8,6.5-0.8c6.7,2.8,8.6,2,11.9-4.3
		c2-3.8,5.3-2.4,8.3-1.7s6.3,2.1,9.5,1.9c0.9-3-2.2-4.2-1.7-6.7s4.6-0.1,6.4-3c1,3.9,3.1,4.6,5.9,4h0.5c9.5,3.9,18.8-3,28.3-0.8
		c2.5,0.6,5.2-0.6,6.3-3c1-1.7,2.7-2.6,4.1-1c4.7,5.3,10.4,4.4,16.1,2.9c3.4-0.9,6.2-1.1,7.5,2.7c8.5-5.1,16.8-7.7,25.4-2
		c2-0.4,1.7-1.9,2.2-2.8c0.5-1.1,1.7-1.8,2.9-1.5c1.5,0.3,1.7,1.5,1.4,2.7c-0.8,3.2,1.5,5.5,2.3,8.8c7.9-4.1,16.4-0.4,24.1-3
		c1.4,1.5-0.7,3,0.2,4.1c3.8,2.9,8.5-2.8,11.9,1.8c-0.3,2-2.1,1.9-3.3,2.6c-1.2,0.7-1.8,1.1-1.3,2.3s1.5,1.1,2.5,0.8
		c6.3-2,12.5-0.7,18.6,0.7c1.3,0.3,0.9-1.1,1.6-1.6c1.3,1.1-0.2,3.4,1.7,4.2c7.7-3.7,7.7-3.7,13.9,3.9c1-4.7,0.1-9.6,4.6-13.1
		c4,2.2,8.6-1.2,13.5,0.3c2.7,0.8,4,1.8,3.8,4.7c-0.2,2.9-0.2,6.6,4.7,7c3.2,0.3,2.7,5.3,6,6.1c2-0.8,0.2-2.4,1.1-3.8l5.1,0.4
		c0.3,0.1,0.7,0.3,1,0.5c-0.2-0.3-0.5-0.6-0.7-1c0-3.2,4.7-3,4.7-6.5c0-0.9,2.6,0.3,3.6,1.4c1,1.1,2.1,2.3,0.7,3.9
		c-1.4,1.6-3.8,1.5-2.2,4.1c0.5,0.9,1.7,1.2,2.6,0.7c0,0,0.1,0,0.1-0.1c2-1.1,3.4-2.6,3.5-5.1c0.1-2.5-1-2.9,0.1-4.8
		c4.3-0.2,6.8,2.5,7.5,6.1c0.7,3.6,2.4,4.9,5.5,5.3c-0.3,0.7-0.5,1.7-1.1,2.2c-6.1,4.9-6.1,5.3-2,12.3c6.8-1.3,13.3-3.2,18.7-7.8
		c1.3-1.1,2.9-0.5,4.1,0.5s0.8,2.3,0.4,3.6c-0.4,1.3-2.8,3.7-2.7,6.2c7.2-0.6,8.5,0.7,8.1,8.5c2.5,0.2,4.8-1.5,5.4-4
		c0.4-1.3,0.7-2.6,1.2-3.8c0.2-0.9,1-1.4,1.9-1.2c0.4,0.1,0.7,0.3,0.9,0.5c1.1,0.9,1.3,1.9,0,2.9s-2,0.6-2.1,2.4
		c3.4,3.1,5.8,7.8,11.2,8.9c2.8-3.7,6.4-2.9,9.1,2c6.3,1,3.9-5.2,5.9-7.6c3.2,0.5,1.1,4.3,4,5.1c2.9,0.8,3.8-2.8,4.7-5.4
		c0.3-0.8,0.1-1.7,0.4-2.4c1.5-3.1,0.3-8.2,5.8-8.7s10.6,1.5,13,7.4c3-1.9,6.1-4.6,8.9,0.8c1.2-3.5,2.8-5.8,6.3-2.3
		c1.3-3.4,1.4-5.5-2.3-6c-1-0.2-1.8-1.1-1.8-2.1c0,0,0.1,0,0.1,0c0.1-1.8-0.9-3-2-4.3c-6.4-7.3-14.8-13-18.7-22.4
		c-0.1-0.3-0.3-0.6-0.6-0.8c-2.8-2.6-5.5-5.2-10-2.7c-2,1.1-4.6,0.9-6.4-0.5c2.1-2.5,5.4-3.1,6.9-5.8c0.5-1,0.9-1.9,0.2-2.8
		c-0.4-0.4-1-0.7-1.6-0.8c-3.2,4-5.5-0.6-8.7-0.8c-3.2-0.2-5-2.1-3-5.5c0.9-1.5,1.3-3.1-0.3-4.5c-3.4,0.6-7.3,0.2-8.5,4.9
		c-0.8,3.1,1.9,3.8,3.3,5.3c-0.8,1.6-1.3,3.7-3.3,1.9c-2-1.8-5.4-3.7-2.7-7.3c2.7-3.6,1.7-6.4,0.5-10c-1.8-5.3-2.8-5.9-7.2-2
		c-1.4,1.3-2.4,3.3-4.7,1.5c-2.3-1.8-4.3-1.3-6.9-0.5c-4.7,1.5-7.8-1.3-7.5-6.1c0.2-1.8,0.1-3.6-1.8-4.2c-5-1.5-4.8-4.2-1.4-7.6
		c-1.8-0.5-3.5-0.5-4.3-1.3c-3.1-3.1-5.4-2.1-8,0.6c-1.4,1.7-3.9,2.2-5.9,1.1c-4.6-2-7-0.9-9.4,3.9c0,0,0,0,0,0l0.1,0.2l-0.1-0.2
		c-2.3,0.2-3.8-0.7-4.6-2.9c-0.8-2.2-2-4.2-4.6-4.6c-1.7,2.4,1.4,4.9-0.5,7.4c-1.7-2-1.9-4.1-3-6.4c-1.1-2.3,2-5-1.2-7.2
		c-1.8,3.6-4.5,4.5-8,1.9c-0.9,1.4-1.7,2.8-2.4,4.2c-1.2,3-3.4,4.1-6.4,3.3c-9.2-2.4-19.4-2.1-26.5-10.2c-0.5-0.6-2.1-0.4-2.7-1.4
		c-0.6-1,2.9-2.5,0.9-3.6c-2-1.1-3.6,2.8-5.4,0.7c-1.8-2.1-0.8-5.6-3-8c-3.1,2.1-5.5,6.4-8.9,5.7s-7.3-0.5-10.2-2.1
		c-6.5-3.5-12.6-0.8-18.7,0.3c-4.1,0.7-7.5,1.2-10.5-2c-0.2-0.2,0.2-1-0.9-0.1c-1.1,0.9,0.1,2.8-2.1,3.4c-2.3-5.8-6.9,2.9-10-1
		c0.8-2.4,4.2-2.9,2.8-5.8c-0.6-1.3-1.6-1.4-2.9-1.3c-4.2,0.3-2.1,4-3.2,6.4c-6.9-5.2-8.8,1.7-11.7,4.9c-4.9-2.1-3-8.5-8-11.1
		c1.6,6.7,1.2,7.3-5.1,8.2c-11.2,1.6-12.5,0.5-10.9-9.4c0.1-0.3,0-1.1-0.5-0.9s-1,0.3-1.3,0.6c-0.6,0.6-1,1.3-1.4,2
		c-3.6,6.8-7.5,8.8-14.9,7.4c-1.5-0.3-2-1.1-4.4-0.3c-2.4,0.8-3.6,0.9-5.2-2.2s-4.3-2.2-5.4,0.3c-1.1,2.5-2.5,3.3-4.6,2
		c-3.9-2.4-6.9,0.8-8.5,2.5c-1.6,1.7-2.8,3.7-5,4.8c-2.2,1.1-5,3.3-6.9,1.4c-2.3-2.3-3.9-5.2-4.7-8.4c-0.6-2.3,3.1-2.2,5-4
		c-4.4-1.4-7.4,0.6-11,1.9c2,2.9,6,3,5,8.3s-5.5,2.7-8,3.9c-0.9,2.2,1.9,3.5,0.5,5.7c-5.3,2.5-11.6-2.5-17.1,2.6
		c-0.8-4.6-3.9-5.5-7.6-6.5c0.7,2.7,2.3,5.4-1.2,6.9c-1.8,0,0.2-4-2.9-2.7c-3.1,1.3-2.6,4.9-4.4,6.9c-3.2,0.3-6-3.7-7.8-3
		c-1.8,0.7-0.6,3-2.6,3.9c-3.1-1.7-7,1.6-10.6-1.1c-1-0.7-2.2,0.4-2.8,1.5c-1.9,3.3-4.6,4.6-8,3.5c-1.6,1.3-0.9,4.4-2.8,4.3
		c-1.9-0.1-3.5-2.5-5.9-0.9C91.3,173,88.2,181,79.8,182c-0.4,0.2-0.8,0.4-1.1,0.6c-1.9-2.8-4.1-2.8-6.4-0.2c-0.9,1-2.1,1.7-3.5,1.9
		c-2.3,0.3-3.9,2.3-3.7,4.6c0,3.6-2.8,4.5-5.2,4.3c-2.4-0.2-4.3,0.3-7-0.4c-2.7-0.7-3.5-1.1-5.7,2.2c-2.2,3.3-5.1,6.2-9.7,6.2
		c-0.9,0-2.3,0.4-2.7,1c-2.3,4.2-5.8,4.3-10.2,3c-0.9,3.4-2.6,5.8-6.2,6.5c-1.1,0.4-1.9,1.3-2.3,2.4c-2.3,6.1-6.1,9.3-13,7.5
		c-0.5-0.1-1.2,0.3-1.9,0.4v57C4.1,278.3,5.9,276.4,6,273.4z M424,218.1c0-1.5,0.1-2.9,2.2-3.6C427.2,217,425.9,217.7,424,218.1z"/>
	<path fill="#0A6F93" d="M5,349c0-2.2,0-4.2,0-6.4c0-2.2-0.3-2.4,0.3-2.9c3-2.9,6.7-5.3,5.5-10.6c-0.2-1,2.5-1,4-0.5
		c4.1,1.2,6.4,0.2,6.4-4.6c0-2.5,0.8-4.5,4.1-4.3c5.4,0.3,9.1-2.3,10.3-7.8c1.2-5.5,4.9-8.9,10.6-9.8c1.3-0.1,2.5-0.8,3.2-2
		c0.5-1,1.5-2.3,2.3-2.4c4.1-0.4,6.9-1.7,7-6.5c0-1,1.5-1,2.8-0.5c0.4,2.9-2.7,5.6-0.5,8.8c2.7-0.5,4.7-2.7,4.8-5.4
		c0.6-8.2,7-11.2,13-13.4c6-2.2,7.2-2.9,5.7-8.1c-0.1-0.3,0.5-0.7,0.9-1.4c2.5,1.6,1.6,3.8,1.4,5.8c-0.2,2-0.8,2.7,0.8,3.5
		c1.6,0.8,2.5-0.3,3.5-1.1c3.8-2.8,8.1-4.9,8.3-10.9c0.1-3.3,3.3-2.4,5.6-1.7c4.3,1.5,7.6,0.8,9.2-4.2c2.1,0,4.7,1.8,5.8-1.5
		c0.4-1.1,2-1.4,3.1-1.1c6.5,1.7,12.3-2.3,18.5-2.3c3.1,0,2.2-3.5,4.4-4c3.4,4.7,3.4,4.7,8.7-0.3c2.6,3.2,5.3,6.3,7.7-0.2
		c0.5-1.4,2.2-0.6,2.9-1.1c4.9-2.9,10.4-1.1,15.4-2.4c3.5-0.9,7.1-1.6,10.3-0.4c5.6,2,11,0.4,16.4,0c2.6-0.2,5.5-0.8,7.9-0.1
		c4.3,1.2,8.6,0.3,11.2-2.4c4.6-4.6,9.7-3.4,14.7-2.7s10.6,2.2,15.4,5.3c4.8,3.1,8.2,1.8,10.3-3c1.4-3.3,4.4-3.3,7-3.9
		c2.6-0.6,3.4,1.6,4.3,3.3c3.5,6.1,3.5,6.1,9.5,1.5c2.1,3.4,6.3,2,9.2,3.9c2.9,1.9,2.4-0.5,3-1.7c0.6-1.2,1.6-3.6,2.5-5.8
		c6.5,3.1,8.5-4.1,13-5.9c1.4-0.6,2.4-2.3,3.6-3.4c1.5-1.5,3.8-1.8,5.6-0.8c1.9,1.2,1.4,3.3,0.7,5c-0.7,1.7-2.1,5.1,1.8,6.2
		c0.4-0.2,0.8-0.2,1-0.4c3.4-5.4,3.6-5.4,8-0.6c2.6,2.6,3,6.9,6.9,8.3c0,0,0.1-0.1,0.1-0.1c1.4-1.4,3.6-2,5.7-2
		c2.1,0,3.3-0.7,3.1-2.9c-0.2-2.2-1.6-3-3.8-2.4c-0.8,0.2-1.7,0.3-2.5,0.2c-1.8-0.1-4,1.8-5.3-0.9c-1.3-2.7,0-2.8,2.6-5.9
		c2.8,5.8,8.8-0.3,12.3,3.5c-1.6,6.2-1.3,6.4,4.6,5c-0.1-7.8,1.2-15.5,3.5-24.7c2.5,6.8,6.6,5.9,10.8,4.7c1.5,1.4,0.9,3.1,0.6,4.6
		s-0.9,3,0.7,4c1.6,1,2.8-0.2,4-1c1.2-0.8,4.1-2.3,5.9-3.6s4.9-1.1,5.5,2.3c0.4,1.9-0.1,4.1,3.5,4.8c0.2-6.5-0.6-13.6,7-16.8
		c0.1-2.8-1.3-4.9-2.7-7c-0.3-0.2-0.6-0.3-1-0.5l-5.1-0.4c-0.9,1.4,0.9,3-1.1,3.8c-3.3-0.8-2.8-5.8-6-6.1c-4.9-0.4-4.9-4.1-4.7-7
		c0.2-2.9-1.1-3.9-3.8-4.7c-4.9-1.5-9.5,1.9-13.5-0.3c-4.5,3.5-3.6,8.4-4.6,13.1c-6.2-7.6-6.2-7.6-13.9-3.9
		c-1.9-0.8-0.4-3.1-1.7-4.2c-0.7,0.5-0.3,1.9-1.6,1.6c-6.1-1.4-12.3-2.7-18.6-0.7c-1,0.3-2,0.4-2.5-0.8s0.1-1.6,1.3-2.3
		c1.2-0.7,3-0.6,3.3-2.6c-3.4-4.6-8.1,1.1-11.9-1.8c-0.9-1.1,1.2-2.6-0.2-4.1c-7.7,2.6-16.2-1.1-24.1,3c-0.8-3.3-3.1-5.6-2.3-8.8
		c0.3-1.2,0.1-2.4-1.4-2.7c-1.2-0.3-2.4,0.4-2.9,1.5c-0.5,0.9-0.2,2.4-2.2,2.8c-8.6-5.7-16.9-3.1-25.4,2c-1.3-3.8-4.1-3.6-7.5-2.7
		c-5.7,1.5-11.4,2.4-16.1-2.9c-1.4-1.6-3.1-0.7-4.1,1c-1.1,2.4-3.8,3.6-6.3,3c-9.5-2.2-18.8,4.7-28.3,0.8h-0.5
		c-2.8,0.6-4.9-0.1-5.9-4c-1.8,2.9-5.9,0.5-6.4,3s2.6,3.7,1.7,6.7c-3.2,0.2-6.5-1.2-9.5-1.9s-6.3-2.1-8.3,1.7
		c-3.3,6.3-5.2,7.1-11.9,4.3c-2.4-1-3.7-1.6-6.5,0.8c-2.8,2.4-7.1,1.4-9.5,4.5c-1.4-0.9-2-2.4-4.1-2.6c-1.2,2-3.7,2.4-6,3.1
		s-6.3,1.5-6.5,2.8c-0.9,5.2-5.7,5.5-8.4,6.4c-2.7,0.9-5.3,2-7.9,1.4c-2.6-0.6-4.9,1.4-6,2.8c-1.1,1.4-1.9,3.4-3.7,3.9
		c-7,1.8-13.6,4.8-20.5,6.8c-4.3,1.3-6.3,5.2-10.3,6.6c-1.3,0.5-3.1,3.1-5.3,3.5c-4.4,0.8-7,3.3-8.9,7.2c-2.7,5.6-8.9,7.5-14.7,4.4
		c-2.6,3.6-8.2,4.2-10.1,8.4c-2.8,5.9-7.7,8-13.3,9.3c-2.4,0.5-3.8,1.3-3.9,4.3s-1.9,4.9-4.8,5.6v0.2V349H5z"/>
	<path fill="#8A4423" d="M4.5,542.3c14,2.2,28.1,3.4,42.1,5.1c10.2,1.3,20.6,1,30.7,2.9c11.4,2.1,23.1,2.9,34.7,2.3
		c8-0.5,16,0.5,23.7,2.8c1.9,0.6,3.2,2,5.8,0.2s4.9-0.7,7.1,0.2c1.7,0.7,3.5,1.2,5.3,1.3L214,561c3.9,0.3,5.3-1.4,4.7-5
		c-0.3-1.6-0.8-3.2-1.6-4.7c-4.1-8.4-2.6-8.9,4.2-10.9c6.8-2,9.6-4.5,12.2-10.7c1.7-4.1,1.7-5.2-1.8-7.1c-5.8-3.1-6.2-7.8-1.1-12.1
		c1.6-1.4,3.5-2.4,4.6-4.5c1.1-2.1,1.8-4.5-2.1-3.5c-3.9,1-6.7-0.4-9.7-2.4c-1.3-0.8-2.9-1-4.3-0.3c-5.4,2.4-10.7,1.7-16.1,0.1
		c-2.9-0.8-5.7-2.9-9,0.1s-7,2.5-10.8,1.8c-4.6-0.9-9.3-0.9-13.9-0.1c-2.6,0.4-5.3,0.4-7.9-0.1c-10.7-1.7-21-5.4-32-4.6
		c-3.9,0.3-6.9-2-9.2-5.2s-1.4-5.8,2.5-6.6c1.7-0.4,3.8,0,4.4-2.4c-4.8-1.5-10,1.3-14.8-0.6c0.1,0,0.1-0.1,0.2-0.1
		c-0.1,0-0.3,0-0.4,0c-3.1,1.1-6.6,1.3-9.8,0.5c-2-0.4-4-0.5-6-0.4c-22.3,0.6-44.5-1.7-66.8-1.2c-1.3,0-2.7,0.4-4-1.1
		c0.9-4.2,4-5.4,7.7-4.7c7.7,1.5,15.6,0.9,23.1,3c3,0.8,3.4-1.2,3.3-3.4c-0.4-6.8-5.4-11.4-12.4-11.7l-2.9-0.4
		c-0.2,0-0.4-0.5-0.8-0.9c-0.4-0.4,0.6-1.1,1.1-1.4s2.7-1.6,1.9-3.5c-0.8-1.9-2.2-2-3.7-1.8c-5,0.5-9.5-1.5-14.1-2.7
		c-2.3-0.4-4.5-1.6-6.1-3.3c-2.1-2.5-4.5-3.8-7.9-2.6c-0.7,0.3-2.2,0.1-2.3-0.2c-1.9-5.8-7.4-3.7-11.2-5.2v0c-0.1,0-0.1,0.1-0.2,0.1
		v101c0.1,0,0.1,0,0.2,0C2.3,542.2,3.4,542.2,4.5,542.3z"/>
	<path fill="#F8B87B" d="M68.5,423c11.9,0.1,23.7-3.3,35.7-2.1c2.1,0.2,4.3,0.3,6.4,0.7c2.1,0.4,4.5,0.3,4.2,3.1
		c-0.3,2.8-2.1,3.7-4.4,4.2c-2.3,0.5-3.5-0.3-4.2,1.9c0,0.1-0.1,0.2-0.1,0.2c0,0,0.1,0,0.1,0c3.6,0.2,6.9-1.2,10.3-1.9
		c22.4-4.8,44.9-9.2,67-15.8c19.6-5.9,39.3-11.7,59.4-15.4c5.2-1,10.4-2.6,15.6-0.7c2.2-0.7,1.9-3.3,3.9-3.9c-0.1,0-0.1-0.1-0.2-0.1
		l-0.5-1.9c0,0,0,0,0,0c-0.3-0.8-0.6-1.6-0.7-2.4c-0.1-9.9-6.7-12.7-14.2-11.5s-15.3,0.7-22.9,0.8c-10.3,0.2-20.5,1.1-30.7,2.7
		c-1.8,0.3-3.7,0.4-5.5,0.3c-18.1-1.4-36,1.8-54.1,2.1c-1,0.1-2,0.3-2.9,0.6c-7.4,2-7.4,2-8.8-5.6c-12.7-0.3-25.4,1.1-38.1,1.7
		c-4.7,0.2-9.6-0.9-14.3-1.8c-1.7-0.5-3.5-0.8-5.3-0.8l-0.1,0c-3.8,3.1-8.6,3.6-13.2,4.6c-7.9,1.8-15.8,3.4-23.8,5.1
		c-0.1,0-0.2,0.1-0.2,0.1c0.1,0,0.3,0,0.4,0.1c-2.8,3.3-6.1,6.2-9.7,8.6c-2.2,1.4-4.1,2.8-4.8,5.3h25c-0.8,4.8-4.1,5.4-6.7,6.5
		c-9.5,4-19.6,4.7-29.8,4.2v-0.1c0,0-0.1,0.1-0.1,0.1v11.2c0,0,0.1,0.1,0.1,0.1v-0.1C23.7,423.1,46.1,422.9,68.5,423z"/>
	<path fill="#1A91B0" d="M18,352.1C18,352.1,18,352.1,18,352.1c5.3-3.7,10.8-6.6,17.5-6.1c2,0.1,4-0.3,5.8-1.1
		c5.7-2.3,11.3-4.7,17.8-4c1.5,0.2,3-0.3,4.2-1.2c3.1-3,6.9-2.7,10.7-2.7l0,0c0.7-6.4,4.5-8.5,10.6-7.8c6.1,0.7,10.7,2,15.1-3.2
		c1.5-1.7,4.2-2.2,7.1-2.5c8.1-0.7,15.8-3.4,23.6-5.8c5.6-1.8,11-4.4,17.2-3c2.6,0.6,4.1-1.1,5.3-3c1.2-1.9,4.5-4.3,8.1-3.2
		c1.1,0.4,2.5,0.8,3.3-0.1c4.4-5.2,8.9-2.8,13.5-0.5l1.4,0.5h1.2c1-3.1-2.1-6.8,1-9.6c0.4,0,1-0.2,1.1,0c3.5,5.2,8.7,4.2,13.4,3.2
		c4.7-1,13,0.7,18.5-4.2c1.8-1.5,4.9-1,7.3-0.2c4.4,1.5,8.8,3.3,9.4-4.3c5.6,5.5,8.8,5.2,12.3-0.4c1-1.5,2.3-1.6,3.8-1.8
		c3.7-0.6,7.6-0.9,10.7-3.8c1.2,3.4-1.6,6.1-0.5,9c2.3,0.7,3.6-0.8,4.8-2c5-4.8,10.6-6.8,17.7-5.9c3.8,0.6,7.7,0.2,11.3-1
		c2.2-0.8,4.3-1.7,4.7-4.5s2.7-3.5,4.6-1.7c1.9,1.8,4.5,1.7,6.1-1.6c3.3,2.2,5.8,1.2,8-1.6c2.2-2.8,3.1-2,4.1-0.2
		c1,1.8,7.9,0.8,7.3,6.1c0.1,0,0.2,0.1,0.3,0.1c3.4-1.1,6.9-2.1,10.3-3.3c1.6-0.5,3.4-0.1,4.6,1.1c2.8,2.3,5.5,3,7.8-0.1
		c2.3,0.2,2,2.5,3.1,2.9c12.6-4.4,25.2-3.7,38-2.4c0,0,0,0,0-0.1c8.7-0.6,10.8-2.3,11-8.9c0,0-0.1,0-0.1,0
		c-3.9-0.4-7.6-0.2-10.6,2.9c-1.2,1.2-3.2,1.2-3.9-0.3c-1.7-3.4-5.4-4-7.9-6.5s-5.9-1.3-8.5,0.8c-4.8,3.6-9.1,5.1-14.6,0.5
		c-2.1-1.8-6.7-0.6-5.9-5.6c1.7-1.7,3.5,0.1,5.2-0.2c2-0.2,3.8-1.4,4.8-3.2c0.6-0.9,0.3-2.1-0.6-2.7c-1.8-1.4-3.3-0.4-4.9,0.6
		c-4.2,2.5-11.2,1-13-2.5c0,0,0,0,0,0c0,0-0.1,0.1-0.1,0.1c-1-0.4-1.7-1.7-3.1-1.3c-1.4,0.4,1.4,4.6-1,6.5c-2.4,1.9-1.8-2.2-3.9-1.7
		c-2.1,0.5-3.6,4.1-4.6,6.8c-1.9,0.2-2-1.2-2.5-2.2s-1.3-2-2.7-1.7c-1.3,0.2-2.2,1.3-2,2.6c0,0.1,0.1,0.3,0.1,0.4
		c0.9,3.3-0.9,4.9-3.5,5.4c-2.6,0.5-4.4-1.7-4.7-4.5c-0.1-0.7-0.2-1.3-1.2-1.5c-3,1-0.7,3.7-1.6,5.6c-2.4,1.1-5.2,1.3-7.7,0.5
		c-4.7-1.4-8,0.6-11.5,3c-0.5,0.4-1,1.2-1.5,1.2c-3.3-0.1-5.3-3.8-9.1-3.1c-3.8,0.7-5.9-1.3-5.6-5.4c-4.5,0.8-0.8,4.5-3.4,5.9
		c-0.3,0-1.1,0.1-1.4-0.3c-4-4.1-7.7-5.8-11.3,0.5c-1.1,2-3.5,1.2-5,0.4c-4.9-2.8-8.3-0.2-11,3.1c-2.7,3.3-4.2,2.7-6.9,0.4
		c-2.7-2.3-3.4-3.1-5.9-3c-0.6,2.1,1.6,2.7,1.6,4.2c-5.2,3.8-6.3,3.7-10.1-0.6c-1.7-1.9-3.6-2.4-5.7-0.7c-2.1,1.7-0.8,3.9,0.9,6.2
		c-7.2-3.4-12.1,0.7-17.7,3.8c-2.7,1.5-6.9,2.7-10.5,0.5c-1.3-0.7-2.9-0.8-4.3-0.3c-5.1,1.4-10.2,3.1-15.6,0.9
		c-0.8-0.2-1.7-0.1-2.4,0.3c-6.6,4-15,5.4-19.7,12.5c-0.6,0.8-1.4,1.5-2.2,2c-0.2,0.2-0.6,0.1-1,0.2c-0.4,0.1-0.2-3.7-2.1-4.8
		c-1.9-1.1-2.4,0.6-2.8,1.9c-1,3.8-3.5,5-7.1,4.6c-7-0.8-12.8,2-18.3,5.8c-1.2,0.8-2.4,1.4-3.7,0.9c-4.1-1.6-6.6,0-8.5,3.6
		c-1.9,3.6-4.8,4.2-8.1,3.6c-5.2-1.1-9.8,1.3-14.6,2.2c-2,0.4-2.5,1.8-2.7,3.7c-0.4,4.2-3.3,4.7-6.7,4.8c-6.7,0.3-13.3,1.4-18.9,5.5
		c-1.1,0.8-2.1,1.8-3.5,1.7c-12-0.8-22.1,6.1-33.3,8.4c-2.9,0.6-5.6,1.8-8,3.5c0,0,0-0.1,0-0.1H1.2l-0.3,4.7
		c0.3,0.1,0.5,0.2,0.8,0.3L18,352.1z"/>
	<path fill="#7EA1B1" d="M10.5,369.1c6.5,0,12.4-1.6,17.5-5.8c1.6-1.3,3.4-1.1,5.2-1.2c9-0.1,17.7-1.1,26-5.4
		c4.5-2.3,9.6-3.3,14.8-3.8s13.5-0.9,20-2.7c0,0,0,0.1,0,0.1c0,0,0.1-0.1,0.1-0.1c13.1-0.2,26-2.8,39-4.3
		c11.1-1.3,22.1-3.9,33.5-4.2c11.4-0.3,24.1-1.7,35.3-6.9c1.2-0.5,2.6-0.7,3.9-0.7c18.7-0.6,37.2-2,55-8.2c1.4-0.5,3-0.3,4.2,0.6
		c2.2,1.5,5.1,1.8,7.6,0.6c8.1-3.8,16.9-4.7,25.6-5.9c0,0,0.1,0.1,0.1,0.1c10.5-0.9,21.1,0.2,31.2-4.5c5.3-2.5,11.7-2.5,17.6-2.5
		c7.8,0,15.6,0,23.4-1.1c3.8-0.5,7.5-1.7,10.8-3.6c2.3-1.3,4.5-0.8,7.1-0.6c4.9,0.4,10.4,2,14.6-2.3c2.1-2.2,4.5-2.6,7.3-2.4
		c4,0.3,8-0.6,11.4-2.7c8.5-4.7,18-3.7,27.2-4.3c0.1,0,0.1,0,0.2,0c-0.1-0.1-0.2-0.1-0.3-0.2c0.2-3.5-1.9-4.6-4.8-3.7
		c-2.9,0.9-5.4,0-6.9-2.7c-0.6,0.1-1.1,0.1-1.2,0.2c-3.4,5.2-6.2,2.1-8.9-0.6c-1.9,1.2-3.9,2.3-6,3.3c-1.9,0.8-3.9,1.2-5-1.5
		c-1.1-2.7-2.5-2.1-4.2-0.4c-5.1,5.2-9.1,4.9-14.1-1.3c-3.9,9.7-13.1,6.9-20.3,8.5c-3.4,0.7-6.4,1.4-8.7,4.1
		c-4,4.7-8.9,4.4-14.5,3.3c-10.4-2-21-2.9-30.3,4.4c-0.8,0.6-1.8,1.4-2.6,1.2c-6.3-0.9-12.8-0.3-19,0s-11.5-4.8-17,0.4
		c-1.5,1.4-3.3,0.2-5-0.2c0,0,0,0,0,0l-1.9,0.2c-0.2,0.1-0.3,0.3-0.5,0.4c-0.6,2.9-2,4.4-5.7,3.7c-5.3-0.7-10.6-0.4-15.8,0.9
		c-12.3,2.9-24.6,5.5-37.4,3.9c-3-0.3-6,0.5-8.5,2.1c-4.6,2.7-9.7,4-15,5.1c-5.3,1.1-8.7,2.8-13.1,4.1c-6,1.7-11.9,4.7-18.4,2.1
		c-10.6,4.1-22.7-0.7-32.5,3.2c-12.8,5.1-26.4,3-38.8,7.8c-1.8,0.7-3.9,1-5.7-0.5h-4c0,0-0.1,0-0.1,0c-3.3,3.3-7.1,2.3-10.9,1h-3
		c-8.8,0.6-16.7,4.7-25,7.1c-6.8,2-13.5,4.5-20.2,6.8c-0.8,0.3-1.7,1.1-2.2,0.9c-7.2-2.4-13.6,2.2-20.4,2.2v7
		C4.2,369.1,7.4,369.1,10.5,369.1z"/>
	<path fill="#BE6129" d="M12.4,446.3c0.1,0.3,1.6,0.5,2.3,0.2c3.4-1.2,5.8,0.1,7.9,2.6c1.6,1.7,3.8,2.9,6.1,3.3
		c4.6,1.2,9.1,3.2,14.1,2.7c1.5-0.2,2.9-0.1,3.7,1.8c0.8,1.9-1.4,3.2-1.9,3.5s-1.5,1-1.1,1.4c0.4,0.4,0.6,0.9,0.8,0.9l2.9,0.4
		c7,0.3,12,4.9,12.4,11.7c0.1,2.2-0.3,4.2-3.3,3.4c-7.5-2.1-15.4-1.5-23.1-3c-3.7-0.7-6.8,0.5-7.7,4.7c1.3,1.5,2.7,1.1,4,1.1
		c22.3-0.5,44.5,1.8,66.8,1.2c2-0.1,4,0,6,0.4c3.2,0.8,6.7,0.6,9.8-0.5c0.1,0,0.3,0,0.4,0c2.9-1.8,6.3-2.8,9.7-2.9
		c1.7,0,3.4-0.6,3.9-2.5c0.5-1.9-1-2.9-2.3-3.5c-7.9-3.3-14.7-9.4-24.4-8.2c-4.8,0.6-9.9-0.5-14.9-0.9c-1.4-0.1-2.6-0.4-3.2-2.2
		c4-3.1,8.8-3.4,13.5-3.6c10.6-0.5,21.3,0.6,31.9-1c4-0.6,8.2,1.1,12.3-0.1c0.9-0.3,2-0.2,2.6-2.4c-8.8-1.5-18.2,0.7-27.7-3.4
		c4.2-1.7,7.8-0.8,11.3-3.6c-9.5-1.6-18,1.7-26.5,0.3c-0.8,2.7,2.4,1.7,2.3,3.6c-0.3,0.1-0.8,0.5-1.2,0.4
		c-15.1-1.5-30.6,0.5-45.3-5.1c-1.9-0.6-3.6-1.7-5-3.1c-4.6-4.9-9.3-9.6-16.2-11.2c-0.5-0.1-0.8-1-1.2-1.5c0.1,0,0.1,0,0.2,0
		c-0.1,0-0.2-0.1-0.3-0.1c-10.2-0.2-20.5,0.1-30.7,0.9v0c0,0-0.1,0.1-0.1,0.1v9v0C5,442.6,10.5,440.5,12.4,446.3z"/>
	<path fill="#F9B149" d="M32,431.1c0.1,0,0.2,0.1,0.3,0.1c17.7-0.4,35.3,0.2,52.9,1.7c7,0.6,14.2,1.7,20.9-1.9
		c0-0.1,0.1-0.2,0.1-0.2c0.7-2.2,1.9-1.4,4.2-1.9c2.3-0.5,4.1-1.4,4.4-4.2c0.3-2.8-2.1-2.7-4.2-3.1c-2.1-0.4-4.3-0.5-6.4-0.7
		c-12-1.2-23.8,2.2-35.7,2.1c-22.4-0.1-44.8,0.1-67.2,0.1v0.1v8.8v0C11.5,431.2,21.8,430.9,32,431.1z"/>
	<path fill="#9B9CA8" d="M27,377c0,0,0.1-0.1,0.1-0.1c1.8-5.5,6-5.7,10.7-4.8c7.6,1.5,14-1.8,19.9-5.6c3.9-2.5,8.4-4,13-4.4
		l11.8-1.1c6.6-0.5,8.5-6.2,11.5-10.7c0,0,0-0.1,0-0.1c-6.5,1.8-14.8,2.2-20,2.7s-10.3,1.5-14.8,3.8c-8.3,4.3-17,5.3-26,5.4
		c-1.8,0.1-3.6-0.1-5.2,1.2c-5.1,4.2-11,5.8-17.5,5.8c-3.1,0-6.3,0-9.3,1l-0.1,9c0,0,0.1,0.1,0.1,0.1v-0.1
		C9.9,380,18.3,376.6,27,377z"/>
	<path fill="#B9A68D" d="M5.3,388.8c7.1-2.7,14.2-2.9,21.6-1.6c0.1,0,0.2-0.1,0.2-0.1c8-1.7,15.9-3.3,23.8-5.1
		c4.6-1,9.4-1.5,13.2-4.6l-14.9-0.2c-2,0-4.1,0.2-5.3-2c0.1,0,0.1-0.1,0.2-0.1l-17,1.9c0,0,0-0.1,0-0.1c0,0-0.1,0.1-0.1,0.1
		c-8.7-0.4-17.1,3-25.8,2.1v0.1v9.8c0,0,0.1,0.1,0.1,0.1v0C2.6,389,4.1,389.2,5.3,388.8z"/>
	<path fill="#6396AB" d="M21.6,360.9c0.5,0.2,1.4-0.6,2.2-0.9c6.7-2.3,13.4-4.8,20.2-6.8c8.3-2.4,16.2-6.5,25-7.1
		c-6.8-2.5-13.3-0.5-19.8,1.5c-2.1,0.6-4,1.7-6.2,1.5c-5.8-0.5-11.6,0.8-16.7,3.7c-2.6,1.4-5.8,3-8.3-0.7L1.7,354l-0.5,0.1v9
		C8,363.1,14.4,358.5,21.6,360.9z"/>
	<path fill="#D78454" d="M31.1,407.7c2.6-1.1,5.9-1.7,6.7-6.5h-25H1.3v10.6v0.1C11.5,412.4,21.6,411.7,31.1,407.7z"/>
	<path fill="#CAA37E" d="M12.8,401.2c0.7-2.5,2.6-3.9,4.8-5.3c3.6-2.4,6.9-5.3,9.7-8.6c-0.1,0-0.3,0-0.4-0.1
		c-7.4-1.3-14.5-1.2-21.6,1.6c-1.2,0.4-2.7,0.2-4,0.3v0v12.1H12.8z"/>
	<path fill="#8A4423" d="M625.8,472.4c-2.1,0-3.7,0.5-5.2-2.2c-1.5-2.7-3.8-3.1-6.4-2.8c-8.7,0.9-17.6,0.9-26.3,0
		c-10.7-1-21.5,1.3-32.3,0.9c-1.6-0.1-3.4-0.2-4,2.2c0.4,0.5,0.8,1,1.2,1.4c1.3,1,3.4,1.6,2.8,3.7c-0.6,2.1-3.8,3.2-4.6,3.4
		c-0.8,0.2-0.6-0.3-2.5,0.4s-4.8,0.7-5,3.2s2.5,3.6,4.4,4.1c8.6,2.4,17.3,4.5,24.8,9.9c1.1,0.5,2.3,0.7,3.4,0.4
		c12.2-2,21.4,7.3,33.5,8.3c0.2,0,0.3,0,0.5,0c-0.1,0.1-0.3,0.3-0.4,0.4c-2.7,2.2-6.1,0.2-7.1,3.4c4.6,2.4,5.3,2.7,6.1,6.1
		s2,4.2,5.5,2.7c6.4-2.7,10.5-0.1,10.7,6.5c0.1,3.8,1.6,5,5.3,4.8c3.4-0.2,6.8-0.4,9.8,1.4c0.3,0.2,0.6,0.3,0.8,0.5v-58.7H640H625.8
		z"/>
	<path fill="#FBA709" d="M632.9,385.1c-2.7-0.1-6.5,0.2-8.8,4s-6,4.2-9.8,4c-11.8-0.6-23,3.2-34.3,5.5c-4.7,1-10.3,1-14.1,3
		c-10.8,5.6-22.2,2.1-33,4.4c-7,1.5-13.7,4-21,3.4c-2.1-0.3-4.1,0.5-5.5,2.1c1.5,2.8,7.3,0.5,6.8,5.5c-0.1,0.1-0.2,0.1-0.3,0.2
		c0,0,0.1,0,0.1,0l15,0.8c6.8-1.6,13.9-1.5,20.6,0.2c3.9,1.1,7.1,0.9,10.4-1.1c9-5.5,19.4-8.2,29.9-8c11.3,0.1,22.7-0.9,33.8,1.4
		c6,1.2,11.9,2.9,18,1.6v0.2c0.1-0.1,0.1-0.1,0.2-0.2v-27C638.2,385.1,635.6,385.2,632.9,385.1z"/>
	<path fill="#D78454" d="M632.8,338.6c-1.2-1.4-3.3-1.9-5-1.1c-3,1.2-5.4,0-7.9-1.3c0,0-0.1,0-0.1-0.1c-4.2,1-8.2,2.7-12.8,2.1
		c-0.7,2.9,1.9,5.2,1.4,8.6l-23.4-1.7c0,0,0-0.1,0-0.1c0,0,0,0.1-0.1,0.1h-5c0,0-0.1,0.1-0.1,0.1c0.1,0,0.2,0,0.3,0
		c-0.1,6.2-5.8,8.9-8.9,13.1c-1.7,2.3-5.6,0.8-8.6,0.7c-1.7-0.2-3.5-0.4-5.2-0.8c0,0,0,0,0,0.1c-4.2,7.3-11.3,11.6-17.8,16
		c1,1.9,1.9,2,2.7,1.8c11.1-3.1,23.5-2.9,32.4-11.9c1.8-2,4.3-3.1,7-2.9c8.4,0.4,16.8,1.7,25,3.9c0,0,0.1-0.1,0.1-0.1
		c5.2-4.3,11.6-3.2,17.6-3.9c6-0.7,10.9-0.1,16.4-0.1v-20C637.8,341.3,635,341.1,632.8,338.6z"/>
	<path fill="#F2A027" d="M608.7,383.7c-7,3.9-14.5,6.5-22.7,6.4c-0.1-0.1-0.1-0.2-0.2-0.3c0,0.1,0,0.2,0,0.3l-31.5,4
		c-6.4,0.9-12.6,2.8-18.5,5.4c-7.1,3-14.8,4.4-22.5,5.6s-16.7,2.6-25.2,2.1c-2-0.1-4.7,0-4.8,2.4c-0.1,2.4,2.9,3,4.8,3.2
		c4.4,0.6,9,0,12.7,3.2c-0.4,0-0.7,0-1.1,0c0.4,0.1,0.8,0.2,1.3,0.2c3.9,1.5,7.9,1.1,11.9,1c0.1-0.1,0.2-0.1,0.3-0.2
		c0.5-5-5.3-2.7-6.8-5.5c1.4-1.6,3.4-2.4,5.5-2.1c7.3,0.6,14-1.9,21-3.4c10.8-2.3,22.2,1.2,33-4.4c3.8-2,9.4-2,14.1-3
		c11.3-2.3,22.5-6.1,34.3-5.5c3.8,0.2,7.5-0.2,9.8-4s6.1-4.1,8.8-4c2.7,0.1,5.3,0,8,0l0.2-11c-0.1-0.1-0.2-0.2-0.3-0.3v0.2
		C629.6,375.7,618.7,378.1,608.7,383.7z"/>
	<path fill="#8B635D" d="M629.4,302.1c-1.3,0.2-2.7,0.1-3.9-0.4c-5.6-3.1-11-3.5-17.6-2.4c-3.3,0.5-9.7,1.8-12.5-3.5
		c-1.9,0.4-1.6,2.8-4,3c-2.6-1.6-4.7-5.2-9.3-4.2c-1.8,0.4-2.4-1.9-0.9-3.6s2.7-0.4,3.4-2.3c-6-1.3-2.4-7.7-5.7-10.6l-3.8,5.1
		c-0.2,4.1-1.5,8.1-3.7,11.6c-3.7,5.8-5.5,12.2-4.3,19.2c0,0,0.1,0.1,0.1,0.1c3.7,3.1,8.3,3.9,12.8,5c3.8-4.7,8.9-6.2,14.7-6.3
		c0.8,0.1,1.6,0,2.4-0.2c7.3-3.2,15-0.3,22.5-1.3c2.8-0.4,4.8,0.9,5.4,3.8c0,0,0,0,0,0c5.3-0.4,10.5-1.5,15.8-1v0l0,0v-13
		L629.4,302.1z"/>
	<path fill="#8B635D" d="M580.1,319.1C580.1,319.1,580.1,319.1,580.1,319.1C580.1,319.1,580.1,319.1,580.1,319.1
		C580.1,319.1,580.1,319.1,580.1,319.1z"/>
	<path fill="#6D4E4F" d="M625.6,290.6c-5.4,0-12.5-1.4-16.1-4.8s-7.8-5.1-11.6-4.7c-3.8,0.4-4.5-1.6-3.2-5
		c2.2-5.6,0.3-11.1-4.9-14.9c-0.1,0-0.1-0.1-0.2-0.1c-3.2,4.2-4.5,9.7-9,13L579,278l-0.1,0.1c3.3,2.9-0.3,9.3,5.7,10.6
		c-0.7,1.9-1.9,0.6-3.4,2.3s-0.9,4,0.9,3.6c4.6-1,6.7,2.6,9.3,4.2c2.4-0.2,2.1-2.6,4-3c2.8,5.3,9.2,4,12.5,3.5
		c6.6-1.1,12-0.7,17.6,2.4c1.2,0.5,2.6,0.6,3.9,0.4l11.4-1l-0.2-8.7l0-0.3C635.7,290.2,631,290.6,625.6,290.6z"/>
	<path fill="#8A4423" d="M623.5,440.2c-2.2,0-4.5-0.3-6.3,1.1c-5,4-11.2,4.6-17.1,5.8l-20,3.9c-2.3,0.5-3.9,1.8-3.9,4.5
		s2.1,2.9,4,3.6c4.1,1.5,8.7,1.2,12.6-0.7c2.1-0.9,4.4-1.4,6.7-1.3c13.6,0,27.3-0.4,40.8,1.1c0.2,0,0.3,0,0.5,0l0.1-17.1
		c-0.1,0-0.3,0-0.4-0.1C634.8,439.8,629.2,440.2,623.5,440.2z"/>
	<path fill="#E98C3A" d="M624.4,361.2c-6,0.7-12.4-0.4-17.6,3.9c0,0-0.1,0.1-0.1,0.1c0.1,0,0.3,0.1,0.4,0.1c0,2.3-0.9,3.8-3.5,3.9
		c-2.7,0.1-5.2,1.6-6.6,3.9c-0.1,0.2-0.2,0.4-0.3,0.6c0.8,6-1.5,10.3-7.4,12.7c-1.6,0.7-3.2,1.4-3.5,3.4c0.1,0.1,0.1,0.2,0.2,0.3
		c8.2,0.1,15.7-2.5,22.7-6.4c10-5.6,20.9-8,32.1-9.7v-0.2v-12.7v0C635.3,361.1,630.4,360.5,624.4,361.2z"/>
	<path fill="#F2A027" d="M622.7,410.5c-11.1-2.3-22.5-1.3-33.8-1.4c-10.5-0.2-20.9,2.5-29.9,8c-3.3,2-6.5,2.2-10.4,1.1
		c-6.7-1.7-13.8-1.8-20.6-0.2l0.2,1c0,0,0,0,0,0l20.3,2.1c5.8,0.6,11.6-0.6,16.7-3.5c9-5.1,19.4-7.4,29.7-6.6
		c15.3,1.2,30.5,3.2,45.6,6.1c0.1,0,0.1,0,0.2,0v-4.8v-0.2C634.6,413.4,628.7,411.7,622.7,410.5z"/>
	<path fill="#B06F49" d="M635.8,328.3c-3.6-2.6-7.4-4.1-11.9-2.5c-1.6,0.6-3.3,0.4-3.9-1.6c0,0,0,0,0,0c-1.5,0.1-3,0.9-4,2
		c0,0,0,0,0,0c2,3,3.3,6.3,3.9,9.9c0,0-0.1,0-0.1,0c0,0,0.1,0,0.1,0.1c2.5,1.3,4.9,2.5,7.9,1.3c1.7-0.8,3.8-0.3,5,1.1
		c2.2,2.5,5,2.7,8,2.5l-0.1-11c0,0,0,0,0,0C638.9,330.1,637.2,329.4,635.8,328.3z"/>
	<path fill="#9C6546" d="M625,315.1C625,315.1,625,315.1,625,315.1C625,315.1,625,315.2,625,315.1c0.6,3.1-3.9,5.8-5,9.1
		c0.6,2,2.3,2.2,3.9,1.6c4.5-1.6,8.3-0.1,11.9,2.5c1.4,1.1,3.1,1.8,4.9,1.8c0,0,0.1,0,0.1,0l0-16v0
		C635.5,313.6,630.3,314.7,625,315.1z"/>
	<path fill="#325670" d="M478.9,257.5c2,1.8,3.2,2.1,4.7,0.3c4.3-4.7,8.5-1.2,10.4,1.5c3.1,4.6,7.2,3.4,10.9,4.4
		c1.6-2.4-1.4-2.4-1.4-4.1c3-4,7.1-3.6,11.4-2.6c0,0,0,0,0,0c1.2-4.1,2.9-7.9,2.2-12.3c7.2,0.5,11.1-5.3,16.6-7.6
		c0,0,0.1-0.1,0.1-0.1v-4c-3.3-3.4-7.4-3.3-11.7-3.1c0,0-0.1,0-0.1,0c0,1,0.8,1.9,1.8,2.1c3.7,0.5,3.6,2.6,2.3,6
		c-3.5-3.5-5.1-1.2-6.3,2.3c-2.8-5.4-5.9-2.7-8.9-0.8c-2.4-5.9-7.5-7.9-13-7.4s-4.3,5.6-5.8,8.7c-0.3,0.7-0.1,1.6-0.4,2.4
		c-0.9,2.6-1.8,6.2-4.7,5.4c-2.9-0.8-0.8-4.6-4-5.1c-2,2.4,0.4,8.6-5.9,7.6C477,253.4,476.9,255.7,478.9,257.5z"/>
	<path fill="#9B9CA8" d="M557.6,213.9c-2,2.8-4.2,5.5-4.7,9c0,0,0,0.1-0.1,0.1c0,0,0,0,0.1,0l0.3,4.2l0,0c5.2-0.3,6.9-4.5,9.3-8
		c1.2-1.7,1.3-4.2,4-4.6l0,0c2.5-2.4,2.8-6.6,6.5-8v0l0,0c0-6.9-0.6-13.9,5.1-19.3c0,0-0.1-0.1-0.1-0.1c-1.8-0.1-3.7-0.4-4.6,1.7
		c-0.9,2.1-2.7,1.4-4.4,1c0,0-0.1,0.1-0.1,0.1c-1.7,1.7-3.5,3.5-5.9,4.2l0,0.1l0.5,4.8c0,0,0,0.1-0.1,0.1
		C565.1,205.6,560.7,209.5,557.6,213.9z"/>
	<path fill="#5F5E66" d="M546,229.1c2-2.4,3.3-5.5,6.8-6.1c0,0,0-0.1,0.1-0.1c0.5-3.5,2.7-6.2,4.7-9c3.1-4.4,7.5-8.3,5.8-14.7
		c0,0,0-0.1,0-0.1c-0.8,0.3-1.8,0.3-2.2,0.9c-3.9,4.7-10.1,7.5-11.6,14.2c-0.5,2-1.8,3.6-3.5,4.7c-3.6,2.4-5.9,5.3-4.4,9.9
		c0,0,0,0,0,0L546,229.1z"/>
	<path fill="#636E7F" d="M533.8,237c0,0-0.1,0.1-0.1,0.1c0,0,0.1,0,0.1,0c0.1,5.7-2.9,9.6-7.5,12.3c-3.5,2-6.4,5-8.2,8.6
		c1.6,0.1,2.8,1.4,2.8,3c0,0.1-0.1,0.1-0.1,0.2l0.2-0.1c1,0,2.4,0,2.6-1c1.8-9.3,11.4-12.5,15.6-20.1c2-3.8,4.3-7.4,6.8-10.9
		l-4.3-0.3l-0.1,0c-3.6-0.5-5.1,3-7.8,4.1v0.1V237z"/>
	<path fill="#F2ECEA" d="M576.8,275.3c-3.9,7.2-11.8,9.8-17.5,14.9c-1.8,1.6-3.7,2.1-6.2,4c-2.5,1.9-4.7-1-5.2-2.4
		c-0.5-1.4,1-2.9-0.3-4.3c-2.8-0.6-3.5,1.1-3.6,3.4c-0.3,4.8-2.6,6.6-7.4,5.9s-10.5-3.3-13.2,4.4c-0.8,2.5-8.3,2.6-10.1,0.6
		c4.1-1.3,5.9-3.8,4.8-8.2l-5.1,0.6h0c-3.8,1.5-7.3,3.3-9.6,6.7c1.2,0.9,3.6,0.6,3.5,2.8c-0.1,2.2-1.9,2.9-3.6,3.8
		c-3.4,1.7-7.3,0.3-10.7,1.6c-12.6,4.6-24.8,10.2-36.5,16.7c-17.6,10-36.1,17.2-56.7,18.5c-7.9,0.5-15.9,0.2-23.8,1.5
		c-5.1,0.8-10.3,0.7-15.4-0.4c-2.1-0.4-5-1.3-5.1,2.7c39.7,15.1,79.8,16.1,120.5,4.5c10.1-2.8,19.9-6.7,29.1-11.7
		c2.9-1.6,5.8-3.3,9.1-3.9c0.1,0.1,0.2,0.3,0.3,0.4c0-0.1,0-0.3-0.1-0.4l16.8-10.7c0,0,0-0.1,0-0.1l20.1-16.2c0,0,0-0.1,0-0.1
		c1.9-2.1,3.6-4.4,6.2-5.8c0,0,0.1,0.1,0.1,0.1l17.9-21l3.8-5.1l0.1-0.1l1.6-3.9l0,0C579.3,274.2,577.7,274,576.8,275.3z"/>
	<path fill="#A1ACB3" d="M541.2,242.5c-0.4,0.5-1,1.3-0.9,1.7c1.7,5.5-1.5,6.9-6,7.9c-2.3,0.7-4,2.6-4.3,5c0,0.1,0,0.2,0,0.2
		c0,0,0-0.1,0-0.1c2.5,6.2-0.1,11.3-4.1,15.4c-4,4.1-11.2,9.9-16.8,14.7c-5.6,4.8-13.6,9.1-19,15.3c-1.2,1.4-2.6,2.6-4.7,2.5
		c-6.9-0.1-13,2.7-18.9,5.8c-8.8,4.8-18,6.5-27.9,4.4c-3-0.6-6,1.2-8.6,1.1c-6.5-0.1-12.1,6.4-18.9,2.5c-0.4-0.2-1.2-0.5-1.4-0.3
		c-5.4,4.4-11.8,1-17.7,2.6c0,0,0,0,0,0v1.9h0.1c0.8,0,2-0.2,2.4,0.2c6.3,6.5,14,2.2,21.1,3c11.5,1.2,22-2.2,32.9-4.5
		c6-1.3,10.8-4,16.2-6.2c7.2-2.9,14.2-7,21.9-8.6c6-1.2,10.9-4.6,16.7-6.1c0,0,0,0,0.1,0c2.3-3.5,5.9-5.2,9.6-6.7c0,0,0,0,0,0
		c-0.1-3.3,1.7-6.4,4.7-7.9c6.2-4,11.2-9.4,16.7-14.3c1.4-1.2,1-3,1.2-4.6c0.2-1.6-1.5-3.1-0.1-4.9l1.9,1.6c1.5,1.4,2.5,4.2,4.9,3
		c2.4-1.2,4.6-3.7,4-6.3c-1.3-5.3,0.8-8.4,4.8-11.2c1.2-0.8,1.8-2.4,2.9-4c-3.5-1.7-3-4.2-2.2-7.4s0-5.4-2.4-7.4
		c-0.1,0.1-0.3,0.1-0.4,0.2l-0.1,0.1L541.2,242.5z"/>
	<path fill="#F2ECEA" d="M566.5,214.6L566.5,214.6c0.2,6.9-1.6,12.5-10.3,14.4c4.7,2.4,6.7,5,6.7,9.4c0,2.1,0.6,6.1,4.5,6.2
		c3.6,0.2,7.1-1.2,9.5-3.9c3.5-3.6,5.3-6.4,3.4-11.2c-0.4-1,0.5-2.5,0.8-3.8l3.8-15.6c-2.1-1.4-4.1-1.5-5.6-0.4
		c-4.3,3.1-5.4,0.3-6.3-3.1v0C569.3,208,569,212.2,566.5,214.6z"/>
	<path fill="#7F8391" d="M552.9,223C552.9,223,552.9,223,552.9,223c-3.6,0.6-4.9,3.7-6.9,6.1c-2.5,3.5-4.8,7.1-6.8,10.9
		c-4.2,7.6-13.8,10.8-15.6,20.1c-0.2,1-1.6,1-2.6,1l-0.2,0.1c0,0.1-0.1,0.2-0.1,0.3c-0.3,4.8-3.5,8.8-4,13.6
		c-0.1,0.1-0.2,0.1-0.2,0.2c0,0,0,0,0,0c0.2,0,0.3-0.1,0.5-0.1c4-1.5,6.8-3.9,7.1-8.5c0.3-4.5,4.7-5.8,5.9-9.4c0-0.1,0-0.2,0-0.2
		c0.3-2.4,2-4.3,4.3-5c4.5-1,7.7-2.4,6-7.9c-0.1-0.4,0.5-1.2,0.9-1.7l7.7-11.4l0.1-0.1l4.2-3.8v0L552.9,223z"/>
	<path fill="#9B9CA8" d="M582.2,174.2C582.2,174.2,582.2,174.2,582.2,174.2C582.2,174.3,582.2,174.3,582.2,174.2l1.1,0.3
		c2.6-1.8,1.7-4.4,1.6-6.9s-0.2-4.9,1.3-7.2c3.8-5.8,5.4-11.8,1.3-18.2c-0.7-1.1,0.8-3.3-0.9-3.9c0,0,0,0,0,0
		c-1.7-0.6-3.4-1.5-5.3-1.3c-0.3,3.8-2.3,7.1-1.1,11.3c1.2,4.2,0.9,8.5,0.7,12.8C582.7,165.3,581.7,169.9,582.2,174.2z"/>
	<path fill="#7F8391" d="M573.4,188.9c0.9-2.1,2.8-1.8,4.6-1.7c0,0,0.1,0,0.1,0c2.3-1.5,2.8-4.2,2.9-6.4c0.1-2.2-0.2-4.6,1.2-6.5
		c0,0,0,0,0-0.1c-0.5-4.3,0.5-8.9-1.3-13.1c-4.9,1.9-3.6,7.6-6.4,10.7c-4.5,5.3-4.9,11.7-5.6,18.1c0,0,0.1,0,0.1,0
		C570.7,190.3,572.5,191,573.4,188.9z"/>
	<path fill="#787372" d="M579.7,127.6c0,0.1-0.1,0.1-0.1,0.2c-0.6,1.1-0.4,2.4,0.5,3.2c0,0,0.1,0.1,0.1,0.1
		C581.2,129.7,581.1,128.6,579.7,127.6z"/>
	<path fill="#D78454" d="M459.3,411.2c0,0.1,0,0.2-0.1,0.2c-10-1.4-20.1-2.5-30-4.3c-9.9-1.8-19.6-2.7-29.5-3.5
		c-3.7-0.3-6.3-1.8-7.7-5.2c-0.1-0.2-0.1-0.3-0.2-0.5c0,0,0,0.1,0,0.1c-4,0.4-8.1-0.7-11.8,2.3c-1.4,1.2-4-0.4-6-1.2
		c-6.3,4-8.5,3.7-16.2-2.1c-3.2,1.1-6.1,2.7-9.8,0.4c-3.7-2.3-4.9,2.4-7.8,1.6c0,0,0,0,0-0.1c0,0.1-0.1,0.1-0.1,0.2
		c-3.8-0.1-7.7-1.7-11.1,1.8c-1,1-2.8-0.2-4.2-0.8l0,0c-2.7,0.4-5.2,0.2-7.5-1.5c-2.3-1.7-4.7-1.6-7.2-0.2c0,0,0,0.1,0,0.1
		c-0.1,1.8-0.7,2.9-2.8,2.4s-3.1-0.1-4.4-0.6c-5-2-10.6-2.4-15.8-1.1c-3.8,0.8-7.6-0.8-10.2-4c0,0-0.1,0-0.1,0
		c-2-0.6-3.7-1.7-5.6-0.6c-3.4,2.1-6.2,0.7-8.8-1.3c-2,0.6-1.7,3.2-3.9,3.9c-5.2-1.9-10.4-0.3-15.6,0.7
		c-20.1,3.7-39.8,9.5-59.4,15.4c-22.1,6.6-44.6,11-67,15.8c-3.4,0.7-6.7,2.1-10.3,1.9c0,0-0.1,0-0.1,0c-6.7,3.5-13.9,2.5-20.9,1.9
		c-17.6-1.5-35.3-2.1-52.9-1.7c-0.1,0-0.1,0-0.2,0c0.4,0.5,0.7,1.4,1.2,1.5c6.9,1.6,11.6,6.3,16.2,11.2c1.4,1.4,3.1,2.5,5,3.1
		c14.7,5.6,30.2,3.6,45.3,5.1c0.4,0.1,0.9-0.3,1.2-0.4c0.1-1.9-3.1-0.9-2.3-3.6c8.5,1.4,17-1.9,26.5-0.3c-3.5,2.8-7.1,1.9-11.3,3.6
		c9.5,4.1,18.9,1.9,27.7,3.4c-0.6,2.2-1.7,2.1-2.6,2.4c-4.1,1.2-8.3-0.5-12.3,0.1c-10.6,1.6-21.3,0.5-31.9,1
		c-4.7,0.2-9.5,0.5-13.5,3.6c0.6,1.8,1.8,2.1,3.2,2.2c5,0.4,10.1,1.5,14.9,0.9c9.7-1.2,16.5,4.9,24.4,8.2c1.3,0.6,2.8,1.6,2.3,3.5
		c-0.5,1.9-2.2,2.5-3.9,2.5c-3.4,0-6.8,1.1-9.7,2.9c-0.1,0-0.1,0.1-0.2,0.1c4.8,2,9.9-0.9,14.8,0.6c0.1,0,0.1,0,0.2,0.1
		c2.1-1,4.2-0.8,6.4-0.8c15.5,0,31-0.2,46.5,0c5.7,0.1,11.4-0.4,16.7-2.3c12-4.4,24.3-5.3,36.9-4.8c18.8,0.7,37.6-0.7,56.1-4.1
		c6.8-1.2,13.6-2.9,20.4-4.3c-13.5,0.8-26.8,2.5-40.2,2.7c-7.8,0-15.6-0.4-23.4-1.2c-19.7-1.8-38.6,4.2-58.1,4.6
		c-11.2,0.2-22.3,0.5-33.3-1.1c-2.6-0.4-5.7,0.7-7.7-1.6c34.4-17.1,70.6-27,109.1-28.9l-3.6,6.1c-0.7,1.1-1.8,2.3-2.8,1.6
		c-3.1-2.1-6.1,0.3-8.8-0.1c-10-1.6-19.3,3-29.1,2.6c-0.8,0-1.6,0.4-1.6,1.9c4.8,2.1,10.1,1.9,15.3,1.9c2.2,0,4.7-0.5,6,1.6
		c2.5,4,6.5,4,10.5,4.4c10.6,0.9,21.2-1.8,31.8-0.1c1,0.1,2-0.1,2.9-0.6c4-1.9,8.1-1.6,12.2-0.5c5.7,1.5,11.5,1.3,17.3,0.5
		c5.4-0.8,11-0.8,16.4,0.2c2.6,0.4,5.4,0.9,7.9,0.2c22.8-5.9,46.6-6.3,69.5-11.7c9.2-2.1,18.4-4.1,27.6-6.1c1.9-0.4,3.3-1.6,2.2-3.5
		c-2.6-4.7,0.7-5,3.8-5.4s6.1-1.4,9.3-0.2c1.7,0.5,3.5,0,4.6-1.3c3-3.2,7.8-3.8,11.5-1.4c5.9,4,11.8,5.5,18.7,4.1c1,0,2,0.1,2.9,0.4
		c8.7,1.4,18.5,4.6,25.9,5.1c7.4,0.5,14.9,0.8,22.3,1.9c11.9,2,24,3.1,36.1,3.5c1.5,0,3.4,0.5,4.3-2.3c-15.6-3.8-30.9-8.1-46.5-11.2
		c-15.8-3-31.8-4.4-47.9-4c16.7-6.9,34.7-10.2,52.8-9.6l0-0.1l-0.2-1l-15-0.8c0,0-0.1,0-0.1,0c-4,0.1-8,0.5-11.9-1
		c-0.4-0.1-0.8-0.2-1.3-0.2C486.2,415.8,472.8,413.4,459.3,411.2z"/>
	<path fill="#8A4423" d="M529.5,585c-5.7-8.2-6.1-8.2-17.5-1.7C516.6,594.3,523.1,587.6,529.5,585z"/>
	<path fill="#297B96" d="M406.5,266.7c2.3,0,2.3,2.2,3.8,2.7c4-3.1,11.3-3,13.6,1.4c-0.2-7.1,2.9-7.3,7.3-4.8
		c0.7,1.8-1.4,4.4,1.7,5.8c2.1-1.9,4.2-3.9,8-2.9s3.1-2.6,3.5-5.1c2.7,0.6,4.7-1.4,7.3-0.5c0,0,0,0,0-0.1c4.7-1.1,9-4,15.2-3.2
		c-2.3-2.4-3.5-5.7-3.3-9.1l4.4-1.8l0,0c-5.4-1.1-7.8-5.8-11.2-8.9c0.1-1.8,0.8-1.4,2.1-2.4s1.1-2,0-2.9c-0.2-0.3-0.6-0.5-0.9-0.5
		c-0.9-0.2-1.7,0.4-1.9,1.2c-0.5,1.2-0.8,2.5-1.2,3.8c-0.6,2.5-2.9,4.2-5.4,4c0.4-7.8-0.9-9.1-8.1-8.5c-0.1-2.5,2.3-4.9,2.7-6.2
		c0.4-1.3,0.8-2.6-0.4-3.6s-2.8-1.6-4.1-0.5c-5.4,4.6-11.9,6.5-18.7,7.8c-4.1-7-4.1-7.4,2-12.3c0.6-0.5,0.8-1.5,1.1-2.2
		c-3.1-0.4-4.8-1.7-5.5-5.3c-0.7-3.6-3.2-6.3-7.5-6.1c-1.1,1.9,0,2.3-0.1,4.8c-0.1,2.5-1.5,4-3.5,5.1c0,0-0.1,0-0.1,0.1
		c-0.9,0.5-2.1,0.2-2.6-0.7c-1.6-2.6,0.8-2.5,2.2-4.1c1.4-1.6,0.3-2.8-0.7-3.9c-1-1.1-3.6-2.3-3.6-1.4c0,3.5-4.7,3.3-4.7,6.5
		c0.2,0.3,0.5,0.6,0.7,1c1.5,2.1,2.8,4.3,2.7,7c-7.6,3.2-6.8,10.3-7,16.8c-3.6-0.7-3.1-2.9-3.5-4.8c-0.6-3.4-3.7-3.6-5.5-2.3
		s-4.7,2.8-5.9,3.6c-1.2,0.8-2.4,2-4,1c-1.6-1-1-2.5-0.7-4s0.9-3.2-0.6-4.6c-4.2,1.2-8.3,2.1-10.8-4.7c-2.3,9.2-3.6,16.9-3.5,24.7
		c-5.9,1.4-6.2,1.2-4.6-5c-3.5-3.8-9.5,2.3-12.3-3.5c-2.6,3.1-3.9,3.2-2.6,5.9c1.3,2.7,3.5,0.8,5.3,0.9c0.8,0.1,1.7,0,2.5-0.2
		c2.2-0.6,3.6,0.2,3.8,2.4c0.2,2.2-1,2.9-3.1,2.9c-2.1,0-4.3,0.6-5.7,2c0,0-0.1,0.1-0.1,0.1c0,0,0,0,0,0c0.2,1.9-0.9,3.4-1.9,4.9
		c0,0,0,0,0,0c1.8,3.5,8.8,5,13,2.5c1.6-1,3.1-2,4.9-0.6c0.9,0.6,1.2,1.8,0.6,2.7c-1,1.8-2.8,3-4.8,3.2c-1.7,0.3-3.5-1.5-5.2,0.2
		c-0.8,5,3.8,3.8,5.9,5.6c5.5,4.6,9.8,3.1,14.6-0.5c2.6-2.1,6-3.3,8.5-0.8s6.2,3.1,7.9,6.5c0.7,1.5,2.7,1.5,3.9,0.3
		c3-3.1,6.7-3.3,10.6-2.9c0,0,0.1,0,0.1,0c0,0,0,0,0,0L406.5,266.7z"/>
	<path fill="#3F6B85" d="M463.6,250.9c-0.2,3.4,1,6.7,3.3,9.1c-6.2-0.8-10.5,2.1-15.2,3.2c0,0,0,0,0,0.1c0,0,0.1,0,0.1,0
		c0.4,2,2.1,3.1,3,4.7c1.7,0.7,2.4-1.1,3.6-1.8c1.2-0.7,3.9-1.2,5.8,0.6c5.5,4.9,11.5,7.2,19.2,5.6c4.1-0.8,8.7-2,12.5,3.1
		c3.8,5.1,4.4-1.2,6.1-3.5c4.3,4.8,6.2,2.1,8.9-1.8c2.7-3.9,6.4-6.1,9.8-9.1c0,0.1,0,0.3,0,0.4c0-0.1,0.1-0.2,0.1-0.3
		c0-0.1,0.1-0.1,0.1-0.2c0-1.6-1.3-2.9-2.8-3c0,0,0,0.1-0.1,0.1c-1.6,1.3-2.5,0.9-3.1-1c0,0,0-0.1,0-0.1c0,0,0,0,0,0
		c-4.3-1-8.4-1.4-11.4,2.6c0,1.7,3,1.7,1.4,4.1c-3.7-1-7.8,0.2-10.9-4.4c-1.9-2.7-6.1-6.2-10.4-1.5c-1.5,1.8-2.7,1.5-4.7-0.3
		s-1.9-4.1-1.8-6.4c-2.7-4.9-6.3-5.7-9.1-2l0,0L463.6,250.9z"/>
	<path fill="#297B96" d="M424,218.1c1.9-0.4,3.2-1.1,2.2-3.6C424.1,215.2,424,216.6,424,218.1z"/>
	
		<line fill="none" stroke="#0D394E" stroke-width="0" stroke-linecap="round" stroke-linejoin="round" x1="410.2" y1="159.4" x2="410.1" y2="159.2"/>
	
		<line fill="none" stroke="#0D394E" stroke-width="0" stroke-linecap="round" stroke-linejoin="round" x1="410.1" y1="159.2" x2="410" y2="159.1"/>
	<path fill="#0E88A9" d="M343,252.1C343,252.1,343,252.1,343,252.1c-3.9-1.4-4.3-5.7-6.9-8.3c-4.4-4.8-4.6-4.8-8,0.6
		c-0.2,0.2-0.6,0.2-1,0.4c-3.9-1.1-2.5-4.5-1.8-6.2c0.7-1.7,1.2-3.8-0.7-5c-1.8-1-4.1-0.7-5.6,0.8c-1.2,1.1-2.2,2.8-3.6,3.4
		c-4.5,1.8-6.5,9-13,5.9c-0.9,2.2-1.9,4.6-2.5,5.8c-0.6,1.2-0.1,3.6-3,1.7c-2.9-1.9-7.1-0.5-9.2-3.9c-6,4.6-6,4.6-9.5-1.5
		c-0.9-1.7-1.7-3.9-4.3-3.3c-2.6,0.6-5.6,0.6-7,3.9c-2.1,4.8-5.5,6.1-10.3,3c-4.8-3.1-10.4-4.6-15.4-5.3s-10.1-1.9-14.7,2.7
		c-2.6,2.7-6.9,3.6-11.2,2.4c-2.4-0.7-5.3-0.1-7.9,0.1c-5.4,0.4-10.8,2-16.4,0c-3.2-1.2-6.8-0.5-10.3,0.4c-5,1.3-10.5-0.5-15.4,2.4
		c-0.7,0.5-2.4-0.3-2.9,1.1c-2.4,6.5-5.1,3.4-7.7,0.2c-5.3,5-5.3,5-8.7,0.3c-2.2,0.5-1.3,4-4.4,4c-6.2,0-12,4-18.5,2.3
		c-1.1-0.3-2.7,0-3.1,1.1c-1.1,3.3-3.7,1.5-5.8,1.5c-1.6,5-4.9,5.7-9.2,4.2c-2.3-0.7-5.5-1.6-5.6,1.7c-0.2,6-4.5,8.1-8.3,10.9
		c-1,0.8-1.9,1.9-3.5,1.1c-1.6-0.8-1-1.5-0.8-3.5c0.2-2,1.1-4.2-1.4-5.8c-0.4,0.7-1,1.1-0.9,1.4c1.5,5.2,0.3,5.9-5.7,8.1
		c-6,2.2-12.4,5.2-13,13.4c-0.1,2.7-2.1,4.9-4.8,5.4c-2.2-3.2,0.9-5.9,0.5-8.8c-1.3-0.5-2.8-0.5-2.8,0.5c-0.1,4.8-2.9,6.1-7,6.5
		c-0.8,0.1-1.8,1.4-2.3,2.4c-0.7,1.2-1.9,1.9-3.2,2c-5.7,0.9-9.4,4.3-10.6,9.8c-1.2,5.5-4.9,8.1-10.3,7.8c-3.3-0.2-4.1,1.8-4.1,4.3
		c0,4.8-2.3,5.8-6.4,4.6c-1.5-0.5-4.2-0.5-4,0.5c1.2,5.3-2.5,7.7-5.5,10.6c-0.6,0.5-0.3,0.7-0.3,2.9c0,2.2,0,4.2,0,6.4
		c0,0,0,0.1,0,0.1c2.4-1.7,5.1-2.9,8-3.5c11.2-2.3,21.3-9.2,33.3-8.4c1.4,0.1,2.4-0.9,3.5-1.7c5.6-4.1,12.2-5.2,18.9-5.5
		c3.4-0.1,6.3-0.6,6.7-4.8c0.2-1.9,0.7-3.3,2.7-3.7c4.8-0.9,9.4-3.3,14.6-2.2c3.3,0.6,6.2,0,8.1-3.6c1.9-3.6,4.4-5.2,8.5-3.6
		c1.3,0.5,2.5-0.1,3.7-0.9c5.5-3.8,11.3-6.6,18.3-5.8c3.6,0.4,6.1-0.8,7.1-4.6c0.4-1.3,0.9-3,2.8-1.9c1.9,1.1,1.7,4.9,2.1,4.8
		c0.4-0.1,0.8,0,1-0.2c0.8-0.5,1.6-1.2,2.2-2c4.7-7.1,13.1-8.5,19.7-12.5c0.7-0.4,1.6-0.5,2.4-0.3c5.4,2.2,10.5,0.5,15.6-0.9
		c1.4-0.5,3-0.4,4.3,0.3c3.6,2.2,7.8,1,10.5-0.5c5.6-3.1,10.5-7.2,17.7-3.8c-1.7-2.3-3-4.5-0.9-6.2c2.1-1.7,4-1.2,5.7,0.7
		c3.8,4.3,4.9,4.4,10.1,0.6c0-1.5-2.2-2.1-1.6-4.2c2.5-0.1,3.2,0.7,5.9,3c2.7,2.3,4.2,2.9,6.9-0.4c2.7-3.3,6.1-5.9,11-3.1
		c1.5,0.8,3.9,1.6,5-0.4c3.6-6.3,7.3-4.6,11.3-0.5c0.3,0.4,1.1,0.3,1.4,0.3c2.6-1.4-1.1-5.1,3.4-5.9c-0.3,4.1,1.8,6.1,5.6,5.4
		c3.8-0.7,5.8,3,9.1,3.1c0.5,0,1-0.8,1.5-1.2c3.5-2.4,6.8-4.4,11.5-3c2.5,0.8,5.3,0.6,7.7-0.5c0.9-1.9-1.4-4.6,1.6-5.6
		c1,0.2,1.1,0.8,1.2,1.5c0.3,2.8,2.1,5,4.7,4.5c2.6-0.5,4.4-2.1,3.5-5.4c0-0.1-0.1-0.3-0.1-0.4c-0.2-1.3,0.7-2.4,2-2.6
		c1.4-0.3,2.2,0.7,2.7,1.7s0.6,2.4,2.5,2.2c1-2.7,2.5-6.3,4.6-6.8c2.1-0.5,1.5,3.6,3.9,1.7c2.4-1.9-0.4-6.1,1-6.5
		c1.4-0.4,2.1,0.9,3.1,1.3c0,0,0.1-0.1,0.1-0.1C342.1,255.5,343.2,254,343,252.1z"/>
	<path fill="#F1C6AA" d="M272.6,373.1c1.6,3.7,2.7,7.3,5.7,9.6c3,2.3,4,2.4,5.7-0.5c1.7-2.9,3.4-2.5,5.7-1.7
		c0.2,2.6-2.9,2.6-2.9,4.7c0,0,0,0.1,0,0.1c0,0,0.1-0.1,0.1-0.1c5.1-0.5,9.6-3.3,14.9-3.3c2.3,0,3-2.8,4.5-4.1
		c1.5-1.3,3.1,2,4.4,3.4l3.4-2.8c2.2,1.2,0.6,5.8,4.6,5c3.3-4.6,7.7-5.2,12.6-3.3c2.7,1,5.1,1,7.1-1.3c4.2-4.9,4.2-4.9,8.5-0.6
		c0,0,0,0,0,0.1c0-0.1,0-0.1,0.1-0.2c3.4,2,4.9,6.1,8.7,7.8c2.2,1,3.9,2.4,5.7-0.5c1.7-2.8,3.7-1.6,5.7-1.3c0.1,0,0.1-0.1,0.2-0.1
		c2.8-2.8,5.8-5.1,9.9-5.6c1.1-0.3,2.2,0.1,2.8,1c0,0,0,0,0.1,0c2.2-1,3.1,0.3,4,1.9c2.3-0.9,4.8-1.1,7.2-0.7
		c1.8-6.7,1.7-6.4,8.9-5.7c12.9,1.3,25.6-0.6,38.1-3.3c5.5-1.2,11-2.5,16.7-2.5c3.6,0,7.3-0.8,10.2-3.5c0.9-0.8,2-1.3,3.2-1.3
		c10-0.1,18.1-4.8,25.8-10.7c1.2-0.9,2.6-1.4,4.1-1.4c4.9-0.2,8.8-3,12.6-5.7c3.7-2.6,3.8-5.5,3.2-9.1c-0.1-0.1-0.2-0.3-0.3-0.4
		c-3.3,0.6-6.2,2.3-9.1,3.9c-9.2,5-19,8.9-29.1,11.7c-40.7,11.6-80.8,10.6-120.5-4.5c-6.1,1-12.4,3.6-18.2,1.8
		c-11.2-3.4-21,3.2-31.5,2.9c-1.3,0-2.6,0.3-4,0.3c-12.6-0.2-25.2,0.7-37.8,1.6c-4.2,0.3-8.6-1-13.1-0.6c-9.4,0.6-18.8,1.9-28,3.7
		c-2.3,0.4-4.6,0.5-6.9,0.4c-3.1-0.1-6,0.2-8.5,2.3c-2.3,1.8-5.3,2.4-8.1,1.6c-5.6-1.3-11.3-0.6-16.9-0.9c-3.8-0.2-7.7,0.4-10.4,2.8
		c-6.1,5.5-13.4,4.6-20.5,5.2c-2,0.1-4,0.1-6,0c-2.4-0.1-4.1,0.4-4.4,3.4s-3.7,3.4-6.2,3.5c-4.3,0.2-8.6,0.5-12.7,2.2
		c1.4,7.6,1.4,7.6,8.8,5.6c0.9-0.3,1.9-0.5,2.9-0.6c18.1-0.3,36-3.5,54.1-2.1c1.8,0.1,3.7,0,5.5-0.3c10.2-1.6,20.4-2.5,30.7-2.7
		c7.6-0.1,15.4,0.4,22.9-0.8s14.1,1.6,14.2,11.5c0.1,0.8,0.4,1.6,0.7,2.4c0,0,0,0,0,0l0-0.1C262.1,383.3,268.5,379.1,272.6,373.1z"
		/>
	<path fill="#C4BAB4" d="M134.6,376.1c2.5-0.1,5.9-0.5,6.2-3.5s2-3.5,4.4-3.4c2,0.1,4,0.1,6,0c7.1-0.6,14.4,0.3,20.5-5.2
		c2.7-2.4,6.6-3,10.4-2.8c5.6,0.3,11.3-0.4,16.9,0.9c2.8,0.8,5.8,0.2,8.1-1.6c2.5-2.1,5.4-2.4,8.5-2.3c2.3,0.1,4.6,0,6.9-0.4
		c9.2-1.8,18.6-3.1,28-3.7c4.5-0.4,8.9,0.9,13.1,0.6c12.6-0.9,25.2-1.8,37.8-1.6c1.4,0,2.7-0.3,4-0.3c10.5,0.3,20.3-6.3,31.5-2.9
		c5.8,1.8,12.1-0.8,18.2-1.8c0.1-4,3-3.1,5.1-2.7c5.1,1.1,10.3,1.2,15.4,0.4c7.9-1.3,15.9-1,23.8-1.5c20.6-1.3,39.1-8.5,56.7-18.5
		c11.7-6.5,23.9-12.1,36.5-16.7c3.4-1.3,7.3,0.1,10.7-1.6c1.7-0.9,3.5-1.6,3.6-3.8c0.1-2.2-2.3-1.9-3.5-2.8c0,0,0,0-0.1,0
		c-5.8,1.5-10.7,4.9-16.7,6.1c-7.7,1.6-14.7,5.7-21.9,8.6c-5.4,2.2-10.2,4.9-16.2,6.2c-10.9,2.3-21.4,5.7-32.9,4.5
		c-7.1-0.8-14.8,3.5-21.1-3c-0.4-0.4-1.6-0.2-2.4-0.2H392l-0.3,0.3l0.3-0.3v-1.9c0,0,0,0,0,0c0,0-0.1,0-0.1,0
		c-1.2-0.8-2.5-1.2-3.9-1.1c-0.9,3.1-7.8,8-11.7,8s-10.7,0.7-15.8-1.5c-0.9-0.4-1.9-0.5-2.9-0.3c-14,3.4-28.5,1.2-42.4,3.5
		c-7.1,1.2-14.4,1.6-21.1,3.2c-10.6,2.5-21.4,4.2-32.3,5.1c-3.3,0.3-6.3-0.6-9.4-0.9c-8.2-0.8-16.2,2.2-24.3,0.4
		c-0.8-0.1-1.7,0.2-2.2,0.9c-4.9,4.9-10.7,5.4-16.9,3.3c-1.1-0.5-2.3-0.6-3.4-0.2c-11.8,4.5-24.4,6.4-37,5.6
		c-6.7-0.4-13,2.7-19.6,3.2c-6.6,0.5-10.5,1.2-15.8,1.7c-1.8,0.2-3.7,0.1-5.1,1.5c-1.4,1.4-2.8,1.3-4.6,1c-7-1.3-13.2,0.4-17.9,6.1
		c-1.4,1.7-3.4,2-5.4,2.4c-13.7,2.5-26.9,7.1-40.8,8.1c-5.3,0.4-9.7,4.5-15.3,3.9l0,0c-0.1,0-0.1,0.1-0.2,0.1c1.2,2.2,3.3,2,5.3,2
		l14.9,0.2l0.1,0c1.8,0,3.6,0.3,5.3,0.8c4.7,0.9,9.6,2,14.3,1.8c12.7-0.6,25.4-2,38.1-1.7C126,376.6,130.3,376.3,134.6,376.1z"/>
	<path fill="#5B3226" d="M271.2,394.6c1.9-1.1,3.6,0,5.6,0.6c0,0,0.1,0,0.1,0c0,0,0,0,0,0c1.2-1.4,3.2-0.6,4.9-1.6
		c-5-6.8,2.5-5.9,5-8.3c0,0,0-0.1,0-0.1c0-2.1,3.1-2.1,2.9-4.7c-2.3-0.8-4-1.2-5.7,1.7c-1.7,2.9-2.7,2.8-5.7,0.5
		c-3-2.3-4.1-5.9-5.7-9.6c-4.1,6-10.5,10.2-10.9,18.1l0,0.1l0.5,1.9c0.1,0,0.1,0.1,0.2,0.1C265,395.3,267.8,396.7,271.2,394.6z"/>
	<path fill="#42A1B9" d="M284.2,301.3c2.6,3.7,5.6,3.3,9.3,3c8.5-0.6,16.6-2.9,24.7-5.4c1.9-0.6,4-0.2,5.5,1
		c2.9-4.6,5.3-6.2,10.7-3.5c5,2.5,10.9,2.6,16,0.1c5.3-2.8,11.5-3,16.8-6.7c3.2-2.3,8.4-1.1,12.7-0.2c2.3,0.5,4.1,0.4,4.6-2.2
		c0.5-2.6,4.2-2.9,5.6-5.2c-12.7-1.3-25.3-1.9-38,2.4c-1.1-0.4-0.8-2.7-3.1-2.9c-2.3,3.1-5,2.4-7.8,0.1c-1.2-1.2-3-1.6-4.6-1.1
		c-3.4,1.2-6.9,2.2-10.3,3.3c-0.1,0-0.2-0.1-0.3-0.1c0,0,0,0,0,0c-3,0.9-4.9,2.8-5.1,6c0,1.9-1.6,3.5-3.5,3.7
		c-8.3,1.1-16.4,4.6-25,2.6c-0.7-0.2-1.3-0.2-2,0c-3.2,0.9-6.1,2.1-9.7,1.5c-3.6-0.6-6.6,0.9-6.1,6.1c-4.5-1.1-8.5-0.8-12.1,1.7
		c-1.2,0.9-2.9,0.6-4.4,0c-3.6-1.4-7.5-1.9-11.3-1.5c-2.7,0.2-5-0.2-5.8-5c0,0,0,0,0,0c-5,6.3-12.5,6.3-17.5,11
		c-1.8,1.7-4.1,1.1-6.1,0.2c-4.1-1.9-8.9-1.8-13,0.3c-4.1,2.1-9.2,1.7-12.8,5.1c-0.6,0.6-2.3,0.5-3.4,0.2c-5.6-1.8-10.3-0.3-15,2.9
		c-2.9,2.1-6.6,2.7-10,1.7c-8.6-2.4-16.4,2.3-24.5,3.8c-10.2,1.8-20.5,3.8-30.8,4.8c-4.9,0.5-9.9-0.1-11.3,6.4
		c-0.5,2.1-2.7,1.6-4.3,1.6H74v0l0,0c-3.8,0-7.6-0.3-10.7,2.7c-1.2,0.9-2.7,1.4-4.2,1.2c-6.5-0.7-12.1,1.7-17.8,4
		c-1.8,0.8-3.8,1.2-5.8,1.1c-6.7-0.5-12.2,2.4-17.5,6.1c0,0,0,0,0,0c2.5,3.7,5.7,2.1,8.3,0.7c5.1-2.9,10.9-4.2,16.7-3.7
		c2.2,0.2,4.1-0.9,6.2-1.5c6.5-2,13-4,19.8-1.5h3c3.4-2.7,6.9-4.6,10.9-1c0,0,0,0,0,0c0,0,0.1,0,0.1,0h4c4.8-4.8,11.3-5.7,17.3-6.6
		c10.2-1.5,20-4.7,30.3-5.6c3-0.2,5.9-1.3,8.4-3c4.1-3.2,8.2-3.1,12.7-2c7.2,1.9,13.8,2,20.1-3.4c3.5-3,8.7-3.1,13.4-3.3
		c4.7-0.2,8.7-0.1,13,0c4.3,0.1,6.7,0.2,9.3-2.6c0.6-0.6,1.4-1,2.2-1c7.3,0.7,13.9-2.8,20.9-3.6c9-1,18.1-0.2,27.1-2.4
		c5.1-1.3,10.8,0.4,16.3,0.7c0,0.1-0.1,0.3-0.1,0.4c0.2-0.1,0.3-0.3,0.5-0.4l1.9-0.2c0,0,0,0,0,0c-0.1,0-0.2-0.1-0.3-0.1
		L284.2,301.3z"/>
	<path fill="#269DB7" d="M92.3,337c1.6,0,3.8,0.5,4.3-1.6c1.4-6.5,6.4-5.9,11.3-6.4c10.3-1,20.6-3,30.8-4.8
		c8.1-1.5,15.9-6.2,24.5-3.8c3.4,1,7.1,0.4,10-1.7c4.7-3.2,9.4-4.7,15-2.9c1.1,0.3,2.8,0.4,3.4-0.2c3.6-3.4,8.7-3,12.8-5.1
		c4.1-2.1,8.9-2.2,13-0.3c2,0.9,4.3,1.5,6.1-0.2c5-4.7,12.5-4.7,17.5-11c0,0,0,0,0,0c0,0,0,0,0,0c0.8,4.8,3.1,5.2,5.8,5
		c3.8-0.4,7.7,0.1,11.3,1.5c1.5,0.6,3.2,0.9,4.4,0c3.6-2.5,7.6-2.8,12.1-1.7c-0.5-5.2,2.5-6.7,6.1-6.1c3.6,0.6,6.5-0.6,9.7-1.5
		c0.7-0.2,1.3-0.2,2,0c8.6,2,16.7-1.5,25-2.6c1.9-0.2,3.5-1.8,3.5-3.7c0.2-3.2,2.1-5.1,5.1-6c0,0,0,0,0,0c0.6-5.3-6.3-4.3-7.3-6.1
		c-1-1.8-1.9-2.6-4.1,0.2c-2.2,2.8-4.7,3.8-8,1.6c-1.6,3.3-4.2,3.4-6.1,1.6c-1.9-1.8-4.2-1.1-4.6,1.7s-2.5,3.7-4.7,4.5
		c-3.6,1.2-7.5,1.6-11.3,1c-7.1-0.9-12.7,1.1-17.7,5.9c-1.2,1.2-2.5,2.7-4.8,2c-1.1-2.9,1.7-5.6,0.5-9c-3.1,2.9-7,3.2-10.7,3.8
		c-1.5,0.2-2.8,0.3-3.8,1.8c-3.5,5.6-6.7,5.9-12.3,0.4c-0.6,7.6-5,5.8-9.4,4.3c-2.4-0.8-5.5-1.3-7.3,0.2c-5.5,4.9-13.8,3.2-18.5,4.2
		c-4.7,1-9.9,2-13.4-3.2c-0.1-0.2-0.7,0-1.1,0c-3.1,2.8,0,6.5-1,9.6h-1.2l-1.4-0.5c-4.6-2.3-9.1-4.7-13.5,0.5
		c-0.8,0.9-2.2,0.5-3.3,0.1c-3.6-1.1-6.9,1.3-8.1,3.2c-1.2,1.9-2.7,3.6-5.3,3c-6.2-1.4-11.6,1.2-17.2,3c-7.8,2.4-15.5,5.1-23.6,5.8
		c-2.9,0.3-5.6,0.8-7.1,2.5c-4.4,5.2-9,3.9-15.1,3.2c-6.1-0.7-9.9,1.4-10.6,7.8v0H92.3z"/>
	<path fill="#6396AB" d="M439.7,281C439.7,281,439.7,281,439.7,281C439.7,281,439.7,280.9,439.7,281c1.5-7.2,7.3-12.2,14.9-13.1
		c0.1,0,0.2,0.1,0.2,0.1c-0.9-1.6-2.7-2.7-3-4.7c0,0-0.1,0-0.1,0c-2.5-0.9-4.6,1.1-7.3,0.5c-0.4,2.5,0.3,6.1-3.5,5.1s-5.9,1-8,2.9
		c-3.1-1.4-1-4-1.7-5.8c-4.4-2.5-7.5-2.3-7.3,4.8c-2.3-4.4-9.6-4.5-13.6-1.4c-1.5-0.5-1.5-2.7-3.8-2.7l-5.4,6.5c0,0,0,0,0,0
		c-0.2,6.6-2.3,8.3-11,8.9c0,0,0,0,0,0.1c-1.3,2.3-5.1,2.7-5.6,5.2c-0.5,2.6-2.3,2.7-4.6,2.2c-4.3-0.9-9.5-2.1-12.7,0.2
		c-5.3,3.7-11.5,3.9-16.8,6.7c-5.1,2.5-11,2.4-16-0.1c-5.4-2.7-7.8-1.1-10.7,3.5c-1.5-1.2-3.6-1.6-5.5-1c-8.1,2.5-16.2,4.8-24.7,5.4
		c-3.7,0.3-6.7,0.7-9.3-3L280,312c0.1,0,0.2,0,0.3,0.1c1.6,0.4,3.5,1.6,5,0.2c5.5-5.2,10.8-0.1,17-0.4s12.7-0.9,19,0
		c0.8,0.2,1.8-0.6,2.6-1.2c9.3-7.3,19.9-6.4,30.3-4.4c5.6,1.1,10.5,1.4,14.5-3.3c2.3-2.7,5.3-3.4,8.7-4.1c7.2-1.6,16.4,1.2,20.3-8.5
		c5,6.2,9,6.5,14.1,1.3c1.7-1.7,3.1-2.3,4.2,0.4c1.1,2.7,3.1,2.3,5,1.5c2.1-1,4-2.1,6-3.3c-0.1-0.1-0.1-0.1-0.2-0.2
		C429,284.1,432.2,279.5,439.7,281z"/>
	<path fill="#A1ACB3" d="M59.4,371.2c13.9-1,27.1-5.6,40.8-8.1c2-0.4,4-0.7,5.4-2.4c4.7-5.7,10.9-7.4,17.9-6.1
		c1.8,0.3,3.2,0.4,4.6-1c1.4-1.4,3.3-1.3,5.1-1.5c5.3-0.5,9.2-1.2,15.8-1.7c6.6-0.5,12.9-3.6,19.6-3.2c12.6,0.8,25.2-1.1,37-5.6
		c1.1-0.4,2.3-0.3,3.4,0.2c6.2,2.1,12,1.6,16.9-3.3c0.5-0.7,1.4-1,2.2-0.9c8.1,1.8,16.1-1.2,24.3-0.4c3.1,0.3,6.1,1.2,9.4,0.9
		c10.9-0.9,21.7-2.6,32.3-5.1c6.7-1.6,14-2,21.1-3.2c13.9-2.3,28.4-0.1,42.4-3.5c1-0.2,2-0.1,2.9,0.3c5.1,2.2,11.9,1.5,15.8,1.5
		s10.8-4.9,11.7-8c-4.7-0.4-9.4,0.2-13.8,1.7c-1.7,0.6-3.4,1.4-4.8-0.8c-1.4-2.2-2.1-0.6-3.2-0.5c-4.7,0.5-9.1,1.4-13.9-1.2
		c-2.4-1.3-6.6,1.1-10,1.2c-11.7,0.3-23,2.8-34.3,5.5c-6.8,1.6-8.7,0.1-10-4.7c0.1,0,0.2,0,0.3,0c0,0-0.1-0.1-0.1-0.1
		c-8.7,1.2-17.5,2.1-25.6,5.9c-2.5,1.2-5.4,0.9-7.6-0.6c-1.2-0.9-2.8-1.1-4.2-0.6c-17.8,6.2-36.3,7.6-55,8.2c-1.3,0-2.7,0.2-3.9,0.7
		c-11.2,5.2-23.9,6.6-35.3,6.9c-11.4,0.3-22.4,2.9-33.5,4.2c-13,1.5-25.9,4.1-39,4.3c0,0-0.1,0.1-0.1,0.1c-3,4.5-4.9,10.2-11.5,10.7
		l-11.8,1.1c-4.6,0.4-9.1,1.9-13,4.4c-5.9,3.8-12.3,7.1-19.9,5.6c-4.7-0.9-8.8-0.7-10.7,4.8c0,0,0,0.1,0,0.1l17-1.9l0,0
		C49.7,375.7,54.1,371.6,59.4,371.2z"/>
	<path fill="#9B9CA8" d="M308,326c11.3-2.7,22.6-5.2,34.3-5.5c3.4-0.1,7.6-2.5,10-1.2c4.8,2.6,9.2,1.7,13.9,1.2
		c1.1-0.1,1.8-1.7,3.2,0.5c1.4,2.2,3.1,1.4,4.8,0.8c4.4-1.5,9.1-2.1,13.8-1.7c1.4-0.1,2.7,0.3,3.9,1.1c0,0,0.1,0,0.1,0
		c5.9-1.5,12.3,1.8,17.7-2.6c0.2-0.2,1,0.1,1.4,0.3c6.8,3.9,12.4-2.6,18.9-2.5c2.6,0.1,5.6-1.7,8.6-1.1c9.9,2.1,19.1,0.4,27.9-4.4
		c5.9-3.1,12-5.9,18.9-5.8c2.1,0.1,3.5-1.1,4.7-2.5c5.4-6.2,13.4-10.5,19-15.3c5.6-4.8,12.8-10.6,16.8-14.7c4-4.1,6.6-9.2,4.1-15.4
		c0,0,0,0.1,0,0.1c-1.2,3.6-5.6,4.8-5.9,9.4c-0.3,4.6-3.1,7-7.1,8.5c-0.2,0-0.3,0-0.5,0.1c0,0,0,0-0.1,0c-9.4,6.1-18.1,13.2-28,18.5
		c-2.5,1.5-5.4,1.3-8.4,1.3c-5.6,5.4-11.5,4-15.4-3.8c-4.8,3-7.5,11.7-15.5,6c-0.1,0-0.1,0-0.2,0c-9.2,0.6-18.7-0.4-27.2,4.3
		c-3.4,2.1-7.4,3-11.4,2.7c-2.8-0.2-5.2,0.2-7.3,2.4c-4.2,4.3-9.7,2.7-14.6,2.3c-2.6-0.2-4.8-0.7-7.1,0.6c-3.3,1.9-7,3.1-10.8,3.6
		c-7.8,1.1-15.6,1.1-23.4,1.1c-5.9,0-12.3,0-17.6,2.5c-10.1,4.7-20.7,3.6-31.2,4.5c-0.1,0-0.2,0-0.3,0
		C299.3,326.1,301.2,327.6,308,326z"/>
	<path fill="#6396AB" d="M261.7,311.6c-9,2.2-18.1,1.4-27.1,2.4c-7,0.8-13.6,4.3-20.9,3.6c-0.8,0-1.6,0.4-2.2,1
		c-2.6,2.8-5,2.7-9.3,2.6c-4.3-0.1-8.3-0.2-13,0c-4.7,0.2-9.9,0.3-13.4,3.3c-6.3,5.4-12.9,5.3-20.1,3.4c-4.5-1.1-8.6-1.2-12.7,2
		c-2.5,1.7-5.4,2.8-8.4,3c-10.3,0.9-20.1,4.1-30.3,5.6c-6,0.9-12.5,1.8-17.3,6.6c1.8,1.5,3.9,1.2,5.7,0.5c12.4-4.8,26-2.7,38.8-7.8
		c9.8-3.9,21.9,0.9,32.5-3.2c6.5,2.6,12.4-0.4,18.4-2.1c4.4-1.3,7.8-3,13.1-4.1c5.3-1.1,10.4-2.4,15-5.1c2.5-1.6,5.5-2.4,8.5-2.1
		c12.8,1.6,25.1-1,37.4-3.9c5.2-1.3,10.5-1.6,15.8-0.9c3.7,0.7,5.1-0.8,5.7-3.7c0-0.1,0.1-0.3,0.1-0.4
		C272.5,312,266.8,310.3,261.7,311.6z"/>
	<path fill="#6F849B" d="M464.6,291.3c3.9,7.8,9.8,9.2,15.4,3.8c-2.5-2.6-3.1-4.9-0.8-8.3c2.3-3.4,0.9-4.6-2.9-4.1s-4.6,0.2-7,0.5
		c-2.4,0.3-3,0.6-3.6-1.5c-0.1-1-1-1.7-2-1.6c-0.1,0-0.2,0-0.3,0.1c-3.2,1.1-5.8,0.8-6.5-3.2c-3.5,1.9-0.4,4.4-2.1,6.6
		c-4.4-3.6-10.5,2.8-15-2.6c0,0,0,0-0.1,0c-7.5-1.5-10.7,3.1-12.9,9.1c0.1,0.1,0.1,0.1,0.2,0.2c2.7,2.8,5.5,5.8,8.9,0.6
		c0.1-0.1,0.6-0.1,1.2-0.2c1.5,2.7,4,3.6,6.9,2.7c2.9-0.9,5,0.2,4.8,3.7c0.1,0.1,0.2,0.1,0.3,0.2C457.1,303,459.8,294.3,464.6,291.3
		z"/>
	<path fill="#6396AB" d="M72,346.1c3.8,1.3,7.6,2.3,10.9-1c0,0,0,0,0,0C78.9,341.5,75.4,343.4,72,346.1z"/>
	<path fill="#F8B87B" d="M549.8,346.3c-2.1-1.9-4.2-3.4-7.4-3.2c-3.2,0.2-4.8-0.9-5.7-3.8c0,0,0,0,0,0c-3.5-0.9-4-3.9-4.7-6.8
		c-0.7-2.8-0.8-4.1-1.2-6.2L514,337c0,0.1,0,0.3,0.1,0.4c0.6,3.6,0.5,6.5-3.2,9.1c-3.8,2.7-7.7,5.5-12.6,5.7c-1.5,0-2.9,0.5-4.1,1.4
		c-7.7,5.9-15.8,10.6-25.8,10.7c-1.2,0-2.3,0.5-3.2,1.3c-2.9,2.7-6.6,3.5-10.2,3.5c-5.7,0-11.2,1.3-16.7,2.5
		c-12.5,2.7-25.2,4.6-38.1,3.3c-7.2-0.7-7.1-1-8.9,5.7c-2.4-0.4-4.9-0.2-7.2,0.7c4.8,5.9,10,7.3,17.4,5.1c2.2-0.6,3.8,0.4,5.2,2.2
		c-3,1.8-6.2,3.1-9.6,3.8c-3.1,0.5-5,2.3-5.3,5.5c0.1,0.2,0.1,0.3,0.2,0.5c1.4,3.4,4,4.9,7.7,5.2c9.9,0.8,19.6,1.7,29.5,3.5
		c9.9,1.8,20,2.9,30,4.3c0-0.1,0-0.2,0.1-0.2c-0.1,0-0.2,0-0.4-0.1c-1.5-2.6-4.4-1.9-6.6-3c-2.2-1.1-3-1.3-2.8-3.1
		c0.2-1.8,2.1-1.9,3.5-1.9c12.2,0.5,24-2.3,36.1-3c3-0.3,5.9-1,8.6-2.2c8.8-3.3,18.1-3.7,27.1-5.4c12.4-2.3,25.1-5.2,36.5-11.4
		c0.4-0.2,0.9-0.8,1.3-0.7c8.2,1.1,15.2-3.9,23.1-4.3c4-0.2,7.3-2,10.9-3.1c0,0.2,0.1,0.4,0.1,0.7c0.1-0.2,0.2-0.4,0.3-0.6
		c1.4-2.3,3.9-3.8,6.6-3.9c2.6-0.1,3.5-1.6,3.5-3.9c-0.1,0-0.3-0.1-0.4-0.1c-8.2-2.2-16.5-3.5-25-3.9c-2.7-0.2-5.2,0.9-7,2.9
		c-8.9,9-21.3,8.8-32.4,11.9c-0.8,0.2-1.7,0.1-2.7-1.8c6.5-4.4,13.6-8.7,17.8-16c0,0,0,0,0-0.1c-0.1,0-0.1,0-0.2,0
		C555,354.1,549.1,352.3,549.8,346.3z"/>
	<path fill="#C98F7C" d="M573,333.1c-2.7,1.5-6.9,0.1-9.9-2c-0.1-0.1-0.1-0.2-0.2-0.3c0,0.1,0.1,0.2,0.1,0.2c-5,0.8-9.9,2.6-15,1
		c0,0,0,0-0.1,0c0,0,0,0.1,0.1,0.1c-4,2-7.7,4.4-11.2,7.2c0,0-0.1,0-0.1,0c0,0,0,0,0,0c0.9,2.9,2.5,4,5.7,3.8
		c3.2-0.2,5.3,1.3,7.4,3.2c5.7-1.8,11.6-2.9,17.5-1.9c4.1,0.5,8.3,0.8,12.5,0.8c0,0,0.1-0.1,0.1-0.1h5c0,0,0-0.1,0.1-0.1
		C583.2,338.8,578.3,335.8,573,333.1z"/>
	<path fill="#DC9678" d="M567.3,344.4c-5.9-1-11.8,0.1-17.5,1.9c-0.7,6,5.2,7.8,7.4,11.9c0.1,0,0.1,0,0.2,0c1.7,0.3,3.4,0.6,5.2,0.8
		c3,0.1,6.9,1.6,8.6-0.7c3.1-4.2,8.8-6.9,8.9-13.1c-0.1,0-0.2,0-0.3,0C575.6,345.2,571.4,344.9,567.3,344.4z"/>
	<path fill="#C38266" d="M594.9,332.1c-4.5,1.2-9,1.5-13.2-0.9c-4.3-2.4-5.9,0.4-8.6,1.9c0,0,0,0-0.1,0c5.3,2.7,10.2,5.7,11.9,11.9
		c0,0,0,0.1,0,0.1l23.4,1.7c0.5-3.4-2.1-5.7-1.4-8.6h0C602.2,337.8,599.5,333.1,594.9,332.1z"/>
	<path fill="#B6775B" d="M604.8,322.7c-3.2-3.4-4.4,1.1-6.8,1.4c-1.1,2.6-3,4.9-3,8c0,0,0,0-0.1,0c4.6,1,7.3,5.7,12.1,6.1h0
		c4.6,0.6,8.6-1.1,12.8-2.1c0,0,0.1,0,0.1,0c-0.6-3.6-2-6.9-3.9-9.9C611.8,326.5,608,326.1,604.8,322.7z"/>
	<path fill="#F9B149" d="M585.7,376.1c-7.9,0.4-14.9,5.4-23.1,4.3c-0.4-0.1-0.9,0.5-1.3,0.7c-11.4,6.2-24.1,9.1-36.5,11.4
		c-9,1.7-18.3,2.1-27.1,5.4c-2.7,1.2-5.6,1.9-8.6,2.2c-12.1,0.7-23.9,3.5-36.1,3c-1.4,0-3.3,0.1-3.5,1.9c-0.2,1.8,0.6,2,2.8,3.1
		c2.2,1.1,5.1,0.4,6.6,3c0.1,0,0.2,0,0.4,0.1c13.5,2.2,27,4.6,40.5,4.8c0.4,0,0.7,0,1.1,0c-3.7-3.2-8.3-2.6-12.7-3.2
		c-1.9-0.2-4.9-0.8-4.8-3.2c0.1-2.4,2.8-2.5,4.8-2.4c8.5,0.5,17.5-0.9,25.2-2.1s15.4-2.6,22.5-5.6c5.9-2.6,12.1-4.5,18.5-5.4l31.5-4
		c0-0.1,0-0.2,0-0.3c0.2-2,1.8-2.7,3.5-3.4c5.9-2.4,8.2-6.7,7.4-12.7c0-0.2-0.1-0.4-0.1-0.7C593,374.1,589.7,375.9,585.7,376.1z"/>
	<path fill="#AF7B6E" d="M560.1,314.1c0,0-0.1-0.1-0.1-0.1c0,0,0,0,0,0c-2.2,2.3-2.7,4.6,0.3,6.6s6.2,3.8,2.1,7.7
		c-0.4,0.3,0.3,1.6,0.5,2.5c0.1,0.1,0.1,0.2,0.2,0.3c3.1,2.1,7.2,3.5,9.9,2c0,0,0,0,0.1,0c2.7-1.5,4.3-4.3,8.6-1.9
		c4.3,2.4,8.8,2.1,13.2,0.9c0,0,0,0,0.1,0c0-3.1,1.9-5.4,3-8c-4-4.9-10.2-2.9-15-4.9c-0.9-0.2-1.9-0.2-2.9-0.1c0,0,0,0,0,0
		c0,0,0,0,0,0c0,0,0,0-0.1,0c0,0,0,0,0,0c-4.5-1.1-9.1-1.9-12.8-5c0,0-0.1-0.1-0.1-0.1c0,0,0,0.1,0,0.1H560.1z"/>
	<path fill="#9E6A5A" d="M580.1,319.1C580.1,319.1,580.1,319.1,580.1,319.1c1-0.1,2-0.1,2.9,0.1c4.8,2,11,0,15,4.9
		c2.4-0.3,3.6-4.8,6.8-1.4c3.2,3.4,7,3.8,11.2,3.5c0,0,0,0,0,0c1-1.1,2.5-1.9,4-2c0,0,0,0,0,0c1.1-3.3,5.6-6,5-9c0,0,0-0.1,0-0.1
		c-0.6-2.9-2.6-4.2-5.4-3.8c-7.5,1-15.2-1.9-22.5,1.3c-0.8,0.2-1.6,0.3-2.4,0.2C588.9,312.9,583.8,314.4,580.1,319.1
		C580,319.1,580,319.1,580.1,319.1C580,319.1,580,319.1,580.1,319.1z"/>
	<path fill="#9B8181" d="M557.2,304.2c3.9,2.4,3.5,6,2.8,9.8c0,0,0.1,0.1,0.1,0.1h7c0,0,0-0.1,0-0.1c-1.2-7,0.6-13.4,4.3-19.2
		c2.2-3.5,3.5-7.5,3.7-11.6L557.2,304.2z"/>
	<path fill="#455E77" d="M526.3,249.4c4.6-2.7,7.6-6.6,7.5-12.3c0,0-0.1,0-0.1,0c-5.6,2.2-9.4,8.1-16.6,7.6c0.7,4.4-1,8.2-2.2,12.3
		c0,0,0,0.1,0,0.1c0.6,1.9,1.5,2.3,3.1,1c0,0,0-0.1,0.1-0.1C519.9,254.4,522.8,251.4,526.3,249.4z"/>
	<path fill="#B48B84" d="M547.6,321.6c-4.4,3.4-1.2,6.9,0.3,10.4c0,0,0,0,0.1,0c5.1,1.6,10-0.2,15-1c0-0.1,0-0.2-0.1-0.2
		c-0.3-0.9-0.9-2.2-0.5-2.5c4.1-3.9,0.9-5.7-2.1-7.7s-2.5-4.3-0.3-6.6c0,0,0,0,0,0c0.7-3.8,1.1-7.4-2.8-9.8c0,0-0.1-0.1-0.1-0.1
		c-2.6,1.4-4.3,3.7-6.2,5.8c0,0,0,0.1,0,0.1l0,0C552.3,314.6,552.1,318.2,547.6,321.6z"/>
	<path fill="#B9A68D" d="M532,332.5c0.7,2.9,1.2,5.8,4.7,6.8c0,0,0.1,0,0.1,0c3.5-2.8,7.2-5.2,11.2-7.2c0,0,0-0.1-0.1-0.1
		c-1.5-3.5-4.8-7-0.3-10.4c4.5-3.4,4.7-7,3.3-11.6l0,0l-20.1,16.2c0,0.1,0,0.1,0,0.1C531.2,328.4,531.3,329.7,532,332.5z"/>
	<path fill="#5D7991" d="M516.7,275.1c0.5-4.8,3.7-8.8,4-13.6c0-0.1,0-0.3,0-0.4c-3.4,3-7.1,5.2-9.8,9.1c-2.7,3.9-4.6,6.6-8.9,1.8
		c-1.7,2.3-2.3,8.6-6.1,3.5c-3.8-5.1-8.4-3.9-12.5-3.1c-7.7,1.6-13.7-0.7-19.2-5.6c-1.9-1.8-4.6-1.3-5.8-0.6
		c-1.1,0.7-1.8,2.5-3.6,1.8c-0.1,0-0.2-0.1-0.2-0.1c-7.6,0.9-13.4,5.9-14.9,13c0,0,0,0.1,0.1,0.1c4.5,5.5,10.7-1,15,2.6
		c1.7-2.2-1.4-4.7,2.1-6.6c0.7,4,3.3,4.3,6.5,3.2c0.1,0,0.2,0,0.3-0.1c1-0.1,1.9,0.6,2,1.6c0.6,2.1,1.2,1.8,3.6,1.5
		c2.4-0.3,3.2,0,7-0.5s5.2,0.7,2.9,4.1c-2.3,3.4-1.7,5.7,0.8,8.3c3,0,5.9,0.2,8.4-1.3c9.9-5.3,18.6-12.5,28-18.5c0,0,0,0,0,0
		C516.5,275.2,516.6,275.2,516.7,275.1z"/>
	<path fill="#F8B87B" d="M307,397.3c-0.9-5.8,2.6-10.7,3.7-16.1l0,0c-1.3-1.4-2.9-4.7-4.4-3.4c-1.5,1.3-2.2,4.1-4.5,4.1
		c-5.3,0-9.8,2.8-14.9,3.3c0,0-0.1,0.1-0.1,0.1c-2.5,2.4-10,1.5-5,8.3c-1.7,1-3.7,0.2-4.9,1.6c0,0,0,0,0,0c2.6,3.2,6.4,4.8,10.2,4
		c5.2-1.3,10.8-0.9,15.8,1.1c1.3,0.5,2.3,0.1,4.4,0.6s2.7-0.6,2.8-2.4c0,0,0-0.1,0-0.1c0,0-0.1,0-0.1,0
		C309.6,396.5,308,398,307,397.3z"/>
	<path fill="#F8B87B" d="M341.7,390.4c1.3-2.8,3.4-8.1,5.2-12.1c0,0,0,0,0-0.1c-4.3-4.3-4.3-4.3-8.5,0.6c-2,2.3-4.4,2.3-7.1,1.3
		c-4.9-1.9-9.3-1.3-12.6,3.3c1.9,3.8,4.7,4.8,8.5,2.6c2.1-1.2,4.3-1.7,6.5,0.3c-2.3,5.1-12.1,5.3-8.9,13.8h0l0,0
		c1.4,0.6,3.2,1.8,4.2,0.8c3.4-3.5,7.3-1.9,11.1-1.8c0-0.1,0.1-0.1,0.1-0.2C339.2,395.9,340.4,393.2,341.7,390.4z"/>
	<path fill="#5B3226" d="M380.1,379.4C380.1,379.4,380.1,379.4,380.1,379.4c0,0.1,0.1,0.1,0.1,0.2c-0.1,0.1-0.2,0.3-0.2,0.4
		c1,7.3-4.8,12.5-6,19.1c0,0,0,0,0,0c2,0.8,4.7,2.4,6,1.2c3.7-3,7.8-1.9,11.8-2.3c0,0,0-0.1,0-0.1c0.3-3.2,2.2-5,5.3-5.5
		c3.4-0.7,6.6-2,9.6-3.8c-1.4-1.8-3-2.8-5.2-2.2c-7.4,2.2-12.6,0.8-17.4-5.1C383.2,379.7,382.3,378.4,380.1,379.4z"/>
	<path fill="#F8B87B" d="M380,380c0-0.1,0.1-0.3,0.2-0.4c0-0.1-0.1-0.1-0.2-0.2c-0.7-0.8-1.8-1.2-2.8-1c-4.1,0.5-7.1,2.8-9.9,5.6
		c-0.1,0-0.1,0.1-0.2,0.1c0.1,0,0.1,0,0.2,0c-0.4,3-2.8,4.6-5,5.5c-2.2,0.9-5,3.8-4.5,7.4c7.7,5.8,9.9,6.1,16.2,2.1c0,0,0,0,0,0
		C375.2,392.5,381,387.3,380,380z"/>
	<path fill="#5B3226" d="M333.7,386.3c-2.2-2-4.4-1.5-6.5-0.3c-3.8,2.2-6.6,1.2-8.5-2.6c-4,0.8-2.4-3.8-4.6-5l-3.4,2.8l0,0
		c-1.1,5.4-4.6,10.3-3.7,16.1c1,0.7,2.6-0.8,3,1.1c0,0,0.1,0,0.1,0c2.5-1.4,4.9-1.4,7.2,0.2c2.3,1.7,4.8,1.9,7.5,1.5h0
		C321.6,391.6,331.4,391.4,333.7,386.3z"/>
	<path fill="#5B3226" d="M362.3,389.6c2.2-0.9,4.6-2.5,5-5.5c-0.1,0-0.1,0-0.2,0c-2-0.3-4-1.5-5.7,1.3c-1.8,2.9-3.5,1.5-5.7,0.5
		c-3.8-1.7-5.3-5.8-8.7-7.8c0,0.1,0,0.1-0.1,0.2c-1.8,4.1-3.9,9.4-5.2,12.1c-1.3,2.8-2.5,5.5-1.5,8.5c0,0,0,0,0,0.1
		c2.9,0.8,4.1-3.9,7.8-1.6c3.7,2.3,6.6,0.7,9.8-0.4C357.3,393.4,360.1,390.5,362.3,389.6z"/>
	
		<line fill="none" stroke="#A1ACB3" stroke-width="0" stroke-linecap="round" stroke-linejoin="round" x1="392" y1="323.1" x2="391.7" y2="323.4"/>
</g>
</svg>
