<?xml version="1.0" encoding="UTF-8" standalone="no"?>
<svg
   xmlns:dc="http://purl.org/dc/elements/1.1/"
   xmlns:cc="http://creativecommons.org/ns#"
   xmlns:rdf="http://www.w3.org/1999/02/22-rdf-syntax-ns#"
   xmlns:svg="http://www.w3.org/2000/svg"
   xmlns="http://www.w3.org/2000/svg"
   xmlns:sodipodi="http://sodipodi.sourceforge.net/DTD/sodipodi-0.dtd"
   xmlns:inkscape="http://www.inkscape.org/namespaces/inkscape"
   version="1.0"
   width="850.000000pt"
   height="850.000000pt"
   viewBox="0 0 850.000000 850.000000"
   preserveAspectRatio="xMidYMid meet"
   id="svg2"
   inkscape:version="0.91 r13725"
   sodipodi:docname="Scenery_20170421_339.svg">
  <defs
     id="defs542" />
  <sodipodi:namedview
     pagecolor="#ffffff"
     bordercolor="#666666"
     borderopacity="1"
     objecttolerance="10"
     gridtolerance="10"
     guidetolerance="10"
     inkscape:pageopacity="0"
     inkscape:pageshadow="2"
     inkscape:window-width="1920"
     inkscape:window-height="980"
     id="namedview540"
     showgrid="false"
     inkscape:zoom="1.2564872"
     inkscape:cx="601.57266"
     inkscape:cy="364.43158"
     inkscape:window-x="0"
     inkscape:window-y="1"
     inkscape:window-maximized="1"
     inkscape:current-layer="svg2" />
  <metadata
     id="metadata4">
Created by potrace 1.14, written by Peter Selinger 2001-2017
<rdf:RDF>
  <cc:Work
     rdf:about="">
    <dc:format>image/svg+xml</dc:format>
    <dc:type
       rdf:resource="http://purl.org/dc/dcmitype/StillImage" />
  </cc:Work>
</rdf:RDF>
</metadata>
  <g
     transform="translate(0.000000,850.000000) scale(0.100000,-0.100000)"
     fill="#000000"
     stroke="none"
     id="g6">
    <path
       d="M0 6488 l0 -2013 158 -67 c86 -37 225 -97 307 -133 188 -83 242 -105 258 -105 7 0 98 66 202 147 380 294 396 305 424 300 14 -2 69 -12 121 -22 206 -37 427 17 595 146 35 27 67 49 71 49 4 0 180 -116 391 -257 l384 -257 32 19 c18 10 304 200 637 420 333 221 620 410 638 420 39 23 17 35 292 -148 107 -71 249 -161 315 -200 219 -129 230 -132 303 -101 30 13 86 18 294 22 141 2 268 2 282 -2 24 -6 26 -11 26 -61 l0 -55 118 0 c66 0 160 -3 210 -6 l92 -7 0 -47 0 -47 -61 -7 c-34 -3 -180 -6 -324 -6 l-262 0 -23 25 c-22 23 -30 25 -119 25 -111 0 -111 0 11 -77 141 -88 402 -253 526 -334 68 -43 125 -79 127 -79 21 0 640 399 790 509 80 59 69 58 250 10 301 -81 509 -192 664 -352 l43 -45 77 33 c42 18 171 74 286 125 116 50 245 105 288 122 l77 31 0 2019 0 2018 -4250 0 -4250 0 0 -2012z m6360 -454 l0 -177 -40 6 c-50 6 -80 26 -117 74 -24 31 -28 46 -28 98 0 52 4 67 29 99 36 48 82 76 124 76 l32 0 0 -176z m-2077 -181 c0 -13 -1 -39 -2 -58 l-1 -35 -225 0 -225 0 0 -66 0 -65 -308 3 c-257 2 -312 6 -327 18 -14 12 -62 16 -230 20 -228 5 -245 9 -245 58 0 14 7 34 17 44 14 16 35 18 210 18 162 0 200 3 231 17 28 13 76 19 199 23 152 5 164 7 185 28 l23 22 350 -2 349 -3 -1 -22z m3890 -189 l77 -7 0 -53 0 -54 -87 0 c-49 0 -152 -3 -229 -7 l-141 -6 1 -58 1 -59 -298 0 c-242 0 -304 3 -334 15 -27 11 -78 15 -218 15 -101 0 -195 5 -212 10 -39 14 -56 48 -39 81 10 21 20 25 86 30 41 4 137 7 213 8 96 1 146 5 165 15 18 9 83 16 187 21 134 6 163 10 180 25 11 10 36 20 55 23 59 7 513 7 593 1z m-6503 -123 l0 -60 -231 -1 c-128 0 -236 -3 -240 -6 -5 -3 -9 -39 -9 -80 l0 -74 -399 0 -400 0 -20 26 c-27 34 -27 64 0 98 l20 26 229 0 228 0 6 23 c8 35 45 78 80 93 24 10 111 13 384 14 l352 0 0 -59z m4260 -41 l0 -60 -335 0 -335 0 0 -25 0 -25 -108 0 c-60 0 -185 -3 -278 -7 -234 -10 -155 -22 149 -22 l237 -1 0 -41 0 -40 -366 3 -366 3 -29 33 c-41 46 -41 108 0 154 l29 33 325 3 324 3 23 25 23 24 354 0 353 0 0 -60z m-520 -140 c40 -40 12 -100 -47 -100 -22 0 -53 33 -53 58 0 18 46 62 65 62 8 0 24 -9 35 -20z m790 -40 l0 -40 -344 0 c-189 0 -351 3 -360 6 -21 8 -20 50 2 63 10 7 146 11 360 11 l342 0 0 -40z m-2799 -252 c4 -14 4 -47 2 -72 -5 -43 -8 -46 -34 -46 -17 0 -37 -9 -46 -20 -16 -18 -30 -20 -146 -20 -121 0 -129 -1 -134 -20 -5 -21 -11 -21 -263 -18 -237 3 -260 5 -279 22 -26 24 -26 31 -1 56 16 16 33 20 88 20 64 0 70 2 90 29 l21 29 176 7 176 7 29 29 29 30 142 -3 143 -3 7 -27z m2701 -335 c22 -20 23 -42 2 -71 -14 -21 -23 -22 -134 -22 -129 0 -150 8 -150 55 0 47 22 55 147 55 94 0 120 -3 135 -17z"
       id="path8"
       style="fill:none" />
    <path
       d="M6275 6171 c-53 -32 -68 -58 -73 -120 -6 -86 34 -147 111 -166 l27 -7 0 156 c0 173 -2 177 -65 137z"
       id="path10"
       style="fill:none" />
    <path
       d="M3614 5853 c-12 -2 -30 -13 -40 -24 -15 -17 -31 -19 -168 -19 -132 0 -156 -3 -189 -20 -33 -18 -57 -20 -224 -21 -226 -2 -248 -5 -248 -39 0 -21 6 -26 40 -32 22 -4 121 -7 220 -8 163 0 182 -2 205 -20 23 -18 43 -20 313 -20 l287 0 0 65 0 65 223 2 222 3 3 38 3 37 -313 -1 c-172 -1 -323 -4 -334 -6z"
       id="path12"
       style="fill:#ffccff" />
    <path
       d="M7540 5615 l-13 -25 -161 0 c-138 0 -165 -3 -186 -17 -21 -16 -54 -18 -225 -21 -226 -3 -245 -5 -245 -30 0 -39 18 -42 212 -42 163 0 196 -3 245 -20 52 -18 83 -20 330 -20 l273 0 5 23 c4 13 5 27 4 33 -1 5 -1 24 0 42 l1 32 225 0 225 0 0 35 0 35 -338 0 -339 0 -13 -25z"
       id="path14"
       style="fill:#ccffcc" />
    <path
       d="M1016 5571 c-81 -6 -90 -9 -113 -35 -13 -15 -26 -41 -29 -56 l-6 -27 -151 -6 c-82 -4 -182 -7 -221 -7 -106 0 -116 -5 -116 -51 0 -35 2 -39 33 -44 17 -3 194 -4 392 -3 l360 3 3 78 3 77 234 0 235 0 0 40 0 40 -267 -2 c-148 0 -308 -4 -357 -7z"
       id="path16"
       style="fill:#ccffcc" />
    <path
       d="M5222 5516 l-11 -25 -336 -3 -337 -3 -24 -28 c-32 -37 -32 -90 0 -121 31 -32 116 -38 448 -34 240 3 282 7 264 26 -4 4 -133 8 -286 10 l-278 3 7 27 7 27 280 5 279 5 0 25 0 25 335 5 335 5 0 35 0 35 -336 3 -336 2 -11 -24z"
       id="path18"
       style="fill:#ccccff" />
    <path
       d="M5347 5343 c-12 -11 -8 -40 7 -52 28 -23 68 17 45 45 -12 15 -41 19 -52 7z"
       id="path20"
       style="fill:none" />
    <path
       d="M5517 5333 c-10 -3 -16 -10 -14 -16 3 -9 95 -13 340 -15 332 -2 337 -2 337 18 0 20 -6 20 -322 19 -178 -1 -331 -3 -341 -6z"
       id="path22"
       style="fill:#ccffff" />
    <path
       d="M3130 5071 c-23 -4 -38 -14 -45 -28 -12 -29 -40 -33 -222 -33 l-154 0 -17 -29 c-15 -27 -23 -31 -82 -36 -95 -9 -95 -9 -95 -25 0 -13 36 -15 244 -18 223 -2 245 -1 256 15 12 16 30 18 138 18 105 0 128 3 144 18 11 9 34 17 51 17 l32 0 0 55 0 55 -107 -1 c-60 -1 -124 -4 -143 -8z"
       id="path24"
       style="fill:#ffccff" />
    <path
       d="M5857 4723 c-30 -8 -17 -47 18 -54 40 -9 164 -9 195 0 35 10 38 39 5 51 -26 10 -183 12 -218 3z"
       id="path26"
       style="fill:#ccffff" />
    <path
       d="M4172 4993 c-119 -192 -119 -192 -103 -202 15 -9 371 -98 432 -107 31 -5 56 3 148 46 61 29 108 57 105 61 -7 12 -484 329 -494 329 -5 0 -44 -57 -88 -127z"
       id="path28"
       style="fill:#009900" />
    <path
       d="M3915 4908 c-208 -139 -262 -179 -235 -175 19 3 103 18 187 33 l152 28 78 125 c42 69 83 136 91 149 8 12 10 22 6 21 -5 0 -130 -81 -279 -181z"
       id="path30"
       style="fill:#009900" />
    <path
       d="M3793 4728 l-202 -38 -128 -83 c-71 -46 -343 -226 -606 -401 l-478 -317 18 -28 c41 -62 54 -76 61 -65 59 89 167 234 173 234 5 0 24 -22 41 -50 18 -27 36 -50 40 -50 6 0 320 205 573 373 129 85 217 138 223 132 7 -7 51 -308 52 -353 0 -18 -22 -82 -50 -143 -27 -61 -50 -116 -50 -123 0 -7 12 -24 28 -39 l27 -26 93 140 c51 76 97 139 102 139 5 0 41 -47 82 -105 40 -57 75 -104 78 -105 3 0 11 19 17 43 27 97 132 164 219 139 22 -6 48 -13 59 -16 17 -5 30 15 98 150 l79 156 -109 111 c-59 61 -126 129 -148 151 -22 23 -60 62 -84 88 l-43 48 21 36 c12 20 21 37 19 38 -2 1 -94 -15 -205 -36z"
       id="path32"
       style="fill:#009933" />
    <path
       d="M4028 4753 c-34 -39 -37 -57 -16 -83 11 -14 96 -102 189 -197 l170 -172 -86 -171 -86 -172 22 -24 c12 -13 27 -47 33 -75 l12 -53 79 112 c43 62 82 112 86 112 7 0 104 -132 173 -234 14 -21 14 -21 36 7 51 64 162 87 238 48 77 -39 102 -92 103 -223 0 -76 2 -90 12 -75 59 89 149 212 156 212 10 0 58 -61 120 -153 23 -35 44 -62 46 -60 2 2 5 41 6 88 3 115 14 159 51 197 84 87 204 84 288 -7 l37 -40 83 120 c46 66 87 120 91 120 9 0 51 -54 115 -149 l49 -73 14 48 c7 27 21 60 31 74 l18 25 -157 98 c-86 54 -320 204 -521 332 -201 129 -419 268 -486 309 l-121 76 -39 -14 c-22 -7 -86 -34 -144 -59 l-105 -46 -225 55 c-124 30 -232 57 -241 59 -9 3 -23 -3 -31 -12z"
       id="path34"
       style="fill:#009933" />
    <path
       d="M2079 4721 c-45 -38 -148 -94 -221 -121 -38 -14 -58 -27 -58 -38 0 -44 95 -182 126 -182 24 0 87 36 116 67 48 51 71 110 76 192 6 113 4 118 -39 82z"
       id="path36"
       style="fill:#336600" />
    <path
       d="M2170 4734 c0 -7 46 -112 158 -360 55 -123 84 -176 102 -186 14 -9 58 -37 98 -63 66 -43 76 -47 99 -36 51 23 253 163 248 171 -16 26 -705 489 -705 474z"
       id="path38"
       style="fill:#339933" />
    <path
       d="M2147 4638 c-13 -124 -86 -238 -173 -270 -19 -6 -33 -15 -32 -18 12 -27 244 -410 249 -410 3 0 19 20 37 45 17 25 36 45 41 45 5 0 22 -18 38 -41 63 -91 46 -90 158 -14 55 37 104 71 109 75 4 5 -37 38 -91 75 l-100 66 -108 242 c-59 133 -110 246 -115 250 -4 4 -10 -16 -13 -45z"
       id="path40"
       style="fill:#336600" />
    <path
       d="M5180 4680 c-19 -5 -36 -13 -38 -19 -2 -6 -19 -11 -38 -11 -19 0 -34 -4 -34 -8 0 -11 93 -62 113 -62 9 0 19 -9 22 -20 6 -19 15 -20 138 -20 121 0 133 -2 145 -20 12 -19 23 -20 327 -20 l315 0 0 30 c0 24 -4 30 -22 31 -13 1 -108 4 -213 8 l-190 6 -1 25 c0 14 -1 40 -2 58 l-2 32 -242 -1 c-134 -1 -259 -5 -278 -9z"
       id="path42"
       style="fill:#ccffff" />
    <path
       d="M1371 4581 c1 -11 115 -102 164 -131 67 -40 155 -68 244 -79 104 -13 108 -9 62 55 -21 30 -45 74 -52 98 l-13 45 -150 -1 c-83 0 -175 5 -203 10 -29 5 -53 6 -52 3z"
       id="path44"
       style="fill:#336600" />
    <path
       d="M1256 4451 c-36 -71 -66 -136 -66 -143 0 -8 15 -25 33 -38 65 -48 197 -165 197 -175 0 -5 -25 -52 -54 -103 l-54 -94 31 -49 c16 -27 33 -49 36 -49 4 0 15 15 26 33 33 56 136 197 144 197 4 0 41 -48 82 -106 41 -59 78 -112 82 -118 6 -8 10 -7 14 2 10 25 66 83 94 98 16 8 56 14 92 14 73 0 116 -22 155 -80 13 -19 26 -36 30 -37 11 -4 74 97 70 112 -2 7 -59 107 -128 223 l-125 211 -60 -6 c-150 -13 -370 80 -489 206 -17 17 -33 31 -37 31 -4 0 -36 -58 -73 -129z"
       id="path46"
       style="fill:#336600" />
    <path
       d="M6930 4553 c0 -3 24 -36 54 -73 49 -60 59 -67 107 -78 87 -19 432 -73 436 -68 8 8 -220 113 -312 144 -101 35 -285 83 -285 75z"
       id="path48"
       style="fill:#009900" />
    <path
       d="M1000 4344 c-146 -113 -307 -238 -358 -276 l-93 -71 36 -29 c41 -34 59 -67 69 -121 4 -21 10 -35 15 -33 4 3 33 42 64 88 31 46 66 94 77 108 l20 25 20 -25 c11 -14 48 -67 82 -117 35 -51 66 -92 70 -90 4 1 17 18 30 37 13 19 39 45 58 58 30 20 45 23 118 21 94 -2 87 -7 147 103 20 37 33 72 30 78 -3 6 -58 53 -121 105 l-114 96 66 124 c36 69 62 125 57 125 -4 -1 -127 -93 -273 -206z"
       id="path50"
       style="fill:#339933" />
    <path
       d="M6830 4518 c-25 -17 -88 -60 -140 -96 -102 -69 -132 -93 -127 -99 2 -2 48 6 103 16 54 11 152 29 217 41 64 13 117 25 117 29 0 18 -101 141 -116 141 -5 0 -29 -15 -54 -32z"
       id="path52"
       style="fill:#009900" />
    <path
       d="M1 4158 c0 -238 3 -299 12 -284 47 73 109 156 117 156 5 0 40 -43 77 -96 l67 -96 11 31 c27 81 109 140 195 141 32 1 55 8 82 28 21 15 60 43 88 62 27 19 50 38 50 41 0 3 -33 20 -72 37 -40 17 -136 59 -213 92 -77 34 -192 84 -255 111 -63 28 -125 57 -137 65 l-23 14 1 -302z"
       id="path54"
       style="fill:#003300" />
    <path
       d="M8420 4408 c-36 -16 -146 -65 -245 -108 -340 -146 -375 -162 -375 -170 0 -10 176 -150 188 -150 5 0 14 11 20 25 6 14 17 25 24 25 7 -1 33 -30 58 -66 38 -54 92 -104 112 -104 3 0 11 13 18 30 7 16 32 48 57 71 l44 41 72 -4 c40 -2 80 -8 90 -12 16 -8 17 6 17 223 0 127 -3 231 -7 230 -5 0 -37 -14 -73 -31z"
       id="path56"
       style="fill:#003300" />
    <path
       d="M3112 4161 c-204 -136 -375 -250 -378 -253 -3 -4 16 -38 41 -76 l47 -71 2 -178 1 -178 67 -19 c37 -11 70 -17 73 -15 3 3 6 18 7 32 2 26 5 27 55 27 l53 0 0 -42 c0 -54 8 -66 47 -74 l31 -6 3 199 c4 199 4 200 32 240 42 61 94 86 173 81 l64 -3 55 115 c30 63 55 126 55 139 0 21 -49 323 -53 327 -1 1 -170 -109 -375 -245z"
       id="path58"
       style="fill:#009966" />
    <path
       d="M6865 4354 c-66 -13 -180 -35 -253 -49 -132 -25 -133 -25 -250 -98 -64 -41 -157 -98 -207 -127 -49 -30 -94 -57 -99 -61 -5 -4 6 -16 23 -27 32 -19 33 -19 91 0 55 19 61 19 113 4 72 -21 120 -73 136 -145 6 -29 11 -60 11 -69 1 -11 59 -53 164 -118 l164 -102 6 41 c14 84 80 150 163 163 l42 6 -64 77 c-36 42 -65 81 -65 88 0 7 35 54 78 104 169 201 195 238 181 257 -37 48 -75 82 -93 81 -12 -1 -75 -12 -141 -25z"
       id="path60"
       style="fill:#006600" />
    <path
       d="M7080 4364 c8 -10 27 -34 42 -52 l28 -33 -66 -77 c-96 -112 -214 -260 -214 -270 0 -15 137 -158 190 -198 29 -22 59 -56 71 -81 22 -45 78 -98 244 -231 96 -77 100 -79 107 -56 3 13 7 117 7 231 2 202 2 209 26 244 38 58 85 82 161 81 39 0 74 -6 87 -15 34 -22 87 -79 87 -94 0 -28 20 -10 70 63 29 42 48 80 43 84 -4 4 -39 33 -78 65 -38 31 -97 82 -130 113 -33 31 -83 78 -111 105 l-50 48 -195 33 c-107 19 -216 37 -244 41 -27 3 -59 9 -70 12 -18 5 -19 4 -5 -13z"
       id="path62"
       style="fill:#006633" />
    <path
       d="M380 3958 c-19 -13 -43 -39 -54 -58 -20 -33 -21 -53 -24 -354 l-2 -318 34 -43 c35 -42 101 -83 114 -70 4 4 7 199 7 433 0 422 0 427 -20 430 -12 2 -36 -7 -55 -20z"
       id="path64"
       style="fill:#66ff00" />
    <path
       d="M492 3963 c-12 -31 -8 -831 4 -843 16 -16 87 32 117 79 22 35 22 42 22 346 0 349 -2 362 -74 411 -42 29 -59 30 -69 7z"
       id="path66"
       style="fill:#66ff00" />
    <path
       d="M3627 3880 l-67 -100 70 0 70 0 0 100 c0 55 -1 100 -2 100 -2 0 -33 -45 -71 -100z"
       id="path68"
       style="fill:#cc6600" />
    <path
       d="M3985 3959 c-79 -56 -90 -121 -80 -484 6 -228 8 -253 27 -283 27 -43 96 -88 112 -72 8 8 12 136 14 435 l3 425 -23 0 c-13 0 -37 -10 -53 -21z"
       id="path70"
       style="fill:#669900" />
    <path
       d="M4090 3545 c0 -239 2 -435 5 -435 3 0 22 9 43 19 51 26 82 62 93 108 5 21 9 169 8 328 0 281 -1 292 -22 330 -24 42 -78 85 -108 85 -18 0 -19 -18 -19 -435z"
       id="path72"
       style="fill:#669900" />
    <path
       d="M6149 3957 c-61 -41 -76 -75 -84 -193 -4 -59 -6 -202 -3 -318 4 -206 5 -212 30 -252 26 -40 101 -89 120 -78 9 6 11 824 2 848 -8 22 -25 20 -65 -7z"
       id="path74"
       style="fill:#66cc00" />
    <path
       d="M6253 3968 c-12 -19 -16 -839 -4 -851 15 -15 80 22 115 66 l31 39 0 316 c0 356 -1 365 -68 413 -44 32 -62 36 -74 17z"
       id="path76"
       style="fill:#66cc00" />
    <path
       d="M8297 3949 c-67 -55 -67 -53 -67 -400 0 -295 1 -313 21 -348 20 -37 66 -74 107 -86 l22 -6 0 435 0 436 -23 0 c-12 0 -39 -14 -60 -31z"
       id="path78"
       style="fill:#999933" />
    <path
       d="M8416 3958 c-10 -39 -7 -795 4 -822 9 -26 10 -26 45 -9 l35 17 0 406 0 406 -33 12 c-44 16 -44 16 -51 -10z"
       id="path80"
       style="fill:#999933" />
    <path
       d="M60 3905 c-25 -36 -48 -65 -52 -65 -5 0 -8 -16 -8 -35 l0 -36 58 3 57 3 3 76 c1 41 -1 85 -5 96 -7 20 -13 15 -53 -42z"
       id="path82"
       style="fill:#cc3333" />
    <path
       d="M143 3873 l2 -98 59 2 c32 1 61 4 64 7 6 6 -110 186 -120 186 -3 0 -6 -44 -5 -97z"
       id="path84"
       style="fill:#cc3333" />
    <path
       d="M743 3876 c-35 -51 -63 -96 -63 -100 0 -4 30 -6 68 -4 l67 3 3 98 c1 53 -1 97 -5 97 -4 0 -36 -42 -70 -94z"
       id="path86"
       style="fill:#cc3333" />
    <path
       d="M840 3875 c0 -110 1 -111 85 -100 l55 6 -63 94 c-34 52 -65 94 -69 94 -5 1 -8 -42 -8 -94z"
       id="path88"
       style="fill:#cc3333" />
    <path
       d="M1463 3876 l-63 -91 61 -3 c34 -2 63 -1 66 1 2 3 2 45 1 94 l-3 90 -62 -91z"
       id="path90"
       style="fill:#3366ff" />
    <path
       d="M1560 3875 c0 -110 1 -111 85 -100 l55 6 -63 94 c-34 52 -65 94 -69 94 -5 1 -8 -42 -8 -94z"
       id="path92"
       style="fill:#3366ff" />
    <path
       d="M2195 3894 c-27 -41 -56 -83 -63 -94 -12 -17 -10 -19 42 -25 85 -11 86 -10 86 100 0 52 -3 95 -7 95 -5 -1 -30 -35 -58 -76z"
       id="path94"
       style="fill:#cc3333" />
    <path
       d="M2601 3965 c0 -6 -28 -48 -62 -95 l-60 -85 62 -3 c34 -2 66 1 72 7 6 6 6 40 0 98 -6 48 -11 83 -12 78z"
       id="path96"
       style="fill:#3366ff" />
    <path
       d="M2640 3875 c0 -110 1 -111 86 -100 52 6 54 8 42 25 -7 11 -35 53 -63 94 -27 41 -53 75 -57 76 -5 0 -8 -43 -8 -95z"
       id="path98"
       style="fill:#3366ff" />
    <path
       d="M3722 3873 l3 -98 68 -3 c37 -2 67 1 67 5 0 13 -124 193 -133 193 -4 0 -6 -44 -5 -97z"
       id="path100"
       style="fill:#cc6600" />
    <path
       d="M4377 3923 c-52 -74 -97 -141 -97 -147 0 -3 32 -6 70 -6 l70 0 0 100 c0 55 -2 100 -4 100 -2 0 -20 -21 -39 -47z"
       id="path102"
       style="fill:#990099" />
    <path
       d="M4444 3873 l1 -98 30 -3 c17 -2 47 1 68 5 l38 8 -63 92 c-35 51 -66 93 -69 93 -3 0 -6 -44 -5 -97z"
       id="path104"
       style="fill:#990099" />
    <path
       d="M5843 3958 c-6 -7 -35 -50 -66 -95 l-57 -82 55 -6 c84 -11 85 -10 85 100 0 52 -2 95 -4 95 -2 0 -8 -6 -13 -12z"
       id="path106"
       style="fill:#0099ff" />
    <path
       d="M5884 3873 l1 -98 45 -3 c25 -2 56 1 68 5 21 8 20 11 -38 98 -33 50 -64 91 -68 93 -5 1 -9 -41 -8 -95z"
       id="path108"
       style="fill:#0099ff" />
    <path
       d="M7947 3876 c-37 -52 -67 -98 -67 -101 0 -3 33 -5 73 -3 l72 3 3 89 c2 49 -1 93 -6 98 -5 5 -38 -33 -75 -86z"
       id="path110"
       style="fill:#3300ff" />
    <path
       d="M8045 3919 c-4 -30 -5 -74 -3 -99 l3 -45 68 -3 c46 -2 67 1 67 9 0 10 -96 156 -120 183 -5 4 -11 -16 -15 -45z"
       id="path112"
       style="fill:#3300ff" />
    <path
       d="M2285 3909 c-4 -30 -5 -72 -3 -94 3 -38 5 -40 40 -43 20 -2 50 1 66 5 l30 8 -53 79 c-73 108 -72 107 -80 45z"
       id="path114"
       style="fill:#cc3333" />
    <path
       d="M1109 3882 c-75 -48 -75 -50 -84 -304 -9 -278 -3 -358 32 -399 24 -28 90 -69 113 -69 11 0 15 755 4 784 -8 21 -13 21 -65 -12z"
       id="path116"
       style="fill:#66ff00" />
    <path
       d="M1206 3903 c-11 -11 -7 -781 4 -788 19 -12 84 31 115 74 l30 43 0 276 c0 270 -1 278 -23 313 -12 20 -28 42 -35 48 -21 17 -84 41 -91 34z"
       id="path118"
       style="fill:#66ff00" />
    <path
       d="M1845 3893 c-44 -23 -65 -44 -86 -85 -17 -34 -19 -62 -19 -300 0 -254 1 -264 23 -303 21 -37 89 -94 113 -95 7 0 14 10 18 23 8 29 8 725 0 755 -7 26 -10 26 -49 5z"
       id="path120"
       style="fill:#66cc00" />
    <path
       d="M7588 3877 c-76 -58 -79 -69 -80 -369 0 -303 3 -317 81 -369 72 -47 71 -53 71 365 0 349 -3 406 -20 406 -5 0 -28 -15 -52 -33z"
       id="path122"
       style="fill:#669900" />
    <path
       d="M7697 3903 c-10 -10 -8 -766 2 -781 16 -26 99 35 131 97 8 16 12 102 12 293 l0 270 -29 41 c-29 42 -104 93 -116 80z"
       id="path124"
       style="fill:#669900" />
    <path
       d="M1926 3884 c-3 -9 -6 -187 -6 -395 l0 -380 23 7 c48 15 78 36 104 75 l27 40 -1 279 c0 257 -2 281 -20 312 -35 60 -113 98 -127 62z"
       id="path126"
       style="fill:#66cc00" />
    <path
       d="M5443 3860 c-29 -13 -52 -34 -73 -67 l-31 -48 3 -256 3 -256 28 -41 c32 -49 105 -92 118 -70 11 16 12 758 2 758 -5 0 -27 -9 -50 -20z"
       id="path128"
       style="fill:#999933" />
    <path
       d="M5522 3507 c2 -264 6 -379 14 -387 24 -24 111 45 133 103 13 33 17 452 6 512 -15 78 -55 122 -128 140 l-28 7 3 -375z"
       id="path130"
       style="fill:#999933" />
    <path
       d="M4709 3827 c-18 -12 -44 -38 -56 -56 -22 -33 -23 -40 -23 -291 0 -251 1 -258 23 -291 24 -35 103 -86 115 -74 4 4 8 171 10 371 3 351 2 364 -16 364 -11 0 -34 -10 -53 -23z"
       id="path132"
       style="fill:#99ff00" />
    <path
       d="M4800 3485 c0 -399 -1 -392 57 -362 38 20 69 55 88 99 12 30 15 82 15 262 0 134 -4 236 -11 253 -19 52 -94 113 -139 113 -7 0 -10 -121 -10 -365z"
       id="path134"
       style="fill:#99ff00" />
    <path
       d="M8180 3825 c7 -9 15 -13 17 -11 7 7 -7 26 -19 26 -6 0 -6 -6 2 -15z"
       id="path136"
       style="fill:#3300ff" />
    <path
       d="M3285 3798 c-32 -17 -76 -61 -90 -89 -10 -19 -14 -85 -14 -265 -1 -249 5 -300 37 -343 22 -30 100 -77 110 -66 4 4 7 178 7 388 0 411 1 404 -50 375z"
       id="path138"
       style="fill:#66cc00" />
    <path
       d="M3365 3745 c-9 -77 -2 -701 7 -710 9 -9 79 29 105 57 36 38 43 98 40 358 -2 218 -4 248 -20 275 -20 32 -67 69 -104 79 -20 6 -22 2 -28 -59z"
       id="path140"
       style="fill:#66cc00" />
    <path
       d="M0 3668 l0 -82 36 60 c19 32 42 66 50 75 22 25 17 29 -36 29 l-50 0 0 -82z"
       id="path142"
       style="fill:#cc3333" />
    <path
       d="M160 3744 c0 -7 101 -154 106 -154 2 0 4 36 4 80 l0 80 -55 0 c-30 0 -55 -3 -55 -6z"
       id="path144"
       style="fill:#cc3333" />
    <path
       d="M660 3648 c0 -87 2 -100 14 -88 17 19 126 179 126 185 0 3 -31 5 -70 5 l-70 0 0 -102z"
       id="path146"
       style="fill:#cc3333" />
    <path
       d="M860 3745 c0 -3 29 -49 64 -102 74 -110 79 -108 74 27 l-3 75 -67 3 c-38 2 -68 0 -68 -3z"
       id="path148"
       style="fill:#cc3333" />
    <path
       d="M1380 3643 l0 -107 70 101 c39 56 70 104 70 107 0 3 -31 6 -70 6 l-70 0 0 -107z"
       id="path150"
       style="fill:#3366ff" />
    <path
       d="M1583 3737 c9 -25 120 -177 129 -177 4 0 8 43 8 95 l0 95 -71 0 c-55 0 -70 -3 -66 -13z"
       id="path152"
       style="fill:#3366ff" />
    <path
       d="M2100 3655 c0 -52 4 -95 8 -95 9 0 120 152 129 177 4 10 -11 13 -66 13 l-71 0 0 -95z"
       id="path154"
       style="fill:#cc3333" />
    <path
       d="M2303 3736 c7 -16 127 -186 133 -186 2 0 4 45 4 100 l0 100 -71 0 c-56 0 -70 -3 -66 -14z"
       id="path156"
       style="fill:#cc3333" />
    <path
       d="M2460 3650 c0 -55 3 -100 8 -100 6 0 122 169 130 191 2 5 -28 9 -67 9 l-71 0 0 -100z"
       id="path158"
       style="fill:#3366ff" />
    <path
       d="M2663 3737 c11 -29 120 -176 127 -172 4 3 8 45 9 95 l2 90 -72 0 c-55 0 -70 -3 -66 -13z"
       id="path160"
       style="fill:#3366ff" />
    <path
       d="M3547 3743 c-9 -8 -7 -130 2 -162 6 -23 10 -20 52 40 53 75 79 116 79 124 0 7 -125 6 -133 -2z"
       id="path162"
       style="fill:#cc6600" />
    <path
       d="M3740 3745 c0 -3 28 -47 62 -96 56 -82 63 -89 70 -68 5 13 7 55 6 93 l-3 71 -67 3 c-38 2 -68 0 -68 -3z"
       id="path164"
       style="fill:#cc6600" />
    <path
       d="M4260 3650 c0 -55 3 -100 8 -100 7 0 132 184 132 194 0 3 -31 6 -70 6 l-70 0 0 -100z"
       id="path166"
       style="fill:#990099" />
    <path
       d="M4477 3722 c10 -16 38 -61 63 -100 25 -39 48 -71 53 -72 4 0 7 45 7 100 l0 100 -71 0 -71 0 19 -28z"
       id="path168"
       style="fill:#990099" />
    <path
       d="M5704 3737 c-8 -23 0 -172 10 -172 5 0 38 42 74 93 l64 92 -72 0 c-50 0 -72 -4 -76 -13z"
       id="path170"
       style="fill:#0099ff" />
    <path
       d="M5900 3745 c0 -5 79 -120 117 -171 l22 -29 1 103 0 102 -70 0 c-38 0 -70 -2 -70 -5z"
       id="path172"
       style="fill:#0099ff" />
    <path
       d="M6900 3739 c-33 -13 -78 -57 -98 -94 -12 -25 -15 -70 -16 -250 -1 -192 1 -224 16 -252 21 -38 72 -79 111 -88 l27 -7 0 351 c0 193 -3 351 -7 350 -5 0 -19 -5 -33 -10z"
       id="path174"
       style="fill:#99ff00" />
    <path
       d="M6970 3400 c0 -238 3 -350 10 -350 37 0 111 65 129 113 12 30 15 402 5 455 -8 42 -60 98 -106 117 l-38 15 0 -350z"
       id="path176"
       style="fill:#99ff00" />
    <path
       d="M7860 3650 c0 -55 4 -100 9 -100 5 0 18 15 29 33 11 17 38 57 59 87 22 30 42 61 47 68 5 9 -11 12 -68 12 l-76 0 0 -100z"
       id="path178"
       style="fill:#3300ff" />
    <path
       d="M8066 3738 c18 -31 127 -188 130 -188 2 0 4 45 4 100 l0 100 -71 0 c-53 0 -68 -3 -63 -12z"
       id="path180"
       style="fill:#3300ff" />
    <path
       d="M6429 3648 c-1 -51 -3 -140 -5 -198 -2 -58 -3 -132 -4 -165 0 -75 -31 -129 -97 -171 -43 -27 -44 -28 -41 -78 l3 -51 308 -3 307 -2 0 25 c0 15 -8 29 -22 36 -34 17 -78 60 -95 93 -17 34 -20 63 -22 252 l-1 142 -107 70 c-60 38 -134 86 -165 106 l-58 37 -1 -93z"
       id="path182"
       style="fill:#009966" />
    <path
       d="M87 3680 c-10 -16 -34 -50 -52 -75 -19 -25 -35 -57 -35 -71 0 -24 2 -25 58 -22 l57 3 2 98 c1 53 -2 97 -6 97 -4 0 -15 -13 -24 -30z"
       id="path184"
       style="fill:#cc3333" />
    <path
       d="M763 3643 c-55 -77 -83 -120 -83 -128 0 -3 32 -5 70 -5 l70 0 0 100 c0 55 -2 100 -4 100 -3 0 -26 -30 -53 -67z"
       id="path186"
       style="fill:#cc3333" />
    <path
       d="M840 3610 l0 -100 70 0 c39 0 70 2 70 5 0 7 -131 195 -136 195 -2 0 -4 -45 -4 -100z"
       id="path188"
       style="fill:#cc3333" />
    <path
       d="M2185 3618 c-33 -49 -61 -94 -63 -99 -2 -5 28 -9 67 -9 l71 0 0 100 c0 55 -3 100 -7 100 -5 -1 -35 -42 -68 -92z"
       id="path190"
       style="fill:#cc3333" />
    <path
       d="M2640 3610 l0 -100 71 0 c39 0 69 4 67 9 -8 21 -124 190 -130 191 -5 0 -8 -45 -8 -100z"
       id="path192"
       style="fill:#3366ff" />
    <path
       d="M3674 3683 c-47 -65 -114 -163 -114 -168 0 -3 32 -5 70 -5 l70 0 0 100 c0 55 -1 100 -3 100 -2 0 -12 -12 -23 -27z"
       id="path194"
       style="fill:#cc6600" />
    <path
       d="M3720 3611 l0 -101 70 0 c39 0 70 3 70 6 0 8 -121 183 -131 190 -5 3 -9 -40 -9 -95z"
       id="path196"
       style="fill:#cc6600" />
    <path
       d="M4347 3615 l-67 -100 66 -3 c37 -2 68 -1 71 1 2 3 2 49 1 103 l-3 99 -68 -100z"
       id="path198"
       style="fill:#990099" />
    <path
       d="M4440 3610 l0 -100 70 0 c39 0 70 3 70 8 0 4 -27 45 -60 92 -33 47 -60 88 -60 93 0 4 -4 7 -10 7 -6 0 -10 -40 -10 -100z"
       id="path200"
       style="fill:#990099" />
    <path
       d="M5071 3621 c-34 -49 -61 -94 -61 -100 0 -7 25 -11 65 -11 l66 0 -2 100 c-1 55 -3 100 -4 100 -2 0 -30 -40 -64 -89z"
       id="path202"
       style="fill:#990033" />
    <path
       d="M5165 3668 c-3 -24 -5 -68 -3 -98 l3 -55 68 -3 c37 -2 67 0 67 3 0 7 -57 95 -102 158 l-27 38 -6 -43z"
       id="path204"
       style="fill:#990033" />
    <path
       d="M5789 3618 c-35 -51 -65 -96 -67 -100 -2 -4 28 -8 67 -8 l71 0 0 100 c0 55 -1 100 -3 100 -2 0 -33 -41 -68 -92z"
       id="path206"
       style="fill:#0099ff" />
    <path
       d="M5885 3648 c-4 -35 -5 -79 -3 -98 l3 -35 68 -3 c37 -2 67 0 67 4 0 5 -108 170 -126 192 -1 2 -5 -25 -9 -60z"
       id="path208"
       style="fill:#0099ff" />
    <path
       d="M7948 3613 l-66 -98 60 -3 c88 -4 88 -5 87 85 -1 127 -6 128 -81 16z"
       id="path210"
       style="fill:#3300ff" />
    <path
       d="M145 3677 c-3 -12 -5 -54 -3 -92 l3 -70 63 -3 c43 -2 62 1 62 9 0 12 -108 179 -115 179 -3 0 -7 -10 -10 -23z"
       id="path212"
       style="fill:#cc3333" />
    <path
       d="M1462 3611 c-34 -50 -62 -93 -62 -96 0 -3 30 -5 68 -3 l67 3 3 78 c4 120 -4 123 -76 18z"
       id="path214"
       style="fill:#3366ff" />
    <path
       d="M1561 3605 l-2 -95 70 0 c39 0 71 2 71 5 0 10 -123 185 -130 185 -3 0 -8 -43 -9 -95z"
       id="path216"
       style="fill:#3366ff" />
    <path
       d="M2285 3648 c-4 -29 -5 -71 -3 -93 l3 -40 68 -3 c37 -2 67 0 67 3 0 7 -121 185 -126 185 -1 0 -5 -24 -9 -52z"
       id="path218"
       style="fill:#cc3333" />
    <path
       d="M2543 3612 c-35 -50 -63 -94 -63 -97 0 -3 29 -5 65 -5 49 0 67 4 71 15 3 8 2 52 -2 97 l-9 81 -62 -91z"
       id="path220"
       style="fill:#3366ff" />
    <path
       d="M8044 3687 c-2 -7 -4 -49 -2 -93 l3 -79 73 -3 73 -3 -60 90 c-65 97 -78 110 -87 88z"
       id="path222"
       style="fill:#3300ff" />
    <path
       d="M7152 3439 l3 -133 121 -76 c66 -41 164 -103 218 -138 116 -75 122 -78 130 -57 10 28 -5 65 -29 71 -45 11 -115 111 -115 164 0 17 -13 38 -37 61 -30 28 -220 185 -281 232 -10 8 -12 -16 -10 -124z"
       id="path224"
       style="fill:#006600" />
    <path
       d="M0 3409 l0 -82 50 77 c28 42 50 79 50 81 0 3 -22 5 -50 5 l-50 0 0 -81z"
       id="path226"
       style="fill:#cc3333" />
    <path
       d="M160 3484 c0 -6 87 -142 102 -158 4 -6 8 29 8 77 l0 87 -55 0 c-30 0 -55 -3 -55 -6z"
       id="path228"
       style="fill:#cc3333" />
    <path
       d="M660 3389 c0 -84 2 -100 13 -90 16 13 127 174 127 184 0 4 -31 7 -70 7 l-70 0 0 -101z"
       id="path230"
       style="fill:#cc3333" />
    <path
       d="M877 3482 c-15 -6 -9 -19 45 -100 35 -50 66 -92 69 -92 4 0 7 44 6 98 l-2 97 -50 2 c-27 1 -58 -1 -68 -5z"
       id="path232"
       style="fill:#cc3333" />
    <path
       d="M1387 3483 c-10 -9 -9 -193 1 -193 8 1 132 182 132 193 0 9 -125 9 -133 0z"
       id="path234"
       style="fill:#3366ff" />
    <path
       d="M1580 3483 c0 -12 124 -192 133 -193 4 0 6 44 5 98 l-3 97 -67 3 c-38 2 -68 -1 -68 -5z"
       id="path236"
       style="fill:#3366ff" />
    <path
       d="M2107 3483 c-10 -9 -9 -193 1 -193 8 1 132 181 132 193 0 9 -124 9 -133 0z"
       id="path238"
       style="fill:#cc3333" />
    <path
       d="M2300 3484 c0 -12 124 -193 133 -194 4 0 6 44 5 98 l-3 97 -67 3 c-38 2 -68 0 -68 -4z"
       id="path240"
       style="fill:#cc3333" />
    <path
       d="M2460 3400 c0 -49 4 -90 9 -90 10 0 64 65 104 125 25 36 25 40 10 47 -10 3 -42 7 -70 7 l-53 1 0 -90z"
       id="path242"
       style="fill:#3366ff" />
    <path
       d="M2678 3482 c-16 -6 -14 -12 15 -54 27 -40 36 -46 57 -41 36 8 42 16 44 60 l1 38 -50 2 c-27 1 -58 -1 -67 -5z"
       id="path244"
       style="fill:#3366ff" />
    <path
       d="M3545 3480 c-8 -13 -4 -190 4 -190 3 0 34 41 69 92 44 66 58 94 49 100 -17 11 -115 10 -122 -2z"
       id="path246"
       style="fill:#cc6600" />
    <path
       d="M3755 3480 c-3 -5 -3 -16 1 -22 19 -37 110 -167 116 -168 3 0 6 44 5 98 l-2 97 -57 3 c-32 2 -59 -2 -63 -8z"
       id="path248"
       style="fill:#cc6600" />
    <path
       d="M4267 3483 c-10 -9 -9 -193 1 -193 8 0 132 180 132 193 0 9 -124 10 -133 0z"
       id="path250"
       style="fill:#990099" />
    <path
       d="M4478 3482 c-15 -6 -10 -19 42 -92 33 -47 60 -88 60 -92 0 -5 5 -8 10 -8 7 0 10 35 8 98 l-3 97 -50 2 c-27 1 -58 -1 -67 -5z"
       id="path252"
       style="fill:#990099" />
    <path
       d="M4987 3483 c-10 -9 -9 -193 1 -193 10 0 132 176 132 190 0 11 -123 14 -133 3z"
       id="path254"
       style="fill:#990033" />
    <path
       d="M5203 3483 c-21 -4 -19 -9 40 -98 34 -52 66 -94 70 -94 4 -1 6 43 5 97 l-3 97 -45 1 c-25 1 -55 0 -67 -3z"
       id="path256"
       style="fill:#990033" />
    <path
       d="M5707 3483 c-9 -8 -7 -140 1 -170 6 -19 15 -10 70 67 34 49 62 94 62 100 0 11 -122 14 -133 3z"
       id="path258"
       style="fill:#0099ff" />
    <path
       d="M5900 3485 c0 -10 119 -183 130 -190 6 -4 10 28 10 94 l0 101 -70 0 c-38 0 -70 -2 -70 -5z"
       id="path260"
       style="fill:#0099ff" />
    <path
       d="M7867 3483 c-10 -9 -9 -203 1 -203 10 1 141 198 134 205 -8 7 -127 6 -135 -2z"
       id="path262"
       style="fill:#3300ff" />
    <path
       d="M8083 3483 c-21 -4 -20 -8 27 -76 28 -40 59 -83 70 -97 l20 -25 -2 100 -3 100 -45 1 c-25 1 -55 0 -67 -3z"
       id="path264"
       style="fill:#3300ff" />
    <path
       d="M71 3391 c-22 -32 -47 -66 -56 -74 -8 -9 -15 -29 -15 -45 l0 -30 57 1 58 2 1 103 c1 56 0 102 -2 102 -2 0 -21 -27 -43 -59z"
       id="path266"
       style="fill:#cc3333" />
    <path
       d="M144 3348 l1 -103 29 -3 c41 -5 96 7 96 20 0 11 -90 149 -115 176 -10 11 -12 -8 -11 -90z"
       id="path268"
       style="fill:#cc3333" />
    <path
       d="M745 3353 c-63 -95 -64 -98 -42 -106 12 -4 43 -5 69 -2 l48 7 0 99 c0 54 -2 99 -5 99 -3 0 -34 -44 -70 -97z"
       id="path270"
       style="fill:#cc3333" />
    <path
       d="M842 3350 l3 -105 68 -3 c37 -2 67 1 67 6 0 8 -112 175 -132 197 -5 6 -8 -31 -6 -95z"
       id="path272"
       style="fill:#cc3333" />
    <path
       d="M1562 3348 l3 -103 45 -3 c25 -2 56 1 68 5 21 8 19 12 -43 106 -36 53 -68 97 -70 97 -3 0 -4 -46 -3 -102z"
       id="path274"
       style="fill:#3366ff" />
    <path
       d="M2244 3439 c-37 -48 -124 -180 -124 -188 0 -17 129 -14 136 2 3 8 3 56 2 107 -2 70 -6 90 -14 79z"
       id="path276"
       style="fill:#cc3333" />
    <path
       d="M2640 3406 c0 -46 10 -55 38 -37 12 7 11 14 -2 39 -25 49 -36 48 -36 -2z"
       id="path278"
       style="fill:#3366ff" />
    <path
       d="M3627 3356 c-37 -54 -66 -100 -64 -102 5 -6 127 -7 133 -2 2 3 3 50 2 104 l-3 99 -68 -99z"
       id="path280"
       style="fill:#cc6600" />
    <path
       d="M3722 3350 l3 -105 62 0 c34 0 64 3 68 7 4 3 -19 44 -50 90 -90 130 -86 129 -83 8z"
       id="path282"
       style="fill:#cc6600" />
    <path
       d="M4347 3352 c-76 -109 -76 -109 26 -111 l47 -1 0 105 c0 58 -1 105 -2 105 -2 0 -34 -44 -71 -98z"
       id="path284"
       style="fill:#990099" />
    <path
       d="M5163 3348 l2 -103 45 -3 c25 -2 56 1 68 5 22 8 20 11 -40 105 -35 54 -66 97 -70 98 -3 0 -6 -46 -5 -102z"
       id="path286"
       style="fill:#990033" />
    <path
       d="M5789 3355 c-61 -93 -64 -100 -45 -107 39 -12 106 -9 112 5 3 8 3 56 2 108 l-3 94 -66 -100z"
       id="path288"
       style="fill:#0099ff" />
    <path
       d="M7948 3350 l-68 -99 43 -6 c24 -4 56 -5 73 -3 l29 3 3 94 c1 52 -1 98 -5 102 -4 4 -38 -37 -75 -91z"
       id="path290"
       style="fill:#3300ff" />
    <path
       d="M8045 3398 c-4 -29 -5 -75 -3 -103 l3 -50 68 -3 c43 -2 67 1 67 8 0 8 -108 178 -125 198 -2 2 -6 -20 -10 -50z"
       id="path292"
       style="fill:#3300ff" />
    <path
       d="M1475 3368 c-81 -116 -81 -116 -42 -123 18 -4 49 -5 68 -3 l34 3 3 83 c4 120 -4 125 -63 40z"
       id="path294"
       style="fill:#3366ff" />
    <path
       d="M2285 3368 c-11 -115 -8 -122 45 -126 25 -2 56 1 68 5 22 8 21 11 -39 98 -33 50 -62 91 -64 93 -2 2 -6 -30 -10 -70z"
       id="path296"
       style="fill:#cc3333" />
    <path
       d="M2567 3387 c-20 -31 -37 -59 -37 -61 0 -3 20 2 45 11 47 16 52 26 36 82 -6 22 -9 20 -44 -32z"
       id="path298"
       style="fill:#3366ff" />
    <path
       d="M4442 3343 l3 -98 68 -3 c42 -2 67 1 67 8 0 15 -121 190 -132 190 -5 0 -7 -43 -6 -97z"
       id="path300"
       style="fill:#990099" />
    <path
       d="M5063 3347 l-61 -92 30 -8 c16 -4 46 -7 66 -5 l37 3 3 98 c1 53 -1 97 -5 97 -4 0 -36 -42 -70 -93z"
       id="path302"
       style="fill:#990033" />
    <path
       d="M5885 3379 c-4 -35 -5 -80 -3 -99 l3 -35 62 0 c34 0 65 3 68 7 6 6 -84 147 -115 182 -5 4 -11 -20 -15 -55z"
       id="path304"
       style="fill:#0099ff" />
    <path
       d="M2990 3360 c0 -49 1 -50 30 -50 29 0 30 1 30 50 0 49 -1 50 -30 50 -29 0 -30 -1 -30 -50z"
       id="path306"
       style="fill:#996633" />
    <path
       d="M2700 3350 c-47 -16 -118 -39 -158 -51 -66 -20 -94 -40 -79 -55 2 -3 83 18 178 47 l173 51 74 -22 c77 -22 88 -21 79 4 -6 16 -125 57 -161 55 -11 0 -59 -13 -106 -29z"
       id="path308"
       style="fill:#996633" />
    <path
       d="M2745 3299 c-33 -11 -109 -35 -170 -53 l-110 -34 0 -113 0 -114 345 0 345 0 0 114 0 113 -154 48 c-198 63 -186 61 -256 39z m-55 -210 l0 -40 -52 3 -53 3 -3 38 -3 37 55 0 56 0 0 -41z m174 4 c-3 -21 -7 -39 -7 -40 -1 -1 -24 -3 -51 -4 l-49 -3 1 37 c0 20 1 39 1 42 1 3 26 5 56 5 l55 0 -6 -37z m166 23 c6 -8 10 -25 8 -38 -3 -20 -9 -23 -58 -26 -54 -3 -56 -2 -58 24 -1 15 3 33 9 40 15 18 83 18 99 0z"
       id="path310"
       style="fill:#999966" />
    <path
       d="M2602 3088 c7 -20 68 -23 68 -4 0 12 -10 16 -36 16 -24 0 -34 -4 -32 -12z"
       id="path312"
       style="fill:#996633" />
    <path
       d="M2775 3090 c-3 -5 0 -13 9 -16 21 -8 61 -1 61 11 0 14 -62 19 -70 5z"
       id="path314"
       style="fill:#996633" />
    <path
       d="M2950 3085 c0 -10 10 -15 30 -15 20 0 30 5 30 15 0 10 -10 15 -30 15 -20 0 -30 -5 -30 -15z"
       id="path316"
       style="fill:#996633" />
    <path
       d="M3035 3291 c-28 -6 -25 -9 42 -29 85 -26 83 -26 83 -6 0 8 -16 22 -35 30 -37 15 -43 15 -90 5z"
       id="path318"
       style="fill:#996633" />
    <path
       d="M7143 3208 c-12 -76 -44 -128 -99 -158 -19 -11 -30 -26 -32 -43 l-3 -27 295 0 c163 0 296 3 296 8 0 4 -17 18 -38 31 -29 20 -367 234 -400 255 -4 2 -13 -27 -19 -66z"
       id="path320"
       style="fill:#009966" />
    <path
       d="M0 3148 l0 -83 50 75 c27 41 50 78 50 83 0 4 -22 7 -50 7 l-50 0 0 -82z"
       id="path322"
       style="fill:#cc3333" />
    <path
       d="M173 3222 c-9 -6 4 -35 50 -104 34 -53 65 -97 68 -97 4 -1 6 40 5 90 -1 77 -4 93 -20 105 -21 15 -83 19 -103 6z"
       id="path324"
       style="fill:#cc3333" />
    <path
       d="M660 3123 c0 -65 4 -103 9 -97 5 5 37 49 70 98 69 101 68 106 -21 106 l-58 0 0 -107z"
       id="path326"
       style="fill:#cc3333" />
    <path
       d="M872 3222 c-12 -8 23 -68 105 -178 l21 -29 -1 105 -2 105 -55 3 c-30 1 -61 -2 -68 -6z"
       id="path328"
       style="fill:#cc3333" />
    <path
       d="M1384 3217 c-3 -8 -3 -56 -2 -108 l3 -94 67 100 c48 71 64 101 55 107 -21 13 -117 9 -123 -5z"
       id="path330"
       style="fill:#3366ff" />
    <path
       d="M1580 3222 c0 -11 104 -168 125 -191 11 -11 13 4 12 90 l-2 104 -67 3 c-38 2 -68 -1 -68 -6z"
       id="path332"
       style="fill:#3366ff" />
    <path
       d="M2107 3223 c-10 -10 -8 -193 2 -193 8 0 131 180 131 193 0 9 -124 9 -133 0z"
       id="path334"
       style="fill:#cc3333" />
    <path
       d="M2313 3223 c-9 -7 6 -36 55 -108 l67 -100 3 99 c1 54 1 101 -2 103 -9 9 -112 14 -123 6z"
       id="path336"
       style="fill:#cc3333" />
    <path
       d="M3547 3223 c-8 -8 -7 -127 2 -167 6 -28 8 -26 69 64 47 70 60 95 50 101 -16 10 -112 12 -121 2z"
       id="path338"
       style="fill:#cc6600" />
    <path
       d="M3753 3222 c-9 -6 3 -30 42 -89 30 -45 59 -84 64 -87 14 -9 23 48 19 119 l-3 60 -55 3 c-30 1 -61 -1 -67 -6z"
       id="path340"
       style="fill:#cc6600" />
    <path
       d="M4283 3223 c-22 -4 -23 -9 -23 -104 0 -59 4 -98 9 -94 20 12 132 186 126 195 -6 10 -69 11 -112 3z"
       id="path342"
       style="fill:#990099" />
    <path
       d="M4478 3222 c-15 -6 -8 -21 50 -105 l67 -99 3 93 c1 51 1 98 -2 106 -6 14 -87 17 -118 5z"
       id="path344"
       style="fill:#990099" />
    <path
       d="M4987 3223 c-4 -3 -7 -52 -7 -107 0 -116 -4 -116 85 13 45 65 54 85 44 92 -16 10 -113 12 -122 2z"
       id="path346"
       style="fill:#990033" />
    <path
       d="M5180 3224 c0 -12 124 -193 133 -194 4 0 6 44 5 98 l-3 97 -67 3 c-38 2 -68 0 -68 -4z"
       id="path348"
       style="fill:#990033" />
    <path
       d="M5707 3223 c-9 -8 -7 -151 1 -179 6 -18 16 -8 70 72 35 51 61 98 57 104 -7 11 -118 14 -128 3z"
       id="path350"
       style="fill:#0099ff" />
    <path
       d="M5913 3223 c-8 -3 9 -36 49 -96 33 -51 65 -96 69 -101 5 -6 9 36 9 97 l0 107 -57 -1 c-32 0 -64 -3 -70 -6z"
       id="path352"
       style="fill:#0099ff" />
    <path
       d="M7882 3220 c-22 -9 -23 -14 -21 -105 2 -52 5 -95 8 -95 3 1 36 45 73 99 63 93 65 99 45 105 -31 8 -78 6 -105 -4z"
       id="path354"
       style="fill:#3300ff" />
    <path
       d="M8078 3223 c-14 -4 -5 -22 50 -105 l67 -101 3 93 c1 52 1 99 -2 107 -5 13 -78 17 -118 6z"
       id="path356"
       style="fill:#3300ff" />
    <path
       d="M1560 3087 l0 -107 70 0 c39 0 70 2 70 5 0 6 -117 184 -131 200 -5 5 -9 -37 -9 -98z"
       id="path358"
       style="fill:#3366ff" />
    <path
       d="M3628 3091 c-38 -56 -68 -103 -68 -106 0 -3 29 -5 65 -5 45 0 67 4 71 13 3 8 3 55 2 106 l-3 93 -67 -101z"
       id="path360"
       style="fill:#cc6600" />
    <path
       d="M3722 3090 l3 -105 68 -3 c37 -2 67 1 67 6 0 8 -112 176 -132 197 -6 6 -8 -29 -6 -95z"
       id="path362"
       style="fill:#cc6600" />
    <path
       d="M4348 3091 c-38 -55 -68 -102 -68 -105 0 -3 29 -6 65 -6 45 0 67 4 71 13 3 8 3 55 2 105 l-3 92 -67 -99z"
       id="path364"
       style="fill:#990099" />
    <path
       d="M5163 3090 l2 -105 68 -3 c37 -2 67 1 67 6 0 9 -67 111 -117 178 l-21 29 1 -105z"
       id="path366"
       style="fill:#990033" />
    <path
       d="M7965 3112 c-27 -41 -58 -88 -69 -104 l-19 -29 69 3 68 3 7 33 c4 19 4 64 0 101 l-6 68 -50 -75z"
       id="path368"
       style="fill:#3300ff" />
    <path
       d="M61 3115 c-24 -36 -48 -65 -53 -65 -4 0 -8 -13 -8 -30 l0 -30 60 0 60 0 -1 78 c-1 118 -7 123 -58 47z"
       id="path370"
       style="fill:#cc3333" />
    <path
       d="M147 3173 c-3 -5 -6 -48 -6 -96 l-1 -87 65 0 c39 0 65 4 65 11 0 7 -83 135 -116 177 -1 2 -4 0 -7 -5z"
       id="path372"
       style="fill:#cc3333" />
    <path
       d="M742 3086 c-34 -51 -62 -97 -62 -100 0 -4 30 -6 68 -4 l67 3 3 98 c1 53 -1 97 -5 97 -5 0 -36 -42 -71 -94z"
       id="path374"
       style="fill:#cc3333" />
    <path
       d="M840 3080 l0 -100 63 0 c35 0 66 3 70 6 7 7 -114 193 -125 194 -5 0 -8 -45 -8 -100z"
       id="path376"
       style="fill:#cc3333" />
    <path
       d="M1462 3086 c-34 -51 -62 -96 -62 -100 0 -4 30 -6 68 -4 l67 3 2 98 c1 53 -2 97 -6 97 -4 0 -35 -42 -69 -94z"
       id="path378"
       style="fill:#3366ff" />
    <path
       d="M1742 3085 l3 -100 58 -3 57 -3 0 55 c0 54 0 54 -45 80 -24 15 -51 36 -60 49 -15 21 -15 15 -13 -78z"
       id="path380"
       style="fill:#003300" />
    <path
       d="M2184 3087 c-34 -50 -60 -95 -57 -99 2 -5 33 -8 69 -8 l64 0 0 100 c0 55 -3 100 -7 100 -5 0 -36 -42 -69 -93z"
       id="path382"
       style="fill:#cc3333" />
    <path
       d="M2283 3083 l2 -98 68 -3 c37 -2 67 0 67 5 0 11 -124 192 -132 193 -3 0 -6 -44 -5 -97z"
       id="path384"
       style="fill:#cc3333" />
    <path
       d="M3900 3081 l0 -101 60 0 60 0 0 55 c0 45 -4 56 -21 65 -11 7 -38 28 -60 47 l-39 35 0 -101z"
       id="path386"
       style="fill:#006633" />
    <path
       d="M4215 3156 c-8 -12 -31 -31 -50 -42 -34 -18 -35 -21 -35 -76 l0 -58 55 0 55 0 0 100 c0 55 -2 100 -5 100 -2 0 -11 -11 -20 -24z"
       id="path388"
       style="fill:#006633" />
    <path
       d="M4441 3080 l-2 -100 70 0 c39 0 71 3 71 8 0 10 -123 192 -131 192 -3 0 -7 -45 -8 -100z"
       id="path390"
       style="fill:#990099" />
    <path
       d="M5065 3088 c-33 -50 -61 -95 -63 -99 -2 -5 28 -9 67 -9 l71 0 0 100 c0 55 -3 100 -7 100 -5 0 -35 -41 -68 -92z"
       id="path392"
       style="fill:#990033" />
    <path
       d="M5832 3153 c-51 -74 -112 -165 -112 -169 0 -2 32 -4 70 -4 l70 0 0 100 c0 55 -2 100 -4 100 -3 0 -13 -12 -24 -27z"
       id="path394"
       style="fill:#0099ff" />
    <path
       d="M5885 3139 c-3 -24 -5 -69 -3 -99 l3 -55 68 -3 c37 -2 67 1 67 6 0 8 -103 166 -120 186 -5 4 -11 -11 -15 -35z"
       id="path396"
       style="fill:#0099ff" />
    <path
       d="M8046 3165 c-3 -9 -6 -52 -6 -96 0 -92 0 -91 88 -87 l61 3 -62 92 c-74 110 -73 108 -81 88z"
       id="path398"
       style="fill:#3300ff" />
    <path
       d="M1023 3078 l2 -93 58 -3 57 -3 0 54 c0 53 0 54 -50 86 -27 18 -50 37 -50 42 0 5 -4 9 -9 9 -5 0 -8 -42 -8 -92z"
       id="path400"
       style="fill:#003300" />
    <path
       d="M1319 3144 c-13 -14 -36 -32 -51 -40 -25 -13 -28 -20 -28 -69 l0 -55 55 0 55 0 0 95 c0 52 -1 95 -3 95 -2 0 -14 -12 -28 -26z"
       id="path402"
       style="fill:#003300" />
    <path
       d="M2052 3153 c-6 -12 -30 -29 -52 -39 l-40 -18 0 -58 0 -59 58 3 57 3 3 40 c1 22 -1 65 -6 95 -7 50 -9 53 -20 33z"
       id="path404"
       style="fill:#003300" />
    <path
       d="M4630 3077 l0 -97 55 0 55 0 0 54 c0 48 -3 56 -27 71 -16 10 -40 29 -55 43 l-28 26 0 -97z"
       id="path406"
       style="fill:#006633" />
    <path
       d="M4941 3156 c-8 -9 -34 -29 -58 -43 -42 -24 -43 -26 -43 -79 l0 -54 55 0 c37 0 57 4 61 13 3 8 4 51 2 97 -3 73 -5 81 -17 66z"
       id="path408"
       style="fill:#006633" />
    <path
       d="M5350 3077 l0 -97 55 0 55 0 0 59 c0 53 -2 60 -22 66 -13 4 -38 21 -55 38 l-33 31 0 -97z"
       id="path410"
       style="fill:#006633" />
    <path
       d="M5660 3160 c0 -6 -22 -25 -50 -42 -50 -31 -50 -31 -50 -84 l0 -54 60 0 60 0 -2 95 c-1 52 -5 95 -10 95 -4 0 -8 -5 -8 -10z"
       id="path412"
       style="fill:#006633" />
    <path
       d="M6070 3077 l0 -97 55 0 55 0 0 55 c0 49 -3 56 -27 72 -16 9 -40 28 -55 42 l-28 25 0 -97z"
       id="path414"
       style="fill:#009966" />
    <path
       d="M7819 3159 c-9 -4 -24 -20 -33 -34 -16 -24 -16 -26 16 -55 18 -16 36 -30 39 -30 6 0 4 119 -3 125 -2 2 -10 -1 -19 -6z"
       id="path416"
       style="fill:#006600" />
    <path
       d="M8230 3077 l0 -97 55 0 55 0 0 55 c0 49 -3 56 -27 72 -16 9 -40 28 -55 42 l-28 25 0 -97z"
       id="path418"
       style="fill:#003300" />
    <path
       d="M599 3143 c-9 -10 -30 -26 -48 -35 -31 -17 -32 -20 -29 -70 l3 -53 55 0 55 0 0 84 c0 87 -8 104 -36 74z"
       id="path420"
       style="fill:#003300" />
    <path
       d="M320 3115 c0 -39 -1 -39 36 -25 l26 10 -26 25 c-15 14 -29 25 -32 25 -2 0 -4 -16 -4 -35z"
       id="path422"
       style="fill:#003300" />
    <path
       d="M8469 3105 c-20 -11 -26 -21 -24 -42 1 -15 3 -40 3 -55 2 -23 7 -28 27 -28 24 0 25 2 25 70 0 39 -1 70 -2 70 -2 -1 -15 -7 -29 -15z"
       id="path424"
       style="fill:#003300" />
    <path
       d="M3180 3042 l0 -62 54 0 c30 0 57 4 61 9 6 10 -21 41 -35 41 -5 0 -25 16 -45 37 l-35 36 0 -61z"
       id="path426"
       style="fill:#006633" />
    <path
       d="M440 3036 c0 -49 2 -56 20 -56 24 0 37 25 36 70 -1 31 -5 35 -28 38 -28 3 -28 2 -28 -52z"
       id="path428"
       style="fill:#003300" />
    <path
       d="M1164 3077 c-3 -8 -4 -32 -2 -53 3 -34 6 -39 28 -39 23 0 25 3 25 50 0 44 -3 50 -23 53 -13 2 -24 -3 -28 -11z"
       id="path430"
       style="fill:#003300" />
    <path
       d="M1890 3035 c0 -53 1 -56 23 -53 19 3 22 9 22 53 0 44 -3 50 -22 53 -22 3 -23 0 -23 -53z"
       id="path432"
       style="fill:#003300" />
    <path
       d="M3500 3081 c0 -5 -23 -26 -50 -46 -28 -20 -48 -41 -44 -46 3 -5 30 -9 60 -9 l54 0 0 55 c0 30 -4 55 -10 55 -5 0 -10 -4 -10 -9z"
       id="path434"
       style="fill:#006633" />
    <path
       d="M4040 3035 c0 -56 0 -56 28 -53 25 3 27 6 27 53 0 47 -2 50 -27 53 -28 3 -28 3 -28 -53z"
       id="path436"
       style="fill:#003300" />
    <path
       d="M4770 3034 c0 -52 1 -55 23 -52 19 3 22 10 25 56 3 50 2 52 -22 52 -25 0 -26 -3 -26 -56z"
       id="path438"
       style="fill:#003300" />
    <path
       d="M5490 3035 c0 -53 1 -56 23 -53 19 3 22 9 22 53 0 44 -3 50 -22 53 -22 3 -23 0 -23 -53z"
       id="path440"
       style="fill:#003300" />
    <path
       d="M6206 3081 c-7 -11 0 -77 9 -91 3 -6 15 -10 26 -10 16 0 19 7 19 55 0 52 -1 55 -24 55 -14 0 -27 -4 -30 -9z"
       id="path442"
       style="fill:#003300" />
    <path
       d="M7644 3076 c-3 -8 -4 -31 -2 -52 3 -34 6 -39 31 -42 27 -3 27 -2 27 52 0 53 -1 56 -25 56 -14 0 -28 -6 -31 -14z"
       id="path444"
       style="fill:#003300" />
    <path
       d="M7730 3035 l0 -55 49 0 c28 0 53 5 57 12 7 11 -80 97 -98 98 -5 0 -8 -25 -8 -55z"
       id="path446"
       style="fill:#006600" />
    <path
       d="M8370 3034 c0 -52 1 -55 23 -52 18 2 23 11 28 48 8 54 5 60 -27 60 -23 0 -24 -3 -24 -56z"
       id="path448"
       style="fill:#003300" />
    <path
       d="M352 3064 c-29 -13 -33 -19 -30 -47 3 -31 5 -32 48 -32 40 0 45 3 48 24 5 33 -6 71 -21 70 -6 0 -27 -7 -45 -15z"
       id="path450"
       style="fill:#003300" />
    <path
       d="M6924 3015 c-4 -9 -2 -21 4 -27 16 -16 47 -5 47 17 0 26 -42 34 -51 10z"
       id="path452"
       style="fill:#003300" />
    <path
       d="M3325 3000 c-8 -13 20 -24 41 -16 20 8 9 26 -16 26 -10 0 -22 -5 -25 -10z"
       id="path454"
       style="fill:#003300" />
    <path
       d="M0 2920 l0 -45 4250 0 4250 0 0 45 0 45 -4250 0 -4250 0 0 -45z"
       id="path456"
       style="fill:#cccccc" />
    <path
       d="M0 2829 c0 -15 7 -32 15 -39 9 -7 37 -44 62 -82 25 -38 49 -71 53 -73 4 -2 41 45 83 105 l75 109 -144 3 -144 3 0 -26z"
       id="path458"
       style="fill:#cc3333" />
    <path
       d="M8356 2853 l-138 -4 7 -26 c10 -42 43 -82 85 -103 48 -24 81 -25 143 -3 l47 17 0 63 c0 35 -1 62 -2 61 -2 -1 -65 -4 -142 -5z"
       id="path460"
       style="fill:#669966" />
    <path
       d="M330 2832 c0 -56 94 -132 163 -132 70 0 148 62 159 125 3 19 -3 20 -159 23 -154 2 -163 1 -163 -16z"
       id="path462"
       style="fill:#669966" />
    <path
       d="M706 2838 c20 -34 119 -175 133 -191 16 -17 21 -12 83 80 36 54 68 104 72 111 6 9 -26 12 -144 12 -118 0 -150 -3 -144 -12z"
       id="path464"
       style="fill:#cc3333" />
    <path
       d="M1040 2845 c0 -3 9 -23 20 -44 67 -133 232 -134 300 -1 11 21 16 40 13 44 -8 7 -333 8 -333 1z"
       id="path466"
       style="fill:#669966" />
    <path
       d="M1420 2844 c0 -10 143 -204 150 -204 7 0 92 118 132 182 l18 28 -150 0 c-83 0 -150 -3 -150 -6z"
       id="path468"
       style="fill:#990066" />
    <path
       d="M1765 2828 c25 -82 101 -134 182 -125 25 2 57 14 72 24 33 25 71 80 71 104 0 18 -11 19 -166 19 l-165 0 6 -22z"
       id="path470"
       style="fill:#669966" />
    <path
       d="M2140 2843 c1 -13 134 -196 145 -200 10 -3 128 157 141 191 6 14 -9 16 -140 16 -80 0 -146 -3 -146 -7z"
       id="path472"
       style="fill:#cc3333" />
    <path
       d="M2474 2834 c3 -9 6 -30 6 -48 l0 -33 175 -62 174 -63 158 57 c86 31 164 60 173 65 11 6 17 24 18 54 l2 46 -356 0 c-321 0 -356 -2 -350 -16z"
       id="path474"
       style="fill:#999999" />
    <path
       d="M3204 2834 c3 -9 6 -20 6 -24 0 -18 66 -83 97 -96 75 -32 155 -2 203 73 16 25 27 50 24 54 -3 5 -80 9 -171 9 -146 0 -164 -2 -159 -16z"
       id="path476"
       style="fill:#669966" />
    <path
       d="M3576 2838 c4 -7 34 -51 67 -97 32 -46 61 -90 64 -97 3 -8 8 -14 12 -14 7 0 151 205 151 215 0 3 -68 5 -151 5 -117 0 -149 -3 -143 -12z"
       id="path478"
       style="fill:#cc6633" />
    <path
       d="M3917 2844 c-9 -10 27 -76 58 -104 24 -22 35 -25 105 -25 74 0 81 2 111 30 26 25 59 80 59 100 0 7 -325 6 -333 -1z"
       id="path480"
       style="fill:#669966" />
    <path
       d="M4304 2822 c8 -16 28 -43 44 -60 32 -34 65 -35 82 -1 8 13 24 19 66 21 50 3 57 6 75 36 l21 32 -151 0 -152 0 15 -28z"
       id="path482"
       style="fill:#990066" />
    <path
       d="M4630 2841 c0 -5 4 -21 10 -35 8 -23 12 -25 35 -14 33 15 121 -4 170 -38 20 -13 40 -24 45 -24 15 0 70 80 70 102 0 17 -11 18 -165 18 -96 0 -165 -4 -165 -9z"
       id="path484"
       style="fill:#669966" />
    <path
       d="M5010 2845 c0 -5 125 -191 140 -208 9 -10 150 183 150 204 0 5 -65 9 -145 9 -80 0 -145 -2 -145 -5z"
       id="path486"
       style="fill:#990066" />
    <path
       d="M5350 2832 c0 -56 97 -132 167 -132 65 0 142 60 157 123 l6 27 -165 0 c-154 0 -165 -1 -165 -18z"
       id="path488"
       style="fill:#669966" />
    <path
       d="M5786 2753 c93 -136 85 -131 120 -81 17 24 52 73 78 111 l48 67 -156 0 -157 0 67 -97z"
       id="path490"
       style="fill:#6699cc" />
    <path
       d="M6075 2813 c43 -105 174 -145 255 -76 33 27 73 96 63 107 -4 3 -80 6 -170 6 l-163 0 15 -37z"
       id="path492"
       style="fill:#669966" />
    <path
       d="M6447 2837 c57 -91 137 -197 146 -194 12 4 146 186 147 200 0 4 -68 7 -150 7 -120 0 -149 -3 -143 -13z"
       id="path494"
       style="fill:#669999" />
    <path
       d="M6787 2844 c-8 -9 26 -75 50 -96 26 -24 87 -48 120 -48 65 0 136 58 158 128 l6 22 -164 0 c-90 0 -166 -3 -170 -6z"
       id="path496"
       style="fill:#669966" />
    <path
       d="M7175 2823 c40 -63 129 -183 135 -183 7 0 150 195 150 205 0 3 -68 5 -151 5 l-151 0 17 -27z"
       id="path498"
       style="fill:#669999" />
    <path
       d="M7510 2835 c0 -9 6 -28 14 -43 50 -97 185 -120 261 -45 29 30 56 83 49 95 -3 5 -77 8 -165 8 -137 0 -159 -2 -159 -15z"
       id="path500"
       style="fill:#669966" />
    <path
       d="M7881 2843 c1 -17 136 -198 146 -198 13 0 143 177 143 194 0 7 -49 11 -145 11 -80 0 -145 -3 -144 -7z"
       id="path502"
       style="fill:#003399" />
    <path
       d="M661 2785 c-27 -62 -95 -105 -165 -105 -72 1 -143 41 -170 97 -12 23 -23 42 -26 42 -3 0 -39 -48 -80 -106 -41 -59 -80 -108 -87 -110 -6 -2 -39 37 -72 88 l-61 93 0 -1392 0 -1392 4250 0 4250 0 0 1355 c0 745 -2 1355 -3 1355 -2 0 -18 -7 -36 -16 -44 -22 -141 -15 -179 12 -15 11 -41 41 -59 67 l-31 47 -67 -96 c-36 -53 -69 -102 -72 -110 -14 -36 -51 -2 -132 119 -28 42 -55 77 -59 77 -4 0 -14 -15 -23 -33 -36 -72 -148 -115 -231 -88 -43 14 -96 65 -115 110 l-14 34 -21 -34 c-38 -62 -140 -199 -149 -199 -5 0 -43 49 -86 109 l-77 110 -30 -47 c-58 -87 -159 -116 -252 -72 -38 19 -94 84 -94 110 0 23 -18 5 -70 -72 -62 -93 -98 -138 -110 -138 -4 0 -41 46 -81 103 -40 56 -76 106 -79 110 -4 5 -19 -12 -34 -37 -75 -128 -253 -130 -326 -3 l-28 49 -71 -100 c-94 -131 -96 -133 -126 -96 -13 16 -48 66 -77 111 -29 45 -56 82 -60 82 -3 1 -15 -16 -25 -36 -29 -56 -103 -103 -163 -103 -27 0 -61 5 -77 11 -36 13 -88 64 -104 100 -6 16 -14 29 -18 28 -3 0 -30 -37 -60 -83 -29 -45 -64 -95 -78 -111 l-24 -30 -34 40 c-19 22 -56 72 -82 112 -27 40 -51 72 -54 73 -4 0 -12 -14 -19 -30 -7 -17 -26 -43 -41 -58 -16 -15 -29 -33 -29 -39 0 -10 -46 -13 -199 -13 l-198 0 -27 -40 c-14 -22 -32 -40 -40 -40 -7 0 -25 18 -40 40 l-26 40 -188 0 -188 0 -37 40 c-20 22 -44 55 -53 72 l-17 33 -16 -25 c-68 -104 -139 -195 -150 -195 -8 0 -48 49 -90 109 -71 102 -76 107 -86 85 -18 -43 -40 -68 -86 -93 -75 -44 -173 -31 -229 29 -19 20 -25 22 -34 11 -6 -7 -51 -27 -101 -45 -49 -18 -125 -46 -167 -62 -43 -16 -86 -29 -97 -29 -11 0 -77 21 -148 46 -70 25 -149 53 -175 62 -48 16 -54 25 -50 75 3 35 -17 15 -88 -88 -40 -58 -76 -105 -80 -105 -12 0 -48 46 -110 138 -30 45 -57 81 -60 82 -3 0 -14 -17 -25 -37 -68 -124 -234 -139 -318 -29 -15 19 -27 39 -27 45 0 32 -26 8 -95 -89 -43 -61 -82 -110 -86 -110 -10 0 -55 59 -114 148 -26 39 -51 72 -54 72 -3 0 -15 -19 -26 -41 -42 -89 -162 -125 -255 -77 -40 20 -58 41 -95 103 -9 14 -21 1 -78 -83 -38 -56 -76 -107 -84 -114 -18 -15 -33 1 -123 134 l-59 88 -20 -45z m7138 -251 c39 -16 70 -61 56 -83 -8 -13 -595 -15 -595 -3 0 5 82 17 183 26 100 10 190 22 199 27 10 5 22 18 28 29 13 25 72 27 129 4z m-2008 -64 l74 -50 127 0 c142 0 145 -2 105 -61 l-23 -34 -586 -9 c-599 -9 -1433 1 -1288 15 41 5 276 13 521 19 246 6 456 14 468 17 18 4 21 11 17 29 l-6 24 129 0 129 0 28 45 c31 48 36 50 165 53 64 2 69 0 140 -48z m-2326 -32 l73 -63 -61 -6 c-80 -9 -462 -8 -597 0 -129 8 -101 15 128 35 114 9 155 16 165 28 8 10 37 18 82 22 46 4 79 13 95 26 14 10 29 19 33 19 5 1 42 -27 82 -61z m294 -37 l21 -29 -23 -6 c-28 -7 -105 -6 -134 2 -29 9 -18 26 27 46 55 24 86 20 109 -13z m-2309 -176 c85 -1 165 -5 176 -9 28 -9 50 -82 27 -90 -25 -10 -883 -7 -883 3 0 10 39 15 255 36 150 14 150 14 174 45 22 28 28 31 60 24 20 -4 106 -8 191 -9z m563 -32 c38 -74 39 -73 -67 -73 -52 0 -97 4 -100 9 -11 16 28 51 79 71 66 25 72 25 88 -7z m4026 -84 c30 -29 73 -39 159 -39 70 0 112 -11 112 -29 0 -14 -277 -22 -538 -15 -139 4 -249 11 -245 15 4 4 87 15 183 24 154 14 179 19 210 41 43 30 89 31 119 3z"
       id="path504"
       style="fill:#6699ff" />
    <path
       d="M7685 2500 c-8 -16 -15 -31 -15 -35 0 -3 38 -5 85 -5 82 0 85 1 75 20 -14 26 -61 50 -99 50 -24 0 -34 -7 -46 -30z"
       id="path506"
       style="fill:#000099" />
    <path
       d="M7593 2463 c9 -2 25 -2 35 0 9 3 1 5 -18 5 -19 0 -27 -2 -17 -5z"
       id="path508"
       style="fill:#000099" />
    <path
       d="M5515 2463 l-25 -38 80 -3 c44 -2 117 -2 163 0 l82 3 -55 38 c-52 35 -58 37 -137 37 l-82 0 -26 -37z"
       id="path510"
       style="fill:#cc9966" />
    <path
       d="M5248 2393 c-10 -2 -18 -8 -18 -13 0 -15 39 -16 321 -7 274 9 288 9 367 -12 103 -26 127 -26 154 1 21 21 21 22 2 29 -20 8 -797 10 -826 2z"
       id="path512"
       style="fill:#cc9966" />
    <path
       d="M5453 2351 c-116 -3 -215 -10 -219 -14 -5 -4 143 -7 329 -6 314 2 391 7 300 23 -40 6 -68 6 -410 -3z"
       id="path514"
       style="fill:#cc9966" />
    <path
       d="M3351 2450 c-17 -14 -38 -20 -76 -20 -62 0 -85 -7 -85 -25 0 -7 7 -16 16 -19 24 -9 247 -7 262 2 9 6 0 19 -34 45 -26 21 -50 37 -53 37 -3 -1 -17 -10 -30 -20z"
       id="path516"
       style="fill:#cc6600" />
    <path
       d="M3110 2390 c-11 -7 -7 -10 18 -10 17 0 32 5 32 10 0 13 -30 13 -50 0z"
       id="path518"
       style="fill:#cc6600" />
    <path
       d="M3678 2403 c-45 -7 -32 -24 15 -21 23 2 41 8 40 13 -2 12 -17 14 -55 8z"
       id="path520"
       style="fill:#cc6600" />
    <path
       d="M1208 2183 c-16 -16 -28 -32 -28 -36 0 -4 102 -7 226 -7 l225 0 -3 22 c-5 35 -60 43 -253 36 -22 0 -62 2 -90 6 -47 7 -52 6 -77 -21z"
       id="path522"
       style="fill:#996600" />
    <path
       d="M1108 2143 c6 -2 18 -2 25 0 6 3 1 5 -13 5 -14 0 -19 -2 -12 -5z"
       id="path524"
       style="fill:#996600" />
    <path
       d="M1925 2175 c-22 -8 -41 -15 -42 -15 -2 0 -3 -4 -3 -10 0 -11 113 -14 123 -4 9 9 -12 44 -26 44 -7 -1 -30 -7 -52 -15z"
       id="path526"
       style="fill:#996600" />
    <path
       d="M5970 2103 c-24 -9 -50 -35 -44 -44 3 -5 42 -9 87 -8 62 0 76 3 59 10 -13 5 -35 18 -49 29 -27 21 -29 22 -53 13z"
       id="path528"
       style="fill:#000099" />
    <path
       d="M4246 2777 c-11 -23 -22 -46 -24 -51 -4 -8 98 0 106 9 5 4 -49 85 -57 85 -3 0 -15 -19 -25 -43z"
       id="path530"
       style="fill:#006633" />
    <path
       d="M4587 2800 c-19 -27 -14 -40 13 -40 26 0 30 11 16 39 l-13 24 -16 -23z"
       id="path532"
       style="fill:#006633" />
    <path
       d="M4665 2759 c-40 -19 -107 -21 -175 -4 -20 5 -30 0 -48 -24 l-23 -31 221 0 c137 0 220 4 220 10 0 12 -86 56 -125 63 -19 4 -44 -1 -70 -14z"
       id="path534"
       style="fill:#006633" />
    <path
       d="M4328 2703 c12 -2 32 -2 45 0 12 2 2 4 -23 4 -25 0 -35 -2 -22 -4z"
       id="path536"
       style="fill:#006633" />
    <path
       d="M4416 2672 c-2 -4 2 -16 10 -27 14 -19 14 -19 29 1 8 10 15 22 15 27 0 9 -47 9 -54 -1z"
       id="path538"
       style="fill:#990066" />
  </g>
</svg>
