<?xml version="1.0" standalone="no"?>
<!DOCTYPE svg PUBLIC "-//W3C//DTD SVG 20010904//EN"
 "http://www.w3.org/TR/2001/REC-SVG-20010904/DTD/svg10.dtd">
<svg version="1.0" xmlns="http://www.w3.org/2000/svg"
 width="1024.000000pt" height="1024.000000pt" viewBox="0 0 1024.000000 1024.000000"
 preserveAspectRatio="xMidYMid meet">
<metadata>
Created by potrace 1.14, written by Peter Selinger 2001-2017
</metadata>
<g transform="translate(0.000000,1024.000000) scale(0.100000,-0.100000)"
fill="#000000" stroke="none">
<path d="M7258 10080 c-31 -5 -96 -24 -145 -42 -156 -59 -268 -151 -326 -268
-29 -59 -32 -73 -32 -160 0 -83 4 -102 28 -151 30 -62 93 -126 154 -158 141
-71 512 -94 708 -42 195 51 333 162 390 313 24 66 17 164 -19 239 -52 111
-191 212 -351 254 -71 19 -322 28 -407 15z m412 -50 c149 -43 270 -131 321
-235 34 -70 34 -180 0 -245 -71 -136 -207 -229 -396 -271 -87 -20 -365 -17
-484 4 -200 37 -313 139 -328 299 -18 193 129 358 392 442 107 34 118 35 280
31 106 -3 158 -9 215 -25z"/>
<path d="M6635 9247 c-99 -33 -184 -98 -221 -168 -37 -72 -28 -187 20 -252 65
-88 308 -123 460 -67 244 92 264 362 34 465 -52 23 -80 29 -158 32 -61 2 -109
-2 -135 -10z m265 -43 c65 -27 109 -65 135 -117 30 -60 31 -107 6 -162 -54
-116 -200 -174 -392 -154 -122 12 -177 42 -210 114 -64 138 47 296 234 335 54
11 182 2 227 -16z"/>
<path d="M6089 8745 c-96 -35 -163 -84 -208 -152 -79 -119 -3 -192 189 -180
105 6 197 39 287 103 79 56 105 101 82 142 -45 81 -237 129 -350 87z m258 -51
c50 -25 58 -34 61 -60 2 -25 -4 -38 -38 -68 -92 -83 -257 -135 -380 -121 -131
15 -144 83 -37 182 82 76 155 104 259 100 62 -3 89 -10 135 -33z"/>
<path d="M5563 8609 c-77 -38 -93 -126 -31 -172 39 -29 133 -28 180 1 34 21
58 58 58 88 0 34 -31 72 -70 88 -54 21 -86 20 -137 -5z m144 -35 c31 -19 38
-50 18 -80 -33 -51 -138 -62 -180 -19 -30 29 -31 45 -4 79 34 44 112 53 166
20z"/>
<path d="M5625 8302 c-49 -7 -50 -8 -57 -47 -4 -22 -7 -177 -7 -345 l0 -305
-823 -5 -823 -5 -65 65 c-59 59 -135 145 -263 298 -26 31 -52 57 -58 57 -5 0
-33 -28 -62 -62 -100 -119 -195 -228 -259 -298 l-66 -70 -458 -3 -459 -2 -49
-52 c-26 -28 -90 -102 -140 -162 -51 -61 -211 -241 -356 -401 -144 -159 -382
-423 -528 -585 -146 -162 -305 -334 -354 -381 -87 -85 -106 -120 -72 -133 9
-3 85 -6 169 -6 177 0 167 6 163 -104 -2 -62 -4 -68 -41 -103 -21 -21 -80 -82
-129 -136 -84 -91 -90 -99 -75 -114 12 -12 41 -18 106 -21 l90 -4 1 -2192 c0
-1205 3 -2273 6 -2372 l7 -182 47 -6 c63 -8 8189 -8 8251 0 l49 7 1 236 c0
130 0 1057 -1 2061 -1 1004 2 1966 6 2138 l7 312 61 0 c73 0 136 16 136 34 0
14 -154 186 -216 242 -34 31 -34 32 -34 118 l0 86 158 0 c116 0 163 4 176 13
26 19 13 52 -36 87 -33 24 -304 317 -648 700 -41 46 -181 201 -311 344 -130
144 -284 317 -342 386 -58 69 -120 139 -138 157 l-34 32 -458 3 -459 3 -59 65
c-33 36 -87 99 -121 140 -34 41 -94 110 -133 153 l-70 79 -44 -49 c-24 -26
-77 -88 -118 -138 -42 -49 -104 -120 -140 -157 l-64 -67 -128 -7 -128 -7 -7
154 c-9 219 -24 447 -32 496 -6 38 -9 41 -43 47 -56 9 -470 15 -526 8z m390
-51 l120 -6 0 -45 0 -45 -195 -6 c-215 -7 -200 -6 -200 -18 0 -5 68 -12 151
-16 l150 -7 -3 -27 c-2 -17 -10 -27 -23 -29 -47 -7 -65 -13 -65 -22 0 -6 39
-10 93 -10 52 0 96 -2 99 -5 3 -3 2 -22 -1 -43 l-6 -37 -65 -2 c-85 -4 -130
-12 -130 -23 0 -6 22 -10 49 -10 54 0 66 -9 57 -44 -5 -21 -9 -22 -100 -18
-53 2 -103 1 -113 -2 -41 -16 26 -30 165 -34 l143 -5 -3 -36 c-3 -31 -7 -36
-31 -39 -42 -5 -27 -27 21 -30 43 -3 44 -4 46 -59 1 -16 -12 -18 -134 -20 -74
-1 -202 -5 -283 -8 l-148 -6 3 68 3 68 33 3 c17 2 32 7 32 12 0 5 -15 10 -32
12 l-33 3 0 247 0 248 140 -1 c77 -1 194 -4 260 -8z m137 -166 l4 -35 -43 0
c-42 0 -43 0 -43 35 0 34 1 35 39 35 37 0 39 -2 43 -35z m802 -255 c27 -30 81
-89 120 -131 110 -117 156 -168 225 -249 35 -41 127 -142 205 -225 77 -82 165
-175 194 -206 28 -31 52 -59 52 -63 0 -3 -12 -11 -26 -16 -24 -9 -30 -6 -68
37 -22 26 -101 106 -175 178 -74 71 -172 175 -220 230 -47 54 -117 133 -156
175 -129 140 -230 253 -233 261 -2 5 -7 9 -12 9 -9 0 -232 -241 -406 -439 -61
-69 -169 -182 -240 -251 -71 -69 -145 -144 -165 -168 -33 -41 -36 -43 -62 -31
-15 7 -26 16 -25 20 2 4 86 96 188 205 102 108 221 238 265 288 43 50 144 161
223 246 80 85 161 176 181 203 l35 47 26 -32 c14 -18 47 -58 74 -88z m-3380
63 c38 -48 72 -86 206 -228 41 -44 136 -150 211 -235 75 -85 156 -173 179
-195 23 -22 90 -94 148 -159 98 -111 104 -120 87 -132 -23 -17 -45 -18 -45 -3
0 6 -85 95 -188 198 -104 102 -218 220 -253 262 -67 80 -203 231 -322 358 -67
71 -70 73 -87 55 -70 -74 -273 -300 -360 -399 -57 -66 -177 -191 -265 -277
-89 -86 -167 -168 -175 -182 -16 -30 -27 -32 -58 -10 -22 15 -22 15 45 87 38
39 120 126 184 192 64 66 142 152 174 190 31 39 129 147 216 241 87 94 179
196 205 228 26 31 50 56 54 56 4 0 24 -21 44 -47z m2586 -28 c0 -35 0 -35 -45
-35 -43 0 -45 1 -45 28 0 37 6 42 52 42 37 0 38 -1 38 -35z m-2630 -125 c0 -5
-5 -10 -11 -10 -5 0 -7 5 -4 10 3 6 8 10 11 10 2 0 4 -4 4 -10z m3345 -10 c18
-20 17 -20 -20 -20 -37 0 -38 0 -20 20 10 11 19 20 20 20 1 0 10 -9 20 -20z
m-3258 -72 c18 -18 33 -36 33 -40 0 -5 -44 -7 -97 -6 -94 3 -98 4 -101 26 -7
45 3 52 70 52 56 0 65 -3 95 -32z m3384 -60 c41 -45 111 -123 157 -173 46 -49
79 -90 75 -91 -4 -1 -21 -5 -37 -9 -40 -8 -22 -23 40 -32 49 -8 56 -13 174
-135 l122 -128 -80 0 c-44 0 -94 3 -111 6 -29 6 -31 9 -31 49 0 33 5 46 23 58
l22 16 -25 -2 c-14 0 -100 0 -192 1 l-168 2 0 34 c0 32 2 35 40 41 80 13 50
25 -64 25 l-116 0 0 44 c0 43 0 44 40 50 22 3 40 10 40 15 0 10 -349 25 -373
15 -30 -11 -19 6 70 102 l86 94 76 0 c42 0 86 3 99 6 44 12 21 24 -48 24 -59
0 -70 3 -70 17 0 38 30 53 105 53 l72 0 74 -82z m-3581 22 c0 -5 -5 -10 -11
-10 -5 0 -7 5 -4 10 3 6 8 10 11 10 2 0 4 -4 4 -10z m90 -85 l0 -45 -95 0
c-91 0 -95 1 -95 22 0 12 10 32 22 45 19 20 31 23 95 23 l73 0 0 -45z m267
-48 l82 -92 -52 -2 c-85 -4 -138 -14 -132 -24 4 -5 24 -9 46 -9 l39 0 0 -49 0
-49 -189 -3 c-174 -4 -215 -9 -198 -25 3 -3 71 -8 151 -11 l146 -6 0 -28 c0
-25 -5 -29 -37 -34 -77 -13 -65 -20 35 -23 l102 -3 0 -44 0 -45 -77 0 c-84 0
-123 -7 -123 -21 0 -5 17 -9 38 -9 20 0 44 -5 52 -10 17 -11 -668 -14 -732 -4
-32 6 -38 11 -38 30 0 18 6 24 23 24 33 0 67 11 67 21 0 5 -16 9 -36 9 -32 0
-34 2 -22 19 7 10 81 89 163 176 83 86 154 163 158 171 6 11 42 14 165 14 153
0 218 11 159 25 -24 6 -27 12 -27 51 l0 44 78 0 77 -1 82 -92z m2653 65 c0 -5
-13 -21 -29 -36 l-28 -27 -6 22 c-4 15 0 27 11 35 19 15 52 18 52 6z m-146
-15 c18 -13 18 -15 -2 -59 -23 -52 -56 -67 -100 -46 -34 17 -63 95 -41 109 22
14 123 11 143 -4z m-2071 -4 c10 -16 -19 -77 -45 -96 -48 -36 -99 -4 -114 71
l-6 32 80 0 c45 0 83 -3 85 -7z m228 -23 c-6 -45 -29 -78 -60 -85 -39 -8 -70
9 -87 50 -26 64 -23 66 69 63 81 -3 82 -3 78 -28z m233 3 c-13 -53 -33 -81
-63 -88 -39 -8 -70 9 -87 50 -26 63 -23 65 71 65 l85 0 -6 -27z m231 -5 c-15
-72 -58 -102 -111 -76 -27 13 -60 80 -48 99 3 5 41 9 85 9 l81 0 -7 -32z m235
17 c0 -32 -30 -85 -54 -96 -30 -14 -80 3 -91 29 -15 37 -23 71 -17 76 3 3 41
6 84 6 63 0 78 -3 78 -15z m230 0 c0 -50 -44 -105 -84 -105 -27 0 -67 44 -75
83 l-9 37 84 0 c69 0 84 -3 84 -15z m227 -22 c-7 -41 -46 -83 -77 -83 -31 0
-70 42 -77 83 l-6 37 83 0 83 0 -6 -37z m233 6 c0 -36 -47 -89 -79 -89 -32 0
-71 41 -78 83 l-6 37 82 0 81 0 0 -31z m232 6 c-6 -44 -25 -74 -53 -86 -41
-16 -76 1 -95 46 -26 64 -24 66 69 63 76 -3 82 -5 79 -23z m-3706 -17 c-7 -36
-47 -78 -75 -78 -22 0 -71 37 -71 53 0 6 10 21 22 34 17 19 32 23 76 23 l55 0
-7 -32z m234 18 c0 -53 -51 -103 -95 -92 -27 7 -65 59 -65 89 0 15 10 17 80
17 63 0 80 -3 80 -14z m230 -6 c0 -62 -62 -106 -110 -80 -20 11 -50 65 -50 90
0 6 32 10 80 10 74 0 80 -2 80 -20z m233 -4 c-3 -13 -20 -38 -38 -56 -27 -26
-39 -31 -59 -26 -26 6 -49 34 -60 73 -6 20 -3 22 41 26 121 9 121 9 116 -17z
m4393 11 c10 -10 -16 -75 -32 -81 -26 -10 -31 -7 -75 46 l-43 51 72 -5 c40 -3
75 -8 78 -11z m234 -7 c0 -78 -95 -119 -134 -57 -8 12 -17 32 -20 44 -8 25 5
29 97 32 50 1 57 -1 57 -19z m234 -2 c-13 -46 -34 -77 -55 -83 -48 -16 -88 15
-103 78 l-6 27 85 0 c85 0 86 0 79 -22z m224 -10 c5 -42 -39 -82 -81 -74 -40
8 -53 21 -65 69 l-11 38 77 -3 c76 -3 77 -4 80 -30z m-3832 -97 c22 -10 25
-15 19 -44 -10 -46 -42 -77 -80 -77 -37 0 -62 23 -75 71 -9 30 -7 35 24 61 19
15 37 40 40 54 7 27 7 27 27 -13 11 -22 31 -45 45 -52z m223 8 c28 -22 30 -27
21 -58 -14 -48 -38 -71 -75 -71 -36 0 -59 21 -76 69 -11 31 -10 34 24 62 19
16 38 41 42 56 l7 28 13 -31 c7 -17 27 -42 44 -55z m1397 -8 c20 -9 25 -17 20
-34 -3 -12 -6 -27 -6 -33 0 -24 -42 -54 -74 -54 -38 0 -62 22 -76 71 -9 31 -7
36 19 56 15 12 34 36 41 53 l12 30 20 -38 c10 -22 30 -44 44 -51z m371 1 c-31
-31 -47 -41 -47 -30 0 9 16 32 35 51 19 19 35 43 36 54 0 15 2 14 11 -5 10
-21 7 -28 -35 -70z m1242 7 c17 -12 31 -29 31 -36 0 -16 -32 -83 -40 -83 -3 0
-29 24 -58 53 -52 52 -52 54 -33 71 10 10 25 31 32 48 l12 30 13 -30 c7 -17
26 -40 43 -53z m232 -2 c32 -25 32 -26 20 -66 -13 -45 -34 -61 -80 -61 -33 0
-55 24 -70 77 -8 27 -5 33 25 57 19 15 37 39 41 54 l6 27 13 -31 c7 -18 28
-43 45 -57z m-5316 -5 c23 -11 26 -17 21 -40 -11 -46 -40 -77 -75 -80 -41 -4
-67 18 -81 67 -9 33 -8 38 15 55 14 10 33 32 42 49 l16 31 18 -35 c9 -19 30
-41 44 -47z m230 1 c23 -16 26 -24 21 -50 -10 -45 -41 -73 -80 -73 -39 0 -60
21 -74 72 -9 34 -8 38 14 53 13 8 31 29 40 46 l16 31 18 -29 c10 -16 30 -39
45 -50z m230 1 c14 -9 25 -22 25 -28 0 -7 -20 -31 -44 -55 -50 -49 -76 -49
-101 -1 -22 43 -18 68 14 96 17 14 33 34 36 45 7 20 8 19 26 -9 10 -17 30 -38
44 -48z m1805 51 c0 -8 16 -27 35 -42 39 -31 43 -49 20 -93 -17 -32 -51 -46
-90 -36 -48 12 -75 108 -34 121 11 4 27 22 36 40 16 33 33 38 33 10z m268 -42
c37 -37 39 -56 12 -100 -15 -26 -26 -33 -51 -33 -43 0 -65 15 -78 51 -16 48
-14 64 13 79 14 7 30 26 37 43 12 28 14 29 23 11 6 -10 26 -33 44 -51z m192
51 c0 -16 46 -68 68 -75 10 -3 10 -11 1 -39 -17 -51 -38 -70 -75 -70 -39 0
-69 28 -78 71 -5 25 0 36 29 65 19 19 35 41 35 49 0 8 5 15 10 15 6 0 10 -7
10 -16z m238 -14 c8 -17 27 -37 44 -46 25 -13 29 -20 23 -42 -10 -46 -39 -77
-74 -80 -40 -4 -67 18 -80 66 -9 32 -7 37 24 67 19 18 35 40 35 49 0 26 14 19
28 -14z m272 -42 c26 -16 26 -54 0 -95 -15 -26 -26 -33 -51 -33 -46 0 -67 16
-81 61 -11 40 -11 42 15 61 15 11 35 34 43 50 l16 30 19 -31 c10 -17 28 -36
39 -43z m466 -5 c27 -20 27 -22 16 -62 -13 -43 -35 -61 -74 -61 -35 0 -57 20
-72 65 -14 40 -14 40 19 68 19 15 37 37 40 48 7 20 8 19 25 -8 10 -16 30 -39
46 -50z m1804 52 c0 -7 16 -26 35 -42 32 -27 34 -31 25 -62 -14 -48 -38 -71
-75 -71 -36 0 -59 21 -76 69 -11 31 -10 34 24 62 20 16 39 38 42 49 7 22 25
18 25 -5z m238 -9 c6 -14 23 -32 37 -42 30 -20 32 -48 5 -91 -15 -26 -26 -33
-51 -33 -46 0 -67 16 -81 62 -11 39 -11 42 14 62 14 11 31 31 37 44 15 28 25
28 39 -2z m-6008 -16 c0 -6 11 -16 25 -22 29 -13 33 -44 10 -88 -26 -50 -98
-54 -124 -9 -14 26 -13 29 28 78 41 49 61 62 61 41z m1734 -99 c10 -9 27 -28
38 -43 l19 -28 -95 0 -96 0 0 51 0 50 58 -6 c31 -4 65 -15 76 -24z m2658 -21
l3 -50 -87 0 c-49 0 -88 3 -88 7 0 4 19 27 42 50 36 37 48 43 84 43 l42 0 4
-50z m168 40 l55 0 0 -45 0 -45 -92 0 -93 0 0 51 0 52 38 -7 c20 -3 62 -6 92
-6z m-1405 -92 c29 -13 31 -25 11 -73 -14 -33 -41 -55 -70 -55 -26 0 -67 44
-75 80 -6 31 -4 37 20 52 15 9 33 32 40 52 l13 35 17 -39 c10 -22 29 -45 44
-52z m-3004 -3 c47 -15 -7 -125 -60 -125 -31 0 -70 39 -77 75 -5 30 -2 38 30
68 20 19 36 43 36 53 0 13 9 5 25 -23 14 -23 35 -45 46 -48z m223 8 c30 -24
32 -42 10 -88 -28 -59 -97 -57 -129 5 -22 43 -19 64 15 88 16 12 33 34 36 48
l6 25 18 -29 c10 -16 30 -38 44 -49z m221 11 l31 -32 -47 -53 c-41 -46 -51
-52 -66 -43 -10 6 -24 28 -32 50 -14 39 -14 39 23 76 20 20 36 44 37 55 0 17
1 17 12 -2 7 -11 26 -34 42 -51z m1585 49 c0 -9 18 -32 39 -52 39 -36 39 -36
26 -75 -16 -46 -22 -53 -56 -61 -33 -8 -85 33 -94 74 -5 23 0 34 30 64 19 19
35 42 35 51 0 9 5 16 10 16 6 0 10 -7 10 -17z m510 -61 c26 -15 29 -21 24 -47
-14 -71 -58 -99 -111 -71 -21 10 -33 27 -42 56 -7 23 -11 43 -9 45 2 1 13 7
24 13 12 6 29 28 39 48 l17 37 14 -32 c7 -17 27 -39 44 -49z m235 -4 c14 -6
25 -17 25 -25 0 -30 -30 -84 -54 -94 -34 -16 -81 4 -94 39 -24 61 -23 68 3 80
14 6 33 28 42 47 l17 36 19 -36 c10 -20 29 -41 42 -47z m425 43 c11 -22 29
-43 41 -46 47 -15 -7 -125 -60 -125 -31 0 -70 39 -77 75 -5 30 -2 39 23 63 17
15 33 37 37 50 4 12 9 22 11 22 3 0 14 -18 25 -39z m666 11 c-18 -16 -18 -16
-6 6 6 13 14 21 18 18 3 -4 -2 -14 -12 -24z m1445 -43 c34 -33 36 -37 25 -69
-6 -18 -16 -35 -21 -37 -6 -2 -32 19 -59 46 l-49 49 22 28 c11 14 21 34 22 43
0 13 3 12 12 -4 7 -11 28 -36 48 -56z m241 -10 l30 -26 -20 -45 c-14 -33 -27
-47 -46 -52 -43 -11 -79 13 -95 62 -13 41 -12 43 13 63 15 11 34 35 42 52 l16
31 15 -30 c8 -16 29 -41 45 -55z m463 -1 c29 -13 31 -25 11 -73 -26 -60 -72
-71 -117 -26 -38 39 -38 77 0 114 17 15 33 37 37 49 6 20 8 19 26 -15 10 -21
30 -43 43 -49z m-3740 39 c11 -18 30 -36 42 -42 17 -7 21 -15 16 -35 -13 -53
-23 -71 -49 -80 -52 -20 -97 10 -110 76 -5 25 -1 32 20 43 14 8 31 27 38 43 7
15 15 28 18 28 3 -1 14 -15 25 -33z m1153 5 c7 -16 23 -35 37 -42 35 -19 34
-63 -4 -101 -44 -43 -87 -35 -116 21 -22 42 -19 58 14 86 17 14 33 34 36 44 9
27 18 25 33 -8z m227 8 c3 -11 21 -32 40 -47 33 -28 33 -28 19 -68 -7 -22 -21
-45 -31 -52 -41 -31 -96 -4 -114 57 -11 37 -11 40 19 65 17 14 34 35 37 45 8
26 22 25 30 0z m2130 -52 c22 -10 25 -16 19 -42 -8 -42 -29 -73 -54 -81 -31
-10 -77 13 -88 43 -24 61 -23 68 2 80 14 6 32 25 41 43 l17 31 19 -31 c10 -17
30 -37 44 -43z m-6045 23 c5 -11 19 -23 30 -26 26 -8 26 -40 0 -82 -25 -42
-63 -52 -97 -26 -46 34 -47 56 -2 107 45 51 54 55 69 27z m4070 -35 c0 -3 -4
-8 -10 -11 -5 -3 -10 -1 -10 4 0 6 5 11 10 11 6 0 10 -2 10 -4z m790 -51 l0
-35 -75 -2 c-41 -1 -85 -2 -97 -2 -19 -1 -24 5 -26 31 l-3 32 93 4 c51 1 96 4
101 5 4 1 7 -14 7 -33z m-3052 -7 l-3 -33 -91 -3 c-89 -3 -92 -2 -96 21 -8 44
-1 47 98 47 l95 0 -3 -32z m162 7 c13 -14 22 -27 19 -29 -2 -2 -35 -5 -74 -7
l-70 -4 -3 33 -3 32 54 0 c44 0 58 -4 77 -25z m2440 -4 c0 -28 -3 -30 -45 -37
-77 -11 -49 -24 53 -24 l97 0 -3 -45 -4 -45 -68 0 c-77 0 -130 -9 -130 -21 0
-5 17 -9 38 -9 20 0 44 -5 52 -10 22 -14 -164 -13 -250 2 l-70 12 98 102 97
101 68 2 67 1 0 -29z m228 -3 l-3 -33 -97 -3 -98 -3 0 36 0 35 101 0 100 0 -3
-32z m-4263 -76 c23 -11 26 -17 21 -40 -11 -46 -40 -77 -75 -80 -41 -4 -67 18
-81 67 -9 33 -8 38 16 55 15 11 33 35 41 54 l15 35 17 -39 c11 -23 29 -45 46
-52z m2074 7 c29 -23 30 -26 20 -61 -10 -39 -41 -68 -70 -68 -17 0 -89 75 -89
92 0 5 18 26 40 47 22 21 40 46 40 57 1 13 5 10 14 -12 8 -17 28 -42 45 -55z
m236 -5 c29 -19 31 -43 10 -84 -37 -73 -145 -36 -145 49 0 10 16 35 35 54 19
19 35 43 35 54 1 12 8 5 21 -19 10 -21 31 -45 44 -54z m699 -2 c22 -10 25 -16
20 -39 -11 -52 -38 -78 -79 -78 -42 0 -69 27 -79 80 -5 25 -3 32 16 40 13 6
31 27 42 48 l18 39 18 -39 c9 -22 29 -44 44 -51z m456 6 c31 -24 32 -27 21
-59 -16 -46 -40 -69 -70 -69 -39 0 -69 25 -80 68 -10 34 -9 38 18 59 15 12 34
36 41 53 l13 32 12 -30 c7 -16 27 -40 45 -54z m1851 -1 c27 -21 30 -28 24 -55
-3 -18 -11 -35 -17 -38 -6 -4 -32 17 -58 47 -41 46 -46 56 -35 69 7 8 16 26
20 40 l8 25 13 -31 c7 -18 27 -43 45 -57z m464 -3 c29 -19 31 -43 10 -84 -29
-56 -107 -53 -131 5 -20 49 -18 70 10 83 14 6 30 27 37 47 l13 36 18 -36 c10
-19 30 -42 43 -51z m-6052 42 c9 -19 25 -37 36 -41 36 -11 17 -103 -24 -119
-42 -16 -75 -6 -95 27 -29 47 -26 79 10 99 16 9 32 28 36 42 8 35 17 33 37 -8z
m485 -28 l24 -27 -43 -50 c-59 -68 -76 -66 -97 11 -9 34 -8 38 14 53 13 8 31
29 40 47 15 29 17 30 26 12 6 -10 22 -31 36 -46z m2320 -5 c36 -35 39 -51 17
-92 -37 -72 -128 -45 -142 42 -4 29 -2 36 14 41 11 4 29 22 39 42 17 31 20 33
29 17 6 -10 25 -32 43 -50z m202 34 c8 -17 26 -37 40 -44 14 -7 25 -17 24 -23
-1 -5 -2 -19 -2 -30 -3 -32 -47 -70 -80 -70 -33 0 -57 22 -73 69 -11 30 -9 34
25 67 20 19 36 41 36 49 0 25 14 16 30 -18z m500 -42 c41 -13 12 -109 -37
-121 -45 -12 -76 7 -93 55 -15 42 -15 43 13 63 15 11 35 34 44 51 l16 31 18
-36 c10 -20 28 -39 39 -43z m2307 9 c29 -29 31 -35 23 -64 -14 -47 -38 -70
-75 -70 -36 0 -59 21 -76 69 -11 31 -10 34 24 62 20 16 39 39 43 52 7 21 7 21
18 2 6 -11 25 -34 43 -51z m432 35 c7 -17 25 -36 38 -42 22 -10 24 -16 20 -51
-14 -103 -136 -99 -153 6 -5 29 -3 35 19 45 13 6 31 25 38 42 8 17 16 31 19
31 3 0 11 -14 19 -31z m-6428 -49 c20 0 3 -82 -21 -102 -31 -25 -72 -23 -97 5
-37 41 -36 55 9 107 l43 49 27 -29 c15 -17 32 -30 39 -30z m1999 -15 c0 -20
-6 -37 -12 -39 -7 -3 -52 -7 -100 -10 l-88 -5 0 39 c0 44 3 45 133 48 l67 2 0
-35z m145 -5 l39 -40 -77 0 -77 0 0 40 c0 40 0 40 38 40 31 0 45 -7 77 -40z
m2675 0 l0 -40 -54 0 c-29 0 -74 -3 -100 -6 l-47 -7 3 39 c4 45 17 51 131 53
l67 1 0 -40z m240 0 l0 -40 -100 0 -100 0 0 40 0 40 100 0 100 0 0 -40z m222
-5 l-4 -45 -43 0 c-23 0 -63 3 -89 6 -46 7 -46 7 -46 45 l0 39 93 0 92 0 -3
-45z m-5177 -115 c30 -16 32 -44 5 -87 -17 -28 -25 -33 -58 -33 -46 0 -70 22
-78 72 -5 29 -2 37 19 51 14 9 31 33 38 52 l13 36 19 -39 c10 -22 29 -45 42
-52z m3240 -2 c23 -10 26 -16 21 -42 -11 -54 -32 -76 -75 -76 -44 0 -70 23
-80 72 -6 29 -4 35 20 50 15 9 33 32 40 52 l13 35 17 -39 c10 -23 29 -45 44
-52z m-3049 46 c9 -20 28 -41 42 -47 20 -9 23 -16 18 -45 -8 -49 -32 -72 -76
-72 -43 0 -67 21 -76 68 -5 27 -1 36 30 65 20 19 36 42 36 51 0 25 8 19 26
-20z m224 11 c0 -7 16 -27 36 -45 31 -27 35 -36 30 -63 -9 -46 -33 -67 -77
-67 -41 0 -61 19 -74 72 -6 23 -1 33 29 61 20 19 36 42 36 51 0 10 5 14 10 11
6 -3 10 -12 10 -20z m2360 -53 c26 -15 29 -21 24 -47 -12 -53 -33 -75 -73 -75
-46 0 -57 8 -76 53 -20 48 -19 51 9 66 13 7 31 29 41 49 l18 37 14 -33 c7 -18
27 -41 43 -50z m236 -4 c22 -10 25 -17 20 -42 -11 -55 -32 -76 -76 -76 -45 0
-65 17 -79 66 -9 33 -8 38 20 62 17 14 35 37 41 51 l10 26 19 -38 c11 -21 31
-43 45 -49z m452 13 c28 -29 33 -40 28 -65 -9 -45 -34 -66 -76 -66 -44 0 -68
23 -76 72 -5 29 -2 37 18 50 14 9 31 31 38 49 13 30 15 31 24 13 6 -10 26 -34
44 -53z m2327 -13 c30 -13 30 -20 5 -75 -18 -41 -21 -43 -63 -43 -35 0 -48 5
-59 22 -13 20 -13 26 4 54 11 18 18 39 17 46 -2 7 5 29 15 47 l19 35 19 -37
c10 -21 30 -43 43 -49z m461 0 c22 -10 25 -17 20 -42 -11 -55 -32 -76 -76 -76
-71 0 -107 83 -55 128 14 13 30 35 36 50 l11 27 19 -38 c11 -21 31 -43 45 -49z
m229 0 c30 -14 32 -41 5 -85 -17 -28 -25 -33 -58 -33 -46 0 -70 22 -78 72 -5
29 -2 37 18 50 14 9 31 31 38 48 l13 32 19 -36 c10 -20 30 -42 43 -48z m-3970
40 c16 -25 44 -49 62 -54 8 -1 -20 -76 -33 -89 -23 -22 -79 -19 -103 6 -29 31
-38 79 -17 91 25 14 56 50 56 65 0 22 14 14 35 -19z m1145 18 c0 -8 16 -28 36
-46 31 -27 35 -36 30 -63 -9 -46 -33 -67 -78 -67 -33 0 -41 5 -58 33 -27 44
-25 64 9 93 17 14 33 34 36 44 7 23 25 27 25 6z m2365 -58 c22 -10 25 -16 19
-42 -12 -55 -32 -76 -73 -76 -52 0 -69 17 -84 81 -5 21 -2 28 18 37 13 6 31
25 40 43 l17 31 19 -31 c10 -17 30 -37 44 -43z m-6287 37 c7 -14 23 -31 38
-37 22 -10 25 -17 20 -42 -11 -55 -32 -76 -76 -76 -44 0 -80 35 -80 78 0 22
63 102 81 102 3 0 11 -11 17 -25z m1022 15 c0 -5 -5 -10 -11 -10 -5 0 -7 5 -4
10 3 6 8 10 11 10 2 0 4 -4 4 -10z m1010 -15 c0 -12 -16 -15 -87 -15 -107 0
-102 17 7 23 41 1 76 4 78 5 1 1 2 -5 2 -13z m238 3 c-3 -9 -35 -14 -101 -16
-82 -2 -97 0 -97 13 0 12 17 15 101 15 76 0 100 -3 97 -12z m111 8 c-11 -9
-69 -14 -69 -6 0 6 17 10 37 10 20 0 34 -2 32 -4z m2714 -11 c-2 -6 -47 -11
-103 -13 -85 -2 -100 0 -100 13 0 13 15 15 103 13 61 -2 101 -7 100 -13z m227
0 c0 -12 -17 -15 -95 -15 -78 0 -95 3 -95 15 0 12 17 15 95 15 78 0 95 -3 95
-15z m-465 -5 c-3 -5 -44 -10 -91 -10 -54 0 -83 4 -79 10 3 6 44 10 91 10 54
0 83 -4 79 -10z m760 0 c-4 -6 -60 -10 -136 -10 -79 0 -129 4 -129 10 0 6 52
10 136 10 87 0 133 -4 129 -10z m-1512 -92 c10 -10 31 -21 47 -25 46 -9 38
-33 -10 -33 -45 0 -66 22 -75 81 -5 30 -4 32 7 15 7 -11 21 -28 31 -38z
m-1691 -565 c3 -329 3 -600 1 -603 -6 -6 -781 -6 -1165 0 l-287 5 2 597 2 598
721 0 721 0 5 -597z m3325 139 c2 -531 7 -740 18 -766 8 -18 1 -18 -191 -12
-109 4 -338 16 -509 28 -170 11 -412 21 -537 22 l-227 1 2 592 2 593 720 0
720 0 2 -458z m-5127 346 c31 -24 32 -27 21 -59 -17 -48 -40 -69 -76 -69 -37
0 -61 23 -75 71 -9 31 -8 36 16 53 15 11 33 35 41 55 l15 35 13 -30 c7 -17 27
-42 45 -56z m2079 1 c28 -22 30 -27 21 -58 -14 -48 -38 -71 -75 -71 -36 0 -59
21 -76 68 -10 29 -8 33 30 70 23 21 41 47 41 58 1 13 5 10 14 -12 8 -17 28
-42 45 -55z m234 -2 l31 -27 -14 -42 c-17 -47 -48 -66 -93 -54 -28 7 -57 50
-57 85 0 10 16 35 35 54 19 19 35 43 35 54 1 13 5 10 16 -12 9 -16 30 -42 47
-58z m1157 1 c31 -24 32 -27 21 -59 -16 -46 -40 -69 -70 -69 -39 0 -69 25 -80
68 -10 34 -9 38 18 59 15 12 34 36 41 53 l13 32 12 -30 c7 -16 27 -40 45 -54z
m-4205 42 c9 -17 27 -36 40 -42 29 -13 33 -44 10 -87 -35 -70 -124 -46 -141
37 -5 27 -2 35 24 57 17 14 34 35 37 45 8 27 12 25 30 -10z m233 0 c8 -17 27
-37 42 -45 27 -14 28 -16 18 -55 -20 -77 -93 -94 -135 -31 -29 43 -30 77 -2
86 11 4 27 22 36 41 9 19 19 34 22 34 4 0 12 -14 19 -30z m235 -4 c9 -19 25
-37 36 -41 25 -8 27 -32 7 -80 -24 -58 -102 -61 -131 -5 -23 45 -19 73 15 92
16 9 32 28 36 42 8 35 17 33 37 -8z m488 -36 c16 -22 -26 -130 -51 -130 -28 0
-58 31 -68 72 -9 33 -8 38 14 53 13 8 31 29 40 46 l16 31 19 -28 c10 -16 24
-36 30 -44z m2288 35 c11 -19 32 -40 45 -45 22 -8 24 -13 17 -38 -20 -69 -51
-92 -107 -78 -45 12 -72 109 -33 121 11 4 27 22 36 41 9 19 18 34 19 34 1 0
11 -16 23 -35z m229 5 c8 -17 27 -37 43 -46 31 -16 31 -19 8 -81 -17 -46 -82
-57 -116 -20 -12 12 -24 36 -28 54 -5 27 -2 34 18 48 14 9 30 29 37 45 16 38
22 37 38 0z m231 2 c7 -16 25 -36 42 -46 24 -14 28 -22 23 -39 -23 -74 -39
-90 -85 -85 -36 3 -64 35 -74 84 -5 26 -2 32 18 41 14 7 31 25 38 42 17 38 23
39 38 3z m267 -43 c28 -14 31 -46 9 -88 -26 -51 -81 -56 -119 -10 -33 39 -33
72 -1 93 13 9 32 31 41 48 l17 33 15 -32 c8 -17 25 -37 38 -44z m2311 5 c29
-29 31 -35 23 -64 -14 -47 -38 -70 -75 -70 -36 0 -59 21 -76 69 -11 31 -10 34
24 62 20 16 39 39 43 52 7 21 7 21 18 2 6 -11 25 -34 43 -51z m198 36 c9 -17
27 -36 40 -42 29 -13 33 -44 10 -87 -35 -69 -125 -48 -141 34 -5 30 -2 38 24
60 17 14 34 35 37 45 8 27 12 25 30 -10z m233 0 c8 -17 27 -37 42 -45 27 -14
28 -16 18 -55 -20 -77 -93 -94 -135 -31 -29 43 -30 77 -2 86 11 4 27 22 36 41
9 19 19 34 22 34 4 0 12 -14 19 -30z m230 0 c8 -17 27 -37 43 -46 25 -12 28
-19 23 -42 -10 -46 -38 -77 -73 -80 -39 -4 -66 17 -81 64 -11 32 -10 36 24 68
20 18 36 41 36 50 0 26 14 19 28 -14z m-4245 -1 c-12 -13 -28 -19 -37 -16 -25
10 -19 25 12 30 15 2 31 5 37 6 5 0 0 -9 -12 -20z m3346 -29 c36 -35 42 -45
36 -69 -6 -29 -41 -69 -51 -59 -12 13 -52 142 -47 154 8 21 16 18 62 -26z
m962 23 c13 -16 12 -17 -3 -4 -10 7 -18 15 -18 17 0 8 8 3 21 -13z m-970 -296
c160 -318 434 -497 764 -497 l95 0 0 -62 0 -61 -148 6 c-82 4 -297 10 -479 13
l-330 7 -6 156 c-4 86 -7 280 -6 431 l0 275 34 -93 c19 -51 53 -129 76 -175z
m-5016 -533 l-6 -61 -331 -7 c-183 -3 -398 -9 -480 -13 l-148 -6 0 61 0 62 99
0 c223 0 421 80 576 234 111 110 197 252 261 431 l29 80 3 -360 c2 -198 0
-387 -3 -421z m1672 566 c71 -156 204 -316 331 -398 150 -97 308 -138 497
-129 233 11 399 88 562 260 94 100 156 203 220 363 l48 119 3 -290 c2 -159 0
-349 -3 -421 l-7 -131 -371 -9 c-461 -11 -533 -11 -993 0 l-371 9 -6 255 c-9
319 -9 496 0 546 l6 38 27 -73 c15 -41 41 -103 57 -139z m-2306 88 c26 -19 30
-28 25 -52 -11 -54 -33 -76 -75 -76 -44 0 -68 21 -77 69 -6 27 -2 37 25 63 17
17 34 42 38 57 l6 26 14 -32 c7 -18 27 -42 44 -55z m3469 1 c35 -26 38 -51 10
-96 -17 -29 -25 -33 -60 -33 -35 0 -43 4 -60 33 -27 43 -25 71 4 91 14 8 30
32 38 52 l13 36 12 -31 c7 -16 26 -40 43 -52z m2298 13 c15 -16 33 -31 41 -33
12 -4 12 -11 3 -39 -17 -47 -40 -70 -71 -70 -23 0 -31 9 -54 56 l-28 56 24 18
c14 11 31 34 38 52 12 29 14 30 17 11 2 -12 15 -35 30 -51z m990 2 c-9 -8 -58
41 -58 58 0 7 14 -2 32 -19 18 -18 29 -35 26 -39z m-7216 -23 c24 -14 27 -20
22 -46 -12 -54 -32 -75 -74 -75 -45 0 -66 17 -79 66 -9 33 -8 38 20 62 17 14
35 37 40 51 l10 26 17 -34 c9 -19 29 -41 44 -50z m234 -3 c22 -10 25 -17 20
-42 -11 -55 -32 -76 -76 -76 -43 0 -67 18 -76 58 -3 15 -7 31 -8 37 -1 5 11
20 27 34 16 13 33 36 39 50 l10 26 19 -38 c11 -21 31 -43 45 -49z m414 57 c0
-7 16 -27 35 -44 40 -35 43 -53 15 -98 -17 -28 -25 -33 -58 -33 -45 0 -69 21
-78 68 -5 27 -1 36 30 65 20 19 36 42 36 51 0 10 5 14 10 11 6 -3 10 -12 10
-20z m230 0 c0 -7 16 -27 36 -45 31 -27 35 -36 30 -63 -9 -46 -33 -67 -78 -67
-33 0 -41 5 -58 33 -28 45 -25 62 15 103 19 19 35 42 35 50 0 8 5 12 10 9 6
-3 10 -12 10 -20z m2129 -53 c33 -18 33 -37 4 -94 -12 -24 -20 -28 -57 -28
-48 0 -71 22 -82 78 -5 22 0 31 26 50 17 13 36 35 41 50 l11 27 13 -33 c8 -18
28 -40 44 -50z m233 -1 c24 -14 27 -20 22 -46 -11 -55 -31 -75 -72 -75 -44 0
-75 27 -86 73 -5 23 -2 32 19 49 14 11 33 34 41 50 l16 31 16 -33 c9 -18 29
-40 44 -49z m234 -3 c21 -10 24 -16 18 -42 -12 -59 -31 -77 -76 -74 -44 3 -71
29 -82 79 -4 20 0 29 19 39 13 7 32 29 41 48 l17 36 19 -38 c10 -20 30 -42 44
-48z m230 0 c22 -10 25 -17 20 -42 -11 -55 -32 -76 -76 -76 -30 0 -43 6 -59
26 -28 36 -27 78 2 97 13 9 30 30 37 47 l13 32 19 -36 c10 -20 30 -42 44 -48z
m414 57 c0 -7 16 -27 36 -45 31 -27 35 -36 30 -63 -9 -46 -33 -67 -77 -67 -41
0 -61 19 -74 72 -6 23 -1 33 29 61 20 19 36 42 36 51 0 10 5 14 10 11 6 -3 10
-12 10 -20z m188 -66 l-33 -73 -9 31 c-8 29 -5 35 28 66 20 19 36 43 37 53 0
11 3 14 5 8 3 -7 -10 -45 -28 -85z m2172 13 c26 -15 29 -21 24 -47 -12 -53
-33 -75 -73 -75 -52 0 -69 17 -84 81 -5 21 -2 28 18 37 14 7 33 27 42 47 l17
35 13 -30 c7 -17 26 -38 43 -48z m236 -4 c22 -10 25 -17 20 -42 -11 -55 -32
-76 -76 -76 -43 0 -67 18 -76 58 -3 15 -7 31 -8 37 -1 5 11 20 27 34 16 13 33
36 39 50 l10 26 19 -38 c11 -21 31 -43 45 -49z m235 -3 c17 -6 20 -12 15 -38
-11 -55 -32 -77 -75 -77 -44 0 -68 21 -77 69 -6 27 -2 37 24 62 17 17 34 40
38 51 5 18 9 16 30 -20 14 -23 34 -44 45 -47z m179 60 c0 -7 16 -27 35 -44 40
-35 43 -53 15 -98 -17 -28 -25 -33 -58 -33 -46 0 -70 22 -78 72 -5 29 -2 37
18 50 14 9 31 30 38 47 12 30 30 34 30 6z m190 -135 c30 -37 30 -40 11 -40
-21 0 -61 51 -61 78 0 18 13 8 50 -38z m-7432 -65 c25 -11 27 -27 11 -74 -28
-79 -128 -65 -144 22 -6 29 -2 38 29 69 20 20 36 44 36 55 0 11 8 3 23 -22 12
-22 32 -44 45 -50z m922 3 c31 -24 32 -27 21 -59 -16 -46 -40 -69 -70 -69 -39
0 -69 25 -80 67 -10 35 -9 39 23 68 18 16 37 41 41 54 l7 24 13 -30 c7 -16 27
-41 45 -55z m2082 0 c23 -20 28 -30 20 -43 -8 -15 -11 -14 -29 11 -28 40 -53
90 -53 106 1 7 8 0 16 -17 9 -16 29 -42 46 -57z m236 -3 c24 -10 27 -30 13
-68 -32 -83 -129 -71 -147 19 -5 25 0 36 30 66 20 20 36 44 36 55 0 11 8 3 23
-22 12 -22 32 -44 45 -50z m691 4 c28 -22 30 -27 21 -58 -13 -46 -38 -71 -69
-71 -39 0 -69 25 -81 68 -13 49 -14 47 13 59 13 6 32 28 42 49 l17 37 13 -30
c7 -16 27 -41 44 -54z m396 -43 c-20 -31 -40 -56 -44 -56 -4 0 -13 17 -19 37
-11 36 -10 39 17 60 15 12 34 36 41 54 l13 31 15 -35 c13 -35 13 -38 -23 -91z
m2380 42 c29 -13 33 -44 10 -87 -35 -69 -124 -47 -141 35 -5 25 0 36 30 66 20
20 36 44 36 55 1 11 8 5 21 -20 11 -21 31 -43 44 -49z m695 0 c31 -24 32 -27
21 -59 -16 -46 -40 -69 -70 -69 -39 0 -69 25 -80 67 -10 35 -9 39 23 68 18 16
37 41 41 54 l7 24 13 -30 c7 -16 27 -41 45 -55z m-7215 42 c9 -17 27 -36 40
-42 29 -13 33 -44 10 -87 -35 -70 -124 -46 -141 37 -5 27 -2 35 24 57 17 14
34 35 37 45 8 27 12 25 30 -10z m233 0 c8 -17 27 -37 42 -45 30 -15 30 -26 5
-88 -27 -67 -129 -35 -141 44 -5 32 -3 38 15 44 12 4 29 22 38 41 9 19 19 34
22 34 4 0 12 -14 19 -30z m235 -4 c9 -19 26 -37 38 -41 18 -6 20 -12 16 -42
-14 -87 -105 -114 -142 -42 -23 43 -19 74 11 87 14 7 30 26 36 42 13 39 21 38
41 -4z m2793 -20 c11 -12 28 -25 37 -31 14 -9 14 -14 2 -50 -8 -22 -22 -45
-32 -52 -44 -33 -106 1 -119 65 -5 27 -2 35 24 57 17 14 34 36 38 48 7 21 7
21 18 3 6 -11 20 -29 32 -40z m212 24 c8 -17 27 -37 43 -46 31 -16 31 -19 8
-81 -26 -70 -129 -47 -143 32 -6 31 -3 39 23 61 16 14 33 34 36 44 9 28 18 25
33 -10z m457 10 c3 -10 20 -31 37 -45 26 -22 29 -30 24 -61 -19 -97 -130 -99
-151 -2 -6 25 -2 35 29 63 20 18 36 40 36 49 0 22 17 20 25 -4z m2352 -46 c30
-29 31 -34 22 -68 -25 -89 -113 -85 -149 8 -10 27 -8 31 24 58 19 16 38 38 42
51 7 21 7 21 18 2 6 -11 25 -34 43 -51z m431 36 c8 -17 27 -37 42 -45 30 -15
30 -26 5 -88 -27 -67 -129 -35 -141 44 -5 32 -3 38 15 44 12 4 29 22 38 41 9
19 19 34 22 34 4 0 12 -14 19 -30z m236 -4 c10 -18 29 -39 42 -45 20 -9 23
-16 18 -38 -22 -100 -123 -111 -154 -18 -12 35 -11 38 24 70 20 18 36 40 36
49 0 26 14 19 34 -18z m408 -102 c24 -25 45 -51 47 -56 7 -21 -53 -2 -70 22
-19 26 -36 80 -25 80 3 0 25 -21 48 -46z m-6973 -77 c35 -29 38 -45 16 -88
-37 -70 -126 -52 -141 28 -6 30 -2 39 25 65 17 17 34 42 38 57 l6 26 13 -31
c7 -17 27 -43 43 -57z m3246 -7 c29 -15 30 -28 10 -75 -16 -40 -53 -59 -88
-46 -31 12 -47 34 -57 75 -6 30 -4 36 16 47 13 7 32 29 41 49 l18 36 18 -37
c9 -20 29 -42 42 -49z m230 2 c29 -23 31 -41 10 -83 -37 -70 -126 -52 -141 28
-6 30 -2 38 24 63 17 15 34 40 38 56 l7 27 18 -36 c10 -19 30 -44 44 -55z
m3235 7 c16 -13 30 -31 30 -41 0 -32 -30 -78 -55 -88 -35 -13 -71 3 -90 39
-21 42 -19 66 9 85 14 8 30 32 38 52 l13 36 12 -31 c7 -16 26 -40 43 -52z
m190 54 c0 -9 16 -31 37 -50 34 -32 36 -37 27 -70 -19 -76 -96 -92 -135 -29
-27 44 -24 63 16 100 19 19 35 43 35 55 0 12 4 19 10 16 6 -3 10 -13 10 -22z
m-7591 -61 c32 -18 32 -23 10 -83 -14 -36 -54 -53 -88 -39 -31 12 -46 33 -55
76 -6 26 -3 34 18 48 14 9 33 30 42 48 l16 32 14 -32 c7 -18 27 -40 43 -50z
m228 2 c15 -10 30 -19 32 -21 2 -1 -4 -22 -13 -47 -23 -59 -64 -79 -104 -49
-15 11 -33 37 -40 59 -12 37 -12 39 13 57 14 11 33 33 41 50 l16 31 13 -31 c8
-18 26 -39 42 -49z m238 -6 c29 -13 31 -25 10 -73 -26 -64 -110 -68 -134 -7
-19 51 -17 66 12 91 16 13 33 36 39 50 l10 26 19 -38 c11 -21 31 -43 44 -49z
m415 57 c0 -7 16 -27 35 -44 39 -34 42 -48 20 -92 -37 -70 -126 -52 -141 27
-5 29 -2 38 30 67 20 19 36 42 36 51 0 10 5 14 10 11 6 -3 10 -12 10 -20z
m2360 -53 c33 -19 34 -21 20 -42 -9 -12 -17 -7 -50 30 -38 42 -48 68 -33 83 4
4 12 -6 19 -23 7 -17 27 -38 44 -48z m232 -1 c29 -17 29 -23 7 -82 -6 -15 -22
-32 -36 -38 -41 -19 -79 2 -99 55 l-17 44 27 21 c14 11 34 35 42 51 l16 31 16
-33 c9 -18 29 -40 44 -49z m232 -1 c30 -15 32 -27 11 -75 -34 -83 -126 -60
-149 36 -4 21 -1 29 19 39 13 7 32 29 41 48 l17 36 17 -35 c10 -19 30 -41 44
-49z m654 46 l20 -34 -47 -46 c-26 -25 -50 -46 -53 -46 -4 0 -9 13 -13 30 -6
26 -1 35 29 64 20 18 36 41 36 50 0 24 6 20 28 -18z m2349 -42 c15 -10 30 -19
32 -21 11 -7 -33 -93 -50 -98 -25 -8 -97 39 -110 72 -7 20 -3 29 26 54 19 17
37 40 41 51 6 20 7 19 19 -10 8 -17 26 -38 42 -48z m238 -6 c29 -13 31 -25 10
-73 -26 -64 -110 -68 -134 -7 -19 51 -17 66 12 91 16 13 33 36 39 50 l10 26
19 -38 c11 -21 31 -43 44 -49z m229 2 c64 -33 -8 -147 -77 -121 -32 12 -47 33
-54 74 -4 30 -1 38 20 52 14 9 31 30 38 47 l12 30 18 -34 c9 -18 29 -40 43
-48z m-7286 50 c-7 -11 -16 -20 -20 -20 -5 0 -3 9 4 20 7 11 16 20 20 20 5 0
3 -9 -4 -20z m7906 -112 c50 -58 48 -80 -5 -58 -30 13 -59 59 -59 95 0 26 17
17 64 -37z m-8021 -26 c-11 -15 -29 -29 -39 -30 -15 -3 -11 4 15 32 39 41 55
40 24 -2z m115 -57 c20 -9 22 -15 17 -45 -13 -67 -72 -100 -118 -65 -11 7 -25
31 -32 52 -13 37 -13 38 20 65 18 15 36 40 40 55 l6 27 22 -40 c12 -21 33 -43
45 -49z m457 3 c29 -13 33 -44 10 -87 -23 -46 -66 -54 -108 -21 -15 12 -29 36
-32 54 -6 28 -2 37 29 68 20 20 36 44 36 55 1 11 8 5 21 -20 11 -21 31 -43 44
-49z m2965 49 c0 -5 -4 -5 -10 -2 -5 3 -10 14 -10 23 0 15 2 15 10 2 5 -8 10
-19 10 -23z m745 -55 c50 -23 24 -64 -54 -86 -29 -9 -57 -13 -62 -10 -7 4 -29
68 -29 85 0 3 11 11 23 16 13 6 32 28 41 48 l18 37 19 -40 c11 -21 31 -44 44
-50z m184 46 c1 -9 -78 -68 -91 -68 -17 0 -7 17 18 28 14 7 32 29 41 50 14 33
17 35 24 17 4 -11 8 -23 8 -27z m2586 -40 c29 -13 37 -68 10 -68 -13 0 -111
44 -124 56 -2 2 8 17 23 34 14 17 26 39 26 48 1 9 10 0 21 -21 11 -21 31 -43
44 -49z m677 15 c12 -13 27 -23 35 -23 31 0 -3 -94 -41 -111 -51 -23 -96 8
-110 77 -6 26 -3 32 19 42 15 7 33 28 42 50 15 37 16 37 25 12 5 -14 19 -35
30 -47z m-7423 21 c12 -20 30 -38 41 -41 22 -6 25 -28 11 -66 -32 -84 -129
-71 -147 21 -5 27 -2 35 24 57 17 14 34 35 37 45 8 26 10 26 34 -16z m459 6
c8 -17 27 -37 42 -45 25 -13 28 -18 20 -44 -17 -61 -28 -71 -75 -71 -48 0 -67
17 -80 72 -6 23 -2 32 23 53 17 14 34 35 37 45 9 28 18 25 33 -10z m227 10 c3
-10 19 -30 36 -44 16 -14 29 -27 29 -30 0 -5 -65 -37 -117 -57 -31 -11 -43 0
-43 42 0 18 8 29 24 37 13 6 30 24 37 41 16 36 25 39 34 11z m2784 -11 c7 -17
24 -35 37 -41 27 -13 32 -53 11 -82 -12 -16 -16 -16 -77 7 -75 28 -84 46 -41
82 16 14 33 35 36 45 9 28 18 25 34 -11z m229 1 c8 -17 27 -37 43 -46 32 -16
32 -28 2 -86 -13 -28 -25 -32 -73 -28 -35 3 -48 16 -61 61 -11 36 -10 39 19
64 17 14 34 35 37 45 9 28 18 25 33 -10z m3240 0 c8 -17 27 -37 42 -45 25 -13
28 -18 20 -44 -15 -54 -29 -71 -60 -71 -53 0 -78 16 -91 59 -11 39 -11 41 19
66 17 14 34 35 37 45 9 28 18 25 33 -10z m227 10 c3 -11 22 -32 40 -48 33 -26
34 -30 24 -65 -12 -46 -43 -67 -87 -60 -36 6 -58 32 -68 79 -5 25 -2 32 19 41
14 6 31 25 38 42 16 36 25 39 34 11z m509 -55 c20 -14 23 -21 16 -44 -14 -49
-30 -71 -56 -77 -37 -9 -73 11 -90 51 -19 46 -18 62 6 68 11 3 29 21 41 42
l22 36 18 -30 c10 -16 29 -37 43 -46z m169 -60 c47 -54 48 -54 23 -61 -36 -9
-64 4 -81 36 -18 35 -20 80 -2 80 6 0 34 -25 60 -55z m-8267 -24 c-14 -26 -51
-50 -61 -39 -2 2 13 23 33 47 38 47 54 42 28 -8z m983 -12 c-18 -11 -19 -8
-12 20 5 21 7 21 16 6 6 -12 5 -20 -4 -26z m3253 -1 c7 -15 4 -18 -16 -18 -23
0 -24 2 -13 30 7 17 14 25 16 18 2 -7 8 -21 13 -30z m3509 -40 c26 -19 30 -28
25 -52 -11 -55 -32 -76 -76 -76 -35 0 -43 5 -60 33 -27 43 -25 71 4 91 14 8
30 32 38 52 l13 36 12 -31 c7 -16 27 -40 44 -53z m-7634 -5 c26 -16 28 -22 22
-51 -9 -45 -36 -72 -71 -72 -45 0 -66 16 -80 61 -11 40 -11 42 15 61 15 11 35
34 43 51 l16 31 14 -32 c7 -17 26 -40 41 -49z m190 47 c6 -16 25 -38 42 -47
24 -15 29 -23 25 -43 -11 -46 -38 -75 -77 -78 -41 -4 -71 22 -81 69 -5 26 0
36 29 63 19 19 35 41 35 50 0 26 15 18 27 -14z m278 -52 c29 -13 30 -17 10
-65 -19 -44 -30 -53 -71 -53 -36 0 -61 23 -74 71 -9 31 -8 36 15 53 14 10 33
32 42 49 l16 31 19 -37 c10 -21 30 -43 43 -49z m193 28 c-2 -2 -13 0 -24 3
-18 5 -20 10 -12 31 l9 25 16 -28 c8 -16 13 -30 11 -31z m3232 22 c0 -5 -7 -8
-15 -8 -15 0 -20 21 -8 33 7 7 23 -11 23 -25z m3480 -20 c0 -9 -34 -11 -43 -2
-3 3 -1 17 6 31 l11 24 13 -23 c7 -13 12 -26 13 -30z m450 36 c0 -9 16 -32 36
-51 31 -29 35 -38 30 -65 -8 -43 -33 -68 -67 -68 -41 0 -58 9 -74 41 -21 40
-19 64 8 82 13 9 30 29 37 46 13 33 30 41 30 15z m238 -18 c6 -14 23 -32 37
-42 50 -33 16 -124 -46 -124 -45 0 -67 16 -80 60 -11 38 -11 40 25 73 20 19
36 39 36 46 0 20 16 12 28 -13z m210 -95 c23 -27 42 -54 42 -60 0 -21 -66 -12
-87 12 -22 24 -37 72 -28 87 12 20 33 9 73 -39z m-8482 -3 c-8 -41 -33 -68
-63 -68 -24 0 -23 2 17 50 23 28 44 50 47 50 3 0 3 -14 -1 -32z m92 -88 c49
-36 32 -50 -59 -50 -70 0 -79 2 -79 18 0 11 11 24 25 30 14 6 33 27 42 47 l17
35 12 -29 c7 -16 26 -39 42 -51z m237 -2 c48 -22 29 -36 -52 -40 -89 -5 -106
6 -64 39 16 12 34 37 41 54 l13 31 19 -36 c10 -20 30 -42 43 -48z m232 -1 l27
-12 -30 -6 c-44 -10 -134 -10 -134 -1 0 5 13 18 30 30 16 12 33 34 36 49 l7
26 19 -37 c10 -20 31 -42 45 -49z m189 31 c5 -31 3 -36 -17 -41 -13 -4 -35 -7
-48 -7 -23 0 -23 0 8 35 17 20 31 43 31 52 0 29 20 -1 26 -39z m7209 -26 c16
-12 26 -25 23 -27 -3 -3 -37 -2 -76 1 l-72 7 25 23 c14 13 30 36 36 51 l11 28
13 -31 c7 -17 25 -41 40 -52z m234 -3 c16 -12 28 -26 25 -31 -6 -9 -108 -11
-141 -2 -30 8 -29 18 2 32 14 6 33 27 42 47 l17 35 12 -29 c7 -16 26 -39 43
-52z m236 -1 c14 -6 25 -19 25 -30 0 -16 -9 -18 -80 -18 -67 0 -80 3 -80 16 0
9 11 24 24 35 13 10 29 32 36 50 l13 31 19 -36 c10 -20 30 -42 43 -48z m-699
0 c18 -20 18 -21 1 -15 -10 4 -23 7 -28 7 -5 0 -9 7 -9 15 0 21 14 19 36 -7z
m847 -18 c23 -28 22 -30 -18 -30 -28 0 -35 4 -35 19 0 17 11 27 30 30 3 1 13
-8 23 -19z m-8686 -15 c-4 -8 -14 -15 -23 -15 -16 0 -16 2 1 20 20 22 31 20
22 -5z m1873 -49 c0 -18 3 -53 6 -78 l6 -45 -113 -8 c-63 -4 -416 -9 -786 -10
-370 -2 -686 -6 -702 -10 l-29 -6 -4 68 c-2 37 -3 69 -3 70 5 12 999 49 1373
51 l252 2 0 -34z m2460 21 c14 0 215 3 448 8 l422 8 0 -80 0 -79 -192 -12
c-249 -15 -1096 -15 -1350 0 l-198 12 0 80 0 79 423 -8 c232 -5 433 -8 447 -8z
m3174 3 c334 -10 678 -26 829 -36 l87 -7 0 -69 0 -70 -30 7 c-17 4 -299 7
-628 6 -328 0 -681 5 -784 12 l-188 11 0 78 0 78 196 0 c108 0 341 -5 518 -10z
m-5451 -229 c34 -18 35 -46 4 -92 -32 -48 -75 -51 -111 -9 -27 33 -35 83 -14
96 13 8 79 23 88 20 3 -1 17 -8 33 -15z m3236 2 c37 -22 40 -47 8 -94 -35 -53
-100 -49 -126 8 -36 79 37 132 118 86z m231 0 c28 -16 31 -22 26 -52 -6 -41
-42 -81 -71 -81 -34 0 -73 37 -81 75 -5 29 -2 38 17 55 30 24 68 25 109 3z
m229 0 c39 -23 41 -60 5 -102 -39 -46 -89 -38 -119 19 -21 40 -19 59 8 81 28
23 67 24 106 2z m-4845 -8 c24 -18 16 -68 -16 -102 -36 -38 -85 -26 -113 27
-31 61 -21 74 65 83 19 2 37 4 40 5 3 1 13 -5 24 -13z m229 1 c21 -16 22 -48
2 -86 -32 -63 -109 -47 -135 28 -13 39 -13 43 5 57 25 18 104 19 128 1z m480
-41 c-5 -64 -62 -102 -112 -74 -26 15 -60 93 -46 107 3 4 32 9 63 13 70 6 98
-7 95 -46z m212 43 c23 -10 26 -16 21 -42 -4 -16 -13 -40 -21 -53 -31 -47
-103 -38 -124 16 -22 59 -22 67 1 79 31 15 91 15 123 0z m461 0 c23 -11 25
-16 20 -46 -6 -42 -41 -82 -71 -82 -58 0 -110 94 -69 125 23 18 84 19 120 3z
m1857 -2 c21 -16 22 -48 2 -86 -28 -53 -92 -52 -126 3 -26 44 -25 75 4 82 76
16 99 16 120 1z m234 -4 c20 -16 21 -19 8 -57 -8 -22 -22 -45 -32 -52 -42 -31
-96 -4 -114 58 -11 35 -10 41 7 54 27 20 104 19 131 -3z m219 3 c30 -12 34
-18 29 -37 -15 -50 -31 -73 -58 -82 -42 -15 -79 9 -96 62 -12 40 -12 44 5 57
25 19 76 19 120 0z m469 3 c29 -13 31 -25 11 -73 -17 -40 -53 -60 -91 -51 -19
5 -32 20 -47 53 l-21 47 23 18 c25 21 86 24 125 6z m928 -2 c22 -17 22 -43 -3
-83 -22 -38 -61 -51 -95 -33 -43 23 -59 92 -27 116 22 17 102 17 125 0z m1620
0 c21 -16 22 -48 2 -86 -32 -63 -109 -47 -135 28 -13 39 -13 43 5 57 25 18
104 19 128 1z m238 -6 c20 -11 20 -18 -2 -78 -11 -28 -50 -46 -83 -38 -30 7
-53 39 -62 82 -5 25 -2 32 18 42 25 13 98 8 129 -8z m-7402 1 c12 -8 13 -16 2
-50 -19 -64 -69 -86 -119 -53 -21 14 -42 85 -30 100 12 14 125 16 147 3z m230
0 c21 -14 5 -76 -26 -101 -35 -27 -59 -25 -94 9 -31 31 -40 85 -16 94 21 9
121 7 136 -2z m690 0 c21 -14 5 -76 -26 -101 -34 -26 -64 -25 -91 3 -28 30
-40 86 -21 98 18 11 120 11 138 0z m1160 0 c21 -14 -7 -91 -40 -110 -42 -24
-77 -8 -101 46 -20 45 -20 47 -2 60 20 15 121 18 143 4z m225 3 c36 -14 5
-109 -38 -120 -37 -9 -65 4 -87 39 -22 37 -25 73 -6 80 18 8 113 8 131 1z
m233 0 c19 -5 22 -11 17 -33 -12 -49 -34 -81 -61 -87 -40 -10 -76 15 -93 64
-13 38 -13 44 0 52 17 11 103 13 137 4z m241 -7 c16 -19 -3 -83 -31 -102 -46
-32 -100 -8 -116 52 -15 52 -2 63 74 63 40 0 67 -5 73 -13z m231 4 c12 -8 13
-16 3 -50 -19 -62 -73 -89 -115 -58 -25 17 -48 88 -35 105 12 14 125 16 147 3z
m230 0 c12 -7 12 -15 0 -52 -32 -99 -134 -87 -155 18 -5 25 -2 32 12 36 33 8
129 7 143 -2z m230 0 c36 -23 -20 -121 -69 -121 -44 0 -97 84 -75 119 7 13
124 14 144 2z m920 0 c21 -14 5 -76 -26 -101 -34 -26 -64 -25 -91 3 -28 30
-40 86 -21 98 18 11 120 11 138 0z m1402 -8 c13 -13 -8 -74 -33 -95 -43 -38
-100 -12 -120 53 -10 34 -9 42 3 50 17 12 137 5 150 -8z m917 8 c11 -6 11 -17
2 -49 -25 -94 -119 -96 -149 -2 -10 30 -9 37 6 47 19 15 121 17 141 4z m231 0
c19 -12 7 -68 -21 -98 -36 -38 -85 -26 -113 27 -18 35 -19 67 -2 73 21 9 121
7 136 -2z m695 -4 c17 -12 17 -18 7 -50 -30 -91 -127 -88 -151 5 -9 32 -9 43
2 49 21 14 122 10 142 -4z m234 1 c13 -17 -9 -84 -35 -103 -43 -33 -96 -7
-115 56 -10 34 -9 42 3 50 22 13 135 11 147 -3z m-1842 -12 c9 -23 -23 -85
-50 -97 -51 -24 -91 7 -110 84 l-6 27 80 0 c59 0 82 -4 86 -14z m464 -8 c0
-32 -34 -85 -60 -93 -31 -10 -77 13 -88 43 -26 69 -28 68 86 71 58 1 62 0 62
-21z m1533 -30 c25 -29 43 -56 41 -60 -3 -5 -18 -8 -34 -8 -36 0 -80 50 -80
91 0 43 22 36 73 -23z m-1768 15 c-16 -66 -63 -98 -110 -73 -25 13 -45 49 -45
80 0 18 7 20 81 20 l81 0 -7 -27z m-6495 -32 c-10 -26 -54 -60 -64 -50 -3 2
12 26 32 52 38 49 53 48 32 -2z m1032 -63 c25 -22 29 -31 23 -57 -7 -31 -7
-31 -75 -31 -53 0 -69 4 -74 16 -12 32 -5 53 29 87 19 19 35 43 35 54 1 13 5
10 16 -12 9 -16 29 -42 46 -57z m1158 0 c31 -24 32 -27 20 -62 l-12 -36 -63 0
-64 0 -10 37 c-10 35 -9 39 18 60 15 12 34 36 41 53 l13 32 12 -30 c7 -16 27
-40 45 -54z m1162 -9 c12 -6 24 -13 26 -14 1 -1 -3 -16 -9 -33 -11 -32 -12
-32 -79 -32 l-67 0 -7 31 c-5 26 -1 36 24 59 16 15 34 40 40 56 l11 28 19 -41
c10 -23 29 -47 42 -54z m918 9 c28 -22 31 -29 26 -55 -6 -26 -13 -32 -44 -37
-65 -10 -91 -7 -102 13 -18 34 -11 58 25 94 19 19 35 43 35 54 1 12 5 8 14
-13 8 -17 28 -42 46 -56z m235 -4 c25 -16 31 -38 19 -68 -5 -12 -21 -16 -74
-16 -53 0 -69 4 -74 16 -12 32 -5 53 29 87 19 19 35 43 35 54 1 12 8 5 21 -19
10 -21 31 -45 44 -54z m928 -1 c30 -14 31 -18 16 -62 -11 -30 -12 -31 -75 -31
-61 0 -64 1 -70 28 -3 15 -7 32 -9 39 -2 6 7 19 21 28 14 9 32 31 41 50 l16
34 17 -37 c9 -21 29 -43 43 -49z m228 4 c30 -23 31 -26 19 -61 -12 -36 -12
-36 -70 -36 -61 0 -73 7 -83 51 -5 21 -1 30 24 48 17 13 36 37 42 54 l11 32
12 -32 c7 -17 27 -42 45 -56z m1158 2 c29 -23 30 -26 20 -62 l-10 -37 -64 0
-63 0 -13 37 c-11 34 -10 37 16 56 15 11 34 36 42 56 l15 35 13 -30 c7 -17 27
-42 44 -55z m691 -1 c28 -22 31 -29 25 -57 l-7 -31 -68 0 c-53 0 -69 4 -74 16
-12 32 -5 53 29 87 19 19 35 43 35 54 1 12 5 8 14 -13 8 -17 28 -42 46 -56z
m232 0 c25 -22 29 -31 23 -57 -7 -31 -7 -31 -75 -31 -72 0 -80 5 -80 54 0 14
9 27 24 34 14 6 30 27 37 47 l13 35 14 -27 c7 -16 27 -40 44 -55z m192 48 c8
-19 26 -42 40 -51 47 -31 28 -95 -28 -95 -70 0 -94 10 -101 42 -6 25 -2 35 24
58 16 16 33 40 37 54 8 34 11 33 28 -8z m-7827 -53 c24 -15 28 -23 23 -48 -5
-30 -6 -30 -77 -33 l-71 -3 -7 32 c-6 28 -4 35 19 52 15 10 34 33 42 50 l16
31 14 -32 c7 -17 26 -40 41 -49z m183 63 c0 -15 48 -70 67 -77 10 -3 10 -13 2
-41 l-10 -38 -64 0 -63 0 -12 35 c-11 33 -10 36 24 69 20 18 36 41 36 50 0 9
5 16 10 16 6 0 10 -6 10 -14z m284 -64 c29 -13 30 -19 16 -57 -9 -25 -13 -26
-77 -23 -65 3 -67 4 -75 33 -7 26 -4 33 17 49 14 10 33 32 42 49 l16 31 18
-35 c9 -19 29 -40 43 -47z m230 0 c27 -12 30 -21 20 -60 -6 -21 -11 -23 -77
-20 l-71 3 -7 32 c-5 27 -2 35 17 48 13 8 31 30 40 47 l17 32 18 -35 c9 -19
29 -40 43 -47z m454 11 c28 -28 33 -38 27 -63 -7 -30 -7 -30 -75 -30 -53 0
-69 4 -74 16 -12 30 -6 52 17 67 13 9 30 30 37 48 13 30 15 31 24 13 6 -10 26
-34 44 -51z m230 0 c34 -34 40 -59 19 -87 -10 -14 -25 -17 -72 -14 -58 3 -60
4 -69 36 -8 30 -6 36 21 61 17 15 34 39 38 52 8 23 8 23 19 4 6 -11 26 -34 44
-52z m192 51 c0 -9 16 -32 36 -51 32 -30 35 -37 30 -69 l-7 -35 -67 3 c-65 3
-67 4 -75 35 -9 28 -6 35 27 67 20 20 36 43 36 51 0 8 5 15 10 15 6 0 10 -7
10 -16z m230 2 c0 -15 37 -58 63 -72 14 -8 15 -15 6 -47 l-10 -37 -64 0 -63 0
-12 35 c-11 33 -10 36 24 69 20 18 36 41 36 50 0 9 5 16 10 16 6 0 10 -6 10
-14z m516 -63 c25 -19 27 -23 18 -54 -9 -33 -11 -34 -70 -37 -66 -3 -80 5 -85
49 -3 20 4 33 28 53 18 15 35 36 38 47 7 20 8 19 25 -8 10 -16 30 -39 46 -50z
m230 0 c25 -19 27 -23 18 -54 -9 -33 -11 -34 -69 -37 -47 -3 -62 0 -72 14 -22
29 -15 63 16 90 17 14 33 34 36 45 7 20 8 19 25 -8 10 -16 30 -39 46 -50z
m184 52 c0 -8 16 -27 35 -42 36 -29 42 -50 25 -84 -9 -15 -22 -19 -70 -19 -48
0 -61 4 -70 19 -16 31 -12 69 9 76 10 3 26 21 36 40 18 33 35 38 35 10z m235
-5 c9 -17 28 -39 44 -48 25 -15 27 -20 19 -49 -8 -31 -11 -33 -58 -35 -28 -1
-58 -2 -67 -2 -11 -1 -21 10 -26 31 -9 29 -7 35 20 60 17 16 33 38 37 51 9 29
12 28 31 -8z m507 -49 c22 -13 26 -21 21 -41 -9 -38 -15 -41 -83 -38 -60 3
-64 5 -73 32 -9 26 -7 32 17 49 15 10 34 33 42 49 l16 31 16 -33 c9 -18 28
-40 44 -49z m232 1 c22 -10 25 -16 20 -39 -10 -42 -15 -44 -84 -41 -60 3 -64
5 -73 32 -9 26 -7 32 17 49 15 10 34 33 43 50 l16 31 18 -35 c9 -19 29 -40 43
-47z m231 2 c22 -14 25 -22 19 -48 -3 -17 -9 -35 -13 -39 -4 -4 -36 -4 -71 0
-60 7 -64 10 -72 38 -7 26 -4 33 23 54 17 13 35 35 40 49 l10 26 19 -32 c10
-17 31 -39 45 -48z m683 9 c32 -32 37 -47 26 -77 -5 -12 -21 -16 -74 -16 -68
0 -68 0 -75 30 -5 25 -1 35 29 65 20 20 36 43 37 53 0 15 2 14 12 -3 7 -11 27
-34 45 -52z m199 37 c6 -16 25 -38 42 -47 25 -15 29 -22 24 -43 -9 -39 -10
-40 -82 -40 -68 0 -69 0 -75 30 -5 26 0 37 29 66 19 19 35 41 35 49 0 25 15
17 27 -15z m232 -1 c8 -17 27 -39 42 -48 32 -18 33 -20 19 -55 -9 -24 -14 -26
-79 -26 l-69 0 -4 32 c-4 27 1 37 28 64 19 17 34 39 34 48 0 26 14 19 29 -15z
m737 -46 c25 -19 27 -23 18 -54 -9 -33 -11 -34 -68 -37 -65 -3 -72 0 -86 46
-8 29 -6 33 19 47 16 8 34 28 41 45 l13 31 17 -29 c10 -16 30 -38 46 -49z
m184 52 c0 -7 16 -27 37 -44 34 -28 36 -32 27 -63 -9 -32 -11 -33 -69 -36 -47
-3 -62 0 -72 14 -22 29 -15 63 16 90 17 14 33 34 36 45 7 21 25 17 25 -6z
m268 -42 c34 -33 39 -52 22 -84 -9 -15 -22 -19 -71 -19 -55 0 -60 2 -69 26
-15 39 -12 62 11 69 11 4 28 23 37 42 15 31 18 33 27 17 5 -11 25 -33 43 -51z
m199 37 c6 -16 24 -37 41 -47 28 -17 29 -20 18 -53 l-11 -35 -65 0 c-64 0 -64
0 -73 32 -9 28 -6 35 27 67 20 20 36 43 36 51 0 25 15 17 27 -15z m508 -48
c21 -10 26 -17 21 -35 -3 -12 -6 -28 -6 -35 0 -10 -18 -12 -72 -10 -70 3 -72
4 -80 33 -6 26 -3 33 27 57 18 16 37 38 41 50 6 20 8 19 25 -13 9 -19 30 -41
44 -47z m229 0 c27 -12 30 -21 20 -60 -6 -21 -11 -23 -78 -20 l-71 3 -3 34
c-3 25 2 37 17 48 12 8 28 28 37 46 l17 31 18 -35 c9 -19 29 -40 43 -47z m914
11 c31 -31 39 -56 24 -79 -4 -7 -36 -13 -72 -15 l-64 -4 -9 32 c-9 29 -6 35
27 66 20 19 36 43 37 53 0 18 1 18 12 -1 7 -11 27 -34 45 -52z m187 -53 l39
-40 -52 0 c-48 0 -53 2 -63 27 -24 63 19 71 76 13z m-8489 -15 c-5 -21 -12
-25 -44 -25 l-37 1 40 35 c40 36 52 33 41 -11z m271 -27 c-3 -8 -6 -5 -6 6 -1
11 2 17 5 13 3 -3 4 -12 1 -19z m468 12 c3 -5 1 -10 -4 -10 -6 0 -11 5 -11 10
0 6 2 10 4 10 3 0 8 -4 11 -10z m230 0 c3 -5 1 -10 -4 -10 -6 0 -11 5 -11 10
0 6 2 10 4 10 3 0 8 -4 11 -10z m235 0 c0 -5 -5 -10 -11 -10 -5 0 -7 5 -4 10
3 6 8 10 11 10 2 0 4 -4 4 -10z m226 -17 c-10 -10 -19 5 -10 18 6 11 8 11 12
0 2 -7 1 -15 -2 -18z m234 12 c0 -8 -4 -15 -10 -15 -5 0 -7 7 -4 15 4 8 8 15
10 15 2 0 4 -7 4 -15z m227 -7 c-3 -8 -6 -5 -6 6 -1 11 2 17 5 13 3 -3 4 -12
1 -19z m237 7 c3 -9 0 -15 -9 -15 -9 0 -12 6 -9 15 4 8 7 15 9 15 2 0 5 -7 9
-15z m236 -6 c0 -5 -4 -9 -10 -9 -5 0 -10 7 -10 16 0 8 5 12 10 9 6 -3 10 -10
10 -16z m230 0 c0 -5 -4 -9 -10 -9 -5 0 -10 7 -10 16 0 8 5 12 10 9 6 -3 10
-10 10 -16z m456 -6 c-10 -10 -19 5 -10 18 6 11 8 11 12 0 2 -7 1 -15 -2 -18z
m929 17 c3 -5 1 -10 -4 -10 -6 0 -11 5 -11 10 0 6 2 10 4 10 3 0 8 -4 11 -10z
m231 -17 c-10 -10 -19 5 -10 18 6 11 8 11 12 0 2 -7 1 -15 -2 -18z m234 17 c0
-5 -5 -10 -11 -10 -5 0 -7 5 -4 10 3 6 8 10 11 10 2 0 4 -4 4 -10z m230 0 c0
-5 -5 -10 -11 -10 -5 0 -7 5 -4 10 3 6 8 10 11 10 2 0 4 -4 4 -10z m230 0 c0
-5 -5 -10 -11 -10 -5 0 -7 5 -4 10 3 6 8 10 11 10 2 0 4 -4 4 -10z m464 -5 c3
-8 1 -15 -4 -15 -6 0 -10 7 -10 15 0 8 2 15 4 15 2 0 6 -7 10 -15z m236 -6 c0
-5 -4 -9 -10 -9 -5 0 -10 7 -10 16 0 8 5 12 10 9 6 -3 10 -10 10 -16z m230 0
c0 -5 -4 -9 -10 -9 -5 0 -10 7 -10 16 0 8 5 12 10 9 6 -3 10 -10 10 -16z m226
-6 c-10 -10 -19 5 -10 18 6 11 8 11 12 0 2 -7 1 -15 -2 -18z m230 0 c-10 -10
-19 5 -10 18 6 11 8 11 12 0 2 -7 1 -15 -2 -18z m234 12 c0 -8 -4 -15 -10 -15
-5 0 -7 7 -4 15 4 8 8 15 10 15 2 0 4 -7 4 -15z m227 -7 c-3 -8 -6 -5 -6 6 -1
11 2 17 5 13 3 -3 4 -12 1 -19z m237 7 c3 -8 1 -15 -4 -15 -6 0 -10 7 -10 15
0 8 2 15 4 15 2 0 6 -7 10 -15z m231 5 c3 -5 1 -10 -4 -10 -6 0 -11 5 -11 10
0 6 2 10 4 10 3 0 8 -4 11 -10z m230 0 c3 -5 1 -10 -4 -10 -6 0 -11 5 -11 10
0 6 2 10 4 10 3 0 8 -4 11 -10z m235 0 c0 -5 -5 -10 -11 -10 -5 0 -7 5 -4 10
3 6 8 10 11 10 2 0 4 -4 4 -10z m230 0 c0 -5 -5 -10 -11 -10 -5 0 -7 5 -4 10
3 6 8 10 11 10 2 0 4 -4 4 -10z m230 -5 c0 -8 -4 -15 -10 -15 -5 0 -7 7 -4 15
4 8 8 15 10 15 2 0 4 -7 4 -15z m-5320 -5 c0 -5 -4 -10 -10 -10 -5 0 -10 5
-10 10 0 6 5 10 10 10 6 0 10 -4 10 -10z m5535 -110 c-4 -25 -7 -1019 -6
-2210 l0 -2165 -1669 0 c-918 0 -1672 3 -1675 7 -4 4 -7 361 -6 795 1 870 3
840 -62 922 -82 102 -262 210 -423 252 -103 27 -323 37 -430 19 -95 -15 -279
-77 -394 -132 -59 -28 -101 -58 -140 -97 -103 -104 -95 -20 -98 -948 l-2 -813
-1655 -2 c-910 -1 -1665 -2 -1677 -2 l-22 -1 0 2210 -1 2210 4133 0 4134 0 -7
-45z m-4033 -2416 c3 -3 -7 -32 -23 -65 -17 -34 -39 -90 -51 -125 l-21 -65
-32 73 c-17 40 -41 92 -53 115 -12 23 -22 47 -22 52 0 13 190 28 202 15z m190
-30 c31 -8 76 -23 100 -33 l43 -19 -35 -13 c-19 -7 -104 -47 -188 -89 l-153
-77 6 31 c4 17 24 67 46 111 21 44 39 88 39 98 0 16 5 18 43 12 23 -4 68 -13
99 -21z m-402 -90 c25 -58 46 -109 48 -113 1 -3 -66 27 -148 66 -83 40 -155
73 -160 73 -48 0 80 51 185 73 11 3 22 5 25 6 3 0 26 -47 50 -105z m-237 -36
c69 -22 191 -83 254 -125 l41 -28 -291 0 c-161 0 -307 -4 -325 -8 -33 -9 -33
-8 -22 13 50 93 214 204 263 178 11 -5 46 -19 80 -30z m882 16 c41 -27 165
-143 165 -155 0 -12 -321 -31 -485 -27 l-170 3 115 59 c110 57 304 143 325
145 6 1 28 -11 50 -25z m177 -2067 l-8 -32 -329 3 c-181 1 -331 5 -334 8 -3 3
-6 423 -6 933 l0 928 270 2 c149 1 302 5 340 9 l70 7 3 -913 c1 -503 -2 -928
-6 -945z m-737 1845 c7 -4 9 -326 7 -938 l-2 -932 -253 -7 c-138 -3 -292 -5
-342 -3 l-90 3 -5 937 -5 937 90 4 c191 7 590 6 600 -1z m-3859 -1662 l174 0
0 -60 0 -60 -62 0 c-132 0 -347 -13 -342 -21 2 -5 20 -11 39 -15 30 -5 35 -10
35 -35 0 -28 -2 -29 -45 -29 l-45 0 0 78 c0 42 3 94 7 115 6 37 8 39 36 33 16
-3 108 -6 203 -6z m8012 -108 l3 -112 -50 0 c-82 0 -81 -1 -81 116 l0 103 48
4 c82 6 77 14 80 -111z m-7678 -2 l0 -111 -67 3 -68 3 -3 108 -3 107 71 0 70
0 0 -110z m290 40 l0 -71 -132 3 -133 3 -3 68 -3 67 136 0 135 0 0 -70z m450
60 c0 -6 -73 -11 -195 -12 -107 -1 -202 -2 -212 -2 -9 -1 -18 5 -20 12 -4 9
43 12 211 12 137 0 216 -4 216 -10z m198 3 c-32 -2 -84 -2 -115 0 -32 2 -6 3
57 3 63 0 89 -1 58 -3z m230 0 c-27 -2 -69 -2 -95 0 -27 2 -5 3 47 3 52 0 74
-1 48 -3z m312 -50 l0 -58 -170 -3 -170 -4 0 41 0 41 79 0 c80 0 116 14 64 26
-15 3 -32 7 -38 9 -5 2 45 4 113 4 l122 1 0 -57z m218 -50 l-3 -108 -95 0 -95
0 -3 108 -3 107 101 0 101 0 -3 -107z m142 52 l0 -55 -60 0 -60 0 0 55 0 55
60 0 60 0 0 -55z m420 0 l0 -55 -200 0 -200 0 0 55 0 55 200 0 200 0 0 -55z
m518 -52 l-3 -108 -92 -3 -93 -3 0 36 c0 34 1 35 39 35 22 0 43 4 46 10 11 18
-48 23 -221 15 l-174 -7 0 66 0 66 250 0 251 0 -3 -107z m1722 27 l0 -80 -85
0 -85 0 0 80 0 80 85 0 85 0 0 -80z m330 -30 l0 -111 -152 3 -153 3 -3 108 -3
107 156 0 155 0 0 -110z m240 85 l0 -26 -107 3 c-103 3 -108 4 -111 26 -3 22
-2 22 107 22 l111 0 0 -25z m650 -85 l0 -110 -155 0 -155 0 0 34 c0 33 2 35
40 38 22 2 40 8 40 13 0 6 -70 9 -195 7 l-195 -3 0 66 0 65 310 0 310 0 0
-110z m220 10 c0 -55 0 -103 0 -107 0 -5 -44 -8 -97 -8 l-98 0 -3 108 -3 107
101 0 100 0 0 -100z m445 90 c4 -7 -59 -10 -182 -10 -103 0 -198 -3 -210 -6
-17 -5 -23 -2 -23 10 0 14 23 16 204 16 126 0 207 -4 211 -10z m203 3 c-32 -2
-84 -2 -115 0 -32 2 -6 3 57 3 63 0 89 -1 58 -3z m230 0 c-26 -2 -71 -2 -100
0 -29 2 -8 3 47 3 55 0 79 -1 53 -3z m420 -100 l-3 -108 -155 0 -155 0 -3 27
-3 26 98 7 c107 7 133 12 133 25 0 15 -56 19 -207 13 l-153 -6 0 41 0 42 81 0
c60 0 80 3 77 13 -3 6 -18 15 -34 18 -16 4 51 7 149 8 l178 1 -3 -107z m282 2
l0 -105 -130 0 -130 0 0 105 0 105 130 0 130 0 0 -105z m-6652 23 l3 -38 -100
0 -101 0 0 34 c0 34 1 35 48 39 26 2 70 3 97 3 l50 -1 3 -37z m234 14 c7 -50
3 -52 -98 -52 l-94 0 0 40 0 40 94 0 94 0 4 -28z m5416 -14 l3 -38 -99 0
c-105 0 -112 3 -112 50 0 16 9 20 53 23 28 2 75 3 102 3 l50 -1 3 -37z m232 2
l0 -41 -97 3 c-94 3 -98 4 -101 26 -7 48 1 52 103 52 l95 0 0 -40z m-6122 -10
l3 -30 -58 0 c-64 0 -95 -11 -72 -26 8 -5 128 -11 267 -13 l253 -3 -3 -27 -3
-26 -350 0 -350 0 -3 80 -3 80 158 -2 158 -3 3 -30z m5650 0 l3 -30 -58 0
c-59 0 -94 -12 -79 -27 4 -4 125 -10 267 -12 l260 -3 -3 -27 -3 -26 -347 -3
-348 -2 0 82 0 83 152 -2 153 -2 3 -31z m-1208 -55 l0 -76 -107 3 -108 3 -3
59 c-2 32 -1 65 2 72 4 11 31 14 111 14 l105 0 0 -75z m-3230 -35 l0 -40 -60
0 -60 0 0 40 0 40 60 0 60 0 0 -40z m418 3 l-3 -38 -195 0 -195 0 -3 38 -3 37
201 0 201 0 -3 -37z m-2528 -3 l0 -30 -90 0 c-49 0 -90 4 -90 9 0 5 -3 16 -6
25 -5 13 8 16 83 19 48 1 91 4 96 5 4 1 7 -11 7 -28z m110 0 c0 -28 -2 -30
-40 -30 -35 0 -40 3 -40 23 0 31 7 37 47 37 30 0 33 -3 33 -30z m1640 -5 l0
-36 -102 3 -103 3 -3 27 c-3 26 -1 27 50 31 29 2 77 4 106 5 l52 2 0 -35z
m1078 3 l-3 -33 -92 -3 -93 -3 0 30 0 30 83 4 c45 1 88 4 95 5 9 1 12 -8 10
-30z m2602 -9 c0 -25 -4 -29 -28 -29 -36 0 -39 4 -34 38 3 25 7 28 33 24 24
-4 29 -9 29 -33z m218 9 l-3 -33 -90 0 -90 0 -3 27 -3 27 88 4 c48 1 92 4 96
5 5 1 7 -13 5 -30z m-5090 -5 l-3 -28 -128 -3 c-107 -2 -128 0 -133 13 -16 40
0 45 136 45 l131 0 -3 -27z m952 -3 l0 -31 -92 3 -93 3 -3 28 -3 27 95 0 96 0
0 -30z m1095 0 c0 -20 -5 -25 -25 -25 -20 0 -26 6 -28 28 -3 26 -1 28 25 25
22 -2 28 -8 28 -28z m4553 3 l-3 -28 -90 0 -90 0 -3 28 -3 27 96 0 96 0 -3
-27z m-2390 -10 c-3 -15 -15 -18 -83 -18 -68 0 -80 3 -83 18 -3 15 6 17 83 17
77 0 86 -2 83 -17z"/>
<path d="M3365 6776 c-71 -18 -147 -59 -182 -100 -54 -61 -57 -81 -49 -396 7
-265 6 -287 -10 -301 -28 -23 -74 -91 -68 -100 3 -5 198 -9 433 -9 385 0 430
2 442 16 12 15 7 22 -39 64 l-52 47 0 292 c0 325 -1 334 -66 390 -100 88 -276
130 -409 97z m101 -58 c-3 -13 -6 -69 -6 -125 l0 -103 -135 0 -135 0 0 48 c0
112 106 194 259 201 20 1 22 -3 17 -21z m165 -8 c25 -9 67 -31 92 -49 50 -34
72 -80 65 -136 l-3 -29 -137 -1 -138 -1 0 71 c0 38 -3 94 -7 124 l-6 53 44 -7
c24 -4 65 -15 90 -25z m-173 -362 l3 -108 -136 0 -135 0 0 110 0 111 133 -3
132 -3 3 -107z m326 1 c4 -61 6 -112 4 -114 -2 -1 -65 0 -140 3 l-138 5 0 102
c0 56 3 105 7 108 3 4 63 7 133 7 l127 0 7 -111z m-413 -149 l89 0 0 -95 0
-96 -137 3 -138 3 -3 65 c-2 36 0 80 3 99 6 33 6 34 52 27 25 -3 86 -6 134 -6z
m419 -97 l0 -93 -146 0 -147 0 7 46 c3 26 6 68 6 94 l0 48 140 -2 140 -1 0
-92z m54 -161 c16 -18 10 -19 -164 -26 -152 -5 -540 1 -540 10 0 1 3 9 6 18 5
14 45 16 344 16 315 0 338 -1 354 -18z"/>
<path d="M6685 6776 c-68 -16 -151 -63 -185 -104 -45 -55 -49 -92 -43 -393 l6
-277 -42 -49 c-74 -88 -100 -83 388 -83 360 0 430 2 440 14 17 20 2 44 -52 85
l-45 33 5 283 c4 155 3 294 -1 309 -11 43 -80 111 -144 139 -121 55 -224 68
-327 43z m101 -82 c-3 -26 -6 -82 -6 -125 l0 -79 -135 0 -135 0 0 40 c0 48 29
109 67 145 35 32 117 59 192 64 23 1 23 -1 17 -45z m119 31 c74 -20 171 -78
190 -115 8 -16 15 -48 15 -72 l0 -43 -140 0 -140 -1 0 62 c0 33 -3 89 -6 123
-8 70 -10 69 81 46z m-125 -337 c0 -40 3 -90 6 -110 l7 -38 -141 0 c-77 0
-142 3 -144 8 -2 4 -2 53 0 110 l4 102 134 0 134 0 0 -72z m328 -44 l3 -111
-143 5 c-79 2 -143 5 -144 6 0 0 1 49 4 109 l4 108 137 -3 136 -3 3 -111z
m-319 -150 c2 -1 0 -44 -4 -94 l-7 -91 -137 3 -136 3 -3 97 -3 97 143 -6 c79
-3 145 -7 147 -9z m321 -91 l0 -93 -145 0 -145 0 0 28 c0 15 3 57 6 93 l7 67
138 -2 139 -1 0 -92z m54 -161 c16 -18 10 -19 -164 -26 -152 -5 -540 1 -540
10 0 1 3 9 6 18 5 14 45 16 344 16 315 0 338 -1 354 -18z"/>
<path d="M1940 4870 c-120 -22 -200 -72 -247 -155 -16 -27 -17 -70 -14 -477
l3 -447 -36 -44 c-57 -69 -53 -74 72 -81 166 -10 611 -11 670 -2 31 5 56 14
59 23 3 8 -10 33 -28 56 l-34 42 -3 448 c-2 366 -5 454 -17 476 -34 66 -144
131 -263 157 -73 15 -95 16 -162 4z m63 -167 c-3 -65 -6 -119 -7 -120 -1 -1
-60 -3 -131 -4 l-130 -2 -3 41 c-3 46 21 103 62 141 32 30 118 60 173 61 l41
0 -5 -117z m203 79 c103 -52 129 -88 122 -167 l-3 -37 -135 1 c-74 1 -135 3
-136 4 -1 1 -4 55 -6 121 l-4 118 51 -5 c29 -3 79 -19 111 -35z m-203 -344 c3
-62 4 -114 3 -114 0 -1 -63 1 -138 4 l-138 5 0 108 0 109 134 0 133 0 6 -112z
m325 -9 l3 -112 -92 6 c-51 4 -114 7 -141 7 l-48 0 0 103 c0 57 2 106 4 108 2
2 64 3 138 2 l133 -2 3 -112z m-441 -139 l126 0 -8 -102 c-4 -57 -8 -104 -8
-105 -1 -1 -62 -3 -135 -5 l-132 -3 0 114 c0 99 2 112 16 107 9 -3 72 -6 141
-6z m443 -107 l0 -103 -138 0 c-76 0 -141 2 -143 4 -2 2 -3 49 -1 104 l3 101
140 -2 139 -2 0 -102z m-37 -147 l37 6 0 -120 0 -119 -124 -6 c-68 -3 -133 -3
-144 -1 -24 7 -35 82 -26 181 l6 68 107 -7 c58 -4 123 -5 144 -2z m-293 -116
l0 -120 -135 0 -135 0 0 120 0 120 135 0 135 0 0 -120z m373 -188 c10 -10 14
-22 10 -25 -3 -4 -168 -7 -366 -7 l-360 0 23 25 23 25 327 0 c304 0 328 -1
343 -18z"/>
<path d="M3394 4869 c-116 -19 -204 -75 -240 -153 l-24 -51 7 -437 6 -436 -36
-43 c-58 -68 -53 -76 56 -83 145 -10 605 -11 675 -2 38 5 66 14 69 22 3 7 -10
33 -29 56 l-33 42 -3 445 c-4 486 -4 482 -64 538 -37 34 -144 83 -216 99 -74
15 -94 16 -168 3z m68 -166 c-2 -65 -5 -119 -5 -120 -1 -1 -62 -3 -135 -5
l-132 -3 0 43 c0 111 105 201 235 202 l40 0 -3 -117z m194 83 c34 -15 76 -43
94 -61 29 -29 33 -41 34 -90 l1 -57 -135 2 c-74 0 -135 2 -136 3 -1 1 -4 55
-7 121 l-5 118 46 -4 c26 -3 75 -17 108 -32z m-198 -355 l3 -114 -38 7 c-21 3
-82 6 -135 6 l-98 0 0 110 0 111 133 -3 132 -3 3 -114z m327 6 c4 -59 5 -110
2 -113 -3 -3 -66 -2 -141 2 l-136 7 0 102 c0 56 2 104 4 106 2 2 63 4 134 4
l130 0 7 -108z m-444 -147 l119 0 0 -105 0 -105 -117 0 c-65 0 -128 -3 -140
-6 -22 -6 -23 -4 -23 72 0 109 9 157 27 150 8 -4 68 -6 134 -6z m447 -110 l3
-100 -147 0 -147 0 7 53 c3 28 6 75 6 104 l0 51 138 -4 137 -4 3 -100z m-333
-260 l1 -120 -132 0 -133 0 -3 120 -3 120 135 0 135 0 0 -120z m333 0 l-3
-115 -115 -7 c-63 -4 -127 -5 -142 -2 l-28 6 0 119 0 119 145 -2 146 -3 -3
-115z m46 -189 c15 -17 15 -19 1 -25 -9 -3 -175 -6 -368 -6 l-350 0 23 25 23
25 327 0 c307 0 328 -1 344 -19z"/>
<path d="M6740 4865 c-107 -30 -168 -73 -201 -142 -23 -47 -23 -53 -19 -258 3
-115 5 -314 5 -441 l0 -231 -32 -37 c-41 -46 -43 -73 -5 -80 15 -3 169 -8 342
-11 307 -6 440 1 463 24 7 7 -3 26 -29 57 l-38 48 -3 448 c-2 491 -1 479 -64
532 -104 88 -290 128 -419 91z m108 -157 l-3 -123 -137 -3 -138 -3 0 38 c1 52
30 112 74 151 20 17 40 32 44 32 4 1 30 7 57 15 28 7 63 14 78 14 l28 1 -3
-122z m187 88 c100 -45 153 -115 139 -185 l-5 -26 -134 0 -134 0 -6 75 c-3 41
-7 97 -10 124 l-4 48 52 -6 c29 -4 75 -17 102 -30z m-289 -246 l104 0 0 -111
0 -110 -137 3 -138 4 -3 99 c-3 122 -1 129 39 121 18 -3 78 -6 135 -6z m426
-107 c3 -60 4 -110 3 -113 -2 -3 -65 -3 -142 0 l-138 5 -3 108 -3 107 139 0
139 0 5 -107z m-322 -246 l0 -104 -107 -6 c-58 -4 -121 -7 -140 -7 l-33 0 0
110 0 110 140 0 140 0 0 -103z m330 -7 c0 -57 -4 -102 -10 -105 -6 -4 -71 -3
-145 1 l-135 7 0 97 c0 53 2 99 4 101 2 2 68 3 145 1 l141 -3 0 -99z m-340
-238 c0 -53 3 -107 6 -119 l6 -23 -141 0 -141 0 0 118 0 117 135 2 135 2 0
-97z m338 -25 l3 -115 -140 -7 c-77 -4 -144 -4 -150 0 -7 4 -11 51 -11 126 l0
120 148 -5 147 -5 3 -114z m30 -183 c12 -8 22 -19 22 -23 0 -14 -252 -22 -488
-15 -219 7 -230 8 -219 25 13 21 52 23 437 27 190 2 229 0 248 -14z"/>
<path d="M8220 4873 c-41 -8 -122 -43 -153 -65 -16 -12 -42 -41 -58 -66 l-29
-46 0 -454 0 -454 -35 -41 c-19 -22 -35 -46 -35 -53 0 -7 18 -15 43 -19 66 -9
718 -11 760 -2 46 10 47 26 5 80 l-33 41 -1 448 0 448 -30 42 c-33 48 -105 95
-185 122 -53 18 -200 29 -249 19z m90 -130 c0 -49 -3 -105 -6 -125 l-7 -38
-133 0 -134 0 0 40 c0 113 108 203 253 209 l27 1 0 -87z m131 71 c68 -20 131
-57 164 -96 20 -23 25 -41 25 -81 l0 -52 -137 1 c-75 1 -138 5 -139 10 -1 5
-4 60 -7 122 -5 129 -8 126 94 96z m-233 -264 l103 0 -3 -107 -3 -108 -137 0
-138 0 0 114 0 114 38 -7 c20 -3 83 -6 140 -6z m422 -112 l0 -113 -140 3 -140
3 0 110 0 109 140 0 140 0 0 -112z m-325 -240 c0 -53 -2 -99 -5 -101 -3 -3
-64 -8 -136 -12 -112 -6 -132 -5 -137 8 -3 8 -3 58 0 111 l6 97 136 -3 136 -3
0 -97z m201 92 l124 0 0 -106 0 -106 -142 7 c-79 4 -143 8 -144 9 0 0 1 47 4
104 4 85 7 102 19 98 8 -3 71 -6 139 -6z m-206 -360 l0 -120 -135 0 -135 0 0
118 0 117 135 2 135 2 0 -119z m330 -1 l0 -117 -134 -7 c-74 -4 -139 -4 -145
-1 -7 5 -11 51 -11 127 l0 119 145 -2 145 -3 0 -116z m40 -187 c14 -11 21 -24
17 -29 -10 -9 -705 -8 -714 1 -4 3 1 14 10 23 14 16 46 18 339 22 313 3 324 3
348 -17z"/>
<path d="M5100 4841 c-30 -10 -69 -25 -86 -34 -37 -19 -91 -79 -105 -116 -7
-16 -10 -180 -9 -429 l1 -403 -73 7 c-40 4 -83 11 -96 15 -24 9 -52 0 -84 -29
-27 -23 -23 -68 7 -88 24 -16 27 -16 45 1 11 10 20 27 20 37 0 15 6 19 27 16
38 -4 55 -40 50 -109 -3 -50 -10 -67 -63 -146 -38 -56 -66 -111 -78 -151 -16
-60 -16 -63 2 -105 25 -57 93 -103 170 -114 71 -10 816 -6 857 5 46 13 88 105
89 193 1 65 0 69 -57 151 -45 66 -60 98 -69 146 -9 49 -9 64 2 77 12 14 15 14
32 -5 22 -23 54 -20 76 8 17 22 15 46 -7 73 -18 22 -26 24 -95 22 l-76 -2 -1
367 c0 202 -4 389 -8 415 -14 88 -85 152 -212 192 -95 30 -179 32 -259 6z
m114 -48 c4 -9 4 -47 0 -85 l-7 -68 -123 0 c-136 0 -139 2 -110 58 22 43 61
73 118 93 68 24 114 24 122 2z m193 -23 c60 -30 113 -78 113 -104 0 -10 -34
-15 -132 -19 -73 -3 -133 -4 -134 -4 -1 1 -4 40 -7 86 l-7 84 53 -6 c28 -4 80
-20 114 -37z m113 -183 c0 -19 3 -68 6 -110 l7 -77 -142 0 -142 0 3 103 3 102
125 5 c69 3 128 7 133 8 4 1 7 -13 7 -31z m-312 -84 l3 -103 -63 0 c-35 0 -93
-3 -130 -7 l-68 -6 0 112 0 112 128 -3 127 -3 3 -102z m0 -235 l3 -98 -33 -1
c-18 -1 -77 -4 -131 -8 l-97 -6 0 105 0 105 128 0 127 0 3 -97z m322 -2 l0
-103 -142 5 c-79 2 -143 5 -143 6 -1 0 1 45 3 99 l4 97 139 0 139 0 0 -104z
m-57 -146 l57 0 0 -109 0 -109 -92 -7 c-51 -4 -115 -5 -142 -3 l-50 3 0 113
c-1 63 1 116 4 119 3 3 41 3 85 -1 44 -3 106 -6 138 -6z m-263 -115 l0 -115
-130 0 -130 0 0 115 0 115 130 0 130 0 0 -115z m265 -156 c-129 -21 -307 -29
-408 -16 l-102 12 235 5 c129 3 255 6 280 7 l45 1 -50 -9z m-582 -38 c4 -4 6
-106 5 -226 l-3 -218 -42 -12 c-24 -7 -59 -22 -78 -34 -46 -27 -49 -26 -63 4
-27 59 -7 140 53 220 46 62 67 116 67 175 0 32 -5 67 -11 78 -6 11 -11 23 -11
27 0 7 72 -5 83 -14z m717 -45 c-20 -72 7 -166 70 -246 34 -43 60 -99 60 -130
0 -11 -7 -37 -15 -56 l-15 -36 -26 21 c-15 12 -44 24 -66 27 l-38 7 0 228 c0
209 1 228 18 231 25 6 26 3 12 -46z m-630 10 c0 -13 7 -26 15 -30 22 -8 18
-36 -15 -107 l-29 -64 -1 113 c0 93 3 112 15 112 9 0 15 -9 15 -24z m550 -123
c0 -192 -9 -283 -26 -283 -10 0 -14 17 -14 68 0 49 -7 83 -26 127 -55 128 -59
141 -47 168 9 19 17 24 32 20 16 -4 23 1 31 21 6 16 17 26 30 26 19 0 20 -6
20 -147z m-370 103 c0 -12 4 -26 9 -31 6 -6 2 -36 -11 -80 -14 -48 -21 -103
-22 -172 l-1 -103 -77 0 c-76 0 -78 0 -85 28 -12 47 22 176 64 244 27 45 38
74 38 103 l0 40 42 -4 c37 -2 43 -6 43 -25z m225 4 c-23 -44 -19 -74 21 -162
27 -59 37 -98 41 -154 l6 -74 -130 0 -130 0 -7 31 c-17 85 -3 196 40 331 l15
47 57 4 c31 2 67 4 80 5 22 2 22 1 7 -28z m45 -441 c0 -20 -40 -78 -58 -83
-65 -17 -89 -16 -109 6 -23 26 -43 61 -43 77 0 7 37 11 105 11 71 0 105 -4
105 -11z m120 1 c63 -14 120 -41 120 -56 0 -7 -22 -17 -50 -23 -58 -12 -184
-15 -178 -3 2 4 13 26 24 49 21 47 20 47 84 33z m-600 -12 c0 -6 11 -26 26
-45 l25 -33 -73 0 c-78 0 -148 15 -148 31 0 15 100 58 138 58 18 1 32 -4 32
-11z m230 -31 c14 -23 27 -45 28 -49 2 -5 -26 -8 -62 -8 -64 0 -67 1 -106 40
-22 22 -40 45 -40 50 0 6 32 10 78 10 l77 0 25 -43z"/>
<path d="M6825 3033 c-128 -17 -224 -73 -267 -157 -20 -39 -20 -55 -19 -730
l2 -691 -40 -40 c-40 -38 -54 -79 -28 -86 26 -8 764 -3 800 5 46 10 48 29 7
76 l-29 35 -1 676 c0 760 2 738 -72 805 -49 44 -130 81 -218 100 -65 14 -79
14 -135 7z m43 -140 l-3 -88 -132 0 c-146 0 -146 0 -117 62 31 64 119 111 212
112 l43 1 -3 -87z m198 48 c68 -35 84 -47 107 -81 33 -48 28 -50 -128 -50
l-145 0 0 86 0 87 54 -6 c31 -3 78 -18 112 -36z m129 -267 c4 -58 4 -108 0
-112 -4 -4 -70 -7 -148 -7 l-142 0 0 105 0 105 105 6 c58 3 121 6 141 7 l37 2
7 -106z m-341 90 c13 -5 16 -25 16 -110 l0 -104 -102 0 c-57 0 -120 -3 -140
-6 l-38 -7 0 117 0 116 124 0 c68 0 131 -3 140 -6z m346 -355 l0 -112 -61 7
c-34 3 -102 6 -150 6 l-89 0 0 100 0 99 123 4 c67 1 134 4 150 5 l27 2 0 -111z
m-340 2 l0 -99 -72 -6 c-40 -3 -101 -7 -135 -10 l-63 -4 0 109 0 109 135 0
135 0 0 -99z m0 -276 l0 -125 -135 0 -135 0 0 120 0 119 108 4 c59 1 119 4
135 5 l27 2 0 -125z m340 8 c0 -61 -4 -114 -9 -118 -5 -3 -73 -8 -150 -12
l-141 -6 0 127 0 126 150 -2 150 -3 0 -112z m-429 -173 l89 0 0 -109 c0 -61
-3 -112 -7 -114 -5 -3 -65 -2 -135 1 l-128 5 0 115 0 115 46 -7 c26 -3 87 -6
135 -6z m429 -104 l0 -113 -82 -6 c-46 -4 -113 -7 -149 -7 l-67 0 -4 37 c-3
20 -2 72 0 115 l5 77 86 4 c47 1 114 4 149 5 l62 2 0 -114z m-353 -170 c2 -2
6 -56 9 -121 l7 -118 -93 6 c-51 4 -113 7 -137 7 l-43 0 0 121 0 121 128 -8
c70 -3 128 -7 129 -8z m351 -105 c-2 -60 -7 -113 -11 -117 -4 -5 -70 -8 -145
-9 l-137 0 -3 118 -3 117 152 0 151 0 -4 -109z m32 -189 c14 -11 21 -24 17
-28 -9 -9 -696 -9 -705 0 -3 3 2 14 11 24 14 16 45 18 334 21 307 3 319 2 343
-17z"/>
<path d="M8258 3029 c-106 -15 -205 -77 -246 -153 -16 -28 -17 -90 -13 -726
l3 -695 -37 -35 c-49 -47 -58 -65 -42 -82 11 -10 92 -13 393 -13 208 0 396 4
417 9 46 10 48 29 7 73 l-30 32 0 671 c0 451 -4 685 -11 714 -20 82 -90 141
-216 184 -73 25 -152 32 -225 21z m70 -89 c2 -19 1 -58 -3 -87 l-6 -52 -135 2
c-148 2 -143 -1 -109 67 32 62 130 112 210 107 38 -2 40 -4 43 -37z m165 16
c80 -33 124 -65 142 -103 8 -17 15 -33 15 -36 0 -4 -65 -7 -145 -9 l-145 -3 0
50 c0 28 -3 67 -6 88 l-7 37 44 0 c24 0 70 -11 102 -24z m157 -285 l0 -108
-31 -7 c-17 -3 -83 -6 -145 -6 l-114 0 0 110 0 109 123 4 c67 1 132 4 145 5
22 2 22 0 22 -107z m-330 -11 l0 -110 -89 0 c-48 0 -109 -3 -135 -6 l-46 -7 0
117 0 116 135 0 135 0 0 -110z m340 -249 l0 -109 -152 5 c-84 3 -154 7 -156 8
-2 2 0 46 4 99 l7 95 121 4 c66 1 133 4 149 5 l27 2 0 -109z m-340 0 l0 -99
-87 -6 c-49 -4 -109 -8 -135 -11 l-48 -4 0 109 0 110 135 0 135 0 0 -99z m0
-276 l0 -125 -135 0 -135 0 0 120 0 119 108 4 c59 1 119 4 135 5 l27 2 0 -125z
m340 7 c0 -88 -3 -114 -14 -118 -8 -3 -77 -6 -153 -7 l-138 -2 -3 123 -3 122
156 -2 155 -3 0 -113z m-429 -172 l89 0 0 -102 c0 -57 -4 -108 -8 -114 -5 -8
-47 -10 -134 -6 l-128 5 0 115 0 115 46 -7 c26 -3 87 -6 135 -6z m429 -104 l0
-114 -112 -7 c-62 -4 -131 -5 -153 -3 l-40 3 0 110 0 110 90 6 c50 3 118 6
153 7 l62 2 0 -114z m-399 -166 l46 0 7 -116 c4 -64 5 -119 2 -121 -2 -3 -63
-2 -135 2 l-131 8 0 120 0 120 83 -6 c45 -4 103 -7 128 -7z m391 -112 c-2 -62
-6 -115 -8 -117 -2 -2 -66 -6 -142 -9 l-139 -5 -4 34 c-2 19 -3 73 -1 122 l3
87 147 0 147 0 -3 -112z m39 -184 c10 -9 19 -20 19 -24 0 -12 -274 -19 -503
-13 l-218 6 20 21 c19 21 30 21 341 25 295 3 323 2 341 -15z"/>
<path d="M1927 3019 c-110 -26 -202 -98 -225 -178 -9 -27 -12 -231 -12 -716
l0 -678 -40 -43 c-22 -24 -40 -51 -40 -59 0 -26 43 -35 110 -23 44 7 114 7
248 -1 103 -6 221 -11 262 -11 99 0 231 20 237 37 3 7 -10 31 -28 54 l-32 41
-3 686 c-2 587 -4 692 -17 722 -53 122 -289 209 -460 169z m96 -66 c3 -16 3
-56 0 -90 l-6 -63 -134 0 -134 0 6 23 c23 73 74 116 166 141 82 22 96 21 102
-11z m138 7 c50 -15 169 -81 169 -93 0 -1 4 -16 8 -32 l9 -30 -144 -2 -143 -2
0 67 c0 37 -3 77 -6 90 -5 18 -2 22 19 22 14 0 53 -9 88 -20z m189 -301 l0
-109 -145 0 -145 0 0 105 0 105 88 1 c48 0 107 4 132 8 25 4 51 5 58 3 8 -3
12 -35 12 -113z m-412 104 l82 -6 0 -108 0 -109 -140 0 -140 0 0 99 c0 55 3
106 6 115 7 18 53 20 192 9z m82 -359 l0 -104 -48 0 c-27 0 -90 -3 -140 -6
l-92 -7 0 109 0 109 140 2 140 2 0 -105z m330 -5 c0 -97 -2 -110 -16 -105 -9
3 -74 6 -145 6 l-129 0 0 105 0 105 145 0 145 0 0 -111z m-84 -149 l84 0 0
-114 0 -113 -46 -7 c-26 -3 -91 -6 -145 -6 l-99 0 0 126 0 127 61 -7 c34 -3
100 -6 145 -6z m-246 -120 l0 -120 -140 0 -140 0 0 120 0 120 140 0 140 0 0
-120z m330 -269 l0 -118 -141 -8 c-114 -6 -143 -4 -150 7 -10 16 -11 82 -3
166 l7 61 111 4 c61 1 126 4 144 5 l32 2 0 -119z m-332 64 c2 -22 1 -73 -3
-112 l-7 -73 -127 0 -128 0 -6 83 c-4 45 -7 97 -7 115 l0 33 138 -3 137 -3 3
-40z m-85 -231 l77 -6 0 -67 c0 -38 3 -89 6 -115 l7 -46 -137 0 -136 0 0 125
0 125 53 -5 c28 -2 87 -7 130 -11z m415 -111 l-3 -118 -142 -3 -143 -3 0 115
0 115 83 4 c45 1 110 4 145 5 l63 2 -3 -117z m46 -192 c16 -17 15 -19 -21 -25
-51 -8 -668 -8 -676 1 -4 3 0 15 10 25 15 17 39 18 343 18 306 0 328 -1 344
-19z"/>
<path d="M3390 3020 c-103 -25 -190 -86 -221 -155 -17 -37 -19 -84 -19 -729
l0 -689 -40 -43 c-22 -24 -40 -51 -40 -59 0 -25 44 -36 102 -24 37 7 128 6
303 -2 198 -10 269 -10 338 0 134 18 139 23 85 79 l-33 33 -5 702 c-5 638 -7
705 -22 733 -62 113 -291 191 -448 154z m95 -61 c4 -11 4 -52 0 -90 l-7 -69
-134 0 c-87 0 -134 4 -134 10 0 15 29 72 49 94 22 25 67 47 126 62 74 18 93
17 100 -7z m169 -11 c76 -30 136 -80 148 -125 2 -9 -36 -13 -139 -17 l-143 -5
0 28 c0 15 -3 56 -7 91 l-6 63 48 -8 c27 -4 72 -16 99 -27z m-266 -184 l92 -7
0 -108 0 -109 -140 0 -140 0 0 108 c0 60 3 112 7 115 8 9 65 9 181 1z m422
-104 l0 -110 -145 0 -145 0 0 105 0 104 98 4 c53 1 118 4 145 5 l47 2 0 -110z
m-336 -253 c-4 -56 -7 -103 -8 -103 0 -1 -61 -5 -133 -9 l-133 -7 0 109 0 108
140 2 140 2 -6 -102z m336 -8 c0 -97 -2 -110 -16 -105 -9 3 -76 6 -150 6
l-134 0 0 83 c0 137 -11 127 156 127 l144 0 0 -111z m8 -155 c2 -1 1 -52 -3
-112 l-7 -109 -52 -7 c-28 -3 -95 -6 -148 -6 l-98 0 0 125 0 124 153 -6 c83
-3 154 -7 155 -9z m-348 -31 c0 -21 3 -75 7 -120 l6 -83 -142 0 -141 0 0 120
0 120 135 0 135 0 0 -37z m340 -353 l0 -120 -37 0 c-21 0 -89 -3 -151 -7
l-113 -6 3 119 3 119 115 6 c63 3 130 6 148 7 l32 2 0 -120z m-337 102 c3 -4
3 -55 0 -115 l-6 -107 -133 0 -134 0 0 115 0 115 134 0 c74 0 137 -3 139 -8z
m-80 -268 l77 -6 0 -91 c0 -51 3 -102 6 -114 l6 -23 -134 0 -135 0 -7 61 c-3
34 -6 90 -6 125 l0 64 58 -5 c31 -3 92 -7 135 -11z m415 -111 l-3 -118 -142
-3 c-131 -2 -143 -1 -145 15 -1 10 -2 62 -2 115 l-1 97 80 4 c44 1 111 4 148
5 l68 2 -3 -117z m42 -188 c7 -9 10 -19 6 -23 -9 -8 -672 -16 -694 -7 -13 5
-12 8 3 25 17 19 32 20 345 20 281 0 329 -2 340 -15z"/>
<path d="M5290 1760 c-6 -12 -10 -33 -8 -48 2 -22 9 -28 34 -30 39 -4 56 16
52 60 -3 29 -7 33 -35 36 -24 2 -34 -2 -43 -18z"/>
<path d="M5038 1778 c-24 -19 -30 -61 -12 -86 19 -27 48 -28 74 -2 27 27 26
65 -2 84 -27 19 -39 20 -60 4z"/>
</g>
</svg>
