<?xml version="1.0" encoding="utf-8"?>
<!-- Generator: Adobe Illustrator 21.0.0, SVG Export Plug-In . SVG Version: 6.00 Build 0)  -->
<svg version="1.1" baseProfile="tiny"
	 id="svg72" inkscape:version="0.92.2 5c3e80d, 2017-08-06" sodipodi:docname="13.svg" xmlns:cc="http://creativecommons.org/ns#" xmlns:dc="http://purl.org/dc/elements/1.1/" xmlns:inkscape="http://www.inkscape.org/namespaces/inkscape" xmlns:rdf="http://www.w3.org/1999/02/22-rdf-syntax-ns#" xmlns:sodipodi="http://sodipodi.sourceforge.net/DTD/sodipodi-0.dtd" xmlns:svg="http://www.w3.org/2000/svg"
	 xmlns="http://www.w3.org/2000/svg" xmlns:xlink="http://www.w3.org/1999/xlink" x="0px" y="0px" viewBox="0 0 850 850"
	 xml:space="preserve">
<sodipodi:namedview  bordercolor="#666666" borderopacity="1" gridtolerance="10" guidetolerance="10" id="namedview74" inkscape:current-layer="svg72" inkscape:cx="770.61632" inkscape:cy="356.64957" inkscape:pageopacity="0" inkscape:pageshadow="2" inkscape:window-height="978" inkscape:window-maximized="1" inkscape:window-width="1920" inkscape:window-x="0" inkscape:window-y="1" inkscape:zoom="0.29448918" objecttolerance="10" pagecolor="#ffffff" showgrid="false">
	</sodipodi:namedview>
<g id="g70" transform="translate(0.000000,0.000000) scale(1.00000,1.00000)">
	<path id="path4" fill="none" d="M0,0h425h425v425v425H425H0V425V0z M241.6,104c-1.5,0,0,4.7,9.4,29.7c9.9,26.3,10.9,29.7,9.1,30.7
		c-0.5,0.3-7.1,1.3-14.7,2.1c-15.6,1.8-31.2,4.8-55.2,10.6c-27,6.4-35.7,11.1-53.2,28.8c-29.5,29.7-45.5,55.1-56,88.9
		c-1.7,5.5-3.9,10.7-4.9,11.7c-1.1,0.9-5.4,2.5-9.6,3.6c-4.2,1-10.5,3.4-13.8,5.1c-11.6,6.2-24.3,21.5-29.8,35.8
		c-4.8,12.6-8.4,41.9-7.4,60c0.4,6.3,0.8,20.7,1,32c0.3,23.5,2.1,35,7.9,52.3c9.6,28.7,21.2,44.1,35.9,47.8
		c6.3,1.5,16.2,0.7,30.2-2.6c6.1-1.4,13.3-3.1,16.1-3.7l5.2-1.2l16.8,10.6c19.4,12.1,103.2,61.8,117.6,69.7
		c5.4,3,12.4,7.6,15.5,10.3c10.7,8.9,14.3,11,18.8,10.5c2.2-0.3,4.9-0.8,6.1-1.2c2-0.6,2.2-0.1,3.3,7.2c3,18.4,11.3,45.7,18.1,59.3
		c8.8,17.7,23.5,34.5,34.7,39.8c8.7,4,13.8,3.6,49.3-4c34.3-7.4,40.2-9.3,46.6-14.9c5-4.3,6.3-4.6,12.4-2.4
		c6.9,2.4,37.9,9.6,46.8,10.8c9.6,1.3,22.1,0.3,52.2-3.8c50.5-6.9,66.7-10.3,100-20.4c21.6-6.5,90.4-29.9,100-34
		c25.8-10.8,55.2-31.8,63.8-45.4c4.1-6.5,14.4-29.5,17.5-39.2c3.2-9.8,3.8-15.2,4.3-36.5c0.3-17.6,0.1-22.5-1.2-27
		c-2-6.7-5.6-13.9-8.2-16.3c-3.2-2.9-4.9-8.2-9.8-30.2c-2.5-11.6-5.8-23.9-7.3-27.5c-6.1-14.6-14.9-25.3-37.9-46.1
		c-15.6-14.1-17.5-15.4-28.2-20.6c-6.3-3-15.4-8.4-20.1-11.9c-15.1-11.2-31.9-20.1-50.9-27.1c-5.2-1.9-10.7-4.6-12.2-6
		s-4.8-6.6-7.4-11.7c-4.9-9.7-5.3-11.9-4-23.1c1-7.5-0.7-11.7-7.2-18.7c-5.6-6-10.2-8.5-19.4-10.4c-9.6-2-12.2-3.6-16.1-9.7
		c-4.4-6.7-41.7-43.5-52.2-51.3c-44.4-33.5-76-43.9-157.5-52.1c-22-2.2-70.4-2.4-101.2-0.4c-17.6,1.2-22,1.2-23.2,0.2
		c-0.9-0.7-7.8-14.1-15.5-29.7C248.4,116.8,241.9,104,241.6,104z"/>
	<path id="path6" fill="#FF0000" d="M460,176.6c27.3,6.4,67,22.5,67,27.1c0,0.7-0.1,1.3-0.2,1.3c-0.2,0-5.7-0.7-12.3-1.6
		c-16.6-2.1-70.3-3-92.1-1.5C388.9,204.3,336,212,294,220.6c-12.1,2.5-11.3,1.7-8.4,8.2c16,35.4,24.8,59.9,44.9,124.2l9.5,30.5
		l-2.7,2.1c-2.4,1.9-2.5,2.5-1.9,6.5c0.4,2.4,1.1,6.6,1.6,9.4c0.4,2.7,1.1,6.7,1.5,8.8c0.8,4.1-1.3,7.7-4.6,7.7
		c-3,0-19.1,8.7-28.4,15.4c-12.4,9-16.4,13-20.5,20.6c-2.3,4.5-3.5,5.9-3.8,4.7c-0.6-2.9,1.7-31.3,3.3-41.8
		c1.7-10.8,6.4-26.9,7.9-27.5c0.6-0.2,6.9,1.1,14.1,3c7.1,1.9,13.1,3.3,13.2,3.2c0.4-0.3-8-37-12.8-56.6c-7.2-29-18.7-62.1-29-83.6
		c-10.4-21.9-27.1-42.5-41-50.7c-17.8-10.5-45.3-13.2-65.9-6.5c-16.3,5.3-26.1,12.1-43.9,30.3c-6.7,7-12.5,12.4-12.7,12.2
		c-1.9-1.8,2.5-7.5,15.5-20.6c29.4-29.5,40.1-35,84.1-43.1c42.3-7.8,61.3-9.7,107.5-11C376.2,164.5,423.8,168.1,460,176.6z"/>
	<path id="path8" fill="#008000" d="M181.2,201c1.3,0,2,2.1,1,3.3c-2,2.5-11.6,26.7-16.7,42.2c-6.1,18.2-13,45.2-17.1,66.5
		c-1.5,8-3.1,14.8-3.4,15.3c-0.4,0.4-1.2-0.4-2-1.8c-1.2-2.3-0.4-6.5,9-44.3c15.8-64.2,18.5-72.5,25.3-78.4
		C179.1,202.3,180.8,201,181.2,201z"/>
	<path id="path10" fill="#FFE4E1" d="M207.7,201c5.9,0,20,5.4,27.5,10.5c12.5,8.6,27.4,26.6,35.6,43.1c4.9,9.7,23.9,57.3,25.7,64.4
		c2.5,9.7,1.8,23.7-1.7,31.2c-2.7,5.9-4.1,6.8-7.8,4.8c-1.7-0.9-1.7-1.4-0.4-6.7c3.8-16.3-0.8-34.6-9.6-38.3
		c-2.5-1-5.6-1.1-15.3-0.2c-31.9,3-40.9,9.7-40.8,30.3c0,4.9-0.2,8.9-0.6,8.9c-0.3,0-13.6-4.8-29.5-10.7
		c-18-6.7-28.8-11.3-28.8-12.1c0-2.5,19.1-77.2,21.9-85.9c3.8-11.4,14.4-33.7,17.5-36.8C203.2,201.7,205,201,207.7,201z"/>
	<path id="path12" fill="#008000" d="M194,202.6c0,0.3-1.8,4.6-3.9,9.7c-6.2,14.6-8.5,21.2-13.4,38.2C164.1,294.6,157,326.3,159,330
		c0.8,1.6,7.2,4.1,49.5,19.2c6.1,2.2,24.7,8.6,41.5,14.3c30.2,10.1,38,13.2,38,14.6c0,2.1-3,1.6-14.7-2.5
		c-17.4-6.1-89.7-31.3-106.3-37.1c-7.4-2.6-13.8-5-14.2-5.3c-1.3-1.3,6.4-41.8,11.8-62.2c6.3-23.8,19.2-57.3,25.5-66.2
		C191.9,202.3,194,201.1,194,202.6z"/>
	<path id="path14" fill="#FFE4C4" d="M170.4,208.7c-11.6,27-17.5,47-26.9,91.8c-2.5,12-4.8,22.2-5.1,22.5c-0.3,0.2-4.9-1.8-10.2-4.5
		c-42-21.6-40.4-19.9-33.2-36.6c14.7-33.9,43.5-65.3,68.4-74.5C172,204.2,172.3,204.3,170.4,208.7z"/>
	<path id="path16" fill="#FAF0E6" d="M520.5,209.5c15.2,1.9,15.8,2.2,31.2,14.9c17.5,14.5,42.3,40.2,66.3,68.9
		c21.3,25.3,40.9,52.3,39.2,53.8c-0.7,0.7-20,6.1-34.7,9.8c-9,2.2-33.9,6.7-58.5,10.5c-9.1,1.4-25,3.9-35.5,5.5
		c-42.5,6.7-54.7,7.8-105,9.1c-22,0.6-46.4,1.5-54.1,2c-15.9,1.1-19.6,0.4-21.8-3.9c-0.8-1.5-6.2-17.6-12.1-35.9
		c-17.7-55.6-24.1-73.1-36.9-101.4c-5.8-12.7-7.3-16.8-6.3-16.8c0.1,0,6.8-1.1,14.7-2.5c71.1-12.6,88.8-14.8,131.5-16.4
		C476.3,205.6,494.2,206.1,520.5,209.5z"/>
	<path id="path18" fill="#48D1CC" d="M627.5,284.9c7.9,3.6,15.1,14.6,14.3,22.1c-0.3,3.3-0.5,3.1-9.8-9c-5.2-6.8-9.9-13-10.3-13.7
		C620.6,282.5,622.7,282.7,627.5,284.9z"/>
	<path id="path20" fill="#A52A2A" d="M84.2,303l14.7,7.6c29.8,15.6,30.1,15.8,30.8,18.3c0.3,1.3-1.2,14.5-3.3,29.5
		c-3.5,24.4-3.9,29-3.8,46.1c0.1,16.8,3.4,66.7,6.5,98.3c0.6,6.2,0.9,11.5,0.6,11.8c-0.9,1-8.8-3.6-13.2-7.7
		c-6.2-5.8-9-12.9-11-28.4c-0.9-7.2-3.6-25.2-6-40c-2.4-14.9-6.5-40.3-9-56.5c-2.5-16.2-5.9-37.6-7.6-47.5
		c-3.3-18.9-3.3-24.4-0.4-28.8L84.2,303z"/>
	<path id="path22" fill="#F4A460" d="M76.4,315.7c0.3,1.6,3.5,21.2,7.1,43.8c3.6,22.5,10.1,63.2,14.4,90.2l8,49.3l-5,9.5
		c-2.8,5.2-5.5,9.5-5.9,9.5c-2,0-7.9-6.3-9.3-9.8c-0.9-2.1-3.4-14.9-5.7-28.3c-6.3-37.9-9.4-49.6-20.7-79.4
		c-7.7-20.2-8.6-22-12.7-26.3c-4.8-5.2-8.2-6.6-15.9-6.5l-6.8,0.1l0.6-4.1c0.4-2.3,2-7.6,3.6-11.7c7-18.4,21.4-32.2,38.4-37.1
		C74.9,312.5,75.8,312.5,76.4,315.7z"/>
	<path id="path24" fill="#48D1CC" d="M279.8,322.7c2.2,5.5,4.3,16.8,3.7,20c-0.8,4.3-5.3,7.9-12.1,9.4c-4.8,1.1-7.4,1-20.2-1
		c-8-1.2-15.9-2.9-17.4-3.7c-4-2.1-6.1-6.8-5.5-12.3c0.4-3.9,1.2-5.2,5.1-8.8c5.1-4.6,11.9-7.3,21.1-8.3
		C271.1,316.1,277.7,317.3,279.8,322.7z"/>
	<path id="path26" fill="#A52A2A" d="M136.8,330c0.2,0,7.5,3,16.1,6.6c8.6,3.7,19.9,8.2,25.1,10.1c15,5.5,58.4,20.7,82.5,29
		c12.1,4.1,22.8,8.3,23.9,9.3c1.8,1.7,1.8,2.1-0.2,14.1c-1.9,11.2-5,34.9-6.7,50.4c-1.5,14.4-4,25.2-10.1,43.2
		c-8.8,26.4-10.5,36.5-11.1,67.1c-0.5,21.9-0.7,24.3-2.2,23.7c-2.2-0.8-77.4-41-99.6-53.2c-13.5-7.5-18.4-10.7-19.8-13
		c-2.1-3.6-5.1-31.6-6.7-61.3c-1-19.2-1.4-82-0.5-82c0.3,0,4.8,1.8,10.1,4.1c8.6,3.7,9.9,4,12.5,2.9c2.2-1,2.9-1.9,2.9-4.1
		c0-4.1-3.7-7.5-10.1-9.3c-7.1-2-10.6-4.7-12-9.5c-0.9-3.2-0.7-5.3,2.1-15.9C134.8,335.5,136.5,330,136.8,330z"/>
	<path id="path28" fill="#008000" d="M302.4,340.1c0.2,0.2,1.8,7.6,3.5,16.4c1.8,8.8,3.4,17.1,3.7,18.3c0.4,2.2,0.3,2.3-2.8,1.7
		c-6.7-1.3-6.4-1-7.8-10.5c-1.4-9.8-1-16.8,1.5-22.5C301.3,341.4,302.2,339.9,302.4,340.1z"/>
	<path id="path30" fill="#FF0000" d="M667.3,350.1c7.6-0.3,32.5,11.2,45.9,21.1c22,16.3,42.8,45.1,52,72.1
		c2.9,8.3,3.2,10.4,3.2,21.7c0.1,16.3-2.2,24.3-9,31.9c-6.8,7.6-11.7,10.1-36.9,18.7c-20,6.9-43.2,11.5-77.5,15.4
		c-25.5,2.9-31.8,2.6-44.1-2.4c-12.5-5-16.4-8-55.2-42.7c-22.5-20.2-32.1-27.9-45.3-36.8c-30-20.2-69.3-35.6-103.6-40.7
		c-9-1.3-15.1-1.5-29.8-1c-10.2,0.3-19.6,0.7-21,0.9c-2.3,0.2-2.6-0.3-4.1-7.5c-1.5-7.1-1.5-7.8,0-8.2c3.9-1.1,30.8-2.6,56.1-3.1
		c32.1-0.7,40.2-1.2,93-6.6c51.3-5.2,61-6.3,82-10c33.3-5.8,56.2-11,74-16.9C656.6,352.8,665.8,350.2,667.3,350.1z"/>
	<path id="path32" fill="#7FFF00" d="M289.9,361.8c3,2.2,4.6,7.1,2.6,7.8c-3.5,1.4-21.2-4-26.1-7.9l-2.8-2.2l2.9-0.6
		C274.1,357.3,285.8,358.7,289.9,361.8z"/>
	<path id="path34" fill="#F4A460" d="M37.8,373.7c3.3,1.8,11.4,11.2,10.7,12.4c-0.3,0.3-2.1,0.9-4.1,1.2c-8,1.3-15.5,9.7-20.4,22.8
		c-2.1,5.5-3.3,7-4.3,5.1c-0.6-1,2-26.4,3.3-32.8c1-4.9,3.6-8.4,7-9.7C32.7,371.7,34.5,372,37.8,373.7z"/>
	<path id="path36" fill="#A52A2A" d="M738.5,389.7l3.5,0.8c8.7,1.9,18.2,8.9,28,20.5l4.1,4.9l-2.1,3.3c-1.3,2.1-2,5-2,8.3
		c0,10.6,8.1,33.5,15.8,44.7c5.1,7.5,12.1,14.6,14.9,15.3c6.2,1.4,9.9,5.1,14.7,14.4c2.5,4.9,5.7,10.3,7,11.8s3.4,4.8,4.7,7.3
		c2.2,4.3,2.3,5.4,2.5,29.5c0.2,23.1,0,25.3-1.8,29.2c-2.6,5.7-5.7,8-19.6,15.1c-36.4,18.6-73,29.6-168.7,50.7
		c-47.5,10.5-71.8,16.6-78.9,19.8c-10.4,4.8-16.7,12.6-32.7,41c-4.6,8.2-9.2,15.3-10.2,15.9c-1.1,0.5-5.1,1.2-9.1,1.5
		c-21.3,1.6-58.9-8.6-67.5-18.3c-4-4.6-4.4-5.5-23.3-57.4c-7.1-19.5-14.9-40.7-17.3-47c-2.5-6.3-5.9-16-7.6-21.5
		c-6.6-21.2-19.5-41.9-41.7-66.8c-10.7-12.1-14.7-14.9-24.2-17.1c-19.8-4.7-31.3,0.5-40.9,18.4c-7.3,13.7-11.4,27.2-14.7,48.5
		c-2.2,14.3-1.5,40.3,1.5,54.9c1.1,5.5,1.9,10.1,1.8,10.2c-0.2,0.2-1.8-0.6-3.6-1.7c-7.6-4.6-10.1-18.8-10.2-56.1
		c0-34.9,1.6-44.8,11.8-76.3c7.3-22.5,17.8-41.3,28.2-50.8c5.5-4.9,41.8-23.6,54.1-27.9c16.8-5.8,58-0.1,89.5,12.4
		c20,7.9,43.8,21.5,67,38.3c15.2,10.9,22.6,16.8,40.9,33c21.7,19.2,28.7,24.9,34.8,28.3c13.6,7.7,33.2,11.8,50.3,10.7
		c14.3-0.9,60.6-8.9,73.1-12.5c15.2-4.4,35.2-11.7,39.9-14.4c8-4.8,15.5-13.8,19.7-23.7c1.9-4.7,2.2-7.1,2.1-18.9
		c-0.1-16-2.6-27.5-9.3-41.6c-4.2-9.1-14.2-24.7-20.7-32.3L738.5,389.7z M475.8,468.6c-37-2.5-56.3,27.9-39.9,62.9
		c9.2,19.5,27.5,35.3,48.1,41.6c5.8,1.8,10,2.3,18.5,2.4c10.1,0,11.5-0.2,17.2-2.9c12.6-5.8,21.1-18.2,22-32.5
		c1.2-17.5-7-35.5-23-50.7c-8.7-8.3-18.7-14.6-28.6-17.9C486.2,470.2,479.8,468.9,475.8,468.6z M496.6,622.4
		c-30.8-0.4-34.4-0.3-37.1,1.2c-4.4,2.5-5.4,4.4-5.5,10.1c0,9.7,3.4,14.6,11.4,16.4c10.3,2.2,43.1,6.6,44,5.7
		c0.6-0.4,6.2-0.8,12.5-0.9c6.4-0.1,12.7-0.4,14.1-0.8c4-1,6.5-7.2,6.5-15.8c0-8-1.6-10.7-8.2-13.8
		C531.3,623,525.7,622.7,496.6,622.4z"/>
	<path id="path38" fill="#48D1CC" d="M510.7,498.3c14.8,15.9,19.1,36.9,9.9,49c-10.3,13.6-28.9,15.9-49.1,6.2
		c-9-4.4-15.3-9.9-20.8-18.3c-6.5-10-8.9-16.4-9.4-25.7c-0.5-6.9-0.2-8.9,1.7-13.3c2.5-5.7,8.3-11.6,13.7-13.8
		c1.9-0.8,6-1.9,9.1-2.4C481.8,477.6,497.2,483.8,510.7,498.3z"/>
	<path id="path40" fill="#48D1CC" d="M519.9,496.5c7,8,14.2,21.6,16.7,31.5c1.4,5.4,1.4,7.6,0.5,13.4c-1.6,9.6-4.1,14.7-10.1,20.6
		c-13.3,13.4-31.1,14.5-53.5,3.3c-9.4-4.7-12.5-7.1-12.5-9.3c0-3.2,1.9-3.3,6-0.5c7.1,4.9,18.1,7.8,30.6,7.9
		c10.4,0.1,11.4-0.1,17-2.9c6.5-3.4,11.4-9.4,13.6-16.8c1.4-4.7,1.7-19.8,0.5-23.9c-0.4-1.5-4-7.1-8.1-12.5
		c-8.1-10.8-11-15.8-10-17.4C511.7,488.1,513.6,489.4,519.9,496.5z"/>
	<path id="path42" fill="#2F4F4F" d="M497.6,629.1c28.6-0.1,32.2,0.5,37.6,5.6c3.2,3,3.5,5.1,1.3,9.2c-2.5,4.9-5.5,5.5-27.8,4.8
		c-29.2-0.8-43.9-3.8-45.3-9.1c-1.1-4.4,0.3-7.3,4.3-8.9C470.8,629.4,476.3,629.1,497.6,629.1z"/>
	<path id="path44" fill="#2F4F4F" d="M51.7,393.2c1.7,2.3,8.6,21.9,7.9,22.5c-0.3,0.3-3-0.6-5.9-2c-6.4-3.3-9.4-3.4-13.8-0.4
		c-4.5,3-10.6,15-11.9,23.7c-3.2,20.6,0.7,48.2,9.1,65.5c11.8,24.3,22.8,27.9,34.9,11.6c2.2-3,4.3-6.9,4.6-8.8
		c0.3-1.8,1.1-3.3,1.6-3.3c1.3,0,6.8,12.4,6.8,15.5s-3.9,11-7.6,15.4c-8.5,10.1-22.6,8.4-32.4-4c-11.8-15-19.3-35.3-22.5-61.3
		C19,439,22.1,417.3,32,401.1c1.8-2.9,4.7-6.2,6.4-7.2C42,391.7,50.3,391.3,51.7,393.2z"/>
	<path id="path46" fill="#008B8B" d="M44.1,416c2,0,2.2,0.5,3.9,10.4c0.5,3.3,1.1,6,1.2,6c0.2,0.1,1.5,1.2,3,2.4l2.6,2.4l4-3.6
		l4-3.7l2.1,3c3,4.2,3.5,8.1,1.7,12.4c-1.2,3.1-1.3,4.8-0.5,9.5c1.6,8.6,5,19.4,7.1,22.4c1.9,2.8,4.2,13.4,3.2,14.9
		c-0.7,1.2-4.1,1.1-6.6-0.2c-1.6-0.9-2.4-0.7-3.9,0.8c-2.3,2.3-2.6,8.8-0.9,18.6c1.1,6.3,1.1,6.9-0.6,8.2c-4,3-5.8,2-8.4-4.9
		c-1.1-2.8-2.3-4.2-4.2-4.7c-1.5-0.4-4-1.6-5.6-2.8c-1.6-1.1-3.2-1.8-3.5-1.5c-0.2,0.3-1.5-1-2.8-2.8c-2-2.7-2.4-4.6-2.4-10.3
		c0-3.9-0.3-7.5-0.7-8c-0.3-0.6-1.1-5.5-1.8-11c-0.6-5.5-2.3-13.8-3.6-18.4c-3-10.5-3-10.5,0.6-9.8c2.7,0.6,3.2,0.3,5.1-3.6
		c1.7-3.2,2.3-6.5,2.5-13.6c0.2-5.2,0.9-10,1.5-10.7C41.7,416.6,43.1,416,44.1,416z M39.5,465.5c0.1,7,0.6,10.3,2.4,14.8
		c4,10.2,8.6,13.7,14.2,10.6c4-2.1,7.8-16.7,6.7-25.4c-1-7.2-4.8-15.5-8.9-19C45.5,439.5,39.5,447.5,39.5,465.5z"/>
	<path id="path48" fill="#191970" d="M48.2,449c2.2,0,4.9,2.3,6.7,5.8c2.8,5.4,6.1,17.1,5,17.8c-0.5,0.3-0.9,2.2-0.9,4.2
		c0,5-3.3,10.2-6.4,10.2c-4.2,0-8.1-4.3-10-10.8c-2.7-9.9-1.6-20.3,3-25.3C46.5,449.9,47.7,449,48.2,449z"/>
	<path id="path50" fill="#48D1CC" d="M790.4,431.1c11.2,12.5,22.4,40.8,19.6,49.5c-1.7,5.2-5.2,4.7-11.2-1.7
		c-13.6-14-24.7-40-22.4-52.2C777.5,420.8,782.6,422.4,790.4,431.1z"/>
	<path id="path52" fill="#F4A460" d="M333.4,504.9c5.8,2.8,13.6,9.5,12.5,10.6c-0.3,0.3-5.9,1.6-12.5,2.9
		c-6.6,1.4-13.9,3.2-16.2,4.1c-5.7,2.3-12,9.7-17.5,20.2c-9.1,17.7-11.9,32.5-11.8,61.5c0,21.8-0.3,23.2-6.5,24.4l-3.1,0.6
		l-1.6-15.9c-4.1-38.2-1-64.9,9.9-88c6.1-12.8,14.4-21,23.7-23.4C316.4,500.3,326.9,501.7,333.4,504.9z"/>
	<path id="path54" fill="#808000" d="M107.4,508c1.3,0,16.5,8.5,33.8,18.9c17.2,10.3,43.5,25.5,58.3,33.6
		c54.2,29.6,53.5,29.2,55.8,34.3c1.3,3,2.2,7.7,2.5,13.5l0.5,8.9l-2.4-1.2c-13.1-6.9-50-28.9-107.1-63.8
		c-33.5-20.5-44.4-27.7-45.7-30.1c-1.6-2.8-1.4-7.7,0.4-11.1C104.6,508.9,105.8,508,107.4,508z"/>
	<path id="path56" fill="#808000" d="M88.7,519c0.1,0,15.9,9.8,17.2,10.7c0.2,0.2,0.2,0.5,0,0.7c-0.7,0.7-26.9,7.5-26.9,7
		c0-0.3,2.1-4.5,4.8-9.4C86.4,523.1,88.6,519,88.7,519z"/>
	<path id="path58" fill="#808000" d="M350.6,522c2.4,0,6.4,4.3,13.2,14.2c13.3,19.6,21.5,36.2,31.2,62.8c2.8,8,10.3,27.8,16.5,44
		c14.9,39.1,14.1,36.7,17.9,51c1.8,6.9,4.1,14.2,5,16.3l1.7,3.9l-4.3,4.2c-5.4,5.4-10.7,7.4-35.1,13.2c-10.6,2.4-20,4.7-21,5
		c-1.3,0.4-0.4-1.5,2.9-6.3c12.5-18.1,17.4-38.4,17.4-71.6c0-27.8-3.7-50.8-12.2-75.7c-8.6-25.3-20.8-44.5-35.3-55.8
		c-2.9-2.3-2.9-2.4-1.1-3.8C348.5,522.6,349.9,522,350.6,522z"/>
	<path id="path60" fill="#2F4F4F" d="M342.8,529.5c15.4,7,34.5,38,42.5,69c5.5,21.1,8.9,61.7,6.9,81.7
		c-5.1,51.4-34.8,74.6-61.7,48.2c-2.9-2.8-8-9.3-11.4-14.4c-16.2-24.3-24.1-50.2-27.6-91.4c-2.7-30.9,0.3-52.9,9.8-73
		c6.5-13.6,13-20.2,22.4-22.6C329.1,525.7,336.6,526.7,342.8,529.5z M321.3,556.1c-10.3,5.1-16.9,18.3-20.8,41.9
		c-4.4,26.2,2.8,68.2,15.7,92c8.4,15.4,16.5,24,25.2,26.5c5.9,1.8,6,1.8,10.9,0.4c11.5-3.1,21.1-21.4,23.9-45
		c2.2-18.5-1.5-49.9-8.4-70.9c-7.1-21.9-19-38.9-31.1-44.6C330.3,553.5,326.7,553.4,321.3,556.1z"/>
	<path id="path62" fill="#008B8B" d="M328.5,563.2c0.2,1.3,1.1,6.4,1.9,11.4c0.9,5,1.9,10,2.3,11.1c1.2,3.1,7.4,9.7,8.1,8.6
		c2.3-3.4,10.6-13.3,11.2-13.3c1.3,0,5.9,9.6,7.5,16l1.7,6.5l-3.6,10.9c-4.1,12.5-4.2,12.6-1.9,19.5c1.2,3.9,3.1,6.6,7.6,10.9
		c7.6,7.4,8.7,10,8.7,21.2c0,4.9-0.1,9-0.3,9c-0.2,0-2.3-1-4.7-2.1c-2.4-1.2-5.7-2.2-7.3-2.3c-2.5-0.1-3.2,0.4-4.3,3.4
		c-1.7,4.7-1.7,16,0.1,24c2.6,11.9,1.7,14-6.7,15.5l-3.7,0.7l-2-7c-1.2-3.8-2.8-7.6-3.7-8.3c-0.9-0.7-2.9-3.8-4.4-7
		c-4.1-8-7.5-9.1-10.6-3.4c-1,1.9-2.1,3.5-2.4,3.5c-0.6,0-7.3-11.5-8.4-14.4c-0.4-1.1-0.9-9.8-1.1-19.3c-0.5-16.9-0.6-17.5-4-26.2
		c-1.9-4.9-3.9-10.9-4.5-13.3c-1.3-5.7-1.3-16.8,0-16.8c0.6,0,2.8,0.9,5,2c5.2,2.7,7.6,2.5,9.7-0.6c1.5-2.4,1.6-3.9,0.5-16.7
		c-0.7-7.8-1.5-15.4-1.8-16.9c-0.5-2.2,0-3.4,2.4-5.8C323.5,560.3,327.7,559.9,328.5,563.2z M330.3,602c-3.8,0-8.7,5.6-10.9,12.5
		c-2.6,8.1-2.6,26.5,0,34.7c1.9,6.4,8.3,16.7,12.3,19.8c5.7,4.5,12.5,1.4,17-7.8c2.5-5.2,2.8-6.7,2.8-16.2c0-9.8-0.3-11.3-4.5-23.5
		c-4.4-12.8-4.6-13.1-9.4-16.3C335,603.5,331.7,602,330.3,602z"/>
	<path id="path64" fill="#191970" d="M337.4,612.1c3.7,2.9,6,7.8,8.9,19.6l2.6,10.2l-2.5,9.1c-1.3,5-2.9,10-3.5,11.1
		c-1.6,3.1-5.4,4.1-9.3,2.5c-7.8-3.2-12.8-15.4-13-31.1c-0.1-11.8,1.2-16.2,6-20.5C330.7,609.5,333.7,609.2,337.4,612.1z"/>
	<path id="path66" fill="#2F4F4F" d="M819.3,597.7c2.2,1.2-7.9,12.4-16.8,18.8c-9.3,6.7-20,11.6-46,21c-30.3,11-77.1,26.6-91.8,30.5
		c-25,6.6-92.6,17-110.2,16.9h-5l5-4.4c5.9-5.3,15.8-10.7,23.5-12.9c5.1-1.4,69.8-15.3,89-19.1c25.7-5.1,44.5-10.4,89.5-25.4
		c26.6-8.9,35.8-12.5,47.5-18.4C812,600.6,818.8,597.5,819.3,597.7z"/>
	<path id="path68" fill="#808000" d="M809.5,623.9c-3.6,6.6-10.7,13.3-25,23.5c-27.6,19.7-51.6,29.1-135.5,53.2
		c-45.7,13.2-53.7,14.9-86.6,19.4c-16.4,2.2-31.4,4.3-33.1,4.5l-3.3,0.6l7.4-14.2c4.8-9.2,8.3-14.7,9.8-15.5
		c2.4-1.2,11-2.4,36.8-4.9c19-1.9,52.4-7.5,68.5-11.6c22.1-5.5,130.8-43.4,144-50.2c2.8-1.4,8.2-4.8,12-7.5
		C812.5,615.5,813.7,616.1,809.5,623.9z"/>
	<path d="M241.6,104c0.3,0,6.8,12.8,14.5,28.4c7.7,15.6,14.6,29,15.5,29.7c1.2,1,5.6,1,23.2-0.2c30.8-2,79.2-1.8,101.2,0.4
		c81.5,8.2,113.1,18.6,157.5,52.1c10.5,7.8,47.8,44.6,52.2,51.3c3.9,6.1,6.5,7.7,16.1,9.7c9.2,1.9,13.8,4.4,19.4,10.4
		c6.5,7,8.2,11.2,7.2,18.7c-1.3,11.2-0.9,13.4,4,23.1c2.6,5.1,5.9,10.3,7.4,11.7s7,4.1,12.2,6c19,7,35.8,15.9,50.9,27.1
		c4.7,3.5,13.8,8.9,20.1,11.9c10.7,5.2,12.6,6.5,28.2,20.6c23,20.8,31.8,31.5,37.9,46.1c1.5,3.6,4.8,15.9,7.3,27.5
		c4.9,22,6.6,27.3,9.8,30.2c2.6,2.4,6.2,9.6,8.2,16.3c1.3,4.5,1.5,9.4,1.2,27c-0.5,21.3-1.1,26.7-4.3,36.5
		c-3.1,9.7-13.4,32.7-17.5,39.2c-8.6,13.6-38,34.6-63.8,45.4c-9.6,4.1-78.4,27.5-100,34c-33.3,10.1-49.5,13.5-100,20.4
		c-30.1,4.1-42.6,5.1-52.2,3.8c-8.9-1.2-39.9-8.4-46.8-10.8c-6.1-2.2-7.4-1.9-12.4,2.4c-6.4,5.6-12.3,7.5-46.6,14.9
		c-35.5,7.6-40.6,8-49.3,4c-11.2-5.3-25.9-22.1-34.7-39.8c-6.8-13.6-15.1-40.9-18.1-59.3c-1.1-7.3-1.3-7.8-3.3-7.2
		c-1.2,0.4-3.9,0.9-6.1,1.2c-4.5,0.5-8.1-1.6-18.8-10.5c-3.1-2.7-10.1-7.3-15.5-10.3c-14.4-7.9-98.2-57.6-117.6-69.7l-16.8-10.6
		l-5.2,1.2c-2.8,0.6-10,2.3-16.1,3.7c-14,3.3-23.9,4.1-30.2,2.6C45.6,539.4,34,524,24.4,495.3c-5.8-17.3-7.6-28.8-7.9-52.3
		c-0.2-11.3-0.6-25.7-1-32c-1-18.1,2.6-47.4,7.4-60c5.5-14.3,18.2-29.6,29.8-35.8c3.3-1.7,9.6-4.1,13.8-5.1c4.2-1.1,8.5-2.7,9.6-3.6
		c1-1,3.2-6.2,4.9-11.7c10.5-33.8,26.5-59.2,56-88.9c17.5-17.7,26.2-22.4,53.2-28.8c24-5.8,39.6-8.8,55.2-10.6
		c7.6-0.8,14.2-1.8,14.7-2.1c1.8-1,0.8-4.4-9.1-30.7c-5.5-14.7-10-27.4-10-28.2C241,104.7,241.3,104,241.6,104z M321.5,166
		c-46.2,1.3-65.2,3.2-107.5,11c-44,8.1-54.7,13.6-84.1,43.1c-13,13.1-17.4,18.8-15.5,20.6c0.2,0.2,6-5.2,12.7-12.2
		c17.8-18.2,27.6-25,43.9-30.3c20.6-6.7,48.1-4,65.9,6.5c13.9,8.2,30.6,28.8,41,50.7c10.3,21.5,21.8,54.6,29,83.6
		c4.8,19.6,13.2,56.3,12.8,56.6c-0.1,0.1-6.1-1.3-13.2-3.2c-7.2-1.9-13.5-3.2-14.1-3c-1.5,0.6-6.2,16.7-7.9,27.5
		c-1.6,10.5-3.9,38.9-3.3,41.8c0.3,1.2,1.5-0.2,3.8-4.7c4.1-7.6,8.1-11.6,20.5-20.6c9.3-6.7,25.4-15.4,28.4-15.4
		c3.3,0,5.4-3.6,4.6-7.7c-0.4-2.1-1.1-6.1-1.5-8.8c-0.5-2.8-1.2-7-1.6-9.4c-0.6-4-0.5-4.6,1.9-6.5l2.7-2.1l-9.5-30.5
		c-20.1-64.3-28.9-88.8-44.9-124.2c-2.9-6.5-3.7-5.7,8.4-8.2c42-8.6,94.9-16.3,128.4-18.7c21.8-1.5,75.5-0.6,92.1,1.5
		c6.6,0.9,12.1,1.6,12.3,1.6c0.1,0,0.2-0.6,0.2-1.3c0-3-23.2-13.9-44.5-20.8c-26.6-8.6-47.7-12.3-87-15.3
		C368,165.4,353,165.1,321.5,166z M177.3,203.8c-6.8,5.9-9.5,14.2-25.3,78.4c-9.4,37.8-10.2,42-9,44.3c0.8,1.4,1.6,2.2,2,1.8
		c0.3-0.5,1.9-7.3,3.4-15.3c4.1-21.3,11-48.3,17.1-66.5c5.1-15.5,14.7-39.7,16.7-42.2c0.5-0.7,0.7-1.7,0.3-2.3
		C181.6,200.5,180.8,200.8,177.3,203.8z M201.4,203.5c-3.1,3.1-13.7,25.4-17.5,36.8c-2.8,8.7-21.9,83.4-21.9,85.9
		c0,0.8,10.8,5.4,28.8,12.1c15.9,5.9,29.2,10.7,29.5,10.7c0.4,0,0.6-4,0.6-8.9c-0.1-20.6,8.9-27.3,40.8-30.3
		c9.7-0.9,12.8-0.8,15.3,0.2c8.8,3.7,13.4,22,9.6,38.3c-1.3,5.3-1.3,5.8,0.4,6.7c3.7,2,5.1,1.1,7.8-4.8c3.5-7.5,4.2-21.5,1.7-31.2
		c-1.8-7.1-20.8-54.7-25.7-64.4c-8.2-16.5-23.1-34.5-35.6-43.1c-3.8-2.5-10.6-5.9-15.3-7.5C209.3,200.3,204.8,200.1,201.4,203.5z
		 M193.1,202c-4.4,0-20.6,39.3-28.5,69c-5.4,20.4-13.1,60.9-11.8,62.2c0.4,0.3,6.8,2.7,14.2,5.3c16.6,5.8,88.9,31,106.3,37.1
		c11.7,4.1,14.7,4.6,14.7,2.5c0-1.4-7.8-4.5-38-14.6c-16.8-5.7-35.4-12.1-41.5-14.3c-42.3-15.1-48.7-17.6-49.5-19.2
		c-2-3.7,5.1-35.4,17.7-79.5c4.9-17,7.2-23.6,13.4-38.2c2.1-5.1,3.9-9.4,3.9-9.7C194,202.2,193.6,202,193.1,202z M163.4,207.4
		c-24.9,9.2-53.7,40.6-68.4,74.5c-7.2,16.7-8.8,15,33.2,36.6c5.3,2.7,9.9,4.7,10.2,4.5c0.3-0.3,2.6-10.5,5.1-22.5
		c9.4-44.8,15.3-64.8,26.9-91.8C172.3,204.3,172,204.2,163.4,207.4z M438.5,207.1c-42.7,1.6-60.4,3.8-131.5,16.4
		c-7.9,1.4-14.6,2.5-14.7,2.5c-1,0,0.5,4.1,6.3,16.8c12.8,28.3,19.2,45.8,36.9,101.4c5.9,18.3,11.3,34.4,12.1,35.9
		c2.2,4.3,5.9,5,21.8,3.9c7.7-0.5,32.1-1.4,54.1-2c50.3-1.3,62.5-2.4,105-9.1c10.5-1.6,26.4-4.1,35.5-5.5
		c24.6-3.8,49.5-8.3,58.5-10.5c14.7-3.7,34-9.1,34.7-9.8c1.7-1.5-17.9-28.5-39.2-53.8c-30.5-36.5-65.2-70.8-80.8-80
		c-4.3-2.5-21.2-4.9-44.2-6.4C476.7,205.9,467.3,206,438.5,207.1z M621.7,284.3c0.4,0.7,5.1,6.9,10.3,13.7c9.3,12.1,9.5,12.3,9.8,9
		c0.8-7.5-6.4-18.5-14.3-22.1C622.7,282.7,620.6,282.5,621.7,284.3z M98.9,310.6L84.2,303l-1.7,2.7c-2.9,4.4-2.9,9.9,0.4,28.8
		c1.7,9.9,5.1,31.3,7.6,47.5c2.5,16.2,6.6,41.6,9,56.5c2.4,14.8,5.1,32.8,6,40c2,15.5,4.8,22.6,11,28.4c4.4,4.1,12.3,8.7,13.2,7.7
		c0.3-0.3,0-5.6-0.6-11.8c-3.1-31.6-6.4-81.5-6.5-98.3c-0.1-17.1,0.3-21.7,3.8-46.1c2.1-15,3.6-28.2,3.3-29.5
		c-0.5-1.7-2.9-3.6-8.4-6.5C117,320.1,106.9,314.8,98.9,310.6z M66.5,314.9c-17,4.9-31.4,18.7-38.4,37.1c-1.6,4.1-3.2,9.4-3.6,11.7
		l-0.6,4.1l6.8-0.1c7.7-0.1,11.1,1.3,15.9,6.5c4.1,4.3,5,6.1,12.7,26.3C70.6,430.3,73.7,442,80,479.9c2.3,13.4,4.8,26.2,5.7,28.3
		c1.4,3.5,7.3,9.8,9.3,9.8c0.4,0,3.1-4.3,5.9-9.5l5-9.5l-8-49.3c-4.3-27-10.8-67.7-14.4-90.2c-3.6-22.6-6.8-42.2-7.1-43.8
		C75.8,312.5,74.9,312.5,66.5,314.9z M254.5,318c-14.7,1.7-25.2,8.5-26.2,17.1c-0.6,5.5,1.5,10.2,5.5,12.3c1.5,0.8,9.4,2.5,17.4,3.7
		c12.8,2,15.4,2.1,20.2,1c6.8-1.5,11.3-5.1,12.1-9.4c0.6-3.2-1.5-14.5-3.7-20c-0.6-1.5-2.3-3.4-3.9-4.2
		C272.9,316.9,265.1,316.7,254.5,318z M136.8,330c-0.3,0-2,5.5-3.8,12.2c-2.8,10.6-3,12.7-2.1,15.9c1.4,4.8,4.9,7.5,12,9.5
		c6.4,1.8,10.1,5.2,10.1,9.3c0,2.2-0.7,3.1-2.9,4.1c-2.6,1.1-3.9,0.8-12.5-2.9c-5.3-2.3-9.8-4.1-10.1-4.1c-0.9,0-0.5,62.8,0.5,82
		c1.6,29.7,4.6,57.7,6.7,61.3c1.4,2.3,6.3,5.5,19.8,13c22.2,12.2,97.4,52.4,99.6,53.2c1.5,0.6,1.7-1.8,2.2-23.7
		c0.6-30.6,2.3-40.7,11.1-67.1c6.1-18,8.6-28.8,10.1-43.2c1.7-15.5,4.8-39.2,6.7-50.4c2-12,2-12.4,0.2-14.1
		c-1.1-1-11.8-5.2-23.9-9.3c-24.1-8.3-67.5-23.5-82.5-29c-5.2-1.9-16.5-6.4-25.1-10.1C144.3,333,137,330,136.8,330z M302.4,340.1
		c-0.8-0.8-3.5,7.3-4.1,12c-0.3,2.7,0,9,0.7,13.9c1.4,9.5,1.1,9.2,7.8,10.5c3.1,0.6,3.2,0.5,2.8-1.7c-0.3-1.2-1.9-9.5-3.7-18.3
		C304.2,347.7,302.6,340.3,302.4,340.1z M667.3,350.1c-1.5,0.1-10.7,2.7-20.3,5.9c-17.8,5.9-40.7,11.1-74,16.9
		c-21,3.7-30.7,4.8-82,10c-52.8,5.4-60.9,5.9-93,6.6c-25.3,0.5-52.2,2-56.1,3.1c-1.5,0.4-1.5,1.1,0,8.2c1.5,7.2,1.8,7.7,4.1,7.5
		c1.4-0.2,10.8-0.6,21-0.9c14.7-0.5,20.8-0.3,29.8,1c34.3,5.1,73.6,20.5,103.6,40.7c13.2,8.9,22.8,16.6,45.3,36.8
		c38.8,34.7,42.7,37.7,55.2,42.7c12.3,5,18.6,5.3,44.1,2.4c34.3-3.9,57.5-8.5,77.5-15.4c25.2-8.6,30.1-11.1,36.9-18.7
		c6.8-7.6,9.1-15.6,9-31.9c0-11.3-0.3-13.4-3.2-21.7c-9.2-27-30-55.8-52-72.1c-9.3-6.9-24.5-14.9-35.4-18.6
		C673.6,351.2,668.9,350,667.3,350.1z M266.5,358.9l-2.9,0.6l2.8,2.2c3.4,2.7,11.1,5.7,18.9,7.3c7.3,1.5,8.8,1,7.8-2.6
		c-1-3.8-4.6-6.2-11-7.4C276.3,357.9,271.2,357.9,266.5,358.9z M23,382.4c-1.3,6.4-3.9,31.8-3.3,32.8c1,1.9,2.2,0.4,4.3-5.1
		c4.9-13.1,12.4-21.5,20.4-22.8c2-0.3,3.8-0.9,4.1-1.2c0.7-1.2-7.4-10.6-10.7-12.4C30.9,370,24.9,373.5,23,382.4z M742,390.5
		l-3.5-0.8l3.8,4.4c6.5,7.6,16.5,23.2,20.7,32.3c6.7,14.1,9.2,25.6,9.3,41.6c0.1,11.8-0.2,14.2-2.1,18.9
		c-4.2,9.9-11.7,18.9-19.7,23.7c-4.7,2.7-24.7,10-39.9,14.4c-12.5,3.6-58.8,11.6-73.1,12.5c-17.1,1.1-36.7-3-50.3-10.7
		c-6.1-3.4-13.1-9.1-34.8-28.3c-18.3-16.2-25.7-22.1-40.9-33c-23.2-16.8-47-30.4-67-38.3C413,414.7,371.8,409,355,414.8
		c-12.3,4.3-48.6,23-54.1,27.9c-10.4,9.5-20.9,28.3-28.2,50.8c-10.2,31.5-11.8,41.4-11.8,76.3c0.1,37.3,2.6,51.5,10.2,56.1
		c1.8,1.1,3.4,1.9,3.6,1.7c0.1-0.1-0.7-4.7-1.8-10.2c-3-14.6-3.7-40.6-1.5-54.9c3.3-21.3,7.4-34.8,14.7-48.5
		c9.6-17.9,21.1-23.1,40.9-18.4c9.5,2.2,13.5,5,24.2,17.1c22.2,24.9,35.1,45.6,41.7,66.8c1.7,5.5,5.1,15.2,7.6,21.5
		c2.4,6.3,10.2,27.5,17.3,47c18.9,51.9,19.3,52.8,23.3,57.4c4.2,4.7,13,8.8,29.5,13.5c16.8,4.9,41,6.5,47.1,3.3
		c1-0.6,5.6-7.7,10.2-15.9c16-28.4,22.3-36.2,32.7-41c7.1-3.2,31.4-9.3,78.9-19.8c95.7-21.1,132.3-32.1,168.7-50.7
		c21.9-11.1,21.7-10.6,21.4-44.3c-0.2-24.1-0.3-25.2-2.5-29.5c-1.3-2.5-3.4-5.8-4.7-7.3s-4.5-6.9-7-11.8c-4.8-9.3-8.5-13-14.7-14.4
		c-2.8-0.7-9.8-7.8-14.9-15.3c-7.7-11.2-15.8-34.1-15.8-44.7c0-3.3,0.7-6.2,2-8.3l2.1-3.3L770,411c-6.3-7.5-15.3-15.5-20.1-17.7
		C747.5,392.2,743.9,390.9,742,390.5z M38.4,393.9c-1.7,1-4.6,4.3-6.4,7.2c-9.9,16.2-13,37.9-9.5,66.5c3.2,26,10.7,46.3,22.5,61.3
		c9.8,12.4,23.9,14.1,32.4,4c3.7-4.4,7.6-12.3,7.6-15.4S79.5,502,78.2,502c-0.5,0-1.3,1.5-1.6,3.3c-0.3,1.9-2.4,5.8-4.6,8.8
		c-12.1,16.3-23.1,12.7-34.9-11.6c-8.4-17.3-12.3-44.9-9.1-65.5c1.3-8.7,7.4-20.7,11.9-23.7c4.4-3,7.4-2.9,13.8,0.4
		c2.9,1.4,5.6,2.3,5.9,2c0.7-0.6-6.2-20.2-7.9-22.5C50.3,391.3,42,391.7,38.4,393.9z M41.1,417.4c-0.6,0.7-1.3,5.5-1.5,10.7
		c-0.2,7.1-0.8,10.4-2.5,13.6c-1.9,3.9-2.4,4.2-5.1,3.6c-3.6-0.7-3.6-0.7-0.6,9.8c1.3,4.6,3,12.9,3.6,18.4c0.7,5.5,1.5,10.4,1.8,11
		c0.4,0.5,0.7,4.1,0.7,8c0,5.7,0.4,7.6,2.4,10.3c1.3,1.8,2.6,3.1,2.8,2.8c0.3-0.3,1.9,0.4,3.5,1.5c1.6,1.2,4.1,2.4,5.6,2.8
		c1.9,0.5,3.1,1.9,4.2,4.7c2.6,6.9,4.4,7.9,8.4,4.9c1.7-1.3,1.7-1.9,0.6-8.2c-1.7-9.8-1.4-16.3,0.9-18.6c1.5-1.5,2.3-1.7,3.9-0.8
		c2.5,1.3,5.9,1.4,6.6,0.2c1-1.5-1.3-12.1-3.2-14.9c-2.1-3-5.5-13.8-7.1-22.4c-0.8-4.7-0.7-6.4,0.5-9.5c1.8-4.3,1.3-8.2-1.7-12.4
		l-2.1-3l-4,3.7l-4,3.6l-2.6-2.4c-1.5-1.2-2.8-2.3-3-2.4c-0.1,0-0.7-2.7-1.2-6c-0.6-3.2-1.3-6.9-1.5-8.2
		C45.9,415.7,42.9,415.2,41.1,417.4z M776.4,426.7c-0.9,4.8,1,14.9,4.7,24.4c5.6,14.6,19.6,32.9,25.1,32.9c6,0,5.6-10.4-1-27.4
		c-5.7-14.7-15.4-28.6-22.3-32.1C778.5,422.2,777.2,422.6,776.4,426.7z M310.3,501.9c-9.3,2.4-17.6,10.6-23.7,23.4
		c-10.9,23.1-14,49.8-9.9,88l1.6,15.9l3.1-0.6c6.2-1.2,6.5-2.6,6.5-24.4c-0.1-29,2.7-43.8,11.8-61.5c5.5-10.5,11.8-17.9,17.5-20.2
		c2.3-0.9,9.6-2.7,16.2-4.1c6.6-1.3,12.2-2.6,12.5-2.9c1.1-1.1-6.7-7.8-12.5-10.6C326.9,501.7,316.4,500.3,310.3,501.9z M107.4,508
		c-4.3,0-7,9.1-4.3,14.1c1.3,2.4,12.2,9.6,45.7,30.1c57.1,34.9,94,56.9,107.1,63.8l2.4,1.2l-0.5-8.9c-0.3-5.8-1.2-10.5-2.5-13.5
		c-2.3-5.1-1.6-4.7-55.8-34.3c-14.8-8.1-41.1-23.3-58.3-33.6C123.9,516.5,108.7,508,107.4,508z M88.7,519c-0.3,0-9.7,17.8-9.7,18.4
		c0,0.5,26.2-6.3,26.9-7c0.2-0.2,0.2-0.5,0-0.7s-4.1-2.6-8.7-5.5C92.6,521.3,88.8,519,88.7,519z M347.4,523.4
		c-1.8,1.4-1.8,1.5,1.1,3.8c28.4,22.1,47.5,75,47.5,131.5c0,33.2-4.9,53.5-17.4,71.6c-3.3,4.8-4.2,6.7-2.9,6.3c1-0.3,10.4-2.6,21-5
		c24.4-5.8,29.7-7.8,35.1-13.2l4.3-4.2l-1.7-3.9c-0.9-2.1-3.2-9.4-5-16.3c-3.8-14.3-3-11.9-17.9-51c-6.2-16.2-13.7-36-16.5-44
		c-6.7-18.5-11.7-29.9-18.7-42.5c-7-12.5-18.7-29.9-22-32.5C351.3,521.6,350,521.5,347.4,523.4z M317.2,529.4
		c-5.1,2.6-11.3,10.6-15.9,20.2c-9.5,20.1-12.5,42.1-9.8,73c3.5,41.2,11.4,67.1,27.6,91.4c15.3,22.8,31,30.5,45.8,22.5
		c14.6-8,24.5-28.5,27.3-56.3c2-20-1.4-60.6-6.9-81.7c-8-31-27.1-62-42.5-69C334,525.5,324.8,525.5,317.2,529.4z M819.3,597.7
		c-0.5-0.2-7.3,2.9-15.3,7c-11.7,5.9-20.9,9.5-47.5,18.4c-45,15-63.8,20.3-89.5,25.4c-19.2,3.8-83.9,17.7-89,19.1
		c-7.7,2.2-17.6,7.6-23.5,12.9l-5,4.4h5c17.6,0.1,85.2-10.3,110.2-16.9c26.7-7.1,109-35.8,123.8-43.2c13.2-6.6,26.5-17.3,30.4-24.6
		C819.5,599.1,819.7,597.9,819.3,597.7z M804.5,621.2c-3.8,2.7-9.2,6.1-12,7.5c-13.2,6.8-121.9,44.7-144,50.2
		c-16.1,4.1-49.5,9.7-68.5,11.6c-25.8,2.5-34.4,3.7-36.8,4.9c-1.5,0.8-5,6.3-9.8,15.5l-7.4,14.2l3.3-0.6c1.7-0.2,16.7-2.3,33.1-4.5
		c32.9-4.5,40.9-6.2,86.6-19.4c83.9-24.1,107.9-33.5,135.5-53.2c14.3-10.2,21.4-16.9,25-23.5C813.7,616.1,812.5,615.5,804.5,621.2z"
		/>
	<path d="M518.7,489.4c16,15.2,24.2,33.2,23,50.7c-0.9,14.3-9.4,26.7-22,32.5c-5.7,2.7-7.1,2.9-17.2,2.9c-8.5-0.1-12.7-0.6-18.5-2.4
		c-20.6-6.3-38.9-22.1-48.1-41.6c-7.1-15.2-7.8-30.1-2-41.9c5.5-11.2,15.3-18,29.4-20.6C481.2,465.9,502.1,473.5,518.7,489.4z
		 M456.7,482.4c-5.4,2.2-11.2,8.1-13.7,13.8c-1.9,4.4-2.2,6.4-1.7,13.3c0.5,9.3,2.9,15.7,9.4,25.7c8,12.2,20,20.1,35.8,23.3
		c6.6,1.3,9.1,1.4,14.7,0.5c12-2.1,21.5-10.6,23.8-21.4c4-19.6-14.3-46.8-37.4-55.5C478.3,478.6,465.3,478.7,456.7,482.4z
		 M510.6,489.9c-1,1.6,1.9,6.6,10,17.4c4.1,5.4,7.7,11,8.1,12.5c1.2,4.1,0.9,19.2-0.5,23.9c-2.2,7.4-7.1,13.4-13.6,16.8
		c-5.6,2.8-6.6,3-17,2.9c-12.5-0.1-23.5-3-30.6-7.9c-4.1-2.8-6-2.7-6,0.5c0,2.2,3.1,4.6,12.5,9.3c22.4,11.2,40.2,10.1,53.5-3.3
		c6-5.9,8.5-11,10.1-20.6c0.9-5.8,0.9-8-0.5-13.4c-2.5-9.9-9.7-23.5-16.7-31.5C513.6,489.4,511.7,488.1,510.6,489.9z"/>
	<path d="M496.6,622.4c37,0.4,38.2,0.6,43.5,6.2c2.1,2.2,2.4,3.6,2.4,9.7c0,8.6-2.5,14.8-6.5,15.8c-1.4,0.4-7.7,0.7-14.1,0.8
		c-6.3,0.1-11.9,0.5-12.5,0.9c-0.9,0.9-33.7-3.5-44-5.7c-8-1.8-11.4-6.7-11.4-16.4c0.1-5.7,1.1-7.6,5.5-10.1
		C462.2,622.1,465.8,622,496.6,622.4z M467.7,630.7c-4,1.6-5.4,4.5-4.3,8.9c0.8,3.2,4.7,4.9,16.3,6.9c12.2,2.2,48.1,3.2,52.3,1.5
		c3.2-1.3,6-5.4,6-8.8c0-2.6-4.8-6.9-9.9-8.7C521.7,628.3,473.2,628.4,467.7,630.7z"/>
	<path d="M62.8,465.5c1.1,8.7-2.7,23.3-6.7,25.4c-5.6,3.1-10.2-0.4-14.2-10.6c-4.2-10.7-2.4-32.1,2.9-35.3
		C51.7,441,61,451.5,62.8,465.5z M45.6,450.9c-8.8,9.7-3.7,36.1,7,36.1c3.1,0,6.4-5.2,6.4-10.2c0-2,0.4-3.9,0.9-4.2
		c1.1-0.7-2.2-12.4-5-17.8c-1.1-2.1-2.8-4.2-3.8-4.8C48.4,448.6,47.6,448.7,45.6,450.9z"/>
	<path d="M336.7,556.4c12.1,5.7,24,22.7,31.1,44.6c6.9,21,10.6,52.4,8.4,70.9c-2.8,23.6-12.4,41.9-23.9,45c-4.9,1.4-5,1.4-10.9-0.4
		c-8.7-2.5-16.8-11.1-25.2-26.5c-12.9-23.8-20.1-65.8-15.7-92c3.9-23.6,10.5-36.8,20.8-41.9C326.7,553.4,330.3,553.5,336.7,556.4z
		 M319.8,564c-2.4,2.4-2.9,3.6-2.4,5.8c0.3,1.5,1.1,9.1,1.8,16.9c1.1,12.8,1,14.3-0.5,16.7c-2.1,3.1-4.5,3.3-9.7,0.6
		c-2.2-1.1-4.4-2-5-2c-1.3,0-1.3,11.1,0,16.8c0.6,2.4,2.6,8.4,4.5,13.3c3.4,8.7,3.5,9.3,4,26.2c0.2,9.5,0.7,18.2,1.1,19.3
		c1.1,2.9,7.8,14.4,8.4,14.4c0.3,0,1.4-1.6,2.4-3.5c3.1-5.7,6.5-4.6,10.6,3.4c1.5,3.2,3.5,6.3,4.4,7c0.9,0.7,2.5,4.5,3.7,8.3l2,7
		l3.7-0.7c8.4-1.5,9.3-3.6,6.7-15.5c-1.8-8-1.8-19.3-0.1-24c1.1-3,1.8-3.5,4.3-3.4c1.6,0.1,4.9,1.1,7.3,2.3c2.4,1.1,4.5,2.1,4.7,2.1
		c0.2,0,0.3-4.1,0.3-9c0-11.2-1.1-13.8-8.7-21.2c-4.5-4.3-6.4-7-7.6-10.9c-2.3-6.9-2.2-7,1.9-19.5l3.6-10.9l-1.7-6.5
		c-1.6-6.4-6.2-16-7.5-16c-0.6,0-8.9,9.9-11.2,13.3c-0.7,1.1-6.9-5.5-8.1-8.6c-0.4-1.1-1.4-6.1-2.3-11.1c-0.8-5-1.7-10.1-1.9-11.4
		C327.7,559.9,323.5,560.3,319.8,564z"/>
	<path d="M337.6,605.2c4.8,3.2,5,3.5,9.4,16.3c4.2,12.2,4.5,13.7,4.5,23.5c0,9.5-0.3,11-2.8,16.2c-3.2,6.5-7.1,9.8-11.5,9.8
		c-3.9,0-7.2-2.7-12.1-10c-5.8-8.7-7.5-15.3-7.5-29c-0.1-13.9,1.9-21.7,6.9-26.7C328.7,601.1,331.5,601.1,337.6,605.2z M326.6,613
		c-4.8,4.3-6.1,8.7-6,20.5c0.2,15.7,5.2,27.9,13,31.1c3.9,1.6,7.7,0.6,9.3-2.5c0.6-1.1,2.2-6.1,3.5-11.1l2.5-9.1l-2.6-10.2
		c-2.9-11.8-5.2-16.7-8.9-19.6C333.7,609.2,330.7,609.5,326.6,613z"/>
</g>
</svg>
