<?xml version="1.0" encoding="utf-8"?>
<!-- Generator: Adobe Illustrator 21.0.0, SVG Export Plug-In . SVG Version: 6.00 Build 0)  -->
<svg version="1.1" baseProfile="tiny"
	 id="svg130" inkscape:version="0.92.2 5c3e80d, 2017-08-06" sodipodi:docname="10 #12763.svg" xmlns:cc="http://creativecommons.org/ns#" xmlns:dc="http://purl.org/dc/elements/1.1/" xmlns:inkscape="http://www.inkscape.org/namespaces/inkscape" xmlns:rdf="http://www.w3.org/1999/02/22-rdf-syntax-ns#" xmlns:sodipodi="http://sodipodi.sourceforge.net/DTD/sodipodi-0.dtd" xmlns:svg="http://www.w3.org/2000/svg"
	 xmlns="http://www.w3.org/2000/svg" xmlns:xlink="http://www.w3.org/1999/xlink" x="0px" y="0px" viewBox="0 0 850 850"
	 xml:space="preserve">
<sodipodi:namedview  bordercolor="#666666" borderopacity="1" gridtolerance="10" guidetolerance="10" id="namedview132" inkscape:current-layer="svg130" inkscape:cx="947.75665" inkscape:cy="613.15703" inkscape:pageopacity="0" inkscape:pageshadow="2" inkscape:window-height="978" inkscape:window-maximized="1" inkscape:window-width="1920" inkscape:window-x="0" inkscape:window-y="1" inkscape:zoom="0.58897835" objecttolerance="10" pagecolor="#ffffff" showgrid="false">
	</sodipodi:namedview>
<g id="g128" transform="translate(0.000000,0.000000) scale(1.00000,1.00000)">
	<path id="path4" fill="none" d="M0,0h425h425v425v425H425H0V425V0z M482.2,270.3c-5.5-0.5-6-0.4-8,2.1c-1.3,1.7-2.3,4.9-2.7,8.4
		c-1.4,12.8-3.5,21.6-5.5,23.6c-2.2,2.3-4.8,2.4-19.8,1.1c-6.7-0.6-9.1-0.4-12.8,1c-5.9,2.2-9.8,5.7-13.1,11.4
		c-3.7,6.5-7.1,9.9-11.2,11.2c-2,0.6-10.2,4.9-18.2,9.5c-8,4.6-14.8,8.4-15.2,8.4c-0.3,0-2.9-2-5.7-4.5c-5.5-4.9-9.7-5.8-13.8-3
		c-2,1.4-2.6,1.4-6.7,0c-3.5-1.1-5.6-1.3-8.8-0.5c-7.2,1.6-17.4,1.1-28.1-1.4c-5.5-1.4-11.8-2.8-13.8-3.1c-3.8-0.7-3.8-0.7-3.8-5.7
		c0-3.4,0.6-5.7,2.1-7.7c1.6-2.2,1.9-3.9,1.7-8.6c-0.4-7-0.8-7.3-13.3-7.4c-9.2-0.1-15.8,2.2-17,5.9c-0.9,2.8,0.2,3.8,7.8,7.5l6.2,3
		l-0.3,4.5c-0.2,2.4-0.4,4.6-0.6,4.8c-0.2,0.1-10.4-0.8-22.7-2.2c-12.3-1.4-28.2-3-35.4-3.7c-17.8-1.7-53-1.8-62.5-0.1
		c-32,5.7-57.3,22-75.4,48.6c-10.3,15.1-20.9,39.9-25.4,59.1l-1.9,7.9l-9.4,1.3c-11.5,1.7-19.2,3.8-21.4,5.9c-1.2,1.3-1.5,2.7-1,5.5
		l0.7,3.8l-4.9,0.6c-6.5,0.9-11.3,2.4-11.3,3.7c0,0.5,0.8,2.2,1.8,3.6c1,1.5,8.3,14.2,16.2,28.2c22,39.2,21.9,39,25.3,41.1
		c2.7,1.7,4.9,1.9,14.7,1.8l11.5-0.2l8.8,15.4c9.7,16.9,13.2,21.2,19.2,24c5.9,2.6,28.4,4.3,48.5,3.6c43.1-1.6,128-12.5,128-16.4
		c0-0.9,0.7-1.2,1.8-0.9c0.9,0.3,6,1,11.2,1.7c21.5,2.5,42.9-2.7,59.4-14.5c5.9-4.2,19.6-17.7,22.8-22.4l1.6-2.3l4.1,2
		c5.4,2.8,12,2.7,29-0.4c7.5-1.3,38.1-6.8,68.1-12c30-5.3,60.6-10.7,68-12c7.4-1.3,45.2-8.3,84-15.5c61.7-11.5,71.1-13.1,75-12.2
		c2.5,0.5,11.6,3,20.3,5.6c22.7,6.6,28.6,6.3,41.4-2.6c6.1-4.1,12.7-10.9,17-17.5c2.8-4.1,4.1-5.2,7.1-5.8
		c14.4-2.7,20-11.9,35.9-59.5c3.2-9.6,6.1-17.7,6.6-17.8c0.4-0.2,0.7-1.4,0.7-2.7c0-3.1-4-6.2-9-7c-2.2-0.4-4-1-4-1.4
		c0-0.8,8.6-57.9,9.5-62.9l0.6-3.2h-18.6c-16.2,0-21.5-0.4-41.3-3.5c-27-4.1-75.6-11.4-104.2-15.6c-24.1-3.5-24-3.5-24-6
		c0-1.8-0.8-1.9-14.9-1.9c-12.6,0-15,0.2-15.5,1.6c-0.9,2.5-2.9,30.1-2.3,31.8c0.3,0.8,2.5,2.7,4.9,4.2c2.4,1.4,5.6,3.8,7.1,5.3
		c3.4,3.1,7.1,9.8,5.8,10.5c-0.5,0.3-4.7-1.2-9.3-3.4c-14.7-6.9-43.8-14-57.2-14c-5.5,0-6.8-1.1-13.1-10.5
		c-8.5-12.9-16.8-18.4-29.9-20c-7-0.9-10.2,0.8-11.2,6c-0.3,1.9-0.9,3.5-1.1,3.5c-0.3,0-2.8-2.3-5.6-5.1c-3-3.1-7.7-6.4-11.4-8.1
		C490.6,272,485.6,270.6,482.2,270.3z"/>
	<path id="path6" fill="#00FFFF" d="M495.3,276.8c5.6,3,14.4,12.2,15.3,15.9c0.4,1.4,0.2,5.9-0.4,9.9c-0.8,6.1-1.6,8.1-4.2,11.1
		c-1.8,2-4.8,6.8-6.6,10.7c-1.9,3.9-4.2,7.7-5.1,8.3c-1.1,0.8-5.2,1.3-11.5,1.3c-11.3,0-10.2,1.1-11.7-12.8
		c-0.5-4.5-1.6-9.3-2.5-10.6c-1.5-2.3-1.4-2.8,0.9-7.3c1.9-3.6,2.8-7.7,3.8-16.8c1.1-10.7,1.5-12.1,3.5-13.1
		C480,271.8,489.3,273.5,495.3,276.8z"/>
	<path id="path8" fill="#00FFFF" d="M633.1,274h12.8l-1.1,3c-1.5,4.3-4,5.3-15.5,5.8l-10.3,0.5v-4c0-2.2,0.3-4.3,0.7-4.6
		C620,274.3,626.1,274,633.1,274z"/>
	<path id="path10" fill="#00008B" d="M653,279.3c3.6,0.3,17.1,2.2,30,4.1c12.9,2,31.2,4.8,40.5,6.2c9.4,1.3,31.2,4.6,48.5,7.2
		l31.5,4.7l-0.4,4.5c-0.1,2.5-0.5,4.8-0.7,5.1c-0.2,0.4-2.3,0.3-4.6-0.1c-2.4-0.5-13.1-2.2-23.8-3.9c-75.9-11.8-129-20.1-132-20.7
		l-3.5-0.6l4-3.5C646.4,278.9,646.7,278.8,653,279.3z"/>
	<path id="path12" fill="#1E90FF" d="M523.3,280.2c12.8,0.9,21.8,7.6,31.8,23.9c7.6,12.3,12.4,16.8,21.9,20.4
		c17,6.4,30.6,14.8,44.3,27.4l8.7,8.1h6.3c3.5,0,9,0.5,12.3,1.1c10.1,1.8,27.4,6,27.4,6.7c0,0.4-1.5,2.5-3.4,4.7l-3.4,4l-11.3-0.3
		c-14.4-0.4-22.1,1.2-51.1,10.7c-34.8,11.4-55,16-80.4,18.3l-13.1,1.2l-32.4-6.3c-47.2-9.2-47-9.1-24.9-11
		c39.4-3.6,72.5-7.3,73.8-8.4c1.2-0.9,1.3-3.2,0.8-12.2c-1.6-27.3-9.1-52.6-16.4-55.8c-1.5-0.6-2.9-1.2-3-1.3
		c-0.7-0.4,2.9-26.9,3.9-29.3C516,279.9,516.4,279.8,523.3,280.2z"/>
	<path id="path14" fill="#00FFFF" d="M624.8,286c1.6,0,59.9,8.5,89.7,13.1c14.3,2.2,31.9,4.9,39,5.9c7.2,1.1,20.8,3.4,30.4,5
		c9.5,1.7,17.5,3,17.7,3c0.2,0,0.4,0.7,0.4,1.5c0,2.7-2.3,2.4-59.5-7c-60.1-9.8-117.3-19.9-118.3-20.9
		C623.9,286.2,624.2,286,624.8,286z"/>
	<path id="path16" fill="#0000FF" d="M618.1,288.3l12.2,2.4c6.7,1.4,12.5,2.8,12.8,3.1c0.4,0.4,0.1,7.8-0.6,16.5
		c-1.7,19.6-3.5,23.1-7,13.5c-1.9-5.5-8.4-12.7-14.5-16.3c-4-2.3-4.5-4.1-3.5-13L618.1,288.3z"/>
	<path id="path18" fill="#00008B" d="M672.5,297.8c19,3.2,22,4,21.7,5.4c-0.5,3.3-14.3,54.2-14.8,54.7c-0.2,0.3-3.8-0.3-8-1.3
		l-7.6-1.8l0.6-3.7c1.6-10.4,1.8-17.7,0.5-18.7c-0.8-0.6-5.7-2.1-10.9-3.4c-5.2-1.2-9.8-2.5-10.2-2.9c-0.7-0.6,0.8-24.9,1.8-29.9
		C646.2,293.4,645.9,293.3,672.5,297.8z"/>
	<path id="path20" fill="#00008B" d="M820.9,301h12.7l-1.2,8.7c-6.9,47.2-8.5,55.8-10.2,57.1c-1.5,1.2-1.9,0.8-3.3-4
		c-3-10.1-6.9-15.7-14.1-20.3c-2.5-1.6-2.8-2.3-2.8-7.4c0.1-7.8,3.6-30.9,5-32.7C808,301.3,811.1,301,820.9,301z"/>
	<path id="path22" fill="#0000FF" d="M696.4,301.9l3.1,0.5c1.6,0.3,5.1,0.8,7.8,1.2c2.6,0.3,4.7,1.1,4.7,1.6
		c0,1.1-11.8,44.9-12.2,45.3c-1.4,1.3-18.3,11.3-18.7,11c-0.2-0.3,3.1-13.8,7.5-30.1L696.4,301.9z"/>
	<path id="path24" fill="#00008B" d="M715.1,305c2.6,0,15.5,2.4,16.2,3c0.6,0.5-0.9,7.9-6.3,30.9c-0.5,1.8-1.2,3.7-1.7,4.2
		c-0.4,0.4-5.2,1.9-10.5,3.2c-8.6,2.2-9.8,2.3-9.8,0.9c0-1.8,7.3-30.4,9.6-37.5C713.5,307.1,714.6,305,715.1,305z"/>
	<path id="path26" fill="#98FB98" d="M293.9,307.6c2.9,0.6,3.1,0.9,3.1,5.3c0,6.8-0.8,7.4-7.7,6.9c-6.4-0.4-19.3-5.3-19.3-7.3
		c0-1.6,1.8-3,5.5-4.3C278.9,307,289.2,306.7,293.9,307.6z"/>
	<path id="path28" fill="#8B0000" d="M454,308c4.1,1.1,9.4,6.1,10.9,10.3c1.5,3.9,1.4,16-0.1,17.9c-1.3,1.6-21.7,11.2-27.3,12.8
		c-1.6,0.5-6.8,1-11.5,1.2l-8.5,0.3l-0.3-5.7l-0.3-5.6l4.7,1.4c5.3,1.6,14,1.8,19.8,0.5c4.9-1.2,8.9-5.1,10.7-10.3
		c1.2-3.6,1.1-4.2-0.4-5.3c-0.9-0.7-4.5-1.5-8-1.8c-7-0.6-16.8-3.9-18.7-6.3c-1.8-2,1-5,7.5-8C438,306.8,447.5,306.2,454,308z"/>
	<path id="path30" fill="#0000FF" d="M734.4,308c1.3,0,66.9,10.9,67.1,11.2c0.1,0.2-0.1,2.8-0.6,5.8c-0.4,3-0.8,7.7-0.8,10.3
		c-0.1,4.7,0.1,5,6.8,11.5c4.7,4.6,7.4,8.2,8.6,11.5c1,2.6,1.5,5.1,1.1,5.4c-0.4,0.4-4.2-1.1-8.4-3.4c-4.2-2.3-10.2-4.8-13.2-5.7
		c-9.1-2.6-64.1-11.8-66.7-11.2c-3,0.8-3,0.9,1.2-16.5c1.9-7.9,3.7-15.4,4-16.7C733.8,309,734.2,308,734.4,308z"/>
	<path id="path32" fill="#008080" d="M463.2,309.5c4.2,1.3,5.1,3.2,6.4,13.2c1.8,13.3,1.8,14.3-0.4,14.3c-1.6,0-1.8-1-1.8-8.8
		c0.1-8.3-0.1-9.2-3.2-14.1C461.2,309.1,461.1,308.9,463.2,309.5z"/>
	<path id="path34" fill="#778899" d="M577.9,311.5c10.3,1.5,32,6.8,35.1,8.5c0.8,0.5-3.5,0.6-10.1,0.3c-7.3-0.4-14.7-0.1-19.7,0.7
		c-8,1.2-8.2,1.2-12.6-1.4c-4.3-2.5-8.6-6.9-8.6-8.7C562,309.6,565.8,309.8,577.9,311.5z"/>
	<path id="path36" fill="#778899" d="M519.6,322.5c2.3,5,4,11.1,5.3,18.7c2.6,15.2,5.4,37.8,4.8,38.4c-0.3,0.3-4.5-0.7-9.3-2.1
		c-12.3-3.6-24.6-4.1-48.9-2.1c-11,0.9-22.1,1.9-24.7,2.2c-4.6,0.6-4.8,0.5-4.8-1.9c0-2.7,0.9-3.1,9.7-4.3c2.9-0.3,5.8-1.3,6.4-2
		c0.7-0.8,1-4.5,0.8-9.8c-0.4-7.4-0.2-8.6,1.5-9.6c3-1.9,12.4-4.9,20-6.5c10.4-2.2,13.5-4.7,19.1-15.7c2.6-5.1,5.9-10.5,7.3-12.1
		C511.5,310.7,515,312.6,519.6,322.5z"/>
	<path id="path38" fill="#F08080" d="M421.6,318c0.1,0,3.2,1.4,6.8,3.1c3.7,1.7,10,3.6,14.3,4.3c9,1.4,9.9,2.6,5.3,7.3
		c-3.5,3.5-6.4,4.3-16.8,4.3c-8.3,0-15.1-1.6-15.9-3.8c-0.3-0.8,0.9-4.5,2.7-8.3C419.9,321.1,421.5,318,421.6,318z"/>
	<path id="path40" fill="#778899" d="M616.6,323.5c7.9,1.8,16.5,5.7,23.2,10.2c6.3,4.4,13.5,5.5,19.6,2.9c2.2-0.9,4-1.5,4.1-1.4
		c0.2,0.2-0.1,5-0.6,10.7c-0.7,7.6-0.6,10.7,0.2,11.2c0.8,0.4,0.4,1.1-1.1,1.9c-2.3,1.2-8.5,1.1-25.9-0.7c-6.4-0.6-6.6-0.7-14.3-8
		c-12.6-11.7-30.4-23.1-39.9-25.6c-3-0.8-1.9-1.8,2.8-2.8C590.1,320.8,609.3,321.7,616.6,323.5z"/>
	<path id="path42" fill="#98FB98" d="M285.2,322h3.9h3.9v5.2c0,8.2-0.6,9.5-4.1,9c-3.9-0.6-5.2-3.3-4.4-9.3L285.2,322z"/>
	<path id="path44" fill="#1E90FF" d="M226,327.1c6.9,0.5,21.9,2.1,33.5,3.5c19.1,2.4,21.1,2.8,23.2,5c1.4,1.5,3.3,2.4,5.2,2.4
		c1.6,0,3.6,0.3,4.5,0.6c1.1,0.4,1.6,0.1,1.6-1c0-0.9,0.4-1.6,0.9-1.6c1.5,0,26.2,5.8,26.7,6.3c0.2,0.2-3.8,1.6-8.8,3.2
		c-12.5,3.8-25.2,9.3-35.3,15.5c-8.4,5-8.5,5-23.7,7c-35.4,4.7-51.9,9.4-74.3,21.1c-11.1,5.8-15.6,7.7-34,14.5
		c-21.7,7.9-46.1,22.2-61.3,35.8l-7.3,6.6h-6.8c-3.7,0-7-0.2-7.3-0.5c-0.3-0.3,0.1-2.5,0.8-4.8s2.9-9.6,4.8-16.3
		c1.9-6.7,5.8-17,8.7-23c3.4-7.4,5.1-12.1,5-14.5c-0.2-8.5,19.1-31.3,35.9-42.4c14.9-9.9,32.7-16.6,49-18.5
		C175.5,325,207.3,325.6,226,327.1z"/>
	<path id="path46" fill="#40E0D0" d="M412.3,330c0.4,0,0.7,1.1,0.7,2.5c0,2-1.6,3.4-9.4,8c-14.2,8.5-24.5,12.2-26.9,9.8
		c-0.4-0.3,7.3-5.1,17.1-10.5C403.5,334.4,411.8,330,412.3,330z"/>
	<path id="path48" fill="#00FFFF" d="M660.8,333.4c1.1,1.2-7.3,3.8-10.6,3.2c-3.4-0.5-10.2-4.4-10.2-5.9
		C640,329,658.7,331.4,660.8,333.4z"/>
	<path id="path50" fill="#40E0D0" d="M492,336c0,1.6-6.1,4.9-10,5.6c-6.4,1-17.3,4.5-23,7.4c-4.7,2.3-6.4,2.7-11.2,2.2
		c-3.2-0.2-5.8-0.8-5.8-1.2c0-2.1,23.4-11.1,35-13.5C485,334.9,492,334.6,492,336z"/>
	<path id="path52" fill="#008080" d="M414.5,336.1c0.6-0.1,0.9,2.8,0.7,7.3c-0.4,8.3,0.5,7.5-9.5,9.2c-4.7,0.8-16.9-0.5-16.5-1.7
		c0.2-0.6,5.7-4.1,12.3-7.8C408.1,339.3,414,336.2,414.5,336.1z"/>
	<path id="path54" fill="#778899" d="M356.8,348c2.5,3.7,2.8,5.9,1,6.4c-7.9,2.2-27.7,9.9-36.8,14.4l-11.5,5.6l-20.4,0.4
		c-29.2,0.5-30.2,0-16-9.2c17.1-10.9,35.7-18.5,57.4-23.2C346.4,339,351.3,340,356.8,348z"/>
	<path id="path56" fill="#778899" d="M361.8,342c1.4,0,10.2,8.4,9.5,9.1c-0.5,0.5-3.1,1-5.8,1.1c-4.8,0.3-4.9,0.3-6.4-3.6
		c-1.4-3.6-1.3-4,0.4-5.2C360.5,342.6,361.6,342,361.8,342z"/>
	<path id="path58" fill="#2F4F4F" d="M734,346.4c6.9,0.2,16.1,1.1,20.5,2.1c4.4,0.9,15.6,3.2,24.9,5.1c23.7,4.9,27.5,6.8,39.8,20.1
		c2.7,2.9,7.5,3,12.9,0.2l4.1-2l-0.7,3.2c-0.4,1.8-4.5,14.2-9,27.6c-11.1,32.8-17.9,44.5-27.3,47.3c-2.3,0.7-4.5,1.1-4.8,0.8
		c-0.3-0.3,1.3-4.2,3.5-8.7c9.2-18.2,12-34.4,8.7-49.9c-5-23.8-18.8-34-36.8-27.2c-17.9,6.7-36.1,33.2-40.7,59.4
		c-0.6,3.3-1.1,12.6-1.1,20.7c0,8.1-0.4,15-0.9,15.3c-0.9,0.6-40.5,4.6-45,4.6c-2.1,0-1.7-0.5,2.5-3.7c7.9-5.8,11.4-9.4,15.5-15.7
		c4.2-6.4,5.2-11.9,2.3-13c-2.5-1-15.4-0.7-38.3,0.9c-19.3,1.3-23.3,1.8-22,2.8c0.2,0.2,10.3-0.3,22.3-1c12-0.7,22-1.2,22.1-1.1
		c0.2,0.2-0.7,5.9-1.8,12.7l-2,12.3l-3.4,1.5c-5.8,2.4-41,11-58.3,14.2c-9.1,1.7-25.3,4.7-36,6.7c-30.1,5.6-27.6,5.7-34-1.2
		c-14.4-15.9-22.1-27.8-24-37.4c-2.3-11.5-3.9-12.6-15.8-10.8c-4.2,0.6-7.9,1.3-8.1,1.4c-0.2,0.2,0.6,1.5,1.8,3
		c2.8,3.5,2.7,7.7-0.4,23c-2.3,11.5-8.3,30.2-11.8,37l-1.5,3l-36.4,6.3c-19.9,3.5-37.1,6.5-38,6.8c-1.6,0.4-1.8-0.4-1.8-6.4
		c0-3.7,0.7-16.7,1.5-28.8c0.8-12.1,1.5-23.5,1.5-25.3c0-1.9,0.8-4,2.1-5.3c1.6-1.6,1.8-2.3,0.9-3.4c-1.7-2.1-46.6-30.7-53.6-34.3
		c-6.9-3.5-16.5-6.2-21.7-6.2c-2,0-3.9-0.5-4.3-1.1c-1-1.7,46.3-0.5,63.6,1.5c7.4,0.9,30.2,4.3,50.5,7.6
		c111.7,17.9,137.8,19.3,225,11.5c34.9-3.1,36.5-3.3,36.5-4.9c0-2-4.3-5.5-8.1-6.7c-1.9-0.5-13.7-3.4-26.3-6.4
		c-12.7-3-23.3-5.8-23.7-6.2c-1.7-1.7,11.4-20.8,20.5-29.9c10.3-10.3,20.4-16.2,34.1-20.1C720.4,346.3,723.2,346.1,734,346.4z"/>
	<path id="path60" fill="#40E0D0" d="M433,351.6c16.8,1.8,22.7,2.7,23.7,3.7c0.8,0.8,1,3,0.5,6.7c-1,7.7-2.8,8.5-20.2,8.5
		c-12.4,0-13.9-0.2-18.5-2.5c-4-2-5.1-3.1-5.3-5.3c-0.5-4.6,5-9.2,12.8-10.7C427.9,351.6,431.1,351.4,433,351.6z"/>
	<path id="path62" fill="#191970" d="M383.3,353.4c11.1,0.3,12.1,0.5,18.3,3.7c4.6,2.3,7.4,4.5,9,7c1.2,2,3.8,4.6,5.6,5.7
		c3.5,2.2,10.8,14.3,10.8,18c0,1.8-0.5,2.1-2.7,1.7c-10.3-1.8-75.9-7.8-102.7-9.4c-8.7-0.6-16-1.2-16.2-1.4c-0.2-0.2,6.7-3.8,15.3-8
		c16.4-7.9,32.8-13.9,44.2-16.2C368.8,353.7,376.2,353.3,383.3,353.4z"/>
	<path id="path64" fill="#008080" d="M412.8,353.1l3.3-0.1l-2.1,3c-3,4.3-3.5,4.4-8.2,1.3l-4.2-2.8l4-0.6
		C407.7,353.6,411,353.2,412.8,353.1z"/>
	<path id="path66" fill="#00FFFF" d="M675.9,359.6c2.2,0.5,3.1,1.2,3.1,2.6c0,2.8-2.2,3.1-8.9,1.2c-6-1.6-7.4-2.7-4.8-3.7
		C667.1,358.9,672.3,358.9,675.9,359.6z"/>
	<path id="path68" d="M793.4,370.2c4.6,3.8,9.1,13.3,11.2,23.7c1.4,7.2,1.5,9.9,0.5,18.4c-1.6,13.8-3.2,15.9-2.4,3.2
		c1.5-26.2-8.3-44.9-25.2-48.1c-3.3-0.6-3.6-0.8-2-1.5C780.5,364,788,365.8,793.4,370.2z"/>
	<path id="path70" fill="#191970" d="M263.2,370.2c-0.7,0.7-1.2,2-1.2,3c0,3.6,3.4,4.1,23.9,3.4c19.3-0.7,19.6-0.7,17.4,1.2
		c-1.7,1.5-4.5,2.1-13.5,2.6c-42.1,2.7-79.6,18.7-112.5,48c-4.8,4.3-9.7,8.2-10.8,8.7c-33.7,14.2-60.8,29-75,40.7l-2.9,2.4l-1.8-2.2
		c-1.3-1.7-1.5-2.6-0.7-4.1c2.3-4.3,16.4-20.2,29-32.6c45.4-44.7,80.5-63.9,128.9-70.3C261,368.7,264.8,368.6,263.2,370.2z"/>
	<path id="path72" fill="#778899" d="M796.6,386.5c7.2,16.4,5.2,42.9-4.7,62.8c-10.4,20.8-27.5,33.5-41.3,30.5
		c-6.4-1.3-13.5-7.9-17.2-16c-2.8-6.1-2.9-6.7-2.9-21.8c0.1-12.8,0.5-17,2.4-24c5.6-21,20.3-42.1,32.5-46.4
		C778.5,367,790.4,372.6,796.6,386.5z M776.7,383.4c-6.4-0.4-9.2,0.5-15.1,4.6c-13.1,8.9-22.6,29.4-22.9,49
		c-0.3,30.7,21.4,41.2,40.9,19.7c10.3-11.4,15.7-26.3,15.8-43.7c0.1-10-0.1-10.9-3.2-17.3c-2-4-4.7-7.8-6.8-9.4
		C782.8,384.4,780.4,383.6,776.7,383.4z"/>
	<path id="path74" fill="#191970" d="M788.3,391.8c16,23.4-4.2,74.2-29.4,74.2c-8.3,0-12.9-4-16.4-14.5c-4.8-14.1-1.5-34.4,7.9-48.8
		c4.5-7,11.2-13.6,16.1-15.8C774.7,383.1,783.8,385.2,788.3,391.8z M765.5,413c-2.1,0-6.3,5.7-7.5,10c-2.3,8.7,3.5,16.6,8.3,11.2
		c2.6-2.9,5.6-10.9,5-13.4c-0.3-1.2-1.5-3.5-2.5-5.1C767.7,414.2,766.3,413,765.5,413z"/>
	<path id="path76" fill="#008080" d="M425,371.8c2.9,0.4,3,0.6,3,5.3c0,2.7-0.2,4.9-0.4,4.9c-0.6,0-6.4-9.8-6-10.3
		C421.8,371.5,423.3,371.5,425,371.8z"/>
	<path id="path78" fill="#40E0D0" d="M430.3,373h5h5l-0.7,3.7c-0.3,2.1-0.6,6.4-0.6,9.6v5.7l-4.2-0.6c-2.4-0.4-4.6-1-5-1.3
		c-0.4-0.4-0.5-4.4-0.1-8.9L430.3,373z"/>
	<path id="path80" fill="#191970" d="M666.7,378.3c0.3,0.3-1.8,4.6-4.7,9.6c-2.9,5-5,9.7-4.7,10.5c0.6,1.5,5.7,3.2,18.5,6.2
		c3.9,1,7.2,2.1,7.2,2.4c0,1.1-62.4,5.4-95,6.6c-20.2,0.7-33.9-0.3-53-3.8c-13.1-2.5-14.4-1.8,11-5.8c20.1-3.2,35.7-7.2,60.4-15.4
		c19-6.4,26-8.2,40.6-11C650.1,377,665.9,377.6,666.7,378.3z"/>
	<path id="path82" fill="#8FBC8F" d="M327.5,382.5c14.9,0.8,64.8,5.1,81.5,7c15.5,1.8,24.8,3.4,63,10.5c54.4,10.1,78.7,14,93.2,15.2
		c16.4,1.2,27.5,0.8,85.8-3.8c18.4-1.4,36.9-2.3,41-2c8.7,0.5,23,5,23,7.2c0,0.8-1,1.4-2.2,1.4c-1.3,0-9.3,0.7-17.8,1.5
		c-35.2,3.4-71.1,5.5-93.8,5.5c-38.6,0-50.5-1.2-136.2-14.5c-15.7-2.4-36.6-5.5-46.5-6.9c-73.3-10.3-129.1-1.3-168.9,27.2
		c-14.4,10.4-32,29.4-39.7,43.2c-1.3,2.2-2.6,4-3,4c-0.4,0,0.4-3.5,1.7-7.8c1.3-4.2,2.4-8,2.4-8.5c0-0.4-3.3-0.7-7.2-0.7
		c-4,0-14.5-0.7-23.3-1.5c-23.4-2.2-24.3-2.1-28.4,1.7l-3.4,3.3l4.1-6c29.9-43.3,82.4-72.9,135.7-76.5
		C300.1,381.3,304.1,381.3,327.5,382.5z"/>
	<path id="path84" fill="#6B8E23" d="M158.5,401.8c-0.6,0.5-3,2.4-5.5,4.3c-20.7,15.6-55,47.1-59.4,54.4l-2.2,3.6l-6.8-8.1l-6.8-8.2
		l3.8-4c5.3-5.4,20-16.4,30.5-22.6c10.3-6.2,20.9-11.2,34.4-16.3C156.4,401.2,160.3,400.2,158.5,401.8z"/>
	<path id="path86" fill="#1E90FF" d="M315.5,405.1c0.6-0.1-4,2.4-10,5.4C263.2,431.4,239.9,479,251,522c1.2,4.6,2.6,9.2,3.1,10.1
		c0.8,1.5,0.2,1.9-4.6,2.8c-3,0.6-8.1,1.6-11.2,2.3c-9.6,2-55,1.7-71.3-0.5c-13.6-1.9-32-5.3-32.8-6.2c-0.3-0.3,3.1-0.2,7.4,0.1
		c10.9,0.8,24.7-1.7,34-6.1c10.9-5.3,16.4-11.8,26.4-31.7c10.6-21.1,17.2-30.9,29.7-43.8c19.5-20.3,42-33.1,71.5-40.9
		C309.4,406.4,315,405.1,315.5,405.1z"/>
	<path id="path88" fill="#8FBC8F" d="M354,406.5c5.1,1,24.6,11.8,45.3,25.2l17.9,11.6l-0.5,3.4c-0.4,1.9-1.3,14.8-2.2,28.6
		c-0.9,13.9-1.9,28.1-2.3,31.7l-0.7,6.4l-4.5,0.9c-5.7,1-16.7,0.4-18.1-1c-0.8-0.8-0.6-1.9,0.5-4.1c3.6-7.1,6.8-20.7,7.3-31.9
		c1.5-29.7-12.3-54.6-36.7-66.7C353.5,407.4,351.6,406.1,354,406.5z"/>
	<path id="path90" fill="#778899" d="M348.9,409.5c14.8,3.5,30.8,15.8,37.8,29c6,11.5,7.8,19.4,7.8,35c0,10.2-0.5,15.7-1.7,20.3
		c-8.4,30.3-29.4,53.9-56.6,63.6c-8,2.8-9.8,3-21.7,3.1c-14.9,0-20.3-1.3-30.5-7.2c-30.3-17.7-39.2-58.5-21-95.9
		c11.9-24.5,31.3-41.1,55.5-47.4C327.1,407.7,340.3,407.5,348.9,409.5z M322.2,426.6c-10.7,2.8-18.2,7.4-27.8,16.9
		c-7.6,7.6-9.7,10.5-13.7,18.5c-5.7,11.6-7.7,19.7-7.7,31.5c0,15,3.5,25.6,11.8,36.1c15,19,44.4,21.9,66.8,6.7
		c13.6-9.3,25.7-26.6,29.9-42.8c1.8-6.9,2.1-21.5,0.5-29.5c-3.5-18.3-18.1-34-35.1-37.9C340.7,424.6,328.4,424.9,322.2,426.6z"/>
	<path id="path92" fill="#191970" d="M345.3,427.5c9.2,1.9,15.7,5.7,22.7,13.1c6.8,7.4,10.2,14.1,12.4,24.6c2,9.4,2,15.3,0.2,23.8
		c-3.5,16-9.4,27-20.5,38c-21.8,21.6-52.3,23.5-71.3,4.6c-9.8-9.8-14.3-22.3-14.2-39.6c0.1-8.7,0.5-11.9,2.8-18.5
		c8.1-23.8,26.3-41.2,48.1-46C333.4,425.7,337.1,425.7,345.3,427.5z M329.3,469c-9.4,0-16.3,8-16.3,18.9c0,4.7,0.4,5.7,3.4,8.7
		c2.9,2.9,4.1,3.4,8,3.4c5.6,0,9.4-1.8,13-6c5.8-6.9,5.8-16,0.1-21.7C334.7,469.5,333.5,469,329.3,469z"/>
	<path id="path94" fill="#2F4F4F" d="M336.9,473.4c5.4,5.5,3.1,18.2-4.2,22.6c-3.5,2.2-10.6,2.7-13.7,1c-1.1-0.6-2.4-2.7-3-4.8
		c-1.2-4.6-1.3-11.3-0.1-9.4c0.6,1,1.1,0.2,1.6-2.5c0.8-4.6,4-8.3,7.1-8.3c1.3,0,2.6-0.5,3-1.1C328.6,469.2,334.2,470.7,336.9,473.4
		z"/>
	<path id="path96" fill="#8FBC8F" d="M522.7,434.2c0.6,0.7,1.3,3.7,1.7,6.7c1,7.9,7.8,20.3,16.8,30.9c1.5,1.8,2.8,4.5,2.9,6
		c0,2.1,0.2,2.3,0.8,0.9c0.6-1.5,1.6-0.8,7,4.7c3.4,3.6,6,7,5.7,7.5c-0.5,0.8-2.9,1.3-13.4,2.7c-1.5,0.2-6.3,1-10.7,1.8
		c-18.6,3.5-38.6,6.7-39.4,6.2c-1-0.7,2.5-11.5,4.5-13.7c0.8-0.8,1.4-2.3,1.4-3.3c0-0.9,1.4-6.3,3.1-11.9c4.2-14.1,6.2-28.9,4.4-34
		c-1.4-4.2-1.3-4.3,4-5C517.9,432.9,521.8,433.1,522.7,434.2z M544.7,483.2c-0.3-0.9-0.5-0.1-0.5,1.8s0.2,2.7,0.5,1.7
		C544.9,485.8,544.9,484.2,544.7,483.2z"/>
	<path id="path98" fill="#008080" d="M164.3,440.1c0.5-0.1-1.1,2.3-3.6,5.1c-2.4,2.9-5.8,7.4-7.5,10c-4.4,6.5-9.4,10.3-18.2,13.9
		c-4.1,1.7-12,5.5-17.5,8.4l-10,5.2l-8.7-0.5c-4.9-0.2-8.8-0.7-8.8-1.1c0-0.9,13.8-10.6,23.2-16.3c10.8-6.5,21.3-11.8,37.3-18.9
		C157.7,442.7,163.9,440.1,164.3,440.1z"/>
	<path id="path100" fill="#3CB371" d="M53.7,443.1c4.1-0.1,4.3,0.1,5.2,3.6c0.6,2.1,1.7,4.8,2.6,6c1.5,2.1,1.4,2.2-2.7,2.7
		c-8.3,1-27.3,1.6-28.4,0.8c-1.9-1.2-2.5-4.7-1.2-6.5c0.8-1,5.3-2.7,10.8-4.1C45.2,444.2,51.4,443.1,53.7,443.1z"/>
	<path id="path102" fill="#8B4513" d="M62.8,447.4c0.9,0.3,3.8,0.8,6.5,1.2c4.1,0.5,4.7,0.9,4.7,3c0,3-1.4,3.7-5.6,2.9
		c-3.9-0.7-7.4-3.6-7.4-6.1C61,447.4,61.6,447,62.8,447.4z"/>
	<path id="path104" fill="#8B4513" d="M77.4,451.1c0.7,0.8,3.6,4.2,6.5,7.6l5.2,6.2l-1.7,2.7l-1.8,2.7l-2.9-3.4
		c-6.2-7.3-7.9-10.6-7.2-13.9C76.1,450.4,76.4,450,77.4,451.1z"/>
	<path id="path106" fill="#3CB371" d="M73,458c1,0.5,3.9,3.8,6.5,7.2c4,5.3,4.6,6.7,4,9.4c-0.7,4.1,2.3,7.8,8,9.6
		c3.4,1.1,5.6,3.5,16.7,17.8c9.2,11.9,12.8,17.3,12.8,19.2c0,1.6-0.3,2.8-0.7,2.8c-0.5,0-8.4,1.1-17.7,2.5
		c-14.2,2-17.3,2.8-19.3,4.7c-2.2,2.1-3.6,2.3-14.4,2.7L57,534.2l-3.1-3.3c-2.8-2.9-39.9-67.2-39.9-69c0-1.5,3.2-1.8,42.5-4.2
		C67.7,457,71.2,457,73,458z"/>
	<path id="path108" fill="#6B8E23" d="M160.5,459.6c1.1,0.2,8.1,0.8,15.5,1.4c7.4,0.6,14.4,1.6,15.5,2.1c1.2,0.6,5,0.6,9.8,0.1
		c7.8-0.8,7.8-0.8,7.3,1.4c-1.6,6.1-2.5,7.3-6.8,8.5c-2.4,0.7-5.1,2.1-6,3.2c-3.2,3.5-2,10.3,2.5,13.8c2,1.6,2,1.6-1,8l-3,6.4
		l-1.1-7.6c-0.6-4.2-1.6-8.9-2.2-10.4l-1.1-2.8l-9.1,0.5c-7.9,0.5-9.4,0.9-11,2.8c-4,4.9-0.8,23,4.8,26.6c1.8,1.2,3.7,1.4,7.6,0.9
		l5.3-0.6l-3.7,3.5c-2.1,2-4.6,3.6-5.7,3.6c-1,0-2.4,0.7-3.1,1.5c-3.8,4.5-28.7,8-40,5.6c-6.7-1.4-12.9-5.7-10.8-7.6
		c1-0.9,32.8-5.7,37.1-5.5c0.9,0,0.9-4.3,0-6.7c-0.6-1.4-0.9-1-1.3,1.7l-0.5,3.5l-15,2.2c-20.1,2.9-20.8,2.9-19.9,0
		c2.2-7.2,9.1-23.3,13.1-30.4c5.7-10.2,16.8-25,19.1-25.6C157.7,459.5,159.4,459.4,160.5,459.6z"/>
	<path id="path110" fill="#2F4F4F" d="M725.7,463.1c2.6-0.1,3.8,1.3,2,2.6c-2.4,1.9-149.3,29.2-272.2,50.7
		c-61.2,10.7-59.4,10.4-62.9,9.6c-3.9-1-9.6-3.1-9.6-3.6c0-0.2,0.8-1.9,1.7-3.9c1.4-2.9,2.1-3.5,3.8-3c8.8,2.7,18.4,1.6,73.9-8.2
		c21.2-3.8,26.2-4.4,27.8-3.4c1.6,1,7.7,0.2,34.6-4.4c18-3.1,33.7-6,35-6.5c1.6-0.7,2.2-1.6,1.8-2.8c-0.7-2.1-2.3-1.7,31.4-7.8
		c33.9-6.1,58.1-11.2,70.3-14.7c11.1-3.2,11.7-3.3,11.7-1.4c0,1.8,0.5,1.9,9.8,1.2c5.3-0.4,16.2-1.5,24.2-2.5
		C717,464,724.5,463.2,725.7,463.1z"/>
	<path id="path112" fill="#008080" d="M143.1,467c0.4,0-3.3,8.6-8.3,19c-5.1,10.5-9.5,18.9-10,18.8c-1-0.4-16.8-20-16.7-20.8
		c0-0.3,7.7-4.2,17.1-8.8C134.6,470.7,142.7,467,143.1,467z"/>
	<path id="path114" fill="#8FBC8F" d="M731.5,467.2c0.6-0.1,2.2,1.6,3.7,3.8c1.5,2.2,4.7,5.4,7,7.1l4.3,3.1l-5-0.7
		c-5.8-0.8-20.1-4.9-25.3-7.2l-3.7-1.6l9-2.2C726.5,468.2,731,467.2,731.5,467.2z"/>
	<path id="path116" fill="#98FB98" d="M204.2,479.5c-1.7,6.1-2.7,6.1-3.7-0.2c-0.5-3.5-0.4-4.2,1.2-4.6
		C205.7,473.7,205.8,473.9,204.2,479.5z"/>
	<path id="path118" fill="#98FB98" d="M199,479.6c1.5,3.8,1.3,8.4-0.4,8.4c-1.8,0-2.6-2.2-2.6-7.1C196,476.5,197.6,475.8,199,479.6z
		"/>
	<path id="path120" fill="#8B4513" d="M101.4,485c3.8,0,4,0.1,15.1,14c6.5,8.2,7.5,9.9,7,12.5c-1.2,6.4-1.4,6.2-19.3-17.1
		c-3.4-4.4-6.2-8.4-6.2-8.7C98,485.3,99.5,485,101.4,485z"/>
	<path id="path122" fill="#ADFF2F" d="M185,485.4c4.4,0.1,6.1,3.3,6.8,12.7c0.6,9.3-0.1,11.7-4.3,13.5c-6.6,2.7-7,2.3-6.7-6.1
		c0.3-6.3,0-8.3-2.2-13.1c-1.4-3.1-2.6-5.8-2.6-6c0-0.1,1.2-0.5,2.8-0.7C180.3,485.5,183.1,485.3,185,485.4z"/>
	<path id="path124" fill="#ADFF2F" d="M179.7,503.4c0.5,6,0.3,7.4-1.2,8.6c-1.5,1.3-2,1.1-4.1-1.3c-4.7-5.5-6.7-18.3-3.4-22.2
		C174.2,484.7,178.9,492.9,179.7,503.4z"/>
	<path id="path126" fill="#2F4F4F" d="M117.2,526.1l2.8-0.1l-0.7,6c-1,10.2,2.2,13.3,17.9,17c11.3,2.6,62.4,8,109.2,11.5
		c5.5,0.5,8.6,0.3,8.3-0.3c-0.4-0.5-4.8-1.2-9.9-1.6c-5.1-0.4-23.7-2-41.3-3.7c-66.4-6.2-73.6-7.4-79.8-12.9
		c-2.8-2.5-3.2-3.4-3.1-7.9c0-2.8,0.3-5.3,0.6-5.6c0.3-0.3,3.5,0.9,7.2,2.5c4.9,2.3,10.8,3.7,22.1,5.5c24.9,3.9,38.3,4.8,63.7,4.2
		c20.5-0.4,24.4-0.7,32.6-2.9l9.2-2.4l3.1,4.8c1.7,2.7,6.6,8,10.7,11.8l7.6,7h-3.9c-5.3,0-4.1,0.7,2.3,1.3c5.7,0.6,7.4,1.3,5.1,2.2
		c-2.3,0.8-31.4,5.4-47.9,7.5c-40.8,5.2-73.2,7.5-97.3,6.7c-19.8-0.5-25.7-1.9-31.7-7.3c-3.6-3.3-10.8-15-18-29.3
		c-4.3-8.6-3.9-8.9,14.3-11.7C108.1,527.2,115.7,526.2,117.2,526.1z"/>
	<path d="M482.2,270.3c8,0.7,17.3,5.3,23.5,11.6c2.8,2.8,5.3,5.1,5.6,5.1c0.2,0,0.8-1.6,1.1-3.5c1-5.2,4.2-6.9,11.2-6
		c13.1,1.6,21.4,7.1,29.9,20c6.3,9.4,7.6,10.5,13.1,10.5c13.4,0,42.5,7.1,57.2,14c4.6,2.2,8.8,3.7,9.3,3.4c1.3-0.7-2.4-7.4-5.8-10.5
		c-1.5-1.5-4.7-3.9-7.1-5.3c-2.4-1.5-4.6-3.4-4.9-4.2c-0.6-1.7,1.4-29.3,2.3-31.8c0.5-1.4,2.9-1.6,15.5-1.6
		c14.1,0,14.9,0.1,14.9,1.9c0,2.5-0.1,2.5,24,6c28.6,4.2,77.2,11.5,104.2,15.6c19.8,3.1,25.1,3.5,41.3,3.5h18.6l-0.6,3.2
		c-0.9,5-9.5,62.1-9.5,62.9c0,0.4,1.8,1,4,1.4c5,0.8,9,3.9,9,7c0,1.3-0.3,2.5-0.7,2.7c-0.5,0.1-3.4,8.2-6.6,17.8
		c-10.6,31.5-14.5,41.1-19.7,48.2c-5.1,7-9.6,10.1-16.2,11.3c-3,0.6-4.3,1.7-7.1,5.8c-4.3,6.6-10.9,13.4-17,17.5
		c-12.8,8.9-18.7,9.2-41.4,2.6c-8.7-2.6-17.8-5.1-20.3-5.6c-3.9-0.9-13.3,0.7-75,12.2c-38.8,7.2-76.6,14.2-84,15.5
		c-7.4,1.3-38,6.7-68,12c-30,5.2-60.6,10.7-68.1,12c-17,3.1-23.6,3.2-29,0.4l-4.1-2l-1.6,2.3c-3.2,4.7-16.9,18.2-22.8,22.4
		c-16.5,11.8-37.9,17-59.4,14.5c-5.2-0.7-10.3-1.4-11.2-1.7c-1.1-0.3-1.8,0-1.8,0.9c0,3.9-84.9,14.8-128,16.4
		c-20.1,0.7-42.6-1-48.5-3.6c-6-2.8-9.5-7.1-19.2-24l-8.8-15.4L69,535.9c-9.8,0.1-12-0.1-14.7-1.8C50.9,532,51,532.2,29,493
		c-7.9-14-15.2-26.7-16.2-28.2c-1-1.4-1.8-3.1-1.8-3.6c0-1.3,4.8-2.8,11.3-3.7l4.9-0.6l-0.7-3.8c-0.5-2.8-0.2-4.2,1-5.5
		c2.2-2.1,9.9-4.2,21.4-5.9l9.4-1.3l1.9-7.9c6.1-26.4,19.9-54.4,35.7-72.4c15.5-17.9,39.2-30.7,65.1-35.3c9.5-1.7,44.7-1.6,62.5,0.1
		c7.2,0.7,23.1,2.3,35.4,3.7c12.3,1.4,22.5,2.3,22.7,2.2c0.2-0.2,0.4-2.4,0.6-4.8l0.3-4.5l-6.2-3c-7.6-3.7-8.7-4.7-7.8-7.5
		c1.2-3.7,7.8-6,17-5.9c12.5,0.1,12.9,0.4,13.3,7.4c0.2,4.7-0.1,6.4-1.7,8.6c-1.5,2-2.1,4.3-2.1,7.7c0,5,0,5,3.8,5.7
		c2,0.3,8.3,1.7,13.8,3.1c10.7,2.5,20.9,3,28.1,1.4c3.2-0.8,5.3-0.6,8.8,0.5c4.1,1.4,4.7,1.4,6.7,0c4.1-2.8,8.3-1.9,13.8,3
		c2.8,2.5,5.4,4.5,5.7,4.5c0.4,0,7.2-3.8,15.2-8.4c8-4.6,16.2-8.9,18.2-9.5c4.1-1.3,7.5-4.7,11.2-11.2c3.3-5.7,7.2-9.2,13.1-11.4
		c3.7-1.4,6.1-1.6,12.8-1c15,1.3,17.6,1.2,19.8-1.1c2-2,4.1-10.8,5.5-23.6c0.4-3.5,1.4-6.7,2.7-8.4
		C476.2,269.9,476.7,269.8,482.2,270.3z M476.8,273.4c-2,1-2.4,2.4-3.5,13.1c-1,9.1-1.9,13.2-3.8,16.8c-2.3,4.5-2.4,5-0.9,7.3
		c0.9,1.3,2,6.1,2.5,10.6c1.5,13.9,0.4,12.8,11.7,12.8c6.3,0,10.4-0.5,11.5-1.3c0.9-0.6,3.2-4.4,5.1-8.3c1.8-3.9,4.8-8.7,6.6-10.7
		c2.6-3,3.4-5,4.2-11.1c0.6-4,0.8-8.5,0.4-9.9c-0.9-3.7-9.7-12.9-15.3-15.9C489.3,273.5,480,271.8,476.8,273.4z M645.9,274h-12.8
		c-7,0-13.1,0.3-13.4,0.7c-0.4,0.3-0.7,2.4-0.7,4.6v4l10.3-0.5c11.5-0.5,14-1.5,15.5-5.8L645.9,274z M653,279.3
		c-6.3-0.5-6.6-0.4-10.5,3l-4,3.5l3.5,0.6c3,0.6,56.1,8.9,132,20.7c10.7,1.7,21.4,3.4,23.8,3.9c2.3,0.4,4.4,0.5,4.6,0.1
		c0.2-0.3,0.6-2.6,0.7-5.1l0.4-4.5l-31.5-4.7c-17.3-2.6-39.1-5.9-48.5-7.2c-9.3-1.4-27.6-4.2-40.5-6.2
		C670.1,281.5,656.6,279.6,653,279.3z M523.3,280.2c-6.9-0.4-7.3-0.3-8.2,1.9c-1,2.4-4.6,28.9-3.9,29.3c0.1,0.1,1.5,0.7,3,1.3
		c7.3,3.2,14.8,28.5,16.4,55.8c0.5,9,0.4,11.3-0.8,12.2c-1.3,1.1-34.4,4.8-73.8,8.4c-7.4,0.6-13.9,1.5-14.4,2c-1.2,1,1.8,1.7,39.3,9
		l32.4,6.3l13.1-1.2c25.4-2.3,45.6-6.9,80.4-18.3c29-9.5,36.7-11.1,51.1-10.7l11.3,0.3l3.4-4c1.9-2.2,3.4-4.3,3.4-4.7
		c0-0.7-17.3-4.9-27.4-6.7c-3.3-0.6-8.8-1.1-12.3-1.1H630l-8.7-8.1c-13.7-12.6-27.3-21-44.3-27.4c-9.5-3.6-14.3-8.1-21.9-20.4
		c-6.4-10.4-13.2-17.6-20.2-21.2C532,281.5,528,280.5,523.3,280.2z M624.8,286c-8.3,0,40.8,9,117.7,21.5c57.2,9.4,59.5,9.7,59.5,7
		c0-0.8-0.2-1.5-0.4-1.5c-0.2,0-8.2-1.3-17.7-3c-9.6-1.6-23.2-3.9-30.4-5c-7.1-1-24.7-3.7-39-5.9c-14.3-2.2-40.1-6.1-57.3-8.6
		C639.9,288,625.4,286,624.8,286z M630.3,290.7l-12.2-2.4l-0.6,6.2c-1,8.9-0.5,10.7,3.5,13c6.1,3.6,12.6,10.8,14.5,16.3
		c3.5,9.6,5.3,6.1,7-13.5c0.7-8.7,1-16.1,0.6-16.5C642.8,293.5,637,292.1,630.3,290.7z M645.6,296.2c-1,5-2.5,29.3-1.8,29.9
		c0.4,0.4,5,1.7,10.2,2.9c5.2,1.3,10.1,2.8,10.9,3.4c1.3,1,1.1,8.3-0.5,18.7l-0.6,3.7l7.6,1.8c4.2,1,7.8,1.6,8,1.3
		c0.5-0.5,14.3-51.4,14.8-54.7c0.3-1.4-2.7-2.2-21.7-5.4C645.9,293.3,646.2,293.4,645.6,296.2z M833.6,301h-12.7
		c-9.8,0-12.9,0.3-13.9,1.4c-1.4,1.8-4.9,24.9-5,32.7c0,5.1,0.3,5.8,2.8,7.4c7.2,4.6,11.1,10.2,14.1,20.3c1.4,4.8,1.8,5.2,3.3,4
		c1.7-1.3,3.3-9.9,10.2-57.1L833.6,301z M699.5,302.4l-3.1-0.5l-7.8,29.5c-4.4,16.3-7.7,29.8-7.5,30.1c0.4,0.3,17.3-9.7,18.7-11
		c0.4-0.4,12.2-44.2,12.2-45.3c0-0.5-2.1-1.3-4.7-1.6C704.6,303.2,701.1,302.7,699.5,302.4z M715.1,305c-0.5,0-1.6,2.1-2.5,4.7
		c-2.3,7.1-9.6,35.7-9.6,37.5c0,1.4,1.2,1.3,9.8-0.9c5.3-1.3,10.1-2.8,10.5-3.2c0.5-0.5,1.2-2.4,1.7-4.2c5.4-23,6.9-30.4,6.3-30.9
		c-0.5-0.4-4-1.2-8-1.9C719.4,305.5,715.7,305,715.1,305z M270,312.5c0,2,12.9,6.9,19.3,7.3c6.9,0.5,7.7-0.1,7.7-6.9
		c0-4.4-0.2-4.7-3.1-5.3C283.7,305.6,270,308.4,270,312.5z M432.5,309.4c-6.5,3-9.3,6-7.5,8c1.9,2.4,11.7,5.7,18.7,6.3
		c3.5,0.3,7.1,1.1,8,1.8c1.5,1.1,1.6,1.7,0.4,5.3c-1.8,5.2-5.8,9.1-10.7,10.3c-5.8,1.3-14.5,1.1-19.8-0.5l-4.7-1.4l0.3,5.6l0.3,5.7
		l8.5-0.3c4.7-0.2,9.9-0.7,11.5-1.2c5.6-1.6,26-11.2,27.3-12.8c1.5-1.9,1.6-14,0.1-17.9c-1.5-4.2-6.8-9.2-10.9-10.3
		C447.5,306.2,438,306.8,432.5,309.4z M734.4,308c-0.2,0-0.6,1-0.9,2.2c-0.3,1.3-2.1,8.8-4,16.7c-4.2,17.4-4.2,17.3-1.2,16.5
		c2.6-0.6,57.6,8.6,66.7,11.2c3,0.9,9,3.4,13.2,5.7c4.2,2.3,8,3.8,8.4,3.4c0.4-0.3-0.1-2.8-1.1-5.4c-1.2-3.3-3.9-6.9-8.6-11.5
		c-6.7-6.5-6.9-6.8-6.8-11.5c0-2.6,0.4-7.3,0.8-10.3c0.5-3,0.7-5.6,0.6-5.8c-0.2-0.2-15.2-2.8-33.5-5.8S734.6,308,734.4,308z
		 M463.2,309.5c-2.1-0.6-2-0.4,1,4.6c3.1,4.9,3.3,5.8,3.2,14.1c0,7.8,0.2,8.8,1.8,8.8c2.2,0,2.2-1,0.4-14.3
		c-0.7-5.6-1.9-10.4-2.7-11.1C466.1,310.8,464.5,309.9,463.2,309.5z M562,310.9c0,1.8,4.3,6.2,8.6,8.7c4.4,2.6,4.6,2.6,12.6,1.4
		c5-0.8,12.4-1.1,19.7-0.7c6.6,0.3,10.9,0.2,10.1-0.3c-3.1-1.7-24.8-7-35.1-8.5C565.8,309.8,562,309.6,562,310.9z M510.8,313
		c-2.4,0-6.4,5.2-11.3,14.8c-5.6,11-8.7,13.5-19.1,15.7c-7.6,1.6-17,4.6-20,6.5c-1.7,1-1.9,2.2-1.5,9.6c0.2,5.3-0.1,9-0.8,9.8
		c-0.6,0.7-3.5,1.7-6.4,2c-8.8,1.2-9.7,1.6-9.7,4.3c0,2.4,0.2,2.5,4.8,1.9c2.6-0.3,13.7-1.3,24.7-2.2c24.3-2,36.6-1.5,48.9,2.1
		c4.8,1.4,9,2.4,9.3,2.1c0.6-0.6-2.2-23.2-4.8-38.4c-2.1-12.4-7.2-25.2-10.7-27.1C513.1,313.5,511.5,313,510.8,313z M421.6,318
		c-0.9,0-6.8,14.1-6.3,15.2c0.8,2.2,7.6,3.8,15.9,3.8c10.4,0,13.3-0.8,16.8-4.3c4.6-4.7,3.7-5.9-5.3-7.3c-4.3-0.7-10.6-2.6-14.3-4.3
		C424.8,319.4,421.7,318,421.6,318z M580.3,323.4c-0.4,0.4,0.3,1,1.6,1.3c9.5,2.5,27.3,13.9,39.9,25.6c7.7,7.3,7.9,7.4,14.3,8
		c17.4,1.8,23.6,1.9,25.9,0.7c1.5-0.8,1.9-1.5,1.1-1.9c-0.8-0.5-0.9-3.6-0.2-11.2c0.5-5.7,0.8-10.5,0.6-10.7
		c-0.1-0.1-1.9,0.5-4.1,1.4c-6.1,2.6-13.3,1.5-19.6-2.9c-6.7-4.5-15.3-8.4-23.2-10.2C605.6,320.8,582.9,320.8,580.3,323.4z M293,322
		h-3.9h-3.9l-0.7,4.9c-0.8,6,0.5,8.7,4.4,9.3c3.5,0.5,4.1-0.8,4.1-9V322z M167,326c-16.3,1.9-34.1,8.6-49,18.5
		c-16.8,11.1-36.1,33.9-35.9,42.4c0.1,2.4-1.6,7.1-5,14.5c-2.9,6-6.8,16.3-8.7,23c-1.9,6.7-4.1,14-4.8,16.3s-1.1,4.5-0.8,4.8
		c0.3,0.3,3.6,0.5,7.3,0.5h6.8l7.3-6.6c15.2-13.6,39.6-27.9,61.3-35.8c18.4-6.8,22.9-8.7,34-14.5c22.4-11.7,38.9-16.4,74.3-21.1
		c15.2-2,15.3-2,23.7-7c10.1-6.2,22.8-11.7,35.3-15.5c5-1.6,9-3,8.8-3.2c-0.5-0.5-25.2-6.3-26.7-6.3c-0.5,0-0.9,0.7-0.9,1.6
		c0,1.1-0.5,1.4-1.6,1c-0.9-0.3-2.9-0.6-4.5-0.6c-1.9,0-3.8-0.9-5.2-2.4c-2.1-2.2-4.1-2.6-23.2-5c-11.6-1.4-26.6-3-33.5-3.5
		C207.3,325.6,175.5,325,167,326z M412.3,330c-1.8,0-36.2,19.7-35.6,20.3c2.4,2.4,12.7-1.3,26.9-9.8c7.8-4.6,9.4-6,9.4-8
		C413,331.1,412.7,330,412.3,330z M640,330.7c0,1.5,6.8,5.4,10.2,5.9c3.3,0.6,11.7-2,10.6-3.2c-0.4-0.3-3.2-1.2-6.5-1.9
		C648,329.9,640,329.5,640,330.7z M477,336.5c-11.6,2.4-35,11.4-35,13.5c0,0.4,2.6,1,5.8,1.2c4.8,0.5,6.5,0.1,11.2-2.2
		c5.7-2.9,16.6-6.4,23-7.4c3.9-0.7,10-4,10-5.6C492,334.6,485,334.9,477,336.5z M414.5,336.1c-1.7,0.2-25,13.8-25.3,14.8
		c-0.4,1.2,11.8,2.5,16.5,1.7c10-1.7,9.1-0.9,9.5-9.2C415.4,338.9,415.1,336,414.5,336.1z M330.5,342.4
		c-21.7,4.7-40.3,12.3-57.4,23.2c-5,3.3-9.1,6.5-9.1,7.1c0,2.1,4.1,2.5,25.1,2.1l20.4-0.4l11.5-5.6c9.1-4.5,28.9-12.2,36.8-14.4
		c0.6-0.2,1.2-1,1.2-1.7c0-2-4.1-7.7-7.1-9.9C348,339.9,342.6,339.8,330.5,342.4z M361.8,342c-0.2,0-1.3,0.6-2.3,1.4
		c-1.7,1.2-1.8,1.6-0.4,5.2c1.5,3.9,1.6,3.9,6.4,3.6c2.7-0.1,5.3-0.6,5.8-1.1c0.4-0.4-1.4-2.7-4.1-5C364.4,343.9,362,342,361.8,342z
		 M734,346.4c-14.9-0.5-23.3,1.5-37,8.6c-11.5,6-24.3,18.6-32.8,32.5c-3.4,5.5-5.8,10.3-5.3,10.8c0.4,0.4,11,3.2,23.7,6.2
		c12.6,3,24.4,5.9,26.3,6.4c3.8,1.2,8.1,4.7,8.1,6.7c0,1.6-1.6,1.8-36.5,4.9c-87.2,7.8-113.3,6.4-225-11.5
		c-20.3-3.3-43.1-6.7-50.5-7.6c-17.3-2-64.6-3.2-63.6-1.5c0.4,0.6,2.3,1.1,4.3,1.1c5.2,0,14.8,2.7,21.7,6.2
		c7,3.6,51.9,32.2,53.6,34.3c0.9,1.1,0.7,1.8-0.9,3.4c-1.3,1.3-2.1,3.4-2.1,5.3c0,1.8-0.7,13.2-1.5,25.3
		c-0.8,12.1-1.5,25.1-1.5,28.8c0,6,0.2,6.8,1.8,6.4c0.9-0.3,18.1-3.3,38-6.8l36.4-6.3l1.5-3c3.5-6.8,9.5-25.5,11.8-37
		c3.1-15.3,3.2-19.5,0.4-23c-1.2-1.5-2-2.8-1.8-3c0.2-0.1,3.9-0.8,8.1-1.4c11.9-1.8,13.5-0.7,15.8,10.8c1.9,9.6,9.6,21.5,24,37.4
		c6.4,6.9,3.9,6.8,34,1.2c10.7-2,26.9-5,36-6.7c17.3-3.2,52.5-11.8,58.3-14.2l3.4-1.5l2-12.3c1.1-6.8,2-12.5,1.8-12.7
		c-0.1-0.1-10.1,0.4-22.1,1.1c-12,0.7-22.1,1.2-22.3,1c-1.3-1,2.7-1.5,22-2.8c22.9-1.6,35.8-1.9,38.3-0.9c2.9,1.1,1.9,6.6-2.3,13
		c-4.1,6.3-7.6,9.9-15.5,15.7c-4.2,3.2-4.6,3.7-2.5,3.7c4.5,0,44.1-4,45-4.6c0.5-0.3,0.9-7.2,0.9-15.3c0-21.6,2.8-34,11.3-49.3
		c19.7-35.8,50.7-44,63.2-16.6c8.6,18.7,7,39.9-4.6,62.9c-2.2,4.5-3.8,8.4-3.5,8.7c0.3,0.3,2.5-0.1,4.8-0.8
		c9.4-2.8,16.2-14.5,27.3-47.3c4.5-13.4,8.6-25.8,9-27.6l0.7-3.2l-4.1,2c-5.4,2.8-10.2,2.7-12.9-0.2c-12.3-13.3-16.1-15.2-39.8-20.1
		c-9.3-1.9-20.5-4.2-24.9-5.1C750.1,347.5,740.9,346.6,734,346.4z M433,351.6c-10-1-20.5,4.8-19.8,11.1c0.2,2.2,1.3,3.3,5.3,5.3
		c4.6,2.3,6.1,2.5,18.5,2.5c17.4,0,19.2-0.8,20.2-8.5c0.5-3.7,0.3-5.9-0.5-6.7c-0.7-0.7-5.5-1.7-10.7-2.3
		C440.8,352.5,434.9,351.8,433,351.6z M383.3,353.4c-13.6-0.3-20.3,0.8-35.9,6.1c-10.2,3.4-42.9,18.4-42,19.2
		c0.2,0.2,7.5,0.8,16.2,1.4c26.8,1.6,92.4,7.6,102.7,9.4c2.2,0.4,2.7,0.1,2.7-1.7c0-3.7-7.3-15.8-10.8-18c-1.8-1.1-4.4-3.7-5.6-5.7
		c-1.6-2.5-4.4-4.7-9-7C395.4,353.9,394.4,353.7,383.3,353.4z M416.1,353l-3.3,0.1c-1.8,0.1-5.1,0.5-7.2,0.8l-4,0.6l4.2,2.8
		c4.7,3.1,5.2,3,8.2-1.3L416.1,353z M664,361c0,1.1,11.9,4.3,13.6,3.6c2.7-1,1.6-4.3-1.7-5C670.2,358.5,664,359.2,664,361z
		 M775.5,365.9c-1.6,0.7-1.3,0.9,2,1.5c16.9,3.2,26.7,21.9,25.2,48.1c-0.8,12.7,0.8,10.6,2.4-3.2c1-8.5,0.9-11.2-0.5-18.4
		c-3.1-15.4-9.5-25.1-18.5-27.8C781.8,364.9,778.4,364.8,775.5,365.9z M244,371c-48.4,6.4-83.5,25.6-128.9,70.3
		c-12.6,12.4-26.7,28.3-29,32.6c-0.8,1.5-0.6,2.4,0.7,4.1l1.8,2.2l2.9-2.4c14.2-11.7,41.3-26.5,75-40.7c1.1-0.5,6-4.4,10.8-8.7
		c32.9-29.3,70.4-45.3,112.5-48c9-0.5,11.8-1.1,13.5-2.6c2.2-1.9,1.9-1.9-17.4-1.2c-20.5,0.7-23.9,0.2-23.9-3.4c0-1,0.5-2.3,1.2-3
		C264.8,368.6,261,368.7,244,371z M765.4,371.6c-12.2,4.3-26.9,25.4-32.5,46.4c-1.9,7-2.3,11.2-2.4,24c0,15.1,0.1,15.7,2.9,21.8
		c5.5,11.9,15.8,18.3,25.7,16.1c21.4-4.8,39.9-33.7,41.6-65.1c1.2-21.1-5.4-37.6-17.2-42.9C778.7,369.7,771.1,369.6,765.4,371.6z
		 M425,371.8c-1.7-0.3-3.2-0.3-3.4-0.1c-0.4,0.5,5.4,10.3,6,10.3c0.2,0,0.4-2.2,0.4-4.9C428,372.4,427.9,372.2,425,371.8z
		 M440.3,373h-5h-5l-0.6,8.2c-0.4,4.5-0.3,8.5,0.1,8.9c0.4,0.3,2.6,0.9,5,1.3l4.2,0.6v-5.7c0-3.2,0.3-7.5,0.6-9.6L440.3,373z
		 M647,377.6c-14.6,2.8-21.6,4.6-40.6,11c-24.7,8.2-40.3,12.2-60.4,15.4c-25.4,4-24.1,3.3-11,5.8c19.1,3.5,32.8,4.5,53,3.8
		c32.6-1.2,95-5.5,95-6.6c0-0.3-3.3-1.4-7.2-2.4c-12.8-3-17.9-4.7-18.5-6.2c-0.3-0.8,1.8-5.5,4.7-10.5c2.9-5,5-9.3,4.7-9.6
		C665.9,377.6,650.1,377,647,377.6z M288.5,382c-53.3,3.6-105.8,33.2-135.7,76.5l-4.1,6l3.4-3.3c4.1-3.8,5-3.9,28.4-1.7
		c8.8,0.8,19.3,1.5,23.3,1.5c3.9,0,7.2,0.3,7.2,0.7c0,0.5-1.1,4.3-2.4,8.5c-1.3,4.3-2.1,7.8-1.7,7.8c0.4,0,1.7-1.8,3-4
		c7.7-13.8,25.3-32.8,39.7-43.2c39.8-28.5,95.6-37.5,168.9-27.2c9.9,1.4,30.8,4.5,46.5,6.9c85.7,13.3,97.6,14.5,136.2,14.5
		c22.7,0,58.6-2.1,93.8-5.5c8.5-0.8,16.5-1.5,17.8-1.5c1.2,0,2.2-0.6,2.2-1.4c0-2.2-14.3-6.7-23-7.2c-4.1-0.3-22.6,0.6-41,2
		c-58.3,4.6-69.4,5-85.8,3.8c-14.5-1.2-38.8-5.1-93.2-15.2c-38.2-7.1-47.5-8.7-63-10.5c-16.7-1.9-66.6-6.2-81.5-7
		C304.1,381.3,300.1,381.3,288.5,382z M128.6,412.3c-15.8,7.4-38,22.3-47,31.5l-3.8,4l6.8,8.2l6.8,8.1l2.2-3.6
		c4.4-7.3,38.7-38.8,59.4-54.4c2.5-1.9,4.9-3.8,5.5-4.3C161.4,399.2,142.4,406,128.6,412.3z M315.5,405.1c-2.8,0.1-24.5,6.3-31.3,9
		c-21,8.3-37.4,19.2-52.5,34.9c-12.5,12.9-19.1,22.7-29.7,43.8c-10,19.9-15.5,26.4-26.4,31.7c-9.3,4.4-23.1,6.9-34,6.1
		c-4.3-0.3-7.7-0.4-7.4-0.1c0.8,0.9,19.2,4.3,32.8,6.2c16.3,2.2,61.7,2.5,71.3,0.5c3.1-0.7,8.2-1.7,11.2-2.3
		c4.8-0.9,5.4-1.3,4.6-2.8c-0.5-0.9-1.9-5.5-3.1-10.1c-11.1-43,12.2-90.6,54.5-111.5C311.5,407.5,316.1,405,315.5,405.1z M354,406.5
		c-2.4-0.4-0.5,0.9,6,4.1c24.4,12.1,38.2,37,36.7,66.7c-0.5,11.2-3.7,24.8-7.3,31.9c-1.1,2.2-1.3,3.3-0.5,4.1c1.4,1.4,12.4,2,18.1,1
		l4.5-0.9l0.7-6.4c0.4-3.6,1.4-17.8,2.3-31.7c0.9-13.8,1.8-26.7,2.2-28.6l0.5-3.4l-17.9-11.6c-9.9-6.4-23.3-14.5-29.9-18.1
		C362.9,410.1,355.9,406.9,354,406.5z M318.5,410c-24.2,6.3-43.6,22.9-55.5,47.4c-18.2,37.4-9.3,78.2,21,95.9
		c10.2,5.9,15.6,7.2,30.5,7.2c11.9-0.1,13.7-0.3,21.7-3.1c27.2-9.7,48.2-33.3,56.6-63.6c1.2-4.6,1.7-10.1,1.7-20.3
		c0-15.6-1.8-23.5-7.8-35c-7-13.2-23-25.5-37.8-29C340.3,407.5,327.1,407.7,318.5,410z M511.5,433.7c-5.3,0.7-5.4,0.8-4,5
		c1.8,5.1-0.2,19.9-4.4,34c-1.7,5.6-3.1,11-3.1,11.9c0,1-0.6,2.5-1.4,3.3c-2,2.2-5.5,13-4.5,13.7c0.8,0.5,20.8-2.7,39.4-6.2
		c4.4-0.8,9.2-1.6,10.7-1.8c10.5-1.4,12.9-1.9,13.4-2.7c0.3-0.5-2.3-3.9-5.7-7.5c-5.4-5.5-6.4-6.2-7-4.7c-0.6,1.4-0.8,1.2-0.8-0.9
		c-0.1-1.5-1.4-4.2-2.9-6c-9-10.6-15.8-23-16.8-30.9c-0.4-3-1.1-6-1.7-6.7C521.8,433.1,517.9,432.9,511.5,433.7z M164.3,440.1
		c-1.4,0.1-26.4,11.4-34.8,15.6c-14.1,7.3-39.4,23.5-39.5,25.4c0,0.4,3.9,0.9,8.8,1.1l8.7,0.5l10-5.2c5.5-2.9,13.4-6.7,17.5-8.4
		c8.8-3.6,13.8-7.4,18.2-13.9c1.7-2.6,5.1-7.1,7.5-10C163.2,442.4,164.8,440,164.3,440.1z M53.7,443.1c-6.3,0.1-23,4.6-24.5,6.6
		c-1.3,1.8-0.7,5.3,1.2,6.5c1.1,0.8,20.1,0.2,28.4-0.8c4.1-0.5,4.2-0.6,2.7-2.7c-0.9-1.2-2-3.9-2.6-6C58,443.2,57.8,443,53.7,443.1z
		 M62.8,447.4c-2.4-0.7-2.3,2.1,0.1,4.5c2.1,2.1,8.3,3.7,10,2.6c0.6-0.3,1.1-1.7,1.1-2.9c0-2.1-0.6-2.5-4.7-3
		C66.6,448.2,63.7,447.7,62.8,447.4z M77.4,451.1c-1-1.1-1.3-0.7-1.9,1.9c-0.7,3.3,1,6.6,7.2,13.9l2.9,3.4l1.8-2.7l1.7-2.7l-5.2-6.2
		C81,455.3,78.1,451.9,77.4,451.1z M56.5,457.7c-39.3,2.4-42.5,2.7-42.5,4.2c0,1.8,37.1,66.1,39.9,69l3.1,3.3l11.9-0.3
		c10.8-0.4,12.2-0.6,14.4-2.7c2-1.9,5.1-2.7,19.3-4.7c9.3-1.4,17.2-2.5,17.7-2.5c0.4,0,0.7-1.2,0.7-2.8c0-1.9-3.6-7.3-12.8-19.2
		c-11.1-14.3-13.3-16.7-16.7-17.8c-5.7-1.8-8.7-5.5-8-9.6c0.6-2.7,0-4.1-4-9.4c-2.6-3.4-5.5-6.7-6.5-7.2
		C71.2,457,67.7,457,56.5,457.7z M160.5,459.6c-3.9-0.6-5.5,0.6-11.8,9c-9.9,13.2-19.5,31.8-24.1,47.1c-0.9,2.9-0.2,2.9,19.9,0
		l15-2.2l0.5-3.5c0.4-2.7,0.7-3.1,1.3-1.7c0.9,2.4,0.9,6.7,0,6.7c-4.3-0.2-36.1,4.6-37.1,5.5c-2.1,1.9,4.1,6.2,10.8,7.6
		c11.3,2.4,36.2-1.1,40-5.6c0.7-0.8,2.1-1.5,3.1-1.5c1.1,0,3.6-1.6,5.7-3.6l3.7-3.5l-5.3,0.6c-3.9,0.5-5.8,0.3-7.6-0.9
		c-5.6-3.6-8.8-21.7-4.8-26.6c1.6-1.9,3.1-2.3,11-2.8l9.1-0.5l1.1,2.8c0.6,1.5,1.6,6.2,2.2,10.4l1.1,7.6l3-6.4c3-6.4,3-6.4,1-8
		c-4.5-3.5-5.7-10.3-2.5-13.8c0.9-1.1,3.6-2.5,6-3.2c4.3-1.2,5.2-2.4,6.8-8.5c0.5-2.2,0.5-2.2-7.3-1.4c-4.8,0.5-8.6,0.5-9.8-0.1
		c-1.1-0.5-8.1-1.5-15.5-2.1C168.6,460.4,161.6,459.8,160.5,459.6z M709,465c-8,1-18.9,2.1-24.2,2.5c-9.3,0.7-9.8,0.6-9.8-1.2
		c0-1.9-0.6-1.8-11.7,1.4c-12.2,3.5-36.4,8.6-70.3,14.7c-33.7,6.1-32.1,5.7-31.4,7.8c0.4,1.2-0.2,2.1-1.8,2.8
		c-1.3,0.5-17,3.4-35,6.5c-26.9,4.6-33,5.4-34.6,4.4c-1.6-1-6.6-0.4-27.8,3.4c-55.5,9.8-65.1,10.9-73.9,8.2c-1.7-0.5-2.4,0.1-3.8,3
		c-0.9,2-1.7,3.7-1.7,3.9c0,0.5,5.7,2.6,9.6,3.6c3.5,0.8,1.7,1.1,62.9-9.6c122.9-21.5,269.8-48.8,272.2-50.7c0.7-0.5,1-1.3,0.7-1.8
		C727.7,462.8,726.7,462.8,709,465z M143.1,467c-1.2,0-35,16.4-35,17c-0.1,0.8,15.7,20.4,16.7,20.8c0.5,0.1,4.9-8.3,10-18.8
		C139.8,475.6,143.5,467,143.1,467z M731.5,467.2c-0.5,0-5,1-10,2.3l-9,2.2l3.7,1.6c5.2,2.3,19.5,6.4,25.3,7.2l5,0.7l-4.3-3.1
		c-2.3-1.7-5.5-4.9-7-7.1C733.7,468.8,732.1,467.1,731.5,467.2z M201.7,474.7c-1.6,0.4-1.7,1.1-1.2,4.6c1,6.3,2,6.3,3.7,0.2
		C205.8,473.9,205.7,473.7,201.7,474.7z M196,480.9c0,4.9,0.8,7.1,2.6,7.1c1.7,0,1.9-4.6,0.4-8.4C197.6,475.8,196,476.5,196,480.9z
		 M101.4,485c-1.9,0-3.4,0.3-3.4,0.7c0,0.3,2.8,4.3,6.2,8.7c17.9,23.3,18.1,23.5,19.3,17.1c0.5-2.6-0.5-4.3-7-12.5
		c-4.2-5.2-8.5-10.5-9.7-11.8C105.5,485.8,103.6,485,101.4,485z M185,485.4c-3.6-0.1-9,0.5-9,1c0,0.2,1.2,2.9,2.6,6
		c2.2,4.8,2.5,6.8,2.2,13.1c-0.3,6.7-0.1,7.5,1.5,7.5c3.8,0,8.6-2.9,9.3-5.5c1-3.9-0.1-15.7-1.7-19.1
		C188.8,486.1,187.8,485.5,185,485.4z M171,488.5c-4.8,5.8,2.2,27.9,7.5,23.5c1.5-1.2,1.7-2.6,1.2-8.6c-0.3-4.3-1.3-8.8-2.6-11.1
		C174.8,487.8,172.7,486.4,171,488.5z M120,526l-2.8,0.1c-8,0.3-31.3,4.6-32.8,6.1c-1.4,1.4-1.3,2.1,1.6,7.9
		c7.2,14.3,14.4,26,18,29.3c6,5.4,11.9,6.8,31.7,7.3c24.1,0.8,56.5-1.5,97.3-6.7c16.5-2.1,45.6-6.7,47.9-7.5
		c2.3-0.9,0.6-1.6-5.1-2.2c-6.4-0.6-7.6-1.3-2.3-1.3h3.9l-7.6-7c-4.1-3.8-9-9.1-10.7-11.8l-3.1-4.8l-9.2,2.4
		c-8.2,2.2-12.1,2.5-32.6,2.9c-25.4,0.6-38.8-0.3-63.7-4.2c-11.3-1.8-17.2-3.2-22.1-5.5c-3.7-1.6-6.9-2.8-7.2-2.5
		c-0.3,0.3-0.6,2.8-0.6,5.6c-0.1,4.5,0.3,5.4,3.1,7.9c6.2,5.5,13.4,6.7,79.8,12.9c17.6,1.7,36.2,3.3,41.3,3.7
		c5.1,0.4,9.5,1.1,9.9,1.6c0.3,0.6-2.8,0.8-8.3,0.3c-46.8-3.5-97.9-8.9-109.2-11.5c-15.7-3.7-18.9-6.8-17.9-17L120,526z"/>
	<path d="M776.7,383.4c7,0.4,11.2,3.7,15.5,12.3c3.1,6.4,3.3,7.3,3.2,17.3c-0.1,17.4-5.5,32.3-15.8,43.7
		c-19.5,21.5-41.2,11-40.9-19.7c0.2-14.8,5.4-29.6,14.2-40.7c4.2-5.4,11.4-10.9,15.9-12.4C770.3,383.5,773.8,383.2,776.7,383.4z
		 M758.1,393.1c-8.8,8.9-13.8,18.7-16.7,33c-3.2,16.1,1.1,33.2,9.7,38.3c3.9,2.3,12.1,2.1,17.2-0.5c10.2-5.2,19.7-19.3,23.6-34.8
		c4.7-19.1,0.6-37.8-9.4-42.5C775,383,765.7,385.5,758.1,393.1z"/>
	<path d="M768.8,415.7c3,4.4,3.2,7.1,1.1,12.1c-3.5,8-6.9,10.2-10.1,6.4c-3.7-4.2-2.9-12.6,1.8-18.2
		C764.8,412.3,766.3,412.2,768.8,415.7z"/>
	<path d="M346.9,426.1c17,3.9,31.6,19.6,35.1,37.9c1.6,8,1.3,22.6-0.5,29.5c-4.2,16.2-16.3,33.5-29.9,42.8
		c-22.4,15.2-51.8,12.3-66.8-6.7c-8.3-10.5-11.8-21.1-11.8-36.1c0-11.8,2-19.9,7.7-31.5c4-8,6.1-10.9,13.7-18.5
		c9.6-9.5,17.1-14.1,27.8-16.9C328.4,424.9,340.7,424.6,346.9,426.1z M325.5,427.5c-21.8,4.8-40,22.2-48.1,46
		c-2.3,6.6-2.7,9.8-2.8,18.5c0,5.8,0.6,13,1.3,16c6.3,25.6,29,40.7,53.6,35.7c11.8-2.4,21.5-7.7,30.6-16.7c11.1-11,17-22,20.5-38
		c1.8-8.5,1.8-14.4-0.2-23.8c-2.2-10.5-5.6-17.2-12.4-24.6c-7-7.4-13.5-11.2-22.7-13.1C337.1,425.7,333.4,425.7,325.5,427.5z"/>
	<path d="M329.3,469c4.2,0,5.4,0.5,8.2,3.3c5.7,5.7,5.7,14.8-0.1,21.7c-3.6,4.2-7.4,6-13,6c-3.9,0-5.1-0.5-8-3.4c-3-3-3.4-4-3.4-8.7
		c0-6.8,3.1-13.2,7.8-16.4C323.5,469.7,325.8,469,329.3,469z M327.6,470.9c-0.4,0.6-1.7,1.1-3,1.1c-3.1,0-6.3,3.7-7.1,8.3
		c-0.5,2.7-1,3.5-1.6,2.5c-1.2-1.9-1.1,4.8,0.1,9.4c0.6,2.1,1.9,4.2,3,4.8c3.1,1.7,10.2,1.2,13.7-1c7.3-4.4,9.6-17.1,4.2-22.6
		C334.2,470.7,328.6,469.2,327.6,470.9z"/>
	<path d="M544.7,483.2c0.2,1,0.2,2.6,0,3.5c-0.3,1-0.5,0.2-0.5-1.7S544.4,482.3,544.7,483.2z"/>
</g>
</svg>
