<?xml version="1.0" encoding="utf-8"?>
<!-- Generator: Adobe Illustrator 21.0.0, SVG Export Plug-In . SVG Version: 6.00 Build 0)  -->
<svg version="1.1" baseProfile="tiny"
	 id="svg118" inkscape:version="0.92.2 5c3e80d, 2017-08-06" sodipodi:docname="23 #5650.svg" xmlns:cc="http://creativecommons.org/ns#" xmlns:dc="http://purl.org/dc/elements/1.1/" xmlns:inkscape="http://www.inkscape.org/namespaces/inkscape" xmlns:rdf="http://www.w3.org/1999/02/22-rdf-syntax-ns#" xmlns:sodipodi="http://sodipodi.sourceforge.net/DTD/sodipodi-0.dtd" xmlns:svg="http://www.w3.org/2000/svg"
	 xmlns="http://www.w3.org/2000/svg" xmlns:xlink="http://www.w3.org/1999/xlink" x="0px" y="0px" viewBox="0 0 850 850"
	 xml:space="preserve">
<sodipodi:namedview  bordercolor="#666666" borderopacity="1" gridtolerance="10" guidetolerance="10" id="namedview120" inkscape:current-layer="svg118" inkscape:cx="977.64258" inkscape:cy="559.22403" inkscape:pageopacity="0" inkscape:pageshadow="2" inkscape:window-height="978" inkscape:window-maximized="1" inkscape:window-width="1920" inkscape:window-x="0" inkscape:window-y="1" inkscape:zoom="0.58897835" objecttolerance="10" pagecolor="#ffffff" showgrid="false">
	</sodipodi:namedview>
<g id="g116" transform="translate(0.000000,0.000000) scale(1.00000,1.00000)">
	<path id="path4" fill="none" d="M0,0h425h425v425v425H425H0V425V0z M326,181c-1.7,0-2,1-2.2,10.2l-0.3,10.3L313,202
		c-5.8,0.3-11.4,1.1-12.5,1.7c-3.2,1.8-8.3,7.6-9.4,10.6c-2.6,6.8,0.2,19,5,22c1.1,0.7,1.9,1.5,1.9,1.9c0,0.5-9.2,0.8-20.5,0.8
		c-12.5,0-21.3,0.4-22.8,1.1c-1.3,0.6-3.1,2.4-4.1,4c-2.1,3.5-2.7,3.6-18.6,4.4c-22.7,1-56.9,3.5-98.5,7.1
		c-22.5,1.9-44.4,3.7-48.5,4l-7.5,0.6l-4.2-4.4l-4.3-4.3l-0.2-19c-0.3-16.1-0.5-19-1.8-19s-1.5,2.9-1.8,19.1l-0.2,19l-3.6,1.7
		c-4.2,2-6.8,7.4-5.9,11.8c0.6,2.5-1.4,6.5-14,27.9c-17,29.1-19.2,33.6-20.1,41.2c-0.6,5.6-0.6,5.8,2,6.8c1.5,0.5,3.9,1,5.3,1h2.6
		l-0.6,13.2c-0.6,17.2,0.8,55.5,2.8,73.3c4.3,38.4,6.8,44,20.4,45.2c5.7,0.5,6.1,0.7,5.5,2.7c-1.9,5.7-2.4,10-2.4,20.6
		c0,15.7,0.2,16,12.1,16H78v12.4c0,27,7.5,48,22.6,63.1c7,7,14.4,11.2,22,12.3c2.9,0.5,14.8,0.1,29.6-0.9
		c28.6-2.1,29.2-2.3,38.4-11.5c10-10.2,16.9-25.6,19.5-43.5c0.6-4.6,1.3-8.5,1.4-8.7c0.1-0.1,2.4,0.2,5.1,0.8c2.7,0.6,19.4,3,37,5.4
		c17.7,2.4,32.7,4.7,33.3,5c0.6,0.4,3.3,4,6,8c9.4,13.9,17.8,20.3,29.4,22.5c4.5,0.8,8,0.7,17.4-0.8c6.5-1.1,14.5-2.2,17.8-2.6
		c9-1.1,15.8-4,22-9.7l5.5-5l9.2,1.2c11,1.5,31.3,1.8,41.9,0.7l7.7-0.8l-0.1,14.8c-0.1,16.1,1.4,26,5.9,39.8
		c11.2,34.5,39,56.5,63.6,50.5c2.4-0.6,12.5-2.4,22.5-4c19.7-3.1,24.3-4.8,32.2-11.6c9.8-8.5,18.5-26.4,21.7-44.8
		c1.6-8.8,1.4-28.9-0.2-39.7l-0.6-3.5l7.9-1.7c10.8-2.3,16.1-2.1,24,0.9c15.4,5.9,16.9,6.3,20,5.8c2.9-0.5,3.1-0.3,3.8,2.8
		c5.1,24.5,18.2,46.3,34.5,57.1c8.2,5.4,16.1,7.9,25.5,7.9c10.8,0.1,49.1-6.4,55.4-9.3c2.5-1.3,7.8-5.4,11.7-9.3
		c5.6-5.6,8.1-9.1,11.8-16.6c7.2-14.8,8.8-22.4,9-42c0-9.1-0.2-19.5-0.7-23.1l-0.7-6.6l14.2-2.2c19.5-3,20.6-3.4,22.9-8.5
		c2.8-6.1,2.8-32.4,0-38.6c-1.4-3.2-1.7-5-1-7.5c0.5-1.8,1-18.3,1.2-36.6l0.2-33.4l-2.8-4.8c-3.5-5.9-8.7-9.4-22.2-14.6
		c-45.3-17.7-87.7-34-91-35.1c-5.8-1.8-6.1-2.1-3.1-3.7c4.1-2.1,4.8-5.3,4-18.4l-0.7-11.8l4.7-2.1c2.5-1.3,5.6-3.6,6.9-5.4
		c2.1-3,2.2-4,2.2-23.3c0-18.9-0.1-20.3-2.1-23c-7.3-9.7-21.8-8.8-27.2,1.7c-2,4.1-2.2,5.8-2.2,21.4c0,20.6,1,23.6,9,28l5,2.7v5.5
		v5.4h-22.4h-22.4l-21.9-24.7c-34.1-38.8-33.5-38.2-41.8-39.8c-2.2-0.5-24.5-0.9-49.5-1c-40.5-0.1-143.7-3.9-164.7-6.1
		c-5.1-0.5-5.2-0.6-5.8-4.5c-1.3-7.6-2.7-8.4-16.3-8.7l-12.1-0.4l3.4-4.3c1.8-2.5,3.6-5.8,4-7.6c0.6-2.7,1-3,3.4-2.6
		c20,3.8,48.3,7.9,49.2,7c0.6-0.6,2.1-5.9,3.5-11.9c2-8.7,2.2-11,1.2-12c-0.7-0.7-20.9-6.5-44.8-13c-23.9-6.5-43.6-12.2-43.8-12.6
		C328,181.4,327,181,326,181z"/>
	<path id="path6" fill="#FFA500" d="M328,186.4l41.8,11.3c22.9,6.3,42.2,11.6,42.9,11.8c0.8,0.3,0.6,2.8-0.8,9.2
		c-1.1,4.8-2.2,8.9-2.4,9.1c-0.5,0.5-44.4-6.8-47.1-7.8c-1.2-0.5-2.5-2.4-3.2-4.7c-1.4-4.5-6.4-10-10.9-11.9
		c-1.9-0.8-6.9-1.4-11.8-1.4H328v-7.8V186.4z"/>
	<path id="path8" fill="#FFA500" d="M325,206c22.9,0,24.9,0.5,29,7.2c2.4,3.9,2.7,11.6,0.6,15.6c-4,7.7-8.9,9.2-30.6,9.2
		c-15.2,0-16.9-0.2-21-2.3c-6.1-3-9-7.6-9-14.1c0-6,2.5-10.7,7.2-13.6C304.2,206.2,306.3,206,325,206z"/>
	<path id="path10" fill="#FFA500" d="M256.1,243h58.6c53.2,0,58.8,0.2,60.5,1.7c2.2,1.9,2.3,5.2,0.4,7.9c-1.4,1.8-3.3,1.9-59.4,2.2
		c-57.4,0.2-57.9,0.2-60.5-1.8c-3.1-2.4-3.4-4.6-1.1-7.8L256.1,243z"/>
	<path id="path12" fill="#808000" d="M246.5,251.1c1.2,0,3.3,1.4,5.1,3.6l3.2,3.8l56.3,0.3c49,0.3,57.2,0.1,62.4-1.3
		c5.6-1.5,9.7-1.4,59.9,1c29.6,1.4,54.3,2.5,54.9,2.5c0.6,0,0.8,0.2,0.5,0.5c-0.3,0.3-7.7,1.2-16.6,2c-16.5,1.4-18.9,2-23.3,6.1
		l-2.5,2.4l-52.5-3c-28.8-1.7-72.4-4.2-96.9-5.6s-62.3-3.6-84-4.8c-42-2.4-43-2.8-12-4.7c10.2-0.6,24.1-1.4,31-1.8
		C238.9,251.6,245.4,251.2,246.5,251.1z"/>
	<path id="path14" fill="#556B2F" d="M70,257.8c4.4,3.5,1.7,11.2-3.9,11.2c-3.2,0-4.4-0.8-6-3.7c-1.6-3.1-1.4-4.1,1.4-6.8
		C64.4,255.5,67,255.3,70,257.8z"/>
	<path id="path16" fill="#556B2F" d="M719.8,260.5l3.2,3.5v18.6v18.6l-3.3,3.3c-1.9,1.9-4.6,3.7-6.1,4.1c-4,1-9.7-1.6-12.4-5.6
		c-2.2-3.4-2.3-4-2-21.6c0.3-20.1,0.6-21,7.3-24C711.1,255.2,716,256.4,719.8,260.5z"/>
	<path id="path18" fill="#D2691E" d="M144,258.2c7.8-0.1,8.3-1.9-9.9,38.3c-19.6,43.4-19.5,43.2-22,44c-1.1,0.3-12,0.1-24.3-0.4
		c-12.3-0.6-31.4-1.3-42.5-1.7L25,337.7v-3.1c0-4.4,5.2-14.7,20.3-40.4l13.1-22.3l5.8,0.7c6,0.7,6.8,0.3,12.6-7
		c0.7-0.9,2.5-1.6,4-1.7c1.5,0,15.5-1.3,31.2-2.8C127.7,259.5,142.1,258.2,144,258.2z"/>
	<path id="path20" fill="#D2691E" d="M162.9,259.4c3.6,0.4,26.6,1.8,51.1,3.1c24.5,1.4,55.7,3.2,69.4,4c13.6,0.8,26.4,1.5,28.3,1.5
		c3.3,0,3.5,0.1,2.8,2.7c-0.3,1.5-6.9,19-14.6,38.9c-7.6,19.9-14.3,38.3-14.9,40.8c-0.7,3-0.8,18.6-0.3,45.8l0.6,41.1l-10.4-0.8
		c-5.7-0.4-12.4-1-14.9-1.3l-4.5-0.7l-0.2-13.5c-0.3-16.1-2.9-88.2-4.4-120.5c-0.5-12.7-1.5-24.3-2.1-25.8c-1.9-5-4.5-5.5-30.5-6.3
		c-22.4-0.7-24.2-0.6-27.2,1.2c-4,2.4-4.8,4.1-18,39.5c-7.5,20.2-11.3,32.2-12.2,37.5c-0.9,6-0.9,14.5-0.1,35.9
		c0.6,15.4,0.9,28.1,0.7,28.3c-0.2,0.2-2.6-1.2-5.4-3l-5.1-3.3V373c0-17.5,0.5-33.4,1.1-35.9c0.5-2.3,6.1-16,12.4-30.2
		c6.3-14.3,11.5-26.6,11.5-27.4c0-3.3-4.1-4.5-15.7-4.5c-6.2,0-11.3-0.4-11.3-0.9c0-1.3,5-12.4,6.3-13.9
		C156.1,259.2,158.1,259,162.9,259.4z"/>
	<path id="path22" fill="#FDF5E6" d="M577.2,262.4c20.6,0.3,23,0.5,27,2.4c3.4,1.7,10.7,9.4,33.2,34.8c18.6,21,28.5,32.9,27.8,33.6
		c-0.5,0.5-16.6,2-35.8,3.4c-43.8,3-77.7,5.6-125,9.5c-41.8,3.4-42.6,3.4-45.6-3.2c-1.5-3-6.7-40.4-8.4-59.5
		c-0.8-9,0.9-12.9,6.4-14.3c5.1-1.3,38.1-3.9,70.7-5.6C542.4,262.7,564.7,262.3,577.2,262.4z M581,272.2c-8.5,0.4-36.6,1.6-62.3,2.8
		c-25.7,1.1-47.8,2.5-49,2.9c-6.7,2.6-7.4,7.3-5.1,32.2c2.1,22.7,2.1,22.8,6.4,27.1c4.5,4.5,4.9,4.5,30,2.3
		c9.1-0.8,41.7-3.2,72.5-5.4s59.9-4.3,64.7-4.7c10.2-0.7,12.8-2,11.1-5.5c-1.6-3.5-41-48.6-43.6-50.1
		C601.9,271.8,597,271.5,581,272.2z"/>
	<path id="path24" fill="#7FFFD4" d="M604.7,276.6c3.1,2.3,42.3,47.1,42.3,48.4c0,1-1.8,1.1-61.5,5.6c-26.4,1.9-61.3,4.6-77.5,5.9
		c-27.8,2.2-29.7,2.2-33,0.7c-5.5-2.6-7-9.7-8.6-38.8c-0.6-12.8-0.6-13.1,1.8-15.8l2.4-2.8l58-2.8
		C596.2,273.7,600.7,273.7,604.7,276.6z"/>
	<path id="path26" fill="#B8860B" d="M354,270.5c13.5,0.8,25.9,1.5,27.5,1.5h3l-4,2.3c-4.9,2.8-8.1,7.4-9,13
		c-0.4,2.3-1.5,5.5-2.5,7.2c-0.9,1.6-7,11.8-13.5,22.5c-15.7,25.9-17.4,29.7-18.1,39.6c-0.2,4.3-0.1,25.2,0.3,46.4
		c0.5,21.2,0.7,38.7,0.6,38.9c-0.4,0.5-49.3-3.8-50.2-4.3c-0.3-0.2-0.6-20.1-0.6-44.3v-43.8l6.2-16c3.4-8.8,9.8-25.6,14.3-37.4
		c4.4-11.8,8.8-22.7,9.6-24.3C319.4,268.4,319,268.4,354,270.5z"/>
	<path id="path28" fill="#B8860B" d="M215.9,270.7c25.2,0.5,27.7,0.8,29.7,3.7c1.8,2.9,5,58.6,5.9,102.8c0.3,15.6,0.8,34.7,1,42.5
		l0.6,14.3h-3.6c-3.2,0-45-4.3-68.8-7.1c-9.2-1.1-9.9-1.3-12.1-4.3c-3.6-4.9-3.9-6.1-4.7-23.1c-1.3-26.7-1-51.6,0.6-58
		c1.5-5.5,19.9-56,23.5-64.3c1.3-3,2.9-4.7,5.1-5.6C195.6,270.6,201,270.3,215.9,270.7z M201.5,284c-3.6,1.4-5.2,4.3-11.9,22
		c-3.7,9.6-7.1,18.5-7.6,19.8c-1.4,3.4-1.2,8.8,0.4,10.5c1,1,5.6,1.6,16.8,2.1c8.4,0.3,20.5,0.9,26.8,1.2c15.2,0.9,15,1.1,15-13.9
		c-0.1-6.2-0.5-16.9-0.9-24c-0.9-14.6-1.8-16.3-8.5-17.1C224.2,283.7,203.5,283.3,201.5,284z"/>
	<path id="path30" fill="#FDF5E6" d="M224.3,286.7c8.5,0.5,10,0.9,11.2,2.7c1.5,2.4,4.1,42.2,2.9,45.8c-0.6,2.1-0.8,2.1-23.8,1.4
		c-12.7-0.5-24.9-1.1-27.1-1.5c-3.9-0.7-4-0.8-3.8-4.4c0.3-4.6,13.8-39.8,16.4-42.6C202.3,285.7,206.7,285.5,224.3,286.7z"/>
	<path id="path32" fill="#B8860B" d="M395.7,273c3.9,0,40.1,2.1,44.9,2.6l5.2,0.5l0.7,7.7c0.3,4.2,2,18.5,3.6,31.7
		c3.3,26.4,4.8,31.4,10,34.3c7.4,4.1,6.8-0.1,6.9,47.2c0.1,23.4,0.1,43,0.1,43.7c-0.1,0.6-2.3,2.7-5,4.6c-3.1,2.3-8.7,8.7-16.1,18.6
		c-10.6,14.3-11.5,15.1-14.6,15.1c-1.9,0-14.3-1.3-27.7-3c-13.3-1.6-35.7-4.3-49.7-6c-14-1.7-32.7-3.9-41.5-5
		c-8.8-1.1-29.3-3.5-45.5-5.5c-66.7-8-79.5-9.7-80.1-10.3c-0.3-0.4-3.6-5.1-7.3-10.5c-4.6-6.7-6.3-9.7-5.2-9.7c0.9,0,9.4,0.9,18.9,2
		c21.4,2.4,69.1,7.1,106.7,10.5c34.4,3.1,53.6,5.2,99,11c40.8,5.1,39.3,5.3,39.8-4.3c0.3-5.9-5-93.4-8.3-139.2
		c-1.6-21.5-2.3-24.2-6.9-26c-1.2-0.4-6.4-1.1-11.4-1.5c-8.5-0.7-9.6-1-13.7-4.3c-2.5-1.9-4.5-3.6-4.5-3.8
		C394,273.2,394.8,273,395.7,273z"/>
	<path id="path34" fill="#CD853F" d="M394.7,278.5c4.4,2.9,5.3,7,5.3,24.2c0,18.1-1,21.3-7.4,24.6c-4.7,2.5-9.5,1.6-13.5-2.4
		c-3.8-3.8-4.4-7.6-3.9-26c0.3-16,1.1-18.3,7.1-21.3C386,275.7,391,276.1,394.7,278.5z"/>
	<path id="path36" fill="#B8860B" d="M162.9,277.7c5.9,0.4,9.5,1.1,9.8,1.8c0.5,1.4-9.4,25-15.9,37.9c-7.4,14.8-8.1,18.9-8.6,55
		l-0.4,31.8l-11.1-0.6c-6.2-0.4-12.5-0.9-14-1.2l-2.8-0.6l0.3-33.1l0.3-33.2l12.3-27c6.8-14.9,13-28,13.8-29.3
		C148.2,276.7,149,276.7,162.9,277.7z"/>
	<path id="path38" fill="#808000" d="M423,285.5c1,0.3,2.3,1.8,2.8,3.3c1.3,3.2,5.8,69,4.8,69.9c-1.3,1.3-30.1,2.5-32.9,1.4
		c-2.8-1.1-4.7-4.5-4.7-8.3c0-1.9,0.4-2,8.3-1.4c14.7,1.2,17.9,1.1,19.4-1c1.1-1.5,1.3-6.7,1.1-26.5c-0.4-29.3,0-28.4-10.8-29.5
		l-6.8-0.6l-0.5-4.1c-0.3-2.3-0.4-4.4-0.2-4.7C403.9,283.3,420.1,284.6,423,285.5z"/>
	<path id="path40" fill="#FDF5E6" d="M404,295.4l6.1,0.6c9.2,0.9,9,0.2,8.7,28.5l-0.3,24l-9.5-0.3c-5.2-0.1-11-0.5-12.7-0.8
		l-3.3-0.5v-7.1c0-7.1,0-7.1,4.4-11.2c5.5-5.1,6.6-8.9,6.6-22.6V295.4z"/>
	<path id="path42" fill="#808000" d="M370.5,296.8l0.3,5.9c0.3,5.5-0.2,7-6.8,21.2c-3.8,8.4-7,16.3-7,17.5c0,4.3,2.8,5.5,15.1,6.6
		c6.2,0.5,12.6,1,14.2,1c1.9,0,2.7,0.5,2.7,1.7c0,3.7,2.2,9.4,4.3,11.4c2.1,2,2.9,2.1,20.3,1.6l18.1-0.5l0.7,12.2
		c0.4,6.6,1.6,26.2,2.7,43.4c2,32.6,1.9,35.2-2,35.2c-1,0-15.1-1.6-31.2-3.5c-16.2-2-35.2-4.2-42.4-5c-14.6-1.7-17.5-3.1-18.7-8.6
		c-0.4-1.9-0.7-21.2-0.8-42.9c0-32.6,0.2-40.6,1.5-45.5c1.1-4.2,5.6-12.7,15.3-28.8L370.5,296.8z"/>
	<path id="path44" fill="#FDF5E6" d="M370.3,316.9l2.6,5.2c3,6.1,6.4,8.9,11.8,9.8l3.8,0.6l0.3,7.3l0.3,7.3l-4.8-0.6
		c-2.6-0.3-9-0.9-14.2-1.5c-5.2-0.5-9.9-1.4-10.4-1.9c-0.6-0.6,1.2-5.6,4.8-13.6L370.3,316.9z"/>
	<path id="path46" fill="#556B2F" d="M688.8,328H710v5.5c0,6.6-0.6,7.1-10,6.9c-5-0.2-9.1-1.2-17.5-4.4c-6-2.3-11.9-5.1-13-6.1
		C667.6,328,668,328,688.8,328z"/>
	<path id="path48" fill="#D2691E" d="M669.4,336.1c1.7-0.1,15.7,5.1,94.6,35.1c12.9,4.9,27.8,10.5,33,12.5
		c13,4.8,19.4,8.1,22.6,11.4l2.6,2.8l-3.3,0.5C806.6,400.5,656.8,416,649,416c-10.5,0-10.1,0.1-106.5-37.5
		c-6-2.4-18.4-7.2-27.5-10.8c-9.1-3.5-21.4-8.4-27.3-10.7c-6-2.3-10.7-4.4-10.4-4.6c0.6-0.7,130.2-11,169.5-13.4
		c8.9-0.6,17.2-1.5,18.5-2C666.5,336.5,668.4,336.1,669.4,336.1z"/>
	<path id="path50" fill="#D2691E" d="M116.8,342.1c0.1-0.1,0.2,13.4,0.2,29.9v30h-6.7c-7.5,0-13.4,2.2-16.9,6.1
		c-2.6,2.9-27.9,50.4-30.3,56.8c-1.6,4.5-1.8,4.6-6.3,4.9c-6,0.4-11.3-1.9-13.2-5.6c-1.7-3.4-5-22-6.5-37.2
		c-1.4-13.6-1.9-26.7-2.6-58.3L33.9,343l21.3,0.1c11.7,0,29.2,0.4,38.8,0.9c13.8,0.6,18,0.5,20-0.5
		C115.4,342.8,116.6,342.2,116.8,342.1z"/>
	<path id="path52" fill="#D2691E" d="M470.2,354.3c1.7,0.7,43.5,17.1,113.3,44.3c38.2,14.9,45,17.7,45.6,18.3
		c0.4,0.3-0.2,18.4-1.2,40.1s-1.8,40.7-1.8,42.2L626,502h-16c-19.7,0-21.5-0.6-26.7-8.7c-5-7.9-11.3-14.4-21.3-22.1
		c-4.7-3.6-12.8-10-18-14.2c-9.7-7.8-13.5-10.3-18-11.3c-1.4-0.3-14.4-1.3-29-2.2s-26.6-1.8-26.6-1.8c-0.1-0.1-0.5-19.9-0.8-44.1
		C469,361.3,469.1,353.8,470.2,354.3z M507.2,398c-0.9,0-1.2,4.1-1.2,16.9v16.9l18.3,6.1c10,3.4,18.8,6.1,19.5,6.1
		c1.7,0,1.7-32.3,0-33.7c-0.7-0.6-9-3.6-18.3-6.7C516.1,400.5,507.9,398,507.2,398z"/>
	<path id="path54" fill="#7FFFD4" d="M510.2,403c0.7,0,7.9,2.2,15.8,4.8l14.5,4.9l0.3,13.1c0.1,7.3-0.1,13.2-0.5,13.2
		c-1.3,0-27.7-9-29.2-9.9c-1-0.7-1.5-4.2-1.9-13.5C508.9,405.3,509,403,510.2,403z"/>
	<path id="path56" fill="#808000" d="M824.6,404.7c1.1,4.1-0.4,64.4-1.6,67.9c-0.6,1.7-2.1,3.6-3.3,4.2c-1.2,0.6-14.6,2.5-29.7,4.2
		c-27.7,3.2-58.4,7-124.3,15.5c-19.7,2.6-36.1,4.4-36.4,4.1c-0.6-0.6,2.6-81.6,3.3-82.7c0.2-0.3,4,0.1,8.4,1
		c7.6,1.4,9.5,1.4,30.8-0.7c28.8-2.9,99.4-10.5,126.2-13.6C825.2,401.5,823.8,401.4,824.6,404.7z M812.7,412.1
		c-0.7,0.1-4.4,0.5-8.4,1s-17,1.8-29,2.9c-77.8,7.2-117.1,11.2-119.2,12.1c-1.7,0.7-2.1,1.3-1.3,2.1c0.7,0.7,6.1,0.5,18.4-0.6
		c20-1.9,64.8-6.3,109.2-10.6c17.1-1.6,31.4-3.4,31.9-3.9s0.6-1.4,0.3-2C814.2,412.5,813.3,412.1,812.7,412.1z M776.5,427
		c-15.4,1.5-47.8,4.6-72,6.9c-45.8,4.3-49.6,4.8-50.3,6.9c-0.6,1.8,1.7,1.7,69-4.8c34.3-3.2,67.9-6.4,74.8-7c13-1.2,17.5-2.3,16.5-4
		C813.6,423.6,808.4,423.9,776.5,427z M789,437.6c-13.4,1.4-57.1,5.6-104.8,10.1c-16.1,1.5-29.8,3.1-30.5,3.5c-0.9,0.5-0.9,1,0,1.9
		c0.9,0.9,9.1,0.4,34.5-2c133.9-12.6,126.7-11.8,125.3-14.2C812.7,435.7,804.5,435.9,789,437.6z M792.5,448.5
		c-6.6,0.7-27.1,2.7-45.5,4.5c-98.1,9.3-96.1,9-92.8,11.4c1.2,0.9,6.2,0.7,19.9-0.6c41.4-3.9,82-7.8,109.1-10.4
		c15.9-1.5,29.3-3.1,29.9-3.5c0.6-0.4,0.8-1.2,0.5-1.8C812.7,446.8,808.2,446.9,792.5,448.5z M810,459.1c-0.8,0.1-23.5,2.3-50.5,4.9
		c-26.9,2.6-61.6,6-77,7.5c-15.4,1.4-28.4,3.1-29,3.6c-0.5,0.6-0.5,1.3,0.1,1.9c0.8,0.8,92.9-7.4,152.7-13.6
		c6.8-0.7,9.1-1.9,6.6-3.5C812.1,459.4,810.8,459.1,810,459.1z M788,472.6c-7.4,0.7-34.9,3.3-61,5.8c-26.1,2.6-52.9,5.1-59.5,5.7
		c-7.3,0.7-12.6,1.7-13.4,2.5c-1.3,1.1-1.2,1.4,0.1,1.9c2.3,0.9,155.8-13.8,157.9-15.1c0.5-0.3,0.9-0.9,0.9-1.5
		C813,470.7,805,470.9,788,472.6z"/>
	<path id="path58" fill="#808000" d="M116.5,405.9c1.8,0.7,1.5,1-2.1,2.9c-5.3,2.7-7.1,4.9-5.8,7c1.5,2.3,4.9,3,20.8,4.2
		c12.6,1,14.3,1.3,16.1,3.3c2.9,3.3,19.8,29.7,19.3,30.2c-0.2,0.2-11,1-23.9,1.8c-21.4,1.3-24,1.6-29,3.9
		c-15.5,7.2-26,22.2-31.9,45.6l-1.1,4.3l-8.7-0.3l-8.7-0.3l-0.6-5.5c-0.9-8,0.6-20.8,3.6-30.5c4-13.2,28.9-60.1,33.8-63.7
		c1.4-1,4.5-2.3,6.9-2.7C110.7,405,114,404.9,116.5,405.9z"/>
	<path id="path60" fill="#B8860B" d="M136,407.6c12.8,0.7,17.2,2,20.8,5.7c1.6,1.8,9.8,13.1,18.1,25.3l15.1,22.1l3.5,21.9
		c1.9,12,3.8,23.6,4.1,25.6c0.7,4.4,2,5.6,4,3.6c1.2-1.1,2.8-1.3,7.7-0.6c3.4,0.5,20.9,2.8,39,5.2c18,2.4,32.9,4.5,33.1,4.7
		c0.2,0.2,0.6,5.1,0.9,10.8l0.5,10.3l-6.1-0.6c-15.3-1.7-56.6-7.7-60.6-8.7c-2.4-0.7-5.7-2.6-7.5-4.4c-3-3.2-3.3-3.3-13.4-3.7
		c-7.6-0.3-10.6-0.8-11.2-1.8c-0.6-0.8-1-6.9-1-13.5c-0.1-6.6-0.5-17.7-0.9-24.7c-0.7-10.8-1.2-13.6-3.3-17.7
		c-3.1-5.9-28.3-44.7-31-47.8c-1.7-1.8-3.4-2.2-13.6-2.7c-14.4-0.8-20.2-1.5-20.2-2.4c0-0.4,2.8-2.2,6.3-4
		C126.3,407.1,126.7,407,136,407.6z"/>
	<path id="path62" fill="#808000" d="M474,446c10.9,0,48.3,2.9,52.2,4c3.9,1.1,6.8,3.2,30.2,21.7c13.1,10.3,15.8,13.1,22.2,21.8
		c3.9,5.5,6.8,10.4,6.4,10.8c-0.4,0.4-4.7,1.1-9.6,1.4c-11.2,0.7-13.4-0.3-20.7-9.5c-11-13.6-36.9-35.9-46.4-39.8
		c-4.1-1.8-20-4-35.5-5c-6-0.4-10.8-1-10.8-1.3c0-0.4,1.2-1.4,2.8-2.3C466.6,446.6,469.6,446,474,446z"/>
	<path id="path64" fill="#BDB76B" d="M190.5,453c0.6,0,42.2,5,121.5,14.5c16.2,2,37.2,4.5,46.5,5.6c41.2,4.8,72.8,8.9,73.2,9.2
		c0.2,0.3-1,2.6-2.8,5.2c-4.4,6.5-7.4,15.7-10.4,32c-1.4,7.7-2.7,14.5-3,15.2c-0.4,1.1-3.8,1-10.3-0.3c-2.3-0.5-2.3-0.7-2.1-13.1
		c0.1-7-0.3-12.9-0.7-13c-0.5-0.2-15.3-1.8-32.9-3.7c-21.3-2.3-32.3-3.2-33-2.5c-0.5,0.6-1.7,5.8-2.5,11.7l-1.5,10.6l-4.5-0.3
		c-2.5-0.1-13.3-1.5-24-2.9l-19.5-2.7l-1.1-14.1c-1.2-16.2-2.2-18.7-8.3-20.4c-4.6-1.2-50-7-55.3-7c-8,0-10.2,2.6-15.2,17.7
		c-2.7,8.1-4.6,10.6-4.6,6c0-6.7-6-40.2-7.9-43.7C191,454.8,190.2,453,190.5,453z"/>
	<path id="path66" fill="#B8860B" d="M462,454.5c1.4,0.3,8.8,0.9,16.5,1.5c27,2.1,28.9,2.7,42,13.3c12.7,10.3,19.5,16.6,28.9,27.1
		c11.6,12.7,14.2,14.1,25.9,13.2c4.9-0.4,10.8-1.3,13-2c2.3-0.8,8.6-1.4,13.9-1.5c14.6-0.1,31.1-1.7,74.3-7.2
		c67.5-8.6,109.5-13.7,126-15.4c8.8-1,17.2-2.3,18.7-3c3.4-1.6,5.1,0.1,2.2,2.2C819,485.9,812.5,487,717,500
		c-16.2,2.2-37.6,5.2-47.5,6.6c-14.5,2.1-22.6,2.7-41.9,2.9c-18.5,0.3-24.2,0.7-25.3,1.7c-1.7,1.8-3.3,11.3-3.3,20.1
		c0,9.2,1.3,10.4,17.6,15.8c16.1,5.2,22.7,5.4,46.9,1.5c18-2.9,27.3-4.4,63.5-10.1c12.4-1.9,23.7-3.8,25.3-4.1
		c2.6-0.5,2.7-0.4,2.7,3.9c0,2.4-0.6,4.9-1.2,5.5C752.3,545,644.1,563,638.5,563c-2.2,0-8.1-1.7-13.6-4c-10.9-4.4-15.2-4.9-25.9-2.5
		c-10.6,2.3-11.7,2.1-12.5-2.3c-1.1-6.3-7.9-21.5-12.8-28.9c-6.3-9.5-17-19.4-25-23.2c-9-4.3-15.7-5-33.4-3.4
		c-30.1,2.6-39.9,5.8-50.2,16c-7.3,7.4-11.5,14.8-16.7,29.7c-2.9,8.4-4.7,12.2-6,12.6c-2.5,0.9-26.4,2.3-26.4,1.6
		c0-3.5,8.6-51.3,10.1-56.2c1.2-3.7,4.3-9.9,7.5-14.5c6.7-9.9,23.4-32.2,24.8-33.1C458.9,454.4,460.6,454.3,462,454.5z"/>
	<path id="path68" fill="#778899" d="M159,458.1l9.5-0.1l4.5,6.6l4.4,6.5l0.7,11.7c0.4,6.4,0.8,18.1,0.8,25.8
		c0.1,12.2,0.4,14.5,1.9,16.4c2,2.5,8.1,3.8,17.8,3.9c7.6,0.1,8.9,2,8.1,11.8c-1.4,17.9-8.3,34-19.2,45c-8.2,8.3-9.7,8.8-26.5,9.8
		l-11.5,0.7l6.2-5.9c9.9-9.4,14.9-18.5,19.5-35.5c1.8-6.9,2.2-11,2.3-24.3c0-19.1-1.8-27.2-9.5-43.2c-5.3-10.8-13.6-21.1-20.8-25.5
		l-3.7-2.3l3-0.6C148.2,458.5,153.8,458.2,159,458.1z"/>
	<path id="path70" fill="#778899" d="M141.3,463.3c12.4,6.1,24.9,23.9,29.8,42.2c2.6,10.2,3.7,31.3,2,41.1
		c-4,22.7-15.8,41.2-30.8,48.2c-4.6,2.1-7.3,2.6-13.3,2.7c-10.4,0-18.3-3.8-27.1-13.3C87.5,569,80,544.6,82.1,519.4
		c0.8-10.8,4.3-25.4,7.6-31.7c6.6-13,16.9-23.1,26.7-26.3C123,459.2,134.7,460.1,141.3,463.3z M105.3,493.4
		c-7.7,8.7-11.3,19.7-11.3,34.1c0.1,26.1,13.7,45.9,31.5,45.9c7.5,0,12.7-2.5,18.4-9c7.9-9,11.3-19.2,11.3-34.4
		c0.1-19.2-7.4-35.3-19.8-42.6C125.4,481.6,113.7,483.9,105.3,493.4z"/>
	<path id="path72" fill="#800080" d="M132.8,488.9c4.9,2.5,11.4,9.6,14.5,15.8c3.9,7.9,5.2,14.1,5.2,25.3c0,15.4-2.9,24.1-10.8,32.8
		c-9.7,10.5-22,11-31.8,1.2c-9.1-9.1-13.4-21.3-13.3-37.5c0.2-17.7,7-31.4,18.6-37.8C119.6,486.4,128,486.5,132.8,488.9z
		 M115.3,503.7c-8.6,4.8-12.8,17.6-10.3,31.3c2.3,12.5,8.5,20,16.7,20c4.2,0,5.1-0.4,8.8-4.4c8.4-8.7,9.8-24.6,3.3-37.6
		c-2.7-5.4-4.1-6.9-7.8-8.8C120.7,501.5,119.4,501.5,115.3,503.7z"/>
	<path id="path74" fill="#800080" d="M126,507.2c5.1,3.5,8.3,10.5,8.8,19.7c1.4,23.9-14.7,35-24.2,16.7c-5.9-11.3-4.4-27.7,3-35.2
		C117.7,504.3,121.2,504,126,507.2z"/>
	<path id="path76" fill="#00BFFF" d="M246.3,482.5c27.5,3.5,32.2,4.8,33.2,8.8c0.6,2.3,2.3,26,1.9,26.5c-0.2,0.3-77.7-9.8-78.2-10.2
		c-0.4-0.4,6.8-20.6,8.4-23.8c0.8-1.5,2.2-3.2,3.1-3.7C217.2,478.7,216.6,478.6,246.3,482.5z"/>
	<path id="path78" fill="#808000" d="M824.5,487.5l0.3,14.5c0.2,13.4,0.1,14.6-1.7,16.1c-1.2,1-7.4,2.5-15.4,3.8
		c-19.9,3.1-17.7,4.7-17.7-12.8c0-13.4,0.2-15,1.8-15.5c0.9-0.3,7-1.2,13.5-2.1s13.5-2.1,15.5-2.8L824.5,487.5z M821.1,493l-3.3,0.1
		c-5.6,0.2-19.7,2.4-20.5,3.2c-1,1-1.3,20.2-0.3,21.7c0.6,1,3.4,0.8,12.1-0.6l11.4-1.9l0.3-11.3L821.1,493z"/>
	<path id="path80" fill="#00BFFF" d="M815.3,496.1l3.8-0.1l-0.3,8.7l-0.3,8.7l-7.5,1.2c-13,2.1-12,2.8-12-7.5v-9l4.8-0.6
		c2.6-0.3,5.4-0.8,6.2-0.9C810.8,496.4,813.2,496.2,815.3,496.1z"/>
	<path id="path82" fill="#808000" d="M785.8,494.1c0.9-0.1,1.2,3.6,1.2,15.3v15.4l-2.7,0.6c-1.6,0.3-9.8,1.7-18.3,3
		c-21.9,3.5-67.2,10.6-69,10.9c-1.3,0.2-1.5-2.2-1.8-15.6c-0.2-15.5-0.2-15.7,2-16.7c1.3-0.5,16-2.8,32.8-5.1
		c16.8-2.3,35.9-4.9,42.5-5.9S785.1,494.2,785.8,494.1z"/>
	<path id="path84" fill="#778899" d="M543.3,504c20.5,7.8,37.2,33.1,42.3,64c2.4,14.2,1.5,35.6-2,47.3c-6,20.1-17.3,35.1-29.6,39.2
		c-3.6,1.2-26,5.6-26,5.1c0,0,3.1-3.4,6.9-7.3c8.3-8.6,15-21.3,18-33.8c7.6-31.8,3-62.8-13.3-88.9c-5.5-8.8-16-18.9-24.1-23.3
		l-5.9-3.1l3.9-0.7c2.2-0.4,4.5-0.8,5-1.1C521.4,500.2,538,501.9,543.3,504z"/>
	<path id="path86" fill="#00BFFF" d="M338.8,504c2.1,0,59.9,6.2,61,6.5c1.3,0.5,1.8,22,0.5,22.8c-0.5,0.2-7.3-0.4-15.3-1.5
		c-35.8-4.8-49.2-6.7-49.5-7c-0.2-0.2,1.1-11.1,2.5-20.6C338,504.1,338.3,504,338.8,504z"/>
	<path id="path88" fill="#778899" d="M520.5,514.3c20.1,15.3,32,44.1,31.9,76.7c-0.1,17.5-2.8,29.2-9.9,43.6
		c-9.7,19.7-26.5,30.4-43.4,27.6c-9.9-1.7-16.5-5.5-26.1-15.2c-12.1-12.1-19.3-26.5-23.6-47c-2.7-12.9-2.5-35.7,0.4-47.5
		c5.8-23.2,19.5-41.1,35.5-46C496.6,502.9,509.3,505.8,520.5,514.3z M467.6,552.4c-4.6,9.8-6,16.4-5.9,28.1
		c0.1,18.5,5.8,34,16.3,44.5c16.1,16.1,37.1,12,47.1-9.4c12.9-27.5,3.4-66.8-19-79C491.7,528.8,475.6,535.4,467.6,552.4z"/>
	<path id="path90" fill="#800080" d="M513.7,546.4c9.7,10.5,14.6,24.7,14.6,42.1c0.1,14.7-4,26.7-12.1,35.7
		c-4.8,5.4-10.2,7.8-17.5,7.8c-7.6,0-11.8-2-18.8-9c-22.8-22.7-20.2-72.7,4.4-84.9C493.7,533.4,504.7,536.5,513.7,546.4z
		 M485.2,555.7c-13.7,6.7-16,35.9-4,51.2c3.8,4.9,7.9,7.1,13.2,7.1c4.5,0,5.3-0.4,9.1-4.4c13-13.5,7.9-47.5-8.2-54.3
		C491.1,553.6,489.3,553.7,485.2,555.7z"/>
	<path id="path92" fill="#800080" d="M490.2,557c13.9,0,23.4,28.3,15.2,45.5c-2.3,4.8-7.8,9.5-11.3,9.5c-4.2,0-9.2-3.9-12.8-9.9
		c-7.8-13-7-32.6,1.7-41.3C485.9,557.9,487.6,557,490.2,557z"/>
	<path id="path94" fill="#808000" d="M691.5,507.4c0.6,0.2,1.1,6.7,1.3,16.3l0.2,16.1l-2.7,0.6c-19,3.7-43.3,7-51.3,6.9
		c-8.5,0-10.8-0.4-22.5-4.4l-13-4.4v-11.2c0.1-7.3,0.5-11.7,1.3-12.5s8.2-1.2,24.4-1.4c19.9-0.3,26-0.7,42.3-3.2
		C682,508.5,691,507.3,691.5,507.4z M671.5,514.5c-2.2-0.5-23.1,2.7-24.2,3.7c-1.8,1.5-1.8,23.7,0,24.4c0.7,0.2,6.7-0.3,13.2-1.3
		l12-1.8v-12.4C672.5,519.6,672.1,514.6,671.5,514.5z"/>
	<path id="path96" fill="#00BFFF" d="M669.3,517.1c1.5-0.1,1.7,1,1.7,9.8v9.9l-2.7,0.6c-4.8,1-15.7,2.6-17.6,2.6
		c-1.6,0-1.7-1-1.5-10.3l0.3-10.2l9-1.1C663.5,517.8,668.3,517.2,669.3,517.1z"/>
	<path id="path98" fill="#B8860B" d="M287.3,521.4c1.2,0.3,11.4,1.7,22.7,3.2c11.3,1.4,21,3,21.6,3.5c1.1,0.9,3.9,19.7,3,20.6
		c-0.5,0.5-5.4,0-33.8-3.9l-15.8-2.1v-10.9C285,521.1,285,521,287.3,521.4z"/>
	<path id="path100" fill="#B8860B" d="M339.1,528.3c2.4,0.4,16.8,2.3,31.9,4.2c15.1,2,28,4.2,28.7,4.8c0.6,0.7,2.3,5.6,3.6,10.9
		l2.5,9.8h-3.2c-1.7,0-6.2-0.5-10.1-1.1c-3.8-0.5-17.3-2.3-30-3.9c-16.8-2.2-23.3-3.4-24.1-4.5c-0.6-0.8-1.5-5.2-1.9-9.6
		c-0.3-4.5-0.9-8.8-1.2-9.7C334.8,528,335.4,527.8,339.1,528.3z"/>
	<path id="path102" fill="#778899" d="M787,529.7c0,0.5,0.5,3.5,1,6.8c1.6,9.4,1.3,31-0.5,40.1c-3.3,15.8-11.4,31.6-20.3,39.4
		c-6.6,5.9-13.6,8.8-25.4,10.5c-5.6,0.8-10.9,1.7-11.5,2c-2.4,0.8-1.3-1,2.3-3.9c4.4-3.5,11.7-13.2,15.5-20.8
		c6.4-12.7,9.8-30.4,10-52.3c0.2-19.1-0.8-17.6,13.9-20.2C786.6,528.8,787,528.8,787,529.7z"/>
	<path id="path104" fill="#B8860B" d="M403.2,536.9l5.7,0.7c3.1,0.3,5.8,0.8,6,1c0.4,0.3-1.5,13.6-2.6,18.2c-0.3,1.4-1.2,2.2-2.1,2
		c-1.1-0.2-2.4-3.6-4.3-11.1L403.2,536.9z"/>
	<path id="path106" fill="#778899" d="M322,551.5c32.7,4.3,34,4.5,34,5.5c0,0.5-2.3,3.3-5.1,6.4c-15.8,17.3-36.7,14.5-53.3-7.4
		c-2.3-3-4.6-6.1-5-6.8C291.6,547.5,292,547.5,322,551.5z"/>
	<path id="path108" fill="#778899" d="M753.4,548.8c1.8,1-0.1,26.2-2.8,36.4c-5.2,20.2-16.8,36.3-30.8,42.9c-6.5,3-8.2,3.4-15.9,3.4
		c-7.8,0-9.1-0.3-16-3.7c-16.5-8.2-29-24.2-36.2-46.3c-3.6-11.1-4.2-15.1-2.4-15.8c0.7-0.3,3.8-0.8,6.8-1.2l5.4-0.7l2.4,6.4
		c8.4,22.4,19.9,33.2,35.1,33.2c11.4,0,20.6-6.8,27.1-19.9c3.2-6.5,5.9-18.8,5.9-26.5c0-4.7,0.1-4.9,3.3-5.5
		c1.7-0.3,6.4-1.1,10.2-1.9C749.4,548.9,752.9,548.6,753.4,548.8z"/>
	<path id="path110" fill="#800080" d="M728.5,552.4l0.3,6.2c0.8,16.4-8,33.9-19.9,39.9c-10.3,5.3-21.5,2.2-31-8.3
		c-5.3-6-11.2-17.2-12.3-23.3c-0.6-3.5-0.5-3.7,2.5-4.3c5.2-1,5.7-0.8,7.9,4.1c4.6,10.5,12.7,17.1,19.7,16
		c7.7-1.3,14.1-10.2,15-20.9c0.3-3.3,1.1-6.2,1.8-6.4c0.6-0.3,4.5-1,8.6-1.7L728.5,552.4z"/>
	<path id="path112" fill="#800080" d="M708.5,560.7c-2.3,15.5-11.5,23.1-21,17.3c-4.5-2.8-11.9-14.9-10.2-16.6
		c0.3-0.3,6.8-1.6,14.4-2.9C710.9,555.3,709.4,555.1,708.5,560.7z"/>
	<path id="path114" fill="#778899" d="M361.4,556.9l6.1,0.6c8.6,0.9,11.5,1.5,11.5,2.6c0,2.4-9.8,7.9-16.5,9.3
		c-9.7,2.1-12.5,2.4-12.5,1.7c0-0.4,2.6-3.7,5.7-7.5L361.4,556.9z"/>
	<path d="M326,181c1,0,2,0.4,2.2,0.8c0.2,0.4,19.9,6.1,43.8,12.6c23.9,6.5,44.1,12.3,44.8,13c1,1,0.8,3.3-1.2,12
		c-1.4,6-2.9,11.3-3.5,11.9c-0.9,0.9-29.2-3.2-49.2-7c-2.4-0.4-2.8-0.1-3.4,2.6c-0.4,1.8-2.2,5.1-4,7.6l-3.4,4.3l12.1,0.4
		c13.6,0.3,15,1.1,16.3,8.7c0.6,3.9,0.7,4,5.8,4.5c21,2.2,124.2,6,164.7,6.1c25,0.1,47.3,0.5,49.5,1c8.3,1.6,7.7,1,41.8,39.8
		l21.9,24.7h22.4H709v-5.4v-5.5l-5-2.7c-8-4.4-9-7.4-9-28c0-15.6,0.2-17.3,2.2-21.4c2.9-5.5,7.5-8.4,13.8-8.4
		c5.3,0,10.2,2.5,13.4,6.7c2,2.7,2.1,4.1,2.1,23c0,19.3-0.1,20.3-2.2,23.3c-1.3,1.8-4.4,4.1-6.9,5.4l-4.7,2.1l0.7,11.8
		c0.8,13.1,0.1,16.3-4,18.4c-3,1.6-2.7,1.9,3.1,3.7c3.3,1.1,45.7,17.4,91,35.1c13.5,5.2,18.7,8.7,22.2,14.6l2.8,4.8l-0.2,33.4
		c-0.2,18.3-0.7,34.8-1.2,36.6c-0.7,2.5-0.4,4.3,1,7.5c2.8,6.2,2.8,32.5,0,38.6c-2.3,5.1-3.4,5.5-22.9,8.5l-14.2,2.2l0.7,6.6
		c0.5,3.6,0.7,14,0.7,23.1c-0.2,19.6-1.8,27.2-9,42c-3.7,7.5-6.2,11-11.8,16.6c-3.9,3.9-9.2,8-11.7,9.3c-6.3,2.9-44.6,9.4-55.4,9.3
		c-9.4,0-17.3-2.5-25.5-7.9c-16.3-10.8-29.4-32.6-34.5-57.1c-0.7-3.1-0.9-3.3-3.8-2.8c-3.1,0.5-4.6,0.1-20-5.8
		c-7.9-3-13.2-3.2-24-0.9l-7.9,1.7l0.6,3.5c1.6,10.8,1.8,30.9,0.2,39.7c-3.2,18.4-11.9,36.3-21.7,44.8c-7.9,6.8-12.5,8.5-32.2,11.6
		c-10,1.6-20.1,3.4-22.5,4c-24.6,6-52.4-16-63.6-50.5c-4.5-13.8-6-23.7-5.9-39.8l0.1-14.8l-7.7,0.8c-10.6,1.1-30.9,0.8-41.9-0.7
		l-9.2-1.2l-5.5,5c-6.2,5.7-13,8.6-22,9.7c-3.3,0.4-11.3,1.5-17.8,2.6c-9.4,1.5-12.9,1.6-17.4,0.8c-11.6-2.2-20-8.6-29.4-22.5
		c-2.7-4-5.4-7.6-6-8c-0.6-0.3-15.6-2.6-33.3-5c-17.6-2.4-34.3-4.8-37-5.4c-2.7-0.6-5-0.9-5.1-0.8c-0.1,0.2-0.8,4.1-1.4,8.7
		c-2.6,17.9-9.5,33.3-19.5,43.5c-9.2,9.2-9.8,9.4-38.4,11.5c-14.8,1-26.7,1.4-29.6,0.9c-7.6-1.1-15-5.3-22-12.3
		C85.5,573.4,78,552.4,78,525.4V513h-8.9c-11.9,0-12.1-0.3-12.1-16c0-10.6,0.5-14.9,2.4-20.6c0.6-2,0.2-2.2-5.5-2.7
		c-13.6-1.2-16.1-6.8-20.4-45.2c-2-17.8-3.4-56.1-2.8-73.3l0.6-13.2h-2.6c-1.4,0-3.8-0.5-5.3-1c-2.6-1-2.6-1.2-2-6.8
		c0.9-7.6,3.1-12.1,20.1-41.2c12.6-21.4,14.6-25.4,14-27.9c-0.9-4.4,1.7-9.8,5.9-11.8l3.6-1.7l0.2-19c0.3-16.2,0.5-19.1,1.8-19.1
		s1.5,2.9,1.8,19l0.2,19l4.3,4.3l4.2,4.4l7.5-0.6c4.1-0.3,26-2.1,48.5-4c41.6-3.6,75.8-6.1,98.5-7.1c15.9-0.8,16.5-0.9,18.6-4.4
		c1-1.6,2.8-3.4,4.1-4c1.5-0.7,10.3-1.1,22.8-1.1c11.3,0,20.5-0.3,20.5-0.8c0-0.4-0.8-1.2-1.9-1.9c-4.8-3-7.6-15.2-5-22
		c1.1-3,6.2-8.8,9.4-10.6c1.1-0.6,6.7-1.4,12.5-1.7l10.5-0.5l0.3-10.3C324,182,324.3,181,326,181z M369.8,197.7L328,186.4v7.8v7.8
		h8.5c4.9,0,9.9,0.6,11.8,1.4c4.5,1.9,9.5,7.4,10.9,11.9c0.7,2.3,2,4.2,3.2,4.7c2.7,1,46.6,8.3,47.1,7.8c0.2-0.2,1.3-4.3,2.4-9.1
		c1.4-6.4,1.6-8.9,0.8-9.2C412,209.3,392.7,204,369.8,197.7z M325,206c-18.7,0-20.8,0.2-23.8,2c-4.7,2.9-7.2,7.6-7.2,13.6
		c0,6.5,2.9,11.1,9,14.1c4.1,2.1,5.8,2.3,21,2.3c17.6,0,23.1-0.9,26.8-4.3c7.9-7.2,6.8-20.3-2-25.7C345.8,206.2,343.7,206,325,206z
		 M314.7,243h-58.6l-1.5,2.2c-2.3,3.2-2,5.4,1.1,7.8c2.6,2,3.1,2,60.5,1.8c56.1-0.3,58-0.4,59.4-2.2c1.9-2.7,1.8-6-0.4-7.9
		C373.5,243.2,367.9,243,314.7,243z M246.5,251.1c-1.1,0.1-7.6,0.5-14.5,1c-6.9,0.4-20.8,1.2-31,1.8c-31,1.9-30,2.3,12,4.7
		c21.7,1.2,59.5,3.4,84,4.8s68.1,3.9,96.9,5.6l52.5,3l2.5-2.4c4.4-4.1,6.8-4.7,23.3-6.1c8.9-0.8,16.3-1.7,16.6-2
		c0.3-0.3,0.1-0.5-0.5-0.5c-0.6,0-25.3-1.1-54.9-2.5c-50.2-2.4-54.3-2.5-59.9-1c-5.2,1.4-13.4,1.6-62.4,1.3l-56.3-0.3l-3.2-3.8
		C249.8,252.5,247.7,251.1,246.5,251.1z M61.5,258.5c-2.8,2.7-3,3.7-1.4,6.8c1.6,2.9,2.8,3.7,6,3.7c5.6,0,8.3-7.7,3.9-11.2
		C67,255.3,64.4,255.5,61.5,258.5z M701.5,261c-1.8,2-2,3.9-2.3,20.4c-0.3,17.6-0.2,18.2,2,21.6c2.7,4,8.4,6.6,12.4,5.6
		c1.5-0.4,4.2-2.2,6.1-4.1l3.3-3.3v-18.6V264l-3.2-3.5C714.6,254.8,706.8,255,701.5,261z M112,261.1c-15.7,1.5-29.7,2.8-31.2,2.8
		c-1.5,0.1-3.3,0.8-4,1.7c-5.8,7.3-6.6,7.7-12.6,7l-5.8-0.7l-13.1,22.3c-15.1,25.7-20.3,36-20.3,40.4v3.1l20.3,0.7
		c11.1,0.4,30.2,1.1,42.5,1.7c12.3,0.5,23.2,0.7,24.3,0.4c2.5-0.8,2.4-0.6,22-44c14.3-31.5,16.5-37.1,15.1-37.7
		C146.6,257.8,142.7,258,112,261.1z M162.9,259.4c-4.8-0.4-6.8-0.2-7.6,0.8c-1.3,1.5-6.3,12.6-6.3,13.9c0,0.5,5.1,0.9,11.3,0.9
		c11.6,0,15.7,1.2,15.7,4.5c0,0.8-5.2,13.1-11.5,27.4c-6.3,14.2-11.9,27.9-12.4,30.2c-0.6,2.5-1.1,18.4-1.1,35.9v31.5l5.1,3.3
		c2.8,1.8,5.2,3.2,5.4,3c0.2-0.2-0.1-12.9-0.7-28.3c-0.8-21.4-0.8-29.9,0.1-35.9c0.9-5.3,4.7-17.3,12.2-37.5
		c13.2-35.4,14-37.1,18-39.5c3-1.8,4.8-1.9,27.2-1.2c26,0.8,28.6,1.3,30.5,6.3c0.6,1.5,1.6,13.1,2.1,25.8
		c1.5,32.3,4.1,104.4,4.4,120.5l0.2,13.5l4.5,0.7c2.5,0.3,9.2,0.9,14.9,1.3l10.4,0.8l-0.6-41.1c-0.5-27.2-0.4-42.8,0.3-45.8
		c0.6-2.5,7.3-20.9,14.9-40.8c7.7-19.9,14.3-37.4,14.6-38.9c0.7-2.6,0.5-2.7-2.8-2.7c-1.9,0-14.7-0.7-28.3-1.5
		c-13.7-0.8-44.9-2.6-69.4-4C189.5,261.2,166.5,259.8,162.9,259.4z M577.2,262.4c-32.3-0.4-109.5,3.9-120.4,6.7
		c-5.5,1.4-7.2,5.3-6.4,14.3c1.7,19.1,6.9,56.5,8.4,59.5c3,6.6,3.8,6.6,45.6,3.2c47.3-3.9,81.2-6.5,125-9.5
		c19.2-1.4,35.3-2.9,35.8-3.4c0.7-0.7-9.2-12.6-27.8-33.6c-22.5-25.4-29.8-33.1-33.2-34.8C600.2,262.9,597.8,262.7,577.2,262.4z
		 M317.6,271.8c-0.8,1.6-5.2,12.5-9.6,24.3c-4.5,11.8-10.9,28.6-14.3,37.4l-6.2,16v43.8c0,24.2,0.3,44.1,0.6,44.3
		c0.9,0.5,49.8,4.8,50.2,4.3c0.1-0.2-0.1-17.7-0.6-38.9c-0.4-21.2-0.5-42.1-0.3-46.4c0.7-9.9,2.4-13.7,18.1-39.6
		c6.5-10.7,12.6-20.9,13.5-22.5c1-1.7,2.1-4.9,2.5-7.2c0.9-5.6,4.1-10.2,9-13l4-2.3h-3c-1.6,0-14-0.7-27.5-1.5
		C319,268.4,319.4,268.4,317.6,271.8z M215.9,270.7c-23-0.5-25-0.1-27.9,6.5c-3.6,8.3-22,58.8-23.5,64.3c-1.6,6.4-1.9,31.3-0.6,58
		c0.8,17,1.1,18.2,4.7,23.1c2.2,3,2.9,3.2,12.1,4.3c23.8,2.8,65.6,7.1,68.8,7.1h3.6l-0.6-14.3c-0.2-7.8-0.7-26.9-1-42.5
		c-0.3-15.6-1.4-44.5-2.5-64.4c-2.2-40.6-2.1-40.3-9.2-41.2C237.4,271.3,226.7,270.9,215.9,270.7z M394,273.4c0,0.2,2,1.9,4.5,3.8
		c4.1,3.3,5.2,3.6,13.7,4.3c5,0.4,10.2,1.1,11.4,1.5c4.6,1.8,5.3,4.5,6.9,26c3.3,45.8,8.6,133.3,8.3,139.2c-0.5,9.6,1,9.4-39.8,4.3
		c-45.4-5.8-64.6-7.9-99-11c-37.6-3.4-85.3-8.1-106.7-10.5c-9.5-1.1-18-2-18.9-2c-1.1,0,0.6,3,5.2,9.7c3.7,5.4,7,10.1,7.3,10.5
		c0.6,0.6,13.4,2.3,80.1,10.3c16.2,2,36.7,4.4,45.5,5.5c8.8,1.1,27.5,3.3,41.5,5c14,1.7,36.4,4.4,49.7,6c13.4,1.7,25.8,3,27.7,3
		c3.1,0,4-0.8,14.6-15.1c7.4-9.9,13-16.3,16.1-18.6c2.7-1.9,4.9-4,5-4.6c0-0.7,0-20.3-0.1-43.7c-0.1-47.3,0.5-43.1-6.9-47.2
		c-5.2-2.9-6.7-7.9-10-34.3c-1.6-13.2-3.3-27.5-3.6-31.7l-0.7-7.7l-5.2-0.5c-2.8-0.3-13.7-1-24.1-1.6
		C395.3,272.9,394,272.8,394,273.4z M377.3,281.9c-1.5,2.1-1.9,5.2-2.1,17c-0.5,18.4,0.1,22.2,3.9,26c4,4,8.8,4.9,13.5,2.4
		c6.4-3.3,7.4-6.5,7.4-24.6c0-17.2-0.9-21.3-5.3-24.2C388.9,274.7,381.1,276.2,377.3,281.9z M146.6,279.2c-0.8,1.3-7,14.4-13.8,29.3
		l-12.3,27l-0.3,33.2l-0.3,33.1l2.8,0.6c1.5,0.3,7.8,0.8,14,1.2l11.1,0.6l0.4-31.8c0.5-36.1,1.2-40.2,8.6-55
		c6.5-12.9,16.4-36.5,15.9-37.9c-0.3-0.7-3.9-1.4-9.8-1.8C149,276.7,148.2,276.7,146.6,279.2z M403.5,284c-0.2,0.3-0.1,2.4,0.2,4.7
		l0.5,4.1l6.8,0.6c10.8,1.1,10.4,0.2,10.8,29.5c0.2,19.8,0,25-1.1,26.5c-1.5,2.1-4.7,2.2-19.4,1c-7.9-0.6-8.3-0.5-8.3,1.4
		c0,3.8,1.9,7.2,4.7,8.3c2.8,1.1,31.6-0.1,32.9-1.4c1-0.9-3.5-66.7-4.8-69.9c-0.5-1.5-1.8-3-2.8-3.3
		C420.1,284.6,403.9,283.3,403.5,284z M410.1,296l-6.1-0.6V306c0,13.7-1.1,17.5-6.6,22.6c-4.4,4.1-4.4,4.1-4.4,11.2v7.1l3.3,0.5
		c1.7,0.3,7.5,0.7,12.7,0.8l9.5,0.3l0.3-24c0.2-19.4,0-24.4-1.2-26C416.6,297.1,414.5,296.4,410.1,296z M370.8,302.7l-0.3-5.9
		l-13.7,22.9c-9.7,16.1-14.2,24.6-15.3,28.8c-1.3,4.9-1.5,12.9-1.5,45.5c0.1,21.7,0.4,41,0.8,42.9c1.2,5.5,4.1,6.9,18.7,8.6
		c7.2,0.8,26.2,3,42.4,5c16.1,1.9,30.2,3.5,31.2,3.5c3.9,0,4-2.6,2-35.2c-1.1-17.2-2.3-36.8-2.7-43.4l-0.7-12.2l-18.1,0.5
		c-17.4,0.5-18.2,0.4-20.3-1.6c-2.1-2-4.3-7.7-4.3-11.4c0-1.2-0.8-1.7-2.7-1.7c-1.6,0-8-0.5-14.2-1c-12.3-1.1-15.1-2.3-15.1-6.6
		c0-1.2,3.2-9.1,7-17.5C370.6,309.7,371.1,308.2,370.8,302.7z M372.9,322.1l-2.6-5.2l-5.8,12.6c-3.6,8-5.4,13-4.8,13.6
		c0.5,0.5,5.2,1.4,10.4,1.9c5.2,0.6,11.6,1.2,14.2,1.5l4.8,0.6l-0.3-7.3l-0.3-7.3l-3.8-0.6c-2.1-0.3-5-1.5-6.5-2.5
		C376.7,328.3,374.3,325,372.9,322.1z M710,328h-21.2c-20.8,0-21.2,0-19.3,1.9c1.1,1,7,3.8,13,6.1c8.4,3.2,12.5,4.2,17.5,4.4
		c9.4,0.2,10-0.3,10-6.9V328z M669.4,336.1c-1,0-2.9,0.4-4.1,0.9c-1.3,0.5-9.6,1.4-18.5,2c-39.3,2.4-168.9,12.7-169.5,13.4
		c-0.3,0.2,4.4,2.3,10.4,4.6c5.9,2.3,18.2,7.2,27.3,10.7c9.1,3.6,21.5,8.4,27.5,10.8c96.4,37.6,96,37.5,106.5,37.5
		c7.8,0,157.6-15.5,169.9-17.6l3.3-0.5l-2.6-2.8c-3.2-3.3-9.6-6.6-22.6-11.4c-5.2-2-20.1-7.6-33-12.5c-12.9-4.9-39.1-14.9-58.1-22.1
		C686.9,341.9,670.5,336,669.4,336.1z M116.8,342.1c-0.2,0.1-1.4,0.7-2.8,1.4c-2,1-6.2,1.1-20,0.5c-9.6-0.5-27.1-0.9-38.8-0.9
		L33.9,343l0.6,25.7c0.7,31.6,1.2,44.7,2.6,58.3c1.5,15.2,4.8,33.8,6.5,37.2c1.9,3.7,7.2,6,13.2,5.6c4.5-0.3,4.7-0.4,6.3-4.9
		c2.4-6.4,27.7-53.9,30.3-56.8c3.5-3.9,9.4-6.1,16.9-6.1h6.7v-30C117,355.5,116.9,342,116.8,342.1z M470.2,354.3
		c-1.1-0.5-1.2,7-0.6,43.3c0.3,24.2,0.7,44,0.8,44.1c0,0,12,0.9,26.6,1.8s27.6,1.9,29,2.2c4.5,1,8.3,3.5,18,11.3
		c5.2,4.2,13.3,10.6,18,14.2c10,7.7,16.3,14.2,21.3,22.1c5.2,8.1,7,8.7,26.7,8.7h16l0.1-2.8c0-1.5,0.8-20.5,1.8-42.2
		s1.6-39.8,1.2-40.1c-0.6-0.6-7.4-3.4-45.6-18.3c-38.9-15.2-60.7-23.7-86-33.6C483.2,359.4,470.9,354.6,470.2,354.3z M798,404.6
		c-26.8,3.1-97.4,10.7-126.2,13.6c-21.3,2.1-23.2,2.1-30.8,0.7c-4.4-0.9-8.2-1.3-8.4-1c-0.7,1.1-3.9,82.1-3.3,82.7
		c0.3,0.3,16.7-1.5,36.4-4.1c65.9-8.5,96.6-12.3,124.3-15.5c15.1-1.7,28.5-3.6,29.7-4.2c1.2-0.6,2.7-2.5,3.3-4.2
		c1.2-3.5,2.7-63.8,1.6-67.9C823.8,401.4,825.2,401.5,798,404.6z M98.3,408.8c-4.9,3.6-29.8,50.5-33.8,63.7
		c-3,9.7-4.5,22.5-3.6,30.5l0.6,5.5l8.7,0.3l8.7,0.3l1.1-4.3c5.9-23.4,16.4-38.4,31.9-45.6c5-2.3,7.6-2.6,29-3.9
		c12.9-0.8,23.7-1.6,23.9-1.8c0.5-0.5-16.4-26.9-19.3-30.2c-1.8-2-3.5-2.3-16.1-3.3c-15.9-1.2-19.3-1.9-20.8-4.2
		c-1.3-2.1,0.5-4.3,5.8-7c3.6-1.9,3.9-2.2,2.1-2.9C112.3,404.3,102.3,405.9,98.3,408.8z M136,407.6c-9.3-0.6-9.7-0.5-15.7,2.6
		c-3.5,1.8-6.3,3.6-6.3,4c0,0.9,5.8,1.6,20.2,2.4c10.2,0.5,11.9,0.9,13.6,2.7c2.7,3.1,27.9,41.9,31,47.8c2.1,4.1,2.6,6.9,3.3,17.7
		c0.4,7,0.8,18.1,0.9,24.7c0,6.6,0.4,12.7,1,13.5c0.6,1,3.6,1.5,11.2,1.8c10.1,0.4,10.4,0.5,13.4,3.7c1.8,1.8,5.1,3.7,7.5,4.4
		c4,1,45.3,7,60.6,8.7l6.1,0.6l-0.5-10.3c-0.3-5.7-0.7-10.6-0.9-10.8c-0.2-0.2-15.1-2.3-33.1-4.7c-18.1-2.4-35.6-4.7-39-5.2
		c-4.9-0.7-6.5-0.5-7.7,0.6c-2,2-3.3,0.8-4-3.6c-0.3-2-2.2-13.6-4.1-25.6l-3.5-21.9l-15.1-22.1c-8.3-12.2-16.5-23.5-18.1-25.3
		c-1.8-1.8-4.8-3.5-7.2-4.1C147.4,408.6,141.2,407.9,136,407.6z M464.8,447.8c-1.6,0.9-2.8,1.9-2.8,2.3c0,0.3,4.8,0.9,10.8,1.3
		c15.5,1,31.4,3.2,35.5,5c9.5,3.9,35.4,26.2,46.4,39.8c7.3,9.2,9.5,10.2,20.7,9.5c4.9-0.3,9.2-1,9.6-1.4c0.4-0.4-2.5-5.3-6.4-10.8
		c-6.4-8.7-9.1-11.5-22.2-21.8c-23.4-18.5-26.3-20.6-30.2-21.7c-2-0.6-13.1-1.7-24.7-2.5C473.9,445.6,468.2,445.6,464.8,447.8z
		 M190.5,453c-0.3,0,0.5,1.8,1.6,4c1.9,3.5,7.9,37,7.9,43.7c0,4.6,1.9,2.1,4.6-6c5-15.1,7.2-17.7,15.2-17.7c5.3,0,50.7,5.8,55.3,7
		c6.1,1.7,7.1,4.2,8.3,20.4l1.1,14.1l19.5,2.7c10.7,1.4,21.5,2.8,24,2.9l4.5,0.3l1.5-10.6c0.8-5.9,2-11.1,2.5-11.7
		c0.7-0.7,11.7,0.2,33,2.5c17.6,1.9,32.4,3.5,32.9,3.7c0.4,0.1,0.8,6,0.7,13c-0.2,12.4-0.2,12.6,2.1,13.1c6.5,1.3,9.9,1.4,10.3,0.3
		c0.3-0.7,1.6-7.5,3-15.2c3-16.3,6-25.5,10.4-32c1.8-2.6,3-4.9,2.8-5.2c-0.4-0.3-32-4.4-73.2-9.2c-9.3-1.1-30.3-3.6-46.5-5.6
		c-48.4-5.8-78.3-9.4-100.3-12C200.2,454.1,190.7,453,190.5,453z M462,454.5c-1.4-0.2-3.1-0.1-3.6,0.3c-1.4,0.9-18.1,23.2-24.8,33.1
		c-3.2,4.6-6.3,10.8-7.5,14.5c-1.5,4.9-10.1,52.7-10.1,56.2c0,0.7,23.9-0.7,26.4-1.6c1.3-0.4,3.1-4.2,6-12.6
		c5.2-14.9,9.4-22.3,16.7-29.7c10.3-10.2,20.1-13.4,50.2-16c17.7-1.6,24.4-0.9,33.4,3.4c8,3.8,18.7,13.7,25,23.2
		c4.9,7.4,11.7,22.6,12.8,28.9c0.8,4.4,1.9,4.6,12.5,2.3c10.7-2.4,15-1.9,25.9,2.5c5.5,2.3,11.4,4,13.6,4c5.6,0,113.8-18,115.3-19.2
		c0.6-0.6,1.2-3.1,1.2-5.5c0-4.3-0.1-4.4-2.7-3.9c-1.6,0.3-12.9,2.2-25.3,4.1c-36.2,5.7-45.5,7.2-63.5,10.1
		c-24.2,3.9-30.8,3.7-46.9-1.5c-16.3-5.4-17.6-6.6-17.6-15.8c0-8.8,1.6-18.3,3.3-20.1c1.1-1,6.8-1.4,25.3-1.7
		c19.3-0.2,27.4-0.8,41.9-2.9c9.9-1.4,31.3-4.4,47.5-6.6c95.5-13,102-14.1,106.4-17.3c2.9-2.1,1.2-3.8-2.2-2.2
		c-1.5,0.7-9.9,2-18.7,3c-16.5,1.7-58.5,6.8-126,15.4c-43.2,5.5-59.7,7.1-74.3,7.2c-5.3,0.1-11.6,0.7-13.9,1.5
		c-2.2,0.7-8.1,1.6-13,2c-11.7,0.9-14.3-0.5-25.9-13.2c-9.4-10.5-16.2-16.8-28.9-27.1c-13.1-10.6-15-11.2-42-13.3
		C470.8,455.4,463.4,454.8,462,454.5z M168.5,458l-9.5,0.1c-5.2,0.1-10.8,0.4-12.5,0.8l-3,0.6l3.7,2.3c7.2,4.4,15.5,14.7,20.8,25.5
		c7.7,16,9.5,24.1,9.5,43.2c-0.1,13.3-0.5,17.4-2.3,24.3c-4.6,17-9.6,26.1-19.5,35.5l-6.2,5.9l11.5-0.7c16.8-1,18.3-1.5,26.5-9.8
		c10.9-11,17.8-27.1,19.2-45c0.8-9.8-0.5-11.7-8.1-11.8c-9.7-0.1-15.8-1.4-17.8-3.9c-1.5-1.9-1.8-4.2-1.9-16.4
		c0-7.7-0.4-19.4-0.8-25.8l-0.7-11.7l-4.4-6.5L168.5,458z M116.4,461.4c-9.8,3.2-20.1,13.3-26.7,26.3c-3.3,6.3-6.8,20.9-7.6,31.7
		c-2.7,32.6,11.2,64.2,32.7,74.8c5.7,2.8,7.6,3.3,14.2,3.3c6-0.1,8.7-0.6,13.3-2.7c15-7,26.8-25.5,30.8-48.2
		c1.7-9.8,0.6-30.9-2-41.1c-4.9-18.3-17.4-36.1-29.8-42.2C134.7,460.1,123,459.2,116.4,461.4z M218,479c-2.4,0.1-4.9,1.9-6.4,4.8
		c-1.6,3.2-8.8,23.4-8.4,23.8c0.5,0.4,78,10.5,78.2,10.2c0.4-0.5-1.3-24.2-1.9-26.5c-1-4-5.7-5.3-33.2-8.8
		C231.6,480.6,218.9,479,218,479z M824.8,502l-0.3-14.5l-3.7,1.2c-2,0.7-9,1.9-15.5,2.8s-12.6,1.8-13.5,2.1
		c-1.6,0.5-1.8,2.1-1.8,15.5c0,17.5-2.2,15.9,17.7,12.8c8-1.3,14.2-2.8,15.4-3.8C824.9,516.6,825,515.4,824.8,502z M785.8,494.1
		c-0.7,0.1-6.7,0.9-13.3,1.9s-25.7,3.6-42.5,5.9c-16.8,2.3-31.5,4.6-32.8,5.1c-2.2,1-2.2,1.2-2,16.7c0.3,13.4,0.5,15.8,1.8,15.6
		c1.8-0.3,47.1-7.4,69-10.9c8.5-1.3,16.7-2.7,18.3-3l2.7-0.6v-15.4C787,497.7,786.7,494,785.8,494.1z M518.5,501.4
		c-0.5,0.3-2.8,0.7-5,1.1l-3.9,0.7l5.9,3.1c21.1,11.3,37.1,39.8,40.5,72.4c3,28.1-5.3,57.2-21.1,73.6c-3.8,3.9-6.9,7.3-6.9,7.3
		c0,0.5,22.4-3.9,26-5.1c12.3-4.1,23.6-19.1,29.6-39.2c3.5-11.7,4.4-33.1,2-47.3c-5.1-30.9-21.8-56.2-42.3-64
		C538,501.9,521.4,500.2,518.5,501.4z M338,504.2c-1.4,9.5-2.7,20.4-2.5,20.6c0.3,0.3,13.7,2.2,49.5,7c8,1.1,14.8,1.7,15.3,1.5
		c1.3-0.8,0.8-22.3-0.5-22.8c-0.7-0.2-14.6-1.8-30.8-3.5C338.3,503.9,338,503.8,338,504.2z M456.5,534.3c-6.8,14-8.9,24.1-8.9,42.2
		c0,21.8,3.1,35.2,12.3,53c3.6,7,6.5,10.9,13.1,17.5c9.6,9.7,16.2,13.5,26.1,15.2c16.9,2.8,33.7-7.9,43.4-27.6
		c7.1-14.4,9.8-26.1,9.9-43.6c0-18.8-3.4-34.7-11-50.5c-7.3-15.3-21.5-29.3-33.8-33.5C487.5,500.2,468,510.7,456.5,534.3z
		 M691.5,507.4c-0.5-0.1-9.5,1.1-20,2.8c-16.3,2.5-22.4,2.9-42.3,3.2c-16.2,0.2-23.6,0.6-24.4,1.4s-1.2,5.2-1.3,12.5v11.2l13,4.4
		c11.7,4,14,4.4,22.5,4.4c8,0.1,32.3-3.2,51.3-6.9l2.7-0.6l-0.2-16.1C692.6,514.1,692.1,507.6,691.5,507.4z M287.3,521.4
		c-2.3-0.4-2.3-0.3-2.3,10.4v10.9l15.8,2.1c28.4,3.9,33.3,4.4,33.8,3.9c0.9-0.9-1.9-19.7-3-20.6c-0.6-0.5-10.3-2.1-21.6-3.5
		C298.7,523.1,288.5,521.7,287.3,521.4z M339.1,528.3c-3.7-0.5-4.3-0.3-3.8,0.9c0.3,0.9,0.9,5.2,1.2,9.7c0.4,4.4,1.3,8.8,1.9,9.6
		c0.8,1.1,7.3,2.3,24.1,4.5c12.7,1.6,26.2,3.4,30,3.9c3.9,0.6,8.4,1.1,10.1,1.1h3.2l-2.5-9.8c-1.3-5.3-3-10.2-3.6-10.9
		c-0.7-0.6-13.6-2.8-28.7-4.8C355.9,530.6,341.5,528.7,339.1,528.3z M772,531.3c-14.7,2.6-13.7,1.1-13.9,20.2
		c-0.2,21.9-3.6,39.6-10,52.3c-3.8,7.6-11.1,17.3-15.5,20.8c-3.6,2.9-4.7,4.7-2.3,3.9c0.6-0.3,5.9-1.2,11.5-2
		c11.8-1.7,18.8-4.6,25.4-10.5c8.9-7.8,17-23.6,20.3-39.4c1.8-9.1,2.1-30.7,0.5-40.1c-0.5-3.3-1-6.3-1-6.8
		C787,528.8,786.6,528.8,772,531.3z M408.9,537.6l-5.7-0.7l2.7,10.8c1.9,7.5,3.2,10.9,4.3,11.1c0.9,0.2,1.8-0.6,2.1-2
		c1.1-4.6,3-17.9,2.6-18.2C414.7,538.4,412,537.9,408.9,537.6z M293.7,548c-2.1,0-1.9,0.4,3.9,8c16.6,21.9,37.5,24.7,53.3,7.4
		c2.8-3.1,5.1-5.9,5.1-6.4c0-1-1.3-1.2-34-5.5C307.4,549.6,294.7,548,293.7,548z M753.4,548.8c-0.5-0.2-4,0.1-7.9,0.8
		c-3.8,0.8-8.5,1.6-10.2,1.9c-3.2,0.6-3.3,0.8-3.3,5.5c0,7.7-2.7,20-5.9,26.5c-6.5,13.1-15.7,19.9-27.1,19.9
		c-15.2,0-26.7-10.8-35.1-33.2l-2.4-6.4l-5.4,0.7c-3,0.4-6.1,0.9-6.8,1.2c-1.8,0.7-1.2,4.7,2.4,15.8c7.2,22.1,19.7,38.1,36.2,46.3
		c6.9,3.4,8.2,3.7,16,3.7c7.7,0,9.4-0.4,15.9-3.4c19.7-9.2,32.5-34,33.9-65.7C754,555.1,753.9,549.1,753.4,548.8z M728.8,558.6
		l-0.3-6.2l-7.4,1.3c-4.1,0.7-8,1.4-8.6,1.7c-0.7,0.2-1.5,3.1-1.8,6.4c-0.9,10.7-7.3,19.6-15,20.9c-7,1.1-15.1-5.5-19.7-16
		c-2.2-4.9-2.7-5.1-7.9-4.1c-3,0.6-3.1,0.8-2.5,4.3c1.9,11.1,13.2,26.8,22.6,31.5c16.4,8.2,34-3.9,39.4-27
		C728.4,567.8,729,562,728.8,558.6z M707.4,556.1c-3.8,0.2-29.6,4.7-30.1,5.3c-1.7,1.7,5.7,13.8,10.2,16.6c9.5,5.8,18.7-1.8,21-17.3
		C709.2,556.5,709,556,707.4,556.1z M367.5,557.5l-6.1-0.6l-5.7,6.7c-3.1,3.8-5.7,7.1-5.7,7.5c0,0.7,2.8,0.4,12.5-1.7
		c6.7-1.4,16.5-6.9,16.5-9.3c0-0.5-1.2-1.2-2.7-1.5C374.7,558.3,370.8,557.8,367.5,557.5z"/>
	<path d="M605.7,273.8c2.6,1.5,42,46.6,43.6,50.1c1.7,3.5-0.9,4.8-11.1,5.5c-4.8,0.4-33.9,2.5-64.7,4.7s-63.4,4.6-72.5,5.4
		c-25.1,2.2-25.5,2.2-30-2.3c-4.3-4.3-4.3-4.4-6.4-27.1c-2.3-24.9-1.6-29.6,5.1-32.2c1.2-0.4,23.3-1.8,49-2.9
		c25.7-1.2,53.8-2.4,62.3-2.8C597,271.5,601.9,271.8,605.7,273.8z M528.6,277l-58,2.8l-2.4,2.8c-2.4,2.7-2.4,3-1.8,15.8
		c1.6,29.1,3.1,36.2,8.6,38.8c3.3,1.5,5.2,1.5,33-0.7c16.2-1.3,51.1-4,77.5-5.9c59.7-4.5,61.5-4.6,61.5-5.6
		c0-1.3-39.2-46.1-42.3-48.4C600.7,273.7,596.2,273.7,528.6,277z"/>
	<path d="M231.6,284.6c6.7,0.8,7.6,2.5,8.5,17.1c0.4,7.1,0.8,17.8,0.9,24c0,15,0.2,14.8-15,13.9c-6.3-0.3-18.4-0.9-26.8-1.2
		c-11.2-0.5-15.8-1.1-16.8-2.1c-1.6-1.7-1.8-7.1-0.4-10.5c0.5-1.3,3.9-10.2,7.6-19.8c6.7-17.7,8.3-20.6,11.9-22
		C203.5,283.3,224.2,283.7,231.6,284.6z M200.1,288.1c-2.6,2.8-16.1,38-16.4,42.6c-0.2,3.6-0.1,3.7,3.8,4.4c2.2,0.4,14.4,1,27.1,1.5
		c23,0.7,23.2,0.7,23.8-1.4c1.2-3.6-1.4-43.4-2.9-45.8c-1.2-1.8-2.7-2.2-11.2-2.7C206.7,285.5,202.3,285.7,200.1,288.1z"/>
	<path d="M507.2,398c2,0,35.1,11.1,36.6,12.3c1.7,1.4,1.7,33.7,0,33.7c-0.7,0-9.5-2.7-19.5-6.1l-18.3-6.1v-16.9
		C506,402.1,506.3,398,507.2,398z M510.2,403c-2,0-1.1,24.8,0.9,26.1c1.5,0.9,27.9,9.9,29.2,9.9c0.4,0,0.6-5.9,0.5-13.2l-0.3-13.1
		l-14.5-4.9C518.1,405.2,510.9,403,510.2,403z"/>
	<path d="M812.7,412.1c1.6-0.1,2.7,1.9,1.6,3c-0.5,0.5-14.8,2.3-31.9,3.9c-44.4,4.3-89.2,8.7-109.2,10.6
		c-12.3,1.1-17.7,1.3-18.4,0.6c-0.8-0.8-0.4-1.4,1.3-2.1c2.1-0.9,41.4-4.9,119.2-12.1c12-1.1,25-2.4,29-2.9S812,412.2,812.7,412.1z"
		/>
	<path d="M814.5,425c1,1.7-3.5,2.8-16.5,4c-6.9,0.6-40.5,3.8-74.8,7c-67.3,6.5-69.6,6.6-69,4.8c0.7-2.1,4.5-2.6,50.3-6.9
		c24.2-2.3,56.6-5.4,72-6.9C808.4,423.9,813.6,423.6,814.5,425z"/>
	<path d="M813.5,436.9c1.4,2.4,8.6,1.6-125.3,14.2c-25.4,2.4-33.6,2.9-34.5,2c-0.9-0.9-0.9-1.4,0-1.9c0.7-0.4,14.4-2,30.5-3.5
		c47.7-4.5,91.4-8.7,104.8-10.1C804.5,435.9,812.7,435.7,813.5,436.9z"/>
	<path d="M808.7,447.1c4.1-0.1,6.6,1.5,4.4,2.8c-0.6,0.4-14,2-29.9,3.5c-27.1,2.6-67.7,6.5-109.1,10.4c-13.7,1.3-18.7,1.5-19.9,0.6
		c-1.1-0.8-1.2-1.3-0.3-1.9c1.2-0.7,18.9-2.5,93.1-9.5c18.4-1.8,38.9-3.8,45.5-4.5C799.1,447.8,806.4,447.2,808.7,447.1z"/>
	<path d="M810,459.1c2.1-0.1,4.4,1.5,3.7,2.6c-0.8,1.2,4.5,0.6-86.7,9.3c-69.2,6.6-76.5,7-73.5,4.1c0.6-0.5,13.6-2.2,29-3.6
		c15.4-1.5,50.1-4.9,77-7.5C786.5,461.4,809.2,459.2,810,459.1z"/>
	<path d="M813,471.9c0,0.6-0.4,1.2-0.9,1.5c-2.1,1.3-155.6,16-157.9,15.1c-1.3-0.5-1.4-0.8-0.1-1.9c0.8-0.8,6.1-1.8,13.4-2.5
		c6.6-0.6,33.4-3.1,59.5-5.7c26.1-2.5,53.6-5.1,61-5.8C805,470.9,813,470.7,813,471.9z"/>
	<path d="M153.6,514.1c1.9,7.4,2.2,23,0.5,30.3c-2.7,11.3-10.5,22.7-18.5,26.8c-5.7,3-14.6,3-20.4,0c-13.1-6.9-21.2-23.6-21.2-43.7
		c0-19.3,7.8-35.2,20.5-41.2C129.9,478.9,147.8,491.6,153.6,514.1z M115.2,488.7c-11.6,6.4-18.4,20.1-18.6,37.8
		c-0.1,16.2,4.2,28.4,13.3,37.5c9.8,9.8,22.1,9.3,31.8-1.2c7.9-8.7,10.8-17.4,10.8-32.8c0-11.2-1.3-17.4-5.2-25.3
		c-3.1-6.2-9.6-13.3-14.5-15.8C128,486.5,119.6,486.4,115.2,488.7z"/>
	<path d="M126,504.2c3.7,1.9,5.1,3.4,7.8,8.8c6.5,13,5.1,28.9-3.3,37.6c-3.7,4-4.6,4.4-8.8,4.4c-3.8,0-5.3-0.6-8.2-3.2
		c-4.6-4-7.1-8.8-8.5-16.8c-2.5-13.7,1.7-26.5,10.3-31.3C119.4,501.5,120.7,501.5,126,504.2z M113.6,508.4c-7.4,7.5-8.9,23.9-3,35.2
		c9.5,18.3,25.6,7.2,24.2-16.7c-0.5-9.2-3.7-16.2-8.8-19.7C121.2,504,117.7,504.3,113.6,508.4z"/>
	<path d="M817.8,493.1l3.3-0.1l-0.3,11.2l-0.3,11.3l-11.4,1.9c-8.7,1.4-11.5,1.6-12.1,0.6c-1-1.5-0.7-20.7,0.3-21.7
		c0.5-0.4,4.5-1.3,9-1.9C810.8,493.8,816,493.2,817.8,493.1z M819.1,496l-3.8,0.1c-2.1,0.1-4.5,0.3-5.3,0.5
		c-0.8,0.1-3.6,0.6-6.2,0.9l-4.8,0.6v9c0,10.3-1,9.6,12,7.5l7.5-1.2l0.3-8.7L819.1,496z"/>
	<path d="M528.5,568.6c2.5,9.1,3,24.5,1.1,33.3c-4.3,20.1-16.4,33.1-30.7,33.1c-15.2,0-30.4-16.1-35.5-37.5
		c-2-8.6-2.3-25.1-0.5-32.5c3.6-14.9,12.9-27.3,23-30.5C503.2,529,521.9,543.8,528.5,568.6z M470,553c-10.8,21.2-6.2,54,9.9,70
		c7,7,11.2,9,18.8,9c10.2-0.1,18-5.6,23.7-16.8c8.2-16.2,8.1-39-0.4-56.8c-4-8.2-12.1-17.1-18.5-20.1C491,532.5,477.4,538.5,470,553
		z"/>
	<path d="M495.3,555.3c16.1,6.8,21.2,40.8,8.2,54.3c-3.8,4-4.6,4.4-9.1,4.4c-5.3,0-9.4-2.2-13.2-7.1c-12-15.3-9.7-44.5,4-51.2
		C489.3,553.7,491.1,553.6,495.3,555.3z M483,560.8c-8.7,8.7-9.5,28.3-1.7,41.3c5.9,9.8,12.9,12.3,19.1,6.9
		c9.3-8.2,10.8-26,3.5-40.8c-2-4.1-4.3-7.1-6.7-8.7C491.7,555.8,487.6,556.2,483,560.8z"/>
	<path d="M671.5,514.5c0.6,0.1,1,5.1,1,12.6v12.4l-12,1.8c-6.5,1-12.5,1.5-13.2,1.3c-1.8-0.7-1.8-22.9,0-24.4
		c0.6-0.6,6.2-1.7,12.2-2.5C665.6,514.9,671,514.3,671.5,514.5z M669.3,517.1c-1,0.1-5.8,0.7-10.8,1.3l-9,1.1l-0.3,10.2
		c-0.2,9.3-0.1,10.3,1.5,10.3c1.9,0,12.8-1.6,17.6-2.6l2.7-0.6v-9.9C671,518.1,670.8,517,669.3,517.1z"/>
</g>
</svg>
