<?xml version="1.0" encoding="utf-8"?>
<!-- Generator: Adobe Illustrator 21.0.0, SVG Export Plug-In . SVG Version: 6.00 Build 0)  -->
<svg version="1.1" baseProfile="tiny"
	 id="svg88" inkscape:version="0.92.2 5c3e80d, 2017-08-06" sodipodi:docname="51 #6240.svg" xmlns:cc="http://creativecommons.org/ns#" xmlns:dc="http://purl.org/dc/elements/1.1/" xmlns:inkscape="http://www.inkscape.org/namespaces/inkscape" xmlns:rdf="http://www.w3.org/1999/02/22-rdf-syntax-ns#" xmlns:sodipodi="http://sodipodi.sourceforge.net/DTD/sodipodi-0.dtd" xmlns:svg="http://www.w3.org/2000/svg"
	 xmlns="http://www.w3.org/2000/svg" xmlns:xlink="http://www.w3.org/1999/xlink" x="0px" y="0px" viewBox="0 0 850 850"
	 xml:space="preserve">
<sodipodi:namedview  bordercolor="#666666" borderopacity="1" gridtolerance="10" guidetolerance="10" id="namedview90" inkscape:current-layer="svg88" inkscape:cx="891.35331" inkscape:cy="601.48703" inkscape:pageopacity="0" inkscape:pageshadow="2" inkscape:window-height="978" inkscape:window-maximized="1" inkscape:window-width="1920" inkscape:window-x="0" inkscape:window-y="1" inkscape:zoom="0.83294118" objecttolerance="10" pagecolor="#ffffff" showgrid="false">
	</sodipodi:namedview>
<g id="g86" transform="translate(0.000000,0.000000) scale(1.00000,1.00000)">
	<path id="path4" fill="none" d="M0,0h425h425v425v425H425H0V425V0z M179.9,124c-0.2,0-1.5,1.9-2.9,4.2c-5.4,8.9-22,23-31.5,26.9
		c-1.6,0.6-4.4,1.8-6,2.5c-3.6,1.5-8.9,2.8-20.2,4.9c-9.6,1.8-20.7,6.1-27.5,10.7c-5.7,3.9-17.1,17.6-27.5,33.3
		c-1.5,2.2-6.6,11.4-11.3,20.5c-9.9,19.1-14.5,26.3-20.3,31.9c-2.2,2.2-3.9,4.2-3.6,4.5c0.2,0.2,4.7-0.7,9.9-2.1
		c8.1-2.2,12.6-2.7,30.5-3.3c23.7-0.8,26.8-1.5,37.5-8.6c6.6-4.3,10.2-8.1,15.6-16.4c2.9-4.5,9.5-19.2,8.8-19.9
		c-0.2-0.2-2,1-4.1,2.7c-9.5,7.4-15.2,9.1-17.4,5.1c-0.8-1.6-0.8-3.2,0.1-6.5c1-3.5,2.6-5.4,8.9-10.6c11-9.1,14.7-11.9,22.6-16.6
		c8.5-5,22.8-19.4,27.8-27.7c7.2-12.2,9.3-18.3,10.4-29.8C180,126.6,180.1,124,179.9,124z M353.5,134.4
		c-13.1,4.2-20.5,10.1-29.2,23.1c-10.1,15.3-13.9,19.9-19.4,24.2c-6.1,4.8-8.9,4.9-8.9,0.5c0-2,1.6-4.2,6.1-8.4
		c7.1-6.6,6.7-7.3-3.4-6.6c-9.9,0.6-23.1,7.6-33.1,17.5c-6.8,6.8-8.5,9.3-13.3,19.2c-3,6.2-5.6,12.2-5.8,13.3c-0.2,1-1.6,4.8-3,8.3
		s-2.5,7-2.5,7.9c0,0.8-1.8,6.1-4,11.8c-9.6,25-26.3,43.3-45.2,49.7c-7.8,2.7-10.8,2.6-14.2,0c-8.5-6.7-3.9-14.7,14.4-24.9
		c19.2-10.8,24.9-16,28.3-26.4c2.2-6.5,2.1-10.4-0.3-17c-3.3-8.8-6.9-9.9-7-2.2c0,4.3-3.7,11.3-7.4,13.9c-3.2,2.4-17.7,7.7-21,7.7
		c-1,0-8.2,1.6-16,3.5c-16.6,4.2-24.5,8.3-32.7,17.2c-8.5,9.3-12.4,17.9-24.9,55.3c-11.2,33.2-17,43.5-28.4,50
		c-5.8,3.4-8.1,3.7-9.5,1.3c-1.2-2.2-0.1-4.9,4.7-12.1c11.9-17.6,15.8-25.1,16.8-32c0.7-5.9-0.2-14.2-1.7-14.2
		c-0.6,0-0.8,0.4-0.4,0.9c1,1.7-3.4,11.7-7.1,15.9c-4.2,4.9-9.9,8.5-18.7,11.6c-21.3,7.8-33,18.7-36.3,33.9
		c-2.5,11.6-1.6,24.6,2.7,38.6c2.5,8.2,2.5,15.6,0,19.7c-2,3.3-8,8.4-9.8,8.4c-0.6,0-1.6,0.6-2.2,1.4c-0.9,1.1-0.4,1.5,2.6,2
		c2.1,0.3,5.3,0.6,7.1,0.6c4.1,0,14.8-4.3,18-7.3c4.8-4.4,9.4-13.6,10.6-21.2c1.8-11,7.3-13.1,37.6-14.1c9.6-0.3,20-1,23-1.6
		c14.1-2.7,24.2-11,31.4-26.1c2.7-5.5,4.7-11.4,5.1-14.7c0.7-5.9,0.6-5.9-3.9,0.3c-3.6,4.9-8.2,7.7-12.6,7.7c-4.9,0-6.4-1.3-6.3-5.3
		c0.2-5.6,6-13.7,12.4-17.2l5.4-3H173c24.3,0,26.8-0.5,37-7.5c8.1-5.5,14.2-14.6,15.9-23.5c0.5-2.5,0.8-4.5,0.6-4.5
		c-0.1,0-2.4,2-5,4.5c-7.5,6.9-18.8,9.5-23.6,5.6l-2.4-1.9l2-3.7c3.9-7.3,17.8-14.8,32.5-17.5c16.7-3,31.9-8.8,43.5-16.4
		c6.1-4.1,18-15.5,27.1-26.1c5.3-6.3,15.4-12.5,20-12.5c1.3,0,2.4-0.4,2.4-0.9c0-1.3-14-2.5-20.5-1.8c-2.8,0.3-8.5,1.9-12.5,3.6
		c-8.4,3.6-12,3.9-14.5,1.1c-3.7-4.1,1.5-9.1,17.7-17.2c14.9-7.5,25.4-16.2,33-27.3c1.8-2.8,6.9-12.2,11.2-21
		c4.4-8.8,9.7-18.3,11.7-21.1c9.3-12.7,21.6-18.5,40.7-19.3c0.6-0.1,1.2-0.7,1.2-1.5c0-0.8-2.1-1.7-5.7-2.5
		C377.8,132.6,358.5,132.8,353.5,134.4z M646,149.1c-0.8,0-5.3,1.7-10,3.7l-8.5,3.7l-24-0.3c-23.6-0.3-24.2-0.2-35.5,2.6
		c-8.2,2.1-16.1,5.1-27.5,10.4c-26.4,12.5-44,17.3-50.6,13.8c-5.3-2.9,0.2-9.8,13.4-16.4c4.6-2.4,7.4-4.3,6.8-4.9
		c-0.5-0.5-7.2-0.7-14.9-0.5l-14,0.3l-11.2,5.8c-10.9,5.7-11.2,5.8-18.3,5.5l-7.2-0.3l0.2-3.9c0.1-2.9,1-4.7,3.5-7.3
		c4-4.1,3-5.3-4.8-5.3c-4.3,0-6.1,0.6-10.5,3.6c-10.4,7-10,6.9-28.9,7.4l-17.5,0.5l-6.7,3.8c-6.4,3.6-12.4,9.4-15.2,14.7
		c-4.1,7.7-4.8,9.2-5.2,11.7c-0.3,1.6-0.9,4.6-1.4,6.8c-1.4,5.9-1.1,13,0.8,22.4c1.7,8,4.2,12.2,4.2,6.9c0-4.1,3.1-13,5.6-16.4
		c6.3-8.3,16-8.5,33-0.7c13.9,6.4,16,6.8,22.9,4.8c3-0.8,5.5-1.8,5.5-2.2c0-0.3-1.1-1.6-2.5-2.9c-3.3-3.1-4.1-6.8-2.1-9.9
		c2-3,5.7-3.3,13.2-1c4.6,1.4,27.2,15.3,33.9,20.8c4.8,3.9,14.5,8.3,21.3,9.6c7.2,1.4,14.9,0.3,21.6-3.1
		c4.7-2.4,13.6-10.5,13.6-12.4c0-1.8,0.4-1.8-8.7,0.7c-8.5,2.4-14.4,2.2-18.6-0.6c-3.6-2.3-3.5-5.7,0.3-8.8
		c6.3-5.3,9.9-5.5,28.8-1.7c27.4,5.7,52.3,7,64.9,3.6c7.1-2,28.6-12.7,47.3-23.6c11.7-6.8,33.4-17.7,40-20c8.9-3.2,25-3.9,35.5-1.5
		c4.2,0.9,7.9,1.4,8.2,1.1c1.1-1.1-9.5-6.8-17.2-9.2c-26.1-8.1-46.9-4.6-88,14.7c-10,4.7-19.6,8.4-25.9,10.1
		c-11.1,2.9-20.6,2.1-20.6-1.7c0-4.3,16.3-10.5,27.7-10.5c11.6,0,29.7-8.6,39.8-18.9C645.2,151.3,646.8,149,646,149.1z M176.3,176.4
		c-14,5.6-19.6,11.4-25.9,27.1c-3.7,9.2-5.9,13-10.2,17.7c-1.4,1.5-2.2,3.1-1.9,3.5c0.4,0.4,3.6,0.6,7.2,0.6
		c13-0.1,23.5-8.4,29.3-23c1.7-4.4,3.3-9.1,3.6-10.6c0.8-4.4,4.8-11.7,8-14.3c1.5-1.4,2.7-2.6,2.5-2.8
		C187.1,173,183.4,173.6,176.3,176.4z M805.7,173c-2.2,0.4-49,24.8-53.6,27.9c-7.1,4.8-28.1,15.1-41.1,20
		c-8.6,3.4-16.8,7.4-27.5,13.6c-3.3,1.9-7.4,4.2-9.2,5.1c-4.1,2.2-5.4,5.3-4.6,10.9c0.5,4,0.3,4.5-1.3,4.5c-1.1,0-11.3-0.6-22.9-1.5
		c-84.5-5.9-102.1-5.7-150.1,1.6c-10.6,1.6-20.5,2.9-22,2.9c-3.1,0-19.6,3.3-40.5,8.1c-6.9,1.6-13.3,2.9-14.3,2.9
		c-1,0-7.7,1.4-14.9,3.1c-52.5,12.3-53.9,12.8-57.3,23.1c-1.9,5.8-5.6,8.8-24.4,19.7c-6.3,3.6-13.5,7.9-16,9.5
		c-2.5,1.6-7.4,4.8-11,7.1c-16.8,10.7-58.9,38.3-65.5,42.9c-6.1,4.2-8.1,4.6-18.4,3.4c-1.9-0.2-2.6,0.3-3.2,2.4
		c-1,3.9-8.6,12.5-11.7,13.3c-1.4,0.3-8.2,3.5-15.1,7c-17.8,8.9-57,28.9-60.6,30.8c-1.6,0.9-9.5,5.1-17.5,9.3s-17.3,9.4-20.7,11.5
		c-3.4,2.2-6.6,3.9-6.9,3.9c-0.4,0-2.3,1.2-4.3,2.7c-2,1.6-6.1,4.4-9.2,6.4c-15,9.8-41,32.8-45.4,40.4c-2.2,3.7-2.4,5.5-3,22
		c-0.7,20.1-1.4,17.7,7.4,28.9l4.3,5.6l-4.1,4.5c-2.2,2.4-4.1,5.3-4.1,6.4s1.7,4.1,3.8,6.8c5.9,7.4,6.5,9,7.3,19.6
		c0.8,12.5,2.4,15.1,9.3,15.5c3.8,0.3,4.9,0.8,5.5,2.5c2.4,6.1,10.3,9.2,23.8,9.2c9,0,10.5-0.2,12.3-2.1c1.7-1.7,1.9-2.5,1.1-4.6
		c-1.2-3.2,0.7-6.3,4.4-7.2c2.1-0.5,4.2,0.6,11.6,5.9c5,3.6,10.2,6.8,11.5,7.1c5.4,1.4,4.1,1.8-25.6,9c-5.8,1.4-15.8,3.9-22.2,5.5
		c-6.5,1.6-17.3,4.3-24,5.9c-21.7,5.4-24.2,6.1-25.5,7.2c-0.8,0.6-1.3,3.3-1.3,6.5c0,4.7,0.2,5.4,1.7,4.9c0.9-0.4,5.5-1.6,10.2-2.7
		c4.7-1.1,12.9-3.1,18.1-4.4s15.4-3.8,22.5-5.5c7.2-1.7,18.2-4.4,24.5-6c24.5-6.2,27.7-7,35-8.5c8.5-1.7,12.6-1.9,13.4-0.6
		c0.3,0.5-4.3,2.1-10.2,3.5c-5.9,1.5-15.9,4-22.2,5.6c-6.3,1.6-16.7,4.1-23,5.6c-6.3,1.5-16.2,4-22,5.6c-5.8,1.5-11.3,2.8-12.3,2.8
		c-1.9,0-24,6-24.7,6.8c-1.5,1.5,14.7-2,41-8.9c4.1-1.1,9.5-2.3,12-2.8s9.5-2.1,15.5-3.6c46.9-11.8,50.3-12.5,55.9-11.4
		c8.8,1.6,10.3,1-20.9,8.4c-13.2,3.1-28.9,6.9-35,8.5c-6,1.6-16.8,4.2-24,6c-21.9,5.2-25.5,6.2-25.5,7.1c0,1,0.9,0.8,13-2.1
		c14.5-3.6,33.6-8.2,44-10.6c5.8-1.4,15.5-3.8,21.5-5.4c26.7-7,33.8-8.4,46-8.7l12-0.2l-8.5,2.5c-4.7,1.3-11,2.9-14,3.5
		c-3,0.6-8.6,1.9-12.5,2.9c-3.8,1-12.8,3.3-20,5c-23.9,5.7-29.5,7.3-29.5,8.1c0,0.5,0.3,0.9,0.6,0.9c1,0,45.3-10.8,57.9-14.1
		c6.1-1.5,12.6-3.1,14.5-3.5c1.9-0.3,7.6-1.6,12.5-2.9c5-1.3,14-3.5,20-5c26.1-6.2,36.7-8.8,47.1-11.6c6.1-1.6,11.8-2.9,12.7-2.9
		c1,0,5.9-1.1,11-2.5c5-1.3,15.1-3.8,22.2-5.5c7.2-1.7,18-4.4,24-5.9c6.1-1.6,16.4-4.1,23-5.6c6.6-1.5,17-4,23-5.6
		c6.1-1.5,16.9-4.1,24-5.8c13.4-3.2,23.9-5.8,43-10.6c6.1-1.5,13.3-3.2,16-3.7c2.8-0.5,8.8-2,13.5-3.3c4.7-1.2,13.9-3.5,20.5-5
		c6.6-1.6,16.7-4.1,22.5-5.7c5.8-1.5,11.3-2.8,12.3-2.8c0.9,0,6.5-1.3,12.4-2.9c5.9-1.5,16.2-4.1,22.8-5.6
		c6.6-1.5,14.9-3.6,18.5-4.6c3.6-0.9,9-2.3,12-2.9c3-0.7,10.4-2.5,16.3-4.1s11.5-2.9,12.4-2.9c1,0,5.8-1.1,10.8-2.4
		c4.9-1.4,14.7-3.8,21.8-5.5c7-1.7,18.4-4.5,25.5-6.2c7-1.7,16.8-4.1,21.7-5.5c5-1.3,9.9-2.4,11-2.4c1,0,6.7-1.3,12.5-2.9
		c5.8-1.6,21.3-5.4,34.5-8.5c13.2-3.2,28.8-7.1,34.7-8.7c5.9-1.6,11.8-2.9,13.1-2.9c1.4,0,3-0.7,3.7-1.5c1.5-1.9,1-1.9-5.9-0.1
		c-3.1,0.8-10.5,2.6-16.6,4.1c-26.2,6.2-36.7,8.8-47.1,11.6c-6.1,1.6-11.8,2.9-12.7,2.9c-1,0-5.9,1.1-11,2.5c-5,1.3-15,3.8-22.2,5.5
		c-7.1,1.7-17.9,4.4-24,5.9c-6,1.6-16.4,4.1-23,5.6s-16.9,4-23,5.6c-6,1.5-17.1,4.2-24.5,6c-7.4,1.7-17.4,4.2-22.2,5.5
		s-9.4,2.4-10.4,2.4c-0.9,0-6.7,1.3-12.8,2.9c-11.3,3-27.3,6.9-47.1,11.6c-6,1.4-16,3.9-22.1,5.6c-6.1,1.6-11.8,2.9-12.7,2.9
		s-6.5,1.3-12.4,2.9c-5.9,1.6-16,4.1-22.3,5.5c-12.7,3-28.9,7-46.7,11.6c-6.5,1.7-12.5,3-13.3,3c-0.8,0-5.5,1.1-10.5,2.4
		c-4.9,1.4-15.1,3.9-22.5,5.7c-7.4,1.7-18.2,4.5-24,6c-5.8,1.6-11.4,2.9-12.3,2.9s-5.9,1.1-11,2.4c-5,1.4-15,3.9-22.2,5.6
		c-7.1,1.7-16.4,4-20.5,5.1c-4.1,1-12.2,3-18,4.3c-5.8,1.4-12.7,3.2-15.5,4c-5,1.5-5,1.5-2.5-0.4c1.4-1,3.4-2.4,4.5-2.9
		c8.9-4.4,16.7-7.2,26.5-9.6c6.3-1.5,16.5-4,22.5-5.5c14.7-3.8,31.8-7.9,38.5-9.5c3-0.6,8.7-2,12.5-2.9c15.5-3.9,50.9-12.5,66-16.1
		c6.1-1.4,16-3.9,22.1-5.6c6.1-1.6,11.8-2.9,12.7-2.9s6.5-1.3,12.4-2.9c5.9-1.5,16.2-4.1,22.8-5.6c6.6-1.6,16.3-3.9,21.5-5.3
		c5.2-1.3,10.4-2.6,11.5-2.9c4.8-1,41.9-10,55-13.3c5-1.3,12.6-3.1,17-4c4.4-0.9,11.6-2.7,16-3.8c4.4-1.1,13.2-3.3,19.5-4.8
		s16.7-3.9,23-5.5c6.3-1.6,14.4-3.6,18-4.5c19.6-4.8,39.8-9.8,49.8-12.4c6.2-1.7,12-3,12.9-3c2.8,0,48.8-11,60.8-14.5
		c11-3.3,27-7.3,33-8.4c10.5-2,38.3-8.9,40.5-10.2c2.9-1.7-3.2-0.9-12.5,1.5c-15.5,4.1-26.8,6.9-32,7.9c-2.7,0.6-8.7,2-13.2,3.2
		c-5.5,1.5-8.3,1.9-8.3,1.1c0-2.1,14.5-8.3,26.5-11.4c13.1-3.3,33.9-8.4,42.3-10.2c4.5-1,8-2.9,5.5-3c-1.1-0.1-16.4,3.6-29.6,7.1
		c-5.9,1.6-11.6,2.9-12.5,2.9c-1,0-5.5,1.1-10,2.4c-4.5,1.3-8.2,2-8.2,1.6c0-1.9,6.2-4.8,15.5-7.2c19.8-5.2,26.1-6.7,33.4-8.2
		c4.1-0.9,10.5-2.5,14.3-3.7l6.8-2.2v-5.2c0-2.8-0.3-5.4-0.6-5.7c-0.3-0.3-5.6,0.7-11.7,2.2c-18.5,4.7-36,8.9-39.4,9.5l-3.1,0.6
		l2-3.9c3.1-6.4,7.8-24,7.8-29.6c0-2.8,0.3-6.8,0.6-8.9c0.6-3.5,0.8-3.7,2.4-2.2c1,0.9,2.6,1.7,3.6,1.7c2.7,0.2,18-5.1,19.3-6.6
		c1.7-2-2.1-66.2-4.5-77.6c-3-13.5-4.8-19.6-6.3-21.2c-0.9-1-4.3-2.5-7.6-3.3c-6.5-1.7-10.8-5.1-12.4-9.7c-0.6-1.6-0.8-9.2-0.6-17.8
		l0.4-15l-3.6-4.7c-1.9-2.7-4-5.3-4.7-5.8c-0.6-0.6-2.8-3.2-5-5.8c-3.4-4.3-3.8-5.2-3.2-8.7c0.3-2.2-0.1-7-0.9-11
		c-0.8-3.9-1.5-7.7-1.5-8.4c0-0.9,6-2.1,19.8-4c26.8-3.7,37.4-5.4,38.3-6.3c0.4-0.5,1.1-4.2,1.5-8.5l0.7-7.6l-10.7-10.9
		c-5.8-5.9-10.6-11.1-10.6-11.6c0-0.4-1.2-1.2-2.6-1.7C807,173.4,805.8,173,805.7,173z M756.5,510c-5.5,1.5-15.4,4-22,5.5
		s-16.9,4-23,5.6c-6,1.5-16.8,4.1-24,5.8c-13.4,3.2-23.9,5.8-43,10.6c-6,1.5-13.2,3.2-16,3.7c-2.7,0.5-8.8,2-13.5,3.3
		c-4.7,1.2-13.9,3.5-20.5,5c-6.6,1.6-16.7,4.1-22.5,5.7c-5.8,1.5-11.3,2.8-12.3,2.8c-0.9,0-6.5,1.3-12.4,2.9
		c-5.9,1.5-16.2,4.1-22.8,5.6s-14.9,3.6-18.5,4.6c-3.6,0.9-9,2.3-12,2.9c-3,0.7-10.4,2.5-16.3,4.1c-5.9,1.6-11.5,2.9-12.4,2.9
		c-1,0-5.8,1.1-10.8,2.4c-8.4,2.3-15.2,3.9-47.5,11.7c-6.9,1.7-16.6,4.1-21.5,5.5c-5,1.3-9.9,2.4-11,2.4c-1,0-6.7,1.3-12.5,2.9
		c-5.8,1.6-21.3,5.4-34.5,8.5c-13.2,3.2-28.8,7.1-34.7,8.7c-5.9,1.6-11.4,2.9-12.4,2.9c-0.9,0-6.7,1.3-12.8,2.9
		c-6.1,1.6-16,4.1-22.1,5.6c-26.7,6.3-36.7,8.8-47.1,11.6c-6.1,1.6-11.8,2.9-12.7,2.9c-1,0-5.9,1.1-11,2.5c-5,1.3-15,3.8-22.2,5.5
		c-7.1,1.7-17.9,4.5-24,6.1c-6,1.6-11.8,2.9-12.7,2.9c-1,0-1.8,0.4-1.8,1c0,0.5,0.3,1,0.8,0.9c1.2,0,16.2-3.5,25.7-5.9
		c10-2.5,21.5-5.3,41-10c7.2-1.7,16.4-4,20.5-5c4.1-1.1,14.5-3.6,23-5.6c8.5-1.9,20.5-4.9,26.5-6.4c6.1-1.6,16.9-4.3,24-6
		c27.7-6.6,34.4-8.2,45.3-11.1c6.2-1.6,12-2.9,12.9-2.9c1,0,6.5-1.3,12.3-2.9c5.8-1.5,15.9-4.1,22.5-5.6c6.6-1.5,15.8-3.8,20.5-5
		c4.7-1.3,10.1-2.6,12-3c1.9-0.3,8.7-1.9,15-3.5s16.5-4.1,22.5-5.5c6.1-1.5,16.2-3.9,22.5-5.5c6.3-1.6,17.4-4.2,24.5-6
		c7.2-1.7,17.2-4.2,22.2-5.6c5.1-1.3,10-2.4,10.9-2.4c0.9,0,6.7-1.3,12.8-2.9c11.3-3,27.3-6.9,47.1-11.6c6.1-1.4,16-3.9,22.1-5.6
		c6.1-1.6,11.8-2.9,12.7-2.9c0.9,0,6.5-1.3,12.4-2.9c5.9-1.6,16-4.1,22.3-5.5c13.2-3.1,29.2-7.1,46.5-11.5
		c6.6-1.7,12.7-3.1,13.5-3.1s5.5-1.1,10.5-2.4c4.9-1.4,14.9-3.8,22-5.6c17.5-4.2,32.5-8.2,32.5-8.6C773,506.3,765.4,507.5,756.5,510
		z M767.9,515.6c-0.6-0.4-11.7,2.2-24.1,5.5c-5.9,1.6-11.5,2.9-12.4,2.9c-1,0-6.7,1.3-12.8,2.9c-6.1,1.7-15.8,4.1-21.6,5.5
		c-14.2,3.4-34,8.2-48,11.6c-10.4,2.6-26,6.4-38,9.2c-2.5,0.6-7.6,1.9-11.5,2.9c-3.8,1-12.8,3.2-20,4.9c-7.1,1.7-17.2,4.2-22.2,5.6
		c-5.1,1.3-10,2.4-11,2.4c-0.9,0-6.6,1.3-12.7,2.9c-6.1,1.7-16.9,4.4-24.1,6.1c-7.1,1.7-16.1,3.9-20,5c-3.8,1-8.8,2.2-11,2.5
		c-2.2,0.4-8.9,2-15,3.5c-14.4,3.7-20.6,5.2-41,10.1c-17.7,4.2-33.2,8-52.3,13c-6.2,1.6-12,2.9-12.9,2.9c-1,0-5.8,1.1-10.8,2.4
		c-4.9,1.4-14.8,3.9-22,5.6c-7.1,1.7-17.3,4.2-22.5,5.5c-5.2,1.4-10.8,2.7-12.5,3c-1.6,0.4-7.3,1.7-12.5,3s-15.3,3.8-22.5,5.5
		c-7.1,1.7-18.2,4.4-24.5,6c-6.3,1.5-16.4,4-22.5,5.5c-6,1.4-16.2,3.9-22.5,5.4c-23.7,5.9-33.7,8.3-39.9,9.7
		c-6.1,1.3-10.4,3.4-7.1,3.4c1.5,0,15.1-3.2,32-7.4c5.2-1.4,14.5-3.6,20.5-5.1c23.5-5.5,36.4-8.7,47.1-11.6
		c6.1-1.6,11.8-2.9,12.7-2.9c1,0,5.9-1.1,11-2.5c5-1.3,15.1-3.8,22.2-5.5c7.2-1.7,17.3-4.2,22.5-5.5c5.2-1.4,15.4-3.8,22.5-5.5
		c7.2-1.7,18.2-4.3,24.5-5.9c6.3-1.6,17.4-4.3,24.5-6c13.5-3.2,24.1-5.9,43-10.6c6.1-1.5,13.3-3.2,16-3.7c2.8-0.5,8.8-2,13.5-3.3
		c4.7-1.2,13.9-3.5,20.5-5c6.6-1.6,16.7-4.1,22.5-5.7c5.8-1.5,11.3-2.8,12.3-2.8c0.9,0,6.5-1.3,12.4-2.8c5.9-1.6,16-4.1,22.3-5.6
		s16.7-4,23-5.6c6.3-1.5,17.4-4.2,24.5-6c7.2-1.7,17.3-4.2,22.5-5.5c5.2-1.3,11.1-2.7,13-3.1c1.9-0.3,7.6-1.7,12.5-2.9
		c5-1.3,14.9-3.8,22-5.5c7.2-1.7,17.2-4.2,22.2-5.6c5.1-1.3,10-2.4,10.9-2.4c1,0,6.7-1.3,12.8-2.9c6.1-1.7,17-4.4,24.1-6.1
		c7.2-1.8,17.3-4.2,22.5-5.5c5.2-1.3,11.2-2.6,13.2-2.9c2.1-0.4,4-1.1,4.4-1.7C767.9,516.3,768,515.8,767.9,515.6z M801.1,539.1
		c-11,1.8-23.1,6.4-23.1,8.8c0,0.5,3.9,1.1,8.7,1.5c5.7,0.5,12.7,2,19.7,4.3c8.7,2.8,12,3.4,15.7,3c4.9-0.6,13.9-4.2,13.9-5.5
		c0-0.4-2.6-1.6-5.7-2.6c-3.2-0.9-8.3-3-11.3-4.6c-3-1.5-8.2-3.3-11.4-3.9C804.3,539.5,801.4,539,801.1,539.1z M738,547.6
		c-4.9,1-20.6,5.7-26,7.9c-14.1,5.7-21.6,6.9-25.4,4c-1.9-1.4-1.9-1.5-0.1-3.4c0.9-1.1,3.4-2.6,5.4-3.2c5.5-1.8,5.8-2.2,2-3.5
		c-6.1-2.2-18.9-1.7-27.5,1.1c-4.2,1.4-9.1,3.4-10.8,4.4c-1.7,1.1-12.5,11.6-24.1,23.4c-17,17.3-22.1,21.9-26.6,24
		c-10.4,4.9-21.3,6.2-24.2,2.9c-3.6-3.9-1-6.3,10.8-10.1c6.9-2.3,9.6-3.8,13.1-7.2c2.4-2.4,4.4-5,4.4-5.9c0-2.4,6.6-9.7,12.2-13.5
		c2.7-1.8,4.6-3.5,4.1-3.8c-1.4-0.9-10,1.1-14.5,3.4c-2.3,1.2-7,4.3-10.5,7c-6.6,5-10.1,6.6-12.8,5.5c-2.5-0.9-1.7-3.5,2-5.8
		c4.2-2.8,4.4-3.8,0.8-3.8c-5.4,0-10.4,2.2-15.3,6.5c-5.8,5.1-16.6,11.6-23,13.8c-2.5,0.8-8,2.2-12.2,3.1c-12.7,2.6-18.1,4.3-23,7.1
		c-6.7,3.7-13.5,10.7-16,16.2c-2.8,6.1-2.9,16.1-0.3,21.8l1.8,4l1.1-5.5c0.7-3,1.7-6.5,2.4-7.7c2.2-4,9.1-8.4,17.9-11.5
		c15-5.2,22.3-3.6,41.6,9.4c4.7,3.2,10.7,7.6,13.4,9.9c11.1,9.7,21.1,14.1,31.6,14.1c6.5-0.1,14.1-2.1,19.3-5.3
		c3.6-2.2,13.4-12.3,13.4-13.8c0-1.6-2.6-1.3-4,0.3c-0.6,0.8-3.7,2-6.7,2.7c-6,1.2-10.9,0.4-14.7-2.4c-1.9-1.4-1.9-1.5,0.1-4.3
		c1.2-1.6,4.7-4.3,7.9-5.9l5.9-3H664c35.5-0.1,39.4-0.5,52.6-6.5c6.3-2.8,24.6-15.9,34.9-24.9c16.9-14.8,31.5-22.7,47.3-25.6
		c5-0.9,9.4-2.1,9.7-2.5c1-1.7-10.5-3.3-23-3.3c-12,0-13.7,0.3-22.5,3.3c-8.7,2.9-29.4,12.7-33,15.6c-0.8,0.6-4,2.5-7,4.1
		c-3,1.6-6.4,3.4-7.5,4c-2.6,1.5-14.2,6.5-22.5,9.7c-13.2,5-24.9,4.1-30.5-2.5c-2.5-3-2.5-3.2-0.8-5.1c2.9-3.2,5.8-3.9,22.5-4.8
		c19-1.1,23.1-2.5,41-14.3c13.3-8.7,24.3-14.1,30.8-15.2c6.6-1.1,7.9-2,4.9-3.5C758.5,547.7,742.6,546.7,738,547.6z M795.5,621.6
		C778,633.9,756,639.3,736.2,636c-16.7-2.8-31.1-0.9-43.7,5.6c-13.4,7-25.4,17.1-40.9,34.3c-12.7,14.1-17.7,18.7-28.1,25.2l-7,4.4
		l6,0.8c12.3,1.5,29.2,5,35.5,7.3c3.6,1.2,9.9,3,14,3.8c19.1,4,32.5-0.2,48-15c6.3-6,12.2-13.4,10.7-13.4c-0.2,0-3.7,1.1-7.7,2.5
		c-9.6,3.3-13.7,3.3-15.1,0.1c-2.4-5.2,2.1-11.6,11.1-15.7c5.1-2.4,19.2-6.9,29-9.4c8.6-2.2,24.5-10.6,32.4-17.1
		c8.1-6.7,21.6-25.2,21.6-29.6C802,617.4,801.3,617.6,795.5,621.6z M381.5,636.4c-5.7,1.8-9.3,3.8-20.3,11.3
		c-41.7,28.5-43.3,29.3-54.6,29.3c-7.1,0-8.6-0.3-10.2-2.1c-3.5-3.8-1.3-5.1,17.4-10.5c7.9-2.2,14.1-6.6,18.7-13
		c4.3-6,4.7-8.9,0.8-5.2c-7.6,6.9-16.7,7.4-33.3,1.7c-12.8-4.3-20-4.3-29-0.2c-11.8,5.5-18.4,14.5-24.1,32.9
		c-1.4,4.6-3.2,7.9-5.5,10.2c-3.4,3.4-3.5,3.5-11,3l-7.5-0.5l2.8,2.9c7.5,7.8,19.8,10.9,28.4,7.1c2.5-1.1,6.1-3.4,8-5.1
		c2-1.7,4.7-3.6,6.1-4.1c3.2-1.2,9.3,0.1,12.1,2.7c1.2,1,6,4.5,10.7,7.7c4.7,3.2,10.2,7.3,12.3,9c6.1,5.2,14.9,9.5,19.6,9.5
		c2.3,0,4.1,0.4,4.1,1c0,0.5,0.7,1,1.5,1s1.5-0.5,1.5-1c0-0.6,1.8-1,4.1-1c5,0,18.2-6.5,22.5-11.2l2.9-3.1l-2.5,0.7
		c-7.2,1.8-9.7,1.8-13.8-0.3c-2.2-1.1-4.4-3-4.7-4.2c-1-2.9,2.8-6.6,8.6-8.3c8.6-2.6,13.9-0.1,31.8,14.9c8.1,6.8,12.7,9.9,15.8,10.8
		c2.3,0.6,4.3,1.5,4.3,1.9c0,1.1,12.7,1,13.4-0.1c0.3-0.4,1.9-1.1,3.6-1.5c1.7-0.3,4.6-1.7,6.4-3.1c1.8-1.4,3.8-2.5,4.4-2.5
		c0.7,0,1.2-0.7,1.2-1.5c0-1.1-1.3-1.5-5.4-1.5c-6.8,0-16.4-3.5-17.8-6.6c-1.5-3.2,0.5-6.2,4.8-7c7.3-1.4,13.8,0.6,34,10.2
		c18.3,8.7,35.8,11.4,51,7.8c10.8-2.5,23.8-2.4,28.1,0.1c4.3,2.5,5.6,1,1.8-2.2c-9.9-8.2-12.9-10.3-17-11.7c-2.5-0.9-6.5-2.3-9-3.2
		c-5.9-2.1-7.7-5-4.5-7.6c2.9-2.3,4.1-2.3,22.6,0.7c21.5,3.5,23.1,3.2,53.2-11.2c18.5-8.9,30.1-9.1,43.7-1c4.1,2.5,7.7,4.2,7.9,3.8
		c0.9-1.4-9.5-11.9-16.1-16.5c-15.1-10.3-23.2-10.9-46-3.5c-12.5,4-16.4,4.9-19.5,4.4c-8.5-1.5-4.6-7.5,4.8-7.5
		c6.1,0,6.9-1.3,3.1-4.8c-4.5-4.3-14.4-7.4-24.7-7.9c-16.4-0.8-25.2,2.5-46,17.4c-15.3,11-19.5,13.4-29,16.8
		c-15.7,5.7-34.8,3.9-42.7-4c-4-4-4.2-7.3-0.9-11.2c2.1-2.4,3.1-2.7,7.7-2.7c3,0.1,10.1,1.1,15.8,2.4c11.2,2.4,17.7,2.3,23-0.5
		c4.9-2.5,10.1-7.5,11.6-11.3c1.5-3.5,2-10.4,0.8-11.5c-0.3-0.4-2.8,1.3-5.4,3.8c-4.3,4-5.3,4.5-9.6,4.5c-3.2,0-6.4-0.8-9.5-2.5
		c-2.6-1.4-5.2-2.5-5.7-2.5c-0.6,0-5.5-2.5-11-5.5c-5.4-3-12.5-6.2-15.7-7C399.4,634.7,387,634.6,381.5,636.4z M771.8,668.4
		c-7,2.9-11.1,6.4-22.1,18.7c-5.8,6.6-10.1,10.4-13.3,11.9l-4.6,2.3l3.8,2.3c3.3,2,5.2,2.4,12.5,2.4c7.8,0,9.3-0.3,14.5-3.1
		c7.4-3.8,12.7-8.9,16.6-15.6c3.7-6.6,11.1-14.9,15-16.9c2.8-1.5,2.9-1.6,1.1-2.9C792.2,665.1,778.6,665.6,771.8,668.4z"/>
	<path id="path6" fill="#CC0000" d="M171.8,144c0.5,1.3-3.4,8.5-8.8,16.5c-7.9,11.7-15.8,18.2-36,29.8c-6.4,3.6-17.7,13.4-20.2,17.4
		c-2.1,3.6-3.5,12.5-2.4,16.7c0.8,3.3,5.5,5,11.2,4.1l4.7-0.7l-3.2,4.1c-4.8,6.1-13.3,13-20.3,16.4l-6.3,3.2l-22.3,0.3l-22.3,0.3
		l1.5-2.9c0.9-1.7,4-7.1,7.1-12.1c3-5,5.5-9.4,5.5-9.7c0-0.4,0.6-1.5,1.4-2.3c0.8-0.9,2.3-3.2,3.4-5.1c7.7-14,16.5-27.3,21.5-32.6
		c10-10.8,17.6-14.4,39.6-18.9c13.8-2.8,13.5-2.7,23.1-7.4c5.1-2.5,9.9-5.9,15-10.8C168.1,146.4,171.6,143.5,171.8,144z"/>
	<path id="path8" fill="#CC0000" d="M358.4,139c0.5,0-2.1,2.8-5.6,6.2c-7,6.7-11.7,14.2-18.8,29.8c-6.6,14.5-10.2,19.9-18.5,28.3
		c-8.6,8.6-14.3,12.3-29,18.6c-10.8,4.6-17.1,8.8-20.4,13.7c-2.5,3.6-2.6,6.2-0.7,10.9c3.3,7.7,10.6,8.3,26.1,2.1
		c4.8-2,9-3.4,9.2-3.2c0.2,0.2-6.3,7.1-14.4,15.3c-18.7,18.9-20.4,19.7-54.8,28.8c-20.9,5.5-30.3,10.4-37.6,19.6
		c-3.9,4.9-5.1,9.6-3.4,13.5c2.8,6.6,8.7,8.6,17.3,6.1c2.9-0.9,5.2-1.2,5.2-0.7c0,1.6-7.8,6.8-13.9,9.2c-5.1,2.1-7.3,2.3-26.6,2.4
		c-24.1,0.1-28.2,1-36.6,8.2c-6.4,5.6-8.8,10.8-8.6,18.7c0.3,9.4,2,10.9,11.9,10.3l7.7-0.5l-1.9,2.6c-4.6,6.4-13.8,14.1-20,16.9
		c-6.1,2.7-7.6,3-24,3.6c-21.8,0.9-31.4,2.1-35.9,4.4c-4.6,2.4-8.7,8.3-10.2,14.7c-2.7,11.7-6.4,17.3-14,21
		c-2.7,1.3-4.9,2.2-4.9,2.2c0-0.1,0.9-2.7,2.1-5.7c2.6-6.8,2.2-13.8-1.6-25.5c-3.8-11.9-4.3-21.5-1.5-30.6
		c3.8-12.7,8.6-20,15.3-23.5C55.6,353.6,82,343.3,82,344c0,0.3-1.6,2.5-3.5,4.7c-7.5,8.8-13.5,18.6-13.5,22
		c0,6.2,5.1,12.3,10.3,12.3c1.8,0,10.3-5.5,14.5-9.4c8.3-7.6,16.8-21.7,22.2-36.6c1.3-3.6,2.7-7,3.1-7.5c0.4-0.6,1-2.2,1.3-3.5
		c0.3-1.4,1.5-5,2.7-8s2.5-6.9,3-8.5c2-7.2,6.9-19.8,9.5-24.2c2.8-4.8,12.6-15.1,18-18.8c6.1-4.3,18.8-8.6,41.9-14.2
		c9.4-2.3,19.7-8.5,22.5-13.7c0.7-1.4,1.7-2.6,2.2-2.6c2.9,0-3.3,12.9-8.9,18.2c-2.1,2-9.2,6.6-15.8,10.3
		c-17.5,9.7-24.5,17-24.5,25.5c0,3.8,0.5,5.1,3,7.5c5.8,5.6,17.9,4.3,32-3.4c20.2-10.9,30.7-23.9,42.6-52.7c2-4.9,4.7-11,6-13.7
		c1.4-2.6,2.2-4.7,1.9-4.7c-0.4,0,0.1-1.2,0.9-2.8c0.9-1.5,3.5-7,5.9-12.3c6.8-14.7,16.2-25.4,27.4-31.2c4.8-2.5,5.3-2.1,3,2.4
		c-1.7,3.5-1.8,4.6-0.8,7.9c1.4,4.7,4.3,7,9.1,7c3.1,0,4.5-1.1,13.1-9.8c7.1-7.2,10.8-12,14.5-18.6c8-14.4,12.5-18.6,26.2-24.2
		C355,140.1,357.9,139,358.4,139z"/>
	<path id="path10" fill="#CC0000" d="M615.5,163.7c1.5,0.9,1,1.2-3.4,2.2c-2.9,0.6-7.6,1.1-10.5,1.1c-7.1,0-16.3,1.8-20.7,4
		c-5.1,2.7-9.9,8.4-9.9,12c0,7.3,4.2,10.4,13.8,10.2c7.9-0.2,15.6-2.4,29.6-8.6c36.6-16.3,54-22.1,63.9-21.4l4,0.3l-5.9,1.8
		c-7,2.2-24.5,10.7-32.4,15.8c-10.4,6.7-22.1,13.9-22.6,13.9c-0.2,0-2.1,1.1-4.2,2.4c-8.3,5.2-18.6,8.9-28.7,10.2
		c-12.1,1.6-32.1,0.1-53.5-4.1c-17.3-3.4-26.5-3.2-33.4,0.9c-5,2.9-8.6,7.7-8.6,11.4c0,3.8,3.7,9.9,7,11.3c4.6,2.1,3.6,2.8-3.4,2.5
		c-7.2-0.3-8-0.7-25.6-13.3c-5.5-4-14.8-9.7-20.6-12.8c-9.2-4.8-11.2-5.5-16.3-5.5c-4.5,0-6.5,0.5-8.6,2.2
		c-3.2,2.5-5.5,7.4-5.5,11.9c0,3-0.1,3.1-3.3,2.6c-1.9-0.3-7.9-2.6-13.3-5.1c-12.7-5.8-18.1-7-24.8-5.6c-6.9,1.4-11.1,4.1-13.5,8.7
		l-2,3.8l-0.1-4.7c0-5.3,3.3-15.2,7.4-22.1c3-5.2,7.3-8.8,14.9-12.6c4.8-2.3,6.3-2.5,19.2-2.6c15.9-0.2,18.6-0.7,23.5-4.7
		c1.9-1.5,3.8-2.8,4.3-2.8c0.5,0,2.2-0.9,3.8-2.1l2.9-2.1l-0.6,5.6c-0.8,6.6,0.6,9.4,6,12c4.7,2.2,9.9,1.3,18.9-3.5
		c14.5-7.8,19.3-9.8,25.1-10.7l5.9-0.9l-3.7,3.1c-7.5,6.3-9.7,13.7-5.7,18.7c1.8,2.3,2.5,2.4,13.3,2.4c10.5-0.1,11.9-0.3,19.2-3.3
		c8.2-3.4,28.4-12.8,34.6-16.1c3.2-1.7,17.9-6.1,25-7.5C581.5,161.7,613.6,162.7,615.5,163.7z"/>
	<path id="path12" fill="#CC0000" d="M175.8,182.5c0.1,0.1-0.5,1.8-1.3,3.8c-0.8,2-1.5,4.4-1.5,5.4c-0.1,3.6-7.1,18.8-10.1,21.9
		c-3.1,3.2-13.4,8.2-14.5,7.1c-0.3-0.3,0.8-3.1,2.4-6.3c1.6-3.3,3.9-8.5,5.2-11.8c2.6-6.6,11.6-17,16.4-19
		C174.1,182.9,175.6,182.4,175.8,182.5z"/>
	<path id="path14" fill="#729FCF" d="M807.4,177.1c0.5-0.1,5,4.1,10,9.1l9,9.3l-3.9,0.6c-2.2,0.3-5.8,1.4-8,2.3
		c-2.2,1-5.3,2.2-7,2.6c-1.6,0.5-5.5,1.8-8.5,2.9c-3,1.2-7.1,2.6-9,3.1c-1.9,0.5-9.3,3-16.5,5.5c-19.3,6.9-19.6,6.9-22.2,3.7
		c-3.2-3.8-4.4-8.3-2.7-10.2c2.9-3,31.9-18,46.9-24.2c3.3-1.4,7.1-3,8.5-3.6C805.4,177.6,806.9,177.1,807.4,177.1z"/>
	<path id="path16" fill="#729FCF" d="M830,201.7c0,0.5-0.6,3-1.3,5.8l-1.3,5l-6.5,1.1c-3.5,0.7-8.9,1.7-11.9,2.3
		c-3,0.7-9.3,1.6-14,2.1c-4.7,0.4-15.2,1.6-23.4,2.5c-15.2,1.6-21.3,0.9-11.9-1.4c6-1.5,18.8-5.1,31.9-9.1c5.5-1.6,10.9-3,12-3.1
		c1,0,5.7-1.3,10.4-2.9C822.2,201.3,830,200.2,830,201.7z"/>
	<path id="path18" fill="#3465A4" d="M749.6,217.6c3.7,5.8,4.4,6.3,8.9,6.8c3.3,0.4,4.5,2,4.5,6.4c0,4.7-2.2,9.4-5.9,12.5
		c-2.7,2.3-4.2,2.7-9.1,2.7h-5.8l-1.2-4.8c-0.6-2.6-2.5-7.1-4.1-10.1c-1.6-3-2.9-6.6-2.8-8c0.1-4.1,3.2-8.5,7-9.8
		C746,211.6,745.7,211.5,749.6,217.6z"/>
	<path id="path20" fill="#3465A4" d="M718.4,222c0.9,0,1.6,0.4,1.6,1c0,0.5,1.9,1,4.3,1c3.4,0,4.3,0.4,4.3,1.7c0,1,1.1,6,2.3,11.1
		c1.4,5.3,2,9.7,1.5,10.2c-0.5,0.4-2.8,1.1-5.1,1.5c-4.3,0.7-5,0.1-4.4-3.7c0-0.4-0.8-3.1-1.8-6c-1.1-2.9-2.2-7.1-2.6-9.3
		c-0.3-2.2-0.8-4.8-1.1-5.8C717,222.6,717.4,222,718.4,222z"/>
	<path id="path22" fill="#3465A4" d="M716.2,227c0.1,1.6,0.2,4.3,0.3,5.9c0.1,1.6,0.9,4.7,1.9,7c0.9,2.3,1.6,5.7,1.6,7.5
		c0,3.9-1.4,4.6-9.7,4.6c-2.9,0-9.9,0.6-15.5,1.4c-20,2.8-20.6,2.8-21.6,0.9c-2-3.9-2.2-8-0.4-9.6c0.9-0.8,9.1-4.9,18.2-9.1
		s17.9-8.5,19.5-9.5C714.7,223.3,716,223.6,716.2,227z"/>
	<path id="path24" fill="#204A87" d="M769.5,241.2c0.7,4.1,0.5,4.8-0.9,4.8c-1.4,0-1.6-1.3-1.5-8.8
		C767.3,228.2,767.5,228.6,769.5,241.2z"/>
	<path id="path26" fill="#75507B" d="M759.6,249.1c0.7,0,1.6,2.9,2.3,7.1c2.2,13.8,3.9,19.9,6.9,24.6c1.7,2.6,3.5,5.9,4.1,7.4
		c1,2.6,1.4,2.8,7,2.8h6l1.7,5.7c0.9,3.2,2.1,7.1,2.7,8.6c1.2,3.4,6.6,7.3,12.2,8.9l4,1.1l-4.9,1.5l-4.8,1.4l4.6,4.7
		c4.8,4.9,11.1,16.4,12.1,22.2c0.3,1.9,1,5,1.5,6.9c1.3,4.6,1.3,18,0,18c-0.5,0-2.6-3.4-4.6-7.5c-4-8.3-5.4-9.3-3-2.2
		c2.3,6.7,5.4,19.7,5.7,23.7c0.2,2-0.3,5-1,6.8c-1.1,2.6-1.6,3-3.1,2.2c-1.9-1-6.3-9.3-6.3-11.7c0-0.7-0.4-1.3-0.9-1.3
		c-1,0-0.5,3.9,2.8,21.4c1.3,7.1,2.3,13,2.1,13.2c-1,0.8-4.7,1.4-4.7,0.7c0-0.7-2.3-13.9-5.5-31.8c-0.5-3-1.4-5.6-4.2-12.5
		c-5.7-14.2-15.3-27.5-25.3-35.3c-16.2-12.4-30.1-17.7-47-17.7c-24.7,0-50.1,14.3-63.8,35.9c-4.3,6.8-11.8,22.8-12.7,27.3
		c-0.2,0.9-1.6,5-3.1,9c-2.5,6.6-2.8,8.8-3.1,22.9c-0.3,13.5,0.1,18.3,2.6,34.5c3.1,20.2,4.7,37,3.7,40.2
		c-0.9,2.8-2.1,3.2-32.6,10.7c-5.2,1.3-13.5,3.3-18.5,4.6c-4.9,1.2-11.5,2.8-14.5,3.4c-3,0.7-10.2,2.5-16,3.9
		c-5.8,1.5-15,3.8-20.5,5.1s-14.7,3.6-20.5,5.1c-5.8,1.4-13.3,3.2-16.6,3.9c-3.4,0.8-9.3,2.3-13.1,3.4c-3.9,1.2-7.8,2.1-8.9,2.1
		c-1,0-5.9,1.1-10.9,2.4c-21.1,5.6-33.1,8.6-34.4,8.6c-0.8,0-6.4,1.3-12.5,2.9s-15.6,4.1-21.1,5.4c-5.5,1.3-14,3.5-19,4.7
		c-4.9,1.3-12.4,3.1-16.5,4c-4.1,1-11.5,2.7-16.5,4c-20.8,5.1-29,7.1-38.2,9.5c-5.4,1.4-11.1,2.7-12.8,3c-1.6,0.4-6.5,1.5-10.8,2.6
		c-8.1,2.1-8.9,2-9.3-0.8c-0.9-6-11-44.1-14.2-53.3c-12.1-35.2-31.3-58.7-55.3-67.5c-15.9-5.9-16.3-5.9-37.9-5.9h-20.5l-10.5,3.6
		c-13.2,4.5-24.1,10.5-33.4,18.4C86.9,490.1,74.5,511.3,70,538c-2.2,12.8-2.5,24.2-1,37c0.6,4.7,1.3,10.9,1.6,13.9
		c0.2,3,1.6,10.5,2.9,16.5c3.6,16.2,3.6,16.5,1.7,17.5c-5.5,2.8-17.9,1.8-25.3-1.9c-6.5-3.4-5.7-4.5,4.1-5.7
		c15-1.9,17-4.4,13.9-17.1c-1.4-5.8-2.3-14.1-2.8-25c-0.5-8.9-1.1-16.5-1.4-16.9c-0.4-0.3-0.7,5.1-0.7,12.1v12.7l-2.9,1.6
		c-2.5,1.5-2.7,2-1.8,4c0.9,2.1,2.2,2.7,5.4,2.6c0.7-0.1,1.3,0.4,1.3,1.1c0,0.6,0.3,2.1,0.6,3.3c0.7,2.6-0.2,2.9-11.6,4.2
		c-4.7,0.5-9.2,1.2-10.1,1.6c-1.3,0.5-2.4-0.9-4.7-5.7c-1.7-3.5-4-7.2-5.1-8.2c-2.8-2.5-2.6-4.6,0.6-7.6c1.4-1.4,3.4-4.5,4.5-6.9
		c1.8-4.3,1.8-4.5-0.2-12c-1.5-5.4-2.9-8.2-4.7-9.7c-2.4-1.9-2.6-2.7-2.7-10.7l-0.1-8.6l5.5-0.3l5.5-0.3v-6c0-4.9,0.5-6.9,2.8-10.5
		c1.6-2.5,4.7-7.7,7-11.5c2.2-3.9,6.9-10.8,10.5-15.4c3.5-4.6,6-8.7,5.5-9.2c-1.1-1.1-12.4,3.4-19,7.7c-7.1,4.5-12.3,11.5-19,25.3
		c-3,6.4-6.4,12.2-7.4,12.9c-1.7,1.2-1.9,2.7-1.9,13.7c0,6.8-0.4,12.6-0.9,13c-0.5,0.3-1.9-0.7-3-2.1c-1.9-2.4-2.1-4-2.1-17.1
		c0-21.1,0.2-21.6,13.4-34.6c6.1-5.9,14-13,17.6-15.7c14.9-11.2,21.6-16,24-17.2c1.4-0.7,4.3-2.4,6.5-3.9c2.2-1.5,8.5-5.2,14-8.3
		c5.5-3.1,10.7-6.1,11.5-6.6c9.5-5.8,18.7-10,21.8-10c2.9,0,6.4-1.8,17.2-9c8.2-5.4,21.7-12.9,34.5-19.2c19.6-9.5,21.5-10.2,28-10.6
		c6.4-0.3,8,0,19,4.3c15,5.9,21,6.5,33.2,3.7c4.8-1.1,12.9-2.3,17.8-2.6c5.3-0.3,12.5-1.6,17.5-3.1c4.7-1.4,11.4-3.2,14.9-4
		c3.5-0.9,7.5-2.2,9-3c1.4-0.8,6.7-2.7,11.6-4.3c34.9-11.2,169.1-55.6,182.5-60.5c6.5-2.3,15.1-2.7,17.4-0.8
		c2.3,1.9,3.3,0.5,1.3-1.7c-2.1-2.3-2.1-3.2-0.1-3.2c1.5,0,24.4-7.3,43.9-14c4.4-1.5,12.1-4,17-5.5c5-1.5,12.6-4,17-5.4
		c4.4-1.5,12.7-4.2,18.5-6c5.8-1.8,13.7-4.3,17.5-5.6c14-4.7,26.7-8.5,28.2-8.5c2.2,0,18.8-5.1,34.8-10.7c11.3-3.9,21-6.7,48-13.5
		C755.8,249.9,759,249.2,759.6,249.1z M704,313.5c-11.6,2.2-23.5,7.5-31.8,13.9c-11.8,9.2-25.1,25.1-28.1,33.7
		c-1.5,4.3-0.9,3.5,7.2-8.7c7-10.8,16.6-20.5,24.4-25c2.7-1.5,5.5-3.3,6.3-4c0.9-0.8,5.9-2.9,11.1-4.8c21-7.6,45.3-5.5,67.8,5.8
		c4,2.1,7.5,3.5,7.7,3.3c0.5-0.5-8.3-6.1-12.6-8c-5.9-2.5-18.3-5.7-22.2-5.7c-2.1,0-3.8-0.5-3.8-1C730,311.6,712,311.9,704,313.5z
		 M582.5,325.1c-1.1,0-2.4,0.2-3,0.4c-0.5,0.2-5,1.5-10,3c-4.9,1.4-13.5,4-19,5.7c-5.5,1.7-14,4.3-19,5.8c-4.9,1.5-13.3,4-18.5,5.5
		c-5.2,1.5-13.8,4-19,5.6c-23,7.1-29,8.9-37.5,11.4c-4.9,1.5-12.8,4-17.5,5.5s-16.6,5.4-26.5,8.5s-21.6,7-26.1,8.6
		c-4.4,1.6-8.4,2.9-8.9,2.9s-4.5,1.3-8.9,2.9c-4.5,1.5-12.1,4.1-17.1,5.6c-8.5,2.6-16.4,5.2-31.5,10.4c-3.6,1.3-11.4,3.8-17.5,5.8
		c-10.2,3.3-16.8,5.5-33.5,11.2c-3.6,1.3-11.4,3.8-17.5,5.8c-11,3.5-25.7,8.8-28.5,10.2c-3,1.6-2,3.6,3,5.9c6.4,2.9,23,17.9,28,25.2
		c6.2,9.3,14.6,24.4,17.5,31.6c1.5,3.8,4,9.7,5.6,13c1.5,3.4,3,7.2,3.3,8.5c0.4,2.2,4.2,13.6,7.2,21.9l1.3,3.5V546
		c0.1-2-0.5-5.9-1.3-8.9c-1.3-5.2-1.3-5.3,1.1-6.2c1.3-0.5,3.6-0.9,5.1-0.9c1.5,0,7.7-1.3,13.7-2.9c6.1-1.7,15.5-4.1,21-5.5
		c13.5-3.3,32-8,46.3-11.6c6.4-1.6,16.7-4.1,22.7-5.5c6.1-1.4,16.2-3.9,22.5-5.5c6.3-1.6,17.1-4.3,24-6c6.9-1.8,16.3-4.3,21-5.6
		c4.7-1.3,9.1-2.4,9.9-2.4s6.4-1.3,12.5-2.9c20-5.3,48.4-12.4,62.6-15.6c10.8-2.5,12-3.4,12-9.8c0-4.5-1.7-24.9-2.3-28
		c-0.2-1.2,17.1-5.1,29.4-6.6c11.2-1.4,24.8-5,29.7-7.7c3.9-2.3,5.8-4.8,3-4c-2.7,0.9-23.5,5.8-55.2,13c-7.9,1.8-8.6,1.5-8.6-4.5
		c0-8.1-7.1-34.9-10.2-38.3c-0.4-0.6-0.8-1.7-0.8-2.5c0-0.9-0.6-2.7-1.3-4.1c-1.7-3.2-3-7-6.9-19c-4.8-15.1-5.9-13.2,11-18.5
		c8.1-2.6,19.2-6.1,24.7-8S583.6,325.1,582.5,325.1z M164.1,418c-6.8,3.3-12.2,6.3-11.9,6.6c0.6,0.6,24.8-11.3,24.8-12.1
		C177,411.7,177.3,411.6,164.1,418z M148,427.1c-1.9-0.1-12.4,4.8-11.8,5.4c0.3,0.3,3.4-0.8,6.9-2.4
		C146.6,428.4,148.8,427.1,148,427.1z M129,436.1c-2.7,0.3-18.5,8.7-17.7,9.6c0.5,0.4,14.4-6.4,17.7-8.6
		C130.3,436.1,130.3,436,129,436.1z M179.5,440.3l-8.5-0.1c-8-0.1-23.3,2.4-29.6,4.8c-5.4,2.1-1.7,1.8,8.1-0.6
		c5.5-1.4,14.5-2.9,20-3.3L179.5,440.3z M548.5,481.6c-6,1.3-18,3.8-26.5,5.5c-8.5,1.7-20.7,4.2-27,5.5c-6.3,1.3-12.5,2.4-13.7,2.4
		c-1.3,0-2.3,0.5-2.3,1c0,0.7,1.3,0.9,3.3,0.6c1.7-0.3,11.5-1.9,21.7-3.5c10.2-1.7,25.7-4.1,34.5-5.5c8.8-1.5,19-2.6,22.7-2.6
		c6.4,0,6.9,0.2,10.4,3.6c4.2,4.2,4,4.4-5.1,6.3c-9.4,2-27.8,6-42,9.1c-20.8,4.7-40.2,8.9-52,11.5c-14.3,3.1-35.7,7.9-52,11.5
		c-7.1,1.6-18.2,4-24.5,5.4c-29.7,6.4-41,9.2-41,10c0,0.4,0.8,0.5,1.7,0.2c0.9-0.4,3.8-1,6.3-1.3c2.5-0.3,7.9-1.4,12-2.4
		c5.7-1.4,7.6-1.5,8.2-0.6c1.3,2,0.9,2.7-1.4,2.7c-1.2,0-7.9,1.4-14.8,3c-6.9,1.7-17.2,4.2-23,5.5c-11.3,2.6-31.2,7.2-45,10.5
		c-4.7,1.1-9.3,2-10.1,2c-2.9,0-5.8-4.5-8.8-13.5c-3-9.3-5.9-16.5-6.5-16.5c-0.5,0,2.1,9.8,4.3,16c1.1,3,2.2,6.7,2.5,8.1
		c0.9,4.4,4.4,7.9,7.8,7.9c1.6,0,8.2-1.3,14.7-2.9c6.4-1.6,17-4.1,23.6-5.5c14.1-3.2,33-7.5,50.5-11.5c6.9-1.6,17.9-4.1,24.5-5.6
		c13.5-3,32-7.3,50.5-11.5c6.9-1.6,17.7-4.1,24-5.5c6.3-1.4,17.1-3.9,24-5.5c14.3-3.3,35.5-8.1,51.5-11.7c28.4-6.3,38-8.9,38.3-10.6
		c0.4-1.8-4.1-4.9-15.6-10.9C565.6,478.3,563.8,478.2,548.5,481.6z"/>
	<path id="path28" fill="#5C3566" d="M535,349.3c0,2.3,6.5,21.4,9.5,28.2c2.4,5.5,7,22.3,8,29.5c0.4,2.5,1.3,7.2,2.1,10.5
		c1.9,8.3,1.9,8.3-2.6,9.5c-5.1,1.4-5.2,2.2-0.2,1.4c5.2-0.8,6.2,0.7,6.3,9.7c0,4.1,0.4,10.3,0.9,13.8c0.5,3.8,0.5,7.1,0,8.1
		c-0.9,1.6-3.4,2.4-34.5,10.2c-6.6,1.6-16.9,4.3-23,5.8c-6,1.6-15.9,4-22,5.5c-13,3.2-30.7,7.6-46,11.5c-6,1.6-15.9,4-22,5.5
		c-13,3.2-30.7,7.6-46,11.5c-6,1.6-15.9,4-22,5.5c-6,1.4-15,3.7-20,5c-19.6,5.2-28.5,6.3-28.5,3.4c0-0.5-0.5-0.9-1-0.9
		c-0.7,0-0.7,0.7,0,2.1c0.7,1.1,1,2.2,0.8,2.3c-0.6,0.4-8.2,2.5-8.4,2.3c-0.1-0.1-1.6-4-3.4-8.7c-6.6-17.4-20.4-42.9-29.7-55.2
		c-2.3-3.1-8.4-9.4-13.4-14.1l-9.2-8.5l3-1.5c1.6-0.9,16-5.9,31.9-11.2c15.9-5.3,29.8-10,30.9-10.5c1.1-0.5,17.5-6.1,36.5-12.5
		c19-6.3,54.5-18.2,79-26.4c38.9-13,58.1-19.3,91.5-29.8c4.4-1.4,11.8-3.8,16.5-5.4c4.7-1.5,9.4-3,10.5-3.2
		C532.6,342.4,534.9,345.7,535,349.3z"/>
	<path id="path30" fill="#204A87" d="M767.1,250.5c2.3,0.8,4.9,1.5,5.8,1.5c0.9,0,4.9,4.4,9,9.7l7.4,9.6l-7.8-0.6
		c-4.3-0.4-9.3-0.7-11.1-0.7c-3.1,0-3.4-0.3-3.9-3.8c-0.3-2-1.3-6.5-2.1-9.9c-0.7-3.4-1.4-6.4-1.4-6.7
		C763,249.3,764.9,249.7,767.1,250.5z"/>
	<path id="path32" fill="#5C3566" d="M566,252.2c24.1-0.2,33.9,0.3,63.5,2.8c41.3,3.5,49.9,3.7,67.7,1c17-2.5,20.8-2.6,20.8-0.3
		c0,1.8-7.6,5-17.5,7.4c-2.1,0.6-4.4,1.4-5,1.8c-0.5,0.5-3.5,1.6-6.5,2.4c-3,0.9-9.5,2.7-14.5,4.1c-4.9,1.4-10.3,2.8-12,3.2
		c-1.6,0.4-14.2,4.4-28,8.9c-13.7,4.5-29,9.4-34,10.9c-4.9,1.6-13,4.1-18,5.7c-4.9,1.6-13.3,4.2-18.5,5.8
		c-5.2,1.5-13.5,4.1-18.5,5.6c-4.9,1.5-14.8,4.7-22,7.2c-25.1,8.7-68.6,23.2-129.5,43.3c-33.8,11.1-65.1,21.5-69.5,23
		c-10.7,3.7-21.8,7-28.5,8.5c-3,0.7-8.6,2.1-12.5,3.3c-20.3,5.8-16.9,3,4.5-3.8c9.1-2.8,19.4-6.3,23-7.6s7.1-2.4,7.7-2.4
		c0.6,0,4.7-1.3,9-2.8c4.3-1.6,15.9-5.5,25.8-8.7c17-5.4,25.4-8.2,40.5-13.4c3.6-1.3,11.5-3.8,17.5-5.8c6.1-1.9,14.2-4.7,18-6
		c3.9-1.4,8.4-2.9,10-3.3c1.7-0.5,8.9-2.9,16-5.5c7.2-2.6,14.4-5,16.1-5.5c1.8-0.4,6.3-1.9,10-3.2c10.2-3.7,22.5-7.9,25.9-8.8
		c1.7-0.5,14.9-5,29.5-10c14.6-5,33.7-11.6,42.5-14.5c33.8-11.5,37-12.6,37.9-13.5c2.5-2.5-16.9-7.5-44.4-11.6
		c-14.4-2.2-81.1-2.6-95-0.5c-46.6,6.7-72.1,14.7-103.6,32.6c-5.4,3.1-11.8,7-14.1,8.6c-2.3,1.6-4.4,2.9-4.8,2.9
		c-0.3,0-6.3,3.9-13.2,8.6c-30.4,21-60.2,47.8-74.6,67.1c-6.6,8.8-7,9.1-12.5,10.5c-9.9,2.5-16.3,2.2-27-1.1
		c-11.5-3.6-14.1-5-9.7-5.1c3.4-0.1,11.1-3.9,17.6-8.7c2.4-1.8,7.1-5.2,10.4-7.5c3.3-2.4,8.9-7,12.5-10.4c3.6-3.4,9.9-8.4,14-11.2
		c4.1-2.8,12.2-8.5,18-12.6c5.8-4.2,14.8-10.5,20-14.2c5.2-3.6,13.8-9.7,19-13.4c21.9-15.8,40.5-26.9,51.3-30.6
		c30.6-10.6,54.4-16.8,94.2-24.3c14.2-2.7,47-7.5,58-8.4C535.7,252.5,550.3,252.3,566,252.2z M305.8,343.1l-8.3,8.1l9-7.2
		c5-3.9,9.2-7.6,9.3-8.1C316.8,333.3,313.3,335.8,305.8,343.1z M295,352.5c-0.8,0.9-0.8,1.5-0.2,1.5c0.6,0,1.4-0.5,1.7-1.1
		C297.6,351.2,296.4,350.8,295,352.5z M284.6,361.3c-7.6,6.8-36.8,38.8-36.1,39.5c1,1,5.8-3.2,11.1-10c3.2-4,12.1-13.7,19.8-21.6
		C294,354.4,296.6,350.5,284.6,361.3z"/>
	<path id="path34" fill="#204A87" d="M776.2,272.5c5.1,0.4,9.7,0.9,10.2,1.2c0.9,0.6,0.2,10.6-1,13.6c-0.4,1.3-1.9,1.7-5.4,1.7
		c-4.6,0-4.8-0.1-5.4-3.4c-0.4-1.9-1.3-3.7-2.1-4c-1.7-0.6-5.5-6.5-5.5-8.5C767,272,768.7,271.9,776.2,272.5z"/>
	<path id="path36" fill="#D3D7CF" d="M522.2,274.6c21.3,0.4,28.4,0.9,41,3c13.8,2.3,27.3,4.1,32.1,4.3c3.9,0.2,1.2,2.1-6.5,4.7
		c-4.6,1.4-8.7,3-9.3,3.4c-0.5,0.3-5.7,2.1-11.5,3.9s-13.9,4.6-18,6.1c-16.5,6.1-23.7,8.3-27.5,8.7c-3.9,0.4-4.1,0.3-9.2-6.4
		c-2.9-3.7-8.6-11.1-12.7-16.3c-4.1-5.2-7.5-9.8-7.5-10.2c-0.1-0.3,0.7-0.9,1.7-1.2C495.7,274.3,508.1,274.3,522.2,274.6z"/>
	<path id="path38" fill="#D3D7CF" d="M482.3,275.1c5.4-0.1,6.2,0.2,8.8,3c1.5,1.6,4.4,6.3,6.3,10.2c1.9,4,6,11.2,9.2,16
		c3.1,4.8,5.4,9,5.1,9.3c-0.6,0.7-37.3,13-95.2,31.9c-24.7,8.1-55.6,18.3-68.6,22.6c-13,4.4-23.9,7.9-24.2,7.9
		c-0.4,0-0.7-1.1-0.7-2.4c0-1.7,1.1-2.9,4.5-4.7c5-2.7,6.5-5.6,5.4-10.7c-0.7-3.3-3.3-6.1-5.7-6.2c-2,0-3.2,4.5-2.1,8.2
		c1.3,4.5,1.4,4.3-3.1,6.1c-4.1,1.6-4.1,1.6-3.4-0.6c0.4-1.2,1.3-4.7,2-7.7c1.3-5.7,4-8.9,7.8-9.1c1.1-0.1,0.5-0.4-1.4-0.8
		c-3.1-0.6-3.5-0.9-3.3-3.6c0.3-3.5,1.3-4.4,16.4-14.7C386,298.6,422.3,284,474,275.7C475.4,275.5,479.1,275.2,482.3,275.1z"/>
	<path id="path40" fill="#204A87" d="M379,281.8c0,0.4-3.7,2.9-8.2,5.7c-4.6,2.7-9.6,5.9-11.1,7.2c-4.2,3.4-5.7,3-5.7-1.5
		c0-4.9,1.6-6.3,11-9.6C372.3,281.1,379,280.2,379,281.8z"/>
	<path id="path42" fill="#888A85" d="M746.2,341.2c7.6,3,9.2,4.1,19.4,14.1c11.5,11.2,14.1,14.9,21.2,30.7c4,9,4.7,13.4,4.7,30.5
		c0,21.7-1.6,29-10.3,46.4c-6.5,13.1-23.8,28.7-37.6,33.7c-10.7,4-15,4.6-27.6,4.2c-11.2-0.4-13.5-0.9-22.1-4
		c-24.2-8.9-37.9-24.2-47.9-53.8c-3.2-9.2-3.3-10.1-3.3-26c-0.1-16.4-0.1-16.5,3.5-26.7c10-28.3,30-48.3,54-53.7
		C711.8,333.9,733.2,336.1,746.2,341.2z M710.5,355c-17.9,3.8-32.3,14.9-40.1,30.7c-3.8,7.6-7.3,22.2-7.4,30.4
		c0,7.9,3.6,25,6.8,31.6c6.6,14,19.6,27.4,30.6,31.5c7.8,2.9,19.5,4.9,24.6,4.2c14.4-1.9,29.7-10.2,38-20.5
		c4.3-5.5,9.7-14.9,10.5-18.6c0.2-1,1.2-4.5,2.2-7.8c1-3.8,1.7-9.7,1.7-16c0.2-29.6-16.3-54.6-41.6-62.9
		C727.3,354.7,716.6,353.6,710.5,355z"/>
	<path id="path44" fill="#2E3436" d="M724.6,373.4c2.6,2.1,2.7,2.5,1.2,3.9c-1,1.1-1.8,4.5-2.2,10.4c-0.4,4.8-1,9.6-1.2,10.5
		c-0.4,1.4,0.1,1.8,2,1.8c1.9,0,4-1.8,8.6-7.3c3.4-3.9,6.7-8.5,7.3-10l1.2-2.9l3.2,4.4c3.5,4.8,3.6,9.8,0.3,9.8c-1,0-3.9,2-6.4,4.3
		c-3.6,3.4-4.6,5.1-4.6,7.5c0,3.9,1.9,4.1,11.2,1.2c3.4-1.1,7.8-2,9.6-2c2.9,0,3.2,0.3,3.2,2.9c0,2.7-0.4,3-8.7,5.5
		c-10.1,3-11.3,3.6-12.7,6c-1.5,2.3,1.8,5,9,7.3c4.3,1.3,5.7,1.4,6.3,0.5c0.9-1.5,3.1,2.8,3.1,6.1c0,2.7-0.8,3.8-3.8,5.5
		c-2.1,1.2-2.2,1.1-1.6-1.2c0.5-2.2,0-2.6-5.1-4.5c-9.1-3.4-11.6-2.5-10.9,4.1c0.3,4,6.1,13.7,8.2,13.7c1.8,0.1,1.5,4-0.7,6.7
		l-1.8,2.3l-2-2.2c-1.1-1.2-3.9-5.7-6.2-9.9c-3.1-5.7-4.9-8-6.7-8.4c-1.4-0.4-2.8-0.3-3.2,0.1c-0.4,0.3-0.9,6.6-1.2,13.8l-0.5,13.2
		l-3.1,0.3c-4.7,0.5-5.4-1.2-3.8-9.8c1.7-9.9,1.7-16.2,0-18.6c-1.9-2.4-2.5-1.8-10.3,9.5c-6.5,9.5-8.4,11.1-11,9.5
		c-3.5-2.2-3.9-4.2-1.4-6.8c1.4-1.4,2.1-3.2,1.8-4c-0.5-1.2,0-1.6,1.8-1.6c1.8,0,3.3-1.5,6.4-6.2c4.8-7.3,5.1-9.3,1.5-10.2
		c-2.4-0.6-11.6,1.6-13.9,3.4c-0.5,0.5-3.1,1.1-5.7,1.5c-4,0.6-4.8,0.4-5.7-1.3c-0.6-1.2-1.1-2.5-1.1-3c0-1.1,14.9-6.7,20.1-7.6
		c1.9-0.4,4.4-1.3,5.5-2.1c3.6-2.6,0.1-6.3-11.7-12.5c-11.1-5.8-11.1-5.8-8.8-11.8l0.9-2.4l6.8,3.7c3.7,2.1,8.1,5.3,9.9,7.1
		c3.3,3.5,4,3.8,6.7,2.8c3.5-1.4,0.8-8.9-6.9-19.3l-4.8-6.5l2.7-2.3c3.9-3.3,5.2-2.9,8.2,2.4c1.5,2.7,3.3,5.5,3.9,6.3
		c0.7,0.8,1.5,3.3,1.8,5.4c0.4,2.2,1.5,4.9,2.7,6c2,2,2,2,3.5,0.1c1.2-1.6,1.5-4.3,1.2-13c-0.2-6.1-0.7-11.8-1.1-12.8
		C714.3,369.9,721.2,370.4,724.6,373.4z M720.1,405c-11.7,0-17.7,14.6-10,24.3c2.9,3.8,8.8,5.4,12.5,3.4c2-1.1,2.3-1.6,1.2-1.7
		c-1.6,0-1.6-0.3,0.2-3.3c1.2-1.9,2-5,2-7.6c0-2.5,0.6-5.2,1.5-6.1c1.3-1.4,1.2-2-1.2-5.3C724.1,405.6,723.1,405,720.1,405z"/>
	<path id="path46" fill="#2E3436" d="M720.9,412.9c0.8,0.5,1.3,2.8,1.4,6.2c0,4.9-0.2,5.5-2.5,6.3c-1.4,0.5-3.7,0.6-5.1,0.2
		c-4.8-1.2-5.7-9.9-1.3-12.8C714.9,411.8,719.2,411.8,720.9,412.9z"/>
	<path id="path48" fill="#2E3436" d="M769.9,400.8c3.1,9,3.7,17.1,1.8,22.9c-1.6,5.1-4.1,15.6-3.8,16.1c0,0.1-1.5,3.4-3.4,7.2
		c-4.2,8.4-10.4,15.7-11.6,13.8c-0.6-0.9-1.3-0.8-3.1,0.8c-1.3,1.1-3.9,3-5.8,4.2c-3.4,2-3.6,2-4.7,0.3c-1.4-2.2,0.8-5.2,5.4-7.5
		c4-2,8.4-7.4,12.7-15.6c2.2-4.1,4.5-7.1,6.1-7.8c1.6-0.8,2.5-2,2.5-3.5c0-1.3,0.3-2.6,0.6-3c1.3-1.3,1.3-11.1,0-17
		c-2-8.6-2.9-17.3-2.1-18.7C765.7,391.1,767.6,393.8,769.9,400.8z"/>
	<path id="path50" fill="#AD7FA8" d="M281.7,345.1c0.1-0.1,0.4,0.3,0.7,0.8c0.3,0.5-1.8,2.4-4.7,4.3c-2.8,1.9-9.2,7.1-14.2,11.4
		c-4.9,4.4-11,9.4-13.5,11.1c-2.5,1.7-6.7,4.9-9.5,7.2c-5.2,4.4-16.8,10.5-22,11.6c-2.9,0.6-2.8,0.5,1.4-2.7c2.4-1.8,5.3-4,6.5-4.8
		c5.1-3.5,13.4-9.7,17.6-13.1c5.1-4.1,16.1-11.8,28.8-20.1C277.6,347.7,281.6,345.1,281.7,345.1z"/>
	<path id="path52" fill="#888A85" d="M180.5,454.6c11.6,1.8,23,6,31.8,11.6c9.3,6,25.8,23.1,29.6,30.7c7.4,14.6,13.1,38,13.1,53.8
		c0,14.8-4.6,31-13.1,46.8c-4.2,7.7-22.2,25.9-30.4,30.6c-44,25.6-96.7,8.6-118.3-38.2c-3.8-8.1-6.6-16.4-9.3-27.9
		c-2.3-9.6-1.6-26,1.6-38c10-37.5,35.4-63,68.9-69C167.2,452.7,168.3,452.7,180.5,454.6z M162.9,458.1c-18.6,2.7-40.8,12-48.9,20.3
		c-2.4,2.5-4.1,4.6-3.8,4.6c0.4,0,4-2.5,8-5.5c14-10.7,25.4-14.9,44.8-16.6c13.6-1.3,20.4-0.9,31,1.8c1.4,0.3,2.2,0.3,1.9-0.1
		c-0.4-0.4-4.2-1.6-8.5-2.6C177,457.6,169.8,457,162.9,458.1z M190,466c4.7,1.6,9,2.8,9.5,2.6c0.6-0.2-2.7-1.5-7.3-3
		C181,462.1,179.4,462.4,190,466z M207,467.6l-5.5-2.8l3,2.6c1.7,1.4,5.5,4,8.5,5.7c7.1,4.1,22.8,19.8,26.8,26.9
		c3.3,5.8,4.4,6.2,1.6,0.7c-3.6-7.1-13-18.1-20.8-24.1C216.1,473.1,210,469,207,467.6z M151.2,469.4c-1.9,1-3.2,1.9-3,2.1
		c0.1,0.2,3.9-0.3,8.3-1.1c18-3.3,37.1,1.4,56,13.8l6,3.9l-6-5.8c-6.5-6.2-11.3-9-22.2-12.7C178.6,465.6,158.8,465.5,151.2,469.4z
		 M124.8,498c-5.3,4.6-12.2,14.7-16,23.5c-3.7,8.4-6.2,24.8-5.4,35.5c0.9,12.3,1.3,14.2,4.1,21.2c7.7,18.8,22.8,32.9,42.7,39.9
		c7,2.4,9.9,2.9,18.3,2.9c10.7,0,14.3-0.7,24.5-4.7c6.5-2.6,7.6-3.2,16.1-10.1c9.4-7.6,18.2-20.2,22.9-32.8
		c3.1-8.5,3.3-9.5,3.3-22.9c0-12.8-0.3-14.6-2.8-21.5c-5.6-15.3-11.2-24-21.6-33.4c-7.4-6.7-15.3-10.7-26.3-13.6
		C164,476.8,142.3,482.5,124.8,498z M137.5,627.4c-1.4-0.9-2.5-1.4-2.5-1.1c0,1.4,7.4,4.8,15,6.8c9.9,2.6,23.4,3,32.3,1
		c7.6-1.7,6.8-2.4-0.9-1c-7.8,1.5-23.9,0.5-33.6-2C143.6,630,138.9,628.4,137.5,627.4z"/>
	<path id="path54" fill="#2E3436" d="M175.4,497.6c2.1,2.1,3.1,6.1,1.8,7.7c-0.6,0.7-1.4,4-1.7,7.4c-0.7,5.7-0.6,6.3,1.8,8.7
		c3,3,5.8,3.3,7.3,0.8c0.6-0.9,3.7-4.7,6.9-8.4c4.8-5.7,6-6.6,7.6-5.8c1,0.6,2.4,2,3,3.1c1,1.9,0.2,3-7.1,10.4
		c-7.1,7.1-8.2,8.8-8.7,12.5l-0.6,4.3l2.9-0.6c1.6-0.4,5.4-1.2,8.4-1.8c3-0.6,7.7-1.7,10.3-2.4c5.6-1.7,7.5-1.2,8.3,2.1
		c0.8,3.3,0,5-2.8,5.6c-10.1,2.3-22.3,5.9-23,7c-1.3,2.1-0.9,4.8,0.6,4.8c0.8,0,3.5,0.9,6,2c4.1,1.7,4.6,1.8,5.5,0.3
		c0.7-1.4,1-1.4,2,0.5c0.7,1.2,3.4,3.3,6.1,4.7c3.9,2,5,3.1,5,4.9c0,4.4-2.3,5-7.9,2.2c-2.8-1.4-5.7-2.6-6.6-2.6s-2.6-0.7-3.8-1.5
		c-3.9-2.5-12.8-2-12.6,0.8c0,0.7,1.8,3.9,3.9,7.2s5.5,8.9,7.6,12.4c4.2,7.2,3.9,9.4-1.3,9.9c-3.5,0.3-4.4-1-12.4-16.6
		c-3.4-6.8-4.5-8.3-6.3-8c-3.5,0.5-4.6,4.4-4.6,16.5c0,6.1-0.3,11.8-0.6,12.7c-0.7,1.8-6.4,2.2-8,0.6c-0.6-0.6-0.9-2.8-0.7-4.8
		c3.1-31,2.2-32.2-10.7-14.7c-4.6,6.3-8.9,11.5-9.5,11.5c-1.8,0-3.5-2.2-3.5-4.5c0-1.1,1.6-4.5,3.5-7.5s3.5-5.8,3.5-6.2
		c0-0.4,2-2.9,4.5-5.5c2.5-2.5,4.5-5,4.5-5.5s-1.2-1.4-2.6-2c-2.2-1-4.3-0.8-12.9,1.5c-5.7,1.5-11.4,2.7-12.8,2.7
		c-3.1,0-5-2.2-4.5-5.2c0.3-2,1.4-2.5,9.5-4.4c5.1-1.2,10.4-2.9,11.7-3.8c1.5-0.9,2.7-1.2,3.1-0.6c0.3,0.6,1.5,1,2.6,1
		c1.3,0,1.9-0.7,1.9-2.3c0-2-2-3.3-13.5-9.1c-14.5-7.3-15.3-8.1-11.4-13c2.1-2.7,2.1-2.7,3.6-0.7c0.8,1.2,2.4,2.1,3.7,2.1
		s3.1,1,4.2,2.1c2,2.3,10.9,6.9,13.3,6.9c1.9,0,6.1-4,6.1-5.7c0-2.1-2.9-7.3-4.1-7.3c-0.5,0-0.3,1.3,0.6,3c0.9,1.6,1.2,3,0.8,3
		c-0.5,0-2.6-3.7-4.7-8.2c-2.2-4.4-5.3-9.6-6.9-11.5c-1.6-1.8-2.4-3.3-1.9-3.3c0.6,0,2.3-1.1,3.9-2.4c2-1.7,4.4-2.5,8.1-2.7l5.3-0.4
		l-3.2,2.6l-3.2,2.6l2.1,4.4c1.1,2.4,2.8,6.2,3.7,8.4c3.1,7.8,9.4,11.8,12.5,8c1.4-1.7,0.5-3.5-1.7-3.5c-1.1,0-1.4-0.6-0.9-2.3
		c0.4-1.2,0.9-6.9,1.3-12.7c0.3-5.8,1-11.1,1.6-11.8C170.6,495.5,173.5,495.7,175.4,497.6z M174.6,524.6c-1.1,2.8-0.6,4.3,1.6,5
		c1.5,0.4,2.5,0.1,3.5-1.2c1.8-2.5,1.7-2.9-1.2-4.2C175.2,522.7,175.3,522.7,174.6,524.6z M167.8,532.4c-6.5,1.7-9.7,4.1-11.9,8.9
		c-2.7,6.1-2.5,11.8,0.6,14.7c1.5,1.4,2.5,3.5,2.5,5.1c0,2.2,0.7,3,4,4.3c4.6,1.8,8.8,2,11,0.6c1.1-0.7,0.2-1-3.3-1
		c-3.9,0-5.3-0.5-7.3-2.7c-1.3-1.4-2.2-2.9-1.9-3.1c0.3-0.3,2.7-0.5,5.3-0.3c7.4,0.4,9.7-1,13.2-7.9c3.6-7.2,3.6-10.9,0-12.7
		c-1.3-0.6-2.7-2.1-3.2-3.2C175.7,531.9,173,531.1,167.8,532.4z"/>
	<path id="path56" fill="#2E3436" d="M177.1,542.1c2.3,4.3,2,6.7-1.2,10.4c-2.6,2.9-3.8,3.5-7.1,3.5c-5.1,0-7.2-1.2-8.8-4.9
		c-1.6-4,0.2-9.6,3.8-11.6C168.9,536.8,174.8,537.9,177.1,542.1z"/>
	<path id="path58" fill="#2E3436" d="M222.7,568.5c1.3,3.7,1.2,4.3-1.1,8.8c-3.5,6.6-10.6,15.7-16.3,20.7
		c-12.3,10.8-35.5,16-49.2,11c-5.6-2-7.3-3-5.2-3c0.7,0,0.9-0.5,0.5-1.2c-0.5-0.8,0-0.9,1.7-0.4c10.6,3,19.5,2.7,26.9-0.9
		c2.5-1.2,5.6-2.6,7-3c4.3-1.2,16.7-9.4,19.9-13c6.5-7.5,11.6-16.7,12-22.1C219.1,562.7,221.3,564.5,222.7,568.5z"/>
	<path id="path60" fill="#204A87" d="M659.7,490.5l3.6,2.4l-2.4,0.9c-1.3,0.5-4,1.2-5.9,1.6c-6.1,1.2-25.1,5.8-36,8.7
		c-5.8,1.6-11.4,2.9-12.5,2.9c-1,0-6.8,1.3-12.9,2.9c-6.1,1.7-15.8,4.1-21.6,5.5c-14.9,3.5-34.6,8.3-48,11.7
		c-6.3,1.5-16.4,4-22.5,5.4c-18.4,4.4-34.4,8.4-46.3,11.5c-6.2,1.7-12,3-12.9,3c-1,0-5.8,1.1-10.8,2.4c-4.9,1.4-14.8,3.8-22,5.6
		c-7.1,1.7-17.3,4.2-22.5,5.5c-5.2,1.4-10.8,2.7-12.5,3c-1.6,0.4-7.3,1.7-12.5,3s-15.3,3.8-22.5,5.5c-7.1,1.7-16.1,3.9-20,4.9
		c-3.8,1.1-9.5,2.5-12.5,3.1c-3,0.7-10.3,2.5-16.2,4l-10.6,2.8l0.2-2.5c0.3-2.3,1.2-2.8,9.2-4.9c4.9-1.4,11.6-3,14.9-3.8
		c6.6-1.5,17.8-4.2,35.5-8.6c6.3-1.6,16.9-4.2,23.5-5.9c6.6-1.6,15.2-3.7,19-4.7c3.9-0.9,9.5-2.3,12.5-2.9c8.5-2,26.3-6.4,38.5-9.5
		c6.1-1.6,17.1-4.3,24.5-6c7.4-1.7,17.6-4.2,22.5-5.5c5-1.3,15.1-3.8,22.5-5.6c7.4-1.7,17.4-4.2,22.2-5.5s9.4-2.4,10.4-2.4
		c0.9,0,6.7-1.3,12.8-2.9c6.1-1.6,17-4.3,24.1-6.1c7.2-1.7,17.3-4.2,22.5-5.5c5.2-1.3,15.4-3.8,22.5-5.5c16.1-3.9,23.1-5.8,27-7.5
		c1.7-0.7,4.4-1.8,6-2.3C655,487.7,655.8,487.8,659.7,490.5z"/>
	<path id="path62" fill="#2E3436" d="M52,490c1.6,0,3,0.2,3,0.5c0,0.4-2.3,4.5-5.2,9.2c-5.4,9-16.4,21.7-17.9,20.7
		c-1.6-1-0.9-4.3,1.1-5.4c2.2-1.2,2.7-3.1,0.8-2.8c-1.9,0.4-1.3-1.2,2.7-8c2-3.4,5.7-7.9,8.1-10.2C47.7,491.2,49.8,490,52,490z"/>
	<path id="path64" fill="#75507B" d="M687,502.8c0,0.9-2.1,1.4-37,9.8c-12.9,3.1-28.4,6.9-34.5,8.4c-6,1.6-16.8,4.3-24,6
		c-24,5.7-33.9,8.1-45.5,11c-6.3,1.6-13.1,3.2-15,3.5c-1.9,0.4-7.3,1.7-12,3c-4.7,1.2-13.9,3.5-20.5,5c-6.6,1.6-16.7,4.1-22.5,5.7
		c-5.8,1.5-11.3,2.8-12.3,2.8c-0.9,0-6.5,1.3-12.4,2.9c-5.9,1.6-16,4.1-22.3,5.5c-13.2,3.1-29.2,7.1-46.5,11.5
		c-6.6,1.7-12.7,3.1-13.5,3.1s-5.5,1.1-10.5,2.4c-4.9,1.4-15.1,3.9-22.5,5.7c-7.4,1.7-18.2,4.5-24,6c-5.8,1.6-11.4,2.9-12.3,2.9
		c-1,0-5.9,1.1-11,2.4c-5,1.4-15,3.9-22.2,5.6c-7.1,1.7-17,4.2-22,5.5c-4.9,1.3-9.2,2.2-9.4,1.9c-0.2-0.2,0.3-1.2,1.2-2.2
		c1.7-1.9,10.4-4.5,34.2-10.2c11.6-2.8,18.9-4.6,43-10.6c3.9-0.9,10.4-2.5,14.5-3.4c7.9-1.8,18.1-4.3,36.5-8.9
		c6.1-1.6,16.4-4.1,23-5.6c6.6-1.5,17-4,23-5.5c21.9-5.6,33.1-8.3,37.5-9.1c2.5-0.5,7.9-1.7,12-2.8c4.1-1.1,13.4-3.3,20.5-5.1
		c7.2-1.7,17.3-4.2,22.5-5.5c5.2-1.4,10.9-2.7,12.5-3c1.7-0.4,7.3-1.7,12.5-3c12.7-3.2,26.3-6.5,33-8c3-0.7,10.2-2.5,16-3.9
		c5.8-1.5,15.2-3.8,21-5.2c5.8-1.4,15.7-3.8,22-5.4c6.3-1.5,17.6-4.3,25-6.1c7.4-1.8,17.3-4.2,22-5.5
		C675.5,502.2,687,501.3,687,502.8z"/>
	<path id="path66" fill="#75507B" d="M707,506c0,0.5-0.7,1-1.6,1c-0.9,0-6.7,1.3-12.8,2.9c-6.1,1.6-16,4.1-22.1,5.6
		c-19.8,4.7-35.8,8.6-47.5,11.5c-6.3,1.6-16.2,4-22,5.4c-14.7,3.5-34.4,8.3-48,11.6c-6.3,1.6-16.4,4.1-22.5,5.5
		c-6,1.5-16.2,3.9-22.5,5.5c-6.3,1.6-17.3,4.2-24.5,6c-7.1,1.7-17.3,4.2-22.5,5.5s-11.1,2.7-13,3.1c-1.9,0.3-7.5,1.7-12.5,2.9
		c-4.9,1.3-14.8,3.8-22,5.5c-7.1,1.7-17.2,4.3-22.2,5.6c-5.1,1.3-10,2.4-11,2.4c-0.9,0-6.5,1.3-12.3,2.9c-5.8,1.5-16.6,4.3-24,6
		c-7.4,1.8-16.9,4.1-21,5.3c-4.1,1.1-9.5,2.4-12,2.8c-4.1,0.7-11.2,2.4-39,9.5c-5.2,1.3-14.7,3.6-21,5.1c-6.3,1.5-14.8,3.5-18.9,4.6
		c-4,1-7.6,1.7-7.8,1.4c-1-0.9,6.3-6.5,9.7-7.4c5.6-1.6,26.5-6.9,38.5-9.7c6.1-1.4,16-3.9,22.1-5.5c6.1-1.7,11.8-3,12.7-3
		s6.5-1.3,12.4-2.9c5.9-1.6,16-4.1,22.3-5.5c10.7-2.6,17.5-4.2,47-11.6c6.3-1.6,13.1-3.2,15-3.5c1.9-0.4,6.7-1.5,10.5-2.5
		c3.9-1,12.9-3.3,20-5c7.2-1.7,17.3-4.2,22.5-5.6c5.2-1.3,11.8-2.8,14.5-3.4c2.8-0.5,7.3-1.6,10-2.4c2.8-0.9,7.7-2.1,11-2.7
		c3.3-0.6,9.8-2.1,14.5-3.4c4.7-1.2,19.3-4.8,32.5-8c24.8-5.8,39.9-9.5,59.3-14.6c6.2-1.6,12-2.9,12.9-2.9c1,0,5.8-1.1,10.8-2.4
		c4.9-1.4,14.9-3.9,22-5.6c7.2-1.7,17.3-4.2,22.5-5.6c5.2-1.3,12.9-3.1,17-3.8C693.2,505,707,504.6,707,506z"/>
	<path id="path68" fill="#2E3436" d="M22.6,525c1.2,0,4.8,4.1,4.9,5.5c0.1,0.5,0.5,1.7,0.9,2.6c1.2,2.8,0.3,10.4-1.3,10.1
		c-0.7-0.1-1.9,0.5-2.7,1.5c-1.2,1.6-1.3,1.5-1.4-1.3c0-1.7-0.3-6.5-0.6-10.7C22,528.2,22.1,525,22.6,525z"/>
	<path id="path70" fill="#2E3436" d="M35.6,557.5c1.8,6.1,1.8,9.9-0.1,13.4c-1.6,3.2-3.9,4.1-10.6,4.1c-4.8,0-6.8-1.7-4.6-3.9
		c1.5-1.5,3.2-1.4,4.7,0.4c2.1,2.6,2.9,1.7,1.8-2.1c-0.8-3.2-0.7-4,1.1-5.8l2.1-2v4.4c0.1,3,0.3,4,0.9,3c1.5-2.6-0.6-15.1-2.9-17.5
		c-1.1-1.2-1.7-2.5-1.3-2.8C29,546.3,33.5,550.8,35.6,557.5z"/>
	<path id="path72" d="M31,593.8l1.9,2.3c1.4,1.7,1.7,2.9,1,4.1c-1.6,3-2.9,2-2.9-2.3V593.8z"/>
	<path id="path74" fill="#2E3436" d="M62.7,604.2c3.7,3.5,2.7,6-3,7.4c-2.7,0.7-6.9,1.4-9.4,1.6c-3.9,0.3-4.8,0-6.4-2.2
		c-0.9-1.4-2-3.5-2.4-4.7c-0.5-1.9,0-2.3,5.7-3.7C54.9,600.7,59.5,601.2,62.7,604.2z"/>
	<path id="path76" fill="#F57900" d="M813.2,546.4c5.1,2.4,8.8,4.8,8.8,5.8c0,1-11.4-1.3-14.8-3.1c-2.1-1-5.4-2.1-7.4-2.5
		c-2.1-0.4-3.8-1.1-3.8-1.6C796,542.9,807.8,543.9,813.2,546.4z"/>
	<path id="path78" fill="#F57900" d="M682.8,552.7c0.2,0.1-0.1,1-0.7,2.1c-2.9,5.4-0.4,8.8,7.1,9.6c6.4,0.8,12.8-0.6,30.3-6.7
		c11.8-4,20.5-6.2,20.5-5.2c0,0.6-9.5,6.6-16.5,10.4c-3.3,1.8-6.7,3.8-7.5,4.5c-0.8,0.6-5,2.9-9.2,5c-7.4,3.7-8.2,3.9-21.8,4.7
		c-21.5,1.4-27.3,3-29.6,8.5c-2.8,6.8,0.7,11.2,11.3,13.9c16.2,4.2,30.2,0.5,59.3-16c7.4-4.2,15.7-8.8,21.5-11.8
		c9.5-5.1,27.1-9.8,36-9.6h3l-2.5,1.1c-12.5,5.4-24.5,13.3-37.3,24.6c-6,5.4-27.1,21.2-28.2,21.2c-0.3,0-2.9,1.1-5.9,2.5
		c-8.1,3.7-16.2,4.5-48.9,4.5c-27.5,0-30.2,0.2-36,2.1c-8.1,2.7-12.1,5.3-14.6,9.3c-2.7,4.3-2.6,6.2,0.2,9c1.7,1.7,4.5,2.7,9.6,3.6
		c4,0.7,6.9,1.6,6.4,2c-0.4,0.4-3.6,1.8-7,3c-5.1,1.8-7.7,2.2-14.1,1.8c-9.9-0.6-16.4-3.6-26.8-12.7c-9-7.7-17-14.1-17.9-14.1
		c-0.3,0-2.2-1-4.3-2.3c-4.8-3-14.2-5.2-21.7-5.1c-6.2,0.1-19.2,2.7-22.9,4.6c-3.1,1.5-11.6,10-11.6,11.5c0,0.7-0.4,1.3-1,1.3
		c-1.6,0,0-7.1,2.8-12.4c5.8-10.7,17.4-16.5,40.7-20.5c8.3-1.5,21-8,28.4-14.6c3.4-3,6.4-5.5,6.7-5.5s0.4,0.8,0.3,1.7
		c-0.4,4.5,1.8,7.3,5.6,7.3c2.4,0,9.1-3.6,17.2-9.2c2.4-1.6,4.3-2.6,4.3-2.3c0,1.1-4.3,9-5.9,10.9c-2.4,2.7-7.8,5.2-14.2,6.5
		c-10.4,2.2-16.3,10.7-10.8,15.7c1.8,1.6,3.7,1.9,12.3,1.9c9.2,0,10.5-0.3,15.3-2.9c6.4-3.5,16.2-12.3,35.8-32.3
		c17.5-17.7,21.9-20.5,34.5-21.3C679.1,552.7,682.6,552.6,682.8,552.7z"/>
	<path id="path80" fill="#F57900" d="M778.7,644.3c-11.2,9.3-20.7,14-38.2,18.7c-14.5,3.9-30.5,10.3-33.2,13.3
		c-3.8,4.2-6.3,9.5-6.3,13.2c0,5.3,4.4,9.3,10.7,9.7l4.6,0.3l-5.4,3.6c-11.6,7.9-25.5,11.2-37.2,8.9c-8.7-1.6-35.7-10.2-35.7-11.3
		c0-1.5,41.1-42,47.7-47.1c3.4-2.5,9.5-6.1,13.5-7.8l7.3-3.2l16.5,0.3c29.1,0.7,41.2,0.4,46-1.2c9.6-3.3,13.5-4.9,16-6.7
		C791.4,630.3,786.2,638,778.7,644.3z"/>
	<path id="path82" fill="#F57900" d="M380.5,643l12.5,0.3c10.2,0.2,13.3,0.7,17,2.4c2.5,1.1,6.1,2.8,8,3.6c1.9,0.9,5.1,2.5,7,3.5
		c8.9,5,14.4,6.6,22.6,6.7h8.1l-4,3c-5.1,3.7-13.2,4.4-23.4,2.1c-17.7-4-26.3-3-30.3,3.6c-2.6,4.3-2.5,6.6,0.4,10.8
		c4.7,7,19.6,12.4,33.6,12.3c15.4-0.1,22.1-2.9,58-23.7c18.6-10.8,29.5-13.9,40.3-11.7c3.1,0.7,5.7,1.7,5.7,2.2s-0.6,0.9-1.3,0.9
		c-2.3,0-5.8,4.6-5.9,7.6c-0.2,8,3.4,10.1,14.1,8.5c10.8-1.7,18-3.6,24.5-6.5c8-3.6,17.9-3.6,25.4-0.1c2.8,1.3,5.2,2.5,5.2,2.7
		s-3,0.3-6.8,0.3c-6.4,0-7.6,0.4-23.7,8.2c-9.3,4.5-19.7,9-22.9,9.9c-7.7,2.1-18.6,1.4-31.6-2c-5.2-1.3-12.2-2.8-15.6-3.1
		c-5.8-0.7-6.1-0.6-9.1,2.3c-3.7,3.8-4.8,7.6-3.2,11.3c1.5,3.8,5.6,6.2,15.9,9.5c4.9,1.6,7.6,2.9,6.5,3.1s-6.7,1.3-12.5,2.5
		c-7.9,1.5-12.4,1.9-18.5,1.5c-9.2-0.7-14-2.3-32-10.5c-17.4-8-21.8-9.4-29.6-9.4c-10.3,0-15.9,3.8-15.9,10.7c0,5,1.9,7.9,7.1,10.5
		c2.1,1.1,3.9,2.3,3.9,2.7c0,0.8-10.5-0.4-15.3-1.7c-2.2-0.7-6.3-3.5-10-6.9c-12.2-11.4-27.7-20.4-34.7-20.4c-8,0-18,8.3-18,15
		c0,3,3,6.4,7.4,8.2l4.1,1.8L341,716c-1.4,0.7-6.2,1.3-11.9,1.4c-11.1,0.1-14.3-1.1-25.1-9.4c-9.2-7.1-22.8-16-27.6-18.1
		c-4.9-2.2-9.8-1.2-14.7,3c-7.5,6.4-9.1,7.1-16.5,7.1c-3.9,0-7.4-0.5-7.7-1c-0.3-0.6-0.1-1,0.5-1c0.6,0,3.3-2.1,6-4.6
		c4.6-4.3,8-10.9,8-15.4c0-0.9,1.6-4.8,3.5-8.6c4-8.3,10.3-14.5,18.2-18.1c7.3-3.3,14-2.9,29.7,2.2c12.7,4,13,4.6,3.6,6.6
		c-3,0.6-7.9,2-10.8,3.1c-4.4,1.6-5.7,2.7-6.9,5.5c-1.9,4.6-0.9,8.6,3,11.9c3,2.5,3.6,2.6,11.7,2.2c6.6-0.4,10.3-1.2,16.5-3.7
		c7-2.8,22-11.5,29.5-17.1c4.8-3.5,17.2-11.5,23.9-15.3L380.5,643z"/>
	<path id="path84" fill="#F57900" d="M782,672.5c0,1.8-9.4,15.8-13.5,20c-5.9,6-10.2,8.2-17.8,9.1c-4.7,0.6-5.7,0.4-5.7-0.8
		c0-2.5,25.1-26.3,29-27.5C777.8,672.1,782,671.7,782,672.5z"/>
	<path d="M179.9,124c0.4,0-0.4,9.8-1.2,14.5c-0.7,3.9-5,13.5-9.4,21c-5,8.3-19.3,22.7-27.8,27.7c-7.9,4.7-11.6,7.5-22.6,16.6
		c-6.3,5.2-7.9,7.1-8.9,10.6c-0.9,3.3-0.9,4.9-0.1,6.5c2.2,4,7.9,2.3,17.4-5.1c2.1-1.7,3.9-2.9,4.1-2.7c0.7,0.7-5.9,15.4-8.8,19.9
		c-5.4,8.3-9,12.1-15.6,16.4c-10.7,7.1-13.8,7.8-37.5,8.6c-17.9,0.6-22.4,1.1-30.5,3.3c-5.2,1.4-9.7,2.3-9.9,2.1
		c-0.3-0.3,1.4-2.3,3.6-4.5c5.8-5.6,10.4-12.8,20.3-31.9c4.7-9.1,9.8-18.3,11.3-20.5c10.4-15.7,21.8-29.4,27.5-33.3
		c6.8-4.6,17.9-8.9,27.5-10.7c11.3-2.1,16.6-3.4,20.2-4.9c1.6-0.7,4.4-1.9,6-2.5c9.5-3.9,26.1-18,31.5-26.9
		C178.4,125.9,179.7,124,179.9,124z M171.8,144c-0.2-0.5-3.7,2.4-7.8,6.3c-5.1,4.9-9.9,8.3-15,10.8c-9.6,4.7-9.3,4.6-23.1,7.4
		c-22,4.5-29.6,8.1-39.6,18.9c-5,5.3-13.8,18.6-21.5,32.6c-1.1,1.9-2.6,4.2-3.4,5.1c-0.8,0.8-1.4,1.9-1.4,2.3c0,0.3-2.5,4.7-5.5,9.7
		c-3.1,5-6.2,10.4-7.1,12.1l-1.5,2.9l22.3-0.3l22.3-0.3l6.3-3.2c7-3.4,15.5-10.3,20.3-16.4l3.2-4.1l-4.7,0.7
		c-5.7,0.9-10.4-0.8-11.2-4.1c-1.1-4.2,0.3-13.1,2.4-16.7c2.5-4,13.8-13.8,20.2-17.4c13.2-7.6,20.1-12.3,25.4-17.3
		c5.9-5.5,13.4-15.8,17.5-23.8C171.1,146.8,172,144.5,171.8,144z"/>
	<path d="M391,136.6c0,0.8-0.6,1.4-1.2,1.5c-19.1,0.8-31.4,6.6-40.7,19.3c-2,2.8-7.3,12.3-11.7,21.1c-4.3,8.8-9.4,18.2-11.2,21
		c-7.6,11.1-18.1,19.8-33,27.3c-16.2,8.1-21.4,13.1-17.7,17.2c2.5,2.8,6.1,2.5,14.5-1.1c4-1.7,9.7-3.3,12.5-3.6
		c6.5-0.7,20.5,0.5,20.5,1.8c0,0.5-1.1,0.9-2.4,0.9c-4.6,0-14.7,6.2-20,12.5c-9.1,10.6-21,22-27.1,26.1
		c-11.6,7.6-26.8,13.4-43.5,16.4c-14.7,2.7-28.6,10.2-32.5,17.5l-2,3.7l2.4,1.9c4.8,3.9,16.1,1.3,23.6-5.6c2.6-2.5,4.9-4.5,5-4.5
		c0.2,0-0.1,2-0.6,4.5c-1.7,8.9-7.8,18-15.9,23.5c-10.2,7-12.7,7.5-37,7.5h-21.5l-5.4,3c-6.4,3.5-12.2,11.6-12.4,17.2
		c-0.1,4,1.4,5.3,6.3,5.3c4.4,0,9-2.8,12.6-7.7c4.5-6.2,4.6-6.2,3.9-0.3c-0.4,3.3-2.4,9.2-5.1,14.7c-7.2,15.1-17.3,23.4-31.4,26.1
		c-3,0.6-13.4,1.3-23,1.6c-30.3,1-35.8,3.1-37.6,14.1c-1.2,7.6-5.8,16.8-10.6,21.2c-3.2,3-13.9,7.3-18,7.3c-1.8,0-5-0.3-7.1-0.6
		c-3-0.5-3.5-0.9-2.6-2c0.6-0.8,1.6-1.4,2.2-1.4c1.8,0,7.8-5.1,9.8-8.4c2.5-4.1,2.5-11.5,0-19.7c-5.8-19-5.3-38,1.2-49.2
		c5.7-9.7,16.6-17.5,32.4-23.3c8.8-3.1,14.5-6.7,18.7-11.6c3.7-4.2,8.1-14.2,7.1-15.9c-0.4-0.5-0.2-0.9,0.4-0.9
		c1.5,0,2.4,8.3,1.7,14.2c-1,6.9-4.9,14.4-16.8,32c-4.8,7.2-5.9,9.9-4.7,12.1c1.4,2.4,3.7,2.1,9.5-1.3c11.4-6.5,17.2-16.8,28.4-50
		c12.5-37.4,16.4-46,24.9-55.3c8.2-8.9,16.1-13,32.7-17.2c7.8-1.9,15-3.5,16-3.5c3.3,0,17.8-5.3,21-7.7c3.7-2.6,7.4-9.6,7.4-13.9
		c0.1-7.7,3.7-6.6,7,2.2c2.4,6.6,2.5,10.5,0.3,17c-3.4,10.4-9.1,15.6-28.3,26.4c-18.3,10.2-22.9,18.2-14.4,24.9
		c3.4,2.6,6.4,2.7,14.2,0c18.9-6.4,35.6-24.7,45.2-49.7c2.2-5.7,4-11,4-11.8c0-0.9,1.1-4.4,2.5-7.9s2.8-7.3,3-8.3
		c0.2-1.1,2.8-7.1,5.8-13.3c4.8-9.9,6.5-12.4,13.3-19.2c10-9.9,23.2-16.9,33.1-17.5c10.1-0.7,10.5,0,3.4,6.6
		c-4.5,4.2-6.1,6.4-6.1,8.4c0,4.4,2.8,4.3,8.9-0.5c5.5-4.3,9.3-8.9,19.4-24.2c8.7-13,16.1-18.9,29.2-23.1
		C362.2,131.6,391,133.3,391,136.6z M358.4,139c-1.7,0.1-12.2,4.7-16.7,7.3c-5.9,3.5-10.1,8.5-16.1,19.3
		c-3.7,6.6-7.4,11.4-14.5,18.6c-8.6,8.7-10,9.8-13.1,9.8c-4.8,0-7.7-2.3-9.1-7c-1-3.3-0.9-4.4,0.8-7.9c2.3-4.5,1.8-4.9-3-2.4
		c-11.2,5.8-20.6,16.5-27.4,31.2c-2.4,5.3-5,10.8-5.9,12.3c-0.8,1.6-1.3,2.8-0.9,2.8c0.3,0-0.5,2.1-1.9,4.7c-1.3,2.7-4,8.8-6,13.7
		c-11.9,28.8-22.4,41.8-42.6,52.7c-19.3,10.5-35,8.6-35-4.1c0-8.5,7-15.8,24.5-25.5c6.6-3.7,13.7-8.3,15.8-10.3
		c5.6-5.3,11.8-18.2,8.9-18.2c-0.5,0-1.5,1.2-2.2,2.6c-2.8,5.2-13.1,11.4-22.5,13.7c-23.1,5.6-35.8,9.9-41.9,14.2
		c-5.4,3.7-15.2,14-18,18.8c-2.6,4.4-7.5,17-9.5,24.2c-0.5,1.6-1.8,5.5-3,8.5s-2.4,6.6-2.7,8c-0.3,1.3-0.9,2.9-1.3,3.5
		c-0.4,0.5-1.8,3.9-3.1,7.5c-5.4,14.9-13.9,29-22.2,36.6c-4.2,3.9-12.7,9.4-14.5,9.4c-5.2,0-10.3-6.1-10.3-12.3
		c0-3.4,6-13.2,13.5-22c1.9-2.2,3.5-4.4,3.5-4.7c0-0.7-26.4,9.6-31.7,12.4c-6.7,3.5-11.5,10.8-15.3,23.5c-2.8,9.1-2.3,18.7,1.5,30.6
		c3.8,11.7,4.2,18.7,1.6,25.5c-1.2,3-2.1,5.6-2.1,5.7c0,0,2.2-0.9,4.9-2.2c7.6-3.7,11.3-9.3,14-21c1.5-6.4,5.6-12.3,10.2-14.7
		c4.5-2.3,14.1-3.5,35.9-4.4c16.4-0.6,17.9-0.9,24-3.6c6.2-2.8,15.4-10.5,20-16.9l1.9-2.6l-7.7,0.5c-9.9,0.6-11.6-0.9-11.9-10.3
		c-0.2-7.9,2.2-13.1,8.6-18.7c8.4-7.2,12.5-8.1,36.6-8.2c19.3-0.1,21.5-0.3,26.6-2.4c6.1-2.4,13.9-7.6,13.9-9.2
		c0-0.5-2.3-0.2-5.2,0.7c-8.6,2.5-14.5,0.5-17.3-6.1c-1.7-3.9-0.5-8.6,3.4-13.5c7.3-9.2,16.7-14.1,37.6-19.6
		c34.4-9.1,36.1-9.9,54.8-28.8c8.1-8.2,14.6-15.1,14.4-15.3c-0.2-0.2-4.4,1.2-9.2,3.2c-15.5,6.2-22.8,5.6-26.1-2.1
		c-1.9-4.7-1.8-7.3,0.7-10.9c3.3-4.9,9.6-9.1,20.4-13.7c14.7-6.3,20.4-10,29-18.6c8.3-8.4,11.9-13.8,18.5-28.3
		c7.1-15.6,11.8-23.1,18.8-29.8C356.3,141.8,358.9,139,358.4,139z"/>
	<path d="M646,149.1c2.5-0.1-8.2,9.8-15.5,14.4c-8.7,5.4-20.6,9.5-27.8,9.5c-11.4,0-27.7,6.2-27.7,10.5c0,3.8,9.5,4.6,20.6,1.7
		c6.3-1.7,15.9-5.4,25.9-10.1c41.1-19.3,61.9-22.8,88-14.7c7.7,2.4,18.3,8.1,17.2,9.2c-0.3,0.3-4-0.2-8.2-1.1
		c-10.5-2.4-26.6-1.7-35.5,1.5c-6.6,2.3-28.3,13.2-40,20c-18.7,10.9-40.2,21.6-47.3,23.6c-12.6,3.4-37.5,2.1-64.9-3.6
		c-18.9-3.8-22.5-3.6-28.8,1.7c-3.8,3.1-3.9,6.5-0.3,8.8c4.2,2.8,10.1,3,18.6,0.6c9.1-2.5,8.7-2.5,8.7-0.7c0,1.9-8.9,10-13.6,12.4
		c-6.7,3.4-14.4,4.5-21.6,3.1c-6.8-1.3-16.5-5.7-21.3-9.6c-6.7-5.5-29.3-19.4-33.9-20.8c-7.5-2.3-11.2-2-13.2,1
		c-2,3.1-1.2,6.8,2.1,9.9c1.4,1.3,2.5,2.6,2.5,2.9c0,0.4-2.5,1.4-5.5,2.2c-6.9,2-9,1.6-22.9-4.8c-17-7.8-26.7-7.6-33,0.7
		c-2.5,3.4-5.6,12.3-5.6,16.4c0,5.3-2.5,1.1-4.2-6.9c-1.9-9.4-2.2-16.5-0.8-22.4c0.5-2.2,1.1-5.2,1.4-6.8c0.4-2.5,1.1-4,5.2-11.7
		c2.8-5.3,8.8-11.1,15.2-14.7l6.7-3.8L404,167c18.9-0.5,18.5-0.4,28.9-7.4c4.4-3,6.2-3.6,10.5-3.6c7.8,0,8.8,1.2,4.8,5.3
		c-2.5,2.6-3.4,4.4-3.5,7.3l-0.2,3.9l7.2,0.3c7.1,0.3,7.4,0.2,18.3-5.5l11.2-5.8l14-0.3c7.7-0.2,14.4,0,14.9,0.5
		c0.6,0.6-2.2,2.5-6.8,4.9c-25.4,12.8-17.8,23.1,10.3,13.8c6-2,18.1-7,26.9-11.2c11.4-5.3,19.3-8.3,27.5-10.4
		c11.3-2.8,11.9-2.9,35.5-2.6l24,0.3l8.5-3.7C640.7,150.8,645.2,149.1,646,149.1z M577,162.6c-7.1,1.4-21.8,5.8-25,7.5
		c-6.2,3.3-26.4,12.7-34.6,16.1c-7.3,3-8.7,3.2-19.2,3.3c-10.8,0-11.5-0.1-13.3-2.4c-4-5-1.8-12.4,5.7-18.7l3.7-3.1l-5.9,0.9
		c-5.8,0.9-10.6,2.9-25.1,10.7c-9,4.8-14.2,5.7-18.9,3.5c-5.4-2.6-6.8-5.4-6-12l0.6-5.6l-2.9,2.1c-1.6,1.2-3.3,2.1-3.8,2.1
		c-0.5,0-2.4,1.3-4.3,2.8c-4.9,4-7.6,4.5-23.5,4.7c-12.9,0.1-14.4,0.3-19.2,2.6c-7.6,3.8-11.9,7.4-14.9,12.6
		c-4.1,6.9-7.4,16.8-7.4,22.1l0.1,4.7l2-3.8c2.4-4.6,6.6-7.3,13.5-8.7c6.7-1.4,12.1-0.2,24.8,5.6c5.4,2.5,11.4,4.8,13.3,5.1
		c3.2,0.5,3.3,0.4,3.3-2.6c0-4.5,2.3-9.4,5.5-11.9c2.1-1.7,4.1-2.2,8.6-2.2c5.1,0,7.1,0.7,16.3,5.5c5.8,3.1,15.1,8.8,20.6,12.8
		c17.6,12.6,18.4,13,25.6,13.3c7,0.3,8-0.4,3.4-2.5c-3.3-1.4-7-7.5-7-11.3c0-3.7,3.6-8.5,8.6-11.4c6.9-4.1,16.1-4.3,33.4-0.9
		c21.4,4.2,41.4,5.7,53.5,4.1c10.1-1.3,20.4-5,28.7-10.2c2.1-1.3,4-2.4,4.2-2.4c0.5,0,12.2-7.2,22.6-13.9
		c7.9-5.1,25.4-13.6,32.4-15.8l5.9-1.8l-4-0.3c-9.9-0.7-27.3,5.1-63.9,21.4c-14,6.2-21.7,8.4-29.6,8.6c-9.6,0.2-13.8-2.9-13.8-10.2
		c0-3.6,4.8-9.3,9.9-12c4.4-2.2,13.6-4,20.7-4c2.9,0,7.6-0.5,10.5-1.1c4.4-1,4.9-1.3,3.4-2.2C613.6,162.7,581.5,161.7,577,162.6z"/>
	<path d="M188.9,174.6c0.2,0.2-1,1.4-2.5,2.8c-3.2,2.6-7.2,9.9-8,14.3c-0.3,1.5-1.9,6.2-3.6,10.6c-5.8,14.6-16.3,22.9-29.3,23
		c-3.6,0-6.8-0.2-7.2-0.6c-0.3-0.4,0.5-2,1.9-3.5c4.3-4.7,6.5-8.5,10.2-17.7c6.3-15.7,11.9-21.5,25.9-27.1
		C183.4,173.6,187.1,173,188.9,174.6z M175.8,182.5c-0.2-0.1-1.7,0.4-3.4,1.1c-4.8,2-13.8,12.4-16.4,19c-1.3,3.3-3.6,8.5-5.2,11.8
		c-1.6,3.2-2.7,6-2.4,6.3c1.1,1.1,11.4-3.9,14.5-7.1c3-3.1,10-18.3,10.1-21.9c0-1,0.7-3.4,1.5-5.4
		C175.3,184.3,175.9,182.6,175.8,182.5z"/>
	<path d="M805.7,173c0.9-0.1,5.3,2.1,5.3,2.7c0,0.5,4.8,5.7,10.6,11.6l10.7,10.9l-0.7,7.6c-0.4,4.3-1.1,8-1.5,8.5
		c-0.9,0.9-11.5,2.6-38.3,6.3c-13.8,1.9-19.8,3.1-19.8,4c0,0.7,0.7,4.5,1.5,8.4c0.8,4,1.2,8.8,0.9,11c-0.6,3.5-0.2,4.4,3.2,8.7
		c2.2,2.6,4.4,5.2,5,5.8c0.7,0.5,2.8,3.1,4.7,5.8l3.6,4.7l-0.4,15c-0.2,8.6,0,16.2,0.6,17.8c1.6,4.6,5.9,8,12.4,9.7
		c3.3,0.8,6.7,2.3,7.6,3.3c1.5,1.6,3.3,7.7,6.3,21.2c2.4,11.4,6.2,75.6,4.5,77.6c-1.3,1.5-16.6,6.8-19.3,6.6c-1,0-2.6-0.8-3.6-1.7
		c-1.6-1.5-1.8-1.3-2.4,2.2c-0.3,2.1-0.6,6.1-0.6,8.9c0,5.6-4.7,23.2-7.8,29.6l-2,3.9l3.1-0.6c3.4-0.6,20.9-4.8,39.4-9.5
		c6.1-1.5,11.4-2.5,11.7-2.2c0.3,0.3,0.6,2.9,0.6,5.7v5.2l-6.8,2.2c-3.8,1.2-10.2,2.8-14.3,3.7c-7.3,1.5-13.6,3-33.4,8.2
		c-9.3,2.4-15.5,5.3-15.5,7.2c0,0.4,3.7-0.3,8.2-1.6c4.5-1.3,9-2.4,10-2.4c0.9,0,6.6-1.3,12.5-2.9c13.2-3.5,28.5-7.2,29.6-7.1
		c2.5,0.1-1,2-5.5,3c-8.4,1.8-29.2,6.9-42.3,10.2c-12,3.1-26.5,9.3-26.5,11.4c0,0.8,2.8,0.4,8.3-1.1c4.5-1.2,10.5-2.6,13.2-3.2
		c5.2-1,16.5-3.8,32-7.9c9.3-2.4,15.4-3.2,12.5-1.5c-2.2,1.3-30,8.2-40.5,10.2c-6,1.1-22,5.1-33,8.4c-12,3.5-58,14.5-60.8,14.5
		c-0.9,0-6.7,1.3-12.9,3c-10,2.6-30.2,7.6-49.8,12.4c-3.6,0.9-11.7,2.9-18,4.5c-6.3,1.6-16.7,4-23,5.5s-15.1,3.7-19.5,4.8
		c-4.4,1.1-11.6,2.9-16,3.8c-4.4,0.9-12,2.7-17,4c-13.1,3.3-50.2,12.3-55,13.3c-1.1,0.3-6.3,1.6-11.5,2.9
		c-5.2,1.4-14.9,3.7-21.5,5.3c-6.6,1.5-16.9,4.1-22.8,5.6c-5.9,1.6-11.5,2.9-12.4,2.9s-6.6,1.3-12.7,2.9c-6.1,1.7-16,4.2-22.1,5.6
		c-15.1,3.6-50.5,12.2-66,16.1c-3.8,0.9-9.5,2.3-12.5,2.9c-6.7,1.6-23.8,5.7-38.5,9.5c-6,1.5-16.2,4-22.5,5.5
		c-9.8,2.4-17.6,5.2-26.5,9.6c-1.1,0.5-3.1,1.9-4.5,2.9c-2.5,1.9-2.5,1.9,2.5,0.4c2.8-0.8,9.7-2.6,15.5-4c5.8-1.3,13.9-3.3,18-4.3
		c4.1-1.1,13.4-3.4,20.5-5.1c7.2-1.7,17.2-4.2,22.2-5.6c5.1-1.3,10.1-2.4,11-2.4s6.5-1.3,12.3-2.9c5.8-1.5,16.6-4.3,24-6
		c7.4-1.8,17.6-4.3,22.5-5.7c5-1.3,9.7-2.4,10.5-2.4c0.8,0,6.8-1.3,13.3-3c17.8-4.6,34-8.6,46.7-11.6c6.3-1.4,16.4-3.9,22.3-5.5
		c5.9-1.6,11.5-2.9,12.4-2.9s6.6-1.3,12.7-2.9c6.1-1.7,16.1-4.2,22.1-5.6c19.8-4.7,35.8-8.6,47.1-11.6c6.1-1.6,11.9-2.9,12.8-2.9
		c1,0,5.6-1.1,10.4-2.4s14.8-3.8,22.2-5.5c7.4-1.8,18.5-4.5,24.5-6c6.1-1.6,16.4-4.1,23-5.6s17-4,23-5.6c6.1-1.5,16.9-4.2,24-5.9
		c7.2-1.7,17.2-4.2,22.2-5.5c5.1-1.4,10-2.5,11-2.5c0.9,0,6.6-1.3,12.7-2.9c10.4-2.8,20.9-5.4,47.1-11.6c6.1-1.5,13.5-3.3,16.6-4.1
		c6.9-1.8,7.4-1.8,5.9,0.1c-0.7,0.8-2.3,1.5-3.7,1.5c-1.3,0-7.2,1.3-13.1,2.9c-5.9,1.6-21.5,5.5-34.7,8.7
		c-13.2,3.1-28.7,6.9-34.5,8.5c-5.8,1.6-11.5,2.9-12.5,2.9c-1.1,0-6,1.1-11,2.4c-4.9,1.4-14.7,3.8-21.7,5.5
		c-7.1,1.7-18.5,4.5-25.5,6.2c-7.1,1.7-16.9,4.1-21.8,5.5c-5,1.3-9.8,2.4-10.8,2.4c-0.9,0-6.5,1.3-12.4,2.9S580,547.3,577,548
		c-3,0.6-8.4,2-12,2.9c-3.6,1-11.9,3.1-18.5,4.6c-6.6,1.5-16.9,4.1-22.8,5.6c-5.9,1.6-11.5,2.9-12.4,2.9c-1,0-6.5,1.3-12.3,2.8
		c-5.8,1.6-15.9,4.1-22.5,5.7c-6.6,1.5-15.8,3.8-20.5,5c-4.7,1.3-10.7,2.8-13.5,3.3c-2.7,0.5-9.9,2.2-16,3.7
		c-19.1,4.8-29.6,7.4-43,10.6c-7.1,1.7-17.9,4.3-24,5.8c-6,1.6-16.4,4.1-23,5.6c-6.6,1.5-16.9,4-23,5.6c-6,1.5-16.8,4.2-24,5.9
		c-7.1,1.7-17.2,4.2-22.2,5.5c-5.1,1.4-10,2.5-11,2.5c-0.9,0-6.6,1.3-12.7,2.9c-10.4,2.8-21,5.4-47.1,11.6c-6,1.5-15,3.7-20,5
		c-4.9,1.3-10.6,2.6-12.5,2.9c-1.9,0.4-8.4,2-14.5,3.5c-12.6,3.3-56.9,14.1-57.9,14.1c-0.3,0-0.6-0.4-0.6-0.9
		c0-0.8,5.6-2.4,29.5-8.1c7.2-1.7,16.2-4,20-5c3.9-1,9.5-2.3,12.5-2.9c3-0.6,9.3-2.2,14-3.5l8.5-2.5l-12,0.2
		c-12.2,0.3-19.3,1.7-46,8.7c-6,1.6-15.7,4-21.5,5.4c-10.4,2.4-29.5,7-44,10.6c-12.1,2.9-13,3.1-13,2.1c0-0.9,3.6-1.9,25.5-7.1
		c7.2-1.8,18-4.4,24-6c6.1-1.6,21.8-5.4,35-8.5c31.2-7.4,29.7-6.8,20.9-8.4c-5.6-1.1-9-0.4-55.9,11.4c-6,1.5-13,3.1-15.5,3.6
		s-7.9,1.7-12,2.8c-26.3,6.9-42.5,10.4-41,8.9c0.7-0.8,22.8-6.8,24.7-6.8c1,0,6.5-1.3,12.3-2.8c5.8-1.6,15.7-4.1,22-5.6
		c6.3-1.5,16.7-4,23-5.6c6.3-1.6,16.3-4.1,22.2-5.6c5.9-1.4,10.5-3,10.2-3.5c-0.8-1.3-4.9-1.1-13.4,0.6c-7.3,1.5-10.5,2.3-35,8.5
		c-6.3,1.6-17.3,4.3-24.5,6c-7.1,1.7-17.3,4.2-22.5,5.5s-13.4,3.3-18.1,4.4c-4.7,1.1-9.3,2.3-10.2,2.7c-1.5,0.5-1.7-0.2-1.7-4.9
		c0-3.2,0.5-5.9,1.3-6.5c1.3-1.1,3.8-1.8,25.5-7.2c6.7-1.6,17.5-4.3,24-5.9c6.4-1.6,16.4-4.1,22.2-5.5c29.7-7.2,31-7.6,25.6-9
		c-1.3-0.3-6.5-3.5-11.5-7.1c-7.4-5.3-9.5-6.4-11.6-5.9c-3.7,0.9-5.6,4-4.4,7.2c0.8,2.1,0.6,2.9-1.1,4.6c-1.8,1.9-3.3,2.1-12.3,2.1
		c-13.5,0-21.4-3.1-23.8-9.2c-0.6-1.7-1.7-2.2-5.5-2.5c-6.9-0.4-8.5-3-9.3-15.5c-0.8-10.6-1.4-12.2-7.3-19.6
		c-2.1-2.7-3.8-5.7-3.8-6.8s1.9-4,4.1-6.4l4.1-4.5l-4.3-5.6c-8.8-11.2-8.1-8.8-7.4-28.9c0.6-16.5,0.8-18.3,3-22
		c4.4-7.6,30.4-30.6,45.4-40.4c3.1-2,7.2-4.8,9.2-6.4c2-1.5,3.9-2.7,4.3-2.7c0.3,0,3.5-1.7,6.9-3.9c3.4-2.1,12.7-7.3,20.7-11.5
		s15.9-8.4,17.5-9.3c3.6-1.9,42.8-21.9,60.6-30.8c6.9-3.5,13.7-6.7,15.1-7c3.1-0.8,10.7-9.4,11.7-13.3c0.6-2.1,1.3-2.6,3.2-2.4
		c10.3,1.2,12.3,0.8,18.4-3.4c6.6-4.6,48.7-32.2,65.5-42.9c3.6-2.3,8.5-5.5,11-7.1c2.5-1.6,9.7-5.9,16-9.5
		c18.8-10.9,22.5-13.9,24.4-19.7c3.4-10.3,4.8-10.8,57.3-23.1c7.2-1.7,13.9-3.1,14.9-3.1c1,0,7.4-1.3,14.3-2.9
		c20.9-4.8,37.4-8.1,40.5-8.1c1.5,0,11.4-1.3,22-2.9c48-7.3,65.6-7.5,150.1-1.6c11.6,0.9,21.8,1.5,22.9,1.5c1.6,0,1.8-0.5,1.3-4.5
		c-0.8-5.6,0.5-8.7,4.6-10.9c1.8-0.9,5.9-3.2,9.2-5.1c10.7-6.2,18.9-10.2,27.5-13.6c13-4.9,34-15.2,41.1-20
		c3.5-2.4,17-9.6,29.9-16.1C794.9,178.3,805.6,173.1,805.7,173z M807.4,177.1c-0.5,0-2,0.5-3.4,1.1c-1.4,0.6-5.2,2.2-8.5,3.6
		c-15,6.2-44,21.2-46.9,24.2c-1.7,1.9-0.5,6.4,2.7,10.2c2.6,3.2,2.9,3.2,22.2-3.7c7.2-2.5,14.6-5,16.5-5.5c1.9-0.5,6-1.9,9-3.1
		c3-1.1,6.9-2.4,8.5-2.9c1.7-0.4,4.8-1.6,7-2.6c2.2-0.9,5.8-2,8-2.3l3.9-0.6l-9-9.3C812.4,181.2,807.9,177,807.4,177.1z M814,204
		c-4.7,1.6-9.4,2.9-10.4,2.9c-1.1,0.1-6.5,1.5-12,3.1c-13.1,4-25.9,7.6-31.9,9.1c-9.4,2.3-3.3,3,11.9,1.4c8.2-0.9,18.7-2.1,23.4-2.5
		c4.7-0.5,11-1.4,14-2.1c3-0.6,8.4-1.6,11.9-2.3l6.5-1.1l1.3-5c0.7-2.8,1.3-5.3,1.3-5.8C830,200.2,822.2,201.3,814,204z
		 M745.3,212.1c-3.3,0.2-7.9,2.9-9.4,5.4c-2.5,4.3-2.3,7.4,1,13.6c1.6,3,3.5,7.5,4.1,10.1l1.2,4.8h5.8c4.9,0,6.4-0.4,9.1-2.7
		c3.7-3.1,5.9-7.8,5.9-12.5c0-4.4-1.2-6-4.5-6.4c-4.5-0.5-5.2-1-8.9-6.8C747.6,214.5,745.7,212,745.3,212.1z M718.4,222
		c-1,0-1.4,0.6-1,1.7c0.3,1,0.8,3.6,1.1,5.8c0.4,2.2,1.5,6.4,2.6,9.3c1,2.9,1.8,5.6,1.8,6c-0.6,3.8,0.1,4.4,4.4,3.7
		c2.3-0.4,4.6-1.1,5.1-1.5c0.5-0.5-0.1-4.9-1.5-10.2c-1.2-5.1-2.3-10.1-2.3-11.1c0-1.3-0.9-1.7-4.3-1.7c-2.4,0-4.3-0.5-4.3-1
		C720,222.4,719.3,222,718.4,222z M710.5,226.1c-1.6,1-10.4,5.3-19.5,9.5s-17.3,8.3-18.2,9.1c-1.8,1.6-1.6,5.7,0.4,9.6
		c1,1.9,1.6,1.9,21.6-0.9c5.6-0.8,12.6-1.4,15.5-1.4c8.3,0,9.7-0.7,9.7-4.6c0-1.8-0.7-5.2-1.6-7.5c-1-2.3-1.8-5.4-1.9-7
		c-0.1-1.6-0.2-4.3-0.3-5.9C716,223.6,714.7,223.3,710.5,226.1z M767.1,237.2c-0.1,7.5,0.1,8.8,1.5,8.8c1.4,0,1.6-0.7,0.9-4.8
		C767.5,228.6,767.3,228.2,767.1,237.2z M759.6,249.1c-0.6,0.1-3.8,0.8-7.1,1.7c-27,6.8-36.7,9.6-48,13.5
		c-16,5.6-32.6,10.7-34.8,10.7c-1.5,0-14.2,3.8-28.2,8.5c-3.8,1.3-11.7,3.8-17.5,5.6c-5.8,1.8-14.1,4.5-18.5,6
		c-4.4,1.4-12,3.9-17,5.4c-4.9,1.5-12.6,4-17,5.5c-19.5,6.7-42.4,14-43.9,14c-2,0-2,0.9,0.1,3.2c2,2.2,1,3.6-1.3,1.7
		c-2.3-1.9-10.9-1.5-17.4,0.8c-13.4,4.9-147.6,49.3-182.5,60.5c-4.9,1.6-10.2,3.5-11.6,4.3c-1.5,0.8-5.5,2.1-9,3
		c-3.5,0.8-10.2,2.6-14.9,4c-5,1.5-12.2,2.8-17.5,3.1c-4.9,0.3-13,1.5-17.8,2.6c-12.2,2.8-18.2,2.2-33.2-3.7
		c-11-4.3-12.6-4.6-19-4.3c-6.5,0.4-8.4,1.1-28,10.6c-12.8,6.3-26.3,13.8-34.5,19.2c-10.8,7.2-14.3,9-17.2,9
		c-3.1,0-12.3,4.2-21.8,10c-0.8,0.5-6,3.5-11.5,6.6c-5.5,3.1-11.8,6.8-14,8.3c-2.2,1.5-5.1,3.2-6.5,3.9c-2.4,1.2-9.1,6-24,17.2
		c-3.6,2.7-11.5,9.8-17.6,15.7c-13.2,13-13.4,13.5-13.4,34.6c0,13.1,0.2,14.7,2.1,17.1c1.1,1.4,2.5,2.4,3,2.1
		c0.5-0.4,0.9-6.2,0.9-13c0-11,0.2-12.5,1.9-13.7c1-0.7,4.4-6.5,7.4-12.9c6.7-13.8,11.9-20.8,19-25.3c6.6-4.3,17.9-8.8,19-7.7
		c0.5,0.5-2,4.6-5.5,9.2c-3.6,4.6-8.3,11.5-10.5,15.4c-2.3,3.8-5.4,9-7,11.5c-2.3,3.6-2.8,5.6-2.8,10.5v6l-5.5,0.3l-5.5,0.3l0.1,8.6
		c0.1,8,0.3,8.8,2.7,10.7c1.8,1.5,3.2,4.3,4.7,9.7c2,7.5,2,7.7,0.2,12c-1.1,2.4-3.1,5.5-4.5,6.9c-3.2,3-3.4,5.1-0.6,7.6
		c1.1,1,3.4,4.7,5.1,8.2c2.3,4.8,3.4,6.2,4.7,5.7c0.9-0.4,5.4-1.1,10.1-1.6c11.4-1.3,12.3-1.6,11.6-4.2c-0.3-1.2-0.6-2.7-0.6-3.3
		c0-0.7-0.6-1.2-1.3-1.1c-3.2,0.1-4.5-0.5-5.4-2.6c-0.9-2-0.7-2.5,1.8-4l2.9-1.6v-12.7c0-7,0.3-12.4,0.7-12.1
		c0.3,0.4,0.9,8,1.4,16.9c0.5,10.9,1.4,19.2,2.8,25C71,610.9,69,613.4,54,615.3c-9.8,1.2-10.6,2.3-4.1,5.7
		c7.4,3.7,19.8,4.7,25.3,1.9c1.9-1,1.9-1.3-1.7-17.5c-1.3-6-2.7-13.5-2.9-16.5c-0.3-3-1-9.2-1.6-13.9c-4.2-34.8,5.5-67.5,27.1-91.4
		c13.3-14.7,27.6-24.2,45.9-30.4l10.5-3.6H173c21.6,0,22,0,37.9,5.9c24,8.8,43.2,32.3,55.3,67.5c3.2,9.2,13.3,47.3,14.2,53.3
		c0.4,2.8,1.2,2.9,9.3,0.8c4.3-1.1,9.2-2.2,10.8-2.6c1.7-0.3,7.4-1.6,12.8-3c9.2-2.4,17.4-4.4,38.2-9.5c5-1.3,12.4-3,16.5-4
		c4.1-0.9,11.6-2.7,16.5-4c5-1.2,13.5-3.4,19-4.7c5.5-1.3,15-3.8,21.1-5.4s11.7-2.9,12.5-2.9c1.3,0,13.3-3,34.4-8.6
		c5-1.3,9.9-2.4,10.9-2.4c1.1,0,5-0.9,8.9-2.1c3.8-1.1,9.7-2.6,13.1-3.4c3.3-0.7,10.8-2.5,16.6-3.9c5.8-1.5,15-3.8,20.5-5.1
		s14.7-3.6,20.5-5.1c5.8-1.4,13-3.2,16-3.9c3-0.6,9.6-2.2,14.5-3.4c5-1.3,13.3-3.3,18.5-4.6c30.5-7.5,31.7-7.9,32.6-10.7
		c1-3.2-0.6-20-3.7-40.2c-2.5-16.2-2.9-21-2.6-34.5c0.3-14.1,0.6-16.3,3.1-22.9c1.5-4,2.9-8.1,3.1-9c0.9-4.5,8.4-20.5,12.7-27.3
		c13.7-21.6,39.1-35.9,63.8-35.9c16.9,0,30.8,5.3,47,17.7c10,7.8,19.6,21.1,25.3,35.3c2.8,6.9,3.7,9.5,4.2,12.5
		c3.2,17.9,5.5,31.1,5.5,31.8c0,0.7,3.7,0.1,4.7-0.7c0.2-0.2-0.8-6.1-2.1-13.2c-3.3-17.5-3.8-21.4-2.8-21.4c0.5,0,0.9,0.6,0.9,1.3
		c0,2.4,4.4,10.7,6.3,11.7c1.5,0.8,2,0.4,3.1-2.2c0.7-1.8,1.2-4.8,1-6.8c-0.3-4-3.4-17-5.7-23.7c-2.4-7.1-1-6.1,3,2.2
		c2,4.1,4.1,7.5,4.6,7.5c1.3,0,1.3-13.4,0-18c-0.5-1.9-1.2-5-1.5-6.9c-1-5.8-7.3-17.3-12.1-22.2l-4.6-4.7l4.8-1.4l4.9-1.5l-4-1.1
		c-5.6-1.6-11-5.5-12.2-8.9c-0.6-1.5-1.8-5.4-2.7-8.6l-1.7-5.7h-6c-5.6,0-6-0.2-7-2.8c-0.6-1.5-2.4-4.8-4.1-7.4
		c-3-4.7-4.7-10.8-6.9-24.6C761.2,252,760.3,249.1,759.6,249.1z M767.1,250.5c-2.2-0.8-4.1-1.2-4.1-0.9c0,0.3,0.7,3.3,1.4,6.7
		c0.8,3.4,1.8,7.9,2.1,9.9c0.5,3.5,0.8,3.8,3.9,3.8c1.8,0,6.8,0.3,11.1,0.7l7.8,0.6l-7.4-9.6c-4.1-5.3-8.1-9.7-9-9.7
		C772,252,769.4,251.3,767.1,250.5z M566,252.2c-32.6,0.2-30.4,0-55.5,3.3c-46.1,6.1-90.1,16.3-129.2,29.9
		c-10.8,3.7-29.4,14.8-51.3,30.6c-5.2,3.7-13.8,9.8-19,13.4c-5.2,3.7-14.2,10-20,14.2c-5.8,4.1-13.9,9.8-18,12.6
		c-4.1,2.8-10.4,7.8-14,11.2c-3.6,3.4-9.2,8-12.5,10.4c-3.3,2.3-8,5.7-10.4,7.5c-6.5,4.8-14.2,8.6-17.6,8.7
		c-4.4,0.1-1.8,1.5,9.7,5.1c10.7,3.3,17.1,3.6,27,1.1c5.5-1.4,5.9-1.7,12.5-10.5c14.4-19.3,44.2-46.1,74.6-67.1
		c6.9-4.7,12.9-8.6,13.2-8.6c0.4,0,2.5-1.3,4.8-2.9c2.3-1.6,8.7-5.5,14.1-8.6c31.5-17.9,57-25.9,103.6-32.6
		c13.9-2.1,80.6-1.7,95,0.5c27.5,4.1,46.9,9.1,44.4,11.6c-0.9,0.9-4.1,2-37.9,13.5c-8.8,2.9-27.9,9.5-42.5,14.5
		c-14.6,5-27.8,9.5-29.5,10c-3.4,0.9-15.7,5.1-25.9,8.8c-3.7,1.3-8.2,2.8-10,3.2c-1.7,0.5-8.9,2.9-16.1,5.5c-7.1,2.6-14.3,5-16,5.5
		c-1.6,0.4-6.1,1.9-10,3.3c-3.8,1.3-11.9,4.1-18,6c-6,2-13.9,4.5-17.5,5.8c-15.1,5.2-23.5,8-40.5,13.4c-9.9,3.2-21.5,7.1-25.8,8.7
		c-4.3,1.5-8.4,2.8-9,2.8c-0.6,0-4.1,1.1-7.7,2.4s-13.9,4.8-23,7.6c-21.4,6.8-24.8,9.6-4.5,3.8c3.9-1.2,9.5-2.6,12.5-3.3
		c6.7-1.5,17.8-4.8,28.5-8.5c4.4-1.5,35.7-11.9,69.5-23c60.9-20.1,104.4-34.6,129.5-43.3c7.2-2.5,17.1-5.7,22-7.2
		c5-1.5,13.3-4.1,18.5-5.6c5.2-1.6,13.6-4.2,18.5-5.8c5-1.6,13.1-4.1,18-5.7c5-1.5,20.3-6.4,34-10.9c13.8-4.5,26.4-8.5,28-8.9
		c1.7-0.4,7.1-1.8,12-3.2c5-1.4,11.5-3.2,14.5-4.1c3-0.8,6-1.9,6.5-2.4c0.6-0.4,2.9-1.2,5-1.8c9.9-2.4,17.5-5.6,17.5-7.4
		c0-2.3-3.8-2.2-20.8,0.3c-17.8,2.7-26.4,2.5-67.7-1C599.9,252.5,590.1,252,566,252.2z M776.2,272.5c-7.5-0.6-9.2-0.5-9.2,0.6
		c0,2,3.8,7.9,5.5,8.5c0.8,0.3,1.7,2.1,2.1,4c0.6,3.3,0.8,3.4,5.4,3.4c3.5,0,5-0.4,5.4-1.7c1.2-3,1.9-13,1-13.6
		C785.9,273.4,781.3,272.9,776.2,272.5z M522.2,274.6c-24.5-0.5-29.3-0.3-29.1,1.2c0,0.4,3.4,5,7.5,10.2c4.1,5.2,9.8,12.6,12.7,16.3
		c5.1,6.7,5.3,6.8,9.2,6.4c3.8-0.4,11-2.6,27.5-8.7c4.1-1.5,12.2-4.3,18-6.1s11-3.6,11.5-3.9c0.6-0.4,4.7-2,9.3-3.4
		c7.7-2.6,10.4-4.5,6.5-4.7c-4.8-0.2-18.3-2-32.1-4.3C550.6,275.5,543.5,275,522.2,274.6z M482.3,275.1c-6.7,0.2-6.8,0.2-23.8,3.5
		c-43.1,8.3-76.4,22.7-118.4,51.2C325,340.1,324,341,323.7,344.5c-0.2,2.7,0.2,3,3.3,3.6c1.9,0.4,2.5,0.7,1.4,0.8
		c-3.8,0.2-6.5,3.4-7.8,9.1c-0.7,3-1.6,6.5-2,7.7c-0.7,2.2-0.7,2.2,3.4,0.6c4.5-1.8,4.4-1.6,3.1-6.1c-1.1-3.7,0.1-8.2,2.1-8.2
		c2.4,0.1,5,2.9,5.7,6.2c1.1,5.1-0.4,8-5.4,10.7c-3.4,1.8-4.5,3-4.5,4.7c0,1.3,0.3,2.4,0.7,2.4c0.3,0,11.2-3.5,24.2-7.9
		c13-4.3,43.9-14.5,68.6-22.6c57.9-18.9,94.6-31.2,95.2-31.9c0.3-0.3-2-4.5-5.1-9.3c-3.2-4.8-7.3-12-9.2-16
		c-1.9-3.9-4.8-8.6-6.3-10.2C488.5,275.3,487.7,275,482.3,275.1z M355.8,287.8c-2.3,1.9-2.5,9.2-0.4,9.2c0.8,0,2.7-1,4.3-2.3
		c1.5-1.3,6.5-4.5,11.1-7.2c4.5-2.8,8.2-5.3,8.2-5.7C379,279.3,359.8,284.2,355.8,287.8z M685.2,342.2c-16.8,8.1-31.2,25.9-39,48.1
		c-3.6,10.2-3.6,10.3-3.5,26.7c0,15.9,0.1,16.8,3.3,26c10,29.6,23.7,44.9,47.9,53.8c8.6,3.1,10.9,3.6,22.1,4
		c12.6,0.4,16.9-0.2,27.6-4.2c13.8-5,31.1-20.6,37.6-33.7c8.7-17.4,10.3-24.7,10.3-46.4c0-17.1-0.7-21.5-4.7-30.5
		c-7.1-15.8-9.7-19.5-21.2-30.7c-10.2-10-11.8-11.1-19.4-14.1c-4.5-1.8-11.5-3.7-15.5-4.3C709.8,334,699.7,335.2,685.2,342.2z
		 M281.7,345.1c-2.9,1.3-32.1,21.3-37.7,25.8c-4.2,3.4-12.5,9.6-17.6,13.1c-1.2,0.8-4.1,3-6.5,4.8c-4.2,3.2-4.3,3.3-1.4,2.7
		c5.2-1.1,16.8-7.2,22-11.6c2.8-2.3,7-5.5,9.5-7.2c2.5-1.7,8.6-6.7,13.5-11.1c5-4.3,11.4-9.5,14.2-11.4c2.9-1.9,5-3.8,4.7-4.3
		C282.1,345.4,281.8,345,281.7,345.1z M154.4,455c-33.5,6-58.9,31.5-68.9,69c-3.2,12-3.9,28.4-1.6,38c5.9,24.7,14.4,41.4,27.6,54.4
		c26.9,26.4,66.7,31.1,100,11.7c8.2-4.7,26.2-22.9,30.4-30.6c8.5-15.8,13.1-32,13.1-46.8c0-15.8-5.7-39.2-13.1-53.8
		c-3.8-7.6-20.3-24.7-29.6-30.7c-8.8-5.6-20.2-9.8-31.8-11.6C168.3,452.7,167.2,452.7,154.4,455z M644.5,491.5
		c-3.9,1.7-10.9,3.6-27,7.5c-7.1,1.7-17.3,4.2-22.5,5.5c-5.2,1.3-15.3,3.8-22.5,5.5c-7.1,1.8-18,4.5-24.1,6.1
		c-6.1,1.6-11.9,2.9-12.8,2.9c-1,0-5.6,1.1-10.4,2.4s-14.8,3.8-22.2,5.5c-7.4,1.8-17.5,4.3-22.5,5.6c-4.9,1.3-15.1,3.8-22.5,5.5
		c-7.4,1.7-18.4,4.4-24.5,6c-12.2,3.1-30,7.5-38.5,9.5c-3,0.6-8.6,2-12.5,2.9c-3.8,1-12.4,3.1-19,4.7c-6.6,1.7-17.2,4.3-23.5,5.9
		c-17.7,4.4-28.9,7.1-35.5,8.6c-3.3,0.8-10,2.4-14.9,3.8c-8,2.1-8.9,2.6-9.2,4.9l-0.2,2.5l10.6-2.8c5.9-1.5,13.2-3.3,16.2-4
		c3-0.6,8.7-2,12.5-3.1c3.9-1,12.9-3.2,20-4.9c7.2-1.7,17.3-4.2,22.5-5.5s10.9-2.6,12.5-3c1.7-0.3,7.3-1.6,12.5-3
		c5.2-1.3,15.4-3.8,22.5-5.5c7.2-1.8,17.1-4.2,22-5.6c5-1.3,9.8-2.4,10.8-2.4c0.9,0,6.7-1.3,12.9-3c11.9-3.1,27.9-7.1,46.3-11.5
		c6.1-1.4,16.2-3.9,22.5-5.4c13.4-3.4,33.1-8.2,48-11.7c5.8-1.4,15.5-3.8,21.6-5.5c6.1-1.6,11.9-2.9,12.9-2.9
		c1.1,0,6.7-1.3,12.5-2.9c10.9-2.9,29.9-7.5,36-8.7c1.9-0.4,4.6-1.1,5.9-1.6l2.4-0.9l-3.6-2.4C655.2,487.4,653.7,487.5,644.5,491.5z
		 M52,490c-4,0-10.6,6.1-15.5,14.2c-4,6.8-4.6,8.4-2.7,8c1.9-0.3,1.4,1.6-0.8,2.8c-2,1.1-2.7,4.4-1.1,5.4c1.5,1,12.5-11.7,17.9-20.7
		c2.9-4.7,5.2-8.8,5.2-9.2C55,490.2,53.6,490,52,490z M667,504.4c-4.7,1.3-14.6,3.7-22,5.5c-7.4,1.8-18.7,4.6-25,6.1
		c-6.3,1.6-16.2,4-22,5.4c-5.8,1.4-15.2,3.7-21,5.2c-5.8,1.4-13,3.2-16,3.9c-6.7,1.5-20.3,4.8-33,8c-5.2,1.3-10.8,2.6-12.5,3
		c-1.6,0.3-7.3,1.6-12.5,3c-5.2,1.3-15.3,3.8-22.5,5.5c-7.1,1.8-16.4,4-20.5,5.1c-4.1,1.1-9.5,2.3-12,2.8
		c-4.4,0.8-15.6,3.5-37.5,9.1c-6,1.5-16.4,4-23,5.5c-6.6,1.5-16.9,4-23,5.6c-18.4,4.6-28.6,7.1-36.5,8.9c-4.1,0.9-10.6,2.5-14.5,3.4
		c-24.1,6-31.4,7.8-43,10.6c-23.8,5.7-32.5,8.3-34.2,10.2c-0.9,1-1.4,2-1.2,2.2c0.2,0.3,4.5-0.6,9.4-1.9c5-1.3,14.9-3.8,22-5.5
		c7.2-1.7,17.2-4.2,22.2-5.6c5.1-1.3,10-2.4,11-2.4c0.9,0,6.5-1.3,12.3-2.9c5.8-1.5,16.6-4.3,24-6c7.4-1.8,17.6-4.3,22.5-5.7
		c5-1.3,9.7-2.4,10.5-2.4s6.9-1.4,13.5-3.1c17.3-4.4,33.3-8.4,46.5-11.5c6.3-1.4,16.4-3.9,22.3-5.5c5.9-1.6,11.5-2.9,12.4-2.9
		c1,0,6.5-1.3,12.3-2.8c5.8-1.6,15.9-4.1,22.5-5.7c6.6-1.5,15.8-3.8,20.5-5c4.7-1.3,10.1-2.6,12-3c1.9-0.3,8.7-1.9,15-3.5
		c11.6-2.9,21.5-5.3,45.5-11c7.2-1.7,18-4.4,24-6c6.1-1.5,21.6-5.3,34.5-8.4c34.9-8.4,37-8.9,37-9.8
		C687,501.3,675.5,502.2,667,504.4z M684,506.6c-4.1,0.7-11.8,2.5-17,3.8c-5.2,1.4-15.3,3.9-22.5,5.6c-7.1,1.7-17.1,4.2-22,5.6
		c-5,1.3-9.8,2.4-10.8,2.4c-0.9,0-6.7,1.3-12.9,2.9c-19.4,5.1-34.5,8.8-59.3,14.6c-13.2,3.2-27.8,6.8-32.5,8
		c-4.7,1.3-11.2,2.8-14.5,3.4c-3.3,0.6-8.2,1.8-11,2.7c-2.7,0.8-7.2,1.9-10,2.4c-2.7,0.6-9.3,2.1-14.5,3.4
		c-5.2,1.4-15.3,3.9-22.5,5.6c-7.1,1.7-16.1,4-20,5c-3.8,1-8.6,2.1-10.5,2.5c-1.9,0.3-8.7,1.9-15,3.5c-29.5,7.4-36.3,9-47,11.6
		c-6.3,1.4-16.4,3.9-22.3,5.5c-5.9,1.6-11.5,2.9-12.4,2.9s-6.6,1.3-12.7,3c-6.1,1.6-16,4.1-22.1,5.5c-12,2.8-32.9,8.1-38.5,9.7
		c-3.4,0.9-10.7,6.5-9.7,7.4c0.2,0.3,3.8-0.4,7.8-1.4c4.1-1.1,12.6-3.1,18.9-4.6c6.3-1.5,15.8-3.8,21-5.1c27.8-7.1,34.9-8.8,39-9.5
		c2.5-0.4,7.9-1.7,12-2.8c4.1-1.2,13.6-3.5,21-5.3c7.4-1.7,18.2-4.5,24-6c5.8-1.6,11.4-2.9,12.3-2.9c1,0,5.9-1.1,11-2.4
		c5-1.3,15.1-3.9,22.2-5.6c7.2-1.7,17.1-4.2,22-5.5c5-1.2,10.6-2.6,12.5-2.9c1.9-0.4,7.8-1.8,13-3.1s15.4-3.8,22.5-5.5
		c7.2-1.8,18.2-4.4,24.5-6c6.3-1.6,16.5-4,22.5-5.5c6.1-1.4,16.2-3.9,22.5-5.5c13.6-3.3,33.3-8.1,48-11.6c5.8-1.4,15.7-3.8,22-5.4
		c11.7-2.9,27.7-6.8,47.5-11.5c6.1-1.5,16-4,22.1-5.6c6.1-1.6,11.9-2.9,12.8-2.9c0.9,0,1.6-0.5,1.6-1C707,504.6,693.2,505,684,506.6
		z M22.4,532.7c0.3,4.2,0.6,9,0.6,10.7c0.1,2.8,0.2,2.9,1.4,1.3c0.8-1,2-1.6,2.7-1.5c1.6,0.3,2.5-7.3,1.3-10.1
		c-0.4-0.9-0.8-2.1-0.9-2.6c0-0.6-0.9-2-2-3.3C22.3,523.5,21.7,524.5,22.4,532.7z M28.5,548c-2.3,0-2.5,1.4-0.5,3.5
		c2.3,2.4,4.4,14.9,2.9,17.5c-0.6,1-0.8,0-0.9-3v-4.4l-2.1,2c-1.8,1.8-1.9,2.6-1.1,5.8c1.1,3.8,0.3,4.7-1.8,2.1
		c-0.7-0.8-1.8-1.5-2.4-1.5c-1.8,0-3.5,2.1-2.9,3.6c0.5,1.5,7.8,1.9,12.1,0.8c2.7-0.8,5.2-5.1,5.2-9.2c0-4.5-2.7-12.2-5.1-14.8
		C30.7,549.1,29.1,548,28.5,548z M32.9,596.1l-1.9-2.3v4.1c0,4.3,1.3,5.3,2.9,2.3C34.6,599,34.3,597.8,32.9,596.1z M47.2,602.6
		c-5.7,1.4-6.2,1.8-5.7,3.7c0.4,1.2,1.5,3.3,2.4,4.7c1.6,2.2,2.5,2.5,6.4,2.2c2.5-0.2,6.7-0.9,9.4-1.6c5.7-1.4,6.7-3.9,3-7.4
		C59.5,601.2,54.9,600.7,47.2,602.6z"/>
	<path d="M730,313c0,0.5,1.7,1,3.8,1c3.9,0,16.3,3.2,22.2,5.7c4.3,1.9,13.1,7.5,12.6,8c-0.2,0.2-3.7-1.2-7.7-3.3
		c-22.5-11.3-46.8-13.4-67.8-5.8c-5.2,1.9-10.2,4-11.1,4.8c-0.8,0.7-3.6,2.5-6.3,4c-7.8,4.5-17.4,14.2-24.4,25
		c-8.1,12.2-8.7,13-7.2,8.7c3-8.6,16.3-24.5,28.1-33.7c8.3-6.4,20.2-11.7,31.8-13.9C712,311.9,730,311.6,730,313z"/>
	<path d="M582.5,325.1c2.2,0-10.7,4.5-32.7,11.4c-16.9,5.3-15.8,3.4-11,18.5c3.9,12,5.2,15.8,6.9,19c0.7,1.4,1.3,3.2,1.3,4.1
		c0,0.8,0.4,1.9,0.8,2.5c3.1,3.4,10.2,30.2,10.2,38.3c0,6,0.7,6.3,8.6,4.5c31.7-7.2,52.5-12.1,55.2-13c2.8-0.8,0.9,1.7-3,4
		c-4.9,2.7-18.5,6.3-29.7,7.7c-12.3,1.5-29.6,5.4-29.4,6.6c0.6,3.1,2.3,23.5,2.3,28c0,6.4-1.2,7.3-12,9.8
		c-14.2,3.2-42.6,10.3-62.6,15.6c-6.1,1.6-11.7,2.9-12.5,2.9s-5.2,1.1-9.9,2.4c-4.7,1.3-14.1,3.8-21,5.6c-6.9,1.7-17.7,4.4-24,6
		c-6.3,1.6-16.4,4.1-22.5,5.5c-6,1.4-16.3,3.9-22.7,5.5c-14.3,3.6-32.8,8.3-46.3,11.6c-5.5,1.4-14.9,3.8-21,5.5
		c-6,1.6-12.2,2.9-13.7,2.9c-1.5,0-3.8,0.4-5.1,0.9c-2.4,0.9-2.4,1-1.1,6.2c0.8,3,1.4,6.9,1.3,8.9v3.5l-1.3-3.5
		c-3-8.3-6.8-19.7-7.2-21.9c-0.3-1.3-1.8-5.1-3.3-8.5c-1.6-3.3-4.1-9.2-5.6-13c-2.9-7.2-11.3-22.3-17.5-31.6
		c-5-7.3-21.6-22.3-28-25.2c-5-2.3-6-4.3-3-5.9c2.8-1.4,17.5-6.7,28.5-10.2c6.1-2,13.9-4.5,17.5-5.8c16.7-5.7,23.3-7.9,33.5-11.2
		c6.1-2,13.9-4.5,17.5-5.8c15.1-5.2,23-7.8,31.5-10.4c5-1.5,12.6-4.1,17.1-5.6c4.4-1.6,8.4-2.9,8.9-2.9s4.5-1.3,8.9-2.9
		c4.5-1.6,16.2-5.5,26.1-8.6s21.8-7,26.5-8.5s12.6-4,17.5-5.5c8.5-2.5,14.5-4.3,37.5-11.4c5.2-1.6,13.8-4.1,19-5.6
		c5.2-1.5,13.6-4,18.5-5.5c5-1.5,13.5-4.1,19-5.8c5.5-1.7,14.1-4.3,19-5.7c5-1.5,9.5-2.8,10-3C580.1,325.3,581.4,325.1,582.5,325.1z
		 M533.7,344.9c-1.4-3-1.9-2.9-13.7,1c-4.7,1.6-12.1,4-16.5,5.4c-33.4,10.5-52.6,16.8-91.5,29.8c-24.5,8.2-60,20.1-79,26.4
		c-19,6.4-35.4,12-36.5,12.5c-1.1,0.5-15,5.2-30.9,10.5c-15.9,5.3-30.3,10.3-31.9,11.2l-3,1.5l9.2,8.5c5,4.7,11.1,11,13.4,14.1
		c9.3,12.3,23.1,37.8,29.7,55.2c1.8,4.7,3.3,8.6,3.4,8.7c0.2,0.2,7.8-1.9,8.4-2.3c0.2-0.1-0.1-1.2-0.8-2.3c-0.7-1.4-0.7-2.1,0-2.1
		c0.5,0,1,0.4,1,0.9c0,2.9,8.9,1.8,28.5-3.4c5-1.3,14-3.6,20-5c6.1-1.5,16-3.9,22-5.5c15.3-3.9,33-8.3,46-11.5
		c6.1-1.5,16-3.9,22-5.5c15.3-3.9,33-8.3,46-11.5c6.1-1.5,16-3.9,22-5.5c6.1-1.5,16.4-4.2,23-5.8c39-9.8,35.9-8.2,34.5-18.3
		c-0.5-3.5-0.9-9.7-0.9-13.8c-0.1-9-1.1-10.5-6.3-9.7c-5,0.8-4.9,0,0.2-1.4c4.5-1.2,4.5-1.2,2.6-9.5c-0.8-3.3-1.7-8-2.1-10.5
		c-1-7.2-5.6-24-8-29.5c-3-6.8-9.5-25.9-9.5-28.2C534.9,348.3,534.4,346.4,533.7,344.9z"/>
	<path d="M177,412.5c0,0.8-24.2,12.7-24.8,12.1c-0.3-0.3,5.1-3.3,11.9-6.6C177.3,411.6,177,411.7,177,412.5z"/>
	<path d="M148,427.1c0.8,0-1.4,1.3-4.9,3c-3.5,1.6-6.6,2.7-6.9,2.4c-0.3-0.2,1.9-1.6,4.9-3C144.1,428.1,147.2,427,148,427.1z"/>
	<path d="M129,437.1c-3.3,2.2-17.2,9-17.7,8.6c-0.5-0.5,4.9-3.8,12.2-7.4C128,436,131.7,435.2,129,437.1z"/>
	<path d="M171,440.2l8.5,0.1l-10,0.8c-5.5,0.4-14.5,1.9-20,3.3c-5.5,1.3-10.2,2.3-10.4,2c-0.7-0.7,4.8-2.4,14.2-4.3
		C158.5,441,166.2,440.2,171,440.2z"/>
	<path d="M574.2,482.8c11.5,6,16,9.1,15.6,10.9c-0.3,1.7-9.9,4.3-38.3,10.6c-16,3.6-37.2,8.4-51.5,11.7c-6.9,1.6-17.7,4.1-24,5.5
		c-6.3,1.4-17.1,3.9-24,5.5c-18.5,4.2-37,8.5-50.5,11.5c-6.6,1.5-17.6,4-24.5,5.6c-17.5,4-36.4,8.3-50.5,11.5
		c-6.6,1.4-17.2,3.9-23.6,5.5c-6.5,1.6-13.1,2.9-14.7,2.9c-3.4,0-6.9-3.5-7.8-7.9c-0.3-1.4-1.4-5.1-2.5-8.1c-2.2-6.2-4.8-16-4.3-16
		c0.6,0,3.5,7.2,6.5,16.5c3,9,5.9,13.5,8.8,13.5c0.8,0,5.4-0.9,10.1-2c13.8-3.3,33.7-7.9,45-10.5c5.8-1.3,16.1-3.8,23-5.5
		c6.9-1.6,13.6-3,14.8-3c2.3,0,2.7-0.7,1.4-2.7c-0.6-0.9-2.5-0.8-8.2,0.6c-4.1,1-9.5,2.1-12,2.4c-2.5,0.3-5.4,0.9-6.3,1.3
		c-0.9,0.3-1.7,0.2-1.7-0.2c0-0.8,11.3-3.6,41-10c6.3-1.4,17.4-3.8,24.5-5.4c16.3-3.6,37.7-8.4,52-11.5c11.8-2.6,31.2-6.8,52-11.5
		c14.2-3.1,32.6-7.1,42-9.1c9.1-1.9,9.3-2.1,5.1-6.3c-3.5-3.4-4-3.6-10.4-3.6c-3.7,0-13.9,1.1-22.7,2.6c-8.8,1.4-24.3,3.8-34.5,5.5
		c-10.2,1.6-20,3.2-21.7,3.5c-2,0.3-3.3,0.1-3.3-0.6c0-0.5,1-1,2.3-1c1.2,0,7.4-1.1,13.7-2.4c6.3-1.3,18.5-3.8,27-5.5
		c8.5-1.7,20.5-4.2,26.5-5.5C563.8,478.2,565.6,478.3,574.2,482.8z"/>
	<path d="M315.1,335c2.1,0,0.2,2-8.6,9l-9,7.2l8.3-8.1C310.4,338.6,314.6,335,315.1,335z"/>
	<path d="M296.7,351.4c0.7,0.7-0.7,2.6-1.9,2.6c-0.6,0-0.6-0.6,0.2-1.5C295.7,351.6,296.5,351.2,296.7,351.4z"/>
	<path d="M279.4,369.2c-7.7,7.9-16.6,17.6-19.8,21.6c-5.3,6.8-10.1,11-11.1,10c-0.7-0.7,28.5-32.7,36.1-39.5
		C296.6,350.5,294,354.4,279.4,369.2z"/>
	<path d="M735.8,357.6c25.3,8.3,41.8,33.3,41.6,62.9c0,6.3-0.7,12.2-1.7,16c-1,3.3-2,6.8-2.2,7.8c-0.2,1-1.7,4.3-3.2,7.4
		c-11,21.7-35.8,35.1-57.3,30.9c-11.2-2.2-17-4.8-24.3-10.6c-12.7-10.1-20.7-24-23.8-40.9c-2.3-12.8-2.3-17.1,0-28.9
		c5-24.8,21.7-42.1,45.6-47.2C716.6,353.6,727.3,354.7,735.8,357.6z M715.6,372.7c0.4,1,0.9,6.7,1.1,12.8c0.3,8.7,0,11.4-1.2,13
		c-1.5,1.9-1.5,1.9-3.5-0.1c-1.2-1.1-2.3-3.8-2.7-6c-0.3-2.1-1.1-4.6-1.8-5.4c-0.6-0.8-2.4-3.6-3.9-6.3c-3-5.3-4.3-5.7-8.2-2.4
		l-2.7,2.3l4.8,6.5c7.7,10.4,10.4,17.9,6.9,19.3c-2.7,1-3.4,0.7-6.7-2.8c-1.8-1.8-6.2-5-9.9-7.1l-6.8-3.7l-0.9,2.4
		c-2.3,6-2.3,6,8.8,11.8c11.8,6.2,15.3,9.9,11.7,12.5c-1.1,0.8-3.6,1.7-5.5,2.1c-5.2,0.9-20.1,6.5-20.1,7.6c0,0.5,0.5,1.8,1.1,3
		c0.9,1.7,1.7,1.9,5.7,1.3c2.6-0.4,5.2-1,5.7-1.5c2.3-1.8,11.5-4,13.9-3.4c3.6,0.9,3.3,2.9-1.5,10.2c-3.1,4.7-4.6,6.2-6.4,6.2
		c-1.8,0-2.3,0.4-1.8,1.6c0.3,0.8-0.4,2.6-1.8,4c-2.5,2.6-2.1,4.6,1.4,6.8c2.6,1.6,4.5,0,11-9.5c7.8-11.3,8.4-11.9,10.3-9.5
		c1.7,2.4,1.7,8.7,0,18.6c-1.6,8.6-0.9,10.3,3.8,9.8l3.1-0.3l0.5-13.2c0.3-7.2,0.8-13.5,1.2-13.8c0.4-0.4,1.8-0.5,3.2-0.1
		c1.8,0.4,3.6,2.7,6.7,8.4c2.3,4.2,5.1,8.7,6.2,9.9l2,2.2l1.8-2.3c2.2-2.7,2.5-6.6,0.7-6.7c-2.1,0-7.9-9.7-8.2-13.7
		c-0.7-6.6,1.8-7.5,10.9-4.1c5.1,1.9,5.6,2.3,5.1,4.5c-0.6,2.3-0.5,2.4,1.6,1.2c3-1.7,3.8-2.8,3.8-5.5c0-3.3-2.2-7.6-3.1-6.1
		c-0.6,0.9-2,0.8-6.3-0.5c-7.2-2.3-10.5-5-9-7.3c1.4-2.4,2.6-3,12.7-6c8.3-2.5,8.7-2.8,8.7-5.5c0-2.6-0.3-2.9-3.2-2.9
		c-1.8,0-6.2,0.9-9.6,2c-9.3,2.9-11.2,2.7-11.2-1.2c0-2.4,1-4.1,4.6-7.5c2.5-2.3,5.4-4.3,6.4-4.3c3.3,0,3.2-5-0.3-9.8l-3.2-4.4
		l-1.2,2.9c-0.6,1.5-3.9,6.1-7.3,10c-4.6,5.5-6.7,7.3-8.6,7.3c-1.9,0-2.4-0.4-2-1.8c0.2-0.9,0.8-5.7,1.2-10.5
		c0.4-5.9,1.2-9.3,2.2-10.4c1.5-1.4,1.4-1.8-1.2-3.9C721.2,370.4,714.3,369.9,715.6,372.7z M766.6,411.7c1.3,5.9,1.3,15.7,0,17
		c-0.3,0.4-0.6,1.7-0.6,3c0,1.5-0.9,2.7-2.5,3.5c-1.6,0.7-3.9,3.7-6.1,7.8c-4.3,8.2-8.7,13.6-12.7,15.6c-4.6,2.3-6.8,5.3-5.4,7.5
		c1.1,1.7,1.3,1.7,4.7-0.3c1.9-1.2,4.5-3.1,5.8-4.2c1.8-1.6,2.5-1.7,3.1-0.8c1.2,1.9,7.4-5.4,11.6-13.8c1.9-3.8,3.4-7.1,3.4-7.2
		c-0.3-0.5,2.2-11,3.8-16.1c1.9-5.8,1.3-13.9-1.8-22.9C764.6,384.7,762.2,392.5,766.6,411.7z"/>
	<path d="M720.1,405c3,0,4,0.6,6.2,3.7c2.4,3.3,2.5,3.9,1.2,5.3c-0.9,0.9-1.5,3.6-1.5,6.1c0,2.6-0.8,5.7-2,7.6
		c-1.8,3-1.8,3.3-0.2,3.3c1.1,0.1,0.8,0.6-1.2,1.7c-2.4,1.2-3.6,1.3-6.7,0.4c-11-3.3-12.7-20-2.6-26.1
		C715.1,405.9,718.1,405,720.1,405z M713.4,412.8c-4.4,2.9-3.5,11.6,1.3,12.8c1.4,0.4,3.7,0.3,5.1-0.2c2.3-0.8,2.5-1.4,2.5-6.3
		c-0.1-3.4-0.6-5.7-1.4-6.2C719.2,411.8,714.9,411.8,713.4,412.8z"/>
	<path d="M174,457.7c6.3,0.5,20.9,3.8,21.9,4.9c0.3,0.4-0.5,0.4-1.9,0.1c-10.6-2.7-17.4-3.1-31-1.8c-19.4,1.7-30.8,5.9-44.8,16.6
		c-4,3-7.6,5.5-8,5.5c-0.3,0,1.4-2.1,3.8-4.6c8.1-8.3,30.3-17.6,48.9-20.3C166,457.6,171,457.4,174,457.7z"/>
	<path d="M182.7,463c1.9,0,17.9,5.3,16.8,5.6c-0.5,0.2-4.8-1-9.5-2.6C185.3,464.4,182,463.1,182.7,463z"/>
	<path d="M201.5,464.8l5.5,2.8c12.6,6.1,28.6,21.6,34.4,33.1c2.8,5.5,1.7,5.1-1.6-0.7c-4-7.1-19.7-22.8-26.8-26.9
		c-3-1.7-6.8-4.3-8.5-5.7L201.5,464.8z"/>
	<path d="M190.3,469.6c10.9,3.7,15.7,6.5,22.2,12.7l6,5.8l-6-3.9c-18.9-12.4-38-17.1-56-13.8c-4.4,0.8-8.2,1.3-8.3,1.1
		c-0.9-0.9,6.9-3.9,11.8-4.6C168.9,465.8,182.7,467,190.3,469.6z"/>
	<path d="M210.9,495.6c10.4,9.4,16,18.1,21.6,33.4c2.5,6.9,2.8,8.7,2.8,21.5c0,13.4-0.2,14.4-3.3,22.9
		c-4.7,12.6-13.5,25.2-22.9,32.8c-8.5,6.9-9.6,7.5-16.1,10.1c-10.2,4-13.8,4.7-24.5,4.7c-8.4,0-11.3-0.5-18.3-2.9
		c-19.9-7-35-21.1-42.7-39.9c-2.8-7-3.2-8.9-4.1-21.2c-0.8-10.7,1.7-27.1,5.4-35.5c8.6-19.6,23.7-33.1,43.2-38.9
		C172.4,476.6,195.5,481.7,210.9,495.6z M169.3,497.2c-0.6,0.7-1.3,6-1.6,11.8c-0.4,5.8-0.9,11.5-1.3,12.7c-0.5,1.7-0.2,2.3,0.9,2.3
		c2.2,0,3.1,1.8,1.7,3.5c-3.1,3.8-9.4-0.2-12.5-8c-0.9-2.2-2.6-6-3.7-8.4l-2.1-4.4l3.2-2.6l3.2-2.6l-5.3,0.4c-3.7,0.2-6.1,1-8.1,2.7
		c-1.6,1.3-3.3,2.4-3.9,2.4c-0.5,0,0.3,1.5,1.9,3.3c1.6,1.9,4.7,7.1,6.9,11.5c2.1,4.5,4.2,8.2,4.7,8.2c0.4,0,0.1-1.4-0.8-3
		c-0.9-1.7-1.1-3-0.6-3c1.2,0,4.1,5.2,4.1,7.3c0,1.7-4.2,5.7-6.1,5.7c-2.4,0-11.3-4.6-13.3-6.9c-1.1-1.1-2.9-2.1-4.2-2.1
		s-2.9-0.9-3.7-2.1c-1.5-2-1.5-2-3.6,0.7c-3.9,4.9-3.1,5.7,11.4,13c11.5,5.8,13.5,7.1,13.5,9.1c0,1.6-0.6,2.3-1.9,2.3
		c-1.1,0-2.3-0.4-2.6-1c-0.4-0.6-1.6-0.3-3.1,0.6c-1.3,0.9-6.6,2.6-11.7,3.8c-8.1,1.9-9.2,2.4-9.5,4.4c-0.5,3,1.4,5.2,4.5,5.2
		c1.4,0,7.1-1.2,12.8-2.7c8.6-2.3,10.7-2.5,12.9-1.5c1.4,0.6,2.6,1.5,2.6,2s-2,3-4.5,5.5c-2.5,2.6-4.5,5.1-4.5,5.5
		c0,0.4-1.6,3.2-3.5,6.2s-3.5,6.4-3.5,7.5c0,2.3,1.7,4.5,3.5,4.5c0.6,0,4.9-5.2,9.5-11.5c4.7-6.3,9.1-11.5,9.8-11.5
		c2.9,0,3.1,4.3,0.9,26.2c-0.2,2,0.1,4.2,0.7,4.8c1.6,1.6,7.3,1.2,8-0.6c0.3-0.9,0.6-6.6,0.6-12.7c0-12.1,1.1-16,4.6-16.5
		c1.8-0.3,2.9,1.2,6.3,8c8,15.6,8.9,16.9,12.4,16.6c5.2-0.5,5.5-2.7,1.3-9.9c-2.1-3.5-5.5-9.1-7.6-12.4s-3.9-6.5-3.9-7.2
		c-0.2-2.8,8.7-3.3,12.6-0.8c1.2,0.8,2.9,1.5,3.8,1.5s3.8,1.2,6.6,2.6c5.6,2.8,7.9,2.2,7.9-2.2c0-1.8-1.1-2.9-5-4.9
		c-2.7-1.4-5.4-3.5-6.1-4.7c-1-1.9-1.3-1.9-2-0.5c-0.9,1.5-1.4,1.4-5.5-0.3c-2.5-1.1-5.2-2-6-2c-1.5,0-1.9-2.7-0.6-4.8
		c0.7-1.1,12.9-4.7,23-7c2.8-0.6,3.6-2.3,2.8-5.6c-0.8-3.3-2.7-3.8-8.3-2.1c-2.6,0.7-7.3,1.8-10.3,2.4c-3,0.6-6.8,1.4-8.4,1.8
		l-2.9,0.6l0.6-4.3c0.5-3.7,1.6-5.4,8.7-12.5c7.3-7.4,8.1-8.5,7.1-10.4c-0.6-1.1-2-2.5-3-3.1c-1.6-0.8-2.8,0.1-7.6,5.8
		c-3.2,3.7-6.3,7.5-6.9,8.4c-1.5,2.5-4.3,2.2-7.3-0.8c-2.4-2.4-2.5-3-1.8-8.7c0.3-3.4,1.1-6.7,1.7-7.4c1.3-1.6,0.3-5.6-1.8-7.7
		C173.5,495.7,170.6,495.5,169.3,497.2z M218.9,565.4c-0.4,5.4-5.5,14.6-12,22.1c-3.2,3.6-15.6,11.8-19.9,13c-1.4,0.4-4.5,1.8-7,3
		c-7.4,3.6-16.3,3.9-26.9,0.9c-1.7-0.5-2.2-0.4-1.7,0.4c0.4,0.7,0.2,1.2-0.5,1.2c-2.1,0-0.4,1,5.2,3c13.7,5,36.9-0.2,49.2-11
		c5.7-5,12.8-14.1,16.3-20.7c2.3-4.5,2.4-5.1,1.1-8.8C221.3,564.5,219.1,562.7,218.9,565.4z"/>
	<path d="M178.5,524.2c2.9,1.3,3,1.7,1.2,4.2c-1,1.3-2,1.6-3.5,1.2c-2.2-0.7-2.7-2.2-1.6-5C175.3,522.7,175.2,522.7,178.5,524.2z"/>
	<path d="M176.8,535.1c0.5,1.1,1.9,2.6,3.2,3.2c3.6,1.8,3.6,5.5,0,12.7c-3.5,6.9-5.8,8.3-13.2,7.9c-2.6-0.2-5,0-5.3,0.3
		c-0.3,0.2,0.6,1.7,1.9,3.1c2,2.2,3.4,2.7,7.3,2.7c3.5,0,4.4,0.3,3.3,1c-2.2,1.4-6.4,1.2-11-0.6c-3.3-1.3-4-2.1-4-4.3
		c0-1.6-1-3.7-2.5-5.1c-3.1-2.9-3.3-8.6-0.6-14.7c2.2-4.8,5.4-7.2,11.9-8.9C173,531.1,175.7,531.9,176.8,535.1z M160,551.1
		c1.6,3.7,3.7,4.9,8.8,4.9c3.3,0,4.5-0.6,7.1-3.5c2.2-2.5,3-4.3,2.7-6c-0.6-3.4-2.4-6.3-4.6-7.5C166.2,534.8,156.7,543.1,160,551.1z
		"/>
	<path d="M137.5,627.4c7.1,4.7,32.2,7.9,43.9,5.7c7.7-1.4,8.5-0.7,0.9,1c-8.9,2-22.4,1.6-32.3-1c-7.6-2-15-5.4-15-6.8
		C135,626,136.1,626.5,137.5,627.4z"/>
	<path d="M773,507.4c0,0.4-15,4.4-32.5,8.6c-7.1,1.8-17.1,4.2-22,5.6c-5,1.3-9.7,2.4-10.5,2.4s-6.9,1.4-13.5,3.1
		c-17.3,4.4-33.3,8.4-46.5,11.5c-6.3,1.4-16.4,3.9-22.3,5.5c-5.9,1.6-11.5,2.9-12.4,2.9c-0.9,0-6.6,1.3-12.7,2.9
		c-6.1,1.7-16,4.2-22.1,5.6c-19.8,4.7-35.8,8.6-47.1,11.6c-6.1,1.6-11.9,2.9-12.8,2.9c-0.9,0-5.8,1.1-10.9,2.4
		c-5,1.4-15,3.9-22.2,5.6c-7.1,1.8-18.2,4.4-24.5,6c-6.3,1.6-16.4,4-22.5,5.5c-6,1.4-16.2,3.9-22.5,5.5s-13.1,3.2-15,3.5
		c-1.9,0.4-7.3,1.7-12,3c-4.7,1.2-13.9,3.5-20.5,5c-6.6,1.5-16.7,4.1-22.5,5.6c-5.8,1.6-11.3,2.9-12.3,2.9c-0.9,0-6.7,1.3-12.9,2.9
		c-10.9,2.9-17.6,4.5-45.3,11.1c-7.1,1.7-17.9,4.4-24,6c-6,1.5-18,4.5-26.5,6.4c-8.5,2-18.9,4.5-23,5.6c-4.1,1-13.3,3.3-20.5,5
		c-19.5,4.7-31,7.5-41,10c-9.5,2.4-24.5,5.9-25.7,5.9c-0.5,0.1-0.8-0.4-0.8-0.9c0-0.6,0.8-1,1.8-1c0.9,0,6.7-1.3,12.7-2.9
		c6.1-1.6,16.9-4.4,24-6.1c7.2-1.7,17.2-4.2,22.2-5.5c5.1-1.4,10-2.5,11-2.5c0.9,0,6.6-1.3,12.7-2.9c10.4-2.8,20.4-5.3,47.1-11.6
		c6.1-1.5,16-4,22.1-5.6c6.1-1.6,11.9-2.9,12.8-2.9c1,0,6.5-1.3,12.4-2.9c5.9-1.6,21.5-5.5,34.7-8.7c13.2-3.1,28.7-6.9,34.5-8.5
		c5.8-1.6,11.5-2.9,12.5-2.9c1.1,0,6-1.1,11-2.4c4.9-1.4,14.6-3.8,21.5-5.5c32.3-7.8,39.1-9.4,47.5-11.7c5-1.3,9.8-2.4,10.8-2.4
		c0.9,0,6.5-1.3,12.4-2.9c5.9-1.6,13.3-3.4,16.3-4.1c3-0.6,8.4-2,12-2.9c3.6-1,11.9-3.1,18.5-4.6s16.9-4.1,22.8-5.6
		c5.9-1.6,11.5-2.9,12.4-2.9c1,0,6.5-1.3,12.3-2.8c5.8-1.6,15.9-4.1,22.5-5.7c6.6-1.5,15.8-3.8,20.5-5c4.7-1.3,10.8-2.8,13.5-3.3
		c2.8-0.5,10-2.2,16-3.7c19.1-4.8,29.6-7.4,43-10.6c7.2-1.7,18-4.3,24-5.8c6.1-1.6,16.4-4.1,23-5.6s16.5-4,22-5.5
		C765.4,507.5,773,506.3,773,507.4z"/>
	<path d="M767.9,515.6c1,0.8-1.5,2.4-4.7,3c-2,0.3-8,1.6-13.2,2.9c-5.2,1.3-15.3,3.7-22.5,5.5c-7.1,1.7-18,4.4-24.1,6.1
		c-6.1,1.6-11.8,2.9-12.8,2.9c-0.9,0-5.8,1.1-10.9,2.4c-5,1.4-15,3.9-22.2,5.6c-7.1,1.7-17,4.2-22,5.5c-4.9,1.2-10.6,2.6-12.5,2.9
		c-1.9,0.4-7.8,1.8-13,3.1c-5.2,1.3-15.3,3.8-22.5,5.5c-7.1,1.8-18.2,4.5-24.5,6c-6.3,1.6-16.7,4.1-23,5.6s-16.4,4-22.3,5.6
		c-5.9,1.5-11.5,2.8-12.4,2.8c-1,0-6.5,1.3-12.3,2.8c-5.8,1.6-15.9,4.1-22.5,5.7c-6.6,1.5-15.8,3.8-20.5,5
		c-4.7,1.3-10.7,2.8-13.5,3.3c-2.7,0.5-9.9,2.2-16,3.7c-18.9,4.7-29.5,7.4-43,10.6c-7.1,1.7-18.2,4.4-24.5,6
		c-6.3,1.6-17.3,4.2-24.5,5.9c-7.1,1.7-17.3,4.1-22.5,5.5c-5.2,1.3-15.3,3.8-22.5,5.5c-7.1,1.7-17.2,4.2-22.2,5.5
		c-5.1,1.4-10,2.5-11,2.5c-0.9,0-6.6,1.3-12.7,2.9c-10.7,2.9-23.6,6.1-47.1,11.6c-6,1.5-15.3,3.7-20.5,5.1
		c-16.9,4.2-30.5,7.4-32,7.4c-3.3,0,1-2.1,7.1-3.4c6.2-1.4,16.2-3.8,39.9-9.7c6.3-1.5,16.5-4,22.5-5.4c6.1-1.5,16.2-4,22.5-5.5
		c6.3-1.6,17.4-4.3,24.5-6c7.2-1.7,17.3-4.2,22.5-5.5s10.9-2.6,12.5-3c1.7-0.3,7.3-1.6,12.5-3c5.2-1.3,15.4-3.8,22.5-5.5
		c7.2-1.7,17.1-4.2,22-5.6c5-1.3,9.8-2.4,10.8-2.4c0.9,0,6.7-1.3,12.9-2.9c19.1-5,34.6-8.8,52.3-13c20.4-4.9,26.6-6.4,41-10.1
		c6.1-1.5,12.8-3.1,15-3.5c2.2-0.3,7.2-1.5,11-2.5c3.9-1.1,12.9-3.3,20-5c7.2-1.7,18-4.4,24.1-6.1c6.1-1.6,11.8-2.9,12.7-2.9
		c1,0,5.9-1.1,11-2.4c5-1.4,15.1-3.9,22.2-5.6c7.2-1.7,16.2-3.9,20-4.9c3.9-1,9-2.3,11.5-2.9c12-2.8,27.6-6.6,38-9.2
		c14-3.4,33.8-8.2,48-11.6c5.8-1.4,15.5-3.8,21.6-5.5c6.1-1.6,11.8-2.9,12.8-2.9c0.9,0,6.5-1.3,12.4-2.9c5.9-1.6,13.6-3.5,17.2-4.3
		C764.6,516,767.7,515.5,767.9,515.6z"/>
	<path d="M801.1,539.1c2.4-0.4,13.4,2.6,17.9,4.9c3,1.6,8.1,3.7,11.3,4.6c3.1,1,5.7,2.2,5.7,2.6c0,1.3-9,4.9-13.9,5.5
		c-3.7,0.4-7-0.2-15.7-3c-7-2.3-14-3.8-19.7-4.3c-4.8-0.4-8.7-1-8.7-1.5c0-1.6,9.8-6.1,16-7.4C797.6,539.8,800.8,539.1,801.1,539.1z
		 M802,544c-6.7,0-8,1.5-2.2,2.6c2,0.4,5.3,1.5,7.4,2.5c3.4,1.8,14.8,4.1,14.8,3.1c0-1-3.7-3.4-8.8-5.8
		C809.5,544.7,806.2,544,802,544z"/>
	<path d="M760.9,549c3,1.5,1.7,2.4-4.9,3.5c-6.5,1.1-17.5,6.5-30.8,15.2c-17.9,11.8-22,13.2-41,14.3c-16.7,0.9-19.6,1.6-22.5,4.8
		c-1.7,1.9-1.7,2.1,0.8,5.1c5.6,6.6,17.3,7.5,30.5,2.5c8.3-3.2,19.9-8.2,22.5-9.7c1.1-0.6,4.5-2.4,7.5-4c3-1.6,6.2-3.5,7-4.1
		c3.6-2.9,24.3-12.7,33-15.6c8.8-3,10.5-3.3,22.5-3.3c12.5,0,24,1.6,23,3.3c-0.3,0.4-4.7,1.6-9.7,2.5c-15.8,2.9-30.4,10.8-47.3,25.6
		c-10.3,9-28.6,22.1-34.9,24.9c-13.2,6-17.1,6.4-52.6,6.5h-32.5l-5.9,3c-3.2,1.6-6.7,4.3-7.9,5.9c-2,2.8-2,2.9-0.1,4.3
		c3.8,2.8,8.7,3.6,14.7,2.4c3-0.7,6.1-1.9,6.7-2.7c1.4-1.6,4-1.9,4-0.3c0,1.5-9.8,11.6-13.4,13.8c-5.2,3.2-12.8,5.2-19.3,5.3
		c-10.5,0-20.5-4.4-31.6-14.1c-2.7-2.3-8.7-6.7-13.4-9.9c-19.3-13-26.6-14.6-41.6-9.4c-8.8,3.1-15.7,7.5-17.9,11.5
		c-0.7,1.2-1.7,4.7-2.4,7.7l-1.1,5.5l-1.8-4c-2.6-5.7-2.5-15.7,0.3-21.8c2.5-5.5,9.3-12.5,16-16.2c4.9-2.8,10.3-4.5,23-7.1
		c4.2-0.9,9.7-2.3,12.2-3.1c6.4-2.2,17.2-8.7,23-13.8c4.9-4.3,9.9-6.5,15.3-6.5c3.6,0,3.4,1-0.8,3.8c-3.7,2.3-4.5,4.9-2,5.8
		c2.7,1.1,6.2-0.5,12.8-5.5c3.5-2.7,8.2-5.8,10.5-7c4.5-2.3,13.1-4.3,14.5-3.4c0.5,0.3-1.4,2-4.1,3.8c-5.6,3.8-12.2,11.1-12.2,13.5
		c0,0.9-2,3.5-4.4,5.9c-3.5,3.4-6.2,4.9-13.1,7.2c-11.8,3.8-14.4,6.2-10.8,10.1c2.9,3.3,13.8,2,24.2-2.9c4.5-2.1,9.6-6.7,26.6-24
		c11.6-11.8,22.4-22.3,24.1-23.4c1.7-1,6.6-3,10.8-4.4c8.6-2.8,21.4-3.3,27.5-1.1c3.8,1.3,3.5,1.7-2,3.5c-2,0.6-4.5,2.1-5.4,3.2
		c-1.8,1.9-1.8,2,0.1,3.4c3.8,2.9,11.3,1.7,25.4-4c5.4-2.2,21.1-6.9,26-7.9C742.6,546.7,758.5,547.7,760.9,549z M682.8,552.7
		c-0.2-0.1-3.7,0-7.8,0.3c-12.6,0.8-17,3.6-34.5,21.3c-19.6,20-29.4,28.8-35.8,32.3c-4.8,2.6-6.1,2.9-15.3,2.9
		c-8.6,0-10.5-0.3-12.3-1.9c-5.5-5,0.4-13.5,10.8-15.7c6.4-1.3,11.8-3.8,14.2-6.5c1.6-1.9,5.9-9.8,5.9-10.9c0-0.3-1.9,0.7-4.3,2.3
		c-8.1,5.6-14.8,9.2-17.2,9.2c-3.8,0-6-2.8-5.6-7.3c0.1-0.9,0-1.7-0.3-1.7s-3.3,2.5-6.7,5.5c-7.4,6.6-20.1,13.1-28.4,14.6
		c-23.3,4-34.9,9.8-40.7,20.5c-2.8,5.3-4.4,12.4-2.8,12.4c0.6,0,1-0.6,1-1.3c0-1.5,8.5-10,11.6-11.5c3.7-1.9,16.7-4.5,22.9-4.6
		c7.5-0.1,16.9,2.1,21.7,5.1c2.1,1.3,4,2.3,4.3,2.3c0.9,0,8.9,6.4,17.9,14.1c10.4,9.1,16.9,12.1,26.8,12.7c6.4,0.4,9,0,14.1-1.8
		c3.4-1.2,6.6-2.6,7-3c0.5-0.4-2.4-1.3-6.4-2c-5.1-0.9-7.9-1.9-9.6-3.6c-2.8-2.8-2.9-4.7-0.2-9c2.5-4,6.5-6.6,14.6-9.3
		c5.8-1.9,8.5-2.1,36-2.1c32.7,0,40.8-0.8,48.9-4.5c3-1.4,5.6-2.5,5.9-2.5c1.1,0,22.2-15.8,28.2-21.2c12.8-11.3,24.8-19.2,37.3-24.6
		l2.5-1.1h-3c-8.9-0.2-26.5,4.5-36,9.6c-5.8,3-14.1,7.6-21.5,11.8c-29.1,16.5-43.1,20.2-59.3,16c-10.6-2.7-14.1-7.1-11.3-13.9
		c2.3-5.5,8.1-7.1,29.6-8.5c13.6-0.8,14.4-1,21.8-4.7c4.2-2.1,8.4-4.4,9.2-5c0.8-0.7,4.2-2.7,7.5-4.5c7-3.8,16.5-9.8,16.5-10.4
		c0-1-8.7,1.2-20.5,5.2c-17.5,6.1-23.9,7.5-30.3,6.7c-7.5-0.8-10-4.2-7.1-9.6C682.7,553.7,683,552.8,682.8,552.7z"/>
	<path d="M801.3,618.1c4.9-0.4-10.5,22.8-20.9,31.3c-7.9,6.5-23.8,14.9-32.4,17.1c-9.8,2.5-23.9,7-29,9.4
		c-9,4.1-13.5,10.5-11.1,15.7c1.4,3.2,5.5,3.2,15.1-0.1c4-1.4,7.5-2.5,7.7-2.5c1.5,0-4.4,7.4-10.7,13.4
		c-18.4,17.6-35.4,20.7-62,11.2c-6.3-2.3-23.2-5.8-35.5-7.3l-6-0.8l7-4.4c10.4-6.5,15.4-11.1,28.1-25.2
		c31.2-34.7,53.3-45.1,84.6-39.9c19.8,3.3,41.8-2.1,59.3-14.4C798.3,619.7,800.8,618.1,801.3,618.1z M785,635
		c-2.5,1.8-6.4,3.4-16,6.7c-4.8,1.6-16.9,1.9-46,1.2l-16.5-0.3l-7.3,3.2c-4,1.7-10.1,5.3-13.5,7.8c-6.6,5.1-47.7,45.6-47.7,47.1
		c0,1.1,27,9.7,35.7,11.3c11.7,2.3,25.6-1,37.2-8.9l5.4-3.6l-4.6-0.3c-6.3-0.4-10.7-4.4-10.7-9.7c0-3.7,2.5-9,6.3-13.2
		c2.7-3,18.7-9.4,33.2-13.3c12.9-3.5,20.1-6.4,28-11.3c6.6-4.1,14.9-11.1,17.6-14.8C788.7,633.2,788.3,632.6,785,635z"/>
	<path d="M406.4,636.5c3.2,0.8,10.3,4,15.7,7c5.5,3,10.4,5.5,11,5.5c0.5,0,3.1,1.1,5.7,2.5c3.1,1.7,6.3,2.5,9.5,2.5
		c4.3,0,5.3-0.5,9.6-4.5c2.6-2.5,5.1-4.2,5.4-3.8c1.2,1.1,0.7,8-0.8,11.5c-1.5,3.8-6.7,8.8-11.6,11.3c-5.3,2.8-11.8,2.9-23,0.5
		c-5.7-1.3-12.8-2.3-15.8-2.4c-4.6,0-5.6,0.3-7.7,2.7c-3.3,3.9-3.1,7.2,0.9,11.2c7.9,7.9,27,9.7,42.7,4c9.5-3.4,13.7-5.8,29-16.8
		c20.8-14.9,29.6-18.2,46-17.4c10.3,0.5,20.2,3.6,24.7,7.9c3.8,3.5,3,4.8-3.1,4.8c-9.4,0-13.3,6-4.8,7.5c3.1,0.5,7-0.4,19.5-4.4
		c22.8-7.4,30.9-6.8,46,3.5c6.6,4.6,17,15.1,16.1,16.5c-0.2,0.4-3.8-1.3-7.9-3.8c-13.6-8.1-25.2-7.9-43.7,1
		c-30.1,14.4-31.7,14.7-53.2,11.2c-18.5-3-19.7-3-22.6-0.7c-3.2,2.6-1.4,5.5,4.5,7.6c2.5,0.9,6.5,2.3,9,3.2c4.1,1.4,7.1,3.5,17,11.7
		c3.8,3.2,2.5,4.7-1.8,2.2c-4.3-2.5-17.3-2.6-28.1-0.1c-15.2,3.6-32.7,0.9-51-7.8c-20.2-9.6-26.7-11.6-34-10.2
		c-4.3,0.8-6.3,3.8-4.8,7c1.4,3.1,11,6.6,17.8,6.6c4.1,0,5.4,0.4,5.4,1.5c0,0.8-0.5,1.5-1.2,1.5c-0.6,0-2.6,1.1-4.4,2.5
		c-1.8,1.4-4.7,2.8-6.4,3.1c-1.7,0.4-3.3,1.1-3.6,1.5c-0.7,1.1-13.4,1.2-13.4,0.1c0-0.4-2-1.3-4.3-1.9c-3.1-0.9-7.7-4-15.8-10.8
		c-17.9-15-23.2-17.5-31.8-14.9c-5.8,1.7-9.6,5.4-8.6,8.3c0.3,1.2,2.5,3.1,4.7,4.2c4.1,2.1,6.6,2.1,13.8,0.3l2.5-0.7l-2.9,3.1
		c-4.3,4.7-17.5,11.2-22.5,11.2c-2.3,0-4.1,0.4-4.1,1c0,0.5-0.7,1-1.5,1s-1.5-0.5-1.5-1c0-0.6-1.8-1-4.1-1c-4.7,0-13.5-4.3-19.6-9.5
		c-2.1-1.7-7.6-5.8-12.3-9c-4.7-3.2-9.5-6.7-10.7-7.7c-2.8-2.6-8.9-3.9-12.1-2.7c-1.4,0.5-4.1,2.4-6.1,4.1c-1.9,1.7-5.5,4-8,5.1
		c-8.6,3.8-20.9,0.7-28.4-7.1l-2.8-2.9l7.5,0.5c7.5,0.5,7.6,0.4,11-3c2.3-2.3,4.1-5.6,5.5-10.2c5.7-18.4,12.3-27.4,24.1-32.9
		c9-4.1,16.2-4.1,29,0.2c16.6,5.7,25.7,5.2,33.3-1.7c3.9-3.7,3.5-0.8-0.8,5.2c-4.6,6.4-10.8,10.8-18.7,13
		c-18.7,5.4-20.9,6.7-17.4,10.5c1.6,1.8,3.1,2.1,10.2,2.1c7.7,0,8.7-0.3,15.7-3.9c6.8-3.7,12.5-7.4,38.9-25.4
		c11-7.5,14.6-9.5,20.3-11.3C387,634.6,399.4,634.7,406.4,636.5z M393,643.3l-12.5-0.3l-6.6,3.7c-6.7,3.8-19.1,11.8-23.9,15.3
		c-7.5,5.6-22.5,14.3-29.5,17.1c-6.2,2.5-9.9,3.3-16.5,3.7c-8.1,0.4-8.7,0.3-11.7-2.2c-3.9-3.3-4.9-7.3-3-11.9
		c1.2-2.8,2.5-3.9,6.9-5.5c2.9-1.1,7.8-2.5,10.8-3.1c9.4-2,9.1-2.6-3.6-6.6c-15.7-5.1-22.4-5.5-29.7-2.2
		c-7.9,3.6-14.2,9.8-18.2,18.1c-1.9,3.8-3.5,7.7-3.5,8.6c0,4.5-3.4,11.1-8,15.4c-2.7,2.5-5.4,4.6-6,4.6c-0.6,0-0.8,0.4-0.5,1
		c0.3,0.5,3.8,1,7.7,1c7.4,0,9-0.7,16.5-7.1c4.9-4.2,9.8-5.2,14.7-3c4.8,2.1,18.4,11,27.6,18.1c10.8,8.3,14,9.5,25.1,9.4
		c5.7-0.1,10.5-0.7,11.9-1.4l2.5-1.3l-4.1-1.8c-4.4-1.8-7.4-5.2-7.4-8.2c0-6.7,10-15,18-15c7,0,22.5,9,34.7,20.4
		c3.7,3.4,7.8,6.2,10,6.9c4.8,1.3,15.3,2.5,15.3,1.7c0-0.4-1.8-1.6-3.9-2.7c-5.2-2.6-7.1-5.5-7.1-10.5c0-6.9,5.6-10.7,15.9-10.7
		c7.8,0,12.2,1.4,29.6,9.4c18,8.2,22.8,9.8,32,10.5c6.1,0.4,10.6,0,18.5-1.5c5.8-1.2,11.4-2.3,12.5-2.5s-1.6-1.5-6.5-3.1
		c-10.3-3.3-14.4-5.7-15.9-9.5c-1.6-3.7-0.5-7.5,3.2-11.3c3-2.9,3.3-3,9.1-2.3c3.4,0.3,10.4,1.8,15.6,3.1c13,3.4,23.9,4.1,31.6,2
		c3.2-0.9,13.6-5.4,22.9-9.9c16.1-7.8,17.3-8.2,23.7-8.2c3.8,0,6.8-0.1,6.8-0.3s-2.4-1.4-5.2-2.7c-7.5-3.5-17.4-3.5-25.4,0.1
		c-6.5,2.9-13.7,4.8-24.5,6.5c-10.7,1.6-14.3-0.5-14.1-8.5c0.1-3,3.6-7.6,5.9-7.6c0.7,0,1.3-0.4,1.3-0.9s-2.6-1.5-5.7-2.2
		c-10.8-2.2-21.7,0.9-40.3,11.7c-35.9,20.8-42.6,23.6-58,23.7c-14,0.1-28.9-5.3-33.6-12.3c-2.9-4.2-3-6.5-0.4-10.8
		c4-6.6,12.6-7.6,30.3-3.6c10.2,2.3,18.3,1.6,23.4-2.1l4-3h-8.1c-8.2-0.1-13.7-1.7-22.6-6.7c-1.9-1-5.1-2.6-7-3.5
		c-1.9-0.8-5.5-2.5-8-3.6C406.3,644,403.2,643.5,393,643.3z"/>
	<path d="M795.3,667.5c1.8,1.3,1.7,1.4-1.1,2.9c-3.9,2-11.3,10.3-15,16.9c-3.9,6.7-9.2,11.8-16.6,15.6c-5.2,2.8-6.7,3.1-14.5,3.1
		c-7.3,0-9.2-0.4-12.5-2.4l-3.8-2.3l4.6-2.3c3.2-1.5,7.5-5.3,13.3-11.9c11-12.3,15.1-15.8,22.1-18.7
		C778.6,665.6,792.2,665.1,795.3,667.5z M774,673.3c-3.9,1.2-29,25-29,27.5c0,1.2,1,1.4,5.7,0.8c7.6-0.9,11.9-3.1,17.8-9.1
		c4.1-4.2,13.5-18.2,13.5-20C782,671.7,777.8,672.1,774,673.3z"/>
</g>
</svg>
