<?xml version="1.0" encoding="utf-8"?>
<!-- Generator: Adobe Illustrator 21.0.0, SVG Export Plug-In . SVG Version: 6.00 Build 0)  -->
<svg version="1.1" baseProfile="tiny" id="图层_1"
	 xmlns="http://www.w3.org/2000/svg" xmlns:xlink="http://www.w3.org/1999/xlink" x="0px" y="0px" viewBox="0 0 480.2 480.2"
	 xml:space="preserve">
<title>Anime10_13_59</title>
<g>
	<path fill="none" d="M2.8,620.1c-0.2-1.6-1-3.1-2.1-4.3c0.7,1.7,1.4,3.3,2.1,5C2.9,620.6,2.8,620.3,2.8,620.1z"/>
	<path fill="none" d="M0.2,464.1c0.8,0.4,1.4,0.8,1.8,1.1C1.6,464.7,0.9,464.3,0.2,464.1z"/>
	<path fill="none" d="M469.5,36.6c1.6,0.3,3.3,0.6,4.9,0.9C473,36.5,471.3,36.2,469.5,36.6z"/>
	<path fill="none" d="M1.6,458.3c-0.1,0.3-0.3,0.6-0.4,0.9C1.4,459,1.5,458.7,1.6,458.3z"/>
	<path fill="#9FA399" d="M849.9,598.7v1.1c0.2-0.2,0.3-0.4,0.5-0.6V482.4c-0.1-0.1-0.1-0.1-0.2-0.2v0c-11.3-4.4-7.1-16.3-10.1-24.3
		c-4.6-11.5-5.1-24.6-10.1-36.8c-11-26.7-6.7-56.5-16.5-83.9s-20.2-49.9-28.3-75.9c-8.1-26-29.4-39.8-46.2-58.2
		c-16.8-18.4-35.8-34.7-57.9-46.7c-22.1-12-48-24.3-71.2-37.5c-7.8-4.6-14.3-10.1-23.5-13.8c-29.9-11.9-60-22.8-91.9-27.8
		c-35.8-5.7-72.2-10.8-108.3-6.9c-23,2.5-46.4,7.3-69.2,9.7c-22.8,2.5-48.3,9-72.6,12.6c-42.3,6-80.4,20.7-112.9,52.6
		c-21.6,21.1-43.5,41.6-56.5,68c-22.7,46.6-39.8,95.6-47.4,147.5c-2.7,17.7-15.8,33.1-15.4,51.9c0.3,17.8-4.8,31.4-10.6,45.9
		c-0.1,0.3-0.2,0.6-0.4,0.9c-0.2,0.4-0.3,0.9-0.5,1.3l0-0.5c-0.2,0.2-0.3,0.4-0.5,0.5v3.5c0.7,0.2,1.4,0.6,1.8,1.1
		c0.9,0.8,1.1,1.5,0.7,2.3c-0.1,1.3-1,2.4-2.3,2.8V615c0.1,0.3,0.2,0.5,0.4,0.8c1.2,1.1,1.9,2.6,2.1,4.3c0,0.2,0,0.5,0,0.7
		c4.8,11.5,9.1,23.3,15.6,33.8c15.4,25.1,30.1,50.3,54.9,68.7c30.1,22.9,63.3,41.5,98.6,55.1C210.8,793,249.2,809,289.6,819
		c40.4,10.1,85.1,18.9,129.9,20.5c29.6,1.1,59.5,6.2,89.4,3.5c41.2-3.7,81.6-14.2,122.3-19.3c45.7-5.8,83-26.4,114.2-54.3
		c42-37.5,75.4-83.7,91.9-139.8c1.9-6.9,5-14.9,12.6-18.8v2.3c0.2-0.5,0.4-1.1,0.5-1.6V608c0,0-0.1-0.1-0.1-0.1
		c-0.2-0.2-0.3-0.3-0.4-0.5v0.1C845.1,604.6,845.1,601.6,849.9,598.7z M808.1,640.6c-16.3,47.1-51.9,82.8-89.6,113.8
		c-43,35.2-95.1,53.1-149.6,64.1c-18.5,4.1-37.2,6.8-56.1,8.1c-34.9,1.1-74.9,3.2-114.9,0.4c-21.6-1.7-42.8-6.7-62.8-15
		c-10.8-4.4-23.4-2.1-35.2-5.5c-60.2-17-118.1-39.5-171.4-71.9c-22.8-13.8-40.5-36.3-56.6-58.8c-16.1-22.5-25.8-44.4-37.4-67.3
		c-4.8-9.2-3.7-21.2-7.1-31.3c-8.2-24.8-12-50.8-11.3-76.8c0.9-23.7,5.8-47.6,11.2-71c14.2-61.2,30.8-122,54.9-180.4
		c16.5-39.7,44.8-69.4,78.4-95.4c27.6-21.4,59.5-35.4,91.3-45.8c35-11.5,73.3-15.2,110.5-18.4c25.1-2.1,51-6.7,76.8,0.9
		c12.7,3.7,27.3,0.7,40.4,3.5c26.2,5.7,53.8,6.2,78.4,19.3c20.4,11,41.8,19.5,62.1,30.3c35.6,18.9,67.1,43.7,95.9,71.9
		s48.7,57.9,60.4,96.3c6,20,17.7,39.3,22.1,60.2c5.5,26.9,7.1,54.5,12.4,81.4c6,29.7,9.9,59.7,14.2,89.7
		C830,578.1,818.7,610,808.1,640.6z"/>
	<path fill="#848580" d="M33.6,220c10.1-20.7,23.4-40,36.6-59.1s32-28.5,47.8-42.7C142,96.6,171.5,88.8,199,76.6
		c23.2-10.4,49.6-13.6,74.7-19.1c25.1-5.5,50.1-12.2,75.6-14.9c32.2-3.4,64.6-6.5,97.2-7.8c8.1-0.3,15.7,0.6,23.1,1.8
		c1.8-0.4,3.5-0.2,4.9,0.9c10.4,1.9,20.6,4.4,31.1,5.3c22.7,1.9,45.1,9.7,67.3,17.5c28.9,10.1,58.9,19.5,82.7,37.4
		c32.9,25,75.1,37.7,101.1,70.6c11,13.8,26.2,22.8,35.6,37.7c2.5,3.9,8.1,5.8,12.7,8.1c32.2,15.6,24.6,52.8,41.4,76.6
		c1.3,2.1,2.5,4.3,3.5,6.5V186.2c-14.3-13.5-26.6-29.4-44.4-38.4c-35.9-17.9-65.5-45.5-102-63c-23.9-11.5-44.3-30.1-66.6-44.6
		c-7.4-4.8-16.6-9.7-25-9.6c-8.3,0.2-14.9-7.6-22.3-9.4c-24.4-6-49.4-9.7-74-14.9c-6-1.2-13.3,1.1-17.6-5.3
		c-0.1-0.1-0.3-0.2-0.4-0.4H382.5c-0.7,0.7-1.4,1.2-2.2,1.6c-11.9,9.4-27.8,6.8-40.4,8c-13.5,1.2-27.6,5.3-41.2,7.6
		c-21.4,3.5-42.5,12.2-63.9,12.6c-29.2,0.5-52.6,17.7-78.9,22.7S107.6,71,84.4,80c-15.8,6.2-39.1,13.6-48.3,37.2
		c-4.1,10.4-23.1,6.8-35.6,8.8c0,0.1-0.1,0.1-0.1,0.2V317c10.8-11.7,11.2-27.3,15.4-41.4C21.4,257,25.1,237.4,33.6,220z"/>
	<path fill="#95978D" d="M1.2,459.3c0.1-0.3,0.3-0.6,0.4-0.9c5.8-14.5,10.9-28,10.6-45.9c-0.4-18.8,12.7-34.2,15.4-51.9
		c7.6-51.9,24.8-100.9,47.4-147.5c12.9-26.4,34.9-46.9,56.5-68c32.6-31.9,70.6-46.6,112.9-52.6C268.7,89,294.2,82.5,317,80
		c22.8-2.5,46.2-7.3,69.2-9.7c36.1-3.9,72.6,1.2,108.3,6.9c31.9,5,62,15.9,91.9,27.8c9.2,3.7,15.8,9.2,23.5,13.8
		c23.2,13.3,49,25.5,71.2,37.5c22.1,12,41.1,28.3,57.9,46.7c16.8,18.4,38.1,32.2,46.2,58.2c8.1,26,18.6,48.5,28.3,75.9
		s5.5,57.2,16.5,83.9c5,12.2,5.5,25.3,10.1,36.8c3,8-1.2,19.8,10.1,24.3v0V298.1c-0.1-0.3-0.2-0.5-0.4-0.7c-1-2.2-2.2-4.4-3.5-6.5
		c-16.8-23.9-9.2-61.1-41.4-76.6c-4.6-2.3-10.3-4.2-12.7-8.1c-9.4-14.9-24.6-23.9-35.6-37.7c-26-32.9-68.2-45.7-101.1-70.6
		c-23.7-17.9-53.8-27.3-82.7-37.4c-22.1-7.8-44.6-15.6-67.3-17.5c-10.5-1-20.7-3.4-31.1-5.3c-1.6-0.3-3.3-0.6-4.9-0.9
		c-7.4-1.2-15-2.1-23.1-1.8c-32.6,1.2-65,4.4-97.2,7.8c-25.5,2.7-50.4,9.4-75.6,14.9c-25.1,5.5-51.5,8.7-74.7,19.1
		c-27.4,12.2-57,20-80.9,41.6c-15.8,14.2-34.5,23.5-47.8,42.7S43.7,199.3,33.6,220c-8.5,17.3-12.2,37-17.9,55.6
		c-4.2,14.1-4.6,29.7-15.4,41.4c-0.1,0.1-0.1,0.1-0.2,0.2L0.7,460l0,0.5C0.9,460.1,1.1,459.7,1.2,459.3z"/>
	<path fill="#95978D" d="M837.3,629.6c-16.5,56.1-49.9,102.3-91.9,139.8c-31.2,28-68.5,48.5-114.2,54.3
		c-40.7,5.1-81.1,15.6-122.3,19.3c-29.9,2.7-59.8-2.5-89.4-3.5C374.7,838,330,829.1,289.6,819c-40.4-10.1-78.8-26-117.7-40.7
		c-35.3-13.6-68.5-32.1-98.6-55.1c-24.8-18.4-39.5-43.5-54.9-68.7C12,644.1,7.7,632.3,2.9,620.8c-0.7-1.7-1.4-3.3-2.1-5
		c-0.1-0.3-0.2-0.5-0.4-0.8c-0.1-0.1-0.1-0.3-0.2-0.4c0,36,0.1,71.9,0.2,107.8c0.2,0.3,0.3,0.7,0.5,1c8.7,10.6,27.6,13.6,24.3,32.9
		c7.1,1.2,11.9,6.9,17.7,9.6c32.9,14.5,66,29,99.8,41.2c17.3,6.2,35.8,11.3,52.4,18.1c23.9,9.7,49.9,12,72.6,24.6h-0.8
		c0.2,0.1,0.4,0.1,0.6,0.2h417.4c1.1-1,2.3-1.6,3.5-2.1l45.4-29.6c25.7-17.2,50.8-34.5,67.8-61.8c10.4-16.8,23.4-32.2,36.3-47.4
		c5.5-6.6,0.9-18.2,11.4-21.5c0.2-0.2,0.4-0.4,0.6-0.6v-73.8v-2.3C842.2,614.8,839.2,622.7,837.3,629.6z"/>
	<path fill="#747471" d="M515.7,6.4c24.6,5.1,49.6,8.9,74,14.9c7.4,1.8,14,9.6,22.3,9.4c8.3-0.2,17.5,4.8,25,9.6
		c22.3,14.5,42.7,33.1,66.6,44.6c36.5,17.5,66,45.1,102,63c17.9,9,30.1,25,44.4,38.4c0-59.9,0-119.8,0-179.7c0-4.1,0.5-7.6-5.3-6.2
		c0,0,0,0,0,0h0c-3.8,2.3-8.6,2.3-12.4,0h0c0,0,0,0,0,0h-3.5c0,0,0,0,0,0h0C820,3,810.7,3,802.1,0.3h0c0,0,0,0,0,0H497.6
		c0.1,0.2,0.3,0.5,0.4,0.7C502.4,7.4,509.7,5.2,515.7,6.4z M764.7,48.1c0,0.1-0.1,0.2-0.1,0.3c0.1-0.1,0.2-0.2,0.3-0.3
		c6.7-4.6,12.4-12.4,22.1-8.1c13.6,5.8,24.8,13.5,20.4,31.2c-0.4,5.3,1.9,11.4-5.2,14.1l0,0.1l-3.5,1.9
		c-3.2,16.8-17.5,11.9-25.7,9.6c-8.1-2.3-15.2-12-15.9-19.1S748.8,54.2,764.7,48.1z"/>
	<path fill="#747471" d="M36.1,117.2c9.2-23.5,32.6-31,48.3-37.2c23.2-9,45-22,71.3-26.9s49.7-22.1,78.9-22.7
		c21.4-0.4,42.5-9,63.9-12.6c13.6-2.3,27.8-6.4,41.2-7.6c12.6-1.2,28.6,1.4,40.4-8c0.8-0.6,1.5-1.2,2.2-1.9L7.4,0.2
		c-6,0-7.3,1.2-7.3,7.3C0.5,46.9,0.4,86.5,0.4,126c0,0,0.1,0,0.1,0C13.1,123.9,32.1,127.6,36.1,117.2z M243.6,22.8
		c0.5-0.2,1.8,0.7,3.2,1.4c-0.9,0.9-1.2,1.9-1.8,1.9c-1-0.2-1.9-0.6-2.8-1.1C242.7,24.4,243,23,243.6,22.8z"/>
	<path fill="#848580" d="M195.1,825.2c-16.6-6.7-35-11.9-52.4-18.1c-33.8-12.2-66.9-26.7-99.8-41.2c-5.8-2.7-10.6-8.3-17.7-9.6
		c3.3-19.3-15.6-22.3-24.3-32.9c-0.2-0.3-0.5-0.6-0.7-0.9c0,40.4,0.2,80.7-0.2,120.9c0,5.3,1.1,6.4,6.4,6.4h260.5h0.8
		C245,837.3,219,835,195.1,825.2z"/>
	<path fill="#848580" d="M837.8,709.1c-12.9,15.2-25.8,30.6-36.3,47.4c-17,27.3-42.1,44.6-67.8,61.8L688.4,848l-3.1,2.1h122.1
		c8.7-16.1,27.1-25,32.7-43.4c0.4-1.2,6.4-0.5,9.7-0.9v0.3c0.1,0,0.1-0.1,0.2-0.1V687.3c-0.3,0.1-0.5,0.2-0.8,0.2
		C838.8,690.9,843.4,702.5,837.8,709.1z"/>
	<path fill="#747471" d="M840.1,806.7c-5.7,18.4-24.1,27.3-32.7,43.4c42.5,0,42.5,0,42.5-42.5v-1.4v-0.3
		C846.5,806.1,840.5,805.4,840.1,806.7z"/>
	<path fill="#848580" d="M828.6,0.3L828.6,0.3h-26.6h0C810.7,3,820,3,828.6,0.3z"/>
	<path fill="#95978D" d="M849.9,598.7c-4.7,3-4.7,5.9,0,8.9v-0.1v-7.7V598.7z"/>
	<path fill="#848580" d="M844.5,0.3L844.5,0.3h-12.4h0C836,2.6,840.7,2.6,844.5,0.3z"/>
	<path fill="#95978D" d="M2,465.3c-0.4-0.4-1.1-0.8-1.8-1.1v5.3c1.3-0.6,2.1-1.3,2.5-1.9C3.1,466.8,2.9,466,2,465.3z"/>
	<path fill="#A8AC9F" d="M810.9,453.1c-5.3-26.9-6.9-54.5-12.4-81.4c-4.4-20.9-16.1-40.2-22.1-60.2c-11.7-38.4-31.5-68.2-60.4-96.3
		s-60.4-52.9-95.9-71.9c-20.4-10.8-41.8-19.3-62.1-30.3c-24.6-13.1-52.2-13.6-78.4-19.3c-13.1-2.8-27.6,0.2-40.4-3.5
		c-25.8-7.6-51.7-3-76.8-0.9c-37.2,3.2-75.4,6.9-110.5,18.4c-31.9,10.4-63.7,24.4-91.3,45.8c-33.6,26-62,55.8-78.4,95.4
		c-24.1,58.4-40.7,119.1-54.9,180.4c-5.3,23.4-10.3,47.3-11.2,71c-0.7,26.1,3.1,52.1,11.3,76.8c3.4,10.1,2.3,22.1,7.1,31.3
		c11.5,22.8,21.2,44.8,37.4,67.3c16.1,22.5,33.8,45,56.6,58.8c53.3,32.4,111.2,54.9,171.4,71.9c11.9,3.4,24.4,1.1,35.2,5.5
		c20,8.3,41.2,13.4,62.8,15c40,2.8,80,0.7,114.9-0.4c18.9-1.3,37.6-4.1,56.1-8.1c54.5-11,106.6-28.9,149.6-64.1
		c37.7-31,73.3-66.7,89.6-113.8c10.6-30.6,22-62.5,17-97.7C820.8,512.8,816.9,482.9,810.9,453.1z M804.7,584.1
		c-4.4,15.6-7.4,31.2-14,46.4c-23.7,55.6-60.9,97.5-112.9,128.7c-37.5,22.5-78.2,36.5-119.7,45.3c-41.4,8.9-80.9,8.3-122,4.6
		c-32.7-3-65.9-3-98.2-8.9c-17-3.2-32.2-12-49-16.6c-34-9.4-67.4-20.4-98.8-37.2C133.3,716,90.6,673.2,65.3,613.2
		c-15.4-36.5-15.6-74.3-15.4-112.8c0.4-58.6,13.8-114.5,31.2-169.9c4.4-14,7.3-28.3,12.2-42c9.9-26.7,26-49.4,42.7-72.6
		c16.6-23.2,42.8-41.4,66.4-57.9c41.1-28.7,89.9-40.4,140-44.8c19.8-1.6,39.8-3.7,60-5.8c46-0.9,93.1,1.9,134,20.4
		c47.1,21.2,97.2,38.8,135.9,77.5c31,31,58.4,65,76.6,102.8c18.2,37.9,32,76.8,37,118.4c3.4,29,14.9,56.3,19.3,84.8
		C809,535.1,811.8,559.5,804.7,584.1z"/>
	<path fill="#95978D" d="M766.7,69.6c0.1,0,0.1,0,0.2,0.1c0-0.1,0-0.2,0-0.2h10.3l7.6,1.8c0,0,0,0,0,0c0-0.1,0-0.1,0-0.2
		c3.2-2.1,6.2-4.6,10.3-2.1c4.1,2.5,3.2,5.8,2.1,9.4c-0.1,0-0.1,0.1-0.2,0.1c0.1,0,0.1,0.1,0.2,0.1c5.8,0.9,8.5-2.5,10.3-7.3
		c4.4-17.7-6.7-25.3-20.4-31.2c-9.7-4.2-15.4,3.5-22.1,8.1c-0.1,0.1-0.2,0.2-0.3,0.3C762.3,55.8,758.6,63.1,766.7,69.6z"/>
	<path fill="#9FA399" d="M773,96.8c8.1,2.3,22.5,7.3,25.7-9.6l1.4-4.8l2.1,2.8c7.1-2.7,4.8-8.8,5.2-14.1c-1.8,4.8-4.4,8.1-10.3,7.3
		c-0.1,0-0.1,0-0.2-0.1c-9,6.2-11.7,1.3-12.2-7.2c0,0,0,0,0,0l-7.6-1.8c1.6,3.4,3,6.9-0.7,9.6c-1.8,1.3-4.2,1.8-6.4,1.2
		c-4.9-2.1-3.6-6.5-3.2-10.5c-0.1,0-0.1-0.1-0.2-0.1c-8-6.4-4.4-13.8-2.1-21.1c0-0.1,0.1-0.2,0.1-0.3c-15.9,6-8.3,22.5-7.6,29.6
		S764.9,94.5,773,96.8z"/>
	<polygon fill="#95978D" points="798.7,87.3 802.2,85.3 802.2,85.2 800.1,82.5 	"/>
	<path fill="#848580" d="M245,26.2c0.5,0,0.9-1.1,1.8-1.9c-1.4-0.7-2.7-1.6-3.2-1.4c-0.5,0.2-0.9,1.6-1.4,2.3
		C243,25.6,244,26,245,26.2z"/>
	<path fill="#B4B8A9" d="M786,426.6c-5-41.6-18.8-80.5-37-118.4c-18.2-37.9-45.7-71.9-76.6-102.8c-38.8-38.8-88.9-56.3-135.9-77.5
		c-40.9-18.4-88-21.2-134-20.4c-20.2,2.1-40.2,4.2-60,5.8c-50.1,4.4-99,16.1-140,44.8c-23.5,16.5-49.7,34.7-66.4,57.9
		c-16.6,23.2-32.7,45.8-42.7,72.6c-5,13.6-7.8,28-12.2,42c-17.3,55.4-30.8,111.3-31.2,169.9c-0.2,38.4,0,76.3,15.4,112.8
		c25.3,60,68,102.8,124.8,133.3c31.3,16.8,64.8,27.8,98.8,37.2c16.8,4.6,32,13.5,49,16.6c32.4,5.8,65.5,5.8,98.2,8.9
		c41.1,3.7,80.5,4.2,122-4.6c41.4-8.9,82.1-22.8,119.7-45.3c52-31.2,89.2-73.1,112.9-128.7c6.5-15.2,9.6-30.8,14-46.4
		c7.1-24.6,4.2-49,0.5-72.8C800.8,482.9,789.3,455.6,786,426.6z M770,593.5c-3.7,16.6-8.5,33.6-16.1,48.9
		c-18.1,36.5-47.3,62.5-79.8,86.7c-32.6,24.3-67.4,38.6-105,48.5c-21.2,5.5-43.9,5.3-66,6.7c-22.1,1.4-47.8,5.8-70.8,2.3
		c-26.9-4.1-54.9,1.6-81.1-10.8c-11.5-5.1-26-3.4-46.6-5.5c-9.6-2.8-27.4-6.7-42.3-13.8c-35.6-16.6-74-29.9-102.3-59.1
		c-33.3-34.2-65.5-70.3-73.3-118.8c-6.7-41.8-11.3-84.3-6.5-127.5c3.2-31.6,8.6-62.9,15.9-93.8c3.2-12.9,8.9-25.1,14.2-37.5
		c16.8-39.1,32.9-77.7,64.3-109.6c52.8-53.8,116.8-75.1,189.4-79.5c29.6-1.7,59.2-0.3,88.5,4.2c47.5,7.4,93.2,24,134.4,48.9
		c17.9,10.6,37.7,18.2,54.7,30.3s32.4,25,43.2,41.1c17.9,26.7,38.9,52,49.7,83.2c14.7,42.1,27.4,84.6,31,129.6
		c1.4,17.2,6.9,34,11.3,50.8C783.5,544.7,775.5,569.1,770,593.5z"/>
	<path fill="#747471" d="M795,68.8c-4.1-2.5-7.1,0-10.3,2.1c0,0.1,0,0.1,0,0.2c0.6,8.5,3.2,13.3,12.2,7.2c0.1,0,0.1-0.1,0.2-0.1
		C798.2,74.7,799.1,71.3,795,68.8z"/>
	<path fill="#747471" d="M766.8,69.6c-0.4,4-1.6,8.5,3.2,10.5c2.2,0.5,4.5,0.1,6.4-1.2c3.7-2.7,2.3-6.2,0.7-9.6h-10.3
		C766.8,69.5,766.8,69.5,766.8,69.6z"/>
	<path fill="#C0C6B1" d="M275.6,473L275.6,473c-0.1,0.3-0.2,0.7-0.4,1C275.4,473.7,275.5,473.4,275.6,473z"/>
	<path fill="#C0C6B1" d="M765.4,468c-3.5-45-16.3-87.4-31-129.6c-10.8-31.2-31.9-56.5-49.7-83.2c-10.8-16.1-26.2-29-43.2-41.1
		s-36.8-19.6-54.7-30.3C545.6,159,500,142.5,452.5,135c-29.3-4.6-58.9-6-88.5-4.2c-72.6,4.4-136.7,25.7-189.4,79.5
		c-31.3,31.9-47.4,70.5-64.3,109.6c-5.3,12.4-11,24.6-14.2,37.5c-7.4,30.9-12.7,62.2-15.9,93.8c-4.8,43.2-0.2,85.7,6.5,127.5
		c7.8,48.5,40,84.6,73.3,118.8c28.3,29.2,66.7,42.5,102.3,59.1c14.9,7.1,32.7,11,42.3,13.8c20.5,2.1,35,0.4,46.6,5.5
		c26.2,12.4,54.2,6.7,81.1,10.8c23,3.5,48.7-0.9,70.8-2.3c22.1-1.4,44.8-1.2,66-6.7c37.5-9.9,72.4-24.3,105-48.5
		c32.6-24.3,61.8-50.3,79.8-86.7c7.6-15.2,12.4-32.2,16.1-48.9c5.5-24.4,13.5-48.9,6.7-74.7C772.3,502,766.8,485.2,765.4,468z
		 M732,545.2c12.4,44.8-17.9,77-37.2,110.1c-13.1,22.5-35.6,42.7-59.7,57.5c-18.2,11.2-38.2,6.4-57.7,5.5c-12.9-0.5-26-2.4-38.7,0.7
		c16.6,2.3,33.3,4.4,49.8,7.2c3.2,0.5,8.5,3.7,8.5,5.8c0.2,5-5.3,4.1-8.9,4.6c-41.1,5.5-82.5,6.5-123.7,8.7
		c-41.2,2.1-78.2-2.5-116.7-11.2c-2.3-0.5-4.2-3.4-6.4-5.1c2.3-1.4,4.8-2.5,7.4-3.4l42.4-8.4c0,0,0-0.1-0.1-0.1
		c-28.9,1.4-58.4-0.9-86.4,4.8c-51,10.6-85.5-15.6-118.4-46.6c-21.8-20.7-42.8-43.2-52.9-72c-17.5-49.9-20.9-101.6-16.5-154.5
		c4.1-48.3,14.7-94.9,33.6-139.3c7.6-17.9,17.9-34.9,28.3-51.5c5.2-8.2,8.6-17.4,9.7-27.1l6.2,11.9l0.7-2.4c0-0.4-0.1-0.7,0-1.1
		c-2.3-10.3-2.1-20.4,2.7-30.1c0.2-0.2,0.3-0.4,0.5-0.5c-0.1,0.1-0.2,0.1-0.3,0.2c6.5-12.9,16.5-12.7,27.8-6.9
		c0.1,0.1,0.1,0.3,0.2,0.4l0-0.4h4.4v0.2h1.4c-3.5-10.1,4.6-11.3,10.6-13.6c33.8-12.2,65.9-29,102.5-32.7c28-2.8,55.9-0.5,83.7,1.8
		c43.9,3.7,85.3,17,125.5,34.3c12.7,5.5,24.5,12.7,36.8,19.2l0.2-0.3l6.9,0.7c1.4,1.2,0.9,2.7,0.5,4.1c0,0,0,0,0,0.1l0,0.1l0-0.1
		c-2.1,8.8,2.2,11.6,10.5,11.3c8.3-0.4,14.7-1.2,21.1,4.1c1.1,0.7,2.2,1.6,3,2.7l4.1,10.8c0,0.1,0,0.1,0,0.2c0,0,0,0,0,0
		c16.5,7.6,21.6,25.5,33.5,37.2c5.3,5.3,12.6,11.1,9.1,20.7l2.9,5.9c0,0.1,0,0.2,0,0.3c0.1,0,0.1-0.1,0.2-0.1
		c8.7,1.2,8.7,9.2,11.7,14.9c20.5,36.9,33.6,77.5,38.4,119.5c3.5,32.4,10.1,66-1.2,98.8C731.7,542.8,731.7,544,732,545.2z"/>
	<path fill="#D3D8BC" d="M204.5,647.1c0.2,0.7,0.4,1.3,0.8,2L204.5,647.1z"/>
	<path fill="#D3D8BC" d="M733.4,442.9c-4.9-42-17.9-82.6-38.4-119.5c-3-5.7-3-13.6-11.7-14.9c-0.1,0-0.1,0.1-0.2,0.1
		c2.5,27.2,9,54,12.7,80.6c2.8,20.5,6.7,43,3,64.1c-2.5,14.5-3.4,26.9,4.4,40.4c1.4,2.5-8.5,11.5-13.3,17.5
		c-11.5,14-12,31.9-17.2,48.1c-1.2,3.9-0.5,8.1-5.5,2.3c-5-5.8-5-2.3-5.3,2.1c-1.2,14.3-11.3,30.8-19.6,32.9
		c-23.9,5.8-7.3,22.2-12.3,32c0,0.1,0,0.1,0.1,0.2l5.8,12.6c0,0,0,0,0,0c1.8,3.4,1.2,5.7-2.8,6.4c-4.1,0.7-6.2-1.1-6.2-5.3v0.4
		l-1.8-1.8h0l1.8,1.8l-1.8-1.8c-14.9,5.6-23,21.5-36.9,27c-33.3,13.3-63.5,32.7-102.3,33.1c-38.8,0.4-73.5,6-109.2,1.9
		c-22.7-2.7-46.9-1.6-69.9-13.8c-15.6-8.1-37.4-8.9-48.7-23.7s-25-16.5-33.1-30.1c-3.7-6.2-7.6-0.9-9,4.4c-0.5,1.8-2.7,3.2-4.1,4.8
		c-0.9-1.4-2.7-3-2.5-4.1c7.8-32.4-11.5-29.4-31.9-24.7l-0.3,0.2c-27.8,0.5-32.9-13.8-17.7-49.7c0.1-0.1,0.3-0.3,0.4-0.4
		c4.9-39.3-8.4-78-5.7-116.8c2.1-30.6,5-62,15.2-91.5s18.8-58.4,37.5-83.6c1-2,0.1-5.3-1.3-9c-1.8-2.8-3.2-5.9-3.8-9.4
		c0.1-0.4,0-0.7-0.2-1.1c-0.3-0.2-0.5-0.3-0.8-0.5c-2.2-1-2.3-2.9-2-4.8c-0.1-0.3-0.1-0.7-0.2-1l-1.1-4.2c-0.1-0.1-0.2-0.3-0.3-0.4
		l-2.3-0.8l-6.2-11.9c-1.2,9.6-4.5,18.9-9.7,27.1c-10.4,16.6-20.7,33.6-28.3,51.5c-18.9,44.4-29.6,91-33.6,139.3
		c-4.4,52.9-1.1,104.6,16.5,154.5c10.1,28.9,31.2,51.3,52.9,72c32.9,31,67.4,57.2,118.4,46.6c28-5.7,57.5-3.4,86.4-4.8
		c0,0,0,0.1,0.1,0.1l0.5-0.1l19.5-1.6c-0.1-0.1-0.2-0.1-0.3-0.2c4.4-2.6,9.8-2.6,14.2,0c-0.1,0.1-0.2,0.1-0.3,0.2c0.2,0,0.4,0,0.7,0
		h7.1c0.2,0,0.4,0,0.6,0l-0.9-0.2c3.5-2.3,6.5-2.7,9,1.6h3.4c0,0,0,0,0,0l0,0c1.9-4.1,5.5-3.4,9-3.2l-4.3,1.5
		c1.5-0.1,3.1-0.3,4.3-1.5h3.4l2.6,1.5c1.1,0.4,2.1,0.8,2.9,1.7h14c1.7-3.5,3.5-3.5,5.2-0.2c0.1,0.1,0.2,0.1,0.3,0.2l56.6,1.9
		c0.1,0,0.2,0,0.3,0c12.7-3.1,25.8-1.3,38.7-0.7c19.5,0.9,39.5,5.7,57.7-5.5c24.1-14.9,46.6-35,59.7-57.5
		c19.3-33.1,49.6-65.3,37.2-110.1c-0.3-1.2-0.2-2.4,0.2-3.5C743.5,508.9,736.9,475.3,733.4,442.9z M197.7,653.5
		c-4.8-4.6-7.8-6.2-4.6-11.7c3.2-5.5,5-4.8,8.5-1.4c0.1,0.1,0.1,0.1,0.2,0.2l0,0l0,0c2.5,2.5,2.3,4.5,2.7,6.5l0.8,2l9.4,7.3h0.4
		c0.2,1.6,0.2,3.3,0.2,5C207.8,662.4,202.5,658.1,197.7,653.5z"/>
	<path fill="#D3D8BC" d="M456.9,713.9c0.7,0.7,1.7,1.1,2.6,1.5L456.9,713.9z"/>
	<path fill="#E8ECC2" d="M571.8,643.6c-0.6,0.7-0.7,1.6-0.9,2.4L571.8,643.6z"/>
	<path fill="#E8ECC2" d="M682.6,457.1c0-1.1,0-2.2-0.2-3.3L682.6,457.1z"/>
	<path fill="#E8ECC2" d="M647.7,306.9C647.7,306.9,647.7,306.9,647.7,306.9l-4.2,9.5c0.1,0.1,0.1,0.1,0.2,0.2l8.1,34.5c0,0,0,0,0,0
		l0-0.2l12.6-20c0.1,0,0.2,0.1,0.4,0.1c5-0.6,10.4-6.7,15,0.6l0.7,1.8c0,0,0,0,0,0c0.2,14.2,11.9,28.5-1.1,42.1
		c-0.7,0.5-1.4,1-1.9,0.6l-4.3,1.3l0,0l-7.6,0.9c-0.1,0-0.1,0-0.2,0v3.6c0.2,0.2,0.4,0.3,0.5,0.5c3.5,3.3,5.4,8.8,11.5,7.8
		c0,0,0,0,0-0.1l8.3-4.1c0.1-0.1,0.1-0.1,0.2-0.1c-0.1-3.4,0.7-6.7,5-6.1c1.4,0.2,3.4,3.9,3.4,6c0,7.8,1.8,16.1-5.5,22.3
		c-1,0.1-2.1,0.1-3.1,0h-2.9l0.1-0.3l-0.4,0.3c-5-0.4-4.2,3.5-4.8,6.4l-0.4,0.9l-6.2,14.4c-0.5,1.2-0.9,2.4-1.4,3.7
		c-5.3,18.6-18.4,31.9-31.5,45c-0.1,0.1-0.1,0.1-0.2,0.2l3.5,7.8l0,0.2c16.4,14.6,23.9,30.4,6.4,49.4c0,0,0,0,0,0v2.1l-0.4,1.2
		l-0.1,4.9l-0.1-0.3c0,0.2,0.1,0.3,0.1,0.5l5.7,5.1c0.1,0,0.2,0.1,0.2,0.1l-0.2-0.3l0.2,0.3c0.5,0.3,0.7,0.8,0.9,1.3l0.8,1.1
		l-0.8-1.1c0.2,0.5,0.4,0.9,0.8,1.2c5.5,18.5-4.6,27.9-24.5,23.2c-8.7,13.6-23,5.3-34.3,7.9c-20.7,5-42.5,6.2-64.1,6.7
		c-21.6,0.5-21.8,6.7-9.9,20.9l24.6,29.7c3.7,4.4,7.6,5.8,10.6-0.9s2.3-10.3,8.9-8.7c6.5,1.6,5.5,7.3,5.7,12l0,0l0,0
		c0,0.1,0,0.1,0,0.2c0,0-0.1,0.1-0.1,0.2l-0.9,2.4c0,0.2-0.1,0.4-0.2,0.6c-2.8,7.1-5.1,18.1-12.6,17.5c-12.9-0.9-18.6-14.5-27.1-23
		c-1.2-0.6-2.1-1.7-2.4-3c-0.6,0.1-0.8-0.3-0.6-1.2l-9.4-13.5c0,0,0,0,0.1,0l-18.1-23c-15.4,15.8-30.6,28.1-49,1.9
		c-2.5-3.5-12.9-2.5-15.8,6.5c-3.5,11.9-7.4,23.5-11.2,35.2l-0.5,0.4h0.5c-4.6,10.8-8.7,21.6-14,32c-3.5,6.9-9.9,6.4-14.7,1.4
		c-4.8-5-17.9-13.1-13.3-25.1c1.6-4.4,8.3-1.8,11,2.1c8.3,12.2,11.7,5.1,14.9-3.4c3.2-8.5,8-22,12-32.9c0.1,0,0.2,0.1,0.3,0.1
		c-0.1-0.2-0.2-0.3-0.3-0.5c5.3-12.2,0-13.5-10.8-11.2c-28,5.8-56.1,11-84.1,16.5c-1.4,0.7-3.2,0-4.6,1.1l-55.1,10.6
		c-0.4-0.5-1.2-0.7-1.8-0.4c-10.6-3.7-19.3-8.1-32.7-5.8c-18.2,3-14.7-15.2-13.8-27.6c-0.1,0.1-0.2,0.2-0.4,0.3l-36.2,11.1
		c0,0-0.1,0.1-0.1,0.1l-3.6,2.9c20.4-4.7,39.7-7.7,31.9,24.7c-0.2,1.1,1.6,2.7,2.5,4.1c1.4-1.6,3.5-3,4.1-4.8
		c1.4-5.3,5.3-10.6,9-4.4c8.1,13.6,21.8,15.2,33.1,30.1s33.1,15.6,48.7,23.7c23,12.2,47.3,11.2,69.9,13.8
		c35.8,4.1,70.5-1.6,109.2-1.9c38.8-0.4,69-19.8,102.3-33.1c13.9-5.5,22-21.4,36.9-27L625,641l0.1,0.1h0L625,641l0.4,0
		c-2.5-6.9-5.3-13.6-7.1-20.5c-0.9-3.7-2.8-9.9,3.9-10.4c6.7-0.5,4.4,5.3,5.1,9c0.7,3.6,1.9,6.6,2.8,9.7c4.9-9.8-11.6-26.2,12.3-32
		c8.3-2.1,18.4-18.6,19.6-32.9c0.4-4.4,0.4-8,5.3-2.1c5,5.8,4.2,1.6,5.5-2.3c5.1-16.3,5.7-34.2,17.2-48.1c4.8-6,14.7-15,13.3-17.5
		c-7.8-13.5-6.9-25.8-4.4-40.4c3.7-21.1-0.2-43.5-3-64.1c-3.7-26.6-10.2-53.5-12.7-80.6c0-0.1,0-0.2,0-0.3l-2.9-5.9
		c0,0.1,0,0.1-0.1,0.2L647.7,306.9z M337.2,657.4c1.9-5.8,4.7-11.3,8.1-16.3c0.9-1.1,2.8,3.4,2.3,6.9c-2.5,4.1,2.7,12.7-7.1,13.8
		C339.5,662,336.7,658.3,337.2,657.4z M325.5,624l-4.6,1.1L325.5,624z M265.7,635.7l-1.8-0.4L265.7,635.7z M677.6,415.3l0.4-0.4
		c0,0.3-0.1,0.6-0.4,0.9V415.3z M678,498.5c1.4-2.8,4.4-5,5.7-7.8c1.4-4,2.4-8.2,3.2-12.4c-0.7-0.9-0.8-1.9-0.7-2.9l-1-4.2l0,0
		c-0.7-1.1-0.4-2.8-1.9-3.5c-1.1-3.4-0.5-7-0.5-10.5l-0.2-3.3c2.3-5,3-14.2,10.1-11.5c7.1,2.7-1.6,8.5-1.4,12.9
		c0.2,4.4,0.2,10.1,1.8,14.5c2.7,7.8,3.7,15.4,1.1,23.2c-2.7,7.8-3.5,13.1-9.9,14.5C677.6,508.9,674.8,504.7,678,498.5z
		 M683.1,467.8l1.9,3.5L683.1,467.8z"/>
	<path fill="#E8ECC2" d="M685.1,471.2l1,4.2C686.2,473.9,686.4,472.4,685.1,471.2z"/>
	<path fill="#E8ECC2" d="M184.4,611.2c-1,0.4-2,0.9-3,1.6C182.5,612.3,183.4,611.7,184.4,611.2z"/>
	<path fill="#E8ECC2" d="M673.2,377.6l1.7-1.1C674.2,376.6,673.6,376.9,673.2,377.6z"/>
	<path fill="#E8ECC2" d="M644.9,358.8l1,2.8C645.6,360.6,645.3,359.7,644.9,358.8z"/>
	<path fill="#E8ECC2" d="M229.4,205.3c0.3,0.2,0.5,0.3,0.7,0.5l24.1,14.7c0.9,0.4,1.8,0.9,2.6,1.4l-2.3-1.8l2.3,1.8
		c0.6,0.4,1.2,0.9,1.8,1.4l11.5,8c0,0,0,0,0,0c11.3,2.3,17.9,11.9,26.9,17.9c4.4,2.8,8.9,6.9,15,5.7l2.7-3.2c0-0.1,0-0.2,0-0.4
		c8.7-15.8,19.1-30.3,34.2-40.9c0,0.1,0,0.1,0,0.2l24.6-15.4c0.1-0.1,0.2-0.2,0.3-0.3l-0.3,0.1l0.3-0.1c0.5-0.4,1.1-0.6,1.7-0.6
		l3.8-1.4l-3.8,1.4c1.4-0.2,2.9,0.1,3.8-1.2l1.2-0.2c0.2-0.2,0.4-0.3,0.6-0.5c5.1-2.1,10.4-5.8,14.2,2.1c0,0.2,0,0.3,0.1,0.5
		c0,0,0.1-0.1,0.1-0.1c3.9,3.9,11.5,2,13.4,8.9c0.1,0,0.2,0,0.2,0l1.8,0.9c0.9,0,1.1,0.4,1.1,1.1l0.4,0.5c5.8,2.8,6,8.1,6,13.5
		c-0.1,0-0.2,0.1-0.3,0.1l0.1,0.1l0.4,4.8c4.8,6.7,1.1,13.3-0.2,19.8l0-0.2l-3.7,14.5c-0.1,0.1-0.1,0.2-0.2,0.3
		c0.1,0.1,0.3,0.1,0.4,0.2c0,3.2-2.8,6.5,3.9,8c16.9,3.2,26.9,15.4,34.3,30.1c0,0,0,0,0,0h12.2c0.1-0.2,0.3-0.3,0.4-0.4
		c6.5-20.2,21-24.7,36.9-11.1c17.2-0.9,27.4,13.1,41.4,19.3c17.4-2.2,26.1,7.7,30.7,22.5c4.6,14.9,13.3,25.8,31.3,27.1
		c5.8,0.4,12.7,6.5,16.5,11.9c9.7,13.3,10.6,30.4,18.9,45c6,10.5-4.4,19-15.6,23.1c-0.1,0.1-0.1,0.2-0.2,0.3l6.7,19.1l3.6,0.2
		c-0.1,0.2-0.2,0.3-0.3,0.5c0.2-0.1,0.4-0.2,0.7-0.3c17.9-11.2,31.7-42.8,25.8-59.3c-0.1-0.2-0.3-0.3-0.4-0.5l0.1,0.3
		c-12.3,0.2-10.7-8.2-9.9-16.1l-0.5-2.9c-0.1-0.1-0.2-0.2-0.3-0.4c-6-4.4-5.4-11.2-6.4-17.6c0,0,0-0.1,0-0.1l-0.5-3.5
		c0-0.2-0.1-0.4-0.1-0.5c-5.2-5.8-5.4-13.1-6.2-20.4c-0.1-0.2-0.2-0.3-0.3-0.5l-0.4-2.5c-13.1,0.8-16.5-9.6-21.1-18.6v0h0
		c-7.4-10.3-5.5-21.6,0.2-30.4c9.9-15.9-12-17.9-10.8-29.2c-22-1.8-34.5-21.8-54.3-28.3c-5.7-1.9-10.8-4.4-16.8-3.7h0l0.3,9.9l0,0
		l0,0l0,0.2c-0.2,0.5-0.6,0.8-1.1,0.9l-1.7,1.7c-0.2,0.3-0.5,0.5-0.8,0.8l-7.1,7.4c-0.2,0.3-0.4,0.5-0.6,0.8l0.7-0.8l-0.7,0.8
		c-0.7,0.9-1.4,1.6-2.2,2.3l-0.6,0.6l0.6-0.6c-0.2,0.2-0.5,0.4-0.8,0.6c-17.7,16.5-39.1,26.6-61.8,34.5c-7.6,2.7-9.2-2.7-9.2-8.7
		c0.1-24,0.2-47.9,0.2-71.9c-13.9,11.5-28.9,1.4-37.4-5.1c-19.1-14.7-36.5-6.4-52.9-0.4c-11.3,4.1-22,8-33.8,9.4
		c-7.3,0.9-15.4,1.8-21.2,5.7c-23.7,15.6-45.7,13.6-67.1-4.1c-0.1-0.2-0.3-0.5-0.4-0.7l-1.7-1.4h-2.8h-1.4v3.2H229.4z"/>
	<path fill="#E8ECC2" d="M540.8,305.9c0.9-0.1,1.8-0.3,2.7-0.6L540.8,305.9z"/>
	<path fill="#E8ECC2" d="M235.1,202.1l1.7,1.4C236.3,203,235.8,202.5,235.1,202.1z"/>
	<path fill="#D3D8BC" d="M236.8,203.6l0.4,0.3L236.8,203.6c0.2,0.2,0.3,0.5,0.4,0.7c21.4,17.7,43.4,19.6,67.1,4.1
		c5.8-3.9,14-4.8,21.2-5.7c11.9-1.4,22.5-5.3,33.8-9.4c16.5-6,33.8-14.3,52.9,0.4c8.5,6.5,23.4,16.5,37.4,5.1c0-0.1,0-0.2,0-0.3
		c5-2.3,2.8-7.1,3.7-10.8c3.1-1.4,6.1-1.9,9.1-1.8c16.3-1.9,31.3,3.1,45.2,12.1c7.4,4.8,13.5,12,20.2,18.2l3.4,3.5c0,0,0,0,0,0
		l3,0.5c6-0.7,11.2,1.8,16.8,3.7c19.8,6.5,32.4,26.6,54.3,28.3c-1.2,11.3,20.7,13.3,10.8,29.2c-5.7,8.9-7.6,20.2-0.2,30.4h0
		c-3-25.3,9.6-42.5,31.3-42.5c1.9,0,8.9-2.8,4.2,4.2c-0.1,0-0.1,0-0.2,0c0,7.7,1.4,15.6-3.9,22.5c-0.1,0.6-0.2,1.1-0.4,1.7
		c0.2-0.3,0.4-0.6,0.5-0.8l0.1-0.6c0,0.2,0,0.4-0.1,0.6l-0.7,7.9c0,0-0.1,0-0.1-0.1l0.8,2l-0.1,0.1c0,0,0,0,0.1,0l32.4-4.2
		c0-0.1,0-0.1,0.1-0.2c3.5-9.6-3.8-15.4-9.1-20.7c-11.9-11.7-17-29.6-33.5-37.2c0,0,0,0,0,0c-0.5,4.5-1.3,8.7-7.4,8.5
		c-6.2-0.2-6.9-3.4-7.1-8.1c-0.2-4.8-5.5-8.3-11-9c-9.2-1.4-18.1-3.4-22.3-13.3v0.2c-2.6-2.6-2.7-6.7-0.2-9.4
		c0.1-0.1,0.1-0.3,0.2-0.4l1.6-2.1c-12.3-6.5-24.1-13.7-36.8-19.2c-40.2-17.3-81.6-30.6-125.5-34.3c-27.8-2.3-55.8-4.6-83.7-1.8
		c-36.6,3.7-68.7,20.5-102.5,32.7c-6,2.3-14.2,3.5-10.6,13.6h2.8C235.8,202.5,236.3,203,236.8,203.6z M313.7,199.8
		c0.2,0.2,0.4,0.5,0.4,0.7h-0.7c-0.2,0-0.2-0.4-0.4-0.7H313.7z"/>
	<path fill="#E8B919" d="M197.9,243.9l-0.7-0.2c0.1,0.1,0.2,0.3,0.3,0.4l1.1,4.2c0.1,0.3,0.1,0.7,0.2,1c0-0.4,0.1-0.8,0.2-1.2l3,6.4
		c-0.4-0.1-0.8-0.2-1.1-0.4c0.2,0.2,0.5,0.4,0.8,0.5c0.2,0.3,0.3,0.7,0.2,1.1c0.6,3.5,2,6.6,3.8,9.4c-1.2-3.2-2.7-6.7-3.5-9.6
		l10.1,15.6c0,0,0,0,0.1,0l-0.3-0.4c17.7,0.2,28.1,15.8,43.9,20.5c4.2,1.5,8.8,1.4,12.9-0.4c0.3-0.1,0.7-0.1,1-0.2l31.7-27.8
		c-6.5-14.5-22.5-19.6-31.5-31.7c0,0,0,0,0,0c0,0,0,0,0,0l-11.5-8l-1.8-1.4c-0.8-0.6-1.7-1-2.6-1.4l-24.1-14.7
		c-0.2-0.2-0.5-0.4-0.7-0.5h-2.6c-10-4-19.3-2.7-28,3.4c-0.2,0.2-0.3,0.3-0.5,0.5c-4.8,9.7-5,19.8-2.7,30.1c-0.1,0.4-0.1,0.8,0,1.1
		l0.4-1.3L197.9,243.9z"/>
	<path fill="#E8B919" d="M258.6,223.4c-0.6-0.5-1.2-1-1.8-1.4L258.6,223.4z"/>
	<path fill="#B4B8A9" d="M481.8,717.1c-0.1-0.1-0.2-0.1-0.3-0.2c0,0.1,0.1,0.1,0.1,0.2h-5.3h-14l-2.9-1.7c-0.9-0.4-1.8-0.8-2.6-1.5
		h-3.4c-1.2,1.2-2.7,1.4-4.3,1.5l-4.8,1.7c0,0,0,0,0,0h-3.4l-8.1-1.4c-0.2,0-0.4,0-0.6,0h-7.1c-0.2,0-0.4,0-0.7,0
		c-4.2,2.2-9.3,2.2-13.5,0l-19.5,1.6l-0.5,0.1l-42.4,8.4c-2.6,0.8-5.1,2-7.4,3.4c2.1,1.8,4.1,4.6,6.4,5.1
		c38.4,8.7,75.4,13.3,116.7,11.2c41.2-2.1,82.7-3.2,123.7-8.7c3.5-0.5,9,0.4,8.9-4.6c0-2.1-5.3-5.3-8.5-5.8
		c-16.6-2.8-33.3-4.9-49.8-7.2c-0.1,0-0.2,0-0.3,0L481.8,717.1z M512.3,736.7h-68h-8.9c-8-0.2-21.4,1.2-21.2-5.8s13.1-8.7,21.6-8.1
		c26.4,1.4,52.9-1.6,78.9,4.1c3.4,0.7,6.4,2.8,9.7,4.4C521.5,735.5,517.1,736.7,512.3,736.7z"/>
	<path fill="#B4B8A9" d="M459.5,715.4l2.9,1.7C461.6,716.2,460.5,715.8,459.5,715.4z"/>
	<path fill="#9FA399" d="M589.6,213.5c0,0,0.1-0.1,0.1-0.1c0,0,0,0,0,0v9.4c4.2,9.9,13.1,11.9,22.3,13.3c5.5,0.7,10.8,4.2,11,9
		c0.2,4.8,0.9,8,7.1,8.1c6.1,0.2,6.9-4,7.4-8.5c0-0.1,0-0.1,0-0.2l-4.1-10.8c-0.9-1-1.9-1.9-3-2.7c-6.4-5.3-12.7-4.4-21.1-4.1
		c-8.3,0.4-12.5-2.5-10.5-11.3l-0.5-4l0.5,4c0,0,0,0,0-0.1c0.4-1.4,0.9-2.8-0.5-4.1l-6.9-0.7l-0.2,0.3l-1.6,2.1
		C589.8,213.2,589.7,213.4,589.6,213.5z M633.4,233.6l-3-2.7L633.4,233.6z"/>
	<path fill="#F4C861" d="M226.8,205.3l-0.3-2.9c-0.1-0.1-0.2-0.3-0.2-0.4c-11.3-5.8-21.2-6-27.8,6.9c0.1-0.1,0.2-0.1,0.3-0.2
		C207.5,202.6,216.8,201.3,226.8,205.3z"/>
	<polygon fill="#FBD978" points="226.8,205.3 229.4,205.3 230.8,205.3 230.8,202.1 230.8,202 226.4,202 226.5,202.4 	"/>
	<polygon fill="#FBD978" points="197.9,243.9 196,239.1 195.6,240.4 194.9,242.9 197.2,243.7 	"/>
	
		<line fill="none" stroke="#B4B8A9" stroke-width="0" stroke-linecap="round" stroke-linejoin="round" x1="630.4" y1="231" x2="633.4" y2="233.6"/>
	
		<line fill="none" stroke="#A8AC9F" stroke-width="0" stroke-linecap="round" stroke-linejoin="round" x1="599" y1="215.7" x2="598.5" y2="211.7"/>
	
		<line fill="none" stroke="#A8AC9F" stroke-width="0" stroke-linecap="round" stroke-linejoin="round" x1="599" y1="215.7" x2="599" y2="215.8"/>
	<path fill="#E8ECC2" d="M205.3,577.6C205.3,577.6,205.3,577.7,205.3,577.6l6.7,3.9c0.1-0.1,0.2-0.3,0.3-0.4c0,0,0.1-0.1,0.1-0.1
		c13.2-10.3-3.8-24.1,3.7-35c-3.7,1.6-6.7-0.2-7.4-4.3c-0.7-4.1,1.8-7.3,5.8-8.5c0.2,0.1,0.5,0.2,0.7,0.3c-0.1-0.3-0.2-0.6-0.3-0.9
		l-0.5-4.1c-0.3-0.7-0.5-1.3-0.6-2l0.2,2.4l-0.2-2.4c0,0,0,0,0,0l-0.5-5.9l0.5,5.9c-0.2-2.1,0.2-4.3-0.1-6.3
		c-2.8-11.5-11.7-21.6-7.4-34.5c0.1-0.3,0.1-0.6,0.2-0.9l-0.5,1.3l0.5-1.3c0.2-1.2,0.3-2.5,1.6-3.3c9-12.6-7.1-10.4-9.6-16.3
		l-1.2-1.4v-0.4c-0.8-1-0.8-2.4,0-3.4l-0.5,0.4l0.5-0.4c0,0,0,0,0,0h0l1.1-0.7l-1.1,0.7h0.4l1.6-1.1l-1-7.1
		c-0.3-0.4-0.6-0.7-0.9-1.1l0.7-0.1l0-0.2c0.4,0,0.8,0,1.2,0.1l6.5-1c0,0,0.1-0.1,0.1-0.1l-0.3-0.1l-1.1-3.2l2,2.6
		c-0.2-0.7-0.2-2-1.8-2.4l0.9-6.2c1.9,0.7,4.6,0.9,5.7,2.3c1,1.4,3.9,3.8,6.5,0.8l0-0.2c1.2-2.5,2.4-4.9,3.3-7.2
		c0.2-2.5,1.1-5.3,2.8-8.2c3.1-12.6-1.3-22-23.3-25.8c-12.7-2.3-24.3-13.1-28.3-28c0.4-1.6,0.5-3.3,0.5-5
		c14.9-14.2,34.2-21.2,51.2-32.2c1.1-0.3,2.1-1,2.8-1.9l0,0l-2.8,1.9l2.8-1.9h-0.2c4.5-3.9,9.2-7.5,14-10.9l0-0.1h-0.3
		c0.1-0.1,0.3-0.2,0.4-0.3l2.2-4.2c0-0.1-0.1-0.3-0.1-0.4l-30.6-47.6c0,0,0,0-0.1,0l-10.1-15.6c0.7,2.9,2.3,6.4,3.5,9.6
		c1.4,3.7,2.3,7,1.3,9c-18.8,25.1-27.3,54-37.5,83.6s-13.1,60.9-15.2,91.5c-2.6,38.7,10.7,77.5,5.7,116.8
		C172.3,553.5,189.8,558,205.3,577.6z M197.9,465.7l-1.2-1.4L197.9,465.7z M193.3,525.9c1.9-2.1,3.2-1.2,4.8,0.4
		c2.8,3.5,1.2,6-2.1,7.6c-1.6,0.5-3.3,0.3-4.6-0.7C188.3,530,191.4,528,193.3,525.9z M159.1,443.1v-4.3c0,0.1-0.1,0.2-0.2,0.3
		l-0.4-0.7l0.5-0.5c0,0,0,0,0,0.1c0.6-4.1,3.6-4.8,7.1-4.8c0,0,0,0,0,0l0-0.2c6.5,4.1,3.7,9.2,1.8,14.2l-0.1-1c0,0.4,0,0.8,0.1,1.1
		l1.2,1.6c0.1,0,0.2-0.1,0.3-0.1c5.9-3.9,8.7,0.1,11,5l-0.4-0.2c0.1,0.1,0.1,0.1,0.2,0.2c8,5.3,7.6,13.5,6.5,21.4
		c-0.2,1.8-2.8,4.4-4.2,4.4s-4.6-1.9-6.7-3.2c9.4-18.2-8.7-21.4-16.5-30.1c-0.1-0.1-0.3-0.2-0.4-0.4v0.4l-1.9-1.9L159.1,443.1z"/>
	<path fill="#E8ECC2" d="M207.5,451.1c0-0.1,0-0.1,0.1-0.2l-0.1-0.2L207.5,451.1z"/>
	<path fill="#F4C861" d="M181.2,612.9l-0.3,0.1c0.2-0.1,0.3-0.2,0.5-0.2c1-0.7,2-1.2,3-1.6c12.1-7.6,13.1-23,20.8-33.6l0.2,0.1
		c0,0,0-0.1,0-0.1c-15.6-19.6-33.1-24.1-45.4-11.6c-0.1,0.1-0.3,0.3-0.4,0.4c-15.2,35.9-10.1,50.3,17.7,49.7l0.3-0.2l3.6-2.9
		C181.1,613,181.2,612.9,181.2,612.9z M183.4,583.6c-1.4,0.2-3.5-1.8-3.5-2.7c0-0.9,1.6-3.9,2.8-4.1c1.2-0.2,3.2,1.4,6,3
		C186.2,581.7,184.8,583.4,183.4,583.6z M157.5,585.7c0.2-0.8,0.8-1.4,1.6-1.6c0.4,0,1.4,0.9,1.4,1.4c0,0.5-0.9,1.2-1.6,2.1
		C158.3,586.8,157.4,586.3,157.5,585.7z"/>
	<path fill="#B77D3C" d="M627.3,619c-0.7-3.7,1.6-9.6-5.1-9c-6.7,0.5-4.8,6.7-3.9,10.4c1.8,6.9,4.6,13.6,7.1,20.5l-0.4,0l0.1,0.1
		l1.8,1.8v-0.4c0,0,0,0,0,0l9-1.1c0,0,0,0,0,0c0,0,0,0,0,0l-5.8-12.6c0-0.1,0-0.1-0.1-0.2C629.2,625.6,628,622.6,627.3,619z"/>
	<path fill="#95978D" d="M201.8,640.6l2.7,6.5C204.1,645.2,204.3,643.1,201.8,640.6z"/>
	<path fill="#95978D" d="M214.7,656.4l-9.4-7.3c-0.4-0.7-0.7-1.3-0.8-2l-2.7-6.5c-0.1-0.1-0.1-0.1-0.2-0.2c-3.5-3.4-5.3-4.1-8.5,1.4
		c-3.2,5.5-0.2,7.1,4.6,11.7c4.8,4.6,10.1,8.9,17.5,7.8c0-1.7,0-3.3-0.2-5H214.7z M200.2,650.5l-0.7-0.4c0-0.2,0.4-0.5,0.4-0.7
		l0.7,0.4C200.6,650,200.4,650.3,200.2,650.5z"/>
	<path fill="#E8ECC2" d="M627,642.6C627,642.6,627,642.6,627,642.6c0,4.2,2.1,6,6.2,5.3c4.1-0.7,4.6-3,2.8-6.4c0,0,0,0,0,0
		L627,642.6z"/>
	<path fill="#C0C6B1" d="M424.7,715.6c0.1-0.1,0.2-0.1,0.3-0.2c-4.4-2.6-9.8-2.6-14.2,0c0.1,0.1,0.2,0.1,0.3,0.2
		C415.4,717.9,420.5,717.8,424.7,715.6z"/>
	<path fill="#C0C6B1" d="M453.5,713.9c-3.5-0.2-7.1-0.9-9,3.2l0,0l4.8-1.7L453.5,713.9z"/>
	<path fill="#C0C6B1" d="M432.1,715.5l0.9,0.2l8.1,1.4C438.6,712.8,435.6,713.2,432.1,715.5z"/>
	
		<line fill="none" stroke="#E8ECC2" stroke-width="0" stroke-linecap="round" stroke-linejoin="round" x1="201.8" y1="640.6" x2="204.5" y2="647.1"/>
	
		<line fill="none" stroke="#E8ECC2" stroke-width="0" stroke-linecap="round" stroke-linejoin="round" x1="205.3" y1="649.1" x2="204.5" y2="647.1"/>
	
		<line fill="none" stroke="#E8ECC2" stroke-width="0" stroke-linecap="round" stroke-linejoin="round" x1="201.8" y1="640.6" x2="201.8" y2="640.6"/>
	<path fill="#FBD978" d="M199,248.2c-0.1,0.4-0.1,0.8-0.2,1.2c-0.2,2-0.2,3.9,2,4.8c0.3,0.1,0.7,0.3,1.1,0.4L199,248.2z"/>
	<path fill="#C0C6B1" d="M481.6,716.9c-1.7-3.3-3.5-3.3-5.2,0.2h5.3C481.6,717,481.6,716.9,481.6,716.9z"/>
	
		<line fill="none" stroke="#C0C6B1" stroke-width="0" stroke-linecap="round" stroke-linejoin="round" x1="459.5" y1="715.4" x2="456.9" y2="713.9"/>
	
		<line fill="none" stroke="#C0C6B1" stroke-width="0" stroke-linecap="round" stroke-linejoin="round" x1="459.5" y1="715.4" x2="462.4" y2="717.1"/>
	
		<line fill="none" stroke="#E8ECC2" stroke-width="0" stroke-linecap="round" stroke-linejoin="round" x1="625.1" y1="641.1" x2="627" y2="642.9"/>
	
		<line fill="none" stroke="#E8ECC2" stroke-width="0" stroke-linecap="round" stroke-linejoin="round" x1="625" y1="641" x2="625.1" y2="641.1"/>
	<path fill="#F4C861" d="M608.9,396.9c0-0.1-0.1-0.2-0.1-0.3c-0.1,0.1-0.1,0.2-0.2,0.3c-15.9-10.8-31.3,9.6-45.8,2.1
		c-11.3-5.8-20.2-16.6-30.3-25.1l0.2-0.2c-14.6-7.7-30.2-11.3-46.2-6.4c-10.6,3.4-14.7,13.6-19.3,23.5c-2.7,5.7,4.1,17.9-10.6,16.5
		c-2.8-0.4-3.7,3.7-1.2,6.9c2.5,3.2,7.6,0.2,6.2,5.3c-0.4,1.2-3.4,2.8-5.1,2.7c-4.1-0.2-7.9-2.3-10.3-5.7
		c-7.8-9.7-16.1-18.9-24.8-28c-13.4-13.8-28,0.1-42-1.2c-0.2,0.1-0.3,0.2-0.5,0.3l0-0.2c-0.3,0-0.5,0-0.8,0
		c-19.1,8.1-34.4,18.6-36,42.6c-0.4,5.3-8.9,10.1-16.6,10.4c-14,0.7-27.8,1.8-41.8,3.2c-1.6,0.2-3.5,3.5-3.9,5.5
		c-1.6,11.9-2.7,23.7-4.1,37.4V473c-0.1,0.3-0.2,0.7-0.4,1c0.1-0.3,0.2-0.7,0.4-1.1v-33.4c-7.2,15.8-4.4,32.4-4.6,48.9l0.2-0.1
		l0.7,15.8l-7.4-3.1c0,0,0,0.1-0.1,0.1c-18.8-12.1-37.5-23.9-35.8-50.2c-0.1,0-0.2-0.1-0.3-0.1l-2.1-3.4c-0.2-0.2-0.4-0.4-0.7-0.6
		c-5.4-1.7-5.2,4.2-8.7,8.7c9.4,9.6,9.4,24.6,15.9,36c2.1,3.7,5,7.1,7.4,10.6s-0.7,0,0,0.9c0.5,0.6,0.9,1.1,1.3,1.7l11.8,10.2
		c0.5-0.1,1.1-0.2,1.7-0.2c10.8,4.2,21.8,8.5,32.4,13.1c1.6,0.7,3.7,3.9,3.2,5.1c-7.1,21.6,4.8,41.1,7.4,61.4
		c1.9,14,20.2,6.2,28.9,5.1c36.8-4.8,73.1-13.1,109.8-19.8c8.1-1.6,11.3-5.3,8.5-13.3c-1.1-1-2.4-1.7-3.7-2.3l2.8,2.5
		c-14.5,0.4-27.6-9.9-31.5-18.9c-6.5-15.6-19.5-32.4-9.7-51.9l0,0.2c0,0,0,0,0,0l1.6-5.3v0c-5.1-3.4-3.5-7.8-1.4-11.7
		c3.5-6.7,10.3-10.1,17-8.5c14,3.2,27.9,7.3,41.4,12.2c10.6,3.9,20.9,4.1,30.8-0.7c21.6-10.4,24.6,3.2,24.8,19.3
		c0,6.2-2.5,12.6-4.2,20.4l-2.8-10.6l-10.1,29c0.4,0.6,0.2,1.3-0.4,1.7c0,0-0.1,0-0.1,0.1c-0.2,0.3-0.5,0.5-0.7,0.8l-5.4,14.5
		c0,0.1,0,0.3,0,0.4c3.2,11.3,12,10.4,20.5,9.4c18.6-2.1,38.2-1.4,55.4-7.8c24.3-9,50.6,8.7,73.1-8.5l1.8,1.8l1.1-11.9
		c0,0,0.1,0,0.1,0l-0.1-0.2l2.1-1.9l0,1l0.4-1.2v-2.1c0,0,0,0,0,0c-0.1,0.1-0.1,0.1-0.2,0.2l-3.4-20.7c-1.6-2-2.7-4.2-3.6-6.5
		c-4.9-8.7-10.1-17.2-13.1-26.4c-1.8-5.7,7.1-1.4,10.3-3.9l0,0c0.1-0.1,0.1-0.1,0.2-0.2c13.1-13.1,26.2-26.4,31.5-45
		c0.5-1.2,0.9-2.4,1.4-3.7l-1.6,3.7c2.5-12.7,9.6-24.8,1.8-38.4c-2.6-4.6,4.7-2.5,6.2-4.9c-6.1,0.9-8-4.5-11.5-7.8
		c-0.2-0.2-0.3-0.3-0.5-0.5v0.5h-5.9l0.1,0.2l2.1,11.9c0.1,0.2,0.3,0.3,0.4,0.5c5.8,16.5-8,48.1-25.8,59.3c-0.2,0.1-0.4,0.2-0.7,0.3
		c-1.3,1.8-2.6,1.7-3.6-0.6l0.3,0l-6.7-19.1c0.1-0.1,0.1-0.2,0.2-0.3c-0.3,0.1-0.6,0.2-0.9,0.3L608.9,396.9z M341.6,440.6l0.7,0.4
		c0,0.2-0.2,0.4-0.4,0.7l-0.7-0.4C341.3,441.1,341.5,440.8,341.6,440.6z M435.1,451.2c-0.4,3.4,0,7.9-5.1,9.2l0,0.2l-15.8-3.4
		l0.1-0.2c0,0,0,0-0.1,0l-7.4,1.1c-0.2,0.1-0.5,0.1-0.7,0.2l0.9,0l-3.2,2.3c-0.1,0-0.1,0-0.2,0c0.2,18.7-19.9,32-48.5,31.7
		c-5.3-0.2-15,4.1-15-4.6s3.4-17.2,14.3-18.1c0.1,0,0.1,0.1,0.2,0.1c0,0,0-0.1,0-0.1l0-1.8c-11.3-18.8-10.3-37.5,3.2-54.3
		c13.5-16.8,32.6-22.3,52-11.7C429.3,412.4,437.6,429.3,435.1,451.2z M544.7,481.3c-6.5,1.2-9.2-3.5-10.4-9.2
		c-16.5,2.3-32.3,2-44.3-12.4c0-0.1,0-0.2,0-0.3l-0.2,0.3l-4.8-4.2c-16.1-18.4-19.5-39.1-7.6-60.2c11.9-21.1,29.7-22,49.2-14.9
		c22.5,8.1,37,35.2,32.4,57.9c-1.1,5.1-2.8,10.3-4.2,15.2c0,0,0,0,0,0c9.3,1.3,7.6-6.8,9.4-12.4
		C569.3,452.8,556.2,479.3,544.7,481.3z M596.9,402l-1.9-1.4l1.8-1.9c0.4,0.6,0.8,1.2,1.1,1.9C597.8,400.9,597.3,401.5,596.9,402z"
		/>
	<path fill="#F4C861" d="M207.5,450.1l-0.2-0.2l0.1,0.7l0.1,0.2c0.2-0.4,0.3-0.9,0.4-1.3c3.6,1.5,6.4,3.5,8.7,5.8l1-12.2
		c-2.6,3-5.5,0.6-6.5-0.8c-1.1-1.4-3.7-1.6-5.7-2.3l-0.9,6.2c1.6,0.4,1.6,1.7,1.8,2.4l0.3,0.4C207,449.3,207.3,449.6,207.5,450.1z"
		/>
	<path fill="#B77D3C" d="M644.3,552.5l-1.8-1.8c-22.5,17.2-48.9-0.5-73.1,8.5c-17.2,6.4-36.8,5.7-55.4,7.8
		c-8.5,1.1-17.3,1.9-20.5-9.4c0-0.2,0-0.3,0-0.4l-0.2,0.4l-4.2-4.4c-19.8-12.2-39.4-15-58.7,1.2l11.1,9.8c1.3,0.6,2.6,1.4,3.7,2.3
		c2.8,8-0.4,11.7-8.5,13.3c-36.6,6.7-72.9,15-109.8,19.8c-8.7,1.1-26.9,8.9-28.9-5.1c-2.7-20.4-14.5-39.8-7.4-61.4
		c0.5-1.2-1.6-4.4-3.2-5.1c-10.6-4.6-21.6-8.9-32.4-13.1c-0.6,0-1.2,0.1-1.7,0.2l0.6,0.6c-5.8,15.8-8.1,30.6,8.1,42.3
		c1.4,1.1,1.2,4.1,1.8,6.2c0,0.1,0.1,0.2,0.1,0.3c0-0.2,0.1-0.4,0.1-0.7c3.2,4.4,4.2,10.6,10.4,12c1.9-5.8-5.3-15.4,5.7-17.3
		c5.8-1.1,5.8,5.8,5.5,9c-0.4,3.2-3.8,10.1-10.8,9.7c-12,3.5,1.6,11.2-2.5,15.9c-0.1-0.1-0.1-0.2-0.2-0.2c0.1,0.1,0.1,0.3,0.2,0.4
		c8.3,7.3,7.4,9.4-1.6,18.8c-14.5,15.2-23.4,8.1-33.1-0.9c-9.7-9,0.5-18.4,1.9-27.4c0.9-5.3,1.6-6.4-3.5-10.3
		c-10.8-8.5,4.6-14.5,4.6-22.5c0,0,0,0,0,0c-3,4.4-7.4,0.3-8.8-2.6c-1.4-2.9,3.5-6.6,5.8-9.7l1.4-35.8l2.4,2
		c-0.4-0.6-0.8-1.1-1.3-1.7c-0.7-0.9,2.5,2.7,0-0.9s-5.3-6.9-7.4-10.6c-6.5-11.4-6.6-26.4-15.9-36c-0.1,0.1-0.1,0.1-0.2,0.2l0-0.4
		c-2.3-2.3-5.1-4.3-8.7-5.8c-0.1,0.4-0.3,0.9-0.4,1.3c0,0.1,0,0.1-0.1,0.2l1.4,8.4c-5.9,0.5-7.9-4.1-10.8-7.6l1,7.1l-1.6,1.1h-0.4
		l0,0c-0.8,1-0.8,2.4,0,3.4v0.4l1.2,1.4c2.5,5.8,18.6,3.7,9.6,16.3c-1.3,0.8-1.4,2.1-1.6,3.3l1.2-3l-1.2,3c0,0.3-0.1,0.6-0.2,0.9
		c-4.2,12.9,4.6,23,7.4,34.5c0.4,2-0.1,4.2,0.1,6.3l0,0c0.1,0.7,0.2,1.4,0.6,2l0.5,4.1c0.1,0.3,0.2,0.6,0.3,0.9
		c3.2,1.4,7.5,2.5,8.3,4.6c0.9,2.3-3.7,6.2-7.4,7.8c0,0,0,0,0,0c-7.5,10.9,9.5,24.8-3.7,35c0,0-0.1,0.1-0.1,0.1
		c-0.1,0.1-0.2,0.3-0.3,0.4l0,0c0.4,7.2,17.9,9.7,5.7,20.1c-0.9,12.4-4.4,30.6,13.8,27.6c13.5-2.3,22.1,2.1,32.7,5.8
		c0.6-0.3,1.3-0.2,1.8,0.4l55.1-10.6c1.4-1.1,3.2-0.4,4.6-1.1c28-5.5,56.1-10.6,84.1-16.5c10.8-2.3,16.1-1.1,10.8,11.2
		c0.1,0.2,0.2,0.3,0.3,0.5c14.6,7.2,0.5,17.2,2.5,25.7h0.8l0.5-0.4c3.7-11.7,7.6-23.4,11.2-35.2c2.8-9,13.3-10.1,15.8-6.5
		c18.4,26.2,33.6,13.8,49-1.9l18.1,23c0.1,0,0.1,0,0.2,0.1c1.8-3.9-7.2-10.9,3.3-12.5c-11.9-14.2-11.7-20.4,9.9-20.9
		c21.6-0.5,43.4-1.8,64.1-6.7c11.3-2.7,25.6,5.6,34.3-7.9c-0.1,0-0.1,0-0.2,0C629.1,564.3,644.7,563.3,644.3,552.5z M483.4,566.1
		c-2.7,1.9-4.4,3.9-6.4,4.4c-1.9,0.5-2.7-1.9-3.9-3c1.4-2,3.1-3.7,5-5.1C478.7,561.8,480.8,564.1,483.4,566.1z M476.5,560.6
		l-12.4-1.6C469.4,555.1,471.9,555.6,476.5,560.6z"/>
	<path fill="#B77D3C" d="M213.8,526.5L213.8,526.5C213.8,526.5,213.8,526.5,213.8,526.5z"/>
	<polygon fill="#B77D3C" points="197.2,460.1 197.2,460.1 197.2,460.1 	"/>
	<path fill="#B77D3C" d="M197.9,450.5l0,0.2l1.2-0.2C198.7,450.5,198.3,450.5,197.9,450.5z"/>
	<path fill="#F4C861" d="M420.9,618.8c-0.1,0-0.2-0.1-0.3-0.1c-4.1,11-8.9,24.4-12,32.9c-3.2,8.5-6.5,15.6-14.9,3.4
		c-2.7-3.9-9.4-6.5-11-2.1c-4.6,12,8.5,20.2,13.3,25.1c4.8,5,11.2,5.5,14.7-1.4c5.3-10.4,9.4-21.2,14-32h-0.5h-0.8
		C421.4,636,435.4,625.9,420.9,618.8z M422.7,645l0.5-0.5l0,0v0l0,0l-0.7,1.1C422.6,645.4,422.6,645.2,422.7,645z"/>
	<path fill="#F4C861" d="M571.9,643.4c0-0.1,0-0.1,0-0.2l-0.1,0.3C571.9,643.5,571.9,643.5,571.9,643.4z"/>
	<path fill="#F4C861" d="M518.9,623.5c6.3,2.7,9,8,10.5,14.1c0.1,0.1,0.2,0.1,0.2,0.2l1.6,3.2l-2.2-3c-0.1,0.1-0.3,0.1-0.4,0.1
		c0.3,1.3,1.1,2.4,2.4,3c8.5,8.5,14.2,22.1,27.1,23c7.4,0.5,9.7-10.4,12.6-17.5c0.1-0.2,0.1-0.4,0.2-0.6l-0.2,0.4l0.2-0.4
		c0.2-0.8,0.3-1.7,0.9-2.4l0.1-0.3c-0.1-4.7,0.8-10.5-5.7-12c-6.5-1.6-5.8,1.9-8.9,8.7s-6.9,5.3-10.6,0.9L522.2,611
		C511.7,612.6,520.7,619.6,518.9,623.5z"/>
	<path fill="#FBD978" d="M634.1,276.3h8.6l0,0l0.4-0.2l-0.2,0.4l0,0v0l-1.9,9.4l-8.8-7.6h0l-6.9,5.7c0,0,0,0.1,0,0.1l7.7,10.3
		c-5.3,0.4-10.6,0.4-10.4,6.4c0.2,6,6.7,4.4,14,5.5l-15,7.6l3.5,7l0-0.1c6.7,1.1,9.9-14.3,18.4-4.3l4.2-9.6l0.1-0.1l-0.8-2
		c-6.9-2.9-1.6-4.8,0.3-7c0.1-0.5,0.3-1.1,0.4-1.7c5.3-6.9,3.9-14.8,3.9-22.5C645.5,273.3,639.3,271.5,634.1,276.3z"/>
	<path fill="#E8B919" d="M212.1,581.5L212.1,581.5l-6.7-3.8l-0.2-0.1c-7.6,10.6-8.7,25.9-20.8,33.6c-0.9,0.6-1.9,1.1-3,1.6
		c-0.2,0.1-0.3,0.2-0.5,0.2l0.3-0.1l36.2-11.1c0.1-0.1,0.2-0.2,0.4-0.3C229.9,591.2,212.4,588.7,212.1,581.5z"/>
	<path fill="#E8B919" d="M684,507.5c6.4-1.4,7.3-6.7,9.9-14.5c2.7-7.8,1.6-15.4-1.1-23.2c-1.6-4.4-1.6-10.1-1.8-14.5
		c-0.2-4.4,8.5-10.3,1.4-12.9c-7.1-2.7-7.8,6.5-10.1,11.5c0.2,1.1,0.2,2.2,0.2,3.3l0.7,10.5l-0.7-10.5c0,3.6-0.6,7.2,0.5,10.5
		c1.6,0.7,1.2,2.5,1.9,3.5l0,0v0v0c1.4,1.2,1.1,2.7,1,4.2l0.7,2.9l-0.7-2.9c0,1,0,2,0.7,2.9c-0.7,4.2-1.8,8.3-3.2,12.4
		c-1.2,2.8-4.2,5-5.7,7.8C674.8,504.7,677.6,508.9,684,507.5z"/>
	<path fill="#F4C861" d="M666.1,333.5L666.1,333.5c-10.2,14.8,3.4,29.9-0.7,44.8v0.2c0.1,0,0.1,0,0.2,0l7.6-0.9l0,0l0,0l0,0
		c0.4-0.7,1-0.9,1.7-1.1l2-1.4c4.2-10.1-0.9-19.6-2.5-29.2c-1.1-6.2,0.4-10.1,6-12.4c0,0,0,0,0,0c0,0,0,0,0,0l-0.7-1.8L666.1,333.5z
		"/>
	<path fill="#F4C861" d="M656.9,378.3l-5.1-27c0,0,0,0,0,0l-8.1-34.5c-0.1-0.1-0.1-0.1-0.2-0.2c-8.5-10-11.7,5.3-18.4,4.3l0,0.1l0,0
		h0.2c0.1,0.1,0.1,0.1,0.2,0.2l1.1,0.5c0.7,0.2,1.5,0.2,2,0.9h0.2c0,0,0,0,0,0c0,0,0,0,0,0l5.8,4.7c0.3,0.2,0.7,0.5,1,0.8l1.8,2.5
		c-0.1,0-0.1,0-0.2,0l0.4,2.5c0.1,0.2,0.2,0.3,0.3,0.5c0-0.2,0-0.5-0.1-0.7c6.9,5.7,7.3,13.5,6.5,21.4c-0.1-0.1-0.2-0.2-0.3-0.4
		c0,0.2,0.1,0.4,0.1,0.5l0.5,3.5c0,0,0,0.1,0,0.1c0-0.1,0-0.2,0-0.3l0.4,1c0.4,0.9,0.7,1.8,1,2.8l5.3,14.3c-0.1-0.1-0.2-0.1-0.3-0.2
		c0.1,0.1,0.2,0.2,0.3,0.4l0.5,2.9c0-0.1,0-0.2,0-0.2L656.9,378.3z"/>
	<path fill="#F4C861" d="M625.4,321.1c0.3,0.3,0.7,0.4,1.1,0.5L625.4,321.1z"/>
	<path fill="#9EBB31" d="M653.2,549.8l0.9,1.3C654,550.6,653.8,550.1,653.2,549.8z"/>
	<path fill="#9EBB31" d="M645.5,540.6C645.5,540.6,645.4,540.6,645.5,540.6l-1.2,11.9c0.4,10.8-15.2,11.9-14,23c0.1,0,0.1,0,0.2,0
		c19.9,4.7,29.9-4.7,24.5-23.2c-0.4-0.3-0.6-0.8-0.8-1.2l-0.9-1.3c-0.1,0-0.1-0.1-0.2-0.1l-5.7-5.1c-0.1-0.1-0.1-0.3-0.1-0.5
		L645.5,540.6z"/>
	<path fill="#9EBB31" d="M644.3,515.6l3.4,20.7c0.1-0.1,0.1-0.1,0.2-0.2c17.6-19,10.1-34.8-6.4-49.4L644.3,515.6z"/>
	<path fill="#9EBB31" d="M644.3,515.6c-1.1-2.2-2.3-4.4-3.6-6.5C641.6,511.4,642.7,513.6,644.3,515.6z"/>
	<path fill="#FBD978" d="M656.9,378.3l2.5,4.2h5.9V382v-3.6v-0.2c4.1-14.8-9.5-30,0.6-44.9l-1.7-2.2c0.1,0,0.2,0,0.4,0
		c-0.1-0.1-0.2-0.1-0.4-0.1l-12.6,20l0,0.2L656.9,378.3z"/>
	<path fill="#B77D3C" d="M671.2,395.3c7.8,13.6,0.7,25.7-1.8,38.4l1.6-3.7l6.2-14.4l0.4-0.9c0.5-2.8-0.2-6.7,4.8-6.4l0.4-0.3
		l0.1-0.3c2.1-6.9,7.8-13.5,3-21.4c0-0.1,0-0.2,0-0.3c-0.1,0-0.1,0.1-0.2,0.1l-8.3,4.1c0,0,0,0,0,0.1
		C675.9,392.8,668.6,390.7,671.2,395.3z"/>
	<path fill="#9EBB31" d="M679.4,375.6l-1.9,0.6C678,376.6,678.7,376.1,679.4,375.6z"/>
	<path fill="#9EBB31" d="M674.4,345.9c1.6,9.6,6.7,19.1,2.5,29.2l2.5,0.5c12.9-13.6,1.2-28,1.1-42.1c0,0,0,0,0,0
		C674.8,335.8,673.4,339.7,674.4,345.9z"/>
	<path fill="#B77D3C" d="M627.7,482.7c3,9.2,8.2,17.7,13.1,26.4c1.2,2.2,2.4,4.3,3.6,6.5l-2.8-28.9l0-0.2l-3.5-7.8l0,0
		C634.8,481.3,625.9,477,627.7,482.7z"/>
	<path fill="#F4C861" d="M682.9,407.8l5.7,0.5h-2.9c1,0.1,2.1,0.1,3.1,0c7.3-6.2,5.5-14.5,5.5-22.3c0-2.1-1.9-5.8-3.4-6
		c-4.3-0.7-5.1,2.6-5,6.1c0,0.1,0,0.2,0,0.3C690.7,394.4,685.1,400.9,682.9,407.8z"/>
	<path fill="#848580" d="M340.6,661.9c9.7-1.1,4.6-9.7,7.1-13.8c0.5-3.5-1.4-8-2.3-6.9c-3.5,5-6.2,10.5-8.1,16.3
		C336.7,658.3,339.5,662,340.6,661.9z"/>
	<path fill="#9EBB31" d="M666.1,333.4L666.1,333.4l13.7-1.7c-4.7-7.3-10-1.2-15-0.6c-0.1,0-0.2,0-0.4,0L666.1,333.4z"/>
	<path fill="#B77D3C" d="M528.2,636.9c0.4,0.1,0.8,0.4,1.2,0.7c-1.6-6.1-4.2-11.4-10.5-14.1c-0.1,0-0.1,0-0.2-0.1c0,0,0,0-0.1,0
		l9.4,13.5c-0.2,1,0,1.4,0.6,1.2c0.1,0,0.2-0.1,0.4-0.1L528.2,636.9z"/>
	
		<line fill="none" stroke="#B77D3C" stroke-width="0" stroke-linecap="round" stroke-linejoin="round" x1="683.3" y1="467.7" x2="682.6" y2="457.1"/>
	
		<line fill="none" stroke="#B77D3C" stroke-width="0" stroke-linecap="round" stroke-linejoin="round" x1="682.4" y1="453.9" x2="682.6" y2="457.1"/>
	
		<line fill="none" stroke="#B77D3C" stroke-width="0" stroke-linecap="round" stroke-linejoin="round" x1="686.8" y1="478.3" x2="686.1" y2="475.4"/>
	
		<line fill="none" stroke="#B77D3C" stroke-width="0" stroke-linecap="round" stroke-linejoin="round" x1="686.1" y1="475.4" x2="685.1" y2="471.2"/>
	
		<line fill="none" stroke="#B77D3C" stroke-width="0" stroke-linecap="round" stroke-linejoin="round" x1="685.1" y1="471.2" x2="685.1" y2="471.2"/>
	<polygon fill="#9FA399" points="682.9,407.8 682.8,408.1 682.8,408.4 685.7,408.4 688.6,408.4 	"/>
	<polygon fill="#A8AC9F" points="676.9,375.1 674.9,376.4 673.2,377.6 673.2,377.6 673.2,377.6 677.5,376.2 679.4,375.6 	"/>
	<path fill="#FBD978" d="M528.2,636.9l0.8,1.1l2.2,3l-1.6-3.2c-0.1-0.1-0.2-0.1-0.2-0.2C529.1,637.3,528.7,637,528.2,636.9z"/>
	
		<line fill="none" stroke="#95978D" stroke-width="0" stroke-linecap="round" stroke-linejoin="round" x1="320.9" y1="625" x2="325.5" y2="624"/>
	<polygon fill="#FBD978" points="645.4,540.4 645.5,540.6 647.2,544 647.4,544.3 647.5,539.4 647.5,538.5 	"/>
	
		<line fill="none" stroke="#C0C6B1" stroke-width="0" stroke-linecap="round" stroke-linejoin="round" x1="571.9" y1="643.3" x2="571.8" y2="643.6"/>
	
		<line fill="none" stroke="#C0C6B1" stroke-width="0" stroke-linecap="round" stroke-linejoin="round" x1="570.9" y1="646" x2="570.7" y2="646.5"/>
	
		<line fill="none" stroke="#C0C6B1" stroke-width="0" stroke-linecap="round" stroke-linejoin="round" x1="570.9" y1="646" x2="571.8" y2="643.6"/>
	
		<line fill="none" stroke="#C0C6B1" stroke-width="0" stroke-linecap="round" stroke-linejoin="round" x1="571.9" y1="643.3" x2="571.9" y2="643.3"/>
	
		<line fill="none" stroke="#B77D3C" stroke-width="0" stroke-linecap="round" stroke-linejoin="round" x1="685.1" y1="471.4" x2="683.1" y2="467.8"/>
	
		<line fill="none" stroke="#C0C6B1" stroke-width="0" stroke-linecap="round" stroke-linejoin="round" x1="653" y1="549.4" x2="653.2" y2="549.8"/>
	
		<line fill="none" stroke="#C0C6B1" stroke-width="0" stroke-linecap="round" stroke-linejoin="round" x1="654.2" y1="551.1" x2="655" y2="552.1"/>
	
		<line fill="none" stroke="#C0C6B1" stroke-width="0" stroke-linecap="round" stroke-linejoin="round" x1="654.2" y1="551.1" x2="653.2" y2="549.8"/>
	<path fill="#D3D8BC" d="M677.6,415.3v0.5c0.2-0.2,0.4-0.6,0.4-0.9L677.6,415.3z"/>
	
		<line fill="none" stroke="#C0C6B1" stroke-width="0" stroke-linecap="round" stroke-linejoin="round" x1="263.9" y1="635.3" x2="265.7" y2="635.7"/>
	<path fill="#FBD978" d="M387.4,308c6.2,13.4,11.6,26.8,1.3,40.9c-2.1,3-4.1,6.5-8.1,5c-3.1-1.5-5.7-3.8-7.6-6.7
		c-2.7-3.9,1.1-5.7,3.4-7.6c5.3-4.6,8.3-10.3,5.7-17.2c-2.7-6.9-3.2-9.9-10.1-8.7l-12.2,6.1c1.7,20-14.2,13.8-24.2,16.4
		c-0.3,0.1-0.5,0.2-0.8,0.3l-1.9,1.1l-2.8,2.7l-4.8,5.3c0,0,0,0,0,0l0.2-0.2l-0.2,0.2c-0.2,0.7-0.7,1.3-1.4,1.6
		c-10.9,10.2-18.9,22.9-26.3,35.8l0.1,0c-0.9,5.5-0.7,11.5-7.3,13.8h-0.4c0.1,0.1,0.2,0.2,0.2,0.4l-3.4,7.3c0,0,0,0.1,0,0.1l0.2-0.4
		c1.8,3.5-0.2,5.6-3,7.1c-0.1,0.1-0.1,0.2-0.2,0.4l-0.5,1.8c-1,0.7-0.8,1.9-0.9,3.1l1.1-3.4l-1.1,3.4c0,0.8-0.1,1.5-0.7,2.1l-1,2.9
		c0,0,0.1-0.1,0.1-0.1l-4.4,14.5c-0.1-0.3-0.1-0.6-0.1-0.8c0,0.4,0,0.8,0,1.2l-0.4,3.2c-0.1,0.1-0.1,0.3-0.2,0.4V473v0v13.6
		c1.4-13.6,2.5-25.5,4.1-37.4c0.4-1.9,2.3-5.3,3.9-5.5c14-1.4,27.8-2.5,41.8-3.2c7.8-0.4,16.3-5.1,16.6-10.4
		c1.6-24.1,16.9-34.5,36-42.6c-4,0.3-9.2,3.4-10.9-1.6c-1.8-5.3,2.5-8.1,5.3-11c6.2-6.2,12.9-11.9,20.2-16.8c4.4-3,11-5.1,15,0.5
		c4.1,5.7,0.7,11.5-3.9,14.7c-7.6,5.4-16.3,9.4-24.4,14c14,1.2,28.6-12.6,42,1.2c8.7,9,17,18.2,24.8,28c2.3,3.4,6.1,5.5,10.3,5.7
		c1.8,0.2,4.8-1.4,5.1-2.7c1.4-5.1-3.7-2.1-6.2-5.3c-2.5-3.2-1.6-7.3,1.2-6.9c14.7,1.4,8-10.8,10.6-16.5c4.6-9.9,8.7-20.2,19.3-23.5
		c16-4.9,31.6-1.3,46.2,6.4l-0.2,0.2c10.1,8.5,18.9,19.3,30.3,25.1c14.5,7.4,29.9-12.9,45.8-2.1c0.1-0.1,0.1-0.2,0.2-0.3
		c-15.6-33.2-38.4-60-70.9-77.6c-9.7,0.2-21.6,5.3-24.4-10.6l-6.6-3.5c0,0-0.1,0.1-0.1,0.1l-41.4-7.3c0.1-0.3,0.2-0.5,0.3-0.8
		c-0.1,0.1-0.3,0.3-0.4,0.4H453c0,0,0,0,0,0c0.1,0.1,0.1,0.2,0.2,0.4C430.9,298.7,408.9,302.2,387.4,308z M353.5,384.3
		c0.4-0.7,1.9-1.8,3-2.5c1.1-0.7,2.1,2.1,2.1,2.8s-1.9,1.9-3.4,3.5C354.4,386.4,353.1,385,353.5,384.3z M321.1,394.4
		c0.4-4.6,3.2-10.4,9.4-10.8c6.2-0.4,8,2.7,7.4,7.8c-0.5,5.3-4.4,9.6-9.6,10.6C323.6,401.3,320.8,399,321.1,394.4z M431,331.7
		c0.4-4.2,2.8-7.1,7.3-7.1s5.8,2.1,6,6c0,3.9-3.2,7.1-7.1,7.1c-0.1,0-0.2,0-0.4,0c-2.9,0.3-5.5-1.8-5.9-4.7
		C431,332.6,431,332.2,431,331.7z M539,369.9c0.4,4.6-3.4,3.5-6,3.9c0.4-2.7-0.7-6.2,3.7-6.2C537.8,367.9,538.7,368.8,539,369.9z
		 M532.8,326.9c0.7-0.4,1.9,0.5,3.7,1.2c-1.4,1.2-2.3,2.5-3,2.5c-0.7,0-1.8-0.9-2.7-1.4C530,328.7,532.1,327.3,532.8,326.9z
		 M471.9,336.5c12.7,2.1,26.6,4.4,32.6,17c2.7,5.1-6.4,4.2-10.3,6c-11.9-3.5-25.5-3.4-30.3-17.5C462.5,337.6,468,335.8,471.9,336.5z
		"/>
	<path fill="#9EBB31" d="M368.9,256.3L368.9,256.3l-17.4,7.5c-0.1-0.3-0.1-0.6-0.2-0.8c-0.1,0.2-0.2,0.3-0.3,0.5l-11,13.3
		c0,0,0,0,0,0c0.2,0.1,0.4,0.1,0.5,0.2l-7.4,12.9c0,0,0,0,0,0.1c7.3,6.3,4.1,11-2.6,15.7c-3.4,2.5-5.8,6.2-8.7,9.4l0.5,0.5
		c-11.5,15.2-28.3,23.7-44.6,31.5c-16.3,7.8-34.3,14-33.5,38.2c0.7,18.1-8.9,33.1-18.1,47.8c-3.2,5-1.4,9.4,0.2,14.2
		c-0.3-0.1-0.6-0.2-0.8-0.3c0.2,0.2,0.4,0.4,0.7,0.6l2.1,3.4c0.1,0,0.2,0.1,0.3,0.1c0-0.2,0-0.3,0-0.4l3.5-1.8c0,0,0,0,0,0
		c0-0.1,0-0.1,0-0.2l4.4-10.4l8,11v-0.2c5.7,3.9,14.5,5.7,9.6,15.9l0,0c0,0.1,0,0.1,0,0.2l-1.1,11.3c0,0-0.1,0-0.1-0.1
		c0,0.1,0.1,0.2,0.1,0.2c0.5,7,2.3,13.2,9.8,16l0-0.1l8.1-4c0.2-16.5-2.6-33.1,4.6-48.9c0.1-0.1,0.1-0.3,0.2-0.4l0.4-3.2
		c0-0.4,0-0.8,0-1.2c-0.7-5,1-10,4.5-13.6l1-2.9c0.6-0.6,0.7-1.3,0.7-2.1l-0.5,1.7l0.5-1.7c0-1.1-0.1-2.3,0.9-3.1l0.5-1.8
		c0.1-0.1,0.1-0.2,0.2-0.4c0,0,0,0,0,0l2.8-6.6c0,0,0-0.1,0-0.1l3.4-7.3c-0.1-0.1-0.1-0.2-0.2-0.4h-13.8c0-0.1,0-0.1,0-0.2
		c-19,5.6-15.9-4.4-11-15.4c-5.6-2.3-7.9-6.7-5.1-11.8c2.8-5.1,8.9-2.2,13.4-0.8c0.1,0,0.1-0.1,0.2-0.1
		c15.8-8.1,11.3,12.6,20.4,14.2l3.5,0.3c7.4-12.9,15.3-25.5,26.3-35.8c0.7-0.2,1.2-0.8,1.4-1.6l-1.2,1.4l1.2-1.4c0,0,0,0,0,0
		l4.8-5.3l2.8-2.7l1.9-1.1c0.3-0.1,0.5-0.2,0.8-0.3c-0.2,0.1-0.4,0.1-0.6,0.2l24.8-16.6c0,0,0,0.1,0,0.1l12.2-6.1
		c-1.2-5.8-3.2-11.7-3.5-17.7s-0.5-15.8,8.5-15.2c9,0.5,3.4,9,4.1,14.2c0.7,5.1,4.1,8.7,6.4,12.9c0,0.1,0,0.1,0.1,0.2
		c21.5-5.8,43.5-9.2,65.8-10.2c-0.1-0.1-0.1-0.2-0.2-0.4c-7.4-14.7-17.5-26.9-34.3-30.1c-6.7-1.4-3.9-4.8-3.9-8
		c-0.1-0.1-0.3-0.2-0.4-0.2C397.9,283.2,384.2,253.9,368.9,256.3z M330.1,340l2.8-2.7L330.1,340z"/>
	<path fill="#9EBB31" d="M221.1,435.9c1.2-2.9,2.2-5.6,2.8-8.2C222.1,430.6,221.2,433.3,221.1,435.9z"/>
	<path fill="#B77D3C" d="M240.4,323.7h0.3l0.2-0.3C240.7,323.6,240.5,323.6,240.4,323.7z"/>
	<path fill="#B77D3C" d="M242.9,318.8c0.1,0.1,0.1,0.3,0.1,0.4l0-0.1l3,1.9l-5.5,2.8l0-0.1c-4.9,3.4-9.6,7-14,10.9h0.2l0,0l0,0l0,0
		c-0.7,1-1.7,1.6-2.8,1.9c-17,11-36.3,18.1-51.2,32.2c0,1.7-0.2,3.3-0.5,5c4.1,14.9,15.6,25.7,28.3,28c22,3.9,26.4,13.3,23.3,25.8
		c-0.6,2.6-1.6,5.3-2.8,8.2c-1,2.3-2.1,4.7-3.3,7.2l0,0.2l-1,12.2l0,0.4c0.1-0.1,0.1-0.1,0.2-0.2c3.5-4.5,3.3-10.5,8.7-8.7
		c0.3,0.1,0.5,0.2,0.8,0.3c-1.6-4.8-3.4-9.2-0.2-14.2c9.2-14.7,18.8-29.7,18.1-47.8c-0.9-24.3,17.2-30.4,33.5-38.2
		c16.3-7.8,33.1-16.3,44.6-31.5l-0.5-0.5c2.8-3.2,5.3-6.9,8.7-9.4c6.8-4.7,9.9-9.4,2.6-15.7c-3.3,6.7-8.9,12-15.9,14.7
		c0,0,0,0.1,0,0.1H317c0.1,0,0.1-0.1,0.2-0.1c1.7-14.3-8.3-38.2,22.8-27.9c0,0,0,0,0,0l11-13.3c0.1-0.2,0.2-0.3,0.3-0.5
		c-6.1-28.5,14.3-17.7,27.6-17.7l1.2-6.5c0-0.1-0.1-0.2-0.1-0.3c-4.6-14.9-8-27.1,15.8-28.7c11.9-0.9-4.7-9.4-0.5-14.7
		c0-0.2-0.1-0.3-0.1-0.5c-3.7-8-9-4.2-14.2-2.1c-0.2,0.2-0.4,0.3-0.6,0.5l0.8-0.1c-14.5,29.4-36.8,52.8-60.7,74.5l-5.3,2.7h0
		c-12.6,13.3-24.8,27.4-46.2,21.6l0.8-0.7c-0.3,0.1-0.7,0.1-1,0.2c-4.1,1.8-8.7,1.9-12.9,0.4c-15.8-4.8-26.2-20.4-43.9-20.5l0.3,0.4
		L242.9,318.8z M250.1,353.1c-13.8,4.1-20.7,13.3-31,11.3c-1.2-0.2-2.5-17.9,0.2-19.3C228.7,340.6,236.1,350.8,250.1,353.1z
		 M195.1,369.4l1.1-9.9l15.8,7.1C205.7,370,199.7,360.9,195.1,369.4z M240.9,323.9l-14.2,11L240.9,323.9z M172.4,373.8l0.5-5
		L172.4,373.8z M284.5,318.8c-0.9-16.1,3.9-23,20.7-15.4c3.4,1.5,7.8,1.1,11.8,1.5c0,0,0.1-0.1,0.1-0.1l0.4,0.2c-0.2,0-0.3,0-0.5,0
		c-16.5,20.1-41.4,28.2-61.7,42.9c-3.4,2.5-1.2-5.7-1.8-8.7c-2.5-16.3,1.8-23.2,18.4-12.9C280.2,331.4,285,327.8,284.5,318.8z"/>
	<path fill="#F4C861" d="M527.7,219.8c0.1-0.1,0.1-0.1,0.2-0.2h-0.2V219.8z"/>
	<path fill="#F4C861" d="M523.4,241.9l-2.2,2.3C522,243.5,522.8,242.7,523.4,241.9z"/>
	<path fill="#F4C861" d="M531.4,230.6l-3.7-10.8l-3.7-3.4l0.3,0c-0.1-0.1-0.1-0.1-0.2-0.2c-20.2-17.9-43.4-28.7-70.8-28.7
		c3.1-0.9,6.1-1.5,9.1-1.8c-3-0.1-6.1,0.4-9.1,1.8c-0.9,3.7,1.2,8.5-3.7,10.8c0,0.1,0,0.2,0,0.3c0,24-0.1,47.9-0.2,71.9
		c0,6,1.6,11.3,9.2,8.7c22.7-8,44.1-18.1,61.8-34.5c0.3-0.2,0.5-0.4,0.8-0.6l2.2-2.3c0.2-0.3,0.4-0.5,0.6-0.8l7.1-7.4
		c0.3-0.2,0.5-0.5,0.8-0.8l-0.8,0.8L531.4,230.6z M501,228.9c0.9-1.7,2.2-3,3.9-3.9c0.4-0.4,2.1,1.8,4.2,3.5c-2.3,1.4-3.7,3-5.3,3.2
		C502.2,231.9,500.6,229.2,501,228.9z M468.7,211.7c1.2-0.4,2.8,1.8,2.7,2.5c-0.2,0.7-1.4,2.5-2.8,4.2l-3.4-4.1
		C466.4,213.5,467.5,212.1,468.7,211.7z"/>
	<path fill="#9EBB31" d="M543.5,305.3c-0.9,0.4-1.8,0.5-2.7,0.6l-9.4,2.1c-0.1,0-0.1-0.1-0.2-0.1c0,0,0,0.1,0,0.1l-7.4,2.7l0,0h0
		L538,319c32.5,17.7,55.3,44.5,70.9,77.6c0,0.1,0.1,0.2,0.1,0.3l15.9,38.1c0.3-0.1,0.6-0.2,0.9-0.3c11.2-4,21.6-12.5,15.6-23.1
		c-8.3-14.5-9.2-31.7-18.9-45c-3.7-5.3-10.6-11.5-16.5-11.9c-18.1-1.2-26.7-12.2-31.3-27.1c-4.6-14.8-13.2-24.7-30.7-22.5
		c0,0,0,0,0,0L543.5,305.3z"/>
	<path fill="#E8B919" d="M384.8,238.1c-1,1.4-2.8,6-4.7,0.6l-1.2,6.5l-10.1,11.1c15.3-2.4,29,26.9,45.4,2.8c0.1-0.1,0.1-0.2,0.2-0.3
		l3.7-14.5l-0.5-17.4c-3.5-2.1-3.2-5.3-2.3-8.9l-3.2-11.9l-0.4-0.5c0-0.7-0.2-1.1-1.1-1.1l-1.8-0.9c-0.1,0-0.2,0-0.2,0
		c0,0.1,0,0.1,0.1,0.2C400.9,215.2,393,226.7,384.8,238.1z M411.7,205.9c-0.6-0.1-1-0.5-1.1-1.1
		C411.3,204.8,411.7,205.3,411.7,205.9z"/>
	<path fill="#5D2413" d="M320.6,267.3c23.9-21.8,46.2-45.1,60.7-74.5l-0.8,0.1l-1.2,0.2c-0.9,1.3-2.4,1-3.8,1.2l-1.7,0.6
		c-0.1,0.1-0.2,0.2-0.3,0.3l-24.6,15.4c1.1,21.3-15.6,31-28.2,43.4c-3.8,3.8-5.9,2.7-6-2.3l-2.7,3.2L320.6,267.3z"/>
	<path fill="#5D2413" d="M373.8,194.9l1.7-0.6C374.9,194.4,374.3,194.5,373.8,194.9z"/>
	<path fill="#9EBB31" d="M506.8,305c0.1,0,0.1-0.1,0.1-0.1l-0.1-0.1l-0.2-9l-4.1-9.9c-15.9-13.6-30.4-9.1-36.9,11.1
		c-0.1,0.3-0.2,0.5-0.3,0.8L506.8,305z"/>
	<path fill="#FBD978" d="M395.8,209.7c-23.7,1.6-20.4,13.8-15.8,28.7c0,0.1,0.1,0.2,0.1,0.3c1.9,5.4,3.6,0.8,4.7-0.6
		c8.1-11.3,16.1-22.8,24.1-34.2c0-0.1,0-0.1-0.1-0.2c-1.9-6.9-9.5-5-13.4-8.9c0,0-0.1,0.1-0.1,0.1
		C391.1,200.3,407.7,208.9,395.8,209.7z"/>
	<path fill="#B77D3C" d="M320.8,254c12.5-12.4,29.3-22.1,28.2-43.4c0-0.1,0-0.1,0-0.2c-15,10.6-25.5,25.1-34.2,40.9
		c0,0.1,0,0.2,0,0.4C314.8,256.7,317,257.8,320.8,254z"/>
	<path fill="#9EBB31" d="M634.5,327.2l1,0.8C635.2,327.7,634.9,327.5,634.5,327.2z"/>
	<path fill="#9EBB31" d="M635.5,328c-3.4-0.4-6.7-0.9-6.7-5.5c0,0,0,0,0,0h-0.2c-0.5-0.6-1.3-0.7-2-0.9l1.8,0.9l-1.8-0.9
		c-0.4-0.1-0.8-0.2-1.1-0.5l-0.4-0.2l0.4,0.2c-0.1-0.1-0.1-0.1-0.2-0.2H625l0,0l-3.5-7h0c-0.1-0.2-0.1-0.4-0.2-0.6
		c-3.6-5.1-4.2-11.6-1.6-17.3l5.3-12.2l0.2,0.3c0,0,0-0.1,0-0.1l6.9-5.7h0l0,0l0,0l0,0l-0.2-0.2h0.2l1.8-1.8h0.2
		c5.2-4.8,11.4-3,17.3-2.7c0.1,0,0.1,0,0.2,0c4.6-7.1-2.3-4.2-4.2-4.2c-21.8,0-34.3,17.2-31.3,42.5v0c4.6,9,7.9,19.4,21.1,18.6
		c0.1,0,0.1,0,0.2,0L635.5,328z"/>
	<path fill="#FBD978" d="M315.3,269.9L315.3,269.9L315.3,269.9l5.3-2.7l-8.5-12.4c-6.2,1.2-10.6-2.8-15-5.7
		c-9-6-15.6-15.6-26.9-17.9c0,0,0,0,0,0c9,12,25,17.2,31.5,31.7C308.2,261.4,311.2,266.6,315.3,269.9z"/>
	<path fill="#D3D8BC" d="M506.6,295.8c9.9,0.5,20.8-0.9,24.6,12.1c0.1,0,0.1,0.1,0.2,0.1l9.4-2.1l2.7-0.6l0.4-0.1c0,0,0,0,0,0
		c-14-6.2-24.2-20.2-41.4-19.3L506.6,295.8z"/>
	<path fill="#D3D8BC" d="M659.6,382.7l-0.1-0.2l-2.5-4.2l-5.1,0.4c0,0.1,0,0.2,0,0.2c-0.7,7.9-2.3,16.2,9.9,16.1l-0.1-0.3
		L659.6,382.7z"/>
	<path fill="#D3D8BC" d="M637.6,332.8c0,0.2,0,0.5,0.1,0.7c0.8,7.2,1,14.6,6.2,20.4c0.1,0.1,0.2,0.2,0.3,0.4
		C644.9,346.2,644.5,338.4,637.6,332.8z"/>
	<path fill="#D3D8BC" d="M645.9,361.5l-1-2.8l-0.4-1c0,0.1,0,0.2,0,0.3c1,6.4,0.4,13.2,6.4,17.6c0.1,0.1,0.2,0.1,0.3,0.2
		L645.9,361.5z"/>
	<path fill="#FBD978" d="M534.6,230.3l0-0.2l-1.1,1.1C533.9,231.1,534.3,230.7,534.6,230.3z"/>
	<path fill="#FBD978" d="M531.2,219.7C531.2,219.7,531.2,219.7,531.2,219.7L531.2,219.7l-3.3,0c-0.1,0.1-0.1,0.1-0.2,0.2l3.7,10.8
		l3.2-0.5l-0.3-9.9h0L531.2,219.7z"/>
	<path fill="#FBD978" d="M417.8,226.9l0.5,17.4l0,0.2c1.2-6.5,5-13.1,0.2-19.8L417.8,226.9z"/>
	<path fill="#FBD978" d="M418,219.8c0.1,0,0.2-0.1,0.3-0.1c0-5.3-0.2-10.6-6-13.5l3.2,11.9L418,219.8z"/>
	<path fill="#F4C861" d="M415.5,218.1c-0.9,3.5-1.2,6.7,2.3,8.9l0.7-2.3l-0.4-4.8l-0.1-0.1L415.5,218.1z"/>
	<polygon fill="#D3D8BC" points="531.4,230.6 531.1,233.6 531.8,232.9 533.5,231.2 534.6,230.1 534.6,230.1 534.6,230.1 	"/>
	
		<line fill="none" stroke="#FBD978" stroke-width="0" stroke-linecap="round" stroke-linejoin="round" x1="256.8" y1="222" x2="258.6" y2="223.4"/>
	
		<line fill="none" stroke="#FBD978" stroke-width="0" stroke-linecap="round" stroke-linejoin="round" x1="254.6" y1="220.2" x2="256.8" y2="222"/>
	<path fill="#FBD978" d="M635.5,454.7c0.1-0.1,0.2-0.3,0.3-0.5l-3.6-0.2l-0.3,0C632.9,456.3,634.2,456.5,635.5,454.7z"/>
	
		<line fill="none" stroke="#FBD978" stroke-width="0" stroke-linecap="round" stroke-linejoin="round" x1="523.4" y1="241.9" x2="521.2" y2="244.2"/>
	
		<line fill="none" stroke="#FBD978" stroke-width="0" stroke-linecap="round" stroke-linejoin="round" x1="524.1" y1="241.1" x2="523.4" y2="241.9"/>
	
		<line fill="none" stroke="#FBD978" stroke-width="0" stroke-linecap="round" stroke-linejoin="round" x1="520.6" y1="244.8" x2="521.2" y2="244.2"/>
	
		<line fill="none" stroke="#B77D3C" stroke-width="0" stroke-linecap="round" stroke-linejoin="round" x1="373.5" y1="195.1" x2="373.8" y2="194.9"/>
	
		<line fill="none" stroke="#B77D3C" stroke-width="0" stroke-linecap="round" stroke-linejoin="round" x1="373.8" y1="194.9" x2="375.5" y2="194.3"/>
	
		<line fill="none" stroke="#B77D3C" stroke-width="0" stroke-linecap="round" stroke-linejoin="round" x1="379.3" y1="192.9" x2="375.5" y2="194.3"/>
	
		<line fill="none" stroke="#C0C6B1" stroke-width="0" stroke-linecap="round" stroke-linejoin="round" x1="237.2" y1="203.9" x2="236.8" y2="203.6"/>
	
		<line fill="none" stroke="#C0C6B1" stroke-width="0" stroke-linecap="round" stroke-linejoin="round" x1="235.1" y1="202.1" x2="236.8" y2="203.6"/>
	<path fill="#FBD978" d="M411.7,205.9c0-0.6-0.5-1.1-1.1-1.1C410.8,205.3,411.2,205.8,411.7,205.9z"/>
	<path fill="#E8ECC2" d="M524.1,216.3c0.1,0.1,0.1,0.1,0.2,0.2l3.2-0.2c0.1-0.1,0.1-0.1,0.2-0.2h0.2c-6.7-6.2-12.7-13.5-20.2-18.2
		c-13.9-9-28.9-14-45.2-12.1c-3,0.4-6,1-9.1,1.8C480.8,187.6,504,198.4,524.1,216.3z"/>
	<path fill="#F4C861" d="M647.7,296.3l-0.1,0.6C647.7,296.7,647.7,296.5,647.7,296.3z"/>
	<path fill="#F4C861" d="M646.9,304.8c0,0,0.1,0,0.1,0.1l0.7-7.9c-0.1,0.3-0.3,0.6-0.5,0.8C645.3,299.9,640,301.9,646.9,304.8z"/>
	<path fill="#C0C6B1" d="M589.8,213.3c0,0-0.1,0.1-0.1,0.1c-2.5,2.6-2.4,6.8,0.2,9.4v-0.2L589.8,213.3
		C589.8,213.3,589.8,213.3,589.8,213.3z"/>
	<path fill="#E8ECC2" d="M527.5,216.3l0.2,0v3.4h0.2h3.3l0,0l-3.4-3.5h-0.2C527.6,216.2,527.6,216.2,527.5,216.3z"/>
	<path fill="#E8ECC2" d="M313.3,200.5h0.7c0-0.2-0.2-0.5-0.4-0.7H313C313.1,200.2,313.1,200.5,313.3,200.5z"/>
	<path fill="#9EBB31" d="M315.3,269.9L315.3,269.9c-4.1-3.4-7.1-8.5-13.6-6.9l-31.7,27.8l-0.8,0.7
		C290.5,297.4,302.7,283.2,315.3,269.9z"/>
	<path fill="#A8AC9F" d="M435.8,722.7c-8.5-0.5-21.4,1.1-21.6,8.1s13.3,5.7,21.2,5.8h8.9h68c4.8,0,9.2-1.2,12.2-5.5
		c-3.4-1.6-6.4-3.7-9.7-4.4C488.7,721.2,462.2,724.2,435.8,722.7z"/>
	<path fill="#B77D3C" d="M159.5,446.2c7.8,8.7,25.8,11.9,16.5,30.1c2.1,1.2,5.3,3.2,6.7,3.2s4.1-2.7,4.2-4.4
		c1.1-8,1.4-16.1-6.5-21.4c-0.1-0.1-0.1-0.1-0.2-0.2l-10.8-4.8c0,0,0.1-0.1,0.1-0.1c-0.1,0-0.2,0.1-0.3,0.1l-1.2-1.6
		c-0.1-0.4-0.1-0.8-0.1-1.1l-1.6-13c0,0,0,0,0,0c-3.5,0-6.5,0.7-7.1,4.8c0.1,0.3,0.1,0.6,0,0.9v4.3v2.8
		C159.2,446,159.4,446.1,159.5,446.2z"/>
	<path fill="#5D2413" d="M223.6,538.1c-0.8-2.1-5.2-3.2-8.3-4.6c-0.2-0.1-0.5-0.2-0.7-0.3c-4.1,1.2-6.5,4.4-5.8,8.5
		c0.7,4.1,3.7,5.8,7.4,4.3c0,0,0,0,0,0C219.9,544.3,224.5,540.4,223.6,538.1z"/>
	<path fill="#F4C861" d="M206.7,449.2l0.6,0.8l0.2,0.2C207.3,449.6,207,449.3,206.7,449.2z"/>
	<path fill="#F4C861" d="M208.9,459.5l-1.4-8.4l-0.1-0.4l-0.1-0.7l-1.5-0.4c0,0-0.1,0.1-0.1,0.1l-6.5,1l-1.2,0.2l-0.7,0.1
		c0.3,0.3,0.6,0.7,0.9,1.1C200.9,455.4,203,460,208.9,459.5z"/>
	<path fill="#5D2413" d="M193.3,525.9l4.8,0.4C196.5,524.7,195.2,523.8,193.3,525.9z"/>
	<path fill="#5D2413" d="M196,533.9c3.4-1.6,5-4.1,2.1-7.6l-4.8-0.4c-1.9,2.1-5,4.1-1.9,7.3C192.7,534.1,194.4,534.4,196,533.9z"/>
	
		<line fill="none" stroke="#5D2413" stroke-width="0" stroke-linecap="round" stroke-linejoin="round" x1="240.9" y1="323.9" x2="226.8" y2="334.9"/>
	<path fill="#D3D8BC" d="M168,447c1.9-5,4.8-10.1-1.8-14.2l0,0.2l1.6,13L168,447z"/>
	<path fill="#D3D8BC" d="M180.2,453.5l0.4,0.2c-2.3-4.9-5.1-9-11-5c0,0-0.1,0.1-0.1,0.1L180.2,453.5z"/>
	<polygon fill="#5D2413" points="246.1,321.1 243,319.1 243,319.2 240.8,323.5 240.7,323.7 240.6,323.8 240.6,323.9 	"/>
	
		<line fill="none" stroke="#FBD978" stroke-width="0" stroke-linecap="round" stroke-linejoin="round" x1="213.8" y1="526.5" x2="213.3" y2="520.6"/>
	
		<line fill="none" stroke="#FBD978" stroke-width="0" stroke-linecap="round" stroke-linejoin="round" x1="213.8" y1="526.5" x2="213.8" y2="526.5"/>
	
		<line fill="none" stroke="#FBD978" stroke-width="0" stroke-linecap="round" stroke-linejoin="round" x1="214" y1="528.9" x2="213.8" y2="526.5"/>
	<polygon fill="#D3D8BC" points="159.1,446.2 159.1,445.9 159.1,443.1 157.2,444.3 	"/>
	
		<line fill="none" stroke="#C0C6B1" stroke-width="0" stroke-linecap="round" stroke-linejoin="round" x1="198.1" y1="526.3" x2="193.3" y2="525.9"/>
	
		<line fill="none" stroke="#B4B8A9" stroke-width="0" stroke-linecap="round" stroke-linejoin="round" x1="172.4" y1="373.8" x2="172.9" y2="368.9"/>
	<polygon fill="#B77D3C" points="207.3,450 206.7,449.2 206.4,448.9 204.5,446.2 205.5,449.4 205.8,449.5 	"/>
	
		<line fill="none" stroke="#D3D8BC" stroke-width="0" stroke-linecap="round" stroke-linejoin="round" x1="207.6" y1="481.8" x2="206.4" y2="484.8"/>
	
		<line fill="none" stroke="#D3D8BC" stroke-width="0" stroke-linecap="round" stroke-linejoin="round" x1="206.4" y1="484.8" x2="205.9" y2="486.1"/>
	
		<line fill="none" stroke="#5D2413" stroke-width="0" stroke-linecap="round" stroke-linejoin="round" x1="226.8" y1="334.7" x2="223.9" y2="336.7"/>
	
		<line fill="none" stroke="#5D2413" stroke-width="0" stroke-linecap="round" stroke-linejoin="round" x1="226.8" y1="334.7" x2="226.8" y2="334.7"/>
	<path fill="#D3D8BC" d="M159.2,437.8C159.1,437.8,159.1,437.8,159.2,437.8l-0.6,0.5l0.4,0.7c0.1-0.1,0.1-0.2,0.2-0.3
		C159.3,438.4,159.3,438.1,159.2,437.8z"/>
	
		<line fill="none" stroke="#D3D8BC" stroke-width="0" stroke-linecap="round" stroke-linejoin="round" x1="197.2" y1="460.1" x2="196.7" y2="460.4"/>
	
		<line fill="none" stroke="#D3D8BC" stroke-width="0" stroke-linecap="round" stroke-linejoin="round" x1="197.2" y1="460.1" x2="198.3" y2="459.3"/>
	
		<line fill="none" stroke="#D3D8BC" stroke-width="0" stroke-linecap="round" stroke-linejoin="round" x1="197.2" y1="460.1" x2="197.2" y2="460.1"/>
	
		<line fill="none" stroke="#D3D8BC" stroke-width="0" stroke-linecap="round" stroke-linejoin="round" x1="196.7" y1="464.3" x2="197.9" y2="465.7"/>
	<path fill="#E8B919" d="M179.8,581c0,0.9,2.1,2.8,3.5,2.7c1.4-0.2,2.8-1.9,5.3-3.7c-2.8-1.6-4.8-3.2-6-3
		C181.4,577.1,179.8,580.1,179.8,581z"/>
	<path fill="#E8B919" d="M159.1,584.1c-0.8,0.2-1.4,0.8-1.6,1.6c-0.2,0.5,0.7,1.1,1.4,1.9c0.7-0.9,1.6-1.6,1.6-2.1
		C160.6,585,159.5,584.1,159.1,584.1z"/>
	<path fill="#9FA399" d="M199.5,650.2l0.7,0.4c0.2-0.2,0.4-0.5,0.4-0.7l-0.7-0.4C199.9,649.6,199.5,650,199.5,650.2z"/>
	<path fill="#5D2413" d="M420.5,490c0.1-0.2,0.1-0.4,0.1-0.6c0,0,0,0-0.1,0C420.6,489.6,420.6,489.8,420.5,490z"/>
	<path fill="#5D2413" d="M403.1,506.4c2.3,19.8,10.8,36.1,27.3,47.8l0.1,0.1c19.3-16.2,38.9-13.3,58.7-1.2l10.1-11.3l-0.3,0.8
		c0.2-0.3,0.4-0.6,0.7-0.8c0,0,0.1,0,0.1-0.1c0.6-0.4,0.8-1.1,0.4-1.7l10.1-29l-0.2-0.8c-0.2-6.9,0.7-14.2-0.5-20.7
		c-1.2-6.5-5.3-9.7-10.4-2.1l-1.4,1.6h0.2c0,0,0,0-0.1,0l0.2,0c-4.7,9.1-10.8,9.4-18.1,3.6c-0.2-0.1-0.3-0.2-0.5-0.3
		c-10.8-4.6-21.6-9.4-32.2,0.2c0,0,0,0,0,0l0,0c-0.2,5.7-2.5,10.3-8.3,11.7c-5.8,1.4-11.5,1.1-15.2-5c0,0,0,0,0,0l-2.3-7.3l0.9,1.3
		c-0.3-0.5-0.6-0.9-0.9-1.3l-1.1-1.8c0,0,0.1-0.1,0.1-0.1l-0.5-1.1c0-0.2,0-0.5,0-0.7l0,0c4.6-19.2,17.7-0.4,26-6.9
		c-15.4-3-31.7-14-41.2,9.2l0,0v0l-1.6,5.3c0,0,0,0,0,0l-0.3,3.5C402.9,502,402.9,504.1,403.1,506.4z M499.2,542l0.5-1.8L499.2,542z
		"/>
	<path fill="#5D2413" d="M237.7,538.5c0.1-0.1,0.1-0.2,0.2-0.2c5.1,3,6,7.3,3,12.2c-0.1,0.1-0.1,0.2-0.2,0.3c0,0,0,0,0,0
		c0,8-15.4,14-4.6,22.5c5.1,3.9,4.4,5,3.5,10.3c-1.4,9-11.7,18.4-1.9,27.4c9.7,9,18.6,16.1,33.1,0.9c9-9.4,9.9-11.5,1.6-18.8
		c-0.1-0.1-0.1-0.3-0.2-0.4c-7.5-8.1-9.8-17.7-8.2-28.5c0-0.1-0.1-0.2-0.1-0.3c-0.5-2.1-0.4-5.1-1.8-6.2
		c-16.3-11.7-14-26.6-8.1-42.3l-0.6-0.6l-11.8-10.2l-2.4-2L237.7,538.5z"/>
	<path fill="#5D2413" d="M415.5,453.3C415.5,453.3,415.5,453.3,415.5,453.3l2.1-10.4h0c-1.8-11-6.2-20-15.8-26.4c0,0-0.1,0-0.1-0.1
		l-4.9,2c0.1-0.3,0.2-0.7,0.4-1c-0.2,0.4-0.4,0.7-0.5,1.1c-8.7-3.9-17.3-8.7-26.4-1.1c-1.8-1.6-1.4,0.5-1.9,1.1
		c-7.8,6.5-12.3,16.2-12.2,26.4l0.6,1.4l1.2,6.7h-0.4c0.1,0.1,0.2,0.1,0.2,0.2l5.3,9.4h0l19.6-4.2c0.5-0.5,0.9-0.5,1.2,0.2l22.1-0.3
		c0.2-0.1,0.5-0.1,0.7-0.2l7.4-1.1c0,0,0,0,0.1,0L415.5,453.3C415.5,453.3,415.5,453.3,415.5,453.3z M368.5,418.6l1.9-1.1
		L368.5,418.6z"/>
	<path fill="#B77D3C" d="M420.7,489.4c0-0.1,0-0.2-0.1-0.3C420.6,489.2,420.6,489.3,420.7,489.4
		C420.6,489.4,420.6,489.4,420.7,489.4z"/>
	<path fill="#B77D3C" d="M445.9,481.5c-8.3,6.5-21.4-12.3-26,6.9l0.7,0.7c9.4-6,17.5-3.7,25.1,3.4c0,0,0,0,0,0l0,0
		c0.4,0.3,0.9,0.3,1.4,0.2c0,0,0,0,0,0c10.6-9.6,21.4-4.8,32.2-0.2c0.2,0.1,0.3,0.2,0.5,0.3c-0.1-0.1-0.2-0.2-0.3-0.3l18.2-3.3
		c0,0,0,0,0.1,0h-0.2l1.4-1.6c5.1-7.6,9.2-4.4,10.4,2.1c1.2,6.5,0.4,13.8,0.5,20.7l0.2,0.8l2.8,10.6c1.8-7.8,4.2-14.2,4.2-20.4
		c-0.2-16.1-3.2-29.7-24.8-19.3c-9.9,4.8-20.2,4.6-30.8,0.7c-13.5-4.9-27.4-9-41.4-12.2c-6.7-1.6-13.5,1.8-17,8.5
		c-2.1,3.9-3.7,8.3,1.4,11.7l0,0C414.2,467.5,430.5,478.5,445.9,481.5z M451.4,485l-0.4-0.9h0.7c0,0.2,0,0.4,0.2,0.5L451.4,485z
		 M497.6,489.1l1.4-1.6L497.6,489.1z"/>
	<path fill="#B77D3C" d="M554.6,421.5c-0.2,0.9-0.3,1.9-0.4,2.8L554.6,421.5z"/>
	<path fill="#B77D3C" d="M554.4,453.5c0.1,0,0.2,0,0.4,0c0,0,0,0,0,0c1.4-5,3.2-10.1,4.2-15.2c4.6-22.7-9.9-49.7-32.4-57.9
		c-19.5-7.1-37.4-6.2-49.2,14.9c-11.9,21.1-8.5,41.8,7.6,60.2l1.4-1.4l-6.1-11.4c0,0,0.1-0.1,0.1-0.1l-0.3-0.1l-5.3-17.2
		c0.1,0.1,0.2,0.2,0.3,0.3c-0.1-0.2-0.2-0.3-0.3-0.5c-1.4-22.1,6.4-38.6,29.6-42.8c23.2-4.2,45.5,14,50.3,39.1l1.2,14.3c0,0,0,0,0,0
		c0.1,0.1,0.3,0.3,0.4,0.4c-0.7,14.5-8.1,24.6-20.9,31c-0.2-0.1-0.4-0.2-0.5-0.3c-12.5,5.1-24.5,5-35.6-3.6c0,0,0,0,0,0l-8.4-4.8
		l-0.1-0.1l-0.8,1c0,0.1,0,0.2,0,0.3c12,14.4,27.7,14.7,44.3,12.4c0,0,0,0,0,0C542.4,467.5,549.6,461.8,554.4,453.5z"/>
	<path fill="#B77D3C" d="M533,466.3c0.3,0.1,0.6,0.1,0.9,0.2C533.6,466.4,533.3,466.3,533,466.3z"/>
	<path fill="#FBD978" d="M354.6,469.7c-0.1,0-0.1-0.1-0.2-0.1c-11,0.9-14.3,9.4-14.3,18.1s9.7,4.4,15,4.6
		c28.6,0.4,48.7-13,48.5-31.7c-13.9,0.3-22.7,12.2-35.4,15.6C361.1,478.1,356.9,476.3,354.6,469.7z"/>
	<path fill="#B77D3C" d="M409.8,401.8c-19.5-10.6-38.6-5.1-52,11.7c-13.5,16.8-14.5,35.6-3.2,54.3h1.1l-3.4-14.7
		c0.1,0,0.1-0.1,0.2-0.1v-9.2c-0.5-1.3-0.2-3,0-4.5v-2.5c-0.1-0.4-0.2-0.8-0.4-1.1c3.4-19.8,15.2-32.2,34.9-34
		c19.6-1.8,34.5,8.7,42,28c0,0,0,0,0,0l2.8,16.4c0.1,0,0.1,0.1,0.2,0.1l-1.9,14.3c5.1-1.2,4.8-5.8,5.1-9.2
		C437.6,429.3,429.3,412.4,409.8,401.8z"/>
	<polygon fill="#B77D3C" points="355.6,467.8 355.6,467.8 355.6,467.8 	"/>
	<path fill="#5D2413" d="M264.5,501.1C264.5,501.1,264.5,501.1,264.5,501.1l-0.2-0.2l-1.4-8.4c-7.5-2.9-9.2-9-9.8-16
		c0-0.1-0.1-0.2-0.1-0.2c-11.9-5.3-18.8-14.6-20.7-27.5c0,0,0,0,0,0l-3.5,1.8c0,0.2,0,0.3,0,0.4C227,477.2,245.6,489,264.5,501.1z"
		/>
	<path fill="#E8ECC2" d="M382.7,458.5l-19.6,4.2h0l0,0l-7.4,5.1l0,0h0h-1.1l0,1.8c0,0,0,0.1,0,0.1c2.3,6.7,6.5,8.4,13.6,6.5
		c12.7-3.3,21.5-15.3,35.4-15.6c0.1,0,0.1,0,0.2,0l3.2-2.3l-0.9,0l-22.1,0.3C383.6,457.9,383.2,457.9,382.7,458.5z M384,458.6
		l-0.7,0.4l-0.5-0.5C383.1,458.2,383.6,458.3,384,458.6z"/>
	<path fill="#FBD978" d="M554.8,453.6c-0.1,0-0.2,0-0.4,0c-4.8,8.3-12,14-20.2,18.6c0,0,0,0,0,0c1.2,5.6,3.9,10.4,10.4,9.2
		c11.5-1.9,24.6-28.5,19.5-40.2C562.4,446.7,564.1,454.9,554.8,453.6z"/>
	<path fill="#FBD978" d="M430.4,554.3l-0.1-0.1c-16.5-11.7-25-28-27.3-47.8c-0.2-2.3-0.2-4.4-0.4-6.9l0.3-3.5l0-0.2
		c-9.7,19.5,3.2,36.3,9.7,51.9c3.9,9,17,19.3,31.5,18.9l-2.8-2.5L430.4,554.3z"/>
	<path fill="#FBD978" d="M431.7,446l0,0.1c-7.1-1.4-10.8,5-16.3,7.3c0,0,0,0,0,0l-1.2,3.7l-0.1,0.2l15.8,3.4l0-0.2l1.9-14.3
		C431.9,446,431.8,446,431.7,446z"/>
	<polygon fill="#B77D3C" points="264.3,500.9 264.5,501 271.9,504.1 271.2,488.4 271,488.5 262.9,492.4 262.9,492.6 	"/>
	<polygon fill="#FBD978" points="489.1,553.2 493.3,557.6 493.5,557.1 498.9,542.7 499.2,541.8 	"/>
	<path fill="#FBD978" d="M595,400.6l1.9,1.4c0.4-0.5,0.9-1.1,0.9-1.4c-0.3-0.7-0.6-1.4-1.1-1.9L595,400.6z"/>
	<polygon fill="#B77D3C" points="486.4,454.2 486.4,454.1 485,455.4 489.8,459.7 490,459.4 490.8,458.4 	"/>
	<path fill="#FBD978" d="M342.4,440.9l-0.7-0.4c-0.2,0.2-0.4,0.5-0.4,0.7l0.7,0.4C342.2,441.3,342.4,441.1,342.4,440.9z"/>
	
		<line fill="none" stroke="#FBD978" stroke-width="0" stroke-linecap="round" stroke-linejoin="round" x1="499.2" y1="542" x2="499.7" y2="540.2"/>
	<path fill="#5D2413" d="M274.9,577.1C274.9,577.1,274.9,577.1,274.9,577.1c7,0.4,10.4-6.6,10.8-9.7c0.4-3.2,0.4-10.1-5.5-9
		c-11,1.9-3.7,11.5-5.7,17.3C274.7,576.1,274.8,576.6,274.9,577.1z"/>
	<path fill="#95978D" d="M272.2,592.8c0.1,0.1,0.1,0.2,0.2,0.2c4.1-4.8-9.6-12.4,2.5-15.9c0,0,0,0,0,0c-0.1-0.5-0.2-1-0.4-1.4
		c-6.2-1.4-7.3-7.6-10.4-12c0,0.2-0.1,0.4-0.1,0.7C262.5,575,264.8,584.6,272.2,592.8z"/>
	<path fill="#95978D" d="M237.9,538.3c-0.1,0.1-0.1,0.1-0.2,0.2c-2.4,3.1-7.2,6.7-5.8,9.7c1.4,2.9,5.8,7,8.8,2.6
		c0.1-0.1,0.1-0.2,0.2-0.3C243.9,545.6,243,541.3,237.9,538.3z"/>
	<path fill="#E8ECC2" d="M473.2,567.5c1.2,1.1,1.9,3.5,3.9,3c1.9-0.5,3.7-2.5,6.4-4.4c-2.7-1.9-4.8-4.2-5.3-3.7
		C476.2,563.8,474.6,565.5,473.2,567.5z"/>
	<path fill="#D3D8BC" d="M464.1,559l12.4,1.6C471.9,555.6,469.4,555.1,464.1,559z"/>
	<polygon fill="#B77D3C" points="423.2,644.5 423.2,644.5 423.2,644.5 	"/>
	<path fill="#B77D3C" d="M423.2,644.5l-0.5,0.5c-0.1,0.2-0.1,0.3-0.2,0.5L423.2,644.5z"/>
	<path fill="#F4C861" d="M622.6,300.7c-0.2-6,5.1-6,10.4-6.4l-7.7-10.3l-0.2-0.3l-5.3,12.2l1.8,17.5c-0.1-0.1-0.1-0.2-0.2-0.2
		c0.1,0.2,0.1,0.4,0.2,0.6h0l15-7.6C629.3,305.2,622.7,306.8,622.6,300.7z"/>
	<polygon fill="#F4C861" points="642.9,276.5 642.9,276.5 642.7,276.3 634.1,276.3 633.9,276.3 632.1,278.1 632,278.1 632.1,278.2 
		633.9,276.5 632.1,278.2 632.2,278.3 641,285.9 	"/>
	<polygon fill="#F4C861" points="642.9,276.5 643.1,276.1 642.7,276.3 642.7,276.3 642.9,276.5 	"/>
	<path fill="#FBD978" d="M635.5,328l-1-0.8l-5.8-4.7c0,0,0,0,0,0C628.8,327.1,632.1,327.6,635.5,328z"/>
	
		<line fill="none" stroke="#FBD978" stroke-width="0" stroke-linecap="round" stroke-linejoin="round" x1="628.4" y1="322.5" x2="626.6" y2="321.6"/>
	
		<line fill="none" stroke="#FBD978" stroke-width="0" stroke-linecap="round" stroke-linejoin="round" x1="626.6" y1="321.6" x2="625.4" y2="321.1"/>
	
		<line fill="none" stroke="#FBD978" stroke-width="0" stroke-linecap="round" stroke-linejoin="round" x1="625" y1="320.9" x2="625.4" y2="321.1"/>
	<path fill="#B77D3C" d="M382,322.3c2.7,6.9-0.4,12.6-5.7,17.2c-2.3,1.9-6,3.7-3.4,7.6c1.9,2.9,4.5,5.2,7.6,6.7c4.1,1.6,6-1.9,8.1-5
		c10.2-14.1,4.8-27.5-1.3-40.9c0-0.1,0-0.1-0.1-0.2c-2.3-4.2-5.7-7.8-6.4-12.9c-0.7-5.1,5-13.6-4.1-14.2c-9-0.5-8.9,9.2-8.5,15.2
		s2.3,11.9,3.5,17.7C378.8,312.4,379.3,315.4,382,322.3z"/>
	<path fill="#5D2413" d="M378.8,387.7c0.2-0.1,0.3-0.2,0.5-0.3c8.2-4.7,16.8-8.7,24.4-14c4.6-3.2,8-9,3.9-14.7
		c-4.1-5.7-10.6-3.5-15-0.5c-7.3,4.9-14,10.6-20.2,16.8c-2.8,2.8-7.1,5.7-5.3,11c1.7,5,6.9,1.9,10.9,1.6c0.3,0,0.5,0,0.8,0
		L378.8,387.7z"/>
	<path fill="#5D2413" d="M464,342c4.8,14.2,18.4,14,30.3,17.5c3.9-1.8,12.9-0.9,10.3-6c-6-12.6-19.8-14.9-32.6-17
		C468,335.8,462.5,337.6,464,342z"/>
	<path fill="#E8ECC2" d="M523.8,310.6L523.8,310.6l7.4-2.7c0,0,0-0.1,0-0.1c-3.8-13-14.7-11.6-24.6-12.1l0.2,9l0.1,0.1l6.6,3.5
		L523.8,310.6z"/>
	<path fill="#F4C861" d="M328.4,402c5.2-1,9.1-5.3,9.6-10.6c0.5-5.1-1.2-8.1-7.4-7.8c-6.2,0.4-9,6.2-9.4,10.8S323.6,401.3,328.4,402
		z"/>
	<path fill="#F4C861" d="M359.7,319.8C359.7,319.7,359.7,319.7,359.7,319.8l-24.8,16.6c0.2-0.1,0.4-0.1,0.6-0.2
		C345.5,333.6,361.4,339.8,359.7,319.8z"/>
	<path fill="#F4C861" d="M436.9,337.7c0.1,0,0.2,0,0.4,0c3.9,0,7.1-3.2,7.1-7.1c-0.2-3.9-1.6-6-6-6s-6.9,2.8-7.3,7.1
		c-0.1,0.4-0.1,0.9,0,1.3C431.3,336,434,338.1,436.9,337.7z"/>
	<path fill="#F4C861" d="M297.6,382.9L297.6,382.9l-3.5-0.4c0.4,12.7-18.9,0.4-17.9,14c0,0,0,0,0,0c0,0.1,0,0.1,0,0.2h13.8h0.4
		C296.9,394.4,296.7,388.4,297.6,382.9z"/>
	<path fill="#F4C861" d="M523.8,310.6L523.8,310.6l-10.3-2.3c2.8,15.9,14.7,10.8,24.4,10.6L523.8,310.6z"/>
	<path fill="#F4C861" d="M280.7,421.1C280.7,421.1,280.7,421.2,280.7,421.1c-3.6,3.7-5.2,8.7-4.6,13.7c0,0.3,0.1,0.6,0.1,0.8
		L280.7,421.1z"/>
	<path fill="#F4C861" d="M533,373.8c2.7-0.4,6.4,0.7,6-3.9c-0.3-1.1-1.2-2-2.3-2.3C532.3,367.6,533.4,371.2,533,373.8z"/>
	<path fill="#F4C861" d="M358.6,384.6c0-0.7-1.1-3.5-2.1-2.8c-1.1,0.7-2.7,1.8-3,2.5c-0.4,0.7,0.9,2.1,1.8,3.9
		C356.7,386.6,358.6,385.4,358.6,384.6z"/>
	<path fill="#F4C861" d="M530.9,329.2c0.9,0.5,1.9,1.4,2.7,1.4c0.7,0,1.6-1.2,3-2.5c-1.8-0.7-3-1.6-3.7-1.2
		C532.1,327.3,530,328.7,530.9,329.2z"/>
	<path fill="#F4C861" d="M286.9,403.9l-0.2,0.4l-2.8,6.6c0,0,0,0,0,0C286.8,409.6,288.7,407.5,286.9,403.9z"/>
	
		<line fill="none" stroke="#F4C861" stroke-width="0" stroke-linecap="round" stroke-linejoin="round" x1="282.3" y1="416.2" x2="281.8" y2="417.9"/>
	
		<line fill="none" stroke="#F4C861" stroke-width="0" stroke-linecap="round" stroke-linejoin="round" x1="283.4" y1="412.8" x2="282.3" y2="416.2"/>
	
		<line fill="none" stroke="#F4C861" stroke-width="0" stroke-linecap="round" stroke-linejoin="round" x1="330.1" y1="340" x2="333" y2="337.4"/>
	
		<line fill="none" stroke="#F4C861" stroke-width="0" stroke-linecap="round" stroke-linejoin="round" x1="325.2" y1="345.6" x2="325.4" y2="345.3"/>
	
		<line fill="none" stroke="#F4C861" stroke-width="0" stroke-linecap="round" stroke-linejoin="round" x1="323.9" y1="346.9" x2="325.2" y2="345.6"/>
	<path fill="#5D2413" d="M294,382.5c-9-1.6-4.6-22.3-20.4-14.2c-0.1,0-0.1,0.1-0.2,0.1c0.1,0,0.1,0,0.2,0.1l-8.5,12.6c0,0,0,0-0.1,0
		c-4.9,11.1-8,21.1,11,15.4c0,0,0,0,0,0C275.1,382.9,294.4,395.3,294,382.5z"/>
	<path fill="#F4C861" d="M340.6,276.8c-0.2-0.1-0.4-0.1-0.5-0.2c-31.1-10.3-21.1,13.6-22.8,27.9c7-2.7,12.6-8,15.9-14.7
		c0,0,0,0,0-0.1L340.6,276.8z"/>
	<path fill="#F4C861" d="M317.2,304.6C317.2,304.6,317.2,304.6,317.2,304.6c-0.1-0.1-0.1,0-0.2,0H317.2z"/>
	<path fill="#C0C6B1" d="M253,476.3c0,0,0.1,0,0.1,0.1l1.1-11.3c0-0.1,0-0.1,0-0.2l-8.1-10.4c-0.4-1.1-1.1-1.9-1.4-3v-2.3l-8-11
		l-4.4,10.4c0,0.1,0,0.1,0,0.2C234.3,461.7,241.1,471,253,476.3z"/>
	<path fill="#FBD978" d="M368.9,256.3L368.9,256.3l10.1-11.2c-13.3,0-33.8-10.8-27.6,17.7c0.1,0.3,0.1,0.6,0.2,0.8L368.9,256.3z"/>
	<path fill="#F4C861" d="M273.7,368.5c-0.1,0-0.1,0-0.2-0.1c-4.6-1.4-10.6-4.3-13.4,0.8c-2.8,5.1-0.5,9.5,5.1,11.8c0,0,0,0,0.1,0
		L273.7,368.5z"/>
	<path fill="#B77D3C" d="M246.1,454.4l8.1,10.4l0,0c5-10.3-3.9-12-9.6-15.9v0.2v2.3C245,452.4,245.7,453.3,246.1,454.4z
		 M244.8,451.4l1.4,3L244.8,451.4z"/>
	<path fill="#F4C861" d="M317,304.8c0,0-0.1,0.1-0.1,0.1c0.2,0,0.3,0,0.5,0L317,304.8z"/>
	<path fill="#F4C861" d="M253.5,339.1c0.5,3-1.6,11.2,1.8,8.7c20.3-14.7,45.2-22.8,61.7-42.9c-4-0.4-8.3,0-11.8-1.5
		c-16.8-7.6-21.6-0.7-20.7,15.4c0.5,9-4.2,12.6-12.6,7.4C255.3,316,251,322.9,253.5,339.1z"/>
	<path fill="#F4C861" d="M219.3,345.2c-2.7,1.4-1.4,19.1-0.2,19.3c10.3,1.9,17.2-7.3,31-11.3C236.1,350.8,228.7,340.6,219.3,345.2z"
		/>
	<path fill="#F4C861" d="M195.1,369.4c4.6-8.5,10.6,0.5,16.8-2.8l-15.8-7.1L195.1,369.4z"/>
	<path fill="#E8B919" d="M503.8,231.7c1.6-0.2,3-1.8,5.3-3.2c-2.1-1.8-3.9-3.9-4.2-3.5c-1.7,0.9-3,2.2-3.9,3.9
		C500.6,229.2,502.2,231.9,503.8,231.7z"/>
	<path fill="#E8B919" d="M471.4,214.2c0.2-0.7-1.4-2.8-2.7-2.5c-1.2,0.4-2.3,1.8-3.5,2.7l3.4,4.1C470,216.7,471.2,214.9,471.4,214.2
		z"/>
	<polygon fill="#FBD978" points="527.7,216.3 527.5,216.3 524.3,216.5 524,216.5 527.7,219.8 527.7,219.7 	"/>
	<path fill="#FBD978" d="M619.7,296c-2.6,5.6-2,12.2,1.6,17.3c0.1,0.1,0.1,0.2,0.2,0.2L619.7,296z"/>
	
		<line fill="none" stroke="#FBD978" stroke-width="0" stroke-linecap="round" stroke-linejoin="round" x1="632.1" y1="278.2" x2="632.1" y2="278.3"/>
	
		<line fill="none" stroke="#FBD978" stroke-width="0" stroke-linecap="round" stroke-linejoin="round" x1="633.9" y1="276.5" x2="632.1" y2="278.2"/>
	<path fill="#C0C6B1" d="M445.7,492.4C445.7,492.4,445.7,492.4,445.7,492.4c-7.6-7.1-15.8-9.4-25.1-3.4c0,0.1,0.1,0.2,0.1,0.3
		c0,0.2,0,0.4-0.1,0.6c0,0.1-0.1,0.2-0.1,0.3l-0.1-0.1c0,0-0.1,0.1-0.1,0.1l1.1,1.8c0.4,0.4,0.7,0.8,0.9,1.3l3,4.2
		C433,499.9,440.8,501.5,445.7,492.4z"/>
	<path fill="#D3D8BC" d="M445.7,492.4L445.7,492.4c-5,9-12.7,7.4-20.5,5.1l-1.6,1.8v0c0,0,0,0,0,0c3.7,6,9.4,6.4,15.2,5
		c5.8-1.4,8.1-6,8.3-11.7l0,0C446.7,492.8,446.2,492.7,445.7,492.4z"/>
	<path fill="#C0C6B1" d="M479.5,492.4c0.1,0.1,0.2,0.2,0.3,0.3c7.3,5.7,13.4,5.5,18.1-3.6l-0.2,0L479.5,492.4z"/>
	<polygon fill="#E8ECC2" points="425.2,497.6 422.2,493.4 421.3,492.1 423.6,499.3 423.6,499.3 	"/>
	
		<line fill="none" stroke="#C0C6B1" stroke-width="0" stroke-linecap="round" stroke-linejoin="round" x1="499" y1="487.5" x2="497.6" y2="489.1"/>
	<path fill="#747471" d="M420.5,490c0.1-0.2,0.1-0.4,0.1-0.6c0-0.1,0-0.2,0-0.3l-0.7-0.7l0,0c0,0.2,0,0.5,0,0.7l0.5,1.1l0.1,0.1
		C420.5,490.2,420.5,490.1,420.5,490z"/>
	<path fill="#E8ECC2" d="M356.1,445c-0.1-10.2,4.4-19.8,12.2-26.4c0.5-0.5,0.2-2.7,1.9-1.1c9-7.6,17.7-2.8,26.4,1.1
		c0.2-0.4,0.3-0.8,0.5-1.1c0.9-2.1,2.1-3.2,4.8-1.2l-0.3,0.1c0,0,0.1,0,0.1,0.1c9.6,6.4,14,15.4,15.8,26.4
		c5.7-2.7,12.4-4.8,11.3-13.3l0,0c0,0,0,0,0,0c-7.4-19.3-22.3-29.7-42-28c-19.6,1.8-31.5,14.2-34.9,34c0.2,0.4,0.3,0.7,0.4,1.1v-1.1
		L356.1,445z"/>
	<path fill="#E8ECC2" d="M352.4,443.8v-4.5C352.3,440.8,352,442.5,352.4,443.8z"/>
	<path fill="#D3D8BC" d="M417.6,442.9L417.6,442.9l-2.1,10.4c0,0,0,0,0,0c5.5-2.3,9.2-8.7,16.3-7.3l0-0.1l-2.8-16.4l0,0
		C430,438.1,423.2,440.2,417.6,442.9z"/>
	<path fill="#FBD978" d="M363.1,462.7L363.1,462.7l-5.3-9.4c-0.1-0.1-0.2-0.1-0.2-0.2h-5.1V453c-0.1,0-0.1,0.1-0.2,0.1l3.4,14.7l0,0
		L363.1,462.7z"/>
	<polygon fill="#C0C6B1" points="357.5,453.1 357.9,453.1 356.7,446.4 356.1,445 352.4,435.6 352.4,436.7 352.4,439.3 352.4,443.8 
		352.4,453 352.4,453.1 	"/>
	<path fill="#D3D8BC" d="M397.2,417.5c-0.1,0.3-0.2,0.6-0.4,1l4.9-2l0.3-0.1C399.4,414.3,398.1,415.4,397.2,417.5z"/>
	
		<line fill="none" stroke="#C0C6B1" stroke-width="0" stroke-linecap="round" stroke-linejoin="round" x1="370.5" y1="417.6" x2="368.5" y2="418.6"/>
	<path fill="#B4B8A9" d="M384,458.6c-0.3-0.3-0.8-0.4-1.2-0.2l0.5,0.5L384,458.6z"/>
	<path fill="#5D2413" d="M451,484.1l0.4,0.9l0.5-0.4c-0.2-0.2-0.2-0.4-0.2-0.5H451z"/>
	<path fill="#E8ECC2" d="M552.5,436.3c0.1-0.1,0.2-0.2,0.3-0.3l0,0h-0.4C552.5,436.1,552.5,436.2,552.5,436.3z"/>
	<path fill="#E8ECC2" d="M492.5,437.2c-5.3-13.8-6.2-27.1,5.8-38.2c5.1-4.8,11.7-7.4,18.8-5.8c22.5,5.1,35,17.9,31.7,42.5
		c0,0.1,0,0.1,0,0.2h3.7c0,0.1,0,0.1,0,0.2l1.7-11.7c0.1-0.9,0.2-1.9,0.4-2.8c-4.8-25.1-27.1-43.4-50.3-39.1
		c-23.2,4.2-31,20.7-29.6,42.8c0.1,0.2,0.2,0.3,0.3,0.5C480.2,430.7,482.9,438.8,492.5,437.2z"/>
	<path fill="#FBD978" d="M546.2,441.5L546.2,441.5C546.2,441.5,546.1,441.5,546.2,441.5L546.2,441.5z"/>
	<path fill="#FBD978" d="M490.8,458.4L490.8,458.4l8.4,4.8c11.5-1.8,22.8,0.3,33.8,3.1c0.3,0.1,0.6,0.1,0.9,0.2
		c0.4,0.1,0.7,0.2,1.1,0.3c-0.1,0-0.1,0-0.2,0.1c0.2,0.1,0.4,0.2,0.5,0.3c12.7-6.4,20.2-16.5,20.9-31c-0.1-0.2-0.2-0.3-0.4-0.4
		c0,0,0,0,0,0l0,0.2h-3l0,0c-0.1,0.1-0.2,0.2-0.3,0.3c0.1,4.1-1.2,6.7-6.1,5.4l0.8,0.6c-0.1,0.1-0.2,0.2-0.2,0.4l0.2-0.2l-0.2,0.2
		c-0.5,0.8-1.3,1.4-2.2,1.6l-0.4,0.3l0.4-0.3c-0.1,0-0.3,0.1-0.4,0.1c-7.3,8.7-16.6,11.7-27.6,10.4c0,0,0.1,0,0.1,0.1
		c0,0,0,0.1,0.1,0.1h-0.5l-0.5-0.2c0.3-0.2,0.6-0.2,0.9,0l-0.3-0.5l-0.5,0.4l-15.9-8.1l-19.6-4c0,0-0.1,0.1-0.1,0.1l6.1,11.4
		l0.1,0.1L490.8,458.4z"/>
	<path fill="#F4C861" d="M533.9,466.5c-0.3-0.1-0.6-0.1-0.9-0.2c-11.1-2.8-22.3-4.9-33.8-3.1c0,0,0,0,0,0
		c11.1,8.6,23.1,8.7,35.6,3.6c0.1,0,0.1,0,0.2-0.1C534.6,466.7,534.2,466.6,533.9,466.5z"/>
	<path fill="#D3D8BC" d="M499.9,446.6l-7.4-9.4c-9.5,1.6-12.3-6.6-17.4-11.5c-0.1-0.1-0.2-0.2-0.3-0.3l5.3,17.2l0.3,0.1L499.9,446.6
		z"/>
	<path fill="#D3D8BC" d="M552.5,436C552.5,436,552.5,436,552.5,436l0.4,0h3l0-0.2l-1.2-14.3l-0.4,2.8L552.5,436z"/>
	
		<line fill="none" stroke="#9EBB31" stroke-width="0" stroke-linecap="round" stroke-linejoin="round" x1="246.2" y1="454.4" x2="244.8" y2="451.4"/>
	<path fill="#5D2413" d="M546.9,442.7l-2.2,1.6C545.6,444.1,546.4,443.5,546.9,442.7z"/>
	<path fill="#5D2413" d="M546.2,441.5L546.2,441.5C546.1,441.5,546.2,441.5,546.2,441.5l2.6-5.7h0c0-0.1,0-0.1,0-0.2
		c3.4-24.6-9.2-37.4-31.7-42.5c-7.1-1.6-13.6,1.1-18.8,5.8c-12,11.2-11.2,24.4-5.8,38.2l7.4,9.4l15.9,8.1l0.5-0.4l0.3,0.5
		c0,0,0,0,0,0c11,1.2,20.4-1.8,27.6-10.4c0.1,0,0.3-0.1,0.4-0.1l2.2-1.6c0.1-0.1,0.2-0.2,0.2-0.4l-0.8-0.6c-0.1,0-0.2,0-0.3-0.1
		L546.2,441.5z M514.4,445.4l1.2-1.1l1.1,1.8c-0.5,0.2-1.1,0.5-1.4,0.5S514.6,445.7,514.4,445.4z"/>
	<path fill="#D3D8BC" d="M552.5,436c0-0.1,0-0.1,0-0.2h-3.7h0l-2.6,5.7l0,0.1l-0.1,0.1c0.1,0,0.2,0.1,0.3,0.1
		c4.8,1.3,6.1-1.4,6.1-5.4C552.5,436.2,552.5,436.1,552.5,436C552.5,436,552.5,436,552.5,436z"/>
	
		<line fill="none" stroke="#D3D8BC" stroke-width="0" stroke-linecap="round" stroke-linejoin="round" x1="544.3" y1="444.7" x2="544.7" y2="444.3"/>
	
		<line fill="none" stroke="#D3D8BC" stroke-width="0" stroke-linecap="round" stroke-linejoin="round" x1="546.9" y1="442.7" x2="544.7" y2="444.3"/>
	
		<line fill="none" stroke="#D3D8BC" stroke-width="0" stroke-linecap="round" stroke-linejoin="round" x1="547.2" y1="442.5" x2="546.9" y2="442.7"/>
	<path fill="#9FA399" d="M515.8,454.9l0.5,0.2h0.5c0,0,0-0.1-0.1-0.1c0,0-0.1-0.1-0.1-0.1c0,0,0,0,0,0
		C516.5,454.7,516.1,454.7,515.8,454.9z"/>
	<path fill="#D3D8BC" d="M516.7,446.1l-1.1-1.8l-1.2,1.1c0.2,0.4,0.5,1.2,0.9,1.2S516.2,446.2,516.7,446.1z"/>
</g>
</svg>
