<?xml version="1.0" standalone="no"?>
<!DOCTYPE svg PUBLIC "-//W3C//DTD SVG 20010904//EN"
 "http://www.w3.org/TR/2001/REC-SVG-20010904/DTD/svg10.dtd">
<svg version="1.0" xmlns="http://www.w3.org/2000/svg"
 width="850.000000pt" height="850.000000pt" viewBox="0 0 850.000000 850.000000"
 preserveAspectRatio="xMidYMid meet">
<metadata>
Created by potrace 1.14, written by Peter Selinger 2001-2017
</metadata>
<g transform="translate(0.000000,850.000000) scale(0.100000,-0.100000)"
fill="#000000" stroke="none">
<path d="M6060 7938 c-144 -68 -189 -88 -197 -88 -4 0 -28 -11 -53 -24 -25
-12 -110 -52 -190 -87 -133 -59 -150 -64 -210 -63 -36 1 -94 11 -130 23 -61
19 -184 48 -308 72 -72 14 -86 2 -78 -62 4 -27 13 -64 21 -83 27 -64 19 -119
-29 -214 -82 -163 -147 -277 -164 -290 -11 -9 -31 -11 -58 -7 -54 8 -72 -1
-79 -38 -13 -65 -14 -66 -63 -69 -42 -3 -49 -6 -64 -38 -10 -19 -19 -39 -21
-43 -2 -8 -309 121 -377 157 -14 8 -99 44 -190 81 -284 115 -376 160 -470 230
-25 19 -81 59 -125 90 -44 30 -105 72 -135 94 -30 21 -81 53 -112 71 l-58 32
0 -31 c0 -65 -4 -61 340 -291 71 -47 166 -109 211 -138 145 -92 247 -156 281
-177 18 -11 49 -29 68 -41 19 -12 69 -43 111 -70 l77 -49 -25 -48 c-13 -26
-21 -52 -18 -57 3 -5 23 -3 47 6 64 22 101 18 138 -16 39 -37 35 -45 -17 -31
-55 16 -125 13 -180 -5 -79 -27 -123 -72 -143 -146 l-11 -38 -127 0 c-73 0
-149 -6 -178 -13 -63 -16 -118 -58 -150 -114 l-26 -43 -71 0 c-141 0 -192 -55
-213 -232 -7 -68 13 -119 77 -192 51 -58 104 -88 198 -115 40 -11 75 -22 78
-24 2 -3 -10 -26 -26 -52 -17 -26 -45 -91 -63 -144 -31 -91 -33 -103 -33 -243
0 -82 -3 -148 -6 -148 -3 0 -23 15 -45 33 -21 18 -83 65 -136 105 -53 39 -99
76 -103 82 -3 5 -12 10 -20 10 -11 0 -10 -12 5 -65 10 -36 15 -65 10 -65 -5 0
-10 4 -12 8 -1 4 -41 35 -88 69 -127 91 -124 87 -116 189 6 69 4 90 -8 109 -9
13 -60 53 -115 89 l-99 65 -48 147 c-27 81 -56 157 -65 168 l-17 21 -68 -22
c-38 -12 -84 -24 -102 -28 -44 -9 -55 -39 -32 -85 10 -19 30 -73 44 -120 15
-47 30 -91 32 -97 4 -9 -5 -13 -30 -13 -50 0 -85 -16 -98 -46 -11 -23 -9 -33
15 -77 l27 -50 -40 -34 c-50 -43 -51 -68 -6 -122 19 -23 40 -57 46 -76 13 -40
63 -75 108 -75 17 0 41 -4 54 -9 23 -9 25 -17 42 -182 10 -96 19 -178 20 -184
0 -5 -29 -12 -65 -16 -78 -8 -119 -27 -139 -64 -13 -25 -12 -31 13 -76 32 -59
33 -69 7 -111 -26 -42 -25 -69 1 -102 20 -26 21 -29 5 -69 -33 -87 -9 -130 77
-140 35 -3 57 -13 77 -32 16 -15 39 -33 52 -39 21 -11 23 -19 29 -126 4 -63
10 -172 14 -242 l8 -128 -164 0 c-159 0 -792 26 -856 36 -26 4 -37 14 -63 60
-25 46 -40 60 -83 80 -63 29 -129 31 -189 5 -52 -22 -84 -57 -117 -128 l-23
-51 -107 -7 c-236 -15 -449 -36 -500 -50 -34 -9 -72 -30 -100 -53 -71 -60 -85
-84 -89 -157 -4 -56 -1 -70 22 -109 33 -57 97 -111 183 -156 37 -19 71 -43 77
-52 8 -13 3 -47 -18 -130 -15 -62 -30 -124 -32 -138 -6 -33 -35 -112 -46 -124
-4 -6 -8 -17 -8 -25 0 -9 -13 -43 -29 -76 -104 -212 -194 -417 -206 -470 -3
-11 -16 -65 -30 -120 -35 -142 -34 -241 6 -403 44 -179 73 -228 234 -385 122
-119 137 -131 242 -183 62 -30 115 -59 118 -64 7 -11 5 -12 -75 -30 -211 -48
-255 -93 -216 -223 19 -65 50 -103 109 -137 45 -26 62 -30 129 -30 70 0 82 3
135 34 32 19 109 76 171 126 150 119 161 125 247 123 62 -1 179 -24 193 -38 3
-3 -6 -18 -20 -33 -41 -43 -48 -66 -48 -145 0 -73 1 -76 44 -135 61 -82 113
-112 198 -112 78 0 144 29 200 87 75 78 87 158 37 256 -30 59 -30 60 -7 52 58
-17 126 -16 207 4 46 12 86 21 88 21 8 0 -9 -45 -45 -120 -46 -94 -48 -142 -9
-193 31 -41 52 -54 150 -87 62 -22 72 -23 128 -11 73 15 147 57 176 100 20 30
21 35 9 74 -20 61 -60 145 -95 197 -35 51 -38 65 -15 74 54 21 124 -9 124 -51
0 -20 24 -93 46 -140 17 -37 66 -81 100 -89 14 -4 52 -4 86 -2 53 4 65 9 89
36 18 20 32 52 41 92 6 33 15 60 18 60 6 0 39 -25 172 -127 68 -53 123 -73
203 -73 124 0 199 39 240 126 50 105 15 156 -137 204 -57 18 -143 46 -193 64
l-90 31 90 6 c140 9 211 48 257 140 16 32 29 80 34 119 5 55 12 71 39 100 52
55 112 155 135 225 12 36 25 67 30 70 5 3 14 -14 20 -37 5 -24 28 -102 50
-174 22 -71 40 -140 40 -153 0 -32 -25 -75 -54 -94 -14 -10 -30 -34 -37 -56
-19 -64 23 -149 97 -198 20 -13 57 -18 157 -21 167 -5 842 15 922 28 33 6 132
15 220 20 143 9 162 13 178 31 9 12 17 31 17 43 0 30 51 108 87 134 l30 21 27
-37 c14 -20 37 -52 49 -71 l22 -33 353 0 c386 1 386 1 471 66 44 33 54 33 85
-4 21 -26 29 -29 45 -20 13 7 28 7 46 0 39 -15 42 -14 71 35 14 25 28 45 30
45 2 0 18 -24 34 -54 17 -30 36 -59 43 -64 17 -14 466 2 670 24 133 15 175 16
258 6 158 -19 424 -36 442 -29 26 10 20 25 -10 30 -125 23 -203 43 -203 53 0
13 68 66 235 184 193 137 237 183 206 215 -5 6 -14 28 -21 50 -7 22 -28 68
-47 103 -43 78 -64 81 -127 18 -47 -47 -64 -92 -46 -125 12 -23 27 -26 50 -11
12 7 12 12 -4 29 -18 20 -18 20 7 26 41 11 71 2 84 -25 15 -31 6 -43 -61 -77
-73 -37 -98 -43 -221 -53 -104 -8 -111 -7 -132 13 -13 11 -23 29 -23 39 0 16
191 187 290 259 26 19 49 48 62 77 19 42 20 58 14 177 -4 71 -13 186 -21 255
-8 69 -17 151 -20 182 -8 70 -38 118 -85 134 -348 114 -491 144 -518 111 -6
-7 -20 -48 -31 -91 -35 -135 -23 -304 25 -353 20 -19 33 -23 90 -23 134 0 224
44 224 109 -1 62 -58 141 -102 141 -28 0 -31 -19 -4 -31 32 -15 38 -33 24 -64
-14 -31 -44 -39 -109 -31 -78 11 -76 8 -72 94 3 79 15 117 40 126 16 7 165
-26 283 -63 l85 -26 13 -60 c28 -134 -6 -467 -59 -570 -44 -86 -82 -111 -219
-145 -47 -12 -118 -30 -158 -41 -170 -46 -429 -51 -587 -10 -44 11 -113 27
-154 35 -216 45 -344 103 -446 202 -86 84 -128 146 -185 275 -23 52 -53 118
-66 148 -13 29 -24 61 -24 70 0 9 -4 21 -8 26 -10 12 -41 93 -47 124 -2 12
-15 59 -29 104 -40 129 -77 305 -83 392 -4 66 -1 99 22 190 44 177 32 169 128
81 47 -43 86 -71 91 -66 8 8 2 327 -10 507 -9 128 -4 137 47 84 23 -24 45 -39
50 -34 5 5 9 105 9 223 1 222 -4 261 -49 405 -46 151 -165 398 -222 463 -56
64 -62 85 -49 181 6 47 13 92 16 99 6 21 41 -3 137 -96 l87 -86 0 46 c0 66
-34 167 -101 298 -32 63 -54 116 -49 118 4 2 47 -15 94 -37 47 -23 90 -41 96
-41 5 0 0 24 -11 53 -29 75 -104 146 -229 218 -104 60 -200 133 -188 144 3 3
45 -1 93 -10 48 -8 92 -15 96 -15 24 0 1 26 -86 96 -95 76 -110 94 -79 94 9 0
50 19 92 42 l75 41 19 -23 c12 -15 17 -32 13 -47 -3 -13 -1 -32 5 -44 9 -16
18 -18 43 -14 27 5 43 -1 94 -34 73 -49 98 -51 189 -12 140 59 211 76 324 76
91 -1 116 -5 190 -31 47 -16 112 -48 144 -70 109 -73 160 -103 165 -99 2 3
-86 95 -196 204 -257 255 -237 248 -433 164 -58 -24 -124 -53 -148 -64 -58
-26 -87 -24 -195 12 -123 42 -293 125 -707 348 -169 91 -185 101 -173 110 5 3
33 40 63 81 30 41 59 78 63 81 5 4 -13 14 -40 23 -59 20 -58 6 -13 209 42 190
127 408 178 459 16 16 179 87 247 108 17 6 83 37 148 70 65 33 124 60 131 60
20 0 218 -152 372 -285 76 -66 151 -130 166 -143 l27 -23 43 29 c53 36 109 97
213 228 l80 102 55 -31 c30 -17 62 -36 71 -44 20 -16 39 -17 39 0 0 28 -87
173 -135 225 -2 2 -78 -66 -170 -152 l-165 -156 -143 118 c-78 64 -196 170
-262 235 -74 71 -129 117 -140 116 -11 0 -49 -14 -85 -31z m178 -90 c203 -191
424 -393 433 -397 6 -2 78 63 159 144 129 128 152 146 176 143 19 -2 36 -14
51 -37 13 -19 21 -36 19 -38 -2 -3 -18 3 -36 12 -53 27 -69 18 -137 -80 -34
-49 -98 -125 -141 -169 l-80 -78 -153 121 c-85 66 -211 166 -282 222 l-127
101 -128 -57 c-70 -31 -145 -65 -167 -75 -22 -11 -94 -42 -160 -71 -136 -58
-294 -148 -295 -167 0 -10 6 -9 28 2 15 7 43 21 63 29 l37 15 -38 -81 c-35
-76 -98 -278 -106 -337 -2 -14 -14 -56 -27 -95 l-23 -70 -45 2 c-24 1 -77 8
-116 14 -83 13 -89 23 -48 79 21 29 35 80 21 80 -2 0 -76 11 -163 25 -87 14
-161 25 -166 25 -4 0 29 73 74 162 l81 163 17 -35 c9 -19 23 -36 32 -38 14 -3
13 10 -7 105 -30 143 -55 276 -52 278 11 9 247 -42 452 -98 60 -16 149 13 371
118 17 8 86 39 155 69 69 30 141 61 160 69 67 29 85 23 168 -55z m-3153 -263
c261 -183 419 -288 485 -321 36 -18 128 -54 205 -79 94 -31 223 -87 395 -172
182 -89 273 -128 320 -137 81 -16 161 -50 191 -82 29 -31 49 -31 49 0 0 14 3
27 8 29 7 5 236 -70 337 -110 123 -49 266 -118 630 -303 382 -195 522 -260
558 -260 14 0 17 -5 12 -20 -8 -25 6 -25 53 -1 99 52 293 132 334 137 73 10
108 -8 184 -94 107 -121 101 -112 57 -101 -233 56 -379 51 -536 -21 -75 -34
-125 -37 -177 -12 -25 12 -36 25 -38 45 -3 23 -7 26 -28 21 -51 -13 -59 -10
-80 36 -40 82 -62 89 -120 38 -33 -30 -44 -33 -98 -33 -52 0 -80 8 -196 58
-74 33 -171 74 -215 93 -44 19 -93 41 -110 49 -16 8 -109 49 -205 91 -277 121
-318 144 -374 209 -83 97 -190 131 -319 101 -38 -9 -78 -16 -90 -16 -19 0
-107 71 -107 85 0 3 14 5 30 5 22 0 30 5 31 18 1 20 5 45 14 80 6 23 5 24 -32
17 -21 -4 -56 -13 -78 -21 -64 -22 -86 -17 -175 40 -47 30 -103 65 -125 79
-22 13 -83 52 -135 85 -52 33 -129 81 -170 107 -81 51 -210 138 -293 197 -29
20 -95 66 -148 102 -53 36 -99 72 -103 81 -8 23 4 18 59 -20z m1770 -515 c94
-11 187 -20 208 -20 20 0 37 -2 37 -5 0 -2 -15 -28 -33 -57 -117 -191 -125
-199 -177 -178 l-28 12 44 63 c24 34 44 67 44 72 0 17 -52 35 -137 48 -79 12
-134 10 -133 -4 1 -3 5 -25 9 -48 l8 -42 -26 18 c-53 38 -64 58 -58 101 7 51
23 71 51 65 11 -3 98 -14 191 -25z m-45 -85 c36 -8 75 -17 88 -20 22 -6 23 -6
5 -35 -10 -17 -34 -47 -54 -66 -30 -29 -43 -35 -63 -30 -39 10 -56 33 -56 79
0 23 -3 52 -6 65 -8 27 -2 27 86 7z m455 -131 c72 -15 131 -28 133 -29 3 -3
-58 -92 -94 -138 -12 -15 -28 -27 -35 -27 -7 0 -44 14 -83 31 -39 17 -98 43
-131 57 -33 14 -64 29 -69 33 -4 4 4 28 19 53 26 45 28 46 78 46 29 0 111 -12
182 -26z m-1077 -139 c55 -17 62 -25 36 -46 -8 -7 -26 -34 -39 -59 -20 -39
-23 -60 -21 -120 2 -69 1 -72 -24 -82 -57 -22 -171 12 -217 65 -47 55 -54 95
-27 153 40 84 172 124 292 89z m426 -5 c21 -6 56 -28 78 -49 37 -34 40 -41 45
-104 8 -100 -13 -148 -86 -195 -54 -35 -60 -37 -163 -40 -118 -5 -162 6 -227
55 -64 49 -90 156 -55 229 21 43 80 91 136 109 51 17 212 14 272 -5z m326
-230 c74 -34 147 -73 162 -87 40 -38 38 -105 -7 -239 -19 -57 -35 -110 -35
-119 0 -26 51 7 104 67 l46 53 0 -81 c0 -44 -4 -105 -10 -135 -5 -30 -12 -74
-15 -99 -3 -25 -8 -53 -11 -62 -3 -10 -2 -27 1 -38 6 -19 12 -16 65 30 32 27
59 50 61 50 7 0 -9 -203 -20 -255 -23 -114 -65 -208 -115 -254 -37 -35 -22
-43 36 -20 28 11 53 18 55 15 10 -10 -28 -146 -59 -212 -118 -252 -317 -415
-603 -492 -136 -37 -337 -38 -495 -4 -58 12 -129 27 -158 33 -155 31 -327 147
-388 260 -29 54 -25 161 9 223 14 28 24 52 22 54 -11 12 -55 -31 -65 -65 -25
-76 -26 -77 -71 -41 -76 61 -117 199 -105 352 3 45 10 97 16 116 5 19 12 51
15 70 9 54 80 197 102 203 10 3 80 11 155 17 l137 12 68 -37 c100 -54 100 -55
69 -107 -14 -25 -26 -49 -26 -55 0 -13 123 -50 193 -58 74 -8 87 2 87 66 0 47
1 49 28 49 45 -1 104 -34 155 -88 26 -28 47 -56 47 -61 0 -6 11 -34 24 -63 31
-67 56 -175 56 -239 0 -55 -9 -60 -59 -34 -49 25 -107 29 -155 11 -52 -20 -79
-47 -106 -108 l-20 -46 -55 29 -54 30 -15 -51 c-8 -28 -13 -64 -10 -79 l6 -29
-55 2 c-33 0 -61 -4 -68 -11 -18 -18 -12 -20 71 -24 l75 -4 9 70 c5 39 10 71
11 73 2 2 44 -22 94 -53 51 -30 94 -55 96 -55 2 0 24 -13 48 -30 25 -16 48
-30 51 -30 4 0 31 -16 61 -36 52 -35 58 -37 115 -31 119 13 206 85 283 235 27
51 50 101 52 111 2 10 13 49 26 87 19 60 23 96 27 281 l4 212 59 51 c32 28 59
59 59 68 0 9 -27 42 -61 73 l-62 55 19 55 c14 41 19 80 18 162 l-1 107 41 1
41 1 -35 15 c-72 31 -178 -5 -233 -79 -34 -46 -11 -44 45 4 29 24 59 48 66 52
22 13 42 -56 42 -142 0 -71 -4 -87 -34 -146 -68 -133 -137 -192 -285 -246 -86
-31 -292 -70 -373 -70 -84 0 -239 36 -303 71 -105 56 -106 57 -28 97 97 49
142 90 188 168 35 60 69 153 60 163 -13 12 -64 -73 -79 -133 -11 -46 -110
-141 -183 -176 -88 -41 -261 -74 -352 -65 -194 18 -339 97 -386 207 -35 86 -9
223 51 265 65 45 157 56 202 25 54 -37 53 -37 47 15 -4 26 -2 60 3 74 14 35
76 64 185 85 73 14 100 15 159 6 68 -10 74 -13 122 -65 74 -79 102 -91 216
-92 80 0 100 -3 125 -21 114 -81 233 -104 336 -65 113 43 178 111 201 211 6
28 16 50 22 50 7 0 72 -27 146 -60z m298 -134 c31 -13 68 -27 82 -31 38 -11
135 -52 230 -98 138 -67 291 -178 340 -247 l20 -29 -32 10 c-18 5 -57 16 -86
24 -30 8 -83 26 -119 40 -36 15 -67 24 -70 21 -3 -2 24 -19 58 -36 40 -20 89
-57 130 -99 36 -36 91 -82 122 -101 155 -95 213 -138 239 -175 15 -22 27 -43
28 -47 0 -5 -198 60 -262 87 -10 4 -18 3 -18 -3 0 -5 14 -15 30 -22 58 -24
100 -88 156 -239 25 -67 26 -82 4 -56 -7 8 -16 15 -21 15 -5 0 14 -30 41 -67
28 -36 48 -68 45 -71 -2 -3 -24 13 -47 34 -43 40 -131 104 -143 104 -3 0 -23
12 -45 26 -22 15 -43 25 -46 22 -2 -3 7 -13 20 -22 15 -9 28 -29 31 -50 8 -40
-9 -194 -23 -208 -6 -6 -46 36 -108 114 -83 103 -201 218 -224 218 -6 0 -20
-43 -62 -188 -13 -45 -27 -29 -35 39 -3 30 -12 66 -19 81 -18 35 -17 86 1 118
30 53 13 47 -38 -12 -48 -57 -162 -158 -177 -158 -3 0 7 39 23 88 15 48 32
120 37 160 9 67 43 274 54 330 8 39 -11 24 -49 -37 -33 -55 -92 -117 -102
-108 -2 3 1 24 6 49 14 63 44 478 34 478 -1 0 -20 -37 -41 -82 -22 -46 -52
-94 -67 -108 l-28 -25 7 30 c4 17 12 53 16 81 8 46 21 105 36 157 7 21 3 22
72 -7z m-2757 -286 c16 -47 38 -112 49 -145 l19 -60 -27 -22 c-21 -17 -40 -22
-83 -23 -60 0 -76 10 -84 51 -3 12 -16 52 -30 89 -14 37 -27 75 -29 86 -2 10
-7 31 -11 45 -6 23 -3 28 26 38 50 17 71 -11 104 -140 8 -31 24 -77 35 -101
l19 -43 -1 45 c-1 25 -18 88 -39 144 -21 55 -36 102 -34 104 2 3 9 -8 15 -24
6 -16 20 -47 32 -69 24 -46 45 -71 34 -40 -4 11 -10 31 -12 45 -3 13 -9 29
-13 35 -5 5 -13 25 -19 43 -10 28 -9 33 4 30 8 -2 27 -38 45 -88z m2472 -133
c32 -22 57 -41 55 -42 -2 -1 -43 -37 -93 -79 l-90 -77 -22 26 c-15 17 -23 39
-23 63 0 37 31 102 50 102 5 0 17 14 25 30 10 19 20 28 28 23 7 -4 38 -24 70
-46z m-2271 -161 c43 -26 79 -56 86 -71 18 -38 14 -104 -7 -152 -23 -48 -24
-46 74 -109 80 -52 195 -135 195 -140 0 -3 -20 -2 -44 1 -71 11 -73 -3 -7 -52
59 -43 74 -63 49 -63 -7 0 -28 10 -47 23 -102 67 -150 99 -190 126 -34 24 -55
31 -93 31 l-48 0 0 104 c0 67 5 119 15 146 15 42 12 80 -4 80 -5 0 -13 -19
-19 -43 -19 -74 -86 -115 -157 -96 -38 11 -61 38 -71 85 -5 25 3 40 50 101 31
39 64 74 73 76 34 10 71 -2 145 -47z m2078 2 c39 -71 48 -80 74 -62 13 8 26
11 29 7 11 -10 8 -252 -3 -314 -5 -30 -12 -67 -14 -82 -5 -29 -40 -127 -57
-158 -9 -19 -12 -18 -55 7 -35 21 -63 27 -135 32 l-91 7 -4 48 c-3 43 -11 76
-48 202 -15 52 -71 149 -113 196 l-33 36 73 16 c115 27 207 54 272 80 33 14
65 26 71 26 6 1 21 -18 34 -41z m-2381 22 c35 -5 66 -11 68 -14 6 -5 -62 -94
-82 -108 -37 -27 -118 20 -130 74 -13 55 19 66 144 48z m1671 -83 c74 -16 80
-22 80 -69 l0 -41 -62 5 c-72 6 -149 34 -143 51 27 76 25 75 125 54z m-1667
-97 c39 -46 44 -71 18 -92 -48 -38 -140 -35 -187 6 -37 31 -28 67 23 89 87 36
114 36 146 -3z m242 -232 c-16 -492 -17 -499 -30 -494 -8 3 -30 8 -49 12 -20
3 -39 10 -41 15 -6 9 -33 280 -37 377 -3 63 -3 63 25 69 39 8 60 42 52 87 -4
19 -16 42 -26 52 -26 23 -24 29 10 32 17 1 40 6 53 11 50 21 50 23 43 -161z
m-131 93 c10 -11 16 -30 14 -43 -4 -29 -59 -49 -141 -52 -53 -1 -61 2 -83 27
-34 40 -31 55 14 62 20 3 53 10 72 15 62 14 106 11 124 -9z m2951 -161 c11
-71 22 -130 26 -130 18 0 57 71 78 140 12 41 24 81 27 88 3 10 10 9 31 -6 100
-72 189 -177 244 -288 30 -60 33 -63 50 -48 16 15 21 10 77 -73 32 -48 58 -96
56 -106 -1 -9 -16 -33 -33 -52 l-30 -35 -28 35 c-34 43 -49 46 -28 5 23 -45
18 -55 -11 -21 -48 58 -49 29 -1 -42 11 -16 5 -25 -50 -75 l-62 -57 44 -60
c24 -33 55 -75 69 -94 l26 -34 -31 -34 c-39 -45 -30 -53 20 -20 39 26 65 22
37 -5 -18 -18 -48 -78 -40 -78 4 0 22 11 40 25 l32 25 18 -28 c10 -15 30 -49
45 -77 14 -27 31 -51 36 -52 5 -2 36 26 67 62 32 36 62 65 67 65 5 0 9 -72 9
-165 0 -91 -2 -165 -5 -165 -2 0 -28 18 -57 40 -29 21 -53 38 -54 37 -1 -1 6
-141 16 -312 10 -170 16 -314 13 -318 -3 -4 -28 12 -57 37 -70 60 -102 74
-121 55 -17 -17 -36 -97 -69 -294 -29 -173 -34 -196 -39 -201 -2 -2 -25 39
-52 92 -81 162 -118 186 -189 124 -32 -29 -35 -35 -38 -103 -3 -56 -16 -105
-57 -215 -29 -79 -54 -151 -56 -161 -2 -9 -11 -35 -20 -57 l-16 -39 -25 60
c-14 33 -39 94 -55 135 -17 41 -33 79 -36 84 -8 12 -30 -29 -49 -94 -17 -58
-50 -120 -64 -120 -4 0 -25 25 -45 55 -21 30 -42 55 -46 55 -15 0 -67 -70 -83
-111 -8 -24 -25 -70 -37 -101 -11 -32 -23 -58 -27 -58 -8 0 -52 125 -72 203
-7 26 -14 47 -17 47 -2 0 -31 -23 -64 -50 -33 -28 -64 -48 -69 -45 -4 3 -11
24 -15 47 l-8 43 -37 -44 -37 -43 -27 70 c-48 125 -131 233 -191 248 -33 8
-76 -18 -160 -97 l-74 -71 -38 61 c-21 33 -46 73 -55 88 -10 15 -23 37 -30 47
-7 11 -32 49 -55 85 -75 117 -98 146 -121 149 -15 2 -50 -15 -98 -47 -41 -28
-77 -51 -81 -51 -3 0 -3 66 0 148 4 129 17 218 52 370 9 39 -14 24 -26 -18 -7
-22 -19 -46 -27 -52 -13 -11 -115 -47 -134 -48 -9 0 1 138 18 245 20 122 58
257 75 266 8 4 115 19 239 34 124 16 250 31 280 35 147 20 441 50 580 60 85 6
211 19 280 30 160 25 251 26 277 3 11 -10 46 -49 78 -86 57 -66 91 -94 102
-83 13 13 -353 416 -378 416 -5 0 -6 -27 -2 -60 3 -33 3 -60 -1 -60 -4 0 -54
31 -110 68 -101 68 -166 100 -166 82 0 -6 25 -27 56 -47 l56 -37 -28 -8 c-81
-21 -421 -40 -783 -45 l-394 -6 7 29 c12 50 58 144 70 144 6 0 52 -11 101 -25
382 -106 728 -66 1000 117 181 122 275 271 350 561 15 59 24 73 72 117 30 28
58 50 62 50 5 0 16 -58 26 -130z m-2208 -55 c63 -46 87 -71 106 -110 33 -68
72 -112 118 -136 26 -13 39 -26 39 -40 0 -25 47 -139 68 -161 28 -33 -8 -20
-112 39 -56 31 -119 67 -141 80 -22 14 -96 56 -165 95 -69 39 -129 75 -135 80
-7 7 7 9 43 6 67 -6 67 3 -3 84 l-55 63 40 3 c46 4 45 2 25 68 -8 27 -15 53
-15 57 0 8 53 -28 187 -128z m-409 18 c140 -91 192 -128 192 -134 0 -4 -27 -1
-60 6 -33 7 -62 9 -65 5 -11 -17 50 -55 315 -197 25 -13 59 -31 75 -41 79 -45
301 -165 390 -211 55 -29 104 -56 108 -60 8 -8 -16 -70 -53 -143 -10 -20 -16
-39 -13 -42 14 -14 -97 -4 -248 23 -90 16 -202 34 -249 40 -47 7 -97 14 -112
18 -24 4 -28 2 -28 -16 0 -20 -3 -21 -52 -15 -29 3 -80 12 -113 18 l-60 12
-18 69 c-14 53 -17 92 -13 160 6 101 -5 163 -30 182 -10 7 -46 13 -81 13 l-63
0 0 184 c0 167 2 185 18 189 36 11 74 -4 160 -60z m1567 -93 l26 -10 -23 -31
c-46 -62 -50 -69 -41 -69 6 0 28 14 49 31 103 82 187 98 282 54 68 -32 81 -58
54 -112 -20 -39 -49 -70 -57 -61 -2 2 -6 22 -7 44 -4 51 -19 52 -158 16 -98
-25 -105 -29 -108 -54 -2 -15 4 -40 12 -57 9 -16 16 -35 16 -41 0 -13 -53 13
-176 87 -94 55 -110 76 -94 117 9 23 67 81 90 89 26 9 107 7 135 -3z m257
-205 l3 -50 -75 -37 c-41 -20 -78 -37 -81 -37 -10 -1 -60 139 -53 150 3 5 22
9 42 10 20 0 62 6 92 13 30 7 58 9 62 6 3 -3 8 -27 10 -55z m-1872 -67 c15
-17 20 -35 20 -82 0 -177 7 -262 22 -291 17 -31 6 -28 215 -65 56 -10 93 -28
93 -47 0 -21 -109 -36 -226 -30 -108 6 -112 5 -165 -23 -76 -41 -169 -42 -241
-3 -27 15 -54 35 -59 46 -14 25 -49 36 -78 25 -57 -21 -79 56 -30 108 l20 22
-29 46 c-36 57 -35 75 6 101 17 11 31 23 32 26 0 4 -16 31 -35 60 -20 29 -34
59 -33 68 4 19 63 50 98 51 14 0 41 -11 60 -24 65 -44 183 -65 220 -39 28 20
25 37 -5 29 -20 -5 -25 -3 -25 13 0 35 109 42 140 9z m3311 -109 c10 -24 36
-93 59 -154 84 -219 84 -261 1 -332 -27 -24 -53 -43 -58 -43 -12 0 -73 108
-73 129 0 10 11 28 25 41 42 39 30 56 -14 21 -45 -36 -67 -25 -30 15 28 30 20
40 -18 21 l-29 -15 -57 73 c-31 41 -57 78 -57 83 0 4 18 25 40 47 37 37 40 38
58 22 31 -28 45 -21 28 12 -15 27 -14 29 4 24 15 -4 20 0 20 15 0 25 58 94 74
89 6 -2 18 -23 27 -48z m-2786 -323 c401 -75 650 -85 1110 -42 94 9 276 17
405 19 l235 2 48 -33 47 -33 0 45 c0 25 4 47 8 50 5 3 34 -21 66 -53 l57 -58
-148 -16 c-81 -10 -245 -29 -363 -43 -118 -15 -258 -30 -310 -34 -52 -4 -189
-19 -305 -33 -383 -48 -579 -70 -680 -78 -55 -4 -169 -17 -254 -29 -84 -11
-161 -20 -170 -18 -10 2 5 16 42 38 31 19 57 38 57 42 0 4 -20 10 -45 14 -25
3 -45 10 -45 14 0 4 21 18 48 31 26 13 49 25 51 26 2 2 -9 13 -25 25 -16 13
-40 33 -54 45 l-25 22 53 7 c43 5 52 10 47 23 -4 9 -8 24 -10 34 -2 10 -7 27
-10 38 -8 25 8 25 170 -5z m-331 -121 c73 -13 125 -37 133 -61 2 -5 -18 -17
-45 -27 -67 -26 -77 -32 -80 -50 -2 -11 7 -18 32 -23 20 -3 36 -9 36 -13 0 -3
-18 -19 -40 -34 -22 -16 -40 -32 -40 -37 0 -23 131 -17 470 21 210 23 193 23
181 1 -5 -10 -24 -72 -41 -138 -34 -126 -49 -290 -36 -378 l7 -46 42 24 c23
13 56 32 74 42 17 10 34 16 36 14 2 -3 -2 -63 -10 -135 -13 -118 -13 -319 1
-332 2 -3 44 24 93 60 l87 65 27 -19 c57 -40 60 -118 12 -259 -14 -41 -27 -87
-29 -103 -2 -15 -15 -60 -28 -100 -13 -39 -27 -90 -30 -112 -4 -22 -18 -75
-31 -118 -14 -43 -25 -85 -25 -93 0 -8 -7 -47 -16 -86 -15 -65 -18 -70 -30
-53 -8 10 -14 25 -14 32 0 18 -26 75 -115 253 -95 192 -123 243 -177 320 -78
111 -99 161 -101 232 l-1 63 64 42 c132 88 164 137 158 242 -6 119 -83 209
-216 253 -62 20 -89 22 -359 26 l-292 3 -6 52 c-3 29 -5 133 -3 232 l3 180 65
36 c75 43 118 47 244 24z m-348 -59 c1 -1 4 -98 8 -216 3 -118 8 -279 12 -357
l7 -143 -31 0 c-40 0 -45 10 -44 84 1 34 -4 189 -12 346 -7 157 -12 288 -9
292 3 6 61 1 69 -6z m-1230 -332 c58 -45 73 -101 52 -194 -13 -52 -78 -100
-135 -100 -24 1 -32 9 -51 49 -24 52 -61 77 -129 88 l-35 6 4 49 c4 40 12 57
40 85 42 42 83 54 162 47 42 -4 69 -13 92 -30z m221 -160 c83 -53 50 -169 -52
-188 -38 -7 -100 6 -129 27 -17 12 -17 15 0 57 10 25 29 64 42 88 l25 44 46
-7 c25 -4 56 -13 68 -21z m582 6 c178 -5 328 -13 333 -18 5 -5 11 -26 13 -46
l3 -36 -87 0 c-75 0 -91 3 -106 20 -24 26 -53 25 -171 -5 l-98 -26 -57 22
c-42 15 -69 19 -97 14 -27 -4 -57 0 -100 14 -34 12 -81 21 -105 21 -43 0 -67
13 -67 37 0 16 79 16 539 3z m1016 -21 c105 -15 140 -26 187 -62 120 -92 142
-249 46 -333 -48 -42 -178 -101 -315 -144 -24 -7 -43 -17 -43 -22 0 -11 15
-10 85 7 83 20 83 20 95 -27 24 -92 111 -265 165 -328 38 -45 128 -215 193
-365 36 -84 81 -243 86 -305 18 -205 18 -229 2 -333 -9 -64 -26 -131 -41 -163
-14 -30 -25 -58 -25 -62 0 -8 -65 -106 -97 -146 l-23 -28 -20 23 c-37 46 -108
196 -115 246 -5 37 -1 64 14 111 12 34 21 64 21 67 0 11 -56 -24 -82 -52 -61
-65 -72 -157 -28 -243 23 -45 24 -66 6 -98 l-13 -24 -17 26 c-21 33 -32 33
-50 -1 -25 -50 -63 -83 -94 -83 -35 0 -47 13 -57 58 l-7 34 -26 -36 c-14 -20
-36 -39 -49 -42 -50 -13 -124 43 -137 104 -8 34 11 91 53 157 39 62 71 162 71
224 0 88 -31 155 -153 326 -23 33 -44 74 -45 90 -1 17 -3 37 -4 45 -5 63 4
102 37 150 39 58 42 70 20 70 -17 0 -105 -115 -134 -176 -34 -71 -35 -103 -6
-215 33 -130 42 -224 25 -273 -7 -23 -33 -55 -70 -87 -98 -87 -115 -137 -97
-291 7 -64 6 -68 -16 -83 -30 -19 -113 -30 -162 -21 -43 8 -69 46 -86 124 -14
68 -14 242 0 285 14 42 -2 94 -55 172 -34 52 -98 115 -117 115 -5 0 -59 22
-121 50 -62 27 -122 50 -134 50 -31 0 -81 -50 -88 -87 -6 -28 -4 -33 13 -33
10 0 24 5 30 11 5 5 32 9 59 7 42 -3 51 -7 70 -35 13 -19 26 -63 33 -108 12
-80 36 -138 70 -169 56 -51 71 -190 29 -275 -19 -37 -31 -49 -64 -60 -39 -14
-44 -13 -90 11 -95 49 -135 147 -99 242 21 53 16 139 -8 163 -13 14 -16 10
-30 -38 -9 -30 -19 -72 -23 -94 -4 -22 -17 -60 -30 -85 -13 -25 -24 -49 -24
-53 0 -18 -75 -129 -101 -152 -34 -28 -92 -39 -161 -30 -42 6 -60 15 -96 49
-40 38 -44 46 -49 101 -3 33 0 87 7 119 11 53 19 66 88 138 93 97 106 129 95
243 -4 44 -8 83 -9 88 -1 4 -2 12 -3 17 0 6 -26 37 -56 70 -49 53 -61 75 -56
103 4 24 -48 91 -91 117 -67 42 -89 45 -142 22 -36 -16 -50 -30 -70 -71 -24
-47 -33 -81 -21 -81 3 0 23 9 45 20 58 29 94 26 135 -12 47 -45 64 -110 46
-175 -7 -27 -14 -57 -17 -67 -5 -26 -22 -82 -40 -133 -12 -34 -27 -49 -72 -77
-76 -47 -224 -198 -256 -262 -14 -28 -28 -75 -32 -105 -8 -66 -20 -99 -35 -99
-27 0 -82 36 -105 69 -51 76 -21 197 72 289 45 43 50 59 44 132 -5 75 -75 220
-106 220 -18 0 -17 -1 2 -61 34 -102 -3 -218 -88 -279 -23 -17 -53 -30 -67
-30 -14 0 -52 -15 -83 -33 -66 -37 -124 -109 -164 -204 -31 -72 -39 -71 -80 9
-65 129 -69 147 -68 358 0 192 0 196 32 292 30 88 85 217 149 343 102 205 183
465 183 593 0 60 0 60 84 32 71 -24 166 -27 166 -6 0 10 -22 18 -72 26 -224
36 -427 153 -458 264 -29 105 48 193 210 239 50 14 180 27 433 42 109 7 117 1
72 -53 l-24 -29 -175 -6 c-159 -5 -181 -8 -230 -30 -55 -26 -86 -63 -86 -106
0 -59 123 -119 320 -156 294 -55 544 -70 1135 -70 517 1 753 15 925 55 47 11
106 25 132 30 26 5 80 23 120 40 155 66 192 161 86 216 -37 19 -190 33 -355
34 -72 0 -138 3 -147 6 -11 4 -16 19 -16 47 l0 40 233 -7 c127 -3 264 -11 302
-17z m-2006 -36 c14 -11 34 -34 44 -51 16 -28 17 -33 2 -69 -17 -42 -73 -83
-114 -83 -30 0 -102 30 -128 53 -36 33 -32 95 10 134 17 17 41 33 52 36 37 10
107 -1 134 -20z m622 -32 c24 -29 12 -92 -21 -108 -35 -18 -91 -16 -118 3 -19
13 -22 22 -17 51 14 89 11 86 79 80 44 -4 65 -11 77 -26z m209 -36 c33 -21 68
-35 88 -35 29 0 32 3 32 30 0 23 4 30 20 30 12 0 25 -10 32 -25 l11 -25 27 32
27 32 60 -23 c50 -19 73 -22 125 -17 79 8 90 1 86 -55 -3 -44 -3 -44 -38 -42
-19 2 -46 6 -60 9 l-25 6 30 16 c29 16 29 17 7 20 -30 5 -82 -16 -82 -33 0
-53 228 -85 360 -50 67 18 130 45 130 57 0 16 -48 31 -77 23 l-28 -8 30 -7 30
-6 -39 -17 c-68 -30 -81 -21 -101 67 l-6 29 215 -7 c246 -8 311 -20 327 -63 8
-23 6 -31 -22 -59 -79 -81 -269 -129 -689 -175 -272 -29 -1061 -20 -1380 17
-74 8 -172 19 -217 24 -98 10 -247 51 -323 88 -68 34 -86 70 -52 104 36 36 98
49 259 55 l152 6 11 -29 c31 -89 65 -115 157 -121 82 -5 119 13 155 76 20 36
27 41 59 41 20 0 62 -12 93 -26 72 -33 124 -40 179 -25 36 10 54 10 104 -3 34
-9 72 -16 85 -16 28 0 59 31 78 78 28 71 87 80 170 27z m3682 -442 c8 -10 33
-57 56 -105 22 -48 51 -103 65 -122 l24 -36 13 25 c23 42 33 31 46 -49 3 -21
16 -73 30 -114 13 -42 24 -84 24 -92 0 -9 11 -45 25 -80 28 -72 27 -85 -15
-125 -23 -22 -33 -26 -42 -17 -20 20 -31 13 -23 -15 6 -27 6 -27 -14 -9 -29
26 -35 15 -14 -23 16 -28 16 -33 3 -41 -107 -62 -111 -81 -35 -186 31 -43 54
-85 53 -93 -2 -9 -22 -22 -46 -29 -23 -8 -42 -18 -42 -23 0 -12 17 -11 73 6
26 8 47 10 47 5 0 -19 -40 -50 -65 -50 -14 0 -25 -5 -25 -10 0 -19 28 -22 59
-6 16 9 37 16 46 16 17 0 58 -84 69 -142 4 -21 11 -40 15 -43 5 -2 28 2 51 10
48 17 51 16 66 -28 18 -54 35 -45 32 19 -4 71 13 81 42 24 12 -23 23 -40 25
-38 2 2 -1 25 -7 53 -10 47 -9 50 16 72 36 30 51 29 93 -7 71 -62 227 -125
448 -179 205 -51 276 -63 396 -68 124 -6 206 7 412 64 49 13 112 28 140 34 73
13 150 67 185 130 50 87 75 239 74 461 0 102 -3 195 -6 206 -8 24 -50 42 -197
81 -147 39 -216 41 -249 6 -22 -23 -25 -37 -28 -125 l-4 -98 33 -18 c49 -25
128 -23 166 4 40 28 50 28 56 -4 7 -38 -27 -54 -143 -66 -127 -14 -128 -13
-142 108 -17 153 15 297 67 310 40 10 431 -116 476 -153 18 -15 52 -123 68
-215 6 -32 11 -148 11 -258 2 -230 2 -229 -88 -298 -115 -88 -271 -217 -276
-230 -9 -20 19 -76 49 -100 38 -30 165 -31 261 -1 142 44 210 92 198 139 -3 8
4 -2 14 -23 30 -60 21 -76 -96 -165 -134 -102 -298 -223 -334 -246 -36 -23
-35 -33 2 -41 17 -4 27 -11 24 -17 -5 -7 -30 -8 -78 -2 -80 9 -208 9 -707 -1
l-347 -7 -42 58 c-24 33 -45 61 -47 63 -2 3 -23 -15 -47 -38 -30 -29 -46 -39
-51 -31 -5 8 -21 10 -44 6 -30 -5 -39 -2 -53 16 -15 21 -19 22 -52 10 -19 -7
-60 -28 -90 -46 -39 -24 -74 -35 -118 -40 -83 -10 -640 4 -655 16 -6 5 -21 28
-33 51 -60 115 -103 105 -178 -44 -48 -95 -66 -105 -204 -114 -121 -7 -109
-12 -186 84 -68 85 -193 155 -298 167 -29 4 -82 1 -119 -6 -36 -7 -69 -10 -72
-6 -21 21 98 88 200 112 15 3 27 11 27 16 0 7 -26 9 -72 6 l-72 -6 32 27 c39
32 41 43 5 39 -20 -2 -38 -18 -66 -58 -21 -30 -78 -99 -127 -153 -50 -53 -96
-113 -104 -131 -15 -37 -10 -35 -189 -67 -159 -27 -255 21 -224 114 7 22 15
27 43 27 29 0 34 -4 34 -23 0 -12 -7 -32 -15 -43 -18 -26 -11 -34 30 -34 49 0
85 33 85 79 0 30 -7 45 -37 74 -20 21 -54 42 -74 47 -21 6 -42 16 -46 23 -10
16 -73 197 -69 197 2 0 -7 35 -21 78 -20 63 -26 112 -35 272 -17 316 -16 348
27 490 14 47 28 100 31 119 3 19 10 46 16 60 5 14 23 78 40 141 17 63 44 165
60 225 16 61 32 120 35 133 3 12 9 24 13 27 8 5 81 -116 145 -238 17 -31 37
-57 45 -57 8 0 53 38 100 84 49 49 97 88 113 92 26 6 35 0 90 -57 66 -70 108
-150 131 -250 8 -34 17 -64 20 -67 4 -3 16 18 28 46 12 29 25 52 30 52 4 0 10
-16 14 -35 3 -19 11 -35 16 -35 6 0 37 25 70 55 33 30 63 53 67 51 8 -5 30
-74 51 -156 12 -47 46 -110 59 -110 4 0 22 42 40 93 33 96 85 197 101 197 5 0
15 -10 21 -22 7 -13 23 -38 37 -56 24 -32 25 -32 45 -15 29 27 64 84 78 131
l12 42 23 -34 c13 -19 25 -46 28 -61 8 -43 56 -163 70 -174 10 -9 17 -5 30 13
9 14 16 32 16 39 0 8 12 46 26 83 14 38 27 76 29 85 2 9 14 49 28 90 14 41 30
93 36 116 7 24 21 47 31 53 24 13 25 31 4 72 -24 47 -7 78 44 78 25 0 44 -6
54 -17z m-4480 -703 c59 -17 96 -54 114 -117 10 -36 31 -71 60 -104 58 -65 75
-101 81 -168 8 -92 -8 -131 -90 -214 -68 -68 -74 -78 -100 -162 -15 -50 -27
-99 -27 -110 0 -11 13 -45 29 -75 70 -138 252 -172 357 -69 25 24 59 76 81
121 21 43 40 78 43 78 3 0 18 -31 35 -67 36 -81 68 -121 112 -139 64 -27 122
-13 173 41 24 25 25 33 25 138 -1 122 -5 136 -71 227 -26 37 -36 63 -45 123
-6 41 -19 88 -29 104 -21 35 -75 63 -122 63 -31 1 -32 1 -14 15 48 37 170 -2
296 -93 49 -36 139 -145 141 -171 1 -9 2 -23 3 -31 1 -8 -4 -35 -11 -60 -16
-56 -17 -157 -2 -236 6 -32 12 -70 14 -84 1 -13 18 -38 38 -56 52 -48 143 -57
230 -22 36 14 48 58 30 117 -30 101 -1 186 89 263 31 26 63 64 73 85 25 52 23
149 -5 258 -26 101 -28 162 -7 220 l14 39 6 -44 c7 -50 43 -126 89 -183 16
-21 50 -76 75 -122 42 -80 45 -90 45 -163 0 -90 -8 -114 -64 -193 -71 -102
-71 -205 1 -271 44 -42 85 -49 147 -26 27 10 36 8 66 -10 49 -30 62 -28 112
18 33 30 51 40 78 40 19 0 39 5 46 12 21 21 14 86 -14 135 -31 52 -36 119 -10
158 26 40 36 30 36 -37 0 -68 30 -145 88 -231 78 -112 51 -267 -59 -350 -35
-25 -90 -36 -184 -37 -96 0 -217 -31 -325 -83 -42 -20 -116 -46 -164 -57 -86
-21 -91 -21 -158 -4 -65 16 -78 16 -201 0 -217 -27 -276 -37 -312 -52 -50 -21
-110 -17 -193 11 -66 22 -91 25 -221 25 -177 0 -468 39 -509 67 -60 44 -77 51
-121 58 -157 22 -324 88 -470 187 -139 93 -173 139 -173 237 -1 47 5 66 35
116 50 84 89 117 187 155 92 35 166 95 175 140 3 14 8 41 11 60 16 96 35 86
41 -22 l5 -73 -51 -50 c-44 -42 -56 -62 -76 -128 -30 -94 -30 -107 -6 -155 32
-62 71 -88 169 -112 17 -4 32 -5 32 -1 1 54 24 182 39 217 25 55 194 228 263
268 52 30 75 59 83 108 3 18 15 67 26 110 25 101 24 148 -5 206 -39 77 -64 95
-130 90 -33 -2 -56 1 -56 7 1 17 26 44 56 60 34 18 30 17 76 5z m4858 -115
c29 -68 83 -179 121 -246 38 -66 69 -123 69 -125 0 -2 -25 -21 -56 -41 l-56
-37 -19 23 c-24 30 -33 23 -19 -14 6 -15 9 -29 8 -30 -2 -1 -19 -11 -39 -22
l-36 -21 -15 37 c-53 132 -58 145 -48 155 17 17 11 29 -10 23 -24 -6 -25 1 -5
29 13 20 12 21 -8 17 -30 -5 -35 0 -96 96 l-54 85 39 33 c21 18 42 33 46 33 3
0 17 -17 29 -37 26 -42 38 -29 15 16 -25 47 -19 57 14 26 35 -33 38 -28 11 17
l-20 31 30 39 c17 21 34 38 38 38 4 0 31 -56 61 -125z m2129 -598 c13 -17 43
-87 36 -87 -2 0 -12 14 -21 31 -14 29 -19 31 -53 25 -51 -8 -59 4 -19 26 40
21 43 21 57 5z m-4252 -487 c35 -21 50 -58 35 -86 -8 -14 -11 -11 -22 20 -21
65 -90 78 -134 25 -63 -74 -11 -162 111 -190 45 -11 66 -9 165 10 158 32 171
38 200 102 21 45 34 59 79 84 52 29 59 30 184 30 l130 0 76 -42 c71 -40 152
-113 177 -159 10 -20 6 -21 -131 -32 -162 -14 -556 -31 -758 -33 -188 -2 -251
21 -284 103 -23 58 -13 100 36 149 45 45 84 51 136 19z m-737 -287 c74 -25
138 -48 142 -52 11 -10 -141 -124 -155 -117 -7 3 -37 24 -67 45 -30 22 -57 37
-60 34 -3 -3 20 -27 50 -54 30 -27 51 -49 46 -49 -6 0 -19 9 -30 19 -27 24
-136 93 -136 86 0 -8 63 -62 113 -97 53 -38 67 -56 67 -85 0 -33 -16 -29 -90
23 -68 47 -248 195 -249 204 -1 3 16 14 36 25 20 11 49 30 63 41 51 43 79 41
270 -23z m-2234 30 c27 -9 66 -30 87 -47 l38 -30 -31 -30 c-34 -34 -29 -36
-76 28 -17 25 -29 15 -15 -12 14 -25 14 -62 2 -62 -6 0 -16 12 -23 27 -12 25
-58 52 -58 34 0 -4 12 -26 26 -47 19 -28 24 -42 17 -54 -16 -24 -29 -18 -62
26 -65 91 -266 143 -346 90 -49 -32 -51 -122 -3 -173 28 -30 119 -57 164 -48
69 13 81 88 20 126 -56 35 -106 11 -92 -44 9 -36 46 -38 46 -3 0 19 4 23 20
19 10 -3 25 -11 31 -19 21 -26 -8 -44 -68 -44 -49 0 -59 4 -89 34 -41 41 -46
92 -14 121 35 32 131 25 210 -14 36 -18 73 -40 83 -49 41 -36 3 -113 -75 -153
-71 -36 -184 -22 -242 29 -47 42 -76 183 -42 211 7 6 71 31 142 55 110 38 141
44 215 45 56 1 102 -5 135 -16z m1861 -118 l28 -24 -63 -1 c-53 0 -67 -4 -87
-25 -27 -26 -33 -73 -13 -93 7 -7 26 -12 43 -12 35 0 55 15 55 42 0 20 -21 23
-51 8 -16 -9 -19 -7 -19 11 0 20 3 21 53 15 38 -5 58 -13 75 -32 32 -37 28
-67 -15 -104 -34 -31 -40 -32 -95 -27 -32 3 -70 12 -83 21 -55 36 -77 144 -39
188 57 63 159 79 211 33z m-1102 -15 c23 -9 26 -13 15 -21 -12 -8 -9 -14 17
-37 32 -27 63 -85 63 -119 0 -12 -8 -6 -24 18 -64 94 -188 126 -356 93 -32 -7
-34 -6 -21 10 49 59 216 90 306 56z m629 11 c3 -5 -2 -12 -11 -16 -15 -5 -12
-9 15 -27 40 -25 40 -29 1 -21 -44 8 -35 -8 25 -49 46 -31 103 -95 66 -74 -8
5 -24 17 -35 26 -49 41 -168 66 -239 50 -27 -6 -50 -9 -52 -7 -2 1 4 26 12 54
l15 52 57 6 c31 3 66 7 77 9 42 7 64 6 69 -3z m1133 -6 c12 -8 27 -31 33 -50
23 -70 -36 -148 -139 -183 -49 -17 -132 -15 -159 4 -57 40 12 178 113 225 49
23 123 24 152 4z m-1832 -108 c80 -33 96 -52 93 -112 -3 -44 -6 -51 -32 -64
-49 -23 -155 -25 -196 -4 -44 23 -48 42 -16 76 30 32 71 36 86 8 16 -30 13
-32 -27 -25 l-38 6 31 -32 c27 -28 34 -31 53 -21 46 25 16 106 -46 125 -33 10
-89 -18 -108 -54 -21 -40 -6 -73 53 -114 56 -40 122 -41 205 -3 60 27 71 24
34 -11 -55 -52 -167 -68 -242 -33 -112 51 -166 214 -85 256 74 38 146 39 235
2z m703 -44 c23 -14 52 -68 52 -97 0 -26 -38 -39 -97 -31 -53 6 -54 7 -37 26
11 12 24 17 39 13 40 -10 44 39 4 51 -28 9 -56 -11 -69 -50 -17 -52 -2 -65 75
-65 69 0 115 24 115 61 0 25 26 25 40 0 29 -56 0 -94 -98 -126 -138 -46 -312
33 -312 141 0 35 42 80 83 89 76 16 169 11 205 -12z"/>
<path d="M4095 6570 c-18 -19 -18 -22 -2 -37 16 -16 18 -16 37 3 20 20 20 21
2 37 -18 16 -20 16 -37 -3z"/>
<path d="M4458 6559 c-38 -22 -12 -99 32 -99 21 0 60 36 60 55 0 18 -39 55
-58 55 -9 0 -25 -5 -34 -11z"/>
<path d="M3345 6100 c-24 -27 -8 -47 24 -31 24 14 26 24 8 40 -11 8 -18 6 -32
-9z"/>
<path d="M3446 6091 c-44 -48 15 -122 70 -87 30 20 32 58 4 86 -25 25 -52 25
-74 1z"/>
<path d="M3432 5628 c-18 -18 -15 -46 8 -58 48 -26 108 9 84 48 -13 21 -74 28
-92 10z"/>
<path d="M3512 5470 c-31 -19 -50 -59 -37 -79 11 -19 63 -13 75 8 12 23 13 78
2 85 -5 3 -23 -4 -40 -14z"/>
<path d="M5024 3420 c-127 -156 -129 -160 -129 -216 0 -62 17 -84 89 -121 46
-23 52 -24 80 -10 127 60 160 169 89 296 -20 36 -44 79 -54 94 l-17 29 -58
-72z m110 -55 c41 -86 44 -129 11 -187 -54 -97 -123 -116 -188 -53 -68 66 -60
100 52 238 70 85 85 85 125 2z"/>
<path d="M4586 3207 c-29 -29 -35 -111 -9 -139 42 -46 200 -64 247 -27 35 28
33 57 -9 106 -67 78 -181 108 -229 60z m154 -25 c39 -21 87 -99 77 -125 -9
-25 -96 -22 -168 4 l-59 22 0 43 c0 68 5 74 64 74 30 0 65 -7 86 -18z"/>
<path d="M733 2826 c-7 -23 -29 -63 -49 -87 -31 -38 -36 -49 -32 -84 3 -22 16
-69 29 -105 l24 -65 5 55 c6 62 16 84 54 119 15 14 31 42 37 64 9 34 7 46 -16
93 -15 30 -30 54 -34 54 -4 0 -12 -20 -18 -44z m37 -72 c0 -41 -12 -68 -48
-106 -33 -36 -42 -35 -42 5 0 21 12 49 38 84 20 29 40 52 45 52 4 1 7 -15 7
-35z"/>
<path d="M2026 2740 c-20 -90 -21 -192 -1 -229 15 -30 70 -81 86 -81 6 0 5 9
-2 21 -6 12 -8 42 -6 68 19 167 21 150 -21 225 l-39 68 -17 -72z m54 -71 c12
-42 -1 -132 -20 -144 -10 -6 -30 49 -30 83 0 33 21 102 31 102 5 0 13 -19 19
-41z"/>
<path d="M1946 3584 c-11 -29 -6 -62 13 -85 26 -32 105 -34 127 -5 19 27 18
70 -4 89 -25 23 -127 24 -136 1z m115 -30 c11 -14 10 -19 -10 -35 -33 -27 -58
-24 -76 11 -8 16 -15 31 -15 35 0 13 88 4 101 -11z"/>
<path d="M1360 3574 c-8 -3 -25 -10 -38 -17 l-23 -11 23 -13 c29 -16 104 -17
114 -1 5 8 2 9 -9 5 -10 -3 -17 -2 -17 3 0 16 42 11 62 -7 14 -12 23 -14 40
-6 22 11 22 12 -15 27 -41 18 -114 29 -137 20z"/>
<path d="M3368 911 c-50 -32 -81 -79 -76 -113 5 -35 25 -31 32 5 10 51 69 97
127 97 29 0 26 -60 -4 -88 -30 -28 -57 -29 -57 -2 0 17 4 19 26 14 30 -8 30
12 1 30 -27 17 -51 -5 -55 -48 -9 -104 97 -82 133 27 13 40 13 53 3 75 -19 40
-70 41 -130 3z"/>
<path d="M1364 4759 c-42 -12 -56 -31 -52 -70 7 -69 108 -99 154 -45 31 36 30
71 -2 101 -28 26 -49 29 -100 14z m96 -34 c20 -12 10 -53 -17 -75 -32 -25 -79
-21 -100 7 -14 19 -17 65 -5 77 8 9 105 1 122 -9z"/>
<path d="M559 4362 c-27 -24 -33 -38 -37 -83 -3 -45 0 -59 19 -83 28 -36 76
-56 134 -56 39 0 50 5 85 40 32 32 40 47 40 75 0 83 -58 135 -152 135 -49 0
-62 -4 -89 -28z m185 -31 c39 -39 41 -98 6 -137 -43 -44 -171 -27 -200 27 -28
51 -2 115 55 140 40 17 105 3 139 -30z"/>
<path d="M1729 4311 c-46 -46 -37 -106 21 -136 44 -23 78 -19 111 14 48 48 31
108 -37 137 -48 20 -62 18 -95 -15z m121 -30 c29 -56 -3 -98 -67 -88 -45 8
-63 23 -63 56 0 39 17 51 72 51 37 0 50 -4 58 -19z"/>
</g>
</svg>
