<?xml version="1.0" encoding="UTF-8" standalone="no"?>
<svg
   xmlns:dc="http://purl.org/dc/elements/1.1/"
   xmlns:cc="http://creativecommons.org/ns#"
   xmlns:rdf="http://www.w3.org/1999/02/22-rdf-syntax-ns#"
   xmlns:svg="http://www.w3.org/2000/svg"
   xmlns="http://www.w3.org/2000/svg"
   xmlns:sodipodi="http://sodipodi.sourceforge.net/DTD/sodipodi-0.dtd"
   xmlns:inkscape="http://www.inkscape.org/namespaces/inkscape"
   version="1.0"
   width="850.000000pt"
   height="850.000000pt"
   viewBox="0 0 850.000000 850.000000"
   preserveAspectRatio="xMidYMid meet"
   id="svg2"
   inkscape:version="0.91 r13725"
   sodipodi:docname="IMG_1868.svg">
  <defs
     id="defs134" />
  <sodipodi:namedview
     pagecolor="#ffffff"
     bordercolor="#666666"
     borderopacity="1"
     objecttolerance="10"
     gridtolerance="10"
     guidetolerance="10"
     inkscape:pageopacity="0"
     inkscape:pageshadow="2"
     inkscape:window-width="1920"
     inkscape:window-height="980"
     id="namedview132"
     showgrid="false"
     inkscape:zoom="0.88847059"
     inkscape:cx="589.9938"
     inkscape:cy="415.47661"
     inkscape:window-x="0"
     inkscape:window-y="1"
     inkscape:window-maximized="1"
     inkscape:current-layer="svg2" />
  <metadata
     id="metadata4">
Created by potrace 1.14, written by Peter Selinger 2001-2017
<rdf:RDF>
  <cc:Work
     rdf:about="">
    <dc:format>image/svg+xml</dc:format>
    <dc:type
       rdf:resource="http://purl.org/dc/dcmitype/StillImage" />
  </cc:Work>
</rdf:RDF>
</metadata>
  <g
     transform="translate(0.000000,850.000000) scale(0.100000,-0.100000)"
     fill="#000000"
     stroke="none"
     id="g6">
    <path
       d="M0 6464 l0 -2037 93 89 c212 206 424 311 648 322 219 10 400 -67 565 -239 102 -108 176 -237 209 -364 19 -75 19 -203 0 -275 -8 -30 -12 -57 -8 -60 3 -3 42 36 87 85 212 234 287 292 417 316 76 14 160 2 239 -32 55 -24 230 -138 230 -150 0 -10 -24 -16 -103 -24 -74 -8 -146 -33 -244 -84 -100 -52 -199 -127 -377 -284 -248 -219 -353 -295 -531 -384 -118 -59 -220 -95 -359 -125 -86 -19 -132 -22 -306 -22 -215 0 -301 11 -483 65 -38 11 -71 19 -73 16 -2 -2 -3 -217 -2 -477 l3 -474 68 61 c296 263 1001 414 1462 313 312 -69 548 -185 789 -389 138 -117 303 -251 310 -251 2 0 -17 42 -44 93 -90 171 -164 396 -192 582 -21 144 -16 409 10 532 96 451 403 838 841 1059 l91 45 0 224 c0 512 -96 850 -300 1055 -134 134 -298 176 -536 135 -210 -36 -290 -76 -491 -247 -121 -102 -177 -132 -276 -148 -116 -18 -182 10 -233 102 -27 50 -29 59 -29 168 1 131 16 185 86 289 55 82 214 221 312 272 92 48 200 86 268 95 27 4 49 10 49 14 0 3 -12 17 -26 31 -36 33 -67 83 -94 154 -33 84 -34 243 -2 329 70 191 242 353 428 401 75 19 223 19 298 0 141 -37 281 -143 343 -260 17 -33 52 -127 78 -210 100 -317 188 -421 387 -455 81 -14 133 -2 185 43 100 87 97 263 -5 332 -30 21 -49 25 -107 25 -54 0 -79 5 -110 23 -46 26 -93 96 -102 152 -5 33 -4 38 11 32 10 -4 35 2 59 15 158 81 292 42 368 -109 l35 -71 33 35 c64 67 172 95 236 60 17 -9 50 -35 75 -58 34 -30 41 -42 30 -47 -8 -3 -44 -33 -80 -67 -87 -83 -116 -97 -195 -93 l-63 3 -5 -67 c-3 -37 -15 -88 -27 -114 -11 -26 -19 -48 -17 -50 2 -2 32 8 67 22 96 39 208 56 325 50 132 -7 238 -35 362 -96 215 -106 318 -275 289 -473 -15 -100 -108 -187 -200 -187 -78 0 -145 31 -267 124 -176 133 -273 176 -400 176 -133 0 -319 -74 -419 -167 -49 -45 -71 -76 -111 -157 -87 -179 -119 -362 -119 -675 0 -188 11 -301 42 -449 17 -83 24 -101 37 -98 9 3 28 8 43 11 24 6 26 10 20 38 -4 18 -7 127 -7 242 1 222 16 339 66 502 83 267 231 380 355 271 91 -80 104 -212 34 -355 -17 -34 -44 -73 -61 -87 -34 -29 -84 -34 -93 -10 -9 24 -7 29 6 16 21 -21 45 -13 81 27 63 70 99 200 77 281 -36 135 -153 180 -242 93 -135 -130 -232 -570 -203 -917 l7 -88 66 8 c37 5 146 9 242 8 139 -1 193 -5 265 -22 50 -11 97 -23 106 -27 12 -4 19 5 28 37 17 54 56 109 100 139 27 19 48 24 95 24 169 0 265 -171 181 -323 -26 -48 -27 -55 -13 -63 38 -21 179 -131 252 -197 211 -190 325 -355 512 -740 118 -243 171 -329 250 -402 89 -81 99 -84 239 -76 134 7 431 63 516 96 70 28 199 106 274 167 58 47 165 189 165 219 0 12 -8 13 -35 8 -20 -3 -65 1 -109 10 -205 46 -356 247 -356 472 0 288 203 615 395 636 39 4 49 -28 10 -38 -36 -9 -93 -80 -110 -138 -20 -66 -19 -186 1 -234 31 -76 85 -114 214 -152 189 -56 281 -150 267 -272 -4 -27 -3 -48 1 -46 109 56 214 82 299 74 74 -6 108 -20 236 -93 112 -64 226 -103 300 -103 59 0 83 -11 74 -34 -5 -11 -19 -16 -51 -16 -109 0 -195 -33 -276 -105 -95 -84 -182 -110 -347 -103 -95 3 -101 5 -185 51 -62 34 -97 47 -126 47 -83 0 -103 -19 -153 -141 -16 -39 -38 -83 -49 -99 -20 -28 -27 -56 -12 -46 17 10 327 57 476 71 88 8 251 15 363 15 193 0 203 1 203 19 0 11 20 39 44 64 94 97 201 118 281 55 36 -28 65 -92 65 -145 0 -47 -14 -39 133 -76 l57 -15 0 785 c0 721 -1 785 -16 779 -91 -35 -260 -33 -359 4 -45 17 -84 23 -155 24 -111 3 -148 10 -211 42 -49 25 -95 71 -131 133 l-22 38 -62 -42 c-128 -88 -272 -121 -484 -111 -290 12 -619 83 -812 173 l-97 46 -121 -109 c-203 -182 -270 -226 -420 -276 -86 -29 -107 -32 -220 -32 -170 -1 -262 28 -461 146 -123 72 -135 111 -17 54 157 -75 356 -101 548 -72 110 17 225 61 237 92 3 9 -4 66 -15 128 -31 160 -36 223 -23 303 30 195 145 340 346 438 109 53 210 79 283 72 46 -5 52 -4 48 11 -15 52 -35 179 -41 257 -21 291 105 458 382 503 182 30 359 -22 477 -140 l58 -59 -7 38 c-40 210 -31 352 33 515 120 311 493 617 888 730 111 31 271 32 332 2 l42 -21 0 538 0 539 -4250 0 -4250 0 0 -2036z m4894 1842 c353 -98 556 -320 573 -626 9 -172 -38 -297 -160 -426 -85 -90 -186 -160 -329 -229 -157 -75 -278 -106 -448 -112 -221 -8 -361 37 -494 158 l-64 59 -36 -15 c-19 -8 -52 -15 -73 -14 -36 0 -35 1 25 20 34 11 62 24 62 30 0 5 -22 39 -50 76 -184 243 -125 601 141 864 114 112 253 187 415 223 92 21 353 16 438 -8z m-2773 -161 c75 -55 86 -58 174 -46 38 6 73 7 77 3 4 -4 -7 -42 -24 -84 l-32 -77 27 -62 c15 -34 25 -64 23 -67 -3 -2 -34 1 -69 7 -88 15 -85 16 -108 -36 -18 -42 -43 -72 -61 -73 -3 0 -22 22 -41 49 -31 42 -44 52 -101 71 -45 15 -66 27 -66 38 0 8 18 43 39 76 31 48 40 75 46 126 15 141 21 145 116 75z m4482 -911 l62 -56 112 4 c61 1 114 0 118 -4 4 -4 -7 -32 -24 -62 -37 -63 -36 -76 15 -178 19 -37 34 -73 34 -79 0 -11 -15 -11 -172 7 l-48 6 -27 -47 c-16 -26 -38 -59 -51 -73 l-23 -27 -17 25 c-43 63 -86 100 -147 126 -36 16 -65 34 -65 40 0 7 16 34 35 60 65 91 75 109 75 144 0 59 34 170 52 170 5 0 38 -25 71 -56z m-1766 -613 c81 -12 142 -42 188 -93 51 -56 75 -112 75 -178 0 -71 -19 -100 -64 -100 -47 0 -77 34 -120 139 -56 135 -110 199 -187 218 -18 5 -35 15 -37 22 -4 11 5 13 39 7 24 -4 72 -11 106 -15z m-2946 -47 c65 -31 159 -109 159 -132 0 -15 -22 -16 -37 -1 -6 6 -37 11 -68 10 -60 0 -65 -3 -175 -78 -84 -58 -139 -55 -179 11 -47 75 -24 169 49 208 55 30 166 22 251 -18z m-1296 -824 c35 -32 76 -62 91 -66 34 -9 197 2 248 17 51 14 63 2 40 -42 -21 -41 -44 -124 -44 -161 0 -21 20 -45 95 -114 52 -48 95 -93 95 -100 0 -8 -12 -16 -27 -19 -62 -13 -250 -68 -280 -82 -18 -9 -50 -38 -70 -67 -63 -87 -68 -86 -124 6 -76 125 -124 163 -266 213 -26 9 -11 39 53 113 88 101 104 139 104 256 0 82 4 106 17 106 2 0 32 -27 68 -60z m4355 -230 c90 -46 126 -175 59 -211 -49 -26 -89 26 -89 115 0 43 -5 59 -21 75 -20 19 -19 41 2 41 5 0 27 -9 49 -20z m-2094 -14 c118 -55 254 -288 339 -581 30 -104 58 -258 52 -283 -3 -11 -5 -8 -6 8 -2 40 -47 216 -82 320 -40 120 -124 299 -177 377 -104 154 -226 197 -300 107 -55 -67 -66 -152 -29 -224 44 -86 105 -101 176 -42 38 31 44 71 17 101 -11 12 -13 21 -7 25 16 10 51 -35 51 -65 0 -32 -40 -83 -81 -104 -142 -74 -257 115 -172 283 20 42 39 63 68 79 51 29 88 29 151 -1z m-792 -55 c4 -5 -12 -24 -34 -41 -81 -64 -113 -153 -99 -274 9 -88 0 -128 -38 -168 -52 -54 -120 -25 -143 63 -32 119 54 270 216 379 78 52 89 56 98 41z m2314 -444 c37 -18 72 -86 72 -141 0 -39 -5 -53 -28 -76 -33 -32 -99 -54 -136 -44 -14 3 -43 26 -66 50 -45 49 -50 77 -21 139 38 84 103 110 179 72z m3017 -606 c50 -22 91 -69 106 -121 26 -87 -39 -193 -134 -219 -58 -17 -126 -10 -161 15 -59 43 -92 160 -65 231 35 93 158 138 254 94z m-1170 -446 c51 -50 20 -115 -55 -117 -53 -2 -80 20 -80 63 0 71 85 105 135 54z m-4220 -824 c112 -51 129 -177 31 -228 -118 -61 -230 -10 -230 105 1 115 93 172 199 123z"
       id="path8"
       style="fill:none" />
    <path
       d="M4565 8304 c-132 -14 -283 -65 -381 -130 -306 -203 -445 -575 -315 -849 31 -65 104 -155 127 -155 7 0 29 14 48 30 21 19 37 27 41 20 6 -10 -7 -24 -63 -67 l-22 -18 57 -47 c124 -103 255 -148 431 -148 350 0 758 209 889 456 86 161 82 363 -9 537 -67 128 -223 255 -387 314 -119 44 -301 68 -416 57z m-256 -191 c-64 -81 -104 -154 -115 -210 -4 -20 -12 -33 -21 -33 -49 0 82 250 160 305 42 30 36 14 -24 -62z m207 -5 c-61 -95 -96 -161 -96 -182 0 -21 32 -28 85 -20 28 4 45 2 45 -4 0 -15 -26 -22 -80 -22 -46 0 -80 17 -80 40 0 26 62 135 123 218 61 81 63 61 3 -30z m222 16 c60 -42 -17 -264 -93 -264 -29 0 -65 43 -65 78 0 64 54 166 100 189 32 16 31 16 58 -3z m122 -18 c0 -3 -9 -42 -20 -88 -21 -88 -26 -158 -11 -158 19 0 65 67 105 150 29 62 41 79 44 63 2 -11 -15 -57 -37 -101 -64 -128 -108 -167 -141 -126 -11 12 -11 30 -2 87 14 91 40 177 52 177 6 0 10 -2 10 -4z m294 -84 c3 -5 -15 -13 -38 -20 -24 -6 -58 -23 -76 -38 l-32 -27 26 -14 c39 -20 32 -34 -16 -31 -38 3 -44 0 -56 -26 -12 -24 -13 -39 -3 -79 6 -28 9 -52 6 -55 -13 -14 -29 23 -33 77 -5 69 13 107 75 162 55 48 132 75 147 51z m96 -130 c0 -5 -14 -21 -31 -38 -42 -40 -81 -109 -77 -136 5 -34 44 -36 78 -3 15 14 37 48 50 75 31 67 57 69 28 3 -50 -114 -135 -168 -173 -109 -25 37 -5 94 56 160 48 52 69 67 69 48z m-1142 -194 c13 -13 16 -259 3 -292 -17 -43 -23 10 -16 135 5 82 4 129 -3 129 -11 0 -35 -73 -66 -199 -29 -117 -43 -115 -50 6 -4 54 -9 118 -13 143 l-6 45 -14 -45 c-8 -25 -17 -87 -20 -137 -3 -51 -10 -93 -14 -93 -14 0 -10 139 6 214 27 128 59 122 79 -15 l13 -84 12 45 c17 63 42 133 54 148 12 15 20 15 35 0z m190 -29 c22 -41 -1 -245 -35 -312 -18 -36 -61 -34 -81 3 -27 51 10 242 60 313 23 32 37 31 56 -4z m183 -36 c6 -17 7 -48 1 -87 -6 -34 -9 -62 -7 -64 1 -1 16 20 32 47 38 60 65 78 84 55 11 -13 10 -30 -4 -98 -17 -83 -50 -192 -61 -203 -18 -18 -14 16 13 118 32 117 38 159 22 159 -11 0 -66 -104 -95 -181 -13 -35 -29 -65 -35 -67 -15 -5 -14 7 9 126 11 56 20 124 20 150 0 44 -1 45 -15 26 -22 -33 -63 -163 -70 -229 -11 -94 -27 -103 -21 -12 9 117 72 287 107 287 5 0 14 -12 20 -27z m257 -135 c2 -15 -4 -55 -13 -89 -8 -34 -13 -64 -11 -67 3 -2 20 27 39 64 19 38 44 77 55 87 19 17 20 17 37 1 14 -14 16 -29 12 -71 -7 -63 -54 -213 -68 -213 -14 0 -11 15 17 104 16 51 24 99 22 127 l-3 44 -66 -120 c-37 -68 -73 -121 -82 -123 -23 -5 -22 13 9 119 14 49 24 99 22 111 -3 19 -10 10 -40 -42 -20 -36 -46 -90 -58 -120 -27 -69 -45 -89 -36 -40 8 42 67 171 103 223 30 43 56 45 61 5z m202 -103 c0 -76 10 -82 63 -35 39 34 47 36 47 15 0 -18 -62 -68 -92 -75 -17 -4 -35 -30 -68 -98 -24 -50 -48 -92 -52 -92 -17 0 -6 39 32 113 34 66 40 86 40 141 0 68 6 96 21 96 5 0 9 -29 9 -65z m230 0 c9 -11 16 -13 24 -5 5 5 20 10 33 10 18 0 23 -6 23 -27 0 -31 -82 -116 -108 -111 -9 2 -25 24 -36 50 -16 39 -17 52 -8 73 13 29 52 34 72 10z m-70 -169 c0 -30 -83 -106 -116 -106 -9 0 98 117 109 119 4 0 7 -5 7 -13z"
       id="path10"
       style="fill:#ffccff" />
    <path
       d="M4662 8076 c-43 -49 -68 -120 -54 -152 25 -53 64 -37 101 40 27 59 36 113 21 131 -19 23 -35 18 -68 -19z"
       id="path12"
       style="fill:#ffccff" />
    <path
       d="M4246 7632 c-46 -89 -62 -263 -24 -270 24 -5 48 81 55 201 6 103 -3 123 -31 69z"
       id="path14"
       style="fill:#ffccff" />
    <path
       d="M2037 8163 c-4 -7 -10 -48 -22 -144 -2 -20 -17 -56 -34 -80 -44 -67 -43 -70 24 -93 47 -17 66 -30 90 -63 16 -23 35 -42 41 -42 6 -1 23 26 38 59 22 53 29 60 48 55 75 -17 113 -23 116 -20 2 2 -6 21 -17 44 -27 52 -26 74 4 139 14 30 25 56 25 59 0 3 -33 2 -74 -2 -83 -7 -90 -5 -172 57 -53 40 -60 43 -67 31z"
       id="path16"
       style="fill:#ffff33" />
    <path
       d="M6526 7233 c-3 -16 -10 -59 -16 -97 -13 -80 -20 -96 -72 -155 -21 -24 -38 -47 -38 -51 0 -4 29 -22 65 -39 48 -24 76 -46 102 -81 l37 -49 38 64 c47 78 63 84 161 62 40 -9 74 -14 76 -12 2 3 -8 32 -24 66 -38 86 -43 129 -16 172 11 19 21 37 21 41 0 4 -40 4 -88 0 -102 -8 -123 0 -187 65 -21 23 -42 41 -46 41 -4 0 -10 -12 -13 -27z"
       id="path18"
       style="fill:#ff9933" />
    <path
       d="M4853 6560 c41 -45 71 -99 98 -179 22 -64 53 -101 85 -101 26 0 34 17 34 78 0 54 -27 115 -72 162 -37 37 -120 80 -157 80 -22 0 -22 -1 12 -40z"
       id="path20"
       style="fill:#99ffff" />
    <path
       d="M1663 6571 c-83 -38 -95 -117 -30 -188 33 -36 66 -29 146 32 57 43 84 57 133 66 56 11 59 13 42 27 -41 31 -142 71 -194 77 -43 4 -64 1 -97 -14z"
       id="path22"
       style="fill:#99ffff" />
    <path
       d="M532 5678 c6 -102 -14 -153 -96 -246 -31 -35 -54 -67 -51 -71 2 -5 25 -14 51 -21 60 -17 145 -96 199 -184 22 -36 42 -65 45 -65 3 0 22 23 43 50 50 66 72 78 221 119 l127 34 -85 82 c-80 76 -86 85 -86 122 0 22 9 69 20 103 10 35 18 64 16 66 -1 1 -29 -2 -62 -7 -88 -15 -181 -12 -218 5 -18 9 -50 34 -71 55 -22 22 -43 40 -48 40 -6 0 -8 -35 -5 -82z"
       id="path24"
       style="fill:#ffcc33" />
    <path
       d="M4950 5431 c0 -44 5 -65 20 -82 20 -24 20 -24 35 -5 21 27 19 51 -7 97 -34 61 -48 58 -48 -10z"
       id="path26"
       style="fill:#6699ff" />
    <path
       d="M1877 5309 c-65 -75 -98 -140 -104 -207 -8 -105 56 -170 106 -106 20 25 21 38 19 148 -3 107 0 127 19 169 12 26 18 47 13 47 -5 0 -29 -23 -53 -51z"
       id="path28"
       style="fill:#99ffff" />
    <path
       d="M4280 4982 c-44 -22 -76 -77 -66 -116 11 -46 58 -86 101 -86 42 0 90 22 99 45 17 45 -1 112 -40 146 -31 27 -57 30 -94 11z"
       id="path30"
       style="fill:#66ccff" />
    <path
       d="M7240 4368 c-80 -41 -103 -119 -58 -199 46 -84 108 -102 203 -60 57 25 85 69 85 133 0 41 -5 54 -35 86 -32 37 -87 62 -132 62 -10 0 -39 -10 -63 -22z"
       id="path32"
       style="fill:#66ccff" />
    <path
       d="M6142 3944 c-48 -33 -11 -98 45 -78 37 13 44 55 11 78 -12 9 -25 16 -28 16 -3 0 -16 -7 -28 -16z"
       id="path34"
       style="fill:#66ccff" />
    <path
       d="M1883 3108 c-25 -12 -53 -64 -53 -98 0 -38 38 -89 73 -98 77 -20 167 30 167 94 0 78 -111 139 -187 102z"
       id="path36"
       style="fill:#6699ff" />
    <path
       d="M8155 7421 c-432 -117 -806 -440 -917 -791 -30 -99 -32 -287 -4 -433 25 -129 15 -139 -53 -53 -89 113 -183 167 -333 189 -204 30 -426 -65 -489 -209 -11 -24 -25 -79 -31 -124 -14 -95 0 -251 33 -376 29 -109 33 -134 20 -134 -6 0 -17 13 -25 29 -55 105 -369 2 -539 -177 -129 -136 -161 -299 -110 -552 8 -41 18 -79 22 -83 4 -4 20 11 36 35 85 131 275 323 398 405 181 120 363 150 513 84 42 -19 45 -19 39 -3 -4 9 -12 57 -18 105 -20 160 24 267 178 423 138 141 261 212 438 254 96 23 232 26 325 6 l62 -13 -15 21 c-88 122 -106 278 -50 438 67 194 240 370 444 452 69 28 86 30 191 31 104 0 120 -2 173 -27 l57 -27 0 253 0 254 -37 18 c-56 27 -215 30 -308 5z"
       id="path38"
       style="fill:#ccccff" />
    <path
       d="M2565 7229 c-220 -31 -422 -215 -480 -434 -23 -89 -20 -134 13 -186 49 -76 163 -166 254 -201 28 -10 137 -29 251 -43 111 -14 257 -32 325 -40 152 -19 221 -41 337 -109 50 -29 121 -63 159 -76 63 -21 75 -22 140 -11 77 13 156 46 197 83 47 41 122 141 147 196 17 38 26 79 30 138 l5 85 66 -7 c84 -8 109 3 195 82 l65 61 -27 26 c-43 42 -96 59 -140 47 -58 -15 -125 -64 -151 -110 -25 -45 -36 -45 -47 3 -13 63 -51 132 -92 169 -45 40 -89 53 -156 46 -53 -6 -166 -49 -166 -63 1 -23 48 -91 77 -111 24 -16 55 -23 123 -28 83 -7 94 -10 127 -39 50 -44 73 -99 73 -174 0 -70 -9 -101 -47 -156 -53 -77 -141 -107 -253 -87 -204 37 -308 156 -399 461 -57 187 -96 263 -176 337 -119 112 -286 164 -450 141z m-113 -220 c44 -24 62 -127 33 -195 -17 -40 -40 -39 -25 2 15 40 12 127 -6 152 -23 33 -71 29 -117 -9 -38 -31 -48 -29 -22 5 37 49 95 68 137 45z"
       id="path40"
       style="fill:#33ccff" />
    <path
       d="M8156 6905 c-169 -43 -349 -181 -442 -341 -71 -121 -100 -278 -71 -387 20 -76 58 -138 133 -218 71 -75 96 -119 118 -206 21 -79 21 -254 0 -369 -33 -181 -15 -290 59 -371 46 -49 95 -68 146 -53 85 24 181 108 225 196 50 101 54 254 8 356 -27 61 -93 118 -137 118 -73 0 -153 -116 -142 -208 5 -50 39 -92 74 -92 30 0 57 42 49 75 -5 18 -2 25 8 25 36 0 24 -100 -14 -120 -74 -40 -158 43 -147 146 10 101 92 204 163 204 67 0 135 -56 176 -145 20 -43 23 -66 23 -170 -1 -149 -20 -207 -100 -294 -95 -102 -204 -143 -288 -107 -62 25 -137 140 -137 207 0 42 -19 23 -44 -44 -35 -90 -76 -163 -138 -245 -34 -44 -47 -70 -43 -83 13 -40 84 -115 136 -144 51 -28 60 -30 169 -30 142 0 229 25 336 97 83 55 141 123 190 220 l34 68 0 629 0 630 -56 -25 c-72 -32 -190 -64 -234 -64 -63 0 -113 21 -156 64 -55 54 -72 110 -55 174 14 53 52 108 81 117 27 9 60 -12 60 -37 0 -21 -1 -21 -20 -3 -20 18 -21 18 -45 -5 -13 -13 -32 -43 -41 -67 -22 -56 -8 -109 42 -157 49 -47 107 -62 186 -46 65 12 176 53 216 78 l22 15 -2 281 -3 281 -57 29 c-71 35 -190 44 -282 21z"
       id="path42"
       style="fill:#6699ff" />
    <path
       d="M2085 6560 c19 -69 61 -143 106 -185 46 -43 51 -45 107 -45 94 0 242 -30 447 -90 17 -5 111 -37 210 -71 174 -60 184 -62 300 -67 152 -6 174 -2 120 22 -22 9 -74 37 -116 62 -158 92 -220 106 -734 160 -167 17 -318 90 -411 197 -30 35 -34 38 -29 17z"
       id="path44"
       style="fill:#3399cc" />
    <path
       d="M4125 6396 c-145 -29 -200 -58 -293 -153 -83 -85 -188 -143 -273 -151 -42 -4 -54 -11 -85 -45 -20 -22 -47 -63 -60 -92 -21 -49 -54 -159 -54 -183 0 -5 53 43 118 107 138 138 185 166 268 159 51 -4 57 -2 88 27 62 59 119 78 236 83 94 3 110 1 150 -20 51 -26 90 -84 90 -134 0 -26 6 -34 33 -45 17 -7 78 -49 135 -92 223 -169 318 -188 409 -83 42 47 56 95 51 180 -9 191 -186 360 -445 427 -102 26 -276 33 -368 15z"
       id="path46"
       style="fill:#66cccc" />
    <path
       d="M2085 6276 c-169 -45 -311 -128 -435 -255 -81 -82 -120 -149 -146 -253 -32 -125 2 -275 75 -327 80 -57 250 -23 365 73 l29 24 -17 41 c-30 77 -11 177 47 239 55 60 189 96 270 74 35 -10 39 -9 47 12 12 32 62 80 106 101 70 33 217 3 270 -56 15 -17 18 -16 56 14 35 28 47 32 102 32 53 0 70 -5 120 -35 31 -19 80 -52 107 -72 27 -21 49 -36 49 -33 0 15 -98 130 -147 173 -125 108 -262 181 -438 234 -84 25 -122 30 -235 34 -120 4 -145 2 -225 -20z"
       id="path48"
       style="fill:#66cccc" />
    <path
       d="M2844 6168 c58 -39 155 -114 184 -142 58 -53 173 -216 226 -316 l50 -95 27 135 c29 146 56 228 94 285 14 20 25 37 25 38 0 1 -69 2 -153 2 l-152 1 -145 48 c-178 60 -180 60 -156 44z"
       id="path50"
       style="fill:#009999" />
    <path
       d="M4002 6120 c-80 -17 -151 -65 -188 -126 -10 -16 -12 -16 -42 6 -28 21 -35 22 -70 12 -59 -18 -125 -66 -222 -163 -120 -121 -141 -165 -149 -312 l-6 -112 -23 77 c-55 190 -123 288 -265 386 -101 69 -129 82 -182 82 -41 0 -104 -24 -105 -40 0 -3 -7 -14 -15 -24 -14 -18 -16 -17 -59 22 -74 69 -178 87 -257 47 -46 -24 -82 -75 -75 -107 6 -32 -7 -36 -38 -13 -34 25 -160 20 -223 -10 -90 -41 -139 -148 -113 -243 6 -23 13 -42 16 -42 3 0 42 29 87 65 147 117 289 174 497 197 306 34 499 -81 650 -387 61 -124 96 -241 120 -410 31 -209 41 -369 34 -515 -5 -113 -4 -146 11 -195 26 -90 55 -146 74 -143 37 7 40 150 7 325 -62 328 -62 727 0 973 35 139 113 291 184 360 137 135 398 210 570 166 30 -8 57 -12 59 -10 3 2 -4 25 -15 51 -14 33 -29 51 -55 65 -42 22 -146 31 -207 18z"
       id="path52"
       style="fill:#66ffff" />
    <path
       d="M7295 5969 c-105 -28 -260 -109 -340 -177 -122 -105 -193 -205 -221 -312 -32 -124 11 -299 91 -369 37 -33 136 -67 219 -77 150 -18 387 117 455 258 49 104 35 221 -37 291 -96 94 -214 89 -306 -13 -45 -50 -59 -85 -51 -127 7 -40 57 -83 96 -83 41 0 83 42 75 76 -5 17 -2 24 8 24 44 0 18 -88 -34 -115 -37 -19 -99 -19 -126 0 -52 36 -68 128 -35 194 21 41 83 101 128 125 114 59 267 -6 323 -136 31 -72 25 -180 -13 -255 -55 -107 -192 -211 -336 -254 -111 -33 -208 -21 -363 46 -16 6 -18 1 -18 -36 0 -51 -29 -104 -65 -121 -57 -26 -207 38 -239 101 -24 45 -20 84 10 115 35 34 94 36 124 4 24 -26 24 -73 0 -73 -10 0 -14 8 -12 22 3 25 -32 54 -57 46 -109 -39 -25 -169 122 -189 39 -6 46 -3 65 21 47 60 18 181 -56 230 -42 27 -138 55 -192 55 -112 -1 -261 -61 -385 -155 -134 -102 -332 -322 -387 -428 -45 -90 -202 -140 -433 -140 -105 1 -159 6 -217 21 -43 10 -78 18 -78 16 0 -2 22 -15 48 -28 170 -86 366 -102 542 -45 142 47 237 110 430 287 62 56 116 102 120 102 4 0 41 -16 81 -36 268 -132 815 -219 1076 -169 185 35 332 152 430 341 98 189 147 381 146 579 -1 229 -69 351 -219 390 -83 22 -278 19 -369 -6z"
       id="path54"
       style="fill:#6699ff" />
    <path
       d="M8460 4843 c-67 -106 -201 -209 -317 -244 -24 -7 -43 -15 -43 -19 0 -9 92 -28 175 -36 60 -6 199 16 217 34 5 5 7 79 6 165 l-3 156 -35 -56z"
       id="path56"
       style="fill:#6699ff" />
    <path
       d="M692 4809 c-217 -28 -467 -173 -642 -373 l-50 -57 0 -354 0 -353 31 -31 c198 -198 546 -75 650 230 43 129 22 299 -52 405 -62 91 -175 123 -265 76 -88 -45 -181 -184 -191 -286 -8 -75 11 -131 62 -185 41 -43 47 -46 94 -46 59 0 95 23 124 78 25 48 17 100 -19 124 -23 15 -28 15 -61 -1 -43 -20 -55 -13 -26 15 32 32 90 30 119 -4 74 -86 -1 -233 -124 -244 -65 -6 -126 33 -167 108 -26 47 -30 64 -30 130 0 66 4 84 37 150 71 144 195 230 306 213 138 -21 243 -186 243 -384 0 -199 -114 -380 -291 -464 -54 -25 -80 -31 -155 -34 -107 -5 -176 17 -243 74 l-42 36 0 -156 0 -155 70 -21 c190 -56 414 -86 565 -75 405 29 675 154 1046 482 341 303 489 393 687 422 l47 6 -70 47 c-110 73 -165 92 -270 92 -82 0 -96 -2 -160 -33 -57 -28 -88 -53 -165 -134 -52 -55 -165 -171 -251 -257 -186 -187 -232 -216 -329 -207 -115 10 -213 92 -261 217 -65 170 -43 345 54 424 50 40 134 48 194 17 130 -66 163 -244 63 -343 -29 -30 -46 -38 -73 -38 -19 0 -40 6 -47 14 -10 13 -4 15 36 18 40 3 51 8 77 40 52 65 48 170 -10 239 -35 42 -74 59 -131 59 -62 0 -108 -29 -142 -90 -22 -40 -25 -57 -25 -145 0 -163 56 -286 159 -350 43 -26 59 -30 120 -30 65 0 76 3 128 37 74 48 141 139 168 225 24 78 27 221 6 301 -36 132 -119 265 -238 377 -161 152 -355 220 -556 194z"
       id="path58"
       style="fill:#ccccff" />
    <path
       d="M4431 4568 c-46 -29 -91 -125 -91 -193 1 -75 29 -128 82 -154 50 -24 85 -26 125 -9 119 52 177 192 120 292 -44 78 -163 111 -236 64z"
       id="path60"
       style="fill:#66ccff" />
    <path
       d="M3696 4430 c-73 -13 -77 -16 -71 -47 l5 -28 -11 28 c-10 26 -14 28 -48 22 -20 -4 -39 -9 -42 -11 -3 -2 -9 -49 -13 -105 -7 -98 -25 -159 -47 -159 -37 0 -81 63 -109 158 -7 23 -15 42 -17 42 -2 0 -38 -18 -81 -39 -179 -90 -375 -244 -500 -393 -246 -293 -353 -600 -339 -973 7 -200 27 -301 78 -389 55 -96 157 -240 214 -304 90 -100 260 -195 435 -244 97 -26 333 -36 464 -18 199 27 580 138 981 288 402 150 614 201 903 216 82 5 86 6 215 79 171 97 326 174 459 228 59 23 106 44 105 46 -2 1 -48 -6 -103 -17 -54 -11 -162 -23 -239 -27 -163 -7 -169 -5 -264 83 -88 81 -142 169 -289 466 -72 145 -156 301 -187 348 -120 178 -288 350 -474 483 l-79 57 -49 -25 c-75 -39 -112 -42 -176 -12 -65 29 -87 59 -102 136 -13 65 -21 71 -135 96 -86 19 -405 29 -484 15z m-351 -1793 c78 -68 205 -76 315 -19 67 34 102 31 55 -6 -40 -32 -134 -63 -192 -65 -43 -1 -53 -5 -58 -22 -5 -19 -6 -19 -19 4 -18 33 -48 43 -63 22 -10 -14 -12 -14 -18 4 -13 41 -23 50 -49 47 -24 -3 -26 -1 -17 16 13 25 5 32 -30 25 -33 -6 -40 12 -9 22 12 4 20 15 20 27 0 18 2 18 22 -8 13 -16 32 -37 43 -47z"
       id="path62"
       style="fill:#0033ff" />
    <path
       d="M6616 4290 c-67 -73 -138 -211 -166 -324 -23 -93 -26 -218 -6 -292 33 -123 124 -235 235 -288 59 -28 75 -31 159 -31 88 1 92 0 92 -20 0 -12 -14 -51 -32 -86 -39 -78 -196 -244 -280 -296 -32 -20 -58 -37 -58 -38 0 -1 53 11 118 26 108 26 120 31 149 65 18 20 41 55 50 77 51 114 91 183 115 201 21 15 45 20 96 20 63 1 73 -2 142 -44 l74 -45 131 0 c74 0 147 5 170 12 22 7 76 42 120 78 47 38 100 72 129 81 l49 16 -70 27 c-38 15 -110 51 -161 80 -118 69 -152 80 -238 81 -121 0 -240 -47 -329 -131 -29 -27 -57 -49 -63 -49 -27 0 -20 24 22 71 72 80 83 148 35 226 -31 49 -94 86 -219 128 -59 20 -125 49 -148 66 -49 36 -88 111 -98 186 -8 62 10 172 37 224 11 22 15 39 10 39 -5 0 -34 -27 -65 -60z"
       id="path64"
       style="fill:#003399" />
    <path
       d="M8059 3185 c-50 -26 -112 -90 -106 -108 2 -7 21 -13 43 -15 21 -1 88 -9 149 -17 148 -20 138 -22 130 28 -10 59 -31 95 -68 117 -42 26 -92 24 -148 -5z"
       id="path66"
       style="fill:#66ffff" />
    <path
       d="M7490 3033 c-177 -10 -513 -58 -715 -102 -126 -27 -382 -102 -501 -146 -205 -77 -405 -176 -657 -324 -75 -45 -287 -197 -287 -207 0 -1 57 24 128 57 735 348 1436 572 1992 635 173 19 475 14 580 -10 149 -34 309 -98 390 -156 14 -10 38 -22 53 -25 l27 -7 0 95 0 95 -108 26 c-260 62 -589 88 -902 69z"
       id="path68"
       style="fill:#99cccc" />
    <path
       d="M7610 2924 c-624 -43 -1423 -295 -2280 -720 -279 -138 -420 -217 -720 -402 -129 -80 -294 -176 -365 -213 -291 -152 -641 -228 -1055 -230 -102 0 -193 -4 -203 -8 -13 -5 10 -15 80 -35 54 -16 172 -55 263 -88 91 -33 215 -77 275 -99 186 -66 281 -82 500 -82 474 0 908 134 1456 449 110 63 456 275 521 318 15 11 14 16 -14 56 -28 42 -29 50 -26 120 4 89 25 138 83 196 119 119 353 93 426 -47 l14 -27 110 65 c283 165 668 339 945 428 215 69 487 124 689 141 77 6 83 8 65 22 -29 22 -136 70 -217 96 -137 45 -380 71 -547 60z m-1870 -801 c40 -27 49 -45 50 -91 0 -78 -75 -126 -143 -91 -48 25 -67 51 -67 93 1 60 46 106 105 106 17 0 42 -8 55 -17z"
       id="path70"
       style="fill:#99cc99" />
    <path
       d="M5637 2090 c-19 -16 -27 -30 -27 -54 0 -40 25 -65 72 -73 28 -4 39 -1 57 18 62 67 -29 166 -102 109z"
       id="path72"
       style="fill:#66ffff" />
    <path
       d="M8185 2694 c-477 -65 -1011 -265 -1534 -575 -78 -47 -80 -49 -105 -119 -36 -103 -174 -210 -274 -213 -26 0 -68 3 -93 7 l-46 8 -199 -124 c-616 -386 -954 -538 -1379 -623 -173 -34 -320 -48 -482 -44 -78 2 -136 1 -130 -3 24 -13 305 -77 427 -98 178 -29 388 -50 508 -50 90 0 115 4 213 36 317 102 748 327 1429 744 495 303 763 450 987 540 67 28 85 39 101 69 49 87 149 152 242 159 63 5 103 -10 142 -53 22 -24 25 -24 93 -14 40 7 144 10 243 7 l172 -4 0 173 c0 160 -1 173 -19 183 -26 14 -174 11 -296 -6z"
       id="path74"
       style="fill:#66ffff" />
    <path
       d="M1050 2689 c-370 -31 -786 -169 -945 -314 -35 -32 -37 -36 -15 -30 14 3 124 9 245 12 171 4 247 2 342 -11 331 -44 633 -165 1148 -461 318 -183 490 -263 765 -357 235 -79 417 -116 625 -125 319 -13 717 70 987 206 101 51 448 258 473 283 6 5 -28 -7 -75 -28 -207 -90 -435 -154 -677 -191 -141 -21 -475 -23 -593 -4 -150 25 -383 123 -555 236 -77 49 -325 246 -520 410 -243 206 -587 345 -925 375 -127 11 -130 11 -280 -1z"
       id="path76"
       style="fill:#99cccc" />
    <path
       d="M2510 2434 c0 -46 192 -456 207 -441 2 3 -10 40 -27 83 -17 43 -40 109 -50 147 -12 44 -36 92 -66 135 -56 80 -64 89 -64 76z"
       id="path78"
       style="fill:#3300cc" />
    <path
       d="M5400 2430 c-118 -9 -238 -29 -245 -40 -9 -14 63 -25 160 -25 86 0 94 2 143 34 49 31 62 43 45 40 -5 -1 -51 -5 -103 -9z"
       id="path80"
       style="fill:#330099" />
    <path
       d="M4972 2347 c-57 -16 -99 -34 -95 -38 14 -14 127 -40 204 -46 124 -10 198 3 242 40 l38 32 -75 2 c-43 2 -101 11 -135 23 -33 11 -64 20 -68 19 -4 -1 -54 -15 -111 -32z"
       id="path82"
       style="fill:#333399" />
    <path
       d="M7817 2369 c-117 -28 -206 -127 -207 -232 0 -89 49 -129 165 -135 70 -3 86 -1 125 20 25 14 58 44 75 67 26 37 30 51 30 110 0 86 -23 131 -80 160 -46 23 -52 23 -108 10z"
       id="path84"
       style="fill:#3366ff" />
    <path
       d="M305 2324 c-94 -5 -273 -24 -290 -30 -13 -5 -15 -57 -15 -380 0 -206 3 -374 8 -374 4 0 52 13 107 29 244 70 472 101 750 101 220 0 472 -20 699 -55 88 -14 161 -25 163 -25 2 0 3 5 3 12 0 26 52 78 89 89 81 24 164 -21 197 -106 9 -25 19 -45 23 -45 32 0 318 -49 499 -85 125 -24 254 -47 287 -50 56 -5 53 -3 -48 25 -335 92 -596 206 -987 430 -490 281 -789 403 -1090 444 -112 16 -297 25 -395 20z"
       id="path86"
       style="fill:#99cc99" />
    <path
       d="M8105 2304 c-75 -11 -71 -7 -67 -79 5 -81 -14 -138 -65 -190 -50 -51 -94 -68 -180 -68 -123 1 -204 58 -219 155 -4 21 -7 38 -9 38 -6 0 -135 -55 -218 -94 -140 -65 -329 -170 -577 -319 -118 -72 -321 -194 -450 -272 -518 -313 -866 -489 -1209 -611 -35 -12 10 -13 198 -4 252 13 460 39 711 90 274 56 449 106 1018 294 824 273 1077 335 1355 336 l107 0 0 354 c0 259 -3 357 -12 362 -13 8 -336 15 -383 8z m-532 -534 c28 -22 50 -81 40 -108 -11 -32 -56 -72 -87 -78 -44 -8 -83 10 -106 48 -26 43 -25 79 1 112 39 49 108 60 152 26z"
       id="path88"
       style="fill:#66ccff" />
    <path
       d="M7453 1734 c-20 -20 -24 -31 -19 -57 13 -65 68 -87 120 -46 30 24 35 72 10 107 -22 32 -77 30 -111 -4z"
       id="path90"
       style="fill:#66ffff" />
    <path
       d="M4732 2268 c-95 -35 -95 -40 -1 -87 80 -40 154 -54 258 -49 80 4 91 7 158 47 91 53 99 65 41 56 -78 -12 -247 16 -358 58 -8 3 -52 -8 -98 -25z"
       id="path92"
       style="fill:#330099" />
    <path
       d="M2664 2219 c10 -54 67 -188 96 -228 25 -34 128 -116 137 -108 1 2 -9 30 -22 63 -14 32 -28 75 -31 94 -5 27 -28 55 -96 121 -77 73 -89 81 -84 58z"
       id="path94"
       style="fill:#333399" />
    <path
       d="M6270 2231 c-124 -26 -209 -133 -198 -251 10 -98 80 -160 180 -160 69 1 130 29 191 88 88 85 111 173 65 242 -41 61 -153 98 -238 81z"
       id="path96"
       style="fill:#99ffff" />
    <path
       d="M4528 2193 c-38 -14 -68 -29 -68 -33 0 -24 130 -90 225 -115 97 -25 169 -19 244 19 l64 33 -70 6 c-97 9 -189 40 -248 82 -28 19 -57 35 -65 34 -8 0 -45 -12 -82 -26z"
       id="path98"
       style="fill:#330099" />
    <path
       d="M4313 2117 c-51 -17 -93 -37 -93 -43 0 -20 85 -84 139 -105 70 -26 217 -51 260 -43 19 4 67 21 105 39 l71 32 -70 12 c-91 16 -202 63 -253 106 -22 19 -46 35 -54 34 -7 0 -55 -15 -105 -32z"
       id="path100"
       style="fill:#333399" />
    <path
       d="M2860 2062 c0 -21 42 -129 66 -170 22 -38 38 -50 111 -84 46 -22 88 -38 93 -36 4 2 -12 37 -36 78 -24 41 -46 88 -50 103 -5 23 -21 35 -95 72 -49 25 -89 41 -89 37z"
       id="path102"
       style="fill:#3300cc" />
    <path
       d="M4045 2032 c-66 -20 -122 -38 -125 -40 -9 -8 115 -114 160 -137 112 -56 232 -59 368 -9 53 20 100 39 104 43 5 4 -32 14 -80 24 -118 22 -172 47 -236 107 -29 27 -57 50 -62 49 -5 0 -63 -17 -129 -37z"
       id="path104"
       style="fill:#330099" />
    <path
       d="M3793 1965 c-50 -11 -95 -23 -98 -27 -12 -11 31 -71 89 -127 71 -66 135 -95 196 -87 78 10 250 49 250 56 0 4 -21 10 -47 14 -76 10 -149 50 -227 124 l-71 68 -92 -21z"
       id="path106"
       style="fill:#330099" />
    <path
       d="M3070 1958 c0 -19 86 -168 113 -195 21 -21 118 -53 160 -53 16 0 14 5 -13 37 -29 33 -49 70 -87 164 -9 20 -21 27 -69 37 -33 6 -69 14 -81 18 -16 4 -23 2 -23 -8z"
       id="path108"
       style="fill:#333399" />
    <path
       d="M3554 1926 c-91 -11 -91 -11 -82 -35 16 -44 80 -122 134 -163 l54 -40 72 6 c40 4 91 9 113 13 l39 5 -39 20 c-51 27 -137 114 -164 166 -12 23 -25 41 -29 40 -4 0 -48 -6 -98 -12z"
       id="path110"
       style="fill:#333399" />
    <path
       d="M3270 1916 c0 -31 58 -131 98 -169 44 -43 86 -56 179 -57 l61 0 -62 63 c-36 36 -73 84 -87 115 l-24 52 -60 0 c-33 0 -70 3 -82 6 -17 5 -23 2 -23 -10z"
       id="path112"
       style="fill:#333399" />
    <path
       d="M1814 1655 c-39 -20 -61 -59 -70 -123 -7 -52 -6 -52 38 -97 36 -36 52 -45 79 -45 66 0 139 70 139 133 0 37 -34 103 -64 122 -36 24 -87 28 -122 10z"
       id="path114"
       style="fill:#3366ff" />
    <path
       d="M685 1634 c-253 -26 -391 -51 -574 -104 l-111 -33 0 -233 c0 -129 2 -234 5 -234 3 0 38 27 78 59 344 282 914 471 1421 471 202 0 119 22 -204 55 -144 15 -539 27 -615 19z"
       id="path116"
       style="fill:#66ffff" />
    <path
       d="M8315 1543 c-286 -24 -529 -88 -1276 -336 -741 -247 -1024 -316 -1494 -368 -162 -18 -749 -19 -910 -1 -171 19 -382 56 -519 91 -65 16 -115 26 -110 22 10 -9 352 -173 549 -264 258 -118 545 -223 755 -277 100 -26 151 -24 381 15 489 83 992 226 1393 396 77 33 382 179 676 323 294 145 581 283 638 307 84 36 102 48 102 65 0 32 -46 39 -185 27z"
       id="path118"
       style="fill:#00ffff" />
    <path
       d="M1340 1523 c-247 -24 -499 -79 -685 -148 -144 -53 -327 -145 -440 -220 -99 -66 -213 -155 -214 -166 -1 -3 61 9 137 28 171 42 415 86 603 110 201 25 759 25 1009 0 589 -59 952 -141 1835 -412 725 -223 1090 -319 1268 -335 132 -12 397 -13 397 -2 0 4 -85 35 -188 68 -226 74 -443 166 -822 349 -482 232 -688 320 -985 422 -354 120 -479 152 -890 223 -154 27 -292 51 -308 54 -24 5 -29 1 -43 -34 -30 -74 -109 -118 -178 -99 -52 14 -112 79 -121 128 l-7 41 -166 -2 c-92 0 -183 -3 -202 -5z"
       id="path120"
       style="fill:#66ccff" />
    <path
       d="M8305 1371 c-104 -48 -377 -182 -605 -297 -638 -322 -929 -438 -1420 -563 -231 -59 -532 -124 -640 -137 -85 -10 -91 -20 -19 -32 369 -64 814 -73 1253 -27 77 8 141 15 141 15 0 192 -1 183 32 246 125 240 460 312 650 140 43 -38 96 -130 108 -183 3 -18 12 -33 19 -33 41 0 400 135 574 216 l102 47 0 348 c0 192 -1 349 -2 348 -2 0 -88 -39 -193 -88z"
       id="path122"
       style="fill:#0099ff" />
    <path
       d="M950 1103 c-195 -13 -425 -45 -630 -88 -129 -26 -309 -71 -316 -78 -2 -2 -3 -119 -2 -260 l3 -256 75 46 c41 25 111 67 155 93 79 45 115 67 239 145 36 22 88 54 117 70 29 17 79 56 110 87 31 32 76 67 100 78 92 41 189 16 271 -71 l47 -50 108 16 c70 11 204 19 383 22 410 7 572 -13 1310 -163 624 -127 1503 -284 1516 -271 3 2 -64 22 -148 45 -181 49 -442 126 -849 250 -810 248 -1275 342 -1884 382 -145 9 -492 11 -605 3z"
       id="path124"
       style="fill:#0099cc" />
    <path
       d="M855 920 c-57 -12 -135 -68 -135 -97 0 -7 -19 -22 -42 -34 -24 -11 -68 -37 -98 -56 -118 -74 -253 -157 -447 -275 l-133 -80 0 -100 c0 -91 1 -99 18 -94 87 28 569 92 882 118 233 19 940 15 1395 -7 487 -24 1149 -25 1625 -2 190 9 474 20 633 23 158 4 287 10 287 14 0 4 -39 10 -87 14 -308 23 -1074 150 -1693 280 -677 142 -904 179 -1222 197 -212 12 -501 -3 -715 -37 -28 -4 -35 0 -62 40 -50 72 -133 111 -206 96z"
       id="path126"
       style="fill:#0099ff" />
    <path
       d="M7329 762 c-166 -45 -277 -174 -287 -334 -4 -66 -2 -79 12 -84 43 -16 687 113 718 144 12 12 -18 97 -54 149 -80 117 -235 167 -389 125z"
       id="path128"
       style="fill:#99ffff" />
    <path
       d="M8435 693 c-85 -44 -266 -119 -406 -168 -495 -172 -1021 -261 -1612 -272 -377 -7 -593 9 -885 68 -98 19 -107 20 -225 5 -148 -19 -385 -33 -692 -41 -126 -3 -444 -15 -705 -27 -399 -17 -555 -19 -975 -14 -275 4 -567 11 -650 16 -276 17 -1055 24 -1270 11 -329 -19 -684 -61 -921 -109 l-89 -18 -3 -72 -3 -72 4251 0 4250 0 0 360 c0 198 -3 360 -7 360 -5 -1 -30 -13 -58 -27z"
       id="path130"
       style="fill:#0066ff" />
  </g>
</svg>
