<?xml version="1.0" standalone="no"?>
<!DOCTYPE svg PUBLIC "-//W3C//DTD SVG 20010904//EN"
 "http://www.w3.org/TR/2001/REC-SVG-20010904/DTD/svg10.dtd">
<svg version="1.0" xmlns="http://www.w3.org/2000/svg"
 width="850.000000pt" height="850.000000pt" viewBox="0 0 850.000000 850.000000"
 preserveAspectRatio="xMidYMid meet">
<metadata>
Created by potrace 1.14, written by Peter Selinger 2001-2017
</metadata>
<g transform="translate(0.000000,850.000000) scale(0.100000,-0.100000)"
fill="#000000" stroke="none">
<path d="M3912 8141 c-41 -26 -56 -60 -48 -105 8 -42 38 -66 83 -66 42 0 65
24 61 64 -3 27 -7 31 -34 34 -32 3 -61 -19 -49 -38 4 -6 13 -2 24 11 16 20 18
20 31 4 18 -21 3 -49 -29 -53 -28 -4 -71 34 -71 63 0 56 77 97 131 69 42 -21
51 -47 48 -133 -4 -66 -10 -87 -46 -158 -23 -46 -63 -111 -89 -145 l-48 -61
-25 34 c-109 143 -218 234 -335 278 -74 28 -191 29 -223 2 -88 -73 -79 -211
15 -242 45 -15 110 -2 140 28 21 21 24 31 19 66 -9 66 -53 92 -111 65 -43 -19
-45 -71 -4 -84 26 -8 38 5 15 17 -23 13 -22 36 3 49 38 21 88 -28 76 -75 -4
-16 -20 -29 -52 -41 -45 -17 -48 -17 -83 2 -68 37 -78 114 -21 177 27 30 32
32 97 32 84 -1 138 -26 205 -97 56 -58 76 -113 82 -220 4 -62 2 -81 -12 -98
-11 -13 -82 -42 -197 -81 l-180 -60 -17 22 c-44 53 -4 127 73 136 33 4 48 1
58 -10 17 -22 10 -57 -15 -73 -17 -12 -23 -12 -39 0 -19 14 -19 15 -1 35 26
28 11 40 -16 13 -18 -18 -20 -25 -10 -46 24 -53 103 -38 115 20 17 92 -84 144
-182 94 -56 -28 -83 -77 -84 -150 -1 -33 -2 -60 -4 -60 -1 0 -24 32 -49 71
-60 91 -194 232 -252 266 -62 37 -139 38 -176 4 -56 -53 -39 -141 32 -160 53
-15 69 -14 92 9 41 41 9 109 -45 96 -27 -7 -31 -17 -15 -47 14 -25 30 -25 23
1 -7 25 22 28 31 4 9 -24 -12 -44 -46 -44 -88 0 -115 95 -38 135 57 29 135 -9
188 -92 39 -61 61 -174 69 -353 l6 -135 -40 -50 c-21 -27 -52 -71 -68 -97 -29
-47 -45 -60 -45 -37 0 6 -35 48 -79 93 -43 44 -87 97 -97 116 -25 49 -24 134
3 185 33 63 57 79 116 80 47 0 53 -3 74 -35 32 -46 28 -99 -8 -119 -54 -30
-112 17 -73 60 21 23 13 35 -14 20 -56 -30 -25 -104 46 -109 23 -2 51 2 62 8
53 28 45 123 -14 178 -32 28 -42 32 -93 32 -108 -1 -185 -58 -199 -146 -12
-80 2 -183 40 -292 20 -56 36 -105 36 -107 0 -3 -15 -5 -32 -5 -82 0 -158 -44
-184 -107 -20 -47 -18 -122 5 -159 24 -39 76 -64 134 -64 55 0 77 19 77 66 0
59 -59 96 -91 57 -13 -15 -11 -16 13 -11 32 6 53 -7 62 -38 8 -27 -16 -54 -47
-54 -117 0 -165 88 -93 168 32 34 39 37 89 37 126 0 164 -95 148 -362 -3 -35
-7 -63 -11 -63 -3 0 -24 18 -45 41 -51 52 -129 106 -230 157 -145 73 -200 92
-266 92 -76 0 -112 -20 -141 -78 -18 -38 -19 -49 -9 -83 22 -74 119 -106 160
-53 41 52 19 108 -39 102 -29 -2 -35 -7 -35 -27 0 -13 6 -26 14 -29 10 -3 12
0 8 12 -8 22 18 33 38 16 20 -17 19 -36 -5 -60 -27 -27 -52 -25 -89 6 -42 35
-43 90 -3 135 24 27 37 33 85 37 76 6 147 -28 217 -105 49 -54 219 -301 254
-370 l16 -31 -68 -22 c-152 -49 -277 -144 -331 -250 -53 -108 -50 -173 11
-210 90 -55 233 21 183 97 -23 35 -59 49 -90 35 -41 -19 -27 -72 20 -72 19 1
19 1 3 14 -25 19 -22 36 6 36 32 0 50 -24 42 -56 -8 -32 -66 -58 -111 -50
-136 26 -76 218 85 271 66 22 199 16 279 -11 53 -19 53 -19 82 -94 16 -41 54
-154 85 -250 69 -220 84 -250 156 -320 l58 -57 -23 -44 c-17 -31 -31 -45 -48
-47 -13 -1 -47 -5 -76 -8 -32 -4 -58 -13 -69 -25 -9 -10 -23 -19 -31 -19 -8 0
-26 -12 -41 -27 -15 -16 -36 -33 -47 -38 -11 -6 -28 -25 -37 -44 -9 -19 -22
-39 -27 -44 -6 -6 -11 -25 -11 -43 0 -17 -7 -37 -15 -44 -8 -7 -15 -18 -15
-24 0 -12 -40 -38 -102 -67 -20 -10 -39 -28 -43 -40 -4 -13 -16 -36 -26 -51
-11 -16 -28 -42 -40 -58 -17 -26 -20 -44 -18 -108 3 -93 -9 -122 -52 -122 -23
0 -34 -7 -47 -31 -9 -17 -27 -43 -39 -57 -13 -15 -23 -35 -23 -46 0 -10 -9
-34 -21 -53 -20 -31 -20 -35 -5 -58 13 -20 14 -29 4 -50 -10 -22 -8 -30 10
-55 30 -40 28 -57 -13 -93 -19 -17 -35 -36 -35 -43 0 -7 -9 -16 -20 -19 -31
-10 -54 -50 -41 -73 8 -14 5 -22 -11 -36 -16 -14 -19 -24 -13 -49 4 -18 7 -51
6 -74 -1 -32 3 -45 21 -60 39 -32 47 -55 30 -81 -9 -14 -12 -33 -9 -52 4 -16
2 -32 -3 -35 -23 -14 -29 -42 -15 -69 9 -16 12 -39 9 -52 -4 -17 0 -32 12 -45
10 -11 23 -35 29 -52 6 -19 21 -37 37 -45 26 -12 27 -15 14 -35 -9 -13 -14
-50 -14 -95 0 -65 2 -74 25 -92 13 -10 22 -24 18 -30 -7 -12 47 -70 67 -70 7
0 18 -10 23 -22 6 -12 24 -26 40 -31 41 -13 42 -14 16 -38 -18 -17 -22 -28
-16 -53 4 -17 6 -47 6 -67 0 -27 7 -43 29 -64 17 -16 30 -39 30 -51 0 -29 35
-54 77 -54 17 0 35 -4 38 -10 3 -5 27 -10 51 -10 45 0 45 -1 39 -28 -4 -20 0
-36 15 -54 11 -14 20 -39 20 -55 0 -38 16 -53 56 -53 23 0 36 -7 48 -25 19
-29 42 -32 74 -9 21 15 25 15 41 0 23 -21 33 -20 65 5 l27 21 -6 -25 c-5 -18
1 -40 21 -74 32 -57 50 -73 81 -73 13 0 34 -7 47 -15 13 -9 36 -16 52 -16 16
0 42 0 57 0 16 -1 36 6 45 14 16 15 17 -1 17 -241 1 -218 4 -277 23 -392 56
-335 156 -566 309 -711 133 -127 338 -223 593 -280 187 -41 513 -36 675 12
100 30 323 139 435 213 108 72 235 191 301 281 248 341 274 854 57 1143 -105
141 -271 199 -538 189 -158 -6 -214 -21 -303 -80 -125 -85 -179 -204 -178
-400 0 -182 32 -271 135 -364 46 -43 67 -54 134 -72 43 -11 105 -21 138 -21
159 0 311 85 371 208 24 49 28 69 28 142 0 106 -21 165 -77 215 -55 50 -95 65
-173 65 -71 0 -95 -8 -137 -48 -48 -44 -46 -116 4 -170 42 -44 78 -16 78 62 0
39 15 56 51 56 60 0 136 -102 126 -167 -11 -67 -103 -151 -183 -168 -59 -12
-124 14 -181 71 -87 89 -101 183 -45 296 70 142 178 186 347 143 195 -51 306
-228 274 -435 -48 -309 -267 -553 -554 -616 -197 -43 -453 22 -651 167 -196
144 -326 415 -311 650 14 215 166 527 404 827 72 90 117 124 193 147 164 49
562 216 810 339 544 270 833 502 951 761 35 77 75 233 93 362 95 684 -241
1145 -1049 1441 -323 118 -490 152 -983 202 -410 42 -539 76 -597 160 -15 22
-25 43 -22 47 4 3 37 -4 74 -15 207 -65 432 -51 646 38 126 52 161 81 213 175
39 69 55 87 98 113 125 75 338 126 601 144 215 14 250 9 303 -42 37 -37 45
-40 94 -40 135 0 258 41 385 128 131 90 163 167 92 226 -26 22 -28 27 -18 55
33 93 -92 171 -212 134 -195 -61 -568 50 -718 212 -57 61 -61 86 -25 154 43
83 101 137 168 156 86 25 136 1 136 -66 0 -29 -6 -43 -31 -63 -17 -14 -34 -26
-39 -26 -18 0 -40 33 -40 61 0 24 4 29 23 29 13 0 28 -5 35 -12 6 -6 15 -8 19
-4 9 9 -33 46 -52 46 -7 0 -23 -8 -36 -19 -21 -17 -22 -23 -14 -57 26 -102
161 -62 159 46 -2 48 -26 87 -62 101 -15 6 -63 9 -107 7 -69 -4 -91 -10 -163
-46 -46 -23 -85 -42 -87 -42 -1 0 13 48 32 107 19 59 37 137 40 173 5 60 3 68
-20 95 -20 24 -33 30 -65 30 -44 0 -82 -26 -82 -55 0 -46 72 -92 87 -55 7 21
-4 32 -19 17 -16 -16 -38 3 -38 33 0 39 66 49 100 15 28 -28 25 -74 -9 -145
-67 -138 -171 -225 -268 -225 -35 0 -50 6 -84 37 -65 59 -72 81 -77 230 -5
147 9 212 54 254 36 34 102 33 139 -1 30 -28 45 -58 37 -78 -7 -21 -62 -44
-88 -38 -31 8 -50 42 -33 62 18 21 49 18 49 -6 0 -11 7 -20 15 -20 18 0 20 31
3 48 -7 7 -24 12 -38 12 -34 0 -50 -17 -50 -55 0 -69 87 -90 142 -35 25 26 29
36 24 62 -9 43 -42 76 -89 89 -83 22 -135 -7 -184 -106 -31 -62 -135 -237
-138 -233 -1 2 -5 41 -9 88 -10 123 -16 159 -41 216 -29 66 -76 118 -129 143
-97 48 -176 9 -176 -86 0 -63 28 -93 86 -93 54 0 84 23 84 64 0 55 -52 84 -94
53 -24 -18 -13 -57 16 -57 17 0 18 2 8 15 -16 19 -1 38 23 29 28 -10 32 -46 7
-66 -48 -39 -110 -8 -110 55 0 64 54 96 124 72 83 -29 117 -91 124 -225 4 -90
2 -98 -25 -149 -34 -65 -99 -115 -146 -114 -31 1 -167 53 -259 99 l-46 23 -26
108 c-14 59 -28 140 -32 178 -3 39 -10 84 -15 100 -20 64 -107 93 -167 56z
m190 -336 c11 -47 18 -88 17 -89 -2 -2 -34 -1 -70 2 l-66 4 46 89 c24 49 46
87 48 85 2 -2 13 -43 25 -91z m572 18 c30 -218 21 -241 -102 -258 l-53 -7 46
47 c68 71 85 110 85 200 0 83 13 93 24 18z m-950 -56 c55 -56 107 -114 115
-130 23 -43 2 -71 -73 -95 -33 -11 -62 -19 -63 -18 -1 0 -4 44 -8 96 -7 115
-17 148 -61 205 -58 77 -16 49 90 -58z m1121 -29 c-3 -94 -3 -93 -32 -94 -16
0 -37 -4 -48 -9 -16 -8 -15 -2 10 41 16 27 36 61 44 76 22 38 28 35 26 -14z
m-756 -50 c28 -6 51 -15 51 -20 0 -4 -4 -8 -9 -8 -14 0 -51 -83 -51 -113 0
-27 0 -27 -75 -27 -70 0 -76 2 -86 24 -23 50 5 111 66 144 26 15 42 15 104 0z
m200 -84 c2 -2 -6 -16 -20 -30 -20 -21 -24 -36 -24 -82 l0 -57 -72 38 c-45 23
-73 45 -74 55 -3 43 4 70 28 104 l25 36 66 -29 c37 -17 69 -32 71 -35z m561
-52 c17 -37 51 -88 76 -113 37 -38 42 -47 29 -53 -9 -3 -34 3 -55 14 -36 18
-40 25 -69 119 -17 54 -31 102 -31 106 0 19 22 -13 50 -73z m-955 49 c-3 -11
1 -36 9 -56 15 -35 15 -36 -11 -46 -31 -11 -31 -11 -38 27 -4 19 1 40 14 62
23 36 36 42 26 13z m840 -31 c-43 -44 -55 -49 -55 -22 0 9 17 27 38 38 56 33
60 28 17 -16z m-1640 -159 l64 -94 -29 -34 c-17 -18 -30 -37 -30 -42 0 -12
-88 -107 -94 -101 -3 3 -6 53 -7 112 -2 118 -21 260 -44 316 l-15 37 46 -50
c25 -27 74 -92 109 -144z m1229 167 c3 -13 8 -68 11 -123 l6 -100 -31 30 c-63
58 -72 125 -28 188 24 33 36 34 42 5z m493 -68 c12 -41 20 -76 18 -78 -11 -11
-36 24 -46 64 -6 24 -13 44 -15 44 -2 0 -20 -18 -40 -40 -32 -35 -74 -54 -74
-33 0 13 114 123 125 120 5 -2 20 -37 32 -77z m-355 -11 c34 -32 59 -61 55
-65 -4 -4 -30 7 -58 24 -27 18 -55 32 -60 32 -5 0 -9 -24 -9 -53 0 -47 -12
-77 -31 -77 -3 0 -7 43 -8 97 -1 53 -2 99 -3 102 -3 33 37 12 114 -60z m-1191
34 c-41 -34 -43 -38 -38 -82 2 -25 8 -55 11 -67 6 -16 2 -23 -19 -32 -31 -14
-40 0 -39 64 1 51 29 102 74 131 51 35 58 27 11 -14z m1199 1 c0 -19 -14 -17
-34 5 -16 18 -16 18 9 14 14 -3 25 -12 25 -19z m195 6 c3 -11 3 -25 0 -31 -10
-15 -52 -29 -70 -23 -18 7 -20 30 -2 37 7 3 5 6 -6 6 -10 1 -20 -6 -23 -14 -9
-22 14 -45 45 -45 20 0 23 -2 11 -10 -28 -18 -77 -11 -110 16 -49 42 -37 57
55 70 44 6 83 12 87 13 4 0 9 -8 13 -19z m593 -90 l-33 -92 -69 5 c-86 7 -100
19 -44 37 30 10 63 35 108 80 36 37 66 65 68 64 2 -1 -11 -44 -30 -94z m-1424
54 c24 -63 -49 -397 -163 -742 -70 -210 -83 -278 -80 -413 3 -182 30 -264 128
-391 28 -38 47 -68 42 -68 -5 0 -47 16 -93 36 -308 131 -473 291 -533 519 -23
84 -28 262 -10 355 8 41 28 127 45 190 29 108 36 174 27 284 -3 40 20 52 234
126 96 34 208 74 249 89 87 33 145 39 154 15z m303 -29 c55 -25 119 -66 167
-108 26 -23 28 -28 16 -42 -23 -28 -104 -15 -169 26 -53 33 -57 34 -163 34
-85 0 -111 4 -118 15 -57 90 124 141 267 75z m639 -22 c-3 -3 -15 -2 -26 3
-20 9 -20 10 -3 33 l17 25 9 -28 c5 -15 6 -30 3 -33z m724 33 c0 -2 -21 -20
-47 -38 -38 -27 -80 -76 -109 -126 -1 -2 -13 8 -27 22 -15 14 -34 26 -44 26
-25 0 67 58 147 91 66 28 80 32 80 25z m-1057 -35 c36 -23 36 -31 -2 -47 -30
-12 -31 -12 -31 11 0 13 -3 30 -6 39 -8 21 5 20 39 -3z m272 -17 c17 -4 20
-12 17 -40 -4 -34 -6 -35 -40 -32 -32 3 -37 7 -43 35 -3 18 -4 35 -1 38 7 7
41 6 67 -1z m-87 -36 c-3 -28 -7 -33 -33 -36 -19 -3 -33 2 -42 14 -26 36 -13
50 50 53 26 1 28 -2 25 -31z m191 13 c10 -7 11 -16 4 -37 -8 -24 -15 -28 -39
-26 -38 4 -48 15 -40 46 5 20 13 26 34 26 15 0 33 -4 41 -9z m-2153 -23 c-42
-59 -50 -84 -49 -158 0 -94 12 -118 106 -212 109 -110 107 -103 56 -248 -31
-88 -45 -118 -50 -104 -45 126 -152 471 -158 513 -14 90 20 184 77 216 36 19
37 19 18 -7z m1865 -4 c5 -15 8 -28 7 -29 -2 -1 -13 -8 -26 -14 -20 -11 -25
-9 -42 11 -20 26 -18 35 14 48 32 13 36 12 47 -16z m369 -18 c10 -13 9 -20 -4
-41 -14 -21 -20 -24 -37 -15 -27 15 -32 31 -20 64 9 22 14 25 29 17 10 -5 24
-17 32 -25z m-1012 -14 c2 -13 -3 -25 -13 -28 -22 -9 -29 1 -21 31 8 31 30 28
34 -3z m1144 16 c35 -10 39 -14 33 -36 -3 -13 -9 -37 -12 -53 -3 -16 -9 -29
-14 -29 -14 0 -21 44 -10 72 13 34 6 39 -41 32 -36 -6 -55 8 -25 19 19 8 27 8
69 -5z m-918 -12 c49 -20 58 -40 15 -33 -19 3 -70 9 -114 12 l-80 6 46 -43
c25 -24 89 -83 142 -131 103 -94 115 -118 77 -152 -19 -17 -20 -17 -30 9 -5
15 -10 31 -10 35 0 18 -63 93 -93 111 -58 36 -163 16 -216 -41 -45 -49 -16
-135 56 -165 28 -12 38 -12 67 0 67 28 86 103 31 128 -26 11 -85 -5 -85 -24 0
-5 9 -4 20 2 32 17 72 8 81 -18 12 -33 -36 -82 -80 -82 -40 0 -89 44 -97 88
-6 28 -2 37 30 67 51 48 106 62 162 40 61 -23 124 -107 124 -164 0 -19 -98
-120 -159 -166 -26 -18 -47 -25 -82 -25 -60 0 -87 10 -134 51 -44 39 -45 26
16 264 37 145 45 168 65 175 13 5 30 23 39 40 15 30 16 30 96 30 46 0 94 -6
113 -14z m343 -12 c16 -26 16 -27 -6 -45 -23 -18 -24 -18 -52 2 -35 25 -36 32
-6 52 31 23 44 21 64 -9z m344 -23 c136 -51 217 -219 175 -363 -12 -42 -27
-65 -64 -100 -66 -62 -130 -82 -236 -75 -146 10 -239 61 -288 158 -77 151 7
346 172 400 41 14 181 2 241 -20z m292 -1 c-10 -17 -19 -26 -21 -21 -5 14 17
51 29 51 6 0 2 -14 -8 -30z m-134 -9 c20 -28 20 -28 1 -46 -20 -18 -21 -18
-45 5 -22 21 -23 24 -8 46 20 31 27 30 52 -5z m54 9 c-4 -16 -8 -18 -19 -9
-16 13 -10 29 11 29 8 0 11 -7 8 -20z m295 3 c2 -9 -9 -13 -37 -13 -73 0 -121
-41 -121 -103 0 -22 -3 -24 -27 -18 -51 11 -95 51 -58 51 8 0 15 9 15 19 0 11
12 33 26 51 26 31 27 31 112 28 57 -2 87 -7 90 -15z m-1123 -19 c98 -7 116
-14 95 -39 -11 -14 -26 -15 -87 -10 -50 5 -73 4 -73 -4 0 -6 24 -29 53 -52 59
-47 70 -61 61 -83 -5 -12 -21 -3 -78 44 -39 33 -96 83 -126 111 l-55 51 60 -6
c33 -3 101 -8 150 -12z m224 -40 c1 -5 -5 -19 -13 -29 -13 -18 -14 -18 -50 4
-20 13 -36 25 -36 29 0 3 10 16 21 28 l22 23 28 -22 c15 -12 28 -27 28 -33z
m903 13 c4 -6 8 -22 8 -33 0 -12 14 -48 30 -80 27 -50 29 -61 20 -85 -16 -37
-69 -61 -128 -57 -26 2 -47 7 -47 12 0 5 35 28 77 50 78 41 94 56 60 56 -27 0
-32 8 -20 41 8 24 7 34 -7 49 -23 26 -61 26 -75 0 -12 -23 -8 -25 19 -8 37 23
70 -19 39 -50 -15 -15 -32 -15 -80 -1 -34 9 -38 13 -38 43 0 32 26 66 60 79
22 9 73 -1 82 -16z m-2159 -17 c-4 -22 0 -36 12 -50 17 -19 17 -20 -1 -20 -42
0 -56 39 -28 78 20 30 25 28 17 -8z m1866 -56 c-6 -8 -22 -14 -35 -14 -31 0
-42 35 -18 62 19 20 19 20 42 -7 18 -21 20 -30 11 -41z m-1839 35 c0 -11 -4
-17 -10 -14 -5 3 -10 13 -10 21 0 8 5 14 10 14 6 0 10 -9 10 -21z m1068 -5
c11 -3 8 -49 -4 -63 -4 -5 -93 62 -94 71 0 6 71 1 98 -8z m106 -17 c13 -10 16
-20 11 -36 -6 -20 -11 -22 -43 -16 -49 9 -53 14 -37 53 15 35 22 35 69 -1z
m-1221 -33 c8 -8 -18 -43 -101 -136 -109 -123 -174 -234 -208 -358 -14 -51
-19 -118 -24 -305 l-5 -240 -34 53 -34 53 6 147 c9 226 53 375 161 550 31 49
88 124 127 166 64 69 94 87 112 70z m1915 -19 c17 -38 15 -52 -10 -59 -34 -9
-35 -8 -49 25 -11 28 -10 33 6 45 27 20 40 17 53 -11z m153 -10 c56 -13 104
-27 106 -29 5 -4 -190 -106 -202 -106 -3 0 -5 8 -5 19 0 13 16 25 52 40 59 25
57 32 -21 58 -52 17 -80 43 -47 43 8 0 61 -11 117 -25z m-2044 -13 c-32 -34
-33 -39 -6 -68 25 -26 11 -39 -19 -18 -31 22 -29 67 4 93 39 30 52 26 21 -7z
m1162 7 c24 -9 31 -16 29 -33 -3 -18 -11 -21 -51 -24 -48 -3 -48 -3 -41 25 12
49 13 49 63 32z m-1139 -33 c0 -16 -18 -31 -27 -22 -8 8 5 36 17 36 5 0 10 -6
10 -14z m1961 -25 c-34 -16 -58 -5 -48 23 5 12 12 13 43 3 l36 -11 -31 -15z
m308 -27 c-2 -5 -21 -15 -43 -23 -45 -15 -86 -40 -128 -79 -31 -28 -34 -28
-43 9 -6 25 -4 27 36 32 51 7 89 32 109 74 l15 31 28 -17 c16 -10 28 -22 26
-27z m-377 0 c5 -40 -3 -48 -38 -40 -15 4 -24 14 -24 26 0 11 0 23 -1 28 0 6
27 17 52 21 4 1 9 -15 11 -35z m-1966 -1 c17 -23 17 -33 0 -33 -21 0 -56 -48
-56 -76 0 -14 -17 -50 -39 -82 -53 -79 -67 -108 -93 -199 -21 -70 -23 -99 -23
-288 0 -201 1 -213 27 -287 14 -43 23 -78 19 -78 -4 0 -31 21 -60 48 -52 47
-53 48 -63 127 -13 102 -3 379 16 470 19 84 81 213 137 287 43 55 110 128 117
128 3 0 11 -8 18 -17z m1236 -19 c5 -40 5 -40 -43 -49 -32 -6 -37 -4 -42 17
-4 12 -7 33 -7 46 0 19 5 22 44 22 43 0 44 -1 48 -36z m1179 -19 c34 -18 31
-31 -11 -40 -36 -8 -105 -57 -120 -85 -6 -12 -16 -48 -21 -81 -5 -34 -19 -74
-31 -89 -20 -28 -20 -30 -4 -55 14 -21 23 -25 41 -21 18 5 33 -2 57 -22 45
-39 65 -49 119 -57 75 -11 155 10 202 54 33 32 40 45 44 87 6 60 -25 149 -63
185 -36 34 -142 35 -195 2 -108 -68 -57 -232 65 -209 37 7 76 46 76 77 0 23
-37 49 -71 49 -28 0 -57 -25 -45 -38 4 -4 12 1 17 11 13 23 44 22 69 -3 26
-26 13 -56 -35 -76 -47 -19 -88 -3 -110 42 -31 67 9 131 98 155 68 18 111 0
147 -64 38 -67 43 -164 9 -198 -58 -58 -192 -78 -268 -39 -46 23 -81 64 -81
95 0 12 -7 28 -15 35 -21 18 -19 86 5 135 24 49 64 81 127 100 44 13 50 12
147 -19 56 -19 122 -37 147 -40 72 -10 109 -62 109 -154 0 -46 -2 -49 -89
-132 -48 -47 -91 -94 -95 -105 -6 -19 -15 -20 -217 -20 l-211 0 -43 48 c-43
50 -75 125 -75 179 0 30 1 30 45 25 26 -2 45 0 45 6 0 5 -16 27 -35 49 -31 34
-34 41 -24 61 29 55 83 107 141 136 68 35 105 38 149 16z m-2366 -5 c3 -5 -8
-16 -25 -25 -33 -17 -38 -39 -14 -66 21 -23 3 -32 -25 -13 -35 25 -26 74 19
96 41 21 37 20 45 8z m2044 -19 c32 -44 39 -73 29 -103 -6 -16 -14 -28 -18
-28 -5 0 -31 26 -60 58 l-51 57 26 23 c34 29 49 28 74 -7z m-959 -19 c0 -14
-92 -107 -116 -116 -32 -12 -3 -23 43 -15 77 13 135 11 131 -3 -3 -9 -54 -19
-149 -29 -79 -9 -145 -15 -147 -14 -3 3 125 127 188 183 34 30 49 28 50 -6z
m830 -12 c0 -22 -2 -40 -4 -40 -19 0 -66 25 -66 35 0 31 13 45 41 45 27 0 29
-3 29 -40z m-710 -6 c6 -14 10 -29 10 -33 0 -6 -63 -41 -74 -41 -5 0 -26 59
-26 71 0 8 46 27 68 28 7 1 17 -11 22 -25z m-1221 -1 c-7 -10 -15 -20 -16 -22
-2 -2 -3 5 -3 17 0 14 6 22 16 22 14 0 15 -3 3 -17z m2097 -152 l39 -44 -70 7
c-196 19 -188 16 -168 38 15 17 26 19 71 14 28 -3 52 -2 52 2 0 5 -16 30 -36
55 -23 29 -34 53 -30 63 6 16 14 8 142 -135z m-977 103 c6 -15 9 -29 7 -32 -3
-3 -29 -7 -58 -9 l-53 -4 39 35 c22 20 42 36 46 36 4 0 12 -12 19 -26z m1973
14 c46 -14 78 -50 78 -89 0 -33 -9 -59 -21 -59 -4 0 -6 6 -3 14 9 22 -31 103
-57 117 -13 7 -42 13 -65 13 -23 1 -40 4 -37 9 6 11 61 9 105 -5z m-1187 -12
c18 -13 18 -15 2 -40 -18 -26 -18 -26 -47 -9 -32 19 -37 32 -18 51 16 16 40
15 63 -2z m-1961 -14 c3 -5 -8 -16 -24 -26 -38 -22 -48 -58 -25 -92 16 -25 16
-26 -9 -49 -31 -29 -40 -62 -27 -97 7 -19 6 -53 -6 -119 -13 -78 -14 -109 -4
-186 14 -115 51 -236 101 -330 23 -42 34 -73 27 -73 -7 0 -39 15 -72 33 -71
38 -96 77 -122 187 -27 112 -24 396 5 501 40 148 130 293 156 251z m1324 -22
c19 -25 20 -33 10 -50 -21 -33 -39 -33 -75 2 l-34 33 28 22 c37 30 45 29 71
-7z m1813 20 c10 -6 26 -24 34 -40 17 -33 20 -106 5 -115 -5 -3 -10 1 -10 10
0 29 -31 76 -63 95 -34 21 -111 27 -122 10 -3 -5 -11 -10 -17 -10 -15 0 22 41
47 51 29 11 103 11 126 -1z m-1093 -55 c-12 -12 -58 7 -58 24 0 30 13 32 39 7
14 -14 22 -28 19 -31z m922 50 c0 -2 -21 -34 -47 -71 l-47 -68 -11 45 c-7 24
-17 54 -23 66 -7 12 -12 24 -12 27 0 3 32 6 70 6 39 0 70 -2 70 -5z m-2940
-25 c0 -5 -9 -14 -20 -20 -24 -13 -26 -37 -3 -62 18 -20 4 -25 -26 -8 -25 13
-33 37 -20 61 14 27 69 50 69 29z m674 -25 c32 -29 37 -37 26 -50 -7 -9 -10
-25 -6 -40 6 -23 5 -25 -13 -16 -40 22 -67 75 -63 124 3 24 11 21 56 -18z
m-1140 3 c8 -13 17 -33 21 -46 7 -23 6 -23 -24 -8 -16 9 -52 16 -78 16 -51 0
-86 -17 -122 -60 -27 -33 -26 -15 2 34 42 74 169 114 201 64z m2349 8 c23 -17
22 -38 -3 -54 -17 -10 -25 -9 -45 4 -29 19 -29 18 -13 44 15 23 35 25 61 6z
m1177 -11 c60 -31 79 -105 40 -155 l-19 -25 6 42 c5 38 2 45 -26 74 -30 30
-35 31 -96 27 -36 -2 -65 -3 -65 -2 0 2 19 14 43 28 48 30 76 32 117 11z
m-3067 -31 c-4 -10 -9 -12 -15 -6 -12 12 -1 35 12 27 5 -3 6 -13 3 -21z m1382
4 c30 -13 30 -17 8 -57 l-18 -30 -35 21 c-19 12 -37 23 -39 25 -6 4 40 53 50
53 5 0 20 -5 34 -12z m-166 -57 c-10 -35 -18 -42 -48 -51 -20 -5 -43 -10 -52
-10 -31 0 -174 -79 -208 -114 l-35 -36 -28 58 c-15 31 -28 60 -28 65 0 4 21 7
48 7 84 0 207 45 287 105 62 46 83 38 64 -24z m611 33 c21 -21 22 -27 10 -35
-44 -29 -48 -29 -64 -4 -20 31 -20 42 2 54 24 14 26 14 52 -15z m-695 -5 c-59
-40 -161 -81 -226 -91 -68 -10 -172 3 -184 23 -3 5 1 6 10 3 21 -8 55 23 55
51 0 19 4 21 63 18 34 -2 98 0 142 5 44 5 100 10 125 11 l45 1 -30 -21z m-370
-19 c0 -18 -6 -26 -21 -28 -26 -4 -40 24 -23 45 18 21 44 11 44 -17z m2274 15
c16 -8 33 -28 39 -44 14 -39 -21 -113 -76 -163 -36 -32 -49 -38 -87 -38 -36 0
-52 6 -72 26 -22 22 -25 32 -20 71 12 113 130 193 216 148z m-2419 -5 c0 -5
-4 -10 -10 -10 -5 0 -10 5 -10 10 0 6 5 10 10 10 6 0 10 -4 10 -10z m648 -10
c9 -16 9 -31 -3 -77 -8 -31 -13 -59 -10 -61 3 -3 29 11 60 31 54 36 88 46 99
28 4 -5 -40 -39 -96 -75 -116 -73 -140 -85 -134 -65 2 8 16 65 31 127 15 61
30 112 34 112 3 0 12 -9 19 -20z m215 7 c13 -9 16 -20 11 -45 -7 -35 -25 -40
-69 -20 -28 13 -30 17 -13 53 12 28 43 33 71 12z m275 -22 c15 -33 17 -31 -17
-45 -35 -14 -47 -9 -55 26 -12 48 52 64 72 19z m235 15 c47 0 47 -13 3 -71
-35 -45 -92 -86 -104 -75 -3 4 -8 34 -10 68 -4 52 -2 64 14 75 11 8 28 12 39
9 11 -3 37 -6 58 -6z m-410 -20 c5 -4 7 -20 5 -36 -3 -26 -7 -29 -37 -27 -43
2 -50 11 -39 51 8 29 12 32 36 26 15 -4 31 -10 35 -14z m-963 -5 c0 -9 -7 -32
-15 -52 -8 -19 -15 -39 -15 -44 0 -5 23 -11 50 -15 28 -4 50 -7 50 -8 0 -1 -9
-26 -19 -56 -22 -63 -18 -70 47 -70 41 0 42 -1 36 -27 -4 -16 -11 -39 -16 -51
-12 -34 -3 -42 52 -42 l49 0 3 -57 c3 -62 3 -62 65 -49 31 7 31 7 47 -48 9
-31 18 -56 20 -56 2 0 23 7 46 15 23 8 46 15 51 15 5 0 20 -22 34 -50 14 -27
29 -50 34 -50 4 0 27 14 49 30 23 17 45 30 49 30 5 -1 20 -19 35 -40 15 -22
32 -40 37 -40 5 0 26 16 47 35 21 19 41 35 44 35 3 0 21 -15 39 -34 l33 -34
-23 -12 c-37 -20 -244 -6 -367 24 -159 40 -241 82 -327 169 -76 78 -122 151
-176 280 l-32 79 22 69 c14 43 28 69 37 69 8 0 14 -7 14 -15z m1053 -18 c11
-34 12 -33 -35 -41 l-38 -7 0 41 c0 40 1 41 32 38 24 -2 34 -9 41 -31z m411
17 c3 -9 6 -29 6 -45 0 -16 7 -46 15 -65 14 -33 13 -38 -5 -64 -10 -15 -38
-44 -60 -64 -37 -33 -46 -37 -79 -31 -31 5 -40 2 -61 -19 -43 -47 -72 -35
-138 58 -26 35 -29 45 -17 50 20 7 41 -1 92 -36 59 -40 67 -37 60 20 l-6 47
47 30 c27 17 62 53 82 83 35 53 53 64 64 36z m1154 -4 c26 -25 30 -40 5 -18
-10 8 -27 20 -38 26 -15 9 -16 11 -4 12 8 0 25 -9 37 -20z m-3266 -18 c-38
-32 -41 -54 -9 -75 28 -19 15 -34 -21 -21 -39 14 -42 61 -6 97 15 15 36 27 48
27 19 -1 17 -4 -12 -28z m1358 8 c14 -10 23 -20 20 -23 -49 -39 -83 -59 -78
-45 4 9 10 33 14 52 7 41 10 42 44 16z m1901 -19 c33 -33 36 -48 14 -77 -14
-18 -14 -18 -15 9 0 29 -31 67 -55 67 -16 0 -20 12 -8 23 13 14 35 6 64 -22z
m-2418 -67 c9 -16 24 -47 33 -70 14 -38 14 -44 -1 -80 l-17 -39 -26 32 c-24
28 -132 222 -132 236 0 3 28 -7 63 -23 39 -17 69 -39 80 -56z m1056 11 c6 -42
11 -89 11 -105 l0 -30 -27 18 c-59 37 -163 116 -163 124 0 18 38 6 79 -27 41
-33 71 -45 71 -27 0 4 -5 27 -11 51 -11 49 -7 71 14 71 10 0 18 -22 26 -75z
m421 60 c17 -20 5 -45 -20 -45 -23 0 -35 22 -26 45 7 19 30 19 46 0z m-1631
-26 c6 -18 11 -34 11 -35 0 -2 -13 -4 -30 -4 -33 0 -35 5 -20 44 13 35 26 33
39 -5z m-669 -4 c0 -16 -6 -25 -15 -25 -21 0 -31 30 -14 41 23 14 29 11 29
-16z m1210 4 c0 -5 -5 -30 -11 -55 -10 -39 -18 -48 -69 -79 -32 -19 -69 -51
-84 -70 -32 -42 -49 -122 -37 -176 5 -21 5 -39 1 -39 -14 0 -106 88 -135 130
l-28 41 24 50 c39 85 143 162 262 194 64 17 77 18 77 4z m610 -6 c0 -10 3 -29
7 -42 l6 -23 -42 27 c-32 22 -39 31 -30 41 17 21 59 18 59 -3z m1380 7 c24
-13 33 -52 19 -87 l-11 -28 -18 42 c-10 23 -28 47 -40 53 -11 6 -18 15 -15 21
8 12 41 12 65 -1z m-1712 -23 c6 -7 16 -34 22 -60 7 -26 16 -50 20 -52 5 -3
22 18 39 45 30 49 50 65 70 58 6 -1 -17 -50 -50 -107 -33 -57 -65 -99 -69 -95
-7 8 -60 200 -60 218 0 11 17 6 28 -7z m-34 -33 c4 -15 5 -29 2 -31 -3 -3 -28
-2 -57 2 l-53 7 40 24 c50 30 60 30 68 -2z m114 -9 c-19 -28 -38 -45 -38 -32
0 1 -4 17 -9 35 l-10 32 40 0 39 0 -22 -35z m152 -2 c27 -20 48 -39 45 -41 -8
-9 -71 9 -93 26 -15 12 -21 24 -16 35 3 9 8 17 10 17 3 0 27 -17 54 -37z
m1094 10 c-8 -45 27 -90 83 -106 l48 -14 -52 -7 c-67 -10 -86 -3 -108 37 -17
32 -17 34 4 75 25 49 33 53 25 15z m346 7 c22 -22 27 -69 8 -88 -14 -14 -32
-16 -24 -3 8 13 -12 64 -30 78 -18 13 -11 33 12 33 8 0 23 -9 34 -20z m-397
-54 c-4 -26 0 -42 16 -65 21 -29 26 -31 89 -32 l67 -1 -50 -24 c-27 -13 -58
-24 -67 -24 -24 0 -78 48 -78 70 0 10 -4 22 -10 25 -23 14 -8 -37 21 -70 25
-28 39 -35 68 -36 34 0 35 -1 11 -10 -14 -6 -45 -8 -70 -6 -80 9 -115 82 -68
142 20 26 22 26 29 9 5 -16 9 -13 22 19 20 46 27 47 20 3z m357 15 c12 -24 13
-68 2 -75 -11 -7 -64 73 -56 85 9 16 43 10 54 -10z m-3178 -13 c-7 -7 -12 -8
-12 -2 0 14 12 26 19 19 2 -3 -1 -11 -7 -17z m1776 -33 c26 -22 118 -153 111
-159 -6 -5 -87 -46 -93 -46 -2 0 -18 24 -34 53 -16 28 -46 68 -66 86 -42 40
-43 45 -16 89 l20 32 27 -17 c16 -10 38 -27 51 -38z m-1718 35 c0 -5 -9 -14
-20 -20 -27 -15 -25 -36 6 -56 36 -24 15 -40 -25 -20 -37 20 -41 50 -9 83 22
23 48 31 48 13z m739 -35 l20 -35 -40 0 c-35 0 -40 3 -34 18 4 9 10 25 12 35
8 26 19 21 42 -18z m721 15 c11 -11 20 -26 20 -33 0 -26 31 -117 39 -117 5 0
21 20 35 45 15 25 31 45 35 45 15 0 89 -87 111 -129 l21 -41 -29 -43 c-16 -23
-32 -52 -36 -64 -8 -25 -17 -29 -89 -38 l-55 -7 13 38 c8 22 14 45 15 53 0 8
7 22 16 32 22 24 9 57 -24 65 -15 4 -44 22 -64 40 -100 90 -281 34 -281 -87 0
-61 54 -119 110 -119 23 0 83 65 83 91 0 48 -53 74 -101 49 -19 -11 -27 -50
-10 -50 5 0 8 7 7 16 -1 21 33 34 62 23 49 -18 9 -109 -48 -109 -66 0 -108 80
-77 145 22 47 74 68 154 63 55 -3 68 -8 95 -35 27 -27 29 -34 18 -47 -11 -14
-8 -22 15 -56 25 -36 26 -42 15 -75 -7 -20 -19 -39 -27 -42 -25 -10 -294 15
-355 33 -84 24 -103 49 -103 137 0 89 20 128 89 175 58 39 68 40 60 7 -3 -14
-2 -25 2 -25 5 1 38 19 74 40 57 35 72 40 128 40 49 0 66 -4 82 -20z m1610
-10 c13 -19 19 -37 15 -50 -8 -27 -25 -26 -25 2 0 12 -7 29 -16 39 -9 10 -13
23 -9 28 9 16 11 14 35 -19z m-860 -61 c0 -4 -30 -12 -67 -19 -38 -6 -79 -14
-93 -17 -23 -5 -22 -3 11 28 19 19 44 47 54 62 l18 28 39 -37 c21 -21 38 -41
38 -45z m-1650 64 c0 -5 -8 -55 -17 -113 -11 -65 -19 -94 -22 -75 -4 41 19
195 30 195 5 0 9 -3 9 -7z m-1120 -95 c41 -28 86 -60 99 -72 35 -31 81 -106
81 -133 0 -19 -4 -22 -29 -17 -21 5 -33 1 -49 -16 l-20 -22 -77 116 c-42 64
-96 140 -121 170 -24 30 -44 57 -44 61 0 9 80 -34 160 -87z m570 71 c0 -5 -7
-9 -15 -9 -15 0 -20 12 -9 23 8 8 24 -1 24 -14z m3030 -4 c13 -15 6 -65 -9
-65 -4 0 -13 11 -19 25 -6 14 -17 25 -24 25 -8 1 -5 7 6 15 25 19 31 19 46 0z
m-3077 -58 c18 -7 17 -8 -2 -34 -32 -40 -4 -103 46 -103 27 0 26 2 12 -39 -10
-28 -8 -40 9 -79 12 -26 35 -84 52 -128 17 -45 49 -110 71 -144 l40 -62 -38 7
c-67 12 -95 36 -140 120 -69 130 -103 265 -103 413 0 80 1 84 18 70 9 -8 25
-18 35 -21z m627 -54 c-6 -15 -14 -55 -18 -88 -7 -55 -9 -58 -20 -37 -10 18
-11 40 -2 105 15 110 19 119 36 80 10 -23 11 -39 4 -60z m2420 62 c0 -10 -13
-35 -19 -35 -11 0 -32 40 -26 50 6 9 45 -4 45 -15z m-53 -39 c-4 -9 -11 -16
-17 -16 -11 0 -14 33 -3 43 11 11 26 -10 20 -27z m-2127 -43 c0 -8 -14 -13
-36 -13 -35 0 -35 1 -29 33 4 17 10 36 13 41 6 11 52 -43 52 -61z m1139 58
c11 -7 10 -11 -7 -20 -11 -6 -25 -11 -31 -11 -15 0 -14 27 2 33 18 8 21 8 36
-2z m-1964 -21 c-20 -23 -14 -50 15 -57 25 -7 27 -33 2 -33 -28 0 -62 29 -62
52 0 26 27 58 48 58 12 0 12 -3 -3 -20z m2905 -10 c-8 -5 -22 -10 -30 -10 -13
0 -13 1 0 10 8 5 22 10 30 10 13 0 13 -1 0 -10z m-2880 -27 c0 -13 -3 -13 -15
-3 -8 7 -12 16 -9 21 8 13 24 1 24 -18z m600 -2 c16 -40 -7 -186 -27 -169 -20
17 -14 198 7 198 4 0 13 -13 20 -29z m1250 15 c0 -2 -7 -6 -15 -10 -8 -3 -15
-1 -15 4 0 6 7 10 15 10 8 0 15 -2 15 -4z m-336 -68 c15 -24 -10 -51 -35 -37
-22 11 -24 30 -7 47 15 15 28 11 42 -10z m-639 -61 c-34 -12 -50 3 -41 39 l7
27 30 -29 30 -29 -26 -8z m-229 31 c5 -13 8 -51 6 -86 -3 -58 -4 -62 -22 -52
-21 11 -27 64 -14 129 8 37 17 40 30 9z m-620 -30 c-1 -26 4 -35 29 -47 28
-14 28 -16 8 -19 -38 -6 -63 15 -63 52 0 18 3 36 7 39 14 15 21 6 19 -25z m28
-14 c9 -24 7 -28 -9 -14 -17 14 -20 30 -6 30 5 0 12 -7 15 -16z m587 -130 c58
-44 177 -105 232 -119 15 -4 29 -11 32 -15 6 -9 -3 -7 -135 34 -109 34 -241
104 -257 137 -7 14 -15 45 -18 69 l-7 45 47 -53 c26 -29 74 -73 106 -98z m72
57 c-3 -20 -6 -44 -5 -53 1 -21 -7 -22 -30 -4 -18 13 -25 86 -12 121 6 14 9
13 30 -6 20 -19 23 -29 17 -58z m279 33 c31 -16 29 -27 -8 -38 -16 -5 -23 0
-32 19 -7 14 -12 28 -12 30 0 9 22 5 52 -11z m-1378 -47 c111 -118 148 -153
206 -192 111 -73 194 -103 362 -131 216 -35 215 -34 195 -46 -27 -14 -21 -63
10 -87 14 -12 24 -23 21 -26 -11 -12 -214 -21 -299 -14 -174 14 -447 77 -457
107 -2 6 3 12 11 12 9 0 25 12 37 28 19 22 21 36 17 80 -7 67 -48 155 -82 178
-15 10 -43 20 -63 23 -29 5 -37 12 -44 36 -19 71 31 89 86 32z m458 -26 c-5
-57 17 -81 74 -81 43 0 43 -1 38 -29 -6 -30 -7 -29 69 -99 9 -8 26 -31 38 -50
l20 -35 -52 7 c-84 11 -101 27 -160 147 -49 98 -72 171 -57 181 24 14 33 1 30
-41z m695 34 c13 -23 3 -95 -13 -95 -18 0 -35 34 -30 62 3 13 5 29 5 36 1 17
28 15 38 -3z m-662 -24 c-7 -33 18 -65 45 -58 10 3 23 1 30 -3 7 -4 -1 -10
-21 -14 -36 -7 -79 14 -79 39 0 19 18 65 26 65 3 0 3 -13 -1 -29z m1050 5 l40
-12 -38 -23 c-21 -13 -39 -22 -41 -20 -2 2 -11 19 -20 37 -16 30 -16 32 1 31
10 0 36 -6 58 -13z m435 -6 c0 -5 -7 -10 -16 -10 -8 0 -12 5 -9 10 3 6 10 10
16 10 5 0 9 -4 9 -10z m-1442 -12 c18 -18 15 -28 -8 -28 -13 0 -20 7 -20 20 0
23 10 26 28 8z m670 0 c18 -18 16 -88 -3 -88 -21 0 -37 37 -30 71 7 32 15 35
33 17z m731 -2 c9 -11 5 -18 -24 -36 -20 -12 -38 -21 -40 -18 -4 3 43 68 50
68 1 0 8 -6 14 -14z m-206 -3 c9 -8 -32 -53 -49 -53 -7 0 -22 14 -34 30 l-21
30 49 0 c27 0 52 -3 55 -7z m137 -24 c-12 -16 -23 -29 -24 -27 0 2 -12 15 -25
31 l-24 27 47 0 47 0 -21 -31z m-602 -1 c7 -7 12 -27 12 -45 0 -26 -4 -33 -19
-33 -27 0 -34 15 -27 56 7 36 15 41 34 22z m-323 -18 c3 -5 2 -10 -4 -10 -5 0
-13 5 -16 10 -3 6 -2 10 4 10 5 0 13 -4 16 -10z m393 -43 c3 -33 1 -38 -15
-35 -13 2 -19 14 -21 41 -3 33 -1 38 15 35 13 -2 19 -14 21 -41z m-1403 -56
c14 -40 25 -77 25 -81 0 -5 -17 -3 -37 3 -21 6 -92 11 -158 11 -104 1 -126 -2
-164 -21 l-44 -22 39 40 c21 22 59 52 84 66 61 36 213 93 223 84 4 -5 19 -41
32 -80z m95 61 c27 -27 70 -140 70 -184 0 -19 -42 -68 -58 -68 -11 0 -11 -1
-68 158 l-44 122 36 0 c26 0 43 -8 64 -28z m585 -22 c-2 -8 0 -22 5 -30 7 -12
15 -13 40 -3 39 15 49 -2 12 -21 -53 -27 -100 23 -77 82 5 14 7 14 15 2 5 -8
7 -22 5 -30z m783 28 c7 -7 12 -22 12 -35 0 -18 -6 -23 -25 -23 -22 0 -25 4
-25 35 0 36 15 46 38 23z m-396 -45 c50 -49 58 -67 33 -77 -14 -5 -32 15 -78
84 -38 56 -16 53 45 -7z m39 26 c16 -11 38 -41 49 -67 20 -44 20 -47 4 -59
-34 -25 -61 -10 -30 17 19 15 11 34 -32 88 -38 46 -35 53 9 21z m427 -22 c3
-22 -1 -27 -18 -27 -23 0 -35 22 -26 46 10 25 41 12 44 -19z m-809 9 c9 -11 8
-15 -5 -20 -23 -9 -24 -8 -24 14 0 23 13 26 29 6z m857 6 c6 -4 13 -17 16 -29
5 -19 2 -23 -17 -23 -22 0 -35 17 -35 46 0 15 18 18 36 6z m78 -18 c10 -27 7
-34 -19 -34 -20 0 -25 5 -25 25 0 29 34 36 44 9z m66 -3 c0 -6 -5 -13 -10 -16
-15 -9 -43 3 -35 15 8 13 45 13 45 1z m-920 -55 c0 -7 9 -21 20 -31 17 -15 24
-16 45 -7 26 12 33 4 13 -16 -18 -18 -42 -15 -72 9 -24 19 -39 78 -16 64 6 -3
10 -12 10 -19z m-40 -8 c0 -21 53 -68 76 -68 22 0 69 -38 60 -48 -3 -2 -28 -1
-56 3 -46 6 -54 11 -89 58 -21 29 -37 55 -34 60 7 12 43 8 43 -5z m96 -15 c-8
-8 -36 5 -36 17 0 7 6 7 21 0 11 -7 18 -14 15 -17z m88 -55 c11 -22 25 -25 66
-16 32 7 19 -18 -14 -26 -29 -8 -39 -6 -56 9 -11 10 -20 29 -20 43 0 28 7 25
24 -10z m281 11 l30 -21 -28 6 c-15 4 -36 2 -47 -4 -32 -17 -47 0 -19 21 30
23 28 23 64 -2z m-315 -20 c0 -11 -4 -17 -10 -14 -5 3 -10 13 -10 21 0 8 5 14
10 14 6 0 10 -9 10 -21z m75 11 c3 -5 -1 -10 -9 -10 -9 0 -16 5 -16 10 0 6 4
10 9 10 6 0 13 -4 16 -10z m323 -66 c18 -12 21 -18 12 -29 -10 -12 -18 -11
-53 6 -51 26 -78 49 -72 60 6 9 79 -15 113 -37z m-212 15 c13 -15 26 -19 46
-15 16 3 28 1 28 -4 0 -13 -56 -13 -79 0 -20 10 -36 40 -22 40 4 0 16 -9 27
-21z m277 4 c32 -7 33 -9 7 -50 -24 -40 -43 -44 -34 -7 5 18 0 32 -17 51 -22
24 -22 25 -4 19 11 -4 32 -10 48 -13z m-315 -11 c2 -8 -8 -12 -30 -12 -31 1
-32 1 -13 15 21 17 37 15 43 -3z m82 8 c0 -5 -4 -10 -9 -10 -6 0 -13 5 -16 10
-3 6 1 10 9 10 9 0 16 -4 16 -10z m464 -35 c61 -9 111 -16 112 -18 5 -5 -42
-91 -52 -94 -7 -3 -11 10 -10 34 1 46 -19 58 -111 69 -61 6 -63 6 -93 -26 -18
-19 -36 -30 -45 -26 -20 7 -19 14 5 54 18 29 24 32 53 28 17 -3 81 -13 141
-21z m-646 -1 c9 -2 11 -11 7 -25 -5 -14 0 -28 16 -45 l22 -24 -30 0 c-17 0
-38 -2 -45 -5 -10 -4 -14 4 -14 29 0 24 -8 44 -24 62 l-25 26 40 -7 c22 -4 46
-8 53 -11z m-74 -26 c30 -42 15 -79 -24 -58 -25 13 -43 47 -36 66 8 21 43 17
60 -8z m190 16 c9 -3 16 -14 16 -24 0 -11 5 -22 10 -25 20 -12 9 -25 -21 -25
-23 0 -30 4 -26 14 3 8 -1 22 -8 33 -8 10 -15 21 -15 26 0 9 22 9 44 1z m-52
-21 c23 -21 23 -43 -1 -43 -24 0 -45 25 -37 45 7 19 15 19 38 -2z m921 -2 c53
-4 100 -11 104 -15 4 -4 -1 -31 -12 -62 -13 -39 -23 -54 -34 -52 -11 3 -15 13
-13 34 4 43 -23 63 -95 70 -79 9 -104 1 -125 -36 -18 -32 -25 -35 -46 -22 -10
7 -9 18 5 56 l18 47 50 -6 c27 -3 94 -10 148 -14z m-805 -3 c7 -7 12 -18 12
-25 0 -11 -5 -11 -20 -3 -11 6 -20 17 -20 25 0 18 12 19 28 3z m67 -12 c0 -30
-20 -30 -39 -1 l-17 26 28 -3 c20 -2 28 -9 28 -22z m39 -2 c4 -10 1 -14 -6
-12 -15 5 -23 28 -10 28 5 0 13 -7 16 -16z m62 1 c18 -14 18 -14 -7 -15 -15 0
-32 7 -39 15 -10 12 -9 15 7 15 10 0 28 -7 39 -15z m325 -2 c6 -6 8 -20 4 -33
-6 -20 -11 -21 -58 -15 -98 12 -136 33 -109 59 11 12 150 2 163 -11z m704 -41
c55 -12 81 -22 83 -33 1 -8 -12 -38 -30 -65 -24 -36 -40 -50 -60 -52 -32 -4
-33 -1 -12 39 8 16 12 38 9 49 -8 26 -83 52 -152 54 -56 1 -58 0 -75 -33 -22
-44 -30 -52 -46 -42 -9 6 -9 18 4 57 27 81 19 80 279 26z m-2142 11 l59 -16
-35 -19 c-20 -10 -39 -22 -42 -28 -12 -19 -23 -10 -39 30 -24 59 -28 57 57 33z
m1721 -3 c34 0 57 -21 50 -48 -6 -20 -11 -22 -43 -17 -90 15 -131 28 -131 41
0 20 39 35 74 29 16 -3 38 -5 50 -5z m-319 -42 c166 -30 244 -56 274 -92 18
-21 -6 -57 -57 -89 -51 -32 -81 -43 -202 -72 -58 -15 -114 -29 -125 -32 -12
-3 -1 12 27 36 50 45 74 99 62 145 -16 65 -121 111 -284 123 -54 4 -77 9 -65
14 34 13 193 -1 370 -33z m-1197 -2 c75 -14 104 -26 60 -26 -89 0 -230 -78
-244 -136 -3 -13 -9 -24 -13 -24 -9 0 -40 131 -35 145 8 20 87 55 124 54 19 0
68 -6 108 -13z m911 4 c116 -13 189 -36 222 -70 69 -69 6 -179 -132 -231 -49
-19 -355 -110 -502 -150 -269 -73 -550 -32 -630 90 -107 165 -36 280 193 316
20 3 123 12 230 21 107 8 224 19 260 23 94 12 262 12 359 1z m954 -16 c26 -9
47 -18 47 -20 0 -3 -7 -18 -15 -34 -18 -34 -34 -37 -113 -16 -70 19 -85 32
-70 60 6 11 16 24 22 29 13 9 64 1 129 -19z m429 -55 c54 -19 98 -37 98 -41 0
-11 -85 -131 -95 -135 -6 -1 -16 1 -24 6 -12 8 -12 13 2 35 42 64 11 113 -85
135 -67 14 -102 4 -126 -38 -28 -49 -82 -48 -67 0 9 28 42 79 62 96 16 13 69
0 235 -58z m-729 11 c127 -28 166 -61 113 -95 -27 -18 -276 -66 -276 -54 0 4
9 10 20 14 26 8 70 62 70 85 0 17 -32 49 -76 77 -16 10 -13 10 16 3 19 -4 79
-18 133 -30z m665 -50 c45 -20 55 -47 28 -82 -18 -24 -23 -23 -111 18 l-76 37
28 29 c31 32 52 32 131 -2z m-393 -14 l90 -23 -45 -6 c-25 -3 -78 -9 -119 -12
-65 -5 -72 -4 -61 10 7 8 10 25 6 40 -6 23 -4 25 16 20 13 -3 64 -16 113 -29z
m681 -32 c33 -14 110 -51 171 -81 95 -46 111 -57 104 -71 -6 -10 -52 -59 -103
-110 -94 -93 -94 -93 -113 -72 -18 20 -18 21 27 68 44 45 68 81 68 100 0 19
-57 66 -108 88 -78 36 -123 32 -161 -11 -17 -20 -31 -40 -31 -45 0 -14 -13
-12 -35 4 -18 13 -18 14 -1 42 39 61 88 114 105 114 10 0 45 -12 77 -26z
m-596 -24 c0 -5 -4 -10 -9 -10 -11 0 -273 -138 -285 -150 -5 -6 -7 -12 -5 -15
3 -2 81 -24 174 -48 l169 -44 -79 -6 c-43 -4 -125 -7 -183 -7 -92 0 -118 4
-221 36 -155 48 -174 56 -164 65 4 4 77 42 161 84 l152 76 133 14 c72 7 138
13 145 14 6 0 12 -3 12 -9z m195 -2 c14 -6 25 -14 25 -17 0 -6 -93 -59 -157
-90 -59 -29 -64 -27 266 -86 194 -35 207 -39 244 -70 22 -19 46 -44 55 -56 14
-20 13 -21 -4 -15 -46 14 -258 44 -354 51 -93 5 -302 50 -505 106 -37 11 -38
12 -20 26 31 23 256 135 300 149 51 16 117 17 150 2z m-689 -101 c-77 -40
-141 -78 -143 -83 -2 -6 59 -30 134 -54 l138 -44 -99 -8 c-54 -5 -122 -12
-150 -16 -43 -7 -70 -3 -178 27 -71 20 -128 38 -128 41 0 8 226 130 277 150
26 10 80 23 118 29 39 6 86 15 105 20 73 18 61 9 -74 -62z m781 51 c79 -46
225 -149 219 -155 -3 -4 -386 63 -420 73 -14 5 1 18 65 54 46 27 87 49 91 49
4 1 24 -9 45 -21z m348 -27 c34 -15 68 -36 78 -45 15 -15 15 -20 3 -44 -8 -15
-33 -45 -55 -66 l-40 -39 -76 67 c-41 37 -75 74 -75 81 0 23 57 75 82 75 12 0
50 -13 83 -29z m-1355 -25 c0 -2 -49 -32 -110 -65 -60 -34 -112 -66 -115 -71
-5 -8 100 -45 188 -66 30 -7 37 -24 10 -24 -10 0 -58 -11 -108 -23 -96 -24
-77 -25 -312 8 -24 4 -43 10 -43 14 0 8 114 97 175 137 17 11 62 28 100 38 39
9 99 26 135 36 74 20 80 22 80 16z m1692 -73 c62 -41 288 -239 288 -252 0 -8
-318 -173 -358 -185 -17 -6 -27 -3 -37 11 -21 26 -19 29 29 47 67 26 149 72
175 100 21 22 22 26 7 53 -19 38 -89 101 -132 119 -66 28 -110 14 -188 -59
-37 -35 -61 -40 -54 -12 4 18 189 215 203 215 6 0 36 -17 67 -37z m-2057 -31
c-6 -5 -42 -34 -82 -65 -39 -31 -74 -61 -77 -66 -5 -7 181 -41 227 -41 9 0 17
-4 17 -10 0 -5 -6 -10 -12 -10 -7 0 -49 -14 -93 -31 l-80 -31 -140 16 c-77 10
-155 20 -173 23 l-33 5 88 65 c101 75 124 86 248 124 96 29 125 34 110 21z
m-800 -90 c56 -20 91 -25 175 -26 58 0 119 3 135 7 60 17 9 -10 -73 -38 l-82
-29 -58 18 c-63 20 -156 65 -187 91 l-20 17 20 -8 c11 -4 52 -18 90 -32z m490
0 c-6 -5 -45 -34 -88 -66 -43 -32 -76 -60 -73 -63 4 -5 273 -42 309 -43 34 0
15 -16 -78 -64 l-94 -48 -134 7 -133 7 -23 33 c-27 40 -23 57 23 105 43 45 77
64 189 105 97 35 117 40 102 27z m2351 -22 c53 -30 104 -82 104 -105 0 -8 -13
-23 -29 -34 -45 -32 -179 -94 -189 -87 -6 3 -31 37 -58 76 l-48 70 25 26 c38
42 100 84 123 84 12 0 44 -13 72 -30z m-1186 10 c0 -15 -27 -23 -47 -15 -16 7
-15 9 7 15 36 11 40 11 40 0z m70 2 c0 -4 -20 -27 -44 -51 -44 -43 -46 -44
-68 -27 -13 9 -38 26 -55 39 -41 28 -41 37 -3 37 17 0 30 -4 30 -10 0 -5 9
-14 21 -21 17 -9 27 -6 57 15 37 26 62 33 62 18z m133 -18 l48 -25 34 25 c28
22 75 36 75 23 0 -7 -101 -107 -107 -107 -3 0 -24 15 -47 33 -23 19 -54 42
-71 51 -26 16 -25 13 9 -18 l39 -36 -63 -58 c-135 -122 -170 -220 -145 -414 7
-52 6 -56 -15 -63 -17 -5 -30 0 -54 24 l-31 31 -33 -20 c-37 -23 -57 -17 -91
26 -25 32 -26 51 -6 152 22 107 73 208 135 266 50 47 51 47 76 31 25 -16 26
-16 89 44 72 70 88 73 158 35z m67 11 c-16 -19 -31 -19 -56 0 -18 13 -16 14
25 15 37 0 42 -2 31 -15z m203 -15 l47 -29 35 20 c19 11 42 19 52 17 12 -2 3
-14 -35 -47 -58 -48 -46 -50 -129 19 -70 56 -49 71 30 20z m-694 -22 c-57 -75
-71 -88 -83 -78 -35 28 -134 68 -159 63 -17 -3 -27 -1 -27 7 0 7 7 10 17 6 9
-4 20 -1 24 5 12 20 54 13 98 -17 l43 -28 19 25 c10 13 19 27 19 30 0 9 42 28
63 28 16 1 13 -6 -14 -41z m129 -14 c2 -1 -16 -22 -40 -46 -23 -24 -55 -59
-69 -78 l-25 -34 -28 37 -28 36 57 71 58 70 36 -27 c20 -14 38 -28 39 -29z
m638 41 c-11 -8 -23 -15 -26 -15 -3 0 -15 7 -26 15 -18 13 -16 14 26 14 42 0
44 -1 26 -14z m-826 -2 c0 -3 -7 -14 -16 -24 -15 -17 -19 -17 -47 -3 -23 12
-27 18 -16 25 16 10 79 12 79 2z m1030 -43 l32 -40 30 25 c36 30 42 31 85 4
120 -74 302 -458 332 -699 16 -129 -1 -335 -35 -423 -5 -15 -52 -47 -69 -47
-3 0 -5 25 -5 55 0 60 0 59 -50 45 -40 -12 -46 -6 -55 60 -6 41 -3 51 29 98
65 96 76 144 76 315 0 292 -66 434 -259 564 -2 1 2 9 9 18 7 9 8 15 2 15 -6 0
-29 -21 -51 -47 -23 -25 -43 -44 -44 -42 -2 2 -17 22 -34 44 -16 22 -38 52
-48 68 -17 26 -17 27 3 27 12 0 34 -17 52 -40z m-2430 20 c12 -7 11 -13 -9
-34 -13 -14 -28 -23 -32 -20 -13 8 -11 38 3 52 14 14 18 15 38 2z m2139 -35
c29 -25 56 -45 59 -45 4 0 27 18 52 40 24 22 53 40 64 40 13 0 46 -27 83 -67
l63 -67 27 27 28 26 40 -22 c56 -31 148 -146 174 -215 72 -192 69 -449 -5
-579 -26 -45 -88 -99 -119 -105 -17 -2 -19 2 -17 29 2 17 -1 41 -7 51 -9 17
-16 19 -48 11 -65 -15 -70 -13 -77 33 -4 23 -12 46 -18 49 -7 5 5 26 35 58 55
63 80 131 79 220 -1 155 -109 333 -239 397 -57 29 -194 26 -250 -4 -110 -58
-155 -127 -155 -236 0 -84 9 -111 54 -161 63 -73 182 -105 261 -71 108 46 142
191 65 274 -37 39 -124 26 -171 -26 -20 -22 -20 -83 -1 -89 6 -2 9 7 7 24 -7
42 43 86 98 87 56 1 84 -34 84 -107 0 -65 -30 -111 -89 -138 -57 -26 -104 -24
-162 7 -60 32 -82 50 -102 89 -58 112 -15 242 103 314 168 102 368 -2 450
-234 41 -116 32 -212 -28 -302 -28 -42 -114 -113 -137 -113 -5 0 -16 22 -25
50 -9 27 -20 52 -25 55 -4 2 -29 -2 -56 -10 -26 -8 -51 -12 -54 -10 -4 3 -13
25 -20 51 -7 25 -19 48 -26 51 -6 2 -31 -5 -53 -17 -23 -11 -46 -18 -51 -15
-6 4 -19 24 -30 46 l-20 39 -39 -20 c-43 -21 -46 -20 -75 38 l-17 32 -51 -26
c-50 -25 -53 -26 -63 -8 -5 10 -21 29 -35 42 -24 23 -25 29 -25 135 0 98 3
118 24 157 31 60 100 139 149 174 39 27 41 27 66 11 26 -17 27 -17 69 29 58
61 85 62 156 1z m349 37 c10 -7 8 -12 -6 -25 -20 -18 -26 -15 -46 21 -8 14 31
17 52 4z m-1318 -13 c0 -9 -45 -97 -56 -108 -5 -6 -164 52 -164 60 0 17 48 17
88 -1 58 -26 59 -26 78 13 22 41 54 64 54 36z m-60 -18 c0 -5 -7 -14 -15 -21
-13 -11 -21 -11 -43 0 -25 12 -26 13 -7 21 27 11 65 11 65 0z m-970 -21 c15
-8 18 -17 13 -44 -9 -54 29 -120 92 -162 57 -38 151 -77 165 -69 11 7 184 -88
295 -161 86 -56 175 -137 175 -159 0 -8 -4 -16 -9 -19 -5 -3 -206 113 -447
258 -484 291 -472 281 -418 346 26 30 31 32 71 26 24 -3 52 -10 63 -16z m75
-20 c-19 -19 -31 -26 -34 -19 -2 7 6 21 19 31 36 29 46 21 15 -12z m1093 -3
c48 -22 95 -65 117 -106 12 -25 12 -35 -6 -90 -10 -35 -22 -102 -25 -149 -9
-121 -35 -149 -87 -94 l-27 28 16 47 c19 57 13 111 -20 182 -30 62 -65 100
-110 116 l-35 13 16 30 c27 54 33 58 77 50 23 -3 60 -16 84 -27z m-1357 -38
l-9 -24 -11 28 c-14 35 -5 55 16 35 10 -11 11 -21 4 -39z m1031 20 c32 -12 57
-23 55 -25 -2 -2 -36 -13 -75 -23 l-72 -19 6 27 c11 47 15 61 21 61 3 0 32
-10 65 -21z m-1073 -2 c14 -18 4 -27 -29 -27 -15 0 -30 3 -33 7 -10 10 13 33
33 33 10 0 23 -6 29 -13z m977 -14 c-22 -90 -28 -103 -44 -103 -34 0 -161 43
-155 53 5 9 69 5 125 -9 25 -6 27 -3 34 32 7 37 18 54 38 54 4 0 5 -12 2 -27z
m-1072 11 c23 -9 19 -31 -6 -38 -38 -10 -58 -7 -58 9 0 13 11 21 47 34 1 1 8
-2 17 -5z m1018 -29 c-4 -25 -23 -31 -56 -19 -24 9 -19 21 12 32 43 16 50 14
44 -13z m2389 -27 c46 -64 116 -216 139 -304 30 -116 32 -111 -57 -119 -43 -4
-145 -13 -227 -20 -147 -13 -166 -13 -166 5 0 10 15 13 160 31 117 14 168 33
176 65 14 56 -67 205 -130 239 -29 16 -39 17 -82 6 -26 -7 -86 -29 -131 -48
-83 -36 -107 -37 -87 -5 9 15 346 191 366 192 5 0 22 -19 39 -42z m-3487 4 c3
-5 -8 -19 -24 -31 l-30 -22 0 24 c0 13 3 27 7 30 9 10 41 9 47 -1z m1385 -3
c60 -14 96 -42 131 -102 25 -43 30 -63 30 -117 0 -68 -8 -88 -58 -143 l-26
-27 -28 27 -28 27 -22 -21 c-38 -34 -47 -35 -85 -12 l-36 23 -29 -34 c-26 -32
-30 -34 -51 -21 -12 8 -30 19 -39 25 -14 8 -20 6 -31 -7 -12 -17 -16 -15 -62
25 -102 90 -128 173 -84 265 22 46 32 49 87 29 l33 -12 2 -83 c2 -77 4 -84 30
-107 72 -62 197 -46 228 30 15 35 -2 72 -43 95 -33 19 -81 5 -86 -24 -3 -16
-1 -18 9 -7 28 26 89 9 102 -30 9 -26 -28 -65 -69 -73 -100 -18 -154 24 -154
121 0 84 61 137 180 157 43 7 54 7 99 -4z m-1135 -18 c191 -115 852 -515 855
-517 2 -2 2 -6 0 -8 -2 -3 -74 34 -159 81 -160 88 -540 281 -645 328 -70 31
-166 43 -218 26 -94 -32 -82 -148 22 -201 43 -21 267 -90 586 -180 387 -109
419 -119 404 -134 -4 -4 -281 64 -519 127 -52 14 -147 39 -210 56 -175 46
-432 120 -459 131 -21 10 -23 16 -19 59 10 100 96 218 174 239 66 17 153 14
188 -7z m716 -15 c0 -2 -9 -25 -21 -51 -21 -47 -23 -127 -4 -184 8 -23 7 -23
-16 -8 -13 9 -62 37 -109 62 -47 26 -74 44 -60 40 14 -3 43 -9 65 -12 l40 -5
18 54 c35 102 38 108 63 108 13 0 24 -2 24 -4z m-1030 -23 c0 -20 -34 -64 -48
-61 -26 5 -27 44 -1 61 18 13 49 14 49 0z m948 -20 c-6 -21 -17 -51 -25 -67
-14 -27 -18 -28 -60 -22 -74 10 -87 25 -21 26 56 0 57 1 63 33 7 32 31 67 46
67 4 0 3 -17 -3 -37z m-55 -21 c-4 -16 -13 -22 -34 -22 -37 0 -36 6 3 30 37
22 39 22 31 -8z m-119 -1 c17 -7 15 -10 -18 -30 l-37 -23 -64 28 c-36 16 -65
31 -65 34 0 7 161 -1 184 -9z m2681 -43 c36 -31 86 -118 99 -170 9 -39 -20
-54 -142 -73 -142 -21 -168 -20 -186 8 -23 36 -58 147 -52 163 9 24 169 93
238 103 4 1 24 -13 43 -31z m-2903 -100 c218 -110 293 -149 493 -258 103 -55
115 -63 115 -72 0 -13 -24 -9 -117 17 -658 184 -828 236 -881 267 -60 37 -80
110 -39 148 20 19 32 21 109 18 l86 -3 234 -117z m-599 104 c3 -4 -3 -22 -13
-41 l-17 -34 -17 25 c-9 14 -14 33 -10 42 6 16 49 23 57 8z m-38 -82 c3 -5 8
-26 10 -45 l5 -36 -25 18 c-27 20 -40 47 -30 63 8 13 32 13 40 0z m-34 -60
c29 -16 23 -26 -22 -39 -34 -10 -43 -10 -50 1 -13 19 -11 26 9 37 22 13 39 13
63 1z m-84 -47 c6 -17 -35 -55 -55 -51 -24 5 -28 39 -6 55 22 16 56 14 61 -4z
m189 -13 c32 -12 97 -31 144 -44 235 -64 596 -160 775 -206 284 -73 277 -71
273 -76 -3 -2 -67 10 -144 27 -209 46 -753 155 -888 178 -65 12 -149 21 -186
21 -66 0 -68 -1 -104 -40 -20 -22 -36 -44 -36 -49 0 -16 42 -61 70 -76 45 -23
144 -33 528 -55 521 -29 814 -57 851 -81 11 -7 -8 -8 -64 -5 -44 3 -224 13
-400 21 -791 39 -1046 55 -1066 66 -20 10 -21 17 -17 92 7 129 51 193 158 230
25 8 45 16 46 16 0 1 27 -8 60 -19z m1503 -34 c10 -12 8 -13 -8 -9 -12 3 -29
-1 -39 -8 -14 -11 -13 -9 2 9 22 26 29 27 45 8z m141 -1 c15 -18 -1 -20 -19
-2 -10 10 -11 8 -6 -8 5 -15 4 -16 -3 -6 -6 8 -15 10 -23 5 -12 -6 -12 -5 0 9
17 21 35 22 51 2z m133 -3 c15 -16 15 -18 -3 -18 -10 0 -16 4 -14 8 8 12 -11
9 -24 -4 -7 -7 -12 -8 -12 -2 0 11 20 34 30 34 4 0 14 -8 23 -18z m-403 -7 c7
-8 10 -15 7 -15 -3 0 -14 -3 -24 -6 -15 -5 -15 -4 -3 5 13 9 13 11 -2 11 -9 0
-21 -8 -27 -17 -5 -10 -12 -15 -15 -12 -8 8 23 49 38 49 8 0 19 -7 26 -15z
m-1633 -3 c10 -6 8 -16 -5 -42 -19 -36 -31 -41 -46 -17 -7 10 -5 23 7 41 19
28 25 30 44 18z m2179 -13 c19 -22 19 -22 -4 -10 -13 7 -31 10 -39 7 -13 -5
-14 -4 -3 9 17 20 23 19 46 -6z m-692 5 c24 -9 19 -19 -9 -19 -14 0 -25 6 -25
13 0 13 10 15 34 6z m826 -22 c0 -4 -11 -7 -25 -7 -22 0 -23 1 -9 12 16 12 34
9 34 -5z m-512 -36 c2 -16 -1 -33 -6 -38 -16 -16 -62 2 -68 28 -8 33 3 46 39
42 27 -3 33 -8 35 -32z m88 -3 c-3 -21 -5 -39 -6 -40 -1 -9 -48 -1 -58 9 -13
13 -16 50 -5 61 3 4 22 7 40 7 34 0 35 0 29 -37z m104 -2 c0 -47 -7 -53 -49
-45 -28 6 -31 10 -31 45 0 39 0 39 40 39 40 0 40 0 40 -39z m113 19 c5 -4 5
-24 2 -44 -7 -34 -9 -36 -45 -36 -44 0 -52 12 -43 65 6 35 7 35 42 29 20 -4
40 -10 44 -14z m-405 -17 c-3 -24 -8 -28 -40 -31 -34 -3 -38 -1 -38 21 0 31 7
37 47 37 32 0 34 -2 31 -27z m762 8 c12 -24 13 -31 1 -31 -5 0 -13 9 -16 21
-4 12 -12 18 -21 15 -43 -18 -49 -18 -30 -2 27 22 53 20 66 -3z m-860 -17 c0
-22 -4 -25 -27 -22 -20 2 -29 9 -31 26 -3 19 1 22 27 22 27 0 31 -4 31 -26z
m615 -24 l0 -45 -40 0 -40 0 -3 48 -3 48 43 -3 43 -3 0 -45z m1775 24 c18 -48
9 -292 -16 -407 -5 -25 -9 -28 -32 -22 -15 4 -88 20 -162 35 -255 54 -240 50
-240 72 0 16 5 19 23 15 72 -19 214 -38 259 -35 52 3 53 4 66 43 9 27 12 64 8
113 -6 78 -25 125 -55 142 -28 15 -137 12 -227 -5 -62 -12 -80 -12 -86 -2 -21
33 -23 32 202 55 256 27 249 27 260 -4z m-3588 -9 c194 -33 776 -150 1028
-206 70 -16 92 -34 30 -25 -151 23 -397 42 -870 66 -339 18 -419 31 -460 75
-29 31 -21 69 23 95 42 26 76 25 249 -5z m1112 10 c3 -8 1 -15 -3 -15 -5 0
-11 7 -15 15 -3 8 -1 15 3 15 5 0 11 -7 15 -15z m823 -48 c-7 -53 -18 -62 -59
-51 -37 11 -47 40 -29 86 9 25 12 26 52 16 41 -11 41 -11 36 -51z m-2374 22
c16 -26 1 -49 -33 -49 -31 0 -38 17 -24 55 8 20 43 16 57 -6z m2637 -33 c0 -6
-8 -1 -18 11 -12 16 -24 21 -42 17 l-25 -5 25 15 c23 14 26 14 43 -5 9 -12 17
-26 17 -33z m-153 23 c22 -8 22 -10 8 -55 -7 -25 -15 -48 -17 -49 -2 -2 -23 1
-46 7 l-42 10 6 42 c10 72 13 74 91 45z m-598 -25 c3 -3 1 -8 -5 -12 -36 -23
-43 -87 -14 -125 l20 -25 -23 -5 c-12 -2 -53 -5 -90 -6 -37 -1 -89 -6 -116
-10 -26 -4 -54 -5 -62 -2 -45 18 -109 92 -109 126 0 33 44 65 89 65 l36 -1
-26 -14 c-81 -44 -45 -165 49 -165 38 0 77 33 87 73 8 32 -13 78 -43 93 -12 6
-26 15 -30 19 -8 9 228 -2 237 -11z m695 -9 c41 -18 41 -16 20 -77 l-15 -46
-40 16 c-43 16 -48 33 -28 91 13 36 14 36 63 16z m196 -6 c6 -11 9 -30 7 -42
-3 -18 -5 -16 -12 11 -8 34 -13 35 -57 17 -26 -11 -22 10 5 23 33 16 45 14 57
-9z m1068 15 c38 -8 60 -49 68 -131 5 -42 2 -69 -10 -97 l-16 -39 -68 7 c-66
7 -233 34 -238 39 -1 1 -4 44 -5 96 l-4 95 33 8 c83 22 191 32 240 22z m-2155
-36 c21 -25 22 -66 1 -96 -34 -49 -134 -17 -134 44 0 75 85 109 133 52z m298
3 c16 -16 29 -39 29 -51 0 -26 -52 -80 -77 -80 -50 0 -89 59 -72 108 19 55 76
66 120 23z m173 2 c86 -15 87 -16 58 -29 -56 -23 -74 -75 -47 -138 7 -17 5
-18 -16 -13 -13 4 -55 12 -94 18 -102 17 -100 16 -66 45 36 30 42 78 14 120
l-16 26 39 -7 c21 -3 79 -13 128 -22z m-2160 -15 c11 -42 7 -49 -21 -46 -28 3
-40 25 -29 54 9 22 43 17 50 -8z m2751 2 c3 -5 2 -10 -4 -10 -5 0 -13 5 -16
10 -3 6 -2 10 4 10 5 0 13 -4 16 -10z m-51 -16 l34 -17 -15 -46 c-9 -25 -18
-49 -22 -53 -3 -3 -24 3 -47 15 l-40 22 13 48 c16 52 25 55 77 31z m-224 -56
c287 -101 638 -350 770 -545 107 -159 103 -214 -23 -336 -116 -113 -110 -112
-135 -9 -49 199 -191 400 -387 547 -67 50 -277 160 -373 195 -62 22 -62 23
-40 38 36 25 47 44 48 83 0 24 -7 42 -20 54 -45 40 -20 36 160 -27z m-179 23
c16 -16 29 -39 29 -51 0 -27 -52 -80 -79 -80 -27 0 -69 39 -77 72 -5 22 0 34
24 58 38 38 66 38 103 1z m638 -18 c13 -47 5 -57 -12 -14 -11 30 -15 32 -47
27 -32 -5 -34 -4 -16 9 36 27 64 19 75 -22z m-124 0 c19 -9 35 -21 35 -25 0
-13 -42 -108 -47 -108 -8 0 -48 23 -64 37 -15 12 -15 18 -2 55 23 68 23 67 78
41z m-2821 1 c34 -13 13 -47 -37 -59 -22 -6 -27 -4 -27 11 0 18 27 54 41 54 4
0 14 -3 23 -6z m2916 -14 c0 -5 -7 -7 -15 -4 -8 4 -12 10 -9 15 6 11 24 2 24
-11z m10 -40 c24 -12 40 -28 40 -38 0 -26 -30 -112 -39 -112 -5 0 -26 13 -49
29 l-40 30 20 55 c12 31 23 56 25 56 2 0 22 -9 43 -20z m-3004 -11 c10 -16
-41 -63 -60 -56 -21 8 -20 43 2 56 23 14 49 14 58 0z m1119 -43 l420 -24 -688
-1 c-676 -1 -688 -1 -729 -22 -63 -32 -88 -65 -88 -115 0 -34 5 -47 28 -65 26
-20 34 -21 152 -16 69 4 296 27 505 52 209 25 439 52 510 61 168 19 432 53
470 59 18 3 26 2 20 -4 -6 -5 -73 -19 -150 -30 -328 -51 -747 -119 -1120 -182
-431 -73 -449 -75 -479 -55 -61 39 -63 229 -3 296 41 46 94 81 137 88 45 8
366 -6 1015 -42z m2042 18 c3 -27 2 -27 -7 -6 -8 18 -15 21 -35 16 -15 -4 -25
-2 -25 4 0 10 35 21 55 17 6 -1 11 -15 12 -31z m-1271 -3 c-9 -10 -31 -26 -49
-36 -31 -17 -33 -16 -70 5 -21 12 -35 25 -32 28 3 3 38 9 78 12 39 4 76 8 81
9 5 0 2 -7 -8 -18z m101 -23 c37 -36 42 -58 13 -58 -13 0 -27 14 -40 40 -32
62 -24 67 27 18z m108 21 c41 -6 75 -14 75 -18 0 -3 -24 -22 -52 -41 -48 -33
-52 -34 -62 -16 -6 10 -21 31 -33 46 -37 45 -38 45 72 29z m1075 -69 c0 -4
-14 -33 -32 -63 l-31 -56 -43 31 -43 30 21 52 c11 28 22 56 25 63 5 13 103
-41 103 -57z m-1220 12 c14 -40 13 -43 -8 -64 -21 -22 -22 -22 -22 -3 -1 11
-7 38 -15 60 -11 30 -11 41 -2 47 20 13 31 3 47 -40z m-2024 13 c8 -19 -21
-65 -40 -65 -31 0 -26 60 6 73 22 9 28 7 34 -8z m2258 -19 c-31 -27 -44 -32
-44 -16 0 11 62 52 68 45 2 -2 -9 -15 -24 -29z m241 -28 c3 -2 -22 -14 -55
-26 l-60 -21 -25 49 c-14 27 -25 51 -25 53 0 4 159 -49 165 -55z m-675 42 c0
-5 -4 -10 -9 -10 -6 0 -13 5 -16 10 -3 6 1 10 9 10 9 0 16 -4 16 -10z m140
-16 c12 -31 13 -114 1 -132 -5 -9 -25 -12 -57 -10 l-49 3 -16 65 c-18 69 -11
94 16 66 22 -21 27 -20 55 9 30 31 38 31 50 -1z m1399 -11 c-1 -38 -1 -38 -12
-10 -8 21 -18 27 -41 28 -27 0 -28 2 -11 9 11 5 30 9 43 9 19 1 22 -4 21 -36z
m-1594 7 c-3 -5 -25 -10 -48 -10 -23 0 -147 -13 -277 -30 -515 -65 -1058 -128
-1182 -136 -94 -7 -97 -6 -122 19 -55 56 -20 122 84 160 29 10 1551 7 1545 -3z
m548 4 c3 -4 -8 -24 -26 -44 -24 -29 -35 -36 -44 -28 -20 16 -15 35 13 57 27
21 46 26 57 15z m1012 -14 c3 -5 1 -10 -4 -10 -6 0 -11 5 -11 10 0 6 2 10 4
10 3 0 8 -4 11 -10z m13 -52 c8 -10 2 -29 -24 -76 -38 -68 -45 -69 -92 -19
-26 28 -26 29 25 110 l24 38 28 -20 c15 -11 33 -26 39 -33z m-1224 21 l15 -22
27 22 c33 26 48 17 77 -48 14 -33 17 -54 12 -88 -14 -92 -30 -98 -38 -16 -7
71 -38 107 -93 107 -29 0 -43 -7 -69 -35 -18 -20 -34 -42 -37 -50 -4 -12 -7
-12 -21 0 -10 7 -17 17 -17 22 0 20 54 90 84 109 39 25 42 25 60 -1z m231 -9
c22 -43 19 -51 -35 -98 l-50 -44 0 51 c0 42 5 56 31 86 17 19 33 35 35 35 2 0
10 -13 19 -30z m1605 -30 c106 -22 195 -40 198 -40 10 0 -11 -100 -39 -185
-26 -77 -101 -225 -114 -225 -8 0 -330 153 -347 165 -15 10 -16 15 -5 29 12
16 18 14 84 -23 40 -23 102 -51 138 -62 66 -22 66 -22 93 -2 42 30 71 98 72
169 0 99 -35 120 -272 159 -32 5 -38 10 -38 30 0 18 6 25 18 25 11 0 106 -18
212 -40z m-1402 18 c19 -19 14 -56 -8 -63 -29 -9 -37 0 -32 39 4 37 19 45 40
24z m-2588 -33 c0 -39 -21 -55 -45 -35 -29 24 -11 70 27 70 14 0 18 -8 18 -35z
m1845 26 c-6 -4 -86 -31 -180 -59 -161 -49 -630 -197 -1155 -365 -268 -86
-340 -103 -393 -93 -101 19 -80 125 36 179 74 35 406 107 1137 246 146 28 319
62 385 75 127 26 185 32 170 17z m695 0 c0 -20 -13 -41 -25 -41 -18 0 -28 17
-21 35 6 16 46 21 46 6z m169 -30 c41 -21 70 -40 65 -43 -5 -3 -27 -8 -49 -12
-22 -4 -47 -9 -56 -12 -11 -3 -19 7 -28 38 -7 24 -18 49 -23 56 -19 22 14 13
91 -27z m803 5 c10 -40 3 -44 -14 -9 -8 16 -21 27 -31 27 -9 -1 -17 3 -17 8 0
5 12 8 27 6 20 -2 29 -10 35 -32z m-1042 4 c0 -5 -10 -10 -22 -10 -19 0 -20 2
-8 10 19 13 30 13 30 0z m-923 -6 c-3 -3 -12 -4 -19 -1 -8 3 -5 6 6 6 11 1 17
-2 13 -5z m298 -3 c-6 -5 -66 -27 -135 -49 -69 -23 -466 -156 -884 -296 -482
-163 -773 -256 -798 -256 -78 0 -121 81 -103 197 6 39 16 56 64 104 39 39 70
60 97 67 21 6 167 31 324 56 157 25 464 75 684 111 219 36 403 64 408 63 5 -2
-84 -21 -199 -42 -594 -109 -1070 -211 -1152 -247 -101 -43 -142 -129 -86
-184 21 -22 33 -25 92 -25 72 0 31 -12 773 225 450 143 508 161 705 221 99 31
185 57 190 59 20 7 29 5 20 -4z m1639 -44 c6 -9 -5 -35 -34 -80 -23 -37 -45
-67 -50 -67 -4 0 -19 15 -34 34 -29 39 -27 52 23 129 l24 37 31 -19 c17 -11
35 -26 40 -34z m-1278 22 c12 -14 18 -36 19 -71 0 -48 -2 -52 -29 -59 -16 -5
-49 -27 -73 -51 -42 -41 -43 -41 -43 -17 0 14 -7 47 -14 74 -13 42 -13 52 -1
76 33 64 104 88 141 48z m331 -19 c17 -10 37 -29 44 -41 18 -34 13 -122 -9
-172 -17 -38 -24 -45 -42 -40 -15 4 -19 10 -14 22 31 73 29 119 -7 164 -37 48
-98 31 -149 -39 -34 -48 -41 -52 -61 -28 -17 21 10 71 63 120 33 30 45 34 91
34 34 0 63 -7 84 -20z m1364 2 c42 -10 92 -28 110 -39 33 -19 34 -22 33 -79
-1 -39 -8 -73 -22 -100 -35 -69 -61 -70 -186 -10 -131 64 -133 66 -118 124 36
134 29 122 70 122 20 0 71 -8 113 -18z m-1281 -6 c0 -20 -19 -31 -32 -18 -6 6
-7 15 -4 21 10 16 36 13 36 -3z m-780 -1 c0 -5 -1249 -630 -1457 -729 -145
-68 -193 -83 -236 -72 -43 10 -62 90 -31 134 39 57 246 140 1234 497 36 13
106 38 155 55 114 40 205 73 275 99 64 23 60 22 60 16z m-1841 -36 c16 -48 14
-61 -10 -57 -32 5 -45 31 -31 62 15 34 28 33 41 -5z m2010 0 c33 -31 51 -80
51 -139 0 -37 -4 -50 -14 -50 -22 0 -30 19 -27 70 3 64 -25 100 -79 100 -21 0
-42 5 -45 10 -22 35 77 43 114 9z m1611 8 c0 -9 -10 -12 -31 -9 -22 3 -27 7
-18 13 21 13 49 11 49 -4z m-802 -36 c5 -54 -5 -83 -30 -79 -16 2 -24 15 -34
53 -18 68 -19 67 24 63 34 -3 37 -6 40 -37z m710 -92 c-23 -43 -45 -79 -49
-79 -5 0 -20 16 -34 35 l-27 34 24 33 c13 18 37 51 53 72 l28 39 24 -27 23
-28 -42 -79z m-1733 108 c-40 -27 -452 -254 -855 -469 -121 -65 -653 -331
-725 -363 -71 -31 -162 -43 -194 -25 -32 16 -74 113 -73 166 0 27 11 62 29 95
28 51 29 52 108 75 100 28 417 133 899 298 203 70 371 124 373 122 3 -2 -6 -7
-19 -11 -13 -4 -151 -54 -308 -110 -712 -258 -885 -332 -928 -395 -31 -47 -25
-94 19 -134 26 -23 38 -27 69 -23 54 7 257 104 965 461 352 178 644 324 650
324 5 1 1 -4 -10 -11z m841 3 c7 -7 21 -7 43 1 40 14 51 5 58 -48 5 -39 5 -40
-39 -56 -44 -17 -93 -56 -115 -93 -7 -10 -3 7 8 38 10 32 19 82 19 113 0 54 6
65 26 45z m292 -51 c41 -33 72 -62 70 -64 -2 -1 -33 -5 -70 -9 l-66 -6 -7 42
c-3 24 -8 55 -11 71 -3 15 -2 27 3 27 4 0 41 -28 81 -61z m-1058 47 c0 -3 -91
-67 -202 -142 -112 -76 -256 -174 -321 -219 -64 -44 -231 -157 -370 -252 -737
-502 -721 -492 -776 -462 -49 27 -36 105 27 164 61 57 500 306 1167 661 55 29
183 98 285 153 202 109 190 103 190 97z m625 -21 c19 -18 25 -34 25 -67 -1
-62 -18 -92 -76 -131 l-52 -34 -5 40 c-3 22 -15 53 -27 69 -20 27 -20 29 -4
59 21 41 73 89 97 89 10 0 29 -11 42 -25z m-518 -10 c40 -28 37 -135 -3 -135
-9 0 -33 -10 -52 -22 -31 -19 -35 -20 -29 -4 4 10 7 53 7 97 l0 79 28 0 c15 0
37 -7 49 -15z m-107 -4 c0 -4 -26 -26 -57 -48 -32 -22 -159 -113 -283 -202
-124 -89 -243 -174 -265 -189 -59 -42 -585 -418 -695 -498 -52 -38 -135 -99
-183 -134 -106 -78 -163 -110 -196 -110 -35 0 -145 114 -154 159 -16 81 0 144
41 159 15 5 54 17 87 27 33 9 109 41 168 71 59 29 105 50 103 45 -3 -5 -45
-32 -94 -60 -136 -80 -182 -130 -185 -199 -3 -79 66 -106 156 -61 37 19 413
272 807 542 69 47 197 134 285 194 87 59 227 154 310 210 167 113 155 106 155
94z m1765 -75 l19 -34 -50 -83 c-27 -45 -54 -84 -59 -86 -6 -2 -20 19 -32 46
l-21 49 25 44 c77 132 81 134 118 64z m50 44 c-3 -5 -14 -10 -23 -10 -15 0
-15 2 -2 10 20 13 33 13 25 0z m-3650 -20 c19 -21 14 -50 -9 -50 -18 0 -46 27
-46 44 0 31 29 34 55 6z m2263 -11 c35 -21 73 -83 79 -126 4 -32 -1 -45 -28
-80 -18 -24 -37 -43 -41 -43 -4 0 -4 32 -1 70 5 65 4 73 -18 96 -49 53 -95 50
-156 -8 -31 -30 -53 -31 -53 -2 0 24 80 104 114 112 33 9 69 3 104 -19z m-528
-82 c-47 -45 -171 -163 -275 -262 -375 -355 -489 -465 -840 -808 -185 -182
-262 -221 -320 -162 -41 40 -28 126 26 177 22 22 284 226 472 368 531 402 699
532 694 536 -4 4 -285 -205 -587 -436 -647 -495 -609 -464 -627 -508 -16 -37
-19 -96 -8 -131 16 -50 96 -62 170 -24 16 9 156 138 310 287 329 319 462 446
725 696 107 102 230 218 272 259 43 41 80 72 83 69 8 -8 -1376 -1393 -1415
-1417 -71 -43 -169 -20 -221 52 -26 36 -29 48 -29 118 0 42 3 85 6 94 4 9 41
39 83 67 42 29 126 88 186 133 61 45 263 191 450 325 187 134 396 285 465 335
142 104 156 113 146 97 -11 -18 10 -14 25 5 12 15 12 16 -1 8 -13 -8 -13 -7 0
9 8 11 16 14 18 7 2 -7 14 -3 30 10 72 57 238 179 242 179 3 0 -33 -37 -80
-83z m1058 51 c6 -6 12 -17 12 -24 0 -8 7 -14 15 -14 41 0 50 -118 15 -193
-23 -49 -59 -68 -45 -24 28 91 9 174 -47 203 -38 20 -71 12 -120 -27 -20 -16
-41 -29 -47 -29 -21 0 -22 22 -2 53 34 55 90 79 161 71 25 -3 51 -11 58 -16z
m-2838 -21 c0 -8 -11 -24 -25 -37 -20 -19 -27 -21 -40 -10 -19 16 -19 25 1 44
19 19 64 21 64 3z m3034 4 c3 -5 -15 -11 -42 -14 -26 -2 -57 -8 -69 -12 -17
-5 -23 -3 -23 8 0 9 10 18 23 20 42 8 106 7 111 -2z m-761 -31 c29 -23 42 -79
29 -125 -7 -25 -16 -32 -57 -42 -27 -7 -71 -26 -98 -43 l-49 -31 7 28 c4 15
11 59 14 97 6 62 10 71 44 102 42 39 73 43 110 14z m769 -13 c12 -19 9 -112
-4 -128 -7 -9 -31 -21 -54 -27 -23 -7 -57 -23 -77 -36 l-36 -24 25 46 c20 37
25 59 23 107 -3 57 -1 60 27 72 32 14 84 9 96 -10z m-997 -1 c42 -18 57 -45
57 -108 -1 -48 -17 -115 -32 -131 -16 -18 -30 19 -20 54 25 86 3 139 -59 139
-20 0 -46 -7 -57 -15 -25 -19 -34 -19 -34 0 0 9 12 27 26 40 22 21 35 26 77
34 4 0 23 -5 42 -13z m1100 -83 c19 -28 35 -54 35 -57 0 -8 -74 -8 -94 0 -13
5 -16 22 -16 83 l0 76 20 -25 c11 -14 36 -48 55 -77z m-1287 55 c-67 -92 -104
-140 -218 -286 -163 -209 -412 -534 -652 -852 -106 -140 -208 -264 -227 -277
-65 -44 -139 -43 -159 2 -41 89 -20 114 563 720 127 132 253 264 281 294 55
61 427 431 432 431 2 0 -7 -14 -20 -32z m940 9 c32 -34 42 -77 30 -131 l-10
-46 -49 0 c-28 0 -63 -7 -79 -15 l-30 -16 0 55 c0 30 -5 66 -11 80 -14 29 -3
48 46 78 41 24 77 23 103 -5z m1054 -64 c92 -42 168 -82 168 -89 0 -12 -192
-199 -221 -214 -10 -6 -47 11 -125 57 -125 74 -139 86 -131 107 5 13 24 4 99
-44 105 -68 139 -75 186 -35 35 29 57 101 43 138 -13 33 -61 69 -144 107 -61
29 -85 50 -55 50 6 0 87 -35 180 -77z m-3917 57 c7 -11 -22 -70 -35 -70 -13 0
-40 29 -40 44 0 29 60 51 75 26z m2651 -19 c40 -24 69 -95 61 -147 -7 -44 -51
-114 -72 -114 -19 0 -19 -1 5 51 27 61 26 120 -2 146 -52 47 -108 34 -181 -42
-38 -39 -46 -43 -51 -28 -9 22 17 56 83 111 59 48 105 55 157 23z m1189 -61
c29 -17 58 -37 65 -45 21 -25 6 -94 -29 -128 -29 -29 -31 -30 -69 -18 -49 16
-177 112 -176 132 1 8 18 38 38 66 l37 52 41 -15 c22 -8 64 -28 93 -44z
m-1745 31 c26 -51 3 -146 -38 -156 -15 -3 -44 -17 -64 -31 l-38 -24 0 89 0 90
37 26 c45 30 88 33 103 6z m-195 -111 c-32 -68 -42 -80 -62 -80 -14 0 -23 4
-21 8 9 21 112 161 116 157 2 -2 -13 -40 -33 -85z m726 71 c19 -16 24 -28 22
-64 -1 -25 -8 -58 -17 -75 -13 -25 -22 -30 -66 -34 -36 -4 -65 -15 -97 -37
-42 -30 -44 -30 -37 -9 4 13 8 49 8 80 1 49 6 62 31 89 64 68 114 84 156 50z
m-2659 -36 c-5 -42 -15 -50 -42 -35 -13 7 -20 21 -20 40 0 27 3 30 33 30 32 0
33 -1 29 -35z m2436 -51 c28 -32 29 -93 1 -153 -42 -93 -66 -92 -37 1 20 66
18 96 -8 122 -23 24 -66 19 -129 -14 -53 -28 -75 -31 -75 -10 0 12 97 72 133
81 48 12 89 2 115 -27z m744 26 c48 -14 88 -61 88 -106 0 -39 -36 -123 -57
-131 -7 -3 -20 0 -27 6 -13 11 -12 17 0 46 27 66 17 118 -27 141 -25 13 -33
13 -64 -1 -20 -8 -48 -24 -62 -35 -32 -25 -40 -25 -53 1 -13 24 -3 34 65 69
44 22 82 25 137 10z m93 0 c17 -7 15 -9 -12 -9 -17 -1 -35 4 -38 9 -7 12 22
12 50 0z m-1306 -111 c-6 -16 -15 -29 -19 -29 -18 0 -17 32 3 84 l22 56 3 -41
c2 -23 -2 -55 -9 -70z m951 61 c68 -35 88 -106 51 -178 -20 -40 -58 -79 -67
-69 -3 3 2 30 12 61 17 52 17 58 1 91 -30 62 -91 60 -163 -7 -37 -34 -47 -39
-55 -27 -15 24 -11 33 39 81 72 71 114 82 182 48z m394 -38 c-3 -83 -40 -162
-77 -162 -2 0 6 21 19 46 33 66 39 107 20 144 l-15 31 27 -3 c26 -3 27 -5 26
-56z m-3300 33 c7 -20 -3 -44 -24 -55 -23 -12 -40 6 -40 42 0 24 4 28 29 28
16 0 31 -6 35 -15z m1804 -16 c-13 -18 -35 -49 -51 -71 -154 -219 -772 -1089
-810 -1141 -83 -114 -190 -159 -279 -119 -66 29 -126 123 -116 179 2 10 201
214 443 453 406 402 443 433 144 125 -417 -431 -488 -520 -473 -593 19 -96
126 -106 217 -19 25 23 115 134 199 247 169 225 319 422 503 662 66 86 146
190 178 232 32 42 60 76 63 76 3 0 -5 -14 -18 -31z m561 5 c20 -14 23 -23 19
-59 -9 -71 -27 -98 -75 -107 -23 -3 -55 -14 -72 -22 -39 -21 -38 -21 -34 17 3
28 1 25 -17 -18 -21 -52 -65 -113 -75 -104 -3 3 6 33 20 67 62 154 -7 227
-118 124 -25 -24 -28 -25 -44 -10 -14 15 -14 19 -2 34 32 39 92 74 129 74 42
0 61 -12 89 -60 21 -34 21 -34 21 -8 0 32 58 71 130 87 3 0 16 -6 29 -15z
m786 -4 c22 -24 23 -75 3 -116 -11 -24 -22 -30 -60 -35 -46 -7 -125 -47 -148
-74 -7 -8 -17 -15 -23 -15 -6 0 -1 10 11 23 27 29 62 105 62 138 0 15 12 36
28 51 56 52 97 61 127 28z m567 -86 c73 -44 118 -76 118 -83 0 -3 -15 -16 -33
-28 -17 -12 -61 -42 -97 -67 -36 -25 -73 -46 -83 -46 -19 0 -157 125 -157 142
0 20 39 5 71 -28 18 -20 46 -42 61 -50 67 -35 138 1 138 71 0 39 -13 56 -83
104 -26 18 -47 36 -47 41 0 10 32 -6 112 -56z m-3652 -16 c0 -11 -38 -10 -61
2 -22 12 -25 40 -6 59 10 10 17 6 40 -20 15 -18 27 -37 27 -41z m1828 37 c28
-23 126 -157 138 -188 4 -11 -10 -22 -48 -40 -30 -13 -77 -47 -105 -75 l-51
-51 0 107 c1 93 -3 116 -25 172 -24 59 -25 65 -10 82 23 25 66 22 101 -7z
m979 3 c27 -25 30 -63 9 -113 -13 -30 -20 -35 -48 -35 -42 0 -115 -33 -150
-67 -31 -30 -35 -25 -13 16 8 16 19 51 25 77 12 51 44 93 95 125 39 24 54 24
82 -3z m477 -32 c9 -30 16 -57 16 -60 0 -11 -26 -6 -45 8 -17 12 -17 17 -5 60
7 25 14 46 16 46 1 0 10 -24 18 -54z m-1210 -32 c-1 -46 -42 -146 -58 -141 -6
2 -28 32 -50 66 l-39 62 23 24 c63 67 126 61 124 -11z m512 35 c39 -41 40
-106 1 -172 -42 -70 -70 -80 -42 -14 25 59 20 109 -14 141 -37 35 -57 30 -122
-31 -43 -40 -69 -49 -69 -23 0 5 14 26 32 46 78 88 160 109 214 53z m1037 -37
c33 -31 34 -58 5 -89 -30 -33 -59 -29 -115 15 -79 63 -79 64 -33 106 l41 37
37 -22 c20 -12 49 -34 65 -47z m-1889 -51 c27 -93 14 -319 -17 -308 -7 2 -10
16 -7 33 7 38 4 157 -5 264 -8 96 3 100 29 11z m-1755 43 c9 -9 -30 -75 -42
-71 -6 2 -19 16 -27 31 -14 25 -13 28 4 42 17 12 50 11 65 -2z m2543 -11 c23
-20 24 -92 3 -133 -12 -22 -23 -30 -43 -30 -15 0 -49 -12 -75 -26 -48 -25 -49
-25 -42 -4 4 12 8 45 9 73 2 47 6 54 50 94 52 47 70 52 98 26z m-857 -111
c-17 -75 -49 -149 -132 -302 -22 -41 -66 -124 -98 -185 -32 -60 -84 -155 -115
-210 -32 -56 -72 -128 -89 -160 -56 -109 -164 -259 -192 -269 -65 -22 -115 30
-107 109 6 46 96 185 493 760 95 138 196 286 224 329 34 50 38 29 16 -72z
m1431 79 c38 -23 76 -95 65 -124 -4 -11 -16 -26 -27 -33 -17 -12 -19 -10 -20
21 0 22 -9 44 -24 60 -34 36 -82 33 -153 -9 -53 -32 -58 -33 -67 -17 -15 30
47 79 135 107 53 17 55 17 91 -5z m-803 -5 c57 -24 71 -48 64 -112 -6 -61 -46
-134 -73 -134 -12 0 -14 5 -9 18 52 121 38 172 -45 172 -39 0 -66 -13 -111
-57 -30 -29 -37 -32 -43 -18 -9 23 7 48 55 85 35 28 96 58 122 60 4 0 22 -6
40 -14z m982 -6 c32 -12 28 -19 -37 -71 l-51 -40 -18 53 c-10 29 -18 54 -19
55 0 3 44 10 72 12 15 0 39 -3 53 -9z m203 -94 c23 -22 42 -43 42 -47 0 -7
-72 -50 -183 -110 l-49 -26 -54 57 c-50 53 -66 80 -46 80 5 0 17 -9 27 -20 10
-12 34 -30 52 -42 42 -25 94 -20 129 13 35 33 31 73 -12 126 -29 36 -34 47
-23 54 14 8 24 1 117 -85z m-3522 37 c11 -42 -39 -70 -66 -38 -20 24 3 65 35
65 18 0 26 -7 31 -27z m2862 1 c38 -25 56 -80 42 -129 -15 -52 -56 -115 -75
-115 -19 0 -19 -1 10 62 14 29 25 66 25 82 0 36 -35 76 -67 76 -28 0 -114 -42
-132 -64 -16 -20 -37 -21 -44 -2 -5 13 90 84 143 105 29 12 65 6 98 -15z m261
-20 c27 -34 27 -85 1 -109 -13 -12 -45 -22 -85 -26 -35 -5 -83 -18 -106 -29
-39 -20 -41 -21 -34 -3 4 10 13 37 21 60 21 67 31 80 86 107 66 33 91 33 117
0z m283 -1 c47 -52 46 -87 -6 -108 -36 -15 -68 -6 -108 32 -31 30 -30 34 24
74 50 36 58 36 90 2z m-1094 1 c27 -18 30 -70 7 -114 -13 -25 -22 -30 -53 -30
-20 0 -56 -9 -79 -20 l-43 -19 0 58 c0 49 4 61 28 83 31 31 80 58 102 58 9 0
26 -7 38 -16z m-577 -187 c-14 -14 -41 10 -41 37 0 12 10 51 23 87 l22 64 3
-89 c2 -50 -2 -94 -7 -99z m291 98 c-4 -78 -19 -147 -48 -212 -24 -56 -71
-123 -85 -123 -17 0 -9 26 25 72 41 58 58 117 54 183 -2 42 -6 50 -24 53 -20
3 -82 -55 -130 -122 -34 -47 -48 -23 -20 33 32 62 105 137 159 161 64 30 72
25 69 -45z m813 41 c18 -27 13 -62 -17 -117 -18 -33 -26 -37 -82 -47 -33 -6
-69 -13 -79 -17 -15 -7 -16 -4 -6 21 6 16 8 45 5 64 -6 41 11 67 64 99 48 29
95 28 115 -3z m-733 -17 c18 -24 32 -119 18 -119 -5 0 -20 34 -34 76 -25 76
-20 91 16 43z m-2093 -10 c6 -18 11 -33 11 -34 0 -2 -12 -6 -26 -9 -31 -8 -54
8 -54 39 0 27 8 35 36 35 16 0 25 -9 33 -31z m2565 7 c72 -30 85 -97 36 -183
-16 -28 -34 -54 -40 -58 -13 -8 -13 26 1 62 27 69 2 133 -51 133 -27 0 -105
-44 -129 -73 -16 -20 -51 -22 -51 -3 0 20 85 95 133 117 51 22 58 23 101 5z
m-495 -100 c12 -44 21 -83 21 -87 0 -4 -29 -28 -65 -54 -36 -27 -65 -52 -65
-57 0 -5 25 10 55 33 78 58 89 51 83 -54 -4 -64 -11 -94 -32 -137 -31 -60 -92
-140 -107 -140 -18 0 -8 28 22 59 58 61 105 203 80 240 -15 23 -76 -22 -113
-84 -19 -32 -35 -50 -39 -43 -9 15 11 70 30 85 9 6 13 14 9 18 -3 4 9 39 28
79 22 46 38 101 46 154 7 45 15 79 19 74 4 -4 17 -43 28 -86z m1146 36 c22
-21 48 -47 59 -59 l18 -22 -101 -50 c-55 -28 -106 -51 -111 -51 -11 0 -56 48
-73 77 -18 29 5 26 33 -5 33 -37 71 -42 110 -15 54 37 63 71 30 113 -20 26
-26 50 -12 50 4 0 26 -17 47 -38z m-1268 -61 c-5 -60 -41 -144 -75 -174 -19
-17 -20 -17 -47 29 l-28 48 23 43 c27 51 106 127 122 117 6 -4 9 -28 5 -63z
m599 44 c29 -44 -1 -145 -43 -145 -28 0 -91 -25 -114 -46 -15 -13 -17 -9 -23
48 -7 71 3 88 83 139 55 36 76 36 97 4z m618 -62 c-12 -16 -33 -32 -47 -37
-22 -8 -31 -6 -52 14 -34 32 -32 44 18 79 l42 30 30 -30 29 -29 -20 -27z
m-3131 64 c3 -7 -3 -24 -13 -37 -15 -21 -20 -22 -34 -11 -16 14 -21 42 -9 54
11 12 51 7 56 -6z m3003 -6 c-4 -5 -45 -35 -92 -66 -67 -44 -89 -54 -95 -43
-12 19 -11 22 14 45 29 27 77 51 124 62 52 12 55 12 49 2z m-746 -27 c43 -36
61 -77 62 -135 0 -36 -6 -59 -24 -84 -12 -19 -25 -35 -28 -35 -3 0 -5 36 -5
81 0 77 -1 82 -29 106 -34 29 -76 26 -112 -8 -25 -23 -44 -18 -44 11 0 30 85
88 132 89 9 1 30 -11 48 -25z m-2209 -5 c20 -10 20 -11 3 -30 -22 -25 -41 -24
-49 1 -12 36 9 49 46 29z m1657 -77 c73 -88 164 -263 188 -362 14 -54 16 -98
10 -255 -3 -104 -10 -206 -14 -225 -8 -33 -9 -30 -16 35 -10 93 -67 312 -104
400 -50 121 -119 213 -190 257 -21 12 -39 23 -41 25 -6 4 92 203 99 203 3 -1
33 -36 68 -78z m1077 13 c29 -28 31 -40 8 -49 -9 -4 -25 2 -38 14 -29 27 -59
25 -134 -10 -35 -17 -66 -29 -68 -26 -12 12 28 51 72 72 67 32 128 32 160 -1z
m223 -77 c-3 -8 -190 -98 -203 -98 0 0 -9 16 -19 35 -23 43 -14 56 17 27 29
-28 49 -28 97 -1 48 27 63 56 44 90 -24 44 -14 45 27 1 22 -23 39 -48 37 -54z
m-2970 39 c3 -38 3 -38 -30 -35 -26 2 -34 8 -36 27 -3 16 3 30 14 38 31 22 49
12 52 -30z m1533 20 c-10 -9 -11 -8 -5 6 3 10 9 15 12 12 3 -3 0 -11 -7 -18z
m661 6 c14 -13 18 -31 18 -95 0 -77 0 -78 -25 -78 -33 0 -86 -22 -104 -43 -7
-10 -17 -17 -21 -17 -7 0 -7 105 -1 182 0 9 13 29 28 43 32 29 78 33 105 8z
m692 -25 c13 -21 -11 -50 -55 -69 -27 -11 -33 -10 -50 8 l-21 20 44 32 c46 34
65 36 82 9z m-176 -20 c2 -13 -19 -32 -75 -68 l-78 -50 -13 32 c-17 41 -9 56
49 86 52 27 112 27 117 0z m-1398 -28 c-12 -16 -24 -30 -26 -30 -3 0 4 14 16
30 12 17 24 30 26 30 3 0 -4 -13 -16 -30z m1182 -7 c37 -38 45 -78 23 -103
-24 -27 -35 -25 -35 4 0 24 -50 76 -72 76 -26 0 -82 -37 -117 -76 -31 -36 -41
-41 -50 -30 -9 11 -1 25 36 66 61 68 98 90 149 90 31 0 46 -6 66 -27z m-2492
-25 c24 -40 24 -40 0 -55 -42 -27 -87 31 -54 68 23 26 31 24 54 -13z m1475 -8
c-9 -16 -18 -30 -21 -30 -2 0 2 14 11 30 9 17 18 30 21 30 2 0 -2 -13 -11 -30z
m1248 -28 l18 -31 -47 -20 c-58 -26 -59 -26 -40 1 9 12 16 34 16 49 0 49 24
50 53 1z m-1454 9 c-97 -137 -378 -564 -388 -588 -20 -48 -7 -96 36 -133 29
-26 42 -31 66 -26 39 8 57 24 106 99 67 104 71 105 37 17 -18 -47 -41 -107
-50 -133 -25 -66 -49 -80 -136 -75 -63 3 -73 7 -106 38 -20 19 -45 54 -56 78
l-19 43 48 53 c26 29 142 186 256 349 115 163 211 297 214 297 3 0 -1 -9 -8
-19z m708 -37 c-4 -38 -16 -73 -38 -110 -39 -64 -56 -73 -69 -38 -14 36 -12
60 6 97 18 36 83 107 97 107 6 0 7 -24 4 -56z m472 20 c34 -43 27 -58 -53
-113 -94 -65 -106 -69 -106 -41 0 12 -5 30 -10 41 -14 26 8 67 57 107 48 39
85 41 112 6z m199 -6 c-6 -16 -67 -58 -84 -58 -26 0 -14 19 29 44 47 29 61 32
55 14z m-1092 -34 c98 -75 173 -231 229 -472 24 -109 42 -221 33 -212 -3 3
-18 48 -33 100 -36 126 -104 262 -162 329 -52 59 -127 101 -183 101 -56 0 -65
11 -44 51 9 19 33 58 52 87 39 58 50 60 108 16z m-1506 1 c23 -24 23 -25 5
-45 -23 -25 -33 -25 -62 2 l-23 22 22 23 c27 29 29 29 58 -2z m2160 -20 c27
-14 70 -79 70 -106 0 -15 -39 -69 -51 -69 -5 0 -9 18 -9 40 0 81 -76 108 -137
48 l-33 -32 0 25 c0 32 24 66 64 90 38 23 58 24 96 4z m348 -25 c7 0 11 -4 8
-9 -8 -12 -52 -19 -67 -11 -18 12 1 32 25 26 11 -3 27 -6 34 -6z m-2449 -14
c14 -17 4 -66 -14 -66 -22 0 -38 28 -31 55 7 28 27 33 45 11z m1905 -57 c-25
-28 -28 -17 -7 26 16 33 18 35 21 16 2 -13 -4 -31 -14 -42z m456 40 c0 -11
-89 -54 -97 -46 -3 3 17 17 44 31 57 30 53 29 53 15z m-2290 -18 c0 -5 -5 -22
-10 -36 -9 -23 -13 -25 -25 -15 -8 7 -15 23 -15 36 0 19 5 24 25 24 14 0 25
-4 25 -9z m2010 -11 c13 -13 20 -33 20 -59 0 -64 -6 -71 -62 -71 -42 0 -54 -5
-80 -30 -16 -16 -31 -30 -32 -30 -7 0 13 119 22 137 17 30 71 73 93 73 10 0
28 -9 39 -20z m-185 -175 c-17 -78 -72 -201 -98 -224 -27 -22 -21 6 12 58 17
25 39 66 50 91 24 55 39 150 23 150 -14 0 -82 -67 -82 -80 0 -6 -4 -10 -9 -10
-27 0 -1 51 54 105 l60 60 3 -39 c2 -21 -4 -71 -13 -111z m-1845 60 c0 -39
-27 -56 -47 -29 -18 25 -16 41 9 58 28 20 38 12 38 -29z m1355 20 c102 -42
216 -243 264 -465 29 -133 33 -175 20 -222 l-12 -43 -18 85 c-33 161 -102 302
-194 396 -85 87 -130 108 -231 108 l-82 1 30 59 c16 32 41 70 54 83 23 23 30
25 82 18 31 -4 71 -13 87 -20z m460 -90 c-16 -62 -62 -155 -77 -155 -13 0 -10
51 7 107 14 46 69 122 80 111 3 -2 -2 -31 -10 -63z m190 25 c0 -8 -22 -29 -48
-46 -27 -18 -60 -42 -74 -55 l-25 -24 7 25 c11 37 44 88 68 105 27 19 72 16
72 -5z m-1988 -45 c12 -25 14 -38 6 -46 -28 -28 -81 28 -61 64 15 27 37 20 55
-18z m1936 -27 c-5 -7 -31 -44 -58 -81 -26 -37 -49 -66 -52 -64 -11 11 31 84
69 119 41 38 59 49 41 26z m-665 -48 c188 -94 340 -418 309 -660 -11 -85 -2
-257 18 -353 35 -170 130 -333 249 -429 68 -55 162 -109 406 -238 194 -102
263 -149 281 -192 23 -56 -14 -159 -68 -191 -30 -17 -171 -52 -179 -44 -3 2 3
20 11 40 20 49 19 160 -1 203 -28 58 -96 116 -295 249 -236 159 -302 220 -357
335 -40 83 -80 226 -102 365 -26 161 -63 331 -87 398 -50 140 -152 266 -251
309 -63 28 -175 30 -214 4 -16 -10 -28 -16 -28 -12 0 3 21 51 46 106 34 73 55
105 78 120 47 30 110 26 184 -10z m-1209 -3 c28 -31 19 -57 -20 -57 -35 0 -55
30 -39 60 14 26 32 25 59 -3z m1745 -59 c-6 -48 -23 -98 -33 -98 -3 0 -19 -21
-35 -47 -17 -25 -32 -41 -34 -34 -4 12 50 123 73 151 7 8 15 27 19 43 10 42
17 32 10 -15z m-1641 15 c11 -6 -12 -43 -26 -43 -24 0 -50 26 -44 44 5 12 13
15 34 10 16 -4 31 -9 36 -11z m67 -18 c0 -18 -5 -25 -19 -25 -11 0 -23 5 -26
10 -11 18 3 40 25 40 15 0 20 -7 20 -25z m20 -64 c5 -11 10 -26 10 -34 0 -20
-29 -30 -46 -16 -17 14 -18 56 -1 62 21 9 26 7 37 -12z m1489 -120 c-42 -74
-55 -89 -39 -45 12 29 73 125 77 120 2 -2 -15 -35 -38 -75z m-1435 28 c16 -24
12 -45 -11 -53 -39 -15 -78 29 -53 59 18 21 47 18 64 -6z m908 -21 c101 -54
187 -174 232 -325 13 -43 42 -181 65 -306 48 -262 68 -333 123 -439 54 -104
129 -173 352 -323 266 -178 306 -220 306 -322 0 -68 -17 -119 -47 -143 -23
-18 -40 -20 -149 -20 -68 0 -124 3 -124 7 0 3 6 14 14 22 8 9 21 38 27 64 23
83 -19 217 -95 304 -21 23 -94 89 -164 146 -150 122 -237 214 -280 295 -26 48
-39 99 -72 278 -47 258 -77 362 -124 425 -61 82 -180 119 -271 85 -45 -18
-125 -96 -125 -122 0 -8 -4 -14 -8 -14 -22 0 29 263 63 331 53 101 155 122
277 57z m-813 -34 c20 -19 -4 -46 -38 -42 -26 3 -38 26 -27 54 7 17 41 11 65
-12z m164 12 c3 -8 3 -17 0 -20 -16 -16 -60 5 -49 23 10 16 43 14 49 -3z m-65
-28 c-3 -25 -34 -36 -50 -20 -17 17 -1 42 27 42 22 0 26 -4 23 -22z m2162 -3
c0 -2 -11 -21 -25 -41 -14 -21 -28 -54 -31 -76 -7 -44 -10 -45 -32 -19 -10 11
-44 33 -77 50 -98 49 -29 52 76 3 3 -1 12 11 19 28 7 17 22 37 34 45 20 15 36
19 36 10z m-2066 -34 c16 -31 7 -51 -25 -51 -27 0 -42 63 -16 73 22 10 26 7
41 -22z m1996 23 c0 -5 -19 -45 -25 -52 -2 -2 -18 4 -37 14 l-33 17 35 13 c39
14 60 17 60 8z m228 0 c27 -5 50 -30 39 -41 -3 -2 -51 0 -108 4 -98 8 -102 9
-85 26 18 18 92 23 154 11z m98 -29 c7 -19 14 -44 14 -56 0 -11 3 -19 8 -17
90 46 118 53 160 42 34 -10 26 -21 -20 -27 -23 -3 -69 -19 -101 -36 -70 -36
-77 -37 -77 -13 0 11 -9 45 -20 77 -24 71 -24 65 1 65 13 0 25 -11 35 -35z
m114 0 c18 -11 20 -14 8 -15 -10 0 -33 -8 -53 -17 -19 -9 -37 -15 -39 -12 -2
2 -7 19 -11 38 l-7 34 38 -8 c21 -4 50 -13 64 -20z m-180 -38 c14 -7 26 -19
28 -27 2 -13 -18 -15 -128 -15 -133 0 -138 2 -124 39 5 13 24 16 103 16 57 0
106 -5 121 -13z m-469 -42 c-39 -45 -84 -115 -78 -122 3 -2 20 17 37 44 67 98
104 126 139 104 12 -7 4 -21 -38 -67 -29 -31 -64 -79 -78 -107 l-25 -51 -19
25 c-25 33 -33 73 -19 101 15 28 102 119 108 113 3 -2 -10 -21 -27 -40z
m-1728 17 c14 -15 15 -21 4 -36 -17 -23 -70 -18 -75 7 -8 42 42 62 71 29z
m2539 -48 c52 -55 81 -100 76 -115 -2 -7 -19 8 -38 32 -18 24 -52 63 -74 87
-28 29 -35 42 -24 42 9 0 36 -21 60 -46z m-2455 10 c2 -7 0 -22 -6 -33 -10
-18 -15 -19 -36 -9 -26 12 -33 36 -14 55 13 13 49 5 56 -13z m133 7 c0 -23
-16 -36 -25 -21 -9 14 1 40 15 40 5 0 10 -9 10 -19z m1676 5 c18 -14 16 -18
-47 -83 -36 -37 -76 -87 -88 -110 -24 -48 -35 -53 -51 -23 -14 27 26 103 94
177 51 57 61 61 92 39z m608 -41 c71 -70 91 -107 74 -135 -7 -11 -15 -20 -18
-20 -3 0 -16 19 -30 41 -14 22 -53 67 -86 99 -34 33 -59 62 -56 65 3 3 18 5
33 5 21 0 43 -14 83 -55z m-2333 29 c17 -21 0 -49 -32 -49 -18 0 -25 6 -27 24
-6 38 34 55 59 25z m2065 -20 c16 -20 27 -24 43 -19 28 9 75 -21 133 -83 57
-61 81 -107 74 -138 -4 -13 -10 -24 -14 -24 -4 0 -20 25 -36 55 -15 30 -46 71
-68 91 -85 77 -238 122 -353 104 -57 -9 -64 -6 -49 18 16 25 57 32 159 27 83
-4 92 -6 111 -31z m193 -30 c29 -26 66 -67 83 -91 26 -38 29 -49 19 -69 -15
-33 -24 -30 -44 11 -21 44 -85 114 -137 150 -44 30 -44 45 0 45 19 0 44 -14
79 -46z m-489 15 c0 -7 -22 -33 -48 -59 -26 -26 -59 -70 -72 -98 -16 -34 -31
-52 -42 -52 -26 0 -22 19 17 86 51 86 145 166 145 123z m-1423 -50 c40 -15 91
-67 119 -122 29 -55 64 -201 93 -377 44 -273 96 -365 302 -530 195 -157 263
-233 292 -325 28 -91 29 -116 3 -172 -30 -63 -45 -68 -141 -53 -69 11 -183 38
-197 46 -4 3 7 18 25 34 29 26 32 34 32 87 0 36 -7 72 -19 95 -10 20 -80 102
-156 182 -75 79 -149 165 -164 191 -20 33 -34 84 -51 173 -34 189 -52 257 -81
314 -54 106 -102 148 -169 148 -73 0 -143 -53 -160 -123 -4 -15 -12 -30 -17
-33 -19 -12 -4 294 16 340 24 58 64 106 100 122 37 16 134 18 173 3z m1187
-135 c13 -11 32 -24 42 -30 17 -10 16 -13 -16 -29 -19 -10 -58 -42 -87 -72
-39 -40 -53 -49 -54 -36 -3 36 3 49 44 92 25 25 37 45 30 48 -6 2 -23 20 -38
39 -24 32 -25 38 -15 70 l12 36 29 -50 c15 -27 39 -58 53 -68z m941 56 c4 -14
-5 -29 -36 -57 -23 -21 -45 -39 -50 -41 -16 -6 -10 -22 9 -22 20 0 117 -44
125 -57 3 -4 9 -26 13 -47 l7 -40 -44 36 c-55 44 -114 76 -156 84 l-33 6 21
27 c40 50 119 131 128 131 5 0 12 -9 16 -20z m-393 -35 c65 -45 98 -118 98
-215 0 -50 -5 -83 -14 -95 -12 -17 -13 -9 -9 65 6 99 -6 156 -43 200 -68 80
-190 89 -256 18 -32 -35 -34 -47 -12 -94 22 -46 10 -55 -15 -13 -59 96 7 173
141 167 55 -3 75 -9 110 -33z m-22 -17 c49 -34 69 -66 82 -135 13 -69 -2 -167
-27 -176 -22 -9 -23 2 -4 41 44 84 7 197 -81 251 -45 27 -99 27 -133 1 -21
-17 -25 -27 -22 -55 3 -19 0 -35 -5 -35 -15 0 -24 49 -12 74 25 55 142 74 202
34z m-605 -15 l24 -28 -27 -27 c-31 -34 -43 -35 -38 -5 3 12 5 37 5 55 1 39 5
40 36 5z m1055 -28 c7 -25 11 -48 8 -50 -2 -3 -23 4 -46 15 -22 11 -46 20 -52
20 -20 0 -9 17 27 43 20 14 40 24 43 22 4 -3 13 -25 20 -50z m-430 -41 c37
-59 44 -92 30 -144 -18 -67 -119 -172 -181 -188 -48 -12 -142 7 -168 33 -15
17 -14 17 9 10 110 -31 200 -6 275 77 68 76 73 156 13 223 -16 19 -25 35 -19
35 6 0 25 -21 41 -46z m-464 -36 c0 -86 20 -131 83 -193 23 -21 41 -43 41 -47
0 -31 -76 33 -119 100 -40 62 -58 167 -34 194 9 10 19 18 23 18 3 0 6 -33 6
-72z m-53 -18 c8 -70 36 -126 92 -188 35 -39 45 -56 37 -64 -26 -26 -127 86
-164 184 -23 60 -23 87 0 104 26 20 29 18 35 -36z m791 -15 c6 -50 -8 -210
-24 -265 -5 -19 -20 -43 -33 -52 -18 -14 -19 -20 -8 -27 9 -6 11 -18 7 -35
-10 -42 -56 -137 -88 -184 -27 -39 -33 -43 -59 -37 -29 7 -29 6 -17 -21 12
-25 10 -29 -27 -62 -52 -46 -170 -122 -188 -122 -8 0 -23 11 -33 25 -26 35
-34 31 -34 -15 0 -39 0 -39 -57 -57 -43 -13 -93 -18 -189 -18 l-130 0 -85 43
c-308 154 -422 245 -517 413 -43 76 -41 87 4 19 151 -232 446 -390 728 -390
116 0 192 16 286 62 170 82 297 218 370 393 44 105 52 144 51 240 0 44 2 92 5
108 9 43 31 33 38 -18z m65 14 c22 -21 23 -26 16 -113 -6 -82 -21 -186 -28
-192 -1 -1 -17 -5 -36 -9 l-34 -7 8 38 c15 77 24 170 25 237 0 74 9 83 49 46z
m-909 -63 c14 -51 81 -149 125 -182 22 -17 23 -20 7 -26 -43 -17 -69 -8 -104
35 -43 52 -88 139 -88 169 0 28 29 73 40 61 4 -4 13 -30 20 -57z m986 -2 c7
-25 -3 -189 -13 -232 -4 -18 -10 -21 -27 -16 -30 9 -29 6 -17 81 6 37 11 100
12 140 2 67 3 71 20 62 10 -5 22 -21 25 -35z m-2210 -13 c73 -44 133 -173 160
-338 39 -247 54 -276 241 -472 145 -152 163 -179 163 -249 0 -44 -5 -57 -26
-79 -21 -21 -32 -25 -68 -21 -23 3 -70 18 -105 33 l-63 29 36 18 c28 15 36 24
36 47 0 29 -39 96 -101 171 -87 107 -124 191 -163 367 -39 174 -73 223 -154
223 -55 0 -103 -35 -122 -88 -8 -23 -17 -42 -21 -42 -12 0 -32 188 -24 237 11
78 50 138 110 171 30 17 66 14 101 -7z m2251 -130 c1 -90 -2 -113 -13 -118 -8
-3 -17 -4 -19 -2 -2 3 -1 57 2 122 4 79 10 116 17 114 7 -2 12 -45 13 -116z
m-1073 57 c14 -29 42 -72 62 -95 36 -42 33 -54 -7 -32 -29 15 -106 179 -85
179 3 0 16 -24 30 -52z m686 -53 c-6 -8 -21 -15 -33 -17 -16 -2 -23 -11 -25
-34 -2 -18 -11 -39 -20 -47 -16 -15 -17 -11 -13 46 1 34 7 64 12 67 4 3 26 4
49 2 32 -3 38 -7 30 -17z m-100 -40 c0 -21 -67 -62 -123 -75 -75 -16 -167 3
-167 36 0 11 5 14 18 9 44 -17 112 -27 144 -21 19 3 52 20 74 36 44 33 54 36
54 15z m80 -6 c-7 -11 -14 -18 -17 -15 -8 8 5 36 17 36 7 0 7 -6 0 -21z m-381
-42 c6 -24 20 -56 32 -71 26 -33 19 -43 -20 -26 -18 7 -34 24 -40 41 -11 33
-12 33 -80 17 -44 -10 -53 -9 -78 8 l-28 18 54 8 c29 5 72 17 95 27 22 11 44
20 47 20 4 1 12 -18 18 -42z m289 -9 c-9 -28 -220 -77 -243 -58 -8 7 -15 15
-15 19 0 3 37 6 83 6 64 0 91 5 122 21 48 26 58 28 53 12z m479 -55 c18 -23 7
-34 -23 -23 -29 12 -94 13 -79 2 29 -21 68 -133 58 -170 -5 -21 -11 -15 -44
49 -23 45 -57 90 -85 116 -45 40 -46 42 -23 47 75 17 176 6 196 -21z m-807
-14 c0 -15 -5 -15 -40 -7 -48 13 -51 22 -7 35 34 10 47 2 47 -28z m275 11
c-51 -23 -140 -40 -157 -29 -9 6 -5 9 12 10 14 0 54 8 90 18 85 24 105 24 55
1z m-1700 -22 c38 -17 62 -71 90 -200 39 -184 58 -225 163 -368 81 -111 104
-153 96 -174 -10 -26 -73 -19 -144 15 -64 31 -65 32 -36 40 55 16 62 66 16
125 -97 128 -119 163 -135 219 -35 128 -68 175 -124 175 -26 0 -40 -21 -50
-71 l-8 -44 -11 40 c-17 58 -15 151 4 191 27 56 84 77 139 52z m2075 -102
c-29 -83 -82 -196 -92 -196 -8 0 -41 20 -77 46 -1 2 8 18 22 36 27 35 90 162
100 200 l6 22 30 -28 29 -28 -18 -52z m147 80 c10 -9 10 -20 1 -49 -11 -36
-28 -51 -28 -24 0 7 -9 30 -20 52 -11 22 -20 41 -20 42 0 7 56 -10 67 -21z
m-103 -185 c-29 -76 -64 -141 -78 -141 -5 0 -17 7 -27 16 -17 16 -17 19 12 75
26 52 48 105 73 174 6 17 10 15 25 -20 18 -39 18 -41 -5 -104z m46 3 c0 -13
-14 -53 -31 -87 -45 -89 -60 -110 -71 -99 -6 6 7 44 36 102 25 51 46 99 46
107 0 8 5 11 10 8 6 -3 10 -17 10 -31z m-2204 2 c22 -15 41 -60 68 -157 11
-39 39 -87 91 -159 85 -116 92 -140 42 -140 -54 0 -117 48 -171 130 -66 100
-84 143 -91 226 -10 101 11 135 61 100z m1982 -97 c64 -42 112 -91 112 -114 0
-7 -7 -18 -15 -25 -12 -10 -16 -8 -24 11 -10 27 -48 65 -56 57 -3 -3 8 -20 25
-38 38 -40 38 -59 0 -95 l-30 -28 7 68 c5 50 3 66 -5 61 -7 -4 -12 -33 -12
-71 0 -57 -4 -69 -28 -96 l-28 -31 4 134 c3 105 1 141 -11 171 -9 20 -12 37
-8 37 5 0 36 -18 69 -41z m-68 -21 c0 -13 3 -39 6 -58 6 -34 4 -37 -48 -72
-30 -19 -73 -45 -96 -57 l-42 -22 -25 28 c-13 15 -24 33 -24 38 -1 6 22 23 50
40 28 16 76 51 107 77 31 26 60 48 65 48 4 0 7 -10 7 -22z m-190 -245 c40 -84
48 -137 25 -163 -26 -29 -30 -25 -30 28 0 44 -32 142 -46 142 -4 0 -10 -21
-14 -47 -4 -27 -18 -83 -31 -126 -23 -70 -28 -79 -64 -97 -22 -11 -40 -17 -40
-13 0 3 12 35 26 70 42 106 71 240 74 337 0 28 63 -55 100 -131z m196 75 c-4
-30 -14 -57 -24 -65 -39 -31 -100 -72 -111 -75 -6 -2 -20 16 -31 40 l-19 42
50 28 c28 15 67 39 87 54 21 15 41 27 46 27 5 1 5 -22 2 -51z m-319 -39 c-3
-23 -9 -45 -14 -50 -5 -5 -40 -18 -79 -29 -64 -18 -71 -18 -94 -2 -14 9 -48
30 -77 48 l-52 31 97 7 c53 3 120 13 147 20 78 22 78 22 72 -25z m313 -43 c0
-25 -28 -62 -73 -95 -30 -23 -57 -41 -60 -41 -4 0 -7 10 -7 23 0 16 18 36 63
69 58 43 77 54 77 44z m-213 -121 l5 -62 -37 -22 c-21 -12 -39 -20 -42 -18 -2
3 8 39 22 82 14 43 25 87 25 99 1 46 22 -16 27 -79z m-117 81 c0 -14 -44 -143
-52 -153 -19 -23 -33 -14 -35 23 -1 19 -11 50 -22 69 l-20 34 47 15 c47 14 82
19 82 12z m-74 -218 c-14 -31 -56 -60 -56 -37 0 11 61 81 66 76 3 -2 -2 -20
-10 -39z"/>
<path d="M3505 7374 c-134 -40 -189 -66 -218 -106 -19 -26 -19 -28 -3 -53 16
-24 22 -26 69 -23 29 3 88 14 132 25 44 12 109 27 145 34 76 15 110 43 110 89
0 17 -5 40 -10 51 -16 29 -85 24 -225 -17z m213 -26 c3 -43 1 -48 -25 -61 -15
-8 -55 -20 -88 -26 -33 -6 -108 -24 -168 -39 -82 -20 -112 -24 -125 -16 -43
27 -19 71 57 105 76 34 274 89 311 86 34 -2 35 -3 38 -49z"/>
<path d="M3530 7173 c-89 -17 -199 -47 -231 -64 -67 -34 -60 -90 14 -110 93
-25 329 16 362 64 19 27 19 67 1 92 -13 19 -92 29 -146 18z m124 -19 c27 -10
21 -80 -8 -99 -53 -35 -288 -59 -350 -35 -44 16 -35 52 22 79 82 41 287 74
336 55z"/>
<path d="M3297 6940 c-57 -10 -94 -32 -109 -65 -16 -36 10 -71 59 -78 43 -7
325 7 341 17 5 3 17 22 27 41 15 32 15 39 2 59 -13 20 -27 24 -99 29 -101 8
-157 7 -221 -3z m298 -23 c18 -14 17 -44 -4 -76 -13 -20 -92 -29 -241 -30
-133 -1 -150 4 -150 44 0 28 30 55 72 65 60 14 302 12 323 -3z"/>
<path d="M3400 6743 c-119 -9 -180 -24 -200 -50 -28 -36 -26 -79 5 -99 22 -14
46 -16 159 -12 200 8 251 42 194 128 -25 38 -48 42 -158 33z m144 -35 c22 -31
20 -75 -4 -88 -10 -6 -68 -15 -127 -21 -174 -18 -227 -4 -215 57 7 40 44 56
140 64 168 14 189 12 206 -12z"/>
<path d="M3286 6541 c-42 -9 -76 -41 -76 -71 0 -10 9 -28 19 -41 18 -22 26
-24 113 -24 97 1 159 20 181 56 13 22 1 65 -20 74 -28 11 -174 15 -217 6z
m206 -16 c28 -11 33 -45 11 -67 -25 -25 -80 -37 -166 -38 -84 0 -107 11 -107
50 0 34 22 50 85 61 43 8 150 4 177 -6z"/>
<path d="M3302 6350 c-72 -30 -12 -130 78 -130 57 0 107 18 125 46 22 33 16
66 -15 81 -29 15 -154 16 -188 3z m197 -24 c25 -30 -26 -82 -84 -87 -58 -4
-80 1 -108 26 -31 30 -33 38 -11 59 21 22 186 23 203 2z"/>
<path d="M3423 6185 c-70 -30 -24 -96 68 -97 46 0 69 15 69 48 0 46 -81 75
-137 49z m97 -20 c34 -18 37 -27 14 -49 -18 -19 -49 -20 -92 -5 -39 13 -47 34
-19 54 27 19 60 19 97 0z"/>
<path d="M3547 6053 c-13 -12 -7 -51 9 -57 46 -18 84 7 64 43 -10 20 -58 30
-73 14z m52 -12 c17 -11 7 -41 -12 -41 -19 0 -40 26 -32 40 8 12 25 13 44 1z"/>
<path d="M4605 7155 c-29 -30 -35 -43 -35 -80 0 -82 81 -142 152 -112 50 21
78 61 78 111 0 69 -51 116 -124 116 -27 0 -44 -8 -71 -35z m136 -1 c60 -41 63
-112 7 -159 -52 -44 -125 -28 -153 32 -29 60 -7 117 55 142 38 15 51 13 91
-15z"/>
<path d="M4614 7129 c-14 -15 -16 -24 -8 -37 14 -22 41 -27 59 -12 19 16 19
35 -1 54 -20 21 -27 20 -50 -5z m43 -15 c9 -23 -13 -40 -32 -24 -12 10 -13 16
-4 26 15 18 28 18 36 -2z"/>
<path d="M6013 6730 c-60 -36 -82 -115 -41 -144 49 -35 120 -9 153 54 20 39
19 66 -5 90 -25 25 -66 25 -107 0z m105 -39 c4 -42 -20 -79 -64 -97 -29 -12
-39 -13 -62 -1 -72 35 25 166 103 137 13 -5 21 -18 23 -39z"/>
<path d="M6016 6678 c-20 -29 -20 -54 0 -62 24 -9 29 -8 57 14 23 18 25 24 15
45 -14 32 -51 33 -72 3z m60 -27 c-14 -23 -43 -31 -56 -16 -9 11 -7 18 10 35
20 20 24 21 37 7 9 -8 12 -20 9 -26z"/>
<path d="M4197 6482 c-22 -24 -21 -45 3 -67 18 -17 21 -17 45 -1 31 20 32 50
3 70 -28 20 -31 20 -51 -2z m51 -30 c4 -29 -26 -42 -44 -18 -17 24 -6 48 20
44 13 -2 22 -12 24 -26z"/>
<path d="M2918 5939 c-33 -19 -18 -121 24 -171 50 -58 108 -36 108 42 0 53
-23 96 -63 120 -36 22 -45 24 -69 9z m82 -39 c68 -72 33 -194 -38 -132 -24 21
-42 73 -42 123 0 35 3 39 26 39 16 0 37 -12 54 -30z"/>
<path d="M3116 5864 c-25 -24 -20 -78 10 -114 22 -26 33 -31 63 -28 33 3 36 6
39 37 5 46 -15 89 -49 106 -35 19 -44 19 -63 -1z m72 -25 c11 -11 22 -34 26
-50 16 -82 -61 -80 -93 2 -23 61 25 94 67 48z"/>
<path d="M3308 5839 c-51 -29 8 -144 69 -137 25 3 28 7 31 46 3 36 -1 47 -27
72 -31 32 -45 36 -73 19z m47 -15 c31 -12 59 -94 36 -108 -19 -12 -62 15 -77
48 -25 52 -7 78 41 60z"/>
<path d="M3475 5650 c-311 -35 -415 -76 -415 -166 0 -74 94 -135 234 -153 131
-16 453 12 559 48 174 60 230 133 156 201 -54 49 -144 71 -309 75 -80 2 -181
0 -225 -5z m305 -10 c112 -15 177 -37 217 -74 30 -27 35 -37 29 -59 -14 -55
-168 -124 -331 -147 -125 -17 -352 -23 -424 -11 -119 20 -194 75 -194 142 0
79 130 120 473 148 146 12 146 12 230 1z"/>
<path d="M3382 5580 c-115 -30 -173 -77 -143 -114 22 -26 116 -59 183 -64 102
-7 305 25 361 57 16 9 38 31 49 49 20 33 20 34 1 53 -42 42 -318 54 -451 19z
m392 -10 c52 -11 62 -23 48 -54 -26 -57 -158 -91 -352 -91 -108 0 -132 3 -172
22 -54 25 -63 51 -24 76 28 19 121 47 191 58 56 9 250 2 309 -11z"/>
<path d="M3403 5530 c-65 -39 -30 -60 101 -60 101 0 140 9 149 34 13 34 -20
46 -121 46 -79 0 -103 -4 -129 -20z m226 1 c8 -5 11 -16 8 -25 -5 -13 -26 -16
-128 -16 -91 0 -120 3 -117 12 10 29 200 52 237 29z"/>
<path d="M4212 4428 c-7 -7 -12 -18 -12 -24 0 -17 39 -29 52 -16 13 13 1 52
-16 52 -6 0 -17 -5 -24 -12z m33 -17 c7 -12 -12 -24 -25 -16 -11 7 -4 25 10
25 5 0 11 -4 15 -9z"/>
<path d="M4051 4426 c-19 -23 -4 -56 25 -56 28 0 42 25 27 49 -14 22 -37 25
-52 7z m45 -17 c3 -6 1 -16 -4 -21 -13 -13 -45 8 -36 23 7 12 31 11 40 -2z"/>
<path d="M4362 4428 c-18 -18 -14 -46 7 -58 15 -7 23 -6 35 6 20 20 20 27 -2
47 -22 20 -25 20 -40 5z m38 -22 c0 -20 -19 -31 -32 -18 -6 6 -7 15 -4 21 10
16 36 13 36 -3z"/>
<path d="M4521 4396 c-14 -17 -12 -48 4 -53 6 -2 20 3 30 11 20 15 20 15 -1
36 -18 19 -22 19 -33 6z m29 -27 c0 -5 -7 -9 -15 -9 -15 0 -20 12 -9 23 8 8
24 -1 24 -14z"/>
<path d="M4974 4310 c-50 -20 -70 -93 -38 -138 36 -52 113 -50 145 2 26 43 24
70 -8 105 -31 34 -67 45 -99 31z m76 -20 c28 -15 40 -61 25 -97 -14 -33 -32
-43 -75 -43 -33 0 -70 40 -70 75 0 36 37 75 71 75 17 0 39 -4 49 -10z"/>
<path d="M4985 4247 c-20 -16 -15 -44 11 -54 23 -9 51 23 38 44 -14 23 -27 26
-49 10z m39 -15 c8 -13 -11 -35 -23 -28 -16 10 -14 36 3 36 8 0 17 -4 20 -8z"/>
<path d="M4819 4294 c-11 -14 -10 -18 5 -29 24 -18 46 -8 46 21 0 28 -30 33
-51 8z m41 -9 c0 -8 -7 -15 -15 -15 -16 0 -20 12 -8 23 11 12 23 8 23 -8z"/>
<path d="M5135 4154 c-18 -19 -4 -44 25 -44 23 0 34 28 19 46 -15 18 -24 18
-44 -2z m35 -14 c0 -5 -7 -10 -15 -10 -8 0 -15 5 -15 10 0 6 7 10 15 10 8 0
15 -4 15 -10z"/>
<path d="M5258 4109 c-54 -40 -45 -134 15 -165 65 -34 137 12 137 88 0 81 -88
125 -152 77z m122 -26 c43 -54 5 -133 -64 -133 -54 1 -92 48 -81 101 14 62
105 82 145 32z"/>
<path d="M5290 4055 c-14 -17 -5 -51 16 -59 33 -13 63 34 38 58 -19 20 -38 20
-54 1z m50 -20 c0 -21 -30 -31 -40 -14 -11 17 -3 29 21 29 10 0 19 -7 19 -15z"/>
<path d="M5450 3915 c-16 -20 -6 -45 19 -45 23 0 32 18 19 43 -11 21 -22 22
-38 2z m30 -20 c0 -8 -4 -15 -9 -15 -13 0 -22 16 -14 24 11 11 23 6 23 -9z"/>
<path d="M5517 3830 c-64 -51 -71 -122 -18 -179 57 -61 163 -31 191 54 31 93
-97 185 -173 125z m128 -24 c48 -48 41 -116 -15 -156 -42 -30 -77 -25 -116 14
-26 26 -34 42 -34 71 0 82 108 128 165 71z"/>
<path d="M5559 3767 c-25 -20 -29 -44 -10 -61 21 -19 43 -20 59 -4 17 17 15
42 -6 61 -22 20 -22 20 -43 4z m41 -22 c15 -18 5 -35 -20 -35 -23 0 -32 13
-24 34 8 20 28 21 44 1z"/>
<path d="M5634 3565 c-8 -21 2 -45 19 -45 8 0 20 7 27 15 10 12 10 18 0 30 -7
8 -19 15 -27 15 -7 0 -16 -7 -19 -15z m36 -15 c0 -5 -7 -10 -15 -10 -8 0 -15
5 -15 10 0 6 7 10 15 10 8 0 15 -4 15 -10z"/>
<path d="M4677 4369 c-21 -12 -22 -42 -2 -59 12 -10 18 -10 30 0 32 26 7 78
-28 59z m33 -23 c0 -20 -19 -31 -32 -18 -6 6 -7 15 -4 21 10 16 36 13 36 -3z"/>
</g>
</svg>
