<?xml version="1.0" encoding="UTF-8" standalone="no"?>
<svg
   xmlns:dc="http://purl.org/dc/elements/1.1/"
   xmlns:cc="http://creativecommons.org/ns#"
   xmlns:rdf="http://www.w3.org/1999/02/22-rdf-syntax-ns#"
   xmlns:svg="http://www.w3.org/2000/svg"
   xmlns="http://www.w3.org/2000/svg"
   xmlns:sodipodi="http://sodipodi.sourceforge.net/DTD/sodipodi-0.dtd"
   xmlns:inkscape="http://www.inkscape.org/namespaces/inkscape"
   version="1.0"
   width="850.000000pt"
   height="850.000000pt"
   viewBox="0 0 850.000000 850.000000"
   preserveAspectRatio="xMidYMid meet"
   id="svg2"
   inkscape:version="0.91 r13725"
   sodipodi:docname="Ocean_2018916_10.svg">
  <defs
     id="defs576" />
  <sodipodi:namedview
     pagecolor="#ffffff"
     bordercolor="#666666"
     borderopacity="1"
     objecttolerance="10"
     gridtolerance="10"
     guidetolerance="10"
     inkscape:pageopacity="0"
     inkscape:pageshadow="2"
     inkscape:window-width="1920"
     inkscape:window-height="979"
     id="namedview574"
     showgrid="false"
     inkscape:zoom="1.7769412"
     inkscape:cx="615.23441"
     inkscape:cy="269.07508"
     inkscape:window-x="0"
     inkscape:window-y="1"
     inkscape:window-maximized="1"
     inkscape:current-layer="svg2" />
  <metadata
     id="metadata4">
Created by potrace 1.14, written by Peter Selinger 2001-2017
<rdf:RDF>
  <cc:Work
     rdf:about="">
    <dc:format>image/svg+xml</dc:format>
    <dc:type
       rdf:resource="http://purl.org/dc/dcmitype/StillImage" />
  </cc:Work>
</rdf:RDF>
</metadata>
  <g
     transform="translate(0.000000,850.000000) scale(0.100000,-0.100000)"
     fill="#000000"
     stroke="none"
     id="g6">
    <path
       d="M0 4250 l0 -4250 4250 0 4250 0 0 4250 0 4250 -4250 0 -4250 0 0 -4250z m4525 3415 c88 -3 170 -8 182 -11 17 -5 24 -18 32 -55 14 -64 14 -163 0 -213 -9 -33 -8 -44 12 -80 20 -39 21 -45 7 -73 l-15 -29 79 -12 c185 -27 321 -131 491 -376 118 -170 235 -321 280 -363 110 -101 222 -153 341 -156 l71 -2 27 105 c14 58 29 143 33 190 4 47 9 88 12 92 2 4 36 -19 74 -52 84 -70 220 -139 344 -175 50 -14 200 -48 335 -75 135 -27 283 -61 330 -76 89 -28 219 -88 259 -121 l24 -19 -44 -32 c-96 -71 -184 -214 -243 -393 -31 -94 -52 -201 -73 -362 l-8 -59 -50 63 c-114 143 -258 201 -675 274 -260 46 -412 99 -504 178 l-38 33 75 151 c41 83 79 165 85 182 l11 31 -55 0 c-70 0 -187 39 -261 86 -112 71 -187 158 -411 474 -106 148 -178 229 -258 286 -65 46 -177 93 -224 94 -23 0 -22 -3 20 -46 25 -25 92 -83 151 -129 119 -94 169 -145 199 -206 24 -47 36 -129 26 -183 -8 -42 -26 -48 -26 -8 0 49 -16 56 -28 14 -7 -22 -19 -45 -27 -52 -17 -14 -17 -14 -15 63 2 92 -30 147 -157 264 -58 54 -120 120 -139 148 -19 27 -34 43 -34 35 1 -40 63 -293 100 -401 94 -283 219 -470 425 -637 44 -36 166 -121 270 -190 272 -178 401 -279 554 -427 157 -152 267 -286 396 -480 264 -396 413 -779 470 -1210 33 -245 18 -590 -36 -855 -90 -442 -305 -909 -569 -1236 -142 -176 -410 -414 -627 -557 -297 -196 -688 -345 -1025 -391 -390 -54 -808 -37 -1126 45 -118 30 -319 102 -474 169 -200 87 -470 269 -688 465 -244 219 -426 462 -575 769 -326 668 -397 1345 -211 1992 134 467 429 952 792 1304 143 139 254 226 474 373 404 270 528 392 653 643 73 145 145 391 182 617 17 102 17 111 2 137 -20 33 -22 82 -5 113 7 14 12 75 13 162 1 77 4 147 9 156 5 12 28 19 84 24 102 10 413 22 482 18 30 -1 127 -5 215 -8z"
       id="path8"
       style="fill:none" />
    <path
       d="M4173 7653 l-93 -4 0 -49 c0 -28 -4 -50 -10 -50 -5 0 -7 21 -3 52 l6 51 -78 -6 c-43 -4 -91 -7 -107 -7 -26 0 -28 -3 -28 -37 0 -21 -5 -45 -10 -53 -7 -11 -10 -1 -10 36 l0 51 -37 -6 c-32 -5 -39 -11 -44 -36 -9 -41 -10 -153 -3 -209 l7 -46 77 0 78 0 10 63 9 62 2 -62 1 -63 120 0 119 0 4 58 3 57 2 -57 2 -58 110 0 109 0 4 63 3 62 2 -62 2 -63 110 0 110 0 0 70 c0 40 4 70 10 70 6 0 10 -30 10 -70 0 -63 2 -70 20 -70 27 0 40 29 47 104 8 87 -4 174 -26 185 -9 5 -46 11 -81 12 l-65 3 -6 -70 -5 -69 -2 73 -2 72 -104 0 -104 0 -6 -62 c-11 -119 -13 -123 -15 -32 -1 74 -4 93 -17 98 -9 3 -19 5 -22 4 -4 -1 -49 -4 -99 -5z"
       id="path10"
       style="fill:#993300" />
    <path
       d="M3740 7301 c-12 -24 -13 -78 -1 -85 5 -4 226 -8 490 -11 411 -3 483 -2 495 11 25 24 29 53 12 79 l-16 25 -485 0 c-469 0 -485 -1 -495 -19z"
       id="path12"
       style="fill:#330066" />
    <path
       d="M3803 7183 c-24 -2 -43 -6 -43 -9 0 -3 7 -21 16 -42 l15 -37 35 40 c33 39 42 57 27 53 -5 -1 -27 -3 -50 -5z"
       id="path14"
       style="fill:#993300" />
    <path
       d="M3890 7180 c0 -5 -6 -10 -13 -10 -8 0 -28 -20 -46 -45 l-32 -45 33 -14 33 -14 6 56 6 57 1 -57 c1 -33 7 -58 13 -58 9 0 48 17 58 26 2 2 -11 21 -29 44 -18 23 -30 43 -28 46 3 2 18 -14 33 -36 15 -22 31 -40 35 -40 11 0 30 48 30 75 0 23 -4 25 -50 25 -27 0 -50 -4 -50 -10z"
       id="path16"
       style="fill:#993300" />
    <path
       d="M4020 7176 c0 -21 21 -76 29 -76 8 0 71 75 71 84 0 3 -22 6 -50 6 -35 0 -50 -4 -50 -14z"
       id="path18"
       style="fill:#993300" />
    <path
       d="M4160 7173 c5 -10 23 -33 39 -51 l29 -33 11 32 c21 61 17 69 -39 69 -46 0 -50 -2 -40 -17z"
       id="path20"
       style="fill:#993300" />
    <path
       d="M4276 7181 c-4 -5 -4 -16 -1 -25 3 -9 7 -23 10 -33 5 -13 11 -11 40 17 19 19 35 38 35 42 0 11 -78 10 -84 -1z"
       id="path22"
       style="fill:#993300" />
    <path
       d="M4365 7161 c-16 -10 -39 -28 -49 -40 -18 -20 -18 -22 -1 -41 30 -33 45 -25 45 24 0 25 4 47 9 50 5 4 7 -11 4 -34 -3 -21 -3 -46 1 -55 5 -14 8 -14 36 0 16 8 30 18 30 21 0 3 -11 20 -25 38 -14 18 -25 37 -25 42 0 5 12 -8 27 -29 29 -41 39 -39 49 11 6 32 6 32 -32 32 -22 0 -52 -8 -69 -19z"
       id="path24"
       style="fill:#993300" />
    <path
       d="M4490 7158 c0 -13 5 -30 10 -38 8 -12 16 -9 47 23 l38 37 -48 0 c-42 0 -47 -2 -47 -22z"
       id="path26"
       style="fill:#993300" />
    <path
       d="M4605 7157 c-4 -13 -5 -42 -3 -65 l3 -40 34 14 33 14 -31 35 c-17 20 -31 39 -31 43 1 4 16 -11 35 -33 l34 -40 14 35 c21 48 13 60 -39 60 -37 0 -44 -3 -49 -23z"
       id="path28"
       style="fill:#993300" />
    <path
       d="M4091 7128 l-35 -41 23 -18 c39 -32 50 -25 54 39 l3 57 2 -57 c2 -64 16 -73 60 -42 l22 15 -37 45 c-21 24 -42 44 -48 44 -5 0 -25 -19 -44 -42z"
       id="path30"
       style="fill:#993300" />
    <path
       d="M4548 7130 c-33 -34 -35 -46 -9 -60 41 -21 51 -13 51 40 0 28 -3 50 -7 50 -5 -1 -20 -14 -35 -30z"
       id="path32"
       style="fill:#993300" />
    <path
       d="M4980 7109 c112 -72 182 -153 401 -463 191 -270 341 -380 537 -394 94 -6 96 13 2 22 -179 16 -340 128 -491 342 -31 43 -94 133 -140 199 -103 146 -213 259 -296 303 -83 44 -89 40 -13 -9z"
       id="path34"
       style="fill:#cc99ff" />
    <path
       d="M4000 7126 c0 -10 -15 -33 -34 -52 -28 -28 -41 -34 -77 -34 -50 0 -104 28 -114 59 -3 12 -10 21 -15 21 -13 0 -17 -61 -6 -87 11 -26 80 -63 119 -63 36 0 99 26 114 47 12 15 16 14 42 -11 58 -56 158 -53 212 7 16 17 29 26 29 19 0 -23 63 -52 113 -52 41 0 54 5 75 28 l27 28 34 -23 c79 -53 201 -15 201 63 0 19 -2 34 -5 34 -3 0 -18 -14 -33 -31 -50 -56 -155 -47 -184 16 -14 30 -25 32 -33 5 -9 -29 -58 -60 -95 -60 -36 0 -100 55 -100 87 -1 11 -8 5 -21 -20 -22 -42 -71 -77 -109 -77 -39 0 -92 33 -111 69 -23 42 -29 48 -29 27z"
       id="path36"
       style="fill:#330066" />
    <path
       d="M4750 7127 c0 -32 62 -111 170 -217 131 -129 155 -162 170 -233 l8 -42 1 53 c1 61 14 67 32 15 9 -26 14 -32 17 -20 7 34 -30 117 -75 167 -25 28 -85 81 -132 117 -47 37 -110 89 -138 117 -29 28 -53 47 -53 43z"
       id="path38"
       style="fill:#cc99ff" />
    <path
       d="M4710 7015 c-39 -47 -120 -58 -184 -26 l-37 20 -37 -26 c-30 -20 -46 -24 -85 -20 -28 2 -61 13 -77 26 l-30 21 -20 -20 c-54 -54 -173 -52 -219 3 -12 15 -16 15 -43 -4 -57 -41 -165 -38 -212 6 l-26 24 -5 -22 c-54 -254 -98 -393 -170 -545 -125 -261 -248 -388 -615 -632 -264 -175 -375 -264 -546 -434 -597 -597 -912 -1391 -854 -2151 6 -88 14 -163 16 -167 2 -3 42 17 89 47 157 98 345 162 549 186 138 16 464 6 641 -20 130 -20 454 -76 500 -87 11 -3 -20 15 -70 40 -196 97 -320 244 -369 433 -24 90 -22 258 3 355 40 156 123 299 243 417 318 315 788 332 1228 43 120 -77 208 -160 385 -356 202 -225 277 -282 406 -306 136 -26 261 63 271 194 3 39 3 39 -44 52 -99 25 -167 83 -207 176 -26 62 -38 117 -56 258 -19 148 -36 214 -69 262 -13 20 -22 39 -19 42 14 14 252 -93 344 -155 129 -87 240 -216 255 -295 3 -19 9 -34 13 -33 3 0 20 21 36 47 54 84 133 119 242 108 34 -4 136 -29 225 -56 90 -28 191 -53 226 -57 34 -3 62 -9 62 -12 0 -4 -21 -14 -48 -23 -75 -27 -137 -74 -219 -167 -183 -205 -249 -251 -359 -251 -34 0 -81 7 -104 15 -24 8 -44 14 -46 13 -1 -2 -11 -35 -23 -73 -42 -142 -126 -290 -225 -393 -90 -96 -251 -197 -374 -237 -29 -9 -51 -19 -49 -21 2 -3 38 1 78 8 134 22 490 15 784 -16 506 -53 764 -33 1011 79 l74 34 0 140 c0 518 -189 1060 -542 1554 -98 137 -171 224 -301 356 -151 152 -260 238 -544 429 -132 88 -274 188 -315 221 -250 201 -396 460 -492 873 -28 121 -34 137 -46 123z m348 -1180 c81 -36 161 -121 192 -202 46 -122 6 -290 -91 -378 -70 -63 -140 -90 -236 -89 -73 0 -89 4 -157 37 -89 45 -146 104 -177 186 -30 81 -24 224 13 296 26 50 80 107 129 137 91 57 219 62 327 13z"
       id="path40"
       style="fill:#ff99ff" />
    <path
       d="M4813 5836 c-95 -31 -180 -112 -209 -198 -26 -79 -16 -208 21 -277 61 -111 170 -174 305 -175 63 -1 84 4 132 27 67 33 121 90 157 166 22 47 26 70 26 141 0 72 -4 93 -27 135 -33 63 -113 139 -175 167 -60 26 -172 33 -230 14z"
       id="path42"
       style="fill:#cc3300" />
    <path
       d="M6090 6621 c0 -63 -34 -224 -71 -336 -22 -66 -73 -186 -114 -267 l-74 -147 37 -29 c102 -81 214 -118 537 -177 132 -24 272 -54 310 -66 109 -33 222 -96 288 -161 32 -32 61 -58 63 -58 2 0 4 20 4 44 0 120 65 348 143 501 39 76 68 118 122 173 l72 73 -61 33 c-119 66 -247 103 -573 167 -322 63 -468 116 -611 224 l-72 54 0 -28z m487 -327 c3 -8 0 -27 -6 -41 l-12 -25 31 26 c18 14 35 26 40 26 12 0 20 -29 10 -35 -6 -4 -10 -11 -10 -17 0 -6 8 -4 18 5 20 19 38 22 46 9 7 -11 -62 -142 -75 -142 -5 0 -9 2 -9 5 0 11 43 90 58 108 8 9 11 17 6 17 -11 0 -73 -63 -96 -98 -9 -13 -18 -19 -22 -14 -3 5 12 39 34 75 21 37 35 67 31 67 -10 0 -65 -60 -98 -105 -35 -49 -37 -22 -2 36 36 62 52 99 41 99 -4 0 -15 -12 -23 -26 -9 -15 -19 -22 -22 -16 -7 11 29 62 44 62 5 0 12 -7 16 -16z m123 -139 c0 -3 -7 -17 -16 -31 -26 -39 -5 -43 27 -4 36 44 37 32 3 -26 -29 -49 -54 -67 -78 -58 -25 10 -18 25 8 18 30 -7 44 13 21 30 -17 12 -17 14 1 44 16 28 34 42 34 27z m-416 -133 l-2 -31 29 21 c22 17 32 19 41 10 9 -9 7 -17 -8 -34 l-19 -22 28 18 c16 9 35 15 44 12 12 -5 7 -19 -23 -76 -21 -38 -42 -70 -46 -70 -13 0 -9 12 22 69 50 90 25 81 -51 -20 -43 -55 -42 -29 1 44 21 37 35 67 31 67 -10 0 -72 -67 -96 -104 -33 -49 -33 -15 -1 42 39 69 48 92 37 92 -5 0 -15 -10 -24 -22 -8 -13 -18 -20 -21 -17 -9 9 34 61 48 56 6 -2 10 -18 10 -35z m151 -122 c3 -5 -8 -18 -24 -28 -31 -19 -33 -35 -3 -25 14 5 15 4 4 -8 -9 -10 -17 -11 -29 -3 -25 16 -26 31 -4 53 23 23 46 27 56 11z m72 -23 c3 -4 15 -7 25 -7 20 0 24 -20 6 -38 -6 -6 -8 -15 -5 -19 4 -4 15 3 23 16 20 28 70 26 68 -2 -1 -10 3 -16 10 -14 6 2 11 9 11 15 0 20 14 24 31 8 15 -16 15 -19 -6 -42 -16 -16 -19 -24 -10 -24 11 0 11 -3 2 -12 -9 -9 -15 -9 -24 0 -9 9 -7 16 6 31 17 19 17 19 -6 13 -12 -3 -29 -12 -36 -19 -17 -17 -27 -16 -46 2 -8 9 -22 12 -32 8 -18 -7 -18 3 1 52 7 16 3 15 -22 -7 -37 -35 -50 -36 -28 -2 23 36 12 42 -20 10 -34 -34 -38 -33 -18 8 12 26 21 34 39 32 13 -2 27 -6 31 -9z m238 -17 c3 -5 1 -10 -4 -10 -6 0 -11 5 -11 10 0 6 2 10 4 10 3 0 8 -4 11 -10z m-31 -65 c-21 -32 -9 -47 12 -16 9 13 24 21 35 19 29 -4 26 -21 -7 -38 l-29 -15 25 -3 c14 -2 31 -9 38 -14 18 -15 26 -3 13 20 -8 15 -7 23 4 32 14 12 35 6 35 -10 0 -5 -7 -7 -15 -4 -17 7 -20 -7 -5 -22 18 -18 -17 -41 -40 -26 -11 6 -26 9 -35 6 -9 -4 -17 1 -21 10 -4 11 -13 14 -25 11 -11 -4 -19 -2 -19 5 0 18 30 70 40 70 6 0 3 -11 -6 -25z"
       id="path44"
       style="fill:#ccccff" />
    <path
       d="M6400 5890 c-9 -6 -10 -10 -3 -10 6 0 15 5 18 10 8 12 4 12 -15 0z"
       id="path46"
       style="fill:none" />
    <path
       d="M6575 5820 c-21 -23 -12 -39 13 -24 19 12 29 44 14 44 -5 0 -17 -9 -27 -20z"
       id="path48"
       style="fill:#ccccff" />
    <path
       d="M6745 5780 c-3 -5 -2 -10 4 -10 5 0 13 5 16 10 3 6 2 10 -4 10 -5 0 -13 -4 -16 -10z"
       id="path50"
       style="fill:none" />
    <path
       d="M5103 4743 c19 -36 41 -145 62 -296 8 -65 25 -143 36 -173 41 -109 115 -174 219 -192 l45 -8 -2 -53 c-4 -77 -45 -147 -112 -187 -63 -39 -120 -48 -192 -33 -129 27 -214 91 -395 295 -169 191 -260 277 -377 355 -390 261 -771 288 -1092 78 -236 -154 -385 -422 -385 -693 0 -183 54 -320 174 -441 250 -253 668 -314 1531 -224 239 25 387 60 519 122 114 54 167 90 252 169 112 105 200 254 249 422 25 87 25 87 90 62 56 -21 141 -20 193 4 66 30 103 63 216 190 68 76 128 133 171 161 l65 43 -57 12 c-32 7 -110 29 -173 49 -63 19 -145 41 -182 47 -156 27 -250 -44 -309 -235 -12 -38 -25 -65 -30 -60 -5 5 -2 30 6 57 22 71 19 103 -15 174 -34 73 -117 164 -205 228 -57 40 -242 135 -293 149 -23 7 -23 6 -9 -22z m-1880 -658 c50 -106 232 -109 275 -5 18 42 32 52 32 23 0 -30 -37 -81 -72 -100 -47 -25 -143 -24 -188 3 -36 21 -80 76 -80 100 0 25 16 15 33 -21z m713 -10 c48 -102 205 -104 272 -4 33 48 48 49 23 1 -48 -94 -176 -125 -267 -65 -21 13 -64 79 -64 98 0 18 22 0 36 -30z m264 -276 c0 -10 -4 -19 -10 -19 -5 0 -10 12 -10 26 0 14 4 23 10 19 6 -3 10 -15 10 -26z m-1103 -16 c-3 -10 -5 -4 -5 12 0 17 2 24 5 18 2 -7 2 -21 0 -30z m43 7 c0 -11 -4 -20 -10 -20 -5 0 -10 9 -10 20 0 11 5 20 10 20 6 0 10 -9 10 -20z m1090 -1 c0 -11 -4 -17 -10 -14 -5 3 -10 13 -10 21 0 8 5 14 10 14 6 0 10 -9 10 -21z m-584 -209 c5 0 21 11 36 25 15 14 33 25 40 25 19 -1 -59 -70 -78 -70 -20 0 -85 70 -78 82 4 5 21 -7 39 -26 18 -20 37 -36 41 -36z"
       id="path52"
       style="fill:#6666ff" />
    <path
       d="M6900 3275 c-68 -37 -218 -83 -328 -101 -152 -26 -397 -21 -712 12 -360 38 -622 38 -895 1 -924 -126 -975 -126 -1711 4 -467 82 -529 90 -764 96 -229 6 -359 -7 -518 -53 -102 -29 -250 -98 -340 -156 -59 -39 -63 -44 -58 -71 3 -16 6 -36 6 -44 0 -12 7 -10 32 7 67 44 256 130 343 155 168 48 262 59 505 59 247 0 363 -11 727 -70 523 -84 638 -97 878 -97 206 0 281 7 690 58 516 65 687 69 1115 24 276 -28 592 -31 726 -6 109 20 241 60 307 93 46 24 47 26 47 69 0 25 -1 45 -2 45 -2 -1 -23 -12 -48 -25z m-4513 -41 c-3 -3 -12 -4 -19 -1 -8 3 -5 6 6 6 11 1 17 -2 13 -5z m233 -4 c0 -5 -13 -10 -29 -10 -17 0 -33 5 -36 10 -4 6 8 10 29 10 20 0 36 -4 36 -10z m-383 -6 c-3 -3 -12 -4 -19 -1 -8 3 -5 6 6 6 11 1 17 -2 13 -5z m533 -4 c0 -5 -6 -10 -14 -10 -8 0 -18 5 -21 10 -3 6 3 10 14 10 12 0 21 -4 21 -10z m4140 0 c0 -5 -3 -10 -7 -10 -5 0 -19 -3 -33 -6 l-25 -5 25 15 c30 18 40 20 40 6z m-4835 -20 c-27 -12 -35 -12 -35 0 0 6 12 10 28 9 24 0 25 -1 7 -9z m905 -20 c0 -13 -11 -13 -30 0 -12 8 -11 10 8 10 12 0 22 -4 22 -10z m2410 0 c0 -5 -21 -10 -46 -10 -27 0 -43 4 -39 10 3 6 24 10 46 10 21 0 39 -4 39 -10z m205 -10 c3 -6 -5 -10 -19 -10 -14 0 -28 5 -31 10 -3 6 5 10 19 10 14 0 28 -4 31 -10z m1154 -4 c-12 -10 -49 -16 -49 -7 0 5 10 11 23 13 22 4 34 1 26 -6z m-4839 -16 c-16 -11 -40 -13 -40 -5 0 8 44 24 50 18 2 -2 -2 -8 -10 -13z m3195 11 c-14 -12 -85 -22 -85 -11 0 5 12 11 28 13 51 8 66 7 57 -2z m665 -7 c0 -2 -13 -4 -30 -4 -16 0 -30 4 -30 8 0 5 14 7 30 4 17 -2 30 -6 30 -8z m-2510 -14 c0 -5 -11 -10 -24 -10 -14 0 -28 5 -31 10 -4 6 7 10 24 10 17 0 31 -4 31 -10z m2705 0 c17 -7 15 -9 -12 -9 -17 -1 -35 4 -38 9 -7 12 22 12 50 0z m-1125 -15 c-43 -17 -50 -17 -50 -6 0 11 24 19 60 19 21 0 20 -1 -10 -13z m1765 5 c-3 -5 -18 -10 -33 -10 -21 0 -24 2 -12 10 20 13 53 13 45 0z m-4841 -34 c-10 -8 -21 -12 -24 -9 -3 2 4 11 14 19 11 7 22 12 25 9 2 -3 -4 -12 -15 -19z m4409 17 c-7 -2 -21 -2 -30 0 -10 3 -4 5 12 5 17 0 24 -2 18 -5z m235 0 c-10 -2 -28 -2 -40 0 -13 2 -5 4 17 4 22 1 32 -1 23 -4z m-2883 -13 c8 -13 -25 -13 -45 0 -12 8 -9 10 12 10 15 0 30 -4 33 -10z m1175 -10 c0 -5 -12 -10 -27 -10 -22 0 -25 2 -13 10 20 13 40 13 40 0z m-160 -20 c0 -5 -10 -10 -22 -10 -13 0 -33 -3 -45 -6 -13 -4 -23 -2 -23 4 0 6 15 13 33 15 17 2 38 5 45 5 6 1 12 -2 12 -8z m-817 -7 c-7 -2 -19 -2 -25 0 -7 3 -2 5 12 5 14 0 19 -2 13 -5z m197 -13 c0 -5 -9 -10 -19 -10 -11 0 -23 5 -26 10 -4 6 5 10 19 10 14 0 26 -4 26 -10z m175 0 c-3 -5 -15 -10 -26 -10 -10 0 -19 5 -19 10 0 6 12 10 26 10 14 0 23 -4 19 -10z m200 0 c-3 -5 -15 -10 -26 -10 -10 0 -19 5 -19 10 0 6 12 10 26 10 14 0 23 -4 19 -10z m-2638 -17 c-9 -9 -20 -13 -24 -9 -4 4 -1 11 7 16 25 16 35 11 17 -7z"
       id="path54"
       style="fill:#33ccff" />
    <path
       d="M6890 3164 c-158 -71 -287 -95 -542 -103 l-207 -6 67 -51 c59 -44 183 -181 194 -214 2 -8 15 -5 43 11 75 45 177 27 251 -43 l31 -29 25 33 c41 55 94 149 121 213 21 51 67 189 67 201 0 7 -14 4 -50 -12z"
       id="path56"
       style="fill:#66ccff" />
    <path
       d="M2191 3159 c-182 -23 -397 -95 -528 -176 l-33 -20 88 0 c126 -1 235 -33 363 -109 l45 -27 33 24 c28 21 44 24 116 24 78 0 86 -2 131 -33 l47 -34 23 29 c60 73 124 231 124 305 l0 28 -172 -1 c-95 -1 -202 -5 -237 -10z"
       id="path58"
       style="fill:#66ccff" />
    <path
       d="M2650 3166 c0 -2 22 -18 49 -36 79 -50 181 -165 228 -256 l43 -81 38 10 c69 18 147 -15 196 -85 l16 -22 56 54 c68 66 133 164 163 244 12 32 20 60 19 61 -19 13 -808 121 -808 111z"
       id="path60"
       style="fill:#66ccff" />
    <path
       d="M2679 3074 c47 -96 63 -167 63 -268 -1 -50 -6 -107 -12 -125 -7 -26 -7 -37 2 -42 11 -7 118 -22 135 -20 11 2 3 110 -13 181 -23 100 -77 202 -145 273 l-60 62 30 -61z"
       id="path62"
       style="fill:#66cccc" />
    <path
       d="M2634 3032 c0 -105 -22 -191 -72 -294 l-37 -77 60 -6 c33 -3 72 -8 87 -11 23 -5 30 -1 40 23 19 47 16 239 -6 303 -17 50 -63 150 -69 150 -1 0 -2 -39 -3 -88z"
       id="path64"
       style="fill:#66cccc" />
    <path
       d="M5271 3113 c-21 -4 -17 -8 35 -40 75 -45 158 -110 213 -167 l44 -45 31 17 c44 24 148 21 207 -5 25 -11 63 -38 84 -59 l38 -38 55 59 c49 52 98 138 117 202 8 28 17 27 -275 52 -246 22 -508 33 -549 24z"
       id="path66"
       style="fill:#66ccff" />
    <path
       d="M2612 3095 c-5 -42 -50 -153 -85 -207 -49 -77 -101 -133 -171 -185 l-58 -43 105 0 104 0 37 73 c50 99 78 216 73 308 -1 41 -4 65 -5 54z"
       id="path68"
       style="fill:#66cccc" />
    <path
       d="M2737 3067 c85 -97 153 -276 153 -404 0 -56 0 -56 73 -69 l38 -6 -6 38 c-25 151 -89 284 -188 390 -78 84 -136 125 -70 51z"
       id="path70"
       style="fill:#66cccc" />
    <path
       d="M5120 3103 c-46 -5 -682 -81 -739 -89 l-45 -6 35 -25 c63 -48 186 -179 223 -241 l38 -60 34 14 c71 30 196 12 266 -38 l31 -22 31 36 c56 65 128 196 162 295 39 112 42 144 17 141 -10 0 -34 -3 -53 -5z"
       id="path72"
       style="fill:#66ccff" />
    <path
       d="M5186 3009 c-55 -200 -218 -431 -380 -540 l-61 -42 40 7 c22 3 107 23 189 43 l149 37 28 62 c49 107 72 216 72 339 -1 61 -5 121 -10 133 -8 21 -11 17 -27 -39z"
       id="path74"
       style="fill:#66cccc" />
    <path
       d="M5232 3028 c5 -24 8 -92 5 -153 -5 -109 -22 -183 -66 -293 -11 -29 -21 -54 -21 -56 0 -1 51 12 113 30 l112 32 -3 72 c-2 39 -12 105 -22 148 -19 75 -105 262 -120 262 -4 0 -3 -19 2 -42z"
       id="path76"
       style="fill:#66cccc" />
    <path
       d="M5295 2988 c53 -101 84 -205 92 -316 5 -69 9 -82 22 -78 9 3 34 8 56 12 63 11 64 12 49 74 -24 95 -97 230 -164 303 -93 101 -107 102 -55 5z"
       id="path78"
       style="fill:#66cccc" />
    <path
       d="M6898 2997 c-61 -161 -200 -347 -332 -444 l-58 -43 83 0 c82 0 85 1 130 38 86 68 129 135 158 242 21 79 56 269 50 275 -2 2 -16 -29 -31 -68z"
       id="path80"
       style="fill:#66cccc" />
    <path
       d="M5347 3008 c95 -101 156 -215 186 -341 9 -42 14 -48 31 -43 12 3 35 6 51 6 57 1 60 11 24 81 -57 114 -139 207 -259 295 -84 62 -89 62 -33 2z"
       id="path82"
       style="fill:#66cccc" />
    <path
       d="M3579 2985 c74 -70 146 -169 181 -249 19 -42 22 -45 46 -36 38 15 110 12 152 -5 20 -9 53 -32 73 -51 l36 -35 60 65 c64 70 112 151 143 242 34 96 52 89 -218 89 -215 1 -449 19 -526 42 -10 3 13 -25 53 -62z"
       id="path84"
       style="fill:#66ccff" />
    <path
       d="M3549 2969 c89 -117 152 -292 154 -429 l2 -78 35 -6 c19 -3 48 -6 64 -6 27 0 28 1 21 37 -21 113 -84 267 -148 363 -32 48 -146 170 -159 170 -4 0 10 -23 31 -51z"
       id="path86"
       style="fill:#66cccc" />
    <path
       d="M6097 2993 c-27 -106 -199 -277 -340 -338 l-32 -14 45 -1 c25 0 81 -7 125 -15 78 -14 80 -14 103 7 32 31 88 148 102 212 13 64 10 202 -3 149z"
       id="path88"
       style="fill:#66cccc" />
    <path
       d="M6150 3018 c0 -3 11 -30 24 -59 38 -89 49 -152 43 -258 -3 -53 -9 -106 -12 -118 -6 -19 -2 -22 52 -33 32 -6 66 -14 76 -16 15 -5 17 3 17 65 0 94 -38 211 -95 297 -49 72 -54 95 -11 43 64 -76 115 -210 123 -327 3 -47 11 -85 17 -87 6 -2 28 -6 50 -9 l39 -5 -6 52 c-11 107 -78 238 -181 353 -32 36 -63 63 -70 61 -6 -3 -23 7 -38 21 -16 14 -28 23 -28 20z"
       id="path90"
       style="fill:#66cccc" />
    <path
       d="M6131 2959 c-1 -63 -31 -191 -57 -241 -9 -18 -30 -50 -47 -71 -16 -21 -28 -39 -26 -41 13 -10 172 -37 179 -30 12 13 30 109 30 157 0 61 -24 164 -53 227 l-25 55 -1 -56z"
       id="path92"
       style="fill:#66cccc" />
    <path
       d="M3427 2928 c-68 -136 -199 -266 -324 -320 -29 -13 -53 -25 -53 -28 0 -3 52 -16 115 -29 l116 -24 30 29 c77 74 133 207 148 351 5 48 8 89 7 91 -2 1 -19 -30 -39 -70z"
       id="path94"
       style="fill:#66cccc" />
    <path
       d="M3480 2957 c-1 -130 -62 -301 -139 -389 l-41 -46 68 -12 c37 -6 90 -14 119 -17 l52 -6 8 39 c17 80 7 243 -21 348 -34 126 -45 147 -46 83z"
       id="path96"
       style="fill:#66cccc" />
    <path
       d="M3525 2928 c13 -42 29 -106 36 -142 11 -68 8 -257 -5 -287 -6 -14 1 -18 46 -24 29 -3 62 -9 72 -12 18 -5 19 0 13 88 -3 59 -15 124 -31 174 -26 81 -101 224 -136 259 -17 18 -17 13 5 -56z"
       id="path98"
       style="fill:#66cccc" />
    <path
       d="M4287 2915 c-43 -139 -183 -312 -339 -419 l-80 -54 54 -7 c29 -4 91 -7 138 -8 l85 -2 47 79 c84 139 120 262 116 388 l-3 83 -18 -60z"
       id="path100"
       style="fill:#66cccc" />
    <path
       d="M4345 2955 c72 -199 88 -335 59 -508 l-7 -38 79 3 79 3 -3 70 c-4 90 -24 178 -61 259 -37 83 -167 271 -146 211z"
       id="path102"
       style="fill:#66cccc" />
    <path
       d="M1740 2924 c137 -41 244 -112 321 -214 22 -29 43 -59 48 -67 7 -13 16 -13 67 -2 32 7 61 14 62 15 2 1 -10 23 -27 47 -98 143 -308 247 -496 246 l-60 0 85 -25z"
       id="path104"
       style="fill:#66cccc" />
    <path
       d="M4419 2897 c86 -114 151 -297 151 -427 l0 -61 63 7 c34 4 64 8 66 10 2 2 -1 30 -8 61 -16 73 -79 209 -128 276 -43 60 -162 187 -175 187 -5 0 9 -24 31 -53z"
       id="path106"
       style="fill:#66cccc" />
    <path
       d="M4327 2859 c-9 -127 -68 -289 -146 -404 -12 -16 -21 -33 -21 -37 0 -5 49 -8 109 -8 l110 0 12 58 c16 78 6 268 -19 357 -35 126 -38 128 -45 34z"
       id="path108"
       style="fill:#66cccc" />
    <path
       d="M1675 2888 c78 -58 176 -164 232 -250 24 -37 46 -68 48 -68 5 0 138 52 143 56 8 6 -58 91 -105 136 -86 83 -211 145 -333 164 l-45 6 60 -44z"
       id="path110"
       style="fill:#66cccc" />
    <path
       d="M1596 2885 c28 -141 123 -456 143 -478 4 -4 17 3 29 16 l22 24 -23 54 c-13 30 -41 106 -62 169 -37 115 -69 187 -99 225 -16 19 -16 19 -10 -10z"
       id="path112"
       style="fill:#66cccc" />
    <path
       d="M1621 2904 c2 -5 18 -36 35 -69 17 -33 48 -112 69 -175 21 -63 47 -135 57 -159 l19 -44 22 20 c12 11 42 33 67 49 25 15 47 29 49 31 8 5 -95 149 -147 205 -52 56 -179 162 -171 142z"
       id="path114"
       style="fill:#66cccc" />
    <path
       d="M5601 2864 c-32 -14 -33 -15 -17 -33 16 -18 21 -18 51 -5 19 8 47 14 62 14 41 -1 109 -35 143 -72 28 -30 31 -31 47 -16 15 16 15 19 0 41 -9 14 -44 39 -78 56 -71 35 -149 41 -208 15z"
       id="path116"
       style="fill:#0066ff" />
    <path
       d="M2206 2856 c-54 -20 -73 -40 -57 -60 12 -14 16 -14 40 3 56 39 123 33 181 -16 30 -24 31 -25 50 -8 24 22 14 37 -43 66 -51 27 -122 33 -171 15z"
       id="path118"
       style="fill:#0066ff" />
    <path
       d="M5632 2807 c-19 -11 -21 -15 -9 -31 12 -16 17 -17 36 -6 36 19 85 4 120 -36 26 -29 34 -33 51 -24 11 6 20 14 20 18 0 11 -61 67 -87 81 -29 15 -102 13 -131 -2z"
       id="path120"
       style="fill:#0066ff" />
    <path
       d="M2208 2794 c-31 -16 -34 -24 -17 -41 8 -8 20 -7 45 3 35 15 73 7 104 -21 12 -11 18 -11 32 -1 16 12 16 14 -5 34 -45 42 -110 53 -159 26z"
       id="path122"
       style="fill:#0066ff" />
    <path
       d="M6464 2796 c-39 -17 -48 -30 -35 -55 10 -17 13 -18 54 -4 56 18 112 5 161 -37 l33 -29 22 23 22 23 -37 33 c-68 59 -150 76 -220 46z"
       id="path124"
       style="fill:#0066ff" />
    <path
       d="M2992 2781 c-8 -5 -12 -17 -10 -27 3 -15 11 -18 56 -15 50 2 55 0 94 -39 37 -37 43 -39 57 -26 14 14 13 19 -5 43 -35 47 -82 73 -133 73 -25 0 -52 -4 -59 -9z"
       id="path126"
       style="fill:#0066ff" />
    <path
       d="M5654 2754 c-16 -7 25 -104 43 -104 20 0 93 39 93 49 0 5 -14 21 -31 35 -29 24 -74 33 -105 20z"
       id="path128"
       style="fill:#0066ff" />
    <path
       d="M2231 2741 c-13 -8 -12 -15 4 -45 11 -20 21 -36 23 -36 9 0 82 46 82 52 0 4 -10 14 -22 22 -25 18 -65 21 -87 7z"
       id="path130"
       style="fill:#0066ff" />
    <path
       d="M3007 2723 c-11 -3 -16 -11 -13 -20 3 -8 6 -16 6 -18 0 -2 9 -1 20 2 26 7 78 -15 91 -38 10 -19 39 -16 39 5 0 7 -13 25 -28 40 -29 26 -79 40 -115 29z"
       id="path132"
       style="fill:#0066ff" />
    <path
       d="M6473 2720 c-24 -10 -27 -18 -17 -44 4 -12 11 -13 32 -5 35 13 71 3 105 -29 l27 -26 22 22 c22 21 22 21 2 43 -38 43 -117 61 -171 39z"
       id="path134"
       style="fill:#0066ff" />
    <path
       d="M3823 2689 c-33 -10 -37 -16 -27 -42 4 -11 16 -13 49 -9 60 6 89 -3 134 -43 38 -35 38 -35 56 -15 18 20 18 21 -15 55 -33 34 -105 66 -144 64 -12 0 -36 -5 -53 -10z"
       id="path136"
       style="fill:#0066ff" />
    <path
       d="M4700 2693 c-8 -3 -25 -10 -37 -14 -20 -8 -22 -11 -11 -34 8 -18 16 -24 27 -19 9 4 39 9 67 12 54 4 99 -12 140 -49 20 -19 21 -19 44 6 29 31 20 44 -52 75 -52 22 -150 35 -178 23z"
       id="path138"
       style="fill:#0066ff" />
    <path
       d="M3007 2633 c3 -21 7 -40 9 -42 1 -2 23 5 49 14 l46 18 -22 23 c-15 16 -34 24 -55 24 -32 0 -33 -1 -27 -37z"
       id="path140"
       style="fill:#0066ff" />
    <path
       d="M6475 2650 c-3 -5 -1 -35 4 -67 6 -31 11 -58 11 -60 0 -2 28 15 62 38 l61 42 -31 29 c-33 29 -94 39 -107 18z"
       id="path142"
       style="fill:#0066ff" />
    <path
       d="M6806 2611 c-20 -27 -48 -56 -62 -66 -40 -26 -22 -29 28 -4 39 18 47 28 61 70 8 27 14 49 12 49 -2 0 -19 -22 -39 -49z"
       id="path144"
       style="fill:#66cccc" />
    <path
       d="M2255 2639 c-175 -23 -329 -89 -439 -191 -37 -33 -66 -64 -66 -69 0 -5 7 -25 15 -45 l14 -35 68 56 c80 67 198 126 309 157 69 19 106 22 284 22 233 1 291 -6 680 -85 486 -99 877 -142 1275 -143 339 0 383 6 735 102 327 90 420 107 585 106 130 0 159 -4 390 -51 138 -29 295 -57 350 -62 174 -17 310 14 333 76 5 15 13 36 17 45 6 15 0 14 -47 -5 -46 -18 -72 -21 -188 -21 -115 1 -160 7 -310 38 -436 92 -413 88 -565 83 -161 -7 -235 -21 -537 -106 -274 -78 -378 -99 -557 -112 -321 -25 -931 31 -1386 127 -568 119 -747 140 -960 113z"
       id="path146"
       style="fill:#0099ff" />
    <path
       d="M3828 2623 c-35 -9 -14 -56 23 -53 44 4 57 0 87 -25 28 -24 30 -24 46 -6 15 16 14 19 -7 39 -42 39 -102 57 -149 45z"
       id="path148"
       style="fill:#0066ff" />
    <path
       d="M4700 2619 c-32 -13 -32 -13 -21 -42 9 -23 14 -25 49 -20 40 5 102 -19 102 -40 0 -5 -11 -2 -25 7 -13 9 -43 16 -66 16 l-41 0 7 -42 c9 -56 17 -63 52 -44 41 21 133 94 133 106 0 5 -17 21 -38 35 -43 28 -115 40 -152 24z"
       id="path150"
       style="fill:#0066ff" />
    <path
       d="M3835 2550 c-5 -8 -2 -34 11 -82 4 -15 11 -13 56 14 l51 32 -27 23 c-27 23 -80 31 -91 13z"
       id="path152"
       style="fill:#0066ff" />
    <path
       d="M2404 2515 c11 -8 23 -15 28 -15 14 0 38 -59 38 -96 0 -78 76 -146 168 -151 70 -5 112 18 142 76 29 59 26 106 -9 142 -54 54 -158 33 -181 -36 -23 -71 18 -135 86 -135 62 0 96 80 56 130 -25 31 -69 21 -78 -17 -12 -47 13 -66 61 -47 18 7 19 6 6 -10 -20 -25 -63 -17 -78 14 -17 36 -6 68 30 86 28 15 32 15 56 -4 20 -14 27 -29 29 -62 6 -76 -36 -117 -104 -104 -96 18 -115 157 -30 213 l27 18 -92 6 c-51 4 -111 7 -133 7 -38 -1 -40 -2 -22 -15z"
       id="path154"
       style="fill:#9999ff" />
    <path
       d="M2195 2505 c-33 -7 -89 -24 -125 -38 l-65 -24 42 -12 c33 -9 51 -23 85 -69 76 -99 173 -130 248 -79 85 57 98 182 23 216 -81 37 -163 -10 -163 -92 0 -59 23 -87 76 -94 34 -4 46 -1 63 16 23 23 28 79 11 112 -24 44 -97 3 -84 -48 7 -25 33 -38 48 -23 16 16 30 12 16 -5 -31 -37 -80 -7 -80 49 0 25 41 66 65 66 27 0 56 -36 61 -75 9 -79 -45 -127 -118 -106 -80 24 -103 129 -42 192 31 32 28 33 -61 14z"
       id="path156"
       style="fill:#9999ff" />
    <path
       d="M5665 2503 c-22 -2 -77 -8 -123 -14 l-83 -11 33 -17 c24 -11 42 -35 68 -85 69 -134 188 -171 277 -84 71 69 62 160 -19 193 -52 20 -90 12 -123 -27 -52 -62 -25 -149 52 -164 60 -12 105 67 73 127 -25 46 -97 3 -83 -50 5 -20 10 -22 42 -18 33 6 35 5 17 -8 -26 -19 -41 -19 -61 1 -24 24 -15 73 17 97 23 17 31 19 53 9 35 -16 49 -57 35 -104 -19 -64 -80 -87 -140 -51 -65 38 -67 128 -3 187 15 14 23 25 18 24 -6 -1 -28 -3 -50 -5z"
       id="path158"
       style="fill:#9999ff" />
    <path
       d="M2790 2472 c25 -33 29 -73 16 -133 -6 -30 -4 -40 19 -68 59 -70 162 -93 229 -51 36 22 76 90 76 129 0 59 -48 101 -116 101 -46 0 -70 -14 -89 -50 -39 -76 2 -150 84 -150 39 0 66 33 66 81 0 52 -24 77 -62 63 -21 -7 -29 -17 -31 -40 -4 -39 18 -60 47 -44 14 7 21 7 21 1 0 -6 -12 -14 -27 -17 -20 -6 -31 -2 -45 16 -23 28 -23 52 0 78 29 34 58 37 87 8 37 -37 35 -98 -5 -138 -26 -26 -36 -30 -67 -25 -52 9 -81 32 -92 75 -14 51 2 105 40 135 l30 23 -78 13 c-43 7 -89 15 -102 18 l-24 6 23 -31z"
       id="path160"
       style="fill:#9999ff" />
    <path
       d="M5856 2483 c30 -25 44 -56 44 -98 0 -69 49 -148 112 -181 65 -34 147 -6 195 65 33 49 30 86 -11 127 -28 28 -42 34 -76 34 -52 0 -76 -13 -95 -50 -29 -57 -16 -109 35 -135 57 -30 110 9 110 79 0 25 -6 38 -21 46 -31 17 -69 -11 -69 -50 0 -27 3 -30 32 -30 23 0 29 -3 21 -11 -19 -19 -57 -6 -67 24 -8 22 -6 32 11 55 47 63 123 25 108 -54 -15 -80 -93 -110 -154 -58 -57 48 -47 142 19 183 37 22 39 21 -90 46 -47 9 -94 19 -105 21 -19 5 -19 4 1 -13z"
       id="path162"
       style="fill:#9999ff" />
    <path
       d="M5354 2426 c-40 -40 -45 -83 -15 -132 44 -72 151 -45 151 38 0 61 -49 98 -84 62 -36 -35 -5 -101 35 -76 28 18 34 14 14 -8 -10 -11 -24 -20 -31 -20 -17 0 -54 48 -54 71 0 29 36 59 70 59 61 0 88 -103 41 -154 -36 -38 -102 -37 -142 3 -24 25 -29 38 -29 79 0 35 6 57 21 76 l21 27 -28 -7 c-16 -4 -74 -19 -129 -34 -87 -24 -96 -28 -70 -34 40 -9 59 -25 83 -68 19 -33 19 -39 5 -79 -22 -65 -57 -105 -109 -125 -39 -15 -53 -16 -90 -6 -47 13 -124 58 -124 73 0 5 -4 9 -10 9 -5 0 -10 -7 -10 -17 0 -9 -11 -35 -25 -59 -33 -56 -98 -89 -158 -80 -48 8 -111 42 -146 80 l-24 25 -29 -40 c-56 -78 -137 -100 -217 -60 -38 20 -101 83 -101 101 0 6 -4 10 -10 10 -5 0 -10 -7 -10 -15 0 -25 -68 -84 -109 -95 -66 -17 -126 4 -188 66 -29 29 -53 49 -53 43 0 -5 -19 -22 -42 -39 -54 -39 -122 -41 -183 -5 -41 23 -95 83 -95 104 0 17 -4 14 -52 -33 -51 -51 -98 -65 -160 -47 -45 14 -112 70 -134 114 -16 29 -16 29 -30 8 -21 -29 -86 -61 -126 -61 -48 0 -131 42 -163 83 l-29 35 -37 -30 c-55 -44 -113 -48 -184 -13 -35 17 -65 40 -78 61 -25 39 -33 42 -42 15 -10 -31 -71 -79 -111 -87 -47 -9 -109 10 -156 47 l-37 29 -11 -39 c-31 -117 -147 -163 -258 -102 -28 16 -52 28 -52 27 0 -2 18 -40 40 -84 l40 -82 60 0 c96 0 162 37 212 119 18 28 22 31 30 17 15 -27 64 -46 118 -46 55 0 94 15 124 49 19 21 19 21 40 2 59 -55 163 -67 235 -26 l44 26 31 -32 c42 -43 84 -59 153 -59 43 0 69 7 100 24 l42 24 26 -34 c70 -91 215 -108 299 -34 39 35 46 37 46 13 0 -10 9 -32 20 -50 54 -89 217 -99 277 -18 l19 26 24 -38 c35 -54 116 -93 191 -93 71 0 104 12 146 52 l33 32 22 -21 c40 -36 85 -53 143 -53 66 0 120 24 160 71 22 28 30 31 43 21 106 -77 234 -66 314 27 l35 41 47 -20 c123 -55 263 -22 309 71 l17 37 31 -29 c17 -16 56 -36 87 -45 77 -23 144 -8 205 46 l44 39 22 -23 c46 -49 130 -55 199 -15 l34 19 31 -30 c59 -57 173 -74 247 -35 26 13 29 12 56 -16 54 -56 170 -73 232 -33 21 14 25 13 51 -15 45 -48 70 -42 106 27 l30 57 -26 51 -26 52 -26 -33 c-48 -60 -143 -83 -205 -51 -32 17 -73 59 -99 103 l-19 32 -37 -38 c-47 -49 -109 -68 -162 -51 -48 16 -101 63 -126 112 l-19 38 -32 -35 c-77 -89 -176 -87 -266 3 l-40 40 -7 -34 c-9 -48 -73 -111 -122 -120 -45 -8 -116 9 -160 39 -52 35 -38 39 23 6 102 -53 195 -32 234 54 45 99 3 177 -96 177 -28 0 -44 -8 -70 -34z"
       id="path164"
       style="fill:#9999ff" />
    <path
       d="M3125 2416 c11 -17 15 -43 13 -92 -2 -59 1 -74 20 -102 54 -76 144 -110 212 -82 75 31 117 124 83 183 -40 68 -154 72 -188 7 -39 -75 -2 -150 74 -150 48 0 71 26 71 80 0 41 -14 60 -46 60 -29 0 -46 -23 -42 -57 3 -25 6 -28 38 -26 33 3 34 2 16 -12 -26 -20 -39 -19 -59 3 -25 28 -21 67 9 91 36 28 58 26 83 -5 26 -33 27 -70 1 -111 -31 -52 -92 -56 -145 -10 -53 46 -37 150 29 184 l31 16 -95 18 c-52 10 -100 21 -107 23 -9 4 -9 -2 2 -18z"
       id="path166"
       style="fill:#9999ff" />
    <path
       d="M6213 2401 c15 -18 27 -38 28 -44 4 -80 31 -139 83 -185 47 -41 94 -49 152 -27 113 43 132 170 31 215 -69 31 -126 3 -149 -72 -10 -34 -9 -42 9 -66 44 -60 107 -62 138 -3 25 50 18 83 -22 95 -28 9 -66 -26 -61 -57 2 -16 12 -23 38 -28 l35 -5 -28 -8 c-36 -11 -57 7 -57 49 0 50 56 83 97 57 38 -24 31 -107 -13 -141 -40 -32 -80 -27 -121 14 -33 33 -35 39 -30 82 4 37 12 54 39 79 l35 31 -96 16 c-53 9 -105 19 -116 23 -17 7 -16 3 8 -25z"
       id="path168"
       style="fill:#9999ff" />
    <path
       d="M1940 2393 c-22 -20 -33 -40 -37 -70 -5 -37 -2 -45 25 -73 30 -30 81 -40 108 -22 34 22 43 84 18 120 -18 27 -45 28 -67 4 -35 -38 -7 -99 34 -74 30 19 36 13 11 -8 -29 -24 -58 -13 -72 26 -17 43 13 84 61 84 37 0 60 -30 61 -79 1 -77 -52 -116 -127 -91 -47 16 -69 58 -63 121 l5 48 -48 -40 c-27 -23 -51 -45 -55 -50 -9 -15 35 -68 79 -93 63 -36 99 -41 150 -18 100 44 132 175 54 222 -47 29 -100 26 -137 -7z"
       id="path170"
       style="fill:#9999ff" />
    <path
       d="M6715 2403 c-22 -8 -75 -17 -118 -20 l-79 -6 25 -21 c31 -26 47 -57 47 -91 0 -29 38 -125 49 -125 9 0 32 46 87 178 24 56 40 101 36 101 -4 -1 -25 -8 -47 -16z"
       id="path172"
       style="fill:#9999ff" />
    <path
       d="M3459 2344 c15 -18 21 -41 21 -73 0 -130 150 -229 255 -169 56 32 91 103 75 152 -31 96 -182 98 -208 3 -13 -47 -4 -84 26 -107 36 -29 86 -26 111 6 23 29 28 83 9 102 -36 36 -102 -14 -78 -58 9 -16 18 -20 36 -16 30 8 31 1 3 -14 -43 -23 -79 49 -46 93 6 9 26 19 42 23 84 16 93 -130 10 -168 -56 -25 -135 32 -135 99 0 45 31 100 63 112 l22 9 -25 6 c-26 6 -173 26 -191 26 -6 0 -1 -12 10 -26z"
       id="path174"
       style="fill:#9999ff" />
    <path
       d="M5042 2355 c-45 -20 -68 -75 -53 -126 14 -46 30 -59 79 -66 34 -5 42 -2 60 22 38 48 24 125 -23 125 -47 0 -72 -52 -39 -85 15 -15 18 -15 41 1 19 12 24 12 21 2 -3 -7 -17 -17 -32 -23 -23 -8 -30 -6 -42 10 -23 31 -18 82 11 101 37 24 73 11 91 -33 30 -70 -10 -133 -84 -133 -89 0 -132 95 -82 178 19 31 19 33 3 28 -18 -5 -122 -29 -177 -41 l-29 -6 31 -19 c17 -11 40 -37 52 -59 71 -140 248 -163 310 -40 40 77 15 148 -58 169 -45 12 -40 12 -80 -5z"
       id="path176"
       style="fill:#9999ff" />
    <path
       d="M3786 2313 c36 -30 47 -62 40 -114 -6 -44 -4 -51 26 -85 86 -97 216 -97 273 1 46 78 24 153 -54 176 -78 23 -152 -43 -137 -124 8 -43 33 -66 79 -74 65 -10 106 55 75 122 -12 27 -54 35 -76 13 -29 -29 3 -103 34 -77 7 6 19 9 26 6 8 -3 2 -9 -14 -17 -33 -16 -56 -8 -68 25 -21 55 33 111 84 87 31 -14 49 -72 35 -110 -18 -47 -39 -62 -86 -62 -36 0 -50 6 -74 29 -25 25 -29 37 -29 82 0 46 4 55 34 84 l35 32 -87 7 c-48 4 -98 10 -112 12 l-25 6 21 -19z"
       id="path178"
       style="fill:#9999ff" />
    <path
       d="M4120 2289 c0 -3 9 -14 20 -24 11 -10 22 -37 26 -64 9 -60 25 -91 68 -128 68 -60 147 -66 206 -16 77 64 82 161 10 198 -88 45 -183 -18 -165 -111 7 -38 52 -74 93 -74 49 0 87 73 61 119 -18 32 -45 38 -70 15 -38 -35 -13 -98 30 -74 14 7 21 7 21 1 0 -19 -51 -25 -67 -8 -36 36 -5 107 47 107 37 0 60 -29 60 -76 0 -47 -20 -79 -57 -91 -66 -23 -133 28 -133 99 0 47 13 75 49 105 l26 21 -113 4 c-61 2 -112 0 -112 -3z"
       id="path180"
       style="fill:#9999ff" />
    <path
       d="M4553 2293 c-104 -3 -141 -13 -94 -26 24 -6 61 -63 61 -94 0 -31 50 -84 105 -112 92 -46 195 -7 226 86 22 69 -5 124 -72 143 -69 20 -128 -20 -136 -92 -6 -54 22 -94 72 -104 70 -13 119 62 81 121 -29 45 -86 28 -86 -26 0 -33 25 -58 42 -41 18 18 32 14 18 -3 -19 -23 -52 -14 -70 18 -13 24 -13 30 0 54 9 15 28 32 44 38 25 8 31 6 52 -18 53 -62 15 -162 -60 -160 -103 3 -147 122 -75 199 13 13 18 23 13 22 -5 -1 -60 -4 -121 -5z"
       id="path182"
       style="fill:#9999ff" />
    <path
       d="m 2444,2159 c -10,-11 -32,-27 -49,-33 l -30,-13 35,-21 c 45,-28 105,-28 150,-1 l 35,22 -40,14 c -21,7 -49,22 -60,33 l -22,20 z"
       id="path184"
       inkscape:connector-curvature="0"
       sodipodi:nodetypes="cccccccccc"
       style="fill:#66cccc" />
    <path
       d="m 2156,2114 c -34,-40 -35,-44 -17,-53 56,-31 144,-19 193,26 10,9 18,11 18,5 0,-12 -53,-52 -69,-52 l 0,0 0,0 0,0 0,0 0,0 0,0 0,0 0,0 0,0 0,0 0,0 0,0 0,0 0,0 0,0 0,0 0,0 0,0 0,0 0,0 0,0 0,0 0,0 0,0 0,0 0,0 0,0 0,0 0,0 0,0 0,0 0,0 0,0 0,0 0,0 0,0 c -26,0 -8,-20 24,-26 l 0,0 0,0 0,0 0,0 0,0 0,0 0,0 0,0 0,0 0,0 0,0 0,0 0,0 0,0 0,0 0,0 0,0 0,0 0,0 0,0 0,0 0,0 0,0 0,0 0,0 0,0 0,0 0,0 0,0 0,0 0,0 0,0 0,0 0,0 0,0 0,0 c 25,-4 45,-1 72,13 37,19 55,43 33,43 -7,0 -23,9 -37,20 -14,11 -40,20 -58,20 -17,0 -52,10 -78,23 l -46,24 z"
       id="path186"
       inkscape:connector-curvature="0"
       sodipodi:nodetypes="cccscccccccccccccccccccccccccccccccccccccccccccccccccccccccccccccccccccccccccccsssccc"
       style="fill:#66cccc" />
    <path
       d="m 2725,2140 c -16,-11 -49,-22 -72,-26 -24,-3 -43,-9 -43,-13 0,-4 11,-18 25,-31 46,-43 152,-36 193,13 9,11 7,17 -14,27 -14,8 -30,22 -35,32 -12,22 -16,22 -54,-2 z"
       id="path188"
       inkscape:connector-curvature="0"
       sodipodi:nodetypes="ccsccccc"
       style="fill:#66cccc" />
    <path
       d="m 5599,2134 c -13,-15 -44,-36 -68,-46 -53,-24 -44,-39 29,-46 53,-5 128,16 150,43 10,12 7,17 -16,26 -16,5 -38,19 -50,30 -20,19 -21,19 -45,-7 z"
       id="path190"
       inkscape:connector-curvature="0"
       sodipodi:nodetypes="ccccccc"
       style="fill:#66cccc" />
    <path
       d="m 5255,2120 c -3,-11 -21,-32 -40,-47 l -33,-28 153,0 c 156,0 189,11 79,26 -35,5 -75,19 -105,38 -45,28 -48,28 -54,11 z"
       id="path192"
       inkscape:connector-curvature="0"
       sodipodi:nodetypes="cccsccc"
       style="fill:#66cccc" />
    <path
       d="m 5840,2119 c -19,-11 -48,-19 -64,-19 -29,0 -29,0 -10,-21 34,-38 73,-52 131,-47 30,3 61,12 69,20 14,14 11,18 -30,42 -25,15 -46,31 -46,36 0,13 -8,11 -50,-11 z"
       id="path194"
       inkscape:connector-curvature="0"
       sodipodi:nodetypes="csccscsc"
       style="fill:#66cccc" />
    <path
       d="m 3053,2098 c -40,-24 -122,-34 -162,-20 -37,13 -40,3 -8,-25 52,-48 126,-59 191,-28 52,25 58,36 32,65 -21,26 -22,26 -53,8 z"
       id="path196"
       inkscape:connector-curvature="0"
       sodipodi:nodetypes="cccccc"
       style="fill:#66cccc" />
    <path
       d="m 2543,2076 c -23,-12 -42,-24 -43,-28 0,-12 68,-21 105,-14 l 36,7 -23,29 c -27,34 -21,33 -75,6 z"
       id="path198"
       inkscape:connector-curvature="0"
       sodipodi:nodetypes="cccccc"
       style="fill:#66cccc" />
    <path
       d="m 5713,2069 c -12,-12 -43,-27 -70,-34 -53,-14 -51,-16 53,-40 66,-15 74,-15 110,0 39,17 39,17 14,27 -14,5 -39,22 -55,38 l -31,30 z"
       id="path200"
       inkscape:connector-curvature="0"
       sodipodi:nodetypes="sccccccs"
       style="fill:#66cccc" />
    <path
       d="M6150 2075 c-14 -8 -51 -14 -82 -15 -46 0 -56 -3 -52 -15 11 -28 71 -56 122 -57 43 0 112 23 112 37 0 7 -63 64 -70 64 -3 0 -16 -6 -30 -14z"
       id="path202"
       style="fill:#66cccc" />
    <path
       d="m 2807,2051 c -41,-27 -42,-30 -11,-41 30,-12 101,-16 110,-7 6,5 -56,67 -66,66 -3,0 -17,-8 -33,-18 z"
       id="path204"
       inkscape:connector-curvature="0"
       sodipodi:nodetypes="ccccc"
       style="fill:#66cccc" />
    <path
       d="m 3424,2059 c -3,-6 -25,-20 -48,-30 -54,-25 -140,-25 -189,0 -47,24 -47,12 -1,-39 55,-61 149,-78 229,-41 61,27 69,42 48,85 -17,37 -27,44 -39,25 z"
       id="path206"
       inkscape:connector-curvature="0"
       sodipodi:nodetypes="ccccccc"
       style="fill:#66cccc" />
    <path
       d="m 2055,2038 c -26,-12 -58,-17 -92,-16 l -51,3 26,-48 c 15,-27 33,-51 40,-54 32,-13 134,92 120,126 -2,4 -21,-1 -43,-11 z"
       id="path208"
       inkscape:connector-curvature="0"
       sodipodi:nodetypes="ccccccc"
       style="fill:#66cccc" />
    <path
       d="m 2424,2039 c -16,-18 -16,-19 7,-18 31,1 65,14 53,21 -28,16 -44,15 -60,-3 z"
       id="path210"
       inkscape:connector-curvature="0"
       sodipodi:nodetypes="sccs"
       style="fill:#66cccc" />
    <path
       d="m 4861,2025 c -41,-44 -100,-75 -141,-75 -16,0 -30,-4 -30,-10 0,-16 109,-12 146,6 19,9 48,32 64,51 25,28 29,38 19,49 -16,20 -21,18 -58,-21 z"
       id="path212"
       inkscape:connector-curvature="0"
       sodipodi:nodetypes="csscccc"
       style="fill:#66cccc" />
    <path
       d="m 2105,2014 c -9,-22 -26,-49 -37,-61 -25,-26 -15,-29 45,-12 36,10 107,62 107,79 0,4 -15,10 -32,12 -18,3 -41,8 -50,12 -13,6 -21,-1 -33,-30 z"
       id="path214"
       inkscape:connector-curvature="0"
       sodipodi:nodetypes="cccsccc"
       style="fill:#66cccc" />
    <path
       d="m 5950,2029 c -19,-11 -45,-19 -57,-19 -31,0 -29,-13 7,-44 42,-35 91,-42 145,-21 25,9 45,20 45,24 0,3 -16,15 -36,26 -19,10 -40,27 -45,37 -11,21 -14,21 -59,-3 z"
       id="path216"
       inkscape:connector-curvature="0"
       sodipodi:nodetypes="csccsccc"
       style="fill:#66cccc" />
    <path
       d="M2645 2030 c-3 -6 4 -10 17 -10 13 0 41 -2 63 -5 32 -4 30 -2 -15 10 -30 8 -56 14 -57 15 -1 0 -5 -4 -8 -10z"
       id="path218"
       style="fill:none" />
    <path
       d="m 3114,2030 c -6,-6 -33,-19 -59,-29 l -49,-19 34,-20 c 40,-25 99,-36 140,-27 l 31,7 -35,36 c -20,19 -36,41 -36,49 0,16 -12,17 -26,3 z"
       id="path220"
       inkscape:connector-curvature="0"
       sodipodi:nodetypes="sccccccss"
       style="fill:#66cccc" />
    <path
       d="M5215 2029 c-103 -14 -237 -52 -450 -131 -371 -137 -445 -153 -715 -153 -272 0 -311 7 -975 181 -247 65 -342 79 -540 79 -177 -1 -181 -1 -275 -33 -89 -31 -153 -66 -209 -112 -26 -22 -23 -37 19 -88 l19 -23 28 26 c115 108 304 163 513 152 182 -11 339 -45 750 -165 432 -126 732 -149 1011 -78 52 13 198 64 324 114 333 131 422 154 588 154 114 -1 175 -12 453 -82 267 -67 372 -84 502 -77 137 6 205 28 238 76 13 19 22 37 20 39 -2 2 -30 -5 -62 -15 -45 -13 -90 -17 -189 -17 -142 2 -204 12 -520 91 -283 70 -379 81 -530 62z"
       id="path222"
       style="fill:#339999" />
    <path
       d="M6430 2023 c-23 -10 -55 -14 -92 -11 -51 4 -56 2 -45 -11 65 -84 220 -109 257 -42 9 18 6 22 -25 35 -19 8 -38 22 -41 31 -7 18 -9 18 -54 -2z"
       id="path224"
       style="fill:#66cccc" />
    <path
       d="M2219 1997 c-20 -27 -20 -30 -3 -23 10 4 31 10 47 13 33 7 34 15 3 29 -22 10 -27 8 -47 -19z"
       id="path226"
       style="fill:#339999" />
    <path
       d="m 4917,1996 c -15,-20 -27,-36 -25,-36 2,1 41,14 88,30 64,21 77,29 54,29 -17,1 -44,3 -60,7 -24,4 -33,-1 -57,-30 z"
       id="path228"
       inkscape:connector-curvature="0"
       sodipodi:nodetypes="cccccc"
       style="fill:#66cccc" />
    <path
       d="m 3760,1995 c -8,-9 -32,-26 -54,-37 -46,-24 -130,-20 -171,6 -34,22 -38,20 -21,-13 32,-61 106,-101 186,-101 46,0 115,33 130,60 10,19 8,26 -17,54 -15,17 -31,35 -34,39 -3,4 -12,1 -19,-8 z"
       id="path230"
       inkscape:connector-curvature="0"
       sodipodi:nodetypes="ccccsccsc"
       style="fill:#66cccc" />
    <path
       d="M6220 1989 c-19 -11 -50 -19 -67 -19 -40 0 -42 -12 -7 -39 56 -44 119 -49 172 -15 l23 15 -39 40 c-22 21 -41 38 -43 38 -2 -1 -20 -10 -39 -20z"
       id="path232"
       style="fill:#66cccc" />
    <path
       d="m 2916,1991 c -3,-5 8,-12 26,-16 18,-4 42,-9 53,-12 18,-5 18,-3 5,10 -19,19 -76,31 -84,18 z"
       id="path234"
       inkscape:connector-curvature="0"
       sodipodi:nodetypes="cscsc"
       style="fill:#66cccc" />
    <path
       d="m 4484,1960 c -45,-42 -107,-64 -160,-58 -28,3 -30,2 -21,-13 6,-10 29,-28 51,-40 81,-46 200,-19 245,54 12,19 21,37 21,40 0,4 -88,58 -94,57 0,0 -20,-18 -42,-40 z"
       id="path236"
       inkscape:connector-curvature="0"
       sodipodi:nodetypes="ccsccscc"
       style="fill:#66cccc" />
    <path
       d="m 5821,1986 c -27,-15 -21,-21 32,-30 l 39,-7 -19,25 c -21,29 -21,29 -52,12 z"
       id="path238"
       inkscape:connector-curvature="0"
       sodipodi:nodetypes="ccccc"
       style="fill:#66cccc" />
    <path
       d="m 3451,1953 c -19,-13 -52,-28 -75,-34 l -41,-11 28,-24 c 43,-37 130,-44 177,-14 12,8 10,14 -12,37 -15,15 -30,37 -35,49 -8,20 -8,20 -42,-3 z"
       id="path240"
       inkscape:connector-curvature="0"
       sodipodi:nodetypes="cccccccc"
       style="fill:#66cccc" />
    <path
       d="m 4133,1940 c -54,-49 -131,-62 -218,-35 -27,8 -50,13 -51,12 -9,-9 59,-84 90,-101 55,-28 145,-33 201,-12 67,26 140,116 93,116 -6,0 -26,11 -44,25 -18,14 -34,25 -36,25 -2,0 -17,-14 -35,-30 z"
       id="path242"
       inkscape:connector-curvature="0"
       sodipodi:nodetypes="ccsccsssc"
       style="fill:#66cccc" />
    <path
       d="M6058 1937 c-41 -16 -34 -24 29 -32 31 -4 63 -9 72 -12 9 -3 0 8 -19 25 -38 34 -42 35 -82 19z"
       id="path244"
       style="fill:#66cccc" />
    <path
       d="m 4620,1910 c -7,-18 -24,-39 -37,-47 -42,-28 -18,-24 72,10 l 88,34 -44,12 c -24,7 -49,14 -55,17 -6,3 -17,-9 -24,-26 z"
       id="path246"
       inkscape:connector-curvature="0"
       sodipodi:nodetypes="cccccsc"
       style="fill:#66cccc" />
    <path
       d="M5202 1934 c-20 -5 -16 -9 25 -31 27 -14 66 -40 89 -58 l41 -34 30 32 c35 36 57 76 49 84 -8 8 -204 13 -234 7z"
       id="path248"
       style="fill:#cc99ff" />
    <path
       d="m 3202,1922 c -9,-6 10,-15 55,-27 37,-10 75,-20 83,-23 13,-5 13,-3 1,12 -8,9 -21,21 -30,25 -26,14 -95,22 -109,13 z"
       id="path250"
       inkscape:connector-curvature="0"
       sodipodi:nodetypes="cccccc"
       style="fill:#66cccc" />
    <path
       d="M6331 1910 l-23 -20 33 0 c19 0 45 3 58 7 22 6 22 6 -9 19 -38 17 -30 17 -59 -6z"
       id="path252"
       style="fill:#66cccc" />
    <path
       d="M2003 1913 c-17 -6 -16 -23 1 -46 14 -18 15 -18 38 2 12 11 32 27 43 35 19 14 17 15 -25 15 -25 0 -51 -3 -57 -6z"
       id="path254"
       style="fill:#339999" />
    <path
       d="M2575 1886 c35 -173 3 -362 -82 -488 -32 -49 -33 -53 -17 -65 26 -19 29 -17 68 30 42 51 88 149 107 227 17 70 17 200 0 266 -12 49 -15 52 -48 56 -34 4 -35 4 -28 -26z"
       id="path256"
       style="fill:#ccccff" />
    <path
       d="M5090 1914 c-12 -4 -15 -23 -17 -87 -1 -105 -39 -223 -99 -312 l-44 -65 22 -48 c13 -26 24 -49 26 -52 8 -11 76 79 109 144 61 121 86 269 67 389 -7 37 -18 43 -64 31z"
       id="path258"
       style="fill:#cc99ff" />
    <path
       d="M5163 1906 c4 -10 7 -31 7 -46 0 -24 10 -36 58 -69 99 -67 171 -157 211 -263 9 -25 16 -28 56 -28 43 0 46 1 40 23 -4 12 -23 54 -43 92 -47 92 -181 227 -271 274 -50 26 -63 30 -58 17z"
       id="path260"
       style="fill:#6666ff" />
    <path
       d="M5446 1892 c-8 -16 -29 -43 -46 -62 -29 -31 -30 -34 -14 -51 10 -11 22 -19 29 -19 18 0 83 72 99 112 14 32 14 37 0 42 -32 12 -54 5 -68 -22z"
       id="path262"
       style="fill:#cc99ff" />
    <path
       d="M2434 1903 c-20 -4 -22 -12 -26 -121 -5 -124 -24 -195 -72 -265 l-24 -35 28 -27 28 -27 25 34 c58 77 87 177 87 298 0 81 -9 151 -19 149 -3 -1 -16 -4 -27 -6z"
       id="path264"
       style="fill:#ccccff" />
    <path
       d="M2493 1838 c17 -135 -19 -294 -89 -385 l-25 -33 33 -30 33 -29 23 27 c65 75 102 205 101 352 -2 151 -6 164 -50 168 l-36 3 10 -73z"
       id="path266"
       style="fill:#ccccff" />
    <path
       d="M2659 1884 c6 -22 18 -31 59 -45 85 -29 166 -77 223 -132 57 -56 121 -149 141 -203 10 -28 17 -34 41 -34 32 0 32 6 -8 95 -75 169 -239 298 -432 339 -31 7 -31 6 -24 -20z"
       id="path268"
       style="fill:#ccccff" />
    <path
       d="m 3816,1878 c -17,-17 -45,-31 -68,-34 l -39,-7 22,-23 c 31,-33 85,-46 134,-33 61,17 67,26 36,57 -14,15 -33,36 -41,47 -15,21 -15,21 -44,-7 z"
       id="path270"
       inkscape:connector-curvature="0"
       sodipodi:nodetypes="cccccccc"
       style="fill:#66cccc" />
    <path
       d="M5531 1873 c-8 -20 -34 -58 -58 -84 l-45 -48 22 -31 c12 -16 26 -30 31 -30 15 0 97 79 118 114 11 17 24 44 30 59 11 30 6 35 -60 50 -22 6 -27 2 -38 -30z"
       id="path272"
       style="fill:#cc99ff" />
    <path
       d="M2790 1894 c0 -2 26 -17 58 -33 31 -16 77 -45 102 -64 l45 -35 48 26 c26 14 47 29 47 33 0 5 -17 13 -37 18 -67 18 -263 59 -263 55z"
       id="path274"
       style="fill:#ccccff" />
    <path
       d="M4992 1886 c-32 -11 -33 -14 -36 -72 -5 -81 -28 -158 -66 -217 l-31 -49 25 -28 c13 -16 26 -35 29 -42 7 -16 26 5 64 71 46 76 74 170 80 264 7 97 5 99 -65 73z"
       id="path276"
       style="fill:#cc99ff" />
    <path
       d="M2343 1883 c-8 -3 -13 -23 -13 -51 0 -66 -26 -167 -56 -222 -27 -50 -25 -70 11 -100 15 -12 19 -11 36 10 47 62 87 239 74 327 -6 43 -18 50 -52 36z"
       id="path278"
       style="fill:#ccccff" />
    <path
       d="m 4242,1850 c -18,-22 -47,-45 -63,-52 -36,-16 -37,-24 -1,-31 49,-10 124,14 152,48 11,14 9,20 -19,46 -18,16 -33,29 -34,28 -1,0 -17,-18 -35,-39 z"
       id="path280"
       inkscape:connector-curvature="0"
       sodipodi:nodetypes="ccccccc"
       style="fill:#66cccc" />
    <path
       d="M5635 1833 c-12 -31 -41 -71 -83 -113 -63 -63 -64 -65 -49 -89 9 -14 20 -27 25 -29 21 -7 131 110 162 170 37 74 37 86 4 98 -38 15 -40 14 -59 -37z"
       id="path282"
       style="fill:#6666ff" />
    <path
       d="M2263 1853 c-30 -15 -33 -21 -33 -61 0 -27 -11 -68 -27 -104 l-26 -59 28 -29 c28 -30 28 -30 43 -9 30 43 62 154 62 217 0 34 -3 62 -7 61 -5 0 -23 -8 -40 -16z"
       id="path284"
       style="fill:#ccccff" />
    <path
       d="m 3556,1861 c -3,-5 -20,-12 -37,-16 -17,-4 -28,-9 -26,-11 6,-7 239,-55 243,-51 10,10 -49,49 -92,61 -27,7 -56,16 -65,20 -10,4 -20,3 -23,-3 z"
       id="path286"
       inkscape:connector-curvature="0"
       sodipodi:nodetypes="cscsccc"
       style="fill:#66cccc" />
    <path
       d="M4884 1849 l-52 -20 -4 -62 c-2 -35 -13 -80 -24 -104 l-20 -41 34 -27 c38 -31 41 -29 76 40 33 66 48 130 44 187 l-3 46 -51 -19z"
       id="path288"
       style="fill:#cc99ff" />
    <path
       d="M5734 1842 c-21 -68 -64 -139 -114 -186 -30 -29 -63 -57 -72 -62 -15 -8 -16 -14 -6 -47 6 -20 17 -37 23 -37 21 0 105 61 141 103 20 23 46 62 59 87 24 48 49 129 42 136 -2 3 -19 9 -36 14 -26 7 -33 6 -37 -8z"
       id="path290"
       style="fill:#6666ff" />
    <path
       d="M2676 1812 c8 -33 10 -36 54 -52 101 -39 210 -138 257 -234 25 -51 30 -56 60 -56 31 0 32 1 22 27 -22 58 -80 141 -136 194 -67 64 -126 101 -206 128 l-57 20 6 -27z"
       id="path292"
       style="fill:#ccccff" />
    <path
       d="M2189 1812 c-14 -9 -41 -30 -59 -45 l-32 -28 28 -40 c15 -22 31 -42 36 -45 12 -8 47 76 54 130 4 25 5 46 3 46 -2 0 -16 -8 -30 -18z"
       id="path294"
       style="fill:#ccccff" />
    <path
       d="M5818 1803 c-2 -21 6 -36 40 -66 58 -54 103 -148 109 -231 5 -54 9 -67 25 -72 34 -10 40 8 28 82 -15 96 -59 183 -126 254 -31 33 -61 60 -65 60 -4 0 -9 -12 -11 -27z"
       id="path296"
       style="fill:#6699ff" />
    <path
       d="M5910 1773 l55 -61 30 19 c17 10 36 27 43 37 12 18 8 20 -65 35 -43 8 -87 19 -98 23 -12 5 2 -17 35 -53z"
       id="path298"
       style="fill:#6666ff" />
    <path
       d="M3076 1790 c-22 -16 -46 -30 -53 -30 -19 0 -16 -11 12 -43 l25 -28 42 22 c50 25 108 68 108 79 0 4 -12 10 -27 14 -16 3 -37 8 -48 11 -13 3 -34 -6 -59 -25z"
       id="path300"
       style="fill:#ccccff" />
    <path
       d="m 4325,1793 c -22,-19 -24,-24 -10,-20 11,3 45,11 75,18 52,12 53,13 25,20 -50,11 -59,9 -90,-18 z"
       id="path302"
       inkscape:connector-curvature="0"
       sodipodi:nodetypes="ccccc"
       style="fill:#66cccc" />
    <path
       d="M4705 1779 c-55 -23 -102 -42 -104 -44 -2 -2 14 -11 35 -20 21 -9 60 -30 87 -47 26 -17 49 -29 51 -27 28 31 61 180 40 178 -5 0 -54 -18 -109 -40z"
       id="path304"
       style="fill:#cc99ff" />
    <path
       d="M6374 1791 c-55 -14 -65 -20 -89 -58 -36 -58 -117 -127 -189 -164 l-60 -29 3 -48 c1 -26 4 -49 6 -51 8 -7 170 86 210 121 38 34 195 228 195 242 0 7 2 7 -76 -13z"
       id="path306"
       style="fill:#6666ff" />
    <path
       d="m 3905,1779 -30,-19 70,-2 c 148,-5 195,-4 195,4 0,9 -9,10 -66,8 -22,-1 -60,6 -85,14 -53,19 -47,19 -84,-5 z"
       id="path308"
       inkscape:connector-curvature="0"
       sodipodi:nodetypes="cccsccc"
       style="fill:#66cccc" />
    <path
       d="M5178 1764 c-4 -33 1 -41 53 -91 37 -35 70 -79 91 -121 18 -37 34 -69 35 -71 5 -10 73 12 73 23 0 7 -16 45 -35 83 -36 73 -122 166 -182 196 l-31 16 -4 -35z"
       id="path310"
       style="fill:#cc99ff" />
    <path
       d="M3194 1753 c-21 -18 -58 -42 -82 -54 l-42 -21 17 -29 c19 -32 28 -32 96 3 40 20 127 94 127 108 0 4 -17 12 -38 17 -35 9 -41 7 -78 -24z"
       id="path312"
       style="fill:#ccccff" />
    <path
       d="M6051 1762 c-6 -10 -26 -29 -45 -42 -33 -23 -34 -25 -20 -52 8 -15 18 -28 23 -28 16 0 129 78 144 101 22 31 14 39 -43 39 -38 0 -52 -4 -59 -18z"
       id="path314"
       style="fill:#6666ff" />
    <path
       d="M6243 1772 c-36 -3 -51 -11 -96 -55 -29 -29 -72 -61 -95 -71 -37 -17 -41 -22 -36 -45 4 -14 10 -30 15 -35 12 -13 109 39 167 90 45 39 101 112 91 117 -2 1 -23 1 -46 -1z"
       id="path316"
       style="fill:#6666ff" />
    <path
       d="M2680 1731 c0 -27 6 -34 48 -55 53 -27 137 -112 167 -168 17 -34 24 -38 57 -38 44 0 46 6 17 63 -43 84 -174 193 -266 221 -20 7 -23 4 -23 -23z"
       id="path318"
       style="fill:#ccccff" />
    <path
       d="M3290 1715 c-25 -25 -75 -61 -111 -79 l-65 -33 15 -31 c17 -37 23 -36 111 6 52 24 170 129 170 150 0 5 -11 13 -24 16 -13 3 -30 8 -38 11 -8 3 -33 -14 -58 -40z"
       id="path320"
       style="fill:#ccccff" />
    <path
       d="M5800 1736 c-9 -24 -6 -32 20 -65 38 -47 70 -129 70 -180 0 -35 3 -39 32 -45 17 -3 34 -4 37 -1 11 12 -19 139 -44 190 -15 29 -45 70 -66 91 l-38 37 -11 -27z"
       id="path322"
       style="fill:#6666ff" />
    <path
       d="M3410 1704 c-33 -60 -195 -174 -248 -174 -9 0 -11 -7 -7 -22 12 -40 22 -42 82 -19 75 28 165 95 214 161 41 55 47 70 27 70 -7 0 -22 3 -33 6 -16 4 -25 -2 -35 -22z"
       id="path324"
       style="fill:#ccccff" />
    <path
       d="M4533 1713 c-8 -3 -13 -24 -13 -52 0 -118 -47 -246 -119 -324 -45 -49 -54 -90 -23 -113 17 -14 182 -20 195 -8 8 8 -15 54 -48 93 l-27 31 -50 -55 c-27 -30 -55 -55 -61 -55 -6 0 10 21 35 48 101 104 148 217 148 358 0 84 -3 91 -37 77z"
       id="path326"
       style="fill:#cc99ff" />
    <path
       d="M4584 1704 c3 -9 6 -30 6 -49 0 -30 5 -35 58 -61 73 -35 178 -140 223 -221 36 -66 41 -70 76 -50 l22 12 -36 75 c-47 99 -177 230 -274 278 -76 36 -84 38 -75 16z"
       id="path328"
       style="fill:#cc99ff" />
    <path
       d="M3493 1688 c-8 -18 -3 -27 33 -60 56 -51 102 -124 124 -195 15 -51 21 -58 50 -66 18 -4 34 -6 37 -4 10 10 -46 147 -81 200 -37 55 -96 116 -134 136 -16 8 -21 6 -29 -11z"
       id="path330"
       style="fill:#cc99ff" />
    <path
       d="M3560 1697 c0 -2 22 -26 48 -53 27 -27 53 -57 59 -68 10 -17 11 -17 44 -1 19 10 49 29 68 43 l34 26 -116 22 c-64 13 -121 26 -127 29 -5 3 -10 4 -10 2z"
       id="path332"
       style="fill:#ccccff" />
    <path
       d="M4462 1689 c-13 -5 -21 -13 -18 -17 9 -15 -14 -144 -35 -191 -11 -25 -33 -62 -48 -81 -26 -32 -27 -39 -17 -64 l11 -28 37 40 c68 75 108 183 108 289 0 66 -1 67 -38 52z"
       id="path334"
       style="fill:#cc99ff" />
    <path
       d="M5162 1653 c-10 -46 -9 -49 23 -85 19 -20 44 -56 55 -78 16 -32 25 -40 40 -36 11 4 29 9 40 12 25 7 21 26 -18 94 -26 46 -109 140 -123 140 -4 0 -12 -21 -17 -47z"
       id="path336"
       style="fill:#cc99ff" />
    <path
       d="M5762 1665 c-16 -35 -88 -111 -130 -137 l-37 -22 75 -12 c41 -7 83 -13 93 -13 23 -1 22 32 -3 88 -25 54 -25 63 0 33 10 -12 24 -47 31 -77 11 -51 14 -55 46 -61 19 -4 37 -3 41 0 21 21 -67 226 -97 226 -4 0 -13 -11 -19 -25z"
       id="path338"
       style="fill:#cc99ff" />
    <path
       d="M2676 1649 c-5 -28 -1 -36 45 -77 29 -26 58 -62 66 -80 13 -33 15 -33 56 -27 23 4 43 9 45 10 7 7 -31 68 -66 107 -33 37 -116 98 -133 98 -3 0 -9 -14 -13 -31z"
       id="path340"
       style="fill:#ccccff" />
    <path
       d="M4403 1673 c-16 -3 -23 -12 -23 -27 0 -40 -28 -118 -57 -160 -29 -40 -29 -41 -12 -74 l17 -33 27 35 c37 48 65 127 72 202 3 35 4 63 2 63 -2 -1 -14 -4 -26 -6z"
       id="path342"
       style="fill:#cc99ff" />
    <path
       d="M4323 1653 c-15 -3 -25 -14 -29 -31 -4 -15 -15 -44 -26 -65 -18 -36 -18 -40 -3 -63 8 -13 19 -24 23 -24 9 0 43 54 59 95 13 34 17 96 6 94 -5 -1 -18 -4 -30 -6z"
       id="path344"
       style="fill:#cc99ff" />
    <path
       d="M3457 1633 c-15 -15 -14 -19 13 -50 33 -37 73 -113 84 -155 5 -21 15 -30 44 -37 20 -6 40 -11 45 -11 25 0 -44 145 -98 208 -49 56 -67 65 -88 45z"
       id="path346"
       style="fill:#ccccff" />
    <path
       d="M3802 1617 c-12 -13 -42 -34 -67 -46 -50 -25 -51 -28 -31 -57 14 -19 15 -18 68 7 55 28 138 94 138 110 0 5 -19 9 -43 9 -33 0 -49 -6 -65 -23z"
       id="path348"
       style="fill:#cc99ff" />
    <path
       d="M4170 1630 c-25 -4 -40 -8 -34 -8 6 -1 32 -22 58 -47 l47 -45 19 42 c11 24 20 49 20 56 0 13 -34 14 -110 2z"
       id="path350"
       style="fill:#cc99ff" />
    <path
       d="M3879 1580 c-26 -26 -72 -59 -102 -74 -51 -24 -55 -28 -48 -49 12 -30 44 -26 126 14 61 30 165 125 165 150 0 5 -21 8 -47 7 -43 -1 -53 -6 -94 -48z"
       id="path352"
       style="fill:#cc99ff" />
    <path
       d="M4021 1596 c-45 -73 -143 -143 -236 -171 -22 -7 -39 -15 -37 -19 1 -3 2 -16 2 -27 0 -19 4 -21 33 -15 103 21 240 121 291 215 l27 51 -30 0 c-23 0 -34 -8 -50 -34z"
       id="path354"
       style="fill:#ccccff" />
    <path
       d="M4098 1595 c-10 -23 -7 -30 54 -93 70 -72 115 -154 124 -226 6 -39 10 -45 37 -50 17 -3 32 -5 34 -3 2 2 -1 28 -7 58 -16 86 -72 193 -137 260 -76 80 -90 87 -105 54z"
       id="path356"
       style="fill:#cc99ff" />
    <path
       d="M3407 1579 c-17 -19 -17 -21 6 -52 14 -18 30 -49 37 -70 9 -27 18 -38 38 -43 15 -3 33 -7 40 -10 31 -9 -12 104 -62 164 -32 37 -35 37 -59 11z"
       id="path358"
       style="fill:#cc99ff" />
    <path
       d="M4583 1558 l-9 -43 47 -32 c52 -36 102 -93 144 -166 24 -41 31 -48 51 -43 40 10 74 25 74 32 0 21 -96 157 -138 196 -40 38 -136 98 -156 98 -3 0 -9 -19 -13 -42z"
       id="path360"
       style="fill:#cc99ff" />
    <path
       d="M2642 1517 c-13 -39 -32 -83 -42 -97 -29 -37 -25 -39 30 -13 28 13 73 29 100 36 28 6 50 15 50 20 0 27 -83 127 -105 127 -5 0 -20 -33 -33 -73z"
       id="path362"
       style="fill:#ccccff" />
    <path
       d="M5117 1518 c-15 -35 -45 -87 -68 -117 -22 -29 -36 -51 -32 -50 5 2 57 24 116 48 59 24 107 48 107 53 0 23 -74 128 -90 128 -3 0 -18 -28 -33 -62z"
       id="path364"
       style="fill:#cc99ff" />
    <path
       d="M3347 1528 c-16 -12 -54 -31 -85 -44 l-55 -22 49 -7 c27 -4 79 -13 117 -20 75 -13 77 -12 48 50 -27 60 -40 67 -74 43z"
       id="path366"
       style="fill:#ccccff" />
    <path
       d="M4061 1532 c-8 -15 -3 -26 30 -58 52 -50 85 -106 102 -174 13 -49 17 -55 46 -61 l31 -7 -6 37 c-11 67 -62 160 -120 221 -31 33 -61 60 -65 60 -5 0 -13 -8 -18 -18z"
       id="path368"
       style="fill:#cc99ff" />
    <path
       d="M4020 1485 c-10 -12 -7 -21 18 -49 26 -30 72 -129 72 -156 0 -12 9 -16 48 -25 32 -7 33 -6 26 22 -13 57 -53 133 -94 177 -47 51 -52 53 -70 31z"
       id="path370"
       style="fill:#cc99ff" />
    <path
       d="M6125 1464 l-60 -33 36 -1 c27 0 43 8 69 35 41 43 33 43 -45 -1z"
       id="path372"
       style="fill:#6699ff" />
    <path
       d="M4557 1458 c-13 -32 -13 -34 33 -78 25 -25 59 -66 74 -93 29 -49 42 -54 89 -34 l28 12 -53 80 c-47 71 -123 145 -149 145 -5 0 -15 -15 -22 -32z"
       id="path374"
       style="fill:#cc99ff" />
    <path
       d="M5449 1481 c-101 -19 -211 -55 -408 -135 -309 -126 -394 -148 -561 -148 -123 1 -223 18 -572 103 -528 127 -689 154 -923 153 -130 -1 -174 -5 -238 -22 -86 -24 -184 -71 -216 -106 l-21 -22 41 -34 c41 -32 42 -33 68 -16 139 89 225 110 446 110 199 -1 354 -24 705 -105 506 -118 608 -135 740 -125 123 9 218 34 460 124 118 44 253 91 300 103 119 31 261 30 445 -4 77 -14 174 -29 216 -32 l76 -7 51 43 c28 24 51 46 51 49 1 3 -31 6 -70 8 -39 2 -137 16 -217 33 -158 32 -299 43 -373 30z"
       id="path376"
       style="fill:#3333ff" />
    <path
       d="M3983 1450 c-8 -9 -6 -20 9 -46 11 -19 26 -53 33 -76 9 -32 18 -44 38 -49 32 -9 33 -1 11 63 -20 60 -74 124 -91 108z"
       id="path378"
       style="fill:#cc99ff" />
    <path
       d="M3873 1384 l-81 -40 110 -27 c61 -15 112 -26 113 -25 6 7 -27 95 -42 113 -18 20 -19 20 -100 -21z"
       id="path380"
       style="fill:#cc99ff" />
    <path
       d="M4518 1380 c-16 -27 -15 -29 12 -55 15 -14 36 -44 45 -66 19 -40 32 -45 83 -31 23 7 22 8 -20 71 -24 35 -57 74 -73 87 l-30 23 -17 -29z"
       id="path382"
       style="fill:#cc99ff" />
    <path
       d="M5343 1363 c-18 -2 -33 -7 -32 -11 1 -14 59 -54 59 -41 0 7 10 23 22 36 24 26 25 25 -49 16z"
       id="path384"
       style="fill:#6666ff" />
    <path
       d="M5526 1345 c25 -25 25 -25 50 -6 l24 19 -23 6 c-12 3 -34 6 -49 6 l-27 0 25 -25z"
       id="path386"
       style="fill:#6666ff" />
    <path
       d="M5405 1335 c-51 -50 -16 -125 57 -125 42 0 78 36 78 77 0 34 -42 73 -80 73 -19 0 -40 -9 -55 -25z"
       id="path388"
       style="fill:#0000ff" />
    <path
       d="M3000 1330 c11 -11 22 -20 25 -20 3 0 14 9 25 20 l20 20 -45 0 -45 0 20 -20z"
       id="path390"
       style="fill:#6666ff" />
    <path
       d="M3085 1339 c-32 -18 -45 -40 -45 -75 0 -53 61 -88 115 -68 23 9 46 60 39 88 -12 47 -70 76 -109 55z"
       id="path392"
       style="fill:#000099" />
    <path
       d="M3192 1318 l22 -33 26 25 c14 14 25 26 25 26 0 1 -21 5 -47 8 l-48 7 22 -33z"
       id="path394"
       style="fill:#6666ff" />
    <path
       d="M5585 1325 c-47 -46 -23 -118 42 -131 27 -5 37 -1 64 25 37 37 34 72 -7 109 -33 29 -69 28 -99 -3z"
       id="path396"
       style="fill:#000099" />
    <path
       d="M2813 1327 c-41 -9 -59 -27 -28 -27 8 0 24 -9 35 -20 18 -18 20 -19 20 -2 0 10 7 28 16 40 8 12 12 21 7 21 -4 -1 -27 -6 -50 -12z"
       id="path398"
       style="fill:#6666ff" />
    <path
       d="M2880 1320 c-45 -45 -13 -130 49 -130 44 0 62 10 76 43 15 36 3 82 -25 97 -31 16 -79 11 -100 -10z"
       id="path400"
       style="fill:#0000ff" />
    <path
       d="M5226 1319 c-20 -16 -26 -29 -26 -59 0 -70 72 -103 126 -57 20 17 27 33 27 57 0 24 -7 40 -27 57 -34 28 -65 29 -100 2z"
       id="path402"
       style="fill:#0000ff" />
    <path
       d="M5717 1312 c16 -28 17 -28 35 -10 10 10 24 19 31 19 14 2 -39 16 -65 18 -16 1 -16 -1 -1 -27z"
       id="path404"
       style="fill:#6666ff" />
    <path
       d="M3273 1320 c-55 -22 -67 -102 -20 -135 66 -46 150 23 121 100 -6 15 -54 46 -71 44 -4 0 -18 -4 -30 -9z"
       id="path406"
       style="fill:#000099" />
    <path
       d="M3379 1296 c9 -17 17 -32 18 -34 1 -2 11 6 22 17 12 12 26 21 33 21 24 0 0 10 -44 18 l-45 9 16 -31z"
       id="path408"
       style="fill:#6666ff" />
    <path
       d="M5154 1311 l-41 -16 34 -22 c29 -20 33 -20 33 -5 0 10 7 28 16 40 18 25 14 26 -42 3z"
       id="path410"
       style="fill:#6666ff" />
    <path
       d="M5870 1292 c14 -19 21 -39 17 -51 -7 -30 2 -26 58 24 l50 45 -57 0 c-31 0 -64 3 -74 7 -14 5 -13 1 6 -25z"
       id="path412"
       style="fill:#000099" />
    <path
       d="M5760 1288 c-25 -28 -26 -52 0 -78 41 -41 110 -14 110 43 0 52 -72 75 -110 35z"
       id="path414"
       style="fill:#0000ff" />
    <path
       d="M3453 1285 c-72 -30 -51 -145 26 -145 43 0 60 9 77 41 12 25 13 33 0 63 -18 43 -59 59 -103 41z"
       id="path416"
       style="fill:#000099" />
    <path
       d="M2707 1278 c-41 -32 -40 -105 2 -127 57 -31 121 2 121 62 0 61 -76 100 -123 65z"
       id="path418"
       style="fill:#0000ff" />
    <path
       d="M3569 1256 c16 -33 17 -34 36 -16 11 9 27 20 35 22 9 3 -2 10 -25 17 -61 17 -64 15 -46 -23z"
       id="path420"
       style="fill:#6666ff" />
    <path
       d="M5080 1272 c-33 -10 -60 -46 -60 -78 0 -39 38 -74 82 -74 36 0 78 40 78 73 0 48 -56 92 -100 79z"
       id="path422"
       style="fill:#000099" />
    <path
       d="M2636 1247 l-29 -24 24 -17 c24 -16 24 -16 27 11 2 15 8 34 14 41 17 20 -5 14 -36 -11z"
       id="path424"
       style="fill:#6666ff" />
    <path
       d="M4979 1246 l-47 -21 33 -16 33 -15 15 35 c9 19 15 36 14 37 -1 0 -23 -8 -48 -20z"
       id="path426"
       style="fill:#6666ff" />
    <path
       d="M3744 1225 c20 -30 22 -31 43 -16 31 22 29 26 -20 38 l-44 9 21 -31z"
       id="path428"
       style="fill:#6666ff" />
    <path
       d="M3615 1225 c-26 -25 -34 -78 -15 -90 12 -8 13 -25 1 -25 -5 0 -14 14 -20 30 l-10 31 -20 -20 c-45 -45 -124 -31 -150 26 l-12 26 -25 -24 c-17 -16 -37 -24 -63 -24 -36 0 -38 -1 -28 -22 17 -37 -21 -81 -65 -74 -4 0 -7 -15 -6 -34 1 -35 1 -35 22 -17 27 25 62 33 92 22 22 -9 23 -7 18 18 -8 40 28 82 70 82 66 0 101 -75 56 -120 -19 -19 -36 -24 -71 -21 -12 1 -15 -4 -12 -24 6 -29 11 -30 37 -10 32 24 74 18 107 -14 16 -16 29 -37 29 -45 0 -9 5 -16 10 -16 6 0 10 4 10 10 0 5 17 14 38 21 47 14 91 -5 113 -48 l14 -28 24 23 c17 16 20 22 9 22 -8 0 -27 12 -42 26 -35 36 -36 95 -1 129 13 14 33 25 43 25 19 0 19 1 3 34 l-16 33 -28 -23 c-17 -14 -42 -24 -59 -24 -30 0 -30 -1 -15 -18 10 -10 17 -35 17 -55 0 -65 -61 -103 -118 -73 -41 21 -58 66 -42 106 14 33 63 65 85 56 8 -3 15 0 17 5 2 7 13 7 31 0 56 -21 115 30 102 89 -13 60 -86 80 -130 35z"
       id="path430"
       style="fill:#0000ff" />
    <path
       d="M5347 1204 c-16 -19 -35 -34 -43 -34 -13 0 -11 -5 5 -26 25 -32 27 -57 4 -79 -14 -14 -14 -18 -2 -26 20 -12 29 -11 29 5 0 7 9 24 19 38 19 24 19 24 0 37 -28 17 -22 72 9 86 23 10 28 20 14 29 -4 2 -20 -11 -35 -30z"
       id="path432"
       style="fill:#6666ff" />
    <path
       d="M5517 1214 c-16 -13 -40 -24 -55 -24 -24 0 -27 -4 -28 -34 0 -23 5 -36 15 -39 9 -3 24 -8 34 -12 13 -5 17 -2 17 13 0 24 37 72 56 72 17 0 17 10 1 31 -11 15 -15 15 -40 -7z"
       id="path434"
       style="fill:#6666ff" />
    <path
       d="M3002 1203 l-22 -25 24 -19 c14 -11 27 -33 31 -49 6 -30 7 -30 37 -14 17 9 40 13 54 10 20 -5 24 -3 24 17 0 29 29 57 58 57 20 0 20 2 10 26 -12 25 -12 25 -27 5 -20 -26 -68 -43 -95 -35 -11 3 -32 17 -46 30 l-25 23 -23 -26z"
       id="path436"
       style="fill:#6666ff" />
    <path
       d="M5694 1200 c-30 -26 -30 -28 -17 -55 8 -15 13 -36 10 -46 -3 -10 -3 -19 -1 -19 3 0 35 20 72 45 51 35 61 45 43 45 -12 0 -35 13 -50 29 l-27 29 -30 -28z"
       id="path438"
       style="fill:#000099" />
    <path
       d="M3815 1208 c-52 -28 -60 -84 -19 -125 21 -21 32 -24 62 -19 39 6 72 36 72 67 0 31 -21 66 -47 78 -30 14 -42 13 -68 -1z"
       id="path440"
       style="fill:#0000ff" />
    <path
       d="M2840 1179 c-7 -17 -28 -38 -48 -48 l-34 -18 43 -25 44 -26 3 33 c2 19 14 44 28 58 l24 25 -24 15 c-23 16 -24 15 -36 -14z"
       id="path442"
       style="fill:#6666ff" />
    <path
       d="M3920 1207 c0 -3 6 -16 13 -29 12 -24 13 -24 41 -7 l28 17 -23 7 c-53 15 -59 16 -59 12z"
       id="path444"
       style="fill:#6666ff" />
    <path
       d="M4895 1198 c-31 -17 -45 -39 -45 -74 0 -62 86 -98 130 -54 44 44 31 109 -26 130 -31 12 -34 12 -59 -2z"
       id="path446"
       style="fill:#0000ff" />
    <path
       d="M5190 1185 c0 -16 -11 -38 -28 -55 -27 -27 -28 -28 -10 -50 23 -28 23 -41 -1 -72 -19 -24 -19 -24 0 -36 16 -10 19 -9 25 13 3 14 16 33 29 43 20 16 21 20 9 37 -21 28 -17 61 9 82 l23 18 -28 23 -28 24 0 -27z"
       id="path448"
       style="fill:#6666ff" />
    <path
       d="M4813 1187 c-39 -13 -40 -17 -9 -39 22 -16 23 -16 39 18 9 19 13 33 9 33 -4 -1 -22 -7 -39 -12z"
       id="path450"
       style="fill:#6666ff" />
    <path
       d="M5366 1184 c-27 -27 -12 -64 26 -64 15 0 38 27 38 44 0 8 -31 36 -40 36 -5 0 -16 -7 -24 -16z"
       id="path452"
       style="fill:#6666ff" />
    <path
       d="M3994 1166 c-96 -42 -27 -177 71 -140 23 9 46 60 39 88 -12 50 -61 73 -110 52z"
       id="path454"
       style="fill:#000099" />
    <path
       d="M5539 1161 c-17 -13 -23 -29 -23 -56 0 -68 66 -96 125 -54 36 25 40 78 9 109 -25 25 -80 26 -111 1z"
       id="path456"
       style="fill:#0000ff" />
    <path
       d="M2889 1141 c-37 -37 -37 -65 1 -103 26 -25 36 -29 63 -24 65 13 89 85 42 131 -33 33 -70 32 -106 -4z"
       id="path458"
       style="fill:#0000ff" />
    <path
       d="M3180 1150 c-11 -11 -20 -26 -20 -33 0 -18 32 -47 53 -47 21 0 47 27 47 50 0 22 -26 50 -46 50 -8 0 -23 -9 -34 -20z"
       id="path460"
       style="fill:#0000ff" />
    <path
       d="M4109 1136 c16 -33 16 -33 34 -15 10 11 23 19 30 19 19 1 -15 17 -49 23 l-31 6 16 -33z"
       id="path462"
       style="fill:#6666ff" />
    <path
       d="M4691 1124 c-28 -35 -26 -69 4 -99 50 -51 135 -17 135 55 0 65 -98 96 -139 44z"
       id="path464"
       style="fill:#0000ff" />
    <path
       d="M5232 1138 c-19 -19 -15 -66 7 -78 11 -5 24 -10 30 -10 18 0 41 31 41 55 0 37 -52 59 -78 33z"
       id="path466"
       style="fill:#6666ff" />
    <path
       d="M4181 1129 c-80 -32 -57 -149 29 -149 38 0 80 39 80 74 0 29 -36 72 -65 79 -11 3 -31 1 -44 -4z"
       id="path468"
       style="fill:#0000ff" />
    <path
       d="M4624 1132 c-20 -7 -20 -8 6 -29 l26 -21 11 29 c12 31 4 35 -43 21z"
       id="path470"
       style="fill:#6666ff" />
    <path
       d="M5020 1114 c0 -16 -11 -36 -29 -53 -29 -27 -29 -27 -7 -37 31 -13 34 -66 5 -93 -13 -12 -17 -21 -11 -21 7 0 12 -4 12 -9 0 -6 -16 -3 -35 4 -59 25 -109 -8 -109 -72 0 -68 86 -99 133 -49 18 20 22 33 19 63 -6 47 13 94 48 122 24 19 25 21 10 43 -20 28 -20 52 -1 68 20 17 19 22 -10 43 -25 18 -25 18 -25 -9z"
       id="path472"
       style="fill:#0000ff" />
    <path
       d="M4286 1105 c16 -24 18 -25 35 -9 24 21 16 34 -22 34 -29 0 -29 0 -13 -25z"
       id="path474"
       style="fill:#6666ff" />
    <path
       d="M3372 1104 c-43 -30 -17 -104 36 -104 28 0 62 34 62 60 0 25 -34 60 -58 60 -10 0 -28 -7 -40 -16z"
       id="path476"
       style="fill:#0000ff" />
    <path
       d="M4440 1110 c0 -5 4 -10 8 -10 5 0 13 -9 18 -21 9 -19 10 -19 32 10 l23 31 -41 0 c-22 0 -40 -4 -40 -10z"
       id="path478"
       style="fill:#6666ff" />
    <path
       d="M4332 1087 c-40 -43 -25 -107 29 -126 64 -22 124 39 99 100 -23 54 -90 67 -128 26z"
       id="path480"
       style="fill:#000099" />
    <path
       d="M4511 1084 c-28 -35 -26 -69 4 -99 50 -51 135 -17 135 55 0 65 -98 96 -139 44z"
       id="path482"
       style="fill:#0000ff" />
    <path
       d="M5082 1084 c-39 -27 -23 -84 24 -84 46 0 59 60 19 86 -18 12 -24 11 -43 -2z"
       id="path484"
       style="fill:#000099" />
    <path
       d="M5375 1080 c-46 -51 -10 -130 59 -130 65 0 101 85 56 130 -27 27 -90 27 -115 0z"
       id="path486"
       style="fill:#0000ff" />
    <path
       d="M3055 1065 c-14 -13 -25 -35 -25 -48 0 -28 32 -73 59 -82 23 -7 70 11 87 33 36 46 -5 122 -66 122 -19 0 -40 -9 -55 -25z"
       id="path488"
       style="fill:#000099" />
    <path
       d="M3541 1061 c-44 -44 -13 -121 48 -121 57 0 88 62 54 108 -26 35 -74 41 -102 13z"
       id="path490"
       style="fill:#0000ff" />
    <path
       d="M3906 1065 c-11 -8 -28 -15 -38 -15 -18 0 -18 -2 -4 -22 25 -35 20 -94 -9 -123 -13 -14 -19 -25 -13 -25 6 0 25 -15 42 -34 l32 -33 34 28 c23 20 29 29 18 29 -24 0 -48 39 -48 76 0 23 8 39 26 53 l25 20 -22 30 c-13 17 -23 31 -23 31 -1 0 -10 -7 -20 -15z"
       id="path492"
       style="fill:#6666ff" />
    <path
       d="M4840 1051 c0 -10 -7 -24 -16 -32 -13 -11 -12 -15 15 -36 17 -14 31 -34 31 -45 0 -14 5 -18 16 -14 9 3 17 6 20 6 2 0 -1 11 -8 25 -9 19 -8 29 6 49 20 32 20 36 -3 36 -10 0 -24 7 -31 15 -17 20 -30 19 -30 -4z"
       id="path494"
       style="fill:#6666ff" />
    <path
       d="M3753 1038 c-55 -26 -50 -114 7 -138 79 -33 146 65 85 125 -25 26 -56 31 -92 13z"
       id="path496"
       style="fill:#000099" />
    <path
       d="M4089 1030 c-9 -9 -22 -19 -29 -22 -10 -3 -10 -9 -1 -25 18 -35 13 -72 -14 -98 l-24 -25 29 -15 c16 -8 32 -24 35 -35 7 -21 7 -20 30 4 l24 26 -24 25 c-33 32 -31 60 4 95 24 24 26 31 15 41 -8 6 -14 20 -14 30 0 23 -10 23 -31 -1z"
       id="path498"
       style="fill:#6666ff" />
    <path
       d="M5233 1030 c-49 -20 -59 -96 -17 -129 45 -35 96 -24 122 26 18 34 14 52 -17 84 -30 30 -50 34 -88 19z"
       id="path500"
       style="fill:#0000ff" />
    <path
       d="M2986 1009 l-28 -17 32 -17 c17 -9 33 -15 34 -13 1 2 -1 17 -4 34 l-5 31 -29 -18z"
       id="path502"
       style="fill:#6666ff" />
    <path
       d="M5530 1021 c0 -5 -3 -17 -6 -26 -6 -14 -3 -14 20 -4 30 14 33 24 10 33 -21 8 -24 8 -24 -3z"
       id="path504"
       style="fill:#6666ff" />
    <path
       d="M3236 999 c-32 -25 -35 -75 -7 -110 27 -34 86 -32 117 5 27 30 29 44 13 79 -21 47 -80 60 -123 26z"
       id="path506"
       style="fill:#000099" />
    <path
       d="M4660 1006 c0 -7 -7 -19 -15 -26 -14 -11 -12 -15 15 -31 21 -13 30 -26 30 -45 0 -20 4 -25 16 -20 9 3 24 6 35 6 17 0 18 3 8 21 -8 15 -8 28 -1 45 10 20 8 23 -18 29 -16 3 -34 13 -41 21 -15 18 -29 18 -29 0z"
       id="path508"
       style="fill:#6666ff" />
    <path
       d="M4922 1008 c-27 -27 -7 -78 29 -78 21 0 49 26 49 45 0 35 -53 58 -78 33z"
       id="path510"
       style="fill:#000099" />
    <path
       d="M3955 985 c-29 -28 -31 -51 -9 -83 29 -42 97 -24 109 30 5 21 1 33 -19 52 -31 32 -50 33 -81 1z"
       id="path512"
       style="fill:#0000ff" />
    <path
       d="M4263 985 c-29 -18 -31 -23 -26 -58 4 -26 1 -43 -10 -55 -13 -15 -12 -20 19 -48 l34 -31 14 23 c14 21 13 23 -9 38 -41 27 -29 89 21 107 7 3 7 10 0 24 l-11 21 -32 -21z"
       id="path514"
       style="fill:#6666ff" />
    <path
       d="M4448 969 c-16 -17 -37 -29 -52 -29 -23 0 -25 -3 -20 -29 4 -17 1 -32 -6 -36 -8 -5 3 -14 28 -25 22 -10 46 -28 52 -41 10 -17 14 -19 21 -8 12 20 11 29 -4 29 -23 0 -47 35 -47 68 0 37 37 68 70 57 26 -8 54 -50 46 -70 -4 -11 1 -15 18 -15 20 0 25 6 28 35 4 31 1 35 -20 35 -13 0 -37 14 -54 30 -16 17 -30 29 -31 29 -1 -1 -14 -14 -29 -30z"
       id="path516"
       style="fill:#6666ff" />
    <path
       d="M4772 968 c-28 -28 -7 -78 33 -78 27 0 45 18 45 45 0 27 -18 45 -45 45 -12 0 -26 -5 -33 -12z"
       id="path518"
       style="fill:#0000ff" />
    <path
       d="M5080 973 c-88 -32 -73 -153 19 -153 39 0 81 38 81 74 0 45 -61 93 -100 79z"
       id="path520"
       style="fill:#0000ff" />
    <path
       d="M4127 952 c-24 -26 -21 -68 5 -86 31 -22 45 -20 73 9 30 29 31 49 5 75 -25 25 -62 26 -83 2z"
       id="path522"
       style="fill:#000099" />
    <path
       d="M3181 954 c-1 -6 -15 -17 -32 -25 l-32 -15 53 -22 c29 -12 48 -16 42 -9 -6 6 -15 28 -20 47 -6 19 -11 30 -11 24z"
       id="path524"
       style="fill:#6666ff" />
    <path
       d="M5360 940 c0 -10 -4 -22 -10 -25 -5 -3 -10 -10 -10 -15 0 -9 80 21 80 30 0 3 -13 11 -30 17 -27 10 -30 9 -30 -7z"
       id="path526"
       style="fill:#6666ff" />
    <path
       d="M3402 927 c-71 -75 42 -174 115 -101 20 20 24 31 19 57 -12 65 -91 90 -134 44z"
       id="path528"
       style="fill:#0000ff" />
    <path
       d="M4280 920 c-16 -30 4 -60 40 -60 23 0 31 5 36 25 9 38 -2 55 -35 55 -20 0 -34 -7 -41 -20z"
       id="path530"
       style="fill:#000099" />
    <path
       d="M4441 921 c-16 -29 -14 -46 8 -65 26 -23 59 -13 67 21 9 34 -6 57 -39 61 -18 2 -29 -3 -36 -17z"
       id="path532"
       style="fill:#000099" />
    <path
       d="M4599 919 c-16 -31 3 -69 36 -69 17 0 29 8 36 24 15 32 -4 66 -36 66 -15 0 -29 -9 -36 -21z"
       id="path534"
       style="fill:#000099" />
    <path
       d="M3582 877 c-60 -64 5 -155 86 -121 40 16 55 52 41 94 -19 54 -88 69 -127 27z"
       id="path536"
       style="fill:#000099" />
    <path
       d="M5183 860 c-13 -34 -12 -34 57 -8 l25 10 -34 14 c-18 8 -34 14 -35 14 -1 0 -7 -14 -13 -30z"
       id="path538"
       style="fill:#6666ff" />
    <path
       d="M3322 859 l-33 -17 47 -16 c26 -9 48 -15 49 -13 0 1 -6 16 -15 32 l-15 30 -33 -16z"
       id="path540"
       style="fill:#6666ff" />
    <path
       d="M4815 871 c-3 -5 -1 -12 4 -15 5 -3 11 1 15 9 6 16 -9 21 -19 6z"
       id="path542"
       style="fill:none" />
    <path
       d="M3782 855 c-73 -31 -46 -145 35 -145 46 0 77 30 77 73 0 63 -52 97 -112 72z"
       id="path544"
       style="fill:#000099" />
    <path
       d="M4693 855 c-29 -20 -37 -59 -19 -94 38 -72 146 -45 146 37 0 61 -73 95 -127 57z"
       id="path546"
       style="fill:#0000ff" />
    <path
       d="M3974 840 c-28 -11 -54 -48 -54 -78 0 -35 43 -72 84 -72 65 0 101 84 54 127 -29 26 -57 34 -84 23z"
       id="path548"
       style="fill:#0000ff" />
    <path
       d="M4501 824 c-28 -35 -26 -69 4 -99 50 -51 135 -17 135 55 0 65 -98 96 -139 44z"
       id="path550"
       style="fill:#0000ff" />
    <path
       d="M4153 830 c-49 -20 -59 -96 -17 -129 49 -39 115 -16 130 44 8 31 -18 72 -52 85 -29 12 -32 12 -61 0z"
       id="path552"
       style="fill:#0000ff" />
    <path
       d="M4315 815 c-14 -13 -25 -36 -25 -50 0 -30 49 -85 75 -85 21 0 57 19 72 39 35 45 -7 121 -67 121 -19 0 -40 -9 -55 -25z"
       id="path554"
       style="fill:#0000ff" />
    <path
       d="M5009 804 c-19 -39 -20 -38 32 -22 37 10 53 28 27 28 -6 0 -19 6 -27 14 -14 12 -18 10 -32 -20z"
       id="path556"
       style="fill:#6666ff" />
    <path
       d="M3520 805 c-7 -8 -19 -15 -26 -15 -31 0 -11 -17 30 -27 l45 -10 -16 31 c-8 17 -17 32 -18 34 -1 1 -8 -4 -15 -13z"
       id="path558"
       style="fill:#6666ff" />
    <path
       d="M3693 754 c-16 -17 -19 -26 -10 -29 16 -5 67 -13 67 -10 0 4 -32 65 -33 64 -1 -1 -12 -12 -24 -25z"
       id="path560"
       style="fill:#6666ff" />
    <path
       d="M4826 755 c-9 -14 -16 -26 -16 -29 0 -4 82 12 87 17 1 1 -11 10 -27 19 -28 16 -29 16 -44 -7z"
       id="path562"
       style="fill:#6666ff" />
    <path
       d="M3883 723 l-22 -23 24 -6 c13 -3 30 -4 38 -2 12 2 11 7 -2 28 l-16 25 -22 -22z"
       id="path564"
       style="fill:#6666ff" />
    <path
       d="M4460 738 c0 -10 -10 -26 -22 -38 l-22 -20 47 0 c26 0 47 3 47 8 -1 4 -12 21 -25 37 -19 22 -25 26 -25 13z"
       id="path566"
       style="fill:#6666ff" />
    <path
       d="M4637 725 l-18 -25 41 0 c46 0 48 2 20 30 -24 24 -21 25 -43 -5z"
       id="path568"
       style="fill:#6666ff" />
    <path
       d="M4070 705 l-23 -25 43 0 43 0 -19 23 c-10 12 -19 23 -20 24 0 2 -11 -8 -24 -22z"
       id="path570"
       style="fill:#6666ff" />
    <path
       d="M4270 720 c0 -5 -10 -18 -22 -30 l-22 -20 54 0 54 0 -29 30 c-31 33 -35 35 -35 20z"
       id="path572"
       style="fill:#6666ff" />
  </g>
</svg>
