<?xml version="1.0" encoding="UTF-8" standalone="no"?>
<svg
   xmlns:dc="http://purl.org/dc/elements/1.1/"
   xmlns:cc="http://creativecommons.org/ns#"
   xmlns:rdf="http://www.w3.org/1999/02/22-rdf-syntax-ns#"
   xmlns:svg="http://www.w3.org/2000/svg"
   xmlns="http://www.w3.org/2000/svg"
   xmlns:sodipodi="http://sodipodi.sourceforge.net/DTD/sodipodi-0.dtd"
   xmlns:inkscape="http://www.inkscape.org/namespaces/inkscape"
   version="1.0"
   width="850.000000pt"
   height="850.000000pt"
   viewBox="0 0 850.000000 850.000000"
   preserveAspectRatio="xMidYMid meet"
   id="svg2"
   inkscape:version="0.91 r13725"
   sodipodi:docname="Animal_2018916_35.svg">
  <defs
     id="defs828" />
  <sodipodi:namedview
     pagecolor="#ffffff"
     bordercolor="#666666"
     borderopacity="1"
     objecttolerance="10"
     gridtolerance="10"
     guidetolerance="10"
     inkscape:pageopacity="0"
     inkscape:pageshadow="2"
     inkscape:window-width="1920"
     inkscape:window-height="979"
     id="namedview826"
     showgrid="false"
     inkscape:zoom="0.62824358"
     inkscape:cx="473.34336"
     inkscape:cy="638.39035"
     inkscape:window-x="0"
     inkscape:window-y="1"
     inkscape:window-maximized="1"
     inkscape:current-layer="svg2" />
  <metadata
     id="metadata4">
Created by potrace 1.14, written by Peter Selinger 2001-2017
<rdf:RDF>
  <cc:Work
     rdf:about="">
    <dc:format>image/svg+xml</dc:format>
    <dc:type
       rdf:resource="http://purl.org/dc/dcmitype/StillImage" />
  </cc:Work>
</rdf:RDF>
</metadata>
  <g
     transform="translate(0.000000,850.000000) scale(0.100000,-0.100000)"
     fill="#000000"
     stroke="none"
     id="g6">
    <path
       d="M0 4250 l0 -4250 4250 0 4250 0 0 4250 0 4250 -4250 0 -4250 0 0 -4250z m5924 2813 c3 -10 21 -37 40 -60 25 -31 36 -57 41 -90 16 -133 34 -200 71 -265 22 -37 41 -68 44 -68 3 0 14 15 25 33 10 17 69 100 130 182 137 185 220 259 294 259 45 1 46 0 49 -32 4 -38 -14 -69 -93 -168 -31 -38 -76 -109 -101 -159 -37 -75 -47 -108 -61 -203 -19 -129 -23 -122 64 -147 29 -9 68 -29 87 -45 18 -17 40 -30 48 -30 19 0 97 -51 125 -81 12 -14 37 -56 55 -94 31 -67 32 -75 33 -205 2 -126 4 -140 31 -200 16 -36 74 -128 129 -205 56 -77 110 -156 122 -175 12 -19 35 -43 51 -52 16 -10 35 -31 41 -46 7 -16 24 -35 38 -43 27 -15 63 -76 63 -109 0 -23 -91 -135 -125 -153 -26 -14 -175 -36 -246 -37 -99 0 -235 60 -416 184 -194 133 -274 150 -398 86 -68 -35 -68 -36 -102 -115 -19 -44 -46 -125 -60 -180 -29 -118 -37 -133 -69 -145 -17 -7 -23 -16 -21 -32 2 -20 -5 -23 -108 -40 -245 -40 -439 -85 -717 -165 -10 -3 -18 -15 -18 -28 l0 -22 86 23 c47 13 157 35 243 50 86 14 167 30 180 35 13 5 78 19 145 30 66 12 133 23 149 26 15 3 34 0 42 -7 19 -16 29 -73 17 -97 -9 -16 -5 -24 23 -46 21 -17 38 -42 45 -66 5 -21 20 -46 31 -57 12 -10 32 -35 45 -56 19 -29 35 -40 89 -58 100 -33 144 -78 160 -163 5 -27 15 -42 36 -52 47 -25 93 -101 95 -160 1 -27 7 -70 13 -95 6 -25 11 -72 11 -106 0 -66 6 -74 94 -138 96 -71 79 -181 -48 -323 -43 -47 -135 -123 -150 -123 -3 0 -6 18 -6 40 0 22 -2 40 -5 40 -3 0 -27 -11 -53 -25 -74 -39 -84 -34 -57 32 23 55 20 88 -11 102 -15 6 -35 23 -46 36 -10 13 -31 26 -48 30 -16 3 -41 15 -55 26 -22 18 -25 28 -25 79 0 49 -4 61 -20 70 -10 6 -35 39 -55 74 -29 53 -35 73 -35 123 0 39 -5 65 -14 72 -7 6 -52 15 -99 20 -100 10 -156 34 -226 97 -46 41 -52 44 -107 44 -70 0 -125 23 -182 74 -42 38 -163 106 -188 106 -27 0 -91 39 -122 75 -26 29 -32 44 -32 83 l0 47 -51 -95 c-57 -107 -84 -140 -112 -140 -10 0 -52 32 -93 72 l-74 71 -25 -23 c-14 -13 -25 -29 -25 -36 0 -16 138 -144 168 -155 12 -5 22 -14 22 -22 0 -23 -64 -76 -100 -83 -30 -7 -31 -8 -12 -15 26 -10 23 -22 -26 -99 -39 -62 -119 -142 -241 -241 -102 -82 -259 -156 -424 -199 -60 -16 -111 -31 -113 -33 -2 -2 33 -21 78 -42 100 -46 300 -185 316 -219 7 -17 17 -23 30 -19 12 3 37 -9 67 -32 26 -20 64 -43 85 -50 99 -35 274 -154 330 -225 38 -49 220 -170 272 -182 22 -4 108 -7 191 -6 155 2 211 -6 249 -40 12 -10 29 -13 53 -9 45 7 96 -8 116 -34 11 -15 40 -27 95 -39 43 -10 93 -23 109 -29 17 -6 42 -13 57 -16 15 -3 44 -20 65 -38 51 -45 149 -170 179 -229 41 -80 55 -259 24 -308 -8 -12 -20 -5 -67 41 -58 57 -58 57 -133 63 -167 13 -251 26 -296 45 -26 12 -64 21 -84 21 -25 0 -63 13 -106 36 -65 34 -69 35 -111 23 l-44 -12 -50 49 c-28 27 -66 70 -85 95 -26 36 -42 48 -72 54 -25 5 -50 20 -79 51 -24 24 -51 44 -62 44 -21 0 -126 53 -153 77 -11 10 -50 19 -108 24 -73 7 -108 16 -194 54 -74 32 -117 45 -150 45 -57 0 -95 18 -134 65 -27 33 -31 35 -55 24 -19 -9 -34 -9 -58 0 -17 6 -53 11 -80 11 -62 0 -190 -25 -228 -44 -37 -20 -60 -20 -80 -2 -9 8 -83 23 -171 35 -85 12 -190 28 -233 35 -43 8 -87 12 -98 9 -11 -3 -38 2 -60 12 -31 14 -44 16 -63 7 -20 -9 -30 -6 -62 15 -32 22 -41 25 -66 15 -26 -9 -33 -7 -64 20 -32 28 -37 30 -90 23 -45 -5 -59 -3 -74 10 -14 13 -28 16 -54 11 -24 -5 -45 -2 -65 9 -17 8 -74 21 -127 28 l-96 14 -117 -59 c-185 -92 -346 -117 -528 -79 l-101 21 -64 -20 c-182 -59 -453 -78 -629 -44 -89 17 -132 35 -220 94 -120 82 -272 282 -288 380 -4 21 -12 35 -21 35 -24 0 -37 71 -86 470 -8 66 -15 204 -16 306 0 158 3 196 21 261 23 84 107 288 148 358 42 71 150 217 236 318 89 105 150 193 180 261 30 68 67 218 67 272 0 26 4 51 10 54 14 8 13 25 -2 25 -6 0 -34 22 -63 49 -61 58 -126 93 -163 89 -24 -3 -27 1 -30 30 -2 20 5 45 18 67 24 40 15 45 -24 14 -25 -20 -28 -20 -52 -4 -35 23 -62 87 -70 167 -11 113 45 262 155 408 146 193 149 196 208 227 86 45 179 74 258 80 59 5 74 2 94 -14 23 -19 23 -20 7 -50 -18 -36 -53 -63 -110 -87 -21 -9 -73 -49 -115 -89 -42 -39 -109 -96 -148 -126 l-72 -54 20 -25 c10 -14 19 -37 19 -52 0 -31 49 -109 91 -144 16 -14 29 -31 29 -38 0 -9 12 -14 35 -14 22 0 50 -11 77 -30 55 -38 144 -162 163 -227 18 -62 20 -233 2 -263 -49 -85 -48 -80 -31 -113 12 -25 13 -45 6 -113 -14 -130 -86 -255 -185 -321 -15 -10 -43 -49 -62 -86 -37 -75 -117 -168 -172 -202 l-36 -22 7 -105 c7 -100 9 -110 52 -188 73 -133 105 -283 70 -323 -8 -10 -16 -56 -20 -129 -5 -93 -4 -113 8 -118 23 -9 67 -79 60 -97 -5 -14 -2 -14 25 -4 23 8 42 8 80 -2 27 -7 76 -13 108 -15 32 -1 63 -5 69 -8 6 -4 25 2 42 13 45 26 52 24 52 -15 0 -18 6 -39 14 -45 15 -13 18 -8 31 57 6 28 16 37 75 67 38 19 76 32 84 29 10 -4 30 7 53 26 30 27 42 31 70 27 18 -3 31 -2 28 3 -3 5 1 28 9 51 11 30 38 63 99 120 131 122 178 210 195 365 11 95 23 114 99 155 24 13 31 25 36 58 3 23 18 59 36 83 23 31 31 53 31 82 0 78 58 134 110 106 30 -16 36 -6 23 41 -10 38 -9 42 22 79 31 37 32 41 27 112 -4 65 -1 80 22 126 14 28 46 74 70 101 43 49 59 82 71 153 6 36 6 37 57 40 l51 3 14 48 c12 41 19 50 58 68 62 29 170 157 194 232 17 50 47 73 153 117 138 56 210 73 292 67 47 -3 80 0 103 10 68 28 133 34 240 22 87 -10 106 -9 125 3 40 26 96 40 216 53 65 8 136 19 160 26 35 11 48 11 75 0 17 -7 61 -18 97 -23 100 -14 152 -24 187 -39 29 -12 37 -11 80 11 44 22 60 24 208 25 143 1 169 4 250 29 181 55 264 69 392 70 73 1 126 5 133 12 8 8 0 27 -28 70 -43 65 -67 127 -63 161 1 13 -5 33 -13 45 -21 29 -21 125 -1 201 17 67 62 159 118 242 44 65 254 305 267 305 4 0 10 -8 14 -17z"
       id="path8"
       style="fill:none" />
    <path
       d="M5872 6987 c-12 -13 -19 -26 -16 -30 4 -3 -10 -29 -31 -58 -20 -28 -39 -68 -42 -88 -3 -20 -22 -70 -43 -111 -47 -93 -64 -171 -51 -230 11 -50 5 -62 -58 -116 -51 -44 -52 -57 -5 -48 32 6 39 3 60 -22 19 -24 23 -41 24 -99 0 -60 5 -78 33 -129 18 -33 38 -61 44 -63 16 -6 31 44 37 122 3 39 17 120 31 181 23 104 48 284 39 293 -5 5 -61 -120 -73 -166 -6 -21 -11 -65 -11 -98 -1 -33 -7 -78 -15 -100 -17 -47 -19 -93 -5 -129 5 -14 5 -28 1 -31 -12 -7 -31 74 -31 134 0 46 48 263 87 391 13 42 16 88 15 193 -1 75 1 137 6 137 4 0 13 -54 20 -120 7 -67 22 -148 32 -181 35 -109 35 -145 2 -250 -30 -95 -46 -199 -31 -199 5 0 16 12 26 26 23 35 128 111 165 119 16 4 32 13 34 20 9 22 -55 245 -93 325 -36 77 -98 256 -109 316 -7 40 -13 42 -42 11z"
       id="path10"
       style="fill:#6699cc" />
    <path
       d="M6489 6971 c-69 -43 -253 -291 -315 -424 -24 -52 -30 -122 -15 -161 6 -16 12 -12 39 30 17 27 50 77 74 111 24 35 56 84 71 110 98 167 135 225 178 280 27 35 49 67 49 73 0 18 -35 10 -81 -19z"
       id="path12"
       style="fill:#6699cc" />
    <path
       d="M5712 6768 c-49 -90 -89 -200 -108 -296 -21 -111 -18 -121 24 -82 15 15 22 33 22 60 0 51 54 261 86 329 36 80 22 73 -24 -11z"
       id="path14"
       style="fill:#6699ff" />
    <path
       d="M5741 6759 c-14 -42 -14 -48 2 -24 19 29 28 55 18 55 -5 0 -14 -14 -20 -31z"
       id="path16"
       style="fill:#990099" />
    <path
       d="M6282 6503 c-46 -79 -72 -129 -72 -138 0 -4 10 -5 22 -3 17 2 27 19 48 84 15 44 33 90 39 102 6 12 9 22 7 22 -3 0 -23 -30 -44 -67z"
       id="path18"
       style="fill:#6699ff" />
    <path
       d="M5910 6489 c0 -49 -8 -100 -24 -153 -23 -75 -46 -190 -46 -226 1 -12 3 -12 14 2 7 10 16 53 19 95 3 43 17 111 31 152 27 76 35 184 16 196 -6 4 -10 -21 -10 -66z"
       id="path20"
       style="fill:#9933ff" />
    <path
       d="M1109 6517 c-86 -24 -204 -108 -235 -168 -8 -16 -14 -30 -14 -33 0 -2 42 17 94 43 51 27 124 56 162 66 78 20 114 39 114 59 0 35 -56 50 -121 33z"
       id="path22"
       style="fill:#6666cc" />
    <path
       d="M5668 6440 c-7 -24 -3 -38 8 -28 3 4 4 17 2 30 l-3 23 -7 -25z"
       id="path24"
       style="fill:#990099" />
    <path
       d="M910 6320 c-44 -27 -69 -50 -78 -71 -7 -17 -12 -33 -10 -34 2 -2 38 30 81 71 43 41 77 74 75 74 -2 -1 -32 -18 -68 -40z"
       id="path26"
       style="fill:#330066" />
    <path
       d="M963 6321 c-26 -21 -66 -58 -88 -82 -33 -36 -30 -34 20 11 33 30 76 67 95 82 19 15 32 27 28 28 -3 0 -28 -17 -55 -39z"
       id="path28"
       style="fill:#6699ff" />
    <path
       d="M6097 6300 c-84 -43 -158 -107 -181 -154 -9 -20 -23 -36 -30 -36 -17 0 -37 -30 -60 -89 -22 -58 -13 -64 86 -57 54 4 94 13 131 31 30 14 63 25 75 25 38 0 51 12 67 60 33 98 149 189 243 190 23 0 42 4 42 8 0 17 -99 39 -220 50 -84 7 -86 7 -153 -28z"
       id="path30"
       style="fill:#333366" />
    <path
       d="M5782 6260 c0 -14 2 -19 5 -12 2 6 2 18 0 25 -3 6 -5 1 -5 -13z"
       id="path32"
       style="fill:none" />
    <path
       d="M5604 6238 c7 -37 85 -170 103 -175 6 -2 1 20 -12 54 -13 32 -27 76 -31 98 -7 43 -18 55 -48 55 -16 0 -17 -5 -12 -32z"
       id="path34"
       style="fill:#6699ff" />
    <path
       d="M5677 6228 c8 -44 13 -48 13 -10 0 17 -4 34 -10 37 -6 4 -7 -6 -3 -27z"
       id="path36"
       style="fill:#990099" />
    <path
       d="M795 6236 c-3 -9 -7 -23 -10 -31 -2 -8 -1 -15 4 -15 10 0 25 50 17 58 -3 2 -8 -3 -11 -12z"
       id="path38"
       style="fill:#333300" />
    <path
       d="M6415 6241 c-47 -8 -73 -21 -99 -49 -22 -26 -19 -31 38 -62 44 -24 47 -24 75 -7 16 9 36 17 44 17 11 0 18 14 22 44 11 68 5 71 -80 57z"
       id="path40"
       style="fill:#330066" />
    <path
       d="M6510 6185 c0 -44 4 -57 18 -62 9 -3 32 -17 51 -31 l34 -25 19 22 c25 32 23 53 -9 83 -29 27 -92 68 -105 68 -5 0 -8 -25 -8 -55z"
       id="path42"
       style="fill:#9999cc" />
    <path
       d="M726 6179 c-55 -65 -70 -104 -74 -199 -3 -75 18 -253 31 -267 7 -7 67 26 67 37 0 5 -9 25 -21 44 -40 68 -35 217 11 312 21 42 38 114 27 114 -3 0 -21 -18 -41 -41z"
       id="path44"
       style="fill:#336666" />
    <path
       d="M6289 6193 c-13 -16 -12 -17 4 -4 9 7 17 15 17 17 0 8 -8 3 -21 -13z"
       id="path46"
       style="fill:none" />
    <path
       d="M6241 6078 c-11 -40 -21 -83 -21 -95 0 -19 4 -21 38 -16 40 6 62 19 62 37 0 6 11 28 25 49 14 20 23 42 20 47 -7 11 -79 50 -93 50 -5 0 -19 -33 -31 -72z"
       id="path48"
       style="fill:#9999cc" />
    <path
       d="M6209 6083 c-18 -47 -22 -80 -23 -176 -1 -79 3 -120 11 -125 6 -4 22 -33 36 -64 14 -32 30 -58 34 -58 4 0 16 12 27 26 18 25 18 28 2 60 -9 19 -16 44 -16 55 0 21 -15 22 -64 3 -26 -10 -17 213 12 284 12 28 18 52 13 52 -5 0 -20 -26 -32 -57z"
       id="path50"
       style="fill:#9999cc" />
    <path
       d="M767 6099 c-15 -75 45 -259 84 -259 33 0 31 20 -4 59 -35 39 -37 45 -65 191 l-8 45 -7 -36z"
       id="path52"
       style="fill:#9933ff" />
    <path
       d="M6645 6084 c-17 -26 -17 -30 -1 -73 9 -25 16 -56 16 -68 0 -25 19 -30 50 -13 15 8 18 17 13 48 -3 20 -14 53 -24 72 -33 63 -34 64 -54 34z"
       id="path54"
       style="fill:#330066" />
    <path
       d="M800 6083 c0 -7 11 -58 25 -121 3 -13 24 -43 46 -67 l40 -44 -33 -17 c-18 -9 -28 -19 -21 -21 6 -2 31 6 55 18 l43 22 -47 41 c-50 44 -71 84 -83 154 -4 23 -11 42 -16 42 -5 0 -9 -3 -9 -7z"
       id="path56"
       style="fill:#6699ff" />
    <path
       d="M738 6060 c-31 -83 -31 -184 -1 -245 27 -53 31 -56 69 -38 36 18 45 33 18 33 -8 0 -13 4 -10 9 3 5 -8 38 -24 73 -17 36 -34 91 -39 124 -4 32 -10 52 -13 44z"
       id="path58"
       style="fill:#6666cc" />
    <path
       d="M5720 6033 c0 -5 9 -18 20 -28 11 -10 20 -14 20 -8 0 5 -9 18 -20 28 -11 10 -20 14 -20 8z"
       id="path60"
       style="fill:#990099" />
    <path
       d="M5640 5988 c-30 -21 -64 -47 -75 -57 -11 -11 -38 -31 -60 -46 l-40 -27 115 7 c81 5 120 11 132 22 10 9 24 13 31 10 8 -3 20 0 26 6 13 13 15 57 2 57 -5 0 -24 15 -42 34 l-34 33 -55 -39z"
       id="path62"
       style="fill:#330066" />
    <path
       d="M6530 6016 c0 -2 7 -17 15 -32 8 -16 18 -46 21 -66 8 -47 24 -39 24 11 0 24 -8 48 -21 65 -18 22 -39 35 -39 22z"
       id="path64"
       style="fill:#66ccff" />
    <path
       d="M5599 5983 c-13 -15 -12 -15 9 -4 23 12 28 21 13 21 -5 0 -15 -7 -22 -17z"
       id="path66"
       style="fill:none" />
    <path
       d="M6097 5985 c-52 -14 -104 -37 -152 -67 l-30 -19 47 3 c34 1 53 -3 68 -17 11 -10 20 -14 20 -10 0 5 5 4 10 -1 15 -15 -13 -235 -52 -407 -17 -79 -27 -142 -22 -147 20 -18 192 -60 247 -60 67 0 187 29 187 45 0 6 -15 35 -33 65 l-33 55 -54 -1 c-35 -1 -71 -9 -97 -23 -52 -26 -55 -14 -9 27 60 53 220 71 284 32 35 -21 36 -48 2 -30 -39 21 -105 7 -70 -15 6 -4 20 -26 31 -51 12 -24 26 -44 33 -44 41 0 113 76 162 172 24 47 78 218 71 225 -3 2 -17 -13 -32 -34 -84 -114 -166 -170 -261 -180 -74 -8 -133 16 -183 74 -62 70 -84 138 -85 263 -1 58 2 117 7 133 8 30 10 30 -56 12z"
       id="path68"
       style="fill:#333366" />
    <path
       d="M618 5929 c-4 -27 -2 -68 6 -103 17 -74 37 -97 25 -29 -5 26 -12 77 -17 113 l-8 65 -6 -46z"
       id="path70"
       style="fill:#333300" />
    <path
       d="M5420 5959 c-128 -11 -308 -37 -326 -47 -12 -7 282 -43 346 -42 8 0 34 23 58 50 24 28 37 49 30 49 -7 -1 -56 -5 -108 -10z"
       id="path72"
       style="fill:#6699ff" />
    <path
       d="M5529 5934 c-19 -21 -25 -32 -14 -25 26 14 65 47 65 55 0 14 -19 3 -51 -30z"
       id="path74"
       style="fill:#336633" />
    <path
       d="M6240 5947 c-22 -12 -25 -19 -22 -62 3 -57 4 -59 35 -51 19 4 26 15 32 43 3 21 9 48 12 61 6 26 -17 30 -57 9z"
       id="path76"
       style="fill:#330066" />
    <path
       d="M5811 5935 c12 -12 127 -11 139 1 5 5 -24 9 -70 9 -53 0 -76 -3 -69 -10z"
       id="path78"
       style="fill:#990099" />
    <path
       d="M5795 5909 c-8 -12 8 -16 35 -9 l25 6 -28 6 c-15 3 -30 2 -32 -3z"
       id="path80"
       style="fill:#990099" />
    <path
       d="M6678 5903 c-19 -5 -31 -90 -15 -110 13 -18 23 -9 40 40 8 23 18 50 22 60 7 17 -7 21 -47 10z"
       id="path82"
       style="fill:#9999cc" />
    <path
       d="M4990 5880 c8 -5 40 -9 70 -9 42 1 49 3 30 9 -38 12 -119 12 -100 0z"
       id="path84"
       style="fill:#99cc66" />
    <path
       d="M5863 5883 c9 -2 23 -2 30 0 6 3 -1 5 -18 5 -16 0 -22 -2 -12 -5z"
       id="path86"
       style="fill:none" />
    <path
       d="M4011 5866 c3 -3 86 -8 185 -10 98 -2 204 -7 234 -10 47 -5 51 -4 25 5 -31 11 -454 26 -444 15z"
       id="path88"
       style="fill:#99cc66" />
    <path
       d="M4968 5861 c-135 -3 -249 -9 -253 -12 -3 -4 2 -23 12 -44 17 -37 18 -37 68 -31 132 15 580 28 768 22 l207 -7 0 35 c0 42 -2 43 -155 25 -64 -7 -119 -7 -172 0 -123 16 -211 18 -475 12z"
       id="path90"
       style="fill:#333366" />
    <path
       d="M5790 5830 l0 -40 40 0 c26 0 43 -5 46 -14 3 -8 0 -83 -6 -166 -13 -165 -15 -155 48 -239 28 -38 42 -29 42 30 0 21 8 47 19 61 25 31 36 75 24 91 -6 8 -5 64 4 156 11 117 11 146 1 153 -7 4 -59 8 -115 8 l-103 0 0 -40z"
       id="path92"
       style="fill:#ccff66" />
    <path
       d="M6038 5855 c-4 -6 -9 -62 -12 -125 l-5 -115 15 100 c14 99 15 160 2 140z"
       id="path94"
       style="fill:#cc9900" />
    <path
       d="M1020 5831 c0 -11 72 -72 78 -67 2 3 -1 14 -7 25 -13 23 -71 57 -71 42z"
       id="path96"
       style="fill:#336633" />
    <path
       d="M3883 5828 c-40 -6 -73 -14 -73 -19 0 -4 36 -19 80 -33 73 -24 84 -25 140 -13 33 6 60 15 60 20 0 4 0 18 0 32 0 24 -2 25 -67 24 -38 -1 -101 -6 -140 -11z"
       id="path98"
       style="fill:#99cc66" />
    <path
       d="M4105 5830 c-7 -12 12 -50 25 -50 6 0 10 -4 10 -10 0 -5 -10 -10 -22 -10 -13 0 -54 -7 -93 -16 -38 -8 -151 -28 -250 -44 -190 -31 -378 -70 -371 -78 5 -4 66 4 436 55 170 23 195 29 308 76 68 27 126 56 129 63 3 9 14 12 28 8 13 -3 26 -1 29 5 5 8 -28 11 -108 11 -64 0 -117 -4 -121 -10z"
       id="path100"
       style="fill:#6699ff" />
    <path
       d="M4638 5827 c-31 -12 -34 -24 -15 -51 11 -15 20 -17 54 -9 l41 8 -13 33 c-15 34 -23 36 -67 19z"
       id="path102"
       style="fill:#330066" />
    <path
       d="M908 5813 c-21 -8 -38 -18 -38 -22 0 -4 23 -36 51 -71 28 -35 60 -83 71 -106 17 -34 78 -89 78 -69 0 8 -64 189 -85 243 -19 46 -23 48 -77 25z"
       id="path104"
       style="fill:#339999" />
    <path
       d="M993 5815 c3 -11 29 -84 58 -163 28 -79 49 -146 45 -149 -3 -4 -17 4 -31 17 -31 29 -37 24 -25 -21 14 -48 13 -93 -6 -179 -20 -93 -37 -132 -127 -290 -67 -118 -73 -133 -99 -260 -15 -74 -28 -145 -28 -157 0 -16 33 11 138 116 108 108 145 153 175 209 44 84 50 120 8 46 -26 -44 -210 -255 -229 -261 -4 -2 -9 42 -10 97 -3 79 -1 103 12 115 26 26 116 183 140 243 13 31 29 85 36 118 11 58 14 62 48 72 20 7 39 8 43 4 11 -14 31 -192 24 -224 -4 -18 -5 -30 -1 -27 14 14 36 174 36 269 0 121 -17 200 -60 274 -32 57 -156 184 -147 151z"
       id="path106"
       style="fill:#336666" />
    <path
       d="M4338 5818 c-34 -14 -37 -32 -4 -24 19 5 26 1 36 -24 7 -17 19 -30 26 -30 8 0 41 15 74 34 45 24 57 35 45 40 -33 12 -150 15 -177 4z"
       id="path108"
       style="fill:#99cc66" />
    <path
       d="M3580 5804 c-75 -20 -91 -39 -25 -29 99 14 148 27 134 36 -19 12 -44 10 -109 -7z"
       id="path110"
       style="fill:#993366" />
    <path
       d="M3726 5798 c-28 -16 -76 -28 -156 -39 -41 -6 -79 -14 -85 -17 -5 -4 -16 -7 -23 -7 -11 0 -75 -85 -68 -92 1 -1 47 8 102 21 54 13 164 34 244 46 80 12 153 24 162 28 13 5 -9 16 -70 38 -65 23 -93 29 -106 22z"
       id="path112"
       style="fill:#6699ff" />
    <path
       d="M4505 5775 l-50 -23 62 -1 c34 -1 69 2 78 5 14 6 14 8 -1 25 -21 24 -27 23 -89 -6z"
       id="path114"
       style="fill:#ff33ff" />
    <path
       d="M4183 5752 c-45 -20 -81 -37 -80 -38 3 -3 251 18 255 21 2 2 1 12 -2 23 -5 14 -13 18 -30 15 -13 -3 -27 0 -30 6 -10 16 -21 13 -113 -27z"
       id="path116"
       style="fill:#99cc66" />
    <path
       d="M809 5760 l-24 -20 30 -25 c37 -32 154 -115 161 -115 18 0 -114 179 -132 180 -7 0 -22 -9 -35 -20z"
       id="path118"
       style="fill:#6666cc" />
    <path
       d="M4930 5767 c-91 -5 -167 -11 -169 -13 -10 -9 12 -13 149 -24 150 -12 212 -30 218 -62 6 -31 -128 -78 -222 -78 -52 0 -56 -7 -21 -40 24 -23 25 -23 83 -6 32 9 73 16 91 16 30 0 33 -2 27 -25 -8 -30 -10 -30 84 -5 119 31 117 32 125 -53 4 -40 5 -84 3 -97 -5 -35 -57 -61 -132 -67 -75 -6 -81 0 -92 90 -9 76 -19 89 -44 57 -11 -14 -20 -28 -20 -32 0 -4 14 -29 30 -56 44 -69 62 -142 64 -257 2 -68 8 -112 20 -138 13 -30 15 -54 11 -110 -8 -94 18 -201 55 -229 24 -18 27 -17 130 8 58 14 174 38 259 54 85 16 157 32 161 37 17 19 74 558 82 768 0 17 -11 82 -24 145 l-25 115 -69 7 c-38 4 -131 7 -207 6 l-138 -1 -50 -45 c-27 -24 -55 -54 -61 -65 -6 -12 16 3 48 32 32 29 68 57 79 63 11 6 -9 -17 -45 -50 l-65 -60 75 24 c92 30 180 44 286 44 77 0 144 -14 144 -29 0 -18 -131 -37 -355 -52 -106 -7 -167 -15 -182 -25 -12 -8 -25 -14 -28 -14 -16 0 55 107 94 141 l44 39 -124 -2 c-68 0 -198 -5 -289 -11z m536 -285 c-9 -77 -9 -474 0 -562 l6 -68 -41 -26 c-22 -14 -44 -26 -48 -26 -10 1 -63 77 -63 90 0 5 -12 17 -26 27 -35 23 -74 107 -74 160 0 100 45 223 127 345 43 64 96 118 117 118 5 0 6 -26 2 -58z m143 33 c16 -8 47 -35 69 -60 49 -56 68 -125 58 -208 -7 -55 -14 -72 -92 -212 -27 -49 -40 -87 -44 -125 -4 -45 -9 -56 -25 -58 -11 -1 -28 3 -37 10 -16 12 -18 45 -20 341 l-3 327 33 0 c18 0 46 -7 61 -15z"
       id="path120"
       style="fill:#339999" />
    <path
       d="M5418 5493 c-28 -32 -95 -176 -118 -252 -53 -179 -1 -336 123 -366 l27 -7 0 65 c0 95 -10 157 -26 157 -20 0 -19 96 1 104 19 7 19 65 0 90 -21 28 -18 113 5 165 11 24 20 47 20 52 0 15 -16 10 -32 -8z"
       id="path122"
       style="fill:#6666cc" />
    <path
       d="M5431 5411 c-8 -27 -10 -58 -5 -80 7 -35 8 -35 16 24 11 82 5 113 -11 56z"
       id="path124"
       style="fill:#cc0066" />
    <path
       d="M5297 5311 c-62 -134 -75 -247 -37 -321 21 -41 50 -69 35 -34 -32 76 -37 102 -31 164 9 82 32 172 57 223 11 21 18 41 16 43 -2 2 -20 -31 -40 -75z"
       id="path126"
       style="fill:#330000" />
    <path
       d="M5426 5143 c9 -52 14 -54 14 -5 0 23 -5 42 -10 42 -7 0 -8 -14 -4 -37z"
       id="path128"
       style="fill:#cc0066" />
    <path
       d="M5362 4850 c21 -29 47 -33 71 -10 7 6 -71 40 -90 40 -2 0 6 -14 19 -30z"
       id="path130"
       style="fill:#cc9900" />
    <path
       d="M5532 5504 c31 -108 32 -113 20 -166 -25 -104 -25 -111 -9 -123 19 -14 26 -103 10 -113 -12 -8 -21 -158 -10 -168 11 -11 107 148 123 204 21 70 15 180 -13 243 -22 49 -74 113 -106 131 -17 9 -19 8 -15 -8z"
       id="path132"
       style="fill:#6666cc" />
    <path
       d="M5619 5463 c62 -78 92 -195 73 -282 -12 -49 -1 -44 17 8 14 44 14 133 -1 183 -12 39 -87 128 -108 128 -6 0 3 -17 19 -37z"
       id="path134"
       style="fill:#330000" />
    <path
       d="M5533 5385 c0 -27 2 -38 4 -22 2 15 2 37 0 50 -2 12 -4 0 -4 -28z"
       id="path136"
       style="fill:none" />
    <path
       d="M5530 5156 c0 -19 5 -38 10 -41 6 -4 10 10 10 34 0 23 -4 41 -10 41 -5 0 -10 -15 -10 -34z"
       id="path138"
       style="fill:#cc0066" />
    <path
       d="M5557 4905 c-17 -23 -17 -25 3 -35 18 -10 20 -8 20 25 0 19 -1 35 -2 35 -2 0 -11 -12 -21 -25z"
       id="path140"
       style="fill:#cc9900" />
    <path
       d="M3235 5755 c-56 -15 -150 -54 -144 -59 4 -4 241 36 292 49 21 6 25 10 15 16 -19 13 -106 10 -163 -6z"
       id="path142"
       style="fill:#993366" />
    <path
       d="M5793 5753 c3 -10 11 -49 18 -88 l13 -70 17 75 c24 101 25 100 -17 100 -29 0 -34 -3 -31 -17z"
       id="path144"
       style="fill:#9933ff" />
    <path
       d="M6195 5730 c8 -40 30 -86 45 -95 13 -8 13 -9 -14 58 -28 69 -41 85 -31 37z"
       id="path146"
       style="fill:#99cc66" />
    <path
       d="M6620 5734 c-8 -14 -27 -35 -42 -46 -20 -14 -28 -28 -28 -49 0 -37 9 -37 46 4 43 45 66 86 60 103 -8 21 -21 17 -36 -12z"
       id="path148"
       style="fill:#330066" />
    <path
       d="M6730 5748 c1 -7 7 -26 16 -43 l14 -30 -5 34 c-3 18 -5 37 -5 42 0 5 -4 9 -10 9 -5 0 -10 -6 -10 -12z"
       id="path150"
       style="fill:#990099" />
    <path
       d="M4650 5745 c0 -10 122 -255 129 -260 7 -4 86 21 100 32 3 2 -7 16 -21 31 -14 15 -49 66 -77 115 -51 86 -52 87 -91 87 -22 0 -40 -2 -40 -5z"
       id="path152"
       style="fill:#330066" />
    <path
       d="M4515 5733 c-38 -2 -80 -5 -93 -8 l-23 -6 23 -32 c23 -32 190 -234 279 -337 26 -30 57 -66 68 -80 l19 -25 31 29 30 29 -36 66 c-20 36 -40 70 -44 75 -4 5 -28 -3 -54 -17 -26 -15 -45 -21 -43 -14 3 7 23 22 46 35 39 22 40 25 30 48 -11 24 -16 25 -68 21 -47 -4 -60 -1 -92 20 -21 14 -38 33 -38 41 0 16 43 96 67 124 17 20 9 39 -15 36 -9 -1 -48 -3 -87 -5z"
       id="path154"
       style="fill:#333366" />
    <path
       d="M1140 5701 c26 -37 46 -86 65 -154 13 -48 14 -49 14 -17 0 19 -6 46 -14 60 -8 14 -14 37 -15 52 0 26 -43 88 -62 88 -5 0 0 -13 12 -29z"
       id="path156"
       style="fill:#330000" />
    <path
       d="M3369 5726 c-4 -4 -279 -51 -363 -61 l-48 -7 5 -35 c4 -20 8 -37 9 -39 2 -1 71 8 153 21 83 12 171 26 197 29 42 6 52 13 78 52 l31 44 -29 0 c-16 0 -31 -2 -33 -4z"
       id="path158"
       style="fill:#6699ff" />
    <path
       d="M4165 5700 l-160 -18 -150 -82 c-82 -46 -159 -89 -170 -97 -19 -14 -19 -15 5 -8 14 4 41 15 60 25 94 47 380 140 431 140 24 0 139 38 154 52 6 5 6 7 0 7 -6 -1 -82 -10 -170 -19z"
       id="path160"
       style="fill:#99cc66" />
    <path
       d="M4783 5713 c9 -2 23 -2 30 0 6 3 -1 5 -18 5 -16 0 -22 -2 -12 -5z"
       id="path162"
       style="fill:none" />
    <path
       d="M4297 5682 c-37 -15 -65 -31 -63 -37 3 -5 21 -48 41 -95 76 -177 114 -250 130 -250 8 0 15 7 15 15 0 19 31 35 67 35 20 0 40 11 63 35 19 19 37 35 41 35 3 0 24 -34 45 -75 22 -42 58 -101 82 -133 23 -31 42 -60 42 -65 0 -24 -59 -128 -111 -193 l-59 -74 27 -50 c16 -27 31 -50 34 -50 7 0 28 50 54 125 13 36 35 66 76 107 33 31 59 65 59 75 0 32 -86 171 -162 260 -146 173 -234 279 -267 321 -18 23 -36 42 -39 41 -4 -1 -37 -13 -75 -27z"
       id="path164"
       style="fill:#6666cc" />
    <path
       d="M4840 5703 c-51 -8 -52 -10 -30 -52 11 -22 24 -42 29 -45 25 -16 205 37 198 58 -10 34 -108 54 -197 39z"
       id="path166"
       style="fill:#330000" />
    <path
       d="M763 5678 c-41 -29 -41 -38 -1 -38 109 0 247 -155 248 -279 1 -31 2 -33 11 -18 15 25 7 155 -11 192 -12 23 -188 162 -210 164 -3 1 -20 -9 -37 -21z"
       id="path168"
       style="fill:#ccff66" />
    <path
       d="M5045 5680 c15 -16 15 -22 5 -35 -15 -18 -1 -20 35 -3 14 6 25 17 25 23 0 13 -42 35 -67 35 -14 0 -14 -2 2 -20z"
       id="path170"
       style="fill:#333300" />
    <path
       d="M5438 5685 c-96 -19 -120 -36 -43 -30 177 14 302 28 315 36 24 14 -197 9 -272 -6z"
       id="path172"
       style="fill:#330000" />
    <path
       d="M6291 5664 c-17 -19 -31 -39 -31 -44 0 -5 18 -21 39 -36 50 -33 74 -26 89 25 16 51 17 46 -27 70 l-40 20 -30 -35z m38 -55 c18 -21 31 -39 28 -39 -11 0 -77 62 -77 71 0 17 15 7 49 -32z"
       id="path174"
       style="fill:#330066" />
    <path
       d="M6701 5624 c-44 -153 -122 -274 -203 -315 -41 -21 -50 -39 -20 -39 22 0 39 -18 75 -82 47 -82 117 -144 182 -163 55 -16 79 -16 118 0 9 4 17 3 17 -3 0 -18 -58 -34 -99 -27 -72 12 -44 -3 73 -41 111 -35 115 -36 147 -20 19 9 35 12 38 7 11 -17 50 13 81 62 29 47 40 97 20 97 -5 0 -10 -8 -10 -18 0 -22 -68 -132 -82 -132 -6 0 -3 10 6 23 68 94 88 187 52 241 -27 41 -56 51 -108 35 -37 -12 -47 -21 -71 -69 -19 -36 -27 -66 -25 -87 4 -34 -8 -43 -30 -21 -27 27 -6 92 49 156 35 40 35 45 4 103 -25 49 -24 59 8 59 29 0 4 27 -33 35 -38 8 -51 26 -99 135 -69 158 -64 154 -90 64z m319 -428 c0 -14 -24 -66 -30 -66 -4 0 -10 9 -13 21 -7 25 -24 17 -38 -18 -13 -36 8 -76 46 -84 26 -5 28 -7 11 -14 -48 -21 -99 49 -74 102 14 30 98 80 98 59z"
       id="path176"
       style="fill:#333366" />
    <path
       d="M4628 5664 c-35 -19 -50 -47 -42 -79 6 -25 8 -26 63 -19 31 3 57 8 59 9 3 3 -46 105 -51 105 -1 -1 -14 -7 -29 -16z"
       id="path178"
       style="fill:#330000" />
    <path
       d="M5845 5617 c-4 -36 -5 -71 -3 -79 3 -7 8 20 13 60 4 40 5 76 2 78 -3 3 -8 -24 -12 -59z"
       id="path180"
       style="fill:#336633" />
    <path
       d="M3840 5660 c-19 -5 -96 -16 -170 -24 -278 -33 -311 -40 -338 -72 -18 -22 -84 -147 -130 -247 -3 -5 13 2 34 15 25 17 42 37 51 64 48 143 57 150 122 85 l38 -38 214 109 c187 95 235 121 218 117 -2 -1 -20 -5 -39 -9z"
       id="path182"
       style="fill:#3333ff" />
    <path
       d="M3856 5634 c-44 -19 -85 -38 -90 -43 -6 -4 -132 -70 -281 -146 -148 -75 -279 -145 -290 -155 -25 -22 -197 -111 -203 -105 -2 2 -8 55 -13 117 -12 170 -19 208 -38 208 -16 0 -101 -36 -101 -43 0 -16 45 -247 60 -307 10 -41 21 -88 25 -103 l6 -29 34 26 c19 15 119 85 222 158 103 72 204 143 223 158 19 15 64 42 100 60 36 19 72 37 80 41 282 148 375 198 360 198 -8 -1 -51 -16 -94 -35z"
       id="path184"
       style="fill:#6666cc" />
    <path
       d="M6407 5616 c-9 -27 -12 -48 -6 -51 8 -6 128 20 136 29 2 2 1 15 -3 30 -5 22 -12 26 -44 26 -21 0 -45 3 -53 6 -11 4 -19 -8 -30 -40z"
       id="path186"
       style="fill:#9999cc" />
    <path
       d="M4043 5611 c-123 -37 -245 -82 -239 -88 5 -5 346 106 346 113 0 7 -11 4 -107 -25z"
       id="path188"
       style="fill:#ff6633" />
    <path
       d="M4185 5603 c-30 -58 -29 -61 4 -23 30 34 39 60 23 60 -5 0 -17 -17 -27 -37z"
       id="path190"
       style="fill:#ff33ff" />
    <path
       d="M720 5616 c0 -10 9 -16 25 -16 50 0 105 -32 160 -93 30 -34 57 -58 60 -55 17 17 -70 120 -124 148 -20 9 -55 21 -78 25 -36 6 -43 4 -43 -9z"
       id="path192"
       style="fill:#6666cc" />
    <path
       d="M4050 5583 c-69 -23 -182 -59 -252 -78 -69 -19 -165 -52 -212 -74 -47 -22 -86 -35 -86 -30 0 5 5 9 12 9 6 0 9 3 6 6 -4 3 -36 -13 -73 -36 -76 -49 -80 -63 -6 -26 28 14 55 26 60 26 10 0 51 -118 51 -146 0 -24 54 -154 63 -154 5 0 71 38 146 84 76 46 156 93 180 105 23 12 45 30 48 39 3 9 34 55 68 102 51 69 131 210 122 216 -1 0 -58 -19 -127 -43z m-90 -150 c12 -34 20 -68 17 -76 -3 -8 -43 -29 -89 -47 -45 -18 -109 -46 -142 -62 -33 -17 -62 -26 -67 -21 -13 13 -59 134 -59 155 0 13 8 18 29 18 16 0 57 13 92 29 105 48 184 78 190 72 4 -3 17 -34 29 -68z"
       id="path194"
       style="fill:#330066" />
    <path
       d="M3910 5483 c1 -11 39 -80 40 -72 0 11 -30 79 -35 79 -3 0 -5 -3 -5 -7z"
       id="path196"
       style="fill:#ff33ff" />
    <path
       d="M3807 5445 c-64 -27 -147 -67 -147 -72 0 -1 7 -20 16 -42 10 -26 25 -43 45 -51 26 -11 38 -8 121 27 56 24 94 47 96 57 5 24 -39 106 -57 106 -9 -1 -42 -12 -74 -25z"
       id="path198"
       style="fill:#99cc66" />
    <path
       d="M3646 5347 c3 -10 9 -15 12 -12 3 3 0 11 -7 18 -10 9 -11 8 -5 -6z"
       id="path200"
       style="fill:none" />
    <path
       d="M3674 5273 c11 -22 21 -30 32 -26 8 3 14 6 12 7 -2 0 -16 12 -32 26 l-29 25 17 -32z"
       id="path202"
       style="fill:#ff33ff" />
    <path
       d="M3190 5599 c-69 -10 -147 -24 -175 -30 -37 -9 -50 -9 -53 0 -6 18 -19 13 -57 -20 -37 -33 -47 -56 -17 -41 36 20 174 52 332 77 91 15 167 29 169 31 9 9 -80 1 -199 -17z"
       id="path204"
       style="fill:#993366" />
    <path
       d="M6012 5590 c0 -14 2 -19 5 -12 2 6 2 18 0 25 -3 6 -5 1 -5 -13z"
       id="path206"
       style="fill:none" />
    <path
       d="M4159 5517 c-77 -95 -89 -117 -118 -211 -29 -95 -27 -142 9 -211 52 -99 135 -218 204 -295 37 -41 92 -112 122 -157 l55 -82 37 16 c20 9 59 21 86 27 48 11 48 11 67 71 24 78 24 80 -12 136 l-30 48 -81 -80 c-44 -43 -84 -79 -88 -79 -4 0 -15 20 -24 44 -14 37 -199 279 -274 359 -26 27 -26 29 -8 39 10 6 35 25 55 43 20 19 73 55 116 80 44 26 81 49 83 50 2 2 -10 29 -26 61 -16 33 -43 96 -61 142 -19 45 -36 82 -40 82 -3 0 -36 -37 -72 -83z"
       id="path208"
       style="fill:#ccff66" />
    <path
       d="M3162 5559 c-149 -27 -182 -37 -182 -56 0 -51 24 -293 29 -293 28 1 35 23 36 107 0 106 21 154 86 199 35 24 53 29 107 30 49 1 67 5 74 17 12 22 -12 21 -150 -4z"
       id="path210"
       style="fill:#3333ff" />
    <path
       d="M4663 5553 c-24 -2 -43 -8 -43 -14 0 -10 59 -12 84 -3 16 6 23 26 9 22 -5 -1 -27 -3 -50 -5z"
       id="path212"
       style="fill:#99cc66" />
    <path
       d="M6820 5546 c0 -13 43 -91 54 -98 27 -18 24 -4 -10 45 -41 59 -44 63 -44 53z"
       id="path214"
       style="fill:#cc9900" />
    <path
       d="M4972 5528 c-24 -5 -46 -16 -48 -23 -3 -8 -34 -23 -69 -35 l-63 -21 35 -62 c19 -34 36 -64 38 -66 6 -5 205 196 205 208 0 13 -38 13 -98 -1z"
       id="path216"
       style="fill:#6699ff" />
    <path
       d="M5172 5516 c-45 -13 -85 -26 -89 -29 -5 -6 12 -135 19 -142 2 -2 35 5 73 16 78 21 85 22 85 11 0 -4 -27 -14 -60 -21 -72 -16 -80 -31 -11 -20 57 9 91 24 92 42 2 34 -3 134 -7 150 -6 20 1 21 -102 -7z m18 -24 c0 -4 -17 -14 -37 -22 -21 -8 -42 -17 -46 -19 -5 -2 -7 5 -5 15 4 23 88 48 88 26z"
       id="path218"
       style="fill:#330066" />
    <path
       d="M3232 5519 c-76 -15 -102 -37 -133 -114 -30 -74 -36 -124 -18 -142 19 -19 84 20 108 64 40 72 100 203 93 202 -4 -1 -27 -5 -50 -10z"
       id="path220"
       style="fill:#9933ff" />
    <path
       d="M5837 5493 c-4 -3 -6 -34 -5 -67 l1 -61 7 65 c7 70 7 73 -3 63z"
       id="path222"
       style="fill:#336633" />
    <path
       d="M3378 5458 c9 -18 18 -35 19 -37 1 -2 10 -1 19 3 15 6 14 10 -11 36 -37 39 -48 38 -27 -2z"
       id="path224"
       style="fill:#990000" />
    <path
       d="M3087 5453 c-8 -15 -17 -41 -20 -58 -4 -19 2 -11 18 24 26 56 28 85 2 34z"
       id="path226"
       style="fill:#990000" />
    <path
       d="M3313 5425 c-12 -30 -17 -55 -12 -55 16 0 79 34 79 42 0 15 -30 68 -39 68 -4 0 -17 -25 -28 -55z"
       id="path228"
       style="fill:#990000" />
    <path
       d="M2770 5393 c-49 -40 -79 -82 -52 -72 18 7 113 101 110 109 -2 4 -28 -13 -58 -37z"
       id="path230"
       style="fill:#993366" />
    <path
       d="M1222 5375 c0 -59 0 -60 10 -22 7 27 7 45 0 60 -9 18 -11 11 -10 -38z"
       id="path232"
       style="fill:#6666cc" />
    <path
       d="M5847 5380 c-4 -30 -7 -73 -7 -95 0 -22 -14 -149 -32 -282 -17 -133 -28 -246 -24 -250 11 -11 24 16 36 77 21 101 31 130 50 140 22 12 37 69 21 80 -9 5 -9 19 -2 51 6 24 11 58 11 76 0 20 7 37 20 46 11 8 25 29 30 47 9 31 6 37 -33 80 -23 25 -47 55 -53 65 -9 16 -12 11 -17 -35z"
       id="path234"
       style="fill:#ccff66" />
    <path
       d="M2753 5328 c-98 -101 -161 -188 -211 -291 -67 -136 -85 -194 -69 -226 7 -14 18 -26 24 -26 12 0 77 84 71 91 -2 2 -21 -8 -42 -22 -21 -14 -40 -23 -43 -20 -8 7 -10 5 60 49 31 20 57 40 57 44 0 5 -13 14 -30 21 -22 10 -30 20 -30 39 0 30 73 133 94 133 21 0 39 -28 38 -60 0 -17 1 -30 3 -30 2 0 16 15 30 34 23 30 25 37 13 55 -7 12 -21 24 -31 27 -26 8 -15 48 29 101 56 68 100 57 106 -26 l3 -43 23 18 23 19 -18 93 c-9 50 -20 92 -23 92 -3 0 -38 -33 -77 -72z"
       id="path236"
       style="fill:#3333ff" />
    <path
       d="M4970 5388 c0 -6 11 -39 25 -73 26 -65 49 -199 60 -345 8 -93 -13 -287 -40 -378 -9 -29 -13 -57 -10 -62 13 -21 135 -10 267 24 73 19 150 37 171 41 31 5 37 10 37 30 0 31 -7 31 -66 0 -42 -23 -58 -25 -164 -25 l-118 0 -10 63 c-6 34 -14 105 -17 157 -4 52 -22 184 -41 293 -27 154 -40 209 -60 243 -27 45 -34 52 -34 32z"
       id="path238"
       style="fill:#6699ff" />
    <path
       d="M5022 5355 c20 -36 57 -193 58 -249 0 -21 3 -27 11 -19 25 25 -48 303 -80 303 -6 0 -1 -16 11 -35z"
       id="path240"
       style="fill:#336633" />
    <path
       d="M974 5366 c-3 -9 -3 -31 0 -49 9 -46 -16 -132 -70 -239 -25 -51 -39 -86 -31 -78 8 8 38 60 66 116 45 89 52 110 56 177 4 71 -7 110 -21 73z"
       id="path242"
       style="fill:#6666cc" />
    <path
       d="M6938 5373 c-23 -6 -22 -9 2 -48 16 -26 25 -31 45 -27 14 2 27 8 30 12 8 12 -59 67 -77 63z"
       id="path244"
       style="fill:#ccff66" />
    <path
       d="M4495 5325 c-49 -24 -139 -65 -200 -90 -93 -39 -189 -98 -174 -107 2 -2 13 -8 24 -14 11 -6 21 -20 23 -32 2 -11 14 -28 28 -36 13 -9 24 -23 24 -32 0 -8 18 -32 40 -54 22 -22 40 -46 40 -54 0 -8 9 -18 21 -21 11 -4 27 -22 35 -41 8 -20 25 -39 39 -44 14 -5 25 -18 25 -28 0 -10 3 -21 6 -25 30 -30 314 328 314 396 0 8 -15 34 -34 58 -19 24 -50 71 -68 103 -18 33 -37 61 -43 63 -5 1 -50 -17 -100 -42z m73 -317 c33 -33 -7 -102 -56 -96 -23 2 -28 9 -30 36 -6 56 51 95 86 60z"
       id="path246"
       style="fill:#339999" />
    <path
       d="M4509 4974 c-10 -13 -10 -17 2 -25 19 -12 25 -11 40 7 10 13 10 17 -2 25 -19 12 -25 11 -40 -7z"
       id="path248"
       style="fill:#ff6633" />
    <path
       d="M1094 5350 c-28 -11 -46 -105 -42 -214 l3 -80 -73 -48 c-87 -58 -115 -98 -106 -148 3 -19 7 -37 9 -38 12 -13 80 26 118 67 88 94 127 208 127 370 0 56 -3 101 -7 100 -5 0 -18 -4 -29 -9z"
       id="path250"
       style="fill:#339999" />
    <path
       d="M3398 5321 c-73 -39 -118 -65 -214 -128 -41 -26 -54 -43 -74 -90 -13 -32 -48 -101 -78 -155 l-54 -96 51 -70 c28 -38 51 -74 51 -79 0 -5 -11 -20 -25 -33 -52 -49 -22 -38 44 16 l68 56 -15 41 c-9 25 -16 78 -16 127 -1 79 2 90 36 157 21 40 52 89 70 109 56 63 196 164 230 164 9 0 20 5 23 10 13 20 -25 9 -97 -29z"
       id="path252"
       style="fill:#6699ff" />
    <path
       d="M4006 5310 c-16 -34 -23 -62 -20 -76 8 -31 24 -31 24 -1 0 13 7 46 15 72 19 66 11 68 -19 5z"
       id="path254"
       style="fill:#ff6633" />
    <path
       d="M4908 5336 c-35 -27 -35 -38 2 -130 43 -110 83 -272 84 -346 1 -80 -18 -123 -108 -236 -44 -56 -95 -104 -167 -159 -57 -42 -108 -81 -113 -85 -14 -13 116 -4 147 10 48 23 29 28 -34 9 -33 -10 -66 -19 -72 -18 -20 1 113 45 210 69 l92 23 6 41 c4 22 20 95 37 161 26 104 30 140 31 270 2 147 1 152 -36 275 -21 69 -41 128 -45 132 -4 3 -19 -3 -34 -16z"
       id="path256"
       style="fill:#6666cc" />
    <path
       d="M3433 5310 c-44 -20 -59 -36 -22 -25 11 4 37 8 57 9 20 2 38 6 40 10 12 31 -15 34 -75 6z"
       id="path258"
       style="fill:#993366" />
    <path
       d="M4330 5280 c-19 -11 -31 -19 -27 -20 11 0 67 29 67 35 0 7 -1 7 -40 -15z"
       id="path260"
       style="fill:none" />
    <path
       d="M5951 5210 c-12 -51 -21 -96 -21 -100 0 -5 21 11 46 36 25 25 73 58 107 74 l62 28 -70 21 c-39 12 -77 24 -87 27 -13 4 -20 -11 -37 -86z"
       id="path262"
       style="fill:#6699ff" />
    <path
       d="M4980 5285 c0 -5 5 -17 10 -25 5 -8 10 -10 10 -5 0 6 -5 17 -10 25 -5 8 -10 11 -10 5z"
       id="path264"
       style="fill:none" />
    <path
       d="M6974 5274 c-17 -14 -17 -15 -1 -10 10 3 27 6 38 6 10 0 19 5 19 10 0 15 -34 12 -56 -6z"
       id="path266"
       style="fill:#330000" />
    <path
       d="M3392 5268 c-34 -11 -41 -19 -145 -153 -84 -110 -97 -137 -96 -210 0 -55 16 -127 18 -83 1 9 25 65 55 125 62 123 136 205 239 263 72 40 74 64 7 67 -25 1 -60 -3 -78 -9z"
       id="path268"
       style="fill:#9933ff" />
    <path
       d="M4824 5257 l-29 -25 32 -69 c18 -37 40 -93 49 -123 9 -30 33 -88 52 -127 60 -126 69 -84 21 101 -28 112 -73 241 -89 259 -4 5 -20 -3 -36 -16z"
       id="path270"
       style="fill:#330066" />
    <path
       d="M6363 5262 c-35 -8 -63 -18 -63 -21 0 -3 24 -18 53 -34 29 -15 101 -56 159 -91 l107 -63 -60 66 c-33 36 -74 87 -91 113 -17 27 -34 47 -37 47 -3 -1 -34 -8 -68 -17z"
       id="path272"
       style="fill:#339999" />
    <path
       d="M2753 5258 c-14 -7 -25 -24 -29 -44 -10 -55 -1 -62 35 -26 27 27 31 35 21 47 -17 20 -5 31 15 15 13 -11 14 -10 9 4 -7 18 -19 19 -51 4z"
       id="path274"
       style="fill:#990000" />
    <path
       d="M3734 5132 l-209 -128 3 -45 c2 -24 15 -89 28 -144 31 -126 49 -218 75 -370 25 -149 76 -377 97 -429 l15 -39 19 24 c11 13 94 104 186 203 173 185 298 296 389 348 29 16 53 34 53 38 0 12 -108 154 -175 230 -67 77 -155 216 -202 320 -48 106 -56 120 -63 120 -4 0 -101 -58 -216 -128z m319 -112 c213 -350 247 -410 247 -427 0 -20 -32 -53 -115 -118 -101 -80 -324 -307 -346 -353 l-22 -45 -39 129 c-39 130 -61 222 -99 414 -12 58 -34 150 -49 205 -15 55 -25 105 -21 112 10 20 85 70 163 109 72 37 196 84 210 81 4 -1 36 -49 71 -107z"
       id="path276"
       style="fill:#333366" />
    <path
       d="M3867 5076 c-54 -22 -99 -49 -52 -32 11 5 46 17 78 28 31 11 57 22 57 24 0 9 -28 2 -83 -20z"
       id="path278"
       style="fill:#ff6633" />
    <path
       d="M3915 5069 c-112 -43 -127 -53 -168 -109 -22 -30 -53 -69 -69 -86 l-29 -31 27 -134 c14 -74 29 -144 31 -157 5 -20 9 -22 37 -15 17 4 72 8 121 7 97 -1 181 -24 231 -63 15 -12 30 -21 34 -21 13 0 139 100 149 119 8 15 -8 49 -86 177 -52 88 -118 198 -147 246 -29 50 -57 87 -66 87 -8 -1 -37 -10 -65 -20z m103 -113 c40 -21 70 -56 87 -105 26 -75 20 -99 -47 -205 l-63 -98 -44 7 c-87 13 -185 43 -197 60 -14 19 -38 119 -49 200 -6 48 -4 53 27 84 18 19 53 42 78 51 56 22 171 25 208 6z"
       id="path280"
       style="fill:#6699ff" />
    <path
       d="M3870 4951 c-53 -11 -111 -43 -133 -73 -18 -24 -19 -33 -9 -100 6 -41 17 -92 24 -114 l13 -39 85 -6 c47 -3 100 -11 118 -18 18 -7 34 -12 35 -10 1 2 25 37 52 78 43 63 50 80 48 117 -2 55 -38 122 -79 146 -36 21 -105 30 -154 19z m98 -82 c2 -14 -6 -36 -16 -50 -17 -20 -24 -22 -48 -14 -21 8 -30 18 -32 38 -5 40 14 59 57 55 30 -3 36 -7 39 -29z"
       id="path282"
       style="fill:#339999" />
    <path
       d="M3903 4873 c-17 -6 -16 -40 1 -46 21 -8 50 17 43 37 -6 16 -21 19 -44 9z"
       id="path284"
       style="fill:#ff6633" />
    <path
       d="M3880 4592 c8 -5 33 -13 55 -16 30 -6 37 -5 29 4 -6 6 -31 14 -55 16 -30 4 -39 2 -29 -4z"
       id="path286"
       style="fill:#cc0066" />
    <path
       d="M3720 5005 c-14 -8 -20 -14 -15 -14 6 0 21 6 35 14 14 8 21 14 15 14 -5 0 -21 -6 -35 -14z"
       id="path288"
       style="fill:none" />
    <path
       d="M3677 4962 c-56 -25 -58 -27 -51 -56 10 -47 14 -49 41 -24 30 28 87 108 76 107 -4 0 -34 -12 -66 -27z"
       id="path290"
       style="fill:#99cc66" />
    <path
       d="M3755 4523 c-11 -3 -23 -8 -27 -11 -11 -11 47 -257 88 -372 3 -9 18 9 41 50 43 77 104 140 191 199 35 23 61 48 59 54 -6 19 -77 55 -142 72 -56 14 -166 18 -210 8z m172 -74 c27 -10 23 -25 -36 -151 -44 -95 -58 -111 -66 -76 -9 43 -35 203 -35 218 1 35 18 -18 30 -95 7 -44 16 -86 20 -93 4 -8 23 22 49 78 23 50 39 95 36 100 -3 5 -30 12 -60 15 -31 4 -52 11 -49 17 6 10 71 2 111 -13z"
       id="path292"
       style="fill:#9933ff" />
    <path
       d="M3951 4291 c-17 -16 -31 -33 -31 -37 0 -4 16 7 35 26 19 19 35 35 35 37 0 8 -10 1 -39 -26z"
       id="path294"
       style="fill:#ff33ff" />
    <path
       d="M2632 5243 c-13 -5 -56 -82 -49 -89 2 -2 18 17 36 42 34 46 36 55 13 47z"
       id="path296"
       style="fill:#993366" />
    <path
       d="M6490 5229 c7 -11 14 -19 16 -16 7 7 -7 37 -17 37 -6 0 -5 -9 1 -21z"
       id="path298"
       style="fill:none" />
    <path
       d="M5813 5190 c0 -30 2 -43 4 -27 2 15 2 39 0 55 -2 15 -4 2 -4 -28z"
       id="path300"
       style="fill:none" />
    <path
       d="M2792 5206 c-6 -14 -23 -32 -37 -42 -27 -17 -34 -44 -12 -44 21 0 56 43 63 78 8 38 2 41 -14 8z"
       id="path302"
       style="fill:#990000" />
    <path
       d="M3516 5199 c-9 -45 -7 -167 2 -173 5 -3 23 4 41 15 24 15 31 24 26 37 -4 9 -18 46 -32 82 -14 36 -26 66 -28 68 -1 1 -5 -12 -9 -29z"
       id="path304"
       style="fill:#ff33ff" />
    <path
       d="M5916 5189 c-3 -17 -6 -43 -5 -58 l1 -26 7 25 c15 49 20 90 12 90 -5 0 -11 -14 -15 -31z"
       id="path306"
       style="fill:#990099" />
    <path
       d="M3243 5153 c-23 -32 -40 -60 -37 -62 5 -5 18 11 65 77 16 23 26 42 22 42 -4 0 -27 -26 -50 -57z"
       id="path308"
       style="fill:#993366" />
    <path
       d="M3437 5177 c-31 -22 -57 -53 -78 -93 -17 -32 -46 -79 -64 -104 -44 -61 -118 -197 -113 -210 2 -6 19 3 39 19 25 21 53 65 92 144 30 62 75 135 99 162 56 63 92 115 80 115 -4 0 -29 -15 -55 -33z"
       id="path310"
       style="fill:#333300" />
    <path
       d="M2807 5142 c-58 -47 -167 -168 -167 -185 0 -13 75 32 114 69 20 18 58 45 86 59 31 16 50 32 50 43 0 25 -11 62 -19 62 -3 0 -32 -21 -64 -48z"
       id="path312"
       style="fill:#336633" />
    <path
       d="M991 5093 c-22 -42 -39 -78 -38 -79 2 -2 22 8 45 22 41 25 42 26 42 80 0 30 -2 54 -4 54 -3 0 -23 -35 -45 -77z"
       id="path314"
       style="fill:#330066" />
    <path
       d="M1141 5144 c0 -11 3 -14 6 -6 3 7 2 16 -1 19 -3 4 -6 -2 -5 -13z"
       id="path316"
       style="fill:none" />
    <path
       d="M3431 5058 c-74 -157 -74 -157 3 -101 l66 48 0 77 c0 49 -4 78 -11 78 -6 0 -32 -46 -58 -102z"
       id="path318"
       style="fill:#99cc66" />
    <path
       d="M6877 5153 c-4 -3 -7 -13 -7 -22 1 -13 3 -13 11 2 11 19 8 33 -4 20z"
       id="path320"
       style="fill:none" />
    <path
       d="M1181 5112 c-6 -22 -25 -72 -41 -112 -35 -85 -37 -96 -10 -55 23 34 76 193 67 201 -3 3 -11 -12 -16 -34z"
       id="path322"
       style="fill:#6666cc" />
    <path
       d="M3020 5079 c-91 -68 -93 -71 -82 -115 6 -21 13 -51 16 -66 8 -34 22 -36 31 -5 11 37 38 98 72 165 17 34 28 62 25 62 -4 0 -32 -19 -62 -41z"
       id="path324"
       style="fill:#990099" />
    <path
       d="M2630 5102 c0 -5 7 -15 15 -22 8 -7 15 -8 15 -2 0 5 -7 15 -15 22 -8 7 -15 8 -15 2z"
       id="path326"
       style="fill:none" />
    <path
       d="M3308 5063 c-45 -60 -128 -223 -113 -223 3 0 14 18 25 40 11 22 44 77 73 122 70 110 69 108 60 108 -5 0 -25 -21 -45 -47z"
       id="path328"
       style="fill:#ff6633" />
    <path
       d="M2860 5078 c-19 -12 -49 -30 -67 -42 l-32 -21 25 -26 c63 -65 85 -229 44 -332 -39 -102 -183 -237 -252 -237 -44 0 -48 -10 -31 -85 23 -105 51 -162 82 -170 33 -8 41 -21 41 -65 0 -39 60 -135 214 -345 93 -126 273 -345 284 -345 14 0 77 20 90 29 10 6 11 14 4 27 -5 11 -14 33 -19 49 -7 24 -14 29 -34 27 -29 -3 -64 30 -56 52 7 16 -32 56 -55 56 -35 0 -48 12 -48 44 0 24 -12 46 -45 85 -25 29 -43 57 -40 61 9 15 -16 57 -41 69 -21 9 -24 15 -18 48 3 22 0 51 -7 68 -7 17 -11 51 -10 76 2 31 -2 49 -13 58 -20 17 -20 26 0 46 9 9 18 40 21 73 l5 57 -57 54 -57 54 29 23 c15 13 61 49 101 80 39 31 72 61 72 67 0 5 -12 66 -26 136 -25 124 -44 170 -84 206 l-20 18 22 11 c25 12 35 56 21 93 l-8 22 -35 -21z m-95 -797 c45 -25 65 -74 65 -156 0 -81 -9 -145 -20 -145 -5 0 -24 28 -44 63 -39 71 -120 186 -144 204 -14 11 -14 15 2 32 30 33 83 34 141 2z"
       id="path330"
       style="fill:#333366" />
    <path
       d="M2651 4281 c-16 -11 -8 -27 58 -114 26 -35 56 -83 67 -105 10 -23 22 -42 25 -42 11 0 21 108 14 143 -12 63 -28 88 -66 108 -41 20 -76 24 -98 10z"
       id="path332"
       style="fill:#9933ff" />
    <path
       d="M3392 5048 c-35 -52 -105 -188 -99 -194 13 -13 50 43 90 134 25 56 44 102 42 102 -2 0 -17 -19 -33 -42z"
       id="path334"
       style="fill:#ff6633" />
    <path
       d="M2594 5056 c-19 -30 -15 -101 6 -101 15 0 60 60 60 79 0 6 -12 -4 -26 -21 -14 -18 -30 -33 -36 -33 -5 0 4 16 21 36 26 28 30 39 20 50 -16 20 -26 18 -45 -10z"
       id="path336"
       style="fill:#990000" />
    <path
       d="M3061 5049 c-7 -12 -10 -23 -8 -26 3 -3 11 5 17 17 6 12 10 23 8 25 -2 2 -10 -5 -17 -16z"
       id="path338"
       style="fill:none" />
    <path
       d="M5916 5054 c-4 -9 -4 -19 -1 -22 2 -3 7 3 11 12 4 9 4 19 1 22 -2 3 -7 -3 -11 -12z"
       id="path340"
       style="fill:none" />
    <path
       d="M4807 4988 c-62 -76 -127 -181 -133 -213 -5 -26 2 -44 35 -96 22 -35 48 -81 57 -101 9 -21 20 -38 25 -38 12 0 136 157 160 202 24 46 24 70 1 91 -10 9 -36 57 -58 107 -21 49 -42 90 -46 90 -4 0 -22 -19 -41 -42z"
       id="path342"
       style="fill:#3333ff" />
    <path
       d="M6655 5005 c32 -27 136 -73 180 -80 46 -6 44 -5 -85 50 -112 48 -119 50 -95 30z"
       id="path344"
       style="fill:#9933ff" />
    <path
       d="M4768 4982 c-23 -25 -53 -72 -45 -72 1 0 20 21 41 46 42 50 45 70 4 26z"
       id="path346"
       style="fill:#cc0066" />
    <path
       d="M2486 4978 c-14 -22 -34 -88 -24 -78 8 8 47 100 43 100 -3 0 -11 -10 -19 -22z"
       id="path348"
       style="fill:#993366" />
    <path
       d="M2906 4981 c-4 -6 -1 -21 6 -33 10 -20 13 -20 16 -6 5 23 -13 54 -22 39z"
       id="path350"
       style="fill:#99cc00" />
    <path
       d="M3427 4934 l-79 -59 -54 -135 c-31 -74 -59 -145 -64 -157 -16 -39 -2 -25 21 20 59 115 181 260 244 289 25 11 28 21 16 72 l-6 28 -78 -58z"
       id="path352"
       style="fill:#6666cc" />
    <path
       d="M2675 4947 c-47 -26 -70 -48 -108 -103 -64 -92 -63 -91 -90 -66 l-23 22 -23 -23 -22 -24 20 -45 c10 -24 35 -97 55 -161 33 -105 48 -133 58 -109 2 5 31 24 66 42 104 55 159 134 207 299 18 61 18 65 1 115 -21 58 -42 86 -65 86 -9 0 -43 -15 -76 -33z m26 -249 l29 -58 -22 -13 c-93 -57 -143 -85 -148 -82 -3 2 -21 33 -40 70 l-35 66 25 19 c14 11 50 33 80 49 64 35 69 33 111 -51z"
       id="path354"
       style="fill:#6666cc" />
    <path
       d="M2575 4724 c-33 -19 -62 -37 -64 -40 -3 -2 8 -31 24 -64 l28 -59 71 39 c52 29 70 44 68 57 -5 24 -51 103 -61 103 -4 0 -34 -16 -66 -36z"
       id="path356"
       style="fill:#9933ff" />
    <path
       d="M5113 4930 c0 -25 2 -35 4 -22 2 12 2 32 0 45 -2 12 -4 2 -4 -23z"
       id="path358"
       style="fill:none" />
    <path
       d="M5864 4949 c-9 -15 -43 -182 -38 -188 9 -10 18 14 35 100 19 89 19 114 3 88z"
       id="path360"
       style="fill:#9933ff" />
    <path
       d="M3495 4878 c-37 -20 -106 -93 -162 -171 -60 -84 -145 -257 -164 -330 -13 -54 -8 -243 7 -270 9 -15 14 -7 29 50 18 67 53 130 105 188 15 17 44 71 65 120 42 101 58 131 128 229 l49 69 -12 59 c-7 32 -16 60 -19 62 -4 3 -15 0 -26 -6z"
       id="path362"
       style="fill:#ccff66" />
    <path
       d="M782 4843 c-79 -67 -338 -440 -319 -459 3 -3 17 16 30 43 31 60 78 125 139 193 l48 52 10 -27 c6 -15 15 -46 21 -71 12 -47 23 -55 38 -26 19 35 16 78 -7 107 -15 18 -20 35 -16 49 10 35 35 68 54 73 11 3 21 18 25 40 8 43 4 48 -23 26z"
       id="path364"
       style="fill:#ccff66" />
    <path
       d="M3292 4832 c-16 -13 -31 -48 -53 -126 -16 -60 -28 -110 -26 -113 2 -2 27 54 55 124 28 70 50 128 49 129 -1 2 -12 -5 -25 -14z"
       id="path366"
       style="fill:#ff6633" />
    <path
       d="M2964 4823 c2 -10 12 -56 21 -103 10 -47 18 -86 20 -88 1 -1 15 14 30 34 l27 36 -48 69 c-49 71 -59 82 -50 52z"
       id="path368"
       style="fill:#990099" />
    <path
       d="M892 4801 c-8 -5 -12 -16 -10 -26 2 -14 7 -13 27 9 24 26 13 37 -17 17z"
       id="path370"
       style="fill:#990099" />
    <path
       d="M3188 4742 c-29 -26 -82 -69 -116 -96 -52 -40 -63 -52 -58 -70 12 -41 35 -173 52 -299 20 -149 38 -180 48 -83 3 35 15 97 26 137 11 41 27 114 36 162 9 49 28 135 44 193 15 57 26 104 24 104 -2 0 -27 -21 -56 -48z"
       id="path372"
       style="fill:#6666cc" />
    <path
       d="M2825 4768 c-2 -7 -9 -31 -16 -53 -33 -110 -99 -198 -187 -247 -65 -37 -62 -49 5 -15 62 32 157 132 184 193 21 49 37 134 25 134 -4 0 -8 -6 -11 -12z"
       id="path374"
       style="fill:#336633" />
    <path
       d="M877 4664 c-69 -68 -107 -113 -107 -126 0 -18 7 -14 37 23 21 24 69 77 108 117 62 65 84 92 73 92 -2 0 -51 -48 -111 -106z"
       id="path376"
       style="fill:#330066" />
    <path
       d="M761 4741 c-14 -25 -14 -81 -1 -81 6 0 10 3 10 8 0 4 4 24 9 45 10 41 -2 59 -18 28z"
       id="path378"
       style="fill:#990099" />
    <path
       d="M3482 4641 c-46 -69 -112 -207 -112 -233 0 -5 9 -4 19 2 13 6 24 29 31 66 13 63 59 156 97 196 14 14 24 31 21 38 -2 6 -27 -25 -56 -69z"
       id="path380"
       style="fill:#993366" />
    <path
       d="M4636 4670 c-9 -30 -15 -54 -13 -56 1 -1 23 0 50 3 l47 6 -22 36 c-40 69 -45 69 -62 11z"
       id="path382"
       style="fill:#6666cc" />
    <path
       d="M5707 4692 c-26 -26 -33 -27 -123 -27 l-95 0 6 -25 c4 -14 8 -27 10 -29 9 -8 229 39 237 51 10 17 10 45 0 52 -5 3 -21 -7 -35 -22z"
       id="path384"
       style="fill:#9933ff" />
    <path
       d="M3533 4672 c-17 -21 -42 -60 -56 -88 -25 -49 -52 -133 -45 -140 4 -3 168 61 171 67 1 5 -35 199 -38 199 -1 0 -15 -17 -32 -38z"
       id="path386"
       style="fill:#9933ff" />
    <path
       d="M4996 4634 c-10 -44 -21 -85 -24 -93 -3 -9 -1 -12 6 -7 12 7 46 149 40 167 -2 6 -12 -24 -22 -67z"
       id="path388"
       style="fill:#ff3399" />
    <path
       d="M5136 4670 c8 -55 11 -61 30 -53 13 5 13 7 0 17 -8 6 -19 27 -25 46 -10 34 -10 33 -5 -10z"
       id="path390"
       style="fill:#cc0066" />
    <path
       d="M5635 4695 l-50 -13 41 -1 c22 -1 49 6 60 14 22 17 16 17 -51 0z"
       id="path392"
       style="fill:#cc0066" />
    <path
       d="M2375 4650 c-10 -11 -14 -20 -9 -20 5 0 15 9 22 20 7 11 11 20 9 20 -2 0 -12 -9 -22 -20z"
       id="path394"
       style="fill:none" />
    <path
       d="M2383 4630 c-18 -20 -33 -40 -33 -44 0 -4 17 -29 38 -56 20 -27 59 -84 86 -126 27 -43 51 -73 53 -67 5 15 -96 333 -105 332 -4 0 -22 -18 -39 -39z"
       id="path396"
       style="fill:#330000" />
    <path
       d="M5355 4635 c-38 -12 -39 -13 -10 -14 17 0 41 6 55 14 31 18 8 18 -45 0z"
       id="path398"
       style="fill:#cc0066" />
    <path
       d="M628 4592 c-21 -23 -38 -55 -42 -78 -4 -21 -43 -99 -86 -174 -91 -157 -101 -184 -72 -199 29 -15 29 -16 34 33 3 24 16 67 30 97 30 65 144 208 181 228 15 8 27 23 27 34 0 28 -22 97 -30 97 -4 0 -23 -17 -42 -38z"
       id="path400"
       style="fill:#339999" />
    <path
       d="M2267 4593 c-4 -3 -7 -13 -7 -22 1 -13 3 -13 11 2 11 19 8 33 -4 20z"
       id="path402"
       style="fill:none" />
    <path
       d="M4616 4585 c-21 -21 -54 -195 -37 -195 10 0 113 70 164 112 l29 24 -22 37 c-21 35 -25 37 -70 37 -30 0 -54 -6 -64 -15z"
       id="path404"
       style="fill:#cc9900" />
    <path
       d="M2274 4544 c-15 -39 -15 -47 -3 -59 18 -17 102 -45 135 -45 25 0 25 0 -16 59 -36 54 -73 91 -91 91 -4 0 -15 -21 -25 -46z"
       id="path406"
       style="fill:#336633" />
    <path
       d="M2950 4555 c-100 -74 -114 -89 -106 -120 4 -15 25 -46 46 -69 22 -23 71 -75 109 -116 41 -43 68 -67 66 -55 -3 11 -16 96 -30 188 -34 224 -30 213 -85 172z m46 -29 c7 -30 -9 -63 -36 -71 -27 -9 -40 1 -40 32 0 54 64 87 76 39z"
       id="path408"
       style="fill:#3333ff" />
    <path
       d="M4500 4572 c-30 -10 -55 -22 -54 -27 0 -6 13 -52 29 -102 25 -80 33 -93 51 -93 26 0 34 17 34 73 0 23 7 67 15 97 8 30 15 58 15 63 0 11 -30 7 -90 -11z"
       id="path410"
       style="fill:#ff33ff" />
    <path
       d="M4334 4532 c-33 -21 -78 -51 -99 -68 -38 -31 -38 -31 -17 -43 19 -10 26 -8 52 22 16 19 55 52 85 72 30 21 55 42 55 47 0 13 -11 9 -76 -30z"
       id="path412"
       style="fill:#6666cc" />
    <path
       d="M5621 4535 c-40 -8 -76 -16 -78 -19 -3 -3 6 -30 20 -60 30 -64 34 -66 130 -36 l64 20 -12 52 c-13 62 -16 63 -124 43z"
       id="path414"
       style="fill:#6699ff" />
    <path
       d="M4365 4506 c-52 -35 -112 -93 -104 -100 2 -2 39 -23 83 -46 71 -38 81 -40 107 -30 20 9 29 19 29 36 0 26 -43 151 -57 165 -5 5 -30 -6 -58 -25z"
       id="path416"
       style="fill:#cc9900" />
    <path
       d="M5755 4510 c11 -53 27 -73 21 -26 -3 22 -10 44 -17 50 -8 8 -9 2 -4 -24z"
       id="path418"
       style="fill:#cc0066" />
    <path
       d="M712 4483 c-192 -244 -235 -480 -131 -718 22 -50 54 -108 71 -129 30 -37 187 -160 194 -153 7 7 -15 179 -28 213 -10 27 -24 42 -60 60 -27 13 -48 30 -48 37 0 6 9 41 21 77 36 115 29 144 -43 181 -21 11 -38 23 -38 27 0 4 20 30 45 59 47 54 55 82 29 104 -53 44 -56 114 -8 204 19 37 33 69 31 72 -3 2 -18 -13 -35 -34z m-54 -255 c32 -32 -7 -80 -43 -54 -13 9 -16 20 -11 39 7 29 33 36 54 15z m10 -260 c18 -18 15 -46 -6 -57 -13 -7 -23 -6 -30 1 -16 16 -15 55 1 61 19 8 22 8 35 -5z m110 -317 c-2 -18 -9 -26 -23 -26 -23 0 -32 30 -15 50 18 21 42 7 38 -24z"
       id="path420"
       style="fill:#336666" />
    <path
       d="M615 4210 c-4 -7 -3 -16 3 -22 14 -14 45 -2 40 15 -6 16 -34 21 -43 7z"
       id="path422"
       style="fill:#9999ff" />
    <path
       d="M632 3943 c5 -25 28 -28 28 -4 0 12 -6 21 -16 21 -9 0 -14 -7 -12 -17z"
       id="path424"
       style="fill:#9999ff" />
    <path
       d="M746 3663 c-11 -11 -6 -23 9 -23 8 0 15 4 15 9 0 13 -16 22 -24 14z"
       id="path426"
       style="fill:#9999ff" />
    <path
       d="M526 4451 c-42 -68 -80 -151 -73 -157 5 -5 102 165 112 196 11 35 -3 21 -39 -39z"
       id="path428"
       style="fill:#330000" />
    <path
       d="M4985 4502 c-23 -23 14 -28 60 -8 l30 13 -42 0 c-23 0 -45 -2 -48 -5z"
       id="path430"
       style="fill:#cc0066" />
    <path
       d="M5478 4505 c-2 -3 -74 -17 -159 -31 -174 -30 -338 -69 -353 -84 -31 -31 16 -164 88 -253 39 -49 132 -93 201 -95 88 -4 167 -32 217 -79 21 -20 52 -30 150 -49 83 -16 170 -42 268 -81 141 -55 147 -58 215 -127 69 -70 150 -201 143 -231 -2 -8 -26 15 -56 51 -29 36 -60 68 -68 71 -20 8 -79 -40 -94 -78 -12 -29 -11 -36 10 -73 33 -58 83 -124 98 -130 8 -4 12 7 12 39 0 41 -2 45 -51 76 -44 29 -49 36 -44 59 4 14 8 27 10 28 5 5 108 -28 118 -38 4 -4 3 -20 -3 -36 -11 -27 -9 -31 36 -69 106 -88 97 -75 80 -122 -13 -36 -13 -43 -1 -43 19 0 49 45 69 104 21 65 13 165 -18 203 -11 15 -19 37 -18 50 3 20 -1 38 -23 110 -3 9 -16 9 -56 -3 -28 -8 -52 -14 -54 -12 -1 2 -13 28 -27 58 -32 70 -70 116 -118 140 l-38 20 39 75 c29 56 37 81 30 93 -5 9 -41 48 -80 87 -80 78 -85 79 -127 8 l-25 -42 50 -26 c28 -14 58 -25 66 -25 10 0 15 -7 13 -17 -2 -12 -19 -22 -50 -30 -57 -14 -156 -58 -180 -80 -23 -20 -33 -11 -18 16 12 23 1 28 -18 9 -9 -9 -12 -9 -12 2 0 7 23 44 50 82 28 38 50 70 50 73 0 2 -19 15 -42 29 -38 22 -239 76 -284 76 -9 0 -22 6 -28 14 -8 11 -41 15 -137 17 -124 3 -127 3 -191 -29 -36 -18 -68 -32 -72 -32 -19 0 20 43 55 60 85 44 282 111 371 126 51 9 96 18 99 20 3 2 -7 30 -23 64 -19 40 -35 60 -47 60 -10 0 -20 -2 -23 -5z"
       id="path432"
       style="fill:#006699" />
    <path
       d="M662 4467 c-40 -43 -153 -241 -170 -299 -9 -32 -20 -58 -23 -58 -17 0 -79 31 -79 40 0 6 13 51 29 101 35 107 25 107 -17 -1 -38 -98 -48 -145 -63 -321 -15 -187 -3 -328 51 -573 22 -99 42 -181 44 -184 3 -2 8 13 11 34 4 22 11 55 16 74 8 32 6 38 -27 71 -29 30 -34 40 -26 55 13 25 61 68 90 84 37 18 20 22 -28 5 -23 -8 -44 -15 -46 -15 -14 0 -25 59 -38 205 -9 94 -18 187 -20 207 -4 40 -4 40 60 53 31 6 31 6 38 -47 13 -94 46 -219 76 -288 17 -38 30 -73 30 -79 0 -7 9 -9 24 -5 19 4 27 -1 44 -28 12 -18 29 -43 38 -55 16 -22 15 -24 -7 -43 l-24 -19 41 -1 c22 0 48 -6 58 -13 16 -12 13 -16 -36 -49 -29 -20 -73 -55 -98 -79 -69 -65 -150 -130 -150 -120 0 5 22 26 50 47 27 21 50 42 50 48 0 5 -10 1 -22 -10 -62 -51 -88 -80 -88 -96 0 -17 5 -15 38 10 94 72 270 201 294 216 l27 17 34 -74 c31 -66 119 -187 219 -299 48 -54 144 -125 192 -142 96 -33 277 -86 341 -100 64 -14 74 -14 113 2 31 12 40 21 35 32 -3 8 -8 34 -11 57 -3 32 1 46 17 62 54 54 156 -7 137 -82 -6 -24 -5 -24 45 -14 l50 10 -21 22 c-38 41 -13 134 40 148 48 12 89 -79 60 -134 -13 -24 -13 -24 61 2 59 21 62 21 100 3 44 -19 35 -21 198 39 l94 34 46 -35 c73 -56 158 -92 218 -92 128 0 426 81 540 146 51 29 90 79 100 124 5 28 4 32 -10 27 -35 -13 -165 -36 -224 -39 -43 -2 -63 -7 -63 -16 0 -19 -44 -83 -81 -119 -42 -40 -114 -72 -177 -80 -86 -10 -253 48 -315 110 -20 20 -22 20 -111 4 -179 -33 -300 -47 -310 -37 -6 6 -5 23 3 48 8 24 10 49 5 63 -4 13 -7 109 -6 213 1 104 -2 194 -5 200 -4 6 -8 47 -9 91 -2 44 -4 102 -6 128 l-3 49 -62 31 c-75 39 -77 51 -33 177 17 46 30 87 30 90 0 3 -19 -24 -41 -60 -23 -36 -91 -115 -150 -176 -60 -62 -109 -119 -109 -128 0 -9 2 -16 4 -16 2 0 37 20 78 45 42 25 86 45 100 45 l25 0 7 -137 c7 -150 26 -284 57 -407 11 -43 19 -95 17 -115 -3 -36 -3 -36 -83 -60 -68 -21 -107 -25 -262 -29 -160 -3 -191 -1 -264 17 -166 42 -282 119 -377 249 -27 38 -71 86 -96 106 -25 21 -54 52 -65 71 -13 23 -29 35 -53 40 -103 23 -241 156 -287 280 -52 139 -48 366 10 516 17 45 56 117 85 162 55 82 64 105 26 64z m-212 -418 c16 -28 -11 -69 -45 -69 -35 0 -51 34 -30 66 19 30 60 32 75 3z m488 -741 c18 -18 15 -43 -8 -63 -18 -17 -21 -17 -45 -1 -30 20 -31 30 -5 56 23 23 41 25 58 8z m117 -148 c56 -21 48 -110 -10 -110 -25 0 -65 31 -65 51 0 21 32 68 47 69 1 0 13 -4 28 -10z m258 -192 c44 -59 -18 -133 -81 -97 -40 22 -42 71 -6 104 34 31 60 29 87 -7z m255 -91 c26 -24 30 -78 7 -97 -57 -47 -156 34 -112 91 31 40 64 42 105 6z"
       id="path434"
       style="fill:#336666" />
    <path
       d="M397 4048 c-21 -11 -22 -47 -2 -54 19 -8 45 13 45 36 0 22 -21 31 -43 18z"
       id="path436"
       style="fill:#333300" />
    <path
       d="M895 3290 c-10 -16 16 -43 28 -31 11 11 2 41 -12 41 -5 0 -13 -5 -16 -10z"
       id="path438"
       style="fill:#9999ff" />
    <path
       d="M1004 3125 c-8 -33 12 -57 45 -53 32 4 39 32 15 59 -24 27 -52 24 -60 -6z"
       id="path440"
       style="fill:#9999ff" />
    <path
       d="M1234 2949 c-24 -27 -9 -53 34 -57 26 -3 32 1 38 23 12 50 -36 73 -72 34z"
       id="path442"
       style="fill:#9999ff" />
    <path
       d="M1492 2868 c-16 -16 -15 -53 2 -67 25 -21 70 -10 74 17 7 44 -47 79 -76 50z"
       id="path444"
       style="fill:#ff6633" />
    <path
       d="M3530 4462 c-93 -39 -141 -66 -170 -97 -24 -25 -25 -32 -25 -153 0 -118 2 -132 28 -192 47 -106 50 -110 94 -99 21 6 76 18 122 28 l84 18 -45 26 c-25 14 -70 57 -101 95 -31 37 -76 87 -102 109 -49 45 -54 66 -29 116 26 50 52 74 110 97 78 32 100 24 109 -42 19 -142 81 -398 96 -398 18 0 18 22 -1 84 -18 57 -66 278 -84 388 -4 21 -10 39 -14 42 -4 2 -37 -8 -72 -22z"
       id="path446"
       style="fill:#3333ff" />
    <path
       d="M2232 4412 c-11 -31 -41 -104 -67 -162 -26 -58 -53 -119 -61 -136 -10 -24 -11 -51 -4 -125 5 -52 12 -133 15 -181 6 -75 9 -88 27 -94 28 -9 30 -3 17 52 -16 67 -17 338 -1 390 8 27 26 54 52 75 22 19 58 49 79 67 46 38 87 52 154 52 l48 0 -27 35 c-18 24 -34 35 -53 35 -28 0 -108 23 -139 39 -17 9 -22 4 -40 -47z"
       id="path448"
       style="fill:#ccff66" />
    <path
       d="M714 4406 c-22 -49 -24 -60 -14 -90 6 -19 17 -39 24 -45 11 -9 15 7 20 85 4 53 5 98 2 102 -3 3 -17 -20 -32 -52z"
       id="path450"
       style="fill:#6666cc" />
    <path
       d="M4856 4435 c-21 -7 -46 -21 -55 -29 -14 -15 -9 -16 50 -16 61 0 66 2 82 30 l18 30 -28 0 c-15 -1 -46 -7 -67 -15z"
       id="path452"
       style="fill:#336633" />
    <path
       d="M2216 4431 c-13 -20 -25 -62 -17 -57 5 3 14 19 19 36 10 29 9 40 -2 21z"
       id="path454"
       style="fill:none" />
    <path
       d="M5660 4393 c-47 -14 -157 -50 -245 -79 l-160 -53 125 2 c69 1 198 13 288 26 136 20 162 27 162 41 0 27 -44 85 -65 87 -11 1 -58 -9 -105 -24z"
       id="path456"
       style="fill:#339999" />
    <path
       d="M3486 4390 c-21 -11 -45 -25 -53 -31 -24 -20 -54 -89 -48 -108 3 -10 36 -40 73 -67 36 -27 98 -76 136 -108 58 -50 68 -56 63 -35 -23 90 -40 168 -55 259 -18 104 -19 105 -48 107 -16 2 -46 -6 -68 -17z m20 -95 c-5 -20 -12 -26 -29 -23 -29 4 -36 47 -11 65 26 19 49 -5 40 -42z"
       id="path458"
       style="fill:#339999" />
    <path
       d="M3465 4320 c-10 -16 16 -43 28 -31 11 11 2 41 -12 41 -5 0 -13 -5 -16 -10z"
       id="path460"
       style="fill:#ff6633" />
    <path
       d="M4163 4404 c-11 -5 -302 -315 -358 -382 l-28 -34 26 -25 26 -26 61 57 c95 88 264 202 382 259 59 29 106 57 104 62 -3 13 -166 95 -186 94 -8 0 -20 -3 -27 -5z"
       id="path462"
       style="fill:#330066" />
    <path
       d="M4664 4288 c-46 -45 -84 -85 -84 -89 0 -11 82 -99 102 -110 13 -7 23 1 49 48 18 31 58 86 89 122 31 36 62 76 69 89 12 22 11 22 -65 22 l-76 0 -84 -82z"
       id="path464"
       style="fill:#9933ff" />
    <path
       d="M4640 4354 c-72 -11 -127 -27 -148 -42 l-22 -17 44 -44 45 -44 33 29 c18 16 53 50 77 77 47 51 46 52 -29 41z"
       id="path466"
       style="fill:#6699ff" />
    <path
       d="M526 4308 c-24 -42 -46 -93 -46 -106 0 -4 18 26 40 67 43 81 48 110 6 39z"
       id="path468"
       style="fill:#333300" />
    <path
       d="M5315 4313 c-101 -36 -105 -48 -5 -15 117 40 119 40 95 41 -11 0 -51 -12 -90 -26z"
       id="path470"
       style="fill:#ff33ff" />
    <path
       d="M2340 4314 c-25 -15 -25 -15 10 -8 19 4 44 10 55 15 17 6 15 8 -10 8 -16 0 -41 -6 -55 -15z"
       id="path472"
       style="fill:#cc0066" />
    <path
       d="M3281 4285 c-39 -55 -59 -101 -71 -168 l-10 -51 42 -44 c50 -51 147 -127 153 -120 2 2 -12 42 -32 88 -43 100 -62 216 -47 291 6 27 8 49 4 49 -4 0 -21 -20 -39 -45z"
       id="path474"
       style="fill:#330066" />
    <path
       d="M2350 4288 c-36 -11 -70 -24 -77 -30 -50 -41 -114 -367 -95 -491 6 -38 12 -70 14 -71 2 -1 37 -27 78 -57 41 -31 111 -77 155 -103 44 -26 139 -87 210 -136 72 -49 134 -90 139 -90 17 0 -6 187 -41 335 -20 83 -41 175 -48 205 -9 43 -16 56 -32 58 -18 3 -20 -2 -19 -35 l1 -37 -105 -23 c-57 -13 -122 -32 -143 -42 -35 -17 -42 -18 -72 -5 -27 11 -36 23 -51 66 -21 63 -24 233 -5 291 16 47 65 77 178 110 46 13 85 26 89 29 3 4 3 16 -1 27 -5 18 -14 21 -58 20 -29 0 -81 -9 -117 -21z m280 -540 c-1 -39 -28 -190 -36 -198 -11 -11 -213 119 -214 136 0 6 12 14 28 18 15 4 68 17 117 31 109 28 105 28 105 13z"
       id="path476"
       style="fill:#333366" />
    <path
       d="M2511 3714 c-99 -25 -112 -31 -95 -42 83 -54 166 -103 170 -99 7 7 26 146 22 157 -2 4 -45 -3 -97 -16z"
       id="path478"
       style="fill:#330000" />
    <path
       d="M2914 4304 c3 -7 1 -37 -5 -69 -15 -82 2 -206 42 -301 49 -117 115 -207 252 -342 l125 -123 38 16 c22 9 45 19 52 22 21 9 13 17 -48 52 -95 54 -165 123 -200 196 -30 62 -32 64 -62 58 l-31 -6 6 96 c8 133 -6 231 -38 273 -41 53 -51 44 -62 -56 l-6 -58 34 -11 c41 -14 75 -38 66 -47 -3 -3 -21 3 -39 14 -18 10 -45 22 -60 26 -40 9 -45 50 -15 123 l24 59 -40 44 c-21 25 -37 40 -33 34z"
       id="path480"
       style="fill:#6699ff" />
    <path
       d="M4357 4281 c-21 -10 -38 -22 -38 -27 -1 -31 13 -84 22 -84 14 0 99 91 99 106 0 11 -23 25 -38 23 -4 0 -24 -9 -45 -18z"
       id="path482"
       style="fill:#990099" />
    <path
       d="M4940 4272 c0 -40 19 -79 55 -112 31 -28 32 -31 -18 70 -33 67 -37 71 -37 42z"
       id="path484"
       style="fill:#6666cc" />
    <path
       d="M5760 4286 c-41 -6 -74 -15 -73 -21 4 -21 55 -75 98 -105 l44 -31 38 42 c21 23 37 47 35 52 -5 16 -54 77 -61 76 -3 -1 -40 -7 -81 -13z"
       id="path486"
       style="fill:#6699ff" />
    <path
       d="M4379 4191 c-41 -42 -131 -130 -200 -196 -69 -66 -143 -144 -164 -172 -57 -76 -94 -70 -146 22 -17 30 -34 57 -38 59 -11 7 -59 -76 -69 -121 -9 -38 -7 -44 12 -57 11 -7 55 -43 96 -80 41 -36 78 -66 81 -66 4 0 25 29 48 64 58 88 235 265 520 519 l34 30 -44 38 c-24 21 -46 38 -49 38 -3 -1 -39 -36 -81 -78z"
       id="path488"
       style="fill:#6699ff" />
    <path
       d="M5580 4263 c-66 -7 -65 -15 7 -33 39 -10 85 -26 102 -35 l31 -15 -32 45 c-22 31 -38 44 -52 43 -12 0 -37 -3 -56 -5z"
       id="path490"
       style="fill:#990099" />
    <path
       d="M5900 4255 c7 -9 15 -13 17 -11 7 7 -7 26 -19 26 -6 0 -6 -6 2 -15z"
       id="path492"
       style="fill:none" />
    <path
       d="M2130 4245 c-7 -9 -10 -18 -7 -21 3 -3 10 4 17 15 13 25 8 27 -10 6z"
       id="path494"
       style="fill:none" />
    <path
       d="M3138 4245 c-13 -37 -12 -123 1 -139 16 -19 36 -22 24 -3 -4 6 -10 46 -13 87 -3 46 -8 67 -12 55z"
       id="path496"
       style="fill:#6666cc" />
    <path
       d="M4209 4207 c-101 -58 -241 -159 -312 -226 l-57 -54 26 -46 c15 -25 30 -50 34 -55 5 -4 32 3 62 16 53 25 139 105 196 183 30 42 106 115 136 132 15 8 17 17 11 52 -4 22 -10 41 -14 41 -3 0 -40 -19 -82 -43z"
       id="path498"
       style="fill:#3333ff" />
    <path
       d="M2207 4214 c-33 -33 -47 -100 -46 -222 l2 -97 14 100 c8 55 25 131 38 169 14 39 23 71 21 73 -2 2 -15 -8 -29 -23z"
       id="path500"
       style="fill:#333300" />
    <path
       d="M2426 4214 c-82 -25 -124 -46 -132 -68 -3 -7 7 -79 21 -162 14 -82 25 -159 25 -171 0 -31 14 -36 53 -19 19 8 78 24 131 36 94 22 96 23 96 51 0 25 -5 30 -42 40 -65 17 -94 35 -117 72 -41 67 -13 178 58 224 31 21 32 23 10 22 -13 0 -60 -11 -103 -25z"
       id="path502"
       style="fill:#6666cc" />
    <path
       d="M4787 4198 c-14 -18 -34 -53 -46 -78 l-22 -45 25 30 c27 31 81 125 72 125 -3 0 -16 -15 -29 -32z"
       id="path504"
       style="fill:#6666cc" />
    <path
       d="M5540 4215 c63 -16 81 -18 60 -6 -8 5 -37 12 -65 15 l-50 6 55 -15z"
       id="path506"
       style="fill:none" />
    <path
       d="M2517 4199 c-62 -48 -78 -153 -32 -207 24 -29 115 -70 115 -52 0 4 -9 52 -20 105 -11 53 -20 109 -20 124 0 45 -13 54 -43 30z"
       id="path508"
       style="fill:#330066" />
    <path
       d="M797 4175 c21 -42 38 -118 49 -222 10 -93 28 -80 21 15 -7 94 -39 202 -68 228 l-22 19 20 -40z"
       id="path510"
       style="fill:#6666cc" />
    <path
       d="M758 4183 c-13 -23 22 -290 54 -408 l11 -40 8 35 c4 21 3 40 -3 47 -7 9 -7 22 2 42 6 17 9 35 5 42 -7 11 -12 40 -33 202 -7 52 -33 100 -44 80z"
       id="path512"
       style="fill:#6699ff" />
    <path
       d="M2090 4170 c-11 -7 -12 -12 -3 -21 8 -8 14 -6 22 10 12 22 5 27 -19 11z"
       id="path514"
       style="fill:#6666cc" />
    <path
       d="M2575 4151 c3 -11 10 -44 15 -74 14 -88 30 -138 46 -144 8 -3 18 -3 21 1 7 7 -30 143 -54 199 -16 38 -39 53 -28 18z"
       id="path516"
       style="fill:#990099" />
    <path
       d="M703 4125 c-18 -21 -30 -42 -27 -47 8 -12 65 -40 71 -35 2 3 1 31 -4 63 l-8 58 -32 -39z"
       id="path518"
       style="fill:#330066" />
    <path
       d="M4258 4112 c-26 -20 -57 -50 -70 -67 l-23 -30 40 32 c77 63 120 103 110 103 -5 0 -31 -17 -57 -38z"
       id="path520"
       style="fill:#ff33ff" />
    <path
       d="M2625 4123 c15 -38 48 -158 102 -373 50 -203 57 -240 63 -373 4 -81 9 -150 13 -153 3 -3 43 17 89 44 45 28 122 67 170 88 l88 37 -37 46 c-21 25 -65 78 -98 117 -105 123 -314 413 -346 479 -10 22 -19 55 -19 73 0 23 -5 32 -16 32 -11 0 -14 -5 -9 -17z m175 -339 c22 -20 40 -42 40 -48 0 -7 -16 -20 -35 -29 -39 -19 -39 -19 -50 46 -3 21 -9 45 -12 53 -9 25 16 15 57 -22z m93 -138 c15 -24 27 -47 27 -52 0 -5 -21 -21 -46 -36 l-45 -28 -9 26 c-6 14 -13 44 -16 66 -6 33 -4 44 11 55 31 22 49 15 78 -31z m106 -160 c29 -30 51 -58 48 -63 -10 -16 -173 -113 -189 -113 -17 0 -28 47 -28 120 0 46 10 57 85 98 28 16 25 17 84 -42z"
       id="path522"
       style="fill:#330066" />
    <path
       d="M2770 3758 c0 -37 12 -48 34 -33 20 15 15 29 -15 45 -16 9 -19 7 -19 -12z"
       id="path524"
       style="fill:#333300" />
    <path
       d="M2823 3619 c4 -29 9 -54 12 -57 7 -8 56 20 62 35 8 19 -36 73 -59 73 -19 0 -20 -4 -15 -51z"
       id="path526"
       style="fill:#99cc66" />
    <path
       d="M2888 3497 c-21 -12 -40 -27 -42 -33 -8 -21 7 -134 18 -134 6 0 47 23 90 51 l79 50 -44 45 c-24 24 -48 44 -54 44 -5 -1 -27 -11 -47 -23z"
       id="path528"
       style="fill:#99cc66" />
    <path
       d="M6074 4079 c33 -35 65 -70 73 -78 7 -8 15 -12 19 -8 8 7 -102 124 -131 139 -11 6 7 -18 39 -53z"
       id="path530"
       style="fill:#993366" />
    <path
       d="M2961 4114 c0 -11 3 -14 6 -6 3 7 2 16 -1 19 -3 4 -6 -2 -5 -13z"
       id="path532"
       style="fill:none" />
    <path
       d="M2265 4066 c-10 -75 0 -191 20 -238 14 -36 32 -55 41 -45 4 4 -41 304 -50 332 -2 6 -7 -17 -11 -49z"
       id="path534"
       style="fill:#990099" />
    <path
       d="M3095 4059 c3 -35 10 -84 15 -109 5 -25 12 -62 15 -83 5 -30 10 -37 23 -33 9 3 55 15 102 27 47 12 91 25 97 28 12 6 -125 134 -220 205 l-38 29 6 -64z"
       id="path536"
       style="fill:#6666cc" />
    <path
       d="M3541 4083 c38 -44 64 -65 99 -82 14 -7 -6 18 -45 53 -77 72 -106 87 -54 29z"
       id="path538"
       style="fill:#993366" />
    <path
       d="M4436 4071 c-37 -38 -39 -42 -37 -105 l1 -65 -45 -34 c-28 -22 -71 -41 -112 -52 -115 -30 -168 -72 -237 -187 -9 -16 -23 -39 -31 -53 l-16 -26 -32 26 c-18 14 -46 38 -64 51 l-32 26 -53 -25 c-29 -13 -64 -29 -78 -36 -14 -6 -39 -21 -57 -32 -18 -11 -72 -29 -120 -38 -48 -10 -105 -29 -127 -41 -36 -22 -37 -24 -20 -38 41 -30 115 -62 182 -77 l70 -16 63 40 c35 22 90 54 122 71 32 17 165 90 295 163 130 72 292 159 359 194 74 39 124 71 128 82 3 11 13 25 23 33 15 12 15 10 -1 -14 -10 -16 -14 -28 -10 -28 14 0 30 34 28 57 -1 20 -137 163 -154 163 -4 0 -24 -18 -45 -39z"
       id="path540"
       style="fill:#330066" />
    <path
       d="M5798 4073 c-37 -42 -71 -93 -60 -93 9 0 59 64 86 108 12 20 1 14 -26 -15z"
       id="path542"
       style="fill:#ff33ff" />
    <path
       d="M1982 3977 c-40 -62 -80 -123 -88 -137 -9 -14 4 -2 29 25 51 55 141 198 136 214 -2 5 -37 -40 -77 -102z"
       id="path544"
       style="fill:#333300" />
    <path
       d="M5808 4043 c-25 -37 -27 -45 -12 -39 10 5 41 14 68 21 26 8 50 15 51 17 2 2 -14 13 -36 25 l-39 21 -32 -45z"
       id="path546"
       style="fill:#990099" />
    <path
       d="M2038 3945 c-57 -159 -57 -155 2 -187 27 -16 53 -28 56 -28 7 0 -5 214 -15 275 l-7 40 -36 -100z"
       id="path548"
       style="fill:#9933ff" />
    <path
       d="M5291 4016 c8 -8 131 -47 135 -43 7 7 -93 47 -117 47 -12 0 -20 -2 -18 -4z"
       id="path550"
       style="fill:#6666cc" />
    <path
       d="M5842 4005 c-46 -14 -97 -44 -89 -51 3 -3 24 4 48 17 24 12 59 27 78 34 47 18 18 18 -37 0z"
       id="path552"
       style="fill:#ff33ff" />
    <path
       d="M6067 3955 l-35 -66 29 -14 c44 -23 93 -79 119 -137 13 -29 25 -54 26 -56 1 -2 27 4 58 13 53 16 56 18 50 43 -8 34 -10 35 -66 56 -57 21 -86 63 -95 135 -4 34 -13 57 -28 71 l-23 21 -35 -66z"
       id="path554"
       style="fill:#339999" />
    <path
       d="M4359 3998 c-4 -43 10 -103 21 -92 11 11 1 104 -11 104 -5 0 -10 -6 -10 -12z"
       id="path556"
       style="fill:#ff33ff" />
    <path
       d="M4290 3936 c-25 -22 -53 -51 -63 -63 l-18 -21 68 17 c73 18 80 27 66 79 l-8 30 -45 -42z"
       id="path558"
       style="fill:#336633" />
    <path
       d="M3716 3919 c-44 -59 -75 -124 -76 -156 0 -13 -3 -23 -6 -23 -12 0 -123 59 -186 99 -65 41 -67 41 -112 30 -26 -6 -49 -15 -51 -19 -10 -17 99 -122 154 -149 67 -33 155 -67 196 -76 17 -3 37 -8 46 -11 9 -2 37 11 63 31 25 19 46 32 46 29 0 -4 -8 -13 -17 -20 -10 -7 -16 -15 -13 -17 3 -3 16 3 30 14 16 12 21 22 14 26 -66 47 -68 50 -55 106 6 29 24 72 40 96 l29 43 -21 24 c-11 13 -26 24 -32 24 -6 0 -28 -23 -49 -51z"
       id="path560"
       style="fill:#330066" />
    <path
       d="M3566 3930 c-77 -16 -143 -33 -148 -38 -10 -10 68 -64 150 -106 54 -27 55 -27 66 19 4 16 25 56 47 89 21 32 39 60 39 62 0 6 1 6 -154 -26z"
       id="path562"
       style="fill:#9933ff" />
    <path
       d="M6173 3916 c3 -21 13 -49 22 -62 17 -26 80 -62 91 -51 8 8 -46 85 -86 122 l-33 30 6 -39z"
       id="path564"
       style="fill:#990099" />
    <path
       d="M401 3921 c-12 -8 -13 -33 -7 -137 7 -132 24 -263 36 -277 8 -9 85 17 85 29 -2 45 -31 156 -51 190 -18 30 -24 55 -24 91 2 52 -8 113 -19 113 -3 0 -12 -4 -20 -9z"
       id="path566"
       style="fill:#339999" />
    <path
       d="M3091 3883 c-1 -29 3 -53 9 -53 12 0 12 44 0 80 -6 20 -8 14 -9 -27z"
       id="path568"
       style="fill:#990000" />
    <path
       d="M6230 3924 c1 -5 17 -27 36 -49 32 -36 34 -37 21 -10 -16 31 -57 75 -57 59z"
       id="path570"
       style="fill:#990099" />
    <path
       d="M740 3854 c-15 -61 -13 -65 44 -96 16 -9 18 -7 13 6 -4 9 -12 46 -19 81 -6 36 -14 65 -18 65 -4 0 -13 -25 -20 -56z"
       id="path572"
       style="fill:#9933ff" />
    <path
       d="M5565 3895 c11 -8 51 -25 90 -36 241 -70 295 -99 364 -200 24 -35 47 -63 50 -62 18 6 77 28 80 30 9 6 -67 83 -82 83 -10 0 -51 22 -90 49 -83 57 -200 106 -305 126 -40 8 -85 17 -100 21 -26 5 -26 5 -7 -11z"
       id="path574"
       style="fill:#ccff66" />
    <path
       d="M3973 3831 c-52 -27 -59 -42 -19 -40 12 0 34 16 49 35 16 19 27 34 25 33 -1 0 -27 -13 -55 -28z"
       id="path576"
       style="fill:#6666cc" />
    <path
       d="M4248 3848 c-21 -6 -38 -14 -38 -19 0 -4 21 -2 46 6 77 23 70 34 -8 13z"
       id="path578"
       style="fill:#ff33ff" />
    <path
       d="M3193 3830 c-33 -13 -28 -40 19 -110 33 -50 60 -75 131 -121 49 -33 101 -62 114 -66 18 -4 46 4 94 27 38 19 71 31 75 27 3 -3 -10 -13 -30 -21 -42 -17 -49 -30 -8 -16 44 17 72 33 72 42 0 5 -5 6 -11 2 -6 -3 -14 -3 -18 2 -12 17 -106 47 -151 49 -25 1 -51 3 -58 4 -7 0 -18 14 -25 30 -14 33 -72 85 -86 77 -13 -9 -43 24 -37 40 15 38 -27 56 -81 34z"
       id="path580"
       style="fill:#ccff66" />
    <path
       d="M535 3795 c23 -101 119 -233 215 -295 83 -53 76 -29 -9 34 -95 69 -123 104 -167 203 -36 83 -49 102 -39 58z"
       id="path582"
       style="fill:#6666cc" />
    <path
       d="M461 3783 c-1 -17 4 -35 9 -38 11 -7 11 9 0 45 -8 24 -8 24 -9 -7z"
       id="path584"
       style="fill:none" />
    <path
       d="M4410 3761 c-58 -26 -138 -66 -178 -89 -41 -23 -76 -42 -78 -42 -10 0 -121 -75 -158 -106 -22 -19 -105 -66 -185 -106 l-146 -73 45 -3 c25 -2 85 2 133 8 80 11 126 25 242 75 66 28 195 119 276 193 71 67 166 178 158 186 -2 3 -51 -17 -109 -43z"
       id="path586"
       style="fill:#ccff66" />
    <path
       d="M846 3747 c-4 -32 -5 -61 -3 -64 8 -7 20 81 15 103 -2 11 -8 -7 -12 -39z"
       id="path588"
       style="fill:#9999ff" />
    <path
       d="M6010 3755 c0 -2 10 -10 23 -16 20 -11 21 -11 8 4 -13 16 -31 23 -31 12z"
       id="path590"
       style="fill:none" />
    <path
       d="M5910 3706 c0 -8 5 -18 10 -21 6 -3 10 1 10 9 0 8 -4 18 -10 21 -5 3 -10 -1 -10 -9z"
       id="path592"
       style="fill:none" />
    <path
       d="M5940 3717 c0 -4 7 -22 16 -39 9 -17 21 -57 28 -90 6 -32 15 -60 20 -61 4 -1 14 10 23 24 14 22 14 32 4 56 -12 30 -90 124 -91 110z"
       id="path594"
       style="fill:#993366" />
    <path
       d="M2134 3630 c3 -41 9 -218 12 -393 l7 -317 31 5 c17 3 79 12 137 20 58 9 124 21 147 28 l41 12 -77 69 c-148 132 -208 256 -241 497 -14 107 -19 123 -40 137 l-23 16 6 -74z"
       id="path596"
       style="fill:#ccff66" />
    <path
       d="M3062 3689 c2 -7 10 -15 17 -17 8 -3 12 1 9 9 -2 7 -10 15 -17 17 -8 3 -12 -1 -9 -9z"
       id="path598"
       style="fill:none" />
    <path
       d="M1828 3649 c-38 -22 -68 -43 -68 -46 0 -3 11 -21 25 -39 30 -39 30 -40 5 -95 -37 -82 -24 -148 42 -216 l41 -42 -32 -96 c-36 -113 -39 -138 -13 -132 9 3 49 13 87 22 99 23 99 23 76 76 -32 73 -61 243 -74 432 -6 97 -14 177 -17 177 -3 0 -35 -18 -72 -41z"
       id="path600"
       style="fill:#330066" />
    <path
       d="M1926 3673 c-2 -10 -1 -58 3 -108 l8 -90 2 108 c1 103 -2 127 -13 90z"
       id="path602"
       style="fill:#99cc00" />
    <path
       d="M3412 3678 c3 -7 15 -14 29 -16 23 -2 23 -2 5 13 -24 18 -39 20 -34 3z"
       id="path604"
       style="fill:none" />
    <path
       d="M2193 3655 c3 -11 20 -78 37 -150 23 -97 44 -158 85 -240 30 -60 64 -121 76 -135 l20 -25 -6 80 c-6 81 -22 243 -31 323 -4 28 -11 45 -22 49 -9 3 -37 22 -62 43 -25 20 -58 45 -74 55 -28 19 -29 19 -23 0z"
       id="path606"
       style="fill:#3333ff" />
    <path
       d="M5940 3610 c0 -23 20 -70 31 -70 7 0 7 5 -6 63 -6 31 -25 37 -25 7z"
       id="path608"
       style="fill:#ff3399" />
    <path
       d="M521 3589 c-1 -14 6 -34 14 -45 19 -25 19 -1 0 41 -13 30 -13 30 -14 4z"
       id="path610"
       style="fill:#99cc00" />
    <path
       d="M6160 3589 c7 -11 14 -19 16 -16 7 7 -7 37 -17 37 -6 0 -5 -9 1 -21z"
       id="path612"
       style="fill:none" />
    <path
       d="M1743 3510 c6 -44 13 -77 17 -75 4 2 13 24 20 49 11 41 10 46 -11 75 -12 17 -25 31 -29 31 -3 0 -2 -36 3 -80z"
       id="path614"
       style="fill:#99cc66" />
    <path
       d="M3170 3580 c0 -6 7 -13 15 -17 24 -9 27 1 5 15 -13 8 -20 8 -20 2z"
       id="path616"
       style="fill:none" />
    <path
       d="M1645 3570 c-67 -9 -85 -18 -96 -48 -5 -13 -9 -97 -8 -186 0 -134 -3 -171 -19 -223 l-20 -63 45 -41 45 -42 97 7 c53 4 97 9 99 10 1 2 -2 25 -7 52 -6 27 -17 121 -26 209 -23 246 -37 335 -49 334 -6 -1 -33 -5 -61 -9z"
       id="path618"
       style="fill:#339999" />
    <path
       d="M853 3557 c3 -8 9 -31 12 -51 6 -32 35 -72 35 -49 0 20 -32 103 -43 110 -6 4 -8 0 -4 -10z"
       id="path620"
       style="fill:#9999ff" />
    <path
       d="M892 3536 c6 -19 15 -33 20 -30 14 9 9 30 -11 48 -19 18 -19 17 -9 -18z"
       id="path622"
       style="fill:#99cc00" />
    <path
       d="M3892 3488 c-51 -27 -91 -53 -88 -55 5 -5 137 65 171 91 34 26 14 17 -83 -36z"
       id="path624"
       style="fill:#ff33ff" />
    <path
       d="M1454 3506 c-30 -13 -32 -16 -27 -59 5 -38 2 -47 -18 -61 -13 -9 -38 -16 -57 -16 -28 0 -35 5 -48 35 -12 30 -17 33 -36 25 -13 -6 -31 -13 -40 -16 -43 -15 -14 -82 70 -165 37 -36 80 -82 95 -102 29 -38 47 -47 47 -24 0 8 16 50 35 94 33 77 35 87 35 192 0 121 0 121 -56 97z"
       id="path626"
       style="fill:#ccff66" />
    <path
       d="M555 3503 c-11 -3 -24 -9 -29 -14 -8 -7 45 3 79 16 15 5 -27 4 -50 -2z"
       id="path628"
       style="fill:none" />
    <path
       d="M2404 3474 c-3 -19 -2 -74 5 -121 10 -83 16 -102 26 -92 6 6 57 210 53 213 -62 46 -75 46 -84 0z"
       id="path630"
       style="fill:#ff6633" />
    <path
       d="M3262 3488 c5 -15 28 -23 28 -10 0 5 -7 13 -16 16 -10 4 -14 1 -12 -6z"
       id="path632"
       style="fill:none" />
    <path
       d="M6070 3487 c0 -13 78 -73 85 -65 1 2 6 13 9 25 6 19 2 25 -19 33 -55 21 -75 23 -75 7z"
       id="path634"
       style="fill:#ff33ff" />
    <path
       d="M525 3466 c-39 -17 -95 -64 -95 -80 0 -7 9 -21 19 -30 18 -17 19 -16 26 13 4 17 10 29 15 26 4 -2 38 -5 74 -6 51 -1 71 3 86 16 19 17 19 18 -1 46 -16 23 -28 29 -57 29 -20 -1 -50 -7 -67 -14z"
       id="path636"
       style="fill:#3333ff" />
    <path
       d="M3271 3429 c-24 -16 -51 -29 -60 -29 -9 0 -34 -9 -56 -20 -22 -10 -88 -41 -147 -69 -59 -27 -127 -63 -152 -80 -24 -17 -49 -31 -55 -31 -6 0 -14 18 -17 40 -6 38 -13 44 -132 124 -69 47 -128 83 -132 81 -15 -9 -39 -123 -46 -212 -7 -93 -15 -113 -29 -70 -7 18 -9 14 -14 -23 -8 -56 7 -76 87 -118 61 -32 87 -33 222 -13 36 6 117 15 180 22 63 6 129 13 145 15 25 3 162 101 153 109 -10 9 -197 -37 -268 -65 -75 -30 -97 -35 -185 -36 -55 -1 -114 -5 -131 -9 -30 -7 -31 -6 -43 38 -15 62 -15 64 17 65 35 1 152 28 393 91 107 28 200 51 206 51 5 0 13 -23 16 -51 4 -29 9 -54 13 -58 11 -11 62 60 106 147 42 82 42 84 23 99 -44 32 -50 32 -94 2z"
       id="path638"
       style="fill:#339999" />
    <path
       d="M6388 3406 c3 -35 -2 -72 -13 -105 -17 -52 -68 -117 -84 -107 -10 7 -37 -22 -28 -30 12 -12 70 30 100 72 44 63 57 104 47 150 -11 46 -5 58 10 20 27 -73 0 -158 -70 -218 -22 -19 -40 -41 -40 -48 0 -19 74 55 116 116 34 49 34 52 24 98 -24 109 -70 147 -62 52z"
       id="path640"
       style="fill:#99cc66" />
    <path
       d="M950 3440 c0 -5 16 -10 36 -10 21 0 33 4 29 10 -3 6 -19 10 -36 10 -16 0 -29 -4 -29 -10z"
       id="path642"
       style="fill:#9999ff" />
    <path
       d="M1311 3420 c6 -16 15 -30 19 -30 5 0 4 14 -1 30 -6 17 -15 30 -19 30 -5 0 -4 -13 1 -30z"
       id="path644"
       style="fill:#9999ff" />
    <path
       d="M1945 3384 c5 -75 37 -241 54 -284 16 -41 12 -7 -10 87 -11 48 -27 129 -34 178 l-15 90 5 -71z"
       id="path646"
       style="fill:#99cc00" />
    <path
       d="M890 3431 c0 -12 41 -63 47 -58 7 8 -19 56 -33 61 -8 3 -14 2 -14 -3z"
       id="path648"
       style="fill:#99cc00" />
    <path
       d="M1407 3433 c-4 -3 -7 -13 -7 -22 1 -13 3 -13 11 2 11 19 8 33 -4 20z"
       id="path650"
       style="fill:none" />
    <path
       d="M6012 3408 c3 -30 50 -79 64 -66 6 7 -52 98 -62 98 -3 0 -4 -14 -2 -32z"
       id="path652"
       style="fill:#ff3399" />
    <path
       d="M950 3407 c0 -4 6 -23 14 -41 10 -25 25 -38 62 -52 26 -10 107 -47 179 -82 l130 -64 -45 46 c-28 30 -53 46 -68 46 -22 0 -24 3 -19 33 3 17 -1 46 -8 62 -7 17 -15 38 -19 48 -5 15 -18 17 -116 15 -60 -2 -110 -7 -110 -11z"
       id="path654"
       style="fill:#3333ff" />
    <path
       d="M6457 3389 c4 -13 8 -18 11 -10 2 7 -1 18 -6 23 -8 8 -9 4 -5 -13z"
       id="path656"
       style="fill:none" />
    <path
       d="M3375 3370 c-9 -18 -14 -34 -11 -37 2 -3 12 9 21 27 9 18 14 34 11 37 -2 3 -12 -9 -21 -27z"
       id="path658"
       style="fill:#99cc00" />
    <path
       d="M3394 3355 c-15 -29 -16 -39 -6 -53 32 -46 47 -81 52 -127 3 -35 9 -50 20 -50 12 0 16 20 18 110 3 117 -3 137 -44 149 -16 5 -25 -1 -40 -29z"
       id="path660"
       style="fill:#3333ff" />
    <path
       d="M493 3361 c-3 -9 -8 -19 -10 -23 -4 -7 85 -78 98 -78 5 0 9 22 9 48 l0 49 -46 10 c-39 9 -46 8 -51 -6z"
       id="path662"
       style="fill:#9999ff" />
    <path
       d="M6166 3363 c-11 -28 13 -77 50 -100 l35 -23 10 27 c8 23 6 31 -23 60 -45 47 -64 57 -72 36z"
       id="path664"
       style="fill:#ff33ff" />
    <path
       d="M606 3334 c-8 -20 -8 -64 0 -64 10 0 94 61 94 68 0 4 -20 8 -44 9 -32 1 -46 -2 -50 -13z"
       id="path666"
       style="fill:#99cc66" />
    <path
       d="M2250 3345 c0 -16 53 -125 62 -125 4 0 -6 28 -23 63 -33 66 -39 75 -39 62z"
       id="path668"
       style="fill:#99cc00" />
    <path
       d="M710 3264 c-47 -35 -96 -72 -110 -81 -104 -72 -130 -95 -130 -117 0 -26 97 -184 148 -241 66 -73 235 -158 355 -176 110 -17 273 -6 405 27 61 15 112 31 112 34 0 3 -24 12 -52 19 -125 32 -282 126 -379 228 -130 136 -248 303 -249 350 0 26 -19 18 -100 -43z m277 -336 c66 -71 140 -143 162 -160 23 -16 39 -34 35 -39 -12 -20 -234 4 -323 34 -108 38 -251 148 -251 194 0 18 56 79 125 136 l60 50 35 -43 c19 -24 90 -102 157 -172z"
       id="path670"
       style="fill:#339999" />
    <path
       d="M740 3079 c-40 -36 -41 -39 -12 -22 35 19 82 63 66 63 -5 0 -29 -19 -54 -41z"
       id="path672"
       style="fill:#00cc00" />
    <path
       d="M763 3065 c-22 -19 -52 -39 -65 -44 -24 -9 -25 -10 -14 -70 11 -59 12 -60 81 -109 39 -27 93 -56 120 -65 54 -18 168 -36 224 -37 l35 0 -120 123 c-66 67 -143 148 -170 179 l-50 58 -41 -35z m66 -71 c26 -33 26 -49 1 -74 -52 -52 -116 13 -80 81 15 27 55 24 79 -7z"
       id="path674"
       style="fill:#3333ff" />
    <path
       d="M772 2998 c-20 -20 -15 -66 8 -73 46 -15 66 44 24 71 -15 11 -23 11 -32 2z"
       id="path676"
       style="fill:#99cc66" />
    <path
       d="M642 2988 c-17 -17 -15 -42 8 -69 l19 -24 0 35 c-1 51 -11 74 -27 58z"
       id="path678"
       style="fill:#00cc00" />
    <path
       d="M3495 3258 c3 -40 8 -90 11 -112 5 -42 -8 -66 -36 -66 -24 0 -46 -28 -33 -41 9 -9 292 6 331 17 10 3 -1 31 -35 96 -39 74 -56 96 -83 110 -69 33 -147 68 -154 68 -3 0 -4 -33 -1 -72z"
       id="path680"
       style="fill:#339999" />
    <path
       d="M3315 3250 c-20 -33 -68 -88 -106 -122 -38 -34 -67 -64 -64 -66 8 -9 115 83 147 127 32 43 73 121 64 121 -3 0 -21 -27 -41 -60z"
       id="path682"
       style="fill:#990000" />
    <path
       d="M476 3283 c-2 -10 -8 -43 -12 -73 l-6 -54 35 31 c20 17 44 36 54 42 17 10 15 14 -17 41 -40 35 -47 36 -54 13z"
       id="path684"
       style="fill:#99cc66" />
    <path
       d="M1770 3270 c0 -60 23 -230 31 -230 5 0 9 9 9 20 0 11 9 43 20 72 11 29 20 59 20 67 0 8 -18 33 -40 57 l-40 44 0 -30z"
       id="path686"
       style="fill:#99cc66" />
    <path
       d="M6273 3263 c-6 -21 -10 -39 -8 -41 7 -8 26 40 23 59 -2 15 -6 10 -15 -18z"
       id="path688"
       style="fill:none" />
    <path
       d="M1048 3248 c79 -115 231 -220 357 -246 134 -29 168 -24 108 15 -15 10 -41 31 -58 46 -16 16 -60 46 -97 68 -72 42 -278 142 -317 154 -23 7 -23 6 7 -37z"
       id="path690"
       style="fill:#330066" />
    <path
       d="M2457 3283 c-11 -20 -16 -62 -8 -67 5 -3 11 12 13 34 4 40 3 46 -5 33z"
       id="path692"
       style="fill:#99cc00" />
    <path
       d="M1480 3189 c-25 -61 -31 -85 -23 -98 20 -32 37 -17 54 49 19 70 24 130 11 130 -5 0 -23 -37 -42 -81z"
       id="path694"
       style="fill:#9999ff" />
    <path
       d="M3175 3240 c-9 -19 -27 -46 -39 -59 l-21 -24 34 7 c18 3 40 6 47 6 15 0 18 51 5 85 -7 18 -10 16 -26 -15z"
       id="path696"
       style="fill:#99cc00" />
    <path
       d="M2945 3209 c-99 -27 -207 -54 -240 -60 -33 -7 -63 -15 -68 -18 -4 -4 4 -18 18 -31 l25 -23 97 17 c54 9 136 23 182 32 116 21 167 48 197 106 14 27 13 28 -8 27 -13 0 -104 -23 -203 -50z"
       id="path698"
       style="fill:#330066" />
    <path
       d="M3327 3217 c-15 -24 -52 -68 -83 -96 -31 -29 -55 -54 -53 -56 6 -5 166 23 206 36 29 9 32 14 27 37 -9 40 -47 116 -60 119 -7 2 -23 -16 -37 -40z"
       id="path700"
       style="fill:#3333ff" />
    <path
       d="M3700 3241 c0 -5 7 -14 15 -21 12 -10 15 -10 15 3 0 8 -7 17 -15 21 -8 3 -15 2 -15 -3z"
       id="path702"
       style="fill:none" />
    <path
       d="M3745 3212 c-13 -13 -2 -44 39 -108 28 -43 46 -63 49 -54 11 34 27 98 27 103 0 9 -109 65 -115 59z"
       id="path704"
       style="fill:#99cc66" />
    <path
       d="M3895 3160 c7 -11 65 -43 65 -36 0 2 -16 13 -36 25 -19 12 -32 16 -29 11z"
       id="path706"
       style="fill:none" />
    <path
       d="M3862 3101 c-21 -67 -16 -86 28 -115 41 -27 114 -112 125 -145 3 -10 -1 -33 -9 -52 -13 -31 -17 -33 -58 -31 -23 2 -65 10 -91 19 -45 14 -52 14 -105 -5 -39 -14 -95 -23 -176 -27 -102 -5 -121 -4 -137 11 -11 10 -25 14 -36 9 -10 -4 -47 -9 -83 -11 -36 -2 -112 -10 -170 -18 -78 -10 -92 -14 -55 -14 61 -2 234 15 261 24 17 6 18 5 4 -9 -12 -13 -45 -18 -150 -24 -89 -4 -125 -9 -105 -14 84 -20 282 -52 431 -69 154 -17 173 -17 228 -3 36 9 85 13 124 11 l64 -4 18 36 c10 20 52 85 92 145 41 61 79 125 86 142 10 31 9 34 -22 58 -18 13 -65 38 -105 54 -39 17 -85 39 -100 51 -40 28 -46 26 -59 -19z"
       id="path708"
       style="fill:#006699" />
    <path
       d="M2603 3107 c4 -10 7 -25 7 -33 0 -8 9 -14 20 -14 27 0 25 12 -7 41 -21 19 -25 20 -20 6z"
       id="path710"
       style="fill:#99cc00" />
    <path
       d="M2798 3083 c-16 -2 -28 -8 -28 -13 0 -9 54 -3 100 11 22 6 21 7 -10 7 -19 -1 -47 -3 -62 -5z"
       id="path712"
       style="fill:#99cc00" />
    <path
       d="M3660 3030 c-58 -4 -133 -8 -167 -9 -58 -1 -64 -3 -77 -29 -14 -27 -112 -102 -134 -102 -14 0 -16 -39 -3 -58 16 -25 182 6 361 66 139 47 190 72 190 93 0 23 -27 49 -48 47 -9 -1 -64 -5 -122 -8z"
       id="path714"
       style="fill:#339999" />
    <path
       d="M2940 3019 c-69 -6 -178 -23 -240 -36 -23 -5 -24 -6 -5 -13 44 -18 178 -10 249 15 106 37 105 44 -4 34z"
       id="path716"
       style="fill:#993366" />
    <path
       d="M3030 3005 c-115 -62 -265 -83 -362 -49 -26 8 -61 14 -80 12 l-33 -3 25 -23 c33 -31 93 -58 170 -78 110 -28 201 -7 285 68 31 27 65 75 65 93 0 11 -26 3 -70 -20z"
       id="path718"
       style="fill:#3333ff" />
    <path
       d="M3840 2933 c0 -29 -4 -54 -9 -58 -6 -3 -67 -12 -138 -20 -157 -18 -348 -51 -386 -67 -34 -13 -42 -5 -51 53 -3 22 -11 39 -17 39 -18 0 -53 -21 -85 -52 -28 -26 -35 -28 -54 -18 -18 10 -25 8 -45 -14 -27 -29 -35 -30 -84 -16 -29 8 -38 6 -67 -17 -19 -14 -32 -28 -30 -31 8 -7 359 29 671 69 50 7 163 12 253 11 89 -1 162 2 162 7 0 7 -89 132 -111 156 -5 5 -9 -12 -9 -42z"
       id="path720"
       style="fill:#ccff66" />
    <path
       d="M3887 2957 c27 -45 109 -145 111 -138 5 14 -15 49 -55 98 -32 39 -74 69 -56 40z"
       id="path722"
       style="fill:#993366" />
    <path
       d="M4195 2942 c-4 -9 -18 -48 -32 -87 -33 -90 -75 -174 -107 -212 -30 -35 -22 -43 44 -43 l38 0 -6 45 c-6 62 44 165 97 197 20 12 38 23 40 25 4 3 -48 81 -60 88 -4 3 -10 -3 -14 -13z"
       id="path724"
       style="fill:#330066" />
    <path
       d="M1980 2930 c-40 -40 -16 -99 35 -86 50 13 53 70 5 96 -15 8 -24 6 -40 -10z"
       id="path726"
       style="fill:#ff6633" />
    <path
       d="M3790 2940 c-8 -5 -54 -24 -103 -41 -48 -18 -86 -33 -84 -35 5 -5 202 18 208 25 4 3 9 18 13 34 7 29 -6 35 -34 17z"
       id="path728"
       style="fill:#993366" />
    <path
       d="M4074 2806 c-50 -78 -94 -149 -97 -158 -9 -26 11 -33 35 -11 22 19 161 290 156 302 -2 5 -44 -55 -94 -133z"
       id="path730"
       style="fill:#ff33ff" />
    <path
       d="M529 2902 c6 -12 16 -24 22 -28 8 -4 8 -1 0 14 -6 12 -16 24 -22 28 -8 4 -8 1 0 -14z"
       id="path732"
       style="fill:none" />
    <path
       d="M1772 2874 c-38 -27 -22 -94 23 -94 28 0 65 32 65 55 0 18 -35 55 -53 55 -7 0 -23 -7 -35 -16z"
       id="path734"
       style="fill:#ff6633" />
    <path
       d="M2403 2863 c-40 -15 -73 -30 -73 -34 0 -4 39 -12 88 -18 48 -7 104 -14 125 -17 20 -3 37 -2 37 3 0 18 -72 93 -88 92 -9 0 -50 -12 -89 -26z"
       id="path736"
       style="fill:#330066" />
    <path
       d="M3128 2842 c-10 -2 -18 -8 -18 -13 0 -13 27 -11 35 2 9 13 4 16 -17 11z"
       id="path738"
       style="fill:#ff3399" />
    <path
       d="M4350 2840 c0 -5 4 -10 10 -10 5 0 51 -40 102 -88 137 -130 178 -154 156 -89 -15 42 -100 125 -163 158 -59 31 -105 44 -105 29z"
       id="path740"
       style="fill:#ccff66" />
    <path
       d="M2590 2820 c6 -11 17 -20 25 -20 23 0 17 16 -10 28 -24 11 -25 10 -15 -8z"
       id="path742"
       style="fill:#00cc00" />
    <path
       d="M4238 2824 c-66 -35 -93 -180 -44 -229 13 -13 43 -29 67 -35 44 -12 185 -9 227 5 13 4 22 3 22 -3 0 -6 -18 -13 -40 -17 -22 -4 -40 -10 -40 -15 0 -5 30 -18 68 -30 37 -12 105 -39 151 -61 106 -49 118 -50 89 -4 -14 20 -31 35 -43 35 -28 0 -38 9 -70 60 -34 53 -54 71 -122 106 -56 29 -60 33 -41 52 13 13 10 15 -46 16 -36 1 -39 4 -56 45 -21 54 -52 91 -77 91 -10 -1 -30 -8 -45 -16z"
       id="path744"
       style="fill:#339999" />
    <path
       d="M2145 2823 c-174 -38 -296 -65 -320 -72 -16 -5 -47 -12 -67 -16 -73 -12 -37 -23 60 -19 151 8 256 30 397 84 51 19 -4 38 -70 23z"
       id="path746"
       style="fill:#ff33ff" />
    <path
       d="M2985 2800 c-4 -6 6 -10 24 -10 16 0 33 5 36 10 4 6 -6 10 -24 10 -16 0 -33 -4 -36 -10z"
       id="path748"
       style="fill:#00cc00" />
    <path
       d="M4097 2755 c-15 -30 -25 -55 -22 -55 7 0 57 101 53 106 -2 2 -16 -21 -31 -51z"
       id="path750"
       style="fill:#66ff00" />
    <path
       d="M3605 2789 c-44 -5 -97 -10 -117 -11 -38 -2 -49 -12 -25 -21 23 -8 262 15 287 29 24 13 23 13 -20 12 -25 0 -81 -5 -125 -9z"
       id="path752"
       style="fill:#ff33ff" />
    <path
       d="M4375 2764 c8 -20 15 -38 15 -40 0 -2 14 -4 30 -4 17 0 30 2 30 5 0 7 -74 74 -83 75 -4 0 0 -16 8 -36z"
       id="path754"
       style="fill:#00cc00" />
    <path
       d="M1355 2779 c22 -14 176 -61 182 -55 3 3 -33 15 -185 62 -13 4 -12 2 3 -7z"
       id="path756"
       style="fill:#00cc00" />
    <path
       d="M2630 2780 c0 -5 9 -10 21 -10 11 0 17 5 14 10 -3 6 -13 10 -21 10 -8 0 -14 -4 -14 -10z"
       id="path758"
       style="fill:none" />
    <path
       d="M2867 2782 c-26 -3 -33 -22 -11 -29 11 -4 52 23 44 29 -3 2 -18 2 -33 0z"
       id="path760"
       style="fill:#ff3399" />
    <path
       d="M3903 2783 c15 -2 39 -2 55 0 15 2 2 4 -28 4 -30 0 -43 -2 -27 -4z"
       id="path762"
       style="fill:none" />
    <path
       d="M2705 2770 c3 -5 15 -10 26 -10 10 0 19 5 19 10 0 6 -12 10 -26 10 -14 0 -23 -4 -19 -10z"
       id="path764"
       style="fill:#ff3399" />
    <path
       d="M2775 2760 c-7 -11 1 -15 50 -24 l30 -7 -25 21 c-28 22 -46 25 -55 10z"
       id="path766"
       style="fill:#00cc00" />
    <path
       d="M671 2744 c14 -17 95 -62 149 -82 52 -19 25 0 -74 52 -49 25 -83 39 -75 30z"
       id="path768"
       style="fill:#99cc00" />
    <path
       d="M1998 2713 c7 -3 16 -2 19 1 4 3 -2 6 -13 5 -11 0 -14 -3 -6 -6z"
       id="path770"
       style="fill:none" />
    <path
       d="M1663 2698 c-5 -10 250 -8 292 1 17 4 -41 7 -128 6 -88 0 -161 -3 -164 -7z"
       id="path772"
       style="fill:#00cc00" />
    <path
       d="M4480 2671 c0 -5 7 -12 16 -15 24 -9 28 -7 14 9 -14 17 -30 20 -30 6z"
       id="path774"
       style="fill:none" />
    <path
       d="M4151 2624 c0 -11 3 -14 6 -6 3 7 2 16 -1 19 -3 4 -6 -2 -5 -13z"
       id="path776"
       style="fill:none" />
    <path
       d="M3818 2621 c-57 -8 -74 -21 -27 -21 51 0 109 11 109 21 0 10 -11 10 -82 0z"
       id="path778"
       style="fill:#cc33ff" />
    <path
       d="M4650 2625 c0 -15 18 -40 24 -34 3 3 -1 14 -9 25 -8 10 -14 15 -15 9z"
       id="path780"
       style="fill:none" />
    <path
       d="M4610 2583 c14 -17 33 -45 42 -62 15 -28 48 -43 48 -22 0 19 -48 76 -80 95 l-35 20 25 -31z"
       id="path782"
       style="fill:#66ff00" />
    <path
       d="M4711 2523 c18 -49 58 -93 84 -93 15 0 31 -11 44 -29 11 -16 36 -36 55 -45 32 -15 97 -22 108 -11 2 3 0 30 -5 60 -9 48 -14 56 -36 61 -96 21 -153 38 -200 59 -29 14 -55 25 -57 25 -2 0 1 -12 7 -27z"
       id="path784"
       style="fill:#006699" />
    <path
       d="M4520 2471 c0 -10 100 -55 107 -47 3 3 -6 10 -21 15 -14 6 -40 18 -56 26 -17 9 -30 11 -30 6z"
       id="path786"
       style="fill:#cc33ff" />
    <path
       d="M5010 2436 c0 -31 39 -137 57 -158 23 -26 36 -22 29 7 -7 29 -5 30 49 10 22 -8 77 -14 123 -15 92 0 109 9 137 77 18 43 8 61 -26 43 -34 -19 -135 -7 -199 23 -30 13 -81 27 -112 30 -55 5 -58 4 -58 -17z"
       id="path788"
       style="fill:#339999" />
    <path
       d="M5190 2439 c0 -19 150 -45 176 -31 15 8 14 10 -12 16 -59 13 -164 22 -164 15z"
       id="path790"
       style="fill:#cc33ff" />
    <path
       d="M4811 2384 c35 -38 78 -61 158 -87 39 -13 71 -22 71 -21 0 2 -5 14 -11 28 -10 21 -16 24 -45 19 -45 -7 -117 21 -148 58 -14 16 -30 29 -37 29 -7 0 -2 -12 12 -26z"
       id="path792"
       style="fill:#cc33ff" />
    <path
       d="M5451 2363 c-41 -81 -196 -172 -265 -157 -17 3 -44 13 -59 21 -45 23 -42 10 10 -44 31 -32 74 -62 121 -83 l73 -34 57 19 c42 15 56 24 54 37 -1 10 9 36 24 60 31 49 84 158 84 174 0 8 -60 44 -75 44 -3 0 -13 -17 -24 -37z"
       id="path794"
       style="fill:#ccff66" />
    <path
       d="M5427 2373 c-4 -3 -7 -13 -7 -22 1 -13 3 -13 11 2 11 19 8 33 -4 20z"
       id="path796"
       style="fill:none" />
    <path
       d="M5544 2266 c-37 -115 -83 -174 -149 -196 -44 -15 -48 -18 -30 -27 11 -6 41 -14 67 -17 26 -4 63 -18 82 -31 30 -20 40 -22 70 -14 60 17 128 137 151 270 6 31 3 39 -19 56 -14 12 -47 24 -72 28 -26 3 -52 9 -59 12 -9 3 -22 -23 -41 -81z"
       id="path798"
       style="fill:#006699" />
    <path
       d="M5775 2278 c-2 -7 -6 -31 -10 -53 -14 -92 -40 -150 -85 -196 -25 -25 -54 -51 -65 -57 -32 -17 -8 -27 68 -28 41 0 94 -8 123 -18 73 -25 110 -8 164 75 22 34 40 66 40 70 0 5 -33 31 -74 58 -72 49 -116 95 -116 122 0 7 16 -6 36 -29 42 -50 132 -116 116 -85 -15 28 -114 118 -150 137 -37 19 -41 20 -47 4z m118 -161 c31 -22 57 -46 57 -53 0 -18 -23 -30 -28 -16 -2 7 -17 19 -34 28 -41 21 -109 84 -102 95 6 11 31 -1 107 -54z m-80 -47 c47 -22 115 -85 104 -96 -8 -8 -148 63 -164 84 -30 37 -4 42 60 12z"
       id="path800"
       style="fill:#330066" />
    <path
       d="M5864 2111 c4 -6 16 -16 28 -22 15 -8 18 -8 14 0 -4 6 -16 16 -28 22 -15 8 -18 8 -14 0z"
       id="path802"
       style="fill:none" />
    <path
       d="M5770 2066 c0 -5 86 -56 95 -56 15 0 -10 22 -45 40 -39 20 -50 23 -50 16z"
       id="path804"
       style="fill:#66ff00" />
    <path
       d="M5120 2264 c0 -11 14 -14 58 -13 60 0 51 11 -20 22 -29 4 -38 2 -38 -9z"
       id="path806"
       style="fill:#66ff00" />
    <path
       d="M5025 2244 c34 -26 55 -36 55 -25 0 13 -41 41 -60 41 -11 -1 -10 -4 5 -16z"
       id="path808"
       style="fill:#66ff00" />
    <path
       d="M5230 2243 c-19 -3 -39 -9 -44 -14 -15 -14 45 -10 79 6 31 14 26 15 -35 8z"
       id="path810"
       style="fill:#66ff00" />
    <path
       d="M5485 2190 c-15 -29 -21 -49 -16 -45 15 8 54 85 47 92 -2 3 -17 -18 -31 -47z"
       id="path812"
       style="fill:#cc33ff" />
    <path
       d="M5727 2161 c-4 -17 -3 -21 5 -13 5 5 8 16 6 23 -3 8 -7 3 -11 -10z"
       id="path814"
       style="fill:none" />
    <path
       d="M5701 2092 c-17 -31 -13 -40 5 -14 9 13 14 26 11 29 -3 2 -10 -4 -16 -15z"
       id="path816"
       style="fill:none" />
    <path
       d="M5245 2070 c18 -20 45 -27 45 -12 0 8 -43 32 -57 32 -3 0 2 -9 12 -20z"
       id="path818"
       style="fill:none" />
    <path
       d="M6010 2001 c-6 -24 -22 -54 -35 -67 -13 -13 -18 -24 -12 -24 7 0 18 5 23 10 7 7 19 8 37 1 18 -7 28 -7 32 0 9 14 -4 84 -20 105 -12 17 -14 15 -25 -25z"
       id="path820"
       style="fill:#006699" />
    <path
       d="M5962 1964 c-12 -20 -17 -34 -12 -32 14 4 55 68 43 68 -4 -1 -18 -17 -31 -36z"
       id="path822"
       style="fill:#66ff00" />
    <path
       d="M6032 1888 c2 -6 14 -18 26 -26 21 -14 22 -13 22 12 0 21 -5 26 -26 26 -15 0 -24 -5 -22 -12z"
       id="path824"
       style="fill:#cc33ff" />
  </g>
</svg>
