<?xml version="1.0" encoding="UTF-8" standalone="no"?>
<svg
   xmlns:dc="http://purl.org/dc/elements/1.1/"
   xmlns:cc="http://creativecommons.org/ns#"
   xmlns:rdf="http://www.w3.org/1999/02/22-rdf-syntax-ns#"
   xmlns:svg="http://www.w3.org/2000/svg"
   xmlns="http://www.w3.org/2000/svg"
   xmlns:sodipodi="http://sodipodi.sourceforge.net/DTD/sodipodi-0.dtd"
   xmlns:inkscape="http://www.inkscape.org/namespaces/inkscape"
   version="1.0"
   width="850.000000pt"
   height="850.000000pt"
   viewBox="0 0 850.000000 850.000000"
   preserveAspectRatio="xMidYMid meet"
   id="svg2"
   inkscape:version="0.91 r13725"
   sodipodi:docname="Animal_2018916_38.svg">
  <defs
     id="defs562" />
  <sodipodi:namedview
     pagecolor="#ffffff"
     bordercolor="#666666"
     borderopacity="1"
     objecttolerance="10"
     gridtolerance="10"
     guidetolerance="10"
     inkscape:pageopacity="0"
     inkscape:pageshadow="2"
     inkscape:window-width="1920"
     inkscape:window-height="979"
     id="namedview560"
     showgrid="false"
     inkscape:zoom="1.7769412"
     inkscape:cx="476.53212"
     inkscape:cy="591.06783"
     inkscape:window-x="0"
     inkscape:window-y="1"
     inkscape:window-maximized="1"
     inkscape:current-layer="svg2" />
  <metadata
     id="metadata4">
Created by potrace 1.14, written by Peter Selinger 2001-2017
<rdf:RDF>
  <cc:Work
     rdf:about="">
    <dc:format>image/svg+xml</dc:format>
    <dc:type
       rdf:resource="http://purl.org/dc/dcmitype/StillImage" />
  </cc:Work>
</rdf:RDF>
</metadata>
  <g
     transform="translate(0.000000,850.000000) scale(0.100000,-0.100000)"
     fill="#000000"
     stroke="none"
     id="g6">
    <path
       d="M0 4250 l0 -4250 4250 0 4250 0 0 4250 0 4250 -4250 0 -4250 0 0 -4250z m862 2828 c71 -42 158 -108 242 -181 59 -52 76 -62 124 -69 33 -5 94 -29 155 -60 80 -41 106 -60 131 -96 58 -84 62 -88 79 -74 12 10 43 9 158 -8 208 -30 335 -67 409 -120 l29 -21 3 68 3 68 60 15 c81 22 117 42 198 112 45 39 75 57 85 53 8 -3 35 -10 60 -16 24 -5 60 -17 80 -26 l37 -17 -67 -5 c-63 -6 -70 -9 -98 -43 -19 -23 -46 -42 -71 -49 -21 -7 -44 -18 -50 -26 -22 -26 12 -14 118 42 125 65 160 70 204 25 36 -36 30 -60 -8 -30 -14 11 -33 20 -43 20 -21 0 -53 -34 -75 -82 -21 -47 -62 -72 -143 -91 -35 -8 -65 -17 -68 -20 -3 -3 -4 -19 -2 -35 l3 -30 89 59 c109 72 132 79 219 66 56 -8 76 -6 110 7 54 20 70 20 90 -1 20 -23 26 -85 10 -90 -7 -3 -13 2 -13 11 0 18 -32 37 -47 28 -5 -4 -15 -17 -21 -28 -15 -28 -71 -54 -115 -54 -40 0 -97 18 -97 31 0 23 -23 4 -52 -42 -37 -61 -97 -107 -150 -115 -21 -4 -38 -8 -38 -10 0 -8 146 -265 185 -325 63 -97 208 -261 357 -403 131 -125 131 -125 159 -110 16 8 52 17 81 22 45 6 55 12 75 42 53 84 85 120 110 126 43 11 84 -20 106 -81 2 -6 13 -3 23 7 40 35 166 86 280 112 65 15 139 38 164 51 26 14 68 25 98 27 29 2 52 5 52 8 0 10 -86 59 -140 79 -65 25 -89 26 -116 6 -10 -8 -30 -15 -43 -15 -43 0 -164 50 -201 84 -20 18 -52 36 -71 39 -85 15 -332 38 -346 33 -8 -4 -22 -1 -30 6 -11 9 -43 9 -141 -1 -70 -7 -147 -16 -172 -21 -75 -15 -187 -22 -193 -13 -3 5 -3 14 1 20 12 19 155 91 195 98 21 4 37 13 37 21 0 18 56 31 165 39 50 3 122 13 162 22 67 15 79 15 166 0 52 -10 144 -22 203 -27 60 -6 142 -17 182 -25 40 -9 105 -15 145 -14 79 2 109 -7 171 -50 22 -16 71 -39 108 -51 56 -18 68 -26 77 -51 12 -36 27 -37 62 -3 l28 27 108 -41 c493 -185 654 -253 724 -303 22 -15 49 -58 90 -142 42 -87 69 -129 96 -151 21 -17 41 -30 46 -28 4 1 53 -31 107 -72 165 -124 387 -247 670 -371 96 -42 256 -116 356 -165 156 -75 190 -88 247 -92 108 -9 187 -66 172 -125 -4 -19 2 -33 30 -64 19 -21 35 -46 35 -55 0 -9 -16 -34 -35 -56 -20 -21 -38 -52 -42 -69 -12 -60 -103 -78 -164 -33 -92 69 -318 161 -734 298 -518 170 -615 197 -777 212 -63 6 -69 5 -99 -20 -17 -15 -68 -48 -113 -74 l-81 -47 48 -7 c27 -3 62 -11 79 -17 17 -6 57 -11 89 -11 66 0 75 -12 29 -38 -16 -9 -30 -20 -30 -23 0 -9 238 -87 410 -135 74 -20 209 -60 300 -87 91 -28 203 -61 250 -73 47 -13 213 -66 370 -118 157 -52 321 -104 365 -116 44 -11 97 -27 117 -35 l37 -14 50 57 c30 34 57 77 67 107 25 75 52 126 89 165 26 28 34 47 40 93 3 31 11 57 16 57 5 0 19 -21 30 -47 11 -26 25 -50 30 -54 6 -3 11 -22 12 -42 1 -20 5 -37 9 -37 10 0 71 61 90 90 9 14 18 23 21 20 11 -11 -21 -177 -41 -217 -27 -52 -27 -53 1 -53 14 0 39 16 62 40 21 22 47 40 56 40 10 0 36 21 58 46 l41 47 0 -30 c0 -37 -19 -93 -31 -93 -5 0 -18 -19 -29 -42 -24 -51 -57 -75 -244 -184 -152 -88 -235 -150 -236 -176 0 -9 17 -76 38 -150 51 -175 98 -282 250 -568 33 -63 81 -167 107 -230 25 -63 61 -137 79 -165 61 -92 134 -223 156 -282 23 -60 40 -203 24 -203 -5 0 -28 22 -51 49 -43 50 -222 182 -323 239 -30 17 -91 45 -135 62 -105 41 -125 55 -125 86 0 34 -24 78 -56 103 -20 16 -41 21 -83 21 -55 0 -131 -26 -145 -49 -12 -18 -71 -12 -100 10 -23 18 -31 19 -79 10 -44 -10 -64 -8 -127 8 -70 18 -108 23 -350 51 -52 6 -165 12 -250 14 -110 3 -186 11 -260 26 -68 15 -139 22 -203 22 -85 0 -98 2 -107 18 -15 28 -14 31 31 90 46 62 113 189 104 198 -10 11 -169 -47 -234 -85 -95 -57 -128 -90 -170 -173 -27 -53 -44 -76 -59 -78 -26 -4 -36 14 -55 108 -9 41 -31 115 -50 165 -46 118 -41 135 59 179 90 39 102 50 130 111 31 65 30 81 -5 116 -26 26 -36 29 -93 29 -35 0 -88 -7 -118 -15 -112 -32 -139 -31 -216 9 -38 20 -105 51 -149 70 -73 30 -80 36 -81 62 0 16 -1 34 -2 40 -5 30 -111 45 -169 24 -15 -6 -46 -32 -69 -57 l-40 -46 -55 25 c-45 22 -74 27 -176 33 -101 5 -127 4 -145 -9 -14 -10 -34 -13 -62 -10 -25 3 -58 -1 -83 -10 l-42 -15 -45 52 -45 52 6 -40 c8 -65 0 -68 -218 -73 l-190 -5 -14 -31 c-8 -17 -26 -48 -40 -69 -14 -20 -23 -37 -20 -37 10 0 221 59 249 69 18 8 69 9 145 5 129 -7 222 6 364 52 86 29 132 27 162 -6 14 -15 26 -18 59 -14 37 5 47 2 83 -27 23 -19 57 -43 75 -54 l33 -21 1 -89 c1 -50 -1 -96 -4 -102 -8 -24 -29 -13 -36 17 -4 24 -11 30 -31 30 -19 0 -28 -8 -39 -35 -15 -35 -36 -47 -36 -21 0 24 -50 67 -85 73 -21 3 -35 1 -35 -4 0 -6 -14 -16 -30 -23 -24 -10 -52 -10 -141 0 -70 8 -156 11 -230 7 -104 -6 -133 -12 -236 -48 -65 -23 -138 -47 -163 -54 -75 -22 -208 -83 -294 -134 -167 -101 -274 -240 -399 -518 -18 -39 -73 -58 -169 -58 -77 0 -90 3 -110 22 l-22 22 33 93 c18 51 45 134 60 183 16 50 31 97 35 107 7 14 2 14 -33 -4 -23 -11 -68 -23 -100 -27 -52 -6 -67 -14 -145 -75 -96 -75 -133 -119 -178 -215 -30 -61 -30 -67 -24 -162 7 -115 4 -118 -76 -69 -51 32 -68 32 -68 1 0 -14 6 -17 24 -14 50 10 152 -69 192 -149 28 -55 80 -97 172 -139 68 -32 168 -59 220 -59 17 0 32 -4 32 -10 0 -13 -18 -12 -100 0 -112 18 -228 63 -312 122 -23 16 -161 48 -205 48 -7 0 -13 -11 -13 -24 0 -18 7 -26 27 -31 27 -6 43 -21 43 -39 0 -5 -10 0 -23 12 -28 26 -45 27 -92 5 -40 -19 -43 -28 -15 -45 26 -17 25 -28 -2 -28 -16 0 -19 3 -10 9 10 6 10 10 -3 21 -12 10 -18 10 -30 0 -22 -19 -18 -34 15 -58 23 -17 30 -30 30 -56 0 -39 -31 -83 -72 -100 l-28 -12 59 -29 c70 -33 73 -32 128 55 45 71 104 125 172 156 60 28 159 45 147 26 -4 -7 7 -13 29 -18 19 -3 37 -10 40 -14 2 -4 -12 -34 -31 -66 -20 -32 -56 -99 -80 -148 l-43 -89 167 6 c92 3 178 10 192 15 23 10 22 11 -16 11 -61 1 -206 21 -232 31 -22 10 -22 11 -6 47 9 21 29 72 46 113 17 41 32 77 33 78 7 7 102 -53 154 -97 30 -25 73 -71 97 -103 25 -34 44 -53 47 -45 4 9 8 9 14 0 6 -8 38 -2 118 23 61 18 120 33 132 34 12 0 31 13 43 30 l21 30 -40 0 c-43 0 -67 17 -77 56 -22 89 106 155 173 88 14 -14 29 -22 32 -17 14 16 98 138 105 153 4 8 -2 4 -13 -9 l-21 -24 -60 27 c-33 15 -73 26 -87 24 -34 -4 -86 -68 -218 -265 -54 -79 -99 -142 -102 -139 -3 3 -1 12 6 19 6 8 20 48 30 88 27 105 76 185 146 237 32 23 62 42 68 42 6 0 20 9 32 20 21 19 23 19 76 4 30 -9 66 -22 81 -30 26 -13 29 -13 44 10 10 17 14 35 9 55 -3 17 -1 39 5 51 9 17 8 29 -3 53 -59 127 -59 189 2 311 l37 73 -34 24 c-54 37 -60 61 -27 111 15 24 37 53 48 66 11 12 16 22 10 22 -16 0 -79 -89 -108 -151 -29 -65 -42 -134 -26 -143 15 -10 14 -105 -2 -136 -7 -13 -23 -27 -37 -30 -18 -4 -25 -13 -25 -30 0 -21 4 -25 26 -22 45 4 62 -27 54 -97 -9 -77 -22 -89 -81 -73 -24 7 -48 12 -54 12 -5 0 -35 -22 -66 -50 -31 -27 -84 -63 -116 -79 -32 -16 -80 -45 -106 -64 -54 -40 -92 -60 -98 -54 -2 2 17 18 43 35 27 18 84 59 128 92 44 33 93 68 108 78 68 41 77 52 77 93 0 22 8 52 18 66 9 15 18 39 19 53 9 94 20 159 30 171 6 8 18 43 27 78 22 88 70 172 141 251 33 37 68 77 77 88 11 14 29 22 48 22 23 0 33 6 40 24 12 32 44 53 126 82 81 30 216 33 308 7 74 -20 134 -77 185 -172 22 -41 42 -66 59 -73 114 -44 162 -79 193 -140 16 -31 33 -45 77 -66 70 -32 143 -33 222 -3 71 27 86 26 131 -5 73 -51 176 -58 272 -19 76 31 165 55 205 55 80 0 169 -59 202 -135 27 -61 46 -191 30 -210 -21 -26 -38 -17 -74 39 -36 56 -75 79 -111 65 -30 -12 -73 -10 -95 3 -15 10 -26 10 -53 0 -44 -16 -62 -15 -77 3 -22 26 -55 17 -207 -59 -186 -93 -274 -121 -362 -112 -81 7 -130 32 -156 76 -11 20 -86 100 -167 178 -146 140 -148 142 -193 142 -57 0 -103 19 -161 66 l-45 37 -94 -11 c-52 -6 -99 -13 -104 -17 -6 -3 -22 -33 -37 -65 -15 -33 -30 -60 -34 -60 -4 0 -10 -17 -14 -39 -3 -21 -21 -70 -40 -107 -18 -38 -38 -87 -44 -109 -5 -22 -16 -54 -23 -72 -11 -28 -11 -36 6 -67 l19 -35 -23 -25 c-19 -20 -22 -32 -17 -58 4 -25 2 -37 -11 -49 -10 -8 -72 -81 -137 -162 -119 -146 -119 -147 -195 -178 -114 -47 -170 -65 -299 -96 -105 -24 -135 -27 -302 -27 -221 0 -286 14 -449 95 -128 64 -243 168 -330 299 -79 118 -86 151 -86 390 1 188 2 197 28 264 15 39 25 76 22 84 -2 7 5 32 17 55 15 29 22 62 23 107 2 60 6 73 57 161 83 143 106 178 166 251 50 60 56 72 57 118 1 28 -2 53 -7 56 -13 8 -9 56 8 108 11 33 39 72 89 125 40 43 105 127 145 187 69 102 74 112 75 167 3 89 -33 114 -67 47 -9 -18 -21 -36 -25 -41 -4 -4 -87 -15 -183 -24 -246 -24 -352 -13 -412 43 -40 37 -39 116 0 195 24 47 26 58 15 73 -7 10 -13 32 -13 49 0 42 -23 73 -42 57 -11 -9 -19 -8 -36 4 -20 13 -22 13 -38 -11 -9 -14 -18 -47 -21 -73 -7 -80 -12 -92 -34 -92 -28 0 -78 30 -85 52 -6 19 11 58 26 58 5 0 37 29 72 65 54 57 66 65 95 63 37 -2 52 7 36 23 -7 7 -25 9 -45 5 -53 -10 -98 -43 -116 -86 -10 -22 -21 -38 -27 -37 -24 8 -120 366 -135 502 -6 55 -16 127 -22 160 -19 98 -13 294 13 425 38 191 31 433 -16 590 -7 25 -23 79 -35 120 -13 41 -30 85 -38 98 -13 20 -13 25 -2 32 8 5 22 4 31 -1 27 -14 62 -11 88 7 20 14 22 23 18 56 -7 53 -29 76 -67 70 l-31 -4 22 41 c18 36 21 51 14 99 -4 31 -8 80 -7 107 1 28 2 80 2 118 2 73 -29 219 -59 288 -11 24 -17 47 -15 51 11 18 67 6 116 -24z m4252 -3739 c67 -52 -4 -165 -86 -137 -36 13 -64 64 -54 102 13 51 93 72 140 35z m-3227 -1366 c9 -23 -34 -58 -53 -42 -17 14 -18 31 -2 47 17 17 48 15 55 -5z m626 -76 l-61 -63 -7 -86 c-4 -48 -4 -92 0 -99 5 -8 4 -10 -3 -5 -14 8 -15 87 -3 159 7 40 17 58 62 103 29 30 58 54 63 54 5 0 -18 -28 -51 -63z m-654 0 c-2 -2 -34 -17 -71 -35 -72 -34 -89 -55 -129 -167 -10 -27 -18 -41 -18 -30 0 11 15 54 34 95 33 73 35 75 107 111 40 20 75 35 77 33 2 -2 2 -5 0 -7z"
       id="path8"
       style="fill:none" />
    <path
       d="M790 7077 c0 -2 9 -30 20 -63 12 -32 25 -79 31 -103 8 -34 30 -65 108 -151 58 -64 111 -134 132 -174 31 -59 32 -66 17 -78 -9 -7 -39 -39 -67 -72 -48 -56 -58 -84 -24 -71 13 4 14 3 3 -10 -7 -8 -15 -13 -19 -10 -4 2 -31 42 -59 89 -29 47 -56 86 -60 86 -19 0 -2 -69 26 -114 42 -65 42 -107 3 -147 -16 -16 -36 -29 -44 -29 -8 0 2 -17 25 -41 40 -42 74 -101 108 -190 21 -57 75 -244 84 -294 3 -16 12 -61 20 -100 8 -40 19 -201 25 -377 11 -280 16 -344 37 -448 4 -19 4 -32 0 -29 -16 14 -36 173 -42 317 -11 319 -25 535 -35 551 -8 12 -9 9 -5 -14 8 -48 16 -192 27 -470 5 -143 12 -276 14 -295 l4 -35 -10 35 c-5 19 -14 143 -20 275 -5 132 -13 290 -17 350 l-7 110 -18 -55 c-10 -30 -34 -84 -53 -120 -19 -35 -34 -69 -34 -75 0 -5 21 -41 47 -79 45 -64 48 -74 55 -150 3 -44 7 -120 7 -167 1 -72 -2 -91 -19 -112 -11 -14 -20 -28 -20 -30 0 -3 33 -48 73 -99 81 -104 117 -154 117 -161 0 -3 -54 49 -120 114 l-120 120 41 42 41 42 -7 155 c-7 165 -10 175 -71 260 -19 26 -34 54 -34 63 0 8 20 57 45 109 24 51 47 110 51 130 6 35 3 39 -55 94 l-61 57 6 56 c3 31 12 97 20 146 13 82 12 94 -3 137 -18 51 -79 139 -101 146 -11 3 -12 0 -2 -18 10 -18 9 -21 -1 -15 -9 6 -10 3 -5 -11 4 -10 13 -45 20 -76 6 -31 15 -60 19 -64 14 -14 7 67 -9 97 -8 17 -14 33 -11 35 2 2 14 -18 26 -44 17 -37 20 -53 13 -73 -6 -14 -8 -61 -6 -104 4 -86 14 -114 15 -44 0 36 2 40 9 22 5 -13 5 -35 -1 -55 -5 -18 -10 -69 -9 -113 1 -200 -9 -420 -21 -447 -14 -35 -6 -376 11 -448 6 -25 11 -63 12 -85 0 -49 31 -205 60 -303 16 -55 24 -70 30 -57 7 11 2 30 -12 61 -12 25 -20 47 -18 50 3 2 13 -14 23 -36 10 -22 22 -40 27 -40 5 0 23 10 39 23 23 16 45 22 85 23 41 0 60 6 75 21 l21 20 -30 54 c-39 68 -94 208 -89 223 2 6 7 -4 11 -22 5 -18 14 -36 22 -39 8 -3 14 -15 14 -26 0 -12 17 -56 37 -100 l37 -78 85 84 c47 47 128 117 179 157 79 62 93 76 87 94 -20 62 -17 145 8 223 36 109 41 147 27 198 -15 52 -61 112 -79 101 -17 -11 -61 -83 -61 -100 0 -7 6 -19 14 -25 7 -6 19 -31 26 -55 10 -37 9 -56 -4 -114 -19 -86 -20 -178 -2 -211 14 -24 11 -27 -93 -104 -58 -43 -115 -87 -127 -98 -11 -11 -24 -16 -27 -12 -11 10 -8 101 7 198 15 103 98 309 151 380 42 54 104 151 127 196 17 32 220 240 311 317 20 17 37 34 37 36 0 3 30 52 67 108 68 104 136 250 126 274 -4 11 -74 46 -81 40 -1 -2 -20 -54 -42 -116 -36 -102 -78 -185 -118 -232 -22 -27 -88 -23 -150 8 -52 26 -63 37 -161 157 -30 37 -56 65 -58 63 -2 -2 14 -33 36 -69 57 -94 91 -163 91 -187 0 -31 -26 -76 -94 -163 -76 -98 -82 -109 -101 -179 -9 -32 -20 -58 -25 -58 -5 0 -16 16 -25 36 -8 19 -40 74 -71 122 -79 121 -292 502 -280 502 2 0 53 -87 112 -192 110 -198 232 -398 243 -398 3 1 20 19 36 41 17 22 37 48 46 58 25 28 125 165 138 188 21 40 11 48 -19 16 -41 -46 -48 -41 -9 6 17 22 30 44 28 50 -5 13 -245 17 -331 6 -70 -9 -65 -25 -73 235 -3 107 -8 226 -11 263 -5 60 -8 67 -21 55 -15 -12 -15 -11 -2 10 8 12 17 22 21 22 4 0 21 -18 37 -41 38 -52 265 -319 268 -315 1 1 -6 20 -17 41 -11 22 -20 47 -20 57 0 53 -126 222 -175 234 -13 3 -26 12 -29 20 -10 26 25 28 78 5 108 -48 212 -82 404 -135 109 -30 241 -72 293 -93 100 -41 100 -41 86 -108 -6 -27 -2 -33 40 -61 64 -41 113 -129 95 -168 -30 -66 -107 -80 -196 -35 -38 19 -45 26 -40 43 4 12 4 19 1 16 -4 -4 -67 -96 -81 -119 -2 -3 17 -5 42 -3 47 3 69 -7 158 -73 18 -13 24 -13 64 8 24 12 52 33 62 47 43 60 38 185 -12 284 -17 33 -29 60 -28 62 9 8 131 -152 180 -234 32 -54 73 -120 93 -149 19 -28 35 -57 35 -63 0 -29 -53 -180 -79 -226 -39 -68 -165 -194 -222 -222 -26 -12 -54 -34 -63 -47 -18 -28 -103 -74 -132 -73 -15 1 -248 -147 -288 -182 -8 -8 20 -120 30 -120 8 0 132 73 264 155 131 82 389 210 525 262 44 17 130 41 190 53 167 33 175 36 175 73 -1 69 -55 146 -93 131 -10 -4 -71 51 -185 165 l-169 170 21 21 c19 19 20 22 5 48 -10 19 -23 27 -43 27 -31 1 -45 16 -82 87 -13 26 -38 63 -54 82 l-31 34 26 39 c19 26 25 46 21 65 -5 24 1 29 77 69 54 28 103 64 145 106 34 35 64 63 66 63 2 0 15 -11 30 -25 44 -40 119 -28 188 31 23 19 38 24 56 19 22 -5 24 -4 13 9 -17 20 -40 20 -66 0 -16 -12 -39 -14 -127 -8 l-107 6 -43 -34 c-24 -19 -84 -62 -133 -95 -50 -33 -97 -68 -104 -77 -7 -9 -17 -16 -22 -16 -19 0 -7 27 31 74 31 38 40 56 40 87 0 42 -5 38 88 58 57 12 83 30 134 96 24 30 53 57 66 61 19 5 32 24 16 24 -11 0 -46 -22 -65 -41 -10 -10 -23 -19 -29 -19 -5 0 -25 -11 -45 -24 -19 -13 -54 -27 -78 -31 -23 -4 -54 -16 -68 -26 -25 -18 -105 -145 -129 -206 -13 -34 -30 -44 -30 -18 0 9 11 37 25 64 21 42 23 56 16 100 -10 62 -1 76 58 91 24 6 53 22 65 34 11 13 41 33 66 45 25 13 55 34 66 48 12 14 37 29 55 33 l34 8 -32 1 c-17 1 -38 4 -47 7 -10 4 -29 -10 -56 -39 -47 -51 -159 -114 -222 -125 l-43 -7 -6 -105 c-6 -106 -11 -131 -36 -159 -8 -9 -22 -27 -33 -41 -17 -24 -20 -24 -52 -11 -18 7 -55 21 -83 31 -40 13 -53 24 -67 53 -10 19 -23 39 -29 42 -6 4 -31 -7 -56 -24 l-44 -31 -42 18 c-23 10 -95 35 -160 56 -83 26 -116 40 -110 49 3 7 20 29 37 50 30 38 30 39 11 53 -11 8 -29 12 -40 9 -37 -10 -258 -45 -262 -41 -3 3 62 16 215 43 35 6 41 17 15 28 -26 9 -240 140 -297 181 -35 25 -57 34 -73 29 -16 -4 -21 -2 -17 9 3 8 -13 27 -43 49 -26 19 -64 52 -83 72 -36 38 -180 160 -180 152z m246 -335 c17 -20 61 -77 99 -127 37 -49 72 -96 78 -102 7 -10 4 -13 -13 -13 -15 0 -20 4 -17 15 4 8 1 17 -5 21 -7 4 -8 3 -4 -4 4 -7 5 -12 2 -12 -6 0 -126 157 -126 165 0 3 5 3 12 -1 7 -4 8 -3 4 5 -4 6 -11 9 -15 6 -8 -4 -61 66 -61 80 0 14 18 1 46 -33z m84 -260 c0 -10 -15 -29 -32 -42 l-33 -23 28 30 c15 16 27 34 27 41 0 7 2 12 5 12 3 0 5 -8 5 -18z m-11 -133 c-24 -33 -47 -63 -53 -66 -10 -7 14 31 62 95 42 56 35 35 -9 -29z m-91 -125 c-32 -45 -32 -46 -15 -76 10 -17 16 -33 14 -35 -3 -2 -14 12 -25 31 l-21 35 35 45 c45 60 55 60 12 0z m485 -521 c-43 -79 -48 -87 -38 -53 7 25 63 120 71 120 2 0 -13 -30 -33 -67z m-238 -143 c45 -63 103 -148 129 -188 39 -62 44 -73 26 -67 -46 15 -151 -131 -150 -209 0 -14 9 -5 28 29 42 76 70 110 121 146 43 31 42 29 -19 -31 -96 -96 -170 -269 -170 -399 0 -60 -21 -41 -27 26 -3 31 -1 43 5 35 10 -15 42 101 42 154 0 84 60 203 126 248 l35 24 -61 88 c-34 49 -80 117 -103 151 -23 35 -46 63 -51 63 -4 0 -6 -57 -3 -127 3 -71 10 -227 16 -348 5 -121 8 -221 5 -224 -14 -15 -19 32 -20 207 0 183 -15 351 -44 504 -6 28 -10 55 -10 61 0 20 43 -30 125 -143z m-335 28 c-9 -39 -9 -64 -2 -91 8 -29 7 -46 -4 -75 -11 -29 -13 -31 -7 -7 3 17 5 44 3 60 -8 70 1 188 13 175 5 -4 3 -32 -3 -62z m1739 -10 c36 -40 96 -103 132 -140 36 -38 63 -70 61 -73 -3 -3 -17 -4 -31 -4 -17 1 -20 3 -8 6 25 7 21 19 -14 43 l-30 22 -98 -31 c-155 -49 -166 -42 -84 50 31 35 63 71 71 81 12 14 9 21 -23 57 -21 23 -41 41 -45 41 -4 0 -11 -12 -15 -27 -8 -34 -78 -180 -100 -209 -14 -19 -13 -23 11 -55 14 -19 29 -41 34 -49 8 -13 12 -13 37 1 34 20 191 69 219 68 10 0 -24 -13 -77 -28 -53 -15 -113 -37 -134 -49 -20 -13 -39 -22 -40 -20 -2 2 -20 27 -40 57 -37 53 -37 55 -21 80 26 39 96 189 96 205 0 23 11 46 22 46 6 0 40 -33 77 -72z m-1746 -365 c4 -6 3 -22 -2 -35 l-10 -23 0 25 c-1 14 -3 43 -6 65 -4 35 -4 36 4 9 4 -17 11 -36 14 -41z m-18 -92 c-4 -18 2 -51 14 -89 26 -75 27 -90 2 -37 -23 52 -32 101 -25 131 9 34 17 30 9 -5z m70 -506 c-2 -11 -5 -38 -6 -60 -1 -38 -1 -38 -9 -12 -5 17 -4 40 2 57 8 24 6 36 -11 64 -12 18 -21 37 -21 42 0 5 12 -9 26 -31 14 -23 22 -48 19 -60z"
       id="path10"
       style="fill:#660000" />
    <path
       d="M1070 6677 c0 -5 23 -38 50 -74 60 -80 67 -76 9 5 -49 67 -59 79 -59 69z"
       id="path12"
       style="fill:#6699ff" />
    <path
       d="M1166 5625 c3 -33 8 -62 10 -64 9 -10 3 96 -7 109 -7 11 -8 -3 -3 -45z"
       id="path14"
       style="fill:none" />
    <path
       d="M2620 5459 c-34 -39 -59 -73 -57 -76 3 -2 51 10 106 28 111 35 108 30 52 92 -14 15 -28 27 -32 27 -5 0 -36 -32 -69 -71z"
       id="path16"
       style="fill:#cc33ff" />
    <path
       d="M981 6932 c5 -13 134 -122 144 -122 5 0 -4 14 -21 31 -33 35 -128 105 -123 91z"
       id="path18"
       style="fill:#3399ff" />
    <path
       d="M863 6796 c0 -32 2 -36 9 -21 5 13 6 5 3 -26 -3 -25 -2 -56 3 -69 6 -16 4 -39 -6 -70 l-14 -45 58 -88 59 -88 57 63 c32 35 58 71 58 80 0 38 -66 133 -170 244 l-57 62 0 -42z"
       id="path20"
       style="fill:#3399cc" />
    <path
       d="M1194 6781 c13 -21 301 -201 321 -201 14 0 1 24 -32 61 -50 55 -316 185 -289 140z"
       id="path22"
       style="fill:#3399ff" />
    <path
       d="M852 6644 c-1 -21 2 -33 8 -29 12 7 14 65 3 65 -5 0 -9 -16 -11 -36z"
       id="path24"
       style="fill:none" />
    <path
       d="M1607 6564 c-13 -13 -7 -24 16 -34 77 -32 330 -130 429 -165 l117 -42 10 28 c11 33 12 32 -81 83 -78 43 -249 98 -358 115 -41 7 -86 14 -100 17 -14 3 -29 2 -33 -2z"
       id="path26"
       style="fill:#3399ff" />
    <path
       d="M2323 6533 c-7 -2 -13 -18 -13 -34 0 -35 13 -31 35 12 16 29 10 35 -22 22z"
       id="path28"
       style="fill:#cc99ff" />
    <path
       d="M1552 6488 c-18 -23 -32 -44 -32 -47 0 -4 35 -16 78 -29 42 -12 106 -34 142 -47 81 -31 84 -31 126 1 41 32 55 27 89 -26 14 -22 33 -40 43 -40 9 0 42 -12 72 -26 l55 -25 18 22 c10 12 16 27 14 33 -2 6 -32 21 -68 34 -72 25 -197 73 -377 144 -67 26 -124 48 -125 48 -2 0 -17 -19 -35 -42z"
       id="path30"
       style="fill:#336699" />
    <path
       d="M1260 6461 c0 -6 5 -11 12 -11 7 0 37 -24 66 -52 57 -56 57 -39 0 24 -33 37 -78 59 -78 39z"
       id="path32"
       style="fill:#6699ff" />
    <path
       d="M1350 6433 c0 -3 8 -15 17 -25 17 -19 85 -146 149 -278 27 -55 56 -94 110 -147 41 -40 71 -73 67 -73 -4 0 -20 12 -35 27 -15 15 -28 24 -28 20 0 -9 41 -46 64 -59 14 -8 17 -7 11 3 -6 9 -3 10 11 4 10 -4 44 -14 74 -21 48 -12 56 -11 72 3 25 23 23 28 -16 30 -62 3 -123 37 -145 82 -31 60 -28 113 9 154 39 45 79 61 140 55 37 -4 61 -14 90 -37 21 -17 41 -31 43 -31 3 0 7 12 10 28 3 15 8 34 12 43 7 18 -69 46 -270 99 -149 39 -298 87 -347 112 -21 10 -38 15 -38 11z"
       id="path34"
       style="fill:#6699ff" />
    <path
       d="M1194 6389 c19 -140 28 -258 27 -360 -2 -132 4 -145 63 -133 20 3 36 9 36 13 0 4 -13 20 -30 36 -32 31 -60 83 -59 112 0 10 8 -1 17 -25 19 -47 86 -122 109 -122 19 0 197 32 202 36 11 9 -109 177 -218 306 -88 104 -128 144 -134 135 -6 -8 -7 -4 -4 10 3 13 1 26 -5 29 -7 4 -8 -8 -4 -37z"
       id="path36"
       style="fill:#3333ff" />
    <path
       d="M1475 6163 c9 -21 23 -45 31 -53 9 -9 5 7 -10 38 -30 60 -44 70 -21 15z"
       id="path38"
       style="fill:#6699ff" />
    <path
       d="M1761 6182 c-19 -10 -41 -30 -50 -43 -14 -23 -13 -23 15 3 16 15 47 34 69 42 25 9 32 15 20 15 -11 1 -36 -7 -54 -17z"
       id="path40"
       style="fill:#6699ff" />
    <path
       d="M2333 6157 l-22 -36 42 -64 c23 -35 50 -78 59 -96 14 -25 22 -31 38 -26 42 13 90 -71 59 -102 -9 -9 5 -30 54 -85 123 -137 244 -248 269 -248 45 0 98 -76 98 -139 0 -42 20 -53 69 -42 23 5 44 9 47 9 22 1 -3 26 -148 150 -90 76 -180 157 -200 180 -53 59 -324 475 -339 521 -3 9 -13 1 -26 -22z"
       id="path42"
       style="fill:#0066ff" />
    <path
       d="M1770 6160 c-40 -24 -80 -77 -80 -106 0 -11 11 -36 25 -57 33 -48 90 -72 157 -68 21 1 60 67 84 139 l17 54 -26 26 c-37 36 -126 42 -177 12z m115 -90 c0 -18 -6 -26 -23 -28 -13 -2 -25 3 -28 12 -10 26 4 48 28 44 17 -2 23 -10 23 -28z"
       id="path44"
       style="fill:#0066ff" />
    <path
       d="M1844 6079 c-10 -17 13 -36 27 -22 12 12 4 33 -11 33 -5 0 -12 -5 -16 -11z"
       id="path46"
       style="fill:#6699ff" />
    <path
       d="M3193 6083 c-13 -2 -23 -9 -23 -14 0 -6 -27 -8 -72 -5 -40 3 -68 4 -63 2 27 -12 420 -79 490 -83 72 -4 78 -3 65 10 -10 11 -69 22 -190 37 -188 23 -225 28 -218 35 3 3 90 -6 194 -19 104 -13 191 -21 194 -19 11 10 -28 22 -104 33 -45 6 -103 16 -129 21 -48 9 -103 10 -144 2z"
       id="path48"
       style="fill:#330099" />
    <path
       d="M2054 6010 c-50 -97 -51 -98 -27 -77 25 21 76 124 70 140 -2 7 -21 -22 -43 -63z"
       id="path50"
       style="fill:#6699ff" />
    <path
       d="M2096 6026 c-10 -25 -32 -64 -51 -89 l-34 -44 41 -23 c56 -31 120 -31 153 0 32 30 32 69 1 119 -21 33 -74 81 -89 81 -2 0 -12 -20 -21 -44z"
       id="path52"
       style="fill:#9966ff" />
    <path
       d="M2976 6051 c5 -4 45 -14 88 -21 94 -14 106 -18 106 -34 0 -7 65 -19 193 -33 105 -13 203 -25 217 -29 18 -5 22 -4 15 4 -12 13 -204 46 -255 44 -26 -2 -31 1 -20 8 8 5 12 10 9 10 -4 0 -81 14 -172 30 -182 33 -196 34 -181 21z m237 -48 c-7 -2 -19 -2 -25 0 -7 3 -2 5 12 5 14 0 19 -2 13 -5z m75 -10 c-10 -2 -28 -2 -40 0 -13 2 -5 4 17 4 22 1 32 -1 23 -4z"
       id="path54"
       style="fill:#3333ff" />
    <path
       d="M2277 6010 c8 -25 18 -73 20 -107 5 -53 2 -70 -20 -115 -24 -48 -78 -98 -107 -98 -13 0 -12 -2 5 -75 20 -82 19 -125 -6 -190 -11 -31 -21 -75 -21 -98 -1 -50 11 -107 21 -107 15 0 126 78 155 108 28 30 28 32 12 56 -9 14 -16 36 -16 49 0 12 -16 47 -35 77 -19 30 -35 58 -35 61 0 3 29 41 65 84 36 43 74 98 86 121 l21 44 -51 82 c-27 46 -63 99 -80 118 l-30 35 16 -45z"
       id="path56"
       style="fill:#330099" />
    <path
       d="M3588 6034 c6 -11 19 -20 29 -21 10 -1 90 -20 178 -43 194 -51 199 -51 201 -24 1 19 -9 25 -70 43 -89 25 -209 49 -288 58 -57 6 -60 5 -50 -13z m402 -88 c0 -3 -4 -8 -10 -11 -5 -3 -10 -1 -10 4 0 6 5 11 10 11 6 0 10 -2 10 -4z"
       id="path58"
       style="fill:#330099" />
    <path
       d="M2887 6025 c-62 -13 -95 -32 -38 -21 19 3 60 8 90 11 43 3 35 1 -33 -13 -56 -10 -91 -22 -94 -31 -4 -12 8 -13 69 -7 41 3 115 14 164 23 l90 17 -85 17 c-100 21 -90 20 -163 4z"
       id="path60"
       style="fill:#330099" />
    <path
       d="M3940 6001 c8 -5 26 -12 40 -16 22 -7 23 -6 11 9 -7 9 -25 16 -40 16 -19 -1 -22 -3 -11 -9z"
       id="path62"
       style="fill:none" />
    <path
       d="M2761 5986 c-32 -18 -38 -50 -8 -42 12 3 28 6 35 6 6 0 12 5 12 11 0 7 -12 8 -32 4 l-33 -6 35 20 c19 11 31 20 25 20 -5 0 -21 -6 -34 -13z"
       id="path64"
       style="fill:#330099" />
    <path
       d="M3610 5990 c0 -5 7 -10 15 -10 9 0 34 -9 56 -20 50 -26 345 -133 454 -165 29 -9 35 -12 15 -9 -19 4 -48 7 -65 9 -16 1 -40 7 -52 13 -49 26 -34 10 17 -19 30 -17 76 -49 102 -70 42 -35 88 -51 88 -31 0 4 -36 27 -79 52 -44 24 -78 46 -76 49 3 2 46 -20 97 -50 95 -54 107 -57 193 -42 40 6 40 6 -60 39 -55 18 -93 33 -84 33 9 1 63 -14 121 -33 88 -28 122 -34 226 -38 67 -2 119 -1 115 2 -14 12 -380 131 -443 144 -39 8 -289 70 -464 115 -174 45 -176 45 -176 31z"
       id="path66"
       style="fill:#660033" />
    <path
       d="M962 5878 c-20 -166 -20 -164 43 -223 l55 -51 0 34 c0 22 -13 55 -36 92 -34 55 -36 63 -34 132 3 94 2 118 -8 118 -4 0 -13 -46 -20 -102z"
       id="path68"
       style="fill:#9966ff" />
    <path
       d="M3578 5963 c7 -3 16 -2 19 1 4 3 -2 6 -13 5 -11 0 -14 -3 -6 -6z"
       id="path70"
       style="fill:none" />
    <path
       d="M3620 5961 c0 -8 34 -21 55 -21 11 1 -35 29 -47 30 -5 0 -8 -4 -8 -9z"
       id="path72"
       style="fill:none" />
    <path
       d="M4014 5937 c-10 -23 -9 -24 84 -45 53 -12 98 -20 100 -17 15 14 -16 36 -85 59 -43 14 -80 26 -83 26 -3 0 -10 -11 -16 -23z"
       id="path74"
       style="fill:#330099" />
    <path
       d="M3623 5927 c5 -15 189 -59 201 -47 9 9 -101 45 -167 54 -27 3 -37 1 -34 -7z"
       id="path76"
       style="fill:#9966ff" />
    <path
       d="M1468 5918 c-38 -6 -68 -14 -68 -19 0 -5 41 -8 90 -6 74 2 90 5 88 17 -4 19 -25 20 -110 8z"
       id="path78"
       style="fill:#6699ff" />
    <path
       d="M3622 5888 c5 -15 135 -60 158 -55 8 1 15 9 15 17 0 10 -24 20 -75 32 -91 21 -103 22 -98 6z"
       id="path80"
       style="fill:#3333ff" />
    <path
       d="M1745 5875 c17 -8 37 -14 45 -14 8 0 -1 7 -20 14 -46 18 -64 17 -25 0z"
       id="path82"
       style="fill:none" />
    <path
       d="M1011 5840 c0 -25 7 -56 15 -70 14 -24 15 -23 9 24 -10 75 -24 101 -24 46z"
       id="path84"
       style="fill:none" />
    <path
       d="M3840 5871 c0 -6 8 -11 19 -11 10 0 38 -7 61 -15 55 -19 65 -11 14 10 -55 23 -94 30 -94 16z"
       id="path86"
       style="fill:none" />
    <path
       d="M4325 5850 c-8 -13 3 -17 240 -91 39 -12 106 -37 150 -56 303 -132 348 -159 469 -279 38 -38 67 -62 64 -54 -3 8 -12 40 -21 70 -10 36 -28 67 -49 87 -51 49 -332 172 -569 249 -63 20 -145 47 -182 60 -75 26 -93 29 -102 14z"
       id="path88"
       style="fill:#660000" />
    <path
       d="M1899 5761 c-46 -30 -309 -292 -327 -326 -8 -15 -4 -27 23 -60 64 -79 69 -142 25 -277 -16 -50 -30 -107 -30 -127 0 -37 17 -111 26 -111 3 0 25 15 49 33 44 32 44 33 45 92 0 79 33 197 70 250 37 54 94 101 139 116 32 11 36 10 56 -13 15 -17 25 -51 34 -112 l13 -87 42 34 c22 19 51 37 64 41 18 6 21 12 15 34 -13 46 -7 124 16 190 12 35 19 67 17 71 -18 29 -197 10 -310 -33 -38 -14 -93 -40 -123 -57 -30 -17 -56 -29 -59 -27 -10 10 80 130 129 173 61 53 160 107 240 130 33 10 55 21 51 27 -14 23 -100 68 -129 68 -17 0 -51 -13 -76 -29z"
       id="path90"
       style="fill:#660033" />
    <path
       d="M2412 5773 c-6 -9 -7 -51 -5 -93 6 -88 -12 -161 -54 -211 -23 -27 -24 -32 -13 -59 15 -37 20 -37 51 -2 40 43 54 70 88 174 l32 97 -37 55 c-40 60 -48 65 -62 39z"
       id="path92"
       style="fill:#0066ff" />
    <path
       d="M2327 5651 c-31 -38 -57 -74 -57 -79 0 -5 13 -32 29 -61 l28 -53 22 28 c11 15 28 49 36 77 16 54 20 157 7 157 -4 0 -34 -31 -65 -69z"
       id="path94"
       style="fill:#cc33ff" />
    <path
       d="M2054 5681 c-93 -27 -164 -65 -230 -124 -53 -49 -141 -156 -118 -145 5 2 47 23 94 46 106 52 181 72 290 77 47 3 85 6 84 7 0 2 -4 24 -7 51 -7 48 -32 108 -45 106 -4 0 -35 -8 -68 -18z"
       id="path96"
       style="fill:#330099" />
    <path
       d="M4348 5682 c-53 -3 -60 -13 -25 -29 37 -17 176 -139 220 -193 22 -28 46 -50 52 -50 14 0 100 54 109 68 7 12 -57 99 -99 134 -16 14 -45 33 -63 42 -19 10 -31 20 -28 23 10 11 92 -46 136 -95 99 -109 130 -154 146 -211 8 -31 24 -77 36 -103 l21 -47 36 34 c65 63 252 120 315 96 16 -7 31 -9 34 -7 10 11 -146 155 -216 200 l-73 48 -50 -24 -51 -24 54 -60 c29 -33 60 -70 68 -83 15 -23 17 -23 87 -12 88 13 123 14 123 2 0 -5 -15 -9 -32 -8 -18 1 -65 -2 -105 -7 l-72 -8 -15 30 c-8 16 -39 55 -68 87 l-52 57 23 19 c13 11 29 19 37 19 69 0 -109 75 -226 95 -70 13 -211 16 -322 7z"
       id="path98"
       style="fill:#660033" />
    <path
       d="M3980 5664 c-24 -14 -22 -14 25 -8 75 10 100 23 45 23 -25 0 -56 -6 -70 -15z"
       id="path100"
       style="fill:#9966ff" />
    <path
       d="M4130 5660 c-287 -28 -689 -176 -610 -225 5 -3 28 8 52 25 23 17 51 30 63 29 11 -1 43 9 70 21 28 13 82 27 120 31 39 5 89 11 113 15 63 9 223 -13 300 -41 138 -52 223 -135 298 -292 20 -41 40 -71 44 -66 15 15 33 128 26 165 -15 80 -135 218 -273 311 -59 40 -64 40 -203 27z"
       id="path102"
       style="fill:#660000" />
    <path
       d="M3343 5523 c-19 -21 -69 -96 -110 -166 -41 -70 -96 -150 -121 -177 -89 -95 -122 -137 -122 -159 0 -27 -36 -85 -95 -151 -25 -28 -45 -53 -45 -57 0 -3 13 -27 29 -52 15 -26 34 -64 42 -86 7 -22 22 -50 33 -63 14 -15 17 -25 9 -33 -5 -5 -66 -36 -134 -68 -68 -31 -155 -76 -194 -98 -109 -65 -303 -158 -311 -150 -4 4 20 35 54 68 34 34 62 64 62 67 0 13 -116 -10 -166 -32 -31 -14 -58 -26 -60 -26 -2 0 -1 25 2 55 6 52 5 55 -15 55 -36 0 -92 -60 -105 -114 l-13 -49 -74 -27 c-41 -15 -105 -39 -144 -55 -124 -49 -349 -124 -370 -124 -20 1 0 8 128 48 61 19 266 97 323 123 12 6 27 22 34 36 6 14 25 43 41 64 l31 38 -48 0 c-26 0 -75 -4 -108 -9 -34 -6 -104 -15 -156 -21 -52 -6 -150 -24 -218 -41 -147 -35 -195 -37 -67 -3 105 27 342 67 501 84 l112 11 46 45 c52 50 77 55 103 21 17 -23 19 -23 63 -10 75 24 213 53 245 52 17 -1 -6 -7 -51 -15 -44 -8 -113 -25 -153 -37 -73 -22 -74 -23 -87 -65 -11 -40 -11 -43 4 -36 65 28 124 43 169 44 48 0 57 4 105 47 29 25 56 50 59 55 10 15 72 58 84 58 6 0 22 -19 35 -42 13 -24 24 -45 26 -47 4 -5 94 33 94 39 0 3 -18 27 -40 54 -22 26 -40 56 -40 66 0 9 18 56 40 103 52 111 52 127 1 127 -57 0 -131 -12 -131 -21 0 -4 18 -29 40 -54 22 -25 40 -50 40 -54 0 -9 -90 -44 -160 -62 -25 -6 -102 -33 -171 -59 -69 -27 -195 -69 -280 -94 -165 -47 -448 -111 -456 -102 -3 3 -1 38 5 79 11 68 3 179 -13 195 -12 13 -119 -64 -258 -185 -72 -63 -87 -81 -82 -97 4 -12 12 -45 18 -73 7 -37 15 -53 26 -53 18 0 -32 -29 -67 -39 -18 -5 -31 -25 -53 -79 -16 -41 -29 -84 -29 -96 0 -40 71 -83 84 -51 3 8 0 15 -7 16 -7 0 -1 5 12 10 13 5 29 8 35 5 6 -2 3 -5 -6 -5 -12 -1 -18 -9 -18 -25 0 -19 6 -25 33 -29 17 -2 52 2 77 9 39 12 48 11 68 -2 30 -20 51 -14 126 31 l60 36 21 -27 c19 -24 24 -25 44 -15 12 7 29 10 38 7 9 -4 23 3 34 18 10 13 35 31 55 41 33 16 38 16 52 1 9 -9 19 -37 22 -63 l5 -48 70 -6 c39 -3 56 -6 39 -7 -22 -2 -34 -9 -42 -27 -6 -14 -10 -25 -7 -25 6 0 79 43 85 51 3 3 15 9 27 13 28 9 136 87 185 134 27 26 36 41 32 57 -4 18 10 30 98 82 130 77 309 174 461 249 l117 59 25 -30 c13 -17 40 -60 60 -97 20 -38 38 -68 41 -68 5 0 45 20 52 25 2 2 -15 43 -36 91 -22 49 -45 106 -52 127 -13 41 -15 42 -50 22 -45 -25 -68 -19 -90 26 -29 56 -23 79 27 107 l43 23 -16 31 c-8 16 -13 32 -10 35 2 3 12 -9 21 -26 8 -17 18 -31 21 -31 3 0 35 16 71 36 64 36 65 37 84 17 13 -13 22 -39 26 -75 6 -62 7 -60 -72 -94 -56 -25 -75 -50 -28 -40 20 5 43 -1 76 -18 47 -23 50 -23 88 -7 21 9 39 20 39 25 0 5 -18 65 -40 132 -22 68 -40 127 -40 133 0 5 39 30 87 56 72 39 89 45 97 33 15 -20 319 -210 391 -245 54 -26 105 -33 105 -15 0 4 -40 27 -88 51 -198 98 -263 150 -323 257 -33 58 -40 61 -79 39 -14 -8 -36 -14 -48 -15 -13 0 -35 -9 -49 -20 -39 -31 -52 -24 -14 8 l33 28 -22 54 c-32 75 -37 79 -54 38 -24 -55 -31 -119 -16 -128 10 -6 8 -13 -7 -29 -36 -39 -218 -149 -229 -139 -14 15 194 363 313 523 66 89 88 126 80 133 -31 24 -39 22 -74 -15z m-1723 -976 c0 -18 -3 -55 -6 -84 -6 -49 -9 -53 -48 -71 -57 -27 -186 -56 -196 -46 -5 5 -12 28 -16 51 l-6 42 68 35 c38 19 96 53 128 75 33 22 63 38 68 35 4 -3 8 -20 8 -37z m578 -155 c3 -22 -30 -48 -48 -37 -16 10 -11 43 8 54 23 14 36 9 40 -17z m-584 -148 c-5 -20 -20 -45 -34 -56 -26 -19 -223 -72 -243 -65 -6 2 27 11 73 21 91 20 170 50 182 69 4 7 8 30 8 52 0 29 3 36 11 28 8 -8 9 -23 3 -49z m-77 30 c-3 -3 -12 -4 -19 -1 -8 3 -5 6 6 6 11 1 17 -2 13 -5z m688 -36 c15 -37 5 -100 -22 -137 -32 -43 -98 -74 -139 -66 -28 5 -39 13 -50 40 -24 58 -18 91 24 136 66 71 162 85 187 27z m-728 26 c-3 -3 -12 -4 -19 -1 -8 3 -5 6 6 6 11 1 17 -2 13 -5z m-38 -8 c-2 -3 -38 -14 -78 -25 -41 -11 -78 -26 -83 -33 -15 -24 -9 -76 10 -81 12 -3 11 -5 -6 -6 -22 -1 -23 2 -20 51 l3 52 75 22 c72 22 108 29 99 20z"
       id="path104"
       style="fill:#660000" />
    <path
       d="M1560 4544 c-19 -14 -70 -43 -113 -65 -43 -22 -80 -46 -83 -52 -2 -7 0 -25 4 -42 11 -36 26 -36 143 1 89 28 92 33 87 126 l-3 56 -35 -24z"
       id="path106"
       style="fill:#330099" />
    <path
       d="M2162 4398 c-14 -14 -16 -38 -3 -38 5 0 14 7 21 15 17 20 0 41 -18 23z"
       id="path108"
       style="fill:#ff3366" />
    <path
       d="M2095 4242 c-17 -11 -43 -34 -59 -52 -23 -28 -27 -39 -21 -69 4 -20 11 -44 16 -53 13 -24 49 -24 49 0 0 33 59 103 101 121 21 9 39 21 39 26 0 41 -77 57 -125 27z"
       id="path110"
       style="fill:#6699ff" />
    <path
       d="M2174 4151 c-27 -17 -54 -47 -78 -88 -5 -9 0 -13 14 -13 25 0 96 66 105 98 8 27 -1 28 -41 3z"
       id="path112"
       style="fill:#3399cc" />
    <path
       d="M3935 5543 c-24 -3 -35 -12 -51 -46 -24 -51 -75 -87 -121 -87 -40 0 -67 12 -105 48 l-27 25 -45 -27 c-25 -15 -46 -29 -46 -31 0 -6 78 -77 95 -87 17 -10 237 65 317 107 36 19 77 47 91 61 l26 26 32 -26 c44 -37 100 -64 148 -72 63 -10 58 -21 -12 -29 -160 -17 -517 -100 -531 -124 -3 -5 3 -16 13 -25 16 -14 22 -15 62 -1 54 18 382 83 462 92 l59 6 -59 -56 c-33 -31 -82 -95 -113 -146 -46 -77 -58 -91 -80 -91 -31 0 -70 25 -70 45 0 8 -25 40 -55 72 -30 32 -55 52 -55 45 0 -6 9 -21 20 -32 15 -15 16 -20 5 -20 -8 0 -23 21 -34 46 -18 40 -23 45 -43 38 -46 -14 -71 -25 -67 -29 2 -2 67 -67 144 -145 l140 -141 3 36 c2 20 9 38 17 41 7 3 42 -9 76 -27 35 -18 96 -43 134 -55 39 -13 63 -23 54 -24 -25 0 -138 39 -200 71 -49 24 -58 26 -63 13 -17 -45 -7 -58 82 -107 48 -26 105 -58 127 -71 l40 -24 62 46 63 47 -48 12 -47 12 56 -6 c60 -5 107 12 177 64 34 26 35 31 10 111 l-10 34 -42 -40 c-55 -53 -81 -65 -141 -65 -90 0 -145 48 -145 128 0 82 61 155 129 155 74 0 116 -63 109 -165 -3 -46 -5 -50 -30 -53 -15 -2 -59 10 -97 26 -39 17 -71 26 -71 21 0 -24 33 -70 60 -84 61 -32 117 -15 183 53 l39 40 -24 59 c-31 75 -108 192 -154 232 -93 82 -304 140 -449 124z"
       id="path114"
       style="fill:#660033" />
    <path
       d="M1407 5522 c-18 -20 -23 -62 -8 -62 5 0 13 18 19 40 5 22 9 40 7 40 -1 0 -9 -8 -18 -18z"
       id="path116"
       style="fill:none" />
    <path
       d="M3742 5511 c-73 -25 -83 -37 -53 -62 30 -24 64 -33 96 -25 33 8 83 55 87 81 3 17 -3 20 -37 22 -22 2 -64 -6 -93 -16z m91 -18 c10 -10 -13 -33 -34 -33 -24 0 -35 20 -18 31 17 10 43 12 52 2z"
       id="path118"
       style="fill:#cc33ff" />
    <path
       d="M3795 5480 c-3 -5 -2 -10 4 -10 5 0 13 5 16 10 3 6 2 10 -4 10 -5 0 -13 -4 -16 -10z"
       id="path120"
       style="fill:none" />
    <path
       d="M4049 5494 c-34 -37 -156 -96 -279 -135 -58 -18 -107 -35 -109 -36 -3 -2 2 -10 10 -18 12 -12 25 -10 97 15 86 31 376 90 440 90 42 0 34 12 -19 29 -20 6 -54 27 -76 46 l-40 34 -24 -25z"
       id="path122"
       style="fill:#9966ff" />
    <path
       d="M3347 5398 c-117 -155 -323 -498 -300 -498 5 0 49 26 99 59 l91 58 5 64 c5 63 39 149 58 149 8 0 66 -77 95 -125 8 -13 15 -15 38 -6 15 6 27 16 27 22 0 7 -27 39 -60 72 -33 33 -59 61 -58 63 2 1 41 9 88 19 104 20 191 46 188 56 -2 4 -44 46 -95 93 l-92 87 -84 -113z"
       id="path124"
       style="fill:#660033" />
    <path
       d="M4706 5461 c-10 -10 -37 -29 -62 -42 -37 -20 -44 -28 -38 -44 4 -11 9 -42 11 -68 l5 -49 37 7 c20 4 58 16 85 28 48 20 48 20 42 60 -7 40 -39 111 -55 121 -4 3 -16 -3 -25 -13z"
       id="path126"
       style="fill:#3333ff" />
    <path
       d="M3140 5368 c-39 -20 -90 -76 -90 -99 0 -4 30 13 67 37 37 24 72 44 78 44 7 0 20 9 30 20 18 20 17 20 -11 20 -17 0 -50 -10 -74 -22z"
       id="path128"
       style="fill:#6699ff" />
    <path
       d="M4050 5303 c-102 -19 -187 -37 -190 -40 -5 -5 36 -44 147 -140 l60 -51 54 90 c30 50 76 110 103 134 34 31 43 44 30 43 -11 0 -102 -17 -204 -36z m57 -29 c9 -24 -10 -49 -38 -49 -27 0 -37 28 -19 50 17 20 49 19 57 -1z"
       id="path130"
       style="fill:#cc33ff" />
    <path
       d="M4062 5267 c-7 -8 -7 -18 -2 -27 8 -13 11 -13 26 2 9 9 13 21 10 27 -9 15 -21 14 -34 -2z"
       id="path132"
       style="fill:#cc99ff" />
    <path
       d="M5052 5315 c-35 -11 -67 -30 -121 -71 -2 -2 7 -12 20 -23 24 -19 24 -19 54 8 28 24 54 37 108 55 15 5 16 9 7 26 -12 23 -11 23 -68 5z"
       id="path134"
       style="fill:#cc6666" />
    <path
       d="M5140 5311 c0 -14 12 -21 58 -30 32 -6 68 -18 80 -27 26 -18 27 -13 7 27 -18 34 -50 49 -106 49 -31 0 -39 -4 -39 -19z"
       id="path136"
       style="fill:#cc6666" />
    <path
       d="M1873 5280 c-29 -22 -66 -60 -83 -84 -32 -48 -60 -145 -60 -213 l0 -42 128 85 c70 47 133 91 139 97 10 10 10 28 2 77 -20 127 -45 143 -126 80z"
       id="path138"
       style="fill:#330099" />
    <path
       d="M3610 5310 c-8 -5 -58 -19 -110 -31 -142 -32 -136 -25 -75 -92 l54 -59 101 51 c56 28 108 51 116 51 23 0 17 13 -24 53 -42 41 -41 41 -62 27z"
       id="path140"
       style="fill:#0066ff" />
    <path
       d="M2917 5303 c-1 -1 -58 -13 -127 -27 -181 -38 -262 -67 -475 -171 -104 -51 -196 -98 -203 -103 -11 -8 -11 -15 5 -43 15 -28 18 -56 18 -160 l0 -125 113 32 c62 17 114 33 116 35 2 2 6 22 7 44 l4 40 -82 -3 -81 -4 -6 39 c-3 21 -7 65 -8 98 l-3 59 104 13 c97 11 113 17 124 47 2 6 13 0 25 -12 13 -13 27 -20 32 -17 17 11 352 75 390 75 32 0 42 7 86 57 27 31 59 74 70 94 l22 37 -65 -1 c-35 -1 -65 -3 -66 -4z"
       id="path142"
       style="fill:#660033" />
    <path
       d="M4770 5291 c-8 -5 -45 -19 -83 -31 -57 -19 -68 -26 -73 -48 -3 -15 -12 -41 -20 -58 -14 -28 -14 -36 1 -82 26 -77 18 -271 -13 -329 -12 -24 -18 -43 -12 -43 5 0 10 4 10 8 0 7 181 141 253 187 l28 18 -27 28 c-39 41 -44 112 -13 201 l23 68 -22 45 c-23 47 -27 50 -52 36z"
       id="path144"
       style="fill:#330099" />
    <path
       d="M3118 5261 c-71 -39 -164 -116 -198 -163 -17 -23 -39 -71 -50 -107 -20 -72 -32 -151 -22 -150 11 1 94 103 114 139 11 22 18 55 18 92 0 64 11 77 93 108 35 13 109 93 96 103 -2 2 -25 -8 -51 -22z"
       id="path146"
       style="fill:#cc33ff" />
    <path
       d="M5309 5255 c18 -39 26 -43 36 -18 4 12 -1 24 -15 35 -33 27 -39 22 -21 -17z"
       id="path148"
       style="fill:#cc3333" />
    <path
       d="M4320 5258 c-18 -20 -40 -76 -40 -104 0 -15 115 -64 155 -67 29 -2 30 0 33 42 4 59 -21 125 -54 140 -38 17 -71 13 -94 -11z"
       id="path150"
       style="fill:#0066ff" />
    <path
       d="M4913 5254 c-20 -18 -22 -22 -7 -15 21 10 52 41 41 41 -3 0 -19 -12 -34 -26z"
       id="path152"
       style="fill:none" />
    <path
       d="M1441 5237 c-34 -55 -109 -223 -126 -280 -15 -55 -38 -267 -30 -276 3 -2 20 9 38 25 23 22 168 132 194 148 1 1 -5 23 -14 49 -14 43 -14 56 1 143 20 119 20 147 0 190 -20 43 -37 43 -63 1z"
       id="path154"
       style="fill:#330099" />
    <path
       d="M5072 5243 c-36 -17 -67 -56 -83 -103 -12 -34 -4 -120 12 -120 5 0 28 14 51 30 38 28 42 34 43 79 1 27 11 67 22 90 18 36 19 41 4 41 -9 0 -31 -8 -49 -17z"
       id="path156"
       style="fill:#ff6600" />
    <path
       d="M4888 5202 c-41 -44 -82 -142 -59 -142 39 0 111 24 115 38 19 64 17 87 -6 110 l-24 22 -26 -28z"
       id="path158"
       style="fill:#cc6666" />
    <path
       d="M5353 5218 c-6 -7 -9 -35 -6 -65 5 -43 9 -53 24 -53 16 0 19 8 19 48 0 56 -19 92 -37 70z"
       id="path160"
       style="fill:#cc3333" />
    <path
       d="M3668 5208 c-16 -5 -28 -13 -28 -16 0 -4 22 -37 49 -73 58 -79 117 -128 214 -181 39 -21 61 -36 47 -32 -86 22 -251 157 -297 242 -10 17 -21 32 -25 32 -12 0 -10 -133 3 -168 6 -17 18 -33 27 -36 39 -10 99 -19 118 -17 31 3 93 -25 101 -46 11 -29 40 -56 55 -50 8 3 5 6 -7 7 -19 1 -19 1 -2 11 9 6 26 7 37 4 12 -4 20 -2 20 5 0 6 5 8 11 4 12 -7 29 12 29 34 0 6 -11 12 -24 12 -26 0 -49 18 -67 52 -19 35 -2 30 19 -7 12 -19 28 -35 37 -35 8 0 15 1 15 3 0 1 -61 63 -136 137 l-136 135 6 -45 c10 -64 26 -84 83 -98 27 -7 62 -24 78 -38 l30 -26 -38 22 c-21 12 -59 28 -85 34 -38 10 -50 18 -64 46 -10 19 -18 50 -18 68 0 34 -7 37 -52 20z"
       id="path162"
       style="fill:#6699ff" />
    <path
       d="M5210 5212 c0 -4 9 -13 21 -20 11 -7 26 -27 34 -45 l13 -32 8 29 c6 25 3 33 -20 53 -26 22 -56 31 -56 15z"
       id="path164"
       style="fill:#cc6666" />
    <path
       d="M2083 5174 c-18 -14 -33 -30 -33 -35 0 -12 72 24 89 45 23 27 -19 20 -56 -10z"
       id="path166"
       style="fill:#6699ff" />
    <path
       d="M5410 5133 c0 -46 -7 -82 -20 -112 -24 -52 -24 -51 -5 -51 20 0 34 -31 25 -56 -11 -29 -29 -39 -36 -20 -8 22 -21 20 -34 -5 -16 -28 -5 -65 25 -85 22 -14 29 -14 85 0 76 20 99 21 82 4 -7 -7 -12 -20 -12 -30 0 -15 8 -18 43 -18 23 0 59 5 80 11 46 12 53 8 35 -21 -11 -18 -10 -23 7 -36 22 -17 57 -12 124 17 57 25 63 24 55 -6 -13 -51 -2 -56 73 -33 120 35 113 36 113 -10 0 -75 37 -86 129 -36 24 13 46 24 50 24 3 0 6 -17 6 -37 0 -37 1 -38 37 -41 20 -2 50 4 67 12 45 24 53 21 45 -19 -6 -32 -4 -35 18 -35 13 0 33 7 44 15 29 22 45 19 39 -7 -3 -13 0 -31 8 -42 13 -18 16 -18 98 1 l84 20 -70 33 c-38 17 -162 72 -275 120 -304 130 -480 224 -755 404 -77 51 -146 96 -152 100 -10 5 -13 -9 -13 -61z m98 -59 c22 -15 30 -58 12 -69 -28 -17 -81 45 -59 71 15 18 19 18 47 -2z"
       id="path168"
       style="fill:#ff6600" />
    <path
       d="M5480 5052 c0 -12 19 -26 26 -19 2 2 -2 10 -11 17 -9 8 -15 8 -15 2z"
       id="path170"
       style="fill:none" />
    <path
       d="M3543 5150 c-29 -17 -53 -35 -53 -40 0 -16 61 -113 94 -148 41 -44 107 -86 246 -158 103 -54 118 -59 148 -51 31 10 32 11 32 65 0 51 -1 54 -22 49 -79 -20 -78 -20 -108 8 -16 15 -26 33 -23 40 4 13 -51 35 -87 35 -13 0 -13 -2 0 -11 13 -9 12 -10 -3 -5 -9 3 -46 11 -82 17 -35 6 -69 17 -75 24 -7 9 -10 49 -8 109 2 53 1 96 -2 96 -3 0 -29 -14 -57 -30z m302 -230 c8 -13 -5 -13 -25 0 -13 8 -13 10 2 10 9 0 20 -4 23 -10z"
       id="path172"
       style="fill:#330099" />
    <path
       d="M3021 5121 c-24 -34 -26 -42 -8 -35 17 6 51 64 38 64 -5 0 -19 -13 -30 -29z"
       id="path174"
       style="fill:none" />
    <path
       d="M3990 5111 c0 -5 7 -17 16 -25 17 -17 34 -21 34 -8 0 10 -33 42 -43 42 -4 0 -7 -4 -7 -9z"
       id="path176"
       style="fill:none" />
    <path
       d="M2830 5102 c-57 -5 -334 -62 -342 -70 -4 -4 23 -42 60 -85 l67 -78 95 7 c52 3 98 9 101 13 4 3 14 31 24 61 10 30 28 76 41 102 29 57 29 57 7 55 -10 -1 -34 -3 -53 -5z m-22 -119 c3 -19 -3 -22 -73 -28 -42 -4 -78 -5 -81 -2 -3 3 29 8 70 12 96 9 106 32 14 29 l-63 -1 55 7 c70 8 74 8 78 -17z m-185 0 c-27 -5 -29 -18 -5 -32 15 -9 15 -10 1 -11 -9 0 -24 11 -33 25 l-16 25 37 -1 c23 -1 29 -3 16 -6z"
       id="path178"
       style="fill:#3333ff" />
    <path
       d="M5358 5081 c-9 -3 -35 -27 -58 -53 -39 -44 -40 -48 -24 -66 14 -17 19 -18 43 -6 27 14 45 42 61 96 9 31 3 39 -22 29z"
       id="path180"
       style="fill:#cc6666" />
    <path
       d="M4862 5048 c-42 -9 -43 -10 -36 -41 8 -36 32 -77 45 -77 5 0 28 12 52 27 23 15 43 28 45 29 1 0 -5 17 -13 37 -16 40 -22 41 -93 25z"
       id="path182"
       style="fill:#cc6666" />
    <path
       d="M2416 4973 c-10 -43 -20 -111 -23 -151 -7 -90 -8 -91 -162 -134 -91 -25 -114 -35 -121 -53 -11 -30 -63 -72 -99 -80 -20 -4 -45 1 -78 15 l-49 21 -64 -21 c-89 -27 -90 -27 -90 23 0 35 -23 130 -36 145 -1 2 -11 -1 -22 -7 -18 -10 -19 -13 -6 -48 15 -43 17 -137 4 -203 -4 -25 -7 -46 -6 -47 1 -2 18 2 37 7 19 6 89 21 156 35 151 31 389 102 520 154 54 21 145 53 202 69 57 17 108 35 113 40 7 7 -17 42 -66 101 -43 50 -81 93 -87 96 -5 4 -27 31 -50 61 -22 30 -43 54 -48 54 -4 0 -16 -35 -25 -77z"
       id="path184"
       style="fill:#660033" />
    <path
       d="M2300 5016 l-85 -11 3 -80 c2 -44 7 -83 11 -87 3 -4 38 -5 77 -1 l72 6 11 66 c6 36 14 78 17 94 5 19 2 27 -7 26 -8 -1 -52 -7 -99 -13z"
       id="path186"
       style="fill:#3333ff" />
    <path
       d="M3610 5001 c0 -5 5 -13 10 -16 6 -3 10 -2 10 4 0 5 -4 13 -10 16 -5 3 -10 2 -10 -4z"
       id="path188"
       style="fill:none" />
    <path
       d="M2074 4980 c-5 -4 -74 -48 -154 -96 -80 -48 -146 -88 -148 -89 -6 -5 50 -108 76 -143 59 -78 164 -105 216 -57 47 44 60 89 59 201 -2 134 -22 210 -49 184z"
       id="path190"
       style="fill:#330099" />
    <path
       d="M3323 4947 c-46 -23 -63 -37 -63 -52 0 -23 49 -176 60 -188 12 -14 58 55 69 103 12 52 14 170 4 169 -5 0 -36 -14 -70 -32z"
       id="path192"
       style="fill:#0066ff" />
    <path
       d="M4941 4951 c-22 -14 -39 -30 -38 -36 5 -17 131 -55 138 -42 22 41 19 53 -20 79 l-39 25 -41 -26z"
       id="path194"
       style="fill:#cc6666" />
    <path
       d="M5208 4960 c-9 -6 -42 -16 -74 -23 -51 -12 -59 -17 -66 -42 -4 -16 -5 -31 -2 -34 9 -10 180 45 203 65 5 5 -30 44 -38 44 -3 0 -14 -5 -23 -10z"
       id="path196"
       style="fill:#cc6666" />
    <path
       d="M3444 4903 c0 -70 -27 -134 -78 -191 l-37 -41 27 -75 c24 -68 28 -74 48 -66 29 11 286 120 368 156 37 16 68 32 68 36 0 4 -30 22 -68 41 -37 19 -121 69 -187 112 -66 42 -124 79 -130 81 -6 3 -10 -18 -11 -53z m293 -207 c-2 -5 -61 -28 -131 -52 -71 -23 -133 -47 -139 -53 -20 -20 -46 -11 -63 20 -20 39 -24 36 121 89 61 23 121 47 135 55 23 13 27 12 52 -18 15 -18 26 -36 25 -41z"
       id="path198"
       style="fill:#6699ff" />
    <path
       d="M3635 4730 c-22 -11 -82 -34 -132 -52 -51 -18 -93 -37 -93 -43 0 -6 6 -19 13 -29 12 -16 16 -16 62 7 28 14 91 38 140 53 50 15 92 29 94 30 6 5 -28 54 -37 53 -4 0 -25 -9 -47 -19z"
       id="path200"
       style="fill:#ff3366" />
    <path
       d="M4497 4908 c-48 -28 -116 -74 -151 -102 -35 -28 -98 -75 -140 -104 -42 -29 -76 -56 -76 -60 0 -4 18 -14 39 -23 39 -16 39 -16 121 22 45 22 84 39 86 39 2 0 24 -35 49 -77 43 -74 47 -78 107 -101 35 -13 81 -25 103 -27 53 -5 95 -21 95 -38 0 -15 -17 -24 -131 -68 -83 -32 -84 -33 -46 -80 11 -15 21 -13 101 27 77 37 306 118 401 141 25 6 17 8 -45 15 -157 18 -290 66 -377 138 -43 35 -50 46 -43 61 14 24 118 79 137 72 11 -4 14 -3 9 6 -10 15 28 46 116 93 68 37 69 38 43 50 -23 10 -33 6 -108 -45 -77 -53 -169 -120 -229 -168 l-27 -22 -60 36 c-33 20 -82 45 -107 57 -26 11 -45 23 -41 26 3 3 19 -2 35 -10 l30 -16 56 61 c55 59 56 60 91 50 27 -7 37 -7 40 2 4 15 14 97 11 97 -1 0 -41 -23 -89 -52z"
       id="path202"
       style="fill:#330099" />
    <path
       d="M5345 4950 c-3 -5 -1 -10 4 -10 6 0 11 5 11 10 0 6 -2 10 -4 10 -3 0 -8 -4 -11 -10z"
       id="path204"
       style="fill:none" />
    <path
       d="M5240 4902 c-31 -15 -69 -32 -85 -39 l-30 -12 30 5 c52 9 112 34 130 54 22 24 23 25 -45 -8z"
       id="path206"
       style="fill:#cc3333" />
    <path
       d="M4025 4838 l-7 -87 -71 -21 c-40 -11 -108 -37 -152 -56 -44 -20 -149 -65 -232 -99 -163 -68 -363 -170 -363 -186 0 -18 76 -184 124 -271 89 -162 64 -85 -36 111 -38 74 -65 138 -61 141 23 19 271 127 517 225 259 104 282 111 293 95 7 -9 25 -23 41 -29 27 -11 34 -9 107 44 43 31 85 60 94 65 9 5 14 10 11 12 -47 38 -230 140 -230 128 0 -5 5 -21 12 -35 11 -24 21 -30 42 -26 29 6 59 -13 71 -44 9 -21 23 -35 37 -38 20 -4 19 -4 -4 -6 -23 -1 -30 5 -42 34 -13 30 -20 35 -49 35 -32 0 -67 24 -67 46 0 6 -6 19 -14 29 -12 16 -14 9 -21 -67z"
       id="path208"
       style="fill:#9966ff" />
    <path
       d="M4593 4885 c0 -22 2 -30 4 -17 2 12 2 30 0 40 -3 9 -5 -1 -4 -23z"
       id="path210"
       style="fill:none" />
    <path
       d="M1560 4796 c-154 -121 -255 -215 -334 -309 l-49 -57 26 -24 c15 -14 29 -21 32 -16 29 46 384 327 512 405 5 3 -30 115 -36 115 -3 0 -71 -51 -151 -114z"
       id="path212"
       style="fill:#660033" />
    <path
       d="M5245 4866 c-48 -25 -182 -29 -258 -7 -45 13 -50 13 -68 -6 -20 -20 -20 -20 88 -52 59 -17 143 -35 185 -41 132 -16 502 -117 679 -185 52 -20 146 -53 209 -74 226 -76 606 -243 702 -309 44 -30 98 -43 98 -23 0 5 -9 7 -19 4 -24 -6 -108 55 -171 123 -49 53 -138 124 -155 124 -7 0 -22 11 -34 24 -13 13 -35 27 -49 31 -14 3 -38 15 -53 26 -15 10 -40 19 -56 19 -15 0 -45 9 -66 20 -22 12 -56 20 -86 20 -27 0 -65 7 -84 15 -20 8 -53 15 -72 15 -20 0 -69 11 -108 24 -40 13 -90 24 -112 24 -22 0 -60 10 -85 21 -25 11 -56 21 -70 21 -14 0 -45 9 -69 20 -24 11 -53 20 -66 20 -43 0 -150 39 -184 68 -27 22 -35 36 -35 65 -1 42 -5 43 -61 13z"
       id="path214"
       style="fill:#660000" />
    <path
       d="M3101 4820 c-30 -17 -56 -32 -58 -34 -2 -2 34 -100 42 -114 1 -1 29 10 63 25 l60 28 -19 24 c-10 13 -19 33 -20 45 -1 54 -10 57 -68 26z"
       id="path216"
       style="fill:#6699ff" />
    <path
       d="M3184 4811 c2 -24 10 -49 16 -55 10 -8 11 -2 5 29 -10 60 -27 80 -21 26z"
       id="path218"
       style="fill:none" />
    <path
       d="M4448 4796 l-47 -53 32 -16 c18 -9 47 -26 65 -37 l32 -22 14 33 c8 19 17 57 21 85 6 48 5 52 -17 58 -42 11 -52 6 -100 -48z"
       id="path220"
       style="fill:#cc33ff" />
    <path
       d="M4812 4808 c-39 -25 -61 -46 -58 -54 6 -16 -39 -51 -104 -84 l-44 -23 39 -33 c56 -48 76 -51 138 -21 l52 26 1 63 c1 38 8 77 18 96 9 18 14 32 11 32 -4 0 -27 -14 -51 -31 -25 -17 -48 -29 -51 -26 -2 3 26 26 64 51 37 25 63 46 58 46 -6 0 -38 -19 -73 -42z"
       id="path222"
       style="fill:#3333ff" />
    <path
       d="M4587 4833 c-4 -3 -7 -16 -6 -27 0 -19 1 -19 10 3 10 24 8 36 -4 24z"
       id="path224"
       style="fill:none" />
    <path
       d="M2793 4715 c-24 -41 -43 -80 -43 -87 0 -7 18 -33 39 -57 l38 -44 66 27 65 28 -43 54 c-39 47 -65 104 -65 142 0 26 -17 8 -57 -63z"
       id="path226"
       style="fill:#660033" />
    <path
       d="M5450 4780 c-12 -7 -11 -10 5 -16 11 -4 23 -9 26 -10 4 -2 9 5 12 16 6 22 -16 27 -43 10z"
       id="path228"
       style="fill:#0033ff" />
    <path
       d="M1725 4766 c-18 -13 -19 -17 -5 -53 7 -21 19 -63 24 -94 l11 -55 63 18 63 19 -35 39 c-19 22 -47 62 -61 90 -28 54 -32 57 -60 36z"
       id="path230"
       style="fill:#0066ff" />
    <path
       d="M2987 4759 c-49 -26 -53 -38 -27 -88 23 -46 26 -47 75 -24 38 18 39 23 6 95 l-16 37 -38 -20z"
       id="path232"
       style="fill:#6699ff" />
    <path
       d="M4896 4758 c-3 -13 -6 -36 -6 -51 l0 -28 45 38 c45 37 45 37 23 50 -34 19 -55 16 -62 -9z"
       id="path234"
       style="fill:#0066ff" />
    <path
       d="M5592 4742 c-20 -6 -17 -9 23 -24 40 -14 46 -14 41 -1 -3 8 -6 19 -6 24 0 10 -23 10 -58 1z"
       id="path236"
       style="fill:#0033ff" />
    <path
       d="M2870 4735 c0 -13 32 -66 36 -62 6 6 -23 67 -31 67 -3 0 -5 -2 -5 -5z"
       id="path238"
       style="fill:none" />
    <path
       d="M4992 4720 c-14 -24 -137 -106 -209 -141 l-47 -23 29 -12 c67 -29 89 -27 166 11 87 44 239 141 239 153 0 7 -119 32 -153 32 -7 0 -18 -9 -25 -20z"
       id="path240"
       style="fill:#660033" />
    <path
       d="M4657 4706 c-21 -13 -43 -28 -49 -34 -18 -18 63 16 92 38 35 27 5 24 -43 -4z"
       id="path242"
       style="fill:#cc0033" />
    <path
       d="M5785 4701 l-40 -18 30 -7 c59 -14 65 -14 64 -3 0 7 -3 20 -7 29 -7 16 -10 16 -47 -1z"
       id="path244"
       style="fill:#0033ff" />
    <path
       d="M5120 4654 c-36 -24 -100 -62 -142 -85 -43 -22 -78 -42 -78 -45 0 -17 196 93 260 146 50 42 35 36 -40 -16z"
       id="path246"
       style="fill:#cc99ff" />
    <path
       d="M3885 4633 c-71 -30 -186 -76 -255 -102 -69 -27 -146 -58 -172 -69 l-47 -21 20 -37 c10 -21 19 -45 19 -53 0 -25 272 -441 288 -441 4 0 30 23 57 51 28 28 90 80 138 117 83 63 87 68 81 97 -19 92 -66 133 -164 142 -57 6 -151 -17 -150 -35 1 -4 50 -50 109 -102 101 -88 135 -125 80 -86 -48 33 -319 298 -319 311 0 24 339 203 359 190 10 -6 51 -78 51 -89 0 -2 -24 -13 -52 -24 -86 -33 -265 -119 -273 -132 -4 -6 2 -22 14 -34 22 -23 22 -23 59 -5 41 22 125 25 186 8 51 -14 93 -60 107 -115 6 -24 13 -44 16 -44 10 0 93 64 93 71 0 4 -38 40 -85 79 -47 39 -85 75 -85 80 0 6 22 40 49 76 l48 66 -13 46 c-8 25 -14 58 -14 73 0 15 -3 30 -7 32 -5 2 -66 -21 -138 -50z"
       id="path248"
       style="fill:#330099" />
    <path
       d="M5958 4671 c-27 -9 -48 -19 -48 -23 0 -6 121 -38 127 -34 5 4 -21 76 -26 75 -3 -1 -27 -9 -53 -18z"
       id="path250"
       style="fill:#0033ff" />
    <path
       d="M4046 4624 c4 -22 17 -62 29 -89 48 -110 77 -216 72 -261 -2 -24 0 -47 5 -50 5 -3 -28 -31 -74 -62 -115 -79 -371 -335 -437 -438 -28 -43 -51 -85 -51 -93 0 -7 12 -35 27 -62 25 -47 43 -62 43 -36 0 24 80 168 134 239 81 109 298 314 476 450 41 31 120 81 175 110 73 39 99 58 97 71 -2 10 10 25 30 37 l32 19 -54 24 c-30 13 -102 36 -160 52 -84 21 -220 71 -338 122 -11 4 -12 -3 -6 -33z m333 -175 c50 -13 91 -26 91 -29 0 -4 -29 -19 -65 -35 -36 -15 -90 -42 -121 -61 -31 -19 -58 -34 -60 -34 -2 0 -11 26 -20 58 -9 31 -25 75 -36 96 l-20 39 70 -6 c38 -3 110 -16 161 -28z"
       id="path252"
       style="fill:#660000" />
    <path
       d="M4195 4414 c14 -33 25 -67 25 -76 0 -10 3 -18 7 -18 11 0 193 95 193 101 0 8 -134 40 -197 46 l-52 6 24 -59z"
       id="path254"
       style="fill:#ff3366" />
    <path
       d="M4291 4626 l-63 -32 108 -32 c60 -17 110 -29 112 -28 6 7 -71 126 -82 126 -6 -1 -40 -16 -75 -34z"
       id="path256"
       style="fill:#cc0033" />
    <path
       d="M3101 4623 c0 -5 8 -25 17 -45 l17 -38 44 27 44 26 -22 19 c-23 18 -102 26 -100 11z"
       id="path258"
       style="fill:#ff3366" />
    <path
       d="M6158 4617 c-34 -13 -36 -27 -5 -27 12 0 32 -3 45 -6 21 -6 22 -5 11 20 -13 29 -12 28 -51 13z"
       id="path260"
       style="fill:#0033ff" />
    <path
       d="M3264 4598 c-19 -9 -20 -14 -11 -43 7 -23 7 -46 -1 -75 -5 -22 -7 -39 -4 -38 4 2 33 16 65 32 31 15 57 31 57 35 0 4 -7 28 -16 54 -14 41 -20 47 -42 46 -15 0 -37 -5 -48 -11z"
       id="path262"
       style="fill:#ff3366" />
    <path
       d="M6321 4579 c-28 -11 -26 -14 12 -23 23 -5 27 -3 27 14 0 22 -4 23 -39 9z"
       id="path264"
       style="fill:#0033ff" />
    <path
       d="M3187 4556 c-20 -13 -39 -25 -42 -28 -3 -3 7 -31 21 -63 l27 -58 24 27 c22 26 29 54 24 106 -4 38 -13 41 -54 16z"
       id="path266"
       style="fill:#ff3366" />
    <path
       d="M3853 4561 c-38 -18 -262 -139 -272 -148 -3 -2 7 -16 22 -30 l26 -27 138 67 c76 36 150 69 166 73 31 7 33 14 12 54 -18 35 -34 37 -92 11z"
       id="path268"
       style="fill:#cc0033" />
    <path
       d="M2952 4529 l-32 -21 22 -41 c26 -46 87 -87 131 -87 l27 0 -26 53 c-28 55 -72 117 -83 117 -3 0 -21 -10 -39 -21z"
       id="path270"
       style="fill:#6699cc" />
    <path
       d="M6438 4542 c-25 -5 -22 -17 7 -30 19 -9 25 -9 25 1 0 21 -14 33 -32 29z"
       id="path272"
       style="fill:none" />
    <path
       d="M2594 4482 c-33 -31 -89 -83 -125 -114 l-64 -58 71 34 c40 18 108 54 152 80 l81 47 -21 35 c-11 19 -23 34 -26 34 -4 0 -34 -26 -68 -58z"
       id="path274"
       style="fill:#9966ff" />
    <path
       d="M4015 4455 c-48 -67 -48 -68 -27 -84 11 -9 48 -38 82 -65 l61 -48 -3 53 c-2 45 -6 54 -23 57 -36 6 -47 31 -28 63 15 26 15 31 2 60 l-15 32 -49 -68z"
       id="path276"
       style="fill:#ff3366" />
    <path
       d="M4905 4500 c27 -12 35 -12 35 0 0 6 -12 10 -27 9 -25 0 -26 -1 -8 -9z"
       id="path278"
       style="fill:none" />
    <path
       d="M6633 4503 c-69 -4 -73 -5 -73 -27 0 -27 46 -52 79 -41 16 5 20 1 23 -22 2 -22 8 -28 28 -28 17 0 26 -6 28 -20 6 -28 21 -35 62 -29 34 6 36 4 35 -23 0 -24 3 -28 23 -25 20 3 23 0 17 -17 -3 -12 -4 -21 -1 -21 15 0 117 43 122 52 9 14 -56 78 -81 78 -11 0 -45 -6 -75 -14 -30 -8 -57 -13 -59 -11 -2 2 26 18 62 35 69 32 93 53 82 70 -22 36 -122 52 -272 43z m214 -50 c2 -6 -5 -14 -16 -18 -12 -3 -21 -13 -21 -21 0 -12 -8 -13 -37 -8 -67 12 -106 38 -86 58 12 12 156 2 160 -11z"
       id="path280"
       style="fill:#cc33ff" />
    <path
       d="M6714 4441 c10 -15 55 -19 67 -5 9 11 4 14 -30 14 -23 0 -40 -4 -37 -9z"
       id="path282"
       style="fill:none" />
    <path
       d="M2875 4486 c-23 -16 -32 -2 96 -146 89 -100 171 -203 311 -393 55 -76 105 -140 110 -143 4 -3 -25 57 -64 133 -223 423 -223 423 -243 423 -55 1 -146 65 -166 118 -10 26 -18 27 -44 8z"
       id="path284"
       style="fill:#0066ff" />
    <path
       d="M2164 4480 c-33 -13 -184 -193 -172 -205 2 -2 20 1 39 6 30 10 37 18 47 55 14 53 64 111 104 122 24 6 28 10 17 19 -9 6 -22 7 -35 3z"
       id="path286"
       style="fill:#ff3366" />
    <path
       d="M2723 4411 c-124 -65 -338 -185 -367 -206 -17 -13 -17 -18 15 -119 40 -125 12 -107 304 -191 187 -53 220 -69 213 -104 -2 -8 -39 -25 -88 -41 -118 -37 -281 -120 -276 -140 3 -8 10 -34 16 -57 8 -32 15 -41 29 -38 24 4 193 96 188 102 -10 9 -121 -41 -153 -69 -37 -33 -48 -24 -11 10 28 26 99 57 180 78 34 8 105 36 157 61 104 50 247 106 297 117 32 7 92 71 79 84 -6 5 -91 -35 -183 -86 -20 -12 -39 -10 -130 9 -87 18 -131 35 -241 91 -74 38 -149 78 -166 90 -76 53 -166 130 -160 139 9 16 171 121 304 198 69 40 129 76 133 81 8 7 -12 50 -23 50 -3 0 -55 -27 -117 -59z"
       id="path288"
       style="fill:#660000" />
    <path
       d="M5050 4444 c-146 -39 -264 -81 -383 -137 -59 -27 -109 -48 -110 -46 -2 2 -14 19 -26 37 -12 17 -27 32 -32 32 -6 0 3 -17 20 -37 27 -33 29 -40 16 -49 -8 -6 -15 -15 -16 -20 0 -5 -40 -28 -89 -52 -69 -33 -109 -61 -175 -124 l-85 -81 -60 17 c-34 10 -66 14 -74 9 -42 -23 -187 -167 -238 -236 -52 -71 -128 -205 -128 -226 0 -5 17 -3 38 5 20 7 53 13 73 14 28 0 49 10 85 40 98 80 229 170 244 168 8 -2 20 -19 27 -39 6 -20 19 -54 28 -75 l17 -39 34 39 c39 45 94 149 94 178 0 18 -5 19 -57 13 -184 -20 -337 -52 -405 -85 -23 -11 -42 -19 -43 -17 -1 1 42 44 96 95 l98 92 163 0 c90 0 169 -4 176 -9 8 -5 11 -17 7 -33 -6 -24 -4 -25 77 -37 46 -7 99 -18 118 -25 29 -9 42 -9 72 4 21 8 38 18 38 21 0 3 -34 38 -75 79 -42 40 -74 74 -72 77 2 2 45 -35 95 -82 49 -47 97 -85 104 -85 22 0 48 -33 48 -62 0 -23 36 -68 54 -68 5 0 36 26 70 58 34 32 95 79 135 105 69 46 72 49 58 70 -7 12 -42 69 -76 127 -94 158 -74 147 -174 99 -48 -23 -142 -61 -209 -84 -102 -36 -122 -46 -120 -62 2 -11 -17 3 -48 36 -40 44 -48 57 -38 67 16 16 250 114 343 144 39 12 74 26 78 30 11 10 -3 40 -18 40 -8 0 -71 -25 -141 -55 -141 -61 -180 -69 -55 -12 164 75 363 147 476 172 88 19 127 35 85 34 -14 0 -68 -11 -120 -25z m-150 -387 c43 -21 120 -107 120 -134 0 -7 -19 -25 -42 -42 -24 -16 -65 -50 -92 -75 l-49 -46 -106 109 c-58 60 -115 114 -126 120 -29 14 -11 37 55 73 51 27 60 29 125 23 39 -4 90 -16 115 -28z"
       id="path290"
       style="fill:#660033" />
    <path
       d="M4668 4054 c-16 -8 -28 -17 -28 -19 0 -4 72 24 79 31 11 10 -27 2 -51 -12z"
       id="path292"
       style="fill:none" />
    <path
       d="M4685 4040 c-69 -34 -69 -34 -59 -18 4 7 3 8 -4 4 -7 -4 -12 -9 -12 -11 0 -3 51 -57 114 -121 l115 -116 45 42 c24 23 63 55 85 72 l41 30 -17 29 c-68 115 -186 149 -308 89z"
       id="path294"
       style="fill:#0066ff" />
    <path
       d="M4593 4440 c-18 -11 -33 -24 -33 -30 0 -15 9 -12 70 20 51 27 53 29 25 29 -16 1 -45 -8 -62 -19z"
       id="path296"
       style="fill:#cc99ff" />
    <path
       d="M3315 4393 c-38 -19 -71 -37 -73 -38 -6 -5 28 -65 36 -65 4 0 41 13 82 29 59 24 74 34 72 48 -4 23 -30 63 -40 63 -4 -1 -38 -17 -77 -37z"
       id="path298"
       style="fill:#ff3366" />
    <path
       d="M4080 4411 c0 -11 5 -23 10 -26 6 -4 10 5 10 19 0 14 -4 26 -10 26 -5 0 -10 -9 -10 -19z"
       id="path300"
       style="fill:none" />
    <path
       d="M5085 4424 c-117 -31 -158 -47 -143 -55 9 -5 72 -16 140 -24 78 -9 144 -23 181 -39 45 -18 67 -22 93 -16 20 5 51 4 72 -2 70 -19 279 -107 317 -133 54 -36 79 -40 122 -20 33 16 38 16 70 1 21 -10 39 -28 46 -45 l11 -29 100 1 c154 2 300 -49 395 -138 l46 -44 63 6 c76 7 136 -13 179 -60 28 -31 36 -34 139 -46 60 -7 111 -14 113 -17 11 -11 -12 -10 -116 5 -102 15 -115 19 -145 48 -58 57 -129 75 -196 52 -30 -10 -34 -8 -81 38 -93 92 -239 143 -408 143 -97 0 -102 1 -109 23 -3 12 -13 30 -22 40 -16 18 -71 23 -88 8 -5 -5 -17 -11 -28 -13 -14 -2 -9 -10 26 -35 179 -128 290 -296 287 -432 l-1 -46 -9 55 c-13 91 -33 135 -58 133 -35 -4 -151 -57 -148 -67 2 -6 42 -45 90 -89 l86 -79 85 67 c48 37 86 69 86 72 0 8 -219 288 -245 313 -30 28 -32 40 -7 40 33 0 319 -98 408 -140 l89 -41 -33 -27 -33 -27 108 -44 c59 -24 141 -61 181 -82 41 -21 78 -39 82 -39 12 0 80 60 80 70 0 5 -12 13 -27 18 l-28 10 27 7 c36 9 63 3 63 -15 1 -25 -170 -160 -277 -219 l-57 -32 -68 63 c-37 35 -81 73 -97 84 l-29 21 44 30 c46 32 85 70 78 77 -2 2 -23 13 -45 24 l-42 21 -71 -56 c-39 -31 -71 -60 -71 -64 0 -6 57 -77 239 -296 l19 -22 81 29 c45 17 104 41 130 55 64 32 204 138 225 170 9 14 22 25 28 25 20 0 -83 -98 -157 -149 -83 -57 -150 -92 -225 -116 -30 -10 -59 -21 -63 -25 -10 -9 43 -77 176 -228 125 -142 153 -139 44 4 -103 138 -132 183 -121 193 5 5 34 16 64 26 94 30 211 95 265 146 47 45 82 67 57 37 -7 -9 -3 -34 14 -86 14 -40 31 -118 40 -175 21 -143 37 -194 109 -342 60 -124 100 -185 250 -375 66 -83 116 -174 114 -208 0 -9 -6 -1 -14 19 -24 67 -48 104 -145 229 -133 171 -161 214 -219 333 -65 134 -87 201 -106 331 -9 58 -24 132 -33 164 -16 51 -21 57 -43 54 -13 -2 -35 -12 -49 -23 -14 -11 -56 -35 -95 -54 -62 -31 -165 -117 -165 -137 0 -5 38 -60 85 -124 l85 -115 -51 -24 c-86 -39 -175 -60 -202 -46 -22 11 -21 11 4 6 31 -5 181 36 186 51 2 7 -18 4 -49 -7 -78 -27 -108 -24 -169 17 -79 53 -179 136 -237 198 -71 75 -93 77 -264 32 -145 -38 -329 -105 -331 -121 -1 -5 19 -21 43 -34 25 -13 110 -63 190 -110 79 -46 151 -85 160 -85 8 0 55 1 105 2 l90 2 -128 121 c-70 66 -127 126 -127 133 0 15 42 36 70 36 10 0 39 9 65 20 26 11 48 20 50 20 2 0 32 -30 66 -66 71 -73 178 -163 224 -187 17 -9 26 -16 22 -17 -33 -1 -220 149 -277 223 -12 15 -28 27 -37 27 -30 0 -113 -35 -113 -48 0 -67 205 -262 276 -262 24 0 35 -7 103 -66 20 -17 58 -47 84 -68 27 -20 44 -36 38 -36 -6 0 4 -20 22 -44 17 -24 39 -57 48 -73 23 -43 60 -47 122 -15 65 34 168 42 216 18 40 -21 71 -71 71 -113 0 -37 6 -41 112 -79 100 -36 191 -83 263 -136 125 -92 129 -94 116 -70 -13 24 -189 204 -309 316 -46 43 -81 80 -79 83 3 3 18 -9 34 -25 15 -17 71 -70 123 -117 108 -98 250 -253 250 -271 0 -13 71 -76 78 -70 2 2 -6 35 -17 73 -22 72 -75 170 -135 249 -20 26 -71 115 -113 198 -42 83 -87 169 -101 191 -58 91 -162 319 -205 450 -54 166 -61 191 -87 317 -11 53 -23 104 -26 112 -10 26 11 18 26 -9 l13 -24 32 28 c38 33 181 122 280 175 99 52 158 98 184 142 22 37 22 38 2 20 -11 -10 -27 -16 -35 -13 -8 3 -26 -10 -45 -34 -21 -25 -40 -39 -55 -39 -61 0 -90 -15 -155 -79 -65 -64 -183 -161 -197 -161 -4 0 56 63 133 140 137 137 189 208 207 282 l6 28 -36 -25 c-20 -14 -40 -25 -45 -25 -9 0 -109 -174 -109 -189 0 -5 -15 -20 -32 -32 -18 -12 -56 -47 -85 -78 -66 -71 -69 -55 -5 24 27 33 60 85 75 115 15 30 42 77 62 104 29 39 35 57 34 95 0 48 -17 107 -18 67 -1 -11 -18 -42 -39 -70 -51 -68 -72 -109 -72 -144 0 -28 -43 -107 -82 -148 -11 -12 -27 -37 -36 -55 -14 -28 -22 -33 -46 -31 -37 4 -153 45 -343 120 -210 83 -685 235 -1013 323 -264 72 -374 106 -465 146 -104 45 -118 51 -130 47z m1684 -654 c45 -12 80 -24 77 -27 -5 -6 -156 36 -176 49 -13 8 -13 9 1 5 9 -3 53 -15 98 -27z m29 -890 c28 -9 -9 -7 -193 10 -79 7 -74 8 38 3 71 -3 140 -9 155 -13z m72 -20 c18 -12 2 -12 -25 0 -13 6 -15 9 -5 9 8 0 22 -4 30 -9z m238 -127 c72 -47 132 -87 132 -90 0 -3 -10 1 -22 9 -13 8 -81 50 -153 93 -71 43 -137 85 -145 93 -28 26 50 -17 188 -105z m-345 -10 c-7 -2 -21 -2 -30 0 -10 3 -4 5 12 5 17 0 24 -2 18 -5z m92 -13 c27 -7 27 -8 5 -8 -14 0 -38 4 -55 8 -27 7 -27 8 -5 8 14 0 39 -4 55 -8z m130 -24 c33 -8 51 -14 40 -15 -11 0 -47 6 -80 13 -33 8 -51 14 -40 15 11 0 47 -6 80 -13z m187 -47 c44 -12 77 -23 75 -26 -4 -4 -158 36 -166 43 -9 8 14 4 91 -17z"
       id="path302"
       style="fill:#660000" />
    <path
       d="M1261 4396 c-21 -22 -22 -29 -12 -57 6 -18 11 -43 11 -56 0 -20 4 -24 23 -21 20 3 22 8 21 63 0 34 -5 69 -10 78 -9 16 -12 15 -33 -7z"
       id="path304"
       style="fill:#336699" />
    <path
       d="M2865 4411 c-5 -5 -73 -48 -150 -93 -117 -70 -255 -158 -275 -175 -3 -3 13 -20 35 -39 107 -93 243 -166 371 -200 101 -26 251 -25 329 3 98 35 102 36 85 24 -8 -6 -50 -22 -93 -36 -94 -30 -208 -33 -309 -6 -37 9 -65 14 -62 9 9 -14 198 -69 259 -75 59 -5 65 -4 130 36 38 22 74 41 81 41 28 0 22 20 -24 82 -198 264 -359 448 -377 429z m78 -159 c26 -37 85 -107 132 -157 93 -99 93 -98 20 -141 -87 -50 -222 -51 -298 0 -41 27 -77 98 -77 152 0 68 108 215 158 214 9 -1 38 -31 65 -68z"
       id="path306"
       style="fill:#660033" />
    <path
       d="M2838 4285 c-31 -21 -41 -37 -58 -94 -11 -37 -20 -92 -20 -120 0 -44 4 -57 28 -81 68 -68 229 -70 330 -4 23 15 22 15 -69 117 -50 56 -107 126 -127 154 -21 29 -39 53 -42 53 -3 0 -22 -11 -42 -25z m137 -125 c33 -33 38 -44 28 -58 -7 -12 -23 -17 -53 -16 -44 1 -60 14 -60 49 0 22 26 65 39 65 4 0 25 -18 46 -40z"
       id="path308"
       style="fill:#3333ff" />
    <path
       d="M2917 4159 c-8 -30 2 -48 30 -55 42 -11 51 12 18 46 -34 36 -41 37 -48 9z"
       id="path310"
       style="fill:#6699cc" />
    <path
       d="M6615 4410 c3 -5 11 -10 16 -10 6 0 7 5 4 10 -3 6 -11 10 -16 10 -6 0 -7 -4 -4 -10z"
       id="path312"
       style="fill:none" />
    <path
       d="M3153 4368 c-13 -6 -23 -15 -23 -20 0 -9 30 -68 187 -363 44 -83 92 -176 107 -207 24 -52 190 -247 172 -203 -5 11 -12 32 -16 46 -4 14 -19 44 -33 65 -14 22 -43 76 -65 120 -22 43 -81 151 -131 238 -50 88 -107 199 -127 248 -20 48 -40 88 -43 87 -3 0 -16 -5 -28 -11z"
       id="path314"
       style="fill:#9966ff" />
    <path
       d="M4881 4361 c-11 -7 -10 -14 8 -40 12 -17 18 -31 12 -31 -6 0 -17 14 -26 30 -9 17 -20 30 -25 30 -17 0 -19 -17 -5 -36 21 -27 19 -32 -17 -39 -50 -11 -252 -87 -346 -130 l-83 -38 27 -29 c15 -15 36 -28 46 -28 27 0 263 87 340 126 37 19 73 34 80 34 6 0 26 -16 44 -35 25 -28 39 -35 68 -35 22 0 35 -4 31 -10 -4 -7 113 -70 131 -70 2 0 -1 11 -8 24 -8 19 -23 27 -62 35 -50 10 -50 10 -8 8 23 -2 42 0 42 3 0 3 -14 22 -31 43 -17 21 -29 41 -25 44 3 3 43 1 88 -5 l83 -10 -77 5 c-43 2 -78 1 -78 -4 1 -4 15 -24 33 -45 26 -29 42 -37 82 -43 126 -17 139 -27 115 -91 -7 -19 -8 -43 -1 -73 5 -25 13 -87 16 -138 l7 -92 -51 -31 c-44 -27 -51 -36 -51 -63 0 -18 -4 -47 -9 -64 -9 -32 -8 -34 57 -82 110 -82 100 -82 176 -17 36 31 75 62 86 68 11 7 20 16 20 19 0 13 -119 79 -165 91 -56 15 -62 25 -40 67 9 17 18 60 20 94 2 34 12 77 21 95 13 27 15 48 10 103 -6 55 -4 69 6 69 8 0 54 -23 103 -51 76 -44 91 -49 112 -40 13 6 29 11 36 10 7 0 -1 -6 -17 -13 l-28 -13 37 -22 c20 -12 60 -40 89 -63 163 -133 143 -122 188 -109 22 7 42 11 44 8 2 -2 -15 -10 -38 -17 -52 -15 -194 -85 -203 -100 -8 -13 15 -4 140 55 55 25 107 52 115 60 8 7 32 15 53 19 20 4 37 9 37 12 0 11 -35 71 -59 102 -25 32 -192 173 -241 204 -16 11 -72 20 -160 28 -74 6 -191 22 -260 35 -76 15 -101 23 -65 19 33 -3 76 -9 95 -14 19 -5 80 -14 135 -20 55 -5 117 -12 138 -15 45 -6 52 15 10 34 -114 52 -260 102 -292 99 -32 -3 -27 -5 39 -22 77 -20 275 -95 252 -96 -7 0 -46 13 -85 30 -40 16 -134 45 -209 65 -128 33 -147 35 -305 36 l-168 2 120 8 c66 5 138 6 160 3 33 -4 37 -3 21 7 -10 6 -74 18 -141 25 -67 7 -134 18 -149 24 -32 12 -28 12 -45 1z m967 -374 l-1 -42 -4 38 c-5 43 -13 45 -92 21 -29 -8 -55 -13 -58 -10 -8 8 137 46 150 39 4 -2 6 -23 5 -46z m-73 -38 c24 -17 48 -28 54 -25 6 4 11 0 11 -8 0 -9 -3 -16 -6 -16 -9 0 -114 70 -114 76 0 9 14 3 55 -27z"
       id="path316"
       style="fill:#330099" />
    <path
       d="M6680 4361 c0 -5 5 -13 10 -16 6 -3 10 -2 10 4 0 5 -4 13 -10 16 -5 3 -10 2 -10 -4z"
       id="path318"
       style="fill:none" />
    <path
       d="M1011 4312 c-24 -34 -26 -49 -8 -55 7 -2 17 12 24 37 15 51 11 55 -16 18z"
       id="path320"
       style="fill:none" />
    <path
       d="M3360 4308 c-30 -11 -59 -24 -64 -29 -6 -5 6 -41 28 -88 20 -43 50 -114 65 -158 29 -81 171 -355 187 -360 5 -2 22 23 39 54 16 32 49 83 72 113 27 36 37 57 30 61 -7 3 -57 11 -111 18 -108 13 -126 21 -126 57 0 17 -12 31 -40 49 -51 32 -55 43 -35 91 33 79 55 175 44 195 -12 23 -20 23 -89 -3z"
       id="path322"
       style="fill:#3333ff" />
    <path
       d="M4422 4293 l-44 -26 35 -34 34 -35 42 26 c22 15 41 30 41 34 0 9 -53 62 -61 62 -2 -1 -23 -13 -47 -27z"
       id="path324"
       style="fill:#cc33ff" />
    <path
       d="M6762 4273 c24 -25 59 -53 79 -63 32 -17 39 -17 55 -5 17 13 15 14 -24 15 -36 0 -44 4 -52 25 -5 14 -14 25 -20 25 -5 0 -10 11 -10 25 0 22 -4 24 -35 23 l-36 -1 43 -44z"
       id="path326"
       style="fill:#9966ff" />
    <path
       d="M3470 4257 c0 -9 -4 -25 -10 -35 -14 -24 -41 -101 -47 -135 -4 -20 0 -32 13 -42 42 -32 47 -21 42 81 -3 52 -2 92 3 87 4 -4 9 -51 11 -103 l3 -95 85 -36 c47 -20 87 -35 89 -33 2 1 -6 16 -17 32 -36 49 -119 197 -125 223 -4 13 -16 35 -27 49 -16 20 -20 22 -20 7z"
       id="path328"
       style="fill:#cc0033" />
    <path
       d="M4322 4229 c-23 -17 -42 -34 -42 -38 0 -4 11 -18 25 -31 25 -23 25 -23 65 -5 61 27 64 37 27 73 l-33 32 -42 -31z"
       id="path330"
       style="fill:#cc33ff" />
    <path
       d="M4205 4134 c-72 -56 -138 -114 -133 -119 2 -2 23 -10 47 -19 l44 -15 78 72 c44 40 79 74 78 77 0 3 -13 15 -28 27 l-28 22 -58 -45z"
       id="path332"
       style="fill:#cc33ff" />
    <path
       d="M2260 4076 c-41 -34 -86 -68 -100 -77 l-25 -17 43 -11 c24 -7 50 -15 58 -18 11 -4 14 6 14 51 0 31 2 56 4 56 3 0 31 -16 63 -35 32 -19 61 -35 65 -35 6 0 -37 140 -44 145 -2 1 -37 -26 -78 -59z"
       id="path334"
       style="fill:#9966ff" />
    <path
       d="M4974 4115 c3 -10 31 -57 61 -106 30 -49 55 -93 55 -98 0 -5 -37 -34 -82 -64 -46 -31 -106 -79 -135 -109 l-52 -53 55 -65 c30 -36 74 -95 97 -132 40 -63 44 -67 80 -68 82 0 157 -59 157 -124 0 -29 -33 -111 -49 -120 -6 -4 -11 -15 -11 -24 0 -18 -24 -36 -105 -81 -28 -15 -49 -33 -47 -41 2 -7 13 -54 26 -103 l22 -89 13 43 c7 24 30 82 52 128 21 46 39 92 39 102 0 11 4 19 9 19 4 0 28 30 51 67 24 36 72 97 108 135 36 38 63 70 61 71 -2 2 -42 30 -88 63 l-83 59 6 57 c3 32 3 58 0 58 -3 0 -23 -10 -44 -22 -29 -17 -40 -30 -41 -48 -1 -34 -32 -122 -43 -123 -5 -1 -27 27 -49 63 -22 36 -60 91 -84 124 -25 32 -41 62 -36 65 56 48 187 143 208 151 14 5 42 10 61 10 29 0 34 3 31 18 -3 9 -13 49 -22 89 l-17 71 -83 40 c-111 54 -130 59 -121 37z"
       id="path336"
       style="fill:#660033" />
    <path
       d="M5164 4097 c3 -7 9 -20 12 -30 6 -16 91 -67 113 -67 8 0 31 52 31 71 0 10 -56 25 -118 32 -31 4 -41 2 -38 -6z"
       id="path338"
       style="fill:#cc0033" />
    <path
       d="M3601 4063 c30 -50 89 -133 95 -133 7 0 1 10 -58 98 -51 75 -76 99 -37 35z"
       id="path340" />
    <path
       d="M1641 4047 c-7 -9 -33 -26 -57 -38 -25 -12 -44 -22 -42 -24 2 -1 52 3 112 9 78 8 111 15 114 25 4 10 0 12 -14 6 -47 -19 -56 -18 -78 10 -19 24 -23 25 -35 12z"
       id="path342"
       style="fill:#3399cc" />
    <path
       d="M5425 3970 c0 -44 2 -80 5 -80 2 0 39 17 82 37 l78 36 -27 19 c-35 24 -120 68 -130 68 -4 0 -8 -36 -8 -80z"
       id="path344"
       style="fill:#6699ff" />
    <path
       d="M2270 3987 c0 -24 7 -63 15 -88 17 -53 35 -181 35 -254 0 -30 5 -66 10 -81 10 -24 12 -25 28 -11 9 8 41 27 70 42 44 21 53 30 49 46 -3 11 -22 89 -42 173 l-37 154 -59 31 c-33 17 -61 31 -64 31 -3 0 -5 -19 -5 -43z"
       id="path346"
       style="fill:#0066ff" />
    <path
       d="M5214 3949 l19 -80 36 3 c40 3 47 18 37 71 -5 25 -17 38 -56 60 -28 15 -51 27 -53 27 -2 0 6 -36 17 -81z"
       id="path348"
       style="fill:#cc99ff" />
    <path
       d="M6078 3971 l47 -56 157 -53 158 -53 30 23 31 22 -64 32 c-68 35 -216 89 -334 122 l-72 20 47 -57z"
       id="path350"
       style="fill:#3333ff" />
    <path
       d="M1410 3990 c0 -5 16 -10 35 -10 19 0 35 5 35 10 0 6 -16 10 -35 10 -19 0 -35 -4 -35 -10z"
       id="path352"
       style="fill:none" />
    <path
       d="M3490 3980 c0 -10 6 -22 13 -28 14 -12 166 -36 175 -28 3 3 -1 6 -9 6 -8 0 -51 15 -96 34 -73 29 -83 31 -83 16z"
       id="path354"
       style="fill:#cc0033" />
    <path
       d="M1905 3888 c-48 -85 -185 -281 -262 -376 -45 -55 -52 -85 -30 -116 12 -17 17 -14 60 34 63 70 138 184 235 360 102 183 101 180 69 180 -21 0 -33 -13 -72 -82z"
       id="path356"
       style="fill:#0066ff" />
    <path
       d="M2046 3935 c-51 -29 -107 -88 -94 -100 3 -3 59 20 238 97 25 11 25 11 -15 24 -56 18 -63 17 -129 -21z"
       id="path358"
       style="fill:#9966ff" />
    <path
       d="M2420 3953 c0 -4 21 -71 46 -148 26 -77 48 -145 50 -152 2 -8 43 7 116 42 62 29 140 61 173 70 33 10 63 20 68 24 22 21 -32 45 -226 101 -115 33 -213 63 -218 66 -5 3 -9 2 -9 -3z"
       id="path360"
       style="fill:#3333ff" />
    <path
       d="M5503 3911 c-83 -40 -93 -52 -93 -113 0 -34 8 -34 63 -7 54 28 175 69 201 69 12 0 -26 -16 -83 -36 -139 -46 -194 -77 -214 -119 l-16 -33 46 -16 c45 -15 49 -15 120 9 51 18 102 27 162 30 71 3 99 9 141 30 28 14 50 30 48 35 -2 5 -29 29 -62 54 -39 31 -69 46 -90 47 -27 1 -28 2 -8 8 l24 6 -29 21 c-41 30 -89 54 -111 54 -10 0 -54 -18 -99 -39z"
       id="path362"
       style="fill:#0066ff" />
    <path
       d="M2210 3930 c-8 -5 -75 -35 -148 -66 l-132 -57 -41 -76 c-58 -108 -138 -228 -203 -304 -58 -69 -68 -91 -38 -85 9 2 37 32 60 68 97 144 140 199 232 294 52 54 107 104 121 112 l27 13 -2 -42 c-1 -37 -10 -53 -81 -137 -44 -52 -116 -150 -159 -217 -80 -126 -94 -137 -132 -108 -10 8 -22 15 -25 15 -5 0 -150 -188 -189 -246 -8 -12 -40 -58 -71 -101 -79 -111 -102 -158 -94 -196 10 -51 103 -234 138 -275 18 -20 52 -62 76 -92 38 -50 126 -130 143 -130 3 0 13 20 21 45 l16 45 -57 39 c-51 35 -95 76 -145 137 -16 19 -16 25 -3 55 8 19 26 66 42 104 48 123 134 295 237 475 54 96 115 206 133 243 19 37 42 71 50 74 9 3 30 -2 48 -12 74 -42 167 -108 175 -123 6 -12 0 -37 -20 -81 -23 -50 -26 -66 -17 -73 32 -20 46 -8 69 59 25 77 37 69 38 -27 1 -58 9 -76 53 -132 42 -52 55 -115 36 -172 -8 -25 -14 -46 -12 -46 2 0 14 5 27 11 21 9 31 35 71 171 26 88 46 163 44 168 -2 4 -50 40 -108 78 -58 38 -130 91 -161 118 -31 27 -86 74 -122 104 -36 30 -66 60 -66 66 -1 7 37 62 85 123 75 98 87 110 105 101 18 -10 19 -7 19 40 0 51 -9 60 -40 40z m-535 -684 c-17 -7 -49 -40 -73 -74 -23 -34 -48 -64 -54 -68 -13 -8 -8 2 41 71 42 60 69 85 96 84 15 0 13 -3 -10 -13z m42 -77 c-33 -52 -52 -91 -186 -371 -33 -71 -64 -128 -70 -128 -16 0 -31 61 -41 160 l-9 95 45 67 c46 68 98 124 60 64 -10 -16 -34 -49 -52 -73 -30 -39 -34 -52 -34 -105 0 -72 19 -188 30 -188 16 0 40 83 40 143 1 34 8 80 16 102 8 22 20 55 26 74 6 22 38 62 86 109 138 133 144 136 89 51z"
       id="path364"
       style="fill:#660033" />
    <path
       d="M1649 3118 c-51 -72 -88 -142 -115 -222 -29 -87 -28 -139 2 -66 10 25 50 109 89 188 39 78 67 142 63 142 -4 0 -22 -19 -39 -42z"
       id="path366"
       style="fill:#0066ff" />
    <path
       d="M3999 3902 c-9 -4 -42 -36 -75 -71 -32 -35 -50 -59 -39 -53 33 17 254 61 346 68 84 7 99 14 99 47 0 15 -14 17 -157 16 -87 0 -165 -3 -174 -7z"
       id="path368"
       style="fill:#cc33ff" />
    <path
       d="M2271 3871 c-1 -33 20 -154 28 -164 8 -8 -6 113 -19 158 -7 27 -8 28 -9 6z"
       id="path370"
       style="fill:none" />
    <path
       d="M6150 3886 c0 -4 32 -48 72 -99 39 -50 72 -93 73 -94 3 -5 125 98 125 105 0 4 -51 24 -112 44 -147 47 -158 50 -158 44z"
       id="path372"
       style="fill:#cc0033" />
    <path
       d="M3302 3858 c-18 -18 -15 -27 8 -21 11 3 20 12 20 19 0 17 -12 18 -28 2z"
       id="path374"
       style="fill:none" />
    <path
       d="M5251 3851 c-10 -7 -12 -26 -6 -89 l7 -80 34 20 c19 11 37 24 40 29 3 5 2 36 -2 69 -6 56 -8 60 -33 60 -14 0 -32 -4 -40 -9z"
       id="path376"
       style="fill:#ff3366" />
    <path
       d="M5138 3840 c-45 -13 -47 -18 -27 -57 13 -25 19 -58 19 -100 0 -35 2 -63 5 -63 4 0 19 7 35 15 28 15 30 19 30 78 0 82 -10 137 -24 136 -6 0 -23 -4 -38 -9z"
       id="path378"
       style="fill:#cc99ff" />
    <path
       d="M2144 3753 c-37 -49 -72 -94 -77 -101 -15 -19 45 -77 198 -192 103 -77 225 -150 251 -150 2 0 10 15 18 33 l14 32 11 -31 c9 -23 25 -37 59 -52 86 -38 81 -40 147 51 32 45 81 106 109 135 l49 52 -36 0 c-32 0 -39 4 -57 39 -11 22 -24 42 -29 45 -8 5 -198 -96 -267 -141 -24 -16 -24 -16 -39 85 -4 23 -11 42 -16 42 -13 0 -88 -38 -122 -62 -16 -11 -30 -18 -33 -15 -10 9 -43 139 -55 214 -11 70 -27 102 -51 103 -3 0 -37 -39 -74 -87z m594 -269 c33 -23 30 -84 -6 -125 -24 -27 -36 -32 -76 -33 -39 -1 -51 3 -67 23 -22 27 -24 78 -5 103 33 45 113 61 154 32z"
       id="path380"
       style="fill:#330099" />
    <path
       d="M2630 3472 c-44 -21 -58 -58 -39 -98 24 -50 117 -46 144 6 21 41 19 76 -7 94 -29 21 -55 20 -98 -2z"
       id="path382"
       style="fill:#6699ff" />
    <path
       d="M3296 3824 c-22 -8 -47 -21 -57 -30 -17 -15 -209 -87 -216 -80 -2 2 36 18 84 35 108 39 133 50 113 50 -28 1 -215 -76 -213 -88 2 -6 0 -10 -5 -9 -7 1 -8 1 -120 -44 l-72 -30 24 -40 24 -40 98 -4 98 -4 147 61 c112 46 155 69 184 99 26 27 35 42 29 53 -10 17 -72 87 -76 86 -2 0 -21 -7 -42 -15z"
       id="path384"
       style="fill:#330099" />
    <path
       d="M4330 3827 c0 -25 -59 -134 -99 -184 -39 -49 -53 -93 -31 -93 6 0 10 5 10 10 0 6 8 10 17 10 14 0 13 -4 -7 -25 -12 -13 -27 -22 -31 -19 -5 3 -9 0 -9 -5 0 -22 24 -10 59 28 46 49 86 69 155 77 43 5 61 3 82 -10 28 -19 58 -80 50 -101 -4 -11 22 -32 29 -23 1 2 11 23 23 48 20 42 20 48 7 85 -8 22 -14 53 -15 68 0 31 -20 44 -47 28 -17 -10 -17 -10 0 -11 41 0 63 -138 31 -190 -9 -15 -12 -17 -8 -5 14 37 15 129 2 155 -7 13 -28 28 -45 34 -45 12 -100 -10 -190 -78 -70 -52 -103 -67 -45 -19 20 17 23 22 10 23 -9 0 -26 -12 -37 -26 -24 -31 -29 -19 -5 14 8 12 24 22 34 22 33 0 70 22 90 55 11 17 28 39 39 49 18 16 22 16 50 2 18 -10 49 -15 77 -13 l47 2 11 -55 c7 -30 17 -64 23 -75 9 -17 7 -28 -13 -60 -13 -22 -24 -45 -24 -51 0 -6 23 -15 52 -18 60 -8 82 -19 122 -58 15 -16 30 -27 33 -25 2 3 -21 55 -52 117 -30 62 -55 118 -55 125 0 7 9 20 21 31 48 44 63 108 31 137 -23 21 -85 22 -115 3 -19 -12 -31 -12 -92 3 -95 25 -185 33 -185 18z m390 -67 c0 -9 -9 -25 -20 -35 -17 -15 -24 -16 -46 -7 -20 10 -25 18 -22 40 2 21 8 27 27 27 13 0 27 -7 29 -15 4 -13 3 -13 -11 -2 -18 15 -37 8 -37 -12 0 -8 7 -20 16 -27 14 -11 19 -10 35 10 15 19 17 27 7 44 -10 20 -10 21 5 8 10 -7 17 -21 17 -31z"
       id="path386"
       style="fill:#3333ff" />
    <path
       d="M5000 3749 c-36 -28 -65 -54 -65 -57 0 -4 34 -58 75 -120 l75 -112 14 37 c19 50 21 249 3 281 -7 12 -18 22 -25 21 -7 0 -41 -23 -77 -50z"
       id="path388"
       style="fill:#6699ff" />
    <path
       d="M2020 3756 c-92 -68 -214 -218 -271 -333 -25 -50 -29 -65 -20 -82 7 -12 15 -21 20 -21 5 0 51 64 104 143 52 78 122 173 156 210 40 44 61 76 61 92 0 14 -1 25 -2 25 -2 0 -23 -15 -48 -34z"
       id="path390"
       style="fill:#9966ff" />
    <path
       d="M2460 3771 c0 -26 33 -141 40 -141 5 0 -1 33 -12 73 -20 72 -28 91 -28 68z"
       id="path392"
       style="fill:none" />
    <path
       d="M4034 3700 c-38 -28 -69 -56 -69 -62 0 -7 20 -20 45 -30 26 -10 36 -17 25 -17 -12 -1 -38 8 -60 19 l-39 20 -35 -27 c-20 -14 -38 -28 -40 -30 -2 -2 -1 -6 3 -10 8 -9 295 -32 313 -26 8 3 0 37 -25 109 -20 57 -40 104 -43 104 -4 0 -37 -23 -75 -50z m52 -86 c24 -3 44 -10 44 -15 0 -14 -33 -11 -71 7 -56 25 -63 30 -67 44 -3 8 6 5 22 -8 15 -11 47 -24 72 -28z"
       id="path394"
       style="fill:#6699cc" />
    <path
       d="M4396 3723 c-14 -15 -24 -28 -22 -30 2 -2 22 5 46 16 40 18 41 20 22 30 -18 9 -25 7 -46 -16z"
       id="path396"
       style="fill:#990000" />
    <path
       d="M6541 3733 c-5 -10 -29 -33 -54 -52 l-45 -33 36 -31 c21 -17 56 -49 79 -70 l42 -40 65 32 c59 29 116 79 116 102 0 13 -36 34 -128 73 -97 42 -98 42 -111 19z"
       id="path398"
       style="fill:#0066ff" />
    <path
       d="M3375 3682 c-28 -26 -77 -53 -160 -87 -66 -26 -123 -51 -127 -54 -4 -3 59 -8 140 -9 81 -2 175 -5 209 -5 34 -1 65 1 69 5 12 13 -67 188 -85 188 -3 0 -24 -17 -46 -38z"
       id="path400"
       style="fill:#3333ff" />
    <path
       d="M4714 3676 l-31 -42 41 -90 c56 -122 74 -154 89 -154 11 0 144 27 175 36 28 8 -199 295 -231 293 -7 0 -26 -19 -43 -43z"
       id="path402"
       style="fill:#9966ff" />
    <path
       d="M5849 3685 c-25 -13 -74 -33 -109 -45 -59 -20 -132 -71 -303 -212 l-29 -23 54 -38 53 -37 27 33 c16 17 41 56 58 85 17 28 35 52 41 52 6 0 23 -12 38 -28 31 -30 153 -114 194 -133 35 -16 34 -21 -5 -42 -18 -10 -59 -43 -92 -73 -55 -52 -57 -56 -40 -70 22 -17 12 -19 193 47 l143 53 -6 50 c-4 39 -13 57 -43 88 -36 37 -36 38 -18 60 10 13 35 38 54 56 l36 33 -88 84 c-48 47 -93 85 -100 85 -7 -1 -33 -12 -58 -25z m-3 -90 c40 -69 77 -215 54 -215 -25 0 -220 133 -220 151 0 8 121 108 132 109 4 0 19 -20 34 -45z"
       id="path404"
       style="fill:#3333ff" />
    <path
       d="M5746 3574 l-56 -45 27 -22 c69 -55 93 -68 93 -52 0 8 -8 15 -17 15 -12 0 -14 3 -6 11 16 16 33 2 33 -26 0 -17 9 -29 30 -40 39 -20 40 -20 40 15 0 51 -59 190 -80 190 -5 0 -33 -21 -64 -46z"
       id="path406"
       style="fill:#cc0033" />
    <path
       d="M5560 3663 c-30 -8 -57 -16 -59 -19 -7 -7 32 -45 62 -61 27 -13 31 -12 95 33 37 26 71 51 77 56 15 14 -116 7 -175 -9z"
       id="path408"
       style="fill:#cc99ff" />
    <path
       d="M6220 3618 c-36 -27 -74 -56 -84 -63 -18 -13 -14 -20 69 -117 49 -57 94 -109 101 -117 11 -12 29 -11 121 9 59 12 112 24 116 27 8 5 -14 34 -157 206 -49 59 -92 107 -95 106 -3 0 -35 -23 -71 -51z"
       id="path410"
       style="fill:#330099" />
    <path
       d="M2500 3615 c0 -35 24 -135 31 -128 8 8 -13 118 -25 130 -3 4 -6 3 -6 -2z"
       id="path412"
       style="fill:none" />
    <path
       d="M2963 3518 c28 -7 42 -7 50 1 8 8 -2 11 -38 10 l-50 -1 38 -10z"
       id="path414"
       style="fill:none" />
    <path
       d="M3165 3520 c-4 -6 27 -10 87 -9 83 2 88 3 43 9 -72 12 -123 12 -130 0z"
       id="path416"
       style="fill:none" />
    <path
       d="M3007 3499 c-29 -22 -134 -156 -157 -199 -7 -14 -23 -39 -37 -57 -20 -27 -27 -31 -47 -23 -20 7 -25 4 -40 -27 l-16 -34 -38 22 c-20 12 -41 26 -46 31 -18 16 -26 8 -26 -26 0 -30 4 -35 29 -41 48 -10 58 -31 32 -66 -23 -31 -64 -119 -58 -125 2 -2 35 23 74 56 39 32 99 77 134 99 76 49 77 49 -71 15 -17 -4 -22 -2 -15 5 6 5 50 17 99 26 83 14 126 34 126 58 0 5 -12 23 -26 40 -21 25 -25 38 -21 70 3 21 13 47 23 58 31 35 107 79 135 79 26 0 39 15 39 46 0 22 -60 17 -93 -7z"
       id="path418"
       style="fill:#6699cc" />
    <path
       d="M6091 3494 c-20 -25 -23 -36 -18 -90 7 -78 33 -134 61 -134 12 1 54 9 95 18 l73 17 -40 50 c-22 28 -64 77 -94 109 l-54 59 -23 -29z"
       id="path420"
       style="fill:#9966ff" />
    <path
       d="M2849 3433 c-34 -43 -78 -102 -97 -130 -24 -36 -42 -53 -56 -53 -32 0 -121 45 -139 69 -15 22 -15 22 -26 -10 -6 -18 -11 -33 -11 -35 0 -2 134 -70 182 -92 3 -2 17 21 30 50 24 52 179 228 200 228 6 0 -33 -45 -86 -101 -54 -55 -95 -106 -93 -112 2 -7 12 -13 23 -15 14 -2 29 13 57 60 20 35 54 85 76 113 22 27 38 52 35 57 -2 4 6 12 18 19 22 12 22 12 3 20 -42 16 -56 8 -116 -68z"
       id="path422"
       style="fill:#cc33ff" />
    <path
       d="M1964 3427 c-22 -40 -68 -115 -101 -167 -88 -139 -175 -303 -218 -410 -21 -52 -53 -129 -71 -172 -19 -42 -34 -85 -34 -96 0 -22 113 -133 160 -157 17 -9 30 -13 30 -10 0 2 -17 27 -37 54 -21 27 -54 75 -73 107 l-34 57 24 19 c25 20 160 91 160 84 0 -2 -36 -24 -80 -50 -44 -25 -80 -51 -80 -57 0 -33 107 -180 126 -172 7 3 14 10 14 16 0 5 32 75 70 155 39 80 70 146 70 148 0 2 -24 -12 -52 -32 l-53 -36 40 36 c22 20 36 36 30 36 -5 0 5 9 23 20 17 11 32 23 32 27 0 4 -21 26 -47 50 -44 41 -45 44 -30 61 23 25 21 31 -8 42 -32 12 -34 56 -4 116 27 58 43 70 73 56 20 -9 27 -7 40 7 11 12 12 21 6 27 -16 16 17 38 89 63 78 25 97 26 109 5 7 -13 15 -5 36 42 15 32 25 65 24 73 -3 16 -164 131 -183 130 -5 0 -28 -32 -51 -72z m-124 -652 c0 -2 -10 -9 -22 -15 -22 -11 -22 -10 -4 4 21 17 26 19 26 11z m-127 -116 c-29 -17 -53 -35 -53 -39 0 -5 13 -32 30 -60 16 -28 32 -63 36 -78 4 -19 0 -16 -14 14 -11 22 -31 59 -46 82 -14 23 -26 44 -26 47 0 7 103 65 115 65 6 0 -14 -14 -42 -31z"
       id="path424"
       style="fill:#660000" />
    <path
       d="M5609 3437 c-17 -28 -43 -65 -56 -82 l-25 -29 43 -38 c24 -20 49 -37 54 -37 9 -1 115 140 115 152 0 2 -22 23 -49 45 l-49 42 -33 -53z"
       id="path426"
       style="fill:#cc0033" />
    <path
       d="M4645 3446 c39 -13 72 -23 73 -21 8 8 -56 33 -98 39 -40 6 -37 4 25 -18z"
       id="path428"
       style="fill:none" />
    <path
       d="M2999 3422 c-24 -16 -52 -38 -62 -49 -23 -26 -25 -89 -4 -111 16 -15 19 -15 44 4 37 28 82 102 90 147 7 46 -6 48 -68 9z"
       id="path430"
       style="fill:#6699ff" />
    <path
       d="M3895 3405 c-39 -28 -143 -45 -330 -55 -202 -10 -305 -29 -417 -76 -88 -36 -178 -82 -195 -99 -8 -8 -20 -15 -27 -15 -17 0 -205 -127 -276 -186 -60 -50 -89 -107 -90 -178 0 -26 -10 -55 -31 -88 -29 -44 -49 -61 -49 -39 0 5 -14 24 -30 41 l-31 33 23 26 c12 14 38 43 58 64 l35 38 6 -28 c5 -25 7 -22 17 25 15 68 58 169 88 209 13 17 24 34 24 36 0 4 -56 27 -67 27 -2 0 -10 -18 -19 -40 -11 -26 -45 -67 -95 -114 l-80 -73 -35 -122 c-36 -125 -78 -241 -115 -314 -20 -38 -20 -41 -4 -53 9 -7 31 -11 48 -9 132 17 125 14 136 47 6 16 46 89 88 160 139 232 306 364 605 476 229 87 492 131 666 111 86 -10 133 1 163 37 9 12 15 11 36 -6 14 -11 41 -20 59 -20 23 0 37 -6 44 -20 17 -32 31 -23 28 17 -3 34 -8 40 -51 60 -40 20 -77 59 -90 97 -1 4 -39 -3 -82 -17 -93 -29 -274 -71 -281 -65 -2 3 49 17 114 32 131 31 242 66 242 77 0 21 -57 24 -85 4z m-290 -121 c-5 -2 -77 -15 -160 -28 -82 -14 -175 -32 -205 -41 -74 -21 -234 -48 -257 -43 -10 2 20 9 67 16 47 8 130 25 185 38 138 34 421 79 370 58z"
       id="path432"
       style="fill:#993300" />
    <path
       d="M4885 3393 c-33 -8 -64 -20 -70 -25 -12 -12 8 -9 110 20 82 24 48 28 -40 5z"
       id="path434"
       style="fill:#990000" />
    <path
       d="M5714 3342 c-21 -31 -47 -67 -58 -79 -11 -13 -17 -25 -14 -28 3 -3 35 30 71 74 45 54 62 81 53 84 -9 4 -28 -16 -52 -51z"
       id="path436"
       style="fill:#cc99ff" />
    <path
       d="M5331 3335 c-27 -31 -76 -94 -107 -141 l-56 -85 15 -52 c9 -29 19 -64 23 -79 7 -30 14 -34 30 -18 25 25 169 68 324 97 19 3 53 17 74 31 21 13 54 29 73 36 l34 12 -53 45 c-110 93 -273 209 -294 209 -6 0 -35 -25 -63 -55z"
       id="path438"
       style="fill:#660033" />
    <path
       d="M4010 3367 c0 -27 31 -55 74 -66 46 -11 76 -41 76 -74 0 -15 5 -18 25 -13 14 4 25 2 25 -4 0 -5 5 -10 11 -10 6 0 9 19 7 48 -3 44 -6 48 -43 68 -22 11 -56 30 -75 42 -39 24 -100 30 -100 9z"
       id="path440"
       style="fill:#cc3300" />
    <path
       d="M5720 3298 c-33 -40 -60 -76 -60 -79 0 -4 11 -14 25 -23 26 -17 26 -17 97 48 39 37 74 66 79 66 20 0 6 18 -30 38 -21 12 -41 22 -45 22 -3 0 -33 -33 -66 -72z"
       id="path442"
       style="fill:#cc0033" />
    <path
       d="M6451 3322 c-58 -15 -107 -33 -109 -40 -8 -26 257 -257 325 -283 22 -8 124 5 151 20 9 5 -12 35 -70 102 -46 52 -107 125 -136 162 -30 37 -54 67 -55 66 -1 -1 -49 -13 -106 -27z"
       id="path444"
       style="fill:#330099" />
    <path
       d="M2246 3266 c-3 -13 -9 -31 -12 -39 -3 -10 3 -20 15 -27 20 -10 21 -8 21 40 0 52 -14 67 -24 26z"
       id="path446"
       style="fill:#990000" />
    <path
       d="M6308 3283 c7 -3 16 -2 19 1 4 3 -2 6 -13 5 -11 0 -14 -3 -6 -6z"
       id="path448"
       style="fill:none" />
    <path
       d="M2034 3240 c-34 -11 -68 -27 -75 -37 -16 -18 -24 -19 103 14 38 10 66 23 65 28 -6 16 -29 15 -93 -5z"
       id="path450"
       style="fill:#6699cc" />
    <path
       d="M2517 3252 c-10 -15 -88 -294 -84 -298 2 -3 30 21 62 52 78 77 110 153 89 209 -7 18 -61 48 -67 37z"
       id="path452"
       style="fill:#990000" />
    <path
       d="M2118 3156 c-17 -33 -60 -112 -95 -175 -52 -89 -63 -115 -52 -122 8 -5 19 -9 24 -9 24 0 223 329 210 349 -2 5 -16 11 -30 14 -23 4 -29 -2 -57 -57z"
       id="path454"
       style="fill:#9966ff" />
    <path
       d="M2002 3174 c-29 -14 -61 -37 -72 -51 -46 -59 -50 -155 -9 -223 l21 -34 50 85 c49 83 128 234 128 244 0 14 -72 2 -118 -21z"
       id="path456"
       style="fill:#3333ff" />
    <path
       d="M2199 3138 c-13 -29 -59 -106 -101 -170 -43 -64 -78 -119 -78 -122 0 -3 25 -13 56 -22 56 -16 57 -16 123 12 36 15 70 31 76 36 5 4 8 67 6 146 -2 108 -6 141 -18 155 -25 27 -38 20 -64 -35z"
       id="path458"
       style="fill:#3333ff" />
    <path
       d="M1850 3123 c-25 -32 -45 -96 -37 -117 11 -28 24 -17 31 23 3 22 17 53 31 69 29 35 30 38 10 45 -8 4 -23 -5 -35 -20z"
       id="path460"
       style="fill:#6699cc" />
    <path
       d="M2298 3009 c3 -139 10 -152 44 -89 25 48 24 125 -5 174 -12 22 -26 41 -32 43 -6 2 -9 -44 -7 -128z"
       id="path462"
       style="fill:#6699cc" />
    <path
       d="M5674 3094 c-55 -29 -84 -52 -84 -67 0 -21 -81 -177 -115 -222 -20 -26 -34 -49 -31 -52 3 -3 40 7 83 22 43 15 107 38 143 51 43 15 120 28 230 39 91 9 183 20 205 23 l39 7 -146 88 c-81 48 -150 87 -155 87 -5 0 -24 11 -43 25 -43 32 -65 31 -126 -1z"
       id="path464"
       style="fill:#330099" />
    <path
       d="M5121 2999 c-37 -79 -67 -167 -59 -174 2 -2 34 24 72 58 l68 62 -16 64 c-9 36 -19 67 -21 70 -3 2 -22 -34 -44 -80z"
       id="path466"
       style="fill:#660033" />
    <path
       d="M4976 3057 c-16 -12 -16 -16 5 -72 30 -84 42 -91 18 -11 -16 53 -18 70 -8 82 14 17 8 18 -15 1z"
       id="path468"
       style="fill:#990000" />
    <path
       d="M5323 2986 c-94 -38 -134 -64 -215 -140 -42 -38 -58 -60 -58 -79 0 -14 -3 -32 -6 -41 -4 -11 -1 -16 10 -16 9 0 19 8 22 18 31 100 98 163 259 243 115 56 108 64 -12 15z"
       id="path470"
       style="fill:#6699cc" />
    <path
       d="M3318 2980 c-59 -10 -146 -39 -153 -50 -3 -5 13 -19 36 -31 l42 -21 26 21 c49 40 104 61 164 61 104 0 148 -31 176 -126 l17 -58 52 -11 c51 -12 52 -12 46 9 -3 11 -17 39 -29 62 -69 120 -207 172 -377 144z"
       id="path472"
       style="fill:#660033" />
    <path
       d="M3340 2929 c-46 -21 -80 -46 -80 -60 0 -4 16 -17 36 -28 l36 -22 51 26 c67 33 109 33 136 -1 12 -15 21 -35 21 -45 0 -15 7 -19 31 -19 31 0 32 0 26 42 -3 23 -14 53 -24 67 -45 61 -148 79 -233 40z"
       id="path474"
       style="fill:#cc33ff" />
    <path
       d="M1840 2926 c0 -8 16 -28 35 -45 42 -36 58 -41 28 -8 -11 12 -26 32 -32 45 -13 25 -31 30 -31 8z"
       id="path476"
       style="fill:#6699cc" />
    <path
       d="M3133 2885 c-9 -30 -8 -36 12 -55 12 -12 31 -37 41 -56 22 -41 36 -45 22 -6 -9 23 -8 36 6 63 19 37 16 42 -45 74 -25 13 -26 13 -36 -20z"
       id="path478"
       style="fill:#990000" />
    <path
       d="M6223 2882 c-21 -7 -19 -10 30 -53 56 -49 114 -67 221 -70 35 -2 42 -3 21 -7 -16 -2 -73 1 -125 7 -309 37 -382 42 -562 37 -149 -5 -199 -10 -254 -27 -38 -11 -73 -25 -78 -30 -6 -5 32 -9 95 -9 114 0 433 -31 562 -54 45 -9 126 -20 179 -26 54 -5 160 -19 235 -30 150 -22 203 -25 203 -12 0 12 -52 83 -76 104 -10 9 -46 21 -79 27 -57 9 -58 10 -12 8 26 -1 47 0 47 2 0 5 -8 12 -102 84 l-75 57 -104 -1 c-57 -1 -114 -4 -126 -7z"
       id="path480"
       style="fill:#660033" />
    <path
       d="M3100 2869 c0 -5 5 -7 10 -4 6 3 10 8 10 11 0 2 -4 4 -10 4 -5 0 -10 -5 -10 -11z"
       id="path482"
       style="fill:#6699cc" />
    <path
       d="M5990 2864 c-153 -14 -327 -41 -334 -52 -2 -4 73 -5 167 -3 95 2 217 -2 272 -8 55 -7 120 -14 145 -17 l45 -4 -53 50 c-33 31 -62 50 -75 49 -12 -1 -87 -7 -167 -15z"
       id="path484"
       style="fill:#6699cc" />
    <path
       d="M2225 2835 c-40 -19 -45 -24 -25 -24 14 -1 43 10 65 24 50 31 26 31 -40 0z"
       id="path486"
       style="fill:none" />
    <path
       d="M3230 2841 c-5 -11 -10 -36 -10 -55 0 -47 24 -48 68 -3 l31 32 -39 23 c-38 22 -39 22 -50 3z"
       id="path488"
       style="fill:#cc33ff" />
    <path
       d="M3409 2846 c-40 -14 -88 -46 -110 -72 -13 -15 -10 -16 26 -11 22 4 77 10 122 13 l83 7 -6 26 c-12 50 -47 61 -115 37z"
       id="path490"
       style="fill:#6699cc" />
    <path
       d="M1852 2663 c-50 -104 -94 -201 -97 -218 -4 -16 -16 -58 -27 -93 -11 -35 -18 -64 -17 -66 28 -20 68 -46 72 -46 3 0 7 46 9 103 3 92 7 109 38 172 40 83 116 167 211 232 71 48 83 63 51 63 -11 0 -45 9 -77 20 -32 11 -61 20 -65 20 -3 0 -47 -84 -98 -187z"
       id="path492"
       style="fill:#660033" />
    <path
       d="M3025 2798 c-26 -29 -61 -72 -77 -96 -28 -41 -29 -44 -14 -67 9 -14 28 -32 42 -41 36 -24 48 -9 82 111 16 55 32 110 36 123 13 39 -19 25 -69 -30z"
       id="path494"
       style="fill:#660033" />
    <path
       d="M2481 2795 c-22 -24 -41 -48 -41 -52 0 -5 12 -21 26 -37 l26 -30 19 25 c13 17 19 41 19 82 0 31 -2 57 -4 57 -2 0 -22 -20 -45 -45z"
       id="path496"
       style="fill:#cc3300" />
    <path
       d="M3106 2828 c-2 -7 -15 -52 -29 -101 l-25 -87 36 28 c21 16 46 34 57 40 50 28 50 27 16 81 -33 51 -49 62 -55 39z"
       id="path498"
       style="fill:#6699ff" />
    <path
       d="M3365 2758 c-44 -5 -91 -14 -105 -21 -14 -6 -30 -10 -37 -8 -25 4 -99 -43 -153 -98 -102 -103 -163 -263 -135 -357 6 -22 19 -52 27 -69 l16 -29 16 54 c20 66 20 92 1 155 -22 72 -15 89 65 140 43 27 76 57 86 77 26 51 75 120 81 114 3 -3 0 -12 -6 -20 -10 -12 -6 -12 36 0 30 9 82 14 138 13 65 -1 100 3 128 15 43 19 88 14 135 -14 38 -23 54 -51 41 -71 -6 -10 -9 -7 -9 14 0 39 -49 67 -117 67 -28 0 -54 -4 -57 -9 -3 -5 21 -18 54 -30 74 -27 149 -88 297 -240 62 -64 114 -113 116 -111 2 3 2 32 0 66 -5 57 -7 62 -40 79 -70 38 -167 160 -196 247 -13 39 -199 57 -382 36z"
       id="path500"
       style="fill:#660000" />
    <path
       d="M1318 2699 c-10 -17 -18 -36 -18 -43 0 -8 33 -76 73 -152 48 -94 87 -154 120 -187 26 -26 47 -49 47 -51 0 -2 -16 -7 -36 -10 -19 -4 -52 -22 -73 -41 l-37 -34 65 -72 c36 -40 84 -93 106 -117 l41 -44 37 22 c28 17 37 29 37 48 0 34 42 124 70 152 28 28 15 42 -36 38 l-38 -3 -42 -103 c-23 -57 -45 -106 -49 -110 -8 -7 -3 20 9 48 5 12 -6 20 -45 34 -57 21 -125 74 -112 87 13 13 172 59 204 59 20 0 30 7 39 30 7 17 11 32 9 33 -34 23 -119 91 -119 96 0 3 -33 46 -74 95 -47 56 -88 119 -112 172 -22 46 -41 83 -44 84 -3 0 -13 -14 -22 -31z"
       id="path502"
       style="fill:#660000" />
    <path
       d="M3770 2694 c24 -62 130 -182 188 -213 25 -13 26 -10 11 43 -13 47 -106 149 -161 177 -48 24 -49 24 -38 -7z"
       id="path504"
       style="fill:#660033" />
    <path
       d="M3493 2683 c9 -14 90 -52 127 -60 45 -9 31 13 -24 37 -50 22 -111 35 -103 23z"
       id="path506"
       style="fill:#6699ff" />
    <path
       d="M1270 2518 c-43 -158 -36 -436 12 -515 24 -40 31 -41 48 -5 13 27 41 142 34 142 -1 0 -14 -19 -28 -42 -33 -55 -34 -37 -1 21 14 23 25 44 25 46 0 1 -18 15 -40 30 -28 19 -40 35 -40 51 0 14 18 76 39 138 l40 115 -26 50 c-13 28 -28 51 -33 51 -4 0 -18 -37 -30 -82z"
       id="path508"
       style="fill:#3333ff" />
    <path
       d="M3048 2505 c-57 -38 -62 -56 -32 -144 10 -29 83 99 84 147 0 27 -6 27 -52 -3z"
       id="path510"
       style="fill:#660033" />
    <path
       d="M3987 2499 c8 -41 11 -44 98 -72 57 -18 92 -22 190 -22 117 1 228 15 283 36 l27 11 -24 9 c-14 5 -56 9 -94 7 -51 -1 -72 2 -81 12 -30 39 -42 42 -103 28 l-58 -13 40 -6 c25 -4 5 -6 -52 -5 -51 0 -93 4 -93 7 0 3 -26 12 -57 19 -32 7 -64 15 -70 17 -10 4 -11 -4 -6 -28z m383 -25 c0 -2 -11 -4 -25 -4 -14 0 -25 4 -25 9 0 4 11 6 25 3 14 -2 25 -6 25 -8z m-269 -3 c-27 -17 69 -33 204 -33 117 -1 124 -2 70 -10 -39 -6 -98 -6 -168 1 -113 11 -161 26 -136 42 8 5 21 9 29 9 13 0 13 -2 1 -9z m354 -21 c3 -5 1 -10 -4 -10 -6 0 -11 5 -11 10 0 6 2 10 4 10 3 0 8 -4 11 -10z"
       id="path512"
       style="fill:#660033" />
    <path
       d="M4745 2495 c-55 -19 -132 -46 -171 -59 -150 -52 -389 -60 -508 -17 -32 11 -63 18 -68 15 -13 -9 1 -123 19 -150 27 -42 78 -57 173 -52 72 4 100 11 170 43 47 21 125 65 175 97 108 71 179 107 226 114 34 6 126 -12 116 -23 -3 -3 -22 0 -41 7 -50 16 -123 -1 -197 -47 -33 -20 -58 -37 -56 -39 1 -2 33 2 71 9 56 9 70 16 77 34 13 34 58 42 81 14 16 -21 19 -21 34 -7 8 9 20 16 27 16 6 0 4 -6 -5 -12 -40 -33 -21 -81 23 -57 l22 12 -29 13 -29 13 30 -6 c27 -6 29 -5 16 10 -11 14 -11 17 0 17 11 0 11 2 -1 10 -32 21 8 8 55 -18 34 -18 61 -44 85 -79 43 -67 61 -57 37 21 -19 58 -78 129 -123 146 -46 18 -107 10 -209 -25z m-682 -160 l-6 -35 59 -1 c33 0 82 -5 109 -9 38 -7 24 -8 -54 -4 -57 2 -107 7 -112 10 -16 9 -10 74 7 74 2 0 0 -16 -3 -35z m125 18 c-15 -2 -42 -2 -60 0 -18 2 -6 4 27 4 33 0 48 -2 33 -4z m116 -19 c9 -24 7 -54 -4 -54 -5 0 -10 13 -10 29 0 27 -4 30 -37 34 l-38 4 41 1 c30 2 44 -2 48 -14z"
       id="path514"
       style="fill:#660000" />
    <path
       d="M2827 2467 c-21 -32 -32 -112 -18 -122 21 -13 40 16 47 71 8 65 -5 87 -29 51z"
       id="path516"
       style="fill:#660000" />
    <path
       d="M1346 2382 c-41 -132 -42 -143 -7 -176 l30 -29 42 37 c22 21 54 42 70 48 l29 10 -39 46 c-21 26 -51 68 -66 95 -15 26 -29 47 -31 47 -2 0 -14 -35 -28 -78z"
       id="path518"
       style="fill:#9966ff" />
    <path
       d="M4752 2438 c-18 -18 -15 -26 11 -31 l22 -4 -22 -2 c-28 -1 -31 -21 -4 -21 25 0 54 43 38 59 -14 14 -30 14 -45 -1z"
       id="path520"
       style="fill:#660033" />
    <path
       d="M4918 2424 c5 -9 26 -22 46 -29 32 -11 35 -11 25 2 -12 14 -62 43 -74 43 -3 0 -2 -7 3 -16z"
       id="path522"
       style="fill:none" />
    <path
       d="M2770 2218 c-31 -68 -27 -85 21 -98 54 -15 62 -6 67 75 l4 65 -36 0 c-34 0 -39 -4 -56 -42z"
       id="path524"
       style="fill:#660000" />
    <path
       d="M1615 2205 c-5 -2 -43 -13 -82 -24 -40 -12 -73 -26 -73 -30 0 -11 141 -71 151 -65 4 2 14 23 22 47 8 23 18 50 22 60 5 13 2 17 -11 16 -11 0 -23 -2 -29 -4z"
       id="path526"
       style="fill:#cc33ff" />
    <path
       d="M1740 2133 c-17 -26 -29 -54 -28 -62 2 -10 29 -20 81 -29 43 -8 81 -12 83 -9 3 3 -15 33 -40 67 -25 34 -46 66 -46 71 0 22 -23 5 -50 -38z"
       id="path528"
       style="fill:#660033" />
    <path
       d="M1376 2104 c-6 -56 -25 -104 -53 -136 -13 -14 -13 -20 -1 -36 13 -19 16 -16 68 45 90 108 86 96 45 142 -21 23 -41 41 -45 41 -4 0 -10 -25 -14 -56z"
       id="path530"
       style="fill:#6699cc" />
    <path
       d="M2970 2103 c0 -35 0 -36 20 -18 15 13 17 22 9 36 -16 30 -29 22 -29 -18z"
       id="path532"
       style="fill:none" />
    <path
       d="M1413 1987 c-44 -50 -58 -73 -48 -75 16 -4 174 45 188 58 9 8 -59 91 -72 89 -3 0 -34 -33 -68 -72z"
       id="path534"
       style="fill:#9966ff" />
    <path
       d="M2636 1938 c-50 -56 -101 -139 -127 -207 -9 -21 -8 -22 6 -11 9 8 23 27 32 44 9 17 49 77 89 134 41 56 70 102 65 102 -5 0 -35 -28 -65 -62z"
       id="path536"
       style="fill:#660000" />
    <path
       d="M1475 1929 c-49 -17 -98 -31 -107 -32 -10 -1 -18 -4 -18 -8 0 -4 8 -17 18 -28 16 -21 18 -21 49 -6 18 9 57 19 87 22 45 5 58 11 76 35 18 25 20 32 9 39 -18 11 -10 13 -114 -22z"
       id="path538"
       style="fill:#0066ff" />
    <path
       d="M1930 1863 c-40 -21 -102 -65 -139 -99 -72 -68 -80 -97 -10 -38 24 20 85 65 136 101 83 58 102 73 89 73 -2 0 -36 -17 -76 -37z"
       id="path540"
       style="fill:#660033" />
    <path
       d="M2703 1881 c-36 -22 -47 -48 -37 -85 8 -32 31 -46 78 -46 30 0 39 6 61 37 30 44 32 74 7 96 -25 22 -70 21 -109 -2z"
       id="path542"
       style="fill:#660000" />
    <path
       d="M1978 1858 c-117 -83 -146 -104 -195 -142 -28 -23 -64 -49 -78 -60 -15 -10 -23 -22 -18 -27 12 -12 145 -45 213 -53 l55 -6 -30 16 c-16 9 -32 18 -34 20 -2 1 22 49 52 106 49 92 90 178 84 178 -1 0 -23 -15 -49 -32z"
       id="path544"
       style="fill:#660000" />
    <path
       d="M1975 1748 c-62 -123 -66 -133 -49 -145 10 -7 21 -13 26 -13 4 0 22 30 38 68 17 37 49 98 72 135 22 37 39 69 37 71 -2 2 -16 6 -30 10 -26 6 -30 1 -94 -126z"
       id="path546"
       style="fill:#660033" />
    <path
       d="M1448 1854 c-53 -16 -55 -20 -32 -52 18 -26 34 -29 34 -5 0 9 12 30 27 45 15 15 25 28 22 27 -2 0 -25 -7 -51 -15z"
       id="path548"
       style="fill:#3333ff" />
    <path
       d="M1510 1851 c-39 -21 -60 -63 -44 -89 38 -60 111 -64 145 -8 28 45 25 84 -7 98 -21 10 -27 9 -35 -3 -7 -11 -9 -11 -9 4 0 22 -7 21 -50 -2z m84 -58 c11 -13 16 -23 13 -23 -10 0 -37 31 -37 42 0 6 1 9 3 7 1 -2 11 -14 21 -26z"
       id="path550"
       style="fill:#660000" />
    <path
       d="M2116 1754 c-21 -48 -40 -92 -42 -99 -4 -9 15 -16 59 -24 82 -14 76 -15 87 14 13 33 33 32 63 -5 22 -26 32 -30 76 -30 28 0 51 3 51 8 0 42 -194 222 -239 222 -12 0 -29 -26 -55 -86z"
       id="path552"
       style="fill:#660000" />
    <path
       d="M2237 1643 c-12 -11 -8 -21 12 -26 25 -6 34 2 20 20 -13 14 -22 16 -32 6z"
       id="path554"
       style="fill:none" />
    <path
       d="M5032 3308 c-16 -16 -15 -39 4 -66 14 -21 17 -21 45 -6 36 18 44 36 29 63 -12 24 -58 29 -78 9z"
       id="path556"
       style="fill:#990000" />
    <path
       d="M1847 1973 c-13 -12 -7 -33 8 -33 8 0 15 9 15 20 0 20 -11 26 -23 13z"
       id="path558"
       style="fill:none" />
  </g>
</svg>
