<?xml version="1.0" encoding="UTF-8" standalone="no"?>
<svg
   xmlns:dc="http://purl.org/dc/elements/1.1/"
   xmlns:cc="http://creativecommons.org/ns#"
   xmlns:rdf="http://www.w3.org/1999/02/22-rdf-syntax-ns#"
   xmlns:svg="http://www.w3.org/2000/svg"
   xmlns="http://www.w3.org/2000/svg"
   xmlns:sodipodi="http://sodipodi.sourceforge.net/DTD/sodipodi-0.dtd"
   xmlns:inkscape="http://www.inkscape.org/namespaces/inkscape"
   version="1.0"
   width="850.000000pt"
   height="850.000000pt"
   viewBox="0 0 850.000000 850.000000"
   preserveAspectRatio="xMidYMid meet"
   id="svg2"
   inkscape:version="0.91 r13725"
   sodipodi:docname="Scenery518_004.svg">
  <defs
     id="defs206" />
  <sodipodi:namedview
     pagecolor="#ffffff"
     bordercolor="#666666"
     borderopacity="1"
     objecttolerance="10"
     gridtolerance="10"
     guidetolerance="10"
     inkscape:pageopacity="0"
     inkscape:pageshadow="2"
     inkscape:window-width="1920"
     inkscape:window-height="980"
     id="namedview204"
     showgrid="false"
     inkscape:zoom="1.2564872"
     inkscape:cx="664.735"
     inkscape:cy="466.29552"
     inkscape:window-x="0"
     inkscape:window-y="1"
     inkscape:window-maximized="1"
     inkscape:current-layer="svg2" />
  <metadata
     id="metadata4">
Created by potrace 1.14, written by Peter Selinger 2001-2017
<rdf:RDF>
  <cc:Work
     rdf:about="">
    <dc:format>image/svg+xml</dc:format>
    <dc:type
       rdf:resource="http://purl.org/dc/dcmitype/StillImage" />
  </cc:Work>
</rdf:RDF>
</metadata>
  <g
     transform="translate(0.000000,850.000000) scale(0.100000,-0.100000)"
     fill="#000000"
     stroke="none"
     id="g6">
    <path
       d="M0 4250 l0 -4250 4250 0 4250 0 0 4250 0 4250 -4250 0 -4250 0 0 -4250z m5858 3666 c41 -21 65 -25 197 -29 138 -6 153 -4 180 13 48 32 89 26 122 -16 18 -23 54 -47 101 -69 165 -77 278 -187 358 -350 56 -114 69 -166 99 -400 14 -104 35 -242 46 -305 28 -154 23 -246 -17 -319 -16 -31 -43 -63 -62 -75 l-34 -21 6 -215 c8 -284 18 -460 25 -460 7 0 109 209 151 310 33 80 72 130 102 130 33 0 75 -28 80 -53 15 -79 -139 -423 -270 -599 l-44 -61 7 -343 7 -342 106 -37 c123 -42 286 -122 355 -172 65 -48 162 -165 197 -238 75 -157 140 -520 116 -649 -9 -46 -58 -103 -97 -111 -29 -7 -30 -9 -25 -48 7 -54 23 -275 32 -442 4 -71 10 -337 13 -590 l6 -459 68 -33 c41 -20 91 -56 126 -90 49 -48 62 -69 76 -117 10 -33 15 -75 12 -96 l-5 -37 96 -12 c253 -31 402 -104 419 -204 12 -75 -27 -120 -132 -155 -75 -25 -121 -30 -424 -42 -134 -6 -252 -15 -263 -21 -16 -8 -18 -17 -12 -58 6 -47 5 -49 -30 -76 -71 -54 -138 -67 -396 -75 -286 -10 -308 -16 -324 -80 -7 -25 -19 -57 -29 -70 -43 -62 -153 -108 -327 -136 -116 -19 -441 -14 -590 10 -52 8 -205 22 -340 32 l-246 17 -39 -26 c-22 -14 -71 -39 -110 -56 -269 -114 -679 -63 -887 110 -41 35 -53 39 -100 39 -29 0 -82 -5 -118 -11 -63 -10 -67 -12 -150 -93 -133 -131 -185 -156 -254 -125 -28 13 -54 62 -63 116 l-6 35 -121 -8 c-209 -15 -518 -10 -641 10 -250 41 -521 129 -587 193 l-28 27 -83 -18 c-280 -61 -633 -61 -845 0 -40 11 -66 27 -98 61 l-45 46 -142 -17 c-214 -24 -387 -17 -477 20 -117 49 -137 161 -45 250 31 30 73 53 163 90 l121 49 -6 40 c-9 73 56 126 217 176 88 27 95 32 144 103 l37 55 -74 118 c-79 125 -147 253 -147 277 0 8 18 45 39 82 l39 67 -27 23 c-15 13 -43 51 -62 86 -33 60 -34 67 -34 168 0 95 3 111 28 162 17 34 50 77 82 106 l54 50 -62 22 c-88 32 -172 76 -242 125 -189 134 -315 383 -315 623 l0 67 -48 19 c-64 26 -108 59 -168 127 -93 106 -125 242 -85 362 25 74 80 165 132 216 104 104 331 141 465 76 49 -24 114 -84 161 -150 l21 -30 48 23 c26 13 65 27 88 32 23 4 73 20 111 34 39 14 87 26 108 26 l37 0 0 53 c0 116 53 241 136 316 60 57 101 72 196 74 94 3 104 13 99 92 -2 40 2 57 23 88 14 21 26 40 26 42 0 3 -16 26 -36 52 -152 197 -118 389 82 478 186 82 321 98 819 99 l390 1 0 120 c0 140 17 210 73 294 42 63 129 131 210 162 85 33 248 38 319 10 l52 -20 67 45 c36 24 93 52 125 61 l59 16 44 91 c70 145 179 244 334 303 84 32 230 42 310 20 l52 -14 0 151 c0 149 12 235 42 289 6 12 11 38 9 57 -1 26 8 52 37 100 31 52 49 70 88 90 27 14 90 53 141 87 51 33 119 71 151 84 47 18 65 31 86 65 27 43 99 114 114 114 5 0 37 -18 72 -41 l62 -40 102 16 c81 13 112 22 156 50 66 41 77 42 138 11z"
       id="path8"
       style="fill:none" />
    <path
       d="M5745 7879 l-30 -21 40 6 c22 3 54 6 70 6 29 1 29 1 11 15 -27 21 -56 19 -91 -6z"
       id="path10"
       style="fill:#ffcc99" />
    <path
       d="M6255 7873 l-30 -17 40 -7 c22 -5 51 -8 64 -8 l24 -1 -23 25 c-27 29 -35 30 -75 8z"
       id="path12"
       style="fill:#ffcc99" />
    <path
       d="M5304 7862 c-23 -18 -86 -103 -81 -108 2 -2 28 6 58 17 30 11 73 27 97 36 24 8 42 17 40 19 -11 10 -80 54 -86 54 -4 0 -17 -8 -28 -18z"
       id="path14"
       style="fill:#ffcc99" />
    <path
       d="M5725 7844 c-106 -12 -210 -29 -247 -40 -10 -3 -18 -15 -18 -27 -1 -70 -36 -87 -179 -87 -65 0 -82 3 -89 17 -9 15 -14 15 -67 -5 -56 -22 -235 -137 -235 -152 0 -4 11 -15 25 -24 34 -22 32 -43 -13 -112 -57 -87 -74 -100 -112 -84 -27 11 -32 11 -45 -6 -38 -51 -50 -115 -50 -284 l0 -164 75 -42 c98 -54 180 -136 221 -222 18 -37 34 -69 36 -71 9 -13 35 30 54 90 25 79 54 109 104 109 21 0 39 -9 56 -26 24 -26 24 -27 24 -247 0 -251 5 -277 65 -331 44 -40 85 -50 169 -44 92 7 156 67 175 167 3 18 -1 126 -10 240 -17 224 -12 292 26 326 24 22 24 18 5 -28 -8 -20 -15 -52 -15 -71 l0 -35 26 24 c29 27 81 41 113 30 12 -4 50 -30 84 -59 103 -88 159 -107 238 -83 66 20 114 60 144 120 32 65 32 94 -5 197 -21 61 -30 104 -30 150 0 100 17 106 22 8 6 -91 48 -216 77 -225 73 -23 92 -55 132 -222 36 -153 64 -199 144 -240 72 -38 175 -37 232 1 91 60 105 163 59 433 -14 83 -32 206 -41 275 -23 188 -33 226 -86 335 -80 167 -175 266 -324 339 -150 74 -464 103 -740 70z m230 -181 c30 -15 55 -32 55 -38 0 -17 -26 -85 -36 -94 -5 -5 -43 -14 -84 -20 l-75 -11 -37 43 c-21 23 -38 47 -38 54 0 10 132 90 152 92 4 1 32 -11 63 -26z m461 -129 c20 -42 33 -82 30 -89 -6 -16 -96 -45 -138 -45 -23 0 -34 9 -57 47 -16 26 -27 52 -23 59 17 27 115 104 133 104 16 0 29 -18 55 -76z m-1004 -21 c39 -44 57 -74 51 -89 -9 -25 -170 -134 -196 -134 -16 0 -36 12 -54 33 -24 28 -29 40 -25 71 4 31 13 44 51 72 49 36 119 74 137 74 5 0 22 -12 36 -27z m267 -218 c22 -30 41 -58 41 -64 0 -13 -125 -101 -144 -101 -15 0 -76 67 -76 83 0 20 103 137 120 137 10 0 36 -24 59 -55z m422 4 l70 -21 -7 -32 c-9 -43 -32 -86 -50 -93 -8 -3 -45 6 -82 19 -75 28 -79 38 -48 111 18 43 24 44 117 16z"
       id="path16"
       style="fill:#99ff99" />
    <path
       d="M5831 7633 c-34 -19 -61 -37 -61 -41 0 -4 10 -20 23 -36 23 -28 24 -28 95 -21 69 7 71 8 82 39 14 44 7 58 -39 77 -39 17 -39 16 -100 -18z m139 -18 c0 -8 -61 -37 -67 -32 -3 3 8 12 24 21 29 16 43 19 43 11z"
       id="path18"
       style="fill:#ffcc99" />
    <path
       d="M6305 7549 c-28 -23 -52 -43 -55 -45 -2 -3 4 -20 15 -39 17 -32 22 -35 64 -35 25 1 58 6 73 13 l28 12 -32 68 c-17 37 -34 67 -37 67 -4 0 -29 -18 -56 -41z"
       id="path20"
       style="fill:#ffcc99" />
    <path
       d="M5342 7505 c-35 -16 -100 -60 -119 -84 -20 -23 -15 -65 10 -89 13 -12 29 -22 36 -22 21 0 171 110 171 126 0 20 -5 19 -89 -26 -58 -31 -69 -35 -46 -16 17 14 49 36 73 48 23 13 42 26 42 29 0 3 -10 15 -22 26 -21 20 -26 20 -56 8z"
       id="path22"
       style="fill:#ffcc99" />
    <path
       d="M5574 7283 c-20 -27 -41 -53 -46 -59 -4 -6 4 -25 20 -44 l28 -33 62 42 62 42 -37 49 c-21 28 -40 50 -44 50 -4 0 -24 -21 -45 -47z"
       id="path24"
       style="fill:#ffcc99" />
    <path
       d="M5997 7256 l-15 -45 61 -20 c69 -24 76 -21 95 37 9 25 8 34 -1 37 -23 9 -112 35 -119 35 -3 0 -13 -20 -21 -44z"
       id="path26"
       style="fill:#ffcc99" />
    <path
       d="M5332 7765 c-57 -24 -106 -46 -110 -49 -10 -10 118 -6 163 5 38 10 44 15 50 46 3 19 5 36 3 38 -2 1 -50 -17 -106 -40z"
       id="path28"
       style="fill:#ffcc99" />
    <path
       d="M4819 7524 c-32 -38 -79 -120 -79 -136 0 -19 36 -38 71 -38 20 0 109 110 109 135 0 13 -59 55 -77 55 -6 0 -16 -7 -24 -16z"
       id="path30"
       style="fill:#ffcc99" />
    <path
       d="M4387 6860 c-118 -20 -281 -129 -347 -232 -65 -100 -83 -159 -84 -273 -1 -124 16 -168 78 -196 112 -51 192 0 215 136 29 167 76 252 165 297 83 42 219 19 282 -49 71 -76 84 -173 44 -322 -18 -70 -20 -91 -11 -121 14 -48 47 -78 97 -85 71 -12 119 46 164 193 18 60 22 91 18 175 -3 98 -5 106 -50 198 -57 116 -111 169 -233 229 -110 55 -217 70 -338 50z"
       id="path32"
       style="fill:#996600" />
    <path
       d="M6340 6802 c0 -86 -94 -201 -186 -228 -95 -27 -151 -10 -258 81 -90 76 -136 81 -189 21 -17 -19 -18 -33 -10 -166 14 -269 8 -310 -51 -378 -41 -47 -106 -75 -173 -74 -108 1 -173 38 -212 121 -26 56 -26 57 -23 270 3 230 -3 261 -49 261 -40 0 -58 -20 -81 -91 -12 -39 -33 -81 -46 -94 -22 -22 -22 -26 -12 -91 8 -51 8 -91 -1 -156 l-12 -88 42 -42 c52 -53 132 -212 166 -332 45 -160 32 -367 -35 -521 -36 -83 -49 -70 259 -255 79 -48 159 -135 293 -320 73 -102 76 -105 83 -98 3 3 -6 25 -20 49 -36 65 -55 125 -65 202 -30 237 101 433 348 524 159 59 358 12 461 -110 l24 -28 25 23 c26 24 130 163 194 258 l37 55 -9 105 c-4 58 -11 179 -14 270 -4 91 -9 210 -12 265 l-6 100 -56 0 c-80 1 -145 22 -192 62 -54 46 -75 91 -105 219 -29 119 -44 162 -69 187 -23 22 -46 22 -46 -1z"
       id="path34"
       style="fill:#ccffff" />
    <path
       d="M4445 6569 c-36 -14 -91 -64 -111 -102 -15 -28 -54 -170 -54 -197 0 -13 21 -15 133 -15 97 0 148 -5 192 -18 33 -10 68 -20 77 -23 26 -8 52 91 45 172 -6 78 -33 125 -93 160 -50 30 -141 40 -189 23z"
       id="path36"
       style="fill:#993300" />
    <path
       d="M3855 6421 c-95 -34 -147 -74 -241 -188 -128 -154 -191 -328 -181 -503 5 -91 47 -261 65 -260 4 1 18 7 32 15 14 8 40 14 57 15 18 0 66 11 107 25 98 33 210 34 293 3 121 -45 239 -208 263 -362 21 -137 -7 -249 -82 -331 -58 -64 -115 -100 -195 -125 -31 -9 -52 -20 -47 -22 24 -15 190 -19 299 -8 141 14 179 28 292 111 102 74 153 97 233 106 53 5 71 13 120 49 32 24 84 72 116 107 60 64 170 219 193 271 29 68 51 193 51 293 0 87 -5 117 -31 200 -45 140 -89 231 -141 288 l-46 50 -27 -57 c-39 -82 -83 -118 -144 -118 -88 0 -151 68 -151 162 l0 47 -52 16 c-88 26 -189 38 -273 32 -67 -5 -82 -9 -95 -27 -8 -12 -29 -38 -46 -58 -29 -33 -36 -36 -97 -40 -54 -3 -75 0 -112 18 -67 32 -87 77 -93 208 -3 56 -7 102 -11 102 -3 -1 -29 -9 -56 -19z m-28 -592 c54 -50 70 -146 34 -205 -24 -40 -95 -69 -147 -61 -92 15 -146 149 -95 233 40 66 152 84 208 33z"
       id="path38"
       style="fill:#993300" />
    <path
       d="M3665 5795 c-34 -33 -35 -107 -2 -156 18 -27 30 -35 61 -37 119 -10 167 103 83 196 -30 33 -109 31 -142 -3z"
       id="path40"
       style="fill:#000066" />
    <path
       d="M3365 6346 c-199 -48 -316 -204 -315 -420 0 -73 23 -160 54 -206 24 -36 109 -109 129 -110 4 0 7 13 7 29 0 55 50 227 90 308 22 44 40 84 40 87 0 14 -47 4 -85 -19 -45 -26 -69 -56 -90 -113 -8 -21 -14 -29 -14 -19 -1 28 28 90 57 120 33 35 65 52 116 61 30 6 55 22 99 64 133 129 187 187 184 197 -11 31 -178 44 -272 21z"
       id="path42"
       style="fill:#996600" />
    <path
       d="M3454 6083 c-56 -69 -124 -208 -154 -313 -24 -89 -39 -250 -22 -250 6 0 13 4 16 9 3 4 19 11 36 15 46 9 97 -16 117 -58 31 -66 31 -37 0 57 -58 177 -46 358 36 528 18 38 30 69 26 69 -5 0 -29 -26 -55 -57z"
       id="path44"
       style="fill:#993300" />
    <path
       d="M7110 6055 c0 -21 47 -42 62 -27 6 6 8 18 5 26 -8 21 -67 22 -67 1z"
       id="path46"
       style="fill:#006600" />
    <path
       d="M7077 6004 c-8 -16 -30 -67 -50 -114 -110 -268 -234 -461 -439 -685 l-27 -30 22 -12 c39 -22 54 -14 114 55 223 253 327 406 407 598 70 169 72 174 50 174 -10 0 -28 9 -40 21 l-22 21 -15 -28z"
       id="path48"
       style="fill:#003300" />
    <path
       d="M2175 5748 c-184 -20 -329 -61 -417 -117 -63 -40 -102 -119 -96 -195 5 -64 43 -144 98 -208 l40 -46 47 14 c56 17 119 18 178 3 37 -9 52 -8 92 7 64 25 161 23 236 -6 55 -21 60 -21 104 -6 54 19 159 21 213 5 29 -9 52 -8 108 5 87 20 164 20 225 2 43 -13 52 -12 98 5 27 11 84 22 125 26 41 3 74 8 74 10 0 2 -16 34 -35 70 -32 61 -35 73 -35 153 l0 87 -39 26 c-52 34 -105 88 -136 138 l-25 39 -388 -1 c-213 -1 -423 -6 -467 -11z m-135 -193 c115 -20 448 -44 715 -53 211 -6 216 -7 120 -14 -196 -15 -871 37 -935 73 -23 13 0 11 100 -6z"
       id="path50"
       style="fill:#663300" />
    <path
       d="M3775 5514 c-11 -3 -41 -12 -67 -20 -42 -14 -47 -18 -38 -34 26 -49 -4 -215 -53 -288 l-25 -38 37 -55 c44 -64 120 -119 165 -119 76 0 146 76 186 201 l23 72 -22 19 c-22 17 -22 18 -3 18 11 0 34 -14 51 -32 30 -31 36 -53 7 -29 -12 11 -17 6 -26 -31 -7 -24 -27 -72 -46 -108 -22 -41 -34 -78 -34 -103 0 -50 -22 -92 -57 -105 -61 -23 -74 -23 -118 -2 -35 17 -54 20 -89 15 -30 -5 -44 -11 -39 -19 3 -6 -8 2 -25 18 -18 17 -32 36 -32 43 0 8 7 6 21 -8 17 -17 28 -19 62 -14 60 9 109 26 105 35 -2 5 -25 23 -53 42 -30 20 -65 57 -90 95 -38 59 -42 62 -81 62 -22 1 -63 8 -90 16 -27 8 -51 15 -53 15 -2 0 -1 -30 2 -68 15 -187 129 -313 327 -363 82 -21 85 -21 167 -4 238 50 342 174 331 394 -3 75 -9 98 -40 164 -71 149 -176 228 -311 233 -40 2 -81 1 -92 -2z"
       id="path52"
       style="fill:#996600" />
    <path
       d="M3302 5488 c-28 -31 -36 -70 -22 -112 17 -53 90 -103 90 -62 0 8 15 36 33 64 32 47 33 51 19 78 -29 58 -82 72 -120 32z"
       id="path54"
       style="fill:#000066" />
    <path
       d="M3544 5456 c-46 -20 -103 -74 -126 -119 -20 -39 -28 -113 -14 -135 17 -28 154 -45 180 -23 39 33 82 245 55 268 -24 20 -63 23 -95 9z"
       id="path56"
       style="fill:#ff6666" />
    <path
       d="M6193 5389 c-174 -29 -327 -150 -384 -303 -39 -104 -28 -253 28 -372 34 -75 38 -76 114 -53 139 43 282 61 554 68 l260 6 -1 80 c-2 103 -29 177 -92 246 -51 57 -127 99 -179 99 -18 0 -33 5 -33 11 0 7 12 9 32 7 25 -4 36 0 54 21 13 14 24 31 24 36 0 6 -19 29 -42 52 -87 83 -215 122 -335 102z"
       id="path58"
       style="fill:#ff0000" />
    <path
       d="M6807 5302 c-26 -34 -70 -86 -98 -116 l-50 -55 40 -51 c69 -87 106 -202 99 -309 l-2 -46 37 -3 37 -3 -1 278 c0 153 -4 298 -7 322 l-7 44 -48 -61z"
       id="path60"
       style="fill:#ccffff" />
    <path
       d="M3163 5200 c-61 -13 -95 -33 -147 -91 -53 -59 -57 -72 -18 -66 15 2 21 2 15 0 -20 -7 -15 -17 20 -37 17 -11 46 -18 62 -17 48 4 137 57 196 117 56 57 52 68 -16 40 -19 -8 -35 -11 -35 -6 0 4 24 17 53 27 51 18 51 18 19 21 -18 2 -56 -2 -84 -8 -74 -15 -71 -4 4 13 63 15 63 15 18 15 -25 0 -64 -4 -87 -8z m-73 -184 c0 -2 -7 -6 -15 -10 -8 -3 -15 -1 -15 4 0 6 7 10 15 10 8 0 15 -2 15 -4z"
       id="path62"
       style="fill:#660000" />
    <path
       d="M2169 5190 c-25 -4 -63 -17 -85 -28 -45 -23 -148 -137 -150 -165 -1 -16 4 -18 35 -12 20 3 44 9 55 12 11 3 16 1 12 -5 -3 -6 -25 -13 -47 -17 -70 -12 -29 -27 63 -23 63 2 95 9 132 28 45 23 181 138 173 146 -2 3 -21 -3 -43 -11 -35 -14 -37 -14 -20 0 11 8 25 15 32 15 7 0 16 5 20 11 8 13 -86 8 -120 -6 -13 -6 -17 -5 -12 3 4 6 34 17 67 24 40 8 54 14 42 19 -35 12 -108 17 -154 9z m-169 -158 c0 -10 -50 -35 -57 -28 -3 2 8 11 24 20 34 18 33 18 33 8z"
       id="path64"
       style="fill:#660000" />
    <path
       d="M5110 5149 c-35 -55 -169 -196 -227 -240 l-32 -24 29 -35 30 -34 45 49 c53 58 166 226 184 272 25 62 8 69 -29 12z"
       id="path66"
       style="fill:#66ccff" />
    <path
       d="M2782 5174 c-72 -13 -75 -14 -135 -80 -106 -116 -122 -143 -48 -85 92 73 178 93 281 67 l64 -17 43 43 c48 47 44 57 -13 33 -52 -22 -54 -12 -2 14 l43 22 -70 -5 -70 -4 50 13 50 13 -60 0 c-33 0 -93 -6 -133 -14z"
       id="path68"
       style="fill:#660000" />
    <path
       d="M1850 5167 c-48 -16 -76 -38 -95 -73 -22 -42 -19 -71 11 -101 37 -37 93 -28 146 24 62 60 122 134 102 126 -12 -5 -15 -3 -9 6 7 13 -6 11 -54 -7 -9 -3 -12 -1 -7 6 4 7 16 12 26 12 10 0 22 5 25 10 9 14 -101 11 -145 -3z m150 -32 c0 -2 -10 -10 -22 -16 -21 -11 -22 -11 -9 4 13 16 31 23 31 12z"
       id="path70"
       style="fill:#660000" />
    <path
       d="M2451 5161 c-38 -16 -204 -150 -196 -159 2 -2 22 6 45 18 23 12 39 17 35 11 -3 -6 -27 -22 -53 -36 -39 -20 -43 -24 -22 -24 14 0 45 4 70 9 61 11 62 5 3 -14 l-48 -16 83 5 c109 6 151 26 237 114 38 39 66 71 62 71 -13 0 -85 -39 -92 -50 -3 -5 -11 -10 -16 -10 -19 0 3 21 54 51 29 17 43 28 32 25 -11 -3 -38 -7 -60 -10 -37 -5 -36 -4 15 13 l55 19 -80 0 c-55 1 -94 -5 -124 -17z"
       id="path72"
       style="fill:#660000" />
    <path
       d="M5148 5082 c-37 -76 -89 -150 -180 -254 l-46 -53 14 -54 c8 -33 26 -67 48 -91 75 -83 52 -210 -44 -250 -52 -21 -162 -3 -274 45 -11 5 15 -33 58 -84 121 -146 129 -161 124 -226 -6 -66 -33 -101 -87 -111 -20 -4 -64 -25 -98 -47 l-63 -41 0 -59 c0 -49 -4 -62 -26 -84 -22 -22 -32 -25 -68 -20 -23 3 -50 9 -59 13 -12 4 -17 1 -17 -12 0 -38 31 -220 46 -275 14 -50 20 -58 46 -63 109 -22 256 35 308 118 11 19 30 75 41 123 37 160 42 175 64 202 12 15 35 79 54 151 64 237 63 235 65 535 1 247 3 286 20 335 34 96 144 180 238 180 16 0 27 4 24 9 -5 8 -144 92 -149 90 -1 0 -19 -35 -39 -77z"
       id="path74"
       style="fill:#993300" />
    <path
       d="M3282 5074 c-35 -30 -62 -54 -60 -54 2 0 25 7 51 15 26 8 45 10 42 5 -3 -5 -21 -12 -40 -16 -52 -9 -54 -25 -3 -19 31 4 38 3 23 -4 -16 -8 -12 -10 23 -10 l43 -1 -7 68 c-4 37 -7 68 -8 68 0 1 -29 -23 -64 -52z"
       id="path76"
       style="fill:#660000" />
    <path
       d="M2740 5037 c-62 -17 -112 -49 -159 -104 -98 -111 -106 -222 -40 -548 52 -260 55 -322 15 -388 -16 -26 -60 -76 -98 -110 -85 -76 -102 -108 -123 -228 -30 -173 -56 -240 -143 -372 -42 -63 -47 -76 -47 -128 0 -47 4 -62 25 -84 39 -42 78 -58 126 -52 91 10 136 75 180 267 30 128 57 170 111 170 49 0 83 -47 103 -145 22 -103 54 -135 115 -115 75 25 94 95 51 191 -47 107 -42 169 16 226 61 59 143 77 231 51 61 -18 142 -98 167 -165 28 -75 41 -254 33 -468 -3 -110 -1 -179 5 -197 16 -40 55 -61 115 -61 68 -1 114 23 134 71 21 49 12 211 -17 347 -16 69 -23 137 -24 220 -1 107 1 125 22 162 37 70 106 92 169 53 42 -25 50 -43 63 -131 20 -142 39 -182 104 -216 36 -19 73 -12 127 24 38 25 43 26 67 12 34 -19 103 -155 136 -273 26 -87 43 -241 66 -567 10 -153 16 -186 38 -211 50 -58 122 22 122 135 0 44 -44 225 -97 394 -23 76 -36 138 -36 173 0 92 43 150 113 150 82 0 116 -50 131 -191 14 -129 24 -157 65 -176 40 -20 73 -9 101 34 15 23 17 43 14 128 -10 220 2 281 61 315 26 14 31 13 77 -12 61 -34 85 -35 123 -3 34 29 46 31 75 10 29 -21 52 -94 57 -189 6 -91 20 -113 79 -123 25 -4 44 -1 62 11 24 16 25 21 25 117 0 148 12 171 142 271 145 110 220 203 247 304 27 102 68 524 51 524 -3 0 -17 -19 -32 -43 -31 -50 -58 -136 -58 -187 0 -20 -6 -45 -14 -56 -14 -18 -16 -18 -61 -2 -82 31 -109 -2 -124 -145 -12 -118 -38 -173 -93 -200 -55 -27 -103 -15 -152 39 -27 30 -48 44 -65 44 -73 1 -103 52 -94 165 6 78 -7 103 -47 90 -28 -9 -46 -52 -64 -153 -37 -205 -136 -301 -321 -310 -96 -4 -166 17 -262 79 -76 50 -95 71 -200 225 -130 189 -171 207 -374 164 -267 -56 -517 20 -702 214 -113 118 -174 218 -222 360 -33 99 -33 168 0 201 26 27 51 31 88 14 35 -16 48 -51 59 -164 12 -125 31 -169 74 -173 38 -4 64 19 64 57 0 15 -18 67 -40 116 -47 106 -50 138 -15 161 23 15 27 15 50 0 17 -11 25 -26 25 -45 0 -16 7 -34 15 -41 27 -22 55 14 55 69 0 54 20 88 61 105 l29 12 -44 34 c-24 19 -88 71 -142 116 -55 44 -117 92 -139 106 -75 47 -165 64 -235 45z"
       id="path78"
       style="fill:#ff9900" />
    <path
       d="M5256 5015 c-139 -49 -185 -169 -166 -430 15 -213 -2 -350 -74 -608 l-24 -88 23 -9 c44 -17 55 -46 48 -130 -7 -89 4 -120 43 -120 34 0 62 -16 106 -62 29 -29 46 -38 70 -38 70 1 107 63 118 195 3 49 12 100 18 112 29 54 96 78 144 52 11 -6 21 -9 24 -7 2 2 8 35 13 73 10 70 49 158 98 223 l24 32 -16 128 c-38 300 -65 422 -116 523 -66 131 -210 198 -333 154z"
       id="path80"
       style="fill:#993300" />
    <path
       d="M3871 4963 c-19 -13 -43 -23 -55 -23 -12 0 -32 -12 -45 -26 -20 -21 -22 -27 -10 -35 22 -14 77 -11 109 6 30 15 44 47 38 82 -3 18 -5 18 -37 -4z"
       id="path82"
       style="fill:#ff6666" />
    <path
       d="M3133 4969 c-18 -5 -33 -11 -33 -13 0 -10 262 -217 286 -227 40 -15 163 -36 254 -43 73 -5 74 -5 35 8 -120 40 -234 129 -274 214 l-23 49 -92 6 c-51 4 -99 8 -107 11 -8 2 -29 0 -46 -5z"
       id="path84"
       style="fill:#660000" />
    <path
       d="M1659 4868 c-104 -113 -159 -185 -159 -207 0 -9 15 -39 34 -67 24 -36 46 -55 75 -66 l40 -16 14 27 c38 77 181 321 185 317 2 -3 -15 -40 -39 -83 -154 -280 -163 -307 -111 -355 68 -65 300 -105 437 -76 l60 13 11 70 c25 165 34 246 34 323 0 48 4 82 10 82 17 0 12 -135 -11 -308 l-22 -162 23 -25 c35 -37 119 -59 202 -53 38 3 70 7 72 9 3 2 -10 67 -26 144 -24 106 -31 167 -32 250 -1 101 1 115 27 170 15 33 35 67 44 77 23 26 12 31 -31 13 -52 -22 -180 -30 -246 -16 -42 9 -71 9 -127 -1 -58 -9 -89 -9 -151 1 -42 6 -104 13 -137 15 -33 1 -67 6 -76 10 -12 5 -38 -18 -100 -86z"
       id="path86"
       style="fill:#990000" />
    <path
       d="M1515 4894 c-88 -32 -175 -156 -194 -276 -21 -129 19 -211 109 -228 46 -8 52 -2 84 97 l17 51 -30 55 c-17 29 -31 62 -31 72 0 21 90 142 144 194 20 19 36 39 36 43 0 13 -92 8 -135 -8z"
       id="path88"
       style="fill:#996600" />
    <path
       d="M4699 4854 c-25 -7 -88 -43 -140 -78 -93 -63 -94 -64 -92 -102 2 -21 14 -62 28 -90 24 -49 30 -54 122 -98 118 -57 232 -90 279 -81 46 8 83 43 93 85 13 60 -3 93 -76 155 -77 65 -94 89 -39 56 20 -13 36 -21 36 -19 -1 21 -32 115 -45 134 -17 27 -71 55 -102 53 -10 0 -39 -7 -64 -15z"
       id="path90"
       style="fill:#66ccff" />
    <path
       d="M5660 4789 c0 -3 11 -49 25 -104 27 -107 59 -349 70 -530 7 -116 -13 -369 -40 -498 -29 -137 -115 -255 -276 -376 -36 -27 -78 -63 -92 -81 -26 -30 -27 -37 -27 -147 l0 -115 -30 -28 c-49 -46 -131 -44 -178 4 -22 21 -26 37 -32 118 -8 98 -30 168 -53 168 -8 0 -22 -9 -31 -19 -31 -34 -71 -36 -131 -6 -30 15 -61 25 -70 21 -9 -3 -23 -23 -32 -43 -13 -31 -14 -63 -8 -188 6 -147 6 -151 -19 -199 l-25 -49 26 -51 c66 -133 176 -265 243 -293 39 -17 240 -23 321 -10 l46 8 6 172 c15 371 71 571 197 697 119 119 266 132 387 33 24 -20 64 -70 90 -111 l48 -76 19 60 c18 52 20 88 20 309 1 246 0 252 -32 403 -19 85 -44 188 -57 230 -46 153 -139 364 -220 497 -44 72 -145 214 -145 204z"
       id="path92"
       style="fill:#993300" />
    <path
       d="M3283 4690 c-30 -12 -43 -41 -43 -93 0 -104 -116 -120 -136 -19 -4 18 -10 32 -15 32 -19 0 -8 -54 26 -127 46 -100 47 -152 5 -195 -26 -26 -36 -30 -66 -25 -69 11 -86 44 -104 192 -6 55 -16 112 -22 127 -13 35 -44 42 -70 16 -17 -17 -19 -28 -14 -70 20 -152 166 -405 246 -427 107 -30 559 -66 682 -54 l66 6 7 86 c4 47 10 118 15 156 8 68 7 71 -23 114 -43 62 -50 146 -15 178 13 13 41 31 62 41 l39 19 -126 -5 c-132 -5 -332 16 -410 44 -45 16 -72 17 -104 4z"
       id="path94"
       style="fill:#993300" />
    <path
       d="M6265 4689 c-113 -8 -303 -48 -368 -77 l-43 -19 77 -159 c42 -87 93 -206 112 -264 66 -199 112 -443 121 -650 3 -63 6 -116 6 -118 0 -2 17 6 38 18 49 27 74 66 118 179 32 83 40 95 71 107 42 18 56 11 108 -57 60 -79 84 -93 165 -97 70 -4 70 -4 109 34 30 31 44 57 64 124 35 113 57 135 137 135 70 0 100 -19 147 -91 60 -94 66 -99 120 -99 39 0 58 6 87 29 66 50 82 131 50 243 -21 71 -11 80 12 11 23 -67 24 -163 3 -204 -15 -29 -15 -34 3 -79 10 -27 28 -61 39 -76 45 -64 161 -61 196 4 48 89 -15 506 -102 677 -32 62 -126 173 -183 215 -113 85 -393 197 -534 215 -93 11 -401 11 -553 -1z"
       id="path96"
       style="fill:#ffccff" />
    <path
       d="M4393 4675 c-17 -8 -72 -20 -123 -26 l-91 -12 6 -31 c14 -71 38 -127 62 -146 28 -22 91 -27 124 -10 23 13 26 32 2 23 -11 -4 -14 -3 -9 5 4 7 30 12 57 12 28 0 59 5 70 11 20 10 20 11 -5 53 -14 23 -30 64 -37 89 -13 52 -11 51 -56 32z"
       id="path98"
       style="fill:#66ccff" />
    <path
       d="M3925 4611 c-80 -38 -99 -60 -92 -108 9 -52 34 -82 104 -123 64 -37 106 -70 99 -78 -3 -2 -21 6 -41 18 -20 12 -37 21 -39 19 -8 -9 56 -146 75 -161 30 -25 64 -22 88 8 11 14 33 69 50 122 17 53 36 106 44 116 12 17 11 24 -9 60 -13 23 -29 67 -35 99 l-12 57 -86 0 c-73 -1 -95 -5 -146 -29z"
       id="path100"
       style="fill:#66ccff" />
    <path
       d="M466 4560 c-28 -5 -82 -25 -122 -45 -78 -38 -108 -71 -175 -190 -32 -57 -34 -65 -34 -155 1 -83 4 -103 29 -157 47 -104 171 -202 274 -219 34 -5 44 -2 71 22 21 19 34 42 38 66 5 35 2 41 -74 120 -95 99 -105 117 -105 178 0 155 187 234 289 122 18 -21 46 -52 62 -69 21 -24 38 -33 60 -33 101 0 131 93 62 193 -91 133 -227 193 -375 167z"
       id="path102"
       style="fill:#996600" />
    <path
       d="M1549 4493 c-73 -184 -124 -387 -155 -612 -36 -270 -46 -430 -34 -579 8 -114 27 -242 35 -250 6 -7 60 27 81 50 12 12 51 82 88 154 80 156 141 230 224 271 50 25 68 28 153 28 86 0 101 -3 154 -30 37 -19 72 -46 92 -73 l33 -44 21 49 c24 56 44 142 54 228 11 94 36 138 133 234 115 112 129 145 110 255 l-13 79 -105 1 c-108 2 -141 11 -192 52 -26 21 -29 21 -90 7 -109 -26 -313 -2 -409 47 -40 21 -78 61 -84 92 -5 20 -18 34 -46 49 l-39 20 -11 -28z"
       id="path104"
       style="fill:#333333" />
    <path
       d="M4498 4482 c-33 -19 -33 -24 -12 -128 45 -231 88 -404 100 -404 7 0 26 11 42 25 33 28 108 64 133 65 25 0 50 35 55 77 4 30 -1 47 -23 80 -50 74 -249 303 -262 303 -3 0 -18 -8 -33 -18z"
       id="path106"
       style="fill:#66ccff" />
    <path
       d="M1205 4460 c-42 -9 -125 -39 -125 -46 0 -3 9 -22 19 -42 11 -21 63 -148 116 -282 54 -135 99 -246 100 -248 2 -2 12 1 23 7 31 16 38 78 13 112 -11 15 -23 38 -26 52 -9 35 18 92 54 113 22 13 34 30 42 59 5 22 18 68 28 102 l18 61 -43 11 c-47 12 -109 60 -119 92 -7 21 -30 23 -100 9z"
       id="path108"
       style="fill:#996600" />
    <path
       d="M4405 4450 c-25 -28 -86 -43 -120 -30 -14 5 -28 10 -31 10 -2 0 -4 -24 -4 -53 0 -29 -7 -104 -16 -167 -9 -68 -14 -157 -12 -217 5 -135 18 -155 109 -165 35 -3 86 -13 113 -22 61 -20 100 -20 116 -2 16 20 6 99 -30 246 -16 63 -40 176 -55 250 -37 192 -36 188 -70 150z"
       id="path110"
       style="fill:#66ccff" />
    <path
       d="M1015 4400 c-16 -4 -48 -16 -70 -27 -38 -20 -40 -23 -37 -60 6 -60 -20 -111 -65 -129 -47 -20 -107 -13 -137 15 -12 12 -27 21 -32 21 -21 0 -94 -88 -119 -143 -30 -69 -31 -88 -6 -111 25 -23 36 -87 21 -118 -21 -39 -62 -77 -91 -83 l-29 -7 0 -87 c0 -256 140 -485 380 -623 25 -14 89 -42 143 -62 l98 -37 52 19 c29 11 87 27 130 36 115 23 116 24 104 89 l-10 54 -104 11 c-130 13 -195 42 -241 105 -37 52 -57 123 -49 178 13 94 101 215 205 279 28 17 53 39 56 48 3 9 19 26 36 37 16 11 30 25 30 30 0 9 -94 253 -174 451 -47 115 -53 123 -91 114z m44 -454 c41 -22 65 -64 65 -118 1 -41 -4 -52 -31 -79 -59 -60 -177 -45 -212 27 -21 42 -18 109 5 135 41 46 120 62 173 35z"
       id="path112"
       style="fill:#996600" />
    <path
       d="M933 3911 c-40 -25 -50 -67 -28 -115 45 -95 207 -58 191 43 -12 77 -95 113 -163 72z"
       id="path114"
       style="fill:#330066" />
    <path
       d="M3896 4329 c-3 -13 -9 -112 -13 -220 l-6 -197 44 -7 c99 -17 145 -57 259 -226 86 -127 129 -170 222 -219 l61 -33 -7 34 c-23 105 -46 247 -46 280 0 42 -10 49 -77 49 -52 0 -103 21 -121 50 -6 11 -17 54 -23 95 -11 71 -7 139 17 340 4 33 0 28 -19 -28 -29 -84 -63 -121 -110 -121 -50 0 -82 26 -111 91 -69 151 -62 140 -70 112z"
       id="path116"
       style="fill:#993300" />
    <path
       d="M485 4314 c-69 -35 -102 -96 -89 -162 6 -29 98 -142 107 -132 2 3 11 26 20 52 15 47 71 138 85 138 4 1 18 10 31 20 22 19 22 22 8 44 -18 27 -74 56 -109 56 -12 0 -36 -7 -53 -16z"
       id="path118"
       style="fill:#993300" />
    <path
       d="M1364 4063 c-13 -30 -13 -41 -3 -62 l12 -26 7 25 c25 91 14 135 -16 63z"
       id="path120"
       style="fill:#330066" />
    <path
       d="M3154 4026 c55 -46 152 -97 231 -123 120 -39 276 -38 428 4 13 3 17 15 17 53 l0 48 -73 -5 c-83 -6 -363 11 -516 33 -58 7 -107 14 -110 14 -3 -1 7 -11 23 -24z"
       id="path122"
       style="fill:#333333" />
    <path
       d="M1300 3801 c-76 -40 -87 -81 -31 -114 42 -24 71 -22 72 6 0 12 4 46 8 75 8 59 5 61 -49 33z"
       id="path124"
       style="fill:#ff6666" />
    <path
       d="M6915 3796 c-13 -13 -29 -43 -35 -67 -40 -154 -93 -209 -202 -209 -93 0 -127 19 -200 118 -21 28 -44 52 -52 52 -23 0 -53 -44 -75 -111 -32 -99 -70 -151 -135 -188 l-56 -32 0 -52 c0 -53 -30 -194 -50 -239 -10 -20 -8 -46 9 -126 23 -112 40 -264 71 -617 21 -229 32 -321 42 -330 3 -3 31 0 64 7 32 6 128 12 212 12 83 0 152 4 152 8 0 20 98 112 145 136 48 26 57 27 195 27 120 -1 159 -5 227 -24 101 -28 167 -70 205 -130 29 -47 55 -59 127 -60 l24 -1 -7 431 c-7 443 -17 695 -37 951 l-12 146 -44 17 c-46 18 -86 61 -104 114 -9 24 -15 30 -28 25 -127 -54 -166 -44 -236 66 -25 39 -57 76 -74 85 -45 23 -98 19 -126 -9z"
       id="path126"
       style="fill:#ff9966" />
    <path
       d="M1153 3681 c-68 -49 -115 -103 -146 -169 -25 -54 -29 -72 -24 -117 14 -135 91 -192 286 -211 l73 -7 -5 39 c-4 21 -9 80 -12 129 l-7 91 -58 11 c-33 6 -73 18 -90 26 -28 15 -30 14 -30 -4 0 -11 -4 -17 -10 -14 -17 10 -12 91 7 106 15 13 16 11 11 -14 -5 -26 -2 -30 39 -48 64 -27 123 -35 134 -18 5 8 9 47 9 87 0 58 -3 72 -15 72 -24 0 -95 39 -102 55 -7 21 -14 19 -60 -14z"
       id="path128"
       style="fill:#ff9933" />
    <path
       d="M2931 3622 c-40 -22 -71 -73 -71 -118 0 -18 14 -64 30 -102 17 -39 30 -86 30 -104 0 -67 -70 -138 -137 -138 l-33 0 1 -157 c1 -87 4 -207 8 -267 l6 -110 60 3 c55 2 65 -1 99 -28 51 -41 71 -39 100 7 l24 39 84 6 c46 4 104 10 130 13 l46 6 -6 60 c-2 33 -13 76 -23 95 -17 33 -18 56 -12 272 8 324 -6 399 -94 483 -21 20 -51 42 -66 47 -45 17 -138 13 -176 -7z"
       id="path130"
       style="fill:#cc6633" />
    <path
       d="M3586 3580 c-14 -17 -28 -47 -32 -67 -11 -59 3 -239 30 -378 33 -169 34 -247 3 -306 -34 -64 -85 -91 -162 -86 -33 2 -68 7 -77 12 -16 6 -18 1 -18 -34 0 -26 5 -41 13 -41 6 0 63 11 125 25 97 22 121 24 169 15 74 -13 68 -15 91 23 17 29 29 36 92 53 l72 18 -6 46 c-4 25 -16 124 -27 220 l-21 175 -39 42 c-21 24 -39 45 -39 48 0 29 -33 211 -40 226 -26 48 -96 53 -134 9z"
       id="path132"
       style="fill:#cc6633" />
    <path
       d="M1833 3511 c-103 -35 -152 -91 -249 -277 -32 -63 -72 -131 -88 -151 -35 -42 -124 -85 -211 -103 -171 -34 -243 -71 -327 -170 -95 -110 -86 -306 19 -417 l33 -36 88 124 88 124 150 6 c82 4 190 7 239 8 l90 2 120 166 c170 235 141 213 287 213 121 1 122 1 95 18 -35 22 -67 87 -67 139 0 55 16 98 63 165 l40 57 -24 36 c-67 99 -217 141 -346 96z"
       id="path134"
       style="fill:#ff9900" />
    <path
       d="M2556 3407 c-17 -17 -30 -52 -46 -123 -30 -135 -36 -155 -71 -208 -24 -35 -45 -53 -90 -74 l-59 -27 0 -86 c0 -47 3 -121 7 -163 6 -77 6 -77 42 -92 48 -20 161 -31 161 -15 0 7 35 11 115 11 l115 0 0 266 0 266 -30 34 c-16 18 -32 51 -35 71 -13 74 -25 111 -46 137 -25 32 -34 32 -63 3z"
       id="path136"
       style="fill:#cc6633" />
    <path
       d="M5715 3301 c-92 -23 -177 -101 -226 -205 -38 -81 -74 -226 -89 -355 -21 -176 0 -937 26 -970 2 -2 30 13 63 33 127 78 264 126 355 126 25 0 46 -4 46 -10 0 -5 -17 -10 -38 -10 -149 0 -414 -134 -489 -245 l-35 -53 54 -64 c30 -35 69 -85 87 -111 l32 -47 30 17 c16 10 76 63 133 120 81 80 112 103 140 109 59 11 134 -1 164 -25 29 -23 51 -34 97 -47 40 -12 64 -64 72 -154 l6 -71 28 27 c16 15 37 48 46 73 26 67 24 263 -4 396 -30 139 -38 209 -78 620 -49 509 -63 581 -146 704 -44 66 -88 107 -134 126 -42 18 -105 25 -140 16z"
       id="path138"
       style="fill:#993300" />
    <path
       d="M3995 3265 c-27 -17 -55 -25 -84 -25 l-44 0 7 -67 c16 -153 47 -345 60 -366 8 -12 24 -52 36 -89 13 -42 27 -68 36 -68 8 0 58 12 110 27 l97 26 -8 115 c-8 136 -31 233 -81 345 -44 97 -62 127 -78 127 -6 0 -29 -12 -51 -25z"
       id="path140"
       style="fill:#cc6633" />
    <path
       d="M4379 3075 c-51 -28 -63 -113 -28 -211 11 -32 42 -142 68 -244 l47 -185 77 -33 c52 -22 104 -36 164 -43 86 -10 223 -4 223 10 0 4 -21 27 -46 51 -51 50 -127 158 -168 238 -25 49 -28 52 -66 52 -93 0 -127 45 -141 187 -13 126 -24 160 -59 178 -35 18 -38 18 -71 0z"
       id="path142"
       style="fill:#993300" />
    <path
       d="M1927 2928 c-30 -38 -155 -208 -214 -293 l-21 -30 51 -87 c29 -47 84 -150 122 -228 l70 -142 80 6 c44 3 124 6 178 6 l98 0 -6 58 c-5 36 -15 65 -28 80 -18 19 -22 43 -31 163 -8 132 -8 142 11 167 18 25 20 39 15 185 l-5 157 -143 0 -143 0 -34 -42z"
       id="path144"
       style="fill:#ff9933" />
    <path
       d="M3828 2763 c-47 -12 -62 -21 -79 -50 l-22 -35 -81 6 c-66 6 -102 3 -196 -18 -108 -23 -201 -38 -331 -51 -48 -5 -58 -10 -73 -36 -32 -54 -89 -57 -143 -7 -20 19 -35 20 -195 21 l-173 1 -7 -55 c-3 -30 -6 -75 -7 -101 -1 -46 -1 -46 41 -60 55 -17 58 -38 11 -63 -35 -19 -38 -23 -35 -60 3 -46 40 -202 53 -227 8 -15 25 -18 114 -18 87 0 110 3 137 20 42 25 74 25 140 -1 59 -23 87 -23 373 8 149 15 150 16 187 51 l37 35 58 -12 c51 -11 69 -10 148 9 123 29 229 60 235 71 8 12 -6 171 -25 285 -22 127 -76 298 -95 301 -8 0 -41 -6 -72 -14z m-11 -179 c3 -9 -8 -45 -25 -80 -36 -72 -38 -97 -17 -168 16 -53 13 -66 -15 -66 -19 0 -29 24 -46 108 -5 24 -22 43 -76 82 -38 28 -68 56 -65 63 8 24 38 18 86 -17 27 -20 51 -36 55 -36 3 0 18 24 32 53 40 80 58 95 71 61z m-272 -64 c11 -17 -14 -39 -57 -51 -34 -9 -39 -13 -34 -32 3 -12 6 -28 6 -36 0 -10 9 -12 36 -7 39 8 66 -6 57 -30 -3 -8 -23 -17 -44 -20 -33 -6 -39 -10 -39 -32 0 -26 -6 -26 87 -5 25 6 43 -21 26 -38 -13 -13 -124 -41 -140 -35 -7 3 -16 23 -19 46 -4 22 -12 40 -19 40 -21 0 -28 33 -11 46 23 16 20 61 -4 74 -11 6 -20 17 -20 24 0 20 47 59 64 53 9 -4 26 -2 38 3 31 12 66 12 73 0z m-240 -20 c11 -18 22 -234 13 -252 -14 -29 -30 -21 -87 47 -30 35 -57 63 -58 61 -2 -2 2 -34 8 -71 11 -56 11 -68 -1 -75 -8 -5 -19 -5 -26 1 -15 12 -58 243 -50 264 9 23 30 18 49 -12 9 -16 40 -53 68 -83 l52 -55 -7 86 c-3 47 -3 89 1 92 10 10 31 8 38 -3z m-340 -32 c41 -18 66 -78 67 -157 1 -107 -21 -151 -74 -151 -42 0 -73 37 -97 115 -25 80 -26 104 -6 150 20 49 62 65 110 43z m-184 -19 c6 -12 9 -39 6 -59 -3 -27 0 -43 11 -54 13 -12 13 -20 4 -38 -6 -13 -13 -45 -14 -73 -3 -42 -6 -50 -23 -50 -16 0 -21 8 -25 46 -5 44 -6 46 -29 38 -21 -8 -23 -13 -16 -54 5 -37 3 -46 -11 -52 -30 -11 -41 23 -48 148 -6 95 -5 124 5 130 24 14 39 -12 39 -67 0 -45 3 -54 18 -54 37 0 44 15 37 74 -5 39 -4 61 5 71 17 20 27 19 41 -6z"
       id="path146"
       style="fill:#ff66cc" />
    <path
       d="M2913 2423 c-36 -14 -15 -160 29 -200 28 -25 38 -4 38 80 0 94 -24 138 -67 120z"
       id="path148"
       style="fill:#ff66cc" />
    <path
       d="M4113 2641 c-50 -15 -95 -30 -99 -33 -3 -4 2 -59 12 -122 16 -95 22 -116 36 -116 9 0 54 12 98 26 l82 25 -7 77 c-10 123 -16 172 -23 171 -4 -1 -48 -13 -99 -28z"
       id="path150"
       style="fill:#663300" />
    <path
       d="M2271 2606 c-20 -24 -3 -251 20 -280 19 -24 65 -39 162 -52 43 -6 47 -4 47 14 0 11 12 29 27 40 l27 20 -31 6 c-29 7 -49 29 -39 45 3 4 6 42 7 86 l2 79 -73 14 c-40 7 -86 20 -101 27 -34 18 -34 18 -48 1z"
       id="path152"
       style="fill:#663300" />
    <path
       d="M1323 2580 l-122 -5 -82 -115 c-45 -63 -104 -151 -130 -194 l-48 -79 49 -96 c27 -53 77 -139 112 -191 l63 -95 85 -7 c112 -8 365 -9 413 -2 36 6 41 13 137 170 55 89 100 167 100 172 0 22 -114 253 -173 350 l-62 102 -110 -2 c-60 -1 -165 -5 -232 -8z"
       id="path154"
       style="fill:#ff9933" />
    <path
       d="M4467 2384 c-4 -4 -7 -19 -7 -33 0 -58 -44 -116 -101 -134 -13 -4 -17 -27 -23 -114 -3 -59 -20 -202 -36 -318 -17 -115 -30 -221 -30 -235 0 -24 0 -24 14 -4 40 57 262 183 361 205 l52 12 6 121 c6 103 41 309 72 412 6 20 2 21 -63 27 -58 5 -147 29 -223 61 -8 4 -18 3 -22 0z"
       id="path156"
       style="fill:#993300" />
    <path
       d="M4147 2355 c-43 -12 -81 -26 -84 -29 -4 -4 -7 -41 -7 -84 l-1 -77 -74 -25 -73 -25 6 -58 c3 -32 9 -193 12 -357 4 -165 10 -300 14 -300 9 0 163 53 231 80 l57 22 6 61 c4 34 20 154 37 267 16 113 29 246 29 297 0 81 -3 96 -24 127 -13 19 -27 56 -30 81 -4 25 -10 45 -14 44 -4 0 -42 -11 -85 -24z"
       id="path158"
       style="fill:#cc6633" />
    <path
       d="M4896 2319 c-33 -5 -64 -13 -68 -17 -11 -11 -39 -114 -33 -120 2 -2 80 1 173 7 94 6 218 11 276 11 l106 0 0 60 0 60 -142 -2 c-79 -2 -168 0 -198 3 -30 4 -82 3 -114 -2z"
       id="path160"
       style="fill:#330033" />
    <path
       d="M2324 2228 c23 -136 30 -174 52 -259 34 -138 77 -255 146 -401 l61 -127 61 -20 c58 -20 191 -52 267 -65 l36 -6 -27 78 c-45 125 -120 456 -120 525 0 23 -3 25 -47 24 -27 -1 -78 -1 -114 1 l-67 2 -15 39 c-9 22 -24 78 -34 126 -15 71 -21 86 -38 89 -11 2 -47 9 -81 15 -86 16 -86 16 -80 -21z"
       id="path162"
       style="fill:#cc6633" />
    <path
       d="M5020 2164 c-14 -2 -68 -6 -121 -9 -52 -4 -101 -10 -108 -14 -16 -10 -51 -216 -51 -302 l0 -69 58 0 c71 0 229 -24 302 -46 30 -9 86 -32 124 -52 l69 -36 16 24 c9 13 30 41 48 62 18 22 30 44 28 51 -7 19 -35 305 -35 353 l0 44 -152 -1 c-84 -1 -164 -3 -178 -5z"
       id="path164"
       style="fill:#330000" />
    <path
       d="M6904 2160 c-67 -14 -131 -49 -174 -96 -22 -24 -40 -48 -40 -53 0 -5 30 -16 67 -25 95 -24 196 -80 246 -136 l41 -46 38 47 c54 68 157 118 261 126 42 3 77 9 77 13 0 9 -40 61 -60 78 -76 63 -340 117 -456 92z"
       id="path166"
       style="fill:#cc3333" />
    <path
       d="M1977 2121 l-49 -6 -103 -167 -103 -166 30 -64 c137 -292 140 -298 162 -293 12 2 38 7 58 10 21 3 41 11 45 18 4 7 10 47 14 89 6 86 21 112 70 122 35 7 109 -16 121 -38 18 -31 40 -46 72 -46 43 0 56 16 56 69 0 26 9 65 19 88 19 41 19 42 -4 115 -12 40 -33 119 -46 175 l-24 103 -135 -2 c-74 0 -157 -4 -183 -7z"
       id="path168"
       style="fill:#ff6600" />
    <path
       d="M3835 2095 c-5 -1 -42 -10 -80 -19 -63 -14 -76 -15 -118 -2 l-47 14 -35 -36 c-32 -34 -38 -37 -104 -40 -62 -4 -71 -7 -71 -24 0 -10 11 -94 25 -186 14 -92 35 -232 46 -312 11 -80 24 -149 28 -153 12 -12 41 3 41 23 0 24 36 67 72 86 41 21 82 12 155 -35 56 -36 63 -38 104 -30 24 4 48 8 53 9 8 0 0 440 -13 615 -5 80 -8 90 -26 92 -11 1 -24 0 -30 -2z"
       id="path170"
       style="fill:#cc6633" />
    <path
       d="M2860 1999 c-19 -12 -36 -23 -38 -24 -13 -12 87 -457 124 -550 30 -75 37 -85 70 -85 30 0 35 28 24 119 -15 114 -19 129 -50 160 -97 97 1 282 135 257 40 -8 90 -47 110 -87 20 -38 19 -119 -1 -148 -18 -25 -16 -67 7 -233 l11 -78 99 0 c96 0 99 1 99 23 0 12 -14 105 -30 207 -16 102 -38 243 -47 314 l-18 128 -50 -6 c-27 -3 -104 -9 -170 -12 -107 -6 -126 -4 -173 15 -64 26 -59 26 -102 0z"
       id="path172"
       style="fill:#cc6633" />
    <path
       d="M6364 1980 c-78 -8 -134 -19 -134 -26 0 -2 10 -46 21 -97 23 -98 31 -289 17 -399 l-8 -56 98 -18 c101 -19 280 -25 345 -11 29 6 37 13 37 29 0 12 10 42 21 66 33 67 136 129 262 156 27 6 27 8 21 59 -8 62 -42 132 -81 168 -117 107 -343 156 -599 129z"
       id="path174"
       style="fill:#cc3333" />
    <path
       d="M7271 1934 c-85 -23 -154 -69 -191 -129 -16 -26 -18 -41 -12 -100 l7 -70 74 -7 c119 -12 240 -82 271 -158 16 -38 41 -43 202 -38 114 3 126 5 156 28 113 89 108 295 -10 380 -67 50 -148 87 -213 99 -81 15 -219 13 -284 -5z"
       id="path176"
       style="fill:#cc3333" />
    <path
       d="M3060 1833 c-28 -10 -59 -46 -70 -79 -15 -43 2 -98 35 -120 28 -18 43 -77 51 -203 8 -111 -7 -213 -42 -291 l-28 -62 -55 7 c-91 11 -319 72 -355 95 -44 27 -58 68 -61 184 -3 85 -6 97 -47 181 -25 50 -53 111 -64 137 -10 27 -22 48 -25 48 -9 0 -19 -54 -19 -101 0 -47 -36 -79 -88 -79 -29 0 -45 8 -78 41 -35 34 -50 42 -83 43 -22 0 -46 -5 -53 -12 -7 -7 -15 -49 -19 -93 -7 -99 -23 -119 -102 -130 -33 -4 -71 -18 -93 -33 -51 -34 -104 -34 -180 1 -51 23 -61 25 -88 14 -89 -36 -116 -31 -151 28 -11 19 -34 49 -51 68 -27 27 -39 33 -74 33 -35 0 -48 -6 -74 -33 -17 -18 -42 -52 -55 -75 -31 -52 -67 -68 -116 -52 -70 23 -96 119 -60 220 8 24 14 45 12 47 -6 5 -139 -43 -193 -70 -61 -31 -77 -60 -59 -104 7 -17 10 -35 6 -41 -3 -5 -47 -26 -97 -45 -186 -72 -254 -123 -254 -192 0 -46 46 -98 100 -114 69 -20 240 -25 429 -11 l179 13 11 39 c12 40 60 101 93 119 13 7 5 -9 -21 -44 -68 -90 -72 -141 -15 -186 39 -30 111 -49 259 -67 205 -26 420 -12 658 42 60 14 67 18 67 40 0 31 62 100 114 125 l41 20 -52 -48 c-118 -110 -97 -163 90 -234 226 -84 530 -140 761 -139 78 1 395 26 401 32 2 2 -2 24 -8 51 -7 34 -7 57 1 83 9 31 8 39 -12 69 -13 18 -29 47 -36 64 -12 30 -14 31 -81 31 l-69 0 -44 68 c-56 86 -71 139 -96 339 l-20 162 20 33 c25 41 25 78 1 126 -27 52 -86 75 -141 55z"
       id="path178"
       style="fill:#ff9900" />
    <path
       d="M1117 1706 c-52 -73 -90 -172 -90 -232 0 -47 27 -87 65 -100 27 -8 64 20 87 65 32 61 84 101 134 101 52 0 102 -29 125 -72 9 -18 29 -44 43 -59 28 -29 46 -30 99 -2 35 18 42 17 126 -17 70 -28 78 -29 108 -16 19 8 37 19 41 26 4 6 -30 91 -74 188 l-82 177 -269 1 -270 2 -43 -62z"
       id="path180"
       style="fill:#ff6600" />
    <path
       d="M4659 1720 c-112 -29 -273 -122 -353 -206 -54 -56 -130 -201 -146 -279 -7 -33 -11 -109 -8 -179 l3 -122 37 -49 c93 -127 206 -195 400 -242 99 -24 333 -24 433 1 140 34 348 161 414 252 54 75 64 118 59 271 -4 123 -7 144 -31 197 -78 170 -230 286 -440 336 -92 22 -313 34 -368 20z"
       id="path182"
       style="fill:#339900" />
    <path
       d="M5795 1594 c-16 -8 -75 -59 -130 -113 -55 -54 -111 -104 -125 -111 -52 -28 3 -20 107 15 102 34 260 113 312 156 23 19 23 20 5 34 -45 35 -122 43 -169 19z"
       id="path184"
       style="fill:#009900" />
    <path
       d="M7003 1590 c-90 -18 -203 -92 -224 -147 -27 -72 4 -149 76 -190 94 -53 298 -73 407 -40 99 30 148 88 148 175 0 84 -76 165 -186 198 -51 15 -153 17 -221 4z"
       id="path186"
       style="fill:#cc3333" />
    <path
       d="M7838 1504 l-37 -55 37 7 c20 4 47 11 60 15 29 11 32 11 32 -1 0 -30 -269 -67 -407 -55 l-83 7 0 -44 c0 -24 -9 -61 -20 -83 -11 -22 -20 -40 -20 -42 0 -1 25 7 57 18 31 10 58 17 61 15 8 -9 -76 -45 -193 -81 -136 -42 -220 -47 -357 -21 -118 23 -191 70 -217 139 -10 26 -13 27 -48 20 -71 -15 -272 -6 -373 16 -51 12 -97 18 -100 13 -3 -4 -18 -21 -33 -38 -27 -30 -27 -30 -10 -65 13 -24 18 -57 18 -114 0 -69 -4 -86 -28 -127 -15 -26 -36 -52 -46 -57 -12 -7 -20 -27 -25 -57 -8 -61 -44 -108 -100 -129 -64 -25 -100 -14 -197 56 -78 56 -245 149 -269 149 -5 0 -10 -7 -10 -15 0 -29 -66 -120 -124 -172 l-57 -51 133 -7 c125 -6 182 -11 553 -51 336 -36 660 20 733 126 34 51 30 108 -10 147 -18 17 -51 40 -73 52 -24 13 -30 19 -15 15 50 -13 86 -32 113 -62 29 -30 29 -30 65 -14 28 12 93 17 272 23 234 7 311 18 379 53 44 23 52 38 39 73 -14 37 -7 57 27 79 22 14 74 19 318 30 364 16 449 35 484 108 14 30 14 36 -2 69 -39 83 -167 129 -446 161 l-45 5 -36 -55z"
       id="path188"
       style="fill:#ff6600" />
    <path
       d="M5944 1502 c-142 -92 -244 -138 -382 -172 -39 -10 -43 -14 -37 -33 3 -12 9 -77 12 -144 3 -68 10 -123 15 -123 23 0 201 -97 274 -150 94 -69 118 -77 167 -57 44 19 67 53 74 109 5 32 15 52 44 80 67 65 77 212 17 275 -16 18 -22 37 -24 92 -3 95 -12 128 -37 146 -33 23 -59 18 -123 -23z"
       id="path190"
       style="fill:#33cc00" />
    <path
       d="M4105 1419 c-55 -21 -133 -46 -173 -55 -40 -10 -69 -21 -65 -24 11 -9 120 -47 168 -59 100 -23 92 -24 106 17 6 20 25 63 41 96 16 32 28 59 26 60 -2 1 -48 -15 -103 -35z"
       id="path192"
       style="fill:#663300" />
    <path
       d="M3580 1392 c-31 -31 -47 -98 -36 -150 7 -27 10 -29 54 -29 26 0 65 -7 87 -15 29 -12 92 -18 215 -23 187 -8 230 -1 230 34 0 15 -10 20 -47 26 -99 14 -227 64 -323 125 -108 69 -137 74 -180 32z"
       id="path194"
       style="fill:#009900" />
    <path
       d="M2575 1380 c-6 -17 -3 -45 12 -123 8 -45 87 -76 301 -117 l94 -17 19 31 c21 35 44 131 34 146 -3 5 -19 10 -35 10 -45 0 -236 38 -326 66 -98 29 -91 29 -99 4z"
       id="path196"
       style="fill:#663300" />
    <path
       d="M3357 1293 l-97 -4 6 -27 c9 -37 41 -100 71 -139 22 -31 28 -33 81 -33 l58 0 17 55 c9 31 17 78 17 105 0 48 -1 50 -27 48 -16 -1 -72 -4 -126 -5z"
       id="path198"
       style="fill:#663300" />
    <path
       d="M3541 1165 c-39 -50 -26 -129 34 -210 20 -27 21 -33 9 -60 -18 -41 -17 -69 5 -123 10 -26 23 -69 27 -96 7 -35 16 -55 35 -69 45 -32 84 -11 223 122 99 94 209 177 258 193 4 2 4 39 -1 82 -5 44 -7 93 -4 110 l5 31 -189 2 c-142 1 -201 6 -243 18 -30 9 -73 19 -96 22 -36 4 -44 1 -63 -22z"
       id="path200"
       style="fill:#33cc00" />
    <path
       d="M4085 847 l-40 -22 64 -3 c35 -2 66 -1 69 2 7 8 -28 46 -42 46 -6 -1 -29 -11 -51 -23z"
       id="path202"
       style="fill:#ff6600" />
  </g>
</svg>
