<?xml version="1.0" encoding="UTF-8" standalone="no"?>
<svg
   xmlns:dc="http://purl.org/dc/elements/1.1/"
   xmlns:cc="http://creativecommons.org/ns#"
   xmlns:rdf="http://www.w3.org/1999/02/22-rdf-syntax-ns#"
   xmlns:svg="http://www.w3.org/2000/svg"
   xmlns="http://www.w3.org/2000/svg"
   xmlns:sodipodi="http://sodipodi.sourceforge.net/DTD/sodipodi-0.dtd"
   xmlns:inkscape="http://www.inkscape.org/namespaces/inkscape"
   version="1.0"
   width="850.000000pt"
   height="850.000000pt"
   viewBox="0 0 850.000000 850.000000"
   preserveAspectRatio="xMidYMid meet"
   id="svg2"
   inkscape:version="0.91 r13725"
   sodipodi:docname="Basic_20170421_284.svg">
  <defs
     id="defs540" />
  <sodipodi:namedview
     pagecolor="#ffffff"
     bordercolor="#666666"
     borderopacity="1"
     objecttolerance="10"
     gridtolerance="10"
     guidetolerance="10"
     inkscape:pageopacity="0"
     inkscape:pageshadow="2"
     inkscape:window-width="1920"
     inkscape:window-height="980"
     id="namedview538"
     showgrid="false"
     inkscape:zoom="1.2564872"
     inkscape:cx="436.7304"
     inkscape:cy="620.55705"
     inkscape:window-x="0"
     inkscape:window-y="1"
     inkscape:window-maximized="1"
     inkscape:current-layer="svg2" />
  <metadata
     id="metadata4">
Created by potrace 1.14, written by Peter Selinger 2001-2017
<rdf:RDF>
  <cc:Work
     rdf:about="">
    <dc:format>image/svg+xml</dc:format>
    <dc:type
       rdf:resource="http://purl.org/dc/dcmitype/StillImage" />
  </cc:Work>
</rdf:RDF>
</metadata>
  <g
     transform="translate(0.000000,850.000000) scale(0.100000,-0.100000)"
     fill="#000000"
     stroke="none"
     id="g6">
    <path
       d="M58 8444 c-10 -10 -10 -386 0 -400 4 -5 50 -32 102 -58 100 -51 208 -132 266 -199 49 -59 34 -57 -21 2 -26 27 -71 68 -100 91 -58 44 -216 130 -241 130 -12 0 -14 -18 -12 -111 l3 -112 80 -22 c88 -25 135 -44 135 -56 0 -4 -19 1 -43 11 -23 10 -65 24 -92 30 -28 6 -58 13 -68 16 -15 5 -17 -3 -17 -78 l0 -83 104 -23 c111 -24 207 -63 272 -113 l41 -31 39 20 c22 11 49 34 62 51 20 27 29 31 70 32 133 1 160 4 180 22 13 12 32 17 53 15 32 -3 43 -14 85 -84 18 -30 61 -5 70 41 12 67 -5 177 -43 266 -73 175 -74 182 -74 336 l1 141 -40 86 -39 86 -96 0 c-110 0 -107 5 -57 -95 43 -86 81 -214 96 -324 21 -149 30 -347 17 -356 -7 -4 -11 14 -12 52 -1 32 -2 69 -4 83 -1 14 -5 73 -9 132 -8 159 -28 234 -104 406 l-45 102 -181 0 c-99 0 -176 -4 -171 -8 6 -5 37 -26 70 -47 33 -21 88 -67 123 -101 84 -84 118 -158 131 -284 16 -149 19 -202 11 -193 -5 4 -13 63 -20 131 -14 147 -29 204 -73 269 -39 55 -139 142 -223 193 -51 31 -68 35 -139 38 -44 2 -83 0 -87 -4z"
       id="path8"
       style="fill:#cc00ff" />
    <path
       d="M876 8442 c-2 -4 9 -30 26 -57 26 -41 32 -46 40 -32 11 21 4 47 -23 75 -21 23 -34 27 -43 14z"
       id="path10"
       style="fill:none" />
    <path
       d="M965 8440 c3 -5 11 -10 16 -10 6 0 7 5 4 10 -3 6 -11 10 -16 10 -6 0 -7 -4 -4 -10z"
       id="path12"
       style="fill:none" />
    <path
       d="M986 8355 l-50 -94 0 -143 -1 -143 47 -103 c57 -125 72 -196 66 -307 -5 -74 -3 -86 13 -101 11 -10 19 -30 19 -49 0 -47 38 -186 56 -206 9 -10 35 -20 57 -24 23 -4 51 -9 62 -12 15 -5 11 4 -18 36 -20 22 -37 47 -37 55 0 7 13 60 30 117 36 125 46 190 32 215 -6 10 -30 40 -55 66 -39 42 -45 54 -51 106 -8 72 6 139 42 206 33 62 187 219 266 272 33 22 63 46 67 54 4 8 21 45 38 83 l30 67 -189 0 -188 0 -26 -45 c-36 -66 -74 -163 -92 -241 -17 -76 -21 -311 -6 -401 5 -29 6 -53 2 -53 -10 0 -18 57 -26 186 -12 196 21 357 102 503 13 24 24 45 24 47 0 2 -37 4 -82 4 l-83 0 -49 -95z"
       id="path14"
       style="fill:#cc00ff" />
    <path
       d="M1602 8417 c-21 -37 -46 -106 -40 -112 2 -2 28 2 58 11 149 40 338 26 496 -37 87 -34 87 -34 74 -11 -6 9 -26 53 -44 97 l-33 80 -245 3 -246 2 -20 -33z"
       id="path16"
       style="fill:none" />
    <path
       d="M2164 8423 c13 -57 112 -239 151 -278 45 -45 121 -75 250 -99 101 -18 136 -33 208 -89 l58 -45 51 25 c44 21 60 24 122 19 39 -3 82 -6 96 -6 14 0 46 -10 72 -22 43 -19 52 -20 90 -9 116 35 255 127 290 193 13 24 16 45 12 87 -6 52 -3 61 40 141 25 47 46 91 46 98 0 10 -20 12 -82 10 l-81 -3 -41 -80 c-44 -86 -203 -342 -219 -352 -13 -8 4 21 95 171 112 182 143 247 126 257 -16 11 -289 12 -304 1 -16 -10 -114 -314 -114 -352 0 -18 -4 -29 -10 -25 -18 11 -10 48 44 212 30 89 51 164 48 167 -10 10 -392 7 -392 -3 0 -22 30 -149 45 -191 9 -25 29 -71 46 -102 16 -32 25 -58 21 -58 -12 0 -66 103 -86 166 -9 29 -23 83 -29 120 l-13 69 -142 3 c-79 1 -150 -1 -158 -6 -13 -7 -9 -19 22 -77 20 -38 55 -94 78 -125 56 -73 65 -90 32 -60 -36 32 -110 145 -138 207 -11 26 -26 51 -32 55 -6 4 -55 8 -110 8 l-98 0 6 -27z"
       id="path18"
       style="fill:#cc66ff" />
    <path
       d="M3650 8348 c-45 -91 -64 -168 -42 -168 4 0 27 30 52 66 25 36 64 92 88 124 24 33 41 64 37 70 -3 5 -24 10 -46 10 l-40 0 -49 -102z"
       id="path20"
       style="fill:none" />
    <path
       d="M3849 8418 c-23 -18 -74 -78 -113 -133 -39 -54 -116 -145 -171 -201 -90 -92 -110 -107 -200 -151 -111 -53 -117 -63 -95 -136 9 -32 9 -42 -4 -55 -13 -15 -13 -20 0 -36 21 -29 17 -57 -13 -88 -32 -33 -24 -47 46 -83 145 -74 303 -233 406 -407 33 -57 72 -109 94 -125 20 -15 72 -61 116 -101 130 -120 230 -163 411 -178 74 -6 87 -4 135 18 65 30 156 119 190 185 18 37 24 64 24 114 0 58 -6 78 -48 166 l-49 101 48 89 48 89 -13 55 c-11 49 -11 62 10 139 12 47 22 112 23 146 1 64 -4 73 -83 176 -16 21 -36 67 -45 105 -28 112 -81 210 -152 281 l-62 62 -230 0 -230 0 -43 -32z m303 -103 c93 -25 158 -58 216 -110 29 -26 51 -50 48 -53 -3 -2 -27 15 -53 38 -117 103 -295 148 -399 101 -68 -31 -133 -107 -208 -245 -73 -134 -120 -187 -206 -235 -59 -33 -41 -9 29 39 74 49 105 89 170 217 65 127 122 192 203 232 70 35 112 38 200 16z m206 -385 c41 -18 157 -118 148 -128 -3 -2 -29 17 -58 43 -66 59 -113 83 -180 91 -70 8 -139 -10 -314 -82 -145 -59 -225 -86 -232 -79 -3 3 4 8 14 11 10 4 96 37 189 74 173 69 220 85 265 93 41 8 122 -4 168 -23z m-798 -380 c148 -100 241 -191 366 -356 153 -203 251 -276 444 -333 l35 -11 -46 4 c-25 2 -73 16 -107 31 -126 56 -216 137 -352 315 -109 144 -216 247 -348 334 -56 37 -102 70 -102 72 0 9 56 -19 110 -56z m575 -86 c107 -35 176 -76 260 -156 76 -72 163 -183 152 -194 -2 -2 -16 14 -31 36 -41 63 -162 185 -217 221 -68 43 -161 79 -311 120 -71 19 -128 37 -128 41 0 7 184 -39 275 -68z"
       id="path22"
       style="fill:#cc66ff" />
    <path
       d="M4420 8445 c0 -2 19 -22 43 -44 30 -29 51 -41 72 -41 65 0 265 61 265 81 0 5 -80 9 -190 9 -104 0 -190 -2 -190 -5z"
       id="path24"
       style="fill:#66cc00" />
    <path
       d="M4860 8435 c-19 -7 -75 -30 -124 -50 -58 -24 -112 -39 -153 -43 -35 -2 -63 -8 -63 -13 0 -14 70 -136 84 -148 18 -15 152 27 226 71 49 30 57 40 77 93 38 104 30 120 -47 90z"
       id="path26"
       style="fill:#66cc00" />
    <path
       d="M4977 8442 c-3 -4 -13 -36 -22 -71 -40 -155 -132 -280 -239 -327 l-64 -28 36 -44 37 -45 0 -101 c0 -68 -5 -113 -15 -136 -14 -32 -18 -132 -7 -185 5 -27 -16 -86 -47 -132 -32 -47 -32 -69 -2 -135 85 -183 84 -249 -4 -378 -85 -126 -168 -174 -300 -174 -198 1 -325 56 -489 213 -35 33 -65 61 -66 61 -1 0 -2 -31 -2 -68 -1 -82 -35 -221 -69 -279 -40 -69 -129 -158 -191 -190 -133 -71 -223 -79 -344 -31 l-79 31 -26 -24 c-41 -38 -44 -52 -35 -129 5 -39 11 -74 14 -76 2 -2 28 7 58 20 95 44 174 59 279 54 106 -5 178 -31 280 -99 67 -44 168 -150 201 -210 l24 -44 -18 -85 c-25 -116 -19 -138 53 -201 l59 -51 -2 -77 c-1 -55 4 -87 16 -114 l18 -39 137 134 c212 206 252 236 582 438 221 135 230 142 255 174 31 41 81 143 139 283 25 62 86 195 135 295 48 101 91 191 94 200 5 14 -7 23 -53 44 -62 28 -67 33 -49 51 8 8 -3 19 -39 39 -57 32 -81 62 -57 69 49 16 47 13 29 40 -22 33 -12 55 25 55 41 0 48 17 20 46 -15 16 -22 35 -21 55 2 21 -8 43 -34 77 l-35 47 22 18 22 17 -52 55 c-53 56 -60 70 -38 78 8 3 5 12 -10 29 -59 63 -14 73 158 34 248 -57 476 -151 724 -301 72 -43 167 -96 213 -117 237 -112 474 -377 546 -610 3 -9 45 -46 95 -83 140 -103 300 -288 304 -353 2 -22 -6 -31 -48 -54 -53 -29 -192 -82 -315 -120 -67 -21 -75 -26 -78 -50 -3 -22 6 -34 46 -65 27 -21 64 -46 81 -55 17 -9 31 -22 31 -27 0 -17 -47 -24 -108 -17 l-57 6 55 -50 c45 -41 52 -52 40 -60 -8 -6 -32 -9 -52 -8 -22 2 -38 -1 -38 -7 0 -5 16 -35 35 -65 19 -30 35 -58 35 -62 0 -4 -11 -8 -25 -8 -25 0 -25 0 15 -62 22 -33 40 -67 40 -75 0 -16 -24 -17 -52 -2 -11 6 -21 9 -23 7 -1 -2 6 -52 17 -113 17 -94 20 -158 22 -445 l1 -335 -43 -111 c-51 -136 -155 -365 -218 -482 -57 -106 -139 -223 -218 -309 l-59 -64 24 -16 c13 -8 64 -56 112 -105 48 -50 89 -89 90 -87 1 2 25 51 54 109 29 58 81 142 115 186 184 239 218 281 239 301 31 28 90 53 128 53 16 0 32 3 35 8 2 4 -2 32 -10 62 -19 72 -18 207 2 284 40 155 168 283 341 340 43 14 152 39 242 55 89 17 169 35 177 41 22 19 34 2 34 -46 0 -56 24 -129 90 -269 70 -149 90 -208 90 -272 0 -67 -24 -186 -54 -269 -25 -68 -110 -211 -163 -273 -18 -21 -29 -41 -26 -45 3 -3 23 -6 44 -6 32 0 41 -5 54 -29 8 -16 40 -64 71 -108 83 -115 103 -167 104 -279 l0 -41 63 -7 c74 -9 212 -53 298 -96 33 -17 64 -28 68 -25 3 4 6 1231 6 2728 l0 2722 -1737 3 c-955 1 -1739 -1 -1741 -6z"
       id="path28"
       style="fill:none" />
    <path
       d="M1660 8284 c-117 -25 -184 -66 -306 -188 -137 -137 -159 -178 -159 -288 l1 -78 46 -46 c79 -78 84 -126 28 -301 -17 -51 -30 -100 -30 -107 0 -8 25 -38 56 -68 31 -29 67 -76 80 -105 27 -57 82 -111 144 -143 87 -45 261 -42 427 6 121 35 157 56 253 148 157 150 270 225 386 254 l69 17 42 70 c23 39 66 94 95 124 33 35 47 56 39 59 -39 13 -51 41 -51 117 0 64 3 77 20 87 28 18 25 29 -17 69 -79 75 -102 86 -230 112 -143 29 -207 56 -319 137 -114 81 -153 99 -258 121 -106 22 -224 23 -316 3z m335 -189 c91 -31 315 -134 315 -146 0 -4 -47 14 -104 41 -260 123 -404 151 -591 115 -149 -28 -207 -70 -266 -191 -12 -25 -24 -43 -27 -39 -12 11 62 137 100 170 37 31 119 65 188 79 14 2 88 3 165 1 120 -2 151 -7 220 -30z m140 -196 c28 -6 44 -14 37 -17 -7 -2 -34 1 -60 8 -25 6 -119 11 -211 11 -140 1 -175 -3 -221 -19 -93 -33 -143 -62 -183 -105 -35 -39 -37 -40 -23 -11 26 54 121 113 224 139 69 17 359 14 437 -6z m124 -45 c11 -11 -7 -10 -34 3 l-30 14 30 -6 c16 -4 32 -9 34 -11z m61 -24 c0 -5 -7 -7 -15 -4 -8 4 -15 8 -15 10 0 2 7 4 15 4 8 0 15 -4 15 -10z m-85 -214 c-109 -31 -156 -53 -282 -134 -141 -89 -180 -104 -273 -105 -78 0 -214 19 -240 34 -21 12 -6 11 90 -6 167 -29 247 -16 365 59 172 110 319 176 390 175 20 0 2 -8 -50 -23z m275 -96 c0 -5 -8 -10 -17 -10 -15 0 -16 2 -3 10 19 12 20 12 20 0z m-60 -20 c-20 -13 -33 -13 -25 0 3 6 14 10 23 10 15 0 15 -2 2 -10z m-97 -35 c-63 -29 -132 -95 -173 -168 -47 -83 -106 -145 -174 -180 -57 -30 -67 -32 -167 -32 -104 0 -107 1 -191 42 -83 41 -179 115 -167 127 4 4 33 -16 65 -44 124 -106 294 -142 427 -91 79 31 116 66 192 181 75 114 163 189 220 189 11 0 -3 -11 -32 -24z"
       id="path30"
       style="fill:#cc66ff" />
    <path
       d="M4780 8199 c-36 -15 -91 -35 -122 -44 -60 -16 -66 -24 -48 -69 6 -17 17 -26 32 -26 53 0 166 78 201 139 22 37 20 37 -63 0z"
       id="path32"
       style="fill:#66cc00" />
    <path
       d="M2930 7931 c0 -5 7 -14 15 -21 13 -10 15 -9 15 9 0 12 -6 21 -15 21 -8 0 -15 -4 -15 -9z"
       id="path34"
       style="fill:#ffff00" />
    <path
       d="M3001 7926 c-15 -17 -5 -44 20 -51 24 -8 39 1 39 24 0 35 -38 53 -59 27z"
       id="path36"
       style="fill:#ffff00" />
    <path
       d="M3102 7908 c-18 -18 -15 -46 6 -57 26 -14 44 2 40 35 -3 31 -26 42 -46 22z"
       id="path38"
       style="fill:#ffff00" />
    <path
       d="M2863 7895 c-26 -20 -5 -49 37 -53 41 -4 54 8 35 35 -19 27 -49 34 -72 18z"
       id="path40"
       style="fill:#ffff00" />
    <path
       d="M3181 7868 c-10 -27 0 -33 28 -18 12 6 18 16 15 25 -9 22 -34 18 -43 -7z"
       id="path42"
       style="fill:#ffff00" />
    <path
       d="M2980 7835 c-19 -23 -8 -50 20 -50 16 0 26 6 28 18 4 18 -14 47 -28 47 -4 0 -13 -7 -20 -15z"
       id="path44"
       style="fill:#ffff00" />
    <path
       d="M3056 7831 c-3 -4 1 -17 9 -27 13 -16 16 -17 24 -4 7 9 6 19 -1 27 -12 15 -25 17 -32 4z"
       id="path46"
       style="fill:#ffff00" />
    <path
       d="M2817 7819 c-20 -11 -23 -55 -4 -62 19 -7 47 12 47 32 0 27 -21 42 -43 30z"
       id="path48"
       style="fill:#ffff00" />
    <path
       d="M3200 7810 c-13 -8 -12 -13 7 -32 18 -17 25 -20 35 -10 17 17 -20 55 -42 42z"
       id="path50"
       style="fill:#ffff00" />
    <path
       d="M3120 7794 c-18 -21 13 -64 45 -64 29 0 31 11 9 45 -20 30 -40 37 -54 19z"
       id="path52"
       style="fill:#ffff00" />
    <path
       d="M2885 7769 c-8 -34 1 -51 15 -29 12 19 13 47 1 54 -5 4 -12 -8 -16 -25z"
       id="path54"
       style="fill:#ffff00" />
    <path
       d="M3034 7755 c-10 -8 -14 -15 -7 -15 19 0 43 11 43 21 0 13 -14 11 -36 -6z"
       id="path56"
       style="fill:#ffff00" />
    <path
       d="M2927 7726 c-3 -8 3 -22 14 -32 24 -21 54 -9 54 22 0 24 -59 33 -68 10z"
       id="path58"
       style="fill:#ffff00" />
    <path
       d="M2811 7721 c-8 -5 -11 -16 -8 -25 7 -17 27 -22 27 -7 0 5 3 16 6 25 7 18 -4 20 -25 7z"
       id="path60"
       style="fill:#ffff00" />
    <path
       d="M3051 7716 c-21 -26 -9 -51 24 -51 27 0 30 3 30 30 0 23 -5 31 -21 33 -11 2 -26 -4 -33 -12z"
       id="path62"
       style="fill:#ffff00" />
    <path
       d="M3192 7697 c-9 -10 -7 -19 4 -35 21 -30 54 -29 54 1 0 40 -36 61 -58 34z"
       id="path64"
       style="fill:#ffff00" />
    <path
       d="M3140 7676 c0 -24 12 -41 22 -30 8 7 -3 54 -13 54 -5 0 -9 -11 -9 -24z"
       id="path66"
       style="fill:#ffff00" />
    <path
       d="M2860 7670 c0 -24 37 -63 50 -55 17 11 11 54 -9 65 -29 15 -41 12 -41 -10z"
       id="path68"
       style="fill:#ffff00" />
    <path
       d="M2944 7616 c-6 -26 1 -46 17 -46 5 0 9 16 9 35 0 40 -17 47 -26 11z"
       id="path70"
       style="fill:#ffff00" />
    <path
       d="M3000 7626 c-17 -21 8 -70 38 -74 23 -4 52 13 52 30 0 14 -48 58 -63 58 -8 0 -20 -7 -27 -14z"
       id="path72"
       style="fill:#ffff00" />
    <path
       d="M3132 7612 c-19 -13 -4 -39 28 -51 40 -13 61 10 35 39 -19 21 -41 25 -63 12z"
       id="path74"
       style="fill:#ffff00" />
    <path
       d="M2823 7579 c-42 -27 -129 -168 -168 -271 -19 -52 -51 -88 -167 -190 -92 -82 -128 -145 -136 -243 -6 -76 2 -81 55 -35 42 37 93 38 205 4 28 -8 45 33 93 222 48 190 83 275 137 337 46 51 57 47 15 -5 -70 -89 -90 -139 -146 -374 -16 -67 -37 -138 -46 -158 -10 -20 -16 -38 -14 -39 56 -37 139 -110 218 -192 78 -81 103 -115 120 -159 12 -31 21 -61 21 -66 0 -15 7 -12 52 20 22 17 46 30 52 30 6 0 43 -13 81 -29 108 -45 131 -47 222 -16 106 37 154 67 213 133 82 92 143 278 126 385 -21 130 -172 356 -316 474 -144 118 -223 144 -390 127 -50 -5 -63 -2 -124 30 -38 20 -69 36 -70 36 -1 0 -15 -10 -33 -21z m502 -200 c62 -47 135 -120 163 -164 139 -218 155 -408 50 -558 -31 -43 -33 -24 -3 23 40 63 55 115 55 190 0 176 -126 401 -281 502 -27 17 -49 33 -49 35 0 11 31 -2 65 -28z m-315 -40 c-44 -84 -70 -169 -70 -223 0 -29 9 -105 20 -167 24 -135 27 -240 4 -124 -32 157 -44 291 -33 351 10 56 85 221 95 211 3 -3 -4 -24 -16 -48z m242 -91 c71 -106 104 -174 123 -245 17 -66 20 -186 5 -262 -11 -60 -47 -147 -56 -138 -4 4 3 28 14 55 12 26 26 87 33 134 11 73 10 97 -3 166 -17 88 -68 198 -136 298 -39 57 -48 74 -38 74 2 0 28 -37 58 -82z"
       id="path76"
       style="fill:#cc66ff" />
    <path
       d="M5160 7597 c0 -2 30 -28 67 -57 70 -57 72 -75 4 -40 -67 34 -47 10 57 -68 160 -120 175 -135 95 -100 -58 26 -145 49 -153 42 -7 -8 64 -67 129 -104 159 -93 166 -114 22 -60 -45 16 -85 30 -88 30 -16 0 36 -44 81 -69 28 -15 77 -43 109 -61 32 -18 56 -34 54 -37 -3 -2 -51 7 -108 21 -109 27 -149 32 -149 17 0 -5 7 -14 15 -21 22 -18 18 -37 -7 -44 -20 -6 -14 -11 40 -36 63 -29 76 -45 45 -53 -13 -2 -8 -8 19 -22 20 -10 39 -23 42 -30 2 -6 -39 -96 -92 -201 -52 -104 -121 -250 -152 -324 -31 -74 -82 -194 -113 -267 -32 -72 -54 -138 -51 -146 3 -8 1 -18 -5 -22 -16 -9 -13 -25 4 -25 9 0 12 -6 8 -17 -4 -11 -3 -14 5 -9 18 11 15 -5 -8 -41 -20 -33 -13 -46 10 -18 17 21 30 19 30 -5 0 -12 7 -20 16 -20 12 0 14 -7 9 -29 -7 -33 8 -49 31 -30 21 17 30 2 11 -19 -19 -20 -13 -32 14 -32 26 0 129 -52 129 -65 0 -6 20 -16 45 -23 25 -7 45 -16 45 -22 0 -5 8 -10 18 -10 10 0 29 -11 42 -25 13 -14 29 -25 36 -25 7 0 25 -5 41 -11 20 -7 24 -12 14 -18 -9 -6 0 -11 27 -16 26 -4 54 -19 76 -40 26 -24 52 -37 93 -45 32 -6 78 -16 103 -21 57 -12 180 -60 180 -70 0 -5 17 -11 38 -15 49 -9 201 -86 229 -116 12 -12 37 -38 57 -56 44 -41 62 -114 46 -186 -14 -65 -69 -171 -129 -250 -42 -55 -47 -66 -31 -66 29 0 25 -30 -10 -70 -16 -19 -29 -38 -30 -41 0 -3 23 -4 50 -1 l50 5 0 -35 c0 -37 -30 -90 -83 -145 l-31 -33 32 0 c26 0 30 -3 25 -17 -11 -32 -95 -154 -109 -160 -27 -10 -13 -21 16 -13 61 17 30 -18 -67 -78 -54 -33 -116 -76 -138 -95 l-40 -35 48 5 c49 6 53 3 38 -26 -50 -92 -914 -528 -1471 -741 -107 -41 -233 -76 -325 -90 -114 -17 -792 -257 -892 -316 -47 -27 -640 -617 -625 -622 18 -6 313 98 433 153 68 31 207 99 307 150 l184 94 126 11 c70 5 217 14 327 20 270 14 371 26 495 55 194 47 395 128 690 278 216 110 293 156 484 287 68 46 300 231 418 332 147 126 217 206 297 336 109 181 271 543 299 672 31 138 18 692 -18 749 -6 10 -12 10 -30 1 -19 -10 -29 -7 -76 24 -55 37 -70 43 -59 26 8 -12 15 -70 9 -70 -3 0 -17 8 -32 18 -15 10 -36 23 -47 28 -11 6 -50 55 -87 110 -70 103 -109 200 -122 309 -3 27 -15 66 -26 87 l-20 38 25 0 c29 0 31 11 9 71 -9 24 -17 71 -18 104 -5 107 -100 257 -199 313 -28 16 -72 47 -97 69 -85 74 -107 86 -140 74 -17 -5 -41 -6 -58 -2 -19 6 -40 4 -62 -5 -40 -17 -51 -11 -18 9 12 8 58 17 101 20 66 5 84 10 113 34 20 15 62 47 95 71 58 40 63 42 135 42 58 0 84 -5 117 -22 24 -12 62 -23 89 -23 44 -2 47 0 42 19 -8 32 61 61 126 52 40 -5 50 -3 58 11 8 13 22 16 72 14 l63 -3 -7 34 c-11 56 -73 137 -205 269 -118 118 -133 129 -241 183 -126 63 -153 79 -251 142 -178 115 -462 233 -682 284 -87 20 -107 23 -107 17z m450 -1152 c-7 -9 -15 -13 -17 -11 -7 7 7 26 19 26 6 0 6 -6 -2 -15z m-190 -330 c0 -8 -4 -15 -10 -15 -5 0 -10 7 -10 15 0 8 5 15 10 15 6 0 10 -7 10 -15z m30 -67 c0 -19 -2 -20 -10 -8 -13 19 -13 30 0 30 6 0 10 -10 10 -22z m50 -87 c0 -21 -16 -2 -24 29 -7 24 -6 24 8 6 9 -11 16 -27 16 -35z m45 -49 c-6 -7 -34 29 -34 43 0 6 9 -1 20 -14 11 -13 17 -26 14 -29z m60 -53 c11 -17 -1 -21 -15 -4 -8 9 -8 15 -2 15 6 0 14 -5 17 -11z m75 -72 c0 -6 -9 -2 -20 8 -11 10 -20 23 -20 28 0 6 9 2 20 -8 11 -10 20 -23 20 -28z m76 -55 c-7 -6 -45 39 -45 53 0 6 11 -3 25 -19 14 -15 23 -31 20 -34z m53 -12 c12 -18 13 -22 2 -19 -8 3 -21 16 -30 29 -12 18 -13 22 -2 19 8 -3 21 -16 30 -29z m61 -35 c7 -8 8 -15 2 -15 -5 0 -15 7 -22 15 -7 8 -8 15 -2 15 5 0 15 -7 22 -15z m69 -26 c13 -11 21 -22 19 -25 -3 -3 -19 6 -34 20 -34 30 -20 35 15 5z"
       id="path78"
       style="fill:#33cc66" />
    <path
       d="M54 7565 c-3 -7 -4 -30 -2 -50 3 -36 5 -38 68 -62 90 -33 100 -49 13 -19 -39 13 -74 22 -77 18 -9 -8 -7 -145 2 -157 4 -6 41 -21 82 -34 77 -24 135 -50 128 -56 -2 -2 -48 11 -102 30 -55 19 -103 32 -108 29 -4 -3 -8 -68 -8 -146 l0 -140 36 21 c51 30 55 18 5 -15 l-41 -27 0 -115 0 -115 56 62 c66 73 121 112 195 140 62 24 59 23 59 13 0 -4 -22 -15 -49 -25 -69 -24 -160 -95 -215 -165 l-46 -60 0 -141 c0 -78 3 -141 8 -141 4 0 46 52 95 114 167 218 216 259 330 277 34 5 70 12 79 15 16 5 78 92 78 110 0 5 -13 15 -29 21 -16 6 -37 23 -47 39 -10 16 -34 47 -54 70 -19 22 -42 49 -52 60 -9 10 -27 27 -41 36 -39 27 -44 70 -13 110 13 18 32 54 41 80 14 44 14 50 0 72 -37 56 -179 125 -309 149 -63 12 -78 12 -82 2z m217 -175 c31 -25 13 -26 -26 0 -20 13 -24 20 -14 20 9 0 27 -9 40 -20z"
       id="path80"
       style="fill:#cc00ff" />
    <path
       d="M844 7552 c-16 -11 -34 -48 -34 -72 0 -24 42 -70 64 -70 45 0 64 92 26 130 -21 21 -38 25 -56 12z"
       id="path82"
       style="fill:#ffcc00" />
    <path
       d="M595 7500 c-15 -16 -17 -26 -9 -48 12 -34 46 -40 73 -13 26 26 26 36 1 61 -25 25 -42 25 -65 0z"
       id="path84"
       style="fill:#ffcc00" />
    <path
       d="M700 7504 c0 -23 19 -54 34 -54 20 0 49 37 43 55 -9 21 -77 21 -77 -1z"
       id="path86"
       style="fill:#ffcc00" />
    <path
       d="M970 7431 c-17 -43 -10 -65 23 -69 40 -5 70 24 62 57 -13 50 -66 57 -85 12z"
       id="path88"
       style="fill:#ffcc00" />
    <path
       d="M502 7428 c-17 -17 -15 -44 4 -62 23 -24 53 -20 66 9 9 21 8 28 -7 45 -20 23 -45 26 -63 8z"
       id="path90"
       style="fill:#ffcc00" />
    <path
       d="M770 7432 c0 -15 40 -52 56 -52 12 0 11 6 -6 30 -20 28 -50 41 -50 22z"
       id="path92"
       style="fill:#ffcc00" />
    <path
       d="M672 7408 c-19 -19 -14 -53 13 -78 23 -22 26 -22 49 -7 13 9 28 26 32 39 12 40 -63 77 -94 46z"
       id="path94"
       style="fill:#ffcc00" />
    <path
       d="M892 7389 c-33 -13 -24 -41 17 -51 42 -11 47 -6 31 32 -14 33 -14 33 -48 19z"
       id="path96"
       style="fill:#ffcc00" />
    <path
       d="M599 7363 c-12 -32 -5 -53 16 -53 20 0 29 23 21 55 -8 33 -24 32 -37 -2z"
       id="path98"
       style="fill:#ffcc00" />
    <path
       d="M776 7322 c-19 -36 -5 -62 33 -62 38 0 66 32 52 58 -21 40 -65 42 -85 4z"
       id="path100"
       style="fill:#ffcc00" />
    <path
       d="M462 7318 c2 -13 10 -23 18 -23 8 0 16 10 18 23 3 17 -2 22 -18 22 -16 0 -21 -5 -18 -22z"
       id="path102"
       style="fill:#ffcc00" />
    <path
       d="M1008 7328 c-26 -9 -27 -10 -12 -34 18 -27 41 -31 68 -11 13 10 16 20 12 35 -8 24 -25 26 -68 10z"
       id="path104"
       style="fill:#ffcc00" />
    <path
       d="M2584 7330 c-105 -23 -381 -233 -358 -272 4 -7 26 -36 48 -65 l40 -52 35 64 c40 72 65 101 172 196 72 65 117 123 102 132 -5 2 -22 1 -39 -3z"
       id="path106"
       style="fill:none" />
    <path
       d="M532 7298 c-19 -19 -14 -63 9 -84 18 -17 23 -17 46 -4 37 21 38 33 4 69 -32 34 -41 37 -59 19z"
       id="path108"
       style="fill:#ffcc00" />
    <path
       d="M904 7302 c-12 -7 -38 -53 -32 -55 2 -1 17 -12 35 -25 38 -26 37 -26 57 -6 40 40 -13 117 -60 86z"
       id="path110"
       style="fill:#ffcc00" />
    <path
       d="M645 7290 c-10 -16 4 -30 30 -30 29 0 43 19 24 31 -19 12 -46 11 -54 -1z"
       id="path112"
       style="fill:#ffcc00" />
    <path
       d="M426 7244 c-22 -22 -20 -41 9 -70 20 -20 29 -23 44 -14 30 16 32 25 16 64 -17 39 -43 47 -69 20z"
       id="path114"
       style="fill:#ffcc00" />
    <path
       d="M742 7239 c7 -20 34 -33 54 -25 16 6 17 9 4 15 -33 18 -62 23 -58 10z"
       id="path116"
       style="fill:#ffcc00" />
    <path
       d="M1010 7230 c-25 -25 -25 -31 1 -64 23 -30 73 -36 83 -10 11 29 6 61 -12 77 -25 22 -48 21 -72 -3z"
       id="path118"
       style="fill:#ffcc00" />
    <path
       d="M640 7216 c-13 -15 -20 -32 -17 -41 8 -19 51 -37 72 -29 36 14 25 94 -14 94 -9 0 -28 -11 -41 -24z"
       id="path120"
       style="fill:#ffcc00" />
    <path
       d="M850 7213 c-22 -8 -40 -34 -40 -58 0 -25 29 -55 52 -55 20 0 48 32 48 57 0 25 -40 62 -60 56z"
       id="path122"
       style="fill:#ffcc00" />
    <path
       d="M522 7151 c-17 -17 -32 -34 -32 -39 0 -14 66 -62 84 -62 39 0 49 89 14 114 -29 21 -28 21 -66 -13z"
       id="path124"
       style="fill:#ffcc00" />
    <path
       d="M747 7174 c-11 -11 -8 -52 4 -60 14 -8 30 15 27 40 -3 21 -20 31 -31 20z"
       id="path126"
       style="fill:#ffcc00" />
    <path
       d="M940 7155 c-13 -33 -10 -77 5 -82 6 -1 24 8 40 21 l30 25 -32 32 -32 33 -11 -29z"
       id="path128"
       style="fill:#ffcc00" />
    <path
       d="M1119 7145 c-35 -19 -43 -42 -24 -68 26 -37 15 -117 -19 -139 -6 -4 -23 -8 -38 -8 -15 0 -39 -11 -55 -26 -23 -21 -34 -25 -68 -20 -22 3 -88 6 -147 7 -105 2 -108 2 -128 -24 -42 -53 -83 -169 -157 -442 -22 -79 -25 -111 -26 -265 0 -156 2 -182 22 -240 23 -66 82 -173 124 -224 30 -37 53 -30 108 35 45 54 45 49 0 157 -33 80 -61 199 -61 263 0 61 7 45 19 -45 16 -116 69 -271 98 -289 5 -3 37 12 73 34 88 53 162 79 242 86 38 3 68 8 68 10 0 2 -27 36 -61 76 -62 74 -125 191 -153 286 -10 34 -16 92 -16 154 0 86 4 107 26 158 38 84 48 73 13 -13 -50 -129 -37 -250 45 -423 47 -99 117 -192 168 -223 21 -13 67 -24 128 -31 52 -6 159 -23 238 -37 79 -14 145 -24 148 -22 2 3 -9 47 -25 99 -39 124 -53 205 -53 313 0 49 -3 99 -8 111 -12 31 -160 215 -226 281 -31 30 -73 67 -95 81 -21 14 -39 30 -39 35 0 18 96 -56 165 -127 39 -40 102 -113 140 -163 39 -50 72 -91 75 -91 3 -1 11 26 17 59 13 72 60 174 96 212 l26 28 -47 40 c-26 22 -76 55 -112 74 -68 36 -238 96 -270 96 -10 0 -22 5 -25 11 -5 7 5 8 32 3 128 -23 303 -102 381 -170 l47 -42 98 51 c60 32 97 57 97 67 0 9 -13 29 -29 44 -29 28 -30 28 -94 17 -220 -38 -407 21 -478 152 -36 67 -49 77 -115 93 -73 17 -92 17 -125 -1z m-434 -752 c-15 -87 -29 -160 -31 -162 -15 -15 6 146 37 290 24 108 19 26 -6 -128z"
       id="path130"
       style="fill:#cc00ff" />
    <path
       d="M642 7103 c-13 -23 8 -77 37 -92 49 -27 90 3 72 51 -12 31 -31 47 -69 54 -23 5 -32 2 -40 -13z"
       id="path132"
       style="fill:#ffcc00" />
    <path
       d="M785 7073 c-8 -23 27 -57 51 -49 22 7 69 45 63 50 -2 2 -27 6 -56 9 -42 5 -52 3 -58 -10z"
       id="path134"
       style="fill:#ffcc00" />
    <path
       d="M992 7068 c-26 -32 -14 -79 24 -96 33 -16 40 -15 58 4 22 21 20 67 -2 87 -22 20 -65 22 -80 5z"
       id="path136"
       style="fill:#ffcc00" />
    <path
       d="M890 7020 c-27 -27 -26 -74 2 -100 28 -26 49 -25 76 3 21 23 21 23 2 52 -11 17 -20 38 -20 48 0 23 -35 22 -60 -3z"
       id="path138"
       style="fill:#ffcc00" />
    <path
       d="M2155 7014 c-17 -13 -67 -39 -112 -56 -46 -17 -83 -35 -83 -39 0 -4 11 -21 25 -37 l25 -30 48 14 c58 18 98 12 175 -28 71 -37 87 -30 69 31 -11 35 -87 151 -109 164 -4 3 -22 -6 -38 -19z"
       id="path140"
       style="fill:#663300" />
    <path
       d="M586 7021 c-16 -25 28 -67 54 -51 12 7 12 13 0 34 -13 26 -43 35 -54 17z"
       id="path142"
       style="fill:#ffcc00" />
    <path
       d="M766 6984 c-18 -46 7 -81 49 -70 33 8 46 54 20 73 -25 18 -62 17 -69 -3z"
       id="path144"
       style="fill:#ffcc00" />
    <path
       d="M675 6960 c-13 -21 31 -55 54 -41 10 7 10 13 2 30 -12 22 -45 28 -56 11z"
       id="path146"
       style="fill:#ffcc00" />
    <path
       d="M2015 6805 c-120 -54 -221 -114 -257 -152 -39 -41 -64 -104 -88 -222 -30 -148 -28 -231 9 -376 38 -150 64 -226 96 -281 14 -24 91 -112 173 -196 81 -84 166 -175 188 -203 46 -56 106 -160 124 -217 11 -36 14 -38 55 -38 24 0 47 5 50 10 3 6 31 10 62 10 51 0 59 3 89 35 44 47 79 159 105 335 30 199 56 301 99 382 52 100 62 145 62 273 0 86 -5 124 -22 174 -24 71 -69 165 -108 223 -13 21 -22 41 -19 44 16 17 139 -223 156 -304 13 -65 14 -235 2 -280 -11 -37 -2 -41 24 -12 10 11 55 43 99 71 125 80 116 63 95 180 -27 153 -60 227 -135 309 -152 166 -250 238 -346 255 -50 9 -77 2 -124 -35 -45 -36 -69 -35 -169 7 -33 14 -74 32 -91 39 -29 12 -38 10 -129 -31z m0 -189 c-93 -56 -123 -85 -156 -152 -29 -59 -33 -77 -37 -172 -6 -166 40 -348 129 -512 29 -52 29 -54 5 -25 -53 62 -105 195 -136 347 -51 250 3 423 160 512 57 32 89 34 35 2z m136 -128 c-55 -99 -64 -170 -58 -426 7 -296 25 -368 133 -538 20 -31 34 -58 31 -60 -2 -3 -27 30 -54 73 -106 167 -126 257 -127 573 -1 209 1 230 22 293 23 68 60 137 75 137 4 0 -6 -24 -22 -52z m385 -98 c60 -150 65 -275 19 -525 -34 -187 -55 -338 -55 -402 0 -29 -4 -53 -10 -53 -5 0 -10 8 -10 18 0 43 32 280 55 412 51 289 43 430 -32 580 -48 95 -50 102 -19 65 14 -16 38 -59 52 -95z"
       id="path148"
       style="fill:#ff33ff" />
    <path
       d="M454 6759 c-60 -17 -129 -75 -202 -170 -41 -52 -102 -129 -138 -173 l-64 -78 0 -3149 0 -3149 425 0 425 0 26 42 c42 66 143 159 219 201 97 53 161 67 308 67 131 0 228 -14 336 -49 35 -12 67 -21 70 -21 7 0 2 34 -38 250 -32 169 -29 281 8 402 38 122 49 143 112 212 46 51 59 58 132 81 45 13 100 29 123 35 22 5 52 19 65 31 23 20 40 21 99 7 12 -2 16 15 21 92 8 117 43 212 123 333 73 110 136 172 168 164 35 -9 154 -112 210 -181 57 -71 148 -246 148 -285 0 -15 3 -31 6 -34 4 -4 31 16 62 44 87 80 172 136 295 194 64 30 118 55 121 55 20 0 104 -183 158 -344 72 -211 37 -466 -83 -615 -27 -34 -43 -61 -36 -61 7 0 42 10 77 22 51 17 75 33 118 77 61 64 145 186 192 280 l32 64 -26 106 c-24 102 -48 219 -61 309 -12 73 -7 205 10 265 15 57 158 301 208 355 31 34 82 58 152 72 76 15 101 31 120 78 30 71 82 103 188 117 54 7 55 5 -23 92 l-45 50 -85 -13 c-47 -7 -182 -18 -300 -24 -394 -19 -549 -39 -613 -79 -63 -38 -454 -230 -537 -263 -47 -19 -157 -56 -245 -83 l-160 -50 -105 -106 c-143 -143 -680 -697 -819 -844 -63 -66 -171 -187 -241 -270 -263 -310 -400 -415 -570 -437 -41 -6 -102 -22 -135 -36 -34 -15 -86 -28 -120 -30 -50 -3 -65 0 -94 20 -55 37 -75 72 -77 132 -1 29 -7 69 -14 90 -18 56 -6 114 44 214 75 149 152 239 495 582 372 371 493 485 826 775 335 292 554 494 569 524 7 14 16 39 20 55 15 61 97 210 174 313 43 60 84 124 89 143 21 67 45 182 40 187 -10 10 -44 -8 -83 -42 -48 -43 -69 -43 -148 -5 -33 16 -78 32 -98 36 l-38 6 0 -53 c0 -210 -105 -396 -250 -444 -59 -20 -203 -34 -341 -35 -131 0 -152 -6 -208 -56 -51 -46 -72 -53 -88 -31 -11 13 -103 272 -152 427 -32 102 -56 223 -67 335 -3 39 -8 71 -9 73 -2 2 -26 -12 -54 -31 -28 -20 -68 -41 -88 -48 -45 -15 -247 -18 -378 -5 -78 7 -101 6 -172 -13 -109 -28 -113 -28 -113 10 0 17 -13 92 -30 166 -31 139 -37 235 -19 312 47 206 270 385 507 407 39 4 69 11 66 15 -3 5 -51 41 -107 80 -131 92 -200 159 -243 235 l-34 61 0 160 c0 156 0 160 -24 182 -33 31 -59 87 -51 111 3 10 24 41 46 67 49 58 99 161 99 199 0 16 -7 38 -15 48 -22 29 -19 48 15 86 16 19 29 38 30 41 0 3 -23 41 -51 84 -100 151 -118 221 -119 446 0 166 12 231 96 502 13 43 24 82 24 88 0 11 -44 10 -86 -2z"
       id="path150"
       style="fill:none" />
    <path
       d="M6665 6646 c-8 -11 -21 -13 -59 -7 -45 8 -51 6 -71 -17 -22 -25 -22 -25 -64 -8 l-43 17 -36 -32 c-21 -18 -41 -38 -45 -46 -14 -23 -78 -15 -132 17 -34 20 -63 29 -90 29 -37 -1 -38 -1 -13 -9 107 -32 140 -106 91 -202 -28 -57 -127 -77 -191 -38 -97 60 -91 184 11 230 38 17 39 19 15 19 -26 1 -113 -62 -162 -118 -19 -20 -19 -21 0 -42 21 -23 148 -119 158 -119 23 0 91 -62 125 -114 49 -75 111 -244 93 -255 -9 -5 -7 -24 8 -76 26 -90 26 -99 0 -85 -24 13 -24 12 -5 -33 8 -20 15 -52 15 -71 0 -19 8 -61 19 -94 22 -71 154 -294 159 -269 5 25 21 21 34 -8 6 -14 14 -25 18 -25 4 0 5 11 2 25 -6 34 19 33 64 -1 33 -26 34 -26 34 -5 0 25 7 26 32 4 10 -9 18 -11 18 -6 0 6 10 13 21 16 19 5 21 11 15 44 -4 21 -9 46 -12 56 -4 13 1 20 15 24 12 3 21 7 21 8 0 2 -12 26 -26 54 -25 47 -26 53 -11 69 13 15 14 20 2 42 -8 14 -14 37 -15 53 0 22 4 27 25 27 l25 0 -30 47 c-37 58 -39 83 -6 83 14 0 36 -4 50 -10 14 -5 26 -8 26 -6 0 2 -20 24 -45 48 -30 30 -45 54 -45 71 0 37 -10 39 -75 16 l-57 -20 -36 42 c-37 43 -102 179 -102 212 0 17 17 80 56 212 21 72 44 90 155 125 l99 32 0 37 c0 46 -20 79 -35 57z"
       id="path152"
       style="fill:#00ffcc" />
    <path
       d="M6021 6547 c-29 -17 -50 -54 -51 -89 0 -57 85 -117 144 -102 37 9 86 68 86 104 0 18 -11 42 -28 61 -23 26 -37 32 -78 36 -30 2 -58 -2 -73 -10z m104 -7 c28 -10 56 -63 48 -89 -18 -58 -67 -91 -112 -76 -28 9 -71 62 -71 89 0 61 70 101 135 76z"
       id="path154"
       style="fill:#0000cc" />
    <path
       d="M6686 6508 c-13 -18 -26 -22 -73 -23 -77 -1 -138 -38 -146 -87 -2 -18 -14 -66 -25 -105 -11 -40 -17 -73 -13 -73 3 0 41 12 84 25 l79 25 232 -55 c128 -30 240 -55 249 -55 27 0 20 24 -28 90 -91 122 -274 280 -326 280 -10 0 -25 -10 -33 -22z"
       id="path156"
       style="fill:#cc6600" />
    <path
       d="M6511 6215 c-101 -37 -103 -42 -58 -128 20 -41 50 -86 66 -101 l29 -28 201 66 c191 62 298 106 276 112 -23 7 -393 93 -420 98 -19 3 -54 -4 -94 -19z"
       id="path158"
       style="fill:#cc6600" />
    <path
       d="M3244 6216 c-55 -14 -235 -101 -325 -159 -140 -89 -217 -210 -245 -383 -51 -322 -64 -378 -99 -452 -19 -41 -35 -78 -35 -83 0 -5 14 -31 30 -57 17 -27 30 -57 30 -67 0 -9 14 -33 30 -52 35 -40 37 -61 10 -96 -11 -14 -21 -36 -22 -48 -3 -23 0 -24 92 -31 52 -4 121 -14 153 -23 53 -15 62 -15 115 0 31 10 115 41 185 71 198 83 296 103 432 85 76 -9 81 -9 104 12 28 26 104 118 146 178 17 23 54 71 83 107 63 78 69 98 49 160 -24 77 -27 95 -18 135 9 36 7 39 -39 80 -86 76 -96 111 -70 241 14 68 14 68 -14 122 -55 106 -213 226 -340 260 -62 17 -183 17 -252 0z m291 -117 c40 -11 124 -84 111 -96 -3 -4 -13 3 -22 15 -8 12 -36 34 -61 49 -38 22 -59 27 -112 27 -140 0 -273 -72 -437 -238 -122 -123 -156 -185 -213 -396 -40 -145 -73 -234 -91 -245 -12 -8 -13 8 -1 20 10 12 59 161 96 295 33 121 65 185 135 269 134 159 286 272 408 300 53 13 141 13 187 0z m-22 -261 c38 -12 164 -115 153 -126 -3 -2 -29 17 -57 42 -82 74 -97 79 -213 74 -90 -4 -109 -8 -176 -39 -146 -69 -198 -137 -291 -388 -7 -19 -14 -30 -16 -24 -5 14 43 145 78 215 57 114 175 206 309 244 59 16 162 17 213 2z m168 -415 c-14 -27 -62 -69 -100 -88 -68 -34 -117 -45 -270 -60 -158 -16 -207 -31 -281 -82 l-25 -17 23 26 c45 50 124 75 276 87 149 13 231 34 303 79 23 15 47 37 54 49 7 13 16 23 21 23 5 0 4 -8 -1 -17z m138 -150 c-13 -36 -60 -98 -92 -123 -63 -50 -133 -66 -345 -79 -137 -9 -173 -15 -230 -37 -86 -34 -246 -114 -294 -148 -21 -14 -38 -21 -38 -16 0 15 72 57 225 132 l141 68 119 10 c252 22 304 29 354 51 55 23 137 104 147 145 3 13 10 24 15 24 5 0 4 -12 -2 -27z"
       id="path160"
       style="fill:#ff33ff" />
    <path
       d="M4975 6003 c-170 -90 -532 -328 -638 -418 -85 -73 -292 -293 -389 -414 -84 -105 -132 -200 -94 -185 27 10 26 -15 -5 -88 -38 -88 -75 -214 -85 -284 -6 -52 -6 -52 20 -47 31 6 32 -1 9 -73 -9 -30 -14 -57 -10 -60 4 -4 27 10 52 30 25 21 49 34 55 31 6 -4 8 -11 5 -16 -12 -18 23 -20 61 -4 24 10 51 14 70 10 22 -4 54 4 107 25 41 16 89 30 105 30 16 0 49 7 72 15 47 17 64 12 55 -15 -5 -17 -3 -18 24 -7 38 14 45 7 30 -27 -17 -36 -6 -42 40 -21 22 9 44 14 51 10 6 -4 22 0 35 9 34 22 45 20 45 -9 0 -32 13 -26 94 44 43 39 61 49 71 41 9 -7 36 -4 95 11 77 20 84 21 95 6 16 -22 37 -21 77 3 44 26 58 25 58 -5 0 -25 0 -25 36 -10 57 24 69 20 45 -14 -38 -53 -23 -96 33 -94 59 2 104 23 169 79 59 52 77 63 77 47 0 -4 -28 -36 -62 -70 l-62 -63 31 0 c22 0 47 13 87 46 69 56 94 53 42 -4 -35 -38 -36 -42 -17 -42 43 0 88 28 147 94 64 69 80 80 69 46 -11 -34 27 -24 93 24 33 24 63 49 66 55 10 15 37 14 33 -1 -3 -18 47 -11 98 11 22 10 62 37 90 60 49 41 91 58 65 26 -10 -12 -9 -15 4 -15 27 0 67 29 154 114 87 86 92 96 72 168 -8 26 -15 35 -25 31 -11 -4 -15 2 -15 21 0 17 -4 24 -14 20 -8 -3 -22 9 -36 30 -12 20 -27 33 -32 30 -6 -4 -17 1 -25 12 -11 15 -16 16 -22 6 -6 -10 -12 -7 -25 12 -10 17 -26 26 -42 26 -13 0 -27 7 -30 15 -3 8 -26 17 -50 21 -24 3 -55 15 -68 25 -13 11 -36 19 -50 19 -15 0 -29 6 -32 14 -4 10 -30 17 -85 22 -44 4 -82 11 -85 15 -3 5 -15 7 -27 3 -13 -3 -36 2 -52 10 -17 9 -41 16 -55 17 -14 0 -34 4 -45 9 -19 8 -19 9 2 9 33 1 39 21 6 21 -15 0 -38 3 -51 6 -21 6 -21 7 -5 20 16 12 15 13 -14 14 -18 0 -33 5 -33 10 0 6 5 10 11 10 5 0 7 5 4 10 -3 6 -17 10 -29 10 -14 0 -30 10 -40 25 -15 22 -86 65 -109 65 -27 0 -177 83 -185 103 -2 4 -12 7 -23 7 -22 0 -23 4 -9 31 9 16 7 19 -15 19 -16 0 -25 6 -25 15 0 8 -7 15 -15 15 -17 0 -20 25 -5 35 16 10 12 25 -5 19 -8 -4 -15 -1 -15 5 0 7 7 14 16 18 16 6 16 7 0 18 -15 11 -14 17 4 69 10 31 16 56 12 56 -4 -1 -20 -8 -37 -17z m475 -581 c0 -9 -66 -32 -90 -32 -22 0 -1 14 38 26 48 15 52 16 52 6z m-139 -22 c-13 -11 -28 -20 -35 -20 -6 1 0 10 13 20 13 11 28 20 35 20 6 -1 0 -10 -13 -20z m-119 -37 c-29 -13 -58 -23 -64 -21 -15 5 72 47 97 47 12 -1 -2 -11 -33 -26z m-96 -28 c-11 -8 -22 -12 -25 -9 -6 6 19 24 34 24 6 -1 1 -7 -9 -15z m-51 -15 c-10 -11 -23 -20 -28 -20 -6 0 -2 9 8 20 10 11 23 20 28 20 6 0 2 -9 -8 -20z m-61 -24 c-10 -8 -21 -12 -24 -9 -3 2 4 11 14 19 11 7 22 12 25 9 2 -3 -4 -12 -15 -19z m-132 -56 c-18 -17 -37 -30 -42 -30 -6 0 4 13 22 30 18 16 38 29 43 29 6 0 -5 -13 -23 -29z m-82 -45 c-7 -8 -17 -15 -22 -15 -6 0 -5 7 2 15 7 8 17 15 22 15 6 0 5 -7 -2 -15z m-105 -55 c-10 -11 -23 -20 -29 -20 -6 1 0 10 13 20 30 26 39 26 16 0z m-100 -25 c-17 -13 -34 -24 -40 -24 -5 0 6 13 25 28 19 16 37 27 40 25 2 -3 -9 -16 -25 -29z m-85 -40 c-13 -14 -26 -23 -28 -20 -7 7 29 45 41 45 6 0 0 -11 -13 -25z m-69 -33 c-10 -19 -41 -38 -41 -25 0 10 43 54 48 49 2 -2 -1 -13 -7 -24z m-61 -42 c-8 -5 -17 -7 -19 -4 -3 3 1 9 9 14 8 5 17 7 19 4 3 -3 -1 -9 -9 -14z"
       id="path162"
       style="fill:#66cc33" />
    <path
       d="M992 5885 c-76 -24 -151 -75 -235 -159 -45 -45 -103 -96 -128 -114 -26 -17 -49 -38 -52 -46 -4 -9 3 -36 14 -61 l20 -46 -33 -72 c-18 -39 -54 -98 -80 -131 -27 -33 -48 -64 -48 -70 0 -6 10 -26 23 -45 12 -19 28 -44 34 -55 9 -14 13 -68 13 -163 0 -134 2 -146 27 -199 44 -94 131 -171 378 -338 120 -81 219 -130 300 -147 35 -8 121 -13 205 -13 123 1 155 4 210 23 125 43 179 79 280 185 52 55 132 138 178 185 45 47 82 88 82 91 0 4 -14 27 -30 52 -20 31 -31 59 -31 85 -1 114 3 179 12 188 5 5 30 9 54 8 l43 -1 7 49 c14 98 -72 230 -306 473 -65 68 -140 149 -166 180 -57 70 -73 78 -193 104 -231 50 -485 66 -578 37z m403 -200 c202 -70 403 -198 538 -339 97 -103 87 -108 -13 -8 -118 117 -235 200 -385 272 -147 71 -236 93 -349 88 -108 -5 -168 -30 -261 -107 -62 -52 -93 -67 -59 -30 44 49 143 116 204 137 90 31 212 27 325 -13z m-34 -231 c95 -29 181 -80 322 -193 76 -61 147 -116 158 -122 12 -6 18 -13 16 -16 -9 -9 -44 16 -177 122 -71 57 -151 116 -176 131 -72 42 -165 72 -261 84 -48 6 -90 14 -93 17 -10 11 157 -7 211 -23z m684 -244 c10 -11 13 -20 7 -20 -6 0 -16 9 -22 20 -6 11 -9 20 -7 20 2 0 12 -9 22 -20z m-1141 -202 c49 -45 105 -95 125 -111 90 -72 250 -127 370 -127 76 0 191 25 276 61 42 17 78 29 81 27 8 -9 -138 -67 -206 -83 -87 -20 -242 -19 -311 1 -82 25 -181 78 -246 133 -98 83 -199 180 -188 181 6 0 51 -37 99 -82z m-110 -312 c300 -228 636 -304 866 -195 35 16 99 57 144 90 l81 60 -58 -55 c-78 -76 -215 -143 -316 -155 -81 -10 -214 0 -296 23 -149 41 -357 152 -470 250 -62 54 -31 42 49 -18z"
       id="path164"
       style="fill:#ff33ff" />
    <path
       d="M2381 5106 c-20 -24 -9 -51 19 -51 21 0 25 5 25 30 0 34 -24 45 -44 21z"
       id="path166"
       style="fill:#ff9933" />
    <path
       d="M2467 5113 c-9 -8 22 -43 39 -43 20 0 27 19 14 35 -13 16 -42 20 -53 8z"
       id="path168"
       style="fill:#ff9933" />
    <path
       d="M2271 5087 c-27 -33 27 -74 57 -43 13 13 14 20 6 34 -14 22 -47 27 -63 9z"
       id="path170"
       style="fill:#ff9933" />
    <path
       d="M2531 5041 c-24 -24 -27 -44 -7 -60 28 -23 59 33 37 68 -7 11 -13 9 -30 -8z"
       id="path172"
       style="fill:#ff9933" />
    <path
       d="M2436 5031 c-18 -20 -18 -21 8 -32 30 -14 35 -12 38 21 4 31 -22 37 -46 11z"
       id="path174"
       style="fill:#ff9933" />
    <path
       d="M2360 5017 c0 -23 11 -47 21 -47 15 0 10 37 -6 50 -12 10 -15 10 -15 -3z"
       id="path176"
       style="fill:#ff9933" />
    <path
       d="M2146 5003 c-8 -19 8 -38 23 -29 16 10 13 46 -3 46 -8 0 -17 -8 -20 -17z"
       id="path178"
       style="fill:#ff9933" />
    <path
       d="M2216 5001 c-14 -15 -15 -24 -7 -40 16 -29 45 -43 59 -29 19 19 14 66 -7 78 -25 13 -25 13 -45 -9z"
       id="path180"
       style="fill:#ff9933" />
    <path
       d="M2310 4984 c0 -8 5 -12 10 -9 6 3 10 10 10 16 0 5 -4 9 -10 9 -5 0 -10 -7 -10 -16z"
       id="path182"
       style="fill:#ff9933" />
    <path
       d="M2414 4956 c-3 -8 -4 -23 -2 -33 5 -25 51 -25 56 0 7 36 -42 65 -54 33z"
       id="path184"
       style="fill:#ff9933" />
    <path
       d="M2500 4935 c0 -17 5 -25 13 -22 6 2 12 12 12 22 0 10 -6 20 -12 23 -8 2 -13 -6 -13 -23z"
       id="path186"
       style="fill:#ff9933" />
    <path
       d="M2565 4939 c-7 -22 18 -59 42 -59 20 0 27 28 15 56 -14 30 -48 32 -57 3z"
       id="path188"
       style="fill:#ff9933" />
    <path
       d="M3737 4903 c-64 -68 -251 -291 -318 -378 -111 -144 -206 -306 -193 -327 8 -13 111 -4 182 17 30 9 83 40 129 75 80 60 223 194 223 209 0 5 -11 6 -25 3 -17 -3 -25 0 -25 10 0 26 59 252 85 327 45 128 23 152 -58 64z"
       id="path190"
       style="fill:#00ffcc" />
    <path
       d="M2330 4927 c0 -28 19 -40 41 -26 11 6 11 13 3 26 -18 29 -44 29 -44 0z"
       id="path192"
       style="fill:#ff9933" />
    <path
       d="M2141 4926 c-10 -11 -8 -17 11 -30 27 -19 49 -5 32 21 -14 23 -29 26 -43 9z"
       id="path194"
       style="fill:#ff9933" />
    <path
       d="M2290 4896 c0 -9 5 -16 10 -16 6 0 10 4 10 9 0 6 -4 13 -10 16 -5 3 -10 -1 -10 -9z"
       id="path196"
       style="fill:#ff9933" />
    <path
       d="M2216 4884 c-7 -17 19 -74 34 -74 16 0 23 46 10 69 -13 25 -35 27 -44 5z"
       id="path198"
       style="fill:#ff9933" />
    <path
       d="M2523 4875 c-7 -20 -5 -21 37 -30 l35 -7 -24 26 c-28 30 -39 32 -48 11z"
       id="path200"
       style="fill:#ff9933" />
    <path
       d="M3415 4880 c-33 -5 -73 -13 -88 -19 -28 -11 -28 -11 -10 -38 30 -47 86 -126 109 -156 l23 -27 95 112 c53 62 96 116 96 119 0 19 -113 23 -225 9z"
       id="path202"
       style="fill:#663300" />
    <path
       d="M6261 4825 c-33 -36 -89 -107 -123 -158 -107 -160 -178 -246 -245 -299 -47 -37 -61 -53 -51 -59 21 -14 66 -10 101 7 57 29 147 108 164 144 9 19 29 51 45 70 34 42 35 50 3 50 -14 0 -25 4 -25 9 0 5 20 33 45 63 25 29 65 82 89 118 88 131 87 150 -3 55z"
       id="path204"
       style="fill:#0066ff" />
    <path
       d="M2370 4870 c-8 -5 -11 -12 -8 -16 10 -9 38 3 38 16 0 12 -10 13 -30 0z"
       id="path206"
       style="fill:#ff9933" />
    <path
       d="M2458 4872 c-24 -5 -22 -28 4 -46 25 -17 38 -13 38 13 0 23 -20 39 -42 33z"
       id="path208"
       style="fill:#ff9933" />
    <path
       d="M2147 4843 c-14 -13 -6 -33 19 -49 35 -24 54 -5 30 30 -16 25 -36 33 -49 19z"
       id="path210"
       style="fill:#ff9933" />
    <path
       d="M2294 4835 c-9 -23 3 -45 25 -45 26 0 34 15 21 40 -13 24 -38 26 -46 5z"
       id="path212"
       style="fill:#ff9933" />
    <path
       d="M2384 4809 c-19 -21 -18 -21 5 -40 28 -23 47 -24 55 -3 9 24 8 31 -10 48 -20 21 -27 20 -50 -5z"
       id="path214"
       style="fill:#ff9933" />
    <path
       d="M2529 4807 c-20 -44 22 -77 51 -41 11 13 9 19 -13 41 l-26 26 -12 -26z"
       id="path216"
       style="fill:#ff9933" />
    <path
       d="M3130 4781 c-58 -25 -119 -51 -135 -57 l-30 -11 70 -32 c152 -70 192 -93 244 -141 30 -27 56 -48 58 -46 28 28 81 112 76 120 -7 11 -104 153 -132 193 -9 12 -23 22 -31 22 -8 -1 -62 -22 -120 -48z"
       id="path218"
       style="fill:#663300" />
    <path
       d="M2474 4777 c-4 -12 -1 -25 9 -35 24 -23 31 -9 14 25 -14 25 -16 26 -23 10z"
       id="path220"
       style="fill:#ff9933" />
    <path
       d="M2210 4755 c-16 -19 2 -65 24 -65 23 0 39 36 26 60 -13 24 -33 26 -50 5z"
       id="path222"
       style="fill:#ff9933" />
    <path
       d="M2596 4741 c-28 -17 -58 -46 -73 -70 -26 -44 -50 -51 -98 -29 -22 10 -28 8 -48 -10 -32 -30 -67 -27 -105 8 -62 56 -77 48 -259 -148 -65 -70 -146 -151 -180 -180 -50 -42 -63 -59 -63 -82 0 -35 -18 -124 -66 -328 -46 -190 -42 -215 45 -294 122 -111 201 -147 453 -208 92 -21 195 -53 229 -69 l63 -30 43 40 c29 26 52 39 71 39 40 0 54 14 101 104 23 43 65 115 94 160 45 72 52 88 55 146 8 129 -44 339 -116 470 -37 68 -104 164 -122 175 -5 3 -10 11 -10 17 0 20 47 -32 95 -103 91 -136 144 -281 167 -464 6 -49 15 -94 19 -99 4 -4 26 30 48 78 23 47 74 130 115 183 40 54 79 109 85 122 24 45 -13 146 -84 229 -55 63 -136 120 -255 179 -58 29 -98 52 -89 53 21 0 170 -73 227 -112 113 -77 195 -178 217 -267 l12 -46 33 65 c18 36 48 89 66 118 19 29 34 57 34 62 0 16 -61 80 -106 111 -23 16 -78 43 -120 60 -43 17 -110 51 -149 74 -79 48 -121 62 -215 70 -59 5 -69 3 -114 -24z m-392 -308 c-15 -26 -66 -105 -111 -175 -172 -262 -221 -407 -175 -509 25 -56 83 -123 134 -156 22 -13 37 -27 34 -30 -9 -9 -72 35 -114 81 -82 89 -104 165 -78 267 20 75 103 236 173 335 27 38 73 109 102 157 55 91 85 117 35 30z m146 -80 c-10 -32 -30 -112 -45 -178 -23 -102 -26 -137 -23 -235 4 -104 7 -122 35 -183 18 -37 44 -84 60 -104 l27 -38 -27 25 c-67 59 -117 205 -117 337 0 97 78 433 100 433 4 0 0 -26 -10 -57z"
       id="path224"
       style="fill:#ff33ff" />
    <path
       d="M2350 4731 c0 -5 9 -19 19 -32 18 -22 20 -22 26 -6 10 25 -1 47 -25 47 -11 0 -20 -4 -20 -9z"
       id="path226"
       style="fill:#ff9933" />
    <path
       d="M6064 4715 c-40 -20 -65 -46 -133 -135 -46 -61 -105 -130 -130 -153 -61 -55 -66 -64 -41 -77 42 -23 137 42 231 160 45 56 149 211 149 222 0 14 -25 9 -76 -17z"
       id="path228"
       style="fill:#3399ff" />
    <path
       d="M2297 4713 c-13 -12 -7 -60 8 -73 36 -30 64 30 29 64 -17 17 -27 20 -37 9z"
       id="path230"
       style="fill:#ff9933" />
    <path
       d="M2427 4706 c-9 -22 16 -48 43 -44 30 4 36 21 15 42 -20 20 -51 21 -58 2z"
       id="path232"
       style="fill:#ff9933" />
    <path
       d="M7670 4693 c-14 -3 -35 -14 -47 -26 -28 -25 -95 -163 -121 -249 -19 -62 -39 -188 -29 -188 4 0 83 107 160 216 40 58 92 158 113 216 l13 38 -32 -1 c-18 -1 -43 -4 -57 -6z"
       id="path234"
       style="fill:#009933" />
    <path
       d="M7532 4670 c-18 -4 -42 -16 -52 -25 -26 -23 -63 -143 -85 -270 -17 -103 -29 -325 -17 -325 4 0 13 12 19 28 7 15 21 47 32 72 10 25 22 79 26 120 10 113 21 152 76 274 28 61 53 117 56 124 6 13 -6 14 -55 2z"
       id="path236"
       style="fill:#009933" />
    <path
       d="M7743 4603 c-13 -32 -51 -101 -85 -152 -66 -98 -72 -107 -126 -180 -17 -24 -31 -46 -29 -48 2 -2 26 5 53 14 32 12 68 37 105 74 93 94 157 276 117 332 -11 15 -16 10 -35 -40z"
       id="path238"
       style="fill:#009933" />
    <path
       d="M5855 4636 c-22 -7 -60 -25 -85 -40 -25 -14 -63 -31 -85 -37 -45 -12 -80 -40 -102 -83 -21 -41 -9 -74 33 -92 69 -29 150 29 279 196 25 32 45 61 45 64 0 10 -42 5 -85 -8z"
       id="path240"
       style="fill:#3399ff" />
    <path
       d="M7383 4635 c-37 -16 -59 -55 -94 -165 -22 -67 -24 -93 -24 -251 0 -160 2 -179 19 -198 11 -12 31 -21 48 -21 l28 0 -4 93 c-7 179 29 403 89 540 9 21 -16 22 -62 2z"
       id="path242"
       style="fill:#009933" />
    <path
       d="M7260 4581 c-49 -27 -68 -50 -91 -117 -40 -113 -43 -316 -7 -437 12 -39 12 -39 52 -33 22 4 41 8 43 9 1 2 -3 34 -9 72 -6 41 -8 124 -5 200 5 121 22 203 64 312 7 17 -5 16 -47 -6z"
       id="path244"
       style="fill:#009933" />
    <path
       d="M4820 4550 c-30 -11 -64 -20 -75 -20 -11 0 -39 -15 -62 -34 -59 -46 -100 -63 -123 -48 -14 8 -34 8 -77 0 -32 -6 -72 -12 -89 -13 -42 -3 -51 -10 -74 -55 -39 -76 -23 -117 62 -162 36 -19 59 -22 143 -22 116 0 164 17 318 110 50 30 92 54 94 54 2 0 42 25 89 56 79 53 85 59 82 88 -3 26 -8 32 -33 34 -16 2 -34 10 -38 18 -7 12 -14 11 -46 -6 -38 -19 -39 -19 -56 0 -22 25 -45 25 -115 0z"
       id="path246"
       style="fill:#66ccff" />
    <path
       d="M4255 4513 c-16 -2 -64 -15 -105 -27 -91 -29 -235 -59 -274 -58 -15 1 -46 -8 -67 -19 -41 -20 -59 -18 -59 7 0 30 -49 -17 -103 -99 -144 -217 -181 -287 -158 -301 19 -12 104 -8 161 8 135 37 358 121 513 194 l104 49 7 53 c9 65 18 84 64 133 l36 37 -26 0 c-14 0 -28 7 -32 15 -3 8 -11 14 -18 14 -7 -1 -26 -4 -43 -6z"
       id="path248"
       style="fill:#33ffcc" />
    <path
       d="M7771 4444 c-55 -122 -94 -164 -205 -220 -99 -51 -119 -73 -156 -168 l-11 -29 48 6 c72 8 157 43 213 88 58 46 174 179 200 229 18 36 18 36 -8 100 -15 35 -31 65 -37 67 -5 1 -25 -31 -44 -73z"
       id="path250"
       style="fill:#009933" />
    <path
       d="M6195 4473 c-16 -8 -52 -37 -80 -63 -27 -26 -71 -64 -97 -83 -47 -35 -48 -45 -7 -60 61 -21 264 173 223 213 -5 5 -22 2 -39 -7z"
       id="path252"
       style="fill:#0099cc" />
    <path
       d="M7115 4452 c-62 -94 -94 -238 -75 -344 21 -118 26 -128 71 -128 45 0 46 1 23 97 -20 84 -20 232 0 333 8 41 13 76 11 78 -2 2 -15 -14 -30 -36z"
       id="path254"
       style="fill:#009933" />
    <path
       d="M5083 4416 c-34 -19 -98 -58 -142 -85 -43 -27 -114 -69 -157 -92 -150 -79 -194 -116 -194 -164 0 -55 151 -60 261 -8 159 74 585 350 568 367 -2 3 -65 7 -139 11 l-135 6 -62 -35z"
       id="path256"
       style="fill:#0099ff" />
    <path
       d="M5417 4385 c-48 -36 -171 -117 -273 -181 -235 -147 -242 -153 -229 -190 8 -21 22 -33 52 -44 37 -12 48 -12 95 3 101 32 333 185 481 317 l57 52 -25 30 c-14 16 -26 34 -26 39 -1 5 -2 15 -3 22 -3 30 -45 14 -129 -48z"
       id="path258"
       style="fill:#0066ff" />
    <path
       d="M5646 4335 c-20 -14 -78 -60 -129 -103 -106 -91 -220 -171 -329 -232 -47 -26 -74 -48 -71 -56 2 -7 21 -20 40 -29 34 -16 40 -16 97 -1 67 19 210 96 296 160 102 75 260 207 260 217 0 5 -8 12 -17 15 -10 3 -39 16 -64 29 l-47 25 -36 -25z"
       id="path260"
       style="fill:#3399ff" />
    <path
       d="M7851 4299 c-69 -98 -165 -193 -229 -227 -33 -18 -96 -40 -142 -51 -45 -11 -85 -23 -88 -26 -3 -3 16 -28 44 -56 46 -48 51 -50 90 -45 66 8 149 44 212 90 61 45 145 149 183 228 22 47 22 47 4 90 -10 24 -21 46 -25 51 -3 4 -25 -20 -49 -54z"
       id="path262"
       style="fill:#009933" />
    <path
       d="M725 4306 c-27 -7 -62 -19 -77 -27 -24 -13 -15 -14 99 -10 143 4 249 -10 341 -45 34 -13 62 -20 62 -16 0 4 -45 31 -100 60 -99 52 -100 52 -187 51 -49 0 -110 -6 -138 -13z"
       id="path264"
       style="fill:#336600" />
    <path
       d="M3512 4235 c-62 -39 -187 -75 -260 -75 -51 0 -52 0 -107 -67 -67 -81 -133 -180 -163 -246 -28 -59 -19 -82 40 -98 56 -15 139 2 191 38 79 55 221 238 346 446 27 45 22 45 -47 2z"
       id="path266"
       style="fill:#00ffcc" />
    <path
       d="M5830 4253 c-14 -10 -79 -60 -144 -111 -132 -103 -223 -165 -304 -206 -29 -15 -52 -32 -49 -39 2 -7 20 -18 41 -24 72 -25 186 20 295 116 102 88 281 262 281 272 0 16 -94 10 -120 -8z"
       id="path268"
       style="fill:#0066ff" />
    <path
       d="M614 4231 c-112 -32 -188 -91 -234 -181 -11 -22 -18 -40 -15 -40 4 0 25 13 48 28 81 54 159 93 250 123 116 40 176 37 272 -10 61 -30 70 -32 94 -20 49 25 83 51 74 60 -4 4 -52 19 -107 33 -122 32 -285 35 -382 7z"
       id="path270"
       style="fill:#336600" />
    <path
       d="M1663 4219 c-23 -11 -70 -22 -105 -25 -63 -6 -63 -7 -139 -83 -73 -74 -133 -159 -164 -235 -15 -36 -12 -34 75 43 112 99 191 140 299 154 l80 10 10 46 c18 79 17 111 -1 110 -7 0 -32 -9 -55 -20z"
       id="path272"
       style="fill:#009900" />
    <path
       d="M4170 4189 c-111 -53 -311 -130 -468 -180 -94 -31 -177 -36 -238 -15 -18 7 -29 -3 -75 -66 -85 -116 -109 -157 -141 -241 -37 -96 -33 -102 60 -101 125 2 232 42 543 200 134 68 354 179 489 246 l245 123 -80 6 c-82 6 -135 23 -185 59 -15 11 -32 20 -37 20 -4 -1 -55 -23 -113 -51z"
       id="path274"
       style="fill:#33cc99" />
    <path
       d="M5985 4230 c-11 -4 -65 -50 -120 -102 -138 -130 -235 -211 -284 -238 -22 -13 -41 -27 -41 -31 0 -30 125 -3 180 39 86 66 373 318 378 333 5 11 -86 11 -113 -1z"
       id="path276"
       style="fill:#0099cc" />
    <path
       d="M6055 4148 c-185 -162 -340 -290 -361 -300 -58 -27 -1 -56 84 -43 52 8 92 25 111 49 12 14 9 16 -23 16 -20 0 -36 4 -36 9 0 17 92 100 157 142 59 39 63 43 48 59 -15 17 -13 20 28 48 40 28 84 79 75 87 -2 2 -39 -28 -83 -67z"
       id="path278"
       style="fill:#006666" />
    <path
       d="M1191 4191 c-10 -7 -12 -20 -7 -47 3 -22 9 -82 12 -135 10 -141 -26 -286 -97 -403 -17 -26 -28 -50 -26 -52 2 -2 22 15 45 39 38 39 42 50 62 147 20 100 49 174 115 290 18 33 25 59 25 101 l0 56 -37 7 c-52 8 -75 7 -92 -3z"
       id="path280"
       style="fill:#336600" />
    <path
       d="M7910 4153 c-33 -62 -163 -194 -220 -224 -25 -12 -79 -33 -120 -45 -84 -25 -81 -19 -59 -130 17 -87 23 -90 99 -56 108 49 258 196 308 301 26 56 45 201 26 201 -5 0 -20 -21 -34 -47z"
       id="path282"
       style="fill:#009933" />
    <path
       d="M1350 4143 l0 -37 35 34 c19 19 35 35 35 37 0 2 -16 3 -35 3 -34 0 -35 -1 -35 -37z"
       id="path284"
       style="fill:#336600" />
    <path
       d="M1099 4141 c-77 -44 -74 -37 -72 -168 2 -170 -34 -282 -132 -408 -25 -32 -45 -63 -45 -68 0 -12 98 2 132 19 64 33 132 146 169 279 19 71 21 95 15 213 -3 73 -9 139 -13 147 -6 10 -18 7 -54 -14z"
       id="path286"
       style="fill:#336600" />
    <path
       d="M685 4145 c-85 -24 -234 -105 -297 -163 l-58 -54 0 -81 0 -81 48 45 c62 60 115 99 184 138 47 27 72 33 151 40 84 7 101 12 153 44 93 58 99 64 84 82 -33 40 -170 55 -265 30z"
       id="path288"
       style="fill:#336600" />
    <path
       d="M4040 3851 c-373 -186 -516 -253 -580 -271 -88 -23 -183 -31 -235 -17 -30 7 -31 6 -79 -87 -27 -52 -77 -126 -110 -165 -157 -185 -161 -194 -81 -199 75 -5 218 55 479 200 162 91 735 374 946 467 212 94 487 229 497 245 6 9 -11 7 -102 -14 -56 -12 -165 -5 -189 13 -8 7 -17 26 -19 42 -2 17 -10 31 -18 32 -8 2 -237 -109 -509 -246z"
       id="path290"
       style="fill:#33cccc" />
    <path
       d="M914 4032 c-91 -59 -90 -57 -92 -163 -2 -84 -5 -101 -37 -167 -19 -40 -55 -100 -79 -132 l-44 -58 56 -11 c46 -9 59 -8 78 4 68 44 144 156 181 264 31 90 33 301 3 301 -4 0 -33 -17 -66 -38z"
       id="path292"
       style="fill:#336600" />
    <path
       d="M1577 4039 c-114 -27 -303 -182 -349 -286 -24 -53 -35 -209 -23 -317 8 -75 15 -75 40 -1 27 80 85 182 129 227 51 51 134 90 203 96 l52 4 32 135 c27 114 30 136 18 144 -17 11 -51 10 -102 -2z"
       id="path294"
       style="fill:#009900" />
    <path
       d="M4710 3901 c-91 -43 -253 -118 -360 -166 -190 -86 -799 -388 -930 -461 -117 -66 -314 -161 -368 -179 -48 -15 -84 -16 -157 -3 -35 6 -32 -37 4 -51 65 -28 228 28 490 168 306 163 832 426 1051 526 188 85 463 195 489 195 6 0 11 4 11 9 0 12 -40 41 -55 41 -5 0 -84 -35 -175 -79z"
       id="path296"
       style="fill:#009900" />
    <path
       d="M665 3961 c-82 -15 -233 -115 -301 -201 l-32 -40 25 -87 c14 -49 26 -90 28 -91 2 -2 16 16 30 40 84 137 148 212 257 303 47 40 84 76 81 79 -7 7 -33 6 -88 -3z"
       id="path298"
       style="fill:#336600" />
    <path
       d="M7235 3959 c-27 -5 -108 -15 -178 -23 -143 -16 -166 -27 -222 -105 -16 -23 -66 -88 -111 -144 -110 -140 -158 -212 -198 -298 -52 -114 -52 -108 -3 -180 82 -120 92 -150 102 -324 3 -60 9 -125 12 -143 5 -31 43 -72 68 -72 6 0 37 -21 68 -47 103 -88 144 -113 182 -113 70 0 181 47 293 123 83 57 127 79 197 101 172 53 363 156 442 238 56 58 86 120 91 189 7 99 -24 174 -135 320 l-43 55 -102 18 c-56 10 -116 25 -134 34 -43 20 -78 87 -98 187 -19 92 -50 145 -98 167 -49 23 -77 26 -133 17z m-145 -306 c-12 -16 -52 -59 -89 -98 -79 -81 -171 -205 -211 -285 -37 -73 -84 -215 -106 -315 -9 -44 -19 -74 -22 -67 -14 41 55 267 121 398 53 106 107 177 227 302 89 91 122 118 80 65z m214 -55 c-25 -49 -58 -85 -166 -182 -138 -124 -231 -277 -287 -471 -21 -72 -41 -116 -41 -89 0 20 39 143 69 218 54 136 114 220 252 356 69 69 139 144 154 168 32 49 45 50 19 0z m280 -230 c-29 -123 -84 -217 -204 -342 -68 -71 -194 -168 -269 -206 -66 -33 -232 -91 -250 -87 -9 1 22 16 69 31 160 54 286 127 399 232 116 107 217 267 242 383 6 28 14 51 19 51 4 0 2 -28 -6 -62z m187 -157 c-33 -109 -87 -180 -200 -264 -125 -93 -241 -166 -241 -152 0 2 54 41 120 85 225 151 298 247 323 426 l12 89 3 -59 c2 -38 -4 -82 -17 -125z"
       id="path300"
       style="fill:#9966ff" />
    <path
       d="M755 3921 c-58 -36 -163 -141 -232 -233 -77 -102 -128 -186 -120 -194 3 -3 29 -1 59 4 29 6 79 14 110 17 62 7 80 22 147 119 62 90 106 252 79 288 -12 17 -15 17 -43 -1z"
       id="path302"
       style="fill:#336600" />
    <path
       d="M4915 3896 c-154 -52 -253 -92 -475 -193 -204 -93 -943 -463 -1065 -534 -231 -134 -443 -193 -514 -143 -22 16 -24 15 -47 -12 -30 -38 -48 -80 -40 -99 8 -23 56 -37 99 -31 46 8 99 34 271 134 189 110 284 149 476 197 305 76 710 248 1190 506 52 28 144 75 204 105 l108 55 -28 30 c-15 16 -33 29 -38 29 -6 -1 -70 -20 -141 -44z"
       id="path304"
       style="fill:#0099cc" />
    <path
       d="M7861 3874 c-38 -55 -118 -122 -213 -178 -49 -28 -87 -55 -85 -61 2 -5 25 -16 51 -23 38 -11 54 -11 77 -2 44 19 114 112 175 231 37 74 34 91 -5 33z"
       id="path306"
       style="fill:#009933" />
    <path
       d="M5210 3875 c-30 -7 -86 -28 -125 -47 -38 -20 -212 -107 -385 -195 -334 -169 -659 -317 -800 -365 -73 -25 -203 -62 -395 -113 -105 -28 -305 -123 -305 -145 0 -29 229 25 455 107 99 36 266 94 370 130 204 69 314 111 465 175 265 114 323 139 415 183 99 47 422 221 438 235 8 7 -57 51 -71 49 -4 -1 -32 -7 -62 -14z"
       id="path308"
       style="fill:#009900" />
    <path
       d="M5438 3839 c-44 -10 -120 -48 -319 -157 -79 -43 -180 -95 -224 -114 -474 -211 -653 -283 -915 -367 -30 -10 -138 -49 -240 -86 -291 -107 -332 -117 -525 -134 -80 -8 -98 -13 -160 -50 -143 -85 -229 -101 -285 -55 -17 15 -35 23 -39 18 -25 -28 -91 -125 -91 -133 0 -6 9 -15 19 -21 68 -36 274 25 576 170 155 75 237 102 385 130 190 36 341 76 451 120 57 23 205 77 329 120 206 71 285 99 500 180 41 15 120 42 175 60 127 41 183 69 378 188 147 90 182 117 139 105 -10 -2 -39 5 -66 16 -26 12 -48 21 -49 20 -1 -1 -19 -5 -39 -10z"
       id="path310"
       style="fill:#0099cc" />
    <path
       d="M5625 3778 c-11 -6 -81 -48 -155 -93 -199 -121 -233 -138 -393 -194 -80 -28 -208 -74 -284 -102 -76 -28 -228 -82 -338 -120 -301 -104 -535 -193 -535 -203 0 -13 202 3 313 25 232 47 803 292 1365 588 78 41 142 78 142 82 0 4 -16 10 -36 13 -19 4 -41 9 -47 11 -7 3 -21 -1 -32 -7z"
       id="path312"
       style="fill:#009900" />
    <path
       d="M3185 3743 c-61 -32 -158 -37 -199 -10 -39 26 -52 21 -94 -35 -147 -199 -274 -503 -231 -554 10 -13 24 -15 61 -11 108 13 245 115 332 246 40 60 132 233 155 292 5 13 16 41 25 62 9 20 13 37 9 37 -5 -1 -30 -13 -58 -27z"
       id="path314"
       style="fill:#00ffcc" />
    <path
       d="M1511 3720 c-123 -44 -198 -145 -256 -345 -21 -74 -23 -93 -14 -133 12 -56 49 -161 59 -167 4 -2 19 37 35 88 38 125 79 199 146 267 48 47 70 61 128 80 45 14 75 30 85 45 14 21 13 26 -16 71 -17 27 -37 64 -45 82 -16 39 -41 41 -122 12z"
       id="path316"
       style="fill:#009900" />
    <path
       d="M1716 3541 c-21 -23 -20 -34 3 -79 58 -114 56 -341 -4 -574 -9 -34 11 -40 110 -36 l70 3 27 72 c51 132 54 309 9 438 -24 66 -37 84 -106 135 -79 58 -90 62 -109 41z"
       id="path318"
       style="fill:#009900" />
    <path
       d="M6095 3414 c-55 -46 -101 -91 -103 -99 -4 -17 171 -193 264 -267 34 -26 69 -59 78 -72 18 -28 152 -146 165 -146 13 0 -12 101 -38 151 -38 72 -94 140 -174 209 -42 36 -76 69 -76 73 -2 18 46 -20 134 -106 104 -102 138 -160 175 -302 12 -44 30 -104 40 -133 11 -29 20 -63 20 -75 1 -22 1 -22 16 -2 15 20 15 89 -2 320 -7 103 -51 185 -167 315 -93 104 -212 220 -225 220 -4 -1 -52 -39 -107 -86z"
       id="path320"
       style="fill:#9966ff" />
    <path
       d="M1559 3462 c-97 -62 -158 -163 -204 -337 -15 -55 -29 -103 -31 -106 -3 -5 38 -137 62 -199 3 -8 30 66 59 165 60 200 84 263 156 407 48 95 48 98 26 98 -13 0 -43 -13 -68 -28z"
       id="path322"
       style="fill:#009900" />
    <path
       d="M1618 3363 c-31 -60 -67 -137 -81 -173 -30 -75 -131 -419 -125 -425 2 -2 23 11 47 30 40 32 66 40 183 60 34 5 39 10 49 48 47 172 59 302 39 425 -11 67 -37 142 -50 142 -4 0 -32 -48 -62 -107z"
       id="path324"
       style="fill:#009900" />
    <path
       d="M1944 3409 c39 -139 48 -198 43 -289 -3 -62 -14 -123 -31 -175 -14 -43 -24 -81 -22 -82 9 -10 111 35 151 66 72 54 85 86 85 207 0 108 -19 193 -49 223 -10 10 -49 29 -87 41 -38 13 -75 25 -83 28 -11 4 -13 0 -7 -19z"
       id="path326"
       style="fill:#009900" />
    <path
       d="M2164 3348 c14 -48 36 -171 36 -201 0 -23 3 -28 11 -20 6 6 13 59 16 117 l6 105 -27 11 c-41 15 -49 13 -42 -12z"
       id="path328"
       style="fill:#009900" />
    <path
       d="M5907 3264 c-60 -44 -66 -58 -36 -91 30 -32 126 -98 159 -108 22 -7 160 -8 167 -1 4 3 -225 230 -235 233 -4 1 -29 -13 -55 -33z"
       id="path330"
       style="fill:#9966cc" />
    <path
       d="M5776 3165 c-25 -20 -46 -42 -46 -49 0 -22 54 -86 80 -93 39 -12 207 -10 220 3 8 8 -4 20 -46 44 -32 18 -81 54 -109 81 l-52 49 -47 -35z"
       id="path332"
       style="fill:#9966cc" />
    <path
       d="M2815 3129 c-27 -13 -63 -19 -112 -19 -71 0 -72 0 -102 -39 -82 -103 -55 -153 53 -96 50 27 206 153 206 167 0 4 -1 8 -2 7 -2 0 -21 -9 -43 -20z"
       id="path334"
       style="fill:#00ffcc" />
    <path
       d="M5615 3052 c-72 -45 -263 -150 -470 -257 -82 -42 -153 -80 -157 -84 -4 -4 63 -49 150 -100 221 -132 228 -137 251 -187 12 -24 53 -78 92 -121 39 -43 79 -94 89 -113 16 -32 111 -130 125 -130 3 0 41 27 85 60 43 34 120 80 170 104 l92 42 -135 127 c-74 70 -142 142 -150 160 -14 31 -54 232 -64 327 -4 38 -1 53 21 84 14 21 26 44 26 49 0 16 -44 77 -55 77 -5 0 -37 -17 -70 -38z"
       id="path336"
       style="fill:none" />
    <path
       d="M7977 3024 c-19 -33 -46 -68 -59 -80 -62 -53 -143 -106 -253 -163 -177 -93 -192 -111 -90 -111 l65 0 72 76 c130 137 320 258 446 285 l57 12 -34 14 c-19 8 -64 17 -101 20 l-67 6 -36 -59z"
       id="path338"
       style="fill:#009900" />
    <path
       d="M3605 3010 c-154 -33 -212 -54 -405 -148 -259 -125 -475 -181 -559 -146 -40 17 -48 12 -93 -54 -43 -63 -54 -107 -33 -139 32 -49 85 -33 555 162 246 102 591 232 862 326 115 40 -143 39 -327 -1z"
       id="path340"
       style="fill:#0099cc" />
    <path
       d="M6085 3023 c-44 -13 -48 -17 -32 -27 11 -6 42 -26 70 -44 29 -18 84 -49 122 -67 167 -81 255 -199 285 -382 14 -86 33 -136 74 -193 55 -78 79 -123 105 -199 31 -90 56 -108 46 -35 -12 89 -34 148 -89 241 -64 107 -80 152 -101 270 -29 165 -15 143 -207 330 -131 126 -165 140 -273 106z"
       id="path342"
       style="fill:#9966cc" />
    <path
       d="M8160 3009 c-104 -28 -182 -66 -270 -132 -79 -60 -210 -184 -210 -200 0 -11 106 2 148 19 18 7 69 39 112 69 138 98 253 135 413 135 52 0 98 4 102 9 8 14 -28 45 -93 79 -78 41 -113 45 -202 21z"
       id="path344"
       style="fill:#009900" />
    <path
       d="M2716 2980 c-32 -21 -79 -44 -103 -51 -40 -11 -47 -10 -72 8 l-27 21 -24 -37 c-58 -85 -74 -131 -49 -146 6 -4 30 -4 53 -1 36 6 60 22 142 95 78 70 159 155 142 150 -2 0 -30 -18 -62 -39z"
       id="path346"
       style="fill:#00ffcc" />
    <path
       d="M5803 2990 c-32 -8 -85 -80 -79 -105 4 -11 15 -65 26 -120 44 -225 36 -203 112 -278 38 -38 72 -66 75 -63 3 3 8 40 10 83 4 79 29 183 65 281 30 81 33 54 3 -38 -34 -108 -43 -152 -51 -237 -7 -88 5 -118 80 -192 50 -49 56 -52 97 -49 l44 3 18 84 c17 83 53 179 62 169 3 -2 -6 -36 -19 -74 -28 -79 -43 -169 -30 -177 5 -3 44 -8 86 -12 l77 -7 32 46 c41 58 50 52 14 -9 -15 -26 -25 -48 -23 -49 1 -1 19 -9 38 -16 53 -21 111 -60 105 -70 -13 -20 15 -87 40 -98 28 -13 101 -6 111 10 8 12 -47 126 -96 198 -53 78 -64 105 -95 235 -45 189 -108 273 -269 355 -45 23 -101 54 -126 70 -25 16 -65 34 -90 39 -62 15 -191 28 -217 21z"
       id="path348"
       style="fill:#9966ff" />
    <path
       d="M8160 2854 c-90 -31 -192 -84 -240 -124 -41 -35 -54 -36 145 9 157 37 249 51 333 51 62 0 62 0 62 29 0 60 -3 61 -119 61 -87 0 -119 -5 -181 -26z"
       id="path350"
       style="fill:#009900" />
    <path
       d="M2572 2776 c-38 -27 -52 -31 -110 -31 l-67 0 -23 -69 c-20 -60 -21 -71 -9 -83 13 -13 18 -13 44 0 54 29 226 199 212 211 -2 2 -24 -11 -47 -28z"
       id="path352"
       style="fill:#00ffcc" />
    <path
       d="M8265 2761 c-117 -22 -264 -54 -326 -72 l-44 -13 45 -7 c58 -10 212 -11 383 -2 l137 6 0 49 c0 40 -3 48 -19 48 -10 0 -31 2 -47 5 -16 2 -74 -4 -129 -14z"
       id="path354"
       style="fill:#009900" />
    <path
       d="M7425 2687 c-46 -17 -55 -22 -36 -25 40 -6 90 8 101 28 13 24 11 24 -65 -3z"
       id="path356"
       style="fill:#009900" />
    <path
       d="M3095 2661 c-48 -28 -131 -98 -260 -220 -33 -32 -121 -111 -195 -177 -212 -189 -651 -622 -921 -908 -73 -77 -681 -683 -871 -869 -38 -36 -68 -67 -68 -70 0 -5 71 8 118 22 100 30 253 169 496 451 157 182 269 301 606 645 352 359 489 495 575 570 44 39 181 171 305 295 312 311 321 322 215 261z"
       id="path358"
       style="fill:#00ccff" />
    <path
       d="M4887 2673 c-21 -9 -36 -20 -34 -26 2 -6 43 -35 93 -65 127 -77 150 -97 191 -160 21 -32 50 -72 67 -89 31 -35 22 -44 -18 -18 -22 15 -26 14 -55 -11 -36 -30 -36 -31 -12 -63 17 -22 19 -23 42 -8 13 9 67 23 120 33 l97 17 63 -38 c79 -47 79 -47 79 -42 0 7 -148 157 -155 157 -3 0 -19 -10 -35 -22 -16 -12 -33 -18 -37 -13 -5 4 -2 10 6 13 24 8 51 41 51 63 0 19 -53 79 -69 79 -3 0 -17 -16 -31 -35 -34 -47 -46 -44 -19 5 12 22 21 41 18 43 -23 20 -100 67 -107 67 -5 0 -18 -12 -28 -27 -20 -31 -32 -16 -14 17 14 26 0 45 -55 75 -35 18 -38 18 -50 2 -16 -22 -28 -22 -21 1 6 17 -10 38 -39 54 -5 3 -27 -1 -48 -9z"
       id="path360"
       style="fill:#cc9900" />
    <path
       d="M7738 2663 c-27 -2 -48 -8 -48 -13 0 -15 162 -86 246 -109 177 -47 487 -69 513 -37 7 9 11 40 9 78 l-3 63 -220 -3 c-140 -2 -245 1 -290 8 -85 15 -144 19 -207 13z"
       id="path362"
       style="fill:#009900" />
    <path
       d="M6635 2649 c-10 -15 1 -23 20 -15 9 3 13 10 10 16 -8 13 -22 13 -30 -1z"
       id="path364"
       style="fill:#ff9900" />
    <path
       d="M7522 2642 c-9 -6 -7 -13 10 -28 47 -41 59 -45 180 -64 154 -24 179 -33 324 -117 l118 -68 96 0 c112 0 172 21 196 68 9 16 14 31 12 33 -3 2 -72 5 -154 8 -241 6 -431 50 -586 135 -62 34 -84 41 -129 41 -30 0 -60 -4 -67 -8z"
       id="path366"
       style="fill:#009900" />
    <path
       d="M7347 2631 c-17 -6 -16 -8 5 -28 13 -12 36 -26 51 -32 34 -13 137 -15 137 -2 0 5 -16 23 -35 40 -31 27 -43 31 -88 30 -29 0 -60 -4 -70 -8z"
       id="path368"
       style="fill:#009900" />
    <path
       d="M4685 2605 c-49 -13 -103 -28 -118 -34 l-29 -11 52 -60 c69 -79 96 -100 134 -100 84 0 217 -29 263 -56 75 -45 79 -46 112 -18 20 17 27 30 24 44 -8 32 -88 115 -140 147 -106 65 -169 101 -188 106 -11 3 -60 -5 -110 -18z"
       id="path370"
       style="fill:#663300" />
    <path
       d="M7281 2611 c-20 -13 -6 -28 29 -33 34 -5 38 2 12 25 -21 19 -22 20 -41 8z"
       id="path372"
       style="fill:#009900" />
    <path
       d="M2896 2575 c-84 -51 -182 -121 -251 -180 -135 -116 -207 -167 -254 -181 -27 -8 -62 -21 -78 -29 -15 -8 -40 -15 -54 -15 -30 0 -109 -40 -152 -76 -30 -25 -61 -31 -72 -14 -10 16 32 146 72 222 19 36 67 106 106 155 55 69 64 90 17 43 -3 -3 -59 -54 -125 -114 -66 -60 -306 -296 -534 -525 -718 -723 -821 -842 -1039 -1211 -91 -154 -101 -181 -86 -238 8 -28 71 -62 116 -62 52 1 114 34 207 113 87 73 784 767 1189 1183 239 245 528 522 762 730 190 169 257 234 244 234 -5 0 -36 -16 -68 -35z"
       id="path374"
       style="fill:#66cc33" />
    <path
       d="M6732 2594 c4 -21 22 -23 26 -1 2 10 -3 17 -13 17 -10 0 -15 -6 -13 -16z"
       id="path376"
       style="fill:#ff9900" />
    <path
       d="M2436 2575 c-11 -8 -35 -15 -53 -15 -22 0 -44 -10 -68 -31 -49 -43 -150 -180 -187 -253 -25 -50 -68 -159 -68 -173 0 -11 23 2 61 36 52 45 115 74 145 67 14 -4 37 5 65 24 25 17 52 27 64 25 22 -5 40 7 196 134 57 46 121 95 142 109 20 14 36 27 34 28 -2 2 -32 -8 -67 -22 -36 -14 -88 -28 -117 -31 -47 -5 -57 -3 -79 17 -14 14 -27 40 -30 62 -7 42 -10 44 -38 23z"
       id="path378"
       style="fill:#00ffcc" />
    <path
       d="M6595 2570 c-9 -15 4 -50 20 -50 18 0 28 30 14 46 -14 17 -25 18 -34 4z"
       id="path380"
       style="fill:#ff9900" />
    <path
       d="M6780 2561 c0 -20 13 -41 25 -41 23 0 29 22 10 37 -22 15 -35 17 -35 4z"
       id="path382"
       style="fill:#ff9900" />
    <path
       d="M7170 2550 c-44 -25 -183 -70 -215 -70 -36 0 -59 -40 -51 -87 4 -21 10 -61 12 -90 l6 -52 -43 -21 c-36 -19 -48 -21 -78 -11 -19 5 -37 8 -39 6 -3 -2 0 -44 7 -93 6 -49 11 -103 11 -121 0 -24 13 -52 45 -97 59 -83 85 -144 92 -222 7 -72 26 -102 128 -194 161 -147 325 -209 565 -211 127 -1 169 17 235 104 40 52 49 73 54 118 5 50 10 58 47 84 29 20 64 32 130 43 103 18 185 52 232 97 30 29 32 36 32 97 0 37 -7 89 -15 116 -8 27 -20 80 -25 119 -22 146 -118 249 -362 384 -84 46 -150 59 -375 71 -177 10 -259 21 -338 44 -11 3 -35 -3 -55 -14z m330 -195 c357 -31 504 -79 624 -202 31 -31 53 -59 51 -61 -2 -3 -33 22 -69 55 -134 126 -260 161 -714 202 -62 6 -120 15 -130 21 -13 9 -8 10 23 6 22 -3 119 -12 215 -21z m-396 -128 c89 -76 160 -122 369 -237 92 -51 166 -95 163 -97 -6 -7 -335 173 -428 234 -37 24 -97 73 -135 109 -81 78 -65 73 31 -9z m577 -42 c164 -59 416 -238 480 -341 34 -55 16 -60 -19 -6 -78 121 -305 274 -539 363 -35 13 -63 27 -63 31 0 4 24 -2 53 -13 28 -12 68 -27 88 -34z m-733 -102 c16 -27 53 -93 82 -148 78 -147 123 -210 219 -306 121 -120 183 -149 334 -160 l112 -7 -120 2 c-118 2 -121 3 -192 40 -83 44 -199 152 -261 243 -37 54 -212 366 -212 378 0 13 10 2 38 -42z"
       id="path384"
       style="fill:#9966ff" />
    <path
       d="M6710 2538 c0 -23 12 -58 20 -58 10 0 31 50 25 61 -9 14 -45 11 -45 -3z"
       id="path386"
       style="fill:#ff9900" />
    <path
       d="M6850 2506 c0 -21 29 -41 41 -29 7 7 5 16 -6 27 -20 20 -35 21 -35 2z"
       id="path388"
       style="fill:#ff9900" />
    <path
       d="M6656 2501 c-9 -14 4 -41 19 -41 18 0 26 15 19 34 -7 17 -29 21 -38 7z"
       id="path390"
       style="fill:#ff9900" />
    <path
       d="M6764 2485 c-7 -18 23 -68 36 -60 18 11 11 54 -10 65 -16 9 -22 8 -26 -5z"
       id="path392"
       style="fill:#ff9900" />
    <path
       d="M6621 2464 c0 -11 3 -14 6 -6 3 7 2 16 -1 19 -3 4 -6 -2 -5 -13z"
       id="path394"
       style="fill:#ff9900" />
    <path
       d="M6840 2447 c0 -8 -3 -22 -6 -31 -4 -11 0 -16 14 -16 28 0 34 25 11 46 -17 15 -19 15 -19 1z"
       id="path396"
       style="fill:#ff9900" />
    <path
       d="M6660 2419 c0 -5 5 -7 10 -4 6 3 10 8 10 11 0 2 -4 4 -10 4 -5 0 -10 -5 -10 -11z"
       id="path398"
       style="fill:#ff9900" />
    <path
       d="M6750 2380 c0 -21 4 -30 13 -27 6 2 12 14 12 27 0 13 -6 25 -12 28 -9 2 -13 -7 -13 -28z"
       id="path400"
       style="fill:#ff9900" />
    <path
       d="M6697 2394 c-7 -8 4 -44 14 -44 12 0 12 37 0 44 -4 3 -11 3 -14 0z"
       id="path402"
       style="fill:#ff9900" />
    <path
       d="M6810 2365 c0 -10 7 -15 18 -13 21 4 19 22 -2 26 -10 2 -16 -3 -16 -13z"
       id="path404"
       style="fill:#ff9900" />
    <path
       d="M4521 2361 c-50 -13 -83 -42 -114 -99 -33 -61 -42 -66 -135 -86 -120 -25 -130 -33 -234 -201 -111 -179 -113 -183 -115 -330 -2 -146 12 -251 56 -412 71 -260 99 -312 247 -458 108 -107 186 -169 234 -183 88 -28 219 -42 390 -42 l177 0 62 108 c34 59 67 114 74 123 17 22 100 43 140 35 l34 -6 2 108 c1 97 6 125 47 268 41 142 46 170 47 264 0 78 -5 128 -22 194 -31 119 -97 276 -152 361 -68 103 -181 228 -254 280 -56 40 -74 48 -152 60 -113 19 -288 27 -332 16z m359 -440 c210 -261 266 -357 317 -541 22 -80 48 -288 38 -298 -8 -8 -13 21 -19 109 -6 95 -47 245 -95 352 -39 87 -99 179 -192 294 -141 175 -246 308 -253 323 -14 28 48 -45 204 -239z m-335 -41 c63 -230 211 -472 448 -733 81 -90 96 -109 97 -121 0 -11 -102 100 -207 225 -189 226 -328 480 -368 671 -16 75 -19 119 -5 78 5 -14 20 -68 35 -120z m-300 -195 c47 -139 100 -254 156 -336 60 -90 236 -262 354 -349 148 -108 205 -152 205 -157 0 -18 -310 217 -401 304 -85 82 -189 212 -234 295 -30 56 -119 286 -130 338 -13 65 11 17 50 -95z m-115 -432 c47 -155 81 -221 157 -303 81 -87 165 -148 275 -199 101 -47 157 -61 240 -61 35 0 70 -5 78 -11 11 -7 -12 -9 -80 -6 -139 7 -277 60 -408 159 -92 68 -165 150 -206 228 -45 87 -114 300 -97 300 4 0 23 -48 41 -107z"
       id="path406"
       style="fill:#ff66ff" />
    <path
       d="M8420 2345 c-28 -31 -94 -64 -127 -65 -35 0 -37 -18 -4 -68 17 -26 35 -72 41 -102 6 -30 20 -96 32 -147 14 -61 19 -113 16 -154 -4 -60 -7 -64 -54 -107 -62 -57 -105 -76 -229 -101 -128 -26 -148 -41 -156 -115 -5 -41 -13 -63 -30 -79 -13 -13 -41 -44 -61 -69 -55 -67 -107 -88 -223 -88 -179 0 -335 35 -447 101 -36 21 -108 77 -158 124 -51 47 -96 85 -99 85 -8 -1 -89 -169 -101 -209 -5 -18 -6 -39 -3 -47 3 -8 42 -43 87 -78 44 -35 129 -112 188 -170 l108 -106 55 0 c49 0 59 -4 93 -35 78 -70 118 -71 207 -5 37 28 73 50 79 50 6 0 77 -7 158 -15 168 -16 190 -24 274 -105 109 -105 159 -208 184 -379 7 -44 16 -81 21 -81 5 0 9 5 9 10 0 29 70 147 121 205 l59 65 -1 598 c-1 328 -4 713 -8 855 l-6 259 -25 -27z"
       id="path408"
       style="fill:none" />
    <path
       d="M8265 2341 c-45 -4 -65 -9 -56 -15 20 -13 95 -9 133 8 36 16 34 16 -77 7z"
       id="path410"
       style="fill:#009900" />
    <path
       d="M6850 2320 c-9 -18 -8 -25 6 -41 22 -24 46 -7 42 30 -4 33 -33 39 -48 11z"
       id="path412"
       style="fill:#ff9900" />
    <path
       d="M6742 2307 c-17 -20 23 -56 41 -38 8 8 9 16 1 28 -14 23 -29 26 -42 10z"
       id="path414"
       style="fill:#ff9900" />
    <path
       d="M6810 2261 c0 -11 5 -23 10 -26 6 -3 10 3 10 14 0 11 -4 23 -10 26 -5 3 -10 -3 -10 -14z"
       id="path416"
       style="fill:#ff9900" />
    <path
       d="M5265 2221 c-56 -11 -81 -21 -83 -32 -1 -8 22 -47 53 -85 31 -38 80 -118 111 -179 38 -78 68 -122 100 -152 25 -24 50 -43 54 -43 5 0 14 17 21 38 17 54 56 129 101 195 22 33 37 64 35 71 -12 31 -268 207 -297 205 -8 -1 -51 -9 -95 -18z"
       id="path418"
       style="fill:#663300" />
    <path
       d="M6097 2229 c-160 -17 -390 -184 -487 -352 -40 -70 -84 -210 -104 -332 -16 -93 -50 -222 -112 -425 -34 -110 -46 -280 -20 -280 25 0 76 -29 76 -43 0 -6 19 -20 41 -29 22 -10 43 -25 46 -35 3 -10 21 -31 40 -47 30 -25 42 -29 91 -27 72 2 229 27 302 47 71 20 123 51 235 136 100 76 224 141 358 187 156 52 179 80 206 240 15 85 29 133 65 209 40 85 46 107 46 163 0 98 -19 156 -85 250 -91 131 -89 129 -161 129 -83 0 -115 25 -123 96 l-6 49 -95 31 c-105 35 -202 45 -313 33z m163 -137 c0 -4 -30 -13 -66 -20 -138 -26 -279 -114 -367 -230 -97 -126 -114 -169 -197 -497 -58 -230 -94 -345 -109 -345 -5 0 2 29 15 64 12 35 50 172 83 305 66 263 104 360 186 469 57 76 121 133 205 182 80 48 250 97 250 72z m129 -186 c-2 -2 -42 -23 -89 -46 -185 -93 -248 -150 -340 -309 -34 -58 -96 -166 -138 -239 -82 -141 -159 -252 -174 -252 -6 0 6 21 26 48 43 57 148 228 206 337 112 207 165 277 259 339 79 52 242 138 249 131 3 -3 3 -7 1 -9z m152 -215 c-31 -78 -89 -189 -139 -266 -66 -102 -160 -191 -307 -287 -112 -74 -290 -216 -310 -248 -3 -5 -11 -10 -17 -10 -34 0 162 166 317 269 155 102 233 176 310 294 48 74 124 223 149 291 3 10 9 17 12 14 2 -3 -4 -28 -15 -57z m170 -368 c-20 -38 -71 -74 -213 -151 -167 -92 -214 -125 -348 -247 -85 -78 -190 -148 -190 -128 0 5 21 19 46 32 25 14 91 67 146 118 130 122 200 169 407 275 35 18 85 52 110 75 52 48 55 50 42 26z"
       id="path420"
       style="fill:#ff66ff" />
    <path
       d="M1550 1898 c-30 -29 -127 -119 -215 -202 -246 -231 -536 -518 -657 -651 -162 -177 -278 -375 -263 -452 3 -18 9 -33 13 -33 9 0 78 105 168 254 118 196 330 441 733 849 272 274 341 347 221 235z"
       id="path422"
       style="fill:#00ccff" />
    <path
       d="M2611 1804 c-22 -26 -41 -57 -41 -70 0 -54 95 -264 120 -264 3 0 1 35 -6 78 -6 42 -14 126 -18 186 -3 60 -7 111 -10 113 -2 2 -22 -17 -45 -43z"
       id="path424"
       style="fill:#336600" />
    <path
       d="M2684 1739 c8 -117 24 -237 36 -258 5 -9 12 0 23 28 20 48 24 226 6 263 -6 13 -25 34 -41 47 l-31 25 7 -105z"
       id="path426"
       style="fill:#336600" />
    <path
       d="M2778 1638 c-4 -95 -9 -123 -33 -179 -19 -47 -26 -75 -21 -94 9 -35 25 -28 63 28 34 51 49 110 57 227 5 70 4 76 -21 102 -15 16 -30 28 -34 28 -4 0 -9 -51 -11 -112z"
       id="path428"
       style="fill:#336600" />
    <path
       d="M5443 1700 c3 -14 9 -46 12 -72 9 -60 25 -53 25 11 0 36 -5 52 -21 67 -22 19 -22 19 -16 -6z"
       id="path430"
       style="fill:#663300" />
    <path
       d="M2520 1680 l-22 -31 22 -72 c27 -89 85 -202 117 -226 25 -20 58 -18 67 5 9 24 -3 57 -44 115 -35 51 -100 191 -100 218 0 23 -20 19 -40 -9z"
       id="path432"
       style="fill:#336600" />
    <path
       d="M2869 1650 c-8 -127 -34 -225 -74 -284 -14 -20 -25 -39 -25 -42 0 -4 86 -44 96 -44 2 0 15 22 29 50 37 73 56 155 46 199 -9 41 -70 144 -72 121z"
       id="path434"
       style="fill:#336600" />
    <path
       d="M3425 1598 c-53 -28 -58 -36 -96 -148 -25 -76 -33 -117 -37 -206 -3 -69 -1 -118 6 -130 9 -17 15 -10 42 50 32 73 133 367 145 424 8 39 -2 40 -60 10z"
       id="path436"
       style="fill:#006600" />
    <path
       d="M2463 1573 c-22 -53 -19 -83 18 -166 59 -131 91 -158 139 -119 l23 18 -38 50 c-41 52 -78 130 -102 207 -7 26 -16 47 -19 47 -3 0 -12 -17 -21 -37z"
       id="path438"
       style="fill:#336600" />
    <path
       d="M3505 1598 c-2 -7 -11 -40 -19 -73 -20 -79 -64 -206 -115 -334 -23 -57 -40 -105 -38 -107 10 -10 84 25 121 57 77 68 134 213 123 312 -6 46 -49 157 -62 157 -3 0 -8 -6 -10 -12z"
       id="path440"
       style="fill:#006600" />
    <path
       d="M3250 1500 c-81 -56 -85 -60 -97 -111 -23 -100 -27 -247 -9 -319 16 -61 57 -140 74 -140 4 0 22 29 41 64 32 63 33 66 21 116 -20 83 -8 218 30 338 17 57 30 105 28 107 -1 1 -41 -23 -88 -55z"
       id="path442"
       style="fill:#006600" />
    <path
       d="M2427 1464 c-4 -4 -7 -44 -7 -89 0 -60 4 -86 15 -95 17 -14 95 -26 95 -15 0 4 -14 32 -31 62 -18 31 -39 75 -49 99 -9 25 -19 41 -23 38z"
       id="path444"
       style="fill:#336600" />
    <path
       d="M2956 1438 c-3 -18 -19 -62 -36 -96 -16 -35 -30 -69 -30 -76 0 -7 14 -22 30 -35 l30 -22 25 53 c27 57 31 111 14 171 -12 46 -25 47 -33 5z"
       id="path446"
       style="fill:#336600" />
    <path
       d="M3104 1383 c-36 -49 -43 -68 -54 -156 -11 -84 -11 -91 20 -209 32 -126 72 -228 88 -228 5 0 20 25 32 56 l23 55 -22 27 c-12 15 -34 52 -48 82 -23 47 -27 69 -29 160 -1 58 3 135 10 173 7 37 9 67 6 67 -3 0 -15 -12 -26 -27z"
       id="path448"
       style="fill:#006600" />
    <path
       d="M3594 1372 c-1 -21 -15 -69 -30 -107 -40 -95 -108 -165 -189 -192 -57 -18 -62 -23 -92 -79 -18 -32 -33 -63 -33 -67 0 -13 71 3 133 31 77 34 162 125 216 233 23 45 41 91 41 103 0 28 -29 116 -38 116 -4 0 -8 -17 -8 -38z"
       id="path450"
       style="fill:#006600" />
    <path
       d="M2670 1275 c-26 -27 -105 -55 -154 -54 -17 0 -71 10 -121 23 -76 20 -93 21 -110 10 -11 -7 -69 -27 -130 -44 -157 -45 -207 -84 -261 -206 -70 -158 -71 -332 -5 -627 22 -97 43 -183 47 -190 4 -6 32 -42 63 -79 l55 -68 66 0 c37 0 69 3 72 6 3 3 -12 35 -33 72 -52 89 -105 218 -119 290 -7 35 -10 117 -8 203 4 126 8 154 32 227 35 101 53 110 21 9 -47 -148 -56 -326 -23 -467 7 -30 44 -118 83 -195 l70 -140 75 0 c69 0 75 2 74 20 -1 11 -16 117 -34 235 -44 297 -44 519 0 634 19 51 22 20 3 -40 -35 -117 -20 -442 36 -754 l17 -95 64 -3 c36 -1 70 1 76 5 16 11 111 203 150 303 61 158 88 283 87 400 0 61 -7 133 -17 173 -19 79 -20 95 -7 82 5 -6 17 -48 25 -94 42 -222 -1 -431 -154 -743 -63 -129 -63 -128 20 -128 47 0 48 1 121 81 134 148 204 254 240 369 13 41 18 48 18 27 2 -75 -92 -235 -217 -370 -45 -49 -82 -93 -82 -98 0 -5 43 -9 96 -9 l95 0 84 85 c131 134 206 281 209 410 1 93 -6 115 -58 174 -51 57 -49 53 -75 189 -25 127 -64 204 -141 275 -54 50 -182 127 -212 127 -8 0 -25 -11 -38 -25z"
       id="path452"
       style="fill:#9900ff" />
    <path
       d="M3005 1236 c-24 -54 -24 -58 -9 -82 9 -13 19 -22 21 -20 7 6 22 150 17 155 -2 2 -15 -22 -29 -53z"
       id="path454"
       style="fill:#006600" />
    <path
       d="M3618 1177 c-43 -82 -120 -174 -176 -209 -20 -13 -77 -36 -127 -53 l-89 -30 -19 -49 c-27 -73 -21 -79 71 -74 98 6 170 40 247 116 115 114 172 258 137 351 -6 17 -13 8 -44 -52z"
       id="path456"
       style="fill:#006600" />
    <path
       d="M6800 1213 c0 -16 -12 -53 -26 -83 l-26 -55 33 -25 c18 -14 65 -58 105 -97 39 -40 77 -73 84 -73 6 0 42 13 78 29 37 16 74 31 82 33 27 8 -282 298 -317 298 -7 0 -13 -12 -13 -27z"
       id="path458"
       style="fill:#663300" />
    <path
       d="M3955 978 c-55 -90 -132 -197 -173 -240 -35 -37 -35 -38 -16 -53 10 -8 24 -14 29 -15 17 0 148 165 198 251 25 43 26 48 14 83 l-13 38 -39 -64z"
       id="path460"
       style="fill:#663300" />
    <path
       d="M6560 1000 c-140 -49 -230 -96 -331 -172 -188 -142 -217 -153 -512 -189 -102 -12 -129 -25 -120 -58 10 -39 28 -44 146 -39 106 5 121 8 233 53 65 26 198 85 294 130 96 46 200 89 231 95 67 15 247 8 297 -10 51 -19 33 -21 -44 -5 -163 34 -251 16 -511 -108 -109 -52 -247 -112 -308 -133 -95 -32 -125 -38 -220 -41 -155 -6 -155 -6 -155 -52 0 -40 -11 -51 -49 -51 -21 0 -71 -37 -71 -51 0 -6 35 -48 78 -93 42 -46 92 -102 110 -124 18 -23 37 -42 42 -42 5 0 34 -16 64 -35 53 -34 58 -35 153 -35 l98 1 -112 109 c-62 60 -122 111 -133 115 -11 3 -20 11 -20 16 0 22 69 -30 174 -132 l114 -109 283 2 284 3 -58 27 c-32 15 -95 50 -140 77 -162 97 -253 130 -466 171 -101 20 -119 25 -110 34 7 7 232 -41 320 -68 46 -14 134 -53 194 -86 61 -33 155 -83 209 -110 l99 -50 221 1 c122 0 243 4 270 7 l50 7 17 95 c9 52 22 109 29 125 21 52 17 162 -8 244 -40 128 -102 211 -232 311 -41 32 -95 79 -120 105 -68 72 -118 105 -154 104 -17 -1 -78 -18 -136 -39z m174 -496 c96 -19 246 -65 229 -71 -7 -3 -48 7 -90 21 -114 37 -193 49 -333 49 -102 0 -146 -4 -238 -27 -121 -28 -260 -45 -381 -46 -122 0 -72 13 81 21 93 5 194 18 288 38 80 17 156 32 170 35 39 7 187 -4 274 -20z"
       id="path462"
       style="fill:#ff66ff" />
    <path
       d="M3625 969 c-52 -85 -124 -152 -202 -191 -54 -26 -80 -33 -159 -37 l-95 -6 26 -35 25 -34 126 1 c106 2 130 5 157 22 67 42 126 145 150 261 8 41 14 76 13 78 -2 1 -20 -26 -41 -59z"
       id="path464"
       style="fill:#006600" />
    <path
       d="M3983 833 c-35 -49 -74 -101 -89 -118 -58 -66 -58 -68 -25 -127 17 -30 31 -60 31 -67 0 -6 -15 -34 -34 -62 -54 -77 -57 -169 -10 -261 13 -25 14 -38 4 -79 -17 -69 -11 -79 49 -79 59 0 66 8 74 92 9 98 56 177 172 294 76 77 117 111 163 133 l62 29 -70 57 c-79 65 -211 201 -237 246 -10 16 -20 29 -23 29 -3 0 -33 -39 -67 -87z"
       id="path466"
       style="fill:#663300" />
    <path
       d="M7180 910 c-40 -7 -148 -45 -159 -56 -2 -2 28 -36 68 -75 111 -110 172 -252 172 -399 1 -63 -3 -85 -35 -200 -8 -30 -16 -73 -18 -95 l-3 -40 65 -3 c35 -2 75 -1 87 3 19 4 21 9 13 30 -27 72 -91 517 -76 532 5 6 13 -43 31 -192 17 -144 37 -257 58 -325 l14 -45 199 -3 c109 -1 204 0 210 2 8 3 -9 61 -48 172 -74 210 -143 504 -119 504 5 0 13 -21 16 -47 17 -121 52 -253 113 -435 l67 -198 128 0 127 0 0 78 c0 142 -35 265 -126 453 -35 71 -59 129 -53 129 13 0 133 -252 152 -320 26 -91 47 -219 47 -281 l0 -59 71 0 72 0 -7 98 c-19 265 -49 443 -92 531 -32 66 -140 178 -201 209 -31 16 -75 24 -181 33 l-140 11 -63 -51 c-50 -40 -71 -51 -99 -51 -43 0 -102 27 -154 69 -40 32 -56 35 -136 21z"
       id="path468"
       style="fill:#cc99ff" />
    <path
       d="M5353 784 c-19 -30 -9 -57 25 -62 30 -5 57 39 42 67 -15 29 -46 26 -67 -5z"
       id="path470"
       style="fill:#ff6600" />
    <path
       d="M5260 766 c0 -44 16 -54 43 -28 20 21 20 22 2 42 -28 31 -45 25 -45 -14z"
       id="path472"
       style="fill:#ff6600" />
    <path
       d="M3120 786 c0 -2 7 -9 15 -16 13 -11 14 -10 9 4 -5 14 -24 23 -24 12z"
       id="path474"
       style="fill:#006600" />
    <path
       d="M5181 761 c-13 -23 -6 -47 17 -56 23 -8 43 21 33 48 -11 29 -37 33 -50 8z"
       id="path476"
       style="fill:#ff6600" />
    <path
       d="M5452 738 c-30 -30 9 -69 44 -43 15 11 17 17 8 32 -14 23 -36 27 -52 11z"
       id="path478"
       style="fill:#ff6600" />
    <path
       d="M5160 685 c13 -14 26 -23 28 -20 7 7 -29 45 -41 45 -6 0 0 -11 13 -25z"
       id="path480"
       style="fill:#ff6600" />
    <path
       d="M5326 696 c3 -9 11 -16 16 -16 13 0 5 23 -10 28 -7 2 -10 -2 -6 -12z"
       id="path482"
       style="fill:#ff6600" />
    <path
       d="M5267 683 c-13 -13 -7 -51 10 -57 26 -10 48 17 34 43 -12 21 -31 27 -44 14z"
       id="path484"
       style="fill:#ff6600" />
    <path
       d="M5513 664 c-7 -19 13 -34 45 -34 27 0 28 11 4 33 -23 21 -41 22 -49 1z"
       id="path486"
       style="fill:#ff6600" />
    <path
       d="M5114 649 c-21 -23 -11 -51 21 -57 25 -5 35 16 23 49 -12 34 -19 36 -44 8z"
       id="path488"
       style="fill:#ff6600" />
    <path
       d="M3605 635 c-79 -25 -81 -25 -180 -10 -82 12 -109 12 -150 2 -48 -12 -49 -13 -52 -52 -9 -107 -26 -181 -54 -238 -41 -82 -106 -171 -168 -231 -27 -27 -48 -53 -45 -58 3 -4 72 -8 154 -8 l148 0 49 39 c100 80 159 168 200 299 28 91 42 103 23 20 -24 -104 -77 -197 -160 -280 l-78 -78 189 0 189 0 16 26 c10 14 44 44 77 66 50 34 58 43 52 61 -35 110 -39 134 -27 188 11 49 25 77 64 131 10 13 7 24 -17 58 -60 87 -111 101 -230 65z"
       id="path490"
       style="fill:#9900ff" />
    <path
       d="M5360 645 c-9 -11 -7 -19 14 -39 30 -31 60 -26 50 8 -14 45 -41 59 -64 31z"
       id="path492"
       style="fill:#ff6600" />
    <path
       d="M5450 640 c0 -13 5 -20 13 -17 6 2 12 10 12 17 0 7 -6 15 -12 18 -8 2 -13 -5 -13 -18z"
       id="path494"
       style="fill:#ff6600" />
    <path
       d="M5194 606 c-10 -27 5 -68 24 -64 24 5 24 71 -1 76 -9 2 -20 -4 -23 -12z"
       id="path496"
       style="fill:#ff6600" />
    <path
       d="M5486 602 c-8 -13 52 -64 72 -60 39 8 14 54 -34 64 -18 3 -34 1 -38 -4z"
       id="path498"
       style="fill:#ff6600" />
    <path
       d="M5077 583 c-4 -3 -7 -15 -7 -25 0 -13 7 -18 25 -18 14 0 25 4 25 8 0 14 -36 43 -43 35z"
       id="path500"
       style="fill:#ff6600" />
    <path
       d="M5280 575 c-19 -22 -1 -69 26 -73 39 -6 39 45 1 76 -11 10 -17 9 -27 -3z"
       id="path502"
       style="fill:#ff6600" />
    <path
       d="M8424 568 c-96 -105 -167 -335 -148 -480 l7 -48 88 0 89 0 -1 238 c0 130 -4 254 -7 275 l-7 39 -21 -24z"
       id="path504"
       style="fill:#cc99ff" />
    <path
       d="M4426 562 c-3 -5 -26 -15 -50 -21 -24 -6 -66 -28 -92 -49 -69 -55 -187 -182 -217 -233 -28 -47 -57 -146 -57 -191 l0 -28 154 0 154 0 26 44 c47 81 147 155 274 202 58 22 317 85 347 84 30 -1 -34 -21 -143 -45 -209 -45 -315 -91 -398 -173 -65 -65 -82 -91 -63 -103 8 -5 103 -9 211 -9 166 0 198 2 206 15 16 29 117 128 190 187 81 64 109 78 47 22 -202 -181 -228 -208 -209 -215 11 -4 103 -8 205 -8 l186 -1 9 52 8 53 4 -52 3 -53 97 0 c115 0 127 5 112 45 -6 15 -8 30 -5 33 3 3 13 -13 22 -36 l16 -42 79 0 c64 0 80 3 85 17 11 28 -45 118 -120 193 -59 58 -77 70 -104 70 -20 0 -41 8 -53 20 -25 25 -26 25 -33 0 -9 -34 -67 -27 -119 15 -23 20 -52 42 -63 51 -11 8 -30 22 -43 32 -13 10 -24 29 -25 47 l-2 30 -210 7 c-182 5 -316 20 -401 44 -12 3 -24 1 -28 -4z"
       id="path506"
       style="fill:#ff66ff" />
    <path
       d="M5432 557 c-7 -7 -7 -18 -2 -27 7 -11 11 -11 24 -1 9 8 16 20 16 27 0 18 -24 18 -38 1z"
       id="path508"
       style="fill:#ff6600" />
    <path
       d="M5164 515 c-8 -19 3 -35 25 -35 27 0 33 12 14 32 -20 22 -32 23 -39 3z"
       id="path510"
       style="fill:#ff6600" />
    <path
       d="M5366 511 c-3 -5 3 -19 13 -32 16 -20 21 -21 34 -10 13 10 14 16 4 32 -12 20 -42 26 -51 10z"
       id="path512"
       style="fill:#ff6600" />
    <path
       d="M5471 506 c-16 -19 -3 -45 26 -52 36 -9 50 9 29 40 -18 29 -38 33 -55 12z"
       id="path514"
       style="fill:#ff6600" />
    <path
       d="M5096 493 c-9 -22 10 -41 25 -26 13 13 5 43 -10 43 -5 0 -12 -8 -15 -17z"
       id="path516"
       style="fill:#ff6600" />
    <path
       d="M5240 500 c0 -5 5 -10 11 -10 5 0 7 5 4 10 -3 6 -8 10 -11 10 -2 0 -4 -4 -4 -10z"
       id="path518"
       style="fill:#ff6600" />
    <path
       d="M5275 459 c-8 -12 23 -49 42 -49 7 0 13 8 13 18 0 33 -40 56 -55 31z"
       id="path520"
       style="fill:#ff6600" />
    <path
       d="M5160 431 c0 -15 6 -21 21 -21 14 0 19 5 17 17 -5 26 -38 29 -38 4z"
       id="path522"
       style="fill:#ff6600" />
    <path
       d="M5230 439 c0 -5 5 -7 10 -4 6 3 10 8 10 11 0 2 -4 4 -10 4 -5 0 -10 -5 -10 -11z"
       id="path524"
       style="fill:#ff6600" />
    <path
       d="M5427 443 c-12 -11 -8 -23 8 -23 8 0 15 7 15 15 0 16 -12 20 -23 8z"
       id="path526"
       style="fill:#ff6600" />
    <path
       d="M5361 402 c-7 -14 -6 -25 5 -40 31 -45 70 -13 40 33 -20 30 -32 32 -45 7z"
       id="path528"
       style="fill:#ff6600" />
    <path
       d="M5234 385 c-4 -9 0 -23 9 -32 21 -21 49 -9 45 19 -4 28 -45 38 -54 13z"
       id="path530"
       style="fill:#ff6600" />
    <path
       d="M1320 310 c-25 -5 -87 -30 -138 -56 -76 -38 -105 -60 -162 -121 -39 -41 -70 -79 -70 -84 0 -11 134 -11 355 1 115 6 252 6 423 -2 190 -9 255 -9 264 0 12 12 -25 64 -112 154 -42 45 -52 50 -160 79 -125 33 -312 47 -400 29z"
       id="path532"
       style="fill:#9900ff" />
    <path
       d="M3785 123 c-34 -17 -85 -62 -85 -75 0 -4 24 -8 54 -8 l53 0 7 47 c3 25 5 47 4 49 -2 1 -16 -5 -33 -13z"
       id="path534"
       style="fill:#663300" />
    <path
       d="M5670 56 c0 -2 7 -6 15 -10 8 -3 15 -1 15 4 0 6 -7 10 -15 10 -8 0 -15 -2 -15 -4z"
       id="path536"
       style="fill:#cc66cc" />
  </g>
</svg>
