<?xml version="1.0" standalone="no"?>
<!DOCTYPE svg PUBLIC "-//W3C//DTD SVG 20010904//EN"
 "http://www.w3.org/TR/2001/REC-SVG-20010904/DTD/svg10.dtd">
<svg version="1.0" xmlns="http://www.w3.org/2000/svg"
 width="1024.000000pt" height="1024.000000pt" viewBox="0 0 1024.000000 1024.000000"
 preserveAspectRatio="xMidYMid meet">
<metadata>
Created by potrace 1.14, written by Peter Selinger 2001-2017
</metadata>
<g transform="translate(0.000000,1024.000000) scale(0.100000,-0.100000)"
fill="#000000" stroke="none">
<path d="M5015 9970 c-55 -50 -105 -90 -111 -90 -6 0 -54 -7 -107 -15 -78 -11
-135 -12 -295 -5 -327 16 -323 16 -384 -18 -29 -16 -119 -64 -199 -106 -160
-83 -145 -79 -534 -146 -157 -27 -219 -45 -482 -133 -172 -58 -303 -107 -303
-114 0 -7 40 -56 88 -110 48 -54 91 -104 95 -110 7 -12 -17 -27 -158 -103
-312 -167 -432 -234 -445 -249 -8 -10 -28 -77 -45 -149 -20 -90 -35 -134 -45
-137 -8 -2 -89 -25 -180 -49 -233 -64 -253 -70 -257 -82 -2 -6 111 -95 252
-197 247 -180 255 -186 223 -191 -18 -3 -253 -14 -523 -23 -419 -15 -490 -20
-492 -33 -1 -8 24 -37 55 -64 31 -27 100 -88 152 -135 52 -47 120 -108 151
-136 32 -27 58 -54 58 -59 1 -5 -43 -76 -96 -158 l-96 -149 26 -52 c15 -29 83
-155 151 -282 69 -126 122 -233 118 -237 -4 -3 -65 -24 -137 -46 -71 -22 -211
-66 -310 -97 -99 -32 -204 -64 -232 -73 -29 -8 -53 -20 -53 -26 0 -7 65 -92
145 -190 80 -98 145 -179 145 -181 0 -1 -51 -94 -113 -206 -62 -112 -133 -240
-157 -285 l-43 -80 90 -160 c50 -87 101 -176 113 -196 l21 -37 -68 -45 c-37
-24 -133 -84 -213 -134 -79 -49 -146 -94 -148 -100 -1 -5 52 -47 120 -92 68
-46 131 -90 141 -99 16 -16 4 -26 -213 -171 -126 -85 -230 -160 -230 -167 0
-7 21 -29 47 -50 26 -21 64 -54 85 -73 l38 -35 -160 -255 c-88 -140 -160 -259
-160 -265 1 -5 11 -113 24 -240 l23 -230 -134 -540 -135 -540 88 -285 c48
-157 125 -409 171 -560 47 -151 88 -279 93 -284 6 -6 40 14 87 50 107 83 245
187 538 410 138 105 306 234 375 287 69 53 128 97 131 97 3 0 -5 -73 -17 -162
-62 -441 -88 -648 -83 -653 3 -3 39 -1 80 5 41 5 148 19 239 30 698 84 992
120 1031 126 35 5 36 4 59 -48 12 -29 35 -80 50 -113 15 -33 53 -118 85 -190
95 -217 104 -235 116 -235 6 0 122 86 257 191 135 106 252 192 259 193 7 1 62
-84 122 -189 59 -104 114 -190 122 -190 9 0 33 62 70 175 30 96 58 175 60 175
13 0 289 -230 293 -244 2 -9 19 -79 36 -156 18 -77 36 -144 40 -149 5 -5 59
31 122 80 62 48 118 91 124 96 8 5 76 -39 190 -123 l178 -131 84 -1 83 0 170
124 c93 68 174 124 180 124 6 0 40 -63 75 -140 70 -150 79 -164 94 -149 5 5
44 99 86 209 42 110 78 202 80 204 4 5 53 -38 203 -178 67 -64 128 -116 135
-116 7 0 11 24 11 70 0 103 -17 479 -21 487 -2 3 8 9 23 12 37 8 227 26 267
26 l32 0 12 -83 c6 -45 23 -154 37 -242 13 -88 25 -163 25 -167 0 -5 5 -8 12
-8 12 0 19 6 447 420 l273 265 47 -3 c25 -1 210 -23 411 -48 201 -24 460 -56
575 -70 116 -14 241 -29 280 -34 38 -5 74 -5 78 -1 5 5 -6 111 -23 237 -68
491 -78 569 -75 572 1 2 64 -43 138 -100 74 -57 197 -150 273 -208 76 -58 264
-201 418 -318 154 -118 285 -216 292 -219 12 -5 31 47 98 267 19 63 85 277
146 475 62 198 114 367 116 375 3 8 -56 257 -130 554 l-135 538 15 162 c8 88
19 196 23 240 l9 79 -97 156 c-54 86 -126 200 -160 255 -34 54 -61 102 -59
106 2 4 40 38 86 75 45 37 81 72 79 78 -2 6 -104 80 -228 164 -123 85 -225
157 -226 161 -1 4 60 49 136 101 77 51 137 99 135 105 -3 7 -31 28 -63 46
-124 74 -360 225 -361 231 0 4 50 94 111 200 106 185 110 194 96 219 -115 201
-297 544 -294 553 3 7 45 59 93 117 168 204 197 241 187 251 -6 6 -52 23 -104
39 -453 140 -629 196 -629 201 0 6 167 320 249 467 28 50 51 94 51 97 0 3 -20
36 -43 73 -24 37 -69 106 -99 153 l-56 86 215 193 c117 106 212 198 210 204
-3 11 -87 15 -802 41 -115 4 -218 11 -228 14 -14 5 2 23 80 86 54 44 166 135
250 202 84 68 154 127 158 132 11 18 -13 25 -330 91 -60 13 -114 27 -119 31
-5 5 -23 66 -41 136 l-31 128 -57 32 c-32 18 -99 54 -150 81 -184 97 -382 205
-399 217 -15 10 -8 24 63 128 45 65 79 123 76 130 -2 7 -124 52 -271 100 -248
83 -284 92 -560 142 l-295 53 -205 106 -204 107 -135 -7 -135 -7 -22 77 c-13
42 -27 79 -33 83 -5 3 -48 -33 -96 -79 l-86 -85 -60 8 c-178 24 -180 25 -282
115 -52 46 -95 84 -96 84 -1 -1 -47 -41 -102 -90z m84 -447 l-1 -468 -18 95
c-10 52 -37 201 -60 330 -22 129 -47 267 -55 305 l-14 70 68 68 c38 37 71 67
75 67 3 0 6 -210 5 -467z m116 405 c50 -44 69 -68 67 -82 -1 -12 -10 -59 -18
-106 -8 -47 -26 -146 -39 -220 -65 -368 -83 -461 -89 -467 -3 -3 -6 206 -6
465 0 260 3 472 8 472 4 0 39 -28 77 -62z m597 -235 c48 -148 90 -279 93 -293
5 -16 -9 -3 -37 35 -58 79 -262 366 -272 384 -6 9 11 33 55 77 35 35 66 64 69
64 3 0 45 -120 92 -267z m-850 -63 c20 -118 46 -269 58 -335 11 -66 23 -129
26 -140 4 -15 3 -16 -4 -5 -4 8 -40 121 -78 250 l-69 235 -87 90 c-47 49 -84
92 -82 94 7 8 147 29 174 28 23 -2 25 -7 62 -217z m468 205 c102 -12 102 -8 3
-109 -55 -56 -93 -104 -100 -126 -6 -19 -37 -120 -68 -225 -55 -185 -81 -261
-71 -205 3 14 12 63 20 110 8 47 27 150 41 230 14 80 33 185 41 234 8 50 18
94 21 98 2 5 17 7 31 4 15 -3 52 -8 82 -11z m-907 -13 l118 -7 -178 -249 c-97
-137 -178 -245 -180 -240 -1 5 -11 72 -23 149 -11 77 -27 185 -35 239 -8 55
-15 105 -15 113 0 10 20 12 98 7 53 -3 150 -9 215 -12z m1503 -19 c-3 -21 -14
-94 -25 -163 -11 -69 -25 -163 -32 -210 -10 -66 -14 -80 -20 -60 -4 14 -37
116 -73 228 -36 112 -66 210 -66 217 0 11 21 15 83 18 45 1 95 4 110 5 28 2
29 1 23 -35z m-1827 -130 c13 -87 30 -200 38 -251 8 -51 13 -96 10 -99 -6 -6
-437 307 -437 317 0 3 73 43 163 89 89 46 166 88 172 92 25 23 32 2 54 -148z
m2218 -38 c-5 -15 -418 -317 -425 -311 -5 6 4 72 49 368 l21 137 179 -92 c98
-51 177 -96 176 -102z m-1654 88 c66 -68 83 -91 74 -99 -19 -18 -499 -294
-495 -286 3 9 331 472 334 472 1 0 40 -39 87 -87z m1126 -373 l16 -25 -35 22
c-19 11 -134 78 -255 148 -121 71 -222 130 -224 132 -3 2 35 44 84 93 l88 89
155 -217 c85 -119 162 -228 171 -242z m-2031 212 c42 -32 144 -108 226 -168
144 -105 148 -109 120 -116 -16 -4 -182 -37 -369 -73 -187 -36 -379 -74 -427
-84 -49 -11 -88 -17 -88 -14 0 6 452 513 458 513 2 0 38 -26 80 -58z m2657 1
c27 -32 130 -147 228 -256 99 -109 178 -199 176 -201 -2 -1 -123 21 -269 50
-146 29 -341 67 -435 85 -93 17 -179 35 -189 39 -16 5 5 24 109 101 70 52 171
126 224 166 53 39 99 72 102 72 3 1 27 -25 54 -56z m-2817 20 c-23 -26 -193
-215 -262 -293 -17 -19 -63 -71 -103 -115 l-71 -81 -189 13 c-103 7 -194 14
-202 15 -9 2 50 79 147 195 89 105 166 194 171 198 5 3 74 16 153 30 79 13
188 33 243 44 143 27 144 27 113 -6z m3195 -38 l159 -29 146 -174 c81 -95 155
-185 165 -198 l19 -24 -44 -1 c-23 0 -52 -2 -63 -4 -11 -2 -83 -7 -160 -11
l-141 -7 -79 89 c-44 49 -82 91 -85 94 -13 12 -247 275 -267 299 l-21 27 106
-17 c59 -8 178 -29 265 -44z m-2038 33 c-2 -7 -10 -51 -19 -98 -27 -147 -66
-354 -71 -377 l-5 -22 -68 29 c-78 32 -278 119 -340 148 l-43 19 138 80 c76
44 197 114 268 156 72 42 133 77 137 77 4 0 6 -6 3 -12z m634 -45 c102 -60
204 -120 339 -198 46 -27 85 -51 87 -55 5 -8 -12 -15 -264 -125 -95 -42 -175
-74 -176 -73 -1 2 -21 107 -44 233 -23 127 -44 241 -48 253 -3 12 -2 22 2 22
4 0 51 -26 104 -57z m-539 -193 c106 -348 138 -460 133 -460 -3 0 -243 152
-284 180 -4 3 10 100 31 215 22 116 42 225 45 244 4 18 8 31 10 30 1 -2 31
-96 65 -209z m455 -55 c15 -82 31 -164 35 -182 6 -24 4 -35 -8 -46 -28 -24
-274 -178 -278 -174 -2 2 14 62 35 133 69 226 111 367 138 454 l26 85 12 -60
c7 -33 25 -127 40 -210z m-2297 188 c-8 -10 -64 -76 -124 -147 -60 -72 -121
-144 -136 -160 l-28 -31 -32 35 c-90 100 -138 155 -138 160 0 3 94 36 208 74
114 38 214 72 222 77 8 5 21 9 29 9 12 0 12 -3 -1 -17z m4237 -54 l215 -70
-70 -105 c-39 -57 -74 -104 -78 -103 -4 0 -63 68 -132 150 -141 170 -164 199
-156 199 3 0 103 -32 221 -71z m-3108 -176 c-5 -9 -241 -408 -289 -489 l-30
-51 -142 86 c-77 47 -212 129 -298 181 -146 88 -172 110 -130 110 14 0 694
131 827 159 54 12 67 12 62 4z m1974 -33 c334 -65 662 -129 688 -135 20 -5 9
-15 -80 -69 -57 -35 -190 -115 -296 -180 -105 -64 -195 -116 -200 -116 -4 0
-15 12 -24 28 -9 15 -80 134 -158 266 -77 131 -141 240 -141 242 0 6 -15 8
211 -36z m-1839 -130 c217 -364 280 -471 277 -474 -2 -1 -69 -32 -149 -68 -80
-37 -176 -81 -215 -98 -359 -165 -658 -300 -660 -298 -1 2 62 110 139 240 78
130 179 301 226 380 46 79 109 186 140 238 31 52 76 128 99 168 39 67 44 72
56 55 7 -10 46 -74 87 -143z m268 18 c52 -23 99 -45 104 -50 9 -7 -14 -131
-61 -331 -13 -59 -17 -66 -28 -50 -23 34 -335 561 -335 566 0 3 51 -17 113
-44 61 -28 155 -68 207 -91z m1176 -39 c-57 -96 -135 -228 -174 -293 -42 -71
-73 -114 -76 -105 -3 8 -23 97 -44 199 l-39 185 36 17 c72 35 396 176 399 173
1 -1 -44 -80 -102 -176z m303 -79 c324 -546 491 -830 491 -835 0 -4 -42 13
-145 60 -203 93 -488 224 -667 306 -114 51 -208 97 -208 102 0 4 24 47 53 95
30 48 114 188 187 311 l133 224 29 -49 c16 -27 73 -123 127 -214z m-3011 94
c57 -4 99 -11 95 -15 -4 -4 -129 -81 -278 -172 -148 -90 -324 -197 -390 -238
-117 -71 -124 -74 -250 -100 -71 -14 -131 -23 -133 -20 -1 4 10 55 25 115 l28
108 140 76 c77 41 217 117 310 169 l170 93 90 -5 c50 -3 136 -8 193 -11z
m4434 -57 c73 -40 214 -117 314 -170 l181 -97 22 -102 c13 -56 25 -108 28
-114 3 -7 -39 -3 -124 13 -104 20 -140 32 -193 62 -77 45 -684 415 -720 439
-24 17 -21 17 105 27 267 21 235 26 387 -58z m-4396 -480 c-53 -266 -96 -492
-96 -501 0 -10 -4 -16 -9 -14 -5 2 -135 116 -287 253 -153 138 -286 257 -296
265 -17 14 -14 18 49 56 66 40 230 140 563 343 91 55 166 97 168 92 2 -5 -40
-227 -92 -494z m364 376 c91 -55 216 -130 278 -168 61 -37 112 -69 112 -70 0
-2 -254 -433 -297 -502 l-20 -33 -35 113 c-20 61 -81 256 -137 432 -56 176
-104 329 -108 340 -5 18 -4 18 18 4 13 -9 98 -61 189 -116z m3391 1 c-22 -65
-86 -264 -142 -441 -56 -178 -105 -323 -108 -323 -3 1 -33 47 -66 103 -32 56
-99 168 -147 250 -49 81 -91 153 -94 161 -3 8 8 21 28 33 71 43 495 301 528
321 19 12 35 20 37 18 1 -1 -15 -56 -36 -122z m267 24 c92 -56 217 -132 277
-169 263 -159 331 -201 339 -209 5 -5 -8 -23 -29 -42 -50 -44 -45 -39 -256
-228 -101 -91 -210 -189 -241 -219 -32 -30 -60 -52 -62 -50 -3 4 -51 242 -156
779 -22 113 -42 213 -44 223 -2 9 -2 17 1 17 3 0 80 -46 171 -102z m-2200 -23
c61 -38 112 -73 112 -76 0 -3 -86 -51 -191 -107 -132 -70 -190 -96 -187 -84 3
9 22 99 43 199 l39 182 36 -22 c20 -12 86 -53 148 -92z m516 -26 c14 -70 32
-154 40 -188 8 -34 10 -61 6 -61 -7 0 -365 185 -378 195 -2 2 64 45 145 98 81
52 151 92 155 88 3 -3 18 -63 32 -132z m1499 36 c9 -44 53 -266 97 -493 45
-228 79 -416 76 -419 -2 -3 -80 12 -173 32 -92 21 -197 44 -232 51 -36 8 -66
16 -68 18 -3 3 35 127 127 411 32 99 79 249 106 332 26 84 48 152 49 150 2 -1
10 -38 18 -82z m-3589 -290 c129 -406 164 -519 162 -522 -2 -3 -53 -14 -299
-67 -93 -20 -172 -36 -177 -36 -4 0 3 51 16 113 12 61 55 274 93 472 87 441
81 416 91 390 5 -11 56 -168 114 -350z m1705 -262 c0 -343 -3 -434 -12 -419
-30 47 -106 170 -242 395 -135 224 -146 245 -129 255 14 8 366 197 382 205 1
0 2 -196 1 -436z m185 358 c72 -39 159 -85 193 -103 l62 -34 -196 -324 c-107
-179 -199 -329 -204 -335 -5 -5 -9 175 -9 428 0 320 3 437 11 437 7 0 71 -31
143 -69z m-286 -694 c52 -87 93 -159 91 -161 -2 -1 -58 -19 -124 -38 -66 -20
-198 -60 -293 -89 -94 -29 -175 -49 -178 -46 -5 5 70 348 163 743 l26 111 110
-181 c61 -100 153 -252 205 -339z m611 288 c17 -77 56 -248 86 -379 30 -132
53 -242 50 -244 -3 -3 -121 30 -263 73 -141 43 -274 82 -294 88 -21 5 -38 14
-38 19 0 5 48 89 108 186 59 97 150 248 202 334 l95 158 11 -48 c6 -26 25
-110 43 -187z m-1075 153 c-38 -40 -141 -148 -229 -239 l-160 -166 -180 13
c-99 8 -211 17 -249 21 l-68 8 213 97 c395 180 634 289 684 313 28 13 52 24
54 24 2 1 -27 -32 -65 -71z m1681 -193 c343 -157 382 -175 372 -175 -35 0
-439 -31 -463 -35 -29 -5 -41 6 -210 182 -99 104 -201 211 -228 240 l-48 52
153 -70 c85 -39 276 -126 424 -194z m-1580 203 c-8 -29 -32 -133 -55 -231 -52
-230 -120 -529 -124 -542 -1 -5 -64 69 -140 163 -76 95 -136 177 -134 181 2 5
98 108 213 228 116 120 217 226 225 235 25 29 29 20 15 -34z m1395 -400 l30
-36 -52 -65 c-29 -36 -91 -113 -138 -172 -83 -106 -84 -107 -92 -79 -5 16 -46
195 -93 399 -47 203 -87 378 -90 390 -6 19 371 -358 435 -437z m2275 346 c116
-25 212 -48 215 -51 3 -3 -7 -15 -21 -26 -212 -173 -470 -379 -472 -376 -2 2
-8 20 -14 39 -6 19 -45 139 -87 266 -42 128 -76 236 -76 241 0 5 55 -3 123
-19 67 -16 217 -49 332 -74z m-5929 54 c-48 -155 -160 -494 -166 -501 -7 -8
-94 53 -404 283 l-100 73 125 34 c68 19 165 46 214 60 222 64 321 91 332 92 9
1 9 -9 -1 -41z m269 -159 c83 -73 161 -144 175 -157 14 -12 62 -55 107 -95 44
-40 80 -73 78 -75 -3 -3 -279 -16 -587 -27 l-178 -7 14 44 c7 23 48 150 91
281 l79 237 35 -33 c20 -19 104 -94 186 -168z m5349 -357 c-3 -4 -599 16 -694
24 l-74 6 34 31 c19 16 94 83 165 147 72 65 188 170 260 234 l130 116 91 -277
c50 -153 90 -279 88 -281z m-4581 -109 c-445 -714 -518 -831 -521 -829 -1 2 9
63 23 137 32 168 52 275 106 564 23 127 44 232 45 233 1 2 94 24 206 48 112
24 217 48 233 52 17 5 32 7 34 6 2 -2 -55 -97 -126 -211z m492 197 c264 -16
225 3 369 -178 68 -86 123 -158 121 -160 -1 -1 -158 74 -349 168 -192 93 -352
170 -356 170 -5 0 -12 5 -16 11 -4 8 3 9 22 6 16 -4 110 -11 209 -17z m2525
-53 c-493 -243 -583 -287 -587 -284 -2 2 53 74 121 159 106 133 129 156 158
161 18 4 116 11 218 17 102 6 190 13 195 15 6 2 17 3 25 4 8 0 -50 -33 -130
-72z m360 48 c157 -36 308 -68 338 -72 22 -4 37 -13 42 -27 5 -11 23 -95 40
-186 17 -91 55 -293 85 -450 29 -157 52 -286 51 -287 -1 -2 -128 199 -281 445
-153 246 -298 478 -322 515 -24 37 -43 70 -43 72 0 8 20 5 90 -10z m-3143
-103 c33 -59 111 -193 172 -299 61 -106 111 -196 111 -200 0 -5 -69 -40 -152
-78 -84 -38 -229 -103 -323 -146 -93 -42 -255 -116 -359 -163 -103 -47 -190
-86 -192 -86 -2 0 18 35 44 78 511 819 626 1002 631 1002 3 0 34 -48 68 -108z
m541 -167 c122 -60 222 -111 222 -115 0 -4 -100 -52 -222 -108 l-222 -101 -39
67 c-141 241 -297 517 -297 524 0 4 75 -29 168 -75 92 -46 267 -133 390 -192z
m2254 -27 c-93 -161 -173 -292 -178 -291 -5 1 -74 32 -154 68 -80 36 -178 80
-217 97 -40 17 -73 34 -73 37 0 3 103 55 228 116 125 60 301 146 392 191 91
45 166 80 168 79 2 -2 -73 -135 -166 -297z m393 29 c218 -351 373 -600 442
-710 30 -48 54 -90 52 -92 -3 -2 -691 307 -865 390 -16 8 -60 28 -97 44 l-67
30 72 123 c143 247 211 364 245 426 19 34 38 62 41 62 4 0 83 -123 177 -273z
m-3931 110 c-172 -128 -724 -527 -727 -527 -4 0 51 542 57 555 2 7 114 15 352
24 192 7 351 15 353 17 2 2 18 4 34 4 28 0 21 -7 -69 -73z m4791 50 l310 -12
7 -60 c24 -219 50 -485 47 -493 -2 -6 -128 80 -279 190 -151 110 -324 235
-385 279 -60 44 -121 88 -135 99 l-25 20 75 -6 c41 -3 214 -11 385 -17z
m-4669 -24 c-2 -10 -16 -79 -30 -153 -14 -74 -48 -254 -75 -400 -28 -146 -56
-295 -62 -332 -7 -38 -17 -68 -22 -68 -6 0 -44 20 -86 44 -42 24 -134 76 -206
116 -248 139 -340 192 -348 200 -8 7 808 609 826 610 5 0 6 -8 3 -17z m4307
-65 c275 -201 372 -272 522 -380 88 -64 169 -123 179 -131 17 -13 6 -21 -150
-109 -413 -233 -477 -268 -485 -268 -4 0 -10 12 -13 28 -3 15 -16 88 -30 162
-32 173 -135 716 -142 753 -3 15 -3 27 1 27 3 0 56 -37 118 -82z m-5138 25
c-3 -26 -17 -153 -30 -281 -13 -129 -26 -236 -29 -239 -3 -3 -11 -1 -18 5 -7
5 -125 73 -263 149 -635 354 -657 367 -638 374 10 3 117 9 238 13 285 8 539
18 543 21 2 1 48 3 103 4 l100 2 -6 -48z m6266 32 c9 -2 135 -6 280 -10 145
-4 272 -11 281 -14 12 -4 -20 -27 -110 -77 -70 -39 -242 -136 -382 -214 -140
-79 -293 -165 -340 -191 -57 -32 -87 -43 -91 -36 -4 7 -9 41 -12 77 -4 36 -15
155 -27 265 -11 110 -20 204 -20 208 0 8 376 0 421 -8z m-3363 -342 l-3 -268
-171 -3 -171 -2 -126 172 c-70 95 -128 177 -129 182 -2 4 98 39 222 77 124 37
252 77 285 87 105 35 96 60 93 -245z m209 221 c82 -26 168 -52 193 -59 154
-45 226 -68 234 -75 5 -5 -49 -87 -120 -184 l-129 -176 -162 0 c-89 0 -168 3
-177 6 -14 5 -16 39 -16 270 0 226 2 264 15 264 8 0 81 -21 162 -46z m-3805
-115 c128 -72 290 -163 360 -202 69 -40 126 -73 125 -74 -1 -1 -97 29 -214 65
l-211 67 -138 125 c-76 69 -145 130 -153 137 -43 33 18 2 231 -118z m7423 83
c-28 -26 -93 -86 -145 -134 l-95 -88 -216 -70 c-118 -38 -220 -70 -225 -70 -5
0 63 40 151 89 88 48 252 140 365 204 113 64 207 116 210 116 3 0 -18 -21 -45
-47z m-4329 -301 c58 -79 103 -146 100 -148 -3 -3 -74 9 -158 26 -84 17 -235
48 -335 68 -101 21 -183 40 -183 43 1 3 98 48 218 101 l217 97 18 -22 c9 -11
65 -86 123 -165z m1424 79 c74 -34 150 -67 168 -73 17 -6 32 -13 32 -16 0 -5
-664 -143 -683 -142 -4 1 11 27 35 59 23 31 79 107 125 169 l83 112 52 -24
c29 -13 114 -51 188 -85z m-4163 -132 c145 -45 263 -85 263 -90 0 -4 -78 -119
-172 -256 -95 -136 -193 -278 -218 -315 -25 -36 -48 -67 -51 -67 -4 0 -10 30
-14 68 -4 37 -24 209 -46 382 -41 327 -43 360 -32 360 3 0 125 -37 270 -82z
m6803 70 c0 -7 -9 -80 -19 -163 -11 -82 -32 -256 -47 -385 -15 -129 -30 -238
-34 -243 -3 -4 -38 39 -76 95 -38 57 -138 201 -222 321 -127 183 -149 219
-134 225 33 13 507 160 520 161 6 1 12 -5 12 -11z m-7065 -411 c20 -161 38
-305 41 -322 4 -26 -118 189 -223 390 l-36 71 58 89 c32 50 69 108 84 130 l25
40 8 -53 c5 -30 24 -185 43 -345z m7182 268 c38 -60 73 -115 76 -122 4 -6 -36
-92 -89 -190 -53 -98 -112 -207 -131 -243 -34 -64 -34 -64 -29 -25 3 22 15
119 26 215 12 96 30 243 41 326 10 84 19 155 19 160 0 14 15 -7 87 -121z
m-4552 36 c286 -58 488 -101 490 -104 2 -1 -63 -79 -144 -174 -80 -94 -182
-214 -226 -266 -44 -53 -83 -94 -86 -91 -4 2 -41 93 -84 201 -43 109 -102 258
-131 331 -30 74 -54 138 -54 143 0 6 8 8 18 5 9 -3 107 -23 217 -45z m2025 45
c0 -8 -252 -640 -264 -664 -12 -22 -15 -19 -103 85 -50 59 -152 180 -226 268
-74 88 -133 162 -132 163 2 2 66 17 142 32 195 39 471 97 518 108 47 12 65 14
65 8z m-2340 -21 c0 -3 -64 -112 -142 -243 -287 -480 -346 -580 -419 -704 -41
-70 -77 -128 -80 -128 -7 0 -392 611 -387 614 2 1 32 15 68 31 36 15 103 46
150 68 47 21 155 71 240 109 85 39 191 87 235 107 44 21 109 51 145 67 36 16
90 41 120 56 56 27 70 32 70 23z m2748 -144 c180 -82 388 -177 462 -211 74
-34 159 -73 187 -85 l53 -24 -73 -114 c-39 -62 -126 -200 -192 -305 -66 -105
-122 -192 -125 -192 -3 0 -21 26 -40 58 -19 31 -60 100 -91 152 -31 52 -156
264 -279 470 -123 206 -227 381 -233 388 -5 6 -7 12 -3 12 3 0 154 -67 334
-149z m-2585 -141 c57 -146 117 -298 133 -339 l28 -74 -159 -154 c-248 -238
-375 -356 -375 -348 0 7 241 1096 257 1163 3 13 7 22 8 20 2 -2 50 -122 108
-268z m2337 -329 c71 -322 128 -587 126 -589 -4 -3 -129 115 -407 386 l-126
123 127 322 c70 177 130 331 135 342 4 11 9 16 11 10 2 -5 62 -273 134 -594z
m-2511 464 c-12 -50 -36 -157 -54 -240 -18 -82 -67 -304 -109 -493 -42 -188
-76 -344 -76 -347 0 -3 -5 -5 -10 -5 -11 0 -341 120 -350 127 -6 6 21 52 260
453 113 190 239 402 280 471 41 70 76 126 77 125 1 -1 -7 -42 -18 -91z m2499
-35 c25 -41 80 -133 122 -205 42 -71 154 -260 249 -419 94 -159 168 -293 164
-297 -4 -4 -45 -21 -90 -38 -46 -17 -119 -44 -163 -61 -43 -16 -84 -30 -89
-30 -5 0 -19 39 -30 88 -39 165 -241 1080 -241 1089 1 4 8 -5 17 -22 9 -16 36
-64 61 -105z m-3907 -86 c173 -96 317 -178 321 -182 7 -7 -186 -131 -661 -428
-80 -50 -147 -91 -148 -90 -2 2 16 108 52 296 14 74 32 169 39 210 51 275 71
370 77 370 3 0 148 -79 320 -176z m5616 0 c17 -93 44 -232 58 -309 14 -77 37
-196 49 -265 13 -69 23 -126 22 -127 -2 -2 -82 48 -481 300 -104 65 -223 140
-262 165 -40 25 -73 48 -73 51 0 4 24 19 53 33 28 15 171 94 317 177 146 82
270 148 275 147 6 -1 24 -79 42 -172z m-3007 0 l0 -147 -52 49 c-29 27 -97 89
-150 138 -53 49 -95 93 -92 98 3 4 70 8 150 8 l144 0 0 -146z m338 137 c-4
-11 -295 -281 -303 -281 -3 0 -5 65 -5 145 l0 145 156 0 c91 0 154 -4 152 -9z
m2792 -166 c57 -82 150 -217 207 -298 56 -81 105 -152 108 -157 6 -9 -264
-225 -271 -217 -3 2 -38 182 -79 401 -40 218 -77 406 -80 418 -10 33 0 21 115
-147z m-6160 -121 c-62 -331 -87 -468 -96 -516 -3 -21 -9 -38 -13 -38 -3 0
-60 43 -126 96 -66 52 -127 99 -135 104 -11 7 -12 13 -5 24 64 98 420 605 422
602 2 -2 -19 -125 -47 -272z m2852 124 c66 -62 132 -123 146 -135 l25 -21
-273 -137 c-149 -75 -274 -134 -276 -132 -2 2 24 80 59 173 35 93 83 222 107
286 l43 117 24 -19 c14 -10 79 -70 145 -132z m668 -134 c58 -156 106 -288 108
-293 1 -4 -120 54 -270 130 -150 75 -273 140 -273 143 0 7 317 305 325 305 3
0 52 -128 110 -285z m-900 204 c-5 -13 -50 -133 -100 -268 -50 -134 -92 -246
-94 -248 -5 -4 -196 44 -203 52 -3 2 45 65 107 138 62 73 153 181 202 241 49
59 91 107 94 107 2 0 -1 -10 -6 -22z m957 -99 c48 -58 121 -145 162 -195 41
-49 91 -106 110 -126 19 -21 33 -39 30 -42 -12 -11 -203 -56 -209 -49 -4 4
-35 85 -70 178 -57 157 -107 291 -125 340 -11 27 -3 19 102 -106z m-2821 -196
c-3 -16 -29 -145 -57 -288 -90 -467 -129 -659 -134 -663 -3 -3 -52 31 -110 74
-58 43 -197 147 -309 229 -113 83 -204 154 -203 158 2 5 171 115 377 244 206
129 386 243 400 254 34 25 43 24 36 -8z m4684 -34 c25 -17 254 -160 545 -342
88 -55 164 -103 169 -107 4 -5 -36 -41 -90 -81 -55 -40 -195 -144 -313 -232
-117 -87 -217 -155 -221 -150 -4 4 -17 62 -30 128 -12 66 -50 264 -85 440 -34
176 -66 340 -70 364 l-7 44 38 -23 c22 -13 50 -31 64 -41z m-4451 -252 c99
-158 181 -291 181 -296 0 -9 -561 -374 -566 -368 -1 1 29 157 66 347 81 407
120 610 120 618 0 13 25 -24 199 -301z m2037 -404 c-4 -4 -404 212 -418 225
-3 4 17 32 45 63 29 31 124 138 212 237 l160 180 3 -351 c1 -192 0 -352 -2
-354z m209 522 c88 -99 181 -202 207 -230 26 -27 48 -54 48 -60 -1 -9 -387
-226 -416 -233 -12 -3 -14 56 -14 353 0 196 4 355 8 353 5 -1 80 -84 167 -183z
m2204 -498 c29 -147 51 -271 49 -276 -2 -4 -124 71 -273 167 -148 95 -276 177
-284 181 -10 6 0 29 44 97 32 49 102 159 155 244 53 85 114 182 135 215 l39
60 41 -210 c23 -115 65 -331 94 -478z m-2481 656 c-120 -140 -372 -418 -379
-418 -12 0 -118 168 -112 178 4 6 490 255 502 256 2 1 -3 -7 -11 -16z m423
-110 c137 -70 249 -131 249 -136 0 -13 -103 -177 -111 -177 -4 0 -53 53 -110
118 -125 142 -168 189 -238 264 -30 32 -51 58 -47 58 5 0 120 -57 257 -127z
m-1073 -107 c52 -14 95 -26 97 -28 1 -1 -67 -97 -152 -213 -85 -115 -160 -218
-168 -228 -13 -18 -16 -18 -92 -2 -43 10 -79 19 -81 20 -2 2 8 20 21 42 13 21
51 83 82 138 32 55 82 140 112 189 29 49 53 93 53 98 0 13 28 9 128 -16z
m1658 -73 c31 -54 92 -157 135 -230 44 -73 79 -136 79 -141 0 -10 -150 -45
-158 -38 -19 19 -330 451 -327 454 5 6 177 50 197 51 12 1 36 -31 74 -96z
m-4239 -68 c121 -94 126 -100 98 -104 -16 -2 -217 0 -444 4 l-415 7 190 60
c104 32 243 76 309 98 66 21 123 37 127 36 4 0 65 -46 135 -101z m6968 44 c83
-26 214 -68 293 -92 l142 -44 -307 -6 c-170 -4 -371 -7 -448 -7 l-140 1 30 22
c16 12 77 59 134 105 81 63 109 81 125 76 12 -4 89 -28 171 -55z m-4200 -44
c30 -48 53 -91 50 -94 -9 -9 -400 -218 -403 -216 -2 2 63 93 145 203 81 111
148 200 150 198 1 -1 27 -42 58 -91z m1296 -80 c69 -93 135 -185 147 -203 l24
-32 -99 52 c-54 28 -133 71 -177 95 -43 24 -81 43 -85 43 -3 0 -17 9 -30 19
l-23 18 57 92 c31 51 58 91 60 89 1 -2 58 -79 126 -173z m-1801 -31 c-61 -104
-112 -190 -114 -191 -3 -3 -132 -29 -183 -37 l-41 -6 116 113 c276 267 327
315 330 312 2 -1 -47 -88 -108 -191z m2250 -34 c110 -106 199 -195 197 -196
-6 -6 -209 34 -217 42 -4 5 -58 93 -118 197 -70 118 -102 180 -86 168 13 -10
114 -105 224 -211z m-1392 -122 l134 -73 -109 -2 c-282 -7 -721 -7 -715 -1 4
3 72 41 152 84 80 43 172 92 205 110 l60 33 70 -40 c38 -21 130 -72 203 -111z
m942 7 c134 -71 193 -108 147 -91 -10 3 -202 6 -425 6 l-407 0 140 77 c77 42
171 93 210 114 l70 38 60 -33 c33 -19 125 -68 205 -111z m-3963 121 c0 -1 -72
-35 -160 -75 -89 -41 -242 -113 -340 -159 -98 -47 -182 -81 -186 -76 -82 93
-251 308 -251 317 0 5 929 -2 937 -7z m7383 8 c0 -4 -53 -72 -117 -151 -65
-79 -123 -151 -130 -160 -10 -13 -56 5 -353 143 l-340 159 317 5 c586 10 623
10 623 4z m-7060 -190 c118 -88 254 -188 302 -224 49 -35 85 -67 80 -71 -4 -3
-99 -33 -212 -66 -263 -78 -551 -165 -709 -214 -68 -22 -126 -38 -128 -36 -2
2 42 87 98 188 56 101 142 258 191 349 139 253 138 252 151 242 7 -5 109 -81
227 -168z m6171 -66 c73 -134 146 -268 162 -298 17 -30 54 -97 83 -149 30 -52
52 -96 51 -97 -2 -2 -138 38 -302 87 -165 50 -399 120 -520 156 -121 36 -224
69 -228 73 -4 4 59 56 140 116 81 60 222 164 312 232 91 67 166 122 167 122 1
0 62 -109 135 -242z m-6486 170 c-19 -35 -115 -208 -212 -385 -98 -178 -180
-323 -183 -323 -3 0 -25 33 -49 73 -25 40 -84 136 -133 214 -48 79 -88 146
-88 151 0 4 44 27 98 52 53 24 157 73 230 107 73 35 134 63 137 63 2 0 55 25
117 55 62 30 114 55 115 55 2 0 -13 -28 -32 -62z m6760 -109 c179 -83 328
-155 330 -160 3 -4 -14 -38 -38 -76 -24 -37 -81 -129 -127 -203 -45 -74 -88
-141 -95 -148 -13 -15 -4 -31 -258 433 -60 110 -122 223 -138 252 -16 29 -29
55 -29 59 0 9 -8 12 355 -157z m-5220 19 c72 -28 145 -54 163 -60 17 -5 32
-12 32 -15 0 -3 -31 -56 -68 -117 -139 -225 -302 -534 -312 -589 -5 -28 -12
-65 -15 -82 -7 -38 -40 -246 -62 -387 -9 -59 -18 -106 -19 -105 -8 8 -58 371
-78 572 l-24 230 60 170 c64 182 136 385 150 424 6 17 13 21 26 16 9 -4 76
-30 147 -57z m3523 35 c11 -29 119 -335 175 -499 l31 -91 -18 -189 c-15 -161
-70 -578 -80 -609 -2 -5 -7 13 -11 40 -4 28 -27 169 -51 314 l-44 265 -101
185 c-56 102 -140 251 -188 330 -47 80 -81 146 -76 148 102 40 342 131 346
132 4 0 11 -11 17 -26z m-3770 -105 c-22 -62 -66 -189 -98 -282 -32 -92 -60
-170 -62 -171 -2 -2 -83 44 -180 103 -171 103 -175 106 -154 122 11 9 125 82
251 163 127 80 239 153 250 161 11 8 23 16 26 16 3 0 -12 -51 -33 -112z m4032
-33 c113 -72 233 -148 267 -169 l63 -39 -43 -26 c-114 -71 -306 -184 -313
-183 -5 0 -20 36 -35 79 -79 224 -158 450 -165 467 -9 23 -32 36 226 -129z
m-3169 49 l75 -17 53 -137 c37 -95 51 -147 49 -171 -3 -28 -5 -31 -12 -14 -13
34 -87 179 -100 197 -8 11 -43 21 -111 31 l-100 15 -174 -64 c-96 -36 -175
-63 -177 -61 -4 3 98 173 112 187 13 13 264 60 289 55 11 -3 54 -12 96 -21z
m2379 -5 c63 -11 118 -23 121 -27 14 -15 118 -187 115 -189 -2 -2 -82 25 -178
60 -164 61 -178 64 -229 57 -30 -5 -75 -11 -101 -15 -46 -6 -48 -7 -91 -83
-24 -42 -50 -95 -58 -117 l-14 -40 -3 38 c-3 37 6 68 70 228 l30 76 86 21 c48
11 98 19 112 16 14 -2 77 -13 140 -25z m-1594 -110 c-174 -88 -201 -99 -225
-90 -46 17 -376 172 -385 181 -5 5 173 9 400 9 l409 0 -199 -100z m1148 92 c3
-5 -241 -123 -375 -182 -24 -10 -45 -2 -220 86 -107 53 -196 99 -199 101 -2 3
175 4 393 3 218 0 399 -4 401 -8z m-1597 -113 c111 -51 202 -95 203 -98 0 -5
-325 -170 -335 -170 -2 0 -2 28 1 63 5 50 2 73 -16 117 -49 124 -69 180 -62
180 4 0 98 -41 209 -92z m603 1 c-33 -46 -109 -151 -169 -234 -59 -82 -145
-202 -191 -265 -46 -63 -80 -104 -77 -90 3 14 20 97 37 185 17 88 38 191 47
228 l15 68 196 98 c109 55 198 98 200 96 2 -1 -24 -40 -58 -86z m577 -113 c2
-2 101 -491 99 -493 -1 -2 -20 23 -42 55 -22 31 -89 125 -149 207 -215 298
-305 423 -305 429 0 4 376 -184 397 -198z m437 92 c-40 -101 -44 -120 -42
-181 2 -37 -1 -67 -6 -67 -11 0 -326 164 -326 170 0 6 391 188 407 189 6 1 -8
-47 -33 -111z m-978 -59 c-30 -90 -64 -199 -213 -684 -14 -44 -28 -90 -31
-102 -6 -19 -17 -13 -122 73 -63 51 -114 100 -114 107 1 8 88 135 194 283 107
148 220 306 253 352 33 46 61 81 63 79 2 -2 -12 -50 -30 -108z m266 -64 c372
-517 391 -546 377 -559 -8 -7 -62 -52 -121 -99 l-106 -87 -22 73 c-11 39 -43
142 -70 227 -46 146 -174 562 -187 605 -8 29 0 19 129 -160z m-202 -300 l0
-455 -140 0 c-78 0 -140 4 -140 9 0 5 29 103 65 218 35 114 97 315 137 445 40
131 74 238 76 238 1 0 2 -205 2 -455z m102 257 c32 -103 74 -239 94 -302 34
-108 109 -353 121 -393 5 -16 -4 -17 -138 -15 l-144 3 -3 454 c-1 250 1 451 5
448 3 -4 33 -91 65 -195z m-1131 171 c19 -3 36 -22 63 -67 l36 -63 -42 -77
c-25 -43 -49 -76 -58 -76 -8 1 -44 6 -80 13 l-65 12 -42 65 -42 64 23 41 c13
22 31 55 41 74 l17 33 61 -7 c34 -3 74 -9 88 -12z m2283 -57 l39 -73 -40 -64
-40 -64 -73 -13 c-40 -7 -77 -11 -84 -9 -6 3 -28 38 -50 78 l-38 74 37 62 c35
59 39 62 83 68 26 4 52 8 57 10 6 2 24 4 40 4 27 1 34 -6 69 -73z m-2510 -1
c-33 -60 -35 -68 -24 -95 7 -16 18 -35 26 -41 8 -6 14 -16 14 -21 0 -5 -42 13
-93 40 -51 28 -109 53 -130 57 -20 4 -39 10 -41 14 -4 6 248 105 277 110 4 0
-8 -28 -29 -64z m2760 -24 c54 -19 52 -25 -9 -37 -22 -4 -78 -28 -125 -55 -47
-26 -86 -46 -88 -44 -2 2 8 21 23 43 l26 40 -33 63 c-18 35 -34 67 -36 72 -2
4 41 -9 95 -29 54 -20 120 -44 147 -53z m-5235 -169 c63 -101 112 -184 110
-186 -4 -4 -515 -76 -537 -76 -9 0 -5 14 11 43 14 23 77 138 142 255 l118 213
21 -33 c13 -18 73 -115 135 -216z m7759 63 c54 -99 116 -211 136 -248 21 -38
36 -71 33 -73 -4 -5 -65 3 -425 52 l-122 17 15 24 c9 13 56 88 104 166 146
237 153 248 157 245 2 -2 48 -85 102 -183z m-4553 -167 c-26 -128 -49 -243
-52 -256 l-5 -23 -18 28 c-10 15 -66 91 -123 168 -58 77 -102 144 -100 148 6
9 337 176 341 172 2 -2 -17 -108 -43 -237z m1220 150 c91 -46 165 -87 165 -91
0 -11 -232 -327 -240 -327 -3 0 -25 102 -50 228 -51 258 -53 272 -46 272 3 0
80 -37 171 -82z m-2957 -35 c97 -58 179 -107 181 -109 2 -2 -146 -209 -195
-273 -5 -5 -82 29 -242 107 -75 36 -139 67 -140 68 -6 4 206 314 214 314 3 0
85 -48 182 -107z m780 96 c24 -5 98 -39 164 -76 104 -57 133 -68 211 -82 l92
-16 56 -84 c31 -47 64 -97 73 -112 15 -25 15 -27 -1 -23 -10 2 -88 17 -173 34
-132 26 -171 38 -262 82 l-106 51 -59 110 c-32 60 -59 114 -61 118 -5 11 12
11 66 -2z m3016 -96 c-31 -60 -62 -114 -68 -122 -6 -8 -57 -36 -112 -62 -84
-40 -131 -54 -270 -82 -93 -19 -170 -33 -172 -32 -1 1 29 52 69 113 l71 110
87 13 c76 10 99 19 209 80 111 61 171 85 225 88 15 1 8 -19 -39 -106z m1054
-42 c56 -82 102 -153 102 -159 0 -10 -359 -184 -370 -180 -15 6 -205 267 -198
273 8 8 354 215 359 215 3 0 52 -67 107 -149z m-4064 -63 c22 -41 37 -53 103
-87 61 -31 72 -40 53 -42 -14 -1 -34 -3 -45 -4 -11 -1 -103 -8 -205 -14 -102
-7 -191 -14 -197 -16 -20 -7 -16 3 42 110 30 55 74 135 97 178 l42 77 42 -77
c23 -43 54 -99 68 -125z m3293 -154 c3 -9 0 -13 -8 -10 -8 3 -102 10 -209 17
-107 6 -201 13 -210 14 -8 2 -26 4 -39 4 -18 1 -1 13 56 40 l80 39 68 127 67
127 95 -172 c52 -95 97 -178 100 -186z m-4404 219 c-47 -71 -93 -135 -102
-144 -11 -11 -136 -43 -371 -94 -435 -95 -484 -105 -490 -105 -5 0 102 49 460
210 96 43 265 119 375 169 110 50 203 91 207 91 4 0 -31 -57 -79 -127z m5335
38 c505 -228 731 -330 780 -351 29 -13 51 -24 49 -26 -1 -2 -122 23 -267 55
-146 32 -334 74 -417 92 -84 18 -156 35 -161 38 -5 3 -47 62 -93 131 -104 154
-101 150 -94 150 4 0 95 -40 203 -89z m-3643 22 c15 -42 48 -273 40 -281 -2
-3 -124 184 -128 197 -2 7 62 131 68 131 2 0 11 -21 20 -47z m1915 -78 c0 -6
-29 -55 -65 -110 -36 -55 -65 -95 -65 -88 0 59 26 229 42 272 l21 54 33 -59
c19 -32 34 -64 34 -69z m-3775 71 c-27 -13 -131 -60 -230 -104 -99 -44 -294
-132 -432 -195 -139 -63 -253 -114 -253 -112 0 1 20 41 45 87 l45 85 158 48
c340 102 619 187 657 200 61 21 66 16 10 -9z m5648 -20 c128 -37 722 -217 723
-219 1 -1 23 -42 49 -91 36 -65 43 -86 29 -78 -20 11 -299 136 -669 302 -126
57 -234 108 -240 113 -7 7 -4 8 8 3 10 -3 55 -17 100 -30z m-3641 -211 c41
-55 91 -123 111 -152 l37 -51 -75 -25 c-86 -28 -76 -34 -118 70 -17 41 -27 92
-32 150 -4 48 -9 97 -12 108 -7 27 1 18 89 -100z m1613 18 c-8 -105 -17 -143
-51 -216 l-25 -56 -71 25 c-39 13 -73 26 -76 29 -3 2 11 24 30 47 19 24 69 91
112 151 43 59 80 107 83 107 3 0 2 -39 -2 -87z m-2862 -535 c18 -125 29 -224
24 -221 -5 3 -43 49 -86 102 -73 92 -79 104 -139 269 l-63 174 98 131 98 131
18 -180 c9 -98 32 -281 50 -406z m4205 446 l90 -121 -64 -178 c-64 -174 -66
-179 -146 -277 -44 -54 -82 -97 -84 -96 -1 2 13 108 32 236 28 194 64 506 64
562 0 18 -1 19 108 -126z m-5875 -34 c-26 -49 -54 -90 -60 -90 -7 0 -50 11
-95 24 -46 13 -129 36 -185 52 -108 29 -129 44 -65 44 20 1 123 14 227 29 105
16 198 29 208 30 15 1 10 -14 -30 -89z m947 86 c0 -4 -359 -608 -365 -614 -2
-3 -118 78 -533 369 l-53 37 93 21 c51 12 125 28 163 37 39 8 207 46 375 83
350 78 320 72 320 67z m228 -85 c94 -47 169 -88 166 -92 -2 -4 -23 -18 -47
-31 -23 -14 -178 -104 -345 -202 -167 -98 -305 -176 -307 -174 -6 6 347 589
355 586 4 -2 85 -41 178 -87z m5273 -18 c35 -60 114 -193 176 -296 61 -104
105 -186 97 -183 -8 3 -123 69 -257 147 -133 78 -280 164 -327 191 -47 27 -91
55 -99 63 -11 11 16 27 160 98 96 47 177 86 180 86 4 1 35 -47 70 -106z m349
23 c162 -36 351 -77 420 -92 69 -14 131 -30 138 -33 8 -4 -51 -52 -155 -126
-165 -117 -377 -264 -400 -278 -8 -5 -32 27 -69 90 -32 54 -111 187 -176 296
-66 109 -121 204 -124 212 -4 11 2 11 33 4 21 -5 171 -38 333 -73z m747 54
c114 -16 223 -30 240 -30 38 0 44 -15 11 -22 -13 -3 -98 -26 -190 -52 -92 -25
-171 -46 -176 -46 -5 0 -14 10 -20 23 -6 12 -27 50 -47 85 -35 64 -39 72 -31
72 2 0 98 -13 213 -30z m-5203 -62 c-158 -169 -197 -210 -286 -304 l-96 -100
-6 80 c-3 45 -8 143 -12 219 l-6 137 49 1 c26 0 118 6 203 13 85 7 168 14 184
14 29 2 28 1 -30 -60z m312 20 l167 -32 33 -71 c25 -53 30 -73 21 -81 -10 -10
-242 -161 -363 -237 l-41 -25 -6 156 c-11 262 -9 335 8 328 8 -3 90 -20 181
-38z m2258 -200 c-4 -134 -7 -244 -8 -245 -1 -1 -92 56 -201 127 -110 71 -204
131 -208 133 -11 3 41 134 56 145 9 5 305 72 360 81 4 0 5 -108 1 -241z m341
221 c99 -6 181 -12 182 -13 2 -2 -16 -406 -20 -423 -1 -7 -53 43 -116 110 -63
67 -146 156 -185 197 -38 41 -86 92 -106 114 l-35 38 50 -5 c28 -3 131 -11
230 -18z m-2825 -151 c0 -79 3 -185 6 -236 l6 -92 -226 0 c-124 1 -226 4 -226
8 0 4 35 44 78 89 42 46 138 148 212 227 74 80 138 145 143 146 4 0 7 -64 7
-142z m2820 -166 c74 -79 136 -147 138 -152 2 -4 -99 -8 -224 -9 l-227 -2 6
178 c4 98 7 205 7 238 l0 60 83 -85 c45 -47 143 -150 217 -228z m-3340 251 c0
-27 5 -134 11 -240 l10 -191 68 -239 c96 -333 92 -305 29 -248 -29 26 -104 93
-165 147 -62 55 -113 102 -113 106 0 11 111 686 115 700 3 6 14 12 25 12 17 0
20 -6 20 -47z m3605 10 c3 -21 10 -58 15 -83 5 -25 23 -133 40 -240 17 -107
38 -231 47 -274 l16 -80 -34 -29 c-95 -84 -199 -177 -245 -219 -28 -27 -53
-48 -56 -48 -2 0 30 121 72 270 74 256 78 276 84 402 16 326 17 338 37 338 13
0 20 -10 24 -37z m-5893 -19 c223 -63 290 -83 294 -87 4 -4 -201 -210 -214
-215 -7 -2 -192 310 -192 323 0 9 17 6 112 -21z m8213 -36 c-19 -35 -61 -109
-93 -165 -31 -57 -61 -103 -65 -103 -11 0 -228 212 -223 217 6 6 379 111 399
112 15 1 13 -8 -18 -61z m-6422 -115 c14 -43 40 -115 57 -161 22 -60 27 -84
18 -87 -7 -2 -119 -15 -248 -30 -129 -14 -309 -35 -399 -46 -90 -11 -165 -19
-166 -17 -2 2 99 63 223 136 125 73 283 166 352 206 69 41 128 75 131 75 3 1
17 -34 32 -76z m4809 -54 c123 -72 266 -156 318 -187 150 -87 161 -94 157 -98
-2 -2 -75 5 -163 15 -166 20 -474 56 -582 67 -34 4 -65 10 -67 14 -3 4 11 50
29 101 19 52 44 122 57 157 12 34 23 62 25 62 1 0 103 -59 226 -131z m-5987
-85 c146 -103 264 -188 262 -190 -2 -3 -173 29 -379 71 -206 41 -379 75 -384
75 -5 0 43 52 106 115 63 63 118 115 122 115 4 0 127 -84 273 -186z m2645
-173 c-189 -379 -181 -357 -297 -757 -13 -44 -31 -67 -124 -160 -59 -59 -106
-99 -103 -88 4 18 24 139 81 504 l25 165 96 184 c94 182 96 184 229 326 121
130 139 145 191 163 31 11 62 21 69 21 7 1 -69 -161 -167 -358z m339 260 c88
-72 101 -86 85 -93 -36 -14 -336 -89 -340 -85 -9 9 130 276 141 270 5 -4 57
-45 114 -92z m1131 -41 c39 -77 67 -140 63 -140 -12 0 -355 89 -358 92 -3 3
215 186 222 187 2 1 34 -62 73 -139z m43 120 c64 -20 69 -24 198 -165 129
-140 136 -150 227 -322 l93 -178 55 -338 c30 -186 54 -343 54 -349 0 -15 -33
17 -132 125 -73 79 -82 94 -103 165 -109 369 -110 372 -291 734 -96 191 -172
348 -170 348 2 0 33 -9 69 -20z m3145 -93 l113 -114 -383 -76 c-211 -43 -387
-77 -392 -77 -5 0 85 66 200 147 115 81 236 166 269 190 33 23 65 43 70 43 6
0 61 -51 123 -113z m-4765 -39 c-127 -133 -145 -158 -220 -301 l-78 -148 -3
132 c-2 84 1 136 8 143 11 12 322 214 330 215 2 1 -14 -18 -37 -41z m1987 -82
l145 -94 3 -143 2 -144 -26 50 c-111 212 -150 275 -207 336 -34 36 -71 76 -82
89 l-20 23 20 -11 c11 -6 85 -54 165 -106z m-1090 -298 c0 -177 -2 -319 -4
-317 -5 5 -276 628 -276 634 0 3 63 5 140 5 l140 0 0 -322z m317 310 c-14 -35
-129 -296 -137 -313 -5 -11 -37 -83 -70 -159 -33 -77 -64 -144 -70 -150 -7 -7
-10 97 -10 312 l0 322 146 0 c113 0 145 -3 141 -12z m-660 -5 c-22 -40 -260
-465 -293 -522 l-42 -75 -6 35 c-12 74 -47 461 -43 465 4 5 356 99 380 103 5
0 6 -2 4 -6z m1108 -95 c5 -5 -44 -490 -49 -495 -2 -2 -30 45 -64 104 -180
321 -272 486 -272 488 0 3 381 -93 385 -97z m-993 -95 c42 -98 109 -251 147
-340 39 -90 71 -164 71 -166 0 -2 -192 12 -355 27 -33 3 -112 11 -175 16 -63
6 -116 13 -118 15 -3 2 49 100 115 217 66 117 144 257 174 310 30 54 56 98 59
98 3 0 40 -80 82 -177z m758 -142 c94 -167 169 -305 168 -307 -3 -3 -375 -38
-550 -52 -54 -4 -98 -5 -98 -2 0 4 48 116 106 251 147 339 163 376 175 406 6
16 13 23 19 17 5 -5 86 -146 180 -313z m-4075 220 c215 -43 383 -81 375 -84
-51 -20 -920 -263 -920 -258 0 3 27 99 61 214 48 159 65 207 78 207 9 -1 192
-36 406 -79z m7568 22 c9 -32 37 -127 61 -212 25 -85 45 -156 43 -156 -1 -1
-202 55 -447 126 -245 70 -453 128 -462 129 -10 0 -18 3 -18 8 0 7 742 160
786 161 17 1 24 -10 37 -56z m-8073 -109 c-23 -77 -49 -164 -57 -194 -9 -30
-18 -57 -19 -59 -4 -5 -244 162 -244 170 0 4 66 48 148 98 81 50 160 99 177
110 16 11 31 19 32 17 2 -2 -15 -66 -37 -142z m8281 34 c98 -62 178 -116 176
-120 -2 -9 -239 -170 -243 -166 -5 7 -121 398 -117 398 3 0 85 -51 184 -112z
m-6391 -199 c0 -158 -4 -259 -9 -257 -31 10 -840 414 -841 419 0 5 127 21 510
64 124 14 234 27 245 29 11 2 37 4 58 5 l37 1 0 -261z m905 252 c3 -5 -21 -54
-53 -108 -61 -103 -212 -364 -230 -398 -9 -16 -12 -17 -16 -5 -9 27 -146 509
-146 515 0 9 439 5 445 -4z m2989 -13 c-4 -13 -38 -131 -76 -262 -37 -132 -69
-241 -71 -242 -3 -3 -251 419 -289 492 l-18 33 231 1 231 1 -8 -23z m676 2
c96 -11 256 -29 355 -40 99 -12 205 -24 235 -28 l55 -8 -427 -214 c-235 -118
-428 -212 -430 -210 -2 3 -2 121 0 263 3 236 4 257 20 257 10 0 96 -9 192 -20z
m-4441 -122 c58 -71 70 -91 62 -106 -17 -32 -142 -227 -152 -236 -5 -6 -9 77
-9 224 0 197 2 232 13 220 8 -8 46 -54 86 -102z m4194 -170 l-8 -176 -75 121
c-41 66 -76 124 -78 128 -2 5 34 55 80 111 l83 103 3 -55 c1 -30 -1 -134 -5
-232z m-2909 142 c4 -47 10 -101 12 -120 7 -55 22 -225 20 -227 -1 -1 -50 29
-109 67 l-107 69 83 164 c54 108 84 159 88 148 3 -9 9 -54 13 -101z m1629 -37
c43 -87 77 -163 77 -169 0 -13 -210 -148 -210 -135 0 14 21 225 25 256 2 17 7
69 11 118 4 48 10 87 13 87 4 0 42 -71 84 -157z m-2119 -2 l-7 -141 -126 -84
c-69 -46 -127 -82 -129 -81 -2 1 56 104 129 229 72 125 134 225 136 222 2 -2
1 -68 -3 -145z m2616 -31 c56 -96 115 -197 131 -224 16 -27 28 -50 27 -51 -2
-2 -61 36 -133 84 l-130 86 -3 144 c-1 80 -1 143 2 140 2 -2 50 -83 106 -179z
m-4515 -2 c-86 -352 -234 -967 -240 -1001 -4 -20 -11 -39 -15 -42 -4 -2 -102
118 -218 268 -116 149 -271 351 -346 447 -74 96 -133 176 -131 178 4 5 954
279 971 281 7 1 -1 -49 -21 -131z m518 -91 c240 -119 437 -218 437 -220 0 -5
10 1 -485 -310 -576 -362 -665 -417 -680 -423 -12 -5 -12 1 0 48 8 29 39 154
69 278 29 124 86 360 126 525 83 348 78 328 87 322 5 -3 205 -102 446 -220z
m5761 76 c48 -199 116 -481 166 -688 22 -93 50 -207 62 -253 11 -46 18 -85 16
-88 -3 -3 -232 138 -509 312 -277 175 -535 337 -573 361 -39 23 -74 47 -79 52
-6 6 153 91 432 230 244 122 444 221 446 221 2 0 19 -66 39 -147z m478 12
c260 -74 480 -139 489 -143 13 -6 -21 -55 -178 -257 -106 -137 -262 -339 -346
-447 -83 -109 -154 -194 -158 -190 -4 4 -14 36 -22 72 -9 36 -34 139 -56 230
-22 91 -72 298 -111 460 -93 385 -99 410 -95 410 2 0 217 -61 477 -135z
m-5458 -320 c58 -159 104 -290 103 -291 -4 -4 -380 302 -381 309 -1 8 168 277
171 273 1 -1 50 -132 107 -291z m3917 138 l77 -122 -195 -156 c-138 -111 -193
-149 -188 -133 4 13 49 140 101 283 52 143 97 267 100 275 4 12 7 11 16 -5 7
-11 46 -75 89 -142z m-3743 -73 l94 -85 103 -251 103 -250 4 -140 c4 -111 2
-158 -14 -234 -32 -160 -27 -153 -53 -85 -13 33 -75 191 -139 350 -63 160
-132 340 -154 400 -121 332 -171 472 -178 490 -8 20 38 -18 234 -195z m3571
128 c-17 -46 -53 -144 -79 -218 -89 -248 -117 -324 -235 -621 -153 -389 -149
-379 -155 -379 -17 0 -50 236 -50 354 0 124 1 130 36 214 20 48 65 158 100
245 35 87 69 168 76 181 10 18 325 306 335 306 1 0 -11 -37 -28 -82z m-3155
-45 c-3 -16 -27 -162 -53 -327 l-47 -298 -27 63 c-112 271 -157 386 -155 396
2 9 273 193 285 193 1 0 0 -12 -3 -27z m2681 -72 c72 -46 132 -86 134 -87 2
-2 -39 -107 -90 -235 l-94 -231 -12 68 c-6 38 -28 173 -48 299 -20 127 -38
243 -42 259 -4 22 -2 27 8 20 8 -4 73 -46 144 -93z m-430 -8 c39 -127 85 -287
85 -295 0 -4 -72 46 -161 111 -88 66 -160 123 -159 128 1 6 188 135 207 142 1
1 14 -38 28 -86z m-1822 6 l97 -62 -167 -124 c-92 -68 -168 -123 -169 -123 -2
0 101 342 111 369 7 17 14 14 128 -60z m-3298 -106 c7 -81 16 -179 20 -218 l6
-70 -277 -200 c-303 -219 -311 -224 -298 -204 4 8 118 190 252 404 135 215
252 402 261 417 9 15 17 25 19 23 2 -2 10 -70 17 -152z m251 -139 c353 -457
406 -526 396 -523 -5 2 -67 41 -138 87 -361 233 -420 271 -436 284 -14 11 -20
46 -33 198 -8 102 -17 200 -20 218 -3 17 -4 32 -2 32 2 0 107 -133 233 -296z
m7999 284 c-2 -7 -11 -101 -20 -208 -9 -107 -18 -202 -21 -210 -2 -8 -120 -89
-261 -180 -304 -195 -342 -218 -327 -199 6 8 28 36 48 63 21 27 52 67 70 90
18 23 102 131 186 241 234 304 321 415 325 415 3 0 2 -6 0 -12z m186 -227 c74
-118 191 -305 260 -415 70 -111 125 -203 123 -204 -1 -2 -51 32 -111 75 -59
44 -188 138 -285 208 -205 148 -186 111 -163 330 8 77 15 165 15 195 0 46 2
52 14 40 7 -8 74 -111 147 -229z m-8524 192 c-13 -21 -48 -76 -77 -123 -29
-47 -73 -115 -97 -152 l-44 -68 -67 56 c-37 30 -67 59 -67 64 0 8 361 260 372
260 2 0 -7 -17 -20 -37z m8627 -98 c97 -66 176 -122 175 -125 0 -7 -141 -122
-144 -118 -3 3 -215 342 -230 367 -11 19 -5 15 199 -124z m-6356 -155 c105
-85 192 -157 192 -160 0 -6 -1532 -392 -1536 -387 -1 1 192 124 428 272 237
149 492 309 567 357 75 47 141 83 146 79 6 -4 97 -77 203 -161z m1532 145 c85
-8 198 -17 250 -21 52 -3 101 -10 108 -14 12 -6 -103 -117 -400 -389 -15 -13
-30 -22 -33 -19 -3 3 -48 109 -100 237 l-94 232 57 -6 c31 -3 127 -12 212 -20z
m1100 18 c0 -16 -185 -463 -192 -463 -7 0 -40 30 -292 264 -65 61 -127 118
-137 127 -26 23 -25 25 24 27 46 3 497 41 537 46 49 6 60 6 60 -1z m1963 -299
c175 -109 388 -243 475 -297 86 -54 161 -102 166 -107 11 -11 40 -18 -816 196
-394 98 -714 182 -712 186 3 4 95 79 205 167 l200 161 82 -53 c45 -29 225
-143 400 -253z m-1729 152 l160 -119 -45 -21 c-24 -11 -88 -42 -142 -67 -63
-30 -100 -43 -102 -36 -2 7 -13 82 -25 167 -11 85 -23 168 -26 184 -8 35 -19
42 180 -108z m-1657 67 c-4 -32 -8 -67 -11 -78 -2 -11 -9 -60 -15 -110 -20
-152 0 -143 -161 -68 -77 37 -140 69 -140 72 1 8 313 240 324 241 5 0 6 -26 3
-57z m143 -212 c39 -95 69 -175 68 -177 -2 -1 -53 10 -113 25 -93 24 -110 31
-109 47 1 10 12 95 25 187 l23 169 18 -39 c10 -21 50 -116 88 -212z m1329 64
c15 -105 21 -179 15 -184 -11 -10 -207 -62 -212 -56 -5 5 161 415 168 415 3 0
16 -79 29 -175z m-550 3 c97 -89 206 -191 243 -226 l67 -65 148 38 c81 20 160
44 175 51 37 19 38 19 26 -23 -12 -44 -150 -241 -207 -297 -40 -39 -66 -49
-245 -93 l-68 -17 -81 -106 c-46 -61 -110 -162 -151 -240 l-71 -135 -3 189 -2
188 36 42 c21 22 85 93 144 156 178 193 191 208 182 214 -5 3 -90 -1 -190 -8
-173 -13 -268 -11 -481 9 -35 4 -88 17 -117 30 l-54 24 62 58 c34 32 67 63 73
68 7 6 63 58 126 116 63 58 134 124 159 147 25 23 47 42 49 42 1 0 82 -73 180
-162z m-1180 -112 l91 -44 -145 -107 -145 -107 -66 37 -66 37 103 106 c110
112 120 122 131 122 4 0 47 -20 97 -44z m2220 -70 l113 -113 -66 -37 -67 -37
-52 37 c-29 21 -95 69 -147 108 l-94 70 89 42 c50 23 95 43 100 43 6 1 61 -50
124 -113z m-5410 -237 c-38 -156 -72 -289 -74 -296 -3 -8 -75 12 -230 65 -124
42 -225 79 -225 82 0 3 50 41 111 85 153 111 299 217 399 291 47 34 86 61 87
60 2 -1 -29 -130 -68 -287z m437 95 c168 -108 302 -200 297 -204 -7 -7 -71
-30 -360 -131 -175 -61 -182 -63 -187 -58 -4 3 -66 550 -66 579 0 6 2 10 5 10
3 0 143 -88 311 -196z m2037 139 c5 -51 71 -519 83 -591 7 -42 6 -43 -17 -37
-24 6 -675 116 -1311 222 -191 32 -348 60 -348 63 0 6 1573 398 1581 394 4 -2
9 -25 12 -51z m4240 -144 c427 -107 777 -197 777 -200 0 -4 -19 -9 -42 -12
-24 -2 -286 -46 -583 -97 -986 -167 -1045 -177 -1045 -171 0 3 21 158 46 344
31 223 51 337 58 334 6 -2 361 -91 789 -198z m1543 159 c-10 -74 -44 -390 -52
-470 -4 -47 -11 -78 -18 -78 -13 0 -538 181 -548 189 -7 6 599 400 615 401 5
0 6 -19 3 -42z m363 -183 c160 -115 290 -212 290 -215 1 -8 -449 -158 -453
-151 -2 3 -34 128 -70 276 -37 149 -70 278 -73 289 -3 11 -1 17 6 15 5 -2 141
-98 300 -214z m-5283 74 c35 -59 170 -241 201 -272 35 -33 55 -41 177 -75
l138 -37 78 -100 c50 -66 103 -151 152 -247 41 -82 74 -148 74 -148 -1 0 -71
19 -156 41 -85 22 -216 57 -289 76 l-135 35 -163 136 c-89 75 -161 138 -159
140 2 2 21 -1 42 -7 21 -6 40 -9 42 -7 3 4 -24 64 -34 75 -2 2 -17 -8 -34 -22
-39 -33 -58 -26 -71 29 -12 47 -18 51 -38 32 -17 -17 -29 0 -96 133 l-53 106
146 106 147 106 11 -43 c6 -24 15 -50 20 -57z m1912 -27 c61 -46 112 -87 112
-92 0 -11 -108 -220 -121 -234 -5 -5 -14 -4 -23 3 -21 17 -36 5 -36 -28 0 -15
-9 -36 -20 -46 -20 -18 -21 -18 -48 8 -16 15 -31 27 -35 27 -4 0 -16 -19 -28
-41 l-21 -42 26 7 c14 3 38 9 53 13 31 7 29 5 -177 -168 l-125 -106 -275 -72
c-151 -39 -283 -74 -294 -78 -31 -9 122 274 211 393 l76 100 131 34 c127 32
133 34 184 84 77 74 208 262 222 319 l12 47 32 -22 c17 -12 82 -60 144 -106z
m-1866 103 c18 -8 93 -31 166 -50 217 -57 247 -73 365 -196 56 -58 137 -144
180 -191 l77 -85 0 -194 -1 -194 -66 130 c-39 77 -99 175 -148 240 l-83 110
-133 34 c-158 41 -178 56 -293 216 -88 121 -87 119 -96 161 -9 39 -10 39 32
19z m4978 -272 l67 -268 -96 -112 c-53 -61 -99 -112 -103 -112 -11 -1 -1 265
15 409 9 74 21 185 28 247 7 62 15 110 17 108 3 -2 35 -125 72 -272z m-8257
195 c4 -35 16 -148 27 -253 11 -104 20 -246 20 -315 l-1 -125 -27 31 c-15 17
-59 69 -99 116 l-72 85 66 266 c36 146 69 264 73 262 4 -2 10 -33 13 -67z
m2627 -534 c0 -14 -9 -16 -66 -11 -36 2 -67 6 -69 8 -4 5 -75 510 -75 535 1
23 210 -509 210 -532z m3094 275 c-20 -145 -40 -268 -44 -273 -5 -4 -38 -11
-74 -15 l-65 -7 6 25 c13 51 205 542 210 537 2 -2 -13 -122 -33 -267z m-2797
45 c67 -124 67 -124 43 -124 -11 0 -20 6 -20 13 -1 31 -16 39 -46 24 -26 -13
-36 -13 -92 1 l-62 17 0 117 0 118 63 -34 c59 -33 64 -39 114 -132z m2503 48
l0 -118 -64 -15 c-53 -13 -68 -14 -87 -3 -36 20 -49 17 -49 -11 0 -18 -5 -25
-20 -25 -11 0 -20 3 -20 8 1 4 25 52 54 107 51 95 57 102 117 137 35 21 65 38
67 38 1 0 2 -53 2 -118z m-1465 78 c84 -7 164 -7 267 1 81 6 151 9 157 8 5 -2
-60 -79 -145 -171 l-154 -167 -77 87 c-42 48 -112 124 -157 170 l-81 82 35 0
c19 0 89 -5 155 -10z m-3306 -242 c-35 -240 -62 -414 -64 -416 -3 -3 -115 60
-448 253 l-38 22 38 16 c21 8 61 22 88 30 81 25 398 137 404 142 2 3 10 5 16
5 9 0 10 -14 4 -52z m110 33 c217 -75 1352 -475 1406 -496 39 -14 37 -15 -70
-10 -60 2 -299 9 -530 15 -761 20 -935 26 -940 32 -5 5 44 370 61 451 7 32 4
32 73 8z m6711 15 c0 -11 41 -289 56 -375 8 -51 14 -95 12 -97 -9 -8 -157 -15
-578 -24 -250 -5 -509 -12 -575 -15 -313 -13 -430 -17 -425 -12 5 5 39 17 415
148 448 157 885 311 990 349 78 28 105 35 105 26z m280 -80 c276 -95 300 -104
300 -110 0 -3 -73 -46 -162 -97 -90 -51 -196 -112 -237 -136 -40 -24 -75 -42
-77 -40 -2 2 -17 95 -34 208 -17 112 -33 216 -36 232 -3 15 -4 27 -2 27 2 0
114 -38 248 -84z m-471 59 c-3 -2 -133 -49 -289 -104 -157 -55 -357 -125 -445
-156 -88 -31 -216 -76 -285 -100 -69 -24 -189 -66 -266 -94 l-142 -50 -67 116
c-36 64 -63 119 -58 123 4 4 296 55 648 114 352 59 696 118 765 131 144 26
145 27 139 20z m-6152 -40 c114 -20 384 -66 598 -102 734 -123 710 -119 707
-134 -4 -15 -84 -157 -114 -200 l-18 -26 -192 68 c-201 71 -794 279 -1053 369
-82 29 -152 54 -154 56 -8 8 20 4 226 -31z m-1358 -124 c10 -6 -41 -45 -183
-141 -109 -72 -200 -130 -202 -128 -3 4 -44 380 -44 407 0 8 393 -118 429
-138z m3040 133 c2 -2 -1 -10 -8 -18 -13 -16 -1 -20 92 -31 36 -5 57 -4 57 3
0 6 9 8 20 5 11 -3 20 -7 20 -9 0 -10 -96 -153 -120 -179 -15 -16 -27 -37 -27
-45 0 -15 -133 -243 -139 -238 -1 2 -8 60 -14 128 -10 114 -9 135 11 235 12
61 23 122 26 138 5 26 8 27 42 21 20 -4 38 -8 40 -10z m2643 -126 c26 -137 26
-148 15 -268 -14 -143 -2 -145 -102 20 -31 50 -53 96 -49 102 3 5 -11 29 -33
51 -31 33 -113 157 -113 172 0 1 9 5 20 8 11 3 20 1 20 -4 0 -12 20 -11 98 2
58 10 64 13 47 25 -14 11 -15 14 -4 18 8 2 21 7 29 9 43 15 45 11 72 -135z
m3364 100 c-3 -18 -13 -111 -22 -205 -10 -95 -20 -173 -24 -173 -13 0 -382
255 -382 265 1 9 383 143 415 144 15 1 17 -5 13 -31z m-5726 -92 c8 -7 62 -52
120 -101 58 -48 109 -91 114 -95 5 -5 -1 -21 -14 -37 l-22 -28 59 -3 c32 -2
61 -6 65 -10 7 -7 -229 -93 -289 -107 -10 -2 -49 -16 -86 -30 -59 -22 -84 -25
-192 -25 l-124 0 43 73 c23 39 60 100 81 134 l39 61 48 -18 c26 -10 48 -15 48
-12 0 4 -11 29 -25 56 -27 53 -27 51 22 129 23 37 27 39 61 32 20 -4 44 -12
52 -19z m2103 -33 l35 -57 -25 -49 c-13 -27 -22 -51 -19 -55 3 -3 25 2 48 11
23 9 43 16 44 14 8 -9 154 -256 154 -261 0 -3 -55 -6 -122 -6 -117 0 -202 16
-251 47 -6 4 -16 8 -22 8 -25 1 -295 98 -295 106 0 5 27 9 60 9 33 0 60 2 60
5 0 3 -7 17 -17 31 -19 30 -30 17 116 139 165 139 182 143 234 58z m-5394
-148 c-4 -71 -12 -242 -18 -380 -7 -137 -13 -281 -16 -320 -3 -38 -10 -171
-16 -295 -6 -124 -12 -226 -14 -228 -2 -2 -57 162 -123 365 -187 569 -231 707
-229 709 8 9 421 283 422 281 1 -1 -1 -60 -6 -132z m495 14 c116 -67 216 -125
221 -131 7 -6 -2 -8 -25 -4 -19 3 -118 11 -220 17 -102 6 -187 13 -190 14 -8
5 -12 225 -4 225 3 0 101 -54 218 -121z m7786 7 l0 -113 -187 -12 c-104 -6
-204 -14 -223 -17 -23 -4 -32 -2 -25 5 9 8 426 251 433 251 1 0 2 -51 2 -114z
m493 -34 c108 -73 197 -138 197 -144 0 -22 -342 -1069 -347 -1064 -2 2 -8 88
-13 192 -11 215 -18 351 -25 474 -2 47 -7 148 -10 225 -5 137 -9 200 -21 379
-4 71 -3 87 8 80 7 -5 102 -68 211 -142z m-239 -127 c6 -160 15 -339 31 -630
2 -49 7 -146 10 -215 3 -69 8 -159 11 -200 4 -49 2 -72 -4 -65 -5 6 -69 113
-140 239 l-131 228 -1 333 0 334 102 118 103 119 6 -41 c4 -22 9 -121 13 -220z
m-8390 144 l96 -111 0 -344 0 -344 -131 -228 c-72 -125 -133 -229 -136 -232
-3 -3 -2 49 1 115 21 389 46 915 52 1073 4 100 10 182 14 182 5 0 51 -50 104
-111z m2671 42 l30 -7 13 -138 c7 -76 11 -141 8 -144 -5 -4 -317 56 -324 63
-2 2 28 57 67 123 l70 119 53 -4 c29 -3 67 -8 83 -12z m3111 -63 c26 -46 58
-102 71 -125 14 -24 21 -43 16 -43 -4 0 -77 -14 -161 -31 -84 -17 -156 -28
-159 -25 -6 6 14 276 20 283 2 2 37 7 78 12 41 5 77 9 81 10 4 0 28 -36 54
-81z m-5397 -124 c124 -8 228 -17 230 -19 3 -4 -478 -585 -485 -585 -2 0 -4
140 -4 310 0 278 2 310 16 310 9 0 118 -7 243 -16z m3124 -82 l7 -63 -30 21
c-16 11 -32 25 -35 30 -4 6 -10 10 -15 10 -8 0 -50 -61 -50 -74 0 -3 29 -6 65
-6 36 0 65 -3 65 -7 0 -5 9 -84 19 -178 11 -93 18 -172 15 -174 -4 -5 18 -22
-256 199 -125 100 -225 187 -222 192 4 6 29 8 64 4 54 -6 57 -5 56 15 -1 20
16 28 149 73 170 58 158 61 168 -42z m298 13 c-1 -6 -49 -105 -108 -222 -87
-171 -109 -208 -115 -190 -4 12 -16 119 -28 237 -11 118 -23 225 -25 237 -5
21 -2 21 136 -16 77 -20 140 -41 140 -46z m905 -185 c-14 -134 -27 -245 -30
-247 -2 -3 -55 95 -116 217 -61 122 -110 223 -108 224 2 2 55 15 118 31 63 15
124 31 135 35 13 5 21 3 23 -5 2 -7 -8 -122 -22 -255z m368 141 c-1 -20 3 -21
56 -15 32 3 60 2 63 -3 3 -5 -20 -29 -51 -54 -31 -25 -141 -114 -244 -198
-104 -83 -188 -146 -188 -139 0 21 31 311 36 336 4 20 10 22 69 22 l66 0 -15
28 c-33 59 -31 59 -77 22 l-42 -34 6 49 c4 26 7 63 7 81 l0 33 158 -54 c138
-47 157 -56 156 -74z m3056 -182 l0 -311 -244 294 c-228 274 -242 293 -218
296 37 5 368 29 420 31 l42 1 0 -311z m-6955 261 c248 -5 502 -12 565 -15 63
-2 221 -7 350 -11 129 -3 236 -7 238 -9 3 -3 -48 -92 -459 -803 l-134 -232
-89 92 c-49 51 -150 156 -225 233 -552 569 -708 730 -718 745 -11 15 -10 18 5
14 9 -1 220 -8 467 -14z m6339 -42 c-73 -78 -571 -594 -758 -785 -76 -78 -160
-165 -186 -194 l-47 -51 -45 78 c-43 76 -187 325 -291 504 -189 327 -259 451
-256 454 2 2 103 6 224 10 121 3 279 8 350 11 72 3 335 10 585 16 250 6 457
13 459 15 2 2 9 4 14 4 6 0 -16 -28 -49 -62z m-6623 -200 c292 -303 507 -525
669 -692 69 -70 116 -126 105 -123 -11 3 -90 26 -175 51 -593 174 -966 283
-1095 321 -82 24 -172 50 -198 57 -27 8 -48 18 -48 23 0 12 491 605 501 605 3
0 112 -109 241 -242z m6977 -63 c137 -165 248 -301 247 -303 -3 -3 -351 -106
-1155 -342 -52 -15 -151 -44 -220 -64 -69 -20 -134 -40 -145 -43 -24 -6 -19
-2 725 766 146 150 267 277 269 282 1 6 9 9 16 7 8 -2 126 -138 263 -303z
m-8415 165 c24 -80 138 -428 257 -795 29 -88 55 -169 57 -181 5 -20 -3 -19
-294 29 -164 28 -300 52 -301 53 -2 2 52 225 120 498 67 272 126 492 129 488
3 -4 17 -45 32 -92z m3255 35 c16 -4 37 -35 83 -126 33 -67 59 -122 57 -124
-13 -10 -127 -41 -135 -36 -12 8 -303 339 -303 344 0 4 211 -38 298 -58z
m-159 -150 c72 -82 131 -152 131 -156 0 -7 -71 -57 -425 -304 -430 -300 -466
-325 -462 -317 13 23 253 439 322 557 45 77 94 163 110 190 15 28 53 92 83
144 l54 93 28 -28 c16 -16 87 -96 159 -179z m1463 174 l119 -31 118 31 c66 17
124 31 131 31 9 0 -96 -216 -116 -239 -2 -2 -34 6 -72 19 l-68 23 -57 -21
c-32 -12 -62 -22 -67 -22 -7 0 -93 155 -128 233 -6 12 16 8 140 -24z m1817 14
c-8 -10 -76 -89 -152 -175 l-138 -156 -62 20 c-34 12 -63 22 -65 23 -3 2 105
234 113 243 5 5 268 60 294 61 21 1 22 -1 10 -16z m176 -170 c60 -104 187
-323 282 -487 95 -164 172 -301 170 -302 -2 -2 -143 93 -313 212 -170 118
-368 257 -441 307 l-131 92 19 25 c10 14 37 45 59 70 22 25 84 95 138 157 53
61 100 112 103 112 3 1 55 -83 114 -186z m2957 -285 c64 -260 118 -482 120
-493 3 -17 -6 -21 -62 -31 -36 -6 -167 -28 -292 -50 -125 -21 -230 -35 -234
-31 -8 8 -25 -46 277 879 35 109 66 198 69 198 3 0 58 -213 122 -472z m-5062
341 c34 -67 58 -125 53 -130 -11 -11 -343 -188 -343 -183 0 13 219 434 225
434 2 0 32 -55 65 -121z m646 -113 c103 -203 105 -208 72 -189 -18 11 -91 51
-163 88 -71 38 -137 73 -146 79 -13 10 -7 27 49 134 46 88 67 120 73 110 5 -7
57 -107 115 -222z m-1296 -7 c129 -105 243 -196 253 -203 9 -6 17 -14 17 -17
0 -3 -80 -9 -177 -13 -98 -4 -203 -9 -233 -12 l-55 -5 -84 98 c-62 73 -98 127
-142 215 -32 65 -59 120 -59 123 0 3 55 5 123 5 l122 0 235 -191z m2240 189
c0 -2 -26 -56 -58 -120 -44 -89 -79 -142 -142 -218 l-85 -100 -55 5 c-30 2
-135 7 -233 11 -98 4 -176 10 -175 15 2 4 102 87 223 184 121 98 233 188 248
201 27 22 37 24 153 24 68 0 124 -1 124 -2z m-1293 -193 c59 -21 394 -193 412
-211 3 -3 -50 -2 -119 2 -160 10 -559 10 -717 0 -68 -4 -123 -5 -123 -3 0 10
348 191 410 213 36 12 66 23 67 23 1 1 32 -10 70 -24z m-1243 -176 l88 -101
102 6 c55 3 155 8 221 12 l120 6 -155 -77 c-127 -63 -349 -152 -355 -142 -90
128 -236 349 -233 353 3 2 31 13 64 23 32 11 59 20 60 20 0 1 40 -45 88 -100z
m2549 32 c-9 -15 -63 -94 -119 -178 -101 -147 -105 -151 -131 -143 -95 29
-187 67 -323 134 l-155 76 105 -5 c58 -2 157 -7 220 -11 l115 -6 87 100 88
100 65 -21 65 -21 -17 -25z m-2798 -23 c3 -13 9 -52 15 -88 6 -36 21 -128 34
-204 14 -77 23 -144 20 -148 -3 -4 -15 -8 -27 -8 -12 0 -146 -20 -297 -45
-529 -86 -635 -103 -637 -101 -1 1 120 87 269 191 149 105 346 243 437 307 91
64 169 117 173 118 4 0 10 -10 13 -22z m3047 -106 c387 -271 615 -430 656
-457 23 -15 41 -29 40 -31 -2 -1 -25 2 -53 6 -27 5 -165 27 -305 50 -140 22
-323 52 -406 65 -83 14 -160 25 -172 25 -11 0 -23 4 -27 9 -7 12 68 461 77
461 4 0 90 -58 190 -128z m-2735 -346 c56 -111 78 -144 156 -228 51 -55 167
-162 259 -239 l167 -139 107 0 c59 0 105 -2 102 -5 -3 -3 -56 -12 -119 -19
-93 -12 -117 -12 -129 -2 -8 8 -87 73 -175 146 -88 73 -253 213 -366 312
l-206 180 -32 192 c-18 105 -35 202 -38 216 -10 46 208 -283 274 -414z m2473
270 c-12 -67 -28 -154 -35 -194 -7 -40 -14 -74 -16 -76 -2 -1 -92 -79 -199
-172 -107 -94 -276 -238 -376 -321 l-180 -152 -114 15 c-63 9 -117 17 -119 20
-2 2 43 4 101 4 l106 0 159 133 c87 73 204 180 260 237 93 96 106 115 163 230
66 135 263 437 269 412 1 -8 -7 -69 -19 -136z m-1025 109 l220 -7 72 -37 72
-36 -25 -28 -24 -28 -142 16 c-128 15 -156 22 -268 67 -69 27 -129 55 -135 60
-7 7 -7 9 0 6 6 -3 109 -9 230 -13z m-570 -49 c-120 -49 -142 -55 -274 -70
l-145 -16 -22 27 -22 28 66 35 c74 38 124 45 402 48 l125 1 -130 -53z m215
-166 c0 -121 -3 -219 -7 -219 -12 2 -293 297 -293 307 0 6 199 94 298 131 1 1
2 -98 2 -219z m340 90 c0 -3 -70 -77 -155 -165 l-154 -160 0 221 c-1 121 1
223 4 226 6 6 305 -113 305 -122z m-1017 -7 c14 -21 46 -102 70 -180 l44 -143
-143 0 c-141 0 -144 0 -149 23 -12 50 -45 223 -45 234 0 12 163 101 186 102 6
1 23 -16 37 -36z m1522 -8 c52 -25 95 -47 95 -49 0 -10 -52 -261 -55 -264 -1
-1 -65 -1 -143 0 l-140 3 46 145 c40 124 80 210 98 210 2 0 47 -20 99 -45z
m-4596 -274 c106 -135 202 -256 214 -268 11 -13 18 -26 14 -29 -3 -4 -113 10
-244 30 -131 21 -299 47 -373 58 -74 11 -137 22 -139 24 -3 3 252 456 273 483
8 11 15 7 36 -20 14 -18 112 -143 219 -278z m7857 192 c37 -65 101 -176 142
-246 41 -70 73 -129 71 -131 -5 -4 -738 -116 -757 -116 -6 0 21 41 60 91 133
167 248 313 329 417 44 56 82 102 84 102 2 0 33 -53 71 -117z m-7491 -48 c237
-69 466 -136 510 -150 44 -13 114 -33 155 -45 146 -42 245 -73 252 -79 4 -4
-65 -19 -155 -35 -89 -15 -249 -43 -355 -62 l-194 -34 -361 271 c-199 149
-366 275 -372 280 -5 5 13 3 40 -5 28 -8 244 -71 480 -141z m7333 150 c-5 -5
-488 -367 -537 -403 -13 -9 -64 -47 -113 -84 -99 -75 -77 -72 -258 -38 -52 10
-195 35 -317 56 -123 21 -219 42 -215 45 4 4 61 23 127 43 231 68 672 198 855
251 102 30 244 72 315 93 135 41 152 45 143 37z m-4134 -177 l156 -163 -138
-3 c-75 -2 -188 0 -249 3 l-113 7 -45 140 c-25 78 -43 143 -41 145 4 4 201 29
253 32 15 1 64 -43 177 -161z m706 147 c69 -8 127 -15 129 -15 7 0 -9 -61 -44
-176 -31 -99 -39 -114 -58 -115 -65 -4 -487 -14 -487 -11 0 1 60 64 134 140
74 75 144 149 156 165 25 32 12 31 170 12z m-4072 -278 c183 -138 331 -251
330 -253 -2 -1 -57 -12 -123 -23 -95 -16 -122 -18 -131 -8 -6 6 -96 120 -199
252 -103 132 -200 253 -214 269 -39 44 -23 33 337 -237z m7486 251 c-6 -11
-400 -512 -424 -541 -6 -7 -239 29 -248 38 -3 3 666 512 676 514 2 1 0 -5 -4
-11z m-4864 -34 c0 -10 81 -414 86 -432 3 -9 -30 20 -75 65 -67 68 -89 100
-135 192 -31 61 -56 114 -56 118 0 5 33 20 73 34 72 26 107 34 107 23z m1997
-21 c46 -15 83 -30 83 -34 0 -4 -24 -56 -54 -115 -44 -88 -70 -126 -135 -194
-44 -47 -80 -82 -81 -78 0 6 69 350 85 426 3 12 8 22 12 22 4 0 44 -12 90 -27z
m-2434 -185 c-4 -7 -143 -170 -308 -363 -166 -192 -347 -404 -404 -470 -56
-66 -106 -121 -110 -123 -3 -1 -22 75 -40 170 -19 95 -54 274 -78 397 -24 124
-41 231 -39 238 3 7 15 13 27 13 24 0 164 22 634 100 333 55 329 54 318 38z
m3177 -54 c190 -30 395 -63 457 -73 62 -9 115 -19 118 -22 3 -3 -20 -131 -50
-285 -29 -153 -64 -331 -76 -394 -13 -63 -26 -118 -29 -123 -3 -4 -67 64 -141
150 -75 87 -260 303 -412 480 -152 177 -277 324 -277 328 0 3 15 3 33 0 17 -3
187 -31 377 -61z m-596 -508 c-60 -300 -111 -546 -114 -546 -3 0 -7 10 -8 23
-1 12 -20 144 -42 292 -23 149 -48 318 -56 377 l-16 107 38 33 c21 18 96 85
168 149 72 64 133 115 135 113 2 -2 -46 -248 -105 -548z m-2548 497 c-6 -48
-29 -326 -66 -803 -11 -140 -22 -265 -25 -276 -5 -21 -6 -21 -62 -8 -32 8 -87
21 -123 29 -36 8 -92 21 -125 29 -351 80 -431 99 -434 102 -3 3 188 229 367
434 41 47 84 96 96 110 110 131 370 430 373 430 3 0 2 -21 -1 -47z m251 -121
c135 -119 143 -127 138 -156 -3 -17 -21 -137 -40 -266 -19 -129 -44 -295 -55
-369 -11 -73 -20 -136 -21 -140 -1 -8 -218 1071 -219 1087 0 17 18 3 197 -156z
m2789 -217 c169 -198 353 -412 408 -475 l99 -114 -99 -23 c-99 -23 -244 -56
-404 -94 -47 -11 -121 -28 -165 -39 -43 -10 -80 -18 -81 -17 -1 1 -11 119 -23
262 -54 666 -61 754 -67 820 -6 62 -5 68 9 55 8 -8 153 -177 323 -375z m-2262
303 c3 -18 10 -109 16 -203 6 -93 13 -178 15 -187 2 -10 0 -18 -3 -18 -6 0
-227 182 -259 213 -11 11 -53 180 -53 214 0 10 31 13 140 13 l139 0 5 -32z
m464 14 l64 -7 -143 -130 c-79 -71 -176 -161 -217 -200 -67 -63 -101 -91 -102
-83 -7 56 -30 347 -30 383 l0 50 182 -3 c101 -2 212 -6 246 -10z m652 -12 c0
-31 -30 -401 -33 -412 -1 -4 -34 23 -72 60 -39 37 -142 132 -228 211 -87 79
-155 146 -152 149 3 3 103 8 224 11 120 3 228 7 240 8 17 1 21 -4 21 -27z
m320 23 c0 -3 -10 -52 -22 -109 l-21 -103 -134 -111 c-74 -62 -136 -110 -138
-109 -4 5 25 408 31 427 2 9 40 12 144 12 77 0 140 -3 140 -7z m-2071 -573
c60 -300 108 -547 106 -548 -2 -2 -70 2 -150 9 -99 9 -149 17 -152 26 -4 11 9
185 62 843 8 96 15 189 16 205 0 17 2 26 5 20 2 -5 53 -255 113 -555z m2556
300 c8 -107 26 -330 40 -495 13 -165 25 -305 25 -312 0 -6 -26 -14 -62 -17
-35 -4 -103 -12 -151 -17 -49 -6 -90 -9 -93 -6 -4 4 197 1030 213 1087 8 30 7
42 28 -240z m-5966 185 c145 -24 264 -45 266 -47 2 -2 -28 -102 -65 -223 -38
-121 -102 -326 -142 -457 -40 -130 -76 -234 -79 -232 -4 2 -9 14 -11 26 -3 13
-71 236 -152 496 -80 260 -146 478 -146 483 0 6 14 7 33 4 17 -3 151 -25 296
-50z m4811 -104 c63 -58 146 -135 185 -170 38 -35 79 -72 90 -83 19 -18 13
-18 -218 -18 l-237 0 0 216 0 216 33 -27 c17 -15 84 -75 147 -134z m4756 142
c-44 -148 -265 -867 -297 -971 -6 -18 -13 -32 -15 -29 -3 2 -206 655 -275 881
-5 16 -7 32 -4 34 4 4 546 99 578 101 13 1 17 -4 13 -16z m-4966 -203 l0 -210
-230 0 c-126 0 -230 2 -230 4 0 1 68 66 152 142 84 76 184 169 223 206 38 37
73 68 78 68 4 0 7 -94 7 -210z m-2341 -52 c24 -123 54 -277 68 -343 30 -150
43 -228 39 -232 -3 -4 -894 660 -895 668 -1 3 99 23 222 44 122 21 276 48 342
61 66 12 134 23 151 23 l30 1 43 -222z m4946 197 c39 -8 181 -33 317 -57 136
-23 244 -46 239 -51 -33 -33 -887 -664 -889 -657 -2 5 18 116 43 247 94 482
105 537 105 541 0 6 99 -6 185 -23z m-6508 -92 c211 -32 383 -60 383 -63 -1
-7 -1061 -813 -1064 -809 -2 2 59 204 135 449 75 245 140 453 142 463 3 9 9
17 14 17 4 1 180 -25 390 -57z m8252 25 c25 -81 109 -354 177 -578 41 -135 81
-265 89 -289 10 -31 11 -40 2 -33 -20 16 -770 587 -920 701 -75 57 -137 107
-137 111 0 3 39 12 88 19 48 6 209 31 357 55 342 55 331 55 344 14z m-7139
-332 c206 -153 380 -284 385 -289 6 -5 -24 8 -65 30 -41 22 -273 146 -515 274
l-439 234 44 8 c25 4 79 13 120 21 41 7 80 11 85 8 6 -3 179 -132 385 -286z
m6138 268 c92 -16 102 -19 85 -31 -10 -8 -112 -64 -228 -125 -115 -61 -232
-123 -260 -138 -27 -15 -120 -64 -205 -110 -85 -45 -189 -101 -230 -123 -41
-22 -71 -36 -67 -31 31 34 775 582 787 579 8 -2 62 -12 118 -21z m-4065 -183
c81 -67 147 -124 147 -127 0 -3 -96 -115 -212 -250 -117 -135 -219 -254 -227
-265 -26 -36 -28 -19 -10 89 10 59 27 175 39 257 12 83 30 204 41 270 10 66
19 132 19 146 0 36 10 42 34 21 12 -10 87 -74 169 -141z m1682 53 c60 -393
105 -707 102 -711 -2 -2 -20 16 -39 39 -20 24 -46 54 -58 68 -176 199 -362
420 -359 426 4 11 332 285 336 281 1 -2 9 -48 18 -103z m-3955 -156 c239 -127
473 -252 520 -277 47 -26 111 -60 143 -76 44 -23 53 -32 40 -37 -10 -3 -121
-18 -248 -33 -126 -14 -279 -33 -340 -41 -97 -12 -448 -55 -575 -69 -25 -3
-61 -8 -81 -11 l-36 -5 19 133 c35 256 88 646 88 653 0 12 20 2 470 -237z
m6494 180 c4 -35 18 -139 31 -233 59 -421 67 -486 63 -490 -3 -3 -114 9 -249
25 -134 17 -336 42 -449 55 -113 14 -236 29 -275 35 -38 5 -117 15 -175 21
-173 19 -199 -5 265 240 61 32 256 137 435 233 179 96 330 175 336 175 7 1 14
-25 18 -61z m-3556 -200 c-19 -24 -74 -94 -122 -155 -48 -62 -91 -115 -95
-118 -8 -4 -231 242 -231 255 0 4 55 13 123 20 67 7 163 19 212 25 50 7 103
13 119 14 l28 1 -34 -42z m392 11 c102 -11 188 -24 192 -28 7 -6 -204 -253
-220 -258 -6 -2 -146 171 -227 280 l-29 40 49 -7 c28 -3 133 -16 235 -27z
m-342 -419 l-3 -140 -122 122 -122 123 122 156 122 157 3 -139 c1 -77 1 -202
0 -279z m177 249 l113 -144 -121 -122 c-67 -68 -125 -123 -129 -123 -5 0 -8
127 -8 282 0 259 1 281 16 266 9 -9 67 -80 129 -159z m-594 -6 c57 -65 108
-121 113 -124 5 -4 7 -13 4 -20 -6 -15 -408 -483 -408 -475 0 6 49 217 110
471 28 116 53 225 57 242 3 18 9 30 13 28 4 -3 54 -58 111 -122z m1083 -263
c47 -195 83 -356 82 -357 -1 -1 -33 35 -71 79 -39 45 -132 153 -208 241 l-137
158 117 133 c93 105 120 130 126 117 4 -9 45 -176 91 -371z m190 85 c119 -137
216 -252 216 -255 0 -10 -271 -222 -277 -217 -3 3 -43 164 -89 358 -46 194
-87 362 -90 373 -5 19 -4 19 9 6 8 -8 112 -127 231 -265z m-1442 213 c-11 -42
-68 -277 -132 -550 -24 -100 -36 -136 -45 -130 -27 16 -264 208 -265 214 0 3
33 44 73 90 39 47 139 162 221 257 82 94 151 170 154 167 2 -3 0 -25 -6 -48z
m457 -342 l124 -125 -33 -28 c-19 -15 -95 -81 -169 -146 -75 -65 -148 -127
-162 -137 l-25 -19 63 282 c35 155 63 285 63 289 0 19 23 0 139 -116z m452 43
c9 -41 28 -126 43 -189 14 -63 35 -155 46 -203 10 -48 22 -92 25 -97 4 -6 4
-10 0 -10 -12 0 -380 322 -380 333 0 15 228 245 240 242 6 -1 17 -35 26 -76z
m-636 4 c-8 -32 -37 -163 -66 -290 -36 -156 -57 -233 -66 -233 -16 0 -245 90
-257 101 -5 4 23 45 64 91 40 46 131 152 203 236 72 83 132 152 133 152 1 0
-4 -26 -11 -57z m856 -171 c231 -269 217 -249 188 -261 -135 -56 -259 -99
-259 -88 0 2 -20 93 -45 202 -25 110 -53 232 -61 270 -8 39 -17 79 -20 90 -8
25 -21 40 197 -213z m-2416 122 c127 -30 272 -64 323 -76 50 -12 92 -24 92
-27 -1 -9 -457 -361 -467 -361 -7 0 -192 403 -235 513 -9 22 -38 27 287 -49z
m3938 -52 c-61 -59 -202 -195 -313 -302 -110 -107 -204 -196 -208 -198 -6 -2
-31 150 -69 410 -6 43 -43 30 317 113 135 31 268 63 295 70 97 26 96 20 -22
-93z m-3291 -72 c166 -17 154 4 96 -172 -27 -84 -50 -153 -51 -155 -3 -3 -187
321 -187 330 0 9 21 9 142 -3z m1386 -137 c169 -146 197 -170 240 -209 l34
-30 -173 -127 -172 -127 -69 0 -68 0 -153 112 c-83 61 -160 119 -170 128 -18
17 -11 25 185 194 111 96 205 176 207 176 1 0 64 -53 139 -117z m936 -138 c4
-93 9 -190 13 -215 l6 -45 -69 63 c-38 34 -107 97 -152 139 l-84 78 134 107
133 107 6 -32 c4 -18 10 -108 13 -202z m-1571 -105 c8 -7 -170 -157 -183 -153
-3 0 -9 18 -13 40 -5 21 -17 75 -28 120 -10 45 -19 84 -19 86 0 7 233 -82 243
-93z m1218 68 c-5 -13 -32 -84 -61 -158 -29 -74 -56 -146 -62 -159 -8 -22 -15
-12 -68 103 -33 71 -60 132 -60 136 0 4 21 15 48 25 26 9 79 30 117 45 88 36
97 37 86 8z"/>
<path d="M4317 3473 c-9 -27 -17 -51 -17 -55 0 -5 23 -8 51 -8 28 0 49 3 47 8
-25 52 -53 102 -58 102 -3 0 -14 -21 -23 -47z"/>
<path d="M5868 3471 c-16 -27 -28 -52 -28 -55 0 -3 23 -6 51 -6 47 0 50 1 43
22 -9 29 -34 88 -37 88 -1 0 -14 -22 -29 -49z"/>
<path d="M4206 3241 l-38 -39 58 -12 c33 -6 65 -13 72 -15 6 -3 12 -2 12 1 0
12 -51 104 -58 104 -4 0 -25 -18 -46 -39z"/>
<path d="M4073 3248 c-18 -6 -33 -14 -33 -17 0 -7 93 -31 99 -25 2 2 1 15 -3
29 -7 27 -14 28 -63 13z"/>
<path d="M3938 3098 c-27 -11 -48 -24 -48 -28 0 -8 104 -50 125 -50 9 0 10 10
4 43 -4 23 -8 45 -9 50 0 11 -21 7 -72 -15z"/>
<path d="M5955 3237 c-14 -24 -25 -47 -25 -52 0 -7 101 2 127 12 11 4 4 16
-23 44 -21 22 -41 39 -46 39 -4 0 -19 -20 -33 -43z"/>
<path d="M6101 3234 c-6 -15 -10 -28 -8 -31 6 -6 97 20 97 28 0 7 -54 29 -70
29 -4 0 -12 -12 -19 -26z"/>
<path d="M6226 3108 c-12 -39 -14 -88 -3 -88 17 0 127 44 127 51 0 6 -99 49
-113 49 -4 0 -9 -6 -11 -12z"/>
<path d="M4248 3009 c-21 -17 -38 -34 -38 -39 0 -9 128 -35 136 -28 6 6 -45
98 -54 98 -4 -1 -24 -14 -44 -31z"/>
<path d="M5932 3028 c-17 -22 -44 -80 -39 -84 5 -6 137 16 137 22 0 6 -74 73
-81 74 -4 0 -11 -6 -17 -12z"/>
</g>
</svg>
