<?xml version="1.0" encoding="utf-8"?>
<!-- Generator: Adobe Illustrator 21.0.0, SVG Export Plug-In . SVG Version: 6.00 Build 0)  -->
<svg version="1.1" baseProfile="tiny" id="图层_1"
	 xmlns="http://www.w3.org/2000/svg" xmlns:xlink="http://www.w3.org/1999/xlink" x="0px" y="0px" viewBox="0 0 402.1 523.1"
	 xml:space="preserve">
<title>Anime10_13_109</title>
<g>
	<path fill="none" d="M56.9,206.7c-0.1,0.2-0.2,0.5-0.3,0.8C56.7,207.3,56.8,207,56.9,206.7z"/>
	<path fill="none" d="M168.6,344.9c0,0-0.1,0-0.1,0.1c0.1,0,0.3,0,0.4,0C168.8,344.9,168.7,344.8,168.6,344.9z"/>
	<path fill="none" d="M68.5,57c-0.5-1.6-1.5-1.7-2.4-1.1C66.9,55.9,67.7,56.2,68.5,57z"/>
	<path fill="none" d="M66.3,184.2c-0.5,0.6-0.8,1.4-0.8,2.4C65.8,185.8,66.1,185,66.3,184.2z"/>
	<path fill="none" d="M318.9,266.7c-0.2-0.1-0.4-0.2-0.6-0.3c0.1,0.3,0.1,0.6,0.1,0.9C318.6,267,318.7,266.8,318.9,266.7z"/>
	<path fill="none" d="M317.2,264.7c0-0.1-0.1-0.2-0.1-0.3c0,0.1-0.1,0.2-0.1,0.3c0.1,0.1,0.2,0.1,0.3,0.2
		C317.3,264.8,317.2,264.8,317.2,264.7z"/>
	<path fill="none" d="M186.9,334.2c0-0.1,0.1-0.1,0.2-0.2c0.1,0,0.1,0,0.2,0c0,0,0,0-0.1,0c-0.1-0.2-0.1-0.3-0.2-0.5
		c0,0.1,0,0.3,0,0.4C187,334,187,334.1,186.9,334.2z"/>
	<path fill="none" d="M31.9,299.2C31.9,299.2,31.9,299.2,31.9,299.2c0.1,0,0.2,0,0.2,0C32,299.2,32,299.2,31.9,299.2z"/>
	<path fill="none" d="M210.5,458c-0.1,0-0.2,0-0.4,0c0,0,0,0,0,0c0,0.1,0,0.2,0,0.4c0.1-0.1,0.1-0.2,0.2-0.3L210.5,458z"/>
	<path fill="none" d="M218.6,291.1c0-0.1,0.1-0.2,0.1-0.4c-0.7,0.1-1.3,0.2-1.9,0.4C217.4,291.1,218,291.1,218.6,291.1
		C218.6,291.1,218.6,291.1,218.6,291.1z"/>
	<path fill="none" d="M324.3,435.3C324.3,435.3,324.3,435.3,324.3,435.3C324.3,435.3,324.3,435.3,324.3,435.3
		C324.3,435.3,324.3,435.3,324.3,435.3z"/>
	<path fill="none" d="M141.9,111.5c-0.2-0.3-0.4-0.5-0.5-0.8C141.4,111.1,141.6,111.3,141.9,111.5z"/>
	<path fill="none" d="M41.1,521.8L41.1,521.8L41.1,521.8C41.1,521.8,41.1,521.8,41.1,521.8C41.1,521.8,41.1,521.8,41.1,521.8z"/>
	<path fill="none" d="M40,521.8L40,521.8c0.1,0,0.1-0.1,0.2-0.1c0,0,0-0.1,0-0.1C40.1,521.7,40.1,521.7,40,521.8z"/>
	<path fill="none" d="M214.8,455.1c0,0,0-0.1-0.1-0.1c0,0.1-0.1,0.1-0.1,0.2L214.8,455.1z"/>
	<path fill="none" d="M313.9,183.9c-0.1,0-0.2,0.1-0.2,0.1c0.1,0,0.2,0,0.2,0C313.9,184,313.9,183.9,313.9,183.9z"/>
	<path fill="none" d="M270.6,182.6c-0.1,0.1-0.2,0.3-0.3,0.4c0.2-0.2,0.4-0.5,0.6-0.7C270.8,182.4,270.7,182.5,270.6,182.6z"/>
	<path fill="none" d="M317.8,179.2C317.8,179.2,317.8,179.2,317.8,179.2c0.1,0,0.1,0,0.1-0.1c-0.1,0-0.1,0-0.2,0
		C317.7,179.1,317.8,179.2,317.8,179.2z"/>
	<path fill="none" d="M307,168.2c0,0,0.1,0.1,0.1,0.1C307.1,168.3,307.1,168.2,307,168.2C307.1,168.2,307,168.2,307,168.2z"/>
	<path fill="none" d="M256.1,197c0,0,0.1,0.1,0.1,0.1l0.1-0.1C256.2,197,256.2,197,256.1,197z"/>
	<path fill="none" d="M251,234.1l0-0.1c0,0-0.1,0.1-0.2,0.1C251,234.1,251,234.1,251,234.1C251,234.1,251,234.1,251,234.1z"/>
	<path fill="none" d="M271.1,209.2c-0.2,0-0.3-0.1-0.5-0.1c0,0.4,0,0.7-0.1,1.1c0.2-0.3,0.5-0.7,0.7-1H271.1z"/>
	<path fill="none" d="M299.9,234.1C299.9,234.1,299.9,234.1,299.9,234.1C299.9,234,299.9,234,299.9,234.1c-0.1,0-0.1,0-0.2,0.1
		C299.8,234.1,299.8,234.1,299.9,234.1z"/>
	<path fill="none" d="M267.3,249.8L267.3,249.8C267.3,249.8,267.3,249.8,267.3,249.8C267.3,249.8,267.3,249.8,267.3,249.8
		C267.3,249.8,267.3,249.8,267.3,249.8z"/>
	<path fill="none" d="M337.1,169.1C337.1,169.1,337.1,169.1,337.1,169.1l-0.1,0c0,0,0,0.1,0,0.1C337,169.2,337,169.2,337.1,169.1z"
		/>
	<path fill="none" d="M284.6,276.8c0.1,0.1,0.2,0.3,0.3,0.4c0.1-0.2,0.2-0.3,0.3-0.5c0,0,0,0,0-0.1L284.6,276.8z"/>
	<path fill="none" d="M309.9,263.1C309.9,263.1,309.9,263.1,309.9,263.1c0-0.1,0-0.2,0-0.4c-0.3,0.2-0.6,0.4-1,0.6
		c-0.1,0-0.2,0-0.3,0c0.2,0.1,0.3,0.3,0.5,0.5L309.9,263.1z"/>
	<path fill="none" d="M59.9,194.8c0.2-0.2,0.3-0.4,0.5-0.5C60.2,194.4,60.1,194.6,59.9,194.8z"/>
	<path fill="none" d="M280.6,275.1c-0.1-0.1-0.3-0.2-0.4-0.3c-0.1,0.1-0.2,0.3-0.2,0.4c0,0,0,0,0,0l0.1,0
		C280.3,275.2,280.5,275.1,280.6,275.1z"/>
	<path fill="none" d="M323.2,222.3L323.2,222.3c-0.1,0-0.1,0-0.1,0.1C323.1,222.3,323.2,222.3,323.2,222.3z"/>
	<path fill="none" d="M190.4,481.2c-0.3-0.2-0.6-0.4-0.9-0.6c-0.1,0.6-0.4,1.3-0.9,1.9C189.2,482.1,189.8,481.6,190.4,481.2z"/>
	<path fill="none" d="M30.1,1.1c0,0,0-0.1,0-0.1c0,0-0.1,0.1-0.1,0.1H30.1z"/>
	<path fill="#B2AA9F" d="M21.1,522.2l18.9-0.4c0.1-0.1,0.1-0.1,0.2-0.2c-0.3-3.8,1-7.6,3.6-10.4c0.8,4.4-1.1,7.5-2.7,10.5
		c0,0,0,0,0,0.1l23.7,0.2h242.2c0,0,0.1-0.1,0.1-0.1l-0.1,0c-0.5-5,1.9-7.1,6.7-7.9c9.8-1.7,19.1-5.2,28.3-8.9
		c7.1-2.8,8.1-9.7,2.5-14.4c-3.1-2.6-7.6-4.4-8.2-9.4c-0.5-2.6,0.4-5.2,2.4-6.9c5.2-5.3,13.3-7.2,16.8-14.4c0.1-0.4,0.2-0.7,0.3-1.1
		c-1.2-1.3-2.4-1.2-3.7,0.1c-0.1,0-0.1,0-0.2,0.1c-6.6,6.9-13.8,12.8-22.7,16c-1.8,0.7-4,1.9-5.6,0.2c-1.6-1.7,0.4-3.3,1.1-4.9
		c0.2-0.8,0.3-1.6,0.2-2.4c-0.5,0-1-0.1-1.3,0.2c-11.1,8.8-22.1,1.7-33-0.5c-4-0.8-4.5-3.9-2.2-7.3c6.5-10.8,17.1-18.5,29.3-21.4
		c3.6-0.9,3.6-0.9,6.5-3.7c0,0,0,0,0,0c-8.6-0.2-16.3-3-24.3-0.4l0,0h0.1c1.1,2,1.6,3.9-0.3,5.8l-12.1,12.5c-3.2-2.1-6-3.9-9.5-3.2
		l-1.1,1.1l0,0c0,0,0,0,0,0c-3.3,6.8-12.6,8.3-16.8,2.5c-1.6-2.2-2.9-4.8,1.5-5.6c0,0,0,0,0,0c0.8-0.6,1.6-1.7,2.3-1.7
		c3.9,0.3,6.8-1.6,9.9-3.4c0,0,0-0.1,0-0.1c3.6-3.7,8.6-5.8,13.8-5.9c3.6,0,7.3,0.6,10.3-2h0l0,0c-2-2.4-4.4,0.7-6.7-0.6
		c-0.7-2.7,1.3-3.5,3.1-4c4.5-1.3,9-2,13.7-0.9c2,0.5,4.6,1.9,5.8-1.4c-2.5-2.1-5.4-2.1-8.4-2c-6.7,0.1-13.4-0.3-19.6-3
		c0,0,0-0.1,0-0.1c-4.1,7.6-10.7,10.9-19.1,12.3c-8.3,1.5-16.3,4.6-23.5,9.1c-2.4,1.5-3.8,1.6-6-0.3c-6.1-5.5-10.1-5.5-16.7-0.4
		c-0.4,0.3-0.7,0.8-1.2,0.9c-5.3,1.8-8,4.6-4.7,10.3c0,0.1-0.1,0.1-0.1,0.2c0,0,0,0.1,0.1,0.1l0.3-0.2c0.5-0.1,1-0.3,1.4-0.5
		c6.9-4.9,14.3-7.4,22.8-5.2l2.8-0.4c2.1-2.5,6.5-4.1,11.3-5c-4.1,8-9.4,12-17.5,12.2c-3.5,0.1-7,0.7-10.6,1c0,0,0,0,0,0h-0.1h-0.1
		c0,0-0.1,0.1-0.2,0.1c0.1,0,0.1,0,0.2,0c-0.2,2.3,0.9,5.4-2.9,5.9c0,0-0.1-0.1-0.1-0.1c-2.4,1.6-5.1,2.7-8,3.2
		c-0.1,0-0.1,0.1-0.1,0.1c0.1,0,0.2,0,0.2,0l1.6,4c-1.4,1.4-3.1,0.5-4.6,0.8c0-0.1,0-0.1,0-0.2c0,0-0.1,0.1-0.1,0.1
		c-1.5,1.3-3.1,0.6-4,2.3l0,0c-1.2,3.4-4.5,3-7,3.8s-6.3,2.5-7.2,6.5s-5,5.1-7.6,7.5c-2.6,2.4-8.8,5.8-11,11c-0.6,1.6-2.3,2.2-4,2
		l-3.2,0.2c-4.4,2.7-8.9,2.1-13.3,0.1c-4.4-2-10-2.1-14,2.5c-2.3,2.8-5.2,2.4-8,1.8c-2.8-0.6,1.3-4-0.5-6.2
		c-4.3,0.8-8.7,2.1-12.3,5.2c-1.2,1-2.5,1.7-4,1c-0.4-0.3-0.7-0.7-0.7-1.2c0.1-1.9,1.8-2,3.1-2.7c8.9-4.4,17.7-9.1,27.8-10.7
		c1.8-0.1,3.4-1.1,4.3-2.7c-4.1-1-8.2,0.4-12.2-0.9c2-3.7,23.8-9.4,34.7-9.4c0,0,0-0.1,0.1-0.1l7.1-6.1c0,0,0,0,0.1,0
		c2-2.1,3.3-5.2,7.1-1.6c2.1,1.9,4.3-1.1,5.3-3.4s2.5-5.5,6.3-4.8c0.9-1.6,2.4-1.9,4.2-2.1c3.2-0.1,6.2-1.8,7.9-4.5
		c0-0.1,0-0.2,0-0.4c0,0,0,0,0,0c0,0-0.1,0-0.1,0c-1.5-0.2-3,0-4.4,0.6c-4.6,2.3-9.5,4-14.6,4.9c-2.5,0.5-5.4,1.5-7.2,3.3
		c-3.8,3.7-7,1.4-10.4-0.1c-1.3-0.6-1.9-2.1-1.5-3.4c0.2-1.4,1.4-2.4,2.8-2.3h9.5c3,0.2,5.8-1.2,7.4-3.8c-3.3-3.8-1.4-6,2.7-7.5
		c2.1-0.8,3.8-2.1,5.1-3.9c3.2-4.2,6-8.7,11.7-10.1c0.9-0.2,1.5-1.1,1.3-2c0-0.1-0.1-0.3-0.1-0.4c-0.5-1.1-1.8-1.6-2.9-1.2
		c0,0-0.1,0-0.1,0.1c-2.1,0.7-4.1,1.2-6.1,0c-1.1-3.5,4.5-4.2,3.2-7.7c-2.3-1.3-3.3,0.8-4.5,1.9c-8,6.8-16.2,12.8-27.6,11.6
		c-3.2-0.4-5.7,1.1-7.5,4c-3.2,5.2-4.9,5.8-12.3,4.1c2.7-3.7,3.7-8,5.7-11.7s6.3-2.5,9.5-3.3s3.8-0.7,5.6-1.8
		c-5.8-7-3.1-15.7,5.6-18.5c5.1-1.6,10.3-2.7,15.6-3.2c-3.3-1.4-7.4,0.6-8.5-4.1c2.4-1.9,5.3-3.4,7.1-5.8c1.8-2.4-1.9-5.5-2.2-8.9
		c2.4-1.4,6.4-0.6,6.9-4.7c-3.5,1.3-7,0.9-10.4-0.2c-3.5-1.2-8.5,0.1-11.8,3.1s-7.4,6-12.7,6.1c-1.3,0.1-2.6,0.6-3.7,1.3
		c-3.2,2-7.2,2.2-10.5,0.4c-1.7-0.8-3.4-1.4-5.1-0.3s1.4,2.3,0.9,3.8c-3.2,2.1-7,3.1-10.8,2.7c-4.5-0.5-8,1.9-11.4,4.2
		c-7.8,5.4-15.6,10.8-25.6,11.1c-0.8,0-1.6,0.3-2.3,0.8c-9.5,7.8-22.1,8.4-32.5,14c-3.4,1.8-6.7,3.7-6.9,8.3
		c-0.1,2.2-1.9,3.1-4.1,3.6c-12,2.9-22.9,8.8-34.6,12.5c-2.5,0.7-4.6,2.2-6,4.3c-2.6,4.3-6.3,5.7-11,5.2v0L1,505
		c-0.3,5.3,1.2,10.8-0.9,16c-0.4,1.7,0.3,2.4,2,2C8.4,520.9,14.8,522.4,21.1,522.2z M26.1,509c2.1-0.1,3,1.9,4.3,2.6
		c1.3,0.7,1.2-2.5,3.5-2.2c3.1,4.1-1.2,6.1-3,9.6C28.7,515.4,26.9,512.5,26.1,509L26.1,509l-0.4-0.4L26.1,509z"/>
	<path fill="#FEFEFE" d="M30.1,0c0,0.3,0,0.6,0,0.9c0,0-0.1,0-0.1,0.1c0,0,0,0.1,0,0.1h0l61,0.1c0,0,0,0.1,0,0.1H395V1.1
		c0,0.2,0,0.3,0,0.5c0.1-0.2,0.2-0.5,0.4-0.7c1.8-0.1,3.6-0.5,6.1,0.6c0,47.2,0,94.7,0,142.2c0,0.1,0,0.1,0,0.2h0.6V0H30.1z"/>
	<path fill="#F0F5F9" d="M1,505l0.3-40v0h0c0-5.3,0-10.7,0-16h0c0-7.7,0-15.5,0-23.2v-18.7v0V401c0.2,0,0.4-0.1,0.5-0.1
		c-0.1,0-0.2-0.1-0.3-0.1V391c0.1-0.3,0.3-0.6,0.5-0.9c-0.3,0.3-0.5,0.5-0.8,0.8L1.3,364c0.1,0.1,0.3,0.1,0.4,0.2
		c0-0.1-0.1-0.1-0.1-0.2l-0.3-81.8c0,0,0,0,0,0c-0.1-1.5-0.1-3-0.2-4.5C1,188,1,98.2,1,8.5c0-2.8-1.2-6.3,3-7.4h0.4
		C4.3,1,4.2,0.9,4.1,0.8c0-0.3,0-0.5,0-0.8h-4c0,168.3,0,336.7,0,505H1z"/>
	<path fill="#FEFEFE" d="M366.1,522.1l-58.9-0.2c0,0-0.1,0.1-0.1,0.1H64.9l-23.7-0.2l-0.2,0h-0.8c0,0,0,0,0-0.1c0,0-0.1,0-0.1,0.1
		l-0.1,0l-18.9,0.4v0.8h-0.2c0.1,0.1,0.1,0.1,0.2,0.2h345.1c0,0,0-0.1,0.1-0.1c0,0,0,0,0-0.1h-0.2
		C366.1,522.7,366.1,522.4,366.1,522.1z"/>
	<path fill="#FEFEFE" d="M401.3,218.8c-0.1,0.1-0.3,0.2-0.4,0.3c0,0,0.1,0,0.1,0v9.3c0.1,0.1,0.3,0.1,0.4,0.2
		c-0.3,13.1-0.5,26.1-0.5,39c0.1,0,0.1,0,0.2,0.1v5.9c-0.3,0.1-0.5,0.2-0.8,0.3c0.1,0,0.1,0.1,0.2,0.1c0.1,30.4,0.1,60.8,0.2,91.3
		s0.2,61.7,0.5,93.7h0.9V215h-0.6L401.3,218.8z"/>
	<path fill="#F0EDE9" d="M401.2,516.4c0,4.3-1.3,5.9-5.7,5.7c-9.8-0.2-19.6,0-29.4,0c0,0.3,0,0.6,0,0.9h0.2h35.8v-64h-0.9
		C401.2,478.1,401,497.3,401.2,516.4z"/>
	<path fill="#F0EDE9" d="M401.5,214.8l0,0.2h0.6v-71v-0.1h-0.6C401.5,167.5,401.5,191.1,401.5,214.8z"/>
	<path fill="#CDDDEE" d="M4.4,1.1h25.5C29.9,1.1,30,1,30,1c0,0,0.1,0,0.1-0.1c0-0.3,0-0.6,0-0.9h-26c0,0.3,0,0.5,0,0.8
		C4.2,0.9,4.3,1,4.4,1.1z"/>
	<path fill="#F0EDE9" d="M21.1,522.2c-6.3,0.2-12.7-1.3-19,0.8h18.8h0.2V522.2z"/>
	<path fill="#F0EDE9" d="M1,505H0.1v16C2.2,515.8,0.7,510.3,1,505z"/>
	<path fill="#C2BAAF" d="M379.5,280.6c-1.7,0.7-3.5,1.1-5.3,1c0,0,0-0.1-0.1-0.1c0,0.1-0.1,0.2-0.1,0.3c-8.5,6.6-18.7,6.4-28.7,7.5
		c-1.3,3.5-4.6,3.2-7.3,3.4c-2.8,0.2-5.9,0.1-8.5,0.1c-1.7,2-1.1,3.9-1.1,5.7c0.1,1.8-0.7,3.6-2.1,4.8c-4.7,3.9-4.7,5.2,0.3,9.7
		c-7.6,2.9-12.1,9.4-18.6,13.5c-2.1,1.3-4.5,1.8-6.9,1.5c0,0-0.1,0-0.1,0c0,0,0,0,0,0c-8,4.7-16.7,6.8-25.9,7.2l-0.2,5
		c-2,1.3-3.3,0.3-4.7,0s-3.8-0.9-4.8,0.4c-4.3,5.7-11,4.6-16.7,6.2c-5.7,1.6-11,2.8-11,10.4c0,2.3-2,4.1-4.3,5.1s-4,2.3-4.7,5.1
		c-3.3-1.9-6.2-2.5-7.9,1.9c-0.3,0.9-1.3,2-2,2.1c-8.6,0.7-12.7,8.1-18.7,12.6c-0.1,0-0.2,0.1-0.3,0.1c-0.4,4-4.5,3.3-6.9,4.7
		c0.3,3.4,4,6.5,2.2,8.9c-1.8,2.4-4.7,3.9-7.1,5.8c1.1,4.7,5.2,2.7,8.5,4.1c-5.3,0.5-10.5,1.6-15.6,3.2c-8.7,2.8-11.4,11.5-5.6,18.5
		c-1.8,1.1-2.4,1-5.6,1.8s-7.5-0.4-9.5,3.3s-3,8-5.7,11.7c7.4,1.7,9.1,1.1,12.3-4.1c1.8-2.9,4.3-4.4,7.5-4
		c11.4,1.2,19.6-4.8,27.6-11.6c1.2-1.1,2.2-3.2,4.5-1.9c1.3,3.5-4.3,4.2-3.2,7.7c2,1.2,4,0.7,6.1,0c0,0,0.1,0,0.1-0.1
		c1.1-0.5,2.4,0,2.9,1.2c0.1,0.1,0.1,0.3,0.1,0.4c0.2,0.9-0.4,1.8-1.3,2c-5.7,1.4-8.5,5.9-11.7,10.1c-1.3,1.8-3,3.1-5.1,3.9
		c-4.1,1.5-6,3.7-2.7,7.5c-1.6,2.6-4.4,4-7.4,3.8h-9.5c-1.4-0.1-2.6,0.9-2.8,2.3c-0.4,1.3,0.2,2.8,1.5,3.4c3.4,1.5,6.6,3.8,10.4,0.1
		c1.8-1.8,4.7-2.8,7.2-3.3c5.1-0.9,10-2.6,14.6-4.9c1.4-0.6,2.9-0.8,4.4-0.6c0,0,0.1,0,0.1,0c0.1,0,0.2,0,0.4,0l4.2-2.8
		c0-0.1,0.1-0.1,0.1-0.2c0-0.1,0.1-0.1,0.1-0.2c-3.3-5.7-0.6-8.5,4.7-10.3c0.5-0.1,0.8-0.6,1.2-0.9c6.6-5.1,10.6-5.1,16.7,0.4
		c2.2,1.9,3.6,1.8,6,0.3c7.2-4.5,15.2-7.6,23.5-9.1c8.4-1.4,15-4.7,19.1-12.3c-0.7-4.3,1.6-6.9,5-8.9c0.1,0,0.1,0,0.2,0
		c1.6-2.5,4.1-4.3,6.9-5c0,0.1,0,0.1,0,0.2c3.4-2.6,5.8-6.8,10.8-7c0.1,0,0.2,0,0.3,0c-0.1-0.1-0.2-0.2-0.3-0.3
		c3.8-2.8,7.5-5.6,12.2-6.8c0.1-2.7,2.2-4.8,4.9-4.8c4.5,0,9,0.6,13.5-0.4c0.3,3.5-2.9,3.5-4,5.6c3,3.2,6.3,3.2,9.5,0.7
		c2.1-1.6,4-3.5,5.5-5.7c1.1-2,3.4-3,5.6-2.5c0,0,0,0,0.1,0c0,0,0-0.1-0.1-0.1c4.3-2.9,10.1-1.9,13.9-6c1.3-6.2,7.4-8.2,12.8-4.4
		c0.1,0,0.3,0.1,0.4,0.1l1.9,0.2c0,0,0,0.1,0,0.1c3-1.4,6.3-0.8,9.9-1.2c-4.5,3.5-3,10-7.4,13.2c-4.4,3.2-9.7,4.2-14.9,5.1
		c-5.2,0.9-13.4,0.5-18.9,5.9c-2,2-5.8,2.6-8.8,3c-3,0.4-4.2,2.1-3.9,5c0,0,0.1,0,0.1-0.1h2.9c4.6-2.8,10-3.3,15-4.6
		s5.4,2.3,5.8,5.3c0.4,3-1.8,3.9-4.6,4.6c-5.1,1.3-10.2,0.5-15.8,1.1c2,6.2-2.3,7.5-6.7,9c-7.7,2.7-15.6,4.3-23.8,3.8c0,0,0,0,0,0
		c-1.2,3.3-3.8,1.9-5.8,1.4c-4.7-1.1-9.2-0.4-13.7,0.9c-1.8,0.5-3.8,1.3-3.1,4c2.3,1.3,4.7-1.8,6.7,0.6l0,0h1.9l0,0
		c8-2.6,15.7,0.2,24.3,0.4c0,0,0,0,0,0c0,0,0,0,0,0c-2.9,2.8-2.9,2.8-6.5,3.7c-12.2,2.9-22.8,10.6-29.3,21.4
		c-2.3,3.4-1.8,6.5,2.2,7.3c10.9,2.2,21.9,9.3,33,0.5c0.3-0.3,0.8-0.2,1.3-0.2c0,0,0-0.1,0-0.1c6-4.5,13.3-5.8,20.3-7.9
		c2.2-0.5,4.5-0.8,6.8-1c0,0,0,0-0.1,0.1c0.1,0,0.1,0,0.2-0.1c1.3-1.3,2.5-1.4,3.7-0.1c-0.1,0.4-0.2,0.7-0.3,1.1
		c-3.5,7.2-11.6,9.1-16.8,14.4c-2,1.7-2.9,4.3-2.4,6.9c0.6,5,5.1,6.8,8.2,9.4c5.6,4.7,4.6,11.6-2.5,14.4c-9.2,3.7-18.5,7.2-28.3,8.9
		c-4.8,0.8-7.2,2.9-6.7,7.9l0.1,0l58.9,0.2c9.8,0,19.6-0.2,29.4,0c4.4,0.2,5.7-1.4,5.7-5.7c-0.2-19.1,0-38.3,0-57.4
		c-0.3-32-0.4-63.2-0.5-93.7s-0.1-60.9-0.2-91.3c-0.1-0.1-0.1-0.1-0.2-0.1C393.4,276.1,386.4,278.3,379.5,280.6z M354.1,306.6
		c2.1-2.2,4-3,7.1-1.9C359.1,307.7,356.9,307,354.1,306.6z M376.2,413c1.8,6.2,0.8,8.6-4.2,11.5C370.4,419.2,371.6,415.6,376.2,413z
		 M372.6,430.1c3.7,5.2-1,7.3-3.1,11.5C368.9,436.5,371.3,433.7,372.6,430.1z"/>
	<path fill="#A6ABA9" d="M378.2,270.1c-2.6-0.7,0.6-3-2-3.1c-1.1,0-2.1,0.2-1.7,1.7c0.8,3.2-1.4,3.1-3.5,3.3
		c-14.4,1.1-28.7,3-41.2,11.1c-2.4,1.5-5.1,2.7-7,4.7c-4.6,5.2-11.4,7.9-18.3,7.1c-4-0.4-6,1.1-5.5,5.3c0.5,4.2-1.1,4.9-4.6,4.7
		c-2.8-0.2-5.7-0.2-8.5,0c-3.4,0.3-5.6-1.3-7.3-4.8c-4.1,6.5-9.5,5.9-15.6,5c-6-1-12.2,1-16.5,5.3c-4.5,4.6-11,2.8-15.6,6.7
		c-0.6-4.9,3-6.6,5.6-8.7c2.6-2.1,2.7-3.1,2.6-5.4c-5.2,1.3-8.7,5.9-14,7l-0.7,0.3c-1.6,3.8-4.9,3.9-8.3,3.7l-0.7,0.3
		c-0.2,1.8-2.3,2.2-2.9,3.8l2.4,1.6c-4.4,5.2-9.7,4.2-15,2.8c-3.5,1.3-6.5,3.6-8.8,6.5c0,0-0.1,0-0.1,0.1c0,2.6-3.6,2.2-4,4.4
		c0,0.2,0.1,0.3,0.2,0.5c0,0,0,0,0.1,0c3.3,0.8,6.1-2,9.6-1c-6.5,3.3-12.5,7.3-19.7,9.1l-0.1-0.1c-1.4,4.5-4,7.6-9.1,7.9
		c0,0-0.1,0-0.1-0.1c0,0.1,0.1,0.1,0.1,0.2c-3.9,2.8-8.6,2.2-12.9,3.2l0.1,0c-0.8,3.5-5.1,3.7-6.2,6.9c0,0,0,0,0,0
		c-1.8,4.1-5.7,2.2-8.8,2.9c0,0.1-0.1,0.1-0.1,0.2c0,0,0.1,0,0.1-0.1c0.3,0.6,0.4,1.3,0.9,1.6c4,2.7,4.1,6.2-0.1,8.6
		c-2.7,1.3-5.4,2.5-8.2,3.5c-0.8-1.6,1.2-4-1.6-4.7c0,0,0-0.1,0-0.1c-5.5,3.1-11.7,1.5-17.5,2.8c-2.2,0.4-4.4,1-6.5,1.8
		c2,5.2-0.8,7.5-5.5,8.6c-4.7,1.1-11.3,3.8-16.8,6.1c-0.2,1.9,2.2,1,2.6,2.9c-7.7,2.5-16.3,2.1-23.3,6.8c-0.1,0.1-0.2,0.2-0.3,0.2
		c0.1,0,0.2,0,0.3,0l-0.9,3.6l2.8,0.2c0,0,0,0.1,0,0.1c8.8-2.7,17.6-6.7,27.1-2.7c-9.1,3.1-18.6,3.8-28.1,4.6l0.1-0.2
		c0,0-0.1,0-0.1,0.1c-6.6,2.1-13.5,1.7-20,2c-1.5,2.2,1.6,2.8,0.5,4.7c-8.4,1.3-16.4,5.1-25.4,5.1c-0.1,0-0.1,0.1-0.2,0.1
		c-1.7,0.5-3.5,0.8-4.9,2.1c0,0,0,0,0,0.1c0.2,0.2,0.5,0.6,0.6,0.6c8.1-2.1,10.5,4.5,14.2,9c-0.9,3-3.2,2.6-5,2.3
		c-7.3-1.3-11.4,1.9-13.7,8.7c-1.5,4.5-4.6,7.7-9.9,7.4v0h0c0,5.3,0,10.7,0,16h0c4.7,0.5,8.4-0.9,11-5.2c1.4-2.1,3.5-3.6,6-4.3
		c11.7-3.7,22.6-9.6,34.6-12.5c2.2-0.5,4-1.4,4.1-3.6c0.2-4.6,3.5-6.5,6.9-8.3c10.4-5.6,23-6.2,32.5-14c0.7-0.5,1.5-0.8,2.3-0.8
		c10-0.3,17.8-5.7,25.6-11.1c3.4-2.3,6.9-4.7,11.4-4.2c3.8,0.4,7.6-0.6,10.8-2.7c0.5-1.5-2.6-2.7-0.9-3.8s3.4-0.5,5.1,0.3
		c3.3,1.8,7.3,1.6,10.5-0.4c1.1-0.7,2.4-1.2,3.7-1.3c5.3-0.1,9.4-3.1,12.7-6.1s8.3-4.3,11.8-3.1c3.4,1.2,6.9,1.6,10.4,0.2
		c0.1,0,0.2-0.1,0.3-0.1c6-4.5,10.1-11.9,18.7-12.6c0.7-0.1,1.7-1.2,2-2.1c1.7-4.4,4.6-3.8,7.9-1.9c0.7-2.8,2.4-4.1,4.7-5.1
		s4.3-2.8,4.3-5.1c0-7.6,5.3-8.8,11-10.4c5.7-1.6,12.4-0.5,16.7-6.2c1-1.3,3.4-0.7,4.8-0.4s2.7,1.3,4.7,0l0.2-5
		c-6.7-0.3-12.7,3.1-19.3,3.5c5.3-4.4,11.6-5.9,18.1-7.1c0,0,0.1,0,0.1,0c2.7-2.9,5.6-3.4,9.1-1.5c5.1-3.6,11.3-2.6,17-3.6
		c0.7-0.1,0.8,0.8,0.9,1.5c0,0,0.1,0,0.1,0c2.4,0.3,4.8-0.2,6.9-1.5c6.5-4.1,11-10.6,18.6-13.5c-5-4.5-5-5.8-0.3-9.7
		c1.4-1.2,2.2-3,2.1-4.8c0-1.8-0.6-3.7,1.1-5.7c2.6,0,5.7,0.1,8.5-0.1c2.7-0.2,6.1,0.1,7.3-3.4c0,0-0.1,0-0.1,0
		c-2.7-0.2-5.5,2-8.1-0.2c0,0,0,0,0,0c0,0-0.1,0-0.1,0c-2.1,0.4-4.1,1.2-7,0.2c3.8-5.8,10.2-3.6,15-5c4.8-1.4,10.2-5.1,16-4.7
		c0,0,0-0.1,0.1-0.1c5.2-2.6,10.5-4.2,17.2-3.3c-1.8,2.1-3.4,3.4-4.2,5.3c0,0,0,0.1,0.1,0.1c1.8,0.1,3.6-0.3,5.3-1
		c6.9-2.3,13.9-4.5,20.8-6.7c0.3-0.1,0.5-0.2,0.8-0.3v-5.9c-0.1,0-0.1,0-0.2-0.1c0,0.1,0,0.3,0,0.4C393,267.9,385,267.3,378.2,270.1
		z M234.5,335.7c-7.3,5-17.3,2.9-23.4,10c-1.6-1.2-0.1-2.5-0.8-3.4c-0.7-0.9-4.2,0.8-6.4-0.1C213.4,337.5,223.9,335.3,234.5,335.7z
		 M148.9,367.9c0.2-0.2,0.4-0.3,0.7-0.4c7.8-2.9,14.7-8.8,23.9-7.5c5.7,0.8,10.1-2.2,14.6-5.3s7.8-3.5,11,0.3
		c1.7-0.1,3.1-1.6,4.9-0.9c0,0.1,0,0.2,0,0.3c0-0.1,0.1-0.2,0.1-0.3l12.9-0.9c-3,2.3-6.1,2-6.8,4.7l6.8,0.2c1.6,0,3.7-0.3,3.6,2.1
		c-0.1,2.4-1.5,2.5-3.1,2.7c-10.7,1.1-21,4.4-31.7,5c-1,0.2-2-0.1-2.7-0.8c0,0,0,0,0.1,0c-0.1,0-0.1,0-0.2,0l-1.8,0.2
		c-3.8,3.6-9,2-13.2,3.6c-1.5-1.8,1.2-4.8-2.2-5.5c-3.3-0.8-6.7-0.1-9.4,1.9c-1.6,1.2-2.8,2.8-4.4,4.1c-0.8,0.8-2.1,0.8-3,0
		c-0.2-0.2-0.3-0.4-0.4-0.6C147.9,369.9,148,368.6,148.9,367.9z M168,383.1l0.4,0.2c0,0.1,0,0.3,0,0.4H168
		C167.5,383.5,167.5,383.3,168,383.1z M176.7,380.3c-0.1,2.2-1.2,3-3.2,3.3C172.8,380.7,174.1,380,176.7,380.3z M194.4,379
		c-4.9,4-8.8,2.4-12.6,0.3C185.8,377.6,190.3,377.5,194.4,379z M165.2,384.1c-6,4-20,5.4-30.9,3.4
		C144.8,384.2,155.2,385.4,165.2,384.1z M141.8,391.4c4.8-2.1,9.8-1.5,14.8-0.4C151.7,391.5,146.8,390.1,141.8,391.4z M126.6,388.9
		c-5.4,3.9-11.3,2.6-16.6,3.8C113.6,389.1,120.1,387.6,126.6,388.9z M54.8,415.6c4-4.2,8.6-6,13.4-2.7c1.4,0.8,2.2,2.2,2,3.8
		c0,0.3,0,0.7-0.1,1c-0.7,2.7-11.2,8-13.8,6.9C51.2,422.5,50.8,419.8,54.8,415.6z"/>
	<path fill="#A6ABA9" d="M337.8,424.2c4.4-1.5,8.7-2.8,6.7-9c5.6-0.6,10.7,0.2,15.8-1.1c2.8-0.7,5-1.6,4.6-4.6
		c-0.4-3-0.8-6.6-5.8-5.3s-10.4,1.8-15,4.6c-1,4.3-5.7,7.7-11.4,8.2c-2,0.1-3.9,0.1-5.9,0c-2.6-0.1-4.6,0.5-5.5,3.1
		c-0.9,2.6-2.4,2.4-4.1,0.9c0-0.1,0-0.1,0-0.2c0,0.1,0,0.1-0.1,0.2c-1.8,0.1-3.6-0.4-5.1-1.5c-3.1-2.3-7-3.2-10.9-2.5
		c0,0,0,0.1,0,0.1c-1.9,2.7-4.3,3.2-5.7,0s-4.2-0.3-4.3-3c0,0,0-0.1,0.1-0.1c-0.1,0-0.1,0-0.2,0c-3.4,2-5.7,4.7-5,8.9
		c0,0,0,0.1,0,0.1c6.2,2.7,12.9,3.1,19.6,3c3-0.1,5.9-0.1,8.4,2c0,0,0,0,0,0C322.2,428.5,330.1,426.9,337.8,424.2z"/>
	<path fill="#A6ABA9" d="M164.4,502.2c-3.6-1.5-6.4-3.7-6.2-8c0.2-4.3,2.9-7.9,7.1-9.9c2.3-1.1,5.2-0.7,6.7-3.3
		c-10.9,0-32.7,5.7-34.7,9.4c4,1.3,8.1-0.1,12.2,0.9c-0.9,1.6-2.5,2.6-4.3,2.7c-10.1,1.6-18.9,6.3-27.8,10.7c-1.3,0.7-3,0.8-3.1,2.7
		c0,0.5,0.3,0.9,0.7,1.2c1.5,0.7,2.8,0,4-1c3.6-3.1,8-4.4,12.3-5.2c1.8,2.2-2.3,5.6,0.5,6.2c2.8,0.6,5.7,1,8-1.8
		c4-4.6,9.6-4.5,14-2.5c4.4,2,8.9,2.6,13.3-0.1C166.3,503.4,165.4,502.8,164.4,502.2z"/>
	<path fill="#7894A3" d="M182.7,487.2c1.7-1.8,3.7-3.2,5.9-4.7c0.4-0.6,0.8-1.2,0.9-1.9c-4.3-2.8-4.9-2.4-14,3.6
		c-0.5-2.5,1.7-3.3,2.9-4.8c1.2-1.5,2.9-2.6,0.8-4.5c0,0,0,0,0.1-0.1c0,0,0,0-0.1,0l-7.1,6.1c0,0,0,0.1-0.1,0.1
		c-1.5,2.6-4.5,2.2-6.7,3.3c-4.2,2-6.9,5.6-7.1,9.9c-0.2,4.3,2.6,6.5,6.2,8c1,0.6,1.9,1.2,2.7,2l3.2-0.2c0,0,0,0-0.1,0
		C172.7,497.2,177.9,492.3,182.7,487.2z"/>
	<path fill="#A6ABA9" d="M196.6,475.5c-3.1-5.8,5-4,5.1-7.4c0.1-3.4-3-1.5-3.7-3.1c-3.8-0.7-5.3,2.5-6.3,4.8s-3.2,5.3-5.3,3.4
		c-3.9-3.6-5.2-0.5-7.1,1.6c0,0,0,0-0.1,0.1c2.1,1.9,0.4,3-0.8,4.5c-1.2,1.5-3.4,2.3-2.9,4.8c9.1-6,9.7-6.4,14-3.6
		c0.3,0.2,0.6,0.4,0.9,0.6c-0.6,0.4-1.2,0.9-1.8,1.3c-2.2,1.5-4.3,2.9-5.9,4.7c-4.8,5.1-10,10-12.5,16.8c0,0,0,0,0.1,0
		c1.8,0.2,3.5-0.4,4-2c2.2-5.2,8.4-8.6,11-11c2.6-2.4,6.7-3.5,7.6-7.5s4.7-5.7,7.2-6.5s5.8-0.4,7-3.8
		C203.5,473.6,200.3,475.7,196.6,475.5z"/>
	<path fill="#667C8D" d="M225.3,457C225.3,457,225.3,457,225.3,457C225.3,457,225.2,457,225.3,457L225.3,457z"/>
	<path fill="#667C8D" d="M210.5,458l-0.2,0.1c-0.1,0.1-0.1,0.2-0.2,0.3c-1.7,2.7-4.7,4.4-7.9,4.5c-1.8,0.2-3.3,0.5-4.2,2.1
		c0.7,1.6,3.8-0.3,3.7,3.1c-0.1,3.4-8.2,1.6-5.1,7.4c3.7,0.2,6.9-1.9,10.5-2.3l0,0c0.9-1.7,2.5-1,4-2.3c0,0,0.1-0.1,0.1-0.1
		c0-2-0.4-4.5,2.8-4.6c0.1,0,0.1-0.1,0.1-0.1c2.9-0.5,5.6-1.6,8-3.2c-2.8-2.5-5.2,1.6-8.4,0.6c2.7-4.4,6.6-6,11.2-6.4
		c0,0,0.1-0.1,0.2-0.1h0.1c-0.4-4.2,1.2-5.9,5.5-4.3c1.1,0.3,2.3,0.4,3.4,0.3c-0.2-3.7,3.9-1.9,5.1-3.8l0.1,0
		c-8.5-2.2-15.9,0.3-22.8,5.2c-0.4,0.2-0.9,0.4-1.4,0.5l-0.3,0.2l-0.2,0.1L210.5,458z"/>
	<path fill="#A6ABA9" d="M298.1,434.9L298.1,434.9c-3,2.6-6.7,2-10.3,2c-5.2,0.1-10.2,2.2-13.8,5.9c0,0,0,0.1,0,0.1c0,0,0,0,0,0
		l1,2.2c0,0,0.1,0.1,0.1,0.1c0-0.1,0-0.1,0-0.2c4.8-1.6,9.2-4.3,15.7-3.9c-4.4,3.6-9.4,3.8-12.8,6.8l0.2,2.1
		c3.5-0.7,6.3,1.1,9.5,3.2l12.1-12.5c1.9-1.9,1.4-3.8,0.3-5.8H300H298.1z"/>
	<path fill="#A6ABA9" d="M345.3,460c-7,2.1-14.3,3.4-20.3,7.9c0,0,0,0.1,0,0.1c0.1,0.8,0,1.6-0.2,2.4c-0.7,1.6-2.7,3.2-1.1,4.9
		c1.6,1.7,3.8,0.5,5.6-0.2c9-3.3,16.2-9.2,22.7-16c0,0,0,0,0.1-0.1C349.8,459.2,347.5,459.5,345.3,460z"/>
	<path fill="#A6ABA9" d="M234.1,453c-1.1,0.1-2.3,0-3.4-0.3c-4.3-1.6-5.9,0.1-5.5,4.3c0,0,0.1,0,0.1,0c3.6-0.3,7.1-0.9,10.6-1
		c8.1-0.2,13.4-4.2,17.5-12.2c-4.8,0.9-9.2,2.5-11.3,5C240.9,453.1,237.3,452.7,234.1,453z"/>
	<path fill="#667C8D" d="M278,447.9c-2.1,0.2-3.1-0.7-2.9-2.7c0,0-0.1-0.1-0.1-0.1l-1-2.2c0,0,0,0,0,0c-3.1,1.8-6,3.7-9.9,3.4
		c-0.7,0-1.5,1.1-2.3,1.7c0,0,0,0,0,0c0,0,0.1,0,0.1,0c0.5,7.1,2,7.9,8.6,4.9c2-1.1,4.3-1.7,6.6-1.8l0,0l1.1-1.1L278,447.9z"/>
	<path fill="#A6ABA9" d="M270.5,452.9c-6.6,3-8.1,2.2-8.6-4.9c0,0-0.1,0-0.1,0c-4.4,0.7-3.1,3.4-1.5,5.6c4.2,5.8,13.5,4.3,16.8-2.5
		c0,0,0,0,0,0C274.8,451.2,272.5,451.8,270.5,452.9z"/>
	<path fill="#928F88" d="M30.9,519c1.8-3.5,6.1-5.5,3-9.6c-2.3-0.3-2.2,2.9-3.5,2.2c-1.3-0.7-2.2-2.7-4.3-2.6l-0.1,0
		C26.9,512.5,28.7,515.4,30.9,519z"/>
	<path fill="#A6ABA9" d="M213.7,463.5c3.2,1,5.5-3.1,8.4-0.6c0,0,0.1,0.1,0.1,0.1c3.8-0.5,2.7-3.6,2.9-5.9c-0.1,0-0.1,0-0.2,0
		C220.3,457.5,216.4,459.1,213.7,463.5z"/>
	<path fill="#928F88" d="M41.1,521.7c1.6-3.1,3.5-6.2,2.7-10.5c-2.6,2.8-3.9,6.6-3.6,10.4c0,0,0,0.1,0,0.1c0,0,0,0,0,0.1H41
		L41.1,521.7C41.1,521.8,41.1,521.8,41.1,521.7z"/>
	<path fill="#274D73" d="M234.1,453c3.2-0.3,6.8,0.1,8-4.2l-2.8,0.4l-0.1,0C238,451.1,233.9,449.3,234.1,453z"/>
	<path fill="#A6ABA9" d="M211.2,470.8c0,0.1,0,0.1,0,0.2c1.5-0.3,3.2,0.6,4.6-0.8l-1.6-4c-0.1,0-0.2,0-0.2,0
		C210.8,466.3,211.3,468.8,211.2,470.8z"/>
	
		<line fill="none" stroke="#928F88" stroke-width="0" stroke-linecap="round" stroke-linejoin="round" x1="25.7" y1="508.6" x2="26.1" y2="509"/>
	<path fill="#C2BAAF" d="M334.1,265C334.1,265,334.2,265,334.1,265c0.1-0.1,0-0.1,0-0.1C334.1,264.9,334.1,265,334.1,265z"/>
	<path fill="#C2BAAF" d="M337.1,169.1C337.1,169.1,337.1,169.1,337.1,169.1l0-0.1L337.1,169.1C337.1,169.1,337.1,169.1,337.1,169.1z
		"/>
	<path fill="#C2BAAF" d="M331.2,251.1C331.2,251.1,331.3,251.1,331.2,251.1c0-0.1,0-0.1-0.1-0.1c0,0.1,0,0.2,0,0.2
		C331.1,251.2,331.2,251.1,331.2,251.1z"/>
	<path fill="#C2BAAF" d="M393.1,16.1C393.1,16.1,393.1,16.1,393.1,16.1C393.1,16.1,393.2,16.1,393.1,16.1c0.6,3.5-0.7,5.2-4,7.2
		c-3.3,2-7.9,5.9-13,6.7c0-0.1,0.1-0.3,0.2-0.4c-0.1,0.1-0.2,0.1-0.3,0.2l-3,3c-0.2,0.1-0.4,0.2-0.7,0.3c0.2,0,0.5-0.1,0.7-0.1
		c-4.3,9-10.2,17.1-17.5,23.8c-0.7,0.7-1.7,1.1-2.4,1.7c-5.4,4.8-6.3,4.7-9-2.2c-2.4,0.9-2.3,3.4-3.4,5.1
		c-3.2,5.2-6.6,10.3-9.9,15.5s-5.4,2.5-7.6,0.5s-6-2.6-9.3-2.2c-3.3,0.4-8.1,1.4-12.2,2.2c-4.1,0.8-8.4,3.6-9.8,8.6
		c-0.4,1-0.9,2-1.5,2.9c-0.1-0.1-0.1-0.2-0.2-0.2c0,0,0,0,0,0c-1.2,11.8-10.5,12.6-19.1,14.3c0-0.3-0.1-0.5-0.2-0.8
		c0,0.1,0,0.1-0.1,0.2c-0.1,0.2-0.2,0.3-0.3,0.5c-5.3,3-10.7,5.6-17,6.2s-14.6,4-22.3,4.6c-1.3,0.1-2.5,1.2-3.7,1.2
		c-13.1-0.7-24.7,6.1-37.5,7.1c-5.2,0.4-9.2,3.3-12.5,7.4c-6.4,8-14.7,11.9-25.2,11.7c-11.9-0.3-23.6,3.5-33.1,10.7
		c-5.8,4.5-12.3,8.3-17.7,13.5c-1.5,1.4-3.1,2.6-4.9,3.5c-5.8,3.1-12.2,4.9-15.2,12.2c-1.5,3.6-6.9,4.6-10.7,5.9
		c-1.8-1.2-0.2-2.5-1.1-3.7c-1.6-0.2-2.7,0.2-3.4,1c-0.2,0.9-0.5,1.7-0.8,2.4c0,0.3,0,0.6,0,0.9c0.2,3.1-0.4,5-3.7,6
		c-0.6,0.2-1,0.4-1.4,0.8c-0.2,0.2-0.3,0.4-0.5,0.5c-1,1.5-0.5,3.8-0.2,5.5c0.3,2.4,0.6,3.7-1.5,5.1c-0.6,0.4-1,0.9-1.3,1.3
		c-0.1,0.3-0.2,0.5-0.3,0.8c-0.2,0.9,0,1.8,0.3,2.9c0.6,2,2.4,2.2,4.2,2.6c5,1.2,10,2.6,13.3,7.1c0.8,1.1,1.2,3.1,3.2,2.5
		c2-0.6,2.1-3.2,2.7-5c0.7-1.6-0.1-3.5-1.7-4.2c0,0,0,0,0,0c-1.3-0.7-3.1,0-3.9-1.7c-0.1-1.3,0.8-2.4,2.1-2.5c0.1,0,0.3,0,0.4,0
		c5.1,0.4,10-1.3,15.2-0.8c7.5,0.7,15.5,2.5,22.4-3.1c2.7-2.2,6.4-2.6,10-2.5c7.4,0.1,14.9-0.6,22.2-1.9c4.9-0.8,9.7-2,13.6-5.5
		c1.2-1.2,2.9-1.7,4.6-1.6c0.2,0.2,0.4,0.5,0.5,0.7c0.1-0.2,0.2-0.4,0.3-0.6c1.2-0.4,2.5-0.7,3.8-0.9c7.2-0.2,13.5-2.6,19.6-6.4
		c6.1-3.8,12.3-7.3,19.7-7.9c0.3-1.8,1.9-2.3,3.3-2.6c6.2-1.4,11.6-5.3,14.7-10.9c2-3.4,5.4-4.9,9.4-4.9c0.2,0.4,0.3,0.8,0.4,1.2
		c-6.7,3.3-5,11.3-9,16.1c-1.1,1.3-0.2,2.5,0.9,3.4c1.1,0.9,2.9,0.3,4-0.5l19.2-14.9c3-2.3,5.8-5.1,10-4.7c0.5-2.1-0.6-3.9-1.1-5.8
		c0,0,0,0,0,0c-5.5-2.3-6.1-6.8-5.5-12c-0.1-0.1-0.1-0.1-0.2-0.2c-2.2-9.4,3.1-17.6,13.7-21.2c0,0,0,0,0,0c1.5-1,3.6-0.9,5,0.3
		c3-0.5,5.1,0.9,6.9,2.9l0.2,0.1c1.9,1,4,1.8,4.3,4.4c0,0,0,0,0,0c1.9,2.2,2,4.8,2,7.5c0,0.1,0,0.2,0,0.2l0.2,0l1.6,0.9
		c3.6-0.3,3.8,3.9,6.8,5.1s4,1.8,6.3,1.9c4.1-0.6,8.2,0.2,11.8,2.3c6,1.2,10.8,4.6,15.7,8c1.1,0.8,1.6,2.1,1.3,3.4c0,0,0.1,0,0.1,0
		c3.7,0.8,7.4,1.5,5.5,6.9c-0.3,0.9,0.4,2.2,0.6,3.3l-0.1,0.1c5.2,2.6,6.2,6,3.4,12c-0.1,0-0.1,0.1-0.2,0.1l0.1,0
		c0.7,3.9-2.2,5.1-4.9,6.2c-2.7,1.1-3.7,1.2-5.5,1.8c4.8,9.6,1.8,19.9,3,29.9c0.2,1.7,1.1,4.1-1.6,5.1c0,0,0,0,0,0
		c-0.6,2,0.3,4.2-1.1,6c0,0,0,0,0,0c0,0.1,0,0.1,0,0.2c-0.6,2.7-1.8,4.8-5.1,4.4c-0.9,3.6-2,7.1-6.1,8.5c-2.8,1.7-5.6,3.6-9.1,3.7
		c0,0,0-0.1,0-0.1l-2.6,0.4c0,0,0,0.1,0,0.1c-0.4,1.7-1.7,1.7-3.1,1.8c-6.6,0.8-13.1,1.8-19.7,2.4c-3.6,0.1-6.7,2.3-8.1,5.6
		c-1.9,3.9-4,7.7-7.4,10.5c-1.4,1.1-2.9,2.9-4.2-0.6l-1.4,3.2c-0.1-0.1-0.1-0.1-0.2-0.2c0,0,0,0.1,0,0.1c0.1,4.2-0.2,8.5-1,12.6
		c0,0,0.1,0,0.1,0.1c1.2,0.8,3.5-0.8,5.1-2v-0.1c1.9-4.2,5.2-7.6,9.3-9.7c0.1,0.1,0.2,0.2,0.3,0.2c0-0.1-0.1-0.2-0.1-0.3l2.2-3
		c0-0.1,0.1-0.1,0.1-0.2c-0.1,0.1-0.1,0.1-0.2,0.2c1.4-6.7,4.3-9,11.2-8.8c0,0-0.1,0.1-0.1,0.1c0.1,0,0.1-0.1,0.2-0.1l2.7-0.3
		c3.6-4.8,8.6-3.7,13.7-3c-4.1,3.9-9.5,6.2-12.3,11.2c0.4,0.9,1.1,1,1.8,1.1c0.1,0,0.1,0,0.2,0l3.8-2.1c0.2,0,0.3-0.1,0.5-0.1
		c2.3-2,4.4-5.6,8-2.6c0.1,0,0.2,0,0.3,0c0.4-0.1,0.7-0.3,1-0.6c-0.5-2.1,1-3.2,2.7-3.3c5.2-0.6,9.5-3.5,14.5-4.7
		c0.1,0,0.1-0.1,0.1-0.1c-0.1,0-0.2,0-0.2,0c0.7-2,1.8-3.4,4.1-3.6c3-4.1,7.9-4.5,12-4.6c2.7-0.1,5.3,3.3,5.8,6.5s-2.4,2.9-4.4,3.5
		l-2.4,0.7c-2.3,3.1-4,6.7-8,7.9c0,0,0,0,0,0h-0.1c-2.2,2.9-5.8,3.7-8.9,3.8c-12.4,0.4-23.6,6.2-35.8,7.6c-1.5,0.3-3,0.6-4.4,1
		c0-0.2,0-0.3,0.1-0.5c0,0,0-0.1,0-0.1c-0.1,0.1-0.2,0.3-0.3,0.5c0,0.1,0.1,0.1,0.1,0.2c-0.1,6.4-1.4,7.4-8.2,6.1
		c-0.1,1.9-1,3.5-3.3,3.5c0,0-0.1,0-0.1,0c-4.6,3.8-10.2,5.8-15.7,7.7c-6.3,2.3-12.5,5.1-18.4,8.3c0,0-0.1,0-0.1,0
		c0.1,2.3,0,3.3-2.6,5.4c-2.6,2.1-6.2,3.8-5.6,8.7c4.6-3.9,11.1-2.1,15.6-6.7c4.3-4.3,10.5-6.3,16.5-5.3c6.1,0.9,11.5,1.5,15.6-5
		c1.7,3.5,3.9,5.1,7.3,4.8c2.8-0.2,5.7-0.2,8.5,0c3.5,0.2,5.1-0.5,4.6-4.7c-0.5-4.2,1.5-5.7,5.5-5.3c6.9,0.8,13.7-1.9,18.3-7.1
		c1.9-2,4.6-3.2,7-4.7c12.5-8.1,26.8-10,41.2-11.1c2.1-0.2,4.3-0.1,3.5-3.3c-0.4-1.5,0.6-1.7,1.7-1.7c2.6,0.1-0.6,2.4,2,3.1
		c6.8-2.8,14.8-2.2,22.7-2.1c0-0.1,0-0.3,0-0.4c0-12.9,0.2-25.9,0.5-39c-0.1-0.1-0.3-0.1-0.4-0.2v0.5c-4.6,0-9.3,0-13.7,1.7
		c-1.3,0.5-2.6,0.5-3.6-0.8s0.2-2.3,1.2-3.4l-3.3-0.9c5.7-5,12.1-7.2,19.3-6.4c0.1-0.1,0.3-0.2,0.4-0.3l0.2-3.8l0-0.2
		c0-23.7,0-47.3,0-70.9c0-0.1,0-0.1,0-0.2c0-47.5,0-95,0-142.2c-2.5-1.1-4.3-0.7-6.1-0.6c-0.1,0.2-0.2,0.5-0.4,0.7
		C395.5,6.6,393,11.2,393.1,16.1z M375.5,234.8c-7.2,3.5-14.7,6.1-22.8,6.5C359.7,237.4,367.5,235.2,375.5,234.8z"/>
	<path fill="#588EBA" d="M95,7.2c3.1,0.9,6,4.5,3.9,8.9c-2.1,4.4-0.3,6.6-1.2,9.8c-3.1,11-8,21.6-9.1,33.2c-0.3,1.3-0.3,2.6,0,3.9
		c1.2,3.6,0.9,6.7-2.2,9.5c-3.1,2.8-2.9,4-1.7,6.8c0.7,1.1,0.3,2.6-0.8,3.3c-0.1,0-0.1,0.1-0.2,0.1c-1.2,0.7-2.2,0.1-3.3-0.5
		c-1.1-0.6-1.3-2.1-0.6-3.4l0.7-1.3c5.2-9.3,2.9-9.4-5.3-13.4c-2.8-1.4-5.7-1.9-6.4-6c-0.1-0.4-0.2-0.8-0.3-1.1
		c-0.8-0.8-1.6-1.1-2.4-1.1c-0.6,0.4-1.2,1.1-1.7,1.9c-2.6,3.9-5.3,6.7-10.6,4.6c-2.2-0.9-6.9,5.1-7.5,9.3c-0.6,4.2-0.4,6.6,3.4,9
		c3.8,2.4,5.9,7.6,6.3,12.5c0.3,3,1.1,4.9,3.7,6.4c2.6,1.5,4.6,5.3,5.2,8.7c0.6,3.4-0.5,5.3-3.9,5.9c-3.4,0.6-3.9,2.2-3.9,4.9
		c-0.1,2.9-1.3,5.7-3.5,7.7c-3.4,0.1-2-5.8-5.7-4.3c-2.3,0.8-4,2.7-4.6,5.1c0.4,2.2,3,0.8,3.5,2.7c-5,8.4-10.6,16.6-9.6,27.1
		c0.2,2.1,0.7,4.2,1,6.4c0.9,7-1.2,13.1-5.6,18.5c-2.7,2.9-3.3,7.2-1.5,10.7c1.9,4.3,1.7,8-2.2,11.1c-1.4,1.1-3,2.4-2.7,4.5
		c0.7,4.7-1.8,7.2-5.4,9.7c-3.6,2.5-4.9,7-1.9,10.8s2.3,5,2.3,8.1c3.3,1,5.3,2.3,4.4,6.8c-0.5,2.7,2.1,6.1,3.5,9.8
		c-5.4,2.5-7.7,8.9-14,10.4c0.6,1.8,2.7,1.5,3.9,3c-0.6,3-1.6,5.6-5.4,5.9c-1.6,0.1-3.1,0.4-3.3,2.2c-0.2,1.8,1.2,2.6,2.4,3.5
		c1.2,0.9,3.9,1,5.3,2.9c-2.1,4.4-5.2,6.1-9.9,4.4c-0.1,0.1-0.1,0.2-0.2,0.3L7,288.9c0,0,0,0,0,0c0,0,0.1,0.1,0.1,0.1h4.5
		c5.9,0,9.8,3.4,9.5,9.3c-0.4,7.9,0.9,15.1,5.6,21.7c2.2,3.1,2.1,7,2.4,10.5c0.6,7.1,1.7,14.2,1.2,21.3c-0.4,4.5,1.9,7.5,5.8,9.6
		c13.5,7.2,25.3,2,36.6-5.4c1.5-1,2.9-2.2,4.4-3.2s2.5-0.9,3.5,0.3c1,1.2,0.5,2.4-0.5,3.6s-3.6,4.3-5.3,6.5
		c-1.7,2.2-1.9,3.7-0.6,5.9c2.5-0.4,4.9-1.4,6.9-3c0,0,0,0,0,0c-1.1-1.5-0.9-3.6,0.6-4.8c3.6-3.2,6.7-7.2,12-8.3s6.7-4.9,10.7-6
		c2.5-0.8,4.7-3.2,7.6-1.1c0,0,0.1,0,0.1,0c3.6-0.6,7.7-3.7,12-4c0.1-0.1,0.2-0.2,0.3-0.2c3.8-3.9,5.7-9.5,11.2-11.9
		c3.9-1.7,5.8-5.6,9.3-7.5c0.1-0.1,0.1-0.2,0.2-0.3c0.1-2.1,1.6-3.8,2.3-5.7c2-5.5,0.5-8-5.3-8.1c-9.3-0.2-18.6-0.3-27.2,4.4
		c-3.2,1.5-6.7,2.1-10.2,1.6c-6.7-0.6-11.4,2.7-16.1,7.3s-8.2,5.5-12.4,8.1c-4.2,2.6-5.7,3.4-8.4,5.4c-11.5,8.8-26.8,3.2-28.5-11.2
		c-1-9.1-2.2-17.5-8.3-24.5c0.3,0,0.6,0,0.9-0.1c0,0,0,0,0,0c-0.4-0.1-0.8-0.2-1.2-0.3c-2.2-0.6-1.8-2.5-1.8-4.1
		c-0.2-8.1-1.4-11-6.9-16.5c2-2.2,2.3-4.6,2.4-7.8c0.2-4.5,2.6-8.7,6.5-11.1c3.9-2.2,4.6-4.7,3.1-8.4c2.4-1.8,5.7-2.1,6.7-5.8
		c1.2-1.4-5.5-2.2-1-4.6c0.1-0.1,0.2-0.1,0.3-0.2c0.2-1.7,1.9-2.6,2.7-4c0.8-1.6,2.2-3.2,0.6-4.4c-1.6-1.2-1.3-4.5-1.2-7
		c-0.2-0.1-0.4-0.3-0.5-0.4c-2.9,0-3.6-0.9-3.6-4.2c0-6.2,2.8-11,6.3-15.2s7.3-4.3,5.1-10.2c-0.4-1,0.8-4.7,0.6-7.2
		c0.7-0.4,1.1-0.8,1.5-0.8c8.1,1,10-0.3,10-8.3c0-5.3,3.4-6.6,7.1-8c0.3-0.4,0.5-0.7,0.8-0.9c0.3-2,0.6-4,0.7-6
		c0.2-2.4,3.5-5.7,7-4.2l2.4,1.2c0,0,0.1,0,0.1-0.1l1.1-2c0,0,0,0,0,0c-2.8-1.9-4.7-4.2-4.5-8.7c2.2,1.5,3.8,3.3,6.1,3.2
		c0.1-0.2,0.2-0.3,0.3-0.5l1-0.9c0.1-0.2,0.3-0.3,0.5-0.4c-0.2-7.4-2.3-9-10.2-8.4c0,0-0.1-0.1-0.1-0.1l-0.8,0.9
		c-0.2,1.4-1.5,2.3-2.9,2c-0.1,0-0.1,0-0.2,0c-4.5,0.3-5.8-1.6-3.8-5.7c1.2-1.7,2.4-3.7,5-1.9c0,0,0-0.1,0-0.1h2
		c0,0,0.1,0.1,0.1,0.1c5.3-3.7,10.8-2.9,17.3,2.5c0.8-0.4,1.5-1,1.2-1.9c-1.6-4.7-0.8-8.4,4-10.9c1-0.5,1.3-1.8,1.4-3
		c0.1-1.2,0.4-2.6,0.8-2.7c7.2-1,4.9-7.2,5.9-11.3c1-4.1,3.4-7.1,8.2-6.8c2.3,0.1,4.6-0.6,6.6-1.8c4.1-2.3,8.5-3.7,13.3-3.3
		c2.7,0.4,5.4-0.6,7.3-2.6c1.6-1.6,3.1-1.8,4.7-0.1s1.5,3,0,4.3c-1.5,1.3-1.8,5.9-2.5,8.9c-0.1,0.5-0.1,0.9,0,1.2
		c0.2,0.3,0.3,0.6,0.5,0.8c0.9,0.8,2.7,0.7,3.8,1.1c1.7,0.5,4,1,5.6-0.7c1.6-1.7,0.1-2.2-1.1-2.7c-1.1-0.3-2.2-0.7-3.3-1.1
		c-1.4-0.7-2.1-2.3-1.8-3.8c0.1-1.4,1.4-2.5,2.8-2.4c0.2,0,0.3,0,0.5,0.1c5.5,1,7-2.2,7.5-6.6c0.5-4.4,2-4,4.8-3
		c1.2,0.6,2.7,0.5,3.7-0.4c6.7-5.3,13.5-5.3,20.6-0.1c3.6-3.7,9.8-4,11.7-9.9c0.4-1.3,2.3-1.2,3.6-1c1.3,0.2,1.5,1.4,1.7,2.6
		c0.4,3.2,1.6,6-2.3,8.6c-3.9,2.6-1.1,5,1.3,7.1c2.2,2,4.4,1.7,6.7,1.8c0,0,0.1-0.1,0.1-0.1l2.9-2c0.1-0.1,0.3-0.3,0.4-0.4
		c0.9-3.7,3.2-6.6,5.4-9.5c2.3-3,6.4-3.6,10.4-2.7c4,0.9,10.6,4,16.5,1.7c2.8-1.1,4.3-2.7,4.6-5.7c0.9-8.5,3-10.6,11.2-12.4
		c0.8-0.2,1.9-0.5,2.1-1.1c1.7-5.5,7.7-8.4,8.7-14.3c0.6-3.2,2.5-2.4,4.5-1.4c3.9,2.3,8.5,3.2,13,2.7c5.5-0.8,10.3,2.2,15.6,2.1
		c5.3-0.1,9.6-2.4,10.7-8.3c1.1-5.9,2.9-11.6,10-13.3c1.4-0.2,2.4-1.6,2.1-3c0-0.2-0.1-0.3-0.1-0.5c-2.1-7.6-2.9-15.8-11.2-20
		c-1.7-0.9-3.2-2.6-2.4-5c0.8-2.4,3.2-2,5.1-2c5.2,0,10.3-0.6,15.3-1.8c2.6-0.4,5.3-0.2,7.9,0.6c1.7,0.5,3.3,0.7,3.5,2.8
		c0.2,2.1-0.1,3.5-1.7,4.4c-9.6,5.7-10.9,14.7-10.3,24.7c0.2,4.1,3.1,5.5,6,7.2c2.9,1.7,3.9-0.4,5.4-1.8c0.4-0.5,1-0.9,1.6-1.1
		c10.9-2.3,17.6-11.5,27-16.5c4.2-2.2,8.3-4.2,13.2-3.5c0,0.1,0.1,0.1,0.1,0.2c0,0,0,0,0,0c3.5-0.3,4.3-4.7,7.8-5c0,0,0,0,0,0
		c-0.1-4.9,2.4-9.5,1.9-14.5c0-0.2,0-0.3,0-0.5v0.2H91.1C90.9,4.2,91.9,6.3,95,7.2z M85.4,121c-1.8,0-4,0.1-4.1-2.3
		c-0.1-2.4,2.3-2.6,4.3-2.6s3.4-0.1,3.4,2.3S87.3,121,85.4,121z M102.1,105.9c-0.3,2.8-2.4,2.6-4.6,3.2c-0.3-3.3,1-4.6,3.2-4.9
		C102.9,103.9,102.1,104.9,102.1,105.9z M100.1,89.9c1-2.3,2.4-3,4.4-2.5C104.1,91.1,104.1,91.1,100.1,89.9z M107,85.6
		c-0.2-2.1,0.2-3.8,2.6-4.2C110.6,84.1,108.6,84.7,107,85.6z M108.6,78.9c0-2.2,0.2-3.6,2.8-3.8C112.4,77.7,111.5,78.7,108.6,78.9z
		 M237.9,77.2c3.3-2.5,3.3-2.5,6.2-0.7C242.4,78.8,240.6,78.1,237.9,77.2z"/>
	<path fill="#397CC0" d="M4.4,1.1H4c-4.2,1.1-3,4.6-3,7.4C1,98.2,1,188,1.1,277.7c0.1,1.5,0.1,3,0.2,4.5c0,0,0,0,0,0l0-0.2
		c3.7-3.4,6.6-7.1,6.9-12.5c0.3-5.4,3.4-5.2,6.9-5.4c0,0,0,0.1,0,0.1c6.3-1.5,8.6-7.9,14-10.4c-1.4-3.7-4-7.1-3.5-9.8
		c0.9-4.5-1.1-5.8-4.4-6.8c0-3.1,0.7-4.3-2.3-8.1s-1.7-8.3,1.9-10.8c3.6-2.5,6.1-5,5.4-9.7c-0.3-2.1,1.3-3.4,2.7-4.5
		c3.9-3.1,4.1-6.8,2.2-11.1c-1.8-3.5-1.2-7.8,1.5-10.7c4.4-5.4,6.5-11.5,5.6-18.5c-0.3-2.2-0.8-4.3-1-6.4c-1-10.5,4.6-18.7,9.6-27.1
		c-0.5-1.9-3.1-0.5-3.5-2.7c0.6-2.4,2.3-4.3,4.6-5.1c3.7-1.5,2.3,4.4,5.7,4.3c2.2-2,3.4-4.8,3.5-7.7c0-2.7,0.5-4.3,3.9-4.9
		c3.4-0.6,4.5-2.5,3.9-5.9c-0.6-3.4-2.6-7.2-5.2-8.7c-2.6-1.5-3.4-3.4-3.7-6.4c-0.4-4.9-2.5-10.1-6.3-12.5c-3.8-2.4-4-4.8-3.4-9
		c0.6-4.2,5.3-10.2,7.5-9.3c5.3,2.1,8-0.7,10.6-4.6c0.5-0.8,1.1-1.5,1.7-1.9c0.9-0.6,1.9-0.5,2.4,1.1c0.1,0.3,0.2,0.7,0.3,1.1
		c0.7,4.1,3.6,4.6,6.4,6c8.2,4,10.5,4.1,5.3,13.4l-0.7,1.3c-0.7,1.3-0.5,2.8,0.6,3.4c1.1,0.6,2.1,1.2,3.3,0.5c0.1,0,0.1-0.1,0.2-0.1
		c1.1-0.7,1.5-2.2,0.8-3.3c-1.2-2.8-1.4-4,1.7-6.8c3.1-2.8,3.4-5.9,2.2-9.5c-0.3-1.3-0.3-2.6,0-3.9c1.1-11.6,6-22.2,9.1-33.2
		c0.9-3.2-0.9-5.4,1.2-9.8c2.1-4.4-0.8-8-3.9-8.9c-3.1-0.9-4.1-3-3.9-5.9c0,0,0-0.1,0-0.1l-61-0.1h0h-0.2H4.4z"/>
	<path fill="#427AB6" d="M5.1,395.6c-0.1-2.8,0.7-4.9,4.7-4c5.2,1.1,10.6,0.6,15.6-1.2c3.2-1.1,6.4-1.5,9.4,0.6
		c13.5-6.6,26.6-13.9,39.3-21.9c0,0,0.1,0,0.1,0c-1.3-2.1-1.1-3.7,0.6-5.9c1.7-2.2,4.3-5.3,5.3-6.5s1.5-2.4,0.5-3.6
		c-1-1.2-2-1.3-3.5-0.3s-2.9,2.2-4.4,3.2c-11.3,7.4-23.1,12.6-36.6,5.4c-3.9-2.1-6.2-5.1-5.8-9.6c0.5-7.1-0.6-14.2-1.2-21.3
		c-0.3-3.5-0.2-7.4-2.4-10.5c-4.7-6.6-6-13.8-5.6-21.7c0.3-5.9-3.6-9.3-9.5-9.3H7.1c0,0-0.1-0.1-0.1-0.1c-1.2-0.1-2.6,0.6-3.6-1
		c0.7-2.4,2.8-2,4.6-1.9l-0.1,0.4c0.1-0.1,0.2-0.2,0.2-0.3c4.7,1.7,7.8,0,9.9-4.4c-1.4-1.9-4.1-2-5.3-2.9c-1.2-0.9-2.6-1.7-2.4-3.5
		c0.2-1.8,1.7-2.1,3.3-2.2c3.8-0.3,4.8-2.9,5.4-5.9c-1.2-1.5-3.3-1.2-3.9-3c0,0,0-0.1,0-0.1c-3.5,0.2-6.6,0-6.9,5.4
		c-0.3,5.4-3.2,9.1-6.9,12.5l0,0.2L1.6,364c0,0.1,0.1,0.1,0.1,0.2c4.1,1.6,8.5,2.4,11.2,6.7c1.4,2.3,4.6,0.9,7,1.1
		c5.9,0.4,9.1,3,9.2,7.5c0.1,4.5-1,4.6-4.3,4.5c-3.1-0.2-6.3,0-9.4,0.4c-5,0.8-9.8,1.9-13.4,5.7c-0.2,0.3-0.3,0.6-0.5,0.9v9.8
		c0.1,0,0.2,0.1,0.3,0.1C4.6,400.2,5.2,398.2,5.1,395.6z"/>
	<path fill="#0F1F36" d="M3,425.8l10-4c0.4-0.7,1.2-1,2-0.9c0,0,0,0,0.1,0.1c0,0,0,0,0-0.1c1.4-1.3,3.2-1.6,4.9-2.1
		c0.1,0,0.1-0.1,0.2-0.1c-0.1,0-0.2,0-0.3,0c3-3.2,6.8-5.1,10.7-6.7c3.9-1.6,9.5-3.8,13.5-6.9c-0.4-3.1,2.3-4.4,3.9-6.4
		c1.6-2,2.5-2.9,1.8-4.9s-2.8-0.7-4.2-1.1c-3.6-1.3-7.3-0.3-10.8-0.8L1.3,407.1v18.7H3z"/>
	<path fill="#2C6CB5" d="M15.4,384.4c3.1-0.4,6.3-0.6,9.4-0.4c3.3,0.1,4.4,0,4.3-4.5c-0.1-4.5-3.3-7.1-9.2-7.5
		c-2.4-0.2-5.6,1.2-7-1.1c-2.7-4.3-7.1-5.2-11.2-6.7c-0.1-0.1-0.3-0.1-0.4-0.2l-0.1,26.9c0.2-0.3,0.5-0.6,0.8-0.8
		C5.6,386.3,10.4,385.2,15.4,384.4z"/>
	<path fill="#B2AA9F" d="M11.2,441.6c2.3-6.8,6.4-10,13.7-8.7c1.8,0.3,4.1,0.7,5-2.3c-3.7-4.5-6.1-11.1-14.2-9
		c-0.2,0-0.4-0.4-0.6-0.6c0,0,0,0-0.1-0.1c-0.8-0.1-1.6,0.2-2,0.9c-2.4,6.9-4,7.5-10,4H1.3c0,7.7,0,15.5,0,23.2v0
		C6.6,449.3,9.7,446.1,11.2,441.6z"/>
	<path fill="#6F95B5" d="M34.8,391.9c0-0.3,0-0.6,0-0.9c-3-2.1-6.2-1.7-9.4-0.6c-5,1.8-10.4,2.3-15.6,1.2c-4-0.9-4.8,1.2-4.7,4
		c0.1,2.6-0.5,4.6-3.3,5.3c-0.2,0-0.4,0.1-0.5,0.1v6.1v0L34.8,391.9z"/>
	<path fill="#667C8D" d="M381.6,225.5l3.3,0.9c-1,1.1-2.2,2.1-1.2,3.4s2.3,1.3,3.6,0.8c4.4-1.7,9.1-1.7,13.7-1.7v-0.5v-9.3
		c0,0-0.1,0-0.1,0C393.7,218.3,387.3,220.5,381.6,225.5z M386.1,225.8c1.7-2,3.3-3,5.8-2.5C390.6,225.1,388.3,226.1,386.1,225.8z"/>
	<path fill="#A6ABA9" d="M301.2,413.2C301.2,413.2,301.2,413.1,301.2,413.2c3.2-0.6,2.8-3.3,3.5-6c3.9,2.4,8.3,0.2,12.3,1.9
		c5-0.3,9.6,2.1,14.7,1.9c3.4-0.1,6.5-0.5,9.4-2.1c-0.3-2.9,0.9-4.6,3.9-5c3-0.4,6.8-1,8.8-3c5.5-5.4,13.7-5,18.9-5.9
		c5.2-0.9,10.5-1.9,14.9-5.1c4.4-3.2,2.9-9.7,7.4-13.2c-3.6,0.4-6.9-0.2-9.9,1.2c1.9,4.6,1,8.5-2.8,12.4c-4.2-5.3-8.7-2.7-13.2-1.2
		v0c0,0,0,0,0,0c-1.1,2-3.3,2.5-5.4,4.2c-0.6-5-6-2-7.5-5.3c0,0,0,0-0.1,0c-2.2-0.5-4.5,0.5-5.6,2.5c-1.5,2.2-3.4,4.1-5.5,5.7
		c-3.2,2.5-6.5,2.5-9.5-0.7c1.1-2.1,4.3-2.1,4-5.6c-4.5,1-9,0.4-13.5,0.4c-2.7,0-4.8,2.1-4.9,4.8c2.7,4.8,7,4,11.2,3.1
		c1.6,2.9-0.2,4-2.2,4.4s-3.9,0.8-5.4,0.1c-4.5-2-8.8-3.6-13.2,0.1c-0.5,0.4-1.6,0.1-2.3-0.6c-0.1,0-0.2,0-0.3,0
		c-5,0.2-7.4,4.4-10.8,7C298.3,411.1,299.7,412.2,301.2,413.2z"/>
	<path fill="#6F95B5" d="M374.1,281.5c0.8-1.8,2.4-3.2,4.2-5.3c-6.7-0.9-12,0.7-17.2,3.3c0,0,0,0.1-0.1,0.1c0,0,0,0,0.1,0
		c0.6,2.9-0.7,3.9-3.6,4.5c-6.9,1.4-13.8,2.4-20.4,5c0,0,0,0,0,0c2.6,2.2,5.4,0,8.1,0.2c0,0,0.1,0,0.1,0c10-1.1,20.2-0.9,28.7-7.5
		C374,281.7,374.1,281.6,374.1,281.5z"/>
	<path fill="#7894A3" d="M331.7,411c-5.1,0.2-9.7-2.2-14.7-1.9c1.7,3.9,1.3,7.9,0.2,11.7c0,0.1,0,0.1,0,0.2c1.7,1.5,3.2,1.7,4.1-0.9
		c0.9-2.6,2.9-3.2,5.5-3.1c2,0.1,3.9,0.1,5.9,0c5.7-0.5,10.4-3.9,11.4-8.2h-2.9c0,0-0.1,0-0.1,0.1
		C338.2,410.5,335.1,410.9,331.7,411z"/>
	<path fill="#4B667D" d="M301,328c-0.1-0.7-0.2-1.6-0.9-1.5c-5.7,1-11.9,0-17,3.6c-2.5,3.7-6.1,1.2-9.2,1.6c0-0.1,0.1-0.1,0.1-0.1
		c0,0-0.1,0-0.1,0c-6.5,1.2-12.8,2.7-18.1,7.1c6.6-0.4,12.6-3.8,19.3-3.5C284.3,334.8,293,332.7,301,328C301,328,301,328,301,328z"
		/>
	<path fill="#486D8E" d="M373,381.9c0.3,3.3-5,3.5-3.9,7.2v0c4.5-1.5,9-4.1,13.2,1.2c3.9-3.9,4.7-7.8,2.8-12.4c0,0,0-0.1,0-0.1
		l-1.9-0.2c-0.1,0-0.3-0.1-0.4-0.1c0.1,0.1,0.2,0.1,0.3,0.2C379.5,378.3,375.4,378,373,381.9z"/>
	<path fill="#667C8D" d="M311.5,402.8c4.4-3.7,8.7-2.1,13.2-0.1c1.5,0.7,3.4,0.3,5.4-0.1s3.8-1.5,2.2-4.4c-4.2,0.9-8.5,1.7-11.2-3.1
		c-4.7,1.2-8.4,4-12.2,6.8c0.1,0.1,0.2,0.2,0.3,0.3C309.9,402.9,311,403.2,311.5,402.8z"/>
	<path fill="#7894A3" d="M363.7,393.3c2.1-1.7,4.3-2.2,5.4-4.2c0,0,0,0,0,0c-1.1-3.7,4.2-3.9,3.9-7.2h-3c0,0,0,0,0,0
		c-3.8,4.1-9.6,3.1-13.9,6c0,0,0,0.1,0.1,0.1C357.7,391.3,363.1,388.3,363.7,393.3z"/>
	<path fill="#7894A3" d="M295.4,417.1c1.4,3.2,3.8,2.7,5.7,0c0,0,0-0.1,0-0.1c0,0,0,0,0,0c-1-1.3-0.2-2.5,0.1-3.8
		c-1.4-1-2.9-2-3.1-4c0-0.1,0-0.1,0-0.2c-2.9,0.7-5.3,2.5-6.9,5c0,0,0,0.1-0.1,0.1C291.2,416.8,294,413.9,295.4,417.1z"/>
	<path fill="#7894A3" d="M376.2,413c-4.6,2.6-5.8,6.2-4.2,11.5C377,421.6,378,419.2,376.2,413z"/>
	<path fill="#A6ABA9" d="M373,381.9c2.4-3.9,6.5-3.6,10.1-4.2c-0.1-0.1-0.2-0.2-0.3-0.2c-5.3-3.8-11.5-1.7-12.8,4.4c0,0,0,0,0,0H373
		z"/>
	<path fill="#A6ABA9" d="M372.6,430.1c-1.3,3.6-3.7,6.4-3.1,11.5C371.6,437.4,376.3,435.3,372.6,430.1z"/>
	<path fill="#A6ABA9" d="M354.1,306.6c2.8,0.4,5,1.1,7.1-1.9C358.1,303.6,356.2,304.4,354.1,306.6z"/>
	<path fill="#133352" d="M34.8,391c0,0.3,0,0.6,0,0.9c3.5,0.5,7.2-0.5,10.8,0.8c1.4,0.4,3.5-0.9,4.2,1.1s-0.2,2.9-1.8,4.9
		c-1.6,2-4.3,3.3-3.9,6.4c0,0,0,0,0,0c3.6,0.6,6.4-2.6,9.9-2.2h0.8c0.1,0,0.3,0.1,0.4,0.1c-0.1-0.1-0.2-0.1-0.3-0.2
		c0.5-1.3-0.3-3.2,1.7-3.7c6.8-1.8,12.2-6.3,18.4-9.2c0,0,0.1-0.1,0.1-0.1c0.4-1.8,0.9-3.6,2.6-4.5c9.4-4.9,17.9-11.5,28.3-14.3
		c0,0,0.1-0.1,0.1-0.1l31.9-15.1c0,0,0.1,0,0.1,0c2.4-2.7,6.3-0.9,8.9-2.8c0,0,0,0,0,0c4.6-5.2,9.7-9.1,17-9
		c0.1-1.5,1.1-2.9,2.5-3.5c8.4-3.4,15.7-9.2,24.5-11.6c0,0.1,0,0.1,0,0.2c0,0,0.1,0,0.1-0.1c2.3-2.9,5.3-5.2,8.8-6.5
		c4.8-3.5,9.1-7.8,15.5-8.2l0.7-0.3c1.8-3.3,4.6-4.6,8.3-3.7l0.7-0.3c-0.1-1.6,0.2-2.9,1.7-3.8l21.4-13.3c1.1-0.9,2.6-0.9,3.7-0.1
		c0.1,0,0.1,0,0.2,0c5.5-3,11.7-5.1,16.4-9.6c0,0,0,0,0-0.1l-0.8-2c0,0,0,0,0,0c0,0-0.1,0-0.1,0l-0.2-0.2v-0.1
		c-1.6,1.2-3.9,2.8-5.1,2c0,0-0.1,0-0.1-0.1c0,0,0,0,0,0.1l-3.1,1.2c0,0,0,0-0.1,0c-13.5,6.8-26.3,15.2-40.9,19.9c0,0-0.1,0-0.1,0.1
		l0.1,0c-0.2,1.1,0.4,2.5-1.3,2.8c-1.7,0.3-1.5-0.5-1.8-1.3c0,0,0,0,0,0c0,0-0.1,0-0.1,0c-11,6.2-22.4,11.7-34.6,15.7
		c-0.2-0.1-0.3-0.3-0.5-0.4c0,0.1,0,0.2,0,0.2c-8.6,4.5-16.9,9.7-26.3,12.5c-1.5,0.7-3,1.6-4.4,2.5c3.2,4.3-1.5,3.7-3.1,4.6
		c-1.6,0.9-2.8-0.5-3.9-1.5c-4.2,0.5-7.9,2.6-11.2,4.9c-4.9,3.4-10.2,5.3-15.7,7.1c-0.1,0-0.2,0-0.3,0c0.1,0,0.2,0,0.3,0.1
		c-12,3.5-22.4,10.6-34,15c0,0,0-0.1-0.1-0.1c0,0,0,0,0,0c-2,1.5-4.4,2.5-6.9,3c0,0-0.1,0-0.1,0C61.4,377.1,48.3,384.4,34.8,391z"/>
	<path fill="#486D8E" d="M140.2,358c-1.4,0.1-2-0.8-2.2-2c0-0.1,0.1-0.1,0.1-0.2c0,0-0.1,0-0.1,0l-31.9,15.1c0,0,0,0.1-0.1,0.1
		c0,0,0,0,0.1,0c-0.5,1.2-0.7,3.4-1.4,3.5c-5.6,1.4-8.1,7.7-13.7,8.6s-10,5.8-15.9,6.8c0,0,0-0.1,0-0.1c0,0-0.1,0.1-0.1,0.1
		c-6.2,2.9-11.6,7.4-18.4,9.2c-2,0.5-1.2,2.4-1.7,3.7c0.1,0.1,0.2,0.1,0.3,0.2c3.1,0.9,5.8-1.4,8.7-1.8c0.1-0.1,0.2-0.2,0.3-0.2
		c7-4.7,15.6-4.3,23.3-6.8c-0.4-1.9-2.8-1-2.6-2.9c5.5-2.3,12.1-5,16.8-6.1c4.7-1.1,7.5-3.4,5.5-8.6c2.1-0.8,4.3-1.4,6.5-1.8
		c5.8-1.3,12,0.3,17.5-2.8c-0.6-3-4.6-2.2-5.5-5.2c4.8-1.6,9.9-1.2,14.4-3.6c0-0.1,0.1-0.1,0.1-0.2c3.1-0.7,6.9,1.2,8.8-2.9
		C146.1,359.4,143.4,357.8,140.2,358z"/>
	<path fill="#7894A3" d="M149,371.4c0.8,0.8,2.2,0.8,3,0c1.6-1.3,2.8-2.9,4.4-4.1c2.7-2,6.1-2.7,9.4-1.9c3.4,0.7,0.7,3.7,2.2,5.5
		c4.2-1.6,9.4,0,13.2-3.6c-1.5-0.5-3.8,0-3.7-2.4c0.1-2.4,2.1-1.9,3.4-2.3c3.4-0.9,6.8-1.6,8.6-5.2c0.8-1.6,2.5-1.3,4-1.4
		c1.5-0.1,4,0.9,5.6-1c-3.2-3.8-6.5-3.4-11-0.3s-8.9,6.1-14.6,5.3c-9.2-1.3-16.1,4.6-23.9,7.5c-0.2,0.1-0.5,0.2-0.7,0.4
		c-0.9,0.7-1.1,2-0.3,2.9C148.7,371,148.9,371.2,149,371.4z"/>
	<path fill="#4B667D" d="M54,402.9c-3.5-0.4-6.3,2.8-9.9,2.2c0,0,0,0,0,0c-4,3.1-9.6,5.3-13.5,6.9c-3.9,1.6-7.7,3.5-10.7,6.7
		c0.1,0,0.2,0,0.3,0c9,0,17-3.8,25.4-5.1c1.1-1.9-2-2.5-0.5-4.7c6.5-0.3,13.4,0.1,20-2c0,0,0.1,0,0.1-0.1l0.9-1.7c0,0,0,0,0,0
		c0,0,0-0.1,0-0.1l-2.8-0.2C60,405.3,56,408.7,54,402.9z"/>
	<path fill="#486D8E" d="M193.5,356c-1.5,0.1-3.2-0.2-4,1.4c-1.8,3.6-5.2,4.3-8.6,5.2c-1.3,0.4-3.3-0.1-3.4,2.3
		c-0.1,2.4,2.2,1.9,3.7,2.4l1.8-0.2c0.1,0,0.1,0,0.2,0c5-3.7,10.9-4.4,16.7-5.1c4.1-0.5,8.2-0.9,12.3-1.6c1.7-0.3,3.6-0.7,4.8-2.3h0
		l-6.8-0.2c-2.3,1.3-5,1.6-7.5,0.7c-1.2-1.9,0.7-2.9,1.3-4.2c0-0.1,0-0.2,0-0.3c-1.8-0.7-3.2,0.8-4.9,0.9
		C197.5,356.9,195,355.9,193.5,356z"/>
	<path fill="#4B667D" d="M256.8,292.8c-1.5,0.5-2.9,1.6-4.7,1.2l-0.5,0.5c0-0.1,0-0.3,0.1-0.3l0.4-0.2l-0.3-1.1
		c0.1-0.1,0.2-0.1,0.3-0.1c-0.1,0-0.1,0-0.2,0c-1.1-0.8-2.6-0.8-3.7,0.1l-21.4,13.3c-1.5,0.9-1.8,2.2-1.7,3.8c5.3-1.1,8.8-5.6,14-7
		c0,0,0.1,0,0.1,0c5.9-3.2,12.1-6,18.4-8.3c5.4-1.9,11.1-3.9,15.7-7.7C267.2,287.3,262.4,291,256.8,292.8z"/>
	<path fill="#7894A3" d="M56.3,424.6c2.6,1.1,13.1-4.2,13.8-6.9c0.1-0.3,0.1-0.7,0.1-1c0.2-1.6-0.6-3-2-3.8
		c-4.8-3.3-9.4-1.5-13.4,2.7S51.2,422.5,56.3,424.6z"/>
	<path fill="#667C8D" d="M166.5,340.5c-1.4,0.6-2.4,2-2.5,3.5c1.3,0.8,2.7,1,4.5,1c0,0,0.1,0,0.1-0.1c0.1-0.1,0.2,0,0.3,0.1
		c0.4,0,0.8,0,1.2-0.1l-3.7,2.7c-0.3,1.4,1.1,1.5,1.5,2.2c0,0,0.1,0,0.1,0.1c5.1-0.3,7.7-3.4,9.1-7.9l-4.1-1.9
		c4.7-2.8,10.5-1.5,13.9-5.9c0-0.1,0-0.2,0.1-0.3c0-0.1,0-0.3,0-0.4c0.4-2.2,4-1.9,4-4.4c0-0.1,0-0.1,0-0.2
		C182.2,331.3,174.9,337.1,166.5,340.5z"/>
	<path fill="#7894A3" d="M125.7,366.8c0.9,3,4.9,2.2,5.5,5.2c0,0,0,0.1,0,0.1c2.8,0.7,0.8,3.1,1.6,4.7c2.8-1,5.5-2.2,8.2-3.5
		c4.2-2.4,4.1-5.9,0.1-8.6c-0.5-0.3-0.6-1-0.9-1.6c0,0-0.1,0-0.1,0.1C135.6,365.6,130.5,365.2,125.7,366.8z"/>
	<path fill="#7894A3" d="M212.2,360.4c-4.1,0.7-8.2,1.1-12.3,1.6c-5.9,0.7-11.8,1.4-16.7,5.1c0,0,0,0-0.1,0c0.7,0.7,1.7,1,2.7,0.8
		c10.7-0.6,21-3.9,31.7-5c1.6-0.2,3-0.3,3.1-2.7c0.1-2.4-2-2.1-3.6-2.1h0C215.8,359.7,213.9,360.1,212.2,360.4z"/>
	<path fill="#274D73" d="M166.4,347.6l3.7-2.7c-0.4,0-0.8,0.1-1.2,0.1c-0.1,0-0.3,0-0.4,0c-1.8,0-3.2-0.2-4.5-1
		c-7.3-0.1-12.4,3.8-17,9c0,0,0,0,0,0c0,0,0,0,0.1,0l8,0.2c4.3-1,9-0.4,12.9-3.2c0-0.1-0.1-0.1-0.1-0.2
		C167.5,349.1,166.1,349,166.4,347.6z"/>
	<path fill="#667C8D" d="M210.3,342.3c0.7,0.9-0.8,2.2,0.8,3.4c6.1-7.1,16.1-5,23.4-10c-10.6-0.4-21.1,1.8-30.6,6.5
		C206.1,343.1,209.6,341.4,210.3,342.3z"/>
	<path fill="#667C8D" d="M65.2,406.8l-0.1,0.2c9.5-0.8,19-1.5,28.1-4.6c-9.5-4-18.3,0-27.1,2.7c0,0,0,0,0,0L65.2,406.8z"/>
	<path fill="#274D73" d="M357.5,284.1c2.9-0.6,4.2-1.6,3.6-4.5c0,0,0,0-0.1,0c-5.9-0.4-11.3,3.3-16,4.7c-4.8,1.4-11.2-0.8-15,5
		c2.9,1,4.9,0.2,7-0.2c0,0,0.1,0,0.1,0C343.7,286.5,350.6,285.5,357.5,284.1z"/>
	<path fill="#4B667D" d="M199.9,322.5c5.3,1.4,10.6,2.4,15-2.8l-2.4-1.6c0.6-1.6,2.7-2,2.9-3.8C209,314.7,204.7,319,199.9,322.5z"/>
	<path fill="#7894A3" d="M147.1,353C147.1,353,147.1,353,147.1,353c-2.7,1.9-6.6,0.1-9,2.8c0,0.1-0.1,0.1-0.1,0.2
		c0.2,1.2,0.8,2.1,2.2,2c3.2-0.2,5.9,1.4,8.8,2.1c0,0,0,0,0,0c1.1-3.2,5.4-3.4,6.2-6.9l-0.1,0L147.1,353z"/>
	<path fill="#4B667D" d="M186.9,334.2c-3.4,4.4-9.2,3.2-13.9,5.9l4.1,1.9l0.1,0.1c7.2-1.8,13.2-5.8,19.7-9.1c-3.5-1-6.3,1.8-9.6,1
		c-0.1,0-0.1,0-0.2,0C187.1,334.1,187,334.1,186.9,334.2z"/>
	<path fill="#486D8E" d="M165.2,384.1c-10,1.3-20.4,0.1-30.9,3.4C145.2,389.5,159.2,388.1,165.2,384.1z"/>
	<path fill="#7894A3" d="M202.7,358.6c2.5,0.9,5.2,0.6,7.5-0.7c0.7-2.7,3.8-2.4,6.8-4.7l-12.9,0.9c0,0.1-0.1,0.2-0.1,0.3
		C203.4,355.7,201.5,356.7,202.7,358.6z"/>
	<path fill="#486D8E" d="M110,392.7c5.3-1.2,11.2,0.1,16.6-3.8C120.1,387.6,113.6,389.1,110,392.7z"/>
	<path fill="#7894A3" d="M194.4,379c-4.1-1.5-8.6-1.4-12.6,0.3C185.6,381.4,189.5,383,194.4,379z"/>
	<path fill="#667C8D" d="M55.2,403c-0.1,0-0.3-0.1-0.4-0.1H54c2,5.8,6,2.4,9.3,1.9l0.9-3.6c-0.1,0-0.2,0-0.3,0
		C61,401.6,58.3,403.9,55.2,403z"/>
	<path fill="#4B667D" d="M141.8,391.4c5-1.3,9.9,0.1,14.8-0.4C151.6,389.9,146.6,389.3,141.8,391.4z"/>
	<path fill="#7894A3" d="M283.1,330.1c-3.4-2-6.4-1.4-9.1,1.5c0,0-0.1,0.1-0.1,0.1C277,331.3,280.6,333.8,283.1,330.1z"/>
	<path fill="#4B667D" d="M216.1,314c3.4,0.2,6.7,0.1,8.3-3.7C220.7,309.4,217.9,310.7,216.1,314z"/>
	<path fill="#4B667D" d="M176.7,380.3c-2.6-0.3-3.9,0.4-3.2,3.3C175.5,383.3,176.6,382.5,176.7,380.3z"/>
	<path fill="#486D8E" d="M168.4,383.7c0-0.1,0-0.3,0-0.4l-0.4-0.2c-0.5,0.2-0.5,0.4,0,0.6H168.4z"/>
	<path fill="#486D8E" d="M317,409.1c-4-1.7-8.4,0.5-12.3-1.9c-0.7,2.7-0.3,5.4-3.5,5.9c0,0,0,0.1,0,0.1c-0.3,1.3-1.1,2.5-0.1,3.8
		c0,0,0,0,0,0c3.8-0.7,7.7,0.2,10.9,2.5c1.5,1.1,3.3,1.6,5.1,1.5c0-0.1,0-0.1,0.1-0.2C318.3,417,318.7,413,317,409.1z"/>
	<path fill="#274D73" d="M278,447.9c3.4-3,8.4-3.2,12.8-6.8c-6.5-0.4-10.9,2.3-15.7,3.9c0,0.1,0,0.1,0,0.2
		C274.9,447.2,275.9,448.1,278,447.9z"/>
	<path fill="#A6ABA9" d="M145.1,322c-0.1,0.1-0.1,0.2-0.2,0.3c0.1,0,0.1-0.1,0.2-0.1C145.1,322.1,145.1,322.1,145.1,322z"/>
	<path fill="#A6ABA9" d="M104.7,351.6c3.6,1.5,6.9-1.2,10.2-0.5c0.1,0,0.2,0,0.3,0c5.5-1.8,10.8-3.7,15.7-7.1
		c3.3-2.3,7-4.4,11.2-4.9c1.9-2.1,4-3.5,7-3.1c1.4-0.9,2.9-1.8,4.4-2.5c9.4-2.8,17.7-8,26.3-12.5c0-0.1,0-0.2,0-0.2
		c-1.8-1.9,0.1-3.2,1.4-4.4c7-6.6,14.5-12.6,23.1-17c2.4-1.2,4.6-2.5,5.7-5.2c0.9-2.2,3.9-2.9,6.8-3c0.6-0.2,1.3-0.3,1.9-0.4
		c1.2-5.4,2.9-10.7,5.1-15.7c0,0,0,0,0,0c0,0,0-0.1,0-0.1l0.8-2c1.4-11,3-22,4.3-33.1c0.3-2.4,1.3-3.2,3.4-4.1
		c6.1-2.7,12.4-1.5,18.6-1.6c0.1,0,0.1-0.1,0.2-0.1l0.6-1.3c0,0,0.1,0,0.1,0c0,0,0,0,0,0c4.4-9,12.8-14.7,18.7-22.5
		c0.1-0.3,0.1-0.7,0.1-1.1c-2.2-0.2-5,0.8-5.6-2.8c0,0,0-0.1,0-0.1c-2.1-0.4-3.9-1.9-4.7-4c-0.1,0-0.2-0.1-0.3-0.1
		c-2.6-1.3-3.8-2.4-3.9-4.9l0.1-0.1c0,0-0.1-0.1-0.1-0.1c-8.8-1.4-16.6,3.4-24.9,4.4c-11.8,1.7-23.8,0.4-35-3.6c0,0,0,0,0.1,0
		c-0.1,0-0.2,0-0.3,0c-4.5,0.1-8.8,1.5-12.6,3.9c-1.2,0.8-3.3,2.1-4,0.6c-2.3-4.7-6.3-2.9-9.7-3.3c-3.2-0.4-5.1-1.3-4-4.5
		c-0.2-0.3-0.4-0.5-0.5-0.7c-1.7-0.1-3.4,0.4-4.6,1.6c-3.9,3.5-8.7,4.7-13.6,5.5c-7.3,1.3-14.8,2-22.2,1.9c-3.6-0.1-7.3,0.3-10,2.5
		c-6.9,5.6-14.9,3.8-22.4,3.1c-5.2-0.5-10.1,1.2-15.2,0.8c-0.1,0-0.3,0-0.4,0c-1.3,0.1-2.2,1.2-2.1,2.5c0.8,1.7,2.6,1,3.9,1.7
		c0,0,0,0,0,0c1.6,0.7,2.4,2.6,1.7,4.2c-0.6,1.8-0.7,4.4-2.7,5c-2,0.6-2.4-1.4-3.2-2.5c-3.3-4.5-8.3-5.9-13.3-7.1
		c-1.8-0.4-3.6-0.6-4.2-2.6c-0.3-1.1-0.5-2-0.3-2.9c0.1-0.3,0.2-0.5,0.3-0.8c0.3-0.5,0.7-0.9,1.3-1.3c2.1-1.4,1.8-2.7,1.5-5.1
		c-0.2-1.7-0.7-4,0.2-5.5c0.1-0.2,0.3-0.4,0.5-0.5c0.4-0.3,0.8-0.6,1.4-0.8c3.3-1,3.9-2.9,3.7-6c0-0.3,0-0.6,0-0.9
		c0.1-1,0.3-1.9,0.8-2.4c0.7-0.8,1.8-1.1,3.4-1c0.9,1.2-0.7,2.5,1.1,3.7c3.8-1.3,9.2-2.3,10.7-5.9c3-7.3,9.4-9.1,15.2-12.2
		c1.8-0.9,3.4-2.1,4.9-3.5c5.4-5.2,11.9-9,17.7-13.5c9.5-7.2,21.2-11,33.1-10.7c10.5,0.2,18.8-3.7,25.2-11.7c3.3-4.1,7.3-7,12.5-7.4
		c12.8-1,24.4-7.8,37.5-7.1c1.2,0,2.4-1.1,3.7-1.2c7.7-0.6,16-4,22.3-4.6s11.7-3.2,17-6.2c0.1-0.1,0.2-0.3,0.3-0.5
		c0-0.1,0-0.1,0.1-0.2c-0.3-0.7-0.8-1.2-1.7-1.1c-3,0.2-4.6-1.6-6-3.8c-1.4-2.2-4.7-4.6-7.5-4.1c-8.2,1.5-15.7-3-23.8-2.2
		c-0.6,0.1-1.6,0.1-1.9-0.2c-5.2-5-7.9-1.1-11,2.7c-3.1,3.8-4.3,5.2-8,5.5c0-0.1,0.1-0.3,0.1-0.4c-0.1,0.1-0.3,0.3-0.4,0.4l-2.9,2
		c0,0-0.1,0.1-0.1,0.1c0.2,0,0.4,0,0.5,0c-0.8,3-3,2.1-4.8,1.5c-2.2-0.8-4.6-0.9-6.9-0.3c-4.9,1.5-9.6,3.5-15.8,2.8
		c3.4,7.7-1.1,9.3-6.5,10.6c-2.9,0.7-4.9,3.2-5,6.2c-0.2,3.6-1.5,5.7-5.5,5.2c-1.9-0.3-3.8,0.8-4.3,2.7c-1.8,5.8-5.9,5-9.5,2.9
		c-3.6-2.1-5.5-1.6-8.3,0.1s-6.2,2-7.5-2.1c-0.5-1.7-2.8-1.3-2.9-3.8l12-3.7c-6.8-1.2-12.6-3.7-16.1-10.6c-4.4,1.1-9.1,2-10.6,7.7
		c-0.3,1.2-1.4,1.6-2.6,2c-3.8,1.1-5.4,7.7-2,9.8c3.4,2.1,4.9,5.3,2.5,9.3c-0.6,0.9,0.1,2.3-1,3.4c-3.6-0.7-1.5-4.2-3-6.2
		s-4.4,1.2-6.1,3c-1.1,1.3-2,2.7-2.9,4.1c-5.1,7.5-8.6,8.8-17.3,6.5c0-0.3,0-0.5,0-0.8c-0.2,0.1-0.3,0.2-0.5,0.4l-1,0.9
		c-0.1,0.1-0.2,0.3-0.3,0.5c0.3,0,0.6-0.1,0.8-0.2c0.1,2.2-0.1,4.4-1.9,6c-0.2-0.1-0.3-0.2-0.5-0.3c0,0,0,0,0,0l-1.1,2
		c0,0-0.1,0-0.1,0.1l0.7,0.3c-3.6,3.7-2.5,8.9-3.7,13.4c-3.3-0.2-3.2-6.2-7.3-3.4c0.1-0.4,0.1-0.9,0.2-1.3c-0.2,0.2-0.5,0.5-0.8,0.9
		c-3.7,1.4-7.1,2.7-7.1,8c0,8-1.9,9.3-10,8.3c-0.4,0-0.8,0.4-1.5,0.8c0.2,2.5-1,6.2-0.6,7.2c2.2,5.9-1.6,6-5.1,10.2s-6.3,9-6.3,15.2
		c0,3.3,0.7,4.2,3.6,4.2c0.1,0.2,0.3,0.3,0.5,0.4c0,0,0-0.1,0-0.1c1.4-0.4,2.7-1,4-1.8c2.8-2.1,5.1-1.5,6.6,1.3s3.4,2.4,5.2,3.4
		c1.8,1,2.9,1.5,2.8,3.1c-0.1,1.6-1.5,2.8-3.3,2.9c-1.8,0.1-0.7-3.1-2.2-4.3c-2.7,1.1-4.1,3.4-5.4,5.9c-2,4.1-4.9,6.6-9.8,5.5
		c0-0.2,0-0.3,0-0.5c-0.1,0.1-0.2,0.1-0.3,0.2c-4.5,2.4,2.2,3.2,1,4.6c-1,3.7-4.3,4-6.7,5.8c1.5,3.7,0.8,6.2-3.1,8.4
		c-3.9,2.4-6.3,6.6-6.5,11.1c-0.1,3.2-0.4,5.6-2.4,7.8c5.5,5.5,6.7,8.4,6.9,16.5c0,1.6-0.4,3.5,1.8,4.1c0.4,0.1,0.8,0.2,1.2,0.3
		c0.1,0,0.2,0,0.2,0c5.9-0.5,11.3-1.8,14.6-7.6c1.7-3,1.3-4.8-1.9-6.2s-6.7-1.9-9.2-4.6c3.7-4.3,7-9,13.8-7.9c2,0.3,2.5-1.6,2.7-3.4
		c1-7,3.9-8.9,10.8-7.5c1.5,0.3,4,2.3,4.6-0.5c0.6-2.8-1.2-4-3.7-4.5s-5-2-4-6.1c0.6-2.5-0.6-5.5-0.8-8.3s1.9-6,5.8-5.4
		c5.1,0.8,10.1,1.8,15,3.2c2.8,0.8,1.9,3.9,2.3,5.1c12.7,10.8,23.1,8.9,32.1-5.1c2.4,7.2,10,10.3,9.9,18.2c0.1,1.5,0.5,2.9,1.3,4.2
		c0.6,1.3,1.1,2.9-0.3,3.6c-4.1,2-2.1,4.3-1.2,7.3c1.6,4.7,2.6,9.6,2.9,14.5c0.1,4.5-4.3,5.3-7.9,6.1c-1.9,0.4-4.1-0.7-5.4,1.5
		s1.2,2,2.5,2.4c11.8,3.4,24,4.6,36.1,6.1c3.3,0.5,6.5,1.4,9.5,2.8c3,1.2,3.6,3.3,0.7,5.6c-5.2,4.1-10.4,8.2-17.1,9.6
		c0.3,4.4-1.2,7.5-5.6,9c-4.5,1.5-7.1,4.8-10.1,7.8c-1.5,1.5-2.8,3.3-5.4,2.9c0.1-0.1,0.2-0.2,0.3-0.3c-0.1,0.1-0.2,0.2-0.3,0.2
		c-4.3,0.3-8.4,3.4-12,4c0,0-0.1,0-0.1,0c0,0,0.1,0,0.1,0.1C110.2,348.5,106.3,348.2,104.7,351.6z M172.6,128.2
		c-0.4,6.1-2.6,7.9-8.9,7.5C165.8,132,169.1,130.2,172.6,128.2z M140.1,290.2c-1.2-0.7-1.5-2.3-0.8-3.4c0.2-0.3,0.4-0.6,0.7-0.8
		c3.4-2.3,6.2-0.5,9.3,1.8C146.6,291.3,143.5,292,140.1,290.2z"/>
	<path fill="#6F95B5" d="M219,93.5c3.1-3.8,5.8-7.7,11-2.7c0.3,0.3,1.3,0.3,1.9,0.2c8.1-0.8,15.6,3.7,23.8,2.2
		c2.8-0.5,6.1,1.9,7.5,4.1c1.4,2.2,3,4,6,3.8c0.9-0.1,1.5,0.4,1.7,1.1c0.1,0.2,0.1,0.5,0.2,0.8c8.6-1.7,17.9-2.5,19.1-14.3
		c0,0,0,0,0,0c-2.6-2.9-0.3-6,1.2-7.7c3.9-4.5,7.8-8.6,3-15.3c6.3-0.9,11.9-1.1,16.1-4.9s5.8-5.5,8.6-8.3c2.3-2.4,5.2-4.2,8.4-5.1
		c2.9-0.8,5-0.6,5.6,3.4c0.9,5.8,3.4,6.4,8,2.9c7.8-5.9,16.4-10.6,23.1-17.9c1.9-2.1,5.3-2.2,8.1-2.7c0.2-0.1,0.4-0.2,0.7-0.3l3-3
		c0.1-0.1,0.2-0.1,0.3-0.2c1.1-2.7,4-3.3,6.2-4.4c2.4-1.1,2.8-2.1,2.8-4.1c0-0.1-0.1-0.1-0.1-0.2c-4.9-0.7-9,1.3-13.2,3.5
		c-9.4,5-16.1,14.2-27,16.5c-0.6,0.2-1.2,0.6-1.6,1.1c-1.5,1.4-2.5,3.5-5.4,1.8c-2.9-1.7-5.8-3.1-6-7.2c-0.6-10,0.7-19,10.3-24.7
		c1.6-0.9,1.9-2.3,1.7-4.4c-0.2-2.1-1.8-2.3-3.5-2.8c-2.6-0.8-5.3-1-7.9-0.6c-5,1.2-10.1,1.8-15.3,1.8c-1.9,0-4.3-0.4-5.1,2
		c-0.8,2.4,0.7,4.1,2.4,5c8.3,4.2,9.1,12.4,11.2,20c0.1,0.2,0.1,0.3,0.1,0.5c0.2,1.4-0.7,2.8-2.1,3c-7.1,1.7-8.9,7.4-10,13.3
		c-1.1,5.9-5.4,8.2-10.7,8.3c-5.3,0.1-10.1-2.9-15.6-2.1c-4.5,0.5-9.1-0.4-13-2.7c-2-1-3.9-1.8-4.5,1.4c-1,5.9-7,8.8-8.7,14.3
		c-0.2,0.6-1.3,0.9-2.1,1.1c-8.2,1.8-10.3,3.9-11.2,12.4c-0.3,3-1.8,4.6-4.6,5.7c-5.9,2.3-12.5-0.8-16.5-1.7
		c-4-0.9-8.1-0.3-10.4,2.7c-2.2,2.9-4.5,5.8-5.4,9.5c0,0.1-0.1,0.2-0.1,0.4C214.7,98.7,215.9,97.3,219,93.5z M266.3,76
		c0.5-2.2,1.6-4.9,4.7-4.9c3.1,0,1.9,2.3,2,3.3c0.2,3.1-0.8,4.6-3.6,4.5C266.6,78.8,265.8,78.2,266.3,76z"/>
	<path fill="#A6ABA9" d="M364.2,35.8c-6.7,7.3-15.3,12-23.1,17.9c-4.6,3.5-7.1,2.9-8-2.9c-0.6-4-2.7-4.2-5.6-3.4
		c-3.2,0.9-6.1,2.7-8.4,5.1c-2.8,2.8-4.4,4.5-8.6,8.3s-9.8,4-16.1,4.9c4.8,6.7,0.9,10.8-3,15.3c-1.5,1.7-3.8,4.7-1.2,7.7
		c0.1,0.1,0.1,0.2,0.2,0.2c0.6-0.9,1.1-1.9,1.5-2.9c1.4-5,5.7-7.8,9.8-8.6c4.1-0.8,8.9-1.8,12.2-2.2c3.3-0.4,7.1,0.2,9.3,2.2
		s4.3,4.7,7.6-0.5s6.7-10.3,9.9-15.5c1.1-1.7,1-4.2,3.4-5.1c2.7,6.9,3.6,7,9,2.2c0.7-0.6,1.7-1,2.4-1.7C362.8,50.1,368.7,42,373,33
		c-0.2,0-0.5,0.1-0.7,0.1C369.5,33.6,366.1,33.7,364.2,35.8z"/>
	<path fill="#CBB386" d="M328.1,189.1c-0.1,0-0.1-0.1-0.2-0.1l-0.9,0.1c0.9,3.3,2.5,7.1-0.9,9.5c-3.3,2.4-7.9,2.1-10.9-0.6
		c0,0,0,0-0.1,0l-14-3.2c4.4-4,6-10.4,12.6-10.8c0.1,0,0.2-0.1,0.2-0.1c-0.1-3.7-3.8-3.8-5.9-5.7c0,0,0-0.1,0-0.1l-0.9-0.1
		c-1.2,1.4-3.1,0.8-4.6,1.7c-5.3,3.5-10,2-14.4-1.8c0,0,0,0,0,0c-2.5,0.4-3,1.3-2.8,3.2s-1.1,2.8-2.2,3.8c-0.2,0-0.4,0-0.7,0.1
		c0.2,0,0.4,0.1,0.6,0.1c-2.1,5.9-0.5,12.9-6,17.7c-1.1,1-1.4,2.3,0.1,3.4c0,0,0.1,0.1,0.1,0.1c0-0.1,0-0.2,0-0.3
		c7.7-3.4,15.9-0.4,23.8-2c0.5-0.1,1.3,0,1.4,0.3c2.4,4.7,8.4,4.9,11.3,9.1c1.6,2.4,4.6,3.4,7.3,4.6c-0.4-3.1,1.5-4.2,4.3-4.5
		c-0.1-1.7-2-3.7,1-4.4c3-0.7,2.5,1.1,3,2.8c1.2,3.9,1.9,8,2.1,12.1c0,0,0,0.1,0,0.1c0,0,0,0,0,0c2.7-1,1.8-3.4,1.6-5.1
		c-1.2-10,1.9-20.3-3-29.9c0,0,0,0,0,0H328.1z"/>
	<path fill="#164CA3" d="M169.7,199c3.4,0.4,7.4-1.4,9.7,3.3c0.7,1.5,2.8,0.2,4-0.6c3.8-2.4,8.1-3.8,12.6-3.9c0.1,0,0.2,0,0.3,0
		c5.4-2.6,11.3-3.2,16.9-4.7c1.6-0.5,3.7-0.4,5.2-2c-2.2-4.8-5-9.2-9.3-12.4c-7.4,0.6-13.6,4.1-19.7,7.9c-6.1,3.8-12.4,6.2-19.6,6.4
		c-1.3,0.2-2.6,0.5-3.8,0.9c-0.1,0.2-0.2,0.4-0.3,0.6C164.6,197.7,166.5,198.6,169.7,199z"/>
	<path fill="#A6ABA9" d="M218.4,191.1c3.7,0.4,6.8-2.4,10.5-2.1c0,0,0-0.1,0-0.1h1.1c10.3-8,19.9-17.1,31.2-23.9c0,0,0,0,0,0
		c0-0.1,0.1-0.1,0.1-0.2l1.9-1.7l-1.2-2.2c0,0,0,0,0,0c-4.2-0.3-7,2.4-10,4.7l-19.2,14.9c-1.1,0.8-2.9,1.4-4,0.5
		c-1.1-0.9-2-2.1-0.9-3.4c4-4.8,2.3-12.8,9-16.1c-0.1-0.4-0.2-0.8-0.4-1.2c-4,0-7.4,1.5-9.4,4.9c-3.1,5.6-8.5,9.5-14.7,10.9
		c-1.4,0.3-3,0.8-3.3,2.6C213.4,181.9,216.2,186.3,218.4,191.1z"/>
	<path fill="#18255F" d="M303,243.9c-3.3,0.5-6.6-0.6-8.9-3v0.1c-6,2.8-13.3,1.8-18.7,6.7c-1.4,1.2-3.3,1.8-3.5,4l-4.6-1.7
		c0-0.1,0-0.1,0-0.2c0,0,0,0,0,0L267,252c-2.3,5.8-4.1,11.7-3.8,18c0.1,0.1,0.1,0.1,0.2,0.2l1.4-3.2c1.3,3.5,2.8,1.7,4.2,0.6
		c3.4-2.8,5.5-6.6,7.4-10.5c1.4-3.3,4.5-5.5,8.1-5.6c6.6-0.6,13.1-1.6,19.7-2.4c1.4-0.1,2.7-0.1,3.1-1.8c0,0,0-0.1,0-0.1l-0.1,0
		C307.3,244.1,305.4,243.6,303,243.9z"/>
	<path fill="#25303F" d="M287.3,137.1c0-0.1,0-0.2,0-0.2c0-2.7-0.1-5.3-2-7.5c0,0,0,0,0,0c0,0,0,0.1,0,0.1
		c-5.4,5.1-11.3,3.7-17.7,1.7c1.9-2.4,3.3-5.1,4.2-8c-0.4-1.6-1.9-1-2.9-1.5c0,0,0,0,0,0c0,0,0,0,0,0c-10.6,3.6-15.9,11.8-13.7,21.2
		c0.1,0.1,0.1,0.1,0.2,0.2c0,0,0,0,0-0.1L287.3,137.1z"/>
	<path fill="#B69D68" d="M266.9,152.7c0.1,0.1,0.1,0.2,0.2,0.3v-0.3C267,152.7,267,152.7,266.9,152.7z"/>
	<path fill="#B69D68" d="M263.2,163.1l0.2-0.2l3.9,1c0.1,0.1,0.2,0.1,0.2,0.2c3.5-0.4,7.2,2.4,10.6-0.6c0,0,0,0,0,0
		c0.1-0.1,0.1-0.2,0.2-0.3c0.5-2,2.3-3.1,3.5-4.6c2.7-3.7,5.4-3.9,8-0.3l0.1-2.1c0,0,0,0,0.1,0l-1-2.1c-3-1.5-2-4.6-3-7h-2
		c-0.1,0-0.1,0.1-0.2,0.1c0.1,0,0.1,0,0.2,0c-0.7,3.2-3.2,3.6-5.8,3.6c0-0.1,0-0.1,0-0.2c0,0,0,0,0,0c-4-0.5-8-1.3-11.1,2.5
		c0.1,0.1,0.1,0.1,0.2,0.2c-1.4,2.6-4,1.5-6.1,1.9c-0.1,0-0.2-0.1-0.3-0.1c0,0,0,0,0,0c0.5,1.9,1.6,3.7,1.1,5.8c0,0,0,0,0,0
		L263.2,163.1z"/>
	<path fill="#445E9A" d="M323.3,230.9c-1.9-3-6.5-6-0.2-8.5c0,0,0-0.1,0.1-0.1l-1.1-1.3c0,0-0.1-0.1-0.1-0.1c-0.5,0-1-0.1-1.3,0.1
		c-5.2,6.2-13.9,6.6-19.7,11.7c-0.3,0.4-0.6,0.8-0.8,1.2c-0.1,0-0.2,0.1-0.3,0.2c0,0,0,0.1,0.1,0.1c0.1,0,0.1,0,0.2,0
		c2.8,0.6,5.8,2.4,7.5-1.7c8.1,6.7,8.2,7.5,2.4,14.5l0,0c0,0,0,0.1,0,0.1c3.5-0.1,6.3-2,9.1-3.7C318.2,238.6,319.8,234,323.3,230.9z
		"/>
	<path fill="#427AB6" d="M293.2,150.2c0.7,3.7,3.5,4.7,6.6,4.8c2.6,0.1,5.2,0.6,7.7,1.5c3.5,1.2,6.2,3.3,4.7,7.7l3.1,1.1
		c0,0,0-0.1,0-0.1l2.1-2c-3.4-4.9-4.9-10.1-3.4-15.9c-3.6-2.1-7.7-2.9-11.8-2.3C299.7,147.6,297,149.8,293.2,150.2z"/>
	<path fill="#A6ABA9" d="M267.6,281.1c0,0,0.1,0,0.1,0c1.4-1.2,3.2-1.7,5-1.5c-0.2,2.7-2.5,2.8-4.1,3.7l-0.1-0.2c0,0,0,0,0,0.1
		c-4.7,4.4-10.9,6.5-16.4,9.6c-0.1,0.1-0.2,0.1-0.3,0.1l0.3,1.1c1.8,0.4,3.2-0.7,4.7-1.2c5.6-1.8,10.4-5.5,16.5-5.8c0,0,0.1,0,0.1,0
		c2.3,0,3.2-1.6,3.3-3.5c6.8,1.3,8.1,0.3,8.2-6.1c0-0.1,0-0.1-0.1-0.2c-0.1-0.2-0.2-0.3-0.3-0.4l-5.2,1c-1.6,0.3-2.2-0.4-2.1-1.7
		c0,0-0.1,0-0.1-0.1c-1.2-0.9,0.1-3.1-0.2-4.8c-0.1-0.1-0.2-0.2-0.3-0.2c-4.1,2.1-7.4,5.5-9.3,9.7v0.1v0.1L267.6,281.1z"/>
	<path fill="#163780" d="M307.6,232.3c-1.7,4.1-4.7,2.3-7.5,1.7c-0.1,0-0.1,0-0.2,0c0,0,0,0,0,0c-0.1,0-0.1,0-0.2,0.1
		c-0.6,1,0.5,3.9-2.5,2.4c0,0,0,0,0,0c0,0.1,0,0.1,0,0.2l-1.9,0.3c0,0,0,0,0,0l-1.1,1.9c0,0-0.1,0.1-0.1,0.1c0,0,0,0,0,0v1.9
		c2.3,2.4,5.6,3.5,8.9,3c2.4-0.3,4.3,0.2,4.2,3.3l0.1,0l2.6-0.4l0,0C315.8,239.8,315.7,239,307.6,232.3z"/>
	<path fill="#6F95B5" d="M317.4,163.2L317.4,163.2l1.7-0.2l0,0c3.7-2.2,7.8-3.1,11.9-4.3c0.2-1.3-0.3-2.6-1.3-3.4
		c-4.9-3.4-9.7-6.8-15.7-8C312.5,153.2,314,158.4,317.4,163.2z"/>
	<path fill="#667C8D" d="M324.8,264c-1.6,0-2.4,1.4-3.5,2.3c-0.6,0.5-1.5,0.7-2.4,0.4c-0.2,0.2-0.3,0.4-0.5,0.5c0-0.3,0-0.6-0.1-0.9
		c-0.4-0.3-0.8-0.8-1-1.4c-0.1-0.1-0.2-0.1-0.3-0.2c0,0,0,0,0,0l-16.5,5.4c-1.7,0.5-3.3,1.7-4.8-0.2h-0.6c0.2,2-0.8,2.7-2.7,3.2
		s-5.5,1-7.2,3.6l-0.1,0c0,0,0,0,0,0.1c0,0,0,0.1,0,0.1c-0.1,0.2-0.1,0.3-0.1,0.5c1.4-0.4,2.9-0.7,4.4-1c12.2-1.4,23.4-7.2,35.8-7.6
		c3.1-0.1,6.7-0.9,8.9-3.8C331,264.9,327.8,265.7,324.8,264z"/>
	<path fill="#C9A566" d="M319.1,163L319.1,163L319.1,163c0.9,1.1,0.9,2.8,0,3.9l0,0l0.9,0.2l0,0c5.4,3,11.4,1.4,17,1.8
		c0,0.1,0,0.2,0,0.2l0.1-0.1l0,0l0.1-0.1c-0.2-1.1-0.9-2.4-0.6-3.3c1.9-5.4-1.8-6.1-5.5-6.9c0,0-0.1,0-0.1,0
		C326.9,159.9,322.8,160.8,319.1,163z"/>
	<path fill="#163780" d="M283.2,141.2c0.3,2.2,3.9,2.9,2.8,5.9c1,2.4,0,5.5,3,7c0.7-2.1,1.7-3.7,4.2-3.9c3.8-0.4,6.5-2.6,9-5.2
		c-2.3-0.1-3.3-0.7-6.3-1.9s-3.2-5.4-6.8-5.1C287.9,140.4,285.5,140.8,283.2,141.2z"/>
	<path fill="#667C8D" d="M337.1,169.1c-0.1,0.1-0.1,0.1-0.2,0.2c-0.4,2-2.1,1.7-3.6,1.6c-3.3-0.4-6.7,0.8-9.1,3c0,0,0,0,0,0.1
		c0,0,0,0,0,0v0.1c0,0,0-0.1,0-0.1c0,0-0.1,0-0.1,0c0,0,0,0-0.1,0.1c-0.3,3.8-2.4,5.2-6,4.9l0,0.1c0,0,0,0-0.1,0
		c0,0.1-0.1,0.1-0.1,0.2c0.5,0.8,0.4,3.7,3.1,3.7c0,0,0,0.1,0,0.1l3.2-1.1c0,0,0.1-0.1,0.1-0.1c0,0,0,0,0,0c2.3-2.3,4.2-4.9,3-9
		c3.5,1.4,5.6,4.6,8.8,3c1.4,1.7-0.2,3,0.4,4.3l3.9,0.9c0.1,0,0.1,0,0.2-0.1c2.8-6,1.8-9.4-3.4-12L337.1,169.1
		C337.1,169.1,337.1,169.1,337.1,169.1z"/>
	<path fill="#7E7B5C" d="M267.3,153.3c0-0.1-0.1-0.2-0.2-0.2c0,0,0,0,0,0V153c-0.1-0.1-0.1-0.2-0.2-0.3c-2.5,0.4-5.2,0.5-7.3-1.2
		c-2.2-1.8-2.5-2.7-2.2-4.6c0.3-1.9,2-1.9,3.5-2.1l4.2-0.8l13-3c0,0,0.1,0.1,0.1,0.1h0.8l0.1,0.1c0,0,0-0.1,0-0.1h4.1
		c0,0,0,0.1,0,0.1c2.3-0.4,4.7-0.8,5.9-3.2l-1.6-0.9l-0.2,0l-31.9,5.9c0,0,0,0,0,0.1c-0.6,5.2,0,9.7,5.5,12c0.1,0,0.2,0.1,0.3,0.1
		C263.3,154.8,265.9,155.9,267.3,153.3z"/>
	<path fill="#1A1C25" d="M267,252c-1.3-0.2-2.6,0.2-3.6,0.9l0,0.1c-3.2,8.4-4.1,17.4-6.3,26c0,0,0,0,0,0c0,0,0,0.1,0,0.1l1.1,3.8
		c0,0,0,0,0,0l1,1c-0.1,0-0.1,0.1-0.2,0.1c0,0,0,0,0.1,0l3.1-1.2c0,0,0,0,0-0.1c0.8-4.2,1.1-8.4,1-12.6c0,0,0-0.1,0-0.1
		C262.9,263.7,264.7,257.8,267,252z"/>
	<path fill="#4B667D" d="M314.7,260.9c2,0.1,2.5-1.4,3.6,0c1,1.3-0.5,2.3-1.2,3.5c0,0.1,0,0.2,0.1,0.3c0,0.1,0.1,0.1,0.1,0.2
		c0.2,0.7,0.6,1.1,1,1.4c0.2,0.1,0.4,0.3,0.6,0.3c0.9,0.3,1.8,0.1,2.4-0.4c1.1-0.9,1.9-2.2,3.5-2.3c0,0,0,0,0,0l0.1-2c0,0,0,0,0.1,0
		c-2.9-1.2,0.6-3,1.7-3.6c2.6-1.3,5.5-2.3,8.4-3.4l3.1-2c-2.3-1.6-4.8-1.3-6.9-2c0,0-0.1,0-0.1,0.1c0,0-0.1,0.1-0.1,0.1
		c-0.3,2.2-1.5,3.4-3.8,3.4c-0.1,0-0.1,0.1-0.1,0.1c-5,1.2-9.3,4.1-14.5,4.7c-1.7,0.2-3.2,1.3-2.7,3.3c0,0.1,0,0.2,0.1,0.3
		C311.5,262.3,312.7,260.8,314.7,260.9z"/>
	<path fill="#4B667D" d="M271.8,123.2c-0.9,2.9-2.3,5.6-4.2,8c6.4,2,12.3,3.4,17.7-1.7c0,0,0-0.1,0-0.1c-0.2-2.6-2.4-3.4-4.3-4.4
		l-0.2-0.1c0,0,0,0,0.1,0.1c-3,0.4-5.6-0.1-7.1-3c0,0,0.1,0,0.1,0c-1.4-1.2-3.4-1.3-5-0.3c0,0,0,0,0,0
		C269.9,122.2,271.4,121.6,271.8,123.2z"/>
	<path fill="#A6ABA9" d="M338.2,253l-3.1,2c1.5,3.8,5.1,0,7.1,2c0,0,0,0.1-0.1,0.1l2.4-0.7c2-0.6,4.9-0.3,4.4-3.5s-3.1-6.6-5.8-6.5
		c-4.1,0.1-9,0.5-12,4.6c0.1,0,0.1,0,0.2,0C333.4,251.7,335.9,251.4,338.2,253z"/>
	<path fill="#A6ABA9" d="M299.3,259.3c-8,4.2-15.1,8.1-19.1,15.5c0.1,0.1,0.3,0.2,0.4,0.3c2.9-0.6,4.7-2.9,7-4.5
		c2.3-1.7,2.4-2.7,4.4-2.6c0,0,0.1-0.1,0.1-0.1l0,0c0.1-0.4,0.4-0.8,0.8-0.8l0.1-0.1c0,0,0,0,0,0c0.3-0.9,0.5-0.7,0.9,0
		c0,0,0.1,0,0.1,0c0,0,0,0,0,0h0.2c0,0,0,0.1,0.1,0.1c2.8-5,8.3-7.3,12.3-11.2c-5.1-0.7-10.1-1.8-13.7,3L299.3,259.3z"/>
	<path fill="#214390" d="M336.4,180.2c-0.4,0.7-0.9,2-1.6,1.4c-3.7-2.7-7.1-0.6-10.6,0.3c0,0-0.1,0.1-0.1,0.1l-3.2,1.1
		c0.3,1.5,2.8,1.7,2.3,3.8c2.1-0.6,3.3,1.1,4.9,2.1l-0.2,0c0.1,0,0.1,0,0.2,0.1h1.9c0,0,0,0,0,0c1.8-0.6,2.8-0.7,5.5-1.8
		c2.7-1.1,5.6-2.3,4.9-6.2l-0.1,0L336.4,180.2z"/>
	<path fill="#C5914C" d="M329.3,211.9c-0.5-1.7,0-3.5-3-2.8c-3,0.7-1.1,2.7-1,4.4c-2.9,0.3-4.7,1.4-4.3,4.5c0,0,0.1,0,0.1,0l1,2.8
		c-0.1,0-0.1,0-0.2,0c0,0,0.1,0.1,0.1,0.1l1.1,1.3l0.1,0.1l1.9,1.7l3.3-0.7c1.2,2.1,1.8,4.4,1.9,6.8c0,0,0,0,0,0
		c1.4-1.8,0.4-4,1.1-6c0,0,0-0.1,0-0.1C331.2,219.9,330.5,215.8,329.3,211.9z"/>
	<path fill="#7894A3" d="M277.2,276C277.2,276,277.3,276,277.2,276C277.3,276,277.3,276,277.2,276l2.8-0.8c0,0,0,0,0,0
		c0.1-0.1,0.2-0.3,0.2-0.4c3.9-7.4,11-11.3,19.1-15.5l-6.3-0.5l-2.7,0.3c-0.1,0-0.1,0.1-0.2,0.1c-2.8,3.9-7.4,5.5-10.9,8.5
		c0,0.1-0.1,0.1-0.1,0.2l-2.2,3c0,0.1,0.1,0.2,0.1,0.3C277.3,272.9,276,275.1,277.2,276z"/>
	<path fill="#263169" d="M325.1,224l-1.9-1.7c0,0-0.1,0-0.1,0.1c-6.3,2.6-1.7,5.6,0.2,8.5c-3.5,3.1-5.1,7.7-4.2,12.3
		c4.1-1.4,5.2-4.9,6.1-8.5C325.8,231.1,326.5,227.6,325.1,224z"/>
	<path fill="#667C8D" d="M334.2,265C334.2,265,334.2,265,334.2,265c0,0-0.1,0-0.1,0H334.2z"/>
	<path fill="#667C8D" d="M335.1,255c-2.9,1.1-5.8,2.1-8.4,3.4c-1.2,0.6-4.7,2.4-1.7,3.6c1.7-0.8,3.6-1.2,5.5-1.2
		c3.1-0.2,4,1.4,3.6,4.1c0,0,0,0.1,0.1,0.1c4-1.2,5.7-4.8,8-7.9c0,0,0-0.1,0.1-0.1C340.2,255,336.6,258.8,335.1,255z"/>
	<path fill="#1F3B5C" d="M295.7,269.9L295.7,269.9c1.5,1.9,3.1,0.7,4.8,0.2l16.5-5.4c0,0,0,0,0,0c0-0.1,0.1-0.2,0.1-0.3
		c0.6-1.2,2.2-2.2,1.2-3.5c-1.1-1.4-1.6,0.1-3.6,0c-2-0.1-3.2,1.4-4.7,2.2c0,0,0,0-0.1,0l-0.8,0.7c0.1,0.1,0.1,0.1,0.2,0.1
		c-2.3,2.4-5.8,3.3-9,2.2c0.1-0.1,0.2-0.2,0.3-0.2c-0.2,0-0.3,0.1-0.5,0.1l-3.8,2.1c-0.1,0-0.1,0-0.2,0c0.1,0,0.2,0,0.3,0.1
		L295.7,269.9z"/>
	<path fill="#A6ABA9" d="M352.7,241.3c8.1-0.4,15.6-3,22.8-6.5C367.5,235.2,359.7,237.4,352.7,241.3z"/>
	<path fill="#A6ABA9" d="M382.5,25.2c-2.3,1-5.1,1.6-6.2,4.4c-0.1,0.1-0.1,0.3-0.2,0.4c5.1-0.8,9.7-4.7,13-6.7
		c3.3-2,4.6-3.7,4.1-7.2c0,0-0.1,0-0.1,0c-3.5,0.3-4.3,4.7-7.8,5c0,0,0,0,0,0C385.3,23.1,384.9,24.1,382.5,25.2z"/>
	<path fill="#9B7147" d="M328.4,223.3l-3.3,0.7c1.4,3.6,0.7,7.1,0.1,10.7c3.3,0.4,4.5-1.7,5.1-4.4c0-0.1,0-0.1,0-0.2
		C330.2,227.7,329.6,225.4,328.4,223.3z"/>
	<path fill="#A6ABA9" d="M290.1,259.2c0,0,0.1-0.1,0.1-0.1c-6.9-0.2-9.8,2.1-11.2,8.8c0.1-0.1,0.1-0.1,0.2-0.2
		C282.8,264.7,287.4,263.1,290.1,259.2z"/>
	<path fill="#4B667D" d="M309.3,263.9c-0.1-0.1-0.1-0.1-0.2-0.1c-0.2-0.2-0.4-0.3-0.5-0.5c-3.6-3-5.7,0.5-8,2.6
		c-0.1,0.1-0.2,0.2-0.3,0.2C303.5,267.2,307,266.3,309.3,263.9z"/>
	<path fill="#25303F" d="M280.9,125C280.9,125,280.9,125,280.9,125c-1.9-2.1-4-3.6-7-3c0,0-0.1,0-0.1,0
		C275.3,124.9,277.9,125.4,280.9,125z"/>
	<path fill="#A6ABA9" d="M292.1,267.9L292.1,267.9c-0.1,0.1-0.1,0.1-0.2,0.1c0.1,0,0.1,0,0.1,0C292.1,268,292.1,267.9,292.1,267.9z"
		/>
	<path fill="#A6ABA9" d="M293.1,266.9C293.1,266.9,293.1,266.9,293.1,266.9L293,267c0,0,0.1,0,0.1,0
		C293.1,266.9,293.1,266.9,293.1,266.9z"/>
	<path fill="#A6ABA9" d="M294.1,266.9C294.1,266.9,294.1,266.9,294.1,266.9C294.1,266.9,294,266.9,294.1,266.9
		C294,266.9,294.1,266.9,294.1,266.9l-1,0.1l-1,1l-0.9,2.2c1.5,1.1,2.6-0.4,3.9-0.3h0.6h0l0.7-1.7c-0.1,0-0.2,0-0.3-0.1
		c-0.7-0.1-1.4-0.3-1.8-1.1c0,0,0-0.1-0.1-0.1H294.1z"/>
	<path fill="#A6ABA9" d="M331.1,251.2c0-0.1,0-0.2,0-0.2c-2.3,0.2-3.4,1.6-4.1,3.6c0.1,0,0.2,0,0.2,0
		C329.6,254.7,330.7,253.4,331.1,251.2z"/>
	<path fill="#6F95B5" d="M145.2,322.1c0,0.1,0,0.1,0,0.2c6.6-1.4,11.9-5.5,17.1-9.6c2.9-2.3,2.3-4.4-0.7-5.6c-3-1.4-6.2-2.3-9.5-2.8
		c-12.1-1.5-24.3-2.7-36.1-6.1c-1.3-0.4-3.8-0.2-2.5-2.4s3.5-1.1,5.4-1.5c3.6-0.8,8-1.6,7.9-6.1c-0.3-4.9-1.3-9.8-2.9-14.5
		c-0.9-3-2.9-5.3,1.2-7.3c1.4-0.7,0.9-2.3,0.3-3.6c-0.8-1.3-1.2-2.7-1.3-4.2c0.1-7.9-7.5-11-9.9-18.2c-9,14-19.4,15.9-32.1,5.1
		c-0.4-1.2,0.5-4.3-2.3-5.1c-4.9-1.4-9.9-2.4-15-3.2c-3.9-0.6-6,2.6-5.8,5.4s1.4,5.8,0.8,8.3c-1,4.1,1.5,5.6,4,6.1s4.3,1.7,3.7,4.5
		c-0.6,2.8-3.1,0.8-4.6,0.5c-6.9-1.4-9.8,0.5-10.8,7.5c-0.2,1.8-0.7,3.7-2.7,3.4c-6.8-1.1-10.1,3.6-13.8,7.9c2.5,2.7,6,3.2,9.2,4.6
		s3.6,3.2,1.9,6.2c-3.3,5.8-8.7,7.2-14.6,7.6c-0.1,0-0.1,0-0.2,0c-0.3,0-0.6,0-0.9,0.1c6.1,7,7.3,15.4,8.3,24.5
		c1.7,14.4,17,20,28.5,11.2c2.7-2,4.2-2.8,8.4-5.4c4.2-2.6,7.7-3.5,12.4-8.1s9.4-7.9,16.1-7.3c3.5,0.5,7-0.1,10.2-1.6
		c8.6-4.7,17.9-4.6,27.2-4.4c5.8,0.1,7.3,2.6,5.3,8.1c-0.7,1.9-2.1,3.6-2.3,5.7C145.1,322.1,145.1,322.1,145.2,322.1
		C145.1,322.1,145.2,322.1,145.2,322.1z M115.4,258c0.1-1.1,1-1.9,2.1-1.9c0.3,0,0.6,0.1,0.9,0.3c3.2,1.6,2.9,4.3,2.1,7.8
		C117,262.8,114.7,261.4,115.4,258z"/>
	<path fill="#6F95B5" d="M101.4,145.7c0.9-1.4,1.8-2.8,2.9-4.1c1.7-1.8,4.6-5,6.1-3s-0.6,5.5,3,6.2c1.1-1.1,0.4-2.5,1-3.4
		c2.4-4,0.9-7.2-2.5-9.3c-3.4-2.1-1.8-8.7,2-9.8c1.2-0.4,2.3-0.8,2.6-2c1.5-5.7,6.2-6.6,10.6-7.7c3.5,6.9,9.3,9.4,16.1,10.6l-12,3.7
		c0.1,2.5,2.4,2.1,2.9,3.8c1.3,4.1,4.7,3.8,7.5,2.1s4.7-2.2,8.3-0.1c3.6,2.1,7.7,2.9,9.5-2.9c0.5-1.9,2.4-3,4.3-2.7
		c4,0.5,5.3-1.6,5.5-5.2c0.1-3,2.1-5.5,5-6.2c5.4-1.3,9.9-2.9,6.5-10.6c6.2,0.7,10.9-1.3,15.8-2.8c2.3-0.6,4.7-0.5,6.9,0.3
		c1.8,0.6,4,1.5,4.8-1.5c-0.2,0-0.4,0-0.5,0c-2.3,0-4.4,0.2-6.7-1.8c-2.4-2.1-5.2-4.5-1.3-7.1c3.9-2.6,2.7-5.4,2.3-8.6
		c-0.2-1.2-0.4-2.4-1.7-2.6c-1.3-0.2-3.2-0.3-3.6,1c-1.9,5.9-8.1,6.2-11.7,9.9c-7.1-5.2-13.9-5.2-20.6,0.1c-1,0.9-2.5,1-3.7,0.4
		c-2.8-1-4.3-1.4-4.8,3c-0.5,4.4-2,7.6-7.5,6.6c-0.2,0-0.3-0.1-0.5-0.1c-1.4-0.1-2.7,1-2.8,2.4c-0.3,1.5,0.4,3.1,1.8,3.8
		c1.1,0.4,2.2,0.8,3.3,1.1c1.2,0.5,2.7,1,1.1,2.7c-1.6,1.7-3.9,1.2-5.6,0.7c-1.1-0.3-2.9-0.3-3.8-1.1c-0.2-0.2-0.4-0.5-0.5-0.8
		c-0.1-0.3-0.1-0.7,0-1.2c0.7-3,1-7.6,2.5-8.9c1.5-1.3,1.6-2.6,0-4.3s-3.1-1.5-4.7,0.1c-1.9,2-4.6,3-7.3,2.6
		c-4.8-0.4-9.2,1-13.3,3.3c-2,1.2-4.3,1.9-6.6,1.8c-4.8-0.3-7.2,2.7-8.2,6.8c-1,4.1,1.3,10.3-5.9,11.3c-0.4,0.1-0.7,1.5-0.8,2.7
		c-0.1,1.2-0.4,2.5-1.4,3c-4.8,2.5-5.6,6.2-4,10.9c0.3,0.9-0.4,1.5-1.2,1.9c-6.6-5.4-12-6.2-17.3-2.5c0.8,1.4,1,3,0.7,4.6l-0.1,0.1
		c0,0,0.1,0.1,0.1,0.1c7.9-0.6,10,1,10.2,8.4c0,0.3,0,0.5,0,0.8C92.8,154.5,96.3,153.2,101.4,145.7z"/>
	<path fill="#6F95B5" d="M115.2,351.2c-0.1,0-0.2,0-0.3-0.1c-3.3-0.7-6.6,1.9-10.2,0.5c1.6-3.4,5.5-3.1,7.4-5.6c0,0-0.1-0.1-0.1-0.1
		c-2.8-2.1-5.1,0.3-7.6,1.1c-4,1.1-5.4,4.9-10.7,6s-8.4,5.1-12,8.3c-1.4,1.2-1.7,3.3-0.6,4.8c0,0,0,0.1,0.1,0.1
		C92.8,361.8,103.2,354.7,115.2,351.2z"/>
	<path fill="#6F95B5" d="M49.8,235.4c1.3-2.5,2.7-4.8,5.4-5.9c1.5,1.2,0.4,4.4,2.2,4.3c1.8-0.1,3.2-1.3,3.3-2.9
		c0.1-1.6-1-2.1-2.8-3.1c-1.8-1-3.7-0.6-5.2-3.4s-3.8-3.4-6.6-1.3c-1.3,0.8-2.6,1.4-4,1.8c0,0,0,0.1,0,0.1c-0.1,2.5-0.4,5.8,1.2,7
		c1.6,1.2,0.2,2.8-0.6,4.4c-0.7,1.5-2.5,2.3-2.7,4c0,0.2,0,0.3,0,0.5C44.9,242,47.8,239.5,49.8,235.4z"/>
	<path fill="#6F95B5" d="M76.5,174.5c1.2-4.5,0.1-9.7,3.7-13.4l-0.7-0.3l-2.4-1.2c-3.5-1.5-6.8,1.8-7,4.2c-0.2,2-0.5,4-0.7,6
		c-0.1,0.4-0.1,0.9-0.2,1.3C73.3,168.3,73.2,174.3,76.5,174.5z"/>
	<path fill="#6F95B5" d="M129.5,339.1c3-3,5.6-6.3,10.1-7.8c4.4-1.5,6-4.6,5.6-9c0-0.1,0-0.1,0-0.2c0,0-0.1,0-0.1,0.1
		c-0.1,0-0.1,0.1-0.2,0.1c-3.5,2-5.4,5.9-9.3,7.5c-5.4,2.3-7.4,8-11.2,11.9c-0.1,0.1-0.2,0.2-0.3,0.3
		C126.7,342.4,128,340.6,129.5,339.1z"/>
	<path fill="#6F95B5" d="M85.6,116.1c-2,0-4.4,0.2-4.3,2.6c0.1,2.4,2.3,2.3,4.1,2.3c1.9,0,3.6-0.2,3.6-2.6S87.6,116.1,85.6,116.1z"
		/>
	<path fill="#6F95B5" d="M83.1,153c-0.3,0.1-0.6,0.1-0.8,0.2c-2.2,0.2-3.8-1.6-6.1-3.2c-0.2,4.4,1.7,6.8,4.5,8.7
		c0.2,0.1,0.3,0.2,0.5,0.3C83,157.4,83.2,155.2,83.1,153z"/>
	<path fill="#6F95B5" d="M71.1,138.2c-2.6-1.8-3.8,0.2-5,1.9c2,1.4,4.2,2.7,3.8,5.7h0c0.1,0,0.1,0,0.2,0c1.4,0.2,2.7-0.7,2.9-2
		C70.9,142.4,69.8,140.7,71.1,138.2z"/>
	<path fill="#A6ABA9" d="M66.1,140.1c-2,4.1-0.7,6,3.8,5.7h0C70.3,142.8,68.1,141.5,66.1,140.1z"/>
	<path fill="#6F95B5" d="M100.7,104.2c-2.2,0.3-3.5,1.6-3.2,4.9c2.2-0.6,4.3-0.4,4.6-3.2C102.1,104.9,102.9,103.9,100.7,104.2z"/>
	<path fill="#A6ABA9" d="M73.2,138.2c0,0-0.1-0.1-0.1-0.1h-2c0,0,0,0.1,0,0.1c-1.2,2.6-0.1,4.2,1.9,5.6l0.8-0.9l0.1-0.1
		C74.2,141.2,74,139.6,73.2,138.2z"/>
	<path fill="#6F95B5" d="M237.9,77.2c2.7,0.9,4.5,1.6,6.2-0.7C241.2,74.7,241.2,74.7,237.9,77.2z"/>
	<path fill="#80A6CC" d="M100.1,89.9c4,1.2,4,1.2,4.4-2.5C102.5,86.9,101.1,87.6,100.1,89.9z"/>
	<path fill="#87ABCE" d="M108.6,78.9c2.9-0.2,3.8-1.2,2.8-3.8C108.8,75.3,108.6,76.7,108.6,78.9z"/>
	<path fill="#80A6CC" d="M107,85.6c1.6-0.9,3.6-1.5,2.6-4.2C107.2,81.8,106.8,83.5,107,85.6z"/>
	<path fill="#80A6CC" d="M3.4,287.9c1,1.6,2.4,0.9,3.6,1c0,0,0,0,0,0l0.9-2.5L8,286C6.2,285.9,4.1,285.5,3.4,287.9z"/>
	<path fill="#A6ABA9" d="M13,421.8l-10,4C9,429.3,10.6,428.7,13,421.8z"/>
	<path fill="#A6ABA9" d="M391.9,223.3c-2.5-0.5-4.1,0.5-5.8,2.5C388.3,226.1,390.6,225.1,391.9,223.3z"/>
	<path fill="#C2BAAF" d="M217.1,303.8c1.3-3.3,0.2-7,2-10.2l-0.1,0l-0.4-2.4c0,0,0-0.1,0-0.1c0,0,0,0,0,0c-0.6,0-1.2,0-1.8,0.1
		c-2.9,0.2-5.9,0.8-6.8,3c-1.1,2.7-3.3,4-5.7,5.2c-8.6,4.4-16.1,10.4-23.1,17c-1.2,1.2-3.2,2.4-1.4,4.4c0.1,0.1,0.3,0.3,0.5,0.4
		c12.2-4,23.6-9.5,34.6-15.7c0,0,0.1,0,0.1,0C214.7,304.7,216.2,304.2,217.1,303.8z"/>
	<path fill="#A6ABA9" d="M258.2,282.9C258.2,282.9,258.2,282.9,258.2,282.9l0,0.1h-3c-0.1-0.1-0.2-0.1-0.2-0.2c0,0,0,0,0,0.1
		c-2.2,3.4-5.4,3.6-8.7,2.6c-3.3-1-6.7-0.9-9.5,1.2c-4.4,3.4-10.5,2.3-14.6,6.2c0,0.1,0,0.1-0.1,0.2l-3,0.5c-1.7,3.2-0.7,6.9-2,10.2
		l0.9,0.2c0,0,0.1,0,0.1-0.1c14.6-4.7,27.4-13.1,40.9-19.9c0.1,0,0.1-0.1,0.2-0.1L258.2,282.9z"/>
	<path fill="#274D73" d="M91,383.1c5.6-0.9,8.1-7.2,13.7-8.6c0.7-0.1,0.9-2.3,1.4-3.5c0,0,0,0-0.1,0c-10.5,2.8-18.9,9.4-28.3,14.3
		c-1.7,0.9-2.2,2.7-2.6,4.5c0,0,0,0.1,0,0.1C81,388.9,85.4,384,91,383.1z"/>
	<path fill="#4B667D" d="M142.1,339.1c1.1,1,2.3,2.4,3.9,1.5c1.6-0.9,6.3-0.3,3.1-4.6C146.1,335.6,144,337,142.1,339.1z"/>
	<path fill="#667C8D" d="M272.7,279.6c-1.8-0.2-3.6,0.3-5,1.5c0,0,0,0,0,0l0.8,2l0.1,0.2C270.2,282.4,272.5,282.3,272.7,279.6z"/>
	<path fill="#4B667D" d="M217.1,303.8c-0.9,0.4-2.4,0.9-2.1,1.7c0,0,0,0,0,0c0.3,0.8,0.1,1.6,1.8,1.3c1.7-0.3,1.1-1.7,1.3-2.8
		l-0.1,0L217.1,303.8z"/>
	<path fill="#A6ABA9" d="M251.6,294.5l0.5-0.5l-0.4,0.2C251.6,294.2,251.6,294.4,251.6,294.5z"/>
	<path fill="#0F1F36" d="M237.7,263.5c1.9-5.1,2.7-10.5,5.6-15.3c1.6-2.7-1.2-4.4-2.7-6.3c-1.5-1.9-3.2-2.4-2-4.6s3.1-1.6,4.9-0.8
		c1.8,0.8,4.1-0.4,5.7,1.3c0,0,0,0,0,0c6.7,0.3,13,5.9,13.8,12.2l0.4,2.9c1-0.8,2.3-1.1,3.6-0.9l0.3-2.2l0,0c0,0,0,0,0,0
		c0.2-3-3.5-3.7-3.5-6.5l-3.9-4.2c0,0,0-0.1,0-0.1c0,0-0.1,0.1-0.1,0.1c-2.2-2.9-6.4-2.4-8.8-4.9l0-0.1c0,0,0,0,0,0c0,0,0,0-0.1,0
		c-6.3,0.1-12.6-1.1-18.6,1.6c-2.1,0.9-3.1,1.7-3.4,4.1c-1.3,11.1-2.9,22.1-4.3,33.1C232.7,273,234.5,271.8,237.7,263.5z"/>
	<path fill="#1F3B5C" d="M234,278.2c3.9-1.4,7.7-3.1,11.8-4.1s4.6-2.8,4.4-6.4c-0.2-3.6-1.1-5.3,1-7.6c0,0,0,0,0.1,0
		c0,0,0-0.1-0.1-0.1l1.1-7c-1.8-4.9-3.3-9.9-3.2-15.2c0,0,0.1,0,0.1,0c0,0,0,0,0,0c-1.6-1.7-3.9-0.5-5.7-1.3
		c-1.8-0.8-3.7-1.4-4.9,0.8s0.5,2.7,2,4.6c1.5,1.9,4.3,3.6,2.7,6.3c-2.9,4.8-3.7,10.2-5.6,15.3c-3.2,8.3-5,9.5-13.1,9.4l-0.8,2
		c0,0,0,0.1,0,0.1C226.8,280.9,226.8,280.9,234,278.2z"/>
	<path fill="#C2BAAF" d="M257.2,196c0.1,0,0.2-0.1,0.3-0.1c0,0-0.1,0-0.1,0l-1.1-8c0-0.1-0.1-0.2-0.1-0.3c0,0.1-0.1,0.1-0.1,0.2
		c-7.3,6.8-16.8,3.1-25.1,5c-3.5,0.8-3.3-1.5-2.1-3.8c-3.7-0.3-6.7,2.5-10.5,2.1c-1.5,1.6-3.6,1.5-5.2,2c-5.7,1.5-11.6,2.1-16.9,4.7
		c0,0,0,0-0.1,0c11.2,4,23.2,5.3,35,3.6c8.3-1.1,16.1-5.9,24.9-4.4c0.1,0,0.1,0,0.2,0L257.2,196z"/>
	<path fill="#2C67A8" d="M259.4,231.9c1.8-1,3.9-1.6,5.2,0.6c1.3,2.2-0.8,3.3-2.1,4.5c-0.8,0.7-1.7,1.4-2.6,2c0,0,0,0.1,0,0.1
		l3.9,4.2c5.4-4.6,11.1-8.4,18.7-8.3c2.7,0,5.2-0.2,7,2.5c1.8,2.7,2.8,1.7,4.6,1.5c0,0,0.1-0.1,0.1-0.1l1.1-1.9c0,0,0,0,0,0l-0.2,0
		c-3.4-4.8-7.6-7.9-13.8-7.2c0,0,0,0.1,0,0.1l-8.7,4.9c-1.3,0.7-2.7,1.8-3.9,0c-0.9-1.3-0.6-3,0.5-4.1l3.8-4.1c-0.7-3-3.6-3.8-5.1-6
		c4-2.9,5.8-6.5,5.3-11.2h0.1c-0.1-0.1-0.2-0.1-0.3-0.2h-1.8c-0.2,0.3-0.5,0.7-0.7,1c-5.9,7.8-14.3,13.5-18.7,22.5c0,0,0,0,0,0
		C254.4,233.4,257.1,233.1,259.4,231.9z"/>
	<path fill="#B69D68" d="M271.2,209.2h1.8c0.1,0.1,0.2,0.1,0.3,0.2h1.6c0-0.1,0.1-0.2,0.1-0.3c1.8-0.2,2.2-1.4,2.2-2.8
		c0,0-0.1-0.1-0.1-0.1c-1.5-1.1-1.2-2.4-0.1-3.4c5.5-4.8,3.9-11.8,6-17.7c-0.2-0.1-0.4-0.1-0.6-0.1c-1.7,0.3-3.3,1.2-4.4,2.6
		c-3.9,5.5-10.7,5-15.8,8.1c-1.2,0.7-3.1,0.2-4.7,0.2c-0.1,0-0.2,0.1-0.3,0.1l-0.9,1l-0.1,0.1l-0.1,0.1c0.1,2.5,1.3,3.6,3.9,4.9
		c0.1,0.1,0.2,0.1,0.3,0.1c0-0.1-0.1-0.2-0.1-0.3c1.7-0.7,3.4-1.3,5.2-1.7c1.6-0.3,3.9-1.2,4.6,1.4c0.7,2.6-1,3-2.6,3.7l-2.3,0.9
		c0,0,0,0-0.1,0c0,0,0,0.1,0,0.1c0.7,3.6,3.4,2.6,5.6,2.8c0.2,0,0.3,0,0.5,0.1H271.2z"/>
	<path fill="#4B667D" d="M218.6,291.2l0.4,2.4l0.1,0l3-0.5c0-0.1,0-0.1,0.1-0.2c0,0,0,0-0.1,0.1c0.4-6,2.1-7.9,7.5-9.2
		c4.7-1,9.3-2.5,13.7-4.5c4.5-2.2,8.5-0.9,11.7,3.5c0.1,0.1,0.2,0.1,0.2,0.2h3l0-0.1l-1.1-3.8c0,0,0-0.1,0-0.1
		c-4-3.5-2.3-8.8-3.9-13.1c-0.7-1.9-0.7-4-1.9-5.8c0,0,0,0-0.1,0c-2.1,2.3-1.2,4-1,7.6c0.2,3.6-0.3,5.4-4.4,6.4s-7.9,2.7-11.8,4.1
		c-7.2,2.7-7.2,2.7-10.2-3.2c0,0,0,0,0,0c-2.2,5.1-3.9,10.3-5.1,15.7C218.7,290.9,218.6,291,218.6,291.2
		C218.6,291.1,218.6,291.2,218.6,291.2z"/>
	<path fill="#123F96" d="M251,234.2c2.4,2.5,6.6,2,8.8,4.9c0,0,0.1-0.1,0.1-0.1c0.9-0.6,1.8-1.3,2.6-2c1.3-1.2,3.4-2.3,2.1-4.5
		c-1.3-2.2-3.4-1.6-5.2-0.6c-2.3,1.2-5,1.5-7.6,0.8c0,0-0.1,0-0.1,0l-0.6,1.3L251,234.2L251,234.2z"/>
	<path fill="#6F95B5" d="M140,286c-0.3,0.2-0.5,0.5-0.7,0.8c-0.7,1.2-0.4,2.7,0.8,3.4c3.4,1.8,6.5,1.1,9.2-2.4
		C146.2,285.5,143.4,283.7,140,286z"/>
	<path fill="#6C675D" d="M267.4,205.3c1.6-0.7,3.3-1.1,2.6-3.7c-0.7-2.6-3-1.7-4.6-1.4c-1.8,0.4-3.5,1-5.2,1.7
		c0,0.1,0.1,0.2,0.1,0.3c0.8,2,2.6,3.5,4.7,4c0,0,0,0,0.1,0L267.4,205.3z"/>
	<path fill="#C2BAAF" d="M172.6,128.2c-3.5,2-6.8,3.8-8.9,7.5C170,136.1,172.2,134.3,172.6,128.2z"/>
	<path fill="#A6ABA9" d="M269.4,78.9c2.8,0.1,3.8-1.4,3.6-4.5c-0.1-1,1.1-3.3-2-3.3c-3.1,0-4.2,2.7-4.7,4.9
		C265.8,78.2,266.6,78.8,269.4,78.9z"/>
	<path fill="#A6ABA9" d="M275,209.1c-0.1,0.1-0.1,0.2-0.1,0.3h0.2c0.1,0.3,0.1,0.8,0.4,0.9c5.4,2.5,5.6,6.7,2.9,11.6
		c1.5,0,2.3,1.2,3.4,1.9c3.8,2.3,7.5,3.8,10.6-0.9c7,3,4.1,8.8,4.8,13.6c0,0,0,0,0,0c3,1.6,1.9-1.3,2.5-2.4c0-0.1,0.1-0.1,0.1-0.2
		c0.1-0.1,0.2-0.1,0.3-0.2c0.2-0.4,0.5-0.8,0.8-1.2c5.8-5.1,14.5-5.5,19.7-11.7c0.3-0.2,0.8-0.1,1.3-0.1c0.1,0,0.1,0,0.2,0l-1-2.8
		c0,0-0.1,0-0.1,0c-2.7-1.2-5.7-2.2-7.3-4.6c-2.9-4.2-8.9-4.4-11.3-9.1c-0.1-0.3-0.9-0.4-1.4-0.3c-7.9,1.6-16.1-1.4-23.8,2
		c0,0.1,0,0.2,0,0.3C277.2,207.7,276.8,208.9,275,209.1z"/>
	<path fill="#AD7623" d="M294.6,177.1c-1.3-2.3-5.3,0.5-5.7-3.1c0,0,0-0.1,0-0.1c-4.9,1.5-10,2.6-13.3,7c-1.2,1.6-3.3,0.6-4.7,1.4
		c-0.2,0.2-0.4,0.5-0.6,0.7c-0.5,1.7,2.5,5.7-2.6,5.6c-1.4-3.2,1.8-6.6-0.5-9.7c-2.3-3.1-1.6-4-4.4-4.1c-2.8-0.1-2.7,2.5-3.6,4
		c-0.7,1.3-1.3,2.6-1.9,4c-0.1-0.1-0.1-0.1-0.2-0.2l0,0.3c-0.3,1.5,0,3.3-0.9,4.7c0,0.1,0.1,0.2,0.1,0.3l1.1,8c0,0,0.1,0,0.1,0
		c1.6,0,3.5,0.5,4.7-0.2c5.1-3.1,11.9-2.6,15.8-8.1c1.1-1.4,2.7-2.3,4.4-2.6c0.2,0,0.4-0.1,0.7-0.1c1.1-1,2.4-1.9,2.2-3.8
		s0.3-2.8,2.8-3.2c0,0,0,0,0,0c0,0-0.1-0.1-0.1-0.1C290,176.1,292.3,177.4,294.6,177.1z"/>
	<path fill="#C2BAAF" d="M319.3,167.8c-0.1,0.1-0.1,0.2-0.2,0.2h0c-0.1-0.1-0.2-0.1-0.3-0.2c0.1,0.1,0.2,0.2,0.3,0.3
		c1,1.2-1.3,3.2-3.1,2.9c-1.8-0.3-4.5,1.6-6.4,3.1c-0.3,1.4,0,3-1.4,4l-0.2,0c0,0,0,0.1,0,0.1c2.1,1.9,5.8,2,5.9,5.7
		c0,0,0,0.1,0,0.1c0,0,0.1,0,0.1,0c0,0,0.1,0.1,0.1,0.1l4.9,1.4c0,0.1-0.1,0.1-0.1,0.2c0.1,0,0.2,0,0.2-0.1c0.9,0,1.7,0.5,2.1,1.2
		h1.9c0,0,0.1,0.1,0.1,0.1c0,0,0,0,0,0c0.6-2-2-2.3-2.3-3.8c0,0,0-0.1,0-0.1c-2.6,0-2.6-2.9-3.1-3.7c0,0,0-0.1,0-0.1
		c0,0-0.1-0.1-0.1-0.1c-1.5,0-2.9-0.6-3.9-1.6c1.4-0.9,3.3-0.4,4.1,1c0.1,0.1,0.1,0.2,0.2,0.4L318,179c3.6,0.3,5.7-1.1,6-4.9
		c0,0,0,0,0.1-0.1c-1.1,0.3-1.7,1.9-3.5,1.5c-0.2-1.7,0.7-3.4,2.2-4.2c1.6,0.4,1.3,1.7,1.4,2.6c2.5-2.3,5.8-3.4,9.1-3
		c1.5,0.1,3.2,0.4,3.6-1.6c0,0,0-0.1,0-0.1c0-0.1,0-0.2,0-0.2c-5.7-0.4-11.7,1.3-17-1.8L319.3,167.8z"/>
	<path fill="#AB8B5B" d="M296.2,172.8L296.2,172.8L296.2,172.8c-2,2.8-5.1-1.3-7.2,1.1c0,0,0,0-0.1,0c0,0,0,0.1,0,0.1
		c0.4,3.6,4.4,0.8,5.7,3.1c-2.3,0.3-4.6-1-6.6,0.7c0,0,0.1,0.1,0.1,0.1c4.4,3.8,9.1,5.3,14.4,1.8c1.5-0.9,3.4-0.3,4.6-1.7
		C303.9,175.3,299.7,174.9,296.2,172.8z"/>
	<path fill="#C5A34A" d="M323.1,186.9C323.1,186.9,323.2,186.9,323.1,186.9C323.2,186.9,323.1,186.8,323.1,186.9l-1.9-0.1
		c0,0,0.1,0.1,0.1,0.1c-0.8,2.2,1.2,3.6,1.6,5.5c-1.8,2.1-4.7,2.1-6.8,3.6c0.1,0.8-0.3,1.5-0.9,2c3,2.8,7.6,3,10.9,0.6
		c3.5-2.4,1.8-6.2,0.9-9.5l0,0C325.4,189,323.7,188.8,323.1,186.9z"/>
	<path fill="#C5914C" d="M316.1,196c-0.8-0.3-1.5-0.7-2.2-1.1c-4.9-3.2-4.8-5,0.3-7.9c0,0,0.1-0.1,0.1-0.1c-0.1,0-0.2,0-0.2,0v-2.8
		l0,0c0,0-0.1-0.1-0.1-0.1c0,0-0.1,0-0.1,0c-0.1,0-0.2,0-0.2,0c-6.6,0.4-8.1,6.7-12.6,10.8l14,3.2c0,0,0,0,0.1,0
		C315.8,197.5,316.2,196.8,316.1,196z"/>
	<path fill="#4B667D" d="M309.6,174.1C309.6,174.2,309.5,174.2,309.6,174.1c-1.5-0.4-2.5-1.6-2.6-3.1l0-0.1c0,0-0.1,0.1-0.1,0.1
		c-4.2,0.4-7.8-3.3-12-1.8c0,0,0,0,0,0l1.3,3.6l0,0c3.5,2.1,7.7,2.5,10.9,5.2l0.9,0.1l0.2,0C309.6,177.1,309.3,175.5,309.6,174.1z"
		/>
	<path fill="#C2BAAF" d="M323.1,186.9c0.6,1.9,2.3,2.1,3.9,2.2l0,0l0.9-0.1l0.2,0c-1.6-1-2.8-2.7-4.9-2.1
		C323.2,186.9,323.2,186.9,323.1,186.9C323.2,186.9,323.1,186.9,323.1,186.9z"/>
	<path fill="#9A5F17" d="M256.9,179C256.9,179,256.8,179,256.9,179l0.2,3.6c0.1,0.1,0.1,0.1,0.2,0.2c0.6-1.4,1.2-2.7,1.9-4
		c0.9-1.5,0.8-4.1,3.6-4c2.8,0.1,2.1,1,4.4,4.1c2.3,3.1-0.9,6.5,0.5,9.7c5.2,0.1,2.2-3.9,2.6-5.6c0-0.2,0.1-0.3,0.3-0.4
		c0.1-0.1,0.2-0.2,0.3-0.3c1.4-0.9,3.5,0.1,4.7-1.4c3.4-4.4,8.5-5.5,13.3-7c0,0,0,0,0.1,0c2.1-2.4,5.2,1.7,7.2-1.1v0l-1.3-3.6
		c0,0,0,0,0,0c0,0-0.1,0-0.1,0l-1.5-0.3l-15.4,6.2l-0.9-1.5c3.3-5,8.2-8.8,13.9-10.6c0,0,0,0,0,0c0.3-1.4-0.1-2.9-1.1-4l0-0.7
		c-2.6-3.6-5.3-3.4-8,0.3c-1.2,1.5-3,2.6-3.5,4.6c-0.1,0.1-0.1,0.2-0.2,0.3c0.6,4.5-3.1,6.7-5.3,9.6c-2.2,2.9-2.6,0.4-3.7-0.7
		c-1.1-1.1-1.6-5.5-1.9-8.3c0.1,0,0.2,0,0.3,0c-0.1-0.1-0.1-0.1-0.2-0.2l-3.9-1l-0.2,0.2l-1.9,1.7c0,0.1-0.1,0.1-0.1,0.2
		C262,170.3,257.4,174,256.9,179z"/>
	<path fill="#2C67A8" d="M232.7,190.8c5.8-2.5,13-2.4,16.5-9c1.6-3,5.3-1.3,7.6-2.8l0,0.1c0,0,0.1,0,0.1-0.1c0.5-5,5.1-8.7,4.3-14
		c0,0,0,0,0,0c-11.3,6.8-20.9,15.9-31.2,23.9C230.1,190.6,231.3,191.4,232.7,190.8z"/>
	<path fill="#6F95B5" d="M231,192.8c8.3-1.9,17.8,1.8,25.1-5c0-0.1,0.1-0.1,0.1-0.2c0.9-1.5,0.6-3.2,0.9-4.7l0-0.3l-0.3-3.6l0-0.1
		c-2.3,1.5-6-0.2-7.6,2.8c-3.5,6.6-10.7,6.5-16.5,9c-1.4,0.6-2.6-0.2-2.7-1.9h-1.1c0,0,0,0.1,0,0.1
		C227.7,191.3,227.5,193.6,231,192.8z"/>
	<path fill="#123F96" d="M289.5,237.5c-1.8-2.7-4.3-2.5-7-2.5c-7.6-0.1-13.3,3.7-18.7,8.3c0,2.7,3.7,3.5,3.5,6.5c0,0,0,0,0,0.1
		c0,0.1,0,0.1,0,0.2l4.6,1.7c0.2-2.2,2.1-2.8,3.5-4c5.4-4.9,12.7-3.9,18.7-6.7v-0.1V239c0,0,0,0,0,0
		C292.3,239.2,291.3,240.2,289.5,237.5z"/>
	<path fill="#1E5EB0" d="M292,157c2.7,4.8,6.2,8.4,12.3,8.1c2-0.1,1.5,2.4,2.7,3.1c0,0,0,0,0,0c0,0,0.1,0,0.1,0c0,0,0-0.1,0-0.1
		c0.7-4,3.2-0.8,4.9-1.1c0,0,0,0.1,0,0.1c0,0,0,0,0,0l0.2-2.9c1.5-4.4-1.2-6.5-4.7-7.7c-2.5-0.9-5.1-1.4-7.7-1.5
		c-3.1-0.1-5.9-1.1-6.6-4.8c-2.5,0.2-3.5,1.8-4.2,3.9l1,2.1C290.7,156,291.5,156.3,292,157z"/>
	<path fill="#486D8E" d="M279.3,146.1L279.3,146.1c-1.1-1.4-1.6-3.2-1.3-5h0.2c0,0-0.1-0.1-0.1-0.1l-13,3c1.7,2.6,2.4,5.7,2,8.7v0.3
		v0.1c0,0,0,0,0,0c3.1-3.8,7.1-3,11.1-2.5c0,0,0,0,0,0C278.3,149,277.6,147.3,279.3,146.1z"/>
	<path fill="#163780" d="M289.8,159c1,1.1,1.4,2.6,1.1,4c0,0,0,0,0,0c0,0,0.1,0,0.1,0c1.3,1.8,2.4,3.6,2.3,5.9l0,0l1.5,0.3
		c0,0,0.1,0,0.1,0c4.3-1.5,7.8,2.2,12,1.8c0,0,0.1-0.1,0.1-0.1l0.2-1.7c0,0,0.1-0.1,0.1-0.1c0,0-0.1,0-0.1,0c0-0.3-0.1-0.5-0.1-0.8
		c0,0-0.1-0.1-0.1-0.1c0,0,0,0,0,0c-1.2-0.7-0.7-3.2-2.7-3.1c-6.1,0.3-9.6-3.3-12.3-8.1c-0.5-0.7-1.3-1-2-0.8c0,0,0,0-0.1,0
		l-0.1,2.1L289.8,159z"/>
	<path fill="#423220" d="M269.1,172.4c1.1,1.1,1.5,3.6,3.7,0.7c2.2-2.9,5.9-5.1,5.3-9.6c0,0,0,0,0,0c-3.4,3-7.1,0.2-10.6,0.6
		c-0.1,0-0.2,0-0.3,0C267.5,166.9,268,171.3,269.1,172.4z"/>
	<path fill="#486D8E" d="M283.2,141.2C283.2,141.2,283.2,141.1,283.2,141.2l-4.1-0.1c0,0,0,0.1,0,0.1l2.6,4.9
		c0.5,0.7,1.3,1.1,2.1,1.1c0.1,0,0.1-0.1,0.2-0.1h2C287.1,144.1,283.5,143.4,283.2,141.2z"/>
	<path fill="#133352" d="M281.7,146.1h-2.4c-1.7,1.2-1,2.9-1.1,4.5c0,0.1,0,0.1,0,0.2c2.6,0,5.1-0.4,5.8-3.6c-0.1,0-0.1,0-0.2,0
		C283,147.2,282.2,146.8,281.7,146.1z"/>
	<path fill="#6F95B5" d="M312,167.1C312,167.1,312,167.1,312,167.1c-0.5,3.2-3.1,1.4-4.7,2c0,0-0.1,0.1-0.1,0.1l-0.2,1.7l0,0.1
		c0.1,1.5,1.1,2.8,2.5,3.2c0,0,0.1,0,0.1-0.1c1.9-1.6,4.6-3.4,6.4-3.1c1.8,0.3,4.1-1.7,3.1-2.9c-0.1-0.1-0.2-0.2-0.3-0.3
		c-1.4-0.5-5.1,2.1-3.6-2.5l-3.1-1.1L312,167.1z"/>
	<path fill="#C2BAAF" d="M319.3,167.8l-0.2,0.2h0C319.2,168,319.3,167.9,319.3,167.8z"/>
	<path fill="#C2BAAF" d="M318.8,167.8c0.1,0,0.2,0.1,0.3,0.2v-1.1h0l0,0c0.9-1.1,0.9-2.8,0-3.9h0l-1.7,0.2l0,0l-2.1,2
		c0,0,0,0.1,0,0.1C313.7,169.9,317.4,167.3,318.8,167.8z"/>
	<path fill="#4B667D" d="M285.2,276.7c1.7-2.6,5.3-3.1,7.2-3.6s2.9-1.2,2.7-3.2c-1.3-0.1-2.4,1.4-3.9,0.3l0.9-2.2
		c-0.1,0-0.1,0-0.1,0c-1.9-0.1-2,0.9-4.4,2.6c-2.3,1.6-4.1,3.9-7,4.5c-0.2,0-0.4,0.1-0.5,0.1l-0.1,0l-2.7,0.8c0,0,0,0,0,0.1
		c-0.1,1.4,0.5,2,2.1,1.7l5.2-1L285.2,276.7L285.2,276.7z"/>
	<path fill="#6F95B5" d="M292.4,222.9c-3.1,4.7-6.8,3.2-10.6,0.9c-1.1-0.7-1.9-1.9-3.4-1.9c-0.4,0.3-0.9,0.6-1,1
		c-0.1,0.4-0.7,2.2-1,3.3c1.8,1.2,4.6,0.6,4.9,3.6c6.3-0.7,10.4,2.4,13.8,7.2l0.2,0l1.9-0.3c0-0.1,0-0.1,0-0.2
		C296.5,231.7,299.4,225.9,292.4,222.9z"/>
	<path fill="#A6ABA9" d="M330.5,260.8c-1.9,0-3.8,0.4-5.5,1.2c0,0,0,0-0.1,0l-0.1,2c0,0,0,0,0,0c3,1.7,6.2,0.9,9.3,1
		c0,0,0-0.1,0-0.1C334.5,262.2,333.6,260.6,330.5,260.8z"/>
	<polygon fill="#6F95B5" points="319.1,168 319.3,167.8 320,167.1 320,167.1 319.1,166.9 319.1,166.9 	"/>
	<path fill="#A6ABA9" d="M334.8,181.6c0.7,0.6,1.2-0.7,1.6-1.4c-0.6-1.3,1-2.6-0.4-4.3c-3.2,1.6-5.3-1.6-8.8-3c1.2,4.1-0.7,6.7-3,9
		c0,0,0,0,0,0C327.7,181,331.1,178.9,334.8,181.6z"/>
	<path fill="#2A6173" d="M265.1,144l-4.2,0.8c-1.5,0.2-3.2,0.2-3.5,2.1c-0.3,1.9,0,2.8,2.2,4.6c2.1,1.8,4.8,1.6,7.3,1.2
		c0.1,0,0.1,0,0.2,0C267.5,149.7,266.8,146.6,265.1,144z"/>
	<path fill="#1F3B5C" d="M279.2,146.1L279.2,146.1h2.5l-2.6-4.9l-0.1-0.1h-0.8H278C277.7,142.9,278.2,144.7,279.2,146.1z"/>
	<path fill="#667C8D" d="M263,250c-4.1-0.9-7.3,1.4-10.7,3l-1.1,7c0,0,0,0.1,0.1,0.1c1.2,1.8,1.2,3.9,1.9,5.8
		c1.6,4.3-0.2,9.6,3.9,13.1c0,0,0,0,0,0c2.2-8.6,3.1-17.6,6.3-26l0-0.1L263,250z"/>
	<path fill="#4B667D" d="M294.1,267c0-0.1-0.1-0.1-0.1-0.2c-0.3-0.6-0.6-0.8-0.9,0c0,0,0,0.1,0,0.1H294.1z"/>
	<path fill="#4B667D" d="M293.1,267c0,0-0.1,0-0.1,0c-0.4,0.1-0.8,0.4-0.8,0.8c0,0,0,0.1,0,0.1L293.1,267z"/>
	<path fill="#A6ABA9" d="M120.5,264.2c0.8-3.5,1.1-6.2-2.1-7.8c-0.3-0.2-0.6-0.2-0.9-0.3c-1.1-0.1-2.1,0.8-2.1,1.9
		C114.7,261.4,117,262.8,120.5,264.2z"/>
	<path fill="#667C8D" d="M243.3,279.3c-4.4,2-9,3.5-13.7,4.5c-5.4,1.3-7.1,3.2-7.5,9.2c0,0,0,0,0.1-0.1c4.1-3.9,10.3-2.9,14.6-6.2
		c2.8-2.1,6.2-2.2,9.5-1.2c3.3,1,6.5,0.8,8.7-2.6c0,0,0,0,0-0.1C251.8,278.4,247.8,277.1,243.3,279.3z"/>
	<path fill="#486D8E" d="M263,250c-0.8-6.3-7.1-11.9-13.8-12.2c0,0-0.1,0-0.1,0c-0.1,5.3,1.4,10.3,3.2,15.2
		C255.7,251.4,258.9,249.1,263,250z"/>
	<path fill="#477DA8" d="M276.4,226.2c0.3-1.1,0.9-2.9,1-3.3c0.1-0.4,0.6-0.7,1-1c2.7-4.9,2.5-9.1-2.9-11.6
		c-0.3-0.1-0.3-0.6-0.4-0.9h-0.2h-1.6h-0.1c0.5,4.7-1.3,8.3-5.3,11.2c1.5,2.2,4.4,3,5.1,6l-3.8,4.1c-1.1,1.1-1.4,2.8-0.5,4.1
		c1.2,1.8,2.6,0.7,3.9,0l8.7-4.9c0,0,0-0.1,0-0.1C281,226.8,278.2,227.4,276.4,226.2z"/>
	<path fill="#AD7623" d="M314.3,186.9c0,0-0.1,0.1-0.1,0.1c-5.1,2.9-5.2,4.7-0.3,7.9c0.7,0.4,1.4,0.8,2.2,1.1c2.1-1.5,5-1.5,6.8-3.6
		c-0.4-1.9-2.4-3.3-1.6-5.5c0,0-0.1-0.1-0.1-0.1c-0.5-0.7-1.3-1.2-2.1-1.2c-0.1,0-0.2,0-0.2,0.1C317.7,187.2,316,186.9,314.3,186.9z
		"/>
	<path fill="#A6ABA9" d="M324.2,174C324.2,174,324.2,174,324.2,174C324.2,174,324.2,174.1,324.2,174L324.2,174z"/>
	<path fill="#A6ABA9" d="M322.8,171.3c-1.5,0.8-2.4,2.5-2.2,4.2c1.7,0.5,2.4-1.1,3.5-1.5c0,0,0.1,0,0.1,0c0,0,0,0,0-0.1
		C324.1,173,324.4,171.7,322.8,171.3z"/>
	<path fill="#CBB386" d="M314.1,186.9c0.1,0,0.2,0,0.2,0c1.7,0,3.4,0.3,4.5-1.2c0-0.1,0.1-0.1,0.1-0.2l-4.9-1.4l0,0V186.9z"/>
	<path fill="#667C8D" d="M317.9,178.5c-0.9-1.4-2.7-1.9-4.1-1c1,1,2.5,1.6,3.9,1.6c0.1,0,0.1,0,0.2,0c0,0,0,0,0.1,0l0-0.1l0.1-0.1
		C318,178.8,318,178.7,317.9,178.5z"/>
	<path fill="#AD7623" d="M291,163c0,0-0.1,0-0.1,0c-5.7,1.8-10.6,5.5-13.9,10.6l0.9,1.5l15.4-6.2l0,0
		C293.4,166.6,292.3,164.8,291,163z"/>
	<path fill="#214390" d="M312,167.1c0,0,0-0.1,0-0.1c-1.7,0.3-4.2-2.9-4.9,1.1c0,0,0,0.1,0,0.1c0,0.1,0,0.1,0,0.2
		c0,0.3,0,0.5,0.1,0.8c0,0,0.1,0,0.1,0C308.9,168.5,311.5,170.3,312,167.1z"/>
</g>
</svg>
