<?xml version="1.0" encoding="UTF-8" standalone="no"?>
<svg
   xmlns:dc="http://purl.org/dc/elements/1.1/"
   xmlns:cc="http://creativecommons.org/ns#"
   xmlns:rdf="http://www.w3.org/1999/02/22-rdf-syntax-ns#"
   xmlns:svg="http://www.w3.org/2000/svg"
   xmlns="http://www.w3.org/2000/svg"
   xmlns:sodipodi="http://sodipodi.sourceforge.net/DTD/sodipodi-0.dtd"
   xmlns:inkscape="http://www.inkscape.org/namespaces/inkscape"
   version="1.0"
   width="850.000000pt"
   height="850.000000pt"
   viewBox="0 0 850.000000 850.000000"
   preserveAspectRatio="xMidYMid meet"
   id="svg2"
   inkscape:version="0.91 r13725"
   sodipodi:docname="IMG_1703.svg">
  <defs
     id="defs474" />
  <sodipodi:namedview
     pagecolor="#ffffff"
     bordercolor="#666666"
     borderopacity="1"
     objecttolerance="10"
     gridtolerance="10"
     guidetolerance="10"
     inkscape:pageopacity="0"
     inkscape:pageshadow="2"
     inkscape:window-width="1920"
     inkscape:window-height="980"
     id="namedview472"
     showgrid="false"
     inkscape:zoom="0.62824358"
     inkscape:cx="757.71997"
     inkscape:cy="615.51065"
     inkscape:window-x="0"
     inkscape:window-y="1"
     inkscape:window-maximized="1"
     inkscape:current-layer="svg2" />
  <metadata
     id="metadata4">
Created by potrace 1.14, written by Peter Selinger 2001-2017
<rdf:RDF>
  <cc:Work
     rdf:about="">
    <dc:format>image/svg+xml</dc:format>
    <dc:type
       rdf:resource="http://purl.org/dc/dcmitype/StillImage" />
  </cc:Work>
</rdf:RDF>
</metadata>
  <g
     transform="translate(0.000000,850.000000) scale(0.100000,-0.100000)"
     fill="#000000"
     stroke="none"
     id="g6">
    <path
       d="M0 4250 l0 -4250 1304 0 1304 0 -39 88 c-21 48 -39 92 -39 99 0 7 -26 38 -57 71 -139 141 -179 330 -108 513 5 14 -12 15 -151 13 -183 -3 -202 -7 -270 -45 -28 -16 -81 -36 -119 -44 -39 -9 -89 -30 -119 -50 -28 -19 -104 -69 -168 -112 -183 -122 -186 -124 -192 -106 -13 32 6 194 35 312 31 126 63 209 97 259 11 15 25 58 32 95 8 46 24 85 45 117 24 36 33 62 37 107 11 113 102 251 202 304 49 25 55 34 32 42 -8 3 -41 41 -75 85 -100 132 -170 173 -321 185 -41 4 -113 18 -160 32 -152 47 -330 44 -446 -5 -24 -11 -44 -15 -44 -10 0 19 108 125 194 188 171 128 312 201 451 233 50 12 133 32 186 45 53 13 109 24 125 24 39 1 101 30 178 84 81 59 141 85 191 86 42 1 75 16 143 65 41 29 42 31 42 90 0 41 8 79 26 120 75 175 85 206 95 312 13 142 24 183 70 253 43 66 72 90 118 93 26 2 31 6 31 28 0 24 -6 28 -57 43 -109 30 -160 86 -199 221 l-17 60 -12 -43 c-17 -55 -34 -81 -119 -176 -61 -67 -84 -85 -161 -122 -49 -25 -121 -67 -160 -94 -79 -55 -165 -91 -222 -93 -33 -1 -50 -12 -126 -78 -48 -43 -107 -87 -131 -98 -46 -23 -106 -27 -136 -11 -16 9 -26 4 -57 -31 -48 -53 -110 -99 -135 -99 -10 0 -50 -26 -88 -59 -60 -50 -277 -177 -287 -167 -2 1 4 20 13 42 24 57 53 230 64 385 12 163 27 210 85 269 l45 46 -16 48 c-12 36 -15 70 -12 135 7 110 40 184 116 259 60 59 59 68 -7 102 -53 26 -92 32 -144 20 -26 -5 -113 -15 -194 -20 -180 -13 -236 -26 -353 -85 -49 -25 -90 -43 -90 -40 0 4 31 43 69 88 37 45 94 118 126 162 70 97 145 176 205 217 25 17 72 57 105 88 33 31 80 64 105 74 34 13 53 28 73 61 42 66 128 148 185 174 34 16 57 35 73 63 33 56 89 118 105 118 21 0 18 4 -36 72 -27 34 -63 94 -80 134 -59 142 -50 258 28 372 25 37 52 84 59 105 12 35 11 44 -13 110 -47 130 -49 148 -25 194 11 23 45 67 73 98 43 45 66 60 118 78 l66 23 -28 38 c-16 23 -30 58 -34 87 -6 44 -9 49 -38 55 -79 17 -178 94 -235 182 -16 26 -44 85 -62 132 -27 71 -42 94 -89 140 -34 32 -94 74 -146 102 -141 74 -141 73 -17 75 60 0 191 3 293 5 184 3 211 0 303 -37 15 -6 17 0 17 57 0 90 -21 143 -95 234 -69 86 -71 112 -8 77 51 -28 130 -50 233 -63 100 -14 153 -35 208 -84 81 -74 109 -217 69 -361 -9 -32 -14 -61 -12 -63 2 -2 16 5 32 15 35 25 88 43 123 43 15 0 55 18 90 41 l63 40 -31 32 c-17 18 -38 49 -46 69 -19 45 -20 132 -2 173 8 19 10 38 5 53 -5 13 -9 42 -9 65 -5 322 8 679 23 674 6 -2 15 -16 20 -33 21 -62 171 -268 229 -313 13 -10 43 -28 68 -41 25 -12 59 -32 75 -45 17 -12 54 -27 83 -34 75 -16 114 -34 160 -75 l40 -36 11 75 c18 120 47 162 183 264 57 43 89 83 103 131 4 14 15 34 25 45 10 11 21 31 25 45 15 61 85 133 252 262 34 26 80 72 103 102 22 31 44 56 49 56 4 0 7 -48 7 -107 0 -104 1 -113 48 -243 26 -74 67 -189 89 -256 35 -101 46 -123 68 -133 29 -13 53 -54 69 -116 5 -23 23 -54 40 -70 30 -29 31 -29 59 -12 16 9 36 17 43 17 8 0 29 18 47 41 19 22 47 49 63 59 l30 18 -24 22 c-13 12 -55 46 -93 76 -39 29 -81 71 -93 93 -28 49 -29 71 -3 47 43 -39 84 -44 198 -24 114 19 230 26 278 14 29 -6 30 -5 29 26 -1 18 -2 40 -2 49 -1 9 -24 44 -52 78 -27 34 -50 66 -50 71 0 5 -3 17 -7 27 -5 14 1 12 25 -9 33 -27 51 -33 152 -42 126 -12 226 -73 267 -162 13 -30 27 -79 30 -109 6 -53 7 -56 47 -74 23 -10 65 -39 94 -65 30 -25 55 -46 57 -46 11 0 75 35 75 40 0 4 -19 20 -43 37 -76 55 -184 162 -223 220 -78 117 -102 239 -69 349 14 49 86 170 112 189 8 6 23 30 33 53 l19 42 -2409 0 -2410 0 0 -4250z"
       id="path8"
       style="fill:none" />
    <path
       d="M4845 8476 c-39 -59 -46 -157 -17 -234 22 -58 72 -134 72 -110 0 35 31 255 44 311 l13 57 -48 0 c-40 0 -51 -4 -64 -24z"
       id="path10"
       style="fill:#009933" />
    <path
       d="M4981 8463 c-21 -77 -53 -313 -43 -313 12 0 110 167 125 212 8 23 18 64 21 91 l7 47 -50 0 c-50 0 -50 0 -60 -37z"
       id="path12"
       style="fill:#009933" />
    <path
       d="M5120 8480 c0 -10 6 -23 14 -27 17 -10 36 -47 36 -71 0 -10 18 -42 40 -71 21 -30 49 -77 61 -106 l22 -54 44 44 c87 87 226 128 306 90 36 -17 37 -17 119 18 106 45 137 53 285 71 67 9 163 27 213 42 118 33 134 23 63 -40 -62 -56 -100 -128 -147 -277 -19 -64 -49 -149 -66 -190 -17 -41 -32 -95 -33 -121 -2 -30 -12 -59 -29 -85 -17 -25 -28 -58 -32 -97 -14 -129 -80 -212 -239 -301 -115 -64 -136 -100 -100 -168 10 -18 20 -56 23 -86 l5 -53 55 -21 c72 -26 172 -124 191 -185 7 -23 13 -42 14 -42 2 0 19 7 38 15 66 27 185 15 238 -24 22 -17 43 -21 101 -21 87 0 133 -12 182 -45 20 -14 51 -25 69 -25 62 -1 115 -37 260 -177 95 -93 153 -142 175 -148 19 -6 33 -14 33 -20 -2 -14 -43 -24 -156 -34 -68 -7 -132 -21 -200 -45 -55 -18 -162 -55 -237 -82 l-138 -47 49 -33 c129 -87 197 -235 141 -307 l-20 -25 22 -39 c12 -21 34 -53 50 -71 57 -67 90 -155 103 -277 12 -111 27 -170 56 -222 35 -64 20 -71 -38 -17 -78 74 -173 105 -373 123 -63 6 -140 18 -170 27 -30 9 -73 18 -95 20 -66 8 -80 13 -110 35 -24 19 -40 22 -129 23 -94 1 -106 3 -144 29 -55 36 -97 95 -179 250 -36 70 -72 132 -79 138 -18 15 -77 -29 -68 -51 19 -45 34 -120 32 -155 -2 -36 0 -40 27 -45 45 -10 86 -34 121 -72 50 -54 194 -310 194 -345 0 -41 63 -122 126 -159 32 -20 4 -38 -39 -26 l-35 10 29 -45 c15 -25 36 -79 45 -120 9 -41 21 -76 28 -78 6 -1 30 -8 54 -14 58 -16 136 -92 151 -146 15 -56 14 -151 -3 -215 -8 -30 -42 -112 -75 -182 -66 -138 -131 -291 -131 -307 0 -5 26 2 58 16 74 34 198 43 256 19 46 -19 56 -15 56 27 0 96 54 175 155 229 142 76 157 82 225 82 45 0 80 -7 113 -22 l47 -21 47 21 c87 38 213 14 310 -59 31 -24 32 -24 82 -7 61 19 139 13 197 -17 27 -13 59 -19 105 -19 89 0 201 -30 318 -86 74 -35 117 -49 191 -60 130 -19 188 -33 193 -47 3 -9 -22 -12 -87 -13 -54 0 -113 -7 -146 -17 -59 -18 -266 -129 -315 -170 -38 -31 -81 -53 -124 -62 -31 -7 -37 -15 -86 -119 -28 -61 -64 -125 -78 -142 l-27 -31 48 -7 c62 -8 140 -45 190 -91 48 -43 92 -125 92 -171 0 -26 11 -44 53 -86 57 -58 110 -147 221 -373 74 -149 75 -150 191 -265 64 -63 131 -133 148 -154 l31 -39 -29 18 c-17 11 -49 36 -72 57 -103 92 -202 137 -372 167 -84 15 -117 18 -143 10 -18 -6 -98 -12 -178 -14 -133 -2 -152 -5 -232 -34 -106 -38 -150 -39 -213 -5 l-48 25 16 -23 c37 -51 78 -125 90 -163 7 -23 12 -92 12 -160 -1 -126 -17 -201 -56 -256 -15 -22 -18 -38 -13 -90 3 -35 1 -143 -4 -239 -9 -168 -12 -181 -55 -316 -79 -242 -84 -331 -26 -447 l31 -62 -118 115 c-70 67 -167 148 -234 194 -317 219 -403 291 -470 395 -19 29 -46 59 -61 67 -42 21 -89 64 -114 103 -19 30 -33 39 -86 54 -79 23 -149 67 -180 112 -13 19 -27 35 -30 35 -3 0 -9 -35 -13 -77 -10 -112 -32 -211 -72 -322 -40 -112 -75 -160 -137 -189 -26 -12 -69 -49 -106 -91 -67 -76 -147 -130 -239 -163 -99 -35 -262 -23 -364 28 l-48 23 -24 -24 c-26 -26 -97 -41 -147 -31 -58 11 -140 60 -190 113 -57 60 -88 123 -128 262 -22 75 -31 95 -44 93 -28 -5 -73 25 -125 83 l-49 56 -5 -98 c-6 -116 -27 -175 -92 -267 l-46 -64 2 -143 c4 -270 -34 -351 -237 -505 -98 -75 -98 -75 -125 -148 -14 -35 -38 -74 -62 -98 -22 -22 -44 -53 -48 -69 l-9 -29 2530 0 2529 0 0 4250 0 4250 -1690 0 c-1669 0 -1690 0 -1690 -20z"
       id="path14"
       style="fill:none" />
    <path
       d="M5110 8416 c0 -40 -42 -129 -108 -229 -43 -64 -72 -120 -72 -135 0 -14 2 -23 4 -21 51 58 137 167 164 207 42 63 57 157 28 181 -14 11 -16 11 -16 -3z"
       id="path16"
       style="fill:#00cc00" />
    <path
       d="M6209 8349 c-133 -72 -410 -302 -522 -434 -98 -114 -227 -316 -227 -353 0 -6 11 0 25 14 36 36 117 70 210 89 143 28 241 67 305 122 43 35 87 131 150 325 35 106 63 171 90 211 21 31 36 57 32 57 -4 0 -32 -14 -63 -31z"
       id="path18"
       style="fill:#006600" />
    <path
       d="M4752 8330 c-41 -85 -21 -141 79 -230 76 -68 89 -62 33 15 -51 71 -76 131 -84 200 l-6 60 -22 -45z"
       id="path20"
       style="fill:#00cc00" />
    <path
       d="M5976 8334 c-224 -30 -329 -137 -343 -349 l-6 -80 98 98 c99 99 252 229 359 305 l59 42 -34 -1 c-19 -1 -79 -7 -133 -15z"
       id="path22"
       style="fill:#006600" />
    <path
       d="M5146 8263 c-17 -38 -37 -66 -147 -200 -31 -37 -59 -76 -62 -85 -5 -15 10 -148 18 -156 2 -2 27 21 57 50 29 29 81 75 115 100 75 57 114 112 120 170 4 36 -1 52 -29 97 -18 30 -38 56 -44 58 -6 2 -18 -13 -28 -34z"
       id="path24"
       style="fill:#009933" />
    <path
       d="M3419 8264 c-8 -10 -45 -42 -84 -72 -178 -140 -220 -198 -219 -307 0 -86 19 -146 92 -294 l57 -115 8 90 c24 279 68 493 131 629 36 78 41 100 15 69z"
       id="path26"
       style="fill:#339900" />
    <path
       d="M5474 8250 c-53 -21 -136 -86 -155 -122 -6 -11 -13 -55 -16 -97 -5 -96 -17 -140 -55 -216 -25 -50 -29 -68 -25 -107 8 -60 19 -81 64 -115 29 -22 46 -28 90 -28 55 0 55 0 71 40 8 22 33 70 54 107 36 61 38 69 30 105 -19 74 -23 131 -12 197 13 81 39 139 87 195 19 23 33 45 29 48 -16 17 -113 12 -162 -7z"
       id="path28"
       style="fill:#006600" />
    <path
       d="M3432 8182 c-87 -194 -143 -566 -128 -852 9 -180 18 -280 25 -280 3 0 17 21 31 48 13 26 72 94 130 152 112 113 139 155 160 254 20 100 -2 200 -108 476 -22 58 -48 141 -57 185 -9 44 -17 81 -19 82 -2 2 -17 -27 -34 -65z"
       id="path30"
       style="fill:#339900" />
    <path
       d="M4680 8201 c-26 -109 10 -238 98 -353 41 -55 200 -192 187 -162 -10 22 -47 171 -65 257 -12 60 -26 79 -127 169 -26 23 -48 55 -61 89 l-19 52 -13 -52z"
       id="path32"
       style="fill:#009933" />
    <path
       d="M5641 8205 c-68 -58 -110 -205 -91 -320 11 -69 16 -75 35 -49 10 13 14 45 15 104 0 98 20 186 56 248 14 23 23 42 20 42 -2 0 -18 -11 -35 -25z"
       id="path34"
       style="fill:#003300" />
    <path
       d="M5240 8044 c-14 -21 -50 -58 -80 -82 -160 -126 -204 -180 -181 -220 9 -14 10 -15 11 -1 0 25 65 93 133 142 74 53 134 116 143 151 11 44 -1 49 -26 10z"
       id="path36"
       style="fill:#00cc00" />
    <path
       d="M4430 7928 l75 -73 5 40 5 40 22 -71 c13 -39 31 -78 42 -88 18 -16 19 -16 27 11 7 26 9 24 14 -22 5 -48 6 -50 35 -50 29 0 30 2 27 40 -9 135 -110 224 -272 241 l-55 6 75 -74z"
       id="path38"
       style="fill:#336600" />
    <path
       d="M5251 7953 c0 -6 -43 -43 -95 -82 -112 -84 -144 -122 -152 -183 -8 -60 5 -66 58 -30 108 75 211 227 195 289 -3 10 -5 13 -6 6z"
       id="path40"
       style="fill:#009933" />
    <path
       d="M4385 7863 c1 -44 8 -67 27 -94 13 -21 31 -52 38 -70 7 -19 14 -35 15 -37 2 -1 24 9 50 23 26 14 54 25 62 25 23 0 4 19 -45 45 -39 20 -43 24 -22 25 22 0 17 7 -45 70 -38 39 -72 70 -75 70 -4 0 -6 -26 -5 -57z"
       id="path42"
       style="fill:#336600" />
    <path
       d="M3061 7837 c-27 -94 4 -186 128 -373 39 -59 71 -112 71 -117 0 -6 3 -8 6 -4 10 9 -36 135 -77 211 -47 88 -87 192 -103 271 l-12 60 -13 -48z"
       id="path44"
       style="fill:#336600" />
    <path
       d="M2120 7837 c-2 -52 253 -579 292 -603 7 -5 9 26 6 88 -3 86 -8 104 -40 169 -20 41 -77 124 -126 186 -49 61 -99 124 -110 140 -12 15 -22 24 -22 20z"
       id="path46"
       style="fill:#00ff33" />
    <path
       d="M2082 7615 c3 -202 5 -223 25 -260 30 -56 67 -88 148 -128 83 -41 147 -68 151 -64 1 1 -25 50 -58 107 -77 132 -175 338 -219 455 -18 50 -37 95 -42 100 -5 6 -7 -81 -5 -210z"
       id="path48"
       style="fill:#00ff33" />
    <path
       d="M4048 7781 c-54 -10 -101 -20 -104 -24 -3 -3 14 -11 37 -17 53 -13 187 -49 211 -56 14 -4 16 0 11 32 -8 49 9 38 27 -17 8 -22 19 -43 24 -44 6 -2 50 -6 97 -9 l87 -5 -11 35 c-6 20 -28 55 -48 77 l-37 42 -98 2 c-59 1 -138 -5 -196 -16z"
       id="path50"
       style="fill:#336600" />
    <path
       d="M6024 7769 c-38 -43 -170 -98 -303 -128 -126 -29 -178 -48 -213 -79 -42 -36 -11 -43 35 -8 43 32 111 52 239 70 58 8 127 25 152 37 48 22 116 89 116 114 0 20 -3 19 -26 -6z"
       id="path52"
       style="fill:#003300" />
    <path
       d="M2938 7716 c-42 -34 -86 -73 -98 -88 -32 -41 -50 -104 -50 -173 0 -70 18 -121 80 -225 21 -36 45 -90 54 -120 18 -65 94 -163 182 -235 55 -45 123 -85 143 -85 20 0 68 58 60 72 -5 7 -9 45 -9 83 0 104 -18 241 -40 315 -12 42 -48 109 -100 190 -98 152 -117 191 -133 267 l-12 59 -77 -60z"
       id="path54"
       style="fill:#339900" />
    <path
       d="M5127 7675 l-49 -45 67 0 c60 0 66 2 60 18 -3 9 -9 29 -12 45 -3 15 -8 27 -12 27 -3 -1 -28 -21 -54 -45z"
       id="path56"
       style="fill:#00cc00" />
    <path
       d="M4040 7655 l45 -45 60 19 c35 11 54 22 45 25 -21 7 -177 46 -187 46 -4 0 12 -20 37 -45z"
       id="path58"
       style="fill:#336600" />
    <path
       d="M4545 7667 c-16 -8 -43 -25 -60 -39 -16 -14 -47 -28 -67 -32 -25 -4 -58 -24 -94 -56 -60 -53 -99 -66 -161 -56 -21 3 -63 8 -94 12 -105 12 -128 -30 -57 -103 l43 -44 -33 12 c-30 10 -82 60 -82 80 0 30 -81 -25 -106 -72 -9 -19 -14 -49 -12 -81 3 -49 6 -53 47 -75 1 -1 -9 -27 -24 -57 -68 -139 -32 -257 95 -315 25 -11 60 -21 79 -21 33 0 33 0 27 38 -23 157 -25 190 -15 240 6 30 9 55 7 56 -1 1 -15 10 -30 19 -14 9 -36 30 -48 48 l-23 31 50 -36 c28 -20 54 -36 58 -36 4 0 32 23 62 50 41 38 70 55 113 67 40 11 62 23 70 38 14 27 90 70 140 80 19 4 43 14 52 22 9 8 36 17 60 20 24 3 63 15 88 26 50 24 150 29 187 9 19 -11 25 -8 47 20 l25 33 -47 42 c-26 23 -67 52 -92 65 -55 27 -160 35 -205 15z"
       id="path60"
       style="fill:#990099" />
    <path
       d="M5965 7641 c-19 -17 -111 -40 -203 -51 -96 -11 -169 -31 -209 -57 l-23 -16 36 -35 c44 -42 70 -98 79 -169 l7 -53 31 24 c18 13 59 38 93 55 93 49 159 112 182 174 35 95 39 158 7 128z"
       id="path62"
       style="fill:#006600" />
    <path
       d="M3690 7579 c0 -141 -35 -210 -177 -354 -130 -132 -173 -206 -173 -300 0 -77 18 -68 45 22 35 113 89 196 240 369 77 88 101 128 115 187 11 52 -1 99 -33 126 -16 12 -17 8 -17 -50z"
       id="path64"
       style="fill:#336600" />
    <path
       d="M4191 7609 c-47 -9 -182 -70 -166 -74 41 -12 187 -27 206 -21 13 3 49 29 79 56 l55 50 -65 -1 c-36 -1 -85 -5 -109 -10z"
       id="path66"
       style="fill:#336600" />
    <path
       d="M5017 7580 c-58 -18 -148 -82 -146 -103 0 -7 20 -29 43 -49 42 -37 42 -37 82 -23 21 8 59 14 84 15 42 0 46 2 62 38 l17 37 -6 -41 c-4 -35 -2 -42 15 -46 15 -4 21 0 25 21 3 14 13 35 21 46 14 19 15 18 6 -15 -15 -53 -13 -58 30 -80 54 -28 115 -83 152 -139 17 -25 56 -69 86 -97 53 -48 57 -55 58 -100 2 -59 13 -104 25 -104 14 0 39 57 39 90 0 41 -28 93 -86 160 -54 63 -88 133 -103 213 -12 67 -36 116 -59 123 -9 3 -50 21 -90 40 -85 40 -161 45 -255 14z"
       id="path68"
       style="fill:#990099" />
    <path
       d="M2370 7575 c0 -3 12 -23 26 -44 42 -64 54 -122 54 -261 0 -89 4 -132 13 -144 12 -16 15 -1 26 110 19 187 -3 282 -72 324 -32 20 -47 25 -47 15z"
       id="path70"
       style="fill:#00cc66" />
    <path
       d="M5423 7503 c8 -15 21 -61 30 -100 20 -90 43 -135 103 -204 87 -101 107 -195 55 -268 -26 -36 -15 -42 17 -8 46 49 54 124 21 197 -12 26 -27 92 -35 155 -11 91 -19 117 -42 150 -27 39 -94 87 -140 100 -23 7 -23 6 -9 -22z"
       id="path72"
       style="fill:#990099" />
    <path
       d="M2517 7468 c10 -55 10 -192 -1 -289 l-8 -76 53 -13 c30 -7 71 -21 91 -31 45 -23 48 -23 48 -3 0 9 11 47 24 83 51 142 44 214 -29 286 -32 33 -60 49 -110 64 -37 12 -69 21 -72 21 -3 0 -1 -19 4 -42z"
       id="path74"
       style="fill:#00ff33" />
    <path
       d="M3741 7423 c-17 -32 -69 -101 -116 -153 -128 -142 -199 -256 -219 -347 l-7 -31 41 10 c49 13 148 -4 199 -33 l34 -20 25 31 c14 18 39 40 55 51 29 17 30 20 28 81 -2 46 4 81 20 122 21 58 21 60 3 90 -24 41 -22 115 4 160 l21 35 -29 31 -29 31 -30 -58z"
       id="path76"
       style="fill:#339900" />
    <path
       d="M4650 7466 l-35 -13 30 -16 c38 -19 78 -62 100 -107 16 -33 14 -32 -34 18 -60 61 -103 83 -163 81 -27 -1 -33 -3 -18 -6 115 -20 178 -70 205 -163 4 -16 -6 -6 -29 26 -51 75 -92 97 -191 102 -68 4 -89 1 -132 -18 -28 -12 -59 -30 -68 -40 -15 -16 -13 -18 23 -24 53 -8 102 -43 137 -99 27 -42 34 -47 67 -47 l37 0 -20 35 c-12 19 -19 35 -16 35 4 0 32 -22 64 -48 70 -58 94 -72 126 -72 31 0 73 47 82 92 14 68 19 76 25 38 5 -26 8 -31 13 -17 22 55 20 53 24 30 8 -44 30 -25 36 30 3 28 8 59 12 68 9 24 -42 78 -100 105 -56 26 -120 30 -175 10z"
       id="path78"
       style="fill:#990066" />
    <path
       d="M5000 7372 c-57 -28 -76 -95 -47 -165 24 -57 148 -159 219 -181 9 -3 26 -23 38 -45 28 -56 82 -91 141 -91 35 0 56 -7 87 -30 23 -17 47 -39 54 -50 7 -11 16 -20 19 -20 12 0 29 62 29 104 0 74 -32 112 -174 208 -71 48 -134 93 -140 99 -20 21 192 -92 238 -127 25 -19 48 -34 51 -34 19 0 -14 51 -57 89 -27 24 -67 70 -89 102 -84 125 -265 194 -369 141z"
       id="path80"
       style="fill:#990066" />
    <path
       d="M2084 7288 c9 -47 34 -77 98 -121 57 -38 219 -89 234 -74 14 14 -20 35 -131 83 -85 37 -121 59 -159 97 l-49 49 7 -34z"
       id="path82"
       style="fill:#00cc66" />
    <path
       d="M1385 7291 c11 -13 60 -50 108 -83 94 -65 148 -120 208 -211 l37 -57 7 40 c10 60 21 40 28 -49 7 -109 20 -129 36 -56 47 211 -32 357 -210 386 -88 15 -190 36 -214 45 l-20 7 20 -22z"
       id="path84"
       style="fill:#336600" />
    <path
       d="M2791 7271 c-1 -18 -15 -74 -32 -124 -20 -60 -28 -100 -23 -117 4 -17 8 -20 11 -10 3 8 21 49 39 91 37 83 41 117 19 164 l-13 30 -1 -34z"
       id="path86"
       style="fill:#00cc66" />
    <path
       d="M4195 7257 c-86 -41 -130 -99 -142 -184 l-6 -48 51 47 c29 25 67 51 84 57 18 6 28 8 23 3 -6 -4 -31 -25 -57 -45 -61 -49 -90 -96 -86 -142 l3 -35 35 46 c19 25 51 56 70 67 l35 21 -42 -46 c-80 -89 -107 -185 -74 -266 12 -29 31 -44 31 -24 0 5 14 29 31 55 57 87 185 123 271 77 29 -15 43 -18 63 -10 15 6 44 10 65 10 34 0 41 4 46 25 4 18 -1 33 -20 56 -19 22 -26 42 -26 73 0 34 -9 58 -42 109 -24 36 -52 80 -63 98 -33 53 -68 73 -138 76 -50 3 -72 -1 -112 -20z"
       id="path88"
       style="fill:#990066" />
    <path
       d="M1442 7183 c6 -16 14 -78 18 -139 9 -130 24 -167 98 -236 59 -56 117 -86 177 -95 43 -5 45 -5 45 20 0 42 -38 131 -68 159 -15 14 -49 40 -77 57 -42 27 -45 30 -20 25 17 -4 38 -11 48 -16 30 -15 30 -3 2 40 -17 26 -44 49 -73 63 -43 21 -45 23 -23 28 22 6 18 11 -51 64 -41 31 -77 57 -81 57 -4 0 -1 -12 5 -27z"
       id="path90"
       style="fill:#336600" />
    <path
       d="M2076 7177 c-18 -67 3 -149 51 -199 l25 -26 79 54 c44 30 84 54 90 54 6 0 7 5 4 10 -3 6 -12 10 -20 10 -32 0 -123 42 -172 79 -49 38 -51 38 -57 18z"
       id="path92"
       style="fill:#00ff33" />
    <path
       d="M2850 7188 c0 -9 -16 -46 -35 -82 -38 -72 -44 -116 -18 -137 9 -8 34 -36 55 -62 48 -61 51 -54 46 100 -3 97 -8 125 -25 158 -12 22 -22 32 -23 23z"
       id="path94"
       style="fill:#00ff33" />
    <path
       d="M4848 7161 c-39 -39 -39 -40 -22 -65 21 -33 29 -33 44 3 6 16 22 39 36 52 13 12 24 28 24 36 0 26 -43 12 -82 -26z"
       id="path96"
       style="fill:#990000" />
    <path
       d="M4916 7119 c-27 -31 -34 -73 -15 -84 19 -12 58 5 79 36 l22 30 -23 25 c-29 31 -32 30 -63 -7z"
       id="path98"
       style="fill:#990000" />
    <path
       d="M4558 7133 c-36 -6 -35 -15 5 -53 38 -36 58 -42 117 -38 55 4 62 23 15 42 -20 9 -48 25 -62 36 -14 11 -31 19 -37 19 -6 -1 -23 -4 -38 -6z"
       id="path100"
       style="fill:#990000" />
    <path
       d="M4767 7083 c-4 -3 -7 -26 -7 -49 0 -35 5 -47 24 -60 33 -21 70 -15 74 13 2 14 -10 36 -34 62 -37 41 -45 46 -57 34z"
       id="path102"
       style="fill:#990000" />
    <path
       d="M2395 7057 c-22 -8 -59 -24 -83 -36 -49 -25 -224 -152 -218 -158 2 -2 48 13 102 33 65 25 121 39 164 42 60 4 71 1 135 -33 117 -63 138 -72 194 -85 101 -24 158 -107 170 -250 l7 -75 19 35 c16 27 20 53 19 120 0 121 -27 185 -113 271 -119 118 -281 174 -396 136z"
       id="path104"
       style="fill:#ff9933" />
    <path
       d="M5010 7051 c0 -34 12 -51 35 -51 20 0 54 26 44 33 -25 18 -60 37 -69 37 -5 0 -10 -9 -10 -19z"
       id="path106"
       style="fill:#990000" />
    <path
       d="M4580 6985 c0 -41 33 -68 77 -63 24 3 28 8 28 33 0 31 -19 45 -77 59 -26 6 -28 4 -28 -29z"
       id="path108"
       style="fill:#990000" />
    <path
       d="M4955 7010 c-3 -5 -19 -10 -34 -10 -24 0 -30 -5 -36 -32 -11 -49 -12 -108 -3 -115 5 -2 20 7 34 22 21 23 30 26 62 21 20 -3 44 -6 52 -5 8 0 29 0 46 0 l31 1 -23 23 c-13 13 -24 31 -24 40 0 9 -9 15 -24 15 -14 0 -33 11 -44 25 -22 27 -28 30 -37 15z"
       id="path110"
       style="fill:#990000" />
    <path
       d="M970 6999 c-41 -5 -79 -10 -84 -12 -6 -2 46 -22 115 -46 68 -23 161 -62 207 -86 45 -24 82 -42 82 -41 0 2 -7 20 -16 41 -27 66 -9 61 30 -7 30 -54 53 -80 117 -128 l79 -60 0 37 c1 35 3 33 33 -42 30 -74 34 -80 61 -80 35 0 47 30 39 95 -5 34 -13 46 -55 77 -60 43 -124 122 -133 161 -6 31 -52 60 -130 82 -55 15 -254 21 -345 9z"
       id="path112"
       style="fill:#999900" />
    <path
       d="M4714 6955 c1 -30 5 -55 10 -55 5 0 29 -9 53 -21 36 -17 46 -19 59 -8 20 17 14 53 -11 57 -44 7 -75 26 -87 53 -7 16 -15 29 -18 29 -4 0 -6 -25 -6 -55z"
       id="path114"
       style="fill:#990000" />
    <path
       d="M5105 6990 c-15 -17 -16 -24 -7 -45 6 -14 19 -25 27 -25 14 0 51 15 63 25 2 2 -4 17 -13 34 -18 36 -44 40 -70 11z"
       id="path116"
       style="fill:#990000" />
    <path
       d="M2936 6954 c-10 -78 26 -118 168 -189 101 -51 111 -53 126 -26 8 16 5 21 -20 30 -60 20 -170 111 -237 194 l-30 38 -7 -47z"
       id="path118"
       style="fill:#336600" />
    <path
       d="M5690 6959 c0 -25 -46 -73 -87 -91 -23 -10 -43 -26 -43 -34 0 -8 -7 -28 -15 -44 -13 -25 -13 -33 0 -64 l15 -35 57 29 c94 46 128 46 41 -1 -42 -22 -78 -46 -81 -52 -2 -7 -2 -29 1 -49 4 -38 4 -38 51 -38 53 0 133 -20 176 -43 39 -21 36 -21 -80 4 -112 23 -145 20 -145 -14 0 -20 5 -22 58 -23 31 0 73 -8 92 -16 35 -15 34 -15 -53 -14 l-89 1 -22 -76 c-12 -43 -30 -89 -40 -104 -9 -14 -16 -30 -14 -34 2 -5 35 0 73 10 92 24 100 23 42 -7 -27 -14 -72 -28 -100 -31 -29 -3 -64 -13 -78 -23 -14 -10 -46 -24 -70 -30 -85 -23 -86 -25 -27 -80 69 -64 98 -76 138 -60 31 13 135 135 126 148 -2 4 21 4 52 -2 74 -12 118 -3 175 35 65 43 102 119 93 191 -4 28 -13 66 -21 84 -11 28 -11 38 3 76 9 24 16 75 16 118 1 64 -3 82 -26 121 -33 56 -97 115 -152 140 -47 21 -66 24 -66 8z"
       id="path120"
       style="fill:#990066" />
    <path
       d="M1010 6862 c37 -37 63 -76 75 -107 66 -184 145 -278 272 -328 l43 -17 13 33 c16 36 71 94 99 103 24 7 23 16 -9 46 -38 36 -73 48 -166 55 -99 8 -79 26 24 21 38 -2 69 -1 69 2 0 3 -35 29 -77 57 -59 39 -94 55 -142 64 -61 12 -62 12 -35 24 28 11 28 12 -51 44 -86 36 -153 61 -164 61 -4 0 18 -26 49 -58z"
       id="path122"
       style="fill:#999900" />
    <path
       d="M2320 6910 c-19 -5 -69 -23 -110 -40 -51 -21 -104 -34 -165 -41 -114 -12 -166 -31 -205 -75 -40 -46 -39 -83 8 -164 l37 -65 60 0 c70 0 91 -13 154 -92 22 -28 53 -55 70 -61 28 -10 32 -8 65 29 34 37 36 43 37 112 1 69 1 71 14 42 8 -16 15 -46 15 -65 l2 -35 19 40 c14 30 19 34 19 18 0 -12 -4 -33 -10 -47 -9 -25 -8 -26 31 -26 47 0 114 -31 130 -61 11 -21 11 -21 37 4 40 39 118 69 190 75 59 4 66 8 83 36 28 45 26 147 -4 205 -29 57 -57 77 -139 99 -37 11 -97 37 -135 60 -55 33 -139 64 -163 61 -3 -1 -21 -5 -40 -9z"
       id="path124"
       style="fill:#ff9900" />
    <path
       d="M3736 6878 c-51 -60 -62 -108 -41 -178 26 -86 28 -114 11 -148 -28 -55 -21 -79 41 -137 l57 -52 6 -97 c4 -55 12 -102 19 -109 7 -7 50 -14 100 -17 82 -5 91 -8 140 -44 48 -36 56 -38 105 -34 62 5 145 43 201 91 l39 34 -29 17 c-17 9 -46 37 -65 62 -19 25 -50 60 -67 77 -18 17 -33 38 -33 47 0 8 -13 27 -28 40 -16 14 -33 34 -39 44 -10 19 -12 19 -49 1 -42 -20 -130 -45 -154 -44 -8 0 26 16 75 35 50 19 93 38 97 42 6 6 -8 109 -17 129 0 1 -20 -5 -44 -13 -27 -9 -57 -12 -79 -8 -43 8 -117 43 -152 73 -19 16 -9 13 45 -12 57 -26 82 -32 137 -32 82 0 99 12 70 50 -12 15 -24 42 -28 60 -5 30 -9 33 -52 37 -64 6 -119 34 -169 85 -22 24 -46 43 -51 43 -6 0 -27 -19 -46 -42z"
       id="path126"
       style="fill:#990099" />
    <path
       d="M5165 6894 c-21 -22 -17 -31 28 -57 l38 -22 19 25 c26 33 25 37 -10 55 -37 19 -55 19 -75 -1z"
       id="path128"
       style="fill:#990000" />
    <path
       d="M4630 6881 c0 -5 -3 -16 -6 -25 -4 -11 4 -16 33 -21 21 -3 56 -13 78 -21 52 -18 55 -18 55 6 0 22 -21 35 -88 56 -55 16 -72 17 -72 5z"
       id="path130"
       style="fill:#990000" />
    <path
       d="M3381 6849 c-43 -22 -72 -44 -94 -76 -18 -25 -49 -63 -69 -85 -21 -22 -38 -44 -38 -49 0 -5 -19 -18 -42 -30 -52 -26 -98 -60 -98 -71 0 -4 13 -8 30 -8 56 0 129 -22 168 -50 40 -29 112 -151 112 -190 0 -9 12 -22 27 -29 15 -7 43 -25 63 -41 33 -26 37 -27 48 -12 10 14 11 11 7 -18 l-6 -35 20 25 c22 27 28 21 10 -12 -8 -14 -7 -32 3 -65 10 -36 20 -48 47 -59 18 -8 46 -14 61 -14 35 0 88 -36 117 -79 58 -86 71 -254 29 -373 l-24 -67 37 15 c64 26 144 88 173 134 59 93 68 208 23 307 -20 46 -26 72 -22 98 l6 35 -73 0 c-133 0 -229 38 -298 120 -55 63 -65 113 -45 224 9 50 20 116 23 146 3 30 13 81 21 113 40 149 -66 221 -216 146z"
       id="path132"
       style="fill:#ff9900" />
    <path
       d="M4936 6851 c-36 -40 34 -86 86 -57 15 9 14 13 -9 43 -29 37 -52 42 -77 14z"
       id="path134"
       style="fill:#990000" />
    <path
       d="M5050 6851 c0 -25 15 -36 81 -55 31 -9 62 -23 69 -31 16 -19 30 -19 30 0 0 15 -144 105 -167 105 -7 0 -13 -8 -13 -19z"
       id="path136"
       style="fill:#990000" />
    <path
       d="M5293 6845 c-28 -20 -47 -87 -39 -137 3 -20 17 -54 31 -74 39 -57 30 -61 -24 -11 -52 48 -86 63 -123 53 -47 -12 -54 -22 -40 -59 17 -46 15 -112 -4 -148 -12 -24 -13 -37 -5 -61 15 -44 14 -114 -4 -147 -17 -35 -93 -85 -166 -110 l-54 -19 37 -16 c46 -20 108 -21 151 -2 38 16 70 49 126 130 23 33 41 54 41 47 0 -24 -53 -117 -88 -153 -43 -45 -31 -49 25 -9 34 25 82 87 121 156 9 16 11 17 12 4 0 -28 -27 -84 -66 -135 -37 -48 -37 -48 -8 -30 40 26 116 87 131 106 7 8 31 70 54 138 22 68 43 121 45 119 7 -7 -26 -156 -47 -211 l-19 -51 24 30 c14 16 35 55 47 87 12 32 24 58 26 58 10 0 -10 -87 -29 -123 -15 -31 -16 -37 -4 -30 30 17 67 79 88 146 16 55 19 87 16 165 -5 118 -35 188 -109 257 -40 37 -55 45 -86 45 -21 0 -48 -7 -60 -15z"
       id="path138"
       style="fill:#990066" />
    <path
       d="M2918 6823 c-2 -10 2 -40 10 -66 15 -51 13 -185 -3 -221 -8 -18 -5 -19 35 -13 24 3 47 13 52 21 15 27 51 57 98 81 25 13 51 33 58 44 12 20 8 23 -60 55 -40 18 -96 52 -125 74 -29 23 -54 42 -57 42 -2 0 -6 -8 -8 -17z"
       id="path140"
       style="fill:#ff9933" />
    <path
       d="M4264 6819 c-35 -10 -99 -75 -114 -115 -6 -14 -10 -49 -9 -77 l0 -52 20 53 c12 29 22 52 24 50 2 -2 -1 -35 -7 -73 -20 -140 23 -186 186 -193 71 -4 86 -7 66 -14 -14 -5 -60 -10 -103 -10 -64 0 -75 -3 -66 -14 13 -16 72 -34 112 -34 16 0 26 -4 22 -10 -3 -5 -25 -10 -48 -10 l-42 -1 28 -24 c23 -20 39 -25 83 -25 57 0 172 33 246 71 59 30 57 16 -3 -20 -75 -47 -144 -71 -218 -78 -65 -6 -65 -7 -36 -19 46 -20 144 -17 210 6 32 11 60 18 63 16 2 -3 -20 -18 -49 -35 l-53 -30 30 -12 c51 -20 154 -22 237 -5 89 18 149 45 195 89 27 26 32 38 32 77 0 26 -5 61 -11 79 -9 25 -8 40 5 71 36 90 13 143 -79 180 l-55 22 -35 -31 c-37 -32 -75 -54 -122 -71 l-28 -10 30 22 c92 70 109 84 113 96 6 19 -35 14 -50 -6 -19 -26 -67 -59 -113 -77 l-40 -16 30 23 c16 13 48 37 70 54 22 16 40 37 40 45 0 22 -89 76 -145 88 -28 6 -81 11 -119 11 -84 0 -148 -29 -232 -107 -32 -31 -59 -51 -59 -46 0 23 54 82 103 113 31 19 56 38 57 41 1 19 -111 24 -166 8z"
       id="path142"
       style="fill:#990066" />
    <path
       d="M4821 6803 c-12 -25 -10 -30 14 -50 14 -13 35 -23 46 -23 28 0 28 75 0 90 -31 16 -47 12 -60 -17z"
       id="path144"
       style="fill:#990000" />
    <path
       d="M5040 6770 c-13 -9 -12 -12 4 -25 11 -8 29 -15 41 -15 12 0 44 -7 70 -15 59 -17 69 -11 32 20 -42 37 -117 55 -147 35z"
       id="path146"
       style="fill:#990000" />
    <path
       d="M3633 6728 c-7 -18 -17 -69 -23 -113 -6 -44 -18 -121 -27 -172 -20 -110 -11 -153 43 -213 56 -62 189 -119 168 -72 -4 9 -10 56 -13 104 l-6 88 -58 56 c-57 53 -59 57 -54 97 2 23 10 56 17 74 12 27 11 39 -4 90 -32 101 -30 98 -43 61z"
       id="path148"
       style="fill:#ff9933" />
    <path
       d="M4932 6748 c-19 -19 -14 -35 12 -42 13 -3 31 -9 40 -12 17 -6 22 19 10 50 -7 19 -45 21 -62 4z"
       id="path150"
       style="fill:#990000" />
    <path
       d="M6004 6736 c-28 -12 -32 -19 -37 -70 -3 -30 -16 -74 -28 -96 -22 -38 -22 -41 -5 -58 16 -16 18 -16 28 3 25 47 110 116 187 152 44 21 81 41 81 44 1 29 -175 49 -226 25z"
       id="path152"
       style="fill:#009933" />
    <path
       d="M5027 6696 c-4 -10 2 -20 15 -27 17 -9 24 -7 41 10 16 16 18 21 7 21 -8 0 -25 3 -36 6 -14 4 -23 0 -27 -10z"
       id="path154"
       style="fill:#990000" />
    <path
       d="M1665 6672 c3 -17 2 -46 -3 -66 -10 -33 -9 -35 21 -45 16 -6 31 -10 32 -9 19 36 38 58 50 58 20 0 27 15 20 43 -5 20 -15 26 -48 30 -23 2 -50 8 -61 12 -16 7 -17 4 -11 -23z"
       id="path156"
       style="fill:none" />
    <path
       d="M6220 6667 c-81 -27 -156 -75 -209 -132 -43 -47 -57 -81 -47 -119 l6 -24 47 18 c27 10 83 23 126 30 75 12 80 15 136 70 55 53 183 130 217 130 27 0 13 18 -26 34 -59 23 -170 20 -250 -7z"
       id="path158"
       style="fill:#009933" />
    <path
       d="M6458 6596 c-59 -24 -137 -77 -177 -120 l-24 -26 31 0 c21 0 50 13 81 36 28 19 75 44 106 55 60 21 171 29 219 16 27 -8 28 -7 15 9 -45 54 -158 68 -251 30z"
       id="path160"
       style="fill:#00cc00" />
    <path
       d="M1760 6570 c-11 -11 -20 -29 -20 -40 0 -24 1 -24 -43 -5 -42 18 -114 20 -154 4 -34 -13 -80 -55 -99 -91 -28 -53 -10 -144 38 -195 27 -29 38 -29 38 1 0 34 40 88 80 109 26 13 49 17 87 13 49 -4 52 -3 58 22 9 38 41 78 80 102 l35 21 -20 40 c-23 44 -49 50 -80 19z"
       id="path162"
       style="fill:#ff9933" />
    <path
       d="M6543 6530 c-46 -10 -124 -42 -163 -67 -24 -16 -22 -17 75 -38 55 -13 167 -44 248 -69 110 -34 165 -46 211 -46 l63 0 -86 84 c-125 121 -228 161 -348 136z"
       id="path164"
       style="fill:#009933" />
    <path
       d="M1875 6486 c-49 -21 -92 -69 -105 -114 l-11 -42 -62 5 c-89 8 -140 -26 -156 -106 -6 -28 -12 -34 -44 -41 -48 -10 -92 -43 -108 -80 -15 -37 -3 -81 57 -200 47 -93 53 -128 30 -183 -15 -36 -42 -55 -76 -55 -30 0 -34 -23 -16 -77 21 -62 21 -116 -2 -136 -10 -9 -38 -19 -62 -23 -61 -9 -87 -35 -100 -101 -13 -58 -3 -129 25 -183 16 -31 35 -40 35 -17 0 35 92 87 152 87 44 -1 115 -34 158 -74 19 -18 54 -38 77 -45 30 -8 62 -32 115 -84 74 -75 119 -97 194 -97 l28 0 -34 35 c-18 19 -53 41 -76 49 -66 22 -128 70 -163 124 -54 85 -85 248 -62 329 7 25 4 41 -18 84 -26 53 -26 57 -26 264 l0 210 29 57 c69 136 229 248 404 283 38 8 40 20 9 66 -48 71 -121 96 -192 65z"
       id="path166"
       style="fill:#ff9900" />
    <path
       d="M2923 6485 c-61 -17 -144 -57 -191 -92 -49 -37 -65 -76 -57 -139 3 -30 10 -56 15 -59 4 -3 20 11 34 30 27 35 73 65 98 65 7 0 -6 -17 -30 -36 -79 -66 -102 -148 -58 -201 13 -15 32 -49 44 -75 26 -60 49 -72 122 -63 68 8 71 5 73 -68 3 -58 22 -97 62 -123 38 -25 55 -12 55 43 1 110 103 232 196 233 12 0 38 16 58 35 l38 35 -36 15 c-69 29 -154 17 -290 -40 -46 -20 -2 14 59 45 103 52 201 52 278 -2 35 -25 86 -40 103 -30 21 12 -41 108 -94 149 -61 47 -168 77 -242 70 -99 -11 -211 -67 -299 -151 -42 -40 -43 -40 -27 -10 23 46 90 100 182 146 71 35 91 40 155 41 41 1 92 -2 113 -6 l39 -8 -7 31 c-10 52 -71 126 -124 151 -59 29 -192 36 -269 14z"
       id="path168"
       style="fill:#ff6600" />
    <path
       d="M2631 6413 c-61 -22 -136 -97 -151 -151 -16 -61 -5 -99 36 -125 29 -19 34 -28 34 -62 1 -81 38 -112 99 -81 16 9 41 16 55 16 l25 0 -24 36 c-16 23 -25 51 -25 75 0 55 -18 91 -43 83 -18 -6 -19 -5 -4 16 8 12 13 30 10 41 -6 23 -6 23 -44 4 -29 -15 -29 -15 -17 4 6 11 23 26 36 33 13 7 32 29 43 49 10 21 30 47 45 58 l27 21 -29 -1 c-16 0 -49 -8 -73 -16z"
       id="path170"
       style="fill:#ff6633" />
    <path
       d="M6225 6413 c34 -34 169 -126 215 -147 78 -36 153 -51 182 -35 21 11 19 13 -37 29 -68 18 -96 32 -210 100 -71 43 -178 80 -150 53z"
       id="path172"
       style="fill:#00cc00" />
    <path
       d="M2278 6388 c-21 -12 -38 -24 -38 -27 1 -4 19 -15 42 -26 53 -25 78 -59 85 -116 4 -24 17 -61 31 -81 34 -53 40 -117 14 -160 -11 -18 -22 -53 -24 -78 -3 -45 -2 -45 31 -48 30 -3 40 3 86 53 l52 56 -18 37 c-11 20 -19 50 -19 67 0 23 -8 37 -30 53 -49 37 -56 108 -19 199 15 37 6 53 -45 77 -47 22 -104 20 -148 -6z"
       id="path174"
       style="fill:#ff6633" />
    <path
       d="M6071 6398 l-35 -10 39 -21 c21 -12 73 -62 115 -112 42 -49 90 -98 107 -108 30 -17 32 -17 127 13 52 17 98 35 101 39 2 5 -11 12 -30 15 -49 10 -137 58 -212 117 -98 77 -137 89 -212 67z"
       id="path176"
       style="fill:#009933" />
    <path
       d="M6364 6402 c13 -22 217 -114 274 -124 62 -10 152 -4 152 11 0 14 -373 121 -421 121 -6 0 -8 -4 -5 -8z"
       id="path178"
       style="fill:#00cc00" />
    <path
       d="M5970 6366 c0 -3 18 -23 41 -43 23 -21 58 -63 80 -94 60 -90 122 -132 166 -114 16 6 17 7 2 15 -9 5 -49 50 -90 100 -40 50 -87 99 -103 109 -32 19 -96 37 -96 27z"
       id="path180"
       style="fill:#00cc00" />
    <path
       d="M2105 6334 c-105 -21 -137 -30 -180 -49 -63 -28 -162 -103 -195 -146 l-24 -34 44 36 c60 49 136 86 212 104 93 22 103 17 23 -10 -218 -76 -345 -201 -345 -342 0 -29 5 -53 10 -53 6 0 10 4 10 9 0 21 103 120 145 140 66 31 66 26 -1 -23 -64 -48 -89 -77 -124 -146 -32 -60 -40 -201 -16 -248 19 -37 32 -40 41 -11 4 11 20 36 37 55 23 26 29 40 24 59 -8 33 23 106 61 141 33 31 119 74 148 74 13 0 1 -11 -32 -29 -99 -54 -153 -115 -153 -172 0 -25 4 -27 53 -32 28 -3 62 -8 74 -12 21 -7 22 -5 13 24 -11 38 3 92 30 116 19 18 68 18 127 0 22 -7 30 -1 103 83 13 15 27 21 42 18 110 -22 134 -15 124 37 -9 50 -77 120 -156 162 -82 44 -48 47 38 4 35 -17 78 -50 101 -75 39 -44 40 -45 51 -23 32 58 -12 155 -95 209 -27 18 -33 26 -21 28 9 2 28 -3 41 -12 33 -22 35 -21 24 17 -20 74 -130 121 -234 101z"
       id="path182"
       style="fill:#ff6600" />
    <path
       d="M5965 6266 c0 -49 5 -71 21 -93 25 -34 74 -60 134 -69 l45 -7 -43 49 c-23 27 -63 78 -89 113 -27 36 -53 66 -58 68 -6 2 -10 -23 -10 -61z"
       id="path184"
       style="fill:#009933" />
    <path
       d="M5902 6229 c-12 -15 -47 -40 -77 -55 -49 -23 -63 -26 -115 -20 -67 8 -75 3 -144 -88 -64 -85 -135 -81 -228 11 -45 45 -60 55 -70 45 -16 -16 36 -70 101 -106 201 -109 449 -38 535 154 32 72 31 99 -2 59z"
       id="path186"
       style="fill:#990099" />
    <path
       d="M4407 6140 l-45 -40 15 -39 c14 -36 14 -44 -1 -87 -13 -38 -14 -54 -4 -85 10 -35 9 -41 -16 -73 -14 -19 -26 -39 -26 -44 0 -13 42 -49 67 -56 12 -4 41 -27 65 -52 42 -44 86 -64 141 -64 16 0 88 28 160 62 110 51 143 62 201 66 64 5 70 7 85 36 9 16 28 43 44 59 26 27 31 28 90 24 34 -3 79 -9 100 -12 31 -6 43 -3 71 19 19 14 43 26 54 26 21 0 72 36 72 51 0 5 -8 12 -17 15 -73 25 -153 71 -189 110 l-41 44 -36 -15 c-20 -8 -50 -15 -67 -15 l-31 0 32 -47 c27 -40 29 -45 9 -28 -13 11 -35 32 -48 48 -20 23 -31 27 -78 27 l-54 0 0 -107 c0 -58 -3 -103 -7 -99 -4 3 -9 51 -12 106 -3 55 -10 101 -16 103 -5 1 -21 -29 -36 -68 -22 -56 -28 -64 -28 -40 0 17 6 48 14 70 19 53 20 51 -17 73 -27 15 -44 18 -91 13 -57 -6 -59 -7 -72 -44 -11 -33 -62 -117 -71 -117 -1 0 10 29 27 65 33 72 36 95 14 95 -10 0 -15 -10 -15 -28 0 -35 -75 -140 -183 -257 -29 -31 41 83 92 151 34 45 63 94 66 110 6 27 3 31 -54 57 -82 37 -109 35 -164 -13z"
       id="path188"
       style="fill:#990099" />
    <path
       d="M5925 6137 c-24 -54 -98 -127 -158 -156 -27 -13 -45 -27 -40 -31 4 -4 44 -19 88 -34 44 -16 113 -43 153 -62 69 -31 78 -33 151 -27 106 8 239 -12 307 -47 48 -24 57 -26 70 -13 30 30 11 121 -40 188 -13 17 -57 54 -98 82 l-74 51 -74 -10 c-100 -15 -178 6 -231 62 l-36 38 -18 -41z"
       id="path190"
       style="fill:#006600" />
    <path
       d="M1308 6097 c-92 -91 -101 -131 -56 -236 47 -111 43 -151 -30 -258 -67 -98 -87 -216 -53 -306 8 -21 9 -21 15 8 25 113 54 155 107 155 15 0 40 5 54 10 24 9 27 15 23 48 -3 20 -11 59 -19 85 -17 59 -8 77 48 95 76 25 82 83 19 203 -56 107 -72 167 -57 210 6 18 9 34 7 36 -2 3 -28 -20 -58 -50z"
       id="path192"
       style="fill:#ff9933" />
    <path
       d="M4001 6077 c-17 -17 -14 -39 16 -103 22 -48 27 -72 25 -129 0 -38 -8 -92 -16 -120 -8 -27 -14 -51 -12 -53 9 -8 77 95 97 146 24 65 44 174 36 195 -3 8 -18 18 -34 21 -15 4 -44 18 -64 31 -27 17 -39 21 -48 12z"
       id="path194"
       style="fill:#ff9933" />
    <path
       d="M4290 6042 c-42 -41 -43 -44 -37 -95 3 -28 15 -74 27 -101 l21 -50 21 22 c18 17 22 35 24 89 1 38 5 84 9 103 4 24 2 41 -8 55 -14 19 -16 18 -57 -23z"
       id="path196"
       style="fill:#990033" />
    <path
       d="M3360 6010 c-11 -11 -20 -24 -20 -30 0 -5 -13 -10 -30 -10 -100 0 -190 -101 -190 -213 0 -36 -6 -48 -36 -78 -42 -40 -64 -79 -64 -112 0 -19 10 -28 55 -46 30 -13 66 -37 80 -53 l26 -31 27 25 c28 26 103 55 157 60 29 3 31 1 63 -87 l32 -90 -5 97 c-4 53 -17 148 -30 210 -39 187 -38 178 -15 130 51 -105 86 -320 77 -472 l-6 -95 39 44 c49 54 85 128 107 223 l18 73 5 -55 5 -55 33 35 c48 52 74 129 80 236 6 118 -13 188 -67 244 -45 48 -64 52 -55 13 l7 -28 -34 31 c-66 62 -124 75 -67 17 63 -67 99 -171 82 -239 -6 -25 -9 -20 -21 41 -27 134 -111 235 -194 235 -26 0 -46 -7 -59 -20z"
       id="path198"
       style="fill:#ff6600" />
    <path
       d="M4175 5968 c-12 -115 -51 -211 -117 -290 l-39 -48 53 0 c30 0 78 -7 108 -15 30 -8 116 -28 190 -44 161 -34 281 -67 449 -123 153 -50 181 -49 380 17 124 42 142 51 147 72 6 22 -11 125 -23 146 -3 4 -23 -9 -45 -29 -51 -46 -115 -74 -181 -81 -47 -4 -62 0 -145 41 -51 25 -98 46 -104 46 -6 0 -50 -19 -97 -42 -138 -66 -227 -62 -298 13 -21 22 -61 53 -90 69 -82 47 -152 163 -161 267 -2 35 -8 63 -12 63 -5 0 -11 -28 -15 -62z"
       id="path200"
       style="fill:#66cc33" />
    <path
       d="M2633 5959 c-34 -16 -43 -25 -43 -45 0 -33 47 -57 61 -31 6 9 18 17 27 17 18 1 64 64 54 74 -11 11 -57 4 -99 -15z"
       id="path202"
       style="fill:#ff9900" />
    <path
       d="M5578 5932 c-45 -3 -48 -5 -48 -30 0 -36 -32 -86 -69 -108 -30 -18 -30 -18 -12 -43 10 -14 35 -60 56 -101 55 -112 139 -232 180 -259 30 -20 53 -26 121 -29 46 -3 84 -1 84 3 0 4 -11 39 -24 78 -14 40 -36 115 -51 167 -33 120 -65 190 -117 258 -49 63 -58 68 -120 64z"
       id="path204"
       style="fill:#006600" />
    <path
       d="M2737 5923 c-12 -12 -8 -83 6 -88 6 -2 30 -6 52 -10 39 -7 72 -35 151 -128 34 -40 77 -50 88 -21 4 9 5 18 4 18 -67 40 -104 103 -95 163 l6 33 -62 -6 c-58 -6 -65 -4 -94 20 -32 27 -45 31 -56 19z"
       id="path206"
       style="fill:#ff9900" />
    <path
       d="M5720 5884 c55 -60 91 -139 140 -314 47 -164 75 -220 122 -243 42 -21 48 -13 16 21 -40 42 -64 99 -113 264 -55 191 -97 276 -145 300 -59 29 -65 20 -20 -28z"
       id="path208"
       style="fill:#003300" />
    <path
       d="M2516 5876 c-29 -36 -46 -47 -77 -52 -36 -6 -39 -8 -25 -22 9 -9 34 -16 63 -16 39 -1 56 5 92 31 36 27 40 34 26 39 -9 4 -23 20 -29 36 l-13 29 -37 -45z"
       id="path210"
       style="fill:#ff9900" />
    <path
       d="M5471 5876 c-6 -7 -25 -16 -42 -20 -16 -3 -46 -18 -65 -32 -30 -24 -40 -26 -82 -19 -26 4 -74 8 -107 9 l-60 1 -26 -49 c-32 -59 -37 -62 -116 -69 -34 -3 -67 -8 -73 -12 -7 -4 20 -23 67 -47 67 -33 85 -38 125 -34 71 7 126 36 197 102 35 32 93 77 129 99 36 22 69 50 73 63 9 25 -2 30 -20 8z"
       id="path212"
       style="fill:#990033" />
    <path
       d="M2666 5859 c-8 -12 -28 -30 -45 -40 -33 -20 -33 -44 0 -54 23 -8 86 14 93 32 5 12 -20 83 -29 83 -2 0 -11 -10 -19 -21z"
       id="path214"
       style="fill:#ff9900" />
    <path
       d="M5840 5828 c15 -29 45 -107 65 -173 80 -263 99 -296 197 -344 54 -27 84 -33 213 -47 137 -14 219 -29 269 -50 25 -10 25 -9 -95 151 -112 151 -250 288 -372 369 -84 56 -227 128 -279 141 l-27 7 29 -54z"
       id="path216"
       style="fill:#006600" />
    <path
       d="M2201 5838 c-61 -76 -69 -82 -102 -79 -111 9 -123 7 -137 -22 -10 -22 -11 -35 -2 -62 6 -19 15 -35 18 -35 4 0 31 9 60 20 99 38 135 26 182 -58 12 -22 33 -46 45 -52 20 -11 28 -9 54 9 42 30 49 64 23 109 -11 21 -23 59 -27 86 -8 49 -33 86 -59 86 -8 0 -21 3 -29 6 -8 3 -20 -1 -26 -8z"
       id="path218"
       style="fill:#ff9900" />
    <path
       d="M2327 5844 c-3 -3 -2 -18 3 -32 5 -15 11 -43 14 -63 7 -41 41 -82 64 -77 28 5 25 45 -6 90 -16 24 -32 53 -36 66 -7 21 -26 29 -39 16z"
       id="path220"
       style="fill:#ff9900" />
    <path
       d="M2742 5788 c-7 -7 -12 -29 -12 -50 0 -21 -7 -55 -15 -75 -19 -46 -20 -45 14 -25 26 14 36 15 76 4 79 -21 139 -55 155 -87 8 -16 16 -32 18 -34 1 -3 8 1 14 7 10 10 -3 27 -55 77 -75 72 -76 83 -2 31 44 -32 65 -37 65 -18 0 4 -16 16 -35 26 -19 10 -46 36 -61 58 -58 83 -128 120 -162 86z"
       id="path222"
       style="fill:#ff9900" />
    <path
       d="M6113 5776 c24 -19 45 -24 125 -29 87 -6 169 -22 227 -43 19 -7 20 -7 2 13 -42 48 -176 83 -312 83 l-70 -1 28 -23z"
       id="path224"
       style="fill:#003300" />
    <path
       d="M2530 5764 c-19 -7 -48 -11 -63 -8 -26 6 -28 4 -18 -14 24 -46 1 -102 -42 -102 -10 0 -17 -8 -17 -17 0 -10 -9 -32 -19 -50 l-20 -31 45 -4 c42 -3 49 0 90 39 24 24 44 52 44 63 0 29 18 61 47 85 24 20 24 21 6 36 -15 13 -23 13 -53 3z"
       id="path226"
       style="fill:#ff9900" />
    <path
       d="M2670 5741 c-8 -5 -32 -16 -53 -27 -34 -16 -76 -68 -64 -80 2 -2 32 -1 66 2 67 8 77 16 82 73 4 36 -5 45 -31 32z"
       id="path228"
       style="fill:#ff9900" />
    <path
       d="M6235 5688 c87 -68 205 -200 310 -345 60 -83 111 -150 113 -149 9 9 -29 249 -48 297 -24 66 -85 139 -144 174 -38 22 -183 55 -245 55 -25 0 -24 -1 14 -32z"
       id="path230"
       style="fill:#006600" />
    <path
       d="M2066 5640 c-40 -13 -113 -85 -142 -142 -13 -27 -26 -48 -28 -48 -15 0 24 101 51 132 13 15 10 18 -40 34 -153 48 -217 -57 -148 -244 19 -53 25 -79 16 -72 -18 15 -65 113 -65 135 0 10 -5 13 -11 9 -17 -10 -5 -135 20 -214 11 -36 35 -83 53 -104 28 -35 111 -96 129 -96 4 0 -4 26 -17 58 -38 92 -27 104 18 19 39 -74 120 -177 139 -177 5 0 9 13 9 28 0 19 -11 39 -34 61 -68 66 -107 201 -88 301 8 44 8 44 15 -38 4 -46 16 -106 27 -134 19 -50 67 -128 79 -128 3 1 18 19 34 41 15 21 43 47 63 56 35 17 36 18 30 68 -3 27 -2 56 3 63 5 9 11 -7 15 -47 6 -51 9 -59 24 -54 32 11 42 25 58 84 23 82 67 130 151 165 37 15 72 31 76 34 12 10 -29 56 -61 69 -16 7 -53 11 -83 9 -46 -3 -54 -6 -55 -23 -2 -55 -5 -66 -14 -60 -5 3 -10 20 -10 37 0 21 -10 39 -32 60 -18 17 -46 51 -63 77 -32 50 -60 59 -119 41z"
       id="path232"
       style="fill:#ff6600" />
    <path
       d="M2730 5613 c0 -5 7 -17 15 -27 27 -36 18 -52 -12 -24 -60 55 -109 62 -188 24 -79 -36 -84 -48 -41 -96 20 -22 36 -45 36 -50 0 -6 7 -10 15 -10 11 0 15 11 15 43 0 31 3 38 10 27 5 -8 10 -27 10 -41 0 -24 16 -39 41 -39 5 0 28 17 51 38 23 20 39 30 36 21 -5 -13 4 -19 45 -27 49 -10 54 -9 78 15 16 14 44 27 68 30 46 6 50 18 21 55 -31 40 -201 91 -200 61z"
       id="path234"
       style="fill:#ff9900" />
    <path
       d="M3903 5557 c-37 -22 -90 -49 -117 -60 -27 -10 -62 -29 -78 -42 -15 -13 -36 -26 -47 -30 -10 -3 -26 -26 -36 -51 -24 -64 -88 -156 -125 -179 -22 -14 -45 -47 -73 -105 -29 -58 -59 -101 -99 -141 -32 -31 -58 -60 -58 -65 1 -13 76 -68 137 -99 80 -42 120 -42 253 -2 88 27 119 33 134 25 15 -8 22 -7 30 4 18 24 59 48 81 48 12 0 53 -22 91 -49 82 -58 110 -67 158 -51 47 15 112 88 126 141 24 88 -6 170 -66 182 -13 2 -52 -2 -85 -10 -95 -22 -100 -11 -13 25 43 18 95 46 114 63 l35 29 -55 -21 c-118 -46 -240 -69 -268 -51 -9 6 7 11 46 15 51 5 241 58 320 88 29 11 42 47 42 119 0 73 -47 172 -99 207 -55 37 -132 32 -218 -14 -100 -53 -155 -80 -183 -88 -27 -7 89 69 181 119 l56 31 -58 2 c-52 1 -65 -3 -126 -40z"
       id="path236"
       style="fill:#ff9900" />
    <path
       d="M4303 5538 c38 -52 67 -119 75 -173 9 -55 7 -72 -19 -161 -11 -37 -10 -45 10 -77 17 -27 33 -39 64 -48 23 -6 68 -22 100 -36 53 -24 61 -25 97 -13 60 20 66 33 37 72 -14 18 -44 75 -66 127 -22 51 -53 114 -67 139 -55 93 -144 169 -218 186 -29 7 -29 7 -13 -16z"
       id="path238"
       style="fill:#66cc33" />
    <path
       d="M4492 5473 c49 -54 91 -123 138 -233 18 -41 43 -91 55 -110 29 -46 92 -89 141 -97 l39 -6 -41 39 c-22 22 -91 114 -153 206 -104 154 -184 248 -212 248 -7 0 8 -21 33 -47z"
       id="path240"
       style="fill:#669933" />
    <path
       d="M2980 5490 c-19 -10 -49 -19 -66 -20 -18 0 -42 -8 -54 -18 l-23 -19 39 -23 c43 -25 114 -89 114 -102 0 -4 -21 7 -47 26 -85 60 -153 89 -210 90 -69 1 -88 -17 -52 -47 29 -24 79 -94 79 -110 0 -6 -31 19 -68 56 -75 71 -100 83 -165 73 -54 -8 -146 -51 -154 -71 -4 -11 12 -35 49 -73 30 -31 61 -66 69 -77 13 -19 13 -19 -6 -6 -11 8 -46 39 -77 69 -36 35 -62 53 -72 49 -8 -3 -24 -38 -36 -77 -21 -69 -22 -72 -68 -90 -121 -50 -152 -86 -152 -177 0 -29 -4 -53 -8 -53 -5 0 -15 -11 -22 -25 -13 -24 -11 -28 21 -61 39 -41 119 -84 198 -108 56 -16 184 -21 256 -9 39 6 38 7 -44 24 -77 17 -259 94 -248 105 3 3 18 -1 34 -9 92 -48 364 -108 363 -81 -1 5 -22 24 -48 43 -26 18 -55 44 -65 57 -14 18 2 11 58 -25 42 -28 99 -59 128 -69 71 -26 180 -47 203 -38 16 6 12 10 -21 25 -22 10 -61 37 -87 60 -48 43 -151 162 -108 125 120 -102 171 -140 216 -161 49 -22 55 -23 81 -10 61 32 79 71 90 202 7 88 20 74 22 -24 2 -86 16 -49 21 57 l5 97 17 -65 17 -65 -4 115 c-3 63 -12 144 -19 180 -8 36 -13 66 -12 68 2 1 11 -16 21 -40 23 -57 45 -176 46 -246 l0 -57 19 40 c17 36 19 37 19 14 1 -14 -6 -47 -15 -73 -9 -26 -14 -49 -12 -51 2 -3 32 21 65 53 53 49 65 67 83 125 24 74 32 85 23 32 -8 -51 4 -43 35 23 35 76 36 177 3 277 -37 111 -31 105 -99 88 -32 -8 -71 -25 -87 -37 l-29 -23 17 -60 c9 -32 17 -88 16 -124 l-1 -64 -18 88 c-23 107 -53 172 -100 209 -47 37 -86 43 -130 18z"
       id="path242"
       style="fill:#ff6600" />
    <path
       d="M4560 5486 c0 -3 20 -32 43 -63 24 -32 80 -112 124 -178 84 -126 146 -191 201 -214 31 -13 37 -12 103 23 42 21 85 36 106 36 l35 0 -40 48 c-21 26 -58 79 -82 117 -23 39 -53 80 -66 92 -32 29 -424 158 -424 139z"
       id="path244"
       style="fill:#66cc33" />
    <path
       d="M5200 5434 c-58 -19 -123 -38 -145 -43 l-40 -8 30 -12 c18 -8 93 -14 190 -15 165 -3 222 -14 308 -57 20 -11 37 -16 37 -11 0 4 -19 37 -42 72 -79 120 -153 136 -338 74z"
       id="path246"
       style="fill:#669933" />
    <path
       d="M5198 5322 c-25 -6 -18 -12 80 -62 58 -30 183 -105 276 -167 94 -61 172 -110 174 -108 2 2 -3 14 -11 27 -8 12 -22 49 -31 81 -28 97 -108 168 -235 208 -64 20 -210 32 -253 21z"
       id="path248"
       style="fill:#66cc33" />
    <path
       d="M5050 5317 c0 -14 71 -120 117 -175 25 -29 63 -62 85 -73 l41 -21 -49 63 c-56 72 -193 218 -194 206z"
       id="path250"
       style="fill:#669933" />
    <path
       d="M5156 5258 c22 -24 73 -82 112 -130 89 -108 104 -118 167 -118 27 0 91 -9 140 -19 50 -10 91 -17 93 -16 4 4 -265 178 -353 228 -44 25 -107 58 -140 72 l-60 27 41 -44z"
       id="path252"
       style="fill:#66cc33" />
    <path
       d="M1365 5178 c-37 -20 -65 -51 -65 -73 0 -12 10 -31 23 -42 45 -42 252 -183 268 -183 9 0 30 7 47 15 17 9 57 21 89 27 32 6 64 12 72 15 10 2 -3 22 -40 59 -59 61 -96 84 -131 84 -15 0 -39 16 -63 41 -22 23 -54 48 -72 55 -39 17 -100 18 -128 2z"
       id="path254"
       style="fill:#ff9933" />
    <path
       d="M5063 5039 c-84 -41 -149 -125 -174 -223 -11 -46 -11 -46 26 -87 35 -39 82 -126 72 -135 -2 -2 -21 21 -42 52 -56 81 -88 100 -119 68 -22 -21 -20 -31 9 -56 46 -40 162 -228 141 -228 -2 0 -31 38 -64 84 -68 93 -120 142 -158 152 -36 9 -92 -19 -105 -53 -6 -16 -15 -36 -20 -45 -12 -23 -12 -120 0 -150 9 -24 134 -111 222 -155 79 -40 156 -137 174 -220 3 -18 10 -33 14 -33 3 0 17 20 31 45 13 24 26 42 28 40 7 -6 -19 -78 -38 -105 -21 -31 -32 -82 -16 -77 6 2 26 32 44 66 22 44 32 56 32 39 -1 -31 -31 -96 -64 -135 -33 -40 -28 -52 23 -51 48 0 101 -16 169 -55 63 -35 64 -35 117 63 40 74 40 40 0 -45 -13 -27 -22 -52 -19 -55 3 -3 41 -7 85 -9 l79 -3 0 -57 c0 -105 -44 -223 -122 -328 -51 -69 -62 -101 -30 -84 41 22 211 211 235 262 34 69 52 171 43 234 -7 40 -16 57 -58 99 -99 101 -117 189 -61 308 56 120 120 161 284 182 90 11 105 16 126 40 48 56 43 105 -19 172 -46 50 -58 54 -59 22 0 -13 -7 -39 -14 -58 -13 -32 -14 -27 -12 80 2 153 -17 217 -82 281 -34 35 -61 52 -106 65 -63 19 -189 25 -239 11 -31 -9 -32 0 5 -127 43 -149 27 -411 -36 -585 -14 -39 -23 -58 -20 -44 81 430 62 662 -64 803 -53 58 -142 73 -218 35z"
       id="path256"
       style="fill:#ff0000" />
    <path
       d="M4350 5037 c-17 -9 -26 -22 -28 -44 -3 -34 0 -35 118 -48 80 -9 92 -18 32 -25 l-53 -5 68 -50 c37 -27 88 -58 112 -67 25 -10 52 -25 60 -34 15 -14 13 -14 -23 0 -21 9 -40 16 -42 16 -2 0 11 -22 28 -50 23 -35 37 -48 48 -43 8 3 38 7 65 9 46 2 50 4 53 28 8 66 -117 211 -240 279 -72 40 -157 54 -198 34z"
       id="path258"
       style="fill:#666600" />
    <path
       d="M4664 5017 l-41 -20 65 -61 c70 -65 122 -138 122 -169 0 -13 5 -17 16 -13 9 3 19 6 23 6 5 0 11 22 14 49 6 46 36 117 73 169 l16 22 -73 0 c-52 0 -87 6 -118 20 -50 23 -43 23 -97 -3z"
       id="path260"
       style="fill:none" />
    <path
       d="M1259 4983 c-15 -15 -38 -46 -52 -69 l-25 -40 49 -17 c34 -12 74 -42 130 -94 l81 -76 15 32 c9 17 33 47 54 66 22 19 39 44 39 55 0 25 -188 159 -233 167 -26 4 -37 -1 -58 -24z"
       id="path262"
       style="fill:#33ff00" />
    <path
       d="M4315 4915 c-12 -38 -60 -126 -77 -142 -10 -9 -18 -24 -18 -34 0 -24 61 -73 139 -111 53 -27 78 -33 152 -36 l88 -4 17 36 c16 32 16 39 3 63 -18 36 -146 162 -187 186 l-31 17 35 -57 c19 -31 34 -64 34 -72 0 -9 3 -27 6 -41 3 -14 -11 7 -30 45 -19 39 -55 93 -80 120 -39 44 -45 48 -51 30z"
       id="path264"
       style="fill:#666600" />
    <path
       d="M1765 4900 c-72 -12 -126 -32 -122 -44 5 -17 108 -55 147 -56 20 0 54 12 80 26 25 15 63 32 84 39 l39 12 -64 12 c-101 19 -111 19 -164 11z"
       id="path266"
       style="fill:#ff9933" />
    <path
       d="M3230 4862 c0 -4 10 -22 23 -39 12 -17 40 -67 62 -112 37 -76 41 -82 65 -76 14 4 27 8 29 10 2 2 -13 23 -33 46 -20 24 -36 46 -36 50 0 4 32 -11 71 -34 l72 -41 96 17 c144 26 319 55 384 64 l58 8 -50 38 c-28 20 -58 37 -67 37 -9 0 -31 -16 -49 -35 -31 -32 -35 -33 -63 -23 -26 10 -45 7 -137 -21 -84 -27 -116 -32 -156 -28 -58 7 -152 55 -213 109 -44 38 -56 45 -56 30z"
       id="path268"
       style="fill:#ff9933" />
    <path
       d="M1138 4830 c-49 -15 -97 -50 -158 -118 -33 -37 -60 -70 -60 -74 0 -3 24 -14 53 -22 53 -16 137 -69 222 -140 l46 -39 52 12 c29 6 71 20 93 30 l41 19 5 83 c4 62 2 86 -7 91 -7 5 -49 39 -94 77 -47 42 -95 74 -118 80 -43 12 -38 12 -75 1z"
       id="path270"
       style="fill:#33ff00" />
    <path
       d="M1891 4804 c-58 -33 -68 -36 -118 -31 -31 3 -80 18 -110 32 l-54 27 -47 -43 c-75 -68 -91 -102 -98 -205 -3 -49 -1 -102 4 -119 8 -29 12 -30 81 -39 66 -7 75 -11 90 -37 9 -16 24 -29 34 -29 55 0 82 -46 102 -168 15 -94 28 -112 77 -112 41 0 103 34 132 72 13 18 43 67 67 108 45 81 89 143 96 136 6 -5 -105 -226 -124 -248 -21 -24 -10 -35 41 -42 108 -17 176 39 220 180 33 104 61 140 190 253 97 84 139 131 119 131 -4 0 -37 -7 -73 -16 -55 -13 -73 -22 -117 -67 -59 -57 -69 -52 -23 11 30 42 30 42 7 46 -87 17 -145 22 -163 16 -11 -5 -60 -38 -110 -76 -49 -37 -96 -72 -104 -78 -8 -6 -3 3 11 20 30 37 118 116 156 141 l26 17 -37 17 c-26 11 -48 14 -69 9 -150 -37 -175 -41 -212 -35 -22 3 -53 12 -68 18 -25 10 -16 12 65 12 60 1 114 7 151 19 l58 18 -26 20 c-14 11 -32 33 -40 49 -21 40 -54 38 -134 -7z"
       id="path272"
       style="fill:#ff9900" />
    <path
       d="M3181 4826 c-9 -11 -6 -20 15 -43 35 -37 64 -100 64 -140 0 -28 4 -33 24 -33 14 0 28 4 31 10 7 12 -79 181 -104 204 -16 14 -20 15 -30 2z"
       id="path274"
       style="fill:#ff9933" />
    <path
       d="M3098 4768 c-68 -39 -85 -146 -37 -225 29 -46 46 -48 90 -9 21 19 51 42 68 51 l31 15 -24 66 c-21 57 -67 125 -85 124 -3 0 -23 -10 -43 -22z"
       id="path276"
       style="fill:#ff9933" />
    <path
       d="M3765 4686 c-139 -26 -317 -65 -323 -71 -2 -2 16 -9 39 -15 24 -6 66 -18 94 -26 77 -22 172 -28 268 -15 110 15 243 15 295 2 22 -6 52 -21 67 -33 34 -26 64 -91 65 -136 0 -26 4 -33 18 -30 24 5 30 135 7 194 -18 48 -72 105 -124 131 -58 29 -243 28 -406 -1z"
       id="path278"
       style="fill:#cc3300" />
    <path
       d="M2957 4671 c-26 -15 -54 -36 -61 -47 -32 -45 -57 -160 -67 -309 -5 -82 -14 -168 -19 -190 -5 -22 -10 -43 -10 -47 0 -3 28 8 63 25 54 27 75 32 159 35 l96 4 -24 52 c-28 60 -32 166 -9 230 14 39 14 39 -24 76 -43 42 -67 110 -58 165 3 19 5 35 4 35 -1 0 -24 -13 -50 -29z"
       id="path280"
       style="fill:#ff9933" />
    <path
       d="M2631 4658 c-22 -36 -103 -116 -198 -197 -62 -52 -103 -117 -119 -186 l-7 -30 34 31 c38 35 93 74 104 74 4 0 -21 -30 -55 -67 -96 -102 -105 -136 -53 -214 14 -21 34 -81 48 -141 28 -127 57 -196 95 -233 47 -45 212 -96 236 -72 2 2 -5 24 -16 48 -29 65 -25 110 25 254 63 181 76 260 78 477 2 192 0 205 -46 256 -11 12 -24 22 -28 22 -3 0 -19 -25 -34 -56 -31 -64 -42 -66 -20 -4 8 23 15 49 15 56 0 26 -38 14 -59 -18z"
       id="path282"
       style="fill:#ff9900" />
    <path
       d="M5890 4623 c0 -4 16 -24 36 -43 66 -64 79 -122 43 -195 -25 -51 -58 -66 -160 -75 -151 -13 -208 -47 -260 -155 -31 -64 -38 -139 -19 -190 6 -15 35 -52 65 -84 70 -73 85 -127 67 -233 -15 -88 -40 -146 -94 -217 -45 -59 -40 -59 45 7 88 69 148 172 243 417 26 66 76 181 111 255 78 164 97 231 91 322 -6 79 -28 122 -83 160 -43 29 -85 44 -85 31z"
       id="path284"
       style="fill:#cc3300" />
    <path
       d="M4316 4602 c22 -53 35 -123 30 -171 l-5 -53 32 6 c91 20 147 25 190 20 l48 -7 -11 27 c-5 15 -10 52 -10 82 l0 54 -49 0 c-66 0 -143 16 -192 39 -36 18 -40 18 -33 3z"
       id="path286"
       style="fill:none" />
    <path
       d="M806 4559 c-27 -16 -46 -32 -44 -35 3 -2 30 1 61 7 68 14 137 0 275 -55 l87 -35 -45 40 c-25 21 -75 55 -111 74 -90 47 -154 48 -223 4z"
       id="path288"
       style="fill:#339900" />
    <path
       d="M3255 4564 c-88 -32 -146 -119 -153 -230 -4 -62 -1 -80 21 -128 19 -42 34 -60 61 -73 19 -9 33 -20 30 -25 -3 -5 -56 -6 -118 -2 -132 8 -205 -8 -262 -58 -43 -38 -63 -77 -99 -188 -45 -144 -28 -196 95 -287 l85 -63 22 51 c12 28 39 105 58 172 20 67 47 139 61 160 60 92 178 139 348 139 104 0 112 2 183 36 91 43 159 52 197 27 27 -18 27 -18 59 15 33 34 83 60 114 60 10 0 30 15 45 34 26 32 53 48 186 106 51 23 52 24 52 67 0 57 -32 118 -72 139 -32 16 -148 36 -148 25 1 -3 7 -17 15 -31 23 -41 17 -43 -20 -5 -46 45 -60 45 -35 -2 30 -57 24 -71 -10 -24 -39 53 -57 60 -134 48 -33 -4 -97 -6 -141 -2 l-80 6 55 -56 c61 -61 59 -73 -4 -21 -137 112 -292 153 -411 110z"
       id="path290"
       style="fill:#ff0000" />
    <path
       d="M755 4481 c-103 -37 -186 -103 -275 -221 -31 -41 -60 -81 -64 -88 -4 -7 30 13 76 44 166 114 273 151 522 179 71 8 131 17 133 19 5 5 -130 61 -182 75 -59 16 -153 13 -210 -8z"
       id="path292"
       style="fill:#33ff00" />
    <path
       d="M1295 4416 c-39 -13 -101 -29 -138 -36 -63 -12 -67 -14 -67 -40 0 -47 -29 -113 -67 -152 -21 -21 -32 -38 -26 -38 7 0 41 -20 77 -45 75 -51 105 -61 136 -45 34 18 99 128 121 205 11 38 28 94 38 123 21 60 24 59 -74 28z"
       id="path294"
       style="fill:#33ff00" />
    <path
       d="M1412 4407 c-7 -12 -23 -62 -38 -112 -14 -49 -39 -114 -55 -144 -16 -30 -29 -58 -29 -62 0 -15 62 14 94 45 l33 31 5 130 c3 72 5 131 3 132 -1 2 -7 -7 -13 -20z"
       id="path296"
       style="fill:#339900" />
    <path
       d="M1460 4380 c0 -47 21 -144 40 -181 34 -65 177 -139 270 -139 22 0 22 1 6 19 -10 11 -24 56 -32 108 -19 110 -36 137 -93 141 -38 3 -41 5 -35 27 7 30 2 32 -88 43 l-68 8 0 -26z"
       id="path298"
       style="fill:#ff9933" />
    <path
       d="M4455 4368 c-32 -4 -84 -15 -115 -25 l-55 -16 55 -12 c63 -14 52 -19 -58 -30 -35 -3 -94 -15 -130 -27 -150 -46 -218 -184 -156 -312 8 -16 14 -44 14 -63 l0 -34 48 62 c26 34 58 69 72 78 23 15 22 12 -9 -29 -92 -125 -103 -155 -61 -177 39 -20 124 -16 181 8 45 20 51 20 62 6 17 -22 61 -37 111 -37 35 0 48 6 76 35 19 20 50 40 70 46 24 8 40 21 50 42 19 40 68 73 121 82 31 5 51 2 92 -18 29 -14 69 -27 91 -30 l38 -6 -6 62 c-14 120 -64 186 -171 226 -68 26 -198 28 -294 6 -35 -9 -66 -14 -68 -11 -2 2 22 14 54 27 49 20 76 24 173 24 108 0 119 -2 181 -31 102 -49 146 -120 156 -251 5 -56 9 -73 21 -73 12 0 14 12 9 70 -14 167 -117 280 -282 311 -96 18 -222 -5 -359 -66 -79 -35 -70 -12 12 29 95 48 174 69 264 70 43 1 78 4 78 7 0 13 -117 57 -160 61 -25 2 -72 0 -105 -4z"
       id="path300"
       style="fill:#cc0000" />
    <path
       d="M1034 4362 c-6 -4 -14 -27 -18 -52 -4 -25 -15 -60 -26 -78 -25 -41 -25 -45 1 -32 25 14 69 104 69 143 0 28 -6 32 -26 19z"
       id="path302"
       style="fill:#339900" />
    <path
       d="M873 4345 c-106 -19 -171 -42 -257 -88 -72 -40 -260 -167 -254 -173 2 -1 35 8 74 22 49 16 112 26 210 34 189 14 206 17 256 49 48 30 76 77 80 132 4 41 -6 43 -109 24z"
       id="path304"
       style="fill:#33ff00" />
    <path
       d="M1447 4173 c-4 -20 -5 -38 -4 -39 1 -1 14 0 29 3 l26 5 -20 34 c-11 19 -21 34 -23 34 -1 0 -5 -17 -8 -37z"
       id="path306"
       style="fill:#339900" />
    <path
       d="M2254 4138 c-21 -26 -24 -51 -14 -116 12 -75 14 -238 4 -267 -7 -20 -7 -20 14 -1 37 32 63 101 69 180 5 66 3 79 -17 113 -12 21 -28 53 -34 71 -9 27 -14 31 -22 20z"
       id="path308"
       style="fill:#336600" />
    <path
       d="M6563 4141 c-48 -12 -93 -42 -126 -84 -29 -35 -31 -43 -38 -160 -4 -67 -10 -132 -14 -145 -5 -15 -2 -28 8 -40 21 -23 38 -67 46 -122 8 -61 34 -65 85 -13 50 52 72 101 111 253 36 137 60 201 95 251 l22 29 -36 15 c-46 20 -112 26 -153 16z"
       id="path310"
       style="fill:#00ff33" />
    <path
       d="M3899 4117 c-55 -37 -92 -98 -97 -161 -4 -47 0 -62 23 -103 16 -26 33 -51 39 -55 6 -4 36 -8 67 -8 l56 0 -4 53 c-3 28 -11 72 -19 97 -22 71 -27 123 -16 163 13 45 1 48 -49 14z"
       id="path312"
       style="fill:#660000" />
    <path
       d="M6844 4130 c-41 -13 -96 -68 -122 -123 -12 -25 -35 -101 -52 -169 -36 -142 -59 -198 -102 -252 l-32 -39 66 6 c104 10 203 37 291 81 97 49 117 73 153 195 14 47 41 115 60 150 33 60 34 64 18 82 -51 56 -202 93 -280 69z"
       id="path314"
       style="fill:#00ff33" />
    <path
       d="M1425 4100 c-16 -4 -45 -15 -63 -25 -18 -9 -52 -20 -75 -22 -23 -3 -51 -12 -62 -19 -24 -17 -66 -18 -100 -2 -24 11 -29 8 -81 -43 -75 -74 -106 -140 -112 -240 -3 -48 0 -97 8 -124 7 -25 14 -45 15 -45 1 0 31 11 66 24 35 13 114 31 174 41 182 27 205 36 292 116 43 39 136 114 206 167 l129 97 -66 7 c-81 8 -130 23 -178 54 -39 25 -93 30 -153 14z"
       id="path316"
       style="fill:#336600" />
    <path
       d="M1931 4054 c-72 -64 -103 -143 -150 -375 -30 -151 -43 -189 -82 -248 l-23 -34 39 7 c99 19 247 123 289 204 9 17 34 94 56 171 22 76 55 175 74 220 l34 80 -52 -1 c-28 -1 -72 2 -97 6 -44 8 -48 7 -88 -30z"
       id="path318"
       style="fill:#336600" />
    <path
       d="M3670 4073 c-38 -14 -130 -56 -130 -60 0 -3 11 -14 24 -24 55 -43 74 -156 37 -213 -11 -17 -18 -33 -15 -38 8 -13 89 -9 127 7 31 13 88 67 87 83 -1 4 -7 18 -15 32 -17 31 -19 112 -3 156 16 45 -1 64 -56 63 -22 0 -48 -3 -56 -6z"
       id="path320"
       style="fill:#660000" />
    <path
       d="M2175 4029 c-32 -79 -56 -152 -86 -264 -17 -60 -39 -129 -49 -152 -23 -52 -14 -54 57 -13 100 57 129 135 120 320 -6 145 -16 171 -42 109z"
       id="path322"
       style="fill:#336600" />
    <path
       d="M7230 4059 c-63 -25 -104 -84 -150 -218 -20 -58 -41 -114 -45 -125 -8 -17 -6 -17 24 -2 17 9 31 23 31 32 0 23 39 94 76 141 40 49 140 118 195 134 21 7 39 15 39 19 0 10 -81 30 -117 29 -15 0 -39 -5 -53 -10z"
       id="path324"
       style="fill:#003300" />
    <path
       d="M6348 4030 c-44 -36 -75 -97 -84 -166 l-6 -51 47 -27 c27 -14 51 -24 54 -21 3 4 8 61 11 128 4 67 12 132 19 145 16 30 2 28 -41 -8z"
       id="path326"
       style="fill:#00ff33" />
    <path
       d="M7411 4004 c-74 -20 -142 -59 -196 -112 -46 -45 -102 -129 -92 -138 3 -3 32 6 65 20 159 67 397 123 577 135 l100 7 -69 33 c-139 66 -274 85 -385 55z"
       id="path328"
       style="fill:#00ff33" />
    <path
       d="M3300 3999 c-64 -11 -155 -51 -188 -82 -31 -29 -55 -76 -81 -161 -26 -83 -26 -94 -3 -73 44 40 36 5 -16 -66 -87 -121 -105 -244 -53 -352 16 -33 41 -73 55 -90 l27 -30 22 30 c48 65 135 142 198 174 l65 34 -10 34 c-13 39 -24 40 -108 17 -71 -20 -100 -48 -114 -111 l-11 -48 -8 38 c-9 47 8 90 45 117 16 11 79 33 141 49 62 16 124 38 137 48 14 11 38 49 53 86 17 42 45 87 74 118 77 83 88 132 44 205 -34 57 -151 84 -269 63z"
       id="path330"
       style="fill:#cc0000" />
    <path
       d="M1807 3957 c-78 -102 -124 -219 -162 -413 -14 -71 -28 -138 -31 -149 -7 -29 63 50 87 98 11 21 34 106 51 190 16 83 43 187 58 229 15 43 26 78 25 78 -2 0 -14 -15 -28 -33z"
       id="path332"
       style="fill:#339933" />
    <path
       d="M4703 3929 c-36 -10 -83 -61 -83 -90 0 -12 -7 -19 -20 -19 -46 0 -103 -46 -134 -106 -26 -52 -30 -106 -12 -167 14 -47 23 -60 67 -92 28 -20 49 -38 46 -41 -2 -2 -28 7 -58 21 -70 32 -82 31 -114 -7 -21 -24 -25 -38 -21 -61 3 -16 6 -33 6 -38 0 -4 9 -11 20 -14 11 -4 41 -24 66 -46 49 -42 68 -47 93 -25 31 28 106 41 157 28 26 -7 48 -11 50 -9 7 7 -35 153 -65 226 -17 41 -29 76 -27 79 17 16 106 -199 122 -293 3 -22 20 -60 36 -85 16 -25 32 -58 35 -73 4 -19 11 -27 22 -25 13 3 15 16 13 83 -8 173 -67 366 -158 515 -39 64 -3 31 45 -41 80 -120 141 -329 141 -486 0 -46 3 -83 6 -83 4 0 24 20 45 44 22 24 59 54 82 65 42 20 97 28 110 15 4 -4 -21 -37 -56 -73 -70 -76 -113 -148 -123 -209 -8 -49 -1 -51 55 -22 65 33 128 113 153 194 17 55 23 66 27 48 l6 -24 22 24 c33 34 50 94 63 210 18 159 28 180 29 63 2 -93 3 -99 17 -80 45 56 106 219 119 318 l6 47 -50 0 c-78 0 -147 19 -225 61 -39 21 -91 41 -115 45 -43 7 -44 6 -37 -17 4 -13 9 -42 12 -64 l5 -40 -23 50 c-13 28 -31 64 -40 82 -18 32 -74 73 -101 73 -14 0 -13 -6 4 -46 12 -25 19 -47 17 -49 -2 -2 -23 21 -46 51 -27 35 -59 63 -85 74 -46 22 -57 22 -104 9z"
       id="path334"
       style="fill:#cc0000" />
    <path
       d="M1663 3868 c-192 -152 -243 -221 -298 -403 -15 -50 -38 -125 -52 -169 -21 -65 -23 -80 -12 -87 61 -38 222 63 267 169 11 26 30 99 42 162 26 139 60 244 105 328 19 34 33 62 30 62 -2 0 -39 -28 -82 -62z"
       id="path336"
       style="fill:#336600" />
    <path
       d="M7638 3864 c-104 -16 -232 -46 -307 -72 l-55 -19 98 -53 c98 -52 98 -52 172 -48 62 4 88 12 152 45 42 22 125 65 184 95 87 45 103 57 85 62 -39 10 -239 5 -329 -10z"
       id="path338"
       style="fill:#00ff33" />
    <path
       d="M5975 3806 c-94 -30 -123 -55 -166 -146 -75 -159 -124 -213 -309 -337 -85 -58 -166 -128 -135 -118 11 3 87 17 170 31 247 41 316 67 400 154 28 28 71 63 98 76 62 32 62 56 2 130 -35 43 -45 63 -45 92 0 59 38 98 120 123 18 5 8 7 -35 7 -33 1 -78 -5 -100 -12z"
       id="path340"
       style="fill:#cc3300" />
    <path
       d="M3784 3756 c-48 -49 -145 -70 -208 -46 -14 5 -28 5 -31 0 -3 -4 11 -14 30 -20 20 -7 41 -23 49 -37 12 -23 19 -26 79 -28 36 -1 79 -8 96 -15 26 -10 32 -10 52 9 12 11 41 28 65 37 40 15 41 17 29 41 -8 14 -11 31 -8 39 3 8 -8 15 -34 20 -21 3 -48 12 -60 20 -26 17 -21 19 -59 -20z"
       id="path342"
       style="fill:#660000" />
    <path
       d="M6081 3773 c-19 -10 -43 -30 -53 -44 -26 -35 -16 -69 38 -131 63 -70 58 -123 -13 -153 -20 -9 -65 -43 -99 -76 -96 -92 -174 -121 -422 -159 -202 -31 -243 -54 -313 -170 -52 -88 -113 -146 -185 -175 -51 -21 -55 -25 -28 -25 19 0 84 27 168 71 158 81 244 105 341 94 124 -14 118 -20 -21 -25 l-140 -5 -145 -72 c-79 -39 -163 -77 -186 -83 -44 -11 -59 -30 -24 -30 33 0 101 29 190 79 113 65 189 86 267 75 l59 -8 -89 -7 c-94 -8 -90 -7 -292 -112 -39 -21 -91 -41 -115 -45 -40 -7 -44 -10 -51 -45 -4 -20 -17 -55 -28 -77 -11 -21 -20 -41 -20 -44 0 -2 21 -11 47 -20 62 -21 137 -20 261 4 174 34 171 20 -7 -26 -113 -29 -178 -30 -251 -4 -30 11 -59 21 -64 23 -5 1 -18 -16 -31 -39 l-22 -41 121 -12 c67 -6 152 -18 191 -26 124 -26 136 -23 274 82 102 78 180 118 268 139 82 19 131 13 273 -31 193 -60 256 -65 372 -30 79 23 127 54 193 122 116 119 190 301 165 407 -17 74 -92 121 -167 105 -21 -4 -59 -31 -102 -72 -45 -42 -96 -78 -143 -100 -115 -56 -131 -53 -33 5 49 29 116 78 147 108 53 51 58 60 58 99 0 43 -31 111 -51 111 -4 0 -15 -13 -24 -30 -25 -49 -134 -158 -194 -194 -51 -31 -164 -76 -192 -76 -6 0 33 22 88 49 212 106 342 286 315 433 -13 70 -55 133 -108 164 -61 36 -172 44 -223 17z"
       id="path344"
       style="fill:#ff0000" />
    <path
       d="M4235 3759 c-49 -23 -132 -25 -181 -4 -38 16 -79 11 -87 -9 -8 -21 17 -60 48 -75 24 -12 36 -12 70 -1 44 14 134 18 180 7 27 -7 32 -3 52 28 l23 36 -25 11 c-14 6 -25 15 -25 20 0 11 -9 9 -55 -13z"
       id="path346"
       style="fill:#660000" />
    <path
       d="M7186 3737 c-18 -13 -17 -15 15 -21 19 -3 77 -26 129 -51 77 -36 105 -45 150 -45 30 0 62 5 70 10 12 7 9 9 -10 8 -62 -4 -91 5 -175 53 -97 56 -149 69 -179 46z"
       id="path348"
       style="fill:#003300" />
    <path
       d="M4384 3726 c-17 -8 -41 -30 -53 -51 -20 -34 -25 -37 -54 -31 -88 18 -134 18 -165 2 -25 -13 -47 -15 -95 -10 -52 5 -72 3 -110 -14 -45 -20 -59 -43 -37 -57 6 -4 22 -25 36 -47 24 -38 26 -39 44 -23 45 41 131 37 179 -9 21 -19 39 -25 93 -28 49 -3 76 -10 97 -26 l30 -22 17 30 c10 16 31 34 46 41 21 8 27 17 23 28 -25 64 -25 148 1 214 8 21 -9 21 -52 3z"
       id="path350"
       style="fill:#660000" />
    <path
       d="M6970 3637 c-69 -34 -138 -67 -155 -72 l-30 -10 55 -32 c30 -17 89 -60 130 -96 41 -36 99 -80 128 -98 127 -77 251 -33 313 108 17 39 57 127 67 146 2 4 -11 7 -29 7 -19 0 -79 22 -140 51 -74 35 -124 52 -161 55 -49 4 -62 -1 -178 -59z"
       id="path352"
       style="fill:#00ff33" />
    <path
       d="M3514 3660 c-13 -5 -29 -30 -43 -68 -21 -59 -67 -112 -96 -112 -22 0 -38 -28 -31 -55 4 -16 19 -30 42 -40 46 -19 44 -20 44 13 0 15 13 49 29 74 23 36 43 53 95 77 64 31 65 32 55 61 -16 45 -55 66 -95 50z"
       id="path354"
       style="fill:#660000" />
    <path
       d="M1230 3619 c-138 -21 -198 -39 -267 -79 -85 -49 -116 -104 -129 -230 l-6 -65 29 45 c60 91 138 150 314 236 90 45 171 89 178 98 7 9 10 15 5 15 -5 -1 -61 -10 -124 -20z"
       id="path356"
       style="fill:#336600" />
    <path
       d="M3661 3591 c-22 -22 -41 -79 -42 -131 0 -29 -2 -31 -9 -15 -5 11 -9 37 -9 57 -1 36 -1 37 -30 27 -40 -14 -107 -88 -116 -128 -8 -35 11 -73 45 -91 11 -6 48 -13 83 -17 l63 -5 84 57 c47 32 104 66 126 76 23 9 45 22 48 28 10 16 -48 96 -88 120 -18 12 -47 21 -63 21 -27 0 -33 -6 -51 -47 -17 -41 -20 -44 -21 -21 -1 15 3 38 9 52 12 33 -3 43 -29 17z"
       id="path358"
       style="fill:#660000" />
    <path
       d="M1356 3577 c-9 -13 -29 -63 -45 -110 -36 -105 -75 -185 -140 -280 -69 -104 -68 -102 -31 -81 38 22 90 83 118 139 11 22 36 96 56 164 21 68 44 137 52 153 19 37 11 48 -10 15z"
       id="path360"
       style="fill:#339933" />
    <path
       d="M2676 3577 c-18 -13 -17 -15 3 -55 13 -25 44 -58 78 -84 31 -23 52 -43 46 -45 -22 -8 -92 37 -130 82 -47 56 -81 60 -124 14 -44 -47 -40 -96 17 -227 76 -174 73 -202 -36 -333 -92 -110 -114 -155 -118 -248 l-4 -74 33 23 c22 16 51 25 89 28 71 5 123 -19 189 -88 l46 -48 24 19 c16 13 39 19 76 19 62 0 97 -21 197 -117 40 -38 75 -63 84 -61 9 2 27 20 40 40 l23 37 -47 34 c-83 61 -170 161 -205 234 -28 60 -32 79 -33 156 -1 88 -1 88 -35 116 -19 16 -43 44 -53 62 -19 33 -19 33 36 -13 59 -51 73 -56 81 -34 3 8 -14 26 -46 47 -47 31 -117 116 -117 142 0 5 19 -12 42 -38 41 -47 121 -105 142 -105 6 0 21 14 33 31 l21 32 -34 35 c-19 19 -48 62 -64 96 -28 55 -31 69 -29 146 l2 84 -45 31 c-24 16 -57 40 -72 53 -32 25 -83 29 -110 9z"
       id="path362"
       style="fill:#ff0000" />
    <path
       d="M1126 3468 c-209 -108 -275 -196 -321 -436 -15 -74 -24 -136 -22 -138 9 -10 101 105 184 231 72 108 193 276 276 382 10 12 15 23 10 23 -4 -1 -62 -28 -127 -62z"
       id="path364"
       style="fill:#336600" />
    <path
       d="M6629 3526 c-2 -2 -44 -6 -94 -8 l-90 -5 -9 -35 c-8 -32 -6 -40 23 -76 20 -24 35 -56 38 -80 l5 -40 62 5 c47 3 69 0 96 -15 40 -22 75 -77 84 -134 8 -47 8 -46 134 13 77 37 97 58 71 74 -6 4 -28 44 -50 89 -21 44 -52 97 -68 117 -46 56 -178 118 -202 95z"
       id="path366"
       style="fill:#00ff33" />
    <path
       d="M6780 3511 c56 -31 96 -80 147 -181 31 -61 58 -100 75 -109 24 -14 31 -13 78 9 28 13 53 27 56 31 2 4 -20 21 -48 37 -29 16 -92 64 -140 105 -93 80 -138 111 -178 121 -19 5 -16 2 10 -13z"
       id="path368"
       style="fill:#003300" />
    <path
       d="M4007 3490 c-49 -15 -57 -28 -58 -99 l-1 -66 -12 48 c-12 52 -26 53 -27 3 l-1 -31 -10 27 c-9 27 -10 27 -44 13 -20 -8 -67 -37 -105 -64 l-71 -49 37 -18 c69 -32 114 -116 115 -214 l1 -55 29 33 c28 30 30 38 30 110 0 53 3 72 10 62 5 -8 10 -34 10 -57 0 -57 17 -54 43 7 11 28 26 50 31 50 6 0 42 20 80 45 81 53 156 83 230 91 l54 7 -10 29 c-15 43 -62 68 -127 68 -51 0 -53 -1 -49 -25 7 -33 -6 -23 -33 25 -18 31 -73 74 -91 69 -1 0 -16 -5 -31 -9z"
       id="path370"
       style="fill:#660000" />
    <path
       d="M1201 3400 c-39 -51 -120 -165 -181 -253 -60 -89 -119 -174 -131 -189 -27 -36 -18 -35 36 2 68 47 141 126 207 224 85 127 161 286 145 302 -3 3 -37 -36 -76 -86z"
       id="path372"
       style="fill:#339933" />
    <path
       d="M2461 3330 c-6 -18 -13 -69 -17 -114 -8 -116 -21 -168 -72 -279 -64 -144 -67 -228 -12 -348 l20 -44 -4 58 c-6 74 7 157 34 211 11 22 53 83 94 134 48 59 77 105 82 127 7 38 -13 98 -48 148 -12 17 -31 54 -43 84 l-23 54 -11 -31z"
       id="path374"
       style="fill:#cc3300" />
    <path
       d="M3330 3347 c-28 -14 -37 -42 -40 -137 l-2 -65 -9 45 c-6 25 -8 64 -7 88 4 47 5 46 -25 31 -47 -25 -111 -85 -143 -135 -18 -29 -56 -82 -83 -118 -28 -36 -55 -85 -62 -109 -24 -90 17 -224 96 -315 41 -47 151 -142 164 -142 5 0 14 13 21 30 11 27 10 32 -25 72 -36 42 -108 178 -120 228 -4 14 13 -9 38 -51 56 -96 99 -159 126 -183 28 -25 27 -11 -5 58 -14 32 -24 59 -21 62 2 3 19 -19 37 -48 18 -29 34 -54 35 -56 2 -2 18 6 36 17 20 12 51 21 76 21 52 0 60 12 33 50 -24 34 -83 160 -77 166 2 2 28 -37 58 -86 30 -50 56 -90 59 -90 3 0 12 5 20 10 12 8 10 14 -12 37 -23 24 -78 130 -78 151 0 3 24 -29 53 -73 62 -94 100 -116 66 -40 -11 26 -19 48 -17 50 2 2 16 -15 32 -38 27 -40 32 -42 77 -42 27 0 49 1 49 2 0 2 -11 36 -25 76 -13 41 -27 100 -30 133 l-5 59 20 -60 c65 -195 90 -245 90 -176 0 37 24 104 50 141 15 21 20 44 20 95 0 89 -17 141 -60 186 -33 35 -73 52 -175 74 -29 6 -29 5 15 -35 37 -34 41 -40 20 -34 -47 12 -78 33 -110 74 -56 71 -115 99 -160 77z"
       id="path376"
       style="fill:#cc0000" />
    <path
       d="M4246 3289 c-42 -10 -129 -52 -197 -95 l-41 -26 25 -26 c39 -42 116 -166 159 -259 35 -75 89 -217 88 -232 -1 -3 -40 73 -88 169 -70 141 -183 330 -197 330 -2 0 -13 -19 -24 -42 -12 -24 -44 -68 -71 -98 -76 -83 -102 -125 -107 -174 -7 -60 10 -106 76 -206 31 -47 60 -91 64 -98 18 -29 -41 19 -72 58 -38 47 -91 145 -91 168 0 8 -3 12 -7 8 -12 -12 -2 -88 17 -125 10 -20 42 -63 72 -96 63 -70 102 -124 95 -131 -9 -9 -168 171 -192 216 -33 64 -117 100 -165 70 -12 -8 -10 -15 16 -42 35 -37 89 -126 81 -134 -2 -3 -28 26 -56 64 -28 39 -58 75 -65 82 -24 19 -52 -5 -85 -73 l-30 -62 -1 38 c0 35 -2 37 -32 37 -64 0 -126 -54 -187 -162 -18 -32 -36 -60 -42 -63 -25 -16 -3 -24 59 -23 70 1 106 -11 168 -58 17 -13 61 -39 98 -59 76 -40 149 -47 212 -20 l36 15 -90 97 c-50 54 -103 113 -118 132 -59 71 13 11 146 -122 172 -171 210 -192 352 -192 124 0 138 12 65 53 -46 26 -117 100 -117 122 0 4 21 -14 48 -38 49 -46 132 -92 168 -92 20 0 44 17 44 32 0 4 -8 8 -18 8 -22 0 -99 48 -126 78 -26 30 -18 28 49 -13 57 -34 120 -54 132 -41 4 3 -6 20 -22 36 -39 41 -27 46 21 10 27 -20 51 -30 77 -30 l39 0 -21 34 c-23 37 -54 117 -47 123 2 3 22 -27 45 -65 53 -91 61 -97 106 -82 51 17 58 42 52 195 -5 126 -5 129 10 85 9 -26 16 -86 16 -142 1 -54 3 -98 5 -98 2 0 15 26 29 58 26 56 27 57 33 27 l6 -30 32 33 c35 37 62 112 63 176 0 23 4 61 8 86 7 45 7 45 15 -30 7 -74 -2 -150 -25 -192 -9 -18 -8 -18 10 -8 12 6 21 14 21 18 0 4 13 14 29 23 38 22 68 90 76 175 5 49 14 84 31 110 27 45 30 38 9 -30 -17 -57 -20 -105 -5 -90 13 13 35 116 49 224 13 103 44 170 113 245 27 30 47 55 44 55 -17 0 -84 -41 -108 -67 -30 -32 -78 -128 -78 -158 0 -11 -5 -27 -11 -35 -8 -11 -9 0 -4 40 12 100 14 95 -25 95 -31 0 -35 3 -43 35 -13 55 -58 113 -107 138 -51 26 -87 28 -136 7 l-34 -14 34 -46 c41 -53 66 -125 72 -210 l4 -60 -35 108 c-24 70 -46 119 -66 142 -17 19 -34 35 -39 35 -4 0 8 -37 26 -82 53 -133 76 -304 57 -434 -6 -42 -9 -30 -19 92 -13 159 -40 279 -82 369 -66 139 -147 184 -276 154z"
       id="path378"
       style="fill:#cc0000" />
    <path
       d="M7250 3260 c-19 -5 -41 -7 -49 -4 -8 2 -37 -12 -66 -32 -33 -22 -69 -38 -96 -41 -24 -3 -89 -27 -144 -54 -55 -27 -107 -49 -116 -49 -22 0 -35 -18 -43 -61 l-7 -37 88 -12 c49 -6 139 -22 201 -34 126 -25 110 -26 317 39 105 33 133 38 222 39 118 1 117 1 79 81 -27 59 -90 119 -155 148 -52 23 -174 32 -231 17z"
       id="path380"
       style="fill:#009900" />
    <path
       d="M7477 2980 c-63 -11 -259 -70 -271 -81 -15 -14 71 -11 157 6 142 27 278 16 365 -29 19 -10 36 -15 39 -13 8 8 -68 87 -98 103 -36 18 -130 25 -192 14z"
       id="path382"
       style="fill:#003300" />
    <path
       d="M6715 2939 c-4 -6 6 -38 23 -72 17 -34 44 -109 61 -167 55 -184 121 -294 191 -319 36 -12 37 -9 5 33 -34 44 -85 158 -134 298 -58 167 -96 238 -127 238 -7 0 -16 -5 -19 -11z"
       id="path384"
       style="fill:#003300" />
    <path
       d="M6824 2892 c14 -28 49 -115 77 -194 28 -79 65 -169 82 -201 58 -110 134 -177 200 -177 14 0 69 15 124 33 l101 32 -57 61 c-32 34 -79 103 -110 159 -67 125 -126 208 -183 261 -46 43 -47 43 -216 69 l-43 7 25 -50z"
       id="path386"
       style="fill:#009900" />
    <path
       d="M7133 2830 c30 -33 83 -112 117 -175 82 -148 136 -216 193 -244 38 -18 59 -21 137 -19 l93 3 -84 34 c-178 71 -227 113 -355 307 -87 131 -108 153 -147 154 -5 0 16 -27 46 -60z"
       id="path388"
       style="fill:#003300" />
    <path
       d="M7370 2876 c-73 -14 -77 -8 48 -59 128 -52 344 -182 480 -289 35 -27 66 -47 69 -45 2 3 -21 58 -52 123 -99 206 -192 273 -385 280 -52 1 -124 -3 -160 -10z"
       id="path390"
       style="fill:#009900" />
    <path
       d="M7200 2854 c0 -12 73 -127 131 -205 103 -139 243 -206 540 -260 60 -10 133 -28 162 -39 l52 -19 -45 40 c-223 197 -516 378 -743 458 -96 34 -97 34 -97 25z"
       id="path392"
       style="fill:#009900" />
    <path
       d="M6616 2766 c-78 -89 -77 -110 7 -191 42 -41 95 -77 165 -113 56 -30 102 -51 102 -47 0 3 -11 21 -24 38 -33 43 -55 97 -101 250 -37 122 -40 127 -66 127 -20 0 -40 -15 -83 -64z"
       id="path394"
       style="fill:#009900" />
    <path
       d="M2249 2642 c-20 -15 -45 -32 -55 -38 -17 -10 -14 -16 35 -60 30 -27 88 -99 128 -161 85 -128 130 -173 217 -214 47 -22 75 -29 123 -29 34 0 65 5 68 10 3 6 0 10 -8 10 -24 0 -169 77 -209 110 -76 63 -206 255 -235 347 -9 29 -19 53 -22 52 -3 0 -22 -12 -42 -27z"
       id="path396"
       style="fill:#99cc00" />
    <path
       d="M5657 2647 c-37 -13 -97 -45 -135 -71 -37 -26 -95 -67 -128 -90 -34 -24 -68 -46 -75 -48 -75 -27 212 -29 431 -4 240 28 380 61 510 120 l55 24 -80 0 c-83 0 -147 13 -275 57 -110 39 -215 43 -303 12z"
       id="path398"
       style="fill:#cc3300" />
    <path
       d="M6487 2633 c-11 -3 -74 -33 -140 -68 -67 -34 -149 -71 -182 -81 -33 -10 -62 -19 -64 -20 -2 -2 14 -18 35 -36 55 -46 121 -113 179 -182 150 -176 212 -219 395 -271 172 -49 296 -119 340 -190 12 -19 25 -35 29 -35 13 0 40 70 51 129 25 135 5 277 -53 367 -42 67 -78 95 -158 123 -127 45 -266 128 -341 203 -37 38 -69 67 -70 67 -2 -1 -11 -3 -21 -6z"
       id="path400"
       style="fill:#009966" />
    <path
       d="M2463 2611 c-39 -24 -48 -51 -32 -99 48 -150 156 -257 316 -313 73 -25 209 -35 288 -20 70 13 171 60 204 95 l23 25 -38 7 c-64 11 -111 41 -191 120 -87 87 -121 107 -177 106 -34 -1 -46 -7 -70 -34 -21 -25 -30 -29 -34 -18 -10 27 -97 112 -134 131 -48 24 -114 24 -155 0z"
       id="path402"
       style="fill:#cc3300" />
    <path
       d="M2040 2567 c-14 -7 -67 -38 -118 -71 l-92 -59 43 -27 c29 -18 58 -51 88 -99 128 -205 139 -222 166 -232 36 -14 372 -5 463 12 l65 12 -36 12 c-119 42 -186 100 -285 251 -123 187 -205 242 -294 201z"
       id="path404"
       style="fill:#99cc00" />
    <path
       d="M4802 2458 c-10 -13 -2 -16 66 -21 94 -8 213 -38 297 -76 184 -84 359 -241 316 -284 -26 -26 -2 -101 41 -132 22 -16 23 -17 4 -28 -43 -26 -66 -60 -66 -97 0 -43 62 -175 139 -294 28 -44 54 -95 57 -113 10 -51 20 -40 32 35 35 214 37 406 5 515 -52 179 -219 362 -393 433 -133 54 -470 96 -498 62z"
       id="path406"
       style="fill:#cc3300" />
    <path
       d="M6030 2445 c0 -3 11 -27 24 -53 71 -142 76 -236 23 -444 -66 -254 -70 -340 -20 -444 35 -75 128 -155 103 -89 -25 64 -33 258 -22 470 13 224 6 351 -24 455 -23 78 -41 110 -64 110 -11 0 -20 -2 -20 -5z"
       id="path408"
       style="fill:#00cc99" />
    <path
       d="M5969 2436 c-3 -3 -85 -14 -184 -25 -98 -12 -184 -26 -189 -31 -6 -6 -11 -39 -11 -73 0 -50 6 -72 29 -112 105 -182 122 -232 133 -388 5 -87 10 -104 36 -144 17 -25 51 -59 75 -74 43 -27 139 -65 147 -58 2 2 -2 26 -8 52 -14 65 1 188 48 371 52 207 47 289 -26 439 -21 42 -37 56 -50 43z"
       id="path410"
       style="fill:#009966" />
    <path
       d="M1685 2405 c-5 -2 -23 -6 -40 -10 -29 -7 -28 -8 30 -29 82 -30 143 -74 212 -153 93 -107 112 -123 145 -123 30 0 30 0 14 24 -8 14 -39 64 -67 113 -56 95 -99 147 -141 169 -24 12 -125 18 -153 9z"
       id="path412"
       style="fill:#99ff66" />
    <path
       d="M4710 2399 c-23 -10 -19 -13 60 -39 47 -15 108 -39 135 -52 151 -72 182 -100 49 -44 -95 40 -260 96 -282 96 -8 0 16 -20 54 -45 38 -24 65 -45 61 -45 -4 0 -41 16 -83 36 l-75 35 -34 -30 c-19 -17 -53 -36 -76 -42 -38 -12 -41 -15 -36 -43 3 -17 35 -109 72 -205 36 -95 64 -175 62 -177 -7 -7 -112 232 -143 326 -37 112 -41 82 -10 -71 14 -67 24 -124 23 -126 -8 -7 -59 170 -64 221 -6 56 -6 56 -40 56 -41 0 -61 -10 -105 -51 -18 -17 -49 -39 -69 -49 -91 -48 -207 -335 -196 -486 8 -110 113 -301 187 -339 32 -17 45 -10 64 37 16 38 57 284 77 463 17 150 32 169 24 30 -7 -135 -50 -432 -71 -502 -16 -51 -16 -53 15 -158 54 -182 110 -266 214 -319 67 -34 111 -41 164 -27 53 15 69 52 83 203 6 62 12 114 14 116 9 8 18 -131 12 -185 -4 -39 -2 -66 6 -83 20 -38 96 -61 218 -67 96 -5 110 -3 167 20 75 31 169 92 190 123 14 22 13 27 -16 72 -33 51 -201 395 -245 500 -112 266 -95 236 169 -303 52 -104 100 -198 107 -208 13 -17 16 -16 50 16 l37 34 -45 44 c-25 24 -66 76 -91 116 -42 69 -138 272 -131 279 2 2 19 -25 37 -59 109 -200 178 -303 236 -349 23 -17 26 -18 54 -3 61 31 111 166 96 261 -4 26 -31 83 -72 151 -137 225 -157 294 -108 368 l26 37 -22 44 c-20 42 -22 76 -5 114 10 23 -55 93 -138 149 -165 112 -306 162 -471 167 -66 2 -120 0 -135 -7z"
       id="path414"
       style="fill:#ff0000" />
    <path
       d="M5400 2385 c0 -2 16 -15 35 -28 19 -13 53 -40 75 -61 21 -20 40 -36 42 -36 2 0 4 29 4 65 l1 65 -78 0 c-44 0 -79 -2 -79 -5z"
       id="path416"
       style="fill:none" />
    <path
       d="M6135 2375 c27 -79 36 -181 33 -350 -8 -479 0 -576 54 -678 62 -116 165 -207 488 -429 52 -36 119 -87 148 -113 28 -26 52 -45 52 -42 0 2 -13 35 -28 73 -30 72 -75 208 -162 484 -94 299 -239 619 -372 820 -60 92 -227 275 -213 235z"
       id="path418"
       style="fill:#009966" />
    <path
       d="M1435 2346 c-75 -18 -166 -57 -276 -119 -91 -51 -264 -175 -256 -183 3 -3 28 6 55 20 189 96 527 119 870 60 52 -9 95 -14 97 -12 2 2 -21 33 -50 69 -57 70 -137 130 -207 155 -61 22 -163 26 -233 10z"
       id="path420"
       style="fill:#99cc00" />
    <path
       d="M3325 2268 c-94 -55 -220 -115 -310 -148 -274 -99 -432 -218 -475 -357 -39 -128 -16 -273 31 -187 22 43 92 97 189 149 125 67 174 129 188 243 l7 57 59 7 c83 11 129 36 231 128 49 44 104 86 122 92 36 13 40 20 21 36 -9 7 -27 1 -63 -20z"
       id="path422"
       style="fill:#cc3300" />
    <path
       d="M3375 2221 c-22 -10 -76 -51 -119 -91 -86 -78 -157 -117 -226 -124 l-44 -4 -12 -62 c-24 -114 -80 -183 -202 -244 -127 -64 -192 -131 -192 -196 0 -21 1 -21 30 4 41 34 138 79 246 115 152 49 165 44 29 -12 -165 -68 -225 -99 -270 -139 -96 -84 -99 -205 -6 -310 31 -35 32 -36 91 -31 101 10 170 -39 170 -119 0 -36 2 -40 22 -35 11 3 36 0 54 -8 35 -14 53 -45 89 -148 20 -56 58 -105 93 -118 35 -14 96 6 126 41 14 17 29 54 36 87 22 112 43 178 67 220 54 93 174 190 405 327 168 100 213 165 221 321 5 114 37 228 96 340 20 39 37 73 39 78 2 4 -17 7 -41 7 -38 0 -49 -5 -71 -31 -14 -17 -35 -60 -45 -97 -11 -37 -29 -98 -41 -137 l-20 -70 5 62 c8 83 30 167 60 226 24 46 24 47 4 47 -27 0 -53 -31 -90 -105 -16 -33 -29 -53 -29 -44 0 26 28 98 50 129 25 34 25 40 2 40 -35 0 -94 -110 -187 -353 -30 -75 -70 -166 -90 -202 -39 -70 -58 -89 -26 -27 10 20 49 118 86 217 71 190 110 274 156 341 l28 41 -30 22 c-19 15 -39 21 -52 17 -12 -3 -63 -42 -112 -87 -50 -44 -108 -96 -130 -114 -40 -33 -155 -101 -155 -92 0 2 39 37 88 76 48 39 119 100 157 136 l70 66 -55 -27 c-30 -15 -73 -39 -95 -54 -63 -42 -72 -45 -45 -16 14 16 45 42 70 59 l45 31 -35 7 c-19 4 -60 19 -90 33 -65 31 -73 31 -125 7z"
       id="path424"
       style="fill:#ff0000" />
    <path
       d="M2777 2109 c-43 -16 -115 -36 -160 -44 -195 -37 -181 -31 -242 -96 -52 -57 -195 -262 -195 -281 0 -4 12 -8 28 -8 15 0 68 -9 119 -21 57 -13 105 -19 127 -15 32 6 34 9 40 60 19 146 126 265 332 367 68 34 124 64 124 66 0 13 -109 -4 -173 -28z"
       id="path426"
       style="fill:#99cc00" />
    <path
       d="M1275 2119 c-104 -10 -217 -37 -293 -71 l-54 -23 124 0 c107 0 135 -4 218 -30 132 -41 240 -41 322 -2 32 16 73 47 93 70 l36 42 -38 6 c-71 12 -318 17 -408 8z"
       id="path428"
       style="fill:#99cc00" />
    <path
       d="M1711 2049 c-25 -30 -65 -61 -97 -76 -29 -15 -51 -30 -48 -35 8 -13 93 -9 123 6 48 25 131 133 114 150 -18 18 -52 2 -92 -45z"
       id="path430"
       style="fill:#99ff66" />
    <path
       d="M1816 2043 c-29 -57 -88 -117 -134 -136 l-33 -14 36 -27 c20 -15 60 -60 90 -100 64 -85 89 -101 142 -93 54 9 79 32 156 138 37 52 94 122 127 157 33 34 60 64 60 66 0 2 -46 6 -102 9 -87 5 -200 21 -295 42 -19 4 -27 -3 -47 -42z"
       id="path432"
       style="fill:#99cc00" />
    <path
       d="M6450 2041 c0 -23 120 -112 235 -176 193 -107 279 -184 351 -318 l34 -62 0 91 c0 120 -17 169 -81 229 -59 55 -157 102 -289 139 -52 15 -130 45 -172 66 -43 22 -78 36 -78 31z"
       id="path434"
       style="fill:#00cc99" />
    <path
       d="M2315 2021 c-50 -23 -136 -112 -205 -211 -29 -41 -64 -87 -78 -102 l-26 -28 61 0 c71 0 65 -5 161 140 38 58 90 128 115 156 26 29 47 55 47 58 0 12 -35 5 -75 -13z"
       id="path436"
       style="fill:#99ff66" />
    <path
       d="M6520 1917 c0 -2 22 -51 49 -108 78 -168 134 -318 214 -575 75 -239 142 -432 157 -447 4 -4 10 29 13 75 4 60 18 123 52 228 58 182 66 260 37 357 -41 133 -149 260 -292 343 -41 23 -106 61 -145 84 -79 47 -85 49 -85 43z"
       id="path438"
       style="fill:#009966" />
    <path
       d="M1895 1631 c-87 -23 -193 -109 -234 -189 -20 -40 -54 -152 -48 -159 2 -1 35 13 73 32 118 60 176 70 369 68 l170 -3 90 44 c49 24 112 51 138 61 27 10 51 24 54 31 2 6 0 30 -6 51 l-11 40 -52 -5 c-30 -2 -86 4 -128 13 -82 19 -364 30 -415 16z"
       id="path440"
       style="fill:#33cc00" />
    <path
       d="M3977 1531 c-25 -56 -81 -110 -173 -166 -220 -135 -264 -165 -330 -227 -76 -73 -118 -139 -128 -205 -8 -55 6 -89 38 -95 26 -5 216 23 291 43 106 28 235 132 298 239 52 90 72 248 47 381 -14 71 -23 77 -43 30z"
       id="path442"
       style="fill:#cc3300" />
    <path
       d="M2517 1459 c-24 -39 -45 -115 -72 -265 -36 -205 -69 -282 -142 -343 -45 -37 -30 -40 35 -7 90 47 179 164 198 263 3 18 -2 67 -11 110 -19 86 -16 150 11 206 13 27 15 40 7 48 -8 8 -15 5 -26 -12z"
       id="path444"
       style="fill:#33ff66" />
    <path
       d="M2405 1431 c-107 -50 -179 -145 -255 -336 -38 -96 -84 -188 -122 -243 -17 -24 -28 -45 -25 -48 2 -2 50 2 105 10 118 16 176 45 222 107 38 53 54 105 84 274 23 127 41 199 61 248 9 23 1 21 -70 -12z"
       id="path446"
       style="fill:#33cc00" />
    <path
       d="M1910 1354 c-61 -10 -159 -39 -204 -61 -68 -34 -144 -108 -156 -152 -17 -61 -12 -65 33 -29 107 88 218 136 385 168 62 11 132 31 155 43 l42 22 -65 6 c-72 7 -152 8 -190 3z"
       id="path448"
       style="fill:#33ff66" />
    <path
       d="M2179 1313 c-30 -20 -57 -41 -61 -47 -4 -6 -24 -58 -44 -116 -53 -156 -126 -291 -198 -368 -45 -47 -55 -63 -38 -58 12 3 31 8 41 11 58 17 162 173 237 356 56 138 79 184 111 227 31 42 18 41 -48 -5z"
       id="path450"
       style="fill:#33ff66" />
    <path
       d="M1940 1245 c-217 -44 -388 -161 -465 -318 -35 -71 -88 -259 -99 -349 -7 -61 7 -56 54 18 135 214 364 469 565 631 44 36 40 37 -55 18z"
       id="path452"
       style="fill:#33cc00" />
    <path
       d="M1975 1168 c-167 -140 -332 -322 -489 -541 -43 -59 -85 -111 -95 -117 -18 -9 -36 -50 -22 -50 8 0 111 66 197 126 33 22 101 69 152 104 110 74 172 140 229 241 45 78 127 283 121 301 -2 6 -44 -23 -93 -64z"
       id="path454"
       style="fill:#33cc00" />
    <path
       d="M2575 1104 c18 -129 44 -184 121 -252 83 -74 204 -133 287 -139 37 -3 67 -3 67 0 0 3 -9 21 -19 39 -11 18 -27 59 -37 91 -10 32 -29 70 -42 84 -20 21 -30 25 -63 20 -38 -5 -39 -4 -39 24 0 43 -25 95 -55 115 -18 12 -45 17 -92 16 -58 -1 -72 2 -101 24 l-34 26 7 -48z"
       id="path456"
       style="fill:#990000" />
    <path
       d="M2521 989 c-12 -28 -45 -72 -73 -100 -54 -54 -54 -58 0 -30 65 34 120 107 114 154 -5 38 -14 33 -41 -24z"
       id="path458"
       style="fill:#33ff66" />
    <path
       d="M3817 914 c-63 -43 -172 -75 -337 -98 -76 -11 -77 -14 -34 -97 109 -208 134 -279 134 -372 l0 -48 63 47 c179 138 230 215 245 370 11 114 3 236 -16 233 -4 -1 -29 -16 -55 -35z"
       id="path460"
       style="stroke:#336633;fill:#339933" />
    <path
       d="M2570 888 c-14 -11 -54 -34 -89 -51 -57 -27 -66 -35 -88 -84 -62 -136 -30 -329 74 -443 41 -46 53 -50 53 -15 0 35 50 130 98 189 54 65 134 129 209 169 35 17 63 34 63 37 0 3 -35 23 -77 45 -47 25 -104 66 -147 108 -39 37 -71 67 -71 67 0 -1 -11 -10 -25 -22z"
       id="path462"
       style="stroke:#336633;fill:#339933" />
    <path
       d="M3356 771 c-3 -5 12 -46 33 -92 67 -142 85 -230 86 -407 l0 -153 22 25 c48 57 66 198 39 306 -18 67 -146 328 -163 329 -6 1 -14 -3 -17 -8z"
       id="path464"
       style="fill:#336600" />
    <path
       d="M3278 715 c-37 -35 -90 -55 -144 -55 -42 0 -81 -33 -94 -78 -19 -67 -69 -315 -85 -422 -8 -58 -17 -117 -20 -132 l-4 -28 238 0 239 0 18 73 c28 105 25 302 -4 421 -18 73 -93 257 -104 256 -2 0 -19 -16 -40 -35z"
       id="path466"
       style="stroke:#336633;fill:#339933" />
    <path
       d="M2864 637 c-136 -74 -225 -158 -283 -267 -30 -56 -33 -69 -28 -119 5 -54 43 -171 56 -171 3 0 12 24 19 52 41 174 187 376 350 483 48 32 45 41 -13 50 -33 5 -51 0 -101 -28z"
       id="path468"
       style="fill:#336600" />
    <path
       d="M2970 573 c-62 -47 -141 -127 -185 -188 -82 -114 -145 -268 -145 -354 l0 -31 129 0 c140 0 141 0 141 60 0 45 39 265 72 403 16 71 28 130 26 132 -2 2 -19 -8 -38 -22z"
       id="path470"
       style="stroke:#336633;fill:#339933" />
  </g>
</svg>
