<?xml version="1.0" encoding="UTF-8" standalone="no"?>
<svg
   xmlns:dc="http://purl.org/dc/elements/1.1/"
   xmlns:cc="http://creativecommons.org/ns#"
   xmlns:rdf="http://www.w3.org/1999/02/22-rdf-syntax-ns#"
   xmlns:svg="http://www.w3.org/2000/svg"
   xmlns="http://www.w3.org/2000/svg"
   xmlns:sodipodi="http://sodipodi.sourceforge.net/DTD/sodipodi-0.dtd"
   xmlns:inkscape="http://www.inkscape.org/namespaces/inkscape"
   version="1.0"
   width="905.000000pt"
   height="905.000000pt"
   viewBox="0 0 905.000000 905.000000"
   preserveAspectRatio="xMidYMid meet"
   id="svg2"
   inkscape:version="0.91 r13725"
   sodipodi:docname="Florals_cc6.svg">
  <defs
     id="defs472" />
  <sodipodi:namedview
     pagecolor="#ffffff"
     bordercolor="#666666"
     borderopacity="1"
     objecttolerance="10"
     gridtolerance="10"
     guidetolerance="10"
     inkscape:pageopacity="0"
     inkscape:pageshadow="2"
     inkscape:window-width="1920"
     inkscape:window-height="980"
     id="namedview470"
     showgrid="false"
     inkscape:zoom="0.83447514"
     inkscape:cx="513.5266"
     inkscape:cy="709.87999"
     inkscape:window-x="0"
     inkscape:window-y="1"
     inkscape:window-maximized="1"
     inkscape:current-layer="svg2" />
  <metadata
     id="metadata4">
Created by potrace 1.14, written by Peter Selinger 2001-2017
<rdf:RDF>
  <cc:Work
     rdf:about="">
    <dc:format>image/svg+xml</dc:format>
    <dc:type
       rdf:resource="http://purl.org/dc/dcmitype/StillImage" />
  </cc:Work>
</rdf:RDF>
</metadata>
  <g
     transform="translate(0.000000,905.000000) scale(0.100000,-0.100000)"
     fill="#000000"
     stroke="none"
     id="g6">
    <path
       d="M0 4525 l0 -4525 4525 0 4525 0 0 4525 0 4525 -4525 0 -4525 0 0 -4525z m1907 3468 c13 -31 15 -63 10 -170 l-5 -132 64 54 c35 30 91 68 124 85 85 43 88 37 5 -9 -38 -22 -95 -62 -125 -91 l-55 -51 35 6 c26 5 15 -4 -46 -34 -60 -30 -96 -56 -137 -101 l-56 -60 20 -57 c11 -31 23 -87 26 -125 3 -37 10 -68 16 -68 5 0 31 18 58 41 103 86 174 238 167 359 -2 42 1 60 9 60 6 0 14 -4 18 -10 6 -9 -9 -146 -21 -189 -7 -22 -5 -23 17 -11 34 17 54 44 96 125 28 54 93 224 93 242 0 2 -10 3 -22 4 -18 1 -16 3 10 12 18 5 35 8 37 5 8 -8 -53 -174 -91 -252 -36 -70 -38 -91 -7 -64 35 30 42 29 59 -3 26 -51 16 -150 -24 -232 -64 -129 -214 -244 -341 -262 -49 -7 -51 -8 -51 -38 0 -55 57 -316 104 -477 75 -258 250 -756 275 -783 4 -4 20 21 35 56 l27 64 -50 52 c-93 95 -146 258 -111 341 39 95 187 143 303 98 58 -22 73 -112 37 -215 -11 -32 -20 -66 -20 -78 0 -22 48 -176 60 -188 3 -4 18 14 32 40 18 33 35 96 53 198 15 83 43 202 61 265 19 63 34 117 34 121 0 3 -28 -8 -61 -25 -43 -21 -81 -31 -123 -34 -70 -5 -146 12 -146 32 0 31 136 110 209 122 67 11 26 25 -87 31 -72 4 -113 1 -161 -12 -68 -17 -154 -56 -184 -83 -12 -11 -21 -12 -28 -5 -27 27 85 184 171 242 71 47 180 77 247 67 l46 -6 -90 93 c-61 63 -100 113 -122 158 -33 67 -71 222 -58 235 13 14 119 -15 162 -43 57 -37 117 -111 166 -205 22 -43 41 -78 42 -78 1 0 2 78 3 173 1 154 4 182 28 272 36 134 41 138 110 92 112 -74 153 -183 124 -327 -9 -41 -46 -157 -82 -258 -36 -100 -66 -192 -66 -205 0 -14 20 14 53 73 123 224 254 339 421 369 95 17 103 16 116 -24 16 -47 5 -90 -37 -152 -51 -75 -138 -142 -331 -253 -51 -29 -90 -55 -88 -57 3 -3 29 0 58 7 29 7 116 14 192 16 l139 5 81 44 c177 96 439 192 621 227 60 12 111 22 113 24 2 1 10 35 19 76 61 298 280 645 473 748 61 33 71 35 157 35 88 0 93 -1 122 -30 47 -44 56 -91 36 -187 -18 -91 -54 -186 -120 -320 -53 -108 -45 -101 87 69 141 181 322 341 430 379 97 34 196 7 245 -68 24 -36 28 -51 28 -117 0 -68 -4 -85 -41 -161 -52 -107 -142 -228 -240 -319 -75 -70 -75 -70 -47 -76 355 -77 667 -254 927 -524 38 -40 69 -70 71 -69 1 2 7 27 13 56 20 91 94 177 184 212 18 8 35 15 37 16 2 2 -19 47 -47 101 -28 54 -58 125 -68 158 -22 77 -22 177 1 232 22 54 109 135 162 151 140 42 358 -29 500 -161 72 -68 102 -113 119 -176 l11 -45 84 -13 c142 -22 244 -90 298 -198 47 -94 12 -221 -97 -348 -28 -32 -59 -65 -71 -73 -12 -8 -21 -18 -21 -23 0 -4 48 -7 108 -7 171 1 268 -47 309 -152 28 -73 25 -253 -6 -352 -45 -145 -139 -285 -235 -351 -32 -21 -35 -28 -30 -54 4 -16 12 -66 18 -110 l12 -80 33 0 c32 0 34 2 47 55 34 136 130 272 234 333 54 31 160 61 173 48 14 -14 -11 -150 -39 -211 -33 -72 -65 -113 -119 -150 -65 -44 -182 -88 -257 -96 l-67 -7 0 -168 c0 -93 -2 -177 -6 -189 -10 -33 11 -23 26 12 7 18 45 65 84 103 69 69 141 113 239 145 45 15 51 10 61 -57 14 -97 -25 -194 -109 -269 -27 -25 -113 -83 -191 -129 -78 -46 -146 -89 -151 -97 -6 -7 -25 -58 -43 -113 -18 -54 -48 -130 -67 -167 -19 -37 -34 -70 -34 -74 0 -3 21 10 48 29 54 40 134 81 176 91 28 7 29 6 22 -26 -10 -54 -54 -134 -102 -188 -56 -61 -158 -113 -259 -131 -56 -11 -85 -23 -144 -63 -65 -44 -103 -87 -90 -101 3 -2 50 11 104 31 100 35 186 56 283 68 l52 7 0 -168 c0 -109 -6 -202 -16 -263 -9 -52 -15 -104 -13 -115 1 -11 3 -47 3 -81 1 -52 -4 -68 -31 -112 -18 -29 -30 -52 -27 -52 23 0 130 92 186 158 l48 56 -35 29 c-52 43 -68 81 -68 162 -1 76 29 195 47 195 20 0 56 -30 74 -63 12 -22 19 -64 22 -137 l5 -105 48 96 c26 53 47 103 47 110 0 8 -22 33 -49 56 -91 78 -134 217 -111 353 15 86 65 192 115 240 l37 35 28 -34 c56 -66 88 -224 72 -361 -5 -41 -8 -76 -6 -78 1 -2 19 23 40 55 76 119 184 223 219 209 20 -7 20 -102 0 -176 -46 -175 -190 -321 -291 -296 -20 5 -26 1 -36 -21 -46 -110 -93 -200 -142 -272 -32 -47 -49 -78 -38 -70 11 8 54 40 96 72 117 89 172 111 281 112 l90 0 -1 -36 c-1 -43 -37 -119 -73 -153 -36 -34 -116 -72 -181 -85 -30 -7 -120 -14 -200 -18 -117 -4 -151 -9 -175 -24 l-30 -19 158 0 c93 0 157 -4 157 -10 0 -18 -44 -50 -99 -72 -43 -16 -79 -21 -156 -22 -88 -1 -105 2 -140 22 -40 24 -51 24 -138 1 -21 -6 -37 -12 -35 -15 12 -12 449 -59 641 -70 70 -4 127 -10 127 -14 0 -11 -227 -84 -355 -115 -168 -39 -170 -40 -166 -56 26 -106 -3 -192 -84 -245 -23 -15 -24 -20 -18 -73 12 -116 -52 -178 -194 -188 -56 -4 -84 -11 -98 -24 -27 -24 -88 -49 -119 -49 -20 0 -27 -7 -34 -32 -5 -18 -8 -36 -6 -39 2 -4 24 -2 49 4 94 21 211 -20 269 -95 81 -107 46 -237 -79 -289 l-55 -22 52 -26 c120 -60 109 -164 -24 -221 -52 -22 -115 -24 -162 -4 -16 6 -18 4 -11 -12 4 -10 10 -47 13 -82 5 -77 -15 -138 -66 -194 -37 -41 -137 -98 -169 -97 -10 0 5 9 33 20 72 27 136 87 164 150 28 66 24 152 -10 222 -12 26 -20 50 -17 53 3 3 22 -7 42 -22 55 -41 138 -46 198 -11 71 42 88 102 44 156 -17 20 -107 61 -136 61 -39 0 -12 16 51 29 77 16 118 46 142 103 18 44 18 48 2 99 -39 119 -125 176 -251 166 -38 -3 -81 -9 -94 -13 -21 -6 -23 -5 -17 12 37 90 26 177 -31 244 -84 98 -214 108 -284 22 -13 -16 -29 -38 -35 -48 -11 -18 -12 -18 -31 -1 -40 36 -87 13 -81 -40 4 -36 64 -70 213 -119 148 -48 144 -46 123 -51 -22 -5 -210 58 -285 95 -75 38 -173 112 -218 165 -33 38 -36 40 -52 24 -13 -13 -14 -21 -6 -39 19 -41 143 -178 214 -236 59 -49 263 -184 294 -196 6 -2 7 -7 3 -11 -10 -11 -211 114 -306 190 -62 50 -201 198 -228 243 -3 6 -44 -22 -44 -30 0 -10 109 -137 205 -237 111 -116 281 -269 400 -358 92 -70 117 -93 100 -93 -27 0 -289 216 -444 366 l-144 139 46 -85 c109 -201 237 -560 200 -560 -5 0 -22 46 -37 103 -59 213 -177 464 -304 645 -46 65 -49 67 -71 53 -11 -7 -2 -32 44 -127 71 -147 137 -342 169 -504 33 -167 41 -240 27 -240 -6 0 -11 4 -11 9 0 6 -11 74 -25 153 -38 223 -95 397 -192 594 -47 93 -55 102 -82 85 -12 -8 -8 -23 22 -89 70 -153 96 -307 97 -564 0 -181 -15 -121 -27 104 -12 224 -28 311 -77 423 -28 62 -60 79 -105 54 -22 -12 -27 -24 -31 -69 l-5 -54 -74 -28 c-84 -31 -117 -58 -156 -130 -60 -109 -27 -190 78 -195 28 -1 53 -2 54 -3 2 0 -15 -24 -37 -52 -22 -30 -49 -81 -60 -117 -22 -69 -26 -183 -10 -243 21 -73 103 -112 183 -88 40 12 109 69 119 100 11 33 18 0 9 -46 -16 -84 8 -150 73 -198 21 -16 45 -22 109 -24 91 -3 134 12 172 62 27 37 26 124 -4 190 -12 27 -19 51 -17 54 10 9 28 -13 66 -83 82 -149 112 -177 212 -195 l53 -9 -57 4 c-78 5 -124 29 -166 88 l-35 49 -12 -46 c-14 -56 -37 -83 -90 -106 -91 -40 -207 -32 -267 18 -38 32 -67 95 -68 145 l0 38 -27 -19 c-76 -54 -184 -53 -239 2 -77 77 -65 279 25 409 17 25 31 48 31 51 0 3 -16 6 -35 6 -24 0 -35 -5 -35 -14 0 -8 -14 -29 -32 -46 -91 -92 -321 -114 -447 -44 -52 29 -61 30 -61 6 0 -49 -34 -113 -81 -156 -59 -53 -121 -76 -203 -76 -231 1 -436 157 -436 332 l0 28 -79 0 c-97 0 -189 27 -262 75 -28 20 -53 34 -55 32 -2 -2 -14 -23 -27 -48 -52 -97 -161 -146 -308 -136 l-87 6 17 -32 c22 -44 19 -123 -6 -173 -35 -67 -110 -141 -212 -209 -101 -67 -226 -129 -246 -121 -17 6 -39 213 -31 297 l6 70 -47 -36 c-64 -49 -193 -109 -277 -130 -128 -31 -436 -13 -436 26 0 26 97 155 205 274 65 72 131 148 147 170 69 93 51 88 -55 -18 -124 -124 -228 -202 -359 -272 l-87 -46 -15 23 c-39 60 -106 286 -106 357 0 3 -19 5 -43 3 -53 -4 -86 19 -95 67 l-7 34 -54 -49 c-75 -69 -127 -101 -183 -114 -42 -11 -53 -10 -92 9 -79 39 -93 112 -35 185 l19 24 -43 -1 c-55 -2 -77 15 -77 60 0 28 9 44 40 75 22 22 40 42 40 44 0 2 -41 4 -91 4 -108 0 -163 14 -190 49 -30 38 -19 77 37 129 l46 42 -45 0 c-30 0 -53 7 -71 21 -58 46 -8 107 105 131 33 7 59 15 59 19 0 4 -14 13 -32 20 -116 48 -154 186 -72 259 31 27 88 50 126 50 49 0 46 14 -12 41 -45 21 -64 37 -77 63 -15 33 -15 36 1 61 9 14 28 31 42 37 26 12 32 28 11 28 -22 0 -77 58 -97 102 -36 78 -21 173 41 259 l21 29 -33 41 -32 41 24 19 c13 10 53 33 89 51 36 18 67 34 68 35 2 1 -20 26 -50 56 -62 63 -105 132 -158 254 -49 115 -80 228 -87 318 -7 92 2 141 33 172 52 52 90 -13 160 -272 6 -22 10 3 14 90 5 91 11 131 27 167 24 52 56 76 78 58 21 -18 35 -126 35 -282 l0 -146 48 -4 c26 -3 48 -4 50 -2 2 1 -6 37 -17 80 -43 173 -50 313 -20 413 11 37 10 43 -31 118 -85 157 -124 214 -150 219 -55 12 -81 28 -132 84 -68 74 -96 108 -92 112 2 2 -4 26 -12 53 -28 91 -1 159 75 191 60 25 113 13 157 -38 43 -50 77 -262 57 -353 -9 -36 -6 -45 22 -90 17 -27 53 -89 79 -137 46 -86 58 -99 71 -78 3 6 15 10 26 10 10 0 19 1 19 3 0 16 -86 166 -102 178 -25 20 -19 45 16 60 47 22 75 -13 41 -51 -14 -15 -13 -22 5 -66 31 -72 66 -114 96 -114 28 0 28 4 12 65 -10 35 -9 52 1 80 l12 35 -64 70 c-136 147 -207 352 -207 600 0 102 6 140 23 140 5 0 43 -16 84 -36 41 -19 76 -34 78 -32 3 3 -16 160 -21 166 -1 2 -32 -6 -69 -17 -199 -62 -347 26 -370 219 -7 58 9 186 26 206 11 14 46 7 98 -20 l32 -17 -6 68 c-8 74 13 185 39 211 20 20 121 -34 185 -98 27 -27 53 -50 56 -50 3 0 5 10 5 23 1 41 41 112 92 160 28 26 57 47 65 47 19 0 49 -71 63 -152 8 -44 17 -68 25 -68 21 0 30 -85 17 -154 -22 -119 -114 -260 -203 -313 -34 -20 -35 -35 -15 -156 l13 -78 70 -69 71 -69 6 92 c9 117 23 211 47 312 28 111 49 175 59 175 5 0 14 -19 20 -42 26 -104 55 -190 95 -288 44 -107 171 -380 177 -380 2 0 3 62 3 138 l-1 137 -68 170 c-175 435 -288 854 -322 1188 -5 55 -9 67 -22 62 -88 -34 -250 -32 -344 5 -116 43 -211 164 -240 301 -17 80 -11 89 60 89 33 0 79 3 104 6 l45 6 -33 49 c-41 61 -58 141 -49 227 13 120 69 262 103 262 24 0 115 -63 164 -113 45 -46 107 -137 128 -186 7 -17 16 -31 19 -31 4 0 13 30 20 66 17 97 61 185 120 244 27 27 57 50 66 50 9 0 23 -16 32 -37z m1475 -209 c57 -19 116 -76 124 -120 13 -71 -48 -156 -132 -185 -53 -18 -142 -16 -181 5 -46 23 -82 65 -89 103 -13 69 48 175 116 202 38 15 111 13 162 -5z m-819 -23 c121 -46 61 -191 -78 -191 -38 0 -52 5 -76 29 -51 51 -31 118 46 152 45 21 72 23 108 10z m5357 -3291 c39 -42 53 -91 47 -165 -5 -65 -38 -150 -74 -195 -27 -31 -41 -20 -83 63 -49 98 -40 192 27 290 31 45 46 46 83 7z m-1353 -3376 c-3 -3 -12 -4 -19 -1 -8 3 -5 6 6 6 11 1 17 -2 13 -5z"
       id="path8"
       style="fill:#333300" />
    <path
       d="M1815 7968 c-68 -80 -109 -199 -120 -355 -9 -115 0 -120 77 -47 35 33 73 66 84 72 18 9 23 27 34 107 12 91 10 209 -5 248 -11 27 -31 20 -70 -25z"
       id="path10"
       style="fill:#99cc33" />
    <path
       d="M1336 7953 c-31 -60 -59 -179 -60 -248 0 -125 58 -238 132 -251 31 -6 32 -6 32 28 0 91 53 258 82 258 11 0 92 -91 120 -134 18 -27 17 7 -2 57 -41 108 -142 236 -232 293 -48 30 -54 30 -72 -3z"
       id="path12"
       style="fill:#99cc33" />
    <path
       d="M4628 7876 c-183 -65 -377 -323 -484 -641 -19 -57 -37 -124 -40 -149 -7 -46 -6 -46 22 -45 53 1 126 16 133 28 4 6 13 40 20 75 29 146 103 238 172 214 57 -20 71 -82 44 -193 -21 -89 -23 -86 42 -83 l56 3 102 200 c184 360 213 535 99 590 -39 18 -116 19 -166 1z"
       id="path14"
       style="fill:#336666" />
    <path
       d="M5277 7795 c-150 -56 -381 -297 -615 -642 l-43 -63 100 0 99 0 33 53 c85 139 170 217 236 217 82 0 83 -99 2 -217 -16 -23 -29 -46 -29 -51 0 -6 21 -12 48 -14 43 -4 52 -1 100 35 182 138 343 415 318 548 -21 113 -136 175 -249 134z"
       id="path16"
       style="fill:#336666" />
    <path
       d="M1488 7638 c-16 -52 -22 -99 -23 -163 0 -79 3 -97 28 -148 29 -59 77 -97 140 -113 l29 -7 -17 33 c-22 42 -15 101 22 182 l27 60 -22 42 c-26 48 -138 186 -152 186 -5 0 -20 -33 -32 -72z"
       id="path18"
       style="fill:#99cc33" />
    <path
       d="M2083 7502 c-77 -48 -99 -67 -133 -120 -25 -36 -72 -87 -116 -123 -69 -56 -78 -60 -129 -62 -66 -2 -70 -15 -20 -63 71 -66 153 -69 274 -8 83 41 162 122 206 209 25 50 30 72 30 132 0 40 -4 76 -10 82 -6 6 -43 -11 -102 -47z"
       id="path20"
       style="fill:#99cc33" />
    <path
       d="M2692 7543 c-5 -10 -17 -48 -26 -84 -42 -172 -44 -341 -5 -570 30 -178 30 -178 71 -53 20 60 58 170 84 244 41 117 47 145 47 215 1 114 -33 177 -130 244 -30 20 -33 21 -41 4z"
       id="path22"
       style="fill:#9999ff" />
    <path
       d="M1685 7417 c-45 -109 -40 -174 15 -197 39 -16 50 -6 50 41 0 50 -28 177 -41 185 -5 3 -16 -10 -24 -29z"
       id="path24"
       style="fill:#99cc33" />
    <path
       d="M1172 7433 c-33 -4 -33 -5 -27 -46 26 -154 129 -280 264 -323 67 -22 208 -25 264 -5 43 15 46 25 13 46 -13 9 -36 34 -50 55 -14 22 -43 48 -64 59 -66 34 -112 98 -126 172 -5 27 -13 38 -29 43 -24 6 -190 5 -245 -1z"
       id="path26"
       style="fill:#99cc33" />
    <path
       d="M6530 7394 c-43 -14 -90 -38 -90 -45 0 -5 16 -16 36 -24 93 -39 245 -163 306 -252 13 -18 27 -33 32 -33 9 0 2 131 -10 183 -7 30 9 38 21 10 4 -10 10 -67 13 -128 4 -108 5 -112 56 -216 29 -58 65 -149 81 -202 26 -90 29 -95 47 -83 37 26 118 138 153 212 37 77 56 94 35 30 -17 -54 -86 -155 -147 -217 l-55 -57 17 -98 c9 -55 20 -165 22 -246 5 -140 7 -148 29 -163 22 -14 27 -13 86 28 91 63 188 121 193 115 2 -2 -48 -38 -112 -79 -64 -41 -118 -78 -120 -84 -1 -5 16 -23 38 -39 96 -67 218 -264 271 -433 12 -40 27 -73 34 -73 21 0 129 114 166 176 101 166 137 399 81 525 -47 106 -140 145 -325 136 -65 -3 -118 -4 -118 -4 0 1 38 41 84 88 106 109 151 193 151 283 0 74 -19 117 -83 180 -67 67 -135 97 -235 105 l-82 6 -7 44 c-20 117 -154 247 -327 317 -90 37 -194 53 -241 38z m986 -1286 c99 -88 112 -245 27 -339 -45 -49 -68 -48 -104 6 -60 87 -70 213 -26 309 31 67 49 71 103 24z"
       id="path28"
       style="fill:#663300" />
    <path
       d="M7434 6095 c-49 -119 -35 -243 41 -340 22 -27 43 -12 78 56 25 47 28 62 24 121 -3 47 -11 79 -30 110 -22 37 -75 88 -92 88 -3 0 -13 -16 -21 -35z"
       id="path30"
       style="fill:#cc3300" />
    <path
       d="M4383 7328 c-42 -46 -93 -178 -93 -241 0 -29 1 -29 38 -23 20 3 54 6 75 6 34 0 40 4 53 35 39 95 41 188 3 226 -25 25 -51 24 -76 -3z"
       id="path32"
       style="fill:#003366" />
    <path
       d="M5045 7338 c-58 -32 -195 -202 -195 -243 0 -3 40 -5 89 -5 90 0 90 0 115 33 34 45 76 137 76 168 0 28 -27 59 -51 59 -8 0 -23 -6 -34 -12z"
       id="path34"
       style="fill:#003366" />
    <path
       d="M2266 7322 c-8 -13 20 -135 45 -192 29 -67 85 -137 184 -230 44 -41 98 -96 120 -122 22 -26 43 -47 46 -47 10 -1 -8 73 -47 188 -69 208 -156 335 -264 385 -58 27 -76 31 -84 18z"
       id="path36"
       style="fill:#9999ff" />
    <path
       d="M6397 7312 c-32 -35 -57 -106 -57 -164 0 -90 18 -151 81 -276 32 -64 56 -119 51 -123 -4 -4 -24 -12 -45 -19 -20 -6 -62 -34 -91 -61 -67 -61 -91 -115 -84 -191 4 -46 15 -69 85 -174 44 -66 88 -141 99 -167 17 -42 23 -47 59 -52 152 -25 293 -169 372 -380 l34 -90 -6 71 c-8 95 -46 259 -85 367 -29 78 -34 87 -57 87 -91 0 -209 93 -231 182 -26 101 -7 169 58 217 l35 26 -36 -41 c-40 -46 -54 -95 -44 -158 12 -67 18 -73 83 -78 39 -3 69 -11 89 -26 39 -28 43 -28 43 3 0 41 24 88 64 123 20 17 40 32 44 32 4 0 13 4 20 9 11 7 10 16 -7 49 -22 44 -68 83 -116 100 -21 7 -24 11 -10 11 33 1 100 -34 124 -65 36 -46 51 -92 51 -158 0 -76 -26 -136 -80 -185 l-40 -36 40 -111 c47 -136 77 -286 86 -434 4 -61 10 -107 14 -103 19 20 59 156 65 219 4 38 2 103 -4 144 -11 81 0 202 21 227 23 28 -13 434 -43 469 -15 18 -104 54 -173 70 l-61 14 52 -5 c28 -3 77 -14 109 -25 31 -11 60 -20 65 -20 19 0 -48 195 -107 311 -40 81 -61 94 -171 108 -66 8 -67 9 -18 9 28 1 67 -2 88 -7 20 -5 37 -5 37 0 0 12 -91 119 -146 169 -56 52 -120 98 -181 129 -51 26 -56 26 -76 3z"
       id="path38"
       style="fill:#663300" />
    <path
       d="M3165 7176 c-110 -35 -212 -118 -289 -236 -45 -68 -147 -262 -141 -268 14 -14 397 221 470 289 76 71 97 112 93 177 l-3 47 -45 2 c-25 1 -63 -4 -85 -11z"
       id="path40"
       style="fill:#9999ff" />
    <path
       d="M4625 7069 c-498 -19 -865 -97 -1197 -256 -76 -37 -138 -70 -138 -74 0 -4 26 -12 58 -18 31 -6 108 -28 170 -47 111 -36 113 -37 95 -56 -27 -30 -105 -66 -180 -84 -54 -13 -100 -15 -224 -10 -86 3 -164 8 -174 12 -37 15 -4 -14 47 -41 99 -52 204 -139 265 -220 49 -64 103 -172 103 -205 0 -37 -16 -20 -35 38 -72 212 -321 410 -584 464 -51 10 -95 17 -98 15 -12 -12 103 -164 191 -253 147 -147 258 -226 391 -276 l50 -19 -40 5 c-89 12 -240 108 -389 247 -42 39 -76 67 -76 62 0 -4 11 -41 25 -82 32 -93 54 -223 62 -368 8 -143 -2 -146 -85 -25 -67 98 -99 159 -132 250 -12 34 -26 62 -30 62 -15 0 -20 -65 -10 -154 11 -96 21 -157 73 -461 l33 -189 53 3 c72 4 143 -32 214 -109 30 -32 58 -56 61 -53 3 4 6 23 6 42 0 20 6 61 14 91 12 48 12 56 -2 78 -15 23 -15 26 8 44 26 21 64 18 89 -7 20 -19 7 -44 -33 -60 -30 -13 -36 -21 -45 -65 -13 -58 -15 -180 -3 -180 4 1 23 14 42 30 51 44 70 40 70 -15 0 -25 5 -45 10 -45 6 0 27 11 48 24 67 44 179 57 268 31 19 -6 22 -2 28 42 8 59 36 107 78 133 40 24 60 25 98 5 63 -33 76 -111 35 -210 -14 -33 -25 -60 -25 -60 0 0 37 2 82 3 85 4 182 -14 240 -44 25 -13 28 -13 28 2 0 9 -27 107 -60 218 -33 110 -69 244 -80 296 -27 123 -36 278 -21 351 25 117 111 204 202 204 42 0 53 -5 88 -39 22 -21 45 -52 52 -67 6 -16 12 -29 13 -29 0 0 33 7 71 15 39 8 91 15 117 15 42 0 49 3 62 28 29 56 71 85 131 90 142 12 235 -87 281 -298 8 -36 17 -138 21 -227 l6 -161 74 5 c40 3 73 4 73 2 0 -2 -16 -47 -35 -101 -19 -53 -37 -120 -40 -150 l-6 -53 21 25 c28 31 77 129 100 195 9 28 23 50 31 50 7 0 31 -36 54 -80 22 -44 43 -81 47 -83 3 -2 -18 -27 -47 -55 -43 -42 -57 -64 -70 -111 -22 -74 -15 -163 20 -273 l24 -78 48 -15 c62 -20 99 -67 115 -145 7 -33 13 -61 14 -63 1 -2 24 12 51 32 27 19 71 40 99 47 81 19 89 24 141 93 66 89 86 148 81 234 -5 89 -42 167 -111 236 -63 63 -117 93 -201 111 -33 7 -53 14 -43 14 25 1 22 27 -18 137 -51 140 -94 206 -121 183 -17 -14 -19 -97 -3 -152 8 -29 54 -135 76 -178 2 -4 -4 -9 -14 -11 -12 -3 -19 1 -20 11 -1 9 -18 56 -38 105 -44 105 -52 191 -21 225 11 12 27 21 37 21 24 0 67 -54 96 -119 l24 -54 17 34 c12 24 25 35 43 37 23 3 29 -3 43 -38 9 -23 19 -81 23 -129 l6 -89 64 -42 c62 -41 135 -120 148 -160 7 -20 17 -25 83 -35 l43 -7 -46 65 c-139 200 -165 446 -70 656 21 46 22 52 7 46 -72 -31 -101 -37 -159 -31 -76 6 -98 17 -123 59 -38 61 -15 135 57 183 71 47 187 38 249 -21 28 -27 34 -39 34 -75 l0 -42 60 55 c75 70 195 131 289 148 39 7 73 10 75 8 2 -2 -2 -33 -10 -69 -15 -71 -34 -309 -26 -324 3 -5 35 83 72 195 64 195 66 206 53 239 -56 142 -266 400 -453 555 -203 168 -445 290 -695 351 -91 22 -336 46 -420 42 -16 -1 -115 -5 -220 -9z m715 -914 c32 -34 41 -132 16 -171 -38 -57 -96 3 -96 101 0 52 20 95 44 95 7 0 23 -11 36 -25z m-1640 -47 c41 -67 16 -204 -33 -185 -47 18 -73 130 -45 192 17 37 53 33 78 -7z m-341 -173 c61 -31 92 -108 68 -167 -42 -100 -180 -137 -290 -76 -101 56 -89 182 24 241 47 25 61 28 112 23 32 -3 71 -12 86 -21z m2049 -1041 c-5 -28 -28 -29 -28 -1 0 13 3 27 7 31 10 10 25 -10 21 -30z m250 -15 c-1 -13 -7 -23 -13 -22 -13 3 -18 30 -11 50 10 24 29 1 24 -28z m-211 -40 c-14 -52 34 -70 52 -19 5 17 12 30 15 30 3 0 12 -16 20 -35 8 -19 22 -35 30 -35 12 0 16 10 16 35 0 19 5 35 10 35 6 0 10 -16 10 -35 0 -46 -30 -64 -67 -40 -18 12 -28 14 -36 6 -18 -18 -55 -13 -67 10 -13 24 -5 69 11 69 7 0 9 -9 6 -21z"
       id="path42"
       style="fill:#336699" />
    <path
       d="M3159 5917 c-68 -45 -88 -140 -39 -192 40 -42 148 -58 214 -31 69 29 96 107 61 176 -35 67 -167 93 -236 47z"
       id="path44"
       style="fill:#660000" />
    <path
       d="M1761 6991 c-3 -102 70 -457 146 -701 45 -148 192 -551 221 -605 l15 -30 9 33 c7 27 2 49 -28 125 -175 444 -296 839 -353 1162 -7 42 -9 45 -10 16z"
       id="path46"
       style="fill:#336633" />
    <path
       d="M2333 6825 c-64 -20 -124 -58 -175 -113 -43 -46 -96 -132 -82 -132 4 0 34 13 68 30 139 67 281 76 441 27 93 -29 100 -24 64 51 -32 66 -94 130 -138 142 -49 13 -127 12 -178 -5z"
       id="path48"
       style="fill:#9999ff" />
    <path
       d="M2965 6714 c-148 -23 -326 -114 -222 -114 18 0 86 -11 152 -25 158 -32 376 -48 476 -36 82 11 170 40 209 70 l24 19 -86 26 c-151 46 -218 57 -373 61 -82 2 -163 1 -180 -1z"
       id="path50"
       style="fill:#9999ff" />
    <path
       d="M2453 6581 c-52 -17 -123 -64 -123 -81 0 -16 73 -32 121 -27 27 3 70 15 96 27 51 23 116 78 107 92 -9 15 -147 8 -201 -11z"
       id="path52"
       style="fill:#9999ff" />
    <path
       d="M2674 6567 c-7 -20 33 -280 56 -365 11 -41 33 -102 49 -136 34 -75 129 -226 142 -226 6 0 7 31 4 78 -21 261 -71 426 -178 584 -53 79 -64 88 -73 65z"
       id="path54"
       style="fill:#9999ff" />
    <path
       d="M1614 6484 c-48 -51 -74 -116 -74 -185 0 -63 -14 -69 -40 -18 -39 76 -188 195 -213 170 -5 -5 -16 -35 -23 -68 -12 -46 -12 -74 -3 -138 11 -78 12 -81 60 -123 l49 -44 0 34 c1 39 40 140 57 145 14 5 87 -103 98 -144 9 -38 24 -11 26 47 1 62 21 124 41 128 11 2 24 -11 39 -40 28 -56 25 -54 49 -27 42 47 51 84 41 151 -13 79 -40 158 -54 158 -6 0 -30 -21 -53 -46z"
       id="path56"
       style="fill:#ff00ff" />
    <path
       d="M2631 6323 c-26 -115 -43 -214 -38 -219 9 -9 68 59 83 95 14 31 14 47 3 124 -7 48 -16 87 -20 87 -4 0 -16 -39 -28 -87z"
       id="path58"
       style="fill:#669966" />
    <path
       d="M6835 6388 c-38 -30 -65 -93 -65 -155 0 -29 -4 -53 -8 -53 -5 0 -18 13 -30 30 -26 35 -63 55 -115 65 -48 9 -50 -10 -4 -55 73 -74 167 -87 220 -32 39 41 67 110 67 170 0 44 -3 52 -19 52 -10 0 -31 -10 -46 -22z"
       id="path60"
       style="fill:#cc3300" />
    <path
       d="M2187 6365 c-74 -26 -113 -87 -105 -165 3 -32 6 -35 41 -41 22 -3 51 -18 69 -35 24 -23 32 -26 36 -14 11 32 84 90 130 103 44 13 47 16 50 50 4 45 -10 73 -51 97 -38 24 -113 26 -170 5z"
       id="path62"
       style="fill:#ff66ff" />
    <path
       d="M1691 6210 c-34 -45 -73 -101 -86 -124 -22 -37 -65 -173 -65 -203 0 -54 128 64 175 161 38 80 64 203 47 231 -8 16 -18 7 -71 -65z"
       id="path64"
       style="fill:#ff00ff" />
    <path
       d="M1581 6223 c-6 -21 -11 -65 -11 -98 l0 -60 30 45 c16 25 30 55 30 68 0 22 -26 82 -35 82 -2 0 -9 -17 -14 -37z"
       id="path66"
       style="fill:#ff00ff" />
    <path
       d="M2570 6226 c0 -3 -9 -57 -20 -121 -57 -342 -50 -756 19 -1114 32 -164 39 -183 64 -179 12 2 21 8 20 13 0 6 -15 73 -32 150 -66 297 -86 512 -78 805 5 175 21 340 42 428 3 12 1 22 -5 22 -5 0 -10 -2 -10 -4z"
       id="path68"
       style="fill:#336633" />
    <path
       d="M1126 6212 c-17 -27 -26 -148 -16 -205 28 -151 111 -217 255 -204 65 7 155 34 155 47 0 15 -122 164 -194 236 -92 92 -185 151 -200 126z"
       id="path70"
       style="fill:#ff00ff" />
    <path
       d="M1412 6196 c-27 -60 -26 -94 7 -159 17 -34 46 -80 65 -101 l34 -40 11 42 c15 53 -8 150 -53 224 -36 61 -49 67 -64 34z"
       id="path72"
       style="fill:#ff00ff" />
    <path
       d="M2345 6191 c-65 -30 -105 -86 -105 -147 0 -37 -13 -29 -38 25 -16 36 -32 53 -58 66 -55 26 -61 9 -25 -67 28 -61 103 -158 121 -158 22 0 160 245 160 285 0 19 -6 19 -55 -4z"
       id="path74"
       style="fill:#336600" />
    <path
       d="M4694 6126 c-17 -8 -40 -27 -51 -42 -40 -60 -48 -109 -48 -314 1 -211 9 -276 72 -593 26 -135 32 -182 24 -190 -15 -15 -138 -14 -153 1 -6 6 -24 113 -39 239 -59 468 -118 710 -204 834 -55 79 -131 83 -204 10 -58 -58 -76 -122 -75 -261 2 -136 21 -231 104 -510 114 -382 116 -394 96 -520 -25 -157 -65 -533 -77 -735 -11 -173 -8 -499 4 -511 3 -3 29 2 58 10 107 32 324 12 484 -45 44 -15 81 -26 83 -24 2 2 1 12 -3 23 -4 15 -18 22 -48 27 -120 18 -246 82 -328 167 -47 49 -109 137 -109 155 0 24 15 13 39 -30 87 -153 272 -267 437 -270 101 -2 159 28 197 103 36 70 38 147 5 178 -44 40 -69 43 -261 32 -195 -12 -259 -8 -322 19 -48 21 -105 83 -104 114 0 22 0 22 17 -3 37 -55 79 -88 132 -104 57 -17 235 -22 244 -8 3 5 -11 85 -30 178 -19 93 -36 177 -37 187 -2 15 11 23 54 36 31 10 77 32 101 50 l44 32 58 -31 c46 -24 71 -30 120 -31 l61 0 142 -172 c78 -95 150 -182 160 -194 13 -17 22 -20 33 -13 18 12 -1 53 -110 235 -141 235 -214 405 -249 582 -32 156 -35 265 -15 478 42 447 12 722 -92 844 -20 23 -48 48 -63 55 -42 22 -112 27 -147 12z m160 -549 c44 -44 57 -207 35 -452 -6 -71 -15 -123 -22 -127 -23 -15 -66 -8 -77 12 -14 25 -48 232 -56 335 -10 122 2 192 36 227 35 34 54 35 84 5z m-555 -27 c51 -52 96 -233 126 -517 l7 -61 -57 -7 c-67 -9 -65 -10 -96 90 -76 249 -116 445 -99 490 13 35 23 31 15 -5 -7 -32 15 -163 46 -280 39 -143 81 -275 90 -281 12 -7 68 1 73 10 7 11 -22 245 -44 347 -29 140 -66 214 -115 235 -19 7 -19 8 2 8 12 1 35 -13 52 -29z m637 -765 c8 -43 -11 -92 -38 -101 -31 -10 -65 15 -88 64 -21 44 -18 74 4 38 38 -63 54 -81 71 -81 17 0 20 8 23 58 3 64 18 75 28 22z m-422 -56 c3 -17 0 -45 -9 -65 -12 -29 -19 -34 -46 -34 -24 0 -41 10 -71 40 -21 23 -38 48 -38 56 0 23 16 13 42 -26 29 -42 66 -64 85 -48 7 6 13 32 13 59 0 55 14 66 24 18z m248 -85 c-2 -16 -11 -37 -20 -47 -15 -17 -15 -21 6 -60 12 -24 35 -50 50 -60 26 -16 26 -16 4 -17 -12 0 -30 9 -39 20 -20 23 -43 26 -43 6 0 -8 -12 -24 -27 -36 -22 -17 -36 -20 -65 -16 -21 3 -40 2 -43 -4 -3 -5 -11 -10 -17 -10 -7 0 0 13 15 28 33 35 35 79 5 117 -20 25 -20 27 -2 23 28 -5 54 -63 44 -98 -10 -33 -5 -40 27 -40 18 0 28 9 39 35 21 52 18 82 -12 101 -14 9 -32 30 -40 45 -16 31 -21 28 76 42 39 6 45 2 42 -29z m-249 -241 c-7 -2 -19 -2 -25 0 -7 3 -2 5 12 5 14 0 19 -2 13 -5z"
       id="path76"
       style="fill:#66ccff" />
    <path
       d="M4775 5557 c-34 -53 -29 -252 13 -457 16 -80 19 -85 44 -88 26 -3 27 -1 34 65 5 37 9 147 9 243 0 155 -2 180 -20 215 -24 49 -56 58 -80 22z"
       id="path78"
       style="fill:#66ff99" />
    <path
       d="M2612 6092 c-27 -33 -31 -49 -41 -146 -11 -105 -16 -416 -7 -416 3 0 39 35 81 77 l76 78 -25 155 c-14 85 -28 185 -32 223 -3 37 -10 67 -14 67 -5 0 -22 -17 -38 -38z"
       id="path80"
       style="fill:#669966" />
    <path
       d="M6174 6042 c-94 -33 -150 -70 -221 -144 -182 -194 -202 -507 -48 -753 51 -81 118 -153 168 -180 l35 -18 55 28 c31 16 54 32 51 36 -2 4 -22 10 -44 14 -48 8 -99 41 -119 77 -13 23 -13 28 3 53 10 14 33 36 52 47 l35 21 -53 29 c-127 69 -195 181 -136 222 26 18 84 21 124 6 41 -16 40 -5 -4 35 -52 47 -98 118 -112 176 -15 59 -1 115 39 158 24 26 37 31 75 31 42 0 51 -5 94 -47 26 -27 57 -66 68 -88 l22 -39 6 84 c8 99 23 221 32 256 5 20 3 24 -17 24 -13 0 -60 -13 -105 -28z"
       id="path82"
       style="fill:#cc6666" />
    <path
       d="M6375 5870 c-36 -111 -64 -205 -61 -208 3 -2 18 11 33 29 75 93 169 159 225 159 62 0 118 -89 104 -163 -7 -39 -76 -123 -120 -146 -39 -21 -32 -26 33 -23 104 6 150 -39 115 -114 -18 -38 -73 -75 -150 -100 -61 -21 -77 -34 -41 -34 39 0 94 -25 106 -48 14 -26 14 -77 1 -102 -5 -10 -24 -26 -42 -37 -56 -33 -175 -295 -193 -421 -4 -29 -3 -52 2 -52 25 0 168 279 193 375 7 28 16 53 19 57 4 4 30 -4 60 -17 61 -29 70 -26 124 34 75 83 110 195 109 356 0 163 -42 311 -124 441 -70 113 -184 197 -282 210 l-44 6 -67 -202z"
       id="path84"
       style="fill:#cc6666" />
    <path
       d="M7024 6048 c-5 -7 -8 -55 -7 -108 0 -158 61 -291 203 -443 61 -66 214 -196 242 -206 25 -9 -29 233 -82 365 -63 159 -172 304 -279 373 -52 34 -66 37 -77 19z"
       id="path86"
       style="fill:#666600" />
    <path
       d="M2311 5970 c-62 -93 -61 -86 -10 -265 35 -123 45 -142 54 -99 4 16 22 75 41 131 19 57 34 108 34 115 0 18 -51 181 -60 191 -3 4 -30 -29 -59 -73z"
       id="path88"
       style="fill:#333300" />
    <path
       d="M5640 6008 c-93 -47 -104 -155 -20 -198 76 -39 199 -18 240 40 81 113 -80 228 -220 158z"
       id="path90"
       style="fill:#660000" />
    <path
       d="M1807 5948 c-63 -225 -75 -495 -29 -669 60 -226 163 -365 487 -654 94 -84 194 -173 223 -200 l52 -47 -46 98 c-124 263 -191 411 -246 544 -33 80 -111 251 -173 380 -131 272 -172 370 -210 495 -16 50 -31 94 -35 98 -5 5 -15 -15 -23 -45z"
       id="path92"
       style="fill:#999966" />
    <path
       d="M4387 5944 c-3 -3 3 -29 13 -58 40 -118 103 -463 126 -691 3 -38 9 -74 11 -78 3 -4 24 24 47 63 l42 70 -22 138 c-27 160 -47 391 -42 477 l3 60 -76 6 c-42 4 -81 9 -86 12 -6 4 -13 4 -16 1z"
       id="path94"
       style="fill:#009966" />
    <path
       d="M2461 5849 c-101 -225 -137 -474 -101 -691 l13 -77 83 -55 c90 -60 99 -64 90 -41 -3 8 -16 84 -28 168 -20 132 -23 191 -23 460 0 169 -1 307 -1 307 -1 0 -16 -32 -33 -71z"
       id="path96"
       style="fill:#669966" />
    <path
       d="M6032 5854 c-33 -23 -52 -67 -52 -119 0 -57 16 -96 67 -161 46 -57 188 -168 203 -159 6 3 10 50 9 108 0 80 -5 114 -22 159 -28 73 -78 143 -119 168 -40 24 -57 25 -86 4z"
       id="path98"
       style="fill:#cc6699" />
    <path
       d="M2211 5791 c-11 -28 -21 -57 -21 -67 0 -21 122 -294 131 -294 22 0 10 87 -28 220 -24 80 -43 153 -43 162 0 36 -19 26 -39 -21z"
       id="path100"
       style="fill:#333300" />
    <path
       d="M6499 5801 c-50 -33 -142 -125 -188 -190 -27 -38 -31 -52 -31 -108 0 -74 -10 -73 123 -17 197 83 269 154 251 249 -9 50 -49 95 -83 95 -15 0 -47 -13 -72 -29z"
       id="path102"
       style="fill:#cc6699" />
    <path
       d="M7025 5694 c-6 -36 -34 -134 -50 -176 -6 -15 -1 -18 33 -18 47 0 83 -25 107 -76 l17 -36 56 7 c88 11 88 11 21 84 -67 73 -109 130 -150 205 l-27 50 -7 -40z"
       id="path104"
       style="fill:#669900" />
    <path
       d="M1386 5669 c-14 -71 1 -246 30 -364 26 -104 96 -234 166 -310 l64 -69 42 17 c23 9 60 17 82 17 22 0 40 2 40 5 0 2 -14 28 -31 57 -71 120 -148 312 -194 484 -18 66 -34 105 -48 118 -19 16 -130 76 -140 76 -3 0 -7 -14 -11 -31z"
       id="path106"
       style="fill:#999966" />
    <path
       d="M7903 5665 c-62 -19 -136 -69 -188 -127 -54 -60 -112 -177 -121 -242 l-7 -47 29 7 c111 27 238 101 279 162 15 22 33 61 41 87 17 60 30 175 18 174 -5 0 -28 -6 -51 -14z"
       id="path108"
       style="fill:#666600" />
    <path
       d="M2166 5654 c-12 -31 -5 -51 71 -227 l78 -178 3 58 c3 53 -2 69 -51 173 -30 63 -60 132 -68 153 -14 40 -23 46 -33 21z"
       id="path110" />
    <path
       d="M2664 5608 c-75 -79 -94 -111 -94 -161 0 -82 5 -82 94 8 l83 83 -9 56 c-6 31 -15 56 -22 56 -6 0 -30 -19 -52 -42z"
       id="path112"
       style="fill:#669966" />
    <path
       d="M1590 5574 c0 -4 14 -54 30 -112 48 -165 114 -318 209 -484 15 -25 91 -66 91 -49 0 5 -20 37 -43 73 -72 106 -110 214 -152 423 -9 40 -135 180 -135 149z"
       id="path114"
       style="fill:#999966" />
    <path
       d="M2149 5519 c-3 -60 3 -163 11 -209 16 -84 361 -867 391 -885 5 -4 9 -4 9 -2 0 9 -81 251 -123 367 -25 69 -59 181 -76 250 -22 90 -54 177 -115 313 -47 104 -87 191 -90 195 -3 3 -7 -10 -7 -29z"
       id="path116"
       style="fill:#333300" />
    <path
       d="M5520 5511 c-13 -25 -11 -90 3 -161 10 -45 16 -56 35 -58 14 -2 25 3 28 13 9 21 -11 164 -27 199 -14 31 -25 33 -39 7z"
       id="path118"
       style="fill:#66cccc" />
    <path
       d="M2719 5489 c-15 -10 -52 -49 -82 -87 -54 -66 -55 -68 -50 -120 3 -29 9 -51 13 -50 4 2 44 38 89 80 l82 78 -7 47 c-10 69 -14 75 -45 52z"
       id="path120"
       style="fill:#669966" />
    <path
       d="M6570 5504 c-71 -11 -143 -30 -212 -56 l-78 -30 0 -69 c0 -38 1 -72 3 -76 7 -23 209 18 306 63 78 35 101 59 101 105 0 20 -6 41 -12 46 -16 13 -74 21 -108 17z"
       id="path122"
       style="fill:#cc6699" />
    <path
       d="M6956 5468 c-21 -19 -28 -38 -36 -97 -6 -41 -8 -76 -6 -78 3 -3 29 4 58 15 29 10 70 22 92 26 l38 7 -5 47 c-4 35 -12 53 -36 74 -38 34 -71 36 -105 6z"
       id="path124"
       style="fill:#669900" />
    <path
       d="M5955 5447 c-19 -73 132 -201 251 -215 l44 -5 0 77 0 77 -87 41 c-61 30 -103 43 -144 46 -55 4 -58 3 -64 -21z"
       id="path126"
       style="fill:#cc6699" />
    <path
       d="M5060 5441 c-24 -7 -25 -11 -37 -141 -13 -156 -16 -449 -5 -467 7 -11 35 131 72 370 6 37 24 105 40 151 17 47 30 87 30 90 0 8 -69 6 -100 -3z"
       id="path128"
       style="fill:#009966" />
    <path
       d="M1110 5388 c-49 -33 -64 -83 -48 -151 13 -52 13 -52 59 -58 26 -4 56 -12 67 -18 11 -6 22 -11 24 -11 2 0 3 27 3 59 0 46 5 67 23 90 28 38 28 52 -2 80 -36 34 -84 37 -126 9z"
       id="path130"
       style="fill:#999900" />
    <path
       d="M5225 5323 c-20 -43 -55 -107 -80 -143 -35 -52 -47 -81 -59 -145 -32 -172 -31 -189 8 -146 10 11 40 29 67 40 l49 22 0 57 c0 81 25 146 76 200 24 25 44 52 44 59 0 15 -58 133 -65 133 -2 0 -20 -35 -40 -77z"
       id="path132"
       style="fill:#009966" />
    <path
       d="M7215 5388 c-33 -5 -66 -13 -74 -17 -27 -14 -10 -26 41 -29 29 -2 57 -7 62 -12 4 -4 -15 -45 -43 -91 -28 -45 -48 -85 -46 -88 3 -3 39 19 80 47 41 29 79 52 85 52 30 0 61 -158 60 -304 -1 -96 3 -122 27 -193 15 -46 31 -83 34 -83 23 0 52 361 41 502 l-7 86 -93 71 c-51 39 -96 70 -100 70 -4 -1 -34 -6 -67 -11z"
       id="path134"
       style="fill:#333300" />
    <path
       d="M2821 5371 c-12 -8 -15 -47 -16 -203 -1 -153 -5 -205 -19 -253 -28 -94 -31 -89 56 -97 44 -4 104 -18 140 -32 34 -14 64 -23 66 -21 3 2 -14 35 -36 72 -51 84 -84 160 -111 249 -23 76 -32 185 -16 190 22 7 153 -211 194 -326 l13 -35 13 73 c7 40 18 86 24 103 10 28 7 39 -21 91 -43 80 -133 163 -200 183 -60 17 -68 18 -87 6z"
       id="path136"
       style="fill:#006666" />
    <path
       d="M3695 5345 c-36 -37 -61 -119 -47 -153 11 -29 112 -116 122 -106 21 21 61 116 66 156 8 55 -13 101 -56 123 -41 21 -48 19 -85 -20z"
       id="path138"
       style="fill:#006666" />
    <path
       d="M2680 5280 c-92 -94 -87 -65 -43 -270 42 -195 40 -192 71 -188 23 2 30 11 44 54 28 86 41 218 34 349 -4 66 -11 124 -16 129 -5 5 -43 -26 -90 -74z"
       id="path140"
       style="fill:#669966" />
    <path
       d="M7057 5319 c-26 -5 -71 -20 -100 -33 -47 -21 -54 -28 -66 -67 -7 -24 -25 -66 -39 -94 l-27 -50 41 -41 42 -41 4 82 c5 89 24 135 68 164 l25 16 -26 -32 c-39 -47 -53 -119 -45 -232 4 -53 10 -99 15 -104 4 -4 20 10 34 31 21 30 27 50 27 93 0 70 17 129 36 129 8 0 24 -5 36 -11 11 -6 22 -8 25 -6 8 8 -44 83 -73 106 -24 19 -25 21 -6 21 12 0 37 -19 61 -47 22 -26 42 -45 44 -43 16 21 87 143 87 149 0 20 -83 25 -163 10z"
       id="path142"
       style="fill:#669900" />
    <path
       d="M1250 5291 c-13 -26 -13 -120 1 -160 15 -44 6 -49 -33 -16 -40 34 -95 58 -115 51 -13 -5 -12 -11 5 -38 51 -80 151 -158 186 -145 21 8 29 104 16 197 -17 123 -35 157 -60 111z"
       id="path144"
       style="fill:#999900" />
    <path
       d="M6350 5253 c-78 -12 -73 -4 -68 -109 3 -52 8 -97 11 -101 4 -3 35 1 69 10 35 8 87 18 115 22 61 8 114 40 127 76 13 38 -11 81 -54 96 -33 11 -146 15 -200 6z"
       id="path146"
       style="fill:#cc6699" />
    <path
       d="M2900 5205 c0 -45 35 -162 73 -246 34 -74 114 -209 124 -209 11 0 -9 104 -33 173 -28 77 -112 246 -144 287 l-20 25 0 -30z"
       id="path148"
       style="fill:#ccff66" />
    <path
       d="M7245 5187 c-33 -23 -71 -53 -84 -66 l-25 -25 24 -15 c14 -9 45 -34 70 -55 l45 -39 3 32 c4 40 -26 77 -72 90 -29 9 -29 9 -6 10 36 1 88 -34 96 -64 3 -14 4 -39 0 -56 -4 -23 1 -39 23 -69 16 -22 31 -36 35 -33 22 23 -18 335 -43 332 -3 0 -33 -19 -66 -42z"
       id="path150"
       style="fill:#669900" />
    <path
       d="M3207 5192 c-52 -54 -87 -175 -87 -302 0 -67 10 -130 20 -130 10 0 48 88 77 180 26 81 43 262 26 273 -6 4 -22 -6 -36 -21z"
       id="path152"
       style="fill:#ccff66" />
    <path
       d="M4597 5168 c-35 -60 -50 -120 -37 -152 8 -23 15 -26 59 -26 27 0 52 3 54 8 6 10 -36 212 -44 212 -4 0 -18 -19 -32 -42z"
       id="path154"
       style="fill:#009966" />
    <path
       d="M6125 5191 c-47 -21 -67 -55 -52 -88 13 -28 85 -63 149 -70 l49 -6 -7 54 c-15 122 -16 124 -59 127 -23 1 -57 -6 -80 -17z"
       id="path156"
       style="fill:#cc6699" />
    <path
       d="M3393 5177 c-17 -7 -51 -26 -75 -43 -41 -29 -45 -35 -57 -99 -7 -38 -21 -94 -32 -124 -10 -30 -19 -57 -19 -60 0 -2 24 18 53 46 28 27 74 64 101 83 55 37 176 91 188 84 4 -3 8 -17 8 -32 -1 -86 -106 -195 -259 -269 -55 -26 -100 -50 -100 -53 -1 -3 44 -15 99 -28 55 -13 103 -24 107 -25 5 -1 10 18 13 43 18 159 221 291 336 219 l34 -21 0 21 c0 11 -10 46 -22 78 -29 77 -104 152 -177 176 -61 19 -151 21 -198 4z"
       id="path158"
       style="fill:#006666" />
    <path
       d="M7036 5089 c-25 -124 32 -266 156 -389 65 -64 194 -138 222 -127 21 8 20 20 -10 123 -31 109 -80 203 -139 271 -45 51 -184 153 -210 153 -7 0 -15 -14 -19 -31z"
       id="path160"
       style="fill:#666600" />
    <path
       d="M7800 5096 c-88 -36 -119 -55 -166 -98 -84 -77 -127 -167 -168 -350 -4 -18 -2 -28 5 -28 16 0 251 145 308 190 57 45 99 120 106 191 6 55 -4 111 -21 115 -5 2 -34 -7 -64 -20z"
       id="path162"
       style="fill:#666600" />
    <path
       d="M3828 5084 c-26 -8 -49 -18 -52 -23 -3 -5 3 -29 14 -53 11 -25 23 -77 26 -116 6 -63 9 -71 30 -75 22 -4 24 -1 24 34 0 57 16 55 23 -3 4 -33 14 -60 29 -75 l22 -23 12 46 c14 55 45 83 91 84 30 0 32 2 23 25 -5 14 -6 25 -2 25 14 0 32 -24 32 -42 0 -10 7 -21 16 -25 9 -3 29 -26 45 -51 30 -48 30 -49 42 31 6 37 -16 152 -33 172 -23 27 -82 53 -163 69 -91 19 -117 19 -179 0z"
       id="path164"
       style="fill:#006666" />
    <path
       d="M6380 5041 c-371 -79 -622 -411 -621 -825 0 -119 5 -160 37 -283 l17 -61 66 1 c36 1 89 -2 116 -6 l50 -8 -58 53 c-71 65 -97 103 -97 143 0 33 24 75 42 75 6 0 4 -8 -5 -18 -25 -28 -21 -74 11 -118 43 -59 215 -195 229 -180 3 3 12 52 20 108 l14 103 -23 19 c-13 10 -56 34 -95 54 -72 34 -94 50 -50 36 16 -5 9 7 -29 48 -89 95 -108 162 -58 209 l27 24 -17 -32 c-9 -18 -16 -41 -16 -53 0 -34 36 -92 87 -141 46 -44 167 -139 176 -139 3 0 8 17 12 38 3 20 13 67 22 103 l16 67 -27 35 c-33 43 -110 94 -169 112 -27 9 -34 14 -19 14 12 1 39 -6 59 -14 19 -8 39 -15 43 -15 5 0 -12 35 -36 78 -81 140 -93 237 -40 307 15 19 32 35 37 35 6 0 -1 -15 -14 -32 -51 -68 -44 -148 27 -282 40 -77 121 -186 142 -193 6 -2 17 21 24 52 16 66 3 173 -35 292 -24 77 -69 163 -85 163 -6 0 -10 4 -10 10 0 19 45 -11 66 -43 31 -49 54 -112 74 -210 10 -49 21 -91 23 -93 10 -10 47 102 47 141 0 72 38 195 100 323 l59 122 -27 -1 c-15 0 -65 -9 -112 -18z"
       id="path166"
       style="fill:#003300" />
    <path
       d="M6767 5018 l-38 -31 63 -66 c35 -36 71 -77 79 -91 14 -21 18 -23 33 -11 21 18 20 49 -5 116 -22 58 -63 115 -82 115 -7 -1 -29 -15 -50 -32z"
       id="path168"
       style="fill:#669900" />
    <path
       d="M2390 5028 c0 -6 8 -38 17 -71 l16 -60 74 -35 c41 -19 75 -33 78 -31 2 2 -2 26 -8 53 -10 44 -17 52 -86 102 -80 56 -91 61 -91 42z"
       id="path170"
       style="fill:#66cc99" />
    <path
       d="M3429 4998 c-93 -46 -204 -149 -248 -228 l-24 -43 34 7 c72 14 202 88 264 151 57 56 93 124 79 147 -8 13 -17 10 -105 -34z"
       id="path172"
       style="fill:#ccff66" />
    <path
       d="M5857 4957 c9 -138 -21 -199 -182 -366 -66 -69 -83 -92 -65 -87 14 4 58 10 98 13 l73 6 33 72 c56 121 156 248 251 319 20 15 19 16 -10 40 -41 34 -122 74 -166 81 l-37 7 5 -85z"
       id="path174"
       style="fill:#009966" />
    <path
       d="M6596 4963 c-27 -88 -97 -227 -170 -337 -36 -55 -66 -102 -66 -104 0 -3 33 29 73 70 128 133 221 155 247 58 13 -49 0 -142 -28 -197 -23 -44 -94 -113 -141 -137 -17 -9 -31 -19 -31 -23 0 -3 28 -3 63 1 78 8 134 -7 149 -39 25 -56 -48 -159 -132 -186 -53 -17 -57 -27 -14 -34 92 -17 134 -57 134 -129 0 -46 -13 -77 -48 -117 -25 -29 -30 -45 -34 -106 -3 -40 -4 -73 -3 -73 1 0 38 24 82 54 44 29 103 66 132 82 28 16 51 32 51 37 0 4 -12 26 -27 49 -65 105 -97 222 -73 269 15 30 51 69 62 69 4 0 -1 -9 -11 -19 -34 -34 -43 -89 -25 -157 12 -48 61 -152 81 -174 22 -24 40 176 24 265 -7 39 -18 66 -32 78 l-21 17 21 0 c42 0 56 -43 56 -175 0 -66 -3 -139 -8 -162 -10 -60 6 -53 36 15 57 127 81 293 66 472 -19 235 -102 441 -232 577 -54 57 -131 113 -154 113 -5 0 -17 -26 -27 -57z"
       id="path176"
       style="fill:#666600" />
    <path
       d="M1683 4921 c-54 -34 -66 -80 -39 -145 l14 -33 118 -6 c80 -4 120 -11 123 -19 2 -6 15 -23 28 -36 22 -22 25 -23 46 -8 40 30 48 29 145 -10 53 -22 101 -41 107 -43 5 -2 -52 56 -128 130 -159 154 -200 178 -310 185 -60 5 -77 2 -104 -15z"
       id="path178"
       style="fill:#999966" />
    <path
       d="M3619 4916 c-96 -34 -179 -141 -179 -230 0 -37 9 -47 62 -69 l36 -15 36 58 c46 73 122 143 175 159 23 6 41 14 41 17 0 20 -39 66 -66 79 -38 18 -57 18 -105 1z"
       id="path180"
       style="fill:#006666" />
    <path
       d="M5155 4911 c-75 -35 -115 -95 -115 -175 0 -39 43 -186 69 -234 10 -19 13 -20 39 -6 44 23 113 18 157 -11 20 -15 39 -24 41 -23 8 9 -28 145 -75 283 -28 83 -51 158 -51 168 0 22 -15 21 -65 -2z"
       id="path182"
       style="fill:#009966" />
    <path
       d="M6956 4853 c-25 -32 -46 -63 -46 -70 0 -27 143 -116 207 -129 17 -3 36 0 47 9 19 14 18 17 -28 68 -26 30 -61 82 -78 117 -17 34 -37 62 -44 62 -7 0 -33 -26 -58 -57z"
       id="path184"
       style="fill:#669900" />
    <path
       d="M2440 4862 c0 -3 33 -105 74 -227 40 -121 79 -245 86 -275 23 -109 29 -102 50 68 13 101 13 103 -15 204 -27 94 -31 102 -62 115 -38 15 -42 29 -13 38 25 8 26 24 3 32 -10 3 -42 16 -70 29 -29 12 -53 20 -53 16z"
       id="path186"
       style="fill:#669966" />
    <path
       d="M4030 4863 c-36 -13 -50 -36 -50 -82 0 -36 13 -72 61 -169 34 -67 63 -121 66 -119 2 2 -6 48 -17 102 -22 105 -25 149 -11 141 4 -3 18 -58 30 -123 39 -206 36 -200 49 -97 18 138 16 220 -8 270 -28 56 -82 91 -120 77z"
       id="path188"
       style="fill:#006666" />
    <path
       d="M2642 4796 c-88 -22 -83 -31 33 -69 60 -19 92 -22 222 -22 180 0 202 9 116 48 -125 56 -254 71 -371 43z"
       id="path190"
       style="fill:#ccff66" />
    <path
       d="M3722 4789 c-43 -22 -101 -85 -140 -152 l-22 -39 47 -47 c27 -25 74 -80 105 -121 32 -41 83 -102 113 -135 l56 -60 -7 55 c-17 148 -87 496 -103 512 -3 4 -26 -2 -49 -13z"
       id="path192"
       style="fill:#66cc00" />
    <path
       d="M3807 4803 c-6 -12 55 -293 64 -293 7 0 99 161 99 174 0 15 -78 89 -111 107 -43 21 -46 22 -52 12z"
       id="path194"
       style="fill:#66cc00" />
    <path
       d="M5305 4713 c25 -60 54 -170 64 -243 14 -103 41 -201 52 -194 5 3 9 15 9 27 1 49 41 108 134 198 53 50 96 96 96 101 0 12 -55 1 -94 -19 -16 -8 -48 -35 -71 -59 -24 -24 -46 -44 -49 -44 -3 0 -6 17 -6 38 0 63 -29 143 -65 179 -36 36 -83 46 -70 16z"
       id="path196"
       style="fill:#66cccc" />
    <path
       d="M1598 4713 c-34 -5 -36 -19 -5 -27 36 -9 222 -123 327 -202 53 -39 171 -135 264 -213 92 -79 169 -141 171 -139 2 2 0 48 -5 103 -5 55 -9 141 -10 192 0 86 -2 93 -25 111 -32 25 -185 104 -247 127 -43 16 -48 16 -69 1 -36 -25 -68 -20 -101 17 l-31 32 -121 1 c-66 1 -133 0 -148 -3z"
       id="path198"
       style="fill:#999966" />
    <path
       d="M2640 4706 c0 -17 69 -248 77 -256 2 -3 13 5 23 17 17 22 17 25 -16 129 -19 59 -35 108 -37 109 -1 2 -12 6 -24 9 -17 5 -23 3 -23 -8z"
       id="path200"
       style="fill:#336633" />
    <path
       d="M6940 4712 c0 -5 11 -36 25 -70 14 -34 35 -112 47 -174 12 -62 23 -115 25 -117 2 -3 14 6 27 18 21 20 22 26 14 72 -11 62 -7 121 9 126 8 3 10 -6 6 -30 -3 -19 2 -72 11 -118 18 -89 94 -290 112 -296 5 -2 27 25 48 59 35 60 37 66 32 125 -11 115 -56 196 -128 232 -24 11 -35 21 -25 21 10 0 32 -7 49 -16 33 -17 33 -17 64 39 14 27 14 30 -3 43 -41 32 -53 35 -88 22 -44 -15 -108 0 -177 42 -27 17 -48 26 -48 22z"
       id="path202"
       style="fill:#666600" />
    <path
       d="M2720 4693 c0 -15 52 -173 57 -173 3 0 22 17 44 38 33 31 81 64 177 119 8 5 -37 8 -100 8 -62 0 -128 3 -145 7 -18 4 -33 4 -33 1z"
       id="path204"
       style="fill:#006666" />
    <path
       d="M3015 4666 c-123 -65 -242 -172 -286 -258 -23 -45 -24 -58 -4 -58 28 0 121 47 172 89 89 70 202 220 191 252 -2 6 -34 -6 -73 -25z"
       id="path206"
       style="fill:#ccff66" />
    <path
       d="M3160 4681 c0 -21 63 -79 126 -117 57 -33 150 -64 195 -64 38 0 38 0 31 -32 -9 -42 -8 -151 2 -201 5 -29 29 -60 103 -138 127 -132 292 -264 308 -247 3 2 -4 70 -15 152 -21 164 -17 156 -127 276 -72 79 -173 206 -173 217 0 13 -98 70 -169 98 -55 21 -249 75 -272 75 -5 0 -9 -9 -9 -19z"
       id="path208"
       style="fill:#66cc00" />
    <path
       d="M6527 4659 c-73 -52 -149 -145 -194 -237 -37 -77 -66 -169 -57 -183 6 -11 153 43 211 77 118 69 164 138 171 256 8 134 -31 159 -131 87z"
       id="path210"
       style="fill:#003300" />
    <path
       d="M1496 4655 c-56 -117 -38 -316 51 -570 l28 -80 85 -3 c127 -4 130 -3 123 60 -8 63 8 78 81 78 64 0 129 -29 181 -80 l40 -38 148 13 c81 7 151 15 154 19 14 14 -387 352 -570 480 -104 72 -257 156 -286 156 -12 0 -25 -14 -35 -35z"
       id="path212"
       style="fill:#990066" />
    <path
       d="M3103 4644 c-14 -22 -19 -52 -21 -134 -4 -124 14 -224 57 -314 l29 -61 12 30 c7 17 15 85 17 151 5 116 4 127 -27 230 -18 60 -36 113 -40 118 -5 4 -16 -4 -27 -20z"
       id="path214"
       style="fill:#ccff66" />
    <path
       d="M3950 4600 c-18 -35 -43 -80 -56 -99 l-23 -36 19 -119 c11 -65 21 -121 24 -123 4 -5 127 179 151 225 16 33 16 35 -18 105 -19 40 -41 81 -50 92 -14 18 -16 16 -47 -45z"
       id="path216"
       style="fill:#66cc00" />
    <path
       d="M3184 4595 c3 -9 13 -41 22 -73 15 -52 94 -221 116 -249 6 -8 21 -4 55 15 l46 26 -23 15 c-29 19 -110 101 -110 111 0 4 6 13 14 19 21 18 46 2 46 -29 0 -15 11 -39 24 -53 29 -32 86 -61 96 -50 4 4 10 43 14 86 l6 77 -30 0 c-49 0 -150 38 -214 81 -65 44 -71 46 -62 24z"
       id="path218"
       style="fill:#006666" />
    <path
       d="M7264 4557 c-21 -32 -24 -44 -15 -56 23 -32 52 -101 60 -146 5 -25 11 -48 14 -51 6 -6 60 122 81 194 11 40 12 54 3 57 -7 2 -35 13 -64 23 l-52 20 -27 -41z"
       id="path220"
       style="fill:#333300" />
    <path
       d="M1316 4537 c-30 -45 -39 -126 -33 -289 7 -167 -2 -206 -26 -116 -8 29 -29 106 -46 172 -38 142 -76 228 -99 224 -27 -5 -42 -48 -42 -120 0 -197 126 -508 255 -627 51 -47 45 -45 105 -27 41 12 46 17 51 50 7 42 38 79 81 97 20 8 28 17 25 28 -11 34 -76 174 -86 184 -5 5 -34 10 -64 10 l-55 0 -4 191 c-6 228 -22 285 -62 223z m144 -503 c0 -14 -3 -14 -15 -4 -8 7 -15 14 -15 16 0 2 7 4 15 4 8 0 15 -7 15 -16z m0 -63 c0 -12 -20 -25 -27 -18 -7 7 6 27 18 27 5 0 9 -4 9 -9z m-92 -29 c2 -7 -2 -10 -12 -6 -9 3 -16 11 -16 16 0 13 23 5 28 -10z"
       id="path222"
       style="fill:#ffff66" />
    <path
       d="M2990 4498 c-30 -34 -78 -77 -107 -96 -29 -19 -53 -36 -53 -36 0 -1 16 -42 36 -91 42 -105 103 -229 110 -222 2 2 -2 33 -11 68 -8 35 -15 83 -15 105 0 26 -7 51 -21 68 -26 33 -21 66 12 85 24 13 29 13 53 -2 34 -22 34 -59 1 -85 -19 -15 -25 -29 -25 -56 0 -42 28 -177 40 -189 4 -5 10 13 14 40 12 87 35 94 81 25 38 -58 52 -146 36 -238 -7 -42 -10 -78 -7 -82 5 -4 107 24 124 34 2 2 -8 22 -22 46 -33 57 -41 114 -26 180 15 64 39 114 76 158 22 25 25 36 17 49 -6 10 -24 42 -39 72 l-29 54 -7 -65 c-5 -36 -15 -98 -24 -138 -19 -88 -35 -92 -76 -17 -42 77 -70 196 -72 302 0 51 -3 93 -6 92 -3 0 -30 -28 -60 -61z"
       id="path224"
       style="fill:#006666" />
    <path
       d="M5163 4485 c-18 -8 -33 -21 -33 -30 0 -23 62 -143 150 -290 43 -71 88 -151 101 -177 15 -31 29 -48 41 -48 22 0 22 2 -3 168 -47 315 -128 433 -256 377z"
       id="path226"
       style="fill:#009966" />
    <path
       d="M5623 4486 c-93 -23 -142 -72 -168 -171 -17 -68 -18 -140 -2 -278 l12 -98 43 -19 c40 -18 43 -18 48 -2 19 58 42 97 69 113 34 21 85 25 103 7 19 -19 22 -6 11 67 -12 81 -5 222 16 313 8 35 15 67 15 73 0 13 -85 10 -147 -5z"
       id="path228"
       style="fill:#009966" />
    <path
       d="M2364 4354 c4 -74 12 -163 16 -197 9 -60 11 -64 85 -136 42 -40 77 -72 79 -70 1 2 1 92 -1 199 l-5 195 -76 73 c-41 39 -82 72 -90 72 -13 0 -14 -20 -8 -136z"
       id="path230"
       style="fill:#990066" />
    <path
       d="M2676 4450 c-6 -19 -26 -164 -26 -189 0 -12 10 -21 28 -26 15 -3 44 -18 65 -31 22 -14 41 -24 43 -21 2 2 -9 35 -24 73 -25 59 -32 69 -56 72 -21 3 -26 7 -21 20 14 35 17 80 7 98 -9 16 -12 16 -16 4z"
       id="path232"
       style="fill:#66cc99" />
    <path
       d="M4032 4357 c-28 -45 -66 -101 -84 -125 l-32 -42 13 -118 c7 -64 16 -133 20 -152 l7 -34 83 123 83 123 7 84 c5 66 3 99 -12 154 -11 38 -22 70 -26 70 -3 0 -30 -37 -59 -83z"
       id="path234"
       style="fill:#66cc00" />
    <path
       d="M7060 4348 c-22 -18 -24 -26 -21 -92 3 -77 -12 -203 -33 -285 -8 -31 -9 -51 -3 -51 16 0 99 65 151 119 l49 50 -41 93 c-22 51 -45 111 -52 133 -17 54 -21 57 -50 33z"
       id="path236"
       style="fill:#333300" />
    <path
       d="M2775 4346 c-19 -14 -19 -16 14 -97 75 -187 191 -400 268 -496 18 -21 19 -21 40 -4 l22 19 -65 98 c-67 100 -158 274 -209 399 -37 90 -45 100 -70 81z"
       id="path238"
       style="fill:#336633" />
    <path
       d="M4754 4311 c-21 -16 -58 -35 -81 -42 -28 -8 -43 -18 -43 -29 0 -23 20 -40 48 -40 26 0 82 50 82 74 0 29 18 25 38 -8 42 -71 141 -87 189 -31 13 14 23 30 23 34 0 5 -28 11 -62 15 -36 3 -79 16 -106 31 -24 14 -45 25 -46 25 -1 0 -20 -13 -42 -29z"
       id="path240"
       style="fill:#ff9900" />
    <path
       d="M7481 4310 c-97 -45 -173 -109 -289 -248 -42 -50 -42 -52 -18 -52 42 0 144 36 197 71 57 36 118 111 148 182 33 76 31 78 -38 47z"
       id="path242"
       style="fill:#666600" />
    <path
       d="M3425 4294 c-22 -8 -51 -23 -64 -33 l-24 -18 43 -63 c32 -47 140 -187 176 -229 14 -16 9 17 -15 99 -16 52 -34 127 -41 165 -19 110 -12 102 -75 79z"
       id="path244"
       style="fill:#ccff00" />
    <path
       d="M2560 4193 c0 -60 5 -147 10 -196 l9 -87 162 -178 c204 -224 207 -227 213 -221 6 6 -72 240 -109 329 -58 139 -137 280 -223 398 -25 34 -49 62 -54 62 -4 0 -8 -48 -8 -107z"
       id="path246"
       style="fill:#990066" />
    <path
       d="M7622 4241 c-54 -82 -76 -166 -70 -278 3 -72 10 -101 31 -145 25 -51 95 -128 115 -128 11 0 39 99 53 191 6 41 9 122 7 180 -4 92 -8 114 -36 172 -17 38 -37 67 -46 67 -8 0 -32 -27 -54 -59z"
       id="path248"
       style="fill:#cc6699" />
    <path
       d="M6386 4250 c-59 -15 -112 -32 -117 -37 -10 -10 -50 -193 -44 -203 6 -9 203 25 269 46 116 37 176 95 176 167 0 26 -6 39 -19 47 -36 19 -152 10 -265 -20z"
       id="path250"
       style="fill:#003300" />
    <path
       d="M5014 4239 c-55 -62 -174 -64 -223 -5 -12 14 -17 13 -48 -14 -18 -17 -44 -31 -56 -32 -47 -3 -52 -4 -51 -13 1 -6 14 -74 29 -152 l28 -143 107 0 c120 0 161 -10 184 -45 37 -56 6 -196 -55 -252 -28 -25 -89 -53 -118 -53 -11 0 -22 -3 -25 -8 -11 -18 194 -499 223 -522 3 -3 15 -23 26 -44 30 -59 138 -210 234 -325 95 -115 79 -112 210 -50 85 40 137 75 202 137 22 20 39 30 43 23 11 -18 -143 -130 -245 -179 -54 -26 -97 -51 -95 -57 7 -21 85 -8 160 28 42 20 76 32 76 28 0 -9 -122 -67 -163 -77 -15 -3 -29 -10 -32 -14 -6 -9 94 -100 110 -100 5 0 20 11 33 25 32 33 91 40 175 21 88 -20 83 -21 91 15 3 17 24 49 46 71 35 36 44 39 82 36 39 -2 43 0 46 22 5 32 28 58 56 62 50 7 11 149 -104 378 -37 74 -84 159 -104 189 -20 29 -36 55 -36 58 0 5 -81 126 -90 133 -3 3 -16 21 -28 40 -50 79 -41 77 -132 31 -45 -23 -89 -41 -98 -41 -22 0 -4 14 38 30 50 19 120 63 120 76 0 6 -7 17 -15 24 -12 10 -31 5 -100 -25 -48 -20 -89 -34 -92 -31 -8 8 -8 8 69 40 98 41 104 46 79 77 -11 14 -39 31 -62 38 -48 15 -126 87 -152 143 -9 20 -17 54 -17 76 0 36 -12 53 -136 203 -182 220 -166 204 -190 178z m116 -165 c0 -10 -190 -96 -203 -91 -6 3 2 10 20 17 17 6 62 26 100 45 70 34 83 39 83 29z m12 -77 c-6 -7 -30 -23 -54 -36 -52 -29 -47 -22 13 18 49 34 57 37 41 18z"
       id="path252"
       style="fill:#cc6600" />
    <path
       d="M3291 4191 c-47 -65 -83 -207 -56 -217 15 -6 205 66 205 77 0 11 -109 163 -120 167 -4 2 -18 -10 -29 -27z"
       id="path254"
       style="fill:#ccff00" />
    <path
       d="M2720 4130 c28 -44 69 -118 92 -165 23 -47 45 -85 49 -85 8 0 19 52 19 87 0 24 -38 108 -71 155 -21 29 -105 88 -125 88 -8 0 8 -34 36 -80z"
       id="path256"
       style="fill:#66cc99" />
    <path
       d="M3536 4153 c4 -16 22 -80 41 -143 l33 -115 99 -96 c54 -53 129 -120 167 -149 l69 -52 3 27 c6 45 -18 230 -29 234 -41 14 -181 122 -273 213 -61 59 -112 108 -114 108 -1 0 1 -12 4 -27z"
       id="path258"
       style="fill:#66cc00" />
    <path
       d="M1812 4118 c-15 -15 -15 -50 0 -84 l12 -27 105 7 c57 3 107 9 110 12 3 3 -11 21 -32 39 -61 53 -166 82 -195 53z"
       id="path260"
       style="fill:#993333" />
    <path
       d="M3044 4083 c-12 -78 28 -230 62 -240 18 -6 27 99 14 164 -12 58 -44 123 -60 123 -5 0 -12 -21 -16 -47z"
       id="path262"
       style="fill:#66cc00" />
    <path
       d="M7954 4058 c-26 -24 -66 -70 -90 -104 -49 -68 -122 -216 -126 -254 -3 -22 1 -25 32 -28 107 -9 242 181 257 360 7 84 -5 88 -73 26z"
       id="path264"
       style="fill:#cc6699" />
    <path
       d="M4030 3967 l-75 -112 9 -117 c5 -65 13 -118 17 -118 12 0 83 98 107 145 16 32 21 68 25 178 3 75 2 137 -1 137 -4 0 -41 -51 -82 -113z"
       id="path266"
       style="fill:#66cc00" />
    <path
       d="M2380 4034 c-35 -8 -427 -35 -589 -40 -97 -3 -182 -7 -189 -10 -17 -5 6 -50 63 -124 81 -104 79 -103 197 -96 319 21 708 60 736 75 14 8 -171 202 -191 200 -7 -1 -19 -3 -27 -5z"
       id="path268"
       style="fill:#990066" />
    <path
       d="M5651 4027 c-35 -18 -62 -58 -68 -104 -5 -35 -1 -46 30 -86 38 -50 52 -94 42 -129 -9 -27 -34 -58 -48 -58 -6 0 -3 8 6 18 56 62 -1 180 -118 241 -100 53 -165 -8 -121 -113 29 -70 130 -156 184 -156 10 0 25 -11 32 -25 7 -14 21 -25 31 -25 12 0 16 -6 12 -18 -2 -10 2 -24 9 -30 11 -9 24 -1 62 37 l48 49 -16 30 c-29 56 -17 124 31 174 25 26 26 30 14 70 -19 63 -50 114 -78 127 -29 13 -23 13 -52 -2z"
       id="path270"
       style="fill:#669933" />
    <path
       d="M3340 3988 c-58 -22 -106 -41 -108 -43 -6 -5 26 -72 37 -79 11 -7 239 59 255 74 9 9 -53 90 -69 89 -5 0 -57 -18 -115 -41z"
       id="path272"
       style="fill:#ccff00" />
    <path
       d="M6415 4020 c-27 -4 -78 -11 -113 -15 -35 -5 -69 -14 -76 -21 -12 -12 -30 -128 -43 -286 l-6 -78 29 0 c33 0 142 24 151 33 3 4 -4 27 -16 52 -52 111 6 229 104 211 40 -8 108 -65 125 -106 16 -39 33 -38 58 3 47 76 33 165 -31 192 -45 18 -120 25 -182 15z"
       id="path274"
       style="fill:#003300" />
    <path
       d="M2896 3923 c-19 -66 -18 -143 2 -143 4 0 15 22 25 50 16 45 16 52 2 80 -18 35 -22 36 -29 13z"
       id="path276"
       style="fill:#66cc99" />
    <path
       d="M3428 3890 c-65 -20 -121 -39 -125 -44 -13 -12 20 -26 65 -26 23 0 42 -4 42 -10 0 -22 66 -21 130 4 73 27 78 42 32 87 l-27 26 -117 -37z"
       id="path278"
       style="fill:#ccff00" />
    <path
       d="M7271 3909 c-88 -17 -202 -61 -216 -82 -13 -21 -46 -167 -60 -269 -7 -57 2 -60 54 -21 102 77 226 214 284 314 42 72 37 78 -62 58z"
       id="path280"
       style="fill:#669999" />
    <path
       d="M1534 3866 c-25 -25 -34 -43 -34 -66 0 -25 3 -31 16 -26 9 3 54 6 100 6 l85 0 -48 60 c-28 34 -56 60 -66 60 -11 0 -34 -15 -53 -34z"
       id="path282"
       style="fill:#33cc33" />
    <path
       d="M6371 3876 c-46 -49 -31 -156 32 -225 33 -36 98 -81 117 -81 25 0 60 71 60 121 -1 136 -140 259 -209 185z"
       id="path284"
       style="fill:#66cc00" />
    <path
       d="M7332 3814 c-19 -30 -59 -84 -89 -120 -30 -35 -48 -64 -41 -63 7 0 49 12 93 27 l80 27 3 93 c1 50 -1 92 -5 92 -4 0 -23 -25 -41 -56z"
       id="path286"
       style="fill:#669966" />
    <path
       d="M5811 3844 c-59 -31 -87 -128 -52 -183 8 -13 18 -10 62 14 101 54 217 33 296 -53 18 -20 34 -34 37 -31 2 2 6 43 9 92 l5 87 -29 21 c-80 57 -262 86 -328 53z"
       id="path288"
       style="fill:#006633" />
    <path
       d="M2939 3823 c-20 -50 -22 -116 -5 -158 21 -49 30 -38 46 58 9 53 9 75 0 98 -15 36 -27 37 -41 2z"
       id="path290"
       style="fill:#66cc99" />
    <path
       d="M2555 3815 c-24 -9 -393 -46 -571 -57 -107 -7 -194 -15 -194 -19 0 -24 159 -128 267 -175 84 -36 93 -37 243 -12 125 20 460 111 460 124 0 3 -28 37 -62 75 -56 61 -67 69 -98 68 -19 0 -39 -2 -45 -4z"
       id="path292"
       style="fill:#990066" />
    <path
       d="M3546 3800 c-26 -10 -50 -21 -53 -24 -3 -2 13 -14 34 -25 22 -11 65 -40 96 -65 30 -25 58 -46 60 -46 3 0 -12 40 -32 90 -20 49 -40 90 -46 90 -5 -1 -32 -9 -59 -20z"
       id="path294"
       style="fill:#ccff00" />
    <path
       d="M3660 3771 c39 -99 72 -176 81 -187 11 -14 192 -104 208 -104 6 0 11 17 11 40 0 29 -6 45 -22 59 -13 10 -68 55 -123 99 -55 44 -113 94 -129 111 -42 44 -49 39 -26 -18z"
       id="path296"
       style="fill:#66cc00" />
    <path
       d="M6868 3754 c-113 -59 -128 -70 -141 -103 -35 -86 -52 -301 -24 -301 7 0 69 28 137 63 l125 62 8 70 c4 39 18 116 30 173 21 90 22 102 8 102 -9 0 -73 -30 -143 -66z"
       id="path298"
       style="fill:#669999" />
    <path
       d="M3288 3805 c-7 -8 16 -97 38 -146 12 -28 29 -42 75 -64 32 -16 61 -26 64 -23 7 7 -64 198 -79 215 -13 13 -89 27 -98 18z"
       id="path300"
       style="fill:#993300" />
    <path
       d="M3172 3777 c-23 -11 -41 -25 -39 -31 4 -11 156 -101 162 -95 2 3 -6 37 -17 77 -24 82 -33 86 -106 49z"
       id="path302"
       style="fill:#993300" />
    <path
       d="M1578 3765 c-4 -4 16 -53 43 -108 47 -97 52 -103 91 -114 23 -7 44 -11 46 -8 2 2 -27 55 -64 117 -47 77 -76 114 -89 116 -12 2 -24 0 -27 -3z"
       id="path304"
       style="fill:#336600" />
    <path
       d="M3000 3713 c-7 -31 -18 -73 -25 -94 -11 -31 -11 -45 2 -90 16 -56 26 -69 56 -69 16 0 16 3 2 36 -21 51 -19 132 5 178 19 39 19 39 -1 67 -11 16 -22 29 -24 29 -2 0 -9 -26 -15 -57z"
       id="path306"
       style="fill:#66cc99" />
    <path
       d="M3464 3659 l42 -111 85 -45 c46 -25 109 -60 141 -79 31 -19 59 -34 62 -34 14 0 4 36 -26 94 -41 77 -162 198 -248 249 -102 59 -105 55 -56 -74z"
       id="path308"
       style="fill:#993300" />
    <path
       d="M1406 3730 c-91 -31 -176 -75 -176 -91 0 -5 26 -9 58 -9 68 0 146 -13 255 -41 44 -11 82 -18 85 -14 4 3 -14 45 -38 93 -54 104 -57 105 -184 62z"
       id="path310"
       style="fill:#339933" />
    <path
       d="M1660 3755 c0 -7 122 -209 138 -227 15 -18 207 -68 258 -68 16 0 38 7 48 15 11 8 28 15 38 15 32 0 19 16 -21 29 -76 22 -223 103 -314 172 -62 47 -100 69 -119 69 -15 0 -28 -2 -28 -5z"
       id="path312"
       style="fill:#339933" />
    <path
       d="M4070 3703 c-14 -20 -39 -54 -57 -75 -32 -39 -32 -39 -32 -153 1 -138 14 -155 54 -70 14 30 39 65 56 79 l29 25 -6 115 c-4 64 -10 116 -13 116 -3 0 -17 -17 -31 -37z"
       id="path314"
       style="fill:#66cc00" />
    <path
       d="M3088 3713 c-30 -34 -48 -82 -48 -127 0 -25 4 -47 8 -50 5 -3 40 6 78 20 38 14 88 33 111 41 24 8 45 18 48 23 3 6 -165 110 -179 110 -1 0 -10 -8 -18 -17z"
       id="path316"
       style="fill:#993300" />
    <path
       d="M7489 3704 c-17 -44 -23 -185 -10 -226 13 -38 66 -96 78 -84 5 4 10 55 11 113 4 113 -10 174 -48 208 -19 17 -20 17 -31 -11z"
       id="path318"
       style="fill:#cc6699" />
    <path
       d="M5829 3658 c-40 -21 -80 -53 -111 -90 l-50 -57 32 -47 c18 -25 41 -49 51 -51 10 -3 15 -11 13 -18 -6 -14 43 -95 57 -95 14 0 51 59 43 71 -3 6 -20 17 -38 25 -18 8 -24 13 -13 14 22 0 22 2 -8 46 -14 20 -25 47 -25 59 0 22 35 63 45 53 3 -3 -1 -11 -10 -18 -21 -18 -19 -37 10 -86 26 -44 58 -70 74 -59 5 3 21 25 35 50 21 34 24 49 17 64 -12 21 -48 46 -76 54 -16 4 -15 5 5 6 14 0 40 -8 58 -19 18 -11 34 -20 36 -20 6 0 46 98 46 115 0 8 -12 20 -26 25 -47 18 -100 11 -165 -22z"
       id="path320"
       style="fill:#660066" />
    <path
       d="M7280 3639 c-46 -16 -91 -29 -100 -29 -17 0 -109 -70 -110 -84 0 -10 151 0 235 17 l60 12 9 48 c6 29 6 51 0 56 -5 5 -46 -4 -94 -20z"
       id="path322"
       style="fill:#669999" />
    <path
       d="M2690 3638 c-90 -32 -358 -97 -427 -104 -35 -4 -66 -10 -69 -15 -5 -9 11 -12 161 -30 108 -13 587 -19 582 -7 -8 23 -161 178 -175 177 -9 -1 -42 -10 -72 -21z"
       id="path324"
       style="fill:#990066" />
    <path
       d="M6022 3598 c-11 -29 -23 -61 -27 -70 -5 -12 2 -21 24 -32 49 -26 71 -56 71 -96 0 -46 -37 -90 -76 -90 -21 0 -25 -3 -18 -17 5 -10 8 -37 7 -60 l0 -43 38 0 c32 0 46 7 83 43 74 71 86 181 30 294 -25 52 -85 123 -103 123 -4 0 -17 -24 -29 -52z"
       id="path326"
       style="fill:#663366" />
    <path
       d="M6642 3621 c-33 -25 -42 -38 -51 -81 -15 -70 -14 -182 2 -204 9 -13 20 -16 39 -11 25 6 27 12 32 73 8 89 23 202 32 230 9 30 -5 28 -54 -7z"
       id="path328"
       style="fill:#669999" />
    <path
       d="M6333 3629 c-18 -5 -33 -12 -33 -14 0 -3 16 -11 35 -19 95 -40 44 -146 -71 -146 l-52 0 -4 -70 c-2 -39 -1 -70 2 -70 3 0 42 31 86 68 45 37 108 90 142 117 34 26 62 51 62 54 0 4 -16 15 -34 25 -19 10 -45 29 -57 42 -24 26 -28 27 -76 13z"
       id="path330"
       style="fill:#663366" />
    <path
       d="M1217 3594 c12 -16 35 -42 52 -58 l31 -30 22 21 c13 11 43 31 67 43 26 13 40 25 34 31 -5 5 -58 12 -118 16 l-109 6 21 -29z"
       id="path332"
       style="fill:#339933" />
    <path
       d="M3249 3586 c-31 -13 -86 -33 -122 -45 -70 -24 -79 -35 -49 -69 14 -17 40 -23 161 -36 l144 -15 80 40 c89 45 89 43 -10 88 l-51 24 -64 -35 c-35 -20 -80 -45 -100 -58 -21 -12 -38 -18 -38 -13 0 5 38 31 85 57 47 26 85 52 85 57 0 10 -34 29 -52 29 -7 -1 -38 -11 -69 -24z"
       id="path334"
       style="fill:#993300" />
    <path
       d="M6187 3603 c-11 -10 -8 -66 4 -101 8 -25 18 -33 45 -38 86 -16 147 35 114 96 -16 29 -144 63 -163 43z"
       id="path336"
       style="fill:#006633" />
    <path
       d="M1420 3567 c-59 -29 -99 -59 -100 -74 0 -14 99 -97 142 -119 26 -14 31 -13 54 5 33 26 74 34 109 21 25 -9 32 -7 55 15 51 49 126 50 192 4 14 -11 32 -19 40 -19 13 1 73 49 67 54 -2 1 -58 17 -124 34 -66 18 -139 37 -161 44 -51 14 -81 4 -166 -59 -33 -25 -62 -42 -64 -40 -6 6 80 69 124 91 17 9 32 20 32 24 0 8 -117 42 -142 42 -7 0 -33 -11 -58 -23z"
       id="path338"
       style="fill:#339933" />
    <path
       d="M6485 3508 c-92 -71 -325 -269 -344 -292 -12 -14 -10 -16 17 -16 45 0 151 24 287 65 66 20 122 38 123 40 2 2 -1 28 -7 58 -9 40 -9 72 0 126 6 40 9 74 7 76 -2 2 -40 -24 -83 -57z"
       id="path340"
       style="fill:#669999" />
    <path
       d="M4221 3534 c-57 -15 -67 -21 -114 -63 -27 -25 -67 -90 -67 -109 0 -6 12 -12 26 -15 21 -4 28 1 42 29 10 22 27 37 49 45 32 10 49 5 156 -49 4 -2 7 5 7 16 0 10 10 27 21 38 22 19 22 19 10 -3 -16 -31 -14 -68 7 -91 13 -16 36 -23 95 -30 43 -4 80 -5 83 -1 13 22 -59 123 -100 139 -21 9 -21 9 0 9 12 1 33 -9 48 -20 l27 -22 29 34 c24 30 34 34 71 33 85 -2 149 -61 174 -162 10 -40 16 -47 39 -50 14 -2 26 0 26 5 0 5 -15 44 -33 87 -27 67 -38 82 -70 99 -65 34 -179 68 -277 83 -117 17 -179 17 -249 -2z"
       id="path342"
       style="fill:#669933" />
    <path
       d="M3770 3536 c0 -2 13 -32 29 -67 16 -35 31 -72 35 -81 3 -10 15 -18 28 -18 13 0 40 -3 61 -6 l37 -7 0 50 0 50 -47 18 c-27 10 -68 28 -92 41 -44 24 -51 27 -51 20z"
       id="path344"
       style="fill:#66cc00" />
    <path
       d="M7280 3524 c-36 -7 -104 -13 -152 -14 -82 0 -90 -2 -147 -37 -34 -21 -61 -41 -61 -44 0 -11 106 -30 198 -36 90 -6 93 -7 122 -40 17 -18 30 -40 30 -48 0 -30 20 -24 38 12 36 72 66 214 47 218 -5 2 -39 -3 -75 -11z"
       id="path346"
       style="fill:#669999" />
    <path
       d="M1204 3475 c-31 -54 -42 -144 -24 -199 14 -44 53 -92 90 -111 21 -11 146 -45 166 -45 2 0 4 11 4 24 0 28 35 76 56 76 18 0 17 10 -1 34 -8 11 -15 36 -15 55 0 32 -5 39 -42 59 -24 12 -74 51 -113 87 -38 35 -75 64 -82 65 -7 0 -24 -20 -39 -45z"
       id="path348"
       style="fill:#33cc33" />
    <path
       d="M3476 3458 c-42 -21 -55 -32 -45 -38 8 -4 73 -13 144 -19 72 -7 141 -15 155 -18 22 -5 23 -4 10 10 -23 24 -163 97 -185 96 -11 0 -47 -14 -79 -31z"
       id="path350"
       style="fill:#993300" />
    <path
       d="M5943 3434 l-32 -56 25 -23 c32 -29 58 -39 88 -31 39 10 60 83 33 116 -16 21 -59 50 -72 50 -5 -1 -24 -26 -42 -56z"
       id="path352"
       style="fill:#660066" />
    <path
       d="M2123 3470 c-27 -11 -29 -23 -6 -46 53 -53 129 -56 227 -9 40 19 78 35 85 35 6 0 11 4 11 9 0 19 -273 29 -317 11z"
       id="path354"
       style="fill:#33cc33" />
    <path
       d="M2563 3460 c-183 -20 -305 -97 -348 -219 -35 -100 -5 -395 65 -646 72 -255 176 -421 326 -522 95 -63 180 -73 459 -53 321 24 723 89 1370 223 94 20 196 41 229 47 l59 12 -7 66 c-7 64 -38 231 -52 281 -5 17 -4 23 7 19 16 -5 33 -70 54 -208 25 -162 22 -153 53 -145 15 3 31 10 35 14 10 10 -14 164 -47 304 -24 99 -25 121 -7 101 12 -13 58 -213 72 -317 l12 -89 36 7 c20 4 39 10 43 13 10 10 -9 150 -38 276 -22 101 -24 130 -8 113 12 -11 34 -108 56 -247 12 -74 22 -136 23 -138 3 -4 126 26 132 31 6 7 -24 179 -43 245 -16 52 -12 81 6 52 12 -19 47 -169 56 -237 5 -41 11 -53 24 -53 24 0 262 49 268 55 3 3 -22 33 -54 67 -86 90 -201 237 -278 353 -36 55 -69 105 -73 110 -5 6 -34 64 -67 130 -32 66 -60 122 -62 124 -15 17 -1007 126 -1075 119 l-27 -3 33 -80 c56 -134 104 -355 78 -355 -6 0 -13 24 -17 53 -10 78 -45 201 -85 302 l-36 90 -43 3 -43 3 17 -38 c80 -180 165 -527 118 -480 -3 3 -12 43 -20 89 -17 99 -61 243 -107 353 l-34 80 -48 8 c-26 4 -49 6 -52 3 -2 -2 12 -51 31 -108 20 -58 45 -147 56 -199 19 -94 42 -327 34 -341 -15 -24 -24 1 -24 65 0 143 -39 338 -102 505 -23 62 -36 83 -52 87 -11 2 -86 13 -166 25 -322 45 -609 65 -737 50z"
       id="path356"
       style="fill:#ff6600" />
    <path
       d="M7820 3461 c-55 -17 -130 -63 -222 -134 -53 -42 -115 -87 -138 -102 -23 -15 -40 -29 -37 -31 3 -3 76 -1 164 5 185 11 253 31 313 91 38 38 85 142 76 167 -6 14 -112 17 -156 4z"
       id="path358"
       style="fill:#cc6699" />
    <path
       d="M4568 3450 c-41 -24 -26 -122 24 -153 12 -9 58 -18 101 -22 72 -7 77 -6 77 12 0 37 -52 123 -88 148 -38 26 -85 32 -114 15z"
       id="path360"
       style="fill:#666633" />
    <path
       d="M1967 3423 c-20 -16 -36 -31 -37 -35 0 -4 16 -19 35 -33 l34 -27 46 38 c51 44 56 60 19 74 -40 15 -58 12 -97 -17z"
       id="path362"
       style="fill:#33cc33" />
    <path
       d="M1712 3424 c-44 -31 -18 -102 61 -167 98 -80 359 -225 388 -215 6 2 12 35 15 73 l4 70 -52 28 c-29 15 -98 63 -153 107 -146 117 -209 142 -263 104z"
       id="path364"
       style="fill:#336600" />
    <path
       d="M4151 3403 c-12 -8 -21 -25 -21 -37 0 -20 6 -25 45 -30 25 -3 65 -9 90 -12 55 -8 58 4 10 44 -50 40 -98 54 -124 35z"
       id="path366"
       style="fill:#669933" />
    <path
       d="M6820 3385 c-25 -13 -80 -36 -123 -51 -45 -15 -76 -31 -74 -37 6 -20 109 -77 177 -98 36 -11 106 -23 157 -26 86 -6 95 -4 145 22 29 15 54 28 56 30 1 1 -14 19 -34 39 -36 36 -39 51 -19 99 6 14 2 17 -26 17 -19 1 -63 7 -99 15 -88 19 -108 18 -160 -10z"
       id="path368"
       style="fill:#669966" />
    <path
       d="M2055 3358 l-38 -42 34 -29 c47 -40 117 -80 127 -73 5 3 12 19 15 36 4 16 18 47 31 69 l25 39 -42 7 c-23 4 -54 14 -69 21 -38 20 -41 19 -83 -28z"
       id="path370"
       style="fill:#33cc33" />
    <path
       d="M1525 3365 c-52 -51 -20 -122 66 -145 24 -7 98 -28 164 -47 175 -52 179 -51 92 7 -85 56 -177 143 -177 165 0 19 -52 45 -90 45 -19 0 -40 -9 -55 -25z"
       id="path372"
       style="fill:#333366" />
    <path
       d="M7136 3364 c-9 -8 -16 -29 -16 -45 0 -28 9 -40 55 -73 18 -14 19 -16 4 -28 -38 -30 -48 -128 -13 -128 25 0 77 26 112 55 53 45 95 148 77 192 -5 14 -14 3 -36 -45 -16 -36 -34 -62 -40 -60 -7 2 -18 25 -26 50 -13 46 -60 98 -88 98 -7 0 -21 -7 -29 -16z"
       id="path374"
       style="fill:#669999" />
    <path
       d="M5857 3314 l-29 -35 26 -40 c21 -30 33 -39 55 -39 16 0 36 -3 44 -6 20 -7 39 29 31 60 -6 26 -70 96 -88 96 -6 0 -24 -16 -39 -36z"
       id="path376"
       style="fill:#663366" />
    <path
       d="M6455 3253 c-60 -19 -152 -43 -203 -53 -52 -10 -96 -20 -98 -23 -3 -2 35 -9 83 -16 146 -19 293 -39 397 -56 134 -20 169 -19 272 11 108 31 126 44 61 44 -109 0 -270 50 -343 105 -18 14 -39 25 -46 24 -7 0 -62 -16 -123 -36z"
       id="path378"
       style="fill:#669999" />
    <path
       d="M1476 3188 c-25 -35 -19 -64 19 -106 57 -64 187 -125 376 -176 110 -29 310 -68 317 -62 2 3 1 42 -3 86 l-7 82 -37 15 c-68 29 -386 134 -480 159 -119 31 -165 31 -185 2z"
       id="path380"
       style="fill:#336600" />
    <path
       d="M5897 3183 c-2 -1 32 -71 75 -155 72 -143 138 -313 138 -358 0 -25 11 -25 155 -5 61 8 274 38 475 66 370 51 611 93 756 129 123 31 284 83 284 90 0 4 -55 10 -122 14 -166 9 -428 39 -748 86 -146 21 -268 36 -272 33 -5 -2 -9 -32 -10 -66 l-2 -62 -3 60 c-5 72 -14 85 -64 85 l-39 0 -1 -57 c-1 -67 -17 -46 -18 23 -1 38 -3 42 -32 48 -17 3 -36 6 -41 6 -5 0 -8 -27 -7 -60 1 -33 0 -63 -4 -66 -5 -5 -11 29 -19 106 -3 24 -8 26 -98 38 -171 23 -400 49 -403 45z"
       id="path382"
       style="fill:#ff6600" />
    <path
       d="M7085 3168 c-49 -26 -193 -78 -217 -78 -10 0 -18 -4 -18 -9 0 -18 142 -30 209 -18 l64 12 2 58 c1 31 1 57 1 57 -1 -1 -19 -10 -41 -22z"
       id="path384"
       style="fill:#669999" />
    <path
       d="M1280 3123 c-57 -21 -67 -79 -21 -122 42 -39 114 -58 291 -76 85 -9 184 -20 219 -26 35 -5 65 -8 68 -6 2 2 -40 19 -94 37 -123 40 -198 78 -257 129 -61 53 -156 82 -206 64z"
       id="path386"
       style="fill:#333366" />
    <path
       d="M7281 3111 c-82 -23 21 -66 141 -59 81 5 188 38 188 59 0 10 -293 10 -329 0z"
       id="path388"
       style="fill:#cc6699" />
    <path
       d="M1312 2905 c-93 -21 -140 -51 -153 -97 -23 -88 36 -167 155 -208 153 -52 476 -51 849 2 l79 11 -7 36 c-4 20 -8 39 -11 42 -2 3 -101 9 -221 13 -255 7 -454 24 -468 38 -7 6 2 8 25 4 132 -21 609 -46 643 -33 13 5 13 13 3 59 l-11 53 -55 8 c-533 77 -732 94 -828 72z"
       id="path390"
       style="fill:#336600" />
    <path
       d="M7268 2794 c-3 -3 -4 -22 -1 -42 4 -28 -1 -46 -19 -71 -36 -54 -79 -74 -169 -79 -70 -4 -84 -2 -134 23 -31 15 -58 25 -59 24 -2 -2 -15 -22 -29 -44 l-27 -39 83 -28 c201 -68 377 -5 401 143 11 68 -19 141 -46 113z"
       id="path392"
       style="fill:#669933" />
    <path
       d="M7175 2780 c-22 -4 -93 -15 -157 -25 l-118 -18 0 -27 c0 -57 97 -107 191 -98 99 10 173 81 152 145 -11 32 -15 33 -68 23z"
       id="path394"
       style="fill:#669999" />
    <path
       d="M6824 2713 c-24 -76 -74 -143 -106 -143 -6 0 1 9 16 21 41 32 84 129 59 129 -5 0 -83 -10 -175 -22 -114 -15 -168 -26 -168 -34 0 -16 56 -63 95 -79 82 -35 83 -36 45 -29 -19 3 -59 19 -87 35 -78 43 -82 37 -27 -34 41 -52 103 -87 155 -87 47 0 131 43 170 88 62 71 91 172 49 172 -11 0 -23 -8 -26 -17z"
       id="path396"
       style="fill:#669999" />
    <path
       d="M6359 2663 c-8 -2 -19 -22 -25 -45 -15 -67 -87 -103 -177 -87 -34 5 -40 4 -48 -18 -18 -47 -12 -60 38 -77 26 -9 60 -16 77 -16 92 1 196 102 196 190 0 55 -13 66 -61 53z"
       id="path398"
       style="fill:#669933" />
    <path
       d="M6210 2643 c-97 -15 -91 -11 -88 -51 3 -35 5 -37 49 -46 38 -7 54 -5 85 10 39 19 71 65 59 84 -6 10 -54 11 -105 3z"
       id="path400"
       style="fill:#669999" />
    <path
       d="M6042 2597 c-6 -6 -12 -28 -14 -47 -2 -29 -7 -34 -23 -32 -11 2 -34 6 -51 9 -26 4 -35 -1 -62 -31 -19 -22 -34 -53 -38 -76 -4 -22 -10 -42 -14 -45 -4 -2 -30 5 -59 15 -65 25 -172 27 -195 4 -29 -29 -19 -50 34 -73 113 -48 192 -49 295 -1 65 30 150 111 141 135 -3 8 1 18 9 23 15 8 39 108 29 123 -8 13 -40 11 -52 -4z"
       id="path402"
       style="fill:#996600" />
    <path
       d="M2095 2574 c-55 -7 -156 -20 -225 -29 -261 -33 -549 -103 -645 -158 -22 -12 -49 -39 -60 -59 l-20 -37 21 -28 c35 -47 80 -56 249 -50 193 7 414 44 748 124 85 20 151 41 153 48 9 22 -25 77 -44 71 -89 -25 -540 -101 -657 -110 -44 -4 -100 -9 -124 -12 -25 -3 -41 -2 -37 4 3 5 52 12 109 16 158 10 640 89 704 116 l21 9 -20 55 c-24 64 -13 62 -173 40z"
       id="path404"
       style="fill:#336600" />
    <path
       d="M1223 2556 c-91 -22 -130 -60 -98 -95 37 -41 80 -37 359 32 l170 42 -70 7 c-38 4 -108 12 -155 18 -106 12 -140 12 -206 -4z"
       id="path406"
       style="fill:#336600" />
    <path
       d="M6425 2539 c-4 -11 -21 -36 -37 -55 -55 -63 -141 -92 -217 -75 -23 5 -41 6 -41 2 0 -7 40 -46 88 -86 l23 -19 30 37 c30 37 59 46 88 28 11 -7 26 2 55 34 28 30 55 47 86 55 l45 12 -25 17 c-14 9 -36 28 -50 43 -29 33 -37 35 -45 7z"
       id="path408"
       style="fill:#669933" />
    <path
       d="M6794 2529 c-13 -15 -15 -23 -7 -26 7 -2 27 -14 45 -26 58 -39 47 -116 -22 -152 -28 -15 -30 -18 -24 -58 4 -23 8 -44 10 -46 7 -8 89 21 118 42 35 24 65 89 66 138 0 49 -35 99 -90 127 -55 27 -72 28 -96 1z"
       id="path410"
       style="fill:#669933" />
    <path
       d="M7143 2500 c-18 -7 -22 -15 -17 -37 4 -21 0 -36 -16 -53 l-21 -25 7 25 c7 28 7 26 5 57 -1 19 -8 22 -62 25 -56 3 -60 2 -54 -17 20 -62 23 -101 9 -127 -8 -15 -14 -32 -14 -38 0 -15 105 -12 143 4 65 27 91 77 80 153 -6 45 -16 51 -60 33z"
       id="path412"
       style="fill:#669999" />
    <path
       d="M6693 2472 c-24 -9 -43 -19 -43 -22 0 -3 15 -13 33 -23 18 -10 46 -38 62 -62 17 -25 34 -45 38 -45 5 0 22 13 38 29 44 45 36 97 -21 126 -35 18 -52 18 -107 -3z"
       id="path414"
       style="fill:#669999" />
    <path
       d="M5326 2411 c-73 -15 -81 -19 -104 -54 -53 -80 -22 -191 65 -232 112 -53 237 -14 284 90 33 72 27 88 -50 139 -37 25 -74 53 -81 61 -15 18 -12 18 -114 -4z"
       id="path416"
       style="fill:#6699ff" />
    <path
       d="M5180 2380 c-34 -8 -70 -76 -77 -145 -10 -98 36 -163 142 -200 57 -20 161 -23 221 -6 101 27 182 115 191 206 4 36 2 55 -5 55 -6 0 -17 3 -26 6 -11 4 -16 0 -16 -12 0 -43 -23 -98 -57 -135 -68 -75 -188 -87 -291 -28 -89 50 -112 128 -67 223 20 42 19 45 -15 36z"
       id="path418"
       style="fill:#669999" />
    <path
       d="M5045 2354 c-38 -8 -76 -17 -85 -20 -8 -4 -35 -8 -60 -10 -25 -2 -49 -9 -55 -16 -6 -8 -26 -12 -48 -10 -32 3 -39 0 -44 -17 -6 -23 -18 -27 -29 -10 -7 12 -86 4 -115 -12 -10 -5 -22 -31 -29 -58 -10 -43 -9 -55 8 -93 76 -173 371 -186 473 -21 19 31 23 49 20 104 -2 52 3 79 20 118 12 29 20 53 18 55 -2 1 -35 -3 -74 -10z"
       id="path420"
       style="fill:#6699ff" />
    <path
       d="M2160 2314 c-357 -112 -593 -224 -684 -324 -41 -46 -48 -99 -18 -136 64 -80 158 -48 337 117 115 105 199 166 300 217 68 33 214 82 249 82 12 0 25 3 29 6 10 11 -34 84 -52 84 -9 -1 -81 -21 -161 -46z"
       id="path422"
       style="fill:#336600" />
    <path
       d="M1880 2265 c-30 -7 -118 -23 -195 -34 -77 -12 -163 -29 -192 -37 -59 -17 -109 -58 -119 -99 -11 -45 6 -60 65 -59 41 2 63 9 104 36 94 63 200 115 317 158 63 23 117 44 119 46 8 8 -45 2 -99 -11z"
       id="path424"
       style="fill:#333366" />
    <path
       d="M5685 2271 c-3 -2 -5 -18 -5 -35 0 -61 -51 -134 -130 -188 -19 -12 -22 -19 -14 -28 9 -8 20 -5 48 14 20 13 59 32 85 41 47 15 49 17 54 62 6 56 33 85 87 92 36 5 40 8 28 23 -9 11 -33 17 -81 20 -37 2 -70 2 -72 -1z"
       id="path426"
       style="fill:#669999" />
    <path
       d="M2274 2240 c-121 -31 -163 -57 -211 -128 -54 -79 -73 -144 -73 -248 0 -88 27 -201 74 -307 l26 -58 78 40 c145 76 331 234 455 385 31 39 57 73 57 78 0 8 -73 48 -88 48 -4 0 -18 -20 -29 -44 -34 -70 -140 -176 -176 -176 -6 0 8 13 29 28 63 46 138 142 133 169 -1 4 1 15 5 24 5 10 -16 38 -68 92 l-75 77 -17 -31 c-28 -56 0 -116 71 -153 24 -13 26 -16 10 -16 -31 0 -82 36 -100 69 -21 41 -19 77 6 112 26 36 17 36 -46 0 -59 -34 -121 -98 -141 -147 -42 -101 18 -207 128 -224 l53 -9 -63 3 c-59 2 -66 5 -104 43 -36 37 -42 48 -46 97 -3 43 0 65 18 100 27 56 114 138 174 162 89 37 39 45 -80 14z"
       id="path428"
       style="fill:#990033" />
    <path
       d="M4510 2241 c-32 -9 -49 -56 -49 -141 -1 -164 139 -280 338 -280 152 0 270 67 321 184 19 41 20 52 9 72 -7 13 -16 24 -20 24 -5 0 -28 -21 -51 -47 -112 -122 -324 -132 -444 -21 -61 56 -77 125 -48 202 7 17 -11 20 -56 7z"
       id="path430"
       style="fill:#669999" />
    <path
       d="M4220 2180 l-225 -46 -3 -33 c-5 -48 30 -112 79 -143 99 -64 284 -44 348 38 17 21 21 41 21 93 0 36 4 81 9 98 5 18 6 34 3 36 -4 2 -108 -17 -232 -43z"
       id="path432"
       style="fill:#6699ff" />
    <path
       d="M1979 2102 c-133 -87 -169 -153 -114 -207 31 -32 70 -32 88 -2 8 12 19 47 26 78 7 31 28 83 47 114 19 32 33 60 31 62 -2 2 -37 -18 -78 -45z"
       id="path434"
       style="fill:#333366" />
    <path
       d="M3900 2119 c-25 -6 -55 -12 -67 -15 -19 -4 -23 -11 -23 -42 0 -92 87 -198 208 -255 56 -27 82 -32 154 -35 122 -5 183 15 259 86 33 30 59 58 59 63 0 4 -9 24 -21 44 l-21 35 -34 -29 c-43 -38 -120 -61 -204 -61 -152 0 -225 60 -243 199 -3 19 -13 20 -67 10z"
       id="path436"
       style="fill:#669999" />
    <path
       d="M3719 2086 c-2 -2 -76 -14 -164 -26 -88 -13 -165 -28 -172 -34 -20 -18 4 -90 43 -129 58 -57 174 -83 255 -56 81 28 141 100 120 146 -6 13 -11 42 -11 63 0 39 -1 40 -33 40 -19 0 -36 -2 -38 -4z"
       id="path438"
       style="fill:#6699ff" />
    <path
       d="M5140 2001 c-12 -27 -40 -67 -61 -87 -48 -47 -52 -90 -14 -146 69 -102 263 -112 352 -16 47 50 54 108 23 191 l-20 54 -79 6 c-47 3 -97 13 -126 26 -26 12 -48 21 -50 21 -1 0 -12 -22 -25 -49z"
       id="path440"
       style="fill:#669999" />
    <path
       d="M3290 2021 c-20 -5 -26 -14 -28 -44 -8 -98 70 -212 180 -263 55 -25 75 -29 153 -29 78 0 97 4 140 26 93 49 151 157 107 201 l-20 21 -34 -38 c-46 -53 -104 -77 -186 -76 -77 0 -122 12 -167 42 -44 30 -73 76 -81 127 -7 44 -13 47 -64 33z"
       id="path442"
       style="fill:#669999" />
    <path
       d="M3178 2012 c-27 -2 -48 -5 -48 -8 0 -3 9 -22 20 -44 12 -23 20 -59 20 -88 0 -70 33 -93 79 -54 20 16 20 19 6 57 -8 22 -14 61 -15 87 0 26 -3 48 -7 50 -5 2 -29 2 -55 0z"
       id="path444"
       style="fill:#990000" />
    <path
       d="M5457 2013 c-10 -3 -17 -8 -15 -11 2 -4 10 -24 18 -44 8 -21 16 -38 20 -38 3 1 15 17 28 37 32 50 12 72 -51 56z"
       id="path446"
       style="fill:#ccffcc" />
    <path
       d="M2676 1931 c-39 -77 -111 -169 -246 -316 -92 -101 -170 -206 -170 -230 0 -8 8 -16 18 -19 50 -14 144 -26 214 -26 290 0 564 179 638 417 26 85 25 138 -2 193 l-23 45 -75 0 c-62 0 -74 -3 -71 -15 14 -49 12 -163 -4 -216 -46 -161 -164 -294 -259 -294 -39 0 -76 21 -92 51 -33 65 -7 174 85 356 55 111 59 123 36 123 -8 0 -30 -30 -49 -69z"
       id="path448"
       style="fill:#990033" />
    <path
       d="M2773 1994 c-8 -3 -13 -24 -13 -48 0 -104 108 -141 146 -51 15 37 19 81 7 88 -13 8 -127 16 -140 11z"
       id="path450"
       style="fill:#990033" />
    <path
       d="M2928 1898 c-16 -37 -60 -68 -95 -68 -27 0 -80 36 -88 59 -3 12 -10 21 -14 21 -11 0 -85 -163 -105 -229 -29 -98 -15 -165 39 -189 39 -18 58 -15 103 16 104 70 187 239 180 369 l-3 58 -17 -37z"
       id="path452"
       style="fill:#990033" />
    <path
       d="M4492 1888 c-19 -25 -39 -73 -46 -110 -22 -121 86 -228 229 -228 134 1 215 82 215 218 l0 42 -89 0 c-102 0 -192 23 -246 64 -38 29 -48 31 -63 14z"
       id="path454"
       style="fill:#669999" />
    <path
       d="M4990 1850 c-10 -6 -15 -26 -14 -64 0 -75 34 -125 111 -163 53 -26 67 -28 168 -27 92 0 119 4 163 23 51 23 102 70 102 95 0 7 -13 24 -28 39 l-28 27 -39 -40 c-83 -85 -245 -96 -343 -23 -37 28 -62 71 -62 107 0 29 -10 38 -30 26z"
       id="path456"
       style="fill:#669999" />
    <path
       d="M4923 1823 c-8 -3 -13 -25 -13 -59 0 -137 -93 -227 -235 -228 -160 -1 -269 101 -251 236 4 28 3 48 -1 46 -4 -2 -34 -17 -67 -32 l-58 -29 6 -44 c24 -177 197 -307 411 -307 70 -1 87 3 134 29 109 60 158 178 116 278 -8 20 -15 55 -15 77 0 40 -3 43 -27 33z"
       id="path458"
       style="fill:#669999" />
    <path
       d="M3255 1801 c-3 -6 -25 -11 -49 -11 l-42 0 -17 -53 c-20 -62 -21 -97 -6 -152 30 -111 141 -129 179 -29 16 40 11 144 -9 199 -17 48 -42 68 -56 46z"
       id="path460"
       style="fill:#990000" />
    <path
       d="M3347 1713 c13 -45 7 -136 -10 -170 -62 -120 -200 -86 -223 55 -4 23 -9 42 -13 42 -3 0 -20 -22 -37 -48 -57 -85 -69 -157 -53 -306 6 -61 14 -114 18 -118 10 -11 124 46 216 107 91 60 189 158 210 209 35 83 6 186 -64 233 -44 30 -53 29 -44 -4z"
       id="path462"
       style="fill:#990000" />
    <path
       d="M3203 7760 c-63 -38 -92 -144 -58 -209 19 -37 89 -71 146 -71 71 0 148 44 177 100 36 73 14 128 -69 174 -60 33 -148 36 -196 6z"
       id="path464"
       style="fill:#ccccff" />
    <path
       d="M2462 7743 c-33 -16 -62 -57 -62 -88 0 -9 13 -30 29 -46 43 -43 101 -41 147 5 19 19 34 41 34 50 0 33 -30 74 -61 85 -41 14 -47 14 -87 -6z"
       id="path466"
       style="fill:#ccccff" />
    <path
       d="M7857 4462 c-9 -10 -26 -40 -38 -67 -29 -66 -23 -152 16 -224 16 -28 33 -50 39 -48 6 1 24 29 41 62 25 50 30 71 30 135 0 67 -3 82 -28 118 -31 47 -37 50 -60 24z"
       id="path468"
       style="fill:#cc6699" />
  </g>
</svg>
