<?xml version="1.0" encoding="UTF-8" standalone="no"?>
<svg
   xmlns:dc="http://purl.org/dc/elements/1.1/"
   xmlns:cc="http://creativecommons.org/ns#"
   xmlns:rdf="http://www.w3.org/1999/02/22-rdf-syntax-ns#"
   xmlns:svg="http://www.w3.org/2000/svg"
   xmlns="http://www.w3.org/2000/svg"
   xmlns:sodipodi="http://sodipodi.sourceforge.net/DTD/sodipodi-0.dtd"
   xmlns:inkscape="http://www.inkscape.org/namespaces/inkscape"
   version="1.0"
   width="850.000000pt"
   height="850.000000pt"
   viewBox="0 0 850.000000 850.000000"
   preserveAspectRatio="xMidYMid meet"
   id="svg2"
   inkscape:version="0.91 r13725"
   sodipodi:docname="Florals_2018916_13.svg">
  <defs
     id="defs422" />
  <sodipodi:namedview
     pagecolor="#ffffff"
     bordercolor="#666666"
     borderopacity="1"
     objecttolerance="10"
     gridtolerance="10"
     guidetolerance="10"
     inkscape:pageopacity="0"
     inkscape:pageshadow="2"
     inkscape:window-width="1920"
     inkscape:window-height="979"
     id="namedview420"
     showgrid="false"
     inkscape:zoom="1.7769412"
     inkscape:cx="532.45759"
     inkscape:cy="217.4304"
     inkscape:window-x="0"
     inkscape:window-y="1"
     inkscape:window-maximized="1"
     inkscape:current-layer="svg2" />
  <metadata
     id="metadata4">
Created by potrace 1.14, written by Peter Selinger 2001-2017
<rdf:RDF>
  <cc:Work
     rdf:about="">
    <dc:format>image/svg+xml</dc:format>
    <dc:type
       rdf:resource="http://purl.org/dc/dcmitype/StillImage" />
  </cc:Work>
</rdf:RDF>
</metadata>
  <g
     transform="translate(0.000000,850.000000) scale(0.100000,-0.100000)"
     fill="#000000"
     stroke="none"
     id="g6">
    <path
       d="M0 4250 l0 -4250 4250 0 4250 0 0 4250 0 4250 -4250 0 -4250 0 0 -4250z m4682 3821 c115 -23 223 -56 303 -92 49 -22 52 -25 139 -183 l88 -162 297 -109 c163 -60 341 -126 396 -145 55 -20 210 -77 345 -127 135 -50 264 -95 287 -102 23 -6 44 -15 47 -19 2 -4 -15 -84 -40 -177 -24 -94 -44 -188 -44 -211 0 -22 -6 -54 -14 -70 -33 -67 -46 -399 -25 -644 17 -201 27 -237 175 -657 57 -161 104 -302 104 -313 0 -27 -26 -77 -60 -117 -17 -19 -41 -71 -60 -130 -17 -54 -42 -117 -56 -140 -27 -46 -72 -103 -82 -103 -4 0 -18 28 -31 63 -26 68 -117 256 -132 272 -5 5 -9 -22 -9 -68 0 -278 -77 -565 -196 -735 -26 -37 -167 -186 -313 -332 -302 -301 -391 -405 -458 -540 -46 -91 -48 -99 -48 -180 0 -98 22 -173 92 -313 l43 -87 39 6 c34 5 43 3 66 -21 26 -25 27 -30 21 -85 l-7 -59 43 -47 c47 -51 244 -214 259 -214 5 0 26 7 46 15 54 23 124 20 152 -7 21 -19 23 -28 18 -82 -3 -34 -8 -68 -11 -76 -3 -10 17 -32 65 -69 l69 -54 71 2 c96 3 119 -12 118 -77 -1 -26 -4 -58 -8 -72 -5 -20 6 -41 64 -120 39 -52 98 -132 130 -176 33 -45 88 -116 123 -158 34 -43 62 -83 62 -89 0 -27 -683 -483 -980 -654 -417 -240 -732 -337 -1220 -374 -288 -22 -549 -1 -895 71 -415 87 -686 172 -860 272 -181 104 -726 458 -967 629 -89 63 -90 51 16 180 39 48 122 157 183 242 86 118 113 164 113 187 0 47 25 97 57 113 15 8 49 17 75 21 61 9 175 96 170 130 -15 101 -14 112 13 144 23 27 34 32 71 32 25 0 61 -7 81 -15 19 -8 39 -15 44 -15 13 0 200 154 254 209 l50 51 -3 68 c-4 84 13 106 80 100 l43 -3 42 80 c96 181 120 327 73 449 -52 136 -211 330 -487 592 -243 232 -312 314 -383 459 -33 66 -66 148 -75 182 -23 95 -43 255 -47 380 -2 62 -6 113 -9 113 -10 0 -86 -147 -131 -251 -23 -55 -45 -99 -49 -99 -10 0 -73 87 -96 135 -11 22 -30 72 -42 112 -13 43 -40 99 -67 139 -56 82 -56 83 22 297 150 408 201 579 209 712 17 262 10 590 -16 725 -6 36 -32 145 -56 243 -25 98 -43 184 -40 190 2 7 29 21 58 31 30 10 185 67 344 126 160 59 447 166 639 236 l350 129 23 110 c13 60 27 113 31 117 18 18 263 150 312 169 140 53 287 68 630 65 226 -3 281 -6 372 -25z"
       id="path8"
       style="fill:none" />
    <path
       d="M4045 8080 c-250 -18 -351 -47 -535 -152 -71 -40 -130 -76 -130 -80 0 -18 197 -120 307 -159 l52 -18 86 35 c124 51 252 74 440 81 146 5 169 3 245 -17 146 -39 136 -40 272 35 68 36 147 84 177 105 l55 39 -55 25 c-204 90 -567 132 -914 106z m377 -27 c45 -41 -2 -120 -57 -95 -26 12 -53 52 -35 52 5 0 10 -7 10 -15 0 -9 11 -21 25 -27 22 -10 29 -9 47 9 28 28 18 70 -19 79 -20 5 -31 2 -45 -16 -10 -12 -18 -18 -18 -12 0 18 30 42 52 42 12 0 30 -7 40 -17z m-430 -20 c46 -42 -6 -118 -62 -90 -13 7 -25 19 -28 27 -3 12 -2 12 9 -1 8 -9 21 -19 30 -22 24 -8 59 20 59 47 0 51 -56 63 -89 19 -15 -20 -19 -23 -15 -8 15 44 63 58 96 28z m422 -9 c8 -21 -11 -44 -36 -44 -21 0 -33 22 -24 45 7 20 52 19 60 -1z m-440 -10 c20 -19 20 -28 1 -44 -30 -25 -70 15 -45 45 16 19 25 19 44 -1z m864 -30 c44 -30 16 -104 -39 -104 -16 0 -59 44 -59 60 0 16 43 60 59 60 9 0 27 -7 39 -16z m-1191 -80 c15 -24 15 -29 2 -53 -28 -50 -109 -32 -109 25 0 55 76 75 107 28z"
       id="path10"
       style="fill:#ff0000" />
    <path
       d="M4365 8020 c-4 -7 -3 -16 3 -22 14 -14 45 -2 40 15 -6 16 -34 21 -43 7z"
       id="path12"
       style="fill:#0099ff" />
    <path
       d="M3941 8010 c-17 -10 -7 -40 13 -40 7 0 16 6 19 14 8 19 -15 37 -32 26z"
       id="path14"
       style="fill:#0099ff" />
    <path
       d="M4770 7970 c-11 -11 -20 -24 -20 -30 0 -15 38 -50 54 -50 20 0 46 28 46 50 0 22 -26 50 -46 50 -8 0 -23 -9 -34 -20z m60 -15 c10 -12 10 -18 0 -30 -27 -32 -71 -8 -56 30 3 8 14 15 24 15 11 0 25 -7 32 -15z"
       id="path16"
       style="fill:#0099ff" />
    <path
       d="M4785 7950 c-4 -7 -3 -16 3 -22 14 -14 45 -2 40 15 -6 16 -34 21 -43 7z"
       id="path18"
       style="fill:#0099ff" />
    <path
       d="M3562 7908 c-16 -16 -15 -53 2 -68 36 -29 92 13 75 58 -9 25 -56 31 -77 10z m58 -13 c15 -18 7 -43 -16 -52 -24 -9 -46 24 -33 48 12 23 32 24 49 4z"
       id="path20"
       style="fill:#0099ff" />
    <path
       d="M3581 7886 c-9 -10 -8 -16 4 -26 19 -16 41 1 32 24 -8 20 -21 20 -36 2z"
       id="path22"
       style="fill:#0099ff" />
    <path
       d="M4955 7888 c-95 -66 -366 -201 -559 -278 -87 -35 -184 -80 -215 -101 -60 -40 -101 -98 -101 -143 0 -34 41 -125 82 -182 l33 -46 62 6 c269 28 768 251 902 403 23 25 39 48 37 51 -3 2 -24 -11 -48 -31 -67 -54 -169 -113 -353 -204 -93 -45 -172 -83 -175 -83 -7 0 -43 71 -38 75 2 1 82 41 178 88 96 47 228 120 292 162 103 67 117 79 108 95 -6 11 -14 21 -19 24 -4 3 -52 -24 -106 -59 -148 -98 -430 -235 -482 -235 -7 0 -22 18 -32 39 l-20 39 57 23 c103 40 345 167 439 229 l93 61 -25 47 c-13 26 -28 52 -32 58 -5 7 -32 -6 -78 -38z m-614 -455 c24 -14 34 -15 62 -5 46 16 65 15 75 -5 14 -28 3 -43 -44 -63 -35 -15 -44 -24 -44 -44 0 -30 -50 -82 -86 -89 -73 -14 -134 38 -134 113 0 34 6 48 34 76 39 39 89 45 137 17z"
       id="path24"
       style="fill:#ff0000" />
    <path
       d="M4209 7411 c-53 -53 -34 -137 37 -167 29 -12 39 -12 68 0 106 44 79 196 -34 196 -33 0 -48 -6 -71 -29z"
       id="path26"
       style="fill:#0099ff" />
    <path
       d="M4403 7418 c-25 -12 -28 -24 -13 -48 8 -12 14 -12 45 3 25 12 35 23 33 35 -4 20 -34 25 -65 10z"
       id="path28"
       style="fill:#0099ff" />
    <path
       d="M3361 7783 c-6 -21 -11 -42 -11 -46 0 -13 158 -83 283 -126 143 -49 243 -77 377 -106 l107 -22 37 27 37 28 -78 17 c-255 54 -460 122 -618 203 -60 32 -113 58 -117 60 -3 2 -11 -14 -17 -35z"
       id="path30"
       style="fill:#ff0000" />
    <path
       d="M5040 7777 c-79 -58 -240 -149 -371 -209 -70 -32 -133 -58 -138 -58 -17 0 -13 -25 7 -50 l18 -22 94 37 c52 20 138 59 190 87 99 52 290 173 290 183 0 12 -31 65 -38 65 -4 0 -27 -15 -52 -33z"
       id="path32"
       style="fill:#0066ff" />
    <path
       d="M4127 7765 c-120 -17 -238 -46 -308 -76 l-53 -23 33 -13 c52 -22 353 -94 396 -95 30 -1 86 18 219 75 98 42 183 80 188 85 5 5 -23 18 -69 32 -97 29 -266 35 -406 15z"
       id="path34"
       style="fill:none" />
    <path
       d="M3340 7703 c0 -10 -3 -27 -6 -39 -5 -19 9 -27 148 -82 176 -69 270 -99 453 -142 124 -30 130 -31 143 -13 35 47 34 50 -16 58 -161 23 -459 116 -631 196 -46 21 -85 39 -87 39 -2 0 -4 -8 -4 -17z"
       id="path36"
       style="fill:#ff0000" />
    <path
       d="M5060 7599 c-58 -39 -187 -111 -287 -161 l-182 -90 14 -29 15 -28 98 45 c200 93 419 221 465 272 15 16 16 24 7 41 -6 12 -14 21 -18 20 -4 0 -54 -32 -112 -70z"
       id="path38"
       style="fill:#0066ff" />
    <path
       d="M3328 7584 c-3 -46 -3 -47 37 -64 155 -66 382 -136 567 -174 70 -14 130 -26 133 -26 3 0 5 18 5 39 0 36 -2 40 -32 46 -196 40 -451 119 -621 191 -43 19 -80 34 -82 34 -2 0 -5 -21 -7 -46z"
       id="path40"
       style="fill:#ff0000" />
    <path
       d="M3198 7577 c-104 -41 -108 -43 -149 -102 -163 -233 -377 -487 -492 -584 -93 -78 -238 -174 -345 -229 l-73 -37 7 -65 c4 -36 10 -96 13 -133 l6 -68 134 92 c297 203 469 336 575 444 83 84 230 267 345 427 l84 118 5 90 c2 49 2 90 0 89 -1 -1 -51 -20 -110 -42z"
       id="path42"
       style="fill:#6666ff" />
    <path
       d="M5213 7593 c-4 -10 -20 -31 -35 -48 -15 -16 -28 -32 -28 -35 0 -3 40 -60 88 -127 260 -364 408 -523 652 -705 171 -127 439 -312 445 -307 2 2 8 55 14 116 6 62 14 119 17 127 4 9 -28 31 -102 70 -59 32 -148 85 -198 119 -164 111 -384 350 -595 645 l-72 101 -80 30 c-94 36 -98 37 -106 14z"
       id="path44"
       style="fill:#6666ff" />
    <path
       d="M5464 7474 c82 -115 238 -313 325 -411 134 -151 280 -264 483 -372 94 -51 96 -51 102 -29 13 49 7 55 -122 131 -159 93 -274 179 -370 277 -84 85 -205 233 -287 350 -46 65 -63 81 -98 93 -23 8 -51 18 -62 23 -14 6 -6 -12 29 -62z"
       id="path46"
       style="fill:#6666cc" />
    <path
       d="M3008 7506 c-51 -19 -63 -29 -109 -96 -208 -297 -389 -472 -642 -619 -143 -84 -139 -80 -131 -118 4 -18 12 -33 18 -33 18 0 251 138 321 190 136 99 298 277 493 538 63 84 113 155 111 156 -2 2 -30 -6 -61 -18z"
       id="path48"
       style="fill:#6666cc" />
    <path
       d="M3318 7494 c-5 -42 -3 -43 165 -109 157 -61 321 -109 475 -139 174 -34 166 -35 140 18 l-21 44 -91 16 c-187 34 -533 138 -637 192 -26 13 -27 13 -31 -22z"
       id="path50"
       style="fill:#ff0000" />
    <path
       d="M5106 7476 l-29 -24 73 -104 c242 -341 525 -631 841 -865 77 -57 276 -191 337 -227 9 -5 12 5 12 42 l0 50 -177 123 c-318 219 -488 355 -595 474 -108 121 -266 326 -384 497 -21 32 -41 58 -44 58 -3 -1 -18 -11 -34 -24z"
       id="path52"
       style="fill:#cc99ff" />
    <path
       d="M5566 7477 c20 -33 126 -173 199 -262 149 -182 286 -295 519 -429 54 -31 99 -56 100 -54 11 15 46 212 39 218 -4 4 -42 22 -83 39 -41 17 -110 55 -152 84 -98 66 -254 203 -298 262 -25 34 -47 50 -89 66 -173 65 -241 87 -235 76z"
       id="path54"
       style="fill:#cc99ff" />
    <path
       d="M2777 7421 c-123 -47 -150 -61 -166 -86 -24 -41 -158 -165 -256 -238 -77 -57 -243 -147 -273 -147 -10 0 -12 -7 -9 -22 3 -13 13 -57 22 -98 9 -42 20 -82 25 -89 19 -31 342 182 472 312 104 105 350 411 337 421 -2 1 -70 -23 -152 -53z"
       id="path56"
       style="fill:#cc99ff" />
    <path
       d="M5052 7437 c-6 -7 -50 -33 -97 -58 -46 -24 -85 -48 -85 -53 0 -4 17 -40 37 -80 137 -259 556 -680 1028 -1031 164 -122 407 -294 416 -295 3 0 2 30 -2 68 -5 37 -8 108 -8 158 l-1 91 -86 53 c-431 264 -826 640 -1118 1063 -37 53 -69 97 -71 97 -1 0 -7 -6 -13 -13z"
       id="path58"
       style="fill:#6666ff" />
    <path
       d="M3325 7418 c22 -79 179 -148 505 -223 108 -25 329 -60 335 -53 2 2 -5 17 -16 34 -17 28 -26 32 -106 44 -183 27 -484 115 -650 190 -36 17 -68 30 -70 30 -2 0 -1 -10 2 -22z"
       id="path60"
       style="fill:#ff0000" />
    <path
       d="M3217 7302 c-277 -383 -409 -511 -822 -797 -240 -166 -233 -159 -226 -213 l6 -43 122 80 c391 256 691 535 967 901 47 63 85 119 83 125 -2 5 -12 15 -23 20 -11 6 -18 18 -16 28 2 9 1 17 -1 17 -3 0 -43 -53 -90 -118z"
       id="path62"
       style="fill:#cc99ff" />
    <path
       d="M5889 7351 c17 -31 191 -190 266 -243 72 -52 182 -111 246 -133 35 -13 37 -12 43 8 12 45 6 54 -41 72 -144 54 -309 158 -376 235 -21 25 -52 46 -87 59 -66 25 -63 25 -51 2z"
       id="path64"
       style="fill:#6666cc" />
    <path
       d="M2556 7338 c-32 -12 -77 -45 -122 -88 -81 -76 -188 -144 -307 -192 -67 -28 -77 -35 -73 -53 3 -11 6 -26 6 -32 0 -7 8 -13 18 -13 27 0 169 72 239 122 123 86 307 258 292 273 -2 1 -26 -6 -53 -17z"
       id="path66"
       style="fill:#6666cc" />
    <path
       d="M3315 7282 c-147 -212 -440 -527 -645 -694 -126 -102 -295 -224 -413 -299 l-87 -54 -2 -60 c-2 -57 -2 -57 -5 -12 -4 52 -5 52 -32 35 -15 -9 -25 -9 -43 0 -21 10 -21 10 8 5 25 -4 35 0 48 18 9 13 16 27 16 31 0 13 -39 48 -54 48 -34 0 -43 -27 -45 -132 0 -57 -6 -146 -11 -199 -6 -53 -10 -101 -9 -105 1 -5 -1 -17 -6 -27 -12 -28 10 -67 39 -67 31 0 59 27 53 52 -3 11 -1 31 4 46 5 15 13 77 18 137 l10 110 -4 -97 c-2 -54 -1 -98 2 -98 21 0 514 363 668 491 219 184 480 440 600 589 76 93 167 232 158 241 -5 3 -33 14 -63 24 -30 10 -77 29 -105 44 -27 14 -52 27 -55 28 -3 1 -23 -24 -45 -55z m-1180 -1032 c0 -30 -35 -40 -55 -15 -10 12 -10 18 0 30 20 25 55 15 55 -15z m-21 -388 c2 -4 -11 -6 -30 -4 -19 2 -34 6 -34 8 0 8 59 4 64 -4z m-20 -18 c20 -8 21 -38 2 -53 -19 -16 -46 -3 -46 23 0 34 12 42 44 30z"
       id="path68"
       style="fill:#6666ff" />
    <path
       d="M2085 6260 c-4 -7 -3 -16 3 -22 14 -14 45 -2 40 15 -6 16 -34 21 -43 7z"
       id="path70"
       style="fill:#3333ff" />
    <path
       d="M2063 5824 c-8 -21 13 -42 28 -27 13 13 5 43 -11 43 -6 0 -13 -7 -17 -16z"
       id="path72"
       style="fill:#0033ff" />
    <path
       d="M4815 7306 c-17 -13 -17 -16 14 -81 54 -117 143 -230 368 -471 271 -289 558 -525 1092 -899 l84 -58 -8 49 c-4 27 -9 52 -12 57 -2 4 -46 35 -96 69 -381 256 -672 493 -968 788 -194 194 -314 341 -391 481 -24 43 -48 79 -54 79 -5 0 -19 -6 -29 -14z"
       id="path74"
       style="fill:#cc99ff" />
    <path
       d="M6055 7280 c61 -63 153 -126 258 -175 140 -65 143 -66 157 -15 6 23 10 46 8 52 -3 9 -135 61 -393 154 l-70 25 40 -41z"
       id="path76"
       style="fill:#cc99ff" />
    <path
       d="M2450 7301 c-8 -5 -105 -41 -215 -81 -110 -40 -204 -76 -208 -80 -10 -9 12 -100 25 -100 21 0 177 74 243 115 73 46 184 139 175 148 -3 3 -12 2 -20 -2z"
       id="path78"
       style="fill:#cc99ff" />
    <path
       d="M4687 7252 c-100 -42 -98 -32 -36 -157 75 -151 266 -381 541 -651 237 -232 436 -393 758 -614 214 -147 289 -208 437 -358 115 -115 122 -120 104 -79 -30 69 -88 256 -101 325 l-13 62 -186 132 c-419 297 -609 449 -841 675 -271 263 -453 479 -523 621 -23 45 -44 82 -47 81 -3 -1 -44 -17 -93 -37z"
       id="path80"
       style="fill:#6666ff" />
    <path
       d="M3553 7161 c-82 -130 -194 -259 -394 -456 -280 -275 -553 -495 -886 -718 -104 -69 -123 -87 -129 -113 -16 -83 -12 -82 188 61 418 299 585 434 817 660 236 230 432 459 487 566 27 55 26 64 -10 71 -21 4 -31 -5 -73 -71z"
       id="path82"
       style="fill:#cc99ff" />
    <path
       d="M3647 7156 c-46 -88 -189 -258 -382 -455 -306 -313 -456 -438 -906 -759 l-227 -162 -22 -97 c-12 -54 -40 -147 -61 -207 l-38 -109 122 120 c135 132 213 197 362 298 297 203 482 346 689 533 197 179 460 467 578 633 44 62 124 207 117 213 -6 5 -177 46 -191 46 -7 0 -26 -24 -41 -54z"
       id="path84"
       style="fill:#6666ff" />
    <path
       d="M4558 7203 c-24 -6 -23 -14 13 -86 117 -230 329 -499 615 -777 139 -134 236 -211 609 -480 452 -326 612 -462 729 -622 27 -37 51 -66 53 -64 3 2 -8 34 -24 72 -24 57 -47 87 -158 202 -150 155 -230 222 -445 369 -335 230 -561 414 -795 648 -283 282 -471 518 -540 678 -16 37 -32 66 -35 66 -3 -1 -13 -3 -22 -6z"
       id="path86"
       style="fill:#cc99ff" />
    <path
       d="M4410 7158 c-58 -15 -121 -27 -140 -28 -19 0 -42 -5 -50 -10 -39 -25 75 -290 218 -506 109 -165 218 -297 368 -446 212 -210 336 -303 857 -640 438 -283 634 -492 778 -828 23 -55 46 -100 51 -100 5 0 13 10 19 23 22 49 -88 302 -191 438 -103 138 -264 267 -695 559 -451 306 -569 402 -856 696 -169 174 -269 296 -368 448 -67 105 -71 113 -71 169 0 34 4 56 9 52 6 -3 8 -27 5 -53 -5 -42 -1 -54 37 -117 115 -189 235 -333 473 -570 252 -251 334 -316 731 -585 476 -322 654 -466 761 -616 58 -81 127 -219 156 -311 13 -40 26 -73 29 -73 3 0 14 18 24 40 18 39 18 43 1 98 -22 68 -75 177 -116 237 -104 152 -317 327 -870 717 -157 111 -332 245 -430 329 -207 179 -453 425 -594 594 -105 126 -202 262 -194 270 2 2 27 -31 55 -73 133 -200 409 -493 728 -772 162 -142 173 -150 470 -360 694 -490 872 -661 956 -923 l23 -71 21 71 c12 39 34 92 49 117 l27 46 -40 69 c-62 106 -156 227 -250 325 -121 124 -230 209 -731 571 -337 243 -450 340 -639 548 -238 263 -333 388 -435 577 -31 58 -60 107 -64 110 -4 3 -54 -7 -112 -22z"
       id="path88"
       style="fill:#6666ff" />
    <path
       d="M3867 7107 c-71 -156 -282 -412 -568 -692 -226 -221 -443 -396 -764 -615 -201 -137 -268 -191 -412 -336 -120 -119 -145 -156 -184 -264 l-9 -25 18 25 c36 51 132 158 208 230 90 86 256 213 599 460 132 95 287 209 345 254 182 142 460 432 640 671 67 88 200 310 200 333 0 7 -11 12 -24 12 -20 0 -29 -10 -49 -53z"
       id="path90"
       style="fill:#cc99ff" />
    <path
       d="M3950 7143 c0 -20 -145 -260 -203 -337 -109 -143 -237 -287 -396 -447 -175 -174 -211 -203 -606 -489 -350 -253 -509 -375 -598 -459 -102 -96 -228 -259 -281 -362 l-46 -90 24 -42 c13 -23 31 -67 41 -97 26 -87 27 -88 37 -45 17 77 104 237 171 316 119 139 367 338 797 639 274 192 300 212 480 369 216 190 340 311 484 475 144 162 233 277 276 356 l29 55 1 -58 c0 -68 -8 -86 -101 -222 -99 -146 -213 -278 -399 -465 -223 -223 -373 -346 -667 -545 -635 -431 -760 -536 -884 -740 -45 -75 -100 -197 -123 -276 -15 -49 -15 -53 4 -76 18 -23 20 -24 26 -7 24 68 95 218 136 287 160 267 328 413 878 762 303 192 463 318 666 520 213 213 370 422 488 655 l56 109 -28 98 -28 98 -65 6 c-35 3 -88 9 -116 13 -31 5 -53 4 -53 -1z"
       id="path92"
       style="fill:#6666ff" />
    <path
       d="M6496 7142 c-9 -15 -85 -338 -91 -387 -3 -27 -10 -61 -15 -75 -17 -48 -32 -176 -36 -309 -3 -115 -1 -137 13 -153 18 -21 53 -24 71 -6 19 19 14 55 -10 72 -16 12 -18 16 -7 16 13 0 17 22 23 133 4 72 11 153 15 180 7 44 7 47 -14 47 -13 0 -28 7 -35 16 -12 13 -10 14 12 4 43 -20 68 1 67 58 0 26 20 123 44 215 l43 168 -27 15 c-32 16 -46 18 -53 6z m-29 -370 c8 -5 -1 -8 -22 -8 -21 0 -30 3 -22 8 6 4 17 8 22 8 6 0 16 -4 22 -8z m7 -37 c9 -24 -4 -45 -29 -45 -25 0 -38 21 -29 45 4 8 16 15 29 15 13 0 25 -7 29 -15z m-74 -439 c0 -2 -9 -6 -20 -9 -11 -3 -18 -1 -14 4 5 9 34 13 34 5z m30 -35 c7 -15 6 -24 -6 -36 -19 -18 -33 -16 -48 7 -7 12 -6 21 3 32 18 22 38 20 51 -3z"
       id="path94"
       style="fill:#cc99ff" />
    <path
       d="M6425 6730 c-4 -7 -3 -16 3 -22 14 -14 45 -2 40 15 -6 16 -34 21 -43 7z"
       id="path96"
       style="fill:#0033ff" />
    <path
       d="M6383 6254 c-3 -8 -1 -20 5 -26 15 -15 43 8 35 28 -7 19 -32 18 -40 -2z"
       id="path98"
       style="fill:#0033ff" />
    <path
       d="M1963 7125 c-18 -8 -33 -17 -33 -20 0 -10 83 -340 87 -344 2 -3 9 1 15 7 7 7 23 12 36 12 22 0 24 3 18 38 -4 20 -21 91 -38 157 -17 66 -33 130 -35 143 -6 26 -7 26 -50 7z"
       id="path100"
       style="fill:#cc99ff" />
    <path
       d="M4129 6909 c-66 -137 -411 -516 -719 -788 -197 -174 -220 -192 -510 -396 -692 -487 -876 -664 -956 -921 l-26 -82 22 -42 22 -43 29 89 c61 179 166 344 300 468 103 96 289 233 604 446 415 281 522 368 791 641 178 183 247 262 341 395 104 146 125 186 121 230 l-3 37 -16 -34z"
       id="path102"
       style="fill:#cc99ff" />
    <path
       d="M4213 6842 c-97 -204 -273 -450 -462 -644 -215 -222 -407 -373 -756 -594 -102 -64 -182 -120 -178 -124 4 -4 80 -31 168 -59 298 -96 535 -202 705 -317 52 -35 158 -118 235 -184 152 -131 214 -173 248 -168 22 3 22 0 49 -287 14 -159 27 -301 28 -315 2 -22 57 520 59 578 1 17 7 22 29 22 38 0 95 39 237 160 204 175 303 242 487 330 149 71 229 102 445 172 106 35 193 66 193 70 0 4 -87 61 -192 128 -340 215 -530 362 -728 560 -196 196 -378 442 -480 648 -25 50 -47 91 -50 91 -3 0 -19 -30 -37 -67z"
       id="path104"
       style="fill:none" />
    <path
       d="M2032 6758 c-19 -19 -14 -55 10 -72 19 -13 25 -14 43 -2 24 16 31 51 15 72 -15 17 -52 18 -68 2z m68 -32 c0 -20 -27 -39 -45 -32 -25 9 -30 37 -10 52 20 15 55 2 55 -20z"
       id="path106"
       style="fill:#0033ff" />
    <path
       d="M2051 6736 c-14 -17 -7 -36 14 -36 22 0 29 20 13 36 -13 13 -16 13 -27 0z"
       id="path108"
       style="fill:#0033ff" />
    <path
       d="m 2097,6673 c -4,-3 -19,-6 -35,-5 l -28,1 12,-87 c 7,-127.6973 13,-166.3646 13,-185 l 1,-99 30,7 c 19,4 37,2 46,-6 8,-6 16,-10 18,-8 6,6 -11,210 -25,307 -12,78 -17,91 -32,75 z"
       id="path110"
       style="fill:#cc99ff"
       inkscape:connector-curvature="0"
       sodipodi:nodetypes="ccccccccscc" />
    <path
       d="M6350 6143 c0 -37 5 -118 12 -180 9 -99 13 -113 27 -107 9 4 31 8 49 8 28 1 32 4 28 21 -3 11 -11 86 -17 166 -12 143 -13 146 -34 141 -13 -2 -32 1 -44 7 -20 11 -21 10 -21 -56z"
       id="path112"
       style="fill:#cc99ff" />
    <path
       d="M6396 5841 c-13 -14 -16 -26 -10 -43 4 -13 7 -26 6 -30 -4 -15 30 -146 65 -250 l35 -108 21 26 c16 21 26 25 52 21 l31 -5 -28 81 c-16 45 -45 134 -64 197 -19 63 -40 118 -47 122 -20 13 -43 9 -61 -11z m57 -9 c14 -15 15 -21 4 -36 -16 -22 -50 -17 -55 7 -4 18 14 47 28 47 4 0 14 -8 23 -18z m27 -50 c0 -17 -50 -33 -68 -22 -15 10 -14 10 4 5 11 -3 29 2 40 10 23 17 24 18 24 7z"
       id="path114"
       style="fill:#cc99ff" />
    <path
       d="M6412 5813 c5 -26 38 -29 38 -4 0 15 -6 21 -21 21 -14 0 -19 -5 -17 -17z"
       id="path116"
       style="fill:#0033ff" />
    <path
       d="M1970 5620 c-49 -149 -53 -167 -35 -160 25 9 60 -3 73 -26 8 -14 13 -6 31 41 12 32 32 99 45 149 40 157 40 143 5 138 -18 -3 -36 2 -47 11 -16 14 -21 3 -72 -153z"
       id="path118"
       style="fill:#cc99ff" />
    <path
       d="M2731 5433 l-54 -38 213 -102 c117 -57 216 -103 220 -103 10 0 41 101 43 139 2 24 -6 28 -178 83 -99 31 -182 57 -185 57 -3 1 -30 -16 -59 -36z"
       id="path120"
       style="fill:#9966ff" />
    <path
       d="M5715 5465 c-102 -32 -371 -118 -372 -119 -3 -3 37 -149 42 -155 6 -5 435 201 435 209 0 7 -17 20 -72 54 -13 7 -27 12 -33 11z"
       id="path122"
       style="fill:#9966ff" />
    <path
       d="M1922 5438 c-28 -28 -7 -78 33 -78 27 0 45 18 45 45 0 27 -18 45 -45 45 -12 0 -26 -5 -33 -12z m62 -20 c8 -14 7 -21 -6 -34 -30 -30 -75 9 -48 42 16 18 39 15 54 -8z"
       id="path124"
       style="fill:#0033ff" />
    <path
       d="M1934 5419 c-3 -6 0 -17 8 -25 13 -13 16 -13 27 0 7 8 10 20 6 26 -8 13 -32 13 -41 -1z"
       id="path126"
       style="fill:#0033ff" />
    <path
       d="M6522 5438 c-19 -19 -14 -55 10 -72 19 -13 25 -14 43 -2 24 16 31 51 15 72 -15 17 -52 18 -68 2z m68 -32 c0 -20 -27 -39 -45 -32 -25 9 -30 37 -10 52 20 15 55 2 55 -20z"
       id="path128"
       style="fill:#0033ff" />
    <path
       d="M6541 5416 c-14 -17 -7 -36 14 -36 22 0 29 20 13 36 -13 13 -16 13 -27 0z"
       id="path130"
       style="fill:#0033ff" />
    <path
       d="M1836 5236 c-32 -91 -58 -177 -58 -189 0 -12 6 -38 14 -57 l15 -35 43 85 c24 47 67 138 96 203 46 102 50 117 33 112 -31 -10 -65 2 -76 26 -8 19 -18 -4 -67 -145z"
       id="path132"
       style="fill:#cc99ff" />
    <path
       d="M2641 5368 c-13 -10 -22 -20 -20 -22 2 -2 98 -70 213 -151 193 -136 236 -163 236 -153 0 2 9 28 20 58 11 30 20 60 20 66 0 6 -48 34 -107 61 -60 28 -160 76 -224 106 -115 54 -115 54 -138 35z"
       id="path134"
       style="fill:#9966ff" />
    <path
       d="M5616 5284 c-121 -57 -222 -106 -224 -109 -5 -5 38 -135 45 -135 4 0 101 67 217 148 229 161 236 166 236 158 0 -2 -98 -73 -217 -157 -120 -84 -222 -156 -227 -160 -8 -7 44 -128 73 -169 8 -12 39 15 158 140 81 85 178 187 216 226 l68 72 -60 46 c-33 25 -61 46 -63 46 -2 -1 -102 -48 -222 -106z"
       id="path136"
       style="fill:#9966ff" />
    <path
       d="M6599 5368 c-10 -14 -26 -21 -47 -20 -18 0 -32 -1 -32 -3 0 -2 16 -39 35 -81 20 -42 33 -85 30 -95 -3 -9 -1 -20 4 -24 7 -4 9 1 5 12 -3 10 18 -26 46 -80 28 -54 55 -95 60 -92 5 3 15 23 21 43 10 34 7 50 -34 167 -24 72 -51 144 -58 162 -14 31 -14 31 -30 11z"
       id="path138"
       style="fill:#cc99ff" />
    <path
       d="M2569 5316 l-27 -23 208 -219 c115 -120 213 -220 218 -222 10 -3 99 165 91 172 -21 19 -450 316 -456 316 -4 0 -20 -11 -34 -24z"
       id="path140"
       style="fill:#9966ff" />
    <path
       d="M3160 5298 c-79 -302 -176 -491 -293 -572 -71 -48 -127 -66 -227 -73 -125 -8 -279 22 -413 82 -16 6 -18 4 -15 -16 6 -46 234 -124 393 -136 206 -14 351 64 451 244 42 75 89 202 135 367 18 65 35 114 36 109 6 -18 -77 -293 -115 -382 -51 -117 -90 -177 -157 -240 -65 -62 -124 -89 -227 -104 -126 -18 -305 15 -471 87 l-38 17 3 -38 c3 -37 6 -39 93 -85 185 -97 396 -144 538 -120 184 31 296 140 386 377 28 74 131 422 131 443 0 10 -166 82 -187 82 -7 0 -17 -19 -23 -42z"
       id="path142"
       style="fill:#cc66ff" />
    <path
       d="M5298 5333 c-25 -6 -24 -17 26 -187 96 -328 192 -478 344 -537 87 -34 244 -38 365 -10 136 32 251 82 255 109 4 27 8 27 -75 -3 -112 -40 -202 -57 -303 -58 -296 -1 -428 148 -564 636 -9 31 -20 56 -24 56 -4 -1 -15 -3 -24 -6z"
       id="path144"
       style="fill:#9933ff" />
    <path
       d="M5182 5284 c-41 -18 -52 -28 -48 -42 3 -9 25 -90 50 -179 86 -304 146 -434 248 -528 77 -71 144 -97 270 -103 157 -7 304 29 485 120 79 40 88 48 94 79 4 18 6 35 4 37 -2 2 -46 -13 -99 -33 -142 -53 -230 -68 -361 -63 -97 4 -119 8 -176 35 -154 72 -243 217 -342 559 -30 107 -45 144 -57 143 -8 0 -39 -12 -68 -25z"
       id="path146"
       style="fill:#cc66ff" />
    <path
       d="M5755 5068 c-115 -121 -212 -225 -214 -230 -4 -11 59 -79 101 -109 l26 -19 176 265 c97 147 176 268 176 271 0 7 -43 43 -50 43 -3 0 -99 -99 -215 -221z"
       id="path148"
       style="fill:#9966ff" />
    <path
       d="M2501 5261 l-24 -18 177 -267 176 -267 28 20 c42 30 105 98 101 109 -5 14 -420 442 -428 442 -3 0 -17 -9 -30 -19z"
       id="path150"
       style="fill:#9966ff" />
    <path
       d="M3350 5142 c-93 -343 -152 -480 -252 -587 -71 -77 -136 -110 -243 -127 -145 -22 -337 19 -533 114 -48 24 -90 44 -94 46 -3 2 -4 -6 -1 -18 7 -28 237 -140 358 -175 173 -50 355 -42 461 20 66 39 146 134 191 226 45 94 83 204 143 423 23 82 44 154 46 161 3 6 -6 16 -20 23 -24 11 -24 10 -56 -106z"
       id="path152"
       style="fill:#9933ff" />
    <path
       d="M5089 5240 c-14 -8 -8 -36 48 -230 66 -233 105 -339 160 -431 73 -126 182 -200 318 -218 61 -7 64 -9 24 -10 -97 -2 -215 53 -287 134 -90 103 -140 219 -229 533 -30 108 -57 199 -59 201 -4 5 -94 -31 -100 -40 -2 -4 9 -50 25 -101 16 -51 50 -167 76 -258 102 -362 189 -510 345 -584 63 -30 69 -31 205 -30 123 0 151 3 230 27 95 29 330 140 378 179 24 20 56 102 44 114 -2 2 -57 -23 -123 -56 -145 -72 -271 -110 -379 -115 l-80 -4 75 8 c41 5 104 16 140 26 126 32 351 139 371 176 13 25 9 24 -63 -12 -186 -94 -345 -134 -507 -127 -87 4 -116 9 -163 30 -168 77 -260 229 -358 590 -42 151 -60 208 -68 208 -4 0 -14 -5 -23 -10z"
       id="path154"
       style="fill:#cc66ff" />
    <path
       d="M5856 4974 c-134 -202 -174 -269 -164 -275 24 -16 111 -39 147 -39 l36 0 108 262 107 262 -28 29 -29 28 -177 -267z"
       id="path156"
       style="fill:#9966ff" />
    <path
       d="M2437 5207 l-29 -23 109 -263 108 -263 50 6 c78 10 146 35 138 50 -31 52 -339 516 -343 516 -3 0 -18 -10 -33 -23z"
       id="path158"
       style="fill:#9966ff" />
    <path
       d="M3426 5182 c-8 -26 -38 -127 -65 -224 -126 -442 -250 -588 -512 -605 -149 -10 -315 33 -511 132 l-107 54 6 -37 c10 -65 18 -74 113 -128 288 -165 559 -214 745 -134 62 27 149 111 195 190 54 92 90 193 164 450 36 124 69 238 75 253 14 37 14 54 -1 60 -7 3 -30 12 -50 21 l-37 16 -15 -48z"
       id="path160"
       style="fill:#cc66ff" />
    <path
       d="M2373 5148 l-21 -23 57 -225 c53 -206 60 -225 82 -231 25 -7 119 -12 119 -6 0 9 -202 493 -209 500 -4 4 -17 -3 -28 -15z"
       id="path162"
       style="fill:#9966ff" />
    <path
       d="M3521 5073 c-16 -54 -48 -165 -71 -248 -96 -345 -194 -516 -338 -589 -46 -23 -155 -46 -224 -46 -154 0 -400 83 -581 197 -21 13 -41 23 -43 20 -13 -13 16 -38 94 -85 400 -236 725 -262 905 -73 98 102 141 198 232 514 35 122 75 258 89 302 14 43 24 80 23 81 -7 5 -47 24 -51 24 -2 0 -18 -44 -35 -97z"
       id="path164"
       style="fill:#9933ff" />
    <path
       d="M4918 5154 l-27 -14 20 -58 c11 -31 49 -158 85 -282 101 -353 154 -472 256 -570 157 -153 435 -147 763 16 131 65 219 122 223 146 2 13 -22 3 -92 -38 -183 -105 -332 -153 -496 -161 -182 -9 -287 29 -381 135 -88 101 -135 211 -234 557 -35 121 -69 234 -76 252 -14 31 -15 31 -41 17z"
       id="path166"
       style="fill:#9933ff" />
    <path
       d="M5997 4931 c-54 -131 -101 -247 -104 -259 -5 -21 -3 -22 58 -16 35 4 69 12 75 20 6 7 35 110 65 229 29 118 55 211 57 207 1 -5 -22 -107 -51 -226 -32 -126 -50 -216 -44 -216 6 0 37 7 68 16 l58 16 6 52 c3 28 12 105 19 171 7 66 14 107 15 90 0 -16 -6 -91 -13 -165 -8 -74 -13 -136 -12 -137 2 -2 23 4 48 14 l46 17 7 94 7 94 -38 56 c-40 57 -151 182 -163 182 -3 0 -50 -108 -104 -239z"
       id="path168"
       style="fill:#9966ff" />
    <path
       d="M3597 5072 c-10 -31 -44 -150 -77 -263 -73 -254 -101 -332 -153 -433 -104 -202 -279 -290 -514 -257 -154 21 -360 102 -512 201 -35 22 -65 40 -66 38 -2 -2 9 -27 24 -57 22 -46 40 -64 106 -109 254 -172 532 -261 728 -233 240 33 348 180 476 643 22 79 60 208 85 287 25 80 46 149 46 155 0 11 -102 86 -117 86 -4 0 -16 -26 -26 -58z"
       id="path170"
       style="fill:#cc66ff" />
    <path
       d="M4823 5091 c-29 -20 -55 -40 -59 -43 -3 -3 15 -71 40 -150 25 -78 66 -216 91 -306 109 -387 186 -522 341 -598 66 -33 84 -38 173 -42 111 -5 193 7 308 44 97 31 256 109 346 169 70 46 102 60 57 25 -14 -11 -20 -20 -14 -20 15 0 46 35 38 43 -4 4 1 9 10 13 16 6 83 124 70 124 -3 0 -38 -20 -78 -45 -186 -115 -379 -184 -547 -192 -173 -9 -287 32 -379 135 -91 102 -137 210 -230 529 -85 297 -102 353 -109 353 -3 0 -30 -18 -58 -39z"
       id="path172"
       style="fill:#cc66ff" />
    <path
       d="M2308 5078 l-24 -33 16 -162 c9 -90 20 -167 25 -171 19 -17 125 -41 125 -29 0 23 -105 427 -111 427 -4 0 -18 -15 -31 -32z"
       id="path174"
       style="fill:#9966ff" />
    <path
       d="M3707 4892 c-26 -81 -69 -228 -97 -326 -124 -440 -236 -583 -478 -618 -189 -26 -457 55 -696 212 -43 28 -80 49 -82 47 -3 -2 7 -12 21 -21 14 -9 24 -20 21 -24 -7 -11 89 -132 120 -153 14 -9 25 -20 24 -24 -1 -3 2 -10 6 -13 4 -4 4 -1 0 6 -11 18 -4 16 60 -24 302 -182 621 -234 800 -129 86 50 174 173 234 324 12 30 48 147 80 260 33 113 82 278 110 366 l51 160 -37 33 c-21 17 -40 32 -44 32 -7 0 -105 -311 -149 -475 -133 -493 -286 -653 -604 -632 -121 8 -245 45 -392 116 -103 50 -272 150 -254 151 3 0 53 -28 111 -63 383 -231 716 -259 896 -78 89 90 153 225 219 460 30 111 146 491 160 526 2 8 -4 18 -15 24 -17 9 -22 -1 -65 -137z"
       id="path176"
       style="fill:#cc66ff" />
    <path
       d="M2235 4982 c-29 -45 -30 -51 -27 -139 l3 -91 40 -16 c22 -9 43 -16 47 -16 4 0 1 70 -7 155 -8 85 -17 155 -20 155 -3 0 -19 -22 -36 -48z"
       id="path178"
       style="fill:#9966ff" />
    <path
       d="M4722 5017 c-7 -8 -10 -16 -7 -18 7 -7 109 -338 155 -504 106 -377 207 -527 394 -580 96 -28 273 -17 401 25 105 34 266 112 374 180 85 55 72 62 -15 8 -99 -60 -240 -124 -341 -155 -77 -23 -106 -27 -228 -27 -181 -1 -229 16 -326 113 -107 108 -155 217 -268 611 -73 252 -106 353 -118 357 -5 2 -15 -3 -21 -10z"
       id="path180"
       style="fill:#9933ff" />
    <path
       d="M4658 4965 l-36 -34 44 -138 c25 -76 71 -232 104 -348 33 -115 76 -251 95 -301 81 -209 186 -324 334 -364 48 -13 185 -16 252 -5 120 18 290 84 428 164 39 23 76 39 81 36 6 -4 10 -3 9 2 -1 4 24 35 56 68 32 33 53 50 47 38 -7 -12 -16 -25 -22 -28 -5 -3 -19 -20 -31 -38 -17 -26 -15 -25 14 8 20 22 50 58 66 81 39 53 17 55 -59 4 -139 -93 -305 -167 -447 -201 -71 -17 -111 -20 -209 -17 -112 4 -126 6 -187 36 -150 74 -246 234 -336 562 -50 180 -154 510 -160 510 -3 0 -22 -16 -43 -35z m1442 -846 c-7 -11 -14 -18 -17 -15 -3 3 0 12 7 21 18 21 23 19 10 -6z"
       id="path182"
       style="fill:#cc66ff" />
    <path
       d="M3886 4919 c-23 -66 -123 -396 -160 -528 -98 -346 -179 -494 -317 -574 -183 -108 -493 -59 -809 128 -25 14 -37 20 -27 12 12 -10 14 -16 6 -19 -6 -2 14 -25 45 -51 30 -27 55 -51 54 -55 -1 -4 70 -79 158 -167 195 -196 281 -302 341 -422 39 -78 47 -104 51 -165 6 -96 -21 -198 -90 -337 -55 -112 -56 -109 14 -132 32 -10 41 -10 47 0 26 42 105 304 109 362 10 138 -53 309 -165 449 -85 107 -260 269 -369 341 -51 35 -92 65 -89 67 2 2 19 -7 37 -21 89 -67 250 -125 432 -153 117 -19 216 -15 271 11 58 27 163 139 217 230 60 104 408 864 408 893 0 11 -109 107 -114 101 -7 -7 -124 -385 -151 -484 -44 -167 -95 -316 -138 -404 -54 -111 -143 -207 -226 -245 -179 -80 -448 -38 -725 114 -121 67 -117 73 6 10 246 -128 418 -172 586 -149 240 32 354 187 482 657 22 81 66 229 99 329 56 176 58 183 40 199 -15 14 -19 14 -23 3z"
       id="path184"
       style="fill:#cc66ff" />
    <path
       d="M4590 4906 c-9 -12 1 -57 53 -223 36 -114 82 -269 102 -343 113 -411 226 -568 443 -610 163 -32 412 28 626 151 38 22 71 38 73 35 7 -6 -153 -91 -238 -126 -139 -58 -221 -75 -359 -74 -141 1 -181 11 -267 70 -123 84 -200 235 -294 574 -22 80 -67 229 -100 333 -32 103 -59 190 -59 193 0 10 -119 -91 -119 -102 -1 -10 168 -392 296 -669 38 -83 89 -183 112 -223 55 -94 151 -197 215 -229 44 -23 63 -26 141 -25 150 1 387 59 495 119 25 14 64 41 87 59 23 19 45 34 50 34 12 -1 -32 -34 -122 -95 -136 -91 -333 -281 -414 -399 -80 -116 -138 -297 -127 -395 6 -61 42 -183 87 -302 l29 -76 59 30 59 29 -34 63 c-43 79 -89 203 -103 281 -33 179 71 357 401 687 103 103 184 187 180 187 -3 0 12 18 33 40 21 22 35 40 30 40 -5 0 0 7 11 16 10 8 -1 4 -26 -11 -348 -203 -656 -245 -844 -115 -114 78 -196 230 -275 510 -66 230 -175 580 -182 580 -4 0 -12 -7 -19 -14z m1325 -976 c-3 -5 -12 -10 -18 -10 -7 0 -6 4 3 10 19 12 23 12 15 0z"
       id="path186"
       style="fill:#cc66ff" />
    <path
       d="M3971 4573 l-92 -207 148 -148 c151 -153 200 -195 210 -184 6 5 -42 595 -53 661 -5 24 -15 35 -57 54 -29 14 -55 26 -58 28 -3 2 -47 -90 -98 -204z"
       id="path188"
       style="fill:#6633ff" />
    <path
       d="M4390 4749 c-19 -10 -42 -19 -50 -19 -14 0 -20 -48 -43 -322 -16 -178 -30 -335 -33 -350 -4 -22 -2 -28 11 -28 9 0 92 73 184 163 l167 162 -91 204 c-50 113 -95 206 -101 207 -5 2 -25 -6 -44 -17z"
       id="path190"
       style="fill:#6633ff" />
    <path
       d="M3860 4330 c-10 -19 -4 -29 48 -88 125 -141 271 -268 329 -286 43 -14 120 41 271 192 122 121 142 146 136 165 -3 12 -8 24 -10 26 -2 3 -75 -66 -162 -152 -159 -156 -196 -183 -236 -171 -11 3 -88 72 -171 153 -82 81 -160 155 -172 165 -21 17 -22 17 -33 -4z"
       id="path192"
       style="fill:#9933ff" />
    <path
       d="M3836 4274 c-4 -10 3 -29 18 -48 46 -60 161 -184 204 -219 57 -48 144 -89 190 -90 61 -2 164 53 244 130 77 75 178 194 178 211 0 30 -28 9 -165 -127 -157 -154 -220 -198 -269 -185 -52 13 -150 96 -315 267 -40 43 -74 77 -76 77 -2 0 -6 -7 -9 -16z"
       id="path194"
       style="fill:#3300ff" />
    <path
       d="M3811 4217 c-6 -16 -11 -31 -11 -34 0 -13 136 -199 185 -251 31 -34 81 -73 117 -93 58 -32 69 -34 153 -34 81 0 96 3 150 32 72 37 165 132 246 251 53 77 56 85 46 112 -6 17 -14 30 -18 30 -4 0 -46 -45 -94 -100 -98 -111 -153 -158 -233 -197 -137 -67 -258 -4 -474 247 l-57 65 -10 -28z"
       id="path196"
       style="fill:#9933ff" />
    <path
       d="M3779 4147 c-11 -23 -7 -32 37 -94 97 -138 272 -296 396 -359 l48 -24 71 42 c148 89 270 202 367 341 36 52 39 62 30 83 -6 14 -14 21 -18 17 -4 -5 -35 -48 -70 -97 -87 -121 -163 -196 -235 -232 -53 -25 -71 -29 -150 -29 -79 0 -97 3 -145 28 -84 43 -163 124 -268 276 -51 73 -51 73 -63 48z"
       id="path198"
       style="fill:#3300ff" />
    <path
       d="M3750 4084 c-14 -35 -13 -36 18 -80 106 -147 258 -440 303 -587 43 -141 51 -147 181 -147 76 0 109 4 125 15 15 10 34 52 58 128 57 173 139 336 280 552 43 68 50 84 42 103 -6 12 -13 22 -16 22 -3 -1 -28 -32 -55 -71 -66 -93 -196 -217 -299 -283 -132 -87 -125 -85 -204 -38 -148 89 -298 231 -385 365 -17 26 -33 47 -35 47 -2 0 -8 -12 -13 -26z"
       id="path200"
       style="fill:#9933ff" />
    <path
       d="M3715 4011 c-4 -13 9 -40 39 -83 139 -198 242 -414 292 -612 10 -37 24 -74 31 -82 11 -11 52 -14 183 -14 197 0 186 -7 215 120 38 160 170 432 286 587 38 50 39 54 25 80 l-14 27 -55 -84 c-135 -208 -225 -386 -267 -530 -28 -92 -54 -146 -75 -154 -9 -3 -65 -6 -124 -6 -78 0 -112 4 -128 15 -14 10 -35 56 -64 142 -55 168 -170 392 -291 571 -32 46 -44 52 -53 23z"
       id="path202"
       style="fill:#3300ff" />
    <path
       d="M3666 3916 c-36 -64 -142 -206 -154 -206 -4 -1 -18 -9 -30 -20 l-24 -20 37 -59 c76 -125 136 -282 172 -444 14 -63 18 -125 18 -272 -1 -202 -15 -290 -79 -497 l-24 -77 35 -12 c37 -12 52 -3 53 31 0 8 18 67 39 131 43 126 96 239 144 306 28 40 104 107 130 116 8 3 6 10 -5 23 -38 43 -62 117 -62 194 -1 87 19 149 70 216 19 24 34 50 34 57 0 26 -89 228 -145 327 -53 96 -163 270 -170 270 -2 0 -19 -29 -39 -64z"
       id="path204"
       style="fill:#990099" />
    <path
       d="M4743 3883 c-100 -153 -196 -343 -237 -470 l-17 -51 35 -47 c76 -99 86 -242 27 -358 -29 -56 -30 -62 -14 -70 10 -5 45 -37 78 -71 89 -89 145 -213 231 -505 3 -9 12 -11 32 -6 15 4 28 8 29 9 1 1 -11 47 -27 101 -59 202 -74 296 -74 475 0 131 5 186 22 267 36 167 101 330 186 469 l25 41 -40 33 c-45 36 -115 126 -161 208 -17 28 -33 52 -37 52 -4 0 -30 -35 -58 -77z"
       id="path206"
       style="fill:#990099" />
    <path
       d="M2927 3657 c223 -201 329 -350 374 -524 34 -134 21 -225 -64 -452 l-32 -86 20 -42 c11 -23 23 -42 26 -43 11 0 99 248 121 340 15 63 19 108 16 171 -4 75 -9 96 -44 170 -85 176 -355 488 -448 516 -37 11 -36 10 31 -50z"
       id="path208"
       style="fill:#3300ff" />
    <path
       d="M5585 3691 c-97 -44 -336 -321 -424 -491 -86 -165 -79 -285 32 -585 23 -63 44 -115 47 -115 16 1 51 39 51 55 0 11 -24 91 -54 178 -68 194 -76 243 -52 351 42 197 145 350 371 551 46 41 81 75 77 75 -5 0 -26 -9 -48 -19z"
       id="path210"
       style="fill:#3300ff" />
    <path
       d="M3000 3650 c82 -75 108 -102 155 -163 35 -45 64 -72 97 -88 27 -12 46 -24 44 -26 -2 -3 -18 3 -35 12 -17 8 -31 13 -31 11 0 -20 95 -136 120 -146 17 -7 29 -15 26 -17 -2 -3 -14 1 -26 7 -12 7 -20 8 -18 3 2 -4 13 -27 23 -50 10 -24 21 -43 24 -43 3 0 17 -10 31 -21 21 -17 22 -19 3 -10 -12 6 -23 11 -26 11 -2 0 2 -26 8 -57 10 -51 17 -62 54 -90 23 -18 39 -33 34 -33 -5 0 -25 13 -45 30 l-36 30 -4 -57 c-3 -56 -2 -59 36 -95 21 -21 47 -38 57 -38 11 0 44 24 74 53 54 52 55 54 54 108 -1 30 -4 67 -8 83 -6 29 -6 29 -30 -22 -13 -28 -36 -62 -50 -74 l-26 -23 21 25 c12 14 34 49 49 79 28 57 29 94 4 158 l-11 28 -19 -54 c-29 -82 -59 -107 -99 -81 -11 8 -8 9 13 4 38 -9 52 7 77 82 21 63 21 66 4 114 -10 28 -22 50 -26 50 -4 0 -8 6 -8 14 0 7 -9 35 -21 61 l-21 47 -25 -53 c-28 -62 -37 -69 -78 -68 -29 2 -29 2 5 8 31 5 39 13 64 64 l29 58 -24 50 c-12 28 -26 52 -30 55 -4 2 -27 -16 -52 -41 -33 -34 -52 -45 -73 -44 -28 1 -27 1 6 9 42 10 114 85 102 106 -6 10 -39 15 -122 18 -99 3 -158 12 -280 42 -23 5 -22 3 10 -26z m139 -96 c14 -12 -19 -1 -35 12 -18 14 -18 14 6 3 14 -6 27 -13 29 -15z m66 -24 c28 -10 43 -19 35 -19 -14 0 -101 36 -90 38 3 1 28 -8 55 -19z m286 -275 c-17 -38 -24 -45 -48 -45 -15 0 -35 5 -43 10 -10 6 -4 8 21 4 30 -5 39 -2 53 17 9 13 19 39 23 59 4 19 9 28 11 18 2 -9 -6 -38 -17 -63z"
       id="path212"
       style="fill:#0033ff" />
    <path
       d="M5456 3659 c-152 -39 -322 -43 -386 -9 -15 8 -22 5 -38 -18 -69 -100 -141 -266 -176 -409 -67 -267 -58 -478 32 -798 26 -94 29 -100 52 -97 14 1 28 6 32 10 3 4 -15 99 -42 212 -45 186 -78 395 -65 408 3 3 5 -5 5 -18 0 -30 101 -130 130 -130 12 0 39 17 61 38 l40 37 -7 58 -7 58 -26 -24 c-14 -14 -37 -30 -49 -37 -21 -10 -27 -9 -49 12 -14 12 -37 46 -51 73 l-27 50 -6 -55 c-6 -55 -6 -55 -7 -10 -2 50 18 145 50 235 24 69 148 332 172 367 l17 23 -7 -28 c-5 -23 0 -34 35 -68 39 -40 43 -41 89 -36 30 4 40 3 27 -3 -46 -20 -76 -11 -123 35 -25 25 -46 44 -47 43 -19 -22 -53 -111 -48 -124 4 -11 2 -15 -4 -11 -9 6 -61 -95 -93 -178 -19 -51 32 -175 72 -175 43 0 104 47 130 100 27 54 26 57 -12 35 -14 -8 -29 -14 -35 -14 -5 0 12 12 39 27 32 18 63 48 92 88 l43 62 -57 -24 c-31 -13 -66 -23 -77 -23 -11 0 5 8 35 18 81 26 113 46 146 88 16 21 47 58 69 82 l40 44 -50 -25 c-27 -14 -61 -28 -75 -32 -14 -4 16 13 65 38 77 39 200 128 170 125 -5 -1 -41 -10 -79 -20z m-359 -308 c17 -10 17 -10 1 -11 -16 0 -59 65 -58 87 1 4 10 -9 20 -29 11 -20 28 -42 37 -47z m-110 -53 c-3 -7 -5 -2 -5 12 0 14 2 19 5 13 2 -7 2 -19 0 -25z m68 -89 l30 -7 -32 -1 c-26 -1 -35 5 -48 29 -8 16 -15 35 -15 42 0 7 8 -3 18 -22 12 -25 26 -37 47 -41z"
       id="path214"
       style="fill:#3300ff" />
    <path
       d="M3415 3649 c-19 -9 -16 -18 57 -167 148 -302 181 -463 143 -688 -9 -49 -35 -169 -59 -267 l-43 -178 28 -14 c15 -8 30 -12 32 -7 8 12 64 222 82 302 22 103 31 336 16 441 -26 181 -84 354 -170 506 -47 85 -52 89 -86 72z"
       id="path216"
       style="fill:#3300ff" />
    <path
       d="M3989 3304 c-75 -110 -78 -266 -7 -367 17 -23 25 -27 47 -22 39 10 47 22 28 43 -49 54 -62 173 -27 250 17 37 18 50 9 93 -6 27 -12 49 -14 49 -2 0 -18 -21 -36 -46z"
       id="path218"
       style="fill:#3300ff" />
    <path
       d="M4476 3295 c-5 -25 -1 -52 13 -91 12 -30 21 -76 21 -102 0 -48 -28 -122 -57 -154 -19 -22 -16 -26 24 -34 30 -6 32 -4 63 59 28 57 32 76 32 143 0 67 -4 84 -33 142 -19 36 -39 67 -45 69 -7 2 -15 -12 -18 -32z"
       id="path220"
       style="fill:#3300ff" />
    <path
       d="M4034 3174 c-18 -62 -14 -116 12 -168 33 -64 35 -65 152 -59 59 3 133 1 164 -4 52 -9 59 -8 77 11 49 52 68 184 36 247 -13 24 -19 28 -35 19 -25 -13 -357 -13 -365 0 -13 21 -25 8 -41 -46z"
       id="path222"
       style="fill:#990000" />
    <path
       d="M4906 3159 l-18 -66 30 -59 c16 -32 39 -67 50 -77 18 -17 23 -17 49 -4 45 24 71 58 83 111 6 27 9 51 6 53 -2 2 -19 -5 -37 -16 -65 -40 -96 -23 -127 69 l-19 54 -17 -65z"
       id="path224"
       style="fill:#0033ff" />
    <path
       d="M4103 2925 c-165 -37 -265 -143 -357 -381 -19 -50 -45 -129 -57 -175 -12 -46 -22 -85 -24 -87 -1 -1 -40 11 -85 27 -100 37 -194 88 -271 147 -32 24 -62 44 -68 44 -6 0 -11 9 -11 19 0 29 -44 78 -55 61 -5 -8 -4 -11 3 -6 13 8 25 -42 20 -91 -3 -43 18 -58 25 -16 3 21 4 19 4 -9 -1 -28 -10 -46 -40 -78 -45 -49 -47 -46 74 -109 83 -44 349 -152 359 -146 4 2 12 36 19 75 7 39 15 69 18 67 2 -3 -5 -54 -16 -113 -64 -336 -97 -911 -72 -1244 13 -167 67 -570 79 -582 8 -7 262 -51 412 -70 171 -22 593 -7 786 28 l32 6 11 91 c27 213 42 371 48 515 7 162 17 202 14 55 -2 -87 -25 -365 -40 -476 -6 -43 -5 -57 5 -57 16 0 20 27 44 295 37 419 36 388 11 380 -20 -6 -21 -4 -19 72 l2 78 3 -72 4 -71 142 54 c186 72 376 153 495 213 l96 48 -45 20 c-44 20 -99 73 -99 96 -1 40 -22 33 -304 -108 -159 -80 -292 -142 -297 -139 -5 3 -9 56 -9 118 0 465 -100 1003 -234 1263 -75 146 -135 202 -256 243 -82 27 -258 35 -347 15z m318 -69 c115 -35 190 -96 252 -208 109 -194 182 -489 222 -887 13 -133 19 -354 8 -280 -4 26 -9 28 -116 47 -174 32 -378 62 -474 68 -98 7 -247 -9 -532 -57 -95 -16 -175 -29 -177 -29 -2 0 -4 -30 -4 -66 0 -58 2 -65 18 -60 9 3 87 23 172 45 364 94 474 103 690 56 106 -23 355 -84 412 -101 13 -4 18 3 21 33 3 21 4 -95 2 -257 -3 -299 -10 -381 -56 -675 -11 -72 -24 -133 -28 -137 -22 -24 -589 -53 -756 -38 -101 9 -287 36 -386 56 -26 5 -27 9 -48 142 -30 198 -51 386 -51 468 l0 72 115 21 c505 94 600 95 1064 5 70 -13 130 -24 134 -24 4 0 7 21 5 48 l-3 47 -204 52 c-242 62 -359 83 -454 83 -96 0 -341 -51 -604 -126 -50 -15 -52 -16 -46 -45 3 -18 1 -29 -6 -29 -7 0 -11 31 -11 95 0 55 4 95 10 95 6 0 7 -18 4 -44 -11 -78 -12 -78 148 -34 78 21 211 52 293 69 131 27 163 30 255 26 105 -6 283 -42 513 -105 l107 -29 0 68 c0 38 -3 69 -7 69 -4 0 -104 13 -222 30 -119 16 -261 34 -316 39 -78 6 -87 9 -43 10 53 1 356 -34 503 -59 85 -14 85 -14 85 24 0 26 -5 35 -22 40 -130 37 -438 108 -526 122 -108 16 -114 16 -239 -5 -115 -19 -308 -64 -465 -108 -56 -15 -58 -17 -58 -49 0 -19 2 -34 5 -34 3 0 50 7 105 15 205 31 417 55 470 54 43 -1 33 -4 -40 -10 -112 -10 -456 -56 -511 -68 -31 -7 -39 -6 -41 7 -2 8 0 97 4 196 28 687 174 1187 385 1318 73 44 130 57 268 57 84 1 146 -4 176 -13z m-1059 -463 c10 -9 18 -25 18 -35 0 -25 -18 -58 -31 -58 -6 0 -7 5 -3 12 5 8 2 9 -11 4 -18 -7 -18 -6 -1 13 15 17 16 24 7 35 -18 22 -44 8 -38 -20 2 -13 0 -21 -4 -18 -20 12 -1 64 22 64 18 0 39 -33 33 -52 -4 -14 -2 -18 5 -14 18 12 13 54 -8 66 -31 16 -49 12 -66 -14 -19 -28 -11 -52 24 -71 14 -8 20 -14 13 -15 -7 0 -24 11 -38 25 -18 19 -23 31 -19 48 14 46 63 61 97 30z m2140 -960 c39 -35 7 -98 -48 -91 -18 2 -34 13 -43 29 -13 24 -13 29 2 53 20 30 61 35 89 9z"
       id="path226"
       style="fill:#cc66ff" />
    <path
       d="M4069 2841 c-86 -27 -159 -83 -205 -156 -22 -34 -27 -36 97 47 48 32 119 73 160 93 68 32 71 35 39 34 -19 0 -60 -8 -91 -18z"
       id="path228"
       style="fill:#9999ff" />
    <path
       d="M4169 2837 c-63 -26 -184 -98 -278 -164 -47 -34 -68 -57 -83 -90 -11 -25 -18 -46 -16 -48 2 -2 57 12 123 31 160 47 281 74 333 74 62 0 177 -25 335 -74 75 -24 137 -42 137 -40 0 2 -11 27 -25 57 -23 47 -37 61 -133 125 -59 39 -138 88 -177 107 -38 19 -64 35 -57 35 21 0 122 -55 225 -123 53 -35 97 -60 97 -55 0 6 -28 38 -62 72 -81 80 -146 107 -273 112 -76 3 -99 0 -146 -19z"
       id="path230"
       style="fill:#9999ff" />
    <path
       d="M4062 2596 c-73 -19 -168 -46 -211 -61 -73 -24 -79 -28 -89 -62 -6 -20 -10 -39 -8 -41 2 -2 75 13 162 32 316 70 357 70 679 -3 137 -31 165 -35 159 -22 -3 9 -11 28 -16 43 -9 25 -23 32 -121 62 -309 96 -365 101 -555 52z"
       id="path232"
       style="fill:#9999ff" />
    <path
       d="M4097 2489 c-112 -19 -337 -68 -349 -75 -7 -4 -40 -96 -35 -100 1 -1 52 10 112 26 172 44 313 71 395 77 84 6 211 -15 438 -72 132 -33 134 -33 128 -12 -4 12 -9 34 -12 49 -7 31 -5 30 -194 72 -163 36 -286 56 -334 55 -22 0 -90 -9 -149 -20z"
       id="path234"
       style="fill:#9999ff" />
    <path
       d="M4070 2385 c-132 -27 -315 -71 -346 -84 -12 -5 -24 -22 -27 -36 -5 -32 -38 -33 253 11 274 41 409 36 783 -30 l78 -13 -7 31 c-3 17 -7 32 -8 33 -6 6 -216 58 -340 84 -168 34 -233 35 -386 4z"
       id="path236"
       style="fill:#6699ff" />
    <path
       d="M4165 2293 c-102 -10 -461 -65 -469 -73 -6 -6 -34 -115 -36 -141 0 -3 64 16 143 42 203 69 366 109 443 109 91 0 191 -23 402 -92 101 -33 186 -57 188 -55 3 3 0 34 -7 71 -9 55 -15 67 -33 71 -107 24 -499 76 -554 73 -20 -1 -55 -3 -77 -5z"
       id="path238"
       style="fill:#6699ff" />
    <path
       d="M4080 2194 c-153 -39 -404 -125 -417 -142 -12 -15 -18 -62 -8 -62 2 0 73 11 157 24 373 59 463 62 738 22 101 -15 207 -32 234 -37 75 -14 76 -13 69 24 -3 17 -11 35 -17 39 -21 15 -315 108 -417 133 -130 31 -214 31 -339 -1z"
       id="path240"
       style="fill:#9999ff" />
    <path
       d="M4135 2049 c-90 -10 -402 -56 -455 -67 -33 -7 -35 -10 -43 -62 -4 -30 -6 -60 -5 -66 2 -8 29 -4 83 13 128 38 343 91 440 108 71 12 105 13 167 5 94 -13 273 -56 432 -105 65 -20 120 -35 121 -33 3 3 -14 130 -18 134 -4 5 -339 54 -463 69 -140 16 -142 16 -259 4z"
       id="path242"
       style="fill:#6699ff" />
    <path
       d="M4171 1968 c-76 -10 -377 -86 -476 -120 -62 -20 -70 -26 -73 -50 -2 -16 0 -28 5 -28 4 0 76 9 158 20 419 57 503 57 892 5 100 -14 186 -25 192 -25 6 0 11 13 11 29 0 28 -3 29 -122 64 -233 68 -468 121 -513 116 -5 -1 -39 -6 -74 -11z"
       id="path244"
       style="fill:#6699ff" />
    <path
       d="M4175 1824 c-134 -13 -259 -27 -396 -46 l-157 -21 -6 -36 c-3 -20 -6 -52 -6 -72 l0 -36 111 34 c170 51 335 92 438 109 76 12 108 13 169 4 92 -14 268 -57 422 -103 63 -19 122 -36 130 -38 12 -3 14 8 11 61 -1 36 -6 68 -9 72 -7 6 -231 37 -412 57 -113 13 -246 19 -295 15z"
       id="path246"
       style="fill:#6699ff" />
    <path
       d="M4145 1744 c-86 -16 -282 -66 -435 -112 -94 -28 -95 -29 -104 -65 -5 -20 -7 -39 -5 -41 3 -3 97 10 209 29 326 53 418 61 561 46 106 -11 417 -58 502 -77 26 -5 27 -4 27 35 l0 40 -112 35 c-212 66 -479 128 -542 125 -11 0 -57 -7 -101 -15z"
       id="path248"
       style="fill:#9999ff" />
    <path
       d="M4195 1134 c-165 -19 -419 -59 -568 -90 l-28 -6 3 -86 c2 -51 7 -86 13 -85 6 1 75 25 155 53 207 74 395 120 483 120 91 0 223 -32 457 -110 100 -34 183 -60 185 -58 2 2 6 40 10 84 l7 81 -113 21 c-250 47 -520 85 -561 81 -7 -1 -26 -4 -43 -5z"
       id="path250"
       style="fill:#9999ff" />
    <path
       d="M4062 1000 c-110 -29 -399 -123 -434 -142 -11 -5 -18 -20 -18 -39 l0 -31 63 5 62 6 -57 -11 c-55 -10 -58 -12 -58 -40 0 -35 49 -360 55 -366 7 -7 254 -47 258 -42 7 7 -24 464 -32 472 -3 4 -40 1 -81 -6 -69 -12 -90 -13 -79 -2 7 7 346 47 448 53 101 5 259 -9 543 -50 l156 -23 5 31 c3 16 3 33 1 36 -7 12 -399 139 -490 159 -125 27 -207 25 -342 -10z m-305 -267 c-3 -10 -5 -2 -5 17 0 19 2 27 5 18 2 -10 2 -26 0 -35z m10 -85 c-2 -13 -4 -5 -4 17 -1 22 1 32 4 23 2 -10 2 -28 0 -40z m10 -90 c-2 -13 -4 -5 -4 17 -1 22 1 32 4 23 2 -10 2 -28 0 -40z m10 -90 c-2 -13 -4 -5 -4 17 -1 22 1 32 4 23 2 -10 2 -28 0 -40z m10 -80 c-2 -13 -4 -5 -4 17 -1 22 1 32 4 23 2 -10 2 -28 0 -40z"
       id="path252"
       style="fill:#9999ff" />
    <path
       d="M4169 846 c-2 -2 -40 -6 -84 -10 -44 -3 -99 -9 -122 -12 -43 -6 -43 -7 -43 -48 1 -56 28 -437 32 -441 2 -1 29 -6 60 -9 l58 -7 3 238 2 238 3 -236 2 -236 46 -7 c69 -9 104 -7 104 5 0 8 4 8 13 2 6 -5 44 -8 84 -5 l72 4 4 107 3 106 2 -109 2 -109 61 6 c34 3 65 10 68 16 4 6 13 102 20 213 7 112 15 217 18 234 l5 32 -64 7 c-34 3 -71 9 -80 11 -15 4 -18 -5 -21 -68 l-3 -73 -2 71 -2 71 -61 7 c-34 3 -70 6 -80 6 -18 0 -19 -15 -22 -242 l-2 -243 -3 243 -2 242 -33 0 c-19 0 -36 -2 -38 -4z"
       id="path254"
       style="fill:#6699ff" />
    <path
       d="M4586 771 c-3 -25 -10 -122 -16 -216 -6 -93 -13 -182 -15 -197 l-4 -28 64 0 c43 0 68 5 78 15 11 10 17 11 19 4 3 -8 21 -10 60 -5 55 7 56 8 61 44 44 289 55 377 51 382 -3 3 -70 14 -149 26 l-144 20 -5 -45z m151 -108 c-2 -16 -4 -5 -4 22 0 28 2 40 4 28 2 -13 2 -35 0 -50z m-10 -135 c-2 -18 -4 -6 -4 27 0 33 2 48 4 33 2 -15 2 -42 0 -60z m-10 -115 c-2 -16 -4 -5 -4 22 0 28 2 40 4 28 2 -13 2 -35 0 -50z"
       id="path256"
       style="fill:#9999ff" />
    <path
       d="M5419 1419 c-8 -16 -8 -28 0 -46 9 -19 17 -24 43 -21 40 4 56 28 40 62 -15 34 -66 37 -83 5z m72 -5 c17 -21 0 -49 -32 -49 -18 0 -25 6 -27 24 -6 38 34 55 59 25z"
       id="path258"
       style="fill:#990066" />
    <path
       d="M5447 1413 c-15 -14 -7 -43 12 -43 26 0 36 17 21 35 -14 16 -23 19 -33 8z"
       id="path260"
       style="fill:#990066" />
    <path
       d="M3562 2859 c-29 -27 -61 -49 -71 -49 -10 0 -36 16 -58 35 l-41 35 -13 -53 c-7 -28 -14 -54 -14 -57 -1 -3 -5 -12 -8 -20 -36 -83 -37 -95 -6 -148 16 -28 39 -58 51 -66 12 -9 17 -16 11 -16 -13 0 -61 55 -76 87 -16 35 -24 28 -44 -34 -9 -32 -21 -61 -26 -64 -5 -4 -4 -10 2 -13 6 -4 11 -5 11 -3 0 3 16 -10 36 -28 59 -54 97 -70 131 -56 58 24 83 53 97 114 7 31 12 57 10 57 -2 0 -25 -13 -51 -30 -26 -16 -52 -30 -57 -30 -6 0 18 17 52 37 64 38 64 38 86 136 6 26 -6 37 -19 17 -7 -11 -79 -50 -92 -50 -4 1 6 8 22 16 94 50 102 59 115 146 6 44 10 81 8 83 -2 2 -27 -19 -56 -46z m-118 -198 c-7 -7 -38 26 -58 61 -17 29 -14 27 21 -12 23 -25 39 -47 37 -49z"
       id="path262"
       style="fill:#0033ff" />
    <path
       d="M4880 2863 c0 -27 6 -62 25 -153 2 -14 9 -48 15 -76 10 -48 14 -53 73 -87 34 -21 58 -37 54 -37 -13 0 -70 31 -89 48 -22 19 -23 8 -5 -63 11 -43 20 -53 64 -82 l51 -32 60 39 c34 21 68 52 76 68 14 28 14 34 -8 88 -19 48 -50 141 -92 283 -3 9 -17 2 -44 -23 -22 -20 -49 -36 -60 -36 -12 0 -43 21 -70 46 l-50 47 0 -30z m244 -125 c-20 -36 -57 -79 -77 -89 -16 -9 -13 -4 9 17 17 16 39 41 48 57 18 27 34 39 20 15z m-174 -48 c15 -11 38 -24 51 -29 13 -5 17 -10 9 -10 -8 -1 -35 13 -60 29 -25 16 -41 30 -37 30 5 0 22 -9 37 -20z m201 -97 c-22 -44 -65 -93 -81 -93 -6 0 3 12 20 26 17 15 40 44 51 65 11 22 22 39 24 39 3 0 -3 -17 -14 -37z"
       id="path264"
       style="fill:#0033ff" />
    <path
       d="M2971 2636 c-14 -17 -12 -128 2 -143 4 -4 15 4 24 18 23 33 64 73 88 87 19 10 19 12 4 28 -24 24 -101 31 -118 10z"
       id="path266"
       style="fill:#cc66ff" />
    <path
       d="M5453 2643 c-13 -2 -23 -7 -23 -10 0 -3 23 -25 50 -50 28 -25 50 -49 50 -54 0 -5 -20 12 -44 36 -44 43 -85 63 -105 51 -6 -4 16 -34 50 -69 33 -34 63 -74 66 -89 6 -32 10 -33 37 -13 16 12 18 19 8 40 -8 18 -9 33 -1 52 14 37 3 90 -21 103 -19 10 -28 11 -67 3z"
       id="path268"
       style="fill:#660066" />
    <path
       d="M3095 2592 c-35 -22 -92 -84 -107 -118 -8 -17 -8 -27 2 -39 20 -24 34 -18 53 24 10 21 39 59 66 84 35 33 45 49 38 56 -14 14 -17 14 -52 -7z"
       id="path270"
       style="fill:#cc66ff" />
    <path
       d="M5317 2572 c-21 -23 -23 -102 -3 -140 8 -15 30 -42 49 -60 27 -27 39 -32 61 -26 37 9 43 24 9 24 -30 0 -79 42 -102 87 -14 27 -14 73 -1 107 11 31 9 32 -13 8z"
       id="path272"
       style="fill:#003399" />
    <path
       d="M5358 2576 c-24 -18 -33 -70 -18 -106 7 -16 14 -30 15 -30 1 0 18 6 37 14 22 10 39 11 49 5 10 -6 6 -9 -16 -9 -23 0 -26 -3 -15 -10 10 -6 22 -4 37 6 14 8 23 10 23 4 0 -17 -43 -28 -69 -18 -36 13 -45 -5 -16 -32 l25 -23 38 30 c33 27 61 76 33 59 -7 -4 -11 1 -11 12 0 22 -30 52 -51 52 -19 0 -39 -20 -39 -39 0 -11 5 -9 16 7 16 24 39 29 50 11 4 -7 0 -9 -14 -5 -11 4 -23 2 -27 -4 -3 -6 3 -10 14 -10 28 0 27 -15 -1 -16 -13 -1 -34 -5 -48 -9 -17 -4 -21 -4 -12 3 8 5 13 12 13 16 -4 25 2 37 24 49 l26 13 -23 21 c-19 18 -26 20 -40 9z m99 -108 c-3 -7 -5 -2 -5 12 0 14 2 19 5 13 2 -7 2 -19 0 -25z"
       id="path274"
       style="fill:#660066" />
    <path
       d="M3099 2519 c-66 -71 -69 -86 -30 -121 27 -24 35 -27 53 -17 20 11 20 11 -3 23 -13 6 -28 24 -34 40 -8 25 -6 31 18 52 33 28 37 29 63 8 18 -14 18 -15 -4 -4 -30 15 -72 -10 -72 -43 0 -21 1 -21 13 3 15 29 54 39 63 16 11 -29 21 -17 22 29 2 36 -2 46 -19 56 -19 10 -27 5 -70 -42z"
       id="path276"
       style="fill:#003399" />
    <path
       d="M5225 2474 c-94 -71 -171 -114 -269 -153 -50 -20 -93 -38 -95 -41 -3 -3 1 -40 9 -83 15 -90 -5 -88 179 -15 137 54 180 74 263 125 l57 34 -34 45 c-33 43 -41 61 -47 111 -3 20 -7 19 -63 -23z m49 -75 c30 -23 33 -45 10 -77 -30 -44 -104 -16 -104 39 0 16 44 59 60 59 4 0 19 -9 34 -21z"
       id="path278"
       style="fill:#660066" />
    <path
       d="M5210 2390 c-25 -25 -25 -42 0 -65 27 -24 68 -13 76 22 5 20 2 31 -16 45 -28 23 -35 23 -60 -2z m61 -16 c17 -21 0 -49 -32 -49 -24 0 -36 23 -25 51 7 19 40 18 57 -2z"
       id="path280"
       style="fill:#990066" />
    <path
       d="M5224 2365 c-7 -18 3 -35 21 -35 15 0 24 19 18 38 -6 17 -32 15 -39 -3z"
       id="path282"
       style="fill:#990066" />
    <path
       d="M2915 2426 c-27 -29 -94 -87 -148 -130 -77 -62 -95 -81 -86 -92 15 -18 113 -83 169 -111 25 -13 53 -29 64 -36 15 -9 19 -9 23 1 3 6 13 12 22 12 14 0 31 31 70 123 28 67 51 127 51 134 0 6 -7 13 -15 17 -20 7 -19 26 2 26 14 0 14 2 -2 20 -10 12 -25 18 -32 15 -21 -7 -61 23 -65 50 -3 22 -7 19 -53 -29z"
       id="path284"
       style="fill:#cc66ff" />
    <path
       d="M3109 2453 c-11 -29 1 -43 36 -42 l20 1 -20 5 c-11 3 -24 9 -30 15 -6 6 -4 7 7 3 13 -5 15 -2 11 14 -3 12 -1 21 6 21 5 0 8 -6 5 -13 -3 -8 9 -18 31 -26 44 -16 57 -9 16 9 -16 6 -32 18 -35 26 -9 23 -36 16 -47 -13z"
       id="path286"
       style="fill:#990066" />
    <path
       d="M5536 2435 c-11 -8 -27 -13 -36 -10 -9 3 -26 -5 -39 -19 l-23 -24 22 -7 c17 -5 19 -10 9 -21 -6 -8 -17 -14 -23 -14 -6 0 -17 -4 -25 -9 -12 -8 -5 -30 34 -128 27 -65 52 -122 57 -128 5 -5 24 -8 43 -6 20 1 35 -2 35 -8 0 -10 198 106 232 136 16 14 9 22 -85 98 -56 45 -118 99 -136 119 -39 41 -39 41 -65 21z"
       id="path288"
       style="fill:#cc66ff" />
    <path
       d="M3478 2417 c-21 -12 -38 -25 -38 -29 0 -11 58 -39 64 -30 6 10 19 82 15 82 -2 -1 -21 -11 -41 -23z"
       id="path290"
       style="fill:#0033ff" />
    <path
       d="M4975 2397 c4 -18 10 -36 15 -40 7 -8 60 11 60 22 0 3 -18 16 -41 28 l-40 22 6 -32z"
       id="path292"
       style="fill:#0033ff" />
    <path
       d="M3142 2390 c-19 -18 -44 -30 -60 -30 -26 -1 -26 -1 7 -16 34 -14 35 -14 72 22 21 21 36 41 33 46 -8 13 -17 9 -52 -22z"
       id="path294"
       style="fill:#003399" />
    <path
       d="M5349 2317 l-27 -22 55 -125 c30 -69 56 -127 59 -129 4 -4 64 19 64 25 0 12 -114 274 -119 274 -3 -1 -18 -11 -32 -23z"
       id="path296"
       style="fill:#0066ff" />
    <path
       d="M3090 2310 c-19 -35 -101 -242 -98 -246 2 -2 19 -5 36 -6 l33 -3 55 124 c38 88 51 128 44 135 -16 16 -60 14 -70 -4z"
       id="path298"
       style="fill:#3366ff" />
    <path
       d="M3176 2293 c-3 -4 -6 -15 -6 -25 0 -10 -3 -18 -8 -18 -4 0 -17 -27 -30 -59 l-23 -59 30 -66 c16 -36 41 -77 55 -91 14 -14 21 -25 16 -25 -15 0 -58 62 -83 121 l-25 54 -16 -39 c-10 -24 -13 -43 -7 -50 5 -6 11 -26 13 -45 3 -33 6 -35 141 -98 130 -61 139 -64 161 -50 19 13 25 28 30 79 4 35 10 74 13 87 l6 25 -46 -27 c-25 -15 -49 -27 -54 -27 -4 0 14 13 41 29 57 34 62 40 71 104 l7 48 -38 -16 c-60 -26 -95 -38 -99 -34 -2 2 25 15 61 29 35 13 64 26 64 30 0 3 -28 16 -62 29 -35 14 -95 41 -135 62 -39 21 -74 35 -77 32z m77 -175 c7 -4 23 -8 37 -9 23 -2 23 -2 3 -6 -34 -7 -60 13 -93 70 -42 73 -37 83 6 12 19 -33 41 -63 47 -67z m67 -148 c-8 -5 -19 -10 -25 -10 -5 0 -3 5 5 10 8 5 20 10 25 10 6 0 3 -5 -5 -10z"
       id="path300"
       style="fill:#0099ff" />
    <path
       d="M5245 2258 c-33 -18 -96 -46 -139 -64 l-79 -32 29 -15 c16 -9 25 -16 21 -17 -5 0 -17 5 -28 11 -19 10 -20 8 -13 -28 15 -80 19 -86 80 -120 32 -18 55 -33 49 -33 -5 0 -30 11 -54 25 -23 14 -46 25 -51 25 -4 0 -3 -24 1 -52 5 -29 12 -68 15 -85 10 -64 29 -62 203 22 l158 77 -7 32 c-11 50 -33 106 -42 106 -4 0 -8 8 -9 18 0 9 -10 40 -23 67 l-23 50 -30 -60 c-40 -78 -62 -98 -105 -92 l-33 4 37 1 c41 2 57 20 100 107 22 45 27 86 10 85 -4 -1 -34 -15 -67 -32z m-125 -138 c8 -5 11 -10 5 -10 -5 0 -17 5 -25 10 -8 5 -10 10 -5 10 6 0 17 -5 25 -10z m232 -86 c-17 -33 -40 -68 -53 -79 -22 -19 -22 -19 1 10 14 17 36 54 49 83 14 29 26 50 28 48 3 -2 -9 -30 -25 -62z m-137 -84 c13 -6 15 -9 5 -9 -8 0 -22 4 -30 9 -18 12 -2 12 25 0z m52 -16 c-3 -3 -12 -4 -19 -1 -8 3 -5 6 6 6 11 1 17 -2 13 -5z"
       id="path302"
       style="fill:#0099ff" />
    <path
       d="M2465 2225 c-28 -27 -34 -85 -13 -129 10 -22 197 -156 218 -156 7 0 34 51 28 54 -47 19 -62 64 -32 97 27 30 70 24 90 -13 9 -16 11 -16 32 1 l24 17 -89 64 c-97 70 -139 89 -196 90 -27 0 -45 -7 -62 -25z"
       id="path304"
       style="fill:#660066" />
    <path
       d="M5891 2230 c-24 -11 -59 -34 -79 -51 -19 -17 -45 -35 -58 -41 -31 -14 -30 -19 11 -45 34 -21 35 -21 45 -3 21 39 77 33 100 -10 13 -24 -5 -67 -32 -75 -18 -6 -25 -30 -10 -39 5 -3 43 17 86 44 86 55 106 87 106 164 0 35 -5 48 -22 60 -31 22 -94 20 -147 -4z"
       id="path306"
       style="fill:#660066" />
    <path
       d="M3452 2028 c-38 -235 -37 -224 -10 -231 12 -4 26 -7 29 -7 3 0 9 37 13 83 3 45 15 124 25 175 17 89 17 93 0 102 -10 6 -22 10 -27 10 -5 0 -19 -60 -30 -132z"
       id="path308"
       style="fill:#3366ff" />
    <path
       d="M4993 2149 c-13 -5 -23 -12 -23 -16 0 -4 9 -64 20 -133 11 -69 22 -146 26 -172 6 -52 10 -55 39 -34 19 14 19 17 -4 166 -31 200 -31 200 -58 189z"
       id="path310"
       style="fill:#3366ff" />
    <path
       d="M3537 2132 c-7 -12 -37 -192 -45 -274 l-8 -77 38 -16 c21 -8 42 -15 47 -15 4 0 11 35 15 78 3 42 13 122 21 176 8 55 14 101 12 102 -11 11 -77 32 -80 26z"
       id="path312"
       style="fill:#cc66ff" />
    <path
       d="M4911 2119 c-20 -8 -23 -14 -18 -45 3 -20 14 -99 23 -177 9 -78 18 -144 20 -145 4 -6 74 19 74 27 0 22 -23 189 -36 264 -16 89 -20 93 -63 76z"
       id="path314"
       style="fill:#cc66ff" />
    <path
       d="M5691 2101 c-11 -7 -9 -12 11 -25 33 -22 108 -115 108 -135 0 -9 -7 -3 -16 14 -18 35 -103 125 -119 125 -14 0 -165 -80 -165 -87 0 -10 42 -73 48 -73 17 1 30 17 33 40 2 14 16 31 30 39 24 13 29 13 53 -2 18 -12 26 -26 26 -47 0 -43 -25 -63 -72 -56 -47 8 -48 -2 -4 -32 l34 -23 102 52 c103 53 104 55 85 102 -5 13 -2 17 14 17 29 0 56 43 42 68 -6 11 -18 23 -27 26 -22 8 -64 -19 -64 -41 0 -14 3 -13 16 5 23 34 59 26 59 -12 0 -24 -5 -31 -28 -37 -21 -6 -29 -3 -38 12 -11 22 -86 79 -103 79 -6 0 -17 -4 -25 -9z"
       id="path316"
       style="fill:#660066" />
    <path
       d="M2672 2088 c-19 -19 -14 -55 10 -72 22 -15 43 -12 33 5 -4 5 -1 9 4 9 16 0 13 37 -2 43 -8 3 -20 1 -28 -4 -12 -7 -12 -12 -1 -30 11 -18 11 -20 0 -17 -19 7 -21 43 -4 57 20 17 44 8 56 -21 8 -22 9 -22 9 -2 1 26 -17 44 -44 44 -12 0 -26 -5 -33 -12z"
       id="path318"
       style="fill:#990066" />
    <path
       d="M2778 2057 c-40 -31 -87 -97 -88 -124 0 -7 9 -17 20 -23 17 -9 21 -6 33 22 8 18 39 58 70 90 42 42 52 58 41 62 -25 10 -30 8 -76 -27z"
       id="path320"
       style="fill:#003399" />
    <path
       d="M5834 2065 c-4 -9 -2 -21 4 -27 15 -15 44 -1 40 19 -4 23 -36 29 -44 8z"
       id="path322"
       style="fill:#990066" />
    <path
       d="M2395 2002 c-80 -65 -90 -49 105 -159 74 -42 169 -95 210 -119 41 -23 77 -38 78 -33 2 5 14 9 26 9 16 0 25 10 37 43 l14 42 -40 39 c-22 21 -55 45 -73 53 -18 8 -91 51 -161 97 l-128 83 -68 -55z"
       id="path324"
       style="fill:#cc66ff" />
    <path
       d="M2818 2013 c-49 -50 -81 -101 -72 -115 8 -12 101 -58 117 -58 20 0 68 40 62 51 -4 5 -1 9 6 9 7 0 4 7 -7 15 -25 19 -15 19 30 0 20 -8 36 -11 36 -6 0 13 -57 34 -76 27 -10 -4 -14 -2 -11 6 2 7 13 11 23 10 16 -3 17 -1 6 10 -11 11 -17 9 -33 -11 -14 -17 -19 -19 -19 -7 0 8 10 21 22 27 18 10 24 8 40 -11 23 -28 33 -22 12 8 -27 39 -84 23 -84 -24 0 -24 24 -49 38 -40 5 3 9 -1 9 -9 0 -23 -41 0 -52 29 -24 70 80 107 106 38 10 -26 11 -26 25 -7 8 10 13 24 11 29 -4 11 -116 76 -132 76 -6 0 -32 -21 -57 -47z m87 -93 c3 -5 1 -10 -4 -10 -6 0 -11 5 -11 10 0 6 2 10 4 10 3 0 8 -4 11 -10z"
       id="path326"
       style="fill:#660066" />
    <path
       d="M2950 2050 c0 -5 16 -17 35 -26 37 -17 42 -35 21 -73 -7 -13 -11 -33 -8 -44 4 -16 2 -19 -12 -14 -10 4 -33 -6 -63 -29 -32 -25 -54 -34 -70 -31 -32 6 -24 -15 10 -27 52 -19 195 96 214 172 7 31 -6 54 -38 62 -57 15 -89 19 -89 10z"
       id="path328"
       style="fill:#003399" />
    <path
       d="M5496 2047 c-51 -16 -63 -35 -46 -77 18 -44 96 -121 149 -147 40 -20 46 -21 72 -7 33 17 39 28 9 19 -25 -8 -52 7 -107 58 -42 39 -73 84 -73 106 0 6 18 20 40 31 22 11 40 23 40 25 0 8 -43 4 -84 -8z"
       id="path330"
       style="fill:#003399" />
    <path
       d="M5933 1985 c-51 -34 -121 -78 -157 -96 -37 -19 -66 -39 -66 -46 0 -18 -59 -53 -77 -46 -17 7 -14 -9 13 -73 13 -31 16 -33 40 -24 18 7 30 7 39 0 9 -7 26 -2 61 17 27 15 51 31 52 35 7 16 25 7 79 -44 31 -29 63 -70 73 -90 16 -35 18 -37 38 -22 17 12 20 19 12 39 -27 72 -111 141 -157 131 -27 -6 -27 -6 -9 9 11 8 26 15 33 15 7 0 54 24 105 54 136 78 159 93 159 100 0 11 -122 106 -135 105 -6 0 -52 -29 -103 -64z"
       id="path332"
       style="fill:#cc66ff" />
    <path
       d="M5617 1982 c-10 -10 -17 -25 -17 -33 0 -8 7 -4 16 9 22 32 58 26 62 -10 2 -16 -1 -28 -6 -28 -6 0 -8 9 -5 20 6 24 -23 39 -40 20 -9 -10 -7 -11 11 -5 17 5 22 2 22 -12 0 -11 -3 -14 -8 -7 -8 13 -82 -11 -82 -27 0 -4 16 -1 35 7 20 8 41 11 48 7 8 -5 3 -10 -13 -14 l-25 -7 26 -1 c14 -1 30 4 37 11 19 19 15 66 -7 78 -27 14 -35 13 -54 -8z"
       id="path334"
       style="fill:#990066" />
    <path
       d="M5320 1902 c-63 -30 -175 -81 -249 -112 l-134 -57 2 -79 c1 -43 5 -82 9 -86 13 -12 465 149 584 208 52 26 91 33 43 7 -16 -8 -31 -17 -32 -18 -5 -3 29 -99 38 -109 4 -5 21 1 37 13 l30 21 -21 55 c-17 43 -34 64 -72 93 -27 21 -63 56 -80 79 -16 23 -32 42 -35 42 -3 -1 -57 -26 -120 -57z m136 -27 c19 -30 11 -60 -22 -82 -24 -15 -27 -15 -52 4 -33 25 -38 47 -18 78 22 34 70 34 92 0z"
       id="path336"
       style="fill:#660066" />
    <path
       d="M5376 1874 c-22 -22 -20 -50 6 -68 12 -9 26 -16 30 -16 13 0 48 39 48 54 0 20 -28 46 -50 46 -10 0 -26 -7 -34 -16z m58 -10 c20 -20 20 -27 -2 -47 -16 -15 -21 -15 -38 -3 -17 13 -17 14 8 9 32 -6 46 13 25 35 -13 13 -19 13 -31 2 -10 -7 -16 -8 -16 -2 0 9 15 19 32 21 4 1 14 -6 22 -15z"
       id="path338"
       style="fill:#990066" />
    <path
       d="M2255 1940 c-60 -9 -83 -26 -95 -68 -22 -82 -26 -78 160 -184 174 -98 157 -92 173 -62 12 24 12 31 -1 54 -15 25 -14 30 1 54 18 27 63 36 83 16 12 -12 44 -3 44 11 0 5 -4 9 -8 9 -5 0 -62 31 -128 69 -65 37 -135 77 -154 88 -26 15 -45 18 -75 13z"
       id="path340"
       style="fill:#660066" />
    <path
       d="M3045 1907 c-17 -23 -52 -57 -79 -74 l-48 -33 48 -21 c119 -52 311 -125 444 -169 l145 -49 6 27 c4 15 7 55 8 88 l1 61 -62 23 c-35 13 -139 59 -233 102 -93 44 -177 82 -185 84 -9 2 -27 -14 -45 -39z m143 -23 c42 -29 18 -104 -34 -104 -29 0 -64 43 -57 70 6 21 39 50 58 50 6 0 21 -7 33 -16z"
       id="path342"
       style="fill:#660066" />
    <path
       d="M3128 1879 c-22 -13 -24 -62 -2 -79 11 -10 23 -11 42 -4 36 13 42 56 10 78 -26 19 -27 19 -50 5z m56 -31 c15 -24 -13 -53 -43 -43 -21 6 -29 43 -14 59 12 12 45 2 57 -16z"
       id="path344"
       style="fill:#990066" />
    <path
       d="M3134 1845 c-4 -9 -2 -21 4 -27 15 -15 44 -1 40 19 -4 23 -36 29 -44 8z"
       id="path346"
       style="fill:#990066" />
    <path
       d="M6160 1919 c-25 -16 -89 -54 -143 -85 l-98 -55 34 -23 c23 -16 43 -22 64 -19 26 4 32 1 41 -24 9 -24 11 -25 11 -6 1 22 -23 53 -40 53 -6 0 -20 -5 -32 -12 -20 -10 -21 -10 -8 5 17 21 40 22 69 1 26 -18 30 -65 7 -84 -16 -13 -21 -50 -6 -50 5 0 72 36 149 80 153 88 162 98 162 186 0 54 -16 64 -102 63 -52 0 -71 -5 -108 -30z"
       id="path348"
       style="fill:#cc66ff" />
    <path
       d="M3392 1831 c-11 -7 -11 -9 2 -14 10 -4 16 -1 16 8 0 17 -1 17 -18 6z"
       id="path350"
       style="fill:none" />
    <path
       d="M5080 1820 c0 -5 5 -10 11 -10 5 0 7 5 4 10 -3 6 -8 10 -11 10 -2 0 -4 -4 -4 -10z"
       id="path352"
       style="fill:none" />
    <path
       d="M2892 1793 c-12 -5 -42 -65 -42 -87 0 -10 60 -50 65 -44 4 5 35 101 35 108 0 11 -44 27 -58 23z"
       id="path354"
       style="fill:#3366ff" />
    <path
       d="M2075 1673 c-38 -53 -99 -135 -134 -182 -35 -47 -65 -91 -68 -96 -4 -11 302 -233 647 -470 l185 -127 7 184 c5 144 23 330 41 421 1 5 -32 23 -74 41 -85 34 -112 53 -105 71 5 15 -13 35 -32 35 -8 0 -26 9 -41 19 -35 25 -342 201 -350 201 -3 0 -37 -44 -76 -97z"
       id="path356"
       style="fill:#cc66ff" />
    <path
       d="M2942 1711 l-19 -57 36 -40 c35 -39 251 -164 284 -164 9 0 17 -4 19 -9 4 -10 102 -61 118 -61 6 0 10 25 10 60 0 57 -1 60 -19 50 -11 -5 -23 -10 -28 -10 -4 1 4 8 20 16 24 13 27 21 27 63 0 47 -1 48 -40 60 -28 8 -46 9 -59 1 -11 -5 -23 -10 -28 -10 -4 1 3 7 16 14 l24 13 -39 13 c-21 7 -83 30 -137 51 -53 22 -100 39 -102 39 -12 0 30 -66 67 -106 23 -25 34 -42 25 -38 -18 7 -75 81 -100 130 -9 17 -25 34 -36 37 -17 4 -23 -4 -39 -52z m275 -117 c-3 -3 -12 -4 -19 -1 -8 3 -5 6 6 6 11 1 17 -2 13 -5z m-44 -11 c-7 -2 -19 -2 -25 0 -7 3 -2 5 12 5 14 0 19 -2 13 -5z m127 -123 c-8 -5 -19 -10 -25 -10 -5 0 -3 5 5 10 8 5 20 10 25 10 6 0 3 -5 -5 -10z"
       id="path358"
       style="fill:#6699ff" />
    <path
       d="M6190 1678 c-85 -50 -176 -101 -202 -114 -34 -17 -46 -28 -42 -39 10 -25 -13 -42 -113 -81 l-95 -38 7 -41 c21 -135 35 -271 41 -418 4 -92 8 -167 10 -167 16 0 385 224 549 333 69 46 298 211 324 233 2 2 -21 34 -51 71 -30 37 -72 93 -93 123 -84 120 -167 230 -174 229 -3 0 -76 -41 -161 -91z"
       id="path360"
       style="fill:#cc66ff" />
    <path
       d="M5504 1752 c-5 -4 -27 -35 -47 -69 -45 -74 -89 -113 -125 -112 -24 1 -23 2 8 9 37 9 78 51 119 122 21 37 21 40 5 33 -11 -4 -75 -30 -144 -56 -69 -27 -124 -53 -123 -58 2 -6 -4 -8 -12 -5 -8 3 -30 1 -50 -6 -34 -11 -35 -13 -35 -61 0 -48 1 -49 48 -73 57 -31 51 -33 -12 -6 -46 21 -46 21 -46 70 0 53 -3 56 -44 40 -26 -9 -26 -10 -26 -130 0 -66 2 -120 5 -120 6 0 188 90 195 97 2 2 -2 9 -10 14 -11 8 -9 9 9 3 19 -5 59 10 172 67 180 89 191 102 161 188 -19 56 -29 66 -48 53z m-244 -156 c25 -8 36 -15 25 -15 -11 0 -33 6 -50 14 -39 18 -31 18 25 1z m-163 -193 c-2 -16 -4 -5 -4 22 0 28 2 40 4 28 2 -13 2 -35 0 -50z"
       id="path362"
       style="fill:#3366ff" />
    <path
       d="M2500 1730 c-12 -23 -5 -60 13 -60 8 0 8 3 -1 12 -16 16 -15 23 4 42 10 11 24 14 41 10 18 -5 24 -3 19 5 -12 19 -64 13 -76 -9z"
       id="path364"
       style="fill:#990066" />
    <path
       d="M2587 1723 c-42 -33 -73 -70 -87 -108 -9 -23 -7 -30 7 -41 25 -19 30 -17 37 12 4 15 34 55 67 89 32 34 56 65 52 68 -13 14 -40 6 -76 -20z"
       id="path366"
       style="fill:#003399" />
    <path
       d="M5795 1711 c-28 -16 -75 -42 -105 -58 -64 -35 -74 -62 -39 -99 27 -29 39 -30 39 -6 0 56 73 84 104 40 21 -29 20 -52 -1 -69 -16 -13 -17 -12 -4 3 35 45 -27 101 -69 63 -21 -19 -27 -45 -10 -45 6 0 10 6 10 14 0 20 25 37 43 30 37 -14 29 -64 -10 -64 -13 0 -22 -4 -19 -9 10 -16 91 -5 163 23 93 36 97 39 89 70 -8 32 -105 136 -127 136 -8 0 -37 -13 -64 -29z"
       id="path368"
       style="fill:#cc66ff" />
    <path
       d="M2520 1715 c-19 -23 -1 -39 21 -19 10 9 16 21 13 25 -8 13 -20 11 -34 -6z"
       id="path370"
       style="fill:#990066" />
    <path
       d="M6006 1722 c-6 -10 30 -52 44 -52 12 0 12 3 0 34 -9 25 -33 35 -44 18z"
       id="path372"
       style="fill:#990066" />
    <path
       d="M2627 1680 c-52 -47 -86 -105 -71 -120 6 -6 50 -24 99 -41 73 -25 96 -30 134 -23 39 6 42 8 21 13 -20 6 -25 13 -25 36 0 39 36 47 59 13 13 -18 16 -19 16 -5 0 22 -42 49 -64 41 -30 -11 -39 -42 -21 -70 8 -13 11 -24 5 -24 -6 0 -15 12 -21 26 -18 48 36 98 80 75 11 -6 23 -20 26 -31 9 -28 25 -15 25 19 0 25 -10 33 -99 79 -54 29 -104 52 -110 52 -6 0 -31 -18 -54 -40z"
       id="path374"
       style="fill:#660066" />
    <path
       d="M5652 1674 c-52 -26 -102 -74 -102 -99 0 -28 31 -84 57 -103 16 -11 50 -27 77 -36 45 -16 52 -16 99 0 73 24 157 64 157 74 0 20 -24 20 -77 0 -38 -14 -76 -20 -117 -19 -34 0 -68 -2 -77 -6 -21 -8 -35 11 -21 28 8 9 5 20 -8 37 -36 47 -23 78 48 114 17 9 32 21 32 26 0 15 -11 12 -68 -16z"
       id="path376"
       style="fill:#003399" />
    <path
       d="M2800 1681 c0 -5 10 -13 23 -17 12 -3 34 -15 50 -26 31 -22 37 -67 12 -88 -14 -11 -11 -15 16 -32 42 -26 26 -47 -21 -28 -24 10 -37 10 -56 1 -37 -17 -81 -13 -159 13 -49 17 -72 21 -77 13 -11 -18 -3 -23 88 -61 103 -43 135 -45 204 -8 87 45 115 125 63 174 -52 48 -143 86 -143 59z"
       id="path378"
       style="fill:#003399" />
    <path
       d="M3400 1485 l0 -115 42 -21 41 -21 -6 62 c-4 35 -7 91 -7 125 0 62 -1 63 -31 74 -18 6 -34 11 -35 11 -2 0 -4 -52 -4 -115z"
       id="path380"
       style="fill:#3366ff" />
    <path
       d="M5735 1570 c-3 -5 -4 -14 -1 -19 3 -5 -14 -17 -39 -28 -47 -19 -64 -40 -19 -23 14 6 30 7 36 4 6 -4 8 -2 4 4 -3 6 3 14 15 17 12 4 18 12 15 21 -3 8 -1 14 3 14 5 0 11 -6 14 -12 2 -7 8 -10 12 -6 8 8 -12 38 -26 38 -4 0 -11 -4 -14 -10z"
       id="path382"
       style="fill:#990066" />
    <path
       d="M2793 1555 c-3 -9 -3 -19 1 -22 3 -4 6 -1 6 5 0 7 9 12 21 12 11 0 17 5 14 10 -9 15 -35 12 -42 -5z"
       id="path384"
       style="fill:#990066" />
    <path
       d="M3480 1522 c0 -27 3 -83 6 -125 6 -67 9 -76 32 -86 13 -7 27 -10 29 -7 9 9 16 243 7 248 -5 3 -24 9 -41 13 l-33 7 0 -50z"
       id="path386"
       style="fill:#cc66ff" />
    <path
       d="M4973 1560 c-22 -9 -23 -14 -23 -135 0 -129 2 -135 41 -115 17 10 19 22 19 135 0 69 -3 125 -7 124 -5 0 -18 -4 -30 -9z"
       id="path388"
       style="fill:#cc66ff" />
    <path
       d="M2976 1537 c-10 -40 -47 -78 -99 -102 l-50 -23 109 -55 c117 -59 257 -118 477 -202 l137 -53 0 91 -1 92 -275 135 c-152 74 -279 136 -284 138 -4 2 -10 -8 -14 -21z m164 -107 c11 -11 20 -29 20 -40 0 -25 -34 -60 -59 -60 -18 0 -61 43 -61 60 0 4 9 19 21 34 24 31 52 33 79 6z"
       id="path390"
       style="fill:#660066" />
    <path
       d="M3070 1420 c-11 -11 -20 -24 -20 -30 0 -15 38 -50 54 -50 20 0 46 28 46 49 0 20 -30 51 -48 51 -7 0 -21 -9 -32 -20z m59 -14 c13 -16 -1 -56 -19 -56 -33 0 -55 42 -33 63 11 12 40 8 52 -7z"
       id="path392"
       style="fill:#990066" />
    <path
       d="M3080 1391 c0 -27 19 -36 37 -18 18 18 9 37 -18 37 -12 0 -19 -7 -19 -19z"
       id="path394"
       style="fill:#990066" />
    <path
       d="M2823 1529 c34 -20 87 -39 87 -32 0 5 -19 16 -43 26 -46 19 -73 23 -44 6z"
       id="path396"
       style="fill:#990066" />
    <path
       d="M5679 1400 c-36 -19 -36 -20 -29 -62 15 -80 30 -311 30 -465 l0 -153 50 25 50 25 0 83 c-1 164 -40 539 -59 559 -3 3 -22 -2 -42 -12z"
       id="path398"
       style="fill:#0066ff" />
    <path
       d="M2767 1403 c-18 -30 -41 -271 -41 -433 l-1 -184 40 -23 c22 -12 42 -23 45 -23 3 0 5 48 4 107 -1 146 12 394 25 472 9 57 8 66 -7 77 -19 15 -58 18 -65 7z"
       id="path400"
       style="fill:#3366ff" />
    <path
       d="M1817 1338 c-49 -62 -51 -68 -31 -84 56 -43 807 -540 909 -601 169 -100 242 -135 384 -183 125 -42 500 -140 535 -140 16 0 17 5 11 48 -4 26 -8 48 -9 49 -2 2 -68 21 -148 43 -243 67 -393 122 -579 215 -155 78 -320 187 -802 532 -125 90 -230 163 -232 163 -2 0 -19 -19 -38 -42z"
       id="path402"
       style="fill:#cc66ff" />
    <path
       d="M2856 1363 c-18 -45 -6 -66 97 -169 56 -56 95 -98 86 -93 -21 11 -115 102 -158 153 -18 21 -34 37 -35 35 -2 -2 -6 -39 -10 -81 l-7 -78 78 -79 c43 -43 100 -93 127 -110 28 -17 45 -31 39 -31 -18 0 -97 61 -170 133 l-73 71 0 -91 0 -91 91 -86 c49 -47 107 -95 127 -106 20 -10 32 -19 26 -20 -21 0 -100 60 -169 129 -38 39 -73 71 -77 71 -5 0 -8 -26 -8 -59 0 -54 3 -62 48 -119 43 -56 56 -65 150 -107 56 -25 111 -45 122 -45 11 0 20 -4 20 -8 0 -9 268 -97 275 -90 5 4 -14 210 -20 216 -2 2 -16 -4 -32 -13 -26 -16 -26 -16 -8 0 11 9 26 20 33 24 11 6 12 24 5 84 l-8 76 -80 -55 c-79 -55 -147 -94 -162 -94 -4 0 16 14 45 30 29 16 87 53 128 82 73 52 75 54 70 88 -3 19 -6 55 -6 79 l0 43 -27 -18 c-60 -39 -156 -96 -171 -101 -10 -3 3 7 28 22 164 99 170 105 170 145 0 21 -6 42 -12 48 -32 25 -56 22 -124 -17 -38 -22 -80 -42 -94 -46 -14 -4 11 12 55 35 44 23 84 45 88 49 8 8 -111 61 -137 61 -8 0 -16 3 -18 8 -1 4 -37 22 -78 40 l-75 33 31 -31 c17 -17 48 -37 70 -45 21 -8 31 -14 21 -15 -27 0 -57 18 -103 62 -53 51 -160 103 -168 81z m277 -290 c-7 -2 -21 -2 -30 0 -10 3 -4 5 12 5 17 0 24 -2 18 -5z m37 -153 c-8 -5 -22 -9 -30 -9 -10 0 -8 3 5 9 27 12 43 12 25 0z m-53 -16 c-3 -3 -12 -4 -19 -1 -8 3 -5 6 6 6 11 1 17 -2 13 -5z m0 -190 c-3 -3 -12 -4 -19 -1 -8 3 -5 6 6 6 11 1 17 -2 13 -5z m233 -39 c0 -7 -157 -85 -172 -85 -6 0 29 20 78 44 101 51 94 48 94 41z"
       id="path404"
       style="fill:#6699ff" />
    <path
       d="M5557 1339 c-32 -16 -61 -37 -64 -45 -11 -30 -94 -84 -127 -83 -29 1 -29 2 7 9 25 4 52 20 75 44 l37 37 -75 -32 c-41 -17 -78 -36 -81 -41 -3 -5 -10 -8 -15 -6 -10 3 -124 -40 -138 -53 -4 -4 25 -25 65 -48 41 -22 70 -41 66 -41 -11 0 -87 39 -120 62 -19 14 -36 18 -57 13 -29 -6 -30 -9 -30 -58 l0 -52 83 -52 c45 -29 102 -61 127 -72 25 -12 34 -18 20 -15 -35 9 -74 29 -153 80 -37 24 -72 44 -77 44 -6 0 -10 -34 -10 -78 l0 -78 93 -61 c107 -71 142 -90 194 -102 32 -8 34 -9 11 -10 -33 -1 -161 64 -234 119 -29 22 -58 40 -64 40 -6 0 -10 -30 -10 -78 l0 -77 89 -50 c49 -28 88 -52 86 -54 -2 -2 -44 20 -92 47 l-88 51 -10 -117 c-6 -64 -9 -120 -8 -124 4 -7 175 51 258 87 35 15 37 18 20 25 -15 5 -9 7 20 7 28 0 68 14 130 46 74 38 98 56 138 105 46 58 47 62 47 127 l0 68 -74 -76 c-69 -69 -154 -137 -173 -137 -4 0 10 12 32 26 22 15 79 65 128 113 l87 86 -1 60 c-2 114 -4 115 -84 34 -64 -65 -144 -129 -160 -129 -4 0 19 20 51 44 33 24 88 73 123 109 l64 65 -6 64 c-16 159 -20 188 -31 188 -6 -1 -37 -14 -69 -31z m45 -106 c-92 -109 -177 -174 -226 -172 -30 1 -30 1 6 8 46 9 129 73 197 151 29 33 55 60 58 60 3 0 -13 -21 -35 -47z m-199 -340 c-7 -2 -21 -2 -30 0 -10 3 -4 5 12 5 17 0 24 -2 18 -5z m-103 -303 c8 -5 11 -10 5 -10 -5 0 -17 5 -25 10 -8 5 -10 10 -5 10 6 0 17 -5 25 -10z"
       id="path406"
       style="fill:#6699ff" />
    <path
       d="M6575 1264 c-183 -138 -475 -326 -736 -472 -327 -183 -666 -329 -874 -375 l-60 -13 -9 -52 c-5 -29 -6 -55 -4 -58 3 -3 59 7 123 21 333 75 577 189 1074 505 175 111 610 407 639 434 10 10 7 19 -15 49 -16 20 -30 36 -33 36 -3 0 -50 -34 -105 -75z"
       id="path408"
       style="fill:#cc66ff" />
    <path
       d="M3410 1073 c0 -73 26 -469 36 -544 5 -44 7 -46 51 -57 25 -7 47 -11 49 -10 3 3 -41 506 -52 606 -5 38 -10 45 -39 58 -19 8 -37 14 -40 14 -3 0 -5 -30 -5 -67z"
       id="path410"
       style="fill:#3366ff" />
    <path
       d="M5044 1124 l-42 -15 -7 -102 c-4 -56 -18 -210 -30 -342 -13 -132 -22 -241 -21 -242 1 -1 21 3 45 9 28 7 45 18 50 32 10 26 57 677 49 675 -1 0 -22 -7 -44 -15z"
       id="path412"
       style="fill:#3366ff" />
    <path
       d="M3505 1058 c3 -29 14 -156 25 -283 27 -309 28 -315 54 -325 11 -4 22 -4 24 0 1 4 -6 75 -17 157 -11 83 -25 224 -32 314 -8 129 -14 167 -27 177 -27 21 -32 14 -27 -40z"
       id="path414"
       style="fill:#cc66ff" />
    <path
       d="M2825 749 c1 -12 12 -27 26 -35 39 -21 42 -16 12 21 -32 40 -40 43 -38 14z"
       id="path416"
       style="fill:#66ccff" />
    <path
       d="M5639 738 c-56 -75 -55 -72 -10 -49 34 18 41 26 41 51 0 17 -1 30 -3 30 -2 0 -14 -14 -28 -32z"
       id="path418"
       style="fill:#003399" />
  </g>
</svg>
