<?xml version="1.0" encoding="utf-8"?>
<!-- Generator: Adobe Illustrator 21.0.0, SVG Export Plug-In . SVG Version: 6.00 Build 0)  -->
<svg version="1.1" baseProfile="tiny"
	 id="svg116" inkscape:version="0.92.2 5c3e80d, 2017-08-06" sodipodi:docname="25 #7284.svg" xmlns:cc="http://creativecommons.org/ns#" xmlns:dc="http://purl.org/dc/elements/1.1/" xmlns:inkscape="http://www.inkscape.org/namespaces/inkscape" xmlns:rdf="http://www.w3.org/1999/02/22-rdf-syntax-ns#" xmlns:sodipodi="http://sodipodi.sourceforge.net/DTD/sodipodi-0.dtd" xmlns:svg="http://www.w3.org/2000/svg"
	 xmlns="http://www.w3.org/2000/svg" xmlns:xlink="http://www.w3.org/1999/xlink" x="0px" y="0px" viewBox="0 0 850 850"
	 xml:space="preserve">
<sodipodi:namedview  bordercolor="#666666" borderopacity="1" gridtolerance="10" guidetolerance="10" id="namedview118" inkscape:current-layer="svg116" inkscape:cx="1087.205" inkscape:cy="687.04522" inkscape:pageopacity="0" inkscape:pageshadow="2" inkscape:window-height="978" inkscape:window-maximized="1" inkscape:window-width="1920" inkscape:window-x="0" inkscape:window-y="1" inkscape:zoom="0.41647059" objecttolerance="10" pagecolor="#ffffff" showgrid="false">
	</sodipodi:namedview>
<g id="g114" transform="translate(0.000000,0.000000) scale(1.00000,1.00000)">
	<path id="path4" fill="none" d="M0,0h425h425v425v425H425H0V425V0z M313.5,11.8c-0.6,0.5-4.5,2.1-8.8,3.6
		c-25.2,9-40.2,31.3-38.4,57c1,13.8,6.1,25.2,16.2,36.3l5.6,6.3l-0.6,11.2c-1.1,17.9,2.3,35.6,9.6,50c1.6,3.2,2.9,6.5,2.9,7.4
		s-1.3,5.9-3,11c-3.8,12-6,24.5-6,34.6c0,7.8,0,7.9-2.2,7.2c-7.1-2.1-8.1-3.1-18.7-19.4c-12.5-19.1-27-33.7-43.9-44.6
		c-0.2-0.1,0.6-1.7,1.7-3.5c1.1-1.9,3.1-6.9,4.5-11.1c4.5-13.3,3.3-31.5-2.8-43.6s-16.1-21.9-28.1-27.6c-9.1-4.4-16.2-6-26-6
		s-17,1.7-25.5,5.9c-17,8.5-25.8,19.7-32.8,41.6c-0.7,1.9-1.2,7.3-1.2,12c0,19,11.2,39,27.9,49.8c9.4,6.1,16.8,8.2,29.8,8.8
		c10.1,0.5,12.1,0.3,19.5-2c4.8-1.5,11.2-4.5,15.2-7.2c3.8-2.5,7.1-4.5,7.3-4.5c0.3,0,3.7,2.4,7.6,5.4c9.3,7,22.7,20.8,30.7,31.6
		c6,8.1,6.1,8.5,3.9,8.8c-5.6,0.8-34.6,8.5-36.6,9.8c-3.3,2.1-3.7,5.2-1.5,14c1.1,4.3,1.9,7.9,1.9,8c-4.7,2.6-19.6,13.6-22.2,16.5
		c-2.9,3.2-3.5,4.7-3.5,8.2c0,4.1,1.2,6.8,8,17.3c1.2,2,1,2.7-1.8,7c-7.6,12-14,27.4-16.8,40.4c-1.6,7.8-1.8,19.4-0.3,22.2
		c1.6,3,7,4.8,14.3,4.8c9.5,0,11.2-1.8,12.7-13.5c1.4-10.7,4.9-23.7,8.5-30.7c1.4-2.7,2.7-4.8,2.9-4.6c0.2,0.2-0.7,4.6-2.1,9.8
		c-4,15.5-5.2,45.2-2.2,53.3c1,2.7,5.3,5.7,8.1,5.7c1,0,1.6,2.9,2.5,11c2,19.1,5.3,23,18.2,21.5l5.9-0.7l1.4,3.4
		c3.1,7.4,7.4,8.5,20.5,5.4c5.6-1.3,6.2-1.3,6.6,0.2c8.8,29.2,12.8,45.4,12.9,51.8c0,8.8-2.2,15.4-8,23.1c-2.4,3.2-4.3,6.1-4.3,6.5
		s1.2,1,2.8,1.4c9.1,2,9.6,0.3-5.4,16.4c-48.2,51.3-62.9,76.3-68.9,116.7c-1.5,10.2-2.2,40.6-1,49c3.1,23.3,3.9,27.1,6.1,31.5
		l2.5,4.9l3-1.8c5.7-3.3,10.9-11.2,27.1-41c14.4-26.6,27.7-42.8,45.6-56.1c9.6-7.1,27.8-17.6,29.1-16.7c1.4,0.8,5.7,20.3,7.5,33.5
		c2.6,19.2,3.5,36.1,3.6,68.9l0.2,31.3l-6.4,5.2c-7.5,6.3-14.9,14.2-22.7,24.5c-9.1,12-25.8,36.5-26.6,39
		c-3.7,11.6,30.5,14.6,64.3,5.5c5.1-1.4,23.4-7.5,40.5-13.6c43.3-15.4,38.4-14.2,48-11.5c7.4,2,10.4,2.2,31.7,2.2
		c25.7-0.1,29.4-0.6,45.7-6.1c12.3-4.1,14.9-4.2,42.8-0.9c29.3,3.5,44,4,60.9,2.2c11.1-1.3,14.3-1.9,15.8-3.5
		c1.8-1.7,1.8-2.2,0.6-4.6c-1.6-3.1-15.5-15.8-25.3-23c-13.9-10.4-23.7-15.3-45.1-22.6c-11.5-3.9-12.2-4.3-12.8-7.2
		c-1.3-6.7-0.7-9.2,3.5-14.3c7.6-9,12.6-23.5,11.6-33.2c-0.5-4.8-0.3-5.6,3.4-10.7c4.4-6.2,6.5-11.6,11-28.4
		c5.5-21,5.7-25.4,0.9-31.5c-2-2.5-2-2.6-0.1-3.2c1.1-0.3,3.5-2.3,5.5-4.5c6-6.6,13.1-33.3,15.7-59c0.6-6.3,1.5-12.2,2-13.1
		c0.4-0.8,8.1-6.9,17-13.4c27-19.7,34.9-28.5,40.4-44.8c2.1-6.5,2.8-11.4,4.1-29c2.5-36.1,5.6-51.6,17.4-88.2
		c2.9-8.8,6.3-18.4,7.7-21.3c3.6-7.6,7.7-9.7,25.3-12.6c18.8-3.2,22.2-5.5,18-12.3c-1.4-2.4-4.5-4.5-12.2-8.2
		c-11.8-5.6-21.5-8.1-32.1-8.1c-19.5,0-29.3,4.9-45.4,22.8c-19.8,22.2-32.6,41.8-49.4,75.9c-10.7,21.7-12.6,24.9-18.3,30.9
		c-5.8,6-6.7,6.6-9.2,6c-4.8-1.2-19.4-6.8-19.4-7.5c0-0.8,8.4-8.9,12.6-12.2c1.7-1.3,9.1-8.8,16.3-16.6
		c12.5-13.4,13.4-14.2,15.8-13.2c1.4,0.5,2.7,0.8,2.9,0.6c0.9-0.9,3.4-15.6,4.5-25.8c2.3-22.4-1.2-49.7-9-70.3l-3.8-10.1l3.9-0.3
		c9.8-0.8,29.3,4.8,48.6,13.8c6.2,2.9,11.4,5.1,11.7,4.8c2.2-2.1,5.6-27.4,4.7-34.1c-0.5-3.4-2.2-4.2-17.2-8.9l-10.5-3.3l13.8-0.3
		l13.9-0.3l-0.7-6.2c-2-17.2-10.9-40.5-17.7-46.2c-2.9-2.4-3.8-2.7-8.3-2.1c-7.2,0.8-25.2,6.1-34.6,10.2
		c-14.3,6-29.6,17.7-36.6,27.8l-2,3l-6.8-4.9c-11.4-8.1-10.7-6.6-9.9-21.8c0.7-13.2,0.7-13.3-1.9-16.2l-2.5-3l-19.9-0.5l-19.8-0.5
		l-0.3-7.5c-0.5-12.6-3.9-13.9-27.7-10.5c-13.3,1.9-13,2-15.3-1.9c-2.3-4-5.6-5.8-14.7-8.7c-3.6-1.1-6.5-2.2-6.5-2.5
		s5.6-0.4,12.4-0.2c11.8,0.3,12.5,0.2,14.9-2c5.2-4.9,6.7-20.8,2.3-25.9c-2.3-2.7-2.8-2.8-13.4-3.1c-19-0.6-32.5,2.6-54.1,12.9
		c-6.8,3.2-12.6,5.9-12.9,5.9s1-1.6,2.9-3.6c3.9-4.1,14-10.9,21.7-14.8c7.3-3.7,9.2-5.8,9.2-10.4c0-7.9-7.9-19.2-13.4-19.2
		c-2.6,0-16.1,7.9-24.5,14.4c-6.3,4.9-16.6,15.5-22.6,23.4c-2.1,2.9-4.3,5.2-4.7,5.2s-3.1-1.5-6-3.2c-3.8-2.3-6.5-3.3-9.5-3.3
		c-4.9,0-7.3,1.9-14.1,11.3c-5,7.1-4.8,7.2-8.2-2.8c-1.6-4.7-2.3-9.9-2.7-18.9c-0.6-11.8-0.5-12.3,1.3-11.7
		c9.8,3.1,21.4,3.3,31.8,0.6c10.4-2.6,16.7-6.2,25.2-14.3C374.3,98.7,380,85.3,380,69c0-22.1-12.1-41.7-31.3-50.9
		c-4.5-2.2-9.7-4.2-11.4-4.6c-1.8-0.4-3.5-1.1-3.8-1.6C332.7,10.8,314.7,10.7,313.5,11.8z"/>
	<path id="path6" fill="#8B0000" d="M338.2,19c25.5,7.9,41.3,35.1,35.3,60.8c-6.5,27.6-35.2,45.5-62,38.7
		c-24.1-6.2-39.5-25.9-39.5-50.7c0-22.8,15.6-43.2,37.7-49.3C317.2,16.4,330.7,16.7,338.2,19z M335,39c-14,0.1-23.2,9.2-23.2,23.1
		c0,24.3,32.8,32.4,43.6,10.8c5.6-11.4,2.1-24.3-8.4-30.7C342.3,39.4,340.7,39,335,39z"/>
	<path id="path8" fill="#8B0000" d="M189.5,87.5c17.3,4.6,31.2,17.5,37.3,34.9c2,5.6,2.5,9.1,2.5,16.6c0.1,14.1-3.3,23.7-12.1,34.6
		c-9.5,11.7-22.6,18.3-38.2,19.1c-16.6,0.9-29.7-4.1-41-15.6c-21-21.4-21.1-54.2-0.1-75.2c7-7,15.4-11.9,24.4-14.4
		C169.3,85.7,182.2,85.6,189.5,87.5z M161.2,104.1c-17.9,3.5-25.4,25.9-13.4,39.9c11.3,13.3,31.4,11.1,39.7-4.2
		c6.8-12.5,1.6-28.3-11-33.8C171.1,103.6,166.4,103,161.2,104.1z"/>
	<path id="path10" fill="#7FFF00" d="M399.3,116.1c4.2,1.9,6.6,9.2,4.2,12.7c-0.9,1.1-5.2,4.2-9.8,6.9c-11.8,6.9-24.1,19.4-29,29.5
		c-2,4.2-3.7,7.9-3.7,8.3c0,0.3,3.5-1.9,7.8-4.9c22.7-15.8,50.7-25.6,73.8-25.6h6.2l-0.9,3.7c-1.1,4.8-1.1,5.3-0.1,5.3
		c0.5,0,1.5-1.9,2.3-4.2l1.3-4.1l1.3,2.9c2.3,5.5,1.1,13.4-2.4,16.1c-1.1,0.9-4.3,1.1-10.7,0.7c-7.2-0.5-11.2-0.2-19.1,1.6
		c-5.5,1.2-14.7,2.5-20.5,3c-5.8,0.4-12.1,1.4-14,2.2c-3.4,1.4-2.9,1.5,10.5,2.1c25.1,1.1,46.5,6.9,45.7,12.2
		c-0.5,3.3-6,14.5-7.1,14.5c-0.5,0-9.9-2-20.8-4.5c-30.6-7-42.3-8.8-52.8-8.2c-13.7,0.8-24.7,4.7-37.2,13c-8.2,5.5-8.9,7.5-1,3.2
		c14.4-7.9,35.3-12.4,51.2-11c10.3,0.8,24.8,3.8,35,7.1c4.4,1.5,8.2,2.8,8.4,3c0.2,0.1-1.2,2.3-3,4.8c-4.3,6.1-3,7,2,1.5l4-4.4
		l0.1,2.8c0,3.9-3.6,10.6-6.5,11.9c-1.9,0.9-5.5,0.3-18.7-3c-30.8-7.8-39.7-8.5-51.4-4.1c-5,1.9-16.4,9.3-16.4,10.7
		c0,0.4,4.9,0.6,11,0.4c18.9-0.7,34.5,4.5,52.5,17.5c9.4,6.8,10.2,9.1,6,15.4c-4.9,7.6-7.5,7.3-19.9-1.8c-13.5-10-23.2-13.3-39-13.3
		c-11.1,0-12.4,0.7-5.1,2.8c6.5,1.8,30.1,17.2,38.2,24.8c3.5,3.3,4.3,7.5,2,10.5c-2.8,3.7-11.7,7.6-11.7,5.1c0-0.4,1.6-3.1,3.5-6
		c4.5-6.6,2.3-7.1-3.4-0.6l-4,4.6l-7.5-6.6c-14.3-12.5-24.5-17.6-35-17.6h-5.4l-0.7,7.6c-1.3,13.5,1.5,27.3,7.5,36.7
		c1.6,2.6,3,4.9,3,5.2c0,0.2-2.6,1.8-5.7,3.6c-6.9,4-5.5,5.1,1.7,1.4c2.9-1.5,5.4-2.4,5.7-2.1c1,1-4.3,8.8-7.3,10.6
		c-6.9,4.3-10.6,2.2-16.2-9.2c-5.7-11.5-7.5-19.7-7.5-34.6c0-6.7-0.1-12.2-0.3-12.2c-1.4,0-3.7,7.5-4.1,13.4
		c-0.4,6.1,0.1,9.3,3.7,23.1c3.5,13.3,4.2,17.4,4.1,24.3c-0.2,6.1,0.5,11.2,2.4,18.9c2.6,10.2,2.6,10.5,0.8,12.5
		c-4.7,5.2-14.1,6.6-16.7,2.5c-5.1-7.7-6.6-31.5-3.1-49.5c0.9-5.1,1.5-9.6,1.2-9.9c-1-1-8.5,24.4-10.3,34.7
		c-1.9,11.6-1.5,25.8,1,34.7l1.4,5.3l-3.9,1.1c-5.2,1.6-4.9,2.9,0.7,2.9c5.4,0,5.5,1.3,0.4,4.7c-4.1,2.9-11,3.1-13.2,0.5
		c-0.9-0.9-2.7-6.7-3.9-12.7c-2-9-2.4-14-2.4-27.5c0-16.1,1-22.8,5-33.3c0.4-0.9,0.3-1.7-0.3-1.7c-2.3,0-6.4,11.7-8.3,23.5
		c-3.6,22.8-5.1,40.5-4.4,50.3c0.8,10.7,0.3,11.7-5.6,12.7c-4.9,0.8-8.5-1.2-10.5-6c-1.7-4.2-1.9-25.6-0.3-37.2
		c1.1-8.3,6-24.1,10.3-33.6c1.4-3.1,2.3-5.7,2-5.7c-3.1,0-11.4,7.7-15.6,14.5c-3.4,5.5-9.1,20-12.6,32l-2.8,10l-4.2-0.3
		c-4.9-0.4-5.6,1.1-1,2.4c5.5,1.6,4.6,3.4-1.4,2.7c-10.6-1.2-11-2.8-5.7-21.4c10.6-37.7,20.7-53,45.7-69.4c5.6-3.6,10.2-6.8,10.2-7
		c0-0.8-8,1.9-13.8,4.7c-6.6,3.3-19.6,13.7-22.5,18.1c-2.3,3.5-3.6,3.4-6.9-0.7c-6.5-8.1-6-11.5,2.7-19.5
		c14.8-13.4,35.6-22.6,56.3-24.7c7.5-0.8,8.2-2.4,1-2.4c-8.3,0-17.5,1.8-28.2,5.5c-9.3,3.3-10,3.4-11.2,1.7
		c-1.8-2.4-3.8-9.8-3.1-11.6c1.8-4.7,17.5-9.6,33.3-10.3c12.2-0.6,20.2,0.4,31.3,4l7.1,2.3v-8.5c0-22.5,8.9-49.7,23.3-71.1
		c5.7-8.5,8.7-11,13.2-11c4.3,0,7.8,1.9,9.5,5.1c0.8,1.5,0.4,3.4-2,8.8c-1.6,3.8-3,7.5-3,8.2s4.8-5.8,10.7-14.5
		c14.2-21.2,28.4-35.3,43.1-42.8C394,114.7,395.9,114.6,399.3,116.1z"/>
	<path id="path12" fill="#8B0000" d="M292.4,117c0.4,0,2,0.7,3.6,1.5c2.9,1.5,2.9,1.6,2.3,7.9c-0.8,8.4,1.1,20.3,5.1,33
		c2.8,8.9,3.1,10.8,2.2,13.7c-0.6,1.9-1.5,3.4-1.9,3.4c-1.1,0-6-11.5-8.7-20.6c-1.7-5.8-2.3-10.9-2.7-23.2
		C292,124.1,292.1,117,292.4,117z"/>
	<path id="path14" fill="#8B0000" d="M228.7,180.2c13.2,9,25.9,22.7,38.7,41.8c4.7,6.9,6,9.6,4.9,9.8c-3.8,0.9-6.4-1.2-13.4-11
		c-8.9-12.5-21.8-26.1-31.3-33c-3.9-2.8-7.5-5.5-8-6c-0.6-0.4-0.2-1.6,0.9-2.8C222.9,176.4,223.3,176.4,228.7,180.2z"/>
	<path id="path16" fill="#7CFC00" d="M477.3,186.8c0.4,0.2,0.7,1.9,0.7,3.8s0.5,3.4,1,3.4c0.6,0,1-0.6,1-1.4c0-0.8,0.5-2.7,1.1-4.3
		l1.1-2.8l2,2.5c1.7,2.1,1.9,3.4,1.5,7.9c-0.3,3-1.1,5.7-1.7,6.1c-0.6,0.4-12,1.4-25.3,2.4c-13.3,0.9-25.9,1.9-27.9,2.2
		c-3.4,0.5-3.9,0.3-4.8-2.2c-0.6-1.5-0.9-2.9-0.6-3.1c0.2-0.2,2.5,0.2,4.9,1.1c6.7,2.3,10,0.8,13.9-6.1c1.7-3,4-5.8,5.2-6.3
		c1.2-0.4,7.8-1.4,14.6-2.2C470.9,187,476.8,186.6,477.3,186.8z"/>
	<path id="path18" fill="#006400" d="M499.9,208.4c-0.2,0.2-4,1.9-8.4,3.6c-20,7.9-47.3,24.2-66.5,39.7
		c-11.7,9.4-32.4,29.6-43.7,42.7c-31.9,37.1-54.9,74.5-67.9,110.3c-6.3,17.5-12.4,45.3-12.4,57c0,4.7-1.5,6.5-2.5,3.1
		c-0.4-1.3-6.8-19-14.1-39.4L271,388.2l3.5-3.5c1.9-1.9,3.5-4.3,3.5-5.4c0-1-1.8-8.3-4-16.3c-3.5-13-4.1-16.4-2.5-14.8
		c0.3,0.3,1.4,3.6,2.5,7.3c1.1,3.7,2.7,7.6,3.6,8.6c2.5,2.7,6.8,3.2,12.9,1.5c6.1-1.8,13.5-8,13.5-11.3c0-1.1-1.1-5.6-2.4-10
		c-2.5-8.3-4.4-21.3-3.1-21.3c0.4,0,2,1.1,3.7,2.5c3.7,3.2,7.5,3.2,13.6,0.1c5.8-3,9-6.3,10.7-11.2c1.5-4.4,1-6.1-4.1-14.5
		c-5.7-9.5-7.6-16-8.1-28.8l-0.6-11.4l2.9,0.7c5,1.1,17.1,7.5,22.6,11.8c2.9,2.3,8.9,7.3,13.2,11.1c7.4,6.4,8.2,6.9,11.7,6.4
		c7.8-1,16.9-9.9,16.9-16.4c0-4.1-2.2-6.6-15-17.3c-6.1-5-11-9.4-11-9.6c0-1.1,16.3,8,22.4,12.5c8.2,6.1,11.9,7,17.2,4.3
		c4.9-2.5,6.8-4.6,9.4-10.4c2.9-6.5,1.6-9.4-7.3-16.2c-14.4-10.9-33-17.8-50.7-18.9l-4.5-0.3l3-1.3c1.7-0.7,6.2-1.8,10-2.4
		c8.1-1.2,19.3,0.7,40.3,6.8c6.6,1.9,14.2,3.5,16.8,3.5c4.8,0,5.5-0.5,13.2-9.6c1.6-1.9,3.3-2.2,17.3-2.8c8.5-0.5,22.6-1.4,31.4-2.1
		C490.7,208.2,500.6,207.8,499.9,208.4z"/>
	<path id="path20" fill="#6B8E23" d="M529,210c1.1,2,0.3,16.8-1,18.9c-0.6,1-11-2.3-35.9-11.4c-2.5-1-0.2-1.9,14.2-5.6
		C523,207.5,527.5,207.1,529,210z"/>
	<path id="path22" fill="#7FFF00" d="M630.8,215.8c0.9,0.9,3.6,5.4,6,9.8l4.2,8.2l-9.3,1.7c-14,2.7-14.4,3.4-2.1,3.4
		c7.7,0.1,11.5,0.5,12.2,1.3c1.2,1.6,4.1,15.5,3.4,16.3c-0.3,0.3-4.9,0.5-10.2,0.5c-8.8,0-20.4,2-22.3,3.9
		c-0.4,0.4,6.5,2.9,15.3,5.6c8.9,2.7,16.8,5.7,17.7,6.7c1.4,1.6,1.5,3,0.5,12.9c-0.7,6.2-1.4,11.4-1.6,11.7
		c-0.3,0.2-5.4-1.4-11.3-3.6c-11.2-4.2-21.2-6.4-37.3-8.2c-16.4-1.9-15.2-1.2-26.5-17.1c-15.3-21.7-14.1-18.8-9.9-23.7
		c10.3-12.1,29.9-22.7,52.8-28.7C623.6,213.6,628.4,213.4,630.8,215.8z"/>
	<path id="path24" fill="#B8860B" d="M498.1,227.9c22.6,7.6,38.3,17.2,54,33c11.2,11.2,17.2,19.6,23.7,32.6
		c9.8,19.9,13.6,36.9,13.7,62c0,16.9-0.9,28.9-2.4,31.3c-0.6,1-4.7,0-17.2-3.9c-9-2.8-16.8-5.5-17.3-6c-0.6-0.5-0.2-5,0.8-11.1
		c2.5-14.5,3.1-30.8,1.7-40.7c-0.7-4.6-1.5-9-1.8-9.8s-4.6,10.9-9.5,25.9c-5,15-9.8,28.2-10.8,29.2c-1.8,1.9-2.1,1.9-13.8-0.7
		c-6.6-1.5-12.8-2.7-13.7-2.7c-1.4,0-1.6-0.6-1.1-3.3c4.2-20.8,4.8-39.4,1.7-54.2c-1.1-5-2.3-10.1-2.9-11.5c-1-2.7-1.1-2.5-6.3,16.5
		c-4.1,15.2-15.3,44-18,46.2c-1.2,1-7.2,0.7-28.5-1.3c-14.8-1.3-27.8-2.7-28.9-2.9c-2-0.4-2.1-0.8-1.3-9.7
		c0.9-9.9-0.3-22.8-2.7-28.3c-1.5-3.5-1.3-3.7-5,9c-7,24.1-10.1,29.5-16.7,29.5c-4.5,0-22.1,3.1-23.2,4.2c-0.6,0.4,0.4,0.8,2.2,0.8
		c1.8,0,3.2,0.5,3.2,1.2c0,2.2-13.3,36.8-14.2,36.8c-0.5,0-3.4-1.3-6.6-2.9c-10.3-5.2-14.6-4.9-20.9,1.1c-1.8,1.8-3.4,3-3.7,2.7
		c-0.2-0.2-1.5-2.8-3-5.7L327,390l11.4,0.6c9.6,0.6,12.3,0.4,16.1-1c9.9-3.8,9.9-9.9,0.1-34.3c-3.3-7.9-3.6-9.5-2.5-11.5
		c2.4-4.6,15.3-21.9,16.8-22.8c0.9-0.4,3.6-0.4,6.1,0c15.2,3,22.1-1.2,19.1-11.4c-0.6-2.3-1.7-6.5-2.3-9.4l-1.2-5.3l16.4-16.5
		c9.1-9,17.5-16.7,18.8-17.1c1.6-0.4,6.9,1.7,18.3,7.3c15.2,7.3,16.4,7.8,23.1,7.8c6.4,0.1,7.1-0.1,9.4-2.7c2-2.3,2.4-3.9,2.4-9
		c0-7.7-1.9-15.7-6.4-27l-3.4-8.8l2.1-1.3c1.2-0.7,3.1-1.8,4.2-2.4C479.3,223.1,486.3,224,498.1,227.9z"/>
	<path id="path26" fill="#8B4513" d="M462.2,233c1.3,0,9.7,17.7,11.3,23.7c2,7.5,1.9,13.2-0.2,15.5s-4,2.3-10.4-0.2
		c-6.2-2.3-30.9-16.2-30.6-17.2c0.1-0.3,6.7-5.4,14.7-11.2C454.9,237.8,461.8,233,462.2,233z"/>
	<path id="path28" fill="#8B4513" d="M386.1,300.7c0.5,0.5,2,3.9,3.4,7.7c3.5,9.2,2.8,10-8.2,9.4c-4.6-0.2-8.5-0.7-8.9-1
		c-0.3-0.4,2.5-4.3,6.2-8.8C382.3,303.6,385.7,300.3,386.1,300.7z"/>
	<path id="path30" fill="#BDB76B" d="M504,323.2c0,12-2.1,27.9-5.1,39.1c-1.5,5.4-1.8,8.1-1.1,8.6c1.7,1,37.3,8.4,37.8,7.8
		c0.3-0.3,4.1-11.2,8.4-24.2c4.4-13.1,8.2-24,8.6-24.4c0.3-0.3,0.3,3.7-0.1,8.9c-0.6,7.9-2.7,19.5-7.1,40.1
		c-0.5,2.3-0.2,2.7,2.3,3.3c1.5,0.4,5.8,1.6,9.5,2.7l6.6,1.9l-4.4,9.8c-2.5,5.3-7.2,15.1-10.5,21.8c-7.4,14.8-9,22.3-6.9,31.6
		c2.2,9.4,1.8,14.6-1.6,20.9c-2.9,5.4-17,20.6-21,22.7c-2,1-2.3,0.6-4.8-5.6c-6.1-15.5-11.8-21.6-18-19.2c-2.8,1-8.8,8.7-13.6,17.5
		c-5.5,10-5,9.7-15.9,9c-8.2-0.6-61.5-8.6-66.2-10.1c-1-0.3-2.1-2.6-2.8-6.2c-1.9-8.6-5.6-16-8.5-17.2c-2.8-1-7-0.1-11,2.5
		c-1.5,1-2.8,1.6-3,1.4s-3.8-7.3-8-15.6L360,435l-3.2,0.8c-9.6,2.1-14.7-0.2-19-8.8c-5.4-10.4-2.9-23,5.3-27.4
		c5.5-3,10.2-1.6,16.7,4.9c5,5,5.4,5.2,6.2,3.2c5.1-13.1,17.4-40.5,18.7-42c3.3-3.6,7.1-4.9,12.4-4.2c7.4,1,9.1-0.5,12.8-11.7
		c3.3-10.4,6-17.2,6.6-16.7c0.2,0.2-0.3,6.5-1,13.9c-0.8,7.4-1.1,13.8-0.7,14.1c0.4,0.3,9.7,1.3,20.7,2.2c11,1,25.5,2.5,32.2,3.4
		c11.6,1.6,12.3,1.6,14.2-0.1c1-1,4-7.4,6.5-14.4s6.1-17.2,8.1-22.7s4.1-11.5,4.6-13.3C502.9,310.2,504,312.9,504,323.2z M432,374.1
		c-2.8,0-9.9,3.4-14.7,6.8c-4.9,3.5-4.6,5.4,0.4,2.8c1.5-0.8,6-2.4,10-3.6c7.5-2.2,9.5-3.7,7.2-5.2C434.1,374.4,432.8,374,432,374.1
		z M515,386.9c0,0.5,3.6,3.6,8,7s8,5.7,8,5.1c0-2.2-3-6.8-6.5-9.9C521.1,386.2,515,384.7,515,386.9z M425.6,412
		c-8.1,0-13.4,7.3-11.5,15.9c1.2,5.5,4.9,8.3,11.2,8.9c5.1,0.4,5.7,0.2,9.2-3c2.9-2.7,3.8-4.3,4.2-7.9c0.6-5.6-1.5-10.2-5.7-12.4
		C431.4,412.7,428.1,412,425.6,412z M495.4,431.6c-3.3,7.8,2.3,15.4,11.4,15.4c10,0,14.6-12.4,7.3-19.4
		C508.1,421.9,498.6,424,495.4,431.6z M464.5,448.1c-4.8,4.2-4.4,5.2,1,2.8c5.1-2.3,7.1-1.9,11.5,1.8l3,2.5v-3.6
		c0-2.5-0.6-3.9-2.2-5C474,443.9,468.6,444.6,464.5,448.1z M428.3,463c-3.9,2.3-4.2,3.4-0.9,2.8c2.3-0.5,2.6-0.1,3.6,4.6
		c1.8,8.4,4.8,13.5,9.8,16.7s6.8,3.5,10.7,1.7c2.2-1,9.5-9.7,9.5-11.3c0-0.3-1.6-0.5-3.5-0.5c-7.3,0-17.5-6.8-17.5-11.7
		c0-1.6-0.8-2.7-2.6-3.3C433.7,460.6,431.9,460.8,428.3,463z"/>
	<path id="path32" fill="#1E90FF" d="M435.6,418.5c1.9,1.5,1.9,1.5,0,3c-3.9,3-8.5,0.5-5.6-3C431.6,416.6,433.1,416.6,435.6,418.5z"
		/>
	<path id="path34" fill="#1E90FF" d="M514.1,430.1c2,1,2,1.1,0.3,3c-2.1,2.3-2.8,2.4-4.9,0.3c-1.2-1.2-1.3-1.9-0.4-3
		C510.5,428.7,511.5,428.7,514.1,430.1z"/>
	<path id="path36" fill="#FF0000" d="M433.9,465.1c0.3,0,2.4,2.3,4.6,5.1c4,5.1,8.7,8.3,13.8,9.3c2.4,0.5,2.6,0.8,1.7,2.5
		c-1.6,3-5.6,5.3-8,4.5c-3-1-7.9-5.3-9.6-8.7c-0.9-1.7-1.9-5.2-2.3-7.9C433.6,467.2,433.6,465,433.9,465.1z"/>
	<path id="path38" fill="#BDB76B" d="M699.5,315.5c12.4,2.9,28.5,10.6,28.5,13.6c0,1.3-3,1.9-14.6,3c-6.3,0.5-13.4,1.7-15.7,2.5
		c-11,3.9-17.2,11.6-23.2,29.1c-4.3,12.7-4.8,13.5-10.5,16.5c-5.2,2.8-7.9,6.1-8.6,11c-0.8,4.9,0,8,3.3,11.8l2.7,3.2l-1.3,11.2
		c-0.6,6.1-2.2,17.7-3.5,25.9c-2.2,14.2-2.4,14.9-5.8,18.5c-4.6,4.8-5.8,7.2-5.8,12c0,2.7,1,5.3,3.2,8.7l3.2,4.8l-3.4,6.6
		c-4.6,9-20.9,25.2-35.2,34.9c-5.8,3.9-11.1,7.2-11.6,7.2c-1.7,0-2.2-2.9-2.2-13.1v-10l8.7-21.7c10-25.1,10.6-28.4,5.5-31.8
		c-1.8-1.3-5.7-2.8-8.7-3.4c-7.9-1.6-10.1-3.8-11-10.6c-0.3-3-1.3-7.2-2.2-9.1c-1.9-4.7-1-8.2,6.2-24.9
		c12.8-29.6,33.5-61.5,52.7-81.1c7.3-7.6,13.9-11.9,21.6-14.4C678.8,313.7,691.2,313.5,699.5,315.5z M669,325.3c0,3.9,1.5,6.4,5,8.2
		c3.8,2,7.6,1.9,12.6-0.4s7.4-5.5,7.4-9.8c0-2.6-0.7-3.7-3.7-5.8C681.9,311.8,669,316.5,669,325.3z M631,356.6
		c-9.6,8.1-7.7,20.9,3.3,22.1c4.3,0.5,4.9,0.3,8.1-2.9c4.3-4.3,6.1-10.3,4.6-15.8c-0.6-2.2-1.9-4.4-3-5
		C640.4,353.1,634.4,353.8,631,356.6z M627.3,416.2c-8.4,2.2-12.4,18.2-6,24.5c3.3,3.4,9.3,4,13.3,1.5c3.5-2.2,7.4-9.7,7.4-14.2
		c0-3.4-2-7.9-4.3-9.9C635.2,416.1,630.7,415.3,627.3,416.2z M622.4,481.4c-8.9,3.9-12.2,17.5-5.7,24c3.3,3.3,10.1,3.6,14.3,0.6
		c7.8-5.5,7.8-20.5,0-24.5C627.5,479.7,626.4,479.7,622.4,481.4z"/>
	<path id="path40" fill="#8B0000" d="M683.9,317.1c0.2-0.1,1.9,1,3.8,2.5c4.4,3.3,4.4,6.7,0.1,9.4c-1.8,1.1-4.4,2-5.8,2
		c-1.4,0-4-0.9-5.7-2c-5.7-3.4-3.9-8.7,3.7-10.8C681.9,317.6,683.7,317.1,683.9,317.1z"/>
	<path id="path42" fill="#8B0000" d="M643.7,365.7c-0.4,3.7-1.2,5.4-3.6,7.5c-3.5,3.2-5.7,3.5-8.8,1.3c-4.7-3.3-3.2-12.9,2.6-16
		C640.3,355,644.6,358.1,643.7,365.7z"/>
	<path id="path44" fill="#8B0000" d="M630.6,419c4.6,0,7.4,3.8,7.4,10.1c0,9.6-9.1,14.9-14.7,8.5c-3.7-4.4-2.9-12.1,1.8-16.5
		C626.5,419.9,628.7,419,630.6,419z"/>
	<path id="path46" fill="#8B0000" d="M632.6,497.5c-3.4,8.7-11.5,10.1-15.5,2.6c-1.8-3.3-0.6-8.5,3.1-12.6
		C627.5,479.1,636.7,486.5,632.6,497.5z"/>
	<path id="path48" fill="#8B4513" d="M346.2,351.9l2.1,3.3c5.2,8.6,8.9,17.9,9.1,23c0.2,7.2-1.3,7.8-16.3,6.7
		c-6.3-0.5-11.6-1.1-11.9-1.3c-0.2-0.3,3.5-7.5,8.3-16.1L346.2,351.9z"/>
	<path id="path50" fill="#7FFF00" d="M245.6,368.3c0.8,0.8,6.4,53.2,5.8,54.9c-0.6,2-7.6,4.2-10.3,3.3c-2.9-0.9-4.1-5-6.5-22.1
		l-0.6-4.2l4.5-1.1c5.3-1.3,8.5-4.1,8.5-7.4c0-1.2-0.7-6.7-1.5-12.1c-0.8-5.5-1.2-10.4-0.9-10.8C245,368.3,245.4,368.1,245.6,368.3z
		"/>
	<path id="path52" fill="#8B0000" d="M666.1,383c1.6,0,1.6,0.6-0.5,8.5c-1.3,4.7-2.6,8.9-3,9.3s-1.4-0.2-2.3-1.3
		c-2.2-2.9-1.2-10.9,1.7-14C663.3,384.1,665.1,383,666.1,383z"/>
	<path id="path54" fill="#D2691E" d="M570.9,389c1.6,0,7.1,2.2,7.1,2.8c0,0.4-2.2,4.2-4.9,8.4c-4.4,6.8-17.8,21.4-18.8,20.5
		c-0.1-0.2,3.3-7.4,7.8-16C566.5,396.1,570.5,389,570.9,389z"/>
	<path id="path56" fill="#7FFF00" d="M262.3,391.2c2.4,1.9,15.9,35.8,15.2,38.5c-0.3,1.2-2.2,3-4.8,4.2c-5,2.4-7.6,2.6-10,0.8
		c-2.9-2.1-5.7-15.9-8.1-39.9c-0.2-2.2,0.1-3.9,0.8-4.2C257.5,389.7,260.6,390,262.3,391.2z"/>
	<path id="path58" fill="#6B8E23" d="M323,398c0.5,0,2.2,2.1,3.7,4.7c2.3,3.9,2.9,6.4,3.3,13.3c0.4,6.6,1.2,9.9,3.3,14.2
		c3.9,7.9,7.9,10.3,17.7,10.4h7.4l0.9,3.3c0.4,1.9,0.6,3.9,0.4,4.5c-0.3,0.7-4,2-8.2,3c-13.2,3.1-22.5,6.5-34.8,12.8
		c-6.5,3.3-12,5.8-12.3,5.6c-0.5-0.6,1.2-13.7,3.2-24.3c1.9-10,7.3-28.4,11.4-39.3C320.8,401.7,322.6,398,323,398z"/>
	<path id="path60" fill="#BDB76B" d="M589.5,445.5c0.6,5.6,0.5,6.7-0.6,6.3c-0.8-0.3-5.1-1.3-9.6-2.3c-4.6-1-8.3-2.1-8.3-2.6
		c0-0.4,2.6-3.5,5.8-6.8C585.7,430.7,588.1,431.7,589.5,445.5z"/>
	<path id="path62" fill="#6B8E23" d="M555.7,447.4c7.1,2.2,42.1,12.5,50.1,14.8c1.7,0.5,3.2,1.5,3.2,2.2c0,2.5-9.2,9.8-16.5,13.2
		c-4.1,1.9-7.8,3.4-8.3,3.4s-3.2-2.7-6.1-6c-6.3-7.3-8.9-8.2-13.4-4.7l-3.2,2.4l-6.1-3l-6.2-3l-1.1-7.6c-0.7-4.2-1.5-9.1-1.8-10.9
		C545.7,444.3,545.7,444.3,555.7,447.4z"/>
	<path id="path64" fill="#6B8E23" d="M367.4,462.1c4,6.3,4.5,9.6,1.7,13l-1.9,2.3l-13.8-2.1c-7.7-1.2-19-3-25.1-3.9
		c-6.2-0.9-11.3-2-11.3-2.3c0-0.9,8.7-5.6,15-8.1c3-1.2,9.6-3.3,14.5-4.5C361,452.7,361.3,452.8,367.4,462.1z"/>
	<path id="path66" fill="#A52A2A" d="M388.9,465.9c1.4,2.5,5.2,16.4,4.7,16.9c-0.4,0.4-19.7-3.8-20.4-4.4c-0.2-0.1,2.2-3.4,5.3-7.3
		C384.4,463.8,387.1,462.5,388.9,465.9z"/>
	<path id="path68" fill="#8B0000" d="M653.7,464.4c0.9,0.9-0.9,15.6-2,15.6c-1.7,0-3.6-3.4-3.7-6.7c0-2,1-4.3,2.6-6.3
		C652.1,465.3,653.5,464.1,653.7,464.4z"/>
	<path id="path70" fill="#A52A2A" d="M549,470.1l3.8,1.6c7.2,2.9,8.1,4.6,6.1,11.6c-1.3,4.8-4.7,7-12.3,7.8c-3.4,0.3-8.3,1-11,1.4
		l-4.9,0.8l5.8-7.4c3.2-4.1,7.3-9.3,9.2-11.6L549,470.1z"/>
	<path id="path72" fill="#A52A2A" d="M567.8,470c1.1,0,11.2,11.5,11.2,12.7c0,0.8-16.2,5.4-16.8,4.8c-0.4-0.3,2.5-11.5,3.8-15
		C566.5,471.1,567.3,470,567.8,470z"/>
	<path id="path74" fill="#A52A2A" d="M503.8,475.2c2.1,3.5,8.2,18.2,8.2,19.8c0,1-27.2,1.5-28.2,0.5c-0.5-0.6,7.1-15.5,10.6-20.8
		C497.1,470.8,501.2,471,503.8,475.2z"/>
	<path id="path76" fill="#008000" d="M311.6,473.4c13.8,0.8,29.5,3.8,77.9,14.6c52.3,11.7,68.7,14,99,14c18.4,0,33.4-1.3,53-4.5
		c28.6-4.6,47.6-10.8,60.3-19.4c3.4-2.3,6.2-3.7,6.2-3.2c0,4.6-18.1,41.5-28.5,58.1c-13.9,22.1-36.9,49.6-49.2,58.9
		c-12.2,9.2-19.2,9.3-44.4,0.8C454,581.9,434.2,572,395,547.1c-16.8-10.7-37-20.9-48.5-24.4c-12.8-4-22.2-5-38.7-4.3
		c-8.3,0.4-14.8,0.3-14.8-0.2s1.2-1.9,2.6-3.3c5.1-4.7,7.7-10.6,8.2-18.3c0.4-6.4-1.1-16.1-3.4-22
		C299.7,472.8,300.2,472.7,311.6,473.4z"/>
	<path id="path78" fill="#BDB76B" d="M318.7,523c8.2,0,9.6,1.1,10.8,8.5c1.6,9.9,1.4,9.5,5.3,9.5c11.1,0,16.7,4.6,20.8,17
		c2.6,7.8,2.8,9.8,2.8,24.2c0.1,14.6,0,15.9-2,17.8c-1.1,1.1-11,6.4-22,11.6c-10.9,5.3-23.9,11.9-28.7,14.6l-8.8,5.1l-5.4-1.3
		c-4.9-1.2-5.6-1.1-8.7,0.7c-5.1,3-7.8,7.7-7.8,13.8c0,5.7-0.2,6.1-10.5,18.7c-3.3,4-7,8.7-8.2,10.3l-2.1,3l-2.4-2.3
		c-6.6-6.1-18.8,2.1-18.8,12.6c0,3.9,4.6,9.2,7.9,9.2c1.2,0,2.1,0.4,2.1,0.9c0,0.4-2.9,6.6-6.5,13.7c-5.8,11.6-14,24.3-15.6,24.4
		c-0.8,0-2.6-11.9-4-26.5c-1.6-16.9-0.3-48.1,2.6-61.3l0.6-2.3l3.2,2.5c4.9,3.7,7.6,4,12.7,1.3c7.9-4.2,11.3-14.4,7-21.4
		c-2.4-3.9-5.9-5-11.7-3.5c-5.3,1.5-6.3,1.5-6.3,0.2c0-1.9,16.3-27.7,23.6-37.5c19.3-25.8,48.1-56.2,57.7-61
		C310.3,523.5,312.9,523,318.7,523z M301.6,543.5c-8.3,2.9-13.4,10.9-11.5,18c1.5,5.4,5.3,7.8,11.6,7.3c8.9-0.8,15.3-7.4,15.3-15.8
		c0-5.3-2.3-8.7-6.9-10C305.8,541.8,306.4,541.8,301.6,543.5z M327.5,579.4c-5.5,3.6-8.2,12.5-5.5,17.7c2.8,5.1,14.1,6.4,19.8,2.2
		c7.9-5.9,9.6-17,3.3-21C340.7,575.5,332.6,576.1,327.5,579.4z M258,599.2c0,12.4,15.2,15.3,23.4,4.5c5-6.6,4.3-15.2-1.5-18.2
		C270.3,580.5,258,588.3,258,599.2z"/>
	<path id="path80" fill="#8B0000" d="M312,548c5.8,5.8-1.8,17-11.5,17c-9.2,0-10.1-11.2-1.3-16.9C303.5,545.4,309.3,545.3,312,548z"
		/>
	<path id="path82" fill="#8B0000" d="M343.5,581.4c2.4,1.7,2.5,7.4,0.2,11c-5.8,8.8-18.7,7.9-18.7-1.3c0.1-4,1.6-6.6,5.7-9.3
		C334,579.7,340.8,579.4,343.5,581.4z"/>
	<path id="path84" fill="#8B0000" d="M280.1,599.4c-4.7,9.5-16.4,10.2-18.7,1.1c-1.2-5,3.5-11.8,9.2-13.4
		C278.9,584.9,283.9,591.4,280.1,599.4z"/>
	<path id="path86" fill="#008000" d="M346.1,527.5c11.3,3.8,19.2,8.1,57.8,31.3c33.3,20,55.1,30.5,82.6,39.9
		c28.2,9.6,39.3,6.8,61.2-15.3c10.8-11,27-31.8,37.4-48.3c3.5-5.5,6.7-10.1,7.2-10.1c1.9,0-0.6,28.8-4.2,47
		c-5.7,29.6-8.7,41.9-10.7,44.1c-2.4,2.7-21,11.8-32.5,15.7c-20,7-44.2,11-71.9,11.9c-40.7,1.2-80.2-4.6-124.3-18.4
		c-8.1-2.6-14.4-5-14-5.4c0.5-0.4,5-2.6,10.1-5c7.1-3.2,9.5-4,10.1-3c1.1,1.7,4.3-2.8,6.7-9.4c3.5-9.9,2.1-34.8-3.1-52.3
		c-2.8-9.3-8.9-14.3-17.7-14.6c-5.3-0.1-4.9,0.4-7.1-9.4C333,523.3,333.6,523.4,346.1,527.5z"/>
	<path id="path88" fill="#8B0000" d="M241,634c0,9.5-8.4,15.9-14.7,11.5c-5.1-3.5-3.2-13.7,3.1-17.6C235.8,624,241,626.8,241,634z"
		/>
	<path id="path90" fill="#008000" d="M336.1,626c0.6,0,9.5,2.5,19.9,5.5c46.7,13.6,70.8,17.6,107.4,17.5c40.3,0,67.5-5.4,102.8-20.4
		c3.4-1.4,3.8-1.4,5.3,0.1c1.4,1.4,1.6,2.9,1,9.7c-1.1,13.9-7.5,37.9-11.7,43.9c-2.5,3.5-6.8,5.7-18.8,9.5
		c-24.9,7.9-49.2,11.6-77,11.6c-26.6,0-45-2.6-71.5-10c-21.7-6.1-50.9-18.7-52.4-22.6c-0.7-2-6.1-40.4-6.1-43.6
		C335,626.6,335.5,626,336.1,626z"/>
	<path id="path92" fill="#8B0000" d="M293,633.9c0,1.1-12.8,12.1-14.1,12.1c-2.4,0,0.9-7.9,4.6-10.8C286.2,633,293,632.1,293,633.9z
		"/>
	<path id="path94" fill="#8B0000" d="M249.1,676c2.8,1.6,2.4,6.7-1.1,12.2c-3.5,5.6-6.3,6.2-9.9,2.4c-3-3.2-2.3-8.2,1.8-12.5
		C242.9,674.9,245.7,674.3,249.1,676z"/>
	<path id="path96" fill="#008000" d="M344.8,679.5c16.7,6.6,37,14.1,45.6,16.9c47,15.4,98.7,15.5,151.9,0.5c6-1.7,11.5-2.8,12.3-2.5
		c3,1.1,0.6,14.6-4.3,24.4c-3.2,6.3-11.1,14.1-17.9,17.5c-10.6,5.4-40.6,12.6-61.3,14.8c-16.2,1.7-43.7,0.7-57.5-2.1
		c-22-4.3-52.8-16.7-65.8-26.5L343,719v-20.1C343,680.1,343.1,678.8,344.8,679.5z"/>
	<path id="path98" fill="#008000" d="M342.3,724c0.2,0,4.6,2.6,9.8,5.7c18.5,11.2,41,20,62.4,24.5c9.8,2.1,13.6,2.3,36,2.3
		c19.6-0.1,27-0.4,34.5-1.8c14.2-2.7,28-6.3,42.6-11.3c7.3-2.4,13.4-4.4,13.6-4.4c0.3,0,0.1,2.5-0.3,5.5c-1,7.8-17.1,40.4-22.7,46.2
		c-4.1,4.2-9.9,7.7-15.7,9.5c-1.6,0.5-15.6,1.6-31,2.4c-41.4,2.1-39.5,2.7-74.1-26.5c-21.7-18.2-30.7-22.5-47.1-22.2L342,754v-15
		C342,730.7,342.2,724,342.3,724z"/>
	<path id="path100" fill="#BDB76B" d="M546.1,752.8l4.4,4.7l4.4,4.7l6.3-0.6c9.6-1,9.4-1,18.9,3.5l8.8,4.3l-0.2,5.6
		c-0.1,6.1,1.3,9,6,12.1c3.7,2.5,8.4,2.4,11.7-0.2l2.6-2l7.5,6.8c4.1,3.7,7.5,7.1,7.5,7.5c0,3.3-38,3-63.5-0.5
		c-10.4-1.5-22.5-2.9-26.7-3.3c-4.3-0.4-7.8-1.1-7.8-1.5c0-0.5,4.5-10,10-21L546.1,752.8z M548,777.5c0,12.4,16.5,20,24,11
		c0.8-1,1.5-3.7,1.5-6.1c0-3.4-0.6-4.9-3-7.5c-1.6-1.7-4.4-3.8-6.2-4.5C555.8,766.8,548,770.2,548,777.5z"/>
	<path id="path102" fill="#8B0000" d="M570.3,782c0,7.3-8.4,9.5-14.7,4c-4.2-3.8-5.4-8.1-3.2-11.5
		C556.4,768.3,570.3,774.2,570.3,782z"/>
	<path id="path104" fill="#BDB76B" d="M352.3,757c6,0,19.1,4.9,26.7,9.9c6.6,4.4,39,32.8,39,34.2c0,0.4-1.2,1-2.6,1.3
		c-1.4,0.4-14.8,5-29.7,10.2c-32.5,11.4-47.9,15.8-63.5,18c-13.8,1.9-32.7,1.3-35.1-1.1c-1.7-1.7-2.3-0.9,21-32.1
		c16.2-21.7,28.1-34.3,36.4-38.4C346.7,757.9,350.2,757,352.3,757z M343,766.6c-4.7,2-8.7,6-10,10c-4.1,12.2,12.9,18,23.6,8.1
		c6.2-5.7,5.5-15.5-1.2-18.3C351.2,764.6,347.4,764.7,343,766.6z M379.5,785.4c-9.4,4.1-12.5,18-4.9,21.5c3.7,1.6,11.4,1.3,15.4-0.7
		c9-4.5,10.7-16.7,2.9-20.8C389.4,783.7,383.5,783.7,379.5,785.4z M322.9,801c-4.8,1.4-7.8,4.1-9.5,8.5c-1.5,4.1-1.5,4.6,0.2,8.2
		c2.5,5.1,7.7,6.9,14.7,5.2c12.6-3,15.7-16.9,4.7-21.3C328.6,799.9,326.9,799.8,322.9,801z"/>
	<path id="path106" fill="#8B0000" d="M356.1,771.8l4.1,3.8l-5.1,4.7c-4.8,4.5-5.3,4.7-10.9,4.7c-7.1,0-8.7-1.4-7.8-6.3
		c0.7-3.6,4.6-8,8.6-9.6C349.5,767.3,352,767.9,356.1,771.8z"/>
	<path id="path108" fill="#8B0000" d="M394,794.4c0,6.1-5.5,10.6-12.9,10.6c-4.9,0-8.6-3.8-7.6-8c0.7-2.9,5.1-7.8,8-9
		C387.5,785.5,394,788.8,394,794.4z"/>
	<path id="path110" fill="#8B0000" d="M333.1,805.1c1.1,0.5,2.4,2.1,2.9,3.5c3.1,8-12.1,15.4-18.5,8.9c-1.4-1.3-2.5-2.9-2.5-3.4
		c0-2.7,2.3-6.3,5.2-8.1C323.8,803.8,330,803.4,333.1,805.1z"/>
	<path id="path112" fill="#8B0000" d="M593.1,773c1.6,0,11.9,8.1,11.9,9.4c-0.1,2.9-1.5,3.3-6.2,1.9c-5.5-1.6-8.4-5-7.4-8.8
		C591.8,774.1,592.5,773,593.1,773z"/>
	<path d="M333.5,11.9c0.3,0.5,2,1.2,3.8,1.6c1.7,0.4,6.9,2.4,11.4,4.6c28.5,13.6,39.7,49.3,24.6,78.1c-4.1,7.9-15,18.8-23,23.1
		c-12.7,6.8-30.8,8.5-44.7,4.1c-1.8-0.6-1.9-0.1-1.3,11.7c0.4,9,1.1,14.2,2.7,18.9c3.4,10,3.2,9.9,8.2,2.8
		c6.8-9.4,9.2-11.3,14.1-11.3c3,0,5.7,1,9.5,3.3c2.9,1.7,5.6,3.2,6,3.2s2.6-2.3,4.7-5.2c6-7.9,16.3-18.5,22.6-23.4
		c8.4-6.5,21.9-14.4,24.5-14.4c5.5,0,13.4,11.3,13.4,19.2c0,4.6-1.9,6.7-9.2,10.4c-7.7,3.9-17.8,10.7-21.7,14.8
		c-1.9,2-3.2,3.6-2.9,3.6c0.3,0,6.1-2.7,12.9-5.9c21.6-10.3,35.1-13.5,54.1-12.9c10.6,0.3,11.1,0.4,13.4,3.1c2,2.4,2.4,3.9,2.4,9.4
		c0,8.1-1.5,13.5-4.7,16.5c-2.4,2.2-3.1,2.3-14.9,2c-6.8-0.2-12.4-0.1-12.4,0.2s2.9,1.4,6.5,2.5c9.1,2.9,12.4,4.7,14.7,8.7
		c2.3,3.9,2,3.8,15.3,1.9c5.5-0.8,13-1.5,16.6-1.5c9,0,10.7,1.8,11.1,12l0.3,7.5l19.8,0.5l19.9,0.5l2.5,3c2.6,2.9,2.6,3,1.9,16.2
		c-0.8,15.2-1.5,13.7,9.9,21.8l6.8,4.9l2-3c7-10.1,22.3-21.8,36.6-27.8c9.4-4.1,27.4-9.4,34.6-10.2c4.5-0.6,5.4-0.3,8.3,2.1
		c6.8,5.7,15.7,29,17.7,46.2l0.7,6.2l-13.9,0.3l-13.8,0.3l10.5,3.3c15,4.7,16.7,5.5,17.2,8.9c0.9,6.7-2.5,32-4.7,34.1
		c-0.3,0.3-5.5-1.9-11.7-4.8c-19.3-9-38.8-14.6-48.6-13.8l-3.9,0.3l3.8,10.1c7.8,20.6,11.3,47.9,9,70.3c-1.1,10.2-3.6,24.9-4.5,25.8
		c-0.2,0.2-1.5-0.1-2.9-0.6c-2.4-1-3.3-0.2-15.8,13.2c-7.2,7.8-14.6,15.3-16.3,16.6c-4.2,3.3-12.6,11.4-12.6,12.2
		c0,0.7,14.6,6.3,19.4,7.5c2.5,0.6,3.4,0,9.2-6c5.7-6,7.6-9.2,18.3-30.9c16.8-34.1,29.6-53.7,49.4-75.9
		c16.1-17.9,25.9-22.8,45.4-22.8c10.6,0,20.3,2.5,32.1,8.1c7.7,3.7,10.8,5.8,12.2,8.2c4.2,6.8,0.8,9.1-18,12.3
		c-17.6,2.9-21.7,5-25.3,12.6c-1.4,2.9-4.8,12.5-7.7,21.3c-11.8,36.6-14.9,52.1-17.4,88.2c-1.3,17.6-2,22.5-4.1,29
		c-5.5,16.3-13.4,25.1-40.4,44.8c-8.9,6.5-16.6,12.6-17,13.4c-0.5,0.9-1.4,6.8-2,13.1c-2.6,25.7-9.7,52.4-15.7,59
		c-2,2.2-4.4,4.2-5.5,4.5c-1.9,0.6-1.9,0.7,0.1,3.2c4.8,6.1,4.6,10.5-0.9,31.5c-4.5,16.8-6.6,22.2-11,28.4
		c-3.7,5.1-3.9,5.9-3.4,10.7c1,9.7-4,24.2-11.6,33.2c-4.2,5.1-4.8,7.6-3.5,14.3c0.6,2.9,1.3,3.3,12.8,7.2
		c21.4,7.3,31.2,12.2,45.1,22.6c9.8,7.2,23.7,19.9,25.3,23c1.2,2.4,1.2,2.9-0.6,4.6c-1.5,1.6-4.7,2.2-15.8,3.5
		c-16.9,1.8-31.6,1.3-60.9-2.2c-27.9-3.3-30.5-3.2-42.8,0.9c-16.3,5.5-20,6-45.7,6.1c-21.3,0-24.3-0.2-31.7-2.2
		c-9.6-2.7-4.7-3.9-48,11.5c-17.1,6.1-35.4,12.2-40.5,13.6c-33.8,9.1-68,6.1-64.3-5.5c0.8-2.5,17.5-27,26.6-39
		c7.8-10.3,15.2-18.2,22.7-24.5l6.4-5.2l-0.2-31.3c-0.1-32.8-1-49.7-3.6-68.9c-1.8-13.2-6.1-32.7-7.5-33.5
		c-1.3-0.9-19.5,9.6-29.1,16.7c-17.9,13.3-31.2,29.5-45.6,56.1c-16.2,29.8-21.4,37.7-27.1,41l-3,1.8l-2.5-4.9
		c-2.2-4.4-3-8.2-6.1-31.5c-1.2-8.4-0.5-38.8,1-49c6-40.4,20.7-65.4,68.9-116.7c15-16.1,14.5-14.4,5.4-16.4c-1.6-0.4-2.8-1-2.8-1.4
		s1.9-3.3,4.3-6.5c5.8-7.7,8-14.3,8-23.1c-0.1-6.4-4.1-22.6-12.9-51.8c-0.4-1.5-1-1.5-6.6-0.2c-13.1,3.1-17.4,2-20.5-5.4l-1.4-3.4
		l-5.9,0.7c-12.9,1.5-16.2-2.4-18.2-21.5c-0.9-8.1-1.5-11-2.5-11c-2.8,0-7.1-3-8.1-5.7c-3-8.1-1.8-37.8,2.2-53.3
		c1.4-5.2,2.3-9.6,2.1-9.8c-0.2-0.2-1.5,1.9-2.9,4.6c-3.6,7-7.1,20-8.5,30.7c-1.5,11.7-3.2,13.5-12.7,13.5c-7.3,0-12.7-1.8-14.3-4.8
		c-1.5-2.8-1.3-14.4,0.3-22.2c2.8-13,9.2-28.4,16.8-40.4c2.8-4.3,3-5,1.8-7c-6.8-10.5-8-13.2-8-17.3c0-3.5,0.6-5,3.5-8.2
		c2.6-2.9,17.5-13.9,22.2-16.5c0-0.1-0.8-3.7-1.9-8c-2.2-8.8-1.8-11.9,1.5-14c2-1.3,31-9,36.6-9.8c2.2-0.3,2.1-0.7-3.9-8.8
		c-8-10.8-21.4-24.6-30.7-31.6c-3.9-3-7.3-5.4-7.6-5.4c-0.2,0-3.5,2-7.3,4.5c-4,2.7-10.4,5.7-15.2,7.2c-7.4,2.3-9.4,2.5-19.5,2
		c-13-0.6-20.4-2.7-29.8-8.8c-16.7-10.8-27.9-30.8-27.9-49.8c0-4.7,0.5-10.1,1.2-12c7-21.9,15.8-33.1,32.8-41.6
		c8.5-4.2,15.7-5.9,25.5-5.9s16.9,1.6,26,6c12,5.7,22,15.5,28.1,27.6c7.9,15.5,7.1,39.6-1.7,54.7c-1.1,1.8-1.9,3.4-1.7,3.5
		c16.9,10.9,31.4,25.5,43.9,44.6c10.6,16.3,11.6,17.3,18.7,19.4c2.2,0.7,2.2,0.6,2.2-7.2c0-10.1,2.2-22.6,6-34.6
		c1.7-5.1,3-10.1,3-11s-1.3-4.2-2.9-7.4c-7.3-14.4-10.7-32.1-9.6-50l0.6-11.2l-5.6-6.3c-10.1-11.1-15.2-22.5-16.2-36.3
		c-1.8-25.7,13.2-48,38.4-57c4.3-1.5,8.2-3.1,8.8-3.6C314.7,10.7,332.7,10.8,333.5,11.9z M309.7,18.5C287.6,24.6,272,45,272,67.8
		c0,24.8,15.4,44.5,39.5,50.7c26.8,6.8,55.5-11.1,62-38.7c6-25.7-9.8-52.9-35.3-60.8C330.7,16.7,317.2,16.4,309.7,18.5z M162.3,87.5
		c-19.5,5.3-35.7,22.6-39.2,41.9c-3.2,17.4,2.3,34.9,14.9,47.7c11.3,11.5,24.4,16.5,41,15.6c15.6-0.8,28.7-7.4,38.2-19.1
		c8.8-10.9,12.2-20.5,12.1-34.6c0-7.5-0.5-11-2.5-16.6c-6.1-17.4-20-30.3-37.3-34.9C182.2,85.6,169.3,85.7,162.3,87.5z M379.3,123.5
		c-11.3,8.1-21.1,18.9-32.6,36.1c-5.9,8.7-10.7,15.2-10.7,14.5s1.4-4.4,3-8.2c2.4-5.4,2.8-7.3,2-8.8c-1.7-3.2-5.2-5.1-9.5-5.1
		c-4.5,0-7.5,2.5-13.2,11c-14.4,21.4-23.3,48.6-23.3,71.1v8.5l-7.1-2.3c-11.1-3.6-19.1-4.6-31.3-4c-15.8,0.7-31.5,5.6-33.3,10.3
		c-0.7,1.8,1.3,9.2,3.1,11.6c1.2,1.7,1.9,1.6,11.2-1.7c10.7-3.7,19.9-5.5,28.2-5.5c7.2,0,6.5,1.6-1,2.4
		c-20.7,2.1-41.5,11.3-56.3,24.7c-8.7,8-9.2,11.4-2.7,19.5c3.3,4.1,4.6,4.2,6.9,0.7c2.9-4.4,15.9-14.8,22.5-18.1
		c5.8-2.8,13.8-5.5,13.8-4.7c0,0.2-4.6,3.4-10.2,7c-25,16.4-35.1,31.7-45.7,69.4c-5.3,18.6-4.9,20.2,5.7,21.4c6,0.7,6.9-1.1,1.4-2.7
		c-4.6-1.3-3.9-2.8,1-2.4l4.2,0.3l2.8-10c3.5-12,9.2-26.5,12.6-32c4.2-6.8,12.5-14.5,15.6-14.5c0.3,0-0.6,2.6-2,5.7
		c-4.3,9.5-9.2,25.3-10.3,33.6c-1.6,11.6-1.4,33,0.3,37.2c2,4.8,5.6,6.8,10.5,6c5.9-1,6.4-2,5.6-12.7c-0.7-9.8,0.8-27.5,4.4-50.3
		c1.9-11.8,6-23.5,8.3-23.5c0.6,0,0.7,0.8,0.3,1.7c-4,10.5-5,17.2-5,33.3c0,13.5,0.4,18.5,2.4,27.5c1.2,6,3,11.8,3.9,12.7
		c2.2,2.6,9.1,2.4,13.2-0.5c5.1-3.4,5-4.7-0.4-4.7c-5.6,0-5.9-1.3-0.7-2.9l3.9-1.1l-1.4-5.3c-2.5-8.9-2.9-23.1-1-34.7
		c1.8-10.3,9.3-35.7,10.3-34.7c0.3,0.3-0.3,4.8-1.2,9.9c-3.5,18-2,41.8,3.1,49.5c2.6,4.1,12,2.7,16.7-2.5c1.8-2,1.8-2.3-0.8-12.5
		c-1.9-7.7-2.6-12.8-2.4-18.9c0.1-6.9-0.6-11-4.1-24.3c-3.6-13.8-4.1-17-3.7-23.1c0.4-5.9,2.7-13.4,4.1-13.4c0.2,0,0.3,5.5,0.3,12.2
		c0,14.9,1.8,23.1,7.5,34.6c5.6,11.4,9.3,13.5,16.2,9.2c3-1.8,8.3-9.6,7.3-10.6c-0.3-0.3-2.8,0.6-5.7,2.1c-7.2,3.7-8.6,2.6-1.7-1.4
		c3.1-1.8,5.7-3.4,5.7-3.6c0-0.3-1.4-2.6-3-5.2c-6-9.4-8.8-23.2-7.5-36.7l0.7-7.6h5.4c10.5,0,20.7,5.1,35,17.6l7.5,6.6l4-4.6
		c5.7-6.5,7.9-6,3.4,0.6c-1.9,2.9-3.5,5.6-3.5,6c0,2.5,8.9-1.4,11.7-5.1c2.3-3,1.5-7.2-2-10.5c-8.1-7.6-31.7-23-38.2-24.8
		c-7.3-2.1-6-2.8,5.1-2.8c15.8,0,25.5,3.3,39,13.3c12.4,9.1,15,9.4,19.9,1.8c4.2-6.3,3.4-8.6-6-15.4c-18-13-33.6-18.2-52.5-17.5
		c-6.1,0.2-11,0-11-0.4c0-1.4,11.4-8.8,16.4-10.7c11.7-4.4,20.6-3.7,51.4,4.1c13.2,3.3,16.8,3.9,18.7,3c2.9-1.3,6.5-8,6.5-11.9
		l-0.1-2.8l-4,4.4c-5,5.5-6.3,4.6-2-1.5c1.8-2.5,3.2-4.7,3-4.8c-0.2-0.2-4-1.5-8.4-3c-10.2-3.3-24.7-6.3-35-7.1
		c-15.9-1.4-36.8,3.1-51.2,11c-7.9,4.3-7.2,2.3,1-3.2c12.5-8.3,23.5-12.2,37.2-13c10.5-0.6,22.2,1.2,52.8,8.2
		c10.9,2.5,20.3,4.5,20.8,4.5c1.1,0,6.6-11.2,7.1-14.5c0.8-5.3-20.6-11.1-45.7-12.2c-13.4-0.6-13.9-0.7-10.5-2.1
		c1.9-0.8,8.2-1.8,14-2.2c5.8-0.5,15-1.8,20.5-3c7.9-1.8,11.9-2.1,19.1-1.6c6.4,0.4,9.6,0.2,10.7-0.7c3.5-2.7,4.7-10.6,2.4-16.1
		l-1.3-2.9l-1.3,4.1c-0.8,2.3-1.8,4.2-2.3,4.2c-1,0-1-0.5,0.1-5.3l0.9-3.7h-6.2c-23.1,0-51.1,9.8-73.8,25.6c-4.3,3-7.8,5.2-7.8,4.9
		c0-0.4,1.7-4.1,3.7-8.3c4.9-10.1,17.2-22.6,29-29.5c4.6-2.7,8.9-5.8,9.8-6.9c2.4-3.5,0-10.8-4.2-12.7
		C394.5,113.9,391.1,115.2,379.3,123.5z M292.4,117c-0.3,0-0.4,7.1-0.1,15.7c0.4,12.3,1,17.4,2.7,23.2c2.7,9.1,7.6,20.6,8.7,20.6
		c0.4,0,1.3-1.5,1.9-3.4c0.9-2.9,0.6-4.8-2.2-13.7c-4-12.7-5.9-24.6-5.1-33c0.6-6.3,0.6-6.4-2.3-7.9
		C294.4,117.7,292.8,117,292.4,117z M223.2,177c-1.6,0-4.6,4-3.6,4.8c0.5,0.5,4.1,3.2,8,6c9.5,6.9,22.4,20.5,31.3,33
		c7,9.8,9.6,11.9,13.4,11c1.1-0.2-0.2-2.9-4.9-9.8c-12.8-19.1-25.5-32.8-38.7-41.8C226.2,178.4,223.7,177,223.2,177z M477.3,186.8
		c-1.2-0.6-25.4,2.3-27.9,3.2c-1.2,0.5-3.5,3.3-5.2,6.3c-3.9,6.9-7.2,8.4-13.9,6.1c-2.4-0.9-4.7-1.3-4.9-1.1c-0.3,0.2,0,1.6,0.6,3.1
		c0.9,2.5,1.4,2.7,4.8,2.2c2-0.3,14.6-1.3,27.9-2.2c13.3-1,24.7-2,25.3-2.4c0.6-0.4,1.4-3.1,1.7-6.1c0.4-4.5,0.2-5.8-1.5-7.9l-2-2.5
		l-1.1,2.8c-0.6,1.6-1.1,3.5-1.1,4.3s-0.4,1.4-1,1.4c-0.5,0-1-1.5-1-3.4S477.7,187,477.3,186.8z M473.5,209.5
		c-8.8,0.7-22.9,1.6-31.4,2.1c-14,0.6-15.7,0.9-17.3,2.8c-7.7,9.1-8.4,9.6-13.2,9.6c-2.6,0-10.2-1.6-16.8-3.5
		c-21-6.1-32.2-8-40.3-6.8c-3.8,0.6-8.3,1.7-10,2.4l-3,1.3l4.5,0.3c17.7,1.1,36.3,8,50.7,18.9c8.9,6.8,10.2,9.7,7.3,16.2
		c-2.6,5.8-4.5,7.9-9.4,10.4c-5.3,2.7-9,1.8-17.2-4.3c-6.1-4.5-22.4-13.6-22.4-12.5c0,0.2,4.9,4.6,11,9.6c12.8,10.7,15,13.2,15,17.3
		c0,6.5-9.1,15.4-16.9,16.4c-3.5,0.5-4.3,0-11.7-6.4c-4.3-3.8-10.3-8.8-13.2-11.1c-5.5-4.3-17.6-10.7-22.6-11.8l-2.9-0.7l0.6,11.4
		c0.5,12.8,2.4,19.3,8.1,28.8c5.1,8.4,5.6,10.1,4.1,14.5c-1.7,4.9-4.9,8.2-10.7,11.2c-6.1,3.1-9.9,3.1-13.6-0.1
		c-1.7-1.4-3.3-2.5-3.7-2.5c-1.3,0,0.6,13,3.1,21.3c1.3,4.4,2.4,8.9,2.4,10c0,3.3-7.4,9.5-13.5,11.3c-6.1,1.7-10.4,1.2-12.9-1.5
		c-0.9-1-2.5-4.9-3.6-8.6s-2.2-7-2.5-7.3c-1.6-1.6-1,1.8,2.5,14.8c2.2,8,4,15.3,4,16.3c0,1.1-1.6,3.5-3.5,5.4l-3.5,3.5l13.4,37.2
		c7.3,20.4,13.7,38.1,14.1,39.4c1,3.4,2.5,1.6,2.5-3.1c0-11.7,6.1-39.5,12.4-57c13-35.8,36-73.2,67.9-110.3
		c11.3-13.1,32-33.3,43.7-42.7c19.2-15.5,46.5-31.8,66.5-39.7c4.4-1.7,8.2-3.4,8.4-3.6C500.6,207.8,490.7,208.2,473.5,209.5z
		 M506.3,211.9c-14.4,3.7-16.7,4.6-14.2,5.6c24.9,9.1,35.3,12.4,35.9,11.4c1.3-2.1,2.1-16.9,1-18.9
		C527.5,207.1,523,207.5,506.3,211.9z M612.4,216.5c-22.9,6-42.5,16.6-52.8,28.7c-4.2,4.9-5.4,2,9.9,23.7
		c11.3,15.9,10.1,15.2,26.5,17.1c16.1,1.8,26.1,4,37.3,8.2c5.9,2.2,11,3.8,11.3,3.6c0.2-0.3,0.9-5.5,1.6-11.7
		c1-9.9,0.9-11.3-0.5-12.9c-0.9-1-8.8-4-17.7-6.7c-8.8-2.7-15.7-5.2-15.3-5.6c1.9-1.9,13.5-3.9,22.3-3.9c5.3,0,9.9-0.2,10.2-0.5
		c0.7-0.8-2.2-14.7-3.4-16.3c-0.7-0.8-4.5-1.2-12.2-1.3c-12.3,0-11.9-0.7,2.1-3.4l9.3-1.7l-4.2-8.2c-2.4-4.4-5.1-8.9-6-9.8
		C628.4,213.4,623.6,213.6,612.4,216.5z M475.5,225.2c-1.1,0.6-3,1.7-4.2,2.4l-2.1,1.3l3.4,8.8c7,17.6,8.4,30.8,4,36
		c-2.3,2.6-3,2.8-9.4,2.7c-6.7,0-7.9-0.5-23.1-7.8c-11.4-5.6-16.7-7.7-18.3-7.3c-1.3,0.4-9.7,8.1-18.8,17.1l-16.4,16.5l1.2,5.3
		c0.6,2.9,1.7,7.1,2.3,9.4c3,10.2-3.9,14.4-19.1,11.4c-2.5-0.4-5.2-0.4-6.1,0c-1.5,0.9-14.4,18.2-16.8,22.8c-1.1,2-0.8,3.6,2.5,11.5
		c9.8,24.4,9.8,30.5-0.1,34.3c-3.8,1.4-6.5,1.6-16.1,1L327,390l2.6,5.2c1.5,2.9,2.8,5.5,3,5.7c0.3,0.3,1.9-0.9,3.7-2.7
		c6.3-6,10.6-6.3,20.9-1.1c3.2,1.6,6.1,2.9,6.6,2.9c0.9,0,14.2-34.6,14.2-36.8c0-0.7-1.4-1.2-3.2-1.2c-1.8,0-2.8-0.4-2.2-0.8
		c1.1-1.1,18.7-4.2,23.2-4.2c6.6,0,9.7-5.4,16.7-29.5c3.7-12.7,3.5-12.5,5-9c2.4,5.5,3.6,18.4,2.7,28.3c-0.8,8.9-0.7,9.3,1.3,9.7
		c1.1,0.2,14.1,1.6,28.9,2.9c21.3,2,27.3,2.3,28.5,1.3c2.7-2.2,13.9-31,18-46.2c5.2-19,5.3-19.2,6.3-16.5c0.6,1.4,1.8,6.5,2.9,11.5
		c3.1,14.8,2.5,33.4-1.7,54.2c-0.5,2.7-0.3,3.3,1.1,3.3c0.9,0,7.1,1.2,13.7,2.7c11.7,2.6,12,2.6,13.8,0.7c1-1,5.8-14.2,10.8-29.2
		c4.9-15,9.2-26.7,9.5-25.9c0.3,0.8,1.1,5.2,1.8,9.8c1.4,9.9,0.8,26.2-1.7,40.7c-1,6.1-1.4,10.6-0.8,11.1c0.5,0.5,8.3,3.2,17.3,6
		c12.5,3.9,16.6,4.9,17.2,3.9c1.5-2.4,2.4-14.4,2.4-31.3c-0.1-25.1-3.9-42.1-13.7-62c-6.5-13-12.5-21.4-23.7-32.6
		c-15.7-15.8-31.4-25.4-54-33C486.3,224,479.3,223.1,475.5,225.2z M462.2,233c-1,0-29.6,20.9-29.9,21.8c-0.3,1,24.4,14.9,30.6,17.2
		c6.4,2.5,8.3,2.5,10.4,0.2c3.6-4,1.3-16-5.8-30.2C465,237.1,462.6,233,462.2,233z M386.1,300.7c-0.4-0.4-3.8,2.9-7.5,7.3
		c-3.7,4.5-6.5,8.4-6.2,8.8c0.4,0.3,4.3,0.8,8.9,1c11,0.6,11.7-0.2,8.2-9.4C388.1,304.6,386.6,301.2,386.1,300.7z M501.1,316.2
		c-0.5,1.8-2.6,7.8-4.6,13.3s-5.6,15.7-8.1,22.7s-5.5,13.4-6.5,14.4c-1.9,1.7-2.6,1.7-14.2,0.1c-6.7-0.9-21.2-2.4-32.2-3.4
		c-11-0.9-20.3-1.9-20.7-2.2c-0.4-0.3-0.1-6.7,0.7-14.1c0.7-7.4,1.2-13.7,1-13.9c-0.6-0.5-3.3,6.3-6.6,16.7
		c-3.7,11.2-5.4,12.7-12.8,11.7c-5.3-0.7-9.1,0.6-12.4,4.2c-1.3,1.5-13.6,28.9-18.7,42c-0.8,2-1.2,1.8-6.2-3.2
		c-6.5-6.5-11.2-7.9-16.7-4.9c-8.2,4.4-10.7,17-5.3,27.4c4.3,8.6,9.4,10.9,19,8.8l3.2-0.8l7.6,15.3c4.2,8.3,7.8,15.4,8,15.6
		s1.5-0.4,3-1.4c4-2.6,8.2-3.5,11-2.5c2.9,1.2,6.6,8.6,8.5,17.2c0.7,3.6,1.8,5.9,2.8,6.2c4.7,1.5,58,9.5,66.2,10.1
		c10.9,0.7,10.4,1,15.9-9c4.8-8.8,10.8-16.5,13.6-17.5c6.2-2.4,11.9,3.7,18,19.2c2.5,6.2,2.8,6.6,4.8,5.6c4-2.1,18.1-17.3,21-22.7
		c3.4-6.3,3.8-11.5,1.6-20.9c-2.1-9.3-0.5-16.8,6.9-31.6c3.3-6.7,8-16.5,10.5-21.8l4.4-9.8l-6.6-1.9c-3.7-1.1-8-2.3-9.5-2.7
		c-2.5-0.6-2.8-1-2.3-3.3c4.4-20.6,6.5-32.2,7.1-40.1c0.4-5.2,0.4-9.2,0.1-8.9c-0.4,0.4-4.2,11.3-8.6,24.4
		c-4.3,13-8.1,23.9-8.4,24.2c-0.5,0.6-36.1-6.8-37.8-7.8c-0.7-0.5-0.4-3.2,1.1-8.6c3-11.2,5.1-27.1,5.1-39.1
		C504,312.9,502.9,310.2,501.1,316.2z M661.1,320.9c-18.1,11.7-47.8,53.9-63.6,90.5c-7.2,16.7-8.1,20.2-6.2,24.9
		c0.9,1.9,1.9,6.1,2.2,9.1c0.9,6.8,3.1,9,11,10.6c3,0.6,6.9,2.1,8.7,3.4c5.1,3.4,4.5,6.7-5.5,31.8l-8.7,21.7v10
		c0,10.2,0.5,13.1,2.2,13.1c0.5,0,5.8-3.3,11.6-7.2c14.3-9.7,30.6-25.9,35.2-34.9l3.4-6.6l-3.2-4.8c-2.2-3.4-3.2-6-3.2-8.7
		c0-4.8,1.2-7.2,5.8-12c3.4-3.6,3.6-4.3,5.8-18.5c1.3-8.2,2.9-19.8,3.5-25.9l1.3-11.2l-2.7-3.2c-3.3-3.8-4.1-6.9-3.3-11.8
		c0.7-4.9,3.4-8.2,8.6-11c5.7-3,6.2-3.8,10.5-16.5c6-17.5,12.2-25.2,23.2-29.1c2.3-0.8,9.4-2,15.7-2.5c11.6-1.1,14.6-1.7,14.6-3
		c0-3-16.1-10.7-28.5-13.6C686.1,312.3,671.4,314.4,661.1,320.9z M348.3,355.2l-2.1-3.3l-8.7,15.6c-4.8,8.6-8.5,15.8-8.3,16.1
		c0.3,0.2,5.6,0.8,11.9,1.3c15,1.1,16.5,0.5,16.3-6.7c-0.1-3.7-1.2-7.3-3.6-12.4C351.9,361.8,349.4,357,348.3,355.2z M245.6,368.3
		c-1.3-1.3-1.3,2.5-0.1,11.3c0.8,5.4,1.5,10.9,1.5,12.1c0,3.3-3.2,6.1-8.5,7.4l-4.5,1.1l0.6,4.2c2.4,17.1,3.6,21.2,6.5,22.1
		c2.7,0.9,9.7-1.3,10.3-3.3c0.3-0.9-0.8-13.6-2.4-28.1C247.4,380.6,245.9,368.5,245.6,368.3z M666.1,383c-5.1,0-9.2,11.9-5.8,16.5
		c0.9,1.1,1.9,1.7,2.3,1.3c0.4-0.4,1.7-4.6,3-9.3C667.7,383.6,667.7,383,666.1,383z M570.9,389c-0.8,0-17.1,31.1-16.6,31.7
		c1,0.9,14.4-13.7,18.8-20.5c2.7-4.2,4.9-8,4.9-8.4c0-0.3-1.4-1.1-3.1-1.7C573.1,389.5,571.4,389,570.9,389z M255.4,390.6
		c-0.7,0.3-1,2-0.8,4.2c2.4,24,5.2,37.8,8.1,39.9c2.4,1.8,5,1.6,10-0.8c2.6-1.2,4.5-3,4.8-4.2c0.7-2.7-12.8-36.6-15.2-38.5
		C260.6,390,257.5,389.7,255.4,390.6z M323,398c-2,0-12.4,31.9-15.4,47.5c-2,10.6-3.7,23.7-3.2,24.3c0.3,0.2,5.8-2.3,12.3-5.6
		c12.3-6.3,21.6-9.7,34.8-12.8c4.2-1,7.9-2.3,8.2-3c0.2-0.6,0-2.6-0.4-4.5l-0.9-3.3H351c-9.8-0.1-13.8-2.5-17.7-10.4
		c-2.1-4.3-2.9-7.6-3.3-14.2c-0.4-6.9-1-9.4-3.3-13.3C325.2,400.1,323.5,398,323,398z M576.8,440.1c-3.2,3.3-5.8,6.4-5.8,6.8
		c0,0.5,3.7,1.6,8.3,2.6c4.5,1,8.8,2,9.6,2.3c1.1,0.4,1.2-0.7,0.6-6.3c-0.4-3.8-1.1-7.9-1.6-9.2
		C586.4,432.3,583.1,433.4,576.8,440.1z M546.3,448.2c0.3,1.8,1.1,6.7,1.8,10.9l1.1,7.6l6.2,3l6.1,3l3.2-2.4
		c4.5-3.5,7.1-2.6,13.4,4.7c2.9,3.3,5.6,6,6.1,6s4.2-1.5,8.3-3.4c7.3-3.4,16.5-10.7,16.5-13.2c0-0.7-1.5-1.7-3.2-2.2
		c-8-2.3-43-12.6-50.1-14.8C545.7,444.3,545.7,444.3,546.3,448.2z M358.1,454.1c-3.7,0.1-19.7,4.3-26.1,6.9c-6.3,2.5-15,7.2-15,8.1
		c0,0.3,5.1,1.4,11.3,2.3c6.1,0.9,17.4,2.7,25.1,3.9l13.8,2.1l1.9-2.3c1-1.3,1.9-3.5,1.9-4.9c0-2.5-6-12.6-8.8-15
		C361.3,454.6,359.5,454,358.1,454.1z M378.5,471.1c-3.1,3.9-5.5,7.2-5.3,7.3c0.7,0.6,20,4.8,20.4,4.4c0.5-0.5-3.3-14.4-4.7-16.9
		C387.1,462.5,384.4,463.8,378.5,471.1z M653.7,464.4c-0.2-0.3-1.6,0.9-3.1,2.6c-2.9,3.5-3.4,8.4-1.2,11.2c2.4,3.2,3.4,1.9,4.1-5.8
		C653.9,468.3,654,464.6,653.7,464.4z M552.8,471.7l-3.8-1.6l-3.3,4.2c-1.9,2.3-6,7.5-9.2,11.6l-5.8,7.4l4.9-0.8
		c2.7-0.4,7.6-1.1,11-1.4c7.6-0.8,11-3,12.3-7.8c1.5-5.3,1.4-6.8-0.6-8.5C557.3,473.9,554.8,472.5,552.8,471.7z M567.8,470
		c-0.5,0-1.3,1.1-1.8,2.5c-1.3,3.5-4.2,14.7-3.8,15c0.6,0.6,16.8-4,16.8-4.8c0-0.5-2.3-3.5-5.1-6.8C571,472.7,568.3,470,567.8,470z
		 M494.4,474.7c-3.5,5.3-11.1,20.2-10.6,20.8c1,1,28.2,0.5,28.2-0.5c0-1.6-6.1-16.3-8.2-19.8C501.2,471,497.1,470.8,494.4,474.7z
		 M311.6,473.4c-11.4-0.7-11.9-0.6-11.2,1.2c2.3,5.9,3.8,15.6,3.4,22c-0.5,7.7-3.1,13.6-8.2,18.3c-1.4,1.4-2.6,2.8-2.6,3.3
		s6.5,0.6,14.8,0.2c16.5-0.7,25.9,0.3,38.7,4.3c11.5,3.5,31.7,13.7,48.5,24.4c39.2,24.9,59,34.8,90.9,45.6
		c25.2,8.5,32.2,8.4,44.4-0.8c12.3-9.3,35.3-36.8,49.2-58.9c10.4-16.6,28.5-53.5,28.5-58.1c0-0.5-2.8,0.9-6.2,3.2
		c-12.7,8.6-31.7,14.8-60.3,19.4c-19.6,3.2-34.6,4.5-53,4.5c-30.3,0-46.7-2.3-99-14c-19.3-4.3-42-9.2-50.5-10.9
		C330.5,475.5,318.1,473.8,311.6,473.4z M318.7,523c-10.8,0-14.7,2.3-31.5,19c-21.9,21.7-39.9,44.2-54.1,67.7
		c-4.5,7.4-8.1,13.8-8.1,14.3c0,1.3,1,1.3,6.3-0.2c5.8-1.5,9.3-0.4,11.7,3.5c4.3,7,0.9,17.2-7,21.4c-5.1,2.7-7.8,2.4-12.7-1.3
		l-3.2-2.5l-0.6,2.3c-2.9,13.2-4.2,44.4-2.6,61.3c1.4,14.6,3.2,26.5,4,26.5c1.6-0.1,9.8-12.8,15.6-24.4c3.6-7.1,6.5-13.3,6.5-13.7
		c0-0.5-0.9-0.9-2.1-0.9c-3.3,0-7.9-5.3-7.9-9.2c0-10.5,12.2-18.7,18.8-12.6l2.4,2.3l2.1-3c1.2-1.6,4.9-6.3,8.2-10.3
		c10.3-12.6,10.5-13,10.5-18.7c0-6.1,2.7-10.8,7.8-13.8c3.1-1.8,3.8-1.9,8.7-0.7l5.4,1.3l8.8-5.1c4.8-2.7,17.8-9.3,28.7-14.6
		c11-5.2,20.9-10.5,22-11.6c2-1.9,2.1-3.2,2-17.8c0-14.4-0.2-16.4-2.8-24.2c-4.1-12.4-9.7-17-20.8-17c-3.9,0-3.7,0.4-5.3-9.5
		c-0.4-2.2-1.3-5-2.1-6.3C326.1,523.3,325.1,523,318.7,523z M333.7,526.2c2.2,9.8,1.8,9.3,7.1,9.4c8.8,0.3,14.9,5.3,17.7,14.6
		c5.2,17.5,6.6,42.4,3.1,52.3c-2.4,6.6-5.6,11.1-6.7,9.4c-0.6-1-3-0.2-10.1,3c-5.1,2.4-9.6,4.6-10.1,5c-0.4,0.4,5.9,2.8,14,5.4
		c44.1,13.8,83.6,19.6,124.3,18.4c27.7-0.9,51.9-4.9,71.9-11.9c11.5-3.9,30.1-13,32.5-15.7c2-2.2,5-14.5,10.7-44.1
		c3.6-18.2,6.1-47,4.2-47c-0.5,0-3.7,4.6-7.2,10.1c-10.4,16.5-26.6,37.3-37.4,48.3c-21.9,22.1-33,24.9-61.2,15.3
		c-27.5-9.4-49.3-19.9-82.6-39.9c-38.6-23.2-46.5-27.5-57.8-31.3C333.6,523.4,333,523.3,333.7,526.2z M223.4,640.6
		c0.7,3.5,3.8,6.4,6.9,6.4c3.1,0,7.6-2.9,9.2-6c2.2-4.2,1.9-10.6-0.5-13C233.2,622.2,221.7,631.4,223.4,640.6z M336.1,626
		c-0.6,0-1.1,0.6-1.1,1.2c0,3.2,5.4,41.6,6.1,43.6c1.5,3.9,30.7,16.5,52.4,22.6c26.5,7.4,44.9,10,71.5,10c27.8,0,52.1-3.7,77-11.6
		c17.3-5.5,19-7,23.3-20.3c6.3-19.1,9.3-39.8,6.2-42.8c-1.5-1.5-1.9-1.5-5.3-0.1c-35.3,15-62.5,20.4-102.8,20.4
		c-36.6,0.1-60.7-3.9-107.4-17.5C345.6,628.5,336.7,626,336.1,626z M283.5,635.2c-3.7,2.9-7,10.8-4.6,10.8c1.3,0,14.1-11,14.1-12.1
		C293,632.1,286.2,633,283.5,635.2z M239.9,678.1c-4.1,4.3-4.8,9.3-1.8,12.5c3.6,3.8,6.4,3.2,9.9-2.4c3.5-5.5,3.9-10.6,1.1-12.2
		C245.7,674.3,242.9,674.9,239.9,678.1z M344.8,679.5c-1.7-0.7-1.8,0.6-1.8,19.4V719l4.8,3.5c13,9.8,43.8,22.2,65.8,26.5
		c13.8,2.8,41.3,3.8,57.5,2.1c20.7-2.2,50.7-9.4,61.3-14.8c6.8-3.4,14.7-11.2,17.9-17.5c4.9-9.8,7.3-23.3,4.3-24.4
		c-0.8-0.3-6.3,0.8-12.3,2.5c-53.2,15-104.9,14.9-151.9-0.5c-6-2-18.3-6.4-27.4-9.9C353.9,683,345.7,679.9,344.8,679.5z M342.3,724
		c-0.1,0-0.3,6.7-0.3,15v15l8.3-0.1c16.4-0.3,25.4,4,47.1,22.2c34.6,29.2,32.7,28.6,74.1,26.5c15.4-0.8,29.4-1.9,31-2.4
		c5.8-1.8,11.6-5.3,15.7-9.5c5.6-5.8,21.7-38.4,22.7-46.2c0.4-3,0.6-5.5,0.3-5.5c-0.2,0-6.3,2-13.6,4.4c-14.6,5-28.4,8.6-42.6,11.3
		c-7.5,1.4-14.9,1.7-34.5,1.8c-22.4,0-26.2-0.2-36-2.3c-21.4-4.5-43.9-13.3-62.4-24.5C346.9,726.6,342.5,724,342.3,724z
		 M554.9,762.2l-4.4-4.7l-4.4-4.7L536,772.9c-5.5,11-10,20.5-10,21c0,0.4,3.5,1.1,7.8,1.5c4.2,0.4,16.3,1.8,26.7,3.3
		c25.5,3.5,63.5,3.8,63.5,0.5c0-0.4-3.4-3.8-7.5-7.5l-7.5-6.8l-2.6,2c-3.3,2.6-8,2.7-11.7,0.2c-4.7-3.1-6.1-6-6-12.1l0.2-5.6
		l-8.8-4.3c-9.5-4.5-9.3-4.5-18.9-3.5L554.9,762.2z M332.1,768.7c-7.4,6.8-26.2,30.6-43.1,54.6c-4.7,6.6-3.6,7.4,10.5,8.3
		c21.5,1.2,40.5-2.9,86.2-19c14.9-5.2,28.3-9.8,29.7-10.2c1.4-0.3,2.6-0.9,2.6-1.3c0-1.4-32.4-29.8-39-34.2
		c-3.9-2.6-10.6-5.8-15-7.3C350,755,345.7,756.2,332.1,768.7z M593.1,773c-2,0-2.4,4.9-0.7,7.5c1.9,2.9,10.6,5.9,11.8,4.1
		c1.5-2.2,0.7-3.4-4.7-7.5C596.5,774.9,593.6,773,593.1,773z"/>
	<path d="M335,39c5.7,0,7.3,0.4,12,3.2c10.5,6.4,14,19.3,8.4,30.7c-10.8,21.6-43.6,13.5-43.6-10.8c0-9.8,4.3-16.8,12.8-21.1
		C327.2,39.7,330.6,39.1,335,39z"/>
	<path d="M187.5,139.8c-8.3,15.3-28.4,17.5-39.7,4.2c-12-14-4.5-36.4,13.4-39.9C181.7,100.1,197.5,121.5,187.5,139.8z"/>
	<path d="M434.9,374.9c2.3,1.5,0.3,3-7.2,5.2c-4,1.2-8.5,2.8-10,3.6c-1.6,0.8-3.4,1.2-4,1c-1.6-0.5,7.2-6.8,12.6-8.9
		C431.1,373.9,432.9,373.7,434.9,374.9z"/>
	<path d="M518,386c4.6,0,13,8.4,13,13c0,0.6-3.6-1.7-8-5.1s-8-6.5-8-7S516.3,386,518,386z"/>
	<path d="M437.6,418.2c2.7,5.1,1.4,11.5-3.1,15.6c-3.5,3.2-4.1,3.4-9.2,3c-4.1-0.4-6-1.1-7.9-3c-5.1-5-4.8-14.3,0.5-19
		C423.6,409.7,434.2,411.6,437.6,418.2z M430,418.5c-2.9,3.5,1.7,6,5.6,3c1.9-1.5,1.9-1.5,0-3C433.1,416.6,431.6,416.6,430,418.5z"
		/>
	<path d="M517.5,433.1c0.9,3.9-1.1,9.4-4.2,11.9c-4.8,3.8-14.5,2-17-3.2c-3.2-6.4-1.8-12.3,3.9-15.8
		C506.5,422,515.9,425.9,517.5,433.1z M509.1,430.4c-0.9,1.1-0.8,1.8,0.4,3c2.1,2.1,2.8,2,4.9-0.3c1.7-1.9,1.7-2-0.3-3
		C511.5,428.7,510.5,428.7,509.1,430.4z"/>
	<path d="M480,451.6v3.6l-3-2.5c-4.4-3.7-6.4-4.1-11.5-1.8c-5.4,2.4-5.8,1.4-1-2.8C470.9,442.5,480,444.6,480,451.6z"/>
	<path d="M437.4,462c1.8,0.6,2.6,1.7,2.6,3.3c0,4.9,10.2,11.7,17.5,11.7c1.9,0,3.5,0.2,3.5,0.5c0,1.6-7.3,10.3-9.5,11.3
		c-3.9,1.8-5.7,1.5-10.7-1.7s-8-8.3-9.8-16.7c-1-4.7-1.3-5.1-3.6-4.6c-3.3,0.6-3-0.5,0.9-2.8C431.9,460.8,433.7,460.6,437.4,462z
		 M433.9,465.1c-1-0.2,0.9,9.6,2.5,12.7c1.7,3.4,6.6,7.7,9.6,8.7c2.4,0.8,6.4-1.5,8-4.5c0.9-1.7,0.7-2-1.7-2.5
		c-5.1-1-9.8-4.2-13.8-9.3C436.3,467.4,434.2,465.1,433.9,465.1z"/>
	<path d="M694,323.3c0,4.3-2.4,7.5-7.4,9.8s-8.8,2.4-12.6,0.4c-7.3-3.8-6.5-13.6,1.4-17.1C683.5,312.9,694,316.8,694,323.3z
		 M683.9,317.1c-7.5,1.7-10.9,4-10.9,7.6c0,2.7,5.1,6.3,9,6.3c1.4,0,4-0.9,5.8-2c4.3-2.7,4.3-6.1-0.1-9.4
		C685.8,318.1,684.1,317,683.9,317.1z"/>
	<path d="M638.1,354c5.6,0,7.7,1.4,8.9,6c1.5,5.5-0.3,11.5-4.6,15.8c-3.2,3.2-3.8,3.4-8.1,2.9c-11-1.2-12.9-14-3.3-22.1
		C633.3,354.8,635.3,354,638.1,354z M638.6,357c-8.5,0.2-13.8,12.9-7.3,17.5c3.1,2.2,5.3,1.9,8.8-1.3c4-3.5,5.2-11.1,2.4-14.2
		C641.5,357.9,639.7,357,638.6,357z"/>
	<path d="M642,428c0,4.5-3.9,12-7.4,14.2c-4,2.5-10,1.9-13.3-1.5c-6.4-6.3-2.4-22.3,6-24.5C634.9,414.2,642,419.8,642,428z
		 M621.9,425.7c-4.1,10.9,5.9,19.6,13.3,11.5c3.6-4.1,4-11.5,0.7-15.6C632.1,416.8,624.5,419,621.9,425.7z"/>
	<path d="M631,481.5c7.8,4,7.8,19,0,24.5c-4.2,3-11,2.7-14.3-0.6c-6.5-6.5-3.2-20.1,5.7-24C626.4,479.7,627.5,479.7,631,481.5z
		 M626.4,484c-6.2,0-12.3,10.5-9.3,16.1c4,7.5,12.1,6.1,15.5-2.6c1.8-4.8,1.3-8.8-1.3-11.8C630.4,484.8,628.3,484,626.4,484z"/>
	<path d="M310.1,543c4.6,1.3,6.9,4.7,6.9,10c0,8.4-6.4,15-15.3,15.8c-6.3,0.5-10.1-1.9-11.6-7.3c-1.9-7.1,3.2-15.1,11.5-18
		C306.4,541.8,305.8,541.8,310.1,543z M294.5,553.1c-3.3,6.3-0.5,11.9,6,11.9c9.7,0,17.3-11.2,11.5-17
		C307.8,543.8,297.7,546.7,294.5,553.1z"/>
	<path d="M347.9,581.7c2.6,5.8,0.1,13-6.1,17.6c-3.6,2.7-11.6,3.4-15.6,1.3c-3.9-2-5.2-4.4-5.2-9.3c0-6.7,5-12.6,12.3-14.4
		C339.6,575.4,346,577.4,347.9,581.7z M326.5,585.6c-2.2,2.9-1.9,8.7,0.6,11c4.2,3.8,12.7,1.7,16.6-4.2c2.3-3.6,2.2-9.3-0.2-11
		C339.2,578.3,330.4,580.4,326.5,585.6z"/>
	<path d="M284,590c4.1,9.9-7.5,22.8-17.9,20c-5.4-1.4-8.1-5.1-8.1-10.8c0-5.6,3-10.6,7.8-13.2C273,582.3,281.6,584.1,284,590z
		 M261.4,600.5c2.3,9.1,14,8.4,18.7-1.1c2.2-4.6,1.9-8.3-0.9-10.7C272.3,582.8,259.2,591.5,261.4,600.5z"/>
	<path d="M570.5,774.9c2.4,2.6,3,4.1,3,7.5c0,4.9-1.6,7.3-6.3,9.3c-11.4,4.7-25.1-11.9-16.7-20.2C555,767,564.6,768.6,570.5,774.9z
		 M552.4,774.5c-5.2,7.9,9.7,19.5,16.1,12.5c3.8-4.2,1.6-10.3-4.7-13.6C559.4,771.1,554.3,771.6,552.4,774.5z"/>
	<path d="M360.7,777.8c-1.2,7.2-11.1,13.2-19.7,11.7c-12.3-2.1-11-17.3,2-22.9C353.2,762.2,362.2,767.9,360.7,777.8z M349.8,768.1
		c-5.9,0.1-12.4,5.3-13.4,10.6c-0.9,4.9,0.7,6.3,7.8,6.3c5.6,0,6.1-0.2,10.9-4.7l5.1-4.7l-4.1-3.8
		C353.8,769.6,351.1,768,349.8,768.1z"/>
	<path d="M396.8,789.5c4.1,8.9-3.7,18.5-15,18.5c-6.1,0-9.4-1.6-10.8-5.1c-2.5-5.9,1.7-14.6,8.5-17.5
		C386.2,782.5,394.5,784.4,396.8,789.5z M376.8,791.6c-3.8,4.1-4.4,7.4-1.8,10.7c1.7,2.1,3,2.7,6.1,2.7c7.4,0,12.9-4.5,12.9-10.6
		c0-2.3-0.8-3.9-2.6-5.3C387,785.6,381.6,786.6,376.8,791.6z"/>
	<path d="M333,801.6c11,4.4,7.9,18.3-4.7,21.3c-7,1.7-12.2-0.1-14.7-5.2c-1.7-3.6-1.7-4.1-0.2-8.2c1.7-4.4,4.7-7.1,9.5-8.5
		C326.9,799.8,328.6,799.9,333,801.6z M316,810.6c-1.4,3.6-1.3,4.2,1.5,6.9c6.4,6.5,21.6-0.9,18.5-8.9c-0.5-1.4-1.8-3-2.9-3.5
		C327.8,802.2,318,805.3,316,810.6z"/>
</g>
</svg>
