<?xml version="1.0" encoding="utf-8"?>
<!-- Generator: Adobe Illustrator 21.0.0, SVG Export Plug-In . SVG Version: 6.00 Build 0)  -->
<svg version="1.1"
	 id="svg130" inkscape:version="0.92.2 5c3e80d, 2017-08-06" sodipodi:docname="26 #1347.svg" xmlns:cc="http://creativecommons.org/ns#" xmlns:dc="http://purl.org/dc/elements/1.1/" xmlns:inkscape="http://www.inkscape.org/namespaces/inkscape" xmlns:rdf="http://www.w3.org/1999/02/22-rdf-syntax-ns#" xmlns:sodipodi="http://sodipodi.sourceforge.net/DTD/sodipodi-0.dtd" xmlns:svg="http://www.w3.org/2000/svg"
	 xmlns="http://www.w3.org/2000/svg" xmlns:xlink="http://www.w3.org/1999/xlink" x="0px" y="0px" viewBox="0 0 850 850"
	 style="enable-background:new 0 0 850 850;" xml:space="preserve">
<style type="text/css">
	.st0{fill:none;}
	.st1{fill:#800080;}
	.st2{fill:#DC143C;}
	.st3{fill:#DAA520;}
	.st4{fill:#B8860B;}
	.st5{fill:#66CDAA;}
	.st6{fill:#000080;}
	.st7{fill:#0000FF;}
	.st8{fill:#800000;}
	.st9{fill:#556B2F;}
	.st10{fill:#FF8C00;}
	.st11{fill:#FF00FF;}
	.st12{fill:#FF4500;}
	.st13{fill:#FFA07A;}
	.st14{fill:#00FF00;}
	.st15{fill:#FF0000;}
	.st16{fill:#00BFFF;}
	.st17{fill:#7B68EE;}
</style>
<sodipodi:namedview  bordercolor="#666666" borderopacity="1" gridtolerance="10" guidetolerance="10" id="namedview132" inkscape:current-layer="svg130" inkscape:cx="1170.4791" inkscape:cy="526.12308" inkscape:pageopacity="0" inkscape:pageshadow="2" inkscape:window-height="978" inkscape:window-maximized="1" inkscape:window-width="1920" inkscape:window-x="0" inkscape:window-y="1" inkscape:zoom="0.41647059" objecttolerance="10" pagecolor="#ffffff" showgrid="false">
	</sodipodi:namedview>
<g id="g128" transform="translate(0.000000,0.000000) scale(1.00000,1.00000)">
	<path id="path4" class="st0" d="M0,0h425h425v425v425H425H0V425V0z M432.4,24c-28.1,8.9-54.1,48.3-61.9,93.5
		c-3.1,17.9-6.5,29.5-11.5,39.6c-3.5,6.8-4.5,8-7.1,8.6c-2.4,0.5-6.3,4.2-17.6,16.9c-8,9-14.8,16.4-15,16.4c-0.3,0-4.2-2.4-8.6-5.4
		c-17-11.2-29.3-15.7-37.5-13.6c-10.9,2.7-15.2,10.3-19.8,34.5c-1.2,6.4-1.8,16.6-2.1,35.1l-0.5,26.1l-8.8,9
		c-6.9,7.1-10.4,9.8-16.4,12.8c-16.3,8-18.5,16.8-8,32.1c3.5,5.2,4.3,6.9,3.2,7.5c-0.7,0.5-1.8,0.9-2.4,0.9s-3.4,0.7-6.2,1.5
		c-6.2,1.9-6.4,2.9-2.2,10.2c3.3,5.7,9.5,11.2,23.9,21.3l9.3,6.5l-4.9,2.2c-2.6,1.2-6.7,2.2-8.9,2.2c-7.7,0.2-8,3.5-1.9,16.8
		c15,32.4,49,61.4,89,75.9c2.8,0.9,5.2,1.9,5.4,2c0.9,0.7-18.4,33.8-32.7,55.7c-23.2,35.6-33.6,50.1-75.7,105.1
		c-4.2,5.4-7.5,10.5-7.3,11.4c0.7,3.4,19.5,15.2,24.4,15.2c3.5,0.1,9.9,3.6,13.6,7.6c2.1,2.1,6.9,8.1,10.7,13.3
		c5.6,7.4,7.1,10.3,7.6,14c1.4,10.1,3.6,19.1,7.5,30.5c2.2,6.5,4,12.2,3.8,12.7c-0.5,1.4-12.3-4.9-16.3-8.7c-6.8-6.7-8.5-12.1-10-32
		c-1.3-16.2-1.6-17.9-4.3-22.7c-4.4-7.9-10.2-11.1-20.9-11.6c-17-0.7-25.1,5.8-29.8,24c-2.5,9.2-1.5,29.8,1.9,43.1
		c8.2,32.2,27.9,56.9,55.2,69.4c8,3.6,22.7,7.8,31.3,9c4.9,0.6,5.1,0.8,6.2,4.7c4,14.9,17.2,22.6,44.4,25.9
		c12.1,1.5,37.5,2.1,41.5,0.9c1.9-0.5,7.9-1.5,13.2-2.1c19.2-2.2,30.9-7,38.9-15.8c3.6-3.9,5.3-5.3,5.7-4.3
		c1.1,3,8.5,10.1,12.8,12.1c12.7,6.2,46.9,9.5,73.4,7.1c32.4-2.9,46.3-9,53.5-23.2c3-5.8,4.8-16.4,3.9-22.9l-0.6-4.9l8.3-4.2
		l8.4-4.2l3,3.9c9.8,12.7,25.7,26.5,38.7,33.8c9,4.9,22,10,34,13.1c13.7,3.6,41.2,4.7,55.3,2.1c13.1-2.4,29.7-7.8,39.9-13.1
		c30.7-15.7,52.9-42.7,60.8-74.2c2-7.5,2.3-11.4,2.3-27.3c-0.1-23.4-2.3-34.8-10.2-50.4c-8.8-17.5-18.5-26-43.5-38.1
		c-12.6-6-19.4-7.7-38.8-9.5c-6.9-0.7-12.6-1.3-12.8-1.5c-0.2-0.1-0.4-6.7-0.5-14.6c-0.2-12.9,0.1-14.9,2.1-19.7
		c3-7.1,2.8-10.5-0.7-14.4c-2.7-3-3.4-3.3-10.2-3.6c-16.6-0.8-36.1,11-33.3,20.1c0.4,1.2,2.4,4.1,4.5,6.4c3.8,4.1,3.9,4.5,3.9,11.5
		c0,9.1-2.1,13.9-6.5,15c-1.6,0.3-7.9,1.2-14,1.8c-6,0.6-12.6,1.4-14.6,1.7c-2.9,0.4-4.1,0.1-5.9-1.8c-3.2-3.4-37.1-47-53.6-68.9
		c-22.2-29.5-54.5-79.3-52.6-81.2c0.4-0.3,4.3-2.1,8.7-3.8c19.9-7.8,40.1-19.9,55.1-32.8c8.1-7,20.4-21.5,26.2-30.7
		c4.3-7,9.1-18.6,9.8-23.9c0.6-4.3,0.5-4.5-2.2-5.1c-11.2-2.5-22.8-7-21.9-8.4c0.2-0.5,4.2-3.1,8.8-5.9
		c10.3-6.3,17.6-13.4,21.1-20.3c4-8.2,3.3-10.9-2.8-10.9c-2.7,0-10.1-4.6-14-8.9l-3-3.1l7.8-7.1c17-15.7,18.1-27.9,3.1-33.7
		c-10.9-4.2-13.7-5.6-16.6-8.3l-2.9-2.7v-19.4c0-20.9-0.7-27.2-4.6-44.8c-3.3-14.3-5.2-18.2-10.7-21.5c-9.5-5.5-21.7-2.5-43.4,10.7
		l-8.2,5l-2.9-3.4c-1.6-1.8-9.8-11.2-18.3-20.9c-13.8-15.8-15.8-18.5-18.8-25.9c-4.6-11.3-13-23.4-25.2-36.5
		c-13.7-14.7-17.7-19.8-21.1-27.3c-4.8-10.6-6.1-18-6.3-36.2c-0.1-11-0.6-17.3-1.4-18.8c-0.7-1.3-3.1-3.2-5.4-4.3
		C443.5,21.6,440.1,21.6,432.4,24z M567,59.5c-4.8,8.1-6.7,10.5-7.9,10c-0.9-0.4-6-1.3-11.3-2.2c-9-1.5-9.9-1.5-12.2,0.1
		c-4.4,2.8-3.7,5.2,6,20.2c3,4.7,5.9,9.5,6.4,10.8c0.5,1.5,0,5.5-1.6,12.2c-1.3,5.4-2.4,11.6-2.4,13.6c0,3.8,2,6.8,4.6,6.8
		c0.8,0,7-2.5,13.9-5.5L575,120l13.4,4.5c7.4,2.5,14.7,4.5,16.3,4.5c6.4,0,6.8-4.4,1.8-16.6c-1.9-4.6-3.5-9-3.5-9.7s2-3.7,4.6-6.7
		c12.3-14.9,15.8-21.8,12.3-24.1c-0.8-0.5-6.9-0.9-13.7-0.9h-12.3l-5-10.7c-2.8-6-5.7-11.6-6.6-12.5C578.4,43.5,574.9,46.2,567,59.5
		z M192.3,77.5c-1.3,0.9-3.6,5.7-6.3,13.4c-2.3,6.6-5,12.7-5.9,13.4c-1.1,1-5,1.6-12.1,1.9c-11.1,0.5-14.5,1.5-15.5,4.8
		c-0.9,2.9,1,5.5,13.1,18.1l10.4,10.7v14.4c0,22.4,1.2,23,20,9.1l11.5-8.4l6,0.6c16.1,1.6,28.6,2.4,30,1.9c4.1-1.6,1.8-8.4-7.4-21.8
		c-1.7-2.4-3.1-5.2-3.1-6c0-0.9,2.9-7.6,6.5-14.9c7-14.3,7.9-18.9,4.4-20.7c-2.3-1.3-4.7-0.9-17.9,3.2l-9.5,2.9l-2-2.4
		c-1.1-1.3-4.4-5.8-7.3-10.1c-2.9-4.2-6.7-8.6-8.5-9.6C194.9,75.6,195,75.6,192.3,77.5z M780.4,110.9c-2.1,1.6-8.3,6.9-13.8,11.7
		l-9.9,8.9l-14.5-7.2c-7.9-4-15.5-7.3-16.8-7.3c-1.4,0-3,1-4,2.5c-1.5,2.3-1.3,3.4,3,20.7c2.5,10.1,4.6,19.9,4.6,21.9
		c0,2.5-1.5,6-5.1,12c-7.3,11.9-11.9,21.4-11.9,24.4c0,4.6,3,5,21.7,3c9.2-1,17.7-1.8,18.9-1.8c1.1,0,7.4,4.1,14,9
		c23.1,17.5,25.8,18.7,29,13.8c1.4-2.2,1.6-4.5,0.9-18.4l-0.7-15.9l14.4-9.5c16.5-10.9,22.8-16.1,22.8-18.7s-6.5-5.4-21.7-9.4
		c-7.3-1.9-13.6-3.7-14.2-4.1c-0.6-0.3-1.1-3.8-1.1-7.8c0-8.3-2.5-25.8-4-28.7C790.4,107,785.1,107.4,780.4,110.9z M78.5,231
		c-1,1.1-4.4,6.2-7.5,11.3c-6.4,10.4-5.1,9.8-19,7.7c-10.2-1.6-13.7-1-14.6,2.5c-0.6,2.5,1.6,6.8,12.5,24.1l3.2,5.1l-2.7,13.2
		c-2.9,14.4-2.6,18.1,1.7,18.1c1.2,0,7.5-2.3,14-5c6.5-2.8,12.4-5,13-5c0.6,0,7.4,2,15.1,4.5c20.5,6.6,22.7,5.2,16.9-11
		c-1.7-4.9-3.4-9.7-3.7-10.6c-0.3-1,2.7-5.6,8.1-12.4c10.8-13.5,11.3-14.6,9-18.1l-1.7-2.6l-12.5,0.3l-12.5,0.4L93,242.7
		c-2.6-5.9-5.4-11.4-6-12.2C85.2,228.4,80.6,228.7,78.5,231z M781.2,351.3c-1.3,1.5-2.8,8.4-3.7,16.9c-0.3,3.1-1.2,6.1-1.8,6.6
		c-0.7,0.5-4.1,1.5-7.7,2.2c-11.9,2.2-15.6,5.1-13,9.9c0.5,1.1,5.8,5.3,11.5,9.3c9.5,6.5,10.5,7.5,10.1,9.8
		c-2.5,12.5-1.4,19.5,3,20.6c2.4,0.6,8.4-2.7,19.6-10.8l5.6-4.1l7.6,1.2c10,1.4,16.7,1.4,18.9-0.3c1.8-1.4,2.3-4.6,0.7-4.6
		c-0.5,0-1-0.5-1-1.1c0-0.6-2.1-5.4-4.7-10.6l-4.6-9.4l2.1-6.7c4-12.2,4.6-16.5,3.1-19.8c-0.8-1.6-2.2-3-3.2-3.2
		c-0.9-0.2-5.7,1.5-10.5,3.7c-9.2,4.2-11.2,4.8-11.2,3.1c0-0.5-3.4-3.9-7.7-7.5C786.7,350,783.3,348.7,781.2,351.3z M147.6,422.2
		c-1.6,2.5-3.1,12.3-4.2,27l-0.7,9.7l-3.1,1c-1.7,0.6-7.8,2.2-13.5,3.6c-13.1,3.3-16.6,4.8-18.1,7.5c-1.9,3.6,1,6.5,17.9,17.6
		c8.4,5.6,16,10.9,16.8,11.7c1.3,1.3,1.3,3.4,0.3,16c-1.4,16.9-0.7,20,4.5,20.5c3.1,0.3,4.2-0.4,24.5-15.3c4.1-3.1,8.7-6.5,10.3-7.7
		c2.6-2.1,3-2.2,12.5-1c5.3,0.7,14.3,1.6,19.8,1.9c10.1,0.6,10.2,0.6,11.9-2c1.6-2.4,1.5-2.8-0.4-7.2c-1.1-2.5-4.9-9.4-8.4-15.3
		c-3.6-5.9-6.9-11.6-7.5-12.8c-0.9-1.6,0-6.2,3.9-21.5c2.7-10.7,4.9-20.4,4.9-21.6c0-1.3-1.1-2.9-2.5-3.9c-3.2-2.1-6.3-1.1-22.1,7.2
		l-12,6.4l-3-3.1c-4.3-4.6-18.4-16.3-22.4-18.8C152.5,419.4,149.4,419.4,147.6,422.2z M671.9,445.6c-0.8,1-3.5,6.5-6,12.3l-4.7,10.6
		l-11.5-0.3c-12.9-0.4-15.7,0.4-15.7,4.5c0,3.2,2.8,7.8,10.3,16.8c8.2,9.7,8.3,10.2,4.7,18.6c-1.7,3.8-3.4,9.2-3.7,11.9
		c-0.5,4.6-0.4,5,2,6.1c2.1,1,4.5,0.5,16.4-3.5c7.6-2.5,14.8-4.6,15.9-4.6c1.2,0,6.5,2.1,11.9,4.6c5.3,2.5,11.4,4.8,13.6,5.1
		c3.4,0.5,4,0.3,5-2.1c1-2.2,0.8-4.6-0.9-13.4c-3.1-15.1-2.9-16.3,2.1-24.1c15.1-23,14.3-25.9-6-22.7c-5.8,0.9-10.9,1.4-11.3,1.1
		c-0.5-0.3-3.2-4.7-6.1-9.7c-2.9-5-6.1-10-7.1-11C678.6,443.6,673.7,443.5,671.9,445.6z M58.3,626.9c-3.2,2.6-6.7,5.8-7.7,7
		c-2.5,2.8-3.5,2.7-12.1-1.3c-9.9-4.7-11.7-5.1-13.8-2.8c-1.6,1.7-1.6,2.4,0.3,10.8c1.1,4.9,2.6,11.2,3.2,14l1.1,5L23.7,670
		c-3.1,5.6-5.7,10.8-5.7,11.5s0.9,2,2,3c1.6,1.5,3,1.7,8.2,1.1c20.7-2.1,18.8-2.2,24,1.7c6.2,4.8,12.4,8.6,16.5,10.3
		c3,1.3,3.5,1.2,5.4-0.7c2-2,2.1-2.8,1.4-12.3l-0.7-10.1l8.7-6c9.6-6.6,12.5-9.6,12.5-13.1c0-3-3.7-4.9-13.2-6.9
		c-4-0.9-7.5-2-7.8-2.6c-0.4-0.5-1.2-5.1-1.9-10.2c-0.6-5-1.9-10.2-2.7-11.5C68.1,620.7,64.7,621.5,58.3,626.9z"/>
	<path id="path6" class="st1" d="M446.8,31.2c0.8,0.8,1.2,5.4,1.2,14.2c0,22.2,3.9,38.3,11.9,49.9c1.6,2.3,8.6,10.5,15.6,18.1
		c6.9,7.7,14.4,16.6,16.6,19.8c4.8,7,10.6,18.9,11.5,23.5c0.6,3.2,0.5,3.3-6.2,6.5l-6.9,3.3l-63.5,0.7c-34.9,0.3-63.6,0.5-63.8,0.4
		c-0.1-0.2,1.8-5,4.2-10.7c5.7-13.3,7-18.2,10.1-35.9c2.7-15.2,8.5-34.1,13.7-44.5c10.6-21.1,27.3-39,41.6-44.6
		C438.2,29.8,445.1,29.5,446.8,31.2z"/>
	<path id="path8" class="st1" d="M510,166.3c0.8,0.1,6.1,5.6,11.8,12.2c5.7,6.6,12.6,14.5,15.3,17.6l4.8,5.6l-12.4,10.7
		c-8,6.9-12.5,11.5-12.5,12.7c0,1.1,1.8,5.5,4,9.9c2.5,5,3.6,8,2.8,8c-0.7,0-8.3,0.9-16.8,2c-8.5,1.1-15.8,2-16.2,2
		c-0.4,0-0.7-15.7-0.7-34.9c0-26.2,0.3-35.3,1.3-36.6c0.6-0.9,4.8-3.4,9.2-5.5C504.9,167.9,509.2,166.2,510,166.3z"/>
	<path id="path10" class="st1" d="M369.3,176l7.7,1.4v34.3c0,32-0.1,34.3-1.7,34.3c-3-0.1-30.4-4.7-30.9-5.3
		c-0.3-0.3,0.6-2.8,2.1-5.7c1.4-2.8,2.5-6.2,2.3-7.6c-0.2-1.6-4-5.7-11.3-12.2c-6-5.4-11-10.3-11-11c0-1.1,14.5-18,22.7-26.5
		C353.4,173.3,353.5,173.3,369.3,176z"/>
	<path id="path12" class="st2" d="M384,175h49.5H483v42.5V260h-49.5H384v-42.5V175z M465,194h-32h-32v13.8c0,7.7,0.3,18,0.6,23
		l0.7,9.2h31.3H465v-23V194z"/>
	<path id="path14" class="st2" d="M408,201h25.5H459v16.5V234l-25.2-0.2l-25.3-0.3l-0.3-16.3L408,201z"/>
	<path id="path16" class="st3" d="M599.9,192.9c4.1,7.9,8.1,37.9,8.1,60.3c0,13.5-0.2,15-2,16.8c-1.2,1.2-3.3,2-5.5,2H597l0.1-20.3
		c0.1-17.1-0.2-22-2.1-32c-2.8-14.8-5.1-18.2-11.4-17.4c-7,1-21.8,9.2-37.3,20.8c-8.1,6.1-15.3,11.3-15.8,11.5
		c-1.3,0.5-4.5-4.7-4.5-7.3c0-2.4,3.8-5.9,17-16c18.8-14.3,26.1-18.7,38-22.9C591.9,184.5,596.2,185.5,599.9,192.9z"/>
	<path id="path18" class="st3" d="M303.3,197.8c9.7,6.4,35.2,27.4,36.7,30.1c0.8,1.7-0.7,6.2-2.9,8.4c-0.5,0.5-6.9-3.6-14.2-9
		c-21.6-16-29.1-21-34.2-22.7c-10.1-3.4-12.5-1.8-16.1,10.9c-3.5,12.2-5,27.2-4.3,43.7l0.5,13.7l-3.1-0.6c-8.2-1.6-7.7-0.4-7.7-18.3
		c0-32.5,5.2-59,12.6-64.9C276.2,184.6,288.5,187.9,303.3,197.8z"/>
	<path id="path20" class="st3" d="M282.7,208c4,0,23.5,12.6,40.5,26.3l8.7,7l-1.6,3.1c-4.5,8.8-20.5,19.7-35.3,24
		c-7,2.1-19.5,3.2-20.3,1.9c-0.4-0.6-0.9-5.9-1.3-11.9c-0.5-8.9-0.1-14.1,2-28.3c1.4-10,3.2-18.3,4.1-19.7
		C280.3,209.1,281.8,208,282.7,208z"/>
	<path id="path22" class="st3" d="M586.8,209.2c0.6,0.7,1.8,4,2.7,7.3c1.8,6.8,3.2,39.4,2.1,48.8l-0.7,5.6l-4.7-0.5
		c-15.7-1.9-30.9-7.9-40-16C541.1,250,534,241.5,534,240c0-2,31.6-24.1,42.5-29.8C581.1,207.8,585.3,207.4,586.8,209.2z"/>
	<path id="path24" class="st1" d="M339.8,248c1.4,0,29,4.5,34.5,5.6c2.6,0.5,2.7,0.8,2.7,7v6.4h56.5h56.4l0.3-6.2l0.3-6.3l4.5-0.6
		c2.5-0.3,11.6-1.4,20.2-2.4l15.8-1.8l5.2,4.9c15.6,14.7,35.6,23.1,57.6,24.1c9.4,0.5,11.9,0.3,15.1-1.2c3.9-1.7,4-1.7,7.3,0.8
		c1.8,1.4,6.8,3.7,11,5.2c8.9,3.1,11.3,5.2,10.4,9c-0.8,3.2-20.1,23.4-27.9,29.1c-3.3,2.5-8.7,5.2-12.2,6.3
		c-17,5.3-59.7,5.4-98.5,0.3c-50.3-6.6-79.6-7.8-105.8-4.2c-26.2,3.7-35.7,5.7-75.4,16.4c-23.5,6.3-34.5,8-48.1,7.3
		c-13.5-0.6-20.8-2.9-31.1-9.7c-11.6-7.8-20.5-18-20.6-23.7c0-2.7,5.8-7.7,13.4-11.5c6.7-3.4,9.7-5.7,17.7-14l9.5-10l6.5,0.7
		c21.2,2.3,52.6-10.1,69.4-27.4C336.6,249.8,339,248,339.8,248z"/>
	<path id="path26" class="st4" d="M617.6,326.1c1.8-0.1,18.3,12.2,18.4,13.7c0,2-11.3,12.5-17.6,16.1c-11.5,6.6-16.4,10.1-16.4,11.7
		c0,3.8,10.9,10.6,22.4,13.9l5.5,1.6l-2,5.2c-5.2,13.5-18.7,31.3-32.7,43.3c-18.2,15.6-37.8,26.3-65.5,35.5
		c-9.4,3.1-35.6,9.9-38.4,9.9c-0.3,0,1.9-2.6,4.8-5.8c8.5-9.2,10.4-13.8,10.4-25.2c0-11.6-2-16.5-10.4-25.4
		c-7-7.4-13.8-11.8-25.8-16.7c-5.1-2.1-10.5-4.7-12-5.9c-6.2-4.8-24.3-7.4-41.6-5.9c-14.6,1.2-20.9,3.1-25.6,7.5c-2,2-6.4,4.6-9.6,6
		c-7.7,3.1-18.6,10.5-23.1,15.8c-2,2.2-5,6.8-6.7,10.1c-2.8,5.3-3.1,6.9-3.1,14.5c0,7.6,0.3,9.2,3.1,14.5c1.8,3.6,5.7,8.5,9.7,12.4
		c3.7,3.5,6.5,6.5,6.3,6.8c-0.3,0.2-6-0.7-12.9-2.1c-48.2-9.8-89.1-33.9-110.5-65.3c-7.1-10.4-12.8-21.3-11.6-22.3
		c0.4-0.4,3.6-1.7,7.1-3c3.4-1.2,8.1-3.6,10.3-5.2c6.4-4.6,5.5-5.9-10.6-16.5c-12.6-8.4-21.5-15.8-21.5-18.1c0-1,8.5-5.2,10.6-5.2
		c0.8,0,5.7,2.2,10.7,4.9c10.9,5.8,13.8,6.8,23.7,8c9.4,1.2,23.6-0.1,42.9-4c7.9-1.6,15.2-2.9,16.1-2.9c1.4,0,1.8,1.3,2.2,6.7
		c0.9,10.9,4,17.7,11.9,25.6c10.7,10.7,23.9,15.7,37.7,14.2c12.5-1.3,21.4-5.6,29.4-14.2c5.9-6.4,8.6-11.7,10.5-20.7
		c1.7-8.1,1.2-14.8-1.8-23.4c-1.5-4.4-1.7-5.7-0.7-6.4c1.4-0.9,34.3-0.7,35.2,0.2c0.3,0.3-0.4,3.4-1.4,6.9
		c-9.1,28.9,12.8,57.3,44,57.2c6,0,10.3-0.6,14.4-2.1c20-6.9,32-24.6,30.2-44.5l-0.6-7.1l27.2-1.2c31.3-1.3,36.6-2.2,48.3-8.6
		C612.9,328.1,617,326.1,617.6,326.1z"/>
	<path id="path28" class="st5" d="M456.8,330.4c1.5,0.3,5.9,0.7,9.7,1.1c3.9,0.3,8.3,0.8,9.9,1.1c2.8,0.6,2.8,0.7-2.5,3.6
		c-11.5,6.2-17.2,15.2-17.2,26.6c0.1,3.7,0.6,8,1.2,9.7c1.2,2.9,1.2,2.9-0.9,1c-3.8-3.4-8.2-13.9-8.7-20.8c-0.6-6.6,1.4-16,4.3-20.5
		C453.8,330.4,454.8,330,456.8,330.4z"/>
	<path id="path30" class="st5" d="M397.5,331.4l6,0.1l2.2,4.4c5.2,10.3,5.1,20.7-0.3,31.9C402.9,372.9,394,383,392,383
		c-0.6,0,0.6-2,2.4-4.5c4.3-5.6,6-12.8,4.7-20.7c-1.6-9.7-6.6-16.8-15.7-22.3c-3.8-2.3-3.8-2.4-1.4-2.9c1.4-0.3,4.1-0.7,6-0.9
		C389.9,331.5,394.2,331.3,397.5,331.4z"/>
	<path id="path32" class="st6" d="M380.2,338.4c5.2,2.5,11.6,9,13.9,13.9c4.5,10.1,0.9,22.7-8.5,29.8c-5.9,4.5-10.4,5.9-19,5.9
		c-8.1,0-12.1-1.6-18.1-7.1c-6.3-5.9-8.8-11-8.9-18.4c-0.2-11.1,6.2-20.2,17.3-24.6C362.8,335.5,374.8,335.7,380.2,338.4z
		 M352.9,375.5c1,2.2,2.7,4.8,3.7,5.7c3.1,2.7,9,4.8,13.7,4.8c9,0,17.7-9,17.7-18.3c0-6.9-4.3-14.3-10-17.2
		C362.3,342.5,345.4,359.3,352.9,375.5z"/>
	<path id="path34" class="st7" d="M377.3,355.1c2.9,1.6,3.7,2.8,3.7,6.3c0,4.2-2.6,6.6-7.1,6.6c-6.6,0-9.2-6.8-4.4-11.5
		C372.2,353.7,374,353.4,377.3,355.1z"/>
	<path id="path36" class="st6" d="M488.1,337c12.7,0,20.7,4.8,26,15.5c2.7,5.4,3.1,7.3,2.7,11.7c-1.2,13.9-11.7,23.6-26.3,24.6
		c-5.5,0.3-8.2-0.1-12.7-1.8c-22.5-8.4-23.3-37.4-1.5-47.6C480.1,337.7,483.2,337,488.1,337z M479.5,350.2c-5.3,3-8.5,9.3-8.5,16.6
		c0,6.3,1.6,9.8,6.5,14c4.2,3.8,7,4.6,13.5,4c9.7-1,16-8.1,16-18.2c0-7.3-1.9-11.6-6.5-15.2C495.2,347.4,485.4,346.8,479.5,350.2z"
		/>
	<path id="path38" class="st7" d="M500.3,358.5c0.7,3.7-3.5,8.5-7.3,8.5c-6,0-9.2-7.8-5-12C491.8,351.2,499.3,353.3,500.3,358.5z"/>
	<path id="path40" class="st5" d="M505.5,336.8l9.4,0.7c5.2,0.4,10,0.9,10.7,1.2c3.4,1.3,4.3,13,1.6,22c-1.9,6-7.7,16.2-8.7,15.1
		c-0.2-0.2,0.3-3,1.1-6.3c2.5-10.9-1-21.4-9.8-29L505.5,336.8z"/>
	<path id="path42" class="st5" d="M341.4,342.1c1.8-0.1,1.8,0,0.3,1.7c-3.8,4.2-6,11.5-6,19.4c0,4.3-0.1,7.8-0.3,7.8
		c-0.2,0-1.3-1.8-2.4-4c-2.5-4.9-5.3-16.6-4.5-19c0.6-1.7,4.9-4.3,9-5.3C338.6,342.4,340.4,342.2,341.4,342.1z"/>
	<path id="path44" class="st3" d="M441.5,399c6.3,1,13.5,3.7,13.5,5.1c0,1.5-10.4,8.7-16.5,11.6c-5.1,2.4-7.3,2.8-14.6,2.8
		c-7.5,0-9.3-0.4-15-3.2c-3.5-1.8-8.2-5-10.3-7.2l-4-4.1l4.6-2c2.5-1.1,7-2.4,9.9-2.9C416.6,397.9,434.3,397.8,441.5,399z"/>
	<path id="path46" class="st3" d="M388.4,406.3l4.7,5.2c5.2,5.6,13.9,10.5,22.4,12.6c2.8,0.6,5.3,1.4,5.7,1.8
		c0.4,0.3,0.8,5,0.9,10.4l0.3,9.7l-3.5,3.6c-1.9,2-5.6,4.9-8.4,6.5c-8.5,4.9-19.2,3.6-26.8-3.2l-4.2-3.7l1.2-4.2
		c1.9-7.5-0.4-9.5-3.6-3.2c-2.4,4.6-3.5,5.6-8.3,7.1c-3.7,1.2-5,3.5-2.6,4.3c0.7,0.3,3,0.1,5.2-0.3c3.6-0.6,4.2-0.4,7.9,3.2
		c11.8,11.3,27.5,11.2,41-0.3l3.8-3.3l4.7,4.5c5.4,5.2,12.6,8,20.6,8c6.4,0,12.1-2.6,18-8c3.7-3.4,5.5-4.3,9.3-4.8
		c7.9-0.8,9.8-4.2,2.5-4.2c-4.4,0-7.6-2-9.7-6.1c-1.9-3.5-5.1-4.1-4.1-0.7c2.1,7.1,1.9,8.3-1.5,11.8c-4.3,4.2-10.3,7-15.4,7
		c-5.5,0-13.3-3.9-17.8-8.9l-3.8-4.2l0.3-10.5l0.3-10.5l8-2.7c9.5-3.2,15.8-6.8,22.6-12.8l4.9-4.4l6.5,2.5c9.5,3.6,15.3,7.2,22.1,14
		c8.3,8.3,10.9,13.9,10.9,23.5c-0.1,8.5-2.1,13.9-8,20.8c-4,4.6-17.7,14.2-20.4,14.2c-0.9,0-7.1,2-13.6,4.6
		c-10.5,3.9-12.9,4.5-19,4.3c-3.8-0.1-10.9,0.2-15.6,0.6c-18.8,1.7-39.8-4.5-57.5-17c-10.7-7.7-15.4-15.8-15.3-27
		c0-15.3,5.2-22.1,26.8-35.1L388.4,406.3z"/>
	<path id="path48" class="st1" d="M528,476.1c2.2-0.1,3.1,0.9,5.8,6.5c4.7,9.4,14.1,24.9,24,39.4c10.2,14.8,44.1,60,64.6,86
		c8,10.2,14.6,18.8,14.6,19.1c0,0.4-2.1,1.4-4.7,2.4c-9.6,3.6-24,11.6-30.6,17c-10.9,9-19,21.2-23.8,35.9c-2,6.1-2.6,6.9-6.3,8.7
		c-2.3,1-8,5.7-12.6,10.4c-9.1,9.1-10.8,9.8-17.9,7.4l-3.1-1.1v-21.9V664h4.3c7.9,0,17.2-2.1,24.3-5.4c8.9-4.2,19.1-13.5,22.6-20.8
		c11.3-23.2,1.4-51.9-25.1-73c-11.8-9.4-26.5-15.8-36.4-15.8c-5.4,0-6.1-0.6-13.4-9.8c-3.9-4.9-9.6-10.6-13.3-13.3l-6.5-4.8v-18.5
		v-18.5l15.5-3.9C518.5,478,526.6,476.1,528,476.1z"/>
	<path id="path50" class="st1" d="M336.4,480.7c3.3,0.8,11.8,2.7,18.9,4.3c7,1.6,13.1,3.2,13.6,3.5c0.6,0.3,0.6,1.8,0,3.8
		c-1.3,4.6-1.1,9.4,0.7,20.6l1.6,9.7l-6.2,6c-3.4,3.2-8.8,9.5-11.9,13.9l-5.7,8l-8.5,0.1c-21.6,0.2-41,14.9-54.1,40.9
		c-6.4,12.5-9.4,31.7-6.9,43.2c2.8,13.1,10.7,23.1,23.5,29.3c9.7,4.8,17.6,6.4,27.4,5.6c7-0.6,7.2-0.5,7.2,1.7
		c0,1.2,0.7,10.8,1.6,21.4c0.9,10.6,1.4,19.9,1.1,20.6c-0.7,1.9-11.7,4.1-16.1,3.3c-2.4-0.5-8.5-4.4-18-11.5
		c-14.3-10.8-18.9-13.1-26.5-13.1c-6.7,0-12.3-4.3-20.8-15.9c-10.1-13.8-13.7-16.6-24-19.1c-4.6-1-17.3-8-17.3-9.4
		c0-0.3,7.2-9.9,16-21.3c37.8-48.9,72.3-100.4,91.1-135.8c2.9-5.5,5.7-10.3,6.2-10.6C329.8,479.5,333,479.9,336.4,480.7z"/>
	<path id="path52" class="st8" d="M486.8,486.2c-0.8,2.2-11.3,8.7-17.4,10.8c-7.9,2.7-20.7,3.2-21.2,0.9c-0.2-1.1,2.6-2.9,9.5-6.2
		c5.4-2.5,11.4-5,13.3-5.6C476.3,484.7,487.3,484.7,486.8,486.2z"/>
	<path id="path54" class="st8" d="M403.1,493.9c16.4,5.4,17,8.1,1.8,8.1c-9.7,0-16.9-1.8-24.6-6.2c-5.6-3.1-6.4-4.3-3.5-5.2
		C381.4,489.3,393.9,490.8,403.1,493.9z"/>
	<path id="path56" class="st8" d="M489.4,492.2c1.6-0.3-0.2,29.8-1.9,32.4c-1.9,3-6.3,3.8-17.8,3.2c-9.5-0.5-18.4-3.1-22.8-6.7
		l-2.2-1.8l1.8-6.7c1-3.7,2.2-6.9,2.6-7.2c0.5-0.3,5.3-1.1,10.6-1.9c8.1-1.2,11.4-2.3,19.3-6.3C484.2,494.5,488.9,492.2,489.4,492.2
		z"/>
	<path id="path58" class="st8" d="M440.8,495.6c1.9,1.3,2.2,2.4,2.2,8.1c0,4-0.6,7.8-1.7,10c-1.8,3.8-6.5,7.3-9.9,7.3
		c-4.3,0-9.1-7.9-10-16.8c-0.8-7,0.4-8.4,8-9.3C437.7,493.9,438.5,493.9,440.8,495.6z"/>
	<path id="path60" class="st8" d="M372.7,497.2c0.5,0.1,3.7,1.8,7.3,3.6c8.9,4.4,19.5,6.5,29,5.7l7.5-0.6l2.4,7.1l2.4,7l-2.2,2.3
		c-2.7,3-9.8,6.5-16.4,8.3c-7.3,1.9-21.1,1.9-23.1-0.1c-2.7-2.7-4.6-10.5-7.1-29.8C372.2,498.5,372.3,497,372.7,497.2z"/>
	<path id="path62" class="st8" d="M444.9,525.5c2.2,1.3,6.8,3.4,10.3,4.5c3.5,1.2,8.3,3.4,10.8,5c2.5,1.6,6.6,3.9,9.3,5.1
		c2.6,1.3,4.7,2.8,4.7,3.5c0,2.1-10.2,10.3-16.5,13.3c-7.2,3.5-10,6.3-12.4,12.6c-1,2.6-2.1,4.4-2.4,3.9c-0.3-0.5-1.7-4.9-3.1-9.8
		c-1.4-4.9-5.1-15.2-8.2-22.8c-3.1-7.7-5.4-14.1-5.2-14.3c0.2-0.2,1.9-1.1,3.8-1.9C440.6,522.6,440.4,522.6,444.9,525.5z"/>
	<path id="path64" class="st8" d="M427.4,527.8c0.7,2.5,0.3,5-1.5,11c-2.1,6.7-2.4,9.7-2.4,22.9c0,9.9-0.3,14.9-1,14.4
		c-0.5-0.4-5.7-4.4-11.5-8.8c-5.8-4.5-13.1-9.6-16.3-11.5l-5.6-3.4l4.9-3.8c2.8-2.1,6.4-5.6,8.1-7.7c1.7-2.2,6.9-6.3,11.5-9.1
		s8.9-5.7,9.6-6.5C424.8,523.3,426.3,524.2,427.4,527.8z"/>
	<path id="path66" class="st4" d="M496.8,532.2c4,3.3,16.2,16.1,16.2,17.2c0,0.3-2,1.4-4.5,2.5c-11.5,5.1-24.5,17.4-30,28.4
		c-1.9,3.8-3.5,7.7-3.5,8.6c-0.1,4.3-1.5,4.3-11.1,0c-5.2-2.2-10.4-4.5-11.6-5l-2.2-0.8l3.5-8.3c2-4.6,4.3-9.1,5.1-10.1
		c0.9-0.9,4.6-3.1,8.2-4.8c4.3-2,9-5.5,13.8-10.2c7.9-7.6,9.2-10.7,4.6-10.7c-1.6-0.1-5.3-1.4-8.3-2.9c-5.4-2.8-5.4-2.9-2.5-3.4
		c1.7-0.3,5.3-0.9,8-1.2c2.8-0.4,5.7-1,6.5-1.6C491.4,528.5,492.5,528.8,496.8,532.2z"/>
	<path id="path68" class="st4" d="M372.9,531.1l3.1,3.1l3.1,3.1l9.5-0.5c5.2-0.3,9.7-0.2,9.9,0.2c0.2,0.4-3.2,3.8-7.6,7.6
		c-4.5,3.8-8.5,7.7-9,8.7c-1.2,2.2-0.4,3.7,2.2,3.7c3.9,0,9.3,3.1,23.3,13.3c7.7,5.7,15,10.9,16,11.4c2.2,1.2,3.1,0.8-7.9,3.9
		c-3.3,0.9-10,3.6-14.9,6.1c-4.9,2.4-9,4.3-9.1,4.1s-1-3.5-1.9-7.4c-3.3-13.5-12.1-23.6-27.1-31.1c-3.8-1.9-7.2-3.7-7.4-3.9
		c-0.6-0.6,9.2-13.8,13.6-18.1L372.9,531.1z"/>
	<path id="path70" class="st4" d="M431,539c1.6,0,8.1,16.3,11,27.5c1.7,6.6,3.4,12.8,3.6,13.7c0.5,1.6-0.3,1.8-8,1.8h-8.5l-0.7-5.8
		c-1.3-9.2-1-24.2,0.5-31C429.6,541.8,430.6,539,431,539z"/>
	<path id="path72" class="st4" d="M533.2,557.4c12.8,2.8,24,9.7,36,22.5c15.8,16.8,21.7,37.4,14.7,51.8
		c-3.1,6.5-12.8,16.4-19.2,19.6c-2.8,1.5-8.3,3.3-12,4.1c-7.9,1.6-7.6,2.2-3.3-7.9c2.9-6.8,3.3-10.7,1.2-12.4
		c-1.8-1.5-2.3-0.6-3.2,5c-0.8,5.2-3.4,10.7-6.3,13.3c-1.6,1.5-3.1,1.8-6.9,1.4c-5-0.5-15.9-5-21.3-8.9l-2.9-2.1l4.3-4.8
		c5.8-6.5,8.5-15.3,5.4-17.9c-1.8-1.4-2.7-0.4-2.7,2.8c-0.1,5.8-7.4,16.1-11.4,16.1c-2.1,0-14.9-14.1-18.4-20.1
		c-10-17.6-7.3-34.1,8.2-49.4c7.7-7.6,15.1-12.1,21.8-13.4C523.5,555.8,525.8,555.9,533.2,557.4z"/>
	<path id="path74" class="st4" d="M339.7,558.3c7.5,0.3,9.2,0.8,17.8,5.1c17.1,8.4,24.6,18.3,25.3,33c0.6,12-2.6,23.2-9.4,33.6
		c-2.9,4.4-5.5,5-10.3,2.5c-3.2-1.6-8.1-7-8.1-8.9c0-0.7-0.9-2.1-2-3.1c-2-1.8-2-1.7-2,1.4c0,6.1,5.2,12.5,12.8,15.7l3.6,1.5
		l-5.5,5.5c-6.9,7-16.3,13.4-19.8,13.4c-3.1,0-6.6-3.3-11.4-10.6c-3.7-5.5-5.7-6.7-5.7-3.3c0,3.5,3.8,10.6,7.3,13.5
		c3.6,3,2.8,3.9-4.1,5c-15.2,2.3-36.8-10.3-41.6-24.3c-6.3-18.4,1.2-44.3,18-62.2c8.8-9.4,14.3-13.5,21.7-16.2
		C330.3,558.4,333.4,558,339.7,558.3z"/>
	<path id="path76" class="st9" d="M716.7,575.2c1.5,1.5,1.4,2.2-0.8,9c-2,5.9-2.4,9.4-2.4,18.3c0.1,23.1,1.8,26.8,14.6,31.6l7.4,2.7
		l-4,1.7c-7.8,3.4-16.7-0.2-20.7-8.3c-2.1-4.3-2.3-6-2.3-20.2c0-8.5,0.4-18.1,0.9-21.3c0.7-4.8,0.6-5.7-0.7-5.7
		c-2.1,0-2.4,1.4-3.7,15.7c-0.9,9.1-0.9,14.4-0.1,20.5c1.3,9.3,1.5,24.8,0.4,24.8c-2.3,0-7.5-4.4-9-7.5c-1.5-3.1-1.5-4.2-0.4-9.3
		c2.9-12.8,3.3-16,2.9-22.7c-0.5-6.9-3.7-15.5-5.8-15.5c-1.4,0-1.2,2.1,0.6,7.1c3.2,8.7,1.2,26.5-3.8,34.8c-4.3,6.8-12,9-18.4,5
		c-4.2-2.6-4.3-3.9-0.4-3.9s9.8-2.4,12.9-5.3c4.3-4,6.1-9.4,6.1-19s-0.6-11.5-5.3-16.4c-2.6-2.8-3-3.7-2.1-6
		c1.1-3.2,9-8.8,15.3-10.8C703.9,572.6,714.4,573,716.7,575.2z"/>
	<path id="path78" class="st4" d="M449.4,592.5c6.5,1.7,20.5,8.6,22.9,11.3c0.8,0.9,2.2,4.4,3.2,7.7c3.1,11,7.2,17.3,19.2,29.1
		c6.2,6.2,11.3,11.4,11.3,11.8c0,1.5-5.5,11.6-6.6,12c-0.7,0.3-4.8-1-9.2-2.9c-10.5-4.6-16.7-6.1-30.8-7.6
		c-13.5-1.3-37.5-0.7-54.9,1.6c-9,1.2-12.3,2.1-18.2,5.2c-4,2-7.4,3.5-7.6,3.2c-0.2-0.2-1.7-4.6-3.2-9.6l-2.8-9.3l4.5-6.8
		c5.1-7.6,10-18.3,11.9-25.5c1-4.3,1.8-5.2,6.8-8.4c7.6-4.9,18.4-9.9,25.1-11.7C428.3,590.7,442.1,590.6,449.4,592.5z"/>
	<path id="path80" class="st10" d="M738.4,628.5c14,1.8,24.2,4.9,35.8,10.9c28.4,14.4,41.4,35.4,44.6,71.6
		c3.3,37.2-11.8,70.9-42.1,93.6c-19.6,14.7-38.2,22-63.6,24.9c-40.2,4.7-78.1-8.9-106.5-38.3c-20.3-21-30.6-51.2-27.6-80.7
		c2.2-20.6,5.6-32.1,13-43.9c4.8-7.5,15.2-17.6,23.5-22.5c7.5-4.6,22.2-10.4,31.5-12.5c12.6-2.9,11.8-2.9,13.4,0.1
		c5,9.6,17.9,14.1,26.9,9.3l3.7-2l3.6,4c3.8,4.2,9,6.4,13.9,5.8c2.8-0.3,3-0.6,2.9-4.1c-0.1-2.9,0.2-3.7,1.3-3.3
		c6.4,2.5,13,3.7,16.8,3.2c7.3-1.1,16.1-8.2,14.1-11.4c-0.3-0.5-4.4-1.7-9.1-2.7c-4.7-0.9-8.5-2.1-8.5-2.6
		C726,626.8,724.8,626.7,738.4,628.5z M690.8,650.7c-4.2,4.9-5.9,26.3-2.1,27.7c2.7,1.1,3.3-0.4,3.3-8.1c0-4.2,0.5-10.3,1.2-13.5
		C694.6,650.3,693.5,647.6,690.8,650.7z M644,655.9c-27.7,11.6-46.9,42-45.8,72.6c0.2,6.5,0.6,8,2,8.3c1.3,0.3,1.7-0.8,2.2-5.5
		c2.8-28.3,8.2-42.1,22-55.9c7.9-7.8,15.2-12.4,25.3-15.8c4.1-1.4,6.8-2.8,6.8-3.7C656.5,653.7,649.2,653.8,644,655.9z M743.3,654.7
		c-2.3,0.9,0.4,3.9,6.4,7.3c3.2,1.8,8.8,6.4,12.6,10.2c10.9,11.3,17.6,27.7,17.7,43.4c0,6.2,1.6,9.4,4,7.9s-0.2-23.8-4-33.7
		c-4.3-11.6-16.6-26.1-27-32C747.9,654.9,745.1,654,743.3,654.7z M711.3,677.4c-4.2,2.1-9,7.3-11.4,12.4l-2.2,4.4l-2.4-4.4
		c-3.5-6.2-6.2-8.8-11.8-11.4c-10.8-5.1-23.4-1.8-30.1,7.9c-4.1,5.9-5.4,10.3-5.4,18.3c0,8.1,2.3,14.3,7.3,20
		c4.8,5.5,10.5,8.3,16.4,8.4h4.3l-0.7,6c-0.8,7.9,1.4,13.7,7,18.5c7.8,6.7,21.2,8.3,30.3,3.7c9.3-4.7,14.6-14.4,12.5-22.8
		c-1.5-5.8-1.4-6.4,0.9-6.4c3.5,0,11.7-4.8,14.9-8.7c4.2-5.1,7.1-13.2,7.1-19.8c0-10.2-6.5-22.1-14.2-26.1
		C727.3,674.1,717.7,674,711.3,677.4z M646.3,747.2c-2.5-0.8-3.5,5-2.8,16.6c1,16.9,3.8,25.9,10.5,33.6c7.7,8.7,22.1,14.4,38.5,15.3
		c12,0.7,13,0,13-8.4c0-5.6,1.1-7.3,5-7.3c1.5,0,2.4,1.2,3.5,4.7c2,6.3,3.6,7.1,9.5,4.9c9.1-3.5,15.4-12.9,19.5-29.3
		c2.3-9.1,2.5-27.3,0.3-28c-0.6-0.2-2.8,2.1-4.7,5.1c-6.1,9.6-14.4,14.1-31.8,17.2c-18.3,3.3-17.9,3.1-15.9,10.2
		c1.1,3.6,0,4.7-5.4,5.3l-3,0.4l-0.3-6.1l-0.3-6.2l-5.2-0.6c-13.2-1.7-17.5-4.9-24.5-18C649.6,751.7,646.9,747.5,646.3,747.2z"/>
	<path id="path82" class="st11" d="M682.2,683.3c4.8,2.6,8.4,7.9,10.8,15.5c2.8,9,0.6,16.4-7.2,23.9c-11.5,11.1-29,3.8-32.7-13.7
		c-2.5-11.8,4.8-24.7,15.9-27.8C673.3,679.9,677.3,680.6,682.2,683.3z M674.2,688c-5.9,0-9.5,2.4-11.2,7.4c-1.5,4.5,0.7,9.9,4.9,12
		c7.9,4.1,16.7,0.1,17.8-8.1c0.5-3.9,0.2-4.6-3-7.8C679.6,688.4,678.6,688,674.2,688z"/>
	<path id="path84" class="st11" d="M723.2,680.2c8.1,0.6,13.1,4.1,16.9,12.1c3.9,8.2,3.9,14.1,0,22.2c-3.3,7-7.6,11.1-12.7,12.1
		c-7.1,1.3-19.5-4.7-22.8-11c-2.4-4.8-3.2-13.6-1.7-19.3c1.5-5.3,6.6-12,11.1-14.5C716.6,680.4,718.9,680,723.2,680.2z M713,692
		c-0.5,1-1,3.7-1,6c0,3.3,0.6,4.8,2.9,7.1c6.1,6.1,18.1,2.7,19.7-5.6c0.8-4.2-1.8-9.8-5.2-11.4C723.9,685.6,715.3,687.6,713,692z"/>
	<path id="path86" class="st12" d="M699.1,715.5c1.3,3.3,1,4.5-1.1,4.5c-2.3,0-2.5-1.2-0.8-4.3C698.3,713.6,698.3,713.6,699.1,715.5
		z"/>
	<path id="path88" class="st13" d="M714,729.7c8.9,7.6,9.4,15.9,1.3,23.5c-11,10.5-30.7,6.2-35.3-7.6c-2.6-8.1,4-17.3,14.9-20.7
		C701,723.1,708.4,724.9,714,729.7z"/>
	<path id="path90" class="st2" d="M647.8,762.5l5.6,6.1c5.8,6.4,9.2,8.3,18.7,10.4l5.7,1.3l-0.5,5.7c-0.3,3.3-0.1,6,0.4,6.3
		c0.6,0.4,5,0.1,9.9-0.6l8.9-1.4l-0.3-5.5c-0.2-6.3-0.9-5.9,10.3-7.3c8.7-1.2,20.2-5.4,27-9.9c7.5-5.1,7.5-5,5.1,6.4
		c-2.5,11.4-5.5,18-10.7,23.2c-6.2,6.2-8.5,6.3-10,0.3c-1.7-6.6-2.7-7.1-10.4-5c-3.6,0.9-6.9,2.4-7.4,3.2c-0.4,0.8-0.5,3.4,0,5.7
		c0.5,2.6,0.3,4.6-0.4,5.5c-2.9,3.5-27.8-2.5-37.3-9c-7.3-5-12.4-15.8-14-29.4L647.8,762.5z"/>
	<path id="path92" class="st3" d="M365.1,654c0.4,0,2,3.3,3.7,7.4l3,7.4l-5,4.8c-10.3,10.2-15.6,23-16.5,39.9
		c-0.5,9.1,1.2,24.4,3.3,29.8c0.6,1.6-1.5,2.3-9,2.9c-2.9,0.3-3,0.1-6.8-11.1c-2.1-6.3-3.7-11.5-3.5-11.6c0.1-0.2,2.9-1.1,6.2-2.1
		l6-1.9l-0.1-7.5c-0.1-4.1-0.9-15.5-1.8-25.4c-0.9-9.8-1.2-18.4-0.8-19.2c0.4-0.7,5.2-4,10.7-7.3C360,656.8,364.8,654,365.1,654z"/>
	<path id="path94" class="st3" d="M514.1,656.1l7.2,2.6c4,1.5,7.8,3.1,8.6,3.7c1.2,0.9,1.3,5.2,0.7,25.2
		c-0.8,27.6-1.1,26.6,7.7,28.3c10.7,2.1,14.7,1.8,18.7-1.5c1.7-1.5,3.3-2.4,3.6-2.1c1.7,1.6-17.5,36.7-19.9,36.7
		c-0.7-0.1-5-1.1-9.7-2.4c-5.7-1.6-8.4-2.8-8.3-3.7c0.1-0.8,0.8-4.6,1.7-8.4c4.5-20.2-1.1-45.8-12.8-58.3c-2.5-2.7-4.6-5.3-4.6-5.8
		s1.6-4,3.5-7.6L514.1,656.1z"/>
	<path id="path96" class="st12" d="M473.4,661.4c12.9,2.2,11.8,3.5-5.7,6.2c-15.8,2.4-42.8,2.5-57.7,0.1c-17.1-2.7-18-2.9-17.5-3.7
		c0.7-1.1,17-4,28-4.9C437.9,657.5,455.8,658.3,473.4,661.4z"/>
	<path id="path98" class="st12" d="M492.8,671.1c-2.3,1.3-4.8,3.8-4.8,4.9c0,0.4,0.9,1.8,1.9,3.1c2.2,2.6,2.2,2.6,9.9-2.2
		c2.2-1.3,2.6-1.1,6.7,3.4c8.6,9.4,12.8,22.2,12.8,39.2c0.1,17.8-5,30.7-17.5,44c-17.2,18.5-40.5,27.5-68,26.3
		c-25.1-1.1-44.1-9.6-60.4-27.1c-12.1-13-16.8-25.4-16.8-44.7c-0.1-17.3,3.9-27.8,15.2-40.5l3.3-3.7l4.5,4.2
		c7.3,6.7,11.8,4.2,7.4-4.2c-1.1-2.2-1.9-4.3-1.6-4.5c0.3-0.3,4.9,0.5,10.3,1.8c8.6,1.9,13.2,2.3,37.8,2.7
		c29.1,0.4,41.8-0.7,49.8-4.3C488.1,667.4,496.9,668.8,492.8,671.1z M462.3,700.8c-0.6,0.4-3.4,4.5-6.2,9.2c-4.7,7.7-5,8.6-3.4,9.7
		c2.5,1.9,20.7,1.8,22.3-0.2c1.3-1.6,1.4-1.4-4.9-11.2C465.4,700.9,464.1,699.7,462.3,700.8z M413.3,701.8
		c-1.8,1.2-10.3,15.4-10.3,17.4c0,1.6,1.1,1.8,12.1,1.8c13.7,0,13.2,0.5,7.8-8.5C418.5,705.1,414.7,700.9,413.3,701.8z M440.3,725
		c-0.7,0-3.3,3-5.6,6.7c-6.2,9.7-7,11.4-6,12.4c0.6,0.6,6.1,0.8,12.4,0.7c13.6-0.4,13.5-0.1,5.8-11.7C444,728.6,441,725,440.3,725z
		 M399.6,754.4c6.2,13.2,22.2,21.6,41,21.6c14.6,0,27-5.8,35.9-16.6c4.3-5.3,7.3-11.9,6.1-13.2c-0.4-0.3-4.8,1.5-9.7,4.2
		c-12,6.4-16.9,7.6-31.4,7.6c-16.4,0.1-28.8-3.2-38.7-10.1C397.2,743.9,395.8,746.5,399.6,754.4z"/>
	<path id="path100" class="st3" d="M237.2,684c2.4,4.9,2.8,7.2,3.6,21.7c0.8,13.9,1.3,16.9,3.5,21.6c4.7,10.4,13.9,18.1,26.5,22.1
		c3.7,1.2,7.4,2.6,8.3,3.1c0.9,0.6,4.8,5.6,8.7,11.2l7,10.2l-3.5,7c-2.2,4.5-4,10.2-5,15.8c-0.8,4.8-1.6,8.9-1.7,9s-4.2-0.6-9.1-1.6
		c-38.8-8-64.8-34-74.6-74.6c-3.8-15.8-3.4-34.1,1-44c2.3-5.1,7.7-9.4,13.9-11.1C225.1,672,233.1,675.6,237.2,684z"/>
	<path id="path102" class="st3" d="M269.7,698.7l7.3,0.7c9.5,0.8,12,2.1,23.7,12.2c11.4,9.8,14.5,11.4,22.4,12.1l5.9,0.6l3.5,11.2
		c1.9,6.2,3.5,11.5,3.5,11.8s-3,1.5-6.7,2.7c-8.7,2.8-17.6,7.7-23.5,12.9c-2.5,2.3-5,4.1-5.5,4.1c-1.1-0.1-9.3-11.1-13.7-18.6
		c-7-11.8-13.4-29.8-16.2-45.8L269.7,698.7z"/>
	<path id="path104" class="st3" d="M573.1,719.5c0.7,23.7,2,30.2,8.9,45.8c2.1,4.9,3.7,9.4,3.4,9.9c-0.7,1-12.5,7.1-12.9,6.6
		c-0.2-0.2-1.2-2.4-2.3-4.8c-3.7-8.7-13.6-19.6-21.3-23.6l-2.8-1.4l4.4-7c2.3-3.9,7.6-14.6,11.5-23.8c4-9.2,8-18.1,8.9-19.7
		C572.4,698.6,572.5,699.4,573.1,719.5z"/>
	<path id="path106" class="st4" d="M356.2,752.1c0.4-0.1,1.5,1.1,2.5,2.5c6.8,9.7,14,17.8,19.9,22.3c9.8,7.4,23.3,13.7,35.8,16.8
		c12.1,2.9,12.3,3.2,11.3,12.9c-1.2,11.7-9.3,20.5-22.6,24.4c-11,3.2-10.5,3.3-10-3c0.2-3,0.4-9.8,0.4-15
		c-0.1-8.1-0.5-10.3-2.7-15.3c-2.5-5.3-5-7.8-6.5-6.3c-0.3,0.3,0.7,3.8,2.3,7.8c2.6,6.4,2.9,8.4,2.8,17.3
		c-0.1,11.9-1.7,17.6-5.4,18.6c-1.4,0.4-12.5,0.7-24.7,0.8l-22.2,0.1l-1.2-4.2c-0.7-2.4-1.3-9.3-1.3-15.3c0-9,0.4-12.2,2.2-17.4
		c1.8-5,2-6.6,1.1-7.2c-2-1.2-2.7-0.3-5.1,6.9c-1.9,5.9-2.2,8.5-2,21.8l0.2,15.1l-5.7-0.9c-16.2-2.4-26.2-8.2-29.8-17
		c-2.8-7.1-3.1-17.4-0.7-25.4c6.5-21.2,24.6-34.6,52.7-39C351.9,752.8,355.8,752.2,356.2,752.1z"/>
	<path id="path108" class="st4" d="M528.5,753.5c14.2,3.6,28.4,13.5,33.4,23.3c6.7,13.2,6.8,31.8,0,41.1c-4.3,6.1-11,9.6-26,13.7
		c-1.4,0.4-1.6-1.3-1.5-14.8c0.1-14.1-0.1-15.7-2.3-20.6c-2.2-4.9-5.5-8.1-6.9-6.8c-0.3,0.4,0.7,3.6,2.3,7.4
		c3.8,9,4.5,21.9,1.8,30.7l-1.9,6l-22.9,0.8c-14.6,0.5-23.8,0.4-25.2-0.2c-2.7-1.3-3.7-6.9-3.6-20.6c0-7.5,0.6-11.5,2.2-15.9
		c1.6-4.5,1.8-6.2,1-7.3c-1.4-1.6-1.5-1.5,4.1-4.3c11.3-5.6,25.9-18.7,32.5-29.3C518.9,751.4,519.6,751.2,528.5,753.5z"/>
	<path id="path110" class="st3" d="M477,789.3c0,0.2-0.9,2.2-2,4.4c-3.4,7.1-4.4,16.8-3.1,28.9c0.7,5.8,1,10.8,0.8,11
		c-0.6,0.6-16-2.4-21.1-4.2c-7.3-2.5-14-9.5-16.1-16.6c-0.9-3.1-1.5-8.1-1.3-11l0.3-5.3l10.7-0.7c9.8-0.6,25.1-3.7,28.7-5.8
		C475.5,789.1,477,788.7,477,789.3z"/>
	<path id="path112" class="st14" d="M580.1,52.7c0.4,1,2.8,6.9,5.4,13.2l4.8,11.3l8.6-0.6c4.7-0.4,10.5-0.9,12.9-1.3
		c2.6-0.3,4.2-0.1,4.2,0.5s-4.3,6.3-9.5,12.8c-5.2,6.4-9.5,12.3-9.5,13c0,0.8,1.8,5.9,4,11.5c2.3,5.6,3.9,10.4,3.6,10.6
		c-0.3,0.3-6.7-1.6-14.3-4.1s-14.6-4.6-15.6-4.6s-7.1,2.5-13.4,5.5c-6.4,3-11.9,5.3-12.1,5c-0.3-0.3,0.5-5.1,1.8-10.8
		c3.9-17.3,4.2-15.5-5-30c-4.5-7.1-8-13.1-7.8-13.3c0.3-0.2,5.7,0.6,12.2,1.7c6.4,1.1,12.3,1.9,13,1.6c0.8-0.3,4-5,7.1-10.4
		c3.2-5.4,6.5-10.6,7.3-11.6C579.4,50.9,579.4,50.9,580.1,52.7z"/>
	<path id="path114" class="st15" d="M195.8,82c0.5,0,4.6,5.2,9.1,11.5c7,9.8,8.6,11.5,10.9,11.5c1.5,0,7.6-1.6,13.6-3.5
		c6-1.9,11.2-3.3,11.5-3c0.2,0.3-3,7.6-7.3,16.2l-7.8,15.6l7.6,11.1l7.6,11.1l-3,0.3c-1.6,0.2-8-0.4-14.2-1.2
		c-18.5-2.6-17.7-2.8-30.1,6.9c-6,4.7-11.3,8.3-11.8,7.9c-0.5-0.3-0.9-6.9-0.9-14.7v-14.2l-12-12c-8.2-8.2-11.6-12.3-10.9-13
		c0.5-0.5,6.5-1.2,13.2-1.4c6.7-0.1,12.7-0.7,13.4-1.3c0.6-0.5,2.8-6,4.9-12.1c2-6.2,4-12.2,4.5-13.5C194.6,83,195.3,82,195.8,82z"
		/>
	<path id="path116" class="st16" d="M787.2,112.9c1.3,1.2,2.8,11.3,3.6,24.5c0.5,6.9,1.3,13.1,2,13.8c0.6,0.6,7.5,2.5,15.4,4.3
		c21.3,4.9,20.6,4.1,11.2,10.6c-4.3,3-12.7,8.5-18.6,12.3l-10.8,6.8v4.2c0,2.2,0.5,9.5,1.1,16c0.5,6.5,0.8,12.5,0.5,13.3
		c-0.6,1.4-6.4-2.4-25.5-17l-10.5-7.9l-5,0.6c-2.8,0.3-10,1.3-16.1,2.1c-6,0.8-12.5,1.5-14.4,1.5c-4.2,0-4.3,0.4,6.5-17.6
		c5.4-9,8.4-15.2,8.4-17c0-1.6-2-10.6-4.5-19.9c-4.1-15.6-5.2-21.5-4.1-21.5c0.3,0,7.3,3.6,15.7,8l15.2,8l4.1-3.4
		c2.2-1.9,8.8-7.7,14.6-12.9C781.8,116.5,786.8,112.5,787.2,112.9z"/>
	<path id="path118" class="st17" d="M83,234c0.4,0,3.1,5.6,6,12.4c2.9,6.9,5.8,12.7,6.5,12.9c0.6,0.3,6.2,0,12.3-0.6
		s11.4-0.8,11.8-0.4c0.4,0.4-3.7,6-9,12.6c-5.3,6.5-9.6,12.4-9.6,13c0,0.6,1.8,5.7,4,11.3c2.2,5.7,4,10.6,4,11s-6.4-1.5-14.2-4.2
		c-7.9-2.8-15.1-5-16-5s-6.9,2.5-13.2,5.7c-6.4,3.1-11.9,5.3-12.3,5c-0.3-0.4,0.6-5.7,2.1-11.9c1.4-6.2,2.6-12.5,2.6-14
		c0-1.7-2.9-7.1-7.5-14.2c-4.1-6.3-7.5-12-7.5-12.6c0-1.4,2.9-1.2,14,0.9c5.2,1,10,1.7,10.7,1.4c0.6-0.3,3.8-5,6.9-10.6
		c3.1-5.6,6.1-10.8,6.7-11.5C81.8,234.6,82.6,234,83,234z"/>
	<path id="path120" class="st14" d="M797.1,366.2c2.7,2.7,5.5,4.8,6.4,4.8c1,0,5.5-2.1,10.2-4.6c4.6-2.5,8.6-4.4,8.9-4.1
		c0.4,0.4-3.8,17.4-6.1,24.4c-0.2,0.7,2,6.1,5,11.9c3.1,5.9,5.3,10.9,5.1,11.1c-0.2,0.2-5.4-0.6-11.5-1.7
		c-6.1-1.2-11.6-1.8-12.3-1.4s-5.9,4.1-11.5,8.1c-5.6,3.9-10.5,6.8-10.7,6.4c-0.3-0.5-0.1-4.6,0.4-9.2c0.6-4.6,1-9.1,1-10
		s-2.6-3.3-5.7-5.4c-12.1-8-16.6-11.7-15.2-12.5c0.8-0.4,5.6-1.5,10.7-2.5c7.9-1.5,9.3-2.1,9.7-3.9c0.5-2.4,2.5-19.4,2.5-21.4
		C784,354.6,790.3,359.4,797.1,366.2z"/>
	<path id="path122" class="st15" d="M151.9,425c1.2,0,13.2,9.8,20.1,16.4c3.6,3.4,7.3,6.8,8.2,7.5c1.5,1.1,3.9,0.2,17.2-6.8
		c8.5-4.5,15.8-8.1,16.1-8.1c1,0-0.8,8.7-5.1,23.9c-2.4,8.4-4.4,16.2-4.4,17.3c0,2.5,2.2,6.6,11.4,21.8c6.5,10.7,7.3,12.5,5.8,13.1
		c-1.6,0.6-25.8-2.1-32.8-3.6c-4.1-0.9-4.9-0.5-23.8,13.7c-11.1,8.4-16.2,11.6-16.9,10.9c-0.7-0.7-0.6-5.6,0.5-16.3
		c0.9-8.4,1.4-15.8,1.1-16.5c-0.3-0.6-8.5-6.5-18.4-12.9c-9.8-6.5-17.9-12.1-17.9-12.5c0-0.5,1.9-1.3,4.3-1.9c2.3-0.6,5.6-1.5,7.2-2
		c1.7-0.5,6.9-1.7,11.7-2.6c4.8-0.9,9.3-2.3,9.9-3.1c0.7-0.7,1.8-7.7,2.5-15.6c0.8-7.8,1.6-16.1,2-18.5
		C150.9,426.9,151.5,425,151.9,425z"/>
	<path id="path124" class="st17" d="M676.1,449c0.5,0,3.9,5.2,7.6,11.5c3.7,6.3,7.2,11.6,7.9,11.9c0.6,0.2,6.4-0.6,12.8-1.8
		c6.4-1.3,11.8-2,12-1.7s-3.4,6.7-8,14.1s-8.3,13.9-8.1,14.5c1.4,3.7,6,24.5,5.6,25c-0.7,0.7-14-4.8-19.5-8
		c-2.4-1.4-5.1-2.5-6.1-2.5s-8,2.3-15.7,5.1c-7.6,2.7-14,4.8-14.3,4.5c-0.7-0.6,1.4-6.8,4.8-14.5c1.6-3.5,2.9-7.1,2.9-8
		s-4.3-6.8-9.5-13.1c-5.2-6.3-9.5-11.9-9.5-12.3s5.9-0.6,13.1-0.5l13.1,0.3l2-5c1.1-2.8,3.3-8.3,5-12.3
		C673.8,452.3,675.6,449,676.1,449z"/>
	<path id="path126" class="st16" d="M67,628.2c0.2,5.4,3.1,22.2,3.9,22.8c0.6,0.3,5.4,1.4,10.6,2.4s9.5,2.2,9.5,2.6
		c0,0.4-4.7,4.1-10.5,8.1c-6.1,4.3-10.8,8.3-11.1,9.6c-0.3,1.1-0.1,5.9,0.4,10.4c0.6,4.6,0.9,8.6,0.6,8.8c-0.2,0.2-3.6-1.9-7.6-4.8
		c-4-2.8-9-6.3-11.1-7.8l-3.8-2.6L36,679.6c-6.6,1.1-12,1.8-12,1.6c0-0.2,2.5-5.2,5.5-11l5.5-10.7l-3.5-12.4
		c-2-6.8-3.4-12.5-3.2-12.8c0.3-0.2,4.9,1.6,10.2,4.1l9.8,4.6l6.6-5.9c3.6-3.2,7.5-6.8,8.5-8C65.6,626.7,67,626.4,67,628.2z"/>
	<path d="M441.5,22.1c4.2-0.1,11.1,3.3,12.6,6.1c0.8,1.5,1.3,7.8,1.4,18.8c0.2,18.2,1.5,25.6,6.3,36.2c3.4,7.5,7.4,12.6,21.1,27.3
		c12.2,13.1,20.6,25.2,25.2,36.5c3,7.4,5,10.1,18.8,25.9c8.5,9.7,16.7,19.1,18.3,20.9l2.9,3.4l8.2-5c21.7-13.2,33.9-16.2,43.4-10.7
		c5.5,3.3,7.4,7.2,10.7,21.5c3.9,17.6,4.6,23.9,4.6,44.8v19.4l2.9,2.7c2.9,2.7,5.7,4.1,16.6,8.3c15,5.8,13.9,18-3.1,33.7l-7.8,7.1
		l3,3.1c3.9,4.3,11.3,8.9,14,8.9c6.1,0,6.8,2.7,2.8,10.9c-3.5,6.9-10.8,14-21.1,20.3c-4.6,2.8-8.6,5.4-8.8,5.9
		c-0.9,1.4,10.7,5.9,21.9,8.4c2.7,0.6,2.8,0.8,2.2,5.1c-0.7,5.3-5.5,16.9-9.8,23.9c-5.8,9.2-18.1,23.7-26.2,30.7
		c-15,12.9-35.2,25-55.1,32.8c-4.4,1.7-8.3,3.5-8.7,3.8c-1.9,1.9,30.4,51.7,52.6,81.2c16.5,21.9,50.4,65.5,53.6,68.9
		c1.8,1.9,3,2.2,5.9,1.8c2-0.3,8.6-1.1,14.6-1.7c6.1-0.6,12.4-1.5,14-1.8c4.4-1.1,6.5-5.9,6.5-15c0-7-0.1-7.4-3.9-11.5
		c-2.1-2.3-4.1-5.2-4.5-6.4c-2.8-9.1,16.7-20.9,33.3-20.1c6.8,0.3,7.5,0.6,10.2,3.6c3.5,3.9,3.7,7.3,0.7,14.4
		c-2,4.8-2.3,6.8-2.1,19.7c0.1,7.9,0.3,14.5,0.5,14.6c0.2,0.2,5.9,0.8,12.8,1.5c19.4,1.8,26.2,3.5,38.8,9.5
		c25,12.1,34.7,20.6,43.5,38.1c7.9,15.6,10.1,27,10.2,50.4c0,15.9-0.3,19.8-2.3,27.3c-4.7,18.9-13.9,35.2-28.1,50
		c-18.5,19.3-43.1,31.9-72.6,37.3c-14.1,2.6-41.6,1.5-55.3-2.1c-12-3.1-25-8.2-34-13.1c-13-7.3-28.9-21.1-38.7-33.8l-3-3.9l-8.4,4.2
		l-8.3,4.2l0.6,4.9c0.9,6.5-0.9,17.1-3.9,22.9c-7.2,14.2-21.1,20.3-53.5,23.2c-26.5,2.4-60.7-0.9-73.4-7.1
		c-4.3-2-11.7-9.1-12.8-12.1c-0.4-1-2.1,0.4-5.7,4.3c-8,8.8-19.7,13.6-38.9,15.8c-5.3,0.6-11.3,1.6-13.2,2.1
		c-4,1.2-29.4,0.6-41.5-0.9c-27.2-3.3-40.4-11-44.4-25.9c-1.1-3.9-1.3-4.1-6.2-4.7c-8.6-1.2-23.3-5.4-31.3-9
		c-27.3-12.5-47-37.2-55.2-69.4c-3.4-13.3-4.4-33.9-1.9-43.1c4.7-18.2,12.8-24.7,29.8-24c10.7,0.5,16.5,3.7,20.9,11.6
		c2.7,4.8,3,6.5,4.3,22.7c1.5,19.9,3.2,25.3,10,32c4,3.8,15.8,10.1,16.3,8.7c0.2-0.5-1.6-6.2-3.8-12.7c-3.9-11.4-6.1-20.4-7.5-30.5
		c-0.5-3.7-2-6.6-7.6-14c-3.8-5.2-8.6-11.2-10.7-13.3c-3.7-4-10.1-7.5-13.6-7.6c-4.9,0-23.7-11.8-24.4-15.2c-0.2-0.9,3.1-6,7.3-11.4
		c42.1-55,52.5-69.5,75.7-105.1c14.3-21.9,33.6-55,32.7-55.7c-0.2-0.1-2.6-1.1-5.4-2c-40-14.5-74-43.5-89-75.9
		c-6.1-13.3-5.8-16.6,1.9-16.8c2.2,0,6.3-1,8.9-2.2l4.9-2.2l-9.3-6.5c-14.4-10.1-20.6-15.6-23.9-21.3c-4.2-7.3-4-8.3,2.2-10.2
		c2.8-0.8,5.6-1.5,6.2-1.5s1.7-0.4,2.4-0.9c1.1-0.6,0.3-2.3-3.2-7.5c-10.5-15.3-8.3-24.1,8-32.1c6-3,9.5-5.7,16.4-12.8l8.8-9
		l0.5-26.1c0.3-18.5,0.9-28.7,2.1-35.1c4.6-24.2,8.9-31.8,19.8-34.5c8.2-2.1,20.5,2.4,37.5,13.6c4.4,3,8.3,5.4,8.6,5.4
		c0.2,0,7-7.4,15-16.4c11.3-12.7,15.2-16.4,17.6-16.9c2.6-0.6,3.6-1.8,7.1-8.6c5-10.1,8.4-21.7,11.5-39.6
		c7.8-45.2,33.8-84.6,61.9-93.5C435.8,23,439.9,22.1,441.5,22.1z M441.6,30c-15.5,0.2-37.2,20.3-50.4,46.5
		c-5.2,10.4-11,29.3-13.7,44.5c-3.1,17.7-4.4,22.6-10.1,35.9c-2.4,5.7-4.3,10.5-4.2,10.7c0.2,0.1,28.9-0.1,63.8-0.4l63.5-0.7
		l6.9-3.3c6.7-3.2,6.8-3.3,6.2-6.5c-0.9-4.6-6.7-16.5-11.5-23.5c-2.2-3.2-9.7-12.1-16.6-19.8c-7-7.6-14-15.8-15.6-18.1
		c-8-11.6-11.9-27.7-11.9-49.9c0-8.8-0.4-13.4-1.2-14.2C446.1,30.5,443.8,30,441.6,30z M510,166.3c-2.1-0.2-17.2,7.2-18.6,9.2
		c-1,1.3-1.3,10.4-1.3,36.6c0,19.2,0.3,34.9,0.7,34.9c0.4,0,7.7-0.9,16.2-2c8.5-1.1,16.1-2,16.8-2c0.8,0-0.3-3-2.8-8
		c-2.2-4.4-4-8.8-4-9.9c0-1.2,4.5-5.8,12.5-12.7l12.4-10.7l-4.8-5.6c-2.7-3.1-9.6-11-15.3-17.6C516.1,171.9,510.8,166.4,510,166.3z
		 M349.2,177.7c-8.2,8.5-22.7,25.4-22.7,26.5c0,0.7,5,5.6,11,11c7.3,6.5,11.1,10.6,11.3,12.2c0.2,1.4-0.9,4.8-2.3,7.6
		c-1.5,2.9-2.4,5.4-2.1,5.7c0.5,0.6,27.9,5.2,30.9,5.3c1.6,0,1.7-2.3,1.7-34.3v-34.3l-7.7-1.4C353.5,173.3,353.4,173.3,349.2,177.7z
		 M483,175h-49.5H384v42.5V260h49.5H483v-42.5V175z M581,188.4c-11.9,4.2-19.2,8.6-38,22.9c-13.2,10.1-17,13.6-17,16
		c0,2.6,3.2,7.8,4.5,7.3c0.5-0.2,7.7-5.4,15.8-11.5c15.5-11.6,30.3-19.8,37.3-20.8c6.3-0.8,8.6,2.6,11.4,17.4
		c1.9,10,2.2,14.9,2.1,32L597,272h3.5c2.2,0,4.3-0.8,5.5-2c1.8-1.8,2-3.3,2-16.8c0-22.4-4-52.4-8.1-60.3c-1-2.1-2.9-4.5-4.1-5.3
		C592.7,185.4,588.7,185.7,581,188.4z M278.5,187.3c-8.9-0.9-12.5,4.1-16.4,21.9c-2.9,13.6-4.1,26.7-4.1,44.8
		c0,17.9-0.5,16.7,7.7,18.3l3.1,0.6l-0.5-13.7c-0.7-16.5,0.8-31.5,4.3-43.7c3.6-12.7,6-14.3,16.1-10.9c5.1,1.7,12.6,6.7,34.2,22.7
		c7.3,5.4,13.7,9.5,14.2,9c2.2-2.2,3.7-6.7,2.9-8.4c-1.5-2.7-27-23.7-36.7-30.1c-4.7-3.2-11.1-6.7-14.2-7.9
		C286,188.7,281.3,187.5,278.5,187.3z M282.7,208c-3.2,0-4.8,4.8-7.3,22.1c-2.1,14.2-2.5,19.4-2,28.3c0.4,6,0.9,11.3,1.3,11.9
		c0.8,1.3,13.3,0.2,20.3-1.9c14.8-4.3,30.8-15.2,35.3-24l1.6-3.1l-8.7-7c-13.1-10.5-20.4-15.7-30.1-21.2
		C288.2,210.3,283.5,208,282.7,208z M576.5,210.2C565.6,215.9,534,238,534,240c0,1.5,7.1,10,12.2,14.4c9.1,8.1,24.3,14.1,40,16
		l4.7,0.5l0.7-5.6c1.1-9.4-0.3-42-2.1-48.8c-0.9-3.3-2.1-6.6-2.7-7.3C585.3,207.4,581.1,207.8,576.5,210.2z M339.8,248
		c-0.8,0-3.2,1.8-5.3,4.1c-16.8,17.3-48.2,29.7-69.4,27.4l-6.5-0.7l-9.5,10c-8,8.3-11,10.6-17.7,14c-7.6,3.8-13.4,8.8-13.4,11.5
		c0.1,5.7,9,15.9,20.6,23.7c10.3,6.8,17.6,9.1,31.1,9.7c13.6,0.7,24.6-1,48.1-7.3c77.9-20.9,102.5-22.6,181.2-12.2
		c38.8,5.1,81.5,5,98.5-0.3c3.5-1.1,8.9-3.8,12.2-6.3c7.8-5.7,27.1-25.9,27.9-29.1c0.9-3.8-1.5-5.9-10.4-9c-4.2-1.5-9.2-3.8-11-5.2
		c-3.3-2.5-3.4-2.5-7.3-0.8c-3.2,1.5-5.7,1.7-15.1,1.2c-22-1-42-9.4-57.6-24.1l-5.2-4.9l-15.8,1.8c-8.6,1-17.7,2.1-20.2,2.4
		l-4.5,0.6l-0.3,6.3l-0.3,6.2h-56.4H377v-6.4c0-6.2-0.1-6.5-2.7-7c-1.6-0.3-9.6-1.7-17.9-3.1C348,249.1,340.6,248,339.8,248z
		 M617.6,326.1c-0.6,0-4.7,2-9.1,4.5c-11.7,6.4-17,7.3-48.3,8.6l-27.2,1.2l0.6,7.1c2.3,25.4-17.9,46.6-44.6,46.6
		c-31.2,0.1-53.1-28.3-44-57.2c1-3.5,1.7-6.6,1.4-6.9c-0.9-0.9-33.8-1.1-35.2-0.2c-1,0.7-0.8,2,0.7,6.4c5.6,16.2,2.4,32.1-8.7,44.1
		c-8,8.6-16.9,12.9-29.4,14.2c-13.8,1.5-27-3.5-37.7-14.2c-7.9-7.9-11-14.7-11.9-25.6c-0.4-5.4-0.8-6.7-2.2-6.7
		c-0.9,0-8.2,1.3-16.1,2.9c-19.3,3.9-33.5,5.2-42.9,4c-9.9-1.2-12.8-2.2-23.7-8c-5-2.7-9.9-4.9-10.7-4.9c-2.1,0-10.6,4.2-10.6,5.2
		c0,2.3,8.9,9.7,21.5,18.1c16.1,10.6,17,11.9,10.6,16.5c-2.2,1.6-6.9,4-10.3,5.2c-3.5,1.3-6.7,2.6-7.1,3c-1.2,1,4.5,11.9,11.6,22.3
		c21.4,31.4,62.3,55.5,110.5,65.3c6.9,1.4,12.6,2.3,12.9,2.1c0.2-0.3-2.6-3.3-6.3-6.8c-4-3.9-7.9-8.8-9.7-12.4
		c-2.8-5.3-3.1-6.9-3.1-14.5c0-7.6,0.3-9.2,3.1-14.5c1.7-3.3,4.7-7.9,6.7-10.1c4.5-5.3,15.4-12.7,23.1-15.8c3.2-1.4,7.6-4,9.6-6
		c4.7-4.4,11-6.3,25.6-7.5c17.3-1.5,35.4,1.1,41.6,5.9c1.5,1.2,6.9,3.8,12,5.9c12,4.9,18.8,9.3,25.8,16.7
		c8.4,8.9,10.4,13.8,10.4,25.4c0,11.4-1.9,16-10.4,25.2c-2.9,3.2-5.1,5.8-4.8,5.8c2.8,0,29-6.8,38.4-9.9
		c27.7-9.2,47.3-19.9,65.5-35.5c14-12,27.5-29.8,32.7-43.3l2-5.2l-5.5-1.6c-11.5-3.3-22.4-10.1-22.4-13.9c0-1.6,4.9-5.1,16.4-11.7
		c6.3-3.6,17.6-14.1,17.6-16.1c0-0.7-3.9-4.1-8.6-7.6C622.6,328.8,618.3,326,617.6,326.1z M456.8,330.4c-3.3-0.6-4.9,1.6-7.3,10
		c-2.4,8.4-1.6,16.9,2.4,25c1.7,3.4,4,7.1,5.1,8.1c2.1,1.9,2.1,1.9,0.9-1c-0.6-1.7-1.1-6-1.2-9.7c0-11.4,5.7-20.4,17.2-26.6
		c5.3-2.9,5.3-3,2.5-3.6c-1.6-0.3-6-0.8-9.9-1.1C462.7,331.1,458.3,330.7,456.8,330.4z M403.5,331.5l-6-0.1
		c-6.3-0.1-11.3,0.3-15.5,1.2c-2.4,0.5-2.4,0.6,1.4,2.9c9.1,5.5,14.1,12.6,15.7,22.3c1.3,7.9-0.4,15.1-4.7,20.7
		c-1.8,2.5-3,4.5-2.4,4.5c2,0,10.9-10.1,13.4-15.2c5.4-11.2,5.5-21.6,0.3-31.9L403.5,331.5z M356.9,337.9
		c-11.1,4.4-17.5,13.5-17.3,24.6c0.1,7.4,2.6,12.5,8.9,18.4c6,5.5,10,7.1,18.1,7.1c8.6,0,13.1-1.4,19-5.9c9.4-7.1,13-19.7,8.5-29.8
		c-2.3-4.9-8.7-11.4-13.9-13.9C374.8,335.7,362.8,335.5,356.9,337.9z M461.4,355.7c-5.2,17.8,9.3,34.3,29.1,33.1
		c14.6-1,25.1-10.7,26.3-24.6c0.4-4.4,0-6.3-2.7-11.7c-3.6-7.3-8.4-11.7-15-14C483.5,333.2,465.6,341.4,461.4,355.7z M514.9,337.5
		l-9.4-0.7l4.3,3.7c8.8,7.6,12.3,18.1,9.8,29c-0.8,3.3-1.3,6.1-1.1,6.3c1,1.1,6.8-9.1,8.7-15.1c2.7-9,1.8-20.7-1.6-22
		C524.9,338.4,520.1,337.9,514.9,337.5z M341.4,342.1c-5.4,0.3-12.1,3.4-12.9,5.9c-0.8,2.4,2,14.1,4.5,19c1.1,2.2,2.2,4,2.4,4
		c0.2,0,0.3-3.5,0.3-7.8c0-7.9,2.2-15.2,6-19.4C343.2,342.1,343.2,342,341.4,342.1z M409.1,399.1c-2.9,0.5-7.4,1.8-9.9,2.9l-4.6,2
		l4,4.1c2.1,2.2,6.8,5.4,10.3,7.2c5.7,2.8,7.5,3.2,15,3.2c7.3,0,9.5-0.4,14.6-2.8c6.1-2.9,16.5-10.1,16.5-11.6
		c0-1.4-7.2-4.1-13.5-5.1C434.3,397.8,416.6,397.9,409.1,399.1z M393.1,411.5l-4.7-5.2l-8.5,5.1c-21.6,13-26.8,19.8-26.8,35.1
		c-0.1,11.2,4.6,19.3,15.3,27c17.7,12.5,38.7,18.7,57.5,17c4.7-0.4,11.8-0.7,15.6-0.6c6.1,0.2,8.5-0.4,19-4.3
		c6.5-2.6,12.7-4.6,13.6-4.6c2.7,0,16.4-9.6,20.4-14.2c5.9-6.9,7.9-12.3,8-20.8c0-9.6-2.6-15.2-10.9-23.5
		c-6.8-6.8-12.6-10.4-22.1-14L463,406l-4.9,4.4c-6.8,6-13.1,9.6-22.6,12.8l-8,2.7l-0.3,10.5l-0.3,10.5l3.8,4.2
		c4.5,5,12.3,8.9,17.8,8.9c5.1,0,11.1-2.8,15.4-7c3.4-3.5,3.6-4.7,1.5-11.8c-1-3.4,2.2-2.8,4.1,0.7c2.1,4.1,5.3,6.1,9.7,6.1
		c7.3,0,5.4,3.4-2.5,4.2c-3.8,0.5-5.6,1.4-9.3,4.8c-5.9,5.4-11.6,8-18,8c-8,0-15.2-2.8-20.6-8l-4.7-4.5l-3.8,3.3
		c-6.8,5.8-13.8,8.6-21.2,8.6c-7.8-0.1-13.8-2.6-19.8-8.3c-3.7-3.6-4.3-3.8-7.9-3.2c-2.2,0.4-4.5,0.6-5.2,0.3
		c-2.4-0.8-1.1-3.1,2.6-4.3c4.8-1.5,5.9-2.5,8.3-7.1c3.2-6.3,5.5-4.3,3.6,3.2l-1.2,4.2l4.2,3.7c7.6,6.8,18.3,8.1,26.8,3.2
		c2.8-1.6,6.5-4.5,8.4-6.5l3.5-3.6l-0.3-9.7c-0.1-5.4-0.5-10.1-0.9-10.4c-0.4-0.4-2.9-1.2-5.7-1.8c-2.7-0.7-7.8-2.6-11.3-4.3
		C400.3,417.9,396.1,414.7,393.1,411.5z M528,476.1c-1.4,0-9.5,1.9-18,4.1l-15.5,3.9v18.5v18.5l6.5,4.8c3.7,2.7,9.4,8.4,13.3,13.3
		c7.3,9.2,8,9.8,13.4,9.8c9.9,0,24.6,6.4,36.4,15.8c9,7.1,13.7,12.2,19.5,21.3c14.9,23,13.6,47.1-3.5,63.1
		c-10.2,9.6-23.5,14.8-37.8,14.8H538v21.9v21.9l3.1,1.1c7.1,2.4,8.8,1.7,17.9-7.4c4.6-4.7,10.3-9.4,12.6-10.4
		c3.7-1.8,4.3-2.6,6.3-8.7c4.8-14.7,12.9-26.9,23.8-35.9c6.6-5.4,21-13.4,30.6-17c2.6-1,4.7-2,4.7-2.4c0-0.3-6.6-8.9-14.6-19.1
		c-20.5-26-54.4-71.2-64.6-86c-9.9-14.5-19.3-30-24-39.4C531.1,477,530.2,476,528,476.1z M336.4,480.7c-3.4-0.8-6.6-1.2-7.1-0.8
		c-0.5,0.3-3.3,5.1-6.2,10.6c-18.8,35.4-53.3,86.9-91.1,135.8c-8.8,11.4-16,21-16,21.3c0,1.4,12.7,8.4,17.3,9.4
		c10.3,2.5,13.9,5.3,24,19.1c8.5,11.6,14.1,15.9,20.8,15.9c7.6,0,12.2,2.3,26.5,13.1c9.5,7.1,15.6,11,18,11.5
		c4.4,0.8,15.4-1.4,16.1-3.3c0.3-0.7-0.2-10-1.1-20.6c-0.9-10.6-1.6-20.2-1.6-21.4c0-2.2-0.2-2.3-7.2-1.7
		c-9.8,0.8-17.7-0.8-27.4-5.6c-12.8-6.2-20.7-16.2-23.5-29.3c-1.6-7.2-0.5-22.7,2.1-31.2c4.1-13.1,12.2-26.3,22.1-36.4
		c10.8-10.9,23-16.4,36.8-16.5l8.5-0.1l5.7-8c3.1-4.4,8.5-10.7,11.9-13.9l6.2-6l-1.6-9.7c-1.8-11.2-2-16-0.7-20.6
		c0.6-2,0.6-3.5,0-3.8c-0.5-0.3-6.6-1.9-13.6-3.5C348.2,483.4,339.7,481.5,336.4,480.7z M480.8,485.1c-8.1,0.1-11.2,1-23.1,6.6
		c-6.9,3.3-9.7,5.1-9.5,6.2c0.5,2.3,13.3,1.8,21.2-0.9c6.1-2.1,16.6-8.6,17.4-10.8C487.1,485.3,485.3,485,480.8,485.1z M386,490.4
		c-12.5-0.5-13.9,0.8-5.7,5.4c7.7,4.4,14.9,6.2,24.6,6.2c15.2,0,14.6-2.7-1.8-8.1C396.4,491.6,391.2,490.6,386,490.4z M489.4,492.2
		c-0.5,0-5.2,2.3-10.4,5c-7.9,4-11.2,5.1-19.3,6.3c-5.3,0.8-10.1,1.6-10.6,1.9c-0.4,0.3-1.6,3.5-2.6,7.2l-1.8,6.7l2.2,1.8
		c6.2,5,25,8.5,35.6,6.5c5.6-1.1,6.4-3.3,7.2-20.4C490,498.3,489.9,492.1,489.4,492.2z M429.4,494.9c-7.6,0.9-8.8,2.3-8,9.3
		c0.9,8.9,5.7,16.8,10,16.8c3.4,0,8.1-3.5,9.9-7.3c1.1-2.2,1.7-6,1.7-10c0-5.7-0.3-6.8-2.2-8.1C438.5,493.9,437.7,493.9,429.4,494.9
		z M372.7,497.2c-0.7-0.4-0.6,0.8,1.3,14.3c1.2,8.9,3.6,17,5.6,19c2,2,15.8,2,23.1,0.1c6.6-1.8,13.7-5.3,16.4-8.3l2.2-2.3l-2.4-7
		l-2.4-7.1l-7.5,0.6c-9.5,0.8-20.1-1.3-29-5.7C376.4,499,373.2,497.3,372.7,497.2z M440.3,523c-0.9,0.1-7.5,2.9-8.1,3.5
		c-0.2,0.2,2.1,6.6,5.2,14.3c3.1,7.6,6.8,17.9,8.2,22.8c1.4,4.9,2.8,9.3,3.1,9.8c0.3,0.5,1.4-1.3,2.4-3.9c2.4-6.3,5.2-9.1,12.4-12.6
		c6.3-3,16.5-11.2,16.5-13.3c0-0.7-2.1-2.2-4.7-3.5c-2.7-1.2-6.8-3.5-9.3-5.1c-2.5-1.6-7.3-3.8-10.8-5c-3.5-1.1-8.1-3.2-10.3-4.5
		C442.8,524.1,440.7,523,440.3,523z M423.2,525.3c-0.7,0.8-5,3.7-9.6,6.5s-9.8,6.9-11.5,9.1c-1.7,2.1-5.3,5.6-8.1,7.7l-4.9,3.8
		l5.6,3.4c3.2,1.9,10.5,7,16.3,11.5c5.8,4.4,11,8.4,11.5,8.8c0.7,0.5,1-4.5,1-14.4c0-13.2,0.3-16.2,2.4-22.9c1.8-6,2.2-8.5,1.5-11
		C426.3,524.2,424.8,523.3,423.2,525.3z M489,529.9c-0.8,0.6-3.7,1.2-6.5,1.6c-2.7,0.3-6.3,0.9-8,1.2c-2.9,0.5-2.9,0.6,2.5,3.4
		c3,1.5,6.7,2.8,8.3,2.9c4.6,0,3.3,3.1-4.6,10.7c-4.8,4.7-9.5,8.2-13.8,10.2c-3.6,1.7-7.3,3.9-8.2,4.8c-0.8,1-3.1,5.5-5.1,10.1
		l-3.5,8.3l2.2,0.8c1.2,0.5,6.4,2.8,11.6,5c9.6,4.3,11,4.3,11.1,0c0-0.9,1.6-4.8,3.5-8.6c5.5-11,18.5-23.3,30-28.4
		c2.5-1.1,4.5-2.2,4.5-2.5c0-1.1-12.2-13.9-16.2-17.2C492.5,528.8,491.4,528.5,489,529.9z M379.1,537.3l-3.1-3.1l-3.1-3.1l-4.2,4.2
		c-4.4,4.3-14.2,17.5-13.6,18.1c0.2,0.2,3.6,2,7.4,3.9c15,7.5,23.8,17.6,27.1,31.1c0.9,3.9,1.8,7.2,1.9,7.4s4.2-1.7,9.1-4.1
		c4.9-2.5,11.6-5.2,14.9-6.1c11-3.1,10.1-2.7,7.9-3.9c-1-0.5-8.3-5.7-16-11.4c-14-10.2-19.4-13.3-23.3-13.3c-2.6,0-3.4-1.5-2.2-3.7
		c0.5-1,4.5-4.9,9-8.7c4.4-3.8,7.8-7.2,7.6-7.6c-0.2-0.4-4.7-0.5-9.9-0.2L379.1,537.3z M431,539c-2.7,0-4.4,24.1-2.6,37.2l0.7,5.8
		h8.5c7.7,0,8.5-0.2,8-1.8c-0.2-0.9-1.9-7.1-3.6-13.7s-4.7-15.5-6.7-19.8C433.3,542.5,431.4,539,431,539z M517.2,557.1
		c-6.7,1.3-14.1,5.8-21.8,13.4c-15.5,15.3-18.2,31.8-8.2,49.4c3.5,6,16.3,20.1,18.4,20.1c4,0,11.3-10.3,11.4-16.1
		c0-3.2,0.9-4.2,2.7-2.8c3.1,2.6,0.4,11.4-5.4,17.9l-4.3,4.8l2.9,2.1c5.4,3.9,16.3,8.4,21.3,8.9c3.8,0.4,5.3,0.1,6.9-1.4
		c2.9-2.6,5.5-8.1,6.3-13.3c0.9-5.6,1.4-6.5,3.2-5c2.1,1.7,1.7,5.6-1.2,12.4c-4.3,10.1-4.6,9.5,3.3,7.9c3.7-0.8,9.2-2.6,12-4.1
		c6.4-3.2,16.1-13.1,19.2-19.6c7-14.4,1.1-35-14.7-51.8c-12-12.8-23.2-19.7-36-22.5C525.8,555.9,523.5,555.8,517.2,557.1z
		 M339.7,558.3c-13.7-0.6-21.6,3.5-35.1,17.8c-9.8,10.4-16.6,23.7-19.2,37.4c-2.9,15.7-0.5,26.1,8.2,35.4
		c8.6,9.3,23.9,15.3,34.6,13.7c6.9-1.1,7.7-2,4.1-5c-3.5-2.9-7.3-10-7.3-13.5c0-3.4,2-2.2,5.7,3.3c4.8,7.3,8.3,10.6,11.4,10.6
		c3.5,0,12.9-6.4,19.8-13.4l5.5-5.5l-3.6-1.5c-7.6-3.2-12.8-9.6-12.8-15.7c0-3.1,0-3.2,2-1.4c1.1,1,2,2.4,2,3.1
		c0,1.9,4.9,7.3,8.1,8.9c4.8,2.5,7.4,1.9,10.3-2.5c6.8-10.4,10-21.6,9.4-33.6c-0.7-14.7-8.2-24.6-25.3-33
		C348.9,559.1,347.2,558.6,339.7,558.3z M697.9,574.5c-6.3,2-14.2,7.6-15.3,10.8c-0.9,2.3-0.5,3.2,2.1,6c4.7,4.9,5.3,6.8,5.3,16.4
		s-1.8,15-6.1,19c-3.1,2.9-9,5.3-12.9,5.3s-3.8,1.3,0.4,3.9c6.4,4,14.1,1.8,18.4-5c5-8.3,7-26.1,3.8-34.8c-1.8-5-2-7.1-0.6-7.1
		c2.1,0,5.3,8.6,5.8,15.5c0.4,6.7,0,9.9-2.9,22.7c-1.1,5.1-1.1,6.2,0.4,9.3c1.5,3.1,6.7,7.5,9,7.5c1.1,0,0.9-15.5-0.4-24.8
		c-0.8-6.1-0.8-11.4,0.1-20.5c1.3-14.3,1.6-15.7,3.7-15.7c1.3,0,1.4,0.9,0.7,5.7c-0.5,3.2-0.9,12.8-0.9,21.3
		c0,14.2,0.2,15.9,2.3,20.2c4,8.1,12.9,11.7,20.7,8.3l4-1.7l-7.4-2.7c-12.8-4.8-14.5-8.5-14.6-31.6c0-8.9,0.4-12.4,2.4-18.3
		c2.2-6.8,2.3-7.5,0.8-9C714.4,573,703.9,572.6,697.9,574.5z M421,592.6c-6.7,1.8-17.5,6.8-25.1,11.7c-5,3.2-5.8,4.1-6.8,8.4
		c-1.9,7.2-6.8,17.9-11.9,25.5l-4.5,6.8l2.8,9.3c1.5,5,3,9.4,3.2,9.6c0.2,0.3,3.6-1.2,7.6-3.2c5.9-3.1,9.2-4,18.2-5.2
		c17.4-2.3,41.4-2.9,54.9-1.6c14.1,1.5,20.3,3,30.8,7.6c4.4,1.9,8.5,3.2,9.2,2.9c1.1-0.4,6.6-10.5,6.6-12c0-0.4-5.1-5.6-11.3-11.8
		c-12-11.8-16.1-18.1-19.2-29.1c-1-3.3-2.4-6.8-3.2-7.7c-2.4-2.7-16.4-9.6-22.9-11.3C442.1,590.6,428.3,590.7,421,592.6z M726,627.9
		c0,0.5,3.8,1.7,8.5,2.6c4.7,1,8.8,2.2,9.1,2.7c2,3.2-6.8,10.3-14.1,11.4c-3.8,0.5-10.4-0.7-16.8-3.2c-1.1-0.4-1.4,0.4-1.3,3.3
		c0.1,3.5-0.1,3.8-2.9,4.1c-4.9,0.6-10.1-1.6-13.9-5.8l-3.6-4l-3.7,2c-9,4.8-21.9,0.3-26.9-9.3c-1.1-2-2-2.6-3.7-2.3
		c-24.6,5-40.6,12.2-53.7,24.4c-14.6,13.4-21.1,28.8-24,56.7c-3,29.5,7.3,59.7,27.6,80.7c28.4,29.4,66.3,43,106.5,38.3
		c15.4-1.8,24.8-4.2,37.2-9.5c39-16.8,64.6-49.9,68.6-88.5c1.9-18.5-2.3-43.8-9.8-59c-11.4-23.1-38.1-39.7-70.7-44
		C724.8,626.7,726,626.8,726,627.9z M365.1,654c-1.3,0.1-20.6,12.2-21.3,13.4c-0.4,0.8-0.1,9.4,0.8,19.2c0.9,9.9,1.7,21.3,1.8,25.4
		l0.1,7.5l-6,1.9c-3.3,1-6.1,1.9-6.2,2.1c-0.2,0.1,1.4,5.3,3.5,11.6c3.8,11.2,3.9,11.4,6.8,11.1c7.5-0.6,9.6-1.3,9-2.9
		c-2.1-5.4-3.8-20.7-3.3-29.8c0.9-16.9,6.2-29.7,16.5-39.9l5-4.8l-3-7.4C367.1,657.3,365.5,654,365.1,654z M521.3,658.7l-7.2-2.6
		l-3.6,6.7c-1.9,3.6-3.5,7.1-3.5,7.6s2.1,3.1,4.6,5.8c11.7,12.5,17.3,38.1,12.8,58.3c-0.9,3.8-1.6,7.6-1.7,8.4
		c-0.1,0.9,2.6,2.1,8.3,3.7c4.7,1.3,9,2.3,9.7,2.4c2.4,0,21.6-35.1,19.9-36.7c-0.3-0.3-1.9,0.6-3.6,2.1c-4,3.3-8,3.6-18.7,1.5
		c-8.8-1.7-8.5-0.7-7.7-28.3c0.6-20,0.5-24.3-0.7-25.2C529.1,661.8,525.3,660.2,521.3,658.7z M420.5,659.1c-11,0.9-27.3,3.8-28,4.9
		c-0.5,0.8,0.4,1,17.5,3.7c14.9,2.4,41.9,2.3,57.7-0.1c17.5-2.7,18.6-4,5.7-6.2c-4.2-0.7-12.9-1.8-19.3-2.4
		C441.1,657.9,433.7,657.9,420.5,659.1z M483.3,669.5c-8,3.6-20.7,4.7-49.8,4.3c-24.6-0.4-29.2-0.8-37.8-2.7
		c-5.4-1.3-10-2.1-10.3-1.8c-0.3,0.2,0.5,2.3,1.6,4.5c4.4,8.4-0.1,10.9-7.4,4.2l-4.5-4.2l-3.3,3.7c-11.3,12.7-15.3,23.2-15.2,40.5
		c0,19.3,4.7,31.7,16.8,44.7c16.3,17.5,35.3,26,60.4,27.1c27.5,1.2,50.8-7.8,68-26.3c12.5-13.3,17.6-26.2,17.5-44
		c0-17-4.2-29.8-12.8-39.2c-4.1-4.5-4.5-4.7-6.7-3.4c-7.7,4.8-7.7,4.8-9.9,2.2c-1-1.3-1.9-2.7-1.9-3.1c0-1.1,2.5-3.6,4.8-4.9
		c0.9-0.5,1.4-1.2,1.1-1.6C492.5,668.2,486.3,668.2,483.3,669.5z M215.8,674.4c-6.2,1.7-11.6,6-13.9,11.1c-4.4,9.9-4.8,28.2-1,44
		c9.8,40.6,35.8,66.6,74.6,74.6c4.9,1,9,1.7,9.1,1.6s0.9-4.2,1.7-9c1-5.6,2.8-11.3,5-15.8l3.5-7l-7-10.2c-3.9-5.6-7.8-10.6-8.7-11.2
		c-0.9-0.5-4.6-1.9-8.3-3.1c-12.6-4-21.8-11.7-26.5-22.1c-2.2-4.7-2.7-7.7-3.5-21.6c-0.8-14.5-1.2-16.8-3.6-21.7
		c-2-4.1-3.7-6-6.7-7.6C225.1,673.5,221.3,673,215.8,674.4z M277,699.4l-7.3-0.7l0.7,3.9c2.8,16,9.2,34,16.2,45.8
		c4.4,7.5,12.6,18.5,13.7,18.6c0.5,0,3-1.8,5.5-4.1c5.9-5.2,14.8-10.1,23.5-12.9c3.7-1.2,6.7-2.4,6.7-2.7s-1.6-5.6-3.5-11.8
		l-3.5-11.2l-5.9-0.6c-7.9-0.7-11-2.3-22.4-12.1c-5.4-4.6-11.3-9.1-13.1-10C285.8,700.7,281,699.7,277,699.4z M573.1,719.5
		c-0.7-24.5,0.3-24.6-11.1,1.7c-3.9,9.2-9.2,19.9-11.5,23.8l-4.4,7l2.8,1.4c7.7,4,17.6,14.9,21.3,23.6c1.1,2.4,2.1,4.6,2.3,4.8
		c0.4,0.5,12.2-5.6,12.9-6.6c0.3-0.5-1.3-5-3.4-9.9c-2.2-5-5-12.6-6.1-16.9C574.2,742.1,573.6,736.3,573.1,719.5z M356.2,752.1
		c-9.3,1.3-17.9,3-22.7,4.3c-24.8,7.2-41.9,28.4-40.2,50c0.7,9.5,3,14.8,8.5,19.6c4.8,4.3,12.6,7.2,23.5,8.8l5.7,0.9l-0.2-15.1
		c-0.2-13.3,0.1-15.9,2-21.8c2.4-7.2,3.1-8.1,5.1-6.9c0.9,0.6,0.7,2.2-1.1,7.2c-1.8,5.2-2.2,8.4-2.2,17.4c0,6,0.6,12.9,1.3,15.3
		l1.2,4.2l22.2-0.1c12.2-0.1,23.3-0.4,24.7-0.8c3.7-1,5.3-6.7,5.4-18.6c0.1-8.9-0.2-10.9-2.8-17.3c-1.6-4-2.6-7.5-2.3-7.8
		c1.5-1.5,4,1,6.5,6.3c2.2,5,2.6,7.2,2.7,15.3c0,5.2-0.2,12-0.4,15c-0.5,6.3-1,6.2,10,3c13.3-3.9,21.4-12.7,22.6-24.4
		c1-9.7,0.8-10-11.3-12.9c-12.5-3.1-26-9.4-35.8-16.8c-5.9-4.5-13.1-12.6-19.9-22.3C357.7,753.2,356.6,752,356.2,752.1z
		 M515.5,756.7c-6.6,10.6-21.2,23.7-32.5,29.3c-5.6,2.8-5.5,2.7-4.1,4.3c0.8,1.1,0.6,2.8-1,7.3c-1.6,4.4-2.2,8.4-2.2,15.9
		c-0.1,13.7,0.9,19.3,3.6,20.6c1.4,0.6,10.6,0.7,25.2,0.2l22.9-0.8l1.9-6c2.7-8.8,2-21.7-1.8-30.7c-1.6-3.8-2.6-7-2.3-7.4
		c1.4-1.3,4.7,1.9,6.9,6.8c2.2,4.9,2.4,6.5,2.3,20.6c-0.1,13.5,0.1,15.2,1.5,14.8c15-4.1,21.7-7.6,26-13.7c6.8-9.3,6.7-27.9,0-41.1
		c-5-9.8-19.2-19.7-33.4-23.3C519.6,751.2,518.9,751.4,515.5,756.7z M473.9,790c-3.6,2.1-18.9,5.2-28.7,5.8l-10.7,0.7l-0.3,5.3
		c-0.2,2.9,0.4,7.9,1.3,11c2.1,7.1,8.8,14.1,16.1,16.6c5.1,1.8,20.5,4.8,21.1,4.2c0.2-0.2-0.1-5.2-0.8-11
		c-1.3-12.1-0.3-21.8,3.1-28.9c1.1-2.2,2-4.2,2-4.4C477,788.7,475.5,789.1,473.9,790z"/>
	<path d="M401,194h32h32v23v23h-31.4h-31.3l-0.7-9.2c-0.3-5-0.6-15.3-0.6-23V194z M459,201h-25.5H408l0.2,16.2l0.3,16.3l25.3,0.3
		L459,234v-16.5V201z"/>
	<path d="M386.5,360.2c6.3,15.3-9,30.6-24.2,24.3c-5-2.1-7.2-4.2-9.4-9c-4.7-10.3,0.2-22.2,10.8-26.1
		C372.6,346.2,382.5,350.9,386.5,360.2z M369.5,356.5c-4.8,4.7-2.2,11.5,4.4,11.5c4.5,0,7.1-2.4,7.1-6.6c0-3.5-0.8-4.7-3.7-6.3
		C374,353.4,372.2,353.7,369.5,356.5z"/>
	<path d="M500.5,351.4c4.6,3.6,6.5,7.9,6.5,15.2c0,10.1-6.3,17.2-16,18.2c-6.5,0.6-9.3-0.2-13.5-4c-4.9-4.2-6.5-7.7-6.5-14
		c0-7.3,3.2-13.6,8.5-16.6C485.4,346.8,495.2,347.4,500.5,351.4z M488,364.8c3,3.2,7.3,2.9,10.3-0.7c2.9-3.5,2.6-7.3-0.6-9.6
		C490.4,349.4,482.1,358.4,488,364.8z"/>
	<path d="M693.2,656.8c-0.7,3.2-1.2,9.3-1.2,13.5c0,7.7-0.6,9.2-3.3,8.1c-3.8-1.4-2.1-22.8,2.1-27.7
		C693.5,647.6,694.6,650.3,693.2,656.8z"/>
	<path d="M656.5,655.9c0,0.9-2.7,2.3-6.8,3.7c-10.1,3.4-17.4,8-25.3,15.8c-13.8,13.8-19.2,27.6-22,55.9c-0.5,4.7-0.9,5.8-2.2,5.5
		c-1.4-0.3-1.8-1.8-2-8.3c-0.3-9.1,1.7-20.6,5.4-30.4c7-18.5,22.4-34.7,40.4-42.2C649.2,653.8,656.5,653.7,656.5,655.9z"/>
	<path d="M774,678.2c5.1,7.7,7.9,15.4,9.6,26.3c2.4,15.4,1.6,21.6-2.1,18.5c-1-0.9-1.5-3.2-1.5-7.4c-0.1-21.1-12.9-43.8-30.3-53.6
		c-6-3.4-8.7-6.4-6.4-7.3C748.5,652.6,765.6,665.7,774,678.2z"/>
	<path d="M740.2,682.8c9.9,10.9,10.2,29,0.7,40.5c-3.2,3.9-11.4,8.7-14.9,8.7c-2.3,0-2.4,0.6-0.9,6.4c2.9,11.7-7.8,24-22.1,25.3
		c-11.6,1.1-23.1-5-26.6-14.2c-1.2-3.4-1.5-6.1-1.1-10.5l0.7-6h-4.3c-5.9-0.1-11.6-2.9-16.4-8.4c-5-5.7-7.3-11.9-7.3-20
		c0-8,1.3-12.4,5.4-18.3c6.7-9.7,19.3-13,30.1-7.9c5.6,2.6,8.3,5.2,11.8,11.4l2.4,4.4l2.2-4.4c3.9-8.1,10.3-13.2,18.4-14.7
		C726.7,673.7,734.4,676.3,740.2,682.8z M662.2,684.7c-10.6,8-12.6,22.5-4.9,34c7.2,10.7,19.7,12.5,28.5,4c7.8-7.5,10-14.9,7.2-23.9
		c-2.4-7.6-6-12.9-10.8-15.5C675.1,679.3,668.7,679.7,662.2,684.7z M714,681.8c-4.5,2.5-9.6,9.2-11.1,14.5
		c-1.5,5.7-0.7,14.5,1.7,19.3c3.3,6.3,15.7,12.3,22.8,11c5.1-1,9.4-5.1,12.7-12.1c3.9-8.1,3.9-14,0-22.2c-2.2-4.5-4.1-6.9-7.1-8.9
		C727.5,679.7,719.1,679,714,681.8z M699.1,715.5c-0.8-1.9-0.8-1.9-1.9,0.2c-1.7,3.1-1.5,4.3,0.8,4.3c1.1,0,2-0.6,1.9-1.3
		C699.9,718.1,699.5,716.6,699.1,715.5z M694.9,724.9c-10.9,3.4-17.5,12.6-14.9,20.7c2.7,8.1,10.4,13.3,19.8,13.4
		c14.4,0,25.2-12.4,19.7-22.9c-2.2-4.4-9.1-9.8-14-11C700.6,723.9,698.6,723.8,694.9,724.9z"/>
	<path d="M674.2,688c4.4,0,5.4,0.4,8.5,3.5c3.2,3.2,3.5,3.9,3,7.8c-0.8,5.7-5.2,9.7-10.8,9.7c-5.5,0-9.8-2.4-11.5-6.7
		c-1.9-4.3-0.5-9.3,3.3-12.3C668.5,688.6,670.8,688,674.2,688z"/>
	<path d="M729.4,688.1c3.4,1.6,6,7.2,5.2,11.4c-1.6,8.3-13.6,11.7-19.7,5.6c-2.3-2.3-2.9-3.8-2.9-7.1c0-5.1,1.2-7.5,4.8-9.4
		C720.1,686.8,726,686.6,729.4,688.1z"/>
	<path d="M646.3,747.2c0.6,0.3,3.3,4.5,5.9,9.4c7,13.1,11.3,16.3,24.5,18l5.2,0.6l0.3,6.2l0.3,6.1l3-0.4c5.4-0.6,6.5-1.7,5.4-5.3
		c-2-7.1-2.4-6.9,15.9-10.2c17.4-3.1,25.7-7.6,31.8-17.2c1.9-3,4.1-5.3,4.7-5.1c2.2,0.7,2,18.9-0.3,28
		c-4.1,16.4-10.4,25.8-19.5,29.3c-5.9,2.2-7.5,1.4-9.5-4.9c-1.1-3.5-2-4.7-3.5-4.7c-3.9,0-5,1.7-5,7.3c0,8.4-1,9.1-13,8.4
		c-25.7-1.4-41.8-12.3-46.9-32.1c-2-7.6-3.1-27.4-1.7-30.9C644.5,748.1,645.6,747,646.3,747.2z M653.4,768.6l-5.6-6.1l0.6,6
		c1.6,13.6,6.7,24.4,14,29.4c9.5,6.5,34.4,12.5,37.3,9c0.7-0.9,0.9-2.9,0.4-5.5c-0.5-2.3-0.4-4.9,0-5.7c0.5-0.8,3.8-2.3,7.4-3.2
		c7.7-2.1,8.7-1.6,10.4,5c1.5,6,3.8,5.9,10-0.3c5.2-5.2,8.2-11.8,10.7-23.2c2.4-11.4,2.4-11.5-5.1-6.4c-6.8,4.5-18.3,8.7-27,9.9
		c-11.2,1.4-10.5,1-10.3,7.3l0.3,5.5l-8.9,1.4c-4.9,0.7-9.3,1-9.9,0.6c-0.5-0.3-0.7-3-0.4-6.3l0.5-5.7l-5.7-1.3
		c-3.1-0.7-7.3-1.9-9.4-2.7C660.6,775.4,656.5,772.1,653.4,768.6z"/>
	<path d="M470.1,708.3c6.3,9.8,6.2,9.6,4.9,11.2c-1.6,2-19.8,2.1-22.3,0.2c-1.6-1.1-1.3-2,3.4-9.7c2.8-4.7,5.6-8.8,6.2-9.2
		C464.1,699.7,465.4,700.9,470.1,708.3z"/>
	<path d="M422.9,712.5c5.4,9,5.9,8.5-7.8,8.5c-11,0-12.1-0.2-12.1-1.8c0-2,8.5-16.2,10.3-17.4C414.7,700.9,418.5,705.1,422.9,712.5z
		"/>
	<path d="M440.3,725c1.5,0,11.9,15.3,12.1,17.8c0.1,1.5-1.3,1.7-11.3,2c-6.3,0.1-11.8-0.1-12.4-0.7c-1-1-0.2-2.7,6-12.4
		C437,728,439.6,725,440.3,725z"/>
	<path d="M402.8,747.9c9.9,6.9,22.3,10.2,38.7,10.1c14.5,0,19.4-1.2,31.4-7.6c4.9-2.7,9.3-4.5,9.7-4.2c1.2,1.3-1.8,7.9-6.1,13.2
		c-8.9,10.8-21.3,16.6-35.9,16.6c-13.6,0-24.7-3.9-33.7-11.9c-4.8-4.2-10.5-14.2-9.5-16.7C398.1,745.5,399.7,745.7,402.8,747.9z"/>
	<path d="M588.9,60.3l5,10.7h12.3c6.8,0,12.9,0.4,13.7,0.9c3.5,2.3,0,9.2-12.3,24.1c-2.6,3-4.6,6-4.6,6.7s1.6,5.1,3.5,9.7
		c5,12.2,4.6,16.6-1.8,16.6c-1.6,0-8.9-2-16.3-4.5L575,120l-12.5,5.5c-6.9,3-13.1,5.5-13.9,5.5c-2.6,0-4.6-3-4.6-6.8
		c0-2,1.1-8.2,2.4-13.6c1.6-6.7,2.1-10.7,1.6-12.2c-0.5-1.3-3.4-6.1-6.4-10.8c-9.7-15-10.4-17.4-6-20.2c2.3-1.6,3.2-1.6,12.2-0.1
		c5.3,0.9,10.4,1.8,11.3,2.2c1.2,0.5,3.1-1.9,7.9-10c3.4-5.8,7.2-11.2,8.3-12C580.3,44,582.1,45.7,588.9,60.3z M580.1,52.7
		c-0.7-1.8-0.7-1.8-2.3,0c-0.8,1-4.1,6.2-7.3,11.6c-3.1,5.4-6.3,10.1-7.1,10.4c-0.7,0.3-6.6-0.5-13-1.6c-6.5-1.1-11.9-1.9-12.2-1.7
		c-0.2,0.2,3.3,6.2,7.8,13.3c9.2,14.5,8.9,12.7,5,30c-1.3,5.7-2.1,10.5-1.8,10.8c0.2,0.3,5.7-2,12.1-5c6.3-3,12.4-5.5,13.4-5.5
		s8,2.1,15.6,4.6s14,4.4,14.3,4.1c0.3-0.2-1.3-5-3.6-10.6c-2.2-5.6-4-10.7-4-11.5c0-0.7,4.3-6.6,9.5-13c5.2-6.5,9.5-12.2,9.5-12.8
		s-1.6-0.8-4.2-0.5c-2.4,0.4-8.2,0.9-12.9,1.3l-8.6,0.6l-4.8-11.3C582.9,59.6,580.5,53.7,580.1,52.7z"/>
	<path d="M198.7,78c1.8,1,5.6,5.4,8.5,9.6c2.9,4.3,6.2,8.8,7.3,10.1l2,2.4l9.5-2.9c13.2-4.1,15.6-4.5,17.9-3.2
		c3.5,1.8,2.6,6.4-4.4,20.7c-3.6,7.3-6.5,14-6.5,14.9c0,0.8,1.4,3.6,3.1,6c9.2,13.4,11.5,20.2,7.4,21.8c-1.4,0.5-13.9-0.3-30-1.9
		l-6-0.6l-11.5,8.4c-18.8,13.9-20,13.3-20-9.1v-14.4l-10.4-10.7c-12.1-12.6-14-15.2-13.1-18.1c1-3.3,4.4-4.3,15.5-4.8
		c7.1-0.3,11-0.9,12.1-1.9c0.9-0.7,3.6-6.8,5.9-13.4c2.7-7.7,5-12.5,6.3-13.4C195,75.6,194.9,75.6,198.7,78z M195.8,82
		c-1,0-1.4,1-6.2,15.7c-2.1,6.1-4.3,11.6-4.9,12.1c-0.7,0.6-6.7,1.2-13.4,1.3c-6.7,0.2-12.7,0.9-13.2,1.4c-0.7,0.7,2.7,4.8,10.9,13
		l12,12v14.2c0,7.8,0.4,14.4,0.9,14.7c0.5,0.4,5.8-3.2,11.8-7.9c12.4-9.7,11.6-9.5,30.1-6.9c6.2,0.8,12.6,1.4,14.2,1.2l3-0.3
		l-7.6-11.1l-7.6-11.1l7.8-15.6c4.3-8.6,7.5-15.9,7.3-16.2c-0.3-0.3-5.5,1.1-11.5,3c-6,1.9-12.1,3.5-13.6,3.5
		c-2.3,0-3.9-1.7-10.9-11.5C200.4,87.2,196.3,82,195.8,82z"/>
	<path d="M792,110c1.5,2.9,4,20.4,4,28.7c0,4,0.5,7.5,1.1,7.8c0.6,0.4,6.9,2.2,14.2,4.1c15.2,4,21.7,6.8,21.7,9.4
		s-6.3,7.8-22.8,18.7l-14.4,9.5l0.7,15.9c0.7,13.9,0.5,16.2-0.9,18.4c-3.2,4.9-5.9,3.7-29-13.8c-6.6-4.9-12.9-9-14-9
		c-1.2,0-9.7,0.8-18.9,1.8c-18.7,2-21.7,1.6-21.7-3c0-3,4.6-12.5,11.9-24.4c3.6-6,5.1-9.5,5.1-12c0-2-2.1-11.8-4.6-21.9
		c-4.3-17.3-4.5-18.4-3-20.7c1-1.5,2.6-2.5,4-2.5c1.3,0,8.9,3.3,16.8,7.3l14.5,7.2l9.9-8.9c5.5-4.8,11.7-10.1,13.8-11.7
		C785.1,107.4,790.4,107,792,110z M787.2,112.9c-0.4-0.4-5.4,3.6-11.2,8.8c-5.8,5.2-12.4,11-14.6,12.9l-4.1,3.4l-15.2-8
		c-8.4-4.4-15.4-8-15.7-8c-1.1,0,0,5.9,4.1,21.5c2.5,9.3,4.5,18.3,4.5,19.9c0,1.8-3,8-8.4,17c-10.8,18-10.7,17.6-6.5,17.6
		c1.9,0,8.4-0.7,14.4-1.5c6.1-0.8,13.3-1.8,16.1-2.1l5-0.6l10.5,7.9c19.1,14.6,24.9,18.4,25.5,17c0.3-0.8,0-6.8-0.5-13.3
		c-0.6-6.5-1.1-13.8-1.1-16v-4.2l10.8-6.8c5.9-3.8,14.3-9.3,18.6-12.3c9.4-6.5,10.1-5.7-11.2-10.6c-7.9-1.8-14.8-3.7-15.4-4.3
		c-0.7-0.7-1.5-6.9-2-13.8c-0.4-7-1.2-15.2-1.8-18.3C788.5,116.1,787.7,113.3,787.2,112.9z"/>
	<path d="M87,230.5c0.6,0.8,3.4,6.3,6,12.2l4.8,10.8l12.5-0.4l12.5-0.3l1.7,2.6c2.3,3.5,1.8,4.6-9,18.1c-5.4,6.8-8.4,11.4-8.1,12.4
		c0.3,0.9,2,5.7,3.7,10.6c5.8,16.2,3.6,17.6-16.9,11c-7.7-2.5-14.5-4.5-15.1-4.5c-0.6,0-6.5,2.2-13,5c-6.5,2.7-12.8,5-14,5
		c-4.3,0-4.6-3.7-1.7-18.1l2.7-13.2l-3.2-5.1C39,259.3,36.8,255,37.4,252.5c0.9-3.5,4.4-4.1,14.6-2.5c13.9,2.1,12.6,2.7,19-7.7
		c3.1-5.1,6.5-10.2,7.5-11.3C80.6,228.7,85.2,228.4,87,230.5z M83,234c-1.1,0-2.2,1.6-8.4,12.7c-3.1,5.6-6.3,10.3-6.9,10.6
		c-0.7,0.3-5.5-0.4-10.7-1.4c-11.1-2.1-14-2.3-14-0.9c0,0.6,3.4,6.3,7.5,12.6c4.6,7.1,7.5,12.5,7.5,14.2c0,1.5-1.2,7.8-2.6,14
		c-1.5,6.2-2.4,11.5-2.1,11.9c0.4,0.3,5.9-1.9,12.3-5c6.3-3.2,12.3-5.7,13.2-5.7s8.1,2.2,16,5c7.8,2.7,14.2,4.6,14.2,4.2
		s-1.8-5.3-4-11c-2.2-5.6-4-10.7-4-11.3c0-0.6,4.3-6.5,9.6-13c5.3-6.6,9.4-12.2,9-12.6c-0.4-0.4-5.7-0.2-11.8,0.4
		s-11.7,0.9-12.3,0.6c-0.7-0.2-3.6-6-6.5-12.9C86.1,239.6,83.4,234,83,234z"/>
	<path d="M794.3,356.5c4.3,3.6,7.7,7,7.7,7.5c0,1.7,2,1.1,11.2-3.1c4.8-2.2,9.6-3.9,10.5-3.7c1,0.2,2.4,1.6,3.2,3.2
		c1.5,3.3,0.9,7.6-3.1,19.8l-2.1,6.7l4.6,9.4c2.6,5.2,4.7,10,4.7,10.6c0,0.6,0.5,1.1,1,1.1c1.6,0,1.1,3.2-0.7,4.6
		c-2.2,1.7-8.9,1.7-18.9,0.3l-7.6-1.2l-5.6,4.1c-11.2,8.1-17.2,11.4-19.6,10.8c-4.4-1.1-5.5-8.1-3-20.6c0.4-2.3-0.6-3.3-10.1-9.8
		c-5.7-4-11-8.2-11.5-9.3c-2.6-4.8,1.1-7.7,13-9.9c3.6-0.7,7-1.7,7.7-2.2c0.6-0.5,1.5-3.5,1.8-6.6c0.9-8.5,2.4-15.4,3.7-16.9
		C783.3,348.7,786.7,350,794.3,356.5z M784,356.2c0,2-2,19-2.5,21.4c-0.4,1.8-1.8,2.4-9.7,3.9c-5.1,1-9.9,2.1-10.7,2.5
		c-1.4,0.8,3.1,4.5,15.2,12.5c3.1,2.1,5.7,4.5,5.7,5.4s-0.4,5.4-1,10c-0.5,4.6-0.7,8.7-0.4,9.2c0.2,0.4,5.1-2.5,10.7-6.4
		c5.6-4,10.8-7.7,11.5-8.1s6.2,0.2,12.3,1.4c6.1,1.1,11.3,1.9,11.5,1.7c0.2-0.2-2-5.2-5.1-11.1c-3-5.8-5.2-11.2-5-11.9
		c2.3-7,6.5-24,6.1-24.4c-0.3-0.3-4.3,1.6-8.9,4.1c-4.7,2.5-9.2,4.6-10.2,4.6c-0.9,0-3.7-2.1-6.4-4.8
		C790.3,359.4,784,354.6,784,356.2z"/>
	<path d="M168.5,431c4.4,3.8,9.3,8.2,10.9,9.9l3,3.1l12-6.4c15.8-8.3,18.9-9.3,22.1-7.2c1.4,1,2.5,2.6,2.5,3.9
		c0,1.2-2.2,10.9-4.9,21.6c-3.9,15.3-4.8,19.9-3.9,21.5c0.6,1.2,3.9,6.9,7.5,12.8c3.5,5.9,7.3,12.8,8.4,15.3c1.9,4.4,2,4.8,0.4,7.2
		c-1.7,2.6-1.8,2.6-11.9,2c-5.5-0.3-14.5-1.2-19.8-1.9c-9.5-1.2-9.9-1.1-12.5,1c-1.6,1.2-6.2,4.6-10.3,7.7
		c-20.3,14.9-21.4,15.6-24.5,15.3c-5.2-0.5-5.9-3.6-4.5-20.5c1-12.6,1-14.7-0.3-16c-0.8-0.8-8.4-6.1-16.8-11.7
		c-16.9-11.1-19.8-14-17.9-17.6c1.5-2.7,5-4.2,18.1-7.5c5.7-1.4,11.8-3,13.5-3.6l3.1-1l0.7-9.7c1.1-14.7,2.6-24.5,4.2-27
		C150.5,417.8,155.2,419.7,168.5,431z M151.9,425c-0.9,0-1.6,5.2-3.3,22.7c-0.7,7.9-1.8,14.9-2.5,15.6c-0.6,0.8-5.1,2.2-9.9,3.1
		c-4.8,0.9-10,2.1-11.7,2.6c-1.6,0.5-4.9,1.4-7.2,2c-2.4,0.6-4.3,1.4-4.3,1.9c0,0.4,8.1,6,17.9,12.5c9.9,6.4,18.1,12.3,18.4,12.9
		c0.3,0.7-0.2,8.1-1.1,16.5c-1.1,10.7-1.2,15.6-0.5,16.3c0.7,0.7,5.8-2.5,16.9-10.9c18.9-14.2,19.7-14.6,23.8-13.7
		c7,1.5,31.2,4.2,32.8,3.6c1.5-0.6,0.7-2.4-5.8-13.1c-9.2-15.2-11.4-19.3-11.4-21.8c0-1.1,2-8.9,4.4-17.3
		c4.3-15.2,6.1-23.9,5.1-23.9c-0.3,0-7.6,3.6-16.1,8.1c-13.3,7-15.7,7.9-17.2,6.8c-0.9-0.7-4.6-4.1-8.2-7.5s-9.4-8.5-12.9-11.3
		C155.5,427.3,152.3,425,151.9,425z"/>
	<path d="M680.8,445.8c1,1,4.2,6,7.1,11c2.9,5,5.6,9.4,6.1,9.7c0.4,0.3,5.5-0.2,11.3-1.1c12-1.9,15.4-1.5,16.3,2.1
		c0.6,2.6-2.1,8.1-10.3,20.6c-5,7.8-5.2,9-2.1,24.1c1.7,8.8,1.9,11.2,0.9,13.4c-1,2.4-1.6,2.6-5,2.1c-2.2-0.3-8.3-2.6-13.6-5.1
		c-5.4-2.5-10.7-4.6-11.9-4.6c-1.1,0-8.3,2.1-15.9,4.6c-11.9,4-14.3,4.5-16.4,3.5c-2.4-1.1-2.5-1.5-2-6.1c0.3-2.7,2-8.1,3.7-11.9
		c3.6-8.4,3.5-8.9-4.7-18.6c-7.5-9-10.3-13.6-10.3-16.8c0-4.1,2.8-4.9,15.7-4.5l11.5,0.3l4.7-10.6c2.5-5.8,5.2-11.3,6-12.3
		C673.7,443.5,678.6,443.6,680.8,445.8z M676.1,449c-0.8,0-3.7,6.2-8.9,19.5l-2,5l-13.1-0.3c-7.2-0.1-13.1,0.1-13.1,0.5
		s4.3,6,9.5,12.3c5.2,6.3,9.5,12.2,9.5,13.1s-1.3,4.5-2.9,8c-3.4,7.7-5.5,13.9-4.8,14.5c0.3,0.3,6.7-1.8,14.3-4.5
		c7.7-2.8,14.7-5.1,15.7-5.1s3.7,1.1,6.1,2.5c5.5,3.2,18.8,8.7,19.5,8c0.4-0.5-4.2-21.3-5.6-25c-0.2-0.6,3.5-7.1,8.1-14.5
		s8.2-13.8,8-14.1s-5.6,0.4-12,1.7c-6.4,1.2-12.2,2-12.8,1.8c-0.7-0.3-4.2-5.6-7.9-11.9C680,454.2,676.6,449,676.1,449z"/>
	<path d="M73.1,635.7c0.7,5.1,1.5,9.7,1.9,10.2c0.3,0.6,3.8,1.7,7.8,2.6c9.5,2,13.2,3.9,13.2,6.9c0,3.5-2.9,6.5-12.5,13.1l-8.7,6
		l0.7,10.1c0.7,9.5,0.6,10.3-1.4,12.3c-1.9,1.9-2.4,2-5.4,0.7c-4.1-1.7-10.3-5.5-16.5-10.3c-5.2-3.9-3.3-3.8-24-1.7
		c-5.2,0.6-6.6,0.4-8.2-1.1c-1.1-1-2-2.3-2-3s2.6-5.9,5.7-11.5l5.6-10.4l-1.1-5c-0.6-2.8-2.1-9.1-3.2-14c-1.9-8.4-1.9-9.1-0.3-10.8
		c2.1-2.3,3.9-1.9,13.8,2.8c8.6,4,9.6,4.1,12.1,1.3c1-1.2,4.5-4.4,7.7-7C68.1,618.7,71.1,620.5,73.1,635.7z M63.4,629.1
		c-1,1.2-4.9,4.8-8.5,8l-6.6,5.9l-9.8-4.6c-5.3-2.5-9.9-4.3-10.2-4.1c-0.2,0.3,1.2,6,3.2,12.8l3.5,12.4l-5.5,10.7
		c-3,5.8-5.5,10.8-5.5,11c0,0.2,5.4-0.5,12-1.6l11.9-1.9l3.8,2.6c2.1,1.5,7.1,5,11.1,7.8c4,2.9,7.4,5,7.6,4.8c0.3-0.2,0-4.2-0.6-8.8
		c-0.5-4.5-0.7-9.3-0.4-10.4c0.3-1.3,5-5.3,11.1-9.6c5.8-4,10.5-7.7,10.5-8.1c0-0.4-4.3-1.6-9.5-2.6s-10-2.1-10.6-2.4
		c-0.8-0.6-3.7-17.4-3.9-22.8C67,626.4,65.6,626.7,63.4,629.1z"/>
</g>
</svg>
