<?xml version="1.0" encoding="utf-8"?>
<!-- Generator: Adobe Illustrator 21.0.0, SVG Export Plug-In . SVG Version: 6.00 Build 0)  -->
<svg version="1.1" baseProfile="tiny"
	 id="svg22" inkscape:version="0.92.2 5c3e80d, 2017-08-06" sodipodi:docname="28.svg" xmlns:cc="http://creativecommons.org/ns#" xmlns:dc="http://purl.org/dc/elements/1.1/" xmlns:inkscape="http://www.inkscape.org/namespaces/inkscape" xmlns:rdf="http://www.w3.org/1999/02/22-rdf-syntax-ns#" xmlns:sodipodi="http://sodipodi.sourceforge.net/DTD/sodipodi-0.dtd" xmlns:svg="http://www.w3.org/2000/svg"
	 xmlns="http://www.w3.org/2000/svg" xmlns:xlink="http://www.w3.org/1999/xlink" x="0px" y="0px" viewBox="0 0 850 850"
	 xml:space="preserve">
<sodipodi:namedview  bordercolor="#666666" borderopacity="1" gridtolerance="10" guidetolerance="10" id="namedview24" inkscape:current-layer="svg22" inkscape:cx="1419.7211" inkscape:cy="592.56006" inkscape:pageopacity="0" inkscape:pageshadow="2" inkscape:window-height="978" inkscape:window-maximized="1" inkscape:window-width="1920" inkscape:window-x="0" inkscape:window-y="1" inkscape:zoom="0.41647059" objecttolerance="10" pagecolor="#ffffff" showgrid="false">
	</sodipodi:namedview>
<g id="g20" transform="translate(0.000000,0.000000) scale(1.00000,1.00000)">
	<path id="path4" fill="none" d="M0,0h425h425v425v425H425H0V425V0z M510,28c-2.4,1.6-5.7,4.4-7.3,6.2c-5.3,6.2-20.9,27.3-23.5,31.8
		c-1.4,2.5-2.9,4.7-3.3,5s-4.3,7.5-8.8,16.2c-4.5,8.6-8.7,16.1-9.4,16.6c-0.7,0.5-9.3,1.2-19.2,1.5c-15.6,0.4-19.1,0.8-26.2,3
		c-4.6,1.4-9.3,3.2-10.7,3.9c-6.7,3.7-10.3,5.9-12.5,7.7c-2.5,1.9-2.5,1.9-7.5-0.9c-2.8-1.6-9.3-4.3-14.3-6
		c-7.7-2.5-11.5-3.2-22-3.7c-23.4-1.1-34.2,2.4-46.9,14.8l-7,7l-11.5-1.2c-19.2-1.9-34.9,0.1-49.9,6.5c-8.5,3.7-21.1,9.8-28,13.7
		c-12.7,7.2-32.6,24.2-43.6,37.1c-8.7,10.1-19.4,24-19.4,25.1c0,0.4-1.6,3.2-3.7,6.4c-3.7,5.8-10.9,20.6-15.8,32.5l-2.7,6.8h-16
		c-14.6,0-16.6,0.2-23.6,2.6c-20.3,7-34.9,20.3-42.4,38.8c-4.4,10.7-7.2,32.4-6.5,49.6c0.4,7.4,1.1,16,1.6,19
		c0.6,3,1.3,7.6,1.6,10.2c0.6,5.3,6.2,27.4,9.8,38.9c3.5,10.8,13.5,35.6,16.4,40.6c1.4,2.4,2.2,4.3,1.9,4.3c-0.6,0,4.9,10.6,14,27.5
		l4.9,9V517c0.1,21.7,2,35.2,7.2,51c4.4,13.7,17.9,40.9,26.2,53c15.4,22.4,36.5,43.5,58,57.9c9,6.1,12.5,9.8,14.1,14.9
		c1.1,3.6,8.4,21.2,10.5,25.1c0.8,1.7,1.3,3.1,1.1,3.1c-0.3,0,0.8,2.8,2.4,6.3c1.5,3.4,4.7,10.7,7.1,16.1
		c5.4,12.5,13.5,23.5,23,31.3c7.3,5.9,29,20.3,30.6,20.3c0.5,0,2.4,1.1,4.3,2.3c14.2,9.6,50.6,21.7,78.5,26.2
		c21.3,3.5,42.5,0.1,62.3-9.9c6.4-3.3,35.8-22.5,41.4-27.2c4.6-3.7,6.2-3.7,17.3,0c9.2,3.2,12.1,3.6,24.2,4.2
		c8.3,0.4,17.4,0.2,22.8-0.5c12.2-1.5,30.4-7.5,40.5-13.2c0.8-0.5,3.8-2.1,6.5-3.5c8.8-4.6,25.7-17.6,34.2-26.1l8.3-8.3h13.8
		c46.4,0,76.5-13.3,101.5-44.8c6.2-7.7,15.4-23,19.4-32.1c1.4-3.1,3.1-7,3.9-8.6c0.8-1.7,1.6-4,1.8-5.1c0.2-1.2,1.6-5.4,2.9-9.5
		c1.4-4.1,3.5-11.7,4.7-16.9c1.3-5.2,3-10.3,3.8-11.3c0.9-1,5-3.8,9.1-6.3c13-8,26.7-20.2,37.2-33.4c9.2-11.6,21.9-42.1,21.9-52.6
		c0-2.4,0.5-4.4,1-4.4c0.6,0,1-3.7,1-9c0-5-0.4-9-0.9-9s-1.1-2.4-1.3-5.3c-0.7-7.5-6.1-20.1-12.1-28.1c-2.9-3.7-8.8-9.7-13.2-13.2
		s-8.6-6.9-9.3-7.5c-1-0.8-1.1-2.9-0.5-8.7c0.4-4.2,0.8-22.6,0.8-40.7c-0.1-30.1-0.3-34.1-2.4-45c-1.2-6.6-2.4-13.6-2.7-15.5
		c-0.2-1.9-1.6-7.2-2.9-11.6c-1.4-4.5-2.5-8.7-2.5-9.3c0-1.4-6.1-17.6-9.7-25.6c-8.1-18-23.5-40.5-37.3-54.4
		c-13-13.2-30.8-25.9-49.1-35.1c-8.7-4.4-26.6-11.7-31.9-12.9c-1.9-0.5-7.1-1.9-11.5-3.1c-10.5-2.8-29.9-5-45.8-5h-12.8l-1.7-3.1
		c-4.9-9.1-13.9-21.6-20.2-28.3c-4-4.2-7-8.1-6.7-8.8c0.2-0.7,3.2-2.9,6.6-4.8c14.4-8.2,18.5-11.4,20.8-16
		c3.3-6.8,3.9-15.7,1.8-25.4c-2-8.8-7.2-22.5-11.3-29.6c-7.4-13-19.8-24.5-33.4-31.1C521.9,24,516.6,23.8,510,28z"/>
	<path id="path6" fill="#556B2F" d="M519.2,32c10.9,0,28.9,13.8,39.7,30.4c2.8,4.4,5.1,8.5,5.1,9c0,0.6,0.6,2.3,1.4,3.8
		c3.6,6.8,5,13.6,5,24.3c0.1,12.2-1,15.2-6.5,18.1c-6.7,3.4-16.8,0.3-28.2-8.8c-12.4-9.8-20.8-22.3-26.6-39.6
		c-1.7-4.9-2.1-8.6-2.1-17.8V39.8l3.9-3.9C514.2,32.5,515.4,32,519.2,32z"/>
	<path id="path8" fill="#556B2F" d="M498.1,51c0.5,0,3,9.7,3.4,14c0.1,0.8,1.9,5.9,3.9,11.2c2,5.3,3.6,10.1,3.5,10.5
		c0,0.4-2.4,4.7-5.2,9.5c-13.1,22.2-21.2,35.4-22.3,36.8c-0.6,0.8-4.4,7.6-8.4,15s-7.9,14.5-8.8,15.7c-0.8,1.3-1,2.3-0.6,2.2
		c0.5,0,3.7-4.2,7.1-9.3c4.5-6.9,5.8-9.7,5-10.5s-0.6-1.1,0.9-1.1s6.3-6.5,18.9-25.5c9.4-14,17.5-25.5,18-25.5
		c0.6,0.1,1.8,1.2,2.9,2.6c2.1,3,1.5,4.8-3.9,11.2c-1.7,2-5.7,7.5-8.9,12.2c-3.2,4.7-7.1,9.9-8.7,11.6c-1.9,1.9-2.7,3.7-2.3,4.7
		c0.4,1-0.7,3.2-2.8,5.9c-4.6,5.8-11.8,16.2-11.8,17.2c0,0.7,18.8-13.3,24.4-18.3l2.9-2.6l-2.7,4.8c-2.6,4.5-5.2,8.3-17.6,25.2
		c-4.3,5.8-11.5,16.4-16.5,24.4c-0.6,0.9-3.7,6.7-6.8,12.9l-5.8,11.3l-8.2-4.4l-8.2-4.3l0.2-7.6c0.2-9.2,5.6-42,8.3-50.6
		c1.1-3.5,2.2-7.7,2.5-9.3c1.6-8.9,21.4-53.8,26.1-59c0.8-0.8,1.4-1.9,1.4-2.3c0-1.1,8.4-13.9,14.3-21.8
		C495.1,54.1,497.7,51,498.1,51z"/>
	<path id="path10" fill="#FF4500" d="M444.9,113.1c8.5-0.1,9.3,0.1,8.8,1.6c-0.3,1-2,5.6-3.7,10.3c-1.8,4.7-4.3,12.1-5.5,16.5
		c-1.3,4.4-2.8,9.6-3.4,11.5s-1.3,5.1-1.6,7c-0.3,1.9-1.2,6-2,9c-2.2,8.9-4.3,23-4.4,29.9c-0.1,3.6-0.3,6.6-0.5,6.8
		s-5.7,0.6-12.2,0.8c-33.8,1.3-67,21.2-90.1,54c-10.7,15.1-20.1,34-21.9,43.9c-0.3,1.6-0.7,3.3-1,3.8c-0.3,0.4-0.3,0.8-0.1,0.8
		c0.5,0,7.7-11.8,7.7-12.6c0-1.9,17.5-25.6,24.7-33.6c27.5-30.2,56.7-46.6,83.8-47c9.5-0.2,16.7,1.8,24.9,6.6
		c12.2,7.3,18.2,16.2,36.5,54.6c1.1,2.5,1.1,2.4,0.5-0.5c-0.3-1.7-0.8-4.1-1-5.5c-1-5.6-7.6-22.5-12.4-31.7l-5.1-9.8l4.5-4
		c6.9-6.1,14.3-10.2,25.6-14.1c20.1-6.9,46.5-7.3,63.6-0.8c18.4,6.9,29.7,14.6,46.9,31.8c16.9,16.9,32,37.6,41.2,56.3
		c1.4,2.9,2.9,5.3,3.4,5.3c1.4,0-17.9-39.8-23.1-47.5c-1.4-2.2-2.9-4.7-3.2-5.5c-1.4-3.6-18.3-22.3-26.9-29.7
		c-11.7-10-22.7-16.4-35.7-20.8c-13.3-4.5-22.3-5.9-35.2-5.2c-11.7,0.6-25.1,4.2-36,9.7c-3.4,1.7-6.6,3-7.2,2.8
		c-1.6-0.6,7.7-12,13.4-16.4c12.8-9.9,26.9-17.1,38.6-19.9c3.9-0.9,7.2-2,7.2-2.2c0-1.2-13.6,0.9-21.1,3.3c-5.5,1.7-9.9,4-14.4,7.4
		c-3.6,2.7-6.5,4.7-6.5,4.4c0-1.3,11.7-15.4,22.3-26.7c11.7-12.5,12-12.7,16.3-12.7c2.3,0,4.6,0.4,4.9,1c0.3,0.5,0,1-0.6,1
		c-0.7,0,0.5,1.9,2.8,4.2c9.2,9.6,19,24.6,17.1,26.2c-0.1,0.2-5.2,2.2-11.3,4.6c-18.2,7-20.4,9-5.1,4.5c10.4-2.9,34.7-4.2,52.6-2.7
		c16.9,1.4,45,8.6,60,15.4c18.8,8.5,32.1,16.4,42.5,25.1c31.4,26.5,49.5,53.6,61.3,92.2c3.8,12.5,8.1,32.9,8.7,41.5
		c0.2,3.6,0.9,13.2,1.5,21.5c1,14.1,0.9,19.4-1.5,55.8c-0.1,1.5-0.4,2.9-0.6,3.2c-0.3,0.2-3.6-0.7-7.4-2.1c-4.2-1.5-12-3.1-19.4-4
		c-10.9-1.3-13.8-1.3-23.5,0c-10.6,1.4-19.5,4.2-28.4,9c-4.2,2.2-3.7,2.9,0.9,1.5c13.3-4,40.5-5.2,53.6-2.4
		c33,7,54.6,25.4,60.3,51.2c2.9,12.9,2.7,17.5-1.6,38c-0.9,4.4-7.6,19-12.2,26.3c-15.9,25.8-41.9,49.8-68.4,63.1
		c-5.5,2.8-9.8,5.2-9.5,5.5c0.2,0.2,1.7-0.1,3.3-0.7c8.8-3.5,18.4-6.6,18.4-6c0,0.4-1.2,4.7-2.6,9.6c-1.4,5-2.8,9.8-3,10.8
		c-0.8,4.4-8,22.1-13,32c-8.4,16.8-18.3,28.8-32.5,39.5c-12.9,9.7-31.2,17.1-47.4,19c-11.6,1.5-28.3,2.1-31.4,1.3l-2.3-0.6l3.4-4.5
		c5.6-7.3,11.5-17.9,16.7-29.8c2.7-6.2,4.8-11.2,4.6-11.2s1-3.6,2.6-8s3.1-9.2,3.4-10.7c0.2-1.6,1.6-6.6,3-11.2
		c1.4-4.6,2.7-11.2,3-14.5l0.5-6.1l-2.5,7c-3.6,9.6-7,19.3-8.5,23.5c-2.6,7.7-14.8,33-19.1,39.5c-9.2,14.1-11.8,17.7-19,26
		c-13.5,15.7-27.7,28.4-39.5,35.3c-9.7,5.8-27.2,12.6-37.9,14.8c-15.7,3.3-43.6,2.4-54.7-1.8c-1.6-0.6-2.8-1.3-2.8-1.7
		s7.9-8.1,17.5-17.1s17.5-16.5,17.5-16.7s-1.3,0.3-3,1.2c-1.6,0.9-3,1.4-3,1.1c0-0.9,9.9-7.6,11.3-7.6c0.8,0,2-0.7,2.7-1.5
		s4.7-4.1,8.9-7.2c4.2-3.1,8.1-6,8.6-6.5c1.8-1.6-4.7,0.3-11.5,3.4c-13,6-23.6,13.8-41.7,30.6c-6.2,5.7-11.3,10.2-11.3,9.9
		c0-0.5,9.4-14.1,16.1-23.5c1.7-2.4,2.9-4.6,2.6-4.8c-0.5-0.5-11.5,13.9-23.1,30.3c-4.9,6.8-7.5,9.3-16,15.2
		c-5.5,3.9-12,8.5-14.3,10.2c-2.4,1.6-4.3,2.6-4.3,2.2c0.1-0.4,2.3-3.5,5-6.8s9.4-11.6,14.8-18.5c5.5-6.9,10.9-13.3,12-14.4
		c1.2-1,1.9-2.2,1.6-2.7s-3.7,2.9-7.7,7.6c-20.5,24.1-33.6,39.2-35.3,40.7c-2.4,2-14.4,8-20.4,10.1c-17.6,6-50.5,5.2-71.2-1.9
		c-3.9-1.3-7.8-2.4-8.6-2.4c-3.7,0-27.8-10.4-40.2-17.4c-2.5-1.3-6.3-3.5-8.5-4.7c-6.8-3.7-24.6-16.2-29.6-20.7
		c-2.6-2.4-6.7-7.1-9-10.5c-2.2-3.4-4.6-6.1-5.1-5.9c-0.6,0.2-0.8-0.6-0.5-1.8c0.3-1.1-0.2-3.5-1-5.3c-0.8-1.7-2.7-5.7-4.1-8.7
		s-2.9-6.3-3.4-7.3c-1.4-2.9-10-24.1-10.2-25.2c-0.1-0.6-1.4-4.2-2.8-8c-1.4-3.9-4-11.1-5.7-16c-1.8-5-4.1-11.5-5.3-14.5
		c-2.5-6.6-14.6-31-17.9-36.2c-1.3-2-4.6-7.4-7.4-11.9c-2.7-4.4-5.1-7.6-5.3-7c-0.2,0.7,0,1.7,0.6,2.4c0.5,0.7,1.5,3,2.2,5.2
		s2.7,7.8,4.5,12.5s4.5,11.6,6,15.5c1.5,3.8,2.9,7.8,3,8.8c0.2,0.9,0.6,2.1,1,2.6c1,1.7,6.4,17.5,6.1,17.8c-0.2,0.2-4.6-2.9-9.7-6.9
		c-24.2-18.6-48.2-48.7-60.9-76.3c-5-10.7-9.8-22.9-10.9-27.4c-0.5-2-1.9-7.4-3.1-12c-1.9-7.3-2.1-11.1-2.1-28.5
		c0.1-11.1,0.8-27.4,1.8-36.3c1.5-15.3,1.5-16.7-0.2-27.7c-1-6.4-2.1-11.6-2.5-11.6c-0.6,0-2.9,16.6-4.6,32.7c-0.3,3.5-1,6-1.5,5.7
		c-0.9-0.5-15.9-31-15.9-32.3c0-0.3-0.9-2.4-2.1-4.6c-2.3-4.3-13.4-33.5-14.5-38.1c-0.3-1.6-1.7-6.5-3-10.9s-2.6-9.6-2.8-11.5
		c-0.3-1.9-1.2-6.8-2-10.8c-3-13.9-4.1-30.3-2.8-42.5c0.7-6.2,1.9-13.9,2.8-17.2c0.8-3.3,1.8-7,2-8.1c0.8-4,3.6-9.9,8-16.6
		c13.5-20.2,48.1-30.5,80.4-23.8c5.2,1.1,10,2,10.5,2c1.9-0.1-4-3-9.4-4.6c-5.2-1.6-5.3-1.7-4.7-4.7c1.5-7.5,13.9-32,23.1-45.6
		c7.9-11.8,21.2-26.8,34.5-38.8c25.8-23.3,58.3-37.2,87-37.3c10.2,0,24.8,2.5,32.2,5.5c3.4,1.4,6.5,2.5,6.9,2.5
		c3,0,24.5,16,25.7,19.1c0.2,0.5-3.2,0.9-7.5,0.9c-22.3,0-52.6,7.6-67.3,16.8c-1.9,1.2-3.9,2.2-4.3,2.2c-1.2,0-14.4,9.3-20.2,14.4
		c-4.8,4.1-15.5,17.1-15.5,18.8c0,0.4,6.4-3.5,14.3-8.7c7.8-5.2,15.1-10.1,16.2-10.8c9.7-6.3,34.8-16.5,47.5-19.3
		c3.6-0.8,9.9-2.2,14-3.2c11.7-2.6,35-2.4,46,0.6c16.2,4.3,31.3,14.3,35,23.2c0.7,1.6,1.6,3,2.1,3c2.1,0-5.6-12.5-11.1-18
		c-8.8-8.8-21.2-14.8-37.4-18c-8.4-1.6-9.2-2-12-5.6c-6.5-8.3-17.4-16.9-29.8-23.4c-2.7-1.4-4.8-2.8-4.8-3.1c0-0.4,1.6-2.1,3.5-3.7
		c9.6-8.5,23.3-12.8,38-11.9c27.1,1.5,54.8,14.6,69.5,33.1c2.4,3,4.6,5.3,4.8,5.1c0.7-0.6-6.2-12.5-10-17.3c-1.9-2.3-5.5-6-8-8.1
		l-4.7-3.8l4-2.7c2.3-1.4,4.4-2.6,4.9-2.6c0.4,0,3.2-1.1,6.3-2.5c3-1.4,10-3.4,15.4-4.4C431.1,114,439.7,113.2,444.9,113.1z
		 M363,132.5c-5-1.7-4.8-1.5,3.4,4c11.6,7.8,20.5,18.9,26.4,33c2,4.9,3.1,6.6,2.7,4.5c-0.9-5-8.9-20.5-13.9-27
		c-2.3-3-6.4-7.2-9.2-9.2C369.7,135.7,365.5,133.3,363,132.5z M408.4,153c-0.7,0-0.5,1,0.7,3.1c0.6,1.1,1.2,2.8,1.4,3.7
		c0.2,0.9,1.5,6,2.9,11.2c1.3,5.3,2.7,12.9,3,16.9c0.3,4.1,0.8,7.6,1.2,8c0.6,0.5-0.1-13.8-1-22.9c-0.4-3.5-2.5-9.6-5.3-15.2
		C410,155.2,408.7,153,408.4,153z M224,165.4c-18.3,7.7-35.4,18.8-47.5,31c-8.4,8.5-15.9,19.1-17.5,24.6c-1.2,4-1.3,4.2,5.1-5.5
		c11.4-17.2,33.7-35.9,56.2-46.9c5.3-2.7,9.7-5,9.7-5.2C230,162.9,230.2,162.8,224,165.4z M215.9,185.8
		c-24,19.1-40.4,38.4-49.7,58.3c-3.8,8.1-9.3,26.9-9.1,31.3c0.1,2.1,3.4-7.5,4.4-12.4c0.2-1.4,2.2-6.7,4.5-11.9
		c10.2-24,20.7-37.4,47.5-60.5c7.2-6.2,13.6-12,14.4-12.9C230.5,174.4,228.1,176.1,215.9,185.8z M301.3,199
		c-12.5,4.5-23.8,10.7-29.7,16.3c-5.7,5.4-4.9,5.2,4.1-1.1c15.3-10.6,35.9-17.3,59.8-19.3c10.1-0.9,14-1.5,12-2
		C338.2,190.8,315.7,193.8,301.3,199z M372.5,200.3h-9c-18.3-0.1-32.1,3.5-52.8,13.7c-19.5,9.6-33.4,20.3-41.7,32.2
		c-2.8,3.9-5,7.4-5,7.8s5.5-4.8,12.3-11.5c21.6-21.4,41.7-32.6,72.2-40c1.7-0.4,7.7-1.1,13.5-1.5L372.5,200.3z M628.4,212
		c-1.5,0,1.2,2.2,6.4,5.1c18.8,10.7,34.6,24.1,47.2,40.4c8.3,10.6,12.6,15.2,13.6,14.3c0.9-1-1.3-4.4-7.9-12.7
		c-13-16.2-27.3-28.4-46.4-39.8C634.5,215.3,628.8,212,628.4,212z M542.2,219c-0.3,0,4.1,2.8,9.8,6.2c13.4,7.9,27,18.7,39.2,31.1
		c5.3,5.5,10.3,9.7,11,9.5c1.6-0.6-23.7-26-30.7-30.8c-6.9-4.9-12.8-8.3-21.4-12.4C546,220.6,542.5,219,542.2,219z M249.6,246.4
		l-0.7,4.5l-5.7,0.6c-6.1,0.7-27,6.4-35.5,9.7c-9.4,3.6-30.2,13.1-44.1,20c-5.5,2.8-7.7,3.5-7.3,2.4c0.4-0.9,0.2-1.6-0.3-1.6
		c-0.6,0-1,0.6-1,1.3c0,0.8-1,2.3-2.2,3.4c-2.6,2.4-17.2,11.3-18.5,11.3c-0.5,0-2.9-3.9-5.3-8.6c-4.2-8.1-5.6-10.1-6.5-9.2
		c-0.2,0.2,1.1,4.6,2.9,9.8c5.6,16.7,16.7,33,34.6,51c8.7,8.8,24.1,21.7,28.8,24.1c1.5,0.8,7.4,4.2,13.2,7.7
		c17.4,10.5,44.9,23.2,60.1,27.8c7.1,2.1,15.3,6,16.9,7.9c5.1,6.1,19.1,5.8,24.5-0.6l2-2.4l-2,1.6c-2.4,2-8,3.9-11.2,3.9
		c-6,0-13.7-8.2-16.2-17.5c-2.7-10-6.1-25.7-6.5-30.1c-0.3-2.7-1.6-11.9-3-20.4s-2.7-18.5-3-22.1c-0.3-3.7-1.7-13.4-3.1-21.7
		c-1.4-8.2-2.6-16.3-2.6-17.9c-0.2-3.7-3.9-27.5-4.4-28.4c-0.3-0.3-0.7-2.6-1-5C251.7,241.8,250.4,241,249.6,246.4z M605.4,270
		c-0.6,0-0.3,0.6,5.1,9c7.9,12.5,10.5,16.5,14,22.7c2,3.3,4.2,6.7,5,7.3c1.3,1.1-1.4-4.1-9.4-18c-1.4-2.5-5.2-8.3-8.4-12.8
		C608.5,273.7,605.6,270,605.4,270z M698.9,276.5c-4.3-4.2-4.2-3.6,1.5,5.5c5.7,9.2,14.2,26.9,15.2,32c0.6,2.9,1,3.4,1.7,2.3
		c0.3-0.4-0.8-4.2-2.5-8.3c-1.6-4.1-3.1-8.2-3.3-9.1s-2.1-5.4-4.4-10C704.7,283.8,701.5,278.9,698.9,276.5z M675.3,274
		c-0.5,0,0.3,1.4,4.3,7c3.2,4.5,14.4,25.9,14.8,28.3c0.1,0.6,1.2,3.9,2.5,7.2s2.5,7.1,2.7,8.5s0.8,3.7,1.3,5c0.9,2.4,1,2.4,1,0.3
		c0.3-9.1-11.3-36.2-21.1-49.6C678.1,277,675.6,274,675.3,274z M587,311c-1.5,0.1-9.5,4.3-12.4,6.5c-1.8,1.4-3.5,2.5-3.9,2.5
		c-0.3,0-5.6,3.1-11.9,6.9c-6.2,3.9-14.7,9-18.8,11.5s-11.4,7.2-16.2,10.3c-8.4,5.5-13.1,8.8-35,24c-5.4,3.8-13.9,9.7-19,13.2
		c-5.1,3.6-11.4,8.1-13.9,10c-2.6,2-7.3,5.4-10.4,7.6c-3.2,2.2-10.3,7.3-15.9,11.3c-20.5,14.7-28.8,16.5-43.4,9.2
		c-12.6-6.3-22.2-18.8-28.4-36.7c-3.9-11.3-4.5-19.1-2-27c1.9-6,10.2-20.3,14.5-25c1.1-1.3,1.8-2.6,1.4-2.9
		c-1.2-1.2-12.2,11.1-14.9,16.6c-4.4,9-5.3,13.7-5.2,26c0.1,19.4,5.6,33.1,18.8,46.8c9.9,10.3,22.4,15.5,36.2,15
		c5.1-0.2,9.4,0.4,16.4,2.5c27.4,7.9,55.9,11.1,99,11.1c28.1,0.1,45.6-0.9,62.5-3.4c3.3-0.5,10.6-1.4,16.2-1.9
		c11.4-1.2,35.7-6,45.4-9c3.5-1,7.5-2.2,8.9-2.5c2.8-0.7,7.6-4.4,6.7-5.2c-0.3-0.3-2.8,0.4-5.5,1.6c-4.8,2.1-7.2,2-7.2-0.1
		c0-0.5-2.4-4.6-5.3-9.2c-2.9-4.5-6.3-9.8-7.4-11.7c-3.3-5.7-25.8-42-31.8-51.5c-5.7-9.1-9.3-14.9-13-21c-2-3.3-5.3-8.7-7.4-12
		l-3.9-6l3.6-3.8C585.8,312.7,587.2,311,587,311z M314.5,328.3c-6.8,7.1-10,11.4-13.2,17.7c-4.2,8.2-4.2,8.2-4.2,19.5
		c0,18.6,4.7,30.9,17.4,46c3.3,4,3.2,3-0.9-5.2c-5.1-10.1-9.8-27.2-10.3-37.4c-0.5-8.4-0.4-8.9,3.6-18s6.4-13.4,14.4-25.3
		c2-3.1,3.7-5.9,3.7-6.1C325,317.9,322.5,320,314.5,328.3z M703.9,337.5c-0.6-1.3-0.7-0.2-0.3,3c0.8,6.1,1.3,11.1,1.3,14.7
		c0.1,1.6,0.5,2.8,0.9,2.8c0.9,0,0.8-2.4-0.3-12.2C705.1,342.3,704.3,338.6,703.9,337.5z M56.2,347.5c-3.9,3.2-3.7,4.1,0.4,2.1
		c3.6-1.8,14-4.6,17.1-4.6c2.8,0,2.8-0.1,0.3,10.5c-2.3,9.8-2.5,16.2-0.8,20c2.1,4.8,6,5.9,20.8,6.3c14.6,0.4,16.2,1,17.5,6
		c0.3,1.4,1.5,4.5,2.6,6.9c1,2.3,1.9,4.7,1.9,5.3s1.1,3.8,2.5,7.2c5.2,12.8,5.3,16.6,1.2,28.9c-8,24.2-8.9,30.5-9.4,66.5
		c-0.3,24.3-0.1,33.1,1.1,40c5.3,31.7,11.6,52.3,21.8,70.1c6.7,11.8,7.9,13.6,8.5,12.9c0.3-0.3-0.2-1.7-1.1-3.1
		c-9.4-14.4-22.1-46.9-24.7-63.3c-0.5-3.2-1.5-9.8-2.4-14.7c-4.2-25.4-2.2-71.4,4.1-94.5c0.9-3,2.6-9.5,3.9-14.3
		c2.2-8.4,3.1-10.6,3.8-9.6c0.2,0.2,6.3,12.1,13.6,26.4c7.7,15.1,14.3,26.7,15.6,27.8c2.3,1.7,2.9,1.6,14.6-0.7
		c6.7-1.3,12.7-2.2,13.3-2c3.3,1.3,22,35.6,28.5,52.4c3.8,9.9,5.6,13,7.5,13c0.7,0,4-2.4,7.3-5.3c8-7.2,17.3-12.7,21.2-12.7
		c4.2,0,10.2,3.1,13.5,7c1.4,1.7,2.6,3.5,2.7,3.8c0.5,4.7,5.4,24.9,9.1,37.7c12.3,42.1,25.2,67.3,44.2,86
		c16.2,16.1,29.2,21.1,47.5,18.6c8.9-1.3,17.9-3.7,19.5-5.2c0.6-0.5,1.8-0.9,2.9-0.9c2.9,0,44.3-20.8,54.7-27.4
		c14.5-9.4,33.9-22.8,41.3-28.5c9.6-7.5,9.1-7.4,42.6-15.2c21.2-4.9,21.7-3.9,11.1,21.6c-2.3,5.5-5,12-6,14.5
		c-5.4,13.6-6.6,15.4-19.1,27.5c-6.8,6.7-17.1,16.1-22.9,21s-14.8,12.5-20,17s-12.4,10.3-16,13s-9.4,7.2-13,10
		c-8.5,6.8-17.1,12.8-17.6,12.2c-0.2-0.2,0.1-3.7,0.7-7.8c3.7-25.5,3.8-30.2,0.7-32.3c-3.4-2.2-21.8-5.1-50.7-8.1
		c-17.6-1.8-25.5-1.9-26.9-0.3c-0.5,0.7-1.5,3.3-2.2,5.8c-0.6,2.5-2.2,7.9-3.6,12c-1.3,4.1-4.2,13-6.3,19.7
		c-2.2,6.7-5.2,14-6.6,16.3c-2.3,3.7-3,4.1-5.3,3.6c-1.5-0.3-5.7-1.2-9.3-2c-3.6-0.8-8.3-2.4-10.5-3.5c-2.1-1.2-4.3-2.1-4.9-2.1
		c-2.2,0-26-12.3-33.4-17.1c-11.5-7.7-32.9-29.3-40.6-41.2l-1.8-2.8l4.1-4.2c7.9-8.1,14.9-25.7,16.2-40.7c1.8-19.9-2-40.9-13.2-73
		c-3.8-11-5.9-15.6-7.1-15.8c-2.9-0.6-3,2.4-0.2,10c1.5,4,2.8,8.2,3.1,9.2c0.2,1.1,1.5,4.9,2.9,8.5c1.3,3.6,2.6,7.5,2.8,8.6
		s1.5,5.8,3,10.5c2.9,9.7,5.2,27.7,4.3,34.7c-0.3,2.7-0.8,6.8-1.1,9.3c-0.6,4.9-3.2,13.8-4.7,15.6c-0.5,0.7-1,2.1-1.3,3.2
		c-0.4,2.2-8.8,15.7-10.4,16.7c-0.6,0.3-1.5-0.6-2.1-2.2c-2.2-6-3.1-7-2.5-2.8c1.7,11.3,7.8,25.1,16,36l4.5,6v12.8
		c0,11.9,1,17.4,2.9,16.3c0.4-0.3,0.2-3.3-0.5-6.8c-1.5-7-1.9-20.8-0.6-20.8c0.5,0,1.9,1.2,3.3,2.6c3.2,3.5,19,15.3,25.9,19.4
		c13.9,8.3,15,9.7,19.5,25c3.7,12.7,11.3,25.1,22.9,37.5c5.3,5.8,10.3,10.5,10.9,10.5s-0.3-1.2-2-2.7c-8.1-7.3-21.1-25.5-26.9-37.7
		c-3-6.2-7.4-19.7-7.4-22.5c0-0.6,1.7-0.3,3.7,0.5c5.1,2.2,29.9,8.4,33.3,8.4c5,0,8.4-3.8,15.7-17.5c0.6-1.1,1.6-3.6,2.2-5.5
		c5.8-16.7,10.3-28.7,11.6-30.7c2.1-3.1,7-3.1,31.2,0.3c10.4,1.4,22.4,2.9,26.8,3.4s8.8,1.2,9.8,1.5c1.9,0.8,2.2,4.9,0.7,10.5
		c-0.5,1.9-1.1,5.7-1.4,8.3c-0.3,2.7-1.5,8.8-2.6,13.5c-2.1,9-3.9,19.2-3.4,19.2c0.4,0,20.2-14.1,28.9-20.5
		c12.6-9.3,39.9-31.6,51.5-41.9c6.3-5.7,15.6-13.9,20.6-18.3c28.9-25.8,65.6-67.4,82.7-94.1c1.5-2.3,3.1-4.2,3.6-4.2
		s4.8,2.5,9.6,5.5c4.9,3,9.2,5.5,9.6,5.5c1.9,0,7.1-5.6,12.5-13.5c12.4-18.1,30.1-43.3,34.5-49c5-6.5,5.6-6.5,11.3-0.2
		c2.8,3.1,6.4,6.1,7.9,6.7c5.6,2,13.5-1.9,27.8-13.6c3.6-3,7.1-5.4,7.6-5.4c1.5,0,8.2,7.7,9.5,10.8c0.6,1.5,1.6,4.7,2.3,7.2l1.3,4.5
		l0.1-6.2c0.1-6.7-2.4-14-6.2-18.1c-4.6-5-24.6-12.6-31.4-12c-3.6,0.3-3.3,0.5,6.2,4.2c5.5,2.1,10.4,4.3,11,4.8
		c3,2.7-10.2,16.6-18.3,19.2c-6.3,2.1-8.4,1.3-15.2-5.8c-4.6-4.8-5.9-5.6-9-5.6c-3.2,0-4.4,0.8-8.6,5.2c-8.2,8.7-13,15.2-31.3,42.4
		c-2.6,4-6.5,9.4-8.7,12c-2.1,2.7-3.9,5-4,5.2c-0.6,1-43.4-30.7-50.9-37.7c-1.6-1.5-6.1-4.9-9.8-7.6l-6.8-4.7l-15.1,15.1
		c-8.4,8.4-20.6,19.8-27.2,25.4c-17.2,14.5-37.2,27.7-39.6,26.2c-0.5-0.3-4.3-5.4-8.5-11.3c-4.1-5.9-10.4-14.8-14-19.7
		c-6.8-9.4-24.1-34.3-28.4-40.8c-1.3-2-2.9-3.7-3.3-3.7c-1,0-9.2,3.6-30.3,13.5c-18.7,8.8-22.6,10.6-26.9,12.4
		c-2.6,1.2-5.1,2.1-5.6,2.1c-1.1,0-4.7-8.7-8.7-21c-2.7-8.5-6-25.9-6.4-34c0-0.8-0.5-0.4-1.1,1c-2.1,5.3,1.7,26.6,6.8,37.8
		c1.3,2.9,2.4,5.7,2.4,6.1c0,0.5,1.1,2.9,2.5,5.2c1.4,2.4,2.5,4.7,2.5,5c0,1-21.4,8.9-24.3,8.9c-1,0-3.5-2.8-5.8-6.5
		c-2.3-3.6-4.4-6.4-4.6-6.1c-0.3,0.3,0.4,1.7,1.4,3.3c1.1,1.5,2.6,3.9,3.2,5.3c1.2,2.4,1.2,2.4-1.3-0.3c-1.4-1.5-4.4-5.8-6.6-9.5
		s-5.5-9-7.2-11.7c-1.7-2.8-4.6-7.3-6.3-10c-1.7-2.8-7.4-12.1-12.6-20.8c-7.3-12.2-9.8-15.7-11.1-15.3c-1.5,0.3-1.6,0.1-0.7-1.5
		c0.8-1.6,0-3.5-4.6-10.9c-3.1-4.8-7.4-10.7-9.5-13l-3.8-4.1l-7.4,0.6c-4,0.4-12.5,1.9-18.8,3.5c-6.3,1.5-16.9,4-23.5,5.5
		c-12.8,3-30.7,7.6-39.1,10c-2.9,0.9-5.9,1.3-6.7,0.9c-1.7-0.6-5.9-7.6-12.5-20.9c-8.7-17.6-18.3-38.3-20.7-45c-1-2.8-2.2-5.5-2.6-6
		c-0.4-0.6-1-2.3-1.3-3.9c-1-5.8-5.9-18.9-7.7-20.7c-3.6-3.6-8.9-4.3-21.4-2.9c-10.8,1.2-11.6,1.2-13.5-0.5
		c-2.6-2.4-2.5-4.8,0.6-16.4c1.5-5.3,2.7-10.2,2.7-10.8c0-0.7,0.8-2,1.8-2.9c1.5-1.4,2.9-1.4,11.1-0.4c5.1,0.6,10.7,1.3,12.3,1.6
		l3,0.5l-2.5-1.5c-1.4-0.9-5.9-2.6-10-3.9C81.4,336.4,67,338.4,56.2,347.5z M726.7,355.7c-0.3-0.6-0.5-0.1-0.5,1.3s0.2,1.9,0.5,1.2
		C726.9,357.6,726.9,356.4,726.7,355.7z M64.7,356c-3.2,0.6-9.4,9.6-10.8,15.8c-2.2,10-2.9,19.3-1.8,26.5c0.5,4,1.2,8.7,1.5,10.5
		c0.5,4.2,7.7,23.3,9.8,26.4c2.2,3.1,2,2.3-0.9-5.3c-1.4-3.5-2.7-7.3-2.9-8.4s-1.5-5.8-2.7-10.5c-1.9-6.8-2.4-11.1-2.4-21.5
		c0-14.7,1.3-20.1,7-28.5C63.4,358.2,64.8,356,64.7,356z M727.7,362.2c-0.3-0.9-0.5,0.1-0.4,2.3c0,2.2,0.2,3,0.4,1.7
		C727.9,365,727.9,363.2,727.7,362.2z M728,369c-0.6,0-1,3-1,7s0.4,7,1,7s1-3,1-7S728.6,369,728,369z M208,406.4l-2.5-0.6l2.4,2
		c2.8,2.3,15.9,6.6,24.5,8.2c7.4,1.2,23.1,1.3,19.9,0c-1.2-0.5-11.1-2.7-22-4.9C219.4,408.8,209.4,406.7,208,406.4z M295.6,441.4
		c-3.2,11.8-4.4,20.6-3.5,25.6c0.8,4.9,1.4,2.6,3.4-12.5c0.9-7.1,1.9-13.9,2.1-15s0.7-3.5,1-5.3
		C299.6,427.9,298.3,431.1,295.6,441.4z M409.8,446.2c-2.6-2.4-4.8-3.8-4.8-3.1c0,2.2,7.9,11.8,13.2,16c10.9,8.6,30.5,16,38,14.4
		c2.1-0.5,2.8-0.4,2.4,0.4c-0.9,1.4,1.7,1.9,14.4,2.6c16.1,1,10.9-1.1-7.5-3.1c-3.3-0.4-6.4-1-7-1.4c-0.5-0.4-4.1-1.7-8-3
		c-3.8-1.2-9.3-3.3-12.2-4.6c-2.8-1.3-5.5-2.4-5.8-2.4c-0.4,0-2.5-1.3-4.8-2.8c-2.3-1.6-6.2-4.2-8.6-5.8
		C416.7,451.8,412.5,448.5,409.8,446.2z M293.7,476.5c-0.2-1.7-0.5-2.3-0.6-1.5c-0.6,3.6,0.2,11.2,2.1,20c1.1,5.2,2.2,10.4,2.4,11.5
		c0.7,4,6.6,20.1,9.5,26.2c5.3,10.8,6,8.8,0.9-2.6c-2.7-6.1-4.7-11.1-4.5-11.1s-0.9-3.5-2.5-7.8c-1.5-4.2-3.1-9.5-3.4-11.7
		c-0.4-2.2-1.3-7.6-2.1-12C294.7,483.1,293.9,478.1,293.7,476.5z M168.5,489.2c-0.3-0.3-0.5-0.3-0.5,0s-0.9,5-2.1,10.4
		c-2.4,11.7-3.5,31.6-2.1,39.4c0.9,5.2,1,4.8,1.1-5.8c0.1-11.4,1.3-25.2,3.2-37.1C168.6,492.6,168.8,489.5,168.5,489.2z M779,491
		c-0.5,0-1,0.9-1,2s-1.1,4.9-2.5,8.5c-1.3,3.6-2.2,6.5-2,6.5c0.8,0-8.2,18.1-13.5,27.1c-6.6,11-25.8,36.9-33.5,44.9
		c-9.7,10.2-38.8,43.3-37.7,42.9c2-0.7,37.7-38.3,44.5-46.9c3.7-4.7,8.1-10.1,9.7-12.1c10.2-12.7,29.2-44.1,30.5-50.6
		c0.2-1,1.4-5.2,2.8-9.3c1.4-4.1,2.8-8.7,3.1-10.3C779.8,492.1,779.6,491,779,491z M150.1,548c-0.6-19.4-0.6-19.5-1.5-9.9
		c-1.3,15.5,2.5,45.8,7.5,59.9c1.6,4.4,0.3-4.4-2.7-18C151.2,569.9,150.6,563.8,150.1,548z M713.6,564.8
		c-6.5,11.4-30.2,44-44.4,61.1c-2.9,3.4-5.2,6.5-5.2,6.9c0,0.8,0.6,0.2,12.1-13.2c8.7-10.1,13.9-16.5,24.4-30.6
		c5.1-6.8,14-21.5,16.1-26.5C719.1,556.5,717.7,557.5,713.6,564.8z M266.9,623.5c-2.5-1.3-2.8-1.3-3.3,0.3
		c-0.9,2.9-0.5,25.3,0.5,27.9c2.4,6.4,21.7,20.3,28.2,20.3c1.4,0,2.8,0.4,3.1,0.9s2.4,1.1,4.6,1.3c3.2,0.3,4,0,3.7-1.2
		c-0.2-1.1-1.4-1.5-4.2-1.3l-4,0.1l3.7-1.5l3.6-1.5l-4.5-7c-5.3-8.4-18-25.1-24.2-32C271.7,627.1,268.5,624.3,266.9,623.5z
		 M616.6,631.2c-0.3-0.2-0.8,0.9-1.1,2.4c-0.4,1.6-1.9,6.5-3.3,10.9c-1.4,4.4-2.7,8.4-2.8,9c-0.3,1.6-7.4,19.6-9.6,24.5
		c-4.8,10.6-16,32.2-19.6,37.6c-4.8,7.4-6,9.6-3.3,6.4c6.2-7.4,22.6-36.6,27.1-48c1.2-3,2.8-6.9,3.5-8.5c2.1-4.6,6.7-18.7,7.1-21.6
		c0.2-1.4,0.8-4.8,1.4-7.4C616.6,633.9,616.8,631.5,616.6,631.2z M717.5,635.2c-0.3-0.3-2.1,3-4.1,7.4c-2,4.3-6.1,13-9,19.1
		c-5.2,11.2-5.6,13.4-1.7,9c2.4-2.6,4.9-8,10.9-23.6C716,640.8,717.8,635.5,717.5,635.2z M694.3,679.4c-2.6,3-10,11-16.3,17.8
		c-7.4,7.9-9.9,11-7,8.8c2.5-1.9,6.4-5.5,8.8-7.9c4.6-4.7,18.3-20.7,19.6-22.9C701,672.6,699,674.2,694.3,679.4z M567.7,701
		c-2.7,5.9-14.1,22.4-21,30.4c-8.8,10.4-21.7,23.7-34.2,35.5c-10.1,9.5-10.6,10.1-5.5,7c8.9-5.4,33.9-30.6,45-45.4
		c5.4-7.2,11-15.3,12.5-18c1.5-2.8,3.1-5.5,3.5-6c0.4-0.6,1.2-2.5,1.8-4.3C571.3,695.7,569.9,696.2,567.7,701z M240.2,743
		c-1.6-3.8-1.4-1,0.4,4.9c2.7,9.4,9.2,20.2,16.1,27.3c6.1,6.2,15.7,12.7,17,11.5c0.3-0.3-1.3-1.5-3.5-2.6
		c-8.5-4.4-19.4-17.7-26-32.1C242.5,748.4,240.7,744.4,240.2,743z M365.7,759c-0.4,0-5.5,12.7-6.2,15.6c-0.6,2.4-6.6,19-9.9,27.1
		c-1.3,3.5-2.1,6.3-1.6,6.3c0.4,0,1.3-1.2,1.9-2.8c0.6-1.5,1.8-3.8,2.6-5.2c5-8.6,11.5-27.4,13-37.3
		C365.9,760.7,365.9,759,365.7,759z"/>
	<path id="path12" fill="#6B8E23" d="M248.3,257.2c0.4-0.1,0.7,3.1,0.7,7.2v7.5l-5.2,3.1c-2.9,1.7-8.9,5.2-13.3,7.8
		c-15.4,8.8-26,15.2-29,17.2c-1.6,1.1-6.2,4.2-10.2,6.8c-3.9,2.6-12.6,9.2-19.4,14.6l-12.3,9.9l-4.9-5.4c-5.9-6.6-18-21.9-17.6-22.3
		c3.7-2.5,14.9-9.3,19.9-12.2c8.7-5,31.7-16.4,33-16.4c0.6,0,2.7-0.8,4.8-1.9c7.7-3.8,41.7-14.5,49.2-15.4
		C245.9,257.5,247.8,257.2,248.3,257.2z"/>
	<path id="path14" fill="#00FF00" d="M244.4,325c1.4,1.8,2.6,4,2.6,5c0,1.8-10.9,27.2-15.6,36.2c-1.3,2.7-2.1,4.8-1.6,4.8
		c0.4,0,6.6-5.8,13.7-13c7.1-7.1,13.1-12.7,13.4-12.4c0.3,0.2,0.7,1.7,0.8,3.2c0.2,1.5,1.5,7.3,2.8,13c1.4,5.7,2.7,11.8,3.1,13.5
		c0.7,4.4,3.5,13,4.5,14.1c0.5,0.6,0.9,1.7,0.9,2.7c0,0.9,1.1,3.8,2.5,6.4s2.4,4.9,2.3,5c-0.5,0.6-43.4-21.1-52.4-26.5
		c-14.2-8.4-30.7-19.8-39.4-27.1l-7.9-6.7l4.2-2.5c2.3-1.4,5.8-3.2,7.7-4c1.9-0.9,4.6-2.2,6-3c10.8-6,25.1-12.1,33.5-14.2
		C233.4,317.5,239.5,319.3,244.4,325z"/>
	<path id="path16" fill="#6B8E23" d="M575.7,323.2c0.7,0.6,3.5,4.7,6.2,9.2c6.2,10.4,11.8,19.7,13.1,21.6c1.1,1.7,10.9,17.7,19.6,32
		c3.1,5.2,7.3,11.9,9.2,14.8c5.9,8.8,3,6.8-5.2-3.5c-9.6-12.3-29.3-36.9-36.8-46.1l-5.7-7l-10.8,11c-11.5,11.8-77.2,72.6-85.7,79.4
		c-7.3,5.8-9.8,6.4-21.3,5.4c-5.4-0.5-16.3-1.4-24.3-2.1c-21-1.8-20.7-1.5-10.8-7.4c16.9-10.2,46.6-30.7,69.3-47.9
		c3.3-2.5,12.5-9.4,20.5-15.3c8-5.8,19.5-14.3,25.5-18.8c6.1-4.5,12.8-9.5,15.1-11.1c2.2-1.6,7.8-5.7,12.4-9.1
		C572.5,323.4,574.6,322.3,575.7,323.2z"/>
	<path id="path18" fill="#00FF00" d="M561.2,405c1.6,0,1.7,2.5,0.7,14.5c-0.6,7-0.8,12.9-0.6,13.2c0.3,0.3,3.6-5.5,7.4-12.8
		c3.7-7.3,7.6-13.7,8.5-14.3c4.1-2.5,30.3,6,47.3,15.3c13.8,7.5,19.5,11.3,19.5,13c0,1.5-19,4.4-37,5.8c-17.9,1.3-102.2,3-108,2.2
		c-2.2-0.4-1.8-1,5-6.4c17.6-14.2,30.9-22,46.5-27.1C556,406.5,560.8,405.1,561.2,405z"/>
	<path d="M531.8,28.9c13.6,6.6,26,18.1,33.4,31.1c4.1,7.1,9.3,20.8,11.3,29.6c2.1,9.7,1.5,18.6-1.8,25.4c-2.3,4.6-6.4,7.8-20.8,16
		c-3.4,1.9-6.4,4.1-6.6,4.8c-0.3,0.7,2.7,4.6,6.7,8.8c6.3,6.7,15.3,19.2,20.2,28.3l1.7,3.1h12.8c15.9,0,35.3,2.2,45.8,5
		c4.4,1.2,9.6,2.6,11.5,3.1c5.3,1.2,23.2,8.5,31.9,12.9c26.3,13.3,47.6,30.7,64.2,52.6c7.8,10.3,17.6,26.6,22.2,36.9
		c3.6,8,9.7,24.2,9.7,25.6c0,0.6,1.1,4.8,2.5,9.3c1.3,4.4,2.7,9.7,2.9,11.6c0.3,1.9,1.5,8.9,2.7,15.5c2.1,10.9,2.3,14.9,2.4,45
		c0,18.1-0.4,36.5-0.8,40.7c-0.6,5.8-0.5,7.9,0.5,8.7c0.7,0.6,4.9,4,9.3,7.5c4.4,3.5,10.3,9.5,13.2,13.2c6,8,11.4,20.6,12.1,28.1
		c0.2,2.9,0.8,5.3,1.3,5.3s0.9,4,0.9,9c0,5.3-0.4,9-1,9c-0.5,0-1,2-1,4.4c0,10.5-12.7,41-21.9,52.6c-10.5,13.2-24.2,25.4-37.2,33.4
		c-4.1,2.5-8.2,5.3-9.1,6.3c-0.8,1-2.5,6.1-3.8,11.3c-1.2,5.2-3.3,12.8-4.7,16.9c-1.3,4.1-2.7,8.3-2.9,9.5c-0.2,1.1-1,3.4-1.8,5.1
		c-0.8,1.6-2.5,5.5-3.9,8.6c-4,9.1-13.2,24.4-19.4,32.1c-25,31.5-55.1,44.8-101.5,44.8H599l-8.3,8.3c-8.5,8.5-25.4,21.5-34.2,26.1
		c-2.7,1.4-5.7,3-6.5,3.5c-10.1,5.7-28.3,11.7-40.5,13.2c-5.4,0.7-14.5,0.9-22.8,0.5c-12.1-0.6-15-1-24.2-4.2
		c-11.1-3.7-12.7-3.7-17.3,0c-5.6,4.7-35,23.9-41.4,27.2c-19.8,10-41,13.4-62.3,9.9c-27.9-4.5-64.3-16.6-78.5-26.2
		c-1.9-1.2-3.8-2.3-4.3-2.3c-1.6,0-23.3-14.4-30.6-20.3c-9.5-7.8-17.6-18.8-23-31.3c-2.4-5.4-5.6-12.7-7.1-16.1
		c-1.6-3.5-2.7-6.3-2.4-6.3c0.2,0-0.3-1.4-1.1-3.1c-2.1-3.9-9.4-21.5-10.5-25.1c-1.6-5.1-5.1-8.8-14.1-14.9
		c-21.5-14.4-42.6-35.5-58-57.9c-8.3-12.1-21.8-39.3-26.2-53c-5.2-15.8-7.1-29.3-7.2-51v-18.5l-4.9-9C64.5,472.6,59,462,59.6,462
		c0.3,0-0.5-1.9-1.9-4.3c-2.9-5-12.9-29.8-16.4-40.6c-3.6-11.5-9.2-33.6-9.8-38.9c-0.3-2.6-1-7.2-1.6-10.2c-0.5-3-1.2-11.6-1.6-19
		c-0.7-17.2,2.1-38.9,6.5-49.6c7.5-18.5,22.1-31.8,42.4-38.8c7-2.4,9-2.6,23.6-2.6h16l2.7-6.8c4.9-11.9,12.1-26.7,15.8-32.5
		c2.1-3.2,3.7-6,3.7-6.4s2.6-4.1,5.7-8.2c22.5-29.7,43-47.4,70.8-61c26.2-12.8,40.2-15.6,64.4-13.2l11.5,1.2l7-7
		c12.7-12.4,23.5-15.9,46.9-14.8c10.5,0.5,14.3,1.2,22,3.7c5,1.7,11.5,4.4,14.3,6c5,2.8,5,2.8,7.5,0.9c2.2-1.8,5.8-4,12.5-7.7
		c1.4-0.7,6.1-2.5,10.7-3.9c7.1-2.2,10.6-2.6,26.2-3c9.9-0.3,18.5-1,19.2-1.5s4.9-8,9.4-16.6c4.5-8.7,8.4-15.9,8.8-16.2
		s1.9-2.5,3.3-5c2.6-4.5,18.2-25.6,23.5-31.8c1.6-1.8,4.9-4.6,7.3-6.2C516.6,23.8,521.9,24,531.8,28.9z M510.9,35.9l-3.9,3.9v11.6
		c0,12.7,1.2,17.8,7.5,31.1c10.9,23.1,36.9,41.5,49.4,35.1c5.5-2.9,6.6-5.9,6.5-18.1c0-10.7-1.4-17.5-5-24.3
		c-0.8-1.5-1.4-3.2-1.4-3.8c0-0.5-2.3-4.6-5.1-9c-7.1-10.9-18.9-22.3-28-26.8C520.9,30.6,516.1,30.6,510.9,35.9z M498.1,51
		c-1.5,0-20.1,26.6-20.1,28.6c0,0.4-0.6,1.5-1.4,2.3c-4.7,5.2-24.5,50.1-26.1,59c-0.3,1.6-1.4,5.8-2.5,9.3
		c-2.7,8.6-8.1,41.4-8.3,50.6l-0.2,7.6l8.2,4.3l8.2,4.4l5.8-11.3c3.1-6.2,6.2-12,6.8-12.9c5-8,12.2-18.6,16.5-24.4
		c12.4-16.9,15-20.7,17.6-25.2l2.7-4.8l-2.9,2.6c-5.6,5-24.4,19-24.4,18.3c0-1,7.2-11.4,11.8-17.2c2.1-2.7,3.2-4.9,2.8-5.9
		c-0.4-1,0.4-2.8,2.3-4.7c1.6-1.7,5.5-6.9,8.7-11.6s7.2-10.2,8.9-12.2c5.4-6.4,6-8.2,3.9-11.2c-1.1-1.4-2.3-2.5-2.9-2.6
		c-0.5,0-8.6,11.5-18,25.5c-12.6,19-17.4,25.5-18.9,25.5s-1.7,0.3-0.9,1.1c0.8,0.8-0.5,3.6-5,10.5c-3.4,5.1-6.6,9.3-7.1,9.3
		c-0.4,0.1-0.2-0.9,0.6-2.2c0.9-1.2,4.8-8.3,8.8-15.7s7.8-14.2,8.4-15c1.1-1.4,9.2-14.6,22.3-36.8c2.8-4.8,5.2-9.1,5.2-9.5
		c0.1-0.4-1.5-5.2-3.5-10.5s-3.8-10.4-3.9-11.2c0-0.8-0.7-4.3-1.4-7.8C499.3,53.8,498.4,51,498.1,51z M444.9,113.1
		c-11.6,0.1-27.3,3-34.6,6.4c-3.1,1.4-5.9,2.5-6.3,2.5c-0.5,0-2.6,1.2-4.9,2.6l-4,2.7l4.7,3.8c2.5,2.1,6.1,5.8,8,8.1
		c3.8,4.8,10.7,16.7,10,17.3c-0.2,0.2-2.4-2.1-4.8-5.1c-22.6-28.3-73.7-42.1-99.7-26.8c-4.6,2.7-11.3,8.2-11.3,9.3
		c0,0.3,2.1,1.7,4.8,3.1c12.4,6.5,23.3,15.1,29.8,23.4c2.8,3.6,3.6,4,12,5.6c16.2,3.2,28.6,9.2,37.4,18c5.5,5.5,13.2,18,11.1,18
		c-0.5,0-1.4-1.4-2.1-3c-3.7-8.9-18.8-18.9-35-23.2c-11-3-34.3-3.2-46-0.6c-4.1,1-10.4,2.4-14,3.2c-12.7,2.8-37.8,13-47.5,19.3
		c-1.1,0.7-8.4,5.6-16.2,10.8c-7.9,5.2-14.3,9.1-14.3,8.7c0-1.7,10.7-14.7,15.5-18.8c5.8-5.1,19-14.4,20.2-14.4c0.4,0,2.4-1,4.3-2.2
		c14.7-9.2,45-16.8,67.3-16.8c4.3,0,7.7-0.4,7.5-0.9c-1.2-3.1-22.7-19.1-25.7-19.1c-0.4,0-3.5-1.1-6.9-2.5c-7.4-3-22-5.5-32.2-5.5
		c-28.7,0.1-61.2,14-87,37.3c-13.3,12-26.6,27-34.5,38.8c-9.2,13.6-21.6,38.1-23.1,45.6c-0.6,3-0.5,3.1,4.7,4.7
		c5.4,1.6,11.3,4.5,9.4,4.6c-0.5,0-5.3-0.9-10.5-2c-32.3-6.7-66.9,3.6-80.4,23.8c-4.4,6.7-7.2,12.6-8,16.6c-0.2,1.1-1.2,4.8-2,8.1
		c-0.9,3.3-2.1,11-2.8,17.2c-1.3,12.2-0.2,28.6,2.8,42.5c0.8,4,1.7,8.9,2,10.8c0.2,1.9,1.5,7.1,2.8,11.5s2.7,9.3,3,10.9
		c1.1,4.6,12.2,33.8,14.5,38.1c1.2,2.2,2.1,4.3,2.1,4.6c0,1.3,15,31.8,15.9,32.3c0.5,0.3,1.2-2.2,1.5-5.7c1.7-16.1,4-32.7,4.6-32.7
		c0.4,0,1.5,5.2,2.5,11.6c1.7,11,1.7,12.4,0.2,27.7c-1,8.9-1.7,25.2-1.8,36.3c0,17.4,0.2,21.2,2.1,28.5c1.2,4.6,2.6,10,3.1,12
		c1.1,4.5,5.9,16.7,10.9,27.4c12.7,27.6,36.7,57.7,60.9,76.3c5.1,4,9.5,7.1,9.7,6.9c0.3-0.3-5.1-16.1-6.1-17.8
		c-0.4-0.5-0.8-1.7-1-2.6c-0.1-1-1.5-5-3-8.8c-1.5-3.9-4.2-10.8-6-15.5s-3.8-10.3-4.5-12.5s-1.7-4.5-2.2-5.2
		c-0.6-0.7-0.8-1.7-0.6-2.4c0.2-0.6,2.6,2.6,5.3,7c2.8,4.5,6.1,9.9,7.4,11.9c3.3,5.2,15.4,29.6,17.9,36.2c1.2,3,3.5,9.5,5.3,14.5
		c1.7,4.9,4.3,12.1,5.7,16c1.4,3.8,2.7,7.4,2.8,8c0.2,1.1,8.8,22.3,10.2,25.2c0.5,1,2,4.3,3.4,7.3s3.3,7,4.1,8.7
		c0.8,1.8,1.3,4.2,1,5.3c-0.3,1.2-0.1,2,0.5,1.8c0.5-0.2,2.9,2.5,5.1,5.9c2.3,3.4,6.4,8.1,9,10.5c5,4.5,22.8,17,29.6,20.7
		c2.2,1.2,6,3.4,8.5,4.7c12.4,7,36.5,17.4,40.2,17.4c0.8,0,4.7,1.1,8.6,2.4c20.7,7.1,53.6,7.9,71.2,1.9c6-2.1,18-8.1,20.4-10.1
		c1.7-1.5,14.8-16.6,35.3-40.7c4-4.7,7.4-8.1,7.7-7.6s-0.4,1.7-1.6,2.7c-1.1,1.1-6.5,7.5-12,14.4c-5.4,6.9-12.1,15.2-14.8,18.5
		c-2.7,3.3-4.9,6.4-5,6.8c0,0.4,1.9-0.6,4.3-2.2c2.3-1.7,8.8-6.3,14.3-10.2c8.5-5.9,11.1-8.4,16-15.2c11.6-16.4,22.6-30.8,23.1-30.3
		c0.3,0.2-0.9,2.4-2.6,4.8c-6.7,9.4-16.1,23-16.1,23.5c0,0.3,5.1-4.2,11.3-9.9c18.1-16.8,28.7-24.6,41.7-30.6
		c6.8-3.1,13.3-5,11.5-3.4c-0.5,0.5-4.4,3.4-8.6,6.5c-4.2,3.1-8.2,6.4-8.9,7.2c-0.7,0.8-1.9,1.5-2.7,1.5c-1.4,0-11.3,6.7-11.3,7.6
		c0,0.3,1.4-0.2,3-1.1c1.7-0.9,3-1.4,3-1.2s-7.9,7.7-17.5,16.7S460,775.7,460,776.1c0,0.4,1.2,1.1,2.8,1.7c11.1,4.2,39,5.1,54.7,1.8
		c10.7-2.2,28.2-9,37.9-14.8c11.8-6.9,26-19.6,39.5-35.3c7.2-8.3,9.8-11.9,19-26c4.3-6.5,16.5-31.8,19.1-39.5
		c1.5-4.2,4.9-13.9,8.5-23.5l2.5-7l-0.5,6.1c-0.3,3.3-1.6,9.9-3,14.5s-2.8,9.6-3,11.2c-0.3,1.5-1.8,6.3-3.4,10.7
		c-1.6,4.4-2.8,8-2.6,8s-1.9,5-4.6,11.2c-5.2,11.9-11.1,22.5-16.7,29.8l-3.4,4.5l2.3,0.6c3.1,0.8,19.8,0.2,31.4-1.3
		c34.1-4.1,63.4-25.5,79.9-58.5c5-9.9,12.2-27.6,13-32c0.2-1,1.6-5.8,3-10.8c1.4-4.9,2.6-9.2,2.6-9.6c0-0.6-9.6,2.5-18.4,6
		c-1.6,0.6-3.1,0.9-3.3,0.7c-0.3-0.3,4-2.7,9.5-5.5c26.5-13.3,52.5-37.3,68.4-63.1c4.6-7.3,11.3-21.9,12.2-26.3
		c4.3-20.5,4.5-25.1,1.6-38c-5.7-25.8-27.3-44.2-60.3-51.2c-13.1-2.8-40.3-1.6-53.6,2.4c-4.6,1.4-5.1,0.7-0.9-1.5
		c15.7-8.4,32.3-11.3,51.9-9c7.4,0.9,15.2,2.5,19.4,4c3.8,1.4,7.1,2.3,7.4,2.1c0.2-0.3,0.5-1.7,0.6-3.2c2.4-36.4,2.5-41.7,1.5-55.8
		c-0.6-8.3-1.3-17.9-1.5-21.5c-0.6-8.6-4.9-29-8.7-41.5c-11.8-38.6-29.9-65.7-61.3-92.2c-10.4-8.7-23.7-16.6-42.5-25.1
		c-15-6.8-43.1-14-60-15.4c-17.9-1.5-42.2-0.2-52.6,2.7c-15.3,4.5-13.1,2.5,5.1-4.5c6.1-2.4,11.2-4.4,11.3-4.6
		c1.9-1.6-7.9-16.6-17.1-26.2c-2.3-2.3-3.5-4.2-2.8-4.2c0.6,0,0.9-0.5,0.6-1c-0.3-0.6-2.6-1-4.9-1c-4.3,0-4.6,0.2-16.3,12.7
		C513.7,169,502,183.1,502,184.4c0,0.3,2.9-1.7,6.5-4.4c4.5-3.4,8.9-5.7,14.4-7.4c7.5-2.4,21.1-4.5,21.1-3.3c0,0.2-3.3,1.3-7.2,2.2
		c-11.7,2.8-25.8,10-38.6,19.9c-5.7,4.4-15,15.8-13.4,16.4c0.6,0.2,3.8-1.1,7.2-2.8c10.9-5.5,24.3-9.1,36-9.7
		c12.9-0.7,21.9,0.7,35.2,5.2c13,4.4,24,10.8,35.7,20.8c8.6,7.4,25.5,26.1,26.9,29.7c0.3,0.8,1.8,3.3,3.2,5.5
		c5.2,7.7,24.5,47.5,23.1,47.5c-0.5,0-2-2.4-3.4-5.3c-9.2-18.7-24.3-39.4-41.2-56.3c-21.2-21.2-40.6-32.5-61-35.3
		c-28.4-4-58.1,3.3-75.1,18.4l-4.5,4l5.1,9.8c4.8,9.2,11.4,26.1,12.4,31.7c0.2,1.4,0.7,3.8,1,5.5c0.6,2.9,0.6,3-0.5,0.5
		c-18.3-38.4-24.3-47.3-36.5-54.6c-8.2-4.8-15.4-6.8-24.9-6.6c-27.1,0.4-56.3,16.8-83.8,47c-7.2,8-24.7,31.7-24.7,33.6
		c0,0.8-7.2,12.6-7.7,12.6c-0.2,0-0.2-0.4,0.1-0.8c0.3-0.5,0.7-2.2,1-3.8c0.9-4.7,6.4-18.3,10.8-26.4c6.6-12.4,17.5-26.9,27.7-37.1
		c21.8-21.6,46.8-33.4,73.5-34.4c6.5-0.2,12-0.6,12.2-0.8s0.4-3.2,0.5-6.8c0.1-6.9,2.2-21,4.4-29.9c0.8-3,1.7-7.1,2-9s1-5.1,1.6-7
		s2.1-7.1,3.4-11.5c1.2-4.4,3.7-11.8,5.5-16.5c1.7-4.7,3.4-9.3,3.7-10.3C454.2,113.2,453.4,113,444.9,113.1z"/>
	<path d="M363,132.5c6.1,2.1,13.5,7.9,18.6,14.5c5,6.5,13,22,13.9,27c0.4,2.1-0.7,0.4-2.7-4.5c-5.9-14.1-14.8-25.2-26.4-33
		c-3.3-2.2-6.3-4.3-6.9-4.7C359,131.3,360.6,131.7,363,132.5z"/>
	<path d="M416.6,173c0.9,9.1,1.6,23.4,1,22.9c-0.4-0.4-0.9-3.9-1.2-8c-0.3-4-1.7-11.6-3-16.9c-1.4-5.2-2.7-10.3-2.9-11.2
		c-0.2-0.9-0.8-2.6-1.4-3.7c-0.6-1.1-1.1-2.2-1.1-2.5C408,149,416,167,416.6,173z"/>
	<path d="M230,163.4c0,0.2-4.4,2.5-9.7,5.2c-22.5,11-44.8,29.7-56.2,46.9c-6.4,9.7-6.3,9.5-5.1,5.5c1.6-5.5,9.1-16.1,17.5-24.6
		c12.1-12.2,29.2-23.3,47.5-31C230.2,162.8,230,162.9,230,163.4z"/>
	<path d="M228.7,176c1.2,0-2.9,4-15.2,14.6c-26.8,23.1-37.3,36.5-47.5,60.5c-2.3,5.2-4.3,10.5-4.5,11.9c-1,4.9-4.3,14.5-4.4,12.4
		c-0.2-4.4,5.3-23.2,9.1-31.3c9.3-19.9,25.7-39.2,49.7-58.3C222.7,180.4,228.4,176,228.7,176z"/>
	<path d="M347.5,192.9c2,0.5-1.9,1.1-12,2c-23.9,2-44.5,8.7-59.8,19.3c-9,6.3-9.8,6.5-4.1,1.1c9.7-9.2,30.3-18.1,49.2-21.3
		C331.8,192.1,342.2,191.7,347.5,192.9z"/>
	<path d="M363.5,200.3h9L362,201c-5.8,0.4-11.8,1.1-13.5,1.5c-30.5,7.4-50.6,18.6-72.2,40c-6.8,6.7-12.3,11.9-12.3,11.5
		c0-2,10.7-15.5,15.5-19.7c18.5-15.9,48.9-30.7,68.8-33.2C351.7,200.6,358.6,200.3,363.5,200.3z"/>
	<path d="M641.3,219.3c19.1,11.4,33.4,23.6,46.4,39.8c6.6,8.3,8.8,11.7,7.9,12.7c-1,0.9-5.3-3.7-13.6-14.3
		c-12.6-16.3-28.4-29.7-47.2-40.4c-3.2-1.8-6-3.6-6.3-4.2C627.4,211.2,629,212,641.3,219.3z"/>
	<path d="M542.2,219c2.3,0,21.1,10.3,29.3,16c7,4.8,32.3,30.2,30.7,30.8c-0.7,0.2-5.7-4-11-9.5c-12.2-12.4-25.8-23.2-39.2-31.1
		C546.3,221.8,541.9,219,542.2,219z"/>
	<path d="M252.5,247.9c0.3,2.4,0.7,4.7,1,5c0.5,0.9,4.2,24.7,4.4,28.4c0,1.6,1.2,9.7,2.6,17.9c1.4,8.3,2.8,18,3.1,21.7
		c0.3,3.6,1.6,13.6,3,22.1s2.7,17.7,3,20.4c0.4,4.4,3.8,20.1,6.5,30.1c2.5,9.3,10.2,17.5,16.2,17.5c3.2,0,8.8-1.9,11.2-3.9l2-1.6
		l-2,2.4c-5.4,6.4-19.4,6.7-24.5,0.6c-1.6-1.9-9.8-5.8-16.9-7.9c-15.2-4.6-42.7-17.3-60.1-27.8c-5.8-3.5-11.7-6.9-13.2-7.7
		c-4.7-2.4-20.1-15.3-28.8-24.1c-17.9-18-29-34.3-34.6-51c-1.8-5.2-3.1-9.6-2.9-9.8c0.9-0.9,2.3,1.1,6.5,9.2
		c2.4,4.7,4.8,8.6,5.3,8.6c1.3,0,15.9-8.9,18.5-11.3c1.2-1.1,2.2-2.6,2.2-3.4c0-0.7,0.4-1.3,1-1.3c0.5,0,0.7,0.7,0.3,1.6
		c-0.4,1.1,1.8,0.4,7.3-2.4c13.9-6.9,34.7-16.4,44.1-20c8.5-3.3,29.4-9,35.5-9.7l5.7-0.6l0.7-4.5C250.4,241,251.7,241.8,252.5,247.9
		z M248.3,257.2c-0.5,0-2.4,0.3-4.3,0.5c-7.5,0.9-41.5,11.6-49.2,15.4c-2.1,1.1-4.2,1.9-4.8,1.9c-1.3,0-24.3,11.4-33,16.4
		c-5,2.9-16.2,9.7-19.9,12.2c-0.4,0.4,11.7,15.7,17.6,22.3l4.9,5.4l12.3-9.9c6.8-5.4,15.5-12,19.4-14.6c4-2.6,8.6-5.7,10.2-6.8
		c3-2,13.6-8.4,29-17.2c4.4-2.6,10.4-6.1,13.3-7.8l5.2-3.1v-7.5C249,260.3,248.7,257.1,248.3,257.2z M225.5,319.5
		c-8.4,2.1-22.7,8.2-33.5,14.2c-1.4,0.8-4.1,2.1-6,3c-1.9,0.8-5.4,2.6-7.7,4l-4.2,2.5l7.9,6.7c8.7,7.3,25.2,18.7,39.4,27.1
		c9,5.4,51.9,27.1,52.4,26.5c0.1-0.1-0.9-2.4-2.3-5s-2.5-5.5-2.5-6.4c0-1-0.4-2.1-0.9-2.7c-1-1.1-3.8-9.7-4.5-14.1
		c-0.4-1.7-1.7-7.8-3.1-13.5c-1.3-5.7-2.6-11.5-2.8-13c-0.1-1.5-0.5-3-0.8-3.2c-0.3-0.3-6.3,5.3-13.4,12.4c-7.1,7.2-13.3,13-13.7,13
		c-0.5,0,0.3-2.1,1.6-4.8c4.7-9,15.6-34.4,15.6-36.2c0-2.4-4.5-7.7-7.9-9.4C234.9,318.4,230.9,318.1,225.5,319.5z"/>
	<path d="M605.4,270c0.7,0,11.6,15.5,14.7,21c8,13.9,10.7,19.1,9.4,18c-0.8-0.6-3-4-5-7.3c-3.5-6.2-6.1-10.2-14-22.7
		c-2.3-3.6-4.5-7.1-4.9-7.8C605.2,270.6,605.1,270,605.4,270z"/>
	<path d="M698.9,276.5c3.7,3.5,11.5,17.4,12.6,22.4c0.2,0.9,1.7,5,3.3,9.1c1.7,4.1,2.8,7.9,2.5,8.3c-0.7,1.1-1.1,0.6-1.7-2.3
		c-1-5.1-9.5-22.8-15.2-32c-1.9-3-3.9-6.4-4.5-7.5S696.6,274.3,698.9,276.5z"/>
	<path d="M675.3,274c0.3,0,2.8,3,5.5,6.7c9.8,13.4,21.4,40.5,21.1,49.6c0,2.1-0.1,2.1-1-0.3c-0.5-1.3-1.1-3.6-1.3-5
		s-1.4-5.2-2.7-8.5s-2.4-6.6-2.5-7.2c-0.4-2.4-11.6-23.8-14.8-28.3c-1.8-2.5-3.5-5.1-4-5.8C675.2,274.6,675.1,274,675.3,274z"/>
	<path d="M583.8,314.7l-3.6,3.8l3.9,6c2.1,3.3,5.4,8.7,7.4,12c3.7,6.1,7.3,11.9,13,21c6,9.5,28.5,45.8,31.8,51.5
		c1.1,1.9,4.5,7.2,7.4,11.7c2.9,4.6,5.3,8.7,5.3,9.2c0,2.1,2.4,2.2,7.2,0.1c2.7-1.2,5.2-1.9,5.5-1.6c0.9,0.8-3.9,4.5-6.7,5.2
		c-1.4,0.3-5.4,1.5-8.9,2.5c-9.7,3-34,7.8-45.4,9c-5.6,0.5-12.9,1.4-16.2,1.9c-24.2,3.6-80.3,4.7-104.5,2.2
		c-27.7-2.9-40.5-5.2-57-9.9c-7-2.1-11.3-2.7-16.4-2.5c-13.8,0.5-26.3-4.7-36.2-15c-13.2-13.7-18.7-27.4-18.8-46.8
		c-0.1-12.3,0.8-17,5.2-26c2.7-5.5,13.7-17.8,14.9-16.6c0.4,0.3-0.3,1.6-1.4,2.9c-4.3,4.7-12.6,19-14.5,25c-2.5,7.9-1.9,15.7,2,27
		c6.2,17.9,15.8,30.4,28.4,36.7c14.6,7.3,22.9,5.5,43.4-9.2c5.6-4,12.7-9.1,15.9-11.3c3.1-2.2,7.8-5.6,10.4-7.6
		c2.5-1.9,8.8-6.4,13.9-10c5.1-3.5,13.6-9.4,19-13.2c21.9-15.2,26.6-18.5,35-24c4.8-3.1,12.1-7.8,16.2-10.3s12.6-7.6,18.8-11.5
		c6.3-3.8,11.6-6.9,11.9-6.9c0.4,0,2.1-1.1,3.9-2.5c1.9-1.4,5.3-3.5,7.6-4.5C587.9,310.4,588,310.4,583.8,314.7z M575.7,323.2
		c-1.1-0.9-3.2,0.2-9.7,5.1c-4.6,3.4-10.2,7.5-12.4,9.1c-2.3,1.6-9,6.6-15.1,11.1c-6,4.5-17.5,13-25.5,18.8
		c-8,5.9-17.2,12.8-20.5,15.3c-22.7,17.2-52.4,37.7-69.3,47.9c-9.9,5.9-10.2,5.6,10.8,7.4c8,0.7,18.9,1.6,24.3,2.1
		c11.5,1,14,0.4,21.3-5.4c8.5-6.8,74.2-67.6,85.7-79.4l10.8-11l5.7,7c7.5,9.2,27.2,33.8,36.8,46.1c8.2,10.3,11.1,12.3,5.2,3.5
		c-1.9-2.9-6.1-9.6-9.2-14.8c-8.7-14.3-18.5-30.3-19.6-32c-1.3-1.9-6.9-11.2-13.1-21.6C579.2,327.9,576.4,323.8,575.7,323.2z
		 M550.5,408.4c-15.6,5.1-28.9,12.9-46.5,27.1c-6.8,5.4-7.2,6-5,6.4c5.8,0.8,90.1-0.9,108-2.2c18-1.4,37-4.3,37-5.8
		c0-1.7-5.7-5.5-19.5-13c-17-9.3-43.2-17.8-47.3-15.3c-0.9,0.6-4.8,7-8.5,14.3c-3.8,7.3-7.1,13.1-7.4,12.8c-0.2-0.3,0-6.2,0.6-13.2
		s0.9-13.1,0.5-13.6C561.7,404.7,561.8,404.6,550.5,408.4z"/>
	<path d="M325,319.5c0,0.2-1.7,3-3.7,6.1c-8,11.9-10.4,16.2-14.4,25.3c-4,9.1-4.1,9.6-3.6,18c0.5,10.2,5.2,27.3,10.3,37.4
		c4.1,8.2,4.2,9.2,0.9,5.2c-12.7-15.1-17.4-27.4-17.4-46c0-11.3,0-11.3,4.2-19.5c3.2-6.3,6.4-10.6,13.2-17.7
		C322.5,320,325,317.9,325,319.5z"/>
	<path d="M703.9,337.5c0.8,1.8,2,10.3,2.5,17.5c0.1,1.7-0.1,3-0.6,3c-0.4,0-0.8-1.2-0.9-2.8c0-3.6-0.5-8.6-1.3-14.7
		C703.2,337.3,703.3,336.2,703.9,337.5z"/>
	<path d="M85,338.8c6,0.5,19.1,4.4,23,6.8l2.5,1.5l-3-0.5c-1.6-0.3-7.2-1-12.3-1.6c-8.2-1-9.6-1-11.1,0.4c-1,0.9-1.8,2.2-1.8,2.9
		c0,0.6-1.2,5.5-2.7,10.8c-3.1,11.6-3.2,14-0.6,16.4c1.9,1.7,2.7,1.7,13.5,0.5c12.5-1.4,17.8-0.7,21.4,2.9
		c1.8,1.8,6.7,14.9,7.7,20.7c0.3,1.6,0.9,3.3,1.3,3.9c0.4,0.5,1.6,3.2,2.6,6c2.4,6.7,12,27.4,20.7,45c6.6,13.3,10.8,20.3,12.5,20.9
		c0.8,0.4,3.8,0,6.7-0.9c8.4-2.4,26.3-7,39.1-10c6.6-1.5,17.2-4,23.5-5.5c6.3-1.6,14.8-3.1,18.8-3.5l7.4-0.6l3.8,4.1
		c2.1,2.3,6.4,8.2,9.5,13c4.6,7.4,5.4,9.3,4.6,10.9c-0.9,1.6-0.8,1.8,0.7,1.5c1.3-0.4,3.8,3.1,11.1,15.3c5.2,8.7,10.9,18,12.6,20.8
		c1.7,2.7,4.6,7.2,6.3,10c1.7,2.7,5,8,7.2,11.7s5.2,8,6.6,9.5c2.5,2.7,2.5,2.7,1.3,0.3c-0.6-1.4-2.1-3.8-3.2-5.3
		c-1-1.6-1.7-3-1.4-3.3c0.2-0.3,2.3,2.5,4.6,6.1c2.3,3.7,4.8,6.5,5.8,6.5c2.9,0,24.3-7.9,24.3-8.9c0-0.3-1.1-2.6-2.5-5
		c-1.4-2.3-2.5-4.7-2.5-5.2c0-0.4-1.1-3.2-2.4-6.1c-5.1-11.2-8.9-32.5-6.8-37.8c0.6-1.4,1.1-1.8,1.1-1c0.4,8.1,3.7,25.5,6.4,34
		c4,12.3,7.6,21,8.7,21c0.5,0,3-0.9,5.6-2.1c4.3-1.8,8.2-3.6,26.9-12.4c21.1-9.9,29.3-13.5,30.3-13.5c0.4,0,2,1.7,3.3,3.7
		c4.3,6.5,21.6,31.4,28.4,40.8c3.6,4.9,9.9,13.8,14,19.7c4.2,5.9,8,11,8.5,11.3c2.4,1.5,22.4-11.7,39.6-26.2
		c6.6-5.6,18.8-17,27.2-25.4l15.1-15.1l6.8,4.7c3.7,2.7,8.2,6.1,9.8,7.6c7.5,7,50.3,38.7,50.9,37.7c0.1-0.2,1.9-2.5,4-5.2
		c2.2-2.6,6.1-8,8.7-12c18.3-27.2,23.1-33.7,31.3-42.4c4.2-4.4,5.4-5.2,8.6-5.2c3.1,0,4.4,0.8,9,5.6c6.8,7.1,8.9,7.9,15.2,5.8
		c8.1-2.6,21.3-16.5,18.3-19.2c-0.6-0.5-5.5-2.7-11-4.8c-9.5-3.7-9.8-3.9-6.2-4.2c6.8-0.6,26.8,7,31.4,12c3.8,4.1,6.3,11.4,6.2,18.1
		l-0.1,6.2l-1.3-4.5c-0.7-2.5-1.7-5.7-2.3-7.2c-1.3-3.1-8-10.8-9.5-10.8c-0.5,0-4,2.4-7.6,5.4c-14.3,11.7-22.2,15.6-27.8,13.6
		c-1.5-0.6-5.1-3.6-7.9-6.7c-5.7-6.3-6.3-6.3-11.3,0.2c-4.4,5.7-22.1,30.9-34.5,49c-5.4,7.9-10.6,13.5-12.5,13.5
		c-0.4,0-4.7-2.5-9.6-5.5c-4.8-3-9.1-5.5-9.6-5.5s-2.1,1.9-3.6,4.2c-17.1,26.7-53.8,68.3-82.7,94.1c-5,4.4-14.3,12.6-20.6,18.3
		c-11.6,10.3-38.9,32.6-51.5,41.9c-8.7,6.4-28.5,20.5-28.9,20.5c-0.5,0,1.3-10.2,3.4-19.2c1.1-4.7,2.3-10.8,2.6-13.5
		c0.3-2.6,0.9-6.4,1.4-8.3c1.5-5.6,1.2-9.7-0.7-10.5c-1-0.3-5.4-1-9.8-1.5s-16.4-2-26.8-3.4c-24.2-3.4-29.1-3.4-31.2-0.3
		c-1.3,2-5.8,14-11.6,30.7c-0.6,1.9-1.6,4.4-2.2,5.5C328.4,746.2,325,750,320,750c-3.4,0-28.2-6.2-33.3-8.4c-2-0.8-3.7-1.1-3.7-0.5
		c0,2.8,4.4,16.3,7.4,22.5c5.8,12.2,18.8,30.4,26.9,37.7c1.7,1.5,2.6,2.7,2,2.7s-5.6-4.7-10.9-10.5c-11.6-12.4-19.2-24.8-22.9-37.5
		c-4.5-15.3-5.6-16.7-19.5-25c-6.9-4.1-22.7-15.9-25.9-19.4c-1.4-1.4-2.8-2.6-3.3-2.6c-1.3,0-0.9,13.8,0.6,20.8
		c0.7,3.5,0.9,6.5,0.5,6.8c-1.9,1.1-2.9-4.4-2.9-16.3v-12.8l-4.5-6c-8.2-10.9-14.3-24.7-16-36c-0.6-4.2,0.3-3.2,2.5,2.8
		c0.6,1.6,1.5,2.5,2.1,2.2c1.6-1,10-14.5,10.4-16.7c0.3-1.1,0.8-2.5,1.3-3.2c1.5-1.8,4.1-10.7,4.7-15.6c0.3-2.5,0.8-6.6,1.1-9.3
		c0.9-7-1.4-25-4.3-34.7c-1.5-4.7-2.8-9.4-3-10.5s-1.5-5-2.8-8.6c-1.4-3.6-2.7-7.4-2.9-8.5c-0.3-1-1.6-5.2-3.1-9.2
		c-2.8-7.6-2.7-10.6,0.2-10c1.2,0.2,3.3,4.8,7.1,15.8c11.2,32.1,15,53.1,13.2,73c-1.3,15-8.3,32.6-16.2,40.7l-4.1,4.2l1.8,2.8
		c7.7,11.9,29.1,33.5,40.6,41.2c7.4,4.8,31.2,17.1,33.4,17.1c0.6,0,2.8,0.9,4.9,2.1c2.2,1.1,6.9,2.7,10.5,3.5s7.8,1.7,9.3,2
		c2.3,0.5,3,0.1,5.3-3.6c1.4-2.3,4.4-9.6,6.6-16.3c2.1-6.7,5-15.6,6.3-19.7c1.4-4.1,3-9.5,3.6-12c1.7-6.4,2.5-7,9-7s29,2.2,45.5,4.5
		c26.5,3.7,27.5,4.1,27.5,11.8c-0.1,5-0.6,10.1-2.9,25.6c-0.6,4.1-0.9,7.6-0.7,7.8c0.5,0.6,9.1-5.4,17.6-12.2c3.6-2.8,9.4-7.3,13-10
		s10.8-8.5,16-13s14.2-12.1,20-17s16.1-14.3,22.9-21c12.5-12.1,13.7-13.9,19.1-27.5c1-2.5,3.7-9,6-14.5s4.8-12,5.6-14.5
		c3.8-12.1,2.2-12.1-40.3-1.3c-9.5,2.4-10.8,3-19,9.4c-7.4,5.7-26.8,19.1-41.3,28.5c-10.4,6.6-51.8,27.4-54.7,27.4
		c-1.1,0-2.3,0.4-2.9,0.9c-1.6,1.5-10.6,3.9-19.5,5.2c-18.3,2.5-31.3-2.5-47.5-18.6c-19-18.7-31.9-43.9-44.2-86
		c-3.7-12.8-8.6-33-9.1-37.7c-0.1-0.3-1.3-2.1-2.7-3.8c-3.3-3.9-9.3-7-13.5-7c-3.9,0-13.2,5.5-21.2,12.7c-3.3,2.9-6.6,5.3-7.3,5.3
		c-1.9,0-3.7-3.1-7.5-13c-6.5-16.8-25.2-51.1-28.5-52.4c-0.6-0.2-6.6,0.7-13.3,2c-11.7,2.3-12.3,2.4-14.6,0.7
		c-1.3-1.1-7.9-12.7-15.6-27.8c-7.3-14.3-13.4-26.2-13.6-26.4c-0.7-1-1.6,1.2-3.8,9.6c-1.3,4.8-3,11.3-3.9,14.3
		c-6.3,23.1-8.3,69.1-4.1,94.5c0.9,4.9,1.9,11.5,2.4,14.7c2.6,16.4,15.3,48.9,24.7,63.3c0.9,1.4,1.4,2.8,1.1,3.1
		c-0.6,0.7-1.8-1.1-8.5-12.9c-10.2-17.8-16.5-38.4-21.8-70.1c-1.2-6.9-1.4-15.7-1.1-40c0.5-36,1.4-42.3,9.4-66.5
		c4.1-12.3,4-16.1-1.2-28.9c-1.4-3.4-2.5-6.6-2.5-7.2s-0.9-3-1.9-5.3c-1.1-2.4-2.3-5.5-2.6-6.9c-1.3-5-2.9-5.6-17.5-6
		c-14.8-0.4-18.7-1.5-20.8-6.3c-1.7-3.8-1.5-10.2,0.8-20c2.5-10.6,2.5-10.5-0.3-10.5c-3.1,0-13.5,2.8-17.1,4.6
		c-4.1,2-4.3,1.1-0.4-2.1c4.3-3.7,12.7-7.5,18.6-8.5C77.4,338.6,82,338.5,85,338.8z"/>
	<path d="M726.7,355.7c0.2,0.7,0.2,1.9,0,2.5c-0.3,0.7-0.5,0.2-0.5-1.2S726.4,355.1,726.7,355.7z"/>
	<path d="M64.7,356c0.1,0-1.3,2.2-3.2,5c-5.7,8.4-7,13.8-7,28.5c0,10.4,0.5,14.7,2.4,21.5c1.2,4.7,2.5,9.4,2.7,10.5s1.5,4.9,2.9,8.4
		c2.9,7.6,3.1,8.4,0.9,5.3c-2.1-3.1-9.3-22.2-9.8-26.4c-0.3-1.8-1-6.5-1.5-10.5c-2.3-15.8,3.2-36.8,10.7-41.3
		C63.7,356.5,64.6,356,64.7,356z"/>
	<path d="M727.7,362.2c0.2,1,0.2,2.8,0,4c-0.2,1.3-0.4,0.5-0.4-1.7C727.2,362.3,727.4,361.3,727.7,362.2z"/>
	<path d="M728,369c0.6,0,1,3,1,7s-0.4,7-1,7s-1-3-1-7S727.4,369,728,369z"/>
	<path d="M205.5,405.8l2.5,0.6c1.4,0.3,11.4,2.4,22.3,4.7c10.9,2.2,20.8,4.4,22,4.9c3.2,1.3-12.5,1.2-19.9,0
		c-8.6-1.6-21.7-5.9-24.5-8.2L205.5,405.8z"/>
	<path d="M298.6,434.2c-0.3,1.8-0.8,4.2-1,5.3c-0.2,1.1-1.2,7.9-2.1,15c-2,15.1-2.6,17.4-3.4,12.5c-0.9-5,0.3-13.8,3.5-25.6
		C298.3,431.1,299.6,427.9,298.6,434.2z"/>
	<path d="M409.8,446.2c2.7,2.3,6.9,5.6,9.3,7.2s6.3,4.2,8.6,5.8c2.3,1.5,4.4,2.8,4.8,2.8c0.3,0,3,1.1,5.8,2.4
		c2.9,1.3,8.4,3.4,12.2,4.6c3.9,1.3,7.5,2.6,8,3c0.6,0.4,3.7,1,7,1.4c18.4,2,23.6,4.1,7.5,3.1c-12.7-0.7-15.3-1.2-14.4-2.6
		c0.4-0.8-0.3-0.9-2.4-0.4c-7.5,1.6-27.1-5.8-38-14.4c-5.3-4.2-13.2-13.8-13.2-16C405,442.4,407.2,443.8,409.8,446.2z"/>
	<path d="M293.7,476.5c0.2,1.6,1,6.6,1.8,11s1.7,9.8,2.1,12c0.3,2.2,1.9,7.5,3.4,11.7c1.6,4.3,2.7,7.8,2.5,7.8s1.8,5,4.5,11.1
		c5.1,11.4,4.4,13.4-0.9,2.6c-2.9-6.1-8.8-22.2-9.5-26.2c-0.2-1.1-1.3-6.3-2.4-11.5c-1.9-8.8-2.7-16.4-2.1-20
		C293.2,474.2,293.5,474.8,293.7,476.5z"/>
	<path d="M168.5,489.2c0.3,0.3,0.1,3.4-0.4,6.9c-1.9,11.9-3.1,25.7-3.2,37.1c-0.1,10.6-0.2,11-1.1,5.8c-1.4-7.8-0.3-27.7,2.1-39.4
		c1.2-5.4,2.1-10.1,2.1-10.4C168,488.9,168.2,488.9,168.5,489.2z"/>
	<path d="M779,491c1.2,0,0.6,2.8-2.7,13c-1.4,4.1-2.6,8.3-2.8,9.3c-1.3,6.5-20.3,37.9-30.5,50.6c-1.6,2-6,7.4-9.7,12.1
		c-6.8,8.6-42.5,46.2-44.5,46.9c-1.1,0.4,28-32.7,37.7-42.9c7.7-8,26.9-33.9,33.5-44.9c5.3-9,14.3-27.1,13.5-27.1
		c-0.2,0,0.7-2.9,2-6.5c1.4-3.6,2.5-7.4,2.5-8.5C778,491.9,778.5,491,779,491z"/>
	<path d="M150.1,548c0.5,15.8,1.1,21.9,3.3,32c3,13.6,4.3,22.4,2.7,18c-5-14.1-8.8-44.4-7.5-59.9C149.5,528.5,149.5,528.6,150.1,548
		z"/>
	<path d="M717.8,558.4c1.1,1.2-9.6,20.3-17.3,30.6c-10.5,14.1-15.7,20.5-24.4,30.6c-11.5,13.4-12.1,14-12.1,13.2
		c0-0.4,2.3-3.5,5.2-6.9c14.2-17.1,37.9-49.7,44.4-61.1C715.7,561.1,717.6,558.2,717.8,558.4z"/>
	<path d="M266.9,623.5c4.9,2.5,21.4,22.6,31.4,38.3l4.5,7l-3.6,1.5l-3.7,1.5l4-0.1c2.8-0.2,4,0.2,4.2,1.3c0.3,1.2-0.5,1.5-3.7,1.2
		c-2.2-0.2-4.3-0.8-4.6-1.3s-1.7-0.9-3.1-0.9c-6.5,0-25.8-13.9-28.2-20.3c-1-2.6-1.4-25-0.5-27.9
		C264.1,622.2,264.4,622.2,266.9,623.5z"/>
	<path d="M616.6,631.2c0.2,0.3,0,2.7-0.6,5.3s-1.2,6-1.4,7.4c-0.4,2.9-5,17-7.1,21.6c-0.7,1.6-2.3,5.5-3.5,8.5
		c-4.5,11.4-20.9,40.6-27.1,48c-2.7,3.2-1.5,1,3.3-6.4c3.6-5.4,14.8-27,19.6-37.6c2.2-4.9,9.3-22.9,9.6-24.5c0.1-0.6,1.4-4.6,2.8-9
		c1.4-4.4,2.9-9.3,3.3-10.9C615.8,632.1,616.3,631,616.6,631.2z"/>
	<path d="M717.5,635.2c0.5,0.5-6.4,19.2-10.5,28.3c-2.2,4.9-5.6,9.5-7.1,9.5c-0.4,0,1.6-5.1,4.5-11.3c2.9-6.1,7-14.8,9-19.1
		C715.4,638.2,717.2,634.9,717.5,635.2z"/>
	<path d="M699.4,675.2c-1.3,2.2-15,18.2-19.6,22.9c-2.4,2.4-6.3,6-8.8,7.9c-2.9,2.2-0.4-0.9,7-8.8c6.3-6.8,13.7-14.8,16.3-17.8
		C699,674.2,701,672.6,699.4,675.2z"/>
	<path d="M570.2,697c0.7,0-1,5.8-2.2,7.5c-0.4,0.5-2,3.2-3.5,6c-1.5,2.7-7.1,10.8-12.5,18c-11.1,14.8-36.1,40-45,45.4
		c-5.1,3.1-4.6,2.5,5.5-7c12.5-11.8,25.4-25.1,34.2-35.5c6.9-8,18.3-24.5,21-30.4C568.7,698.8,569.8,697,570.2,697z"/>
	<path d="M240.2,743c8.2,20.1,19.7,35.8,30,41.1c2.2,1.1,3.8,2.3,3.5,2.6s-2.8-0.7-5.5-2.2c-7.4-4-17.4-14.7-22.1-23.7
		c-3.7-7.1-7.2-16.7-7-19.2C239.1,741,239.6,741.6,240.2,743z"/>
	<path d="M365.7,759c0.8,0-0.8,7.8-3.7,17.7c-2.8,9.5-5.9,17.1-9.5,23.3c-0.8,1.4-2,3.7-2.6,5.2c-0.6,1.6-1.5,2.8-1.9,2.8
		c-0.5,0,0.3-2.8,1.6-6.3c3.3-8.1,9.3-24.7,9.9-27.1c0.2-1.1,1.7-5,3.1-8.8C364.1,762.1,365.5,759,365.7,759z"/>
</g>
</svg>
