<?xml version="1.0" encoding="utf-8"?>
<!-- Generator: Adobe Illustrator 21.0.0, SVG Export Plug-In . SVG Version: 6.00 Build 0)  -->
<svg version="1.1"
	 id="svg34" inkscape:version="0.92.2 5c3e80d, 2017-08-06" sodipodi:docname="12 #12316.svg" xmlns:cc="http://creativecommons.org/ns#" xmlns:dc="http://purl.org/dc/elements/1.1/" xmlns:inkscape="http://www.inkscape.org/namespaces/inkscape" xmlns:rdf="http://www.w3.org/1999/02/22-rdf-syntax-ns#" xmlns:sodipodi="http://sodipodi.sourceforge.net/DTD/sodipodi-0.dtd" xmlns:svg="http://www.w3.org/2000/svg"
	 xmlns="http://www.w3.org/2000/svg" xmlns:xlink="http://www.w3.org/1999/xlink" x="0px" y="0px" viewBox="0 0 850 850"
	 style="enable-background:new 0 0 850 850;" xml:space="preserve">
<style type="text/css">
	.st0{fill:none;}
	.st1{fill:#808000;}
	.st2{fill:#DAA520;}
	.st3{fill:#0000FF;}
	.st4{fill:#DDA0DD;}
	.st5{fill:#C71585;}
</style>
<sodipodi:namedview  bordercolor="#666666" borderopacity="1" gridtolerance="10" guidetolerance="10" id="namedview36" inkscape:current-layer="svg34" inkscape:cx="487.8999" inkscape:cy="552.15993" inkscape:pageopacity="0" inkscape:pageshadow="2" inkscape:window-height="978" inkscape:window-maximized="1" inkscape:window-width="1920" inkscape:window-x="0" inkscape:window-y="1" inkscape:zoom="0.29448918" objecttolerance="10" pagecolor="#ffffff" showgrid="false">
	</sodipodi:namedview>
<g id="g32" transform="translate(0.000000,0.000000) scale(1.00000,1.00000)">
	<path id="path4" class="st0" d="M0,0h425h425v425v425H425H0V425V0z M455.5,17.9c-0.6,0.5-4.1,1.7-8,2.6c-12.7,2.9-20.8,7.7-32,19
		c-18.6,18.6-26.8,37.9-30.6,71c-0.6,5.5-1.2,10.2-1.4,10.4c-0.2,0.2-8,0.5-17.2,0.6c-29.2,0.6-41.3,3.9-65.8,17.9
		c-15.5,9-30.3,13.4-53.5,16.1c-15.9,1.9-26.2,4.3-38.5,9.2c-19.5,7.8-38.3,20.5-57.9,39.4c-9.8,9.4-13.8,12.3-29.7,22
		c-21.7,13.2-27.1,17.2-36.3,26.9c-27.5,29.2-51.5,95.5-57.7,159.5c-1.6,17-1.3,53.1,0.6,70.8c8.6,80.2,37.9,154.2,87.4,220.7
		c20,26.9,44.8,53.9,64.6,70.7c23.1,19.5,50.8,35.2,77,43.9c34.6,11.3,56.3,13.7,78.1,8.4c7.6-1.8,8.9-1.8,34.4-0.4
		c25.2,1.4,41.4,3.4,43.5,5.5c1.2,1.2,23.2,1.2,23.9,0c1.2-1.8,18.8-4.1,43.7-5.6c24.2-1.5,26.2-1.5,34.5,0.2
		c13.9,2.7,36.4,2.3,52.4-1c29.1-6,61.9-20.3,86.5-37.6c33.7-23.6,73.6-69.6,105.5-121.3c28.9-47.1,46.3-91.5,55.4-141.3
		c10.4-57.4,9.9-53.1,10-84.5l0.1-28.5l-4.2-21.5c-5.6-29.3-9.3-44.2-15.2-61.7c-12.4-37-30.8-68.5-51.3-87.8
		c-9.8-9.3-18.7-14.8-31.2-19.5c-8.7-3.3-9.3-3.7-21-15.5c-20.6-20.7-39.5-33.1-64.1-42c-12.6-4.6-29.7-8.2-45-9.5
		c-21.4-1.9-25.5-3.4-50.8-18.8l-10.8-6.6l13.5-13.5c14-14.1,16.6-18,16.6-24.9c0-9.3-8.4-27.6-17.8-38.8
		c-11-13.1-29.2-24.3-49.5-30.5c-5.6-1.7-11-3.5-11.9-4C479.5,16.7,456.7,16.7,455.5,17.9z"/>
	<path id="path6" class="st1" d="M498.9,34.4c19.7,8,37.5,24.9,43.1,40.9c4.3,12.1,2.4,11.2-8.1-3.9C526,59.9,519.1,53.1,510,47.5
		c-12.1-7.4-32.7-12.3-47-11.3c-7.1,0.5-14.9,3.9-19,8.3l-2,2.2l7.2-2.5c10.8-3.6,25.6-4.2,36.8-1.3c21.6,5.3,40.3,19.2,48.1,35.5
		c3.1,6.5,3,7.6-0.6,7.6c-1.9,0-4.2-2.5-11-11.6c-6.2-8.3-9-11.3-9.7-10.6c-0.8,0.8,0.5,3.1,4.3,7.9c7.8,9.6,9.9,12.9,9.9,14.9
		c0,2.3-7.8,9.4-10.5,9.4c-1.2,0-4.3-2.3-7.5-5.6c-3-3.1-9.5-9-14.3-13c-7.9-6.7-9.2-7.4-13-7.4h-4.2l5.2,2.9
		c11.4,6.3,24.4,18.2,28.1,25.8c1.4,2.9,1.4,3.4-0.2,5.7c-0.9,1.4-2,2.6-2.5,2.6s-2-2.7-3.5-6c-3.1-7.4-10.2-15.1-16.4-18.2
		c-3.6-1.7-6.5-2.3-12.2-2.3c-9.4,0-16.3,3.1-25,11.1c-12.1,11.3-16.5,21.8-17.9,43.3c-0.5,7.9-1.2,14.5-1.5,14.8
		c-0.3,0.3-1.2,0.3-2,0c-2-0.8-3-11.6-2.3-24.7c1.2-21.5,9.1-40.3,22.7-54c14.9-14.8,35.3-17,50.6-5.3c2,1.5,6.1,6.3,9.1,10.6
		c3.1,4.3,5.7,7.6,6,7.4c1-1.1-4-12.3-7.3-16.4c-8-9.7-17.8-13.7-32.2-13.1c-13.3,0.6-20.7,4-31.4,14.8c-6.2,6.3-8.5,9.6-12.1,17.1
		c-7.2,15.1-9.6,29.1-9.7,55.7V155l-2.4-1.5c-1.3-0.9-3.2-3.3-4.2-5.3c-1.6-3.3-1.8-7.1-1.8-33.4c-0.1-21.1-0.4-29.8-1.2-29.8
		c-1.5,0-4.2,18.1-5.5,35.9c-0.5,8-1.2,14.7-1.4,15c-1.2,1.1-1.7-1.7-3.1-16.5c-0.8-8.7-1.6-16-1.9-16.2c-0.3-0.3-0.5,6.3-0.5,14.6
		c0,8.4-0.4,15.2-0.8,15.2c-0.5,0-1.8-1.9-2.8-4.2c-2.8-6.3-2.6-24.4,0.5-35.8c9.1-34.2,30.8-56.7,60.1-62.5
		C471.1,27.9,486.6,29.4,498.9,34.4z"/>
	<path id="path8" class="st1" d="M547.5,92.1c1.2,1.8-4.4,11.6-9.1,15.9c-5.5,5.1-11.3,7.8-18.5,8.5c-7.5,0.8-8.6-0.1-6.9-6
		c2-7.1,8.9-14,17-17C536.8,91,546.4,90.2,547.5,92.1z"/>
	<path id="path10" class="st0" d="M492.6,103c3.8,5.7,7.7,17,6.1,17.4c-1.1,0.4-49,4.7-51.1,4.6c-1.3,0,0.3-8.9,2.4-13.8
		c4.1-9.1,9.9-14.7,17.8-16.8C477.2,91.8,487.6,95.5,492.6,103z"/>
	<path id="path12" class="st2" d="M368.5,133.5c12.9,0.4,21.2,2.7,32.5,8.7c11,5.8,15.4,9.9,19,17.2l3.2,6.4l-0.1,29.1
		c-0.1,16.9,0.2,29.1,0.7,29.1c1.6,0,2.2-5.6,2.3-19.4c0-7.2,0.4-19.7,0.8-27.8c1-17.1,2.1-20,11.6-28.6
		c11.2-10.3,24.5-14.5,45.5-14.5c18.7-0.1,33.1,3.3,50.4,11.9c25.8,12.8,42.5,28,68.6,62.5c6.7,8.7,12.3,15.9,12.6,15.9
		c0.9,0-4.5-9.7-10.6-19c-7.1-10.7-15.5-21.2-24.8-31.2c-3.5-3.7-6.1-7.2-5.7-7.8c0.9-1.5,6.3-1.2,21.3,1
		c61.4,9,104.5,41.4,129.3,96.9c8.8,19.8,14.4,39.3,23.8,82.6c8.3,38.5,10.5,47.9,10.8,46.8c0.7-2-4.7-42.5-7.7-57.6
		c-6.5-32.9-14.6-57.2-28.7-85.5c-5.2-10.6-9.3-19.5-9-19.8c0.7-0.7,17.9,8.9,25.2,14.1c15.9,11.3,30.2,30.8,43.2,59
		c28.3,61.1,36.4,126,25.2,202C795,593.3,753.7,672.9,684,744.4c-17.9,18.4-29.3,28.2-44,37.9c-31.5,20.8-69.8,32.9-102.6,32.6
		c-6-0.1-10-0.3-8.9-0.6c1.1-0.3,7-2.1,13-4c62.7-20.1,111-57.3,148.9-114.8c9.8-14.8,16.3-26,24-41.3c5.8-11.6,15.8-34.3,15.3-34.9
		c-0.2-0.2-4.8,8.3-10.2,18.9C696.8,682.7,677,711.1,649,739c-48.7,48.7-100.6,72-168.5,75.6c-7.8,0.4-12.6,0.3-12-0.3
		c0.6-0.5,4.4-3.4,8.5-6.5c13.6-10.2,27.8-26.4,35.5-40.3l2.7-5l-5.2,5.4c-2.9,3-8.2,9.1-11.9,13.5c-20.7,24.7-40.8,36.1-66.3,37.3
		c-13.2,0.7-23.1-0.8-35.7-5.3c-13.8-4.9-23.5-10.9-38.6-23.8c-3.8-3.3-7.8-6.7-8.8-7.5c-1.2-1-2.1-1.1-2.8-0.4
		c-0.6,0.6,5.1,6.4,17.8,17.8l18.7,16.8l-9.9-0.7c-14.8-1-32.9-3.3-44.1-5.6c-53.3-10.9-101.8-39.7-140.3-83.3
		c-20.3-23.2-33.9-43.3-53.2-79.4c-19.8-36.8-22.7-40.7-9.6-12.7c35.7,76.7,81.2,128.1,139.2,157.6c17.5,8.9,37.7,16.8,53.3,20.8
		c2.5,0.6,4.2,1.7,4.2,2.5c0,1.9,0.8,1.9-19.5-0.5c-64-7.6-109.7-34.3-158.6-93C78.4,643.4,44.5,562.3,38,469
		c-4.1-59.4,5.5-113.7,29.4-166.1c14.3-31.2,28.1-48.8,49.3-62.6c8.2-5.3,17.1-9.8,17.9-9.1c0.2,0.3-2.1,5.2-5.1,10.9
		c-19.3,37.1-32.1,80.2-36.9,124.4c-3.3,31-2.6,32.4,2.7,5.2c14.8-74.8,20.9-96,35-120.6c30.2-52.6,73.9-80.2,136.1-85.7l7.9-0.7
		L260,183.6c-7.8,10.4-14.7,19.5-15.3,20.1c-0.7,0.9-0.5,1.3,0.6,1.3c0.9,0,8.1-7.3,16.1-16.3c18.6-20.8,29.9-30.4,47.6-40.4
		c10.9-6.2,28.3-12,42.9-14.3C355,133.5,362.5,133.3,368.5,133.5z M255.2,277.1c-14.1,8.4-32.9,31.2-42.3,51.5
		c-9.7,21-15.9,50.2-15.9,75c0,6.9,0.3,8.4,2.1,10c2,1.8,2.1,1.8,7.2-1c23-12.8,33.1-17.1,49.7-20.7c13.9-3,40.4-3.3,55.5-0.5
		c21.6,3.9,44.6,12.1,61.7,22.1c4.3,2.5,8.1,4.5,8.6,4.5c1.2,0-0.5-19.6-3.3-37.1c-4.5-29.2-11-50.3-21.5-70.8
		c-13-25.2-27.7-38.6-46.5-42.6C292.5,263.7,272,267.3,255.2,277.1z M542.2,270.4c-7.7,2.8-17.8,8.6-24.5,14.1
		c-21.6,17.8-39.3,51.4-45.1,85.5c-2.5,14.4-4,37.9-2.7,41.3c2,5.2,2.7,5,19.6-4.7c21.2-12.3,47.1-18.4,73-17.3
		c25.9,1.1,48.3,7.3,81.1,22.7c5.7,2.7,10.6,4.5,10.9,4c0.6-0.9-3.9-37.2-6-48.8c-5.8-30.8-15.4-55.1-29.4-74
		c-10.5-14.1-20.9-21.7-34.7-25.2C572,264.8,555,265.8,542.2,270.4z M430.1,442.1c-3,0.1-9.3,2.9-17.2,7.6
		c-33.2,19.7-57.4,50-70.8,88.6c-4.4,12.6-4.3,13.3,2.5,16.3c14,6.2,39.7,12.4,59.3,14.5c14,1.4,46.3,0.6,60.9-1.5
		c21.6-3.2,64-13,66.3-15.3c1.8-1.8-5.3-23.8-12.4-38.2c-14-28.1-34.4-48.4-62.1-62c-5.7-2.8-13.7-6.3-17.7-7.6
		C434.9,443.1,430.9,442,430.1,442.1z M636.8,552c-3.3,0.2-9.6,3.4-22.4,11.5C582,584.3,544,600.9,508,610
		c-31.6,8-58.2,11.2-96.2,11.5c-20.9,0.1-28.1,0.5-29.2,1.5c-1.4,1.1-1.6,5.1-1.6,28.6V679h-24.5c-13.5,0-24.5-0.3-24.5-0.6
		c0-0.9,6.6-31.7,8.6-39.9c0.7-3.3,1.4-7.9,1.4-10.2c0-3.8-0.3-4.2-3.2-5.2c-1.8-0.5-7.3-1.5-12.3-2.1c-37.8-4.8-80.9-19.9-119-42
		c-13-7.5-17.4-7.8-17.5-1.1c0,5.5,18.9,38,33.5,57.6c36.8,49.5,82,78.6,139.5,89.9c43.9,8.7,89,4.5,139-12.9c17-5.9,19-7.2,19-11.9
		c-0.1-1.7-1.8-13.2-3.9-25.6c-2.1-12.4-3.6-22.8-3.2-23.2c0.7-0.8,40.2-12.1,40.6-11.6c0.2,0.2,3.7,7.9,7.9,17.2
		c7.9,17.6,9.7,20.6,12.6,20.6c0.9,0,4.6-3,8.1-6.8c23.4-24.5,42.7-59.6,51.8-94.4c3.1-11.8,3.4-13.6,3.2-20.6
		C638,553.5,637.5,552,636.8,552z"/>
	<path id="path14" class="st3" d="M332.6,293.2c13.6,14.3,22.3,31.4,29.9,58.8c4.8,17.3,9.3,44.8,7.9,47.2c-0.3,0.4-2.6-0.3-5.2-1.6
		c-7.2-3.6-21.6-9-32.2-11.9c-14.4-4-26-5.8-42-6.4c-13-0.5-19.6-0.1-36.4,2.3l-4.9,0.7l0.7-11.9c1.4-24.5,5.3-45.2,11.5-62.3
		c6.9-18.8,17.3-30,29.8-32C305.2,273.8,320.1,280.1,332.6,293.2z"/>
	<path id="path16" class="st3" d="M257.6,289.3c0.2,0.2-1.1,4.1-3,8.8c-7.3,18.1-11.9,40.6-13.8,68.1c-1.1,14.8-1.5,17.1-3.3,18.7
		c-1.7,1.7-28.6,14.1-30.5,14.1c-0.9,0,0.6-12.5,3.6-28c6.7-35.3,19.5-59.5,40.8-77.2C254.6,291.1,257.4,289.1,257.6,289.3z"/>
	<path id="path18" class="st3" d="M582.8,278.4c3.6,1.9,5.6,6.3,13.8,31.1c9.3,28.3,13.4,48.8,13.4,67.2c0,4.5-0.4,8.4-0.9,8.7
		c-0.5,0.4-4.7-0.3-9.3-1.4c-23.2-5.4-50.9-6.4-70.8-2.6c-12,2.4-27.8,7.8-39.5,13.5c-5.5,2.7-10.1,4.8-10.3,4.6
		c-0.7-0.7,2.1-21.9,4.4-32.8c4.1-19.3,11.6-38.6,19.7-50.7c15.4-22.9,33.5-35.4,56.2-39.1C566.5,275.8,579.4,276.6,582.8,278.4z"/>
	<path id="path20" class="st3" d="M620.7,315.4c10.1,19,16.5,40.5,21.2,71.6c0.7,4.1,1.4,8.5,1.7,9.7c0.6,3.1-1.2,3-11.1-0.7
		c-11.5-4.3-12.5-5.7-12.5-18.3c-0.1-20.5-4.9-44.4-15.6-76.6c-1.9-5.7-3.4-10.6-3.4-10.8C601,286.9,615,304.8,620.7,315.4z"/>
	<path id="path22" class="st4" d="M430.5,453c6.3,0,27.8,10.4,40.7,19.7c9.7,7,23.8,21.5,30,30.8c8.6,13,20,38.8,18.3,41.4
		c-0.7,1.2-22.4,6.4-39.5,9.5c-46.8,8.5-90.4,6.3-124.2-6.4l-5.7-2.1l3-8.7c3.4-9.6,10.9-24.3,17.1-33.4
		c13.3-19.7,32.5-37.4,51.1-47.2C425.1,454.6,429.2,453,430.5,453z"/>
	<path id="path24" class="st5" d="M627,569.5c0,1.5-7.7,24.1-10.7,31.5c-4.2,10.4-11.9,24.8-18.8,35.5
		c-6.8,10.5-20.6,27.8-21.5,26.8c-1.6-1.8-9.4-21-9.2-22.7c0-1.1,3.9-5.8,8.5-10.5c16.5-17,27.8-31.1,37.6-47.1
		c2.9-4.7,6.7-9.7,8.4-11.3C624.1,569.3,627,568.1,627,569.5z"/>
	<path id="path26" class="st5" d="M597.3,586c3.1,0-20.9,29.9-28.5,35.8c-7.9,6-12.9,8.1-23.9,10.2c-13.4,2.6-39.1,10.6-40.7,12.8
		c-1,1.3-1.2,3.9-0.7,10.3c0.5,6,0.3,9.4-0.5,10.9c-1.4,2.7-9.9,6.6-24.7,11.4c-25.8,8.3-58.5,12.3-81.2,10l-6.1-0.7v-27.2v-27.2
		l28.8-0.6c28.4-0.6,36.4-1.3,61.9-5.7c36.7-6.2,80.2-21,109.8-37.2C594.3,587.3,596.9,586,597.3,586z"/>
	<path id="path28" class="st5" d="M213.6,595.5c8.9,3.9,12.9,7.1,20.1,15.9c20,24.6,46.4,45.9,75.8,61.6
		c10.8,5.7,12.5,7.1,12.5,10.7c0,4.4,2.9,5.6,14.2,5.8c6.9,0.2,17,1.5,30.8,4.1c20.2,3.8,20.9,3.8,44.5,3.8c20.4,0,25.9-0.3,37-2.2
		c18.9-3.3,37.4-8.7,53.9-15.7c2.1-0.9,4.2-1.3,4.6-0.8c0.9,1,3,11.7,3,15.1c0,1.4-0.7,3.4-1.6,4.4c-3.6,3.9-41.9,14.7-65.1,18.4
		c-15.6,2.4-48.2,3-64.1,1c-38-4.7-71.6-18.2-101.4-40.7c-11.2-8.5-30.3-27.2-40.1-39.4c-7.3-9-27.9-39.3-29.4-43.1
		C207.9,593.3,209.2,593.5,213.6,595.5z"/>
	<path id="path30" class="st5" d="M249.3,613c0.5,0,25.1,6.4,48.2,12.5c7.7,2,18.3,4.8,23.5,6.1c5.2,1.4,9.6,2.7,9.8,2.9
		c0.4,0.4-6.6,32.6-7.2,33.3c-0.7,0.7-18.7-8.8-27.6-14.5c-16-10.5-35-26.2-44-36.6C250.3,614.7,249,613,249.3,613z"/>
	<path d="M481.8,17.9c0.9,0.5,6.3,2.3,11.9,4c20.3,6.2,38.5,17.4,49.5,30.5c9.4,11.2,17.8,29.5,17.8,38.8c0,6.9-2.6,10.8-16.6,24.9
		l-13.5,13.5l10.8,6.6c25.3,15.4,29.4,16.9,50.8,18.8c15.3,1.3,32.4,4.9,45,9.5c24.6,8.9,43.5,21.3,64.1,42
		c11.7,11.8,12.3,12.2,21,15.5c12.5,4.7,21.4,10.2,31.2,19.5c20.5,19.3,38.9,50.8,51.3,87.8c5.9,17.5,9.6,32.4,15.2,61.7l4.2,21.5
		l-0.1,28.5c-0.1,31.4,0.4,27.1-10,84.5c-9.1,49.8-26.5,94.2-55.4,141.3c-31.9,51.7-71.8,97.7-105.5,121.3
		c-24.6,17.3-57.4,31.6-86.5,37.6c-16,3.3-38.5,3.7-52.4,1c-8.3-1.7-10.3-1.7-34.5-0.2c-24.9,1.5-42.5,3.8-43.7,5.6
		c-0.7,1.2-22.7,1.2-23.9,0c-2.1-2.1-18.3-4.1-43.5-5.5c-25.5-1.4-26.8-1.4-34.4,0.4c-21.8,5.3-43.5,2.9-78.1-8.4
		c-26.2-8.7-53.9-24.4-77-43.9c-19.8-16.8-44.6-43.8-64.6-70.7c-49.5-66.5-78.8-140.5-87.4-220.7c-1.9-17.7-2.2-53.8-0.6-70.8
		c6.2-64,30.2-130.3,57.7-159.5c9.2-9.7,14.6-13.7,36.3-26.9c15.9-9.7,19.9-12.6,29.7-22c19.6-18.9,38.4-31.6,57.9-39.4
		c12.3-4.9,22.6-7.3,38.5-9.2c23.2-2.7,38-7.1,53.5-16.1c24.5-14,36.6-17.3,65.8-17.9c9.2-0.1,17-0.4,17.2-0.6
		c0.2-0.2,0.8-4.9,1.4-10.4c3.8-33.1,12-52.4,30.6-71c11.2-11.3,19.3-16.1,32-19c3.9-0.9,7.4-2.1,8-2.6
		C456.7,16.7,479.5,16.7,481.8,17.9z M422.1,49.5c-11.2,10.6-19.3,25-24.2,43.5c-3.1,11.4-3.3,29.5-0.5,35.8c1,2.3,2.3,4.2,2.8,4.2
		c0.4,0,0.8-6.8,0.8-15.2c0-8.3,0.2-14.9,0.5-14.6c0.3,0.2,1.1,7.5,1.9,16.2c1.4,14.8,1.9,17.6,3.1,16.5c0.2-0.3,0.9-7,1.4-15
		c1.3-17.8,4-35.9,5.5-35.9c0.8,0,1.1,8.7,1.2,29.8c0,26.3,0.2,30.1,1.8,33.4c1,2,2.9,4.4,4.2,5.3l2.4,1.5v-13.2
		c0.1-26.6,2.5-40.6,9.7-55.7c3.6-7.5,5.9-10.8,12.1-17.1c10.7-10.8,18.1-14.2,31.4-14.8c14.4-0.6,24.2,3.4,32.2,13.1
		c3.3,4.1,8.3,15.3,7.3,16.4c-0.3,0.2-2.9-3.1-6-7.4c-3-4.3-7.1-9.1-9.1-10.6C485.3,54,464.9,56.2,450,71
		c-13.6,13.7-21.5,32.5-22.7,54c-0.7,13.1,0.3,23.9,2.3,24.7c0.8,0.3,1.7,0.3,2,0c0.3-0.3,1-6.9,1.5-14.8c1.4-21.5,5.8-32,17.9-43.3
		c8.7-8,15.6-11.1,25-11.1c5.7,0,8.6,0.6,12.2,2.3c6.2,3.1,13.3,10.8,16.4,18.2c1.5,3.3,3,6,3.5,6s1.6-1.2,2.5-2.6
		c1.6-2.3,1.6-2.8,0.2-5.7c-3.7-7.6-16.7-19.5-28.1-25.8l-5.2-2.9h4.2c3.8,0,5.1,0.7,13,7.4c4.8,4,11.3,9.9,14.3,13
		c3.2,3.3,6.3,5.6,7.5,5.6c2.7,0,10.5-7.1,10.5-9.4c0-2-2.1-5.3-9.9-14.9c-3.8-4.8-5.1-7.1-4.3-7.9c0.7-0.7,3.5,2.3,9.7,10.6
		c6.8,9.1,9.1,11.6,11,11.6c3.6,0,3.7-1.1,0.6-7.6c-7.8-16.3-26.5-30.2-48.1-35.5c-11.2-2.9-26-2.3-36.8,1.3l-7.2,2.5l2-2.2
		c4.1-4.4,11.9-7.8,19-8.3c14.3-1,34.9,3.9,47,11.3c9.1,5.6,16,12.4,23.9,23.9c10.5,15.1,12.4,16,8.1,3.9
		c-7.2-20.5-32.6-40.5-57-44.9C461.5,26.2,439.8,32.8,422.1,49.5z M530,93.5c-8.1,3-15,9.9-17,17c-1.7,5.9-0.6,6.8,6.9,6
		c7.2-0.7,13-3.4,18.5-8.5c4.7-4.3,10.3-14.1,9.1-15.9C546.4,90.2,536.8,91,530,93.5z M447.5,120.2c-0.4,2.7-0.3,4.8,0.1,4.8
		c2.1,0.1,50-4.2,51.1-4.6c1-0.2,0.7-2-1.1-6.9c-3.2-8.9-6.7-13.9-11.8-16.8C469.7,87.4,450.6,99.2,447.5,120.2z M351.9,134
		c-14.6,2.3-32,8.1-42.9,14.3c-17.7,10-29,19.6-47.6,40.4c-8,9-15.2,16.3-16.1,16.3c-1.1,0-1.3-0.4-0.6-1.3
		c0.6-0.6,7.5-9.7,15.3-20.1l14.3-18.9l-7.9,0.7c-62.2,5.5-105.9,33.1-136.1,85.7c-14.1,24.6-20.2,45.8-35,120.6
		c-5.3,27.2-6,25.8-2.7-5.2c4.8-44.2,17.6-87.3,36.9-124.4c3-5.7,5.3-10.6,5.1-10.9c-0.8-0.7-9.7,3.8-17.9,9.1
		c-21.2,13.8-35,31.4-49.3,62.6c-30.9,67.9-38.2,141.9-21.8,222.4c16.2,80,58.4,157.3,120.9,221.6c39.9,41,81,61.6,136,68.1
		c20.3,2.4,19.5,2.4,19.5,0.5c0-0.8-1.7-1.9-4.2-2.5c-15.6-4-35.8-11.9-53.3-20.8c-58-29.5-103.5-80.9-139.2-157.6
		c-4.6-9.8-8.2-18-8-18.2c0.5-0.5,5,7.4,17.6,30.9c19.3,36.1,32.9,56.2,53.2,79.4c38.5,43.6,87,72.4,140.3,83.3
		c11.2,2.3,29.3,4.6,44.1,5.6l9.9,0.7l-18.7-16.8c-12.7-11.4-18.4-17.2-17.8-17.8c0.7-0.7,1.6-0.6,2.8,0.4c1,0.8,5,4.2,8.8,7.5
		c25.6,21.9,47.4,30.5,74.3,29.1c25.5-1.2,45.6-12.6,66.3-37.3c3.7-4.4,9-10.5,11.9-13.5l5.2-5.4l-2.7,5
		c-7.7,13.9-21.9,30.1-35.5,40.3c-4.1,3.1-7.9,6-8.5,6.5c-0.6,0.6,4.2,0.7,12,0.3C548.4,811,600.3,787.7,649,739
		c28-27.9,47.8-56.3,70.5-100.8c5.4-10.6,10-19.1,10.2-18.9c0.5,0.6-9.5,23.3-15.3,34.9c-17.9,35.6-38.8,65.3-63.4,89.8
		c-20.5,20.6-41.6,36.1-65.9,48.4c-16.8,8.6-42.5,18.5-56.6,21.9c-1.1,0.3,2.9,0.5,8.9,0.6c32.8,0.3,71.1-11.8,102.6-32.6
		c14.7-9.7,26.1-19.5,44-37.9c69.7-71.5,111-151.1,123.9-238.9c11.2-76,3.1-140.9-25.2-202c-13-28.2-27.3-47.7-43.2-59
		c-7.3-5.2-24.5-14.8-25.2-14.1c-0.3,0.3,3.8,9.2,9,19.8c14.1,28.3,22.2,52.6,28.7,85.5c3,15.1,8.4,55.6,7.7,57.6
		c-0.3,1.1-2.5-8.3-10.8-46.8c-9.4-43.3-15-62.8-23.8-82.6c-24.8-55.5-67.9-87.9-129.3-96.9c-15-2.2-20.4-2.5-21.3-1
		c-0.4,0.6,2.2,4.1,5.7,7.8c9.3,10,17.7,20.5,24.8,31.2c6.1,9.3,11.5,19,10.6,19c-0.3,0-5.9-7.2-12.6-15.9
		c-26.1-34.5-42.8-49.7-68.6-62.5c-17.3-8.6-31.7-12-50.4-11.9c-21,0-34.3,4.2-45.5,14.5c-9.5,8.6-10.6,11.5-11.6,28.6
		c-0.4,8.1-0.8,20.6-0.8,27.8c-0.1,13.8-0.7,19.4-2.3,19.4c-0.5,0-0.8-12.2-0.7-29.1l0.1-29.1l-3.2-6.4c-1.9-3.9-4.7-7.7-7.3-9.8
		c-5.9-4.8-17.9-11-26.2-13.6C378.5,133.6,361.1,132.5,351.9,134z"/>
	<path d="M310.5,267.5c18.8,4,33.5,17.4,46.5,42.6c10.5,20.5,17,41.6,21.5,70.8c2.8,17.5,4.5,37.1,3.3,37.1c-0.5,0-4.3-2-8.6-4.5
		c-17.1-10-40.1-18.2-61.7-22.1c-15.1-2.8-41.6-2.5-55.5,0.5c-16.6,3.6-26.7,7.9-49.7,20.7c-5.1,2.8-5.2,2.8-7.2,1
		c-1.8-1.6-2.1-3.1-2.1-10c0-10.3,2.4-31,4.9-42.3c6.3-28.4,19.4-53,38-71.3c13.2-13,23.8-19,39.6-22.3
		C288.6,265.7,301.7,265.7,310.5,267.5z M274.3,286.2c-5.3,5.9-8.7,11.8-12.4,21.9c-6.2,17.1-10.1,37.8-11.5,62.3l-0.7,11.9l4.9-0.7
		c16.8-2.4,23.4-2.8,36.4-2.3c16,0.6,27.6,2.4,42,6.4c10.6,2.9,25,8.3,32.2,11.9c2.6,1.3,4.9,2,5.2,1.6c0.6-1-1-15.6-2.9-26.2
		c-2-11.1-7.7-31.5-11.4-41.2c-10.8-27.9-27.3-47.3-45.6-53.6C295.5,273,284.2,275.6,274.3,286.2z M257.6,289.3
		c-0.6-0.7-11.9,9.1-17,14.8c-10.4,11.5-19.1,27.2-24.4,43.9c-4.6,14.4-11.2,51-9.2,51c1.9,0,28.8-12.4,30.5-14.1
		c1.8-1.6,2.2-3.9,3.3-18.7c1.9-27.5,6.5-50,13.8-68.1C256.5,293.4,257.8,289.5,257.6,289.3z"/>
	<path d="M597.5,273c23.5,13.4,42.5,48.6,51,94.2c2.1,11.6,6.6,47.9,6,48.8c-0.3,0.5-5.2-1.3-10.9-4c-32.8-15.4-55.2-21.6-81.1-22.7
		c-25.9-1.1-51.8,5-73,17.3c-16.9,9.7-17.6,9.9-19.6,4.7c-1.3-3.4,0.2-26.9,2.7-41.3c7.1-41.7,30.7-79.9,58.5-94.5
		c8.4-4.4,13.5-6.3,21.9-8C568.4,264.4,586.3,266.6,597.5,273z M559.5,276.9c-37.5,6-65.1,38.7-75.9,89.8
		c-2.3,10.9-5.1,32.1-4.4,32.8c0.2,0.2,4.8-1.9,10.3-4.6c11.7-5.7,27.5-11.1,39.5-13.5c19.9-3.8,47.6-2.8,70.8,2.6
		c4.6,1.1,8.8,1.8,9.3,1.4c0.5-0.3,0.9-4.2,0.9-8.7c0-18.4-4.1-38.9-13.4-67.2c-8.2-24.8-10.2-29.2-13.8-31.1
		C579.4,276.6,566.5,275.8,559.5,276.9z M601,290.3c0,0.2,1.5,5.1,3.4,10.8c10.7,32.2,15.5,56.1,15.6,76.6c0,12.6,1,14,12.5,18.3
		c9.9,3.7,11.7,3.8,11.1,0.7c-0.3-1.2-1-5.6-1.7-9.7c-6.2-40.8-15.4-66-31.7-87.5C604.5,292,601,288.5,601,290.3z"/>
	<path d="M430.1,442.1c2.8-0.2,16,4.8,26.5,10c27.7,13.6,48.1,33.9,62.1,62c7.1,14.4,14.2,36.4,12.4,38.2
		c-2.3,2.3-44.7,12.1-66.3,15.3c-14.6,2.1-46.9,2.9-60.9,1.5c-19.6-2.1-45.3-8.3-59.3-14.5c-6.8-3-6.9-3.7-2.5-16.3
		c8.2-23.5,21.2-45.3,36.7-61.5c13.4-13.9,34.1-28.9,45.9-33.3C426.8,442.8,429.2,442.1,430.1,442.1z M430.5,453
		c-1.3,0-5.4,1.6-9.2,3.6c-29.4,15.5-56.7,47.8-68.2,80.6l-3,8.7l5.7,2.1c13.4,5,33.7,9.4,51.2,10.9c12.3,1.1,35.3,0.6,49.5-0.9
		c19.2-2.2,61.7-10.9,63-13.1c0.9-1.4-4.2-15.4-9.1-25.3c-6.7-13.4-12.8-22-22.6-32.2c-13.5-13.9-30.6-25.3-48.2-31.8
		C435.9,454.2,431.7,453,430.5,453z"/>
	<path d="M638.1,556.2c0.2,7-0.1,8.8-3.2,20.6c-9.1,34.8-28.4,69.9-51.8,94.4c-3.5,3.8-7.2,6.8-8.1,6.8c-2.9,0-4.7-3-12.6-20.6
		c-4.2-9.3-7.7-17-7.9-17.2c-0.4-0.5-39.9,10.8-40.6,11.6c-0.4,0.4,1.1,10.8,3.2,23.2c2.1,12.4,3.8,23.9,3.9,25.6c0,4.7-2,6-19,11.9
		c-66.2,23-126.9,22.9-183-0.2c-43.8-18.1-80.3-50.5-110-97.8c-8.7-13.9-19-33.7-19-36.6c0.1-6.7,4.5-6.4,17.5,1.1
		c38.1,22.1,81.2,37.2,119,42c5,0.6,10.5,1.6,12.3,2.1c2.9,1,3.2,1.4,3.2,5.2c0,2.3-0.7,6.9-1.4,10.2c-2,8.2-8.6,39-8.6,39.9
		c0,0.3,11,0.6,24.5,0.6H381v-27.4c0-23.5,0.2-27.5,1.6-28.6c1.1-1,8.3-1.4,29.2-1.5c38-0.3,64.6-3.5,96.2-11.5
		c36-9.1,74-25.7,106.4-46.5c7.7-4.8,15.5-9.4,17.5-10.1C637.5,551.4,638,551.6,638.1,556.2z M625.7,569c-2.5,0-7.6,5.6-12.8,14
		c-9.8,16-21.1,30.1-37.6,47.1c-4.6,4.7-8.5,9.4-8.5,10.5c-0.2,1.7,7.6,20.9,9.2,22.7c0.9,1,14.7-16.3,21.5-26.8
		c6.9-10.7,14.6-25.1,18.8-35.5c3-7.4,10.7-30,10.7-31.5C627,569.2,626.4,569,625.7,569z M591.5,588.8
		c-29.6,16.2-73.1,31-109.8,37.2c-25.5,4.4-33.5,5.1-61.9,5.7l-28.8,0.6v27.2v27.2l6.1,0.7c22.7,2.3,55.4-1.7,81.2-10
		c14.8-4.8,23.3-8.7,24.7-11.4c0.8-1.5,1-4.9,0.5-10.9c-0.5-6.4-0.3-9,0.7-10.3c1.6-2.2,27.3-10.2,40.7-12.8
		c11-2.1,16-4.2,23.9-10.2c5.1-4,23.1-25.2,27.3-32.2C598.6,585.3,598,585.2,591.5,588.8z M208.3,594.4c1.5,3.8,22.1,34.1,29.4,43.1
		c9.8,12.2,28.9,30.9,40.1,39.4c29.8,22.5,63.4,36,101.4,40.7c15.9,2,48.5,1.4,64.1-1c23.2-3.7,61.5-14.5,65.1-18.4
		c0.9-1,1.6-3,1.6-4.4c0-3.4-2.1-14.1-3-15.1c-0.4-0.5-2.5-0.1-4.6,0.8c-16.5,7-35,12.4-53.9,15.7c-11.1,1.9-16.6,2.2-37,2.2
		c-23.6,0-24.3,0-44.5-3.8c-13.8-2.6-23.9-3.9-30.8-4.1c-11.3-0.2-14.2-1.4-14.2-5.8c0-3.6-1.7-5-12.5-10.7
		c-29.4-15.7-55.8-37-75.8-61.6c-3.6-4.4-8.3-9.2-10.4-10.7C217.5,596.7,207.6,592.6,208.3,594.4z M249.3,613
		c-1.1,0,6.5,8,15.1,15.8c10.4,9.6,19.4,16.5,31.6,24.5c8.9,5.7,26.9,15.2,27.6,14.5c0.6-0.7,7.6-32.9,7.2-33.3
		c-0.2-0.2-4.6-1.5-9.8-2.9c-5.2-1.3-15.8-4.1-23.5-6.1c-7.7-2.1-21.6-5.7-30.9-8.1C257.4,615,249.5,613,249.3,613z"/>
</g>
</svg>
