<svg xmlns="http://www.w3.org/2000/svg" width="793.9" height="1009.8" viewBox="0 0 793.9 1009.8">
  <title>Anime10_13_44</title>
  <g>
    <path d="M704,830v72H-89.9V-107.8H704v2.8c-1.2,1-2.4.4-3.6-.1s-3.6-.6-5.4-.6c-16.5,0-33,.1-49.4-.1a10.9,10.9,0,0,0-9.4,4.5Q582.7-36.1,529.1,29c-4.6,5.7-9.2,11.4-13.9,17-1.3,1.5-2.6,3.1-4.6,3.6-4.1-2.2-5-5.4-3.4-11.1,5.9-4.8,7.4-12.1,10.3-18.5,18.9-41.3,37.3-82.8,55.9-124.1.3-2.3-1.5-1.1-2.4-1.3-38.7.2-77.3.3-116,0q-30,.4-60.1,0a79,79,0,0,1-9,.2H170.1c-2,0-4,0-6-.2q-47,.4-94,0c-11.8.3-23.6.1-35.4.1H-84.9c-1.6-.1-2.6.5-2.5,2.3.1,20.4.2,40.7-.1,61.1.2,3.2.2,6.3.2,9.5q0,307,0,614c0,2.4-.6,5,.9,7.7,7.4-1,13.6-6,21.2-6.5,2.4.1,3.8,1.7,5.2,3.4,20.8,26,41.8,51.7,62.7,77.5l44.2,54.6c1.4,1.7,3,3.1,4.5,4.6,4.6,5.5,8.9,11.2,13.5,16.6a26.9,26.9,0,0,1,6.3,14.9c2.8,24.1,6.3,48,9.2,72,.1.8.1,1.7.2,2.5,2.4,17,4.6,34.1,6.9,51.2.6,4.4,1.2,8.9,1.9,13.3s1.1,5.9,7,5.9h4.5q32.1-.4,64.3,0,49-.4,98,0a73.6,73.6,0,0,1,8.5-.2H456.4c2.2,0,4.3-.1,6.5.2q42.9-.4,85.8,0c18.8.2,37.6.1,56.4.1,22.4-.1,44.9-.2,67.3.1,5.3,0,8.8-1.4,11.2-6.3a152,152,0,0,1,13.5-21.6,23.6,23.6,0,0,0,4.5-14.9c-.1-8.5-.7-16.9.4-25.4C702.4,830.6,702.9,829.8,704,830Z" transform="translate(89.9 107.8)" style="fill: #fcfcfc"/>
    <path d="M704,314V454a2.1,2.1,0,0,1-1.3.5c-4.9-.4-7.9-4.1-11.3-6.9-33.8-28.1-67.5-56.4-102-83.9,37.5,81.4,74.9,162.9,113.7,243.7.5.8.2,1.9.9,2.6v29c-.8.6-.1,2.2-1.6,2.3-3.1-.7-4-3.4-5.1-5.8q-13-27.6-26-55.2l-24.9-53.4c-15.7-33.8-31.8-67.5-47.7-101.2l-29.3-61.9c-7.4-15.6-14.9-31.3-22-47.1a15.3,15.3,0,0,1-.9-2.3c-.3-1.2-.5-2.4.5-3.3s2.5-.5,3.7.2c4.3,2.6,7.7,6.3,11.5,9.6,24.7,21.3,49.1,43,73.6,64.6,21,18.5,41.6,37.3,62.8,55.6a6,6,0,0,0,2.5,1.7c1.3-1.7.7-3.6.7-5.3q.1-57.5,0-115a41,41,0,0,1,.2-7,3.9,3.9,0,0,1,.7-1.4A1,1,0,0,1,704,314Z" transform="translate(89.9 107.8)" style="fill: #f7f5f5"/>
    <path d="M700.9-106l3.1,1v34a13.8,13.8,0,0,0-1.1,1.8C679.4-50,655.6-31.3,632.1-12.2c-13.4,10.9-27,21.6-40.7,33L700-26.8a6,6,0,0,1,2.4-.6c.9.1,1.1.9,1.5,1.4v14a7.5,7.5,0,0,1-1.4,1.8c-40.5,19-81.1,37.6-121.4,57-18.7,9-37.6,17.7-56.3,26.7-2.4,1.1-4.7,2.7-7.5,2s-.2-3.2,1.1-4.5c22.3-21.5,44.2-43.3,66.5-64.8,18-17.3,35.1-35.5,53.4-52.5s38-37.8,57.3-56.4C697.1-104.2,698.3-106.3,700.9-106Z" transform="translate(89.9 107.8)" style="fill: #f7f5f5"/>
    <path d="M704,830l-1.2,1.4c-2.8-.5-3.4-3-4.4-5-7-14.2-13-28.8-19.4-43.3-13-29.2-26.2-58.3-39-87.6-10.4-23.6-21.2-47.1-31.5-70.7a80.4,80.4,0,0,0-10.9-18.4c-12.5-15.6-23.7-32.1-36.3-47.7-9.7-14.7-20.5-28.6-31.1-42.6l-34.9-46a10.6,10.6,0,0,1-1.9-3.5c-.4-8,5.5-10.7,11.4-13.5,3.2-.4,4.8,1.9,6.3,4,5.9,8.2,11.3,16.8,17.6,24.7.4.8.7,1.7,1.2,2.6l.7,1.2c20.7,29.5,41.5,58.8,62,88.4,8.1,11.6,16.5,23,24.8,34.5s12,23,17.2,34.9q21.2,47.4,42.2,95c8.7,19.8,17.3,39.7,26.5,59.3a5.3,5.3,0,0,0,.9,1.2Z" transform="translate(89.9 107.8)" style="fill: #f7f5f5"/>
    <path d="M703.1-11.2l.9-.8V314h-.8c-3.1-4-1.3-8.6-1.6-13-.2-10.6-.2-21.2-.1-31.7.4-22.1.1-44.2.2-66.4-3.3-.5-5.8.6-8.3,1.4-24.3,7.6-48.4,15.8-72.8,23.3-12.4,3.8-24.9,7.4-37.1,12l-1.4.4c-2.6.3-5.8,1.3-7.2-1.6s1.7-4.2,3.4-6c14.7-15,31.2-28,46.5-42.4s32.1-29.5,48.4-44l26.1-23.3a7.1,7.1,0,0,0,2.4-5.7c-.1-14.5.2-29-.2-43.5-.2-25.9-.1-51.8-.1-77.7C701.4-6.6,701.3-9.1,703.1-11.2Z" transform="translate(89.9 107.8)" style="fill: #fcfcfc"/>
    <path d="M704,799l-1.5-.3c-2.1-10.9-.9-21.9-1.1-32.9-.3-38.7-.1-77.5-.1-116.2,0-2.9-.7-6,1.6-8.6a2.2,2.2,0,0,1,1-2.1Z" transform="translate(89.9 107.8)" style="fill: #fcfcfc"/>
    <path d="M703.1,454h.9V610a2.1,2.1,0,0,1-1-2,16.8,16.8,0,0,1-1.7-8.2q0-69.4,0-138.8C701.4,458.6,701,455.9,703.1,454Z" transform="translate(89.9 107.8)" style="fill: #fcfcfc"/>
    <path d="M702.9-69.8,704-71v45l-1-1c-1.7-1.5-1.6-3.6-1.6-5.6-.1-10.5-.1-21,0-31.5A10.1,10.1,0,0,1,702.9-69.8Z" transform="translate(89.9 107.8)" style="fill: #fcfcfc"/>
    <path d="M-63.2,583.8c-2.3-1.2-4.2.6-6.1,1.3-6.4,2.3-12.7,4.9-18.9,7.4-1.4-1.1-.8-2.3-.8-3.4q0-314.5,0-629c0-.7.1-1.3.1-2,2.5-1.5,4.1.6,5.7,1.7l62,43.1,74.6,52,51.8,35.8,1.2.7,2.5,1.3c1.8.9,3.9,1.2,5.1,3.1a19.5,19.5,0,0,1,2.4,11c-.3,6.8.7,13.6,1.7,20.3.7,4.7-.3,9.4.9,14s.5,7.9,1.2,11.8c.4,2.3.2,4.6-1.7,6.4-3.4,1.9-7.2,1.2-10.8,1.1s-7.3,1.3-9.1,5.4a67.6,67.6,0,0,1-6.1,10.9c-3.9,5.6-4.7,11.6-3.9,18.1,2.2,17.6,3.6,35.4,5.8,53,1.2,9.8,3.5,19.3,7.8,28.2s9.3,15.4,14.3,22.8c1.4,4.7,5.7,4.7,9.4,5.7,2.6,3.2,6.6,5.4,7.5,9.9-.8,2.7-3.3,3.1-5.5,3.8-29.6,9.8-59.3,19-89.1,28.1-8.1,2.5-8.8,3.2-6.8,11.8,5.8,25.7,11.3,51.4,17.3,77,1.1,4.6,1.4,9.5,3.8,13.8,2.2.1,3.1-1.5,4.2-2.6,15-14.9,30.3-29.5,44.8-45,12.2-13,25-25.4,37.5-38.1,1.6-1.6,3-4.3,6.2-2.8,2.6,5.8,3.6,12.2,4.2,18.3,1.3,12.7,4.3,25.3,4.6,38.1.2,6.1,2.7,12,3.3,18.1.3,3,.7,6,.1,8.9s-4.8,6.2-7.2,9.3-5,6.5-7.4,9.8c-13.3,14.7-25.4,30.4-38.1,45.5-4.5,5.4-8.9,10.8-13.3,16.2a15.1,15.1,0,0,1-12.6,5.8c-8.8-.1-17.6-.2-26.5.1-6.2,0-12.3.1-18.5,0-4.2.2-8.1,1.7-12.2,2.5s-4.5,3.4-3.7,6.7a10.1,10.1,0,0,0,2.9,4.6c14.2,14.7,27.5,30.2,41.8,44.8,2.4,2.5,4.4,5.4,6.8,7.9s1.9,2.4,1.1,4c-7.9,5.9-15.8,11.7-23.6,17.7-4.1,3.1-5.7,2.9-8.4-1.5C32.2,605.7,25,594.3,17.6,583c-2.9-4.4-3.5-4.7-7.9-2-9.1,5.6-19,9.7-28.2,15.1-4.8,2.8-7,2-9.7-2.9s-6.2-12.2-9.6-18.1c-1.8-3.2-3.6-3.7-6.8-1.9C-50.9,576.6-56.9,580.5-63.2,583.8Z" transform="translate(89.9 107.8)" style="fill: #980a10"/>
    <path d="M561.8,557.9c12.5,14.3,22.4,30.6,34.7,45,9.4,11,14.3,24.3,20,37.1q40.4,90.4,80.5,181c1.6,3.6,3.1,7.3,5.7,10.4.1,10.8.1,21.6.3,32.4a6.5,6.5,0,0,1-1.6,4,298.7,298.7,0,0,0-18.8,29.9c-1,1.7-1.7,3.2-4.3,3.2l-72.4-.2c-9.1-.8-18.3-.2-27.4-.3s-16-.1-23.9,0c-2.4,0-4.7-.2-6.5-1.9s-6.1-3-9.7-3H474.5c-2.8,0-5.7.4-8.1-1.6s-.1-4.4,1-6.4c2.3-4,4.3-8.2,6.4-12.3.7-1.5,1.6-2.9,1.3-4.6s-3.8-1.1-5.7-1.2H442.5c-2.1,0-4.3.2-6.3-.9s-.6-3.4,0-5.1c9.4-27.5,18.6-55.2,28.3-82.6,1-2.8,1.9-5.7,4.6-7.5,7.8-2.9,15.6-5.8,23.5-8.4s8-1.2,9.6,5.2,4.3,15.4,6.5,23.1a1.9,1.9,0,0,0,1.1,1.3c2.9-5.9,4.9-12.2,7.1-18.4,3.3-9.3,4.9-10.5,14.9-10.5h31c5.2,0,6.1-1.3,5.7-6.9s-1.6-5.5-6.7-4.7c-14.8,2.5-29.6,4.8-44.3,7.7-3.4.7-7,2.1-10.6.1.6-3.1,3.2-3.4,5.3-4.2l24.9-9c6.5-2.3,6.7-2.9,5-9.4-3.6-13.6-5.2-27.5-8.2-41.2-7.8-36.2-14.9-72.5-22.2-108.7-1.8-9-1.3-10.2,7.2-13.5,11.5-4.6,22.8-9.5,34.3-13.9C556.2,560.7,558.7,558.7,561.8,557.9Z" transform="translate(89.9 107.8)" style="fill: #980a10"/>
    <path d="M112.8,95.2c-2,.2-3.5-.9-4.9-2.1s-1.4-.4-1.8-1.1h.1c-14.2-15-28.9-29.5-43.5-44.1C35.7,20.9,8.4-5.8-18.2-33.1c-22-22.5-44-45-66.3-67.2-1.3-1.3-2.7-2.5-3.1-4.4s.1-1.5.9-1.8H69.7c2.4,2.5.1,4.4-1.2,6C59.3-89.4,50.1-78.3,40.6-67.4c-4.7,5.4-4.8,6,.2,10.9,23.1,22.9,47,45,70.2,68,5.5,5.5,11.5,10.5,16.9,16.1a10.7,10.7,0,0,1,.2,5.6c-2.9,6.1-7.3,11-11.8,15.9-2.7,2.9-4,5.8-3.9,9.8.3,6.8-.4,13.5,2.3,20.1,1.6,4,.8,8.5.5,12.8C115,93.3,114.5,94.7,112.8,95.2Z" transform="translate(89.9 107.8)" style="fill: #019fcd"/>
    <path d="M-63.2,583.8c3.7-5.2,9.9-6.9,15-10,7.9-4.9,8.2-4.7,12.9,3.5,2.8,4.9,5.3,10,7.9,15s4.3,5.6,8.6,2.8c9.6-6.3,20.6-10,30.1-16.6,3.2-2.3,4.9-.4,6.4,2,7.6,12.1,15.3,24.1,22.7,36.3,2,3.2,3.3,3.8,6.4,1.2,6.7-5.5,13.7-10.5,20.5-15.7,1.3-1,2.7-1.1,4.1-1.5a3.7,3.7,0,0,1,.7,1.4,205.8,205.8,0,0,1-1.2,39.4c-1.4,12,.3,23.1,6.3,33.7,23.8,42,47,84.4,70.3,126.7,8.2,14.9,16.8,29.6,24.4,44.7.9,1.7,2.4,3.3,1.4,5.5-6.2,2.2-12.8.9-19.2,2.1a21.5,21.5,0,0,1-4,0c-9.4,0-10.7-.9-14.5-9.8s-9.2-19.3-13.8-28.8C105.4,782,89.3,748.1,72.8,714.4Q51,669.7,29.6,624.9c-5-10.4-10.4-20.5-13.7-28.3,6.4,20.9,12.6,44.9,19.5,68.8q7.4,25.9,14.6,52c.5,1.9,1.6,3.8,0,5.7-1.7-.3-2.4-1.7-3.3-2.9L-60.6,587.5C-61.6,586.3-62.4,585-63.2,583.8Z" transform="translate(89.9 107.8)" style="fill: #ec1d25"/>
    <path d="M126.7,27.4c-9.6-8.2-18.6-17.1-27.6-25.9C79-17.9,59-37.4,38.7-56.6c-3.7-3.5-4.2-5.8-.7-9.8,10-11.4,19.6-23,29.4-34.6,1.3-1.6,3.3-3,2.4-5.6a27.3,27.3,0,0,1,3.4-.4h88.6l2.5.3c1.5,1.6,1.7,3.6,1.9,5.6,2.7,20,6.4,39.8,9.9,59.6a9.1,9.1,0,0,1,.1,1.5,4.9,4.9,0,0,1-.3,1.5,3.2,3.2,0,0,1-1.3,1.5c-9.8,5.2-14.9,14.5-20.4,23.4-7.6,12.3-15,24.8-22.9,36.9C130.1,25,129.5,27.4,126.7,27.4Z" transform="translate(89.9 107.8)" style="fill: #75cae4"/>
    <path d="M575-105,518.6,20.6c-2,4.6-4,9.1-6.2,13.6-1.1,2.3-1.8,5.1-5.3,4.9-3.7-3.7-4.2-8.8-5.4-13.4S499.5,15,498,9.7a14.5,14.5,0,0,0-3.3-6.5c-11.5-11-23.5-21.5-37.5-29.4-6.5-5.4-14-9.2-20.9-13.9-2.9-2-6.8-2.9-7.8-7,3.3-11,8.5-21.2,12.7-31.9,2.9-7.2,6.2-14.3,9.2-21.5,1-2.5,2.2-4.9,4.7-6.2H573.8A1.7,1.7,0,0,1,575-105Z" transform="translate(89.9 107.8)" style="fill: #019fcd"/>
    <path d="M50,722.9,33.2,662.4,13.6,592.4a4,4,0,0,1,0-3.5c4.9,10,9.7,19.7,14.4,29.3l42.3,87.6q33.8,70.1,67.3,140.4c2.4,5,5.2,7.5,11,6.9,8.1-.8,16.3-1,24.4-1.4a1.7,1.7,0,0,1,1.4.3c4.5,7.5,8.1,15.6,12.9,22.9.2,1.7-.8,2.8-1.9,3.8-7.1,7.1-13.6,14.9-20.5,22.2H99.9c-3-9.1-5.4-18.4-7.9-27.6C88.1,859.5,83.5,846,80.7,832a8.2,8.2,0,0,0-1.2-2.7c-2.7-13.8-3.5-27.9-5.5-41.9-1.6-11.2-3-22.3-4.3-33.5-.7-5.7-3.2-10.3-6.8-14.6S53.7,728.9,50,722.9Z" transform="translate(89.9 107.8)" style="fill: #f58c91"/>
    <path d="M66.2,900.8H30c-2.3-26.1-4.8-52.1-7-78.1-1.9-22.4-4.5-44.7-5.3-67.2-.2-4.6-3-8-6-11.2-29.1-29.8-57.7-60-87.4-89.2-9.7-9.5-15.4-18.8-13.5-32.8,1.2-9.1.2-18.6.2-27.8,1.4-.6,2.1.3,2.7.9C-49.1,635.3-10.7,673.8,27,713.1a19.9,19.9,0,0,1,5.3,10.4Q49,809.7,65.8,895.9A46.2,46.2,0,0,1,66.2,900.8Z" transform="translate(89.9 107.8)" style="fill: #020201"/>
    <path d="M495.5,2.1c4.9,4.9,5.1,11.7,6.4,17.8s3.6,12.8,5.3,19.2c.4,3.7.4,7.5,2.6,10.8,1.7,1,1.4,2.8,1.7,4.4a131.1,131.1,0,0,0,5.1,21c.8,5.2,3.6,10.1,1.8,15.5-3.3,1.4-5.3-1.2-7.5-2.7C495.2,77.4,479.3,67,464.1,55.7c-6.6-4.9-13-6.6-21.3-5q-31.4,5.9-63.2,9.6a65.8,65.8,0,0,1-7.5.2h-123a23.2,23.2,0,0,0-13.6,3.9c-23.5,15.8-47.3,31.1-70.8,46.9-1.8,1.2-3.4,2.7-5.2,3.8-3.4,2.6-7.2,4.7-10.6,7.4l-1.1.9-1.2.7c-8.2,4.1-15.5,9.7-23,14.9-1.6,1.1-3,2.8-5.3,2.2-2.4-4.5-.7-9.4-1.2-14.1,1.1-2.5,3.5-3.5,5.6-4.9,45.1-30.2,90.6-59.8,136-89.7,7.4-4.8,7.3-5.2-.1-9.7s-12.7-8-19.1-11.9c-4.9-3-5.3-4.5-2.8-9.8s5.7-9.4,7-14.9c6.5-4.1,13.8-5.5,21.4-5.8a7.4,7.4,0,0,1,3,3.3c5.4,9,10.7,18.1,16,27.1,2.6,4.4,2.1,6.2-2.2,9.1-2.5,1.7-5.1,3.2-7.5,4.9s-2.9,3.5-.2,5.4a298.1,298.1,0,0,0,25.3,16c5.3,3,12.1,2.1,18.1,2.2,18.5.1,36.9,1.4,55.3,1.6,6.7.1,13.2-1.7,19.5-3.7l1.5-.4,3.1-.2c9.8-1,19.3-3.6,28.9-5.6,7.7-1.6,15.4-2.9,23-4.9,4.9-1.3,9.1-.2,12.6,3.8s6.3,6.4,9.5,9.6,3.6,2.2,5.8-.2c8.2-8.9,8.1-8.7-1.8-15.6C462.3,24,449.5,15.7,436.8,7.1c-6.9-4.7-7.5-7.2-3.1-14.4,2-3.3,2.9-7.1,5.4-10.1,2.7-.9,5.3.2,7.7,1.1C461-10.8,475.4-6,489.7-.7,491.7,0,493.5,1.3,495.5,2.1Z" transform="translate(89.9 107.8)" style="fill: #df3f52"/>
    <path d="M516,75.2c-4.4-6.1-4.2-13.5-5.8-20.3a31.6,31.6,0,0,1-.4-4.9c10.9-13,21.8-26,32.6-39.1C572.7-26,603.2-62.8,633.2-100c4.5-5.6,8.9-7.1,15.5-7,15.8.4,31.6.1,47.5.2,1.6,0,3.3-.5,4.8.8L593.4-.3,522.1,69.5c-1.7,1.7-4.4,2.5-5.2,5.2A.6.6,0,0,1,516,75.2Z" transform="translate(89.9 107.8)" style="fill: #019fcd"/>
    <path d="M175.1-39c-4.4-21.6-7.7-43.4-11-65.2a13.1,13.1,0,0,1,.1-2.5H394.8a5.2,5.2,0,0,1,2.5,4.6c0,10.5.5,21,1.1,31.4a6.7,6.7,0,0,1-.6,2.9c-1.7,2.6-4.3,2.2-6.1.7-13.7-10.7-30.2-11.5-46.4-13.4s-34-4.3-51-6.6a48,48,0,0,0-21.2,1.5c-14,4.3-28.3,7.8-42.3,12a33.4,33.4,0,0,0-10.2,5c-12.9,9.4-26.2,18.4-39.3,27.6C179.6-39.7,177.8-37.6,175.1-39Z" transform="translate(89.9 107.8)" style="fill: #019fcd"/>
    <path d="M463.1,900.8l-4.5.2H263.1a8.5,8.5,0,0,1-2.8-3.4c-5.4-11.5-11.9-22.5-17.5-34-.9-1.7-2.1-3.5-1.2-5.6,3.5-2.9,8-3.7,12-5.5s6.7-2.8,9.6-4.9a4.7,4.7,0,0,1,3.9,1.3c4.6,4.1,8.9,8.6,13.6,12.5a13.5,13.5,0,0,0,8.6,3.2c31.8,1.3,63.6.9,95.4.9,9.3,0,18.6,1.9,27.9.7,2.3-.2,4.2.8,6.1,1.9,3.2,2.9,7.4,4.6,10.1,8.2l.9,1.1.5.6c4.2,3.7,8.8,7,12.9,10.8s7.1,4,11.4,4,6.6-1,9.6,1.2C465.4,896.5,464.7,898.8,463.1,900.8Z" transform="translate(89.9 107.8)" style="fill: #f25722"/>
    <path d="M-87.1-105.1a33,33,0,0,0,2.7,3.5l56.5,56.5c8.3,8.3,16.4,16.9,24.6,25.2C8.9-7.6,21.2,4.5,33.2,16.8c23.4,23.9,47.6,46.8,70.4,71.3,1,1.1,3,1.7,2.5,3.9-7.8-3.5-14.2-9.1-21.1-13.9Q.3,19.5-84.2-39.4c-1.4-1-2.7-2.6-4.7-2.5v-63.2A1.3,1.3,0,0,1-87.1-105.1Z" transform="translate(89.9 107.8)" style="fill: #d8717f"/>
    <path d="M241.7,858.2,260.5,895c1,1.9,1.8,3.9,2.6,5.9H165c.4-2.6,2.1-4.4,3.9-6.2L187,875c3.8-4.3,7.7-8.7,11.8-12.7s5.6-8.5,9.1-12.2c7.5-.7,14.9-1.4,22.4-1.4S240.4,851.9,241.7,858.2Z" transform="translate(89.9 107.8)" style="fill: #f7aa8e"/>
    <path d="M396.7-66.7c-.2-12.3-.4-24.5-.7-36.8,0-1.1-.8-2.2-1.2-3.2q30.2-.8,60.3,0c-7.9,15-13.7,30.8-20.3,46.3L429-46.8c-1.4.9-2.6.1-3.7-.6a279.3,279.3,0,0,1-26-16C398.1-64.2,396.8-65,396.7-66.7Z" transform="translate(89.9 107.8)" style="fill: #75cae4"/>
    <path d="M463.1,900.8c-.6-2.4,1.1-4.5,1-6.9s.9-1.6,2.1-1,3.8,1,5.8,1h67.9c3.7,0,6.9.3,9.2,3.6s4.1,2.5,6.7,2.5h44.9c1.8,0,3.7-.6,5.3.8Z" transform="translate(89.9 107.8)" style="fill: #ec1d25"/>
    <path d="M79.5,829.3c1.9.7,1.9,2.6,2.3,4.1,5.9,20.5,11.7,41.1,17.5,61.6a17.1,17.1,0,0,1,.5,5.9H88.7Z" transform="translate(89.9 107.8)" style="fill: #ec1d25"/>
    <path d="M-87.1-105.1h-1.8c-.1-1.8.7-2,2.1-1.3Z" transform="translate(89.9 107.8)" style="fill: #75cae4"/>
    <path d="M575-105l-1.1-1.8h1.8Z" transform="translate(89.9 107.8)" style="fill: #75cae4"/>
    <path d="M516,75.2l.9-.4c8.7-2.1,16.1-6.8,24.1-10.5Q619.3,27.6,697.5-9.2c1.8-.8,3.4-2.1,5.5-2L702.8,75c-1.8,3.8-4.7,6.9-7.6,9.8-19.8,20.2-38,41.9-57,62.8S603,188.4,584.4,208c-10.8,11.5-20.6,23.9-31.5,35.4-3.1,3.3-2.7,4.7,1.5,6.6,31.8,14.2,63.6,28.1,95.4,42.3,14.6,6.5,29.5,12.3,43.7,19.7,3,1.6,6.6,1,9.3,3.1V447c-52.4-45.7-103-91.7-155.6-136.9-.3,3.7,1.2,5.6,2.1,7.6q50,106.1,100,212.1c16.4,34.9,32.6,69.9,49,104.9,1.1,2.4,2.3,4.8,4.6,6.4q0,60.8,0,121.7c0,1.2-.1,2.3-.2,3.5-2.4-.1-2.8-2.1-3.5-3.7q-27.5-58.8-54.8-117.7c-5-10.7-10-21.4-14.7-32.3-2.4-5.7-6.2-10.6-10.1-15.4q-29.5-36.8-59.3-73.4c-9.5-11.8-19-23.6-28.4-35.5a24.2,24.2,0,0,0-3.1-3.2h0c-.5-.6-.4-1.4-.7-2.1-5.7-5.9-10-12.8-14.6-19.6-2.4-3.6-4.4-7.5-8.5-9.5-5.8-4.3-6.6-7.5-3.1-13.5,2-3.3,3-7,5.2-10.2a26,26,0,0,0,3.6-7.1c4.3-14.5,9.8-28.5,14.2-43,3.1-10.2,4.2-20.8,5.5-31.3a16.4,16.4,0,0,0-.6-6.4c.3-12.6,2.3-25.1,3.1-37.7.6-10.5,2.4-21.3-2.8-31.3-3-14.6-4.2-29.4-6.5-44.1-.3-12.6-2.4-25-4.5-37.4-.8-4.9-1.5-9.9-5-13.8a8.2,8.2,0,0,1-1.1-5.7c.8-7.2,1.9-14.4-3.3-20.6a6.1,6.1,0,0,1-.9-2.8c.1-5.4-1.9-10.6-.8-16.1,3.5-6.6,6.6-13.4,10.2-19.9a14.4,14.4,0,0,0,1.4-11.4c-.9-3.4-2.8-6.8-1.7-10.6C518.4,85.5,515.1,80.6,516,75.2Z" transform="translate(89.9 107.8)" style="fill: #f8901e"/>
    <path d="M702.8,315.1c-3.9.4-7.4-.9-11-2.5-22.5-10.2-45.2-20.3-67.8-30.4l-58.8-26-12.4-5.3c-4.4-1.9-5.1-3.8-1.7-7.4,8.5-8.9,16.3-18.4,24.5-27.6,15.2-16.9,30.6-33.7,45.2-51.1,9.2-10.9,19-21.3,28.6-31.9l48.6-53.5c1.4-1.6,3.1-3,4.7-4.4q.1,22.2.1,44.5c0,1.2.3,2.4-1.1,3.5-11.5,8.7-21.9,18.9-32.6,28.5-21,19-41.7,38.3-62.6,57.3-7.2,6.6-14.8,12.8-22.1,19.4-3.4,3.1-6.4,6.5-9.9,10.1a11.8,11.8,0,0,0,8.1-.1c20.5-7.1,41.3-13.4,62.1-19.9,17.5-5.5,34.7-11.8,52.4-16.8l5.6-1.3V268c-2.7,2.2-5.5.7-8.2.2-33.3-6.2-66.8-10.4-100.1-16.8q37.5,17.6,75.2,34.4c9.7,4.3,19.4,8.9,29.3,12.7a7.5,7.5,0,0,1,3.6,2.6l.3,13Z" transform="translate(89.9 107.8)" style="fill: #fdc908"/>
    <path d="M703.1,454q-.1,66.5-.1,133.1,0,10.5,0,20.9c-2.4-.2-2.5-2.5-3.2-4L596,381.6c-3.2-6.9-6.9-13.5-9.5-22.3,11.7,9.5,22.5,18.1,33,26.9q38.9,32.2,77.6,64.6C699,452.3,701.2,452.7,703.1,454Z" transform="translate(89.9 107.8)" style="fill: #fdc908"/>
    <path d="M702.9-69.8V-27L602.7,17.1l-14.1,6.1c-.5-2.1.9-2.5,1.7-3.1L698.7-67.2A37.6,37.6,0,0,1,702.9-69.8Z" transform="translate(89.9 107.8)" style="fill: #019fcd"/>
    <path d="M561.8,557.9a8.8,8.8,0,0,1-4.4,3.8l-38.9,15.6c-7,2.8-7.1,2.8-5.6,10.1q12.8,62.8,25.6,125.6c2,9.9,3,20,6.2,29.7.9,2.8-.1,4.6-3.1,5.6-9.7,3.4-19.4,7-29,10.6-1.6.6-3.6.6-5.2,2.7,8.6-.6,16.5-2.7,24.5-4.1l31.8-5.5c4.2-.7,6.2,1.1,6.3,5.5.3,9.4.4,9.4-8.9,9.5h-31c-7.8,0-8.7.7-11.4,8.3s-5.7,15.5-9,24.3c-3.9-8.5-5.4-16.4-7.6-24.1-3.3-11.4-3-11.4-14.2-7.6-6.2,2.1-12.1,5.4-18.9,6a2.6,2.6,0,0,1-.9-1.3c.4-7.3,3.6-13.8,6-20.5l25.1-72.2a16.4,16.4,0,0,0,.4-9.8c-9.1-35-18.2-69.9-27-105a37,37,0,0,0-1.7-4.2c-3.1-6.5-2.9-13.6-4.1-20.4s-1.6-11.2-3-16.7a7.6,7.6,0,0,1,3.8-7.6c13.6-8.6,17.7-22.9,22.6-36.8a15.3,15.3,0,0,0,1.4-6.6c.1-2.3.1-4.6,2.6-5.9L559,552.7A14.6,14.6,0,0,1,561.8,557.9Z" transform="translate(89.9 107.8)" style="fill: #ec1d25"/>
    <path d="M528.9,485c2.2-.6,2.6,1.5,3.5,2.6q46.1,56.8,91.9,113.7c7,8.7,9.9,19.5,14.5,29.4q31.1,66.3,61.9,132.8c.5,1.1.8,2.2,2,2.7.1,10.8.6,21.7-.2,32.5-12.3-25.2-22.9-51.2-34.4-76.8C653,688.2,638,654.4,622.9,620.6a74.4,74.4,0,0,0-8.3-13.6c-29-39.4-56.3-80-84.7-119.8A13.6,13.6,0,0,1,528.9,485Z" transform="translate(89.9 107.8)" style="fill: #020201"/>
    <path d="M494.2,466.9c-2.4,4.1.2,9.3-3.1,13.1-.9-.3-1.2-1.6-2.9-1.5-1.9,4.2-2.5,9.2-5.1,13.4a11.6,11.6,0,0,1-1.7,2.2,3.4,3.4,0,0,1-1.3.6c-3.8.3-3.4-4.1-6.3-5.5-.8,2.9,1.5,4.9,1.9,7.3s2,4,0,5.6-4.1.1-5.8-1.3l-3.2-2.4c-3-4.6-.1-22,4.1-25.3a4.1,4.1,0,0,1,2.3-.8,12.4,12.4,0,0,1,2.5.6c-1.6-4.1.1-7.6,1.5-11.1,4.2-10.7,8.7-21.3,12.8-32,.9-2.3,2.1-4.3,4.8-4.4s2.8,1.9,3.2,3.8c1.2-.7,1.3-2.3,2.7-2.7,2.9.6,5.8,1.4,7.3,4.3-1.2,2.7-2.1,5.7-3.8,8-4.1,5.4-3.4,10.2,1.1,14.8a21.9,21.9,0,0,1-4.1,2.8C496.4,458.5,494.3,462,494.2,466.9Z" transform="translate(89.9 107.8)" style="fill: #4f0e14"/>
    <path d="M528.2,482.9c.3.7,1.8,1,.7,2.1S528.1,483.8,528.2,482.9Z" transform="translate(89.9 107.8)" style="fill: #020201"/>
    <path d="M702.8,301c-12.7-4-24.6-10.1-36.7-15.5q-36.4-16.3-72.7-32.9c-1-.4-2.3-.5-2.6-2.2,3.7-1.4,7.2.1,10.6.6,16.2,2.7,32.2,6,48.4,8.3s35.2,6.1,52.9,8.6Z" transform="translate(89.9 107.8)" style="fill: #f8901e"/>
    <path d="M144.9,360c-13.7,13.3-27.2,26.8-40.4,40.7-15.8,16.7-32.4,32.6-48.6,48.9-.8.8-1.7,1.5-2.9,2.5-3.7-6.6-4.2-13.8-5.8-20.6-5.4-22.9-10.2-45.9-15.5-68.8-3.5-15.1-3.6-14.7,11-18.9,17.4-5,34.6-10.7,51.8-16.1L127.2,317c2.1-.7,4.7-.7,5.9-3.2a3.5,3.5,0,0,1,3.4,1c2.1,3.9,6.6,5.1,9.4,8.2.9,10.4.5,20.8,2.2,31.1C147.8,356.4,147.1,358.6,144.9,360Z" transform="translate(89.9 107.8)" style="fill: #c1121a"/>
    <path d="M244.1-13.5c.4,5.9-4,9.7-6.2,14.5s-2.8,6.1,2.7,9.4l22.5,13.8c3.9,2.5,3.8,4.2-.8,7.2L166.9,94.1l-50,33c-1.4-4.3-1.4-8.7-1.7-13.1-.4-6.3.2-12.7-2.5-18.8,2.3-6.5,1.8-12.9-.2-19.3s-.8-15.4-1-23.1c0-.9,1.2-2,2-2.7,5.3-5,9-11.3,13.6-16.9,1.3-1.4,2.9-1.4,4.5-.9,6.7,4.4,12.2,10.3,17.8,15.9s8.9,9,13.8,13c2.8,2.3,5.2,2.4,8.1.4s8.3-5.6,12.5-8.3,4-4.8,3.5-8.6c-1.4-10.1-3.5-20-5-30-.7-4.3-2.2-8.7-.3-13.2a13.2,13.2,0,0,1,5.1-1.9c16.6-4,33.1-8.7,49.7-12.6C239.2-13.7,241.6-14.8,244.1-13.5Z" transform="translate(89.9 107.8)" style="fill: #d8717f"/>
    <path d="M144.9,360l2.1-5c1.9-1.7,3.1-4.8,6.5-4,1.8,1.5,1.8,3.5,1.7,5.5-.2,4.9,1.5,9.1,3.8,13.2,6.7,11.9,11.3,24.9,18.4,36.6a6.7,6.7,0,0,1,.6,1.9c.8,14.3.3,28.5.4,42.8.1,12.1,2.2,24.1,2.1,36.2a5.6,5.6,0,0,0,2.9,4.9c1.1,1,1.1,2.3,1.1,3.7-.7,29.6-.1,59.3-.3,88.9a19.6,19.6,0,0,0,4.2,12.9c16.3,21,31.9,42.7,48.5,63.5,1.8,2.3,4,4.6,3.8,7.9-2.1,6-7.7,8.7-12.1,12.5a3,3,0,0,1-2.3-.5c-28.4-28.9-57.1-57.4-85.9-85.9-5.6-5.6-8.5-11.4-8.1-19.4.5-9.8,0-19.7.1-29.5.1-7.1,2.2-9.2,9.2-9.6,10.7-.6,12.9.9,16.7,10.9,1.7,4.4,3.3,8.7,5.3,13s2.3,6.5,6.6,5.2,2.4-4.8,2-7.3c-2.4-17.3-4.7-34.7-7.2-52-2.7-19.5-5.5-38.9-8.3-58.4a20.9,20.9,0,0,1,.1-3.5c.1-7.5-1.5-14.8-2.8-22.1-1.9-10.9-3.1-21.9-4.2-32.9S146.8,369.8,144.9,360Z" transform="translate(89.9 107.8)" style="fill: #3d0356"/>
    <path d="M71.3,600.7c-6.6-9.1-14.9-16.8-22.4-25.1-9.3-10.4-18.9-20.5-28.4-30.7-1.6-1.7-3.2-3.4-3.6-5.8s-.2-6.5,4.5-7.1,7.7-1.8,11.6-2.8c2.2.9,3.9,2.5,5.5,4.2L201.6,696.4c1.6,1.6,3.6,3,4,5.6a37.5,37.5,0,0,1-13.5,13.8,5.3,5.3,0,0,1-3.8-1c-13.8-9.6-29.2-17.1-40.5-29.9s-24.6-27.1-37-40.6c-9.5-10.4-19-20.9-28.9-31.1-3.8-4-7.3-8.2-10.8-12.4Z" transform="translate(89.9 107.8)" style="fill: #fbfa66"/>
    <path d="M157,444.6c3.5,9.5,3.4,19.6,4.9,29.4,3.8,25.1,7.2,50.3,10.7,75.5.6,4.1,1,8.3,1.4,12.4.2,1.9,2.2,4.4-1.6,5.1s-6.7,1.7-8.5-2.7c-2.5-6.2-5.1-12.3-7.5-18.5s-13.7-10.7-20.3-6.7c-2,1.2-2.2,3.2-2.2,5.2q0,18.7,0,37.5c0,4.4,2.7,7.3,5.6,10.2l83.5,83.4c1.6,1.6,3.7,2.9,4.2,5.4a3.1,3.1,0,0,1-1.1,4c-2.9,2.4-5.3,5.4-8.9,6.8-3.2-.3-5.4-2.5-7.5-4.6-28.3-28.2-56.7-56.4-84.7-84.9-6.2-6.3-12.1-12.8-18.3-19.1a9.3,9.3,0,0,1-2.9-4.6c-.5-10-.2-20-.2-29.9,0-4.1,2.1-6.8,5.6-8.7,14.8-7.9,29.4-16.2,44.2-24.1l2.6-1.5c4.7-2.9,5-3.8,2.5-8.8a281.3,281.3,0,0,1-14.8-37c-.7-2-1.7-4-.9-6.3C146.5,455.3,151.7,449.9,157,444.6Z" transform="translate(89.9 107.8)" style="fill: #cc5063"/>
    <path d="M104.8,579.3c7.1,7.4,14.2,14.9,21.4,22.2l84.3,84.3c2,2,4.2,3.7,6.3,5.6,40.6,31.6,85.8,56.3,128.3,85,5.4,3.6,10.8,7.2,16.4,10.5,2,1.2,4.3,2.4,2.8,5.4-3.6,2.9-7.3,1.6-10.8,0-7.5-3.5-14.5-8.2-21.5-12.5q-58.5-35.8-117.4-71c-3.2-2-6.8-3.5-9.1-6.8-1.2-1.4-2.4-2.8-3.7-4L44.7,541.3c-4-4-8.4-7.6-11.8-12.1H54.3a21.6,21.6,0,0,1,4.3,3.3l43.7,43.7A10.8,10.8,0,0,1,104.8,579.3Z" transform="translate(89.9 107.8)" style="fill: #020201"/>
    <path d="M104.8,579.3c-.5-.2-1.1-.2-1.4-.5L54.3,529.1c8.5,0,17-.3,25.4,0,5,.2,8.4-1.5,11.5-5.4,15.7-19.3,31.6-38.5,47.4-57.7,1.2-1.5,2.1-3.4,4.3-3.9,5.3,15.6,10.8,31.1,18.2,45.8,1.8,3.6.1,5-2.8,6.6-15.7,8.5-31.2,17.2-46.9,25.5-4.9,2.6-6.9,5.8-6.7,11.4C105.3,560.6,104.9,570,104.8,579.3Z" transform="translate(89.9 107.8)" style="fill: #fcfcfc"/>
    <path d="M118.2,141.1l23.7-16.1c1.5-1,2.8-2.3,4.8-2.2,1.9,2.3-.2,3.7-1.3,5.1-5.4,7-11,13.8-16.5,20.7s-4.7,7.1.1,12.8c2.3,2.7,4.3,5.5,6.7,8.1s3.8,3.7,6.8,3.6a5.7,5.7,0,0,1,5,2.8c7.5,11.2,12.6,23.1,10,37-1.6,4.1-1,8.5-1.2,12.8-.1,2.6.3,5.4-1.8,7.5-4.1,1.8-5.5-.6-5.9-4.1a66.4,66.4,0,0,1-.1-13.9c1.1-9.2-5.2-14-10.2-19.6-2.8.7-3.2,2.9-4.3,4.5s-4.6,4-7.7,2.1c-4.9-3-9.9-6-14.1-10a5.8,5.8,0,0,1,1.3-6c4.4-5.3,4.5-11.3,3-17.6-.1-3.2-1-6.5,1.2-9.4s1.3-5.6.5-8.6S118.1,144.2,118.2,141.1Z" transform="translate(89.9 107.8)" style="fill: #52032f"/>
    <path d="M25,216.8c0,5.7-.1,11.3,0,17,.1,3.4-1.1,4.9-4.6,4.8q-13.2-.2-26.5,0c-3.2,0-4.5-1.2-4.5-4.4q.1-17.5,0-34.9c0-3.2,1.5-4.4,4.6-4.3,8.8.1,17.7.2,26.5,0,3.7-.1,4.6,1.6,4.5,4.9C24.9,205.5,25,211.1,25,216.8Z" transform="translate(89.9 107.8)" style="fill: #f7f5f5"/>
    <path d="M115.6,299.2c-5-7.3-11-13.9-14.4-22.2a3.6,3.6,0,0,1,2.2-2.7c2.8-1.1,6.1-1.1,9-4.4-5.2-3.7-9-8.6-13.8-12.5l-1.1-.8a6.9,6.9,0,0,1-1.3-1.6,5.9,5.9,0,0,1-.9-3.4,4.1,4.1,0,0,1,1.9-3.1c2.3-.8,3.8.5,5.3,1.9a25.8,25.8,0,0,1,3.9,4.5c4.7,6.7,11.1,9.8,19.2,9.1l1.3.6c3.6,7.1,7.9,13.7,14.9,17.9,1.4,1.3,3.4,1,4.9,2a4.2,4.2,0,0,1,1.7,5.5,11.4,11.4,0,0,1-17-3.2c-3.2-5.4-3-5.5-5.5-6.6-1.5,1.8-.4,3.6.4,5C130.6,293.2,126.7,297.9,115.6,299.2Z" transform="translate(89.9 107.8)" style="fill: #019fcd"/>
    <path d="M116.4,460.5c1.2-.9.2-2.6,1.9-3.3s3.5,1.2,4.4,3.4-3.2,2.5-1.4,4.7c-1.6.1-2.4,2.2-4.4,1.6a5,5,0,0,1-3.7-4.5c-.1-3.9-2.5-4.2-5.3-4.3-5.8-.1-11.6-.1-17.4,0-2.6,0-3.6-.9-3.6-3.5.1-6.6,0-13.3,0-19.9,0-2.5,1.2-3.6,3.7-3.6h19.4c3.1,0,4,1.5,4,4.3-.1,6.6,0,13.3,0,19.9C114.1,457.2,113.9,459.3,116.4,460.5Z" transform="translate(89.9 107.8)" style="fill: #cc5063"/>
    <path d="M96.1,251.9l1,3.1a9.9,9.9,0,0,1,.8,1.2h-.1c3.1,5.9,6.6,11.7,6.4,18.7l-3,2.2c-6.1-12.6-7.7-26.3-9.2-40s-3.1-29.4-4.8-44c-.6-5.5.1-10.4,3.2-15.2a158.4,158.4,0,0,0,8-14.3c1.6-3.2,3.9-4.7,7.5-4.5s8,.1,12,.1v9.8c-2.7,2.5-6,1.5-9.1,1.6-6.6.2-7,.4-9.3,6.8a56.7,56.7,0,0,1-2.2,6.1c-4.1,8.5-5.7,17-2,26.4,2.5,6.4.8,13.5,1,20.3S96.4,244.6,96.1,251.9Z" transform="translate(89.9 107.8)" style="fill: #f7f5f5"/>
    <path d="M115.6,299.2l1.3-.7c10.7-4.5,10.7-4.4,7.2-15.6-.5-1.5-2.2-3.5.4-4.7s4.1.4,5.3,2.4l1,1.7c4.7,9.1,7.2,10.2,17.5,7.7,2,.1,2.3,1.7,2.8,3.1.1,3,.7,5.7,3.3,7.7a4.9,4.9,0,0,1,1.4,5.4,3.3,3.3,0,0,1-.8,1.3l-1.3.8-1.4.5c-5.3,1.1-9.4-.1-12.5-5.2s-4.8-5-9.2-1c-1.3,1.2-2.4,2.8-4.5,2.5C121.5,305.1,117,305,115.6,299.2Z" transform="translate(89.9 107.8)" style="fill: #054050"/>
    <path d="M126,305.2l.7-.7c8.5-8.8,8.6-8.9,15.6.9a5.7,5.7,0,0,0,5.9,2.6c1.6-.2,3.2-1.2,4.8-.1s-.9,2.4-2.1,2.8c-4.9,1.8-9.7,4-15,4.5l-2.8-1.4C131.2,310.6,127.5,308.8,126,305.2Z" transform="translate(89.9 107.8)" style="fill: #f7f5f5"/>
    <path d="M106,91.9c1.1-.5,1.6.1,1.8,1.1S106.2,93.1,106,91.9Z" transform="translate(89.9 107.8)" style="fill: #d8717f"/>
    <path d="M468.6,772.7l.5,1.1c-5.2,10.2-8,21.3-11.8,32.1-7.2,20.6-14.2,41.3-21.2,62a3.3,3.3,0,0,1-1.4,1,49.4,49.4,0,0,1-15.6-.1l-4.8-1.9c-3.4-1.1-6-3.5-8.9-5.4-20.4-13.4-40.1-27.9-61-40.6-4.1-3-8.4-5.8-12.6-8.7-1.7-1.2-3.9-2.3-2.6-5.1s3.7-2.1,5.8-2.6c13.9-3.6,27.7-7.3,41.6-10.7,10.3-2.5,20.8-4.8,31.3-6.6,1.8-.3,3.6-.7,5.4,0,2.2,2.3-.1,3.6-1.3,4.9-3.7,4.1-8.2,7.4-12.3,10.9a17.3,17.3,0,0,0-6.1,9.4c3.9,1.4,3.1,4.4,2.3,7.5s-2.4,8.3-3.4,12.5a10.6,10.6,0,0,0,.5,7.3c1.7,3.6,2.9,7.7,8,7.9s11.3,1,15-5.1,10.3-14.3,15.2-22.1c-6,4.1-10.5,9.3-15.4,14.1a25.9,25.9,0,0,1-4.9,4.2c-4.4,2.5-6.8.9-8.2-3.9-2.8-9.2-1.2-17.1,4.7-24.7,3.1-3.9,5.6-8.3,8.3-12.5,1.2-1.8,2.2-3.9,4.9-3.5s3.3,2.4,3.7,5.3c3.4-5.1,5.3-9.7,2.3-15.1.9-1.9,2.7-2.5,4.4-2.8,12.1-2.6,24.1-6.1,36.1-9.1A2.5,2.5,0,0,1,468.6,772.7Z" transform="translate(89.9 107.8)" style="fill: #fbec96"/>
    <path d="M567,623.5c0,5-.1,10,0,15,.1,3.1-1,4.6-4.3,4.6q-11.7-.2-23.5,0c-3.3,0-4.3-1.5-4.3-4.6.1-10,.1-20,0-30,0-3.6,1.5-4.6,4.9-4.6,7.5.1,15,.2,22.5,0,3.8-.1,4.9,1.6,4.8,5.1S567,618.7,567,623.5Z" transform="translate(89.9 107.8)" style="fill: #ec1d25"/>
    <path d="M602,845.3c-4.5-.8-5.2,1.6-5.2,4.9.1,9,0,18,.1,27,0,2.6-.3,4.8-3.5,4.8s-3.4-2.1-3.4-4.8c.1-13.5,0-27,0-40.6,3.3-1.3,6.2-2.2,7.5,2.2a16.9,16.9,0,0,0,6-1.6c1-.4,2.8-1.1,3.3-.7,4.4,4.1,8.6.6,13.3-.5,0,14.6,0,28.7,0,42.8,0,2.4-1.1,3.2-3.4,3.1s-3-1.6-2.9-3.7q.1-14,0-28c0-1.6.6-3.3-.7-4.9-3.9-.7-4.3,1.9-4.2,4.8,0,9,0,18,0,27,0,2.5,0,4.8-3.4,4.8s-3.5-2.2-3.4-4.7C602,866.5,602,855.9,602,845.3Z" transform="translate(89.9 107.8)" style="fill: #f7f5f5"/>
    <path d="M435.2,868.2l.9-.2H473c5.2,0,5.7.8,3.3,5.5-3.3,6.5-6.7,13-10.1,19.4a2.4,2.4,0,0,0-2.1,1c-5.8-.3-12,1.7-17.2-1.3a81.2,81.2,0,0,1-17.8-14.8C433.1,875.8,432.1,870.8,435.2,868.2Z" transform="translate(89.9 107.8)" style="fill: #c84c17"/>
    <path d="M580.5,801.3c0-6.2.1-12.3,0-18.5-.1-3.5,1.4-4.9,4.8-4.7h4.5c6,.1,7,1.6,8.4,7.5,2.7,11.5.3,23.1,1.9,34.6.4,2.6-.5,4.1-3.5,4s-8.3-.1-12.5,0-3.7-1.2-3.6-3.9c.2-6.3.1-12.6.1-19Z" transform="translate(89.9 107.8)" style="fill: #f7f5f5"/>
    <path d="M623,800.6c0-5.8.1-11.7,0-17.5-.1-3.1,1-4.7,4.3-4.6s6-.3,9-.4,6.5,1.8,6.2,5.9c-.9,12.1-.3,24.3-.4,36.4,0,2.8-1.2,4-3.9,3.9h-3c-12.6.7-12.5.7-12.1-12.1.1-3.8,0-7.7,0-11.5Z" transform="translate(89.9 107.8)" style="fill: #f7f5f5"/>
    <path d="M579.1,882c-8.4,0-9.5-.8-10.5-8.8-.8-6.3-1.1-12.6-1.7-18.9-.3-3.3.9-5,4.2-5.5a55.9,55.9,0,0,0,6.2-1.9c1.4-.4,2.5-1.3,2.3-2.8s-1.5-2-3-2-4.7-.1-7,0-3.1-1.1-3.1-3,.3-3.3,2.7-3.4,7.6-.6,11.4-.6,6.7,2.2,6.3,6.6c-1,12.1-.8,24.2-.6,36.3C586.4,883.6,581.6,881.2,579.1,882Z" transform="translate(89.9 107.8)" style="fill: #f7f5f5"/>
    <path d="M565,778c8-.2,9.3.8,10.3,8.4s1.2,12.6,1.9,18.8c.4,3.3-.5,5.5-4.1,6a36.5,36.5,0,0,0-4.7,1.5c-1.7.5-4.1.7-3.8,3.1s3,2,4.8,2.1h5c2.4-.1,3.3,1,3.3,3.3s-1.1,3.1-3.4,3.1-6.9.7-10.4.7-7.1-2.2-6.6-6.7c1.2-12.1.6-24.2.7-36.3C557.8,776.3,562.6,779,565,778Z" transform="translate(89.9 107.8)" style="fill: #f7f5f5"/>
    <path d="M645.8,779.3c2.6-1.1,4.7-2.6,6.6.7s3.4.9,5.2.3c6.1-1.9,6.5-1.7,6.6,4.7.1,11.9.2,23.9.5,35.8.1,2.8-1.2,3.3-3.6,3.4s-3.5-1.3-3.4-4c.2-10.7.1-21.5.1-32.3-4.5-.5-5.1,2.1-5.2,5.2,0,8.6,0,17.3,0,25.9,0,2.4.7,5.4-3.1,5.5s-3.5-2.7-3.5-5.2Q645.8,799.3,645.8,779.3Z" transform="translate(89.9 107.8)" style="fill: #f7f5f5"/>
    <path d="M624.8,858.3c0-6.2.1-12.3-.1-18.5-.1-3.1,1.1-4,4.1-4.1,12.1-.4,13,.3,14,12.3.4,5,.7,10,1.3,14.9.3,3.2-1,5-4.1,5.7a64.1,64.1,0,0,0-6.7,1.9c-1.3.5-2.4,1.5-2,3s1.6,1.4,2.9,1.4,4.7.1,7,0,3.4,1.2,3.4,3.3-.8,3.6-3.2,3.6H627.9c-2.7,0-3.2-1.9-3.1-4.1,0-.2,0-.3,0-.5Q624.8,867.8,624.8,858.3Z" transform="translate(89.9 107.8)" style="fill: #f7f5f5"/>
    <path d="M653.9,866.3c1.2,2.8-.3,5.8,1.4,8.4,2.5.6,3.9-.2,3.9-2.9,0-4.5-.6-8.5-5.7-10.5-3.5-1.3-5.2-4.5-5.5-8.3-.1-1.7-.1-3.3-.1-5,0-11.8,2.6-14.1,14.3-12.2.8.1,1.9.3,2.3.8,2.6,3.6,1.3,7.7.9,11.4s-3.3,3.3-6.3,2.8c0-1.8,0-3.6,0-5.4s-.2-2.7-2-2.9-2.2,1-2.6,2.4c-1.4,4.7.9,10.2,5.5,11.8s6.2,4.9,5.8,9.7-.3,7.6-.2,11.5-.9,4.1-3.8,3.8c-1.3-.1-2.7,0-4,0-9.7,0-10.4-.9-9.9-10.7C648,867.1,649.9,865.5,653.9,866.3Z" transform="translate(89.9 107.8)" style="fill: #f7f5f5"/>
    <path d="M615.6,887.8c16,0,31.9-.2,47.9.1,6,.1,9.5-1.8,12-7.3,4.1-8.9,8.9-17.5,13.4-26.2a8.5,8.5,0,0,1,3.3-3.7l-3.8,14.8c-2.3,8.9-4.6,17.7-6.8,26.6-.6,2.5-1.4,4.3-4.6,3.9l-61.4-7.2Z" transform="translate(89.9 107.8)" style="fill: #f7f5f5"/>
    <path d="M553.9,806.4c0,5-.1,9.7,0,14.3.1,2.6-1.2,3.5-3.6,3.4-4-.1-8-.1-12,0s-3.4-1.2-3.4-3.6q.1-19.2,0-38.4c0-2.3.5-3.9,3.2-4s3.7,1.5,3.7,4.1q-.1,15.4,0,30.9c0,2-.7,4.8,2.8,4.6s2.5-2.6,2.3-4.5C546.4,808.6,548.7,806.5,553.9,806.4Z" transform="translate(89.9 107.8)" style="fill: #f7f5f5"/>
    <path d="M615.3,791.8l-.3-2.4c-.2-1.9.2-4.6-2.8-4.3s-2.1,2.9-2.1,4.8q-.1,15,0,30c0,2.4-.2,4.4-3.2,4.5s-3.4-1.8-3.4-4.3c0-12.5.1-25,0-37.5,0-3.5,1.4-4.8,4.8-4.5,1.5.1,3,0,4.5,0,7.8.1,8.8,1.1,8.8,9.1C621.5,792.9,621.2,793.1,615.3,791.8Z" transform="translate(89.9 107.8)" style="fill: #f7f5f5"/>
    <path d="M551.2,863.9c0,2.1-.1,4,0,5.7s-1.1,5.2,2.7,5.3,2.9-2.9,3-5.1c0-8.8,0-17.6,0-26.4v-6.7c2.1-1.3,3.8-1.3,6.3-.1,0,3.1,0,6.5,0,9.9,0,10.1,0,20.3.1,30.4.1,3.6-1.2,5.4-4.9,4.9h-1.5c-11.8,0-12.4-.7-12.1-12.4C544.9,865.4,546.6,863.6,551.2,863.9Z" transform="translate(89.9 107.8)" style="fill: #f7f5f5"/>
    <path d="M600.5,688.2H599c-7.7,0-10.6-3.4-7.8-10.8,1.9-4.9,7.2-2.6,11-2.8s6.2-1,6.8,3.1,0,5.3-.1,7.9-1.2,2.6-3,2.6Z" transform="translate(89.9 107.8)" style="fill: #f7f5f5"/>
    <path d="M132,32.9l-4.8.2-.4-5.8c8.9-11.6,15.5-24.7,23.5-36.9,3.2-4.9,6.4-9.7,9.2-14.8s8.9-10.6,15.3-13.8a4.6,4.6,0,0,1,2.2,3.7c1.5,9.6,3.8,19.1,4.5,28.8.1,2.4,1.4,4.8.1,7.2s-2.6,1.9-4.2,2.4c-4.6,1.3-9.2,3.2-13.9,3.9C154.7,9.1,149,14.5,143.8,21A78.8,78.8,0,0,1,132,32.9Z" transform="translate(89.9 107.8)" style="fill: #827f82"/>
    <path d="M328.8,808.2,345,820.2c-.1,1.5-1.3,1.7-2.4,2.1-22.2,7.1-43.5,16.8-65.6,24.2-3.6,1.2-6.9,3.4-11,2.6l-3-1.1c-5.4-2.6-8.8-7.5-13.1-11.3-12.5-11-24.7-22.3-37-33.5q-21.6-19.6-43.1-39.4c-13.3-12.3-27.1-24.2-40-36.8-4.1-4-8.6-7.3-12.7-11.2-.3-.1-.6-.3-.6.3s.5-.6.7-.2c6.2,8.2,11.5,17.1,17.3,25.7q29,42.8,57.7,85.9c4.1,6.2,9,12,12.3,18.8.9,2,2.6,4.3-.8,5.9-8.3,1-16.7.1-25.1,1.4a5.8,5.8,0,0,1-4.6-1.4l-.9-.4c-21.4-40-43.5-79.7-65.7-119.2-10.8-19.3-20.9-39-32.1-58.1-6.1-10.5-7.2-21.7-5.6-33.7s1.6-26.5,1.5-39.8c1.5-.4,2,.9,2.7,1.7,24.6,26.8,49.4,53.6,73.8,80.6,10.1,11.2,23.2,18.3,35.2,26.8,2.8,2,5.9,3.8,8.8,5.6,1.5-.3,2.6.5,3.7,1.3,34.1,23.7,68.7,46.5,103,69.9,8.5,5.8,17.2,11.5,25.8,17.2C325.9,805.1,328,806,328.8,808.2Z" transform="translate(89.9 107.8)" style="fill: #980a10"/>
    <path d="M180.5-5.1l-5.7-33,.4-.9c2-.1,3.3-1.5,4.8-2.6,13.2-9.3,26.5-18.5,39.6-27.9,8-5.8,17.5-7,26.5-9.8,10.8-3.3,21.7-6.2,32.6-9.4a26.2,26.2,0,0,1,10.8-.4l77.7,10a51.3,51.3,0,0,1,23.7,9.9c1.8,1.3,3.5,2.6,5.8,2.5A260.1,260.1,0,0,0,429-46.8c7.8,6.4,16.9,10.9,25.1,16.6,1.4,1,3.5,1.3,4,3.3-2.4,1.8-4.8.9-7.1.1-16.7-5.9-34.1-9.2-50.8-14.8a40.6,40.6,0,0,0-12.8-2c-28.6-.1-57.3,0-85.9,0-9.8,0-18.5,4.2-27.4,7.4-29.3,10.4-58.8,20.6-88,31.2C184.2-4.2,182.2-3.3,180.5-5.1Z" transform="translate(89.9 107.8)" style="fill: #020201"/>
    <path d="M180.5-5.1c2.7.7,4.8-1.1,7.1-1.9L266.4-35c2.8-1,5.7-1.9,8.4-3.1,13.4-5.6,27.3-7.5,41.8-7.1,20.4.6,40.9.5,61.4,0a94.7,94.7,0,0,1,32.7,5.2c14,4.7,28.6,7.3,42.5,12.5,1.5.6,3.3.5,4.9.7,4.7,1.1,8,4.3,11.6,7.1,8.9,6.9,17.8,13.8,25.8,21.7-6.2-.7-11.6-3.8-17.4-5.5-13.1-4-25.4-10.2-38.9-13.3-1.7.6-3.3,0-4.8-.6-19.2-7.6-38.8-14-58-21.6a36.7,36.7,0,0,0-24-1.6c-15,4.3-30.2,8.3-45.4,11.8s-27.7,8.3-42.2,9.8a125.6,125.6,0,0,0-20.8,5.4L184.9,1.6l-2.9.5c-.4.2-.7.1-.8-.4Z" transform="translate(89.9 107.8)" style="fill: #4f0e14"/>
    <path d="M174,852.1l31-1.4a1.6,1.6,0,0,1,2.1.5,6.8,6.8,0,0,1-.5,2.4c-5.3,8.3-11.3,15.9-19.6,21.4C180.9,868.3,177.5,860.2,174,852.1Z" transform="translate(89.9 107.8)" style="fill: #d8717f"/>
    <path d="M264.9-18.8c1-.7,1.7-1.9,3.2-2.1,15.3-2.8,30.2-7.3,45.3-10.9s27.5-7.7,41.4-10.7c9.3-2,18.2.6,27.1,4.2,18,7.3,36.4,13.6,54.6,20.4l2.7,1.2c-.9,4.3-3.3,8-5.5,11.7s-2.5,6.8,2.2,10c15,10.2,30,20.4,45.1,30.3,3.9,2.5,5.4,4.5,1.5,8.3s-5.3,6.3-8.5,10.1c-4.9-4.9-9.7-9.2-13.9-14s-6.7-4.1-11.2-3.1c-16,3.6-32.1,6.9-48.1,10.3a21.9,21.9,0,0,1-4,.1c2.3-8-1.9-13.9-6-20A89.6,89.6,0,0,1,378.6,2.4a56.1,56.1,0,0,0-3.8-8.7c-.7-1.4-1-3,.6-4a3.2,3.2,0,0,1,4.1.5c3.3,3.2,6.4,6.4,5.3,11.6a14.5,14.5,0,0,0-.2,1.5c-.3,2.5.3,4.7,3,5.6A3.4,3.4,0,0,0,391.9,7c1.3-2.4.7-4.5-1.2-6.3S386.8-2.5,386-5c-.9-6.3-3.2-12.2-4.9-18.2s-2.8-6.3-9-5.5l-2.5.2a36.3,36.3,0,0,1-6.5-.2,37.9,37.9,0,0,0-10.9-.7c-4.7.2-5.4,1.3-4.6,6a18,18,0,0,0,.6,2.4c6.5,19.8,10.7,40.2,15.7,60.4,1.4,5.7,1.9,6.2,7.7,6.3h16c2,0,4-.2,5.6,1.4-8,3.6-16.2,4.6-25,4.2-17.1-.8-34.2-.9-51.3-1.3-5-.1-9.9-.4-14.9-.9s-8-4.5-12-6.9c-7.1-4.3-14.3-8.4-21.1-13.9,3.9-6,11.5-7.2,16.1-12.7Z" transform="translate(89.9 107.8)" style="fill: #980a10"/>
    <path d="M157.1,211.9c.8-12.6-2.7-23.9-9.7-34.3-1.6-2.3-3-4.5-6.4-3.1-1.8.7-2.8-.6-3.8-1.7-4.1-4.6-8.3-9-12.1-13.8-2.1-2.6-1.7-5.5.5-8.2,6.5-8,12.9-16.1,19.3-24.1.9-1.1,2.4-2,1.8-3.8h.1c.6-.1.8-.5,1.1-1,2.9-3,6.5-4.8,10-6.9,13.5-7.4,27.4-14,41.1-20.9a39.9,39.9,0,0,1,4-1.9c3.7-1.4,5.4-.3,5.3,3.7s-.2,5.6,1.6,8.1a29.3,29.3,0,0,1-.2,12.5c-1.1,1.9-3,1.8-4.8,2-3.3.3-4.6,2.1-4.6,5.3,0,5.5.2,11-.1,16.5s-1.7,5.4-5.4,2.5-4.3-1.2-5.6,1.2c-5.3,9.6-10.7,19.2-15.1,29.3-1.4,3.2-.8,6.5.7,9.7l6.5,13a25.3,25.3,0,0,1,2,5.1c.5,1.9.3,3.7-1.7,4.7s-3.5.3-4.8-1.4-.8-2.2-2.4-2.8c-2.5,2.3-2.7,5.9-4.5,8.6s-1.8,5.1-5.2,5.3c-2.1-3.2-1.2-7.3-2.8-10.8C160.1,206.8,163.3,212.3,157.1,211.9Z" transform="translate(89.9 107.8)" style="fill: #020201"/>
    <path d="M208.7,103.2c-2.9-1.5-1.4-4.1-1.5-6.2s1-3.3-1.3-4.9l-13.4,6.7-28.9,14.5c-1.8.9-3.4,2.1-5.6,1.7,6.1-5.8,13.5-9.7,20.4-14.3,18.9-12.7,38-25.2,56.9-37.9a22.2,22.2,0,0,1,13.1-3.9c36.1.1,72.3-.2,108.4.3,19.9.3,39.5-2.2,59-5.4l33.9-5.6c3.5-.6,6.4.5,9.3,2.5l52.1,36.1c2.2,1.5,4.5,2.8,6.8,4.2l3.8,13.9a5.7,5.7,0,0,1-.2,4.4c-4.3,7.6-7.5,15.8-12.4,23-2-1.2-2.3-3.2-2.4-5.2-.9-11.1-2.4-22.2-3.2-33.3a11.2,11.2,0,0,0-6-9.7c-12.3-6.7-24.3-13.8-36.4-20.9-6.2-3.6-12.7-1.7-19.1-1.3-17.4,1.1-34.8,2.6-52.2,3.7-7,.4-13.9,1.5-20.9.5a13.2,13.2,0,0,0-3.9-.6c-16,.8-31.9-1.3-47.9-1-9.1.2-17.7,3.2-26.3,5.5-21.1,5.5-42.3,10.5-63.4,16.2-3.9.6-7.8,1.7-11.6,2.5s-5.2,3-5.4,6.7S211.3,101,208.7,103.2Z" transform="translate(89.9 107.8)" style="fill: #4f0e14"/>
    <path d="M386.8-4.8a8.6,8.6,0,0,0,4.1,4.2c3.6,1.9,4.1,4.6,2.5,7.9s-3.5,4.1-6.5,2.8-4.4-4.2-3.4-7.8-1.8-10.7-6.2-12.6a5.2,5.2,0,0,0-1.7-.2,2.3,2.3,0,0,0-.4,2.6c6.2,13.9,11.3,28.4,20.8,40.6,3.7,4.7,4,9.2.9,14.2l-2.8-.3c-2.8-1.7-1.6-4.4-1.4-5.7.2,1.4-1.2,2-3.1,1.3s-4.8.1-7.2.8c-4.7,1.5-9.5.5-13.9-1.1s-4.3-5.3-2.6-11.9c6,2.4,11.4-7.6,17.9.2.9-2.7-.5-4-1.8-5-7-5.6-12.7-12.7-20-17.9-5.7-4-10-17.7-7.7-24.3.1-.3.1-.8.4-.9,4.8-2.7,5.8-7.9,8.3-12.2H370c.6,9.1,7.5,14.1,13.2,19.9A30.7,30.7,0,0,1,386.8-4.8Z" transform="translate(89.9 107.8)" style="fill: #f7f5f5"/>
    <path d="M362.8-30c-.3,5.1-1.1,9.7-6.8,11.9-1.8.7-.9,11.3-.1,13.8,4.6,13.3,17.4,18.7,26.3,27.8,2.9,3,5.3,5.5,1.7,10.3-1.4-3.2-3-5.8-6.7-5.5s-3,1.8-3.7,3.5c-.8-.5-.9-1.9-2.9-1.6s.3,2.9-1.1,3.8-1.4-2.6-3.5-3.2c0,1.8-.1,3.4,0,5s.4,3.3.7,5.6c2.6-2.1,5.4,4.9,7.9-1,2.4,2.8,5,3.7,8.3,1.3s5.6-3.5,7.6.8c2.5-1.4.7-3.5,2.3-5.4.6,3.5-.5,6.9,1.2,9.7l-.8.3c-8,0-16,0-24,.2-3.9.1-5.4-1.5-6.4-5.3-4.9-20.3-9.4-40.8-15.5-60.8-3.6-11.8-3.9-12,8.7-12.1C358.3-31.1,360.7-31.4,362.8-30Z" transform="translate(89.9 107.8)" style="fill: #054050"/>
    <path d="M147.9,121.9a.9.9,0,0,1-1.1,1Z" transform="translate(89.9 107.8)" style="fill: #52032f"/>
    <path d="M207.1,851.2l-2.1-.5c-1.6-5.9-5.6-10.5-8.9-15.5l-62.3-92.6c-6.1-9.1-12.6-17.9-17.8-27.6h0c4.4.5,6.9,3.9,9.8,6.5,14.7,13.2,29,26.9,43.5,40.2,24.7,22.6,49.7,45,74.3,67.7,6.6,6.1,13.9,11.4,19.4,18.6a3.1,3.1,0,0,1-2.2,3l-19.1,7.2c-3.9-8.4-10.8-8.9-18.8-7.7C217.7,851.2,212.4,851,207.1,851.2Z" transform="translate(89.9 107.8)" style="fill: #c84c17"/>
    <path d="M266,849.1c26.6-9,52.3-20.4,79-28.9,19.2,11,36.8,24.3,55.2,36.5,4.8,3.2,10,5.9,13.9,10.3-5.7,2-11.6,1.2-17.3.7s-8.9-.7-13.4-.7H323c-12.3-.1-24.5-1.5-36.9-1-5.1.2-7-4.7-10.4-7.1S269.2,852.4,266,849.1Z" transform="translate(89.9 107.8)" style="fill: #ec1d25"/>
    <path d="M435.2,868.2c-.5,2.1-1,4.2-1.5,6.2s-1.9,3.8-4.6,3.4h0a3,3,0,0,1-1-1.3c-2.4-3.3-7-4-9-7.8C424.3,867,429.8,868.3,435.2,868.2Z" transform="translate(89.9 107.8)" style="fill: #f6b85d"/>
    <path d="M428,876.7l1,1.3Z" transform="translate(89.9 107.8)" style="fill: #c84c17"/>
    <path d="M369.1,64.8c14.3.6,28.5-1.5,42.8-2.4s27.8-2.1,41.8-3.1c2.9-.2,5.5.9,8,2.3,12.4,7.1,24.7,14.3,37.2,21.3,4.3,2.4,5.8,6,6.2,10.6,1.2,12.9,2.7,25.8,4.1,38.7-.7,5.7,1.7,11.2.8,16.9-5.7,4.2-10.6,1-15.5-1.7a10.4,10.4,0,0,1-4.1-4.2,18.9,18.9,0,0,1-.2-10.1,7.2,7.2,0,0,0-1.5-6.8c-2.3-3.2-5.7-4.8-9-6.7-1.5-1.4-3.6-1.2-5.3-2.2-6.6-5.2-13.6-6-21.5-3s-16,4.5-24.1,6.2c-2.1.4-4.2,1.1-6.2-.6a7.3,7.3,0,0,1-.3-6.4c1.1-1.8,3.1-1.7,4.9-2a181.8,181.8,0,0,0,19.5-4c1.7-.5,3.7-.4,4.7-2.2s-1.4-2.3-2.6-2.8C439.9,99,433,91.8,423.5,89.7c-.5-.1-.8-.6-1.1-1-1.1-3.4-3.5-4.3-6.9-4.3H384.1a15.3,15.3,0,0,1-10.5-3.8c-4.2-3.6-8-7.5-11.8-11.5a5.4,5.4,0,0,1-1.9-4.2C363,64.1,366,64.5,369.1,64.8Z" transform="translate(89.9 107.8)" style="fill: #fcfc65"/>
    <path d="M507.9,431c-2.3-1.5-5.1-1.9-7-4.1s-.5-3.5,0-5.2c1.1-3.5,2.1-7,3.5-10.4s.8-5.4-2.8-6.4a10.1,10.1,0,0,1-1.8-6.1c-.1-2.4-.5-4.6-2.3-6.4A6,6,0,0,1,496,387c.8-4.6-1.2-8-4.5-11s-6.4-3.3-10.1,0-5,4.9-8.7,5.4c-10.2.2-20.5.9-30.6-.4-2.5-2.1-.4-2.6,1.2-3,3.1-.7,6.3-.3,9.4-.3s4.9-1,5.2-4.5c-5-1.3-4.2-4.8-2.8-8.4s4.8-3.2,7.8-2.1,7,4.3,9.3,9.2c1.1-8-.5-15.2,1.1-22.2,2.1-2.4,4-.7,5.7.5,3.7,2.5,7.2,5.4,10.8,8,1.6,1.1,3.3,2.7,5.4,1.5s2.1-3.2,2-5.3-.2-2.7,1-3.7c3.1-.8,6.1-1.4,8-4.9s4.5-1.4,6.7-.2a5.3,5.3,0,0,1,2.6,7.2c-2.6,6.5-4,13.3-6.1,20-.8,2.7-1.8,5.3-1.3,8.3,3.6-10.9,8.2-21.4,11.1-32.4.5-1.7.4-3.7,1.9-5a15,15,0,0,1,9.9-.4c2.4,5.6-.2,11.1-.7,16.6-1.7,18.6-9,35.7-14.9,53.1C513.3,419,512.7,425.9,507.9,431Z" transform="translate(89.9 107.8)" style="fill: #980a10"/>
    <path d="M531.1,343.1c-3.2,1.7-6.6.7-9.9.7-8.1-4.2-15.1-10.1-22.6-15.2q-23.7-16.1-47-32.7c-2.3-1.6-5.1-1.3-7.4-2.6-2.4-5.2-.9-8,4.5-8.6a18.8,18.8,0,0,1,13.3,3.1c14.5,9.8,29.1,19.5,43.2,29.8a64.6,64.6,0,0,0,6.2,4.2c5,2.8,7.1,1.7,7.2-4,.1-12.8,0-25.7.1-38.5,0-2.3-.4-4.7,1.3-6.7s2.7-.9,4.2-1.1,4.8-.3,6.9,1.2c3.4,4.1,3.9,8.9,4,14,.4,17.1-2.5,34-3.5,51Z" transform="translate(89.9 107.8)" style="fill: #91cfe3"/>
    <path d="M515.4,177.7c3.5,3.5,4,8.1,4.2,12.7s-3.9,4.2-7,3a11.4,11.4,0,0,1-5.6-4.1c-1.9-7.3-7.9-5.8-12.9-5.9,1.9.6,1.9.6,4.1,2.6-1.2,2.8-3.8,2.6-5.9,2.1-11.9-3-22.6,2.1-33.7,4.8a5.4,5.4,0,0,0-2.6,1.5c-5.8,6-13.2,6.5-20.9,5.9-5.9-.4-8.5-2.6-10.3-8.4.1-3.2,2.5-4.5,4.9-5.8,5.5-2.9,10.8-6.2,16.4-8.9l-4.7,1.7c-1.8.6-4,1.9-5.1-.8s1.1-3.2,2.7-4.1,4.5-2.1,6.3-3.9l1.1-1,1.8-1.3a13.8,13.8,0,0,1,8.7-2.1c5.8,1.2,11.2,3.8,16.9,5.1.6-1.6-.5-2.1-1.1-2.8s-2.8-2.9-2-5.2,3.2-3.1,5.6-3.2c3.9-.2,7.9.3,11.8-.5s7.3,1.5,10.1,4.2c4.4,4.2,8.7,8.5,12.9,13C512.6,177.6,513.5,179.1,515.4,177.7Z" transform="translate(89.9 107.8)" style="fill: #020201"/>
    <path d="M515.4,177.7c-.9,1,1.7,2.4-.4,3.3s-2.1-.6-2.8-1.4l-12.7-13.8a16.1,16.1,0,0,0-10.6-5.7c-5.5-4.7-10.8-3.5-16.8-.4a93.6,93.6,0,0,1-15.3,6.8,17.6,17.6,0,0,0-8.5,3c-.6-.2-1,.2-1.4.6h.1c-7.3,4.9-14.8,6.1-22.5,1.1-4.1-2.1-5.7-5.3-4.1-9.8a6.1,6.1,0,0,1,2.5-2.2c15.2-5.8,30.7-10.4,46.1-15.6,4.3-1.5,8.3-4.3,13.2-3.8s6.5.5,8.9,3.3c5.3,5.1,11.3,8.2,18.9,6.1,1,2.4,1.1,5.2,4.3,6.3,1.5.5,1,2.3.9,3.6-.4,4.9.8,9.9-1,14.8C513.4,175.2,514.3,176.6,515.4,177.7Z" transform="translate(89.9 107.8)" style="fill: #f7f5f5"/>
    <path d="M531,272.7l-7.1.2c-4.6-1.9-5.7-3.8-5.1-9.9.9-8.8-2.1-15.9-8.3-22.1-2.8-2.7-5.6-4.6-9.7-3.9-1.6.3-3.4.2-4.5-1.4s-.8-5.5-.8-8.3-.1-3.9,0-5.9a15.2,15.2,0,0,1,.5-4.9,3.4,3.4,0,0,1,1.5-1.8c3.7-.1,5.1,3.1,7.3,5.1a46.7,46.7,0,0,1,5.1,5.3c1.8,2.4,4.5,2.5,7.2,2.6s5.3-.6,7.6,1.3q3,20.1,5.9,40.3A33.1,33.1,0,0,1,531,272.7Z" transform="translate(89.9 107.8)" style="fill: #fdc908"/>
    <path d="M524.9,229H514.7c-2.9,0-5.1-.9-5.9-3.9s.7-3.5,1.8-4.9c2.6-3,1.9-5.6-.8-8.2-4.7-4.6-9.5-9.1-13.9-14.1-1.3-1.5-3.4-2.9-2-5.5,4.3-2.5,9.4-2.1,14-3.6.4,1.5,2.2.5,2.8,1.5,2.9,5.1,5.9,2.8,8.9.1,2.4,3.7,2.1,7.9,2.5,12C523,211.2,525.5,219.9,524.9,229Z" transform="translate(89.9 107.8)" style="fill: #75cae4"/>
    <path d="M467.9,497.9c2.9.4,3.8,4.9,7.8,3.5a35.8,35.8,0,0,0-3.4-10c-.7-1.4-2.1-3.1.3-4.1s3.2.6,3.9,2.1,1.2,5,4.7,4.6c1.8,10.3-6,17.3-16.1,14-1.4,3.9-.5,8.8-4.9,11.1,1.1,2.2,3.7,2.2,4.7,3.9,3.4,8.8,3.1,18.2,4.9,27.3a88.2,88.2,0,0,0,2.3,10.4c5.7,28.2,8.7,56.9,13.1,85.3a22.2,22.2,0,0,1-.8,9.4q-15.6,56.8-30.9,113.7c-1.2,4.3-3.7,7-8.1,7.9-10.3,2-20.6,3.8-30.9,6.1a9.3,9.3,0,0,1-5.9-.4c-1.8-1.7-.1-2.4,1-2.8,6.9-2.3,10-8,12.3-14.2,6-16.1,13-31.7,19.3-47.7a21.6,21.6,0,0,0,2.9-6.2c5.2-13.3,10.7-26.5,16.5-39.6a33.7,33.7,0,0,0,2.8-18.5c-1.2-8.6-1.1-17.3-1.5-25.9-.8-17.1-1.8-34.2-2.4-51.3-.5-12.4-1.3-24.9-2-37.3-.1-1.9-.2-4-2.1-5.1a1.9,1.9,0,0,0-1.7,1.1c-3.8,5.6-3.8,5.6-9.2,2-1.5-1-2.8-.5-4.2,0s-5.3,2.8-7.8,4.5c-5.7,6-12.8,7.1-20.6,6.6-4.9-.3-9.5,1.4-13.9,3.6s-10,4.5-15,6.9a9.5,9.5,0,0,1-4.8,1.1c-4.5-.3-6.1-3.3-3.9-7.2.6-1.1,1.8-2,1.8-3.5-2.1-1.6-3.8-.1-5.4.9q-6.5,3.7-12.9,7.7a11.9,11.9,0,0,1-11.4,1.2c-11.6-4.3-23-8.8-34.7-12.9-1.9-.7-3.9-2-6.2-1-.5,2,1.2,3,1.8,4.5s.9,3.6-.6,5.1-3.7,1.5-5.5.3a34.3,34.3,0,0,1-7.6-7.2c-5.9-7.2-13-13.4-18.8-20.7-2-2.6-4.8-4.7-5.2-8.3,3.6-4.4,6.7-5.6,12.5-4.7-.5-2.4-2.5-3-4.4-3.5a140.7,140.7,0,0,1-16.4-5.9,29.1,29.1,0,0,0-12.1-2.5,7.7,7.7,0,0,1-7.5-4c-2.7-4.6-6.1-8.7-9.2-13a20.8,20.8,0,0,1-1.4-2c-1.4-2.5-2.5-5.5.1-7.2s4.6,1.1,6.1,3.2,2.9,6,6.1,9.3c-1.4-6.5-3.7-11.6-5.6-16.8s-4-12-6.4-17.8c-1-2.5-2.9-5.3.4-7.5s8.9-.5,10.4,2.9,3.7,6.7,5.5,10c.9,5.7,4.1,10.5,6.1,15.7,1.3,3.4,5.6,4.5,10.4,3.5s3.1-3.8,3.2-6.3c.3-6.3-.5-12.6.5-18.9a3,3,0,0,1,2.4-2.2c3.6-.4,5.2-2.8,6.1-5.9,2.5-1.9,4.8-.2,7,.8,5.1,2.3,10,5.4,14.9,8,2.7,1.5,5,2.3,7.7.1a4.2,4.2,0,0,1,5.1-.3c2,2,1.6,4.2.6,6.5s-.6,5.7,1.8,8.1l17.6,17.6c2.6,2.6,4.7,2.6,6.9-.5,1.1-1.6,2.3-3.6,4.8-2.6s2.3,3.1,2.3,5.1c.1,6,0,12,.1,18,.8,8,1,16,1.3,24.4,4.2-.9,4.5-3.9,5.8-6a30.4,30.4,0,0,0,2.1-5.1c1.1-3,2.8-5.4,6.4-5.2a7.1,7.1,0,0,1,7.1,6c1,4.8,3.3,9.1,4.3,13.8.3,1.5.8,2.9,2.7,3.7,3.1-2.3,4.3-6,6.3-9.1.8-1.3,1.1-2.8,2.1-4,2.5-2.9,5.4-2.3,6.7,1.3.4,1.2.2,2.7,1.5,3.6,2.8.2,3.3-3.8,6.3-3.4s1.3,2.8,1.1,4.5a23.9,23.9,0,0,0-.5,4c.1,2-1,4.9,1.8,5.6s3.6-1.8,4.5-3.8,1.4-3.8,3.7-4.4c3.7,1.1,1.8,5.5,4.6,7.4,2.9-.6,4.8-2.8,6.8-4.6s4.8-4.1,7.3-6.1,5.1-2.5,7.3.6,4.4,2,6.8.2a84.7,84.7,0,0,0,15.1-15.2c1.9-1.4,2.2-3.5,2.5-5.7.9-5.3,1.2-10.7,2.8-15.5C466.1,492.5,464,498.5,467.9,497.9Z" transform="translate(89.9 107.8)" style="fill: #020201"/>
    <path d="M407.7,781.8c9.1.6,17.6-3.2,26.5-4.2h.5c12.8.3,17.4-6.9,20.3-18.7,8.2-33.4,17.5-66.5,27-99.6,2.7-9.6.8-18.5-.5-27.6-3.4-23-6.1-46.1-10.5-69a1.6,1.6,0,0,1,1-2c4,8.6,5.3,18,7.7,27.1,7.1,26.6,13.7,53.4,20.7,80a23.8,23.8,0,0,1-.6,14.6q-15.3,43.4-30.3,86.9c-.4,1.1-.6,2.2-.9,3.4-9.5,3.9-19.5,5.8-29.4,8.3-4.2,1.1-9,.8-12.4,4.2-4.4-.2-8.3,1.8-12.3,3-5.9-.5-11.4,1.5-17,2.6-20.9,4-41.4,10.1-62.1,15.1a68.9,68.9,0,0,0-6.5,2.3c-22.6-15.1-45.3-30.2-67.9-45.5s-44.3-30-66.4-45.1l-2.7-2.1,13.7-13.6c16.1,9.6,32.2,19.1,48.3,28.8l95.4,57.8c4.7,2.8,9.4,5,15,3.3,9.4-1.6,18.6-4.2,27.8-6.4C397.2,784.1,402.3,782.2,407.7,781.8Z" transform="translate(89.9 107.8)" style="fill: #f7f5f5"/>
    <path d="M464.8,523.1c-3.3.3-5.2-2.2-8.9-3.7,4.5-1.7,7.7-3.2,7.2-7.9-.2-1.9-1.4-4.5,1.6-5.5s3.5,1.7,4.7,3.4c8.2-2.1,10.8-8.1,11.8-15.4H481c.6-.6.4-1.5.9-2.1,1.6-4,4-7.8,4.2-12.3.1-2.1,1.7-3,3.4-3.5s1.2,2.6,1.6,3.9c-4.4,13.6-8.2,27.6-21.4,36.1C467.3,517.8,464.8,519.6,464.8,523.1Z" transform="translate(89.9 107.8)" style="fill: #7e6c80"/>
    <path d="M467.9,497.9c.1.8.4,1.7-.7,2s-1.3-.6-1.6-1.4-.9-3.8-3.1-5.6c-.9,6-1.8,11.5-2.5,17.1-.3,2.1-.4,4-2.7,4.7-2.8-3.5-.7-7.7-1.5-11.4h-.5l-.5.2c-5.8-.3-5.8-.3-8.8-11-2.5.4-3.9,2.4-5.4,4.1a24.7,24.7,0,0,1-5,4.8c-1.8,1.1-3.7,1.9-5.3-.3s-3.9-1.8-6-.3l-10,6.6c-3.1,2-5.8,1.6-7.8-1.4s-6-7.2-6.7-12.1-.7-11.3.4-16.9c.8-1.9,2.4-2,4.2-1.9a28.5,28.5,0,0,1,3.9.8c14.6,3.4,9.9,4.4,22.4-4.7,6.6-4.8,13.1-9.7,19.3-15,4.7-2.9,8.6-6.9,13.5-9.5s8.5-2.5,11.7.4c.8,8.8,1.6,17.5-1.2,26.1-3.2.6-4.6,2.6-5,5.9s-1.5,9.1-2.4,13.7C466,494.8,465.7,496.7,467.9,497.9Z" transform="translate(89.9 107.8)" style="fill: #91cfe3"/>
    <path d="M473.8,473.2V446a44.1,44.1,0,0,0-9.4-23.1,2.8,2.8,0,0,1-.2-1.9c3.5-6.2,6.5-12.6,9.4-19.2s9.9-8.4,19.1-6.4c1.8,3.6,1.8,3.6-.6,13.2,1.7-5.8,5.7-4.9,9.7-3.8,1.8-.1,3.6-.5,5.8.6l-6.7,21.6c-1.8,1.6-.9,4.9-3.6,6-1.6-.8-.8-2.1-.8-3.1s.8-2.8-1-3.4-2.9.5-3.5,2q-7.9,19.5-15.8,39.1c-1.2,3.1,1,5.6,1.9,8.6A10.3,10.3,0,0,1,473.8,473.2Z" transform="translate(89.9 107.8)" style="fill: #f7f5f5"/>
    <path d="M482,492c.1.9.3,1.8-.9,2.1A2,2,0,0,1,482,492Z" transform="translate(89.9 107.8)" style="fill: #020201"/>
    <path d="M152.9,350.9c-2.3.9-3.1,3.9-5.9,4-2.2-10.8-2.1-21.8-2-32.8-.2-3.1.7-6.1,4.2-6s5.6-2.2,5-6.1a2.6,2.6,0,0,1,.4-1.4c5-3.8,10-3.9,14.9-.3,1.7,1.2,3.1,3,5.3,3.5.6.3-.1-.2.5.2,9.6,5.6,9.6,5.6,2.4,13.7-2,2.2-3.6,4.7-5.8,6.7-5.6,5.6-11.5,10.8-16.5,17A3.3,3.3,0,0,1,152.9,350.9Z" transform="translate(89.9 107.8)" style="fill: #980a10"/>
    <path d="M155.2,309.1c.2,1.3.4,2.6.6,3.8.6,2.9-1.1,5.2-3.5,4.5-4.8-1.3-5.9,1.6-7.3,4.7-4.6-.3-7.3-3-9-6.9,3.7-2.9,8.4-3.1,12.5-4.9,1.6-.7,3.6-.6,4.5-2.4h-.1l.9-.6,1-.2C155.6,307.7,155.5,308.4,155.2,309.1Z" transform="translate(89.9 107.8)" style="fill: #f58c91"/>
    <path d="M181.1,1.8l.8.4,7,43.5c.6,3.4-.3,6.1-3.4,8.1-5,3.2-10,6.6-15,9.8-2,1.3-4.1,2.3-6.3.2L132,32.9c2.9-6.4,9.4-9.7,13.2-15.4,7.2-10.9,19.7-10.6,30.2-14.4A54.4,54.4,0,0,1,181.1,1.8Z" transform="translate(89.9 107.8)" style="fill: #edb7bf"/>
    <path d="M239.8,669.8c.2-2.4-1-4.1-2.3-5.9l-52.2-68a12.4,12.4,0,0,1-2.3-7.9q0-44.2,0-88.4a21.6,21.6,0,0,1,1-6.4,9.6,9.6,0,0,0,3.3-10.2,10,10,0,0,1,.2-4.9c1.8-6.6,6.5-8,11.4-3.3s9.7,11,14.3,16.6c14.9,18.1,31.5,34.8,46.3,53,6,7.3,13.3,13.6,18.5,21.6,2.1,3.2,5.2,3.8,8.7,3.8,15,0,30,.2,45-.1,6.3-.1,10.5,2,14.2,7.3,7.2,10.4,15.6,20,22.6,30.5,1.3,2,3.9,4.3.2,6.7-2.6.8-5.3.6-7.9.6H274.7c-3.6-.1-5,1.7-5,5.2,0,7.5.1,14.9-.1,22.4a14.6,14.6,0,0,1-.3,3c-1.1,3.7-4.9,4.8-7.4,7.1-5.9,5.3-11.7,10.8-17.8,15.9C242.8,669.2,241.9,671,239.8,669.8Z" transform="translate(89.9 107.8)" style="fill: #794001"/>
    <path d="M370.4,612.7c-6.8-11.3-16-20.9-23-31.9-5.3-8.3-11.4-10.4-20.6-9.9-13.4.7-26.9.1-40.4.3a10.7,10.7,0,0,1-10-5.2c-7.1-10.3-16.5-18.7-24.4-28.3-16.2-19.6-34.3-37.5-49.8-57.7-1-1.3-2.2-2.5-3.4-3.7s-4.1-4.5-7.2-2.9-3.5,5-3.3,8.3.5,3.6.6,5.4c.3,3.6-1.2,5.8-5,6s-4.9-1.5-5.2-5.4q-2.4-40.4-2-80.9c-3.9-12-5.6-24.6-8.7-36.9-.9-3.5-1.2-7,3.5-8.5,2.6-.8,1.8-3.3,1.3-5.2a183.9,183.9,0,0,1-3-18.2,9.9,9.9,0,0,1,.8-6.3c3.8-4.4,6.9-9.3,12.5-12.7L175,313c-1.6-.8-2.3-2.3-3-3.8-3.1-6.1-5.5-12.5-8.2-18.7a10,10,0,0,1-.8-6.8,101,101,0,0,0,3.1-14c.3-2.5,1.8-5,4.7-5.1s3.4,2.7,4.1,4.9,1.3,5.2,2.8,7.4c3.1,8.3,4.9,16.9,7.4,25.4,1.3,4.5,2.3,9.1,4.3,13.3,3.5,7.6,2.3,15.7,3.1,23.6a3.4,3.4,0,0,1-1.5,3c-3.7,2.9-3.1,6.5-1.3,9.9a22.2,22.2,0,0,1,2.3,14.5,15,15,0,0,0,2.2,10.5,118.1,118.1,0,0,1,6.6,11.8c1.6,3.5,4.2,4.8,8,4.8h27c7.8-.3,15.6-.2,23.4-.1s11.1,2.8,11.3,11.5c.1,3,0,6-.2,8.9a7.5,7.5,0,0,1-.4,2.5c-3.7,6.8-7.2,13.7-10.4,20.8-1.4,3.2-2.6,6.9-6.5,8.3-2.4-.1-3.8-2-5.3-3.5-5.1-5-10.1-10.2-15.3-15.1s-5.1-3-6.4,2c-.5,1.9-1.1,3.6-3.4,3.7s-2.9-1.4-3.6-3a53.4,53.4,0,0,1-2.5-7.6c-.9-3.2-3.2-4.4-6.1-3.6s-1.9,3.6-1.4,5.8,2.7,6.6-.9,8-4.3-3.1-5.5-5.6a63.9,63.9,0,0,1-5.4-16.1c-.9-5.1-3.1-6.4-8.2-5.6a21.8,21.8,0,0,1-2.2,9.9c-1.3,2.6-.1,5.3,1.6,7.5,9.1,12,16,25.4,24.4,37.7a22.2,22.2,0,0,1,2.3,3.9c.8,2,1,4-1.1,5.3s-3.5.2-4.8-1.3-4.3-6-7.5-8c-.9-.6-1.7-1.6-4.1-1.3,16.8,18.3,35,34.6,49.1,54.6.5-.1.7-.5,1-.9,3.9-7.7,8-8.5,14.1-2.6,2.9,2.9,6.6,5.2,8.1,9.3,9.2,12.3,20.3,22.8,30.5,34.1,1.6,1.8,3.5,3,5.5.9s.8-3.7-.7-5.3-3.5-2.9-1.9-5,3.7-.6,5.5.1c12.6,4.7,25.2,9.3,37.8,14a10.1,10.1,0,0,0,10.3-1.2c4.5-3.1,9.4-5.7,14.1-8.5s4.2-1.8,7.5.4c-.1,1.9-1.8,2.7-2.8,3.9s-2.8,2.8-1.5,4.7,3.7,2.3,5.9,1.4a102.1,102.1,0,0,0,11.4-5.1c8.6-4.8,17.7-7.7,27.6-6.6,5.3.6,8.2-3.6,12.1-5.7.6,1.6-.1,2.9-.9,4.1-3,4.7-5.5,9.7-8.5,14.4-9.9,15.1-20.1,30.2-29.4,45.7-2,3.4-3.8,7.1-7.9,8.7C379.9,613.9,374.9,616.1,370.4,612.7Z" transform="translate(89.9 107.8)" style="fill: #054050"/>
    <path d="M407.7,781.8c-1.9,2.2-4.7,2.2-7.2,2.9L374,791.5a24.7,24.7,0,0,1-9.9.2c.1-1.6-.8-2.2-2-3q-66.4-42.5-132.6-85.1c-4.9-3.2-10.2-6.4-12.6-12.3,3.3-3.7,8.4-5.5,10.5-10.5h1.6c6.6,4.5,12,10.5,17.8,15.8,7.7,7.1,14.9,14.8,22.3,22.2,5.4,5.4,11.4,8.9,19.5,8,5.1-.6,10.3.1,15.5-.2,7.8-.5,14.8,1.9,21.3,5.8s13,7.4,19.5,11.3,8.5,3.3,13.7-1.7l2.1-2.1c3.7-3.8,3.6-4.6-.9-7.4q-22.6-14.3-45.3-28.4l-2.5-1.6c-6.1-4-6.4-5.6-1.1-10.7s8.7-10.1,14.6-13.5a3.4,3.4,0,0,1,1.6.3c8.3,6.5,18,10.8,27,16.1,2.7,1.6,5.7,1.7,8.7,1.7h30.5c7.3.1,9.1,2,9.2,9.3.3,10.7.3,10.7,10.8,10.7h23c2.1,0,4.4-.3,6.2,1.3-4.1,12.8-10.3,24.8-14.9,37.4-1.4,3.9-3.2,7.7-4.5,11.6C420.5,774.5,416.2,780.2,407.7,781.8Z" transform="translate(89.9 107.8)" style="fill: #fcfc65"/>
    <path d="M325.2,679.2l-18.1,18.6,59.4,37.5a53.9,53.9,0,0,1-10.7,10.9c-3.4,2.6-6.6,1.5-9.8-.3-6.9-3.9-13.8-7.9-20.7-12s-13.4-6.4-21.2-6c-6,.3-12-.3-18,.2s-10.8-1.7-14.9-5.7c-13.9-13.4-27.7-26.9-41.5-40.4a6.8,6.8,0,0,1-.8-1.2c3.5-3.8,7.8-6.8,10.9-11,7.9-5.7,14.5-12.9,21.9-19.1,1.9-1.6,3.6-3.4,6.3-3.7s3.6,0,5.1.8c16.9,9.8,33.7,19.6,50.4,29.7A3.6,3.6,0,0,1,325.2,679.2Z" transform="translate(89.9 107.8)" style="fill: #f8901e"/>
    <path d="M170.9,331.9c.4,10.5,3.5,20.8,4.3,31-2.1,1.4-3.7-.8-5.6.7s-.6,4.1-.1,6.4c2.5,10.6,4.9,21.3,7.3,31.9a25,25,0,0,1,.1,5c-4.9-7-8.2-14.7-11.9-22.4-2.1-4.4-3.9-8.8-6.4-13s-5.3-10.3-4.7-16.4a6.7,6.7,0,0,0-1.1-4.3C157.8,343.6,164.6,338,170.9,331.9Z" transform="translate(89.9 107.8)" style="fill: #444922"/>
    <path d="M176.8,277.2c-3.6-3.1-1.8-8.7-5.5-12-3,1.1-3.9,3.5-4.2,6.2s.4,2.9-.2,4c-6,11,.6,20.1,4.5,29.5,1.2,2.8,2.4,5.5,3.6,8.2a4.2,4.2,0,0,1-4-1.4c-4.6-5.2-9.9-5.6-15.9-2.5l-.3-1.9c.3-2.8,0-5.2-2.9-6.7s-1.5-4.9-2-7.5c2.9-2.2,3.5-5.3,3.5-8.8-.1-15.2,0-30.5,0-45.7,0-1.8-.3-3.6.5-5.4,2.1-4.7.8-9.7,1.1-14.6.1-2.5-.1-5,2.1-6.7,4.3-.6,2.4-3.9,2.9-6.2s-1.1-4.2,1.9-4.3,2,2.4,2.2,4.2.7,6.3,1,9.4c2.1,4.8,1.9,10,2.3,15.1a237.4,237.4,0,0,0,3.1,27c1.9-1.1,2.1-2.8,2.7-4.2,4.5-10.8,9.1-21.4,14.3-31.9s8.9-21.2,7.3-33.1c-.4-2.7-.4-5.8,2.6-7.6a17.4,17.4,0,0,1,10.1,0c2.2,1.4,1.9,3.7,1.9,5.8.1,5.3,0,10.6.1,15.9,0,2-.2,4.3,2,5.2a6.7,6.7,0,0,0,6.6-.8,17.1,17.1,0,0,0,3-2.7c7.7-8.3,16.6-15.2,24.4-23.4,1.1-1.2,2.3-2.4,4.1-2.6s3,2.8,4,4.6c2.2,4.2,4.1,8.6,6.8,12.5a3.2,3.2,0,0,1-.7,2.8c-12.1,12.4-22.8,25.9-34.4,38.7-6.8,7.4-11,15.4-7.3,25.7-1.9,3.7-.3,8.3-3.3,11.7-4.5,1.6-9.2.7-13.7.9s-9.9.1-14.8,0A13.7,13.7,0,0,0,176.8,277.2Z" transform="translate(89.9 107.8)" style="fill: #444922"/>
    <path d="M153.9,233.2c1.2,1.6,1.1,3.4,1.1,5.2,0,16.5-.1,32.9.1,49.4,0,3.7-1,5.8-5.1,5.3l-1.7-2.9c.4-3.4-1.1-5.3-4.7-5.2-1.2,0-2.3-.2-2.5-1.7,3.1-1.8,3.4-4.2,2.1-7.4a46.1,46.1,0,0,1-3.4-11.3,322.7,322.7,0,0,1,4.2-33.4c1.3-7.5.2-14.1-4.9-19.8-1.5-2.6-4-2.6-6.5-2.6H109.6a16.5,16.5,0,0,1-5.4-.5c-1-.4-1.8-1.2-1.4-2.2,2.4-5.3,4.5-10.9,10-13.9,4.5,2.2,8.5,5.3,12.6,8.1s6,3,8.8-2.2c.9-1.7,1.4-3.7,3.9-5.1,5.5,7,13.8,12.1,12.2,23-.6,4.2-.1,8.6-.2,13C149.9,231.4,150.8,233.1,153.9,233.2Z" transform="translate(89.9 107.8)" style="fill: #a96013"/>
    <path d="M112.8,191.8a66.9,66.9,0,0,0-9.7,15.2,4.5,4.5,0,0,1,.4,2.9c-2.2,12.1-3.5,24.3-5.2,36.4a5.7,5.7,0,0,1-1.2,2.7l-1,2.9c-2.1-1-1-2.9-1.1-4.4-.1-10.1,0-20.3,0-30.4a32.9,32.9,0,0,0-3-14c-1.7-3.6-1.4-6.9,0-10.5,2.5-6.3,4.9-12.7,7-19.1,1.2-3.6,3.1-5,6.9-4.7s8,.1,12,.1c1.8,5.6,2,10.9-1.8,15.9C114.6,186.8,112.9,189,112.8,191.8Z" transform="translate(89.9 107.8)" style="fill: #020201"/>
    <path d="M97.1,249c.7-14.2,2.3-28.2,6-42h32.2c2.8,0,5.1.4,4.7,4-2.3,4.9-6.4,8.4-9.9,12.3s-8.3,8.6-12.2,13.1a23.9,23.9,0,0,0-5.1,11.7c-.7,3.5.8,5.4,4.5,5.6h3c7,.3,9.2,4.5,5.7,11.1-7.4,2-12.9-1-17.9-6.4C104.6,255,102.7,249.8,97.1,249Z" transform="translate(89.9 107.8)" style="fill: #f8901e"/>
    <path d="M125.8,264.8c.1-1.2.3-2.3.3-3.5.1-6.2-.2-6.5-6.3-6.4-8.9.1-9.7-1.1-7.9-9.8,1-4.8,3.6-8.4,6.9-11.8,7.1-7.4,14.1-14.9,21.2-22.4,6.2,5,6.8,11.6,5.6,18.9q-2.9,17.5-4.6,35.2c-4.8,2.5-9.7,2.3-14.6.1h-.4Z" transform="translate(89.9 107.8)" style="fill: #794001"/>
    <path d="M126.4,265.1H141c1.3,5.7,4.2,11,4.9,16.7-1.5,1.8-3.4,1-4.9,1.4A35.2,35.2,0,0,1,126.4,265.1Z" transform="translate(89.9 107.8)" style="fill: #f8901e"/>
    <path d="M104.2,274.8c-1.7-6.4-5.6-12-6.4-18.7,7.1,3,10.8,9.9,17.2,14.5A20.6,20.6,0,0,1,104.2,274.8Z" transform="translate(89.9 107.8)" style="fill: #020201"/>
    <path d="M97.9,256.1c-1.1.2-.8-.6-.8-1.2S98.1,255.5,97.9,256.1Z" transform="translate(89.9 107.8)" style="fill: #020201"/>
    <path d="M153.8,307.3l-.9.6C152.7,307,153.3,307.3,153.8,307.3Z" transform="translate(89.9 107.8)" style="fill: #f7f5f5"/>
    <path d="M414.5,788.3c3.6-3.1,7.4-5.3,12.3-3,3.2,1.6,4.1,3.8,2.4,7.2s-2.8,6.7-5.2,9.8c-1.2-1.1-.8-2.5-.8-3.7s0-3.5-2.1-4-2.9,1.2-3.8,2.6c-4.3,6.7-8.5,13.5-12.9,20.2a11.9,11.9,0,0,0-1.7,10.8,26,26,0,0,1,.9,5.9c.1,1.9.1,3.9,2.1,4.7s4.2-.1,5.8-1.7L429.5,820c1.2-1.1,2-2.7,4-2.7.9,1.8-.5,2.8-1.3,4L416.1,844c-3.3,4.7-13.1,7-18.5,4.5s-7.8-11.2-6.4-16.1l5-18.1c-2.1-.8-2.6,1.5-4.4,1.2a17.2,17.2,0,0,1,7-13.3A160.7,160.7,0,0,0,414.5,788.3Z" transform="translate(89.9 107.8)" style="fill: #980a10"/>
    <path d="M587.2,785.3c3.2-1,4.7-.2,4.8,3.1a119,119,0,0,0,1,11.9c.6,4.4-.9,6.7-5.8,6.5Z" transform="translate(89.9 107.8)" style="fill: #980a10"/>
    <path d="M635.3,801q0,6.7,0,13.4c0,2-.2,3.7-2.9,3.6s-2.5-1.6-2.5-3.4c-.1-8.8-.2-17.5-.3-26.3,0-2,.5-3.6,3.1-3.5s2.7,1.8,2.7,3.8c0,4.1,0,8.3,0,12.4Z" transform="translate(89.9 107.8)" style="fill: #980a10"/>
    <path d="M580,853.5c0,6.5,0,12.6,0,18.7,0,1.7-.4,2.9-2.5,2.9s-2.5-1.2-2.7-2.8c-.3-4.3-.4-8.6-1.1-12.8S574.9,853.1,580,853.5Z" transform="translate(89.9 107.8)" style="fill: #980a10"/>
    <path d="M564,806.6c0-6.3,0-12.3,0-18.3,0-1.8,0-3.4,2.5-3.4s2.5,1.6,2.7,3.4a117.7,117.7,0,0,0,1.1,11.9C571.2,805.1,569.3,807.1,564,806.6Z" transform="translate(89.9 107.8)" style="fill: #980a10"/>
    <path d="M631,863.8c0-6.6,0-12.9,0-19.2,0-1.6.6-2.6,2.3-2.5s2.6.7,2.7,2.3c.5,5.3,1.1,10.6,1.3,15.9C637.5,863.2,636.2,863.8,631,863.8Z" transform="translate(89.9 107.8)" style="fill: #980a10"/>
    <path d="M251,785.9l-21.4.3c-3,.1-4.7-.9-4.6-4.2.1-5.1.1-10.3.1-15.4,0-3,1.4-4.1,4.3-4.1,6,.1,12,.1,17.9,0,3-.1,4.1,1.1,4,4.2-.2,6.5-.2,12.9-.3,19.4Z" transform="translate(89.9 107.8)" style="fill: #f7f5f5"/>
    <path d="M250.9,786h10.4c2.5,0,3.5,1,3.7,3.5.6,7.1-1.6,10.5-7,10.5s-7-.8-7-7.1q0-3.5,0-7Z" transform="translate(89.9 107.8)" style="fill: #f8901e"/>
    <path d="M116,715l-.4-.2.4.3Z" transform="translate(89.9 107.8)" style="fill: #c84c17"/>
    <path d="M386.8-4.8c-6-4.9-11-10.7-15.9-16.6-2-2.4-.6-5.7-.9-8.6,11.8-2,10.6.2,13.3,9.9C384.8-15.1,387.7-10.3,386.8-4.8Z" transform="translate(89.9 107.8)" style="fill: #4f0e14"/>
    <path d="M207.9,181.2l-10.8-.2c-2.7-4.6-1.8-9.3-.1-13.9a33,33,0,0,0,2.6-11.1c0-2.2.3-4.6,2.9-5.3s3.6,1.3,4.7,3a4.4,4.4,0,0,0,1.7,1.8,19.8,19.8,0,0,0,1.2-9.1c-.8-7.6-1.2-15.3-2.4-22.8-.3-2.3-.5-4.7,1-6.8q-.1-6.8-.1-13.6c.1-2.8.4-5.6.2-8.5s1.9-6.3,5.4-7.3,8.1-1.7,12.1-2.5c2,.7,2.4,2.6,3.2,4.2,2.9,6,6.3,11.7,9.5,17.6,1.9,3.4,3.9,3.9,7.1,1.7q10.9-7.5,22-14.7a20,20,0,0,1,11.3-3.3h63.9c2.2,0,4.3-.2,6.4.8,14.2,13.8,8.2,12.1,27.9,9.1,8.2-1.2,16.6-1.1,24.6-3.6s13.8-1.9,20.7-2.4h.5c3.1.2,7-.2,6.8,4.2s-3.9,3.6-6.8,3.7a11,11,0,0,0-9.1,3.3,12.5,12.5,0,0,1-9.5,3.7c-11.5,0-23,.2-34.5-.1s-19.5-3.9-28.6-8.2c-3.2-1.5-6-2.1-7.9,1.9s-1.5,6.6,3.3,8.5,12.5,4.5,18.6,7.3c2,.9,4.1,1.7,4.5,4.2s-3.2,3.7-5.6,4.1c-14.2,2.2-28.2,3.7-42.4-.8-11-3.4-22.1-4.1-33,1.4-5.3,2.7-11.3,3.8-17,5.9-3.3,1.2-6.4,2.7-8.8,5.5-3.9,1.8-7.9,3.4-11.8,5.1s-3.7,3-2.1,5.8a18.8,18.8,0,0,1,2.5,9c1,4.7-1,8-5.2,10.1-5.8,2.9-10.8,7-16.2,10.4S212.6,183.5,207.9,181.2Z" transform="translate(89.9 107.8)" style="fill: #980a10"/>
    <path d="M208.8,116.8c1,9.9,2.2,19.7,2.9,29.6.3,3.6-.5,7.2-1,10.8-.2,1.3-1.3,1.9-2.9,1.5s-1-4.4-2.7-6.1-4.1-1.8-3.8.7c.8,9.6-6.7,17.9-4.2,27.6-1.5,2.3-1.3,4.9-1,7.3,1.7,11.6-2,22-6.9,32s-10.9,23.2-15.5,35.1a11,11,0,0,1-4.2,5.6,365,365,0,0,1-4.5-46c4.6-4.8,5.5-11.8,9.2-16.9,3.2.8,2.4,3.2,3.1,4.7s1.9,2.7,3.9,2,1.5-2.3.8-3.7c-2.8-5.8-5.5-11.8-8.5-17.5a12.7,12.7,0,0,1,0-12.8c4.3-8.1,8.4-16.2,12.6-24.3s5-8.9,12.7-2c0-6.2,0-11.5,0-16.9C199,117.3,199,117.3,208.8,116.8Z" transform="translate(89.9 107.8)" style="fill: #52032f"/>
    <path d="M423.1,95.9,402,98.3c-6.2-5.9-14-4.7-21.5-4.7H356.5c-2.3,0-4.7,0-6.8-1.2L313.9,92c-11-.1-22,.1-32.9-.2a20.8,20.8,0,0,0-13,3.9c-8.6,5.9-17.4,11.6-26.5,17.6-5.1-9.7-11.4-18.3-14.9-28.4C252,78.4,277.7,72,303.2,65c13.7-3.8,27.4-1.8,41.1-1.2,8.3.3,16.6-.6,24.8,1h-9.3c6.5,6.8,11.9,12.9,18.5,17.7.9.7,2.6.4,3.9.4,11.6,0,23.3.2,34.9-.1,4.6-.1,6.5,1.5,6.1,6C424.7,91.2,424.9,93.6,423.1,95.9Z" transform="translate(89.9 107.8)" style="fill: #d8717f"/>
    <path d="M360.5,122.6c-7.3-4.3-15.5-6.8-23.4-9.7s-7.7-9.5-2.1-14.2c1.5-1.3,3.1-.8,4.6-.1,3.2,1.4,6.3,2.9,9.6,4.2a67.1,67.1,0,0,0,27.6,5.4c9.5-.3,18.9-.2,28.4-.1,3.7,0,6.8-.8,9.2-3.8a7.6,7.6,0,0,1,8.4-2.9c2.4,3.8,2.2,7.6.2,11.5v7.6a2.4,2.4,0,0,1-.6,1.6c-7.3,3.4-15.1,5.5-23.1,3.9a110.1,110.1,0,0,0-36-1.7C362.2,124.1,361,123.9,360.5,122.6Z" transform="translate(89.9 107.8)" style="fill: #fdc908"/>
    <path d="M360.5,122.6l2.6.6c10.6,1.5,19.4,7.5,28.9,11.6,4.9,2.1,9.1,3.2,14.2,1.2s12.4-2.5,18-5.7c16.5-2.9,32.2-8.6,48.3-13l2.9-.5c1.6.6,4.4-1.4,4.7,2.1s-2.9,2.6-4.7,3.2c-10.5,3.6-21.3,6.3-31.9,9.7a25.8,25.8,0,0,0-5,1.4c-4.2,1.2-8.5,2.1-12.6,3.5l-2.8,1.1-1.5.5c-5.2,1.1-10.3,2.8-15.4,4.2a22.8,22.8,0,0,1-14.2-.6c-10.3-3.7-20.6-7.5-31.1-10.8-3.8-1-7.6-.4-11.4-.5-12.9-.5-25.8.5-38.8-.6a50.4,50.4,0,0,0-13.8,1.1c-4.3,1-8.5,2.7-12.9,3.4-8.4,1.1-16.3,4-24.5,5.9-2.4.5-4.9,1.5-6.6-1.3.6-2.8,2.6-4,5.1-4.9,10.6-3.7,21.2-7.8,31.9-11.2,7.2-2.3,14.8-.3,21.5,2,14.5,4.8,28.8,3.2,43.3,1.1C356.9,125.5,359.4,125.1,360.5,122.6Z" transform="translate(89.9 107.8)" style="fill: #020201"/>
    <path d="M475.4,116.8a8.3,8.3,0,0,1-4.3,2.4c-15.7,4-31,9.8-47.1,12.5-3.7-3.1-3.1-6.7-1.1-10.5a3.2,3.2,0,0,0,.1-.7c10.7-2.3,21.4-4.5,31.7-8.1C462.6,109.6,469.5,111.2,475.4,116.8Z" transform="translate(89.9 107.8)" style="fill: #ec1d25"/>
    <path d="M442.9,130.8l32.2-9.8a14.2,14.2,0,0,0,5-2.1c3.6,1.2,6.9,2.7,9,6.1a14.5,14.5,0,0,1,.8,9.2c-.7,3.1-2.7,4.5-5.4,3.6-7.7-2.5-15.5-1-23.2-1.4-4.8-.2-9.6.2-14.4-.2C443.8,136,441.3,134.8,442.9,130.8Z" transform="translate(89.9 107.8)" style="fill: #f7f5f5"/>
    <path d="M423.1,112.9l-.2-11.5h.5c2.2-.9,6.3,1.4,6.4-2.5s-4.4-1.9-6.7-2.9V88.9c3.9.2,7.4,1.9,10.7,3.7,5.5,3.1,10.5,7.1,16.5,9.2a4.8,4.8,0,0,1,3.5,4.9C443.9,109.6,433.8,112.4,423.1,112.9Z" transform="translate(89.9 107.8)" style="fill: #f7f5f5"/>
    <path d="M442.9,130.8c-.1,3.3,1.7,4.3,4.7,4.2h26.5c3.5,0,6.9-.2,10.2,1.5s4.5.1,4.6-3,.1-5.7.2-8.5c2.3,1.7,3.4,4.2,2.6,6.8s-.7,7.4-.7,11.1c-3.1-.6-5.9-2.8-9.3-2.3-2-2.3-4.7-2.1-7.3-2.2H447.2c-4.5,0-8-1.6-9.4-6.3Z" transform="translate(89.9 107.8)" style="fill: #f6ec9c"/>
    <path d="M444.7,293a11.2,11.2,0,0,1,7.9,2.3l64.5,44.9a38.2,38.2,0,0,1,4,3.7c-.3,6.8-2.9,12.9-5.3,19.1s-4.4,14.6-8,22.2c-1.5-2.7-2.3-4.6-1.5-7,2.6-8.2,4.1-16.8,7.5-24.7,1.6-3.8,1.2-6.1-3.1-7.6s-4.5,2-5.2,4.6c-2.5,1.5-5.4,0-7.8,1.2-6.3,2-11.4.6-15.1-5.1a53,53,0,0,0-5.2-6.7c-2.5-3.7-5.1-6.7-10.3-6.2-2.6.2-4-2.2-4.2-4.7a19.3,19.3,0,0,0-2.7-8.4c-3.8-6.2-8.2-12.1-12.4-18.1C446,299.7,443.1,297,444.7,293Z" transform="translate(89.9 107.8)" style="fill: #ec1d25"/>
    <path d="M474.2,349v25.9c-3.3-1.5-3.6-3.7-4.6-5.5-3.1-5.5-9.4-7.6-14.1-4.7s-6.4,5.5-10.3,5.4a2.3,2.3,0,0,1-.6-2.3,3.6,3.6,0,0,0-.3-2.6c-2.8-1.9-5.6.1-8.5.1s-6,1.1-7.1-2,2.2-4.5,4.2-6.1c3.7-3.1,7.7-5.9,10.9-9.4s6.7-3.6,10.3-4.7c7.3-2.3,14.1-2.1,20,3.6A2.1,2.1,0,0,1,474.2,349Z" transform="translate(89.9 107.8)" style="fill: #f7f5f5"/>
    <path d="M501.8,404.7c-1.4.5,0,2.3-1.4,2.9s-1.7-3-3.2-4.5c-3.1,2.2-3,7-6.9,8.9,0-4.4,1.7-8.1,2.5-11.9.3-1.6,1.3-3.2-.3-4.6a108,108,0,0,0-12.3.4c-4.8.6-8.8-2.2-12.9-4.2-2-2.1-.2-3.8.7-5.6a31.2,31.2,0,0,1,6-5.9c2.5-1.1,4.2-3.2,6.2-5,4.6-4.3,7.7-4.4,12.5-.1,2,1.8,4.5,3.9,4.2,6.5C495.9,390,502.8,396.5,501.8,404.7Z" transform="translate(89.9 107.8)" style="fill: #020201"/>
    <path d="M474,380.2c-.3,3-2.7,4.3-4.7,5.9-10.6.7-21.2.3-31.9.3-6.8,0-13.2.9-18.4,5.9a5.9,5.9,0,0,1-6,1.7c-5.7-2-11.2-.5-16.7.4-7.7,1.4-10.4-.9-8.7-7.6,2.9-2.7,6.5-3,10.2-3.2s7.6-.1,11.4-.1a15.4,15.4,0,0,0,9.8-2.6c4.9-3.5,10.9-2,16.4-2.6,2,0,4,.1,5.6,1.5Z" transform="translate(89.9 107.8)" style="fill: #fbfa66"/>
    <path d="M441,379.7c-1.7.3-3.4.6-4.8-.8-4.9-5-4.9-9.9-.1-14.7,5.8-1.1,6.9-1.1,11,.3.1,2.1-2.2,3.2-2.5,5.6,4.5-.3,6.7-4.9,10.8-5.4,1.2,2.1-.9,4.1-.3,6.4s2.5-1.2,4.2-.6.6.7.6,1.1c-.5,6.4-1.8,7.4-8.2,7.5C448.2,379.1,444.5,378.2,441,379.7Z" transform="translate(89.9 107.8)" style="fill: #ec1d25"/>
    <path d="M474.2,349l-.6-1.4c.5-3.3.9-6.7,4.5-8.4a19.4,19.4,0,0,1,3,3.2c3.8,6.4,8.8,10.3,16.7,9.3a11.6,11.6,0,0,1,.9,3.3c-.1,2.3-.4,4.6-2.7,6s-3.8.3-5.4-.9L479,351.4A10.1,10.1,0,0,0,474.2,349Z" transform="translate(89.9 107.8)" style="fill: #4f0e14"/>
    <path d="M444.7,293c.4,4.6,3.6,7.7,6,11.2,3.5,5.2,7.8,9.8,10.2,15.7-.9,2.4-3.6,2.7-5.1,4.4-5.9,4.3-12.3,7.3-19.8,7.1-3.6-.1-6.5-1.3-8.2-4.7s-5.4-5.5-9.8-5.3-8,.3-11.9-.7-4.3-2.3-4.4-5.2a154.3,154.3,0,0,1,.2-17.5,20.3,20.3,0,0,1,5.3-11.6c1.3-1.5,2.9-2.8,3.7-5.7-3.2,1.5-6.1,3.5-9.1,1.1s-4.1-6.3-4.1-10.3c-.1-7-.2-14,0-21s6.4-11.3,13.5-7.3c4.7,2.7,7.9,7.1,11.2,11.2a56.7,56.7,0,0,0,7,7.8c3.1,5.5,7.8,9.4,11.9,13.7.7,0,1-.1,1.1-.5,1.7-8.2,2.5-8.6,10.7-5.5,11.7,4.3,23.2,9.4,35.1,13.2a48.4,48.4,0,0,0,11.2,2.4c6.9.5,8.1-.7,8.5-7.5,2.2-6.5,7.1-8.3,12.3-4.5,0,15,.1,30,0,45,0,2.2,1.2,5-1.7,6.2s-5.2.3-7.5-1.4l-33.1-23.2c-5.5-3.8-11.2-7.2-16.5-11.2a16.5,16.5,0,0,0-11.7-3C444,286.4,443.4,287.3,444.7,293Z" transform="translate(89.9 107.8)" style="fill: #fcfcfc"/>
    <path d="M520,273.5c-8.4-1.1-9.6-.5-11.2,5.5-1.7,1.2-3.2.2-4.7-.4-6.5-2.4-12.9-5.2-19.5-7.6a10.4,10.4,0,0,1-2.2-1.1c-1.4-.9-2.9-2-2.8-3.8s2.1-2.4,3.6-2.8c4-1.1,8-2.2,10.9-6.6-3.5-.8-6.8-.1-10-.6s-6-1.6-4.1-5.9a218.1,218.1,0,0,1,17.2-14c11.2-1.3,20.5,6.2,22.7,18.4a19.9,19.9,0,0,1,.3,8.3c-.9,3.9-.1,7.6,3.7,9.9Z" transform="translate(89.9 107.8)" style="fill: #fbfa66"/>
    <path d="M508,188.7a10.7,10.7,0,0,1-8.3,3.2c-1.9-.1-3.9-.3-5.6.9-4.9,1-10,.4-14.9.4a23.6,23.6,0,0,0-11,2.6c-10.4,5.3-20.4,11.2-31.1,16-5.9,2.7-6.3,7.6-6.1,12.9a6.1,6.1,0,0,1-1.6,2.9c-2.3,1.2-4.3,4.5-7.4,1.2-1.2-11.7-.6-23.4-.4-35.2a5.1,5.1,0,0,1,.9-2.6,2.3,2.3,0,0,1,3.3,0c.9,5.3,4.2,7.4,9.3,8,7.9,1,14.9-.2,20.7-6.1.6-.6,1.2-1.4,1.9-1.5,11.3-1.7,21.8-8.2,33.9-4.8,1.9.5,4.6,2.4,6.6-.8-2.6-2.6-6.7.1-9.6-3.6,5.4,0,10.1-.3,14.8.1S507.7,185.7,508,188.7Z" transform="translate(89.9 107.8)" style="fill: #f8901e"/>
    <path d="M425.9,191.1l-2.8.3c-3.2-6.3-1.7-12.9-1-19.3a2.6,2.6,0,0,1,2.9-2.1c6.5,3.9,13,4.4,19.6.4a6.5,6.5,0,0,1,2.3-.4c-2.2,4.1-7.9,3.8-10.7,8.5,5.4.9,8.9-3.1,13.2-3.7.5,2.6-1.4,3-2.7,3.7l-17.6,9.3C427.7,188.5,426.2,189.2,425.9,191.1Z" transform="translate(89.9 107.8)" style="fill: #019fcd"/>
    <path d="M456.9,166.4c7-5.1,15.1-8.1,23.1-11,4-1.5,6.8,1.4,9,4.6-3.5,1.4-7.2.8-10.8.6s-6,.1-7,4.2l4.5,3.7c.9.7,2.1,1.4,1.6,2.7s-2.1,1.2-3.4.8Z" transform="translate(89.9 107.8)" style="fill: #91cfe3"/>
    <path d="M447,170c.2-.9.7-.8,1.4-.6A1.1,1.1,0,0,1,447,170Z" transform="translate(89.9 107.8)" style="fill: #019fcd"/>
    <path d="M362.1,129.6c10.4,3.7,20.9,7.3,31.3,11.2a18.2,18.2,0,0,0,12.1.4c5.7-1.7,11.3-3.8,17.2-4.6.6.4,1.2.8,1.3,1.5.8,7.4,2,14.8-.8,22.1l-2,.9c-3.4,0-1.8-4.8-5.2-5.1s-1.8,5.3-4.4,6.9c-8.2,3.5-12,2.7-17.5-3.9-2.2-2.7-5-4.9-7.1-7.7-4.8-6.1-11.3-7.6-18.5-7.9-19.6-.8-39.1-2.5-58.7-3.7l-20.9-1.4c-3-.2-6.4-.6-4.7-5.2l11.9-3.4C318,129.1,340,129.6,362.1,129.6Z" transform="translate(89.9 107.8)" style="fill: #f8901e"/>
    <path d="M411.7,161.9c.2-1.1.5-2.2.7-3.4s.4-4.4,3.4-4.5,3.2,2.3,4.1,4.1-.2,2.4,1.2,3c-.6,3.8-.1,7.1,3.9,8.8-2.1.9-2.1,2.7-2.1,4.6.1,5.6.1,11.2.2,16.9l-.2,1.5c-5.4,6-12,10.5-18.6,14.9-3.4,2.3-6.1.6-6.5-3.6s-.1-8.6-.2-13c-.1-6.1-.1-6.1-6.2-7.4-4.2-3.7-10-6.3-10.4-13.1.5-1.6,1.2-3,3-3.5s3.2.8,4.5,1.7a22.4,22.4,0,0,0,17.4,3.7c3.2-.5,4.7-1.8,4.6-5.1S410.5,163.6,411.7,161.9Z" transform="translate(89.9 107.8)" style="fill: #75cae4"/>
    <path d="M423.1,160.2l-.5-23.6h.1a2.9,2.9,0,0,0,2.2-.8l12.8-3.7c4.7,6.2,11.5,4.8,17.8,4.8h22.9c2.6,0,4.4.5,3.2,3.7l-32.3,10.7Z" transform="translate(89.9 107.8)" style="fill: #fdc908"/>
    <path d="M428.8,226.8l1.3-1.7a13.7,13.7,0,0,1,4.5-3.8c6.1-3.7,12.1-7.6,17.8-11.9,9.6-7.2,20.7-7.6,31.9-6.3,5.1.6,9.3,3.5,12.6,7.5,1,1.2,2.4,2.5,1.1,4.3l-1,1c-4.3,1.5-6.8-2.4-10.3-3.4-11-2-21.9-3.1-31.8,3.9a4.6,4.6,0,0,0-1,1,1.3,1.3,0,0,0-.2,1.2c5.5-1,9.9-5.3,15.7-5,8.1,1.7,16,4.1,24.1,5.5a5.2,5.2,0,0,1,3.4,1.9q0,2.8,0,5.5c-1.2,1.8-3,3-4,5s-1.9,2.3-3.7,1.5,1.6-5.6-1.5-7.7-10.8-3.9-14.4-3.8c.2,4.1,2.3,8.3.1,12.5-1.5,1.2-3.2.4-4.8.3a8.8,8.8,0,0,0-9,5.3c.4,2.2,2.9,2,3.6,4.3a19.3,19.3,0,0,1-14.1.2c-4.6-1.5-8.2-4.2-8.8-9.6-.2-1.5-1.1-2.9-3.1-2.1s-2.4,2.1-1.7,4,3.9,4.3,2.8,7.6c-4.1,2.7-7.3,2-9-2.4S426.6,231.9,428.8,226.8Z" transform="translate(89.9 107.8)" style="fill: #020201"/>
    <path d="M498,214.9c-3.3-7-9-10.4-16.5-11-11.8-.9-22.6,1.4-32.1,9.1a83.8,83.8,0,0,1-19.3,12c-1.1-9.8-.3-11,8.3-15.4l29.1-15c8.6-4.5,17.6-2.9,26.5-1.8,2.7,5.3,7.7,8.7,11.4,13.2l1.4,1.4c8.3,8.2,8.3,8.2,1.9,17.7Z" transform="translate(89.9 107.8)" style="fill: #a96013"/>
    <path d="M489,233a3.5,3.5,0,0,0,3.7-3.3c.4-2.9,2.2-2.9,4.2-3l.4,9.5c-4.1,6.2-10.6,9.5-16.1,14a2.5,2.5,0,0,1-1.7-1.3c-.8-2.5-.8-5.1-1.7-7.5.9-2.9,4.3-3.2,5.7-5.5a23.1,23.1,0,0,1,3.8-2.3l1.2-.5Z" transform="translate(89.9 107.8)" style="fill: #f8901e"/>
    <path d="M487,211.6c3.8.3,5.9,4.5,9.9,4.4v5.2l-27.7-6.4c-1-2.9.9-3.7,3-3.7C477.1,211.1,482.1,210.4,487,211.6Z" transform="translate(89.9 107.8)" style="fill: #f7f5f5"/>
    <path d="M442.5,717.8l-36.4.3c-3.5,0-5.2-1.7-5.1-5.2s-.1-6,0-9-1.7-6-5.9-5.9c-9.5.2-18.9-.2-28.4.2-7.1.3-13.3-1.1-19.2-5.2s-10.6-6.2-16-9.1a14.2,14.2,0,0,1-5.3-5c-.3-3.1,1.9-4,4.2-4.9,19.1-.7,38.3-.1,57.4-.3a59.1,59.1,0,0,1,6.5,0c5.2.5,8.3-1.8,10.7-6.3,6.2-11.8,12.8-23.3,19.3-34.9a68.5,68.5,0,0,0,3.9-8.1c.9-2.3,1-4.4-.5-6.6s-2.8-4.6-4.2-6.8c-2.9-4.6-4.2-4.8-8-1-7.4,7.2-14.5,14.6-21.9,21.8-4.7,4.6-8.6,4.4-12.6-.5-2.7-3.2-2.6-5.8.5-8.7s5-3.9,6.9-6.5c.3-1.8-3.1-.8-2.2-3,12.1-18,23-36.9,35.7-54.6,3.5-.7,6.2,1.2,8.8,2.9,15.6,10.3,14,6,14,24.6.1,26.3,0,52.6,0,78.9,0,2,0,4-.1,6-.3,3.6-2.3,5.4-5.8,5.6s-6.7.1-10,.2-4,1.3-4,4c-.1,5.2-.2,10.3.1,15.5.1,2.8,1.7,4.6,3.9,6,3.8,2.4,7.8,4.5,11.6,6.8,1.9,1.1,3.7,2.3,4.6,4.4A6.3,6.3,0,0,1,442.5,717.8Z" transform="translate(89.9 107.8)" style="fill: #fdc908"/>
    <path d="M444.8,713.2l-18.2-10.4c-2.1-1.2-3.7-2.7-3.7-5.4.1-7.1,0-14.3,0-22.4,5.2,0,10.2-.2,15.1.1s5-1,5-4.8q-.2-47.9,0-95.8a5.4,5.4,0,0,0-3.2-5.5c-6.1-3.4-11.5-7.9-18.1-10.4l9.7-17.2c3.8-4,9.1-5.2,13.7-7.2,1.4.7,1.2,1.8,1.1,2.7s.3,2.7,2,2.9,2.4-.7,2.9-2.1,2-4.9,3.1-7.4c4.1,2.1,4.7,5.7,4.9,9.4q2.6,51.5,5.2,103.1c.1,1.2.1,2.3.2,3.5,1.4,11.4.4,22.2-5,32.8S449.7,701.8,444.8,713.2Z" transform="translate(89.9 107.8)" style="fill: #f7f5f5"/>
    <path d="M270.1,519l-9-8.6c-2.2-2.2-4.6-4.1-7.9-3.2s-4,4.1-4.2,7.2a4.7,4.7,0,0,1-.5,1.3c-2.4.6-3.7-1-4.2-2.7-2.5-7.4-8.1-12.5-13.3-17.8-6.9-7-13.3-14.4-19.9-21.7-3.9-4.3-8.4-8-12.6-12-1.4-1.3-3.5-2.8-1.3-4.9s3.2.3,4.6,1.3a33.5,33.5,0,0,1,7.9,8.2c1.1,1.5,2,3.6,4.2,2.2s1.1-3.3.1-4.8c-8.9-12.5-15.7-26.3-25-38.5-3.4-4.5-6-9-1.4-14.3a3,3,0,0,0,.4-2.9c-.5-1.7-2-3.8.5-4.7s5.4-1.2,7.5,1.1a12.4,12.4,0,0,1,3.2,7.1c.7,6.8,4.2,12.5,6.7,18.7a1.9,1.9,0,0,0,2.6,1.4c1.5-2.2.6-4.4-.3-6.8s-2.7-6.1,1-7.7,7.8.1,9.1,4.6c.7,2.6,1.5,5.1,2.4,7.6s.9,2.8,2.6,2.4,1.8-1.7,2-3.1-.9-4.6,1.9-5.6,4.9,1.1,6.8,3l19.2,18.9a2.7,2.7,0,0,1,.8,2.8c-2.4,3.7-3.2,8.4-6.9,11.3a20.1,20.1,0,0,1-5.1-8.4c-.6-1.9-1.6-3.9-4.1-3.7s-4.7-1-6.1.9.6,3.7,1.2,5.5q5.9,16.4,11.8,32.8c.5,1.5,1.2,3.2-.9,4.8-5.2-3.9-5.5-11.8-11.8-15.5-1.2,3-1.1,5.1.5,7.4,3.8,5.1,8,9.8,10.9,15.5a4.3,4.3,0,0,0,4.5,2.5c6.6-.8,12.4,1.8,18.2,4.3a108.6,108.6,0,0,0,13.7,4.6c2.7.7,4.6,2,4,5.6C278.5,513.9,274.1,515.8,270.1,519Z" transform="translate(89.9 107.8)" style="fill: #52032f"/>
    <path d="M310.8,454.1c-1.3-.2-2.9-.5-3.7.6-3.1,4.2-6,2.4-9.6.4-6.7-3.5-12.8-8.3-20.3-10-2.4-2.8-1.7-6.4-2.3-9.7,1.1-5.1.7-10.2.8-15.3.1-2.4.3-4.8,2.9-5.8s4.9-.1,6.8,1.7a49.1,49.1,0,0,1,7.1,7.6c5,6.9,7.1,7.2,14.1,2.1,1.2-.7,2.5-.5,3.9-.4a21.6,21.6,0,0,1,7.8-.4c15.1,5.6,30.4,10.6,45.6,16,2.1.8,4,1.7,4.5,4.2.5,8.1-1.4,10.4-9.4,10.4H317C314.9,455.6,312.7,455.5,310.8,454.1Z" transform="translate(89.9 107.8)" style="fill: #5e6342"/>
    <path d="M454.7,502.8c.3-1.2.3-2.6,2.4-3.9,0,5.6,0,10.8,0,15.9-4.2,6.7-10.3,11.7-16.2,16.8-3,2.6-6,2.3-7.7-1.4s-3-2.4-4.9-.9l-12.6,10.6c-1,.8-1.8,2.3-3.3,1.7a4,4,0,0,1-2.4-4c0-1.8.1-3.6-1.7-4.9-2.2,1.5-2.1,4.1-3.1,6.1s-2.8,3.6-5.5,3.2-2.5-2.9-2.7-5,1.6-6.7.8-10.1H397c-5.6,5.5-5.6,5.5-8.2-1.7-.4-1-.9-1.9-2.1-1.8a3.3,3.3,0,0,0-3,2.3c-1.1,4.1-4.2,7.1-5.8,11-.6,1.4-1.3,3-3,2.9a4,4,0,0,1-3.7-3.5c-.4-5.6-4.1-10.2-4.5-15.7-.3-3.1-2.5-5-5.7-5.3s-4.5,2-5.5,4.7-2.8,6.4-4.2,9.6-3,3.3-6,2.3l-1.1-25.6a2.6,2.6,0,0,1,1.3-.6c2.7.2,5.1,1.3,7.8,1.8s5.9-.5,6.4-4.3a11.2,11.2,0,0,1,.5-2.4c.7-1.9,1.5-4,4-3.8s2.7,2.1,3.1,4,1.1,5.9,3.3,8.2,5.7,2.7,7.6-1.3c1.2-2.4,1.9-6.8,5.1-5.6s.9,5.1.4,7.8-1.8,4.4-.1,7.2c7.4-1.2,12.5-6.6,18-11.5,4.5,3.6,4.5,9,6.6,13.4,2-.3,1.6-2,2.3-3s1.6-2.7,3.4-2.4,2.1,1.8,2.4,3.3-.3,4,1,5.9c5.5-4.1,3.7-12.7,10-15.9,2.5,1.1,2.3,3.5,3.7,5.3,1.7-2,1.6-4.6,2.8-6.5s1.3-2.1,2.7-1.8,1.6,1.6,1.7,2.7-.7,4.6-.9,6.9-1.6,4.6,2.1,4.9,6.6-2,6.9-4.4c.1-.7-.1.2,0-.5.4-6.6.4-6.6,6.7-4.1C454.4,507.4,453.2,504.7,454.7,502.8Z" transform="translate(89.9 107.8)" style="fill: #52032f"/>
    <path d="M345,505.9h-.9c-1-7.4.9-15.1-1-22.7-3.4.5-3.8,3.2-5.2,4.9s-3.8,2.6-5.8.6L311,467.5c-2.1-2.1-1.9-4.5-.7-6.9s1.9-4.2.6-6.5h45.7c10.3,0,10.3,0,10.5-10.2,3.7-.9,7.2-1,9.1,3.3-2.4,1.6-4,3.6-4,6.8s-.5,4.6-2.8,6c-5.5,1.5-11.2.5-16.8.7s-5.9.7-6,6.1c-.2,8.8.1,17.5-.1,26.3C346.2,497.3,347.7,501.8,345,505.9Z" transform="translate(89.9 107.8)" style="fill: #444922"/>
    <path d="M246.8,459.2c1.7-3.9,3-8,6.1-11.2,5.3,2,11.6.8,16.2,5,0,7.2-.1,14.3.1,21.5.1,3.9-1,5.8-5.4,5.8-9.6,0-9.7.2-13.1-9.1C249.3,467.3,246,463.9,246.8,459.2Z" transform="translate(89.9 107.8)" style="fill: #67244b"/>
    <path d="M269.1,453c-5.2-2.5-11.6-.7-16.2-5v-2.9c2.9-2.5,4.4-6,6-9.4,3-6.4,5.7-12.9,9.7-18.8,2.7,1.9,1.9,4.8,1.8,7.3-.3,4.8.5,8.9,5.6,10.9a43.6,43.6,0,0,1,1.2,10.2C278.5,452,273.2,451.9,269.1,453Z" transform="translate(89.9 107.8)" style="fill: #285a69"/>
    <path d="M345.1,492.9c-.1-9.6-.1-19.2-.3-28.8-.1-3.9,1.4-5.3,5.3-5.2,6.6.1,13.2-.1,19.8-.2,7.1-2.5,10.9-.8,12.8,6.2.9,3.3,2.7,5.1,6,5.8s5.9,1.3,8.7,2.2,3.7.8,4,3.1c-1.1,6.2.6,12.6-1.1,18.7a20.2,20.2,0,0,1-7.6,9.7c-1.5.9-2.9,1.8-4.6.8s-1.4-2.8-.9-4.4a8.3,8.3,0,0,0,.6-2.4,4.1,4.1,0,0,0-2.2-4.2c-1.9-1-3.1.3-4.1,1.7s-2.5,4.3-4,6.3-2.7,3.7-5.3,3-2.4-2.9-2.6-4.9c-.6-5.3-1.3-5.9-6.5-6H350.7C348.8,494.3,346.6,494.6,345.1,492.9Z" transform="translate(89.9 107.8)" style="fill: #019fcd"/>
    <path d="M345.1,492.9c6.5,0,13,.1,19.5,0,4.4-.1,6.6,1.6,6.4,6.1a14,14,0,0,0,0,2c.1,1.5-.2,3.3,1.6,3.8s2.6-1,3.4-2.3,3-5.2,4.6-7.7,2.2-4.5,5.3-2.9,4.5,6.1,3,8.5a8.1,8.1,0,0,0-1.6,3.4c1.9,2,3.1.9,5-.3,3.6-2.2,3.7-7.2,7.9-8.7l8.8,13.5c5.5-1.6,9.3-5.4,13.7-8.2,5.9-3.8,5.9-3.9,9.2,2.1,4.6-2.1,6.8-6.7,10.6-9.6,1.4-1,2.5-3.2,4.6-2s.9,3,.9,4.6c0,6.8,0,6.8,6.6,7.5a2.1,2.1,0,0,1,.1.5c-.1,2.7,1.5,6.1-1.1,8s-2.9-3.6-6-2.8c-.9.5-.6,1.6-.5,2.5.5,6-1.9,8.7-8,9-3.1.1-4.4-1.3-3.7-4.3s1.8-7.4,1.3-11.6c-4.3,2.6-2,8.6-6.2,11-2.4-2.1-1-5.4-3-7.6-2.8,1.4-3,4.4-4.1,6.9s-2.3,5.5-3.6,8.2-1.5,2.8-3.3,2.3-1.3-2-1.5-3.3.9-5.3-1.1-7.7c-4.3,1.2-1.4,7-6,8.3-2.3-5-2.8-10.7-6.2-16-3.6,5.8-9.1,8.6-14.8,11.3-1.5.7-3.1,2.5-4.9.8s-1-3.5-.6-5.2,1.8-5.4,2.6-8.1a2.1,2.1,0,0,0-1-2.9c-2.3,1.6-3.4,4.2-3.9,6.9-1,4.7-3.8,4.6-7,2.8s-5.4-6.5-5.9-10.9c-.1-1.5-.1-3.3-2.1-3.4s-2.3,1.8-2.7,3.1c-2.9,9.4-3.4,9.7-13,6.6l-3.3-1.2Z" transform="translate(89.9 107.8)" style="fill: #ec1d25"/>
    <path d="M401.5,476.1c-4.6-2.6-9.7-3.1-14.7-4.4-3.1-.8-5.3-2.1-5.2-5.6.2-6.2-3.4-7.6-8.7-7.1a14.5,14.5,0,0,1-3-.3c.3-2.1,1.1-4.2,1-6.3-.3-4,1.3-5.9,5.3-5.8a2.6,2.6,0,0,1,2.9-.1c1.1,6.7,6.7,10.7,9.5,16.5s11.9,7.8,18,3.5a65.8,65.8,0,0,1,5.7-4c3.9-2.2,5.2-1.6,5.6,2.9a4.5,4.5,0,0,0,.2,1.5l.9,1a204.2,204.2,0,0,0,18.9-18.9c-3.4-1.5-6.2-.7-9-1s-4.1.5-5.2-1.8c6.5-8.6,15.2-10.2,25.1-8,4.5,5.9,3.1,12.2,1.4,18.6-8.5,8.5-18.8,14.7-28.1,22.2-1.6,1.3-3.4.8-5.2.4C411.8,478.4,406.8,476.3,401.5,476.1Z" transform="translate(89.9 107.8)" style="fill: #054050"/>
    <path d="M450.3,457q-.1-6.7-.3-13.3c0-2,.1-4-2.1-5.1-3.7-.2-7.5,0-11.2-.1-1.6-.6-.9-1.7-.1-2.1,8.5-4.9,15.9-11.7,24.8-16.1a3.5,3.5,0,0,1,1.5-.2,2.6,2.6,0,0,1,2,1.1A30.8,30.8,0,0,0,468,426c5.4,5.7,7,12.4,5.9,19.9-5.5-.8-10,1.5-14.3,4.6S454,455.8,450.3,457Z" transform="translate(89.9 107.8)" style="fill: #cc5063"/>
    <path d="M464.8,421.1l-1.7-.3c-1.5-3-4.2-4.6-7.2-5.7,0-2.8,2.3-2.8,4.2-3.3,5.2-1.2,8.6-5.6,8.6-11.5-2.4-1.5-5.3.7-7.6-1.1a2.2,2.2,0,0,1-.5-2c2.2-2.1,3.4-5.2,6.6-6.2.5,0,1.1-.2,1.5,0,7.4,4.6,15.9,3.5,23.9,4.4l-.5.2c-11.7-1.3-18.4,4-21,15.3C470.1,414.9,467.2,418,464.8,421.1Z" transform="translate(89.9 107.8)" style="fill: #e7c642"/>
    <path d="M386.1,613c.7,1.9,3.5-.2,3.9,2.1-3.2,2.1-6.8,1-10.2,1.1-6.1.3-7.6,1.4-7.3,7.4s-2.6,13.1-7.8,18.1c-9.8,9.5-19.3,19.2-29,28.9-1.6,1.7-3.3,3.3-5.6,4a9,9,0,0,0-3.9,4.2l-1,.4c-9.4-4.3-17.8-10.3-26.8-15.2s-19.6-12.6-30.4-17.1c0-9.3.2-18.7-.1-28-.1-4.7,1.5-6,6-6,30.3.2,60.6.1,91,0l5.5-.3Z" transform="translate(89.9 107.8)" style="fill: #980a10"/>
    <path d="M176.8,277.2c0-3.5,2.1-4.3,5.2-4.3h33.2a3.9,3.9,0,0,1,4-.5c5,2,10.4,1.9,15.6,1.6a85.9,85.9,0,0,0,10.9-.8c2.6-.5,4.3,1.3,5.9,3,4.1,7.3,6,15.4,8.4,23.2,3.3,10.6,7,21,10,31.7.6,2.2,1.6,4.4.4,6.7-2.8,3.3-6.6,2.6-10.2,2.6-11.7.1-11.7.1-11.7,11.7,0,8.3.2,16.6-.1,24.9a13.1,13.1,0,0,1-.4,4.1c-3.8,5-7.6,10.1-12.9,13.8l-27.5.3c-3.8,0-6.2-1.6-7.7-5.2a44.5,44.5,0,0,0-3.9-7.5c-4-6-6.8-11.9-4.7-19.6,1-3.8-1.5-7.5-3.1-11.2-2.6-6.2-2-7.9,3.6-11.7-1.3-3.4-1.3-6.9-1-10.6.7-7.7-3.5-14.4-5.4-21.6C182.6,297.6,179.6,287.4,176.8,277.2Z" transform="translate(89.9 107.8)" style="fill: #794001"/>
    <path d="M246.7,382.1l.3-4.1c8.2-10.2,15.9-20.8,24.6-30.6a5.7,5.7,0,0,1,2.3-1.8,1.8,1.8,0,0,1,1.4.4,4.6,4.6,0,0,1,.8,1.3c2.2,7.3,4.3,14.7,7,21.8,1.3,3.3,3.3,4.6,6.7,4.5,6-.1,12-.1,17.9,0a11.8,11.8,0,0,0,9.6-4.4l11.8-13.5c1.6-1.9,3.1-3.9,5.4-5.1s4.3,1.3,6,2.8,5.9,5.1,9.8,6.4a3.1,3.1,0,0,1,2.4,3.7,99.6,99.6,0,0,1-10.9,19.1c-2.9.9-3.9-4.1-6.5-.9a58.7,58.7,0,0,1-5.2,4.6c-3,2.5-5.7,4.8-9,.2-1.2-1.7-3.1-.8-4.6,0-5.6,3-10.7,6.6-16.1,10a4.7,4.7,0,0,0-2.2,3.7c-.2,2.5-.8,4.9-1.1,7.4-.7,6.3.6,11.5,6.9,14.5,1.4.7,3.1,1.5,2.9,3.6-3.3,6.2-10.4,6.8-14,1-2.4-3.9-5.7-6.9-8.8-10.1a4.9,4.9,0,0,0-5.4-1.6c-2.3.8-1.8,2.8-1.9,4.6-.4,5.1,1.1,10.3-1.1,15.2-6.6-.3-6.9-.7-6.9-7.3,0-3.6-.2-7.2-.4-10.9l.5-2.2c2.6-5.9,5.8-11.5,8.7-17.3,3.8-7.8,3.1-9-5.8-9-6.1,0-12.3.2-18.4-.1C249.8,388.1,246.8,386.7,246.7,382.1Z" transform="translate(89.9 107.8)" style="fill: #b7485a"/>
    <path d="M246.7,382.1c1.6,3.9,4.3,5.3,8.6,5.1,7-.3,14-.2,20.9-.1,5.2.1,6.9,2.4,4.5,6.9-3.8,7-6,14.8-11.6,20.7q-.1-5.9-.2-11.9c-.1-6-1.7-7.7-7.6-7.7H235.1C238.7,390.4,242.1,385.7,246.7,382.1Z" transform="translate(89.9 107.8)" style="fill: #980a10"/>
    <path d="M259,197l.9-1.9a2.5,2.5,0,0,1,.5-1.4c6.7-6.9,12.9-14.2,19.8-20.9a22.2,22.2,0,0,1,14.8-6.2c6.4.5,12.7-2.3,19.1-.4,2.2,1.8.2,2.8-.9,3.9s-3.3,1.7-3.7,4.6c6,.9,11.9,3.2,18.1.5s14.5-.4,17.5,6.9c.9,2.3,2.4,4.4,3.5,6.6s2,4.3.4,6.6a78.4,78.4,0,0,1-15.9,3.9,19.8,19.8,0,0,1-14.3-3.2c-4.4-2.9-9.3-4.4-14.7-3a5.1,5.1,0,0,1-2.5.2c-8.6-2.2-15.1,2-21.6,6.6-4.9,3.4-10.1,6.4-15.1,9.8-1.6,1.1-3.3,2.4-5.5,2-2.9-2.5-1.3-4.8.6-6.7s4.5-4.3,6.7-7C263.9,199.1,260.8,202.5,259,197Z" transform="translate(89.9 107.8)" style="fill: #020201"/>
    <path d="M207.9,181.2c7.2.8,12.9-2.3,18.1-6.7a54.1,54.1,0,0,1,9.3-5.7c3.9-2.1,7.6-4.4,5.8-9.9,3.2-.8,2.7,2.2,3.7,3.7,1.3,4.7,4.1,8.8,5.9,13.4a2.3,2.3,0,0,1-.8,2l-29.4,28.2c-1.6,1.5-3,2.9-5.4,3.1-5.9.3-7-.6-7.1-6.6S207.9,188.3,207.9,181.2Z" transform="translate(89.9 107.8)" style="fill: #52032f"/>
    <path d="M259,197c1.9,2.6,3.8,2.8,6.1.4s2.4-3.6,5.2-.4c-2.9,2.7-5.7,5.5-8.6,8s-3.2,3.7-2.7,6.5-1.9,4.3-4.1,5.6c-8.6,5.1-7.8,10.3-7.5,18.2.1,3.9,4.6,2.7,5.8,5.3-2,2.7-4.9,1.6-7.5,1.9-5.1-.9-8.4,1.4-11.1,5.6s-3.8,6.2-5.7,9.3c-3.1,4.8-6.1,5.8-11.8,4-3.8-7.2-2.3-14.2,2.5-20,12-14.5,24.2-28.9,37.2-42.6A20.5,20.5,0,0,1,259,197Z" transform="translate(89.9 107.8)" style="fill: #66760e"/>
    <path d="M249.9,177.9v-2a127.3,127.3,0,0,1,21.6-21.8,10.6,10.6,0,0,1,11.7-1.3c.9,5.3,3.1,9.7,8.7,11.6a3.3,3.3,0,0,1,2.3,3.5c-8.4.5-13.6,6.1-18.9,11.7S265.1,189.9,260,195c-3.2-.8-3.2-3.9-4.4-6.1S251.8,181.6,249.9,177.9Z" transform="translate(89.9 107.8)" style="fill: #a96013"/>
    <path d="M217.1,261.3c6.2.6,10.2-2.2,12.7-7.8,1.2-2.7,3.3-4.9,4.7-7.5,2.3-4.5,5.8-5.9,10.6-4.8,3,3.3,3.3,7.5,3.4,11.7a110.6,110.6,0,0,1,0,13.5c-.4,5.5-2.8,7.6-8.3,7.7-7.1.2-14.2.7-21.3-.8l-3.7-.4C214.7,268.8,214.7,264.9,217.1,261.3Z" transform="translate(89.9 107.8)" style="fill: #054050"/>
    <path d="M244,163c-1.6-.9-.3-3.9-2.9-4.1a16,16,0,0,0-2.8-8.9c-2.3-3.5-1.2-5.6,2.6-6.6s7.5-4.4,12-4.5c2,1.1,4,.6,6.2.1,8.3-1.8,16.3-5.3,24.9-5.8-.4,3.3,1.6,3.8,4.3,4l62.6,4c8.3.5,16.6,1.3,24.9,1.7a11.2,11.2,0,0,1,8.3,3.8c2.9,3.2,6.5,5.8,9,9.3,4.9,6.8,10.6,9.8,18.7,6,1.8,11.7-1.4,14.6-13.6,12.9-5.6-.8-9.5-4.6-14.2-6.8s-8.7-8.1-12.7-12.6-6.4-5.5-10.7-5.7c-6.1-.2-12.2-1.2-18.4-1.3-15.4-.1-30.8-1.5-46.2-2.7-5.8-.5-11.6-.4-17.4-1.2-3.3-.4-6.1.9-8.9,2.7l-19.9,13.3C248,161.6,246.4,163.2,244,163Z" transform="translate(89.9 107.8)" style="fill: #054050"/>
    <path d="M349.8,92.3l45.3-.4c4.4,0,4.4,4.4,6.9,6.3-7.5,2.8-15.6,1.5-23.3,3.6-2.7.7-5.7.3-8.3,1.2C359.6,106.9,355,99,349.8,92.3Z" transform="translate(89.9 107.8)" style="fill: #c1354a"/>
    <path d="M423,121.1c.2,3.5-.5,7.1,1.1,10.5-3.4,3-8,2.6-12,4.2s-6.3,1.8-9.5,2.7a9.1,9.1,0,0,1-6.7-.3l-32.8-15.1a58,58,0,0,1,26.7-.3A58.6,58.6,0,0,0,423,121.1Z" transform="translate(89.9 107.8)" style="fill: #980a10"/>
    <path d="M362.1,129.6H295.9c4.7-1.8,10-1.6,14.6-1.4,15.9,1,31.9,0,47.8.5C359.6,128.9,361,128.5,362.1,129.6Z" transform="translate(89.9 107.8)" style="fill: #4f0e14"/>
    <path d="M425,135.9a1.6,1.6,0,0,1-2.2.8C423.3,135.8,424.2,135.9,425,135.9Z" transform="translate(89.9 107.8)" style="fill: #f8901e"/>
    <path d="M456,323c1.1-1.9,3.2-2.1,4.9-3.1a10.9,10.9,0,0,1,3.1,8.1c0,3.1.9,5,4.8,4.3s7.4,2.7,9.2,6.7l-4.5,8.4c-5.7-5.3-12.3-5.4-19.3-3.4-1.9.5-3.8.9-4.3-1.9,8.8-5.4,9.3-6.8,5.9-17.8A2.4,2.4,0,0,1,456,323Z" transform="translate(89.9 107.8)" style="fill: #f8901e"/>
    <path d="M449.7,342.4a7.6,7.6,0,0,0,4.6,1.7c-11.1,2.7-16.9,12.3-24.8,19.5l6.7.6c-3.3,4.9-2.7,9.8.1,14.7-1.4,1.8-3.4,1-5.1,1-5.2,0-10.3.1-14.3,4.2-1.5,1.5-3.5.7-5.2.8-7.9.3-15.9-1-23.6,2.2-3.4,2.8-7.8,2.8-11.8,3.6-5.8,1.1-11.3,4.1-17.5,3-1.8-1.1-1-2.6-.4-3.9,2.6-5.2,1.8-9.7-2.2-13.8-1.2-4-4.4-7.4-3.8-12.1,0-2.7.2-5.3,2.2-7.4a10.9,10.9,0,0,1,2.8-1.8c7.1-3.6,14.7-3.3,22.3-3.2,3.5.1,6.9-.1,10.4.1a8.5,8.5,0,0,1,3.8,1c8.2,4.9,16.3,3.3,24.4-.4,5.2-2.4,10-5.3,15-7.9a14.6,14.6,0,0,0,9.3-7.4c1-1.7,2.1-3.4,4.4-3.4,3.4,1.7,1.4,5.2,2.7,7.6A2.6,2.6,0,0,1,449.7,342.4Z" transform="translate(89.9 107.8)" style="fill: #020201"/>
    <path d="M467.1,391.1a25.9,25.9,0,0,1-5.6,6.4c-5.5,2-10.8,4.6-16.8,4.3a9.8,9.8,0,0,0-7.7.2c-13.2,5.7-27.1,6-41.1,5.4-7.5-.3-10.4-4.6-8.5-12.1,2.5-2.1,6.1.5,8.6-2,5.8-1.5,11.5-3.6,17.3-.2,1.8,1,3.2-.3,4.3-1.5,4.9-5,10.9-6.6,17.6-6.5h29.8c1.5,0,3-.2,4.2,1.1Z" transform="translate(89.9 107.8)" style="fill: #ec1d25"/>
    <path d="M396,393.3c-2,3.3-5.4,1-8,1.8s-3.9,1.9-6,2.3c-13.6,2.5-27.1,5.4-39.5,7.4a154.6,154.6,0,0,1,18.9-.1c5.3.2,6.9,2.5,6.5,8.3-3.3,3.9-7.9,2.7-12,2.7a82,82,0,0,1-32.7-5.7c-3.1-1.3-6.1-.3-9.1,1.3s-6.9,4.2-11.1,3.9c-2-5.2-.9-7.9,4.3-9.3,7-1.9,14.1-3.4,21.2-5.2a52.2,52.2,0,0,0,8.1-2.4c6.6-1.1,12.8-3.5,19.3-5.1l1.5-.2h.8c9.2-1,18-4.1,27.2-5.7l2.9-.3C388.2,393.8,388.6,394.1,396,393.3Z" transform="translate(89.9 107.8)" style="fill: #a54d27"/>
    <path d="M447.1,333.7c-2,1.3-3,3.5-4.2,5.5s-4.6,5.7-8.6,6.1c-8.2,2.1-16.5.7-24.8.9a14.6,14.6,0,0,1-12.8-6.5,17.1,17.1,0,0,0-4.4-4c-2.4-2-5.3-1-8.1-1.3s-6.6.9-9.5-1.3c-.8-1.8.2-3.2,1.2-4.5a25,25,0,0,1,2-2.2c13.4-13.8,11.3-8.2,11.5-28.6.1-18.8,0-37.6,0-56.3,0-2.6-.4-5.4,1.3-7.7s3.4-1.2,5.2-1.2c8.2-.3,16.5.7,24.6-1.3a3.4,3.4,0,0,1,2.4.5c2.3,2.7,1.4,6,1.6,9s.3,4.4,2.3,6.2c4.4,3.8,5.1,10.4,2,16-3.5-1.6-5.5-4.7-7.7-7.6s-5.6-7.5-9.4-10.2-6.4-2.9-9.9-1.3-2.6,4.7-2.6,7.4c-.1,7,0,14,0,21a12.4,12.4,0,0,0,1.1,5.8c2.2,4.4,5,4.9,8.6,1.5.9-.9,1.7-2.1,3.7-1.7,1.9,2.2.6,4.5-1.1,5.8-11,8.9-8.2,21.3-8.4,32.9,0,2,1.4,2.3,2.9,2.7,4.1,1.1,8.3.8,12.4.5s8.9,1,10.6,6.1c1.1,3.2,3.7,3.9,6.7,4.1,7.8.6,14.1-3.3,20.4-7,3.5,3.6,3.3,8.1,2.9,12.6s-4.8,6.4-9.2,6.8h0c-1.4-1.6-1.2-3.6-1.3-5.6S449.3,334,447.1,333.7Z" transform="translate(89.9 107.8)" style="fill: #fdc908"/>
    <path d="M428.8,262.9c.1-3.3,0-6.6.4-9.9s-.5-4.2-3-4.8-3.4-2.6-3.3-5.2,0-7.2-.1-10.9a2.1,2.1,0,0,1,.4-2.7l5.6-2.7c.6,4.6-.2,9.3,1.2,13.8s4.2,5.3,8.1,2.4,3.7.2,5.2,1.6,5.1,2.8,8.1,2.8h22c2.3,0,4.7-.2,6.7,1.5l1,1.3c-1.7,3.2-.4,4.6,3,4.6h13.5c-4.4,7.4-10.7,9.4-17.7,11.2,9,6.1,19.2,8.9,29,13,.8,6.8.8,6.9-5.8,7.6s-12.6-1-18.5-3.2l-34-13c-5.9-2.3-6.5-1.8-6.5,4.5,0,1.3.4,2.6-1.4,4.7C438.3,273.7,431.3,270.4,428.8,262.9Z" transform="translate(89.9 107.8)" style="fill: #65341d"/>
    <path d="M423.2,229.5l-.4,2.7c-10.4,3.2-21.2,1.2-31.7,2.1-.6.3-1.1.8-1.8.8-6.1-.6-11,1.7-14.8,6.4-4.5-.4-4.4-5.2-7-7.3-3.3-6.8-5.9-13.9-9.9-20.4-1.2-2-2.1-4.1-1.2-6.6,5.3-4.4,10.1-9.7,17.5-10.7,2.6,1,2.6,4.7,6.1,5.6,4.5-5.8,7.6-12.7,11.3-19.1,7.9-.3,7.8-.3,7.8,7.7q0,6.5,0,13c0,1.4-.4,3.1,1.4,3.9s2.9-.3,4.1-1.2l15.8-12.2a12.2,12.2,0,0,1,2.7-1.2Z" transform="translate(89.9 107.8)" style="fill: #66760e"/>
    <path d="M391.2,182.9c-1,8.3-7.7,13.7-10.4,21.1-5.2-.1-4.8-5-7.3-7.1,2.4-7.2-.9-12.7-5-18.2a63.9,63.9,0,0,1-6.1-10.3c-2.1-4.4-5.3-6.3-10.3-6.1a126.8,126.8,0,0,0-12.9,1.2c-8.2,1.2-16.7.1-24.5,3.4l-20.6,1a6.2,6.2,0,0,0-4.2-3.3c-5.8-1.8-7.9-5.6-6.8-11.4,1.6-1.9,3.9-1.7,6-1.6,18.2.9,36.5.4,54.7,1.8,4.8.4,9.6.1,14.4.2,3.3,0,6.3.8,8.7,3.1l14.6,14.2C382.8,176.5,388.6,178.4,391.2,182.9Z" transform="translate(89.9 107.8)" style="fill: #019fcd"/>
    <path d="M381.7,170.8c-3.3-.2-5.5-2.5-7.2-4.8-6.4-8.5-14.3-11.8-25.2-11.6-22,.4-44.1-1.5-66.2-1.3-6.5-1.3-11.5,1.2-15.9,5.9s-10.8,12.1-17.4,16.8a35.7,35.7,0,0,1-6-12.9l27.7-18.7c3-2.1,6.5-1.3,9.7-1.1,12.7.8,25.5,2,38.2,2.8s27.2,1.3,40.8,2.1a16.5,16.5,0,0,1,11.9,6.4c2.8,3.3,6,6.3,9,9.4,1.1,1.2,2.7,2.1,2.6,4Z" transform="translate(89.9 107.8)" style="fill: #020201"/>
    <path d="M442,245c-1.1-1-2-2.4-3.9-2l-2.2-3.3c-4.2-6.4-3.5-7.9,4.3-9.4,3.7,13.1,8.2,14.4,21.7,13.5-5.8-2.7-5.9-4-.9-8.4s7.6-2.7,11.7-1.6a2.9,2.9,0,0,1,1.5,2.2,9.8,9.8,0,0,1-.5,5.5,7.7,7.7,0,0,1-5.4,4C459.5,246.9,450.7,247.7,442,245Z" transform="translate(89.9 107.8)" style="fill: #52032f"/>
    <path d="M473.2,235.7l-.5-1.9c.8-4.5.5-8.9-1.9-12.7,1.7-2.6,3.8-1.3,5.6-.9a67.2,67.2,0,0,1,7.1,2.2c8,2.7,8.1,3,5.6,10.7h.1a7.1,7.1,0,0,0-1.1,1.1c-1.1,1.1-2.3,2-4,2-2.1-1.7-1.7-4.1-1.8-6.3s-1.2-3.8-3.6-3.7-2.8,1.8-3.2,3.7S476.5,234.6,473.2,235.7Z" transform="translate(89.9 107.8)" style="fill: #019fcd"/>
    <path d="M487,211.6l-13.8.2c-2.1,0-4.1.1-4.1,3-5,.3-9,3.1-13.4,5.1-1.5.7-3.2,2.1-4.4.2s.4-3,1.9-4.3c10-7.9,21.6-5.8,33-5.4C486.6,210.4,486.8,211.2,487,211.6Z" transform="translate(89.9 107.8)" style="fill: #65341d"/>
    <path d="M442,245c6.5,0,12.9-.3,19.4-.1,4.5.1,8.5-.9,11.8-4,1.7-1.4,3.4-1.4,5,.2s1.4,5.2,1.9,7.8l-31.3.2A6.9,6.9,0,0,1,442,245Z" transform="translate(89.9 107.8)" style="fill: #a54d27"/>
    <path d="M478.2,241.2l-5-.2v-5.2c1.2-2.3.3-4.9.6-7.3s2.2-4.4,5.1-4.1,5.1,1.2,4.6,4.4.4,4.9.5,7.3S480.1,239.4,478.2,241.2Z" transform="translate(89.9 107.8)" style="fill: #f7f5f5"/>
    <path d="M488,234.1c0-.8.2-1.2,1.1-1.1S488.5,233.9,488,234.1Z" transform="translate(89.9 107.8)" style="fill: #020201"/>
    <path d="M330.1,674.7c11.2-11.3,22.3-22.7,33.7-33.8,5.1-4.9,7.8-10.3,7.4-17.6s1-8.1,7.9-8.3c3.6-.1,7.3.1,10.9.1-.7,3.2-3.6,4.7-5.7,6.7s-6.7,4.1-2.3,8.6,6,5,10.9.2l23-23c3.7-3.7,5.4-3.4,8,1,1.2,2,2,4.3,3.6,5.9,5,4.9,2.9,9.7.2,14.6l-22.8,41c-1.5,2.7-3.1,5-6.8,4.9Z" transform="translate(89.9 107.8)" style="fill: #ec1d25"/>
    <path d="M435.9,437.9c4,.6,8-.6,12,.7a16.6,16.6,0,0,1-3.9.4c-8.2-1.2-14.3,2.7-20,7.9-1.3,1.7-3.1,1.7-4.9,1.8q-17.8.2-35.6,0a6.9,6.9,0,0,1-4.2-1.1l-3-.7c-2.7-2.1-6.1-2-9.1-2.9-10.6-5.6-22.7-7.2-33.6-11.9-5.2-2.2-10.4-4.3-15.6-6.4-.6-1.8.5-2.9,1.8-3.7,10.3-6.6,21.6-8.1,33.4-6.3a3.9,3.9,0,0,1,2.5,1.6,2.8,2.8,0,0,1,.4.9c.6,4.6.8,9.5,5.3,12.3s11.2,6.3,18.1,6.2c16.5-.2,32.9-.1,49.4,0C431.2,436.5,433.8,436,435.9,437.9Z" transform="translate(89.9 107.8)" style="fill: #980a10"/>
    <path d="M354.8,417.1c-12.2-2.8-23.5-.3-34.3,5.7-1.2.7-2.3,1.3-2.6,2.7l-7.6,1.4a43.8,43.8,0,0,0-6.1-7c-1.5-1.3-2.8-3-.8-5,4.1-2.1,8.2-4.2,12.4-6.2a11.3,11.3,0,0,1,9.6.3c13,5.7,26.7,5.7,40.5,4.7.4,0,.8-.5,1.2-.8s3.4-.9,5.2-.9c11.8.4,23.6.9,35.4-.5,9.7-1.2,18.8-4.5,27.8-8a31.5,31.5,0,0,1,9.7-2.4l11.8-3.5c1.6-.5,3.1-1.3,4.7-.3l-.4,1.4c-.5,2.2-2.3,3.3-4.1,4a413.5,413.5,0,0,1-50.7,17.3,8.4,8.4,0,0,1-2.5.2c-13.6-1.1-27.3-1.2-41-1.7C360.1,418.5,357.2,418.9,354.8,417.1Z" transform="translate(89.9 107.8)" style="fill: #4f0e14"/>
    <path d="M303.3,415c-.6,2.4.7,3.7,2.5,4.8a8.3,8.3,0,0,1,4.4,7.2l-3.1-1a12.6,12.6,0,0,0-2.7-2.1c-9-3.6-8.7-10.9-8.2-18.7.4-5.9,2.6-9.8,8-12.3,3.3-1.5,6.2-3.8,9.3-5.8,6.8-4.2,6.8-4.2,11.5,1.9l10-8c5.3-1.8,4.5,2.8,5.7,5.3s-1.2,4.1-2.3,5.9-2.2,4.4-1.3,7c-7.6,3.7-16,4.6-24,6.8a27,27,0,0,1-4.3.9C303.7,407.3,302,410.1,303.3,415Z" transform="translate(89.9 107.8)" style="fill: #324f57"/>
    <path d="M379.2,447.4l38.3-.4,6.5-.2,12,.2c1.3,0,2.8-.1,3.5,1.3s-.7,2.4-1.6,3.3l-15.6,15.5c-1.3,1.3-2.5,3.6-4.9,2.2s-.6-3.2-.4-4.9a11.8,11.8,0,0,0-.2-2.2c-3.7.4-6,2.9-8.5,4.8-9,6.7-18.7,3.8-22.3-6.9-.7-2.1-2.3-3.3-3.8-4.5S378.3,450.9,379.2,447.4Z" transform="translate(89.9 107.8)" style="fill: #020201"/>
    <path d="M354.8,417.1c16.9-.3,33.8.8,50.7,1.9-.7,2.6-3.1,2.7-5.1,3.3-5.5,1.6-11.2,1.1-16.9,1.2-1.7,0-3.5-.4-6.4,1,9.6.2,18-.4,26.4.2,14,.9,27.1-2.1,39.9-7.3,3.9-1.6,7.9-3.6,12.4-2.5s7.7.6,7.3,6c-4.8,1.5-8.5,5-12.5,7.7s-9.7,6.2-14.6,9.3c-20.1,0-40.3.4-60.4,0-6.8-.2-13-3.6-18.1-8.5S354.7,421.4,354.8,417.1Z" transform="translate(89.9 107.8)" style="fill: #f8901e"/>
    <path d="M455.8,414.8c-5.1,1.6-10.3,2.9-15.2,4.9a79.2,79.2,0,0,1-34.6,6c-9.3-.5-18.7-.1-28-.1-1.6,0-3.8.4-3.7-2.1s2.2-1.4,3.6-1.5c7.1-.4,14.3.7,21.4-.9,2.1-.5,4.3-.7,6-2.2,17.1-4.5,33.6-10.7,50.2-16.8,2-.7,3.7-2.2,5.5-3.3a19.2,19.2,0,0,0,3.5,0c2.1-.4,4.5-1.2,5.9,1s-.9,3.6-1.4,5.5C467.2,412.2,461.2,413.1,455.8,414.8Z" transform="translate(89.9 107.8)" style="fill: #f7f5f5"/>
    <path d="M274.9,346.2H274c-3.3-2.3-2.8-6.1-3.8-9.3-6-20.1-12-40.2-19.3-59.8-1.6-4,1.4-4.7,4-5,6.7-.8,12.8.8,17.5,6.2a99.3,99.3,0,0,0,6.9,7.8c3.7,4.2,7.9,8,11.6,12.3s9.8,5.9,15.5,7.1a2.5,2.5,0,0,1,1,1c.5,2.4-1.3,3.6-2.5,5.1-7.8,9.3-15.7,18.5-23.2,28C279.2,341.4,278.1,344.9,274.9,346.2Z" transform="translate(89.9 107.8)" style="fill: #91cfe3"/>
    <path d="M279.2,287a35.7,35.7,0,0,1-7.3-7.4c-4.4-6.1-10.9-6.9-17.8-6.4-2.2.2-3.1,1.6-3.2,3.7-4.8-4.9-10.5-1.2-15.7-1.5s-11.2.8-16.3-2.2l20.9-.2c5.3-.1,7.2-1.8,7.2-7.1s.1-9.3.1-13.9c5-2.8,10.5-1,15.8-1.4a18.6,18.6,0,0,1,10.1,3.5,10.2,10.2,0,0,0,8.8,2c2.7-.1,4.9,1.5,7.4,2a31.4,31.4,0,0,0,4.7.7,25.1,25.1,0,0,0,7.8.8c8.3-.1,16.6,1,24.9.4,3.2,1.6,1,3.2-.2,4.5s-4,2.9-5.3,4.9,2.5,1.6,2,3.5-2.2,1.5-3.5,1.7a21.2,21.2,0,0,0-12.4,7.8,15.6,15.6,0,0,1-14,6C288.6,288.1,283.7,289.5,279.2,287Z" transform="translate(89.9 107.8)" style="fill: #444922"/>
    <path d="M270.2,336.8c2.7,2.5,2.3,6.4,3.8,9.3-7.4,9.9-16.1,18.8-23,29.1-.8,1.3-2.6,1.9-4,2.8,0-10.9.1-21.9-.1-32.8-.1-4.8,1.9-6.6,6.6-6.3s7.3,0,10.9.1S268.7,338.7,270.2,336.8Z" transform="translate(89.9 107.8)" style="fill: #a54d27"/>
    <path d="M335,351l-17.9,20.6a9,9,0,0,1-7,3.3H287.3c-1.9,0-3.5-.3-4.3-2.5-3-8.4-6.4-16.7-8-25.5,1.6-1.5,3.7-1.4,5.6-1.4,4.3,0,8.6-.2,12.9,0s8.4-1.5,9.9-6.3c3.7-5.4,7.8-10.5,10.4-16.6a10.7,10.7,0,0,1,4.8-4.8c3.8-2.8,4.2-7.6,6.7-11.3,3.8-5.7,7.7-7.7,13.6-6.5a3.6,3.6,0,0,1,1.3.7,3.7,3.7,0,0,1,.7,1.5c.4,3.3-1,6.2-2.7,8.9-7.7,12.3-7.8,25.2-3.1,38.5A2.3,2.3,0,0,1,335,351Z" transform="translate(89.9 107.8)" style="fill: #d8717f"/>
    <path d="M335,351a14.1,14.1,0,0,1-4-11.8,67.9,67.9,0,0,0,0-10.4,24.4,24.4,0,0,1,4.1-15.1c2.3-3.6,4.7-7.2,5.1-11.7s2.2-4.1,5-4.3a40.4,40.4,0,0,1,5.9,0c4.8.6,5.6,3.6,4.8,7.7-3.5,5-8.1,9-11.9,13.8-6.5,8.3-6.6,17.6-5.2,26.9.8,5.7,6.3,7.7,11.2,9.3,1.7.5,3.7,0,5,1.7-.4,2.4-2.3,4.3-2.1,6.8a.6.6,0,0,1-1,0c-.1-1,.1-2.4-1-2.6C344.3,359.9,340.6,354.1,335,351Z" transform="translate(89.9 107.8)" style="fill: #4f0e14"/>
    <path d="M304.9,339c-3,7.9-3.1,8-11.5,8H275a4.5,4.5,0,0,1-.2-.7c1.8-2.6,3.1-5.6,5.9-7.2A38.4,38.4,0,0,1,304.9,339Z" transform="translate(89.9 107.8)" style="fill: #3aa8cc"/>
    <path d="M351.9,364h1l4.3,11.8c-.8,4-3,6.3-7.2,5.9-2.3-.2-3.7.9-4.9,2.7s-2.3,3.8-5.1,2.7-.2-6.7-5-6.2c2.8-2.7,3.1-2.6,5.9,1.9Z" transform="translate(89.9 107.8)" style="fill: #67244b"/>
    <path d="M253,240.3c-6.7-.5-6.6-.7-7.1-7.3-.7-8.1,1.9-14.2,9.5-17.7a7.4,7.4,0,0,0,3.6-3.9c8.4-5.3,16.9-10.5,25.2-16,4.6-3.1,9.4-4.7,15-3.8a19.3,19.3,0,0,0,5.9-.2,20,20,0,0,1,15.1,3.6c5,3.6,10.3,3.9,16.1,2.3,4.1-1.2,8.4-1.8,12.6-2.7,5.8,2.2,6,7.6,7.1,12.4-2.4,6.6-8,8.8-14.2,10a15.3,15.3,0,0,1-5.5-.1l-1.5-.5c-5.5-6.7-12.8-7-20.9-7.6-11.6-.9-20.5,4.3-29.7,9.5-6.1,3.5-12.2,6.7-18.6,9.6-4.4,2-7.5,4.8-7.9,9.9C256.5,239.7,255.3,241.2,253,240.3Z" transform="translate(89.9 107.8)" style="fill: #f8901e"/>
    <path d="M355.4,206.7c-2-4.1-2.8-8.8-6.5-12-.2-6.6-5.4-11.1-7-17.2-.3-1-1.7-1.5-3-1s-4.8.8-5.8-3.3c-6.9,7.1-14.7,3.6-22.1,3.7a3.5,3.5,0,0,1-3.5-2.4c-.7-1.8,1.1-2.5,2.1-3.6s4.6-1.5,5.3-4.2c2.4-2.6,5.7-3.5,9-3.8,10.3-.8,20.6-1.4,30.9-2.2,3.6-.3,5.8,1,7.6,4.2a207.2,207.2,0,0,0,11.2,18.3c3.3,4.7,4,9,.1,13.5-6.4,1.9-10.8,7.3-16.6,10.2C356.3,207.6,355.7,207.6,355.4,206.7Z" transform="translate(89.9 107.8)" style="fill: #52032f"/>
    <path d="M253,240.3l3.9-2.4a6.8,6.8,0,0,1,6.2-3c3.6,1,6.7.2,9.8-1.9s5.1-4.1,8.5-2a4.9,4.9,0,0,1,.3,4.5c-1.8,2.7-4.9,3.3-7.6,4.2-4.9,1.5-9.1,3.5-8.5,9.7.1,1-.9,1.7-1.6,2.4H247.1c.5-3.8-1.8-7.1-2-10.8C247.6,240.4,250.5,241.9,253,240.3Z" transform="translate(89.9 107.8)" style="fill: #3d0356"/>
    <path d="M355,357.2a19,19,0,0,1-11.7-3.1c-4.4-2.9-6.1-6.5-6.5-11.8-1.4-14.9,5.3-25.7,16.2-34.7.6-.5,1.2-1.2,1.8-1.7a3.6,3.6,0,0,1,1.6,3.1c.4,5.4.1,10.9.2,16.3s.1,6.8,6.8,7.4a9.6,9.6,0,0,1,2.9.6c2.2,1.3,1.4,3.1.7,4.7a115.9,115.9,0,0,1-10,18Z" transform="translate(89.9 107.8)" style="fill: #783564"/>
    <path d="M392.6,334.7a5.2,5.2,0,0,1,4.7,3.2c2.7,5.7,7.6,7,13.2,7,8-.1,15.9-.4,23.8.5-5.3,2.8-10.4,5.9-15.8,8.5-9.2,4.3-18.5,5.3-27.4-1.2a16.1,16.1,0,0,0-7.1-2.2c-8-.5-12.6-7.7-10.2-15.7a4.3,4.3,0,0,1,2.5-.6C381.8,334.3,387.2,333.3,392.6,334.7Z" transform="translate(89.9 107.8)" style="fill: #942673"/>
    <path d="M340,387.2a3.7,3.7,0,0,0,3.2-2c1.7-3.4,3.2-6.2,8.2-4.5,2.7.9,3.7-3.2,5.7-4.8,5.8,5,5.8,7.9.8,17.3h.1l-.8.8c-6.6,2-13,5-20.1,5.3-2.7-.6-2.5-2.4-1.5-4.2S338.5,389.7,340,387.2Z" transform="translate(89.9 107.8)" style="fill: #054050"/>
    <path d="M374,335c-.2,4.3,2,7.9,3.2,11.8s3.7,2,5.9,2.1,6.8-.7,8.1,3.7c-3.1.1-6.3.5-9.4.4-8.4-.4-16.8,0-24.8,2.9.3-5.2,4.5-8.6,6.2-13.2,1.1-2.9,2.6-5.7,3.9-8.5s4.3-1.7,6.6-.7A1.1,1.1,0,0,1,374,335Z" transform="translate(89.9 107.8)" style="fill: #67244b"/>
    <path d="M447.1,333.7c1.9-1.1,1.8.4,1.9,1.5s.5,4.8.7,7.1C446.3,340.3,449.1,336.3,447.1,333.7Z" transform="translate(89.9 107.8)" style="fill: #f8901e"/>
    <path d="M445,401.3c-.9,2.8-3.7,1.5-5.6,2.4-23.1,11-47.6,12-72.5,9.5-.2-6.6-.7-7-7.3-7H334.6c4.8-2.9,9.1-2.8,13-3.6,12.6-2.6,25.3-4.9,37.9-7.3a13.2,13.2,0,0,1,2.5,0c.1,9.8,1.1,10.6,10.8,10.9,13.8.4,27.4-.5,40.2-6.5C441.4,398.4,443.4,399.1,445,401.3Z" transform="translate(89.9 107.8)" style="fill: #980a10"/>
    <path d="M357.2,393.8l.8-.8Z" transform="translate(89.9 107.8)" style="fill: #020201"/>
    <path d="M374.1,241.4c3.4-7.8,9.8-8.4,17-7.1,0,23.4-.3,46.9.1,70.3.2,7.8-1.7,13.7-7.7,18.7-3.2,2.7-6.9,5.3-8.5,9.5-4.7.1-5.8-1.7-4.6-7.8a11,11,0,0,0,2.2-7.5,11.1,11.1,0,0,1,4.1-9.7c3.7-3.2,5.1-7.2,4.9-12-.3-9,.5-18-.4-27a52.8,52.8,0,0,0-7.8-23.5C373,243.9,372.8,242.5,374.1,241.4Z" transform="translate(89.9 107.8)" style="fill: #f8901e"/>
    <path d="M370.6,325.4c.9,2.8-.8,7.2,4.4,7.4s9.1,0,13.7.3c1.4.1,3.5-1,3.9,1.6l-16.4.3c-.6-.5-1.5-.4-2.2-.7H367l-3-.3c-9.2-.4-9.2-.4-9.1-9.5q.1-7.7.3-15.3c5.8-2.7,10.2-1.2,12,4.6C368.6,317.5,370.4,321.2,370.6,325.4Z" transform="translate(89.9 107.8)" style="fill: #edb7bf"/>
    <path d="M374.1,241.4l.2,3.5c-1.7,4.6-4.9,8.1-8.4,11.4-1.3,1.3-3,2.1-4.9,1.1-1.6-2.8.7-5,1.4-7.4,1.3-4.4.7-5.4-3.5-4.4s-5.9-.4-8.3-2.1-3.7-2.8-5.7-4c-4.4-7.1-11.7-11.1-17.8-16.3-1.6-1.4-3.6-2.4-5-4.1s-2.3-2.8.2-3.9c4.3-.7,8.7-1.3,12.8,1l.8.2c3.1.8,5.2,3,6.8,5.5,5.7,8.9,13.2,13.7,24.2,11.7a2.3,2.3,0,0,1,1.4.4C371.7,235.2,370.9,239.8,374.1,241.4Z" transform="translate(89.9 107.8)" style="fill: #980a10"/>
    <path d="M368.2,233.9c-8.9,3.1-16.9.7-22.6-6.4-3.1-3.9-6.5-7.5-9.8-11.2,6,0,11.7-1,16.3-5.3,1.3-1.3,2.7-2.4,3.2-4.2l1.7.4c-.3,3.2,1.4,5.7,2.9,8.3A93,93,0,0,1,368.2,233.9Z" transform="translate(89.9 107.8)" style="fill: #a96013"/>
    <path d="M304.9,339H280.8c5.2-8,12.1-14.5,17.8-22.1,2.8-3.7,6.7-6.5,8.4-10.9h0c-8.3-.2-14.9-3.4-19.9-10.2-2.3-3.2-5.3-5.9-7.9-8.8h15.9c4.4,0,8-1.2,10.7-5,4.2-5.9,10.5-8.3,17.2-9.8,3.5-2.4,7.1-2,10.7-.1s0,4.3-1.4,6c-6,7.4-11.7,14.9-17.9,22.1a2.9,2.9,0,0,0-.8,2.6c2.8,1.7,7.7,1.1,8.4,6s-.8,7.1-3,10.2a8.4,8.4,0,0,0-4.2,4.6C312.4,329.4,308.8,334.2,304.9,339Z" transform="translate(89.9 107.8)" style="fill: #019fcd"/>
    <path d="M334.3,272.8c-3.7-1-7.5-.7-11.2-.8l-4.7-.4c1.5-5.4,7.3-6.5,9.8-10.6s7-4.7,11.2-5.3,4.5-1.6,4.6-4.6-.4-5.8-3.5-7.7c-8-5-16.2-9.5-24-14.8a3.9,3.9,0,0,1,.2-3.7c3.1-2.4,5.7-.4,8.2,1.3,6.7,4.4,13.4,8.8,20.4,12.6,1.8-.2,3,.9,4.3,2,3.1,2.8,6.3,5.4,10.9,2.6,1.3-.8,2.5-.2,3.5.8a3.3,3.3,0,0,1,.6,4c-1.2,2.9-2.2,5.8-3.3,8.7.4,2.5-1.3,4.1-2.6,5.6-6.3,7.3-8.1,15.7-6.4,25.1.7,3.7,1.3,7.6-.8,11.1-3.7.8-8.3-1.8-10.9,3l-.5-.9c-1.8-2.7-1.1-5.7-1.2-8.6s-.2-8.6,0-12.8S337.6,273.9,334.3,272.8Z" transform="translate(89.9 107.8)" style="fill: #52032f"/>
    <path d="M317,228.9c7.1,1.7,12.2,7.2,18.6,10.2a57.5,57.5,0,0,1,7.2,4.3c2.8,1.8,4.3,4.1,2.2,7.5-4.8,2.1-6.4,1.7-8.3-2.4-1.1-2.5-3.1-3.8-5.4-4.8-2.8-3.2-6.5-5-10.2-7.1a10.8,10.8,0,0,0-4.2-1.3c-5.8-.6-6.8.6-4.9,6.3.4,2.9,1,5.8-1.3,8.2-1.4.9-2.1-.2-2.7-1.2-2.2-3.5-5.7-3.3-8.2-1.4s-7.4,3.4-11.4,1.6c-1.7,1.6.7,4.3-1.9,5.4-5.2-1.9-6.2-6.7-7.2-11.3-3.1-.5-4.5,1.1-5.2,3.1s1.1,2.8,2.2,4,5.6,3.1,6.1,6.7c-3.1,1.9-5.9,1.3-8.6-.7s-5.9-4.1-9.7-4.2c-.1-1.3.9-2.4.6-3.8-1-4.2,1.5-6.6,4.9-8s7.7-2.8,11.6-4.2c10.1-5.5,20.5-9.3,32.3-8.3A6.1,6.1,0,0,1,317,228.9Z" transform="translate(89.9 107.8)" style="fill: #020201"/>
    <path d="M331.5,242.9c5,.8,5.7,1.5,7.2,7.7,2,.8,4.2.2,6.3.4.6,4-.4,6.4-5.2,6.1s-7.7,2.9-11.7,4c-9.1,1.1-18.1-.2-27.2-.1a23.6,23.6,0,0,1-7.8-1.1c2.4-4,6.1-1.9,9.3-2.1,7.1,1.1,14.1,2,20.5-3,3.4-2.6,6.5-5.2,7-9.8C329.9,244.2,330.2,243.2,331.5,242.9Z" transform="translate(89.9 107.8)" style="fill: #054050"/>
    <path d="M302.5,258.9c-3.1.5-6.4-.7-9.5,1-1.4-.1-3.1.5-4.1-1.1s-3.5-2.2-2.8-4.7-.9-3.5-.9-5.4,3.1-2,5-.8,5.1,1.7,7.1-.7,6.1-2.1,9.3-2,1.7,3.6,3.3,4.9c.1,3.8-3.6,4.9-5.2,7.5C304.1,258.2,303.6,259.1,302.5,258.9Z" transform="translate(89.9 107.8)" style="fill: #52032f"/>
    <path d="M286.2,254.1l2.8,4.7c-2.7.8-4.2-2.1-6.7-2-2.2-1.9-4.5-3.8-6.7-5.8s-4.3-1.3-3.6-4.1a8.5,8.5,0,0,1,5.1-5.7c1-.4,2.2-.3,3.8-.4C280.2,246.4,282.7,250.5,286.2,254.1Z" transform="translate(89.9 107.8)" style="fill: #f8901e"/>
    <path d="M334.3,272.8c3.6-1.7,5.8-1,5.8,3.4-.1,8.3-.2,16.5-.3,24.8-7.7-1.3-11.7,2.8-15,9.1-1.6,3.1-1.2,7.8-5.9,8.8-.2-2.3,1-4.1,1.6-6.2,1.5-5-.3-7.6-5.5-7.7-1.5,0-3.2.2-3.8-1.5s.8-2.7,1.7-3.8l19.5-23.4A6.9,6.9,0,0,0,334.3,272.8Z" transform="translate(89.9 107.8)" style="fill: #cc5063"/>
    <path d="M351.1,298.9c-.4-6.7-1-13.5-1.1-20.2,0-9,6-15.1,11-21.6,4,.2,5.4-3.2,7.6-5.5s3.1-5,5.6-6.7c6.5,8,8,17.7,8.6,27.4s.1,16.9.2,25.4c0,4-1,7.7-4.3,10.1s-5.4,6.7-4.8,11.6c.3,2.7.3,5.5-3.4,6-2.3-2-2.8-4.8-3.5-7.5-2.4-8.9-2.4-8.9-11.7-8.8l-.6-3.2C354.8,302.8,356.5,299.1,351.1,298.9Z" transform="translate(89.9 107.8)" style="fill: #ec1d25"/>
    <path d="M335,216l-14.2.3c-2.6,1.6-5.6,1.3-8.3.9-12.9-1.9-23.7,3.3-34.2,9.7-5.1,3.1-10.6,5.6-15.6,8.8l-5.9,2.1c-.7-5.1,2-7.8,6.3-10,10.7-5.4,21.2-11.1,31.7-16.8a22.5,22.5,0,0,1,12.8-3,56.5,56.5,0,0,0,11-.1C326.1,207,331.2,210.1,335,216Z" transform="translate(89.9 107.8)" style="fill: #a96013"/>
    <path d="M262.7,235.7c.8-2.5,2.9-3.5,5-4.6,4.4-2.4,9.1-4.2,13.1-7.1,12.2-8.9,26-8.7,40-7.7l18.5,14.9c2.6,2.1,5.2,4.1,5.8,7.7-5.2.6-8.2-3.8-12.2-5.8s-6.6-4.3-9.9-6.5a8.4,8.4,0,0,0-6.1-1.5c-1.7,1.4-3.7,1.4-5.7,1.4a126.8,126.8,0,0,1-13-.1c-6.5-.6-11.9,2.3-17.7,4.4a16.3,16.3,0,0,0-7.9,3.8C269.6,237.2,266.3,237.6,262.7,235.7Z" transform="translate(89.9 107.8)" style="fill: #020201"/>
    <path d="M280.7,230.8c3.8-4.2,8.7-5.8,14.1-5.9,7.4-.1,14.8.1,22.2.2v3.9a59.5,59.5,0,0,0-30.7,5.7c-1.6.7-3.5.8-5.2,1.2Z" transform="translate(89.9 107.8)" style="fill: #66760e"/>
    <path d="M374,334.2c.9-.3,1.7-.3,2.2.7H374Q374,334.6,374,334.2Z" transform="translate(89.9 107.8)" style="fill: #783564"/>
    <path d="M307,306l.4-.4c0,.1,0,.2,0,.3l-.3.2Z" transform="translate(89.9 107.8)" style="fill: #91cfe3"/>
    <path d="M302.5,258.9l1.7-2.1a5.6,5.6,0,0,1,4.3-.8c6.4,1.6,10-2.5,13.5-6.6s1.2-4.7-1.6-6.4-6.5-.6-9.6-2.1c-1.4-1.5-2.5-3.3-1.6-5.3s3.4-1.6,5.3-1.5c7,.3,12.4,3.6,16.8,8.8C331.6,255.7,314.6,263.4,302.5,258.9Z" transform="translate(89.9 107.8)" style="fill: #019fcd"/>
    <path d="M310.9,240.9c4-.9,7.9-.7,11.4,1.6s3.7,4.4,1.1,7.8c-5.1,6.6-11.4,8.6-19.2,6.5l5.7-6.7C312,247.2,310.3,244,310.9,240.9Z" transform="translate(89.9 107.8)" style="fill: #f7f5f5"/>
  </g>
</svg>
