<?xml version="1.0" standalone="no"?>
<!DOCTYPE svg PUBLIC "-//W3C//DTD SVG 20010904//EN"
 "http://www.w3.org/TR/2001/REC-SVG-20010904/DTD/svg10.dtd">
<svg version="1.0" xmlns="http://www.w3.org/2000/svg"
 width="850.000000pt" height="850.000000pt" viewBox="0 0 850.000000 850.000000"
 preserveAspectRatio="xMidYMid meet">
<metadata>
Created by potrace 1.14, written by Peter Selinger 2001-2017
</metadata>
<g transform="translate(0.000000,850.000000) scale(0.100000,-0.100000)"
fill="#000000" stroke="none">
<path d="M3725 8303 c-215 -30 -480 -174 -616 -335 -142 -167 -235 -376 -255
-575 -4 -35 -9 -63 -11 -63 -2 0 -21 9 -43 20 -60 31 -178 68 -254 80 -64 10
-76 16 -160 84 -50 40 -145 110 -211 156 -66 46 -149 104 -185 129 -36 25 -75
56 -87 70 -13 13 -23 22 -24 20 0 -2 -2 -42 -3 -89 -3 -74 -11 -109 -65 -266
-64 -190 -91 -321 -91 -451 0 -50 -8 -95 -25 -146 -53 -159 -40 -334 37 -487
24 -47 44 -88 46 -91 2 -4 -8 -9 -21 -13 -14 -3 -39 -22 -57 -43 l-33 -37 -31
35 c-17 20 -36 44 -42 55 -18 29 -32 7 -41 -64 l-8 -64 -58 -24 c-203 -82
-404 -292 -488 -507 -52 -136 -72 -252 -66 -392 7 -150 32 -248 97 -381 l49
-102 -34 -36 c-54 -57 -97 -154 -99 -223 0 -32 3 -71 7 -86 7 -26 6 -27 -12
-18 -57 31 -128 -15 -157 -101 -22 -66 -16 -193 11 -234 11 -18 14 -29 7 -32
-6 -2 -29 -16 -51 -32 -108 -79 -92 -123 81 -219 32 -18 60 -36 63 -42 9 -14
-13 -39 -92 -108 -40 -34 -80 -76 -89 -94 -56 -108 34 -251 209 -332 47 -22
86 -42 87 -45 0 -3 -16 -14 -35 -24 -19 -11 -58 -43 -86 -73 -74 -78 -109
-171 -95 -249 8 -41 64 -106 106 -124 17 -7 30 -15 30 -18 0 -3 -29 -55 -64
-116 -65 -112 -96 -194 -96 -251 0 -56 46 -130 103 -168 71 -46 111 -61 150
-54 l32 5 -3 -73 c-3 -54 1 -82 13 -107 20 -40 84 -108 101 -108 7 0 39 22 72
50 33 27 65 50 70 50 7 0 10 -22 9 -56 -3 -75 11 -84 81 -54 60 26 66 46 30
106 -20 35 -21 37 -4 50 25 18 42 9 86 -49 l38 -51 -19 -24 c-26 -34 -24 -49
14 -87 31 -31 88 -55 130 -55 31 0 75 54 92 115 19 65 46 98 78 93 18 -3 23
-13 33 -86 15 -103 38 -166 71 -192 33 -26 87 -26 113 0 11 11 28 20 38 20 10
0 33 16 52 35 44 45 62 46 49 3 -12 -44 -11 -85 2 -94 6 -3 31 13 55 37 39 38
44 41 50 23 26 -73 95 -69 183 10 17 15 25 17 28 8 7 -18 57 -42 89 -42 48 0
107 24 139 56 l32 32 18 -57 c74 -235 299 -488 550 -618 129 -66 267 -110 403
-128 48 -6 52 -9 46 -28 -4 -12 -8 -82 -8 -156 -1 -108 1 -134 13 -139 8 -3
21 4 29 16 19 29 101 89 133 97 29 7 55 -16 61 -55 5 -43 33 -36 52 14 10 27
49 80 98 133 44 48 91 105 105 126 14 20 29 37 33 37 4 0 12 -17 18 -38 49
-164 286 -360 448 -370 l64 -4 0 31 c0 17 3 31 6 31 4 0 33 -25 66 -56 104
-95 189 -154 313 -215 417 -204 893 -156 1271 127 92 69 255 239 320 334 175
255 263 530 270 843 l4 158 107 66 c122 73 473 313 473 322 0 3 -57 6 -127 6
-143 0 -214 12 -443 77 -95 27 -151 48 -163 61 -10 11 -16 21 -14 23 2 2 37
-3 78 -12 135 -29 258 -9 419 68 92 45 115 61 195 142 103 103 158 196 197
332 30 107 30 283 0 397 -46 169 -137 323 -260 438 -111 105 -223 173 -362
217 -183 59 -409 56 -594 -8 l-56 -19 54 67 c239 298 329 647 260 1012 -27
144 -96 314 -174 431 -64 95 -212 236 -306 290 -316 184 -699 186 -1001 5 -52
-32 -73 -40 -68 -28 39 102 50 306 21 424 -49 205 -195 409 -379 531 -117 78
-325 157 -411 157 -33 0 -33 7 0 41 17 18 27 40 28 61 1 22 16 55 48 99 96
133 138 268 138 439 0 278 -136 533 -365 685 -156 104 -305 146 -510 143 -66
0 -133 -3 -150 -5z m305 -54 c87 -14 217 -59 288 -100 31 -19 100 -77 152
-129 82 -81 103 -109 142 -190 26 -52 54 -122 63 -155 25 -95 30 -236 11 -335
-17 -93 -74 -221 -125 -280 l-30 -35 -32 40 c-38 47 -118 127 -171 172 l-36
31 15 43 c8 24 15 77 15 117 -1 90 -38 179 -104 245 -144 144 -399 139 -559
-10 -61 -57 -88 -96 -119 -178 -33 -86 -34 -231 -2 -334 22 -70 23 -76 7 -87
-9 -7 -27 -27 -40 -44 -23 -31 -26 -32 -107 -35 -138 -4 -270 -49 -383 -129
l-50 -36 -13 37 c-69 202 -70 517 0 733 107 332 405 591 753 655 87 16 239 18
325 4z m-1917 -606 c38 -49 127 -151 197 -228 257 -284 336 -391 414 -556 41
-87 76 -194 76 -233 0 -9 -93 78 -207 194 -114 116 -256 253 -317 304 -177
149 -396 290 -411 265 -8 -13 -10 -12 45 -39 71 -36 237 -151 341 -239 125
-104 519 -494 519 -513 0 -3 -55 12 -122 34 -197 63 -491 116 -745 134 -64 5
-93 4 -93 -4 0 -12 26 -16 195 -32 227 -22 518 -80 682 -137 l52 -18 -157 -1
c-133 0 -174 -4 -271 -27 -88 -21 -118 -24 -128 -15 -11 9 -19 6 -36 -14 -12
-14 -30 -28 -40 -32 -14 -4 -16 -1 -11 19 7 29 3 30 -34 11 -43 -22 -73 -61
-92 -117 l-18 -51 -29 43 c-120 174 -177 380 -176 634 0 193 19 297 89 500 38
111 57 182 61 232 l6 72 70 -50 c45 -31 95 -80 140 -136z m1959 61 c100 -32
185 -143 195 -256 5 -51 -11 -148 -24 -148 -3 0 -17 8 -31 18 -85 59 -179 59
-210 1 -9 -17 -22 -24 -43 -25 -17 -1 -43 -11 -59 -23 l-29 -21 -16 29 c-8 17
-15 50 -15 74 0 39 -3 45 -24 49 -40 8 -41 -45 -1 -167 5 -17 -8 -27 -99 -72
l-106 -53 -15 36 c-43 104 -39 259 11 362 67 137 229 231 374 216 25 -3 66
-12 92 -20z m-1782 -150 c356 -269 539 -526 582 -816 11 -70 10 -80 -7 -112
-11 -20 -23 -36 -26 -36 -4 0 -10 21 -14 47 -15 105 -80 262 -153 377 -46 71
-154 207 -251 316 -213 238 -291 328 -291 335 0 8 35 -16 160 -111z m387 -210
c26 -9 73 -30 104 -47 l56 -30 7 -106 c7 -115 26 -215 57 -318 14 -44 17 -69
11 -75 -7 -7 -14 4 -22 33 -47 186 -167 396 -299 524 -23 21 -41 42 -41 46 0
8 60 -5 127 -27z m1500 -35 c98 -47 290 -225 319 -294 7 -18 20 -37 28 -45 23
-18 20 -41 -11 -79 l-28 -33 -112 126 c-123 137 -237 239 -308 277 -50 27 -55
40 -22 64 27 20 71 15 134 -16z m-106 -81 c30 -19 89 -68 131 -109 l77 -74
-15 -90 c-18 -112 -55 -250 -89 -334 -36 -87 -130 -274 -171 -338 -31 -49 -38
-83 -18 -90 16 -5 203 277 260 392 69 140 92 237 77 333 -5 37 -13 76 -17 87
-9 23 55 -43 129 -135 l53 -65 -13 -100 c-14 -108 -36 -212 -61 -287 -13 -39
-20 -48 -38 -48 -29 0 -72 -33 -91 -70 -18 -35 -20 -101 -3 -118 15 -15 -17
-51 -84 -95 -27 -16 -48 -34 -48 -39 0 -13 24 -9 48 8 47 33 11 -49 -40 -91
-18 -14 -42 -42 -53 -61 -11 -19 -44 -73 -74 -120 -30 -48 -75 -129 -101 -180
l-47 -93 -26 27 c-23 23 -57 98 -57 123 0 4 28 23 62 41 39 20 75 50 100 81
21 27 38 52 38 55 0 4 12 13 28 20 27 12 63 59 76 100 12 38 -11 24 -38 -23
-15 -24 -36 -50 -48 -56 -30 -16 -59 9 -148 126 -41 55 -89 107 -105 117 -21
12 -67 20 -142 26 -80 6 -119 14 -139 27 l-28 18 69 22 c43 14 78 33 92 50 31
36 18 54 -16 21 -106 -102 -321 -56 -321 69 0 15 -8 34 -17 41 -31 22 -24 101
15 164 21 34 30 56 23 63 -11 11 -54 -49 -72 -102 l-12 -34 -15 29 c-25 47
-20 133 12 198 47 96 203 246 257 246 16 0 31 11 46 34 31 48 71 76 208 145
66 33 143 75 170 95 62 44 100 43 176 -6z m-730 -318 c-116 -96 -181 -210
-181 -313 0 -51 27 -128 49 -141 6 -4 11 -17 11 -29 0 -13 6 -31 13 -42 7 -11
19 -38 26 -60 7 -22 15 -45 17 -52 4 -9 -2 -10 -23 -4 -54 17 -62 23 -83 65
-21 44 -28 146 -10 146 19 0 10 21 -13 29 -39 15 -75 67 -83 119 -9 61 10 174
39 226 19 35 32 44 87 64 73 26 129 39 178 41 l33 1 -60 -50z m-286 -103 c-8
-26 -15 -68 -16 -93 -2 -31 -9 -50 -21 -59 -60 -41 -76 -171 -34 -260 36 -78
87 -115 159 -115 42 -1 60 -16 84 -70 11 -25 34 -60 52 -78 l33 -32 -54 0
c-29 0 -71 5 -93 11 -50 14 -105 68 -105 104 0 19 -15 40 -55 77 -71 64 -118
157 -123 242 -3 53 0 66 23 100 24 35 25 40 10 56 -15 17 -14 21 17 56 34 39
128 117 134 111 2 -1 -3 -24 -11 -50z m-1295 -117 c24 -96 100 -262 154 -332
34 -44 47 -88 27 -88 -20 0 -119 121 -154 187 -50 96 -67 168 -66 283 1 104 2
103 39 -50z m2861 79 c214 -54 405 -183 532 -361 152 -212 181 -500 74 -732
-32 -69 -136 -205 -200 -261 -97 -86 -253 -144 -384 -145 -56 0 -153 17 -166
30 -9 8 45 66 110 117 26 21 54 59 81 110 30 59 52 86 86 110 109 77 161 236
121 368 -14 48 -14 50 13 83 55 68 62 86 62 144 0 70 13 106 48 135 18 14 24
25 17 32 -12 12 -227 -42 -355 -88 -69 -26 -103 -32 -181 -34 l-95 -3 17 36
c41 85 85 264 104 423 4 34 12 57 19 57 7 0 50 -9 97 -21z m-1572 -181 c7 -23
26 -54 42 -70 24 -25 29 -38 29 -81 1 -29 7 -69 14 -89 l14 -38 -29 0 c-38 0
-92 49 -114 103 -23 54 -23 142 -1 185 9 17 20 32 25 32 4 0 13 -19 20 -42z
m-344 -46 c-6 -5 -35 -14 -65 -22 -83 -20 -201 -67 -266 -106 l-59 -36 -47 54
c-26 29 -48 56 -48 60 0 6 145 41 210 51 50 8 284 7 275 -1z m194 -158 l29
-53 -25 -16 c-58 -38 -232 -71 -247 -47 -4 6 35 66 85 134 50 67 94 129 97
137 3 8 12 -11 19 -44 7 -32 26 -82 42 -111z m-105 134 c-37 -62 -217 -286
-236 -295 -14 -6 -53 -37 -86 -68 l-62 -57 0 47 c0 38 7 56 34 94 60 81 255
256 227 203 -6 -11 -16 -24 -21 -27 -9 -6 -118 -146 -133 -172 -4 -6 -3 -14 2
-18 5 -3 38 32 72 77 55 73 196 228 206 228 2 0 1 -6 -3 -12z m-468 -198 c13
-19 29 -56 35 -82 19 -71 1 -116 -82 -204 -38 -40 -69 -69 -69 -65 0 21 42 99
64 121 43 39 27 110 -25 110 -22 0 -34 -36 -26 -83 4 -20 -3 -55 -18 -97 -13
-36 -27 -78 -31 -95 l-7 -30 -9 40 c-5 22 -8 70 -5 108 4 56 9 71 30 91 32 29
44 71 27 91 -17 20 -32 19 -61 -4 -15 -12 -34 -17 -50 -14 -17 3 -31 -2 -44
-17 -19 -20 -19 -23 -3 -51 13 -21 16 -42 11 -78 -7 -58 15 -135 53 -194 36
-55 24 -56 -23 -3 -95 108 -150 370 -108 514 21 70 85 144 85 98 0 -32 50 -24
83 12 19 21 19 20 84 -56 36 -42 76 -93 89 -112z m374 186 c0 -2 -19 -16 -42
-31 -67 -44 -157 -124 -209 -188 l-48 -57 -22 42 c-12 24 -28 53 -36 65 -14
20 -11 23 54 59 77 44 303 126 303 110z m2241 -164 c-6 -12 -11 -45 -11 -76 0
-65 -10 -95 -50 -144 -42 -53 -80 -142 -144 -342 -73 -224 -113 -299 -194
-365 -39 -31 -75 -73 -98 -111 -19 -33 -44 -66 -55 -72 -11 -7 -53 -19 -93
-27 -41 -7 -106 -30 -145 -49 -77 -39 -172 -66 -237 -66 -34 0 -144 25 -144
33 0 2 20 61 43 132 43 127 171 420 188 431 26 16 -22 -230 -87 -448 -3 -11 0
-18 9 -18 15 0 62 161 96 325 l16 80 3 -112 c1 -62 -4 -154 -12 -210 -9 -58
-11 -102 -6 -107 12 -12 17 2 30 84 16 103 22 279 12 348 -5 34 -6 62 -2 62 4
0 26 -41 49 -91 41 -90 73 -193 86 -276 11 -68 29 -53 22 17 -10 87 -61 234
-118 336 -47 84 -56 104 -43 104 23 0 140 -95 250 -203 73 -71 135 -124 138
-118 9 14 -188 217 -263 271 -33 24 -59 46 -57 48 11 11 219 -36 331 -74 180
-62 168 -59 163 -43 -11 34 -301 124 -435 136 -40 3 -73 9 -73 12 1 7 190 116
278 160 94 47 228 89 310 97 88 8 94 29 7 25 -130 -6 -322 -80 -514 -200 -46
-28 -85 -50 -87 -49 -9 10 63 96 94 114 20 12 107 71 192 132 85 61 200 135
255 163 55 29 102 55 105 59 5 8 193 59 198 55 2 -2 -1 -12 -7 -23z m-551 2
c0 -13 -75 -144 -82 -144 -16 0 -19 49 -4 78 21 42 86 91 86 66z m-2574 -35
c14 -16 20 -43 25 -113 5 -64 14 -106 28 -134 32 -62 111 -151 184 -207 36
-27 66 -53 66 -56 1 -8 -103 -29 -141 -29 -41 0 -85 25 -102 58 -8 15 -19 53
-25 85 -6 32 -14 64 -18 72 -5 7 -48 51 -97 96 -86 81 -136 154 -136 202 0 15
6 13 31 -12 38 -39 54 -39 74 -2 17 33 51 61 76 61 9 0 24 -9 35 -21z m1173
-41 c22 -21 41 -42 41 -47 0 -21 -108 -102 -168 -126 -36 -14 -66 -24 -69 -21
-2 2 3 18 11 35 24 45 20 51 -33 51 -42 0 -49 3 -54 23 -2 12 -8 30 -12 40 -6
14 -2 17 28 17 59 0 134 20 169 45 18 13 36 22 39 22 4 -1 25 -19 48 -39z
m-1399 -38 c0 -20 59 -104 93 -133 12 -10 47 -43 78 -73 52 -50 58 -59 69
-119 14 -72 42 -123 80 -143 25 -13 121 -11 196 4 24 4 33 2 38 -11 9 -23 -18
-42 -72 -51 -212 -33 -451 214 -497 515 -5 31 -4 42 4 37 6 -4 11 -16 11 -26z
m2920 -28 c-41 -27 -115 -77 -165 -113 -118 -85 -113 -83 -107 -54 2 15 24 39
54 61 50 37 265 153 283 154 6 0 -24 -22 -65 -48z m-1121 11 l64 -19 -37 -37
c-58 -58 -106 -45 -155 43 l-24 42 44 -5 c24 -3 73 -14 108 -24z m-705 -5 c9
-12 16 -35 16 -50 0 -27 1 -27 45 -21 51 6 53 2 25 -45 -21 -34 -74 -72 -101
-72 -9 0 -43 -13 -75 -30 -32 -16 -72 -30 -89 -30 -40 -1 -103 -30 -148 -70
-21 -18 -40 -30 -44 -26 -3 3 -1 23 6 45 37 125 236 320 328 321 12 0 29 -10
37 -22z m1766 17 c0 -2 -21 -16 -47 -29 -27 -14 -64 -36 -83 -48 l-35 -23 30
38 c20 25 45 42 75 52 51 15 60 17 60 10z m-2265 -51 c-16 -25 -18 -25 -33
-10 -16 16 -15 19 7 37 33 27 50 10 26 -27z m-239 13 c1 -1 9 -38 19 -82 9
-44 30 -109 47 -145 l29 -65 -56 55 c-77 75 -115 142 -115 204 l0 48 38 -7
c20 -4 38 -8 38 -8z m154 -27 c0 -34 -14 -39 -29 -12 -7 13 -6 23 1 30 19 19
28 14 28 -18z m180 -20 c0 -20 -23 -43 -33 -33 -4 3 -7 18 -7 33 0 15 3 30 7
33 10 10 33 -13 33 -33z m886 -56 c63 -18 164 -15 190 7 20 16 23 11 35 -62
11 -70 46 -155 84 -205 l24 -31 -25 -12 c-14 -6 -55 -16 -92 -22 -173 -28
-393 81 -491 245 -19 31 -32 58 -30 59 2 1 25 13 51 26 26 13 64 38 85 56 l37
31 37 -37 c26 -26 56 -43 95 -55z m-1592 29 c27 -85 79 -184 132 -248 25 -31
44 -58 42 -59 -2 -1 -23 -11 -48 -21 -142 -62 -241 -257 -213 -419 24 -138
118 -262 251 -329 148 -74 288 -75 455 -2 15 6 17 -1 17 -76 0 -46 5 -137 10
-201 9 -113 9 -118 -14 -158 l-23 -41 -12 60 c-15 79 -43 114 -85 108 -17 -2
-38 -7 -46 -10 -11 -5 -24 9 -47 46 -74 123 -168 196 -234 182 -17 -4 -49 -23
-71 -43 l-39 -35 -32 31 c-36 34 -110 71 -144 72 -33 0 -71 -20 -89 -48 -24
-37 -34 -77 -44 -185 -4 -54 -11 -102 -15 -105 -9 -9 -111 100 -168 179 -213
300 -230 682 -45 993 56 94 164 212 245 267 53 37 172 99 189 99 6 0 18 -26
28 -57z m1926 -8 c0 -84 71 -194 154 -238 57 -30 153 -29 218 2 l47 23 30 -23
30 -22 -31 -40 c-18 -22 -49 -52 -70 -68 -175 -126 -429 43 -468 311 -7 51 -6
57 17 82 22 23 29 25 49 16 18 -8 24 -19 24 -43z m-1367 -49 c-4 -59 -1 -112
6 -141 17 -68 5 -68 -25 0 -32 75 -40 141 -20 175 9 14 19 33 22 43 15 41 22
10 17 -77z m251 52 c-3 -18 -26 -70 -50 -116 -24 -46 -44 -89 -44 -97 0 -17
-65 -22 -74 -6 -12 19 16 64 83 135 38 40 72 82 75 94 11 34 18 26 10 -10z
m1322 6 c18 -2 44 -14 58 -25 36 -28 138 -167 131 -178 -9 -16 -97 -41 -140
-41 -53 0 -136 41 -168 84 -39 51 -66 128 -58 166 1 6 129 2 177 -6z m-846
-111 c58 -111 205 -222 340 -258 77 -21 193 -19 259 4 42 15 58 17 73 8 25
-16 23 -24 -9 -41 -105 -53 -260 -71 -364 -40 -138 41 -257 142 -322 273 -41
83 -45 101 -19 101 10 0 27 -18 42 -47z m-80 13 c0 -7 16 -46 36 -85 l36 -71
-24 -20 c-51 -43 -187 -64 -267 -41 -23 6 -22 8 27 40 53 34 129 111 159 162
18 31 33 38 33 15z m-59 -13 c-20 -38 -93 -112 -141 -143 -61 -39 -156 -70
-216 -70 -57 0 -57 17 -3 71 48 48 110 78 160 79 19 0 40 5 46 11 7 7 99 46
161 68 1 1 -2 -7 -7 -16z m2116 -109 c-7 -74 -34 -139 -73 -175 l-26 -24 7 25
c40 133 79 240 88 240 6 0 8 -23 4 -66z m-2552 -57 c18 -29 11 -77 -17 -106
-23 -25 -30 -26 -68 -6 -31 16 -44 46 -38 86 2 17 13 28 38 36 52 18 68 16 85
-10z m600 -8 c12 -19 -42 -86 -88 -108 l-44 -21 -63 32 -64 33 65 6 c65 6 118
24 154 53 24 18 32 20 40 5z m3136 -4 c350 -61 620 -299 739 -651 44 -129 60
-230 60 -376 0 -603 -433 -1079 -1075 -1183 -49 -8 -119 -15 -153 -15 -61 0
-66 2 -115 45 -60 53 -173 112 -229 121 -39 7 -53 24 -19 24 34 0 183 51 243
82 71 38 141 111 174 181 37 82 86 279 71 289 -6 4 -19 0 -28 -8 -18 -16 -29
-9 -29 18 0 13 8 18 28 18 52 0 182 39 251 75 251 132 348 434 221 685 -93
184 -300 272 -497 211 -203 -62 -304 -274 -222 -461 74 -167 288 -225 419
-112 70 59 97 137 79 222 -12 57 -20 65 -48 50 -17 -9 -19 -15 -11 -36 26 -67
-2 -162 -57 -202 -85 -60 -219 -47 -290 30 -65 70 -83 209 -39 303 27 58 90
118 155 149 72 33 207 30 283 -6 84 -39 149 -104 189 -190 29 -63 34 -86 37
-168 3 -78 0 -107 -18 -160 -42 -126 -124 -220 -244 -279 -85 -41 -271 -78
-203 -40 9 6 17 14 17 19 0 18 -24 10 -51 -16 -27 -25 -28 -26 -99 -15 -194
30 -352 147 -439 325 -59 119 -75 191 -75 326 1 162 42 301 117 394 19 23 47
61 64 86 57 85 217 188 361 235 137 44 292 55 433 30z m-3454 -66 c108 -38
161 -68 202 -114 42 -48 43 -100 4 -137 -59 -53 -88 -68 -126 -61 -39 6 -64
-7 -76 -40 -6 -17 -12 -16 -76 18 -105 54 -193 147 -223 233 -10 29 -8 35 14
58 13 15 24 30 24 34 0 5 28 11 63 15 34 4 71 11 82 16 11 4 21 8 22 8 1 1 41
-13 90 -30z m386 -5 c48 -41 165 -99 218 -109 34 -6 36 -9 46 -63 7 -31 14
-69 18 -83 6 -23 3 -28 -34 -43 -23 -9 -69 -16 -105 -16 -115 0 -230 79 -287
198 -19 38 -20 47 -8 50 8 3 34 26 59 52 25 26 47 48 48 49 2 0 23 -15 45 -35z
m-1115 -13 c35 -24 99 -51 123 -51 11 0 19 -4 19 -10 0 -5 -11 -10 -24 -10
-64 0 -144 -48 -170 -104 -23 -48 -64 -96 -93 -107 -30 -11 -30 -29 1 -29 13
0 34 -8 46 -18 20 -16 21 -21 11 -41 -7 -13 -11 -24 -9 -26 2 -2 73 -18 158
-35 221 -45 283 -32 335 73 14 29 23 42 20 30 -9 -32 -35 -234 -35 -271 0 -31
-4 -35 -62 -62 -90 -41 -174 -54 -260 -40 -232 40 -394 240 -357 444 13 75 39
125 92 184 41 44 124 92 160 92 11 0 31 -8 45 -19z m332 -25 c0 -3 -9 -20 -20
-39 -11 -19 -27 -72 -35 -118 -24 -136 -59 -166 -212 -178 -54 -5 -105 -12
-114 -15 -13 -6 -16 -2 -12 17 4 18 -2 30 -22 45 l-27 22 27 32 c15 18 39 54
55 79 34 56 65 71 195 98 57 12 110 29 125 40 24 19 40 26 40 17z m1445 -13
c29 -14 35 -22 35 -47 1 -71 50 -154 121 -206 l39 -28 -53 -22 c-77 -34 -177
-32 -251 4 -66 32 -119 90 -140 154 -25 72 -23 77 42 90 31 7 82 25 112 41 30
16 56 30 57 30 1 1 18 -7 38 -16z m-1388 -74 c33 -177 -10 -296 -115 -320 -29
-6 -65 -4 -124 6 -46 9 -98 18 -115 22 -54 10 -37 23 30 23 87 0 136 16 178
59 36 36 46 64 64 181 6 44 42 103 58 97 7 -2 17 -33 24 -68z m1553 15 c0 -36
23 -86 59 -127 27 -30 30 -39 21 -57 -13 -24 -13 -24 -48 -6 -67 35 -132 131
-132 193 0 27 1 28 50 25 45 -4 50 -6 50 -28z m-1455 -119 c19 -24 61 -61 94
-82 32 -21 67 -44 77 -50 17 -11 15 -12 -11 -7 -63 12 -127 37 -154 60 -32 26
-66 99 -76 159 l-6 40 20 -39 c11 -21 36 -57 56 -81z m1005 55 c25 -103 117
-194 222 -221 72 -17 165 -8 228 23 30 15 55 26 57 25 1 -2 -6 -25 -15 -51
-15 -42 -23 -52 -61 -69 -134 -60 -304 -16 -421 109 -60 65 -100 146 -100 204
0 28 2 30 39 30 39 0 39 -1 51 -50z m-460 -71 c87 -83 225 -119 320 -84 74 27
77 28 84 9 8 -21 -17 -50 -69 -77 -31 -17 -58 -22 -120 -22 -72 0 -86 3 -141
33 -34 18 -80 53 -104 77 -41 42 -42 44 -29 74 8 17 14 31 15 31 0 0 20 -19
44 -41z m-67 -65 l18 -24 -38 -16 c-27 -12 -57 -15 -106 -11 -73 5 -87 11 -69
29 9 9 19 10 43 1 28 -11 35 -9 71 18 49 35 58 36 81 3z m-376 -107 c44 -30
49 -67 19 -132 -38 -84 -115 -159 -185 -180 l-24 -7 7 88 c8 100 34 312 41
333 4 9 21 -1 58 -33 28 -26 66 -57 84 -69z m447 44 c16 -18 15 -20 -13 -44
-83 -70 -221 -76 -349 -17 -87 40 -112 62 -55 50 48 -11 170 -17 177 -9 4 3
28 4 54 2 30 -2 65 4 97 16 66 24 69 24 89 2z m462 -22 c16 -17 51 -43 77 -59
l48 -27 3 -108 2 -107 -66 4 c-134 10 -272 107 -304 215 -6 19 -2 22 48 33 32
6 76 26 103 45 27 18 51 33 54 34 3 1 18 -13 35 -30z m-387 -24 c23 -12 29
-22 34 -64 6 -53 37 -122 70 -158 l20 -23 -44 -20 c-113 -51 -252 -2 -340 120
l-40 55 64 7 c68 6 149 41 181 77 23 25 20 25 55 6z m2082 -3 c-15 -28 -41
-167 -41 -218 l0 -47 -51 84 c-27 46 -54 88 -59 93 -6 6 17 24 60 48 38 21 72
43 75 48 11 18 26 11 16 -8z m-1974 -34 c6 -7 16 -31 23 -53 15 -47 99 -134
158 -164 53 -27 165 -53 211 -49 27 2 37 -1 39 -14 4 -23 -47 -32 -142 -26
-84 5 -178 44 -239 97 -38 34 -91 133 -101 189 -5 29 -3 32 18 32 13 0 28 -6
33 -12z m-421 -77 c21 -51 112 -138 173 -168 76 -37 165 -38 234 -4 l49 24 21
-21 c26 -27 15 -42 -60 -78 -181 -89 -432 13 -524 211 -15 33 -31 72 -34 86
l-6 26 67 -23 c56 -19 69 -27 80 -53z m917 22 c27 -5 27 -7 27 -82 0 -108 21
-173 75 -226 31 -32 42 -50 38 -64 -5 -20 -5 -20 -42 -1 -49 24 -107 90 -133
148 -15 34 -22 75 -26 146 -4 94 -3 99 14 92 11 -4 31 -10 47 -13z m232 7
c-11 -18 -45 -140 -64 -230 -10 -47 -22 -84 -27 -84 -5 1 -21 17 -36 35 -32
40 -58 132 -58 205 l0 51 61 7 c33 4 70 11 82 16 30 12 49 12 42 0z m738 -21
c48 -12 229 -8 274 6 19 6 28 -3 67 -64 97 -150 170 -328 207 -501 18 -85 23
-139 23 -278 l1 -174 -30 -23 c-16 -13 -30 -23 -31 -22 -1 1 2 26 7 55 8 40 6
67 -5 113 -21 81 -49 126 -152 244 -47 55 -95 117 -105 138 -19 36 -39 42 -39
12 0 -19 -21 -30 -30 -15 -17 27 -133 -193 -166 -315 -28 -103 -8 -255 51
-383 14 -30 25 -56 25 -58 0 -2 -25 -4 -55 -4 -30 0 -115 -13 -188 -29 -167
-36 -197 -42 -197 -35 0 2 11 27 25 53 41 81 65 186 65 283 0 118 -14 176 -67
288 -39 80 -58 107 -132 180 -105 104 -186 153 -333 203 -15 5 -15 12 3 94 11
48 22 89 24 91 2 2 21 -2 42 -9 93 -30 235 -9 363 56 37 18 95 39 130 45 69
12 109 29 130 55 7 8 20 13 29 11 9 -3 38 -10 64 -17z m-2014 -68 c21 -45 22
-50 8 -78 -37 -71 -145 -145 -235 -159 l-42 -7 0 37 c0 26 5 38 18 42 80 24
163 97 199 175 10 21 21 39 24 39 3 0 16 -22 28 -49z m199 -195 c36 -18 52
-32 52 -46 0 -29 30 -99 62 -147 15 -23 28 -44 28 -47 0 -14 -70 -68 -107 -82
-58 -22 -153 -15 -218 16 -64 31 -155 121 -189 188 -25 48 -25 53 -9 59 87 30
151 76 195 138 l32 45 51 -49 c28 -27 75 -61 103 -75z m562 4 c20 -10 28 -249
8 -262 -7 -4 -40 -8 -74 -8 -100 0 -204 69 -266 177 l-18 30 68 17 c42 10 88
31 122 54 l55 38 45 -19 c25 -11 52 -23 60 -27z m240 1 c0 -20 86 -104 129
-126 45 -22 47 -25 43 -60 l-4 -37 -47 6 c-69 9 -129 52 -178 125 -24 34 -43
66 -43 70 0 5 19 13 43 18 57 14 57 14 57 4z m-104 -66 c31 -62 107 -139 157
-159 17 -8 51 -17 75 -21 33 -5 42 -11 42 -27 0 -19 -5 -20 -58 -16 -71 5
-138 37 -192 91 -42 42 -82 109 -94 160 -6 24 -4 27 18 27 19 0 29 -11 52 -55z
m-1856 15 c19 -10 48 -32 64 -49 17 -17 34 -31 38 -31 5 0 26 18 47 40 51 53
99 56 163 7 36 -28 137 -162 151 -200 3 -9 13 -7 35 6 16 9 37 17 46 17 26 0
47 -44 61 -131 10 -68 10 -96 0 -158 -22 -127 -48 -509 -42 -611 7 -106 51
-294 91 -385 35 -78 11 -56 -64 61 -80 124 -165 301 -189 394 -10 41 -24 76
-30 78 -8 3 -10 -5 -6 -25 40 -182 140 -379 312 -611 30 -41 53 -76 50 -78 -2
-3 -31 24 -64 59 -182 195 -296 409 -361 677 -36 149 -36 150 -13 150 11 0 23
5 26 10 3 6 18 10 32 10 31 0 63 26 63 50 0 10 7 23 16 31 11 9 15 25 12 50
-2 27 1 40 14 48 22 13 24 54 4 71 -12 9 -12 17 -4 35 7 16 8 29 2 37 -6 7 -9
45 -8 83 1 39 -2 84 -6 100 -5 17 -12 42 -15 57 -3 15 -14 29 -25 33 -11 3
-20 13 -20 20 0 8 -11 22 -25 31 -23 15 -27 15 -50 0 -13 -9 -31 -16 -39 -16
-8 0 -36 -14 -61 -31 -35 -23 -45 -36 -42 -50 4 -15 -6 -24 -48 -43 -54 -25
-70 -45 -60 -77 4 -12 1 -19 -6 -19 -39 0 -66 -79 -38 -107 8 -8 6 -17 -10
-34 -24 -26 -28 -81 -7 -98 10 -8 13 -23 9 -45 -4 -25 -1 -37 13 -47 11 -8 26
-28 34 -44 9 -17 25 -31 37 -33 12 -2 27 -10 33 -18 7 -8 22 -14 35 -14 20 0
23 -6 28 -69 3 -38 21 -117 41 -174 33 -100 218 -484 268 -557 44 -64 42 -65
-23 -9 -162 142 -321 358 -455 622 -72 142 -94 177 -94 146 0 -18 137 -281
195 -374 117 -187 256 -349 380 -443 102 -77 93 -77 -35 1 -234 143 -482 394
-620 627 -30 50 -57 93 -61 96 -41 25 56 -145 157 -277 72 -95 237 -261 338
-342 49 -39 136 -99 195 -134 58 -35 101 -63 95 -63 -24 0 -244 119 -334 180
-121 84 -257 213 -317 303 -54 81 -71 74 -21 -10 78 -131 294 -311 501 -418
122 -62 126 -71 10 -21 -356 152 -604 345 -732 570 -18 31 -37 54 -42 51 -25
-16 116 -211 224 -310 131 -120 365 -262 552 -335 33 -13 64 -27 70 -32 14
-13 -82 18 -265 83 -269 97 -335 113 -479 113 -74 1 -126 -3 -128 -9 -2 -6 43
-10 120 -11 98 -1 141 -6 217 -27 87 -24 374 -125 358 -126 -4 -1 -89 20 -190
45 -245 61 -334 67 -447 29 -76 -26 -86 -27 -136 -16 -81 18 -224 92 -272 140
-50 50 -83 114 -83 160 0 49 32 93 116 162 111 90 110 117 -9 179 -77 40 -117
77 -117 106 0 24 45 67 97 92 39 18 40 24 12 62 -30 40 -37 149 -15 217 27 82
74 113 133 88 47 -20 61 -8 43 36 -17 41 -15 112 5 169 22 61 70 134 99 150
37 19 63 -3 118 -102 59 -107 68 -115 109 -98 36 15 49 44 49 108 0 66 16 156
35 196 28 58 76 66 155 26z m1319 -6 c21 -4 33 -15 47 -47 26 -56 113 -143
171 -170 38 -17 65 -22 131 -21 79 0 82 0 82 -22 0 -19 -7 -24 -46 -30 -204
-30 -415 93 -463 269 l-10 38 30 -5 c16 -3 42 -8 58 -12z m-553 -81 c15 -32
53 -83 83 -114 137 -136 312 -156 434 -49 42 37 45 38 60 22 15 -16 15 -20 -2
-47 -29 -49 -92 -104 -138 -121 -141 -54 -337 45 -463 232 -53 80 -65 129 -32
137 25 5 27 3 58 -60z m1066 -57 c96 -147 263 -300 404 -372 73 -37 74 -38 74
-76 0 -46 -1 -46 -118 9 -114 54 -250 150 -339 240 l-83 83 0 64 c0 35 -2 85
-5 112 -6 55 -13 61 67 -60z m463 24 c335 -163 470 -539 301 -844 -36 -66 -37
-67 -126 -51 l-45 8 24 -26 c30 -33 22 -57 -18 -57 -38 0 -48 -16 -26 -40 9
-10 14 -24 10 -29 -11 -18 -67 -43 -75 -34 -16 16 -30 89 -37 179 -6 87 -5 93
22 138 36 62 46 170 21 230 -10 24 -14 52 -10 75 l6 37 -64 27 c-34 15 -76 38
-93 51 l-30 24 1 164 c0 91 4 172 7 182 9 22 26 17 132 -34z m-1940 -45 c0
-14 -6 -19 -20 -17 -27 5 -39 18 -30 32 12 19 50 7 50 -15z m390 -52 c22 -31
67 -79 100 -106 49 -41 63 -60 76 -102 8 -28 26 -72 39 -99 18 -35 22 -52 14
-64 -16 -27 -114 -72 -155 -72 -36 0 -39 2 -49 38 -33 124 -85 463 -71 462 3
-1 24 -26 46 -57z m-467 30 c-4 -20 -48 -29 -48 -10 0 19 10 27 32 27 13 0 18
-6 16 -17z m129 -47 c-9 -22 -47 -21 -47 2 0 10 5 23 12 30 16 16 43 -10 35
-32z m-197 19 c0 -8 -4 -15 -9 -15 -13 0 -22 16 -14 24 11 11 23 6 23 -9z
m128 -13 c3 -16 -2 -22 -16 -22 -22 0 -32 17 -24 38 7 20 37 9 40 -16z m2957
-95 c150 -172 181 -234 173 -346 -4 -48 -15 -90 -41 -146 -21 -48 -38 -105
-43 -142 -3 -35 -11 -63 -15 -63 -10 0 -12 152 -3 185 3 11 18 28 35 37 55 32
28 94 -39 86 -25 -3 -27 -6 -24 -43 1 -22 1 -62 0 -90 -1 -27 -2 -76 -3 -107
0 -32 -3 -58 -6 -58 -12 0 -59 118 -65 162 -5 34 -2 51 15 78 27 45 27 86 1
100 -48 26 -86 -37 -57 -94 8 -17 17 -54 20 -83 2 -31 18 -81 41 -129 20 -42
34 -79 31 -82 -10 -10 -83 50 -114 93 -60 84 -76 153 -46 199 27 40 -8 96 -50
80 -8 -3 -20 -24 -27 -46 -11 -37 -10 -42 9 -57 11 -10 28 -42 37 -73 19 -67
90 -166 140 -198 44 -27 42 -33 -6 -20 -91 26 -179 132 -223 271 -57 182 -41
301 70 499 31 55 45 70 63 70 12 0 26 8 29 17 6 14 9 13 22 -8 9 -13 43 -55
76 -92z m-1349 94 c14 -14 114 -41 151 -41 l33 0 0 -70 c0 -39 -4 -70 -10 -70
-13 0 -208 189 -194 190 5 0 14 -4 20 -9z m-1666 -20 c8 -16 6 -21 -11 -26
-25 -8 -44 7 -36 29 9 22 34 20 47 -3z m-70 -21 c0 -11 -4 -20 -10 -20 -5 0
-10 9 -10 20 0 11 5 20 10 20 6 0 10 -9 10 -20z m1210 -5 c18 -9 33 -28 41
-52 50 -155 160 -259 281 -268 47 -3 53 -6 60 -30 9 -35 -5 -39 -87 -26 -144
22 -287 126 -352 256 l-30 59 25 38 c13 21 27 38 29 38 2 0 17 -7 33 -15z
m-1250 -14 c13 -25 2 -53 -19 -49 -17 3 -26 31 -17 54 8 20 23 18 36 -5z m190
-1 c0 -26 -25 -36 -45 -20 -12 10 -13 16 -4 26 18 22 49 17 49 -6z m65 0 c8
-25 -11 -51 -31 -43 -14 5 -19 44 -7 56 13 13 32 7 38 -13z m-313 -25 c3 -14
4 -25 2 -25 -1 0 -9 -3 -18 -6 -12 -5 -16 0 -16 18 0 43 25 53 32 13z m128 -1
c0 -16 -27 -43 -42 -44 -14 0 -9 23 9 42 20 22 33 23 33 2z m54 -27 c-21 -12
-39 6 -30 29 6 16 8 15 27 -2 18 -16 18 -19 3 -27z m1304 17 c37 -3 86 -1 109
4 48 11 41 26 63 -128 6 -41 13 -85 17 -97 5 -21 2 -23 -34 -23 -52 0 -133 41
-177 90 -34 38 -76 111 -90 158 -7 20 -5 21 19 12 14 -5 56 -13 93 -16z m2204
-153 c36 -18 97 -41 134 -51 l69 -18 -37 -16 c-21 -9 -109 -37 -195 -62 -86
-25 -160 -47 -165 -50 -4 -3 -8 59 -9 138 0 79 -4 164 -8 190 l-8 48 77 -74
c48 -46 101 -85 142 -105z m-1874 30 c79 -64 228 -151 310 -182 l64 -24 -6
-78 c-4 -43 -9 -98 -12 -121 l-6 -43 -107 60 c-166 94 -236 143 -299 213 l-59
65 -17 112 c-9 62 -16 119 -16 127 0 8 19 -6 43 -32 23 -25 70 -69 105 -97z
m-1230 43 c7 -47 28 -147 47 -222 35 -137 35 -137 20 -212 -60 -305 -37 -709
50 -880 14 -27 23 -50 20 -50 -15 0 -54 33 -49 42 3 5 -6 27 -20 48 -39 58
-112 237 -140 342 -42 155 -51 259 -37 437 20 261 32 384 42 431 14 68 41 150
48 150 4 0 13 -38 19 -86z m-318 51 c10 -12 10 -19 2 -27 -16 -16 -42 -2 -42
22 0 24 22 26 40 5z m-252 -26 c-4 -31 -35 -49 -48 -29 -7 11 -4 20 11 33 28
23 41 22 37 -4z m132 12 c0 -23 -21 -62 -30 -56 -11 7 -14 48 -3 58 10 10 33
8 33 -2z m47 -25 c-8 -9 -17 -21 -19 -27 -2 -7 -9 -10 -16 -8 -8 3 -6 14 9 38
14 24 23 31 31 23 8 -8 6 -15 -5 -26z m123 5 c0 -20 -27 -48 -36 -38 -9 8 19
67 28 61 4 -3 8 -13 8 -23z m915 -29 c32 -61 148 -185 184 -197 31 -10 26 -22
-16 -36 -93 -32 -236 -4 -326 65 -39 29 -107 117 -107 137 0 5 17 9 38 9 55 0
104 17 148 49 22 16 41 30 44 30 3 1 18 -25 35 -57z m-1156 34 c8 -10 8 -16
-3 -25 -10 -9 -16 -8 -26 3 -12 15 -6 36 9 36 5 0 14 -6 20 -14z m-134 -64
c-5 -20 -8 -22 -20 -12 -18 15 -19 52 -3 68 10 10 14 8 21 -10 4 -12 5 -33 2
-46z m1010 -30 c24 -62 102 -137 182 -174 86 -41 202 -50 273 -22 45 17 115
22 128 9 10 -10 -73 -81 -126 -107 -68 -33 -178 -37 -254 -8 -142 53 -287 216
-324 366 l-6 22 56 -21 c48 -19 57 -27 71 -65z m-697 45 c2 -9 -4 -20 -13 -23
-20 -8 -50 19 -40 36 10 17 49 8 53 -13z m-206 -3 c7 -7 -2 -44 -11 -44 -17 1
-33 20 -28 34 6 16 28 22 39 10z m68 -30 c0 -8 -2 -14 -4 -14 -2 0 -11 -3 -20
-6 -12 -5 -16 0 -16 18 0 14 3 28 7 31 9 9 33 -12 33 -29z m-122 -9 c12 -25 1
-42 -18 -30 -12 7 -13 55 -2 55 5 0 14 -11 20 -25z m190 12 c9 -10 5 -22 -15
-50 -29 -41 -25 -61 7 -32 20 18 20 17 20 -11 0 -16 -5 -36 -10 -44 -17 -25
-55 30 -54 79 1 57 28 87 52 58z m132 -7 c0 -26 -25 -36 -46 -19 -14 12 -14
14 2 26 26 19 44 16 44 -7z m-60 -57 c0 -14 -6 -23 -15 -23 -18 0 -38 37 -31
56 8 22 46 -5 46 -33z m-306 21 c4 -9 0 -24 -9 -34 -8 -9 -15 -23 -15 -32 0
-22 -11 -29 -27 -17 -19 17 -16 50 9 76 26 27 34 29 42 7z m139 -4 c8 0 8 -3
0 -11 -13 -13 -43 -5 -43 12 0 6 7 8 16 5 9 -3 21 -6 27 -6z m-52 -31 c9 -17
8 -23 -2 -30 -28 -17 -44 -2 -34 31 8 26 21 25 36 -1z m299 -4 c0 -32 -45 -49
-56 -20 -10 24 14 47 37 34 10 -5 19 -11 19 -14z m3640 -17 c0 -44 13 -62 39
-55 24 6 24 8 -16 -133 -31 -107 -65 -170 -121 -221 -74 -69 -229 -128 -402
-154 -136 -21 -132 -22 -128 22 3 38 3 38 90 69 49 17 104 34 124 37 51 8 84
33 84 62 0 28 -24 55 -50 55 -22 0 -70 -54 -70 -80 0 -12 -14 -23 -42 -34 -24
-8 -67 -24 -96 -35 -46 -17 -54 -18 -59 -5 -12 31 125 144 174 144 31 0 73 42
73 73 0 66 -77 48 -110 -26 -10 -23 -32 -50 -47 -59 -16 -9 -51 -40 -77 -68
-26 -28 -50 -49 -53 -46 -9 9 18 138 37 176 43 85 139 139 350 196 74 20 169
53 210 73 41 21 78 38 83 39 4 1 7 -13 7 -30z m-3977 -33 c21 -15 21 -15 -10
-15 -37 0 -53 30 -31 57 12 15 13 14 16 -5 2 -12 13 -29 25 -37z m83 0 c-4
-14 -13 -25 -21 -25 -20 0 -19 15 2 47 19 28 29 17 19 -22z m186 7 c16 -16 -3
-35 -28 -30 -28 5 -31 45 -4 43 11 -1 26 -7 32 -13z m-121 -267 c40 -215 123
-422 238 -595 54 -81 273 -316 316 -338 11 -6 17 -13 13 -17 -3 -4 -50 15
-104 40 -158 76 -187 111 -339 417 -157 317 -178 383 -179 563 -1 72 3 148 8
170 9 38 10 37 18 -45 4 -47 17 -134 29 -195z m754 245 c4 -6 -5 -31 -19 -55
-29 -49 -93 -93 -149 -102 -37 -6 -34 -8 -52 56 -5 15 2 19 42 25 49 6 153 58
153 76 0 13 17 13 25 0z m-721 -45 c-9 -28 -12 -29 -29 -15 -8 7 -15 23 -15
35 0 21 2 22 25 12 18 -9 23 -17 19 -32z m-236 2 c2 -19 -1 -27 -12 -27 -20 0
-29 16 -21 41 9 27 29 19 33 -14z m362 9 c0 -26 -24 -51 -39 -42 -11 7 -5 32
12 54 15 19 27 14 27 -12z m1631 -153 c57 -33 131 -76 164 -95 l60 -34 6 -105
c3 -57 4 -106 3 -107 -7 -10 -62 21 -209 118 -137 91 -165 114 -174 142 -21
69 -71 241 -71 248 0 4 26 -18 59 -49 32 -31 105 -84 162 -118z m-1893 125 c2
-23 -1 -38 -8 -38 -34 0 -78 49 -65 71 4 5 21 9 38 7 29 -3 32 -7 35 -40z
m195 2 c-3 -11 -14 -20 -24 -20 -21 0 -22 4 -13 37 5 18 10 21 24 13 12 -6 16
-17 13 -30z m729 -22 c24 -22 62 -53 85 -68 40 -26 42 -28 25 -43 -55 -50
-163 -60 -251 -24 -62 25 -74 42 -36 51 31 8 112 80 120 107 4 10 8 19 11 19
2 0 23 -19 46 -42z m761 -85 c22 -76 25 -98 15 -105 -7 -4 -45 -8 -85 -8 -86
0 -166 27 -206 68 l-27 28 47 31 c27 17 59 43 72 57 22 23 32 26 90 26 l66 0
28 -97z m1437 70 c-1 -10 -7 -29 -15 -43 l-13 -25 -11 27 c-6 15 -8 35 -5 43
9 21 44 19 44 -2z m-3176 -16 c12 -19 3 -32 -19 -24 -17 7 -21 51 -3 45 6 -2
16 -12 22 -21z m209 14 c12 -2 8 -26 -7 -46 -12 -16 -16 -17 -30 -6 -9 7 -16
23 -16 36 0 17 5 21 23 19 12 -1 25 -3 30 -3z m77 -10 c0 -12 -23 -31 -37 -31
-17 0 -17 37 0 43 14 5 37 -2 37 -12z m2750 -14 c0 -23 -17 -47 -32 -47 -10 0
-11 54 -1 63 14 15 33 6 33 -16z m-2968 -39 c-14 -14 -42 -2 -42 17 0 9 10 19
23 24 18 7 23 5 25 -11 2 -11 -1 -25 -6 -30z m3222 36 c23 -9 20 -31 -5 -45
-24 -12 -39 1 -39 34 0 17 16 22 44 11z m-2507 -94 c100 -62 215 -64 303 -5
l49 33 56 -16 55 -17 -22 -44 c-43 -87 -133 -127 -270 -119 -64 4 -95 11 -135
31 -29 15 -53 29 -53 32 0 2 -11 34 -25 70 -13 36 -20 65 -15 65 5 0 30 -14
57 -30z m2783 17 c0 -20 -23 -45 -44 -49 -27 -4 -31 17 -7 41 24 24 51 28 51
8z m-2831 -107 l41 -105 -15 -55 c-44 -161 -57 -411 -30 -565 8 -43 12 -81 10
-83 -7 -8 -36 73 -55 153 -49 204 -50 512 -4 738 3 16 7 27 9 25 1 -2 21 -50
44 -108z m714 75 c62 -53 158 -79 258 -71 110 9 102 -13 -12 -38 -37 -8 -122
9 -184 38 -51 23 -125 80 -125 97 0 18 23 8 63 -26z m-57 -20 c40 -42 150
-105 182 -105 50 0 -55 -73 -129 -89 -62 -14 -130 -1 -217 40 l-66 32 26 21
c34 27 78 94 78 117 0 13 10 19 38 22 20 2 39 4 40 5 2 1 24 -18 48 -43z
m2239 -78 c-8 -19 -62 -40 -70 -27 -8 13 11 47 33 59 21 12 46 -8 37 -32z
m-1796 -97 c18 -41 55 -115 83 -164 37 -66 47 -91 38 -100 -6 -6 -46 -11 -93
-11 -69 0 -91 4 -137 27 -30 15 -72 42 -93 59 l-38 32 29 31 c36 38 57 78 72
138 10 39 16 46 53 59 23 9 45 13 48 10 3 -3 20 -40 38 -81z m3551 79 c348
-56 635 -317 720 -653 25 -98 27 -265 5 -351 -50 -193 -191 -372 -358 -453
-107 -52 -156 -64 -272 -70 -99 -4 -117 -2 -188 22 -87 29 -157 69 -157 90 0
24 41 66 90 91 51 26 90 67 90 94 0 15 12 17 88 17 76 -1 94 3 137 26 68 35
122 92 154 158 21 45 26 69 26 136 0 73 -4 88 -38 157 -113 229 -384 291 -615
140 -103 -69 -184 -195 -206 -322 l-11 -68 -238 -122 c-202 -103 -447 -221
-460 -221 -2 0 7 30 19 68 30 89 47 217 39 300 -14 151 94 410 245 587 230
271 614 425 930 374z m-3232 -200 c31 -9 42 -19 59 -57 36 -79 85 -126 181
-175 60 -31 92 -54 100 -72 7 -14 12 -70 12 -123 0 -140 16 -156 182 -188 86
-16 135 -36 155 -63 6 -9 15 -38 18 -64 14 -96 64 -124 250 -137 164 -11 208
-39 280 -178 44 -84 93 -131 180 -171 33 -15 71 -33 85 -39 22 -10 21 -11 -15
-6 -91 12 -204 37 -270 59 -94 31 -169 64 -162 71 3 3 36 9 74 12 37 4 67 12
65 17 -3 12 -63 12 -144 0 l-57 -8 -140 83 c-78 45 -143 86 -146 90 -5 7 72
16 210 23 l50 2 -30 14 c-25 11 -52 11 -153 1 l-123 -12 -70 46 c-38 25 -69
49 -69 52 0 3 32 4 72 3 43 -1 73 2 75 8 6 16 -33 23 -120 23 -77 0 -79 1
-135 44 -31 24 -73 58 -92 76 l-35 31 65 -6 c58 -6 193 -35 234 -51 10 -4 16
-1 16 9 0 21 -144 58 -258 66 l-93 6 -97 99 c-53 54 -92 101 -85 103 6 2 44
-8 85 -22 96 -34 118 -39 118 -28 0 16 -108 60 -182 75 -65 13 -69 16 -114 73
-48 62 -144 201 -144 209 0 11 296 -128 362 -171 27 -17 46 -14 34 6 -12 18
-136 83 -276 144 -74 32 -141 64 -148 70 -14 11 -122 230 -122 247 0 5 63 -33
140 -85 77 -52 158 -99 178 -106z m-478 170 c0 -41 -28 -105 -62 -144 -62 -70
-124 -98 -233 -103 -103 -5 -171 14 -250 68 -46 32 -105 102 -105 126 0 7 25
20 56 29 55 16 56 16 100 -10 123 -72 242 -84 340 -35 33 16 71 41 84 55 23
25 70 35 70 14z m1342 -24 c34 -39 97 -79 141 -89 31 -7 32 -32 1 -30 -10 1
-62 10 -115 19 -94 18 -149 15 -149 -6 0 -7 13 -9 33 -6 30 4 129 -7 172 -20
13 -4 -10 -12 -66 -23 -47 -10 -99 -25 -117 -34 -17 -9 -38 -16 -46 -16 -19 0
-66 -57 -66 -81 0 -43 71 -35 95 11 8 16 12 35 9 44 -4 11 11 20 63 36 80 25
223 39 223 21 0 -6 -5 -11 -11 -11 -14 0 -157 -85 -184 -110 -11 -10 -58 -31
-105 -46 -73 -24 -102 -28 -205 -28 -105 -1 -125 2 -160 21 -65 35 -111 83
-164 171 l-50 82 29 0 c31 0 54 27 45 52 -4 10 11 12 72 10 73 -3 132 6 378
61 11 3 48 5 83 6 60 1 64 -1 94 -34z m-2137 -1 c27 -8 64 -14 81 -14 26 0 34
-6 45 -32 7 -17 28 -51 46 -75 29 -38 33 -49 27 -81 -4 -20 -13 -50 -22 -67
-30 -62 -82 -98 -82 -57 0 9 -9 23 -20 30 -19 12 -69 104 -136 251 -33 71 -33
73 -11 66 12 -4 44 -13 72 -21z m2429 -34 c29 -11 34 -44 16 -97 -24 -67 -112
-62 -118 6 -3 27 3 40 29 67 37 38 37 38 73 24z m-2489 -207 c-30 -86 -64
-252 -66 -316 l-1 -42 -10 40 c-19 78 6 407 38 495 4 10 16 -5 35 -43 l30 -58
-26 -76z m2817 68 c127 -49 237 -148 291 -264 45 -93 45 -97 -3 -97 -77 0
-123 -43 -105 -101 4 -12 3 -19 -2 -16 -5 3 -77 25 -159 47 -164 45 -217 71
-264 127 -29 37 -69 143 -85 227 -6 35 -5 38 9 27 27 -23 106 -167 106 -195 0
-41 17 -66 45 -66 28 0 48 30 43 63 -2 15 -14 26 -36 33 -27 8 -42 25 -74 80
-22 38 -51 81 -64 95 -20 21 -22 28 -12 37 30 25 166 -69 193 -134 15 -37 55
-54 80 -34 33 28 12 65 -42 76 -17 3 -53 24 -79 46 -27 23 -68 49 -91 60 -24
10 -43 20 -43 21 0 1 53 -1 117 -4 85 -5 134 -13 175 -28z m-2468 -55 c26 -95
-17 -195 -96 -225 -26 -10 -29 -8 -54 35 -15 25 -25 46 -23 47 2 2 17 11 32
21 32 20 77 107 77 149 l0 28 29 -17 c16 -10 32 -27 35 -38z m507 -49 c44 -27
146 -57 191 -57 24 1 60 7 80 14 30 11 40 11 48 1 24 -29 -74 -79 -155 -78
-82 0 -155 35 -239 114 -61 57 -66 64 -51 76 15 10 24 7 59 -21 22 -18 53 -40
67 -49z m686 61 c20 -42 91 -114 139 -140 97 -52 226 -57 372 -13 30 9 56 15
58 12 2 -2 -6 -23 -18 -48 -15 -31 -24 -79 -32 -167 l-11 -123 -45 -29 -45
-29 -93 19 c-153 32 -156 36 -157 180 0 102 -2 110 -25 135 -14 15 -55 42 -93
61 -64 33 -147 97 -147 114 0 9 60 48 76 49 6 1 15 -9 21 -21z m-1463 -48 c33
-68 31 -94 -16 -152 -16 -21 -48 -72 -69 -114 -36 -70 -39 -73 -39 -41 0 85
68 368 88 366 4 0 20 -27 36 -59z m2261 6 c-13 -26 -32 -82 -41 -124 -10 -47
-26 -88 -40 -105 -28 -33 -32 -88 -9 -107 19 -16 34 -5 17 12 -19 19 -14 57
12 81 17 16 28 45 40 100 17 83 53 177 67 177 16 0 10 -203 -6 -224 -19 -25
-19 -90 -1 -105 20 -17 50 1 66 38 11 27 10 35 -9 66 -18 31 -21 52 -21 141 0
103 0 104 24 104 21 0 25 -6 31 -47 4 -26 16 -76 27 -112 51 -166 -37 -363
-195 -437 -75 -34 -84 -33 -83 19 1 39 -1 42 -26 45 -15 2 -48 -6 -74 -17 -26
-12 -47 -21 -49 -21 -1 0 0 12 2 28 2 15 7 86 12 158 11 149 27 197 89 256 32
32 183 130 189 124 1 -1 -9 -23 -22 -50z m-1862 11 c51 -8 86 -8 141 2 l73 12
56 -57 c52 -55 54 -59 44 -88 -15 -44 -86 -110 -133 -124 -53 -16 -149 -15
-196 2 -20 7 -57 25 -82 40 l-45 27 22 42 c16 30 22 59 22 105 0 51 3 61 15
56 8 -3 46 -11 83 -17z m1587 5 c0 -25 -37 -59 -51 -45 -6 6 -3 18 11 36 25
31 40 35 40 9z m1522 -49 c-86 -104 -166 -244 -205 -362 l-24 -70 -43 87 c-35
70 -60 103 -133 175 -49 49 -87 91 -84 93 2 3 47 9 98 15 115 12 285 52 359
83 76 33 77 32 32 -21z m-837 -5 c27 -12 32 -23 14 -33 -11 -7 -49 22 -49 37
0 11 4 10 35 -4z m-1433 -215 l58 -72 -29 -20 c-72 -51 -168 -64 -276 -36 -63
17 -188 74 -182 84 1 3 17 34 34 69 l31 63 74 2 c64 2 82 6 124 32 l49 31 29
-41 c16 -22 56 -72 88 -112z m-1171 12 c32 -239 173 -634 296 -828 46 -73 16
-49 -43 34 -150 212 -238 396 -276 579 -16 75 -19 119 -15 212 5 113 19 178
25 113 1 -16 7 -66 13 -110z m737 110 c23 -10 42 -22 42 -27 0 -5 -12 -32 -26
-61 -33 -67 -96 -132 -159 -165 -43 -23 -62 -27 -140 -27 -76 0 -98 4 -145 26
-56 27 -118 80 -158 137 l-23 32 25 12 c21 9 29 8 44 -5 10 -9 44 -29 77 -44
51 -23 73 -28 145 -27 73 0 93 4 137 27 53 27 93 71 112 120 6 16 14 27 19 25
4 -3 26 -13 50 -23z m1776 -21 c20 -8 20 -28 0 -45 -13 -10 -17 -10 -25 2 -11
18 -12 49 0 49 5 0 16 -3 25 -6z m-2406 -139 c117 -174 277 -369 436 -532
l139 -143 -5 -49 c-3 -30 -25 -90 -58 -160 -29 -62 -55 -132 -58 -157 -2 -24
-8 -44 -12 -44 -13 0 -105 111 -152 185 -156 242 -298 583 -352 848 -23 111
-33 188 -22 176 2 -2 40 -58 84 -124z m-173 63 c-6 -43 -17 -64 -59 -115 -28
-34 -52 -60 -54 -58 -12 11 98 225 115 225 3 0 2 -24 -2 -52z m2343 4 c4 -26
-16 -65 -29 -57 -10 7 -12 45 -3 70 9 21 28 14 32 -13z m228 -86 c18 -8 98
-34 179 -56 81 -22 163 -47 183 -55 19 -9 37 -14 39 -11 2 2 -6 20 -17 39 -13
22 -19 44 -15 56 8 26 67 45 117 38 36 -5 39 -3 35 14 -15 56 59 -38 102 -131
43 -92 57 -157 60 -274 3 -115 -14 -206 -56 -298 l-26 -58 -81 -25 c-45 -13
-132 -33 -195 -44 l-114 -20 -74 30 c-41 18 -93 49 -120 73 l-47 43 50 6 c126
15 233 87 284 192 21 42 25 64 25 145 0 111 -16 151 -87 217 -55 50 -104 67
-188 67 -134 0 -223 -88 -224 -219 -1 -113 61 -184 170 -193 53 -4 54 -4 54
22 0 23 -4 26 -36 26 -126 0 -184 147 -98 250 68 80 186 86 280 15 106 -81
110 -260 9 -373 -47 -52 -94 -77 -178 -92 -65 -13 -91 -5 -109 33 -37 79 -131
147 -201 147 -46 0 -65 17 -82 72 -24 81 -21 92 27 114 98 44 199 184 214 297
l7 48 41 -39 c22 -22 55 -47 72 -56z m-2317 -18 c54 -59 144 -105 222 -114 52
-6 59 -9 59 -29 0 -38 -69 -105 -108 -105 -16 0 -262 326 -262 346 0 5 11 -4
23 -21 12 -16 41 -51 66 -77z m4326 40 c229 -119 253 -427 41 -535 -57 -29
-145 -36 -183 -15 -31 17 -42 106 -18 151 17 33 112 101 171 123 59 21 33 33
-68 32 -53 -1 -115 -4 -139 -8 -39 -6 -41 -5 -28 10 8 9 29 23 47 31 33 14 39
27 23 52 -14 22 -97 -23 -133 -73 -26 -37 -40 -44 -141 -79 -62 -21 -120 -41
-129 -44 -15 -5 -16 0 -4 49 34 147 140 267 279 319 77 29 214 22 282 -13z
m-4576 -90 c1 -22 -10 -34 -60 -67 -34 -23 -64 -39 -66 -37 -8 7 17 48 66 108
48 61 59 60 60 -4z m863 17 c156 -74 297 -80 402 -15 58 37 75 30 26 -11 -144
-122 -371 -126 -501 -10 -38 34 -42 40 -30 55 18 21 18 21 103 -19z m-89 -58
c29 -23 74 -51 100 -61 41 -15 47 -21 47 -47 0 -68 -53 -136 -124 -159 -45
-14 -117 -8 -171 14 l-37 16 20 27 c30 42 54 122 51 171 -3 38 0 45 26 62 17
10 31 19 33 19 1 1 26 -18 55 -42z m616 -8 l44 -50 -16 -33 c-28 -60 -95 -60
-166 0 l-42 36 43 28 c24 15 52 37 62 48 11 12 22 22 25 21 3 -1 26 -23 50
-50z m-2451 11 c136 -29 415 -101 367 -94 -22 3 -92 17 -155 31 -200 45 -345
32 -435 -41 -42 -34 -23 -45 22 -13 91 63 211 75 387 38 108 -23 128 -31 75
-31 -19 0 -77 -9 -129 -20 -171 -35 -341 -139 -403 -248 -24 -43 -4 -50 22 -8
35 56 132 139 205 174 77 37 181 66 271 76 l60 6 -85 -28 c-169 -56 -338 -165
-459 -297 -77 -85 -51 -86 32 -2 88 90 173 155 269 206 75 41 251 105 270 99
6 -2 -27 -22 -73 -45 -158 -76 -313 -204 -419 -345 -61 -80 -140 -224 -140
-253 0 -32 17 -13 44 50 81 187 251 371 455 493 39 23 74 42 77 42 8 0 -104
-125 -186 -209 -79 -79 -109 -140 -117 -231 -7 -89 8 -172 68 -370 49 -160 74
-297 52 -289 -6 2 -26 24 -45 49 -42 55 -81 79 -105 64 -36 -22 -39 -42 -15
-87 12 -23 22 -46 22 -50 0 -11 -82 -47 -92 -41 -4 3 -5 31 -2 63 4 36 3 61
-4 65 -17 11 -57 -10 -112 -59 l-52 -47 -34 33 c-71 68 -82 174 -32 297 31 74
17 96 -15 23 -18 -42 -28 -53 -58 -62 -32 -10 -42 -8 -95 19 -32 17 -71 43
-86 59 -30 31 -58 91 -58 123 0 42 40 138 104 250 36 63 66 118 66 122 0 4
-17 15 -37 23 -137 57 -145 206 -20 342 66 72 118 97 196 95 49 -1 81 5 126
23 76 30 147 31 273 5z m1692 -62 c0 -30 -9 -71 -19 -93 -20 -45 -73 -95 -100
-95 -17 0 -79 56 -70 64 2 2 18 11 36 20 38 19 68 59 80 106 8 31 25 44 66 49
4 1 7 -23 7 -51z m-620 33 c0 -10 -61 -34 -68 -27 -4 5 47 35 61 36 4 0 7 -4
7 -9z m13 -67 c4 -25 3 -26 -32 -20 -20 3 -54 6 -75 6 -22 0 -36 3 -32 8 10 9
119 40 127 36 4 -2 9 -16 12 -30z m1203 -13 c58 -51 123 -70 168 -48 19 9 38
28 46 46 7 17 15 31 19 31 4 0 22 -15 40 -34 28 -29 32 -39 26 -65 -9 -41 -51
-90 -92 -107 -71 -30 -185 -12 -266 42 l-38 25 7 67 c3 37 8 70 11 75 9 16 37
5 79 -32z m894 14 c0 -20 -22 -65 -32 -65 -4 0 -8 -4 -8 -10 0 -5 14 -10 30
-10 25 0 30 -4 30 -23 0 -13 6 -45 14 -72 l15 -48 -50 6 c-103 12 -134 44
-141 141 -3 38 -2 40 51 68 59 31 91 36 91 13z m-1013 -56 c-6 -74 -47 -160
-91 -194 -111 -85 -299 -67 -444 42 -49 37 -27 52 35 25 162 -69 317 -3 339
145 l6 43 81 0 80 0 -6 -61z m849 34 c-10 -10 -19 5 -10 18 6 11 8 11 12 0 2
-7 1 -15 -2 -18z m-2496 -32 c-110 -35 -201 -91 -285 -176 -128 -130 -215
-301 -233 -460 l-8 -70 -13 73 c-17 96 -8 171 31 250 22 46 43 73 73 94 24 17
60 55 81 85 90 130 244 220 379 222 23 0 18 -4 -25 -18z m523 11 l49 -7 33
-82 c18 -46 30 -83 26 -83 -20 0 -120 69 -173 120 l-63 59 40 0 c22 -1 62 -4
88 -7z m-360 -44 c-124 -129 -185 -344 -162 -573 13 -126 55 -263 74 -243 2 2
-8 40 -23 83 -24 74 -26 92 -26 250 0 158 2 176 27 250 14 44 40 103 58 130
45 72 119 145 147 145 22 0 22 -1 -12 -46 -63 -82 -80 -142 -80 -279 0 -94 5
-138 23 -200 23 -85 114 -283 149 -325 30 -37 37 -18 9 27 -121 192 -186 428
-159 583 20 117 96 240 139 226 19 -6 21 -11 13 -32 -6 -14 -10 -58 -10 -97 0
-89 31 -181 92 -275 45 -70 199 -230 380 -395 160 -146 183 -207 127 -337 -39
-88 -87 -119 -146 -95 -45 19 -46 19 -38 -4 3 -10 1 -31 -5 -47 -28 -73 -114
-117 -184 -94 -49 16 -56 45 -31 128 4 13 3 22 -3 22 -9 0 -33 -54 -48 -107
-4 -17 -83 -72 -113 -80 -18 -4 -29 0 -43 17 -15 19 -18 41 -18 161 0 76 -4
139 -9 139 -10 0 -24 -137 -20 -198 3 -37 -1 -46 -36 -82 -21 -22 -40 -38 -42
-36 -2 2 1 25 7 51 18 82 -13 92 -81 28 -36 -34 -37 -35 -68 -19 -17 9 -37 30
-46 46 -31 59 -10 201 50 336 28 62 31 78 14 72 -31 -10 -99 -235 -99 -328 0
-64 4 -75 52 -143 11 -14 10 -19 -2 -27 -69 -44 -128 41 -146 210 -7 70 -14
80 -57 80 -38 0 -72 -37 -90 -98 -20 -66 -33 -89 -57 -102 -50 -27 -173 46
-151 89 6 10 24 24 40 29 68 24 66 107 -5 312 -42 118 -47 145 -47 215 1 157
89 343 230 482 56 56 93 82 165 117 51 25 107 49 123 52 29 7 29 6 -15 -30
-101 -85 -189 -227 -227 -366 -34 -122 -18 -430 22 -430 9 0 9 12 -3 53 -24
84 -21 274 7 372 43 153 132 288 251 381 46 37 62 44 100 44 l44 0 -41 -42z
m4872 19 c-11 -7 -42 -33 -68 -59 l-48 -46 3 -121 c3 -137 2 -141 -88 -190
-69 -38 -90 -70 -87 -136 2 -49 0 -56 -25 -74 -26 -18 -32 -19 -95 -5 -100 21
-302 44 -383 44 -39 0 -74 3 -77 7 -8 7 95 40 248 78 111 28 181 31 237 11 36
-13 48 -12 48 5 0 16 -73 31 -148 30 -76 -1 -97 -6 -346 -75 -71 -20 -141 -36
-155 -35 -17 0 -4 7 34 18 33 10 154 55 268 100 210 82 318 114 435 126 95 11
78 29 -20 22 -102 -7 -212 -39 -405 -116 -165 -66 -319 -121 -336 -121 -7 0
49 31 123 68 74 37 194 101 265 141 143 82 237 124 320 143 31 7 55 18 55 25
0 17 -2 17 -89 -7 -90 -25 -195 -75 -361 -171 -216 -125 -356 -186 -487 -213
-61 -13 -91 -5 -35 9 57 14 279 128 465 238 324 193 497 271 670 302 93 17
108 17 82 2z m-2841 -79 c51 -40 106 -83 122 -94 l29 -21 -20 -23 c-40 -44
-138 -79 -187 -66 -15 3 -29 21 -41 51 -11 24 -32 56 -49 70 l-30 25 30 34
c17 19 33 48 37 65 4 17 8 31 11 31 2 0 46 -33 98 -72z m-1774 -117 c36 -72
149 -181 187 -181 21 0 15 16 -12 28 -39 18 -114 91 -142 139 -26 45 -67 162
-59 170 3 3 14 -14 26 -38 31 -59 122 -149 152 -148 l23 0 -25 17 c-52 36 -80
64 -114 116 -20 30 -36 57 -36 61 0 4 21 -12 48 -35 45 -40 154 -110 171 -110
4 0 36 -47 69 -105 81 -137 216 -315 338 -445 116 -124 136 -131 140 -52 2 40
16 81 55 163 28 61 54 130 57 155 2 24 6 44 9 44 5 0 233 -201 285 -251 25
-24 38 -46 38 -63 0 -63 -59 -140 -116 -152 -26 -5 -35 -1 -57 25 -14 17 -28
31 -31 31 -12 0 -5 -28 13 -51 17 -22 17 -28 6 -55 -25 -60 -127 -71 -173 -19
-12 15 -27 25 -34 23 -6 -2 2 -19 20 -39 29 -33 30 -36 17 -73 -18 -51 -61
-94 -101 -102 -74 -14 -171 65 -199 162 -19 67 -68 128 -191 239 -249 224
-359 353 -404 473 -25 65 -36 162 -25 219 l7 38 18 -72 c10 -39 28 -90 40
-112z m4299 155 c-2 -2 -33 -16 -69 -32 -84 -37 -208 -105 -401 -219 -348
-208 -556 -285 -766 -285 -78 0 -75 15 4 24 73 8 287 80 418 139 55 25 215
103 355 174 238 121 416 201 449 203 8 0 12 -2 10 -4z m-2988 -84 c48 -24 84
-34 138 -39 l73 -6 -4 -63 c-4 -71 -23 -104 -78 -141 -32 -23 -74 -28 -117
-17 -17 5 -24 18 -34 63 -12 61 -48 140 -73 160 -13 11 -13 16 1 47 9 19 19
33 22 32 3 -2 36 -18 72 -36z m299 -58 c25 -22 44 -51 50 -75 40 -146 -162
-316 -303 -255 -57 25 -68 38 -61 72 6 31 7 31 40 22 112 -30 233 100 210 226
-6 31 -3 37 21 45 2 1 21 -15 43 -35z m-700 -75 c62 -10 85 -9 135 4 45 11 62
12 67 4 13 -20 9 -126 -6 -161 -15 -36 -60 -76 -85 -76 -15 0 -321 288 -321
301 0 3 30 -10 68 -28 41 -20 96 -37 142 -44z m303 49 c82 -109 74 -304 -15
-358 -47 -28 -72 -25 -118 16 l-40 36 33 22 c17 12 40 38 50 58 24 49 33 137
18 179 -10 29 -9 35 11 55 30 30 33 30 61 -8z m772 -23 c29 -24 29 -24 10 -46
-49 -53 -168 -82 -259 -62 -64 14 -57 33 11 33 68 0 154 36 180 76 19 29 21
29 58 -1z m152 -95 c106 -63 113 -79 60 -133 -38 -37 -93 -57 -159 -57 -45 0
-46 0 -52 38 -3 22 -17 55 -31 76 -14 20 -25 40 -25 45 0 4 16 15 35 24 18 9
42 28 51 42 9 14 20 24 23 23 3 -2 48 -28 98 -58z m-332 -49 c39 -6 41 -8 59
-65 17 -52 18 -67 8 -115 -26 -123 -141 -215 -245 -196 l-32 6 -1 77 c0 48 -7
91 -17 115 l-16 37 43 40 c23 22 51 58 61 80 20 44 7 42 140 21z m130 -45 c55
-91 35 -206 -54 -299 -57 -60 -105 -81 -184 -81 -38 0 -72 5 -79 12 -9 9 -1
12 39 12 98 0 206 83 233 178 14 53 12 133 -5 182 -19 53 -19 52 2 48 10 -2
31 -25 48 -52z m376 -8 c36 -21 39 -26 34 -53 -8 -45 -36 -77 -95 -109 -62
-34 -165 -46 -224 -26 -30 10 -36 16 -36 39 0 27 2 28 66 34 85 8 160 48 187
100 10 21 21 37 23 37 3 0 23 -10 45 -22z m149 -74 c36 -15 67 -29 69 -30 2
-2 -2 -16 -8 -32 -17 -42 -89 -111 -136 -133 -42 -20 -105 -25 -105 -10 0 5
-12 24 -26 41 -15 17 -25 32 -23 34 2 1 25 14 51 29 49 28 88 80 88 117 0 14
5 20 13 17 6 -3 41 -17 77 -33z m-1135 -24 c21 -11 61 -23 87 -26 32 -4 52
-13 58 -25 18 -32 11 -112 -12 -159 -31 -58 -50 -69 -85 -48 -39 23 -212 162
-213 169 0 4 11 10 24 13 14 3 42 26 63 51 21 24 38 44 38 45 1 0 18 -9 40
-20z m229 -47 c33 -96 13 -206 -47 -261 -24 -23 -26 -23 -51 -7 -26 17 -34 35
-16 35 16 0 58 83 65 131 4 25 2 63 -4 85 -9 33 -8 41 6 52 26 19 30 16 47
-35z m1050 17 c32 -12 33 -38 5 -96 -37 -78 -141 -134 -249 -134 -53 0 -60 2
-60 20 0 12 7 20 18 20 9 0 44 13 77 29 64 30 141 105 151 148 7 25 19 28 58
13z m132 -32 c32 -6 61 -12 63 -14 9 -8 -44 -76 -76 -95 -37 -23 -143 -53
-143 -40 0 4 11 18 25 31 14 13 33 48 41 77 8 29 19 53 23 53 4 0 34 -5 67
-12z m181 -34 c18 -47 -48 -140 -116 -163 -44 -14 -136 -13 -181 3 l-35 13 40
7 c22 4 58 16 80 25 43 19 115 92 115 116 0 22 88 21 97 -1z m748 -5 c185 -12
399 -40 521 -69 46 -11 173 -53 282 -94 300 -112 333 -121 489 -121 l132 0
-202 -133 c-312 -206 -565 -324 -792 -368 -44 -8 -134 -16 -200 -16 -119 -1
-122 -1 -276 50 -85 29 -166 52 -178 52 -17 0 -21 4 -16 18 5 16 -12 26 -112
65 -126 49 -313 107 -344 107 -35 0 -20 -19 24 -30 88 -23 206 -62 312 -103
l110 -42 -65 -7 c-36 -4 -113 -22 -172 -41 -59 -19 -125 -38 -147 -42 l-41 -7
6 34 c12 68 25 108 35 108 5 0 37 -14 70 -31 34 -17 64 -28 67 -24 20 19 -144
103 -223 113 -37 5 -59 12 -58 20 2 6 5 31 7 54 3 24 12 61 20 83 8 22 15 64
16 92 0 50 3 56 49 100 41 40 51 57 60 103 7 37 8 68 1 95 -5 22 -10 44 -10
49 0 10 382 1 635 -15z m728 3 c33 -18 53 -70 23 -59 -8 3 -33 11 -56 17 l-40
11 17 24 c10 13 19 25 21 25 1 0 17 -8 35 -18z m-1383 -18 c25 -66 5 -148 -50
-199 l-32 -30 -17 25 c-9 13 -23 32 -33 41 -15 16 -14 19 13 45 27 26 39 52
53 117 9 37 52 38 66 1z m1135 -4 c114 -20 209 -45 477 -123 188 -56 329 -85
420 -89 38 -2 68 -6 68 -9 0 -4 -33 -12 -74 -18 -132 -19 -281 11 -529 109
-187 73 -300 106 -442 130 -71 11 -134 23 -140 25 -19 9 111 -6 220 -25z
m-2099 -3 c29 -7 47 -19 64 -44 24 -35 40 -126 23 -136 -5 -3 -20 12 -33 34
-29 46 -40 48 -84 14 -43 -33 -55 -32 -62 5 -7 34 -19 37 -52 14 -32 -22 -27
-3 7 30 16 15 37 45 47 67 13 29 22 38 33 33 9 -4 34 -11 57 -17z m176 -24
c14 -16 31 -38 37 -50 26 -52 1 -163 -46 -206 -20 -17 -21 -17 -42 19 -20 34
-21 43 -11 82 9 35 8 55 -5 98 -8 29 -21 56 -28 61 -8 5 -4 9 13 14 44 12 56
10 82 -18z m-929 -86 c28 -23 87 -64 130 -91 42 -27 77 -56 77 -63 0 -22 -36
-86 -62 -110 -30 -28 -89 -53 -125 -53 -34 0 -103 31 -122 53 -10 13 -18 14
-32 6 -29 -15 -23 -33 19 -62 69 -48 127 -58 206 -36 52 14 131 90 152 144
l16 44 82 -41 c44 -22 82 -41 83 -42 1 -1 -4 -22 -11 -46 -7 -25 -17 -74 -21
-110 -9 -79 -20 -97 -46 -74 -33 30 -92 43 -196 44 -100 0 -292 -29 -317 -48
-6 -5 -21 -12 -33 -15 -43 -10 -144 125 -168 226 -7 25 -5 27 21 27 40 0 88
32 104 69 10 25 18 31 41 31 19 0 43 12 70 37 48 43 69 81 69 123 0 16 2 30 5
30 3 0 29 -19 58 -43z m1260 -18 c7 -5 27 -18 46 -27 47 -23 64 -74 58 -173
-6 -91 -38 -166 -94 -221 l-38 -37 -63 13 c-35 8 -65 16 -68 19 -2 2 9 10 25
17 40 16 117 100 141 153 12 26 20 65 20 103 0 49 -5 68 -29 106 -16 25 -27
49 -24 52 9 8 12 8 26 -5z m-706 -26 c-9 -9 -20 -13 -24 -9 -4 4 -1 11 7 16
25 16 35 11 17 -7z m-231 -9 c28 -12 59 -15 111 -12 87 6 95 -3 53 -65 -16
-24 -34 -56 -39 -70 l-10 -27 -47 20 c-25 11 -75 36 -110 56 l-64 36 33 39
c17 21 33 39 33 39 1 0 19 -7 40 -16z m903 -10 c81 -103 23 -272 -121 -345
l-41 -21 7 24 c28 93 14 165 -47 235 -41 46 -42 49 -31 82 11 34 13 35 60 33
27 -1 65 2 84 7 56 14 67 12 89 -15z m-551 -24 c15 0 41 9 59 19 l31 20 51
-83 c167 -272 182 -417 60 -569 -27 -34 -59 -88 -71 -120 -11 -32 -24 -56 -27
-54 -3 2 -21 9 -38 16 -18 7 -33 17 -33 21 0 22 67 105 87 108 25 4 63 46 63
71 0 28 -30 61 -56 61 -27 0 -34 -27 -9 -36 28 -11 16 -41 -22 -61 -22 -11
-51 -39 -68 -66 -16 -25 -33 -46 -36 -46 -9 -1 -29 73 -29 108 0 17 9 48 20
68 51 95 -4 151 -76 79 -43 -43 -45 -78 -5 -107 23 -17 29 -30 34 -75 3 -30
13 -68 21 -86 15 -28 15 -34 1 -47 -13 -13 -20 -10 -59 32 -49 53 -116 173
-122 220 -15 114 -15 227 0 288 23 91 68 177 121 233 46 47 47 48 61 27 9 -13
26 -21 42 -21z m901 14 c83 -105 22 -303 -111 -358 -43 -18 -78 -21 -78 -6 0
6 6 10 13 10 8 0 32 13 54 29 86 63 123 208 75 299 -11 22 -18 43 -15 46 14
14 43 4 62 -20z m-82 -20 c82 -90 -11 -314 -130 -314 l-25 0 23 58 c38 94 41
192 10 274 -11 27 95 12 122 -18z m-490 -91 c35 -38 53 -84 53 -138 0 -73 -42
-132 -66 -93 -4 6 -8 46 -9 88 -2 47 -9 88 -19 107 -16 31 -13 63 6 63 5 0 21
-12 35 -27z m-3138 -78 c0 -11 -7 0 -15 25 -7 25 -13 50 -13 55 1 18 27 -59
28 -80z m3076 24 c9 -17 14 -36 12 -42 -3 -9 -37 54 -37 69 0 12 12 0 25 -27z
m-3068 -81 c-3 -7 -5 -2 -5 12 0 14 2 19 5 13 2 -7 2 -19 0 -25z m1424 -12
c16 -19 50 -44 75 -57 78 -37 145 -15 195 66 11 17 19 23 19 15 0 -29 58 -136
99 -182 23 -26 58 -57 77 -69 29 -17 34 -26 29 -43 -20 -62 27 -176 106 -260
83 -90 175 -134 315 -151 l52 -7 -44 -40 c-56 -51 -99 -117 -126 -190 l-21
-58 -36 5 c-211 34 -362 91 -516 195 -192 131 -347 327 -414 528 -12 34 -21
66 -21 71 0 5 15 12 33 15 18 3 47 21 65 39 32 33 71 109 72 140 0 24 7 22 41
-17z m2048 -120 l24 -13 -33 -12 c-18 -6 -42 -11 -53 -11 -20 0 -20 1 3 25 27
29 27 29 59 11z m240 -55 c11 -6 36 -11 57 -11 33 0 36 -2 30 -22 -3 -13 -11
-72 -17 -133 -15 -167 -54 -268 -135 -355 -119 -127 -305 -131 -556 -13 l-103
48 110 9 c61 4 132 8 159 7 56 -1 86 18 86 56 0 26 -41 73 -64 73 -17 0 -56
-46 -56 -66 0 -17 -85 -34 -168 -34 -97 0 -103 8 -42 63 66 59 141 88 209 80
47 -5 51 -4 62 20 24 54 -34 119 -80 90 -9 -5 -22 -21 -28 -35 -9 -17 -31 -32
-71 -46 -32 -12 -77 -38 -100 -58 -49 -41 -52 -33 -17 37 59 116 165 181 419
259 93 28 190 62 215 75 l46 23 12 -28 c6 -16 20 -33 32 -39z m-434 20 c44
-10 73 -21 65 -24 -153 -56 -191 -71 -196 -78 -3 -5 -11 -9 -19 -9 -9 0 -2 21
23 65 19 36 38 65 41 65 3 0 42 -9 86 -19z m492 13 c-3 -3 -12 -4 -19 -1 -8 3
-5 6 6 6 11 1 17 -2 13 -5z m-1385 -14 c62 -18 96 -55 158 -180 l59 -118 -56
34 c-31 19 -60 34 -63 34 -3 0 -10 14 -15 32 -14 43 -43 61 -75 45 -33 -17
-55 -57 -47 -89 9 -34 61 -54 102 -38 24 9 34 7 69 -16 52 -35 126 -95 126
-103 0 -8 -222 3 -238 13 -6 4 -12 14 -12 21 0 33 -77 47 -104 19 -20 -20 -20
-63 0 -92 18 -26 59 -29 90 -8 17 12 34 13 89 5 37 -5 76 -7 87 -4 10 4 18 3
18 -2 0 -12 -114 -43 -157 -43 -71 1 -189 28 -246 56 -96 46 -187 160 -212
265 -6 23 -3 27 24 32 36 7 50 44 32 83 -13 30 -15 29 94 48 96 17 226 20 277
6z m3042 -170 c-22 -365 -149 -672 -388 -936 -177 -195 -415 -333 -666 -384
-146 -30 -368 -24 -513 14 -174 45 -361 146 -486 261 l-59 56 26 47 c21 37 26
60 27 117 0 99 -38 177 -142 286 -43 45 -69 79 -58 75 11 -4 53 -17 94 -28 94
-26 233 -22 300 8 l44 19 71 -71 c106 -106 224 -155 369 -153 286 2 531 256
554 572 l6 82 141 1 c119 0 158 5 250 28 124 32 251 78 352 129 l69 35 8 -32
c4 -17 4 -74 1 -126z m-2675 60 c-10 -29 -32 -40 -43 -22 -6 10 30 52 44 52 5
0 4 -13 -1 -30z m1654 -34 c71 -25 131 -47 134 -50 3 -2 5 -38 4 -79 -2 -243
-181 -472 -408 -523 -163 -36 -345 26 -448 152 l-37 45 34 37 c71 78 122 194
134 303 7 67 15 79 51 79 13 0 65 14 117 30 51 17 101 28 109 24 18 -7 62 -68
76 -107 21 -55 13 -128 -19 -183 -62 -109 -180 -133 -271 -57 -29 25 -30 25
-49 8 -19 -17 -19 -19 -3 -38 10 -11 41 -30 68 -43 87 -41 174 -29 248 36 64
57 91 118 91 205 0 73 -22 134 -67 183 l-20 22 64 0 c50 0 93 -10 192 -44z
m-1975 -74 c3 -16 -2 -22 -16 -22 -27 0 -33 10 -21 32 13 24 33 19 37 -10z
m812 -48 c0 -16 -16 -19 -25 -4 -8 13 4 32 16 25 5 -4 9 -13 9 -21z m-887
-110 c8 -8 -11 -44 -22 -44 -12 0 -23 29 -15 41 6 10 28 12 37 3z m520 -54
c18 -16 18 -19 3 -49 -22 -42 -69 -66 -96 -49 -43 27 -38 100 7 116 33 12 61
6 86 -18z m420 5 c8 -18 -11 -31 -25 -17 -11 11 -3 32 12 32 4 0 10 -7 13 -15z
m-661 -96 c-55 -26 -101 -58 -137 -94 -30 -30 -61 -55 -70 -55 -20 0 -55 -36
-55 -56 0 -9 15 -31 34 -50 39 -39 76 -45 76 -14 0 11 -6 20 -13 20 -20 0 -50
37 -42 50 4 6 13 9 21 6 8 -3 28 13 50 39 33 41 119 106 159 121 11 4 3 -12
-20 -42 -21 -27 -42 -60 -47 -74 -5 -14 -23 -32 -41 -40 -24 -11 -33 -22 -35
-46 -4 -41 47 -88 90 -82 15 3 28 3 28 1 0 -2 -38 -46 -84 -97 -46 -51 -89
-103 -96 -115 l-12 -23 -23 22 c-33 31 -93 23 -145 -19 -22 -17 -41 -31 -44
-31 -12 0 -5 177 8 241 19 86 66 179 122 239 73 78 208 138 314 139 l45 1 -83
-41z m333 -19 c28 -16 75 -51 105 -79 47 -43 52 -50 33 -51 -26 0 -29 -11 -11
-40 11 -17 9 -23 -15 -46 -22 -20 -25 -29 -17 -39 27 -32 101 49 86 93 -12 34
120 -116 144 -164 24 -50 38 -143 26 -186 -3 -13 -15 -37 -25 -55 -19 -30 -23
-31 -49 -22 -16 6 -40 21 -52 34 -22 24 -50 24 -50 0 0 -6 9 -20 20 -30 11
-10 20 -29 20 -43 0 -23 -2 -24 -37 -17 -132 24 -302 167 -370 311 -45 95 -55
180 -28 249 16 44 35 60 35 30 0 -34 43 -142 71 -177 17 -22 29 -49 29 -66 0
-16 9 -37 20 -47 20 -18 21 -18 48 1 40 30 66 87 52 115 -9 16 -17 20 -38 14
-55 -13 -66 -10 -89 24 -13 19 -28 52 -34 75 -5 23 -12 49 -15 58 -4 12 3 22
20 29 41 19 80 -5 136 -82 47 -65 71 -82 85 -59 6 9 -100 160 -113 160 -11 1
-58 40 -47 40 6 0 33 -13 60 -30z m-254 -53 c-6 -8 -15 -42 -20 -78 -10 -70
-29 -129 -30 -95 -1 11 -10 30 -22 42 -19 21 -20 24 -5 52 20 39 65 92 78 92
7 0 7 -5 -1 -13z m-102 -161 c12 -14 5 -46 -9 -46 -4 0 -18 9 -31 20 -21 17
-22 21 -9 30 21 13 36 12 49 -4z m351 -54 c0 -5 -9 -17 -20 -27 -16 -14 -20
-15 -20 -4 0 16 19 39 32 39 4 0 8 -4 8 -8z"/>
<path d="M3847 7124 c-12 -12 4 -24 32 -24 36 0 51 -17 51 -57 0 -24 5 -33 16
-33 25 0 12 79 -16 102 -22 18 -70 24 -83 12z"/>
<path d="M3713 7104 c-26 -11 -12 -24 25 -24 66 0 109 -69 92 -147 -11 -46 4
-69 20 -29 22 59 5 141 -37 179 -21 18 -79 30 -100 21z"/>
<path d="M3615 7016 c-22 -17 -19 -18 46 -16 89 3 146 -82 114 -172 -8 -25
-12 -58 -9 -78 9 -57 -13 -120 -57 -162 -22 -21 -46 -38 -54 -38 -8 0 -23 -20
-34 -45 -27 -62 -81 -92 -193 -110 -62 -10 -46 -29 18 -22 83 9 158 49 189
102 14 23 43 55 65 70 61 42 83 85 92 184 5 48 11 109 14 136 9 87 -43 153
-127 162 -30 3 -50 0 -64 -11z"/>
<path d="M3555 6931 c-52 -23 -163 -143 -200 -216 -70 -140 -28 -255 93 -255
49 0 105 38 155 107 43 58 87 149 87 179 0 11 7 29 15 40 19 26 19 84 -1 113
-16 22 -70 51 -96 51 -7 0 -31 -9 -53 -19z m116 -40 c33 -33 36 -51 15 -89 -8
-15 -22 -50 -31 -79 -20 -64 -80 -158 -127 -200 -47 -40 -87 -49 -127 -29 -39
21 -54 49 -53 102 3 119 170 324 265 324 18 0 39 -10 58 -29z"/>
<path d="M3569 6875 c-62 -33 -79 -116 -34 -161 44 -44 90 -14 120 77 29 86
-11 125 -86 84z"/>
<path d="M3890 6810 c0 -19 -11 -42 -31 -65 -32 -36 -32 -58 -1 -39 48 30 84
134 47 134 -10 0 -15 -10 -15 -30z"/>
<path d="M3827 6600 c-12 -104 -85 -210 -158 -232 -42 -12 -52 -28 -18 -28 89
0 183 122 204 263 6 38 4 47 -7 47 -11 0 -17 -15 -21 -50z"/>
<path d="M4361 6597 c-23 -28 -43 -89 -32 -100 7 -7 14 -2 21 17 5 15 10 31
10 35 0 4 9 16 20 26 11 10 20 22 20 27 0 13 -26 9 -39 -5z"/>
<path d="M4213 6348 c-59 -61 -80 -98 -83 -148 -5 -59 -1 -80 14 -80 11 0 13
9 9 35 -8 52 21 118 78 175 46 46 60 70 41 70 -4 0 -31 -24 -59 -52z"/>
<path d="M4482 3834 c-31 -21 -45 -60 -32 -85 17 -30 29 -22 23 15 -4 29 -1
37 21 51 25 17 35 35 18 35 -4 0 -18 -7 -30 -16z"/>
<path d="M5673 2373 c-80 -3 -113 -7 -113 -16 0 -9 73 -11 324 -8 358 4 502
-8 677 -55 56 -15 96 -21 102 -15 5 5 5 11 0 14 -18 11 -177 48 -271 63 -99
16 -487 25 -719 17z"/>
<path d="M5498 2208 c10 -10 160 -15 645 -20 617 -6 668 -8 955 -44 34 -5 52
-3 52 4 0 15 -18 19 -165 36 -209 25 -507 36 -1019 36 -384 0 -478 -3 -468
-12z"/>
<path d="M5445 2130 c-9 -15 7 -18 137 -25 165 -8 409 -36 818 -94 514 -73
615 -82 589 -56 -3 2 -95 15 -204 29 -110 14 -324 44 -475 65 -301 44 -486 65
-684 81 -160 12 -173 12 -181 0z"/>
<path d="M5390 1991 c0 -5 8 -12 18 -15 43 -13 227 -37 466 -61 390 -38 540
-64 689 -118 39 -14 70 -21 73 -15 9 14 3 17 -89 48 -154 51 -308 77 -697 115
-140 14 -295 32 -345 40 -107 17 -115 18 -115 6z"/>
</g>
</svg>
