<?xml version="1.0" encoding="UTF-8" standalone="no"?>
<svg
   xmlns:dc="http://purl.org/dc/elements/1.1/"
   xmlns:cc="http://creativecommons.org/ns#"
   xmlns:rdf="http://www.w3.org/1999/02/22-rdf-syntax-ns#"
   xmlns:svg="http://www.w3.org/2000/svg"
   xmlns="http://www.w3.org/2000/svg"
   xmlns:sodipodi="http://sodipodi.sourceforge.net/DTD/sodipodi-0.dtd"
   xmlns:inkscape="http://www.inkscape.org/namespaces/inkscape"
   version="1.0"
   width="850.000000pt"
   height="850.000000pt"
   viewBox="0 0 850.000000 850.000000"
   preserveAspectRatio="xMidYMid meet"
   id="svg2"
   inkscape:version="0.91 r13725"
   sodipodi:docname="Oriental_2018916_12.svg">
  <defs
     id="defs440" />
  <sodipodi:namedview
     pagecolor="#ffffff"
     bordercolor="#666666"
     borderopacity="1"
     objecttolerance="10"
     gridtolerance="10"
     guidetolerance="10"
     inkscape:pageopacity="0"
     inkscape:pageshadow="2"
     inkscape:window-width="1920"
     inkscape:window-height="979"
     id="namedview438"
     showgrid="false"
     inkscape:zoom="0.38653677"
     inkscape:cx="511.65616"
     inkscape:cy="116.52624"
     inkscape:window-x="0"
     inkscape:window-y="1"
     inkscape:window-maximized="1"
     inkscape:current-layer="svg2" />
  <metadata
     id="metadata4">
Created by potrace 1.14, written by Peter Selinger 2001-2017
<rdf:RDF>
  <cc:Work
     rdf:about="">
    <dc:format>image/svg+xml</dc:format>
    <dc:type
       rdf:resource="http://purl.org/dc/dcmitype/StillImage" />
  </cc:Work>
</rdf:RDF>
</metadata>
  <g
     transform="translate(0.000000,850.000000) scale(0.100000,-0.100000)"
     fill="#000000"
     stroke="none"
     id="g6">
    <path
       d="M0 4250 l0 -4250 4250 0 4250 0 0 4250 0 4250 -4250 0 -4250 0 0 -4250z m4302 3802 c-30 -20 -37 -102 -26 -298 14 -239 -41 -462 -143 -575 -35 -39 -117 -89 -146 -89 -7 0 -26 -14 -42 -30 -44 -45 -113 -87 -170 -102 -29 -7 -66 -26 -89 -46 -41 -36 -118 -74 -175 -87 -18 -4 -61 -30 -95 -57 -33 -27 -121 -79 -194 -115 -115 -56 -145 -76 -218 -146 -107 -101 -210 -236 -230 -302 -23 -78 -44 -222 -45 -315 -1 -161 34 -216 284 -433 83 -72 116 -115 138 -179 l17 -50 31 58 c17 33 66 106 107 164 92 128 118 177 134 255 25 121 -13 239 -101 319 -29 26 -68 50 -91 57 -36 9 -43 8 -65 -13 -88 -82 -63 -211 44 -225 39 -5 42 -4 48 20 4 14 4 31 0 36 -3 6 -2 11 3 11 18 0 22 -31 7 -59 -30 -59 -149 -85 -202 -45 -120 90 -78 263 72 300 17 4 53 19 80 33 43 22 64 26 150 27 121 1 156 15 220 86 54 60 75 123 75 223 0 94 -23 170 -57 193 -41 26 -172 24 -210 -4 -39 -29 -51 -68 -32 -102 19 -35 52 -40 73 -10 9 12 16 17 16 11 0 -22 -51 -72 -84 -83 -67 -22 -116 12 -116 80 0 49 31 94 87 127 45 26 55 28 164 28 113 0 117 -1 191 -37 195 -97 339 -353 326 -581 -5 -79 -5 -79 14 -56 73 93 130 240 149 386 23 179 53 243 113 243 61 0 89 -55 111 -215 23 -172 74 -307 153 -413 16 -21 17 -17 18 86 0 89 5 120 28 187 57 168 170 305 303 368 64 30 74 32 183 32 108 0 118 -2 163 -28 56 -33 87 -78 87 -127 0 -68 -49 -102 -116 -80 -33 11 -84 61 -84 83 0 6 7 1 16 -11 21 -30 54 -25 73 10 19 34 7 73 -32 102 -37 28 -169 30 -208 4 -53 -34 -77 -204 -44 -315 18 -60 81 -135 139 -165 33 -17 61 -21 141 -22 83 -2 108 -6 145 -25 25 -12 67 -29 93 -37 128 -40 177 -177 96 -269 -50 -56 -119 -64 -197 -23 -42 22 -65 98 -30 98 5 0 6 -5 3 -11 -4 -5 -4 -22 0 -36 6 -24 9 -25 48 -20 107 14 132 143 44 225 -23 22 -28 22 -67 12 -31 -8 -60 -29 -101 -69 -49 -49 -61 -69 -80 -131 -41 -136 -13 -235 116 -417 46 -65 98 -144 116 -177 l31 -58 17 50 c22 65 55 107 139 179 37 32 106 96 153 143 109 108 132 160 130 295 -1 92 -21 229 -45 307 -20 69 -89 163 -205 279 -101 101 -112 109 -231 166 -114 55 -250 143 -250 163 0 4 -18 10 -40 14 -58 9 -142 49 -186 88 -23 20 -60 39 -89 46 -57 15 -126 57 -170 102 -16 16 -35 30 -42 30 -29 0 -111 50 -147 90 -100 111 -157 344 -142 579 9 149 7 218 -9 264 -12 36 -12 38 2 25 9 -9 19 -49 25 -99 12 -100 48 -178 137 -296 104 -138 227 -246 452 -396 418 -278 702 -546 823 -777 144 -276 185 -660 101 -958 -33 -113 -196 -442 -275 -550 -52 -72 -61 -91 -66 -140 -17 -174 -80 -316 -203 -462 l-46 -54 35 21 c60 37 187 74 273 80 110 7 205 -14 320 -72 91 -47 92 -47 126 -30 19 9 86 23 148 31 145 17 191 37 234 100 18 27 59 77 92 111 l59 62 -37 56 c-95 142 -286 248 -465 256 -69 3 -370 -20 -415 -32 -22 -6 -55 -19 -72 -29 -18 -11 -33 -16 -33 -12 0 13 71 48 120 60 25 6 104 16 175 22 175 15 246 27 335 56 141 48 239 126 292 232 20 41 23 62 23 157 0 103 -2 114 -32 177 -52 110 -138 189 -239 218 -35 11 -45 10 -67 -5 -53 -35 -59 -126 -10 -165 28 -22 68 -26 79 -8 5 8 1 9 -12 4 -15 -6 -16 -4 -7 5 17 17 43 4 43 -21 0 -84 -123 -118 -204 -56 -93 71 -78 220 27 266 51 22 251 36 314 22 41 -9 42 -9 56 22 47 100 75 274 46 292 -6 3 -23 -3 -37 -14 -30 -22 -30 -25 -18 -169 5 -58 5 -93 -1 -93 -6 0 -13 44 -16 98 -8 107 -33 234 -73 357 -38 118 -154 347 -228 450 -310 430 -822 736 -1501 895 -143 34 -177 53 -44 25 92 -19 102 -18 64 2 -16 8 -49 31 -72 49 -91 74 -109 157 -43 202 72 49 204 17 332 -78 l52 -39 18 30 c22 36 60 52 102 43 60 -12 152 -70 228 -142 68 -65 77 -71 83 -53 14 47 77 55 145 21 72 -37 128 -95 226 -238 1 -2 12 6 23 17 21 21 37 25 76 21 59 -5 153 -112 213 -240 20 -41 37 -77 38 -79 2 -2 15 6 30 18 43 34 72 27 124 -27 53 -55 89 -136 116 -259 17 -80 18 -81 38 -67 29 20 69 18 98 -6 54 -42 93 -196 86 -336 l-3 -73 32 1 c67 3 99 -62 90 -177 -12 -142 -89 -322 -177 -416 l-48 -51 30 -10 c145 -51 295 -189 377 -348 168 -323 118 -717 -127 -1005 l-59 -70 -6 -90 c-3 -53 -14 -116 -27 -152 -43 -124 -142 -246 -247 -305 -48 -27 -53 -33 -49 -57 3 -14 10 -83 16 -153 13 -150 29 -212 73 -270 104 -138 320 -106 383 57 23 61 16 95 -25 122 -46 31 -132 32 -161 3 -33 -33 -21 -90 18 -90 9 0 12 6 7 18 -5 14 -4 15 6 4 11 -10 10 -15 -1 -27 -23 -22 -63 12 -63 54 0 53 32 76 106 76 34 0 72 -4 85 -8 12 -5 22 -4 22 1 0 19 -47 77 -80 100 -30 20 -44 23 -94 20 -53 -4 -62 -8 -92 -41 -28 -30 -34 -45 -34 -79 0 -58 30 -104 83 -129 35 -16 37 -18 12 -13 -126 24 -155 188 -46 261 40 27 126 31 169 9 47 -25 112 -109 112 -146 0 -6 16 -33 35 -61 68 -99 83 -234 45 -385 -68 -265 -245 -460 -491 -542 -313 -103 -651 -35 -880 176 -38 35 -69 62 -69 59 0 -2 7 -20 15 -40 44 -106 38 -250 -16 -366 -38 -83 -144 -189 -304 -303 -139 -100 -186 -145 -214 -208 -58 -127 14 -275 152 -315 50 -14 59 -14 92 -1 94 40 135 98 135 193 0 35 -7 72 -18 93 -27 54 -102 69 -102 20 0 -20 24 -28 35 -10 12 19 36 -2 33 -29 -4 -36 -43 -54 -91 -40 -93 25 -88 146 7 184 57 23 126 5 177 -46 67 -67 77 -160 28 -257 -53 -106 -119 -144 -280 -157 -234 -21 -422 120 -486 365 -24 92 -21 261 6 362 28 108 75 220 127 308 l45 75 -86 -85 c-170 -167 -256 -306 -299 -479 -28 -113 -46 -153 -78 -175 -71 -50 -129 13 -164 178 -31 149 -134 313 -299 476 l-86 85 41 -69 c101 -167 153 -338 154 -506 0 -172 -44 -299 -139 -399 -99 -104 -219 -149 -364 -136 -155 13 -223 49 -274 144 -54 98 -45 203 22 270 96 96 251 61 251 -56 0 -40 -25 -71 -67 -82 -48 -14 -87 4 -91 40 -3 27 21 48 33 29 12 -20 35 -10 35 15 0 20 -5 25 -26 25 -61 0 -94 -50 -94 -145 0 -93 42 -152 135 -191 56 -23 135 3 196 64 101 101 90 244 -27 352 -27 25 -96 79 -154 120 -143 100 -252 210 -290 291 -51 110 -58 264 -15 366 8 19 15 38 15 41 0 3 -26 -20 -58 -51 -109 -103 -257 -182 -406 -214 -94 -21 -289 -21 -382 0 -296 66 -496 249 -585 537 -19 59 -24 98 -24 185 0 123 10 160 61 235 19 27 34 54 34 60 0 21 38 85 67 112 36 35 73 48 132 48 175 0 207 -251 36 -284 -26 -5 -24 -3 11 13 59 27 84 63 84 122 0 42 -5 55 -34 86 -30 33 -39 37 -92 41 -50 3 -64 0 -94 -20 -33 -23 -80 -81 -80 -100 0 -5 10 -6 23 -1 12 4 50 8 84 8 74 0 106 -23 106 -76 0 -42 -40 -76 -63 -54 -11 12 -12 17 -1 27 10 11 11 10 6 -4 -5 -12 -2 -18 7 -18 39 0 51 57 18 90 -47 47 -190 11 -198 -50 -10 -66 56 -166 133 -201 77 -35 177 -19 238 39 60 56 82 124 97 297 5 66 12 134 15 151 5 30 2 34 -48 62 -105 59 -204 181 -247 305 -13 38 -24 98 -27 155 l-6 93 -44 47 c-104 111 -186 270 -221 427 -23 106 -20 309 7 410 27 105 97 245 160 321 76 92 190 175 292 213 l26 10 -47 50 c-87 92 -163 271 -176 410 -11 117 23 185 90 183 l33 -1 -5 72 c-8 137 31 295 86 337 29 24 69 26 98 6 20 -14 21 -13 38 67 25 114 61 198 107 251 50 56 89 67 131 36 16 -12 31 -20 33 -18 1 1 18 37 37 78 81 173 195 273 269 234 16 -8 29 -19 29 -24 0 -21 16 -8 45 37 63 100 188 206 250 213 48 5 66 -1 83 -29 l16 -29 76 71 c74 71 166 129 226 141 42 9 80 -7 102 -43 l18 -30 52 39 c128 95 260 127 332 78 66 -45 48 -128 -43 -202 -23 -18 -55 -41 -72 -49 -38 -20 -28 -21 64 -2 133 28 99 9 -44 -25 -677 -159 -1192 -465 -1498 -891 -169 -236 -287 -556 -304 -822 -4 -76 -9 -104 -16 -92 -5 10 -5 58 2 128 l11 112 -26 23 c-40 35 -49 24 -48 -59 0 -70 17 -142 51 -215 14 -31 15 -31 56 -22 63 15 263 1 314 -22 106 -46 120 -195 27 -267 -47 -35 -117 -42 -161 -14 -49 31 -59 101 -13 101 11 0 20 -4 20 -10 0 -5 -7 -6 -17 -3 -11 4 -14 3 -9 -5 12 -19 53 -14 81 11 36 31 43 91 16 134 -27 44 -55 49 -126 22 -80 -30 -164 -113 -208 -206 -30 -63 -32 -75 -32 -173 0 -93 3 -112 26 -161 51 -109 145 -184 289 -233 89 -29 160 -41 335 -56 72 -6 150 -16 175 -22 49 -12 120 -47 120 -60 0 -4 4 -8 9 -8 18 0 -4 45 -61 124 -76 106 -240 436 -272 547 -78 275 -54 598 65 885 49 117 142 247 273 382 154 158 327 298 585 470 228 151 350 259 456 401 89 118 121 188 133 289 10 80 23 112 46 112 7 0 6 -3 -2 -8z m42 -791 c26 -90 20 -141 -18 -141 -30 0 -46 18 -46 53 0 40 33 158 41 149 4 -4 14 -31 23 -61z m7 -241 c22 -12 26 -59 7 -78 -17 -17 -48 -15 -70 5 -22 20 -23 32 -2 61 17 24 35 28 65 12z m12 -181 c29 -47 -32 -101 -73 -64 -23 20 -25 37 -9 66 13 24 66 23 82 -2z m-1077 -1074 c15 -23 15 -27 0 -50 -10 -15 -26 -25 -40 -25 -40 0 -63 46 -40 79 21 29 60 27 80 -4z m2140 0 c15 -23 15 -27 0 -50 -10 -15 -26 -25 -41 -25 -15 0 -31 10 -41 25 -15 23 -15 27 0 50 10 15 26 25 41 25 15 0 31 -10 41 -25z m-2153 -169 c9 -35 17 -76 17 -89 0 -25 -23 -57 -40 -57 -19 0 -40 33 -40 63 0 36 30 147 39 147 4 0 15 -29 24 -64z m2131 6 c9 -32 16 -72 16 -89 0 -30 -21 -63 -40 -63 -17 0 -40 32 -40 57 0 32 32 153 41 153 3 0 14 -26 23 -58z m-2912 -149 c22 -20 23 -41 1 -65 -33 -37 -83 -17 -83 34 0 44 48 62 82 31z m3709 7 c22 -12 26 -59 7 -78 -17 -17 -48 -15 -70 5 -22 20 -23 32 -2 61 17 24 35 28 65 12z m-3718 -180 c29 -101 18 -157 -30 -148 -32 6 -39 51 -18 133 10 41 21 75 24 75 3 0 14 -27 24 -60z m3712 -15 c14 -55 16 -82 9 -102 -18 -52 -74 -37 -74 19 0 35 31 158 40 158 4 0 15 -34 25 -75z m-4475 -2314 c24 -76 24 -109 -2 -125 -28 -17 -52 5 -56 50 -4 45 17 156 28 149 4 -2 17 -36 30 -74z m5248 -65 c-3 -56 -25 -79 -55 -60 -32 20 -27 69 18 181 l12 28 13 -50 c8 -27 13 -72 12 -99z m-5217 -136 c22 -12 26 -59 7 -78 -19 -19 -66 -15 -78 7 -14 28 -13 38 10 61 23 23 33 24 61 10z m5189 -10 c23 -23 24 -33 10 -61 -12 -22 -59 -26 -78 -7 -17 17 -15 54 4 72 21 21 40 20 64 -4z m-5140 -160 c24 -45 -25 -94 -69 -71 -23 13 -29 59 -9 79 20 20 66 15 78 -8z m5113 -1 c19 -26 11 -58 -18 -71 -44 -20 -88 28 -65 72 15 27 64 27 83 -1z m-4254 -189 c39 -72 41 -133 4 -138 -36 -5 -53 32 -53 120 0 43 4 78 9 78 4 0 23 -27 40 -60z m3361 -18 c0 -88 -17 -125 -53 -120 -37 5 -35 66 4 138 17 33 36 60 40 60 5 0 9 -35 9 -78z m-4186 2 c44 -64 58 -127 31 -138 -24 -9 -52 1 -60 22 -9 21 -22 172 -15 172 3 0 22 -25 44 -56z m5005 -21 c-3 -43 -10 -86 -13 -95 -9 -21 -33 -30 -59 -22 -30 9 -17 71 29 138 22 31 41 56 44 56 3 0 2 -35 -1 -77z m-4101 -175 c20 -20 14 -56 -13 -74 -23 -15 -27 -15 -50 0 -44 29 -28 86 25 86 14 0 31 -5 38 -12z m3230 0 c20 -20 14 -56 -13 -74 -23 -15 -27 -15 -50 0 -44 29 -28 86 25 86 14 0 31 -5 38 -12z m-4022 -23 c15 -23 15 -27 0 -50 -10 -15 -26 -25 -41 -25 -15 0 -31 10 -41 25 -15 23 -15 27 0 50 10 15 26 25 41 25 15 0 31 -10 41 -25z m4820 0 c15 -23 15 -27 0 -50 -29 -44 -86 -28 -86 25 0 53 57 69 86 25z m-3976 -125 c11 -11 20 -23 20 -28 0 -20 -34 -52 -55 -52 -21 0 -55 32 -55 52 0 14 39 48 55 48 8 0 24 -9 35 -20z m3120 0 c34 -34 17 -80 -30 -80 -51 0 -72 55 -32 88 22 17 39 15 62 -8z m-3894 -15 c15 -23 15 -27 0 -50 -10 -15 -26 -25 -41 -25 -15 0 -31 10 -41 25 -15 23 -15 27 0 50 10 15 26 25 41 25 15 0 31 -10 41 -25z m4680 0 c15 -23 15 -27 0 -50 -20 -31 -59 -33 -80 -4 -23 33 0 79 40 79 14 0 30 -10 40 -25z m-3834 -181 c26 -29 50 -65 54 -79 12 -50 -42 -75 -70 -32 -13 18 -45 133 -46 160 0 16 17 3 62 -49z m2963 19 c-10 -55 -25 -105 -41 -130 -27 -44 -82 -18 -70 32 6 25 94 133 109 134 4 1 5 -16 2 -36z m-3681 -64 c15 -17 26 -41 26 -54 0 -30 -28 -47 -53 -34 -20 11 -51 69 -61 114 -4 17 -10 39 -13 49 -4 16 3 13 35 -13 23 -17 52 -45 66 -62z m4425 11 c-25 -80 -58 -117 -90 -99 -36 19 -23 57 42 121 34 33 63 57 66 54 3 -2 -5 -37 -18 -76z m-2231 -26 c28 -19 28 -58 1 -78 -23 -16 -47 -12 -66 12 -18 22 -16 39 7 62 24 24 29 24 58 4z m-1347 -123 c20 -16 22 -23 14 -47 -18 -52 -95 -42 -95 12 0 20 32 54 51 54 4 0 17 -9 30 -19z m2707 3 c12 -8 22 -26 22 -38 0 -54 -77 -64 -95 -12 -8 24 -6 31 14 47 28 23 31 23 59 3z m-3433 -18 c28 -43 -18 -91 -63 -67 -28 15 -35 40 -17 67 21 32 60 31 80 0z m4179 5 c22 -24 13 -58 -19 -73 -46 -21 -88 29 -58 71 18 26 55 27 77 2z m-2091 -62 c16 -26 0 -68 -29 -75 -29 -7 -64 18 -64 47 0 44 70 65 93 28z m-1989 -55 c21 -21 20 -40 -4 -64 -23 -23 -33 -24 -61 -10 -22 12 -26 59 -7 78 17 17 54 15 72 -4z m721 -4 c24 -27 13 -68 -22 -76 -34 -9 -57 6 -61 42 -6 49 49 72 83 34z m2529 7 c22 -16 18 -65 -5 -80 -47 -29 -101 32 -64 73 21 23 44 25 69 7z m730 -8 c21 -31 -3 -79 -41 -79 -17 0 -53 36 -53 54 0 43 68 61 94 25z m-1995 -226 c1 -56 -7 -73 -35 -73 -40 0 -49 41 -29 125 10 39 20 74 23 79 9 15 40 -85 41 -131z m-1791 34 c34 -31 24 -77 -18 -77 -21 0 -71 53 -105 113 l-28 49 64 -32 c35 -18 74 -41 87 -53z m3637 36 c-57 -99 -111 -135 -138 -92 -17 27 16 65 91 103 37 19 69 35 70 36 2 0 -8 -21 -23 -47z m-2950 -54 c28 -34 31 -49 13 -67 -18 -18 -42 -14 -65 11 -22 23 -55 86 -68 125 -6 22 -5 22 44 -8 28 -17 62 -45 76 -61z m2240 23 c-42 -94 -90 -126 -119 -80 -8 13 -6 24 10 45 20 27 125 105 132 98 2 -2 -8 -30 -23 -63z m-2787 -104 c17 -17 15 -48 -5 -70 -20 -22 -41 -23 -65 -1 -20 18 -23 36 -8 64 12 22 59 26 78 7z m3310 0 c26 -26 0 -88 -36 -88 -40 0 -67 61 -40 88 15 15 61 15 76 0z m-2628 -28 c11 -11 20 -27 20 -35 0 -16 -34 -55 -48 -55 -20 0 -52 34 -52 55 0 21 32 55 52 55 5 0 17 -9 28 -20z m1948 -33 c4 -34 -37 -64 -66 -48 -39 21 -38 75 1 91 29 11 61 -10 65 -43z m-2494 -49 c17 -50 -42 -89 -78 -52 -19 19 -21 55 -4 72 7 7 26 12 43 10 22 -2 32 -10 39 -30z m3049 11 c29 -47 -32 -101 -73 -64 -23 20 -25 37 -9 66 13 24 66 23 82 -2z m-1530 -10 c16 -26 0 -68 -29 -75 -29 -7 -64 18 -64 47 0 44 70 65 93 28z m-838 -33 c28 -43 -18 -91 -63 -67 -28 15 -35 40 -17 67 21 32 60 31 80 0z m1679 5 c22 -24 13 -58 -19 -73 -46 -21 -88 29 -58 71 18 26 55 27 77 2z m-2227 -61 c29 -7 64 -21 78 -32 50 -39 18 -89 -40 -63 -38 16 -139 120 -110 112 11 -3 44 -11 72 -17z m2738 -31 c-28 -28 -63 -57 -80 -64 -55 -24 -88 21 -45 60 17 16 129 52 165 54 5 1 -13 -22 -40 -50z m-2009 -19 c42 -14 67 -43 60 -68 -9 -29 -33 -34 -68 -16 -33 17 -118 92 -118 104 0 8 77 -4 126 -20z m1330 -19 c-20 -21 -54 -48 -75 -59 -38 -22 -39 -22 -62 -4 -43 35 -1 74 102 96 35 7 66 12 68 9 3 -2 -12 -21 -33 -42z m-673 -22 c29 -47 -32 -101 -73 -64 -23 20 -25 37 -9 66 13 24 66 23 82 -2z m-1143 -10 c25 -45 -12 -89 -60 -74 -48 15 -31 95 20 95 19 0 33 -7 40 -21z m2288 9 c28 -28 2 -88 -38 -88 -24 0 -50 26 -50 50 0 40 60 66 88 38z m-1597 -40 c21 -39 -18 -82 -64 -70 -22 6 -36 38 -29 65 10 38 74 42 93 5z m920 0 c21 -39 -18 -82 -64 -70 -22 6 -36 38 -29 65 10 38 74 42 93 5z m-1471 -18 c23 -23 25 -40 8 -62 -20 -24 -44 -28 -67 -12 -27 20 -27 59 1 78 29 20 34 20 58 -4z m2002 -4 c14 -21 8 -55 -13 -70 -23 -16 -47 -12 -66 12 -18 22 -16 39 8 63 21 21 56 19 71 -5z m-1304 -8 c26 -26 0 -88 -36 -88 -40 0 -67 61 -40 88 15 15 61 15 76 0z m610 0 c26 -26 0 -88 -36 -88 -40 0 -67 61 -40 88 15 15 61 15 76 0z m-450 -20 c7 -7 12 -24 12 -38 0 -53 -57 -69 -86 -25 -15 23 -15 27 0 50 18 27 54 33 74 13z m291 -20 c14 -24 14 -28 -3 -47 -36 -39 -86 -21 -86 31 0 51 63 63 89 16z m-882 -33 c45 -30 17 -71 -42 -62 -20 3 -61 21 -91 41 -50 31 -53 35 -32 39 40 9 141 -2 165 -18z m1552 19 l31 -7 -56 -35 c-65 -41 -129 -49 -148 -20 -27 43 79 80 173 62z m-1389 -44 c23 -23 25 -40 8 -62 -20 -24 -44 -28 -67 -12 -27 20 -27 59 1 78 29 20 34 20 58 -4z m1128 4 c28 -19 28 -58 1 -78 -23 -16 -47 -12 -66 12 -18 22 -16 39 7 62 24 24 29 24 58 4z m-545 -104 c32 -69 141 -190 171 -190 22 0 20 -16 -6 -59 -45 -75 -122 -162 -164 -187 -40 -24 -47 -25 -76 -13 -41 17 -116 94 -167 171 -43 66 -50 88 -27 88 44 0 169 155 204 252 15 44 18 47 26 26 5 -13 22 -52 39 -88z m-425 78 c35 -35 -14 -102 -57 -79 -45 25 -33 91 17 91 16 0 33 -5 40 -12z m832 -8 c14 -26 5 -57 -21 -71 -43 -23 -92 44 -57 79 20 20 66 15 78 -8z m-682 -2 c7 -7 12 -24 12 -38 0 -48 -45 -67 -82 -33 -22 20 -23 41 -1 65 18 21 53 24 71 6z m524 -5 c24 -21 23 -45 -2 -68 -29 -27 -74 -10 -78 28 -6 52 41 76 80 40z"
       id="path8"
       style="fill:none" />
    <path
       d="M3920 7922 c-62 -25 -143 -78 -215 -141 -62 -54 -185 -190 -185 -204 0 -5 20 9 45 31 90 79 240 141 292 121 26 -10 27 -26 8 -72 -6 -15 5 -12 61 16 153 77 233 189 174 242 -30 27 -122 30 -180 7z"
       id="path10"
       style="fill:#ffccff" />
    <path
       d="M4560 7933 c-106 -39 -33 -171 144 -260 56 -28 67 -31 61 -16 -19 46 -18 62 8 72 52 20 202 -42 292 -121 25 -22 45 -36 45 -31 0 14 -123 151 -183 202 -80 70 -142 111 -207 138 -52 21 -126 29 -160 16z"
       id="path12"
       style="fill:#99ccff" />
    <path
       d="M3568 7866 c-130 -46 -327 -256 -403 -430 l-26 -59 71 76 c80 86 174 153 228 163 30 6 38 3 50 -14 14 -21 16 -20 62 41 26 34 71 84 99 112 28 27 51 54 51 61 0 6 -9 23 -21 38 -23 29 -53 33 -111 12z"
       id="path14"
       style="fill:#ffccff" />
    <path
       d="M4952 7855 c-12 -15 -22 -33 -22 -39 0 -7 23 -34 51 -61 28 -28 73 -78 99 -112 46 -61 48 -62 62 -41 12 17 20 20 50 14 54 -10 147 -77 225 -160 l69 -74 17 29 c9 16 24 29 35 29 53 0 173 -113 244 -231 21 -34 38 -57 38 -51 0 6 -13 53 -30 104 -62 193 -201 386 -322 449 -49 25 -74 24 -104 -6 l-24 -24 46 -68 c50 -73 104 -179 104 -203 0 -8 -17 17 -38 56 -56 105 -121 191 -204 270 -87 82 -168 132 -230 140 -40 6 -47 4 -66 -21z"
       id="path16"
       style="fill:#99ccff" />
    <path
       d="M4226 7783 c-15 -32 -53 -92 -83 -134 l-54 -76 -3 -99 c-4 -119 -27 -215 -72 -306 -37 -74 -32 -77 44 -25 83 56 144 179 176 353 15 79 34 344 25 344 -3 0 -17 -26 -33 -57z"
       id="path18"
       style="fill:#99ccff" />
    <path
       d="M4375 7715 c15 -300 82 -494 197 -573 76 -51 80 -48 43 31 -49 102 -66 176 -70 298 l-3 107 -45 58 c-25 33 -64 93 -87 134 l-42 75 7 -130z"
       id="path20"
       style="fill:#ffcccc" />
    <path
       d="M3155 7708 c-59 -30 -163 -143 -219 -237 -48 -80 -107 -222 -121 -291 -6 -32 -3 -29 32 27 53 86 128 170 182 204 54 35 75 36 95 7 13 -18 16 -19 16 -6 0 24 70 156 113 212 39 51 38 74 -3 96 -27 15 -50 12 -95 -12z"
       id="path22"
       style="fill:#ffccff" />
    <path
       d="M3785 7706 c-22 -7 -62 -24 -90 -38 -57 -30 -199 -128 -193 -134 2 -2 28 5 56 16 29 11 103 35 165 54 89 27 115 39 126 58 16 27 9 58 -11 57 -7 0 -31 -6 -53 -13z"
       id="path24"
       style="fill:#ff99ff" />
    <path
       d="M4773 7704 c-3 -9 0 -28 8 -42 11 -19 37 -31 126 -58 62 -19 136 -43 165 -54 28 -11 54 -18 56 -16 8 8 -145 109 -213 141 -92 44 -133 52 -142 29z"
       id="path26"
       style="fill:#6699ff" />
    <path
       d="M3383 7570 c-28 -16 -89 -65 -135 -110 l-83 -80 140 66 c77 36 147 69 155 73 9 5 15 22 15 42 0 46 -25 48 -92 9z"
       id="path28"
       style="fill:#ff99ff" />
    <path
       d="M5154 7586 c-9 -23 0 -58 16 -67 8 -4 78 -37 155 -73 l140 -66 -81 79 c-113 110 -215 166 -230 127z"
       id="path30"
       style="fill:#6699ff" />
    <path
       d="M4028 7511 c-18 -21 -65 -66 -104 -101 l-71 -62 -6 -87 c-6 -104 -25 -167 -71 -243 l-34 -57 27 10 c128 49 214 157 265 332 24 82 46 247 33 247 -3 0 -20 -17 -39 -39z"
       id="path32"
       style="fill:#99ccff" />
    <path
       d="M4563 7480 c22 -257 132 -446 298 -509 l27 -10 -35 57 c-43 72 -65 146 -72 247 l-6 81 -109 104 -109 105 6 -75z"
       id="path34"
       style="fill:#ffcccc" />
    <path
       d="M2773 7481 c-111 -80 -227 -340 -239 -536 -4 -77 -4 -79 9 -40 25 76 98 202 142 249 47 49 86 60 103 30 7 -12 13 1 26 52 10 38 33 107 53 153 l36 84 -23 19 c-31 25 -61 23 -107 -11z"
       id="path36"
       style="fill:#ffccff" />
    <path
       d="M5750 7492 l-23 -19 37 -85 c20 -47 44 -116 53 -153 12 -49 19 -62 25 -51 26 46 106 -10 170 -120 40 -69 78 -156 78 -178 0 -9 4 -16 8 -16 9 0 -2 125 -17 193 -51 221 -196 447 -287 447 -12 0 -32 -8 -44 -18z"
       id="path38"
       style="fill:#99ccff" />
    <path
       d="M3026 7384 c-43 -33 -176 -188 -176 -206 0 -4 34 18 76 48 42 30 103 71 135 91 58 35 67 51 53 87 -10 25 -37 19 -88 -20z"
       id="path40"
       style="fill:#ff99ff" />
    <path
       d="M5516 7404 c-14 -37 -5 -52 57 -89 34 -21 95 -63 135 -92 39 -29 72 -50 72 -45 0 18 -132 173 -176 206 -51 39 -78 45 -88 20z"
       id="path42"
       style="fill:#6699ff" />
    <path
       d="M3714 7256 l-122 -81 -5 -60 c-8 -80 -40 -179 -76 -237 l-30 -47 51 20 c129 50 221 149 267 285 19 56 46 193 39 199 -2 1 -58 -34 -124 -79z"
       id="path44"
       style="fill:#99ccff" />
    <path
       d="M4795 7293 c32 -230 131 -375 303 -442 l51 -20 -30 47 c-36 57 -66 151 -75 235 l-6 62 -125 83 -124 83 6 -48z"
       id="path46"
       style="fill:#ffcccc" />
    <path
       d="M2438 7201 c-91 -72 -162 -362 -138 -567 5 -49 10 -93 11 -99 0 -5 11 40 23 101 37 179 106 297 156 266 17 -10 19 -5 25 61 4 40 16 106 26 147 l20 75 -22 18 c-28 22 -70 22 -101 -2z"
       id="path48"
       style="fill:#ffccff" />
    <path
       d="M6091 7203 l-22 -18 20 -75 c10 -41 22 -107 26 -147 6 -66 8 -71 25 -61 55 35 141 -131 166 -320 4 -29 8 -51 10 -49 2 1 8 44 14 94 25 206 -46 501 -138 574 -31 24 -73 24 -101 2z"
       id="path50"
       style="fill:#99ccff" />
    <path
       d="M2703 7143 c-38 -42 -99 -141 -132 -217 -12 -28 -20 -48 -18 -45 1 2 56 59 121 126 104 107 118 125 112 148 -9 37 -42 32 -83 -12z"
       id="path52"
       style="fill:#ff99ff" />
    <path
       d="M5844 7155 c-6 -23 8 -41 112 -148 65 -67 120 -124 122 -127 24 -33 -71 152 -104 202 -66 98 -116 127 -130 73z"
       id="path54"
       style="fill:#6699ff" />
    <path
       d="M3464 7082 c-174 -133 -165 -124 -175 -178 -12 -66 -60 -161 -109 -216 -22 -26 -40 -48 -40 -51 0 -3 46 20 102 51 113 63 201 138 246 210 42 65 106 263 84 261 -4 0 -52 -35 -108 -77z"
       id="path56"
       style="fill:#99ccff" />
    <path
       d="M5056 7128 c12 -66 56 -184 86 -230 45 -72 133 -147 239 -205 52 -29 99 -53 103 -53 4 0 -11 21 -33 46 -52 59 -99 153 -107 215 -6 47 -9 50 -108 126 -133 103 -174 133 -180 133 -3 0 -3 -15 0 -32z"
       id="path58"
       style="fill:#ffcccc" />
    <path
       d="M3159 6824 c-153 -149 -229 -248 -296 -382 -57 -115 -68 -162 -17 -75 15 26 95 117 178 201 83 84 165 175 183 201 34 50 77 150 69 158 -3 3 -55 -44 -117 -103z"
       id="path60"
       style="fill:#99ccff" />
    <path
       d="M5355 6909 c4 -13 21 -53 38 -89 26 -52 64 -98 193 -230 88 -91 177 -190 198 -220 23 -33 35 -45 31 -30 -13 46 -97 201 -143 263 -49 67 -249 276 -296 310 l-28 20 7 -24z"
       id="path62"
       style="fill:#ffcccc" />
    <path
       d="M2435 6853 c-28 -41 -79 -191 -90 -263 l-6 -45 41 75 c23 41 64 106 90 144 47 67 48 71 34 98 -20 38 -38 35 -69 -9z"
       id="path64"
       style="fill:#ff99ff" />
    <path
       d="M6132 6870 c-19 -31 -15 -45 32 -112 24 -35 62 -97 85 -138 46 -84 49 -79 22 35 -30 123 -84 235 -114 235 -7 0 -18 -9 -25 -20z"
       id="path66"
       style="fill:#6699ff" />
    <path
       d="M2194 6860 c-117 -45 -135 -425 -31 -661 l22 -51 0 144 c0 115 4 152 18 191 23 57 51 81 80 65 17 -9 19 -8 13 8 -12 32 -27 174 -24 232 3 53 2 56 -27 67 -18 8 -39 9 -51 5z"
       id="path68"
       style="fill:#ffccff" />
    <path
       d="M6382 6854 c-32 -13 -32 -14 -26 -66 6 -52 -8 -195 -22 -232 -6 -16 -4 -17 13 -8 29 16 57 -8 80 -65 14 -39 18 -76 18 -190 0 -141 0 -142 17 -109 54 105 87 332 68 472 -21 162 -72 230 -148 198z"
       id="path70"
       style="fill:#99ccff" />
    <path
       d="M3346 6649 c-30 -24 -56 -69 -56 -99 0 -25 34 -60 59 -60 11 0 32 5 48 11 27 11 27 11 7 19 -26 10 -54 48 -54 73 0 10 7 31 15 47 18 36 16 37 -19 9z"
       id="path72"
       style="fill:#33ccff" />
    <path
       d="M5266 6643 c7 -16 14 -37 14 -48 0 -27 -27 -64 -54 -75 -20 -8 -20 -8 7 -19 42 -16 64 -14 88 10 37 37 8 117 -53 150 -15 8 -16 7 -2 -18z"
       id="path74"
       style="fill:#33ccff" />
    <path
       d="M4278 6643 c-30 -35 -39 -65 -54 -181 -20 -162 -40 -229 -138 -452 -100 -226 -133 -292 -193 -378 -23 -35 -43 -69 -43 -75 0 -29 -54 -196 -91 -281 l-39 -91 -4 -220 c-3 -195 -1 -229 16 -298 27 -105 74 -173 195 -285 56 -51 119 -118 140 -149 l38 -55 44 48 c24 27 70 89 102 137 32 48 60 89 63 90 3 1 32 -38 64 -88 32 -49 79 -112 103 -139 l45 -49 28 44 c16 24 87 100 157 169 194 190 208 230 202 572 -3 226 -4 228 -33 292 -33 74 -86 231 -96 282 -3 19 -27 65 -51 102 -54 79 -96 162 -170 331 -126 286 -135 315 -153 471 -6 52 -16 113 -22 135 -18 74 -75 108 -110 68z m67 -436 c23 -92 16 -127 -24 -127 -46 0 -52 39 -24 145 9 35 20 62 23 60 4 -2 15 -37 25 -78z m10 -233 c19 -20 16 -63 -6 -77 -26 -16 -68 0 -75 29 -12 48 46 83 81 48z m3 -166 c17 -17 15 -48 -5 -70 -20 -22 -41 -23 -65 -1 -20 18 -23 36 -8 64 12 22 59 26 78 7z m11 -301 c92 -255 149 -332 239 -325 39 3 42 1 42 -22 0 -40 -61 -157 -127 -245 -66 -87 -107 -129 -167 -169 -35 -23 -40 -24 -65 -12 -45 24 -116 92 -175 169 -66 87 -136 217 -136 255 0 26 2 27 43 24 89 -7 150 76 242 333 26 74 50 134 51 132 2 -2 26 -65 53 -140z m-31 -873 c28 -19 26 -61 -3 -80 -50 -33 -102 46 -53 80 12 9 25 16 28 16 3 0 16 -7 28 -16z"
       id="path76"
       style="fill:#cc33ff" />
    <path
       d="M4305 6175 c-8 -58 2 -84 25 -70 9 5 11 24 6 58 -8 74 -23 80 -31 12z"
       id="path78"
       style="fill:#990000" />
    <path
       d="M4300 5955 c-10 -12 -10 -18 0 -30 16 -19 39 -19 46 0 6 15 -11 45 -26 45 -4 0 -13 -7 -20 -15z"
       id="path80"
       style="fill:#990000" />
    <path
       d="M4293 5784 c-3 -8 2 -23 11 -32 15 -15 17 -15 32 0 21 21 11 48 -16 48 -11 0 -23 -7 -27 -16z"
       id="path82"
       style="fill:#990000" />
    <path
       d="M4297 5540 c-37 -153 -110 -304 -172 -352 -22 -17 -42 -23 -82 -23 -29 0 -53 -2 -53 -5 0 -3 15 -31 33 -63 55 -98 153 -229 225 -300 l68 -68 81 84 c78 81 178 218 222 304 26 52 26 51 -4 45 -109 -20 -204 101 -273 346 l-28 102 -17 -70z m100 -329 c33 -48 94 -103 125 -113 30 -10 -102 -189 -164 -222 -50 -27 -81 -15 -147 53 -61 63 -122 162 -103 169 59 19 156 139 189 232 l17 48 23 -56 c12 -31 39 -80 60 -111z"
       id="path84"
       style="fill:#990000" />
    <path
       d="M4305 5297 c-13 -49 -83 -145 -125 -174 -36 -23 -39 -28 -24 -34 11 -4 25 -8 31 -8 19 -1 87 63 108 103 l19 34 26 -42 c29 -45 84 -96 103 -95 7 0 20 4 31 8 15 6 12 11 -22 34 -44 29 -92 92 -121 159 l-19 43 -7 -28z"
       id="path86"
       style="fill:#990000" />
    <path
       d="M4293 5140 c-10 -18 -35 -42 -55 -54 l-38 -22 46 -55 c26 -30 53 -58 61 -62 14 -9 59 33 104 95 19 26 19 27 0 33 -11 3 -38 26 -60 51 l-39 45 -19 -31z"
       id="path88"
       style="fill:#ff3300" />
    <path
       d="M4150 5036 c56 -77 144 -166 165 -166 21 0 111 89 164 165 25 35 30 47 17 42 -10 -4 -23 -7 -30 -7 -7 0 -29 -24 -49 -53 -40 -58 -87 -91 -117 -82 -24 8 -110 102 -110 121 0 8 -9 14 -19 14 -11 0 -27 3 -37 7 -13 5 -8 -7 16 -41z"
       id="path90"
       style="fill:#990000" />
    <path
       d="M4284 4605 c-4 -9 -2 -21 4 -27 16 -16 47 -5 47 17 0 26 -42 34 -51 10z"
       id="path92"
       style="fill:#990000" />
    <path
       d="M3687 6605 c12 -29 17 -67 18 -140 0 -85 -4 -108 -24 -153 -26 -59 -94 -125 -147 -144 -40 -14 -43 -24 -11 -32 12 -3 42 -21 65 -41 50 -44 70 -41 112 17 56 77 74 141 74 263 1 94 -3 118 -22 161 -13 29 -37 64 -53 80 l-30 29 18 -40z"
       id="path94"
       style="fill:#9999ff" />
    <path
       d="M3744 6607 c78 -102 85 -302 15 -440 -12 -23 -42 -61 -66 -84 l-45 -42 26 -33 c41 -55 78 -145 83 -209 3 -32 9 -59 12 -59 3 0 16 15 28 33 109 160 144 471 77 697 -13 44 -27 66 -76 113 -66 63 -93 75 -54 24z"
       id="path96"
       style="fill:#9999ff" />
    <path
       d="M4836 6588 c-44 -41 -61 -66 -76 -110 -73 -210 -38 -542 73 -705 28 -42 37 -41 37 1 0 53 37 159 75 216 l35 52 -44 42 c-128 118 -152 384 -49 524 36 48 14 39 -51 -20z"
       id="path98"
       style="fill:#9999ff" />
    <path
       d="M4928 6612 c-56 -60 -83 -157 -75 -271 8 -117 62 -239 120 -270 24 -13 28 -11 69 23 23 20 53 39 65 42 32 8 29 18 -11 32 -53 19 -121 85 -147 144 -20 45 -24 69 -24 153 0 77 5 108 19 133 23 43 16 49 -16 14z"
       id="path100"
       style="fill:#9999ff" />
    <path
       d="M2234 6503 c-9 -20 -20 -61 -25 -92 -12 -77 -12 -264 1 -256 6 3 10 14 10 24 0 26 47 184 74 252 22 56 22 57 3 83 -26 36 -45 33 -63 -11z"
       id="path102"
       style="fill:#ff99ff" />
    <path
       d="M6336 6516 l-24 -26 24 -58 c27 -69 74 -227 74 -253 0 -10 5 -21 11 -25 20 -12 6 271 -17 330 -11 27 -25 51 -31 53 -7 3 -23 -7 -37 -21z"
       id="path104"
       style="fill:#6699ff" />
    <path
       d="M3911 6420 c44 -141 32 -370 -26 -514 l-24 -60 79 79 80 80 0 88 c0 103 -18 184 -65 282 -49 106 -69 126 -44 45z"
       id="path106"
       style="fill:#9999ff" />
    <path
       d="M4711 6447 c-65 -106 -101 -231 -101 -357 l0 -85 80 -80 79 -79 -24 60 c-58 143 -70 374 -27 512 11 34 18 62 17 62 -2 0 -13 -15 -24 -33z"
       id="path108"
       style="fill:#9999ff" />
    <path
       d="M1993 6414 c-53 -81 -1 -316 108 -489 23 -36 43 -64 45 -62 2 2 -5 26 -17 53 -23 50 -36 163 -25 207 7 30 33 42 54 25 13 -11 15 -10 9 2 -3 8 -17 42 -31 75 -14 33 -33 95 -42 138 l-17 77 -33 0 c-25 0 -38 -7 -51 -26z"
       id="path110"
       style="fill:#ffccff" />
    <path
       d="M6555 6428 c-3 -7 -14 -49 -25 -92 -11 -44 -31 -104 -45 -134 -29 -63 -30 -69 -11 -53 21 18 45 2 55 -36 12 -42 -2 -140 -30 -202 -31 -71 -15 -59 39 28 95 156 147 381 105 461 -14 28 -25 36 -51 38 -20 2 -34 -2 -37 -10z"
       id="path112"
       style="fill:#99ccff" />
    <path
       d="M3288 6129 c-37 -11 -52 -29 -24 -29 36 0 179 -85 221 -132 111 -124 123 -320 30 -513 -18 -38 -39 -88 -45 -110 -16 -53 -64 -140 -108 -194 -26 -31 -49 -84 -84 -185 -53 -154 -53 -157 -21 -321 28 -150 88 -268 186 -372 82 -87 164 -122 312 -133 55 -4 109 -11 120 -15 13 -4 10 1 -10 17 -204 159 -326 329 -386 538 -30 107 -37 317 -15 431 36 178 104 334 220 508 l69 104 -11 65 c-22 131 -109 255 -222 316 -42 23 -69 30 -124 32 -39 2 -88 -2 -108 -7z"
       id="path114"
       style="fill:#cc00ff" />
    <path
       d="M5159 6127 c-58 -22 -102 -53 -155 -109 -61 -65 -102 -145 -117 -231 l-11 -65 61 -88 c180 -264 250 -482 240 -744 -6 -159 -26 -241 -92 -375 -70 -142 -164 -251 -320 -373 -20 -16 -23 -21 -10 -17 11 4 65 11 120 15 151 11 232 47 317 139 109 117 164 239 194 432 l17 104 -49 145 c-26 80 -58 156 -70 170 -42 48 -103 152 -119 203 -9 29 -32 84 -51 123 -37 77 -64 182 -64 254 0 105 52 225 127 290 33 29 170 100 193 100 16 0 12 17 -7 25 -37 14 -168 16 -204 2z"
       id="path116"
       style="fill:#cc00ff" />
    <path
       d="M3110 6059 c-74 -43 -98 -115 -62 -186 32 -62 103 -88 169 -62 l28 12 -30 7 c-48 11 -74 28 -91 63 -23 43 -21 109 5 152 11 19 19 35 18 35 -1 0 -18 -10 -37 -21z"
       id="path118"
       style="fill:#33ccff" />
    <path
       d="M5501 6045 c27 -45 28 -121 4 -159 -20 -30 -64 -56 -95 -56 -32 0 -14 -18 26 -26 153 -28 224 164 93 250 -21 14 -41 26 -43 26 -3 0 4 -16 15 -35z"
       id="path120"
       style="fill:#33ccff" />
    <path
       d="M3404 5997 c59 -77 84 -187 66 -287 -15 -83 -47 -149 -116 -244 l-56 -76 18 -53 c11 -32 18 -79 17 -126 l-1 -73 43 73 c79 131 101 246 70 359 -6 24 -6 24 9 6 8 -10 21 -43 27 -73 15 -66 21 -58 50 64 38 159 13 290 -77 400 -19 24 -45 48 -56 54 -18 10 -17 6 6 -24z"
       id="path122"
       style="fill:#990099" />
    <path
       d="M5194 5985 c-25 -26 -60 -76 -77 -113 -29 -61 -32 -75 -32 -167 0 -78 5 -118 24 -179 l25 -78 17 62 c9 34 22 67 29 73 10 10 11 6 4 -18 -5 -16 -9 -66 -8 -110 0 -88 21 -149 88 -260 l34 -57 0 75 c0 44 7 96 17 126 l17 51 -50 68 c-68 91 -108 174 -122 251 -17 97 6 205 61 280 16 23 27 41 24 41 -3 0 -26 -20 -51 -45z"
       id="path124"
       style="fill:#990099" />
    <path
       d="M3932 5876 c-124 -133 -203 -234 -275 -354 -50 -82 -131 -261 -123 -269 2 -3 9 4 15 16 6 11 63 75 127 143 136 145 241 296 319 462 31 65 55 119 53 120 -2 2 -54 -51 -116 -118z"
       id="path126"
       style="fill:#cc99ff" />
    <path
       d="M4580 5994 c0 -4 31 -71 70 -148 82 -166 163 -282 298 -426 54 -58 109 -120 122 -137 13 -18 25 -31 27 -29 7 7 -68 172 -113 251 -50 85 -124 190 -188 265 -61 71 -216 232 -216 224z"
       id="path128"
       style="fill:#cc99ff" />
    <path
       d="M2231 5778 c-209 -108 -385 -393 -398 -643 -6 -124 9 -194 72 -337 30 -67 57 -112 78 -130 18 -15 35 -28 38 -28 4 0 21 23 39 50 72 112 228 213 375 243 39 8 63 17 55 20 -8 3 -45 15 -82 27 -129 41 -237 131 -286 239 -35 75 -42 196 -17 287 31 116 126 233 221 276 24 10 44 21 44 23 0 3 -17 5 -38 5 -23 0 -63 -13 -101 -32z"
       id="path130"
       style="fill:#9933cc" />
    <path
       d="M6260 5805 c0 -2 20 -13 44 -23 95 -43 190 -160 221 -276 13 -47 16 -88 13 -149 -6 -111 -44 -193 -124 -266 -57 -52 -171 -113 -234 -126 -59 -12 -56 -18 16 -32 145 -29 302 -131 374 -243 18 -27 35 -50 39 -50 3 0 21 13 38 28 36 30 111 189 137 290 20 77 20 211 1 287 -42 160 -122 302 -235 415 -95 95 -187 150 -251 150 -22 0 -39 -2 -39 -5z"
       id="path132"
       style="fill:#9933cc" />
    <path
       d="M2115 5755 c-186 -93 -328 -274 -386 -491 -29 -108 -31 -305 -5 -421 11 -46 22 -83 25 -83 3 0 7 46 8 101 8 400 173 765 405 898 73 42 39 39 -47 -4z"
       id="path134"
       style="fill:#ff66ff" />
    <path
       d="M2499 5765 c28 -37 35 -77 17 -118 -19 -47 -56 -70 -101 -65 -39 4 -39 4 -24 -24 17 -32 70 -49 113 -37 80 22 126 98 105 174 -12 41 -71 95 -105 95 l-25 0 20 -25z"
       id="path136"
       style="fill:#9933cc" />
    <path
       d="M6059 5751 c-36 -36 -39 -43 -39 -96 0 -51 3 -60 33 -90 60 -60 156 -63 186 -7 15 28 15 28 -24 24 -70 -8 -126 63 -106 135 6 19 18 44 27 54 16 18 16 19 -11 19 -19 0 -40 -12 -66 -39z"
       id="path138"
       style="fill:#9933cc" />
    <path
       d="M6465 5761 c236 -135 400 -493 408 -893 1 -59 5 -108 8 -108 3 0 15 37 25 83 26 116 24 313 -5 421 -59 220 -197 396 -388 491 -82 42 -118 46 -48 6z"
       id="path140"
       style="fill:#ff66ff" />
    <path
       d="M2730 5705 c0 -6 11 -58 25 -118 36 -159 149 -413 263 -587 61 -94 63 -94 76 8 4 29 18 85 32 124 18 49 24 82 20 106 -9 61 -66 128 -197 238 -84 69 -140 124 -165 162 -47 70 -54 79 -54 67z"
       id="path142"
       style="fill:#9999ff" />
    <path
       d="M5871 5673 c-30 -56 -73 -102 -195 -203 -126 -105 -170 -157 -187 -221 -11 -42 -10 -52 8 -95 22 -52 38 -117 48 -198 l7 -50 55 85 c67 101 202 374 236 479 28 82 61 230 53 237 -3 3 -14 -12 -25 -34z"
       id="path144"
       style="fill:#9999ff" />
    <path
       d="M3714 5420 c-205 -211 -214 -226 -233 -406 -11 -99 -1 -263 13 -209 22 87 44 135 103 233 85 140 152 273 197 396 21 54 36 99 34 100 -2 1 -53 -50 -114 -114z"
       id="path146"
       style="fill:#cc99ff" />
    <path
       d="M4800 5534 c0 -2 17 -50 39 -106 45 -122 114 -262 176 -357 61 -97 93 -161 110 -227 8 -32 16 -59 18 -61 10 -10 16 162 8 232 -16 133 -29 174 -72 229 -39 48 -279 299 -279 290z"
       id="path148"
       style="fill:#cc99ff" />
    <path
       d="M3232 5284 c-28 -48 -59 -106 -68 -130 -16 -43 -16 -45 10 -103 14 -32 32 -87 39 -122 l13 -63 39 139 c33 117 39 155 40 235 0 143 -10 149 -73 44z"
       id="path150"
       style="fill:#990099" />
    <path
       d="M5333 5344 c-20 -71 -8 -195 32 -338 l40 -139 12 64 c7 35 26 90 41 121 l29 58 -37 78 c-21 43 -53 103 -73 132 l-36 53 -8 -29z"
       id="path152"
       style="fill:#990099" />
    <path
       d="M3661 5091 c-119 -196 -161 -290 -161 -360 0 -76 78 -253 161 -364 28 -38 52 -67 55 -65 2 3 -7 29 -21 59 -44 98 -50 184 -25 355 21 139 37 378 29 415 -3 11 -16 -3 -38 -40z"
       id="path154"
       style="fill:#cc99ff" />
    <path
       d="M4933 5010 c3 -80 15 -210 28 -290 25 -167 20 -250 -25 -360 -32 -79 -14 -65 60 46 62 93 121 227 130 297 12 83 -30 183 -160 392 l-38 60 5 -145z"
       id="path156"
       style="fill:#cc99ff" />
    <path
       d="M3136 5072 c-2 -4 -10 -39 -17 -77 -22 -126 2 -285 61 -413 35 -75 117 -196 161 -238 30 -27 29 -25 -10 32 -73 108 -107 231 -131 464 -9 92 -43 240 -55 240 -2 0 -6 -4 -9 -8z"
       id="path158"
       style="fill:#990099" />
    <path
       d="M5465 5031 c-8 -26 -26 -131 -39 -232 -28 -215 -60 -323 -123 -418 -52 -78 -20 -52 49 39 132 174 189 382 158 579 -7 44 -16 81 -20 81 -5 0 -16 -22 -25 -49z"
       id="path160"
       style="fill:#990099" />
    <path
       d="M1798 5045 c-13 -40 -30 -245 -26 -308 3 -56 10 -76 53 -147 51 -84 196 -251 203 -232 8 25 -42 192 -89 295 -93 203 -119 272 -127 343 -5 43 -10 62 -14 49z"
       id="path162"
       style="fill:#ff66ff" />
    <path
       d="M6818 4997 c-6 -66 -30 -133 -127 -344 -44 -98 -91 -246 -91 -293 0 -23 115 97 171 177 71 104 89 147 89 223 0 83 -20 282 -30 293 -4 5 -9 -20 -12 -56z"
       id="path164"
       style="fill:#ff66ff" />
    <path
       d="M2512 4928 c-76 -10 -202 -55 -261 -92 -64 -41 -126 -101 -167 -163 l-36 -54 59 -62 c33 -34 74 -84 92 -111 43 -63 89 -83 234 -100 62 -8 129 -22 148 -31 l35 -17 101 50 c119 58 210 78 321 68 79 -6 206 -45 261 -79 31 -19 29 -15 -26 55 -102 128 -165 264 -179 384 -12 100 -75 127 -329 144 -88 6 -167 12 -175 14 -8 2 -43 -1 -78 -6z"
       id="path166"
       style="fill:none" />
    <path
       d="M3685 4621 c-9 -118 0 -175 47 -301 25 -65 58 -103 150 -172 57 -41 72 -49 97 -43 35 7 111 55 111 70 0 5 -72 80 -160 165 -172 168 -204 215 -217 319 -3 28 -9 51 -13 51 -4 0 -11 -40 -15 -89z"
       id="path168"
       style="fill:#cc66cc" />
    <path
       d="M4917 4659 c-13 -104 -45 -151 -217 -319 -88 -85 -160 -160 -160 -165 0 -15 76 -63 111 -70 25 -6 40 2 97 43 94 71 125 107 155 182 39 102 50 176 42 285 -4 52 -10 95 -15 95 -4 0 -10 -23 -13 -51z"
       id="path170"
       style="fill:#cc66cc" />
    <path
       d="M1984 4622 c23 -45 46 -133 54 -212 l7 -75 82 -51 c70 -44 239 -111 250 -100 2 2 -12 14 -31 26 -44 27 -85 78 -157 193 -52 84 -190 247 -210 247 -5 0 -3 -12 5 -28z"
       id="path172"
       style="fill:#ff66ff" />
    <path
       d="M6575 4578 c-37 -40 -93 -113 -125 -163 -98 -149 -111 -166 -156 -198 -24 -17 -42 -32 -40 -34 11 -11 179 57 250 101 l81 51 7 73 c8 76 31 169 55 215 23 46 -3 30 -72 -45z"
       id="path174"
       style="fill:#ff66ff" />
    <path
       d="M4301 4405 c-20 -56 -105 -177 -162 -230 l-51 -48 53 7 c48 6 60 13 111 63 l57 57 59 -56 c44 -42 69 -58 98 -63 21 -3 50 -8 63 -11 20 -4 14 4 -28 42 -62 55 -132 152 -164 223 l-23 52 -13 -36z"
       id="path176"
       style="fill:#cc66cc" />
    <path
       d="M2924 4390 c-52 -8 -168 -43 -192 -59 -8 -5 27 -6 80 -3 54 2 117 -1 151 -8 133 -27 283 -136 330 -237 16 -36 21 -68 22 -125 0 -43 3 -78 6 -78 3 0 12 12 20 26 37 70 239 214 300 214 32 0 30 18 -4 24 -17 3 -61 20 -97 37 l-65 30 26 -28 c70 -75 53 -75 -22 0 -74 73 -100 92 -190 135 -140 67 -253 90 -365 72z"
       id="path178"
       style="fill:#990066" />
    <path
       d="M5554 4390 c-147 -22 -290 -96 -402 -207 -86 -85 -94 -89 -34 -15 l35 44 -44 -23 c-24 -12 -69 -30 -99 -40 -30 -9 -48 -19 -40 -22 123 -39 204 -90 287 -181 l58 -63 0 76 c0 60 5 86 24 126 51 104 195 208 328 235 34 7 97 10 151 8 105 -6 103 1 -8 36 -87 27 -183 37 -256 26z"
       id="path180"
       style="fill:#990066" />
    <path
       d="M2257 4348 c5 -7 22 -32 38 -56 31 -46 113 -112 139 -112 10 0 15 -4 11 -9 -6 -11 -57 -6 -143 16 -60 15 -64 14 -84 -3 -55 -49 -74 -163 -39 -239 10 -22 38 -62 64 -90 l45 -50 7 30 c39 172 126 313 254 411 28 21 47 42 43 46 -5 5 -67 15 -139 22 -74 8 -143 21 -161 30 -37 19 -48 20 -35 4z"
       id="path182"
       style="fill:#ff66ff" />
    <path
       d="M6337 4343 c-16 -8 -88 -21 -160 -29 -71 -7 -134 -17 -138 -21 -4 -4 25 -35 65 -68 105 -86 201 -238 221 -350 13 -69 18 -70 64 -20 55 59 81 117 81 180 0 55 -26 120 -58 149 -20 17 -24 18 -84 3 -122 -31 -177 -29 -105 2 36 17 113 93 140 140 20 34 16 36 -26 14z"
       id="path184"
       style="fill:#ff66ff" />
    <path
       d="M1990 4292 c0 -114 58 -259 140 -352 l40 -45 -20 45 c-36 82 -22 175 36 236 19 20 33 38 32 39 -2 1 -18 8 -36 15 -19 7 -69 37 -113 66 l-79 53 0 -57z"
       id="path186"
       style="fill:#ff66ff" />
    <path
       d="M6583 4311 c-28 -21 -78 -51 -110 -67 -32 -16 -60 -30 -62 -31 -2 -2 8 -13 24 -25 62 -48 83 -162 45 -248 l-20 -45 40 45 c42 48 99 149 120 213 13 41 29 197 20 197 -3 -1 -28 -18 -57 -39z"
       id="path188"
       style="fill:#ff66ff" />
    <path
       d="M2730 4299 c-77 -13 -125 -39 -201 -109 -151 -136 -203 -265 -229 -568 -13 -159 -37 -243 -85 -300 -34 -39 -35 -44 -26 -79 67 -246 479 -288 700 -71 69 68 120 147 214 333 42 83 92 168 112 189 104 113 113 307 20 429 -43 56 -150 128 -231 156 -73 24 -198 34 -274 20z m155 -93 c57 -15 126 -48 143 -68 9 -12 -3 -14 -76 -14 -110 1 -175 -20 -240 -79 -84 -76 -95 -113 -96 -351 l-1 -200 -28 -42 c-50 -77 -153 -105 -223 -61 -36 22 -44 39 -19 39 8 0 24 9 35 20 18 18 19 32 17 197 -2 197 9 261 61 356 93 172 255 249 427 203z"
       id="path190"
       style="fill:#990066" />
    <path
       d="M2732 4190 c-99 -21 -196 -99 -247 -201 -50 -97 -57 -134 -64 -335 -5 -169 -8 -194 -25 -213 -11 -12 -26 -21 -35 -21 -13 -1 -12 -4 4 -16 14 -11 36 -14 78 -12 46 4 63 10 88 34 55 51 60 75 58 277 -2 149 1 191 15 234 21 64 84 137 145 168 59 29 155 47 213 39 56 -7 34 10 -37 30 -69 20 -142 26 -193 16z"
       id="path192"
       style="fill:#9933cc" />
    <path
       d="M5688 4295 c-136 -27 -286 -132 -330 -232 -13 -30 -23 -77 -26 -124 -4 -65 -1 -86 21 -141 15 -36 42 -82 62 -104 20 -21 70 -106 112 -189 97 -192 146 -266 219 -336 227 -213 629 -171 695 73 9 37 8 41 -26 81 -49 57 -71 140 -89 332 -26 272 -67 376 -202 511 -91 90 -139 118 -234 133 -81 13 -117 13 -202 -4z m304 -109 c71 -34 150 -118 189 -200 46 -99 61 -204 53 -372 -6 -136 -6 -142 15 -163 11 -11 28 -21 36 -21 25 0 17 -17 -19 -39 -64 -40 -169 -17 -214 46 -37 53 -43 93 -40 279 2 168 1 182 -21 231 -13 29 -44 72 -70 96 -64 60 -131 82 -243 81 -94 0 -101 8 -34 43 114 60 247 67 348 19z"
       id="path194"
       style="fill:#990066" />
    <path
       d="M5764 4189 c-28 -4 -70 -18 -95 -29 l-44 -20 43 5 c58 7 155 -11 213 -40 61 -31 124 -104 145 -168 14 -42 17 -91 18 -249 1 -219 3 -226 76 -275 36 -25 107 -31 142 -12 20 11 20 11 -3 23 -42 20 -49 51 -49 211 0 173 -15 255 -60 345 -80 159 -225 237 -386 209z"
       id="path196"
       style="fill:#9933cc" />
    <path
       d="M4266 4184 l-39 -44 83 0 83 0 -39 44 c-22 24 -41 44 -44 44 -3 0 -22 -20 -44 -44z"
       id="path198"
       style="fill:#990099" />
    <path
       d="M3636 4099 c-123 -42 -253 -153 -314 -267 -38 -71 -62 -167 -61 -242 l1 -55 12 50 c30 122 87 191 225 273 52 30 122 78 155 107 109 92 145 114 210 127 l61 12 -40 7 c-77 15 -187 9 -249 -12z"
       id="path200"
       style="fill:#cc3399" />
    <path
       d="M4740 4111 c-34 -6 -33 -6 25 -18 64 -14 110 -42 213 -130 34 -28 103 -76 154 -106 138 -82 195 -151 224 -271 l12 -51 1 55 c2 173 -100 350 -260 453 -108 69 -234 92 -369 68z"
       id="path202"
       style="fill:#cc3399" />
    <path
       d="M4061 4099 c-30 -5 -56 -11 -58 -13 -2 -2 16 -15 41 -30 116 -68 233 -274 262 -462 l7 -49 24 100 c43 182 145 350 251 412 l46 27 -30 9 c-41 13 -478 18 -543 6z m357 -30 c28 -5 58 -16 68 -24 18 -13 17 -16 -22 -57 -56 -59 -97 -115 -124 -166 l-23 -44 -29 54 c-15 29 -57 88 -93 130 -49 59 -61 79 -51 87 34 28 186 39 274 20z"
       id="path204"
       style="fill:#cc33cc" />
    <path
       d="M4215 4053 c-73 -15 -72 -8 -6 -79 34 -35 71 -85 84 -111 l24 -46 32 57 c17 31 54 80 81 108 27 28 48 53 47 55 -17 16 -205 28 -262 16z"
       id="path206"
       style="fill:#cc33cc" />
    <path
       d="M3888 4079 c-93 -14 -153 -70 -244 -226 -31 -54 -74 -121 -95 -150 l-38 -51 -6 -124 c-2 -68 -9 -141 -14 -162 -7 -29 -6 -44 4 -60 8 -12 28 -72 44 -134 59 -216 88 -251 264 -311 295 -101 426 -218 457 -406 11 -66 9 -94 -22 -300 -23 -160 -17 -207 32 -257 36 -35 54 -35 90 0 50 51 58 117 29 267 -5 28 -13 91 -18 140 -28 284 93 431 456 556 176 60 205 94 263 309 17 63 37 124 45 136 10 16 11 31 4 60 -5 21 -12 94 -14 161 l-5 123 -44 62 c-24 35 -67 103 -96 152 -92 156 -165 215 -268 217 -63 2 -100 -20 -174 -100 -93 -100 -162 -255 -199 -445 -11 -55 -21 -102 -23 -104 -2 -1 -9 28 -15 65 -36 213 -110 383 -215 491 -80 85 -120 103 -198 91z m457 -910 c19 -74 17 -107 -7 -123 -25 -15 -52 4 -56 39 -4 34 29 168 39 158 3 -5 14 -37 24 -74z m18 -230 c29 -47 -32 -101 -73 -64 -23 20 -25 37 -9 66 13 24 66 23 82 -2z m-5 -171 c26 -26 0 -88 -36 -88 -23 0 -52 30 -52 55 0 28 18 45 50 45 14 0 31 -5 38 -12z"
       id="path208"
       style="fill:#cc66ff" />
    <path
       d="M4306 3159 c-14 -71 0 -117 26 -91 12 12 1 122 -11 122 -5 0 -11 -14 -15 -31z"
       id="path210"
       style="fill:#ff3300" />
    <path
       d="M4293 2924 c-3 -8 2 -23 11 -32 15 -15 17 -15 32 0 21 21 11 48 -16 48 -11 0 -23 -7 -27 -16z"
       id="path212"
       style="fill:#ff3300" />
    <path
       d="M4293 2744 c-3 -8 2 -23 11 -32 15 -15 17 -15 32 0 21 21 11 48 -16 48 -11 0 -23 -7 -27 -16z"
       id="path214"
       style="fill:#ff3300" />
    <path
       d="M3635 3911 c-3 -6 -50 -37 -103 -68 -162 -95 -210 -155 -248 -303 -18 -69 -12 -136 20 -226 l13 -39 8 54 c16 114 56 200 156 332 71 94 172 249 166 256 -3 2 -8 0 -12 -6z"
       id="path216"
       style="fill:#cc3399" />
    <path
       d="M4980 3915 c0 -11 113 -180 175 -262 81 -105 130 -206 148 -303 l13 -75 24 85 c21 77 22 91 11 154 -15 91 -60 184 -114 233 -24 22 -77 59 -118 83 -41 23 -89 54 -106 67 -18 13 -33 21 -33 18z"
       id="path218"
       style="fill:#cc3399" />
    <path
       d="M3204 3654 c-77 -120 -85 -153 -95 -393 -13 -328 -36 -409 -143 -504 -31 -27 -31 -27 -4 -18 159 57 292 185 355 343 l23 56 -30 77 c-63 156 -94 349 -71 445 5 24 8 46 6 48 -2 2 -21 -22 -41 -54z"
       id="path220"
       style="fill:#993399" />
    <path
       d="M5388 3680 c24 -116 -5 -318 -69 -472 l-29 -70 23 -57 c63 -157 192 -280 355 -342 25 -9 24 -8 -9 23 -97 90 -126 188 -134 451 -4 100 -11 211 -16 247 -11 67 -58 170 -104 225 l-25 30 8 -35z"
       id="path222"
       style="fill:#993399" />
    <path
       d="M3442 3558 c-53 -81 -86 -164 -101 -252 -12 -66 -11 -70 17 -130 16 -33 38 -76 49 -94 l21 -34 -5 64 c-4 46 2 94 21 178 26 118 51 299 44 321 -2 6 -23 -17 -46 -53z"
       id="path224"
       style="fill:#cc3399" />
    <path
       d="M5145 3543 c3 -43 18 -134 33 -203 17 -77 27 -156 27 -206 l0 -81 17 28 c10 16 32 56 48 90 30 59 31 63 20 131 -6 38 -22 97 -35 131 -24 57 -101 187 -112 187 -3 0 -2 -35 2 -77z"
       id="path226"
       style="fill:#cc3399" />
    <path
       d="M1751 3428 c-51 -110 -48 -240 8 -399 37 -103 83 -178 160 -261 116 -124 257 -196 444 -224 230 -36 453 17 643 151 87 62 99 81 33 50 -30 -13 -74 -27 -99 -31 -25 -3 -68 -14 -97 -24 -116 -42 -266 -35 -468 21 -198 56 -263 106 -349 263 -49 90 -64 136 -68 213 -3 48 -6 54 -33 65 -39 16 -102 74 -121 111 -9 15 -19 47 -23 70 l-8 42 -22 -47z"
       id="path228"
       style="fill:#9933cc" />
    <path
       d="M6850 3445 c0 -65 -67 -157 -138 -189 -36 -16 -37 -19 -40 -74 -3 -66 -26 -142 -57 -192 -12 -19 -34 -56 -48 -81 -54 -96 -136 -148 -312 -197 -196 -56 -351 -64 -457 -26 -24 9 -71 22 -105 29 -35 8 -83 23 -109 34 -60 27 -45 7 41 -55 185 -131 414 -185 642 -150 192 29 328 99 451 231 78 83 148 212 178 325 25 96 23 230 -5 302 -25 65 -41 82 -41 43z"
       id="path230"
       style="fill:#9933cc" />
    <path
       d="M3076 3398 c-8 -35 -99 -176 -150 -236 -25 -29 -74 -101 -110 -161 -116 -192 -201 -262 -340 -277 -52 -6 -57 -8 -36 -17 43 -16 281 -21 341 -7 122 29 218 108 257 212 25 66 42 188 43 308 0 47 4 111 8 143 7 56 -1 79 -13 35z"
       id="path232"
       style="fill:#993399" />
    <path
       d="M5535 3410 c3 -5 10 -90 15 -189 10 -187 26 -285 59 -349 29 -56 109 -126 177 -153 53 -21 75 -24 204 -24 80 0 163 4 185 9 l40 9 -70 12 c-143 25 -218 87 -327 271 -33 56 -87 135 -120 175 -60 73 -131 186 -143 227 -3 12 -11 22 -16 22 -6 0 -8 -4 -4 -10z"
       id="path234"
       style="fill:#993399" />
    <path
       d="M3456 3212 c-13 -71 -15 -99 -6 -138 14 -61 21 -69 94 -107 85 -44 84 -44 52 -6 -40 47 -61 102 -87 221 -12 57 -24 106 -28 111 -4 4 -15 -32 -25 -81z"
       id="path236"
       style="fill:#cc3399" />
    <path
       d="M5147 3290 c-4 -8 -16 -59 -27 -113 -25 -115 -46 -169 -86 -216 -32 -38 -33 -38 52 6 75 39 82 47 95 114 9 45 7 69 -9 139 -11 47 -22 78 -25 70z"
       id="path238"
       style="fill:#cc3399" />
    <path
       d="M2115 3249 c-28 -13 -57 -18 -94 -17 l-53 3 5 -45 c21 -171 119 -274 244 -255 45 6 180 48 212 65 9 5 -3 13 -37 24 -106 36 -192 117 -214 204 -6 23 -13 42 -17 41 -3 0 -24 -9 -46 -20z"
       id="path240"
       style="fill:#993399" />
    <path
       d="M6455 3238 c-19 -89 -99 -170 -207 -209 -32 -12 -57 -23 -55 -25 11 -11 181 -64 224 -70 121 -16 220 88 239 249 l6 52 -50 -3 c-35 -3 -64 2 -97 17 -26 12 -49 21 -50 21 -2 0 -6 -15 -10 -32z"
       id="path242"
       style="fill:#993399" />
    <path
       d="M3340 3097 c0 -37 -63 -158 -113 -216 -79 -92 -119 -240 -97 -363 25 -147 108 -250 317 -398 65 -45 141 -105 169 -132 l51 -49 36 34 c104 98 130 308 67 550 -35 136 -56 178 -116 227 -73 60 -185 188 -245 279 -27 40 -49 77 -49 82 0 5 -4 9 -10 9 -5 0 -10 -10 -10 -23z"
       id="path244"
       style="fill:#ff99ff" />
    <path
       d="M5240 3058 c-48 -83 -174 -231 -253 -298 -73 -60 -89 -92 -127 -239 -61 -242 -38 -442 65 -545 l37 -37 51 48 c29 27 105 87 170 133 211 150 293 252 318 399 21 120 -20 274 -98 364 -48 55 -99 151 -109 205 -3 17 -9 32 -13 32 -3 0 -22 -28 -41 -62z"
       id="path246"
       style="fill:#ff99ff" />
    <path
       d="M2778 3058 c-64 -33 -169 -58 -243 -58 -35 0 -82 -13 -164 -46 -95 -39 -126 -47 -182 -48 -48 0 -74 5 -93 18 -48 31 -39 10 21 -51 81 -83 152 -115 265 -121 115 -6 205 20 271 78 39 35 194 248 185 254 -2 2 -29 -10 -60 -26z"
       id="path248"
       style="fill:#993399" />
    <path
       d="M5790 3085 c0 -2 32 -52 70 -109 90 -134 142 -180 232 -207 97 -30 220 -24 298 14 62 29 128 82 161 128 l22 31 -34 -18 c-63 -33 -148 -24 -280 30 -82 33 -129 46 -164 46 -75 0 -179 25 -245 59 -33 17 -60 29 -60 26z"
       id="path250"
       style="fill:#993399" />
    <path
       d="M3482 2980 c7 -23 116 -139 203 -215 157 -140 338 -327 394 -409 59 -86 121 -216 121 -255 0 -56 16 -2 27 92 26 222 9 330 -67 426 -69 87 -158 139 -375 221 -151 57 -209 83 -268 124 -22 15 -37 22 -35 16z"
       id="path252"
       style="fill:#cc3366" />
    <path
       d="M5120 2969 c-40 -33 -127 -74 -277 -130 -280 -104 -385 -186 -433 -338 -23 -74 -25 -151 -6 -304 13 -102 26 -150 26 -96 0 39 62 169 119 252 71 102 189 226 340 359 114 99 261 252 261 271 0 10 -2 9 -30 -14z"
       id="path254"
       style="fill:#cc3366" />
    <path
       d="M3753 2643 c38 -74 71 -214 81 -333 3 -36 21 -116 40 -179 44 -142 60 -249 48 -313 -13 -67 4 -49 28 30 68 218 9 501 -158 764 -38 59 -63 79 -39 31z"
       id="path256"
       style="fill:#ccccff" />
    <path
       d="M4851 2630 c-47 -65 -118 -210 -150 -306 -57 -171 -64 -337 -21 -478 24 -78 41 -94 29 -28 -13 67 4 176 51 327 27 86 40 145 40 185 0 63 37 223 69 294 11 25 18 46 16 46 -3 0 -18 -18 -34 -40z"
       id="path258"
       style="fill:#ccccff" />
    <path
       d="M3810 2118 c-10 -37 -14 -110 -15 -243 0 -177 -2 -193 -22 -232 -13 -23 -27 -44 -33 -48 -5 -3 -10 -10 -10 -15 0 -16 63 27 108 73 28 28 47 59 53 83 13 56 10 170 -5 239 -21 95 -50 195 -56 195 -3 0 -12 -24 -20 -52z"
       id="path260"
       style="fill:#ccccff" />
    <path
       d="M4767 2066 c-33 -128 -42 -204 -32 -291 6 -58 12 -72 43 -107 35 -39 122 -105 122 -93 0 4 -9 18 -20 32 -46 58 -58 168 -41 358 5 54 2 81 -11 118 -10 26 -18 56 -18 67 0 48 -18 12 -43 -84z"
       id="path262"
       style="fill:#ccccff" />
    <path
       d="M3719 1966 l-46 -41 21 -35 c16 -27 21 -52 21 -110 0 -65 -4 -83 -30 -129 -19 -35 -47 -65 -80 -88 l-50 -35 49 6 c62 8 107 41 137 103 21 41 24 66 27 178 2 72 2 144 0 161 l-3 32 -46 -42z"
       id="path264"
       style="fill:#ccccff" />
    <path
       d="M4862 1850 c3 -149 6 -170 27 -213 31 -65 75 -96 142 -103 l54 -5 -35 20 c-47 26 -87 67 -113 116 -32 59 -31 175 1 230 17 28 20 41 12 43 -7 3 -31 21 -52 40 l-40 36 4 -164z"
       id="path266"
       style="fill:#ccccff" />
    <path
       d="M3351 1949 c-42 -9 -79 -36 -108 -79 -28 -41 -32 -134 -7 -183 25 -48 62 -95 87 -109 18 -9 16 -4 -10 25 -75 86 -60 246 28 296 47 26 101 -7 83 -52 -8 -23 -31 -28 -49 -11 -13 14 -16 14 -21 0 -14 -38 42 -59 89 -35 30 16 37 28 37 65 0 60 -59 98 -129 83z"
       id="path268"
       style="fill:#ccccff" />
    <path
       d="M5213 1948 c-64 -17 -86 -98 -37 -137 46 -36 117 -19 100 25 -5 14 -8 14 -21 0 -18 -18 -42 -11 -50 14 -14 45 37 75 84 49 90 -51 103 -217 24 -302 -24 -25 -25 -28 -6 -18 53 27 104 124 105 196 1 114 -98 200 -199 173z"
       id="path270"
       style="fill:#ccccff" />
    <path
       d="M4304 7214 c-7 -59 5 -89 27 -67 13 13 3 123 -11 123 -5 0 -12 -25 -16 -56z"
       id="path272"
       style="fill:#ff6600" />
    <path
       d="M4300 6995 c-11 -13 -11 -19 3 -32 21 -21 49 -9 45 19 -4 28 -30 35 -48 13z"
       id="path274"
       style="fill:#ff6600" />
    <path
       d="M4296 6823 c-4 -9 0 -23 9 -32 13 -14 17 -14 31 1 9 9 14 24 11 32 -8 21 -43 20 -51 -1z"
       id="path276"
       style="fill:#ff6600" />
    <path
       d="M3227 5763 c-13 -12 -7 -44 9 -50 23 -9 48 25 33 44 -12 14 -32 17 -42 6z"
       id="path278"
       style="fill:#0099ff" />
    <path
       d="M5364 5756 c-9 -24 4 -48 23 -44 12 2 18 12 18 28 0 29 -32 41 -41 16z"
       id="path280"
       style="fill:#0099ff" />
    <path
       d="M3237 5573 c-12 -72 -9 -93 14 -93 20 0 21 4 16 56 -7 71 -22 89 -30 37z"
       id="path282"
       style="fill:#0099ff" />
    <path
       d="M5378 5604 c-4 -6 -10 -37 -14 -68 -6 -53 -5 -56 15 -56 18 0 21 5 20 38 -2 53 -13 99 -21 86z"
       id="path284"
       style="fill:#0099ff" />
    <path
       d="M2434 5435 c-8 -21 2 -45 19 -45 8 0 20 7 27 15 10 12 10 18 0 30 -7 8 -19 15 -27 15 -7 0 -16 -7 -19 -15z"
       id="path286"
       style="fill:#9933ff" />
    <path
       d="M6150 5435 c-11 -13 -11 -19 3 -32 21 -21 49 -9 45 19 -4 28 -30 35 -48 13z"
       id="path288"
       style="fill:#9933ff" />
    <path
       d="M2445 5229 c-7 -61 2 -88 24 -75 12 8 14 42 5 99 -10 55 -21 45 -29 -24z"
       id="path290"
       style="fill:#9933ff" />
    <path
       d="M6167 5282 c-15 -23 -21 -119 -7 -127 25 -15 33 12 24 77 -6 39 -12 58 -17 50z"
       id="path292"
       style="fill:#9933ff" />
    <path
       d="M1680 2911 c0 -60 12 -83 33 -62 12 12 -9 121 -24 121 -5 0 -9 -27 -9 -59z"
       id="path294"
       style="fill:#ff3300" />
    <path
       d="M6919 2915 c-13 -57 -4 -86 20 -71 13 9 15 126 2 126 -5 0 -15 -25 -22 -55z"
       id="path296"
       style="fill:#ff3300" />
    <path
       d="M1705 2723 c-15 -14 -15 -18 -1 -31 18 -19 46 -9 46 17 0 26 -26 34 -45 14z"
       id="path298"
       style="fill:#ffcc33" />
    <path
       d="M6890 2725 c-7 -8 -10 -22 -6 -30 7 -20 42 -19 50 1 8 22 8 22 -13 33 -14 8 -22 7 -31 -4z"
       id="path300"
       style="fill:#ffcc33" />
    <path
       d="M1737 2573 c-12 -12 -7 -41 8 -47 8 -3 21 2 29 10 8 8 13 21 10 29 -6 15 -35 20 -47 8z"
       id="path302"
       style="fill:#ffcc33" />
    <path
       d="M6851 2566 c-9 -11 -8 -17 4 -30 20 -20 47 -9 43 18 -4 25 -30 32 -47 12z"
       id="path304"
       style="fill:#ffcc33" />
    <path
       d="M2630 2349 c0 -40 5 -60 16 -70 25 -20 35 7 18 53 -26 74 -33 78 -34 17z"
       id="path306"
       style="fill:#ff0000" />
    <path
       d="M5978 2362 c-28 -68 -21 -117 11 -78 7 8 11 37 9 68 l-3 53 -17 -43z"
       id="path308"
       style="fill:#ff0000" />
    <path
       d="M1806 2343 c11 -76 36 -115 51 -77 6 16 -35 114 -48 114 -4 0 -5 -17 -3 -37z"
       id="path310"
       style="fill:#ff3300" />
    <path
       d="M6790 2331 c-21 -47 -22 -81 -2 -81 12 0 29 44 36 93 7 51 -6 46 -34 -12z"
       id="path312"
       style="fill:#ff3300" />
    <path
       d="M2673 2154 c-3 -8 2 -23 11 -32 15 -15 17 -15 32 0 21 21 11 48 -16 48 -11 0 -23 -7 -27 -16z"
       id="path314"
       style="fill:#ff9900" />
    <path
       d="M5903 2154 c-3 -8 2 -23 11 -32 15 -15 17 -15 32 0 21 21 11 48 -16 48 -11 0 -23 -7 -27 -16z"
       id="path316"
       style="fill:#ff9900" />
    <path
       d="M1884 2146 c-9 -24 4 -48 23 -44 24 4 24 52 0 56 -9 2 -20 -4 -23 -12z"
       id="path318"
       style="fill:#ffcc33" />
    <path
       d="M6707 2153 c-13 -12 -7 -44 8 -49 24 -10 47 14 34 37 -10 19 -30 25 -42 12z"
       id="path320"
       style="fill:#ffcc33" />
    <path
       d="M2741 2020 c-19 -11 -9 -45 14 -45 13 0 21 8 23 21 3 23 -17 37 -37 24z"
       id="path322"
       style="fill:#ff9900" />
    <path
       d="M5861 2020 c-19 -11 -9 -45 14 -45 13 0 21 8 23 21 3 23 -17 37 -37 24z"
       id="path324"
       style="fill:#ff9900" />
    <path
       d="M1954 2006 c-9 -24 4 -48 23 -44 24 4 24 52 0 56 -9 2 -20 -4 -23 -12z"
       id="path326"
       style="fill:#ffcc33" />
    <path
       d="M6634 2006 c-9 -24 4 -48 23 -44 12 2 18 12 18 28 0 29 -32 41 -41 16z"
       id="path328"
       style="fill:#ffcc33" />
    <path
       d="M2825 1829 c15 -51 44 -109 55 -109 24 0 20 31 -9 74 -38 55 -56 68 -46 35z"
       id="path330"
       style="fill:#ff0000" />
    <path
       d="M5766 1803 c-37 -49 -42 -78 -16 -78 15 0 66 112 56 122 -2 3 -21 -17 -40 -44z"
       id="path332"
       style="fill:#ff0000" />
    <path
       d="M2074 1815 c11 -44 40 -89 59 -93 29 -6 19 24 -25 75 -39 45 -41 46 -34 18z"
       id="path334"
       style="fill:#ff3300" />
    <path
       d="M6521 1795 c-41 -45 -52 -75 -27 -75 7 0 18 6 24 13 12 14 53 107 48 107 -2 0 -22 -20 -45 -45z"
       id="path336"
       style="fill:#ff3300" />
    <path
       d="M4284 1745 c-4 -9 -2 -21 4 -27 16 -16 47 -5 47 17 0 26 -42 34 -51 10z"
       id="path338"
       style="fill:#ff3366" />
    <path
       d="M2934 1625 c-4 -9 -2 -21 4 -27 16 -16 47 -5 47 17 0 26 -42 34 -51 10z"
       id="path340"
       style="fill:#ff9900" />
    <path
       d="M5644 1625 c-4 -9 -2 -21 4 -27 16 -16 47 -5 47 17 0 26 -42 34 -51 10z"
       id="path342"
       style="fill:#ff9900" />
    <path
       d="M2207 1634 c-12 -12 -8 -42 6 -47 21 -8 39 8 35 29 -3 19 -29 30 -41 18z"
       id="path344"
       style="fill:#ffcc33" />
    <path
       d="M6387 1633 c-12 -12 -7 -41 8 -47 22 -8 49 23 34 40 -12 15 -31 18 -42 7z"
       id="path346"
       style="fill:#ffcc33" />
    <path
       d="M4290 1564 c-11 -12 -10 -18 3 -32 16 -15 18 -15 33 0 19 18 12 48 -9 48 -8 0 -20 -7 -27 -16z"
       id="path348"
       style="fill:#ff3366" />
    <path
       d="M2307 1513 c-12 -12 -7 -41 8 -47 22 -8 49 23 34 40 -12 15 -31 18 -42 7z"
       id="path350"
       style="fill:#ffcc33" />
    <path
       d="M3033 1513 c-18 -7 -16 -42 3 -50 8 -3 23 1 31 10 13 13 14 19 3 31 -13 17 -17 18 -37 9z"
       id="path352"
       style="fill:#ff9900" />
    <path
       d="M5560 1504 c-11 -12 -10 -18 3 -31 8 -9 23 -13 31 -10 21 8 21 43 0 51 -21 8 -20 8 -34 -10z"
       id="path354"
       style="fill:#ff9900" />
    <path
       d="M6281 1506 c-9 -11 -8 -17 4 -30 20 -20 47 -9 43 18 -4 25 -30 32 -47 12z"
       id="path356"
       style="fill:#ffcc33" />
    <path
       d="M4306 1358 c-15 -65 -16 -81 -11 -99 4 -10 13 -19 21 -19 15 0 18 74 4 120 l-7 25 -7 -27z"
       id="path358"
       style="fill:#ff3366" />
    <path
       d="M2481 1326 c34 -48 56 -63 72 -47 7 7 5 16 -4 27 -14 17 -84 64 -94 64 -4 0 8 -20 26 -44z"
       id="path360"
       style="fill:#ff3300" />
    <path
       d="M6130 1346 c-47 -31 -66 -54 -53 -67 16 -16 38 -1 72 47 36 49 32 53 -19 20z"
       id="path362"
       style="fill:#ff3300" />
    <path
       d="M3168 1323 c27 -52 59 -80 74 -65 9 9 4 20 -23 48 -18 20 -42 40 -52 45 -17 10 -17 8 1 -28z"
       id="path364"
       style="fill:#ff0000" />
    <path
       d="M5422 1316 c-37 -36 -44 -47 -35 -57 10 -10 17 -9 34 7 22 19 64 94 54 94 -4 0 -27 -20 -53 -44z"
       id="path366"
       style="fill:#ff0000" />
    <path
       d="M2633 1204 c-3 -8 2 -23 11 -32 15 -15 17 -15 32 0 21 21 11 48 -16 48 -11 0 -23 -7 -27 -16z"
       id="path368"
       style="fill:#ffcc33" />
    <path
       d="M5943 1204 c-3 -8 2 -23 11 -32 15 -15 17 -15 32 0 21 21 11 48 -16 48 -11 0 -23 -7 -27 -16z"
       id="path370"
       style="fill:#ffcc33" />
    <path
       d="M3324 1175 c-8 -19 3 -35 26 -35 19 0 30 17 23 38 -6 17 -42 15 -49 -3z"
       id="path372"
       style="fill:#ff9900" />
    <path
       d="M5257 1177 c-8 -21 8 -39 29 -35 27 5 25 42 -2 46 -12 2 -24 -3 -27 -11z"
       id="path374"
       style="fill:#ff9900" />
    <path
       d="M2763 1114 c-3 -8 2 -23 11 -32 14 -15 18 -15 31 -1 9 9 13 23 9 32 -8 21 -43 22 -51 1z"
       id="path376"
       style="fill:#ffcc33" />
    <path
       d="M5816 1113 c-4 -9 0 -23 9 -32 13 -14 17 -14 31 1 9 9 14 24 11 32 -8 21 -43 20 -51 -1z"
       id="path378"
       style="fill:#ffcc33" />
    <path
       d="M4290 1104 c-11 -12 -10 -18 3 -32 16 -15 18 -15 33 0 19 18 12 48 -9 48 -8 0 -20 -7 -27 -16z"
       id="path380"
       style="fill:#ff3366" />
    <path
       d="M3457 1084 c-12 -12 -8 -42 6 -47 21 -8 39 8 35 29 -3 19 -29 30 -41 18z"
       id="path382"
       style="fill:#ff9900" />
    <path
       d="M5137 1083 c-12 -12 -7 -41 8 -47 22 -8 49 23 34 40 -12 15 -31 18 -42 7z"
       id="path384"
       style="fill:#ff9900" />
    <path
       d="M2965 985 c41 -35 85 -46 85 -21 0 13 -86 56 -112 56 -7 -1 5 -16 27 -35z"
       id="path386"
       style="fill:#ff3300" />
    <path
       d="M5630 998 c-50 -26 -63 -48 -28 -48 26 0 113 69 88 70 -9 0 -36 -10 -60 -22z"
       id="path388"
       style="fill:#ff3300" />
    <path
       d="M3651 945 c42 -33 78 -42 81 -20 2 13 -80 55 -106 55 -14 0 -8 -9 25 -35z"
       id="path390"
       style="fill:#ff0000" />
    <path
       d="M4957 966 c-44 -16 -69 -35 -61 -47 11 -18 43 -8 84 26 44 37 39 43 -23 21z"
       id="path392"
       style="fill:#ff0000" />
    <path
       d="M4286 923 c-4 -9 0 -23 9 -32 13 -14 17 -14 31 1 9 9 14 24 11 32 -8 21 -43 20 -51 -1z"
       id="path394"
       style="fill:#ff3366" />
    <path
       d="M3146 913 c-4 -9 0 -23 9 -32 13 -14 17 -14 30 0 19 19 10 49 -15 49 -10 0 -21 -8 -24 -17z"
       id="path396"
       style="fill:#ffcc33" />
    <path
       d="M5436 913 c-4 -9 0 -23 9 -32 13 -14 17 -14 31 1 9 9 14 24 11 32 -8 21 -43 20 -51 -1z"
       id="path398"
       style="fill:#ffcc33" />
    <path
       d="M3834 885 c-8 -20 4 -35 27 -35 14 0 19 7 19 25 0 18 -5 25 -20 25 -11 0 -23 -7 -26 -15z"
       id="path400"
       style="fill:#ff9900" />
    <path
       d="M4750 875 c0 -20 5 -25 25 -25 20 0 25 5 25 25 0 20 -5 25 -25 25 -20 0 -25 -5 -25 -25z"
       id="path402"
       style="fill:#ff9900" />
    <path
       d="M3294 855 c-8 -19 3 -35 26 -35 19 0 30 17 23 38 -6 17 -42 15 -49 -3z"
       id="path404"
       style="fill:#ffcc33" />
    <path
       d="M5287 857 c-8 -21 8 -39 29 -35 27 5 25 42 -2 46 -12 2 -24 -3 -27 -11z"
       id="path406"
       style="fill:#ffcc33" />
    <path
       d="M3983 844 c-3 -8 2 -23 11 -32 15 -15 17 -15 32 0 21 21 11 48 -16 48 -11 0 -23 -7 -27 -16z"
       id="path408"
       style="fill:#ff9900" />
    <path
       d="M4593 844 c-3 -8 2 -23 11 -32 15 -15 17 -15 32 0 21 21 11 48 -16 48 -11 0 -23 -7 -27 -16z"
       id="path410"
       style="fill:#ff9900" />
    <path
       d="M4151 822 c-8 -15 -7 -23 4 -32 21 -18 47 -4 43 22 -4 29 -34 35 -47 10z"
       id="path412"
       style="fill:#ff9900" />
    <path
       d="M4434 825 c-8 -21 2 -45 19 -45 8 0 20 7 27 15 10 12 10 18 0 30 -7 8 -19 15 -27 15 -7 0 -16 -7 -19 -15z"
       id="path414"
       style="fill:#ff9900" />
    <path
       d="M3520 776 c46 -26 85 -33 94 -17 11 17 -23 32 -81 37 l-58 5 45 -25z"
       id="path416"
       style="fill:#ff3300" />
    <path
       d="M5055 793 c-27 -7 -46 -23 -39 -34 9 -15 47 -9 94 16 l45 24 -40 -1 c-22 0 -49 -3 -60 -5z"
       id="path418"
       style="fill:#ff3300" />
    <path
       d="M3724 745 c-8 -19 3 -35 26 -35 19 0 30 17 23 38 -6 17 -42 15 -49 -3z"
       id="path420"
       style="fill:#ffcc33" />
    <path
       d="M4857 747 c-8 -21 8 -39 29 -35 27 5 25 42 -2 46 -12 2 -24 -3 -27 -11z"
       id="path422"
       style="fill:#ffcc33" />
    <path
       d="M4287 660 c-29 -64 -116 -165 -149 -176 -16 -5 -18 -8 -7 -15 46 -29 110 9 158 93 l29 49 22 -45 c38 -79 114 -125 159 -97 11 7 9 10 -7 15 -33 11 -119 111 -149 175 l-28 59 -28 -58z"
       id="path424"
       style="fill:#ff9900" />
    <path
       d="M4300 541 c-13 -33 -75 -91 -97 -91 -22 0 -15 -14 33 -71 65 -76 77 -83 103 -61 26 22 101 114 101 124 0 5 -5 8 -12 8 -21 0 -78 51 -96 87 l-19 35 -13 -31z"
       id="path426"
       style="fill:#ff6600" />
    <path
       d="M4108 444 c22 -38 139 -177 169 -200 32 -24 37 -25 61 -13 24 13 160 168 181 207 8 16 6 17 -25 14 -19 -2 -34 -8 -34 -12 0 -4 -18 -32 -39 -60 -40 -53 -85 -90 -109 -90 -20 0 -102 81 -122 121 -16 30 -26 37 -54 41 -25 3 -33 0 -28 -8z"
       id="path428"
       style="fill:#ff9900" />
    <path
       d="M3877 727 c-8 -21 8 -39 29 -35 27 5 25 42 -2 46 -12 2 -24 -3 -27 -11z"
       id="path430"
       style="fill:#ffcc33" />
    <path
       d="M4704 725 c-8 -20 4 -35 26 -35 23 0 32 13 24 34 -8 20 -43 21 -50 1z"
       id="path432"
       style="fill:#ffcc33" />
    <path
       d="M4030 715 c-11 -13 -11 -19 3 -32 21 -21 49 -9 45 19 -4 28 -30 35 -48 13z"
       id="path434"
       style="fill:#ffcc33" />
    <path
       d="M4554 715 c-8 -21 2 -45 19 -45 8 0 20 7 27 15 10 12 10 18 0 30 -7 8 -19 15 -27 15 -7 0 -16 -7 -19 -15z"
       id="path436"
       style="fill:#ffcc33" />
  </g>
</svg>
