<?xml version="1.0" encoding="UTF-8" standalone="no"?>
<svg
   xmlns:dc="http://purl.org/dc/elements/1.1/"
   xmlns:cc="http://creativecommons.org/ns#"
   xmlns:rdf="http://www.w3.org/1999/02/22-rdf-syntax-ns#"
   xmlns:svg="http://www.w3.org/2000/svg"
   xmlns="http://www.w3.org/2000/svg"
   xmlns:sodipodi="http://sodipodi.sourceforge.net/DTD/sodipodi-0.dtd"
   xmlns:inkscape="http://www.inkscape.org/namespaces/inkscape"
   version="1.0"
   width="850.000000pt"
   height="850.000000pt"
   viewBox="0 0 850.000000 850.000000"
   preserveAspectRatio="xMidYMid meet"
   id="svg2"
   inkscape:version="0.91 r13725"
   sodipodi:docname="Oriental_2018916_11.svg">
  <defs
     id="defs496" />
  <sodipodi:namedview
     pagecolor="#ffffff"
     bordercolor="#666666"
     borderopacity="1"
     objecttolerance="10"
     gridtolerance="10"
     guidetolerance="10"
     inkscape:pageopacity="0"
     inkscape:pageshadow="2"
     inkscape:window-width="1920"
     inkscape:window-height="979"
     id="namedview494"
     showgrid="false"
     inkscape:zoom="1.2564872"
     inkscape:cx="532.80944"
     inkscape:cy="474.2958"
     inkscape:window-x="0"
     inkscape:window-y="1"
     inkscape:window-maximized="1"
     inkscape:current-layer="svg2" />
  <metadata
     id="metadata4">
Created by potrace 1.14, written by Peter Selinger 2001-2017
<rdf:RDF>
  <cc:Work
     rdf:about="">
    <dc:format>image/svg+xml</dc:format>
    <dc:type
       rdf:resource="http://purl.org/dc/dcmitype/StillImage" />
  </cc:Work>
</rdf:RDF>
</metadata>
  <g
     transform="translate(0.000000,850.000000) scale(0.100000,-0.100000)"
     fill="#000000"
     stroke="none"
     id="g6">
    <path
       d="M0 4250 l0 -4250 4250 0 4250 0 0 4250 0 4250 -4250 0 -4250 0 0 -4250z m4085 4041 c118 -24 198 -58 300 -126 229 -152 365 -407 365 -685 0 -171 -42 -306 -138 -439 -32 -44 -47 -77 -48 -99 -1 -21 -11 -43 -28 -61 -33 -34 -33 -41 0 -41 14 0 62 -9 107 -21 334 -85 608 -353 683 -667 29 -118 18 -322 -21 -424 -5 -12 16 -4 68 28 146 87 320 134 501 134 257 0 488 -95 671 -275 104 -102 160 -180 215 -299 202 -441 142 -915 -166 -1298 l-54 -67 56 19 c185 64 411 67 594 8 139 -44 251 -112 362 -217 123 -115 214 -269 260 -438 30 -114 30 -290 0 -397 -39 -136 -94 -229 -197 -332 -80 -81 -103 -97 -195 -142 -161 -77 -284 -97 -419 -68 -41 9 -76 14 -78 12 -2 -2 4 -12 14 -23 12 -13 68 -34 163 -61 229 -65 300 -77 443 -77 70 0 127 -3 127 -6 0 -9 -351 -249 -473 -322 l-107 -66 -4 -158 c-7 -313 -95 -588 -270 -843 -65 -95 -228 -265 -320 -334 -251 -188 -555 -276 -849 -246 -281 28 -524 139 -735 334 -33 31 -62 56 -66 56 -3 0 -6 -14 -6 -31 l0 -31 -64 4 c-162 10 -399 206 -448 370 -6 21 -14 38 -18 38 -4 0 -19 -17 -33 -37 -14 -21 -61 -78 -105 -126 -49 -53 -88 -106 -98 -133 -19 -50 -47 -57 -52 -14 -6 39 -32 62 -61 55 -32 -8 -114 -68 -133 -97 -8 -12 -21 -19 -29 -16 -12 5 -14 31 -13 139 0 74 4 144 8 156 6 19 2 22 -46 28 -136 18 -274 62 -403 128 -251 130 -476 383 -550 618 l-18 57 -32 -32 c-32 -32 -91 -56 -139 -56 -32 0 -82 24 -89 42 -3 9 -11 7 -28 -8 -88 -79 -157 -83 -183 -10 -6 18 -11 15 -50 -23 -24 -24 -49 -40 -55 -37 -13 9 -14 50 -2 94 13 43 -5 42 -49 -3 -19 -19 -42 -35 -52 -35 -10 0 -27 -9 -38 -20 -26 -26 -80 -26 -113 0 -33 26 -56 89 -71 192 -10 73 -15 83 -33 86 -32 5 -59 -28 -78 -93 -17 -61 -61 -115 -92 -115 -42 0 -99 24 -130 55 -38 38 -40 53 -14 87 l19 24 -38 51 c-44 58 -61 67 -86 49 -17 -13 -16 -15 4 -50 36 -60 30 -80 -30 -106 -70 -30 -84 -21 -81 54 1 34 -2 56 -9 56 -5 0 -37 -23 -70 -50 -33 -28 -65 -50 -72 -50 -17 0 -81 68 -101 108 -12 25 -16 53 -13 107 l3 73 -32 -5 c-39 -7 -79 8 -150 54 -57 38 -103 112 -103 168 0 57 31 139 96 251 35 61 64 113 64 116 0 3 -13 11 -30 18 -42 18 -98 83 -106 124 -14 78 21 171 95 249 28 30 67 62 86 73 19 10 35 21 35 24 -1 3 -40 23 -87 45 -175 81 -265 224 -209 332 9 18 49 60 89 94 79 69 101 94 92 108 -3 6 -31 24 -63 42 -138 77 -170 115 -138 164 16 24 85 80 108 87 7 3 4 14 -7 32 -27 41 -33 168 -11 234 29 86 100 132 157 101 18 -9 19 -8 12 18 -4 15 -7 54 -7 86 2 69 45 166 99 223 l34 36 -49 102 c-65 133 -90 231 -97 381 -6 140 14 256 66 392 84 215 285 425 488 507 l58 24 8 64 c9 71 23 93 41 64 6 -11 25 -35 42 -55 l31 -35 33 37 c18 21 43 40 57 43 13 4 23 9 21 13 -2 3 -22 44 -46 91 -77 153 -90 328 -37 487 17 51 25 96 25 146 0 130 27 261 91 451 54 157 62 192 65 266 1 47 3 87 3 89 1 2 11 -7 24 -20 12 -14 51 -45 87 -70 36 -25 119 -83 185 -129 66 -46 161 -116 211 -156 84 -68 96 -74 160 -84 76 -12 194 -49 254 -80 22 -11 41 -20 43 -20 2 0 7 28 11 63 20 199 113 408 255 575 136 161 401 305 616 335 86 12 275 6 360 -12z"
       id="path8"
       style="fill:none" />
    <path
       d="M3705 8245 c-348 -64 -646 -323 -753 -655 -70 -216 -69 -531 0 -733 l13 -37 50 36 c113 80 245 125 383 129 81 3 84 4 107 35 13 17 31 37 40 44 16 11 15 17 -7 87 -32 103 -31 248 2 334 31 82 58 121 119 178 160 149 415 154 559 10 66 -66 103 -155 104 -245 0 -40 -7 -93 -15 -117 l-15 -43 36 -31 c53 -45 133 -125 171 -172 l32 -40 30 35 c51 59 108 187 125 280 19 99 14 240 -11 335 -9 33 -37 103 -63 155 -39 81 -60 109 -142 190 -52 52 -121 110 -152 129 -71 41 -201 86 -288 100 -86 14 -238 12 -325 -4z"
       id="path10"
       style="fill:#ffccff" />
    <path
       d="M1897 7757 c-4 -50 -23 -121 -61 -232 -70 -203 -89 -307 -89 -500 -1 -254 56 -460 176 -634 l29 -43 18 51 c19 56 49 95 92 117 37 19 41 18 34 -11 -5 -20 -3 -23 11 -19 10 4 28 18 40 32 17 20 25 23 36 14 10 -9 40 -6 128 15 97 23 138 27 271 27 l157 1 -52 18 c-164 57 -455 115 -682 137 -169 16 -195 20 -195 32 0 8 29 9 93 4 254 -18 548 -71 745 -134 67 -22 122 -37 122 -34 0 19 -394 409 -519 513 -104 88 -270 203 -341 239 -55 27 -53 26 -45 39 15 25 234 -116 411 -265 61 -51 203 -188 317 -304 114 -116 207 -203 207 -194 0 39 -35 146 -76 233 -78 165 -157 272 -414 556 -70 77 -159 179 -197 228 -45 56 -95 105 -140 136 l-70 50 -6 -72z"
       id="path12"
       style="fill:#ff6600" />
    <path
       d="M3887 7720 c-115 -20 -230 -107 -281 -212 -50 -103 -54 -258 -11 -362 l15 -36 106 53 c91 45 104 55 99 72 -24 73 -32 114 -28 141 4 26 8 30 29 26 21 -4 24 -10 24 -49 0 -24 7 -57 15 -74 l16 -29 29 21 c16 12 42 22 59 23 21 1 34 8 43 25 31 58 125 58 210 -1 14 -10 28 -18 31 -18 13 0 29 97 24 148 -16 182 -190 305 -380 272z"
       id="path14"
       style="fill:#ffccff" />
    <path
       d="M2130 7665 c0 -7 78 -97 291 -335 97 -109 205 -245 251 -316 73 -115 138 -272 153 -377 4 -26 10 -47 14 -47 3 0 15 16 26 36 17 32 18 42 7 112 -43 290 -226 547 -582 816 -125 95 -160 119 -160 111z"
       id="path16"
       style="fill:#ffcc66" />
    <path
       d="M2550 7371 c0 -4 18 -25 41 -46 132 -128 252 -338 299 -524 8 -29 15 -40 22 -33 6 6 3 31 -11 75 -31 103 -50 203 -57 318 l-7 106 -56 30 c-79 43 -231 92 -231 74z"
       id="path18"
       style="fill:#ff6666" />
    <path
       d="M4043 7325 c-33 -24 -28 -37 22 -64 71 -38 185 -140 308 -277 l112 -126 28 33 c31 38 34 61 11 79 -8 8 -21 27 -28 45 -18 42 -115 146 -202 215 -117 93 -207 127 -251 95z"
       id="path20"
       style="fill:#cc9999" />
    <path
       d="M3895 7234 c-27 -20 -104 -62 -170 -95 -137 -69 -177 -97 -208 -145 -15 -23 -30 -34 -46 -34 -54 0 -210 -150 -257 -246 -32 -65 -37 -151 -12 -198 l15 -29 12 34 c18 53 61 113 72 102 7 -7 -2 -29 -23 -63 -39 -63 -46 -142 -15 -164 9 -7 17 -26 17 -41 0 -125 215 -171 321 -69 34 33 47 15 16 -21 -14 -17 -49 -36 -92 -50 l-69 -22 28 -18 c20 -13 59 -21 139 -27 75 -6 121 -14 142 -26 16 -10 64 -62 105 -117 89 -117 118 -142 148 -126 12 6 33 32 48 56 27 47 50 61 38 23 -13 -41 -49 -88 -76 -100 -16 -7 -28 -16 -28 -20 0 -3 -17 -28 -38 -55 -25 -31 -61 -61 -100 -81 -34 -18 -62 -37 -62 -41 0 -25 34 -100 57 -123 l26 -27 47 93 c26 51 71 132 101 180 30 47 63 101 74 120 11 19 35 47 53 61 51 42 87 124 40 91 -24 -17 -48 -21 -48 -8 0 5 21 23 48 39 67 44 99 80 84 95 -17 17 -15 83 3 118 19 37 62 70 91 70 18 0 25 9 38 48 25 75 47 179 61 287 l13 100 -53 65 c-74 92 -138 158 -129 135 4 -11 12 -50 17 -87 15 -96 -8 -193 -77 -333 -57 -115 -244 -397 -260 -392 -20 7 -13 41 18 90 41 64 135 251 171 338 34 84 71 222 89 334 l15 90 -77 74 c-93 90 -172 142 -221 147 -28 2 -46 -4 -86 -32z m35 -122 c28 -23 41 -102 16 -102 -11 0 -16 9 -16 33 0 40 -15 57 -51 57 -15 0 -30 4 -33 9 -16 26 52 29 84 3z m-117 -29 c42 -38 59 -120 37 -179 -16 -40 -31 -17 -20 29 17 78 -26 147 -92 147 -37 0 -51 13 -25 24 21 9 79 -3 100 -21z m-64 -80 c42 -31 63 -80 57 -138 -3 -27 -9 -88 -14 -136 -9 -99 -31 -142 -92 -184 -22 -15 -51 -47 -65 -70 -31 -53 -106 -93 -189 -102 -64 -7 -80 12 -18 22 112 18 166 48 193 110 11 25 26 45 34 45 8 0 32 17 54 38 44 42 66 105 57 162 -3 20 1 53 9 78 32 90 -25 175 -114 172 -65 -2 -68 -1 -46 16 26 20 98 13 134 -13z m-95 -67 c18 -8 41 -24 50 -37 20 -29 20 -87 1 -113 -8 -11 -15 -29 -15 -40 0 -30 -44 -121 -87 -179 -50 -69 -106 -107 -155 -107 -121 0 -163 115 -93 255 53 105 192 234 253 235 7 0 28 -6 46 -14z m266 -125 c0 -30 -34 -87 -62 -105 -31 -19 -31 3 1 39 20 23 31 46 31 65 0 20 5 30 15 30 10 0 15 -10 15 -29z m-65 -208 c-21 -141 -115 -263 -204 -263 -34 0 -24 16 18 28 73 22 146 128 158 232 4 35 10 50 21 50 11 0 13 -9 7 -47z m545 -1 c0 -5 -9 -17 -20 -27 -11 -10 -20 -22 -20 -26 0 -4 -5 -20 -10 -35 -7 -19 -14 -24 -21 -17 -11 11 9 72 32 100 13 14 39 18 39 5z m-120 -212 c0 -6 -22 -33 -49 -60 -57 -57 -86 -123 -78 -175 4 -26 2 -35 -9 -35 -23 0 -22 95 3 145 16 32 112 135 125 135 4 0 8 -5 8 -10z"
       id="path22"
       style="fill:#ff9900" />
    <path
       d="M3538 6891 c-55 -35 -128 -124 -164 -199 -27 -57 -33 -126 -15 -160 17 -32 67 -55 102 -47 64 14 161 134 194 238 9 29 23 64 31 79 21 38 18 56 -15 89 -38 37 -74 37 -133 0z m123 -25 c9 -19 7 -36 -6 -75 -30 -91 -76 -121 -120 -77 -61 61 -5 174 88 176 19 0 31 -7 38 -24z"
       id="path24"
       style="fill:#000066" />
    <path
       d="M3295 6950 c-22 -5 -69 -19 -105 -32 -55 -20 -68 -29 -87 -64 -29 -52 -48 -165 -39 -226 8 -52 44 -104 83 -119 23 -8 32 -29 13 -29 -18 0 -11 -102 10 -146 21 -42 29 -48 83 -65 21 -6 27 -5 23 4 -2 7 -10 30 -17 52 -7 22 -19 49 -26 60 -7 11 -13 29 -13 42 0 12 -5 25 -11 29 -22 13 -49 90 -49 141 0 103 65 217 181 313 l60 50 -33 -1 c-18 -1 -51 -5 -73 -9z"
       id="path26"
       style="fill:#ff6600" />
    <path
       d="M3014 6822 c-27 -21 -64 -56 -82 -76 -31 -35 -32 -39 -17 -56 15 -16 14 -21 -10 -56 -23 -34 -26 -47 -23 -100 5 -85 52 -178 123 -242 40 -37 55 -58 55 -77 0 -36 55 -90 105 -104 22 -6 64 -11 93 -11 l54 0 -33 32 c-18 18 -41 53 -52 78 -24 54 -42 69 -84 70 -72 0 -123 37 -159 115 -42 89 -26 219 34 260 12 9 19 28 21 59 1 25 8 67 16 93 8 26 13 49 11 50 -2 2 -25 -14 -52 -35z"
       id="path28"
       style="fill:#ff6600" />
    <path
       d="M1721 6740 c-1 -115 16 -187 66 -283 35 -66 134 -187 154 -187 20 0 7 44 -27 88 -54 70 -130 236 -154 332 -37 153 -38 154 -39 50z"
       id="path30"
       style="fill:#ffcc66" />
    <path
       d="M4505 6733 c-19 -159 -63 -338 -104 -423 l-17 -36 95 3 c78 2 112 8 181 34 128 46 343 100 355 88 7 -7 1 -18 -17 -32 -35 -29 -48 -65 -48 -135 0 -58 -7 -76 -62 -144 -27 -33 -27 -35 -13 -83 40 -132 -12 -291 -121 -368 -34 -24 -56 -51 -86 -110 -27 -51 -55 -89 -81 -110 -65 -51 -119 -109 -110 -117 13 -13 110 -30 166 -30 131 1 287 59 384 145 64 56 168 192 200 261 107 232 78 520 -74 732 -94 133 -215 232 -367 302 -70 33 -225 80 -262 80 -7 0 -15 -23 -19 -57z"
       id="path32"
       style="fill:#cc99cc" />
    <path
       d="M3004 6598 c-22 -43 -22 -131 1 -185 22 -54 76 -103 114 -103 l29 0 -14 38 c-7 20 -13 60 -14 89 0 43 -5 56 -29 81 -16 16 -35 47 -42 70 -7 23 -16 42 -20 42 -5 0 -16 -15 -25 -32z"
       id="path34"
       style="fill:#ff6600" />
    <path
       d="M2430 6543 c-65 -10 -210 -45 -210 -51 0 -4 22 -31 48 -60 l47 -54 59 36 c65 39 183 86 266 106 30 8 59 17 65 22 9 8 -225 9 -275 1z"
       id="path36"
       style="fill:#ff6600" />
    <path
       d="M2838 6539 c-3 -8 -47 -70 -97 -137 -50 -68 -89 -128 -85 -134 15 -24 189 9 247 47 l25 16 -29 53 c-16 29 -35 79 -42 111 -7 33 -16 52 -19 44z"
       id="path38"
       style="fill:#ff6600" />
    <path
       d="M2724 6458 c-39 -40 -98 -110 -133 -156 -34 -45 -67 -80 -72 -77 -5 4 -6 12 -2 18 15 26 124 166 133 172 5 3 15 16 21 27 28 53 -167 -122 -227 -203 -27 -38 -34 -56 -34 -94 l0 -47 62 57 c33 31 72 62 86 68 14 6 71 72 127 147 143 191 148 201 39 88z"
       id="path40"
       style="fill:#ff6600" />
    <path
       d="M2153 6488 c-33 -36 -83 -44 -83 -12 0 46 -64 -28 -85 -98 -42 -144 13 -406 108 -514 47 -53 59 -52 23 3 -38 59 -60 136 -53 194 5 36 2 57 -11 78 -16 28 -16 31 3 51 13 15 27 20 44 17 16 -3 35 2 50 14 29 23 44 24 61 4 17 -20 5 -62 -27 -91 -21 -20 -26 -35 -30 -91 -3 -38 0 -86 5 -108 l9 -40 7 30 c4 17 18 59 31 95 15 42 22 77 18 97 -8 47 4 83 26 83 52 0 68 -71 25 -110 -22 -22 -64 -100 -64 -121 0 -4 31 25 69 65 83 88 101 133 82 204 -15 57 -38 93 -124 194 -65 76 -65 77 -84 56z"
       id="path42"
       style="fill:#66ccff" />
    <path
       d="M2575 6472 c-60 -21 -141 -55 -178 -76 -65 -36 -68 -39 -54 -59 8 -12 24 -41 36 -65 l22 -42 48 57 c52 64 142 144 209 188 71 47 61 46 -83 -3z"
       id="path44"
       style="fill:#ff6600" />
    <path
       d="M4850 6342 c-52 -14 -97 -28 -100 -32 -3 -4 -50 -30 -105 -59 -55 -28 -170 -102 -255 -163 -85 -61 -172 -120 -192 -132 -31 -18 -103 -104 -94 -114 2 -1 41 21 87 49 192 120 384 194 514 200 87 4 81 -17 -7 -25 -82 -8 -216 -50 -310 -97 -88 -44 -277 -153 -278 -160 0 -3 33 -9 73 -12 134 -12 424 -102 435 -136 5 -16 17 -19 -163 43 -112 38 -320 85 -331 74 -2 -2 24 -24 57 -48 75 -54 272 -257 263 -271 -3 -6 -65 47 -138 118 -110 108 -227 203 -250 203 -13 0 -4 -20 43 -104 57 -102 108 -249 118 -336 7 -70 -11 -85 -22 -17 -13 83 -45 186 -86 276 -23 50 -45 91 -49 91 -4 0 -3 -28 2 -62 10 -69 4 -245 -12 -348 -13 -82 -18 -96 -30 -84 -5 5 -3 49 6 107 8 56 13 148 12 210 l-3 112 -16 -80 c-34 -164 -81 -325 -96 -325 -9 0 -12 7 -9 18 65 218 113 464 87 448 -17 -11 -145 -304 -188 -431 -23 -71 -43 -130 -43 -132 0 -8 110 -33 144 -33 65 0 160 27 237 66 39 19 104 42 145 49 40 8 82 20 93 27 11 6 36 39 55 72 23 38 59 80 98 111 81 66 121 141 194 365 64 200 102 289 144 342 40 49 50 79 50 144 0 31 5 64 11 76 6 11 9 21 7 23 -2 1 -46 -9 -98 -23z"
       id="path46"
       style="fill:#ff6600" />
    <path
       d="M4346 6329 c-36 -28 -59 -76 -52 -105 4 -13 10 -24 14 -24 7 0 82 131 82 144 0 12 -17 6 -44 -15z"
       id="path48"
       style="fill:#000066" />
    <path
       d="M1742 6314 c-12 -8 -29 -28 -37 -45 -20 -37 -36 -37 -74 2 -25 25 -31 27 -31 12 0 -48 50 -121 136 -202 49 -45 92 -89 97 -96 4 -8 12 -40 18 -72 24 -131 71 -160 212 -132 31 7 57 15 56 18 0 3 -30 29 -66 56 -73 56 -152 145 -184 207 -14 28 -23 70 -28 134 -9 123 -40 160 -99 118z"
       id="path50"
       style="fill:#66ccff" />
    <path
       d="M2902 6285 c-35 -25 -110 -45 -169 -45 -30 0 -34 -3 -28 -17 4 -10 10 -28 12 -40 5 -20 12 -23 54 -23 53 0 57 -6 33 -51 -8 -17 -13 -33 -11 -35 3 -3 33 7 69 21 60 24 168 105 168 126 0 9 -76 82 -89 86 -3 0 -21 -9 -39 -22z"
       id="path52"
       style="fill:#ffcc00" />
    <path
       d="M1575 6219 c39 -253 225 -485 413 -515 83 -13 169 15 156 51 -5 13 -14 15 -38 11 -75 -15 -171 -17 -196 -4 -38 20 -66 71 -80 143 -11 60 -17 69 -69 119 -31 30 -66 63 -78 73 -34 29 -93 113 -93 133 0 10 -5 22 -11 26 -8 5 -9 -6 -4 -37z"
       id="path54"
       style="fill:#0099ff" />
    <path
       d="M4453 6191 c-140 -73 -209 -123 -215 -156 -6 -29 -11 -31 107 54 50 36 124 86 165 113 41 26 71 48 65 48 -5 0 -60 -27 -122 -59z"
       id="path56"
       style="fill:#ffcc66" />
    <path
       d="M3261 6200 c49 -88 97 -101 155 -43 l37 37 -64 19 c-35 10 -84 21 -108 24 l-44 5 24 -42z"
       id="path58"
       style="fill:#ff6600" />
    <path
       d="M2584 6211 c-55 -25 -164 -129 -214 -203 -40 -60 -69 -133 -57 -144 4 -4 23 8 44 26 45 40 108 69 148 70 17 0 57 14 89 30 32 17 66 30 75 30 27 0 80 38 101 72 28 47 26 51 -25 45 -44 -6 -45 -6 -45 21 0 37 -26 72 -53 72 -12 0 -40 -9 -63 -19z"
       id="path60"
       style="fill:#66ccff" />
    <path
       d="M4390 6215 c-30 -10 -55 -27 -75 -52 l-30 -38 35 23 c19 12 56 34 83 48 69 36 65 43 -13 19z"
       id="path62"
       style="fill:#ffcc66" />
    <path
       d="M2159 6201 c-22 -18 -23 -21 -7 -37 15 -15 17 -15 33 10 24 37 7 54 -26 27z"
       id="path64"
       style="fill:#cccc00" />
    <path
       d="M1870 6154 c0 -62 38 -129 115 -204 l56 -55 -29 65 c-17 36 -38 101 -47 145 -10 44 -18 81 -19 82 0 0 -18 4 -38 8 l-38 7 0 -48z"
       id="path66"
       style="fill:#0099ff" />
    <path
       d="M2072 6178 c-7 -7 -8 -17 -1 -30 15 -27 29 -22 29 12 0 32 -9 37 -28 18z"
       id="path68"
       style="fill:#cccc00" />
    <path
       d="M2247 6173 c-4 -3 -7 -18 -7 -33 0 -15 3 -30 7 -33 10 -10 33 13 33 33 0 20 -23 43 -33 33z"
       id="path70"
       style="fill:#cccc00" />
    <path
       d="M2997 6145 c-21 -18 -59 -43 -85 -56 -26 -13 -49 -25 -51 -26 -2 -1 11 -28 30 -59 98 -164 318 -273 491 -245 37 6 78 16 92 22 l25 12 -24 31 c-38 50 -73 135 -84 205 -12 73 -15 78 -35 62 -9 -7 -42 -15 -74 -18 -83 -8 -162 17 -211 66 l-37 37 -37 -31z"
       id="path72"
       style="fill:#ff6600" />
    <path
       d="M1470 6137 c-207 -104 -370 -294 -440 -514 -107 -335 -26 -664 230 -937 32 -33 61 -58 65 -54 4 3 11 51 15 105 10 108 20 148 44 185 18 28 56 48 89 48 34 -1 108 -38 144 -72 l32 -31 39 35 c22 20 54 39 71 43 66 14 160 -59 234 -182 23 -37 36 -51 47 -46 8 3 29 8 46 10 42 6 70 -29 85 -108 l12 -60 23 41 c23 40 23 45 14 158 -5 64 -10 155 -10 201 0 75 -2 82 -17 76 -114 -50 -229 -66 -326 -45 -139 29 -283 136 -341 255 -57 118 -58 238 -2 361 31 67 115 152 176 179 25 10 46 20 48 21 2 1 -17 28 -42 59 -53 64 -105 163 -132 248 -10 31 -22 57 -28 57 -6 0 -40 -15 -76 -33z"
       id="path74"
       style="fill:#ccffff" />
    <path
       d="M3427 6132 c-23 -25 -24 -31 -17 -82 25 -172 136 -309 283 -347 91 -23 183 14 255 104 l31 40 -30 22 -30 23 -47 -23 c-65 -31 -161 -32 -218 -2 -83 44 -154 154 -154 238 0 24 -6 35 -24 43 -20 9 -27 7 -49 -16z"
       id="path76"
       style="fill:#ffcc00" />
    <path
       d="M2116 6133 c-3 -10 -13 -29 -22 -43 -20 -34 -12 -100 20 -175 30 -68 42 -68 25 0 -7 29 -10 82 -6 141 5 87 -2 118 -17 77z"
       id="path78"
       style="fill:#cccc00" />
    <path
       d="M2374 6118 c-3 -12 -37 -54 -75 -94 -67 -71 -95 -116 -83 -135 9 -16 74 -11 74 6 0 8 20 51 44 97 24 46 47 98 50 116 8 36 1 44 -10 10z"
       id="path80"
       style="fill:#0099ff" />
    <path
       d="M3529 6120 c-8 -38 19 -115 58 -166 32 -43 115 -84 168 -84 43 0 131 25 140 41 7 11 -95 150 -131 178 -14 11 -40 23 -58 25 -48 8 -176 12 -177 6z"
       id="path82"
       style="fill:#ff6600" />
    <path
       d="M2800 6036 c0 -38 78 -165 139 -227 101 -101 213 -149 347 -149 70 0 176 25 237 56 32 17 34 25 9 41 -15 9 -31 7 -73 -8 -66 -23 -182 -25 -259 -4 -135 36 -282 147 -340 258 -24 45 -60 65 -60 33z"
       id="path84"
       style="fill:#ffcc00" />
    <path
       d="M2747 6001 c-30 -51 -106 -128 -159 -162 -49 -32 -50 -34 -27 -40 80 -23 216 -2 267 41 l24 20 -36 71 c-20 39 -36 78 -36 85 0 23 -15 16 -33 -15z"
       id="path86"
       style="fill:#ff9933" />
    <path
       d="M2651 5990 c-41 -16 -79 -34 -84 -39 -6 -6 -27 -11 -46 -11 -50 -1 -112 -31 -160 -79 -54 -54 -54 -71 3 -71 102 0 232 63 307 149 35 39 66 83 57 80 -2 -1 -36 -14 -77 -29z"
       id="path88"
       style="fill:#0099ff" />
    <path
       d="M4787 5853 c-19 -60 -38 -119 -42 -133 l-7 -25 26 24 c14 13 35 43 46 66 23 48 39 175 23 175 -6 0 -27 -48 -46 -107z"
       id="path90"
       style="fill:#cc99cc" />
    <path
       d="M2200 5847 c-37 -13 -47 -37 -36 -83 6 -22 51 -54 75 -54 18 0 49 40 55 72 7 37 -15 78 -42 77 -9 0 -33 -5 -52 -12z"
       id="path92"
       style="fill:#ffcc00" />
    <path
       d="M2845 5824 c-36 -29 -89 -47 -154 -53 l-65 -6 64 -33 63 -32 44 21 c46 22 100 89 88 108 -8 15 -16 13 -40 -5z"
       id="path94"
       style="fill:#ffcc00" />
    <path
       d="M5713 5825 c-199 -36 -408 -150 -486 -265 -17 -25 -45 -63 -64 -86 -75 -93 -116 -232 -117 -394 0 -135 16 -207 75 -326 87 -178 245 -295 439 -325 71 -11 72 -10 99 15 27 26 51 34 51 16 0 -5 -8 -13 -17 -19 -68 -38 118 -1 203 40 120 59 202 153 244 279 18 53 21 82 18 160 -3 82 -8 105 -37 168 -40 86 -105 151 -189 190 -76 36 -211 39 -283 6 -65 -31 -128 -91 -155 -149 -44 -94 -26 -233 39 -303 71 -77 205 -90 290 -30 55 40 83 135 57 202 -8 21 -6 27 11 36 28 15 36 7 48 -50 18 -85 -9 -163 -79 -222 -131 -113 -345 -55 -419 112 -82 187 19 399 222 461 197 61 404 -27 497 -211 127 -251 30 -553 -221 -685 -69 -36 -199 -75 -251 -75 -20 0 -28 -5 -28 -18 0 -27 11 -34 29 -18 9 8 22 12 28 8 15 -10 -34 -207 -71 -289 -33 -70 -103 -143 -174 -181 -60 -31 -209 -82 -243 -82 -34 0 -20 -17 19 -24 56 -9 169 -68 229 -121 49 -43 54 -45 115 -45 34 0 104 7 153 15 642 104 1075 580 1075 1183 0 267 -79 503 -234 698 -203 256 -552 387 -873 329z"
       id="path96"
       style="fill:#cc99ff" />
    <path
       d="M2455 5781 c-11 -5 -48 -12 -82 -16 -35 -4 -63 -10 -63 -15 0 -4 -11 -19 -24 -34 -22 -23 -24 -29 -14 -58 30 -86 118 -179 223 -233 64 -34 70 -35 76 -18 12 33 37 46 76 40 38 -7 67 8 126 61 57 53 23 139 -77 197 -32 18 -211 87 -219 84 -1 0 -11 -4 -22 -8z"
       id="path98"
       style="fill:#66ccff" />
    <path
       d="M2860 5740 c-25 -26 -51 -49 -59 -52 -12 -3 -11 -12 8 -50 57 -119 172 -198 287 -198 36 0 82 7 105 16 37 15 40 20 34 43 -4 14 -11 52 -18 83 -10 54 -12 57 -46 63 -53 10 -170 68 -218 109 -22 20 -43 35 -45 35 -1 -1 -23 -23 -48 -49z"
       id="path100"
       style="fill:#ff9933" />
    <path
       d="M1725 5736 c-55 -25 -123 -93 -153 -153 -11 -22 -25 -66 -31 -99 -29 -157 61 -318 220 -398 132 -66 262 -68 397 -6 58 27 62 31 62 62 0 37 26 239 35 271 3 12 -6 -1 -20 -30 -52 -105 -114 -118 -335 -73 -85 17 -156 33 -158 35 -2 2 2 13 9 26 10 20 9 25 -11 41 -12 10 -33 18 -46 18 -31 0 -31 18 -1 29 29 11 70 59 93 107 26 56 106 104 170 104 13 0 24 5 24 10 0 6 -8 10 -19 10 -24 0 -88 27 -123 51 -34 25 -52 24 -113 -5z"
       id="path102"
       style="fill:#ccffff" />
    <path
       d="M2130 5699 c-15 -11 -68 -28 -125 -40 -130 -27 -161 -42 -195 -98 -16 -25 -40 -61 -55 -79 l-27 -32 27 -22 c20 -15 26 -27 22 -45 -4 -19 -1 -23 12 -17 9 3 60 10 114 15 153 12 188 42 212 178 8 46 24 99 35 118 30 50 24 57 -20 22z"
       id="path104"
       style="fill:#66ccff" />
    <path
       d="M3520 5689 c-30 -16 -81 -34 -112 -41 -65 -13 -67 -18 -42 -90 50 -150 237 -225 391 -158 l53 22 -39 28 c-71 52 -120 135 -121 206 0 25 -6 33 -35 47 -20 9 -37 17 -38 16 -1 0 -27 -14 -57 -30z"
       id="path106"
       style="fill:#ff9933" />
    <path
       d="M2170 5668 c-11 -18 -22 -49 -25 -68 -18 -117 -28 -145 -64 -181 -42 -43 -91 -59 -178 -59 -67 0 -84 -13 -30 -23 17 -4 69 -13 115 -22 100 -18 151 -10 193 31 34 33 59 107 59 173 -1 67 -23 174 -37 178 -7 3 -22 -10 -33 -29z"
       id="path108"
       style="fill:#0099ff" />
    <path
       d="M3680 5647 c0 -62 65 -158 132 -193 35 -18 35 -18 48 6 9 18 6 27 -21 57 -36 41 -59 91 -59 127 0 22 -5 24 -50 28 -49 3 -50 2 -50 -25z"
       id="path110"
       style="fill:#ffcc00" />
    <path
       d="M2255 5605 c10 -60 44 -133 76 -159 27 -23 91 -48 154 -60 26 -5 28 -4 11 7 -10 6 -45 29 -77 50 -63 41 -117 100 -150 163 l-20 39 6 -40z"
       id="path112"
       style="fill:#0099ff" />
    <path
       d="M3240 5600 c0 -58 40 -139 100 -204 117 -125 287 -169 421 -109 38 17 46 27 61 69 9 26 16 49 15 51 -2 1 -27 -10 -57 -25 -63 -31 -156 -40 -228 -23 -105 27 -197 118 -222 221 -12 49 -12 50 -51 50 -37 0 -39 -2 -39 -30z"
       id="path114"
       style="fill:#ffcc00" />
    <path
       d="M2811 5519 c-13 -30 -12 -32 29 -74 24 -24 70 -59 104 -77 55 -30 69 -33 141 -33 62 0 89 5 120 22 52 27 77 56 69 77 -7 19 -10 18 -84 -9 -95 -35 -233 1 -320 84 -24 22 -44 41 -44 41 -1 0 -7 -14 -15 -31z"
       id="path116"
       style="fill:#ffcc00" />
    <path
       d="M2722 5441 c-36 -27 -43 -29 -71 -18 -24 9 -34 8 -43 -1 -18 -18 -4 -24 69 -29 49 -4 79 -1 106 11 l38 16 -18 24 c-23 33 -32 32 -81 -3z"
       id="path118"
       style="fill:#0099ff" />
    <path
       d="M2285 5439 c-7 -21 -33 -233 -41 -333 l-7 -88 24 7 c70 21 147 96 185 180 30 65 25 102 -19 132 -18 12 -56 43 -84 69 -37 32 -54 42 -58 33z"
       id="path120"
       style="fill:#ff9933" />
    <path
       d="M2785 5379 c-32 -12 -67 -18 -97 -16 -26 2 -50 1 -54 -2 -7 -8 -129 -2 -177 9 -57 12 -32 -10 55 -50 128 -59 266 -53 349 17 28 24 29 26 13 44 -20 22 -23 22 -89 -2z"
       id="path122"
       style="fill:#ffcc00" />
    <path
       d="M3247 5355 c-27 -19 -71 -39 -103 -45 -50 -11 -54 -14 -48 -33 32 -108 170 -205 304 -215 l66 -4 -2 107 -3 108 -48 27 c-26 16 -61 42 -77 59 -17 17 -32 31 -35 30 -3 -1 -27 -16 -54 -34z"
       id="path124"
       style="fill:#ff9933" />
    <path
       d="M2894 5329 c-32 -36 -113 -71 -181 -77 l-64 -7 40 -55 c88 -122 227 -171 340 -120 l44 20 -20 23 c-33 36 -64 105 -70 158 -5 42 -11 52 -34 64 -35 19 -32 19 -55 -6z"
       id="path126"
       style="fill:#ff9933" />
    <path
       d="M5015 5340 c-3 -5 -37 -27 -75 -48 -43 -24 -66 -42 -60 -48 5 -5 32 -47 59 -93 l51 -84 0 47 c0 51 26 190 41 218 10 19 -5 26 -16 8z"
       id="path128"
       style="fill:#ff99cc" />
    <path
       d="M3006 5278 c10 -56 63 -155 101 -189 61 -53 155 -92 239 -97 95 -6 146 3 142 26 -2 13 -12 16 -39 14 -46 -4 -158 22 -211 49 -59 30 -143 117 -158 164 -17 52 -28 65 -56 65 -21 0 -23 -3 -18 -32z"
       id="path130"
       style="fill:#ffcc00" />
    <path
       d="M2495 5271 c3 -14 19 -53 34 -86 92 -198 343 -300 524 -211 75 36 86 51 60 78 l-21 21 -49 -24 c-69 -34 -158 -33 -234 4 -61 30 -152 117 -173 168 -11 26 -24 34 -80 53 l-67 23 6 -26z"
       id="path132"
       style="fill:#ffcc66" />
    <path
       d="M3492 5164 c4 -71 11 -112 26 -146 26 -58 84 -124 133 -148 37 -19 37 -19 42 1 4 14 -7 32 -38 64 -54 53 -75 118 -75 226 0 75 0 77 -27 82 -16 3 -36 9 -47 13 -17 7 -18 2 -14 -92z"
       id="path134"
       style="fill:#ffcc00" />
    <path
       d="M3743 5250 c-12 -5 -49 -12 -82 -16 l-61 -7 0 -51 c0 -73 26 -165 58 -205 15 -18 31 -34 36 -35 5 0 17 37 27 84 19 90 53 212 64 230 7 12 -12 12 -42 0z"
       id="path136"
       style="fill:#ff9933" />
    <path
       d="M4430 5235 c-21 -26 -61 -43 -130 -55 -35 -6 -93 -27 -130 -45 -128 -65 -270 -86 -363 -56 -21 7 -40 11 -42 9 -2 -2 -13 -43 -24 -91 -18 -82 -18 -89 -3 -94 147 -50 228 -99 333 -203 74 -73 93 -100 132 -180 53 -112 67 -170 67 -288 0 -97 -24 -202 -65 -283 -14 -26 -25 -51 -25 -53 0 -7 30 -1 197 35 73 16 158 29 188 29 30 0 55 2 55 4 0 2 -11 28 -25 58 -59 128 -79 280 -51 383 33 122 149 342 166 315 9 -15 30 -4 30 15 0 30 20 24 39 -12 10 -21 58 -83 105 -138 103 -118 131 -163 152 -244 11 -46 13 -73 5 -113 -5 -29 -8 -54 -7 -55 1 -1 15 9 31 22 l30 23 -1 174 c0 139 -5 193 -23 278 -37 173 -110 351 -207 501 -39 61 -48 70 -67 64 -12 -3 -68 -9 -124 -12 -92 -5 -137 0 -214 23 -9 2 -22 -3 -29 -11z"
       id="path138"
       style="fill:#ccffff" />
    <path
       d="M2457 5171 c-36 -78 -119 -151 -199 -175 -13 -4 -18 -16 -18 -42 l0 -37 42 7 c90 14 198 88 235 159 14 28 13 33 -8 78 -12 27 -25 49 -28 49 -3 0 -14 -18 -24 -39z"
       id="path140"
       style="fill:#ffcc66" />
    <path
       d="M2522 5045 c-44 -62 -108 -108 -195 -138 -16 -6 -16 -11 9 -59 34 -67 125 -157 189 -188 65 -31 160 -38 218 -16 37 14 107 68 107 82 0 3 -13 24 -28 47 -32 48 -62 118 -62 147 0 14 -16 28 -52 46 -28 14 -75 48 -103 75 l-51 49 -32 -45z"
       id="path142"
       style="fill:#ff9933" />
    <path
       d="M3110 4978 c-34 -23 -80 -44 -122 -54 l-68 -17 18 -30 c62 -108 166 -177 266 -177 34 0 67 4 74 8 20 13 12 252 -8 262 -8 4 -35 16 -60 27 l-45 19 -55 -38z"
       id="path144"
       style="fill:#ff9933" />
    <path
       d="M3453 4967 c-24 -5 -43 -13 -43 -18 0 -4 19 -36 43 -70 49 -73 109 -116 178 -125 l47 -6 4 37 c4 35 2 38 -43 60 -43 22 -129 106 -129 126 0 10 0 10 -57 -4z"
       id="path146"
       style="fill:#ff9900" />
    <path
       d="M3336 4933 c12 -51 52 -118 94 -160 54 -54 121 -86 192 -91 53 -4 58 -3 58 16 0 16 -9 22 -42 27 -24 4 -58 13 -75 21 -50 20 -126 97 -157 159 -23 44 -33 55 -52 55 -22 0 -24 -3 -18 -27z"
       id="path148"
       style="fill:#ffcc66" />
    <path
       d="M1433 4938 c-41 -20 -73 -125 -73 -240 0 -64 -13 -93 -49 -108 -41 -17 -50 -9 -109 98 -55 99 -81 121 -118 102 -29 -16 -77 -89 -99 -150 -20 -57 -22 -128 -5 -169 18 -44 4 -56 -43 -36 -59 25 -106 -6 -133 -88 -22 -68 -15 -177 15 -217 28 -38 27 -44 -12 -62 -52 -25 -97 -68 -97 -92 0 -29 40 -66 117 -106 119 -62 120 -89 9 -179 -84 -69 -116 -113 -116 -162 0 -46 33 -110 83 -160 48 -48 191 -122 272 -140 50 -11 60 -10 136 16 113 38 202 32 447 -29 101 -25 186 -46 190 -45 16 1 -271 102 -358 126 -76 21 -119 26 -217 27 -77 1 -122 5 -120 11 2 6 54 10 128 9 144 0 210 -16 479 -113 183 -65 279 -96 265 -83 -6 5 -37 19 -70 32 -187 73 -421 215 -552 335 -108 99 -249 294 -224 310 5 3 24 -20 42 -51 128 -225 376 -418 732 -570 116 -50 112 -41 -10 21 -207 107 -423 287 -501 418 -50 84 -33 91 21 10 60 -90 196 -219 317 -303 90 -61 310 -180 334 -180 6 0 -37 28 -95 63 -59 35 -146 95 -195 134 -101 81 -266 247 -338 342 -101 132 -198 302 -157 277 4 -3 31 -46 61 -96 138 -233 386 -484 620 -627 128 -78 137 -78 35 -1 -124 94 -263 256 -380 443 -58 93 -195 356 -195 374 0 31 22 -4 94 -146 134 -264 293 -480 455 -622 65 -56 67 -55 23 9 -50 73 -235 457 -268 557 -20 57 -38 136 -41 174 -5 63 -8 69 -28 69 -13 0 -28 6 -35 14 -6 8 -21 16 -33 18 -12 2 -28 16 -37 33 -8 16 -23 36 -34 44 -14 10 -17 22 -13 47 4 22 1 37 -9 45 -21 17 -17 72 7 98 16 17 18 26 10 34 -28 28 -1 107 38 107 7 0 10 7 6 19 -10 32 6 52 60 77 42 19 52 28 48 43 -3 14 7 27 42 50 25 17 53 31 61 31 8 0 26 7 39 16 23 15 27 15 50 0 14 -9 25 -23 25 -31 0 -7 9 -17 20 -20 11 -4 22 -18 25 -33 3 -15 10 -40 15 -57 4 -16 7 -61 6 -100 -1 -38 2 -76 8 -83 6 -8 5 -21 -2 -37 -8 -18 -8 -26 4 -35 20 -17 18 -58 -4 -71 -13 -8 -16 -21 -14 -48 3 -25 -1 -41 -12 -50 -9 -8 -16 -21 -16 -31 0 -24 -32 -50 -63 -50 -14 0 -29 -4 -32 -10 -3 -5 -15 -10 -26 -10 -23 0 -23 -1 13 -150 65 -268 179 -482 361 -677 33 -35 62 -62 64 -59 3 2 -20 37 -50 78 -172 232 -272 429 -312 611 -4 20 -2 28 6 25 6 -2 20 -37 30 -78 24 -93 109 -270 189 -394 75 -117 99 -139 64 -61 -40 91 -84 279 -91 385 -6 102 20 484 42 611 21 124 -14 289 -61 289 -9 0 -30 -8 -46 -17 -22 -13 -32 -15 -35 -6 -14 38 -115 172 -151 200 -64 49 -112 46 -163 -7 -21 -22 -42 -40 -47 -40 -4 0 -21 14 -38 31 -53 56 -139 88 -181 67z"
       id="path150"
       style="fill:#ff0066" />
    <path
       d="M2791 4893 c48 -176 259 -299 463 -269 39 6 46 11 46 30 0 22 -3 22 -82 22 -66 -1 -93 4 -131 21 -58 27 -145 114 -171 170 -14 32 -26 43 -47 47 -16 4 -42 9 -58 12 l-30 5 10 -38z"
       id="path152"
       style="fill:#ffcc66" />
    <path
       d="M2258 4893 c-33 -8 -21 -57 32 -137 126 -187 322 -286 463 -232 46 17 109 72 138 121 17 27 17 31 2 47 -15 16 -18 15 -60 -22 -122 -107 -297 -87 -434 49 -30 31 -68 82 -83 114 -31 63 -33 65 -58 60z"
       id="path154"
       style="fill:#ffcc66" />
    <path
       d="M3315 4836 c3 -27 5 -77 5 -112 l0 -64 83 -83 c89 -90 225 -186 339 -240 117 -55 118 -55 118 -9 0 38 -1 39 -74 76 -141 72 -308 225 -404 372 -80 121 -73 115 -67 60z"
       id="path156"
       style="fill:#ccff33" />
    <path
       d="M3713 4834 c-3 -10 -7 -91 -7 -182 l-1 -164 30 -24 c17 -13 59 -36 93 -51 l64 -27 -6 -37 c-4 -23 0 -51 10 -75 25 -60 15 -168 -21 -230 -27 -45 -28 -51 -22 -138 7 -90 21 -163 37 -179 8 -9 64 16 75 34 4 5 -1 19 -10 29 -22 24 -12 40 26 40 40 0 48 24 18 57 l-24 26 45 -8 c89 -16 90 -15 126 51 169 305 34 681 -301 844 -106 51 -123 56 -132 34z"
       id="path158"
       style="fill:#ccffff" />
    <path
       d="M1855 4770 c-9 -14 3 -27 30 -32 14 -2 20 3 20 17 0 22 -38 34 -50 15z"
       id="path160"
       style="fill:#ffff66" />
    <path
       d="M2257 4648 c13 -109 42 -270 63 -350 10 -36 13 -38 49 -38 41 0 139 45 155 72 8 12 4 29 -14 64 -13 27 -31 71 -39 99 -13 42 -27 61 -76 102 -33 27 -78 75 -100 106 -22 31 -43 56 -46 57 -3 0 0 -51 8 -112z"
       id="path162"
       style="fill:#ff9900" />
    <path
       d="M1787 4743 c-16 -15 -6 -33 16 -29 28 4 37 36 9 36 -10 0 -22 -3 -25 -7z"
       id="path164"
       style="fill:#ccff33" />
    <path
       d="M1922 4718 c-19 -19 -15 -48 8 -48 26 0 37 27 18 46 -11 11 -16 12 -26 2z"
       id="path166"
       style="fill:#ffff66" />
    <path
       d="M1737 4714 c-8 -8 1 -24 14 -24 5 0 9 7 9 15 0 15 -12 20 -23 9z"
       id="path168"
       style="fill:none" />
    <path
       d="M1848 4708 c-8 -21 2 -38 24 -38 14 0 19 6 16 22 -3 25 -33 36 -40 16z"
       id="path170"
       style="fill:#ffff66" />
    <path
       d="M4747 4697 c-3 -9 -17 -17 -29 -17 -18 0 -32 -15 -63 -70 -111 -198 -127 -317 -70 -499 44 -139 132 -245 223 -271 48 -13 50 -7 6 20 -50 32 -121 131 -140 198 -9 31 -26 63 -37 73 -19 15 -20 20 -9 57 7 22 19 43 27 46 42 16 77 -40 50 -80 -30 -46 -14 -115 46 -199 31 -43 104 -103 114 -93 3 3 -11 40 -31 82 -23 48 -39 98 -41 129 -3 29 -12 66 -20 83 -29 57 9 120 57 94 26 -14 26 -55 -1 -100 -17 -27 -20 -44 -15 -78 6 -44 53 -162 65 -162 3 0 6 26 6 58 1 31 2 80 3 107 1 28 1 68 0 90 -3 37 -1 40 24 43 67 8 94 -54 39 -86 -17 -9 -32 -26 -35 -37 -9 -33 -7 -185 3 -185 4 0 12 28 15 63 5 37 22 94 43 142 26 56 37 98 41 146 8 112 -23 174 -173 346 -33 37 -67 79 -76 92 -13 21 -16 22 -22 8z"
       id="path172"
       style="fill:#99cc00" />
    <path
       d="M3563 4605 c53 -52 102 -95 107 -95 6 0 10 31 10 70 l0 70 -33 0 c-37 0 -137 27 -151 41 -6 5 -15 9 -20 9 -6 -1 33 -43 87 -95z"
       id="path174"
       style="fill:#ffff66" />
    <path
       d="M1783 4674 c-8 -22 11 -37 36 -29 17 5 19 10 11 26 -13 23 -38 25 -47 3z"
       id="path176"
       style="fill:#ccff33" />
    <path
       d="M1740 4650 c0 -11 5 -20 10 -20 6 0 10 9 10 20 0 11 -4 20 -10 20 -5 0 -10 -9 -10 -20z"
       id="path178"
       style="fill:none" />
    <path
       d="M2908 4622 l-25 -38 30 -59 c65 -130 208 -234 352 -256 82 -13 96 -9 87 26 -7 24 -13 27 -60 30 -121 9 -231 113 -281 268 -8 24 -23 43 -41 52 -16 8 -31 15 -33 15 -2 0 -16 -17 -29 -38z"
       id="path180"
       style="fill:#ffcc66" />
    <path
       d="M1684 4636 c-9 -23 0 -51 17 -54 21 -4 32 24 19 49 -13 23 -28 25 -36 5z"
       id="path182"
       style="fill:#ccff33" />
    <path
       d="M1861 4636 c-9 -10 -8 -16 4 -26 20 -16 45 -6 45 20 0 23 -31 28 -49 6z"
       id="path184"
       style="fill:#ffff66" />
    <path
       d="M1937 4643 c-12 -12 -7 -51 7 -56 20 -8 39 18 31 43 -6 20 -25 26 -38 13z"
       id="path186"
       style="fill:#ffff66" />
    <path
       d="M1637 4623 c-4 -3 -7 -17 -7 -31 0 -18 4 -23 16 -18 9 3 17 6 18 6 2 0 1 11 -2 25 -4 25 -13 31 -25 18z"
       id="path188"
       style="fill:#ccff33" />
    <path
       d="M1757 4602 c-18 -19 -23 -42 -9 -42 15 1 42 28 42 44 0 21 -13 20 -33 -2z"
       id="path190"
       style="fill:#ccff33" />
    <path
       d="M1814 4606 c-9 -23 9 -41 30 -29 15 8 15 11 -3 27 -19 17 -21 18 -27 2z"
       id="path192"
       style="fill:#ffff66" />
    <path
       d="M3036 4598 c14 -47 56 -120 90 -158 44 -49 125 -90 177 -90 36 0 39 2 34 23 -4 12 -11 56 -17 97 -22 154 -15 139 -63 128 -46 -11 -160 -4 -202 12 -24 9 -26 8 -19 -12z"
       id="path194"
       style="fill:#ff9900" />
    <path
       d="M5141 4572 c4 -26 8 -111 8 -190 1 -79 5 -141 9 -138 5 3 79 25 165 50 86 25 174 53 195 62 l37 16 -69 18 c-110 29 -191 75 -276 156 l-77 74 8 -48z"
       id="path196"
       style="fill:#cc66cc" />
    <path
       d="M3330 4600 c0 -8 7 -65 16 -127 l17 -112 59 -65 c63 -70 133 -119 299 -213 l107 -60 6 43 c3 23 8 78 12 121 l6 78 -64 24 c-133 49 -320 176 -415 279 -24 26 -43 40 -43 32z"
       id="path198"
       style="fill:#ffff66" />
    <path
       d="M2207 4548 c-33 -107 -39 -155 -68 -529 -14 -178 -5 -282 37 -437 28 -105 101 -284 140 -342 14 -21 23 -43 20 -48 -5 -9 34 -42 49 -42 3 0 -6 23 -20 50 -87 171 -110 575 -50 880 15 75 15 75 -20 212 -19 75 -40 175 -47 222 -6 48 -15 86 -19 86 -3 0 -14 -24 -22 -52z"
       id="path200"
       style="fill:#990033" />
    <path
       d="M1890 4560 c0 -24 26 -38 42 -22 8 8 8 15 -2 27 -18 21 -40 19 -40 -5z"
       id="path202"
       style="fill:#ffff66" />
    <path
       d="M1641 4543 c-15 -13 -18 -22 -11 -33 13 -20 44 -2 48 29 4 26 -9 27 -37 4z"
       id="path204"
       style="fill:#ccff33" />
    <path
       d="M1777 4553 c-11 -10 -8 -51 3 -58 9 -6 30 33 30 56 0 10 -23 12 -33 2z"
       id="path206"
       style="fill:#ffff66" />
    <path
       d="M1831 4529 c-15 -24 -17 -35 -9 -38 7 -2 14 1 16 8 2 6 11 18 19 27 11 11 13 18 5 26 -8 8 -17 1 -31 -23z"
       id="path208"
       style="fill:#ffff66" />
    <path
       d="M1951 4529 c-7 -17 -11 -33 -7 -36 9 -10 36 18 36 38 0 30 -15 29 -29 -2z"
       id="path210"
       style="fill:#ffff66" />
    <path
       d="M2816 4529 c-44 -32 -93 -49 -148 -49 -21 0 -38 -4 -38 -9 0 -20 68 -108 107 -137 90 -69 233 -97 326 -65 42 14 47 26 16 36 -36 12 -152 136 -184 197 -17 32 -32 58 -35 57 -3 0 -22 -14 -44 -30z"
       id="path212"
       style="fill:#ff9900" />
    <path
       d="M1705 4540 c-4 -6 -1 -17 5 -26 10 -11 16 -12 26 -3 11 9 11 15 3 25 -14 17 -25 18 -34 4z"
       id="path214"
       style="fill:#ccff33" />
    <path
       d="M1582 4528 c-16 -16 -15 -53 3 -68 12 -10 15 -8 20 12 3 13 2 34 -2 46 -7 18 -11 20 -21 10z"
       id="path216"
       style="fill:#ccff33" />
    <path
       d="M2494 4506 c37 -150 182 -313 324 -366 76 -29 186 -25 254 8 53 26 136 97 126 107 -13 13 -83 8 -128 -9 -71 -28 -187 -19 -273 22 -80 37 -158 112 -182 174 -14 38 -23 46 -71 65 l-56 21 6 -22z"
       id="path218"
       style="fill:#ffcc66" />
    <path
       d="M1865 4500 c-10 -17 20 -44 40 -36 9 3 15 14 13 23 -4 21 -43 30 -53 13z"
       id="path220"
       style="fill:#ffff66" />
    <path
       d="M1673 4474 c-5 -14 11 -33 28 -34 9 0 18 37 11 44 -11 12 -33 6 -39 -10z"
       id="path222"
       style="fill:#ccff33" />
    <path
       d="M1747 4483 c-4 -3 -7 -17 -7 -31 0 -18 4 -23 16 -18 9 3 18 6 20 6 2 0 4 6 4 14 0 17 -24 38 -33 29z"
       id="path224"
       style="fill:#ccff33" />
    <path
       d="M1630 4446 c0 -27 14 -41 30 -31 11 7 -8 55 -22 55 -4 0 -8 -11 -8 -24z"
       id="path226"
       style="fill:#ccff33" />
    <path
       d="M1809 4454 c-21 -26 -17 -91 8 -122 19 -23 24 -25 33 -12 5 8 10 28 10 44 0 28 0 29 -20 11 -32 -29 -36 -9 -7 32 20 28 24 40 15 50 -14 17 -23 16 -39 -3z"
       id="path228"
       style="fill:#ffff66" />
    <path
       d="M1936 4457 c-16 -12 -16 -14 -2 -26 21 -17 46 -7 46 19 0 23 -18 26 -44 7z"
       id="path230"
       style="fill:#ffff66" />
    <path
       d="M1874 4426 c-7 -19 13 -56 31 -56 22 0 18 43 -5 58 -17 10 -21 10 -26 -2z"
       id="path232"
       style="fill:#ffff66" />
    <path
       d="M1572 4407 c-25 -26 -28 -59 -9 -76 16 -12 27 -5 27 17 0 9 7 23 15 32 15 16 11 50 -4 50 -4 0 -17 -10 -29 -23z"
       id="path234"
       style="fill:#ffff66" />
    <path
       d="M1710 4411 c0 -17 30 -25 43 -12 8 8 8 11 0 11 -6 0 -18 3 -27 6 -9 3 -16 1 -16 -5z"
       id="path236"
       style="fill:#ccff33" />
    <path
       d="M1665 4380 c-10 -33 6 -48 34 -31 10 7 11 13 2 30 -15 26 -28 27 -36 1z"
       id="path238"
       style="fill:#ffff66" />
    <path
       d="M1950 4385 c-7 -8 -10 -22 -6 -30 7 -20 42 -19 50 1 8 22 8 22 -13 33 -14 8 -22 7 -31 -4z"
       id="path240"
       style="fill:#ffff66" />
    <path
       d="M5550 4349 c-41 -20 -136 -53 -210 -73 -211 -57 -307 -111 -350 -196 -19 -38 -46 -167 -37 -176 3 -3 27 18 53 46 26 28 61 59 77 68 15 9 37 36 47 59 33 74 110 92 110 26 0 -31 -42 -73 -73 -73 -49 0 -186 -113 -174 -144 5 -13 13 -12 59 5 29 11 72 27 96 35 28 11 42 22 42 34 0 26 48 80 70 80 26 0 50 -27 50 -55 0 -29 -33 -54 -84 -62 -20 -3 -75 -20 -124 -37 -87 -31 -87 -31 -90 -69 -4 -44 -8 -43 128 -22 173 26 328 85 402 154 56 51 90 114 121 221 40 141 40 139 16 133 -26 -7 -39 11 -39 55 0 17 -3 31 -7 30 -5 -1 -42 -18 -83 -39z"
       id="path242"
       style="fill:#99cc00" />
    <path
       d="M1622 4367 c-22 -27 -6 -57 31 -57 31 0 31 0 10 15 -12 8 -23 25 -25 37 -3 19 -4 20 -16 5z"
       id="path244"
       style="fill:#ffff66" />
    <path
       d="M1727 4347 c-21 -32 -22 -47 -2 -47 8 0 17 11 21 25 10 39 0 50 -19 22z"
       id="path246"
       style="fill:#ffff66" />
    <path
       d="M1882 4326 c3 -23 34 -34 51 -17 14 14 -4 34 -33 36 -16 1 -20 -3 -18 -19z"
       id="path248"
       style="fill:#ffff66" />
    <path
       d="M1764 4305 c-5 -22 -9 -98 -8 -170 1 -180 22 -246 179 -563 152 -306 181 -341 339 -417 54 -25 101 -44 104 -40 4 4 -2 11 -13 17 -43 22 -262 257 -316 338 -147 221 -239 492 -267 790 -8 82 -9 83 -18 45z"
       id="path250"
       style="fill:#cc9900" />
    <path
       d="M2540 4310 c0 -18 -104 -70 -153 -76 -40 -6 -47 -10 -42 -25 18 -64 15 -62 52 -56 19 3 54 18 78 32 64 37 117 135 74 135 -5 0 -9 -4 -9 -10z"
       id="path252"
       style="fill:#ffcc66" />
    <path
       d="M1800 4285 c0 -12 7 -28 15 -35 17 -14 20 -13 29 15 4 15 -1 23 -19 32 -23 10 -25 9 -25 -12z"
       id="path254"
       style="fill:#ffff66" />
    <path
       d="M1575 4281 c-8 -25 1 -41 21 -41 11 0 14 8 12 27 -4 33 -24 41 -33 14z"
       id="path256"
       style="fill:#ffff66" />
    <path
       d="M1943 4288 c-17 -22 -23 -47 -12 -54 15 -9 39 16 39 42 0 26 -12 31 -27 12z"
       id="path258"
       style="fill:#ffff66" />
    <path
       d="M3380 4290 c0 -7 50 -179 71 -248 9 -28 37 -51 174 -142 147 -97 202 -128 209 -118 1 1 0 50 -3 107 l-6 105 -60 34 c-187 106 -274 163 -326 213 -33 31 -59 53 -59 49z"
       id="path260"
       style="fill:#ffff66" />
    <path
       d="M1635 4281 c-13 -22 31 -71 65 -71 7 0 10 15 8 38 -3 33 -6 37 -35 40 -17 2 -34 -2 -38 -7z"
       id="path262"
       style="fill:#ffff66" />
    <path
       d="M1866 4267 c-9 -33 -8 -37 13 -37 26 0 34 37 11 50 -14 8 -19 5 -24 -13z"
       id="path264"
       style="fill:#ffff66" />
    <path
       d="M2575 4251 c-8 -27 -89 -99 -120 -107 -38 -9 -26 -26 36 -51 88 -36 196 -26 251 24 17 15 15 17 -25 43 -23 15 -61 46 -85 68 -23 23 -44 42 -46 42 -3 0 -7 -9 -11 -19z"
       id="path266"
       style="fill:#ff9900" />
    <path
       d="M3209 4214 c-13 -14 -45 -40 -72 -57 l-47 -31 27 -28 c40 -41 120 -68 206 -68 40 0 78 4 85 8 10 7 7 29 -15 105 l-28 97 -66 0 c-58 0 -68 -3 -90 -26z"
       id="path268"
       style="fill:#ff9900" />
    <path
       d="M4786 4215 c-3 -8 -1 -28 5 -43 l11 -27 13 25 c20 36 19 60 -4 60 -10 0 -21 -7 -25 -15z"
       id="path270"
       style="fill:#ffcc00" />
    <path
       d="M1620 4201 c0 -22 25 -39 38 -27 8 8 -10 38 -26 44 -7 2 -12 -6 -12 -17z"
       id="path272"
       style="fill:#ffff66" />
    <path
       d="M1810 4195 c0 -13 7 -29 16 -36 14 -11 18 -10 30 6 15 20 19 44 7 46 -5 0 -18 2 -30 3 -18 2 -23 -2 -23 -19z"
       id="path274"
       style="fill:#ffff66" />
    <path
       d="M1903 4213 c-17 -6 -17 -43 0 -43 14 0 37 19 37 31 0 10 -23 17 -37 12z"
       id="path276"
       style="fill:#ccff33" />
    <path
       d="M4657 4203 c-10 -9 -9 -63 1 -63 15 0 32 24 32 47 0 22 -19 31 -33 16z"
       id="path278"
       style="fill:#ffcc00" />
    <path
       d="M1703 4189 c-26 -10 -30 -37 -7 -46 20 -8 37 10 32 35 -2 16 -7 18 -25 11z"
       id="path280"
       style="fill:#ffff66" />
    <path
       d="M4900 4173 c0 -33 15 -46 39 -34 25 14 28 36 5 45 -28 11 -44 6 -44 -11z"
       id="path282"
       style="fill:#ffcc00" />
    <path
       d="M2395 4055 c14 -36 25 -68 25 -70 0 -3 24 -17 53 -32 40 -20 71 -27 135 -31 137 -8 227 32 270 119 l22 44 -55 17 -56 16 -49 -33 c-88 -59 -203 -57 -303 5 -27 16 -52 30 -57 30 -5 0 2 -29 15 -65z"
       id="path284"
       style="fill:#ffcc66" />
    <path
       d="M5169 4099 c-11 -11 -18 -26 -16 -32 6 -16 39 -10 55 11 30 40 -2 58 -39 21z"
       id="path286"
       style="fill:#ffcc00" />
    <path
       d="M2336 4083 c-46 -226 -45 -534 4 -738 19 -80 48 -161 55 -153 2 2 -2 40 -10 83 -27 154 -14 404 30 565 l15 55 -41 105 c-23 58 -43 106 -44 108 -2 2 -6 -9 -9 -25z"
       id="path288"
       style="fill:#990033" />
    <path
       d="M3040 4101 c0 -17 74 -74 125 -97 62 -29 147 -46 184 -38 114 25 122 47 12 38 -100 -8 -196 18 -258 71 -40 34 -63 44 -63 26z"
       id="path290"
       style="fill:#ffcc66" />
    <path
       d="M2958 4093 c-28 -3 -38 -9 -38 -22 0 -23 -44 -90 -78 -117 l-26 -21 66 -32 c87 -41 155 -54 217 -40 74 16 179 89 129 89 -32 0 -142 63 -182 105 -24 25 -46 44 -48 43 -1 -1 -20 -3 -40 -5z"
       id="path292"
       style="fill:#ff9900" />
    <path
       d="M5248 4009 c-22 -12 -41 -46 -33 -59 8 -13 62 8 70 27 9 24 -16 44 -37 32z"
       id="path294"
       style="fill:#ffcc00" />
    <path
       d="M3403 3951 c-37 -13 -43 -20 -53 -59 -15 -60 -36 -100 -72 -138 l-29 -31 38 -32 c21 -17 63 -44 93 -59 46 -23 68 -27 137 -27 47 0 87 5 93 11 9 9 -1 34 -38 100 -28 49 -65 123 -83 164 -18 41 -35 78 -38 81 -3 3 -25 -1 -48 -10z"
       id="path296"
       style="fill:#ff9900" />
    <path
       d="M6749 3954 c-236 -42 -483 -185 -639 -369 -151 -177 -259 -436 -245 -587 8 -83 -9 -211 -39 -300 -12 -38 -21 -68 -19 -68 13 0 258 118 460 221 l238 122 11 68 c22 127 103 253 206 322 104 68 222 96 323 78 135 -25 233 -98 292 -218 34 -69 38 -84 38 -157 0 -67 -5 -91 -26 -136 -32 -66 -86 -123 -154 -158 -43 -23 -61 -27 -137 -26 -76 0 -88 -2 -88 -17 0 -27 -39 -68 -90 -94 -49 -25 -90 -67 -90 -91 0 -21 70 -61 157 -90 71 -24 89 -26 188 -22 67 3 130 12 160 23 198 68 340 194 424 376 46 97 61 170 61 290 0 133 -23 231 -85 356 -174 354 -558 548 -946 477z"
       id="path298"
       style="fill:#ccccff" />
    <path
       d="M3490 3950 c0 -17 108 -236 122 -247 7 -6 74 -38 148 -70 140 -61 264 -126 276 -144 12 -20 -7 -23 -34 -6 -66 43 -362 182 -362 171 0 -8 96 -147 144 -209 45 -57 49 -60 114 -73 74 -15 182 -59 182 -75 0 -11 -22 -6 -118 28 -41 14 -79 24 -85 22 -7 -2 32 -49 85 -103 l97 -99 93 -6 c114 -8 258 -45 258 -66 0 -10 -6 -13 -16 -9 -41 16 -176 45 -234 51 l-65 6 35 -31 c19 -18 61 -52 92 -76 56 -43 58 -44 135 -44 87 0 126 -7 120 -23 -2 -6 -32 -9 -75 -8 -40 1 -72 0 -72 -3 0 -3 31 -27 69 -52 l70 -46 123 12 c101 10 128 10 153 -1 l30 -14 -50 -2 c-138 -7 -215 -16 -210 -23 3 -4 68 -45 146 -90 l140 -83 57 8 c81 12 141 12 144 0 2 -5 -28 -13 -65 -17 -38 -3 -71 -9 -74 -12 -7 -7 68 -40 162 -71 66 -22 179 -47 270 -59 36 -5 37 -4 15 6 -14 6 -52 24 -85 39 -87 40 -136 87 -180 171 -72 139 -116 167 -280 178 -186 13 -236 41 -250 137 -3 26 -12 55 -18 64 -20 27 -69 47 -155 63 -166 32 -182 48 -182 188 0 53 -5 109 -12 123 -8 18 -40 41 -100 72 -96 49 -145 96 -181 175 -17 38 -28 48 -59 57 -20 7 -101 54 -178 106 -77 52 -140 90 -140 85z"
       id="path300"
       style="fill:#ffff66" />
    <path
       d="M3260 3915 c-13 -14 -51 -39 -84 -55 -98 -49 -217 -37 -340 35 -44 26 -45 26 -100 10 -31 -9 -56 -22 -56 -29 0 -24 59 -94 105 -126 79 -54 147 -73 250 -68 109 5 171 33 233 103 34 39 62 103 62 144 0 21 -47 11 -70 -14z"
       id="path302"
       style="fill:#ffcc66" />
    <path
       d="M4495 3933 c-246 -55 -305 -64 -378 -61 -61 2 -76 0 -72 -10 9 -25 -14 -52 -45 -52 l-29 0 50 -82 c53 -88 99 -136 164 -171 35 -19 55 -22 160 -21 103 0 132 4 205 28 47 15 94 36 105 46 27 25 170 110 184 110 6 0 11 5 11 11 0 18 -143 4 -223 -21 -52 -16 -67 -25 -63 -36 3 -9 -1 -28 -9 -44 -24 -46 -95 -54 -95 -11 0 24 47 81 66 81 8 0 29 7 46 16 18 9 70 24 117 34 56 11 79 19 66 23 -43 13 -142 24 -172 20 -20 -3 -33 -1 -33 6 0 21 55 24 149 6 53 -9 105 -18 115 -19 31 -2 30 23 -1 30 -44 10 -107 50 -141 89 -30 33 -34 35 -94 34 -35 -1 -72 -3 -83 -6z m25 -92 c0 -5 -12 -16 -26 -26 -22 -14 -25 -22 -21 -51 6 -37 -6 -45 -23 -15 -6 13 -7 28 -1 44 13 35 71 74 71 48z"
       id="path304"
       style="fill:#99cc00" />
    <path
       d="M2474 3859 c67 -147 117 -239 136 -251 11 -7 20 -21 20 -30 0 -41 52 -5 82 57 9 17 18 47 22 67 6 32 2 43 -27 81 -18 24 -39 58 -46 75 -11 26 -19 32 -45 32 -28 0 -79 12 -153 35 -22 7 -22 5 11 -66z"
       id="path306"
       style="fill:#ff9900" />
    <path
       d="M4891 3846 c-26 -27 -32 -40 -29 -67 6 -68 94 -73 118 -6 18 53 13 86 -16 97 -36 14 -36 14 -73 -24z"
       id="path308"
       style="fill:#ffff00" />
    <path
       d="M2436 3840 c-32 -88 -57 -417 -38 -495 l10 -40 1 42 c2 64 36 230 66 316 l26 76 -30 58 c-19 38 -31 53 -35 43z"
       id="path310"
       style="fill:#990033" />
    <path
       d="M5000 3763 c0 -1 19 -11 43 -21 23 -11 64 -37 91 -60 26 -22 62 -43 79 -46 54 -11 75 -48 42 -76 -25 -20 -65 -3 -80 34 -27 65 -163 159 -193 134 -10 -9 -8 -16 12 -37 13 -14 42 -57 64 -95 32 -55 47 -72 74 -80 22 -7 34 -18 36 -33 5 -33 -15 -63 -43 -63 -28 0 -45 25 -45 66 0 28 -79 172 -106 195 -14 11 -15 8 -9 -27 16 -84 56 -190 85 -227 47 -56 100 -82 264 -127 82 -22 154 -44 159 -47 5 -3 6 4 2 16 -18 58 28 101 105 101 38 0 41 2 35 23 -29 99 -115 215 -205 275 -96 64 -158 83 -293 91 -64 3 -117 5 -117 4z"
       id="path312"
       style="fill:#99cc00" />
    <path
       d="M2760 3703 c0 -42 -45 -129 -77 -149 -15 -10 -30 -19 -32 -21 -2 -1 8 -22 23 -47 25 -43 28 -45 54 -35 63 24 102 86 102 161 0 63 -8 83 -41 102 l-29 17 0 -28z"
       id="path314"
       style="fill:#ffff33" />
    <path
       d="M3205 3697 c-15 -12 -10 -19 51 -76 84 -79 157 -114 239 -114 81 -1 179 49 155 78 -8 10 -18 10 -48 -1 -53 -19 -114 -17 -183 6 -67 23 -94 38 -155 86 -35 28 -44 31 -59 21z"
       id="path316"
       style="fill:#ffff33" />
    <path
       d="M3953 3688 c-18 -11 -33 -23 -33 -28 0 -17 83 -81 147 -114 38 -19 79 -46 93 -61 23 -25 25 -33 25 -135 1 -144 4 -148 157 -180 l93 -19 45 29 45 29 11 123 c8 88 17 136 32 167 12 25 20 46 18 48 -2 3 -28 -3 -58 -12 -146 -44 -275 -39 -372 13 -48 26 -119 98 -139 140 -12 26 -22 27 -64 0z"
       id="path318"
       style="fill:#66cccc" />
    <path
       d="M2485 3619 c-27 -87 -55 -231 -55 -286 0 -32 3 -29 39 41 21 42 53 93 69 114 47 58 49 84 16 152 -16 32 -32 59 -36 59 -4 1 -19 -35 -33 -80z"
       id="path320"
       style="fill:#990033" />
    <path
       d="M4760 3653 c-158 -95 -187 -145 -201 -337 -5 -72 -10 -143 -12 -158 -2 -16 -3 -28 -2 -28 2 0 23 9 49 21 26 11 59 19 74 17 25 -3 27 -6 26 -45 -1 -52 8 -53 83 -19 158 74 246 271 195 437 -11 36 -23 86 -27 112 -6 41 -10 47 -31 47 -24 0 -24 -1 -24 -104 0 -89 3 -110 21 -141 19 -31 20 -39 9 -66 -16 -37 -46 -55 -66 -38 -18 15 -18 80 1 105 16 21 22 224 6 224 -14 0 -50 -94 -67 -177 -12 -55 -23 -84 -40 -100 -26 -24 -31 -62 -12 -81 17 -17 2 -28 -17 -12 -23 19 -19 74 9 107 14 17 30 58 40 105 9 42 28 98 41 124 13 27 23 49 22 50 -1 2 -36 -18 -77 -43z"
       id="path322"
       style="fill:#99cc00" />
    <path
       d="M2855 3618 c0 -46 -6 -75 -22 -105 l-22 -42 45 -27 c25 -15 62 -33 82 -40 47 -17 143 -18 196 -2 47 14 118 80 133 124 10 29 8 33 -44 88 l-56 57 -73 -12 c-69 -12 -175 -5 -224 15 -12 5 -15 -5 -15 -56z"
       id="path324"
       style="fill:#ff9900" />
    <path
       d="M4500 3653 c-14 -18 -17 -30 -11 -36 14 -14 51 20 51 45 0 26 -15 22 -40 -9z"
       id="path326"
       style="fill:#ffcc00" />
    <path
       d="M6030 3634 c-74 -31 -244 -71 -359 -83 -51 -6 -96 -12 -98 -15 -3 -2 35 -44 84 -93 73 -72 98 -105 133 -175 l43 -87 24 70 c39 118 119 258 205 362 45 53 44 54 -32 21z"
       id="path328"
       style="fill:#6666cc" />
    <path
       d="M5190 3612 c0 -15 38 -44 49 -37 18 10 13 21 -14 33 -31 14 -35 15 -35 4z"
       id="path330"
       style="fill:#ffcc00" />
    <path
       d="M3626 3515 c-42 -26 -60 -30 -124 -32 l-74 -2 -31 -63 c-17 -35 -33 -66 -34 -69 -6 -10 119 -67 182 -84 108 -28 204 -15 276 36 l29 20 -58 72 c-32 40 -72 90 -88 112 l-29 41 -49 -31z"
       id="path332"
       style="fill:#ffcc00" />
    <path
       d="M2597 3532 c-5 -7 -11 -66 -14 -130 -11 -250 78 -490 291 -791 59 -83 89 -107 43 -34 -146 230 -285 654 -309 938 -2 21 -6 26 -11 17z"
       id="path334"
       style="fill:#ff9900" />
    <path
       d="M3289 3513 c-19 -49 -59 -93 -112 -120 -44 -23 -64 -27 -137 -27 -72 -1 -94 4 -145 27 -33 15 -67 35 -77 44 -15 13 -23 14 -44 5 l-25 -12 23 -32 c40 -57 102 -110 158 -137 47 -22 69 -26 145 -26 78 0 97 4 140 27 63 33 126 98 159 165 14 29 26 56 26 61 0 5 -19 17 -42 27 -24 10 -46 20 -50 23 -5 2 -13 -9 -19 -25z"
       id="path336"
       style="fill:#ffff33" />
    <path
       d="M5100 3483 c0 -10 4 -24 9 -32 8 -12 12 -12 25 -2 20 17 20 37 0 45 -26 10 -34 7 -34 -11z"
       id="path338"
       style="fill:#ffcc00" />
    <path
       d="M2640 3455 c0 -15 11 -84 26 -152 54 -265 196 -606 352 -848 47 -74 139 -185 152 -185 4 0 10 20 12 44 3 25 29 95 58 157 33 70 55 130 58 160 l5 49 -139 143 c-159 163 -319 358 -436 532 -44 66 -82 122 -84 124 -2 2 -4 -8 -4 -24z"
       id="path340"
       style="fill:#ff9900" />
    <path
       d="M2520 3419 c-32 -49 -85 -167 -78 -174 2 -2 26 24 54 58 42 51 53 72 59 115 4 28 5 52 2 52 -3 0 -19 -23 -37 -51z"
       id="path342"
       style="fill:#990033" />
    <path
       d="M4866 3435 c-9 -25 -7 -63 3 -70 13 -8 33 31 29 57 -4 27 -23 34 -32 13z"
       id="path344"
       style="fill:#ffcc00" />
    <path
       d="M5006 3383 c-15 -113 -116 -253 -214 -297 -48 -22 -51 -33 -27 -114 17 -55 36 -72 82 -72 70 0 164 -68 201 -147 18 -38 44 -46 109 -33 84 15 131 40 178 92 101 113 97 292 -9 373 -94 71 -212 65 -280 -15 -86 -103 -28 -250 98 -250 32 0 36 -3 36 -26 0 -26 -1 -26 -54 -22 -109 9 -171 80 -170 193 1 131 90 219 224 219 84 0 133 -17 188 -67 71 -66 87 -106 87 -217 0 -81 -4 -103 -25 -145 -51 -105 -158 -177 -284 -192 l-50 -6 47 -43 c27 -24 79 -55 120 -73 l74 -30 114 20 c63 11 150 31 195 44 l81 25 26 58 c42 92 59 183 56 298 -3 117 -17 182 -60 274 -43 93 -117 187 -102 131 4 -17 1 -19 -35 -14 -50 7 -109 -12 -117 -38 -4 -12 2 -34 15 -56 11 -19 19 -37 17 -39 -2 -3 -20 2 -39 11 -20 8 -102 33 -183 55 -171 47 -195 58 -251 112 l-41 39 -7 -48z"
       id="path346"
       style="fill:#66cccc" />
    <path
       d="M2720 3416 c0 -20 246 -346 262 -346 39 0 108 67 108 105 0 20 -7 23 -59 29 -107 12 -205 77 -288 191 -12 17 -23 26 -23 21z"
       id="path348"
       style="fill:#ffcc00" />
    <path
       d="M6853 3371 c-139 -52 -245 -172 -279 -319 -12 -49 -11 -54 4 -49 9 3 67 23 129 44 101 35 115 42 141 79 36 50 119 95 133 73 16 -25 10 -38 -23 -52 -18 -8 -39 -22 -47 -31 -13 -15 -11 -16 28 -10 24 4 86 7 139 8 101 1 127 -11 68 -32 -59 -22 -154 -90 -171 -123 -24 -45 -13 -134 18 -151 38 -21 126 -14 183 15 212 108 188 416 -41 535 -68 35 -205 42 -282 13z"
       id="path350"
       style="fill:#ccccff" />
    <path
       d="M2499 3272 c-49 -60 -74 -101 -66 -108 2 -2 32 14 66 37 50 33 61 45 60 67 -1 64 -12 65 -60 4z"
       id="path352"
       style="fill:#990033" />
    <path
       d="M3319 3304 c-12 -15 -8 -21 30 -55 130 -116 357 -112 501 10 49 41 32 48 -26 11 -105 -65 -246 -59 -402 15 -85 40 -85 40 -103 19z"
       id="path354"
       style="fill:#ffff33" />
    <path
       d="M3245 3250 c-26 -17 -29 -24 -26 -62 3 -49 -21 -129 -51 -171 l-20 -27 37 -16 c54 -22 126 -28 171 -14 71 23 124 91 124 159 0 26 -6 32 -47 47 -26 10 -71 38 -100 61 -29 24 -54 43 -55 42 -2 0 -16 -9 -33 -19z"
       id="path356"
       style="fill:#ffcc00" />
    <path
       d="M3874 3248 c-10 -11 -38 -33 -62 -48 l-43 -28 42 -36 c71 -60 138 -60 166 0 l16 33 -44 50 c-24 27 -47 49 -50 50 -3 1 -14 -9 -25 -21z"
       id="path358"
       style="fill:#ffcc00" />
    <path
       d="M1225 3225 c-45 -18 -77 -24 -126 -23 -78 2 -130 -23 -196 -95 -125 -136 -117 -285 20 -342 20 -8 37 -19 37 -23 0 -4 -30 -59 -66 -122 -64 -112 -104 -208 -104 -250 0 -32 28 -92 58 -123 15 -16 54 -42 86 -59 53 -27 63 -29 95 -19 30 9 40 20 58 62 32 73 46 51 15 -23 -50 -123 -39 -229 32 -297 l34 -33 52 47 c55 49 95 70 112 59 7 -4 8 -29 4 -65 -3 -32 -2 -60 2 -63 10 -6 92 30 92 41 0 4 -10 27 -22 50 -24 45 -21 65 15 87 24 15 63 -9 105 -64 19 -25 39 -47 45 -49 22 -8 -3 129 -52 289 -60 198 -75 281 -68 370 8 91 38 152 117 231 82 84 194 209 186 209 -3 0 -38 -19 -77 -42 -204 -122 -374 -306 -455 -493 -27 -63 -44 -82 -44 -50 0 29 79 173 140 253 106 141 261 269 419 345 46 23 79 43 73 45 -19 6 -195 -58 -270 -99 -96 -51 -181 -116 -269 -206 -83 -84 -109 -83 -32 2 121 132 290 241 459 297 l85 28 -60 -6 c-90 -10 -194 -39 -271 -76 -73 -35 -170 -118 -205 -174 -26 -42 -46 -35 -22 8 62 109 232 213 403 248 52 11 110 20 129 20 53 0 33 8 -75 31 -176 37 -296 25 -387 -38 -45 -32 -64 -21 -22 13 90 73 235 86 435 41 184 -42 209 -40 40 3 -348 88 -422 96 -525 55z"
       id="path360"
       style="fill:#ff0066" />
    <path
       d="M3151 3211 c-17 -5 -28 -17 -34 -41 -12 -47 -42 -87 -80 -106 -18 -9 -34 -18 -36 -20 -9 -8 53 -64 70 -64 27 0 80 50 100 95 18 39 26 146 12 144 -5 -1 -19 -4 -32 -8z"
       id="path362"
       style="fill:#ffff33" />
    <path
       d="M2527 3194 c-16 -9 -27 -17 -25 -20 7 -7 68 17 68 27 0 12 -10 11 -43 -7z"
       id="path364"
       style="fill:none" />
    <path
       d="M2508 3151 c-71 -20 -82 -31 -32 -31 21 0 55 -3 75 -6 35 -6 36 -5 32 20 -3 14 -8 28 -12 30 -3 2 -32 -4 -63 -13z"
       id="path366"
       style="fill:#990033" />
    <path
       d="M3707 3153 c-3 -5 -8 -38 -11 -75 l-7 -67 38 -25 c81 -54 195 -72 266 -42 41 17 83 66 92 107 6 26 2 36 -26 65 -18 19 -36 34 -40 34 -4 0 -12 -14 -19 -31 -8 -18 -27 -37 -46 -46 -45 -22 -110 -3 -168 48 -42 37 -70 48 -79 32z"
       id="path368"
       style="fill:#ffff33" />
    <path
       d="M4589 3122 c-53 -28 -54 -30 -51 -68 7 -97 38 -129 141 -141 l50 -6 -15 48 c-8 27 -14 59 -14 72 0 19 -5 23 -30 23 -16 0 -30 5 -30 10 0 6 4 10 8 10 10 0 32 45 32 65 0 23 -32 18 -91 -13z"
       id="path370"
       style="fill:#66cccc" />
    <path
       d="M3506 3097 c-22 -148 -177 -214 -339 -145 -62 27 -84 12 -35 -25 145 -109 333 -127 444 -42 44 34 85 120 91 194 l6 61 -80 0 -81 0 -6 -43z"
       id="path372"
       style="fill:#ffff33" />
    <path
       d="M4506 3131 c-4 -7 -5 -15 -2 -18 9 -9 19 4 14 18 -4 11 -6 11 -12 0z"
       id="path374"
       style="fill:none" />
    <path
       d="M1958 3084 c-116 -28 -219 -101 -292 -207 -21 -30 -57 -68 -81 -85 -30 -21 -51 -48 -73 -94 -39 -79 -48 -154 -31 -250 l13 -73 8 70 c18 159 105 330 233 460 84 85 175 141 285 176 43 14 48 18 25 18 -16 -1 -56 -7 -87 -15z"
       id="path376"
       style="fill:#990033" />
    <path
       d="M2478 3040 c53 -51 153 -120 173 -120 4 0 -8 37 -26 83 l-33 82 -49 7 c-26 3 -66 6 -88 7 l-40 0 63 -59z"
       id="path378"
       style="fill:#990033" />
    <path
       d="M2080 3046 c-119 -93 -208 -228 -251 -381 -28 -98 -31 -288 -7 -372 12 -41 12 -53 3 -53 -40 0 -56 308 -22 430 38 139 126 281 227 366 44 36 44 37 15 30 -16 -3 -72 -27 -123 -52 -72 -35 -109 -61 -165 -117 -141 -139 -229 -325 -230 -482 0 -70 5 -97 47 -215 71 -205 73 -288 5 -312 -16 -5 -34 -19 -40 -29 -22 -43 101 -116 151 -89 24 13 37 36 57 102 18 61 52 98 90 98 43 0 50 -10 57 -80 18 -169 77 -254 146 -210 12 8 13 13 2 27 -48 68 -52 79 -52 143 0 93 68 318 99 328 17 6 14 -10 -14 -72 -60 -135 -81 -277 -50 -336 9 -16 29 -37 46 -46 31 -16 32 -15 68 19 68 64 99 54 81 -28 -6 -26 -9 -49 -7 -51 2 -2 21 14 42 36 35 36 39 45 36 82 -4 61 10 198 20 198 5 0 9 -63 9 -139 0 -120 3 -142 18 -161 14 -17 25 -21 43 -17 30 8 109 63 113 80 15 53 39 107 48 107 6 0 7 -9 3 -22 -25 -83 -18 -112 31 -128 70 -23 156 21 184 94 6 16 8 37 5 47 -8 23 -7 23 38 4 59 -24 107 7 146 95 56 130 33 191 -127 337 -181 165 -335 325 -380 395 -61 94 -92 186 -92 275 0 39 4 83 10 97 8 21 6 26 -13 32 -43 14 -119 -109 -139 -226 -27 -155 38 -391 159 -583 28 -45 21 -64 -9 -27 -35 42 -126 240 -149 325 -18 62 -23 106 -23 200 0 137 17 197 80 279 34 45 34 46 12 46 -28 0 -102 -73 -147 -145 -18 -27 -44 -86 -58 -130 -25 -74 -27 -92 -27 -250 0 -158 2 -176 26 -250 15 -43 25 -81 23 -83 -19 -20 -61 117 -74 243 -23 229 38 444 162 573 l41 42 -44 0 c-38 0 -54 -7 -100 -44z"
       id="path380"
       style="fill:#ff0066" />
    <path
       d="M6973 3065 c-173 -31 -346 -109 -670 -302 -186 -110 -408 -224 -465 -238 -56 -14 -26 -22 35 -9 131 27 271 88 487 213 166 96 271 146 361 171 87 24 89 24 89 7 0 -7 -24 -18 -55 -25 -83 -19 -177 -61 -320 -143 -71 -40 -191 -104 -265 -141 -74 -37 -130 -68 -123 -68 17 0 171 55 336 121 193 77 303 109 405 116 98 7 115 -11 20 -22 -117 -12 -225 -44 -435 -126 -114 -45 -235 -90 -268 -100 -38 -11 -51 -18 -34 -18 14 -1 84 15 155 35 249 69 270 74 346 75 75 1 148 -14 148 -30 0 -17 -12 -18 -48 -5 -56 20 -126 17 -237 -11 -153 -38 -256 -71 -248 -78 3 -4 38 -7 77 -7 81 0 283 -23 383 -44 63 -14 69 -13 95 5 25 18 27 25 25 74 -3 66 18 98 87 136 90 49 91 53 88 190 l-3 121 48 46 c26 26 57 52 68 59 26 15 11 15 -82 -2z"
       id="path382"
       style="fill:#ff9900" />
    <path
       d="M4105 3029 c-4 -17 -20 -46 -37 -65 l-30 -34 30 -25 c17 -14 38 -46 49 -70 12 -30 26 -48 41 -51 49 -13 147 22 187 66 l20 23 -29 21 c-16 11 -71 54 -122 94 -52 39 -96 72 -98 72 -3 0 -7 -14 -11 -31z"
       id="path384"
       style="fill:#ffcc00" />
    <path
       d="M2375 3017 c-11 -57 0 -154 25 -219 45 -120 155 -249 404 -473 123 -111 172 -172 191 -239 28 -97 125 -176 199 -162 40 8 83 51 101 102 13 37 12 40 -17 73 -18 20 -26 37 -20 39 7 2 22 -8 34 -23 46 -52 148 -41 173 19 11 27 11 33 -6 55 -18 23 -25 51 -13 51 3 0 17 -14 31 -31 22 -26 31 -30 57 -25 57 12 116 89 116 152 0 17 -13 39 -38 63 -52 50 -280 251 -285 251 -3 0 -7 -20 -9 -44 -3 -25 -29 -94 -57 -155 -39 -82 -53 -123 -55 -163 -4 -79 -24 -72 -140 52 -122 130 -257 308 -338 445 -33 58 -65 105 -69 105 -17 0 -126 70 -171 110 -27 23 -48 39 -48 35 0 -4 16 -31 36 -61 34 -52 62 -80 114 -116 l25 -17 -23 0 c-30 -1 -121 89 -152 148 -12 24 -23 41 -26 38 -8 -8 33 -125 59 -170 28 -48 103 -121 142 -139 14 -6 25 -15 25 -20 0 -29 -81 22 -142 90 -48 53 -75 107 -98 195 l-18 72 -7 -38z"
       id="path386"
       style="fill:#ff0066" />
    <path
       d="M6625 2993 c-49 -20 -205 -94 -345 -166 -140 -71 -300 -149 -355 -174 -131 -59 -345 -131 -418 -139 -79 -9 -82 -24 -4 -24 210 0 418 77 766 285 193 114 317 182 401 219 73 32 80 36 59 36 -8 -1 -54 -17 -104 -37z"
       id="path388"
       style="fill:#ff9900" />
    <path
       d="M3657 2946 c-14 -31 -14 -36 -1 -47 25 -20 61 -99 73 -160 10 -45 17 -58 34 -63 43 -11 85 -6 117 17 55 37 74 70 78 141 l4 63 -73 6 c-54 5 -90 15 -138 39 -36 18 -69 34 -72 36 -3 1 -13 -13 -22 -32z"
       id="path390"
       style="fill:#ffcc00" />
    <path
       d="M3992 2913 c-8 -3 -11 -16 -6 -39 23 -126 -98 -256 -210 -226 -33 9 -34 9 -40 -22 -7 -34 4 -47 61 -72 141 -61 343 109 303 255 -6 24 -25 53 -50 75 -22 20 -41 36 -43 35 -1 0 -8 -3 -15 -6z"
       id="path392"
       style="fill:#ffff33" />
    <path
       d="M3140 2881 c0 -13 306 -301 321 -301 25 0 70 40 85 76 15 35 19 141 6 161 -5 8 -22 7 -67 -4 -81 -21 -184 -6 -277 40 -38 18 -68 31 -68 28z"
       id="path394"
       style="fill:#ffcc00" />
    <path
       d="M3592 2866 c-20 -20 -21 -26 -11 -55 15 -42 6 -130 -18 -179 -10 -20 -33 -46 -50 -58 l-33 -22 40 -36 c46 -41 71 -44 118 -16 89 54 97 249 15 358 -28 38 -31 38 -61 8z"
       id="path396"
       style="fill:#ffff33" />
    <path
       d="M4367 2836 c-26 -40 -112 -76 -180 -76 -68 0 -75 -19 -11 -33 91 -20 210 9 259 62 19 22 19 22 -10 46 -37 30 -39 30 -58 1z"
       id="path398"
       style="fill:#ffff33" />
    <path
       d="M4456 2775 c-9 -14 -33 -33 -51 -42 -19 -9 -35 -20 -35 -24 0 -5 11 -25 25 -45 14 -21 28 -54 31 -76 6 -38 7 -38 52 -38 66 0 121 20 159 57 53 54 46 70 -60 133 -50 30 -95 56 -98 58 -3 1 -14 -9 -23 -23z"
       id="path400"
       style="fill:#ffcc00" />
    <path
       d="M4105 2670 c-10 -22 -38 -58 -61 -80 l-43 -40 16 -37 c10 -24 17 -67 17 -115 l1 -77 32 -6 c104 -19 219 73 245 196 10 48 9 63 -8 115 -21 65 -8 58 -140 78 -40 6 -41 5 -59 -34z"
       id="path402"
       style="fill:#ffcc00" />
    <path
       d="M4310 2697 c0 -2 7 -24 15 -47 17 -49 19 -129 5 -182 -27 -95 -135 -178 -233 -178 -40 0 -48 -3 -39 -12 7 -7 41 -12 79 -12 79 0 127 21 184 81 89 93 109 208 54 299 -17 27 -38 50 -48 52 -9 2 -17 1 -17 -1z"
       id="path404"
       style="fill:#ffff33" />
    <path
       d="M4683 2623 c-27 -52 -102 -92 -187 -100 -64 -6 -66 -7 -66 -34 0 -23 6 -29 36 -39 59 -20 162 -8 224 26 59 32 87 64 95 109 5 27 2 32 -34 53 -22 12 -42 22 -45 22 -2 0 -13 -16 -23 -37z"
       id="path406"
       style="fill:#ffff33" />
    <path
       d="M4810 2580 c0 -37 -39 -89 -88 -117 -26 -15 -49 -28 -51 -29 -2 -2 8 -17 23 -34 14 -17 26 -36 26 -41 0 -15 63 -10 105 10 47 22 119 91 136 133 6 16 10 30 8 32 -4 2 -114 50 -146 63 -8 3 -13 -3 -13 -17z"
       id="path408"
       style="fill:#ffcc00" />
    <path
       d="M3687 2515 c-21 -25 -49 -48 -63 -51 -13 -3 -24 -9 -24 -13 1 -7 174 -146 213 -169 35 -21 54 -10 85 48 23 47 30 127 12 159 -6 12 -26 21 -58 25 -26 3 -66 15 -87 26 -22 11 -39 20 -40 20 0 -1 -17 -21 -38 -45z"
       id="path410"
       style="fill:#ffcc00" />
    <path
       d="M3947 2528 c-14 -11 -15 -19 -6 -52 6 -22 8 -60 4 -85 -7 -48 -49 -131 -65 -131 -18 0 -10 -18 16 -35 25 -16 27 -16 51 7 60 55 80 165 47 261 -17 51 -21 54 -47 35z"
       id="path412"
       style="fill:#ffff33" />
    <path
       d="M4986 2497 c-10 -43 -87 -118 -151 -148 -33 -16 -68 -29 -77 -29 -11 0 -18 -8 -18 -20 0 -18 7 -20 60 -20 108 0 212 56 249 134 28 58 27 84 -5 96 -39 15 -51 12 -58 -13z"
       id="path414"
       style="fill:#ffff33" />
    <path
       d="M5086 2437 c-8 -29 -27 -64 -41 -77 -14 -13 -25 -27 -25 -31 0 -13 106 17 143 40 32 19 85 87 76 95 -4 3 -118 26 -130 26 -4 0 -15 -24 -23 -53z"
       id="path416"
       style="fill:#ffcc00" />
    <path
       d="M5260 2445 c0 -24 -72 -97 -115 -116 -22 -9 -58 -21 -80 -25 l-40 -7 35 -13 c45 -16 137 -17 181 -3 68 23 134 116 116 163 -9 22 -97 23 -97 1z"
       id="path418"
       style="fill:#ffff33" />
    <path
       d="M5470 2454 c0 -5 5 -27 10 -49 7 -27 6 -58 -1 -95 -9 -46 -19 -63 -60 -103 -46 -44 -49 -50 -49 -100 -1 -28 -8 -70 -16 -92 -8 -22 -17 -59 -20 -83 -2 -23 -5 -48 -7 -54 -1 -8 21 -15 58 -20 79 -10 243 -94 223 -113 -3 -4 -33 7 -67 24 -33 17 -65 31 -70 31 -10 0 -23 -40 -35 -108 l-6 -34 41 7 c22 4 88 23 147 42 59 19 136 37 172 41 l65 7 -110 42 c-106 41 -224 80 -312 103 -44 11 -59 30 -24 30 31 0 218 -58 344 -107 100 -39 117 -49 112 -65 -5 -14 -1 -18 16 -18 12 0 93 -23 178 -52 154 -51 157 -51 276 -50 66 0 156 8 200 16 227 44 480 162 792 368 l202 133 -132 0 c-156 0 -189 9 -489 121 -223 84 -308 106 -505 134 -225 31 -933 65 -933 44z m922 -98 c94 -15 253 -52 271 -63 5 -3 5 -9 0 -14 -6 -6 -46 0 -102 15 -175 47 -319 59 -677 55 -251 -3 -324 -1 -324 8 0 16 141 21 480 17 170 -1 288 -8 352 -18z m258 -146 c186 -9 438 -33 483 -46 9 -3 17 -10 17 -16 0 -7 -18 -9 -52 -4 -287 36 -338 38 -955 44 -485 5 -635 10 -645 20 -15 15 838 17 1152 2z m-1024 -80 c198 -16 383 -37 684 -81 151 -21 365 -51 475 -65 109 -14 201 -27 204 -29 26 -26 -75 -17 -589 56 -409 58 -653 86 -818 94 -130 7 -146 10 -137 25 8 12 21 12 181 0z m-121 -145 c50 -8 205 -26 345 -40 389 -38 543 -64 697 -115 92 -31 98 -34 89 -48 -3 -6 -34 1 -73 15 -149 54 -299 80 -689 118 -239 24 -423 48 -466 61 -21 6 -24 24 -5 24 6 0 53 -7 102 -15z"
       id="path420"
       style="fill:#ff9900" />
    <path
       d="M6777 2435 l-17 -24 40 -11 c23 -6 48 -14 56 -17 30 -11 10 41 -23 59 -18 10 -34 18 -35 18 -2 0 -11 -12 -21 -25z"
       id="path422"
       style="fill:#cc9900" />
    <path
       d="M5384 2423 c-14 -65 -26 -91 -53 -117 -27 -26 -28 -29 -13 -45 10 -9 24 -28 33 -41 l17 -25 32 30 c55 51 75 133 50 199 -14 37 -57 36 -66 -1z"
       id="path424"
       style="fill:#ffff33" />
    <path
       d="M6365 2445 c6 -2 69 -14 140 -25 142 -24 255 -57 442 -130 248 -98 397 -128 529 -109 41 6 74 14 74 18 0 3 -30 7 -68 9 -91 4 -232 33 -420 89 -268 78 -363 103 -477 123 -109 19 -239 34 -220 25z"
       id="path426"
       style="fill:#ff9900" />
    <path
       d="M4396 2401 c-10 -22 -31 -52 -47 -67 -34 -33 -39 -52 -7 -30 33 23 45 20 52 -14 7 -37 19 -38 62 -5 44 34 55 32 84 -14 13 -22 28 -37 33 -34 17 10 1 101 -23 136 -17 25 -35 37 -64 44 -23 6 -48 13 -57 17 -11 5 -20 -4 -33 -33z"
       id="path428"
       style="fill:#ffcc00" />
    <path
       d="M4580 2411 c-17 -5 -21 -9 -13 -14 7 -5 20 -32 28 -61 13 -43 14 -63 5 -98 -10 -39 -9 -48 11 -82 21 -36 22 -36 42 -19 47 43 72 154 46 206 -18 35 -61 77 -78 76 -9 -1 -27 -4 -41 -8z"
       id="path430"
       style="fill:#ffff33" />
    <path
       d="M3670 2320 c0 -42 -21 -80 -69 -123 -27 -25 -51 -37 -70 -37 -23 0 -31 -6 -41 -31 -16 -37 -64 -69 -104 -69 -26 0 -28 -2 -21 -27 24 -101 125 -236 168 -226 12 3 27 10 33 15 25 19 217 48 317 48 104 -1 163 -14 196 -44 26 -23 37 -5 46 74 4 36 14 85 21 110 7 24 12 45 11 46 -1 1 -39 20 -83 42 l-82 41 -16 -44 c-21 -54 -100 -130 -152 -144 -79 -22 -137 -12 -206 36 -42 29 -48 47 -19 62 14 8 22 7 32 -6 19 -22 88 -53 122 -53 36 0 95 25 125 53 26 24 62 88 62 110 0 7 -35 36 -77 63 -43 27 -102 68 -130 91 -29 24 -55 43 -58 43 -3 0 -5 -14 -5 -30z"
       id="path432"
       style="fill:#99ccff" />
    <path
       d="M4967 2294 c-3 -3 8 -27 24 -52 24 -38 29 -57 29 -106 0 -38 -8 -77 -20 -103 -24 -53 -101 -137 -141 -153 -16 -7 -27 -15 -25 -17 3 -3 33 -11 68 -19 l63 -13 38 37 c56 55 88 130 94 221 6 99 -11 150 -58 173 -19 9 -39 22 -46 27 -14 13 -17 13 -26 5z"
       id="path434"
       style="fill:#ffff33" />
    <path
       d="M4270 2270 c-8 -5 -11 -12 -7 -16 4 -4 15 0 24 9 18 18 8 23 -17 7z"
       id="path436"
       style="fill:none" />
    <path
       d="M3983 2231 l-33 -39 64 -36 c35 -20 85 -45 110 -56 l47 -20 10 27 c5 14 23 46 39 70 42 62 34 71 -53 65 -52 -3 -83 0 -111 12 -21 9 -39 16 -40 16 0 0 -16 -18 -33 -39z"
       id="path438"
       style="fill:#ffcc00" />
    <path
       d="M4870 2259 c-19 -5 -57 -8 -84 -7 -47 2 -49 1 -60 -33 -11 -33 -10 -36 31 -82 61 -70 75 -142 47 -235 l-7 -24 41 21 c144 73 202 242 121 345 -22 27 -33 29 -89 15z"
       id="path440"
       style="fill:#ffcc00" />
    <path
       d="M4305 2214 c-53 -56 -98 -142 -121 -233 -15 -61 -15 -174 0 -288 6 -47 73 -167 122 -220 39 -42 46 -45 59 -32 14 13 14 19 -1 47 -8 18 -18 56 -21 86 -5 45 -11 58 -34 75 -40 29 -38 64 5 107 72 72 127 16 76 -79 -11 -20 -20 -51 -20 -68 0 -35 20 -109 29 -108 3 0 20 21 36 46 17 27 46 55 68 66 38 20 50 50 22 61 -25 9 -18 36 9 36 26 0 56 -33 56 -61 0 -25 -38 -67 -63 -71 -20 -3 -87 -86 -87 -108 0 -4 15 -14 33 -21 17 -7 35 -14 38 -16 3 -2 16 22 27 54 12 32 44 86 71 120 122 152 107 297 -60 569 l-51 83 -31 -20 c-42 -25 -82 -24 -101 2 -14 21 -15 20 -61 -27z"
       id="path442"
       style="fill:#ccff00" />
    <path
       d="M5247 2254 c-3 -3 4 -24 15 -46 48 -91 11 -236 -75 -299 -22 -16 -46 -29 -54 -29 -7 0 -13 -4 -13 -10 0 -28 98 5 143 48 64 60 101 184 78 255 -22 65 -69 106 -94 81z"
       id="path444"
       style="fill:#ffff33" />
    <path
       d="M5105 2232 c31 -82 28 -180 -10 -274 l-23 -58 25 0 c119 0 212 224 130 314 -27 30 -133 45 -122 18z"
       id="path446"
       style="fill:#ffcc00" />
    <path
       d="M4686 2134 c-3 -8 1 -29 10 -47 10 -19 17 -60 19 -107 1 -42 5 -82 9 -88 24 -39 66 20 66 93 0 54 -18 100 -53 138 -30 31 -42 34 -51 11z"
       id="path448"
       style="fill:#ffff33" />
    <path
       d="M1571 2125 c0 -5 6 -30 13 -55 8 -25 15 -36 15 -25 -1 21 -27 98 -28 80z"
       id="path450"
       style="fill:none" />
    <path
       d="M4650 2096 c0 -15 34 -78 37 -69 4 11 -23 73 -32 73 -3 0 -5 -2 -5 -4z"
       id="path452"
       style="fill:#ffcc00" />
    <path
       d="M1602 2000 c0 -14 2 -19 5 -12 2 6 2 18 0 25 -3 6 -5 1 -5 -13z"
       id="path454"
       style="fill:none" />
    <path
       d="M2990 1993 c-1 -31 -40 -107 -72 -140 -18 -18 -47 -36 -65 -39 -18 -3 -33 -10 -33 -15 0 -5 9 -37 21 -71 67 -201 222 -397 414 -528 154 -104 305 -161 516 -195 l36 -5 21 58 c27 73 70 139 126 190 l44 40 -52 7 c-75 9 -154 33 -209 63 -126 68 -241 257 -212 348 5 17 0 26 -29 43 -19 12 -54 43 -77 69 -41 46 -99 153 -99 182 0 8 -8 2 -19 -15 -50 -81 -117 -103 -195 -66 -25 13 -59 38 -75 57 -34 39 -41 41 -41 17z"
       id="path456"
       style="fill:#99ccff" />
    <path
       d="M5020 1845 c-23 -24 -23 -25 -3 -25 11 0 35 5 53 11 l33 12 -24 13 c-32 18 -32 18 -59 -11z"
       id="path458"
       style="fill:#ffff33" />
    <path
       d="M5229 1845 c-25 -13 -122 -47 -215 -75 -254 -78 -360 -143 -419 -259 -35 -70 -32 -78 17 -37 23 20 68 46 100 58 40 14 62 29 71 46 6 14 19 30 28 35 46 29 104 -36 80 -90 -11 -24 -15 -25 -62 -20 -68 8 -143 -21 -209 -80 -61 -55 -55 -63 42 -63 83 0 168 17 168 34 0 20 39 66 56 66 23 0 64 -47 64 -73 0 -38 -30 -57 -86 -56 -27 1 -98 -3 -159 -7 l-110 -9 103 -48 c251 -118 437 -114 556 13 81 87 120 188 135 355 6 61 14 120 17 133 6 20 3 22 -30 22 -48 0 -75 15 -89 50 l-12 28 -46 -23z"
       id="path460"
       style="fill:#ccff00" />
    <path
       d="M4758 1775 c-25 -44 -32 -65 -23 -65 8 0 16 4 19 9 5 7 43 22 196 78 11 4 -118 41 -151 43 -3 0 -22 -29 -41 -65z"
       id="path462"
       style="fill:#99ccff" />
    <path
       d="M5358 1833 c7 -3 16 -2 19 1 4 3 -2 6 -13 5 -11 0 -14 -3 -6 -6z"
       id="path464"
       style="fill:none" />
    <path
       d="M3715 1814 c-109 -19 -107 -18 -94 -48 18 -39 4 -76 -32 -83 -27 -5 -30 -9 -24 -32 25 -105 116 -219 212 -265 57 -28 175 -55 246 -56 43 0 157 31 157 43 0 5 -8 6 -18 2 -11 -3 -50 -1 -87 4 -55 8 -72 7 -89 -5 -31 -21 -72 -18 -90 8 -20 29 -20 72 0 92 27 28 104 14 104 -19 0 -7 6 -17 12 -21 16 -10 238 -21 238 -13 0 8 -74 68 -126 103 -35 23 -45 25 -69 16 -41 -16 -93 4 -102 38 -8 32 14 72 47 89 32 16 61 -2 75 -45 5 -18 12 -32 15 -32 3 0 32 -15 63 -34 l56 -34 -59 118 c-62 125 -96 162 -158 180 -51 14 -181 11 -277 -6z"
       id="path466"
       style="fill:#ccff00" />
    <path
       d="M6956 1773 c-101 -51 -228 -97 -352 -129 -92 -23 -131 -28 -250 -28 l-141 -1 -6 -82 c-36 -505 -586 -755 -923 -419 l-71 71 -44 -19 c-67 -30 -206 -34 -300 -8 -41 11 -83 24 -94 28 -11 4 15 -30 58 -75 104 -109 142 -187 142 -286 -1 -57 -6 -80 -27 -117 l-26 -47 59 -56 c125 -115 312 -216 486 -261 145 -38 367 -44 513 -14 451 92 837 459 988 940 48 153 83 428 65 506 l-8 32 -69 -35z"
       id="path468"
       style="fill:#cccccc" />
    <path
       d="M4331 1718 c-21 -22 -19 -38 4 -38 7 0 18 14 24 30 12 35 0 39 -28 8z"
       id="path470"
       style="fill:#ffcc00" />
    <path
       d="M5777 1698 c45 -49 67 -110 67 -183 0 -87 -27 -148 -91 -205 -74 -65 -161 -77 -248 -36 -27 13 -58 32 -68 43 -16 19 -16 21 3 38 19 17 20 17 49 -8 91 -76 209 -52 271 57 32 55 40 128 19 183 -14 39 -58 100 -76 107 -8 4 -58 -7 -109 -24 -52 -16 -104 -30 -117 -30 -36 0 -44 -12 -51 -79 -12 -109 -63 -225 -134 -303 l-34 -37 37 -45 c103 -126 285 -188 448 -152 227 51 406 280 408 523 1 41 -1 77 -4 79 -3 3 -63 25 -134 50 -99 34 -142 44 -192 44 l-64 0 20 -22z"
       id="path472"
       style="fill:#cccccc" />
    <path
       d="M4001 1612 c-12 -22 -6 -32 21 -32 14 0 19 6 16 22 -4 29 -24 34 -37 10z"
       id="path474"
       style="fill:#ffcc00" />
    <path
       d="M4825 1570 c-7 -12 2 -30 16 -30 12 0 12 27 0 35 -5 3 -12 1 -16 -5z"
       id="path476"
       style="fill:#ffcc00" />
    <path
       d="M3926 1441 c-8 -12 3 -41 15 -41 11 0 30 36 22 44 -9 9 -31 7 -37 -3z"
       id="path478"
       style="fill:#ffcc00" />
    <path
       d="M4397 1408 c-45 -16 -50 -89 -7 -116 27 -17 74 7 96 49 15 30 15 33 -3 49 -25 24 -53 30 -86 18z"
       id="path480"
       style="fill:#ff9900" />
    <path
       d="M4874 1399 c-8 -14 11 -33 25 -25 11 7 4 36 -9 36 -5 0 -12 -5 -16 -11z"
       id="path482"
       style="fill:#ffcc00" />
    <path
       d="M4181 1324 c-223 -60 -350 -247 -351 -516 0 -49 3 -88 6 -88 3 0 22 14 44 31 52 42 112 50 145 19 l23 -22 12 23 c7 12 50 64 96 115 46 51 84 95 84 97 0 2 -13 2 -28 -1 -43 -6 -94 41 -90 82 2 24 11 35 35 46 18 8 36 26 41 40 5 14 26 47 47 74 23 30 31 46 20 42 -40 -15 -126 -80 -159 -121 -22 -26 -42 -42 -50 -39 -8 3 -17 0 -21 -6 -8 -13 22 -50 42 -50 7 0 13 -9 13 -20 0 -31 -37 -25 -76 14 -19 19 -34 41 -34 50 0 20 35 56 55 56 9 0 40 25 70 55 36 36 82 68 137 94 l83 41 -45 -1 c-25 0 -69 -7 -99 -15z"
       id="path484"
       style="fill:#ccff00" />
    <path
       d="M4530 1290 c14 -11 28 -20 32 -20 13 0 119 -151 113 -160 -14 -23 -38 -6 -85 59 -56 77 -95 101 -136 82 -17 -7 -24 -17 -20 -29 3 -9 10 -35 15 -58 6 -23 21 -56 34 -75 23 -34 34 -37 89 -24 21 6 29 2 38 -14 14 -28 -12 -85 -52 -115 -27 -19 -28 -19 -48 -1 -11 10 -20 31 -20 47 0 17 -12 44 -29 66 -28 35 -71 143 -71 177 0 30 -19 14 -35 -30 -27 -69 -17 -154 28 -249 68 -144 238 -287 370 -311 35 -7 37 -6 37 17 0 14 -9 33 -20 43 -11 10 -20 24 -20 30 0 24 28 24 50 0 12 -13 36 -28 52 -34 26 -9 30 -8 49 22 10 18 22 42 25 55 12 43 -2 136 -26 186 -24 48 -156 198 -144 164 15 -44 -59 -125 -86 -93 -8 10 -5 19 17 39 24 23 26 29 15 46 -18 29 -15 40 11 40 19 1 14 8 -33 51 -54 49 -145 109 -165 109 -5 0 1 -9 15 -20z"
       id="path486"
       style="fill:#ccff00" />
    <path
       d="M4286 1209 c-15 -17 -34 -45 -42 -61 -15 -28 -14 -31 5 -52 12 -12 21 -31 22 -42 1 -34 20 25 30 95 5 36 14 70 20 78 8 8 8 13 1 13 -6 0 -22 -14 -36 -31z"
       id="path488"
       style="fill:#ccff66" />
    <path
       d="M4170 1070 c-13 -9 -12 -13 9 -30 13 -11 27 -20 31 -20 14 0 21 32 9 46 -13 16 -28 17 -49 4z"
       id="path490"
       style="fill:#cc9900" />
    <path
       d="M4542 1008 c-7 -7 -12 -19 -12 -27 0 -11 4 -10 20 4 21 19 26 35 12 35 -4 0 -13 -5 -20 -12z"
       id="path492"
       style="fill:#cc9900" />
  </g>
</svg>
