<?xml version="1.0" encoding="UTF-8" standalone="no"?>
<svg
   xmlns:dc="http://purl.org/dc/elements/1.1/"
   xmlns:cc="http://creativecommons.org/ns#"
   xmlns:rdf="http://www.w3.org/1999/02/22-rdf-syntax-ns#"
   xmlns:svg="http://www.w3.org/2000/svg"
   xmlns="http://www.w3.org/2000/svg"
   xmlns:sodipodi="http://sodipodi.sourceforge.net/DTD/sodipodi-0.dtd"
   xmlns:inkscape="http://www.inkscape.org/namespaces/inkscape"
   version="1.0"
   width="850.000000pt"
   height="850.000000pt"
   viewBox="0 0 850.000000 850.000000"
   preserveAspectRatio="xMidYMid meet"
   id="svg2"
   inkscape:version="0.91 r13725"
   sodipodi:docname="Oriental_2018916_17.svg">
  <defs
     id="defs518" />
  <sodipodi:namedview
     pagecolor="#ffffff"
     bordercolor="#666666"
     borderopacity="1"
     objecttolerance="10"
     gridtolerance="10"
     guidetolerance="10"
     inkscape:pageopacity="0"
     inkscape:pageshadow="2"
     inkscape:window-width="1920"
     inkscape:window-height="979"
     id="namedview516"
     showgrid="false"
     inkscape:zoom="0.88847059"
     inkscape:cx="684.96209"
     inkscape:cy="716.18267"
     inkscape:window-x="0"
     inkscape:window-y="1"
     inkscape:window-maximized="1"
     inkscape:current-layer="svg2" />
  <metadata
     id="metadata4">
Created by potrace 1.14, written by Peter Selinger 2001-2017
<rdf:RDF>
  <cc:Work
     rdf:about="">
    <dc:format>image/svg+xml</dc:format>
    <dc:type
       rdf:resource="http://purl.org/dc/dcmitype/StillImage" />
  </cc:Work>
</rdf:RDF>
</metadata>
  <g
     transform="translate(0.000000,850.000000) scale(0.100000,-0.100000)"
     fill="#000000"
     stroke="none"
     id="g6">
    <path
       d="M0 4250 l0 -4250 4250 0 4250 0 0 4250 0 4250 -4250 0 -4250 0 0 -4250z m2288 4180 c271 -77 490 -288 574 -553 l31 -97 -26 -58 c-36 -82 -51 -169 -44 -265 5 -66 20 -139 32 -155 1 -1 9 0 18 4 14 5 14 11 1 52 -19 64 -18 215 2 283 78 263 345 428 627 389 124 -18 257 -73 340 -141 l37 -31 -57 -42 c-67 -50 -149 -134 -182 -188 -12 -21 -24 -38 -26 -38 -2 0 -21 16 -42 35 -124 115 -340 94 -418 -40 -45 -75 -50 -147 -19 -229 4 -10 -15 -15 -73 -20 -43 -3 -95 -11 -116 -17 -32 -9 -36 -12 -27 -29 9 -17 14 -18 38 -8 39 16 218 16 277 -1 232 -64 402 -281 422 -533 5 -71 8 -78 27 -78 25 0 86 -35 86 -50 0 -22 52 -8 99 25 69 50 154 85 246 101 198 35 362 3 511 -98 28 -19 67 -38 85 -41 l34 -6 -45 40 c-67 59 -209 126 -311 146 l-85 17 61 58 c136 127 180 304 112 452 -49 106 -143 181 -256 205 -111 23 -229 -27 -296 -124 -35 -50 -40 -65 -43 -126 -6 -91 15 -146 73 -197 103 -91 239 -79 306 26 54 85 33 187 -49 235 -30 18 -32 18 -39 2 -4 -11 0 -21 12 -28 46 -25 65 -59 65 -113 0 -58 -27 -102 -81 -129 -63 -33 -165 -6 -212 57 -69 90 -56 203 34 290 88 86 190 98 312 35 200 -104 223 -375 47 -547 -65 -64 -125 -93 -229 -111 -216 -37 -438 112 -517 348 -23 69 -26 89 -21 178 3 71 11 117 27 159 60 156 170 283 305 352 100 52 134 63 229 73 357 40 715 -213 819 -579 48 -168 42 -322 -20 -510 -64 -196 -73 -238 -56 -244 21 -8 21 -8 39 65 22 89 103 252 161 324 94 116 228 202 373 241 98 26 264 24 360 -5 181 -55 326 -170 393 -311 42 -90 57 -156 57 -253 0 -134 -55 -272 -146 -366 -30 -30 -54 -61 -54 -68 0 -28 30 -10 86 50 99 106 154 246 154 397 l0 76 54 64 c123 149 291 252 482 296 111 27 300 24 409 -5 282 -74 493 -269 571 -527 26 -83 26 -285 0 -368 -68 -227 -216 -382 -421 -441 -45 -13 -84 -16 -172 -13 l-113 4 -26 -33 c-32 -42 -97 -80 -151 -89 -24 -3 -43 -8 -43 -10 0 -2 12 -21 28 -43 15 -21 36 -58 47 -82 10 -24 20 -46 21 -47 2 -2 32 8 68 22 125 50 289 44 414 -15 34 -17 67 -27 72 -24 6 3 10 1 10 -4 0 -6 29 -39 63 -74 110 -107 166 -251 166 -422 0 -96 -13 -167 -49 -255 -34 -84 -60 -174 -47 -161 19 19 24 13 43 -61 29 -112 25 -269 -9 -378 -40 -131 -124 -258 -213 -323 -46 -34 -54 -61 -32 -97 10 -16 10 -24 1 -40 -13 -20 -2 -37 16 -25 5 3 21 0 35 -7 26 -11 43 -46 33 -71 -3 -7 1 -21 9 -32 18 -24 18 -30 -3 -51 -10 -10 -16 -29 -15 -44 2 -15 -3 -34 -11 -42 -10 -10 -12 -20 -6 -30 9 -17 2 -48 -10 -48 -4 0 -6 -14 -3 -30 5 -38 -21 -70 -57 -70 -19 0 -22 -3 -13 -12 7 -7 12 -29 12 -50 0 -33 -4 -38 -27 -44 -16 -4 -34 -16 -41 -26 -7 -10 -24 -18 -38 -18 -28 0 -28 -1 -13 -34 9 -20 9 -29 -2 -42 -7 -9 -14 -23 -16 -32 -1 -9 -10 -22 -19 -29 -15 -11 -12 -17 35 -62 29 -27 70 -57 91 -66 22 -10 49 -28 61 -41 21 -22 21 -26 7 -40 -9 -9 -32 -16 -51 -17 l-36 -1 40 -44 c70 -75 105 -191 79 -257 l-12 -30 -11 31 c-7 17 -28 45 -48 62 -33 29 -39 30 -66 20 -26 -10 -35 -9 -57 5 -31 21 -36 21 -36 3 0 -7 -6 -19 -14 -25 -19 -16 -57 0 -109 49 -24 22 -47 37 -50 33 -12 -12 -7 -20 19 -31 15 -7 33 -30 45 -57 11 -25 25 -45 32 -45 41 0 126 -113 142 -188 8 -40 -10 -89 -36 -97 -17 -6 -17 -8 4 -48 43 -82 25 -173 -40 -198 -15 -5 -23 -17 -23 -31 0 -34 -35 -150 -65 -215 -44 -96 -130 -214 -217 -299 -75 -73 -205 -174 -223 -174 -4 0 15 24 42 54 27 29 65 84 85 122 36 67 78 198 78 239 0 17 -4 15 -26 -13 -42 -52 -144 -104 -144 -72 0 6 6 13 14 16 25 10 86 108 112 180 24 65 24 69 7 82 -14 10 -19 30 -22 95 -2 57 -8 85 -18 92 -19 14 -28 95 -15 133 9 27 8 30 -13 34 -28 6 -50 -5 -41 -20 3 -6 1 -34 -5 -63 -12 -54 -61 -119 -91 -119 -7 0 -35 -34 -62 -75 -122 -189 -293 -283 -496 -273 -158 7 -286 92 -358 237 -36 72 -37 79 -37 180 0 96 3 111 27 156 76 144 242 217 390 173 46 -13 122 -77 144 -120 15 -28 16 -29 29 -11 11 15 11 22 -3 46 -25 42 -79 87 -140 114 -46 22 -65 24 -135 21 -144 -6 -257 -79 -320 -207 -30 -62 -32 -71 -32 -176 1 -97 4 -117 27 -167 38 -81 82 -142 131 -180 23 -18 43 -42 43 -53 1 -11 11 -56 23 -100 31 -113 39 -328 18 -450 -73 -416 -353 -750 -737 -879 -339 -113 -735 3 -965 283 -58 71 -125 189 -149 261 -66 199 -40 423 70 601 41 67 54 100 37 98 -5 0 -25 -35 -45 -78 -20 -42 -54 -98 -74 -125 -30 -39 -39 -63 -52 -138 l-17 -91 -50 -23 c-179 -81 -417 -94 -615 -33 -147 46 -259 114 -373 226 -129 128 -203 267 -234 437 -15 84 -15 110 -5 192 26 204 138 394 300 506 44 30 47 35 34 56 -15 23 -167 -103 -227 -188 -11 -16 -15 -19 -11 -6 38 110 33 182 -20 283 -56 110 -126 154 -241 154 -80 0 -138 -26 -192 -87 -70 -80 -75 -177 -14 -266 64 -94 205 -103 276 -18 49 57 45 150 -7 199 -33 31 -106 40 -141 17 -21 -14 -24 -20 -15 -31 9 -11 17 -12 30 -5 37 20 77 12 104 -21 86 -101 -61 -232 -175 -156 -68 45 -92 147 -52 223 31 61 91 97 167 102 111 7 182 -33 234 -132 22 -43 27 -64 27 -131 0 -59 -5 -89 -19 -115 -35 -66 -84 -116 -148 -151 -60 -33 -67 -34 -168 -34 -123 0 -168 17 -254 96 -92 84 -136 190 -136 331 0 98 22 172 73 248 27 40 30 52 28 108 -3 79 18 154 74 259 l43 82 -52 12 c-63 14 -85 5 -164 -66 -75 -68 -113 -152 -119 -264 -5 -102 -8 -112 -26 -105 -16 6 -30 47 -47 140 -11 54 -15 61 -35 62 -13 0 -37 9 -53 21 -96 68 -87 240 24 438 l36 65 -27 81 c-46 139 -44 256 6 414 20 62 75 149 133 212 l31 34 -31 -21 c-104 -71 -194 -250 -209 -414 l-7 -77 -67 -67 c-285 -286 -722 -345 -1064 -143 -246 146 -378 365 -377 628 1 201 70 363 213 499 301 286 824 138 889 -251 30 -179 -66 -373 -220 -445 -49 -23 -70 -27 -147 -27 -108 0 -159 20 -234 90 -120 112 -118 297 3 401 130 112 336 31 336 -132 0 -110 -101 -183 -193 -139 -35 16 -57 14 -57 -6 0 -12 78 -49 105 -49 68 0 143 51 171 118 8 19 14 58 14 87 0 68 -44 136 -114 179 -42 27 -58 30 -120 30 -83 0 -130 -21 -188 -81 -132 -136 -105 -361 56 -472 184 -127 432 -74 555 117 54 84 74 155 74 262 0 78 -4 107 -25 163 l-26 67 71 66 c40 36 106 89 149 117 79 53 83 59 72 116 l-7 32 -24 -35 c-62 -92 -123 -59 -123 67 0 20 -2 37 -5 37 -3 0 -26 -16 -51 -35 -26 -20 -52 -34 -58 -32 -20 6 -37 51 -34 89 3 33 1 37 -24 42 -18 4 -30 13 -34 30 -5 23 -9 24 -98 25 -363 2 -687 232 -775 551 -26 93 -29 262 -5 354 37 147 142 304 254 379 39 26 46 36 39 52 -13 33 -10 45 16 70 21 22 33 25 91 25 59 0 65 2 59 18 -4 9 -9 33 -12 53 -4 31 -1 39 23 58 41 33 131 25 208 -17 31 -16 56 -25 56 -20 0 6 -24 36 -52 67 -61 66 -95 126 -104 182 -7 41 10 98 30 100 23 3 42 -3 59 -18 16 -15 17 -14 17 3 0 11 -4 35 -10 54 -8 26 -7 38 4 48 21 21 69 -6 159 -89 41 -38 77 -69 79 -69 2 0 -13 34 -33 75 -62 129 -70 221 -21 277 18 22 29 16 46 -25 l13 -32 7 40 c11 60 13 65 42 75 32 13 110 -20 164 -67 l35 -31 -3 57 c-3 46 2 66 27 116 17 33 26 61 21 63 -32 11 -133 88 -176 134 -55 58 -89 117 -120 208 -30 86 -27 301 4 395 82 246 284 417 548 465 82 15 289 4 372 -20z m2817 -325 c223 -57 407 -243 459 -465 27 -112 19 -242 -20 -347 -15 -38 -20 -42 -68 -53 -137 -32 -252 -95 -356 -196 -37 -35 -70 -60 -76 -56 -7 4 -11 51 -12 118 l0 111 49 6 c58 7 123 47 156 96 88 131 26 323 -127 395 -65 30 -186 29 -257 -3 l-51 -23 -71 60 c-75 63 -167 116 -265 153 l-60 22 40 33 c45 39 166 104 239 129 131 45 292 52 420 20z m-31 -417 c59 -18 138 -99 155 -160 37 -132 -29 -247 -156 -271 -34 -7 -63 11 -63 39 0 8 -16 58 -36 110 -19 53 -33 98 -31 101 3 3 23 11 44 18 46 16 52 41 8 37 -16 -2 -42 -9 -57 -17 -16 -7 -28 -10 -28 -7 0 4 -18 31 -41 61 -22 29 -37 57 -32 62 34 34 163 49 237 27z m-1591 -48 c24 -12 59 -36 77 -55 l33 -34 -28 -97 c-25 -88 -27 -108 -22 -200 3 -56 3 -104 0 -108 -3 -3 -29 15 -57 41 -28 25 -61 50 -72 55 -21 10 -20 12 21 52 35 33 45 50 50 88 8 52 2 70 -20 61 -9 -3 -15 -18 -15 -37 0 -42 -34 -94 -71 -110 -28 -12 -40 -10 -103 11 -83 28 -112 56 -121 116 -13 86 33 174 114 217 51 27 157 27 214 0z m-653 -5660 c0 -5 -5 -10 -11 -10 -5 0 -7 5 -4 10 3 6 8 10 11 10 2 0 4 -4 4 -10z"
       id="path8"
       style="fill:#000033" />
    <path
       d="M1885 8017 c-98 -33 -169 -106 -199 -207 -20 -67 -20 -102 -1 -166 31 -105 124 -174 235 -174 130 0 217 89 208 212 -7 94 -60 148 -153 156 -30 2 -55 1 -55 -4 1 -21 17 -30 53 -31 51 -1 85 -26 108 -79 67 -150 -118 -280 -267 -189 -71 44 -107 116 -101 205 10 149 122 253 277 254 129 1 249 -74 307 -192 26 -52 28 -67 28 -167 0 -98 -3 -116 -27 -167 -51 -109 -135 -192 -227 -225 l-47 -16 18 -66 c10 -36 18 -75 18 -88 0 -12 7 -28 15 -37 8 -8 15 -26 15 -40 0 -14 4 -26 9 -26 15 0 31 60 31 117 0 105 89 278 156 303 49 19 90 159 81 280 -10 144 -89 265 -214 326 -46 23 -73 29 -142 31 -52 2 -102 -2 -126 -10z"
       id="path10"
       style="fill:#000066" />
    <path
       d="M2251 7335 c-53 -61 -101 -177 -101 -245 0 -44 14 -65 121 -176 43 -44 83 -94 90 -110 l11 -29 17 55 c31 96 61 158 78 156 19 -1 43 71 43 131 0 44 -53 208 -76 232 -11 12 -20 7 -60 -37 -75 -83 -102 -65 -59 41 13 31 -31 19 -64 -18z"
       id="path12"
       style="fill:#ffccff" />
    <path
       d="M1760 7296 c-73 -53 -130 -150 -130 -221 0 -43 21 -86 53 -112 13 -10 26 -26 30 -35 11 -30 26 -20 33 22 8 49 19 51 37 7 12 -28 164 -177 181 -177 3 0 6 9 6 20 0 10 18 54 41 97 38 72 40 81 34 133 -15 124 -65 260 -101 274 -18 7 -54 -19 -54 -39 0 -24 -57 -76 -75 -69 -14 6 -16 18 -13 70 2 35 4 64 3 64 0 0 -20 -15 -45 -34z"
       id="path14"
       style="fill:#ffccff" />
    <path
       d="M2745 7301 c-53 -33 -94 -96 -124 -194 -19 -59 -38 -187 -28 -187 2 0 27 23 55 51 28 28 55 48 60 45 5 -3 7 -19 4 -36 -5 -37 11 -39 35 -4 l17 27 12 -69 c7 -38 13 -93 13 -122 l1 -53 29 22 c20 15 33 36 41 68 6 25 25 76 42 113 29 65 30 71 26 170 -5 93 -20 158 -38 158 -3 0 -19 -13 -35 -30 -41 -43 -55 -39 -55 15 0 51 -9 55 -55 26z"
       id="path16"
       style="fill:#ffccff" />
    <path
       d="M3102 7174 c-32 -16 -67 -45 -93 -77 -46 -57 -115 -193 -125 -246 -7 -32 -6 -33 15 -21 31 16 35 8 17 -28 -8 -16 -18 -49 -21 -73 l-6 -44 19 23 c11 12 27 22 35 22 9 0 17 4 19 10 5 16 160 130 169 124 5 -2 4 -16 -2 -31 -12 -33 -9 -36 24 -20 56 26 113 229 77 272 -12 14 -16 13 -41 -11 -56 -53 -86 -10 -50 72 12 26 20 49 18 50 -2 2 -27 -8 -55 -22z"
       id="path18"
       style="fill:#ffccff" />
    <path
       d="M1405 7078 c-2 -7 -6 -29 -9 -49 -4 -21 -13 -42 -21 -49 -12 -10 -18 -7 -32 19 -23 40 -31 39 -39 -5 -12 -64 4 -126 64 -244 57 -112 58 -115 97 -121 52 -9 141 -44 177 -71 16 -11 31 -18 34 -16 2 3 -11 16 -31 29 -49 33 -75 91 -75 167 0 70 14 112 55 160 26 31 26 34 11 57 -19 29 -95 94 -139 118 -37 20 -86 23 -92 5z"
       id="path20"
       style="fill:#ffccff" />
    <path
       d="M2140 7008 c0 -9 -8 -26 -19 -39 -15 -19 -22 -21 -33 -11 -12 10 -22 -2 -58 -72 -41 -80 -43 -87 -38 -150 6 -71 45 -150 100 -203 l28 -27 0 65 c0 100 35 292 52 287 5 -2 19 -28 31 -58 26 -62 47 -77 47 -31 0 51 26 37 58 -31 16 -35 33 -76 38 -93 8 -27 9 -25 12 25 6 96 -12 133 -112 239 -49 53 -93 100 -98 106 -5 5 -8 2 -8 -7z m-53 -203 c20 -57 28 -145 14 -145 -6 0 -11 10 -11 23 0 23 -22 115 -36 151 -5 13 -3 17 6 14 7 -2 19 -22 27 -43z"
       id="path22"
       style="fill:#ff66ff" />
    <path
       d="M2654 6948 c-34 -36 -57 -76 -80 -142 -12 -32 -14 -65 -8 -151 8 -119 7 -120 49 15 26 82 39 109 49 99 3 -3 -10 -52 -29 -109 -19 -57 -33 -105 -32 -107 2 -2 18 16 35 40 17 23 53 66 81 96 47 49 51 58 51 102 0 26 -5 71 -11 99 -9 42 -13 49 -25 39 -17 -14 -41 2 -46 32 -3 18 -6 17 -34 -13z"
       id="path24"
       style="fill:#ff66ff" />
    <path
       d="M3450 6964 c-89 -23 -216 -89 -236 -121 -9 -15 -25 -39 -34 -53 -10 -15 -20 -57 -24 -104 -4 -44 -13 -94 -21 -113 -9 -21 -10 -33 -3 -33 6 0 8 -12 5 -30 -4 -16 -5 -30 -2 -30 2 0 23 13 47 28 24 16 81 44 127 62 46 18 102 47 124 64 53 41 112 112 132 159 l15 37 -40 0 c-50 0 -52 15 -9 75 52 72 29 88 -81 59z"
       id="path26"
       style="fill:#ffccff" />
    <path
       d="M1760 6917 c0 -8 -7 -20 -15 -27 -13 -11 -20 -9 -40 10 l-25 23 -24 -23 c-40 -36 -66 -103 -66 -165 0 -62 15 -98 55 -135 25 -22 27 -23 22 -5 -25 85 -19 106 20 75 32 -25 56 -11 47 26 -4 17 -2 24 7 24 25 0 163 -37 203 -54 21 -9 40 -16 41 -16 1 0 -3 19 -9 43 -8 29 -27 57 -62 92 -104 103 -154 145 -154 132z"
       id="path28"
       style="fill:#ff66ff" />
    <path
       d="M2560 6890 c0 -18 4 -29 10 -25 6 3 10 15 10 25 0 10 -4 22 -10 25 -6 4 -10 -7 -10 -25z"
       id="path30"
       style="fill:none" />
    <path
       d="M2431 6885 c-36 -85 -44 -143 -48 -340 -3 -117 -1 -215 5 -235 9 -30 10 -24 11 50 1 88 21 185 42 204 9 8 10 4 5 -19 -27 -129 -33 -247 -16 -276 11 -17 45 21 60 67 7 22 23 60 36 86 20 39 24 63 24 136 0 49 -5 115 -10 148 -6 32 -13 74 -16 93 -5 33 -6 33 -20 12 -32 -44 -50 -24 -57 64 l-3 40 -13 -30z"
       id="path32"
       style="fill:#ff33ff" />
    <path
       d="M5600 6833 c-134 -47 -230 -182 -230 -327 0 -48 0 -49 20 -31 12 11 20 31 20 51 0 87 80 212 164 257 55 29 184 31 236 3 45 -24 98 -73 118 -111 34 -66 15 -182 -40 -237 -16 -16 -18 -22 -7 -29 22 -14 26 -11 54 25 81 107 57 269 -53 353 -78 59 -191 78 -282 46z"
       id="path34"
       style="fill:#000099" />
    <path
       d="M1140 6826 c0 -7 5 -28 11 -45 9 -27 9 -36 -4 -48 -13 -14 -18 -13 -47 3 -31 19 -32 19 -46 -1 -32 -43 4 -137 89 -230 31 -35 51 -49 73 -50 16 -1 36 -3 44 -6 11 -3 14 7 15 46 l0 50 35 0 c19 0 47 -4 61 -8 24 -6 26 -4 21 19 -4 20 0 26 18 31 20 5 14 14 -62 90 -88 89 -177 163 -196 163 -7 0 -12 -6 -12 -14z"
       id="path36"
       style="fill:#ffccff" />
    <path
       d="M3049 6785 c-62 -45 -118 -112 -123 -149 -17 -111 -18 -106 17 -107 18 -1 43 -4 57 -9 20 -6 32 -1 63 29 32 30 37 32 38 16 1 -45 28 59 35 135 5 64 4 80 -6 78 -8 -2 -18 7 -25 19 -11 21 -11 21 -56 -12z"
       id="path38"
       style="fill:#ff66ff" />
    <path
       d="M2161 6749 c-22 -100 -25 -238 -7 -307 24 -93 91 -185 152 -209 16 -6 15 -2 -4 25 -23 31 -61 177 -49 188 13 14 27 -10 27 -47 0 -22 9 -62 21 -88 18 -44 22 -48 42 -38 21 10 22 13 15 126 -8 131 -18 194 -46 274 -25 69 -41 99 -42 76 0 -9 -7 -22 -15 -29 -19 -16 -39 -1 -64 49 l-18 35 -12 -55z"
       id="path40"
       style="fill:#ff33ff" />
    <path
       d="M2839 6768 c-56 -40 -134 -119 -194 -197 -47 -62 -142 -231 -130 -231 4 0 23 15 43 33 124 114 145 131 149 121 2 -7 27 -2 71 13 37 12 77 23 89 23 18 0 23 7 28 48 3 26 8 57 10 69 4 17 1 20 -15 16 -18 -5 -20 0 -20 35 0 22 5 53 10 68 6 15 9 28 7 30 -2 2 -24 -10 -48 -28z"
       id="path42"
       style="fill:#ff33ff" />
    <path
       d="M1760 6676 c0 -26 -31 -48 -57 -41 -23 5 -24 4 -18 -27 22 -100 77 -200 145 -261 91 -81 267 -137 383 -121 l45 6 -37 37 c-30 31 -47 39 -105 50 -38 6 -91 23 -118 37 -57 29 -130 92 -122 105 3 6 23 -6 44 -25 22 -20 61 -46 87 -59 49 -25 150 -53 159 -45 2 3 -2 18 -11 34 -8 16 -18 43 -21 60 -3 16 -28 56 -55 88 -27 32 -54 66 -59 76 -13 24 -103 68 -176 85 -75 18 -84 18 -84 1z"
       id="path44"
       style="fill:#ff33ff" />
    <path
       d="M3620 6643 c-43 -9 -121 -43 -169 -75 -25 -17 -47 -32 -48 -32 -1 -1 -4 -13 -8 -28 l-7 -28 83 39 c46 22 128 50 181 63 54 12 98 27 98 31 0 11 -65 37 -87 36 -10 -1 -29 -4 -43 -6z"
       id="path46"
       style="fill:#ffccff" />
    <path
       d="M7044 6615 c-114 -25 -190 -78 -255 -178 -53 -82 -73 -153 -73 -264 0 -86 1 -94 30 -135 33 -46 59 -110 69 -171 l6 -38 30 22 30 21 -32 36 c-43 49 -78 128 -91 207 -28 169 63 362 204 433 165 82 368 22 451 -133 17 -31 22 -58 22 -120 0 -88 -14 -125 -69 -183 -46 -49 -83 -65 -151 -66 -168 -1 -260 163 -159 283 39 47 120 61 162 28 9 -7 18 -6 29 5 14 15 12 18 -18 34 -75 39 -175 11 -220 -63 -119 -192 103 -403 315 -299 98 48 149 136 150 261 0 67 -4 89 -27 137 -47 96 -132 157 -256 184 -77 16 -69 16 -147 -1z"
       id="path48"
       style="fill:#000099" />
    <path
       d="M5592 6595 c-18 -40 -15 -65 8 -65 14 0 20 7 20 23 0 13 5 28 11 34 6 6 8 16 5 22 -12 19 -32 12 -44 -14z"
       id="path50"
       style="fill:#000099" />
    <path
       d="M1467 6588 c-3 -11 -15 -22 -26 -25 -65 -17 36 -215 136 -266 22 -12 46 -14 103 -8 l75 7 -97 63 c-87 56 -115 81 -90 81 4 0 58 -33 120 -74 63 -41 130 -77 150 -81 l37 -7 -49 43 c-26 23 -69 74 -95 113 -52 80 -108 123 -200 154 -59 20 -59 20 -64 0z"
       id="path52"
       style="fill:#ff66ff" />
    <path
       d="M3704 6560 c-174 -37 -369 -136 -469 -239 -21 -23 -43 -41 -47 -41 -4 0 -19 24 -33 54 -56 118 -169 179 -293 158 -176 -30 -348 -166 -430 -342 -30 -64 -35 -86 -36 -150 -1 -84 12 -118 69 -174 40 -40 101 -61 137 -47 20 7 188 166 188 177 0 2 -6 4 -14 4 -8 0 -24 12 -35 26 -78 100 81 333 227 334 18 0 46 -7 62 -15 32 -17 76 -70 82 -99 5 -30 -19 -30 -35 1 -42 80 -109 97 -192 48 -67 -39 -132 -137 -134 -203 -1 -27 40 -72 66 -72 11 0 46 26 79 59 65 63 131 95 222 107 54 7 188 -12 198 -28 10 -16 -16 -34 -76 -53 -181 -57 -346 -196 -427 -360 -43 -86 -39 -94 18 -36 138 137 294 200 460 187 86 -7 142 -23 136 -39 -2 -6 -61 -35 -133 -64 -222 -90 -313 -143 -396 -231 -74 -78 -108 -146 -115 -233 -3 -38 -11 -72 -16 -76 -6 -3 -21 7 -34 23 l-23 29 0 -55 c0 -30 3 -92 7 -138 l6 -83 16 33 c26 55 132 154 179 169 32 9 45 10 54 1 9 -9 -2 -26 -44 -70 -108 -113 -138 -185 -104 -250 8 -15 42 -51 75 -81 68 -58 91 -94 91 -141 0 -28 3 -31 23 -25 12 4 33 20 45 36 49 61 142 80 182 37 11 -12 20 -27 20 -32 0 -6 14 -19 31 -28 16 -10 35 -31 40 -48 7 -18 18 -30 28 -30 28 0 51 -33 51 -74 0 -32 3 -37 18 -31 9 3 37 11 62 17 25 6 54 14 65 19 18 7 18 8 -5 9 -101 3 -225 128 -244 246 l-7 40 -58 -4 c-98 -7 -151 39 -151 133 0 28 4 35 20 35 17 0 20 -7 20 -43 0 -75 38 -102 128 -90 37 5 42 9 42 30 0 14 -14 41 -30 60 -17 19 -33 47 -36 62 -4 18 -18 34 -41 46 -65 36 -126 125 -139 204 -7 45 1 50 51 31 24 -9 26 -8 20 12 -19 66 -49 109 -86 129 -22 11 -37 24 -34 29 18 29 196 -10 273 -59 27 -17 58 -31 70 -31 36 0 76 -20 113 -56 l36 -35 6 28 c3 16 15 40 25 53 18 22 22 23 37 10 22 -19 65 -86 65 -102 0 -7 4 -20 10 -28 7 -12 12 -12 29 4 34 31 48 15 43 -46 -6 -71 11 -102 90 -170 135 -115 159 -154 93 -146 l-35 4 0 -61 c0 -122 -51 -219 -138 -261 l-37 -19 80 -6 c116 -9 165 -19 165 -33 0 -10 -37 -12 -170 -8 -139 4 -183 2 -242 -13 -80 -19 -165 -60 -220 -105 -48 -39 -88 -121 -88 -178 0 -168 207 -183 430 -32 46 31 65 39 73 31 9 -9 4 -18 -18 -36 -54 -44 -219 -122 -273 -130 l-52 -7 0 -45 c0 -36 6 -50 29 -74 35 -35 76 -38 140 -9 41 19 61 19 61 0 0 -4 -19 -18 -43 -29 -46 -22 -141 -29 -152 -11 -3 6 -10 10 -16 10 -19 0 23 -77 65 -117 89 -85 236 -89 342 -8 37 28 44 24 44 -24 0 -48 22 -78 69 -92 78 -23 209 27 278 106 23 25 46 45 53 45 6 0 32 -22 55 -48 59 -65 147 -105 233 -106 58 -1 66 2 88 27 16 19 24 40 24 66 0 21 3 40 6 44 3 3 29 -9 58 -28 115 -75 247 -64 332 27 28 29 64 87 64 103 0 3 -9 1 -19 -5 -32 -17 -108 -12 -156 11 -25 12 -45 25 -45 30 0 18 20 18 61 -1 64 -29 105 -26 140 9 23 24 29 38 29 74 l0 45 -47 7 c-26 4 -77 20 -113 36 -73 33 -190 107 -190 120 0 21 24 17 63 -10 151 -104 300 -141 387 -96 66 34 80 135 30 221 -48 85 -144 147 -278 179 -59 15 -102 17 -242 13 -130 -4 -170 -2 -170 7 0 16 41 24 159 32 l93 6 -38 19 c-90 44 -136 122 -142 243 l-4 81 -34 -4 c-25 -3 -34 0 -34 11 0 18 59 79 122 127 26 19 58 53 73 75 23 34 26 48 23 99 -5 65 9 81 42 51 11 -10 22 -16 23 -14 2 2 15 29 30 60 15 31 36 64 48 75 21 19 21 19 45 -11 13 -17 24 -40 24 -52 0 -30 6 -29 36 6 27 32 81 61 115 61 12 0 43 13 69 30 56 36 123 58 206 66 74 8 92 -8 40 -32 -33 -16 -73 -74 -91 -132 -6 -20 -4 -21 20 -12 50 19 58 14 52 -30 -10 -75 -65 -159 -133 -201 -19 -11 -43 -41 -58 -73 -15 -30 -33 -57 -41 -60 -9 -3 -15 -18 -15 -34 0 -27 4 -30 42 -35 52 -7 94 1 110 20 7 9 15 36 18 62 4 33 10 47 23 49 14 3 17 -4 17 -33 0 -93 -53 -140 -151 -133 l-57 4 -6 -38 c-9 -56 -42 -121 -83 -163 -39 -41 -123 -84 -163 -86 -23 0 -23 -1 -5 -8 11 -5 40 -13 65 -19 25 -6 53 -14 63 -17 14 -6 17 -1 17 27 0 40 24 78 50 78 11 0 22 11 29 30 5 17 24 38 40 48 17 9 31 22 31 28 0 24 47 54 84 54 48 0 106 -27 106 -49 0 -10 15 -25 35 -34 45 -22 45 -22 45 7 0 47 21 80 100 157 74 72 80 80 80 119 0 56 -29 108 -106 190 -64 68 -73 90 -33 90 54 0 173 -99 207 -172 9 -20 19 -38 22 -38 3 0 6 62 8 138 l3 137 -22 -27 c-11 -16 -24 -28 -29 -28 -4 0 -13 34 -19 76 -30 200 -159 322 -489 457 -84 34 -153 66 -155 72 -5 24 59 39 173 39 102 0 122 -3 178 -26 93 -39 167 -86 234 -150 33 -32 62 -58 64 -58 2 0 -14 36 -36 79 -87 174 -242 306 -430 366 -60 19 -86 37 -76 53 10 16 144 35 198 28 91 -12 157 -44 222 -107 33 -33 68 -59 79 -59 26 0 67 45 67 73 0 62 -68 163 -135 203 -68 39 -120 37 -159 -8 -17 -19 -36 -43 -42 -54 -8 -13 -15 -16 -23 -9 -15 15 27 84 68 112 66 45 154 22 235 -61 82 -85 110 -192 65 -250 -11 -14 -27 -26 -35 -26 -8 0 -14 -1 -14 -3 0 -2 36 -40 80 -84 100 -101 131 -114 196 -82 49 23 96 79 115 136 14 44 6 134 -17 195 -28 70 -101 174 -162 228 -73 65 -198 128 -282 142 -126 21 -230 -34 -291 -154 -16 -32 -33 -58 -37 -58 -5 0 -24 16 -43 36 -116 120 -296 210 -500 249 -105 20 -297 19 -415 -1 -86 -15 -102 -15 -188 0 -128 22 -325 20 -442 -4z m325 -40 c66 -11 124 -36 178 -76 l32 -25 42 30 c100 73 252 95 384 57 128 -38 265 -131 337 -230 51 -71 26 -106 -39 -55 -56 45 -155 98 -236 127 -63 22 -88 25 -202 25 -116 1 -137 -2 -200 -26 -52 -20 -71 -23 -78 -14 -6 9 -10 9 -13 0 -4 -8 -26 -4 -77 14 -103 37 -278 39 -387 5 -83 -26 -180 -75 -247 -127 -72 -55 -96 -27 -43 50 82 120 252 223 404 245 74 11 75 11 145 0z m-216 -560 c23 -11 87 -56 141 -100 122 -98 153 -109 301 -106 133 2 161 14 285 116 46 38 104 79 127 90 98 46 188 14 306 -109 89 -93 105 -119 82 -127 -10 -4 -29 9 -56 40 -54 61 -110 90 -161 83 -55 -7 -109 -37 -231 -126 -170 -125 -172 -126 -367 -126 -197 0 -197 0 -380 135 -114 84 -185 120 -237 120 -38 0 -98 -36 -141 -85 -22 -25 -45 -45 -51 -45 -29 0 -4 45 69 123 123 131 213 164 313 117z m72 -415 c14 -17 31 -25 52 -25 32 0 55 -17 31 -24 -85 -23 -93 -38 -58 -106 64 -125 217 -203 300 -153 26 15 30 15 63 0 44 -21 87 -22 134 -2 87 37 187 152 181 210 -3 29 -8 33 -76 51 -26 7 0 24 37 24 30 0 40 4 44 20 6 25 48 41 84 34 70 -14 173 -123 173 -184 0 -41 -33 -76 -84 -89 -65 -16 -88 -14 -84 6 2 13 17 20 51 25 58 8 77 22 77 57 0 86 -156 194 -190 132 -6 -13 -7 -28 -1 -44 22 -57 -38 -167 -127 -232 -79 -59 -185 -79 -229 -43 -7 6 -29 4 -60 -7 -80 -27 -167 2 -253 87 -69 68 -93 118 -88 180 7 63 -8 83 -52 74 -66 -13 -140 -91 -140 -147 0 -35 19 -49 77 -57 34 -5 49 -12 51 -25 3 -12 -3 -17 -20 -17 -43 0 -100 21 -125 47 -21 20 -24 31 -20 60 8 49 48 106 99 141 70 48 117 50 153 7z m333 -631 c19 -13 25 -12 48 3 32 21 109 21 150 0 43 -22 80 -65 67 -78 -7 -7 -19 -3 -39 14 -63 53 -116 61 -171 27 -33 -20 -33 -20 -65 0 -55 33 -118 23 -171 -28 -21 -20 -30 -23 -39 -14 -9 9 -6 18 13 38 57 61 145 77 207 38z m-8 -139 c27 -14 33 -14 60 0 16 8 44 15 63 15 68 0 207 -94 179 -122 -8 -8 -20 -3 -47 20 -71 63 -129 78 -192 51 -28 -11 -38 -11 -65 0 -64 27 -122 12 -193 -51 -27 -23 -39 -28 -47 -20 -28 28 111 122 179 122 19 0 47 -7 63 -15z m184 -192 c50 -25 58 -34 45 -49 -9 -11 -17 -10 -42 8 -28 20 -43 23 -157 23 -113 0 -129 -3 -156 -22 -17 -13 -34 -20 -38 -16 -15 15 -3 34 32 52 50 26 267 29 316 4z m4 -143 c39 -22 50 -38 36 -52 -3 -3 -24 5 -47 18 -37 21 -55 24 -146 24 -93 0 -109 -3 -146 -25 -41 -24 -55 -24 -55 0 0 12 50 44 88 55 15 4 72 7 127 6 85 -2 108 -6 143 -26z m-195 -159 c36 -18 38 -18 74 0 47 24 153 25 229 3 67 -19 141 -68 171 -113 43 -63 21 -148 -49 -191 -40 -24 -64 -25 -112 -5 -52 22 -76 12 -145 -61 -33 -35 -69 -65 -81 -65 -11 -1 -33 -2 -50 -2 -16 0 -39 1 -50 2 -12 0 -46 28 -78 62 -70 75 -89 83 -145 64 -23 -8 -50 -15 -60 -15 -57 0 -127 78 -127 141 0 69 74 143 181 179 75 26 193 26 242 1z"
       id="path54"
       style="fill:#cc6600" />
    <path
       d="M3853 6480 c-100 -21 -225 -93 -298 -171 -29 -31 -33 -39 -15 -28 14 8 41 25 60 36 48 30 134 63 205 80 106 26 300 16 368 -19 37 -19 84 -16 162 8 64 20 101 25 185 25 58 1 128 -5 155 -12 57 -14 179 -63 212 -84 69 -45 71 -41 12 17 -114 109 -258 165 -404 155 -89 -5 -142 -23 -197 -67 -20 -17 -46 -30 -58 -30 -12 0 -38 13 -58 30 -20 16 -55 37 -77 46 -46 19 -190 27 -252 14z"
       id="path56"
       style="fill:#990000" />
    <path
       d="M3688 5940 c-15 -4 -45 -19 -65 -32 l-38 -23 63 -7 c73 -8 106 -25 242 -127 122 -92 187 -124 262 -129 39 -3 58 -1 58 7 0 14 57 14 66 0 11 -19 107 -5 165 24 30 15 104 63 164 108 126 92 158 109 235 118 l55 6 -49 30 c-37 21 -61 29 -97 28 -56 -1 -81 -14 -209 -118 -116 -93 -148 -104 -305 -104 -146 0 -186 15 -306 114 -122 101 -176 125 -241 105z"
       id="path58"
       style="fill:#990000" />
    <path
       d="M4020 4261 c-91 -20 -174 -74 -196 -128 -13 -30 -13 -38 2 -69 24 -49 55 -68 101 -60 125 22 115 25 193 -53 70 -69 73 -71 122 -71 48 0 51 2 111 64 64 67 98 83 145 71 97 -24 126 -16 159 48 31 60 -15 124 -122 173 -49 22 -75 28 -142 28 -69 1 -86 -2 -112 -21 -37 -28 -45 -28 -80 -2 -31 23 -122 33 -181 20z"
       id="path60"
       style="fill:#cc6666" />
    <path
       d="M3272 6531 c-35 -14 -81 -41 -104 -60 -39 -33 -39 -34 -21 -52 17 -17 22 -17 73 -3 30 8 71 19 91 24 50 14 70 58 43 93 l-19 23 -63 -25z"
       id="path62"
       style="fill:#ff66ff" />
    <path
       d="M1294 6488 c9 -57 -10 -78 -51 -59 -27 13 -42 3 -43 -27 0 -49 79 -138 132 -149 15 -3 31 -10 34 -14 8 -13 34 -11 34 3 0 6 -7 20 -17 30 -22 25 -11 33 28 19 18 -6 56 -11 85 -11 l52 0 -53 55 c-36 37 -60 72 -72 106 -20 57 -39 74 -97 85 l-39 7 7 -45z"
       id="path64"
       style="fill:#ff99ff" />
    <path
       d="M3055 6511 c-3 -5 8 -19 25 -31 27 -19 30 -19 30 -4 0 9 -8 23 -17 30 -21 16 -30 17 -38 5z"
       id="path66"
       style="fill:none" />
    <path
       d="M929 6441 c-22 -18 -22 -20 -9 -62 8 -24 14 -48 15 -54 0 -5 -35 -13 -79 -16 -95 -6 -110 -19 -93 -77 33 -110 244 -231 479 -274 77 -15 77 -15 117 11 23 14 41 29 41 32 0 4 -19 9 -42 13 -71 11 -164 45 -184 68 -13 15 -15 22 -7 25 8 3 10 15 7 32 -5 23 -1 32 25 51 18 12 50 24 71 27 22 3 40 10 40 14 0 5 -4 9 -10 9 -18 0 -81 63 -100 101 -47 90 -209 151 -271 100z"
       id="path68"
       style="fill:#ffccff" />
    <path
       d="M3217 6393 c-42 -12 -46 -16 -37 -33 6 -11 14 -20 18 -20 9 1 75 60 70 64 -1 2 -24 -3 -51 -11z"
       id="path70"
       style="fill:#ff66ff" />
    <path
       d="M1547 6263 c-83 -2 -126 -7 -122 -14 9 -14 -14 -39 -36 -39 -26 0 -24 -5 15 -59 43 -59 139 -150 191 -182 102 -64 225 -91 331 -74 l49 8 -41 12 c-65 20 -116 50 -159 94 -35 37 -37 41 -17 41 31 0 28 28 -5 41 -63 24 -153 71 -153 80 0 14 11 11 72 -20 45 -23 58 -27 69 -17 8 7 61 25 118 41 95 26 102 29 85 43 -60 45 -128 53 -397 45z"
       id="path72"
       style="fill:#ff66ff" />
    <path
       d="M2350 6244 c0 -12 11 -29 26 -39 36 -23 37 -16 3 25 -25 31 -28 32 -29 14z"
       id="path74"
       style="fill:#ffcc00" />
    <path
       d="M2400 6246 c0 -15 18 -31 26 -23 7 7 -7 37 -17 37 -5 0 -9 -6 -9 -14z"
       id="path76"
       style="fill:none" />
    <path
       d="M1969 6227 c15 -19 41 -23 41 -7 0 6 -4 10 -9 10 -5 0 -18 3 -28 7 -16 6 -16 5 -4 -10z"
       id="path78"
       style="fill:none" />
    <path
       d="M1283 6200 c-43 -9 -93 -36 -93 -51 0 -5 15 -12 33 -17 40 -10 38 -25 -5 -33 l-33 -6 37 -16 c59 -27 147 -47 204 -47 l52 0 -35 38 c-19 20 -50 61 -69 90 -19 28 -38 52 -42 51 -4 -1 -26 -5 -49 -9z"
       id="path80"
       style="fill:#ff99ff" />
    <path
       d="M1985 6184 c-191 -50 -215 -57 -215 -65 0 -5 4 -9 8 -9 5 0 14 -12 21 -26 9 -20 9 -30 0 -40 -26 -31 72 -94 173 -113 94 -17 220 12 316 73 41 25 42 28 27 49 -8 12 -15 29 -15 38 0 30 -23 27 -72 -8 -51 -37 -142 -73 -183 -73 -40 0 -29 17 17 24 48 8 113 36 143 61 l20 17 -20 -7 c-40 -14 -210 -33 -219 -24 -13 11 3 15 109 28 150 18 190 34 180 72 -6 23 -9 24 -108 24 -71 0 -126 -6 -182 -21z"
       id="path82"
       style="fill:#ff33ff" />
    <path
       d="M2290 6203 c1 -20 19 -30 63 -36 26 -4 47 -4 47 -1 0 7 -81 43 -97 44 -7 0 -13 -3 -13 -7z"
       id="path84"
       style="fill:#ffcc00" />
    <path
       d="M2303 6142 c-24 -15 19 -30 51 -17 l28 12 -23 6 c-31 9 -41 8 -56 -1z"
       id="path86"
       style="fill:#ffcc00" />
    <path
       d="M2342 6098 c-12 -6 -21 -16 -19 -22 6 -18 29 -12 45 12 16 24 9 27 -26 10z"
       id="path88"
       style="fill:#ffcc00" />
    <path
       d="M3033 6089 c-54 -21 -153 -101 -153 -124 0 -7 -20 -23 -44 -35 -58 -27 -158 -135 -195 -208 -48 -96 -64 -169 -59 -274 3 -74 10 -105 32 -155 16 -34 37 -70 47 -79 18 -16 19 -16 19 19 0 46 28 117 46 117 8 0 14 -8 15 -17 0 -10 10 9 22 42 59 159 190 271 440 376 157 67 149 61 97 70 -67 11 -176 -9 -258 -47 -91 -41 -174 -108 -248 -196 -53 -63 -95 -90 -80 -52 3 9 9 28 12 42 25 112 99 246 182 331 69 71 187 149 271 180 33 13 61 25 61 27 0 2 -35 4 -77 3 -53 0 -95 -7 -130 -20z"
       id="path90"
       style="fill:#cc9966" />
    <path
       d="M5260 6098 c229 -100 354 -208 440 -378 23 -46 70 -182 70 -204 0 -22 -36 3 -78 57 -137 171 -347 273 -512 248 -52 -7 -50 -9 45 -46 176 -69 309 -149 391 -237 55 -58 76 -93 105 -173 10 -27 18 -42 19 -32 0 9 6 17 14 17 18 0 46 -71 46 -117 0 -35 1 -35 19 -19 10 9 32 45 47 79 37 80 45 222 19 314 -39 136 -145 277 -242 324 -24 11 -43 27 -43 34 0 7 -22 32 -48 57 -65 61 -140 88 -240 87 -65 0 -73 -2 -52 -11z"
       id="path92"
       style="fill:#cc9966" />
    <path
       d="M6677 6049 c-9 -6 -26 -8 -36 -4 -29 9 -56 -96 -56 -215 1 -105 20 -159 71 -199 34 -26 44 -26 44 -1 0 13 12 28 30 38 23 13 30 24 30 47 0 17 9 45 20 63 24 39 25 71 5 138 -15 50 -69 144 -82 144 -5 0 -16 -5 -26 -11z"
       id="path94"
       style="fill:#0066ff" />
    <path
       d="M1455 6002 c-36 -12 -143 -91 -166 -123 -18 -26 -19 -33 -8 -40 8 -5 29 -7 47 -4 43 8 41 -10 -3 -31 -20 -9 -40 -25 -46 -36 -15 -28 42 -48 138 -47 103 0 133 13 183 78 23 29 55 61 71 70 16 9 29 18 29 21 0 4 -16 12 -35 19 -20 7 -65 32 -102 57 -67 45 -73 47 -108 36z"
       id="path96"
       style="fill:#ff99ff" />
    <path
       d="M2314 5985 c-22 -34 -31 -199 -15 -274 6 -29 23 -74 39 -99 l27 -47 3 47 c4 55 21 75 51 58 19 -10 21 -8 21 17 0 16 4 43 10 62 7 25 6 37 -5 47 -19 19 -25 18 -25 -6 0 -28 -43 -110 -69 -134 -18 -16 -21 -17 -21 -3 0 9 5 19 10 22 13 8 55 92 64 127 4 18 -2 42 -19 76 -14 28 -25 63 -25 80 0 16 -6 35 -14 41 -12 10 -18 7 -32 -14z"
       id="path98"
       style="fill:#ff33ff" />
    <path
       d="M976 5975 c-49 -17 -101 -60 -128 -105 l-22 -35 30 27 c41 37 152 88 194 88 56 0 67 15 22 28 -48 14 -48 14 -96 -3z"
       id="path100"
       style="fill:#000099" />
    <path
       d="M2236 5950 c-32 -15 -43 -28 -61 -73 -76 -186 -82 -385 -14 -491 16 -25 33 -46 39 -46 5 0 16 14 25 30 20 38 31 38 53 0 9 -16 19 -30 22 -30 7 0 59 109 70 148 7 27 5 36 -15 61 -14 15 -37 52 -52 82 -27 52 -28 60 -28 197 0 78 0 142 0 141 0 0 -18 -9 -39 -19z m-12 -177 c-35 -102 -44 -222 -19 -259 19 -30 12 -45 -11 -22 -47 47 -32 199 37 363 25 61 20 -3 -7 -82z"
       id="path102"
       style="fill:#ff33ff" />
    <path
       d="M6935 5883 c-125 -85 -146 -108 -153 -168 -4 -39 -2 -43 22 -49 14 -3 30 -15 36 -26 9 -16 21 -20 61 -20 89 0 169 52 208 135 21 44 27 116 15 162 -6 22 -7 22 -34 -7 -38 -41 -49 -38 -43 10 3 22 4 40 2 39 -2 0 -53 -34 -114 -76z"
       id="path104"
       style="fill:#0066ff" />
    <path
       d="M1065 5926 c-126 -33 -171 -53 -202 -90 l-26 -31 39 -5 c53 -7 57 -36 9 -69 -19 -13 -35 -27 -35 -31 0 -13 34 -37 69 -49 53 -17 224 -13 328 8 118 25 139 36 85 44 -22 4 -50 16 -63 26 -24 20 -24 20 -6 52 16 29 16 34 3 41 -23 13 -20 36 9 73 l24 33 -42 6 c-23 4 -55 9 -72 11 -16 3 -70 -6 -120 -19z"
       id="path106"
       style="fill:#ffccff" />
    <path
       d="M2110 5913 c-57 -10 -219 -52 -237 -61 -10 -6 -35 -28 -56 -50 -36 -37 -37 -40 -17 -45 12 -3 24 -14 27 -25 4 -18 11 -20 61 -15 80 7 173 38 209 71 17 15 40 51 51 80 23 57 24 56 -38 45z"
       id="path108"
       style="fill:#ff33ff" />
    <path
       d="M1699 5860 c-51 -27 -90 -75 -145 -177 -26 -48 -57 -102 -70 -119 -23 -31 -23 -32 -4 -49 11 -10 20 -25 20 -33 0 -12 15 -14 83 -10 133 7 221 59 272 161 l26 52 -56 3 c-53 3 -72 16 -40 28 27 11 16 24 -20 24 -19 0 -35 2 -35 5 0 3 28 32 63 65 l62 59 -31 1 c-17 0 -44 2 -60 5 -18 3 -43 -3 -65 -15z"
       id="path110"
       style="fill:#ff66ff" />
    <path
       d="M6293 5792 c2 -26 0 -27 -45 -26 -27 0 -48 -2 -48 -6 0 -19 94 -162 125 -188 38 -34 95 -62 126 -62 10 0 47 15 81 33 35 18 78 39 97 45 l34 12 -26 20 c-14 11 -36 43 -48 71 -34 74 -97 105 -251 123 -46 5 -47 5 -45 -22z"
       id="path112"
       style="fill:#0066ff" />
    <path
       d="M804 5764 c-14 -96 8 -190 60 -259 12 -16 17 -18 28 -7 10 10 10 17 -2 35 -43 68 -54 103 -53 175 0 40 -3 75 -8 78 -5 3 -7 10 -4 15 4 5 2 9 -4 9 -5 0 -13 -21 -17 -46z"
       id="path114"
       style="fill:#000099" />
    <path
       d="M2475 5760 c-16 -27 -17 -118 -1 -151 26 -52 2 -56 -28 -5 -35 61 -56 61 -56 1 0 -66 94 -242 160 -300 l23 -20 -6 25 c-16 58 -29 165 -23 191 3 15 -1 58 -9 96 -8 37 -15 84 -15 104 0 38 -32 80 -45 59z"
       id="path116"
       style="fill:#ff33ff" />
    <path
       d="M2065 5741 c-14 -12 -105 -41 -131 -41 -18 0 -28 -11 -43 -45 -11 -25 -29 -58 -39 -73 -44 -64 -87 -300 -60 -327 4 -4 19 2 34 14 41 32 64 28 65 -11 3 -113 3 -113 30 -116 20 -2 32 5 50 30 40 54 76 120 107 199 28 70 29 78 19 142 -7 47 -7 91 0 140 5 40 9 73 8 75 -3 4 -71 -101 -94 -146 -12 -23 -26 -64 -32 -92 -13 -62 -34 -69 -25 -7 9 54 56 156 102 218 31 43 36 65 9 40z"
       id="path118"
       style="fill:#ff66ff" />
    <path
       d="M2541 5713 c1 -47 15 -109 22 -93 32 85 32 120 -3 120 -15 0 -20 -6 -19 -27z"
       id="path120"
       style="fill:#ff33ff" />
    <path
       d="M1465 5703 c-27 -3 -57 -10 -65 -18 -8 -7 -42 -21 -75 -30 -60 -18 -208 -110 -254 -159 l-24 -25 37 6 c31 5 36 3 36 -14 0 -10 -16 -34 -35 -53 -19 -19 -35 -40 -35 -47 0 -37 160 -18 256 29 76 38 163 92 164 101 0 5 -9 11 -20 14 -25 7 -25 14 0 46 19 24 90 145 90 153 0 2 -6 3 -12 2 -7 -1 -35 -3 -63 -5z"
       id="path122"
       style="fill:#ff99ff" />
    <path
       d="M6743 5650 c-31 -13 -30 -47 3 -62 28 -13 49 -5 68 25 18 29 -30 53 -71 37z"
       id="path124"
       style="fill:#ffcc33" />
    <path
       d="M1121 5623 c-69 -4 -95 -17 -164 -82 -38 -35 -97 -113 -97 -126 0 -4 15 -4 34 -1 49 9 64 -12 43 -62 -31 -72 -31 -81 -2 -92 17 -6 41 -7 68 0 50 11 147 50 147 59 0 4 -18 5 -39 3 -85 -8 -105 38 -43 101 l37 39 -37 -6 c-78 -14 -49 36 70 121 58 42 73 56 55 51 -5 -1 -37 -3 -72 -5z"
       id="path126"
       style="fill:#ffccff" />
    <path
       d="M6825 5590 c-10 -11 -26 -22 -36 -25 -23 -8 -49 -90 -49 -155 0 -56 42 -145 82 -174 l27 -19 21 26 c23 29 58 35 79 15 20 -20 41 18 41 74 0 82 -70 229 -126 265 -18 12 -23 11 -39 -7z"
       id="path128"
       style="fill:#0066ff" />
    <path
       d="M6625 5567 c-114 -49 -222 -123 -247 -170 -9 -17 -6 -23 13 -38 13 -10 21 -21 17 -25 -4 -4 -14 -1 -22 5 -8 7 -28 11 -45 9 l-30 -3 33 -40 34 -40 79 0 c67 0 85 4 124 27 78 46 122 106 154 213 14 49 14 50 -8 67 -28 22 -40 21 -102 -5z"
       id="path130"
       style="fill:#0066ff" />
    <path
       d="M6210 5535 c-41 -13 -119 -28 -172 -35 -82 -10 -98 -15 -98 -30 0 -19 22 -19 164 1 79 11 85 8 116 -57 93 -191 54 -433 -96 -591 -30 -32 -52 -63 -49 -70 7 -20 19 -16 55 22 19 19 37 35 41 35 17 0 31 -112 27 -208 -2 -56 -1 -102 2 -102 23 1 34 26 39 92 8 87 18 110 38 83 21 -29 41 -4 26 32 -6 16 -24 66 -39 112 -24 74 -26 88 -15 115 52 128 55 141 55 246 1 116 -7 160 -29 160 -18 0 -20 17 -2 23 8 2 2 22 -21 67 -18 35 -31 64 -30 65 2 1 27 10 56 19 53 18 64 29 36 40 -19 7 -13 8 -104 -19z"
       id="path132"
       style="fill:#000099" />
    <path
       d="M1727 5482 c-65 -33 -69 -37 -106 -111 -70 -137 -95 -252 -71 -316 13 -33 21 -28 71 46 22 33 44 57 49 54 5 -3 6 -35 3 -71 l-6 -66 101 104 c67 68 102 111 102 126 0 27 1 27 -40 -3 -30 -22 -36 -23 -49 -10 -24 24 -25 129 -2 210 11 38 19 70 18 70 -1 1 -33 -14 -70 -33z"
       id="path134"
       style="fill:#ff99ff" />
    <path
       d="M1390 5401 c-70 -72 -120 -164 -127 -236 l-6 -55 42 0 c31 0 43 -5 47 -17 15 -48 27 -61 46 -54 35 13 128 94 128 112 0 29 48 169 79 234 17 33 29 60 28 61 -1 1 -42 4 -92 6 l-90 5 -55 -56z"
       id="path136"
       style="fill:#ff99ff" />
    <path
       d="M2410 5404 c0 -55 17 -184 25 -192 2 -2 26 13 54 34 l51 38 -24 26 c-13 14 -42 54 -65 89 l-41 64 0 -59z"
       id="path138"
       style="fill:#ff66ff" />
    <path
       d="M2350 5385 c-31 -64 -35 -80 -38 -175 -2 -58 1 -116 6 -130 l9 -25 17 33 c9 17 30 47 46 65 27 32 29 36 18 73 -6 21 -13 82 -17 134 l-7 95 -34 -70z"
       id="path140"
       style="fill:#ff66ff" />
    <path
       d="M2106 5385 c-4 -15 -20 -54 -36 -87 -17 -34 -30 -69 -30 -77 0 -20 48 -123 84 -180 26 -40 28 -42 42 -24 13 17 15 17 34 -5 l20 -24 25 29 c34 39 45 83 45 190 0 66 -5 102 -17 128 -19 40 -28 44 -36 15 -12 -47 -73 -28 -98 30 -17 37 -25 38 -33 5z"
       id="path142"
       style="fill:#ff66ff" />
    <path
       d="M5930 5384 c0 -10 10 -39 22 -64 11 -25 24 -51 28 -59 12 -26 30 -24 30 4 0 32 -30 93 -59 119 -21 19 -21 19 -21 0z"
       id="path144"
       style="fill:#0000ff" />
    <path
       d="M3114 5377 c3 -7 17 -40 31 -75 14 -34 35 -79 47 -98 30 -50 10 -68 -31 -27 -30 31 -71 49 -71 32 0 -5 11 -31 25 -58 39 -78 106 -124 194 -135 48 -5 56 -10 46 -26 -4 -7 -24 -10 -46 -8 -23 2 -39 -1 -39 -7 0 -12 29 -57 44 -67 18 -13 53 -9 66 7 18 22 39 18 46 -9 9 -37 47 -67 92 -73 24 -3 91 5 169 20 70 15 140 27 156 29 26 3 24 6 -45 63 -92 77 -110 102 -116 164 -5 52 -22 61 -22 12 0 -31 -23 -57 -40 -46 -5 3 -10 28 -10 54 0 78 -44 180 -68 157 -4 -4 -7 -40 -7 -79 -1 -85 -15 -96 -46 -35 -25 51 -64 94 -101 114 -38 20 -41 18 -23 -16 14 -28 14 -31 0 -36 -9 -4 -17 -5 -18 -3 -2 2 -15 23 -29 46 -19 28 -44 49 -82 68 -66 32 -130 49 -122 32z"
       id="path146"
       style="fill:#996600" />
    <path
       d="M5345 5383 c-78 -15 -164 -68 -191 -118 -10 -19 -24 -35 -31 -35 -15 0 -17 36 -3 45 22 14 8 23 -20 14 -35 -13 -81 -63 -110 -120 -30 -58 -44 -46 -45 38 0 82 -9 98 -35 63 -24 -32 -40 -88 -40 -143 0 -25 -5 -49 -12 -53 -14 -9 -38 23 -38 52 0 40 -16 34 -17 -6 -3 -67 -43 -118 -157 -205 l-40 -30 55 -7 c30 -3 99 -16 154 -28 128 -28 179 -23 217 19 15 17 28 38 28 46 0 19 24 19 40 0 27 -32 74 -16 100 35 l19 37 -43 -4 c-27 -4 -46 -1 -51 7 -10 16 -2 21 46 26 57 7 98 25 142 63 33 29 77 102 77 128 0 19 -38 2 -70 -30 -37 -38 -57 -27 -34 18 20 38 84 188 81 190 -1 1 -11 0 -22 -2z"
       id="path148"
       style="fill:#996600" />
    <path
       d="M1275 5337 c-73 -54 -137 -121 -164 -176 -29 -56 -26 -64 13 -40 30 17 35 18 46 4 11 -13 11 -26 0 -70 -7 -30 -10 -58 -6 -62 9 -9 159 70 155 82 -2 6 -15 10 -29 10 -46 1 -53 12 -48 79 5 63 30 124 75 184 13 17 22 32 21 32 -2 0 -31 -20 -63 -43z"
       id="path150"
       style="fill:#ffccff" />
    <path
       d="M7288 5276 c-120 -54 -201 -108 -241 -164 -26 -36 -32 -55 -37 -120 -6 -72 -7 -75 -16 -43 -5 19 -18 39 -28 45 -14 9 -23 5 -47 -24 -35 -41 -46 -90 -31 -138 11 -34 5 -63 -6 -32 -8 24 -68 80 -86 80 -18 0 -42 -33 -51 -71 -3 -14 1 -45 9 -69 18 -53 15 -59 -14 -30 -19 19 -24 20 -43 7 -39 -26 -35 -89 13 -187 43 -90 49 -132 24 -168 -8 -12 -13 -31 -9 -42 7 -23 -26 -60 -55 -60 -28 0 -43 43 -35 100 3 25 1 58 -4 73 -10 27 -12 27 -33 13 -32 -23 -37 -20 -32 17 4 20 -2 49 -15 80 -12 27 -21 62 -21 79 l0 30 -31 -31 c-17 -17 -37 -31 -45 -31 -25 0 -15 41 31 127 25 46 43 83 40 83 -2 0 7 16 20 36 40 58 29 59 -35 3 -66 -57 -100 -104 -100 -138 0 -23 -10 -27 -27 -10 -16 16 -48 -4 -83 -53 -35 -48 -47 -100 -31 -135 15 -32 7 -41 -17 -20 -36 33 -72 -24 -72 -111 1 -129 133 -234 203 -161 10 11 26 19 36 19 10 0 25 7 32 16 20 24 -15 48 -90 64 -34 7 -61 17 -61 21 0 11 -5 12 58 -5 54 -15 54 -15 48 7 -4 12 -9 34 -12 49 -5 19 -17 31 -46 43 -46 18 -45 33 1 17 l31 -11 1 67 c1 116 18 118 18 2 1 -58 6 -112 11 -120 8 -12 10 -10 10 10 0 32 30 110 42 110 6 0 7 -8 3 -17 -29 -68 -36 -101 -30 -140 6 -40 25 -71 25 -41 0 23 51 118 60 113 5 -3 -2 -24 -15 -48 -38 -68 -36 -91 9 -122 27 -19 42 -23 49 -16 18 18 54 12 85 -14 29 -24 30 -24 47 -5 10 11 41 26 69 34 61 18 136 71 136 96 0 10 -7 52 -16 94 -8 42 -14 84 -11 94 6 25 13 3 27 -90 7 -43 16 -78 20 -78 4 0 15 16 26 35 16 31 17 40 5 92 -21 94 -25 143 -12 143 6 0 11 -17 12 -37 0 -21 6 -60 13 -88 l12 -50 18 40 c17 39 53 177 114 436 33 143 71 235 112 274 15 15 65 46 111 71 107 55 83 55 -43 0z"
       id="path152"
       style="fill:#669900" />
    <path
       d="M7365 5277 c-179 -94 -190 -113 -265 -450 -36 -163 -63 -263 -85 -322 -7 -16 -3 -15 22 8 49 45 50 30 1 -20 -25 -27 -51 -59 -58 -73 l-13 -24 27 18 c15 9 32 16 38 14 6 -2 -9 -16 -34 -31 -26 -15 -61 -45 -78 -68 -18 -22 -57 -54 -86 -71 -30 -16 -51 -34 -48 -39 3 -5 13 -5 24 1 25 13 50 3 61 -27 7 -20 12 -22 29 -13 12 6 26 9 33 7 17 -6 47 11 47 28 0 11 -7 12 -32 4 -40 -11 -38 -11 -38 0 0 5 15 13 33 16 63 14 157 71 157 95 0 5 -9 14 -21 20 -15 9 -24 8 -36 -2 -9 -7 -14 -8 -12 -2 2 6 33 35 69 65 67 57 86 94 54 106 -9 3 -25 1 -36 -6 -39 -25 -26 -4 39 59 77 76 110 137 88 159 -12 13 -19 12 -49 -4 -19 -11 -38 -16 -42 -12 -4 3 6 12 20 19 39 17 54 53 72 170 27 180 62 262 150 357 31 34 55 61 53 61 -2 0 -40 -20 -84 -43z"
       id="path154"
       style="fill:#669933" />
    <path
       d="M2524 5227 c-84 -62 -179 -175 -162 -192 3 -3 25 2 49 11 29 11 81 17 156 18 l113 1 0 37 c0 27 -8 47 -29 70 -16 18 -37 48 -48 66 l-20 33 -59 -44z"
       id="path156"
       style="fill:#cc9966" />
    <path
       d="M5883 5247 c-6 -12 -27 -42 -47 -65 -27 -33 -36 -53 -36 -80 l0 -37 113 -1 c75 -1 127 -7 156 -18 62 -23 65 -21 39 25 -25 45 -136 154 -185 181 -29 17 -30 17 -40 -5z"
       id="path158"
       style="fill:#cc9966" />
    <path
       d="M6776 5179 c-32 -106 -13 -281 31 -287 21 -3 21 -2 6 40 -14 40 -14 136 -1 262 5 51 -20 41 -36 -15z"
       id="path160"
       style="fill:#000099" />
    <path
       d="M1766 5090 c-53 -56 -101 -98 -106 -95 -6 3 -10 30 -11 58 l0 52 -17 -25 c-9 -14 -28 -36 -40 -49 -22 -22 -25 -22 -40 -7 -10 9 -21 30 -27 46 l-10 30 -44 -35 c-24 -19 -58 -40 -77 -47 -35 -12 -54 -50 -54 -105 0 -53 42 -76 55 -30 12 41 77 167 86 167 15 0 11 -13 -26 -85 -55 -110 -71 -225 -31 -225 7 0 34 19 60 41 26 23 50 38 54 35 3 -4 9 -39 13 -77 4 -44 12 -77 22 -86 27 -27 72 32 103 136 41 138 64 190 96 216 16 14 33 25 38 25 5 0 12 14 15 32 4 18 16 52 27 77 10 24 17 45 15 48 -2 2 -47 -42 -101 -97z"
       id="path162"
       style="fill:#ffccff" />
    <path
       d="M1994 5164 c-9 -14 -30 -32 -46 -40 -26 -14 -32 -14 -53 0 -22 15 -23 14 -40 -40 -9 -30 -17 -80 -18 -112 0 -60 18 -132 34 -132 5 0 21 19 36 43 71 111 90 108 117 -15 9 -40 22 -35 49 20 51 100 52 112 12 177 -19 33 -41 74 -47 92 -14 40 -22 41 -44 7z"
       id="path164"
       style="fill:#ff99ff" />
    <path
       d="M7046 5150 c-20 -22 -36 -45 -36 -51 0 -6 12 4 28 23 15 18 36 41 47 50 11 10 15 17 9 18 -7 0 -28 -18 -48 -40z"
       id="path166" />
    <path
       d="M7335 5160 c-4 -6 9 -28 28 -49 89 -99 64 -281 -49 -363 -37 -27 -65 -68 -45 -68 12 0 95 56 113 76 9 10 29 44 44 74 50 100 32 243 -40 315 -27 27 -41 31 -51 15z"
       id="path168"
       style="fill:#000099" />
    <path
       d="M2853 5113 c-46 -44 -83 -98 -102 -149 -16 -42 -17 -52 -5 -92 29 -97 10 -210 -67 -400 -74 -184 -92 -252 -86 -340 3 -55 9 -78 24 -95 11 -12 24 -40 28 -62 24 -139 118 -354 203 -467 76 -99 201 -191 313 -227 19 -6 65 -15 102 -19 l67 -8 0 125 c0 70 7 156 15 193 15 74 22 199 11 216 -3 6 -8 32 -11 59 -12 132 -15 142 -47 149 -17 3 -48 22 -69 41 -66 60 -75 151 -24 242 l25 44 -58 -6 c-74 -8 -169 7 -202 31 -35 26 -53 67 -45 102 10 46 33 38 37 -12 3 -36 9 -46 38 -66 32 -21 44 -23 145 -21 l110 2 60 42 c63 44 77 73 55 115 -10 18 -17 20 -56 14 -30 -4 -44 -3 -44 5 0 6 7 14 15 17 18 7 20 35 3 52 -7 7 -27 12 -44 12 -39 0 -53 16 -29 34 16 12 16 13 0 29 -23 23 -47 21 -108 -10 l-52 -26 42 -14 c46 -16 103 -73 103 -103 0 -29 -14 -24 -44 15 -34 45 -58 57 -110 57 -146 0 -366 -210 -366 -349 0 -33 7 -50 30 -76 62 -71 261 -101 399 -61 19 6 22 4 19 -12 -4 -24 -65 -42 -145 -43 -65 -1 -190 21 -225 40 -19 10 -20 9 -14 -17 22 -87 100 -160 205 -190 47 -14 199 -21 266 -12 33 5 24 -26 -10 -33 -50 -11 -171 -10 -227 2 -77 16 -155 56 -199 102 l-39 39 0 -47 c0 -88 60 -147 185 -179 76 -20 214 -20 289 -1 62 16 72 15 63 -9 -9 -22 -111 -40 -225 -40 l-104 0 7 -45 c14 -98 66 -146 154 -146 72 1 139 38 184 101 21 30 34 41 41 34 16 -16 -22 -78 -73 -116 -149 -114 -340 -38 -341 137 l0 46 -61 23 c-116 42 -173 130 -151 235 12 58 -2 141 -29 171 -9 11 -22 35 -28 55 -34 107 82 289 243 379 90 51 85 96 -24 190 -123 107 -126 189 -13 328 39 48 38 54 -4 15z"
       id="path170"
       style="fill:#cc6633" />
    <path
       d="M5639 5076 c46 -61 71 -116 71 -159 0 -36 -40 -95 -100 -147 -107 -92 -115 -142 -30 -185 62 -31 173 -135 207 -192 56 -97 64 -184 20 -240 -33 -41 -47 -116 -34 -179 22 -105 -35 -192 -153 -235 l-60 -22 0 -46 c-1 -61 -29 -122 -74 -156 -90 -69 -252 -31 -323 77 -30 44 -48 50 -31 11 6 -16 13 -100 16 -189 l4 -160 69 8 c160 19 306 108 416 253 63 82 146 260 178 380 27 100 32 114 62 170 20 36 21 124 3 191 -7 27 -34 103 -61 169 -96 244 -114 339 -86 444 14 50 13 58 -4 98 -26 61 -74 128 -109 153 -27 19 -24 13 19 -44z"
       id="path172"
       style="fill:#cc6633" />
    <path
       d="M2263 5006 c-18 -24 -33 -48 -33 -54 0 -6 -6 -12 -12 -15 -21 -6 -15 -128 8 -167 10 -18 25 -35 31 -37 7 -3 25 16 40 41 15 25 34 48 41 51 14 5 15 2 32 -65 11 -41 13 -43 26 -25 8 11 14 43 14 74 0 31 4 70 9 87 7 26 5 33 -12 45 -43 29 -97 82 -97 95 0 24 -14 15 -47 -30z"
       id="path174"
       style="fill:#ff99ff" />
    <path
       d="M2522 5001 c-38 -37 -69 -81 -57 -81 3 0 32 11 65 24 127 52 160 42 77 -23 -30 -22 -68 -56 -84 -75 -44 -47 -106 -136 -101 -142 3 -2 23 2 46 10 58 21 194 38 205 27 11 -11 38 -3 50 13 11 17 -3 89 -20 103 -10 8 -17 38 -20 96 l-6 84 -57 2 c-54 1 -59 -1 -98 -38z"
       id="path176"
       style="fill:#cc9966" />
    <path
       d="M5798 4952 c-4 -65 -8 -86 -21 -94 -13 -7 -17 -23 -17 -62 0 -44 3 -55 19 -59 11 -2 23 -1 28 4 11 11 148 -7 205 -27 23 -8 43 -12 46 -10 2 3 -16 33 -41 68 -42 60 -97 116 -159 165 -16 11 -28 26 -28 33 0 15 42 6 122 -26 33 -14 62 -23 64 -21 7 6 -56 84 -81 101 -17 11 -43 16 -79 15 l-54 -2 -4 -85z"
       id="path178"
       style="fill:#cc9966" />
    <path
       d="M2423 5013 c-47 -16 -54 -28 -23 -38 22 -7 81 22 88 43 5 15 -12 14 -65 -5z"
       id="path180"
       style="fill:#ff99ff" />
    <path
       d="M1783 4987 c-64 -70 -100 -239 -72 -339 11 -41 16 -44 54 -26 35 16 48 1 55 -63 l5 -51 29 23 c54 42 155 307 141 369 -10 45 -20 44 -50 -3 -36 -54 -66 -87 -80 -87 -19 0 -45 71 -49 132 -1 32 -5 60 -8 63 -2 3 -14 -5 -25 -18z"
       id="path182"
       style="fill:#ffccff" />
    <path
       d="M2170 4975 c0 -26 -14 -33 -26 -14 -4 7 -21 -18 -39 -57 -37 -80 -58 -102 -79 -85 -11 10 -17 0 -33 -53 -23 -73 -17 -156 16 -231 27 -60 37 -63 81 -20 37 36 39 36 49 17 6 -11 11 -28 11 -36 0 -12 10 -16 35 -16 48 0 75 31 130 146 41 85 43 95 33 130 -9 35 -12 37 -22 20 -46 -76 -75 -83 -113 -28 -28 42 -38 111 -26 177 5 29 7 57 5 63 -7 22 -22 12 -22 -13z"
       id="path184"
       style="fill:#ffccff" />
    <path
       d="M2504 4896 c-10 -8 -16 -18 -12 -21 4 -4 15 0 24 9 21 22 13 30 -12 12z"
       id="path186"
       style="fill:none" />
    <path
       d="M2437 4873 c-9 -8 -9 -73 -1 -73 13 0 33 35 34 58 0 21 -19 30 -33 15z"
       id="path188"
       style="fill:#ff99ff" />
    <path
       d="M3358 4867 c-23 -9 -28 -17 -28 -46 0 -45 24 -135 43 -164 47 -71 123 -117 207 -124 141 -13 239 80 243 232 1 35 -2 67 -6 71 -4 5 -45 0 -90 -10 -45 -11 -122 -21 -170 -24 l-88 -4 -39 41 c-22 23 -41 41 -42 40 -2 -1 -15 -6 -30 -12z m291 -113 c26 -33 27 -65 3 -94 -15 -19 -22 -21 -39 -11 -12 6 -25 20 -28 31 -6 19 1 75 12 93 9 15 32 6 52 -19z"
       id="path190"
       style="fill:#cccc00" />
    <path
       d="M3617 4717 c-3 -8 -1 -20 4 -28 6 -10 9 -7 9 14 0 29 -5 35 -13 14z"
       id="path192"
       style="fill:#990000" />
    <path
       d="M5049 4839 c-36 -38 -39 -39 -108 -39 -38 0 -109 9 -156 20 -130 30 -125 32 -125 -50 0 -83 25 -144 76 -189 102 -90 286 -54 368 72 22 33 46 121 46 168 0 26 -5 38 -17 42 -10 2 -25 7 -33 9 -9 3 -30 -11 -51 -33z m-156 -96 c12 -41 2 -80 -25 -94 -18 -10 -24 -8 -41 12 -21 27 -17 71 10 101 23 26 46 19 56 -19z"
       id="path194"
       style="fill:#cccc00" />
    <path
       d="M4850 4705 c1 -26 2 -28 11 -12 8 14 8 22 0 30 -8 8 -11 3 -11 -18z"
       id="path196"
       style="fill:#990000" />
    <path
       d="M2580 4700 c0 -5 6 -10 14 -10 8 0 18 5 21 10 3 6 -3 10 -14 10 -12 0 -21 -4 -21 -10z"
       id="path198"
       style="fill:none" />
    <path
       d="M2643 4676 c-34 -18 -108 -64 -165 -103 -109 -74 -171 -106 -228 -118 l-35 -8 55 -26 c110 -53 166 -72 228 -78 45 -4 62 -10 62 -21 0 -12 -13 -14 -67 -10 l-68 4 -90 -70 c-258 -201 -333 -276 -391 -393 -38 -78 -41 -108 -5 -49 47 75 153 154 379 281 139 79 246 169 260 218 5 18 32 88 59 157 65 162 92 250 76 250 -5 0 -36 -15 -70 -34z"
       id="path200"
       style="fill:#cc9966" />
    <path
       d="M5764 4693 c3 -10 12 -43 21 -74 9 -31 40 -117 70 -190 30 -74 55 -139 55 -144 0 -15 87 -97 141 -133 46 -31 46 -31 66 -11 11 11 31 21 44 23 28 3 49 13 49 25 0 5 -35 35 -77 67 l-78 59 -67 -4 c-55 -2 -68 0 -68 12 0 10 16 16 60 20 74 6 179 46 185 69 3 10 7 27 11 38 4 15 -5 24 -48 46 -29 14 -93 55 -143 89 -79 54 -203 125 -220 125 -4 0 -4 -8 -1 -17z"
       id="path202"
       style="fill:#cc9966" />
    <path
       d="M7696 4673 c-31 -66 -94 -138 -206 -238 -61 -53 -110 -92 -110 -88 0 5 9 26 20 48 11 21 18 40 16 43 -3 2 -32 -19 -66 -47 -59 -49 -80 -56 -80 -25 0 20 0 19 -54 -31 -60 -55 -139 -108 -189 -126 -21 -7 -43 -19 -48 -26 -16 -18 -1 -34 25 -27 22 5 50 -12 58 -36 3 -11 105 23 178 60 87 44 176 109 243 179 38 39 71 71 73 71 29 0 -115 -143 -205 -204 -39 -26 -102 -61 -140 -78 -59 -26 -68 -33 -59 -47 6 -11 24 -16 53 -16 41 0 43 1 28 18 -9 9 -11 17 -6 17 6 0 16 -6 22 -14 7 -8 29 -17 49 -21 41 -7 79 -25 52 -25 -8 0 -32 4 -52 9 -37 9 -37 8 -23 -12 8 -12 15 -34 15 -49 0 -17 5 -28 13 -28 21 0 49 -36 51 -64 3 -52 66 -40 141 25 52 46 44 99 -10 63 -37 -24 -42 -10 -5 16 33 24 75 95 64 111 -3 6 -17 8 -30 5 -37 -10 -29 8 25 54 54 45 69 73 51 95 -11 13 -15 13 -33 0 -43 -30 -47 -14 -5 18 57 43 120 167 149 293 24 104 22 134 -5 77z m-295 -493 c27 0 49 -4 49 -10 0 -11 -71 -13 -107 -4 -13 4 -23 11 -23 16 0 6 7 7 16 4 9 -3 38 -6 65 -6z m-58 -48 c15 -2 30 -8 33 -13 8 -13 -41 -11 -71 3 -28 12 -35 35 -7 23 9 -4 29 -10 45 -13z"
       id="path204"
       style="fill:#669933" />
    <path
       d="M2465 4675 c-64 -22 -71 -22 -82 -8 -16 20 -17 19 -40 -37 -20 -49 -19 -100 1 -100 21 0 217 141 213 153 -6 18 -19 17 -92 -8z"
       id="path206"
       style="fill:#ffccff" />
    <path
       d="M5928 4692 c-22 -4 -23 -18 -2 -26 18 -7 64 3 64 14 0 9 -39 17 -62 12z"
       id="path208"
       style="fill:#0000ff" />
    <path
       d="M5267 4672 c-17 -19 -17 -21 -1 -30 25 -14 8 -32 -30 -32 -51 0 -75 -39 -39 -65 24 -18 8 -36 -23 -25 -38 15 -52 12 -64 -11 -21 -38 -3 -73 58 -116 57 -40 57 -40 164 -42 84 -2 113 1 140 15 42 21 48 30 48 77 0 25 5 37 14 37 32 0 35 -66 5 -104 -37 -47 -74 -59 -185 -59 l-101 0 24 -42 c13 -24 26 -66 30 -93 10 -87 -44 -166 -128 -187 -28 -7 -27 -5 -43 -152 -2 -23 -8 -49 -13 -57 -5 -8 -6 -41 -3 -73 4 -46 9 -58 22 -58 9 0 30 -17 45 -37 56 -75 146 -117 219 -103 66 12 124 92 124 171 0 19 -6 20 -102 20 -114 0 -216 18 -225 40 -9 24 1 25 68 8 89 -23 252 -15 332 15 98 38 154 112 140 185 l-5 26 -40 -41 c-74 -76 -206 -116 -354 -106 -84 5 -118 18 -98 36 5 5 37 5 74 0 199 -24 390 67 416 201 7 30 6 32 -14 21 -66 -35 -250 -51 -327 -27 -41 12 -58 43 -20 38 11 -1 45 -6 75 -11 62 -9 159 0 237 24 70 21 113 70 113 129 0 141 -218 348 -366 348 -52 0 -76 -12 -110 -57 -30 -39 -44 -44 -44 -15 0 19 55 90 70 90 5 0 21 5 35 10 l26 10 -30 26 c-42 35 -91 42 -114 16z"
       id="path210"
       style="fill:#cc6633" />
    <path
       d="M6130 4342 c-20 -17 -23 -23 -12 -33 10 -11 15 -10 28 3 9 8 14 23 12 33 -3 16 -5 16 -28 -3z"
       id="path212"
       style="fill:none" />
    <path
       d="M6652 4308 c2 -17 10 -23 27 -23 34 0 37 19 6 33 -35 16 -37 15 -33 -10z"
       id="path214"
       style="fill:none" />
    <path
       d="M6456 4225 c-3 -8 -16 -15 -29 -15 -28 0 -47 -17 -40 -36 6 -17 -2 -18 -29 -3 -16 9 -24 7 -36 -5 -23 -23 -4 -49 41 -57 33 -5 37 -3 42 21 10 45 48 74 90 67 24 -4 35 -2 35 7 0 33 -62 51 -74 21z"
       id="path216"
       style="fill:#9999ff" />
    <path
       d="M6557 4202 c-10 -10 -17 -24 -17 -30 0 -16 -6 -15 -35 4 -39 26 -85 -11 -85 -69 0 -32 9 -39 28 -20 10 10 26 13 48 10 21 -4 37 -1 44 8 23 28 51 28 79 1 l27 -26 13 24 c37 68 -53 153 -102 98z"
       id="path218"
       style="fill:#9966ff" />
    <path
       d="M6701 4194 c-29 -37 -28 -68 2 -60 14 3 33 -1 46 -10 18 -13 28 -14 47 -5 13 6 30 8 38 5 18 -7 31 34 21 65 -7 24 -43 28 -51 6 -8 -21 -21 -19 -27 5 -8 30 -51 26 -76 -6z"
       id="path220"
       style="fill:#9966ff" />
    <path
       d="M2505 4165 c-22 -19 -68 -51 -103 -71 -34 -20 -60 -39 -57 -42 3 -3 -34 -46 -83 -96 -81 -84 -141 -156 -128 -156 3 0 21 11 41 24 59 40 176 46 290 14 43 -12 73 -33 62 -44 -4 -4 -46 3 -95 14 -127 32 -136 30 -161 -20 -11 -24 -51 -83 -88 -133 -106 -143 -245 -353 -290 -440 -75 -146 -94 -264 -52 -332 26 -42 34 -37 20 14 -33 118 11 288 91 359 38 33 95 60 105 50 4 -4 1 -21 -6 -39 -68 -160 -98 -321 -85 -451 l7 -69 17 56 c37 119 119 211 245 273 80 39 212 77 221 63 3 -5 -21 -53 -54 -107 -92 -149 -121 -213 -136 -301 l-6 -34 55 52 c63 59 141 99 213 108 64 7 69 -6 32 -83 -19 -38 -31 -84 -36 -128 l-7 -70 89 93 c105 111 167 157 183 137 7 -8 8 -23 1 -45 -5 -18 -5 -42 -1 -54 7 -18 9 -16 15 18 19 99 103 245 141 245 20 0 19 -13 -9 -133 -51 -211 -57 -244 -63 -323 -7 -97 0 -143 28 -179 21 -25 22 -25 41 -8 50 45 107 190 109 272 1 62 23 164 36 168 21 7 23 -16 9 -124 -10 -78 -12 -130 -6 -180 14 -113 61 -228 98 -241 24 -8 33 53 31 198 -2 121 -1 145 12 145 20 0 28 -88 26 -290 -2 -167 -1 -171 25 -226 31 -62 71 -105 88 -94 9 5 10 27 5 71 -5 47 -3 64 6 64 36 0 98 -138 134 -297 24 -105 52 -413 40 -433 -3 -5 -3 -10 2 -10 12 0 78 107 109 175 19 43 28 83 32 143 6 99 19 105 55 25 57 -130 97 -335 82 -424 -9 -54 2 -49 30 14 34 73 53 152 71 297 9 69 19 129 23 133 13 13 29 -15 60 -108 57 -170 73 -339 45 -480 -5 -27 -2 -24 35 25 55 73 108 183 118 245 12 69 33 66 48 -5 6 -30 19 -73 29 -95 18 -43 117 -195 127 -195 3 0 -1 30 -9 68 -19 91 -10 210 27 353 40 155 68 218 85 191 3 -5 12 -64 21 -133 18 -142 45 -252 78 -312 l22 -42 6 125 c3 69 14 154 23 190 25 92 76 210 91 210 8 0 14 -25 17 -82 4 -60 13 -100 32 -143 31 -68 97 -175 109 -175 5 0 6 4 3 8 -9 14 13 302 29 389 32 169 105 343 145 343 9 0 11 -16 5 -64 -4 -44 -3 -66 5 -71 18 -11 66 41 91 99 21 47 22 67 24 271 0 121 5 226 9 233 4 7 13 11 19 9 9 -3 11 -44 9 -143 -3 -146 5 -197 29 -202 20 -4 63 76 82 153 25 102 28 157 12 270 -11 74 -12 112 -5 119 17 17 28 -6 40 -89 27 -195 45 -256 96 -322 48 -64 85 -31 92 82 5 85 -8 175 -53 363 -19 79 -35 150 -35 158 0 25 27 15 59 -21 41 -47 67 -99 90 -182 16 -58 20 -64 25 -43 4 14 2 39 -4 55 -8 22 -8 31 3 42 12 12 21 8 63 -25 27 -21 85 -77 128 -123 l79 -84 -7 70 c-4 39 -18 94 -31 124 -32 70 -32 91 0 91 16 0 25 6 25 15 0 10 -10 15 -30 15 -19 0 -33 7 -40 20 -6 11 -17 20 -25 20 -8 0 -22 11 -31 25 -13 20 -14 31 -6 49 8 18 6 25 -9 34 -10 7 -19 20 -19 30 0 9 -9 23 -20 30 -21 13 -26 47 -11 71 6 9 5 21 -2 33 -9 14 -9 23 1 38 10 17 10 23 -3 36 -18 18 -19 28 -4 56 8 15 8 22 -1 28 -6 4 -10 16 -9 26 2 11 0 25 -4 32 -5 7 3 36 18 69 24 50 25 57 11 65 -27 15 -19 57 18 94 25 25 32 40 29 58 -3 15 2 31 14 43 11 11 18 24 16 30 -5 15 36 52 64 59 27 7 27 8 11 33 -14 22 -4 51 20 57 9 3 25 19 35 36 9 16 25 32 35 35 32 9 90 103 63 103 -5 0 -39 22 -74 49 l-64 48 -5 -61 c-3 -34 -15 -81 -28 -106 -12 -25 -31 -76 -41 -115 -64 -228 -147 -381 -282 -516 -84 -85 -164 -221 -236 -400 -100 -253 -164 -384 -231 -474 -21 -28 -45 -77 -54 -110 -31 -109 -101 -239 -152 -284 -42 -37 -52 -41 -99 -41 -44 0 -62 6 -104 34 l-50 34 -11 -34 c-24 -72 -92 -81 -163 -23 -42 34 -92 113 -82 129 11 18 24 10 44 -28 23 -45 66 -87 105 -102 44 -16 66 9 66 77 0 33 4 53 11 53 7 0 32 -18 56 -41 87 -80 152 -87 215 -21 81 83 140 250 218 622 34 164 68 243 162 374 31 44 56 82 54 83 -2 2 -14 -1 -28 -6 -13 -5 -54 -12 -90 -16 l-66 -7 -7 -64 c-10 -99 -58 -280 -101 -382 -45 -108 -120 -212 -187 -260 -45 -32 -47 -33 -72 -16 -24 16 -27 16 -45 -1 -11 -10 -34 -39 -50 -66 -63 -97 -114 -104 -228 -28 -74 49 -79 51 -127 44 -65 -9 -109 -9 -167 0 -46 7 -51 5 -126 -44 -120 -79 -168 -71 -239 40 -44 68 -57 75 -90 54 -23 -15 -26 -14 -73 20 -131 96 -242 340 -281 620 l-12 83 -65 7 c-36 4 -77 11 -90 16 -14 5 -26 8 -28 6 -2 -1 24 -40 56 -85 33 -46 74 -114 93 -151 35 -69 42 -97 98 -351 56 -259 113 -410 185 -490 63 -70 127 -64 218 20 24 22 48 40 55 40 7 0 11 -19 11 -49 0 -32 6 -56 18 -71 15 -19 21 -20 47 -10 38 14 81 55 108 103 29 52 47 48 47 -11 0 -36 5 -54 20 -67 24 -22 70 -13 77 15 7 27 49 27 56 0 7 -28 53 -37 77 -15 15 13 20 31 20 67 0 53 15 63 31 21 7 -20 7 -39 -1 -65 -18 -62 -73 -85 -130 -55 -20 10 -30 11 -50 0 -14 -7 -37 -13 -51 -13 -31 0 -79 35 -79 57 0 9 -16 0 -46 -26 -75 -66 -154 -63 -170 7 -10 42 -11 42 -65 6 -57 -38 -118 -45 -168 -20 -65 34 -126 133 -176 286 -15 47 -40 101 -55 120 -61 79 -121 198 -207 410 -114 279 -173 380 -293 506 -42 44 -96 112 -119 151 -51 85 -112 234 -136 328 -9 38 -29 92 -42 120 -19 36 -26 67 -27 112 -1 35 -3 63 -6 63 -3 -1 -23 -16 -45 -35z m1823 -2121 c28 -14 52 -32 52 -40 0 -19 -17 -18 -54 5 -42 26 -188 25 -226 -2 -30 -21 -50 -22 -50 -3 0 16 41 45 79 56 58 17 144 10 199 -16z"
       id="path222"
       style="fill:#ff9900" />
    <path
       d="M6218 4168 c-13 -13 -31 -21 -41 -20 -24 4 -67 -24 -67 -45 0 -9 -7 -21 -16 -28 -15 -10 -15 -13 1 -28 23 -23 29 -22 42 13 6 17 23 34 40 41 15 6 40 18 56 26 15 8 36 11 47 8 22 -7 26 6 10 36 -14 25 -45 24 -72 -3z"
       id="path224"
       style="fill:#ffccff" />
    <path
       d="M6881 4142 c-23 -22 -27 -34 -23 -60 4 -30 6 -32 21 -17 23 20 50 19 73 -2 23 -21 89 -27 100 -10 13 20 9 43 -13 71 -20 26 -22 26 -45 11 -23 -15 -25 -14 -34 10 -13 33 -44 32 -79 -3z"
       id="path226"
       style="fill:#9966ff" />
    <path
       d="M6234 4105 c-4 -8 -18 -15 -34 -15 -35 0 -54 -23 -46 -54 6 -26 36 -44 36 -22 0 25 47 59 73 52 25 -6 64 24 54 41 -10 16 -77 15 -83 -2z"
       id="path228"
       style="fill:#9999ff" />
    <path
       d="M6680 4100 c-26 -26 -34 -63 -20 -89 10 -20 13 -20 33 -6 30 21 63 19 81 -6 14 -21 16 -21 39 -6 28 18 42 70 27 98 -13 23 -33 24 -55 3 -15 -15 -17 -15 -31 5 -19 26 -48 27 -74 1z"
       id="path230"
       style="fill:#9933ff" />
    <path
       d="M6544 4089 c-19 -18 -24 -19 -43 -7 -20 12 -25 10 -47 -15 -29 -34 -31 -80 -4 -107 21 -21 40 -26 40 -11 0 14 54 29 83 24 21 -4 28 1 41 25 19 37 20 53 4 87 -14 31 -46 33 -74 4z"
       id="path232"
       style="fill:#9933ff" />
    <path
       d="M7082 4098 c-7 -7 -12 -20 -12 -30 0 -10 -5 -27 -12 -38 -17 -26 -4 -35 24 -16 12 9 30 16 39 16 21 0 31 37 18 62 -11 21 -39 24 -57 6z"
       id="path234"
       style="fill:#9966ff" />
    <path
       d="M6310 4066 c-17 -19 -29 -24 -50 -19 -21 4 -31 0 -44 -18 -20 -29 -21 -102 -2 -118 12 -10 18 -7 31 18 11 22 23 31 40 31 15 0 26 7 30 20 9 28 56 30 85 5 14 -12 16 -9 15 29 0 24 -6 50 -14 59 -20 25 -64 21 -91 -7z"
       id="path236"
       style="fill:#9966ff" />
    <path
       d="M7173 4065 c-24 -17 -31 -49 -13 -60 6 -3 10 -15 10 -26 0 -13 7 -19 21 -19 12 0 23 -8 26 -20 3 -11 12 -20 20 -20 7 0 26 -12 40 -26 30 -30 56 -24 61 15 5 31 -15 51 -50 51 -25 0 -29 3 -23 18 16 38 16 49 -2 70 -25 29 -63 36 -90 17z"
       id="path238"
       style="fill:#9966ff" />
    <path
       d="M6898 4059 c-35 -20 -41 -47 -18 -84 14 -23 19 -42 14 -59 -10 -43 -25 -41 -18 1 8 52 -13 72 -58 55 -28 -10 -33 -9 -54 14 -23 24 -25 24 -54 9 -48 -25 -66 -79 -35 -105 12 -10 19 -10 27 -2 15 15 51 15 65 1 8 -8 16 -7 31 2 20 13 28 11 83 -18 3 -2 11 8 17 22 13 28 75 60 99 50 36 -13 59 49 28 75 -8 7 -25 10 -36 7 -16 -4 -28 1 -41 19 -22 27 -25 28 -50 13z"
       id="path240"
       style="fill:#9900cc" />
    <path
       d="M6060 4025 c-10 -12 -10 -18 1 -31 11 -13 9 -14 -13 -9 -37 9 -72 -26 -63 -63 5 -21 4 -24 -8 -14 -17 14 -43 7 -51 -13 -5 -15 38 -55 59 -55 8 0 11 8 8 20 -7 26 22 70 47 70 11 0 20 7 20 15 0 26 47 48 86 42 36 -6 36 -6 19 13 -10 11 -27 20 -37 20 -11 0 -28 4 -38 10 -13 7 -21 6 -30 -5z"
       id="path242"
       style="fill:#ffccff" />
    <path
       d="M6623 3982 c-14 -19 -18 -33 -12 -43 5 -8 9 -24 9 -36 0 -13 6 -23 14 -23 7 0 19 -7 26 -15 23 -28 22 -7 0 23 -20 26 -21 35 -11 62 6 18 7 39 3 46 -6 11 -13 8 -29 -14z"
       id="path244"
       style="fill:#9933ff" />
    <path
       d="M7061 3973 c-33 -41 -36 -49 -21 -58 6 -3 10 -15 10 -26 0 -15 7 -19 38 -19 21 0 43 -5 48 -10 16 -16 43 -1 59 31 18 33 10 63 -14 54 -9 -4 -20 -9 -26 -11 -6 -2 -10 12 -10 33 0 34 -3 38 -26 41 -21 2 -34 -6 -58 -35z"
       id="path246"
       style="fill:#9933ff" />
    <path
       d="M6330 3975 c-7 -8 -10 -22 -6 -30 6 -18 2 -19 -24 -5 -50 27 -72 -89 -26 -135 22 -21 27 -23 55 -12 27 10 31 16 31 48 0 25 8 47 25 67 31 37 31 47 3 66 -28 20 -42 20 -58 1z"
       id="path248"
       style="fill:#9933ff" />
    <path
       d="M6100 3967 c-17 -9 -24 -20 -22 -36 2 -18 -2 -22 -14 -17 -29 11 -55 -12 -52 -47 3 -30 5 -32 46 -32 39 -1 42 1 42 26 0 32 28 59 62 59 22 0 25 4 21 21 -3 11 -17 25 -30 30 -29 11 -23 11 -53 -4z"
       id="path250"
       style="fill:#9999ff" />
    <path
       d="M6422 3949 c2 -6 14 -16 26 -20 29 -11 28 -5 -4 16 -17 11 -25 12 -22 4z"
       id="path252"
       style="fill:none" />
    <path
       d="M6500 3934 c-18 -18 -31 -23 -48 -19 -81 20 -110 -121 -31 -149 33 -11 79 17 79 49 0 26 25 51 68 66 55 19 35 79 -26 79 -10 0 -29 -11 -42 -26z"
       id="path254"
       style="fill:#9900cc" />
    <path
       d="M6939 3915 c-30 -16 -50 -63 -42 -94 5 -19 7 -19 34 -6 42 22 68 18 97 -13 36 -39 78 -46 103 -19 11 12 18 28 17 36 -5 24 -49 42 -87 35 -29 -5 -33 -3 -27 12 9 24 -20 64 -47 64 -12 -1 -34 -7 -48 -15z"
       id="path256"
       style="fill:#9900cc" />
    <path
       d="M6150 3902 c-26 -8 -39 -33 -33 -63 5 -24 3 -28 -11 -23 -25 10 -64 -4 -76 -26 -15 -28 -4 -55 31 -81 30 -21 31 -21 65 -3 26 14 34 25 34 46 0 31 32 58 68 58 19 0 21 3 12 19 -5 11 -10 29 -10 40 0 12 -1 21 -3 21 -1 0 -16 4 -32 8 -17 5 -37 7 -45 4z"
       id="path258"
       style="fill:#9966ff" />
    <path
       d="M7205 3880 c-3 -11 -15 -25 -26 -30 -11 -6 -19 -21 -19 -35 0 -14 -9 -34 -20 -45 -18 -18 -27 -40 -16 -40 3 0 17 5 32 10 33 13 61 5 69 -20 4 -13 12 -17 23 -13 31 11 72 56 72 80 0 19 -5 23 -32 23 -25 0 -29 3 -20 12 7 7 12 21 12 33 0 44 -62 65 -75 25z"
       id="path260"
       style="fill:#9933ff" />
    <path
       d="M6712 3871 c-27 -23 -28 -55 -2 -81 16 -16 25 -18 40 -10 30 16 49 12 77 -16 20 -20 28 -23 34 -12 29 43 20 100 -18 125 -19 13 -24 12 -43 -7 l-22 -22 -14 21 c-18 26 -25 26 -52 2z"
       id="path262"
       style="fill:#663399" />
    <path
       d="M6548 3855 c-27 -15 -44 -47 -33 -64 3 -6 -8 -17 -24 -25 -38 -20 -47 -50 -27 -81 23 -35 59 -42 92 -16 15 12 37 21 50 21 18 0 24 6 24 20 0 26 27 80 40 80 15 0 -11 60 -30 70 -26 14 -60 12 -92 -5z"
       id="path264"
       style="fill:#663399" />
    <path
       d="M7318 3854 c-16 -8 -28 -20 -28 -26 0 -6 3 -8 6 -5 4 3 15 2 26 -4 15 -8 19 -18 15 -36 -6 -34 39 -76 65 -62 24 13 23 50 -1 56 -16 4 -19 13 -18 46 2 35 -1 42 -18 44 -11 2 -32 -4 -47 -13z"
       id="path266"
       style="fill:#9966ff" />
    <path
       d="M5884 3806 c-27 -23 -28 -26 -12 -42 17 -17 18 -17 38 1 11 10 40 21 63 24 28 4 42 11 42 21 0 11 -14 16 -51 18 -43 3 -56 -1 -80 -22z"
       id="path268"
       style="fill:#ffccff" />
    <path
       d="M2214 3809 c-11 -6 -28 -23 -36 -37 -19 -32 -39 -102 -30 -102 4 0 21 22 38 48 17 26 39 59 48 75 19 28 14 32 -20 16z"
       id="path270"
       style="fill:#000099" />
    <path
       d="M6905 3779 c-45 -40 -49 -67 -5 -44 37 19 67 7 76 -30 3 -14 10 -22 15 -19 15 9 49 -6 49 -22 0 -23 27 -16 50 13 32 41 23 67 -22 71 -28 2 -38 8 -38 21 0 50 -72 56 -125 10z"
       id="path272"
       style="fill:#663399" />
    <path
       d="M6187 3779 c-15 -9 -17 -18 -13 -44 6 -31 4 -34 -20 -37 -15 -2 -33 -12 -41 -24 -12 -18 -11 -24 8 -47 11 -15 30 -27 42 -27 12 0 28 -4 36 -9 9 -6 23 -5 37 1 19 9 22 16 17 40 -3 16 -1 39 5 51 30 65 35 89 21 98 -19 12 -70 11 -92 -2z"
       id="path274"
       style="fill:#9900cc" />
    <path
       d="M6315 3765 c-26 -25 -33 -59 -15 -70 17 -11 11 -23 -9 -18 -20 5 -34 -18 -25 -42 5 -13 91 -52 97 -44 2 2 11 17 21 32 9 15 27 32 39 38 19 8 22 17 19 50 -3 23 -9 39 -17 39 -7 0 -24 9 -38 20 -33 26 -43 25 -72 -5z"
       id="path276"
       style="fill:#9900cc" />
    <path
       d="M5943 3770 c-12 -5 -27 -19 -33 -31 -11 -20 -10 -21 14 -17 38 7 32 -3 -19 -34 -49 -30 -57 -51 -25 -68 34 -18 60 -3 60 34 0 36 15 54 54 64 23 6 24 9 13 32 -14 28 -31 33 -64 20z"
       id="path278"
       style="fill:#9999ff" />
    <path
       d="M6667 3762 c-10 -11 -17 -35 -17 -60 0 -32 6 -45 26 -61 15 -12 34 -21 43 -21 10 0 22 -5 27 -10 7 -7 16 -4 29 10 10 11 24 20 31 20 35 0 45 79 14 110 -26 26 -54 25 -78 -1 l-20 -20 -6 25 c-8 30 -26 33 -49 8z"
       id="path280"
       style="fill:#6600cc" />
    <path
       d="M5835 3734 c-9 -9 -14 -23 -11 -31 3 -8 6 -17 6 -19 0 -9 36 -3 51 9 16 12 14 37 -5 49 -16 11 -23 10 -41 -8z"
       id="path282"
       style="fill:#ffccff" />
    <path
       d="M7290 3715 c-19 -14 -40 -25 -47 -25 -7 0 -13 -4 -13 -10 0 -5 6 -10 14 -10 24 0 46 -29 46 -61 0 -27 3 -29 36 -29 63 0 90 30 64 70 -9 13 -11 13 -19 0 -6 -8 -13 -11 -17 -7 -4 4 -2 13 4 19 17 17 15 42 -6 61 -23 21 -22 22 -62 -8z"
       id="path284"
       style="fill:#9933ff" />
    <path
       d="M6892 3714 c-35 -25 -46 -51 -32 -85 8 -17 20 -29 31 -29 10 0 23 -9 29 -21 15 -27 56 -19 88 18 32 35 26 68 -12 68 -25 1 -31 6 -38 33 -10 36 -30 41 -66 16z"
       id="path286"
       style="fill:#6600cc" />
    <path
       d="M7145 3719 c-11 -5 -25 -20 -31 -33 -9 -20 -7 -25 19 -39 25 -15 28 -21 22 -47 -4 -19 -3 -30 4 -30 6 0 11 -9 11 -20 0 -41 69 -14 97 37 18 35 18 35 -6 54 -13 11 -31 17 -39 14 -11 -4 -13 1 -9 23 9 46 -21 64 -68 41z"
       id="path288"
       style="fill:#9900cc" />
    <path
       d="M3392 3625 c5 -103 22 -157 53 -169 23 -8 79 18 127 59 62 52 86 48 146 -29 l23 -29 37 36 c44 43 58 44 137 17 32 -11 71 -20 86 -20 42 0 122 33 179 74 28 20 55 36 60 36 5 0 32 -16 60 -36 57 -41 137 -74 179 -74 15 0 54 9 86 20 80 27 93 26 138 -17 37 -37 39 -38 53 -18 33 46 67 75 86 75 12 0 44 -18 72 -39 28 -22 64 -45 80 -51 63 -24 96 40 96 185 l0 77 -45 -40 c-85 -75 -212 -92 -318 -42 -26 12 -49 21 -50 19 -2 -2 -7 -17 -13 -34 -5 -16 -24 -40 -43 -52 -80 -54 -264 -6 -350 93 l-31 34 -36 -40 c-84 -93 -268 -140 -343 -88 -19 12 -39 37 -44 53 -5 17 -11 32 -13 34 -2 2 -25 -7 -51 -19 -106 -50 -233 -33 -320 44 l-46 40 5 -99z"
       id="path290"
       style="fill:#663300" />
    <path
       d="M7400 3700 c-13 -8 -13 -13 3 -39 21 -37 21 -50 0 -74 -10 -10 -18 -33 -18 -50 0 -23 -8 -36 -30 -52 -30 -19 -30 -21 -15 -48 19 -34 43 -42 80 -27 35 14 44 35 25 54 -19 18 -19 26 0 26 18 0 38 37 31 56 -4 10 -13 13 -26 9 -26 -8 -26 7 0 23 20 12 28 52 10 52 -5 0 -10 13 -10 28 0 25 -15 52 -29 52 -4 0 -13 -5 -21 -10z"
       id="path292"
       style="fill:#9966ff" />
    <path
       d="M5959 3679 c-8 -16 -8 -28 0 -45 9 -21 8 -24 -8 -24 -24 0 -44 -24 -39 -47 4 -22 39 -39 106 -50 41 -8 52 -7 52 4 0 7 -4 13 -10 13 -14 0 -13 43 2 58 7 7 20 12 30 12 19 0 24 15 8 25 -5 3 -10 16 -10 29 0 45 -109 66 -131 25z"
       id="path294"
       style="fill:#9966ff" />
    <path
       d="M6578 3664 c-29 -15 -40 -64 -15 -64 6 0 0 -10 -15 -21 -23 -17 -26 -23 -17 -43 9 -20 56 -56 73 -56 4 0 4 11 0 24 -4 16 0 28 11 37 9 8 30 27 45 43 l29 29 -41 33 c-22 19 -41 34 -41 34 -1 -1 -14 -8 -29 -16z"
       id="path296"
       style="fill:#6600cc" />
    <path
       d="M5796 3638 c-35 -33 -42 -65 -16 -73 15 -5 19 -12 14 -31 -8 -30 6 -31 50 -2 42 28 65 60 46 66 -21 7 -51 42 -45 52 12 19 -24 10 -49 -12z"
       id="path298"
       style="fill:#ffccff" />
    <path
       d="M6415 3636 c-37 -37 -43 -75 -15 -96 l23 -17 -22 -6 c-28 -7 -27 -41 1 -61 20 -15 23 -14 40 15 10 17 31 36 46 42 19 9 26 18 24 33 -2 12 4 28 12 37 22 22 12 41 -33 60 -48 22 -47 22 -76 -7z"
       id="path300"
       style="fill:#663399" />
    <path
       d="M7063 3634 c-6 -3 -23 -21 -38 -40 l-26 -34 30 -26 c17 -14 31 -32 31 -39 0 -25 49 -24 75 3 30 30 32 48 6 64 -15 9 -17 16 -10 31 6 10 8 25 5 33 -5 13 -48 18 -73 8z"
       id="path302"
       style="fill:#663399" />
    <path
       d="M6792 3614 c-25 -17 -29 -56 -8 -73 27 -23 80 -24 105 -3 32 25 23 55 -14 46 -22 -5 -25 -3 -25 20 0 30 -23 35 -58 10z"
       id="path304"
       style="fill:#660099" />
    <path
       d="M6263 3589 c-28 -10 -55 -52 -47 -73 6 -16 17 -20 42 -17 14 2 16 -15 2 -24 -15 -9 -12 -42 4 -48 16 -7 52 0 83 15 17 9 21 17 17 35 -4 13 -1 29 5 37 17 20 -3 66 -29 66 -12 0 -29 4 -38 9 -9 5 -27 5 -39 0z"
       id="path306"
       style="fill:#9900cc" />
    <path
       d="M6680 3585 c-10 -12 -10 -18 1 -31 12 -15 11 -16 -9 -10 -27 9 -52 -8 -52 -35 0 -23 37 -34 85 -25 21 4 35 13 35 22 0 8 6 17 14 20 13 5 13 11 -1 40 -18 37 -51 46 -73 19z"
       id="path308"
       style="fill:#660099" />
    <path
       d="M6074 3576 c-19 -14 -18 -15 6 -42 17 -18 21 -28 13 -31 -21 -7 -15 -27 15 -55 40 -37 67 -49 100 -42 26 5 30 10 28 38 0 17 -9 37 -19 45 -14 10 -18 23 -15 47 3 27 0 35 -20 43 -32 15 -85 14 -108 -3z"
       id="path310"
       style="fill:#9933ff" />
    <path
       d="M7252 3542 c-22 -23 -22 -25 -6 -43 21 -23 55 -24 94 -4 31 16 41 52 18 59 -49 15 -84 11 -106 -12z"
       id="path312"
       style="fill:#9933ff" />
    <path
       d="M4185 3525 c-74 -50 -136 -68 -210 -63 l-62 5 -12 -46 c-6 -26 -30 -74 -52 -107 -55 -81 -86 -143 -94 -187 -8 -41 -19 -45 -48 -19 -20 17 -20 16 -13 -53 12 -131 46 -267 79 -316 26 -39 60 -48 86 -24 16 13 19 40 24 193 5 188 17 250 60 313 51 76 126 100 231 74 61 -16 71 -16 132 0 105 26 180 2 231 -74 43 -63 55 -126 62 -316 l6 -179 27 -16 c37 -20 56 -8 90 61 30 59 56 175 65 284 6 69 6 70 -14 53 -29 -27 -40 -22 -48 20 -7 38 -34 91 -99 197 -20 33 -42 79 -48 101 l-11 41 -63 -5 c-74 -6 -130 11 -207 62 -30 20 -56 36 -58 35 -2 0 -26 -16 -54 -34z"
       id="path314"
       style="fill:#990000" />
    <path
       d="M5874 3537 c-6 -7 -21 -20 -33 -30 -26 -21 -18 -41 12 -31 20 6 19 3 -6 -24 -36 -38 -33 -66 9 -70 22 -2 37 4 57 24 26 25 26 28 11 45 -11 12 -15 28 -11 47 3 16 1 34 -6 41 -14 14 -19 13 -33 -2z"
       id="path316"
       style="fill:#9999ff" />
    <path
       d="M6915 3539 c-4 -6 -5 -13 -2 -16 7 -7 27 6 27 18 0 12 -17 12 -25 -2z"
       id="path318"
       style="fill:none" />
    <path
       d="M6954 3529 c-11 -12 -17 -32 -16 -46 2 -13 -2 -30 -8 -38 -9 -11 -5 -20 22 -44 39 -36 39 -36 69 -12 23 18 23 20 6 38 -22 25 -21 29 3 36 28 7 25 23 -9 58 -35 35 -42 35 -67 8z"
       id="path320"
       style="fill:#6600cc" />
    <path
       d="M7490 3526 c0 -14 -4 -28 -10 -31 -17 -11 -11 -65 11 -94 17 -23 19 -33 10 -49 -8 -16 -7 -21 5 -26 19 -7 44 10 44 29 0 7 -7 18 -15 25 -14 11 -13 14 7 24 31 16 35 44 8 54 -20 7 -20 9 -6 21 21 18 20 34 -2 54 -28 25 -52 22 -52 -7z"
       id="path322"
       style="fill:#9999ff" />
    <path
       d="M3630 3443 c0 -43 6 -100 14 -128 14 -54 66 -165 77 -165 3 0 9 12 12 28 3 15 29 63 58 107 50 76 89 159 89 189 0 7 -10 16 -22 20 -18 4 -33 -4 -63 -34 -23 -22 -46 -40 -52 -40 -6 0 -29 19 -50 43 -61 69 -63 68 -63 -20z"
       id="path324"
       style="fill:#cccc99" />
    <path
       d="M4813 3490 c-18 -19 -33 -38 -33 -42 0 -5 -11 -14 -25 -20 -23 -10 -29 -8 -68 30 -32 32 -47 40 -65 36 -12 -4 -22 -10 -22 -14 0 -30 36 -110 84 -185 31 -50 60 -102 63 -117 3 -16 9 -28 13 -28 11 0 65 117 79 170 7 25 11 81 9 125 l-3 80 -32 -35z"
       id="path326"
       style="fill:#cccc99" />
    <path
       d="M6760 3510 c-13 -8 -13 -11 2 -26 14 -14 20 -15 32 -4 35 28 5 55 -34 30z"
       id="path328"
       style="fill:#ffff33" />
    <path
       d="M6855 3508 c-42 -14 -79 -62 -71 -93 8 -30 39 -48 67 -40 17 6 20 13 15 36 -5 26 -3 29 19 29 39 0 53 51 21 72 -13 9 -12 9 -51 -4z"
       id="path330"
       style="fill:#660099" />
    <path
       d="M5931 3501 c-17 -11 2 -51 24 -51 19 0 19 -16 0 -24 -21 -8 -19 -42 5 -66 25 -25 60 -19 97 16 14 13 34 24 44 24 26 0 23 9 -16 53 -41 47 -118 71 -154 48z"
       id="path332"
       style="fill:#9966ff" />
    <path
       d="M7149 3487 c-24 -21 -24 -25 -11 -45 12 -18 12 -25 2 -37 -10 -12 -10 -19 -2 -27 17 -17 15 -38 -5 -60 -15 -17 -14 -18 15 -18 54 0 92 56 60 88 -10 10 -6 18 17 37 29 23 29 25 15 52 -20 36 -57 40 -91 10z"
       id="path334"
       style="fill:#9900cc" />
    <path
       d="M6470 3480 c-38 -38 -40 -98 -3 -114 17 -8 20 -16 16 -44 -8 -50 32 -67 92 -40 24 11 35 38 16 38 -19 0 -41 32 -41 60 0 33 19 80 32 80 11 0 10 -14 -3 -27 -6 -6 -9 -28 -7 -49 3 -34 7 -39 30 -42 24 -3 25 -6 18 -31 -11 -40 5 -61 45 -61 25 0 40 8 59 31 31 37 32 50 6 67 -11 7 -20 21 -20 31 0 10 -7 24 -15 31 -8 7 -15 21 -15 30 0 19 -50 37 -70 25 -6 -4 -25 3 -44 14 -42 26 -70 27 -96 1z"
       id="path336"
       style="fill:#6600cc" />
    <path
       d="M3366 3443 c-10 -70 23 -413 39 -413 2 0 10 21 19 47 17 49 41 83 60 83 7 0 11 -30 12 -83 0 -45 6 -104 12 -132 6 -27 13 -66 17 -86 l5 -35 46 43 c25 24 51 42 57 40 7 -2 11 -20 9 -45 -3 -37 12 -149 38 -277 10 -50 11 -51 44 -47 19 2 37 -1 40 -7 11 -17 26 -13 26 7 0 10 15 43 33 73 l33 55 -32 0 c-18 0 -42 8 -53 18 -50 46 -94 195 -111 381 -7 69 -22 154 -36 200 -14 44 -28 107 -32 140 l-7 59 -33 -71 c-18 -39 -36 -91 -40 -115 -6 -34 -12 -44 -30 -46 -27 -4 -39 24 -54 122 -7 41 -20 83 -34 103 l-22 33 -6 -47z"
       id="path338"
       style="fill:#663300" />
    <path
       d="M5084 3455 c-11 -17 -23 -56 -27 -86 -3 -30 -11 -72 -19 -94 -10 -32 -18 -40 -37 -40 -21 0 -26 7 -36 55 -6 30 -25 82 -42 114 l-30 59 -6 -65 c-3 -36 -16 -92 -27 -124 -12 -33 -26 -99 -30 -147 -22 -222 -58 -367 -108 -427 -24 -28 -36 -34 -64 -33 l-36 1 29 -43 c16 -24 32 -57 35 -74 7 -32 18 -39 30 -20 3 6 22 9 40 7 29 -3 35 0 39 16 28 136 38 204 40 271 4 98 15 104 74 40 24 -26 43 -40 45 -33 14 46 38 254 33 283 -12 74 40 46 71 -38 l19 -51 12 65 c20 105 35 335 25 367 l-9 30 -21 -33z"
       id="path340"
       style="fill:#663300" />
    <path
       d="M5766 3468 c-22 -31 -20 -48 7 -48 l22 0 -24 -19 c-29 -22 -20 -41 20 -41 31 0 36 9 17 28 -9 9 -9 18 1 38 23 52 -12 87 -43 42z"
       id="path342"
       style="fill:#ffccff" />
    <path
       d="M6701 3456 c-16 -19 -6 -36 20 -36 21 0 25 -10 8 -27 -15 -15 -3 -33 22 -33 18 0 20 6 17 53 -3 48 -5 52 -29 55 -14 2 -31 -4 -38 -12z"
       id="path344"
       style="fill:#660099" />
    <path
       d="M7051 3451 c-7 -5 -10 -14 -6 -20 14 -24 -4 -60 -35 -68 -28 -7 -29 -10 -18 -26 17 -23 88 -33 117 -18 25 14 28 43 6 61 -13 11 -13 14 2 26 37 27 -27 71 -66 45z"
       id="path346"
       style="fill:#663399" />
    <path
       d="M7260 3447 c0 -8 -9 -22 -19 -31 -16 -15 -18 -22 -9 -42 10 -20 8 -30 -12 -56 -22 -30 -22 -32 -4 -45 31 -23 84 3 84 42 0 13 -6 26 -12 29 -10 5 -10 7 0 12 39 18 55 67 30 92 -16 16 -58 15 -58 -1z"
       id="path348"
       style="fill:#9933ff" />
    <path
       d="M3493 3427 c-31 -10 -33 -14 -32 -57 0 -25 4 -53 8 -64 6 -15 10 -10 20 24 7 23 21 57 31 76 11 19 16 33 12 33 -4 -1 -22 -7 -39 -12z"
       id="path350"
       style="fill:#cccc99" />
    <path
       d="M4971 3383 c16 -32 29 -67 29 -78 l1 -20 9 20 c5 11 9 41 9 66 1 41 -2 47 -21 52 -13 2 -30 7 -39 11 -12 5 -9 -7 12 -51z"
       id="path352"
       style="fill:#cccc99" />
    <path
       d="M6357 3428 c-43 -33 -40 -108 4 -108 18 0 20 -4 15 -26 -13 -52 52 -84 98 -49 19 14 19 16 2 28 -12 9 -17 23 -14 42 2 20 -4 36 -19 52 -13 12 -23 31 -23 41 0 30 -35 41 -63 20z"
       id="path354"
       style="fill:#663399" />
    <path
       d="M6276 3410 c-46 -9 -66 -32 -66 -76 0 -62 23 -79 70 -54 16 9 18 6 13 -29 -4 -32 -1 -41 18 -55 29 -20 49 -20 75 -2 19 14 19 15 -3 36 -13 11 -23 32 -23 45 0 15 -7 26 -20 30 -23 7 -35 44 -26 85 3 17 4 29 3 29 -1 -1 -20 -5 -41 -9z"
       id="path356"
       style="fill:#9900cc" />
    <path
       d="M6890 3401 c0 -30 -26 -44 -69 -38 -37 5 -40 3 -50 -25 -9 -27 -7 -33 18 -59 34 -33 56 -30 66 9 l7 27 20 -28 c23 -32 41 -34 68 -7 30 30 26 76 -9 111 -34 33 -51 37 -51 10z"
       id="path358"
       style="fill:#6600cc" />
    <path
       d="M7440 3400 c-8 -5 -28 -10 -45 -10 l-30 0 32 -31 c25 -25 36 -30 57 -25 31 8 44 32 29 54 -12 21 -25 24 -43 12z"
       id="path360"
       style="fill:#9966ff" />
    <path
       d="M5890 3375 c-14 -7 -43 -18 -65 -25 -22 -7 -46 -17 -52 -22 -20 -16 -15 -49 7 -55 19 -5 20 -7 5 -24 -22 -23 -16 -53 11 -57 29 -4 49 24 45 64 -3 41 29 91 65 100 13 3 24 12 24 20 0 17 -7 16 -40 -1z"
       id="path362"
       style="fill:#ffccff" />
    <path
       d="M6077 3372 c-53 -33 -44 -89 16 -94 28 -2 35 -12 17 -23 -17 -11 18 -64 43 -65 4 0 21 14 37 31 27 30 28 33 13 56 -10 15 -14 36 -10 62 4 34 2 40 -17 45 -37 10 -70 6 -99 -12z"
       id="path364"
       style="fill:#9933ff" />
    <path
       d="M7327 3366 c-13 -10 -16 -21 -11 -40 5 -21 1 -33 -17 -52 -26 -28 -16 -48 22 -42 19 2 24 9 22 30 -1 20 4 28 23 32 35 9 40 33 14 62 -27 28 -29 28 -53 10z"
       id="path366"
       style="fill:#9966ff" />
    <path
       d="M5884 3316 c-41 -41 -45 -83 -6 -79 26 3 27 -4 7 -31 -33 -43 -12 -86 41 -86 64 0 98 83 49 122 -27 21 -33 56 -13 76 14 14 11 17 -20 27 -18 5 -30 -1 -58 -29z"
       id="path368"
       style="fill:#9999ff" />
    <path
       d="M5980 3316 c-6 -8 -10 -25 -8 -38 2 -19 10 -24 43 -26 l40 -3 -25 -19 -25 -19 20 -38 c23 -44 49 -52 94 -28 17 8 31 12 31 7 0 -5 -11 -14 -24 -22 -29 -15 -38 -43 -25 -76 11 -30 34 -40 54 -24 13 10 15 8 15 -13 0 -24 23 -57 38 -57 14 0 34 18 46 41 15 29 0 76 -26 85 -19 6 -48 53 -48 79 0 9 -9 15 -25 15 -30 0 -65 32 -65 59 0 12 -11 23 -30 29 -19 7 -32 20 -36 36 -7 29 -25 34 -44 12z"
       id="path370"
       style="fill:#9966ff" />
    <path
       d="M7406 3304 c-9 -24 -8 -26 16 -22 29 4 38 38 10 38 -11 0 -23 -7 -26 -16z"
       id="path372"
       style="fill:#9966ff" />
    <path
       d="M7008 3283 c42 -40 45 -92 6 -122 -37 -29 -25 -61 22 -61 20 0 35 5 36 13 0 6 1 19 2 27 1 9 13 15 35 16 18 1 40 8 48 16 13 13 13 20 0 49 -18 43 -38 60 -85 69 -20 4 -50 11 -67 15 l-30 8 33 -30z"
       id="path374"
       style="fill:#9900cc" />
    <path
       d="M7462 3285 c-6 -14 -9 -38 -6 -54 3 -16 1 -38 -5 -50 -11 -19 -9 -21 18 -21 41 0 59 32 36 66 -14 22 -14 24 0 24 21 0 30 27 15 45 -19 23 -45 18 -58 -10z"
       id="path376"
       style="fill:#9999ff" />
    <path
       d="M3070 3231 c36 -66 58 -116 184 -416 49 -114 125 -260 126 -237 0 16 -45 224 -66 307 -19 75 -76 182 -149 280 -31 42 -53 80 -50 85 3 5 -11 17 -32 27 -21 9 -41 19 -45 21 -4 2 10 -28 32 -67z"
       id="path378"
       style="fill:#cc6633" />
    <path
       d="M5403 3281 c-18 -9 -33 -22 -33 -28 0 -7 -25 -48 -56 -90 -70 -98 -118 -184 -138 -248 -18 -55 -78 -336 -73 -341 8 -8 104 191 172 356 42 102 98 227 125 278 27 50 45 91 42 91 -4 -1 -22 -9 -39 -18z"
       id="path380"
       style="fill:#cc6633" />
    <path
       d="M6722 3259 c-39 -35 -77 -37 -109 -7 -20 19 -25 20 -33 8 -5 -8 -10 -31 -10 -51 0 -65 76 -117 125 -85 20 13 25 13 35 1 28 -34 61 0 75 75 5 30 2 39 -22 62 l-28 27 -33 -30z"
       id="path382"
       style="fill:#663399" />
    <path
       d="M7158 3283 c-15 -4 -15 -8 -5 -24 6 -10 22 -19 34 -19 12 0 28 -6 35 -13 7 -6 27 -17 43 -22 23 -8 30 -17 30 -38 1 -36 16 -49 51 -45 24 2 29 7 27 29 -1 22 2 26 18 22 27 -7 49 14 49 47 0 22 -7 32 -32 44 -36 18 -52 20 -43 6 4 -6 -1 -22 -9 -35 -20 -31 -60 -33 -83 -5 -10 11 -26 20 -37 20 -11 0 -29 8 -40 18 -12 10 -29 17 -38 15z"
       id="path384"
       style="fill:#9933ff" />
    <path
       d="M6948 3258 c-25 -20 -28 -20 -52 -4 -24 15 -27 15 -46 -1 -28 -24 -25 -49 9 -84 34 -34 66 -37 81 -9 9 17 14 18 31 9 28 -15 49 5 49 47 0 29 -21 65 -38 63 -4 0 -19 -10 -34 -21z"
       id="path386"
       style="fill:#663399" />
    <path
       d="M4024 3251 c-37 -23 -67 -63 -82 -111 -26 -80 -44 -368 -22 -355 6 3 10 17 10 31 0 36 34 28 38 -8 5 -42 119 -254 134 -249 7 2 59 4 115 5 86 0 105 -2 122 -18 25 -23 13 -43 -15 -28 -15 7 -185 10 -216 3 -3 0 -4 -9 -1 -20 4 -14 18 -20 61 -25 99 -12 202 -1 202 20 0 8 27 65 59 128 33 62 67 137 77 165 17 53 44 70 44 27 0 -14 5 -28 12 -32 16 -10 3 255 -17 331 -36 136 -126 184 -258 139 -43 -15 -51 -15 -94 0 -63 22 -131 20 -169 -3z"
       id="path388"
       style="fill:#ff6666" />
    <path
       d="M6243 3249 c-28 -10 -43 -39 -43 -81 0 -36 30 -78 55 -78 9 0 15 -10 15 -25 0 -52 70 -86 101 -48 11 13 11 17 1 21 -22 7 -44 62 -38 96 5 27 2 33 -24 48 -16 9 -32 29 -37 46 -7 25 -11 28 -30 21z"
       id="path390"
       style="fill:#9933ff" />
    <path
       d="M6482 3230 c-37 -31 -45 -53 -30 -85 13 -28 39 -39 68 -30 16 5 20 2 20 -18 0 -47 61 -67 100 -32 24 22 26 35 4 35 -48 0 -100 74 -92 129 4 25 1 28 -19 27 -12 0 -35 -12 -51 -26z"
       id="path392"
       style="fill:#663399" />
    <path
       d="M1941 3189 c-17 -22 -35 -64 -42 -94 -14 -63 -7 -207 12 -250 12 -28 13 -23 20 80 6 94 18 157 55 283 10 36 -13 26 -45 -19z"
       id="path394"
       style="fill:#000099" />
    <path
       d="M7180 3201 c0 -37 -23 -61 -60 -61 -20 0 -29 -6 -34 -22 -9 -34 -8 -35 23 -48 24 -10 34 -9 61 5 27 14 31 21 28 46 -3 17 1 34 9 40 16 14 17 41 1 57 -19 19 -28 14 -28 -17z"
       id="path396"
       style="fill:#9933ff" />
    <path
       d="M5846 3201 c-9 -10 -30 -21 -47 -25 -25 -5 -29 -10 -29 -37 0 -29 2 -31 26 -25 20 5 25 4 21 -6 -3 -7 -8 -21 -12 -30 -16 -40 62 -40 84 0 8 15 5 24 -14 42 -27 25 -31 50 -15 81 13 24 8 24 -14 0z"
       id="path398"
       style="fill:#ffccff" />
    <path
       d="M6393 3182 c-50 -44 -58 -87 -21 -122 20 -18 24 -19 44 -5 31 20 37 19 29 -5 -16 -51 40 -78 86 -41 23 19 23 19 5 54 -14 24 -24 33 -37 30 -11 -3 -29 6 -45 22 -22 22 -26 33 -21 66 3 21 4 39 4 39 -1 -1 -21 -18 -44 -38z"
       id="path400"
       style="fill:#9900cc" />
    <path
       d="M7228 3166 c-22 -31 -13 -66 18 -66 28 0 40 16 24 35 -7 9 -8 15 0 20 5 3 10 13 10 21 0 22 -33 16 -52 -10z"
       id="path402"
       style="fill:#9966ff" />
    <path
       d="M6810 3161 c0 -10 -10 -30 -21 -45 -17 -21 -27 -26 -45 -22 -22 6 -24 3 -24 -28 0 -59 63 -88 95 -43 15 21 17 21 30 4 18 -25 53 -18 78 15 27 36 17 74 -22 83 -16 3 -39 17 -51 31 -28 29 -40 31 -40 5z"
       id="path404"
       style="fill:#9900cc" />
    <path
       d="M6946 3145 c-3 -8 -1 -26 4 -40 16 -43 -29 -115 -72 -115 -23 0 -23 -22 0 -43 34 -31 102 -15 102 23 0 16 5 19 29 14 24 -5 30 -2 36 16 11 35 -3 68 -35 85 -20 10 -33 26 -37 45 -6 33 -18 39 -27 15z"
       id="path406"
       style="fill:#9900cc" />
    <path
       d="M7388 3133 c-6 -15 -10 -38 -9 -50 1 -13 -6 -27 -18 -35 -12 -7 -21 -18 -21 -25 0 -6 -6 -13 -12 -16 -7 -2 -9 -8 -5 -13 4 -5 12 -2 17 6 5 8 12 11 16 8 10 -11 44 11 44 27 0 9 10 15 25 15 14 0 28 7 31 15 8 21 -15 74 -37 86 -16 8 -21 5 -31 -18z"
       id="path408"
       style="fill:#9999ff" />
    <path
       d="M5976 3120 c-35 -42 -36 -107 -3 -146 20 -23 26 -25 44 -15 35 18 43 13 43 -27 0 -101 88 -75 98 30 4 44 3 50 -11 45 -26 -10 -67 30 -67 66 0 30 -16 47 -71 75 -4 1 -18 -11 -33 -28z"
       id="path410"
       style="fill:#9999ff" />
    <path
       d="M6699 3107 c-9 -7 -21 -23 -28 -35 -7 -13 -28 -30 -47 -38 -45 -19 -61 -57 -38 -91 16 -25 42 -28 86 -9 11 5 18 1 23 -13 12 -39 79 -17 85 29 4 30 0 40 -19 40 -23 0 -61 45 -61 72 0 11 5 28 10 39 12 22 11 23 -11 6z"
       id="path412"
       style="fill:#9900cc" />
    <path
       d="M7286 3103 c-4 -8 -6 -33 -6 -55 0 -32 3 -39 18 -36 10 2 16 12 15 25 -2 16 2 20 15 16 19 -5 50 23 38 34 -3 4 -22 12 -41 18 -28 10 -35 10 -39 -2z"
       id="path414"
       style="fill:#9966ff" />
    <path
       d="M5910 3086 c0 -8 -18 -29 -41 -46 -31 -26 -39 -38 -37 -59 3 -22 8 -26 34 -25 27 1 30 -1 26 -21 -5 -27 18 -38 52 -25 29 11 43 30 28 39 -22 13 -44 83 -37 118 5 26 3 33 -10 33 -8 0 -15 -6 -15 -14z"
       id="path416"
       style="fill:#ffccff" />
    <path
       d="M7058 3035 c4 -50 -9 -75 -39 -75 -11 0 -28 -9 -39 -20 -12 -12 -33 -20 -55 -20 l-36 0 15 -29 c16 -30 66 -54 92 -44 12 4 15 15 11 39 -5 32 5 45 18 24 10 -16 40 -12 58 8 20 22 22 63 5 80 -9 9 -9 12 0 12 18 0 34 -40 28 -71 -4 -20 -2 -29 8 -29 21 0 46 34 46 62 0 44 -11 59 -59 81 -25 12 -48 22 -51 24 -3 2 -4 -17 -2 -42z"
       id="path418"
       style="fill:#9933ff" />
    <path
       d="M7182 3062 l-23 -18 20 -18 c22 -20 51 -15 51 9 0 8 7 15 15 15 8 0 15 7 15 15 0 21 -49 19 -78 -3z"
       id="path420"
       style="fill:#9966ff" />
    <path
       d="M3447 3045 c-16 -56 -18 -123 -3 -166 26 -77 49 -125 53 -109 6 26 -43 296 -50 275z"
       id="path422"
       style="fill:#cccc99" />
    <path
       d="M5006 2937 c-10 -67 -20 -134 -23 -149 -11 -56 13 -26 41 52 24 67 27 88 21 138 -3 32 -10 63 -14 70 -3 6 -15 -44 -25 -111z"
       id="path424"
       style="fill:#cccc99" />
    <path
       d="M6408 3029 c-22 -12 -23 -48 -4 -93 19 -46 33 -52 67 -27 15 11 30 21 32 21 3 0 8 -15 11 -34 9 -45 26 -59 59 -47 14 6 30 19 36 29 8 16 5 23 -19 41 -32 23 -39 56 -18 94 10 19 7 18 -20 -5 -18 -15 -41 -30 -52 -33 -26 -8 -67 17 -72 44 -2 16 -7 18 -20 10z"
       id="path426"
       style="fill:#9933ff" />
    <path
       d="M7235 3015 c-6 -8 -17 -15 -25 -17 -18 -4 -33 -49 -20 -62 13 -13 43 2 36 19 -4 12 0 14 18 9 30 -7 39 8 25 40 -14 30 -20 32 -34 11z"
       id="path428"
       style="fill:#9966ff" />
    <path
       d="M6812 2998 c-7 -7 -12 -24 -12 -38 0 -32 -31 -67 -67 -76 -20 -6 -31 -2 -45 16 -18 22 -20 22 -35 7 -23 -22 -22 -81 2 -107 34 -37 105 -15 105 34 0 16 2 16 22 2 30 -22 61 -20 83 4 23 25 22 78 -1 95 -10 7 -19 25 -19 41 -2 31 -15 40 -33 22z"
       id="path430"
       style="fill:#9933ff" />
    <path
       d="M6270 2974 c-21 -55 -6 -90 34 -80 24 6 25 5 14 -19 -25 -55 35 -102 74 -57 27 30 32 62 13 82 -10 11 -20 34 -24 52 -6 25 -12 32 -27 31 -10 -1 -32 2 -47 7 -25 8 -29 6 -37 -16z"
       id="path432"
       style="fill:#9966ff" />
    <path
       d="M7287 2969 c-3 -11 -15 -23 -27 -26 -11 -3 -19 -8 -17 -12 2 -3 9 -21 16 -38 13 -34 25 -39 51 -23 12 8 13 13 2 30 -11 18 -10 20 8 20 26 0 27 31 2 53 -24 22 -29 21 -35 -4z"
       id="path434"
       style="fill:#9999ff" />
    <path
       d="M6165 2925 c-4 -16 -7 -48 -8 -70 -2 -34 1 -40 20 -43 13 -2 27 5 37 19 l15 22 10 -25 c12 -31 24 -40 45 -32 21 8 22 74 2 74 -20 0 -37 25 -38 57 -1 26 -4 28 -39 28 -34 0 -38 -3 -44 -30z"
       id="path436"
       style="fill:#9999ff" />
    <path
       d="M6015 2942 c-43 -9 -62 -84 -29 -117 15 -14 18 -14 40 0 31 20 32 19 27 -9 -6 -31 13 -42 37 -21 26 24 32 55 11 55 -23 0 -47 27 -58 65 -6 23 -13 30 -28 27z"
       id="path438"
       style="fill:#ffccff" />
    <path
       d="M7157 2908 c-12 -12 -25 -16 -42 -12 -13 3 -28 3 -34 0 -16 -10 13 -80 38 -92 30 -15 61 -6 61 17 0 14 7 19 30 19 23 0 31 5 36 24 8 32 -2 46 -30 46 -12 0 -26 4 -31 9 -6 4 -18 0 -28 -11z"
       id="path440"
       style="fill:#9966ff" />
    <path
       d="M6461 2885 c-34 -19 -44 -41 -37 -80 8 -41 25 -54 41 -32 17 24 28 21 20 -4 -11 -34 22 -50 49 -23 24 23 20 69 -9 98 -14 14 -25 32 -25 41 0 18 -6 18 -39 0z"
       id="path442"
       style="fill:#9966ff" />
    <path
       d="M2882 2845 c-25 -53 -27 -65 -9 -65 12 0 43 97 34 106 -2 2 -13 -17 -25 -41z"
       id="path444"
       style="fill:#000099" />
    <path
       d="M7030 2872 c0 -30 -25 -44 -72 -40 -37 3 -43 0 -46 -18 -2 -11 4 -26 12 -33 13 -11 20 -8 41 13 24 24 25 24 35 5 27 -49 84 3 64 58 -11 32 -34 42 -34 15z"
       id="path446"
       style="fill:#9966ff" />
    <path
       d="M6882 2840 c-26 -34 -61 -46 -90 -31 -17 9 -22 8 -27 -9 -3 -11 -11 -20 -16 -20 -6 0 -9 -10 -7 -22 4 -31 43 -36 60 -9 16 26 28 27 28 2 0 -26 25 -44 49 -36 25 7 37 46 23 71 -6 11 -6 27 0 46 14 40 6 43 -20 8z"
       id="path448"
       style="fill:#9966ff" />
    <path
       d="M6593 2843 c-27 -18 -31 -74 -9 -127 20 -49 34 -53 51 -14 12 28 20 31 16 5 -3 -20 22 -47 43 -47 34 0 49 24 42 65 -6 28 -11 35 -30 35 -32 0 -74 35 -83 69 -8 27 -9 28 -30 14z"
       id="path450"
       style="fill:#9966ff" />
    <path
       d="M3578 2822 c-14 -17 -34 -51 -43 -76 l-17 -44 35 -54 c40 -59 84 -105 93 -96 3 4 -4 53 -15 110 -11 56 -22 123 -23 148 l-3 44 -27 -32z"
       id="path452"
       style="fill:#cccc99" />
    <path
       d="M4870 2810 c0 -25 -9 -92 -20 -149 -11 -58 -18 -107 -15 -110 8 -7 52 38 91 95 l37 53 -18 47 c-10 26 -30 61 -46 78 l-28 31 -1 -45z"
       id="path454"
       style="fill:#cccc99" />
    <path
       d="M7250 2835 c-7 -8 -21 -15 -32 -15 -25 0 -34 -28 -15 -47 13 -13 19 -14 31 -3 9 7 16 18 16 25 0 7 9 15 21 18 12 3 19 11 17 18 -6 19 -24 21 -38 4z"
       id="path456"
       style="fill:#9999ff" />
    <path
       d="M2482 2810 c-29 -10 -67 -28 -85 -39 -31 -20 -87 -68 -87 -76 0 -2 25 12 56 30 32 19 78 42 103 51 46 17 79 39 70 48 -2 2 -28 -4 -57 -14z"
       id="path458"
       style="fill:#000099" />
    <path
       d="M5941 2825 c2 -6 13 -32 23 -60 l19 -50 82 0 82 0 -30 28 c-16 15 -38 27 -48 27 -11 0 -22 7 -25 15 -4 8 -17 15 -30 15 -14 0 -36 8 -51 17 -14 10 -24 13 -22 8z"
       id="path460"
       style="fill:#669900" />
    <path
       d="M6121 2803 c-8 -17 -8 -30 -1 -44 11 -20 35 -25 45 -9 10 17 25 11 25 -10 0 -24 22 -26 44 -4 19 19 20 33 3 56 -9 11 -18 14 -28 7 -21 -13 -37 -11 -58 10 -18 18 -19 18 -30 -6z"
       id="path462"
       style="fill:#ffccff" />
    <path
       d="M7067 2784 c-20 -27 -49 -31 -67 -9 -12 14 -15 14 -30 0 -9 -8 -21 -15 -26 -15 -5 0 -17 -14 -27 -31 -16 -29 -16 -34 -2 -55 28 -43 85 -24 85 28 l0 31 23 -21 c29 -28 42 -28 61 0 16 23 22 83 9 91 -5 3 -16 -6 -26 -19z"
       id="path464"
       style="fill:#9999ff" />
    <path
       d="M6310 2757 c0 -56 29 -88 62 -68 11 7 21 11 21 9 25 -51 50 -56 79 -17 17 23 18 29 7 48 -8 11 -22 21 -31 21 -10 0 -23 10 -29 23 -16 31 -15 30 -38 15 -17 -10 -25 -10 -41 0 -29 18 -30 16 -30 -31z"
       id="path466"
       style="fill:#9999ff" />
    <path
       d="M7256 2775 c-9 -14 -25 -25 -36 -25 -13 0 -20 -7 -20 -20 0 -13 -10 -24 -25 -30 -15 -6 -25 -17 -25 -30 0 -11 -12 -27 -26 -36 -25 -17 -26 -17 -59 19 l-34 37 -28 -28 c-19 -18 -27 -35 -24 -49 3 -22 8 -23 93 -23 134 0 260 -30 346 -82 50 -31 31 -33 -29 -3 -74 38 -130 53 -239 65 -130 14 -179 10 -186 -12 -5 -17 -16 -22 -41 -19 -7 1 -13 -7 -13 -17 0 -20 -29 -52 -47 -52 -6 0 -24 15 -39 33 -35 39 -49 40 -85 5 -31 -32 -42 -34 -59 -13 -10 12 -16 12 -40 -6 -23 -18 -30 -19 -48 -8 -19 12 -24 10 -48 -11 -14 -14 -40 -52 -56 -85 -17 -33 -41 -75 -55 -92 -27 -37 -20 -40 34 -18 48 20 51 19 22 -12 -14 -16 -38 -50 -54 -78 -15 -27 -39 -65 -52 -82 -13 -18 -22 -33 -20 -33 17 0 82 35 127 69 68 51 89 53 34 3 -49 -43 -99 -110 -91 -119 3 -3 28 11 56 30 27 20 51 33 54 31 3 -3 -14 -23 -38 -45 -42 -39 -82 -105 -71 -116 3 -4 17 -1 31 5 31 14 31 6 0 -56 -14 -27 -32 -78 -41 -113 -19 -73 -37 -114 -68 -148 -19 -22 -15 -21 43 10 72 38 164 117 187 160 8 16 19 29 25 29 6 0 6 -8 -1 -21 -17 -30 -6 -34 32 -12 19 11 44 40 61 73 32 62 42 75 34 43 -6 -28 3 -29 35 -4 40 32 62 136 38 182 -12 21 -1 26 18 7 9 -9 12 -7 12 13 l1 24 19 -27 c15 -19 26 -25 42 -20 18 4 20 2 13 -14 -12 -30 -17 -137 -6 -153 8 -12 12 -13 25 -1 19 15 33 6 18 -12 -16 -20 -25 -84 -18 -133 8 -47 24 -60 33 -25 5 20 23 28 23 11 0 -5 -10 -40 -21 -77 -24 -79 -60 -154 -98 -203 l-26 -35 34 20 c19 10 50 40 70 66 20 26 39 47 44 47 23 2 -13 -163 -57 -263 -15 -33 -38 -75 -52 -94 -55 -71 -11 -39 103 75 156 156 228 280 269 463 14 60 21 73 45 85 16 9 33 24 39 34 17 33 11 95 -13 144 l-24 46 29 21 c21 16 28 29 28 55 0 75 -80 190 -141 202 -23 4 -29 11 -29 32 0 35 -32 68 -87 93 -51 23 -54 29 -10 26 28 -3 32 0 30 20 -2 12 -1 22 2 22 2 0 24 -21 47 -46 69 -75 138 -97 124 -39 -8 31 13 34 38 6 26 -28 55 -33 73 -11 16 18 18 17 67 -26 50 -44 51 -44 54 -20 8 66 -54 182 -122 226 l-39 25 61 5 c67 6 81 13 63 34 -17 20 -96 56 -123 56 -17 0 -19 3 -10 12 9 9 7 17 -10 35 -29 31 -71 30 -92 -2z m-420 -309 c57 -26 105 -79 131 -143 11 -25 25 -43 34 -43 26 0 95 -52 149 -112 27 -31 50 -59 50 -63 0 -4 -37 28 -83 72 -89 85 -133 110 -123 68 3 -13 15 -76 26 -141 11 -64 25 -132 31 -151 14 -42 4 -57 -12 -17 -10 26 -47 216 -49 254 -1 8 -10 -14 -21 -48 -11 -35 -22 -62 -25 -60 -2 2 3 36 11 74 18 84 18 120 1 159 -15 35 -16 31 -36 -67 -6 -32 -16 -58 -21 -58 -6 0 -8 8 -5 18 20 65 33 158 25 174 -14 26 -85 76 -119 83 -31 7 -51 25 -28 25 7 0 36 -11 64 -24z m153 -26 c49 -23 185 -120 177 -127 -3 -3 -33 15 -68 40 -71 50 -140 87 -163 87 -8 0 -15 5 -15 10 0 15 20 12 69 -10z m-266 -65 c18 -59 15 -218 -6 -295 -28 -101 -89 -218 -150 -285 -30 -33 -58 -57 -61 -54 -3 3 17 30 45 59 134 143 205 420 149 580 -11 30 -19 60 -19 65 0 20 30 -30 42 -70z m362 -241 c21 -13 85 -104 85 -119 0 -17 -19 2 -44 44 -16 27 -45 58 -65 70 -23 13 -30 21 -18 21 10 0 29 -7 42 -16z m4 -100 c40 -24 98 -114 73 -114 -6 0 -14 9 -17 21 -9 28 -64 89 -80 89 -8 0 -17 5 -20 10 -9 15 14 12 44 -6z"
       id="path468"
       style="fill:#666600" />
    <path
       d="M6257 2745 c-9 -19 -21 -35 -26 -35 -14 0 -23 -37 -16 -60 8 -24 22 -25 47 -3 17 15 18 15 12 -15 -6 -28 -4 -32 14 -32 11 0 30 12 42 27 21 27 21 27 2 43 -26 20 -42 53 -42 84 0 36 -13 32 -33 -9z"
       id="path470"
       style="fill:#ffccff" />
    <path
       d="M7112 2753 c-1 -16 -11 -41 -23 -56 -16 -22 -18 -31 -9 -43 27 -32 60 -3 60 52 0 20 3 24 13 16 8 -7 18 -7 27 -2 24 15 -4 60 -38 60 -23 0 -28 -5 -30 -27z"
       id="path472"
       style="fill:#9999ff" />
    <path
       d="M3895 2663 c-83 -127 -93 -167 -56 -226 27 -44 54 -61 87 -53 20 5 136 74 153 91 5 6 -121 265 -129 264 -3 0 -27 -34 -55 -76z"
       id="path474"
       style="fill:#cccc99" />
    <path
       d="M4461 2610 c-36 -71 -63 -131 -60 -133 2 -2 31 -22 64 -44 100 -67 125 -67 173 -2 27 36 29 43 21 87 -6 30 -30 78 -67 134 -31 48 -59 87 -62 87 -3 0 -34 -58 -69 -129z"
       id="path476"
       style="fill:#cccc99" />
    <path
       d="M6527 2722 c-25 -12 -28 -18 -25 -59 4 -56 32 -74 70 -44 22 19 23 19 35 -10 10 -24 18 -29 46 -29 33 0 67 24 67 48 0 7 -11 12 -24 12 -13 0 -29 7 -36 15 -7 9 -21 13 -34 9 -23 -6 -42 10 -61 51 -9 20 -12 20 -38 7z"
       id="path478"
       style="fill:#9999ff" />
    <path
       d="M6784 2717 c-24 -12 -57 -65 -49 -78 3 -5 1 -17 -4 -27 -8 -15 -5 -24 15 -43 31 -29 58 -17 62 30 3 27 22 46 22 21 0 -17 46 -11 63 8 14 16 15 23 4 45 -8 17 -18 25 -28 22 -9 -3 -24 4 -34 15 -20 22 -21 22 -51 7z"
       id="path480"
       style="fill:#9999ff" />
    <path
       d="M5752 2706 c-12 -6 -29 -22 -38 -34 -12 -17 -24 -22 -47 -20 -27 2 -33 -1 -35 -19 -2 -13 0 -23 5 -23 9 0 162 65 169 72 2 3 -4 12 -13 21 -15 13 -22 13 -41 3z"
       id="path482"
       style="fill:none" />
    <path
       d="M6365 2660 c-3 -5 -2 -10 4 -10 5 0 13 5 16 10 3 6 2 10 -4 10 -5 0 -13 -4 -16 -10z"
       id="path484"
       style="fill:none" />
    <path
       d="M6453 2643 c-16 -11 -27 -12 -41 -4 -13 7 -22 7 -30 -1 -14 -14 -15 -57 -2 -78 8 -13 13 -13 41 3 27 15 31 15 25 1 -9 -22 11 -54 34 -54 23 0 60 37 60 59 0 9 -13 23 -29 33 -16 9 -31 25 -33 36 -3 18 -5 18 -25 5z"
       id="path486"
       style="fill:#ffccff" />
    <path
       d="M6920 2631 c0 -14 -59 -44 -75 -38 -7 3 -18 -6 -24 -19 -13 -30 -2 -58 31 -75 29 -16 51 13 42 56 -6 30 -6 30 15 11 17 -16 23 -17 36 -6 22 18 16 74 -7 78 -10 2 -18 -1 -18 -7z"
       id="path488"
       style="fill:#ffccff" />
    <path
       d="M6555 2564 c-12 -30 -13 -40 -3 -52 11 -12 14 -10 20 14 3 16 10 39 13 52 12 37 -13 25 -30 -14z"
       id="path490"
       style="fill:#ffccff" />
    <path
       d="M6596 2564 c-23 -59 12 -95 50 -51 28 32 30 33 37 6 7 -24 34 -23 51 4 14 22 -5 53 -30 49 -11 -2 -31 -6 -47 -9 -15 -3 -33 0 -41 6 -11 9 -15 8 -20 -5z"
       id="path492"
       style="fill:#ffccff" />
    <path
       d="M6089 2111 c-48 -15 -68 -31 -95 -77 -70 -120 27 -283 170 -284 149 0 259 111 253 256 -2 44 -6 59 -17 59 -11 0 -17 -17 -21 -65 -11 -131 -90 -210 -209 -210 -55 0 -102 27 -137 79 -47 70 -19 169 57 198 27 11 40 22 40 35 0 20 -2 20 -41 9z"
       id="path494"
       style="fill:#000066" />
    <path
       d="M5206 1991 c-16 -25 -43 -73 -59 -105 -17 -34 -60 -90 -99 -130 -46 -46 -68 -76 -66 -89 3 -17 10 -14 59 26 68 56 140 159 174 251 33 87 29 108 -9 47z"
       id="path496"
       style="fill:#000099" />
    <path
       d="M3410 1966 c0 -9 5 -16 10 -16 6 0 10 4 10 9 0 6 -4 13 -10 16 -5 3 -10 -1 -10 -9z"
       id="path498"
       style="fill:none" />
    <path
       d="M3265 1899 c-59 -65 -79 -121 -80 -214 0 -95 26 -161 94 -237 42 -47 149 -108 214 -123 25 -5 28 -3 25 16 -2 16 -14 25 -43 34 -184 55 -294 234 -241 393 10 30 36 72 63 103 37 40 43 53 32 60 -21 13 -24 12 -64 -32z"
       id="path500"
       style="fill:#000066" />
    <path
       d="M3390 1650 c-12 -7 -11 -13 10 -35 24 -26 89 -65 109 -65 22 0 -4 42 -36 56 -18 9 -38 25 -44 35 -11 21 -17 23 -39 9z"
       id="path502"
       style="fill:#000066" />
    <path
       d="M4490 1580 c0 -11 5 -20 10 -20 6 0 10 9 10 20 0 11 -4 20 -10 20 -5 0 -10 -9 -10 -20z"
       id="path504"
       style="fill:none" />
    <path
       d="M4727 1593 c-9 -9 -9 -43 1 -43 18 1 34 19 29 34 -7 17 -19 21 -30 9z"
       id="path506"
       style="fill:none" />
    <path
       d="M4488 1537 c-9 -6 -19 -22 -23 -35 -7 -23 -7 -23 24 -7 33 16 36 22 23 42 -7 10 -11 10 -24 0z"
       id="path508"
       style="fill:none" />
    <path
       d="M4960 1536 c0 -7 29 -30 64 -51 249 -145 344 -423 226 -655 -50 -97 -165 -189 -272 -216 -201 -52 -413 94 -426 293 -5 81 18 152 69 206 34 35 37 43 26 55 -12 12 -20 8 -50 -23 -83 -86 -110 -222 -67 -337 61 -162 260 -272 431 -239 218 43 378 240 379 466 0 206 -110 380 -313 494 -43 24 -67 27 -67 7z"
       id="path510"
       style="fill:#000066" />
    <path
       d="M3750 1409 c-19 -10 -58 -26 -87 -34 -49 -15 -82 -39 -70 -51 19 -20 207 54 207 81 0 23 -13 24 -50 4z"
       id="path512"
       style="fill:#000066" />
    <path
       d="M4728 1229 c-31 -9 -38 -16 -38 -35 0 -23 2 -24 23 -13 12 7 51 13 87 13 51 1 74 -4 107 -23 78 -45 123 -137 103 -211 -31 -116 -160 -164 -241 -89 -27 25 -59 30 -59 9 0 -19 84 -79 120 -85 116 -20 224 79 224 205 0 85 -54 169 -136 211 -46 23 -139 32 -190 18z"
       id="path514"
       style="fill:#000066" />
  </g>
</svg>
