<svg xmlns="http://www.w3.org/2000/svg" width="240" height="240" viewBox="0 0 240 240">
  <title>unicorn5_12</title>
  <g>
    <path d="M187,277H427V517H187Z" transform="translate(-187 -277)" style="fill: #fdfdfd"/>
    <path d="M273,393l-2-2a3.8,3.8,0,0,1,.9-1.1c2.4-4.1,4.3-8.6,8.6-11.2,1.1-.7,1.9-2.3,3.4-1.5s1.4,2.3,1.3,3.6c-.7,6.2,2,11.3,5.1,16.3.9,1.5,1.7,2.4,3.5,1.3s3.3-1.7,5.1-2.3c6.9-1.9,9.8-7.8,13.4-13,.2-.6,1-.8,1-1.5a2.9,2.9,0,0,1-1.8.5c-1.6-.2-3-.7-2.9-2.5s2.5-2.5,4.1-3.5l.6-.4,1.1-.5a9.6,9.6,0,0,0,2.1-.7c-.3-.2-.6.2-1,0a2.4,2.4,0,0,1-1.2-1.4c-1.1-8.1-1.1-8-9.5-6.4a44.4,44.4,0,0,0-11.6,4.1c-4.2,2.2-5.5,1.2-6.2-3.8a5.5,5.5,0,0,1,.4-1.5,3.8,3.8,0,0,1,1.5-1.7,4.3,4.3,0,0,1,2.1-.5c2.3,0,4.2-.6,4.6-3.2a4.6,4.6,0,0,1,.2-1.8,5.5,5.5,0,0,1,1.6-1.8,8.1,8.1,0,0,0,1.1-1.4,5.9,5.9,0,0,1,1.6-1.9c1.8-1.4,2.3-3.7,3.8-5.4s4.3-.4,5.2-2.8,3.6-1.4,4.3-3.4,1-2.7,1.8-4l.6-1.1a3.1,3.1,0,0,0,0-2.4l-.6-1-.5-1a13.4,13.4,0,0,0-.8-2l-.6-.9-.8-.8-2-2.1a2,2,0,0,0-2.1-.4,1.7,1.7,0,0,0-.7,1.3c0,.6.1,1.1.1,1.7a3.3,3.3,0,0,1-.4,1.1c-.8,1.1-.8,2.4-1.2,3.6a3.9,3.9,0,0,1-.7,1.2c-1.6,1.2-3.3,2.2-5.4,2.1a2.1,2.1,0,0,1-1.2-.8,9,9,0,0,1-.8-4.4,34.1,34.1,0,0,1,.3-5,5.4,5.4,0,0,1,.4-1.2,3.6,3.6,0,0,0,.8-2.8,4.7,4.7,0,0,1,.3-2.5,5.8,5.8,0,0,1,1.3-1.6c1.8-1.8,6.4-2.6,2.5-6.6a4.6,4.6,0,0,1,.3-3.6,4,4,0,0,1,2.4-1.7,3.4,3.4,0,0,1,3.6,1.6,4.3,4.3,0,0,0,2.7,2.3,9.5,9.5,0,0,1,4.8,3.1l.7.2a1.9,1.9,0,0,1,1,.9,5.4,5.4,0,0,1,.4,2c.6,1.9-1.5,3.3-.2,5.8s2.6,2,4.3,2a2.6,2.6,0,0,1,1.6,2.8,4.5,4.5,0,0,0,.8,4.1,4.6,4.6,0,0,1,.1,3.2,6.5,6.5,0,0,0-1,2.9,3.6,3.6,0,0,1-.5,1.8,2,2,0,0,0-.6,2.1,4,4,0,0,1-.1,2.3c-.3.9-1.2,1.5-1,2.5s2.5,1,4,1.1c7.5,1.7,10.6,8.1,13.7,14,1.3,2.4,3,4.4,4.4,6.7s2.3,5.3,3.1,8.1c1.5,12-4.5,21.1-12,29.4-4.4,4.9-9.9,8.9-13.6,14.5l-.7,1.2a12.1,12.1,0,0,0-1.5,2.1l-.6,1.1-1.2,1.4-.8.9-.4.5-2.7,2.8c-1.2,1.1-2.6,2.1-4.4,1.9s-5.1-1.3-7-3.4,0-2.3.3-3.4a8.9,8.9,0,0,0,.6-3.3c.4-3.3-1.3-5-4.1-6.5-7-3.7-14.4-6.5-21.7-9.5a5.6,5.6,0,0,1-1.2-2.5c-.4-1,.2-2.3-.7-3.2S274.7,395.1,273,393Z" transform="translate(-187 -277)" style="fill: #fcfcfc"/>
    <path d="M263,407a2.5,2.5,0,0,1-3-2c0-.7-.7-.7-1-1a28.3,28.3,0,0,1-1.6-3.2c-.9-2-2.1-4-1.9-6.3s0-3.6,0-5.4a22.9,22.9,0,0,1,.1-7.9,25.3,25.3,0,0,1,.4-4.6,14.2,14.2,0,0,0,.7-3.7,7.6,7.6,0,0,1,.8-3.6,2,2,0,0,1,1.2-.7c1.6,0,3.2.1,4.6-1.2a3,3,0,0,1,4.4-.2c2.2,1.6,3.9.7,5.6-1,4.8-4.4,8-9.3,4.9-16.2-1.3-2.9-3.4-5.7-6.3-5.8-5.6-.1-5.3-2.8-3.9-6.6a4.5,4.5,0,0,1,.5-1.2,8.9,8.9,0,0,1,2.3-2.2l1-.6c.5,0,1,.2,1.5-.1a1.4,1.4,0,0,0,.4-.9v0a1.2,1.2,0,0,1-.6.7h-1c-.6.1-.9.5-1.3.8a9.3,9.3,0,0,0-1.8,1.3,4.1,4.1,0,0,1-3.3,1.7,1.8,1.8,0,0,1-1-.8c-1.6-4,2.6-5.6,3.6-8.5a2.8,2.8,0,0,1,1.4-1.4,5.4,5.4,0,0,1,2,.2c2.5.3,1.6-1.9,2.2-2.9,3.5-3.7,7.2-6.8,12.8-5.6a3.1,3.1,0,0,1,1.7,2.8c-.3,4.9,1.2,9.3,2.7,13.8.7.6-1.5,1.3,0,1.9a9.1,9.1,0,0,1,2.8,2.2c2,2.8,4.4,5.3,6.1,8.4s-1.2,6.8-3.3,9.6-3.4,5.7-7.5,5.1l-.3-.4a3.9,3.9,0,0,1,.2-3.3c-1,.6.2,2.8-1.8,2.7a2.5,2.5,0,0,1-1.5-1.6c-.1-1.3,0-2.6-.1-3.9s0-3.6,0-5.4,0-3,0-4.5a1.9,1.9,0,0,1,.4-1.3,1.7,1.7,0,0,0-.5,1.3c0,1.5,0,3,0,4.5s0,3.6,0,5.4a30.8,30.8,0,0,0,.2,5.3,4,4,0,0,1-.4,1.3,5.6,5.6,0,0,0-1.1,3.8c.2,3.4-1.7,6.1-3.1,8.9a5.6,5.6,0,0,1-.7,1.1,20.1,20.1,0,0,1-2,1.5l-2.1,2-.8.8-.9,1.3-.7.8a11,11,0,0,0-1.7,1.3,12.4,12.4,0,0,0-1.3,1.8l-.7,1-1.2,1.3a5.6,5.6,0,0,0-2,2.1,6.8,6.8,0,0,0-1.2,2.8,5.1,5.1,0,0,1-.7,1.1c-1.6,1.2-.9,3.2-1.4,4.7a13.8,13.8,0,0,0,0,6.6A2.3,2.3,0,0,1,263,407Z" transform="translate(-187 -277)" style="fill: #a2e2d2"/>
    <path d="M321,346q-.5-2.5,2-2c.9-.9.3-2.1.6-3.1a9.2,9.2,0,0,0,1.5-5c.7-1.1-.1-2.9,1.8-3.4l1.3.2c1.2.6,2.1,1.6,3.2,2.3a25.7,25.7,0,0,1,2.6,1.7l2.3,2a8.8,8.8,0,0,1,1.3,1.4,22.2,22.2,0,0,0,2.7,2.9c1.2,1.4,1.9,3.1,3.1,4.5a10.8,10.8,0,0,1,1.2,1.8,16,16,0,0,1,.9,2,79.1,79.1,0,0,1,6.9,20.1c.9,5.1,1.9,10.1,1.9,15.3a17.6,17.6,0,0,1,0,2.4c0,2.5-.3,5.1.4,7.6a30.7,30.7,0,0,1,.6,3.6c.1.7.3,1.4.5,2s-.1,3.2.5,4.7.7,3.5,1.9,4.9.8,3,1.8,4.2h1a2.7,2.7,0,0,1,.8.9c.5.9.9,1.8,1.4,2.6s1.2,1,1.8,1.5v1c.6,1-.3,1.5-.9,2l-1,.6-2.1,1-2.1,1-2.8,1.1c-1.6.7-3.2,1.3-4.8,1.9l-1.3.4c-3.5.7-6.9,2-10.6,2.2a13.3,13.3,0,0,0-3.6.6,10.2,10.2,0,0,1-4.5,0c-4.7-1-9.8-1.1-12.7-6a3,3,0,0,1-.1-1.5,2.9,2.9,0,0,1,.6-1.4c.8-.9,1-2.2,2-3,4.4-6.5,10.8-11.2,16.1-17,7.2-7.9,11-16.9,10.4-27.6A35.7,35.7,0,0,0,344,368c-1.4-.3-1.5-2.9-3.5-2-.1-.2-.3-.6-.2-.7,2.4-2.3-.8-3.1-1.4-4.3-2-3.9-4.4-7.7-7.9-10.6-1.5-1.2-3-2.3-5-2.4S322.5,347.1,321,346Z" transform="translate(-187 -277)" style="fill: #d9e4e1"/>
    <path d="M319,426c2.3,3.5,5.7,5,9.8,5,.8,0,2.1-.7,2.2,1,1.9,1,3.8.5,5.8.2s3,0,4.4-.6c3.3-.8,6.7-1.1,9.8-2.6,1.4-.8,3.2-.4,4.6-1.4s2-1.2,3.2-1.1,2.7-.1,3.5-1.6l.8-.9c1.3-.7,2.9-.9,4-2l1-1c1.8.4,3.5-1,5.3-.4,5.9.7,11.5,2.4,15.7,7,.7,2.1-1.2,2.3-2.2,3.1l-1.3.6-.7.2a5.8,5.8,0,0,1-2.7-.6l-1.2-.6c-3.8-1.7-7.7-2.7-11.8-1.3l-1.1.7-1.3.6c-.9.5-2.6.4-2.6,1.7s1.8,1.1,2.5,1.9a2.7,2.7,0,0,1,.7,2.9c-1.2,1.6-3,1.5-4.7,1.6H342.5c-2.3.1-4.6-.4-6.9.6s-7.2,1-10.8,1.4l-1.3.5a8.2,8.2,0,0,1-1.9.7,3.4,3.4,0,0,1-2-.3c-1.9-1.5-4.4-1.6-6.5-2.4s-.7.6-1.2.7l-1.2.7c-8.8,3.8-17.8,1.7-26.7.8-3,2.4-3.5,5.8-3.8,9.2a5.7,5.7,0,0,1-.8,2.8,4.9,4.9,0,0,1-3.4,1.5,2,2,0,0,1-1.7-1.4,4.3,4.3,0,0,1,0-2.2,17.7,17.7,0,0,0,1.5-7.6,6,6,0,0,1,.5-2c.8-1,1.4-2,.2-3.2a4.4,4.4,0,0,1-.4-1.3,5.2,5.2,0,0,1,.1-1.4c.7-2,1.8-3.5,4.3-2.9s1.9,1.2,3.2,1.2h7.7a16.4,16.4,0,0,0,4.2-.5H297l1.4.2a22.2,22.2,0,0,0,10.3-.1l1.1-.7,1.2-.5a7.2,7.2,0,0,0,3.4-2.5c.8-1.2,1.9-2.2,2.6-3.5A1.4,1.4,0,0,1,319,426Z" transform="translate(-187 -277)" style="fill: #56c9a7"/>
    <path d="M286,319a8.9,8.9,0,0,0-6.2,1.6c-1.9,1.4-4.4,2.1-5.8,4.4a3.8,3.8,0,0,1-2.9,1.1c-1.3-.2-2.7.1-3.9-.7a2.6,2.6,0,0,1-.9-2.1c.2-1.4,1.1-2.3,1.8-3.4h1a5.5,5.5,0,0,0,2-2c1.9-1,4.1-.9,6-2s2.2-.1,3-1,3-1,4.7-1a12.4,12.4,0,0,0,6.2-1.2,11.3,11.3,0,0,1,8.1-.2,5.1,5.1,0,0,1,1.3,3.9,7.2,7.2,0,0,1-.7,3.1,14.6,14.6,0,0,0-1.5,5c-.2,1.9-.1,3.9-.1,5.8s0,1.8,0,2.8,0,.9,0,1.3a2.4,2.4,0,0,0,1,2.3,2.7,2.7,0,0,1,.8,1c.5,1.4.8,2.8,1.2,4.2s1.1,4.4-2,5.1c-3-1.3-3.5-4.8-6-6.6-.2-.2,0-.9,0-1.4-1.9-5.8-7-10.6-5.1-17.6C288.2,320.4,288.1,318.6,286,319Z" transform="translate(-187 -277)" style="fill: #56c9a7"/>
    <path d="M388,460c-1.6,1.1-2.7,3-5,3s-2.4-.2-3.5.1a28.1,28.1,0,0,1-7.7-.1c-1.2-.3-2.3-.7-3.5-.8a7.6,7.6,0,0,1-3.1-1.2l-1-.8-.4-.4-.8-.8-.4-.4-.9-.6-.9-.5-.7-.6-.5-.4v.3a.8.8,0,0,1,.8.5,6.3,6.3,0,0,1,1.4,1.8,5,5,0,0,1,.7,3.3,4.7,4.7,0,0,1-4.1,2.9c-2.9-1.6-4.6-4.3-6.3-6.9s-1-5.3,2.4-6.7,8.7.2,12.5,2.7l2.3,1.6a16.6,16.6,0,0,0,4,2.1,9.1,9.1,0,0,0,3.5.6,10.4,10.4,0,0,0,2.3-.2,3,3,0,0,0,1.7-1.4c.6-1.6-.8-2.9-.8-4.4a4.2,4.2,0,0,1,.6-2.7c.9-.9,1.6-.3,2.3.3s1.2,1.7,2.2,2.2,1.3.9,2,1.4,1,.6,1.4.9l.6,1a5.1,5.1,0,0,1,.6,2.2,1.6,1.6,0,0,1-.6,1C388.7,459.3,388,459.3,388,460Z" transform="translate(-187 -277)" style="fill: #62c4a8"/>
    <path d="M368,429v-1c5-1.3,9.5.1,14,2a10.2,10.2,0,0,1,1.7,1.4,2.4,2.4,0,0,0,2.1.5l3-.2,2.6-.2c2.9-1,6.2-1.2,8.6-3.5h1a3.2,3.2,0,0,1,4-.4c1.1,1.1,1,2.6.8,4s-1.2,3-1.8,4.4-1.3,2-2,3l-1,1-1,1c-.6.5-.4,1.5-1,2s-1.5.4-2,1c-1,2.1-2.5,3.4-5,3-.8.9-2.2.1-3,1s-.8.9-1.2,1H383a1.7,1.7,0,0,1-2-.5l-.3-.6a1.6,1.6,0,0,1,.5-1.3c1.9-1.1,4.6-.6,6.2-2.5s5.3-1.1,7.1-3.5a8.8,8.8,0,0,0,2.2-2.7c.4-.8,1.4-1.8.6-2.6s-1.9.1-2.8.2a5.7,5.7,0,0,1-1.9.1,6.4,6.4,0,0,0-3,.1,5.1,5.1,0,0,1-3.2-.2c-.6-.8-1.2-.7-1.8,0a3.3,3.3,0,0,1-2.1-.3,19.1,19.1,0,0,0-10.3-4.1C370.4,431.1,368.7,430.9,368,429Z" transform="translate(-187 -277)" style="fill: #62c4a8"/>
    <path d="M249,448c.4.3.8.9,1.2,1H255c-.2,2.7-2.6,1.8-4,2.6s1.5,1.3,1.7,2.3l.9.9A22.6,22.6,0,0,0,255,457l1,1c1.4,1.5,2.6,2.9,1,5h-5c-2.3,0-2.3,0-4,2-1.5.5-2.9,0-2.8-1.6.3-4.2-2.3-4.7-5.4-4.9a1.7,1.7,0,0,1-1.1-.5c-.6-1.1,0-2,.3-3s1.2-1.9,1.8-1.9c2.1.2,2.4-.8,2.3-2.5a39,39,0,0,1,0-4.8c0-.3.6-.5,1-.7.6,2.3.6,2.3,2.9,1.3S248.4,447.2,249,448Z" transform="translate(-187 -277)" style="fill: #ecd552"/>
    <path d="M251,375h-8c0-2.1-2.3-.8-3-2a2.3,2.3,0,0,0-3,0l-1-1c-2.8-2.1-.3-2.9,1-4s2.5-.8,3.6-1.4,3.8-1.3,3.9-3.8a1.8,1.8,0,0,1,.7-1.2,3.2,3.2,0,0,1,1.4-.4c5,.7,6.5,4.5,7.5,8.6a7.3,7.3,0,0,1-.3,3.1C253.1,374,252.8,375.4,251,375Z" transform="translate(-187 -277)" style="fill: #a0e3d2"/>
    <path d="M321,314c2.8.7,5.3,2,8,3s3.4,1.1,5,2,5.9,1.2,3.3,5.3a3,3,0,0,1-2,.4,11.7,11.7,0,0,1-2.5-1c-1.1-.2-2.1-1.6-3.2-.2a5.4,5.4,0,0,0,.4,2.8,34.3,34.3,0,0,0,1.8,5,2.3,2.3,0,0,1-.7,2,2.4,2.4,0,0,1-2.8-.3c-4.1-4.5-4.2-11-7.8-15.7a3.1,3.1,0,0,1-.5-3.3A.8.8,0,0,1,321,314Z" transform="translate(-187 -277)" style="fill: #62c4a8"/>
    <path d="M382,393c1-1.4,2-1.4,3,0a1.6,1.6,0,0,0,2.6-.4c.6-.8.7-1.9,1.4-2.6s1-1.3,1.6-.8a3.8,3.8,0,0,1,1.3,2.3c.2,2.1,1.8,3.1,3.1,4.5a.9.9,0,0,1,.3.8c0,.3-.1.4-.1.4s-3.5,1.3-3.2,3.7-.9,2.8-2.7,2.8-2.9-2.1-4.8-1.8a3.4,3.4,0,0,1-2.2-2A13.2,13.2,0,0,1,382,393Z" transform="translate(-187 -277)" style="fill: #ecd552"/>
    <path d="M374,472h-1c-1.8,1.7-4.2,2.4-6,4l-1,1a16.1,16.1,0,0,1-3.1,1.5c-2.6,1.2-4.9,2.9-7.7,3.3a3,3,0,0,1-1.3-.6,2.5,2.5,0,0,1-.4-1.4c2.1-3.5,6.4-3.8,9.2-6.4s3.4-1.5,2-2.8-3.8-1.1-3.9-3.5a4.8,4.8,0,0,1,4.2-2.4,25.7,25.7,0,0,0,6.4,2.6C373.6,468.1,376.8,468.4,374,472Z" transform="translate(-187 -277)" style="fill: #62c4a8"/>
    <path d="M337,324c-1-.5,2.8-1.5-.2-2.1-1-.2-3.4-.4-2.8-2.9a7.5,7.5,0,0,1,3.6.9,38.4,38.4,0,0,1,9.3,7.5,15.6,15.6,0,0,0,2,1.6c.6.5.4,1.5,1,2s.8.5,1.2.8.5.8.8,1.2l2,2a1.5,1.5,0,0,1,.1,2,2.5,2.5,0,0,1-2.7.5c-1.9-1.2-3-3.3-4.8-4.7l-1.5-1.3c-2-3.1-5.9-3.8-8.3-6.3A1,1,0,0,1,337,324Z" transform="translate(-187 -277)" style="fill: #76c1ac"/>
    <path d="M389,428c-.6-.1-1.5,0-1.8-.4-3.5-3.9-8.1-4.9-12.9-5.7-.5-.1-.8-.6-1.3-1s-.5-.4-.4-.7.2-.3.4-.3c2.9-2,6.3-1.1,9.4-1.5A2.6,2.6,0,0,1,385,420a7.2,7.2,0,0,1,.8,1.5l.6.9.8.8c1.2.8,2.4,0,3.6-.1,4.2-.6,4.2-.6,4.2,1.9v1c-.5.6-1.5.4-2,1S390.7,429.3,389,428Z" transform="translate(-187 -277)" style="fill: #9be4d2"/>
    <path d="M216,341c-3.4.9-2.9-2-3.8-3.8,1.7-.7,3.9.5,5.4-1.1,1.6,1.8,3.7.7,5.6.9a4.6,4.6,0,0,1,3.8,2c1.2.9,2.7,1.5,2.8,3.3a2.5,2.5,0,0,1-.8,2c-2.8.9-4.6-1.5-6.9-2.1S218.3,340.2,216,341Z" transform="translate(-187 -277)" style="fill: #ecd552"/>
    <path d="M265,481c.7.2,1.6.3,1.9.8a7.3,7.3,0,0,1,.9,2.5,2.2,2.2,0,0,1,0,1.3c-.2.4-.6,1-1,1-2.3.2-2,4.1-4.8,3.4s-5.5-3-4-7v-1a5.5,5.5,0,0,1,1.7-1.4,3.1,3.1,0,0,1,1.6-.2l.9.5a1.3,1.3,0,0,1,0,1l.2-.4a1.7,1.7,0,0,1,1.2-1A1.5,1.5,0,0,1,265,481Z" transform="translate(-187 -277)" style="fill: #ecd552"/>
    <path d="M246,385l1-1,1-1,.9-.8a3.3,3.3,0,0,0,1.3-2.6,16.6,16.6,0,0,1,.6-1.8c.7-.6.6-1.7,1.5-2.2a1.7,1.7,0,0,1,1.2.7c1.1,2.2.5,4.9,2,7-.1,1.2.2,2.6-.6,3.7h-2a4.2,4.2,0,0,0-2,1,11.1,11.1,0,0,1-2.5,1.4C245.6,389.1,245.5,387.2,246,385Z" transform="translate(-187 -277)" style="fill: #9be4d2"/>
    <path d="M264,431c-.2-1.9,1.1-3.5,1.2-5.5s1.2-3.5,1.6-5.1,2.3-4.7,4-6.7,2.8-3.1,4.2-4.7c2.4,0,1.8,1.7,1.8,3.1a3.5,3.5,0,0,1-.6,1.2,10.2,10.2,0,0,0-4.3,4.7c-1.6,3.1-3.3,6.2-4.1,9.6C266.8,429.1,267.3,432.2,264,431Z" transform="translate(-187 -277)" style="fill: #3c534c"/>
    <path d="M285,465v-1c-1-2.1-1.2-4.5-2.2-6.7s0-2.9-1.7-3.6a3.7,3.7,0,0,1-.8-1.2,8.1,8.1,0,0,1-.1-3c.4-1.5,1.3-2.3,2.9-1.7,3.3,6,5.2,12.6,7.4,19a2.1,2.1,0,0,1-.9,2.6C286.4,469.6,286.9,466.1,285,465Z" transform="translate(-187 -277)" style="fill: #62c4a8"/>
    <path d="M264,431c1.3.2,2.2-.1,2.1-1.8s-.7-2.1.9-2.2c2.2,2.4,1.1,5.3,1.4,8,0,.8,0,1.5,0,2.3a8.7,8.7,0,0,0,.5,3.5c.8,2.9,3.6,5.2,2.6,8.6l-.5.5c-2.2-2.7-5-5-5.4-8.8,0-.3-.6-.5-.6-.7C265.6,437.2,263.7,434.2,264,431Z" transform="translate(-187 -277)" style="fill: #4d6860"/>
    <path d="M381,464a4.9,4.9,0,0,1-1.3,1c-.7.2-1.7-.3-1.7,1s-.4,1.5-1,2a1.9,1.9,0,0,1-2,.5c-1.4-.7-2.9-.3-4.3-.9s-3.5-.8-4.5-2.6-.2-2.7,1.3-3.4a4.8,4.8,0,0,1,3.7.8,15.3,15.3,0,0,1,3.1.3C376.5,463.5,379,462.2,381,464Z" transform="translate(-187 -277)" style="fill: #f6f8f8"/>
    <path d="M267,325h4a1.7,1.7,0,0,1,.3,2,.8.8,0,0,1-1.3,0l-1,1c-2.7,1.6-3.9,5.8-8.2,5a3.4,3.4,0,0,1-.8-2.9,5.9,5.9,0,0,1,.9-2.1l1-1c.9-1.1,1.5-2.5,3.1-2.7A2.4,2.4,0,0,1,267,325Z" transform="translate(-187 -277)" style="fill: #62c4a8"/>
    <path d="M216,341c1.5-1.9,3.3-1,5-.5s4.9,1.3,6.5,3.4c.2.2.9,0,1.4,0s1.5.5,1.3,1.4-2.2,1.1-3.3,1.6-2.2-1.5-3.3-1.6-3.2-2.1-4.7-3.4-1.5-.4-2-1Z" transform="translate(-187 -277)" style="fill: #e3c025"/>
    <path d="M263,407v-2a9.3,9.3,0,0,1,.5-7.2c.2-.7.6-1.2,1.5-.8s1,.6.9.8-2.1,3.1,0,4.7l-.6.7c-.7,1.2-.4,1.8,1,1.8h1.5c1.2,0,1.3.7,1.1,1.6-.7,2.6-2.7,2.7-4.9,2.4C263.4,408.5,263.6,407.5,263,407Z" transform="translate(-187 -277)" style="fill: #f6f8f8"/>
    <path d="M317,314c-1.6-.6-2.5-2.7-4.7-2.2a4.8,4.8,0,0,1-.3-.8c-.9-.8-2.2-1-3-2a2.5,2.5,0,0,0-3-2,2.2,2.2,0,0,1-.7-1.2,2,2,0,0,1,.7-1.8c1.3.4,2.8.6,3.8,1.4a85.3,85.3,0,0,1,6.8,5.8c.4.3.2,1.2.4,1.8s.5.4.4.7S317.1,314,317,314Z" transform="translate(-187 -277)" style="fill: #4d6860"/>
    <path d="M239,458h4.5a2.3,2.3,0,0,1,2.5,2.4,21.2,21.2,0,0,1,0,2.5c0,1.2,0,1.2,2,1.7,0,0,0,.3,0,.5s-1.4,1.8-2.1,2.6a1.5,1.5,0,0,1-1.3.4c-.3-.1-.5-.7-.6-1.2a16.5,16.5,0,0,1,0-2c0-1.5.5-3.6-.3-4.3s-3.1-1.1-4.7-1.5-.3-.4-.3-.7S238.9,458,239,458Z" transform="translate(-187 -277)" style="fill: #968643"/>
    <path d="M318,491h-1c-1.2-1.4-2.9-1.6-4.4-2.2s-1.3-.3-1.8-.7a1.6,1.6,0,0,1,.3-1.2c2-1.6,4.6-.4,6.7-1.6l1.1-.6a1.1,1.1,0,0,1,1.1.4,2.5,2.5,0,0,1,2,3C323.3,492.5,318.9,489.5,318,491Z" transform="translate(-187 -277)" style="fill: #76c1ac"/>
    <path d="M281,453h1a1.4,1.4,0,0,1,0,2c-.3.2-.9.5-1,.7s0,2.9-.1,4.3a1.5,1.5,0,0,1-.8.9,3.5,3.5,0,0,1-1.2-1c-.2-.2,0-.6,0-.9v-.5h-.5a1.8,1.8,0,0,1-.8-.6,3.3,3.3,0,0,0-.5-.9l-1-1a1.3,1.3,0,0,1,0-2c.5-1.9,2-.6,3-1S280.3,452.9,281,453Z" transform="translate(-187 -277)" style="fill: #76c1ac"/>
    <path d="M285,465c.7.1,1.5-.4,2,.7s.4,2.7,2,3.3,5.7,1.9,4.3,5.9a.8.8,0,0,1-1.3.1c-.6-.1-1.5,0-1.8-.4C288,471.7,285.7,468.8,285,465Z" transform="translate(-187 -277)" style="fill: #4c8374"/>
    <path d="M367,368v10c-1.2,1.5.2,3.5-1,5l-1,1a3.5,3.5,0,0,1-1-1.5c-.4-4.8-1.1-9.6.6-14.3A1.7,1.7,0,0,1,367,368Z" transform="translate(-187 -277)" style="fill: #4d6860"/>
    <path d="M357,339c.7.1,1.8-.5,2,.8s-.6,3.4,1.9,3.6c.3,2,2.3,3.4,2.1,5.6-.9.6-1.8.2-2.6-.2s-2.5-3.7-4.2-5.1a3.2,3.2,0,0,1-.7-3.3A2.4,2.4,0,0,1,357,339Z" transform="translate(-187 -277)" style="fill: #4c8374"/>
    <path d="M262,481h-2c-.7.6-1.3-.1-2,0s-2.8,1.1-3-1.2.5-3.3,2.9-2.7a42.6,42.6,0,0,1,5.1,2C263.6,480.1,262.7,480.5,262,481Z" transform="translate(-187 -277)" style="fill: #f6f8f8"/>
    <path d="M389,433h-4a1.6,1.6,0,0,1-.6-1,1.4,1.4,0,0,1,.6-1,6,6,0,0,1,3-1,3.6,3.6,0,0,1,3,1c2.6-.4,4.7-2,7.2-2.7l1.8-.3c-.2.7-.3,1.5-.7,2s-6.7,1.9-8.3,2S389.5,432.4,389,433Z" transform="translate(-187 -277)" style="fill: #4c8374"/>
    <path d="M382,393c.3.4.9.8,1,1.2s0,3.9,0,5.8c-.3.4-.4,1-1,1s-2.4-1.9-3-3.3.7-2.9,1.2-4.4S381.4,393.1,382,393Z" transform="translate(-187 -277)" style="fill: #f6f8f8"/>
    <path d="M306,304v2l-2,2v4a2,2,0,0,1-1.3,1.5,2,2,0,0,1-2-.6,1.6,1.6,0,0,1,.3-2l1-1c0-2,2.3-4,0-6.1-.1-.1.3-.8.3-.8S305.2,301.9,306,304Z" transform="translate(-187 -277)" style="fill: #3c534c"/>
    <path d="M255,445.1c.3,1.6-.5,2.1-1.9,1.9s-1.5.2-2.2-1.1-2-2.9-1.8-3.8.5-.9.8-1,1.2.4,1.2.5.9,1.5,1.9,1.4S255.4,443.3,255,445.1Z" transform="translate(-187 -277)" style="fill: #f6f8f8"/>
    <path d="M395,425c-.3-2.2-.3-2.2-1.9-1.6a22.1,22.1,0,0,1-3.1.6,4.3,4.3,0,0,1-4-1l-1-1v-2c2.9,2.5,6.5,2,9.9,2a6.5,6.5,0,0,0,1.9-.7,10.5,10.5,0,0,1-.3,2.6C396.3,424.4,395.5,424.7,395,425Z" transform="translate(-187 -277)" style="fill: #75948b"/>
    <path d="M227,347c.1-1.6,1.3-.8,2.1-1s1.1-.7-.1-2v-2a1.6,1.6,0,0,1,1.3-.5,2.3,2.3,0,0,1,1.5,1.4c-.3,3.5,3.2,4.8,4.5,7.4l-.2.7c-2,.3-3.6-.7-5.1-1.6Z" transform="translate(-187 -277)" style="fill: #968643"/>
    <path d="M385,420l-2-1a17.8,17.8,0,0,1-9,0c.1-.9-.4-2.1,1.3-2h7.5C384.9,417,384.9,417,385,420Z" transform="translate(-187 -277)" style="fill: #d9e4e1"/>
    <path d="M258,483c1.8.7,1,1.8.6,3s-.7,1.9,1.3,2,1.2-.2,1.4,0a7.7,7.7,0,0,1,.7,2c-1.2.2-2.8,2.6-3.2-.7a.5.5,0,0,0-.3-.3c-1.8-.1-2-2.3-3.5-2.8Z" transform="translate(-187 -277)" style="fill: #f6f8f8"/>
    <path d="M363,393v2c-1.2,2.2-.9,5.5-4.2,6.3-1.2-.3-1.4-1.2-1.4-2.3.6-3.3,1.5-6.5,4.8-8.3C363.4,391.1,363.8,391.8,363,393Z" transform="translate(-187 -277)" style="fill: #4d6860"/>
    <path d="M359,401c1.6-1.8,2.2-4.3,4-6a9.2,9.2,0,0,0,0,2.4c.8,2.7-1.8,3.7-2.6,5.6-2-.7-1.2,3.3-3.4,2-.5-.8-.2-1.6.2-2.4A3.5,3.5,0,0,1,359,401Z" transform="translate(-187 -277)" style="fill: #a2e2d2"/>
    <path d="M250,343h3a1.8,1.8,0,0,1,2-.4c1.1.9,2.4,1.7,1.9,3.5s-3,1.1-4.6,1.6h-1.4a3.2,3.2,0,0,1-2.3-3.2C248.8,343.7,249.5,343.5,250,343Z" transform="translate(-187 -277)" style="fill: #4d6860"/>
    <path d="M247,390c-1.8,2.6-4.5,1.9-7,2a2.1,2.1,0,0,1,0-3c.6-2.2,2.3-2.1,4-2C243.4,388.3,243.9,388.8,247,390Z" transform="translate(-187 -277)" style="fill: #75948b"/>
    <path d="M247,390h-5.3l-.4-.2L244,387l2-2a13.4,13.4,0,0,1,1,2.9c.2,1.6,1.2,1,2,1.1s.4.4.3.7-.2.3-.3.3Z" transform="translate(-187 -277)" style="fill: #a2e2d2"/>
    <path d="M245,356a18.5,18.5,0,0,1-9-5c4.2-1.6,7.1.2,9.5,3.5A2,2,0,0,1,245,356Z" transform="translate(-187 -277)" style="fill: #968643"/>
    <path d="M301,311v2c1.2,1.6.4,2.8-.6,4a1,1,0,0,1-1.4,0v-4c-2.5-1.4-5.5.3-8-1,.4-.3.8-.9,1.2-1Z" transform="translate(-187 -277)" style="fill: #76c1ac"/>
    <path d="M363,393c-.2-.8.5-1.9-1-2a2.7,2.7,0,0,1-.7-2.2c.8-2-.5-4.9,2.5-6,1.4,1.1,0,3,1.2,4.2s0,3.2,0,4.8S363.8,392.9,363,393Z" transform="translate(-187 -277)" style="fill: #4c8374"/>
    <path d="M347,485c-.1.3-.2.8-.3.8a11.4,11.4,0,0,0-4.9,1.2c-2.1-1.9-4.6-.6-7-1-.3-.1-.5-.6-.8-1a3.5,3.5,0,0,1,2.2-1.6h1.4a26.8,26.8,0,0,0,5.5.5,7.1,7.1,0,0,1,3.5.7Z" transform="translate(-187 -277)" style="fill: #4d6860"/>
    <path d="M231,343l-1-1c-.5-.9-1.5-1.7-1-3h2a5.4,5.4,0,0,0,4,1.6,7.5,7.5,0,0,1,2.3,1.3c.1,1.6-1,2.5-2.2,3.3S232.2,344.1,231,343Z" transform="translate(-187 -277)" style="fill: #ecd552"/>
    <path d="M318,491c.2-1.7,1.5-1,2.2-.9s1.9-.7,1.8-2.1a9.1,9.1,0,0,0,2,1c1.6.3.8,1.5.9,2.3s-.9.5-1.5.7S319.9,490.8,318,491Z" transform="translate(-187 -277)" style="fill: #4c8374"/>
    <path d="M367,368h-2c-1.8-3.4-2.7-6.9-1.5-10.7a1,1,0,0,1,1.5-.3v2l1,1v3c.6.5.4,1.5,1,2Z" transform="translate(-187 -277)" style="fill: #3c534c"/>
    <path d="M385,401a13.2,13.2,0,0,1,2.1.7A14.1,14.1,0,0,1,389,403c.5.6,1.6.9,1,2s-3,1-3.2-1.6c-.1-.7-1.5-.7-1.7.2s-.5,1.7-1.4,1.3-.5-1.3-.7-2a3.9,3.9,0,0,1,0-1C383.5,401.3,384.5,401.7,385,401Z" transform="translate(-187 -277)" style="fill: #f6f8f8"/>
    <path d="M215,333c-1.3-.4-3.8.8-3.8-.8s2.5-1.1,3.8-1.1,3.7-.9,3.8.7S216.3,332.5,215,333Z" transform="translate(-187 -277)" style="fill: #f6f8f8"/>
    <path d="M291,312h6.8c.4,0,.8.6,1.2,1h-6.8c-.4,0-.8.6-1.2,1s-1.7.4-2.7.4A1.8,1.8,0,0,1,287,313c.4-.3.7-.9,1.2-1A17.8,17.8,0,0,1,291,312Z" transform="translate(-187 -277)" style="fill: #75948b"/>
    <path d="M319,481v2a1.4,1.4,0,0,1,0,2c-1.7,1.1-2.6,0-2.8-1.3s-1.8-4.2-1.4-6.5,1.8-.4,2.7,0S318.5,479.7,319,481Z" transform="translate(-187 -277)" style="fill: #62c4a8"/>
    <path d="M237,368c-.2.4-.3.9-.7,1.1s-1.1,1.8-.3,2.9c-1.7.5-2.9-.9-4.5-1.1s-.4-.8-.5-1.2a.9.9,0,0,1,.5-.7Z" transform="translate(-187 -277)" style="fill: #75948b"/>
    <path d="M319,481a4.9,4.9,0,0,1-1-1.3c-.2-.7.3-1.7-1-1.7a.9.9,0,0,1-.3-.8c.1-.3.2-.4.3-.4,3.5-1.1,5.5,1,7.2,3.6l-.2.7c-1.2-.1-2.4.4-3.5-.8S319,479.8,319,481Z" transform="translate(-187 -277)" style="fill: #4d6860"/>
    <path d="M361,417v-1c1.2-1.9,3-.7,4.6-.8s.5,1,.3,1.2a27.3,27.3,0,0,1-2,2.6.8.8,0,0,1-1,.3A9.2,9.2,0,0,1,361,417Z" transform="translate(-187 -277)" style="fill: #f6f8f8"/>
    <path d="M355,481c2.5,0,4.1-1.8,6.2-2.7a8.1,8.1,0,0,1,1.8-.3q.4.3.3.7t-.3.3c-1.7,1.6-3.6,2.9-6,3S354.9,482.9,355,481Z" transform="translate(-187 -277)" style="fill: #3c534c"/>
    <path d="M276,413a17.8,17.8,0,0,0,0-2.8c-.1-.4-.6-.8-1-1.2,0-2.1,1.7-3.8,1-6q.5-.7,1,0c1.5.1.8,1.2,1,2C278,407.8,279.9,411.1,276,413Z" transform="translate(-187 -277)" style="fill: #d9e4e1"/>
    <path d="M390,405l-1-2c2-.2,2-.2,2-3,.6-.5.9-1.6,2-1s0,2.3,0,3.4S393,404.9,390,405Z" transform="translate(-187 -277)" style="fill: #75948b"/>
    <path d="M250,451c.2-1.7,1.5-.7,2.3-1s2.4.9,2.7-1h1.4c1.8-.3,1.6.9,1.6,2a2.7,2.7,0,0,1-1,2h-1a12.9,12.9,0,0,0-3.6-.9A3.2,3.2,0,0,1,250,451Z" transform="translate(-187 -277)" style="fill: #968643"/>
    <path d="M237,342c-.8-.2-1.9.5-2-1a1.4,1.4,0,0,1,2,0c2,.1,4.2-.5,6,1a.9.9,0,0,1,.4.7c0,.3,0,.4-.1.4a6.8,6.8,0,0,1-2.4,2.1,1.6,1.6,0,0,1-1.2-.2A17.3,17.3,0,0,1,237,342Z" transform="translate(-187 -277)" style="fill: #968643"/>
    <path d="M365,357h-1c-2.5.1-2.1-2.2-2.9-3.5s-.6-1.8-.8-2.8a2.8,2.8,0,0,1,.8-2.7l2,1v3l1,1a1.4,1.4,0,0,1,0,2Z" transform="translate(-187 -277)" style="fill: #4d6860"/>
    <path d="M273,393l.7-.8c.8,2.6,3,4.8,2.3,7.8C274.2,398,272.8,395.8,273,393Z" transform="translate(-187 -277)" style="fill: #75948b"/>
    <path d="M240,389v3c-2.1,0-3.8-1.7-6-1a.7.7,0,0,1-.2-.7q.1-.3.2-.3Z" transform="translate(-187 -277)" style="fill: #3c534c"/>
    <path d="M333,485c-1.9-.2-4.2.8-5-2a2,2,0,0,1,1.1-1.5,3.1,3.1,0,0,1,1.9-.1,5.9,5.9,0,0,1,2.2,1.3,2.5,2.5,0,0,1,.4,1.2A1.8,1.8,0,0,1,333,485Z" transform="translate(-187 -277)" style="fill: #4c8374"/>
    <path d="M408,425a6.8,6.8,0,0,1,1.4-1.8c.7-.4,1.5-.5,1.6.8.3,2.7.2,2.9-3,3A1.3,1.3,0,0,1,408,425Z" transform="translate(-187 -277)" style="fill: #f6f8f8"/>
    <path d="M367,476a7.1,7.1,0,0,1,6-4c-.1.6-.1,1.7-.3,1.7C370.7,474.2,369.3,476.1,367,476Z" transform="translate(-187 -277)" style="fill: #4c8374"/>
    <path d="M375,468h2c.2,2.2-1.4,3.1-3,4l.6-2.9a22.8,22.8,0,0,1-2.9-.2c-.3-.1-.5-.6-.8-1l.6-.4C372.7,467.6,373.9,467.2,375,468Z" transform="translate(-187 -277)" style="fill: #4c8374"/>
    <path d="M257,463l-1-5c2.9.8,3.7,2.1,2.8,4.6C258.6,462.9,257.6,462.9,257,463Z" transform="translate(-187 -277)" style="fill: #968643"/>
    <path d="M256,395l1.3,3.8.7,2.2c.4,1.1-.1,1.2-1,1-1.1-2.2-2.6-4.3-2-7Q255.5,394.3,256,395Z" transform="translate(-187 -277)" style="fill: #75948b"/>
    <path d="M253,451h1.4c1.8-.3,1.6.9,1.6,2l-1,1c-.5.6-.9,1.6-2,1S251.6,452.3,253,451Z" transform="translate(-187 -277)" style="fill: #ecd552"/>
    <path d="M255,387v-4c-.8-1.1-.4-1.8.6-2.4a1.5,1.5,0,0,1,1.4.4c.1,2.7-1.7,5.2-1,8q-.5.7-1,0Z" transform="translate(-187 -277)" style="fill: #4d6860"/>
    <path d="M358,403l-1,2v2q-.5.7-1,0c-.3-.4-.9-.8-1-1.2a37.3,37.3,0,0,1,0-3.8,1.8,1.8,0,0,1,1.1-.5A2.3,2.3,0,0,1,358,403Z" transform="translate(-187 -277)" style="fill: #4d6860"/>
    <path d="M255,343h-2a14.9,14.9,0,0,1,2-5,1,1,0,0,1,1.3,0,3.2,3.2,0,0,1,.4,2.8A3.7,3.7,0,0,1,255,343Z" transform="translate(-187 -277)" style="fill: #3c534c"/>
    <path d="M374,419h9c-.4.3-.8.9-1.2,1H373Z" transform="translate(-187 -277)" style="fill: #4d6860"/>
    <path d="M283,457c2.1,1.9,2,4.5,2,7-1.9-1.2-2.1-3-2-5A1.4,1.4,0,0,1,283,457Z" transform="translate(-187 -277)" style="fill: #4c8374"/>
    <path d="M267,390a2.5,2.5,0,0,1,2-3l1-1a.9.9,0,0,1,1.3.1,2.6,2.6,0,0,1,0,2.9.9.9,0,0,1-1.3.1Z" transform="translate(-187 -277)" style="fill: #4c8374"/>
    <path d="M285,315h-5c.8-2.8,3.1-1.8,5-2a1.2,1.2,0,0,1,0,2Z" transform="translate(-187 -277)" style="fill: #4c8374"/>
    <path d="M389,428l2.2-.7,1.8-.3-2,2a2.8,2.8,0,0,1-3,1.5,2.6,2.6,0,0,1-2-.5c0-1.3,1.1-.8,1.7-1A4.9,4.9,0,0,0,389,428Z" transform="translate(-187 -277)" style="fill: #75948b"/>
    <path d="M355,481c.1,1.5,1.2.8,2,1s0,.4,0,.5l-5,1.5a1.7,1.7,0,0,1-.5-1.3c.4-1.2.9-2.3,2.5-1.7Z" transform="translate(-187 -277)" style="fill: #4d6860"/>
    <path d="M243,343v-1l7,1-1,1C246.7,345.6,244.6,345.6,243,343Z" transform="translate(-187 -277)" style="fill: #75948b"/>
    <path d="M256,338h-1c.4-2.1.7-4.1,3-5l.5.5c.7,1.8,0,3.3-1.2,4.6A1,1,0,0,1,256,338Z" transform="translate(-187 -277)" style="fill: #4d6860"/>
    <path d="M265,397l-1,1a.6.6,0,0,1-1,0c.2-1.9-.8-4.2,2-5a1.4,1.4,0,0,1,0,2Z" transform="translate(-187 -277)" style="fill: #75948b"/>
    <path d="M261,328v2c-.9,1-.4,2.6-1.8,3.3a1.1,1.1,0,0,1-1.2-.3C257.6,330.5,258.9,329,261,328Z" transform="translate(-187 -277)" style="fill: #4c8374"/>
    <path d="M401,427c.1-.8-.5-2,1.2-2H406c.4,1.8-1.2,1.9-2.2,2.4S401.9,427.8,401,427Z" transform="translate(-187 -277)" style="fill: #f6f8f8"/>
    <path d="M404,427l1.2-1,.8-1h2v2c-1.5.1-.8,1.2-1,2s-1.2-1.1-2-1.4A1.6,1.6,0,0,1,404,427Z" transform="translate(-187 -277)" style="fill: #4d6860"/>
    <path d="M277,316c-1.4,2.4-3.8,2-6,2C272.4,315.6,274.8,316,277,316Z" transform="translate(-187 -277)" style="fill: #4d6860"/>
    <path d="M237,341h-2a16.5,16.5,0,0,0-2.4,0c-1.8.3-1.7-.9-1.6-2l5.7,1.2C236.8,340.3,236.9,340.7,237,341Z" transform="translate(-187 -277)" style="fill: #75948b"/>
    <path d="M411,432.5c0,1,.2,1.6,0,2s-.8.5-1.2.5a.9.9,0,0,1-.7-.5,4.8,4.8,0,0,1,0-1.5c.1-.9-.4-2.2,1.2-1.9S410.9,432.3,411,432.5Z" transform="translate(-187 -277)" style="fill: #f6f8f8"/>
    <path d="M245,363c-.1,3.2-.2,3.2-4,4q-.5-.3-.3-.7t.3-.3l1-1,2-2Q244.5,362.3,245,363Z" transform="translate(-187 -277)" style="fill: #a2e2d2"/>
    <path d="M313,488a13.4,13.4,0,0,0,2.9,1c1.6.2,1,1.2,1.1,2a14.9,14.9,0,0,1-5-2C312.1,488.4,312.7,488.4,313,488Z" transform="translate(-187 -277)" style="fill: #4c8374"/>
    <path d="M352,483v1c-1.5,1.3-3.3,1-5,1a1.1,1.1,0,0,1,0-1.4C348.6,482.3,350.2,481.5,352,483Z" transform="translate(-187 -277)" style="fill: #3c534c"/>
    <path d="M405,427l1,.8,1,1.2v2c-.4.4-.5,1-1,1.3a.9.9,0,0,1-1-.3v-4q-.5-.3-.4-.7C404.8,427.1,404.9,427,405,427Z" transform="translate(-187 -277)" style="fill: #75948b"/>
    <path d="M393,399l-2,1c.2-1.8,1.4-2.6,4-3q.4.3.3.7t-.3.3C394.9,399.5,393.8,398.8,393,399Z" transform="translate(-187 -277)" style="fill: #968643"/>
    <path d="M247,447c-.3,0-.7-.1-.9,0l-1.8,1.7-.2-3.2c0-.2,0-.3,0-.5h2C246.5,445.6,247.6,445.9,247,447Z" transform="translate(-187 -277)" style="fill: #75948b"/>
    <path d="M240,373h3.3a7.2,7.2,0,0,1,1.6.5l-1.6.7c-.2.1-.2.5-.3.8A2.5,2.5,0,0,1,240,373Z" transform="translate(-187 -277)" style="fill: #a2e2d2"/>
    <path d="M265,325l-3,2c.4-2.6,1.2-3.8,3-4l.4.4A1.3,1.3,0,0,1,265,325Z" transform="translate(-187 -277)" style="fill: #4d6860"/>
    <path d="M246,359v-2a2.9,2.9,0,0,1,2-1,4.2,4.2,0,0,1,2.9.6c.6.7.4,1.3-.2,1.9a5.1,5.1,0,0,1-4,1Z" transform="translate(-187 -277)" style="fill: #4d6860"/>
    <path d="M239,458v1a2.5,2.5,0,0,1-2.8-1.4c-.4-.7-.4-1.6.8-1.6s1.5.3,2,1Z" transform="translate(-187 -277)" style="fill: #75948b"/>
    <path d="M360,416c-2.2-.6-2.1-2.3-2-4s-.4-.4-.3-.7.2-.3.3-.3C359.9,412.2,360.1,414,360,416Z" transform="translate(-187 -277)" style="fill: #4d6860"/>
    <path d="M381,464h-5.8c-.4,0-.8-.6-1.2-1,1.8-1,3.7-.3,5.5-.5a2,2,0,0,1,1.5.5Z" transform="translate(-187 -277)" style="fill: #75948b"/>
    <path d="M334,319h-3.8c-1.6,0-1.1-1.2-1.2-2A14.9,14.9,0,0,1,334,319Z" transform="translate(-187 -277)" style="fill: #76c1ac"/>
    <path d="M358,411v1c-1.9-1.2-2.1-3-2-5h1A5.4,5.4,0,0,1,358,411Z" transform="translate(-187 -277)" style="fill: #3c534c"/>
    <path d="M373,420v1c-1.2.1-2.4-.4-3.5.8s-1.5.3-1.5-.8C369.5,419.7,371.3,420,373,420Z" transform="translate(-187 -277)" style="fill: #4c8374"/>
    <path d="M247,447l-1-2h3v3Z" transform="translate(-187 -277)" style="fill: #fbe5f3"/>
    <path d="M296,480c-1.6-.9-3.2-1.8-3-4l.7-.2a3.6,3.6,0,0,1,2.9,3A1.8,1.8,0,0,1,296,480Z" transform="translate(-187 -277)" style="fill: #4d6860"/>
    <path d="M329,482l-1,1c-1-.4-2.5.9-3-1a.9.9,0,0,1-.3-.8c0-.3.1-.4.2-.4a2.6,2.6,0,0,1,2-.4A3.4,3.4,0,0,1,329,482Z" transform="translate(-187 -277)" style="fill: #3c534c"/>
    <path d="M302,485l-3-3,.6-.5c1.9-.5,3,.2,3.1,2.2A2.3,2.3,0,0,1,302,485Z" transform="translate(-187 -277)" style="fill: #4c8374"/>
    <path d="M388,456v-1q-.4-.3-.3-.7t.3-.3l3,1a1.5,1.5,0,0,1,.4,1.8,1.3,1.3,0,0,1-1.1.6Z" transform="translate(-187 -277)" style="fill: #4c8374"/>
    <path d="M283,457v2c-.3-.4-.9-.7-1-1.2a17.8,17.8,0,0,1,0-2.8v-2c.3.4.9.7,1,1.2A17.8,17.8,0,0,1,283,457Z" transform="translate(-187 -277)" style="fill: #75948b"/>
    <path d="M255,389h1v6h-1Z" transform="translate(-187 -277)" style="fill: #4c8374"/>
    <path d="M276,454v2c-1.6-.9-3.2-1.8-3-4l.6-.2c.7.2,1,.7,1.4,1.2Z" transform="translate(-187 -277)" style="fill: #4c8374"/>
    <path d="M302,485v-1a1.8,1.8,0,0,1,1.6-.6,5.3,5.3,0,0,1,1.7.7l.9.8a2.6,2.6,0,0,1,.3,1.2,1.8,1.8,0,0,1-.6,1Z" transform="translate(-187 -277)" style="fill: #4d6860"/>
    <path d="M229,339l1,3h-1l-2-3Z" transform="translate(-187 -277)" style="fill: #3c534c"/>
    <path d="M405,432h1q.4.3.3.7t-.3.3l-1,1c-.2.8.5,1.9-1,2a17.8,17.8,0,0,1,0-2.8C404.1,432.7,404.7,432.4,405,432Z" transform="translate(-187 -277)" style="fill: #4c8374"/>
    <path d="M363,479v-1c.5-1.9,2-.6,3-1A2.5,2.5,0,0,1,363,479Z" transform="translate(-187 -277)" style="fill: #4d6860"/>
    <path d="M262,481l1-2q2.5-.5,2,2h-2A.6.6,0,0,1,262,481Z" transform="translate(-187 -277)" style="fill: #a2e2d2"/>
    <path d="M248,357h-2l-1-1v-1C247.1,354,248,354.8,248,357Z" transform="translate(-187 -277)" style="fill: #3c534c"/>
    <path d="M265,395v-2c.6-.5.9-1.6,2-1a8.8,8.8,0,0,0,0,1.4C267.3,395.2,266.1,395,265,395Z" transform="translate(-187 -277)" style="fill: #f6f8f8"/>
    <path d="M366,383a37.3,37.3,0,0,1,0-3.8c0-.4.6-.8,1-1.2a37.3,37.3,0,0,1,0,3.8C366.9,382.2,366.3,382.6,366,383Z" transform="translate(-187 -277)" style="fill: #75948b"/>
    <path d="M385,453q-2.5.5-2-2-.5-.3-.3-.7t.3-.3l2,2q.5.3.3.7T385,453Z" transform="translate(-187 -277)" style="fill: #4d6860"/>
    <path d="M268,320l-1,3a1.4,1.4,0,0,1-2,0Z" transform="translate(-187 -277)" style="fill: #4d6860"/>
    <path d="M241,366v1a5.4,5.4,0,0,1-4,1A4.6,4.6,0,0,1,241,366Z" transform="translate(-187 -277)" style="fill: #75948b"/>
    <path d="M367,422c-.6,2.2-2.3,2.1-4,2l1.2-1,.8-1Z" transform="translate(-187 -277)" style="fill: #4c8374"/>
    <path d="M311,487v1c-.1.6-.7.6-1,1l-2-2,.5-.5a2.4,2.4,0,0,1,2,0Z" transform="translate(-187 -277)" style="fill: #4c8374"/>
    <path d="M383,450v1l-2-1a1.5,1.5,0,0,1,0-2l2,1Z" transform="translate(-187 -277)" style="fill: #3c534c"/>
    <path d="M257,453c.2-.8-.5-1.9,1-2s1,.9.9,1.2S257.7,452.9,257,453Z" transform="translate(-187 -277)" style="fill: #d9e4e1"/>
    <path d="M253,455l2-1v3Z" transform="translate(-187 -277)" style="fill: #968643"/>
    <path d="M239,457l-2-1c.1-1.5,1.2-.8,2-1s.6.6.5.9S239.2,456.6,239,457Z" transform="translate(-187 -277)" style="fill: #968643"/>
    <path d="M391,457v-2c.7.1,1.8-.5,1.9.8s-.6.8-.9,1.2S391.3,457.4,391,457Z" transform="translate(-187 -277)" style="fill: #76c1ac"/>
    <path d="M299,482q-2.5.5-2-2l.6-.4C299.3,479.7,300,480.4,299,482Z" transform="translate(-187 -277)" style="fill: #4c8374"/>
    <path d="M402,439a2.5,2.5,0,0,1,2-3A2.5,2.5,0,0,1,402,439Z" transform="translate(-187 -277)" style="fill: #4c8374"/>
    <path d="M246,362h-1q-.4-.3-.3-.7t.3-.3c.2-.8-.5-1.9,1-2S247.5,361,246,362Z" transform="translate(-187 -277)" style="fill: #4d6860"/>
    <path d="M251,378v2a1.6,1.6,0,0,1-1,.6,1.4,1.4,0,0,1-1-.6l2-3q.4.3.3.7T251,378Z" transform="translate(-187 -277)" style="fill: #75948b"/>
    <path d="M249,380h1c1.1,1.5,0,2.2-1,3h-1Z" transform="translate(-187 -277)" style="fill: #4c8374"/>
    <path d="M365,387c-.3-.4-.9-.7-1-1.2a17.8,17.8,0,0,1,0-2.8.6.6,0,0,1,1,0v4Z" transform="translate(-187 -277)" style="fill: #3c534c"/>
    <path d="M235.8,357.5a5.8,5.8,0,0,1-.7-1.8c0-.3.8-.8.9-.7a2.8,2.8,0,0,1,1,1.2C237,356.4,236.4,356.8,235.8,357.5Z" transform="translate(-187 -277)" style="fill: #f6f8f8"/>
    <path d="M270,389h1c1.7,0,1.6.8,1,2h-1C269.5,390.9,270.2,389.8,270,389Z" transform="translate(-187 -277)" style="fill: #75948b"/>
    <path d="M267,392l-2,1a2.5,2.5,0,0,1,2-3Z" transform="translate(-187 -277)" style="fill: #4c8374"/>
    <path d="M389,390c-.4,1,.9,2.5-1,3s-.7-.6-1-1Z" transform="translate(-187 -277)" style="fill: #75948b"/>
    <path d="M387,392l1,1c-1,1.4-2,1.4-3,0C385.8,392.8,386.9,393.5,387,392Z" transform="translate(-187 -277)" style="fill: #968643"/>
    <path d="M395,398v-2c.9.1,2.2-.4,2,1.2S395.7,397.9,395,398Z" transform="translate(-187 -277)" style="fill: #75948b"/>
    <path d="M381.5,404.2c-.8.4-1.3.9-1.5.8a4.8,4.8,0,0,1-1-1.2c.3-.3.7-.8,1-.7S380.8,403.6,381.5,404.2Z" transform="translate(-187 -277)" style="fill: #f6f8f8"/>
    <path d="M385,401c-.1,1.5-1.2.8-2,1l-1-1,1-1C383.1,401.5,384.2,400.8,385,401Z" transform="translate(-187 -277)" style="fill: #76c1ac"/>
    <path d="M257,402l1-1c1.9.5.6,2,1,3Z" transform="translate(-187 -277)" style="fill: #76c1ac"/>
    <path d="M388,430l3-1v2h-3q-.5-.3-.3-.7T388,430Z" transform="translate(-187 -277)" style="fill: #d9e4e1"/>
    <path d="M357,339l-1,1h-.5l-.8-.7a2.9,2.9,0,0,1-.3-1,1.7,1.7,0,0,1,.7-1.4,1.1,1.1,0,0,1,1,.3l1,1Z" transform="translate(-187 -277)" style="fill: #4d6860"/>
    <path d="M405,427v1h-4v-1h4Z" transform="translate(-187 -277)" style="fill: #4c8374"/>
    <path d="M253,376h-1q-.5.7-1,0v-1l1-1.2,1-.8a2.2,2.2,0,0,1,.7,1.2A2,2,0,0,1,253,376Z" transform="translate(-187 -277)" style="fill: #75948b"/>
    <path d="M277,403h-1v-3C277.9,400.5,276.6,402,277,403Z" transform="translate(-187 -277)" style="fill: #a2e2d2"/>
    <path d="M356,337h-1l-.5.4-.5-.4v-2Z" transform="translate(-187 -277)" style="fill: #4c8374"/>
    <path d="M280,315c-.5,1.9-2,.6-3,1C277.5,314.1,279,315.4,280,315Z" transform="translate(-187 -277)" style="fill: #4d6860"/>
    <path d="M321,314h-1a1.3,1.3,0,0,1-2,0q-.4-.3-.3-.7t.3-.3C319,313.4,320.5,312.1,321,314Z" transform="translate(-187 -277)" style="fill: #4d6860"/>
    <path d="M285,314v-1h2l1,1A2.5,2.5,0,0,1,285,314Z" transform="translate(-187 -277)" style="fill: #4d6860"/>
    <path d="M385,453v-1l2,2C386.2,453.8,385.1,454.5,385,453Z" transform="translate(-187 -277)" style="fill: #3c534c"/>
    <path d="M249,390v-1c.1-1.5,1.2-.8,2-1Z" transform="translate(-187 -277)" style="fill: #75948b"/>
    <path d="M258,481c.3-.2.6-.6.9-.5s.7.4,1.1.5-1.2.8-2,1Z" transform="translate(-187 -277)" style="fill: #76c1ac"/>
    <path d="M251,388l1.3-1.8.7.8C252.9,388.5,251.8,387.8,251,388Z" transform="translate(-187 -277)" style="fill: #76c1ac"/>
    <path d="M271,318q.5,2.5-2,2Z" transform="translate(-187 -277)" style="fill: #4d6860"/>
    <path d="M381,463h-1q-.5-.3-.3-.7t.3-.3c1,.4,2.5-.9,3,1Z" transform="translate(-187 -277)" style="fill: #4d6860"/>
    <path d="M237,373c1-1.4,2-1.4,3,0Z" transform="translate(-187 -277)" style="fill: #76c1ac"/>
    <path d="M391,457h1l-2,2a1.4,1.4,0,0,1-.5-1,1.1,1.1,0,0,1,.5-1Z" transform="translate(-187 -277)" style="fill: #4d6860"/>
    <path d="M333,485v-1a2.1,2.1,0,0,1,3,0c-.1,1.5-1.2.8-2,1Z" transform="translate(-187 -277)" style="fill: #3c534c"/>
    <path d="M363,419h1l1,2c-.8-.2-1.9.5-2-1s-.4-.4-.3-.7S362.9,419,363,419Z" transform="translate(-187 -277)" style="fill: #76c1ac"/>
    <path d="M310,489l1-1h2l-1,1Z" transform="translate(-187 -277)" style="fill: #4d6860"/>
    <path d="M389,448c.5-1.9,2-.6,3-1C391.5,448.9,390,447.6,389,448Z" transform="translate(-187 -277)" style="fill: #75948b"/>
    <path d="M278,458h1l.8.3-.8.7h-1q-.4-.3-.3-.7T278,458Z" transform="translate(-187 -277)" style="fill: #75948b"/>
    <path d="M406,433v-1l1-1C406.8,431.8,407.5,432.9,406,433Z" transform="translate(-187 -277)" style="fill: #d9e4e1"/>
    <path d="M251,376h1c-.2.8.5,1.9-1,2v-2Z" transform="translate(-187 -277)" style="fill: #a0e3d2"/>
    <path d="M388,460l-.8-.7.8-.3h1Z" transform="translate(-187 -277)" style="fill: #3c534c"/>
    <path d="M245,361v2h-1C244.2,362.2,243.5,361.1,245,361Z" transform="translate(-187 -277)" style="fill: #4c8374"/>
    <path d="M393,427c.1-1.5,1.2-.8,2-1C394.9,427.5,393.8,426.8,393,427Z" transform="translate(-187 -277)" style="fill: #75948b"/>
    <path d="M350,331c-1.5-.1-.8-1.2-1-2C350.5,329.1,349.8,330.2,350,331Z" transform="translate(-187 -277)" style="fill: #4c8374"/>
    <path d="M352,333l-1-1q-.4-.3-.3-.7t.3-.3C352.5,331.1,351.8,332.2,352,333Z" transform="translate(-187 -277)" style="fill: #75948b"/>
    <path d="M367,365c-1.5-.1-.8-1.2-1-2C367.5,363.1,366.8,364.2,367,365Z" transform="translate(-187 -277)" style="fill: #4d6860"/>
    <path d="M306,487v-1c1.2-.6,2-.7,2,1Z" transform="translate(-187 -277)" style="fill: #4c8374"/>
    <path d="M377,468c.2-.8-.5-1.9,1-2C377.8,466.8,378.5,467.9,377,468Z" transform="translate(-187 -277)" style="fill: #75948b"/>
    <path d="M399,443c.2-.8-.5-1.9,1-2C399.8,441.8,400.5,442.9,399,443Z" transform="translate(-187 -277)" style="fill: #75948b"/>
    <path d="M364,355v-2l1,1.2Z" transform="translate(-187 -277)" style="fill: #75948b"/>
    <path d="M263,407c1.5.1.8,1.2,1,2C262.5,408.9,263.2,407.8,263,407Z" transform="translate(-187 -277)" style="fill: #a2e2d2"/>
    <path d="M397,444c.1-1.5,1.2-.8,2-1C398.9,444.5,397.8,443.8,397,444Z" transform="translate(-187 -277)" style="fill: #75948b"/>
    <path d="M319,485v-2c1.5.1.8,1.2,1,2Z" transform="translate(-187 -277)" style="fill: #75948b"/>
    <path d="M217,341c.8.2,1.9-.5,2,1C218.2,341.8,217.1,342.5,217,341Z" transform="translate(-187 -277)" style="fill: #a2e2d2"/>
    <path d="M259,404h1l.8.3-.8.7Z" transform="translate(-187 -277)" style="fill: #76c1ac"/>
    <path d="M364,353l-1-1Z" transform="translate(-187 -277)" style="fill: #75948b"/>
    <path d="M325,481v1l-1-1A.7.7,0,0,1,325,481Z" transform="translate(-187 -277)" style="fill: #4d6860"/>
    <path d="M292,475h1a.6.6,0,0,1,.2.7q-.1.3-.2.3Z" transform="translate(-187 -277)" style="fill: #4d6860"/>
    <path d="M296,480v-1c.9-.2,1.2.1,1,1Z" transform="translate(-187 -277)" style="fill: #4c8374"/>
    <path d="M366,360l-1-1Z" transform="translate(-187 -277)" style="fill: #76c1ac"/>
    <path d="M366,477l1-1Z" transform="translate(-187 -277)" style="fill: #4d6860"/>
    <path d="M318,313v1h-1v-1Z" transform="translate(-187 -277)" style="fill: #3c534c"/>
    <path d="M302,310l-1,1Z" transform="translate(-187 -277)" style="fill: #76c1ac"/>
    <path d="M272,451l-1-1a.9.9,0,0,1,1.1.3Z" transform="translate(-187 -277)" style="fill: #4d6860"/>
    <path d="M256.9,445.6l-.4.4a3.1,3.1,0,0,1-.3-.7c0-.1.2-.2.3-.3Z" transform="translate(-187 -277)" style="fill: #f6f8f8"/>
    <path d="M401,440l1-1Z" transform="translate(-187 -277)" style="fill: #4c8374"/>
    <path d="M351,331v1l-1-1Z" transform="translate(-187 -277)" style="fill: #4c8374"/>
    <path d="M405,434l1-1Z" transform="translate(-187 -277)" style="fill: #d9e4e1"/>
    <path d="M242,365l-1,1Z" transform="translate(-187 -277)" style="fill: #75948b"/>
    <path d="M357,338l-1-1Z" transform="translate(-187 -277)" style="fill: #4c8374"/>
    <path d="M390,458v1h-1v-1Q389.5,457.3,390,458Z" transform="translate(-187 -277)" style="fill: #3c534c"/>
    <path d="M278,458v1l-1-1A.7.7,0,0,1,278,458Z" transform="translate(-187 -277)" style="fill: #76c1ac"/>
    <path d="M278,458h-1v-1Z" transform="translate(-187 -277)" style="fill: #75948b"/>
    <path d="M248,383l-1,1Z" transform="translate(-187 -277)" style="fill: #4c8374"/>
    <path d="M388,454v1l-1-1Z" transform="translate(-187 -277)" style="fill: #3c534c"/>
    <path d="M234,390v1l-.8-.7Z" transform="translate(-187 -277)" style="fill: #75948b"/>
    <path d="M273,452l-1-1C272.9,450.8,273.2,451.1,273,452Z" transform="translate(-187 -277)" style="fill: #4c8374"/>
    <path d="M276,413c.3-.4.9-.8,1-1.3s0-3.6.1-5.4.6-.9,1-1.3,2,2.1,3.3.3c.2-.2,1.2-.3,1.3-.2,1.1,3,4.6,2,6.3,3.9,3-.2,5,2.3,7.6,3.1s4.5,2.7,6.9,3.6,1.8,1,1.7,2.3,0,2.6,0,4-1,2-1.5,3-1,2-1.2,3.2a13.2,13.2,0,0,1-4.4,4.5l-2.8.9c-2.4.8-4.9.3-7.4.4s-5.4-1.6-8-2.8l-1.2-.8-1-1-.8-1.2c-1.9-3.4-3.5-6.9-2.9-10.9a7.7,7.7,0,0,1,.4-2.1A6.6,6.6,0,0,1,276,413Z" transform="translate(-187 -277)" style="fill: #fbe5f3"/>
    <path d="M272,391c-.2-.8.5-1.9-1-2v-3c-.7-1,.2-1.4.6-2.1A23.5,23.5,0,0,1,274,382c.6-.5.4-1.5,1-2a13,13,0,0,0,2.5-2l2.5-2c2.1-3.3,4.7-6.4,4.2-10.7a12.1,12.1,0,0,1,1-2.6c.5-.8.1-1.9.8-2.6l1,1a2.7,2.7,0,0,1,1,2.2,4,4,0,0,1-.2,1.2,1.3,1.3,0,0,0,.2,1.6c0,.7,0,1.3,0,2,0,3.7.3,3.7,3.9,2.1,1.4-.6,2-2.8,4.1-2.1,2.4-2.1,5.5-1.9,8.3-2.7s6.9-1.1,10.7-1.6V374a.7.7,0,0,1,.4.9c-.4.5-.9.7-1.4,1.1-5,1.5-5,1.5-7-5.7-5.6-1.3-13.6,2.3-17.4,7.9s-2.9,8.8,1,14.7l1.8,2.4A8.3,8.3,0,0,1,294,399c0,.5.2,1.3,0,1.4s-1.7.8-2.2.5-2.3-1.4-2.5-2.3c-.6-3.3-3.2-5.6-4.4-8.7a10.8,10.8,0,0,1-.9-4.1c0-2.8,0-5.6,0-9.4-.8,1.3-1.2,2.5-1.5,2.4-1.9-.4-1.2,1.6-2.1,2.1a11.4,11.4,0,0,0-2.4,1.4c-1.8,1.7-3.8,3.1-3.2,6.2S273.8,391.2,272,391Z" transform="translate(-187 -277)" style="fill: #d9e4e1"/>
    <path d="M308,368c.3.4.9.8,1,1.3.1,2.1,0,4.3,0,6.7h5c-.4,1.7-1.6,2.1-3.2,2s-1.8-.2-1.9,1.4,1,1.7,2.1,1.6h1a1.7,1.7,0,0,1,.3,2,11.9,11.9,0,0,0-6.5,7.1c-1.2,3.4-3.9,5.3-6.8,6.9s-2.7,2.8-5,2a2.5,2.5,0,0,1-2-3,4.5,4.5,0,0,1,2.2-3.2c7-4.9,10-12,11.6-20C306.2,371.1,306.6,369.3,308,368Z" transform="translate(-187 -277)" style="fill: #3c534c"/>
    <path d="M307,329v-1a1.6,1.6,0,0,1-.4-1.4,2.5,2.5,0,0,1,1.6-1.4,2.9,2.9,0,0,1,2.8.8l2,2,1,1c.9.8.1,2.2,1,3a4.7,4.7,0,0,1,.5,4.6c-1.2,1.2-.7,3-1.5,4.4-.2,4-.2,4-5,4a14.3,14.3,0,0,1-3.1-5.9c-.5-2,.1-4-.2-6A4.3,4.3,0,0,1,307,329Z" transform="translate(-187 -277)" style="fill: #fbe5f3"/>
    <path d="M348,376c0,1.7-.1,3.3,0,5a19.3,19.3,0,0,1-2.4,10.9c-.2.4-.6.9-.5,1.2.5,3.4-2.3,5.4-3.7,7.9s-3.3,2.9-4.1,4.8-2.8,2.5-3.9,4.2-3.7,3-5.4,4.7-2.1,2.8-3.2,4.1-1.7,2.6-3.6,2.1a4.6,4.6,0,0,1,1.4-3.9c3.8-3.5,7.2-7.3,11-10.8s6.2-7.4,9.1-11.2,2.2-6,3.5-9a9.6,9.6,0,0,0,1-3.1c.1-2.3,0-4.6,0-7A.6.6,0,0,1,348,376Z" transform="translate(-187 -277)" style="fill: #4d6860"/>
    <path d="M307,339c0,.5-.1,1.4,0,1.4,2.7.7,1.9,2.8,2,4.6a8.5,8.5,0,0,1,0,1.4c-.2.9-.1,2.2-.6,2.5s-1.1-1-1.6-1.6-1.7.9-2.8.7c-2.9-.4-.8-2.9-1.7-4.2a13.6,13.6,0,0,0-1-1.6l-1.2-2.3c-.4-1.3-1.1-2.6-.1-3.9s3-2.2,5-2S305.9,337.5,307,339Z" transform="translate(-187 -277)" style="fill: #f6f8f8"/>
    <path d="M299,397c0-.2-.1-.4,0-.5,3.6-2.5,5.6-6.1,7.2-10.1s1.6-3.3,5.8-3.4a.6.6,0,0,1,1,0c.4,1.6-1.4,2.2-1.6,3.2s-2.2,3.8-4.1,5c-.4.3-1,.7-1,1,.4,3.6-3.9,2.4-4.9,4.7C301.2,397.2,299.8,397,299,397Z" transform="translate(-187 -277)" style="fill: #d9e4e1"/>
    <path d="M298,432l4-4q.5-.7,1,0c.5.3,1.1,1,1.5.9,2.3-.5,3.8,1,5.5,2.1a1.2,1.2,0,0,1,0,2,19.6,19.6,0,0,1-12,1h-1C296.3,432.8,297.5,432.6,298,432Z" transform="translate(-187 -277)" style="fill: #d9e4e1"/>
    <path d="M323,325c-.6.1-1.7.2-1.8.3-.2,2.4-2,1.5-3.3,1.6a1.2,1.2,0,0,1-.9-.8,1.6,1.6,0,0,1,.5-1.2c.4-.4,1.2-.5,1.4-.9a2.3,2.3,0,0,0-.2-1.8c-.1-.2-1.1,0-1.6.1s-.5.5-.7.5-1.1-.1-1.2-.4,0-1.2.2-1.3c2.4-1,2.8-3,2.7-5.3C321.6,317.9,323.9,320.6,323,325Z" transform="translate(-187 -277)" style="fill: #f6f8f8"/>
    <path d="M323,325c.4-1.9-.5-3.4-1.4-4.8A34.7,34.7,0,0,0,318,316v-2h2c0,.5-.2,1.2,0,1.5,2.7,2.6,3.5,6.1,5.2,9.3.3.5.8,1.1.7,1.7-.1,2.1.2,3.9,2,5.2.2.2,0,.9,0,1.4-2,.2-2,.2-2,3a.9.9,0,0,1-1.2.1.8.8,0,0,1,.2-1.1v-4a3.5,3.5,0,0,1-1-3C323.6,327,324.9,325.5,323,325Z" transform="translate(-187 -277)" style="fill: #3c534c"/>
    <path d="M301,340l1,2a23.2,23.2,0,0,1,0,5.4c.1,2.5-.9,4.5-2,6.6-1.5.1-.8,1.2-1,2l-1,1-2,1q-.4-.3-.3-.7t.3-.3c1.5-3.2,3.7-6.2,3-10,.3-.4.9-.8,1-1.2s0-3.2,0-4.8S300.1,339.8,301,340Z" transform="translate(-187 -277)" style="fill: #4c8374"/>
    <path d="M303,313l1-1c.6.5,1.4.8,1.8,1.4s2.8.2,2.1,1.9a3.2,3.2,0,0,1-2.5,1.6c-1.8-.1-2.5.7-3,2.1s-.9,0-1.4,0a1.6,1.6,0,0,1-.4-1.9A12,12,0,0,1,303,313Z" transform="translate(-187 -277)" style="fill: #f6f8f8"/>
    <path d="M300,354l1-7c1.4-1-.8-3.7,2-4s1.1,1.9.5,3-1,1.7.5,2c-.1.6,0,1.3-.3,1.7s-2.1,1.9-1.8,3.6Z" transform="translate(-187 -277)" style="fill: #d9e4e1"/>
    <path d="M296,357v3c-1.2,1.9-2.5,3.7-5,4h-2l-.4-.4a1.4,1.4,0,0,1,.4-1.6,5.9,5.9,0,0,1,1.2-.7A11.1,11.1,0,0,0,296,357Z" transform="translate(-187 -277)" style="fill: #4d6860"/>
    <path d="M291,364l2.4-1.9L296,360l1.5,1.1c.2.1.2.4.2.7-2.8-.3-3.4,3.2-6,3.2C291.5,365,291.3,364.3,291,364Z" transform="translate(-187 -277)" style="fill: #d9e4e1"/>
    <path d="M348,376h-1a20.6,20.6,0,0,1-3-8c.7.6,1.6,1.1,1.9,1.9S347.3,374,348,376Z" transform="translate(-187 -277)" style="fill: #75948b"/>
    <path d="M321,346a4,4,0,0,0,1.4,0c2.7-1.1,2.9-1.1,3.6,2-.3.3-.6,1-.7.9a19.8,19.8,0,0,1-3.9-1.2C321,347.6,321.1,346.6,321,346Z" transform="translate(-187 -277)" style="fill: #f6f8f8"/>
    <path d="M297,324c-.1-1.7-.2-3.4,2-4a.6.6,0,0,1,1,0v3a2.7,2.7,0,0,1-1,2,.8.8,0,0,1-1,.4C297.6,325,297.4,324.4,297,324Z" transform="translate(-187 -277)" style="fill: #4d6860"/>
    <path d="M307,339h-.5l-1.5-5v-1q.5-.7,1,0c.3.4.9.8,1,1.2S307,337.4,307,339Z" transform="translate(-187 -277)" style="fill: #76c1ac"/>
    <path d="M310,432v-1a13.2,13.2,0,0,0,2.1-.7A14.1,14.1,0,0,0,314,429c.6.1.7.6,1,1-.5,2.1-2.7,2-4,3A8.6,8.6,0,0,1,310,432Z" transform="translate(-187 -277)" style="fill: #4d6860"/>
    <path d="M299,337h-1c-.6-.5-.4-1.5-1-2v-1c.7-.6.5-1.4.5-2.2a1.8,1.8,0,0,1,.4-1.1.9.9,0,0,1,1,.3v5q.5.3.3.7T299,337Z" transform="translate(-187 -277)" style="fill: #4c8374"/>
    <path d="M325,336h1c.1,2-.1,3.8-2,5a1.6,1.6,0,0,1-.6-1,1.5,1.5,0,0,1,.6-1v-2A1.2,1.2,0,0,1,325,336Z" transform="translate(-187 -277)" style="fill: #75948b"/>
    <path d="M311,326h-3c-.4-.3-1-.4-1-1s2.4-.6,3.7-.8Z" transform="translate(-187 -277)" style="fill: #4d6860"/>
    <path d="M303,425a8.8,8.8,0,0,0,0-1.4c-.3-1.8.9-1.6,2-1.6s.9,2.5-1,3Q303.5,425.7,303,425Z" transform="translate(-187 -277)" style="fill: #d9e4e1"/>
    <path d="M324,328c1.9.5.6,2,1,3s-1.8.5-1.9-.8S322.4,328.2,324,328Z" transform="translate(-187 -277)" style="fill: #f6f8f8"/>
    <path d="M306,333h-1a16.5,16.5,0,0,0,0-2.4c-.3-1.8.9-1.7,2-1.6s-.5,1.4-.7,2.2S306.1,332.4,306,333Z" transform="translate(-187 -277)" style="fill: #75948b"/>
    <path d="M315,430l-1-1,3-3a13.2,13.2,0,0,1-.7,2.1A14.1,14.1,0,0,1,315,430Z" transform="translate(-187 -277)" style="fill: #3c534c"/>
    <path d="M299,331h-1a8.2,8.2,0,0,1,0-6h1Z" transform="translate(-187 -277)" style="fill: #f6f8f8"/>
    <path d="M300,320h-1v-3h1a.6.6,0,0,1,1,0v2Z" transform="translate(-187 -277)" style="fill: #3c534c"/>
    <path d="M299,337v-1h1a5.4,5.4,0,0,0,1,4l-1,1c-.3-.4-.9-.7-1-1.2A17.8,17.8,0,0,1,299,337Z" transform="translate(-187 -277)" style="fill: #75948b"/>
    <path d="M324,339v1c-.4.3-.4.9-1,1s-1.8.5-2-.8,1.1-1.2,2-1.2Z" transform="translate(-187 -277)" style="fill: #f6f8f8"/>
    <path d="M309,309a2.5,2.5,0,0,1,3,2h-1.4C308.8,311.3,309,310.1,309,309Z" transform="translate(-187 -277)" style="fill: #f6f8f8"/>
    <path d="M315,337v-5l1,1a3.9,3.9,0,0,1,0,4A.6.6,0,0,1,315,337Z" transform="translate(-187 -277)" style="fill: #4d6860"/>
    <path d="M313,383h-1v-2h1.9c.6,0,1.4.1.6,1A9,9,0,0,1,313,383Z" transform="translate(-187 -277)" style="fill: #75948b"/>
    <path d="M315,337h1c-.3,1.1-.6,2.2-1,3.3s-.6.5-1,.7a17.8,17.8,0,0,1,0-2.8C314.1,337.7,314.7,337.4,315,337Z" transform="translate(-187 -277)" style="fill: #76c1ac"/>
    <path d="M321,421a2.5,2.5,0,0,1-2,3,8.8,8.8,0,0,0,0-1.4C318.7,420.8,319.9,421,321,421Z" transform="translate(-187 -277)" style="fill: #4d6860"/>
    <path d="M304,308q-.5-2.5,2-2v1C305.9,308.5,304.8,307.8,304,308Z" transform="translate(-187 -277)" style="fill: #f6f8f8"/>
    <path d="M299,325c.2-.8-.5-1.9,1-2s1,.9.9,1.2S299.7,324.9,299,325Z" transform="translate(-187 -277)" style="fill: #f6f8f8"/>
    <path d="M303,425h1l-1,3h-1Z" transform="translate(-187 -277)" style="fill: #a2e2d2"/>
    <path d="M323,341l1-1v1c-.4,1,.9,2.5-1,3Z" transform="translate(-187 -277)" style="fill: #a2e2d2"/>
    <path d="M316,337v-4A2.5,2.5,0,0,1,316,337Z" transform="translate(-187 -277)" style="fill: #f6f8f8"/>
    <path d="M325,336l-1,1c-.3-.4-1-.9-.9-1.2s1.2-.6,1.9-.8Z" transform="translate(-187 -277)" style="fill: #f6f8f8"/>
    <path d="M315.5,347.8c-.7.7-1.1,1.2-1.3,1.2a2.8,2.8,0,0,1-1.2-1c-.1-.1.5-.9.7-.9A5.8,5.8,0,0,1,315.5,347.8Z" transform="translate(-187 -277)" style="fill: #f6f8f8"/>
    <path d="M315,375v-1h2l-2,2q-.4-.3-.3-.7T315,375Z" transform="translate(-187 -277)" style="fill: #4d6860"/>
    <path d="M315,332c-1.9-.5-.6-2-1-3C315.9,329.5,314.6,331,315,332Z" transform="translate(-187 -277)" style="fill: #4d6860"/>
    <path d="M307,325l1,1-1,1a.7.7,0,0,1-1,0C306.2,326.2,305.5,325.1,307,325Z" transform="translate(-187 -277)" style="fill: #3c534c"/>
    <path d="M319,426h-2l1-1a.6.6,0,0,1,1,0Z" transform="translate(-187 -277)" style="fill: #3c534c"/>
    <path d="M287,365v-1a1.4,1.4,0,0,1,2,0l-1,1A.6.6,0,0,1,287,365Z" transform="translate(-187 -277)" style="fill: #4d6860"/>
    <path d="M298,357l1-1Z" transform="translate(-187 -277)" style="fill: #d9e4e1"/>
    <path d="M306,327h1v1Z" transform="translate(-187 -277)" style="fill: #75948b"/>
    <path d="M314,329l-1-1Z" transform="translate(-187 -277)" style="fill: #4d6860"/>
    <path d="M319,425h-1l1-1Z" transform="translate(-187 -277)" style="fill: #4d6860"/>
    <path d="M287,365h1v1Z" transform="translate(-187 -277)" style="fill: #75948b"/>
    <path d="M317.6,373.1l.3.3-.4.6-.4-.4Z" transform="translate(-187 -277)" style="fill: #4d6860"/>
    <path d="M315,375v1h-1Z" transform="translate(-187 -277)" style="fill: #75948b"/>
    <path d="M269,337c-.3,1.4.6,2.9-.7,4.2s-1.9.7-.8,1.7a2.4,2.4,0,0,0,2.2-.3c1-.8,1.5-.5,2.5,0,4.3,2.1,7.5,5,7.7,10.2,2.9,3.6-1.1,6.4-1.1,9.7,0,.8-1.7.1-2,1.6S275,366,274,367s-3.4,2.6-3.7-1a4,4,0,0,1,.4-1.3,7.4,7.4,0,0,0,1.4-3c.1-.5.3-.9.5-1.4,2.7-7.6,1.6-9.7-6-11.7a39.1,39.1,0,0,1-3.9-.8,3.2,3.2,0,0,1-1.9-1.9,3.6,3.6,0,0,1,.4-2.5l.6-1,1.3-1.8.5-.9.4-.9.4-1a1.9,1.9,0,0,1,.7-.8h1A2.4,2.4,0,0,1,269,337Z" transform="translate(-187 -277)" style="fill: #59c6a8"/>
    <path d="M271,365c0,.6,0,1.3,0,1.9s.4,1.2,1.3.4,1.1-.2,1.7-.3c-1,2.8-3.8,2.3-5.8,3s-1.2-.7-1.2-1.5-.2-1.4-1.3-1.5-1.9.2-1.7,1.6a2.1,2.1,0,0,1-.3,1.3c-1.6,0-3.4,1.1-4.6-.8v-.5c-.3-.5-.8-.8-1.2-1.3a3.5,3.5,0,0,1-.5-1.2,2.7,2.7,0,0,1,.9-2.5,4.1,4.1,0,0,1,2.1-.5C263.7,364.3,267.4,364.3,271,365Z" transform="translate(-187 -277)" style="fill: #62c4a8"/>
    <path d="M286,319c.1-1.3.9-1.2,1.7-.8a3,3,0,0,1,1.1,4.3c-1.1,1.6-.6,3.1-.8,4.7s.2,1.4,1.4,1.9a4.4,4.4,0,0,1,2.7,4.8c-.2,1.6.6,3.4.9,5.1-.9-.1-2.1.4-2-1.2s-.6-.5-1-.8c-.2-2.4-.2-2.4-2.6-6.2a3.6,3.6,0,0,1-.4-1.8c0-2.9,0-5.9-.1-8.8C286.9,319.8,286.3,319.4,286,319Z" transform="translate(-187 -277)" style="fill: #9be4d2"/>
    <path d="M265,337v1a3.2,3.2,0,0,1-4.7-.2c-1.4-1.4-1.1-2.9,0-4.3l.7-.5c2.1.6,2.1-2.4,3.8-2.3.7-2,2.3-2.6,4.2-2.7-.2,1.2.7,2.6-1.6,3.3S264.6,334.6,265,337Z" transform="translate(-187 -277)" style="fill: #9be4d2"/>
    <path d="M258,364v3a1.3,1.3,0,0,1,0,2v4a.9.9,0,0,1-1.4-.1,3.4,3.4,0,0,1-.8-2.3c.5-4.4-1.1-7.9-4.1-11a1.2,1.2,0,0,1,.7-1.2c2.4-.7,4.3.7,6.2,1.6a4.5,4.5,0,0,1,1.5,1.5l.2.7a1.4,1.4,0,0,1-.6,1.1C259.2,363.5,258.5,363.5,258,364Z" transform="translate(-187 -277)" style="fill: #3c534c"/>
    <path d="M285,365v1c0,5-.7,6.4-5,10,.1-1.2-.3-2.5,1-3.5s2.2-4.1,2-6.5c.4-.4.5-1,1-1.3A1.1,1.1,0,0,1,285,365Z" transform="translate(-187 -277)" style="fill: #4d6860"/>
    <path d="M282.3,338.7c.1.1-.3-.1-.3-.2-.1-2.5-2.2-2.3-3.8-2.7.9-1.3,3.4-.3,3.8-2.5a6.1,6.1,0,0,1,.5-1.2,4.7,4.7,0,0,0,.5,1.3,6,6,0,0,0,1.7,1.7,7.9,7.9,0,0,0,2.3.5c-.7.9-1.3,1.7-2.7,1.7S283,338.1,282.3,338.7Z" transform="translate(-187 -277)" style="fill: #cbf8f0"/>
    <path d="M257.9,381.4c2.1-.9,2.3-.9,8,0l-2.7,1.6c-.4.2-1,.2-1.2.5s-1,1.1-2.1-.1Z" transform="translate(-187 -277)" style="fill: #cbf8f0"/>
    <path d="M271,327v-2h3c0,1.1,1.9,1.8.3,3.3s-2.2-.3-3.3-.3-.3-.4-.3-.7S270.9,327,271,327Z" transform="translate(-187 -277)" style="fill: #cbf8f0"/>
    <path d="M273.2,337h2c1.3.2.8,1.3.7,1.9a1.6,1.6,0,0,1-1.1,1,2.3,2.3,0,0,1-1.7-.4,7.5,7.5,0,0,1-1.1-2Z" transform="translate(-187 -277)" style="fill: #cbf8f0"/>
    <path d="M263,398h1c-.1,2.2-2.2,4.4-.2,6.7l-.3.3H263A6.4,6.4,0,0,1,263,398Z" transform="translate(-187 -277)" style="fill: #76c1ac"/>
    <path d="M289,364h-2v-3c2.3-.6,0-3,1.6-4.1.8,1.7.2,3.4.4,5.1Z" transform="translate(-187 -277)" style="fill: #75948b"/>
    <path d="M262.9,373.7c.2,1.6,0,2.4-1.5,2.3s-1.5-.2-1.5-1.3.1-2,1.5-1.7A5.7,5.7,0,0,1,262.9,373.7Z" transform="translate(-187 -277)" style="fill: #cbf8f0"/>
    <path d="M286,360v3c-.9.2-1.3-.1-1-1v-6q.5-.7,1,0Z" transform="translate(-187 -277)" style="fill: #3c534c"/>
    <path d="M279.4,330.5l-1.4-1.7a6.5,6.5,0,0,1,1.5-.7c.9-.2,1.7.1,1.5,1.2S280.1,329.9,279.4,330.5Z" transform="translate(-187 -277)" style="fill: #cbf8f0"/>
    <path d="M257,373h1c-.4,1,.9,2.5-1,3a.9.9,0,0,1-1.4-.2C255.2,374.4,254.9,373.1,257,373Z" transform="translate(-187 -277)" style="fill: #4c8374"/>
    <path d="M292,342.3l-2.9.7c-1.2.1-1.4-.7-1.1-1.5s1.2-.5,1.8-.5S290.8,341.5,292,342.3Z" transform="translate(-187 -277)" style="fill: #9be4d2"/>
    <path d="M286,356h-1v-6q.5-.7,1,0Z" transform="translate(-187 -277)" style="fill: #4d6860"/>
    <path d="M285,362l1,1c-.2.8.5,1.9-1,2h-1a2.5,2.5,0,0,1,0-3Z" transform="translate(-187 -277)" style="fill: #75948b"/>
    <path d="M286,350h-1v-5a.7.7,0,0,1,1,0Z" transform="translate(-187 -277)" style="fill: #4c8374"/>
    <path d="M278,378a2.5,2.5,0,0,1-3,2l3-3q.5.3.3.7T278,378Z" transform="translate(-187 -277)" style="fill: #3c534c"/>
    <path d="M256,376h1v5h-1A3.4,3.4,0,0,1,256,376Z" transform="translate(-187 -277)" style="fill: #3c534c"/>
    <path d="M274,333c-.1.7.5,1.8-.8,1.9s-.8-.6-1.2-.9-.4-.4-.3-.7.2-.3.3-.3h1A.6.6,0,0,1,274,333Z" transform="translate(-187 -277)" style="fill: #cbf8f0"/>
    <path d="M272,384l-1,2h-1a2.5,2.5,0,0,1,2-3q.5.3.3.7T272,384Z" transform="translate(-187 -277)" style="fill: #4d6860"/>
    <path d="M269,337h-3l3-2q.5.3.3.7t-.3.3Z" transform="translate(-187 -277)" style="fill: #4c8374"/>
    <path d="M286,341l1-2a4.9,4.9,0,0,1,.7-.8,3.4,3.4,0,0,1,.3.9c0,.6,0,1.3,0,2h-1Q286.5,341.7,286,341Z" transform="translate(-187 -277)" style="fill: #76c1ac"/>
    <path d="M284,362v3l-1,1a17.8,17.8,0,0,1,0-2.8C283.1,362.7,283.7,362.4,284,362Z" transform="translate(-187 -277)" style="fill: #cbf8f0"/>
    <path d="M272,384v-1c.1-1.5,1.2-.8,2-1Z" transform="translate(-187 -277)" style="fill: #3c534c"/>
    <path d="M278,378v-1c.1-1.5,1.2-.8,2-1Z" transform="translate(-187 -277)" style="fill: #4d6860"/>
    <path d="M269,336v-1c.1-1.5,1.2-.8,2-1Z" transform="translate(-187 -277)" style="fill: #76c1ac"/>
    <path d="M258,369v-2h1a1.4,1.4,0,0,1,0,2Z" transform="translate(-187 -277)" style="fill: #75948b"/>
    <path d="M275,380c-.2.8.5,1.9-1,2C274.2,381.2,273.5,380.1,275,380Z" transform="translate(-187 -277)" style="fill: #3c534c"/>
    <path d="M286,341h1a2.9,2.9,0,0,1,0,1,3.7,3.7,0,0,1-.7.9,4.7,4.7,0,0,1-.3-.8A5.8,5.8,0,0,1,286,341Z" transform="translate(-187 -277)" style="fill: #75948b"/>
    <path d="M286,345h-1l.7-.8Z" transform="translate(-187 -277)" style="fill: #75948b"/>
    <path d="M271,327v1l-1-1Z" transform="translate(-187 -277)" style="fill: #9be4d2"/>
    <path d="M272,333v1h-1Z" transform="translate(-187 -277)" style="fill: #76c1ac"/>
    <path d="M274,333h-1l1-1Z" transform="translate(-187 -277)" style="fill: #9be4d2"/>
    <path d="M274.6,331.1l.3.3-.4.6-.4-.4Z" transform="translate(-187 -277)" style="fill: #9be4d2"/>
    <path d="M290,337.4l-.6.5c-.1-.2-.2-.6-.2-.6l.8-.3Q290,337.2,290,337.4Z" transform="translate(-187 -277)" style="fill: #9be4d2"/>
    <path d="M270,386l-1,1Z" transform="translate(-187 -277)" style="fill: #4d6860"/>
    <path d="M354,416.9c0,1.2,0,1.9,0,2.5-.1,3.3-1.9,4.5-5.5,3.6-.9-.2-1.5,0-1.6,1.2s-.3,1.7-.5,1.7c-3.7-.1-6.9,2.2-10.6,2.1a17,17,0,0,1-6.1-.9c-1.5-.6-2.7-.9-2.7-2.7s-.3-3.5,1.8-4.5a41.9,41.9,0,0,0,7.1-4.5,25.9,25.9,0,0,0,7.1-9c1.5-2.8,1.4-2.5,4.1-2s3.8,2.5,4.8,4.4S354.6,414.3,354,416.9Z" transform="translate(-187 -277)" style="fill: #fcfcfc"/>
    <path d="M362,389v2c-.5,1-.7,2.2-1.5,2.8a4.7,4.7,0,0,0-1.6,4.4c0,.2-.6.5-1,.8s-1.1,1.7-2.4,1.5a1.5,1.5,0,0,1-1.1-.9,12,12,0,0,0-.4-3.6c-.6-2.3.7-4.9-1.1-7v-2c1.6-5.5-1-10.7-1-16-.1-1.3.1-2.6-.9-3.6-1.5-5.3-3.3-10.4-5-15.6a2.5,2.5,0,0,1,1.7-2.3,2.9,2.9,0,0,1,1.5.2,6.9,6.9,0,0,1,1.8,1.3c3.3,3.1,3.2,7.7,4.9,11.5a54.6,54.6,0,0,1,3.3,18.8c0,2.3.1,4.6,1.8,6.5A3.5,3.5,0,0,1,362,389Z" transform="translate(-187 -277)" style="fill: #56c9a7"/>
    <path d="M347,351c0,.7-.2,1.5,0,2,2.5,4.4,3.1,9.3,4.5,14h.5c.7.9.4,1.9.5,2.9s-.5,1.4-1.5,1.1c.5-1.7-.7-3-1.1-4.6A62.4,62.4,0,0,0,344,351c.4-.4.6-1,1.2-1.3S346.6,350.3,347,351Z" transform="translate(-187 -277)" style="fill: #4d6860"/>
    <path d="M351,371l1-1q.5-.7,1,0c.3,5.1.7,10.2,1,15.3,0,.7.4,1.7-1,1.7,0-1.8.3-3.7-.1-5.4a27.3,27.3,0,0,1-1-5.5A32.7,32.7,0,0,0,351,371Z" transform="translate(-187 -277)" style="fill: #4c8374"/>
    <path d="M351,429c-.6.7-1.1,1.8-1.8,1.9-2.7.5-5.5.7-8.2,1.1-1.1.6-2.1.9-2-1,2.8.4,5.3-.7,7.8-1.5S349.6,429.3,351,429Z" transform="translate(-187 -277)" style="fill: #4c8374"/>
    <path d="M353,389c.8.1,2-.5,2,1.2s0,3.9,0,5.8c-.4.3-.4.9-1,1s-.9-.8-1-1.2C352.9,393.5,353,391.3,353,389Z" transform="translate(-187 -277)" style="fill: #62c4a8"/>
    <path d="M363,425c1,1.8,1,2-.7,2H359q-.5-.3-.4-.7c.1-.2.2-.3.4-.3s1.2-.8,2-1A1.4,1.4,0,0,1,363,425Z" transform="translate(-187 -277)" style="fill: #62c4a8"/>
    <path d="M343,348c-2.3-.9-2.6-2.9-3-5l.6-.3a2.7,2.7,0,0,1,1.3.5c1.3,1.2,2.2,2.5,1.6,4.3Z" transform="translate(-187 -277)" style="fill: #3c534c"/>
    <path d="M339,431c.1,1.5,1.2.8,2,1s-.7.9-1.2,1a17.8,17.8,0,0,1-2.8,0c-.3-.4-.9-.4-1-1S338,431.4,339,431Z" transform="translate(-187 -277)" style="fill: #75948b"/>
    <path d="M328,333h3l.6.2a1.9,1.9,0,0,1,.7,1.6c-.2.7-.8.8-1.3,1.2Z" transform="translate(-187 -277)" style="fill: #4c8374"/>
    <path d="M336,432l1,1h-4.8c-.4,0-.8-.6-1.2-1Z" transform="translate(-187 -277)" style="fill: #4c8374"/>
    <path d="M356,428c-1.5,1.3-3.3,1-5,1,0-.2,0-.4,0-.5l5-1.5q.4.3.3.7T356,428Z" transform="translate(-187 -277)" style="fill: #4d6860"/>
    <path d="M340,343c-2.2-.2-2.8-.8-3-3l.6-.2a3.1,3.1,0,0,1,1.8.8C340,341.3,340.6,342,340,343Z" transform="translate(-187 -277)" style="fill: #3c534c"/>
    <path d="M354,397l1-1v4c.3.9,0,1.3-1,1Z" transform="translate(-187 -277)" style="fill: #4d6860"/>
    <path d="M363,419v1a2.5,2.5,0,0,1-2-3Z" transform="translate(-187 -277)" style="fill: #75948b"/>
    <path d="M331,336l1-1c1.2-.4,1.8.3,2.2,1.3l-.2.7Z" transform="translate(-187 -277)" style="fill: #3c534c"/>
    <path d="M356,428v-1c.5-1.9,2-.6,3-1v1Z" transform="translate(-187 -277)" style="fill: #4c8374"/>
    <path d="M354,401l1-1h1a1.3,1.3,0,0,1,0,2h-1Z" transform="translate(-187 -277)" style="fill: #75948b"/>
    <path d="M336,339q-2.5.5-2-2c1.2-.4,1.8.3,2.2,1.3Z" transform="translate(-187 -277)" style="fill: #3c534c"/>
    <path d="M345,350l-1,1v-2h.7A.9.9,0,0,1,345,350Z" transform="translate(-187 -277)" style="fill: #3c534c"/>
    <path d="M363,425h-2c.1-1.5,1.2-.8,2-1Z" transform="translate(-187 -277)" style="fill: #4c8374"/>
    <path d="M344,349l-1-1C343.9,347.8,344.2,348.1,344,349Z" transform="translate(-187 -277)" style="fill: #3c534c"/>
    <path d="M337,340l-1-1Q337.3,338.7,337,340Z" transform="translate(-187 -277)" style="fill: #3c534c"/>
    <path d="M363,474c-1.3,2.2-3.5,3.1-5.8,4s-2.7.4-3.2,2c-7.2,4.1-14.6,2.7-22.1,1.2a18.9,18.9,0,0,1-3-1.2,40.8,40.8,0,0,1-21.1-17.2c-.9-1.4-2-2.6-1.8-4.4a4,4,0,0,1,.5-1.3,3.4,3.4,0,0,1,1.8-1c1.2-.2,2.5-.5,3.2-1.7a7,7,0,0,0,1.8-4.8c0-2.4,3.8-4.4.7-7.2-.5-.4.7-1.7,1.6-2.1s3.1-.4,4.4.8h2l1-1c4.8-.6,9.7-.1,14.5-1.1a4.5,4.5,0,0,0,3.7-.5,11.4,11.4,0,0,1,4.4-.3l1.2.3a2.1,2.1,0,0,0,1.7-.1l1.3-.2a6.3,6.3,0,0,1,2,.4,20.9,20.9,0,0,0,5.3,1.4c9.4,1.7,17,6.8,24,13.1.1.8-.4,1.9,1.2,2s.8,1.5.7,2.3-1.2.5-1.9.7-.4,1.4-1,2h-3c-1.1-1.1-2.9.1-4-1a4.6,4.6,0,0,1-4-2c-.6-.5-.8-1.7-2-1-2.1-1-3.5-3.3-6.3-3-2.4-2.5-4.8,0-7.2.1s-1.9,2.1-1.4,3.6,2.1,2.2,2.9,3.7,2.6,3.1,3.9,4.6a3.6,3.6,0,0,1,2,2,2.6,2.6,0,0,0,2.8,2.1c.4,0,.8.6,1.2.9C366.8,472.6,364.7,473.2,363,474Z" transform="translate(-187 -277)" style="fill: #a0e3d2"/>
    <path d="M307,457v1c-2,1.4-3-.3-4.2-1.3a103.3,103.3,0,0,0-9.5-6.6c-.5,4.1,2.4,6.9,2.4,10.3.2.4-1,1.3.5,1.3a1.9,1.9,0,0,1,1,.2l.7.9c.4,1.1,1.5,1.9,1.4,3.3s-1.7,1.8-2.4,2.8l-.7.9a2.2,2.2,0,0,0-.6,2,6.2,6.2,0,0,0,2,2l.9.8.9.8.5.4a6.1,6.1,0,0,1,2,2.4,2.8,2.8,0,0,0,2.5,2,.9.9,0,0,0,.8-1c-.3-.7-.7-1.3-1-2a6.3,6.3,0,0,0-2.9-3.3,2.8,2.8,0,0,1-.8-1c-.1-.2.2-.7-.3-.8s-.3.4-.6.5a1.8,1.8,0,0,1-1.8-.5,2.8,2.8,0,0,1,.8-2.6,4.2,4.2,0,0,1,1.9-1.1c4.9-.2,6.4,4.1,9.1,6.8.9,2.4,1.6,4.9,2.3,7.3a3.3,3.3,0,0,1-.9,3c-1.7.8-3.3.3-4.9-.4s-1.5-.4-2-1h-2c-.2-2-.2-2-3-2q.5-2.5-2-2l-1-1-3-3v-1c0-1.7.2-3.5-2.2-4.1-.7-.2-1.2-1.3-1.8-1.9,1.3-.1,1.2-.9.8-1.7-2.9-5.4-4.1-11.4-6.8-16.9a6.2,6.2,0,0,1,0-2.4c-2.1-3-1.4-6,0-9l1.8.4c2.9.9,5.7,3,8.9.7a2.7,2.7,0,0,1,2.4,0c2.9,1.8,6.1.6,9.1.9a2.1,2.1,0,0,0,1.7-.6c1.3-1.9,3.2-1.3,5-1.4a2.2,2.2,0,0,1,1.7,1.6c.1,3.1-1.5,4.4-4.5,4.4s-3.9-1.3-4.6,1.3-.9,4.2,1.4,5.7S308.6,455,307,457Z" transform="translate(-187 -277)" style="fill: #9be4d2"/>
    <path d="M267,436v-9a6.5,6.5,0,0,1,1-4c1.2-1.9,2-4,3-6,2.9-1,2.7,1.1,2.9,2.9s-2.2,2.4-.4,3.9l1.1.6c1.5,1.3,2.1,3.2,3.4,4.6l1,1c.8.7,1.9,1.2,2.2,2.4l-.2.6c-2.6-.7-3.3,1.1-4,3-3-.3-3-.3-6.5-6.3-.7,2.2.3,4.7-1.5,6.4A1.6,1.6,0,0,1,267,436Z" transform="translate(-187 -277)" style="fill: #62c4a8"/>
    <path d="M368,429a20.4,20.4,0,0,0,3.1,1l8,1c.3,0,.8.3.8.4-.4,2.4,3.4,1.3,3.1,3.6a2.8,2.8,0,0,1-2.6.8,3.5,3.5,0,0,0-4,1.1c-1.4.9-3,.6-4.5.4a6.5,6.5,0,0,1-2.5-2.1A3.2,3.2,0,0,0,366,434a4.1,4.1,0,0,1-1.5,0c-1.2-.5-3.2-.9-3.4-1.8s2-1.1,2.9-2.2S366.6,428.9,368,429Z" transform="translate(-187 -277)" style="fill: #9be4d2"/>
    <path d="M269,436c0-3,0-5.9,0-8.9,0-.4.4-.7.7-1.1s1.2.6,1.2,1c.4,3.6,3.5,5.8,4.6,9,0,.1.9,0,1.4,0v1c-1,1.1-2.6,1.5-3.8,2.4a2.2,2.2,0,0,1-2.4-.3,16.4,16.4,0,0,1-1.7-2.5Z" transform="translate(-187 -277)" style="fill: #9be4d2"/>
    <path d="M271,438c.1,1.5,1.2.8,2,1a3.2,3.2,0,0,1,.9.9c.5,1.6,2.1,2,3.1,3.1,0,2.6.4,5.3-1.2,7.7-.1.2-.5.2-.8.3-3.4-2.4-4.7-6.2-6-10a3.9,3.9,0,0,1,.6-2.9A1,1,0,0,1,271,438Z" transform="translate(-187 -277)" style="fill: #a0e3d2"/>
    <path d="M347,439h-6a2.6,2.6,0,0,1-2,1c-3,.3-6.1-.8-9,1a1.5,1.5,0,0,1-1.4,0c-1.6-1.9-3.7-.6-5.6-1,.4-.3.8-.9,1.2-1a59,59,0,0,1,7.3,0A6.4,6.4,0,0,0,335,438c2.2-1.3,4.8.4,7-1h5A1.4,1.4,0,0,1,347,439Z" transform="translate(-187 -277)" style="fill: #4c8374"/>
    <path d="M347,439v-2h16c1.8,1.2,3.8,0,5.6.3s3.3,1.3,3.6,3.5a1.9,1.9,0,0,1-1.1,1c-3.9.3-7.5-1.5-11.4-1.8s-7.1-1.3-10.7-.9h-1A.7.7,0,0,1,347,439Z" transform="translate(-187 -277)" style="fill: #3c534c"/>
    <path d="M270,441c.7,2.7,1.6,5.2,3.7,7.2s1.6,1.5,1.3,2.8v2l-2-1-1-1-1-1c.4-2.7-1.7-4.5-2.3-6.8L268,441A1.4,1.4,0,0,1,270,441Z" transform="translate(-187 -277)" style="fill: #76c1ac"/>
    <path d="M283,439c-.3,1.5.7,3.3-1,4.5,1.7,1.2.7,3,1,4.5q-2.5-.5-2,2a1.4,1.4,0,0,1-2,0,21.6,21.6,0,0,1,0-2.4c.1-1.1-.7-2.7,1.5-2.8a7,7,0,0,0,.4-2.6C280.9,440.7,281.3,439.4,283,439Z" transform="translate(-187 -277)" style="fill: #76c1ac"/>
    <path d="M313,440l-1-1v-1c2.7-.5,5.1,1.3,7.7,1.3a8.9,8.9,0,0,1,.3,1.7h-5C313.9,441.6,313.6,440.6,313,440Z" transform="translate(-187 -277)" style="fill: #59c6a8"/>
    <path d="M382,430c-1.8-.3-3.8-.4-5.5-1.1s-5.6-.9-8.5-.9c.1-.3.2-.8.3-.8,4.2-.8,8.2.1,12.3,1C381.2,428.3,381.5,429.4,382,430Z" transform="translate(-187 -277)" style="fill: #4c8374"/>
    <path d="M298,434c4.1.7,7.9-1.4,12-1a8.9,8.9,0,0,1-.3,1.8l-11.7-.3S298,434.2,298,434Z" transform="translate(-187 -277)" style="fill: #75948b"/>
    <path d="M369,438h-4.8c-.4,0-.8-.6-1.2-1a17.8,17.8,0,0,0,2.8,0c.4-.1.8-.6,1.2-1s1.6-1.7,3-1l2,2C371.2,438.1,370.1,438,369,438Z" transform="translate(-187 -277)" style="fill: #62c4a8"/>
    <path d="M370,435l-3,1-1-2c.8-.7,1.6-2,2.2-1.9A2.3,2.3,0,0,1,370,435Z" transform="translate(-187 -277)" style="fill: #cbf8f0"/>
    <path d="M287,433h9q.5.3.3.7t-.3.3a5.4,5.4,0,0,1-4,1c-1.2-1-2.6-.3-3.9-.5a2.8,2.8,0,0,1-1.3-.3A.9.9,0,0,1,287,433Z" transform="translate(-187 -277)" style="fill: #4c8374"/>
    <path d="M273,440v-1c-.1-1.2-.1-2.3,1.6-2a16.5,16.5,0,0,0,2.4,0v1c.5,1.2-.2,1.9-1.1,2.5A2.6,2.6,0,0,1,273,440Z" transform="translate(-187 -277)" style="fill: #a2e2d2"/>
    <path d="M273,440h3a1.2,1.2,0,0,1,1,1v2h-1C273.1,443,273.1,443,273,440Z" transform="translate(-187 -277)" style="fill: #cbf8f0"/>
    <path d="M277,441l-1-1,1-2c1.4-.2,2.7.4,2.7,1.7S278.3,441.3,277,441Z" transform="translate(-187 -277)" style="fill: #a0e3d2"/>
    <path d="M279,450h2v3c-.3.2-.6.6-.9.5s-.7-.4-1.1-.5Z" transform="translate(-187 -277)" style="fill: #fdfdfd"/>
    <path d="M342,437c-.4.3-.8.9-1.2,1H335c.4-.3.8-.9,1.2-1Z" transform="translate(-187 -277)" style="fill: #62c4a8"/>
    <path d="M287,434a37.3,37.3,0,0,1,3.8,0c.4,0,.8.6,1.2,1h-5q-.4-.3-.3-.7T287,434Z" transform="translate(-187 -277)" style="fill: #3c534c"/>
    <path d="M283,435q-2.5.5-2-2c1.1-.9,1.8-.5,2.4.6A1.5,1.5,0,0,1,283,435Z" transform="translate(-187 -277)" style="fill: #62c4a8"/>
    <path d="M283,435v-1c1.3-1,2.7-.7,4,0v1Z" transform="translate(-187 -277)" style="fill: #75948b"/>
    <path d="M385,431v1a1.4,1.4,0,0,1-2,0l-1-2Z" transform="translate(-187 -277)" style="fill: #4d6860"/>
    <path d="M296,434v-1c.1-1.5,1.2-.8,2-1l-1,2Z" transform="translate(-187 -277)" style="fill: #4d6860"/>
    <path d="M388,430v1h-3l1-1Z" transform="translate(-187 -277)" style="fill: #a2e2d2"/>
    <path d="M323,440l-1,1Z" transform="translate(-187 -277)" style="fill: #59c6a8"/>
    <path d="M311.6,438l-.5-.6.6-.2a2.8,2.8,0,0,1,.3.8Z" transform="translate(-187 -277)" style="fill: #59c6a8"/>
    <path d="M310,432l1,1h-1Z" transform="translate(-187 -277)" style="fill: #75948b"/>
    <path d="M298,325v6q-.5.7-1,0v-7Z" transform="translate(-187 -277)" style="fill: #3c534c"/>
    <path d="M285,314h6c-.4.3-.8.9-1.2,1H285Z" transform="translate(-187 -277)" style="fill: #62c4a8"/>
    <path d="M265,323h2v2h-2Z" transform="translate(-187 -277)" style="fill: #76c1ac"/>
    <path d="M297,331h1c-.4,1,.9,2.5-1,3Z" transform="translate(-187 -277)" style="fill: #4d6860"/>
    <path d="M297,335c1.5.1.8,1.2,1,2C296.5,336.9,297.2,335.8,297,335Z" transform="translate(-187 -277)" style="fill: #76c1ac"/>
    <path d="M369,438c.5-1.9,2-.6,3-1a2.9,2.9,0,0,1,4,0,6.4,6.4,0,0,1,3,.4l2.4.8,1.1.6a11,11,0,0,0,3.7,2.3,3.2,3.2,0,0,1,1.4,1.4c.4.8-.2,1.7.4,2.5a2.4,2.4,0,0,1-2.7,2H381a.6.6,0,0,1-.9.1l-.7-.7a1.8,1.8,0,0,1-.6-.7l-.2-.3.2.3.6.6.8.7.8.8v5c-2.2.7-3-1.5-4.5-2.2-3.6-1.8-6.7-4.5-10-6.8-.3-.2-.5-.7-.7-.7-3.6.6-6.4-2.5-9.9-2.3-1.9.1-3.7-.1-4.8-2a17.8,17.8,0,0,1,9,0c1.7.4,3.6-.7,5.2.6s3.2-.4,4.4,1.3,1.6.1,2.4.1l.4.3v-.2H372l-2.3-2A7.3,7.3,0,0,1,369,438Z" transform="translate(-187 -277)" style="fill: #59c6a8"/>
    <path d="M368,462c-1.9.5-.6,2-1,3s-1.5-.4-2.3-.5-2.1-1.3-2.7-2.5l-1-3a1.4,1.4,0,0,1,0-2h1a9.5,9.5,0,0,0,1,1l1,1,1,1,3,1q.5.3.3.7T368,462Z" transform="translate(-187 -277)" style="fill: #d9e4e1"/>
    <path d="M362,462l3,2q.4.3.3.7t-.3.3a14.1,14.1,0,0,1-1.9,1.3,13.2,13.2,0,0,1-2.1.7q-2.5.5-2-2l2.3-2A7.3,7.3,0,0,0,362,462Z" transform="translate(-187 -277)" style="fill: #56c9a7"/>
    <path d="M380,462v1h-9q-.4-.3-.3-.7t.3-.3Z" transform="translate(-187 -277)" style="fill: #4c8374"/>
    <path d="M373,459a17.8,17.8,0,0,1,2.8,0c.4.1.8.6,1.2,1a17.8,17.8,0,0,1-2.8,0C373.7,459.9,373.4,459.3,373,459Z" transform="translate(-187 -277)" style="fill: #9be4d2"/>
    <path d="M371,462v1l-3-1v-1C369,461.4,370.5,460.1,371,462Z" transform="translate(-187 -277)" style="fill: #75948b"/>
    <path d="M367,456c.4-.3.9-1,1.2-.9s.6,1.2.8,1.9Z" transform="translate(-187 -277)" style="fill: #9be4d2"/>
    <path d="M390,458h-1l-1-2c.8.2,1.9-.5,2,1Z" transform="translate(-187 -277)" style="fill: #76c1ac"/>
    <path d="M380,460c.2-.8-.5-1.9,1-2C380.8,458.8,381.5,459.9,380,460Z" transform="translate(-187 -277)" style="fill: #9be4d2"/>
    <path d="M357.1,456.2l-1-.8a4.9,4.9,0,0,1,1.2-.4c.2,0,.5.3.7.5Z" transform="translate(-187 -277)" style="fill: #9be4d2"/>
    <path d="M358,456c.8.2,1.9-.5,2,1C359.2,456.8,358.1,457.5,358,456Z" transform="translate(-187 -277)" style="fill: #cbf8f0"/>
    <path d="M361,457v2c-1.5-.1-.8-1.2-1-2Z" transform="translate(-187 -277)" style="fill: #cbf8f0"/>
    <path d="M365,460l-1-1Z" transform="translate(-187 -277)" style="fill: #75948b"/>
    <path d="M364,459l-1-1Z" transform="translate(-187 -277)" style="fill: #75948b"/>
    <path d="M363,458l-1-1Z" transform="translate(-187 -277)" style="fill: #75948b"/>
    <path d="M382,439h-1a6.1,6.1,0,0,1-1.5-2.2,1.9,1.9,0,0,1,.5-1.8h5a.6.6,0,0,1,1,0h4c.7-.6,1.3.1,2,0h2c.7,1.9,2,3.8,1,6,.6,2.4-1.7,2.3-2.8,2.9s-2.3,0-3.4.1-.5.6-.8,1-.8-1.2-1-2,2.7-1.5,1.2-3.1-1.8,1.6-3.2.7A7.8,7.8,0,0,1,382,439Z" transform="translate(-187 -277)" style="fill: #a2e2d2"/>
    <path d="M395,441c0-.3.1-.8,0-1s-1.8-1.3-1.9-2,.6-2,.9-3,.2-.7.4-.8,3.3.4,4.5-1.1a4.1,4.1,0,0,1,1.1.5c-.9,2.2-1.9,4.5-3,6.7-.2.4-1,.5-1.5.8Z" transform="translate(-187 -277)" style="fill: #9be4d2"/>
    <path d="M392,435c-.3.2-.6.6-.9.5s-.7-.4-1.1-.5l1.2-1Z" transform="translate(-187 -277)" style="fill: #9be4d2"/>
    <path d="M383,432h2v1C384.2,432.8,383.1,433.5,383,432Z" transform="translate(-187 -277)" style="fill: #9be4d2"/>
    <path d="M389,433c.1-1.5,1.2-.8,2-1C390.9,433.5,389.8,432.8,389,433Z" transform="translate(-187 -277)" style="fill: #75948b"/>
    <path d="M380,447h1v1Z" transform="translate(-187 -277)" style="fill: #3c534c"/>
    <path d="M386,435h-1l.7-.8Z" transform="translate(-187 -277)" style="fill: #9be4d2"/>
    <path d="M253,451c0,.5.2,1.3,0,1.4s0,1.8,0,2.6-1.4.1-1.4,0c-.5-2-1.9-2.2-3.6-2s-.7-.8-1-1.2.7-.6,1-.7a10.9,10.9,0,0,1,2,0Z" transform="translate(-187 -277)" style="fill: #e3c025"/>
    <path d="M256,376v5c-1.5.1-.8,1.2-1,2s-2,.5-2-1.2,0-3.9,0-5.8v-2a3.6,3.6,0,0,0,0-4c-1.2-3.7-2-7.6-7-8,.9-1.5.9-1.5,0-3l1.8-.3,2.2-.7c.5.6,1.6.2,2,1a2.3,2.3,0,0,0,2.3,2c2.2,0,2.7,1.2,2.7,3.1s0,5.9,0,8.9C255.1,373.5,256.4,375,256,376Z" transform="translate(-187 -277)" style="fill: #59c6a8"/>
    <path d="M253,370a2.5,2.5,0,0,1,0,4v-4Z" transform="translate(-187 -277)" style="fill: #4c8374"/>
    <path d="M337,325c.5,0,1.1-.2,1.4,0a9.2,9.2,0,0,0,4,2.2c1.4.3,2.4,2.5,3.6,3.8a4.3,4.3,0,0,1,.7,3.8,3.8,3.8,0,0,1-1.5,1.8,15.2,15.2,0,0,1-5.2,1,36.7,36.7,0,0,1-9-4.5v-2c-1.4-1.4-.4-3.7-2-5s-.6-2-1-3c1.7-1.3,3.3-.7,5,0s1.9-.5,2,1S336.5,324.3,337,325Z" transform="translate(-187 -277)" style="fill: #a2e2d2"/>
    <path d="M329,326c.8.1,2-.5,2,1.2s0,2.6,0,3.8C328.2,330.2,329.2,327.9,329,326Z" transform="translate(-187 -277)" style="fill: #9be4d2"/>
    <path d="M333,323h-5c-.2-1.3.1-2.5,1.7-1.9S332.4,321.4,333,323Z" transform="translate(-187 -277)" style="fill: #9be4d2"/>
    <path d="M337,325c-.8-.2-1.9.5-2-1h2Z" transform="translate(-187 -277)" style="fill: #9be4d2"/>
    <path d="M331,480c2.3.3,4.7.8,7,1s5,0,7.4,0a39.6,39.6,0,0,0,4.5,0,32.8,32.8,0,0,0,4.1-1v1l-2,2-5,1c-1.1,1.1-2.9-.2-4,1s-4.2.5-6-1-2.9.1-4-1-1.9.5-2-1A1.4,1.4,0,0,1,331,480Z" transform="translate(-187 -277)" style="fill: #59c6a8"/>
    <path d="M363,474a2.3,2.3,0,0,1,0-.5c2.1-.4,2.3-1.8,2-3.5a11.1,11.1,0,0,1,2,0c.7.1,1.8.3,2,.7s-.7.9-1.3,1.4S365.1,474.6,363,474Z" transform="translate(-187 -277)" style="fill: #9be4d2"/>
    <path d="M365,465v-1l2,1a4.6,4.6,0,0,0,4,2q.5.3.3.7t-.3.3c-1.9-.4-3.8-.7-5.7-1.3C365.1,466.6,365.1,465.6,365,465Z" transform="translate(-187 -277)" style="fill: #75948b"/>
    <path d="M356,340c.4,1-.9,2.5,1,3a1.7,1.7,0,0,1,.4,1.9,2.3,2.3,0,0,1-2.3.8c-.4-.2-.9-.3-.9-1s-.1.5.2.8a6.7,6.7,0,0,1-.5,2.7,3.3,3.3,0,0,1-.6,1,4.7,4.7,0,0,1-1.6.7l-1.6.4a1.3,1.3,0,0,1-1-.3,4.9,4.9,0,0,1-1.3-1.8l-.5-1a6.5,6.5,0,0,1-.8-2c-.3-.8-1.1-.9-1.6-1.5s-3.6-3.2-2.1-5.9a2.3,2.3,0,0,1,2-.4c.9-1,.6,2.6,1.9.5a4.4,4.4,0,0,1,3.7-1.1H354c.6.5.4,1.5,1,2Z" transform="translate(-187 -277)" style="fill: #a2e2d2"/>
    <path d="M347,332c1.8,1.3,4,2.3,4,5-1.6.9-2.8,0-4.2-.7a1.8,1.8,0,0,1-.3-1.4C346.6,333.9,346.2,332.9,347,332Z" transform="translate(-187 -277)" style="fill: #a2e2d2"/>
    <path d="M347,332v3a.6.6,0,0,1-1,0v-4Z" transform="translate(-187 -277)" style="fill: #cbf8f0"/>
    <path d="M386,423a5.4,5.4,0,0,1,4,1c-.8,2.1-2.4.6-3.7.8Z" transform="translate(-187 -277)" style="fill: #a2e2d2"/>
    <path d="M385,422l1,1Z" transform="translate(-187 -277)" style="fill: #a2e2d2"/>
    <path d="M262,482.4l-.6.5c-.1-.2-.2-.6-.2-.6l.8-.3Q262,482.2,262,482.4Z" transform="translate(-187 -277)" style="fill: #968643"/>
    <path d="M262,481h1l-1,1Z" transform="translate(-187 -277)" style="fill: #968643"/>
    <path d="M249,383l1-3h1a8.8,8.8,0,0,0,0,1.4C251.3,383.2,250.1,383,249,383Z" transform="translate(-187 -277)" style="fill: #a2e2d2"/>
    <path d="M273,421a16.5,16.5,0,0,1,0-2.4c.3-1.8-.9-1.7-2-1.6a13.6,13.6,0,0,1,2.1-3.3c.6-.6,1.9-.5,2.9-.7s.5,1.9-1,2-.3,1.8-.5,2.7a27.9,27.9,0,0,1-.1,4,1.2,1.2,0,0,1-1.2.4.8.8,0,0,1-.3-.8Q272.9,421,273,421Z" transform="translate(-187 -277)" style="fill: #75948b"/>
    <path d="M270,441h-2c-1.9-.5-.6-2-1-3a2.2,2.2,0,0,1,1.9-.7,2.2,2.2,0,0,1,1.1.7Z" transform="translate(-187 -277)" style="fill: #59c6a8"/>
    <path d="M269,438h-2v-2h2A1.4,1.4,0,0,1,269,438Z" transform="translate(-187 -277)" style="fill: #76c1ac"/>
    <path d="M371,468v-1a17.8,17.8,0,0,1,2.8,0c.4.1.8.6,1.2,1Z" transform="translate(-187 -277)" style="fill: #76c1ac"/>
    <path d="M259,333l2-3v3A1.4,1.4,0,0,1,259,333Z" transform="translate(-187 -277)" style="fill: #76c1ac"/>
    <path d="M311,485v-3a9.3,9.3,0,0,1-.3-6.5,5.9,5.9,0,0,1,.7-1.3,2.3,2.3,0,0,1,1.2-.8,2.3,2.3,0,0,1,1.9.6l.8,1.1.2.6a1.2,1.2,0,0,1-.4,1.2c0,.5,0,1,0,1.5s3.4,0,1.1,2.1c1.3.8.9,2,.9,3.1s1.1,1.2,2,1.3.5,2-1.2,2H311A1.3,1.3,0,0,1,311,485Z" transform="translate(-187 -277)" style="fill: #56c9a7"/>
    <path d="M362,389h-1c-2.1-3-.4-6.1,0-9.1.8-6.6,1.4-13.1-.6-19.6a11.5,11.5,0,0,1-.4-5.7,4.1,4.1,0,0,1,.7-1.5,1,1,0,0,1,1.4-.2c.3,1.1.6,2.2,1,3.3s.6.5,1,.7l1,11v15h-1c-1.9.3-.6,1.8-1,2.8S363.9,388.4,362,389Z" transform="translate(-187 -277)" style="fill: #62c4a8"/>
    <path d="M361,353v1c-1.5.6-1.8-.8-2.4-1.6l-.5-1.2a51.7,51.7,0,0,1-1.5-5.1,1.5,1.5,0,0,1,.5-1.2v-2c.7.8,1.8,1.4,1.9,2.3s.7,2.3,2.1,2.7v3A1.3,1.3,0,0,1,361,353Z" transform="translate(-187 -277)" style="fill: #76c1ac"/>
    <path d="M301,317h-1c.2-.7.5-1.4.7-2.2s.2-1.2.3-1.8h2A4.6,4.6,0,0,1,301,317Z" transform="translate(-187 -277)" style="fill: #4d6860"/>
    <path d="M248,357a2.5,2.5,0,0,0-3-2c-.1-.3-.2-.7-.4-.8s-6.9-3-8.6-3.2-.9-1.7-1.4-1.8c-4.1-.5-3.7-3.4-3.6-6.2a13.2,13.2,0,0,1,2.1.7A14.1,14.1,0,0,1,235,345a3.7,3.7,0,0,1,5,0h1l.5.5c.3,1.6-.2,3.1,0,4.6.1-1-.2-2.1.3-3.2,3.2.8,6.8,0,9.7,2.1a5.4,5.4,0,0,1,.8,2.3c0,2,.4,4-1.3,5.6Z" transform="translate(-187 -277)" style="fill: #e3c025"/>
    <path d="M356,402v-2l2-1c.2.8-.5,1.9,1,2l-1,2Z" transform="translate(-187 -277)" style="fill: #76c1ac"/>
    <path d="M259,333h2c-.2,1.3-1,2.7-.6,3.7s3,1.1,4.6,1.3v1a9.5,9.5,0,0,0-1,1c-1,.8-1.3,2.1-2,3a7.7,7.7,0,0,0-1.6,2.7,2.2,2.2,0,0,1-2.9.8l-.5-.5c-.3-.3-.5-1-.8-1s-1.2-1.2-1.2-2-.5-1.9,1-2,0-2.2,1-3l1-5Z" transform="translate(-187 -277)" style="fill: #62c4a8"/>
    <path d="M252,347c.4-.3.8-.9,1.2-1a37.3,37.3,0,0,1,3.8,0c1.7,1.1,3.8.7,5.5,1.6a2.5,2.5,0,0,1,1.4,1.7,4.1,4.1,0,0,1-.8,3.8c-3.7,1.4-6.7-1.2-10.1-1.7C252,350.1,251,348.8,252,347Z" transform="translate(-187 -277)" style="fill: #d9e4e1"/>
    <path d="M251,349c-2.1-.5-4.5,1-6.4-.9-2.1,2.6-1.2-1.9-2.6-1.1s-.3-1.5-1-2,.4-2.3,2-2,4,.9,6,1l2,3A1.4,1.4,0,0,1,251,349Z" transform="translate(-187 -277)" style="fill: #d9e4e1"/>
    <path d="M251,349v-2h1c.1.6.2,1.2.3,1.8s.4,1.5.7,2.2a3.3,3.3,0,0,1,.9,2.1,2.8,2.8,0,0,1-.9,2.1c-2.9-.3-.5-3.2-2-4.2Z" transform="translate(-187 -277)" style="fill: #3c534c"/>
    <path d="M343,485c.4-.3.7-.9,1.2-1a17.8,17.8,0,0,1,2.8,0v1Z" transform="translate(-187 -277)" style="fill: #4c8374"/>
    <path d="M333,483a17.8,17.8,0,0,1,2.8,0c.4.1.8.6,1.2,1h-4Z" transform="translate(-187 -277)" style="fill: #76c1ac"/>
    <path d="M240,345h-5c.1-.9-.4-2.1,1.2-2s.5-.6.8-1C239.2,342.2,239.8,342.8,240,345Z" transform="translate(-187 -277)" style="fill: #d9e4e1"/>
    <path d="M315,477v-1c1.1-.5,2-.7,2,1v1Z" transform="translate(-187 -277)" style="fill: #4c8374"/>
    <path d="M317,477c-.1-1.5-1.2-.8-2-1l-1-1-1-1c-.6-.6-1.4-.6-2.2-.9l-1-.6-.9-.7-.4-.4-.7-.8-.7-.8-1.1-1.2-.7-.9a8.5,8.5,0,0,0-1.5-1.8c-1.1-1-2.5-1.7-3.3-3a15.1,15.1,0,0,1-.7-1.7l-.5-1-.6-1-.3-1.1c-.3-.7-.8-1.2-1.1-1.8s0-.7-.4-.1.4-.1.5.3,1.1,1.6.9,2.7A3.6,3.6,0,0,1,297,462h-1a1.2,1.2,0,0,1-1-1l-3.5-9.9c0-.1-.3-.2-.3-.4s.2-1.8.2-2.7,2,.1,2.6.7a53.3,53.3,0,0,0,6.5,4.6c1.6,1,3.4,2,4.3,4,.2.5,1.4.5,2.1.7s-.7,3.1,1.7,3.2c1.4,3.5,4.1,5.9,6.4,8.8a22.3,22.3,0,0,0,3.4,3c1.1.9,1.7,2.5,3.6,2.1,1.8,2.3,5.3,1.6,7,4s.1,2.8-2,2h-3c-.6-.7-1.2-1.9-1.7-1.9s-2.2-.4-2.6-1.8S317.9,477.1,317,477Z" transform="translate(-187 -277)" style="fill: #59c6a8"/>
    <path d="M361,353v-2c1.5.1.8,1.2,1,2Z" transform="translate(-187 -277)" style="fill: #a0e3d2"/>
    <path d="M327,481q2.5.5,2-2c.8.2,1.9-.5,2,1v2h-2C328.2,481.8,327.1,482.5,327,481Z" transform="translate(-187 -277)" style="fill: #76c1ac"/>
    <path d="M257,338c-.4,1,.9,2.5-1,3v-3Z" transform="translate(-187 -277)" style="fill: #76c1ac"/>
    <path d="M251,351c1.6.2.8,1.4,1,2.2s-.3,1.7,1,1.8,1,2.7,0,4h-1c-.8-.2-1.9.5-2-1l1-1Z" transform="translate(-187 -277)" style="fill: #968643"/>
    <path d="M311,485v2h-3c-.1-1.5-1.2-.8-2-1v-1Z" transform="translate(-187 -277)" style="fill: #76c1ac"/>
    <path d="M304,484c.8.2,1.9-.5,2,1C305.2,484.8,304.1,485.5,304,484Z" transform="translate(-187 -277)" style="fill: #76c1ac"/>
    <path d="M355,339c-1.5-.1-.8-1.2-1-2h1Z" transform="translate(-187 -277)" style="fill: #76c1ac"/>
    <path d="M356,340l-1-1Z" transform="translate(-187 -277)" style="fill: #76c1ac"/>
    <path d="M274,422v-5q.5-.7,1,0c-.6,3.6.6,6.8,2.3,9.8a12,12,0,0,1,.7,2.2l-4-4A2.1,2.1,0,0,1,274,422Z" transform="translate(-187 -277)" style="fill: #3c534c"/>
    <path d="M287,434h-4c-.1-1.5-1.2-.8-2-1l-2-3c2.5,0,4.1,1.8,6.2,2.7a8.1,8.1,0,0,0,1.8.3Z" transform="translate(-187 -277)" style="fill: #3c534c"/>
    <path d="M287.6,422.1a12.6,12.6,0,0,1-2.7,1.8c-.6.2-1.8.5-1.9-.7s-.7-2.2.9-2.2A16.3,16.3,0,0,1,287.6,422.1Z" transform="translate(-187 -277)" style="fill: #4d6860"/>
    <path d="M281.9,408.9c.4,1.1.8,2.2,1,3.4s-.6.7-.9.7-.9-.4-1-.7a29.9,29.9,0,0,1,0-3.2Z" transform="translate(-187 -277)" style="fill: #f6f8f8"/>
    <path d="M275,417h-1c0-.8,0-1.6,0-2.5s.4-.3.6-.4l.3.8Z" transform="translate(-187 -277)" style="fill: #4d6860"/>
    <path d="M279,430l-1-1Z" transform="translate(-187 -277)" style="fill: #3c534c"/>
    <path d="M308,368c-1,7.2-2.8,14.2-7,20.3a21.3,21.3,0,0,1-3.7,3.9c-1.7,1.4-3.5,2.6-5.3,3.9-2.3-.6-3.3-2.8-3.8-4.5s-3.3-2.5-2.3-5.1-.1-3.9.9-6.1a17.4,17.4,0,0,1,5.2-6.7C296.7,370.1,301.9,367.7,308,368Z" transform="translate(-187 -277)" style="fill: #f6f8f8"/>
    <path d="M286.2,374.5l-.5,1.3a3,3,0,0,1-.6-.9c-.1-.2.2-.5.3-.8Z" transform="translate(-187 -277)" style="fill: #fcfcfc"/>
    <path d="M288,373.5l-.7.3-.3-.3.7-.3Z" transform="translate(-187 -277)" style="fill: #fcfcfc"/>
    <path d="M303,343c-1.6.2-.8,1.4-1,2.2s.3,1.7-1,1.8a37.3,37.3,0,0,1,0-3.8c0-.4.6-.8,1-1.2Z" transform="translate(-187 -277)" style="fill: #a2e2d2"/>
    <path d="M263,349l-1-1q-.4-.3-.3-.7t.3-.3c3.6-.7,6.7,1.2,10,2.1a3.9,3.9,0,0,1,3,4.4c-.2,2.8.4,5.8-2,8.1-.2.2,0,1,0,1.4a6.7,6.7,0,0,1-2,2,4.3,4.3,0,0,0-1.5,0c-3.2,1.3-3.2,1.2-6,0a28.5,28.5,0,0,0-3.5-1q-.5-.3-.3-.7t.3-.3a2.9,2.9,0,0,1,2.7-.8c5.8,1.9,7.2,1.1,9-5.7s-4.1-5.5-7.5-6.7Z" transform="translate(-187 -277)" style="fill: #3c534c"/>
    <path d="M262,347v1c-2,.1-3.8-.1-5-2,1-.4,2.5.9,3-1a.6.6,0,0,1,1,0Z" transform="translate(-187 -277)" style="fill: #4d6860"/>
    <path d="M262,343a8.8,8.8,0,0,0,0-1.4c-.3-1.8.9-1.6,2-1.6A2.5,2.5,0,0,1,262,343Z" transform="translate(-187 -277)" style="fill: #4c8374"/>
    <path d="M271,365l2-2Q273.5,365.5,271,365Z" transform="translate(-187 -277)" style="fill: #76c1ac"/>
    <path d="M261,345h-1l2-2C261.8,343.8,262.5,344.9,261,345Z" transform="translate(-187 -277)" style="fill: #4c8374"/>
    <path d="M264,340l1-1Z" transform="translate(-187 -277)" style="fill: #4c8374"/>
    <path d="M260,363v1h-2C258.1,362.5,259.2,363.2,260,363Z" transform="translate(-187 -277)" style="fill: #75948b"/>
    <path d="M259,369v-2l1,1.2Z" transform="translate(-187 -277)" style="fill: #cbf8f0"/>
    <path d="M253,359v-6c4.1-2.5,6.9,1.2,10.3,2.1,1.2,2.4,1.5,4.6-.9,6.4a3.8,3.8,0,0,1-3.4-.5l-3.8-1.3Z" transform="translate(-187 -277)" style="fill: #e3c025"/>
    <path d="M262,361c.3-.4.9-.8,1-1.2s0-3.2,0-4.8l.7-.2c1.6,1,1.5,2.7,1.8,4.3s-.7,3.2-2.5,3.9h-3v-1C260.5,361.3,261.5,361.7,262,361Z" transform="translate(-187 -277)" style="fill: #968643"/>
    <path d="M262,361c-.1,1.5-1.2.8-2,1l-1-1Z" transform="translate(-187 -277)" style="fill: #ecd552"/>
    <path d="M361,360c1.5.8,3.1,1.6,1,3.5,1.9,2.3.8,5,.9,7.5s.5,5.5-.4,7.8.5,5.2-1.5,7.4c-.5.6-.1,1.9-.1,2.9s-1.7-.1-1.8-.4a16.3,16.3,0,0,1-1.2-4.5c-.2-2.5.1-5-.1-7.5a53.2,53.2,0,0,0-1-6.6,15.4,15.4,0,0,0-1.4-4.9c-.7-1.1-.5-2.2-.6-3.3l.6-.4c1.4-.5,3.3,1.9,4.4-.7A3.2,3.2,0,0,1,361,360Z" transform="translate(-187 -277)" style="fill: #9be4d2"/>
    <path d="M347,345l1,2c1.9.5.6,2,1,3s-1.9-.5-2,1l-2-1-1-1-1-1c.8-2.3-1.3-3.4-2-5a6.4,6.4,0,0,0-2-2l-2-1-1-1-2-2-2-2-1-2a23.5,23.5,0,0,1,4.9,1.1A24.2,24.2,0,0,1,340,337a2.4,2.4,0,0,1,3,1c.2,1.2-.8,2.9,1.6,3.3.6.1.9,1.8,1.4,2.7S346.9,344.4,347,345Z" transform="translate(-187 -277)" style="fill: #62c4a8"/>
    <path d="M361,360v1a13,13,0,0,0-6,1c-1.9-.6-.3-3.1-2-3.8.6-3.1-1.7-4.9-3-7.2q-.4-.3-.3-.7t.3-.3l1-1a1.2,1.2,0,0,0,2,0c1.2-1.1,2.7-2,4-3,1.6,1.7,2.1,3.8,1.3,6.6l-.6.7,1-1h0l-.3.3c1-.4,1.4-.2,1.6.1l1,1.2Z" transform="translate(-187 -277)" style="fill: #a0e3d2"/>
    <path d="M353,370h-1v-3C353.9,367.5,352.6,369,353,370Z" transform="translate(-187 -277)" style="fill: #76c1ac"/>
    <path d="M350,350v1l-1-1Z" transform="translate(-187 -277)" style="fill: #62c4a8"/>
    <path d="M339,341q2.5-.5,2,2h-1Z" transform="translate(-187 -277)" style="fill: #76c1ac"/>
    <path d="M307,457c0-.5,0-1,0-1.5s.1-3-2.2-2.5-1.9-.5-1.9-1.9,0-5.2,0-8c2.2-.1,4.2-.5,6,.9s5.3,2.4,5,6c-.2,1,3.1,2.6-.6,3.1-.6.1-1,1.2-1.4,1.9s-2.3.9-3,2Z" transform="translate(-187 -277)" style="fill: #a2e2d2"/>
    <path d="M314,450c-.3-.3-.9-.5-1-.8-.8-2.9-.8-3-3.7-3.2s.6-1.5-.4-2c3.8-.1,3.9-.2,4-4l2,1c-.8,1.6-.4,2.9,1,3s2.6,0,3.9,0l.7,1a10.9,10.9,0,0,1-1.7.7l-3.7.7C315.4,447.8,314.6,448.9,314,450Z" transform="translate(-187 -277)" style="fill: #cbf8f0"/>
    <path d="M351.6,467.1l.5,1c.8,1.6,1.2,3.8,3.9,3,.2-.1.7.7,1.1,1.2s-.6.7-1,.7-3-.6-3.2,1.7c0,.1-1.2.3-1.2.2a3.2,3.2,0,0,0-2.4-2.4,1.8,1.8,0,0,1,0-.9C351.5,471,351,468.9,351.6,467.1Z" transform="translate(-187 -277)" style="fill: #cbf8f0"/>
    <path d="M341.6,453.9c-.8.5-1.2,1-1.6,1.1s-1.9-.2-2,1.4-1.8.8-1.7.2-1.6-1.3-2.2-2.1l-.9-1.1,1.3-.4c.5-.2,1.5-.3,1.6-.7.7-2.1,1.3-2.4,2-.1s1.3.6,2,.8Z" transform="translate(-187 -277)" style="fill: #cbf8f0"/>
    <path d="M340,462.8c-.2.8.6,2-1,2.2s-2.8-.8-3-1.8,1.1-2,2.6-2.2S340,461.8,340,462.8Z" transform="translate(-187 -277)" style="fill: #cbf8f0"/>
    <path d="M360,439H349c.1-.3.2-.8.3-.8h10.3C359.8,438.2,359.9,438.7,360,439Z" transform="translate(-187 -277)" style="fill: #4c8374"/>
    <path d="M309,457c0-.2,0-.3,0-.5.1-3.1.2-3.1,3-1.5C311.8,457,311.8,457,309,457Z" transform="translate(-187 -277)" style="fill: #cbf8f0"/>
    <path d="M347.9,465.1c2.2-.4,2.3.6,2.1,1.6s-.6,1.2-1,1.2-2.3-1.5-1.9-2.2A1.3,1.3,0,0,1,347.9,465.1Z" transform="translate(-187 -277)" style="fill: #cbf8f0"/>
    <path d="M343.9,459.8c.4,2.1-.5,2.4-1.6,2.1s-.9-.6-1.3-.9l2.2-2.1Z" transform="translate(-187 -277)" style="fill: #cbf8f0"/>
    <path d="M352.1,459.5c-1.2.7-2.2,1.6-2.6,1.4a3,3,0,0,1-1.5-2.1c-.1-1.2,1.2-.8,1.9-.7S350.8,458.6,352.1,459.5Z" transform="translate(-187 -277)" style="fill: #cbf8f0"/>
    <path d="M333.4,459.5l-1.4-1.7a6.5,6.5,0,0,1,1.5-.7c.9-.2,1.7.1,1.5,1.2S334.1,458.9,333.4,459.5Z" transform="translate(-187 -277)" style="fill: #cbf8f0"/>
    <path d="M339,440c.1-1.5,1.2-.8,2-1s.5,1.8-.8,1.9S339.4,440.3,339,440Z" transform="translate(-187 -277)" style="fill: #59c6a8"/>
    <path d="M347,439h1l-.7.8Z" transform="translate(-187 -277)" style="fill: #59c6a8"/>
    <path d="M301,462l1.8,2,2.2,2c.6.5.4,1.5,1,2a6.4,6.4,0,0,1,2,2l1,1,1,1c.6.5,1.5.9,1.1,1.9A2.3,2.3,0,0,1,309,475c-.6-.1-1.7-.1-1.7-.3-.4-2.1-2.4-2.9-3.4-4.4s-2.4-1.3-3.8-1.3-1.7-1.7-1-3-.5-1-.8-1-1.2-1.2-1.2-2a4.7,4.7,0,0,1,2.8-1.5A1.4,1.4,0,0,1,301,462Z" transform="translate(-187 -277)" style="fill: #62c4a8"/>
    <path d="M305,477c.3.3.5,1,.8,1s1.2,1.2,1.2,2-1.5.4-2,1l-.3.8c-.5-.3-1-.9-1.5-.8-2.9.5-2.1-1.6-2.2-3S303.3,475.8,305,477Z" transform="translate(-187 -277)" style="fill: #cbf8f0"/>
    <path d="M305,477l-1.8.3-2.2.7-1.2-1-.8-1a5.9,5.9,0,0,1,2-3C304.8,473.8,304.9,473.8,305,477Z" transform="translate(-187 -277)" style="fill: #a2e2d2"/>
    <path d="M309,475c.1-1.5,1.2-.8,2-1l.5.2a2.1,2.1,0,0,0,.5.8,28.5,28.5,0,0,0-1,3.5,24.1,24.1,0,0,0,0,3.5C308.9,480.1,309,477.5,309,475Z" transform="translate(-187 -277)" style="fill: #59c6a8"/>
    <path d="M298,475c-1.3-1-3.5-.9-4-3s1-2.2,2-3,2.2,0,3,1l-1,2A2.1,2.1,0,0,1,298,475Z" transform="translate(-187 -277)" style="fill: #a2e2d2"/>
    <path d="M299,470l-3-1c.2-2.2.8-2.8,3-3l1,3Z" transform="translate(-187 -277)" style="fill: #cbf8f0"/>
    <path d="M298,475v-3h2a.7.7,0,0,1,1,0v1a8.8,8.8,0,0,0,0,1.4c.3,1.8-.9,1.6-2,1.6Z" transform="translate(-187 -277)" style="fill: #cbf8f0"/>
    <path d="M300,462c-.5,1.9-2,.6-3,1v-1c.4-1-.9-2.5,1-3q.5-.7,1,0l1,1A1.4,1.4,0,0,1,300,462Z" transform="translate(-187 -277)" style="fill: #56c9a7"/>
    <path d="M295,461l1,1c-.1.6,0,1.5-.3,1.7a4.1,4.1,0,0,1-2.2.2c-.2,0-.6-1-.4-1.1A17,17,0,0,1,295,461Z" transform="translate(-187 -277)" style="fill: #cbf8f0"/>
    <path d="M296,469a2.5,2.5,0,0,1-2,3,8.8,8.8,0,0,0,0-1.4C293.7,468.8,294.9,469,296,469Z" transform="translate(-187 -277)" style="fill: #cbf8f0"/>
    <path d="M305,481c.1-1.5,1.2-.8,2-1C306.9,481.5,305.8,480.8,305,481Z" transform="translate(-187 -277)" style="fill: #a2e2d2"/>
    <path d="M305.8,456c-.4-.2-.8-.4-.8-.5a7.2,7.2,0,0,1,.3-1.3c.2.1.6.2.6.4A7.6,7.6,0,0,1,305.8,456Z" transform="translate(-187 -277)" style="fill: #a2e2d2"/>
    <path d="M298,475l1,1Z" transform="translate(-187 -277)" style="fill: #a2e2d2"/>
    <path d="M301,472h-1l.7-.8Z" transform="translate(-187 -277)" style="fill: #a2e2d2"/>
    <path d="M273,421v1a2.4,2.4,0,0,1,0,3c-2.1.5-2-.8-2-2.2S271.7,420.8,273,421Z" transform="translate(-187 -277)" style="fill: #56c9a7"/>
    <path d="M273,425v-3h1v3Z" transform="translate(-187 -277)" style="fill: #76c1ac"/>
    <path d="M380,435v2a1.2,1.2,0,0,1-1,1c-1-.4-2.5.9-3-1l.3-2.8C377.6,434.4,379.2,432.9,380,435Z" transform="translate(-187 -277)" style="fill: #cbf8f0"/>
    <path d="M374.5,431.8c-.7.5-1.1,1-1.6,1.1s-.6-.5-1-.7a4.8,4.8,0,0,1,1-1.2C373.2,430.9,373.7,431.4,374.5,431.8Z" transform="translate(-187 -277)" style="fill: #cbf8f0"/>
    <path d="M269,438v-2q2.5-.5,2,2h-2Z" transform="translate(-187 -277)" style="fill: #cbf8f0"/>
    <path d="M385,440c.7-.2,1.8.5,2-.8a7.9,7.9,0,0,1,.6-3c.3,1,.4,2.3,1.1,2.9s2.2,1,3.3,1.5c-1.5,1.3-3,2.4-5,2.5l-1-1C385.4,441.4,384.4,441.1,385,440Z" transform="translate(-187 -277)" style="fill: #cbf8f0"/>
    <path d="M385,440l1,2c-2.6-.4-3.8-1.2-4-3C383,439.4,384.5,438.1,385,440Z" transform="translate(-187 -277)" style="fill: #9be4d2"/>
    <path d="M379,438l1-1c1.5.1.8,1.2,1,2S379.1,439.5,379,438Z" transform="translate(-187 -277)" style="fill: #9be4d2"/>
    <path d="M376.4,442.6c-.9.2-1.4.5-1.7.3s-.5-.6-.7-1h.9Z" transform="translate(-187 -277)" style="fill: #3c534c"/>
    <path d="M374,442c-.8-.2-1.9.5-2-1C372.8,441.2,373.9,440.5,374,442Z" transform="translate(-187 -277)" style="fill: #3c534c"/>
    <path d="M379,446l1,1Z" transform="translate(-187 -277)" style="fill: #3c534c"/>
    <path d="M378,445l1,1Z" transform="translate(-187 -277)" style="fill: #4d6860"/>
    <path d="M377.6,445l-.5-.6.6-.2a2.8,2.8,0,0,1,.3.8Z" transform="translate(-187 -277)" style="fill: #4d6860"/>
    <path d="M391.1,437.6l.4-.6c.1.1.3.2.3.3a3.1,3.1,0,0,1-.3.7Z" transform="translate(-187 -277)" style="fill: #9be4d2"/>
    <path d="M339,333.3c-.7-.4-1.8-.6-1.9-1a13.1,13.1,0,0,1,.4-3.2c.4.1,1.1.1,1.3.4s.5,1.5.7,1.6,1.8.3,1.4,1.3S339.7,332.9,339,333.3Z" transform="translate(-187 -277)" style="fill: #9be4d2"/>
    <path d="M346,335h1v1a1.4,1.4,0,0,1,0,2c0,1.1,0,2.3,0,3.4s-.2.2-.4.5l-1.6-4a1.4,1.4,0,0,1,0-2Z" transform="translate(-187 -277)" style="fill: #f6f8f8"/>
    <path d="M345,336v2h-2l-3-1c.4-.3.8-.9,1.2-1A37.3,37.3,0,0,1,345,336Z" transform="translate(-187 -277)" style="fill: #cbf8f0"/>
    <path d="M357,346c-.1,3-.1,3-4,3a5.4,5.4,0,0,1,1-4h3Z" transform="translate(-187 -277)" style="fill: #cbf8f0"/>
    <path d="M347,338v-2l1.8.3,2.2.7c-.4.3-.7.9-1.2,1A17.8,17.8,0,0,1,347,338Z" transform="translate(-187 -277)" style="fill: #cbf8f0"/>
    <path d="M353,349c-.1.9.4,2.2-1.2,2s-.6-1.3-.8-2Z" transform="translate(-187 -277)" style="fill: #cbf8f0"/>
    <path d="M351.8,340.5c.7.7,1.2,1.1,1.2,1.3a2.8,2.8,0,0,1-1,1.2c-.1.1-.9-.5-.9-.7A5.8,5.8,0,0,1,351.8,340.5Z" transform="translate(-187 -277)" style="fill: #cbf8f0"/>
    <path d="M347,345l-1-1h1l.8.3Z" transform="translate(-187 -277)" style="fill: #a0e3d2"/>
    <path d="M353.6,345l-.5-.6.6-.2a2.8,2.8,0,0,1,.3.8Z" transform="translate(-187 -277)" style="fill: #a0e3d2"/>
    <path d="M311,474l-1-2a2.5,2.5,0,0,1,3,2h-1A.6.6,0,0,1,311,474Z" transform="translate(-187 -277)" style="fill: #4c8374"/>
    <path d="M311,474h1v1Z" transform="translate(-187 -277)" style="fill: #62c4a8"/>
    <path d="M314,475l1,1Z" transform="translate(-187 -277)" style="fill: #4c8374"/>
    <path d="M241,345c1.5.1.8,1.2,1,2v3.9C240.7,349,241.2,347,241,345Z" transform="translate(-187 -277)" style="fill: #968643"/>
    <path d="M263,355c-1.7,0-3.5.3-5-1s-3.3-1-5-1v-2h3.4a3.3,3.3,0,0,1,3.4,1.3c.8,1.2,2.1.5,3.2.7l.4.4A1.3,1.3,0,0,1,263,355Z" transform="translate(-187 -277)" style="fill: #ecd552"/>
    <path d="M263,349h1c1.1,1.2,2.2,2.4,1.2,4.1a1.7,1.7,0,0,1-2.2-.1Z" transform="translate(-187 -277)" style="fill: #968643"/>
    <path d="M299,459h-1l-1-3A2.5,2.5,0,0,1,299,459Z" transform="translate(-187 -277)" style="fill: #4c8374"/>
    <path d="M308,470l-2-2Q308.5,467.5,308,470Z" transform="translate(-187 -277)" style="fill: #4c8374"/>
    <path d="M300,462v-2c1.5.1.8,1.2,1,2Z" transform="translate(-187 -277)" style="fill: #4c8374"/>
    <path d="M306,468c-1.5-.1-.8-1.2-1-2C306.5,466.1,305.8,467.2,306,468Z" transform="translate(-187 -277)" style="fill: #4c8374"/>
    <path d="M310,472l-1-1Z" transform="translate(-187 -277)" style="fill: #4c8374"/>
    <path d="M309,471l-1-1Z" transform="translate(-187 -277)" style="fill: #4c8374"/>
    <path d="M300,460l-1-1Z" transform="translate(-187 -277)" style="fill: #4c8374"/>
    <path d="M296.6,456l-.5-.6.6-.2a2.8,2.8,0,0,1,.3.8Z" transform="translate(-187 -277)" style="fill: #4c8374"/>
    <path d="M295.4,453.9l-.4-.4.7-.3.3.3Z" transform="translate(-187 -277)" style="fill: #4c8374"/>
    <path d="M265,353c-.2-.7-.5-1.4-.7-2.2s-.2-1.2-.3-1.8a17.6,17.6,0,0,1,3.8.3c5.3,1.6,5.2,1.6,5.2,7.7-2.8,2.7-5.5,1.5-8.3,0C264.5,355.6,263.9,354.3,265,353Z" transform="translate(-187 -277)" style="fill: #ecd552"/>
    <path d="M265,357c2.1.5,4.5-1,6.5.9.1.1,1-.6,1.5-.9.1,2.4-1.6,4-2.6,5.9s-2.2,1.7-3.5,2A3.6,3.6,0,0,1,263,363l2-4A1.4,1.4,0,0,1,265,357Z" transform="translate(-187 -277)" style="fill: #e3c025"/>
    <path d="M265,357v2c-1.6-.2-.8-1.4-1-2.2s.3-1.7-1-1.8v-2h2Z" transform="translate(-187 -277)" style="fill: #3c534c"/>
    <path d="M355,362a7.3,7.3,0,0,1,1.3-1c.4-.2,1.3,0,1.3-.2a11.2,11.2,0,0,0,.4-2.3,7.5,7.5,0,0,1,1.7.9A8.9,8.9,0,0,1,361,361c.6,2.1-2.3,2.1-2.4,3.9l-.6-1A2.7,2.7,0,0,0,355,362Z" transform="translate(-187 -277)" style="fill: #cbf8f0"/>
    <path d="M348.2,347.9l-.8,1a4.9,4.9,0,0,1-.4-1.2c0-.2.3-.5.5-.7Z" transform="translate(-187 -277)" style="fill: #56c9a7"/>
    <path d="M358.9,352.5c.3,2.1-.4,3.3-1.8,3.4s-2.1-1.4-2-2A2.2,2.2,0,0,1,358,352,2.9,2.9,0,0,1,358.9,352.5Z" transform="translate(-187 -277)" style="fill: #cbf8f0"/>
    <path d="M305,449c.1-.9-.4-2.1,1.3-2s2.8,1.1,2.7,2-1.4,1.9-2.8,2S305.1,449.8,305,449Z" transform="translate(-187 -277)" style="fill: #cbf8f0"/>
    <path d="M312.5,451.2c-.8.4-1.3.9-1.5.8a4.8,4.8,0,0,1-1-1.2c.3-.3.7-.8,1-.7S311.8,450.6,312.5,451.2Z" transform="translate(-187 -277)" style="fill: #cbf8f0"/>
  </g>
</svg>
