<?xml version="1.0" standalone="no"?>
<!DOCTYPE svg PUBLIC "-//W3C//DTD SVG 20010904//EN"
 "http://www.w3.org/TR/2001/REC-SVG-20010904/DTD/svg10.dtd">
<svg version="1.0" xmlns="http://www.w3.org/2000/svg"
 width="850.000000pt" height="850.000000pt" viewBox="0 0 850.000000 850.000000"
 preserveAspectRatio="xMidYMid meet">
<metadata>
Created by potrace 1.14, written by Peter Selinger 2001-2017
</metadata>
<g transform="translate(0.000000,850.000000) scale(0.100000,-0.100000)"
fill="#000000" stroke="none">
<path d="M4186 8321 c-312 -420 -483 -950 -522 -1625 l-7 -119 -22 54 c-75
183 -216 401 -447 690 l-123 154 -6 -45 c-38 -266 -8 -732 77 -1192 73 -399
151 -712 242 -974 l49 -142 -101 82 c-112 90 -120 95 -290 187 -66 35 -144 86
-173 112 l-53 49 1 -33 c1 -19 3 -26 6 -17 3 14 15 8 64 -32 34 -26 88 -63
122 -81 91 -47 188 -106 220 -131 l27 -23 -20 -32 c-25 -42 -55 -43 -78 -2
-26 48 -45 68 -26 29 35 -74 68 -89 103 -44 11 14 21 30 24 37 2 6 45 -22 98
-65 92 -74 95 -78 138 -174 25 -55 55 -116 68 -137 13 -21 21 -42 18 -47 -3
-4 0 -10 6 -12 6 -2 21 -20 33 -40 55 -93 199 -274 257 -322 l29 -24 -35 -35
c-38 -38 -45 -71 -18 -81 13 -5 5 -14 -35 -36 -62 -36 -73 -37 -107 -7 -35 30
-27 45 51 108 36 28 69 61 75 73 9 17 7 17 -13 -5 -12 -14 -47 -45 -76 -69
-78 -63 -83 -77 -39 -115 l36 -31 -45 -28 c-50 -32 -52 -31 -129 37 l-40 36
66 63 c96 92 110 167 46 237 -27 29 -77 51 -114 50 -20 -1 -15 -4 17 -10 57
-11 90 -35 113 -82 29 -59 11 -108 -71 -184 -36 -35 -69 -63 -72 -63 -3 1 -23
16 -44 34 l-39 34 21 27 c31 39 30 98 -3 130 -13 14 -30 25 -37 25 -7 0 -4 -6
7 -12 11 -6 26 -18 33 -26 19 -24 14 -84 -9 -112 l-21 -24 -51 55 c-76 79
-104 114 -178 213 l-67 88 19 42 c10 22 18 57 18 76 -1 32 -2 31 -9 -11 -4
-26 -14 -57 -20 -69 -12 -23 -13 -23 -37 16 -65 105 -150 289 -193 421 -25 76
-69 259 -71 293 -2 22 -2 22 -6 4 -2 -12 8 -75 22 -139 64 -286 188 -552 366
-787 81 -107 242 -272 338 -348 l76 -60 -100 -102 c-165 -168 -282 -363 -399
-666 -116 -298 -199 -590 -260 -914 -144 -767 -99 -1334 135 -1679 114 -169
341 -344 583 -451 164 -72 375 -128 558 -147 125 -14 411 -14 536 0 361 39
707 184 963 403 246 209 359 482 389 934 46 691 -226 1804 -567 2315 -78 116
-215 263 -311 332 l-69 50 111 115 c402 418 661 1082 721 1848 5 68 4 82 -8
82 -8 0 -21 -8 -28 -17 -8 -9 -93 -86 -189 -172 -96 -86 -220 -200 -276 -253
l-101 -98 24 87 c66 245 115 506 134 726 14 156 7 465 -16 712 -9 94 -17 248
-18 342 -1 95 -5 173 -9 173 -4 0 -52 -51 -106 -112 -232 -261 -374 -461 -507
-712 l-53 -98 -7 53 c-52 412 -169 823 -324 1128 -94 188 -135 288 -146 364
-4 26 -11 47 -16 47 -5 0 -42 -45 -83 -99z m84 48 c0 -44 55 -181 145 -361 63
-126 109 -234 140 -330 46 -141 125 -437 125 -461 -1 -6 -37 -50 -82 -97 l-80
-85 7 40 c4 21 18 52 31 68 56 67 78 146 54 202 -5 12 -6 -1 -3 -36 6 -59 -7
-97 -53 -151 l-22 -28 -7 68 c-14 153 -51 272 -116 373 -18 29 -27 53 -23 65
5 16 4 16 -5 4 -9 -13 -12 -13 -27 1 -14 15 -14 19 0 47 9 17 38 60 65 95 63
84 72 103 22 48 -22 -25 -56 -73 -76 -107 l-37 -62 -29 16 c-16 10 -29 22 -29
28 0 14 43 78 81 122 56 64 49 108 -36 222 -50 67 -68 104 -77 154 -2 13 -20
-5 -63 -65 -78 -109 -115 -182 -115 -231 0 -38 32 -113 65 -153 9 -11 0 10
-19 46 -58 107 -47 161 70 322 l49 68 18 -42 c10 -23 40 -73 67 -110 86 -115
88 -147 15 -229 -25 -28 -51 -63 -59 -78 -12 -24 -20 -27 -62 -27 -33 0 -55
-6 -66 -17 -26 -26 -33 -23 -54 24 -10 23 -43 78 -72 122 l-54 81 32 61 c77
152 250 413 273 414 4 0 7 -9 7 -21z m-224 -610 l56 -98 -25 -33 c-14 -18 -32
-50 -41 -71 -21 -52 -46 -176 -46 -232 l0 -47 -42 37 c-24 20 -55 55 -70 77
-16 23 -28 37 -28 32 0 -16 30 -56 86 -114 52 -55 52 -55 56 -127 2 -40 3 -73
3 -73 -1 0 -29 36 -64 79 -34 44 -84 100 -111 125 l-49 46 34 122 c39 144 70
233 115 342 l33 79 19 -23 c10 -12 43 -67 74 -121z m1374 -116 l0 -76 -22 19
c-22 18 -22 18 0 -8 20 -22 23 -33 18 -74 -4 -28 -3 -41 2 -30 14 32 46 -643
39 -826 -13 -339 -103 -760 -258 -1216 -98 -285 -270 -698 -389 -931 -75 -148
-80 -154 -106 -144 -20 8 -19 11 27 91 100 175 192 420 267 718 180 701 287
1254 372 1915 16 128 29 245 29 259 -1 14 -5 -4 -10 -40 -5 -36 -11 -80 -14
-98 l-6 -33 -48 53 c-27 29 -64 61 -82 71 -33 17 -33 17 -9 0 48 -35 100 -85
120 -117 17 -29 18 -40 10 -92 -6 -32 -10 -63 -10 -69 0 -5 -10 1 -21 15 l-20
25 19 -36 c19 -39 19 -37 -17 -268 -1 -2 -21 23 -45 56 -36 50 -99 106 -153
137 -33 19 -7 -5 41 -38 50 -35 118 -110 144 -162 9 -16 7 -49 -8 -135 -11
-63 -20 -118 -20 -124 0 -5 -19 24 -41 66 -48 93 -130 186 -190 217 -24 12
-36 17 -25 10 107 -75 182 -165 226 -274 l23 -56 -23 -131 c-12 -73 -24 -135
-27 -139 -2 -4 -27 38 -55 94 -42 83 -66 117 -132 184 -45 45 -96 89 -113 98
-48 24 -40 13 15 -22 95 -62 189 -181 243 -310 34 -82 35 -112 5 -232 l-13
-55 -18 40 c-43 98 -148 234 -228 297 -26 20 -15 6 29 -37 80 -79 143 -168
185 -261 l29 -64 -20 -92 c-12 -51 -29 -127 -40 -168 -10 -41 -31 -127 -45
-190 -15 -63 -28 -116 -30 -118 -1 -1 -20 28 -41 64 -21 37 -69 97 -106 134
l-68 68 7 140 c4 98 9 139 17 135 7 -4 6 -1 -1 8 -13 16 -20 106 -28 357 -3
90 -7 187 -10 215 -16 165 -18 153 41 274 62 126 163 296 348 586 69 109 133
213 141 230 20 41 14 32 -139 -206 -186 -292 -300 -483 -355 -596 -46 -94 -49
-98 -55 -69 -17 85 -8 119 60 243 120 216 272 436 447 645 73 86 128 148 135
149 1 1 2 -33 2 -76z m-1101 9 c85 -68 155 -201 181 -342 7 -36 12 -115 12
-177 l0 -112 -55 -83 c-30 -46 -62 -98 -71 -115 -17 -35 -23 -38 -44 -25 -10
7 -9 17 5 48 13 30 18 76 21 195 6 228 -15 344 -75 410 -31 34 -41 40 -72 37
-39 -3 -72 -41 -92 -107 -14 -47 -22 -244 -12 -299 6 -31 8 2 8 110 1 164 12
217 57 265 40 43 99 19 133 -53 44 -93 62 -404 29 -515 -19 -66 -24 -72 -58
-63 l-26 6 -1 167 c0 162 -13 303 -19 221 -2 -19 -2 -114 0 -210 l2 -176 -38
-12 c-21 -6 -39 -10 -40 -9 -1 1 -13 26 -28 54 -14 29 -49 92 -77 139 -51 86
-51 88 -56 188 -10 191 27 360 98 439 63 72 143 79 218 19z m-1199 -267 c23
-30 39 -59 35 -65 -6 -9 8 -15 29 -11 5 1 6 -5 2 -14 -3 -9 -2 -13 4 -10 10 6
162 -192 248 -325 70 -108 153 -264 190 -360 27 -70 30 -87 36 -260 3 -102 8
-210 11 -240 5 -44 -11 -8 -78 185 -150 427 -233 639 -341 868 -30 64 -57 117
-61 117 -3 0 -1 -9 5 -19 8 -16 6 -20 -8 -24 -14 -4 -13 -5 4 -6 15 -1 27 -16
45 -58 13 -32 25 -61 27 -65 2 -4 -14 -9 -35 -11 l-38 -4 41 -1 c37 -2 42 -5
62 -48 13 -26 22 -48 20 -49 -2 -2 -23 -8 -48 -14 l-45 -10 51 5 50 5 27 -68
c14 -37 29 -76 33 -86 6 -16 2 -17 -32 -12 -22 4 -57 2 -79 -4 l-40 -11 46 5
c25 2 62 2 82 -2 30 -5 38 -12 51 -44 9 -22 16 -41 16 -43 0 -2 -27 -6 -61
-10 -33 -3 -68 -11 -77 -17 -15 -9 -15 -10 2 -4 11 3 45 8 75 12 68 7 67 7
108 -108 l31 -86 -71 0 c-40 -1 -82 -5 -94 -10 -14 -5 11 -8 73 -8 l96 0 19
-50 c10 -27 19 -51 19 -52 0 -2 -20 -3 -44 -3 -54 0 -154 -31 -222 -69 l-52
-28 -12 61 c-6 34 -15 77 -20 96 -20 80 -52 283 -47 306 2 13 1 21 -3 19 -5
-3 -11 23 -15 58 -5 34 -9 71 -10 82 -10 73 -25 236 -31 325 -4 58 -9 99 -12
92 -5 -17 15 -283 34 -442 60 -508 220 -1141 411 -1625 103 -263 353 -737 461
-873 l30 -38 -63 -22 c-35 -12 -73 -22 -85 -22 -43 0 -33 54 16 86 23 16 26
16 47 -3 67 -58 50 -36 -31 41 -306 292 -492 686 -657 1386 -119 508 -170 853
-182 1220 -5 172 2 420 12 420 1 0 22 -25 45 -55z m870 -302 c39 -58 92 -146
116 -196 l45 -90 -30 -31 c-63 -66 -125 -260 -137 -432 l-7 -95 -36 33 c-20
19 -45 40 -56 48 -11 8 6 -10 38 -40 52 -50 58 -60 65 -112 5 -32 9 -58 8 -58
-1 0 -40 38 -88 84 -48 46 -120 106 -159 132 l-72 48 6 225 c3 124 13 285 22
356 15 131 51 347 61 375 9 23 141 -123 224 -247z m714 12 c22 -133 45 -336
60 -543 l13 -183 -102 -102 c-56 -56 -116 -119 -133 -141 l-30 -39 5 64 c3 35
10 72 15 81 4 10 35 35 67 57 108 73 130 119 116 235 -4 33 -11 108 -15 166
l-8 105 4 -120 c2 -66 7 -149 10 -185 7 -86 -12 -120 -101 -182 -38 -27 -70
-46 -72 -44 -3 2 -8 48 -14 101 -5 54 -16 127 -25 164 -20 82 -74 200 -102
225 l-21 18 21 42 c38 76 137 212 214 295 42 45 78 80 80 79 1 -2 9 -44 18
-93z m-347 -321 c82 -66 142 -249 151 -460 7 -170 -7 -237 -65 -325 -45 -67
-47 -69 -64 -52 -18 17 -18 21 -2 78 20 71 23 361 4 410 l-11 30 5 -35 c14
-108 16 -196 6 -285 -15 -130 -29 -178 -50 -169 -9 4 -29 9 -45 12 -28 5 -28
5 -22 61 13 123 19 331 9 331 -15 0 -23 -86 -23 -247 l0 -141 -29 -10 c-15 -6
-39 -22 -53 -36 l-24 -27 -69 93 -68 93 -5 140 c-5 158 9 252 59 389 51 140
106 190 201 183 46 -2 65 -9 95 -33z m-766 -522 l36 -103 -57 7 c-64 7 -141
-11 -222 -52 -70 -36 -59 -38 16 -3 136 64 253 62 281 -5 8 -18 16 -43 20 -57
l6 -24 -88 -1 c-89 -1 -173 -24 -219 -59 -10 -8 6 -4 36 9 104 46 250 58 278
23 6 -7 15 -48 21 -92 7 -44 14 -90 17 -102 4 -22 1 -23 -54 -23 -53 0 -170
-26 -160 -35 2 -2 26 2 53 10 26 8 72 15 101 15 60 0 67 -7 78 -75 l7 -40 -78
-2 c-82 -1 -145 -19 -194 -54 -34 -24 -41 -20 -58 30 -17 51 -15 56 33 82 25
13 43 25 41 27 -2 3 -24 -7 -49 -22 l-44 -26 -16 48 c-18 54 -82 285 -90 322
-3 14 -15 61 -26 105 -11 44 -20 88 -20 98 0 13 22 28 73 53 80 38 141 53 202
51 l40 -2 36 -103z m280 -40 c71 -66 168 -181 225 -267 l33 -50 -24 -51 c-34
-72 -55 -166 -55 -254 0 -70 13 -180 27 -225 5 -18 5 -19 -18 -2 -38 27 -117
67 -132 67 -25 0 -66 40 -76 73 -5 18 -10 24 -10 14 -2 -32 27 -74 59 -86 16
-6 43 -16 60 -22 16 -6 51 -27 77 -45 43 -30 50 -42 69 -104 l22 -70 -47 39
c-49 41 -143 101 -157 101 -5 0 20 -19 55 -41 66 -41 173 -142 205 -192 15
-22 16 -30 6 -42 -7 -8 -16 -13 -20 -10 -4 3 -7 -1 -7 -8 1 -6 -7 -39 -17 -71
-14 -45 -17 -81 -14 -152 l4 -94 -28 27 c-18 17 -35 49 -44 83 -8 30 -29 102
-46 160 -17 58 -35 132 -39 165 l-8 60 4 -65 c2 -36 17 -110 34 -165 16 -55
37 -127 46 -160 13 -44 27 -69 54 -95 37 -35 66 -99 39 -85 -7 3 -2 -2 12 -12
53 -38 131 -118 165 -169 50 -75 52 -84 21 -84 -19 0 -32 10 -49 38 -26 41
-92 103 -129 122 -28 15 -16 4 35 -34 36 -26 97 -100 97 -116 0 -5 -19 -10
-41 -12 l-42 -4 -40 86 c-22 47 -52 110 -67 140 -46 90 -159 383 -220 570 -51
154 -56 176 -42 182 16 6 15 7 0 7 -19 1 -21 9 -62 181 -48 202 -86 469 -101
714 l-7 109 62 -44 c35 -24 94 -72 131 -107z m912 6 c9 -155 9 -564 1 -689
l-7 -97 -60 -43 c-33 -24 -82 -69 -109 -99 l-50 -55 7 60 c8 66 24 91 96 148
66 52 81 89 84 216 l3 106 -7 -95 c-11 -135 -21 -158 -100 -228 l-67 -60 -12
113 c-17 162 -61 293 -130 384 -25 33 -25 34 -7 65 47 80 119 171 224 279 63
64 117 117 121 117 4 0 10 -55 13 -122z m1103 -183 c-9 -86 -19 -141 -27 -144
-7 -2 -8 -6 -1 -10 22 -14 -87 -486 -143 -616 -7 -16 -23 -59 -35 -95 -12 -36
-26 -69 -30 -73 -9 -10 -70 58 -70 79 0 8 19 24 43 34 23 11 31 17 17 14 -37
-9 -70 -32 -70 -49 0 -8 16 -32 35 -54 19 -21 35 -45 35 -52 0 -8 -38 -90 -85
-184 -93 -186 -187 -333 -223 -351 -14 -7 -19 -13 -12 -16 17 -5 -90 -137
-184 -226 l-77 -72 -58 32 -59 33 19 37 c24 47 48 49 112 8 26 -16 53 -30 60
-29 7 0 6 3 -3 6 -8 3 -34 19 -59 35 -60 37 -86 36 -111 -4 -11 -18 -21 -37
-23 -42 -3 -10 -137 35 -137 45 0 4 -9 5 -20 2 -11 -3 -20 -1 -20 3 0 5 44 97
98 205 70 140 102 194 112 191 12 -3 12 -1 2 6 -10 7 7 56 76 223 49 118 110
274 137 347 34 95 52 132 64 132 12 0 13 2 3 9 -11 6 -7 30 20 115 l33 108
120 116 c66 65 151 144 189 177 l68 59 35 -42 c19 -23 42 -42 51 -41 13 0 12
2 -4 9 -11 4 -32 24 -47 44 l-28 36 38 32 c20 18 67 60 103 92 79 71 77 74 56
-129z m-1563 -79 c75 -31 157 -156 199 -303 19 -67 22 -102 23 -258 l0 -180
-50 -72 c-47 -70 -50 -72 -67 -55 -17 16 -17 22 -3 87 26 122 16 343 -21 456
-30 94 -115 140 -160 87 -19 -23 -19 -23 2 -5 29 25 76 22 103 -7 54 -58 87
-230 78 -406 -3 -58 -11 -121 -17 -141 l-10 -37 -38 13 c-31 11 -43 11 -72 -1
-19 -8 -44 -24 -55 -34 -21 -20 -21 -20 -57 28 -25 32 -44 75 -61 137 -43 153
-51 206 -51 320 1 93 5 122 28 189 55 162 132 223 229 182z m-598 -326 c18 0
23 -14 43 -103 12 -56 22 -107 22 -113 0 -6 -25 -14 -55 -17 -29 -3 -62 -11
-72 -17 -17 -11 -16 -11 2 -5 11 4 45 9 77 12 l56 6 21 -69 c11 -37 19 -69 18
-69 -1 -1 -31 -7 -67 -14 -36 -7 -93 -28 -127 -46 l-61 -34 -28 64 c-23 56
-25 67 -13 82 13 16 12 17 -2 5 -15 -11 -21 1 -61 110 -39 107 -43 125 -31
140 32 36 183 83 238 72 11 -2 29 -4 40 -4z m1152 -102 c55 -57 127 -163 137
-201 3 -14 -9 -76 -29 -148 -20 -68 -44 -157 -55 -198 -11 -41 -22 -76 -24
-78 -2 -2 -27 20 -56 49 -47 47 -48 48 -13 7 66 -75 66 -71 21 -192 l-41 -108
-30 28 -31 28 27 -33 c15 -19 25 -37 23 -40 -2 -4 -16 -34 -30 -66 l-26 -59
-23 19 -22 19 19 -22 c18 -22 18 -23 -23 -93 -23 -38 -46 -70 -50 -70 -4 0 3
37 16 83 62 212 121 629 139 990 4 75 10 137 13 137 4 0 30 -24 58 -52z m-112
-291 c-15 -166 -42 -398 -47 -402 -2 -1 -25 -15 -52 -30 -26 -16 -73 -53 -102
-83 l-54 -56 0 51 c0 57 8 67 85 106 76 38 89 57 91 135 l2 67 -7 -68 c-4 -37
-14 -74 -22 -82 -16 -15 -141 -87 -144 -83 -1 2 -9 41 -17 88 l-16 85 35 70
c40 80 82 136 122 164 46 33 55 31 62 -19 l6 -45 1 40 c2 62 -9 72 -52 46 -52
-33 -112 -106 -148 -179 l-31 -65 -13 38 c-9 29 -10 44 -2 59 28 53 97 146
147 200 55 58 162 148 168 142 2 -2 -4 -82 -12 -179z m-889 -97 c18 -52 33
-96 34 -97 0 -2 -17 -3 -37 -4 -21 0 -47 -4 -58 -9 -13 -5 -1 -8 39 -7 l59 2
24 -60 c39 -99 39 -95 1 -95 -37 0 -106 -29 -146 -60 -25 -20 -27 -21 -40 -3
-22 29 -72 131 -72 147 0 8 -3 16 -8 18 -8 3 -82 162 -82 176 0 14 100 65 155
78 91 23 93 21 131 -86z m512 -26 c54 -37 99 -184 109 -356 6 -95 5 -102 -23
-160 l-29 -60 -12 93 c-24 180 -80 284 -142 264 -48 -15 -82 -149 -63 -252 8
-47 7 -51 -7 -43 -42 25 -50 40 -67 120 -36 178 2 311 111 384 43 29 90 33
123 10z m-40 -258 c67 -76 102 -297 68 -421 l-14 -50 -1 60 c-2 74 -26 251
-40 285 -17 44 -13 -52 9 -185 27 -164 26 -168 -18 -99 -21 33 -53 76 -71 96
-65 74 -67 258 -3 331 22 25 36 21 70 -17z m-329 -96 c22 -55 41 -102 41 -103
0 -2 -17 -4 -37 -5 -55 -4 -54 -12 1 -12 l47 0 30 -67 c30 -68 28 -82 -11 -83
-8 0 -39 -13 -67 -29 l-53 -29 -19 26 c-34 49 -181 306 -181 317 0 10 86 66
120 78 8 3 31 6 51 6 l36 1 42 -100z m687 -9 c-10 -54 -15 -62 -62 -99 -28
-22 -64 -62 -81 -88 -27 -42 -39 -73 -69 -171 -4 -14 -60 -18 -68 -5 -9 16 24
134 57 200 37 74 123 169 182 200 22 12 43 21 46 22 3 0 1 -27 -5 -59z m-21
-113 c-14 -72 -58 -247 -64 -257 -4 -7 -26 -8 -60 -4 l-53 6 7 36 c11 64 62
159 110 206 56 54 69 57 60 13z m-516 -203 c17 -30 31 -56 31 -59 0 -2 -28 -9
-62 -15 -35 -7 -72 -15 -84 -17 -15 -4 -27 4 -47 33 -15 22 -27 42 -27 46 0
13 112 64 147 66 6 1 25 -24 42 -54z m189 -137 c-3 -61 -4 -63 -33 -69 l-30
-7 28 -1 c23 -1 27 -5 27 -29 0 -32 -34 -194 -48 -232 -9 -23 -7 -27 29 -42
46 -20 52 -15 9 7 -16 9 -30 23 -30 32 0 14 3 14 23 -3 22 -19 22 -19 5 2 -17
19 -17 25 2 110 10 49 22 135 26 192 l7 103 71 -5 c232 -16 263 -21 294 -50
19 -16 22 -17 17 -3 -6 15 -3 15 26 5 19 -6 38 -15 43 -19 6 -5 19 -9 30 -9
46 -1 57 -22 63 -124 6 -96 6 -96 -18 -97 -21 -1 -21 -2 -4 -6 11 -3 23 -10
27 -17 12 -18 13 86 2 178 l-6 48 51 -27 c52 -29 67 -55 31 -55 -19 0 -28 7
-55 45 -8 12 -14 15 -15 7 0 -7 16 -29 35 -49 28 -29 35 -44 36 -77 0 -23 2
-52 5 -66 2 -14 1 -62 -2 -107 -5 -68 -9 -83 -22 -84 -11 0 -12 -2 -4 -6 16
-6 15 -38 -4 -102 -16 -55 -64 -115 -100 -125 -20 -6 -20 -3 -18 76 l2 83 -7
-72 c-3 -39 -9 -75 -13 -78 -15 -15 -60 8 -115 59 l-58 54 23 34 23 33 -25
-27 -25 -28 -20 29 c-26 36 -27 48 -3 30 15 -13 16 -12 3 3 -7 10 -17 15 -22
13 -9 -6 -39 46 -39 69 0 8 8 20 19 25 10 6 26 23 36 38 17 27 16 27 -17 -4
-19 -18 -39 -33 -44 -33 -10 0 -37 76 -49 140 -4 19 -9 43 -11 53 -4 13 1 17
28 19 l33 1 -32 4 c-26 3 -33 9 -34 26 -1 19 -2 19 -6 3 -6 -22 26 -197 38
-210 5 -6 9 -23 9 -39 0 -63 -40 -87 -80 -47 -28 28 -25 14 5 -22 14 -16 25
-25 25 -19 0 6 7 11 15 11 8 0 22 11 31 26 l17 25 28 -50 c62 -114 136 -194
209 -225 l33 -13 -69 -13 -68 -13 -36 40 c-19 22 -52 69 -72 104 -21 35 -38
60 -38 55 0 -16 52 -100 91 -148 22 -26 35 -49 29 -53 -11 -7 -42 -7 -230 -7
-69 1 -145 4 -169 7 l-44 7 30 17 c95 58 174 235 219 491 19 113 32 161 46
177 11 12 18 28 15 35 -4 9 -6 7 -6 -4 -1 -23 -44 -50 -66 -42 -9 4 -24 21
-32 38 l-14 31 6 -29 c6 -28 30 -55 49 -56 8 0 3 -91 -7 -145 -3 -11 -10 -50
-16 -86 -17 -90 -22 -97 -63 -82 -30 11 -31 11 -14 -2 11 -8 26 -15 33 -15 20
0 16 -25 -17 -104 -47 -114 -49 -115 -96 -76 l-39 33 38 -38 39 -37 -34 -35
c-44 -46 -78 -63 -126 -63 -50 0 -125 48 -166 107 l-29 42 26 21 c15 12 32 31
38 42 6 12 -6 4 -26 -17 l-38 -38 -18 34 c-10 19 -26 67 -35 108 -14 62 -14
75 -3 82 10 6 11 9 2 9 -9 0 -14 25 -15 88 -1 68 -2 74 -5 27 -4 -81 -10 -102
-33 -125 -11 -11 -16 -20 -11 -20 6 0 17 10 25 22 l16 22 0 -22 c0 -30 -17
-63 -44 -84 -11 -10 -16 -18 -9 -18 7 0 22 13 35 30 l22 30 17 -69 c23 -92 51
-144 111 -207 l50 -53 -39 10 c-134 34 -125 27 -162 120 -5 13 -10 18 -10 11
-1 -7 6 -29 14 -49 8 -20 14 -38 12 -40 -2 -1 -25 4 -52 14 -39 13 -45 18 -33
27 21 15 30 48 17 66 -8 12 -9 11 -4 -6 3 -13 -2 -30 -14 -45 l-19 -24 -79 39
c-66 32 -213 122 -213 130 0 1 25 1 55 -2 73 -6 127 15 191 76 49 46 136 182
148 232 4 14 -7 -3 -23 -38 -17 -35 -35 -61 -40 -58 -5 4 -13 1 -17 -5 -4 -8
-3 -9 4 -5 17 10 15 -6 -4 -32 -8 -12 -20 -20 -25 -17 -5 3 -6 0 -4 -7 8 -19
-80 -102 -99 -95 -10 4 -13 1 -10 -7 6 -16 -44 -36 -87 -36 -21 0 -29 5 -30
18 -1 15 -2 15 -6 -1 -4 -15 -11 -17 -31 -12 -25 6 -62 36 -62 50 0 3 24 30
54 61 47 49 54 53 59 35 6 -24 34 -38 48 -24 6 6 2 9 -13 9 -33 -1 -36 37 -6
66 56 54 218 165 218 150 0 -4 -10 -23 -21 -42 -12 -19 -15 -29 -7 -22 8 6 18
9 22 5 4 -4 5 -1 2 7 -7 17 28 80 44 80 5 0 10 -6 10 -14 0 -8 7 -22 16 -30
14 -14 18 -14 45 -1 35 19 39 29 5 13 -31 -13 -56 -4 -56 20 0 19 19 29 117
66 40 15 42 14 48 -3 3 -10 17 -21 30 -24 32 -6 32 1 0 13 -14 5 -25 14 -25
19 0 16 23 26 28 12 3 -9 7 -8 16 3 10 13 40 20 73 17 6 -1 14 -13 16 -28 4
-26 4 -26 6 4 1 35 9 38 106 46 22 2 46 4 53 5 10 2 12 -14 10 -60z m727 -138
c15 -16 31 -28 36 -27 14 4 109 -77 109 -92 0 -9 -24 8 -55 39 -30 30 -55 50
-54 45 1 -13 120 -117 139 -122 10 -3 9 -1 -2 7 -10 6 -18 16 -18 22 0 13 75
-57 91 -84 8 -15 6 -18 -10 -18 -11 0 -26 7 -34 15 -8 8 -17 11 -20 8 -20 -19
-237 191 -237 229 0 17 28 6 55 -22z m-21 -51 c30 -38 46 -68 44 -82 -7 -46
-89 -25 -87 22 1 14 -2 47 -6 74 -4 26 -6 47 -3 47 3 0 26 -27 52 -61z m198
-170 c22 -11 52 -21 68 -22 17 -1 30 -5 30 -8 0 -15 -48 -48 -65 -45 -11 2
-14 1 -7 -1 18 -7 15 -17 -18 -48 -20 -19 -30 -24 -30 -14 0 8 6 21 13 29 10
12 9 12 -4 2 -13 -10 -19 -9 -29 3 -7 8 -16 15 -21 15 -5 0 0 -9 12 -21 26
-26 22 -46 -16 -67 -16 -9 -35 -22 -42 -29 -17 -15 -155 -81 -188 -89 l-26 -6
20 33 c27 48 42 108 55 234 l11 110 23 -23 c12 -12 22 -17 22 -12 0 6 9 10 20
10 12 0 22 9 26 24 l6 25 51 -40 c28 -22 68 -49 89 -60z m-1625 -194 c246
-144 609 -217 956 -194 306 21 540 112 725 284 l60 55 25 -32 c23 -28 24 -34
12 -51 -36 -51 -201 -163 -321 -217 -177 -80 -368 -119 -629 -130 -103 -4
-150 -8 -110 -10 39 -2 85 -2 103 -1 31 3 32 1 27 -26 -14 -62 -38 -114 -62
-133 -14 -11 -21 -20 -15 -20 21 0 63 64 79 120 l16 57 82 7 c45 3 96 9 113
12 29 6 32 4 33 -17 l1 -24 7 25 c5 17 15 26 33 28 25 3 27 1 31 -45 l3 -48 2
51 c2 46 5 52 27 56 33 7 39 -15 30 -108 -12 -134 -66 -199 -145 -175 -59 17
-103 53 -132 106 -32 57 -38 54 -8 -4 37 -73 133 -131 194 -115 53 13 87 73
101 177 l7 49 20 -41 c24 -50 81 -101 111 -101 16 0 12 5 -20 21 -53 26 -94
86 -113 166 -8 32 -7 33 34 44 22 5 56 16 74 22 27 9 35 9 43 -3 9 -12 10 -12
5 3 -8 25 36 42 46 18 5 -13 7 -11 7 6 1 20 35 42 47 30 3 -3 9 -36 13 -74 6
-47 9 -56 10 -29 l1 39 29 -44 c16 -24 44 -52 61 -62 81 -48 173 33 169 148
-1 20 -4 12 -10 -23 -11 -68 -23 -88 -62 -112 -44 -28 -71 -25 -111 11 -49 43
-107 169 -78 169 8 0 88 46 144 84 l27 17 12 -42 c7 -23 15 -37 17 -31 1 5 -4
26 -12 46 -14 34 -14 37 4 46 17 9 21 5 34 -42 8 -29 17 -62 19 -73 3 -14 5
-11 6 9 l1 29 23 -21 c30 -28 76 -44 104 -37 18 4 26 0 34 -19 11 -22 8 -28
-21 -53 -323 -273 -785 -410 -1258 -373 -328 25 -611 99 -840 220 -105 55
-222 138 -222 156 0 28 93 194 109 194 12 0 13 2 4 8 -10 6 2 31 43 90 l56 82
60 -55 c33 -31 94 -75 135 -100z m1864 -36 c55 -98 55 -116 -1 -104 -40 9 -95
63 -110 110 -11 34 -10 39 15 65 16 16 32 27 36 24 4 -2 31 -45 60 -95z m114
-234 c16 -38 16 -39 -2 -25 -13 11 -13 8 3 -10 20 -23 54 -82 54 -94 0 -3 -38
21 -85 52 l-85 57 42 37 c23 21 45 35 50 30 4 -4 14 -25 23 -47z m-2381 13
c-4 -7 -2 -8 4 -4 7 4 38 -12 69 -36 32 -23 60 -43 62 -45 9 -6 -37 -48 -113
-105 -93 -69 -170 -135 -140 -120 11 6 26 18 34 26 7 9 42 37 79 62 36 26 83
63 103 82 21 20 40 33 43 30 19 -18 95 -416 95 -494 0 -12 -16 -7 -67 22 -75
41 -174 105 -214 138 -14 12 -3 0 24 -25 l48 -45 -17 -45 c-30 -75 -96 -178
-158 -246 -62 -68 -159 -140 -164 -123 -2 5 1 33 7 62 10 45 22 63 99 142 75
79 153 192 152 222 0 5 -15 -19 -34 -53 -32 -60 -115 -168 -122 -160 -2 2 5
57 16 122 11 65 18 120 16 122 -4 4 -31 -136 -42 -220 -5 -34 -14 -53 -32 -68
-36 -28 -38 -17 -8 35 14 24 26 53 25 63 0 10 -6 3 -14 -17 -49 -128 41 191
100 355 20 55 43 120 52 145 22 64 37 92 67 119 14 14 26 28 26 33 0 5 -11 -4
-25 -19 l-25 -28 10 28 c17 47 30 68 41 62 5 -4 6 -11 3 -17z m2346 -98 c97
-65 98 -66 135 -166 l25 -69 -53 -48 c-57 -51 -192 -157 -201 -157 -3 0 -7 21
-8 48 l-2 47 -3 -47 c-2 -27 -6 -48 -9 -48 -17 0 -260 174 -314 224 -52 49
-57 52 -25 16 51 -58 66 -70 213 -171 140 -96 140 -82 7 -154 -95 -51 -261
-118 -274 -110 -5 3 -11 1 -13 -5 -1 -5 -17 -12 -34 -16 -29 -5 -31 -4 -29 23
2 18 1 20 -2 5 -2 -12 -14 -29 -26 -36 -42 -27 -286 -64 -420 -65 -55 0 -58 1
-52 22 4 14 3 17 -2 9 -6 -8 -46 61 -123 213 -63 123 -112 226 -110 228 3 1
57 0 120 -3 l115 -5 3 -46 c5 -72 -39 -102 -66 -46 -6 12 -11 16 -11 10 -1 -7
8 -22 19 -33 40 -40 77 8 68 86 l-4 35 43 -2 c23 -2 45 0 49 4 14 14 46 8 41
-7 -12 -32 -28 -98 -24 -102 2 -2 11 23 20 56 10 33 21 60 26 60 11 0 181 30
208 36 17 5 27 -1 43 -28 11 -18 20 -28 20 -22 0 5 -7 19 -15 30 -8 10 -15 22
-15 26 0 5 67 22 95 23 6 0 12 3 15 7 3 3 18 10 33 13 25 7 27 5 28 -21 l1
-29 7 29 c7 33 2 29 133 90 l98 45 26 -32 c14 -18 23 -25 18 -17 -4 8 -14 23
-22 33 -8 9 -13 19 -11 20 13 10 77 47 82 47 3 0 8 -26 10 -57 l3 -58 2 65 c2
61 4 66 35 88 17 12 33 22 35 22 1 0 43 -27 92 -60z m-1912 -130 c23 -7 41
-17 40 -21 -2 -3 -42 -48 -90 -98 l-87 -91 -10 43 -10 42 5 -50 c7 -62 10 -65
31 -34 9 13 53 61 96 106 70 72 84 82 106 77 61 -15 61 -15 -125 -207 l-141
-144 -21 148 c-19 128 -57 301 -76 350 -4 10 38 -7 116 -46 68 -33 142 -67
166 -75z m310 -89 c1 -4 18 -5 37 -3 36 4 34 8 48 -63 3 -11 5 -3 6 19 l1 38
38 -7 c20 -4 53 -9 72 -11 19 -3 42 -7 51 -9 14 -5 239 -447 239 -470 0 -19
-398 16 -463 41 -8 3 -17 13 -20 22 -7 21 -162 450 -172 473 -5 15 2 14 77 -3
46 -11 84 -23 86 -27z m-85 -213 c47 -133 84 -244 82 -246 -12 -12 -291 69
-413 120 l-72 30 22 31 c23 34 279 304 289 306 3 0 44 -108 92 -241z m1903 -1
c-2 -9 -1 -15 4 -12 4 3 11 -7 14 -23 4 -15 10 -36 13 -47 5 -18 3 -18 -21 4
-14 13 -29 34 -32 45 -6 20 -54 84 -54 72 0 -12 47 -85 83 -129 29 -36 44 -68
59 -124 10 -41 16 -78 13 -82 -17 -16 -166 195 -216 304 l-30 67 58 53 58 53
27 -81 c15 -45 26 -90 24 -100z m-110 -145 c67 -262 58 -449 -27 -546 -46 -51
-92 -70 -156 -63 -90 10 -216 127 -281 262 -29 59 -92 251 -92 281 0 7 13 15
30 19 16 3 51 17 77 29 26 12 68 32 93 43 l45 21 19 -41 c11 -23 21 -36 24
-29 2 7 -4 24 -13 38 -9 14 -15 30 -13 36 2 6 16 -9 31 -35 15 -25 49 -74 76
-107 27 -34 57 -71 66 -83 14 -18 14 -17 -1 8 -9 17 -34 50 -54 75 -39 47
-100 139 -100 151 0 4 11 14 25 23 24 16 25 15 41 -16 33 -67 90 -108 108 -79
4 5 -3 7 -14 4 -12 -3 -29 2 -41 13 -22 20 -63 93 -57 100 2 2 35 25 74 52
l69 50 18 -34 c10 -19 34 -96 53 -172z m-2263 71 c54 -29 103 -53 109 -53 6 0
7 -9 3 -22 -3 -13 -9 -34 -11 -48 -5 -24 -5 -24 10 -6 9 11 16 30 16 43 0 13
5 23 10 23 6 0 10 -4 10 -10 0 -5 3 -9 8 -8 16 5 191 -58 188 -67 -2 -5 -6
-21 -10 -35 -4 -17 -1 -14 9 8 14 31 18 33 48 27 18 -4 36 -10 40 -15 12 -11
-51 -196 -100 -292 -81 -157 -170 -233 -273 -232 -212 1 -305 258 -235 653 22
127 21 126 53 105 15 -10 71 -42 125 -71z m2418 -213 c48 -48 50 -53 71 -154
11 -58 18 -112 15 -120 -8 -19 -40 -9 -101 32 -61 41 -75 47 -41 19 44 -38
124 -80 140 -73 10 4 16 -7 21 -40 3 -25 4 -47 1 -50 -7 -7 -129 41 -174 69
l-40 25 9 68 c9 79 -4 211 -32 332 -11 46 -20 86 -20 90 0 3 23 -29 51 -71 28
-43 73 -100 100 -127z m-2621 104 c-5 -38 -10 -110 -10 -161 0 -50 -3 -99 -6
-108 -7 -16 -91 -85 -104 -85 -4 0 -16 29 -25 65 -10 36 -20 63 -22 61 -7 -6
28 -126 39 -132 10 -7 67 28 93 56 26 28 32 25 38 -17 3 -31 -1 -43 -22 -67
-37 -40 -149 -119 -160 -112 -16 10 -69 168 -76 227 -7 56 -7 56 28 78 48 30
157 147 198 214 19 30 35 54 37 52 1 -1 -2 -33 -8 -71z m1897 -61 c4 -16 7
-93 7 -173 -2 -341 -105 -519 -302 -520 -188 0 -315 202 -316 505 l-1 109 40
7 c22 3 82 9 133 13 l92 7 0 -48 c0 -26 5 -55 11 -63 8 -11 9 3 5 53 -3 40 -1
67 4 67 6 0 10 -12 11 -27 1 -16 5 -39 9 -53 6 -17 7 -7 3 27 l-5 52 38 6 c22
4 70 16 108 26 38 10 72 16 75 13 3 -3 6 -69 6 -147 0 -136 -15 -239 -36 -253
-5 -3 -37 54 -71 125 -34 72 -64 129 -66 127 -2 -3 26 -65 63 -140 l66 -137
-22 -35 c-28 -45 -91 -92 -136 -100 -19 -4 -52 -1 -73 5 -44 13 -104 76 -96
100 3 9 19 54 35 101 17 47 30 96 30 110 0 14 -9 -7 -19 -47 -10 -39 -29 -90
-41 -114 l-22 -43 -19 49 c-29 73 -48 154 -57 242 -8 73 -8 74 -9 23 -3 -136
74 -353 144 -406 75 -57 171 -39 248 46 75 83 101 193 94 386 -5 119 -4 123
16 127 41 8 46 7 53 -20z m-1032 -43 c0 -2 15 -3 88 -9 16 -1 17 -7 11 -46 -4
-30 -3 -45 5 -45 6 0 11 19 11 46 0 65 23 52 31 -17 l6 -54 1 53 2 53 78 -5
c42 -3 85 -5 95 -5 10 -1 18 -9 18 -23 l2 -23 4 23 c3 16 11 22 30 22 21 0 24
-4 20 -22 -3 -13 -15 -86 -27 -162 -43 -272 -98 -372 -225 -407 -81 -23 -209
23 -276 99 -48 55 -75 127 -89 237 -9 76 -6 252 5 311 l4 20 103 -22 c57 -12
103 -23 103 -24z m1120 -205 c13 -31 42 -80 62 -108 22 -29 36 -60 35 -72 -7
-42 -43 -155 -50 -155 -12 0 -98 92 -120 128 -16 27 -18 40 -10 70 5 20 11
102 15 182 l6 144 18 -66 c10 -36 30 -92 44 -123z m-1352 77 c-3 -56 -1 -135
6 -180 11 -74 10 -86 -7 -124 -19 -44 -71 -112 -79 -104 -2 2 -15 30 -29 63
-13 32 -24 51 -24 43 0 -22 48 -120 59 -120 13 0 91 118 92 139 0 9 11 -9 25
-39 21 -46 23 -58 13 -77 -16 -29 -134 -143 -148 -143 -17 0 -79 89 -100 145
-11 28 -20 43 -20 34 -1 -25 65 -152 93 -178 l25 -23 30 21 c16 12 56 50 88
85 l58 64 38 -34 c103 -88 243 -109 333 -48 20 14 37 24 38 22 17 -33 85 -123
119 -156 l43 -43 68 91 68 91 26 -17 c80 -53 143 -64 226 -40 92 27 169 114
210 240 6 17 12 12 40 -30 33 -49 99 -114 115 -114 4 0 19 39 31 88 13 48 25
89 26 91 2 1 24 -14 49 -35 43 -36 46 -41 40 -74 -7 -36 -84 -210 -93 -210
-13 0 -141 75 -182 107 l-45 35 50 -46 c27 -25 80 -62 117 -81 l67 -36 39 78
c22 43 45 96 51 118 7 22 14 45 16 52 3 9 12 9 39 -2 100 -42 203 12 251 132
l17 41 35 -23 c19 -13 70 -39 114 -57 43 -17 79 -37 79 -44 0 -7 2 -19 5 -26
4 -9 -21 -30 -72 -61 -368 -221 -826 -305 -1515 -278 -293 12 -425 28 -620 77
-383 96 -735 249 -847 367 l-34 36 16 87 c14 77 27 103 48 104 3 0 11 -32 18
-71 10 -64 66 -229 77 -229 11 0 94 57 142 98 29 24 54 43 55 41 2 -2 14 -28
27 -57 58 -128 200 -188 316 -131 94 45 192 188 256 372 12 37 24 67 25 67 0
0 -1 -44 -4 -98z m653 -170 c8 -46 24 -106 34 -133 l20 -49 -26 -68 c-14 -37
-29 -71 -33 -75 -8 -8 -33 18 -74 73 -17 24 -17 24 0 -8 10 -19 30 -48 44 -65
l26 -31 23 44 c12 24 28 60 34 79 l13 35 32 -47 c36 -53 38 -45 -39 -146 l-55
-72 -62 65 c-34 36 -69 78 -77 94 -14 27 -13 31 11 67 38 56 69 154 90 284 13
82 19 103 21 75 1 -21 9 -77 18 -122z m-1585 -68 c84 -90 265 -182 530 -271
79 -26 147 -52 150 -56 3 -5 21 -10 40 -11 19 -2 70 -13 114 -24 126 -33 279
-62 324 -62 54 0 122 -36 189 -99 30 -28 57 -51 62 -51 13 0 -90 95 -130 119
l-35 22 145 -6 c300 -12 360 -12 550 1 107 7 215 16 240 19 l45 6 -30 -23
c-16 -13 -46 -38 -66 -55 -20 -18 -51 -39 -70 -47 -19 -9 -28 -15 -21 -16 21
0 52 19 115 72 79 65 107 78 187 85 63 5 72 3 123 -26 30 -17 60 -31 67 -31 6
0 -14 14 -46 31 -79 41 -82 45 -34 53 23 4 92 23 152 42 60 20 111 34 113 32
9 -9 -101 -132 -128 -143 -18 -8 -25 -14 -17 -15 25 0 57 27 116 101 63 79
152 134 202 124 21 -4 23 -3 7 3 -18 8 -14 12 30 35 28 14 64 35 80 46 17 12
33 21 37 21 4 0 10 -21 14 -47 6 -41 4 -49 -16 -65 -12 -10 -17 -18 -12 -18 6
0 14 5 18 11 4 8 10 7 18 -1 8 -8 5 -16 -14 -30 -30 -23 -68 -25 -94 -5 -38
29 -109 14 -160 -33 -15 -15 -46 -53 -67 -84 -80 -116 -132 -132 -249 -73
-126 64 -177 57 -278 -38 -82 -77 -100 -87 -155 -87 -39 0 -68 10 -153 55 -89
46 -113 55 -158 55 -54 0 -68 -7 -190 -95 -38 -27 -58 -35 -92 -35 -41 0 -50
5 -110 61 -74 69 -115 90 -176 88 -40 -2 -39 -2 15 -9 60 -8 66 -11 158 -97
88 -81 142 -83 235 -7 51 42 57 44 73 30 10 -9 21 -16 25 -16 5 0 -2 8 -14 18
-21 17 -21 19 -4 32 24 21 130 20 169 -1 200 -109 224 -115 295 -79 21 11 65
46 97 79 91 92 135 96 270 28 40 -21 84 -37 98 -37 41 0 82 27 126 83 23 28
46 51 51 49 5 -1 7 2 3 8 -12 19 45 78 92 96 44 17 46 17 87 -4 49 -26 74 -28
104 -6 20 14 22 14 22 -1 0 -20 -116 -95 -243 -156 -260 -123 -586 -191 -982
-202 -201 -6 -628 10 -750 28 -228 33 -541 124 -802 235 -141 60 -225 111
-303 183 -52 49 -53 49 -12 6 l43 -46 -30 -67 c-17 -37 -27 -64 -22 -61 5 3
18 27 28 53 l18 47 6 -75 5 -75 2 82 2 83 70 -46 c39 -25 100 -59 135 -76 38
-17 62 -34 58 -40 -3 -7 -1 -8 6 -4 7 4 59 -10 116 -31 92 -33 104 -40 99 -58
-6 -19 -5 -19 8 -2 21 27 51 12 43 -22 -10 -43 -66 -128 -116 -177 l-47 -47
-26 49 c-14 27 -25 46 -26 42 0 -15 44 -98 53 -98 23 0 119 116 149 181 23 49
37 68 48 65 8 -2 50 -14 93 -26 55 -16 77 -27 77 -39 0 -13 2 -13 9 -2 11 17
61 7 61 -12 -1 -43 -88 -175 -132 -198 -27 -15 -33 -7 -75 92 -19 46 -32 71
-28 54 3 -16 21 -63 40 -103 30 -63 37 -72 52 -63 38 20 103 99 133 159 17 34
36 62 43 62 7 -1 50 -9 97 -19 61 -13 84 -22 82 -32 -5 -29 -47 -129 -54 -129
-4 0 -18 19 -32 43 -14 23 -26 37 -26 31 0 -17 61 -97 68 -89 4 4 19 39 33 78
22 60 30 72 50 75 41 4 55 -12 40 -45 -23 -51 -114 -213 -120 -213 -8 1 -64
83 -100 150 -17 30 -31 51 -31 47 0 -14 52 -111 92 -170 l40 -58 50 88 c28 48
62 111 75 139 l23 51 103 -5 c56 -2 104 -6 107 -9 2 -2 -3 -24 -11 -48 -9 -25
-13 -42 -8 -39 5 3 14 23 20 44 12 39 14 40 56 40 l43 0 -15 -37 c-22 -52 -70
-130 -110 -178 l-34 -39 -21 19 c-35 32 -89 111 -105 152 -7 21 -14 31 -14 23
-1 -32 48 -117 94 -164 l49 -48 24 28 c42 51 121 174 134 210 l12 34 143 -1
c143 0 143 0 143 -24 0 -22 -74 -180 -103 -219 -13 -18 -17 -15 -63 40 -27 33
-57 71 -67 84 l-18 25 12 -25 c14 -29 118 -160 128 -160 11 0 121 223 121 245
0 17 2 18 11 5 8 -12 9 -10 4 8 -6 21 -3 22 47 23 29 0 86 3 126 5 47 3 72 1
72 -6 0 -21 -42 -134 -72 -194 l-31 -61 -38 44 c-21 23 -53 71 -70 104 -19 38
-29 51 -24 32 3 -16 17 -48 30 -70 26 -46 101 -133 107 -125 13 16 97 210 103
237 9 44 19 49 105 57 101 10 141 15 164 22 17 6 18 2 12 -32 -4 -22 -18 -66
-31 -99 -14 -32 -23 -61 -21 -62 6 -6 47 97 59 147 l11 48 115 27 c62 15 129
33 147 41 18 8 36 14 39 14 12 0 3 -91 -14 -141 -26 -77 -73 -169 -86 -169
-18 0 -122 112 -149 160 -31 55 -34 46 -5 -13 23 -44 139 -167 159 -167 23 0
103 201 115 291 l7 46 81 34 c45 19 85 35 89 37 4 2 8 -9 11 -25 4 -27 4 -27
6 4 1 25 8 36 31 48 l30 16 2 -73 c1 -72 1 -72 7 -19 l6 53 29 -63 c16 -35 50
-86 77 -114 l48 -50 -5 -65 c-13 -207 -31 -338 -49 -360 -7 -8 -16 -22 -20
-30 -8 -13 -7 -13 8 -1 15 12 17 12 13 0 -3 -8 -10 -34 -17 -59 -11 -42 -13
-43 -20 -20 -6 18 -7 13 -4 -17 3 -25 1 -43 -4 -43 -9 0 -13 12 -24 90 -3 18
-5 14 -6 -11 0 -20 4 -50 10 -67 17 -48 4 -62 -16 -17 -27 62 -17 150 24 216
18 29 25 46 15 38 -59 -48 -82 -194 -44 -269 16 -31 18 -45 10 -65 -14 -37
-30 -28 -63 35 -26 49 -28 63 -24 130 3 56 11 88 30 127 30 58 84 115 125 132
25 10 27 15 24 59 -2 26 -9 52 -14 57 -7 7 -8 -8 -4 -45 6 -55 6 -55 -28 -72
-40 -20 -42 -17 -52 68 -8 63 15 135 49 159 12 8 16 15 10 15 -17 0 -50 -46
-64 -87 -7 -22 -9 -57 -5 -91 l7 -56 -28 24 c-22 20 -21 17 5 -11 17 -19 32
-39 32 -43 0 -5 -13 -24 -30 -43 -16 -18 -30 -39 -30 -45 0 -5 -15 1 -32 14
-45 34 -78 51 -78 39 0 -5 22 -23 49 -41 48 -30 49 -33 38 -58 -6 -15 -12 -28
-13 -30 -4 -7 -50 21 -84 52 l-35 31 30 -33 c17 -19 42 -40 58 -48 26 -14 39
-54 17 -54 -23 0 -107 50 -137 82 -37 39 -53 76 -53 124 0 50 51 102 110 113
32 6 37 9 17 10 -105 4 -169 -107 -118 -207 24 -46 43 -64 112 -102 30 -16 47
-30 38 -30 -39 0 -122 -34 -154 -61 -63 -56 -66 -150 -5 -211 38 -37 100 -38
170 -3 28 14 50 24 50 22 0 -1 -9 -20 -20 -42 -11 -22 -20 -49 -20 -61 0 -44
-56 -66 -210 -79 l-75 -7 0 108 c0 93 -6 131 -38 256 -20 81 -40 167 -43 192
l-7 45 -31 -24 c-41 -31 -113 -51 -276 -75 -156 -24 -255 -46 -279 -61 -13 -9
-13 -9 4 -4 30 11 194 42 339 65 77 12 151 30 182 44 l53 24 6 -41 c4 -23 20
-95 36 -160 37 -154 51 -261 41 -317 -7 -43 -9 -45 -43 -48 l-36 -3 4 73 c3
51 -1 102 -16 168 -11 52 -26 122 -33 155 -6 33 -13 61 -13 63 -1 1 -17 -4
-36 -12 -19 -7 -97 -22 -174 -32 -102 -14 -131 -20 -105 -24 19 -3 44 -2 55 2
22 9 135 27 135 22 0 -2 -27 -18 -61 -34 -110 -56 -179 -137 -194 -225 -6 -37
-5 -37 13 12 26 73 64 127 115 161 42 30 215 112 234 112 12 0 -2 -110 -22
-169 -29 -87 -123 -202 -202 -246 l-31 -18 -25 29 c-31 36 -30 39 80 157 92
100 129 147 115 147 -16 0 -157 -154 -192 -210 -19 -30 -35 -56 -36 -58 -7
-12 -53 14 -62 36 l-11 27 6 -27 c3 -20 0 -29 -15 -37 -29 -15 -29 -15 -37 26
-7 40 -46 123 -68 144 -33 34 -50 70 -38 82 21 21 82 -24 114 -83 15 -29 27
-47 27 -41 0 26 -42 91 -77 120 -34 28 -39 30 -59 16 -21 -14 -24 -13 -43 14
l-21 29 27 22 c20 15 22 18 6 10 -12 -5 -25 -15 -28 -20 -14 -22 -233 235
-262 307 -10 24 -20 43 -23 43 -4 0 -12 -17 -19 -37 -20 -54 -57 -106 -148
-203 -44 -47 -99 -112 -122 -143 -24 -31 -45 -57 -47 -57 -2 0 -20 17 -39 38
-46 51 -137 92 -318 142 -158 43 -225 70 -253 101 -25 28 -31 24 -38 -23 -4
-24 -36 -115 -71 -203 -73 -183 -90 -247 -82 -321 l5 -52 -86 19 c-47 10 -87
17 -89 15 -5 -5 86 -26 272 -61 153 -30 276 -70 340 -111 60 -40 185 -136 185
-143 0 -3 -20 -13 -45 -22 l-45 -16 -60 48 c-132 106 -323 190 -437 193 -29 0
-53 4 -53 9 0 4 -12 7 -26 7 -19 0 0 -13 65 -45 83 -42 202 -137 188 -151 -9
-10 -64 24 -123 76 -31 27 -66 50 -77 50 -24 0 -99 58 -91 71 3 5 -4 9 -14 9
-12 0 -47 30 -86 72 -61 67 -66 75 -66 118 0 26 -9 63 -20 85 -11 21 -18 40
-16 42 2 2 27 -8 57 -22 65 -30 113 -32 155 -6 62 38 82 154 38 215 -27 36
-104 75 -160 81 l-49 5 55 -13 c138 -31 199 -118 156 -221 -7 -18 -26 -43 -42
-55 -24 -19 -37 -22 -76 -18 -47 6 -122 40 -167 75 l-24 20 20 25 20 26 24
-25 c13 -14 33 -30 44 -36 11 -5 1 7 -22 27 -46 39 -48 42 -34 64 8 12 16 9
46 -17 19 -18 40 -32 45 -32 4 0 15 -3 24 -6 38 -15 11 16 -45 51 -41 25 -59
42 -55 52 3 8 6 29 6 47 0 30 5 35 53 57 59 27 131 89 153 130 20 40 18 108
-6 146 -24 41 -55 60 -105 67 -38 6 -38 5 8 -8 55 -16 73 -29 93 -67 45 -88
-15 -196 -141 -255 l-50 -24 -4 22 c-2 14 4 27 15 33 10 5 36 28 59 50 26 26
28 29 5 9 -32 -29 -71 -54 -83 -54 -6 0 -29 62 -25 65 2 1 24 16 51 34 26 18
47 34 47 36 0 15 -34 1 -65 -27 l-37 -31 -38 44 c-22 24 -39 49 -40 55 -1 24
83 87 139 105 17 5 20 8 8 8 -24 1 -76 -26 -109 -57 l-28 -25 7 66 c4 51 2 77
-12 112 -16 42 -58 85 -71 72 -3 -3 4 -8 15 -12 27 -8 61 -82 61 -134 0 -23
-5 -62 -11 -86 -10 -39 -13 -43 -30 -34 -11 5 -19 17 -19 27 0 13 -2 14 -9 3
-17 -26 -28 -1 -25 56 l3 58 -14 -40 c-13 -38 -14 -32 -14 105 0 114 3 150 16
169 8 13 10 20 4 17 -22 -14 -12 72 14 120 14 26 25 54 24 63 0 9 -6 2 -12
-16 -7 -18 -17 -37 -23 -43 -12 -12 -12 -17 6 135 21 174 25 183 60 115 11
-22 18 -40 15 -40 -3 0 -1 -6 5 -12 6 -7 20 -28 31 -46 23 -39 73 -63 126 -61
l38 2 -45 6 c-65 10 -86 27 -129 106 -21 39 -48 78 -58 87 -14 13 -18 27 -15
48 2 16 7 30 11 30 4 0 23 -16 42 -36z m3079 -425 c5 -77 5 -78 -13 -56 -18
21 -18 21 -2 -11 24 -49 11 -51 -31 -6 -34 36 -35 37 -15 6 13 -18 34 -40 47
-49 20 -13 24 -24 24 -64 0 -27 -4 -49 -9 -49 -30 0 -170 228 -146 237 6 2 37
21 70 43 32 21 62 37 65 34 3 -3 7 -41 10 -85z m-3141 -423 c40 -21 109 -100
130 -149 43 -101 39 -209 -12 -284 -40 -58 -52 -62 -66 -23 -9 26 -7 36 9 58
67 93 31 265 -68 327 -24 16 -31 27 -32 53 0 37 1 37 39 18z m34 -119 c35 -48
50 -92 50 -150 -1 -52 -28 -137 -44 -137 -12 0 -11 8 6 55 8 22 14 56 13 75 0
27 -2 23 -9 -20 -10 -57 -29 -92 -29 -51 0 12 -5 32 -11 43 -6 12 -13 40 -14
64 -2 23 -6 47 -10 53 -3 7 -9 37 -12 67 -6 55 -6 56 15 45 12 -6 32 -26 45
-44z m1547 30 c0 -22 87 -140 190 -257 168 -191 217 -325 208 -562 -3 -65 -7
-120 -9 -122 -2 -2 -16 -2 -30 1 l-26 5 5 100 c9 184 -39 306 -189 478 -50 58
-104 131 -121 164 -35 70 -47 71 -14 1 13 -27 22 -56 19 -64 -4 -12 -3 -13 4
-3 10 13 23 -2 160 -176 37 -47 49 -68 40 -74 -9 -6 -8 -8 4 -8 9 0 21 -11 27
-24 10 -23 9 -24 -31 -30 -23 -4 -49 -11 -57 -17 -12 -9 -11 -10 5 -4 10 3 37
8 60 11 38 6 41 4 52 -26 15 -39 2 -68 -49 -116 -33 -32 -104 -74 -123 -74
-14 0 -40 43 -29 47 35 12 130 73 142 91 23 35 1 26 -78 -33 l-73 -54 -28 16
c-16 10 -29 20 -29 23 0 11 64 67 100 89 19 11 30 21 24 21 -6 0 -30 -14 -53
-30 l-42 -31 8 38 c12 57 9 220 -6 286 -19 88 -23 63 -5 -34 21 -107 15 -227
-14 -293 -19 -43 -24 -47 -54 -45 -18 1 -45 -1 -59 -5 -23 -7 -27 -4 -34 21
-5 15 -12 66 -16 113 l-7 85 2 -88 c1 -82 -4 -101 -19 -76 -10 15 -86 69 -98
69 -6 0 9 -13 34 -28 24 -16 59 -46 77 -66 l33 -38 -22 -24 -22 -24 -63 60
c-34 33 -70 60 -80 60 -11 0 -14 -3 -9 -9 47 -42 117 -101 131 -109 15 -8 16
-14 5 -41 l-13 -30 -40 20 c-53 27 -115 85 -138 128 -11 20 -19 31 -20 25 -1
-24 64 -104 112 -137 32 -23 46 -38 37 -41 -66 -19 -117 -43 -146 -69 -28 -25
-36 -28 -43 -16 -18 28 43 87 93 91 36 3 34 8 -11 36 l-37 23 28 -24 29 -24
-29 -6 c-16 -3 -41 -17 -56 -31 -23 -21 -29 -23 -34 -11 -12 33 4 133 30 186
14 29 24 55 23 57 -2 2 -17 -23 -32 -55 -25 -49 -29 -70 -29 -138 0 -55 6 -90
17 -111 l17 -31 -37 -11 c-28 -9 -38 -9 -44 1 -31 47 -37 183 -12 268 39 133
149 303 330 505 65 73 121 146 131 171 17 42 33 56 33 30z m-951 -131 c21 -25
96 -54 256 -101 165 -48 242 -81 288 -124 45 -41 50 -57 30 -91 -9 -17 -20
-30 -23 -30 -3 0 -14 13 -23 30 -19 32 -87 83 -134 101 -15 6 -89 26 -163 45
-87 22 -152 45 -183 64 -68 42 -73 37 -8 -7 30 -20 89 -70 131 -112 85 -83
117 -146 127 -249 6 -51 -2 -71 -29 -72 -3 0 -37 60 -73 133 -65 127 -98 177
-118 177 -5 0 1 -15 12 -32 12 -18 40 -69 63 -113 22 -44 56 -101 74 -126 33
-45 33 -47 15 -63 -18 -16 -21 -16 -59 3 -73 37 -129 128 -163 266 -10 39 -18
62 -18 51 -3 -66 60 -219 113 -274 l31 -33 -65 6 c-44 4 -83 1 -120 -9 -34 -9
-59 -11 -65 -5 -15 15 28 50 82 66 46 13 46 13 8 8 -21 -2 -53 -14 -69 -26
l-29 -22 5 64 c3 35 20 107 37 159 16 52 28 96 26 98 -2 2 -18 -40 -36 -95
-28 -82 -33 -113 -34 -191 l0 -93 -25 6 c-78 19 -68 129 35 379 30 74 59 154
66 180 12 49 19 55 38 32z m2291 -181 c0 -43 -2 -45 -56 -80 -31 -20 -54 -38
-51 -41 10 -10 56 9 78 32 12 13 28 24 36 24 26 0 12 -39 -24 -69 -21 -17 -35
-30 -31 -31 4 0 23 14 43 31 34 31 36 31 50 13 20 -26 19 -30 -14 -53 -88 -63
-184 -79 -226 -37 -51 51 -52 147 0 196 29 27 116 59 163 60 31 0 32 -1 32
-45z m-2139 20 c24 -9 78 -23 119 -31 41 -9 79 -19 85 -22 5 -4 15 -7 20 -8 6
-1 23 -7 39 -13 l30 -12 -51 -45 c-46 -40 -84 -106 -70 -120 3 -3 8 8 12 26 8
38 44 82 89 108 33 19 35 20 50 3 10 -11 19 -45 22 -82 5 -56 2 -73 -24 -139
-17 -41 -34 -73 -39 -71 -45 20 -45 24 -13 112 35 97 39 125 11 91 -11 -12
-27 -56 -37 -97 -12 -53 -22 -75 -33 -76 -9 0 -2 -5 15 -10 41 -12 65 -39 58
-66 -6 -21 -7 -21 -33 -6 l-26 17 27 -30 c23 -25 26 -39 28 -104 2 -41 2 -80
1 -87 0 -6 -39 16 -85 50 -60 44 -85 68 -85 84 -1 32 39 73 79 83 33 8 34 8 7
9 -32 1 -97 -55 -97 -83 0 -17 -9 -20 -34 -10 -42 16 3 107 68 138 35 16 36
19 36 72 0 34 -4 53 -10 49 -5 -3 -10 2 -10 12 0 10 -13 45 -29 79 -29 61 -76
117 -141 167 -41 31 -38 33 21 12z m1719 -165 c16 -74 23 -147 16 -175 -6 -25
-7 -25 -36 -10 -16 8 -39 15 -52 14 -19 -1 -18 -2 7 -8 39 -10 75 -29 75 -41
0 -19 -21 -20 -76 -4 -36 10 -79 15 -118 12 l-61 -4 66 65 c74 74 115 148 132
241 l12 61 12 -53 c7 -29 17 -73 23 -98z m-2355 17 c4 5 5 3 2 -3 -3 -6 3 -29
14 -52 12 -23 19 -55 17 -73 l-3 -32 -32 50 c-41 64 -73 134 -66 146 3 5 17
-3 32 -17 15 -15 31 -23 36 -19z m1024 -52 c0 -5 -6 -19 -14 -29 -14 -19 -15
-18 -15 10 0 16 -3 40 -6 54 l-6 25 21 -25 c11 -14 21 -29 20 -35z m1790 -55
c-44 -71 -62 -80 -36 -18 16 37 67 102 74 94 3 -3 -14 -37 -38 -76z m-949 -92
c0 -10 -4 -18 -10 -18 -5 0 -10 8 -10 18 0 9 -3 28 -6 42 l-5 25 15 -25 c8
-14 15 -33 16 -42z m148 -33 c37 -41 44 -88 13 -105 -17 -8 -20 -6 -26 20 -4
17 -16 37 -28 45 -22 16 -82 21 -91 7 -2 -4 13 -6 33 -4 32 3 42 -1 60 -23 11
-15 21 -34 21 -41 0 -8 -31 -45 -70 -83 -38 -37 -70 -73 -70 -78 0 -5 30 21
68 57 125 123 223 154 534 170 106 5 207 13 223 16 28 5 26 1 -30 -50 -71 -66
-93 -71 -270 -63 -66 3 -139 2 -162 -1 -41 -7 -42 -7 -18 -19 14 -6 23 -8 20
-3 -3 4 5 10 18 14 32 8 99 7 94 -1 -3 -5 34 -7 81 -6 l87 3 -68 -20 c-89 -26
-135 -51 -172 -91 l-30 -33 39 33 c22 19 56 40 75 49 39 16 167 52 189 52 27
0 0 -19 -51 -36 -68 -22 -124 -50 -167 -84 -47 -37 -85 -32 -94 13 -7 35 -57
117 -71 117 -5 0 -17 -5 -25 -11 -13 -9 -13 -10 1 -6 29 10 89 -71 89 -119 0
-7 -15 -20 -32 -27 -39 -16 -46 -7 -47 58 -1 47 -15 76 -24 52 -3 -8 1 -41 9
-72 14 -53 14 -59 -2 -76 -15 -17 -20 -18 -32 -5 -8 8 -18 40 -22 73 l-7 58
-2 -54 c-1 -43 -4 -52 -16 -47 -38 15 -48 16 -22 1 15 -9 33 -13 40 -9 6 4 9
4 5 -1 -4 -4 -3 -14 3 -22 7 -7 -16 -1 -51 15 -34 15 -63 32 -64 37 0 5 13 13
29 16 19 4 23 7 10 8 -16 1 -12 9 25 40 30 27 47 36 52 28 5 -8 8 -6 8 5 0 9
8 22 18 27 9 6 13 11 9 11 -15 0 -70 -41 -122 -92 l-51 -48 -39 14 c-51 18
-50 31 14 138 28 45 48 85 45 88 -10 9 -63 -62 -78 -104 -15 -40 -15 -38 -13
69 l2 110 35 18 c45 23 77 15 118 -28z m-254 -47 c3 -29 6 -70 6 -91 l0 -38
-32 23 c-18 13 -35 24 -36 25 -2 1 9 14 25 30 16 15 20 21 8 12 -11 -9 -33
-23 -49 -31 l-29 -15 31 -6 c38 -8 72 -43 72 -76 l0 -25 -27 26 c-42 38 -86
66 -117 74 -27 6 -27 7 24 36 28 16 63 46 78 68 15 22 30 39 33 40 3 0 9 -24
13 -52z m533 24 c12 -7 -8 -12 -73 -16 -49 -4 -106 -9 -126 -11 -29 -4 -38 -2
-38 10 0 8 10 17 23 19 12 3 31 7 42 10 30 7 152 -1 172 -12z m-1639 -14 c23
-6 42 -12 42 -14 0 -2 -5 -14 -11 -28 -10 -21 -15 -24 -32 -14 -11 6 -69 14
-128 19 -129 9 -163 22 -103 38 79 22 145 22 232 -1z m836 -29 c14 -11 33 -34
41 -49 28 -54 14 -130 -24 -130 -16 0 -18 6 -14 43 10 88 -82 140 -151 86 -14
-11 -26 -28 -25 -37 0 -13 3 -11 9 5 31 77 160 45 160 -40 0 -40 -15 -57 -52
-57 -31 0 -33 8 -18 59 10 37 4 59 -13 42 -5 -5 -10 -31 -9 -56 0 -41 -2 -45
-24 -45 -18 0 -29 9 -40 33 -13 28 -14 22 -3 -22 5 -19 -31 -27 -42 -9 -28 43
7 148 59 181 39 24 113 22 146 -4z m596 -9 c-20 -13 -33 -13 -25 0 3 6 14 10
23 10 15 0 15 -2 2 -10z m-1420 -40 c24 -15 7 -18 -30 -4 -31 11 -32 13 -10
13 14 0 32 -3 40 -9z m-294 -21 c48 -9 178 -52 193 -65 2 -1 -6 -16 -18 -32
-12 -17 -21 -43 -21 -59 l0 -28 -19 30 c-29 47 -82 92 -151 130 -72 38 -71 40
16 24z m1280 -32 c16 -8 44 -30 63 -49 27 -26 30 -34 17 -36 -9 -2 -36 6 -59
17 -24 12 -59 21 -79 21 -34 0 -35 1 -32 38 1 20 2 38 3 39 2 4 59 -16 87 -30z
m-386 -31 c0 -20 -6 -24 -47 -30 -27 -3 -64 -16 -83 -27 -42 -26 -88 -40 -95
-30 -11 19 68 75 140 97 64 20 85 18 85 -10z m-624 -64 c8 -19 14 -45 14 -57
0 -21 -2 -22 -29 -12 -26 10 -28 13 -23 56 3 31 1 43 -6 36 -5 -5 -12 -29 -14
-52 -3 -39 -2 -42 26 -47 16 -4 39 -14 50 -24 10 -9 16 -11 12 -4 -11 18 35
32 76 23 46 -11 60 -20 52 -33 -5 -8 -1 -9 12 -3 194 82 435 125 694 125 198
0 320 -22 498 -92 98 -38 114 -52 67 -61 -11 -2 -31 -8 -44 -14 -18 -7 -38 -4
-83 14 -115 47 -194 57 -458 57 -267 1 -349 -9 -492 -61 -84 -29 -143 -39
-152 -25 -3 6 11 16 31 22 41 13 66 30 44 30 -7 0 -34 -10 -61 -21 -51 -22
-108 -20 -94 3 4 7 3 8 -5 4 -7 -5 -24 -4 -39 0 -26 7 -26 8 11 13 21 3 38 11
38 16 1 12 -58 7 -84 -6 -13 -7 -35 -2 -82 21 -56 27 -65 35 -65 57 0 15 10
41 22 59 19 28 25 31 46 21 13 -6 30 -26 38 -45z m964 28 c21 -7 19 -8 -17 -9
-24 -1 -43 4 -43 9 0 12 24 12 60 0z m-330 -10 c0 -5 -6 -10 -14 -10 -7 0 -29
-2 -47 -5 l-34 -5 35 14 c42 18 60 19 60 6z m-540 -61 c34 -30 34 -30 8 -25
-15 3 -38 2 -51 -3 -23 -9 -25 -7 -29 22 -3 18 -9 41 -13 51 -8 18 -7 19 21 2
16 -10 45 -31 64 -47z m1660 46 c0 -8 -82 -47 -87 -41 -3 2 12 14 34 25 39 20
53 25 53 16z m-117 -55 c14 -1 -19 -21 -38 -24 -7 -1 -19 -7 -26 -12 -26 -20
-79 -36 -96 -30 -15 6 -15 9 4 28 22 22 109 50 131 42 8 -2 19 -4 25 -4z
m-615 -55 c4 -3 -40 -118 -49 -128 -4 -5 -6 15 -5 45 1 47 -1 53 -19 54 -15 1
-16 0 -2 -3 11 -3 17 -14 17 -34 0 -49 -16 -69 -55 -69 -31 0 -35 3 -35 25 0
18 -7 26 -25 31 -38 9 -143 0 -157 -14 -10 -10 -6 -10 18 -2 18 6 58 10 90 8
54 -3 59 -5 62 -27 l4 -24 -147 6 c-81 4 -151 9 -156 12 -5 4 -21 26 -35 51
-35 59 -42 51 -8 -9 14 -26 22 -47 18 -47 -5 0 -25 17 -46 37 -42 41 -79 47
-136 24 -47 -19 -34 -23 21 -6 53 16 81 10 112 -25 l20 -23 -35 7 c-19 4 -57
9 -85 11 -27 2 -61 6 -75 9 -14 2 -29 5 -35 5 -29 4 116 51 200 65 17 3 43 8
59 12 56 12 262 21 371 16 61 -2 111 -6 113 -7z m142 -17 c75 -13 160 -40 160
-50 0 -13 -32 -9 -93 12 -84 30 -130 27 -169 -11 l-33 -31 33 26 c40 31 86 34
157 10 40 -14 45 -18 30 -27 -10 -5 -43 -10 -72 -10 -30 0 -49 -3 -42 -7 8 -5
3 -8 -12 -8 -13 -1 -48 -4 -78 -8 -44 -6 -53 -4 -49 7 3 8 13 37 22 66 19 58
11 56 146 31z"/>
<path d="M4433 7728 c-11 -13 -23 -30 -28 -38 -4 -8 5 0 20 18 19 23 34 32 46
29 11 -3 17 -1 13 4 -9 15 -30 10 -51 -13z"/>
<path d="M4511 7614 c0 -11 3 -14 6 -6 3 7 2 16 -1 19 -3 4 -6 -2 -5 -13z"/>
<path d="M4521 7574 c0 -11 3 -14 6 -6 3 7 2 16 -1 19 -3 4 -6 -2 -5 -13z"/>
<path d="M4531 7543 c-1 -16 51 -144 56 -139 2 2 -10 37 -26 77 -17 41 -30 68
-30 62z"/>
<path d="M3974 7762 c-15 -10 -44 -55 -44 -67 0 -5 9 4 19 21 28 46 38 48 68
17 26 -28 23 -13 -5 20 -17 19 -22 20 -38 9z"/>
<path d="M3892 7598 c-17 -45 -30 -84 -28 -86 2 -2 18 33 36 78 17 45 29 84
27 86 -2 2 -18 -33 -35 -78z"/>
<path d="M5355 7620 c-9 -16 -13 -30 -11 -30 3 0 12 14 21 30 9 17 13 30 11
30 -3 0 -12 -13 -21 -30z"/>
<path d="M5367 7459 c17 -18 33 -47 36 -64 4 -28 4 -28 5 5 0 29 -6 40 -36 64
l-37 30 32 -35z"/>
<path d="M5270 7095 c19 -19 36 -35 39 -35 3 0 -10 16 -29 35 -19 19 -36 35
-39 35 -3 0 10 -16 29 -35z"/>
<path d="M4960 6800 c8 -5 20 -10 25 -10 6 0 3 5 -5 10 -8 5 -19 10 -25 10 -5
0 -3 -5 5 -10z"/>
<path d="M4906 5824 c33 -32 78 -79 99 -104 36 -43 36 -43 10 -5 -37 53 -81
100 -130 138 -27 20 -20 11 21 -29z"/>
<path d="M5055 5640 c9 -16 18 -30 21 -30 2 0 -2 14 -11 30 -9 17 -18 30 -21
30 -2 0 2 -13 11 -30z"/>
<path d="M4132 7010 c0 -14 2 -19 5 -12 2 6 2 18 0 25 -3 6 -5 1 -5 -13z"/>
<path d="M4141 6964 c0 -11 3 -14 6 -6 3 7 2 16 -1 19 -3 4 -6 -2 -5 -13z"/>
<path d="M3234 6654 c-18 -14 -18 -14 6 -3 31 14 36 19 24 19 -6 0 -19 -7 -30
-16z"/>
<path d="M3268 6454 c-39 -21 -35 -28 5 -8 37 19 44 24 31 24 -5 -1 -21 -8
-36 -16z"/>
<path d="M3816 7128 c-15 -24 -47 -123 -45 -142 0 -6 12 25 27 69 21 63 31 81
48 83 34 5 89 -68 156 -205 66 -137 87 -165 32 -45 -102 224 -176 305 -218
240z"/>
<path d="M3762 6950 c0 -14 2 -19 5 -12 2 6 2 18 0 25 -3 6 -5 1 -5 -13z"/>
<path d="M3752 6900 c0 -14 2 -19 5 -12 2 6 2 18 0 25 -3 6 -5 1 -5 -13z"/>
<path d="M3742 6835 c0 -16 2 -22 5 -12 2 9 2 23 0 30 -3 6 -5 -1 -5 -18z"/>
<path d="M3732 6625 c-2 -152 0 -173 17 -202 17 -27 111 -103 111 -89 0 3 -20
19 -45 36 -25 17 -50 41 -57 53 -9 14 -15 84 -18 197 l-6 175 -2 -170z"/>
<path d="M4554 6967 c-52 -55 -124 -169 -124 -193 0 -5 13 14 29 42 40 73 68
113 115 162 43 45 69 53 85 25 6 -10 11 -13 11 -7 0 15 -22 34 -41 34 -9 0
-43 -28 -75 -63z"/>
<path d="M4672 6950 c0 -14 2 -19 5 -12 2 6 2 18 0 25 -3 6 -5 1 -5 -13z"/>
<path d="M4683 6870 c0 -30 2 -43 4 -27 2 15 2 39 0 55 -2 15 -4 2 -4 -28z"/>
<path d="M4201 6575 c-27 -24 -70 -109 -59 -120 3 -3 10 12 17 34 25 84 93
123 151 85 l25 -16 -24 21 c-31 28 -73 26 -110 -4z"/>
<path d="M4349 6505 c8 -24 17 -42 19 -40 6 5 -18 74 -27 80 -5 2 -1 -15 8
-40z"/>
<path d="M4126 6403 c-11 -67 -6 -192 10 -299 9 -58 19 -103 21 -100 3 2 -3
53 -13 113 -11 75 -15 141 -11 216 2 59 3 107 2 107 -1 0 -5 -17 -9 -37z"/>
<path d="M4161 5974 c0 -11 3 -14 6 -6 3 7 2 16 -1 19 -3 4 -6 -2 -5 -13z"/>
<path d="M3893 6117 c23 -24 77 -95 120 -157 42 -63 77 -110 77 -106 0 10
-110 171 -159 233 -22 29 -50 57 -61 63 -11 6 -1 -9 23 -33z"/>
<path d="M3772 5990 c0 -19 2 -27 5 -17 2 9 2 25 0 35 -3 9 -5 1 -5 -18z"/>
<path d="M3783 5890 c0 -30 2 -43 4 -27 2 15 2 39 0 55 -2 15 -4 2 -4 -28z"/>
<path d="M3792 5805 c-1 -16 3 -48 7 -70 11 -53 12 -5 2 55 -6 34 -9 37 -9 15z"/>
<path d="M3812 5665 c0 -16 2 -22 5 -12 2 9 2 23 0 30 -3 6 -5 -1 -5 -18z"/>
<path d="M3822 5610 c0 -14 4 -36 8 -50 6 -20 8 -21 8 -5 0 11 -4 34 -8 50 -7
27 -8 27 -8 5z"/>
<path d="M3880 5340 c8 -5 20 -10 25 -10 6 0 3 5 -5 10 -8 5 -19 10 -25 10 -5
0 -3 -5 5 -10z"/>
<path d="M3970 5240 c0 -5 6 -7 14 -4 19 7 85 -53 132 -121 38 -56 60 -77 29
-27 -42 66 -92 125 -121 143 -34 21 -54 24 -54 9z"/>
<path d="M4744 5950 c0 -74 1 -105 3 -67 2 37 2 97 0 135 -2 37 -3 6 -3 -68z"/>
<path d="M4557 6028 c-27 -37 -45 -69 -30 -53 18 19 64 85 59 85 -3 0 -16 -15
-29 -32z"/>
<path d="M4500 5940 c-6 -11 -8 -20 -6 -20 3 0 10 9 16 20 6 11 8 20 6 20 -3
0 -10 -9 -16 -20z"/>
<path d="M5799 5973 c-13 -16 -12 -17 4 -4 9 7 17 15 17 17 0 8 -8 3 -21 -13z"/>
<path d="M5788 5873 c12 -2 30 -2 40 0 9 3 -1 5 -23 4 -22 0 -30 -2 -17 -4z"/>
<path d="M5711 5841 c-24 -22 -31 -37 -30 -63 1 -19 3 -24 6 -13 2 11 6 30 8
41 3 12 20 31 37 43 18 11 28 21 22 21 -7 0 -26 -13 -43 -29z"/>
<path d="M5463 5765 c0 -27 2 -38 4 -22 2 15 2 37 0 50 -2 12 -4 0 -4 -28z"/>
<path d="M5691 5735 c0 -5 18 -41 39 -80 22 -38 40 -65 40 -60 0 6 -18 42 -40
80 -22 39 -39 66 -39 60z"/>
<path d="M5470 5703 c0 -7 24 -38 53 -70 30 -32 59 -67 65 -78 6 -11 12 -14
12 -7 0 7 -22 37 -48 65 -27 29 -56 63 -65 77 -9 13 -17 19 -17 13z"/>
<path d="M5451 5564 c0 -11 3 -14 6 -6 3 7 2 16 -1 19 -3 4 -6 -2 -5 -13z"/>
<path d="M5771 5554 c0 -11 3 -14 6 -6 3 7 2 16 -1 19 -3 4 -6 -2 -5 -13z"/>
<path d="M5423 5518 c-12 -12 -53 -29 -90 -39 -37 -10 -59 -18 -47 -18 40 -2
120 29 144 54 29 31 23 33 -7 3z"/>
<path d="M5540 5438 c-25 -22 -36 -36 -25 -30 19 10 84 72 74 72 -2 -1 -24
-19 -49 -42z"/>
<path d="M5689 5383 l-34 -38 38 34 c34 33 42 41 34 41 -2 0 -19 -17 -38 -37z"/>
<path d="M5438 5374 c-27 -13 -48 -27 -48 -29 0 -3 23 6 50 20 28 14 50 28 50
30 0 7 1 7 -52 -21z"/>
<path d="M5575 5309 c-38 -21 -66 -39 -62 -39 13 0 125 59 132 70 8 12 13 15
-70 -31z"/>
<path d="M5343 5320 c-18 -11 -33 -22 -33 -25 0 -2 16 5 35 16 19 12 35 23 35
25 0 6 -3 5 -37 -16z"/>
<path d="M5259 5253 l-34 -38 38 34 c34 33 42 41 34 41 -2 0 -19 -17 -38 -37z"/>
<path d="M5445 5241 c-16 -10 -41 -31 -55 -47 -21 -24 -18 -23 16 6 22 19 49
40 60 47 10 6 17 12 14 12 -3 1 -18 -7 -35 -18z"/>
<path d="M5361 5139 c-2 -43 37 -70 109 -74 69 -4 96 -21 103 -64 l4 -26 2 26
c1 28 -31 68 -57 70 -9 1 -36 3 -58 3 -53 3 -91 28 -97 63 -4 28 -4 28 -6 2z"/>
<path d="M5210 5113 c0 -7 12 -25 28 -41 15 -15 20 -19 11 -7 -9 11 -21 29
-27 40 -6 11 -12 14 -12 8z"/>
<path d="M5110 5076 c0 -2 8 -10 18 -17 15 -13 16 -12 3 4 -13 16 -21 21 -21
13z"/>
<path d="M5176 5007 c3 -10 9 -15 12 -12 3 3 0 11 -7 18 -10 9 -11 8 -5 -6z"/>
<path d="M5191 4949 c-2 -59 -52 -88 -118 -70 -20 6 -39 9 -41 6 -2 -2 15 -9
38 -15 77 -21 137 19 127 86 -4 26 -4 26 -6 -7z"/>
<path d="M5402 4940 c0 -14 2 -19 5 -12 2 6 2 18 0 25 -3 6 -5 1 -5 -13z"/>
<path d="M5369 4854 c-21 -40 -96 -93 -157 -110 -52 -15 -106 -15 -187 1 -23
4 -20 2 10 -9 109 -42 266 7 335 104 12 17 20 33 18 36 -3 2 -11 -8 -19 -22z"/>
<path d="M5183 4585 c0 -22 2 -30 4 -17 2 12 2 30 0 40 -3 9 -5 -1 -4 -23z"/>
<path d="M5006 4541 c-10 -11 -31 -25 -47 -31 -16 -7 -28 -15 -25 -17 7 -8 84
39 90 54 7 18 2 16 -18 -6z"/>
<path d="M5190 4531 c0 -6 4 -13 10 -16 6 -3 7 1 4 9 -7 18 -14 21 -14 7z"/>
<path d="M5240 4510 c-20 -6 -21 -8 -5 -8 11 0 31 4 45 8 20 6 21 8 5 8 -11 0
-31 -4 -45 -8z"/>
<path d="M4865 4459 c-33 -30 -66 -77 -65 -96 1 -4 8 6 17 22 21 41 43 65 78
86 17 11 25 19 18 19 -7 0 -28 -14 -48 -31z"/>
<path d="M4197 5588 c-4 -29 -6 -87 -5 -128 1 -61 2 -52 9 50 8 131 6 167 -4
78z"/>
<path d="M4307 5480 c-7 -56 3 -290 14 -310 11 -19 10 308 0 335 -6 15 -9 10
-14 -25z"/>
<path d="M4201 5334 c0 -27 4 -67 9 -89 6 -28 6 -14 3 45 -6 95 -13 120 -12
44z"/>
<path d="M4221 5184 c0 -11 3 -14 6 -6 3 7 2 16 -1 19 -3 4 -6 -2 -5 -13z"/>
<path d="M3604 5354 c-18 -14 -18 -14 6 -3 31 14 36 19 24 19 -6 0 -19 -7 -30
-16z"/>
<path d="M4875 5115 c33 -33 62 -59 64 -58 7 5 -59 71 -94 96 -16 12 -3 -5 30
-38z"/>
<path d="M4692 5090 c0 -19 2 -27 5 -17 2 9 2 25 0 35 -3 9 -5 1 -5 -18z"/>
<path d="M3728 4999 c-21 -11 -38 -22 -38 -24 0 -3 17 3 38 13 20 11 44 22 52
25 13 5 13 5 0 6 -8 0 -32 -9 -52 -20z"/>
<path d="M3948 4633 c7 -3 16 -2 19 1 4 3 -2 6 -13 5 -11 0 -14 -3 -6 -6z"/>
<path d="M3885 4610 c-3 -6 1 -7 9 -4 18 7 21 14 7 14 -6 0 -13 -4 -16 -10z"/>
<path d="M4265 4331 c-3 -5 -2 -12 3 -15 5 -3 9 1 9 9 0 17 -3 19 -12 6z"/>
<path d="M4578 4323 c6 -2 12 -17 12 -32 0 -23 4 -27 33 -29 17 -1 39 2 47 8
11 7 5 8 -20 4 -32 -5 -36 -3 -47 25 -6 17 -17 31 -25 30 -10 0 -10 -2 0 -6z"/>
<path d="M4616 4321 c-3 -5 2 -7 13 -4 13 3 21 -1 25 -14 4 -16 5 -15 3 2 -2
21 -31 33 -41 16z"/>
<path d="M4136 4266 c-4 -18 -16 -47 -28 -62 -15 -19 -16 -24 -5 -15 9 7 17 9
17 3 0 -19 -91 -94 -109 -89 -15 3 -17 -4 -15 -52 0 -31 -3 -62 -9 -69 -7 -9
-6 -11 7 -6 11 4 16 1 16 -10 0 -30 39 -94 74 -121 49 -38 93 -42 135 -13 32
21 91 102 63 84 -17 -10 -39 9 -74 63 -15 25 -28 41 -28 35 0 -13 27 -53 62
-90 l29 -31 -21 -26 c-31 -40 -79 -51 -129 -31 -23 9 -50 29 -62 45 l-20 29
24 32 c29 39 40 58 34 58 -2 0 -17 -19 -32 -42 l-28 -42 -13 36 c-7 20 -14 57
-15 82 -3 44 -2 46 44 77 26 17 47 35 47 40 0 5 6 9 13 9 12 0 43 127 34 137
-3 2 -8 -12 -11 -31z"/>
<path d="M4152 4232 c-14 -69 -16 -125 -3 -102 8 14 24 160 18 160 -2 0 -8
-26 -15 -58z"/>
<path d="M4285 4280 c-16 -7 -17 -9 -3 -9 9 -1 20 4 23 9 7 11 7 11 -20 0z"/>
<path d="M4220 4276 c0 -2 8 -10 18 -17 15 -13 16 -12 3 4 -13 16 -21 21 -21
13z"/>
<path d="M4755 4270 c-8 -13 13 -118 25 -125 17 -10 18 11 3 50 -8 22 -16 50
-17 63 -1 25 -2 26 -11 12z"/>
<path d="M4038 4253 c-21 -3 -30 -12 -34 -31 -3 -15 -7 -31 -8 -37 -2 -5 0
-19 5 -30 5 -14 8 -6 8 28 1 36 5 49 19 53 28 9 58 23 47 22 -5 -1 -22 -3 -37
-5z"/>
<path d="M4645 4245 c-16 -7 -33 -11 -37 -8 -5 2 -8 -6 -8 -19 0 -13 3 -18 8
-12 4 6 22 19 40 28 17 9 32 19 32 21 0 6 2 7 -35 -10z"/>
<path d="M4781 4240 c14 -31 19 -36 19 -24 0 6 -7 19 -16 30 -14 18 -14 18 -3
-6z"/>
<path d="M4267 4239 c7 -7 15 -10 18 -7 3 3 -2 9 -12 12 -14 6 -15 5 -6 -5z"/>
<path d="M4192 4220 c0 -14 2 -19 5 -12 2 6 2 18 0 25 -3 6 -5 1 -5 -13z"/>
<path d="M4040 4223 c8 -3 19 -11 23 -17 6 -7 7 -6 4 4 -2 8 -12 16 -23 17
-13 2 -15 1 -4 -4z"/>
<path d="M4712 4198 c-24 -38 -53 -55 -73 -42 -8 4 -9 3 -5 -4 12 -21 37 -13
69 21 28 29 30 30 24 8 -4 -16 -3 -21 4 -14 6 6 9 23 7 39 l-3 29 -23 -37z"/>
<path d="M4265 4209 c-4 -6 -5 -12 -2 -15 2 -3 7 2 10 11 7 17 1 20 -8 4z"/>
<path d="M4594 4179 c-4 -7 -3 -9 4 -5 6 3 13 -2 15 -11 4 -16 5 -16 6 -1 1
21 -15 32 -25 17z"/>
<path d="M4296 4163 c-6 -14 -5 -15 5 -6 7 7 10 15 7 18 -3 3 -9 -2 -12 -12z"/>
<path d="M4447 4161 c-4 -17 -3 -21 5 -13 5 5 8 16 6 23 -3 8 -7 3 -11 -10z"/>
<path d="M4392 4154 c10 -10 20 -16 22 -13 3 3 -5 11 -17 18 -21 13 -21 12 -5
-5z"/>
<path d="M4896 4157 c3 -10 9 -15 12 -12 3 3 0 11 -7 18 -10 9 -11 8 -5 -6z"/>
<path d="M4184 4146 c-3 -8 -4 -23 -2 -33 3 -11 6 -6 9 15 6 34 2 42 -7 18z"/>
<path d="M4111 4119 c-1 -41 25 -74 49 -59 8 5 18 6 22 4 4 -3 5 2 2 10 -5 14
-8 14 -21 0 -20 -20 -34 -7 -43 43 l-8 38 -1 -36z"/>
<path d="M4687 4115 c-15 -19 -32 -35 -37 -35 -4 0 -12 15 -16 33 -4 17 -9 27
-11 20 -6 -17 46 -134 79 -175 28 -36 29 -38 13 -68 -9 -18 -14 -34 -12 -36 2
-3 10 9 17 26 12 28 30 41 30 21 0 -12 59 -35 84 -33 10 0 26 8 35 16 14 14
20 12 60 -27 25 -23 39 -34 32 -24 -7 9 -10 17 -6 17 4 0 2 7 -5 15 -7 8 -16
13 -20 10 -14 -9 -40 30 -30 45 5 8 10 22 10 30 0 8 -10 -3 -23 -25 -18 -32
-29 -41 -55 -43 -45 -4 -64 12 -51 44 5 14 9 35 8 47 -1 15 -4 11 -11 -13 -5
-19 -13 -39 -17 -43 -10 -10 -60 52 -89 109 l-21 41 25 24 c23 21 50 59 42 59
-2 0 -16 -16 -31 -35z"/>
<path d="M3755 4130 c12 -19 -14 -48 -40 -46 -13 2 -22 0 -20 -5 11 -16 47 -4
66 22 16 24 17 28 3 33 -8 3 -12 2 -9 -4z"/>
<path d="M4750 4123 c0 -29 51 -55 64 -34 4 5 -2 7 -13 4 -12 -3 -24 3 -35 18
-9 13 -16 18 -16 12z"/>
<path d="M4854 4116 c11 -9 24 -16 30 -16 12 0 7 5 -24 19 -24 11 -24 11 -6
-3z"/>
<path d="M4247 4109 c7 -7 15 -10 18 -7 3 3 -2 9 -12 12 -14 6 -15 5 -6 -5z"/>
<path d="M4972 4084 c-7 -8 -8 -14 -3 -14 10 0 25 19 20 25 -2 1 -10 -3 -17
-11z"/>
<path d="M4722 4060 c14 -22 24 -19 15 5 -4 8 -11 15 -17 15 -6 0 -6 -7 2 -20z"/>
<path d="M3652 4045 c-3 -54 11 -58 49 -17 29 32 30 33 3 9 -16 -15 -33 -27
-36 -27 -4 0 -9 15 -11 33 l-4 32 -1 -30z"/>
<path d="M4761 4049 c-2 -37 -27 -57 -51 -41 -16 10 -18 9 -14 -3 15 -39 79 4
71 47 -4 22 -4 21 -6 -3z"/>
<path d="M4024 4036 c1 -10 9 -24 18 -30 14 -8 21 -6 35 9 16 17 17 18 1 6
-22 -16 -45 -9 -51 16 -4 16 -4 16 -3 -1z"/>
<path d="M4681 4044 c0 -11 3 -14 6 -6 3 7 2 16 -1 19 -3 4 -6 -2 -5 -13z"/>
<path d="M4840 4035 c13 -14 26 -25 28 -25 3 0 -5 11 -18 25 -13 14 -26 25
-28 25 -3 0 5 -11 18 -25z"/>
<path d="M4190 4043 c0 -5 12 -20 28 -34 l27 -24 -25 30 c-14 17 -26 32 -27
34 -2 2 -3 0 -3 -6z"/>
<path d="M4970 4016 c0 -2 7 -7 16 -10 8 -3 12 -2 9 4 -6 10 -25 14 -25 6z"/>
<path d="M4912 3990 c0 -14 2 -19 5 -12 2 6 2 18 0 25 -3 6 -5 1 -5 -13z"/>
<path d="M4878 3973 c5 -21 7 -23 10 -9 2 10 0 22 -6 28 -6 6 -7 0 -4 -19z"/>
<path d="M4609 3973 c-13 -16 -12 -17 4 -4 9 7 17 15 17 17 0 8 -8 3 -21 -13z"/>
<path d="M4816 3964 c-10 -25 -7 -33 13 -43 13 -8 23 -6 37 5 18 15 18 15 -2
5 -25 -12 -49 1 -41 24 4 9 11 13 17 10 5 -3 10 -1 10 4 0 17 -27 13 -34 -5z"/>
<path d="M4476 3947 c3 -10 9 -15 12 -12 3 3 0 11 -7 18 -10 9 -11 8 -5 -6z"/>
<path d="M3526 3943 c7 -4 14 -17 17 -28 5 -16 5 -15 4 4 -1 14 -9 26 -17 28
-10 3 -11 2 -4 -4z"/>
<path d="M3565 3940 c-3 -6 1 -7 9 -4 18 7 21 14 7 14 -6 0 -13 -4 -16 -10z"/>
<path d="M3793 3923 c1 -12 -11 -36 -28 -55 l-30 -33 31 28 c22 19 36 26 50
21 18 -7 18 -6 3 12 -9 10 -19 26 -22 34 -4 9 -6 7 -4 -7z"/>
<path d="M4196 3927 c3 -10 9 -15 12 -12 3 3 0 11 -7 18 -10 9 -11 8 -5 -6z"/>
<path d="M4081 3913 c0 -12 6 -29 15 -37 21 -22 31 -20 12 2 -9 9 -18 26 -21
37 -4 19 -5 18 -6 -2z"/>
<path d="M4934 3903 c20 -24 41 -29 51 -13 3 6 -1 7 -10 4 -9 -4 -26 2 -38 12
l-22 19 19 -22z"/>
<path d="M4192 3880 c-6 -10 -24 -20 -39 -23 -28 -4 -28 -4 -2 -6 24 -1 69 33
58 44 -3 2 -10 -4 -17 -15z"/>
<path d="M4721 3833 c-10 -26 -10 -27 4 -9 8 11 15 23 15 28 0 15 -7 8 -19
-19z"/>
<path d="M4380 3842 c0 -6 -12 -25 -27 -44 -22 -27 -23 -29 -4 -13 27 23 45
54 37 63 -3 3 -6 0 -6 -6z"/>
<path d="M3950 3826 c0 -2 8 -10 18 -17 15 -13 16 -12 3 4 -13 16 -21 21 -21
13z"/>
<path d="M4530 3825 c0 -5 5 -17 10 -25 5 -8 10 -10 10 -5 0 6 -5 17 -10 25
-5 8 -10 11 -10 5z"/>
<path d="M3729 3783 l-24 -28 30 25 c17 14 32 26 34 28 2 1 0 2 -6 2 -5 0 -20
-12 -34 -27z"/>
<path d="M3819 3793 c-13 -16 -12 -17 4 -4 16 13 21 21 13 21 -2 0 -10 -8 -17
-17z"/>
<path d="M4476 3786 c-3 -13 -9 -32 -12 -43 -5 -12 -4 -15 3 -8 11 10 28 75
20 75 -3 0 -8 -11 -11 -24z"/>
<path d="M3861 3774 c0 -11 3 -14 6 -6 3 7 2 16 -1 19 -3 4 -6 -2 -5 -13z"/>
<path d="M4045 3769 c-4 -6 -5 -12 -2 -15 2 -3 7 2 10 11 7 17 1 20 -8 4z"/>
<path d="M4241 3730 c14 -31 19 -36 19 -24 0 6 -7 19 -16 30 -14 18 -14 18 -3
-6z"/>
<path d="M4881 3714 c0 -11 3 -14 6 -6 3 7 2 16 -1 19 -3 4 -6 -2 -5 -13z"/>
<path d="M4031 3713 c-1 -7 8 -22 18 -32 21 -21 81 -55 86 -49 2 2 -16 14 -39
27 -24 12 -48 32 -54 44 -6 12 -11 16 -11 10z"/>
<path d="M4443 3698 c-6 -13 -27 -45 -48 -73 -21 -27 -28 -41 -17 -31 26 23
86 115 80 121 -3 3 -9 -5 -15 -17z"/>
<path d="M4924 3698 l-19 -23 23 19 c12 11 22 21 22 23 0 8 -8 2 -26 -19z"/>
<path d="M4497 3681 c-3 -13 -1 -18 9 -14 7 2 10 11 7 19 -7 19 -10 18 -16 -5z"/>
<path d="M4239 3653 c-13 -16 -12 -17 4 -4 16 13 21 21 13 21 -2 0 -10 -8 -17
-17z"/>
<path d="M4560 3650 c11 -11 23 -20 27 -20 3 0 -2 9 -12 20 -10 11 -22 20 -27
20 -4 0 1 -9 12 -20z"/>
<path d="M4460 3635 c0 -8 2 -15 4 -15 2 0 6 7 10 15 3 8 1 15 -4 15 -6 0 -10
-7 -10 -15z"/>
<path d="M5113 3973 c11 -17 127 -103 140 -103 7 0 -4 10 -23 21 -19 12 -55
38 -79 58 -25 20 -42 31 -38 24z"/>
<path d="M5073 3910 c0 -25 2 -35 4 -22 2 12 2 32 0 45 -2 12 -4 2 -4 -23z"/>
<path d="M5130 3862 c6 -12 8 -28 4 -34 -4 -6 4 -3 18 8 14 10 24 23 21 28 -3
4 -9 2 -14 -5 -7 -11 -11 -10 -24 6 -16 19 -16 19 -5 -3z"/>
<path d="M5111 3803 c7 -10 15 -20 16 -22 2 -2 3 3 3 11 0 9 -7 19 -16 22 -15
6 -15 4 -3 -11z"/>
<path d="M5120 3766 c0 -2 7 -7 16 -10 8 -3 12 -2 9 4 -6 10 -25 14 -25 6z"/>
<path d="M3415 3790 c10 -11 20 -20 23 -20 3 0 -3 9 -13 20 -10 11 -20 20 -23
20 -3 0 3 -9 13 -20z"/>
<path d="M3477 3738 c28 -33 -89 -142 -165 -154 -24 -3 -41 -9 -38 -11 13 -13
92 13 133 44 32 25 44 30 38 17 -4 -11 -10 -45 -13 -76 -5 -69 12 -102 64
-124 52 -22 101 -5 157 55 26 28 48 44 51 38 2 -7 5 -4 5 5 1 9 6 28 12 41
l11 24 92 -35 c50 -20 93 -37 95 -39 11 -7 -15 -61 -44 -90 -18 -18 -29 -33
-25 -33 14 0 69 70 76 95 3 14 11 25 18 26 6 0 -23 13 -66 29 -42 16 -127 51
-189 79 -62 28 -108 46 -103 42 15 -15 108 -61 121 -61 18 0 16 -9 -8 -50 -61
-102 -147 -146 -214 -110 -35 18 -49 61 -41 123 4 28 8 60 9 70 1 9 4 17 8 17
4 0 12 14 19 31 8 18 18 28 26 25 22 -9 16 0 -13 20 -20 12 -24 13 -16 2z"/>
<path d="M3400 3692 c-25 -26 -28 -32 -11 -21 21 13 61 60 50 58 -2 0 -20 -17
-39 -37z"/>
<path d="M3530 3706 c0 -3 9 -10 20 -16 11 -6 20 -8 20 -6 0 3 -9 10 -20 16
-11 6 -20 8 -20 6z"/>
<path d="M3325 3650 c-13 -6 -15 -9 -5 -9 8 0 22 4 30 9 18 12 2 12 -25 0z"/>
<path d="M5301 3598 c0 -15 -9 -32 -18 -37 -10 -6 -13 -11 -7 -11 19 0 36 28
31 52 -4 21 -4 20 -6 -4z"/>
<path d="M3637 3577 l-17 -32 20 24 c17 20 26 41 18 41 -2 0 -11 -15 -21 -33z"/>
<path d="M3492 3560 c0 -19 2 -27 5 -17 2 9 2 25 0 35 -3 9 -5 1 -5 -18z"/>
<path d="M5190 3564 c0 -17 43 -77 60 -81 10 -3 9 -1 -3 7 -9 6 -26 28 -37 48
-10 20 -19 32 -20 26z"/>
<path d="M3599 3523 c-13 -16 -12 -17 4 -4 16 13 21 21 13 21 -2 0 -10 -8 -17
-17z"/>
<path d="M3970 3511 c12 -8 10 -19 -15 -72 -17 -35 -45 -78 -63 -96 -65 -66
-170 -33 -190 60 -8 34 -10 37 -11 14 -1 -16 7 -42 16 -58 22 -37 92 -72 126
-63 36 8 92 61 116 109 l21 40 0 -64 c0 -78 21 -124 65 -145 71 -34 128 -6
174 85 l30 60 7 -48 c18 -127 95 -182 190 -137 19 9 47 35 63 58 31 46 66 134
57 143 -3 3 -7 0 -10 -8 -42 -143 -107 -210 -189 -195 -61 11 -90 63 -103 182
-5 47 -3 64 9 76 14 14 9 16 -51 22 -59 5 -112 15 -227 41 -22 5 -26 4 -15 -4z
m143 -33 c49 -9 67 -16 67 -28 -1 -25 -36 -94 -59 -115 -19 -16 -26 -17 -54
-7 -29 10 -30 10 -13 -3 11 -8 28 -15 39 -15 28 0 72 53 87 105 10 37 17 45
36 45 30 0 31 -21 3 -95 -40 -107 -109 -155 -176 -123 -53 25 -78 123 -57 228
6 28 10 31 33 26 14 -3 56 -11 94 -18z"/>
<path d="M3692 3485 c0 -16 2 -22 5 -12 2 9 2 23 0 30 -3 6 -5 -1 -5 -18z"/>
<path d="M3846 3495 c-11 -8 -15 -15 -9 -15 6 0 16 7 23 15 16 19 11 19 -14 0z"/>
<path d="M5310 3495 c-17 -10 -20 -14 -9 -15 9 0 22 7 29 15 15 18 12 18 -20
0z"/>
<path d="M4971 3490 c0 -8 4 -22 9 -30 12 -18 12 -2 0 25 -6 13 -9 15 -9 5z"/>
<path d="M3741 3468 c-1 -9 9 -27 22 -40 12 -13 17 -17 10 -8 -7 8 -16 27 -22
40 -6 17 -10 19 -10 8z"/>
<path d="M5138 3402 c-8 -55 -31 -90 -71 -107 -18 -8 -24 -14 -15 -15 45 -1
104 87 96 142 -2 15 -6 8 -10 -20z"/>
<path d="M4412 3382 c-11 -25 -11 -25 4 -10 9 9 15 21 13 27 -2 6 -10 -2 -17
-17z"/>
<path d="M5057 3390 c-9 -11 -24 -20 -34 -20 -9 0 -14 -3 -10 -6 10 -10 47 7
57 27 14 24 9 24 -13 -1z"/>
<path d="M4723 3382 c-10 -15 -14 -15 -34 -3 -22 13 -23 13 -10 -2 7 -10 19
-17 26 -17 14 0 41 28 34 35 -3 2 -10 -4 -16 -13z"/>
<path d="M4960 3396 c0 -2 8 -10 18 -17 15 -13 16 -12 3 4 -13 16 -21 21 -21
13z"/>
<path d="M4310 3354 c0 -10 5 -26 10 -34 8 -11 9 -7 4 15 -8 37 -14 45 -14 19z"/>
<path d="M4639 3333 c15 -29 50 -53 79 -53 25 0 72 41 72 62 0 7 -6 4 -12 -7
-29 -54 -77 -59 -121 -12 -20 21 -26 25 -18 10z"/>
<path d="M4342 3284 c10 -10 20 -16 22 -13 3 3 -5 11 -17 18 -21 13 -21 12 -5
-5z"/>
<path d="M3221 3363 l-77 -78 70 64 c39 36 78 71 86 78 8 7 11 13 7 13 -4 0
-43 -35 -86 -77z"/>
<path d="M3295 3244 c-16 -14 -64 -48 -105 -75 -66 -45 -100 -83 -86 -96 2 -3
7 5 11 16 3 12 30 36 58 55 66 43 173 126 161 126 -5 -1 -22 -12 -39 -26z"/>
<path d="M3342 3185 c0 -16 2 -22 5 -12 2 9 2 23 0 30 -3 6 -5 -1 -5 -18z"/>
<path d="M3265 3136 c-11 -11 -31 -28 -45 -37 l-25 -16 84 -42 c46 -23 84 -41
86 -39 1 2 -1 35 -6 73 l-7 70 2 -67 2 -66 -69 35 c-38 19 -66 38 -61 41 5 4
21 18 37 31 l27 24 0 -26 c0 -19 -4 -25 -15 -21 -22 9 -18 -4 5 -16 19 -10 20
-8 20 35 0 50 -5 53 -35 21z"/>
<path d="M3061 3044 c0 -11 3 -14 6 -6 3 7 2 16 -1 19 -3 4 -6 -2 -5 -13z"/>
<path d="M3081 3024 c0 -11 3 -14 6 -6 3 7 2 16 -1 19 -3 4 -6 -2 -5 -13z"/>
<path d="M3073 2966 c2 -49 30 -71 53 -42 8 11 14 27 13 35 0 9 -5 4 -11 -11
-12 -34 -36 -37 -42 -5 -12 56 -14 59 -13 23z"/>
<path d="M5484 3245 c0 -110 2 -156 3 -103 2 53 2 143 0 200 -1 57 -3 13 -3
-97z"/>
<path d="M5541 3308 c0 -19 2 -20 7 -5 6 14 19 6 76 -52 59 -60 66 -70 51 -79
-14 -7 -24 -3 -46 22 -15 17 -30 28 -33 25 -4 -3 -3 -32 0 -63 4 -31 11 -53
15 -49 5 5 4 24 -1 43 -14 47 -13 55 5 40 9 -7 13 -23 11 -37 -3 -13 -2 -23 2
-21 31 15 72 45 72 52 0 10 -141 146 -152 146 -4 0 -8 -10 -7 -22z"/>
<path d="M5534 3165 c0 -60 1 -84 3 -52 2 32 2 81 0 110 -2 29 -3 3 -3 -58z"/>
<path d="M5170 3236 c33 -37 131 -115 203 -160 l57 -37 -1 43 c-2 42 -2 42 -8
9 l-6 -33 -74 50 c-41 28 -102 74 -135 103 -34 29 -50 40 -36 25z"/>
<path d="M5412 3240 c0 -14 2 -19 5 -12 2 6 2 18 0 25 -3 6 -5 1 -5 -13z"/>
<path d="M5260 3244 c0 -20 41 -64 60 -64 26 0 50 27 49 53 l-2 22 -4 -22
c-10 -51 -61 -54 -88 -5 -8 15 -14 22 -15 16z"/>
<path d="M5061 3148 c0 -15 -10 -75 -22 -134 -11 -58 -18 -108 -16 -111 8 -7
49 226 44 250 -4 19 -4 18 -6 -5z"/>
<path d="M4981 3124 c0 -11 3 -14 6 -6 3 7 2 16 -1 19 -3 4 -6 -2 -5 -13z"/>
<path d="M4681 3113 c45 -72 218 -310 252 -346 46 -49 38 -34 -24 43 -24 30
-79 105 -121 165 -74 106 -138 189 -107 138z"/>
<path d="M4841 2997 c50 -70 96 -127 100 -127 5 0 9 12 8 28 -1 25 -1 25 -7 4
-6 -20 -17 -9 -86 88 -43 60 -85 115 -93 122 -8 7 27 -45 78 -115z"/>
<path d="M4835 3091 c6 -40 30 -81 47 -81 7 0 4 6 -5 13 -10 7 -24 32 -33 57
-12 38 -14 40 -9 11z"/>
<path d="M4930 3078 c0 -17 -8 -40 -17 -51 -17 -19 -17 -20 5 -8 17 9 22 20
22 51 0 22 -2 40 -5 40 -3 0 -5 -14 -5 -32z"/>
<path d="M5115 3089 c-4 -11 -4 -23 -1 -26 3 -4 6 1 6 10 0 10 2 17 4 17 9 0
161 -163 161 -173 0 -10 -101 -76 -117 -77 -5 0 -9 15 -9 33 -2 31 -2 31 -6 4
-9 -58 1 -59 78 -14 39 23 71 46 71 50 -1 5 -41 51 -91 102 -78 82 -91 92 -96
74z"/>
<path d="M4971 3074 c0 -11 3 -14 6 -6 3 7 2 16 -1 19 -3 4 -6 -2 -5 -13z"/>
<path d="M4349 3055 c5 -11 17 -29 26 -40 l16 -20 -10 20 c-5 11 -17 29 -26
40 l-16 20 10 -20z"/>
<path d="M4546 3045 c-9 -26 -7 -32 5 -12 6 10 9 21 6 23 -2 3 -7 -2 -11 -11z"/>
<path d="M5102 3020 c0 -19 2 -27 5 -17 2 9 2 25 0 35 -3 9 -5 1 -5 -18z"/>
<path d="M4601 2994 c0 -11 3 -14 6 -6 3 7 2 16 -1 19 -3 4 -6 -2 -5 -13z"/>
<path d="M4670 3000 c0 -5 5 -10 10 -10 6 0 10 5 10 10 0 6 -4 10 -10 10 -5 0
-10 -4 -10 -10z"/>
<path d="M4511 2949 c-6 -18 -11 -37 -10 -43 0 -6 7 7 15 28 8 22 12 41 10 43
-2 2 -9 -10 -15 -28z"/>
<path d="M4690 2976 c0 -13 56 -110 102 -179 22 -32 38 -60 36 -61 -1 -2 -39
-11 -83 -21 -44 -10 -86 -20 -94 -23 -11 -4 -10 0 2 19 8 13 21 44 27 68 l12
44 19 -29 c23 -35 24 -44 4 -44 -8 0 -15 8 -16 18 0 14 -2 14 -9 -3 -16 -38
-12 -43 25 -31 19 6 34 13 32 16 -1 3 -13 26 -27 53 -13 26 -27 47 -31 47 -4
0 -10 -19 -13 -42 -4 -24 -18 -63 -31 -87 l-25 -43 22 5 c13 2 64 13 113 23
50 10 91 19 93 20 2 1 -13 25 -33 53 -21 28 -57 86 -81 128 -24 43 -44 73 -44
69z"/>
<path d="M4952 2960 c0 -14 2 -19 5 -12 2 6 2 18 0 25 -3 6 -5 1 -5 -13z"/>
<path d="M5093 2945 c0 -22 2 -30 4 -17 2 12 2 30 0 40 -3 9 -5 -1 -4 -23z"/>
<path d="M4577 2918 c-9 -29 -15 -54 -13 -56 2 -2 12 20 21 48 9 28 15 53 13
55 -2 3 -12 -19 -21 -47z"/>
<path d="M5141 2943 c0 -22 2 -24 7 -10 7 16 10 15 36 -12 17 -18 24 -31 17
-35 -6 -4 -11 -2 -11 4 0 6 -4 8 -10 5 -5 -3 -10 -10 -10 -16 0 -14 26 -11 38
4 9 10 4 22 -19 50 -36 44 -49 47 -48 10z"/>
<path d="M4447 2885 c9 -19 18 -33 21 -31 4 5 -26 66 -33 66 -3 0 3 -16 12
-35z"/>
<path d="M5076 2844 c-4 -31 -5 -59 -2 -61 2 -3 8 21 11 52 4 31 5 58 3 61 -3
2 -8 -21 -12 -52z"/>
<path d="M4491 2874 c0 -11 3 -14 6 -6 3 7 2 16 -1 19 -3 4 -6 -2 -5 -13z"/>
<path d="M4604 2802 c-17 -48 -34 -96 -38 -107 -5 -13 -2 -11 8 5 17 29 70
179 64 185 -2 2 -17 -35 -34 -83z"/>
<path d="M5012 2870 c0 -14 2 -19 5 -12 2 6 2 18 0 25 -3 6 -5 1 -5 -13z"/>
<path d="M4476 2841 c-4 -7 -5 -15 -2 -18 9 -9 19 4 14 18 -4 11 -6 11 -12 0z"/>
<path d="M5002 2820 c0 -14 2 -19 5 -12 2 6 2 18 0 25 -3 6 -5 1 -5 -13z"/>
<path d="M3492 3210 c0 -14 2 -19 5 -12 2 6 2 18 0 25 -3 6 -5 1 -5 -13z"/>
<path d="M3531 3215 c-1 -28 26 -65 48 -65 18 0 41 18 41 33 0 5 -7 1 -16 -8
-24 -24 -47 -14 -61 25 -8 23 -12 28 -12 15z"/>
<path d="M3621 3214 c0 -11 3 -14 6 -6 3 7 2 16 -1 19 -3 4 -6 -2 -5 -13z"/>
<path d="M3502 3160 c0 -14 2 -19 5 -12 2 6 2 18 0 25 -3 6 -5 1 -5 -13z"/>
<path d="M3971 3134 c0 -11 3 -14 6 -6 3 7 2 16 -1 19 -3 4 -6 -2 -5 -13z"/>
<path d="M4135 2958 c-48 -95 -97 -189 -108 -208 -11 -19 -14 -30 -7 -23 14
13 211 395 206 400 -2 2 -43 -74 -91 -169z"/>
<path d="M4117 3065 c-9 -19 -15 -35 -12 -35 7 0 37 61 33 66 -3 2 -12 -12
-21 -31z"/>
<path d="M3910 3083 c0 -16 48 -150 72 -197 l20 -39 28 51 c15 28 37 66 49 86
13 20 20 36 17 36 -3 0 -26 -34 -50 -76 -52 -88 -47 -91 -102 61 -18 50 -33
85 -34 78z"/>
<path d="M3971 3055 c-1 -24 25 -65 41 -65 7 0 4 6 -5 13 -10 6 -21 26 -26 42
-7 21 -10 24 -10 10z"/>
<path d="M4051 3054 c0 -11 3 -14 6 -6 3 7 2 16 -1 19 -3 4 -6 -2 -5 -13z"/>
<path d="M4036 3013 c-6 -14 -5 -15 5 -6 7 7 10 15 7 18 -3 3 -9 -2 -12 -12z"/>
<path d="M4177 2915 c-26 -52 -45 -95 -42 -95 3 0 24 39 48 87 l44 87 13 -40
c7 -21 35 -83 61 -136 27 -54 49 -99 49 -102 0 -2 -17 0 -37 5 -21 5 -63 8
-93 7 -52 -1 -51 -1 20 -8 41 -4 88 -11 103 -15 l28 -8 -54 109 c-30 60 -60
127 -67 149 -7 22 -15 43 -19 47 -4 4 -28 -35 -54 -87z"/>
<path d="M4223 2849 c-20 -38 -43 -110 -34 -105 5 3 14 26 21 51 7 25 16 45
20 45 7 0 20 -48 20 -71 0 -19 -19 -8 -23 14 -4 19 -4 18 -6 -5 -1 -22 4 -28
19 -28 23 0 25 23 7 84 -12 39 -12 39 -24 15z"/>
<path d="M3660 2957 c-63 -61 -92 -93 -65 -70 28 23 79 71 115 108 61 61 65
64 72 43 6 -23 6 -23 7 -1 1 12 -2 24 -6 26 -5 3 -60 -45 -123 -106z"/>
<path d="M3792 2995 c0 -11 4 -31 8 -45 6 -20 8 -21 8 -5 0 11 -4 31 -8 45 -6
20 -8 21 -8 5z"/>
<path d="M3693 2890 c-48 -54 -51 -60 -25 -60 9 0 50 -7 89 -17 40 -9 75 -14
79 -11 3 4 0 32 -7 62 -7 31 -14 54 -17 51 -2 -2 1 -25 7 -51 7 -25 10 -49 7
-51 -4 -4 -144 27 -155 34 -3 2 8 17 24 33 20 21 31 26 36 18 4 -7 0 -17 -9
-25 -15 -11 -15 -12 6 -13 21 0 22 3 16 38 -4 20 -7 38 -8 38 0 1 -20 -20 -43
-46z"/>
<path d="M5690 3065 c0 -5 5 -17 10 -25 5 -8 10 -10 10 -5 0 6 -5 17 -10 25
-5 8 -10 11 -10 5z"/>
<path d="M5751 2994 c0 -11 3 -14 6 -6 3 7 2 16 -1 19 -3 4 -6 -2 -5 -13z"/>
<path d="M5575 2960 c3 -14 17 -74 31 -134 14 -59 23 -120 22 -135 -4 -25 -7
-23 -73 44 -45 45 -58 55 -36 28 17 -23 52 -60 77 -81 44 -39 44 -40 44 -104
0 -118 -38 -197 -101 -213 -35 -9 -103 10 -135 38 -26 23 -26 25 -26 142 1 66
-2 149 -7 185 -6 45 -7 17 -4 -90 3 -85 1 -165 -4 -178 -8 -21 -13 -16 -62 59
-30 45 -67 118 -83 163 -20 55 -27 68 -23 41 10 -67 89 -217 147 -280 108
-118 224 -127 280 -22 20 37 23 56 23 162 -1 121 -26 275 -61 362 -8 21 -12
27 -9 13z"/>
<path d="M5351 2814 c0 -11 3 -14 6 -6 3 7 2 16 -1 19 -3 4 -6 -2 -5 -13z"/>
<path d="M5381 2795 c0 -5 6 -32 13 -60 8 -27 14 -41 14 -30 0 21 -25 107 -27
90z"/>
<path d="M5322 2740 c0 -14 2 -19 5 -12 2 6 2 18 0 25 -3 6 -5 1 -5 -13z"/>
<path d="M5255 2730 c-3 -6 1 -7 9 -4 18 7 21 14 7 14 -6 0 -13 -4 -16 -10z"/>
<path d="M5281 2704 c0 -11 3 -14 6 -6 3 7 2 16 -1 19 -3 4 -6 -2 -5 -13z"/>
<path d="M5446 2693 c4 -16 13 -39 20 -53 l13 -25 1 23 c0 22 -26 82 -35 82
-3 0 -2 -12 1 -27z"/>
<path d="M5241 2689 c-1 -33 34 -79 60 -79 22 0 40 36 38 78 -1 23 -2 22 -8
-8 -9 -44 -18 -60 -35 -60 -19 0 -37 25 -46 63 -7 29 -8 30 -9 6z"/>
<path d="M5414 2578 c1 -90 3 -99 26 -120 l24 -23 -19 24 c-16 18 -21 45 -26
120 l-7 96 2 -97z"/>
<path d="M5592 2555 c0 -16 2 -22 5 -12 2 9 2 23 0 30 -3 6 -5 -1 -5 -18z"/>
<path d="M5491 2550 c-1 -29 15 -58 25 -47 4 4 0 22 -9 40 -15 30 -16 31 -16
7z"/>
<path d="M5568 2489 c-10 -16 -32 -36 -50 -44 -18 -8 -26 -14 -17 -15 20 0 65
35 80 62 17 32 5 30 -13 -3z"/>
<path d="M3331 2874 c0 -11 3 -14 6 -6 3 7 2 16 -1 19 -3 4 -6 -2 -5 -13z"/>
<path d="M3322 2825 c0 -16 2 -22 5 -12 2 9 2 23 0 30 -3 6 -5 -1 -5 -18z"/>
<path d="M3345 2796 c-20 -31 -16 -95 7 -110 13 -8 22 -6 37 8 38 35 22 1 -21
-44 l-43 -45 -6 95 -5 95 -2 -126 c-2 -105 2 -139 19 -195 27 -87 79 -144 131
-144 38 0 94 35 138 86 19 22 15 20 -15 -7 -60 -54 -86 -69 -121 -69 -61 0
-123 94 -137 210 -5 43 -4 46 36 80 l41 35 -22 -36 c-28 -47 -28 -91 2 -154
31 -67 57 -89 93 -81 36 8 93 42 93 56 0 5 -9 1 -19 -9 -11 -11 -38 -25 -60
-32 -50 -15 -64 -5 -97 66 -36 76 -32 113 18 177 58 75 67 89 25 43 -39 -43
-49 -41 -18 3 22 33 61 108 61 119 -1 4 -10 -8 -21 -27 l-20 -35 6 30 c4 23 0
19 -20 -20 -29 -59 -52 -80 -72 -64 -26 22 -10 109 21 109 19 0 29 -30 15 -46
-8 -9 -8 -14 -1 -14 17 0 25 39 12 55 -18 22 -37 18 -55 -9z m85 -66 c-6 -12
-14 -20 -17 -17 -2 3 1 14 8 26 7 11 15 18 17 16 2 -2 -2 -13 -8 -25z"/>
<path d="M3562 2765 c0 -16 2 -22 5 -12 2 9 2 23 0 30 -3 6 -5 -1 -5 -18z"/>
<path d="M3612 2750 c0 -19 2 -27 5 -17 2 9 2 25 0 35 -3 9 -5 1 -5 -18z"/>
<path d="M3476 2753 c-6 -14 -5 -15 5 -6 7 7 10 15 7 18 -3 3 -9 -2 -12 -12z"/>
<path d="M3659 2709 c-7 -14 -8 -24 -1 -31 7 -7 10 -4 9 8 -1 10 6 20 16 22
25 5 24 -59 -3 -83 -26 -23 -47 -13 -59 27 -6 21 -10 26 -10 13 -1 -11 6 -31
15 -43 23 -34 55 -25 77 21 18 35 18 39 3 62 -20 31 -32 31 -47 4z"/>
<path d="M3586 2645 c6 -89 22 -175 34 -189 12 -12 131 182 130 211 -1 4 -8
-5 -16 -22 -44 -84 -98 -175 -105 -175 -9 0 -16 32 -34 156 l-15 99 6 -80z"/>
<path d="M3552 2685 c0 -16 2 -22 5 -12 2 9 2 23 0 30 -3 6 -5 -1 -5 -18z"/>
<path d="M3493 2667 c-7 -15 -13 -40 -12 -55 1 -27 1 -26 15 7 8 18 14 43 12
54 -3 19 -4 19 -15 -6z"/>
<path d="M3561 2589 c0 -24 4 -62 9 -84 6 -29 7 -17 3 40 -6 88 -13 114 -12
44z"/>
<path d="M3450 2514 c-13 -32 -13 -54 0 -54 5 0 12 12 16 28 3 15 7 33 10 40
7 24 -17 12 -26 -14z"/>
<path d="M4895 2617 c6 -91 51 -149 90 -117 21 17 19 83 -3 111 -15 17 -21 19
-27 9 -5 -8 -4 -11 3 -6 28 17 44 -82 17 -104 -24 -20 -52 13 -64 74 -18 88
-20 93 -16 33z"/>
<path d="M4753 2575 c0 -38 2 -53 4 -32 2 20 2 52 0 70 -2 17 -4 1 -4 -38z"/>
<path d="M4679 2552 c-6 -72 -27 -104 -53 -82 -16 12 -22 80 -9 93 3 4 12 2
20 -5 11 -8 12 -7 7 6 -8 20 -30 21 -38 0 -19 -48 2 -114 35 -114 27 0 51 59
47 118 -3 45 -3 45 -9 -16z"/>
<path d="M4731 2549 c0 -19 4 -52 9 -74 7 -31 7 -24 3 30 -6 74 -13 101 -12
44z"/>
<path d="M4891 2410 c24 -47 46 -82 47 -77 4 8 -63 136 -80 152 -5 6 10 -28
33 -75z"/>
<path d="M4791 2418 c-1 -27 4 -48 9 -48 12 0 12 47 0 75 -6 15 -9 8 -9 -27z"/>
<path d="M4717 2359 c-10 -41 -17 -84 -17 -97 0 -32 41 -69 84 -78 63 -11 157
38 156 81 -1 5 -7 -2 -15 -17 -19 -34 -92 -63 -137 -54 -41 8 -78 43 -78 74 0
13 7 51 16 84 8 33 14 64 12 70 -2 6 -12 -23 -21 -63z"/>
<path d="M4808 2304 c-12 -11 -9 -72 3 -79 17 -11 21 1 12 45 -4 23 -11 38
-15 34z"/>
<path d="M4077 2616 c-13 -82 -59 -134 -92 -106 -28 23 -10 110 23 110 16 0
23 -31 10 -49 -11 -15 -10 -15 6 0 15 14 16 21 7 38 -15 27 -36 27 -55 -1 -20
-29 -20 -82 0 -102 29 -29 62 -20 84 23 19 37 38 121 28 121 -3 0 -8 -16 -11
-34z"/>
<path d="M4302 2600 c0 -19 2 -27 5 -17 2 9 2 25 0 35 -3 9 -5 1 -5 -18z"/>
<path d="M4110 2599 c0 -44 -117 -234 -134 -218 -4 4 -11 33 -16 65 -5 33 -14
82 -19 109 -10 49 -10 49 -5 -15 13 -173 66 -279 164 -330 116 -60 204 -16
270 132 26 59 60 193 59 227 -1 22 -3 20 -9 -9 -6 -30 -8 -31 -9 -9 -1 31 -24
54 -46 45 -8 -3 -14 -16 -14 -28 l2 -23 4 23 c3 15 10 22 21 20 25 -5 27 -59
4 -88 -17 -21 -22 -22 -36 -11 -9 7 -20 28 -25 45 -5 17 -10 23 -10 13 -2 -30
28 -77 49 -77 10 0 26 10 34 22 21 30 20 13 -5 -67 -20 -64 -21 -66 -35 -46
-8 11 -20 35 -26 51 -6 17 -13 29 -15 26 -3 -3 7 -31 22 -61 l27 -56 -29 -47
c-43 -70 -85 -95 -153 -90 -64 5 -115 34 -160 94 -36 48 -37 57 -4 100 31 40
42 39 21 -3 -17 -34 -13 -49 27 -91 35 -38 76 -62 103 -61 10 0 4 5 -12 10
-17 5 -50 25 -73 45 -53 45 -54 74 -8 141 36 52 76 127 76 140 -1 4 -8 -5 -17
-22 -29 -56 -76 -126 -80 -121 -3 3 4 20 15 38 27 45 56 127 48 135 -3 3 -6 0
-6 -8z"/>
<path d="M4241 2524 c0 -11 3 -14 6 -6 3 7 2 16 -1 19 -3 4 -6 -2 -5 -13z"/>
<path d="M4165 2458 c-10 -50 -1 -70 15 -36 10 20 10 34 3 50 -10 22 -11 21
-18 -14z"/>
<path d="M4260 2467 c0 -4 7 -22 17 -40 9 -17 19 -43 24 -57 6 -20 7 -21 8 -5
0 19 -48 119 -49 102z"/>
<path d="M4152 2343 c-15 -26 -15 -53 -2 -53 11 0 24 43 18 62 -3 8 -9 5 -16
-9z"/>
<path d="M4301 2319 c-1 -21 -42 -58 -77 -69 -25 -7 -26 -8 -6 -9 28 -1 97 60
89 80 -4 11 -6 11 -6 -2z"/>
<path d="M3712 2280 c0 -14 2 -19 5 -12 2 6 2 18 0 25 -3 6 -5 1 -5 -13z"/>
<path d="M2920 2265 c40 -48 43 -51 32 -30 -6 11 -21 29 -34 40 -22 19 -22 19
2 -10z"/>
<path d="M2977 2179 c20 -34 59 -69 77 -69 6 1 -1 7 -16 15 -14 8 -36 31 -48
50 -27 43 -38 47 -13 4z"/>
<path d="M3083 2103 c9 -2 25 -2 35 0 9 3 1 5 -18 5 -19 0 -27 -2 -17 -5z"/>
<path d="M3291 2040 c51 -59 93 -90 121 -90 7 0 -6 9 -28 19 -25 11 -56 38
-75 64 -19 25 -43 50 -53 57 -11 7 5 -16 35 -50z"/>
<path d="M3241 2045 c8 -11 20 -32 27 -47 9 -23 9 -29 -6 -38 -15 -10 -15 -11
0 -6 10 3 23 -4 33 -20 9 -14 31 -32 50 -41 38 -18 48 -16 165 32 84 36 120
28 168 -34 30 -39 32 -46 18 -59 -8 -8 -39 -17 -68 -19 -43 -4 -63 0 -103 21
-27 15 -41 19 -30 10 54 -44 136 -56 189 -29 28 15 30 14 71 -24 70 -64 124
-63 222 3 51 35 35 33 -30 -4 -30 -16 -66 -30 -81 -30 -49 0 -103 37 -151 104
-73 102 -127 116 -237 60 -26 -13 -63 -24 -82 -24 -43 0 -90 38 -106 84 -6 18
-23 44 -38 57 -19 17 -23 19 -11 4z"/>
<path d="M3108 2013 c13 -23 71 -63 93 -63 8 1 -1 7 -19 15 -17 8 -44 27 -58
42 -21 22 -24 23 -16 6z"/>
<path d="M3558 1973 c7 -3 16 -2 19 1 4 3 -2 6 -13 5 -11 0 -14 -3 -6 -6z"/>
<path d="M3458 1953 c7 -3 16 -2 19 1 4 3 -2 6 -13 5 -11 0 -14 -3 -6 -6z"/>
<path d="M3722 1890 c38 -38 77 -70 86 -69 14 0 13 2 -3 9 -11 4 -47 36 -80
69 -33 34 -62 61 -66 61 -3 0 25 -31 63 -70z"/>
<path d="M5842 1930 c-34 -31 -34 -37 -2 -20 16 9 48 51 38 50 -2 0 -18 -14
-36 -30z"/>
<path d="M2855 1884 c-9 -15 -12 -23 -6 -20 11 7 35 46 28 46 -3 0 -12 -12
-22 -26z"/>
<path d="M5748 1893 c12 -2 30 -2 40 0 9 3 -1 5 -23 4 -22 0 -30 -2 -17 -4z"/>
<path d="M3108 1829 c-21 -27 -38 -55 -38 -62 -1 -7 -8 1 -16 16 -19 35 -29
30 -13 -7 19 -40 17 -42 93 77 29 44 14 31 -26 -24z"/>
<path d="M3935 1855 c-27 -13 -45 -23 -40 -24 6 0 33 11 60 24 28 13 46 23 40
24 -5 0 -32 -11 -60 -24z"/>
<path d="M2955 1832 c6 -46 47 -155 70 -187 15 -18 17 -17 63 28 46 46 104
131 117 172 4 11 -8 -6 -26 -39 -38 -66 -114 -156 -134 -156 -16 0 -62 95 -81
169 -12 49 -13 51 -9 13z"/>
<path d="M3235 1795 c2 -44 11 -98 19 -120 8 -22 15 -35 15 -29 1 6 -4 24 -9
41 -6 16 -15 65 -20 109 l-9 79 4 -80z"/>
<path d="M4477 1801 c-29 -26 -61 -53 -72 -59 -11 -6 -14 -12 -7 -12 7 0 34
19 60 43 26 24 58 51 72 60 13 9 19 17 12 17 -7 0 -37 -22 -65 -49z"/>
<path d="M4720 1843 c8 -3 36 -16 63 -30 26 -13 47 -21 47 -18 0 8 -98 55
-112 54 -9 0 -8 -3 2 -6z"/>
<path d="M3858 1823 c7 -3 16 -2 19 1 4 3 -2 6 -13 5 -11 0 -14 -3 -6 -6z"/>
<path d="M5305 1789 c-16 -10 -25 -19 -19 -19 7 0 22 9 35 20 30 24 23 24 -16
-1z"/>
<path d="M5372 1785 c-15 -32 -68 -65 -105 -65 -15 0 -43 7 -62 14 -19 8 -35
13 -35 10 0 -10 70 -34 97 -34 15 0 42 9 60 20 32 19 70 66 61 75 -3 3 -10 -6
-16 -20z"/>
<path d="M4010 1796 c0 -2 8 -10 18 -17 15 -13 16 -12 3 4 -13 16 -21 21 -21
13z"/>
<path d="M4854 1776 c11 -9 24 -16 30 -16 12 0 7 5 -24 19 -24 11 -24 11 -6
-3z"/>
<path d="M4150 1764 c-24 -9 -29 -13 -14 -13 11 -1 29 6 40 14 22 17 20 17
-26 -1z"/>
<path d="M4705 1759 c-16 -10 -25 -19 -19 -19 7 0 22 9 35 20 30 24 23 24 -16
-1z"/>
<path d="M4078 1753 c6 -2 18 -2 25 0 6 3 1 5 -13 5 -14 0 -19 -2 -12 -5z"/>
<path d="M4908 1753 c7 -3 16 -2 19 1 4 3 -2 6 -13 5 -11 0 -14 -3 -6 -6z"/>
<path d="M4204 1729 c-13 -13 -42 -24 -75 -29 -48 -7 -50 -8 -16 -9 43 -1 102
23 111 45 7 19 4 18 -20 -7z"/>
<path d="M4760 1718 c-14 -16 -41 -33 -60 -38 -32 -7 -33 -8 -7 -9 18 -1 40
10 65 33 20 19 35 36 32 39 -3 2 -16 -9 -30 -25z"/>
<path d="M3371 1724 c0 -11 3 -14 6 -6 3 7 2 16 -1 19 -3 4 -6 -2 -5 -13z"/>
<path d="M3395 1714 c-9 -15 -12 -23 -6 -20 11 7 35 46 28 46 -3 0 -12 -12
-22 -26z"/>
<path d="M4623 1733 c9 -2 25 -2 35 0 9 3 1 5 -18 5 -19 0 -27 -2 -17 -5z"/>
<path d="M4358 1723 c7 -3 16 -2 19 1 4 3 -2 6 -13 5 -11 0 -14 -3 -6 -6z"/>
<path d="M5818 1669 c-9 -35 -26 -86 -38 -114 l-22 -50 -55 59 c-31 33 -66 83
-79 110 -13 28 -24 45 -24 38 0 -28 53 -114 105 -169 44 -47 56 -55 64 -43 16
24 72 201 69 217 -2 8 -11 -13 -20 -48z"/>
<path d="M3511 1694 c0 -11 3 -14 6 -6 3 7 2 16 -1 19 -3 4 -6 -2 -5 -13z"/>
<path d="M4564 1696 c11 -9 24 -16 30 -16 12 0 7 5 -24 19 -24 11 -24 11 -6
-3z"/>
<path d="M3356 1676 c-7 -28 -26 -36 -26 -11 0 8 -4 15 -10 15 -5 0 -10 -3
-10 -6 0 -12 21 -44 29 -44 15 0 40 46 31 59 -5 9 -9 5 -14 -13z"/>
<path d="M5696 1676 c5 -27 4 -28 -12 -15 -13 10 -12 5 4 -18 20 -29 42 -50
42 -41 0 2 4 18 9 36 6 20 6 30 0 27 -5 -4 -9 -16 -9 -27 0 -28 -12 -15 -27
30 -9 27 -11 29 -7 8z"/>
<path d="M3676 1673 c-3 -11 -17 -34 -30 -51 l-23 -32 -13 30 c-7 17 -17 33
-22 36 -10 6 18 -66 30 -78 5 -5 23 17 41 47 19 31 31 58 28 61 -3 3 -8 -3
-11 -13z"/>
<path d="M4618 1673 c6 -2 18 -2 25 0 6 3 1 5 -13 5 -14 0 -19 -2 -12 -5z"/>
<path d="M5441 1654 c0 -11 3 -14 6 -6 3 7 2 16 -1 19 -3 4 -6 -2 -5 -13z"/>
<path d="M5182 1630 c0 -14 2 -19 5 -12 2 6 2 18 0 25 -3 6 -5 1 -5 -13z"/>
<path d="M5451 1583 c0 -29 -4 -53 -7 -53 -4 0 -22 17 -41 38 -29 31 -31 32
-15 7 11 -16 29 -38 39 -48 19 -16 20 -16 30 6 6 13 7 39 3 62 l-8 40 -1 -52z"/>
<path d="M4081 1604 c0 -11 3 -14 6 -6 3 7 2 16 -1 19 -3 4 -6 -2 -5 -13z"/>
<path d="M4411 1610 c0 -8 6 -28 14 -45 17 -39 18 -21 0 25 -7 19 -14 28 -14
20z"/>
<path d="M4986 1600 c15 -62 128 -210 160 -210 8 0 21 16 29 36 21 51 18 56
-7 9 l-21 -39 -56 60 c-31 33 -69 85 -84 115 -15 30 -24 43 -21 29z"/>
<path d="M4585 1545 c-16 -55 -23 -65 -38 -61 -18 4 -18 4 -1 -15 17 -19 18
-18 41 48 13 37 22 74 21 81 -2 7 -12 -17 -23 -53z"/>
<path d="M5132 1590 c0 -14 2 -19 5 -12 2 6 2 18 0 25 -3 6 -5 1 -5 -13z"/>
<path d="M5171 1584 c0 -11 3 -14 6 -6 3 7 2 16 -1 19 -3 4 -6 -2 -5 -13z"/>
<path d="M2872 1530 c0 -19 2 -27 5 -17 2 9 2 25 0 35 -3 9 -5 1 -5 -18z"/>
<path d="M4770 1553 c0 -17 59 -93 72 -93 7 0 5 5 -4 13 -9 6 -28 30 -42 51
-14 21 -26 34 -26 29z"/>
<path d="M5140 1516 c0 -31 6 -34 13 -6 3 11 1 23 -4 26 -5 3 -9 -6 -9 -20z"/>
<path d="M4856 1515 c-3 -9 -6 -22 -5 -28 0 -7 5 -1 10 12 5 13 8 26 5 28 -2
2 -6 -3 -10 -12z"/>
<path d="M5110 1495 c13 -14 25 -25 27 -25 9 0 -33 49 -41 50 -5 0 1 -11 14
-25z"/>
<path d="M4179 1494 c5 -11 17 -26 25 -33 12 -10 18 -7 32 21 15 30 16 32 1
19 -10 -7 -17 -21 -17 -30 -1 -11 -8 -7 -26 14 -16 18 -22 22 -15 9z"/>
<path d="M3111 1467 c2 -1 15 -11 29 -22 l25 -20 -19 23 c-11 12 -24 22 -29
22 -6 0 -8 -1 -6 -3z"/>
<path d="M2995 1434 l-30 -26 35 23 c45 29 45 29 34 29 -5 0 -22 -12 -39 -26z"/>
<path d="M5748 1433 c7 -3 16 -2 19 1 4 3 -2 6 -13 5 -11 0 -14 -3 -6 -6z"/>
<path d="M5780 1426 c0 -2 7 -7 16 -10 8 -3 12 -2 9 4 -6 10 -25 14 -25 6z"/>
<path d="M5921 1394 c0 -11 3 -14 6 -6 3 7 2 16 -1 19 -3 4 -6 -2 -5 -13z"/>
<path d="M5674 1354 c-18 -14 -18 -14 6 -3 31 14 36 19 24 19 -6 0 -19 -7 -30
-16z"/>
<path d="M5810 1325 c13 -14 26 -25 28 -25 3 0 -5 11 -18 25 -13 14 -26 25
-28 25 -3 0 5 -11 18 -25z"/>
<path d="M5928 1223 c-21 -24 -38 -59 -38 -75 1 -7 8 3 16 22 8 19 22 42 31
52 9 10 14 18 11 18 -3 0 -12 -8 -20 -17z"/>
<path d="M3151 1107 c2 -1 13 -9 24 -17 19 -14 19 -14 6 3 -7 9 -18 17 -24 17
-6 0 -8 -1 -6 -3z"/>
<path d="M3200 1079 c0 -3 7 -21 16 -38 31 -62 -11 -101 -94 -88 -25 5 -32 3
-22 -3 54 -35 149 13 135 67 -6 24 -35 75 -35 62z"/>
<path d="M4933 1053 c9 -2 23 -2 30 0 6 3 -1 5 -18 5 -16 0 -22 -2 -12 -5z"/>
<path d="M4840 1035 c-47 -18 -15 -18 35 0 22 8 31 14 20 14 -11 0 -36 -7 -55
-14z"/>
<path d="M4992 1018 c-17 -18 -37 -47 -44 -65 l-14 -32 -23 44 c-13 24 -30 46
-39 50 -12 4 -10 0 5 -17 12 -13 30 -42 41 -66 l19 -42 12 41 c7 22 28 58 48
80 43 47 40 52 -5 7z"/>
<path d="M4911 834 c0 -11 3 -14 6 -6 3 7 2 16 -1 19 -3 4 -6 -2 -5 -13z"/>
<path d="M2850 1326 c0 -2 8 -10 18 -17 15 -13 16 -12 3 4 -13 16 -21 21 -21
13z"/>
<path d="M2886 1277 c3 -10 9 -15 12 -12 3 3 0 11 -7 18 -10 9 -11 8 -5 -6z"/>
<path d="M2901 1234 c0 -11 3 -14 6 -6 3 7 2 16 -1 19 -3 4 -6 -2 -5 -13z"/>
<path d="M2881 1154 c0 -11 3 -14 6 -6 3 7 2 16 -1 19 -3 4 -6 -2 -5 -13z"/>
<path d="M4392 1145 c-18 -30 -74 -101 -124 -157 -50 -57 -75 -87 -55 -69 l37
35 1 -65 2 -64 7 72 c6 74 10 81 89 173 36 42 37 40 11 -28 -11 -29 -20 -58
-20 -65 1 -6 18 33 39 88 21 55 41 108 46 118 14 32 0 17 -33 -38z"/>
<path d="M4427 1025 c-11 -46 -27 -214 -25 -275 0 -30 3 -41 5 -25 2 17 10 71
19 120 16 92 17 242 1 180z"/>
<path d="M4326 938 c-3 -13 -5 -32 -5 -43 1 -11 5 -2 10 19 10 42 6 62 -5 24z"/>
<path d="M4563 920 c0 -25 2 -35 4 -22 2 12 2 32 0 45 -2 12 -4 2 -4 -23z"/>
<path d="M4144 848 l-29 -33 33 29 c30 28 37 36 29 36 -2 0 -16 -15 -33 -32z"/>
<path d="M4543 815 c-10 -44 -10 -45 8 -29 20 18 25 29 9 19 -6 -4 -7 6 -4 25
10 48 -1 35 -13 -15z"/>
<path d="M4608 834 c-16 -8 -28 -17 -28 -20 0 -2 12 2 28 9 15 8 34 17 42 20
13 5 13 5 0 6 -8 0 -27 -7 -42 -15z"/>
<path d="M4226 804 c21 -15 45 -31 52 -37 9 -7 11 -6 6 7 -3 9 -11 16 -16 16
-5 0 -21 9 -35 20 -14 11 -30 20 -36 20 -5 0 8 -12 29 -26z"/>
<path d="M4099 793 c-13 -16 -12 -17 4 -4 9 7 17 15 17 17 0 8 -8 3 -21 -13z"/>
<path d="M3471 1108 c-1 -9 -4 -24 -8 -34 -4 -11 -3 -15 5 -10 7 4 12 -6 15
-26 3 -30 4 -29 5 7 1 39 -16 100 -17 63z"/>
<path d="M3470 846 c0 -13 55 -115 63 -116 4 0 -7 26 -25 58 -36 64 -38 68
-38 58z"/>
<path d="M5611 994 c-12 -15 -21 -32 -21 -38 0 -6 6 -2 12 9 6 11 18 28 26 38
8 9 12 17 9 17 -3 0 -15 -12 -26 -26z"/>
<path d="M5590 912 c0 -18 43 -42 75 -41 27 1 26 2 -9 9 -22 4 -45 16 -53 26
-7 10 -13 13 -13 6z"/>
<path d="M3744 1006 c14 -21 26 -43 26 -49 0 -6 3 -8 6 -5 7 8 -21 61 -42 78
-9 8 -5 -3 10 -24z"/>
<path d="M3814 985 c-9 -14 -15 -27 -13 -30 3 -2 12 10 21 26 21 36 15 39 -8
4z"/>
<path d="M3780 933 c0 -5 5 -15 10 -23 8 -12 10 -11 10 8 0 12 -4 22 -10 22
-5 0 -10 -3 -10 -7z"/>
<path d="M3821 572 c-2 -24 26 -78 59 -116 18 -20 35 -35 37 -32 3 3 -11 27
-84 142 -7 11 -12 14 -12 6z"/>
<path d="M5308 845 c-14 -24 -45 -58 -69 -74 -23 -17 -38 -31 -32 -31 27 0
146 131 132 144 -2 2 -16 -16 -31 -39z"/>
<path d="M5265 500 c-16 -16 -27 -31 -24 -33 2 -2 17 11 32 30 36 41 31 43 -8
3z"/>
<path d="M5231 504 c0 -11 3 -14 6 -6 3 7 2 16 -1 19 -3 4 -6 -2 -5 -13z"/>
<path d="M5025 410 c-3 -5 -1 -10 4 -10 6 0 11 5 11 10 0 6 -2 10 -4 10 -3 0
-8 -4 -11 -10z"/>
<path d="M3380 546 c0 -3 9 -10 20 -16 11 -6 20 -8 20 -6 0 3 -9 10 -20 16
-11 6 -20 8 -20 6z"/>
<path d="M3435 514 c6 -5 24 -22 41 -37 l31 -28 17 28 17 28 -19 -22 -20 -22
-18 20 c-10 12 -28 25 -39 31 -11 6 -15 6 -10 2z"/>
<path d="M4570 394 c0 -8 5 -12 10 -9 6 4 8 11 5 16 -9 14 -15 11 -15 -7z"/>
<path d="M4387 393 c18 -2 50 -2 70 0 21 2 7 4 -32 4 -38 0 -55 -2 -38 -4z"/>
<path d="M4729 380 c41 -11 76 -18 79 -15 8 8 -45 24 -100 30 -51 5 -50 5 21
-15z"/>
<path d="M4255 380 c4 -6 11 -8 16 -5 14 9 11 15 -7 15 -8 0 -12 -5 -9 -10z"/>
<path d="M4085 359 c-22 -5 -44 -15 -50 -21 -7 -8 -5 -9 9 -4 11 4 46 9 78 13
32 3 58 10 58 14 0 11 -43 10 -95 -2z"/>
<path d="M4840 350 c0 -5 5 -10 10 -10 6 0 10 5 10 10 0 6 -4 10 -10 10 -5 0
-10 -4 -10 -10z"/>
<path d="M4963 315 c27 -15 54 -24 60 -22 12 5 -38 29 -83 41 -14 4 -3 -5 23
-19z"/>
<path d="M3970 320 c0 -5 5 -10 10 -10 6 0 10 5 10 10 0 6 -4 10 -10 10 -5 0
-10 -4 -10 -10z"/>
<path d="M4278 303 c6 -2 18 -2 25 0 6 3 1 5 -13 5 -14 0 -19 -2 -12 -5z"/>
<path d="M4200 278 c0 -13 5 -30 10 -38 8 -11 9 -7 4 14 -5 19 -2 31 7 37 11
7 10 9 -3 9 -12 0 -18 -8 -18 -22z"/>
<path d="M4393 293 c26 -2 67 -2 90 0 23 2 2 3 -48 3 -49 0 -68 -1 -42 -3z"/>
<path d="M3049 5304 c19 -8 41 -19 48 -26 7 -6 13 -8 13 -4 0 10 -63 46 -80
46 -8 -1 0 -7 19 -16z"/>
<path d="M3038 5143 c12 -2 32 -2 45 0 12 2 2 4 -23 4 -25 0 -35 -2 -22 -4z"/>
<path d="M3166 5086 c22 -40 70 -84 80 -73 2 2 -8 10 -22 17 -14 8 -34 31 -45
51 -10 21 -23 40 -28 44 -6 3 1 -14 15 -39z"/>
<path d="M3335 5030 c-16 -17 -16 -20 -3 -15 9 4 19 13 22 21 7 19 2 18 -19
-6z"/>
<path d="M3008 5013 c6 -2 18 -2 25 0 6 3 1 5 -13 5 -14 0 -19 -2 -12 -5z"/>
<path d="M3108 5000 c34 -5 72 -12 82 -15 35 -11 78 -55 90 -90 10 -29 8 -43
-14 -98 -36 -87 -34 -128 4 -161 33 -27 80 -40 126 -33 22 3 19 4 -14 6 -119
4 -162 72 -110 174 60 118 -8 212 -159 222 l-68 4 63 -9z"/>
<path d="M3273 5003 c9 -2 23 -2 30 0 6 3 -1 5 -18 5 -16 0 -22 -2 -12 -5z"/>
<path d="M3455 4924 c-9 -15 -12 -23 -6 -20 11 7 35 46 28 46 -3 0 -12 -12
-22 -26z"/>
<path d="M3101 4897 c2 -1 13 -9 24 -17 19 -14 19 -14 6 3 -7 9 -18 17 -24 17
-6 0 -8 -1 -6 -3z"/>
<path d="M3420 4870 c-6 -11 -8 -20 -6 -20 3 0 10 9 16 20 6 11 8 20 6 20 -3
0 -10 -9 -16 -20z"/>
<path d="M3391 4782 c-1 -47 36 -82 86 -81 l38 2 -43 6 c-52 9 -63 19 -72 68
l-8 38 -1 -33z"/>
<path d="M3480 4803 c0 -6 8 -17 18 -24 16 -13 16 -13 2 6 -8 11 -16 22 -17
24 -2 2 -3 0 -3 -6z"/>
<path d="M3543 4713 c9 -2 23 -2 30 0 6 3 -1 5 -18 5 -16 0 -22 -2 -12 -5z"/>
<path d="M3328 4503 c7 -3 16 -2 19 1 4 3 -2 6 -13 5 -11 0 -14 -3 -6 -6z"/>
</g>
</svg>
