<?xml version="1.0" encoding="UTF-8" standalone="no"?>
<svg
   xmlns:dc="http://purl.org/dc/elements/1.1/"
   xmlns:cc="http://creativecommons.org/ns#"
   xmlns:rdf="http://www.w3.org/1999/02/22-rdf-syntax-ns#"
   xmlns:svg="http://www.w3.org/2000/svg"
   xmlns="http://www.w3.org/2000/svg"
   xmlns:sodipodi="http://sodipodi.sourceforge.net/DTD/sodipodi-0.dtd"
   xmlns:inkscape="http://www.inkscape.org/namespaces/inkscape"
   version="1.0"
   width="850.000000pt"
   height="850.000000pt"
   viewBox="0 0 850.000000 850.000000"
   preserveAspectRatio="xMidYMid meet"
   id="svg2"
   inkscape:version="0.91 r13725"
   sodipodi:docname="Food518_012.svg">
  <defs
     id="defs398" />
  <sodipodi:namedview
     pagecolor="#ffffff"
     bordercolor="#666666"
     borderopacity="1"
     objecttolerance="10"
     gridtolerance="10"
     guidetolerance="10"
     inkscape:pageopacity="0"
     inkscape:pageshadow="2"
     inkscape:window-width="1920"
     inkscape:window-height="981"
     id="namedview396"
     showgrid="false"
     inkscape:zoom="0.88847059"
     inkscape:cx="602.87181"
     inkscape:cy="495.28104"
     inkscape:window-x="0"
     inkscape:window-y="1"
     inkscape:window-maximized="1"
     inkscape:current-layer="svg2" />
  <metadata
     id="metadata4">
Created by potrace 1.14, written by Peter Selinger 2001-2017
<rdf:RDF>
  <cc:Work
     rdf:about="">
    <dc:format>image/svg+xml</dc:format>
    <dc:type
       rdf:resource="http://purl.org/dc/dcmitype/StillImage" />
  </cc:Work>
</rdf:RDF>
</metadata>
  <g
     transform="translate(0.000000,850.000000) scale(0.100000,-0.100000)"
     fill="#000000"
     stroke="none"
     id="g6">
    <path
       d="M0 4250 l0 -4250 4250 0 4250 0 0 4250 0 4250 -4250 0 -4250 0 0 -4250z m5790 4060 c62 -12 131 -44 161 -76 18 -20 20 -27 10 -56 -6 -18 -24 -82 -40 -143 -16 -60 -66 -245 -111 -410 -45 -165 -95 -347 -110 -405 -15 -58 -44 -163 -63 -235 -42 -153 -163 -596 -212 -775 -89 -323 -104 -384 -100 -388 3 -3 38 11 79 32 97 47 138 95 161 184 44 174 73 216 180 267 157 74 307 51 430 -66 71 -67 71 -79 0 -79 -46 0 -60 -4 -80 -25 -14 -13 -25 -34 -25 -47 1 -36 41 -124 102 -225 71 -115 108 -215 108 -290 0 -67 -49 -168 -109 -227 l-39 -38 33 -54 c39 -64 50 -123 35 -188 -11 -50 -43 -120 -66 -147 -13 -14 -10 -23 21 -75 20 -32 40 -77 46 -99 20 -74 -8 -177 -68 -246 -22 -25 -32 -49 -37 -89 -19 -151 -64 -247 -137 -290 -22 -14 -55 -37 -73 -51 -17 -14 -45 -35 -61 -46 -44 -30 -172 -243 -154 -254 8 -5 17 -9 22 -9 4 0 27 -18 51 -40 l43 -40 20 23 c11 12 75 94 143 182 68 88 189 243 269 345 l145 184 -3 67 c-6 156 106 271 264 272 109 0 193 -52 242 -148 78 -151 -24 -330 -205 -360 -42 -7 -46 -12 -278 -308 l-235 -301 43 -13 c24 -8 77 -15 118 -16 85 -2 119 -18 150 -70 34 -56 21 -132 -36 -201 -14 -17 -39 -52 -54 -78 -16 -26 -51 -64 -79 -85 -27 -21 -55 -51 -62 -66 -17 -39 2 -145 33 -187 35 -48 32 -126 -8 -182 -16 -24 -44 -52 -61 -63 -26 -17 -30 -24 -25 -45 13 -49 3 -89 -76 -301 -44 -118 -124 -331 -177 -474 -53 -143 -107 -289 -121 -325 -228 -582 -368 -929 -389 -966 -59 -101 -223 -214 -405 -279 -104 -37 -292 -82 -429 -102 -165 -25 -598 -24 -766 0 -374 56 -679 183 -797 334 -25 33 -109 223 -238 543 -39 96 -83 204 -97 239 l-27 64 -18 -42 c-26 -61 -83 -85 -189 -79 -139 8 -225 70 -272 195 -20 52 -22 77 -21 243 0 207 14 291 93 538 l39 124 -31 85 c-27 73 -42 97 -103 162 -69 74 -72 75 -91 59 -20 -18 -69 -24 -89 -10 -19 12 -35 52 -29 71 3 10 14 26 24 35 18 17 17 20 -35 89 -102 136 -141 288 -111 438 18 93 91 254 150 331 l36 47 -40 39 c-42 43 -49 73 -23 110 24 35 75 30 124 -14 l39 -36 44 32 44 31 -18 66 c-58 208 -36 454 59 653 48 101 141 230 213 294 l51 46 3 173 c2 157 5 182 33 289 72 270 205 475 409 630 240 183 478 252 868 252 220 0 312 -12 476 -64 35 -10 64 -18 65 -17 2 1 14 88 29 192 14 105 39 285 55 400 16 116 50 361 75 545 73 534 103 738 109 748 9 16 122 35 163 28 58 -11 125 -34 150 -54 l23 -17 -35 -255 c-19 -140 -50 -370 -70 -510 -19 -140 -51 -370 -70 -510 -19 -140 -50 -367 -69 -504 l-34 -249 31 -25 c46 -37 147 -140 188 -190 l35 -43 36 133 c21 73 73 266 117 428 44 162 182 669 307 1125 124 457 231 848 237 870 13 53 22 63 60 68 18 2 37 5 43 5 6 1 35 -3 64 -8z m-2200 -52 c0 -27 -41 -58 -74 -58 -24 0 -19 18 10 45 29 27 64 33 64 13z m-1464 -83 c25 -55 9 -67 -35 -25 -41 37 -41 70 -2 70 9 0 25 -19 37 -45z m5574 -133 c0 -27 -10 -33 -32 -21 -15 8 -17 13 -7 25 16 20 39 17 39 -4z m-1206 -18 c12 -32 5 -43 -46 -72 -80 -45 -162 -117 -229 -200 -61 -76 -136 -213 -159 -290 -13 -43 -30 -57 -30 -24 0 77 64 216 154 337 146 194 287 308 310 249z m360 -173 c14 -23 -10 -38 -86 -53 -94 -20 -224 -79 -312 -142 -71 -51 -194 -176 -255 -258 -23 -32 -44 -58 -46 -58 -9 0 25 73 56 121 66 103 259 264 408 339 135 69 214 86 235 51z m-2589 -47 c9 -4 39 -38 66 -77 62 -88 99 -201 104 -312 4 -72 3 -76 -6 -35 -20 89 -42 156 -70 216 -30 64 -102 154 -124 154 -17 0 -26 35 -12 49 13 13 19 13 42 5z m-347 -74 c20 -10 71 -35 113 -54 167 -77 264 -230 284 -449 7 -76 -4 -54 -33 64 -27 112 -54 169 -114 234 -63 69 -102 93 -212 130 -90 30 -114 49 -103 79 8 21 20 20 65 -4z m-2134 -196 c3 -9 6 -41 6 -72 0 -50 -5 -78 -25 -168 -7 -32 -31 -36 -92 -17 -72 23 -134 78 -163 144 -18 43 -20 56 -11 77 10 21 16 24 48 19 20 -4 54 -18 76 -33 32 -21 42 -24 46 -13 7 23 71 79 91 79 10 0 21 -7 24 -16z m6483 -171 c4 -10 -2 -23 -17 -35 -23 -19 -25 -19 -37 -2 -12 16 -10 21 9 36 29 22 37 22 45 1z m-7207 -183 c21 -16 22 -20 8 -25 -9 -4 -31 -5 -50 -3 -25 2 -34 8 -36 26 -3 18 1 22 25 22 15 0 39 -9 53 -20z m5886 -114 c18 -14 18 -16 3 -31 -21 -21 -59 -11 -59 14 0 34 23 40 56 17z m-3378 -44 c3 -19 -1 -22 -30 -22 -33 0 -58 14 -58 33 0 5 9 7 19 4 10 -2 25 -1 32 4 20 13 34 6 37 -19z m-865 -540 c19 -21 13 -32 -18 -32 -24 0 -45 17 -45 37 0 19 44 16 63 -5z m-1179 -142 c47 -18 20 -68 -29 -56 -31 8 -42 31 -25 51 15 18 20 18 54 5z m6594 -15 c9 -8 -20 -35 -37 -35 -9 0 -22 -5 -27 -10 -16 -16 -44 0 -44 24 0 13 3 26 8 30 7 8 91 0 100 -9z m-694 -76 c15 -12 26 -30 26 -44 0 -22 2 -23 60 -18 81 8 110 -11 110 -69 0 -59 -33 -123 -74 -142 -18 -8 -73 -25 -122 -36 -49 -12 -108 -30 -132 -42 -24 -11 -46 -17 -50 -14 -3 4 -8 62 -10 130 -5 137 4 171 60 227 37 36 92 40 132 8z m-5664 -1199 c28 -28 25 -77 -10 -152 -16 -34 -30 -73 -30 -85 0 -37 -29 -44 -75 -18 -22 12 -69 33 -103 46 -99 37 -133 77 -96 113 20 20 64 20 111 1 44 -18 43 -19 43 1 0 26 41 91 64 102 34 17 75 13 96 -8z m5762 -43 c11 -17 -1 -27 -33 -27 -25 0 -29 4 -29 26 0 24 3 25 27 19 15 -3 31 -12 35 -18z m-7214 -329 c2 -11 -6 -18 -28 -23 -38 -8 -45 -3 -30 25 13 25 53 24 58 -2z m6987 -881 c91 -153 155 -333 175 -493 11 -91 7 -124 -15 -124 -23 0 -32 30 -38 120 -6 103 -40 225 -108 380 -28 63 -61 144 -75 180 -21 57 -22 62 -5 40 11 -14 41 -60 66 -103z m-246 -388 c1 -172 -16 -380 -33 -398 -8 -8 -22 -10 -35 -6 -25 8 -26 17 -6 185 9 69 20 181 25 250 5 69 12 134 16 145 16 40 32 -48 33 -176z m-5829 -154 c-24 -25 -56 -26 -72 -2 -11 18 -2 22 48 25 l47 2 -23 -25z m380 -663 c0 -5 -11 -41 -25 -81 -36 -108 -49 -223 -42 -391 11 -251 53 -434 129 -563 49 -84 43 -101 -8 -21 -118 185 -173 431 -161 732 5 136 24 227 63 305 13 25 44 38 44 19z m-1076 -356 c-9 -24 -96 -37 -109 -16 -12 20 7 30 60 30 43 0 53 -3 49 -14z m7141 -106 c7 -12 -33 -49 -52 -50 -16 0 -17 32 -1 48 15 15 45 16 53 2z m-6336 -369 c8 -5 17 -42 22 -97 10 -105 27 -161 80 -266 22 -43 36 -78 33 -78 -4 0 -22 12 -41 26 -45 34 -88 122 -108 224 -9 47 -20 101 -24 121 -8 35 1 79 16 79 4 0 14 -4 22 -9z m5929 -795 c12 -4 22 -14 22 -22 0 -12 -86 -14 -590 -16 -995 -4 -924 -5 -928 14 -3 17 20 18 345 20 191 2 524 5 738 7 215 2 401 1 413 -3z m-4640 -27 c3 -15 -44 -17 -520 -23 -288 -4 -629 -6 -758 -4 -214 3 -235 5 -238 20 -3 17 30 18 540 21 958 4 972 4 976 -14z"
       id="path8"
       style="fill:none" />
    <path
       d="M5698 8273 c-15 -3 -29 -12 -32 -21 -15 -47 -55 -206 -53 -208 6 -5 290 162 290 171 -1 29 -137 67 -205 58z"
       id="path10"
       style="fill:#ccccff" />
    <path
       d="M4674 8000 c-30 -10 -30 -10 -46 -122 -8 -62 -14 -114 -13 -116 1 -2 66 43 144 100 l141 103 -39 18 c-48 21 -145 30 -187 17z"
       id="path12"
       style="fill:#ccccff" />
    <path
       d="M5650 7711 l-155 -88 -61 -221 c-34 -122 -59 -222 -56 -222 9 0 297 162 309 174 6 6 32 90 58 186 25 96 53 194 60 218 8 23 11 42 7 41 -4 0 -77 -40 -162 -88z"
       id="path14"
       style="fill:#ccccff" />
    <path
       d="M4695 7434 l-140 -105 -8 -52 c-24 -165 -56 -402 -54 -403 1 -2 68 46 148 105 l145 108 28 199 c15 109 29 211 32 227 3 15 2 27 -3 26 -4 0 -71 -48 -148 -105z"
       id="path16"
       style="fill:#ccccff" />
    <path
       d="M5415 6845 c-82 -46 -153 -90 -157 -97 -10 -18 -120 -429 -116 -433 3 -4 298 161 310 174 7 6 36 104 102 349 13 50 22 92 18 92 -4 -1 -74 -38 -157 -85z"
       id="path18"
       style="fill:#ccccff" />
    <path
       d="M4572 6545 c-78 -58 -142 -108 -142 -112 0 -5 -9 -74 -21 -155 -12 -81 -19 -154 -16 -162 3 -7 25 -21 50 -31 l44 -17 92 68 c50 37 91 74 91 83 0 9 13 109 28 224 15 114 25 207 22 207 -3 0 -70 -47 -148 -105z"
       id="path20"
       style="fill:#ccccff" />
    <path
       d="M5843 6315 c-68 -19 -123 -47 -169 -87 -41 -36 -48 -52 -68 -148 -24 -115 -74 -184 -175 -238 -29 -16 -49 -32 -45 -35 17 -10 164 44 205 76 65 49 77 74 99 186 12 65 28 117 42 138 29 43 100 91 147 99 20 4 43 10 51 15 24 14 -27 10 -87 -6z"
       id="path22"
       style="fill:#ccff99" />
    <path
       d="M5905 6291 c-106 -26 -171 -109 -194 -246 -7 -39 -22 -88 -34 -110 -27 -48 -94 -100 -150 -117 l-42 -13 68 -3 c78 -3 160 17 201 49 37 29 54 67 77 171 11 49 26 104 33 122 20 46 85 117 123 132 18 8 33 16 33 19 0 7 -80 4 -115 -4z"
       id="path24"
       style="fill:#ccff99" />
    <path
       d="M6005 6258 c-39 -21 -87 -74 -113 -123 -19 -38 -26 -70 -30 -131 -4 -77 -2 -85 37 -177 77 -180 44 -281 -114 -353 -75 -35 -137 -44 -355 -54 -187 -9 -316 -30 -294 -49 9 -7 43 -15 283 -66 l115 -24 99 25 c251 63 416 160 475 276 38 78 32 111 -54 299 -62 134 -78 196 -69 258 8 56 59 111 102 111 22 0 25 2 13 10 -20 13 -70 12 -95 -2z"
       id="path26"
       style="fill:#ffff33" />
    <path
       d="M6040 6200 c-52 -52 -41 -141 37 -302 34 -69 66 -149 72 -177 13 -60 1 -127 -29 -177 -60 -96 -216 -189 -404 -241 -85 -24 -95 -29 -70 -34 56 -12 202 -9 285 6 152 28 182 41 229 91 63 69 85 124 85 219 0 69 -4 89 -32 147 -17 36 -54 102 -83 147 -110 171 -118 262 -26 295 23 8 48 17 56 19 21 6 -33 27 -71 27 -16 0 -38 -9 -49 -20z"
       id="path28"
       style="fill:#ffff33" />
    <path
       d="M3643 6179 c-391 -38 -692 -192 -895 -459 -92 -121 -173 -316 -202 -489 -17 -101 -22 -321 -7 -321 5 0 34 16 66 35 32 19 62 36 67 37 5 2 -6 29 -25 60 -40 67 -52 123 -37 179 12 45 38 64 97 74 59 9 77 33 70 92 -3 27 -9 62 -12 78 -9 40 23 81 75 95 58 16 81 39 91 95 21 116 145 154 315 95 103 -36 159 -9 240 117 40 63 63 88 89 99 70 29 141 14 219 -44 28 -22 62 -42 74 -45 44 -10 146 13 220 50 l74 37 34 -19 c28 -15 44 -37 75 -102 22 -46 50 -89 62 -97 12 -9 59 -18 105 -22 78 -7 89 -11 185 -67 168 -98 197 -136 177 -234 -7 -30 -10 -56 -8 -58 2 -2 13 -2 25 1 18 5 20 11 16 48 -7 56 29 101 93 117 24 6 44 13 44 16 0 12 -97 147 -149 208 -139 162 -337 292 -546 358 -206 65 -418 87 -632 66z"
       id="path30"
       style="fill:#ff9966" />
    <path
       d="M5280 6037 c-30 -18 -99 -57 -154 -87 -110 -61 -104 -53 -142 -206 l-26 -103 22 -36 c22 -35 37 -47 27 -21 -9 23 12 83 39 116 36 42 99 77 169 93 l59 13 33 125 c18 68 32 127 30 131 -1 5 -27 -7 -57 -25z"
       id="path32"
       style="fill:#ccccff" />
    <path
       d="M3588 5925 c-14 -8 -42 -41 -62 -72 -86 -142 -171 -178 -314 -133 -35 11 -88 20 -119 20 -47 0 -59 -4 -83 -28 -16 -16 -33 -47 -39 -70 -16 -56 -55 -100 -96 -108 -35 -6 -61 -28 -66 -54 -2 -8 0 -39 4 -68 13 -87 -25 -142 -106 -157 -49 -9 -60 -26 -60 -88 0 -57 17 -99 56 -135 l25 -24 79 26 c44 13 117 30 164 36 74 10 87 15 107 40 75 95 199 90 190 -7 l-3 -36 55 -13 c30 -7 58 -13 63 -14 4 0 7 22 7 49 0 61 20 110 68 163 81 89 184 131 327 132 116 0 175 -19 278 -87 208 -140 252 -373 102 -535 -58 -62 -128 -106 -187 -117 -21 -4 -38 -9 -38 -12 0 -3 15 -29 32 -59 24 -39 37 -52 48 -48 8 4 29 9 47 12 58 8 68 -59 23 -153 -19 -39 -20 -50 -11 -101 6 -32 11 -88 11 -124 l0 -67 39 -11 c47 -15 95 -15 144 -1 41 11 42 13 22 49 -24 42 -17 95 31 254 26 83 46 158 46 166 -6 57 -21 140 -30 163 -28 66 -8 132 48 159 28 14 34 23 32 43 -5 38 44 82 100 90 46 7 46 7 50 51 3 47 -2 53 -22 29 -19 -23 -85 -19 -110 7 -24 26 -25 49 -4 111 10 31 31 60 60 86 54 47 88 58 120 36 29 -19 33 -75 9 -132 -20 -48 -19 -50 9 -24 13 13 41 29 63 36 36 12 38 16 39 57 1 23 9 82 18 129 22 111 16 125 -76 187 -144 97 -161 104 -254 110 -107 6 -133 25 -180 129 -18 40 -44 79 -58 88 -23 15 -27 15 -75 -10 -68 -34 -174 -58 -237 -53 -43 4 -60 12 -103 48 -44 37 -59 44 -104 47 -34 2 -61 -2 -79 -12z m115 -266 c22 -6 55 -25 75 -44 33 -30 35 -35 25 -58 -29 -63 -129 -73 -235 -25 -63 29 -85 57 -68 88 24 45 117 63 203 39z m518 -12 c47 -31 88 -103 96 -165 5 -47 4 -53 -26 -82 -33 -34 -57 -34 -95 -1 -53 45 -80 216 -40 255 20 21 25 20 65 -7z m-974 -73 c14 -23 15 -32 4 -73 -22 -83 -71 -141 -133 -156 -21 -5 -33 -1 -54 20 -22 22 -25 31 -19 63 10 53 52 116 99 146 51 33 81 33 103 0z"
       id="path34"
       style="fill:#993300" />
    <path
       d="M3570 5628 c-14 -8 -25 -20 -25 -28 0 -26 83 -60 145 -60 67 0 90 12 74 37 -29 47 -144 77 -194 51z"
       id="path36"
       style="fill:#ff9900" />
    <path
       d="M4174 5615 c-10 -24 3 -110 22 -150 31 -67 84 -70 84 -6 0 73 -88 203 -106 156z"
       id="path38"
       style="fill:#ff9900" />
    <path
       d="M3146 5528 c-82 -67 -89 -180 -9 -137 31 17 83 104 83 142 0 37 -25 35 -74 -5z"
       id="path40"
       style="fill:#ff9900" />
    <path
       d="M5815 5884 c-11 -20 -35 -47 -55 -59 -70 -44 -104 -49 -325 -50 -169 -1 -220 -5 -263 -19 -94 -30 -149 -102 -140 -181 l3 -30 95 -9 c407 -36 668 31 710 182 11 40 12 143 2 180 -7 22 -8 21 -27 -14z"
       id="path42"
       style="fill:#ffff33" />
    <path
       d="M5875 5753 c-37 -200 -247 -269 -737 -239 -167 10 -205 5 -248 -30 -24 -21 -30 -34 -30 -65 l0 -39 114 0 c101 0 120 3 171 26 53 25 72 27 254 35 278 11 390 39 467 116 47 46 60 98 45 168 -15 67 -27 76 -36 28z"
       id="path44"
       style="fill:#ffff33" />
    <path
       d="M4840 5349 c-47 -14 -80 -47 -80 -78 0 -40 9 -46 86 -59 40 -6 126 -32 192 -56 158 -59 226 -70 381 -63 136 6 282 36 411 82 82 30 194 84 188 90 -2 3 -42 -3 -89 -11 -156 -30 -372 -10 -699 66 -149 34 -329 47 -390 29z"
       id="path46"
       style="fill:#ccff99" />
    <path
       d="M3687 5339 c-142 -28 -240 -114 -262 -232 -13 -67 -3 -80 82 -115 43 -18 110 -55 148 -82 108 -77 128 -84 203 -72 80 14 140 42 192 93 57 55 90 129 90 201 0 55 -1 57 -52 103 -110 99 -244 134 -401 104z"
       id="path48"
       style="fill:#ff6600" />
    <path
       d="M4555 5288 c-74 -41 -121 -144 -80 -178 25 -21 62 -3 90 44 59 101 54 170 -10 134z"
       id="path50"
       style="fill:#ff9900" />
    <path
       d="M6103 5221 c-20 -85 -65 -162 -133 -232 -77 -78 -145 -118 -266 -158 -151 -49 -255 -63 -522 -68 -134 -3 -241 -8 -238 -11 9 -9 208 -71 286 -89 110 -26 291 -23 395 6 186 52 411 172 480 256 51 63 80 149 72 215 -6 48 -40 130 -55 130 -4 0 -13 -22 -19 -49z"
       id="path52"
       style="fill:#ffff33" />
    <path
       d="M5995 5222 c-58 -37 -208 -97 -306 -121 -122 -30 -209 -41 -334 -40 -124 0 -170 11 -370 84 -164 60 -234 65 -307 22 -27 -15 -55 -41 -63 -57 -18 -35 -20 -99 -2 -104 155 -44 570 -83 757 -71 200 13 342 59 486 155 89 60 192 146 183 154 -2 2 -22 -8 -44 -22z"
       id="path54"
       style="fill:#ccff99" />
    <path
       d="M6065 5230 c-17 -27 -160 -139 -232 -182 -94 -56 -257 -112 -366 -127 -179 -25 -518 -8 -727 35 -144 30 -246 29 -280 -1 -45 -40 -21 -62 91 -85 52 -11 137 -33 189 -50 85 -28 112 -32 260 -37 267 -9 527 17 690 69 179 57 327 187 376 332 15 44 15 71 -1 46z"
       id="path56"
       style="fill:#ffff33" />
    <path
       d="M3141 5118 l-42 -33 53 -6 c56 -6 78 2 78 30 0 19 -19 41 -35 41 -6 0 -30 -15 -54 -32z"
       id="path58"
       style="fill:#ff9900" />
    <path
       d="M4170 5082 c0 -43 -56 -146 -102 -187 -54 -50 -131 -84 -206 -91 l-61 -7 57 -64 c52 -59 60 -64 90 -59 48 7 133 49 175 85 54 48 92 132 92 206 0 61 -21 145 -37 145 -4 0 -8 -13 -8 -28z"
       id="path60"
       style="fill:#ff6600" />
    <path
       d="M3064 5034 c3 -9 6 -31 6 -50 0 -22 6 -37 16 -41 25 -9 33 8 27 60 -5 42 -8 47 -30 47 -19 0 -24 -4 -19 -16z"
       id="path62"
       style="fill:#993300" />
    <path
       d="M3147 4998 c7 -61 7 -62 28 -55 11 5 15 21 15 57 0 46 -2 50 -25 50 -23 0 -24 -2 -18 -52z"
       id="path64"
       style="fill:#993300" />
    <path
       d="M2937 5034 c-8 -9 2 -86 13 -98 19 -20 28 5 18 46 -12 47 -21 62 -31 52z"
       id="path66"
       style="fill:#993300" />
    <path
       d="M2995 5003 c10 -56 13 -63 30 -63 10 0 15 9 15 28 0 47 -11 72 -32 72 -16 0 -18 -5 -13 -37z"
       id="path68"
       style="fill:#993300" />
    <path
       d="M3220 4991 c0 -44 3 -51 20 -51 16 0 20 7 22 35 0 19 1 41 2 48 1 6 -9 13 -21 15 -21 3 -23 0 -23 -47z"
       id="path70"
       style="fill:#993300" />
    <path
       d="M3295 4984 c-5 -34 -3 -49 7 -55 22 -14 25 -11 37 38 10 37 9 48 -1 54 -26 17 -36 8 -43 -37z"
       id="path72"
       style="fill:#993300" />
    <path
       d="M2858 5014 c-7 -6 20 -92 31 -98 4 -3 12 -2 18 2 19 12 -4 102 -26 102 -10 0 -20 -3 -23 -6z"
       id="path74"
       style="fill:#993300" />
    <path
       d="M3372 4963 c-10 -37 -10 -48 0 -55 20 -12 22 -11 39 37 16 43 16 46 -1 55 -26 14 -24 15 -38 -37z"
       id="path76"
       style="fill:#993300" />
    <path
       d="M2793 4993 c-9 -3 -8 -15 4 -46 20 -52 25 -58 41 -48 10 6 11 17 1 54 -11 45 -19 52 -46 40z"
       id="path78"
       style="fill:#993300" />
    <path
       d="M2727 4968 c-15 -12 -14 -17 5 -60 17 -40 23 -46 38 -38 17 9 17 13 2 60 -17 54 -20 56 -45 38z"
       id="path80"
       style="fill:#993300" />
    <path
       d="M3449 4953 c-15 -41 -16 -68 0 -68 15 0 44 72 35 86 -10 17 -24 9 -35 -18z"
       id="path82"
       style="fill:#993300" />
    <path
       d="M2658 4939 c-17 -9 -16 -13 5 -54 13 -27 29 -45 40 -45 9 0 17 4 17 9 0 11 -38 101 -42 101 -2 0 -11 -5 -20 -11z"
       id="path84"
       style="fill:#993300" />
    <path
       d="M3505 4909 c-16 -35 -17 -42 -4 -50 8 -5 17 -9 20 -9 11 0 41 78 35 89 -14 22 -33 10 -51 -30z"
       id="path86"
       style="fill:#993300" />
    <path
       d="M2591 4896 c-8 -10 -6 -23 12 -54 21 -41 40 -52 52 -33 6 11 -35 101 -46 101 -3 0 -12 -6 -18 -14z"
       id="path88"
       style="fill:#993300" />
    <path
       d="M2945 4895 c-163 -36 -270 -92 -389 -204 -111 -105 -191 -239 -227 -379 -26 -103 -26 -262 1 -366 33 -129 151 -333 204 -352 14 -5 48 23 152 127 93 93 137 130 144 123 7 -7 -26 -49 -110 -136 l-120 -126 113 -70 c216 -134 242 -142 468 -142 151 0 174 2 239 24 231 78 429 292 496 533 25 92 30 266 9 359 -68 305 -314 544 -627 608 -93 19 -269 20 -353 1z m340 -236 c-23 -203 -26 -219 -41 -219 -17 0 -17 -3 1 150 7 69 15 143 16 165 3 45 17 71 31 57 6 -6 3 -65 -7 -153z m-220 110 c8 -12 -50 -132 -72 -150 -10 -9 -22 -5 -51 15 -53 37 -106 93 -94 100 14 9 163 44 189 45 12 1 25 -4 28 -10z m85 -35 c23 -60 49 -179 42 -186 -10 -10 -101 22 -150 52 l-34 21 28 37 c36 49 86 102 96 102 5 0 13 -12 18 -26z m360 -56 c26 -56 27 -108 2 -108 -22 0 -162 66 -162 77 0 10 110 72 128 73 7 0 22 -19 32 -42z m-631 -36 c41 -15 76 -32 78 -38 5 -14 -76 -134 -95 -141 -21 -9 -39 20 -62 98 -23 76 -25 109 -7 108 6 0 45 -12 86 -27z m-153 -127 c83 -103 114 -149 106 -157 -7 -7 -27 11 -69 62 -32 40 -86 106 -120 148 -56 68 -68 92 -43 92 5 0 61 -65 126 -145z m968 126 c8 -12 -212 -301 -229 -301 -8 0 -15 3 -15 6 0 12 222 304 231 304 4 0 10 -4 13 -9z m-270 -65 c40 -18 76 -38 80 -44 8 -14 -27 -38 -94 -63 l-50 -19 -11 27 c-17 45 -24 133 -10 133 7 0 45 -15 85 -34z m-347 -18 c35 -24 63 -48 63 -55 0 -7 -15 -19 -32 -26 -57 -23 -171 -48 -180 -39 -8 8 18 97 41 141 17 30 38 26 108 -21z m-444 -95 c4 -2 7 -8 7 -12 0 -12 -110 -131 -121 -131 -26 0 -53 133 -32 154 7 7 131 -2 146 -11z m1142 -24 c8 -12 -39 -111 -60 -129 -13 -11 -25 -5 -72 32 -31 25 -59 50 -60 55 -3 9 97 38 179 52 4 0 10 -4 13 -10z m-1073 -80 c17 -60 17 -65 1 -76 -29 -22 -153 -13 -153 11 0 18 111 137 124 133 6 -2 19 -33 28 -68z m1168 -8 c11 -37 20 -78 20 -90 0 -18 -4 -20 -27 -15 -45 11 -123 53 -123 67 0 18 90 118 101 112 4 -3 18 -36 29 -74z m-555 28 c65 -12 147 -59 180 -104 92 -120 21 -257 -185 -358 -195 -96 -405 -102 -514 -16 -60 47 -95 179 -66 253 36 96 235 215 395 235 62 8 105 6 190 -10z m309 -57 c27 -9 51 -23 54 -30 7 -19 -67 -122 -88 -122 -13 0 -23 21 -42 83 -14 45 -23 86 -21 90 5 8 21 5 97 -21z m134 -51 c51 -27 99 -68 90 -77 -14 -13 -182 -54 -191 -45 -10 10 41 141 54 141 6 0 26 -9 47 -19z m-1220 -69 c83 -16 155 -31 158 -35 3 -3 3 -10 0 -15 -3 -6 -36 -4 -83 5 -43 8 -120 23 -172 32 -52 9 -96 22 -99 29 -6 18 25 15 196 -16z m67 -134 c-11 -38 -60 -113 -75 -116 -20 -3 -124 88 -113 99 11 11 120 37 161 38 30 1 33 -1 27 -21z m1163 -9 c115 -9 152 -15 152 -25 0 -17 -17 -17 -170 -4 -199 16 -220 20 -220 37 0 12 8 14 43 10 23 -4 111 -12 195 -18z m-1069 -67 c12 -43 21 -84 21 -90 0 -20 -31 -14 -98 18 -54 25 -62 32 -53 47 18 34 83 103 96 103 8 0 21 -31 34 -78z m-245 -23 c31 -12 56 -27 56 -33 -1 -21 -75 -121 -90 -121 -10 0 -24 27 -42 80 -14 44 -27 83 -27 88 -2 14 47 7 103 -14z m1240 -8 c6 -10 -90 -151 -103 -151 -26 0 -67 125 -49 148 12 14 144 17 152 3z m-1093 -52 c57 -36 76 -56 63 -69 -13 -13 -173 -55 -180 -47 -13 13 44 147 63 147 4 0 28 -14 54 -31z m1174 -55 c9 -30 15 -58 12 -60 -9 -9 -79 -24 -113 -24 -51 0 -57 19 -21 72 18 25 43 59 56 74 22 25 25 26 36 11 7 -10 20 -42 30 -73z m-204 -100 c94 -105 119 -138 110 -147 -10 -9 -18 -5 -39 19 -15 16 -70 78 -122 138 -103 116 -110 126 -87 126 9 0 70 -61 138 -136z m-196 24 c-15 -49 -65 -136 -82 -142 -19 -8 -155 106 -142 118 10 10 157 45 192 45 35 1 38 -1 32 -21z m99 -75 c32 -104 35 -127 15 -131 -21 -4 -122 34 -150 56 l-21 18 53 67 c30 37 59 67 66 67 7 0 23 -35 37 -77z m-538 31 c9 -21 16 -55 17 -78 2 -36 -1 -41 -18 -38 -37 6 -155 65 -155 77 0 11 113 74 133 75 4 0 15 -16 23 -36z m118 20 c-3 -27 -79 -340 -83 -346 -4 -4 -11 -4 -18 0 -8 5 0 52 28 172 22 91 42 171 45 178 4 15 30 10 28 -4z m135 -90 c50 -18 71 -31 71 -43 0 -21 -49 -99 -79 -126 -23 -20 -23 -20 -37 0 -19 25 -65 175 -58 187 8 13 28 10 103 -18z m-327 -45 c37 -18 68 -38 68 -44 0 -26 -125 -84 -143 -66 -11 11 -37 128 -29 136 11 11 37 4 104 -26z m545 -53 c50 -36 53 -50 16 -64 -65 -26 -178 -51 -187 -42 -11 11 28 125 51 152 14 16 18 16 47 1 17 -8 50 -29 73 -47z"
       id="path90"
       style="fill:#663300" />
    <path
       d="M2950 4733 l-65 -15 40 -34 c22 -19 45 -32 50 -31 10 4 55 76 55 90 0 9 0 9 -80 -10z"
       id="path92"
       style="fill:#993300" />
    <path
       d="M3085 4670 c-15 -22 -26 -42 -24 -44 13 -11 92 -47 96 -43 7 7 -28 127 -37 127 -4 0 -20 -18 -35 -40z"
       id="path94"
       style="fill:#993300" />
    <path
       d="M3425 4663 l-30 -16 44 -19 c24 -10 47 -17 51 -16 11 5 -10 68 -23 68 -7 -1 -25 -8 -42 -17z"
       id="path96"
       style="fill:#993300" />
    <path
       d="M2829 4578 c10 -29 20 -59 22 -67 3 -9 16 1 37 29 18 24 32 47 32 51 0 7 -84 39 -101 39 -4 0 0 -24 10 -52z"
       id="path98"
       style="fill:#993300" />
    <path
       d="M3370 4529 c12 -42 12 -42 54 -22 l37 17 -33 18 c-18 9 -41 17 -50 18 -14 0 -15 -5 -8 -31z"
       id="path100"
       style="fill:#993300" />
    <path
       d="M2981 4524 c-26 -58 -26 -57 7 -50 81 20 103 28 100 37 -2 5 -22 21 -45 35 l-42 24 -20 -46z"
       id="path102"
       style="fill:#993300" />
    <path
       d="M2514 4408 c3 -17 8 -33 10 -36 7 -7 24 7 46 38 l21 30 -42 0 c-41 0 -41 0 -35 -32z"
       id="path104"
       style="fill:#993300" />
    <path
       d="M3673 4408 c-24 -5 -43 -13 -43 -18 0 -10 69 -65 73 -59 8 11 47 81 47 85 0 6 -29 3 -77 -8z"
       id="path106"
       style="fill:#993300" />
    <path
       d="M2628 4346 c-16 -19 -28 -37 -28 -40 0 -4 18 -6 40 -6 42 0 47 8 34 58 -8 30 -14 28 -46 -12z"
       id="path108"
       style="fill:#993300" />
    <path
       d="M3795 4354 c-15 -20 -24 -39 -19 -44 17 -17 84 -41 84 -30 0 22 -23 100 -30 105 -4 3 -20 -11 -35 -31z"
       id="path110"
       style="fill:#993300" />
    <path
       d="M3035 4336 c-128 -41 -232 -110 -265 -176 -35 -68 -21 -161 33 -218 88 -95 302 -96 495 -2 94 45 153 95 181 154 41 84 21 153 -60 208 -94 63 -253 77 -384 34z m383 -88 c18 -18 15 -33 -14 -68 -32 -38 -25 -48 22 -31 44 16 57 6 25 -20 -40 -32 -82 -22 -105 25 -17 36 -18 40 -3 72 18 36 51 46 75 22z m-93 -83 c13 -38 21 -73 18 -77 -11 -19 -23 -3 -44 60 -12 37 -24 73 -27 81 -3 8 1 12 12 10 11 -3 25 -29 41 -74z m-75 37 c0 -10 -5 -23 -12 -30 -9 -9 -4 -20 25 -47 20 -19 37 -39 37 -45 0 -18 -26 -10 -50 15 -32 34 -42 31 -34 -10 5 -28 3 -35 -9 -35 -10 0 -23 22 -36 62 -25 73 -26 98 -6 98 8 0 15 -9 15 -19 0 -32 15 -32 34 0 19 33 36 38 36 11z m-129 -41 c22 -22 29 -39 29 -68 0 -64 -42 -83 -93 -43 l-26 20 -3 -26 c-6 -55 -75 -58 -103 -4 -42 81 16 159 75 100 16 -16 20 -17 20 -5 0 20 36 55 56 55 8 0 29 -13 45 -29z m-236 -40 c0 -8 -11 -15 -23 -16 -42 -3 -55 -52 -26 -93 16 -23 48 -29 59 -12 8 13 45 13 45 0 0 -12 -53 -40 -75 -40 -9 0 -30 13 -46 29 -38 39 -40 91 -4 127 27 27 70 30 70 5z"
       id="path112"
       style="fill:#663300" />
    <path
       d="M3377 4223 c-4 -3 -7 -13 -7 -21 0 -12 3 -12 15 -2 8 7 15 16 15 21 0 11 -14 12 -23 2z"
       id="path114" />
    <path
       d="M3061 4146 c-18 -21 11 -86 38 -86 26 0 29 44 5 78 -18 26 -27 27 -43 8z"
       id="path116"
       style="fill:#993300" />
    <path
       d="M2947 4123 c-23 -23 8 -93 41 -93 19 0 14 65 -6 83 -20 19 -26 20 -35 10z"
       id="path118"
       style="fill:#993300" />
    <path
       d="M3565 4282 c4 -20 12 -48 19 -61 l13 -24 27 39 c14 21 26 42 26 45 0 4 -21 14 -46 23 l-46 16 7 -38z"
       id="path120"
       style="fill:#993300" />
    <path
       d="M3702 4221 c-15 -48 -15 -51 1 -46 6 2 31 9 55 15 23 6 42 15 42 20 0 9 -62 50 -77 50 -5 0 -15 -17 -21 -39z"
       id="path122"
       style="fill:#993300" />
    <path
       d="M2512 4056 c-29 -6 -53 -15 -53 -19 0 -10 56 -57 68 -57 10 0 49 78 42 83 -2 2 -28 -1 -57 -7z"
       id="path124"
       style="fill:#993300" />
    <path
       d="M2623 4000 c-13 -15 -23 -33 -23 -38 0 -11 80 -46 87 -38 8 7 -21 99 -32 102 -6 2 -20 -10 -32 -26z"
       id="path126"
       style="fill:#993300" />
    <path
       d="M2390 3946 c0 -18 21 -79 30 -90 5 -4 21 10 36 33 15 23 25 43 23 45 -6 5 -71 26 -80 26 -5 0 -9 -6 -9 -14z"
       id="path128"
       style="fill:#993300" />
    <path
       d="M3570 3926 c0 -8 5 -27 10 -41 12 -31 24 -25 53 24 l18 31 -40 0 c-29 0 -41 -4 -41 -14z"
       id="path130"
       style="fill:#993300" />
    <path
       d="M2531 3868 c-10 -24 -17 -45 -15 -46 5 -6 114 28 114 36 0 4 -18 17 -40 30 l-40 23 -19 -43z"
       id="path132"
       style="fill:#993300" />
    <path
       d="M3693 3845 c-13 -19 -23 -37 -23 -39 0 -5 72 4 78 10 9 7 -11 64 -21 64 -7 0 -22 -16 -34 -35z"
       id="path134"
       style="fill:#993300" />
    <path
       d="M3295 3763 c-11 -2 -38 -9 -59 -15 l-40 -10 40 -34 c21 -18 42 -33 46 -34 4 0 19 23 33 50 26 50 24 53 -20 43z"
       id="path136"
       style="fill:#993300" />
    <path
       d="M3390 3690 l-32 -40 53 -25 c29 -13 54 -23 56 -22 5 6 -30 127 -37 127 -5 0 -23 -18 -40 -40z"
       id="path138"
       style="fill:#993300" />
    <path
       d="M2856 3713 l-30 -16 45 -22 c24 -13 46 -21 48 -20 8 9 -11 75 -22 75 -7 -1 -25 -8 -41 -17z"
       id="path140"
       style="fill:#993300" />
    <path
       d="M3139 3594 c9 -32 21 -59 27 -61 5 -2 22 16 37 39 l28 43 -29 12 c-16 7 -41 15 -55 18 l-25 7 17 -58z"
       id="path142"
       style="fill:#993300" />
    <path
       d="M2795 3578 c9 -43 8 -42 49 -28 45 15 45 26 0 45 -52 21 -57 19 -49 -17z"
       id="path144"
       style="fill:#993300" />
    <path
       d="M3289 3545 c-11 -26 -19 -48 -17 -50 8 -8 129 28 126 37 -2 6 -23 21 -46 35 l-42 25 -21 -47z"
       id="path146"
       style="fill:#993300" />
    <path
       d="M3573 4875 c-17 -36 -8 -65 16 -50 17 10 43 64 36 75 -13 20 -36 9 -52 -25z"
       id="path148"
       style="fill:#993300" />
    <path
       d="M2526 4855 c-18 -13 -18 -15 2 -43 32 -44 51 -57 64 -44 12 12 3 36 -30 79 -15 19 -19 20 -36 8z"
       id="path150"
       style="fill:#993300" />
    <path
       d="M3635 4836 c-16 -29 -17 -38 -6 -48 10 -11 17 -7 37 17 26 33 28 58 3 63 -9 2 -23 -11 -34 -32z"
       id="path152"
       style="fill:#993300" />
    <path
       d="M4380 4838 c-22 -23 -27 -79 -11 -120 11 -30 55 -44 186 -58 56 -6 179 -33 280 -60 230 -63 328 -80 496 -87 292 -12 489 55 642 216 58 61 95 111 84 111 -2 0 -39 -20 -82 -45 -198 -113 -357 -164 -536 -172 -157 -8 -209 3 -519 108 -392 133 -496 154 -540 107z"
       id="path154"
       style="fill:#ccff99" />
    <path
       d="M6086 4831 c-28 -53 -117 -151 -178 -197 -119 -88 -261 -136 -438 -150 -160 -12 -445 31 -666 100 -68 21 -158 40 -240 50 -73 9 -140 19 -150 23 -16 6 -16 3 3 -23 74 -103 265 -191 563 -259 173 -40 269 -48 470 -42 161 5 200 9 306 36 151 37 296 95 341 134 55 48 77 101 78 182 0 56 -5 80 -25 119 -14 27 -31 51 -37 53 -7 3 -19 -9 -27 -26z"
       id="path156"
       style="fill:#ccff99" />
    <path
       d="M3696 4794 l-26 -39 20 -20 20 -20 32 33 33 32 -27 26 -26 26 -26 -38z"
       id="path158"
       style="fill:#993300" />
    <path
       d="M2461 4797 c-8 -10 -2 -22 28 -51 34 -33 39 -35 51 -21 11 14 8 21 -20 50 -38 39 -43 41 -59 22z"
       id="path160"
       style="fill:#993300" />
    <path
       d="M2407 4753 c-13 -12 -7 -21 34 -54 30 -23 43 -29 52 -20 8 8 2 20 -23 46 -33 34 -50 42 -63 28z"
       id="path162"
       style="fill:#993300" />
    <path
       d="M3764 4725 c-38 -50 -19 -68 30 -30 35 26 36 29 20 46 -10 11 -18 19 -20 19 -2 0 -15 -16 -30 -35z"
       id="path164"
       style="fill:#993300" />
    <path
       d="M2360 4695 c-8 -9 -9 -19 -4 -23 5 -4 23 -20 41 -36 27 -25 35 -27 48 -16 14 12 12 17 -22 52 -42 43 -45 44 -63 23z"
       id="path166"
       style="fill:#993300" />
    <path
       d="M6540 4699 c-99 -40 -163 -166 -130 -254 11 -30 71 51 -658 -885 -118 -151 -233 -297 -255 -323 -21 -27 -38 -50 -36 -51 2 -2 33 1 69 6 82 12 145 5 171 -18 11 -10 23 -14 28 -8 4 5 145 185 311 399 631 811 560 725 603 725 110 0 207 98 207 210 0 84 -55 162 -137 197 -37 15 -136 16 -173 2z"
       id="path168"
       style="fill:#99cccc" />
    <path
       d="M3813 4670 c-26 -23 -29 -31 -18 -40 11 -9 21 -6 44 11 17 13 31 24 31 25 0 10 -13 34 -19 34 -3 0 -20 -14 -38 -30z"
       id="path170"
       style="fill:#993300" />
    <path
       d="M2319 4640 c-1 -5 -2 -14 -3 -19 -1 -5 18 -23 42 -41 37 -27 43 -28 49 -13 5 12 -5 26 -32 50 -40 34 -54 40 -56 23z"
       id="path172"
       style="fill:#993300" />
    <path
       d="M3858 4615 c-51 -44 -27 -70 27 -29 28 21 33 29 24 40 -15 18 -19 18 -51 -11z"
       id="path174"
       style="fill:#993300" />
    <path
       d="M4385 4598 c59 -199 440 -433 900 -555 105 -27 156 -35 267 -40 149 -6 205 4 275 51 l34 23 -143 0 c-216 0 -357 26 -604 109 -309 104 -547 239 -677 384 -50 55 -62 61 -52 28z"
       id="path176"
       style="fill:#993300" />
    <path
       d="M2282 4578 c-7 -7 -12 -17 -12 -23 0 -14 88 -57 101 -50 16 11 10 21 -34 53 -33 23 -47 28 -55 20z"
       id="path178"
       style="fill:#993300" />
    <path
       d="M3892 4552 c-28 -23 -31 -30 -20 -40 11 -8 21 -7 43 8 17 11 30 24 29 30 -4 38 -8 39 -52 2z"
       id="path180"
       style="fill:#993300" />
    <path
       d="M2240 4494 c-15 -37 -14 -38 37 -57 45 -17 48 -17 60 0 7 9 13 20 13 24 0 6 -86 59 -97 59 -2 0 -8 -12 -13 -26z"
       id="path182"
       style="fill:#993300" />
    <path
       d="M3928 4494 c-53 -28 -29 -65 24 -38 42 21 40 18 32 38 -8 20 -21 20 -56 0z"
       id="path184"
       style="fill:#993300" />
    <path
       d="M4042 4498 c-23 -11 -23 -17 0 -77 12 -34 29 -14 35 43 6 48 2 52 -35 34z"
       id="path186"
       style="fill:#ff6600" />
    <path
       d="M4390 4508 c0 -3 -18 -64 -40 -134 -22 -71 -40 -148 -40 -172 0 -38 22 -112 34 -112 2 0 21 51 42 113 20 61 46 132 56 157 11 24 17 53 13 65 -5 19 -65 96 -65 83z"
       id="path188"
       style="fill:#cc3300" />
    <path
       d="M4605 4455 c136 -111 593 -293 775 -309 166 -15 352 33 491 126 71 48 169 140 169 160 0 3 -42 -10 -92 -30 -256 -96 -525 -122 -828 -81 -130 18 -397 94 -494 140 -52 25 -57 23 -21 -6z"
       id="path190"
       style="fill:#ffcc33" />
    <path
       d="M3953 4425 c-23 -10 -31 -19 -27 -29 7 -19 20 -20 61 -5 24 8 30 15 26 30 -6 22 -17 23 -60 4z"
       id="path192"
       style="fill:#993300" />
    <path
       d="M2210 4409 c-9 -16 -7 -21 15 -29 39 -15 87 -17 92 -4 2 6 -19 20 -47 32 -49 21 -50 21 -60 1z"
       id="path194"
       style="fill:#993300" />
    <path
       d="M5990 4340 c-42 -41 -105 -92 -140 -113 -72 -41 -215 -91 -300 -103 l-55 -8 40 -7 c59 -11 274 -11 336 1 68 13 116 51 151 120 23 47 57 177 47 183 -2 1 -38 -32 -79 -73z"
       id="path196"
       style="fill:#ffff33" />
    <path
       d="M4426 4239 c-31 -89 -56 -166 -56 -173 0 -6 24 -35 53 -64 l53 -53 27 68 c66 169 107 275 107 277 0 1 -29 25 -64 54 l-64 51 -56 -160z"
       id="path198"
       style="fill:#cc3300" />
    <path
       d="M3983 4357 c-18 -7 -33 -15 -33 -19 0 -5 0 -13 0 -18 0 -7 14 -8 38 -4 49 9 51 11 45 34 -6 23 -6 23 -50 7z"
       id="path200"
       style="fill:#993300" />
    <path
       d="M2187 4336 c-8 -20 93 -51 105 -33 13 21 9 24 -36 36 -57 14 -63 14 -69 -3z"
       id="path202"
       style="fill:#993300" />
    <path
       d="M3998 4287 c-46 -11 -52 -37 -9 -37 39 0 61 9 61 25 0 20 -11 23 -52 12z"
       id="path204"
       style="fill:#993300" />
    <path
       d="M2175 4270 c-9 -27 -8 -28 49 -39 37 -7 49 -6 53 5 7 19 -3 31 -34 37 -16 3 -35 8 -45 12 -11 4 -18 0 -23 -15z"
       id="path206"
       style="fill:#993300" />
    <path
       d="M4602 4203 c-17 -43 -44 -114 -61 -158 -16 -44 -32 -88 -36 -97 -5 -13 10 -28 64 -64 39 -26 74 -44 77 -41 11 11 144 327 144 342 0 9 -8 19 -17 22 -10 4 -44 22 -75 40 -31 18 -58 33 -61 33 -2 0 -18 -35 -35 -77z"
       id="path208"
       style="fill:#cc3300" />
    <path
       d="M4010 4221 c-25 -4 -35 -11 -35 -23 0 -10 3 -18 8 -18 4 0 23 0 42 0 28 0 35 4 35 19 0 25 -7 28 -50 22z"
       id="path210"
       style="fill:#993300" />
    <path
       d="M2170 4192 c0 -14 9 -21 31 -26 50 -10 69 -7 69 9 0 17 -7 20 -62 30 -33 5 -38 3 -38 -13z"
       id="path212"
       style="fill:#993300" />
    <path
       d="M4811 4158 c-5 -13 -39 -92 -75 -177 -36 -85 -65 -155 -64 -157 8 -8 154 -74 163 -74 11 1 146 313 148 344 2 14 -16 26 -76 52 -44 19 -81 34 -83 34 -3 0 -8 -10 -13 -22z"
       id="path214"
       style="fill:#cc3300" />
    <path
       d="M3977 4136 c-8 -20 2 -26 45 -26 31 0 38 3 38 20 0 17 -7 20 -39 20 -24 0 -41 -5 -44 -14z"
       id="path216"
       style="fill:#993300" />
    <path
       d="M2164 4127 c-10 -27 5 -37 57 -37 42 0 49 3 49 20 0 15 -7 20 -27 20 -16 0 -38 3 -50 6 -16 4 -25 1 -29 -9z"
       id="path218"
       style="fill:#993300" />
    <path
       d="M5004 4064 c-9 -22 -25 -59 -36 -84 -45 -100 -97 -234 -93 -240 5 -9 174 -55 179 -49 6 7 104 232 125 288 11 30 18 57 16 60 -3 2 -36 14 -73 26 -37 13 -75 26 -85 30 -13 6 -20 -1 -33 -31z"
       id="path220"
       style="fill:#cc3300" />
    <path
       d="M3973 4065 c-7 -21 -5 -23 42 -27 35 -3 40 0 43 20 3 20 -1 22 -38 22 -27 0 -43 -5 -47 -15z"
       id="path222"
       style="fill:#993300" />
    <path
       d="M2170 4034 c0 -24 1 -25 48 -18 56 8 62 11 62 30 0 10 -14 14 -55 14 -52 0 -55 -1 -55 -26z"
       id="path224"
       style="fill:#993300" />
    <path
       d="M4085 4011 c-3 -25 -8 -53 -11 -62 -4 -14 13 -17 133 -22 76 -2 146 -8 155 -12 15 -6 17 -1 11 47 -8 65 -30 101 -58 92 -40 -12 -152 -16 -187 -6 l-36 10 -7 -47z"
       id="path226"
       style="fill:#ff9966" />
    <path
       d="M5181 3917 c-24 -61 -57 -138 -73 -171 -16 -32 -27 -60 -25 -62 5 -5 159 -35 162 -32 23 27 148 328 140 336 -5 5 -136 40 -155 42 -3 0 -25 -51 -49 -113z"
       id="path228"
       style="fill:#cc3300" />
    <path
       d="M3963 3995 c-7 -20 -6 -21 45 -29 37 -5 42 -4 42 13 0 30 -76 44 -87 16z"
       id="path230"
       style="fill:#993300" />
    <path
       d="M2198 3983 c-10 -2 -18 -13 -18 -24 0 -17 5 -19 43 -13 59 8 67 11 67 29 0 11 -10 15 -37 14 -21 -1 -46 -3 -55 -6z"
       id="path232"
       style="fill:#993300" />
    <path
       d="M5409 3962 c-6 -15 -21 -54 -34 -87 -13 -33 -39 -95 -59 -138 -20 -43 -36 -80 -36 -83 0 -2 34 -4 75 -4 l75 0 80 159 79 160 -57 6 c-31 3 -70 8 -85 10 -23 4 -29 0 -38 -23z"
       id="path234"
       style="fill:#cc3300" />
    <path
       d="M5675 3978 l-60 -10 -70 -145 c-87 -180 -83 -167 -49 -159 62 16 94 52 212 244 28 45 46 81 39 81 -7 -1 -39 -6 -72 -11z"
       id="path236"
       style="fill:#cc3300" />
    <path
       d="M4396 3953 c18 -78 106 -159 258 -235 240 -120 493 -189 623 -168 53 9 123 49 123 71 0 5 -39 9 -89 9 -275 0 -671 141 -860 307 -27 24 -52 43 -55 43 -4 0 -4 -12 0 -27z"
       id="path238"
       style="fill:#ff6600" />
    <path
       d="M3949 3934 c-15 -18 -14 -19 38 -31 35 -9 43 -8 48 5 7 19 4 22 -39 32 -26 6 -39 4 -47 -6z"
       id="path240"
       style="fill:#993300" />
    <path
       d="M2241 3919 c-52 -10 -53 -11 -45 -33 5 -13 14 -16 38 -10 53 11 78 24 74 36 -6 16 -16 17 -67 7z"
       id="path242"
       style="fill:#993300" />
    <path
       d="M3930 3871 c0 -6 -1 -14 -2 -17 -2 -4 16 -12 39 -19 39 -12 43 -11 49 7 7 24 8 24 -43 33 -29 4 -43 3 -43 -4z"
       id="path244"
       style="fill:#993300" />
    <path
       d="M4027 3789 c-20 -52 -59 -128 -86 -170 -54 -85 -160 -202 -221 -244 -48 -33 -51 -47 -8 -35 35 11 67 -5 48 -24 -21 -21 -238 -19 -390 4 -112 17 -165 21 -232 15 -55 -4 -109 -2 -145 5 -77 16 -202 75 -302 143 -45 31 -98 61 -118 68 -48 15 -138 6 -198 -20 -51 -23 -80 -16 -56 13 10 12 6 23 -22 63 -19 26 -47 73 -62 103 -15 30 -29 57 -31 59 -1 1 -19 -10 -39 -25 l-37 -28 46 -43 c56 -52 62 -89 19 -123 -36 -28 -67 -20 -120 33 -24 22 -44 39 -46 36 -147 -192 -200 -366 -163 -536 17 -82 35 -126 82 -198 66 -100 57 -98 123 -27 47 51 63 62 89 62 19 0 40 -8 52 -20 35 -35 26 -66 -41 -135 l-61 -64 74 -81 c41 -44 89 -106 108 -137 46 -75 45 -123 -3 -270 -20 -62 -51 -181 -68 -265 -27 -127 -32 -177 -32 -293 -1 -120 2 -148 21 -199 28 -77 62 -119 117 -146 38 -19 59 -21 131 -19 79 4 87 6 110 32 22 25 24 37 24 120 0 77 4 99 23 131 32 57 91 85 205 96 142 15 197 52 228 157 30 101 8 180 -102 363 -58 97 -69 121 -72 170 -3 43 1 69 17 105 l21 48 -40 34 c-52 45 -70 81 -70 141 0 134 136 210 264 146 74 -38 116 -98 116 -168 l0 -44 43 -7 c77 -13 210 -66 417 -165 113 -54 226 -105 251 -114 118 -38 222 -29 404 36 61 22 155 55 210 75 134 48 222 53 412 24 78 -12 161 -21 185 -19 41 3 43 4 41 33 -1 17 18 79 45 145 40 96 52 116 75 124 38 14 79 -3 91 -37 8 -22 4 -42 -21 -102 -17 -41 -29 -75 -26 -75 2 0 24 14 49 31 62 42 106 59 157 59 52 0 88 -18 186 -92 85 -65 142 -84 200 -68 57 15 116 59 162 120 l41 55 -36 7 c-52 11 -90 32 -120 68 -39 47 -37 122 5 179 41 57 122 95 188 89 l47 -5 -4 53 c-6 73 2 97 45 136 64 56 113 108 113 118 0 6 -16 10 -36 10 -42 0 -68 12 -111 53 -53 49 -55 121 -8 191 l23 34 -21 6 c-56 15 -73 7 -119 -51 -24 -32 -109 -140 -187 -240 l-142 -182 10 -38 c15 -53 14 -63 -8 -63 -14 0 -20 10 -24 45 -10 69 -31 103 -70 110 -17 4 -86 -3 -152 -14 -210 -34 -227 -34 -189 3 8 9 30 16 48 16 38 0 48 10 164 160 44 58 117 152 162 209 l82 103 -38 39 c-20 21 -50 42 -65 48 -24 8 -31 5 -60 -26 -41 -42 -79 -63 -114 -63 -17 0 -39 -14 -66 -41 -21 -22 -54 -46 -72 -54 -27 -11 -41 -31 -85 -118 -29 -58 -52 -108 -52 -111 0 -10 45 -6 93 8 39 12 48 12 58 0 16 -20 -29 -36 -121 -41 -100 -7 -162 17 -283 108 -135 101 -167 106 -277 38 -48 -29 -64 -34 -120 -34 -69 0 -110 15 -203 77 -59 39 -119 41 -192 9 -33 -15 -52 -18 -59 -11 -15 15 2 27 70 51 39 14 73 19 101 16 l43 -5 11 42 c10 40 51 181 70 240 5 16 7 31 5 33 -12 13 -95 24 -211 30 l-131 6 -37 -94z m298 35 c24 -10 44 -55 35 -80 -11 -27 -41 -48 -163 -114 -99 -53 -99 -53 -133 -37 -37 18 -52 54 -35 85 12 22 236 151 263 152 9 0 24 -3 33 -6z m-250 -410 c104 -43 155 -79 155 -108 0 -27 -41 -66 -69 -66 -38 0 -252 94 -273 120 -23 29 -23 41 3 74 29 36 55 34 184 -20z m-1776 -62 c59 -43 77 -132 41 -202 -46 -89 -177 -103 -247 -26 -26 28 -33 44 -33 76 0 54 31 113 75 140 69 43 116 46 164 12z m511 -24 c84 -43 114 -132 71 -216 -37 -73 -87 -102 -174 -102 -90 0 -177 70 -177 142 0 62 46 135 105 165 73 38 116 41 175 11z m1973 -40 c22 -26 22 -61 -2 -82 -19 -18 -225 -76 -274 -78 -54 -2 -87 61 -54 106 15 20 260 87 292 79 11 -3 28 -14 38 -25z m-1518 -60 c111 -68 120 -75 123 -106 4 -43 -21 -72 -61 -72 -18 0 -64 20 -116 51 -131 78 -151 95 -151 129 0 30 39 70 69 70 9 0 70 -33 136 -72z m2895 42 c28 -28 26 -74 -3 -97 -13 -10 -76 -36 -140 -58 -129 -44 -163 -43 -181 7 -19 53 1 71 136 121 139 52 160 55 188 27z m-1085 -91 c54 -14 110 -54 136 -96 49 -79 12 -201 -74 -242 -52 -25 -67 -26 -135 -6 -147 44 -200 196 -104 299 49 52 101 66 177 45z m-1360 -30 c99 -32 137 -146 78 -236 -51 -79 -149 -105 -238 -64 -45 20 -92 70 -101 107 -10 41 6 112 33 144 54 65 128 80 228 49z m581 2 c106 -48 122 -163 35 -250 -66 -66 -164 -65 -229 2 -61 63 -62 143 -1 212 49 55 123 69 195 36z m1319 -209 c120 -81 186 -136 191 -158 13 -51 -51 -98 -99 -73 -45 24 -206 149 -216 168 -15 27 -14 35 10 65 27 34 63 34 114 -2z m-872 -113 c26 -14 186 -145 205 -167 31 -40 -3 -102 -57 -102 -22 0 -56 22 -135 87 -95 78 -106 90 -106 119 0 23 8 39 26 53 31 24 37 25 67 10z m-2069 -40 c35 -27 35 -70 1 -98 -26 -19 -222 -71 -272 -71 -53 0 -82 60 -50 103 10 15 231 83 278 86 9 1 28 -8 43 -20z m1787 -2 c51 -33 82 -100 75 -161 -14 -124 -136 -190 -253 -136 -132 59 -103 239 49 305 48 21 90 18 129 -8z m-541 -57 c32 -17 43 -48 30 -81 -14 -34 -34 -40 -195 -64 -105 -15 -110 -15 -135 3 -33 25 -38 72 -11 96 13 12 58 24 133 36 138 22 154 23 178 10z m-1148 -378 c76 -76 98 -104 98 -125 0 -37 -33 -67 -72 -67 -27 0 -47 15 -130 98 -76 76 -98 104 -98 125 0 37 33 67 72 67 27 0 47 -15 130 -98z m-187 -141 c47 -21 79 -54 95 -95 21 -57 -18 -151 -79 -192 -99 -65 -266 -1 -286 110 -8 40 8 105 35 138 45 57 156 76 235 39z m-191 -420 c8 -9 25 -74 38 -150 l23 -133 -28 -24 c-35 -30 -59 -30 -91 -1 -21 19 -28 41 -45 149 -23 140 -20 160 29 176 31 11 54 5 74 -17z"
       id="path246"
       style="fill:#99ffff" />
    <path
       d="M4175 3746 c-118 -69 -136 -86 -119 -113 20 -32 51 -25 163 38 120 68 139 90 101 121 -12 10 -25 18 -29 17 -3 0 -55 -29 -116 -63z m115 34 c0 -13 -87 -63 -102 -58 -7 3 12 19 42 36 63 36 60 35 60 22z"
       id="path248"
       style="fill:#ccff99" />
    <path
       d="M3917 3422 c-22 -24 -21 -35 1 -54 30 -26 237 -109 255 -103 19 8 30 36 22 57 -5 13 -231 118 -254 118 -4 0 -15 -8 -24 -18z m92 -24 c29 -12 48 -25 43 -30 -9 -9 -111 32 -112 45 0 11 14 9 69 -15z"
       id="path250"
       style="fill:#ccff99" />
    <path
       d="M2165 3331 c-52 -32 -77 -67 -82 -115 -5 -42 -3 -48 30 -81 30 -30 42 -35 81 -35 26 0 60 7 77 15 35 19 69 70 69 105 -1 36 -35 107 -58 119 -31 17 -84 13 -117 -8z m106 -50 c33 -33 34 -40 15 -66 -13 -18 -14 -17 -21 13 -3 17 -20 43 -37 57 -27 23 -28 25 -8 25 12 0 35 -13 51 -29z"
       id="path252"
       style="fill:#ff0000" />
    <path
       d="M2636 3290 c-32 -21 -53 -44 -66 -73 -25 -55 -25 -77 3 -118 79 -119 276 -75 303 67 8 45 -26 118 -65 138 -50 26 -120 21 -175 -14z m185 -39 c19 -19 29 -40 29 -59 0 -46 -12 -46 -35 0 -15 31 -33 49 -65 66 l-44 22 43 0 c34 0 49 -6 72 -29z"
       id="path254"
       style="fill:#ff0000" />
    <path
       d="M4587 3258 c-109 -31 -134 -48 -121 -82 11 -28 46 -27 174 6 111 29 125 35 128 56 5 31 -15 52 -47 51 -14 0 -75 -14 -134 -31z m143 13 c0 -11 -109 -45 -118 -37 -9 10 4 17 55 31 61 17 63 17 63 6z"
       id="path256"
       style="fill:#ccff99" />
    <path
       d="M3090 3251 c-5 -11 -8 -26 -5 -33 6 -14 202 -136 232 -144 27 -7 61 32 47 54 -16 25 -212 142 -239 142 -14 0 -29 -8 -35 -19z m106 -28 c39 -25 55 -43 38 -43 -9 0 -94 51 -100 61 -10 18 19 9 62 -18z"
       id="path258"
       style="fill:#ccff99" />
    <path
       d="M5990 3224 c-127 -49 -151 -65 -134 -91 26 -41 47 -37 266 49 38 14 47 47 18 70 -12 10 -25 18 -29 17 -3 0 -58 -20 -121 -45z m130 17 c0 -10 -85 -41 -109 -40 -17 1 76 47 97 48 6 1 12 -3 12 -8z"
       id="path260"
       style="fill:#ff9900" />
    <path
       d="M4982 3163 c-58 -12 -123 -117 -109 -175 11 -41 51 -92 92 -116 33 -19 51 -22 103 -19 56 3 66 7 98 38 37 38 53 93 40 143 -8 32 -60 93 -95 110 -31 16 -96 26 -129 19z m156 -85 c26 -22 33 -56 18 -91 -12 -29 -14 -30 -21 -12 -23 64 -31 78 -61 104 -18 16 -30 32 -27 35 6 6 70 -19 91 -36z"
       id="path262"
       style="fill:#ff6600" />
    <path
       d="M3539 3117 c-42 -28 -62 -68 -63 -123 -1 -53 25 -91 85 -122 103 -54 224 7 236 119 9 84 -64 149 -168 149 -42 0 -65 -6 -90 -23z m176 -52 c25 -25 30 -41 19 -69 -10 -25 -21 -19 -28 14 -3 17 -18 42 -32 55 -26 24 -26 25 -5 25 12 0 33 -11 46 -25z"
       id="path264"
       style="fill:#ff0000" />
    <path
       d="M4162 3133 c-55 -27 -82 -67 -82 -123 0 -41 5 -55 30 -84 93 -106 250 -45 250 97 0 97 -106 156 -198 110z m125 -42 c36 -22 47 -48 35 -81 -8 -22 -9 -22 -30 14 -12 20 -37 46 -57 57 -19 12 -35 23 -35 25 0 12 59 1 87 -15z"
       id="path266"
       style="fill:#ff6600" />
    <path
       d="M5526 2934 c-19 -19 -20 -35 -3 -55 25 -31 195 -149 214 -149 24 0 43 18 43 42 0 18 -202 178 -226 178 -7 0 -20 -7 -28 -16z m104 -53 c19 -17 30 -30 24 -31 -16 0 -94 58 -94 70 0 14 25 0 70 -39z"
       id="path268"
       style="fill:#ff9900" />
    <path
       d="M4680 2791 c-15 -29 -6 -43 78 -113 111 -93 126 -102 151 -88 43 23 26 53 -76 138 -101 84 -134 97 -153 63z m131 -79 c-15 -5 -102 68 -95 79 3 5 28 -10 55 -33 28 -23 46 -44 40 -46z"
       id="path270"
       style="fill:#ff9900" />
    <path
       d="M2495 2750 c-116 -30 -142 -48 -124 -82 16 -30 34 -32 117 -10 42 12 96 26 119 32 41 10 73 32 73 50 0 17 -32 40 -53 39 -12 0 -71 -14 -132 -29z m20 -25 c-41 -17 -105 -28 -105 -17 0 10 71 29 110 30 24 0 24 0 -5 -13z"
       id="path272"
       style="fill:#cc99cc" />
    <path
       d="M4315 2757 c-103 -58 -123 -189 -36 -240 37 -21 113 -22 157 -1 90 43 100 178 18 243 -35 27 -88 27 -139 -2z m115 -46 c16 -12 26 -30 28 -51 5 -50 -14 -59 -29 -13 -6 21 -26 51 -43 67 -30 28 -30 29 -6 22 14 -4 36 -16 50 -25z"
       id="path274"
       style="fill:#ff6600" />
    <path
       d="M3760 2699 c-63 -11 -120 -25 -127 -31 -18 -15 -16 -57 3 -65 19 -7 250 24 276 38 22 12 23 42 2 63 -18 19 -9 19 -154 -5z m134 -9 c-13 -13 -132 -26 -119 -12 11 12 43 19 95 21 22 1 31 -2 24 -9z"
       id="path276"
       style="fill:#ccff99" />
    <path
       d="M2618 2419 c-37 -21 -21 -53 76 -147 51 -51 96 -92 100 -92 4 0 16 5 27 10 39 21 23 53 -75 148 -51 51 -97 92 -102 92 -5 0 -17 -5 -26 -11z m77 -49 c21 -22 36 -43 32 -47 -8 -7 -87 65 -87 79 0 17 17 7 55 -32z"
       id="path278"
       style="fill:#cc99cc" />
    <path
       d="M2420 2198 c-50 -19 -80 -69 -80 -133 0 -62 22 -95 81 -125 79 -41 175 -16 216 56 41 71 20 154 -48 189 -42 22 -126 28 -169 13z m154 -59 c21 -16 26 -28 24 -52 -4 -41 -24 -45 -31 -7 -4 17 -19 42 -33 55 -25 23 -25 25 -7 25 11 0 32 -10 47 -21z"
       id="path280"
       style="fill:#ff0000" />
    <path
       d="M2310 1775 c-11 -13 -9 -39 8 -142 12 -71 27 -130 34 -135 19 -12 49 -6 61 13 13 21 -21 245 -40 265 -19 18 -47 18 -63 -1z m64 -37 c13 -64 15 -88 6 -93 -10 -6 -16 11 -25 73 -7 44 11 62 19 20z"
       id="path282"
       style="fill:#ccff99" />
    <path
       d="M2270 3855 c-44 -11 -64 -35 -40 -50 11 -7 100 23 100 34 -1 22 -18 27 -60 16z"
       id="path284"
       style="fill:#993300" />
    <path
       d="M3906 3804 c-9 -23 -9 -22 30 -39 45 -19 41 -19 54 5 9 17 7 22 -12 29 -57 21 -66 22 -72 5z"
       id="path286"
       style="fill:#993300" />
    <path
       d="M4460 3796 c0 -7 11 -43 23 -82 23 -68 24 -69 62 -72 21 -2 48 -1 61 2 22 6 22 8 10 37 -14 33 -156 138 -156 115z"
       id="path288"
       style="fill:#663300" />
    <path
       d="M1955 3780 c-16 -18 -16 -22 -2 -43 28 -43 184 -177 205 -177 31 0 47 36 29 64 -23 35 -183 176 -199 176 -8 0 -23 -9 -33 -20z m90 -40 c21 -22 36 -42 33 -46 -7 -7 -88 64 -88 77 0 18 17 8 55 -31z"
       id="path290"
       style="fill:#cc99cc" />
    <path
       d="M2283 3782 c-46 -17 -48 -19 -34 -41 8 -12 17 -11 58 7 80 34 58 66 -24 34z"
       id="path292"
       style="fill:#993300" />
    <path
       d="M4405 3744 c-9 -31 -15 -68 -13 -82 3 -24 8 -27 46 -30 23 -2 42 1 42 6 0 5 -9 35 -20 67 -11 32 -20 66 -20 77 0 37 -19 16 -35 -38z"
       id="path294"
       style="fill:#663300" />
    <path
       d="M3867 3737 c-4 -10 7 -20 36 -31 36 -14 43 -14 56 -1 13 12 11 15 -13 25 -54 20 -73 22 -79 7z"
       id="path296"
       style="fill:#993300" />
    <path
       d="M2318 3722 c-39 -17 -44 -27 -29 -51 7 -11 18 -8 55 14 70 41 49 70 -26 37z"
       id="path298"
       style="fill:#993300" />
    <path
       d="M3837 3683 c-14 -13 -6 -23 32 -42 29 -15 41 -17 50 -8 18 18 13 27 -24 43 -38 16 -49 17 -58 7z"
       id="path300"
       style="fill:#993300" />
    <path
       d="M2358 3657 c-41 -24 -42 -25 -29 -46 7 -11 17 -9 55 15 70 44 45 74 -26 31z"
       id="path302"
       style="fill:#993300" />
    <path
       d="M3803 3633 c-21 -8 -15 -19 26 -46 28 -19 41 -23 50 -14 6 6 11 15 11 19 0 12 -73 46 -87 41z"
       id="path304"
       style="fill:#993300" />
    <path
       d="M4688 3633 c-23 -6 -23 -4 7 -64 19 -37 30 -49 43 -45 9 2 36 8 60 11 23 4 42 9 42 11 0 3 -7 20 -15 39 -19 47 -72 65 -137 48z"
       id="path306"
       style="fill:#663300" />
    <path
       d="M2395 3598 l-40 -30 35 7 c57 12 82 24 77 38 -7 21 -31 17 -72 -15z"
       id="path308"
       style="fill:#993300" />
    <path
       d="M4540 3610 c-13 -8 -12 -16 10 -57 27 -51 25 -51 107 -37 l33 5 -25 49 c-24 48 -27 50 -68 50 -23 0 -49 -5 -57 -10z"
       id="path310"
       style="fill:#663300" />
    <path
       d="M4366 3599 c-2 -8 -9 -28 -14 -45 -10 -30 -8 -33 28 -53 21 -11 40 -21 43 -21 5 0 -40 120 -49 129 -2 2 -5 -2 -8 -10z"
       id="path312"
       style="fill:#663300" />
    <path
       d="M4410 3599 c0 -6 10 -33 21 -60 19 -44 25 -49 53 -49 54 0 59 10 35 68 -21 51 -22 52 -65 52 -25 0 -44 -5 -44 -11z"
       id="path314"
       style="fill:#663300" />
    <path
       d="M4855 3579 c10 -33 8 -32 62 -24 l48 8 -31 13 c-17 7 -44 16 -59 20 -25 6 -27 5 -20 -17z"
       id="path316"
       style="fill:#663300" />
    <path
       d="M3750 3575 c-7 -9 -11 -17 -9 -19 73 -56 75 -57 93 -37 16 17 14 19 -24 45 -47 31 -44 30 -60 11z"
       id="path318"
       style="fill:#993300" />
    <path
       d="M6252 3573 c-44 -21 -74 -66 -80 -118 -4 -39 -1 -47 34 -85 79 -84 196 -66 240 37 19 45 17 82 -6 120 -36 60 -119 80 -188 46z m149 -49 c18 -17 28 -84 12 -84 -5 1 -17 15 -28 33 -11 17 -36 42 -55 55 l-35 25 43 -6 c24 -3 52 -13 63 -23z"
       id="path320"
       style="fill:#ff0000" />
    <path
       d="M5032 3544 c33 -73 33 -73 114 -37 l39 17 -55 6 c-30 4 -66 10 -79 15 -13 4 -22 3 -19 -1z"
       id="path322"
       style="fill:#663300" />
    <path
       d="M4930 3533 c-49 -8 -52 -11 -39 -35 14 -27 49 -57 67 -58 7 0 28 6 46 14 l34 14 -16 36 c-17 37 -26 40 -92 29z"
       id="path324"
       style="fill:#663300" />
    <path
       d="M3696 3521 c-3 -4 12 -22 33 -39 34 -27 41 -29 51 -16 7 8 11 16 9 17 -2 2 -17 13 -33 25 -30 23 -51 28 -60 13z"
       id="path326"
       style="fill:#993300" />
    <path
       d="M5173 3492 c-51 -20 -93 -39 -93 -42 0 -3 13 -21 28 -39 l28 -34 46 21 c38 16 52 30 72 71 14 28 26 53 26 56 0 9 -12 5 -107 -33z"
       id="path328"
       style="fill:#663300" />
    <path
       d="M4645 3488 c-27 -5 -51 -11 -53 -12 -7 -7 12 -36 23 -36 19 0 85 40 85 51 0 5 -1 8 -2 8 -2 -1 -25 -6 -53 -11z"
       id="path330"
       style="fill:#663300" />
    <path
       d="M3646 3483 c-8 -8 54 -73 70 -73 28 0 24 23 -7 50 -35 30 -50 35 -63 23z"
       id="path332"
       style="fill:#993300" />
    <path
       d="M4470 3460 c0 -14 44 -30 81 -30 31 0 36 9 17 28 -15 15 -98 16 -98 2z"
       id="path334"
       style="fill:#663300" />
    <path
       d="M3593 3442 c-7 -5 0 -20 23 -47 32 -39 34 -39 51 -22 17 18 17 20 -17 48 -37 31 -39 32 -57 21z"
       id="path336"
       style="fill:#993300" />
    <path
       d="M5020 3433 c-8 -2 -22 -7 -29 -9 -18 -6 65 -64 92 -64 22 0 22 5 -4 46 -20 33 -29 37 -59 27z"
       id="path338"
       style="fill:#663300" />
    <path
       d="M3527 3409 c-16 -9 -15 -13 9 -45 17 -21 35 -34 50 -34 37 0 36 14 -4 53 -29 29 -41 34 -55 26z"
       id="path340"
       style="fill:#993300" />
    <path
       d="M3457 3374 c-12 -12 6 -34 29 -34 26 0 30 10 12 28 -13 13 -31 16 -41 6z"
       id="path342"
       style="fill:#993300" />
    <path
       d="M6042 2944 c-103 -51 -135 -153 -69 -219 104 -104 287 -36 287 107 0 72 -65 138 -135 138 -17 0 -55 -12 -83 -26z m156 -40 c27 -18 43 -54 35 -83 -8 -30 -16 -26 -35 20 -13 31 -26 44 -57 57 -23 9 -41 21 -41 26 0 12 70 -3 98 -20z"
       id="path344"
       style="fill:#ff9900" />
    <path
       d="M2053 2805 c-91 -94 -105 -119 -81 -143 26 -26 52 -10 137 79 108 115 110 118 81 141 -12 10 -27 18 -34 18 -6 0 -53 -43 -103 -95z m137 57 c0 -14 -79 -86 -87 -79 -4 4 11 25 32 47 38 39 55 49 55 32z"
       id="path346"
       style="fill:#cc99cc" />
    <path
       d="M2926 2830 c-68 -21 -115 -102 -102 -175 10 -50 81 -121 131 -131 58 -11 123 1 152 27 52 50 66 109 39 172 -32 77 -143 131 -220 107z m142 -69 c42 -22 55 -80 27 -117 -14 -18 -14 -18 -15 6 0 32 -32 84 -65 106 -14 9 -25 20 -25 24 0 10 46 -2 78 -19z"
       id="path348"
       style="fill:#ff6600" />
    <path
       d="M5262 2727 c-21 -25 -101 -237 -96 -252 8 -20 51 -30 68 -16 16 14 96 211 96 238 0 38 -45 58 -68 30z m8 -80 c-12 -26 -25 -45 -30 -42 -8 5 8 54 33 100 21 39 19 -9 -3 -58z"
       id="path350"
       style="fill:#cc99cc" />
    <path
       d="M6108 2568 c-53 -80 -162 -148 -239 -148 -60 0 -102 18 -181 78 -108 82 -115 85 -177 80 -59 -5 -131 -41 -227 -115 -27 -20 -64 -40 -84 -44 -62 -15 -194 -10 -316 12 -185 33 -199 30 -579 -104 -55 -20 -138 -41 -184 -47 -163 -22 -259 3 -529 139 -176 89 -289 134 -380 151 -45 8 -48 7 -88 -30 -41 -37 -85 -52 -144 -47 -20 2 -29 -6 -47 -43 -39 -77 -33 -99 78 -280 76 -124 91 -168 92 -260 1 -92 -23 -150 -83 -208 -46 -46 -103 -67 -197 -76 -79 -7 -138 -31 -163 -66 -32 -44 -45 -2 145 -470 90 -225 101 -245 166 -304 277 -255 1075 -373 1749 -260 344 58 568 149 705 288 l70 71 84 215 c46 118 99 253 116 300 18 47 54 139 80 205 26 66 59 156 75 200 16 44 45 123 65 175 20 52 56 149 80 215 25 66 63 170 86 230 52 141 59 165 49 165 -4 0 -14 -10 -22 -22z m-2625 -274 c35 -19 51 -59 40 -99 -13 -45 -47 -41 -51 5 -4 44 -27 70 -63 70 -61 0 -75 -78 -38 -210 37 -135 86 -202 159 -216 24 -5 36 -2 57 17 25 23 93 151 93 176 0 6 -15 22 -32 34 -66 45 -83 85 -51 121 23 26 66 22 102 -8 26 -22 31 -33 31 -70 0 -49 3 -51 48 -29 27 14 35 14 64 2 65 -28 71 -44 64 -159 -7 -123 5 -171 44 -176 18 -2 34 7 55 28 29 30 30 36 30 118 0 70 5 95 22 127 25 47 67 75 85 57 9 -9 5 -16 -15 -32 -35 -28 -51 -81 -44 -152 5 -61 28 -101 52 -92 7 3 21 24 31 47 22 49 24 127 5 210 -13 55 -13 60 6 78 24 25 97 37 117 20 8 -6 24 -51 36 -99 21 -87 106 -275 125 -276 5 -1 19 32 32 73 40 132 60 117 23 -18 -25 -87 -53 -146 -75 -155 -59 -22 -104 11 -160 118 -22 42 -43 76 -46 76 -4 0 -9 -12 -12 -28 -9 -46 -44 -82 -80 -82 -18 0 -38 4 -46 9 -9 6 -27 -6 -60 -39 -29 -31 -61 -52 -88 -60 -37 -11 -46 -10 -86 9 -25 12 -53 33 -62 47 -19 29 -33 113 -37 224 -3 61 -7 75 -21 78 -11 2 -21 -6 -28 -25 -51 -137 -125 -244 -186 -270 -106 -44 -231 29 -284 166 -16 41 -22 79 -23 146 -1 79 2 97 26 146 33 66 53 86 105 105 42 15 91 11 136 -12z m1417 -75 c0 -14 -21 -73 -46 -130 -84 -189 -145 -341 -140 -347 3 -3 65 16 137 43 96 35 134 44 142 36 17 -17 2 -27 -136 -91 -137 -64 -184 -80 -237 -80 -48 0 -60 15 -60 72 0 57 27 139 85 264 l43 92 -114 4 c-133 5 -167 20 -172 78 -3 26 0 32 12 27 42 -17 156 -29 225 -25 94 5 177 40 211 88 22 31 24 32 37 14 7 -10 13 -30 13 -45z m121 -41 c14 -25 16 -114 5 -202 -9 -66 1 -71 54 -28 l34 29 -11 73 c-6 40 -9 79 -6 86 6 17 60 18 93 1 35 -17 50 -72 57 -199 4 -62 10 -108 16 -108 12 0 105 93 134 135 23 33 39 29 30 -7 -9 -33 -98 -130 -141 -153 -30 -16 -36 -25 -36 -52 0 -50 -29 -174 -51 -221 -28 -56 -66 -76 -119 -62 -51 14 -80 51 -80 102 0 56 26 104 88 167 l54 54 -7 54 c-3 29 -10 53 -15 53 -5 0 -26 -11 -47 -25 -49 -34 -98 -31 -127 8 -19 26 -21 42 -21 159 0 117 2 131 19 144 29 21 64 17 77 -8z m-1628 -527 c8 -8 -10 -193 -39 -396 -19 -135 -18 -219 1 -235 12 -10 24 -9 60 5 25 9 45 21 45 26 0 5 -11 42 -25 83 -14 41 -25 92 -25 113 1 88 70 170 135 158 77 -13 97 -107 49 -220 -39 -92 -39 -93 -8 -127 62 -65 108 -55 149 34 l23 50 -24 51 c-33 71 -31 118 4 158 24 27 38 33 83 37 49 4 59 1 87 -23 35 -29 43 -73 18 -94 -19 -16 -29 0 -20 33 4 18 1 27 -16 36 -50 27 -95 -9 -70 -55 19 -35 110 -139 125 -143 6 -1 35 22 64 53 42 45 52 61 46 78 -14 48 -17 105 -5 126 28 54 120 77 179 46 42 -21 57 -80 27 -104 -18 -15 -30 1 -21 30 9 27 -11 49 -45 49 -35 0 -53 -21 -45 -53 4 -13 40 -62 81 -108 106 -119 129 -160 129 -231 0 -32 2 -58 6 -58 3 0 23 15 43 32 l38 33 -23 50 c-32 72 -38 207 -11 255 56 100 171 94 188 -11 5 -31 -22 -132 -60 -219 -4 -10 5 -27 25 -48 56 -57 114 -37 148 52 l18 49 -48 47 c-40 37 -49 53 -49 80 0 68 55 90 108 45 35 -29 47 -70 33 -108 -13 -33 1 -44 31 -23 28 20 42 20 83 0 50 -24 58 -53 40 -159 -8 -49 -15 -106 -15 -125 0 -38 18 -81 37 -87 15 -5 80 53 99 88 15 29 20 179 8 250 -6 34 -8 36 -48 35 -40 -1 -41 0 -44 35 -3 35 -2 36 37 43 37 6 40 8 43 43 3 36 5 38 43 44 53 9 65 3 65 -33 0 -28 1 -29 42 -26 34 2 43 0 46 -15 3 -13 -7 -23 -36 -35 l-40 -17 5 -155 c6 -173 14 -203 56 -208 23 -3 37 5 67 37 22 23 42 41 45 41 16 0 2 -63 -21 -90 -74 -88 -234 -95 -234 -10 0 29 -12 24 -37 -15 -34 -52 -98 -90 -150 -90 -34 0 -49 6 -73 31 -25 25 -33 43 -41 100 -6 38 -8 87 -5 109 3 22 6 67 8 100 1 48 -1 61 -14 63 -11 2 -18 -8 -23 -35 -9 -49 -46 -114 -86 -147 -40 -34 -122 -37 -163 -5 l-26 21 -46 -41 c-25 -22 -60 -43 -77 -47 -18 -3 -45 -17 -60 -30 -15 -13 -46 -28 -69 -35 -90 -24 -148 16 -148 102 0 63 13 96 57 141 l36 37 -31 35 c-17 19 -34 42 -39 51 -8 13 -19 6 -66 -41 -31 -31 -57 -59 -57 -61 0 -3 9 -17 20 -32 10 -16 24 -49 30 -75 24 -108 -37 -207 -141 -226 -146 -27 -196 134 -79 255 l29 30 -24 28 c-13 15 -26 27 -28 27 -3 0 -7 -15 -11 -32 -9 -45 -51 -102 -90 -123 -43 -23 -105 -16 -151 19 -20 16 -36 22 -40 16 -4 -6 -30 -24 -58 -40 -82 -47 -139 -36 -167 30 -7 16 -15 30 -19 30 -3 -1 -15 -15 -26 -33 -28 -45 -66 -56 -110 -33 -71 39 -83 133 -31 241 32 65 59 86 121 93 43 4 45 6 45 36 1 44 45 295 59 330 10 26 14 28 49 21 20 -3 41 -10 45 -14z"
       id="path352"
       style="fill:#669900" />
    <path
       d="M3615 2163 c-4 -13 3 -26 25 -45 40 -37 60 -36 60 1 0 48 -69 84 -85 44z"
       id="path354"
       style="fill:#669900" />
    <path
       d="M5107 1713 c-51 -54 -75 -156 -42 -183 19 -15 17 -17 45 45 19 44 40 165 28 165 -2 0 -16 -12 -31 -27z"
       id="path356"
       style="fill:#669900" />
    <path
       d="M4492 1358 c-23 -23 -7 -198 19 -198 4 0 17 25 28 56 22 57 29 122 17 142 -9 16 -49 15 -64 0z"
       id="path358"
       style="fill:#669900" />
    <path
       d="M3516 1338 c-9 -12 -16 -31 -16 -41 0 -34 33 -148 40 -140 14 15 50 124 50 151 0 52 -46 70 -74 30z"
       id="path360"
       style="fill:#669900" />
    <path
       d="M4663 1304 c-8 -20 5 -42 41 -68 23 -18 28 -19 36 -6 14 22 12 35 -11 64 -23 29 -56 34 -66 10z"
       id="path362"
       style="fill:#669900" />
    <path
       d="M3190 1241 c-57 -16 -111 -143 -96 -226 13 -66 53 -53 103 32 19 33 26 63 30 123 3 45 2 80 -3 79 -5 -1 -20 -4 -34 -8z"
       id="path364"
       style="fill:#669900" />
    <path
       d="M4134 1039 c-55 -75 -50 -146 13 -170 54 -20 119 45 109 110 -6 39 -52 111 -72 111 -7 0 -29 -23 -50 -51z"
       id="path366"
       style="fill:#669900" />
    <path
       d="M3817 993 c-35 -37 -56 -91 -50 -126 6 -32 46 -67 77 -67 56 0 97 72 76 133 -11 33 -53 87 -68 87 -4 0 -20 -12 -35 -27z"
       id="path368"
       style="fill:#669900" />
    <path
       d="M5395 724 c-16 -13 -51 -37 -77 -51 l-48 -26 0 -86 0 -85 41 39 c22 22 45 48 50 58 24 43 78 177 71 177 -4 -1 -20 -12 -37 -26z"
       id="path370"
       style="fill:#003300" />
    <path
       d="M2987 648 c23 -55 50 -98 79 -128 l44 -45 0 36 c0 20 2 56 5 80 l6 44 -80 48 c-44 26 -82 47 -84 47 -3 0 11 -37 30 -82z"
       id="path372"
       style="fill:#003300" />
    <path
       d="M5173 604 l-53 -25 0 -100 0 -100 23 12 c12 7 41 25 65 41 l42 29 0 84 c0 97 1 96 -77 59z"
       id="path374"
       style="fill:#003300" />
    <path
       d="M3144 589 c3 -17 6 -57 6 -88 l0 -57 53 -32 c29 -18 59 -32 65 -32 10 0 12 25 10 96 l-3 95 -60 24 c-33 14 -64 25 -69 25 -5 0 -6 -14 -2 -31z"
       id="path376"
       style="fill:#003300" />
    <path
       d="M5008 547 l-68 -21 0 -109 c0 -123 -10 -116 97 -72 l58 23 3 101 c3 115 10 109 -90 78z"
       id="path378"
       style="fill:#003300" />
    <path
       d="M3312 459 l3 -104 70 -27 c39 -15 76 -27 83 -28 9 0 12 28 12 108 l0 108 -72 18 c-40 10 -79 21 -86 24 -10 3 -12 -18 -10 -99z"
       id="path380"
       style="fill:#003300" />
    <path
       d="M4828 502 l-68 -15 0 -114 c0 -104 2 -114 18 -109 9 3 37 10 62 16 89 22 81 10 78 127 -2 61 -7 107 -13 108 -5 1 -40 -5 -77 -13z"
       id="path382"
       style="fill:#003300" />
    <path
       d="M3506 501 c-1 -3 0 -53 3 -111 l6 -105 70 -17 c114 -27 106 -35 103 94 l-3 112 -88 16 c-48 9 -89 14 -91 11z"
       id="path384"
       style="fill:#003300" />
    <path
       d="M4670 473 c-14 -2 -40 -6 -57 -9 l-33 -5 0 -114 c0 -131 -7 -123 95 -102 l60 13 3 112 c3 124 8 117 -68 105z"
       id="path386"
       style="fill:#003300" />
    <path
       d="M3720 357 c0 -131 -9 -120 108 -133 l62 -7 0 79 c0 44 3 95 6 115 l6 37 -53 6 c-30 4 -71 9 -91 12 l-38 6 0 -115z"
       id="path388"
       style="fill:#003300" />
    <path
       d="M4460 451 l-65 -6 -3 -117 -3 -118 33 1 c18 0 55 4 82 7 l49 7 1 115 c1 130 9 120 -94 111z"
       id="path390"
       style="fill:#003300" />
    <path
       d="M3922 334 l3 -119 84 -8 c46 -5 89 -6 97 -3 11 4 14 32 14 121 l0 115 -54 0 c-29 0 -74 3 -100 6 l-47 7 3 -119z"
       id="path392"
       style="fill:#003300" />
    <path
       d="M4142 323 l3 -118 85 -3 c137 -5 130 -11 130 123 l0 115 -110 0 -111 0 3 -117z"
       id="path394"
       style="fill:#003300" />
  </g>
</svg>
