<?xml version="1.0" standalone="no"?>
<!DOCTYPE svg PUBLIC "-//W3C//DTD SVG 20010904//EN"
 "http://www.w3.org/TR/2001/REC-SVG-20010904/DTD/svg10.dtd">
<svg version="1.0" xmlns="http://www.w3.org/2000/svg"
 width="850.000000pt" height="850.000000pt" viewBox="0 0 850.000000 850.000000"
 preserveAspectRatio="xMidYMid meet">
<metadata>
Created by potrace 1.14, written by Peter Selinger 2001-2017
</metadata>
<g transform="translate(0.000000,850.000000) scale(0.100000,-0.100000)"
fill="#000000" stroke="none">
<path d="M3810 8180 c-25 -36 -75 -64 -97 -55 -39 14 -104 -110 -89 -171 8
-30 7 -30 -51 4 -135 80 -299 126 -425 121 -124 -6 -192 -42 -300 -160 -46
-50 -96 -97 -112 -106 -22 -12 -26 -17 -15 -24 22 -14 96 -11 136 6 46 20 46
20 28 -15 -28 -54 -19 -63 27 -30 23 17 73 40 111 52 149 45 301 1 436 -128
l66 -63 -30 -25 c-16 -14 -48 -28 -70 -31 -53 -9 -138 -48 -185 -85 -25 -20
-58 -34 -97 -41 -62 -11 -137 -49 -147 -74 -3 -9 -18 -15 -38 -15 -73 -1 -169
-68 -228 -160 -18 -28 -49 -60 -74 -74 -43 -25 -116 -98 -116 -115 0 -5 -24
-23 -54 -40 -29 -17 -72 -52 -95 -79 -63 -73 -76 -85 -120 -114 -51 -35 -99
-100 -114 -157 -9 -33 -21 -49 -48 -66 -19 -13 -48 -39 -65 -59 -16 -21 -49
-56 -73 -79 -45 -44 -84 -110 -95 -163 -4 -17 -19 -42 -33 -55 -30 -28 -62
-94 -63 -128 0 -13 -14 -39 -31 -59 -18 -20 -39 -52 -48 -73 -9 -20 -31 -49
-48 -63 -46 -38 -68 -105 -67 -198 0 -43 -3 -78 -9 -78 -5 0 -7 -13 -5 -30 3
-16 4 -30 3 -30 -1 0 -16 23 -33 50 -17 28 -39 50 -48 50 -16 0 -16 0 3 -70 6
-23 4 -22 -37 13 -38 32 -131 77 -160 77 -19 0 -10 -26 22 -64 l31 -38 -34 8
c-66 17 -190 10 -242 -14 -68 -30 -57 -46 39 -54 43 -3 117 -19 164 -35 l85
-28 -92 -3 c-68 -2 -93 -6 -93 -16 0 -22 44 -55 101 -75 l54 -18 -36 -16 c-71
-30 -59 -55 41 -84 65 -18 64 -18 54 -35 -5 -7 -10 -66 -11 -131 -4 -196 -26
-249 -179 -424 -34 -39 -70 -86 -80 -105 -22 -42 -23 -124 -1 -203 21 -76 22
-203 1 -280 -16 -64 -34 -94 -34 -58 0 36 -66 241 -113 354 -91 218 -213 402
-382 577 -123 128 -205 196 -117 97 132 -148 288 -428 357 -639 30 -93 64
-240 90 -391 l7 -39 -51 48 c-75 70 -148 100 -241 101 -65 0 -84 -4 -140 -32
-77 -38 -183 -131 -209 -182 -24 -46 -41 -110 -32 -115 4 -3 20 24 35 59 34
78 106 150 160 161 191 35 385 -107 502 -371 14 -33 48 -125 75 -205 47 -140
50 -147 101 -193 61 -55 56 -55 -85 -1 -89 34 -191 94 -200 117 -3 7 1 21 9
32 32 43 1 95 -56 95 -57 0 -130 -74 -130 -132 0 -87 79 -149 130 -103 15 14
27 10 126 -46 113 -63 283 -143 328 -155 44 -11 38 -21 -27 -44 -85 -31 -187
-83 -226 -116 -18 -15 -45 -52 -61 -83 -15 -31 -40 -67 -54 -80 -25 -23 -25
-27 -20 -110 6 -79 4 -89 -18 -121 -13 -19 -54 -54 -92 -76 -123 -74 -182
-148 -213 -267 -14 -54 -15 -71 -5 -106 27 -89 153 -181 250 -181 33 0 56 6
66 16 20 19 21 13 -10 87 -14 34 -28 87 -31 118 l-6 57 44 4 c38 4 49 0 78
-25 31 -26 40 -29 90 -25 72 5 175 53 235 108 25 24 46 40 46 38 0 -3 -7 -25
-15 -49 -56 -157 -66 -354 -26 -494 52 -184 120 -285 331 -488 l143 -138 -22
-23 c-60 -64 -21 -205 70 -251 15 -8 46 -15 68 -15 32 0 44 -5 57 -26 24 -36
112 -84 155 -84 23 0 42 -7 53 -19 25 -27 100 -61 135 -61 15 0 50 -12 76 -26
41 -23 55 -26 110 -21 54 4 67 2 81 -14 23 -26 77 -41 132 -38 26 1 61 -4 77
-12 18 -8 66 -14 120 -15 50 0 108 -5 130 -11 24 -7 71 -8 115 -4 60 5 83 3
115 -11 57 -24 145 -36 179 -25 18 6 36 6 51 -1 36 -17 156 -25 204 -13 32 7
50 6 65 -2 40 -22 309 -34 526 -24 80 4 154 6 165 6 384 -14 363 -15 424 6 48
16 55 16 92 1 54 -22 136 -20 183 3 28 15 44 17 63 10 30 -11 133 -12 151 0 8
5 32 1 57 -8 41 -15 49 -14 107 2 35 10 101 19 148 21 47 1 95 8 108 14 13 8
36 10 55 7 39 -8 139 19 157 40 9 11 17 12 30 5 47 -25 176 4 222 51 25 25 37
29 82 29 33 0 66 7 91 21 22 11 47 22 55 23 8 2 31 6 51 10 21 4 53 17 72 30
19 13 54 27 78 31 46 8 113 37 124 55 3 5 14 10 24 10 9 0 50 22 91 48 41 27
89 57 106 68 83 51 126 91 149 138 32 65 31 97 -5 175 l-30 63 15 74 c17 81
18 165 5 294 l-8 85 55 56 c54 56 71 66 232 133 108 46 163 82 233 153 69 70
179 261 202 349 28 109 16 214 -25 222 -11 2 -25 -15 -44 -53 -36 -74 -80
-117 -157 -154 -115 -54 -177 -66 -343 -65 -82 1 -161 6 -175 11 -24 10 -23
10 15 23 22 7 76 30 121 51 64 30 94 53 150 111 38 40 88 102 112 138 66 101
75 143 72 354 -2 100 1 216 5 258 7 72 6 79 -19 123 -24 40 -39 51 -112 86
-58 28 -91 38 -107 34 -48 -15 -109 -58 -133 -95 -31 -47 -24 -69 12 -41 78
61 152 12 91 -61 -25 -29 -126 -92 -135 -83 -3 3 -9 63 -12 133 -4 73 -12 139
-20 155 -7 15 -11 29 -8 32 3 3 28 8 56 12 170 20 536 -208 737 -460 79 -98
154 -241 192 -363 26 -86 27 -97 28 -317 0 -235 6 -246 25 -47 13 141 3 249
-40 414 -35 136 -56 192 -113 301 -148 284 -429 504 -720 564 l-92 18 40 12
c22 7 87 15 145 18 172 9 333 -34 515 -137 98 -56 163 -114 222 -199 66 -94
71 -96 27 -11 -115 222 -446 434 -733 469 -58 8 -112 8 -178 0 -52 -6 -96 -9
-98 -7 -1 2 -5 26 -8 53 l-5 50 95 80 c148 126 276 218 356 257 187 93 421
110 611 47 70 -24 84 -18 27 11 -71 36 -158 52 -276 52 -130 1 -243 -19 -392
-68 -105 -34 -334 -140 -402 -185 -31 -21 -29 -16 33 73 36 53 96 156 132 230
37 73 89 162 117 197 98 123 253 225 381 251 170 35 297 -58 297 -219 0 -33
-2 -70 -5 -83 -3 -13 3 -5 14 17 25 51 25 95 -1 181 -44 149 -79 199 -155 224
-110 37 -315 -48 -470 -192 -34 -32 -64 -58 -67 -58 -3 0 -1 14 4 32 5 18 19
95 31 172 20 122 23 178 23 421 -1 245 -3 296 -23 410 -43 250 -114 487 -195
655 -51 106 -59 84 -17 -47 89 -278 124 -489 123 -743 0 -207 -14 -317 -68
-559 -59 -263 -181 -631 -205 -616 -5 3 1 28 13 55 19 45 20 56 9 106 -8 41
-8 62 -1 76 7 13 9 48 5 92 -7 86 -7 89 0 149 4 33 1 64 -12 100 -11 32 -18
84 -19 137 -2 128 -21 263 -44 315 -13 30 -21 69 -21 103 0 55 -3 64 -89 257
-14 33 -45 83 -67 111 -26 31 -48 73 -59 110 -20 70 -66 146 -106 175 -16 11
-29 28 -29 37 0 33 -48 118 -93 167 -81 87 -197 225 -197 235 0 17 -113 131
-155 155 -22 14 -52 37 -66 51 -13 15 -48 44 -76 66 -29 21 -53 43 -53 49 0
33 -85 109 -123 109 -7 0 -35 21 -62 46 -26 26 -72 57 -101 70 -29 13 -74 39
-99 59 -26 19 -51 35 -57 35 -6 0 -37 18 -70 40 -33 22 -78 45 -100 50 -22 6
-61 26 -86 44 -76 54 -132 78 -196 84 -42 3 -71 12 -91 28 -35 26 -142 64
-181 64 -15 0 -41 13 -61 30 -24 22 -44 30 -71 30 -20 0 -61 11 -90 25 -64 30
-91 31 -154 8 l-48 -17 -31 30 c-17 16 -56 79 -86 139 -72 142 -118 209 -187
273 -68 61 -143 92 -226 92 -54 0 -60 -2 -80 -30z m197 -25 c101 -45 193 -157
272 -327 46 -101 96 -160 163 -194 49 -25 59 -40 34 -50 -20 -8 -62 16 -121
67 l-50 44 22 -35 c12 -19 40 -50 63 -67 23 -18 35 -33 27 -33 -19 0 -82 43
-131 88 -44 41 -40 28 10 -35 41 -51 113 -88 152 -78 25 6 26 5 10 -11 -40
-40 -154 26 -226 133 -21 32 -65 109 -97 172 -85 165 -181 253 -307 276 l-38
7 26 32 c15 17 34 34 43 38 25 11 90 -1 148 -27z m-98 -109 c78 -40 141 -110
196 -218 l48 -93 -99 96 c-140 135 -243 200 -342 215 -36 5 -41 9 -30 21 21
26 161 13 227 -21z m-599 -12 c93 -26 185 -63 252 -103 49 -30 74 -54 110
-107 71 -104 177 -199 304 -271 145 -83 247 -116 335 -111 37 2 65 0 63 -4
-10 -16 -104 -58 -176 -78 -225 -63 -351 -26 -528 156 -218 224 -291 281 -403
316 -87 26 -208 22 -279 -10 -59 -26 -61 -15 -8 31 70 60 51 63 -47 8 -70 -39
-136 -65 -153 -59 -15 5 151 172 200 201 98 57 201 67 330 31z m476 -39 c95
-42 172 -105 354 -292 106 -108 190 -186 214 -197 29 -14 35 -20 25 -27 -23
-14 -131 -10 -190 7 -132 39 -326 160 -418 260 -83 90 -137 209 -118 259 9 23
68 19 133 -10z m824 -335 c22 -11 53 -20 69 -20 46 0 79 -17 100 -50 29 -49
35 -106 14 -148 -22 -45 -99 -101 -150 -109 -37 -6 -37 -5 -22 13 9 10 24 33
32 50 9 17 32 52 52 78 21 28 28 43 18 37 -26 -14 -68 -61 -86 -96 -35 -69
-103 -100 -101 -45 1 14 9 53 18 88 22 80 16 103 -9 34 -36 -101 -107 -153
-164 -122 -21 11 -19 13 34 62 100 91 137 218 64 218 -24 0 -25 17 -1 23 41
11 96 6 132 -13z m-1027 -108 l27 -28 -45 -100 c-70 -152 -78 -166 -103 -177
-29 -13 -35 -6 -22 28 16 43 7 39 -28 -10 -29 -41 -71 -64 -59 -31 3 7 15 47
27 87 36 119 84 203 140 242 32 22 31 22 63 -11z m1370 -19 c37 -15 67 -30 67
-33 0 -3 -16 -18 -35 -33 -34 -27 -36 -28 -95 -15 l-60 12 0 37 c0 21 -3 45
-7 55 -5 15 -2 16 29 11 19 -3 65 -18 101 -34z m-1552 -70 c-15 -32 -42 -103
-59 -159 -28 -89 -53 -134 -76 -134 -4 0 -5 18 -1 40 4 22 4 40 1 40 -3 0 -17
-21 -30 -47 -25 -50 -48 -75 -79 -86 -16 -6 -17 -2 -11 46 11 81 38 170 68
220 28 49 95 102 156 123 60 22 62 18 31 -43z m318 -57 c0 -6 -13 -31 -28 -56
-20 -33 -34 -46 -55 -48 -25 -3 -27 -1 -21 19 7 22 7 22 -24 -4 -18 -15 -36
-27 -41 -27 -5 0 3 26 17 58 14 31 34 76 44 100 l19 43 45 -36 c25 -21 45 -42
44 -49z m1430 63 c48 -10 141 -61 141 -77 0 -4 -24 -16 -53 -26 l-54 -18 -49
25 c-27 13 -67 30 -89 37 -22 7 -44 16 -49 20 -9 9 21 28 63 41 36 10 34 10
90 -2z m-197 -63 c232 -59 468 -236 468 -351 0 -44 -16 -55 -79 -55 -118 0
-169 34 -260 169 -87 129 -196 220 -264 221 -15 0 -16 3 -7 20 14 26 27 25
142 -4z m-1777 -23 c-32 -77 -45 -120 -55 -179 -17 -107 -18 -109 -46 -137
-35 -36 -45 -34 -33 5 19 69 6 70 -26 2 -29 -62 -58 -94 -72 -80 -3 2 0 28 6
58 5 29 13 78 16 108 17 147 57 208 150 231 54 13 68 11 60 -8z m593 -5 c17
-17 15 -23 -14 -37 -33 -15 -38 -10 -23 23 14 29 20 31 37 14z m597 -29 c29
-18 45 -20 87 -15 43 6 54 4 73 -14 15 -14 38 -23 66 -24 41 -2 48 -7 102 -72
69 -83 139 -219 169 -329 17 -65 22 -109 22 -230 0 -131 -3 -165 -27 -265 -16
-63 -31 -145 -34 -182 -5 -59 -4 -68 11 -68 9 0 16 7 16 16 0 73 57 153 115
163 l40 6 18 75 c24 94 25 272 3 384 -27 134 -116 295 -250 449 -73 83 -70
102 6 37 58 -50 131 -146 170 -225 66 -130 160 -242 245 -292 49 -29 143 -37
165 -15 7 7 15 45 18 85 5 54 13 82 31 107 13 19 25 37 26 38 1 2 21 -8 46
-22 24 -14 53 -26 65 -26 15 0 28 -12 42 -39 22 -44 77 -91 105 -91 10 0 35
-16 56 -35 22 -20 50 -35 63 -35 17 0 31 -10 43 -30 17 -30 84 -70 116 -70 10
0 23 -15 32 -37 19 -45 48 -78 96 -108 24 -16 38 -34 42 -53 8 -38 58 -96 97
-112 22 -9 33 -23 42 -54 8 -28 31 -60 70 -98 32 -32 63 -58 68 -58 6 0 10
-17 10 -37 1 -50 29 -110 73 -152 30 -29 34 -40 30 -67 -7 -43 12 -95 47 -130
25 -24 28 -34 24 -62 -8 -41 17 -111 51 -142 19 -18 25 -34 25 -65 0 -48 15
-98 40 -135 13 -19 16 -39 13 -81 -4 -42 0 -67 16 -105 18 -41 20 -59 14 -104
l-8 -54 -31 49 c-17 28 -66 113 -109 190 -138 247 -153 270 -223 361 -112 144
-219 227 -344 265 -61 19 -80 20 -185 12 -93 -6 -118 -11 -121 -23 -2 -12 8
-16 50 -16 135 -2 248 -64 409 -224 142 -140 230 -255 346 -446 48 -81 115
-176 149 -213 l61 -66 9 -100 c13 -142 7 -425 -11 -512 -8 -40 -15 -75 -15
-79 0 -4 -3 -4 -7 -1 -8 9 -7 87 2 161 l8 60 -39 -24 -39 -24 23 31 c26 36 42
133 23 133 -6 0 -23 -8 -38 -17 l-26 -17 16 30 c23 45 30 91 22 150 -7 59 -17
66 -46 32 l-18 -23 -1 56 c0 82 -12 179 -21 179 -4 0 -19 -19 -33 -41 l-24
-42 -8 59 c-16 134 -30 205 -39 205 -5 0 -14 -22 -20 -48 l-10 -48 -28 82
c-41 121 -57 155 -70 150 -7 -2 -15 -17 -18 -33 -4 -16 -7 -23 -8 -15 -2 24
-135 231 -146 228 -5 -2 -8 -19 -7 -38 l4 -34 -39 53 c-42 58 -134 132 -164
132 -10 0 -19 -2 -19 -5 0 -2 16 -33 35 -69 26 -46 32 -65 23 -68 -11 -4 -10
-11 1 -39 7 -19 22 -63 32 -98 18 -63 18 -64 -1 -46 -11 10 -22 16 -25 13 -3
-3 1 -34 9 -69 8 -35 17 -80 20 -99 l6 -35 -19 25 c-11 14 -23 22 -26 18 -8
-8 18 -136 39 -197 13 -35 13 -41 2 -32 -8 7 -17 23 -20 36 -4 14 -11 25 -18
25 -15 0 -4 -117 16 -164 18 -43 15 -44 -28 -11 -39 29 -60 32 -52 8 3 -10 13
-52 22 -93 9 -41 21 -83 26 -93 14 -27 3 -32 -26 -13 -37 23 -46 20 -46 -17 0
-79 56 -225 106 -278 13 -14 24 -28 24 -31 0 -16 -72 14 -119 50 -30 22 -74
46 -98 52 -56 16 -161 8 -238 -18 -33 -11 -61 -20 -62 -18 -1 1 39 56 88 121
117 156 183 266 221 368 28 73 32 97 36 220 2 75 0 137 -4 137 -5 0 -22 -9
-39 -20 -37 -24 -107 -27 -130 -4 -51 52 -69 131 -55 256 13 117 13 118 -66
118 -186 0 -379 -102 -610 -323 -52 -49 -94 -88 -94 -85 0 9 88 264 100 289
11 24 18 27 93 32 134 10 169 28 244 124 84 108 147 268 223 568 51 200 69
314 77 470 5 107 3 141 -11 190 -20 67 -78 135 -116 135 -28 0 -72 -46 -145
-152 -31 -45 -104 -142 -163 -215 -191 -238 -297 -432 -358 -658 -21 -79 -27
-124 -28 -215 -1 -135 12 -171 69 -191 35 -13 43 -23 26 -33 -11 -7 -56 -123
-72 -186 l-12 -45 -22 65 c-54 158 -119 247 -210 288 -28 12 -57 26 -65 31
-23 12 -52 109 -53 181 l-2 65 40 5 c95 14 126 67 133 230 10 235 -84 633
-201 853 -62 117 -150 188 -196 160 -43 -26 -91 -279 -91 -481 0 -217 40 -494
90 -625 27 -71 64 -117 94 -117 21 0 24 -6 29 -60 4 -33 10 -72 13 -86 6 -22
-2 -17 -48 30 -45 47 -60 56 -89 56 -48 0 -66 -16 -103 -90 -28 -58 -37 -67
-96 -98 -36 -19 -76 -44 -89 -55 -40 -37 -83 -143 -90 -225 l-6 -73 -44 57
c-35 44 -41 58 -30 65 8 5 17 9 21 9 4 0 18 19 30 43 18 34 22 58 22 122 -1
94 -19 146 -88 261 -101 164 -196 275 -526 605 -264 264 -321 309 -388 309
-41 0 -62 -29 -69 -92 -9 -92 12 -158 120 -367 55 -108 127 -250 159 -316 33
-66 107 -203 166 -305 179 -308 288 -395 410 -325 l42 24 39 -53 c55 -74 104
-152 139 -221 l30 -60 -125 3 c-197 6 -229 -5 -424 -143 -20 -14 -83 -45 -141
-69 -273 -113 -378 -218 -378 -376 1 -109 48 -188 142 -236 80 -41 125 -25 70
26 -35 32 -72 99 -72 133 0 79 115 58 233 -42 66 -57 88 -67 118 -51 24 13 21
16 73 -63 87 -130 230 -225 376 -248 41 -7 83 -19 92 -27 16 -13 58 -109 58
-131 0 -5 -13 -14 -29 -21 -16 -6 -41 -25 -57 -41 -15 -16 -30 -29 -34 -29 -3
0 -11 20 -18 44 -15 59 -51 98 -146 162 -83 56 -118 56 -51 1 57 -46 85 -116
84 -207 0 -74 -10 -123 -21 -104 -3 5 -16 41 -28 79 -74 229 -187 357 -354
401 -74 20 -116 17 -174 -12 -66 -33 -142 -129 -142 -179 0 -28 18 -12 42 35
27 52 89 90 150 90 55 0 137 -34 190 -80 45 -39 148 -180 148 -202 0 -6 -23
10 -50 36 -28 26 -85 64 -128 84 -100 48 -179 51 -263 9 -56 -27 -108 -72 -96
-83 3 -3 22 0 43 6 50 17 158 8 215 -17 42 -19 124 -81 116 -89 -1 -2 -25 3
-52 12 -58 17 -283 34 -487 36 -137 1 -146 0 -225 -29 -148 -56 -253 -144
-292 -247 l-20 -51 0 40 c-1 55 25 151 54 200 13 22 62 85 110 139 118 134
137 176 145 333 4 68 10 126 14 131 19 18 36 -35 36 -108 0 -73 1 -78 36 -119
33 -38 36 -46 31 -86 -3 -27 -15 -59 -32 -80 -35 -47 -28 -65 27 -65 84 0 184
74 212 158 21 59 21 202 1 270 -30 101 -100 162 -240 208 -27 9 -51 18 -53 19
-14 12 51 69 158 139 110 73 210 162 210 187 0 15 -20 20 -41 9 -30 -17 -37
-3 -8 17 40 29 67 63 74 95 4 16 5 31 3 33 -2 2 -23 -3 -47 -11 -24 -8 -45
-13 -47 -11 -3 2 18 26 46 54 27 28 50 55 50 62 0 7 -23 11 -67 11 l-68 0 37
30 c33 27 78 87 78 104 0 4 -30 3 -67 0 l-67 -7 62 60 c38 37 62 69 62 82 0
20 -4 21 -52 16 l-53 -6 33 28 c36 31 72 81 72 101 0 9 -11 10 -40 6 -22 -4
-40 -4 -40 -1 0 3 16 21 35 40 46 46 46 67 0 67 l-36 0 26 37 c14 21 25 46 25
56 0 16 -6 17 -62 11 l-63 -7 21 24 c53 61 79 129 50 129 -13 0 -13 4 0 35 7
19 14 43 14 54 0 10 9 38 20 62 11 24 20 54 20 67 0 25 -21 29 -40 7 -24 -29
-30 -15 -10 24 27 53 37 121 19 121 -25 0 -55 -27 -110 -97 -29 -38 -56 -72
-60 -77 -10 -11 8 56 28 107 9 21 12 41 8 45 -9 9 -121 -114 -193 -212 -31
-43 -68 -94 -82 -112 -87 -117 -82 -107 -130 -291 -19 -71 -47 -147 -76 -209
-9 -17 -19 -71 -24 -121 -6 -72 -13 -96 -29 -112 l-21 -21 0 70 c0 82 -16 93
-45 30 -10 -22 -22 -40 -27 -40 -11 0 -10 75 2 125 13 57 -2 63 -42 16 -19
-23 -38 -41 -41 -41 -4 0 -7 54 -7 120 0 66 -4 120 -9 120 -13 0 -58 -56 -66
-81 -12 -37 -25 0 -25 73 0 37 -4 69 -9 73 -12 7 -65 -69 -90 -127 l-18 -42
-16 49 c-9 27 -17 55 -17 62 0 7 31 82 69 166 38 84 74 172 81 197 16 60 29
84 96 177 31 43 82 130 114 194 32 64 69 129 82 145 14 16 40 52 58 79 51 75
208 241 259 275 25 16 66 50 91 75 25 25 81 65 124 88 44 23 103 65 132 94 29
28 77 64 108 79 31 15 74 42 95 60 21 18 61 42 89 52 28 11 75 34 104 52 29
18 83 41 121 52 38 10 87 28 110 39 22 12 66 25 97 29 32 4 90 22 130 40 l73
32 56 -19 c106 -34 318 -13 420 42 14 8 27 14 28 15 1 0 18 -10 38 -21z m501
0 c60 -29 120 -88 184 -185 99 -149 148 -184 268 -192 39 -2 72 -6 72 -9 0 -2
-7 -15 -16 -29 -11 -15 -18 -50 -19 -91 -2 -42 -8 -69 -16 -75 -22 -15 -96 0
-140 27 -85 54 -129 112 -263 343 -32 56 -122 157 -165 185 -14 9 -23 19 -20
21 11 11 93 -40 155 -95 71 -65 86 -73 56 -31 -33 44 -94 99 -142 126 -35 20
-40 26 -22 26 12 0 43 -10 68 -21z m552 -15 c51 -19 53 -30 7 -38 -19 -4 -47
-18 -63 -31 l-28 -23 -53 40 c-59 45 -57 54 10 67 48 9 63 8 127 -15z m-2458
-32 c0 -4 -4 -22 -10 -41 -5 -18 -14 -78 -20 -132 -13 -121 -31 -174 -72 -216
-40 -41 -49 -42 -37 -1 5 18 9 49 8 68 l0 35 -15 -40 c-43 -121 -45 -125 -86
-146 -22 -11 -41 -19 -43 -17 -6 6 33 251 46 288 27 79 98 157 174 191 44 21
55 23 55 11z m1800 -82 c155 -183 222 -311 246 -470 17 -115 14 -250 -8 -334
-12 -42 -18 -50 -52 -61 -21 -7 -48 -23 -61 -35 l-24 -22 15 63 c48 202 55
313 29 460 -17 99 -43 177 -85 261 -32 63 -101 158 -139 192 -11 11 -21 23
-21 28 0 24 34 -4 100 -82z m824 21 l38 -24 -49 -26 c-26 -15 -67 -39 -89 -53
l-42 -27 -41 55 c-23 31 -38 60 -35 66 26 42 155 48 218 9z m131 -80 c43 -19
105 -67 105 -81 0 -5 -13 -11 -28 -15 -16 -3 -60 -24 -97 -46 -83 -48 -129
-60 -175 -45 -45 15 -48 32 -6 40 18 4 39 13 45 20 10 12 2 13 -49 9 -58 -6
-60 -5 -60 19 0 18 10 29 43 46 23 12 62 33 87 47 53 30 81 31 135 6z m-3029
-89 c-3 -5 -12 -64 -21 -132 -9 -68 -23 -139 -32 -159 l-17 -36 -6 40 -5 40
-23 -67 c-15 -43 -32 -72 -48 -82 -23 -16 -24 -16 -24 6 0 46 30 214 45 260
11 30 33 62 65 92 43 40 81 62 66 38z m3263 -69 c34 -41 33 -48 -5 -57 -15 -4
-52 -24 -83 -45 -119 -81 -152 -88 -203 -42 l-33 29 46 -5 c26 -3 55 -1 64 4
14 8 8 12 -30 18 -27 3 -60 11 -74 17 l-26 9 45 25 c132 71 166 84 217 84 47
0 54 -3 82 -37z m-1583 -71 c101 -132 203 -445 240 -734 19 -152 14 -257 -15
-323 -21 -48 -45 -65 -90 -65 -41 0 -46 14 -17 52 54 72 61 108 60 308 -1 200
-18 313 -70 470 -32 95 -102 245 -143 304 -42 60 -12 50 35 -12z m-123 -145
c-15 -153 -16 -196 -5 -343 18 -251 57 -445 111 -549 14 -27 27 -53 29 -57 8
-17 -46 -7 -62 11 -71 78 -136 489 -123 773 5 110 37 315 54 341 13 22 13 -13
-4 -176z m90 101 c88 -151 159 -388 178 -594 19 -217 -1 -353 -66 -429 l-17
-20 7 20 c32 99 30 328 -4 525 -23 129 -67 312 -106 439 -35 117 -33 129 8 59z
m-1827 5 c-4 -16 -13 -79 -20 -141 -9 -74 -21 -122 -33 -140 l-18 -27 -5 50
-6 50 -13 -64 c-8 -36 -24 -75 -37 -90 l-23 -26 5 115 c7 153 10 171 39 211
24 33 91 88 108 89 5 0 6 -12 3 -27z m3517 13 c40 -16 78 -56 55 -56 -9 0 -55
-20 -104 -45 -52 -27 -101 -45 -121 -45 l-34 0 28 26 28 26 -25 -7 c-14 -3
-41 -8 -60 -11 -31 -4 -33 -3 -16 8 183 126 191 129 249 104z m-1705 -161 c67
-248 99 -429 108 -610 6 -118 -6 -239 -25 -258 -34 -34 -109 263 -132 528 -14
169 -3 473 17 453 1 -2 16 -53 32 -113z m1850 45 c42 -19 152 -122 152 -142 0
-6 -15 -7 -37 -3 -21 4 -103 10 -183 14 -124 6 -190 19 -190 36 0 2 16 1 34
-2 19 -3 57 -2 83 2 l48 8 -40 8 c-22 4 -59 8 -82 8 -24 1 -43 4 -43 9 1 14
154 82 185 82 16 0 49 -9 73 -20z m-641 -12 c-11 -49 -118 -310 -160 -394 -25
-49 -88 -163 -141 -254 -174 -298 -252 -482 -264 -625 l-7 -80 -18 26 c-31 47
-41 139 -23 218 22 101 74 196 251 461 160 240 243 393 310 573 20 53 41 97
47 97 6 0 8 -10 5 -22z m-102 -128 c-64 -154 -134 -280 -289 -510 -219 -328
-258 -411 -258 -552 0 -54 6 -89 20 -121 l20 -46 -21 8 c-76 27 -76 230 -1
459 62 187 163 360 340 582 55 69 130 169 168 223 38 53 71 96 73 94 2 -2 -21
-64 -52 -137z m183 -41 c10 -189 -57 -534 -165 -849 -51 -149 -152 -313 -211
-344 -28 -14 -134 -37 -141 -31 -2 3 18 28 44 57 114 125 276 422 341 623 62
191 84 319 91 520 6 172 7 178 21 145 8 -19 17 -74 20 -121z m-3286 4 c-3
-106 -7 -142 -20 -161 l-17 -26 -8 44 c-11 53 -26 37 -28 -30 0 -25 -4 -54 -7
-65 -9 -26 -40 -70 -46 -64 -2 2 -8 58 -11 124 -9 155 0 190 69 261 29 30 56
54 62 54 5 0 8 -55 6 -137z m3220 -60 c-15 -171 -50 -347 -97 -484 -72 -210
-236 -502 -352 -626 -50 -53 -65 -61 -93 -43 -25 15 -17 140 14 235 37 109
137 315 234 477 92 155 183 333 219 428 14 36 34 89 45 118 14 39 23 51 31 43
8 -8 7 -50 -1 -148z m-2578 43 c46 -33 291 -276 493 -490 4 -5 -52 22 -125 59
-149 76 -210 125 -279 224 -87 123 -144 190 -181 212 -20 12 -39 24 -41 25 -1
2 0 8 4 14 12 20 64 2 129 -44z m3368 -4 c41 -20 136 -108 126 -117 -2 -2 -21
0 -43 5 -22 5 -83 10 -135 10 -108 0 -159 11 -185 40 -20 22 -18 23 42 11 60
-12 44 3 -37 34 -39 15 -70 31 -70 37 0 7 44 9 128 6 106 -3 135 -7 174 -26z
m-3412 -72 c20 -25 65 -84 98 -131 88 -124 139 -166 315 -255 140 -71 159 -84
239 -165 186 -186 289 -399 259 -533 -14 -64 -42 -92 -98 -99 -23 -3 -57 -17
-76 -31 -42 -32 -95 -43 -128 -26 -49 26 -112 86 -153 144 -63 89 -225 373
-288 506 -30 63 -87 171 -126 239 -66 115 -138 268 -130 277 2 2 40 -38 84
-89 44 -51 132 -150 195 -222 114 -129 182 -230 320 -474 68 -120 126 -196
160 -206 30 -10 59 21 59 62 0 83 -53 156 -295 403 -196 201 -526 569 -537
601 -4 10 -5 33 -2 49 l6 30 30 -18 c17 -9 47 -37 68 -62z m-760 -157 c8 -70
7 -98 -2 -119 -13 -27 -13 -27 -29 27 l-17 54 -1 -93 c-1 -66 -6 -102 -18
-125 l-16 -32 -12 60 c-7 33 -20 84 -29 114 -9 30 -16 73 -16 94 0 51 39 119
88 152 l37 25 3 -32 c1 -18 7 -74 12 -125z m4307 71 c37 -14 121 -89 110 -100
-2 -2 -21 3 -42 11 -20 9 -39 14 -41 12 -2 -2 23 -23 56 -47 63 -46 80 -71 31
-46 -16 9 -82 25 -147 36 -74 13 -140 31 -174 48 -66 33 -78 54 -23 41 49 -11
126 -12 119 0 -3 4 -25 11 -48 15 -53 8 -136 35 -143 46 -9 14 257 0 302 -16z
m-4477 -105 c0 -17 12 -74 26 -126 32 -118 35 -176 11 -200 -16 -16 -17 -16
-18 7 0 14 -4 34 -8 45 -6 14 -11 -1 -17 -54 -5 -41 -14 -76 -21 -78 -16 -6
-51 112 -59 196 -7 75 6 135 42 199 29 50 44 54 44 11z m4435 -59 c123 -20
182 -41 225 -77 22 -19 45 -43 50 -53 10 -19 9 -19 -32 0 -52 23 -64 16 -23
-13 39 -27 105 -95 105 -108 0 -5 -17 -1 -37 9 -21 11 -69 29 -108 42 -106 34
-199 87 -250 141 -50 53 -59 85 -22 76 12 -3 54 -11 92 -17z m-4555 -152 c0
-45 25 -144 48 -195 18 -40 18 -46 3 -93 -16 -50 -31 -66 -31 -31 0 10 -7 34
-14 52 -14 32 -15 28 -9 -66 4 -79 2 -104 -10 -119 -13 -18 -16 -9 -37 100
-27 144 -23 270 11 341 25 51 39 55 39 11z m4814 -115 c64 -24 146 -87 146
-113 0 -5 -23 3 -50 17 -28 14 -53 24 -56 21 -3 -3 17 -22 43 -41 26 -20 66
-54 88 -77 l40 -42 -40 19 c-22 11 -94 41 -160 66 -66 26 -137 60 -157 77 -38
31 -78 102 -78 137 0 23 -18 28 224 -64z m-3838 -16 c-23 -46 -126 -180 -133
-173 -8 7 29 91 58 132 47 69 93 118 97 105 2 -7 -8 -35 -22 -64z m4529 -108
c105 -500 57 -1114 -119 -1494 -99 -214 -329 -493 -516 -627 -72 -51 -209
-132 -214 -127 -9 10 -36 69 -36 78 0 5 30 31 68 57 99 71 298 273 390 399
147 198 238 405 323 732 107 419 130 736 74 1053 -8 47 -15 87 -14 90 2 17 22
-56 44 -161z m-4669 99 c-4 -13 -11 -57 -16 -98 -5 -41 -15 -93 -21 -115 l-13
-40 -7 40 c-10 52 4 143 30 194 23 45 37 54 27 19z m-907 -265 c25 -109 26
-142 5 -98 -14 29 -15 28 -9 -29 3 -33 2 -57 -2 -53 -3 4 -22 47 -41 95 -52
134 -55 230 -10 302 l22 35 7 -80 c4 -44 17 -122 28 -172z m1069 165 c-16 -30
-41 -54 -87 -81 -34 -21 -65 -36 -67 -34 -3 2 13 25 33 51 37 45 132 120 141
112 2 -3 -7 -24 -20 -48z m-245 -32 c-3 -36 -1 -85 6 -110 18 -71 -5 -104 -30
-43 -20 48 -18 157 4 190 9 15 19 27 21 27 2 0 1 -29 -1 -64z m864 -106 c42
-47 88 -107 104 -135 29 -51 38 -108 18 -120 -23 -15 -73 50 -178 233 -37 64
-76 130 -87 147 l-19 30 44 -35 c24 -19 77 -73 118 -120z m3218 72 c66 -27
134 -56 150 -64 40 -21 81 -66 95 -103 l11 -30 -38 36 c-38 36 -83 65 -83 53
0 -3 22 -31 50 -62 27 -30 48 -57 46 -59 -1 -2 -23 8 -47 21 -24 13 -81 36
-126 50 -130 43 -189 95 -200 177 -5 34 -3 41 8 36 8 -3 68 -28 134 -55z
m-4976 -211 c23 -56 41 -111 41 -124 0 -20 -2 -20 -21 8 l-21 30 6 -65 c10
-108 -6 -108 -60 3 -38 78 -48 110 -52 166 -6 91 4 153 31 188 l22 28 7 -66
c4 -42 21 -104 47 -168z m4365 191 c178 -84 278 -204 491 -587 43 -77 98 -170
122 -207 24 -38 40 -68 36 -68 -16 0 -102 119 -177 244 -175 292 -381 516
-569 618 l-72 39 54 -5 c29 -3 81 -18 115 -34z m-3259 -29 c-14 -26 -47 -54
-110 -94 -49 -32 -91 -56 -93 -54 -2 2 3 16 12 33 20 38 75 86 136 117 27 13
52 30 55 35 4 6 10 9 13 5 3 -3 -3 -22 -13 -42z m-248 -95 c19 -32 19 -35 2
-72 l-17 -38 -22 67 c-16 49 -21 79 -16 112 9 68 20 74 27 16 4 -29 15 -67 26
-85z m1855 42 c5 -41 14 -94 22 -117 16 -46 12 -51 -18 -28 -20 15 -45 114
-46 183 0 36 3 43 18 40 13 -3 19 -18 24 -78z m-1903 -124 c18 -52 20 -65 9
-95 l-12 -36 -22 70 c-23 70 -31 167 -17 202 6 13 10 4 14 -32 3 -27 16 -77
28 -109z m1751 108 c17 -14 51 -53 75 -85 45 -58 74 -76 213 -135 24 -9 61
-35 83 -57 73 -73 154 -282 150 -386 -1 -30 3 -69 9 -87 10 -28 7 -40 -18 -91
-16 -32 -40 -86 -52 -121 l-23 -63 -43 148 c-50 174 -127 336 -214 451 -69 93
-221 240 -285 278 -25 14 -45 27 -45 29 0 17 57 118 73 130 30 21 41 19 77
-11z m-1450 -11 c-1 -27 -80 -109 -147 -154 -43 -28 -90 -63 -105 -77 -32 -30
-34 -23 -12 42 18 53 63 96 166 157 60 35 98 48 98 32z m-347 -173 c16 -55 22
-103 18 -150 -2 -19 -14 0 -53 74 -44 87 -50 106 -46 146 3 25 13 59 23 74
l19 29 12 -59 c6 -32 18 -84 27 -114z m4266 113 c153 -54 185 -76 214 -142 14
-31 28 -67 31 -81 l7 -25 -21 28 c-18 23 -96 77 -111 77 -3 0 18 -24 47 -54
29 -29 58 -64 64 -77 13 -24 13 -24 -9 -5 -25 22 -31 26 -147 88 -109 58 -159
98 -184 149 -26 50 -27 94 -2 84 9 -5 59 -23 111 -42z m-5358 -52 c79 -51 110
-99 124 -195 7 -46 7 -48 -12 -37 -11 5 -34 39 -52 73 -17 35 -54 91 -81 126
-55 67 -49 78 21 33z m1479 -30 c-13 -25 -43 -46 -159 -111 -52 -29 -117 -75
-144 -101 -28 -27 -51 -48 -52 -46 -1 1 3 22 8 46 19 95 211 227 335 230 19 1
21 -2 12 -18z m-1311 -85 c22 -60 54 -196 48 -202 -2 -2 -13 7 -25 19 -20 21
-40 96 -66 247 -6 32 -5 33 7 15 8 -11 24 -47 36 -79z m2662 -28 c159 -157
265 -328 333 -537 114 -350 116 -357 120 -571 2 -107 7 -206 11 -220 5 -17 4
-22 -3 -15 -5 6 -24 62 -42 125 -67 237 -129 374 -211 462 -74 80 -276 377
-302 444 -9 23 -23 84 -32 135 -27 161 -54 209 -118 209 -26 0 -28 2 -16 16
23 27 122 73 140 63 9 -4 63 -54 120 -111z m71 -7 c115 -108 193 -213 263
-356 90 -184 160 -434 138 -494 -8 -20 -13 -9 -37 70 -59 203 -108 347 -142
419 -62 133 -159 267 -278 385 -86 84 -100 101 -62 76 26 -19 80 -63 118 -100z
m-2965 84 c47 -21 93 -70 93 -98 0 -4 -24 6 -52 22 -61 34 -187 71 -241 71
-38 0 -51 15 -19 23 9 3 51 5 92 6 60 1 85 -4 127 -24z m378 -253 c-3 -20 -8
-48 -11 -61 l-5 -24 -20 20 c-20 19 -57 165 -73 288 -6 48 -4 46 54 -68 52
-101 60 -123 55 -155z m732 149 c44 -84 51 -105 46 -136 l-6 -36 -27 48 c-14
26 -38 66 -53 87 -20 29 -27 51 -27 87 0 27 3 49 8 49 4 0 31 -45 59 -99z
m3641 15 c55 -51 90 -116 116 -218 14 -53 37 -121 51 -150 23 -48 24 -50 4
-28 -12 14 -35 52 -51 85 -17 33 -47 85 -66 115 -30 48 -122 233 -122 247 0 7
27 -14 68 -51z m739 -13 c134 -71 199 -133 205 -196 6 -54 3 -56 -17 -17 -18
34 -57 75 -89 92 -17 9 -17 8 2 -18 12 -16 30 -40 41 -54 32 -39 25 -42 -31
-14 -104 52 -174 110 -202 166 -23 46 -34 98 -22 98 3 0 54 -26 113 -57z
m-3929 35 c-2 -6 -55 -40 -118 -75 -137 -77 -202 -124 -241 -177 l-29 -40 0
36 c0 63 78 144 217 223 62 35 88 44 126 45 33 0 47 -4 45 -12z m1139 -34 c9
-14 27 -83 40 -152 27 -152 52 -208 163 -358 44 -60 80 -112 80 -116 0 -3 -37
16 -82 43 -45 27 -114 62 -155 77 -70 26 -73 29 -88 72 -8 25 -33 76 -55 114
-38 65 -40 72 -40 152 0 50 6 98 14 118 31 75 90 99 123 50z m1607 -3 c3 -5 1
-47 -5 -94 -9 -72 -8 -96 6 -144 9 -32 18 -67 21 -78 12 -46 -68 -203 -161
-316 -28 -34 -134 -139 -237 -235 l-187 -174 44 92 c24 51 57 134 74 184 30
90 81 347 81 414 0 30 5 37 33 50 26 12 33 21 35 52 4 43 -9 72 -42 94 -22 13
-28 13 -60 0 -23 -10 -42 -27 -53 -50 -15 -33 -15 -37 0 -54 23 -25 22 -81 -4
-199 -35 -163 -94 -316 -225 -588 l-58 -120 -7 60 c-18 157 -6 323 31 419 6
16 6 28 0 31 -15 9 -70 -111 -85 -184 -8 -36 -19 -115 -24 -176 -26 -266 -34
-336 -40 -333 -3 2 -18 10 -33 17 -24 12 -27 21 -34 90 -12 118 -8 267 10 363
18 93 70 254 112 342 83 175 384 439 584 512 81 29 213 44 224 25z m-3722
-166 c3 -139 1 -154 -21 -202 -24 -55 -32 -61 -49 -40 -10 12 -7 271 4 317 9
38 45 93 55 83 5 -5 10 -76 11 -158z m-564 145 c65 -9 139 -47 123 -63 -21
-21 -239 33 -249 61 -5 15 36 16 126 2z m1055 -72 c26 -38 49 -85 52 -105 3
-21 8 -48 11 -60 7 -36 -11 -27 -29 15 -9 21 -37 65 -62 99 -41 55 -45 66 -39
98 7 42 6 42 67 -47z m2561 66 c13 -5 14 -9 2 -32 -13 -26 -91 -267 -116 -361
-19 -71 -31 -36 -20 57 16 124 65 283 102 330 12 14 12 14 32 6z m-3180 -71
c21 -68 34 -253 19 -253 -6 0 -27 20 -47 44 -34 42 -36 47 -27 88 5 24 12 73
16 111 4 37 10 67 14 67 5 0 16 -26 25 -57z m1116 38 c0 -17 -77 -77 -169
-131 -118 -70 -175 -119 -213 -187 -16 -29 -31 -53 -32 -53 -9 0 9 120 21 144
38 73 176 186 272 221 41 15 121 19 121 6z m-893 -248 c-4 -47 -14 -78 -43
-132 -21 -39 -41 -71 -45 -71 -4 0 -15 12 -24 27 -17 25 -17 28 10 81 18 39
29 82 36 145 11 105 17 132 38 172 15 30 15 29 24 -65 4 -52 6 -123 4 -157z
m4309 41 c9 -32 14 -81 12 -126 l-3 -73 -43 90 c-47 99 -72 186 -72 255 l0 45
46 -70 c24 -38 52 -93 60 -121z m-2527 104 c64 -77 125 -174 159 -251 20 -45
20 -47 3 -47 -13 0 -36 31 -76 105 -32 58 -82 138 -111 177 -30 39 -54 75 -54
80 0 22 25 2 79 -64z m-2247 35 c10 -9 18 -20 18 -25 0 -31 -181 -41 -247 -13
l-38 16 35 19 c48 26 204 28 232 3z m828 -55 c28 -39 55 -90 61 -112 6 -23 15
-58 21 -79 16 -52 4 -56 -21 -6 -12 23 -47 73 -77 112 -47 60 -54 75 -54 113
0 24 4 44 10 44 5 0 32 -32 60 -72z m3792 -102 c29 -55 74 -122 100 -150 44
-49 56 -76 79 -176 l8 -35 -57 60 c-31 34 -89 115 -128 180 -57 97 -72 131
-77 177 -4 31 -10 65 -13 75 -13 39 36 -34 88 -131z m636 119 c21 -14 73 -47
117 -73 79 -46 80 -48 107 -117 36 -92 35 -108 -3 -62 -17 20 -39 42 -50 48
-15 7 -11 -4 16 -45 42 -65 63 -114 43 -99 -147 111 -184 143 -213 183 -19 26
-42 64 -50 84 -15 35 -21 106 -9 106 3 0 22 -11 42 -25z m-5138 -85 c0 -13
-52 -30 -94 -30 -46 0 -146 26 -146 38 0 18 26 32 60 32 19 0 51 8 70 18 l35
18 38 -35 c20 -19 37 -38 37 -41z m3645 49 c34 -65 4 -94 -68 -64 -45 18 -48
45 -11 74 37 29 61 26 79 -10z m-2404 2 c-14 -25 -65 -64 -186 -143 -112 -72
-189 -150 -206 -209 -7 -21 -16 -39 -21 -39 -18 0 -6 76 24 148 38 92 93 151
193 208 85 48 97 52 158 53 44 1 47 -1 38 -18z m-562 -85 c80 -96 121 -198
121 -297 l-1 -64 -33 71 c-19 40 -53 99 -76 133 -59 88 -80 138 -79 196 l0 50
17 -24 c9 -14 32 -43 51 -65z m-254 -233 c-7 -29 -39 -49 -91 -57 -60 -9 -62
10 -14 105 22 44 45 103 51 132 7 28 21 66 33 82 l21 30 3 -135 c1 -74 0 -145
-3 -157z m4319 175 c32 -94 32 -156 2 -263 -24 -83 -27 -83 -45 -2 -13 54 -3
379 10 355 4 -8 19 -48 33 -90z m-4943 50 l34 -12 -30 -12 c-44 -19 -55 -17
-55 11 0 28 4 30 51 13z m279 -44 l55 -56 -45 7 c-25 5 -99 9 -165 9 -66 1
-126 5 -134 10 -19 13 78 56 128 57 27 0 103 21 106 28 1 1 25 -24 55 -55z
m3501 -56 c-25 -171 -62 -327 -97 -419 -20 -52 -109 -238 -199 -414 -90 -176
-173 -345 -186 -375 -12 -30 -28 -62 -36 -70 -11 -12 -13 -11 -13 10 0 28 1
29 306 686 127 275 204 512 204 632 0 43 8 58 24 42 6 -6 5 -37 -3 -92z m942
-88 c25 -41 76 -108 112 -148 36 -40 65 -79 65 -86 0 -8 3 -29 6 -47 l6 -34
-18 25 c-10 14 -62 71 -116 127 -124 130 -144 162 -157 243 -17 104 -14 110
22 50 19 -30 54 -89 80 -130z m-4033 -122 c-8 -30 -23 -46 -66 -74 -31 -19
-57 -34 -59 -32 -8 10 -45 89 -45 98 0 5 9 10 20 10 11 0 36 7 56 15 42 17 64
63 64 134 0 28 8 67 18 87 l17 37 3 -119 c2 -67 -2 -135 -8 -156z m744 246
c-10 -14 -58 -49 -108 -79 -50 -29 -114 -73 -141 -97 -54 -48 -120 -143 -130
-189 -4 -16 -11 -27 -16 -23 -16 9 -10 60 16 143 20 63 36 91 74 133 69 75
150 122 226 129 107 11 98 13 79 -17z m2982 -16 c-3 -13 -7 -54 -11 -93 -8
-100 -31 -178 -76 -269 -66 -132 -247 -380 -378 -518 -53 -57 -55 -58 -110
-58 -75 0 -169 -24 -234 -57 -28 -16 -56 -29 -60 -31 -5 -2 16 36 45 84 33 56
85 121 138 175 79 80 97 92 225 156 84 41 140 75 140 83 0 33 -141 -8 -248
-72 -151 -89 -269 -215 -397 -426 -41 -67 -76 -120 -78 -118 -2 3 26 64 63
138 l67 133 303 300 c325 322 368 376 409 513 l18 59 67 -4 c50 -4 71 -1 86
11 28 21 36 20 31 -6z m-3557 -71 c58 -89 103 -174 121 -232 7 -22 16 -44 21
-49 5 -6 9 -26 9 -45 l0 -34 -50 69 c-27 38 -72 97 -99 131 -54 68 -78 142
-65 208 3 20 8 35 9 33 2 -2 26 -38 54 -81z m4532 29 c32 -30 85 -71 118 -91
35 -22 63 -47 70 -63 12 -34 24 -92 18 -92 -2 0 -16 18 -31 40 -14 21 -35 44
-47 50 -18 10 -16 3 15 -53 62 -110 46 -111 -60 -7 -52 52 -106 113 -120 136
-23 40 -44 134 -29 134 4 0 34 -24 66 -54z m-5385 18 c30 -8 54 -17 54 -19 0
-2 -16 -12 -35 -24 -19 -11 -35 -27 -35 -35 0 -17 84 -46 131 -46 27 0 27 -1
34 -84 4 -46 3 -95 -1 -109 -9 -23 -13 -21 -92 69 -45 51 -89 108 -96 126 -13
32 -27 138 -19 138 3 0 29 -7 59 -16z m761 -124 c-7 -140 -23 -178 -96 -235
-51 -41 -57 -42 -71 -16 -17 32 -12 39 44 76 64 43 73 61 82 162 6 71 25 133
41 133 3 0 3 -54 0 -120z m-390 72 c12 -15 22 -32 23 -38 0 -14 -47 -24 -114
-24 -63 0 -238 28 -250 40 -25 25 119 57 239 52 72 -4 82 -7 102 -30z m4659
-137 c-3 -33 -12 -80 -21 -105 -18 -50 -69 -119 -81 -107 -8 8 9 91 55 262 17
61 31 112 32 115 7 20 19 -117 15 -165z m-2556 94 c100 -24 239 -87 341 -156
129 -88 188 -158 246 -295 33 -79 86 -248 79 -255 -1 -2 -20 24 -40 57 -54 87
-135 166 -203 198 -47 22 -72 27 -133 27 -51 0 -85 -6 -106 -17 -31 -17 -32
-17 -100 24 -128 75 -259 126 -439 169 -110 27 -314 29 -445 5 -46 -8 -86 -14
-88 -12 -1 2 56 27 129 56 95 39 156 71 220 117 97 69 115 78 204 99 77 18
222 10 335 -17z m2154 -24 c19 -26 79 -96 134 -154 54 -58 104 -115 110 -126
11 -22 52 -179 52 -202 0 -26 -22 -1 -45 51 -30 66 -65 114 -157 212 -63 67
-79 91 -101 154 -49 139 -48 143 7 65z m-3185 19 c-13 -14 -66 -51 -118 -81
-109 -64 -201 -152 -249 -239 l-33 -59 5 57 c5 67 49 165 101 225 19 23 63 60
96 82 59 39 64 41 142 41 l80 0 -24 -26z m5042 3 c19 -12 45 -42 58 -66 l24
-43 -39 26 c-146 96 -385 20 -575 -182 -40 -42 -70 -69 -66 -59 4 10 7 25 7
33 0 20 81 105 155 163 168 133 350 186 436 128z m-6051 -46 c16 -31 12 -38
-30 -55 -47 -19 -113 -21 -176 -5 -39 10 -44 15 -44 39 l0 28 73 -5 c39 -3 88
-1 107 5 51 15 58 14 70 -7z m3684 -31 c-31 -57 -115 -153 -229 -260 -44 -41
-138 -131 -209 -200 -70 -69 -123 -114 -116 -100 7 14 78 88 159 165 239 229
346 339 381 394 42 65 49 66 14 1z m1457 -217 c4 -10 8 -36 8 -57 l1 -39 -28
39 c-52 71 -64 71 -32 0 49 -107 37 -131 -37 -77 -104 75 -189 258 -169 364
l6 33 122 -122 c67 -68 126 -131 129 -141z m-6369 162 c161 -203 294 -466 363
-717 31 -113 31 -141 4 -185 -12 -19 -30 -60 -39 -91 l-18 -57 -6 40 c-4 22
-13 76 -22 120 -8 44 -23 131 -35 193 -46 255 -138 497 -263 692 -75 117 -73
118 16 5z m833 -55 c90 -99 108 -130 99 -166 -6 -25 -7 -25 -31 16 -14 23 -27
39 -29 37 -2 -2 5 -33 16 -68 36 -116 28 -119 -56 -22 -112 130 -129 162 -128
249 1 88 10 106 34 67 10 -15 53 -66 95 -113z m5075 -35 c-18 -84 -54 -133
-116 -161 -30 -13 -57 -24 -59 -24 -3 0 -5 11 -5 24 0 13 17 45 38 72 22 27
61 94 87 149 l48 100 9 -55 c5 -35 5 -73 -2 -105z m-4227 27 c65 -81 137 -195
137 -217 0 -3 -11 7 -25 23 -14 17 -56 53 -94 81 -92 69 -121 112 -121 181 0
64 -5 68 103 -68z m578 91 c-16 -30 -52 -58 -155 -118 -118 -69 -177 -125
-215 -205 -25 -53 -30 -57 -35 -37 -13 52 34 147 113 231 63 67 167 138 190
132 9 -3 34 -1 56 4 22 4 44 8 48 9 4 0 3 -7 -2 -16z m-987 -19 c9 -23 -18
-60 -56 -80 -39 -20 -130 -28 -183 -17 l-40 9 49 32 c35 22 62 32 90 32 23 0
59 9 81 19 50 24 52 24 59 5z m-256 -10 c29 -8 28 -16 -8 -37 l-30 -18 0 30
c0 33 2 34 38 25z m4570 -227 c17 -21 51 -80 76 -132 42 -85 46 -101 45 -162
-1 -37 -4 -93 -8 -123 l-7 -55 -18 80 c-10 44 -22 96 -28 115 -28 93 -151 295
-208 344 -23 19 -70 123 -70 155 0 11 173 -165 218 -222z m-4928 159 c-16 -44
-12 -123 9 -164 11 -20 43 -67 73 -104 29 -37 72 -102 95 -145 40 -77 41 -80
47 -208 l6 -130 -44 91 c-67 141 -123 190 -278 249 -111 42 -144 110 -94 201
15 27 56 83 92 124 37 41 73 85 81 98 20 29 27 23 13 -12z m659 -3 c11 -24 9
-29 -20 -59 -50 -51 -117 -75 -231 -81 -72 -4 -98 -3 -98 6 0 14 76 50 107 51
12 0 47 11 77 25 30 14 59 25 63 25 5 0 24 13 43 30 19 16 38 29 41 30 3 0 11
-12 18 -27z m261 -45 c0 -49 -129 -132 -151 -96 -13 20 -12 24 30 51 22 15 52
42 68 62 25 32 29 34 41 18 6 -9 12 -25 12 -35z m640 13 c0 -16 -82 -80 -170
-134 -47 -28 -104 -70 -127 -94 -24 -23 -43 -40 -43 -37 0 3 11 29 25 57 47
101 191 215 273 216 23 1 42 -3 42 -8z m3193 -73 c126 -125 197 -255 236 -438
11 -50 29 -111 41 -137 11 -25 18 -48 16 -50 -8 -8 -46 56 -100 168 -69 143
-123 226 -185 281 -29 27 -54 60 -64 88 -24 65 -47 170 -36 170 4 0 46 -37 92
-82z m-4370 62 c28 0 20 -15 -16 -28 -45 -16 -47 -16 -47 14 0 22 3 25 23 20
12 -3 30 -6 40 -6z m4915 -143 c-16 -29 -37 -49 -68 -64 -50 -25 -142 -54
-149 -48 -2 3 0 19 5 36 9 33 14 37 75 64 23 10 58 43 95 91 l59 75 3 -56 c2
-43 -2 -65 -20 -98z m-5140 -32 c82 -90 88 -103 76 -164 -8 -38 -18 -33 -49
28 -13 26 -49 79 -81 117 -63 77 -84 118 -84 166 l0 32 29 -45 c15 -24 65 -84
109 -134z m2137 140 c153 -40 280 -95 426 -181 210 -124 314 -246 374 -434 10
-30 27 -71 38 -90 18 -29 18 -33 3 -21 -26 22 -61 88 -85 163 -40 122 -116
209 -265 302 -230 144 -422 214 -676 245 -142 18 -264 14 -435 -13 -39 -7 -39
-7 -14 8 22 13 114 33 224 50 17 2 93 3 170 1 113 -2 159 -8 240 -30z m-1591
-10 c9 -13 16 -28 16 -33 0 -4 -26 -21 -57 -37 -47 -23 -75 -29 -144 -33 -120
-6 -148 11 -43 27 79 12 142 40 178 80 24 27 30 26 50 -4z m327 -41 c77 -62
134 -124 148 -165 8 -24 7 -29 -6 -29 -32 0 -91 44 -119 87 -35 55 -74 89
-114 98 -17 4 -30 10 -28 13 2 4 10 19 17 34 16 31 14 32 102 -38z m1160 -4
c149 -24 277 -66 410 -133 268 -137 389 -248 429 -397 18 -66 46 -116 91 -161
l39 -39 -31 -63 c-38 -75 -110 -187 -121 -187 -4 0 -8 -7 -8 -16 0 -11 12 -7
46 18 46 32 108 106 153 181 12 20 27 37 32 37 16 0 79 -28 79 -36 0 -3 -31
-40 -70 -81 -38 -41 -80 -93 -92 -115 l-23 -41 -110 6 c-216 12 -286 37 -330
118 -14 27 -39 58 -55 69 -17 12 -30 26 -30 31 0 6 -12 35 -26 64 -14 30 -23
59 -19 65 6 10 -1 12 -115 29 -151 23 -273 105 -377 253 -53 75 -55 77 -76 63
-12 -8 -27 -15 -33 -15 -7 0 -41 25 -77 55 -73 63 -136 94 -188 95 -49 0 -89
-32 -89 -71 0 -31 31 -101 58 -131 35 -40 -41 -3 -79 39 -46 49 -63 93 -64
163 0 53 6 75 29 117 30 54 46 65 131 84 141 31 321 30 516 -1z m3367 -72 c19
-21 58 -49 87 -64 30 -14 56 -33 58 -42 2 -10 -5 -33 -14 -52 -34 -67 -36 -67
-59 -17 -23 48 -61 92 -46 52 4 -11 15 -48 24 -81 l16 -62 -29 -38 -29 -37
-37 42 c-60 67 -71 115 -63 271 l7 132 26 -34 c14 -18 41 -50 59 -70z m-4813
43 c3 -6 -7 -28 -22 -50 -24 -34 -36 -42 -83 -52 -68 -14 -148 -6 -173 19 -18
19 -17 19 61 24 60 5 93 13 138 35 70 35 71 36 79 24z m210 -15 c23 -10 46
-33 71 -71 20 -32 49 -64 65 -74 16 -9 29 -18 29 -21 0 -3 -16 -16 -36 -29
-99 -68 -235 -261 -288 -409 -30 -84 -31 -92 -30 -247 0 -178 25 -326 83 -500
17 -49 28 -91 26 -93 -8 -8 -34 58 -64 163 -38 130 -85 222 -150 296 -64 72
-155 197 -180 248 -28 53 -40 146 -29 222 12 88 57 166 138 239 52 46 77 77
105 134 20 40 50 87 67 105 48 49 127 64 193 37z m2580 -339 c-5 -36 -64 -181
-71 -174 -2 2 3 41 11 88 7 46 19 147 25 224 18 228 24 239 33 60 4 -88 5
-177 2 -198z m-3158 323 c14 -11 31 -20 38 -20 7 0 16 -11 19 -25 10 -40 59
-59 154 -58 45 0 82 -2 82 -4 0 -23 -52 -90 -109 -141 -99 -88 -134 -160 -139
-287 -5 -118 18 -192 88 -285 27 -35 47 -66 45 -69 -7 -7 -129 58 -167 89 -61
50 -106 128 -117 200 -21 134 -17 334 9 483 24 130 26 137 48 137 13 0 35 -9
49 -20z m4324 -71 c78 -52 136 -132 212 -289 33 -69 69 -137 79 -152 11 -16
17 -28 15 -28 -19 0 -283 246 -312 290 -40 64 -86 220 -64 220 5 0 37 -18 70
-41z m-1683 0 c67 -29 145 -111 227 -239 41 -64 75 -122 75 -128 0 -38 -50 18
-93 103 -61 121 -169 231 -277 279 -33 14 -34 15 -5 9 17 -3 49 -14 73 -24z
m2332 6 c0 -38 -53 -90 -161 -155 -55 -33 -102 -60 -104 -60 -9 0 -5 99 4 123
8 21 27 31 108 56 54 17 109 38 123 46 14 8 26 14 28 15 1 0 2 -11 2 -25z
m-2386 -28 c81 -37 179 -139 234 -243 24 -44 54 -92 68 -107 l24 -26 -36 -48
c-20 -26 -41 -58 -47 -70 -6 -13 -13 -23 -17 -23 -17 0 -43 44 -71 121 -17 46
-45 111 -62 144 -37 69 -150 193 -220 240 -31 21 -44 35 -35 39 27 12 106 -1
162 -27z m1066 8 c0 -2 -10 -9 -22 -15 -22 -11 -22 -10 -4 4 21 17 26 19 26
11z m-55 -33 c-29 -24 -85 -62 -85 -58 0 7 80 66 89 66 3 0 1 -4 -4 -8z
m-2795 -50 c0 -4 -16 -16 -36 -27 -68 -37 -159 -148 -219 -268 -81 -163 -107
-275 -108 -452 0 -94 5 -169 17 -229 9 -48 15 -90 13 -92 -5 -5 -32 119 -48
221 -17 107 -15 289 4 365 40 154 183 371 295 447 62 42 82 51 82 35z m79 -11
c11 -7 10 -11 -7 -20 -37 -20 -63 -113 -71 -251 -9 -157 -28 -203 -130 -315
-125 -136 -166 -212 -178 -329 -6 -56 -7 -59 -16 -31 -5 17 -10 100 -10 185
-1 130 2 169 21 243 56 223 166 399 307 488 66 43 64 42 84 30z m4107 -22 c-9
-47 -37 -99 -60 -114 -12 -7 -56 -15 -99 -18 -46 -3 -88 -12 -103 -22 -22 -14
-24 -14 -24 0 0 32 20 53 91 95 65 38 169 87 193 89 5 1 6 -13 2 -30z m-1536
-36 c-56 -61 -99 -123 -178 -253 -57 -95 -151 -213 -183 -230 -18 -10 -19 -10
-10 7 6 10 24 32 42 48 17 17 54 68 81 115 80 134 136 209 217 293 87 90 107
103 31 20z m-3920 -11 c175 -78 172 -75 286 -310 106 -218 153 -271 307 -347
73 -36 109 -61 142 -98 58 -63 108 -167 139 -285 14 -52 34 -109 45 -128 12
-20 21 -37 21 -39 0 -11 -302 100 -348 127 -98 59 -203 193 -222 282 -13 66
-45 2 -34 -69 l6 -40 -72 70 c-153 150 -306 432 -338 625 -10 59 -24 250 -18
250 1 0 40 -17 86 -38z m1440 -1 c88 -62 111 -266 52 -445 -14 -43 -22 -52
-50 -60 -42 -12 -48 -4 -23 31 12 16 24 51 27 78 6 46 3 53 -30 95 -34 43 -36
49 -36 123 0 74 -2 80 -30 108 -28 29 -29 32 -15 59 23 44 53 47 105 11z m89
-18 c59 -58 81 -120 81 -231 0 -94 -14 -142 -56 -190 -38 -43 -40 -38 -18 55
23 100 16 263 -15 323 -13 25 -33 55 -44 68 -39 42 3 22 52 -25z m3084 3 c18
-8 56 -32 85 -54 36 -27 68 -42 99 -47 88 -13 100 -26 144 -152 34 -99 62
-136 128 -172 74 -39 114 -78 146 -142 127 -249 84 -532 -112 -740 -36 -38
-69 -69 -74 -69 -4 0 4 25 18 56 24 53 26 68 29 239 3 172 1 186 -19 227 -14
28 -39 54 -71 75 -34 22 -59 49 -83 92 -65 116 -159 166 -263 141 -52 -12
-128 -61 -220 -140 -106 -91 -153 -107 -211 -73 -16 9 -35 34 -44 56 -54 134
-157 236 -290 287 l-30 12 55 28 c30 15 84 53 119 84 71 62 91 67 149 37 47
-24 77 -53 97 -92 9 -16 20 -27 25 -24 17 11 11 60 -15 111 -19 38 -37 57 -71
76 l-47 26 42 45 c24 25 64 56 89 69 111 53 257 73 325 44z m1008 -99 c17 -12
15 -17 -34 -74 -29 -34 -56 -60 -62 -59 -16 4 -18 75 -5 151 7 39 14 74 17 78
3 4 18 -13 35 -38 17 -25 38 -51 49 -58z m-171 49 c0 -31 -54 -76 -143 -119
-50 -24 -100 -54 -111 -65 -25 -28 -36 -19 -36 28 0 29 7 48 28 71 26 30 35
32 113 39 80 6 139 28 139 51 0 5 2 9 5 9 3 0 5 -6 5 -14z m760 10 c0 -2 -16
-14 -36 -27 -80 -49 -376 -299 -604 -510 -173 -160 -244 -219 -251 -211 -3 4
-9 24 -12 44 -5 35 -3 39 46 76 29 22 135 121 237 221 102 100 217 204 255
230 110 76 365 199 365 177z m-767 -134 c-10 -14 -48 -43 -83 -64 -77 -47
-121 -87 -146 -134 -10 -19 -21 -34 -25 -34 -6 0 -19 60 -19 92 0 34 53 78
153 126 56 27 109 57 117 67 14 17 15 17 18 -5 2 -12 -5 -34 -15 -48z m-1303
-13 c33 -7 62 -22 85 -44 44 -41 46 -64 2 -31 -78 60 -199 73 -297 33 -79 -32
-142 -78 -246 -179 -50 -48 -107 -94 -127 -103 -47 -19 -47 -7 -2 24 20 13 73
65 118 114 112 123 181 164 315 187 69 11 95 11 152 -1z m1289 -152 c-63 -58
-203 -167 -213 -167 -13 0 -5 88 10 110 35 52 91 103 156 141 37 22 73 50 80
62 11 20 13 18 21 -33 l9 -55 -63 -58z m-5920 122 c100 -44 174 -130 191 -222
6 -31 31 -114 55 -183 24 -69 47 -153 50 -187 l6 -62 -39 106 c-125 342 -286
507 -499 513 -35 0 -63 2 -63 2 0 9 61 37 102 49 63 17 134 11 197 -16z m3993
4 c10 -9 18 -29 18 -47 l-1 -31 -17 35 c-9 19 -25 36 -36 38 -30 6 -114 -93
-180 -212 -77 -137 -112 -169 -45 -40 123 234 201 312 261 257z m1531 -44 c39
-34 82 -66 93 -71 12 -6 24 -23 27 -38 4 -15 9 -40 13 -55 l7 -27 -59 33 c-72
39 -92 56 -110 91 -21 40 -54 128 -49 128 3 0 38 -28 78 -61z m-5091 -66 c34
-102 129 -289 195 -383 26 -36 85 -102 131 -148 47 -45 83 -84 81 -87 -7 -6
-129 103 -185 166 -108 121 -213 334 -258 524 -14 56 6 16 36 -72z m4048 45
c-56 -52 -166 -111 -230 -122 l-34 -6 34 35 c50 52 135 105 199 126 86 27 91
22 31 -33z m-1948 15 c57 -17 152 -85 189 -134 42 -54 83 -145 124 -269 22
-67 49 -130 66 -152 16 -20 29 -49 29 -63 l0 -27 -35 29 c-40 32 -92 126 -135
243 -49 135 -126 244 -215 305 -59 40 -154 68 -205 59 -28 -5 -33 -4 -23 6 28
30 116 32 205 3z m1447 -40 c10 -47 8 -57 -14 -105 -14 -29 -25 -59 -25 -65 0
-7 -4 -13 -10 -13 -17 0 -6 163 16 239 7 24 21 0 33 -56z m-74 -38 c-3 -30 -9
-55 -11 -55 -3 0 -16 7 -29 16 l-25 16 32 44 c17 24 33 42 36 39 2 -2 1 -29
-3 -60z m-3510 18 c11 -61 82 -230 132 -314 72 -121 131 -188 282 -318 171
-147 185 -156 351 -232 74 -34 139 -65 145 -70 15 -15 -369 117 -432 148 -70
34 -142 99 -184 163 -18 27 -36 47 -40 44 -17 -10 -9 -79 15 -129 45 -97 138
-157 301 -195 130 -29 265 -72 265 -83 0 -5 -6 -7 -12 -5 -37 14 -270 74 -471
123 l-228 55 -82 71 c-45 39 -87 80 -93 92 -6 12 -14 67 -17 122 -4 66 -15
126 -32 178 -34 107 -34 178 3 248 48 91 77 139 83 139 4 0 10 -17 14 -37z
m3495 -105 c0 -4 -15 -2 -32 4 -41 14 -42 14 -33 27 7 12 65 -16 65 -31z
m2430 0 c0 -18 -4 -38 -8 -43 -7 -10 -143 -57 -149 -51 -4 4 139 126 149 126
4 0 8 -15 8 -32z m-1915 -37 c121 -60 215 -192 266 -376 51 -181 12 -590 -82
-853 -24 -67 -241 -513 -247 -508 -4 5 31 185 59 301 64 259 4 850 -114 1139
l-24 58 18 60 c16 50 17 70 9 121 -5 33 -14 65 -20 71 -39 39 45 31 135 -13z
m-164 10 c19 -15 24 -30 27 -87 3 -56 -1 -82 -22 -138 -35 -93 -57 -219 -47
-273 10 -53 -3 -56 -20 -5 -21 59 -14 147 20 256 17 54 31 118 31 143 0 50
-23 103 -46 103 -8 0 -12 5 -9 10 10 16 41 12 66 -9z m-1697 -31 c92 -46 200
-155 232 -236 29 -71 29 -72 2 -47 -13 11 -55 41 -95 66 -39 25 -84 62 -100
82 -60 76 -183 135 -282 135 -41 0 -32 14 19 29 65 19 148 8 224 -29z m456
-86 c8 -28 10 -68 6 -105 -6 -63 -38 -149 -54 -149 -5 0 -18 12 -27 27 -17 26
-17 31 -2 89 25 93 21 145 -18 249 -5 12 9 4 38 -24 30 -29 49 -58 57 -87z
m1184 87 c7 -11 -137 -91 -163 -91 -19 0 -62 29 -46 30 6 1 25 3 43 5 19 1 59
17 90 33 64 34 68 36 76 23z m2569 -26 c77 -22 262 -104 254 -112 -2 -1 -41
10 -88 26 -291 99 -554 49 -889 -168 -94 -61 -200 -121 -215 -121 -3 0 -5 15
-5 33 0 26 6 36 30 50 16 10 81 64 144 121 122 110 148 125 301 167 168 46
320 47 468 4z m-2833 -26 c0 -10 5 -19 10 -19 6 0 24 -10 39 -21 29 -21 71
-23 112 -5 13 6 25 -7 54 -53 l36 -61 -17 -70 c-31 -130 -3 -240 76 -295 55
-38 84 -30 39 11 -33 29 -49 77 -48 146 1 104 13 115 37 33 66 -218 92 -412
92 -673 0 -198 -26 -426 -77 -672 -22 -109 -24 -133 -15 -190 10 -63 6 -140
-7 -140 -11 1 -81 57 -100 81 -26 33 -66 116 -80 164 -7 22 -18 121 -25 220
l-12 180 -57 115 c-84 170 -109 272 -111 445 -3 159 -6 170 -87 267 -121 146
-100 331 56 497 66 70 85 79 85 40z m290 -25 c0 -41 -8 -42 -34 -7 -18 25 -18
26 -1 39 25 18 35 9 35 -32z m-971 -32 c40 -78 93 -107 233 -128 56 -8 103
-16 105 -17 1 -2 -36 -42 -83 -91 -205 -213 -263 -355 -251 -606 8 -145 34
-246 94 -363 40 -76 67 -112 160 -208 139 -142 200 -177 255 -148 18 10 20 9
15 -6 -4 -9 -7 -20 -7 -25 0 -18 -66 -70 -108 -85 -217 -74 -383 142 -422 550
-12 125 -56 343 -91 454 -22 70 -64 157 -128 266 -47 80 -51 116 -20 177 12
23 30 74 41 112 21 78 41 105 107 147 52 33 71 28 100 -29z m929 -2 c22 -33
29 -60 15 -60 -9 0 -63 82 -63 94 0 16 26 -2 48 -34z m1087 11 c49 -23 79 -54
119 -126 21 -38 46 -65 81 -88 62 -40 86 -81 86 -144 0 -301 -7 -340 -75 -446
-60 -93 -122 -138 -241 -178 -91 -30 -164 -31 -202 -3 -38 28 -82 102 -90 149
l-6 38 42 -46 c96 -104 234 -103 355 4 152 134 144 400 -16 544 -84 75 -175
92 -400 71 -119 -11 -150 -3 -93 24 22 10 81 52 130 93 148 125 220 150 310
108z m655 5 c0 -10 -121 -98 -127 -92 -13 12 8 34 63 64 64 34 64 34 64 28z
m-3604 -46 c208 -14 308 -52 466 -179 199 -158 301 -318 365 -570 43 -171 63
-301 63 -413 0 -82 -17 -188 -29 -188 -10 0 -107 132 -146 198 -20 35 -57 109
-82 165 -52 118 -169 300 -249 386 -84 91 -212 166 -378 221 -60 20 -82 22
-185 18 -94 -4 -130 -10 -191 -33 -124 -46 -223 -119 -286 -211 -36 -52 -38
-53 -57 -37 -59 54 -103 195 -93 300 11 130 85 227 226 298 134 67 179 71 576
45z m4225 -34 c118 -30 187 -61 293 -129 147 -97 290 -249 366 -392 l31 -60
-28 35 c-135 166 -223 246 -388 357 -284 190 -411 200 -685 56 -230 -122 -292
-153 -306 -153 -24 0 -16 20 14 33 35 15 147 81 242 142 41 26 115 68 164 92
108 52 156 55 297 19z m-2901 -103 c-52 -39 -147 -140 -198 -208 -100 -136
-142 -263 -142 -433 0 -145 27 -253 99 -397 31 -62 54 -112 50 -109 -19 12
-86 127 -112 192 -39 102 -57 204 -57 327 0 164 27 263 103 377 56 84 246 278
272 278 16 0 14 -5 -15 -27z m654 -50 c56 -172 82 -314 112 -603 21 -210 14
-327 -30 -525 -40 -175 -45 -168 -14 18 30 179 32 553 5 727 -21 133 -57 282
-92 377 -21 58 -24 83 -10 83 2 0 15 -35 29 -77z m-605 2 c-6 -32 -8 -79 -4
-104 8 -57 41 -134 66 -157 25 -22 24 -35 -7 -96 -17 -34 -67 -92 -140 -164
-104 -102 -114 -116 -114 -149 0 -20 10 -53 22 -74 l22 -39 -23 -96 c-18 -73
-22 -113 -18 -163 l5 -67 -19 25 c-36 47 -109 205 -130 284 -17 62 -22 109
-22 210 -1 117 2 138 27 210 41 119 106 215 228 339 59 60 110 107 113 104 3
-2 0 -31 -6 -63z m2647 30 c7 -19 14 -51 14 -72 l-1 -38 -19 37 c-18 33 -40
58 -40 44 0 -3 9 -29 20 -57 22 -54 20 -70 -4 -50 -8 6 -38 20 -67 31 -40 14
-53 23 -51 36 4 18 1 18 -93 -2 -27 -6 -28 -5 -15 9 18 19 198 97 223 97 11 0
24 -13 33 -35z m249 -52 c14 -30 17 -53 12 -122 -16 -227 -114 -429 -300 -613
-86 -86 -179 -158 -204 -158 -36 0 2 230 41 252 7 4 30 32 51 63 25 35 60 69
101 95 34 23 65 48 68 57 4 8 -2 29 -13 47 -13 21 -16 38 -11 52 10 27 60 68
127 106 95 54 140 125 109 173 -13 20 -25 25 -57 25 -37 0 -40 2 -28 17 12 14
63 42 80 43 4 0 15 -17 24 -37z m-1665 -8 c233 17 313 2 385 -70 24 -24 56
-67 72 -97 26 -48 28 -62 28 -158 0 -120 -15 -161 -85 -229 -141 -137 -327
-90 -384 97 -7 21 -4 22 39 22 78 0 137 -45 174 -133 22 -51 41 -55 41 -9 0
81 -41 144 -124 193 l-51 31 73 -5 c80 -5 111 -23 137 -82 l13 -30 1 33 c2 93
-110 181 -215 169 -53 -6 -49 5 14 37 86 43 126 50 176 27 48 -21 63 -41 81
-111 l12 -45 7 33 c6 25 2 44 -16 79 -19 39 -35 53 -88 82 -57 31 -74 35 -135
35 -95 0 -183 -43 -275 -134 l-65 -66 3 82 c4 73 -4 153 -24 251 l-6 33 48
-21 c45 -20 57 -21 164 -14z m1724 -145 c0 -58 -6 -130 -13 -160 -31 -131
-135 -293 -278 -432 -57 -56 -251 -208 -265 -208 -24 0 0 24 63 65 39 25 113
88 164 138 204 203 315 453 303 686 -4 84 -4 85 11 51 10 -24 15 -69 15 -140z
m96 102 c39 -47 44 -82 28 -173 -10 -55 -11 -107 -5 -204 14 -215 -8 -286
-139 -446 -70 -86 -106 -113 -213 -160 -129 -58 -171 -65 -266 -45 -43 9 -80
18 -81 19 -2 2 2 20 8 41 10 30 27 48 92 94 179 126 324 273 406 412 66 111
93 207 94 335 1 61 -3 127 -7 147 l-8 37 31 -10 c16 -6 44 -27 60 -47z m-6650
33 c13 -15 8 -25 -27 -63 -7 -7 -13 -28 -13 -45 0 -33 -23 -77 -41 -77 -5 0
-21 11 -34 25 -45 44 -29 131 30 163 29 16 70 14 85 -3z m878 -146 c69 -75
152 -121 327 -179 83 -28 166 -61 185 -74 19 -12 48 -26 65 -30 16 -4 35 -12
42 -17 17 -15 -3 -64 -39 -94 -37 -32 -58 -22 -88 39 -28 58 -89 99 -280 186
-161 73 -226 113 -266 164 -30 37 -54 98 -54 136 0 21 5 16 29 -26 16 -28 52
-75 79 -105z m5156 80 c-9 -24 -18 -84 -21 -134 -5 -79 -9 -94 -34 -126 -35
-44 -35 -51 -8 -88 11 -15 25 -56 31 -92 10 -58 9 -72 -15 -154 -23 -76 -27
-109 -27 -211 0 -108 -2 -124 -21 -148 -17 -22 -28 -26 -72 -26 -29 -1 -76 -9
-106 -19 l-53 -19 6 44 c7 53 25 92 76 159 63 84 84 134 84 196 1 46 -4 62
-27 92 l-28 37 25 33 c38 50 48 84 55 192 6 79 13 112 35 158 27 57 104 162
112 154 2 -2 -3 -24 -12 -48z m-157 -32 c-30 -35 -95 -124 -144 -198 -50 -74
-120 -168 -155 -209 -123 -144 -285 -268 -422 -322 -74 -29 -91 -32 -191 -33
-132 0 -244 29 -271 70 -20 30 -29 124 -19 201 6 53 12 64 55 106 26 27 56 48
66 48 17 0 19 -8 19 -62 1 -90 28 -161 84 -218 58 -60 92 -68 196 -45 99 22
215 81 293 149 35 31 79 68 98 83 83 63 187 227 215 338 7 28 16 54 20 59 4 5
40 22 79 37 40 16 82 36 93 44 42 29 37 14 -16 -48z m296 21 c61 -27 97 -69
97 -115 l0 -35 -40 36 c-22 20 -43 36 -46 36 -3 0 10 -22 30 -49 30 -41 34
-50 22 -60 -12 -10 -23 -3 -59 32 -25 25 -63 51 -88 59 -47 16 -47 16 -28 91
9 36 12 38 37 32 15 -4 48 -16 75 -27z m-256 -68 c-37 -72 -42 -90 -47 -178
-8 -111 -23 -153 -74 -201 -20 -19 -36 -39 -36 -43 0 -5 13 -14 29 -19 30 -11
61 -60 61 -97 0 -38 -30 -105 -76 -165 -59 -78 -72 -104 -87 -174 -15 -66 -36
-86 -112 -107 -27 -8 -82 -25 -121 -39 -40 -14 -97 -30 -127 -36 -31 -6 -73
-21 -94 -35 -21 -14 -58 -32 -83 -41 -26 -9 -66 -37 -95 -64 -60 -58 -83 -71
-127 -71 -72 0 -137 69 -187 199 -16 42 -34 107 -40 144 -10 57 -51 185 -86
270 -6 15 2 13 41 -11 128 -79 317 -104 456 -62 242 73 443 254 688 620 52 77
144 190 155 190 2 0 -16 -36 -38 -80z m-5889 11 c90 -72 331 -159 652 -237
124 -30 273 -68 332 -84 59 -17 116 -30 127 -30 11 0 23 -5 27 -11 14 -23
-195 -2 -397 39 -289 60 -418 106 -652 233 -126 68 -122 66 -132 97 -8 29 -1
28 43 -7z m639 -68 c52 -52 112 -83 263 -139 63 -24 111 -43 105 -43 -28 -2
-246 59 -285 79 -90 45 -145 105 -164 180 -7 24 -6 24 15 -5 13 -16 42 -49 66
-72z m690 45 c-3 -8 -6 -5 -6 6 -1 11 2 17 5 13 3 -3 4 -12 1 -19z m3678 3
c-6 -5 -27 -14 -47 -20 -56 -18 -147 -82 -206 -144 -99 -106 -152 -266 -132
-395 5 -31 8 -58 6 -60 -7 -6 -56 30 -66 48 -6 10 -6 30 -1 48 5 17 17 80 26
139 17 107 22 127 53 191 31 65 160 168 242 193 36 10 136 11 125 0z m-2754
-46 c122 -47 220 -105 293 -174 73 -70 212 -278 261 -391 51 -118 98 -202 162
-287 57 -78 57 -100 0 -32 -53 62 -130 191 -196 332 -104 221 -192 336 -322
423 -132 88 -281 134 -430 134 -106 0 -188 -18 -269 -58 -61 -31 -159 -116
-191 -168 -12 -19 -24 -33 -26 -30 -18 18 104 149 187 201 99 63 232 97 356
90 63 -3 103 -12 175 -40z m-851 -163 c0 -2 -4 0 -10 3 -9 6 -61 161 -59 181
0 7 67 -172 69 -184z m4695 136 c26 -18 53 -44 60 -58 40 -76 55 -112 50 -121
-10 -14 -23 -11 -29 9 -3 9 -17 31 -31 47 l-26 30 17 -40 c28 -67 28 -80 2
-92 -20 -9 -31 -3 -90 50 -67 59 -67 59 -53 88 8 15 15 48 15 74 0 56 17 59
85 13z m-3912 -14 c87 -22 231 -94 302 -151 88 -71 155 -167 251 -358 47 -93
95 -186 107 -205 19 -32 16 -30 -41 21 -156 140 -343 183 -518 118 -83 -31
-124 -59 -221 -150 -129 -122 -223 -159 -399 -159 -157 0 -273 37 -371 116
-106 86 -112 237 -15 337 53 55 70 62 93 41 29 -26 103 -14 142 24 23 24 31
41 35 84 6 64 47 126 124 187 136 109 321 144 511 95z m1518 -71 c22 -35 24
-50 25 -178 1 -137 4 -156 50 -313 l6 -22 -53 26 c-105 53 -223 26 -280 -64
-16 -25 -29 -57 -29 -70 0 -23 1 -24 23 -8 48 35 96 55 146 62 56 7 67 -4 25
-26 -28 -15 -68 -78 -78 -124 -7 -28 -8 -29 -61 -23 -30 3 -59 8 -65 12 -17
10 -11 116 10 196 25 93 25 117 0 154 -39 58 -30 76 93 198 80 80 119 127 136
165 14 28 26 52 27 52 1 0 13 -17 25 -37z m1269 27 c20 -5 45 -17 55 -25 18
-14 15 -15 -42 -9 -73 8 -150 -8 -213 -43 l-45 -25 36 37 c22 22 58 45 90 56
63 21 72 22 119 9z m-60 -101 c48 -21 95 -61 112 -94 6 -11 -9 -1 -34 22 -61
55 -109 70 -184 54 -32 -6 -59 -9 -62 -7 -7 8 73 45 98 45 14 0 45 -9 70 -20z
m1119 -37 l64 -58 -39 -54 -39 -54 -8 64 c-4 36 -18 86 -31 113 -12 26 -20 47
-17 47 3 -1 35 -27 70 -58z m-4892 3 c72 -27 173 -84 173 -97 0 -4 -13 -8 -30
-8 -21 0 -35 8 -46 26 -17 25 -83 64 -154 90 -19 7 -29 13 -23 13 7 1 43 -10
80 -24z m-437 -55 c102 -22 187 -40 190 -40 3 -1 -16 -8 -43 -15 -83 -23 -227
4 -324 61 -42 24 -61 53 -25 39 9 -4 100 -24 202 -45z m-228 15 c41 -35 92
-60 162 -80 31 -9 55 -20 51 -23 -3 -3 -63 -6 -133 -6 -75 -1 -129 -5 -131
-11 -7 -18 54 -45 118 -51 34 -4 58 -10 54 -14 -13 -12 -131 -48 -213 -66 -83
-18 -225 -23 -282 -11 l-38 8 29 57 c35 69 68 101 141 137 44 22 192 82 209
85 2 0 17 -11 33 -25z m1048 -61 c0 -49 -45 -94 -93 -94 -50 0 -51 10 -4 40
23 14 51 43 61 63 23 42 36 39 36 -9z m-315 -13 c-11 -4 -67 -11 -125 -15 -58
-3 -133 -11 -165 -17 -33 -5 -76 -12 -95 -14 -19 -2 -55 -8 -80 -13 -74 -17
-173 -23 -205 -14 -23 7 -4 10 85 15 64 3 153 15 200 27 47 12 112 24 145 28
91 10 263 13 240 3z m144 -30 c9 -17 5 -21 -42 -36 -78 -25 -223 -97 -302
-150 -133 -89 -194 -166 -231 -292 l-14 -48 5 54 c6 77 45 148 126 235 98 105
261 209 379 241 63 18 68 17 79 -4z m-189 -5 c0 -2 -30 -21 -67 -42 -38 -20
-81 -47 -98 -59 -16 -12 -41 -25 -55 -28 -64 -16 -164 -100 -385 -323 -188
-190 -240 -237 -288 -259 -98 -47 -182 -47 -207 0 -12 23 -18 25 -56 19 -35
-5 -53 -1 -98 21 -49 24 -59 26 -91 15 -70 -23 -109 -111 -86 -195 l10 -39
-22 22 c-18 19 -22 34 -22 90 0 121 75 232 201 300 61 32 63 32 200 32 114 0
146 4 180 19 23 10 45 24 48 30 9 14 7 14 -44 -4 -29 -10 -82 -15 -166 -15
l-124 0 21 41 c18 33 21 52 17 104 l-6 64 52 -21 c41 -16 72 -20 156 -20 130
1 222 24 380 93 170 75 324 127 425 143 102 16 125 18 125 12z m-375 -56
c-305 -138 -377 -161 -530 -167 -107 -5 -126 -3 -179 17 -51 20 -56 24 -43 37
12 13 18 13 38 2 16 -9 60 -13 134 -13 131 1 255 26 383 79 104 44 136 53 182
53 29 1 31 -1 15 -8z m439 -67 c-60 -89 -71 -212 -30 -332 50 -145 42 -264
-28 -415 -19 -42 -36 -76 -39 -76 -2 0 -2 37 1 83 3 70 0 95 -26 177 -16 52
-33 117 -36 144 -3 26 -18 76 -33 110 -23 49 -28 75 -27 133 0 61 4 76 23 97
21 23 191 116 211 116 5 0 -2 -17 -16 -37z m-392 -135 c-68 -91 -94 -157 -95
-243 0 -79 24 -175 50 -196 15 -13 16 -12 10 11 -38 135 11 305 115 403 28 26
55 47 60 47 6 0 8 -17 5 -42 -3 -24 -3 -63 1 -88 8 -49 -7 -169 -33 -270 -18
-68 -48 -144 -140 -354 -65 -149 -85 -224 -85 -317 0 -91 41 -246 93 -351 l44
-87 -36 28 c-66 53 -266 265 -304 324 -140 212 -163 461 -70 732 27 76 34 85
168 228 113 121 241 237 261 237 2 0 -18 -28 -44 -62z m3747 -48 c86 -221 82
-349 -16 -545 -35 -69 -111 -180 -119 -173 -2 3 12 36 31 75 20 38 47 114 61
169 34 132 30 260 -11 378 -27 79 -27 80 -11 133 10 29 21 51 26 48 5 -3 23
-41 39 -85z m-897 68 c50 -15 123 -79 149 -130 l21 -40 -35 35 c-20 19 -60 47
-91 62 -48 23 -65 27 -123 23 -38 -2 -83 -11 -102 -21 -19 -9 -36 -16 -38 -14
-9 10 45 62 81 78 48 22 84 24 138 7z m-1084 -39 c69 -23 136 -67 187 -120
l40 -41 -104 6 c-111 8 -364 46 -474 72 -79 19 -78 27 13 68 107 48 229 54
338 15z m4332 -99 c0 -74 -25 -169 -62 -235 -19 -33 -39 -48 -108 -82 -46 -23
-134 -58 -193 -78 -136 -44 -412 -101 -554 -115 -118 -11 -363 -14 -363 -4 0
4 14 22 30 41 30 34 37 57 21 67 -5 3 -15 -1 -22 -10 -45 -55 -141 -61 -309
-20 -96 23 -129 27 -200 23 -47 -3 -96 -8 -110 -12 l-25 -8 25 27 c14 14 49
35 77 45 29 10 65 28 81 40 37 26 173 54 230 48 34 -4 50 -12 71 -37 30 -37
32 -37 153 -5 l68 18 99 -32 c54 -17 110 -31 124 -31 31 0 73 34 112 89 32 47
42 49 142 25 160 -38 412 17 567 124 43 30 111 126 121 173 11 50 25 22 25
-51z m-3162 11 c60 -44 59 -50 -5 -44 -76 7 -131 -9 -173 -49 l-33 -33 7 34
c9 46 30 78 69 101 45 28 87 25 135 -9z m-2445 -201 c60 -79 117 -176 188
-312 69 -133 122 -222 166 -278 142 -177 368 -324 555 -361 56 -11 185 -7 222
7 30 11 16 -14 -39 -74 -96 -104 -232 -152 -372 -132 -109 15 -189 56 -328
169 -47 38 -88 56 -192 81 -28 7 -61 28 -98 62 -114 104 -198 256 -230 416
l-17 83 25 57 c55 122 63 253 22 379 -29 91 -31 115 -5 58 10 -22 56 -92 103
-155z m883 171 c34 -11 133 -32 220 -46 88 -15 163 -30 168 -35 14 -14 -2 -53
-29 -73 -24 -17 -30 -17 -108 -2 -107 21 -194 51 -235 82 -18 14 -36 22 -40
18 -4 -4 6 -29 21 -57 16 -28 26 -53 22 -56 -8 -8 -108 -20 -178 -21 -59 -1
-147 16 -147 28 0 3 22 17 49 29 27 13 80 52 117 87 38 35 71 64 74 64 3 1 33
-8 66 -18z m2296 -28 c9 -27 14 -51 12 -55 -5 -8 -84 -22 -90 -15 -6 6 48 117
57 117 3 0 13 -21 21 -47z m-653 -46 c63 -42 46 -51 -83 -43 -178 12 -196 19
-128 56 55 30 155 24 211 -13z m-2854 -165 c-9 -46 -40 -128 -76 -207 -97
-208 -121 -289 -127 -425 -5 -132 4 -174 82 -390 31 -85 39 -117 26 -100 -35
45 -87 153 -116 240 -26 75 -29 100 -29 205 0 139 4 153 101 371 83 187 121
302 137 407 l12 82 3 -53 c2 -30 -4 -88 -13 -130z m1931 92 c62 -62 115 -94
154 -94 18 0 21 4 16 28 -7 30 18 126 26 102 3 -8 14 -45 26 -83 24 -79 22
-82 -71 -93 -46 -5 -65 -3 -101 15 -64 29 -203 68 -274 77 -82 9 -88 14 -63
54 30 49 55 59 146 56 l80 -3 61 -59z m-1532 -53 c35 -47 98 -147 141 -221
123 -215 183 -298 290 -405 107 -107 178 -155 310 -207 73 -29 90 -32 190 -33
61 0 130 4 155 8 39 7 43 6 30 -6 -34 -32 -208 -47 -300 -27 -76 17 -259 115
-347 185 -149 119 -207 198 -358 489 -43 81 -106 186 -141 233 -35 46 -64 87
-64 90 0 13 34 -25 94 -106z m4693 57 c131 -29 166 -32 306 -33 145 0 155 -1
115 -13 -83 -24 -205 -26 -303 -4 -55 12 -96 17 -106 11 -9 -4 -35 -33 -58
-63 -54 -72 -73 -77 -176 -42 -119 39 -136 41 -214 17 -86 -26 -96 -26 -115 1
-9 12 -26 28 -38 34 -23 12 -22 13 14 28 21 9 49 16 64 16 15 0 42 10 61 21
108 67 233 74 450 27z m-2498 -3 c128 -14 211 -34 211 -49 0 -3 -34 -3 -75 1
-41 3 -75 3 -75 0 0 -3 36 -14 80 -23 44 -10 80 -21 80 -25 0 -4 -17 -11 -37
-17 -33 -8 -34 -10 -11 -11 40 -2 58 -11 58 -31 0 -23 -29 -48 -60 -51 -55 -5
-70 0 -70 24 0 39 -18 47 -56 25 -43 -25 -67 -20 -122 28 -55 47 -116 161 -79
149 6 -2 77 -11 156 -20z m-1214 -15 c39 -10 117 -26 175 -35 332 -51 443 -90
539 -189 l34 -35 -109 5 c-285 14 -348 21 -431 54 -44 17 -112 52 -149 79 -75
54 -182 158 -149 147 11 -4 52 -16 90 -26z m2155 -39 c0 -60 -3 -74 -26 -101
-15 -17 -39 -37 -55 -45 -29 -15 -159 -21 -159 -7 1 4 24 52 53 107 l52 100
50 6 c28 3 58 7 68 7 15 2 17 -7 17 -67z m-3095 40 c78 -30 195 -44 300 -36
88 7 96 6 146 -20 107 -53 162 -129 224 -305 50 -144 79 -194 165 -281 67 -69
82 -79 145 -99 39 -11 98 -22 132 -22 l62 -1 -31 -40 c-44 -55 -84 -69 -209
-75 -125 -5 -178 7 -316 74 -170 81 -327 257 -491 546 -56 99 -110 182 -163
251 -11 15 -19 27 -17 27 1 0 26 -9 53 -19z m2469 -97 c4 -53 5 -98 3 -100 -3
-3 -16 -2 -29 1 -22 6 -25 12 -25 53 1 26 -3 68 -7 95 l-9 47 30 0 30 0 7 -96z
m-2804 -195 c0 -95 -18 -155 -90 -299 -71 -142 -109 -260 -117 -362 -3 -43 -9
-78 -13 -78 -4 0 -20 42 -36 93 -25 79 -29 107 -28 197 1 135 23 212 113 411
66 146 100 248 102 300 0 13 16 -23 34 -81 27 -81 35 -122 35 -181z m1255 203
c74 -69 151 -114 262 -153 45 -16 99 -23 238 -29 245 -12 283 -17 295 -40 14
-27 13 -30 -13 -30 -12 0 -67 -11 -122 -25 -171 -43 -262 -51 -340 -32 -125
31 -240 116 -318 235 -65 99 -89 142 -82 142 4 0 40 -31 80 -68z m-70 -9 c16
-27 47 -76 71 -110 24 -34 44 -64 44 -66 0 -3 -15 -7 -32 -11 -49 -8 -151 9
-211 37 -52 23 -63 33 -148 130 l-42 47 84 1 c46 0 107 4 134 9 28 4 55 8 62
9 6 0 23 -20 38 -46z m2482 -219 c5 -53 2 -70 -21 -120 -57 -123 -163 -225
-327 -313 -215 -116 -455 -143 -602 -69 -49 25 -124 93 -144 131 l-15 29 46
-32 c125 -85 273 -98 453 -39 205 67 430 327 499 579 l18 61 43 -83 c34 -63
46 -98 50 -144z m-4879 182 c20 -11 24 -21 26 -77 2 -42 12 -88 30 -133 33
-80 27 -90 -44 -81 -89 13 -142 73 -148 171 -4 62 -3 65 31 99 37 37 66 43
105 21z m4329 -23 c-3 -10 -5 -4 -5 12 0 17 2 24 5 18 2 -7 2 -21 0 -30z
m2584 -2 c-14 -25 -167 -91 -312 -135 -272 -82 -579 -114 -813 -85 -151 19
-131 28 49 22 207 -7 350 6 573 52 177 36 334 84 442 134 36 17 66 30 68 31 1
0 -2 -8 -7 -19z m-3638 -14 c14 -10 65 -164 67 -199 1 -22 -19 -3 -36 35 -21
48 -54 97 -98 145 l-30 32 40 0 c22 0 48 -6 57 -13z m1038 -93 c-6 -44 -15
-92 -20 -109 l-9 -30 -1 30 c-1 34 30 198 36 191 2 -2 -1 -39 -6 -82z m309 52
c0 -7 -5 -27 -11 -44 -9 -26 -20 -34 -62 -47 -28 -8 -57 -15 -64 -15 -7 0 -13
-5 -13 -11 0 -8 17 -9 55 -4 30 3 55 3 55 -2 -1 -22 -22 -34 -84 -50 -60 -14
-66 -18 -45 -26 13 -4 39 -6 57 -3 38 6 41 -6 7 -39 -27 -28 -71 -32 -155 -14
-60 13 -61 17 -24 126 38 115 35 111 95 103 61 -8 120 1 151 23 29 20 38 21
38 3z m-1150 -107 c92 -46 232 -16 294 62 l27 34 110 -1 c60 0 111 -3 114 -6
7 -6 47 -158 49 -183 1 -27 -54 -53 -140 -67 -63 -9 -104 -7 -284 19 -19 3
-48 17 -63 31 -21 20 -39 27 -75 28 -140 4 -129 2 -129 30 0 21 3 25 21 20 37
-11 106 -19 106 -13 0 3 -27 16 -61 28 -63 23 -82 42 -93 94 l-7 30 43 -41
c24 -23 63 -52 88 -65z m3360 55 c-65 -68 -143 -115 -271 -165 -105 -40 -120
-50 -195 -121 -98 -91 -132 -110 -244 -133 -47 -9 -128 -35 -180 -57 -114 -49
-185 -57 -283 -34 -103 24 -174 63 -252 139 l-70 68 40 -7 c92 -14 164 -45
210 -90 25 -25 49 -43 55 -39 18 11 10 44 -19 78 l-30 33 34 13 c29 10 44 9
101 -8 43 -14 94 -21 144 -21 44 0 82 -4 85 -10 3 -5 19 -10 35 -10 37 0 65
38 56 74 -8 33 -38 41 -78 20 -25 -13 -48 -15 -109 -11 -106 8 -182 36 -334
122 -71 40 -154 85 -182 99 -29 15 -53 28 -53 31 0 7 53 -4 155 -30 242 -64
341 -79 525 -79 190 0 303 12 478 50 118 26 286 79 362 113 66 30 69 26 20
-25z m-1350 -14 c137 -33 195 -36 252 -16 46 16 39 0 -8 -20 -54 -23 -167 -17
-274 12 -52 15 -126 28 -165 29 -89 3 -94 4 -70 15 40 17 142 9 265 -20z
m-3218 -10 c66 -29 176 -43 241 -31 55 10 56 10 120 -33 36 -23 84 -48 106
-56 23 -7 41 -17 41 -22 0 -12 -35 -10 -64 3 -14 7 -32 9 -41 5 -14 -5 -11
-13 19 -48 20 -23 36 -46 36 -51 0 -5 -74 -7 -177 -5 -214 5 -242 13 -267 79
-8 24 -27 74 -40 112 -14 37 -24 67 -22 67 2 0 23 -9 48 -20z m2979 -19 c53
-20 156 -72 230 -114 208 -118 288 -147 406 -147 40 0 63 -4 63 -11 0 -23
-168 -4 -255 29 -139 53 -347 148 -448 206 -54 31 -103 56 -108 56 -5 0 -9 5
-9 10 0 16 20 12 121 -29z m-286 -11 c4 -6 45 -29 91 -52 194 -94 262 -213
238 -415 l-8 -68 -13 100 c-16 112 -47 192 -96 243 -18 19 -74 59 -125 89 -83
49 -132 95 -132 126 0 10 36 -9 45 -23z m245 -30 c46 -28 115 -73 152 -100 74
-54 122 -81 183 -100 22 -7 35 -15 29 -17 -15 -5 -209 71 -255 100 -20 12 -70
49 -111 82 -41 33 -84 65 -94 72 -14 9 -15 12 -4 12 8 1 53 -22 100 -49z
m-102 11 c20 -11 75 -51 121 -89 70 -59 101 -77 193 -112 60 -23 107 -44 104
-47 -2 -3 -13 0 -24 6 -10 5 -60 18 -110 27 l-92 16 -72 72 c-51 50 -96 82
-148 108 -68 34 -72 37 -42 37 18 1 49 -8 70 -18z m-1843 -38 c-11 -3 -68 -20
-126 -39 -73 -23 -125 -34 -167 -34 -81 0 -87 16 -9 24 34 3 103 17 152 30 50
13 108 24 130 24 22 0 31 -2 20 -5z m-1975 -60 c0 -11 9 -49 19 -82 17 -54 17
-61 3 -61 -27 0 -102 41 -102 56 0 8 14 42 31 76 23 45 33 58 40 47 5 -8 9
-24 9 -36z m2057 11 c20 -21 24 -32 20 -59 -8 -47 -74 -146 -197 -295 -57 -69
-130 -160 -162 -204 -61 -82 -131 -216 -143 -275 -6 -28 -99 -161 -112 -161
-8 0 9 200 23 275 30 162 113 365 189 465 19 25 46 61 59 80 56 84 218 200
279 200 10 0 29 -12 44 -26z m1685 -11 c93 -53 135 -90 165 -140 47 -80 55
-137 60 -428 6 -293 -5 -406 -48 -506 -30 -70 -45 -78 -53 -31 -9 59 -44 101
-124 150 -56 33 -82 58 -110 100 -33 50 -37 63 -41 133 -5 118 15 165 106 256
84 83 113 137 120 224 7 78 -15 136 -76 197 -53 54 -76 82 -68 82 3 0 34 -16
69 -37z m-1564 1 c82 -57 -85 -373 -314 -596 -89 -86 -264 -232 -264 -221 0 5
22 53 50 109 34 69 81 139 150 225 268 331 300 378 300 444 0 23 3 45 7 48 11
12 48 7 71 -9z m-518 -41 c27 -3 71 1 109 11 34 9 64 16 65 16 2 0 -30 -34
-70 -76 l-73 -75 -41 11 c-34 9 -44 18 -57 48 -17 43 -51 82 -70 82 -13 0 -17
12 -7 23 3 3 27 -3 52 -14 26 -11 67 -23 92 -26z m621 26 c19 -19 21 -30 17
-100 -4 -67 -11 -91 -46 -161 -71 -143 -247 -336 -422 -465 -165 -121 -310
-222 -310 -214 0 12 160 165 255 243 206 170 370 388 430 572 18 56 26 95 22
116 -6 25 -3 30 13 30 11 0 30 -10 41 -21z m1329 -20 c-40 -137 -188 -282
-396 -387 -172 -87 -432 -98 -568 -24 -58 32 -146 112 -146 133 0 9 22 -6 53
-37 83 -80 141 -99 302 -98 111 1 143 4 218 27 219 67 423 212 507 360 18 31
33 57 35 57 2 0 0 -14 -5 -31z m162 -108 c19 -40 20 -50 11 -112 -26 -163
-165 -268 -466 -349 -82 -22 -181 -54 -220 -72 -65 -30 -81 -33 -167 -33 -154
0 -200 30 -349 229 -29 37 -50 70 -48 73 3 2 28 -14 57 -35 74 -56 134 -73
275 -79 190 -9 318 31 501 155 114 76 205 172 244 254 17 34 30 70 30 79 0 9
3 19 7 23 11 11 102 -85 125 -133z m-2230 71 c44 -37 27 -112 -37 -172 -26
-24 -35 -28 -29 -15 18 40 10 137 -13 183 -13 23 -23 45 -23 47 0 8 84 -27
102 -43z m1318 -12 c47 -48 125 -94 142 -84 4 3 8 22 8 42 0 58 11 68 58 54
22 -7 56 -12 76 -12 20 0 36 -5 36 -11 0 -7 -30 -42 -68 -78 -56 -56 -79 -71
-137 -90 -90 -30 -209 -40 -218 -18 -3 8 -3 23 -1 34 4 15 13 17 55 14 69 -4
88 15 23 24 -27 3 -56 10 -64 14 -27 15 -17 36 20 41 27 4 31 7 17 13 -10 4
-27 7 -37 7 -18 0 -30 19 -30 49 0 13 43 45 68 50 2 1 25 -22 52 -49z m-458
-29 c5 -14 8 -58 6 -96 -6 -135 -88 -250 -333 -467 -167 -149 -306 -236 -476
-298 -74 -27 -80 -28 -63 -9 10 11 79 61 152 111 248 167 377 285 523 478 71
93 119 221 119 316 l0 35 31 -21 c17 -13 35 -34 41 -49z m1836 43 c46 -19 40
-26 -8 -9 -51 18 -87 39 -50 29 14 -3 40 -12 58 -20z m-1630 -21 c45 3 82 1
82 -3 0 -5 3 -15 6 -24 5 -14 -3 -16 -54 -16 -69 0 -90 -15 -34 -24 77 -14 92
-18 92 -27 0 -5 -12 -9 -27 -9 -49 0 -59 -17 -14 -24 46 -7 56 -32 21 -54 -18
-11 -29 -9 -80 14 -32 14 -69 37 -81 50 -12 13 -28 24 -35 24 -13 0 -24 -31
-24 -72 0 -18 -4 -26 -13 -23 -8 4 -12 28 -12 78 0 39 -4 84 -8 98 l-9 27 54
-10 c29 -6 90 -8 136 -5z m-1311 -47 l162 -1 4 -24 c7 -33 -11 -89 -35 -113
-18 -18 -29 -20 -89 -15 -38 3 -89 15 -113 26 -45 19 -139 99 -157 132 -8 16
-5 16 29 7 20 -6 110 -11 199 -12z m3447 15 c9 -14 -29 -55 -42 -47 -16 10
-15 43 1 49 20 9 35 8 41 -2z m-4820 -25 c20 -13 58 -29 86 -36 44 -10 53 -18
70 -50 11 -21 42 -68 70 -105 28 -37 47 -71 44 -77 -12 -18 -155 -3 -205 22
-59 30 -168 112 -169 127 0 12 61 143 67 143 1 0 18 -11 37 -24z m4268 -149
c45 -33 83 -109 99 -199 16 -90 3 -144 -58 -244 l-48 -77 -1 -100 -1 -100 -49
-42 c-27 -23 -69 -72 -93 -108 -57 -83 -108 -117 -176 -117 -54 0 -93 17 -65
27 26 10 139 133 161 174 11 22 30 75 42 117 19 69 21 103 22 342 1 146 5 284
9 306 7 39 -3 121 -20 169 -4 11 26 -12 67 -51 41 -39 91 -82 111 -97z m129
97 c9 -11 2 -9 -18 6 -18 13 -33 25 -33 27 0 8 38 -17 51 -33z m-2661 -6 c0
-5 -11 -25 -24 -46 -41 -65 -102 -194 -127 -267 l-24 -70 -9 121 -8 121 52 64
c29 35 56 74 62 85 9 19 14 20 44 11 19 -6 34 -14 34 -19z m3330 -41 c0 -41
-161 -173 -251 -206 -19 -7 -58 -23 -87 -37 -29 -13 -56 -24 -61 -24 -5 0 -5
16 1 37 5 20 8 54 5 74 l-5 38 82 35 c45 19 124 44 174 55 51 11 100 25 110
30 23 14 32 13 32 -2z m-5129 -112 c28 -24 77 -57 108 -73 45 -23 56 -33 56
-53 0 -22 -3 -24 -45 -22 l-45 3 44 -21 c41 -19 42 -21 24 -34 -17 -12 -29
-12 -79 1 -32 9 -68 21 -79 26 -29 16 -85 78 -85 96 0 24 33 122 41 122 4 0
31 -20 60 -45z m2628 -14 c11 -32 21 -60 21 -63 0 -3 -28 -11 -62 -18 -79 -15
-59 -33 28 -24 90 9 89 -11 -1 -31 -41 -9 -75 -19 -75 -22 0 -3 40 -3 89 0
l89 7 27 -36 c34 -44 26 -55 -64 -84 -61 -19 -86 -21 -224 -18 -86 1 -158 6
-162 10 -4 4 25 37 64 74 81 76 151 165 177 224 14 32 23 40 45 40 23 0 29 -7
48 -59z m1966 -7 l66 -7 -41 -18 c-22 -10 -40 -21 -40 -25 0 -6 45 -1 100 12
23 5 22 3 -10 -25 l-35 -31 32 6 c29 6 31 5 26 -17 -13 -47 -142 -150 -218
-173 -19 -5 -20 -1 -20 97 -1 74 -6 114 -19 147 -33 85 -36 81 33 60 34 -11
90 -22 126 -26z m505 -11 c0 -4 -10 -18 -22 -32 l-23 -25 38 22 c49 28 48 13
-8 -70 -25 -37 -45 -71 -45 -75 0 -4 20 13 45 37 48 48 54 47 28 -3 -15 -30
-15 -31 0 -18 48 39 -9 -45 -82 -123 l-46 -48 35 17 c19 9 55 36 78 59 l44 41
-17 -40 c-21 -52 -50 -82 -105 -110 -52 -26 -221 -81 -265 -87 -29 -3 -30 -2
-33 44 -3 46 -3 47 50 83 51 36 44 42 -19 18 -11 -4 -4 9 20 35 20 23 37 45
37 48 0 3 -16 -4 -36 -15 l-36 -22 7 38 c10 58 28 78 94 102 33 13 90 41 128
63 116 69 133 77 133 61z m-3536 -165 l8 -38 -66 0 c-36 0 -66 4 -66 9 0 5 17
31 38 58 22 27 45 60 53 73 13 25 14 24 20 -20 3 -25 9 -62 13 -82z m-1070 52
c22 -6 59 -15 81 -21 24 -6 72 -36 115 -70 41 -33 94 -72 118 -86 23 -14 42
-27 42 -29 0 -2 -18 -8 -40 -14 -29 -8 -71 -7 -163 4 -112 13 -136 19 -243 67
-115 50 -154 73 -154 91 0 4 12 8 28 8 26 1 26 1 -10 21 -32 17 -58 45 -58 63
0 3 30 6 68 7 37 0 76 4 87 8 13 5 30 0 53 -16 19 -12 53 -28 76 -33z m3654
-155 c1 -77 -2 -157 -6 -179 -4 -21 -7 53 -8 165 -1 112 2 193 6 179 5 -14 8
-88 8 -165z m-4104 61 c48 -14 112 -26 141 -26 28 0 65 -6 81 -14 74 -36 231
-104 249 -107 11 -3 21 -12 23 -22 3 -16 -3 -17 -65 -12 -73 6 -71 3 20 -35
65 -27 58 -46 -14 -42 -75 5 -245 38 -313 62 -95 32 -173 80 -231 140 -54 58
-61 73 -49 118 l7 23 31 -30 c22 -21 57 -37 120 -55z m3675 2 c-22 -65 -24
-151 -4 -208 8 -23 15 -45 15 -48 0 -8 -113 8 -125 18 -9 7 -10 23 -4 53 4 23
8 74 9 113 l0 71 58 26 c31 14 60 26 63 26 3 1 -2 -23 -12 -51z m941 -230
c-17 -59 -103 -98 -247 -113 l-63 -7 0 36 c0 27 4 36 18 36 9 1 31 7 47 15
l30 15 -47 -3 c-56 -3 -62 7 -15 22 17 6 43 21 57 32 l25 21 -30 -7 c-16 -3
-38 -8 -49 -12 -18 -5 -18 -4 0 27 26 44 41 55 102 75 29 9 81 36 115 59 l62
41 3 -100 c2 -55 -2 -117 -8 -137z m-3050 181 c0 -10 -4 -40 -9 -66 -6 -26
-13 -74 -16 -105 l-6 -58 -37 0 c-77 1 -402 90 -402 110 0 4 15 11 33 14 45 8
152 61 192 93 32 27 39 28 139 29 95 0 106 -2 106 -17z m1960 -19 c0 -39 -1
-40 -34 -40 -18 0 -55 -3 -82 -7 -42 -6 -45 -8 -24 -14 14 -4 51 -7 83 -8 55
-1 58 -2 55 -23 -2 -16 -11 -24 -28 -25 -199 -19 -272 -50 -92 -39 108 6 120
4 104 -20 -15 -22 -254 -88 -317 -88 -64 1 -148 28 -207 67 -28 20 -33 29 -36
69 l-3 46 78 0 c49 0 95 6 123 17 197 74 289 101 353 104 25 1 27 -2 27 -39z
m-714 -15 c25 -19 56 -38 70 -41 39 -10 28 -33 -21 -45 -62 -16 -68 -31 -11
-28 25 2 47 -1 48 -6 2 -6 -26 -24 -62 -42 -57 -28 -61 -32 -35 -32 17 0 47 6
68 13 34 13 38 12 35 -2 -2 -12 -30 -25 -83 -41 -72 -22 -98 -25 -270 -25
-156 -1 -202 2 -258 18 -69 19 -87 34 -102 85 -7 22 -5 23 16 17 44 -12 114
-19 106 -10 -5 5 -32 18 -60 29 -68 28 -74 53 -15 57 l43 3 -42 13 c-48 14
-61 38 -15 28 161 -37 364 -30 462 16 30 15 61 27 67 27 7 1 33 -15 59 -34z
m-2853 -83 c78 -49 178 -86 309 -112 117 -24 118 -25 118 -50 0 -17 -9 -20
-77 -22 l-78 -3 46 -14 c31 -10 45 -19 42 -28 -4 -9 4 -13 26 -13 17 0 31 -2
31 -4 0 -58 -131 -68 -247 -20 -52 22 -141 85 -185 131 -43 44 -84 129 -94
193 l-7 45 27 -32 c14 -17 55 -49 89 -71z m5183 1 c14 -32 14 -40 0 -78 -9
-23 -27 -52 -41 -65 l-24 -23 -28 30 c-15 16 -43 38 -60 48 -38 22 -41 31 -13
40 11 3 43 24 72 46 29 21 58 39 66 39 7 0 20 -16 28 -37z m-2993 -12 c-3 -22
-1 -53 5 -70 10 -29 10 -31 -26 -42 -41 -12 -202 -25 -202 -16 0 4 33 29 73
56 39 27 88 63 107 80 19 16 38 30 42 31 3 0 4 -18 1 -39z m-1177 20 c43 -6
74 -18 103 -39 41 -30 184 -80 294 -103 32 -7 56 -17 54 -23 -2 -6 -33 -16
-68 -22 l-64 -10 58 -14 c43 -10 57 -17 55 -29 -5 -25 -91 -33 -308 -28 -161
3 -211 8 -288 27 -117 29 -256 97 -260 128 -4 26 -8 26 53 3 52 -19 125 -35
125 -27 0 2 -32 17 -71 32 -38 15 -72 31 -74 34 -2 4 21 3 52 -2 101 -16 117
-5 31 22 -43 13 -78 27 -78 31 0 4 39 5 88 2 66 -4 95 -2 122 10 41 18 91 20
176 8z m-1115 -108 c16 -18 30 -50 37 -88 7 -33 15 -70 18 -82 5 -19 2 -23
-15 -23 -61 0 -121 72 -121 145 0 75 37 96 81 48z m5013 -4 c-24 -27 -195
-109 -299 -144 -84 -29 -277 -75 -310 -75 -19 0 -19 1 2 18 12 9 29 33 37 53
l15 36 78 5 c83 6 161 28 205 60 16 11 31 17 36 14 11 -7 149 19 197 37 55 21
61 20 39 -4z m110 -29 c68 -47 71 -79 8 -96 -26 -7 -104 20 -123 42 -10 12 -5
21 27 49 21 19 40 34 41 35 1 0 22 -14 47 -30z m-1236 -27 c19 -18 58 -48 88
-64 30 -17 54 -33 54 -36 0 -11 -114 -54 -185 -69 -61 -13 -111 -15 -210 -11
-141 6 -175 12 -175 33 0 18 18 27 65 34 l40 6 -45 10 -45 10 58 13 c70 15 65
34 -9 29 -30 -2 -55 1 -56 7 -2 6 46 26 105 46 98 32 115 35 195 31 83 -4 88
-6 120 -39z m-3141 -42 c67 -31 152 -61 221 -77 62 -15 112 -31 112 -36 0 -6
-38 -7 -97 -3 -121 9 -117 -8 6 -32 75 -15 108 -33 60 -33 -11 0 -18 -4 -14
-9 11 -18 -62 -23 -161 -11 -105 13 -143 23 -251 70 -75 32 -70 21 -57 134 l7
58 33 -5 c17 -3 81 -28 141 -56z m1617 35 c64 -29 173 -47 289 -49 119 -1 140
-15 56 -36 -42 -11 -49 -15 -35 -23 10 -6 33 -7 53 -3 44 8 36 -9 -9 -20 l-33
-8 35 -7 35 -6 -40 -12 c-118 -33 -308 -41 -420 -17 -39 8 -87 15 -109 15 -37
0 -38 1 -32 28 4 15 9 48 13 75 5 39 9 47 27 48 11 0 44 9 71 19 28 10 52 17
55 16 3 -1 23 -10 44 -20z m-696 5 c8 -5 16 -35 19 -70 5 -52 8 -61 22 -55 9
4 61 23 116 44 55 20 118 45 140 54 30 13 54 16 98 11 51 -6 57 -9 57 -30 0
-25 -15 -29 -120 -38 -33 -2 -31 -3 20 -15 83 -19 90 -25 60 -58 l-25 -26
-116 5 c-108 5 -206 23 -271 48 -28 12 -58 70 -58 114 0 19 5 25 23 25 12 0
28 -4 35 -9z m1557 -32 c65 -12 117 -17 152 -12 45 5 53 3 53 -10 0 -11 -15
-20 -42 -27 -24 -6 -56 -14 -73 -19 -29 -9 -29 -9 12 -10 42 -1 43 -1 25 -22
-29 -35 -67 -48 -167 -60 -69 -7 -132 -7 -218 0 -174 16 -167 12 -167 81 l0
58 69 12 c38 6 88 18 112 25 49 16 92 13 244 -16z m-3027 -82 c31 -21 42 -34
42 -53 0 -14 5 -34 11 -46 16 -31 3 -34 -45 -10 -63 30 -109 96 -130 187 l-7
30 43 -41 c24 -22 62 -52 86 -67z m4783 59 c10 -13 32 -29 49 -36 16 -7 30
-16 30 -21 0 -16 -102 -61 -125 -55 -22 6 -85 63 -85 78 0 8 88 57 104 58 4 0
16 -11 27 -24z m-161 -60 c0 -8 16 -31 35 -52 19 -20 35 -39 35 -41 0 -2 -17
-11 -37 -19 -51 -22 -113 -11 -153 26 -44 41 -39 55 28 78 69 25 92 27 92 8z
m-3179 -47 c46 -17 113 -36 149 -43 46 -9 66 -17 68 -29 3 -13 -7 -16 -50 -19
l-53 -3 45 -17 c26 -9 37 -17 25 -17 -15 -1 -17 -3 -6 -10 78 -50 -309 -46
-545 4 -66 15 -123 30 -127 34 -5 5 -7 32 -5 61 l3 53 115 -1 c63 -1 147 3
185 7 39 5 79 9 91 10 11 0 58 -13 105 -30z m2433 5 c16 -43 6 -62 -46 -92
-29 -16 -75 -34 -103 -40 -72 -16 -206 -24 -236 -15 -25 8 -25 9 -13 40 12 28
19 32 61 38 102 12 214 38 260 60 58 28 69 30 77 9z m-3654 -48 c0 -12 9 -41
20 -65 11 -24 18 -46 16 -49 -8 -8 -69 17 -108 44 -35 25 -68 76 -68 106 0 13
10 13 70 0 59 -13 70 -19 70 -36z m4223 8 c10 -19 31 -43 47 -52 16 -9 30 -20
30 -24 0 -8 -87 -38 -111 -38 -17 0 -89 95 -89 117 0 7 15 17 33 22 59 17 72
13 90 -25z m-4070 1 c59 -27 54 -18 88 -155 6 -23 -63 -25 -107 -4 -31 15 -43
31 -71 92 -28 60 -32 76 -21 83 22 15 53 10 111 -16z m2912 -9 c58 -15 115
-43 115 -55 0 -27 -17 -43 -64 -56 -90 -26 -224 -37 -354 -29 -108 6 -122 8
-116 23 3 9 9 29 13 46 7 29 7 30 111 42 58 7 123 19 145 27 51 19 87 19 150
2z m995 0 c0 -8 16 -37 35 -66 19 -29 33 -56 30 -60 -3 -5 -23 -11 -45 -15
-52 -9 -85 12 -111 68 -27 61 -25 75 14 80 66 8 77 7 77 -7z m-1520 -30 l95
-12 -40 -19 -40 -18 30 -6 c28 -6 29 -8 10 -18 -59 -31 -172 -48 -315 -47 -80
1 -165 6 -190 11 l-45 9 0 44 0 45 80 7 c44 5 100 12 125 17 49 11 141 7 290
-13z m-617 -1 c71 -7 78 -10 75 -29 -2 -17 -13 -23 -58 -30 -49 -9 -52 -10
-25 -16 l30 -5 -43 -18 c-46 -19 -144 -22 -338 -10 l-112 6 14 33 c8 18 14 44
14 57 l0 23 183 -1 c100 -1 217 -6 260 -10z m1997 -15 c0 -11 10 -39 21 -64
12 -24 19 -51 16 -59 -19 -50 -183 -83 -213 -43 -18 25 -18 36 -1 36 26 0 97
60 129 109 33 50 48 56 48 21z m-3605 -10 c17 -4 42 -11 58 -14 16 -4 27 -13
27 -24 1 -9 9 -41 19 -69 l18 -53 -30 0 c-54 0 -95 28 -121 84 -13 28 -28 62
-31 75 -6 21 -5 23 11 16 11 -4 33 -11 49 -15z m247 -36 c65 -6 67 -7 74 -38
3 -17 15 -48 25 -68 11 -21 19 -40 19 -44 0 -13 -136 3 -168 20 -35 18 -71 81
-72 124 0 20 4 23 28 18 15 -3 57 -8 94 -12z m228 -26 c48 -11 52 -14 84 -75
28 -53 32 -65 20 -70 -25 -9 -124 5 -150 22 -23 15 -54 66 -68 113 -7 20 -4
22 28 22 19 0 57 -5 86 -12z m2785 -33 c28 -14 67 -28 88 -31 20 -4 37 -10 37
-14 0 -5 3 -15 6 -23 4 -11 -8 -19 -42 -31 -64 -22 -110 -20 -133 3 -31 31
-41 121 -14 121 4 0 31 -11 58 -25z m-115 -17 c1 -18 7 -50 14 -70 7 -21 11
-40 8 -43 -3 -3 -33 -5 -67 -5 -69 0 -83 9 -110 73 -26 63 -24 66 63 70 42 1
80 4 85 5 4 1 7 -13 7 -30z m-2426 5 c57 -5 70 -9 74 -26 3 -11 15 -39 28 -63
l23 -44 -37 0 c-97 0 -179 46 -219 123 l-15 30 38 -6 c22 -4 70 -10 108 -14z
m2226 -21 c0 -21 8 -54 19 -74 l18 -37 -30 -10 c-39 -14 -103 -14 -129 0 -22
12 -57 82 -58 116 0 27 36 37 143 42 36 1 37 0 37 -37z m-670 -1 c1 -9 9 -39
19 -68 l18 -52 -45 -16 c-58 -19 -121 -19 -150 1 -24 17 -45 54 -56 96 -6 25
-4 26 43 33 27 4 71 12 98 19 54 14 73 11 73 -13z m-1007 -5 c15 -22 77 -128
77 -132 0 -13 -130 -2 -160 14 -30 15 -110 112 -110 133 0 12 184 -2 193 -15z
m-233 6 c0 -4 16 -31 35 -61 19 -29 35 -55 35 -57 0 -2 -36 -4 -81 -4 -104 0
-138 16 -173 81 l-27 49 105 0 c58 0 106 -3 106 -8z m720 -24 c0 -18 11 -53
25 -77 14 -23 25 -45 25 -47 0 -7 -127 -5 -145 2 -9 4 -39 36 -67 73 l-50 66
44 6 c23 3 71 7 106 7 l62 2 0 -32z m716 22 c26 0 34 -4 34 -19 0 -10 11 -39
25 -64 l24 -46 -37 -11 c-88 -24 -143 -2 -177 72 -37 79 -36 82 36 74 34 -3
77 -6 95 -6z m254 -9 c0 -10 7 -38 15 -62 18 -49 11 -59 -44 -59 -48 0 -113
34 -134 69 -30 50 -24 60 41 64 128 8 122 8 122 -12z m-1220 1 c0 -4 21 -36
46 -71 25 -34 43 -65 41 -68 -3 -3 -38 -6 -79 -6 -61 -2 -78 2 -104 20 -28 20
-94 109 -94 126 0 4 43 7 95 7 52 0 95 -4 95 -8z m508 -8 c6 -2 12 -15 12 -29
0 -14 7 -40 16 -57 20 -39 9 -48 -66 -48 -75 0 -137 32 -167 85 -37 66 -36 66
85 59 59 -3 113 -7 120 -10z"/>
</g>
</svg>
