<?xml version="1.0" standalone="no"?>
<!DOCTYPE svg PUBLIC "-//W3C//DTD SVG 20010904//EN"
 "http://www.w3.org/TR/2001/REC-SVG-20010904/DTD/svg10.dtd">
<svg version="1.0" xmlns="http://www.w3.org/2000/svg"
 width="850.000000pt" height="850.000000pt" viewBox="0 0 850.000000 850.000000"
 preserveAspectRatio="xMidYMid meet">
<metadata>
Created by potrace 1.14, written by Peter Selinger 2001-2017
</metadata>
<g transform="translate(0.000000,850.000000) scale(0.100000,-0.100000)"
fill="#000000" stroke="none">
<path d="M0 4250 l0 -4250 4250 0 4250 0 0 4250 0 4250 -4250 0 -4250 0 0
-4250z m2090 4193 c0 -5 -109 -117 -242 -250 l-243 -243 -515 0 -515 0 -250
250 -250 250 1008 0 c554 0 1007 -3 1007 -7z m2110 0 c0 -5 -109 -117 -242
-250 l-243 -243 -515 0 -515 0 -247 247 c-137 136 -248 248 -248 250 0 2 452
3 1005 3 553 0 1005 -3 1005 -7z m2110 0 c0 -5 -109 -117 -242 -250 l-243
-243 -515 0 -515 0 -250 250 -250 250 1008 0 c554 0 1007 -3 1007 -7z m2110 3
c0 -3 -111 -115 -246 -250 l-245 -246 -515 0 -514 0 -238 241 c-130 132 -238
245 -240 250 -2 5 388 9 997 9 551 0 1001 -2 1001 -4z m-7870 -1036 l0 -515
-250 -250 -250 -250 0 1015 0 1015 250 -250 250 -250 0 -515z m2070 548 c0 -5
-103 -8 -230 -8 l-230 0 0 237 0 238 230 -230 c127 -126 230 -233 230 -237z
m2150 -548 l0 -514 -250 -251 -250 -250 0 1015 0 1015 250 -250 250 -251 0
-514z m1838 781 c196 -196 226 -230 208 -235 -43 -12 -424 -7 -432 6 -8 13
-18 458 -10 458 3 0 108 -103 234 -229z m1852 -783 l0 -1013 -250 250 -250
250 0 515 0 515 247 247 c137 137 249 248 250 248 1 0 2 -456 3 -1012z m-6335
2 c0 -550 -2 -1000 -5 -1000 -3 0 -230 225 -504 499 -457 457 -498 501 -485
517 24 31 982 984 988 984 3 0 6 -450 6 -1000z m2105 -2 l0 -1003 -245 245
-245 245 0 520 0 520 239 238 c132 130 243 237 246 237 3 0 5 -451 5 -1002z
m2120 2 c0 -550 -3 -1000 -8 -1000 -4 0 -232 225 -507 500 l-499 499 183 188
c252 258 814 813 823 813 4 0 7 -450 8 -1000z m-4790 502 c0 -4 -106 -113
-235 -242 l-235 -235 -243 243 -242 242 478 0 c262 0 477 -3 477 -8z m2110 1
c-1 -5 -340 -348 -755 -763 l-755 -755 0 763 0 762 755 0 c415 0 755 -3 755
-7z m1882 -235 l-242 -243 -242 243 -243 242 485 0 484 0 -242 -242z m1590
-515 l-757 -757 -3 745 c-1 409 0 750 3 757 3 9 165 12 759 12 l755 0 -757
-757z m-832 -785 c0 -5 -340 -8 -755 -8 l-755 0 0 762 0 763 755 -755 c415
-415 755 -758 755 -762z m1620 1030 l0 -483 -243 243 -242 242 240 240 c132
132 241 240 242 240 2 0 3 -217 3 -482z m-6588 -275 c412 -412 748 -751 748
-756 0 -4 -341 -6 -757 -5 l-758 3 -3 420 c-4 451 6 1085 17 1085 3 0 342
-336 753 -747z m2368 276 c0 -302 -4 -469 -10 -467 -5 2 -116 109 -246 238
l-236 235 237 233 c130 127 241 232 246 232 5 0 9 -199 9 -471z m-8 -526 c274
-274 498 -501 498 -505 0 -5 -452 -8 -1005 -8 -575 0 -1005 4 -1005 9 0 10
998 1001 1008 1001 4 0 231 -224 504 -497z m4230 -16 c268 -268 488 -490 488
-493 0 -2 -450 -4 -1000 -4 -550 0 -1000 3 -1000 7 0 5 224 232 497 505 415
415 499 495 512 485 8 -7 234 -232 503 -500z m-7386 -259 l-1 -233 -233 -3
c-127 -1 -232 0 -232 3 0 4 461 465 466 465 1 0 1 -105 0 -232z m4222 -108
l-3 -125 -232 -3 c-128 -1 -233 -1 -233 1 0 1 102 107 228 235 l227 233 8
-108 c4 -59 6 -164 5 -233z m-3171 -667 l-507 -508 -507 508 -508 507 1015 0
1015 0 -508 -507z m2113 -255 l0 -763 -758 755 c-417 415 -759 758 -760 763
-1 4 340 7 758 7 l760 0 0 -762z m490 753 c0 -7 -446 -451 -454 -451 -6 0 -7
317 0 388 l6 72 224 0 c123 0 224 -4 224 -9z m2110 5 c0 -2 -226 -230 -502
-506 l-501 -502 -502 499 c-276 274 -503 501 -503 506 -1 4 450 7 1003 7 553
0 1005 -2 1005 -4z m1618 -702 c1 -386 -1 -725 -5 -753 l-8 -51 -752 752
c-414 414 -753 754 -753 755 0 2 341 2 758 1 l757 -3 3 -701z m502 703 c0 -1
-106 -108 -235 -237 l-235 -235 0 238 0 237 235 0 c129 0 235 -1 235 -3z
m-7880 -1037 l0 -515 -242 -242 c-134 -134 -246 -243 -250 -243 -5 0 -8 453
-8 1007 l0 1008 250 -250 250 -250 0 -515z m1570 250 l0 -760 -751 0 c-471 0
-749 4 -747 10 3 10 1488 1510 1494 1510 2 0 4 -342 4 -760z m547 -757 l-507
-508 0 1015 0 1015 507 -508 508 -507 -508 -507z m1563 510 l0 -1008 -245 245
-245 245 0 515 0 515 242 248 c133 136 243 247 245 247 2 0 3 -453 3 -1007z
m540 1 l0 -512 -245 -246 c-135 -135 -248 -246 -250 -246 -3 0 -5 453 -5 1007
l0 1008 250 -250 250 -250 0 -511z m1580 252 c0 -676 -2 -755 -16 -760 -9 -3
-352 -6 -762 -6 l-747 0 760 760 c418 418 761 760 762 760 1 0 3 -339 3 -754z
m540 249 l505 -505 -502 -502 c-276 -276 -505 -499 -509 -496 -10 11 -18 2008
-8 2008 5 0 236 -227 514 -505z m1569 -801 c0 -380 -3 -694 -6 -698 -4 -4
-116 103 -250 236 l-243 243 0 515 0 515 243 243 242 242 6 -302 c4 -167 7
-614 8 -994z m-7634 58 l-240 -237 -6 120 c-9 173 -10 476 -2 669 l6 168 241
-241 241 -242 -240 -237z m4233 17 c-124 -123 -232 -230 -241 -238 -16 -13
-17 18 -17 465 l0 479 241 -241 240 -241 -223 -224z m-1613 -49 l240 -240
-484 0 -484 0 123 128 c168 173 350 352 358 352 4 0 115 -108 247 -240z m4220
0 l240 -240 -485 0 -485 0 240 240 c132 132 242 240 245 240 3 0 113 -108 245
-240z m-5814 -516 c131 -131 239 -242 239 -246 0 -5 -452 -8 -1005 -8 -553 0
-1005 2 -1005 5 0 3 111 116 248 251 l247 245 518 -4 519 -4 239 -239z m171
236 l97 0 3 -225 c2 -124 1 -225 -2 -225 -9 0 -450 445 -450 454 0 5 53 6 128
3 70 -4 171 -7 224 -7z m1940 -237 c131 -131 238 -241 238 -245 0 -5 -452 -8
-1005 -8 -553 0 -1005 1 -1005 3 0 2 111 114 248 251 l247 248 520 -6 519 -5
238 -238z m2110 0 c131 -131 238 -241 238 -245 0 -5 -450 -8 -1000 -8 -550 0
-1000 3 -1000 7 0 5 109 117 243 252 l242 243 520 -6 519 -5 238 -238z m171
237 l107 0 0 -226 c0 -142 -4 -224 -10 -222 -11 3 -460 449 -460 457 0 2 57 1
128 -2 70 -4 175 -7 235 -7z m1938 -236 c131 -131 239 -242 239 -246 0 -5
-450 -8 -1000 -8 -550 0 -1000 3 -1000 7 0 5 109 117 243 251 l242 244 519 -5
518 -4 239 -239z m-6326 -534 l-251 -250 -514 0 -514 0 -251 250 -250 250
1015 0 1015 0 -250 -250z m2345 245 c0 -2 -111 -115 -246 -250 l-246 -245
-512 0 -511 0 -250 250 -250 250 1008 0 c554 0 1007 -2 1007 -5z m2110 -2 c0
-5 -109 -117 -242 -250 l-243 -243 -515 0 -515 0 -250 250 -250 250 1008 0
c554 0 1007 -3 1007 -7z m1875 -243 l-251 -250 -514 0 -515 0 -250 250 -250
250 1015 0 1015 0 -250 -250z m-7635 -789 l0 -516 -242 -242 c-134 -134 -246
-243 -250 -243 -5 0 -8 453 -8 1007 l0 1008 250 -250 249 -249 1 -515z m2070
546 c0 -4 -102 -6 -227 -5 l-228 3 -3 235 -2 235 230 -230 c126 -126 230 -233
230 -238z m2150 -547 l0 -515 -242 -242 c-134 -134 -246 -243 -250 -243 -5 0
-8 453 -8 1007 l0 1008 250 -250 250 -250 0 -515z m1580 5 c0 -553 -4 -1005
-8 -1005 -11 0 -1007 998 -1002 1005 24 28 997 1003 1002 1004 4 0 8 -451 8
-1004z m490 542 c0 -4 -105 -6 -232 -5 l-233 3 -3 180 c-2 99 0 204 3 234 l7
54 229 -229 c126 -126 229 -232 229 -237z m1618 -802 c1 -368 -1 -687 -5 -708
l-6 -39 -243 243 -244 244 0 515 0 515 243 245 242 245 6 -295 c3 -162 7 -596
7 -965z m-6338 253 l0 -1003 -502 502 -503 503 500 500 c275 275 501 500 502
500 2 0 3 -451 3 -1002z m2110 0 l0 -1003 -245 245 -245 245 0 515 0 515 242
242 c134 134 244 243 245 243 2 0 3 -451 3 -1002z m-2898 270 l-242 -243 -242
243 -243 242 485 0 485 0 -243 -242z m2267 165 c-41 -42 -381 -384 -756 -759
l-683 -683 0 760 0 759 757 0 756 0 -74 -77z m1953 -165 l-242 -243 -242 243
-243 242 485 0 485 0 -243 -242z m1593 -516 l-760 -757 -6 220 c-9 305 -10
1280 -2 1288 3 4 349 7 767 7 l761 0 -760 -758z m-5055 -785 c0 -4 -339 -6
-752 -5 l-753 3 -3 760 -2 760 755 -755 c415 -415 755 -758 755 -763z m1620
1031 l0 -483 -242 242 -243 243 240 240 c132 132 241 240 242 240 2 0 3 -217
3 -482z m2600 -1030 c0 -5 -340 -8 -755 -8 l-755 0 0 762 0 763 755 -755 c415
-415 755 -758 755 -762z m1620 1032 c0 -264 -4 -479 -8 -478 -4 0 -112 108
-241 239 l-234 238 233 240 c128 133 236 241 241 241 5 0 9 -216 9 -480z
m-4228 -527 c274 -274 498 -501 498 -505 0 -5 -453 -8 -1007 -8 l-1008 0 505
505 c278 278 507 505 510 505 3 0 229 -224 502 -497z m4221 -1 c273 -274 497
-501 497 -505 0 -4 -453 -7 -1007 -7 l-1008 0 505 505 c278 278 507 505 510
505 3 0 229 -224 503 -498z m-7377 -278 c-2 -124 -6 -227 -8 -230 -3 -2 -107
-3 -232 -2 l-228 3 227 228 c125 125 231 227 236 227 5 0 7 -96 5 -226z m4222
-109 l-3 -120 -235 -3 -235 -2 230 230 230 230 8 -107 c4 -60 6 -162 5 -228z
m-3175 -661 l-506 -506 -506 506 -506 506 1012 0 1011 0 -505 -506z m2117
-254 c0 -418 -1 -760 -3 -760 -1 0 -344 342 -762 760 l-760 760 763 0 762 0 0
-760z m490 753 c0 -10 -442 -453 -452 -453 -4 0 -7 104 -8 230 l0 230 230 0
c126 0 230 -3 230 -7z m2110 0 c0 -5 -225 -233 -500 -508 l-500 -500 -507 508
-508 507 1008 0 c554 0 1007 -3 1007 -7z m1620 -753 c0 -418 -2 -760 -3 -760
-6 0 -1502 1501 -1505 1510 -3 7 257 10 752 10 l756 0 0 -760z m473 736 c-10
-13 -114 -120 -230 -237 l-213 -214 0 238 0 237 230 0 231 0 -18 -24z m-5736
-1523 l-507 -508 0 1015 0 1015 507 -508 508 -507 -508 -507z m2103 507 l0
-515 -250 -250 -250 -250 0 1015 0 1015 250 -250 250 -250 0 -515z m1580 250
l0 -760 -760 0 c-418 0 -760 1 -760 3 0 5 1505 1514 1513 1515 4 1 7 -340 7
-758z m2110 -252 l0 -1013 -250 250 -250 250 0 520 0 520 242 242 c134 133
246 242 250 243 4 0 8 -456 8 -1012z m-8153 760 l243 -243 0 -512 0 -512 -246
-245 c-135 -135 -247 -246 -250 -246 -2 0 -4 450 -4 1000 0 550 3 1000 7 1000
5 0 117 -109 250 -242z m1815 -513 l-2 -755 -758 0 -757 0 755 755 c415 415
757 755 760 755 3 0 4 -340 2 -755z m2108 -247 l0 -1003 -245 245 -245 245 0
515 0 515 242 242 c134 134 244 243 245 243 2 0 3 -451 3 -1002z m2675 492
l490 -491 -505 -502 -505 -502 -6 285 c-9 415 -10 933 -2 1352 6 331 8 366 22
358 9 -5 237 -230 506 -500z m-6085 -729 c-132 -132 -243 -241 -245 -241 -7 0
-6 828 1 897 l7 65 239 -240 240 -239 -242 -242z m4222 -3 l-242 -243 0 485 0
485 242 -243 243 -242 -243 -242z m2618 -23 l245 -245 -490 0 -490 0 245 245
c135 135 245 245 245 245 0 0 110 -110 245 -245z m-4223 3 c128 -128 233 -236
233 -240 0 -5 -215 -8 -477 -8 l-478 0 240 240 c132 132 242 240 245 240 3 0
110 -105 237 -232z m-1582 -528 l250 -250 -1015 0 -1015 0 250 250 250 250
515 0 515 0 250 -250z m267 20 c2 -127 1 -230 -2 -230 -8 0 -450 444 -450 452
0 5 101 8 225 8 l224 0 3 -230z m1835 -12 c134 -134 243 -246 243 -250 0 -5
-453 -8 -1007 -8 l-1008 0 250 250 250 250 515 0 515 0 242 -242z m2111 -1
l244 -244 -63 -6 c-59 -7 -1949 -10 -1949 -4 0 2 111 114 248 250 l247 247
515 0 515 0 243 -243z m282 13 c-1 -126 -4 -230 -8 -230 -4 0 -111 104 -237
230 l-230 230 238 0 238 0 -1 -230z m1835 -20 l250 -250 -1020 0 -1020 0 250
250 250 250 520 0 520 0 250 -250z"/>
</g>
</svg>
