<?xml version="1.0" encoding="UTF-8" standalone="no"?>
<svg
   xmlns:dc="http://purl.org/dc/elements/1.1/"
   xmlns:cc="http://creativecommons.org/ns#"
   xmlns:rdf="http://www.w3.org/1999/02/22-rdf-syntax-ns#"
   xmlns:svg="http://www.w3.org/2000/svg"
   xmlns="http://www.w3.org/2000/svg"
   xmlns:sodipodi="http://sodipodi.sourceforge.net/DTD/sodipodi-0.dtd"
   xmlns:inkscape="http://www.inkscape.org/namespaces/inkscape"
   version="1.0"
   width="850.000000pt"
   height="850.000000pt"
   viewBox="0 0 850.000000 850.000000"
   preserveAspectRatio="xMidYMid meet"
   id="svg2"
   inkscape:version="0.91 r13725"
   sodipodi:docname="Pixel_art_20170420_100.svg">
  <defs
     id="defs202" />
  <sodipodi:namedview
     pagecolor="#ffffff"
     bordercolor="#666666"
     borderopacity="1"
     objecttolerance="10"
     gridtolerance="10"
     guidetolerance="10"
     inkscape:pageopacity="0"
     inkscape:pageshadow="2"
     inkscape:window-width="1920"
     inkscape:window-height="980"
     id="namedview200"
     showgrid="false"
     inkscape:zoom="0.44423529"
     inkscape:cx="283.34097"
     inkscape:cy="655.72936"
     inkscape:window-x="0"
     inkscape:window-y="1"
     inkscape:window-maximized="1"
     inkscape:current-layer="svg2" />
  <metadata
     id="metadata4">
Created by potrace 1.14, written by Peter Selinger 2001-2017
<rdf:RDF>
  <cc:Work
     rdf:about="">
    <dc:format>image/svg+xml</dc:format>
    <dc:type
       rdf:resource="http://purl.org/dc/dcmitype/StillImage" />
  </cc:Work>
</rdf:RDF>
</metadata>
  <g
     transform="translate(0.000000,850.000000) scale(0.100000,-0.100000)"
     fill="#000000"
     stroke="none"
     id="g6">
    <path
       d="M325 8200 l250 -250 515 0 515 0 243 243 c133 133 242 245 242 250 0 4 -453 7 -1007 7 l-1008 0 250 -250z"
       id="path8"
       style="fill:#99cc00" />
    <path
       d="M2190 8447 c0 -2 111 -114 248 -250 l247 -247 515 0 515 0 243 243 c133 133 242 245 242 250 0 4 -452 7 -1005 7 -553 0 -1005 -1 -1005 -3z"
       id="path10"
       style="fill:#99cc00" />
    <path
       d="M4545 8200 l250 -250 515 0 515 0 243 243 c133 133 242 245 242 250 0 4 -453 7 -1007 7 l-1008 0 250 -250z"
       id="path12"
       style="fill:#99cc00" />
    <path
       d="M6422 8441 c2 -5 110 -118 240 -250 l238 -241 514 0 515 0 245 246 c135 135 246 247 246 250 0 2 -450 4 -1001 4 -609 0 -999 -4 -997 -9z"
       id="path14"
       style="fill:#99cc00" />
    <path
       d="M50 7410 l0 -1015 250 250 250 250 0 515 0 515 -250 250 -250 250 0 -1015z"
       id="path16"
       style="fill:#99cc00" />
    <path
       d="M2160 8187 l0 -237 230 0 c127 0 230 3 230 8 0 4 -103 111 -230 237 l-230 230 0 -238z"
       id="path18"
       style="fill:#33ff00" />
    <path
       d="M4270 7410 l0 -1015 250 250 250 251 0 514 0 514 -250 251 -250 250 0 -1015z"
       id="path20"
       style="fill:#99cc00" />
    <path
       d="M6373 8197 c2 -123 7 -229 11 -235 8 -13 389 -18 432 -6 18 5 -12 39 -208 235 -126 126 -231 229 -234 229 -3 0 -3 -100 -1 -223z"
       id="path22"
       style="fill:#33ff00" />
    <path
       d="M8207 8172 l-247 -247 0 -515 0 -515 250 -250 250 -250 0 1013 c-1 556 -2 1012 -3 1012 -1 0 -113 -111 -250 -248z"
       id="path24"
       style="fill:#99cc00" />
    <path
       d="M1629 7927 c-266 -266 -490 -491 -498 -501 -13 -16 28 -60 485 -517 274 -274 501 -499 504 -499 3 0 5 450 5 1000 0 550 -3 1000 -6 1000 -3 0 -223 -217 -490 -483z"
       id="path26"
       style="fill:#6699ff" />
    <path
       d="M3979 8173 l-239 -238 0 -520 0 -520 245 -245 245 -245 0 1003 c0 551 -2 1002 -5 1002 -3 0 -114 -107 -246 -237z"
       id="path28"
       style="fill:#99cc00" />
    <path
       d="M6019 8098 c-174 -172 -399 -398 -500 -501 l-183 -188 499 -499 c275 -275 503 -500 507 -500 5 0 8 450 8 1000 -1 550 -4 1000 -8 1000 -4 0 -150 -141 -323 -312z"
       id="path30"
       style="fill:#6699ff" />
    <path
       d="M847 7678 l243 -243 235 235 c129 129 235 238 235 242 0 5 -215 8 -477 8 l-478 0 242 -242z"
       id="path32"
       style="fill:#ff9900" />
    <path
       d="M2160 7158 l0 -763 755 755 c415 415 754 758 755 763 0 4 -340 7 -755 7 l-755 0 0 -762z"
       id="path34"
       style="fill:#6666ff" />
    <path
       d="M5068 7678 l242 -243 242 243 242 242 -484 0 -485 0 243 -242z"
       id="path36"
       style="fill:#ff9900" />
    <path
       d="M6385 7908 c-3 -7 -4 -348 -3 -757 l3 -745 757 757 757 757 -755 0 c-594 0 -756 -3 -759 -12z"
       id="path38"
       style="fill:#6666ff" />
    <path
       d="M4800 7132 l0 -762 755 0 c415 0 755 3 755 8 0 4 -340 347 -755 762 l-755 755 0 -763z"
       id="path40"
       style="fill:#6666ff" />
    <path
       d="M7685 7650 l-240 -240 242 -242 243 -243 0 483 c0 265 -1 482 -3 482 -1 0 -110 -108 -242 -240z"
       id="path42"
       style="fill:#ff9900" />
    <path
       d="M576 7548 c-4 -183 -6 -522 -4 -753 l3 -420 758 -3 c416 -1 757 1 757 5 0 10 -1492 1503 -1501 1503 -4 0 -10 -150 -13 -332z"
       id="path44"
       style="fill:#6666ff" />
    <path
       d="M3455 7648 l-237 -233 236 -235 c130 -129 241 -236 246 -238 6 -2 10 165 10 467 0 272 -4 471 -9 471 -5 0 -116 -105 -246 -232z"
       id="path46"
       style="fill:#ff9900" />
    <path
       d="M2691 6884 c-276 -273 -501 -500 -501 -505 0 -5 430 -9 1005 -9 553 0 1005 3 1005 8 0 9 -993 1002 -1002 1002 -4 0 -232 -223 -507 -496z"
       id="path48"
       style="fill:#6699ff" />
    <path
       d="M6917 6882 c-273 -273 -497 -500 -497 -505 0 -4 450 -7 1000 -7 550 0 1000 2 1000 4 0 5 -966 972 -991 993 -13 10 -97 -70 -512 -485z"
       id="path50"
       style="fill:#6699ff" />
    <path
       d="M312 6610 c-128 -126 -232 -232 -232 -235 0 -3 105 -4 232 -3 l233 3 1 233 c1 127 1 232 0 232 -1 0 -106 -103 -234 -230z"
       id="path52"
       style="fill:#33ff00" />
    <path
       d="M4528 6608 c-126 -128 -228 -234 -228 -235 0 -2 105 -2 233 -1 l232 3 3 125 c1 69 -1 174 -5 233 l-8 108 -227 -233z"
       id="path54"
       style="fill:#33ff00" />
    <path
       d="M583 5833 l507 -508 507 508 508 507 -1015 0 -1015 0 508 -507z"
       id="path56"
       style="fill:#6699ff" />
    <path
       d="M2192 6333 c1 -5 343 -348 760 -763 l758 -755 0 763 0 762 -760 0 c-418 0 -759 -3 -758 -7z"
       id="path58"
       style="fill:#6666ff" />
    <path
       d="M3746 6268 c-7 -71 -6 -388 0 -388 8 0 454 444 454 451 0 5 -101 9 -224 9 l-224 0 -6 -72z"
       id="path60"
       style="fill:#33ff00" />
    <path
       d="M4302 6333 c0 -5 227 -232 503 -506 l502 -499 501 502 c276 276 502 504 502 506 0 2 -452 4 -1005 4 -553 0 -1004 -3 -1003 -7z"
       id="path62"
       style="fill:#6699ff" />
    <path
       d="M6410 6337 c0 -1 339 -341 753 -755 l752 -752 8 51 c4 28 6 367 5 753 l-3 701 -757 3 c-417 1 -758 1 -758 -1z"
       id="path64"
       style="fill:#6666ff" />
    <path
       d="M7960 6103 l0 -238 235 235 c129 129 235 236 235 237 0 2 -106 3 -235 3 l-235 0 0 -237z"
       id="path66"
       style="fill:#33ff00" />
    <path
       d="M50 5307 c0 -554 3 -1007 8 -1007 4 0 116 109 250 243 l242 242 0 515 0 515 -250 250 -250 250 0 -1008z"
       id="path68"
       style="fill:#99cc00" />
    <path
       d="M1369 5560 c-409 -413 -745 -755 -747 -760 -2 -6 276 -10 747 -10 l751 0 0 760 c0 418 -2 760 -4 760 -2 0 -338 -338 -747 -750z"
       id="path70"
       style="fill:#6666ff" />
    <path
       d="M2160 5300 l0 -1015 507 508 508 507 -508 507 -507 508 0 -1015z"
       id="path72"
       style="fill:#6699ff" />
    <path
       d="M3982 6063 l-242 -248 0 -515 0 -515 245 -245 245 -245 0 1008 c0 554 -1 1007 -3 1007 -2 0 -112 -111 -245 -247z"
       id="path74"
       style="fill:#99cc00" />
    <path
       d="M4270 5307 c0 -554 2 -1007 5 -1007 2 0 115 111 250 246 l245 246 0 512 0 511 -250 250 -250 250 0 -1008z"
       id="path76"
       style="fill:#99cc00" />
    <path
       d="M5585 5550 l-760 -760 747 0 c410 0 753 3 762 6 14 5 16 84 16 760 0 415 -2 754 -3 754 -1 0 -344 -342 -762 -760z"
       id="path78"
       style="fill:#6666ff" />
    <path
       d="M6373 5309 c2 -550 8 -1003 11 -1007 4 -3 233 220 509 496 l502 502 -505 505 c-278 278 -509 505 -514 505 -5 0 -6 -424 -3 -1001z"
       id="path80"
       style="fill:#6699ff" />
    <path
       d="M8203 6058 l-243 -243 0 -515 0 -515 243 -243 c134 -133 246 -240 250 -236 8 8 7 1278 -2 1692 l-6 302 -242 -242z"
       id="path82"
       style="fill:#99cc00" />
    <path
       d="M577 5614 c-8 -193 -7 -496 2 -669 l6 -120 240 237 240 237 -241 242 -241 241 -6 -168z"
       id="path84"
       style="fill:#ff9900" />
    <path
       d="M4800 5306 c0 -447 1 -478 17 -465 9 8 117 115 241 238 l223 224 -240 241 -241 241 0 -479z"
       id="path86"
       style="fill:#ff9900" />
    <path
       d="M3077 5158 c-62 -62 -169 -170 -237 -240 l-123 -128 484 0 484 0 -240 240 c-132 132 -243 240 -247 240 -4 0 -58 -51 -121 -112z"
       id="path88"
       style="fill:#ff9900" />
    <path
       d="M7175 5030 l-240 -240 485 0 485 0 -240 240 c-132 132 -242 240 -245 240 -3 0 -113 -108 -245 -240z"
       id="path90"
       style="fill:#ff9900" />
    <path
       d="M328 4516 c-137 -135 -248 -248 -248 -251 0 -3 452 -5 1005 -5 553 0 1005 3 1005 8 0 4 -108 115 -239 246 l-239 239 -519 4 -518 4 -247 -245z"
       id="path92"
       style="fill:#99cc00" />
    <path
       d="M1670 4754 c0 -9 441 -454 450 -454 3 0 4 101 2 225 l-3 225 -97 0 c-53 0 -154 3 -224 7 -75 3 -128 2 -128 -3z"
       id="path94"
       style="fill:#33ff00" />
    <path
       d="M2438 4514 c-137 -137 -248 -249 -248 -251 0 -2 452 -3 1005 -3 553 0 1005 3 1005 8 0 4 -107 114 -238 245 l-238 238 -519 5 -520 6 -247 -248z"
       id="path96"
       style="fill:#99cc00" />
    <path
       d="M4553 4519 c-134 -135 -243 -247 -243 -252 0 -4 450 -7 1000 -7 550 0 1000 3 1000 8 0 4 -107 114 -238 245 l-238 238 -519 5 -520 6 -242 -243z"
       id="path98"
       style="fill:#99cc00" />
    <path
       d="M5880 4759 c0 -8 449 -454 460 -457 6 -2 10 80 10 222 l0 226 -107 0 c-60 0 -165 3 -235 7 -71 3 -128 4 -128 2z"
       id="path100"
       style="fill:#33ff00" />
    <path
       d="M6663 4518 c-134 -134 -243 -246 -243 -251 0 -4 450 -7 1000 -7 550 0 1000 3 1000 8 0 4 -108 115 -239 246 l-239 239 -518 4 -519 5 -242 -244z"
       id="path102"
       style="fill:#99cc00" />
    <path
       d="M325 3980 l251 -250 514 0 514 0 251 250 250 250 -1015 0 -1015 0 250 -250z"
       id="path104"
       style="fill:#99cc00" />
    <path
       d="M2435 3980 l250 -250 511 0 512 0 246 245 c135 135 246 248 246 250 0 3 -453 5 -1007 5 l-1008 0 250 -250z"
       id="path106"
       style="fill:#99cc00" />
    <path
       d="M4545 3980 l250 -250 515 0 515 0 243 243 c133 133 242 245 242 250 0 4 -453 7 -1007 7 l-1008 0 250 -250z"
       id="path108"
       style="fill:#99cc00" />
    <path
       d="M6655 3980 l250 -250 515 0 514 0 251 250 250 250 -1015 0 -1015 0 250 -250z"
       id="path110"
       style="fill:#99cc00" />
    <path
       d="M50 3197 c0 -554 3 -1007 8 -1007 4 0 116 109 250 243 l242 242 0 516 -1 515 -249 249 -250 250 0 -1008z"
       id="path112"
       style="fill:#99cc00" />
    <path
       d="M2162 3970 l3 -235 228 -3 c125 -1 227 1 227 5 0 5 -104 112 -230 238 l-230 230 2 -235z"
       id="path114"
       style="fill:#33ff00" />
    <path
       d="M4270 3197 c0 -554 3 -1007 8 -1007 4 0 116 109 250 243 l242 242 0 515 0 515 -250 250 -250 250 0 -1008z"
       id="path116"
       style="fill:#99cc00" />
    <path
       d="M5840 3699 c-272 -274 -497 -501 -500 -504 -5 -7 991 -1005 1002 -1005 4 0 8 452 8 1005 0 553 -4 1004 -8 1004 -4 -1 -230 -226 -502 -500z"
       id="path118"
       style="fill:#6699ff" />
    <path
       d="M6375 4149 c-3 -30 -5 -135 -3 -234 l3 -180 233 -3 c127 -1 232 1 232 5 0 5 -103 111 -229 237 l-229 229 -7 -54z"
       id="path120"
       style="fill:#33ff00" />
    <path
       d="M8203 3950 l-243 -245 0 -515 0 -515 244 -244 243 -243 6 39 c8 47 6 1265 -2 1673 l-6 295 -242 -245z"
       id="path122"
       style="fill:#99cc00" />
    <path
       d="M1615 3690 l-500 -500 503 -503 502 -502 0 1003 c0 551 -1 1002 -3 1002 -1 0 -227 -225 -502 -500z"
       id="path124"
       style="fill:#6699ff" />
    <path
       d="M3982 3947 l-242 -242 0 -515 0 -515 245 -245 245 -245 0 1003 c0 551 -1 1002 -3 1002 -1 0 -111 -109 -245 -243z"
       id="path126"
       style="fill:#99cc00" />
    <path
       d="M848 3458 l242 -243 242 243 243 242 -485 0 -485 0 243 -242z"
       id="path128"
       style="fill:#ff9900" />
    <path
       d="M2160 2941 l0 -760 683 683 c375 375 715 717 756 759 l74 77 -756 0 -757 0 0 -759z"
       id="path130"
       style="fill:#6666ff" />
    <path
       d="M5068 3458 l242 -243 242 243 243 242 -485 0 -485 0 243 -242z"
       id="path132"
       style="fill:#ff9900" />
    <path
       d="M6377 3693 c-8 -8 -7 -983 2 -1288 l6 -220 760 757 760 758 -761 0 c-418 0 -764 -3 -767 -7z"
       id="path134"
       style="fill:#6666ff" />
    <path
       d="M582 2915 l3 -760 753 -3 c413 -1 752 1 752 5 0 5 -340 348 -755 763 l-755 755 2 -760z"
       id="path136"
       style="fill:#6666ff" />
    <path
       d="M3465 3430 l-240 -240 243 -243 242 -242 0 483 c0 265 -1 482 -3 482 -1 0 -110 -108 -242 -240z"
       id="path138"
       style="fill:#ff9900" />
    <path
       d="M4800 2912 l0 -762 755 0 c415 0 755 3 755 8 0 4 -340 347 -755 762 l-755 755 0 -763z"
       id="path140"
       style="fill:#6666ff" />
    <path
       d="M7680 3429 l-233 -240 234 -238 c129 -131 237 -239 241 -239 4 -1 8 214 8 478 0 264 -4 480 -9 480 -5 0 -113 -108 -241 -241z"
       id="path142"
       style="fill:#ff9900" />
    <path
       d="M2690 2655 l-505 -505 1008 0 c554 0 1007 3 1007 8 0 8 -992 1002 -1000 1002 -3 0 -232 -227 -510 -505z"
       id="path144"
       style="fill:#6699ff" />
    <path
       d="M6910 2655 l-505 -505 1008 0 c554 0 1007 3 1007 7 0 8 -992 1003 -1000 1003 -3 0 -232 -227 -510 -505z"
       id="path146"
       style="fill:#6699ff" />
    <path
       d="M305 2383 l-227 -228 228 -3 c125 -1 229 0 232 2 9 9 12 456 3 456 -5 0 -111 -102 -236 -227z"
       id="path148"
       style="fill:#33ff00" />
    <path
       d="M4525 2380 l-230 -230 235 2 235 3 3 120 c1 66 -1 168 -5 228 l-8 107 -230 -230z"
       id="path150"
       style="fill:#33ff00" />
    <path
       d="M581 1614 l506 -506 506 506 505 506 -1011 0 -1012 0 506 -506z"
       id="path152"
       style="fill:#6699ff" />
    <path
       d="M2945 1360 c418 -418 761 -760 762 -760 2 0 3 342 3 760 l0 760 -762 0 -763 0 760 -760z"
       id="path154"
       style="fill:#6666ff" />
    <path
       d="M3740 1890 c1 -126 4 -230 8 -230 10 0 452 443 452 453 0 4 -104 7 -230 7 l-230 0 0 -230z"
       id="path156"
       style="fill:#33ff00" />
    <path
       d="M4803 1613 l507 -508 500 500 c275 275 500 503 500 508 0 4 -453 7 -1007 7 l-1008 0 508 -507z"
       id="path158"
       style="fill:#6699ff" />
    <path
       d="M6422 2110 c3 -9 1499 -1510 1505 -1510 1 0 3 342 3 760 l0 760 -756 0 c-495 0 -755 -3 -752 -10z"
       id="path160"
       style="fill:#6666ff" />
    <path
       d="M7960 1883 l0 -238 213 214 c116 117 220 224 230 237 l18 24 -231 0 -230 0 0 -237z"
       id="path162"
       style="fill:#33ff00" />
    <path
       d="M2160 1080 l0 -1015 507 508 508 507 -508 507 -507 508 0 -1015z"
       id="path164"
       style="fill:#6699ff" />
    <path
       d="M4270 1080 l0 -1015 250 250 250 250 0 515 0 515 -250 250 -250 250 0 -1015z"
       id="path166"
       style="fill:#99cc00" />
    <path
       d="M5583 1331 c-414 -416 -753 -757 -753 -758 0 -2 342 -3 760 -3 l760 0 0 760 c0 418 -3 759 -7 758 -5 -1 -347 -341 -760 -757z"
       id="path168"
       style="fill:#6666ff" />
    <path
       d="M8202 1847 l-242 -242 0 -520 0 -520 250 -250 250 -250 0 1013 c0 556 -4 1012 -8 1012 -4 -1 -116 -110 -250 -243z"
       id="path170"
       style="fill:#99cc00" />
    <path
       d="M50 1080 c0 -550 2 -1000 4 -1000 3 0 115 111 250 246 l246 245 0 512 0 512 -243 243 c-133 133 -245 242 -250 242 -4 0 -7 -450 -7 -1000z"
       id="path172"
       style="fill:#99cc00" />
    <path
       d="M1360 1325 l-755 -755 757 0 758 0 2 755 c2 415 1 755 -2 755 -3 0 -345 -340 -760 -755z"
       id="path174"
       style="fill:#6666ff" />
    <path
       d="M3982 1837 l-242 -242 0 -515 0 -515 245 -245 245 -245 0 1003 c0 551 -1 1002 -3 1002 -1 0 -111 -109 -245 -243z"
       id="path176"
       style="fill:#99cc00" />
    <path
       d="M6377 1712 c-8 -419 -7 -937 2 -1352 l6 -285 505 502 505 502 -490 491 c-269 270 -497 495 -506 500 -14 8 -16 -27 -22 -358z"
       id="path178"
       style="fill:#6699ff" />
    <path
       d="M576 1497 c-7 -69 -8 -897 -1 -897 2 0 113 109 245 241 l242 242 -240 239 -239 240 -7 -65z"
       id="path180"
       style="fill:#ff9900" />
    <path
       d="M4800 1080 l0 -485 242 243 243 242 -243 242 -242 243 0 -485z"
       id="path182"
       style="fill:#ff9900" />
    <path
       d="M7170 815 l-245 -245 490 0 490 0 -245 245 c-135 135 -245 245 -245 245 0 0 -110 -110 -245 -245z"
       id="path184"
       style="fill:#ff9900" />
    <path
       d="M2955 810 l-240 -240 478 0 c262 0 477 3 477 8 0 8 -462 472 -470 472 -3 0 -113 -108 -245 -240z"
       id="path186"
       style="fill:#ff9900" />
    <path
       d="M325 290 l-250 -250 1015 0 1015 0 -250 250 -250 250 -515 0 -515 0 -250 -250z"
       id="path188"
       style="fill:#99cc00" />
    <path
       d="M1670 532 c0 -8 442 -452 450 -452 3 0 4 103 2 230 l-3 230 -224 0 c-124 0 -225 -3 -225 -8z"
       id="path190"
       style="fill:#33ff00" />
    <path
       d="M2435 290 l-250 -250 1008 0 c554 0 1007 3 1007 8 0 4 -109 116 -243 250 l-242 242 -515 0 -515 0 -250 -250z"
       id="path192"
       style="fill:#99cc00" />
    <path
       d="M4548 293 c-137 -136 -248 -248 -248 -250 0 -6 1890 -3 1949 4 l63 6 -244 244 -243 243 -515 0 -515 0 -247 -247z"
       id="path194"
       style="fill:#99cc00" />
    <path
       d="M6105 310 c126 -126 233 -230 237 -230 4 0 7 104 8 230 l1 230 -238 0 -238 0 230 -230z"
       id="path196"
       style="fill:#33ff00" />
    <path
       d="M6645 290 l-250 -250 1020 0 1020 0 -250 250 -250 250 -520 0 -520 0 -250 -250z"
       id="path198"
       style="fill:#99cc00" />
  </g>
</svg>
