<?xml version="1.0" encoding="UTF-8" standalone="no"?>
<svg
   xmlns:dc="http://purl.org/dc/elements/1.1/"
   xmlns:cc="http://creativecommons.org/ns#"
   xmlns:rdf="http://www.w3.org/1999/02/22-rdf-syntax-ns#"
   xmlns:svg="http://www.w3.org/2000/svg"
   xmlns="http://www.w3.org/2000/svg"
   xmlns:sodipodi="http://sodipodi.sourceforge.net/DTD/sodipodi-0.dtd"
   xmlns:inkscape="http://www.inkscape.org/namespaces/inkscape"
   version="1.0"
   width="850.000000pt"
   height="850.000000pt"
   viewBox="0 0 850.000000 850.000000"
   preserveAspectRatio="xMidYMid meet"
   id="svg2"
   inkscape:version="0.91 r13725"
   sodipodi:docname="People518_016.svg">
  <defs
     id="defs464" />
  <sodipodi:namedview
     pagecolor="#ffffff"
     bordercolor="#666666"
     borderopacity="1"
     objecttolerance="10"
     gridtolerance="10"
     guidetolerance="10"
     inkscape:pageopacity="0"
     inkscape:pageshadow="2"
     inkscape:window-width="1920"
     inkscape:window-height="980"
     id="namedview462"
     showgrid="false"
     inkscape:zoom="1.7769412"
     inkscape:cx="595.97297"
     inkscape:cy="690.59416"
     inkscape:window-x="0"
     inkscape:window-y="1"
     inkscape:window-maximized="1"
     inkscape:current-layer="svg2" />
  <metadata
     id="metadata4">
Created by potrace 1.14, written by Peter Selinger 2001-2017
<rdf:RDF>
  <cc:Work
     rdf:about="">
    <dc:format>image/svg+xml</dc:format>
    <dc:type
       rdf:resource="http://purl.org/dc/dcmitype/StillImage" />
  </cc:Work>
</rdf:RDF>
</metadata>
  <g
     transform="translate(0.000000,850.000000) scale(0.100000,-0.100000)"
     fill="#000000"
     stroke="none"
     id="g6">
    <path
       d="M0 4250 l0 -4250 4250 0 4250 0 0 4250 0 4250 -4250 0 -4250 0 0 -4250z m3767 4159 c15 -6 38 -20 50 -31 l22 -20 47 26 c52 29 64 32 64 13 0 -9 18 -12 71 -9 49 3 83 -1 114 -12 50 -20 110 -80 119 -122 10 -42 48 -67 81 -54 14 6 49 10 77 10 35 0 58 6 75 20 14 11 34 20 45 20 31 0 76 -28 91 -57 l14 -26 19 28 c20 31 69 55 111 55 14 0 54 -8 87 -17 78 -22 158 -95 176 -162 6 -24 10 -52 7 -61 -3 -13 5 -20 37 -28 75 -19 119 -39 137 -63 15 -20 25 -23 69 -20 52 3 165 -13 206 -29 18 -7 23 -20 28 -73 8 -68 -4 -108 -38 -136 -24 -20 -20 -28 19 -34 34 -6 155 -82 155 -98 0 -5 -27 -27 -59 -50 -65 -46 -72 -72 -18 -62 18 3 42 12 54 19 12 8 32 14 44 14 22 0 23 -9 3 -76 -5 -18 0 -22 34 -28 76 -12 131 -82 118 -150 -4 -19 -24 -59 -46 -87 -34 -46 -38 -55 -26 -68 43 -50 61 -154 35 -204 -22 -43 -52 -67 -82 -67 -41 0 -107 -30 -107 -49 0 -25 -43 -121 -54 -121 -5 0 -18 7 -28 17 -17 15 -18 15 -18 0 0 -9 -11 -23 -23 -32 -23 -15 -24 -20 -30 -213 -5 -169 -20 -338 -43 -471 l-5 -33 43 35 c140 113 421 268 668 365 352 139 833 263 1560 402 140 26 311 62 380 79 159 39 206 46 214 33 8 -14 -27 -193 -68 -343 -100 -363 -256 -690 -461 -964 -219 -292 -478 -530 -690 -635 l-92 -45 34 -50 c83 -123 123 -283 123 -489 0 -267 -69 -496 -210 -701 -47 -67 -189 -214 -255 -263 l-30 -23 46 7 c102 13 237 -38 286 -108 32 -47 45 -146 21 -165 -12 -10 -13 -6 -10 23 4 28 -1 41 -23 64 -44 46 -73 53 -197 48 -122 -5 -176 -19 -236 -63 -20 -14 -80 -56 -132 -93 -81 -58 -99 -76 -124 -125 -29 -56 -29 -57 -16 -131 15 -92 41 -139 73 -134 14 2 22 10 22 23 0 14 -6 19 -19 17 -11 -2 -17 1 -14 10 3 7 16 13 29 13 51 0 29 -95 -25 -109 -34 -8 -62 5 -124 58 -67 57 -106 61 -167 15 -36 -27 -42 -38 -60 -113 l-20 -83 31 24 c18 13 49 27 71 30 l38 5 -40 -33 c-21 -19 -91 -87 -155 -153 -98 -102 -177 -170 -256 -223 -13 -9 -7 -8 18 1 75 29 156 91 263 202 129 133 163 160 229 179 56 17 84 9 37 -11 -51 -21 -143 -99 -225 -189 -233 -256 -499 -356 -872 -327 -149 12 -238 34 -339 84 -150 75 -339 225 -380 302 -11 20 -22 36 -25 36 -10 0 -70 -236 -70 -277 0 -23 14 -95 31 -160 43 -165 48 -303 19 -518 -12 -88 -22 -199 -23 -246 -2 -84 -1 -86 31 -123 41 -47 49 -68 63 -159 11 -71 50 -163 102 -240 35 -52 50 -125 32 -153 -9 -14 -12 -35 -8 -56 5 -37 -13 -84 -41 -107 -9 -8 -16 -21 -16 -30 0 -20 -41 -61 -63 -65 -9 -1 -26 -14 -37 -29 -13 -16 -31 -27 -45 -27 -17 0 -29 -9 -40 -30 -32 -62 -97 -68 -144 -15 -17 20 -31 40 -31 45 0 4 -25 67 -56 139 -68 162 -84 242 -90 446 -3 121 -9 175 -23 220 -11 33 -27 91 -35 129 -9 38 -26 92 -39 120 l-24 51 -7 -100 c-10 -139 -27 -195 -72 -235 -29 -25 -43 -31 -68 -27 -65 11 -109 26 -130 46 -12 12 -26 21 -30 21 -9 0 -68 48 -132 106 -33 30 -48 52 -55 84 -13 57 3 168 41 287 33 103 37 166 15 218 -20 50 -42 56 -335 95 -85 11 -193 32 -240 46 -47 14 -114 32 -150 40 -134 29 -205 131 -229 329 -13 110 -14 200 -2 297 5 40 12 99 14 130 l5 57 -51 15 c-96 28 -202 118 -264 223 l-25 44 -59 -56 c-51 -48 -62 -55 -86 -49 -46 11 -78 31 -111 69 -45 50 -58 79 -127 275 -71 201 -49 183 -199 154 -92 -18 -103 -15 -172 48 -80 74 -174 223 -174 276 0 63 426 238 691 283 110 19 149 21 349 16 277 -7 461 -40 642 -117 l69 -29 -7 52 c-3 29 -21 81 -39 117 -30 60 -77 199 -121 358 -9 34 -18 62 -20 62 -2 0 -32 -21 -66 -46 -75 -55 -225 -127 -323 -155 -245 -69 -613 4 -871 173 -109 71 -168 98 -212 98 -54 0 -121 25 -155 58 -16 15 -45 58 -64 95 -20 37 -45 73 -56 78 -27 15 -78 3 -128 -30 -50 -34 -69 -31 -69 13 0 37 40 81 105 114 l40 21 -37 1 c-23 0 -63 -13 -103 -32 -80 -39 -96 -34 -108 38 -7 38 -5 55 8 79 20 36 106 107 155 127 19 8 41 23 49 32 26 31 69 47 109 40 66 -12 150 -64 201 -125 27 -32 77 -81 112 -110 35 -29 98 -85 139 -124 64 -62 83 -74 130 -85 95 -22 220 -23 375 -5 81 9 161 14 177 11 44 -9 95 25 196 126 l82 84 -30 88 c-36 104 -56 186 -65 276 -11 99 -36 143 -105 185 -74 45 -117 94 -125 142 -3 21 -10 45 -16 53 -23 37 -27 64 -24 168 4 144 -9 188 -74 257 -48 51 -65 91 -58 139 2 18 -91 106 -192 179 -25 17 -85 69 -134 115 -114 105 -120 105 -247 20 -177 -121 -191 -128 -239 -128 -64 0 -151 29 -151 51 0 26 51 180 68 207 49 76 187 99 295 49 72 -33 66 -21 -21 40 -37 27 -79 62 -95 79 -38 44 -67 49 -119 22 -31 -17 -60 -23 -105 -23 -55 0 -65 3 -93 30 -17 16 -45 59 -63 95 -17 36 -33 67 -34 70 -5 9 103 40 141 40 39 0 81 -18 132 -56 36 -28 49 -31 36 -8 -5 9 -31 28 -58 43 -85 46 -145 171 -86 179 13 2 34 -4 48 -12 30 -21 30 -15 -1 32 -33 50 -41 94 -21 115 9 8 16 29 16 46 0 18 10 41 25 58 l25 28 20 -24 c23 -27 26 -84 6 -121 -12 -21 -12 -29 4 -60 10 -20 22 -65 26 -101 4 -35 10 -73 14 -84 7 -19 7 -19 14 2 10 30 33 36 55 12 20 -22 31 -62 31 -113 0 -19 14 -53 36 -86 37 -57 126 -154 156 -171 15 -8 17 -7 9 14 -23 59 -24 135 -2 204 28 95 111 223 111 173 0 -6 11 -28 25 -49 43 -65 85 -186 85 -247 0 -56 -23 -118 -54 -143 -28 -24 -19 -57 25 -93 22 -18 69 -56 102 -84 34 -27 80 -63 102 -79 22 -16 65 -52 95 -80 54 -51 117 -98 269 -202 68 -47 76 -51 79 -33 2 11 15 28 28 37 23 15 28 15 58 0 22 -10 40 -30 54 -60 12 -25 35 -61 50 -79 37 -41 60 -86 70 -135 7 -31 10 -18 16 77 28 447 119 867 243 1120 54 109 57 119 54 180 -3 50 -8 68 -22 78 -15 10 -19 26 -19 66 l0 53 -37 -1 -38 -1 3 39 c2 22 8 48 14 59 8 16 3 26 -31 61 -34 35 -41 48 -41 82 0 47 35 103 92 146 l36 28 -5 73 c-9 121 38 176 140 164 49 -6 49 -6 44 21 -6 30 8 62 26 62 7 0 32 -14 55 -31 l42 -31 11 29 c6 16 8 52 4 86 -8 71 3 87 56 87 31 0 39 4 39 19 0 27 38 71 62 71 11 0 22 -8 25 -20 3 -13 27 -28 73 -45 37 -14 76 -35 85 -45 24 -27 32 -25 40 8 11 43 54 92 99 113 46 21 139 25 183 8z m-2909 -1029 c25 -24 25 -21 12 -54 -8 -21 -16 -26 -45 -26 -46 0 -64 36 -39 75 20 30 43 32 72 5z m601 -51 c35 -25 42 -35 36 -52 -3 -12 -8 -32 -10 -45 -2 -13 -8 -29 -15 -36 -11 -15 -76 -26 -98 -18 -15 5 -52 78 -52 102 0 14 74 80 90 80 4 0 26 -14 49 -31z m-803 -194 c4 -8 12 -15 19 -15 6 0 20 -9 30 -20 16 -18 17 -24 5 -60 -16 -50 -24 -56 -77 -63 -50 -6 -66 4 -87 56 l-15 37 37 40 c38 42 78 53 88 25z m1128 -218 c27 -22 28 -25 15 -53 -19 -40 -66 -41 -88 -2 -15 25 -14 29 8 52 30 31 29 31 65 3z m495 -103 c12 -15 21 -38 21 -51 0 -15 10 -33 25 -45 36 -28 35 -90 -1 -123 -15 -14 -31 -25 -35 -25 -5 0 -9 -6 -9 -14 0 -21 -48 -56 -77 -56 -13 0 -35 12 -50 26 -14 14 -32 23 -40 20 -20 -8 -70 20 -77 42 -3 10 -4 51 -1 92 7 89 28 120 82 120 20 0 43 8 55 20 32 29 82 26 107 -6z m-1904 -37 c23 -19 25 -26 16 -48 -6 -17 -19 -28 -38 -32 -50 -9 -77 35 -46 77 22 31 35 32 68 3z m451 -50 c36 -33 37 -34 23 -71 -16 -44 -31 -53 -82 -51 -48 2 -55 10 -59 69 -3 45 -1 50 27 67 42 25 51 23 91 -14z m-387 -213 c13 -9 29 -32 37 -50 8 -19 21 -34 29 -34 9 0 24 -15 35 -32 24 -39 20 -69 -16 -111 -13 -16 -24 -34 -24 -40 0 -6 -10 -21 -22 -34 -24 -26 -79 -31 -97 -9 -8 9 -25 12 -55 9 -38 -5 -45 -2 -65 23 -13 17 -22 41 -21 63 0 20 -3 54 -6 77 -5 37 -3 43 26 67 17 15 38 27 45 27 7 0 27 14 43 30 34 34 57 37 91 14z m511 -254 c24 -18 24 -21 10 -47 -13 -22 -23 -28 -50 -28 -28 0 -35 5 -43 28 -7 22 -5 32 9 48 22 24 42 24 74 -1z m370 -150 c8 0 31 2 50 6 30 5 40 1 63 -22 16 -16 27 -38 27 -53 0 -15 7 -36 15 -47 34 -45 5 -124 -45 -124 -13 0 -24 -10 -30 -24 -19 -51 -91 -62 -130 -21 -13 14 -30 25 -37 25 -27 0 -63 48 -63 84 0 19 5 38 10 41 7 4 8 23 5 49 -5 34 -2 47 16 70 19 25 26 27 63 22 23 -3 48 -6 56 -6z m-620 -150 c11 -11 24 -20 28 -20 5 0 17 -9 26 -19 16 -17 16 -24 5 -58 -18 -54 -22 -56 -84 -60 l-54 -3 -21 42 c-11 23 -20 45 -20 50 0 12 78 88 90 88 6 0 19 -9 30 -20z"
       id="path8"
       style="fill:none" />
    <path
       d="M3590 8378 c-47 -24 -74 -61 -85 -118 l-6 -35 18 26 c10 14 42 49 70 77 49 47 55 50 92 45 22 -3 52 -2 68 2 26 7 26 8 8 15 -40 17 -119 11 -165 -12z"
       id="path10"
       style="fill:#ff3300" />
    <path
       d="M3893 8364 c-22 -9 -33 -21 -33 -34 0 -11 3 -20 6 -20 7 0 66 62 62 65 -2 1 -18 -4 -35 -11z"
       id="path12"
       style="fill:#ff3300" />
    <path
       d="M3237 8352 c-21 -23 -21 -55 2 -111 l18 -44 60 -1 c53 -1 66 -5 101 -33 43 -35 62 -30 62 17 0 50 -49 93 -158 138 -47 19 -54 19 -59 6 -3 -9 1 -29 11 -44 21 -37 20 -43 -4 -30 -33 17 -44 58 -24 87 19 30 13 40 -9 15z"
       id="path14"
       style="fill:#339900" />
    <path
       d="M3945 8352 c-16 -11 -36 -26 -43 -35 -10 -12 -5 -11 25 4 21 11 57 19 83 19 25 -1 54 0 65 2 15 2 21 -4 23 -25 3 -20 17 -38 52 -63 56 -40 66 -67 55 -151 -9 -72 -51 -121 -135 -154 -46 -18 -60 -28 -60 -44 0 -12 -7 -30 -15 -41 -22 -30 -18 -34 30 -34 38 0 52 6 94 43 28 23 61 51 75 62 23 19 25 27 31 170 6 146 6 151 -17 185 -48 73 -190 106 -263 62z"
       id="path16"
       style="fill:#ff3300" />
    <path
       d="M3700 8353 c-30 -2 -59 -9 -65 -16 -5 -7 -27 -26 -47 -41 -70 -53 -73 -138 -6 -171 18 -9 58 -42 88 -74 30 -31 49 -50 43 -41 -20 26 -15 35 7 15 16 -14 20 -15 20 -4 0 8 -5 20 -12 27 -9 9 -9 12 -1 12 7 0 15 -4 18 -10 3 -5 13 -10 22 -10 12 0 9 10 -13 48 -33 56 -84 159 -84 170 0 4 15 -20 33 -53 18 -33 48 -82 66 -110 l32 -50 -6 40 c-3 22 -9 51 -12 64 -4 14 -2 22 4 18 5 -3 15 -31 22 -62 7 -30 15 -55 18 -55 33 0 47 187 19 255 -15 36 -43 56 -73 53 -10 -1 -43 -3 -73 -5z m90 -135 c0 -51 -5 -47 -14 10 -4 29 -3 41 4 37 5 -3 10 -25 10 -47z m-135 -51 c64 -62 56 -80 -9 -21 -30 27 -54 52 -55 57 -3 18 22 4 64 -36z"
       id="path18"
       style="fill:#ff0000" />
    <path
       d="M3944 8304 c-50 -24 -66 -62 -58 -139 5 -49 11 -65 22 -65 9 0 23 -7 33 -15 15 -15 17 -12 23 39 12 96 27 120 21 36 -2 -41 -7 -84 -10 -95 -4 -15 0 -23 17 -30 19 -8 23 -17 22 -52 l-1 -42 36 19 c20 10 54 32 77 48 34 25 43 38 50 78 16 78 1 127 -47 158 -22 15 -43 36 -48 47 -9 27 -93 34 -137 13z m144 -231 c-12 -26 -29 -49 -36 -51 -7 -2 2 23 20 56 38 70 52 65 16 -5z"
       id="path20"
       style="fill:#ff0000" />
    <path
       d="M3125 8270 c-3 -5 -3 -31 1 -58 3 -27 1 -73 -5 -101 -18 -85 0 -115 79 -134 l25 -6 -4 80 c-2 46 2 91 8 107 10 23 8 36 -9 75 -19 43 -24 47 -55 47 -19 0 -37 -4 -40 -10z"
       id="path22"
       style="fill:#99ff00" />
    <path
       d="M4494 8205 c-11 -8 -41 -14 -72 -15 -85 0 -142 -41 -142 -102 0 -15 9 -51 21 -80 11 -28 18 -60 15 -71 -6 -23 18 -48 76 -75 49 -24 74 -21 83 9 4 10 16 24 27 30 19 10 18 13 -23 53 -59 58 -123 136 -110 136 10 0 37 -27 99 -99 l29 -34 -8 69 c-5 38 -11 83 -15 99 -4 19 -3 26 4 20 15 -16 32 -75 32 -116 0 -45 15 -89 30 -89 6 0 18 6 26 14 7 8 18 16 24 18 6 2 11 17 10 33 -3 66 -2 92 5 131 6 35 4 44 -16 63 -26 24 -67 27 -95 6z m81 -128 c-17 -42 -40 -52 -25 -11 17 43 33 69 37 58 2 -6 -3 -27 -12 -47z"
       id="path24"
       style="fill:#cc99cc" />
    <path
       d="M4830 8207 c0 -19 32 -46 88 -77 34 -18 53 -37 70 -70 16 -33 22 -38 22 -22 0 70 -71 150 -157 176 -16 5 -23 3 -23 -7z"
       id="path26"
       style="fill:#cc66ff" />
    <path
       d="M4704 8200 c-30 -12 -84 -89 -84 -119 0 -33 20 -105 27 -98 2 3 11 27 18 54 12 43 13 45 14 16 1 -17 -3 -43 -9 -57 -15 -41 4 -30 48 27 22 28 57 68 76 86 20 19 36 40 36 47 0 16 -62 54 -86 53 -11 0 -28 -4 -40 -9z"
       id="path28"
       style="fill:#cc99cc" />
    <path
       d="M4250 8108 c0 -80 23 -178 42 -178 10 0 1 40 -19 87 -17 42 -16 91 2 127 16 30 12 46 -11 46 -11 0 -14 -17 -14 -82z"
       id="path30"
       style="fill:#ff3300" />
    <path
       d="M3278 8163 c-32 -37 -39 -117 -17 -203 11 -44 11 -52 -4 -68 -34 -38 -47 -189 -17 -207 24 -15 203 98 222 140 16 34 -14 80 -42 65 -10 -5 -29 -10 -42 -9 -19 1 -16 4 15 16 38 16 49 33 22 33 -8 0 -15 5 -15 10 0 6 4 10 8 10 5 0 6 27 4 60 -3 43 0 66 11 84 15 22 15 25 -1 40 -22 19 -85 46 -110 46 -10 0 -26 -8 -34 -17z m77 -223 c4 -6 -5 -10 -19 -10 -14 0 -26 5 -26 10 0 6 9 10 19 10 11 0 23 -4 26 -10z m-35 -54 c0 -11 -19 -15 -25 -6 -3 5 1 10 9 10 9 0 16 -2 16 -4z"
       id="path32"
       style="fill:#99ff00" />
    <path
       d="M3493 8123 c-57 -11 -79 -91 -47 -175 17 -45 65 -98 88 -98 7 0 33 18 57 40 38 34 41 39 22 40 -43 0 -35 20 9 21 l43 1 -58 18 c-58 18 -97 44 -97 63 0 6 8 3 18 -6 17 -16 94 -47 115 -47 6 0 2 7 -9 15 -24 18 -7 19 26 0 46 -26 40 -16 -29 55 -38 39 -74 70 -79 70 -6 0 -16 2 -24 4 -7 2 -23 1 -35 -1z m42 -173 c3 -5 2 -10 -4 -10 -5 0 -13 5 -16 10 -3 6 -2 10 4 10 5 0 13 -4 16 -10z"
       id="path34"
       style="fill:#ff0000" />
    <path
       d="M4783 8072 c-32 -32 -66 -73 -77 -91 l-18 -33 31 7 c44 9 69 -2 76 -34 5 -25 12 -30 49 -35 52 -8 89 5 111 37 23 36 30 92 15 127 -13 31 -82 80 -113 80 -10 0 -43 -26 -74 -58z m67 -27 c0 -8 -91 -67 -96 -62 -3 2 14 19 38 36 39 29 58 37 58 26z m90 -30 c-7 -8 -17 -15 -23 -15 -5 0 -2 9 8 20 21 23 35 19 15 -5z"
       id="path36"
       style="fill:#cc99cc" />
    <path
       d="M2996 8111 c-7 -11 21 -108 42 -143 19 -33 33 -35 56 -9 16 18 16 22 1 57 -15 37 -71 104 -86 104 -4 0 -10 -4 -13 -9z"
       id="path38"
       style="fill:#339900" />
    <path
       d="M3872 8064 c-30 -21 -26 -58 6 -62 32 -5 54 16 50 47 -4 31 -25 37 -56 15z"
       id="path40"
       style="fill:#ffcc00" />
    <path
       d="M2855 8051 c-11 -5 -29 -24 -39 -44 -18 -31 -18 -41 -7 -107 6 -40 14 -77 17 -82 3 -4 28 -8 56 -8 41 0 56 5 83 29 25 21 30 32 23 45 -20 35 -38 86 -31 86 5 0 17 -18 27 -40 21 -44 39 -48 44 -9 3 28 -31 83 -68 110 -30 23 -78 32 -105 20z m50 -182 c11 -17 -1 -21 -15 -4 -8 9 -8 15 -2 15 6 0 14 -5 17 -11z"
       id="path42"
       style="fill:#99ff00" />
    <path
       d="M3778 8013 c-19 -22 -13 -43 12 -43 23 0 44 26 36 45 -7 20 -29 19 -48 -2z"
       id="path44"
       style="fill:#ffcc00" />
    <path
       d="M3942 8000 c-28 -18 -32 -23 -21 -36 7 -9 25 -14 43 -12 27 3 31 7 31 32 0 37 -12 41 -53 16z"
       id="path46"
       style="fill:#ffcc00" />
    <path
       d="M3837 7961 c-27 -17 -27 -18 -8 -35 25 -22 55 -17 59 10 5 34 -19 46 -51 25z"
       id="path48"
       style="fill:#ffcc00" />
    <path
       d="M3108 7940 c-28 -17 -65 -56 -95 -97 -41 -58 -48 -74 -48 -114 0 -54 27 -91 84 -115 55 -23 80 -18 123 26 31 31 39 45 34 62 -3 13 -6 32 -6 43 0 16 -7 12 -34 -20 -46 -54 -56 -39 -11 19 19 25 32 46 28 46 -11 0 -77 -52 -110 -88 -59 -62 -88 -9 -37 68 26 39 87 70 138 70 17 0 18 2 6 10 -12 8 -12 10 3 14 47 16 52 18 40 23 -19 7 -16 20 7 26 41 11 16 38 -45 50 -23 4 -42 -2 -77 -23z"
       id="path50"
       style="fill:#ffcc33" />
    <path
       d="M5018 7959 c-10 -5 -18 -14 -18 -19 0 -6 8 -18 18 -28 9 -9 24 -28 32 -40 l15 -23 33 32 c17 17 32 37 32 45 0 26 -83 51 -112 33z"
       id="path52"
       style="fill:#ff9900" />
    <path
       d="M3694 7947 c-12 -7 -49 -37 -82 -68 l-61 -55 57 -56 c58 -56 94 -80 144 -92 l28 -6 -33 59 c-17 32 -35 57 -38 55 -8 -5 -19 21 -19 42 0 9 5 12 10 9 6 -4 10 10 10 34 0 41 8 71 19 71 3 0 6 -35 6 -78 0 -65 4 -84 26 -122 44 -74 59 -84 128 -77 40 3 79 15 119 37 59 31 151 114 140 126 -4 3 -23 1 -43 -6 -46 -15 -127 -15 -157 1 -13 6 -50 33 -83 59 -64 50 -116 80 -137 80 -7 -1 -22 -6 -34 -13z m-27 -213 c-8 -9 -77 60 -77 77 0 8 19 -5 42 -28 23 -23 39 -45 35 -49z m339 -20 c-3 -8 -10 -14 -16 -14 -10 0 -4 43 9 65 8 13 14 -32 7 -51z m-268 7 c3 -8 -1 -12 -9 -9 -7 2 -15 10 -17 17 -3 8 1 12 9 9 7 -2 15 -10 17 -17z m222 4 c0 -8 -4 -15 -10 -15 -5 0 -10 7 -10 15 0 8 5 15 10 15 6 0 10 -7 10 -15z"
       id="path54"
       style="fill:#ff0000" />
    <path
       d="M4240 7953 c0 -17 -48 -60 -83 -74 l-29 -12 27 -14 c19 -10 25 -20 22 -34 -4 -15 0 -19 19 -19 28 0 74 62 74 100 0 26 -29 77 -30 53z"
       id="path56"
       style="fill:#ff3300" />
    <path
       d="M4593 7943 c-7 -2 -13 -13 -13 -22 0 -24 33 -53 53 -46 17 7 31 50 22 65 -6 10 -41 12 -62 3z"
       id="path58"
       style="fill:#ccff33" />
    <path
       d="M4703 7918 c-33 -42 -20 -78 28 -78 34 0 52 28 43 65 -5 19 -13 25 -34 25 -15 0 -32 -6 -37 -12z"
       id="path60"
       style="fill:#ccff33" />
    <path
       d="M3900 7905 c-11 -13 -10 -18 6 -30 10 -8 29 -15 41 -15 23 0 48 33 38 50 -10 16 -71 12 -85 -5z"
       id="path62"
       style="fill:#ffcc00" />
    <path
       d="M5115 7868 c-46 -44 -50 -53 -55 -103 -3 -30 -4 -55 -2 -55 15 0 123 64 130 77 26 51 19 135 -11 131 -7 -1 -34 -23 -62 -50z m17 -30 c-7 -7 -12 -8 -12 -2 0 14 12 26 19 19 2 -3 -1 -11 -7 -17z"
       id="path64"
       style="fill:#ff9900" />
    <path
       d="M4515 7874 c-25 -25 -15 -49 23 -52 26 -3 32 0 32 17 0 49 -24 65 -55 35z"
       id="path66"
       style="fill:#ccff33" />
    <path
       d="M4930 7875 c-14 -8 -50 -14 -81 -15 -48 0 -57 -3 -62 -20 -4 -16 4 -22 42 -35 48 -16 134 -64 115 -65 -6 0 -45 16 -87 35 -42 19 -91 35 -110 35 -32 0 -35 -2 -41 -40 -7 -43 6 -78 50 -137 13 -17 24 -35 24 -39 0 -16 -45 35 -71 82 -25 44 -33 50 -54 46 -22 -4 -25 -9 -25 -48 0 -24 -5 -64 -12 -89 -11 -42 -11 -47 9 -67 15 -15 38 -23 76 -26 94 -8 160 28 173 95 5 26 2 32 -15 38 -22 7 -77 72 -68 81 2 3 21 -9 41 -26 44 -39 100 -54 135 -37 57 28 88 143 56 210 -19 41 -49 48 -95 22z m-95 -115 c27 -30 12 -34 -15 -5 -13 14 -19 25 -13 25 5 0 18 -9 28 -20z"
       id="path68"
       style="fill:#cc99cc" />
    <path
       d="M5243 7865 c-3 -9 -3 -18 0 -21 9 -9 188 -15 203 -6 12 7 1 13 -43 25 -77 22 -152 22 -160 2z"
       id="path70"
       style="fill:#ff9900" />
    <path
       d="M4280 7840 c-12 -7 -9 -13 13 -30 15 -12 39 -44 52 -70 31 -61 96 -115 171 -140 67 -24 81 -17 84 40 4 68 0 85 -25 113 -24 25 -75 38 -75 19 0 -11 -80 -56 -87 -49 -2 3 8 12 24 21 46 23 56 40 35 58 -41 36 -159 59 -192 38z m175 -60 c-3 -5 -18 -10 -33 -9 -24 0 -25 1 -7 9 28 12 47 12 40 0z m68 -47 c-6 -24 -32 -58 -38 -51 -7 6 27 68 37 68 3 0 4 -8 1 -17z"
       id="path72"
       style="fill:#cc99cc" />
    <path
       d="M4602 7828 c-17 -17 -15 -42 6 -61 33 -30 72 -15 72 28 0 12 -5 26 -12 33 -7 7 -21 12 -33 12 -12 0 -26 -5 -33 -12z"
       id="path74"
       style="fill:#ccff33" />
    <path
       d="M5455 7823 c-16 -12 -37 -14 -96 -9 -93 8 -106 3 -114 -37 -4 -18 -17 -48 -30 -68 -20 -31 -21 -37 -9 -54 8 -10 14 -31 14 -47 l0 -28 76 0 c88 0 105 7 142 61 53 80 62 102 56 139 -10 54 -16 61 -39 43z m-35 -63 c-12 -23 -78 -75 -86 -68 -2 3 8 13 23 24 15 10 36 28 46 41 22 28 31 30 17 3z"
       id="path76"
       style="fill:#ffcc00" />
    <path
       d="M3147 7819 c-58 -13 -75 -26 -97 -69 -30 -58 -24 -70 13 -29 17 21 56 53 86 73 29 20 49 36 45 35 -5 -1 -26 -5 -47 -10z"
       id="path78"
       style="fill:#99ff00" />
    <path
       d="M3480 7805 c-7 -14 -17 -25 -21 -25 -8 0 -53 -70 -48 -74 2 -1 34 16 71 39 62 39 66 43 50 57 -31 27 -39 28 -52 3z"
       id="path80"
       style="fill:#339900" />
    <path
       d="M2772 7793 c-35 -17 -76 -78 -86 -128 -5 -26 0 -37 41 -78 85 -89 83 -88 153 -18 33 34 67 61 75 61 19 0 19 9 0 34 -8 11 -15 41 -15 67 l0 46 -56 6 c-30 3 -61 10 -67 16 -9 7 -23 5 -45 -6z m128 -53 c8 -5 12 -11 9 -14 -7 -8 -49 5 -49 15 0 12 21 11 40 -1z m25 -60 c-3 -5 -10 -10 -16 -10 -5 0 -9 5 -9 10 0 6 7 10 16 10 8 0 12 -4 9 -10z m-45 -10 c-8 -5 -22 -10 -30 -10 -13 0 -13 1 0 10 8 5 22 10 30 10 13 0 13 -1 0 -10z m18 -28 c-14 -9 -47 -35 -72 -56 -26 -21 -50 -36 -53 -32 -4 3 0 13 8 20 25 24 121 86 133 86 6 0 -1 -8 -16 -18z"
       id="path82"
       style="fill:#99ff00" />
    <path
       d="M5208 7780 c-11 -19 -43 -42 -96 -69 -69 -35 -132 -87 -132 -110 0 -10 39 -46 43 -40 2 2 7 14 13 27 5 13 41 42 79 65 55 33 74 52 93 89 27 52 27 85 0 38z"
       id="path84"
       style="fill:#cc6600" />
    <path
       d="M4255 7780 c-9 -27 3 -78 26 -116 22 -36 76 -64 167 -88 81 -20 109 -20 57 1 -81 33 -158 98 -181 153 -16 36 -42 70 -55 70 -4 0 -11 -9 -14 -20z"
       id="path86"
       style="fill:#cc66ff" />
    <path
       d="M4116 7754 c-14 -15 -26 -32 -26 -39 0 -28 99 -91 127 -81 13 5 15 17 10 58 -11 86 -59 113 -111 62z"
       id="path88"
       style="fill:#ff3300" />
    <path
       d="M3491 7723 c-35 -21 -104 -75 -153 -120 -94 -87 -135 -107 -200 -99 -31 4 -40 -1 -76 -37 -105 -109 -291 -445 -356 -642 -31 -95 -93 -375 -110 -500 -15 -103 -36 -378 -42 -545 -6 -164 -5 -189 10 -219 10 -18 19 -31 21 -29 1 1 0 48 -4 103 -7 107 0 244 11 210 3 -11 10 -94 13 -185 4 -91 12 -173 17 -184 18 -34 27 -2 18 64 -11 76 -11 327 -1 450 7 71 8 54 9 -106 2 -155 16 -394 25 -400 1 -1 18 -4 38 -8 35 -6 36 -5 48 33 13 44 52 81 85 81 11 0 36 -9 55 -21 18 -11 37 -17 41 -12 5 4 1 43 -8 85 -16 71 -20 79 -59 107 -51 37 -100 119 -108 181 -3 25 -15 68 -26 95 -37 97 -51 192 -46 320 4 103 9 132 36 208 78 215 147 334 292 505 86 101 100 123 119 186 12 39 36 98 53 131 62 117 218 256 365 324 49 23 51 25 35 43 -22 25 -29 23 -102 -19z"
       id="path90"
       style="fill:#cc6699" />
    <path
       d="M3340 7703 c-35 -21 -133 -150 -120 -158 14 -9 56 26 112 93 62 74 65 100 8 65z"
       id="path92"
       style="fill:#339900" />
    <path
       d="M3528 7656 c-195 -111 -297 -223 -353 -389 -29 -86 -31 -126 -11 -166 33 -64 42 -57 54 41 8 68 20 110 47 166 66 139 181 275 260 307 45 19 42 16 -35 -42 -94 -71 -195 -216 -230 -331 -20 -65 -27 -195 -12 -219 11 -17 143 -76 229 -102 40 -12 79 -24 88 -27 13 -5 12 0 -4 28 -11 18 -25 67 -31 108 -36 252 111 484 363 575 113 41 113 37 2 -19 -60 -30 -130 -71 -154 -92 -109 -94 -193 -413 -146 -554 21 -64 83 -130 139 -147 34 -11 37 -10 33 5 -62 195 -61 365 3 501 64 136 136 218 258 295 l73 46 -18 25 c-19 27 -19 27 -108 -6 -46 -17 -79 -22 -144 -21 -66 1 -92 -3 -123 -19 -117 -60 -239 -239 -287 -423 -24 -90 -26 -124 -10 -179 11 -41 4 -62 -11 -37 -17 27 -22 115 -10 180 35 192 178 416 303 476 l35 17 -47 23 c-25 13 -53 24 -61 24 -9 0 -50 -20 -92 -44z"
       id="path94"
       style="fill:#cc6699" />
    <path
       d="M3195 7629 c-37 -38 -76 -59 -111 -59 -22 0 -25 -2 -14 -15 7 -9 29 -15 52 -15 33 0 45 7 84 46 42 44 50 64 28 71 -6 2 -23 -11 -39 -28z"
       id="path96"
       style="fill:#339900" />
    <path
       d="M5130 7633 l-26 -16 29 -28 c16 -16 30 -29 33 -29 13 0 35 52 29 70 -7 23 -30 24 -65 3z"
       id="path98"
       style="fill:#cccc33" />
    <path
       d="M4250 7618 c0 -14 -3 -27 -6 -30 -3 -3 -31 5 -63 19 l-58 25 -84 -55 c-173 -111 -248 -239 -249 -422 0 -135 50 -261 146 -364 54 -59 139 -111 206 -125 l28 -6 -39 60 c-22 33 -54 100 -71 148 -28 73 -34 105 -38 199 -4 99 -2 121 22 202 26 91 61 171 98 224 31 44 34 23 4 -28 -66 -112 -97 -229 -97 -369 0 -147 41 -265 118 -342 35 -35 119 -81 130 -71 2 3 -12 27 -31 55 -121 167 -156 383 -101 611 26 106 61 190 96 227 23 24 24 37 4 54 -13 10 -15 9 -15 -12z"
       id="path100"
       style="fill:#cc6699" />
    <path
       d="M2923 7581 c-53 -38 -103 -118 -102 -162 l0 -34 14 37 c14 38 45 87 56 88 3 0 -7 -25 -23 -56 -15 -31 -28 -65 -28 -75 0 -21 -15 -25 -24 -6 -3 6 -4 1 -3 -12 3 -30 27 -46 58 -38 33 9 144 117 168 165 17 34 18 42 6 58 -15 21 -13 24 -35 -48 -16 -52 -33 -60 -24 -11 4 21 10 47 14 57 8 22 -10 66 -26 66 -6 0 -29 -13 -51 -29z m26 -98 c-39 -69 -38 -68 -45 -61 -6 7 19 59 48 101 34 48 32 21 -3 -40z"
       id="path102"
       style="fill:#99ff00" />
    <path
       d="M5423 7591 c-23 -19 -30 -41 -14 -41 5 0 31 -20 59 -45 27 -25 54 -45 59 -45 6 0 29 14 53 31 l42 31 -23 25 c-32 33 -91 63 -126 63 -15 -1 -38 -9 -50 -19z"
       id="path104"
       style="fill:#ffcc00" />
    <path
       d="M5060 7570 c-9 -17 -8 -26 5 -46 13 -20 19 -22 35 -14 20 11 29 70 11 70 -5 0 -16 3 -24 6 -10 3 -20 -3 -27 -16z"
       id="path106"
       style="fill:#cccc33" />
    <path
       d="M4267 7546 c-38 -49 -61 -106 -87 -219 -31 -133 -25 -275 15 -395 32 -96 115 -228 162 -257 51 -32 35 -47 -34 -31 l-28 7 25 -21 c38 -32 177 -95 250 -115 101 -27 169 -34 234 -22 l60 10 -43 20 c-57 27 -134 121 -182 222 -21 44 -61 161 -88 260 -86 313 -142 451 -214 530 l-42 46 -28 -35z m92 -148 c33 -73 58 -167 101 -368 52 -246 93 -352 171 -452 27 -33 29 -39 11 -29 -27 15 -75 84 -113 165 -29 63 -89 277 -89 320 0 44 -70 307 -95 356 -14 27 -25 54 -25 60 0 23 13 6 39 -52z"
       id="path108"
       style="fill:#cc6699" />
    <path
       d="M4357 7547 c105 -119 187 -286 283 -577 80 -239 116 -323 155 -360 l26 -25 -21 50 c-12 28 -46 140 -76 250 -98 359 -161 491 -296 618 -84 79 -123 103 -71 44z"
       id="path110"
       style="fill:#993366" />
    <path
       d="M4903 7558 c-32 -40 -18 -148 24 -199 37 -44 79 -62 130 -56 36 4 42 2 32 -9 -6 -8 -27 -14 -45 -14 -28 0 -34 -4 -34 -21 0 -27 62 -89 88 -89 43 0 100 71 116 146 9 41 -13 64 -62 64 -47 0 -136 41 -156 72 -8 13 -18 35 -21 50 -7 27 -39 68 -54 68 -5 0 -13 -6 -18 -12z"
       id="path112"
       style="fill:#ffcc00" />
    <path
       d="M4448 7515 c125 -112 201 -269 287 -595 69 -263 124 -378 191 -400 62 -21 68 15 13 78 -44 50 -71 111 -139 307 -68 198 -182 460 -229 528 -35 51 -105 117 -125 117 -8 0 -23 3 -33 6 -10 4 6 -15 35 -41z"
       id="path114"
       style="fill:#993399" />
    <path
       d="M4997 7510 c13 -28 35 -57 49 -66 23 -16 105 -36 112 -29 2 2 -13 13 -35 23 -21 11 -60 43 -88 71 -27 28 -52 51 -56 51 -3 0 5 -23 18 -50z"
       id="path116"
       style="fill:#cc6600" />
    <path
       d="M5260 7548 c92 -20 133 -42 192 -100 33 -33 62 -57 65 -54 10 9 -28 66 -68 99 -51 44 -116 67 -183 66 l-51 -1 45 -10z"
       id="path118"
       style="fill:#cc6600" />
    <path
       d="M4570 7536 c0 -5 22 -38 49 -75 61 -83 76 -113 149 -298 33 -81 86 -206 118 -278 54 -119 59 -127 62 -94 8 92 -23 176 -192 529 -20 43 -57 92 -108 145 -43 44 -78 76 -78 71z"
       id="path120"
       style="fill:#993366" />
    <path
       d="M5127 7504 c-11 -14 -17 -27 -15 -28 19 -17 73 -36 88 -31 25 8 36 50 20 70 -20 24 -72 18 -93 -11z"
       id="path122"
       style="fill:#cccc33" />
    <path
       d="M5260 7499 c0 -17 -5 -40 -12 -52 -7 -13 -11 -51 -9 -91 3 -60 7 -75 34 -108 51 -64 91 -52 161 47 36 52 40 62 21 49 -32 -21 -33 -1 -1 23 l23 18 -31 38 c-35 44 -92 80 -148 95 -38 10 -38 10 -38 -19z m160 -139 c-37 -28 -140 -43 -140 -20 0 6 19 10 43 10 23 0 58 8 77 18 43 22 54 17 20 -8z"
       id="path124"
       style="fill:#ffcc00" />
    <path
       d="M2740 7495 c-13 -35 3 -58 34 -49 37 12 49 47 19 58 -10 3 -24 9 -30 12 -8 3 -17 -5 -23 -21z"
       id="path126"
       style="fill:#339900" />
    <path
       d="M4569 7485 c57 -75 163 -305 232 -504 22 -62 55 -144 75 -182 37 -75 103 -149 132 -149 12 1 10 5 -9 15 -51 27 -125 176 -255 509 -68 174 -103 240 -160 302 -38 41 -40 42 -15 9z"
       id="path128"
       style="fill:#993366" />
    <path
       d="M4826 7485 c-16 -12 -18 -19 -8 -40 19 -42 42 -25 42 31 0 27 -7 29 -34 9z"
       id="path130"
       style="fill:#cc66ff" />
    <path
       d="M4776 7379 c114 -163 206 -415 222 -613 l7 -81 39 -1 c22 0 41 -5 43 -11 5 -13 -44 -53 -63 -53 -11 0 -13 -9 -7 -42 5 -24 8 -128 8 -233 -1 -150 -5 -204 -19 -255 -31 -112 -126 -308 -247 -507 -111 -183 -162 -292 -180 -387 -10 -55 4 -203 21 -220 5 -5 10 -33 10 -60 l1 -51 60 65 61 65 -38 -55 c-21 -30 -51 -71 -66 -92 -39 -50 -108 -170 -108 -186 0 -8 21 14 46 48 55 75 70 74 20 -2 -19 -29 -45 -87 -58 -128 -33 -107 -33 -340 0 -482 12 -54 22 -129 22 -168 0 -87 15 -92 55 -18 l28 51 -9 151 c-19 321 -5 438 70 602 35 75 194 344 203 344 10 0 -8 -34 -91 -174 -137 -231 -159 -300 -160 -521 0 -95 4 -141 15 -170 l16 -39 6 99 c4 55 18 150 32 210 27 119 74 269 82 262 2 -3 -7 -40 -20 -84 -38 -120 -69 -278 -74 -383 -5 -81 -2 -109 21 -194 34 -128 73 -216 96 -216 15 0 14 6 -7 51 -14 29 -38 104 -55 168 -27 105 -29 126 -24 227 3 61 12 144 21 185 22 99 56 211 62 205 3 -3 -2 -26 -11 -53 -30 -94 -49 -228 -50 -353 0 -107 4 -140 27 -224 15 -54 40 -122 55 -150 22 -42 33 -52 62 -57 42 -9 48 -5 28 18 -9 10 -26 38 -38 63 -66 130 -91 290 -72 458 21 193 57 306 229 742 69 173 141 358 160 410 29 81 53 130 53 108 0 -18 -103 -300 -193 -528 -58 -146 -119 -305 -136 -354 -121 -343 -125 -615 -14 -828 41 -79 74 -102 158 -113 l59 -7 -31 36 c-38 43 -92 154 -136 279 -31 91 -32 95 -32 277 0 160 3 198 23 280 28 112 87 289 101 303 6 6 -9 -48 -33 -119 -72 -211 -94 -445 -60 -625 30 -159 125 -365 193 -416 29 -22 157 -60 167 -50 2 2 -19 20 -46 41 -141 107 -280 398 -280 584 0 72 9 62 21 -24 16 -117 37 -185 93 -300 97 -198 218 -300 431 -365 56 -17 89 -33 112 -56 40 -40 65 -42 249 -13 203 31 300 68 434 165 56 41 61 43 35 15 -53 -58 -171 -128 -270 -160 -104 -33 -280 -64 -367 -64 l-58 0 0 -43 c0 -23 4 -45 10 -48 17 -10 272 24 369 50 113 31 186 59 272 107 201 113 348 316 395 547 38 189 -33 379 -176 472 -63 41 -57 50 9 14 165 -90 238 -317 176 -550 -28 -108 -108 -254 -185 -339 -38 -42 -79 -94 -90 -116 l-21 -41 28 15 c134 69 286 246 356 412 53 126 69 201 74 354 5 154 -3 213 -46 318 -26 64 -10 60 23 -6 33 -66 50 -168 50 -307 0 -102 -4 -135 -28 -219 -65 -232 -221 -452 -395 -559 -49 -31 -120 -88 -175 -142 -103 -102 -154 -133 -281 -170 -74 -22 -112 -27 -215 -28 -69 -1 -141 2 -161 6 -32 8 -36 6 -47 -18 -18 -39 -16 -43 26 -54 88 -23 229 -32 318 -21 380 48 647 209 841 507 91 139 124 233 159 461 18 114 37 155 28 60 -25 -257 -85 -422 -219 -605 -181 -245 -399 -375 -734 -437 -131 -25 -344 -17 -421 15 -19 8 -27 7 -37 -7 -7 -10 -13 -21 -13 -25 0 -4 30 -18 68 -31 94 -32 322 -32 457 1 225 54 323 101 500 237 137 105 240 224 302 349 53 105 127 354 152 505 13 79 13 13 1 -87 -14 -108 -71 -296 -125 -408 -76 -159 -221 -317 -406 -440 -206 -139 -423 -205 -670 -205 -112 0 -143 4 -215 26 l-83 25 -55 -55 -55 -55 32 -10 c114 -36 367 -39 522 -6 190 39 511 171 643 263 245 171 406 462 443 803 32 294 -30 530 -191 716 -103 120 -215 194 -345 228 -90 23 -186 15 -213 -18 -8 -9 4 -11 56 -9 36 2 82 -1 102 -7 59 -18 139 -106 222 -245 51 -85 54 -92 93 -259 28 -121 30 -182 10 -242 l-14 -40 5 65 c16 196 -67 367 -228 474 -70 47 -153 57 -243 31 -50 -15 -70 -28 -121 -80 -70 -71 -94 -127 -94 -215 0 -71 32 -137 79 -164 89 -51 238 13 206 90 -6 17 -8 16 -17 -8 -12 -34 -65 -68 -108 -68 -64 0 -121 65 -119 137 l0 38 15 -46 c20 -66 75 -113 121 -106 36 6 63 23 63 38 0 5 -18 6 -39 3 -37 -6 -40 -4 -67 36 -55 82 -33 172 52 215 47 24 142 25 195 3 85 -37 159 -139 159 -220 0 -52 -13 -48 -38 11 -56 136 -211 214 -277 141 -25 -28 -15 -33 28 -15 20 8 55 15 78 15 37 0 48 -6 84 -43 114 -120 138 -311 58 -474 -38 -77 -58 -87 -24 -11 84 185 53 401 -71 490 l-29 20 -97 -31 c-129 -42 -128 -41 -107 -80 20 -39 40 -48 63 -28 9 9 38 21 65 27 57 15 94 3 132 -42 97 -115 29 -402 -123 -513 -114 -84 -232 -131 -416 -166 -147 -28 -245 -23 -386 21 -184 57 -270 112 -383 245 -183 214 -219 468 -126 880 25 115 27 121 39 109 6 -6 6 -22 0 -44 -54 -185 -72 -538 -36 -675 68 -257 283 -452 561 -510 103 -21 278 -19 390 4 101 21 237 71 275 101 21 17 17 17 -32 -5 -316 -137 -654 -122 -897 39 -145 97 -253 259 -287 436 -27 139 -13 373 37 593 12 53 36 67 25 15 -30 -150 -41 -258 -40 -428 0 -174 1 -190 27 -265 35 -105 90 -187 185 -276 126 -119 272 -175 477 -185 295 -15 596 109 684 281 43 86 60 190 42 269 -17 73 -30 62 -24 -20 11 -158 -56 -294 -182 -372 -135 -83 -305 -118 -535 -110 -118 4 -147 9 -230 37 -305 103 -433 296 -432 651 0 201 16 290 166 947 81 356 118 631 120 907 1 122 -2 160 -12 164 -55 18 -139 155 -149 243 -5 39 -14 60 -36 83 -21 23 -27 26 -22 11 48 -147 92 -390 101 -558 13 -250 -54 -532 -183 -765 -76 -139 -279 -439 -290 -429 -5 5 84 151 186 307 203 308 291 627 262 948 -21 227 -83 488 -146 617 -19 40 -60 98 -94 135 -33 36 -63 77 -66 92 -4 16 -13 31 -20 36 -8 4 -32 31 -54 60 -21 29 -42 49 -45 44 -3 -5 14 -36 38 -68 173 -238 250 -530 250 -939 -1 -322 -45 -573 -138 -791 -52 -120 -348 -662 -353 -647 -6 17 40 113 112 234 100 167 218 413 258 538 71 216 101 456 94 734 -7 279 -39 449 -122 645 -73 173 -202 352 -254 352 -19 0 -16 -8 35 -81z m193 -1556 c-31 -127 -89 -271 -183 -456 -46 -89 -100 -206 -121 -260 l-39 -97 -15 27 c-20 37 -18 133 4 208 24 80 69 174 175 365 49 87 103 187 121 221 17 35 41 76 53 92 19 27 21 27 24 8 2 -11 -6 -60 -19 -108z m172 -389 c-31 -80 -113 -267 -200 -457 -44 -98 -84 -189 -87 -203 -3 -13 -11 -27 -17 -31 -7 -4 -8 0 -3 13 4 10 23 57 41 104 29 75 213 493 261 592 25 53 29 40 5 -18z"
       id="path132"
       style="fill:#cc6699" />
    <path
       d="M4888 5739 c-36 -66 -38 -78 -11 -61 12 7 57 122 51 128 -2 1 -20 -29 -40 -67z"
       id="path134"
       style="fill:#996699" />
    <path
       d="M4782 5553 c-68 -121 -114 -214 -109 -219 14 -14 121 168 153 260 24 66 9 52 -44 -41z"
       id="path136"
       style="fill:#996699" />
    <path
       d="M4830 5542 c-25 -48 -74 -130 -109 -182 -81 -120 -101 -164 -100 -220 0 -25 3 -38 6 -30 24 65 76 171 134 274 85 147 122 222 117 235 -1 6 -23 -29 -48 -77z"
       id="path138"
       style="fill:#996699" />
    <path
       d="M1031 7397 c-14 -36 -14 -63 0 -89 11 -20 12 -20 25 12 18 41 18 61 0 86 -14 18 -15 18 -25 -9z"
       id="path140"
       style="fill:#ccccff" />
    <path
       d="M5635 7410 c-3 -5 -19 -10 -35 -10 -16 0 -35 -6 -42 -13 -7 -8 -23 -19 -34 -25 -25 -13 -125 -148 -117 -156 16 -16 48 -2 84 38 26 29 52 46 73 50 39 7 68 37 90 89 12 31 13 37 1 37 -8 0 -17 -4 -20 -10z"
       id="path142"
       style="fill:#0099ff" />
    <path
       d="M3603 7345 c-31 -60 -53 -143 -52 -194 1 -27 4 -35 6 -21 8 44 45 164 60 193 8 16 13 36 11 45 -3 12 -10 5 -25 -23z"
       id="path144"
       style="fill:#993399" />
    <path
       d="M2893 7316 c-40 -20 -42 -24 -43 -64 0 -24 4 -41 9 -38 4 3 25 33 44 66 20 33 35 59 34 59 -1 -1 -21 -11 -44 -23z"
       id="path146"
       style="fill:#339900" />
    <path
       d="M5631 7306 c-12 -12 -40 -29 -63 -36 l-42 -12 31 -13 c53 -22 63 -64 25 -107 -13 -15 -12 -19 2 -33 9 -9 16 -20 16 -25 0 -12 89 -32 105 -23 8 5 32 33 55 62 61 83 54 158 -20 196 -42 22 -83 19 -109 -9z"
       id="path148"
       style="fill:#6699ff" />
    <path
       d="M1000 7274 c0 -23 33 -75 45 -71 29 10 13 57 -27 78 -14 8 -18 6 -18 -7z"
       id="path150"
       style="fill:#ccccff" />
    <path
       d="M5194 7210 c-18 -27 -29 -51 -26 -54 3 -4 26 -6 51 -6 69 -1 123 -16 141 -41 13 -16 18 -18 22 -8 13 35 -11 59 -85 83 -9 3 -27 21 -38 41 -12 19 -24 35 -27 34 -4 0 -21 -22 -38 -49z m66 -29 c-1 -13 -3 -13 -15 3 -19 26 -19 42 0 26 8 -7 15 -20 15 -29z"
       id="path152"
       style="fill:#0099ff" />
    <path
       d="M4510 7238 c0 -4 5 -19 11 -35 6 -15 33 -109 60 -208 50 -180 88 -275 134 -330 24 -29 24 -29 -4 35 -16 36 -63 166 -106 290 -69 204 -94 268 -95 248z"
       id="path154"
       style="fill:#996699" />
    <path
       d="M3757 7208 c-14 -60 -18 -160 -8 -230 12 -87 41 -180 58 -185 20 -7 19 31 -3 107 -30 102 -48 230 -40 285 7 47 2 62 -7 23z"
       id="path156"
       style="fill:#993399" />
    <path
       d="M5490 7200 c-14 -11 -32 -20 -40 -20 -30 0 17 -31 56 -37 31 -4 43 -1 57 15 44 48 -20 84 -73 42z"
       id="path158"
       style="fill:#cc9900" />
    <path
       d="M1065 7167 c-8 -42 17 -150 41 -178 8 -8 19 -29 25 -46 6 -19 21 -36 40 -43 29 -13 60 -50 40 -50 -5 0 -13 5 -16 10 -3 6 -12 10 -20 10 -22 0 83 -100 150 -144 33 -21 83 -59 110 -85 28 -26 73 -59 100 -74 28 -15 58 -41 67 -58 10 -16 31 -34 47 -40 15 -6 43 -28 60 -49 20 -25 37 -37 46 -34 9 4 18 -3 24 -19 6 -14 27 -38 47 -54 21 -15 58 -47 84 -70 26 -24 56 -43 66 -43 22 0 71 -32 164 -105 68 -55 109 -80 116 -72 3 3 -8 14 -23 27 -71 55 -211 159 -264 195 -32 22 -66 50 -74 62 -8 12 -45 42 -81 68 -63 44 -118 89 -241 198 -29 26 -58 47 -64 47 -21 0 -144 98 -198 157 -29 32 -73 79 -98 105 -74 78 -112 151 -127 242 -12 77 -13 79 -21 43z"
       id="path160"
       style="fill:#336600" />
    <path
       d="M5393 7160 c22 -31 22 -58 0 -82 -16 -18 -17 -18 -45 9 -23 22 -40 28 -105 33 -43 4 -85 10 -94 14 -10 4 -20 3 -24 -3 -9 -15 70 -146 120 -201 36 -38 43 -53 48 -100 6 -54 34 -140 46 -140 4 0 6 39 6 88 0 81 3 93 37 162 21 41 49 95 62 120 30 51 25 66 -34 103 l-35 22 18 -25z m-34 -195 c0 -5 -9 1 -19 14 -11 13 -20 35 -19 50 0 24 2 22 19 -14 10 -22 19 -44 19 -50z"
       id="path162"
       style="fill:#6699ff" />
    <path
       d="M960 7154 c0 -37 61 -124 87 -124 16 0 16 12 1 61 -10 37 -31 57 -70 72 -12 4 -18 1 -18 -9z"
       id="path164"
       style="fill:#66ff00" />
    <path
       d="M3027 7030 c-67 -80 -186 -252 -187 -273 0 -1 63 59 140 133 l141 135 -3 55 -3 55 -88 -105z"
       id="path166"
       style="fill:#993366" />
    <path
       d="M5481 7078 c-11 -30 4 -48 38 -48 31 0 51 16 51 41 0 35 -76 41 -89 7z"
       id="path168"
       style="fill:#cc9900" />
    <path
       d="M1150 7040 c0 -33 27 -96 37 -86 8 7 6 72 -2 97 -10 31 -35 23 -35 -11z"
       id="path170"
       style="fill:#66ff00" />
    <path
       d="M1515 6945 c-8 -108 -2 -245 11 -278 9 -25 22 -18 57 31 46 63 47 124 7 229 -17 46 -40 93 -50 105 -17 22 -18 20 -25 -87z"
       id="path172"
       style="fill:#ff3300" />
    <path
       d="M1457 6973 c-40 -87 -43 -180 -8 -260 20 -46 46 -72 58 -59 3 2 -1 31 -7 63 -9 39 -10 100 -6 191 4 72 4 132 1 132 -3 0 -20 -30 -38 -67z"
       id="path174"
       style="fill:#ff3300" />
    <path
       d="M3128 7000 c-18 -22 -71 -72 -116 -111 -211 -181 -293 -347 -293 -594 -1 -94 20 -214 41 -240 4 -5 11 -37 14 -70 16 -143 103 -245 216 -253 52 -4 58 -2 118 42 85 63 112 118 112 231 0 89 -14 133 -17 51 -4 -147 -111 -216 -220 -144 -84 56 -139 234 -117 382 6 37 6 75 1 88 -8 23 -9 23 -20 3 -8 -13 -12 -68 -12 -150 0 -125 1 -132 31 -195 31 -65 77 -121 123 -153 14 -9 22 -20 18 -23 -10 -10 -82 41 -111 79 -14 18 -38 60 -53 92 -26 56 -28 68 -28 195 0 99 4 142 14 160 10 18 15 59 15 140 1 104 3 119 26 160 25 44 33 50 138 99 47 22 157 117 193 165 l29 40 -27 23 c-16 12 -31 22 -35 23 -4 0 -22 -18 -40 -40z m-20 -1136 c-8 -9 -24 -14 -34 -11 -17 3 -16 5 6 15 36 16 47 14 28 -4z"
       id="path176"
       style="fill:#993399" />
    <path
       d="M5575 7018 c-15 -22 -14 -24 6 -40 26 -22 39 -22 64 -4 18 13 18 15 2 40 -21 32 -51 33 -72 4z"
       id="path178"
       style="fill:#cc9900" />
    <path
       d="M5698 7033 c-18 -3 -25 -9 -21 -19 18 -47 -40 -94 -92 -74 -17 7 -25 5 -29 -6 -3 -8 -17 -19 -32 -24 -24 -10 -25 -12 -11 -28 9 -9 24 -39 34 -67 14 -37 24 -51 41 -53 27 -4 28 2 1 40 -28 39 -18 47 13 9 24 -28 28 -29 79 -23 46 6 56 12 76 41 30 44 30 110 2 168 -11 24 -24 42 -27 42 -4 -1 -19 -4 -34 -6z"
       id="path180"
       style="fill:#6699ff" />
    <path
       d="M5440 7001 c-15 -29 2 -58 41 -66 22 -5 36 -3 46 8 20 20 9 53 -20 60 -12 2 -30 8 -39 11 -11 5 -20 1 -28 -13z"
       id="path182"
       style="fill:#cc9900" />
    <path
       d="M890 7004 c-8 -3 -22 -8 -30 -11 -29 -10 192 -103 245 -103 28 0 34 15 10 24 -8 3 -39 24 -68 46 -53 39 -119 58 -157 44z"
       id="path184"
       style="fill:#ffff66" />
    <path
       d="M3250 6968 c0 -7 -14 -42 -30 -77 l-31 -65 31 -30 31 -31 -6 27 c-4 15 -3 37 1 50 l7 23 11 -27 c12 -28 25 -26 44 7 8 14 11 16 12 5 0 -12 16 -15 76 -16 65 -1 85 -6 150 -38 51 -26 82 -48 99 -73 35 -53 21 -59 -33 -14 -26 21 -66 48 -89 60 -51 26 -123 38 -123 22 0 -6 8 -14 18 -17 149 -47 232 -145 232 -275 0 -123 -65 -184 -195 -183 -75 1 -124 17 -188 61 -20 14 -40 23 -43 20 -11 -11 -34 21 -27 38 5 14 2 16 -15 10 -24 -7 -29 4 -10 23 9 9 6 12 -15 12 -33 0 -35 17 -4 30 17 7 18 9 5 9 -21 1 -25 21 -4 21 8 0 16 17 20 47 5 39 3 48 -14 60 -25 18 -26 36 -1 28 31 -9 36 15 9 42 l-25 25 -37 -60 c-111 -182 -160 -339 -160 -512 -1 -106 1 -120 28 -178 32 -69 48 -82 99 -82 42 0 79 34 95 88 23 75 8 158 -24 131 -11 -9 -14 -8 -14 5 0 9 12 19 26 22 20 5 32 1 52 -20 26 -25 27 -31 27 -134 0 -119 -14 -159 -74 -216 -17 -17 -31 -35 -31 -42 0 -16 51 -54 174 -128 118 -72 246 -128 358 -158 l77 -20 42 36 c80 68 148 56 171 -29 11 -42 15 -45 45 -45 28 0 35 5 47 33 16 40 67 67 126 67 45 0 72 -11 107 -42 27 -25 62 -20 151 22 60 28 73 42 52 55 -19 12 -11 73 12 94 27 26 39 18 31 -19 -5 -27 -3 -30 19 -30 13 0 31 6 40 13 27 20 98 129 98 149 0 32 17 19 23 -18 7 -45 23 -64 52 -64 29 0 33 5 99 135 99 198 110 236 52 182 -49 -46 -125 -206 -86 -182 6 3 10 2 10 -4 0 -18 -18 -21 -34 -5 -21 20 -20 29 6 75 18 33 19 40 7 55 -12 14 -11 16 6 12 14 -2 28 8 48 35 15 20 43 45 62 54 26 12 38 26 45 52 5 19 8 36 6 38 -2 2 -16 -1 -32 -7 -42 -16 -112 -87 -141 -144 -18 -36 -27 -46 -36 -37 -8 8 -8 22 0 53 6 24 11 44 9 45 -1 1 -22 -5 -46 -13 -50 -18 -110 -11 -110 11 0 8 6 15 14 15 7 0 25 9 39 20 43 34 115 266 117 376 l0 31 -82 6 c-94 7 -187 33 -302 84 -69 31 -90 36 -163 37 -85 1 -98 7 -64 28 18 11 13 14 -45 29 -106 28 -190 87 -272 194 -13 17 -20 24 -17 17 13 -25 -5 -83 -27 -91 -33 -12 -94 3 -148 37 -31 19 -50 26 -53 19 -2 -7 -20 1 -44 20 -56 45 -87 55 -170 56 -40 0 -73 2 -73 3 0 2 12 9 26 17 l26 14 -62 26 c-71 31 -70 31 -70 15z m485 -270 c23 -51 30 -81 33 -155 3 -54 -1 -113 -8 -140 -13 -56 -69 -173 -81 -173 -13 0 -11 6 10 48 37 73 53 160 49 267 -4 101 -3 100 -66 228 -2 5 4 4 15 -2 11 -5 33 -38 48 -73z m610 -222 c74 -21 119 -39 128 -54 5 -7 17 -10 28 -7 14 5 19 2 19 -12 0 -11 6 -28 14 -38 14 -19 15 -19 34 -2 13 12 22 14 26 8 9 -14 -10 -51 -38 -74 l-21 -19 30 5 c17 3 39 9 50 13 19 8 19 7 4 -16 -9 -14 -27 -31 -40 -37 -22 -12 -22 -13 -4 -14 11 -1 28 -1 38 0 28 3 20 -18 -15 -39 -29 -18 -30 -20 -10 -20 13 0 22 -6 22 -15 0 -10 -10 -15 -32 -15 -27 -1 -30 -2 -15 -11 24 -14 21 -29 -7 -29 -28 0 -69 -60 -59 -86 5 -13 2 -15 -16 -9 -20 6 -22 4 -16 -16 6 -18 4 -21 -9 -16 -9 4 -16 1 -16 -5 0 -9 -3 -9 -12 0 -14 14 -32 16 -23 3 6 -10 -28 -9 -55 1 -8 4 -46 14 -84 23 -162 38 -256 120 -256 223 0 82 39 145 115 185 32 17 57 21 130 21 50 0 108 -3 130 -7 l40 -8 -30 17 c-20 12 -62 19 -125 23 -92 6 -118 18 -68 33 39 11 91 9 143 -6z m-746 -312 c-13 -26 -15 -42 -9 -54 12 -22 1 -33 -17 -19 -28 24 -3 109 31 109 11 0 9 -9 -5 -36z m41 -50 c26 -61 25 -73 -4 -45 -28 26 -42 91 -20 91 2 0 12 -21 24 -46z m270 -90 c0 -31 -21 -64 -41 -64 -14 0 -11 16 7 31 12 10 14 24 10 58 -6 43 -5 45 9 27 8 -11 15 -34 15 -52z m-84 15 c11 -19 -21 -42 -47 -33 -13 4 -30 7 -36 6 -20 -4 -15 26 5 31 33 9 71 7 78 -4z m-425 -25 c36 -39 52 -44 149 -55 106 -11 159 -29 288 -102 116 -66 146 -74 198 -52 42 17 64 14 64 -11 0 -13 -3 -14 -14 -5 -11 9 -25 2 -68 -32 -116 -95 -235 -136 -342 -116 -145 26 -230 107 -255 243 -12 68 -47 130 -67 122 -16 -6 -17 -4 -8 18 9 23 27 20 55 -10z"
       id="path186"
       style="fill:#ffcc99" />
    <path
       d="M4240 6352 c-44 -23 -85 -98 -76 -140 18 -78 87 -132 171 -132 89 0 145 51 145 131 0 40 -5 55 -31 84 -59 67 -147 91 -209 57z m159 -58 c42 -35 43 -84 2 -125 -45 -45 -118 -34 -147 22 -21 42 -17 67 15 100 39 38 87 39 130 3z"
       id="path188"
       style="fill:#660066" />
    <path
       d="M4341 6276 c-18 -21 3 -56 34 -56 29 0 39 14 31 46 -7 28 -46 33 -65 10z"
       id="path190"
       style="fill:#ffffcc" />
    <path
       d="M4277 6224 c-16 -16 -6 -35 16 -32 12 2 22 10 22 18 0 16 -26 25 -38 14z"
       id="path192"
       style="fill:#9900cc" />
    <path
       d="M4119 6333 c-45 -23 -56 -35 -68 -68 -18 -52 -8 -105 27 -146 31 -38 152 -97 215 -105 63 -9 149 18 181 57 39 46 34 71 -6 32 -85 -82 -212 -69 -290 28 -49 61 -48 153 3 207 28 31 5 28 -62 -5z"
       id="path194"
       style="fill:#ccffff" />
    <path
       d="M4496 6353 c-11 -11 -6 -23 9 -23 8 0 15 4 15 9 0 13 -16 22 -24 14z"
       id="path196"
       style="fill:#9900cc" />
    <path
       d="M3440 5954 c0 -13 418 -164 455 -164 14 0 -99 68 -170 101 -35 17 -93 33 -140 39 -44 6 -95 15 -112 20 -18 4 -33 6 -33 4z"
       id="path198"
       style="fill:#ff3300" />
    <path
       d="M3445 5900 c18 -92 28 -114 70 -155 56 -57 157 -90 246 -82 62 5 165 48 209 86 l25 21 -30 -6 c-16 -3 -52 -13 -79 -21 -33 -11 -74 -14 -130 -11 -105 5 -170 38 -229 117 -23 29 -53 61 -66 70 -23 15 -23 15 -16 -19z"
       id="path200"
       style="fill:#ff3300" />
    <path
       d="M3540 5872 c0 -15 79 -83 115 -98 43 -18 152 -27 190 -16 27 8 17 13 -115 59 -188 65 -190 66 -190 55z"
       id="path202"
       style="fill:#ff9999" />
    <path
       d="M844 6934 c16 -61 87 -124 140 -124 24 0 126 41 126 50 0 5 -15 11 -32 15 -39 8 -128 40 -166 59 -15 7 -38 17 -51 21 -22 7 -23 5 -17 -21z"
       id="path204"
       style="fill:#ffff66" />
    <path
       d="M5380 6883 c-21 -54 -21 -63 -10 -133 16 -97 42 -150 74 -150 19 0 27 8 36 35 6 19 15 35 19 35 14 0 31 50 31 91 0 22 -6 55 -14 73 -16 38 -80 106 -101 106 -7 0 -23 -25 -35 -57z m34 -5 c9 -36 7 -88 -4 -88 -5 0 -10 18 -10 39 0 22 -3 46 -6 55 -3 9 -2 16 4 16 5 0 12 -10 16 -22z m76 -86 c0 -44 -16 -33 -23 15 -3 21 -9 49 -12 63 -5 20 -2 17 14 -10 11 -19 20 -50 21 -68z"
       id="path206"
       style="fill:#6699ff" />
    <path
       d="M3155 6874 c-27 -24 -69 -59 -93 -76 l-42 -31 30 -15 c30 -15 32 -14 65 18 26 25 104 152 92 150 -1 -1 -24 -21 -52 -46z"
       id="path208"
       style="fill:#993366" />
    <path
       d="M3164 6778 c-4 -15 -1 -25 12 -35 34 -25 61 -10 29 17 -8 7 -15 19 -15 26 0 22 -18 16 -26 -8z"
       id="path210"
       style="fill:#330033" />
    <path
       d="M3345 6790 c-3 -5 1 -10 9 -10 9 0 16 5 16 10 0 6 -4 10 -9 10 -6 0 -13 -4 -16 -10z"
       id="path212"
       style="fill:#9900cc" />
    <path
       d="M8123 6730 c-158 -40 -356 -109 -540 -187 -290 -123 -829 -400 -1297 -667 -168 -96 -332 -175 -398 -191 -32 -8 -33 -13 -12 -63 36 -87 28 -215 -21 -328 l-23 -52 177 118 c407 271 586 357 1230 591 431 157 646 253 818 365 l82 53 25 83 c38 125 82 309 74 308 -2 -1 -53 -14 -115 -30z"
       id="path214"
       style="fill:#ccccff" />
    <path
       d="M2960 6743 c-29 -11 -70 -57 -82 -92 -20 -57 -14 -187 12 -253 11 -32 25 -60 30 -63 5 -3 16 21 24 52 9 32 29 88 45 125 27 62 28 70 16 105 -7 21 -22 42 -34 48 -26 12 -27 25 -3 25 21 0 47 -25 59 -57 8 -21 9 -20 31 17 l22 39 -23 25 c-22 26 -69 40 -97 29z m20 -110 c0 -5 -9 -19 -19 -32 -22 -29 -36 -13 -15 17 15 21 34 30 34 15z m20 -40 c0 -5 -4 -15 -10 -23 -11 -18 -25 -7 -17 15 6 15 27 21 27 8z"
       id="path216"
       style="fill:#ffcc99" />
    <path
       d="M5550 6713 c-7 -21 -17 -43 -21 -49 -6 -7 -4 -16 5 -23 11 -9 17 -4 30 29 18 46 20 66 7 75 -5 3 -15 -12 -21 -32z"
       id="path218"
       style="fill:#0099ff" />
    <path
       d="M4180 6690 c12 -16 26 -30 32 -30 5 0 8 -7 4 -15 -4 -12 0 -14 22 -9 29 7 38 12 31 17 -2 1 -28 17 -57 35 l-53 32 21 -30z"
       id="path220"
       style="fill:#993399" />
    <path
       d="M3300 6698 c-65 -18 -100 -68 -100 -143 0 -118 115 -215 254 -215 60 0 128 31 144 64 l11 25 -42 -20 c-83 -37 -179 -14 -233 56 -22 30 -29 50 -32 99 -3 53 0 66 22 99 36 53 37 52 -24 35z"
       id="path222"
       style="fill:#ccffff" />
    <path
       d="M3385 6690 c-156 -104 0 -335 171 -254 34 16 64 58 64 89 0 15 -37 95 -44 95 -2 0 -1 -11 2 -25 16 -85 -86 -143 -152 -86 -83 73 21 209 112 145 12 -8 22 -13 22 -10 0 13 -77 55 -110 61 -26 4 -43 0 -65 -15z"
       id="path224"
       style="fill:#660066" />
    <path
       d="M1114 6666 c-17 -8 -41 -24 -52 -36 -21 -23 -76 -169 -67 -179 3 -2 18 7 33 20 34 31 92 69 161 104 39 19 75 28 130 33 l76 5 -70 34 c-77 37 -154 44 -211 19z"
       id="path226"
       style="fill:#339900" />
    <path
       d="M3505 6626 c-20 -15 -17 -45 7 -60 24 -15 53 13 44 42 -9 26 -30 34 -51 18z"
       id="path228"
       style="fill:#ffffcc" />
    <path
       d="M7495 6595 c-547 -117 -962 -223 -1225 -314 -195 -67 -231 -91 -391 -258 -122 -128 -352 -397 -341 -401 13 -4 328 86 400 114 97 39 212 97 332 170 310 186 1022 555 1280 663 161 67 167 70 155 69 -5 0 -100 -20 -210 -43z"
       id="path230"
       style="fill:#cc99ff" />
    <path
       d="M1225 6566 c-43 -13 -194 -106 -216 -132 -19 -24 2 -36 73 -41 77 -6 91 0 203 89 45 34 92 71 105 80 25 17 24 17 -50 17 -41 0 -93 -6 -115 -13z"
       id="path232"
       style="fill:#339900" />
    <path
       d="M3425 6560 c-8 -14 3 -30 21 -30 8 0 14 9 14 20 0 21 -24 28 -35 10z"
       id="path234"
       style="fill:#9900cc" />
    <path
       d="M4921 6467 c36 -58 59 -154 60 -246 0 -57 3 -79 9 -66 12 28 12 233 0 277 -11 37 -32 56 -70 63 -18 4 -18 3 1 -28z"
       id="path236"
       style="fill:#996699" />
    <path
       d="M4840 6471 c-23 -6 -25 -12 -32 -92 -7 -94 -62 -279 -99 -330 -17 -25 -18 -29 -4 -29 49 0 146 94 167 161 6 22 15 39 20 39 18 0 6 -39 -28 -96 -69 -114 -72 -124 -18 -69 27 28 64 62 82 77 28 23 32 32 32 75 0 71 -18 158 -45 219 -24 54 -30 58 -75 45z"
       id="path238"
       style="fill:#993399" />
    <path
       d="M2893 6208 c4 -99 21 -197 32 -186 2 2 -1 24 -7 48 -6 26 -7 86 -4 141 6 84 5 97 -10 103 -15 6 -16 -5 -11 -106z"
       id="path240"
       style="fill:#9933cc" />
    <path
       d="M8030 6263 c-170 -111 -344 -187 -775 -340 -491 -174 -722 -275 -995 -438 -180 -107 -478 -305 -484 -322 -8 -19 24 -3 74 38 103 85 265 175 440 244 52 20 288 86 525 147 648 164 897 239 1037 309 125 63 137 77 208 255 34 85 60 157 58 159 -2 2 -42 -21 -88 -52z"
       id="path242"
       style="fill:#cc99ff" />
    <path
       d="M1954 6166 c-12 -31 6 -63 66 -120 41 -39 61 -66 59 -80 -4 -50 3 -68 46 -116 25 -28 45 -53 45 -55 0 -13 -19 -2 -52 28 l-36 33 1 -96 c0 -104 8 -125 61 -172 21 -18 26 -28 16 -28 -9 0 -21 5 -28 12 -9 9 -12 8 -12 -4 0 -26 48 -76 114 -118 l61 -39 3 24 c7 55 19 16 46 -152 52 -329 133 -515 286 -656 178 -165 436 -209 820 -141 152 27 413 118 463 162 9 8 20 12 23 9 13 -12 -6 -38 -41 -54 -30 -14 -33 -18 -18 -24 10 -4 32 -4 48 -1 28 5 29 4 15 -13 -12 -14 -25 -17 -78 -12 -64 5 -122 -8 -122 -28 1 -20 37 -91 64 -122 32 -38 104 -63 182 -63 47 0 55 3 83 35 36 41 61 88 87 165 15 44 19 85 19 205 0 205 -22 270 -133 387 -65 68 -124 93 -222 92 -72 -1 -128 -22 -242 -92 -194 -119 -347 -172 -493 -172 -136 1 -253 35 -172 50 l28 5 -26 50 c-34 68 -113 171 -211 277 -99 105 -125 138 -164 209 -22 39 -30 48 -30 32 0 -13 -5 -23 -11 -23 -8 0 -9 38 -4 128 8 148 -3 195 -65 278 -21 28 -45 68 -54 88 -18 44 -57 66 -82 45 -22 -18 -13 -83 16 -114 12 -13 21 -28 19 -33 -6 -16 -149 71 -214 130 -93 85 -149 114 -161 84z m283 -452 c-10 -10 -37 16 -37 34 0 13 4 12 22 -5 12 -13 19 -25 15 -29z m-106 -3 c13 -11 21 -22 17 -26 -7 -7 -57 25 -58 38 0 13 17 8 41 -12z m654 -961 c-3 -5 -13 -10 -21 -10 -8 0 -14 5 -14 10 0 6 9 10 21 10 11 0 17 -4 14 -10z m-93 -32 c-17 -17 -15 -83 3 -98 19 -16 19 -30 1 -30 -24 0 -39 29 -39 74 0 49 8 66 31 66 12 0 13 -3 4 -12z"
       id="path244"
       style="fill:#ffcc99" />
    <path
       d="M5830 6097 c-170 -85 -296 -160 -386 -227 -46 -35 -52 -44 -59 -87 -6 -44 -39 -193 -51 -235 -4 -15 7 -12 66 15 66 29 79 41 173 152 147 173 270 309 355 393 41 39 73 72 71 72 -3 0 -79 -37 -169 -83z"
       id="path246"
       style="fill:#cc99ff" />
    <path
       d="M7920 5909 c-133 -81 -484 -190 -1177 -363 -306 -77 -446 -120 -574 -179 -82 -37 -212 -114 -275 -161 l-41 -31 166 -1 c117 -1 250 -11 451 -34 439 -50 617 -38 865 59 165 64 206 98 355 291 79 103 157 226 220 343 28 53 50 97 48 97 -1 0 -19 -10 -38 -21z"
       id="path248"
       style="fill:#ccccff" />
    <path
       d="M3070 5713 c-21 -9 -52 -13 -78 -10 l-44 5 7 -46 c11 -73 21 -92 50 -92 63 0 88 -46 100 -177 8 -91 16 -99 62 -63 16 12 34 18 45 15 24 -8 23 -4 -12 101 -17 49 -37 124 -44 168 -9 49 -21 85 -33 96 -16 16 -21 16 -53 3z"
       id="path250"
       style="fill:#996699" />
    <path
       d="M3174 5626 c14 -91 107 -338 137 -363 15 -12 63 -7 56 6 -41 76 -72 179 -83 273 -6 55 -8 58 -62 93 l-55 37 7 -46z"
       id="path252"
       style="fill:#996699" />
    <path
       d="M5680 5626 c-225 -58 -344 -109 -360 -151 -27 -70 -150 -663 -150 -722 l0 -22 38 21 c100 57 297 194 383 267 198 165 280 305 278 475 0 78 -25 160 -49 163 -8 1 -71 -13 -140 -31z"
       id="path254"
       style="fill:#cc66ff" />
    <path
       d="M4710 5640 c0 -16 -74 -60 -126 -76 -42 -12 -50 -12 -71 1 -29 19 -30 2 -2 -26 17 -17 28 -19 62 -14 57 10 116 33 155 62 39 29 40 36 7 51 -15 7 -25 8 -25 2z"
       id="path256"
       style="fill:#996699" />
    <path
       d="M3306 5543 c23 -136 75 -273 104 -273 28 0 28 8 4 75 -13 35 -28 93 -35 129 -9 54 -16 70 -39 86 -38 27 -42 26 -34 -17z"
       id="path258"
       style="fill:#996699" />
    <path
       d="M2800 5540 c-11 -11 -23 -32 -26 -47 -6 -22 -2 -30 17 -42 46 -30 96 -81 124 -125 22 -36 32 -43 42 -34 11 9 8 21 -17 65 -17 30 -30 59 -28 65 5 13 68 -80 68 -99 0 -7 5 -13 10 -13 15 0 12 19 -16 97 -47 130 -121 186 -174 133z"
       id="path260"
       style="fill:#3399ff" />
    <path
       d="M2961 5531 c-18 -12 -5 -32 17 -25 12 4 13 3 5 -3 -10 -7 -7 -26 12 -82 26 -76 43 -101 69 -101 32 0 15 169 -20 205 -17 16 -61 20 -83 6z"
       id="path262"
       style="fill:#993366" />
    <path
       d="M4677 5516 c-30 -32 -147 -245 -147 -267 0 -44 20 -23 50 52 18 44 54 116 81 160 49 82 53 95 16 55z"
       id="path264"
       style="fill:#996699" />
    <path
       d="M3395 5498 c12 -56 56 -188 62 -188 3 0 3 42 0 93 -5 78 -9 95 -28 110 -32 26 -42 21 -34 -15z"
       id="path266"
       style="fill:#996699" />
    <path
       d="M4589 5452 c-39 -62 -62 -112 -56 -119 3 -2 27 33 53 79 58 99 58 98 47 98 -4 0 -24 -26 -44 -58z"
       id="path268"
       style="fill:#996699" />
    <path
       d="M4520 5438 c-32 -71 -46 -128 -32 -128 5 0 17 21 27 48 17 45 25 61 61 117 16 24 15 25 -5 25 -17 0 -28 -14 -51 -62z"
       id="path270"
       style="fill:#996699" />
    <path
       d="M3485 5404 c12 -142 -6 -160 -170 -175 -126 -11 -141 -15 -149 -36 -4 -9 -10 -59 -13 -111 l-6 -95 39 7 c75 14 204 64 288 112 80 46 85 51 92 89 13 81 41 108 142 134 41 12 52 24 31 36 -5 4 -14 18 -19 31 -5 13 -17 24 -27 24 -10 1 -62 16 -116 34 l-99 34 7 -84z"
       id="path272"
       style="fill:#0033ff" />
    <path
       d="M3815 5471 c-16 -10 -41 -30 -54 -45 -23 -24 -23 -27 -8 -44 10 -10 17 -27 17 -37 0 -10 5 -34 11 -54 11 -36 12 -37 62 -36 51 0 51 0 63 40 9 31 13 36 19 22 4 -10 5 -31 2 -46 -6 -29 15 -52 28 -31 9 15 25 12 19 -3 -3 -8 6 -18 20 -25 23 -10 28 -8 56 26 l30 37 -37 6 c-51 9 -88 53 -97 115 -3 28 -13 60 -22 72 -19 28 -67 29 -109 3z"
       id="path274"
       style="fill:#99ccff" />
    <path
       d="M4123 5469 c-18 -5 -40 -20 -48 -33 -14 -22 -14 -28 5 -75 26 -68 26 -80 -10 -129 -35 -49 -36 -53 -10 -77 23 -21 13 -26 137 80 89 75 104 105 87 167 -17 58 -91 89 -161 67z"
       id="path276"
       style="fill:#3399ff" />
    <path
       d="M4471 5467 c-14 -17 -41 -95 -41 -116 1 -9 9 4 19 29 10 25 23 57 29 73 13 30 10 34 -7 14z"
       id="path278"
       style="fill:#996699" />
    <path
       d="M2660 5439 c0 -8 24 -37 54 -65 29 -28 61 -64 71 -80 23 -36 86 -104 97 -104 4 0 8 9 8 19 0 10 7 21 15 25 8 3 15 13 15 23 -1 32 -75 127 -123 157 -53 32 -137 48 -137 25z m162 -67 c6 -7 9 -15 6 -17 -6 -6 -77 47 -78 58 0 10 57 -23 72 -41z m76 -82 c7 -11 9 -20 5 -20 -10 0 -43 32 -43 41 0 14 25 0 38 -21z"
       id="path280"
       style="fill:#3399ff" />
    <path
       d="M4412 5433 c-15 -28 -25 -83 -15 -83 8 0 34 92 28 98 -2 2 -8 -5 -13 -15z"
       id="path282"
       style="fill:#993366" />
    <path
       d="M4338 5419 c-23 -9 -27 -17 -30 -62 -6 -70 1 -80 33 -54 20 17 29 35 34 75 7 55 6 56 -37 41z"
       id="path284"
       style="fill:#993366" />
    <path
       d="M4393 5318 c-6 -7 -13 -30 -17 -51 -8 -43 -49 -78 -150 -126 -94 -45 -103 -54 -87 -84 12 -23 15 -24 45 -12 17 7 76 20 131 29 172 29 169 28 182 66 26 75 4 143 -56 175 -36 18 -36 18 -48 3z"
       id="path286"
       style="fill:#3399ff" />
    <path
       d="M3188 5309 c-10 -6 -23 -20 -29 -32 -11 -21 -10 -21 17 3 16 14 31 26 33 28 14 8 -7 9 -21 1z"
       id="path288"
       style="fill:#3333ff" />
    <path
       d="M3684 5299 c-49 -11 -81 -43 -90 -87 -7 -36 3 -41 34 -14 16 14 18 22 10 30 -9 9 -8 12 3 12 8 0 20 -5 25 -10 15 -15 74 8 75 28 0 11 2 12 6 5 9 -25 21 -13 14 15 -8 31 -19 34 -77 21z"
       id="path290"
       style="fill:#99ccff" />
    <path
       d="M2958 5252 c-18 -20 -39 -51 -46 -68 -12 -29 -11 -35 22 -90 20 -32 36 -67 36 -77 0 -20 8 -23 67 -30 l41 -5 6 97 c5 85 16 135 41 194 6 15 0 17 -63 17 -68 0 -71 -1 -104 -38z"
       id="path292"
       style="fill:#0033ff" />
    <path
       d="M3189 5259 c-10 -20 -9 -21 23 -14 39 9 42 11 33 24 -11 18 -44 12 -56 -10z"
       id="path294"
       style="fill:#3333ff" />
    <path
       d="M4194 5208 c-76 -62 -103 -92 -93 -102 6 -6 185 86 202 103 6 6 2 20 -11 36 l-20 26 -78 -63z"
       id="path296"
       style="fill:#99ccff" />
    <path
       d="M3130 5218 c-6 -18 -13 -78 -15 -133 l-4 -100 13 111 c8 62 17 121 21 133 10 34 -2 24 -15 -11z"
       id="path298"
       style="fill:#3333ff" />
    <path
       d="M7430 5215 c-48 -28 -206 -85 -295 -107 -127 -31 -401 -31 -635 0 -336 44 -544 53 -670 28 -82 -16 -103 -27 -182 -102 l-65 -60 64 -12 c35 -7 109 -30 166 -51 147 -56 205 -65 360 -57 73 3 146 9 162 12 24 4 27 3 13 -5 -9 -6 -51 -16 -94 -23 -72 -11 -75 -13 -44 -21 24 -6 54 -3 114 13 88 24 157 22 223 -5 41 -17 124 -83 170 -134 l32 -36 -18 49 c-23 63 -132 216 -188 266 -40 35 -51 39 -116 45 -45 4 -83 2 -101 -4 -37 -15 -44 -7 -26 27 27 48 74 64 170 59 140 -8 245 -62 386 -199 l82 -79 69 34 c38 19 106 63 152 97 96 71 276 232 291 261 13 22 12 22 -20 4z"
       id="path300"
       style="fill:#cc99ff" />
    <path
       d="M4525 5135 c-19 -63 -17 -109 5 -113 12 -2 15 12 15 83 0 47 -1 85 -2 85 -1 0 -10 -25 -18 -55z"
       id="path302"
       style="fill:#0033ff" />
    <path
       d="M910 5041 c-26 -25 -40 -46 -38 -58 6 -28 56 -19 93 17 34 33 48 38 39 15 -5 -11 1 -15 23 -15 21 0 49 -16 93 -50 34 -28 86 -63 114 -77 28 -14 45 -28 38 -30 -16 -6 -110 47 -175 98 -27 22 -55 38 -61 36 -26 -9 -14 -46 37 -114 33 -43 59 -89 66 -118 18 -70 46 -119 88 -154 25 -20 32 -31 21 -31 -44 0 -105 82 -134 180 -14 47 -77 140 -94 140 -5 0 -12 -11 -16 -25 -5 -19 -23 -34 -68 -56 -65 -33 -126 -84 -126 -106 0 -19 12 -16 61 12 54 30 107 32 142 4 15 -11 40 -49 57 -84 17 -35 43 -73 58 -83 33 -24 95 -42 145 -42 21 0 50 -8 65 -19 43 -29 211 -126 277 -159 145 -72 357 -122 520 -122 197 0 441 98 570 228 l64 65 -60 36 c-78 46 -186 159 -234 245 -20 36 -40 66 -44 66 -4 0 -18 -12 -32 -26 -13 -15 -58 -57 -99 -93 l-76 -67 58 -28 c54 -27 128 -93 128 -116 0 -17 -11 -11 -51 29 -81 80 -183 108 -336 91 -200 -23 -325 -24 -404 -5 -100 24 -116 33 -178 105 -29 34 -70 72 -90 84 -38 25 -94 77 -176 165 -56 60 -131 101 -187 101 -30 0 -46 -8 -78 -39z m180 -316 c7 -8 8 -15 2 -15 -5 0 -15 7 -22 15 -7 8 -8 15 -2 15 5 0 15 -7 22 -15z"
       id="path304"
       style="fill:#ffcc99" />
    <path
       d="M4292 5045 c-63 -13 -116 -26 -119 -29 -3 -3 -3 -12 0 -21 5 -12 26 -15 111 -15 127 0 159 9 147 42 -4 13 -6 29 -4 36 6 15 1 15 -135 -13z"
       id="path306"
       style="fill:#99ccff" />
    <path
       d="M783 4964 c-57 -43 -82 -73 -83 -96 0 -26 20 -22 66 11 55 40 107 55 165 47 27 -4 55 -9 62 -12 10 -3 12 5 9 31 -5 40 -14 43 -49 15 -44 -34 -103 -22 -103 22 0 26 -12 23 -67 -18z"
       id="path308"
       style="fill:#ffcc99" />
    <path
       d="M4475 4978 c-22 -6 -95 -12 -163 -15 l-123 -5 7 -61 c3 -34 9 -65 13 -69 4 -4 22 -3 41 2 52 15 136 12 203 -7 l60 -16 24 27 c25 30 32 101 13 137 -12 21 -16 21 -75 7z"
       id="path310"
       style="fill:#3399ff" />
    <path
       d="M5450 4879 c-47 -33 -131 -88 -187 -121 l-103 -61 0 -134 c0 -73 3 -133 7 -133 4 0 85 23 181 50 179 52 335 107 407 142 56 28 225 129 230 138 2 4 -15 25 -38 47 -57 54 -239 123 -342 129 l-70 4 -85 -61z"
       id="path312"
       style="fill:#cc66ff" />
    <path
       d="M830 4893 c-32 -11 -120 -77 -120 -89 0 -26 21 -24 82 7 50 26 75 32 125 33 53 0 62 3 67 20 3 11 3 23 0 28 -6 9 -130 10 -154 1z"
       id="path314"
       style="fill:#ffcc99" />
    <path
       d="M5993 4800 c15 -17 27 -35 27 -40 0 -5 -14 -18 -31 -30 -16 -12 -29 -24 -27 -26 2 -2 43 -6 90 -9 l86 -6 45 48 c25 26 45 49 44 50 -1 1 -45 9 -97 17 -52 9 -110 19 -129 22 l-34 5 26 -31z"
       id="path316"
       style="fill:#cc99ff" />
    <path
       d="M4243 4809 c-21 -6 -33 -16 -33 -27 0 -14 11 -17 70 -18 43 0 75 -5 83 -13 10 -10 1 -11 -45 -6 -85 11 -108 2 -108 -39 0 -32 1 -34 57 -45 31 -6 68 -11 83 -11 15 0 44 -11 65 -25 29 -20 40 -23 51 -14 27 22 16 66 -27 109 -35 35 -40 44 -34 70 l7 30 -69 -1 c-37 0 -83 -5 -100 -10z"
       id="path318"
       style="fill:#99ccff" />
    <path
       d="M6355 4681 c-44 -11 -76 -31 -70 -42 9 -14 33 -11 61 8 30 19 109 22 142 4 11 -6 23 -7 26 -2 14 21 -105 46 -159 32z"
       id="path320"
       style="fill:#330066" />
    <path
       d="M5865 4655 c-69 -45 -157 -87 -250 -121 -94 -34 -94 -36 -5 -54 30 -6 67 -17 82 -24 25 -13 45 -11 205 25 97 21 180 42 184 46 3 5 11 29 17 54 7 26 14 53 17 61 7 17 -16 22 -145 33 -58 5 -69 3 -105 -20z"
       id="path322"
       style="fill:#cc99ff" />
    <path
       d="M4213 4644 c-15 -7 -18 -64 -3 -64 6 0 10 -5 10 -11 0 -6 -6 -9 -14 -6 -10 4 -18 -8 -27 -40 l-12 -46 34 -28 c35 -29 21 -41 -15 -14 -27 20 -29 19 -50 -16 -11 -19 -16 -39 -12 -55 6 -24 -8 -35 -17 -11 -3 8 -8 9 -16 1 -8 -7 -2 -19 24 -44 l35 -34 6 31 c3 18 15 41 26 53 22 24 39 23 99 -3 28 -13 40 -13 59 -4 59 30 82 131 41 183 -17 21 -21 36 -17 60 6 31 6 31 -46 38 -29 3 -62 8 -73 10 -11 3 -26 3 -32 0z m97 -105 c12 -7 11 -8 -6 -9 -11 0 -29 7 -40 16 -18 14 -18 15 6 8 14 -3 32 -10 40 -15z"
       id="path324"
       style="fill:#3399ff" />
    <path
       d="M6571 4593 c18 -21 38 -42 43 -48 5 -5 3 1 -4 15 -16 32 -51 70 -64 70 -5 0 6 -17 25 -37z"
       id="path326"
       style="fill:#330066" />
    <path
       d="M6246 4598 c-9 -34 -8 -38 12 -38 9 0 23 9 30 21 15 24 15 24 -14 33 -17 5 -23 2 -28 -16z"
       id="path328"
       style="fill:#330066" />
    <path
       d="M4416 4552 c-3 -5 -1 -26 5 -46 7 -27 7 -52 -1 -85 -12 -51 -5 -97 31 -208 27 -81 37 -86 28 -15 -4 31 -8 116 -8 187 -1 101 -5 136 -17 153 -16 23 -29 28 -38 14z"
       id="path330"
       style="fill:#9933cc" />
    <path
       d="M3635 4498 c-164 -54 -450 -87 -600 -69 -54 6 -101 9 -104 5 -11 -11 -5 -426 8 -534 18 -151 17 -150 57 -150 49 0 111 -28 138 -63 21 -27 31 -31 75 -32 40 -1 57 -7 78 -27 21 -20 35 -25 59 -21 20 3 35 -1 43 -11 19 -23 49 -20 84 10 25 21 38 25 70 21 21 -3 47 -13 58 -23 15 -13 22 -15 31 -6 18 18 48 14 107 -13 l54 -26 27 33 c27 32 30 33 101 32 41 -1 100 -8 131 -17 60 -16 68 -14 68 13 0 9 11 29 25 44 14 15 25 30 25 35 0 4 -16 38 -35 77 -19 38 -35 75 -35 82 0 7 -7 24 -16 37 -9 14 -18 49 -20 77 -8 118 -23 225 -33 253 -7 16 -11 42 -9 58 l3 28 -65 3 c-95 3 -150 33 -195 104 -20 31 -38 67 -41 80 -7 26 -11 26 -89 0z m55 -13 c0 -26 30 -78 68 -117 20 -21 33 -40 30 -43 -11 -12 -67 47 -92 97 -28 55 -32 78 -16 78 6 0 10 -7 10 -15z m250 -205 c20 -6 22 -9 9 -14 -20 -9 -99 11 -99 24 0 9 36 5 90 -10z"
       id="path332"
       style="fill:#0033ff" />
    <path
       d="M6055 4483 c-11 -2 -171 -36 -355 -74 -364 -76 -491 -106 -503 -118 -11 -11 35 -113 77 -170 62 -85 203 -168 351 -207 55 -15 105 -19 240 -18 153 0 180 2 267 27 110 30 201 72 252 118 55 48 98 145 104 233 6 92 -4 161 -26 182 -15 15 -17 13 -32 -32 -18 -57 -56 -87 -131 -103 -39 -9 -57 -8 -82 3 -44 19 -96 75 -112 122 -14 41 -18 44 -50 37z"
       id="path334"
       style="fill:#cc99ff" />
    <path
       d="M2800 4470 c0 -20 70 -282 81 -300 18 -31 9 28 -26 160 -30 119 -55 181 -55 140z"
       id="path336"
       style="fill:#9933ff" />
    <path
       d="M5310 4440 l-135 -38 1 -36 c1 -20 4 -39 7 -42 2 -3 29 2 58 10 30 9 137 34 239 56 101 23 186 43 188 45 5 4 -123 32 -178 39 -34 4 -79 -5 -180 -34z"
       id="path338"
       style="fill:#cc66ff" />
    <path
       d="M2846 4447 c4 -12 15 -51 25 -87 16 -62 17 -63 18 -25 1 22 4 56 7 76 6 34 4 37 -25 47 -31 11 -32 10 -25 -11z"
       id="path340"
       style="fill:#993366" />
    <path
       d="M2762 4438 c-12 -15 80 -336 116 -403 l21 -40 1 33 c0 18 -11 59 -25 91 -13 33 -40 119 -59 191 -20 73 -37 134 -39 137 -2 2 -9 -2 -15 -9z"
       id="path342"
       style="fill:#993366" />
    <path
       d="M4230 4345 c0 -16 42 -180 58 -225 47 -133 146 -314 178 -327 18 -7 33 5 18 15 -21 15 -73 90 -101 147 -27 53 -112 296 -129 368 -3 15 -10 27 -15 27 -5 0 -9 -2 -9 -5z"
       id="path344"
       style="fill:#9933cc" />
    <path
       d="M4367 4338 c-16 -12 -16 -18 9 -98 29 -94 87 -216 130 -270 14 -19 24 -26 20 -15 -4 11 -10 34 -13 50 -3 17 -21 57 -39 90 -18 33 -44 101 -59 150 -14 50 -26 94 -28 98 -1 4 -10 2 -20 -5z"
       id="path346"
       style="fill:#9933cc" />
    <path
       d="M4054 4316 c-4 -9 -4 -38 0 -64 4 -26 10 -81 15 -123 4 -42 11 -81 16 -88 4 -7 9 -34 10 -60 3 -51 20 -104 67 -204 25 -52 36 -66 48 -60 8 4 49 9 90 10 107 5 107 6 65 58 -21 24 -55 86 -77 137 -39 89 -97 295 -99 348 l0 25 -11 -22 c-14 -30 -42 -29 -66 1 -14 19 -22 22 -30 14 -7 -7 -15 -8 -19 -4 -4 4 -1 11 7 16 12 7 12 12 3 21 -10 10 -14 9 -19 -5z"
       id="path348"
       style="fill:#993399" />
    <path
       d="M4295 4298 c39 -126 71 -220 96 -274 30 -69 106 -184 120 -184 13 0 23 52 13 65 -84 110 -154 253 -176 360 -9 49 -14 55 -35 55 -21 0 -23 -3 -18 -22z"
       id="path350"
       style="fill:#9933cc" />
    <path
       d="M4655 3973 c-5 -22 1 -33 36 -69 38 -39 59 -48 59 -25 0 4 -20 33 -44 64 -43 56 -44 56 -51 30z"
       id="path352"
       style="fill:#330066" />
    <path
       d="M2045 3933 c-239 -15 -538 -97 -738 -201 -127 -66 -127 -66 -82 -150 60 -115 190 -244 230 -228 13 4 14 22 9 105 -9 127 0 152 64 179 172 74 596 179 818 203 123 13 311 7 419 -15 39 -8 72 -13 73 -11 2 2 -38 17 -90 34 -127 40 -285 69 -448 81 -131 10 -150 10 -255 3z"
       id="path354"
       style="fill:#0099ff" />
    <path
       d="M4622 3889 c-20 -31 1 -49 57 -49 l46 0 -40 35 c-22 19 -42 34 -45 35 -3 0 -11 -9 -18 -21z"
       id="path356"
       style="fill:#330066" />
    <path
       d="M4560 3830 l-25 -20 35 10 c19 6 36 10 37 10 2 0 3 5 3 10 0 16 -23 11 -50 -10z"
       id="path358"
       style="fill:#330066" />
    <path
       d="M2260 3804 c-140 -22 -374 -77 -553 -131 l-157 -47 24 -25 c38 -41 61 -95 141 -335 41 -125 84 -245 95 -266 30 -58 74 -104 120 -125 38 -17 42 -17 57 -2 21 20 10 48 -48 123 -50 66 -79 131 -83 193 -3 49 -2 52 41 92 145 133 564 346 798 405 92 24 99 31 23 26 -42 -3 -60 -1 -53 6 8 8 192 32 244 32 41 0 -15 22 -104 41 -132 29 -406 35 -545 13z m226 -91 c-4 -4 -54 -15 -111 -25 -57 -9 -186 -38 -287 -64 -101 -25 -194 -48 -208 -51 -46 -9 1 16 70 37 70 21 396 96 445 103 54 7 99 7 91 0z"
       id="path360"
       style="fill:#66ccff" />
    <path
       d="M4621 3805 c-81 -18 -153 -42 -176 -59 -16 -11 2 -14 126 -19 79 -2 198 -14 264 -26 132 -24 450 -110 527 -143 103 -44 113 -103 43 -246 -57 -118 -67 -157 -54 -205 12 -45 24 -46 76 -8 57 42 107 103 152 190 53 104 71 170 71 266 0 101 -4 106 -134 145 -336 101 -710 145 -895 105z"
       id="path362"
       style="fill:#66ccff" />
    <path
       d="M2810 3689 c-163 -38 -227 -60 -390 -131 -165 -72 -273 -130 -404 -215 l-99 -65 39 -18 c47 -21 55 -33 114 -181 80 -202 159 -306 274 -360 54 -26 146 -40 146 -23 0 3 -13 22 -29 42 -68 88 -65 183 10 297 57 87 105 136 344 352 211 189 217 194 280 227 33 18 41 26 27 26 -38 0 -116 -31 -212 -85 -100 -56 -140 -72 -140 -57 0 11 207 124 287 156 l57 24 -34 21 c-48 29 -116 26 -270 -10z m-265 -346 c-11 -8 -42 -26 -70 -40 -27 -14 -94 -52 -148 -85 -54 -33 -100 -58 -102 -56 -5 5 146 103 253 164 42 24 78 41 81 38 3 -3 -3 -12 -14 -21z"
       id="path364"
       style="fill:#0099ff" />
    <path
       d="M4235 3696 c-69 -26 -121 -104 -80 -120 9 -3 39 -1 67 5 58 13 167 7 241 -11 53 -14 66 -37 15 -26 -62 13 -193 24 -226 19 -29 -5 9 -26 359 -201 419 -209 456 -233 480 -312 10 -32 10 -60 1 -129 -16 -116 -15 -140 3 -148 24 -8 52 24 75 84 15 40 26 118 41 276 22 238 44 325 95 378 18 19 22 29 14 34 -35 22 -408 118 -540 140 -141 23 -493 30 -545 11z m453 -182 c40 -15 62 -42 23 -29 -10 3 -38 11 -61 18 -24 7 -45 18 -48 26 -5 14 10 12 86 -15z"
       id="path366"
       style="fill:#0099ff" />
    <path
       d="M6365 3666 c-28 -17 -74 -49 -103 -71 -230 -174 -259 -187 -397 -187 -49 1 -114 7 -143 15 -53 14 -54 14 -63 -10 -13 -34 -12 -41 9 -51 79 -41 339 -9 477 58 90 43 158 109 278 268 15 19 -4 12 -58 -22z"
       id="path368"
       style="fill:#993399" />
    <path
       d="M3114 3590 c-59 -30 -120 -76 -244 -186 -263 -232 -357 -332 -409 -432 l-12 -22 33 20 c45 27 82 25 153 -8 73 -35 130 -91 280 -277 62 -77 126 -152 142 -167 63 -59 160 -88 232 -68 62 16 65 34 21 107 -64 106 -74 278 -34 563 17 116 64 314 94 393 17 44 18 54 6 65 -23 23 -48 0 -86 -77 -35 -73 -63 -101 -34 -33 9 20 22 54 28 76 10 36 9 40 -17 62 -38 33 -62 30 -153 -16z m2 -450 c-113 -240 -204 -397 -220 -379 -2 2 29 61 68 131 39 70 105 195 146 278 41 83 76 146 78 140 2 -6 -30 -82 -72 -170z"
       id="path370"
       style="fill:#0099ff" />
    <path
       d="M3503 3600 c-30 -12 -50 -46 -63 -108 -7 -28 -14 -52 -17 -52 -3 0 -3 27 -1 60 5 71 -12 67 -36 -8 -63 -193 -106 -459 -106 -661 l0 -125 29 28 c56 54 178 70 312 42 86 -19 140 -47 195 -102 33 -32 46 -40 50 -30 15 39 -43 365 -101 566 -42 146 -64 203 -108 282 -54 97 -101 130 -154 108z m-81 -375 l-9 -70 -2 65 c-1 68 11 135 17 95 1 -11 -1 -51 -6 -90z"
       id="path372"
       style="fill:#66ccff" />
    <path
       d="M1493 3584 c-5 -15 3 -214 9 -219 2 -1 33 2 71 8 50 8 67 14 67 26 -1 27 -58 153 -81 178 -26 27 -57 30 -66 7z"
       id="path374"
       style="fill:#0066cc" />
    <path
       d="M3853 3588 c-13 -6 -23 -17 -23 -24 0 -16 40 -54 88 -83 20 -13 101 -62 179 -111 202 -125 520 -376 501 -395 -4 -4 -33 17 -65 47 -126 118 -331 269 -458 339 -60 32 -59 31 105 -137 238 -244 397 -439 414 -507 4 -16 0 -50 -10 -83 -20 -70 -13 -104 22 -104 77 0 127 69 186 255 62 197 126 313 186 336 24 9 25 10 6 23 -55 38 -751 378 -819 401 -162 53 -262 67 -312 43z"
       id="path376"
       style="fill:#0099ff" />
    <path
       d="M3650 3570 c0 -20 43 -95 108 -190 66 -97 149 -256 139 -266 -3 -3 -22 27 -42 66 -33 66 -103 180 -111 180 -2 0 6 -26 17 -57 32 -93 88 -318 109 -444 37 -216 22 -336 -50 -403 -22 -20 -40 -41 -40 -47 0 -18 72 -41 113 -36 83 11 217 99 392 256 86 78 188 141 227 141 10 0 18 4 18 8 0 23 -216 272 -394 453 -195 201 -276 268 -393 328 -45 22 -93 28 -93 11z m341 -627 c28 -63 79 -213 79 -230 0 -37 -22 9 -61 125 -23 70 -44 133 -47 140 -2 6 -1 12 2 12 4 0 16 -21 27 -47z"
       id="path378"
       style="fill:#66ccff" />
    <path
       d="M6070 3539 c-92 -27 -233 -49 -314 -49 -52 0 -67 -3 -59 -11 7 -7 61 -14 125 -17 133 -5 192 8 278 62 62 40 60 41 -30 15z"
       id="path380"
       style="fill:#330066" />
    <path
       d="M5321 3491 c-36 -39 -68 -151 -77 -268 l-6 -91 40 -21 40 -20 4 57 c3 41 17 85 51 158 32 68 47 113 47 141 0 74 -51 96 -99 44z"
       id="path382"
       style="fill:#0066cc" />
    <path
       d="M6640 3253 c-108 -18 -352 -135 -429 -205 -144 -132 -285 -210 -412 -229 -55 -8 -82 -8 -95 0 -16 8 -11 10 26 11 62 0 148 24 219 59 62 32 200 132 239 174 l24 25 -69 -21 c-38 -11 -84 -34 -104 -51 -107 -91 -241 -144 -385 -153 -157 -10 -306 33 -390 112 -38 36 -40 35 -47 -40 -3 -27 -9 -58 -12 -68 -9 -21 28 -38 153 -69 110 -28 358 -30 492 -5 47 9 110 18 141 21 32 2 78 15 107 30 60 31 260 159 328 212 135 103 330 140 475 90 l38 -13 -14 27 c-34 65 -175 111 -285 93z"
       id="path384"
       style="fill:#ff3366" />
    <path
       d="M1889 3229 c-21 -41 14 -147 74 -222 19 -23 41 -54 49 -70 l14 -27 28 29 28 29 -25 64 c-13 34 -32 84 -42 110 -19 53 -68 108 -96 108 -10 0 -23 -9 -30 -21z"
       id="path386"
       style="fill:#0066cc" />
    <path
       d="M4954 3068 c-17 -18 -38 -46 -48 -61 -17 -28 -17 -28 18 -76 20 -27 55 -66 78 -87 l42 -38 8 30 c4 16 11 65 14 109 4 66 2 86 -13 115 -25 49 -59 51 -99 8z"
       id="path388"
       style="fill:#0066cc" />
    <path
       d="M5276 3069 c40 -43 151 -95 234 -110 74 -13 157 -5 250 25 l45 14 -65 1 c-84 1 -250 26 -292 44 -23 10 -41 11 -60 5 -23 -8 -38 -4 -85 21 l-57 31 30 -31z"
       id="path390"
       style="fill:#330066" />
    <path
       d="M5230 3061 c0 -35 58 -89 138 -128 l76 -38 150 0 c132 0 160 3 218 23 62 22 195 98 186 107 -6 6 -64 -11 -156 -44 -45 -17 -123 -38 -172 -47 -81 -15 -95 -15 -166 0 -94 19 -166 53 -228 107 -40 35 -46 38 -46 20z"
       id="path392"
       style="fill:#330066" />
    <path
       d="M2510 2953 c-30 -11 -60 -47 -66 -78 -6 -34 11 -83 44 -124 l19 -24 27 45 c15 25 36 74 48 108 17 52 18 64 7 71 -15 10 -55 11 -79 2z"
       id="path394"
       style="fill:#0066cc" />
    <path
       d="M4870 2944 c0 -17 67 -99 120 -147 70 -63 163 -112 265 -140 84 -22 258 -32 335 -19 52 9 50 10 -51 11 -58 0 -132 6 -165 12 -66 12 -168 53 -200 81 -17 15 -25 16 -51 6 -28 -10 -35 -9 -65 14 -52 40 -157 148 -163 169 -6 17 -25 27 -25 13z"
       id="path396"
       style="fill:#ff6699" />
    <path
       d="M2606 2873 c-22 -74 -95 -199 -122 -212 -18 -8 -22 -21 -28 -83 -31 -345 -9 -540 72 -630 47 -52 102 -77 168 -78 34 0 54 -5 57 -13 8 -22 107 -44 332 -77 237 -34 268 -41 345 -80 70 -36 97 -56 87 -66 -4 -5 -35 7 -68 25 -58 32 -60 32 -48 10 22 -41 14 -145 -21 -254 -40 -126 -50 -238 -26 -281 10 -16 15 -21 12 -11 -3 9 0 30 6 45 11 26 12 25 19 -27 4 -33 15 -61 28 -75 l21 -20 0 52 c0 28 5 52 10 52 6 0 10 -22 10 -49 0 -39 6 -56 25 -78 l24 -28 1 47 c0 51 7 78 21 78 5 0 9 -34 9 -75 0 -65 3 -76 21 -86 12 -6 24 -7 28 -2 12 14 33 137 26 155 -5 13 -2 16 14 15 25 -2 25 2 5 -91 -14 -61 -15 -78 -4 -91 13 -16 65 -21 74 -7 2 4 -7 8 -21 7 -14 0 -28 6 -30 13 -3 8 7 12 29 12 61 0 79 31 94 162 20 169 21 164 -45 272 -35 57 -71 135 -90 191 -30 89 -71 296 -71 354 0 19 -12 37 -43 63 -23 19 -76 83 -116 142 -89 129 -154 190 -223 211 -28 8 -54 13 -58 10 -4 -2 -13 -26 -20 -52 -17 -62 -77 -180 -97 -187 -17 -7 -17 -9 20 61 15 29 42 95 61 147 l34 94 -50 32 c-30 20 -84 75 -139 144 -50 61 -118 144 -152 185 -59 72 -128 131 -151 131 -7 0 -20 -26 -30 -57z m979 -1873 c3 -5 1 -10 -4 -10 -6 0 -11 5 -11 10 0 6 2 10 4 10 3 0 8 -4 11 -10z"
       id="path398"
       style="fill:#ffcc99" />
    <path
       d="M4851 2887 c-14 -36 2 -69 61 -123 99 -91 210 -150 343 -180 118 -27 345 -25 485 5 169 36 319 121 376 214 l17 28 -39 -16 c-49 -21 -70 -32 -131 -70 -56 -35 -240 -101 -333 -121 -145 -30 -336 -11 -475 47 -105 44 -221 135 -277 219 l-16 25 -11 -28z"
       id="path400"
       style="fill:#330066" />
    <path
       d="M6110 2771 c-130 -134 -164 -155 -325 -198 -92 -24 -116 -27 -295 -27 -175 -1 -203 1 -274 22 -123 35 -229 96 -314 178 -41 39 -75 66 -77 60 -2 -6 -8 -25 -13 -43 -10 -29 -7 -37 29 -87 65 -90 222 -179 378 -212 138 -29 350 -11 488 42 37 14 98 37 135 49 77 27 122 54 204 122 61 51 202 215 182 213 -2 -1 -55 -54 -118 -119z"
       id="path402"
       style="fill:#ff6699" />
    <path
       d="M5175 2800 c-15 -30 -15 -30 17 -50 96 -59 235 -85 400 -76 138 7 235 29 328 74 72 36 74 37 42 40 -19 2 -47 -1 -63 -7 -55 -19 -232 -33 -357 -28 -127 4 -248 28 -315 62 -38 19 -34 20 -52 -15z"
       id="path404"
       style="fill:#ff6699" />
    <path
       d="M6142 2741 l-53 -61 26 -10 c15 -6 51 -30 82 -55 57 -47 88 -60 54 -24 -19 20 -31 61 -49 168 l-7 43 -53 -61z"
       id="path406"
       style="fill:#ff3366" />
    <path
       d="M3396 2744 c-3 -9 -6 -44 -6 -79 0 -61 1 -63 33 -78 43 -20 152 -41 173 -33 14 6 16 18 12 95 -3 49 -8 94 -12 100 -5 7 -42 11 -101 11 -75 0 -94 -3 -99 -16z"
       id="path408"
       style="fill:#0066cc" />
    <path
       d="M3635 2632 c4 -75 1 -187 -9 -312 -28 -348 -20 -433 51 -533 23 -34 48 -53 101 -78 82 -39 95 -58 22 -30 -66 25 -128 72 -162 123 -35 52 -35 37 1 -105 37 -140 61 -197 141 -322 82 -129 107 -187 136 -319 22 -99 58 -185 84 -201 6 -3 10 -13 10 -21 0 -12 -4 -12 -25 2 l-25 16 0 -115 c0 -136 21 -268 57 -351 14 -34 43 -104 64 -156 54 -130 90 -157 139 -105 29 31 30 67 3 126 -41 88 -44 100 -32 115 15 18 29 9 29 -19 0 -27 37 -136 52 -154 17 -21 37 -15 53 16 12 25 13 35 1 73 -7 23 -21 60 -31 80 -10 21 -15 41 -11 45 12 13 36 -27 57 -99 22 -72 37 -83 63 -46 23 33 20 50 -20 117 -33 56 -39 91 -15 91 5 0 15 -17 22 -37 16 -52 20 -57 30 -42 4 7 11 10 15 6 4 -3 2 -13 -5 -20 -12 -15 -5 -47 10 -47 14 0 29 37 29 72 0 19 -11 49 -25 70 -26 38 -32 68 -15 68 5 0 17 -14 26 -32 13 -25 18 -28 25 -16 12 22 -5 71 -50 147 -55 92 -71 133 -87 228 -20 124 -57 186 -67 112 -12 -91 -23 -52 -25 90 -2 107 3 193 19 307 25 190 23 403 -6 494 -10 30 -23 82 -30 115 -11 50 -15 56 -21 36 -13 -42 -94 -204 -100 -198 -3 3 17 61 44 129 27 68 61 159 75 203 45 137 147 508 142 513 -2 2 -39 -28 -82 -67 -95 -88 -253 -203 -319 -233 -101 -46 -221 -19 -218 48 1 16 -5 85 -12 154 -8 69 -14 128 -14 132 0 9 -35 28 -72 39 l-29 8 6 -117z m755 -2316 c0 -2 -7 -9 -15 -16 -12 -10 -15 -10 -15 4 0 9 7 16 15 16 8 0 15 -2 15 -4z m-88 -68 c-6 -6 -15 -8 -19 -4 -4 4 -1 11 7 16 19 12 27 3 12 -12z m-102 -83 c-7 -8 -22 -15 -34 -15 -19 0 -18 2 9 24 30 25 47 18 25 -9z"
       id="path410"
       style="fill:#ffcc99" />
    <path
       d="M4495 2743 c-11 -3 -24 -8 -28 -13 -8 -7 27 -86 62 -139 l16 -25 7 40 c4 21 11 53 14 70 5 24 1 37 -15 53 -11 11 -24 20 -28 20 -5 -1 -17 -3 -28 -6z"
       id="path412"
       style="fill:#0066cc" />
    <path
       d="M3325 2714 c-34 -36 -33 -86 1 -136 15 -21 28 -37 29 -36 1 2 5 47 9 101 8 106 3 116 -39 71z"
       id="path414"
       style="fill:#0066cc" />
    <path
       d="M4428 2714 c-18 -18 99 -218 164 -280 75 -73 184 -114 293 -113 108 2 118 15 15 21 -115 6 -173 30 -230 96 -22 24 -40 49 -40 53 0 5 -13 9 -29 9 -40 0 -75 39 -125 138 -23 46 -45 80 -48 76z"
       id="path416"
       style="fill:#330066" />
    <path
       d="M4768 2649 l-28 -61 53 -50 c109 -103 225 -138 464 -138 154 0 310 19 366 45 18 8 23 13 12 10 -165 -36 -329 -38 -450 -6 -158 42 -311 139 -376 238 -14 22 -15 20 -41 -38z"
       id="path418"
       style="fill:#ff6699" />
    <path
       d="M3764 2610 c8 -102 15 -140 25 -140 13 0 48 44 56 68 10 34 -11 84 -51 123 l-36 34 6 -85z"
       id="path420"
       style="fill:#0066cc" />
    <path
       d="M4401 2676 c-1 -24 60 -135 114 -206 89 -116 214 -211 333 -252 57 -19 87 -23 197 -23 123 0 135 2 232 36 104 37 228 102 286 150 l32 27 -70 -15 c-39 -8 -146 -16 -238 -19 -161 -4 -170 -5 -214 -31 -160 -93 -373 -57 -506 87 -54 58 -150 206 -160 245 -4 19 -5 19 -6 1z"
       id="path422"
       style="fill:#ff3366" />
    <path
       d="M4387 2603 c-38 -37 59 -189 200 -315 126 -112 250 -182 391 -218 46 -12 60 -34 15 -24 -215 47 -457 219 -588 417 l-39 58 -18 -60 c-19 -60 -19 -61 3 -111 25 -59 130 -162 235 -232 180 -120 336 -168 550 -168 137 0 183 11 344 80 155 68 250 140 416 319 38 41 59 69 47 62 -12 -6 -53 -46 -90 -89 -92 -104 -161 -163 -241 -205 -174 -91 -328 -132 -473 -125 -50 2 -94 9 -101 16 -9 9 -3 12 28 12 57 0 248 36 316 59 62 21 139 63 158 86 8 10 -7 6 -41 -9 -140 -64 -344 -91 -474 -63 -87 19 -226 73 -300 118 -65 39 -180 148 -224 213 -17 24 -48 76 -69 115 -21 39 -42 68 -45 64z"
       id="path424"
       style="fill:#ff6699" />
    <path
       d="M3385 2531 c-9 -60 -19 -77 -56 -96 -27 -14 -106 -20 -163 -13 -37 6 -26 -19 12 -25 78 -13 156 -86 284 -267 45 -64 105 -128 111 -119 4 4 38 460 37 497 0 18 -4 22 -18 18 -25 -8 -119 11 -164 33 l-36 18 -7 -46z"
       id="path426"
       style="fill:none" />
    <path
       d="M4710 2555 c-31 -38 85 -124 185 -138 l40 -6 -47 24 c-25 14 -73 49 -106 80 -51 47 -61 53 -72 40z"
       id="path428"
       style="fill:#330066" />
    <path
       d="M5874 2545 c-24 -11 -36 -27 -53 -71 -68 -178 -256 -354 -451 -422 -51 -18 -57 -21 -25 -16 69 10 243 84 320 135 79 53 151 126 191 194 27 47 64 148 64 177 0 21 -4 21 -46 3z"
       id="path430"
       style="fill:#ff6699" />
    <path
       d="M4666 2517 c-16 -11 -14 -16 13 -53 47 -65 105 -88 233 -92 59 -2 114 1 124 6 12 6 -13 9 -81 10 -87 0 -103 3 -153 29 -33 17 -69 45 -88 70 -27 36 -34 40 -48 30z"
       id="path432"
       style="fill:#330066" />
    <path
       d="M5718 2462 c-42 -26 -92 -61 -110 -79 -82 -79 -287 -176 -441 -209 -185 -39 -371 9 -529 136 l-63 52 52 -50 c73 -70 156 -118 275 -158 174 -59 276 -64 455 -23 45 11 99 27 120 35 58 24 152 90 216 153 67 64 141 194 110 190 -5 0 -43 -22 -85 -47z"
       id="path434"
       style="fill:#ff3366" />
    <path
       d="M5920 2274 c-153 -154 -243 -214 -395 -264 -38 -13 -65 -25 -59 -27 20 -7 131 35 212 80 59 32 110 74 217 179 77 76 138 138 135 138 -3 0 -53 -48 -110 -106z"
       id="path436"
       style="fill:#330066" />
    <path
       d="M5268 2023 c6 -2 18 -2 25 0 6 3 1 5 -13 5 -14 0 -19 -2 -12 -5z"
       id="path438" />
    <path
       d="M803 7365 c-18 -20 -5 -45 20 -41 27 4 33 22 14 41 -19 18 -19 18 -34 0z"
       id="path440"
       style="fill:#66ccff" />
    <path
       d="M1393 7320 c-3 -11 -14 -20 -24 -20 -27 0 -35 -27 -15 -49 9 -10 16 -25 16 -34 0 -13 8 -16 43 -14 35 3 42 6 42 25 0 11 4 24 8 28 15 15 6 41 -23 62 -36 27 -41 27 -47 2z"
       id="path442"
       style="fill:#ff33cc" />
    <path
       d="M587 7100 c-26 -28 -27 -32 -16 -64 12 -32 15 -34 57 -33 31 0 45 5 49 16 2 9 9 24 14 34 12 22 4 37 -20 37 -10 0 -21 9 -24 20 -7 28 -27 24 -60 -10z"
       id="path444"
       style="fill:#3333ff" />
    <path
       d="M1733 6899 c-17 -17 -4 -39 22 -39 30 0 40 27 15 40 -23 12 -24 12 -37 -1z"
       id="path446"
       style="fill:#66ccff" />
    <path
       d="M2184 6795 c-19 -19 -31 -23 -53 -19 -42 9 -75 -26 -67 -71 4 -18 1 -44 -5 -59 -10 -21 -9 -30 5 -52 15 -22 23 -25 51 -20 27 5 35 2 49 -19 26 -40 96 -25 96 21 0 8 11 19 24 24 55 21 59 90 6 108 -26 10 -29 14 -21 34 10 27 4 48 -17 66 -23 18 -40 15 -68 -13z"
       id="path448"
       style="fill:#99ff66" />
    <path
       d="M324 6763 c-14 -24 -7 -43 17 -43 26 0 35 26 16 45 -19 19 -20 19 -33 -2z"
       id="path450"
       style="fill:#66ccff" />
    <path
       d="M748 6723 c-29 -15 -35 -27 -18 -38 6 -3 7 -17 4 -30 -5 -22 -3 -23 40 -23 38 0 46 3 46 18 0 10 5 22 10 25 9 5 -42 67 -52 64 -2 -1 -15 -8 -30 -16z"
       id="path452"
       style="fill:#0033ff" />
    <path
       d="M372 6493 c-7 -3 -17 -16 -22 -29 -7 -18 -17 -24 -40 -24 -44 0 -67 -38 -51 -88 6 -20 10 -44 9 -52 -5 -54 25 -79 72 -60 25 10 31 9 49 -9 12 -12 28 -21 36 -21 21 0 55 36 55 58 0 10 11 29 25 42 14 13 25 33 25 45 0 27 -30 55 -58 55 -18 0 -22 6 -22 33 0 49 -31 69 -78 50z"
       id="path454"
       style="fill:#ff6699" />
    <path
       d="M892 6244 c-17 -19 -7 -34 24 -34 26 0 32 18 12 38 -15 15 -20 15 -36 -4z"
       id="path456"
       style="fill:#0033ff" />
    <path
       d="M1226 6084 c-18 -17 -22 -69 -6 -79 6 -4 3 -16 -10 -32 -11 -14 -20 -33 -20 -43 0 -21 41 -60 63 -60 9 0 21 -9 27 -20 24 -45 100 -28 100 22 0 13 7 18 28 18 15 0 33 5 40 12 17 17 15 73 -3 88 -8 7 -15 27 -15 45 0 52 -44 75 -84 44 l-26 -20 -26 20 c-32 25 -47 26 -68 5z"
       id="path458"
       style="fill:#ff99ff" />
    <path
       d="M645 5930 c-3 -11 -13 -20 -21 -20 -17 0 -18 -16 -3 -57 9 -28 13 -30 55 -29 43 1 47 3 59 38 13 38 5 58 -22 58 -8 0 -16 7 -19 15 -9 22 -42 18 -49 -5z"
       id="path460"
       style="fill:#990099" />
  </g>
</svg>
