<?xml version="1.0" standalone="no"?>
<!DOCTYPE svg PUBLIC "-//W3C//DTD SVG 20010904//EN"
 "http://www.w3.org/TR/2001/REC-SVG-20010904/DTD/svg10.dtd">
<svg version="1.0" xmlns="http://www.w3.org/2000/svg"
 width="850.000000pt" height="850.000000pt" viewBox="0 0 850.000000 850.000000"
 preserveAspectRatio="xMidYMid meet">
<metadata>
Created by potrace 1.14, written by Peter Selinger 2001-2017
</metadata>
<g transform="translate(0.000000,850.000000) scale(0.100000,-0.100000)"
fill="#000000" stroke="none">
<path d="M4451 8446 c-20 -24 -123 -64 -219 -85 -51 -11 -97 -23 -102 -26 -13
-8 -13 5 1 44 16 44 5 49 -26 13 -43 -51 -83 -69 -155 -71 -36 -1 -89 -8 -119
-15 -55 -15 -131 -59 -131 -76 0 -23 -18 -8 -23 19 -3 16 -17 41 -30 57 l-24
27 -6 -58 c-4 -44 -14 -71 -41 -109 -41 -60 -135 -155 -116 -117 12 24 11 23
-26 -6 -55 -43 -139 -134 -156 -169 -23 -44 -28 -131 -20 -339 8 -176 10 -194
34 -240 14 -27 30 -49 36 -48 20 5 23 -60 9 -176 -8 -64 -11 -130 -7 -150 21
-99 20 -111 -5 -121 -56 -21 -72 -125 -40 -250 20 -79 25 -87 77 -147 23 -26
52 -73 66 -103 13 -30 30 -62 37 -70 8 -9 15 -60 20 -130 6 -113 29 -249 45
-281 7 -13 4 -16 -21 -17 -16 0 -68 -19 -114 -42 -98 -47 -97 -45 -156 -223
l-41 -125 -72 -4 c-88 -6 -114 -19 -207 -106 l-74 -69 -150 -5 c-180 -6 -202
-13 -295 -101 -36 -34 -102 -90 -147 -125 -105 -81 -159 -140 -172 -188 -6
-22 -14 -84 -17 -139 -5 -88 -12 -114 -54 -220 -65 -163 -104 -328 -113 -478
-2 -32 -11 -65 -19 -75 -63 -72 -162 -328 -194 -502 -24 -128 -24 -469 0 -624
l16 -109 -36 -173 c-35 -172 -35 -174 -19 -236 8 -35 31 -96 50 -137 25 -52
35 -87 35 -121 0 -125 80 -259 176 -296 43 -16 49 -16 126 0 45 10 120 30 168
46 84 28 87 28 153 13 37 -8 67 -18 67 -23 0 -4 -11 -52 -24 -106 -32 -131
-50 -243 -82 -514 -14 -124 -34 -272 -44 -329 -11 -57 -17 -108 -14 -113 3 -4
26 -8 52 -8 39 0 242 -57 257 -72 2 -2 -2 -25 -10 -50 -16 -55 -32 -183 -45
-375 -5 -77 -13 -148 -16 -157 -5 -12 0 -16 24 -16 37 0 42 12 42 103 0 40 4
78 9 85 7 12 33 12 148 3 76 -6 184 -11 239 -11 255 0 493 60 556 140 22 28
28 31 46 21 39 -21 61 -13 79 27 10 20 18 38 19 40 1 2 24 -4 50 -13 60 -20
221 -45 296 -45 l57 0 3 -52 3 -53 60 -3 60 -3 -3 -119 -4 -120 28 0 27 0 -6
98 c-9 146 -16 137 121 150 64 7 141 15 170 18 48 6 52 5 52 -14 0 -31 11 -52
26 -52 8 0 47 16 86 36 69 35 404 174 418 174 4 0 15 -18 25 -41 25 -54 106
-124 175 -150 156 -59 452 -21 709 91 64 29 121 53 126 56 6 2 24 -72 44 -181
l35 -185 33 0 c18 0 33 1 33 3 0 2 -7 23 -15 48 -8 24 -40 177 -70 339 -30
162 -64 332 -75 377 -11 45 -20 86 -20 91 0 5 27 20 60 32 127 48 155 133 104
321 -16 62 -61 259 -100 439 -14 69 -37 146 -50 173 l-24 47 94 0 c74 0 104
-4 142 -21 42 -19 60 -21 142 -16 156 9 201 43 251 190 11 32 43 91 70 131 66
98 82 137 88 226 4 59 0 97 -20 181 -26 105 -26 105 -10 210 23 149 23 503 1
624 -36 188 -116 403 -184 492 -19 25 -26 48 -30 100 -10 155 -49 314 -119
483 -38 92 -44 117 -49 205 -3 55 -10 117 -17 139 -14 49 -69 108 -183 198
-50 39 -116 95 -146 124 -79 77 -108 86 -286 93 l-151 6 -73 69 c-88 82 -134
105 -215 106 l-60 0 -44 123 c-23 67 -53 136 -66 153 -28 37 -126 91 -183 100
-23 4 -42 7 -42 8 0 0 9 24 20 52 22 60 40 187 40 291 0 40 5 75 11 78 6 4 25
40 44 80 18 40 49 90 69 112 88 98 123 294 65 367 -11 14 -27 26 -34 26 -24 0
-27 20 -14 99 10 63 10 105 0 215 -12 126 -9 183 6 128 9 -35 21 -26 28 22 8
49 0 96 -22 140 -9 17 -16 63 -17 115 -2 74 -7 97 -38 166 -33 76 -88 248 -88
277 0 18 -38 87 -66 121 l-24 29 0 -44 0 -43 -24 51 c-29 62 -92 117 -164 144
-30 12 -56 19 -58 17 -2 -2 19 -20 47 -41 28 -21 49 -39 47 -42 -3 -2 -19 1
-38 6 -19 5 -51 7 -72 3 -35 -5 -43 -2 -76 30 -46 43 -85 64 -159 81 l-58 14
35 15 c34 15 34 15 10 21 -14 3 -43 7 -65 8 l-40 3 37 22 c33 20 78 74 78 96
0 12 -17 8 -29 -7z m-76 -77 c-4 -5 -46 -29 -93 -52 -83 -39 -96 -66 -17 -32
42 17 145 32 145 21 0 -4 -30 -21 -66 -37 -76 -35 -80 -45 -9 -23 61 19 137
12 206 -17 67 -29 83 -50 32 -42 -21 3 -55 12 -77 20 -54 18 -66 16 -30 -7 16
-11 63 -26 104 -35 83 -17 149 -51 174 -90 9 -14 21 -25 26 -25 19 0 10 24
-22 57 l-32 33 40 0 c69 0 119 -45 138 -125 7 -27 9 -28 18 -11 10 17 7 56 -6
101 -4 11 5 -2 19 -30 26 -53 31 -108 15 -165 l-10 -35 31 31 c21 22 32 45 38
80 l7 49 16 -36 c9 -20 19 -60 23 -90 3 -30 11 -72 17 -94 6 -22 16 -74 23
-114 13 -74 13 -76 -15 -138 -16 -35 -27 -63 -25 -63 16 0 66 29 93 54 l32 30
0 -70 c0 -56 -6 -81 -30 -131 -33 -72 -27 -86 9 -18 13 25 28 45 32 45 5 0 9
-1 9 -2 0 -2 7 -25 15 -52 13 -43 13 -47 -1 -42 -11 4 -20 -5 -31 -32 -13 -31
-14 -58 -8 -162 9 -144 7 -243 -5 -274 -7 -16 -9 -8 -11 34 l-1 55 -13 -63
c-7 -35 -18 -69 -25 -75 -10 -10 -10 -7 -4 13 13 37 11 157 -3 171 -9 9 -10
-3 -6 -47 4 -49 0 -74 -25 -146 -45 -128 -47 -161 -22 -260 l21 -84 -20 -80
-20 -79 5 101 c5 85 2 113 -15 169 -16 49 -21 95 -21 174 -1 71 -6 119 -17
146 -8 22 -18 69 -22 105 -4 36 -13 75 -20 85 -11 18 -11 16 -7 -15 3 -19 8
-55 11 -80 6 -48 -2 -33 -24 45 -6 22 -17 49 -25 60 -11 15 -10 4 4 -43 25
-80 25 -108 0 -61 -10 19 -36 51 -58 71 -22 20 -58 67 -81 104 -25 42 -41 61
-41 49 0 -11 23 -58 50 -105 28 -47 50 -89 50 -94 0 -5 -24 12 -52 36 -39 33
-65 68 -97 132 -50 96 -74 117 -36 29 34 -75 24 -80 -14 -7 -16 33 -37 68 -46
79 -21 26 -17 13 23 -63 18 -35 28 -61 21 -56 -9 5 -10 2 -5 -11 5 -15 4 -16
-9 -5 -27 23 -16 -3 18 -39 28 -31 29 -32 5 -15 -15 10 -66 64 -114 119 -78
90 -104 115 -104 102 0 -2 14 -21 30 -42 48 -60 24 -56 -32 5 l-50 55 34 -49
c18 -27 53 -71 76 -97 24 -27 41 -49 37 -49 -4 0 -35 23 -69 52 l-61 52 70
-72 c38 -40 66 -72 62 -72 -3 0 -24 7 -46 16 -28 11 -53 34 -86 80 -49 67
-116 137 -123 129 -3 -2 7 -18 22 -36 15 -17 34 -45 43 -63 15 -30 15 -30 -2
-16 -17 14 -18 13 -11 -5 5 -14 -4 -10 -31 15 -75 70 -87 73 -23 6 38 -41 53
-61 35 -49 -16 11 -57 34 -90 51 -59 30 -114 88 -157 166 -28 50 -21 19 19
-82 20 -52 51 -117 70 -145 42 -62 36 -75 -7 -15 -32 43 -42 62 -74 151 -28
76 -29 48 -2 -33 14 -40 39 -91 57 -112 17 -22 29 -41 26 -44 -10 -10 -78 82
-96 130 -11 28 -20 42 -20 31 -1 -32 37 -107 72 -144 l32 -33 -31 15 c-34 18
-86 72 -108 115 -19 37 -53 156 -61 215 -4 26 -12 47 -17 47 -5 0 -7 -12 -4
-27 3 -16 8 -55 12 -88 4 -33 13 -77 20 -97 7 -21 9 -38 4 -38 -11 0 -28 52
-40 125 l-9 60 3 -57 c3 -69 -2 -67 -20 4 -10 43 -12 47 -13 22 -1 -17 6 -50
14 -73 8 -22 12 -41 10 -41 -11 0 -37 65 -49 123 -12 52 -14 56 -15 26 -1 -20
6 -56 14 -79 13 -37 13 -41 0 -30 -24 20 -73 128 -81 177 -7 45 -7 45 -20 22
-26 -47 -19 41 7 93 26 50 24 55 -7 19 -32 -38 -44 -80 -44 -153 0 -31 -4 -59
-9 -62 -13 -9 -33 44 -41 109 -6 60 -7 60 -19 30 -8 -19 -11 -58 -9 -107 3
-43 4 -78 2 -78 -11 0 -23 114 -15 148 5 23 5 42 1 42 -22 0 -26 -115 -6 -172
16 -46 13 -47 -21 -8 -36 43 -40 30 -7 -21 45 -72 52 -160 24 -294 -43 -206
-49 -250 -50 -356 0 -58 5 -131 11 -163 10 -48 9 -71 -6 -141 -10 -47 -21 -85
-25 -85 -10 0 -30 95 -30 142 0 22 7 65 16 96 26 87 15 161 -37 268 l-44 89 2
108 c1 59 0 107 -3 107 -2 0 -10 -14 -16 -31 -12 -27 -13 -17 -13 88 0 93 -4
125 -17 149 -17 30 -16 35 3 104 11 40 18 75 15 77 -3 3 -20 -26 -38 -63 -39
-82 -37 -78 -42 -73 -10 10 15 183 34 231 15 40 70 308 70 343 0 3 40 48 89
100 54 57 101 119 119 155 21 40 32 54 36 44 11 -28 6 -101 -9 -143 -8 -23
-10 -41 -4 -41 17 0 49 64 49 101 0 38 38 83 95 112 33 16 144 41 151 34 3 -3
-15 -15 -40 -27 -44 -21 -113 -87 -102 -97 3 -3 24 11 47 30 23 20 76 50 118
68 41 17 87 38 101 46 14 8 -6 -15 -45 -52 -58 -56 -64 -64 -35 -50 19 10 60
35 90 57 41 28 78 44 145 59 50 12 106 27 125 35 44 16 42 16 35 3z m-611
-1022 c20 -48 70 -102 154 -166 41 -31 89 -68 108 -83 40 -30 119 -51 164 -42
29 6 39 19 21 26 -12 4 -91 119 -91 131 0 6 10 1 23 -10 12 -11 53 -35 91 -53
62 -29 70 -37 90 -82 21 -47 23 -49 39 -33 21 20 32 59 21 77 -4 7 4 3 17 -8
33 -29 63 -44 91 -44 13 0 43 -10 68 -21 24 -11 46 -16 48 -11 1 5 19 4 40 -4
20 -7 54 -13 75 -14 40 0 87 -35 87 -65 0 -8 4 -15 9 -15 14 0 23 35 16 67
l-6 28 26 -30 c36 -40 65 -106 67 -150 1 -42 15 -46 25 -7 l7 27 7 -25 c4 -14
7 -68 8 -122 1 -66 7 -116 21 -160 11 -34 20 -82 20 -106 0 -50 -19 -132 -30
-132 -9 0 -66 -95 -93 -155 l-18 -40 7 40 6 40 -22 -20 c-31 -28 -50 -76 -51
-132 l-1 -48 -11 43 c-12 50 -25 50 -51 -2 -16 -33 -17 -44 -7 -95 6 -32 8
-66 5 -76 -7 -17 -8 -17 -21 1 -7 10 -13 29 -13 43 -1 25 -1 25 -15 7 -8 -11
-15 -36 -15 -55 l0 -36 -26 32 c-18 24 -41 37 -82 49 -31 9 -66 23 -77 30 -29
18 -105 37 -140 35 -24 -1 -18 4 34 29 64 31 98 35 44 6 -15 -8 -22 -15 -15
-16 21 0 72 33 72 47 0 23 -51 14 -107 -18 -30 -17 -68 -31 -87 -31 -18 0 -60
14 -94 31 -63 32 -96 38 -107 21 -7 -11 52 -50 75 -50 8 1 2 8 -13 16 -16 9
-27 18 -24 20 3 3 35 -11 72 -30 62 -33 69 -48 12 -27 -26 10 -129 -14 -182
-43 -16 -9 -38 -16 -48 -16 -27 0 -73 -27 -96 -56 l-21 -26 -12 28 -12 29 -4
-30 c-5 -42 -22 -56 -22 -19 0 44 -28 119 -52 140 -21 19 -21 19 -14 0 8 -23
-22 -126 -36 -126 -7 0 -8 37 -3 98 7 98 -6 182 -27 182 -5 0 -7 -9 -3 -19 6
-19 -18 -91 -30 -91 -4 0 -4 23 0 50 6 40 1 69 -21 142 l-28 91 -12 -34 -11
-34 -6 30 c-3 17 -4 149 -3 295 2 254 3 270 30 380 18 72 29 144 30 193 1 64
3 76 16 71 51 -21 52 -20 29 37 -35 88 -42 110 -36 115 3 3 11 -5 18 -17 15
-30 99 -119 111 -119 5 0 6 5 3 11 -7 10 -34 115 -35 132 0 17 11 5 24 -26z
m-370 -475 c19 -75 19 -72 7 -72 -14 0 -41 77 -41 117 0 51 15 32 34 -45z m52
-136 c29 -29 34 -41 34 -79 0 -52 -14 -97 -31 -97 -8 0 -9 9 -4 28 15 52 10
109 -9 131 -21 23 -60 28 -72 10 -4 -7 0 -9 14 -5 14 5 28 0 41 -13 26 -26 26
-48 1 -86 -25 -38 -25 -57 0 -80 21 -19 27 -55 10 -55 -13 0 -57 78 -65 117
-9 43 9 76 37 67 15 -4 19 -2 16 7 -3 8 -18 14 -34 14 -79 0 -59 -133 42 -280
30 -45 60 -115 48 -115 -3 0 -13 19 -23 43 -11 23 -39 66 -64 96 -54 64 -72
120 -72 222 0 89 11 109 62 109 26 0 43 -8 69 -34z m1770 9 c13 -20 16 -42 12
-108 -5 -95 -28 -155 -82 -214 -19 -22 -44 -60 -55 -84 -12 -27 -20 -36 -20
-24 0 22 18 57 67 130 39 60 72 145 72 188 0 59 -46 97 -78 65 -18 -18 -14
-30 7 -23 27 8 44 -19 39 -63 -6 -43 -68 -150 -68 -117 0 11 9 34 20 50 25 38
25 57 0 80 -26 24 -25 63 2 92 12 13 17 23 11 23 -16 0 -51 -43 -58 -73 -5
-18 -2 -35 9 -52 15 -23 13 -55 -4 -55 -21 0 -27 87 -9 138 12 34 62 72 96 72
13 0 29 -11 39 -25z m-1650 -545 c21 -90 24 -100 33 -100 4 0 5 30 3 66 -3 45
-1 65 6 60 16 -10 27 -83 27 -190 0 -76 3 -100 14 -104 10 -3 12 0 8 13 -4 9
2 37 14 63 28 59 35 37 20 -54 -10 -52 -9 -71 2 -97 8 -17 20 -47 27 -65 18
-47 29 -48 23 -2 -7 49 23 138 40 121 6 -6 11 -50 12 -98 2 -89 10 -133 24
-133 5 0 6 12 3 26 -5 27 16 104 28 104 12 0 20 -41 20 -110 0 -81 19 -119 22
-45 1 28 1 67 0 88 -4 63 52 148 98 147 10 0 4 -11 -17 -30 -38 -34 -40 -40
-14 -33 10 2 40 27 67 54 47 48 89 71 46 26 -12 -13 -22 -26 -22 -30 0 -15 19
-5 61 31 45 40 79 58 79 43 0 -5 -7 -14 -15 -21 -30 -25 -6 -21 39 5 51 30 81
28 124 -6 34 -26 46 -24 26 6 -27 42 16 25 79 -31 47 -43 65 -44 36 -3 -21 31
-21 31 -1 20 11 -6 31 -24 44 -40 26 -32 76 -67 84 -58 3 3 -9 19 -28 36 -35
32 -25 40 21 16 34 -17 41 -33 41 -90 0 -23 7 -60 16 -80 8 -21 13 -46 11 -57
-3 -10 -1 -18 4 -18 10 0 10 -2 14 100 2 41 7 91 13 110 l10 35 1 -39 c1 -34
3 -37 17 -25 35 29 46 68 39 144 -5 45 -3 75 3 79 10 6 17 -16 30 -89 l8 -40
14 25 c9 16 13 52 13 98 -1 41 2 83 7 95 8 21 9 21 9 -5 1 -33 10 -58 22 -58
5 0 9 8 9 19 0 21 41 119 66 157 28 42 27 18 -1 -41 -14 -31 -24 -59 -21 -62
7 -7 56 93 56 116 0 25 10 51 20 51 4 0 5 -12 3 -27 -4 -22 -2 -25 6 -13 9 13
11 12 12 -5 2 -42 -3 -153 -10 -220 -7 -69 -8 -69 -20 -40 -8 17 -14 51 -15
77 0 27 -4 48 -7 48 -16 0 -18 -70 -4 -123 8 -32 15 -76 15 -99 0 -34 -2 -39
-14 -28 -8 6 -25 32 -36 56 -12 24 -24 44 -27 44 -9 0 10 -64 28 -94 23 -38
24 -68 2 -109 l-17 -32 -6 30 -5 30 -12 -30 c-7 -16 -16 -46 -21 -65 l-9 -35
-17 40 c-10 22 -20 52 -23 68 -3 15 -10 27 -15 27 -13 0 -3 -67 21 -145 10
-33 17 -64 14 -68 -9 -15 -63 76 -69 116 -4 20 -11 40 -17 44 -19 12 1 -75 32
-140 17 -35 31 -67 31 -71 0 -5 -16 6 -36 24 -40 34 -58 34 -26 -1 26 -27 38
-77 23 -92 -8 -8 -11 -7 -11 5 0 19 -44 74 -70 88 -13 7 -8 -6 16 -41 34 -51
43 -99 25 -128 -7 -11 -12 -3 -21 28 -6 24 -28 61 -51 86 -36 39 -39 47 -40
101 -1 97 -15 110 -21 19 -6 -86 -3 -98 45 -158 32 -40 42 -116 19 -139 -11
-11 -12 -8 -7 15 10 38 -1 71 -35 111 -17 18 -37 49 -45 67 l-14 34 -1 -37 c0
-27 9 -47 35 -78 40 -48 51 -81 36 -107 -9 -16 -10 -15 -11 10 0 39 -15 33
-28 -10 -6 -21 -25 -54 -41 -73 l-30 -35 5 45 c3 25 1 56 -5 70 -9 24 -10 23
-10 -11 -1 -49 -19 -97 -41 -109 -30 -16 -33 -12 -27 28 3 20 2 53 -2 72 l-9
35 -1 -30 c-2 -51 -21 -105 -37 -105 -8 0 -12 4 -9 10 13 21 -35 203 -50 189
-2 -3 2 -29 10 -59 19 -72 19 -144 0 -160 -12 -10 -15 -9 -16 6 0 11 -6 37
-14 59 l-13 40 0 -56 c1 -57 -6 -79 -22 -79 -19 0 -40 61 -40 117 -1 44 -3 54
-11 41 -12 -21 -15 -101 -4 -118 5 -8 3 -11 -6 -8 -35 12 -49 97 -29 183 8 36
7 38 -5 21 -20 -26 -28 -74 -24 -135 3 -42 1 -51 -12 -51 -23 0 -40 24 -56 78
l-13 47 3 -50 c2 -27 7 -58 12 -68 6 -16 4 -18 -16 -15 -34 4 -61 61 -56 116
4 32 2 41 -6 33 -13 -13 -16 -85 -4 -121 l8 -25 -20 25 c-26 31 -35 77 -29
141 3 30 2 47 -4 41 -5 -5 -12 -36 -15 -68 l-6 -59 -17 40 -17 40 -6 -33 c-7
-36 -23 -35 -37 2 -10 27 1 47 51 93 33 31 41 46 45 83 l4 45 -15 -40 c-16
-41 -115 -144 -115 -119 0 7 20 36 45 64 38 43 45 57 45 93 0 23 -5 49 -10 57
-7 11 -10 2 -10 -33 0 -45 -4 -53 -50 -99 -27 -28 -50 -56 -50 -64 0 -8 -5
-14 -11 -14 -16 0 -2 48 27 93 33 50 14 47 -30 -5 -42 -49 -47 -33 -15 43 29
67 18 73 -18 10 -42 -76 -58 -61 -28 24 8 22 14 56 14 75 -1 32 -1 33 -8 10
-5 -14 -18 -45 -31 -70 -20 -39 -24 -42 -30 -25 -7 19 -2 44 16 90 7 17 6 18
-8 7 -14 -11 -17 -8 -22 22 -4 20 -14 52 -23 73 l-17 38 -5 -34 c-6 -32 -7
-33 -21 -16 -11 13 -15 39 -14 89 2 62 0 68 -12 51 -8 -10 -14 -25 -14 -32 0
-22 -19 -14 -25 10 -4 13 3 42 14 67 22 49 26 87 11 110 -7 12 -10 8 -11 -15
0 -16 -4 -39 -8 -50 -20 -50 -38 210 -20 290 11 49 14 54 16 30 2 -16 11 -59
19 -95z m747 -227 c-7 -2 -19 -2 -25 0 -7 3 -2 5 12 5 14 0 19 -2 13 -5z
m-763 -270 c-1 -10 -7 -101 -14 -203 -14 -195 -9 -285 18 -341 19 -40 270
-291 330 -329 22 -15 103 -88 179 -162 99 -97 137 -140 137 -157 0 -13 -25
-207 -55 -430 -30 -223 -63 -467 -73 -541 -17 -132 -18 -135 -42 -132 -13 1
-25 4 -27 6 -5 4 71 588 111 861 39 263 42 243 -51 322 -31 26 -105 93 -163
148 -174 166 -162 160 -306 160 -146 0 -139 5 -244 -154 -102 -156 -144 -214
-147 -204 -1 4 -10 100 -18 213 -9 113 -21 241 -26 285 l-11 80 86 245 c47
135 91 255 98 267 17 33 52 53 121 68 85 18 97 18 97 -2z m1598 -20 c23 -11
44 -32 54 -53 36 -74 178 -498 178 -531 0 -18 -7 -63 -15 -97 -15 -61 -38
-439 -28 -454 2 -5 0 -8 -4 -8 -11 0 -72 84 -165 225 -94 141 -105 148 -251
142 -129 -4 -107 9 -344 -211 -113 -106 -181 -176 -198 -207 l-25 -47 36 -254
c44 -311 44 -463 0 -663 -31 -139 -44 -185 -55 -185 -5 0 2 40 14 88 30 114
66 357 60 402 -30 216 -41 290 -71 444 -19 98 -32 188 -28 200 9 29 121 143
306 308 87 78 203 190 258 250 138 152 144 177 119 491 -15 180 -11 192 67
184 30 -3 71 -14 92 -24z m-1514 -33 c9 -22 16 -49 16 -61 0 -27 44 -111 95
-185 43 -59 106 -118 155 -144 14 -7 41 -28 61 -45 42 -38 116 -58 181 -49 32
4 53 0 83 -15 47 -25 78 -26 136 -5 24 8 69 17 99 20 53 5 140 44 140 64 0 5
16 16 35 26 95 45 205 183 246 309 l26 80 7 -172 c11 -262 -7 -330 -121 -453
-36 -38 -133 -132 -216 -208 -262 -239 -293 -273 -304 -323 -12 -56 -2 -169
37 -413 16 -106 30 -224 30 -262 -1 -86 -29 -240 -66 -362 l-28 -94 -48 6
c-65 9 -79 16 -74 35 3 9 10 75 16 146 16 198 57 575 85 786 28 214 26 221
-110 345 -48 43 -136 138 -197 211 -72 86 -134 150 -183 187 -41 31 -81 69
-89 84 -13 25 -18 92 -39 490 -3 53 6 54 27 2z m-460 -302 c-3 -13 -22 -63
-42 -113 -41 -104 -41 -103 -19 -260 9 -66 22 -202 28 -303 10 -159 9 -191 -4
-240 -14 -51 -53 -314 -75 -512 -8 -71 -9 -74 -22 -48 -11 23 -8 56 19 241 33
230 36 272 21 282 -16 10 -38 -38 -45 -100 -4 -33 -16 -118 -26 -190 -10 -71
-19 -157 -19 -191 0 -54 4 -66 34 -105 43 -56 47 -77 33 -152 l-11 -62 -7 75
c-8 100 -28 134 -146 264 -75 83 -99 116 -104 144 -3 21 -27 123 -52 227 -25
105 -66 289 -91 410 -26 121 -53 234 -60 251 -10 21 -37 44 -86 73 l-72 43 24
25 c46 50 82 60 248 67 177 9 181 10 270 102 62 63 80 75 130 85 69 14 82 11
74 -13z m2310 -5 c16 -9 52 -38 79 -67 93 -95 89 -93 265 -101 120 -6 165 -12
192 -25 41 -21 90 -71 74 -77 -47 -17 -135 -81 -148 -107 -8 -17 -28 -101 -46
-186 -17 -85 -59 -270 -92 -410 -33 -140 -63 -271 -65 -291 -4 -29 -25 -58
-104 -144 -117 -127 -139 -165 -148 -259 l-7 -71 -11 60 c-12 68 -7 87 39 152
39 54 40 80 8 308 -29 216 -41 270 -60 270 -24 0 -23 -35 10 -262 29 -200 33
-283 11 -283 -4 0 -11 37 -15 82 -12 141 -56 451 -72 503 -13 44 -14 75 -5
219 6 93 18 238 28 323 l17 153 -36 103 c-20 56 -39 110 -44 121 -6 17 -3 18
47 11 30 -4 67 -14 83 -22z m-3012 -343 c77 -46 65 -18 122 -288 21 -96 35
-176 33 -178 -2 -3 -14 24 -27 58 -29 82 -121 300 -132 314 -9 12 -52 10 -144
-7 -60 -11 -78 -28 -159 -149 -31 -47 -59 -87 -62 -90 -6 -6 6 84 18 132 6 24
28 55 67 91 74 72 183 157 201 157 8 0 45 -18 83 -40z m3745 -7 c179 -144 194
-165 207 -278 l7 -60 -64 96 c-87 128 -109 146 -194 154 -38 4 -75 9 -84 11
-9 2 -21 -1 -26 -8 -5 -7 -42 -94 -83 -193 -73 -181 -87 -211 -78 -165 5 25
74 348 83 386 5 22 126 103 156 104 9 0 43 -21 76 -47z m-2623 -326 c7 -187
23 -343 37 -367 12 -21 11 115 -2 344 -6 103 -9 190 -7 192 2 2 20 1 39 -2
l34 -6 0 -263 c0 -145 3 -266 7 -270 23 -24 28 20 28 257 l0 251 53 -50 c28
-27 93 -79 144 -116 114 -84 187 -162 178 -191 -7 -26 -31 -188 -40 -278 -4
-38 -7 -68 -8 -68 -1 0 -38 14 -82 31 -166 64 -236 74 -319 44 -32 -11 -41
-11 -52 0 -38 38 -218 74 -367 75 l-89 0 7 78 c4 42 12 82 19 87 6 6 44 53 83
105 71 96 228 281 263 311 11 9 29 14 43 12 24 -5 24 -5 31 -176z m1585 -27
c53 -63 109 -136 124 -162 15 -26 35 -53 45 -60 13 -9 21 -35 28 -90 l10 -78
-91 0 c-112 0 -212 -14 -290 -40 -81 -27 -89 -34 -90 -71 0 -18 -6 -34 -13
-37 -11 -3 -13 9 -7 64 17 184 79 637 92 674 5 17 38 -17 192 -200z m-223 191
c-14 -22 -96 -615 -96 -692 l0 -37 -72 -6 c-40 -3 -127 -7 -193 -8 l-120 -3
-8 70 c-14 130 -35 280 -41 296 -10 24 60 97 186 192 62 47 135 108 163 136
36 38 57 51 78 51 22 0 27 -4 23 -17 -3 -10 -10 -63 -16 -118 -6 -55 -15 -138
-20 -185 -12 -107 -13 -170 -1 -170 15 0 61 344 61 456 0 42 1 44 31 44 16 0
28 -4 25 -9z m-2487 -89 c30 -33 54 -87 148 -343 61 -167 115 -318 118 -335 4
-20 34 -63 82 -115 113 -125 152 -176 162 -217 5 -20 8 -118 5 -217 -2 -99 -4
-187 -4 -196 0 -12 -118 -219 -136 -238 -2 -2 -14 1 -27 7 -12 7 -41 19 -65
27 -24 8 -56 23 -71 34 -15 11 -39 23 -53 26 -17 4 -25 12 -22 20 6 13 -49 35
-89 35 -13 0 -16 5 -11 25 6 23 4 24 -33 18 -21 -3 -48 -12 -60 -19 -21 -13
-22 -12 -29 21 -3 19 -10 35 -14 35 -4 0 -24 -18 -45 -41 -20 -22 -38 -39 -40
-37 -31 34 -110 140 -122 161 -17 34 -31 27 -71 -42 l-26 -45 -13 30 c-6 16
-12 35 -13 42 0 19 -17 14 -35 -10 -28 -41 -34 -3 -14 90 24 111 65 229 91
265 l20 29 -21 51 c-26 65 -50 177 -52 242 l-1 50 -10 -40 c-11 -47 -3 -156
18 -238 l15 -58 -31 -62 c-16 -34 -40 -107 -51 -162 -12 -55 -34 -127 -50
-160 -15 -33 -33 -84 -40 -112 -7 -29 -18 -53 -25 -53 -26 0 -65 24 -60 37 6
15 -23 33 -54 33 -21 0 -21 3 -15 53 21 168 83 356 166 502 48 85 51 95 61
194 11 122 53 295 96 401 84 205 110 251 168 295 52 40 94 54 158 55 56 0 61
-2 95 -38z m3819 3 c55 -29 106 -101 157 -220 82 -194 118 -329 135 -506 8
-79 15 -107 36 -140 80 -128 149 -309 179 -474 26 -143 30 -375 10 -545 -26
-225 -26 -229 -2 -300 16 -49 22 -87 22 -155 -1 -99 -13 -131 -94 -244 -21
-30 -46 -79 -56 -110 -25 -83 -59 -136 -97 -152 -21 -9 -70 -14 -134 -14 -99
0 -103 1 -147 33 -52 37 -57 38 -57 15 0 -17 -11 -18 -142 -12 -155 7 -221 21
-362 75 -86 33 -129 44 -93 23 33 -19 18 -30 -35 -24 -77 9 -267 43 -311 55
l-37 11 15 29 c21 41 54 60 132 77 37 7 87 25 111 38 51 28 62 31 62 12 0 -8
15 -30 33 -51 l32 -37 46 29 c25 16 62 52 83 80 l37 51 45 -34 c51 -39 107
-58 179 -59 l50 -1 26 52 c15 28 30 76 33 105 l7 53 77 1 c91 1 177 26 196 57
36 56 23 172 -28 263 l-23 41 44 23 c62 33 123 102 123 140 0 75 -67 151 -153
174 -61 16 -185 36 -224 36 -18 0 -24 3 -17 10 7 7 39 5 97 -6 l87 -16 52 57
c64 70 82 94 74 102 -12 12 -67 -21 -105 -63 l-40 -43 -98 19 c-179 35 -376
60 -511 67 -113 5 -134 9 -142 24 -6 9 -11 111 -12 226 -3 249 -6 239 127 387
106 118 125 144 125 170 0 38 113 322 159 400 27 45 60 103 76 130 74 130 172
185 253 141z m-2883 -556 c89 -15 155 -39 155 -55 0 -18 5 -18 -96 11 -87 25
-206 33 -249 16 -18 -7 -17 -9 10 -14 17 -3 53 -8 80 -12 78 -9 246 -67 240
-83 -4 -12 -31 -169 -37 -220 -3 -21 -9 -23 -78 -27 -65 -3 -253 -40 -302 -60
-29 -11 -33 71 -14 250 10 88 20 171 23 185 l5 26 101 -3 c56 -2 129 -8 162
-14z m1989 -6 c26 -131 43 -420 25 -438 -3 -3 -25 2 -50 9 -75 25 -260 58
-301 54 -33 -3 -39 0 -42 17 -2 11 -12 70 -23 131 l-19 111 96 32 c52 17 118
33 145 36 28 4 64 9 80 12 27 5 28 7 10 14 -43 17 -160 9 -246 -16 -46 -13
-87 -25 -91 -25 -16 0 -7 28 10 33 100 32 144 40 252 46 69 4 130 9 137 9 6 1
14 -10 17 -25z m-1534 -57 c173 -64 202 -82 182 -113 -6 -9 -40 0 -130 33
-138 50 -182 54 -261 24 l-54 -21 7 32 c7 39 1 33 56 52 65 22 126 20 200 -7z
m1078 -94 c3 -19 -4 -20 -220 -24 -123 -2 -224 -4 -225 -4 -1 1 -4 12 -8 26
l-6 25 228 -1 c220 -2 228 -2 231 -22z m-1153 8 c3 -5 -3 -56 -14 -113 -23
-119 -61 -361 -61 -388 0 -11 7 -19 15 -19 8 0 15 1 15 3 0 7 61 437 66 470 4
20 10 37 14 37 13 0 205 -71 212 -78 3 -4 0 -38 -7 -77 -7 -38 -27 -153 -45
-255 -18 -102 -34 -187 -36 -188 -4 -5 -117 20 -126 27 -9 8 13 211 23 211 4
0 11 -4 14 -10 11 -18 63 -11 90 13 34 28 38 86 10 117 -16 17 -29 21 -63 18
l-43 -3 5 35 c16 109 18 130 8 130 -15 0 -48 -166 -83 -416 l-12 -91 -86 -6
c-104 -6 -207 -38 -479 -148 -108 -44 -202 -82 -209 -85 -7 -3 -3 11 8 32 10
21 21 54 25 73 5 31 31 141 64 271 8 29 16 37 47 47 21 6 39 11 40 10 2 -3
-16 -107 -33 -189 -16 -73 -15 -108 4 -108 5 0 14 12 20 28 14 34 42 200 42
246 0 22 6 36 16 40 22 8 36 8 30 -2 -4 -7 -43 -177 -61 -268 -4 -23 -2 -33 9
-37 25 -10 31 9 88 279 l10 51 69 12 c37 6 88 11 113 11 25 0 48 5 52 12 4 6
17 72 28 147 l21 134 60 18 c68 20 131 24 140 9z m1067 -270 c6 -180 29 -446
44 -506 l7 -25 -69 5 c-38 3 -107 8 -154 11 -47 3 -133 18 -193 32 -87 21
-106 29 -103 42 29 95 107 507 108 567 l2 74 175 -2 176 -3 7 -195z m44 174
c-10 -27 31 -583 50 -676 3 -16 1 -28 -4 -28 -5 0 -12 26 -16 58 -4 31 -14
113 -22 182 -15 127 -34 469 -27 483 7 13 25 -4 19 -19z m75 -87 c16 -137 16
-137 92 -138 34 0 87 -6 117 -12 51 -11 55 -14 58 -42 4 -40 50 -249 62 -280
6 -16 15 -23 25 -19 8 3 15 10 15 15 0 15 -61 283 -67 292 -3 5 5 7 18 5 18
-2 25 -10 27 -33 5 -58 33 -220 43 -252 6 -18 17 -33 25 -33 17 0 19 48 4 101
-10 37 -39 192 -36 196 1 1 20 -4 41 -12 l40 -13 27 -114 c16 -62 32 -135 38
-163 6 -27 13 -58 16 -67 5 -16 -3 -18 -68 -18 -40 0 -158 -7 -263 -15 -104
-7 -192 -12 -194 -9 -8 8 -40 274 -51 429 -6 83 -15 180 -19 218 -4 37 -6 69
-4 71 2 2 12 2 23 -1 15 -4 20 -22 31 -106z m222 -91 c99 -19 227 -65 227 -82
0 -10 -7 -10 -32 -2 -102 32 -249 67 -285 68 -40 0 -60 10 -46 24 10 10 55 7
136 -8z m-1743 -5 c-12 -7 -121 -24 -145 -23 -2 0 -47 -14 -100 -32 -63 -22
-95 -29 -95 -21 0 14 118 49 230 69 92 17 132 19 110 7z m475 -2 c11 -16 -3
-56 -21 -63 -21 -8 -44 11 -44 35 0 29 51 52 65 28z m-57 -380 c56 -12 63 -19
33 -34 -172 -87 -218 -107 -272 -118 -57 -11 -64 -16 -71 -42 -5 -17 -6 -42
-4 -56 4 -23 -1 -28 -50 -49 -30 -12 -79 -44 -109 -72 l-54 -49 -40 20 c-100
52 -145 63 -275 72 -71 5 -131 11 -133 13 -3 2 6 21 19 41 16 26 39 43 78 59
30 13 114 49 185 80 319 140 504 176 693 135z m-1664 -78 c55 -74 80 -129 69
-157 -8 -23 -20 -16 -26 14 -3 16 -21 47 -39 69 -18 22 -38 49 -44 59 -14 22
-10 26 -57 -53 -20 -33 -37 -70 -37 -82 0 -14 -6 -21 -20 -21 -19 0 -20 4 -14
38 4 20 13 53 21 72 19 48 76 141 84 138 4 -2 32 -36 63 -77z m-224 -28 c0
-54 -19 -60 -47 -14 -27 43 -28 54 -7 87 l17 25 18 -28 c11 -16 19 -46 19 -70z
m56 42 c7 -42 -2 -88 -18 -83 -6 2 -12 22 -13 43 -4 83 17 110 31 40z m2054
-1 c0 -24 -236 -126 -320 -138 -43 -7 -42 -5 36 32 75 37 141 77 154 94 21 28
130 38 130 12z m210 -33 c0 -5 -8 -12 -17 -14 -11 -3 -5 -5 12 -6 28 -2 29 -2
11 -16 -14 -11 -24 -12 -39 -3 -37 19 -127 2 -241 -47 -59 -26 -144 -54 -187
-64 l-79 -17 51 -38 c74 -55 113 -69 200 -70 l77 -1 -20 -38 c-18 -36 -21 -37
-56 -31 -20 4 -55 16 -78 28 -46 23 -254 168 -254 176 0 3 19 4 42 2 61 -6
138 14 272 69 65 28 141 56 170 64 59 16 136 19 136 6z m-1930 -44 c0 -39 -16
-62 -47 -72 -19 -5 -23 -2 -23 16 0 23 44 89 61 89 5 0 9 -15 9 -33z m-600 13
c0 -13 -38 -32 -50 -25 -5 3 -7 12 -3 20 6 16 53 21 53 5z m170 -49 c0 -26
-10 -31 -31 -18 -20 12 -24 33 -12 63 6 15 8 15 25 -6 10 -12 18 -30 18 -39z
m271 -16 c24 -38 24 -73 -1 -105 -11 -14 -20 -32 -21 -40 -1 -8 -5 13 -10 47
-12 93 -30 115 -22 28 l6 -70 -36 40 c-20 22 -36 49 -37 61 0 11 14 42 31 69
l31 49 20 -25 c10 -13 28 -37 39 -54z m269 57 c0 -15 -45 -50 -72 -57 -35 -9
-35 1 -1 37 25 26 73 39 73 20z m-666 -41 c36 -19 37 -20 16 -31 -18 -10 -26
-8 -46 11 -13 12 -21 26 -18 30 7 11 4 12 48 -10z m191 -27 c0 -35 -3 -39 -27
-42 -24 -3 -28 0 -28 20 0 29 28 70 43 65 7 -2 12 -21 12 -43z m2213 31 c38
-11 24 -25 -24 -25 -31 0 -74 -12 -132 -37 -64 -28 -101 -38 -139 -38 -29 0
-53 -1 -53 -3 0 -2 16 -10 35 -18 41 -17 74 -11 188 35 84 33 97 36 97 21 0
-5 -7 -10 -16 -10 -9 0 -47 -14 -84 -30 -38 -17 -89 -33 -114 -36 -26 -4 -43
-11 -39 -17 9 -15 92 -1 156 27 31 14 57 22 57 18 -1 -4 -12 -20 -25 -37 -24
-29 -27 -30 -107 -29 -85 0 -126 14 -187 62 l-24 19 43 7 c23 4 86 25 139 48
124 53 165 61 229 43z m282 -5 c-8 -4 -35 -24 -59 -43 -43 -34 -46 -35 -73
-21 -31 16 -38 2 -9 -18 18 -13 18 -14 -6 -42 -13 -16 -25 -27 -27 -25 -7 11
-46 113 -43 115 2 2 50 12 106 23 57 11 106 23 109 26 3 3 8 2 11 -1 3 -3 -1
-9 -9 -14z m1040 -20 c0 -53 16 -51 24 3 6 35 9 39 17 24 15 -26 1 -74 -33
-113 -33 -37 -31 -43 8 -18 33 22 54 64 54 109 0 31 3 35 25 35 21 0 25 -5 25
-32 0 -27 -11 -43 -60 -90 -55 -51 -57 -56 -29 -46 46 16 103 77 115 123 8 31
12 36 18 22 13 -29 -3 -69 -47 -113 -41 -41 -70 -53 -162 -71 l-40 -7 39 -4
c112 -10 246 85 246 176 0 29 3 32 31 32 l32 0 -5 -49 c-8 -81 -69 -143 -169
-172 -62 -18 -73 -31 -19 -23 122 18 207 95 213 194 1 22 6 40 10 40 17 0 18
-31 3 -83 -20 -70 -82 -129 -157 -151 -64 -19 -104 -20 -189 -1 -36 8 -81 14
-100 14 -19 -1 21 -12 90 -26 149 -31 203 -25 285 32 68 47 97 93 103 161 3
37 9 54 18 54 20 0 18 -100 -1 -148 -54 -127 -190 -159 -453 -108 -218 43
-404 34 -535 -26 -211 -97 -303 -392 -147 -470 47 -24 111 -23 143 2 33 26 45
26 22 0 -65 -72 -231 -26 -277 77 -35 79 -10 172 74 276 118 147 260 204 539
217 138 6 160 9 198 31 52 29 71 63 71 124 0 25 5 45 10 45 6 0 10 -18 10 -40z
m-2982 24 c27 -8 28 -16 3 -31 -15 -9 -28 -10 -53 -1 -43 14 -45 17 -28 28 17
11 45 12 78 4z m1980 -67 c-128 -128 -231 -299 -284 -474 -16 -51 -32 -93 -36
-93 -10 0 38 173 70 249 42 98 104 184 212 294 53 53 100 97 104 97 4 0 -25
-33 -66 -73z m61 6 c-148 -155 -258 -337 -319 -525 -23 -71 -37 -91 -25 -35
44 198 182 440 327 571 85 77 95 70 17 -11z m769 13 c17 -26 32 -59 32 -73 0
-32 -16 -21 -23 16 -4 17 -23 49 -44 72 -29 32 -33 41 -18 38 11 -3 35 -26 53
-53z m52 12 c21 -47 26 -88 10 -88 -5 0 -10 8 -10 18 0 10 -13 39 -30 65 -28
44 -28 47 -9 47 14 0 26 -13 39 -42z m-918 -23 c-80 -73 -152 -164 -201 -256
-33 -62 -52 -116 -107 -298 -3 -8 -7 -12 -10 -9 -2 3 3 40 11 83 41 196 132
350 282 477 87 74 106 75 25 3z m811 17 c44 -45 64 -97 40 -106 -30 -12 -43
-5 -58 32 -9 20 -32 54 -53 75 l-36 37 35 0 c27 0 43 -8 72 -38z m-3551 1 c14
-16 33 -42 43 -60 15 -26 16 -34 6 -47 -12 -14 -18 -11 -57 22 -37 31 -43 43
-44 75 0 45 16 48 52 10z m4296 11 c29 -4 55 -11 58 -16 5 -8 -63 -81 -113
-120 -37 -29 -45 -2 -16 56 23 45 23 49 5 33 -11 -10 -26 -32 -33 -48 -18 -46
-30 -21 -23 50 l7 63 31 -6 c17 -3 55 -8 84 -12z m-4144 -26 c15 -21 14 -23
-22 -43 -55 -32 -71 -12 -31 39 25 32 33 32 53 4z m585 3 c10 -7 -4 -12 -47
-17 -34 -3 -70 -13 -79 -20 -15 -11 0 -13 103 -14 113 0 122 -1 142 -23 l22
-24 -36 -11 c-31 -9 -39 -8 -71 13 -67 46 -147 46 -240 -1 -30 -16 -64 -39
-74 -53 -27 -34 -31 -23 -10 25 21 46 82 102 132 120 40 15 138 17 158 5z
m141 -1 c11 -7 4 -10 -27 -10 -24 0 -43 5 -43 10 0 13 50 13 70 0z m2425 -17
c53 -26 89 -93 50 -93 -8 0 -15 4 -15 9 0 13 -50 71 -61 71 -5 0 2 -17 16 -37
16 -24 21 -41 15 -47 -5 -5 -11 -8 -12 -5 -2 2 -12 18 -24 34 -11 17 -29 45
-38 63 l-17 33 28 -7 c15 -4 42 -13 58 -21z m137 -20 c22 -25 27 -57 8 -60
-10 -2 -20 7 -27 24 l-11 28 -1 -27 c-2 -50 -21 -29 -21 22 0 45 2 50 18 41 9
-5 25 -17 34 -28z m-258 3 c34 -14 76 -59 76 -81 0 -22 -49 -25 -61 -3 -13 24
-68 58 -94 58 -15 0 -11 -5 13 -17 44 -22 71 -61 51 -74 -21 -13 -25 -11 -44
17 -9 14 -36 34 -60 45 -23 10 -50 30 -59 44 l-16 25 80 0 c46 0 95 -6 114
-14z m-2870 -10 c18 -8 41 -24 50 -37 17 -24 22 -99 7 -99 -4 0 -20 17 -34 38
-32 49 -87 76 -136 68 -20 -3 -63 -19 -96 -35 -92 -46 -91 -23 1 29 89 52 147
62 208 36z m4210 -13 c109 -27 177 -72 204 -135 10 -24 8 -29 -33 -67 -24 -22
-67 -52 -97 -67 -29 -14 -54 -28 -56 -29 -2 -2 11 -30 29 -63 31 -61 59 -192
47 -224 -16 -41 -175 -62 -245 -33 -53 22 -64 20 -53 -11 14 -37 12 -93 -5
-153 l-16 -52 -37 6 c-100 17 -143 36 -186 81 -43 44 -44 45 -50 21 -6 -27
-87 -122 -116 -137 -15 -8 -24 1 -58 53 -42 65 -69 125 -75 167 -4 24 -6 25
-65 22 -63 -4 -115 15 -127 46 -4 11 2 13 32 8 93 -16 112 -17 147 -8 28 8 38
8 40 -1 1 -7 13 -41 25 -77 13 -36 28 -85 35 -109 12 -41 36 -69 36 -42 0 7
26 40 59 75 32 35 62 73 66 85 6 20 8 19 36 -19 28 -38 110 -100 133 -100 6 0
24 -7 40 -15 16 -9 31 -14 33 -11 2 2 7 58 10 124 l6 120 40 -14 c45 -16 267
-20 267 -5 0 17 -51 154 -75 202 -13 25 -31 51 -39 58 -21 18 -20 31 2 31 45
0 212 97 212 123 -1 16 -72 69 -140 103 -43 22 -73 29 -138 32 -81 4 -82 5
-65 24 19 22 66 19 177 -9z m-1600 2 c4 -11 -2 -15 -24 -15 -17 0 -30 -4 -30
-10 0 -5 11 -10 25 -10 31 0 33 -16 3 -24 -16 -4 -28 0 -40 15 -25 29 -23 35
15 47 44 14 44 14 51 -3z m-2918 -51 c25 -38 20 -72 -15 -107 -31 -31 -41 -24
-20 14 7 15 6 28 -5 51 -9 17 -16 44 -16 60 0 26 2 28 20 18 11 -6 27 -22 36
-36z m692 26 c9 0 35 -11 56 -24 39 -23 39 -24 17 -35 -18 -10 -31 -9 -66 5
-65 24 -137 15 -178 -23 -18 -17 -40 -28 -49 -26 -25 6 -22 16 10 40 58 43
148 77 180 67 8 -2 21 -4 30 -4z m-424 -25 c27 -13 66 -59 66 -79 0 -4 -17 5
-37 18 -92 59 -164 43 -270 -57 -77 -74 -101 -74 -33 -1 22 24 40 48 40 54 0
16 140 80 173 80 16 0 43 -7 61 -15z m4231 -6 c37 -16 155 -91 155 -99 0 -3
-34 -25 -76 -49 -88 -51 -145 -62 -193 -37 -18 10 -54 20 -81 23 -41 5 -49 9
-53 30 -6 33 30 47 103 39 113 -12 235 -16 210 -7 -47 17 -196 34 -258 29 -53
-4 -63 -2 -68 14 -8 25 2 37 50 60 32 15 56 18 111 14 39 -2 84 -10 100 -17z
m-3410 -8 c44 -11 123 -24 175 -31 147 -17 356 -95 792 -295 279 -129 957
-486 958 -505 0 -10 -827 -171 -1000 -195 -299 -42 -380 -56 -449 -77 -36 -12
-77 -23 -91 -24 -14 -1 -63 -13 -110 -27 -184 -53 -220 -56 -220 -20 0 24 35
45 64 37 18 -4 28 1 45 24 11 17 21 34 21 40 0 5 56 12 124 16 235 12 488 54
697 115 132 38 179 58 179 75 0 23 -22 24 -79 4 -172 -58 -518 -130 -691 -143
-47 -3 -104 -8 -127 -11 -42 -5 -43 -5 -43 25 0 21 5 31 15 31 18 0 21 60 5
91 -8 15 -7 19 5 19 19 0 19 30 1 74 -13 32 -13 35 5 39 10 3 19 9 19 14 0 12
-53 69 -71 76 -11 4 -8 11 14 31 15 14 27 27 27 29 0 3 -27 10 -60 16 -33 7
-60 13 -60 14 0 4 65 159 80 190 7 15 11 29 9 31 -2 3 -32 6 -67 8 -34 1 -62
5 -62 8 0 4 13 19 30 35 34 33 31 45 -12 45 l-30 0 26 34 c14 19 26 37 26 40
0 12 -78 5 -150 -13 -80 -20 -90 -18 -90 28 0 13 7 29 16 35 14 11 14 16 1 47
-7 19 -21 40 -31 48 -15 13 -15 15 1 27 23 17 14 17 108 -5z m955 -37 c87 -65
142 -95 187 -103 23 -4 30 -10 24 -19 -10 -16 -35 -6 -137 55 -40 24 -91 50
-114 58 -54 19 -131 19 -175 1 -40 -17 -48 -30 -9 -16 38 15 126 12 175 -5 23
-9 77 -38 119 -65 43 -27 89 -52 104 -56 25 -6 37 -24 16 -24 -6 0 -50 20 -99
44 -163 82 -265 104 -336 71 l-30 -13 51 -1 c29 -1 82 -10 118 -22 92 -28 290
-129 278 -141 -10 -10 -107 26 -232 86 -41 20 -84 36 -95 35 -11 0 8 -14 45
-32 102 -50 222 -105 252 -116 18 -7 26 -16 22 -24 -4 -11 -39 1 -152 52 -81
37 -194 87 -252 111 -58 24 -107 46 -110 48 -10 8 67 64 134 97 98 50 124 47
216 -21z m790 41 c0 -8 -9 -15 -20 -15 -28 0 -25 -6 16 -42 31 -27 33 -33 19
-41 -14 -7 -26 -1 -57 30 l-40 40 34 21 c41 25 48 26 48 7z m248 -20 c30 -28
34 -37 23 -44 -11 -7 -23 -2 -44 15 -24 20 -39 24 -93 24 -38 0 -64 -4 -64
-11 0 -6 15 -8 43 -4 63 9 149 -41 101 -59 -10 -4 -25 1 -36 10 -13 12 -37 18
-82 18 -37 1 -70 7 -79 15 -22 18 -22 31 1 31 9 0 40 9 67 20 78 30 118 26
163 -15z m1115 -17 c47 -63 27 -194 -37 -243 -89 -68 -228 -74 -294 -12 -25
23 -45 86 -36 111 10 26 24 19 24 -12 0 -18 11 -38 30 -57 27 -25 40 -30 98
-33 52 -2 75 1 102 16 81 44 125 163 81 222 -11 16 -21 32 -21 35 0 15 35 -2
53 -27z m-3533 11 c27 -6 50 -15 50 -20 0 -10 -9 -12 -61 -9 -25 1 -45 -6 -66
-24 -27 -23 -32 -24 -49 -11 -31 23 -1 53 73 74 1 1 25 -4 53 -10z m248 -28
c18 -58 15 -81 -18 -139 -27 -46 -33 -51 -50 -42 -17 9 -18 14 -9 31 11 22 8
122 -5 150 -5 13 0 19 21 27 44 16 49 14 61 -27z m80 -16 c6 -13 8 -26 4 -28
-12 -8 -52 12 -52 25 0 7 -3 24 -7 37 -6 23 -5 23 19 7 14 -9 30 -27 36 -41z
m1506 -5 c-26 -39 -27 -39 -55 -24 -35 18 -38 3 -5 -23 23 -18 23 -19 6 -46
l-18 -28 -31 67 c-17 37 -30 68 -29 70 9 8 79 22 116 23 l42 1 -26 -40z
m-1675 -15 c18 -72 -8 -141 -59 -157 -19 -6 -77 10 -107 29 -33 22 -23 26 15
8 28 -15 34 -15 61 0 36 18 46 49 38 110 -6 43 -1 52 29 54 7 1 17 -19 23 -44z
m3331 -22 c0 -67 -49 -126 -117 -141 -55 -13 -123 0 -145 28 -30 37 -23 55 26
67 38 8 45 7 55 -9 27 -43 116 -5 109 47 -2 14 7 34 22 50 23 24 25 25 37 9 7
-10 13 -33 13 -51z m-3874 13 c45 -45 47 -95 5 -137 -35 -34 -59 -36 -95 -8
-26 21 -35 62 -16 74 6 4 10 -5 10 -20 0 -37 40 -54 75 -31 44 29 30 93 -27
122 -42 22 -81 12 -143 -36 -59 -46 -80 -52 -44 -14 53 59 99 84 152 84 42 0
53 -4 83 -34z m475 -6 c11 -36 10 -44 -8 -68 -26 -34 -47 -38 -81 -15 l-27 18
40 5 c39 5 40 6 41 45 2 53 2 55 14 55 5 0 15 -18 21 -40z m2037 2 c2 -7 -7
-12 -25 -13 l-28 -1 30 -13 c24 -11 27 -15 13 -20 -16 -6 -68 20 -68 34 0 9
51 30 64 27 6 -1 12 -8 14 -14z m-2278 -17 c17 -9 30 -24 30 -34 0 -17 -3 -17
-51 -5 -35 9 -64 11 -90 5 -42 -10 -49 -7 -49 21 0 39 95 47 160 13z m168 13
c17 -17 15 -48 -3 -48 -7 0 -18 7 -23 16 -8 14 -10 14 -25 -1 -48 -48 28 -125
123 -125 70 0 180 -83 197 -148 7 -27 -11 -95 -30 -110 -9 -8 -12 4 -12 53 0
56 -4 68 -31 101 -37 46 -102 81 -166 90 -26 3 -60 15 -76 24 -62 38 -64 144
-4 153 15 2 29 5 33 6 3 0 10 -4 17 -11z m2316 -1 c16 -12 16 -14 2 -26 -13
-11 -22 -11 -45 -1 -23 9 -38 9 -65 0 -44 -14 -48 -32 -4 -20 28 9 78 4 78 -6
0 -2 -9 -13 -21 -25 -16 -16 -23 -18 -34 -9 -9 8 -37 9 -87 4 l-73 -7 50 38
c28 21 61 45 75 52 32 17 101 17 124 0z m346 8 c0 -3 -12 -17 -27 -30 -16 -13
-25 -26 -22 -29 3 -3 25 10 48 30 23 20 43 35 45 33 10 -12 -28 -71 -52 -79
-15 -6 -35 -15 -45 -21 -26 -15 -31 -6 -20 38 6 25 17 42 33 50 27 14 40 16
40 8z m-3103 -20 c41 -29 34 -95 -12 -95 -14 0 -25 5 -25 10 0 6 7 10 15 10
22 0 19 47 -4 60 -32 17 -58 12 -80 -16 -12 -15 -42 -37 -69 -49 -26 -12 -56
-32 -66 -44 -25 -28 -36 -27 -36 3 0 19 8 27 38 37 20 6 64 31 96 55 64 47
105 56 143 29z m3267 -17 c-98 -86 -99 -245 -3 -290 114 -54 249 -7 249 86 0
19 -4 38 -10 41 -6 4 -10 -10 -10 -33 0 -47 -21 -75 -69 -91 -49 -16 -90 -13
-137 8 -55 25 -74 54 -74 114 0 71 41 141 102 173 44 23 44 16 1 -15 -149
-108 -97 -309 67 -260 105 31 124 137 30 158 l-35 8 28 8 c59 16 127 -43 127
-110 0 -16 -9 -44 -20 -62 -30 -49 -73 -68 -160 -68 -63 0 -80 4 -109 24 -97
69 -92 252 8 318 49 33 57 28 15 -9z m-2532 -28 c4 -43 1 -47 -25 -27 -15 10
-16 17 -6 45 14 40 26 34 31 -18z m2280 32 c-12 -30 -46 -82 -53 -82 -8 0 -29
56 -29 76 0 8 7 14 15 14 8 0 15 -5 15 -12 0 -8 6 -6 17 5 23 23 45 22 35 -1z
m803 9 c8 -13 -23 -41 -45 -41 -31 0 -32 18 -3 34 33 18 40 19 48 7z m-895
-51 c0 -22 -8 -57 -17 -78 l-16 -37 -8 45 c-4 25 -10 55 -14 68 -10 32 9 27
23 -5 l11 -28 -1 30 c0 41 1 45 12 45 6 0 10 -18 10 -40z m-431 16 c8 -10 9
-16 1 -21 -17 -11 -11 -24 15 -31 30 -7 31 -15 6 -38 -18 -17 -21 -16 -61 20
l-41 37 28 23 c33 28 37 28 52 10z m994 2 c48 -7 77 -16 77 -24 0 -20 -55 -33
-115 -27 -49 5 -59 3 -80 -17 -28 -26 -32 -66 -11 -95 8 -12 19 -16 31 -11 17
6 17 7 -1 21 -14 10 -16 17 -8 25 13 13 40 4 48 -17 18 -45 -72 -61 -100 -18
-21 33 -12 70 29 108 29 27 35 28 82 23 35 -5 46 -3 35 4 -8 5 -36 10 -61 10
-80 0 -137 -73 -109 -141 7 -16 25 -36 39 -44 l26 -14 -37 -1 c-99 -1 -84 148
21 209 43 25 37 24 134 9z m-633 -88 c0 -50 -34 -135 -50 -125 -5 3 -10 12
-10 18 0 7 -9 30 -19 51 -16 31 -18 42 -8 57 22 35 37 15 37 -49 0 -28 3 -33
10 -22 13 20 13 67 -1 91 -8 17 -7 23 8 34 24 18 33 3 33 -55z m-2575 40 c23
-11 47 -31 52 -43 15 -32 108 -101 166 -122 80 -30 112 -100 67 -145 -26 -26
-45 -25 -64 2 -18 26 -13 36 9 18 12 -10 18 -10 30 0 35 29 5 100 -42 100 -13
0 -39 11 -57 25 -18 13 -52 31 -75 40 -23 8 -63 33 -88 54 -25 22 -62 48 -84
58 -21 10 -39 21 -39 26 0 15 85 6 125 -13z m675 11 c0 -4 -19 -29 -43 -55
-41 -44 -69 -57 -81 -37 -8 12 36 90 54 95 28 7 70 6 70 -3z m3175 -11 c76
-36 113 -84 153 -198 25 -70 27 -84 15 -89 -28 -11 -200 5 -232 21 -19 11 -39
34 -53 62 -11 25 -35 57 -53 71 l-31 25 28 30 27 29 62 -22 c60 -22 102 -55
147 -113 37 -48 33 -25 -4 27 -41 57 -103 103 -156 118 -29 7 -38 14 -34 25 3
9 6 20 6 25 0 16 84 9 125 -11z m-4266 -19 c-7 -2 -37 -26 -65 -53 -56 -53
-64 -57 -64 -29 0 36 129 127 139 98 2 -6 -2 -13 -10 -16z m389 -57 c27 -24
73 -52 103 -64 56 -21 106 -56 96 -66 -3 -4 -25 3 -49 14 -24 11 -59 24 -80
27 -26 5 -45 18 -68 47 -18 22 -57 55 -86 74 -30 19 -54 36 -54 39 0 15 99
-35 138 -71z m2402 67 c23 -7 21 -10 -31 -33 -53 -24 -89 -60 -118 -115 -20
-40 7 -26 36 18 22 34 67 69 88 69 3 0 -3 -17 -14 -38 -19 -37 -111 -112 -138
-112 -16 0 41 147 69 177 36 39 62 47 108 34z m-1834 -30 c-19 -37 -55 -49
-52 -17 3 34 15 46 42 46 24 0 24 -1 10 -29z m-591 -74 c15 -18 33 -40 41 -49
7 -10 26 -18 41 -18 36 -1 116 -37 108 -49 -3 -6 -21 -4 -47 5 -22 7 -62 14
-88 14 -44 0 -50 3 -69 33 -11 17 -42 54 -70 81 -63 62 -59 87 9 45 27 -17 61
-45 75 -62z m514 69 c7 -9 6 -19 -5 -34 l-15 -22 -32 23 c-18 12 -34 23 -37
25 -3 2 3 9 13 16 19 15 61 10 76 -8z m2411 9 c0 -31 -107 -57 -129 -32 -10
13 -6 17 21 25 78 25 108 27 108 7z m418 -14 c16 -45 -6 -57 -33 -18 -24 35
-23 47 5 47 11 0 22 -11 28 -29z m-3688 9 c0 -5 -20 -30 -45 -54 -24 -25 -47
-56 -51 -70 -4 -19 -13 -26 -30 -26 -39 0 -28 26 40 95 61 61 86 78 86 55z
m831 -79 c47 -39 69 -83 69 -135 0 -27 -8 -44 -35 -71 -57 -57 -71 -44 -34 32
37 77 5 145 -102 214 -26 18 -46 36 -43 41 7 11 94 -37 145 -81z m1445 53 c-3
-9 -6 -20 -6 -26 0 -5 -13 -7 -32 -3 l-33 6 28 -24 c22 -19 26 -28 19 -46 -8
-22 -10 -20 -50 33 -23 30 -42 57 -42 60 0 6 37 13 84 15 31 1 37 -2 32 -15z
m319 -22 c-3 -8 -5 -18 -5 -24 0 -7 -4 -7 -12 0 -7 5 -24 13 -38 17 -23 6 -22
5 9 -22 24 -20 32 -35 30 -52 -4 -22 -8 -19 -47 32 -47 63 -48 58 18 79 21 7
51 -14 45 -30z m-2604 -30 c-23 -24 -46 -61 -52 -84 -7 -24 -13 -44 -14 -46
-1 -1 -22 6 -46 17 -35 15 -40 20 -26 26 9 4 24 5 32 1 10 -4 22 8 36 37 26
50 88 112 101 99 5 -5 -8 -26 -31 -50z m278 -7 c30 -35 58 -72 62 -83 7 -17
17 -20 61 -20 66 1 138 -20 132 -37 -4 -10 -15 -10 -52 2 -43 13 -74 12 -139
-4 -19 -4 -23 -1 -23 20 0 44 -20 80 -73 135 -28 28 -45 52 -37 51 8 0 39 -29
69 -64z m787 30 c-39 -35 -76 -46 -76 -22 0 15 69 56 95 56 16 0 13 -6 -19
-34z m2077 -19 c20 -32 27 -56 27 -94 0 -28 -4 -54 -10 -57 -5 -3 -10 3 -10
14 0 11 -7 39 -16 61 l-17 41 -33 -32 c-19 -18 -34 -41 -34 -51 0 -10 -4 -18
-10 -18 -5 0 -10 17 -10 38 0 27 9 48 35 81 19 24 35 48 35 52 0 20 17 6 43
-35z m-254 -65 c-1 -36 -4 -77 -8 -91 l-7 -24 -17 24 c-26 37 -39 94 -28 121
10 26 16 18 24 -31 2 -14 5 4 6 40 1 59 3 63 16 46 10 -13 15 -42 14 -85z
m363 79 c-12 -12 -22 -27 -22 -35 0 -24 -26 -17 -38 10 -10 23 -9 25 16 31 15
3 32 7 37 9 25 8 27 3 7 -15z m-3019 -48 c38 -43 47 -60 47 -90 0 -43 -13 -71
-25 -53 -4 7 -2 18 4 25 6 7 8 16 4 19 -23 23 -48 -21 -32 -57 17 -36 36 -39
86 -15 84 41 190 34 214 -14 6 -12 22 -33 35 -47 l23 -25 -20 -60 c-21 -64
-65 -115 -100 -115 -11 0 -17 5 -14 10 3 6 13 10 21 10 16 0 19 16 4 25 -19
12 -48 -6 -61 -37 -12 -28 -11 -33 6 -42 97 -56 167 -187 120 -226 -8 -7 -17
-26 -21 -44 -5 -31 -8 -33 -78 -45 -63 -11 -77 -11 -103 2 -39 21 -62 47 -40
47 9 0 20 -8 26 -17 9 -17 10 -17 16 0 10 24 -12 47 -45 47 -36 0 -47 -15 -52
-75 -6 -60 -33 -121 -63 -141 -12 -8 -43 -18 -70 -23 -48 -9 -51 -8 -104 33
-37 27 -58 52 -64 73 -11 36 -2 83 14 83 7 0 9 -10 5 -26 -6 -21 -4 -25 11
-22 24 4 28 34 9 63 -17 25 -50 33 -61 15 -11 -18 -25 -11 -25 13 1 31 58 67
87 54 16 -7 22 -21 25 -59 4 -35 15 -64 41 -101 36 -51 40 -71 12 -60 -8 3
-15 14 -15 24 0 23 -25 25 -34 4 -7 -19 27 -55 52 -55 59 0 133 93 140 175 6
71 20 83 71 60 30 -13 58 -16 115 -13 42 2 76 0 76 -3 0 -15 -28 -28 -48 -22
-26 6 -32 -21 -6 -31 25 -9 33 -7 54 14 52 52 -15 208 -101 235 -32 10 -22 45
22 83 24 21 53 61 70 95 25 54 28 57 39 38 9 -17 8 -22 -5 -27 -22 -9 -19 -34
5 -34 23 0 38 44 23 69 -31 51 -168 69 -231 31 -40 -24 -72 -18 -72 13 0 43
-21 97 -55 142 -41 53 -42 57 -12 53 14 -2 22 -10 22 -23 0 -24 28 -27 33 -4
4 24 -25 49 -58 49 -16 0 -42 -11 -58 -25 -40 -33 -82 -119 -82 -166 0 -50
-19 -65 -59 -44 -17 8 -51 18 -77 22 l-46 6 7 46 c4 25 9 48 11 50 6 6 63 -20
75 -35 18 -22 2 -30 -20 -10 -21 19 -35 8 -25 -18 8 -21 52 -32 73 -19 10 6
19 32 23 66 8 62 34 122 68 152 19 17 99 35 136 31 6 0 32 -25 57 -54z m725
45 c14 -16 5 -29 -30 -44 -22 -10 -29 -9 -42 6 -21 23 -20 30 7 41 32 13 53
12 65 -3z m1546 -19 c15 -21 14 -22 -22 -38 -20 -10 -38 -16 -40 -15 -6 5 29
75 38 75 5 0 16 -10 24 -22z m1245 1 l29 -21 -33 -29 c-18 -16 -40 -47 -49
-68 -16 -41 -23 -45 -93 -56 -45 -7 -61 8 -20 19 49 12 107 94 107 153 0 9 10
17 28 22 2 1 16 -9 31 -20z m-3082 -21 c58 -27 86 -69 86 -126 0 -38 -5 -50
-31 -74 -51 -45 -122 -35 -143 19 -17 44 21 107 52 87 5 -3 -1 -14 -13 -24
-19 -15 -21 -22 -13 -46 8 -24 17 -30 46 -32 46 -4 74 25 74 78 0 50 -40 93
-106 115 -59 20 -78 40 -28 30 19 -4 53 -16 76 -27z m2613 7 c0 -15 6 -38 14
-53 7 -15 16 -58 20 -97 4 -38 9 -85 12 -102 4 -18 2 -33 -2 -33 -16 0 -37 74
-35 125 1 35 -5 62 -20 91 -15 28 -20 49 -15 67 8 34 26 35 26 2z m799 -24
c51 -51 65 -115 55 -241 -7 -100 -6 -99 -79 -62 -87 43 -118 89 -130 187 -4
33 -13 72 -20 87 -12 26 -11 27 16 33 16 4 33 4 39 0 14 -9 76 -124 90 -167
18 -59 30 -54 16 6 -7 30 -28 80 -46 112 -30 54 -31 58 -14 71 26 19 30 17 73
-26z m-2902 -3 c-61 -149 -82 -190 -108 -209 -40 -28 -58 -14 -26 20 14 14 28
37 32 51 4 14 16 40 26 58 11 19 17 37 15 40 -2 4 -46 4 -98 1 -86 -5 -101 -2
-99 18 2 18 72 32 165 32 75 1 97 -2 93 -11z m2647 -50 c-4 -35 -13 -83 -20
-108 -22 -74 -15 -90 11 -24 13 34 26 87 30 118 9 66 17 76 34 38 40 -87 19
-182 -60 -267 l-42 -46 -33 83 c-37 92 -40 123 -20 172 13 30 80 96 99 96 4 0
5 -28 1 -62z m-1264 10 c0 -4 -15 -5 -32 -2 -32 5 -32 5 -10 -8 24 -15 20 -28
-7 -28 -16 1 -67 38 -60 43 2 2 22 10 44 18 36 14 41 14 52 0 7 -9 13 -19 13
-23z m678 9 c2 -12 -3 -17 -17 -17 -12 0 -21 6 -21 13 0 31 32 34 38 4z m-539
-24 c-21 -40 -27 -147 -9 -158 6 -4 10 17 10 54 0 34 4 61 10 61 11 0 12 -11
14 -131 1 -94 -9 -94 -58 4 -43 84 -41 114 6 171 38 47 51 46 27 -1z m421 -17
c0 -22 -8 -40 -25 -56 -23 -22 -25 -22 -26 -4 -2 36 3 59 17 82 19 29 34 20
34 -22z m-2977 -20 c30 -48 47 -138 28 -150 -7 -5 -11 3 -11 23 0 69 -47 116
-76 76 -15 -20 -10 -35 12 -35 8 0 14 8 14 18 1 15 2 15 15 -2 15 -20 21 -116
7 -116 -4 0 -12 10 -17 22 -6 12 -19 26 -30 32 -28 15 -35 27 -35 60 0 28 44
116 58 116 4 0 20 -20 35 -44z m931 12 c-29 -95 -68 -130 -133 -121 l-44 6 34
18 c19 9 48 32 64 50 31 33 22 31 -30 -7 -16 -12 -40 -27 -53 -33 l-22 -12 20
33 c11 18 20 43 20 55 0 27 11 31 88 32 61 1 63 0 56 -21z m2191 -13 c0 -26
-52 -35 -62 -10 -7 20 14 36 42 33 12 -2 20 -11 20 -23z m-642 -5 c-4 -15 -11
-18 -37 -13 -29 5 -30 4 -12 -9 18 -14 18 -15 -5 -21 -18 -5 -28 -1 -41 16 -9
12 -15 23 -13 25 2 2 25 7 52 12 26 4 51 8 55 9 3 0 4 -8 1 -19z m396 -16 c17
-14 31 -31 31 -38 0 -20 -44 -55 -78 -62 -28 -6 -33 -3 -42 20 -14 37 -14 36
18 30 19 -4 32 -1 41 10 16 19 4 39 -20 33 -18 -5 -26 12 -12 26 12 13 31 7
62 -19z m-513 -16 c17 -19 17 -21 2 -15 -28 10 -21 -9 15 -38 17 -15 28 -25
22 -23 -27 10 -125 63 -125 68 0 3 15 11 33 17 17 5 32 11 33 12 0 0 9 -9 20
-21z m936 -96 c16 -101 16 -112 -6 -112 -9 0 -18 27 -26 83 -6 45 -14 94 -17
109 -4 23 -2 26 14 22 16 -5 22 -22 35 -102z m-182 75 c0 -6 -13 -18 -30 -25
-16 -8 -44 -28 -62 -46 -28 -28 -37 -31 -61 -25 -16 4 -35 5 -42 2 -8 -3 -2
18 16 51 l31 56 74 0 c53 0 74 -4 74 -13z m-640 -29 c0 -17 -3 -19 -12 -10
-25 25 -31 11 -7 -15 14 -16 32 -37 40 -47 13 -18 13 -19 -8 -8 -25 14 -73 73
-73 90 0 7 14 12 30 12 24 0 30 -4 30 -22z m650 -19 c0 -12 -67 -42 -83 -36
-13 4 51 47 71 47 6 0 12 -5 12 -11z m-2461 -40 c34 -47 50 -121 31 -144 -18
-22 -30 -18 -30 10 0 32 -31 94 -59 119 -20 18 -20 20 -4 37 25 25 29 24 62
-22z m1956 -3 c17 -35 75 -97 75 -80 0 6 -11 25 -25 44 -35 47 -31 53 15 23
33 -22 40 -32 40 -59 0 -18 5 -45 10 -59 l10 -27 -52 30 c-65 38 -88 66 -95
120 -7 51 1 53 22 8z m777 15 c13 -12 28 -85 19 -94 -20 -20 -49 5 -69 59
l-20 55 31 -6 c18 -4 35 -10 39 -14z m-2352 -8 c9 -8 -41 -43 -62 -43 -11 0
-31 9 -44 19 -23 18 -24 20 -7 30 17 10 101 6 113 -6z m2448 -14 c3 -24 -22
-58 -34 -47 -3 3 -8 22 -11 43 -6 34 -4 37 18 33 17 -2 25 -10 27 -29z m-3206
13 c39 -16 -69 -152 -121 -152 -9 0 -3 8 16 20 52 31 69 81 35 99 -24 13 -47
-2 -38 -24 5 -14 9 -15 21 -5 12 10 15 10 15 -3 0 -15 -54 -67 -70 -67 -5 0
-17 -3 -27 -7 -16 -6 -17 -5 -4 11 8 10 17 36 20 58 5 34 12 44 41 59 35 19
81 23 112 11z m597 -17 c130 -65 176 -225 104 -357 l-26 -48 -64 0 c-34 0 -63
2 -63 4 0 2 15 13 33 24 35 20 87 108 87 146 0 45 -23 99 -58 138 -41 46 -126
98 -160 98 -13 0 -20 4 -17 10 12 20 113 11 164 -15z m2256 16 c11 -20 -77
-55 -95 -37 -7 7 2 15 32 28 51 20 55 21 63 9z m-3351 -24 c22 -12 42 -29 44
-37 4 -11 -1 -10 -17 4 -28 25 -99 28 -114 4 -15 -23 9 -54 29 -37 11 9 11 15
3 25 -18 22 30 18 69 -6 32 -20 45 -44 17 -34 -8 3 -29 -1 -46 -10 -43 -21
-52 -20 -87 9 -29 24 -32 43 -17 93 7 20 76 14 119 -11z m134 1 c18 -18 14
-34 -12 -46 -28 -12 -36 -7 -36 23 0 35 24 47 48 23z m536 -84 c-14 -43 -32
-86 -40 -95 -13 -15 -11 -22 15 -65 32 -54 48 -119 31 -129 -5 -3 -12 0 -14 7
-2 7 -9 31 -15 53 -6 22 -27 58 -46 80 -30 32 -34 40 -20 47 33 19 64 63 75
107 15 61 32 99 37 85 2 -5 -8 -46 -23 -90z m63 15 c-4 -44 -14 -84 -26 -105
-18 -30 -19 -37 -7 -66 20 -47 31 -128 18 -128 -10 0 -32 59 -32 85 0 6 -11
27 -25 48 -23 33 -24 39 -11 59 8 13 24 55 37 93 26 82 27 85 41 85 7 0 9 -23
5 -71z m37 19 c4 -35 1 -73 -9 -111 -12 -46 -13 -67 -4 -95 12 -43 9 -114 -6
-119 -6 -2 -11 15 -13 40 -1 23 -8 61 -16 84 -13 38 -13 45 5 79 13 27 19 59
19 106 0 81 15 90 24 16z m274 -2 c57 -38 89 -84 97 -140 11 -72 -34 -153
-102 -182 -71 -30 -118 -7 -134 65 -11 49 -5 67 10 28 6 -14 21 -33 35 -42 47
-31 126 15 143 84 17 66 -47 173 -111 187 -31 7 -46 19 -46 41 0 17 50 -2 108
-41z m-739 30 c9 -11 10 -20 1 -35 -12 -24 -19 -25 -42 -7 -21 16 -23 27 -6
44 16 16 33 15 47 -2z m2890 -1 c26 -13 111 -104 111 -119 0 -10 -87 -7 -117
5 -27 10 -113 86 -113 100 0 20 92 -21 133 -59 15 -14 27 -21 27 -15 0 15 -67
73 -104 89 l-31 13 33 1 c18 0 46 -7 61 -15z m-2368 -49 c22 -49 24 -88 5
-124 -24 -46 -34 -125 -24 -196 10 -72 -4 -116 -41 -136 -45 -24 -100 7 -86
49 8 26 25 27 25 2 0 -24 32 -36 60 -21 25 14 35 52 20 80 -8 15 -10 41 -6 72
4 26 2 66 -4 89 -8 30 -8 50 1 77 7 20 12 65 12 99 -1 70 9 73 38 9z m2169 5
c22 -44 68 -101 81 -101 5 0 -9 28 -31 62 -41 63 -47 78 -30 78 23 0 120 -153
120 -190 0 -16 -138 57 -154 83 -19 29 -33 123 -17 113 6 -4 20 -24 31 -45z
m404 42 c3 -4 -15 -15 -41 -25 -41 -15 -49 -16 -62 -4 -12 13 -9 16 20 24 42
12 73 14 83 5z m-2117 -37 c15 -13 25 -27 22 -31 -14 -14 -78 8 -94 31 -15 23
-15 24 14 24 17 0 42 -10 58 -24z m2428 0 c-19 -29 -49 -42 -132 -56 -150 -26
-243 -91 -243 -169 0 -26 -10 -31 -38 -20 l-23 9 20 37 c21 42 44 67 109 118
41 33 60 39 206 65 33 5 69 17 80 25 31 21 38 18 21 -9z m-3462 -35 c8 -6 19
-29 26 -52 11 -38 11 -44 -13 -80 -30 -44 -62 -56 -115 -43 -27 7 -40 18 -53
44 -9 19 -17 45 -18 58 0 27 37 81 64 91 23 9 90 -2 109 -18z m772 7 c33 -26
55 -75 55 -124 0 -28 -8 -44 -34 -70 -39 -39 -67 -43 -96 -14 -21 21 -27 65
-10 75 6 3 10 1 10 -6 0 -18 31 -49 48 -49 28 0 52 32 52 67 0 40 -45 93 -79
93 -16 0 -21 6 -21 25 0 32 36 34 75 3z m2385 -3 c0 -29 -25 -34 -56 -10 -16
13 -17 16 -4 25 8 5 25 10 38 10 17 0 22 -6 22 -25z m340 5 c0 -24 -26 -63
-52 -76 -15 -8 -61 -21 -102 -29 -41 -7 -88 -21 -104 -29 -35 -18 -70 -59 -78
-93 -7 -26 -24 -31 -24 -8 0 26 27 71 59 98 33 27 66 40 152 57 31 6 65 18 75
26 11 9 14 13 7 10 -6 -3 -48 -13 -94 -22 -129 -24 -184 -60 -213 -139 -14
-39 -15 -39 -15 -10 -2 84 90 147 250 170 25 4 63 17 85 30 44 26 54 29 54 15z
m-3807 -80 c3 -13 -2 -25 -16 -35 -21 -15 -23 -14 -33 12 -6 15 -14 40 -18 55
l-6 27 34 -20 c19 -11 36 -29 39 -39z m1334 38 c20 -22 40 -78 28 -78 -18 0
-44 23 -49 44 -3 13 -9 31 -12 40 -9 23 9 20 33 -6z m-1231 -14 c-3 -9 -6 -22
-6 -30 0 -19 -34 -18 -50 1 -19 23 -4 45 31 45 24 0 30 -3 25 -16z m946 -31
c22 -20 24 -61 2 -70 -18 -7 -35 14 -27 34 8 21 -41 16 -62 -7 -22 -25 -17
-120 8 -148 21 -23 22 -34 1 -30 -18 3 -54 98 -54 141 0 20 11 40 34 63 37 37
69 43 98 17z m2338 8 c0 -5 -9 -19 -20 -32 l-19 -24 -1 27 c0 23 10 35 33 37
4 1 7 -3 7 -8z m-2955 -31 c0 -20 -6 -26 -27 -28 -25 -3 -28 0 -28 28 0 28 3
31 28 28 21 -2 27 -8 27 -28z m2842 8 c6 -7 15 -32 21 -56 9 -38 8 -43 -6 -40
-21 4 -56 73 -48 93 7 18 20 19 33 3z m55 -24 c13 -48 -2 -64 -18 -19 -17 49
-17 58 -2 53 7 -3 16 -18 20 -34z m-3282 -12 c0 -8 -14 -16 -62 -40 -5 -2 -8
1 -8 7 0 6 12 17 28 25 31 18 42 19 42 8z m1298 -17 c14 -30 16 -65 4 -65 -18
0 -32 26 -32 57 0 39 12 43 28 8z m-1264 -19 c-8 -14 -14 -37 -12 -52 2 -19
-4 -31 -19 -41 -22 -15 -23 -14 -23 15 0 18 -6 32 -16 36 -15 6 -15 8 2 27 19
22 49 37 72 38 9 1 8 -6 -4 -23z m434 -4 c19 -12 62 -79 62 -96 0 -3 -20 -8
-45 -12 -53 -7 -121 14 -151 48 l-19 20 40 -21 c50 -26 77 -27 100 -1 15 16
15 22 5 35 -15 18 -40 20 -40 2 0 -7 6 -19 13 -26 19 -21 -56 -7 -87 16 -34
25 -32 33 8 33 18 0 39 6 46 14 12 16 30 12 68 -12z m2614 -98 c20 -60 53
-197 73 -304 56 -296 112 -525 114 -465 1 11 -3 36 -9 54 -5 19 -24 130 -41
245 -37 254 -51 323 -89 444 -17 51 -30 94 -30 97 0 11 34 3 107 -26 95 -38
286 -93 374 -109 90 -16 99 -19 99 -39 0 -22 89 -286 126 -374 15 -34 30 -73
35 -86 5 -13 12 -22 15 -19 6 7 -117 455 -132 480 -3 4 6 8 20 8 15 0 30 -8
36 -20 6 -11 43 -113 81 -227 39 -114 79 -223 89 -242 21 -39 27 -29 9 16 -6
15 -37 118 -69 228 -31 110 -61 208 -65 218 -7 18 -3 19 71 12 43 -4 97 -14
119 -22 33 -12 190 -43 216 -43 9 0 106 -290 118 -355 4 -24 5 -48 2 -53 -11
-18 -224 -119 -434 -206 -195 -81 -227 -92 -227 -82 0 9 -200 641 -210 664
-10 23 -30 30 -30 10 0 -6 45 -166 100 -355 55 -189 98 -348 95 -353 -15 -25
-32 -4 -52 68 -37 130 -225 672 -234 672 -4 0 3 -33 17 -72 49 -142 204 -692
196 -699 -4 -4 -90 -45 -192 -92 -102 -47 -288 -135 -415 -196 -157 -74 -232
-106 -236 -98 -18 32 -121 657 -174 1045 -19 145 -36 268 -38 274 -2 9 387 97
434 98 12 0 24 -30 49 -127 127 -498 212 -803 223 -803 5 0 6 8 3 18 -3 9 -24
100 -46 202 -23 102 -70 304 -105 449 -36 145 -62 267 -59 273 14 23 31 -6 66
-108z m-2962 50 c0 -7 -8 -18 -18 -23 -33 -18 -58 29 -30 57 9 9 16 8 30 -5
10 -9 18 -22 18 -29z m165 -4 c6 -20 -9 -50 -26 -50 -12 0 -39 30 -39 45 0 12
17 21 47 24 6 0 15 -8 18 -19z m581 -129 c-6 -64 -28 -99 -79 -124 -31 -16
-43 -17 -71 -7 -62 20 -88 98 -46 140 24 24 72 26 90 5 17 -20 5 -32 -15 -15
-25 21 -65 -2 -65 -37 0 -34 8 -46 37 -62 31 -16 69 -4 99 32 25 30 26 36 22
117 l-5 85 19 -40 c14 -29 17 -54 14 -94z m408 113 c9 -24 7 -52 -5 -60 -19
-11 -31 12 -24 45 7 34 19 40 29 15z m-1043 -61 c29 -8 26 -75 -7 -131 l-27
-45 -18 24 c-34 44 -49 87 -48 136 l0 48 14 -49 c15 -57 38 -80 66 -65 11 5
19 16 19 24 0 23 -22 29 -36 10 -12 -17 -14 -16 -24 9 -11 31 -13 67 -4 91 5
13 10 10 26 -16 10 -17 28 -33 39 -36z m2208 -50 c6 -38 25 -153 42 -258 16
-104 46 -266 65 -360 97 -470 114 -550 114 -556 0 -4 -73 -10 -162 -14 -90 -4
-173 -11 -186 -16 -13 -5 -28 -23 -34 -39 -11 -34 -3 -33 -180 -14 -67 7 -177
58 -173 81 38 191 67 457 84 768 5 88 19 217 32 287 l22 127 71 11 c39 7 109
20 156 30 141 30 136 31 149 -47z m-1501 -16 c5 -52 -14 -111 -47 -146 -28
-30 -31 -31 -119 -31 -110 0 -131 16 -27 22 66 3 78 7 106 33 38 36 59 82 59
131 0 47 24 41 28 -9z m42 -24 c0 -32 -5 -75 -11 -95 -8 -31 -15 -38 -34 -38
l-25 0 19 38 c11 20 23 63 26 95 4 31 11 57 16 57 5 0 9 -26 9 -57z m129 41
c2 -2 -21 -4 -52 -4 -31 0 -57 4 -57 10 0 8 99 3 109 -6z m111 0 c0 -12 -21
-44 -29 -44 -12 0 -23 29 -15 41 6 10 44 13 44 3z m-96 -60 c-37 -29 -44 -30
-44 -1 0 17 8 25 33 32 42 13 47 -1 11 -31z m846 37 c0 -5 -7 -69 -15 -143 -7
-73 -19 -232 -25 -353 -14 -314 -35 -557 -49 -581 -4 -8 -36 0 -104 27 -54 22
-167 60 -250 86 -84 25 -153 47 -155 49 -2 1 13 60 32 131 65 234 156 629 156
670 -1 32 -16 -6 -35 -87 -34 -150 -187 -675 -199 -688 -11 -11 -30 -10 -110
6 -53 11 -99 21 -101 24 -2 2 14 89 35 194 49 239 82 435 76 442 -3 3 -8 -1
-10 -9 -14 -40 -61 -228 -102 -409 -25 -113 -48 -207 -50 -209 -6 -6 -164 21
-164 28 0 4 23 92 51 197 49 181 89 353 89 383 0 44 -26 -27 -84 -229 -89
-314 -101 -346 -123 -342 -10 2 -62 14 -115 28 -53 13 -106 24 -117 24 -11 0
-22 3 -25 8 -8 14 75 529 87 538 4 3 297 12 297 9 0 -12 -62 -210 -112 -358
-33 -98 -57 -181 -54 -184 12 -12 76 148 139 347 62 195 67 205 94 212 64 17
285 68 292 68 4 0 -12 -73 -36 -162 -85 -318 -114 -438 -111 -456 3 -11 8 -6
15 18 10 33 126 428 162 555 17 56 20 61 57 72 65 19 75 17 63 -14 -12 -31
-132 -529 -150 -621 -6 -34 -9 -65 -6 -68 3 -3 24 75 47 173 34 143 153 550
164 561 9 8 178 44 266 56 128 17 180 19 180 7z m-938 -28 c10 -9 18 -29 18
-45 0 -25 -4 -28 -31 -28 -24 0 -30 3 -25 16 3 9 6 29 6 45 0 33 6 36 32 12z
m-577 -53 c22 0 65 7 95 15 66 18 60 17 60 6 0 -12 -127 -41 -180 -41 -34 0
-42 -4 -50 -24 -5 -14 -19 -30 -31 -37 -20 -10 -21 -9 -14 7 6 17 21 59 31 92
3 11 8 10 26 -2 12 -9 41 -16 63 -16z m170 -10 c9 -14 -49 -40 -89 -40 -56 0
-50 17 12 33 72 19 70 19 77 7z m3773 -609 c36 -181 38 -201 17 -240 -15 -30
-25 -36 -179 -101 -54 -23 -227 -104 -385 -180 -297 -143 -354 -168 -661 -293
-102 -41 -225 -94 -274 -116 -49 -23 -92 -38 -96 -34 -4 4 -12 33 -18 63 -43
209 -62 304 -62 312 0 5 62 39 138 75 503 240 1451 671 1478 672 6 1 24 -69
42 -158z m-3688 -132 c58 -16 173 -41 255 -55 300 -50 555 -118 800 -212 88
-33 100 -41 103 -63 2 -20 -34 -209 -73 -377 -5 -21 -7 -21 -33 -8 -98 50
-322 113 -627 176 -238 49 -368 81 -493 121 -51 16 -102 29 -113 29 -19 0 -21
4 -15 38 3 20 15 102 26 182 32 224 29 213 48 205 9 -4 64 -20 122 -36z m3550
-296 c0 -13 12 -83 26 -154 15 -71 25 -131 23 -133 -23 -17 -205 -102 -282
-130 -277 -103 -428 -99 -551 14 -25 24 -46 45 -46 49 0 3 21 14 48 25 26 10
175 80 332 156 373 180 434 208 443 203 4 -2 7 -16 7 -30z m-1587 -99 c2 -14
0 -27 -7 -29 -23 -8 -170 -25 -216 -25 -81 0 -79 4 -74 -128 3 -64 7 -128 10
-140 l5 -24 175 4 c162 3 175 2 180 -16 3 -10 2 -22 -3 -27 -12 -12 -264 -39
-362 -39 l-74 0 6 206 c3 114 9 210 14 214 4 5 73 12 153 18 80 5 155 10 166
10 16 2 23 -5 27 -24z m-728 -3 c12 -21 118 -50 220 -62 l108 -12 -7 -66 c-3
-36 -6 -90 -6 -120 l0 -54 -106 6 c-125 8 -284 42 -284 62 0 7 9 57 20 110 11
53 20 108 20 121 0 24 23 33 35 15z m748 -92 c6 -23 2 -25 -73 -34 -80 -9
-102 -26 -98 -78 l3 -42 96 3 c79 2 98 0 102 -12 10 -25 -12 -30 -155 -34
l-138 -4 0 49 c0 28 -3 70 -6 95 l-6 44 113 13 c62 7 115 14 118 17 12 12 39
2 44 -17z m-1603 -89 c338 -71 500 -113 500 -129 0 -13 -95 -51 -174 -69 -56
-13 -129 -16 -348 -17 -172 0 -281 4 -287 10 -6 6 -4 46 5 110 20 147 23 157
42 151 10 -3 127 -28 262 -56z m1615 9 c11 -16 2 -19 -74 -28 -55 -5 -71 -4
-71 6 0 14 23 21 85 26 22 2 43 4 47 5 4 1 10 -3 13 -9z m1625 -91 c0 -19 -19
-32 -108 -75 -183 -89 -362 -133 -543 -133 -152 0 -241 40 -307 140 -28 42
-29 46 -12 54 16 7 29 -2 69 -46 103 -113 258 -145 453 -94 109 28 257 85 363
139 39 20 73 36 78 37 4 0 7 -10 7 -22z m-2646 -79 c20 -19 -38 -60 -119 -84
-148 -45 -267 -58 -495 -51 -230 7 -300 13 -300 30 0 8 85 11 297 11 249 0
309 3 366 18 87 22 161 53 183 78 17 19 47 18 68 -2z"/>
<path d="M4229 7267 c36 -37 67 -65 69 -62 7 7 -7 22 -70 76 l-63 53 64 -67z"/>
<path d="M4559 7224 c39 -65 39 -79 0 -34 l-31 35 19 -33 c21 -39 43 -61 43
-43 0 7 5 9 10 6 6 -3 10 -3 10 0 0 12 -51 93 -67 106 -9 8 -2 -9 16 -37z"/>
<path d="M4347 6963 l-78 -25 -63 21 c-75 25 -155 27 -222 5 -77 -26 -89 -46
-14 -24 61 18 160 14 213 -9 64 -28 108 -26 198 5 68 24 82 26 179 19 109 -7
125 3 38 24 -73 17 -164 12 -251 -16z"/>
<path d="M3945 6881 c-15 -8 -9 -10 30 -10 28 -1 88 -15 135 -31 99 -35 96
-34 81 -16 -34 40 -199 78 -246 57z"/>
<path d="M4488 6876 c-46 -12 -118 -54 -118 -68 0 -11 2 -11 73 22 36 17 88
35 116 39 28 4 54 11 58 15 11 11 -80 5 -129 -8z"/>
<path d="M3718 6716 c-43 -16 -88 -43 -88 -54 1 -14 95 -53 125 -51 17 1 41
-3 54 -8 23 -9 22 -10 -20 -21 -53 -13 -123 -41 -117 -47 2 -2 33 5 68 16 36
11 76 18 90 17 18 -3 9 -8 -33 -18 -32 -7 -65 -19 -74 -25 -15 -11 -13 -14 12
-31 23 -15 48 -19 120 -19 89 0 253 19 264 31 3 3 -10 19 -29 35 -40 33 -38
34 21 14 75 -27 74 -23 74 -214 0 -113 3 -167 10 -160 6 6 9 57 7 122 -1 62 3
134 9 160 10 41 9 51 -5 66 -19 21 -20 31 -3 31 23 0 59 46 55 71 -2 18 -18
27 -90 50 -56 17 -100 26 -120 23 -18 -3 -60 2 -93 10 -72 19 -186 20 -237 2z
m163 -53 c42 -59 44 -63 29 -63 -7 0 -25 14 -41 31 -29 31 -54 35 -30 5 22
-26 -33 -13 -81 20 l-43 29 33 3 c18 2 30 8 27 13 -4 5 11 9 32 9 35 0 43 -5
74 -47z m50 30 c19 -9 46 -26 61 -39 28 -23 85 -41 95 -30 4 3 -12 14 -35 23
-42 16 -56 33 -27 33 8 0 15 -4 15 -10 0 -6 18 -7 47 -3 38 5 45 4 41 -8 -4
-11 3 -13 33 -11 23 3 46 -1 55 -9 14 -12 14 -14 -2 -26 -10 -7 -33 -13 -51
-13 -18 0 -33 -5 -33 -11 0 -7 -10 -9 -27 -5 -16 3 -56 12 -91 19 -43 10 -72
23 -93 43 -63 59 -57 81 12 47z m-201 -43 c14 -11 20 -20 13 -20 -18 0 -63 22
-63 32 0 14 24 8 50 -12z m200 -120 c11 0 20 7 20 15 0 8 7 15 15 15 18 0 19
-12 3 -28 -16 -16 -73 -15 -87 2 -9 11 -9 15 1 19 7 2 17 -2 21 -9 4 -8 17
-14 27 -14z m104 11 c3 -5 -1 -12 -10 -15 -22 -9 -24 -8 -24 9 0 16 25 21 34
6z m-177 -17 c2 -6 -10 -8 -32 -6 -19 2 -32 8 -29 14 8 12 56 6 61 -8z m223
-5 c0 -5 -7 -9 -15 -9 -15 0 -20 12 -9 23 8 8 24 -1 24 -14z m-235 -20 c49 -8
49 -8 -17 -5 -41 1 -73 7 -80 15 -11 11 -8 12 17 6 17 -4 53 -11 80 -16z"/>
<path d="M4625 6714 c-27 -8 -66 -12 -86 -9 -25 3 -63 -4 -120 -24 -68 -23
-85 -33 -87 -51 -4 -24 33 -70 55 -70 17 0 16 -8 -3 -27 -12 -13 -14 -26 -7
-67 4 -28 7 -94 5 -146 -1 -52 1 -108 6 -125 12 -40 27 201 17 267 -6 41 -4
47 20 66 26 21 95 46 103 38 2 -2 -10 -12 -27 -22 -44 -26 -39 -42 17 -49 26
-3 71 -10 101 -15 121 -22 246 -4 258 36 2 7 -33 21 -89 34 -51 13 -88 25 -83
27 6 1 55 -8 110 -21 55 -14 102 -23 104 -21 5 6 -67 34 -117 47 -37 9 -41 13
-26 21 10 6 35 9 57 9 41 -2 132 42 121 59 -3 5 -24 19 -47 31 -54 28 -207 35
-282 12z m115 -31 c-68 -32 -52 -41 21 -13 55 20 131 28 114 11 -22 -20 -89
-50 -95 -42 -3 5 -32 -2 -65 -15 -69 -28 -98 -25 -70 6 30 33 9 35 -32 2 -46
-36 -186 -71 -168 -41 5 7 -5 8 -29 4 -24 -5 -36 -3 -36 4 0 6 6 11 13 11 7 0
22 7 33 15 18 15 16 15 -21 10 -23 -3 -35 -2 -30 3 14 12 174 47 181 39 3 -3
-16 -17 -43 -32 -46 -25 -47 -25 -13 -19 19 4 51 14 70 24 19 9 52 23 73 29
20 7 37 17 37 22 0 5 26 9 58 8 l57 -1 -55 -25z m151 -33 c-13 -11 -31 -20
-40 -20 -12 0 -10 5 9 20 34 27 63 26 31 0z m-257 -105 c7 -19 45 -20 52 -1 3
8 12 12 20 9 24 -9 -4 -33 -40 -33 -30 0 -56 15 -56 32 0 14 18 9 24 -7z m-44
-10 c0 -17 -2 -18 -24 -9 -23 9 -20 24 4 24 11 0 20 -7 20 -15z m-50 -16 c0
-5 -9 -9 -20 -9 -22 0 -27 16 -7 23 15 5 27 -1 27 -14z m250 12 c0 -5 -13 -11
-30 -13 -29 -4 -37 1 -23 15 10 10 53 8 53 -2z m56 -23 c-11 -6 -51 -12 -90
-14 l-71 -3 63 8 c34 4 65 11 69 14 3 4 16 7 27 7 20 -1 20 -1 2 -12z"/>
<path d="M4088 6171 c-47 -72 -51 -119 -12 -150 39 -30 52 -26 21 7 -33 34
-34 56 -5 102 28 47 50 100 41 100 -5 -1 -25 -27 -45 -59z"/>
<path d="M4450 6224 c0 -3 16 -35 35 -73 19 -37 35 -72 35 -78 0 -6 -12 -25
-26 -42 -31 -37 -14 -42 21 -6 37 36 32 75 -15 146 -38 54 -50 68 -50 53z"/>
<path d="M4240 5865 c-6 -19 -21 -40 -32 -46 -20 -11 -20 -10 -4 12 9 13 16
33 16 44 0 15 -5 11 -18 -14 -11 -23 -29 -40 -52 -48 l-35 -14 23 20 c34 30
26 34 -15 8 -68 -42 -66 -41 -54 -21 6 11 19 30 28 44 9 14 -10 -2 -41 -35
-31 -33 -52 -50 -46 -38 19 40 10 39 -15 -2 -27 -44 -37 -116 -11 -80 12 17
13 17 20 -9 5 -20 19 -33 52 -47 41 -19 63 -20 234 -17 173 3 191 5 217 24 15
11 33 31 39 42 6 12 14 19 17 15 4 -3 7 1 7 10 0 18 -138 162 -147 154 -3 -3
17 -26 43 -51 l48 -46 -65 31 c-35 17 -77 46 -92 63 l-28 31 15 -32 c9 -18 24
-37 33 -42 17 -10 17 -10 0 -11 -26 0 -57 18 -57 33 0 7 -7 22 -15 33 -13 17
-14 16 -5 -14 7 -24 6 -32 -3 -29 -6 2 -14 14 -18 28 -4 13 -7 17 -8 8 -1 -9
-8 -23 -17 -30 -15 -12 -15 -10 0 24 8 20 11 37 6 37 -5 0 -14 -16 -20 -35z
m105 -79 c29 -12 29 -13 -35 -19 -66 -6 -149 5 -120 16 49 19 115 20 155 3z
m-125 -47 c33 -8 66 -7 122 2 99 16 193 4 193 -25 0 -32 -47 -58 -116 -65 -35
-3 -128 -4 -206 -1 -124 4 -145 8 -170 26 -38 28 -37 57 2 65 48 10 126 9 175
-2z"/>
<path d="M4407 5583 c-34 -4 -37 -6 -31 -29 8 -32 -2 -31 -21 4 l-16 27 5 -38
c9 -65 -15 -94 -29 -34 -7 33 -9 32 -20 -18 -6 -29 -7 -29 -21 -11 -8 11 -14
36 -14 55 l-1 36 -18 -40 -19 -40 -10 27 c-7 15 -9 35 -6 43 5 13 -7 15 -73
15 -89 0 -113 -14 -113 -63 0 -37 14 -34 25 5 16 51 30 44 28 -14 l-2 -53 12
41 c12 41 36 79 44 70 3 -2 -1 -14 -7 -26 -9 -16 -9 -25 -1 -33 8 -8 11 -6 11
6 0 18 34 57 49 57 5 0 7 -9 4 -20 -4 -14 10 -35 49 -76 l55 -57 51 50 c29 28
52 58 52 67 0 26 18 9 30 -27 9 -30 10 -29 6 13 l-5 45 30 -32 c36 -41 44 -42
24 -3 -9 17 -12 30 -7 30 13 0 38 -23 50 -45 11 -19 11 -19 12 3 0 22 -31 62
-49 62 -5 0 -15 1 -23 3 -7 2 -30 2 -51 0z"/>
<path d="M4797 5308 c-8 -29 -21 -82 -29 -118 -9 -36 -29 -102 -46 -147 -18
-46 -28 -83 -23 -83 17 0 72 94 91 157 11 35 22 94 25 131 4 37 8 77 11 90 9
46 -16 20 -29 -30z"/>
<path d="M3796 5273 c18 -132 114 -353 152 -353 17 0 11 22 -43 140 -24 52
-56 130 -71 173 -31 83 -46 99 -38 40z"/>
<path d="M4335 4989 c-46 -21 -79 -24 -123 -8 -45 16 -60 7 -33 -18 46 -43
163 -37 196 10 29 41 20 45 -40 16z"/>
<path d="M4303 4738 l-42 -31 -39 27 c-30 20 -46 25 -66 20 -35 -9 -43 -24
-12 -24 14 0 41 -13 59 -30 44 -38 74 -38 117 0 19 16 44 29 56 30 28 0 36 10
23 27 -18 21 -51 15 -96 -19z"/>
<path d="M2987 5251 c-53 -34 -80 -86 -84 -154 l-4 -62 29 61 c57 118 64 88
22 -86 -11 -41 -22 -93 -25 -115 -12 -73 -16 -71 -55 32 -46 122 -83 194 -118
225 l-25 23 6 -31 c3 -18 24 -72 46 -121 22 -49 55 -134 72 -189 44 -141 47
-146 67 -142 14 2 26 49 69 258 64 314 64 344 0 301z"/>
<path d="M2671 5086 c11 -18 24 -60 29 -92 5 -33 26 -162 45 -289 63 -404 96
-598 106 -617 16 -30 39 -22 39 15 0 59 -143 883 -162 932 -12 31 -56 85 -70
85 -4 0 2 -15 13 -34z"/>
<path d="M2986 4501 c-4 -5 -9 -37 -13 -70 -6 -61 -23 -95 -23 -48 0 37 -20
87 -36 87 -18 0 -18 -33 1 -185 8 -65 15 -138 15 -161 0 -43 17 -68 38 -55 14
8 68 400 59 425 -7 17 -32 22 -41 7z"/>
<path d="M5503 5258 c-6 -9 8 -102 43 -276 29 -144 55 -270 58 -278 3 -9 13
-14 23 -12 11 2 27 37 53 118 20 63 54 156 77 205 60 134 66 177 16 123 -28
-31 -59 -94 -104 -213 -21 -55 -40 -93 -42 -85 -3 8 -12 47 -21 85 -9 39 -23
100 -31 136 -29 126 -18 138 34 34 l30 -60 0 48 c1 63 -17 104 -68 150 -45 40
-54 43 -68 25z"/>
<path d="M5841 5091 c-33 -46 -36 -60 -105 -452 -84 -478 -94 -546 -85 -560
14 -24 37 1 49 53 12 56 100 598 126 778 17 120 30 168 52 193 14 15 14 17 -1
17 -8 0 -25 -13 -36 -29z"/>
<path d="M5513 4494 c-10 -27 44 -416 59 -425 22 -14 38 12 38 60 0 26 7 101
15 166 8 66 15 132 15 148 0 43 -27 33 -41 -15 -20 -75 -22 -75 -33 2 -9 58
-15 76 -29 78 -9 2 -20 -4 -24 -14z"/>
<path d="M3915 4395 c-51 -50 -18 -135 52 -135 44 0 87 52 79 94 -14 68 -83
90 -131 41z m83 -53 c-4 -35 -33 -52 -54 -30 -30 29 3 74 44 60 7 -3 12 -16
10 -30z"/>
<path d="M4568 4410 c-26 -4 -51 -11 -56 -14 -9 -5 0 -91 11 -102 3 -4 48 5
99 19 51 14 112 31 135 37 39 10 66 41 49 57 -10 10 -189 12 -238 3z m150 -32
c-2 -6 -31 -17 -64 -24 -32 -7 -67 -15 -76 -19 -25 -10 -44 30 -21 44 26 15
166 14 161 -1z"/>
<path d="M3141 3974 c-28 -36 -27 -85 2 -112 49 -46 131 -8 131 61 0 49 -27
77 -75 77 -29 0 -42 -6 -58 -26z m87 -46 c2 -19 -3 -30 -18 -38 -40 -22 -72
36 -32 59 27 17 47 8 50 -21z"/>
<path d="M5253 4008 c-49 -53 -20 -138 47 -138 66 0 104 77 66 134 -22 35 -83
36 -113 4z m75 -30 c28 -28 1 -75 -38 -63 -25 8 -27 50 -2 64 22 13 26 13 40
-1z"/>
<path d="M4497 3653 c-13 -20 -20 -120 -9 -127 15 -9 281 24 320 40 60 24 39
42 -83 69 -92 21 -220 31 -228 18z m192 -45 c40 -15 12 -26 -81 -34 l-88 -7 0
31 0 31 73 -6 c39 -3 83 -10 96 -15z"/>
<path d="M1950 2280 c-41 -41 -14 -110 43 -110 70 0 87 95 21 120 -35 14 -41
13 -64 -10z m65 -30 c9 -15 -4 -50 -19 -50 -8 0 -19 7 -26 15 -10 12 -10 18 0
30 14 17 36 20 45 5z"/>
<path d="M4605 1805 c-49 -13 -99 -24 -109 -24 -24 -1 -56 -29 -51 -44 2 -7 9
-31 15 -54 13 -50 25 -53 77 -17 21 14 89 50 151 80 72 34 112 58 110 66 -7
22 -97 18 -193 -7z m95 -19 c0 -3 -45 -27 -99 -55 l-100 -49 -10 29 c-5 16 -9
29 -8 30 57 23 217 56 217 45z"/>
<path d="M4710 1144 c-47 -12 -95 -23 -106 -23 -38 -1 -48 -24 -34 -82 13 -54
31 -69 56 -48 9 8 76 44 148 80 152 76 171 100 79 98 -32 -1 -96 -12 -143 -25z
m120 -13 c-1 -9 -214 -110 -222 -104 -5 2 -8 18 -8 35 0 17 3 29 6 25 6 -5 41
5 143 42 50 17 81 19 81 2z"/>
<path d="M4165 1281 c-7 -25 -21 -27 -29 -6 -8 22 -36 18 -36 -4 0 -25 26 -51
51 -51 25 0 61 37 57 58 -5 25 -35 27 -43 3z"/>
<path d="M3478 1491 c-42 -38 -44 -89 -5 -128 56 -56 151 -16 151 63 0 29 -7
43 -32 65 -18 16 -43 29 -57 29 -14 0 -39 -13 -57 -29z m92 -36 c7 -8 10 -25
6 -39 -12 -48 -76 -41 -76 8 0 42 45 62 70 31z"/>
<path d="M3351 774 c-87 -73 32 -206 120 -135 18 14 24 29 24 61 0 35 -6 47
-33 71 -40 36 -71 37 -111 3z m84 -40 c9 -9 15 -26 13 -38 -2 -17 -10 -21 -38
-21 -31 0 -35 3 -38 29 -5 43 32 61 63 30z"/>
</g>
</svg>
