<?xml version="1.0" encoding="UTF-8" standalone="no"?>
<svg
   xmlns:dc="http://purl.org/dc/elements/1.1/"
   xmlns:cc="http://creativecommons.org/ns#"
   xmlns:rdf="http://www.w3.org/1999/02/22-rdf-syntax-ns#"
   xmlns:svg="http://www.w3.org/2000/svg"
   xmlns="http://www.w3.org/2000/svg"
   xmlns:sodipodi="http://sodipodi.sourceforge.net/DTD/sodipodi-0.dtd"
   xmlns:inkscape="http://www.inkscape.org/namespaces/inkscape"
   version="1.0"
   width="850.000000pt"
   height="850.000000pt"
   viewBox="0 0 850.000000 850.000000"
   preserveAspectRatio="xMidYMid meet"
   id="svg2"
   inkscape:version="0.91 r13725"
   sodipodi:docname="People518_018.svg">
  <defs
     id="defs284" />
  <sodipodi:namedview
     pagecolor="#ffffff"
     bordercolor="#666666"
     borderopacity="1"
     objecttolerance="10"
     gridtolerance="10"
     guidetolerance="10"
     inkscape:pageopacity="0"
     inkscape:pageshadow="2"
     inkscape:window-width="1920"
     inkscape:window-height="980"
     id="namedview282"
     showgrid="false"
     inkscape:zoom="0.44423529"
     inkscape:cx="851.21234"
     inkscape:cy="805.40062"
     inkscape:window-x="0"
     inkscape:window-y="1"
     inkscape:window-maximized="1"
     inkscape:current-layer="svg2" />
  <metadata
     id="metadata4">
Created by potrace 1.14, written by Peter Selinger 2001-2017
<rdf:RDF>
  <cc:Work
     rdf:about="">
    <dc:format>image/svg+xml</dc:format>
    <dc:type
       rdf:resource="http://purl.org/dc/dcmitype/StillImage" />
  </cc:Work>
</rdf:RDF>
</metadata>
  <g
     transform="translate(0.000000,850.000000) scale(0.100000,-0.100000)"
     fill="#000000"
     stroke="none"
     id="g6">
    <path
       d="M0 4250 l0 -4250 4250 0 4250 0 0 4250 0 4250 -4250 0 -4250 0 0 -4250z m7194 4101 c41 -45 77 -269 77 -469 -1 -201 -21 -289 -107 -461 -82 -163 -86 -188 -51 -361 48 -237 45 -379 -13 -698 -36 -189 -64 -285 -125 -420 -24 -53 -42 -98 -41 -100 6 -5 293 77 333 95 29 14 39 25 41 47 7 62 -8 97 -73 166 -35 38 -66 79 -69 92 -14 68 -16 97 -6 103 17 11 49 -24 60 -67 19 -68 33 -45 28 45 -6 107 -3 120 27 113 19 -5 24 -2 27 16 2 19 10 23 39 25 32 2 39 -2 49 -28 9 -21 10 -48 4 -92 -15 -112 -11 -200 11 -232 l19 -30 9 45 c14 74 43 129 72 136 45 11 50 -7 27 -88 -17 -56 -22 -99 -22 -188 0 -169 2 -167 -195 -265 -88 -44 -209 -111 -268 -148 -197 -124 -358 -198 -517 -238 -48 -12 -115 -38 -153 -60 -115 -65 -247 -121 -349 -148 l-68 -17 128 -12 c141 -14 291 -48 393 -91 204 -86 339 -204 339 -297 0 -19 -13 -39 -40 -65 -137 -131 -630 -143 -930 -24 -46 19 -86 33 -87 31 -2 -2 11 -25 29 -52 38 -57 102 -94 163 -94 119 -1 327 -86 512 -211 227 -154 482 -495 561 -751 40 -129 55 -347 31 -460 -29 -134 -108 -248 -202 -288 -78 -35 -183 -33 -261 3 -33 15 -62 24 -66 20 -3 -5 -23 -34 -44 -65 -48 -72 -127 -134 -214 -165 -135 -50 -350 -40 -471 22 -28 14 -54 25 -59 25 -16 0 -124 -150 -133 -184 -5 -17 -15 -116 -24 -221 -19 -249 -45 -341 -128 -465 -58 -86 -245 -285 -414 -440 -253 -232 -363 -352 -363 -396 0 -11 16 -36 36 -55 86 -81 78 -132 -51 -339 -35 -55 -62 -114 -76 -165 -22 -77 -26 -83 -110 -166 -48 -47 -90 -96 -94 -108 -11 -35 -33 -8 -47 60 -7 32 -15 59 -19 59 -4 0 -15 -27 -25 -60 -11 -33 -22 -60 -26 -60 -9 0 -31 50 -64 143 -69 200 -44 512 62 766 68 163 144 404 189 601 118 515 117 513 330 863 47 79 78 139 79 158 1 28 -3 33 -39 44 -114 34 -191 107 -256 242 -39 79 -42 83 -67 75 -15 -4 -65 -6 -112 -6 -190 3 -273 99 -274 314 0 328 254 655 691 887 109 58 187 89 312 122 l104 27 -134 86 c-178 113 -272 168 -288 168 -7 0 -32 -11 -56 -25 -56 -33 -188 -81 -288 -105 -44 -11 -80 -20 -81 -22 -1 -2 -18 -28 -38 -58 -75 -111 -181 -162 -338 -163 -113 -1 -161 12 -353 94 -114 49 -147 59 -194 59 -82 0 -133 -33 -170 -107 -24 -51 -28 -69 -28 -148 0 -76 4 -98 25 -138 62 -122 180 -167 212 -81 11 32 14 33 25 18 20 -28 16 -80 -9 -109 -61 -70 -215 -46 -336 52 -24 19 -45 34 -46 32 -2 -2 -23 -42 -46 -88 -48 -97 -109 -166 -179 -205 -74 -40 -206 -77 -282 -79 l-65 -2 76 -72 c42 -39 88 -93 102 -120 30 -55 99 -321 86 -329 -5 -3 -68 24 -141 60 -143 70 -243 145 -297 220 l-32 45 -39 -49 c-21 -27 -69 -73 -106 -103 -82 -65 -374 -262 -389 -262 -6 0 -59 54 -118 120 -112 125 -222 279 -251 352 -10 24 -19 43 -21 43 -1 0 -26 -25 -54 -54 -78 -83 -248 -163 -425 -201 -16 -3 -38 -8 -47 -11 -27 -8 -23 10 29 126 77 173 108 214 223 289 l85 55 -41 7 c-48 9 -146 49 -219 90 -69 39 -140 112 -169 174 -28 58 -101 303 -94 311 3 2 21 -4 39 -15 53 -31 140 -49 314 -66 185 -17 211 -23 285 -67 49 -30 85 -68 130 -137 l16 -23 52 26 c65 33 146 35 212 5 59 -26 77 -44 106 -101 13 -27 27 -48 30 -48 3 0 26 18 51 39 55 49 118 71 202 71 67 0 136 -23 174 -57 17 -16 20 -14 63 35 30 34 67 62 112 84 l67 33 145 -4 c80 -2 197 -5 260 -5 l115 -1 -3 25 c-15 135 -13 207 8 263 27 71 108 162 181 202 87 47 162 46 344 -4 156 -42 270 -58 319 -44 28 9 27 10 -30 25 -79 23 -134 68 -134 112 0 56 47 132 126 203 l73 67 -63 66 c-74 77 -93 109 -111 197 -16 76 -7 154 25 215 11 21 20 40 20 42 0 2 -28 18 -62 36 -115 59 -309 215 -526 423 -159 152 -257 237 -273 237 -6 0 -23 -13 -39 -28 -15 -16 -66 -47 -112 -70 -131 -66 -154 -94 -252 -305 -46 -100 -120 -258 -164 -352 -250 -536 -323 -697 -318 -703 3 -3 34 22 68 56 33 34 65 62 69 62 5 0 -7 -28 -26 -63 -37 -66 -44 -97 -22 -97 6 0 43 14 82 30 83 36 113 39 70 7 -16 -12 -52 -42 -78 -66 -60 -55 -52 -65 51 -67 46 -1 78 -6 80 -13 2 -6 -7 -11 -21 -11 -20 0 -80 -18 -155 -45 -26 -9 9 -45 89 -92 117 -68 117 -74 -1 -43 -41 11 -97 20 -123 20 l-49 0 7 -32 c4 -18 18 -60 31 -92 13 -33 24 -64 24 -69 0 -6 -31 22 -69 62 -103 107 -107 105 -161 -107 -15 -59 -30 -43 -30 31 0 78 -10 137 -22 137 -6 0 -41 -30 -79 -67 -70 -67 -99 -79 -60 -24 12 17 31 56 41 87 l20 56 -31 -6 c-25 -5 -95 -31 -166 -63 -28 -12 -11 16 25 39 20 14 54 43 75 64 38 38 38 39 15 45 -13 4 -56 7 -95 8 -40 1 -73 5 -73 10 0 5 24 14 53 20 28 7 71 19 95 28 41 15 42 16 25 35 -10 11 -49 38 -88 61 -38 22 -64 42 -58 44 6 2 37 -3 70 -11 32 -8 82 -17 111 -21 l52 -7 0 31 c0 17 -14 65 -30 107 -17 42 -29 79 -26 81 3 3 31 -22 62 -56 31 -34 66 -67 77 -73 31 -16 50 15 78 121 13 50 27 91 31 91 5 0 9 -24 9 -52 1 -29 4 -66 8 -82 6 -30 12 -16 289 639 44 105 104 247 134 316 l53 125 -3 99 -3 99 -18 -40 c-17 -38 -82 -104 -102 -104 -22 0 -18 29 10 86 16 33 33 72 36 87 4 15 23 43 43 62 46 44 27 46 -63 4 -56 -26 -70 -30 -91 -20 -34 15 -30 28 18 52 24 12 59 35 78 50 30 25 43 29 100 29 77 0 142 18 241 65 163 78 218 72 422 -46 77 -44 141 -79 142 -77 2 2 -7 47 -20 101 -84 345 -93 594 -33 862 30 136 23 186 -46 323 -31 62 -69 157 -84 210 -24 88 -26 112 -26 272 1 230 33 419 81 472 42 47 92 4 167 -142 45 -87 96 -233 96 -274 0 -34 52 -180 98 -276 48 -101 118 -210 192 -300 62 -75 450 -480 459 -480 3 0 21 27 39 59 70 122 146 206 250 275 115 76 162 98 267 121 102 23 253 17 311 -13 100 -51 154 -136 154 -241 0 -60 -4 -74 -25 -99 l-25 -30 37 -23 c64 -42 77 -47 138 -59 51 -10 66 -19 103 -58 23 -25 56 -73 72 -106 24 -51 38 -66 82 -93 29 -17 83 -58 119 -92 l66 -60 54 81 c87 133 172 232 389 453 265 272 350 360 395 415 126 151 231 357 276 539 16 67 40 151 54 186 26 71 96 197 128 233 25 27 68 29 91 3z m-5409 -2601 c13 -77 73 -120 168 -120 49 0 40 -14 -19 -29 -29 -8 -60 -25 -81 -46 -29 -29 -33 -40 -33 -83 0 -66 -14 -73 -30 -16 -16 58 -59 101 -108 109 -69 11 -83 16 -78 24 3 5 19 11 36 14 17 4 49 24 71 45 36 33 42 45 47 90 6 62 18 67 27 12z m1055 -435 c0 -3 -9 -22 -20 -42 -32 -59 -27 -106 16 -153 20 -22 34 -43 31 -46 -3 -3 -23 4 -46 15 -59 31 -109 27 -160 -10 -47 -34 -60 -33 -38 3 37 58 29 129 -20 180 -36 38 -23 45 24 14 59 -40 128 -31 177 23 18 20 36 28 36 16z m-1417 -195 c13 0 38 5 56 11 47 17 48 5 2 -39 -44 -41 -51 -73 -31 -128 16 -40 5 -41 -39 -1 -45 40 -92 54 -134 38 -16 -6 -33 -11 -38 -11 -17 0 -9 19 10 25 58 18 86 85 62 148 -16 40 -1 39 45 -3 25 -23 54 -40 67 -40z m437 -159 c17 -42 43 -62 89 -68 45 -6 46 -18 1 -28 -35 -8 -70 -48 -70 -81 0 -37 -15 -36 -35 2 -20 37 -60 64 -94 64 -11 0 -23 5 -26 10 -4 6 5 10 20 10 37 0 85 50 85 89 0 39 14 40 30 2z m721 -210 c-19 -35 -13 -78 16 -112 l28 -33 -25 8 c-61 20 -99 18 -136 -5 -35 -21 -37 -22 -30 -3 20 50 19 95 -3 125 -13 17 -21 33 -18 35 2 2 21 -3 41 -11 41 -17 67 -13 106 17 27 21 37 11 21 -21z m-1170 -340 c-19 -35 -13 -78 16 -112 l28 -33 -25 8 c-62 20 -101 19 -132 -4 -35 -26 -46 -20 -30 15 18 39 14 79 -9 109 -27 34 -20 42 20 22 41 -22 61 -20 101 8 37 25 48 20 31 -13z m1304 -103 c-19 -61 -17 -84 10 -117 33 -38 28 -48 -14 -27 -42 22 -72 20 -116 -10 l-38 -25 8 23 c19 59 17 97 -6 129 l-23 32 25 -7 c58 -19 94 -18 119 3 33 27 44 26 35 -1z"
       id="path8"
       style="fill:none" />
    <path
       d="M7108 8308 c-71 -95 -115 -201 -159 -387 -23 -100 -43 -154 -95 -260 -91 -183 -177 -293 -439 -561 -332 -341 -389 -408 -534 -623 -50 -75 -52 -79 -40 -112 7 -19 15 -35 19 -34 3 0 48 66 100 146 183 279 382 509 579 668 64 51 134 112 156 136 114 124 190 286 240 514 48 215 68 286 104 360 57 120 93 151 142 125 23 -13 24 -6 2 31 -22 38 -45 37 -75 -3z"
       id="path10"
       style="fill:#ffccff" />
    <path
       d="M3232 8308 c-5 -7 -13 -24 -17 -36 -6 -21 -5 -23 12 -14 30 16 64 -7 100 -67 43 -71 74 -168 123 -383 23 -98 51 -208 64 -245 63 -185 154 -307 341 -458 88 -72 184 -166 278 -275 39 -45 49 -52 57 -40 5 8 10 20 10 26 0 6 -86 100 -191 209 -235 244 -325 352 -406 486 -78 129 -126 248 -164 403 -45 182 -79 267 -146 359 -37 50 -45 54 -61 35z"
       id="path12"
       style="fill:#ffccff" />
    <path
       d="M7116 8230 c-37 -44 -86 -159 -106 -244 l-8 -38 33 32 c41 40 79 43 125 10 43 -30 60 -75 60 -155 0 -110 -58 -238 -185 -407 l-63 -83 29 -12 c15 -6 34 -21 41 -32 16 -26 28 -27 28 -3 0 10 21 61 46 113 25 52 64 147 85 211 35 106 39 126 39 222 0 101 -20 279 -41 358 -8 31 -32 58 -52 58 -3 0 -17 -14 -31 -30z"
       id="path14"
       style="fill:#cc99ff" />
    <path
       d="M3218 8213 c-29 -33 -49 -126 -60 -284 l-12 -156 28 -106 c27 -99 43 -144 127 -340 l33 -77 21 25 c11 13 30 28 43 32 21 8 20 12 -42 96 -126 171 -180 295 -180 412 1 82 20 127 67 155 48 30 75 25 118 -19 l37 -40 -20 72 c-11 40 -38 110 -61 157 -45 90 -68 108 -99 73z"
       id="path16"
       style="fill:#cc99ff" />
    <path
       d="M7058 7963 c-30 -34 -48 -82 -48 -127 0 -49 12 -65 35 -46 17 14 20 50 5 50 -5 0 -10 -5 -10 -12 0 -9 -3 -9 -11 -1 -14 14 -3 33 20 33 44 0 53 -45 18 -86 -19 -21 -29 -26 -50 -20 -14 3 -29 15 -32 26 -8 24 -25 17 -25 -9 0 -38 -52 -199 -90 -279 -71 -149 -142 -235 -298 -359 -170 -137 -336 -317 -499 -544 -132 -184 -205 -306 -210 -353 -5 -37 -4 -39 10 -26 8 8 73 94 143 190 379 522 684 848 861 922 50 20 63 33 135 128 138 183 204 345 178 439 -20 76 -94 117 -132 74z"
       id="path18"
       style="fill:#ff99cc" />
    <path
       d="M3258 7942 c-82 -50 -76 -185 14 -352 80 -148 180 -271 243 -299 67 -29 125 -72 221 -164 84 -80 268 -286 369 -416 l50 -64 9 32 c6 20 6 42 0 56 -18 48 -199 238 -333 350 -75 63 -152 134 -172 158 -98 116 -163 249 -210 432 -15 61 -29 112 -30 115 0 3 -4 -6 -8 -19 -15 -53 -79 -54 -101 -1 -11 26 -10 33 5 50 10 11 24 20 31 20 16 0 33 -30 27 -47 -7 -19 -21 -16 -26 5 -4 13 -5 13 -6 -4 -1 -29 21 -48 37 -32 39 39 -30 200 -85 198 -4 0 -20 -8 -35 -18z"
       id="path20"
       style="fill:#ff99cc" />
    <path
       d="M6875 7289 c-144 -77 -341 -273 -597 -594 -158 -197 -408 -547 -408 -569 0 -48 -24 -99 -70 -149 -28 -30 -50 -64 -50 -76 0 -11 -11 -28 -24 -37 -16 -10 -23 -21 -19 -31 5 -12 2 -15 -10 -10 -11 4 -14 2 -10 -9 3 -7 1 -14 -5 -14 -5 0 -12 -17 -16 -38 -7 -45 -45 -122 -87 -174 -63 -80 -1 -31 183 143 190 179 328 299 523 453 125 99 376 350 476 476 139 175 233 331 274 458 21 64 13 121 -22 162 -31 37 -80 40 -138 9z m-3 -219 c28 -28 30 -35 26 -84 -13 -153 -267 -416 -673 -696 -71 -49 -131 -85 -133 -81 -4 11 71 162 136 276 101 176 242 373 339 472 138 140 240 177 305 113z"
       id="path22"
       style="fill:#ffccff" />
    <path
       d="M6758 7060 c-75 -23 -221 -165 -333 -325 -112 -158 -284 -449 -273 -460 5 -5 212 146 328 239 237 190 390 382 390 492 0 42 -59 71 -112 54z"
       id="path24"
       style="fill:#cc99ff" />
    <path
       d="M4785 7280 c-161 -34 -339 -152 -441 -295 -53 -76 -117 -210 -134 -284 -17 -73 -8 -221 19 -291 19 -50 20 -52 14 -15 -14 83 -6 248 16 330 45 170 184 346 331 418 146 72 312 81 401 23 46 -31 85 -109 95 -188 6 -56 7 -58 33 -52 82 20 116 127 70 221 -25 52 -89 107 -149 128 -46 16 -186 19 -255 5z"
       id="path26"
       style="fill:#cc0000" />
    <path
       d="M3378 7252 c-52 -63 -42 -144 39 -306 117 -233 374 -538 653 -775 69 -58 197 -168 284 -245 l159 -140 -7 43 c-9 57 -31 98 -122 227 -117 167 -203 357 -220 485 -6 44 -18 65 -82 148 -128 163 -222 272 -337 386 -132 132 -225 196 -294 203 -43 4 -50 1 -73 -26z m302 -219 c140 -83 359 -375 532 -711 70 -138 76 -152 57 -152 -17 0 -269 185 -388 284 -201 168 -303 280 -367 401 -86 167 9 270 166 178z"
       id="path28"
       style="fill:#ffccff" />
    <path
       d="M3527 7012 c-55 -60 39 -230 219 -401 127 -120 453 -381 477 -381 9 0 -53 118 -136 260 -139 239 -303 439 -416 512 -54 34 -119 38 -144 10z"
       id="path30"
       style="fill:#cc99ff" />
    <path
       d="M4755 7170 c-175 -27 -331 -153 -426 -345 -48 -98 -62 -168 -62 -310 0 -200 26 -273 173 -471 146 -199 144 -358 -6 -454 -49 -30 -238 -111 -391 -166 -122 -43 -157 -66 -191 -122 -24 -42 -27 -57 -27 -137 0 -80 4 -96 29 -144 17 -32 56 -80 95 -115 129 -119 158 -152 179 -207 l20 -54 7 38 c11 58 1 138 -24 189 -12 26 -47 75 -78 109 -98 110 -129 221 -83 296 29 48 57 61 174 83 207 38 262 63 345 162 78 92 115 174 119 270 5 87 -9 125 -97 271 -122 204 -164 330 -165 492 -1 90 2 106 27 157 41 84 140 158 211 158 41 0 105 -30 125 -59 10 -14 24 -46 31 -71 11 -41 13 -43 26 -25 8 10 14 26 14 34 1 32 29 66 76 92 27 16 67 38 89 50 22 12 56 25 75 29 35 5 35 6 32 50 -6 80 -21 116 -61 153 -60 54 -117 65 -236 47z"
       id="path32"
       style="fill:#ff6600" />
    <path
       d="M7020 7003 c-77 -168 -206 -345 -394 -540 -54 -57 -96 -103 -93 -103 3 0 34 16 67 36 66 38 208 94 240 94 31 0 137 111 166 174 22 49 24 60 14 96 -11 41 -34 52 -58 28 -18 -18 -15 -68 4 -68 11 0 14 6 9 20 -7 23 7 27 24 6 18 -21 -3 -56 -33 -56 -31 0 -49 23 -48 61 2 91 94 114 128 33 28 -66 0 -143 -86 -237 -47 -52 -49 -55 -28 -61 44 -10 89 -59 108 -115 17 -51 18 -52 24 -25 27 136 45 412 35 552 -7 102 -23 202 -32 202 -1 0 -22 -44 -47 -97z"
       id="path34"
       style="fill:#ff99cc" />
    <path
       d="M3312 7029 c-34 -126 -34 -380 -1 -608 16 -109 23 -122 37 -73 15 50 61 98 103 107 l31 7 -39 42 c-112 117 -142 220 -82 284 26 29 54 28 85 -3 20 -20 25 -33 22 -67 -5 -64 -49 -78 -82 -25 -13 21 6 42 29 33 14 -5 15 -9 5 -21 -10 -12 -9 -15 4 -15 22 0 21 52 -2 73 -49 44 -77 -56 -38 -135 9 -20 42 -63 72 -97 50 -54 62 -63 127 -82 40 -11 119 -45 176 -76 l105 -54 -90 93 c-178 187 -320 383 -402 557 l-49 103 -11 -43z"
       id="path36"
       style="fill:#cc99ff" />
    <path
       d="M4973 6876 c-75 -35 -92 -79 -52 -130 22 -28 22 -41 3 -157 -4 -25 -1 -39 10 -48 13 -11 20 -9 46 13 29 24 86 46 120 46 8 0 37 11 64 25 27 14 55 25 63 25 17 0 17 44 -1 78 -19 35 -62 75 -106 97 -19 9 -49 30 -65 46 l-30 28 -52 -23z"
       id="path38"
       style="fill:#ff3300" />
    <path
       d="M5103 6893 c-23 -9 -14 -21 41 -52 63 -35 106 -84 122 -138 l11 -38 83 -3 c94 -3 100 0 100 64 0 55 -28 79 -115 99 -41 10 -86 28 -109 46 -38 28 -96 38 -133 22z"
       id="path40"
       style="fill:#ff3300" />
    <path
       d="M4532 6817 c-54 -20 -103 -67 -131 -126 -23 -49 -26 -68 -25 -151 3 -150 48 -274 188 -510 69 -116 80 -153 73 -252 -6 -96 -41 -176 -116 -266 -95 -114 -170 -152 -357 -181 -118 -18 -159 -36 -174 -77 -28 -72 0 -155 86 -254 35 -41 76 -99 90 -128 24 -47 26 -61 22 -140 -7 -155 -84 -276 -204 -322 -82 -31 -188 -24 -354 25 -125 36 -270 57 -270 38 0 -5 26 -14 58 -21 32 -7 108 -36 168 -66 133 -66 206 -86 318 -86 144 0 238 47 307 153 73 112 74 238 4 439 -57 164 -57 254 -1 307 18 17 51 27 142 42 162 26 210 42 275 88 95 68 149 159 169 283 17 104 9 197 -20 235 -14 20 -23 51 -27 92 -5 56 -13 73 -67 155 -80 119 -100 182 -94 291 7 97 30 156 81 205 34 31 37 39 37 88 0 118 -75 176 -178 139z"
       id="path42"
       style="fill:#ff3300" />
    <path
       d="M4828 6793 c-23 -27 -30 -57 -18 -87 7 -21 6 -43 -5 -86 -21 -82 -20 -163 3 -183 26 -24 34 -22 81 23 l41 40 -21 21 c-20 20 -21 28 -15 100 6 59 3 89 -9 124 -8 26 -13 51 -10 56 11 17 -32 9 -47 -8z"
       id="path44"
       style="fill:#cc0000" />
    <path
       d="M5486 6686 c-8 -31 -1 -46 20 -46 18 0 18 30 0 55 -12 17 -13 17 -20 -9z"
       id="path46"
       style="fill:#cc0000" />
    <path
       d="M4759 6668 c-16 -29 -17 -215 -1 -253 15 -37 50 -61 65 -46 7 7 0 19 -21 39 -42 39 -46 62 -28 175 19 114 18 107 6 107 -5 0 -14 -10 -21 -22z"
       id="path48"
       style="fill:#cc0000" />
    <path
       d="M5211 6616 c-28 -7 -53 -23 -70 -44 -29 -34 -47 -42 -37 -16 5 14 1 16 -30 11 -45 -7 -85 -33 -79 -50 3 -6 -15 -25 -40 -41 -76 -47 -124 -129 -140 -237 -6 -42 -3 -55 39 -139 41 -82 46 -89 46 -59 0 19 16 71 34 117 19 45 37 96 41 112 8 38 16 38 37 0 9 -16 29 -32 44 -36 22 -6 32 -2 50 20 13 14 28 44 34 66 6 22 12 40 14 40 2 0 20 -16 40 -36 31 -31 41 -36 69 -30 42 8 87 57 87 96 0 42 15 37 28 -9 7 -23 29 -54 53 -76 39 -35 45 -37 95 -33 35 3 66 14 93 31 22 15 43 27 46 27 2 0 2 -20 -1 -43 -5 -36 -3 -45 10 -50 18 -7 70 15 81 33 17 28 24 4 18 -66 -6 -76 -6 -76 16 -69 19 6 22 4 17 -12 -3 -10 -10 -40 -15 -66 -8 -46 -8 -47 10 -31 31 28 40 76 36 191 -3 87 -8 117 -26 151 -14 28 -27 42 -36 39 -8 -4 -18 6 -25 24 -7 16 -18 29 -25 29 -8 0 -23 15 -34 34 -39 62 -151 116 -271 131 -45 5 -68 2 -125 -19 l-70 -25 28 25 c31 26 24 28 -42 10z"
       id="path50"
       style="fill:#cc0000" />
    <path
       d="M4687 6562 c-68 -71 -88 -225 -44 -333 13 -31 43 -84 68 -119 l44 -63 3 69 c1 38 9 83 16 99 7 17 16 49 20 72 5 36 3 44 -14 53 -40 22 -55 60 -60 158 l-5 93 -28 -29z"
       id="path52"
       style="fill:#cc0000" />
    <path
       d="M6785 6445 c-146 -40 -415 -220 -720 -480 -137 -117 -426 -390 -416 -393 19 -6 628 28 661 38 19 5 53 23 75 39 55 39 127 74 210 101 83 27 151 77 253 184 129 136 174 225 174 342 -1 157 -78 212 -237 169z m17 -115 c79 -22 134 -96 119 -161 -20 -86 -65 -134 -177 -184 -110 -51 -408 -144 -421 -131 -3 3 10 37 31 76 113 217 235 357 344 396 46 16 57 17 104 4z"
       id="path54"
       style="fill:#ff99ff" />
    <path
       d="M6682 6290 c-59 -27 -149 -120 -215 -221 -62 -96 -101 -169 -93 -176 7 -8 221 55 306 90 132 54 188 101 211 176 16 54 -10 107 -65 132 -52 24 -90 23 -144 -1z"
       id="path56"
       style="fill:#ff99cc" />
    <path
       d="M7328 6426 c-6 -28 11 -212 20 -239 6 -15 9 215 4 251 -3 21 -19 13 -24 -12z"
       id="path58"
       style="fill:#ffcc99" />
    <path
       d="M3450 6423 c-57 -21 -96 -117 -87 -211 4 -33 19 -82 39 -121 36 -72 42 -76 353 -251 66 -37 150 -87 187 -112 77 -53 156 -82 316 -113 113 -23 117 -23 151 -5 20 10 43 26 52 36 19 22 49 78 49 93 0 11 -215 206 -310 281 -36 29 -101 81 -145 118 -144 118 -341 237 -458 276 -47 16 -117 20 -147 9z m258 -147 c96 -49 224 -210 322 -405 l32 -64 -34 7 c-53 10 -304 95 -374 127 -103 45 -149 82 -178 141 -29 59 -33 96 -12 137 14 26 50 56 86 73 34 15 111 8 158 -16z"
       id="path60"
       style="fill:#ff99ff" />
    <path
       d="M3555 6261 c-50 -22 -64 -40 -72 -84 -7 -46 25 -117 70 -151 19 -15 63 -41 98 -58 66 -31 317 -118 344 -118 34 0 -109 233 -200 326 -52 53 -140 104 -180 104 -11 0 -38 -9 -60 -19z"
       id="path62"
       style="fill:#ff99cc" />
    <path
       d="M7286 6364 c-4 -9 -9 -46 -12 -81 -5 -57 -2 -74 29 -151 19 -48 37 -108 40 -134 6 -43 4 -49 -21 -66 -45 -32 -182 -76 -462 -147 -249 -63 -372 -104 -423 -140 -22 -16 -22 -16 8 -9 53 13 12 -21 -48 -40 -78 -24 -172 -35 -408 -46 -252 -12 -374 -25 -449 -46 -127 -37 -214 -105 -246 -194 -10 -28 -22 -50 -26 -50 -14 0 -8 43 11 86 l19 42 -45 6 c-97 13 -229 128 -302 262 l-42 79 5 -70 c3 -38 14 -104 26 -145 35 -130 42 -176 30 -219 -10 -38 -35 -69 -46 -58 -4 3 -1 20 5 38 14 40 14 116 1 124 -5 3 -10 -3 -10 -13 0 -64 -60 -166 -130 -219 -44 -34 -45 -37 -55 -110 -10 -72 -10 -74 6 -54 15 18 40 77 55 129 6 22 21 5 27 -32 3 -20 23 -75 44 -123 22 -48 44 -99 49 -112 9 -22 11 -22 40 25 17 27 66 91 110 142 43 51 90 108 104 125 31 42 44 41 47 -1 3 -43 26 -82 110 -184 84 -103 95 -113 163 -146 58 -28 159 -37 180 -16 17 17 -49 284 -71 284 -5 0 -27 -9 -49 -20 -47 -24 -51 -24 -44 -5 9 23 108 84 172 106 107 37 356 98 585 144 358 71 526 133 742 274 61 40 175 104 255 142 195 95 192 93 213 131 14 25 17 52 16 118 -1 47 1 124 3 172 4 77 3 85 -9 68 -8 -11 -19 -48 -24 -82 -10 -59 -24 -98 -35 -98 -3 0 -25 20 -49 44 -48 50 -65 103 -65 204 0 63 -12 96 -24 66z"
       id="path64"
       style="fill:#ffcc99" />
    <path
       d="M5340 6306 c-12 -14 -38 -30 -56 -36 -30 -10 -55 -4 -116 28 -4 2 -16 -14 -27 -36 -11 -22 -27 -42 -36 -46 -25 -9 -73 -7 -80 4 -15 24 -33 4 -63 -72 -32 -81 -33 -86 -26 -181 5 -70 11 -100 21 -104 19 -7 31 6 14 16 -10 6 -10 10 -2 16 15 9 41 -13 41 -34 0 -44 -63 -56 -97 -18 -13 14 -23 43 -28 81 -8 68 -84 234 -97 213 -4 -7 -8 -64 -8 -127 0 -130 7 -148 68 -179 42 -22 102 -77 102 -95 0 -20 57 -123 91 -165 38 -48 125 -116 174 -137 55 -23 87 -17 154 26 33 22 79 49 100 59 65 34 171 185 171 245 0 22 -3 24 -40 19 -40 -6 -130 20 -130 36 0 15 60 91 85 107 23 15 31 15 66 4 22 -7 46 -13 54 -13 8 0 15 -4 15 -9 0 -4 4 -8 8 -8 13 0 54 95 50 116 -4 25 -39 29 -77 10 -56 -30 -105 -12 -56 20 33 22 110 30 130 14 24 -20 31 15 10 54 -13 23 -16 45 -12 74 5 38 3 41 -13 32 -35 -19 -69 -12 -87 18 -9 15 -18 28 -19 30 -1 2 -16 -4 -33 -12 -33 -18 -97 -21 -133 -7 -13 5 -39 25 -59 45 l-35 36 -24 -24z m-42 -126 c49 -35 77 -74 68 -95 -8 -23 -25 -18 -54 16 -69 81 -92 91 -159 66 -24 -9 -43 -12 -43 -8 0 21 65 49 116 50 19 1 46 -10 72 -29z m-208 -130 c6 0 10 8 10 18 0 13 2 14 9 3 5 -7 14 -10 20 -7 6 4 11 2 11 -3 0 -6 7 -11 15 -11 8 0 15 -6 15 -12 0 -9 3 -9 9 1 7 12 14 10 37 -8 18 -15 30 -18 34 -10 10 15 50 -38 50 -66 0 -12 3 -43 6 -69 l7 -48 -49 7 c-27 4 -62 13 -79 21 -35 15 -85 58 -85 74 0 5 -8 10 -17 10 -15 0 -14 2 3 15 18 14 18 14 -5 15 -24 0 -24 1 -6 14 18 13 18 15 2 30 -9 10 -17 27 -17 39 1 20 2 20 11 5 5 -10 14 -18 19 -18z m-255 -42 c17 -57 19 -106 6 -127 -12 -18 -24 3 -16 28 3 10 -1 47 -10 82 -18 76 -18 82 -5 74 5 -3 16 -29 25 -57z m618 -177 c-14 -36 -14 -44 1 -87 12 -35 13 -51 5 -61 -17 -20 -26 -16 -26 15 -1 15 -4 45 -8 68 -5 30 -3 49 9 72 23 45 37 40 19 -7z m-85 -140 c3 -8 -1 -12 -9 -9 -7 2 -15 10 -17 17 -3 8 1 12 9 9 7 -2 15 -10 17 -17z m-78 -63 c139 -24 180 -33 180 -39 0 -18 -92 -89 -115 -89 -49 0 -93 26 -110 66 -25 61 -30 88 -14 78 8 -4 34 -12 59 -16z"
       id="path66"
       style="fill:#ffcc99" />
    <path
       d="M5240 5965 c27 -29 37 -27 20 4 -6 12 -18 21 -27 21 -13 0 -12 -5 7 -25z"
       id="path68" />
    <path
       d="M5158 5964 c-14 -14 -8 -51 10 -67 20 -18 67 -23 77 -8 3 5 -8 9 -25 9 -37 -1 -47 8 -52 45 -2 16 -6 25 -10 21z"
       id="path70"
       style="fill:#000099" />
    <path
       d="M5190 5954 c0 -9 5 -14 12 -12 18 6 21 28 4 28 -9 0 -16 -7 -16 -16z"
       id="path72"
       style="fill:#000099" />
    <path
       d="M5280 5606 c0 -12 68 -36 100 -36 39 0 31 16 -12 23 -18 3 -45 9 -60 12 -16 4 -28 4 -28 1z"
       id="path74"
       style="fill:#ff6600" />
    <path
       d="M5270 5561 c15 -29 73 -45 102 -30 22 12 21 13 -19 20 -23 4 -51 13 -62 18 -28 16 -33 14 -21 -8z"
       id="path76"
       style="fill:#ff6600" />
    <path
       d="M7180 6285 c0 -28 27 -79 54 -104 35 -33 33 -13 -4 34 -16 21 -30 46 -30 56 0 10 -4 21 -10 24 -5 3 -10 -1 -10 -10z"
       id="path78"
       style="fill:#ffcc99" />
    <path
       d="M2890 6233 c-14 -3 -75 -27 -136 -54 -103 -46 -116 -49 -192 -49 -78 0 -84 -2 -126 -34 -25 -19 -51 -36 -58 -39 -7 -2 -10 -7 -7 -11 4 -4 32 7 63 24 49 27 62 30 103 24 l47 -7 -52 -46 c-39 -34 -59 -62 -77 -108 -14 -35 -25 -68 -25 -74 0 -22 27 10 55 64 46 90 53 102 87 133 56 50 65 50 24 0 -27 -33 -42 -63 -47 -95 -11 -66 -11 -111 1 -111 6 0 10 21 10 48 0 72 16 112 62 159 57 58 70 55 20 -5 -31 -36 -43 -62 -52 -110 -9 -43 -10 -66 -3 -73 7 -7 15 6 23 43 18 78 36 102 104 141 112 64 110 63 102 31 -4 -16 -32 -54 -62 -84 -40 -41 -51 -59 -43 -67 8 -8 26 -2 69 23 32 19 62 34 67 34 20 0 85 54 108 90 26 42 47 53 38 22 -3 -13 7 -27 32 -47 21 -15 101 -88 179 -163 257 -246 477 -423 606 -487 l55 -28 50 26 c27 15 128 56 223 93 94 37 171 69 169 70 -2 2 -59 18 -127 35 -84 21 -125 27 -129 20 -5 -7 -44 17 -103 62 -53 39 -150 101 -215 136 -65 36 -176 100 -248 144 -192 118 -362 216 -430 249 -58 27 -101 32 -165 21z"
       id="path80"
       style="fill:#ffcc99" />
    <path
       d="M2688 6009 c-23 -13 -37 -39 -54 -105 -7 -30 -29 -76 -47 -103 -31 -45 -412 -920 -404 -928 6 -5 417 884 440 952 11 33 24 72 30 87 5 14 22 41 38 59 40 44 38 62 -3 38z"
       id="path82"
       style="fill:#990000" />
    <path
       d="M6855 5901 c-60 -63 -103 -112 -95 -109 8 3 40 13 71 21 l56 17 42 91 c23 50 40 92 39 93 -2 1 -52 -50 -113 -113z"
       id="path84"
       style="fill:#ff99ff" />
    <path
       d="M5574 5901 c7 -11 76 -20 76 -10 0 10 -27 19 -56 19 -14 0 -23 -4 -20 -9z"
       id="path86"
       style="fill:#000099" />
    <path
       d="M5553 5873 c-18 -6 -16 -23 1 -23 17 0 30 16 19 23 -5 2 -14 2 -20 0z"
       id="path88"
       style="fill:#000099" />
    <path
       d="M5607 5840 c-6 -23 -45 -28 -66 -7 -10 10 -12 8 -9 -8 2 -15 12 -21 40 -23 33 -3 38 0 44 23 3 14 4 28 1 31 -2 3 -7 -4 -10 -16z"
       id="path90"
       style="fill:#000099" />
    <path
       d="M4831 5713 c0 -156 -38 -268 -119 -355 -81 -87 -154 -119 -328 -143 -124 -17 -154 -29 -173 -72 -18 -40 -4 -144 35 -248 45 -121 58 -191 51 -278 -10 -115 -31 -163 -106 -238 -70 -70 -116 -92 -225 -110 -42 -7 -35 -7 39 -5 149 6 258 65 323 174 36 62 37 156 3 255 -27 79 -30 177 -6 233 38 92 101 140 235 180 227 69 333 186 333 368 -1 148 -15 301 -31 319 -8 9 -19 17 -23 17 -5 0 -8 -44 -8 -97z"
       id="path92"
       style="fill:#ff6600" />
    <path
       d="M6147 5270 c-257 -53 -507 -128 -507 -151 0 -37 384 51 580 132 55 23 100 43 100 45 0 8 -37 2 -173 -26z"
       id="path94"
       style="fill:#ff99ff" />
    <path
       d="M4648 5096 c-54 -16 -55 -24 -5 -31 52 -8 67 -2 67 26 0 21 -9 22 -62 5z"
       id="path96"
       style="fill:#ff99ff" />
    <path
       d="M5181 5073 c-19 -80 -21 -101 -6 -107 8 -3 15 -13 15 -21 0 -26 18 -8 25 25 8 36 29 29 22 -7 -3 -17 -1 -21 6 -14 6 6 15 11 19 11 18 0 5 -20 -44 -69 -46 -44 -53 -55 -52 -89 1 -42 30 -138 44 -147 5 -3 15 7 23 22 13 25 12 31 -4 58 -20 32 -25 90 -9 100 6 3 10 -5 10 -19 0 -29 19 -76 31 -76 9 0 25 53 34 113 8 51 29 37 22 -14 -5 -38 5 -53 17 -24 3 8 10 15 15 15 16 0 1 -31 -36 -74 -18 -22 -42 -64 -54 -95 -19 -52 -19 -58 -5 -88 18 -38 42 -45 32 -10 -14 47 -18 87 -12 111 9 37 29 33 21 -4 -7 -32 1 -70 15 -70 9 0 34 64 44 113 4 15 11 27 17 27 10 0 6 -53 -8 -105 -4 -16 -3 -18 8 -7 7 6 17 12 21 12 19 0 5 -24 -37 -64 -39 -38 -45 -50 -45 -85 0 -23 4 -41 9 -41 5 0 31 37 58 83 44 76 48 87 47 147 -1 92 -26 159 -89 233 -29 34 -73 92 -98 130 l-46 67 -10 -37z"
       id="path98"
       style="fill:#66ff33" />
    <path
       d="M5723 5081 c-62 -8 -68 -12 -56 -46 l8 -26 215 -3 c233 -3 300 -13 465 -67 189 -63 276 -156 193 -207 -54 -33 -116 -44 -243 -44 -156 1 -336 33 -519 93 -33 10 -61 17 -64 15 -2 -3 1 -21 8 -41 9 -28 22 -41 60 -60 70 -35 186 -72 293 -92 123 -23 380 -22 492 1 96 20 180 59 202 92 15 23 14 28 -3 65 -50 112 -260 237 -484 289 -151 34 -417 49 -567 31z"
       id="path100"
       style="fill:#ffccff" />
    <path
       d="M5128 5061 c-9 -10 -20 -20 -25 -22 -4 -2 -31 -38 -59 -79 -116 -173 -132 -219 -108 -299 24 -82 76 -131 192 -181 53 -23 112 -51 131 -62 18 -10 36 -17 38 -14 3 2 -4 25 -15 50 -23 50 -48 62 -110 53 -40 -7 -69 4 -58 22 4 6 1 11 -6 11 -32 0 -89 22 -85 33 2 7 -7 25 -19 40 -23 28 -30 47 -18 47 4 0 30 -21 57 -47 30 -28 52 -42 55 -35 5 16 -33 79 -77 125 -19 20 -30 37 -23 37 21 0 81 -61 116 -119 28 -46 43 -60 73 -69 20 -6 39 -10 41 -8 2 2 -13 35 -34 73 -37 67 -52 82 -161 149 -19 12 -42 29 -51 38 -14 14 -14 16 -1 16 8 0 21 -6 28 -12 11 -11 12 -6 7 29 -8 56 10 65 24 11 12 -43 48 -90 84 -110 17 -9 18 -7 12 37 -4 26 -18 67 -32 92 -25 48 -30 79 -15 102 6 10 11 1 16 -28 9 -54 25 -53 25 2 0 23 5 62 11 86 11 51 9 57 -13 32z"
       id="path102"
       style="fill:#66ff33" />
    <path
       d="M4464 5035 c-25 -19 -6 -19 61 -1 l50 14 -46 1 c-26 1 -54 -5 -65 -14z"
       id="path104"
       style="fill:#ff99ff" />
    <path
       d="M4800 5023 c0 -10 -3 -43 -7 -73 l-6 -55 22 19 c28 25 29 1 0 -30 -16 -17 -19 -32 -17 -70 l4 -49 15 35 c9 19 20 44 24 55 8 19 9 18 13 -5 2 -14 9 -28 14 -31 7 -5 3 -18 -11 -37 -23 -32 -27 -81 -11 -113 14 -26 30 -24 31 4 1 16 4 13 13 -14 13 -43 43 -89 56 -89 6 0 4 10 -4 23 -21 33 -34 92 -39 183 -4 66 -12 96 -41 158 -20 42 -36 81 -36 86 0 5 -4 12 -10 15 -5 3 -10 -2 -10 -12z"
       id="path106"
       style="fill:#66ff33" />
    <path
       d="M4500 5003 c-47 -8 -91 -20 -98 -26 -15 -12 -55 -87 -50 -92 2 -2 44 7 93 20 50 13 124 29 165 37 72 13 75 14 81 46 l6 32 -56 -1 c-31 0 -94 -8 -141 -16z"
       id="path108"
       style="fill:#ffccff" />
    <path
       d="M4731 4942 c-28 -44 -31 -57 -31 -125 0 -73 2 -79 34 -114 36 -40 96 -80 96 -65 0 5 -18 21 -39 36 -21 15 -41 36 -44 47 -5 17 -3 18 9 8 8 -6 17 -10 19 -7 8 7 -16 70 -36 97 -20 25 -17 43 5 35 10 -4 15 12 20 62 4 36 5 68 3 71 -3 2 -19 -18 -36 -45z"
       id="path110"
       style="fill:#66ff33" />
    <path
       d="M5708 4973 c-16 -2 -28 -8 -28 -13 0 -28 187 -130 275 -150 113 -26 225 -4 225 44 0 36 -46 69 -85 62 -40 -8 -51 -21 -35 -41 14 -17 50 -20 50 -4 0 6 -9 8 -21 4 -25 -8 -22 12 4 29 13 8 21 7 34 -6 14 -14 15 -22 5 -43 -21 -46 -112 -23 -112 29 0 36 36 61 86 61 79 0 135 -84 89 -135 -64 -71 -256 -51 -417 41 -36 22 -69 39 -72 39 -11 0 -6 -38 7 -48 7 -6 65 -27 130 -46 221 -67 449 -95 588 -71 63 10 119 36 119 54 0 17 -82 83 -125 101 -64 27 -169 59 -255 76 -74 15 -404 28 -462 17z"
       id="path112"
       style="fill:#ff99cc" />
    <path
       d="M5162 4920 c0 -19 2 -27 5 -17 2 9 2 25 0 35 -3 9 -5 1 -5 -18z"
       id="path114" />
    <path
       d="M4585 4905 c-91 -16 -205 -45 -227 -57 -14 -6 -18 -21 -18 -57 0 -61 43 -161 69 -161 20 0 164 42 229 67 67 25 40 28 -38 3 -96 -31 -183 -26 -217 14 -13 15 -23 40 -23 57 0 91 169 122 178 32 2 -23 -3 -35 -20 -47 -27 -19 -59 -21 -76 -4 -28 28 3 83 33 58 8 -7 15 -17 15 -22 0 -6 -7 -8 -15 -4 -8 3 -15 1 -15 -4 0 -16 26 -12 41 6 11 14 10 18 -6 30 -29 21 -54 17 -86 -15 -35 -35 -35 -42 -8 -67 34 -31 193 -22 245 13 12 9 28 174 16 172 -4 0 -38 -7 -77 -14z"
       id="path116"
       style="fill:#ff99cc" />
    <path
       d="M2165 4849 c-4 -6 -5 -12 -2 -15 2 -3 7 2 10 11 7 17 1 20 -8 4z"
       id="path118"
       style="fill:#990000" />
    <path
       d="M5440 4802 c0 -43 69 -72 170 -72 49 0 71 4 80 15 20 24 0 37 -39 25 -39 -11 -117 3 -173 31 -37 19 -38 19 -38 1z"
       id="path120"
       style="fill:#ccff99" />
    <path
       d="M3938 4765 c-89 -71 -152 -180 -129 -224 16 -29 94 -62 161 -68 66 -6 88 5 116 59 18 35 19 34 -18 48 -43 17 -68 39 -68 60 0 9 14 36 31 59 l30 43 -26 34 c-14 19 -29 34 -33 34 -4 0 -32 -20 -64 -45z"
       id="path122"
       style="fill:#ffccff" />
    <path
       d="M5453 4675 c-1 -58 -27 -124 -81 -209 -18 -27 -35 -64 -38 -83 -7 -38 -16 -40 -52 -14 -33 22 -152 83 -152 77 0 -5 201 -127 214 -129 4 -1 14 18 20 43 7 25 29 72 49 104 70 113 101 245 61 260 -9 3 -16 6 -17 6 -1 0 -3 -25 -4 -55z"
       id="path124"
       style="fill:#ccff99" />
    <path
       d="M5675 4708 c-16 -5 -57 -6 -91 -3 l-61 5 -6 -57 c-5 -44 -22 -89 -72 -188 -36 -71 -65 -140 -65 -151 0 -14 26 -44 75 -87 85 -75 136 -92 248 -85 119 7 193 85 191 199 -2 85 -27 148 -80 200 -27 25 -60 72 -78 110 -30 65 -32 65 -61 57z"
       id="path126"
       style="fill:#ffcc99" />
    <path
       d="M4057 4681 c-15 -18 -27 -37 -27 -42 0 -9 59 -39 75 -39 9 0 4 55 -8 84 l-13 29 -27 -32z"
       id="path128"
       style="fill:#ff99cc" />
    <path
       d="M4679 4680 c-18 -10 -190 -66 -244 -79 -40 -11 -40 -11 -42 -61 l-2 -51 37 7 c105 19 320 104 329 130 6 17 -60 63 -78 54z"
       id="path130"
       style="fill:#ffccff" />
    <path
       d="M2001 4623 c-16 -46 -38 -83 -50 -83 -5 0 -31 16 -57 36 -33 26 -45 31 -40 18 4 -11 10 -41 13 -68 l6 -49 -71 5 -71 5 47 -43 47 -42 -30 -11 c-16 -6 -39 -15 -50 -20 -18 -9 -18 -10 7 -10 35 -1 58 -11 58 -24 0 -6 -15 -26 -32 -45 -26 -27 -29 -33 -13 -29 11 3 37 9 58 13 43 7 47 -3 23 -61 -18 -43 -9 -44 29 -5 16 17 34 30 40 30 13 0 35 -62 36 -101 0 -18 4 -13 13 16 17 54 45 95 64 95 9 0 31 -14 49 -32 37 -36 48 -34 33 6 -5 15 -10 41 -10 57 0 24 4 29 18 25 9 -2 41 -8 71 -11 l54 -7 -48 45 c-26 25 -45 50 -42 55 4 4 25 15 49 22 54 17 70 30 38 30 -38 0 -70 11 -70 23 0 6 14 26 31 43 l32 33 -47 -14 c-54 -16 -64 -8 -46 39 5 15 10 29 10 32 0 2 -23 -12 -50 -32 -33 -24 -64 -59 -90 -102 -47 -79 -52 -63 -10 38 30 72 35 108 21 143 -5 14 -9 11 -20 -20z"
       id="path132"
       style="fill:#ff6666" />
    <path
       d="M5930 4460 c13 -25 18 -27 90 -33 l55 -5 -50 23 c-27 12 -63 26 -78 29 -26 6 -27 5 -17 -14z"
       id="path134"
       style="fill:#ccff99" />
    <path
       d="M6080 4449 c106 -61 115 -84 23 -63 -97 23 -175 15 -130 -13 6 -4 36 -16 66 -26 60 -20 124 -61 189 -120 35 -33 55 -67 38 -67 -21 0 -211 44 -244 56 -24 9 -46 13 -49 10 -3 -3 14 -27 39 -53 67 -72 141 -214 119 -227 -14 -9 -166 72 -212 112 -35 31 -49 38 -62 31 -15 -9 -17 -27 -16 -133 0 -118 -6 -177 -20 -176 -3 1 -35 60 -71 132 -60 122 -68 133 -99 141 -31 8 -37 5 -74 -33 -44 -44 -154 -116 -164 -106 -10 9 38 124 69 167 28 39 29 42 12 60 -30 34 -50 31 -144 -16 -51 -25 -96 -45 -101 -43 -5 2 18 39 52 83 l60 80 -64 -68 c-58 -59 -139 -168 -133 -175 2 -1 45 20 97 47 92 48 195 88 204 79 3 -3 -8 -29 -25 -59 -25 -46 -70 -203 -70 -242 0 -7 10 0 23 15 12 15 58 48 102 74 44 25 95 60 112 77 18 17 34 29 36 26 14 -16 100 -156 117 -188 11 -22 25 -69 32 -105 7 -36 15 -66 19 -66 9 0 45 102 60 168 6 30 9 89 7 133 -3 43 -3 79 -1 79 3 0 19 -11 36 -24 18 -13 70 -46 117 -74 47 -27 109 -73 138 -102 28 -29 52 -50 52 -47 0 4 -9 44 -19 89 -25 105 -50 164 -101 235 -22 31 -38 58 -36 61 12 11 240 -89 273 -120 37 -34 37 -14 2 52 -41 76 -102 146 -168 191 -28 19 -51 38 -51 42 0 16 163 -22 260 -60 29 -11 -24 39 -84 79 -68 47 -186 103 -236 113 -33 6 -31 4 20 -26z"
       id="path136"
       style="fill:#66ff33" />
    <path
       d="M3266 4426 c-53 -20 -101 -69 -136 -140 -25 -50 -30 -71 -30 -135 0 -42 5 -93 11 -114 9 -34 13 -38 35 -33 27 7 29 -1 13 -38 -10 -22 -8 -30 13 -58 69 -90 267 -134 319 -71 13 15 12 15 -8 5 -54 -29 -113 -10 -180 60 -100 103 -118 248 -47 389 29 59 69 92 129 109 54 15 45 26 -31 34 -31 4 -63 1 -88 -8z"
       id="path138"
       style="fill:#ff3300" />
    <path
       d="M5931 4325 c-2 -58 -22 -104 -65 -149 -49 -50 -115 -76 -200 -77 -45 0 -48 -2 -26 -10 27 -11 101 -6 162 11 92 26 163 143 138 226 l-8 29 -1 -30z"
       id="path140"
       style="fill:#ccff99" />
    <path
       d="M5979 4323 c-6 -35 -5 -54 5 -62 25 -20 216 -65 216 -51 0 11 -86 73 -137 99 -42 21 -82 28 -84 14z"
       id="path142"
       style="fill:#ccff99" />
    <path
       d="M5105 4274 c-158 -43 -265 -92 -410 -189 -265 -177 -420 -360 -494 -581 -40 -120 -43 -257 -8 -344 32 -80 80 -110 183 -117 70 -5 89 -2 171 25 238 80 467 283 682 604 79 118 119 200 145 298 10 36 24 75 32 88 9 14 10 22 4 22 -19 0 -153 -65 -211 -102 -30 -19 -59 -37 -66 -41 -24 -15 -21 11 7 72 38 79 81 142 144 209 l51 54 -24 19 c-31 25 -53 23 -206 -17z m-639 -803 c-9 -77 9 -121 63 -157 23 -15 41 -28 41 -30 0 -2 -21 -2 -47 -1 -68 3 -109 -18 -140 -70 -14 -24 -28 -42 -30 -39 -3 3 -6 31 -7 63 -3 67 -15 90 -64 124 l-36 24 62 6 c73 7 104 30 133 97 10 23 21 42 25 42 4 0 4 -27 0 -59z"
       id="path144"
       style="fill:#66ff00" />
    <path
       d="M4414 3399 c-3 -6 -22 -17 -40 -25 -38 -16 -40 -21 -19 -48 8 -11 15 -30 15 -43 0 -29 1 -29 46 2 20 14 43 25 50 25 10 0 9 8 -6 33 -11 17 -20 40 -20 50 0 19 -15 23 -26 6z"
       id="path146"
       style="fill:#ff9900" />
    <path
       d="M6285 4248 c28 -30 62 -77 77 -104 27 -50 82 -203 76 -210 -2 -2 -30 22 -63 52 -52 49 -151 109 -212 128 -21 7 -21 5 8 -51 40 -77 79 -231 79 -311 0 -68 -9 -73 -35 -18 -9 18 -32 48 -51 67 l-36 34 7 -65 c42 -402 149 -652 353 -826 104 -89 149 -109 242 -109 90 1 139 23 194 86 114 134 128 444 30 700 -70 185 -272 469 -432 605 -41 35 -77 62 -79 60 -3 -2 8 -23 23 -45 15 -23 25 -44 22 -47 -3 -3 -27 9 -54 26 -43 27 -105 54 -174 75 -21 7 -17 -1 25 -47z m405 -921 c26 -81 100 -132 178 -123 49 5 61 -11 16 -23 -96 -26 -144 -82 -144 -169 0 -61 -16 -67 -34 -14 -16 47 -64 102 -102 118 -18 8 -54 14 -79 14 -60 0 -57 15 6 30 91 22 129 75 129 180 0 50 11 45 30 -13z"
       id="path148"
       style="fill:#66ff00" />
    <path
       d="M6680 3248 c0 -10 -16 -35 -35 -56 l-34 -39 32 -23 c18 -13 38 -32 45 -42 18 -24 29 -23 36 6 3 14 20 38 36 55 l31 30 -33 17 c-18 9 -43 28 -55 43 -18 21 -22 23 -23 9z"
       id="path150"
       style="fill:#ff9900" />
    <path
       d="M5351 4183 c-17 -20 -29 -39 -27 -41 2 -2 27 8 56 23 43 22 49 29 40 41 -19 22 -36 17 -69 -23z"
       id="path152"
       style="fill:#ccff99" />
    <path
       d="M5925 4148 l-18 -32 40 -36 c42 -37 143 -97 143 -84 0 29 -113 184 -134 184 -6 0 -20 -14 -31 -32z"
       id="path154"
       style="fill:#ccff99" />
    <path
       d="M789 4131 c13 -24 122 -123 128 -117 3 3 -3 28 -12 56 -18 53 -28 61 -93 73 -29 6 -32 5 -23 -12z"
       id="path156"
       style="fill:#99ff66" />
    <path
       d="M760 4114 c0 -11 10 -47 23 -79 l23 -60 40 4 c21 1 41 5 44 8 3 3 -14 21 -37 42 -23 20 -54 51 -68 70 -20 28 -25 31 -25 15z"
       id="path158"
       style="fill:#99ff66" />
    <path
       d="M934 4054 c13 -36 26 -67 28 -68 72 -55 81 -48 51 42 -28 84 -35 92 -75 92 l-28 0 24 -66z"
       id="path160"
       style="fill:#99ff66" />
    <path
       d="M1024 4068 c36 -119 47 -139 94 -159 25 -11 46 -18 47 -17 3 4 -53 199 -59 205 -3 3 -25 8 -50 10 l-46 6 14 -45z"
       id="path162"
       style="fill:#99ff66" />
    <path
       d="M1144 4064 c4 -21 17 -69 30 -108 19 -64 25 -73 59 -90 21 -10 40 -16 42 -14 5 4 -8 89 -25 175 -12 54 -13 55 -79 68 l-34 7 7 -38z"
       id="path164"
       style="fill:#99ff66" />
    <path
       d="M5522 4088 c-20 -25 -73 -120 -69 -125 5 -4 96 66 116 91 12 14 12 18 -5 31 -24 18 -29 18 -42 3z"
       id="path166"
       style="fill:#ccff99" />
    <path
       d="M1275 4016 c7 -30 16 -82 20 -116 7 -58 9 -63 41 -76 18 -8 36 -14 39 -14 7 0 5 115 -3 170 -6 38 -12 47 -47 67 -60 34 -64 31 -50 -31z"
       id="path168"
       style="fill:#99ff66" />
    <path
       d="M5739 4052 c-14 -6 -10 -21 31 -107 l48 -100 1 76 c1 113 -6 139 -38 138 -14 0 -33 -3 -42 -7z"
       id="path170"
       style="fill:#ccff99" />
    <path
       d="M1401 3913 c1 -38 4 -79 8 -92 6 -23 7 -22 34 18 l27 41 -25 50 c-14 28 -30 50 -35 50 -6 0 -10 -29 -9 -67z"
       id="path172"
       style="fill:#99ff66" />
    <path
       d="M5910 3918 c0 -83 -21 -161 -72 -267 -46 -97 -48 -97 -68 28 -12 73 -72 210 -96 218 -24 8 -105 -324 -124 -507 -17 -176 15 -402 76 -523 82 -164 230 -247 438 -247 179 0 310 66 397 201 l31 49 -79 83 c-88 91 -126 144 -171 232 -60 121 -108 321 -132 560 -6 60 -13 112 -16 117 -5 8 -59 43 -146 97 l-38 23 0 -64z m136 -805 c12 -57 35 -111 57 -131 25 -23 86 -42 135 -42 46 0 40 -17 -10 -25 -98 -16 -150 -67 -163 -158 -8 -57 -18 -54 -35 9 -20 71 -72 119 -143 134 -66 13 -67 25 -1 33 82 9 124 58 132 155 5 56 18 68 28 25z"
       id="path174"
       style="fill:#99cc00" />
    <path
       d="M6025 2991 c-3 -11 -20 -32 -38 -48 l-32 -28 47 -47 48 -47 15 29 c8 15 29 39 46 53 30 23 31 25 11 31 -11 4 -34 22 -51 41 -35 41 -38 41 -46 16z"
       id="path176"
       style="fill:#ff9900" />
    <path
       d="M2626 3948 c-15 -25 -78 -199 -73 -204 3 -3 77 12 82 18 1 1 24 45 50 97 51 102 50 111 -12 111 -23 0 -37 -7 -47 -22z"
       id="path178"
       style="fill:#99ff66" />
    <path
       d="M5601 3945 c-14 -13 -51 -38 -84 -56 -82 -44 -121 -80 -148 -141 l-24 -53 -5 50 -5 50 -53 -92 c-176 -305 -413 -545 -648 -655 l-62 -29 15 -37 c52 -125 111 -199 195 -244 60 -32 207 -32 286 0 149 62 295 189 388 338 l49 79 6 140 c10 196 57 454 109 585 20 52 26 90 13 89 -5 0 -19 -11 -32 -24z m-561 -825 c-23 -79 -6 -137 50 -178 17 -13 30 -25 28 -27 -2 -2 -22 1 -45 6 -56 15 -124 -15 -154 -65 -12 -20 -24 -36 -28 -36 -5 0 -6 33 -3 73 4 73 4 73 -32 111 -20 22 -36 42 -36 45 0 3 26 5 58 3 67 -4 97 14 133 79 26 46 43 39 29 -11z"
       id="path180"
       style="fill:#66cc33" />
    <path
       d="M4965 3038 c-16 -10 -38 -18 -49 -18 -14 0 -17 -5 -11 -22 4 -13 9 -38 12 -56 l5 -32 33 20 c18 11 42 20 54 20 23 0 27 10 10 27 -7 7 -15 27 -18 46 l-6 34 -30 -19z"
       id="path182"
       style="fill:#ff9900" />
    <path
       d="M843 3953 c-27 -5 -28 -14 -7 -54 9 -19 21 -29 29 -25 8 3 33 10 56 16 23 6 53 16 68 22 l26 10 -35 18 c-33 18 -86 23 -137 13z"
       id="path184"
       style="fill:#99ff66" />
    <path
       d="M2543 3949 c-18 -5 -39 -20 -47 -32 -18 -26 -56 -186 -47 -191 11 -7 60 6 69 18 5 6 23 49 39 96 17 47 34 93 38 103 8 19 -2 20 -52 6z"
       id="path186"
       style="fill:#99ff66" />
    <path
       d="M2717 3868 c-24 -51 -43 -95 -41 -96 1 -2 21 -1 44 3 43 7 50 16 111 123 28 49 20 62 -38 62 -32 0 -35 -4 -76 -92z"
       id="path188"
       style="fill:#99ff66" />
    <path
       d="M2847 3879 c-22 -39 -36 -73 -33 -76 3 -3 22 0 41 8 28 11 44 28 70 77 l35 62 -38 0 c-36 0 -38 -3 -75 -71z"
       id="path190"
       style="fill:#99ff66" />
    <path
       d="M2975 3925 c-8 -14 -22 -37 -31 -51 -8 -14 -13 -28 -10 -31 6 -7 63 31 116 76 l35 30 -47 1 c-40 0 -50 -4 -63 -25z"
       id="path192"
       style="fill:#99ff66" />
    <path
       d="M1565 3902 c-88 -41 -145 -143 -145 -257 0 -116 61 -279 147 -396 64 -88 245 -300 252 -297 3 2 80 52 171 112 198 131 306 232 338 317 47 127 53 299 13 378 -55 108 -208 142 -331 75 -28 -15 -62 -42 -76 -61 -14 -18 -31 -33 -39 -33 -8 0 -28 27 -45 59 -43 87 -85 115 -174 119 -53 2 -81 -2 -111 -16z m594 -126 c14 -17 10 -21 -61 -67 -70 -45 -110 -30 -67 25 37 47 106 69 128 42z"
       id="path194"
       style="fill:#ff0000" />
    <path
       d="M2079 3745 c-15 -8 -29 -22 -33 -31 -7 -17 1 -14 69 33 27 18 -2 17 -36 -2z"
       id="path196"
       style="fill:#ff3300" />
    <path
       d="M3066 3894 c-13 -15 -46 -39 -72 -55 -47 -27 -48 -28 -24 -37 71 -26 67 -28 105 47 37 74 33 90 -9 45z"
       id="path198"
       style="fill:#99ff66" />
    <path
       d="M965 3879 c-86 -25 -95 -33 -69 -59 20 -20 20 -20 69 0 28 11 77 27 109 36 l59 16 -32 14 c-42 18 -50 17 -136 -7z"
       id="path200"
       style="fill:#99ff66" />
    <path
       d="M2406 3858 c-39 -45 -42 -58 -25 -107 18 -53 34 -36 55 59 11 50 17 90 13 90 -4 0 -24 -19 -43 -42z"
       id="path202"
       style="fill:#99ff66" />
    <path
       d="M1140 3850 c-14 -4 -65 -20 -115 -35 l-89 -27 24 -19 c46 -35 65 -34 170 12 55 24 100 47 100 51 0 5 -60 31 -64 27 -1 0 -12 -4 -26 -9z"
       id="path204"
       style="fill:#99ff66" />
    <path
       d="M1210 3790 c-19 -10 -61 -29 -92 -41 -32 -12 -58 -25 -58 -29 0 -10 86 -40 113 -40 11 0 57 23 104 52 l84 51 -32 14 c-43 18 -77 16 -119 -7z"
       id="path206"
       style="fill:#99ff66" />
    <path
       d="M2847 3777 l-28 -12 78 -38 77 -39 23 29 c29 36 26 45 -23 60 -51 15 -92 15 -127 0z"
       id="path208"
       style="fill:#99ff66" />
    <path
       d="M1329 3737 c-31 -19 -66 -41 -80 -50 l-23 -17 29 -2 c94 -4 122 6 134 50 19 64 17 65 -60 19z"
       id="path210"
       style="fill:#99ff66" />
    <path
       d="M2738 3753 c-39 -6 -35 -17 14 -39 23 -10 66 -33 95 -50 47 -29 54 -30 72 -17 12 8 21 18 21 23 0 10 -121 74 -155 82 -11 3 -32 3 -47 1z"
       id="path212"
       style="fill:#99ff66" />
    <path
       d="M2602 3722 c-8 -6 18 -28 81 -70 51 -34 99 -62 107 -62 21 0 80 23 80 31 0 4 -46 30 -102 58 -100 49 -139 60 -166 43z"
       id="path214"
       style="fill:#99ff66" />
    <path
       d="M2487 3703 c-16 -3 -27 -8 -25 -13 5 -12 158 -140 168 -140 24 0 110 23 110 29 0 13 -187 131 -206 130 -11 -1 -32 -4 -47 -6z"
       id="path216"
       style="fill:#99ff66" />
    <path
       d="M2404 3677 c-3 -8 -1 -30 4 -48 7 -28 16 -37 53 -50 63 -24 109 -32 109 -21 0 9 -117 108 -148 126 -7 4 -15 1 -18 -7z"
       id="path218"
       style="fill:#99ff66" />
    <path
       d="M1355 3642 c-33 -6 -38 -19 -10 -26 31 -8 38 -4 33 16 -1 8 -12 12 -23 10z"
       id="path220"
       style="fill:#99cc33" />
    <path
       d="M1238 3598 c-16 -5 -28 -13 -28 -17 0 -4 27 -13 61 -20 50 -11 64 -11 85 -1 13 7 24 16 24 20 0 7 -83 30 -103 29 -6 0 -24 -5 -39 -11z"
       id="path222"
       style="fill:#99cc33" />
    <path
       d="M1126 3529 c-26 -17 -45 -33 -43 -35 2 -2 39 -6 83 -9 68 -4 84 -2 113 16 39 24 33 32 -34 43 -22 4 -47 9 -56 12 -8 2 -37 -10 -63 -27z"
       id="path224"
       style="fill:#99cc33" />
    <path
       d="M2400 3539 c0 -17 4 -20 23 -15 12 3 29 6 37 6 9 1 5 6 -10 15 -35 20 -50 18 -50 -6z"
       id="path226"
       style="fill:#99cc33" />
    <path
       d="M1372 3537 c-6 -7 -14 -33 -17 -57 -4 -25 -8 -56 -11 -70 -4 -23 -1 -21 32 15 31 35 34 44 29 75 -8 43 -18 55 -33 37z"
       id="path228"
       style="fill:#99cc33" />
    <path
       d="M1303 3485 c-14 -10 -26 -34 -33 -73 -7 -31 -16 -65 -21 -74 -12 -22 -1 -23 28 -3 25 17 56 102 51 140 -3 24 -4 25 -25 10z"
       id="path230"
       style="fill:#99cc33" />
    <path
       d="M2422 3492 c-10 -7 -8 -12 5 -24 14 -12 33 -14 81 -10 61 4 62 5 46 23 -13 14 -31 19 -68 19 -28 0 -57 -4 -64 -8z"
       id="path232"
       style="fill:#99cc33" />
    <path
       d="M1035 3438 c-15 -23 -15 -23 22 -26 57 -5 115 6 143 28 l25 20 -87 0 c-79 0 -88 -2 -103 -22z"
       id="path234"
       style="fill:#99cc33" />
    <path
       d="M2374 3414 c-5 -36 -2 -55 12 -83 l19 -36 3 69 c2 38 1 75 -2 83 -11 27 -25 12 -32 -33z"
       id="path236"
       style="fill:#99cc33" />
    <path
       d="M1214 3417 c-18 -16 -33 -45 -44 -84 l-17 -61 28 10 c27 9 51 55 65 126 8 38 4 39 -32 9z"
       id="path238"
       style="fill:#99cc33" />
    <path
       d="M2470 3422 c0 -21 40 -41 100 -52 36 -6 79 -13 95 -16 l30 -6 -40 41 c-39 41 -40 41 -112 41 -40 0 -73 -4 -73 -8z"
       id="path240"
       style="fill:#99cc33" />
    <path
       d="M2432 3340 c5 -68 26 -120 49 -120 16 0 1 139 -17 168 -27 42 -37 26 -32 -48z"
       id="path242"
       style="fill:#99cc33" />
    <path
       d="M1032 3383 c-30 -4 -37 -11 -62 -66 -15 -34 -27 -63 -25 -65 4 -4 162 115 170 128 6 10 -17 11 -83 3z"
       id="path244"
       style="fill:#99cc33" />
    <path
       d="M1079 3314 c-41 -31 -87 -68 -104 -82 l-30 -25 30 7 c81 19 134 37 145 50 11 14 43 106 36 106 -1 0 -36 -25 -77 -56z"
       id="path246"
       style="fill:#99cc33" />
    <path
       d="M2557 3323 c9 -13 33 -27 57 -33 22 -6 56 -16 74 -22 40 -12 46 -8 31 24 -9 21 -22 27 -94 39 l-83 15 15 -23z"
       id="path248"
       style="fill:#99cc33" />
    <path
       d="M2505 3295 c13 -103 16 -115 36 -126 12 -6 23 -8 25 -6 3 3 2 32 -2 65 -5 49 -12 66 -36 89 l-30 28 7 -50z"
       id="path250"
       style="fill:#99cc33" />
    <path
       d="M2690 3183 c41 -43 77 -80 79 -83 2 -3 1 15 -3 40 -12 74 -25 92 -81 107 -27 7 -54 13 -60 13 -5 0 24 -35 65 -77z"
       id="path252"
       style="fill:#99cc33" />
    <path
       d="M2590 3219 c-1 -71 9 -86 79 -120 36 -18 70 -34 74 -37 21 -11 -17 40 -82 108 -64 68 -70 73 -71 49z"
       id="path254"
       style="fill:#99cc33" />
    <path
       d="M5471 3041 c-51 -87 -153 -197 -225 -245 -49 -32 -53 -39 -66 -93 -7 -32 -22 -85 -33 -118 -17 -49 -21 -87 -22 -210 -1 -153 -19 -263 -35 -220 -5 11 -6 40 -3 65 l5 45 -20 -24 c-29 -36 -105 -194 -182 -376 -144 -341 -262 -589 -344 -725 -75 -122 -118 -209 -144 -290 -23 -71 -55 -211 -49 -217 2 -2 12 18 22 44 21 59 112 233 131 253 12 12 14 -6 14 -136 0 -156 7 -244 20 -244 26 0 87 213 99 343 7 78 12 93 46 142 43 63 143 167 360 376 213 204 340 341 385 418 59 100 97 226 109 361 6 63 13 142 16 175 l6 60 -58 -99 c-85 -145 -109 -137 -35 12 38 75 68 119 165 241 l76 95 -28 32 c-86 98 -134 200 -154 326 l-13 81 -43 -72z m-61 -725 c0 -32 -134 -124 -164 -113 -28 11 -17 27 37 52 28 14 66 36 82 50 35 28 45 31 45 11z"
       id="path256"
       style="fill:#ffcc99" />
    <path
       d="M5094 2710 c-22 -11 -71 -25 -107 -32 l-67 -13 0 -85 c0 -86 -11 -128 -24 -95 -3 9 -6 35 -6 58 l-1 42 -24 -48 c-13 -26 -50 -86 -81 -135 -139 -211 -179 -315 -250 -635 -66 -304 -145 -562 -216 -717 -40 -84 -98 -244 -98 -264 1 -17 37 54 55 107 9 26 20 47 24 47 4 0 14 -39 21 -87 15 -93 14 -94 50 27 28 92 48 134 163 329 105 180 167 308 271 561 128 310 157 372 218 463 49 74 58 95 58 133 0 47 -5 51 -34 29 -41 -31 -50 -15 -14 23 46 48 51 58 82 177 15 55 29 108 32 118 7 21 0 21 -52 -3z"
       id="path258"
       style="fill:#ffcc99" />
    <path
       d="M4670 851 c0 -57 -47 -228 -80 -290 -40 -75 -195 -246 -207 -228 -4 6 -16 30 -25 52 -14 32 -17 35 -17 16 -1 -22 29 -223 33 -228 1 -1 37 30 79 70 75 70 78 74 108 167 16 52 48 122 69 155 21 33 55 93 75 133 38 78 39 103 3 155 -25 35 -38 34 -38 -2z"
       id="path260"
       style="fill:#ff0099" />
    <path
       d="M4241 748 c-41 -93 -43 -104 -39 -167 5 -67 33 -146 52 -146 6 0 18 27 29 60 14 46 19 93 21 197 0 80 -3 141 -9 147 -7 6 -25 -25 -54 -91z"
       id="path262"
       style="fill:#ffcc99" />
    <path
       d="M4428 719 c-70 -151 -84 -201 -69 -255 6 -22 17 -48 25 -59 14 -19 17 -18 65 30 l50 50 -7 179 -7 179 -57 -124z"
       id="path264"
       style="fill:#ffcc99" />
    <path
       d="M4190 465 c0 -54 57 -261 73 -267 18 -7 46 108 46 187 l-1 80 -15 -35 c-8 -19 -19 -46 -24 -59 -12 -31 -23 -20 -54 55 -14 32 -25 50 -25 39z"
       id="path266"
       style="fill:#ff0099" />
    <path
       d="M1735 5634 c-39 -41 -39 -43 -19 -48 13 -4 36 -20 53 -36 28 -28 30 -29 36 -11 3 11 20 32 36 46 27 22 29 26 12 31 -10 4 -31 19 -48 34 l-30 27 -40 -43z"
       id="path268"
       style="fill:#99ff99" />
    <path
       d="M2745 5229 c-11 -4 -32 -8 -46 -8 -25 -1 -27 -4 -26 -50 1 -47 2 -49 25 -40 13 5 36 9 51 9 28 0 28 1 23 48 -2 26 -5 48 -6 48 0 1 -10 -2 -21 -7z"
       id="path270"
       style="fill:#cc99cc" />
    <path
       d="M1347 5096 c-3 -12 -9 -31 -12 -43 -5 -16 -3 -23 6 -23 8 0 26 -7 41 -14 27 -14 27 -14 35 22 11 53 11 53 -29 66 -34 12 -37 12 -41 -8z"
       id="path272"
       style="fill:#cc99cc" />
    <path
       d="M1832 4891 l-21 -29 24 -22 24 -23 20 24 c26 30 26 31 -2 57 l-23 22 -22 -29z"
       id="path274"
       style="fill:#99ff99" />
    <path
       d="M2504 4722 c-29 -3 -32 -6 -31 -38 1 -34 2 -34 36 -28 45 8 44 6 34 40 -7 25 -12 29 -39 26z"
       id="path276"
       style="fill:#cc99cc" />
    <path
       d="M1303 4345 c2 -34 3 -35 37 -29 19 4 36 7 37 8 1 0 -1 13 -4 29 -5 23 -10 27 -39 27 -33 0 -34 -1 -31 -35z"
       id="path278"
       style="fill:#cc99cc" />
    <path
       d="M2628 4263 c-23 -4 -26 -9 -25 -38 2 -32 3 -33 37 -28 19 3 36 7 38 8 5 4 -11 65 -17 64 -3 -1 -18 -4 -33 -6z"
       id="path280"
       style="fill:#99ff99" />
  </g>
</svg>
