<?xml version="1.0" standalone="no"?>
<!DOCTYPE svg PUBLIC "-//W3C//DTD SVG 20010904//EN"
 "http://www.w3.org/TR/2001/REC-SVG-20010904/DTD/svg10.dtd">
<svg version="1.0" xmlns="http://www.w3.org/2000/svg"
 width="905.000000pt" height="905.000000pt" viewBox="0 0 905.000000 905.000000"
 preserveAspectRatio="xMidYMid meet">
<metadata>
Created by potrace 1.14, written by Peter Selinger 2001-2017
</metadata>
<g transform="translate(0.000000,905.000000) scale(0.100000,-0.100000)"
fill="#000000" stroke="none">
<path d="M1581 7304 c-21 -26 -27 -58 -23 -120 2 -28 -3 -35 -45 -59 -85 -49
-146 -97 -239 -187 l-91 -89 0 53 c0 89 -44 148 -84 112 -34 -31 -21 -145 23
-191 21 -23 21 -25 6 -51 -25 -41 -35 -37 -41 14 -5 50 -34 88 -59 79 -45 -18
-57 -138 -21 -211 l20 -41 -33 -64 c-18 -35 -33 -75 -33 -89 0 -22 2 -21 20
13 15 29 36 45 100 78 l81 40 49 -20 c57 -25 71 -26 109 -6 35 18 41 54 10 62
-29 8 -25 17 14 31 62 23 85 79 39 96 -22 9 -74 -24 -100 -65 -32 -49 -42 -59
-58 -59 -11 0 -11 5 1 30 17 33 15 71 -3 77 -7 3 -24 -7 -38 -21 -19 -19 -25
-35 -25 -69 l0 -44 -70 -31 c-38 -17 -70 -27 -70 -22 0 12 61 118 110 189 35
53 45 62 63 56 55 -16 105 -17 136 -1 39 20 46 37 31 66 -11 20 -18 22 -66 18
-30 -3 -54 -1 -54 3 0 27 286 249 320 249 6 0 21 -6 33 -14 58 -37 137 -26
137 18 0 35 -19 45 -88 47 l-62 2 0 39 c0 50 25 100 48 96 26 -5 27 -53 2 -93
-12 -19 -17 -35 -11 -35 21 0 52 64 49 100 -3 31 -6 35 -34 38 -25 2 -37 -3
-53 -24z m109 -152 c42 -34 5 -53 -59 -31 -37 13 -40 26 -8 39 33 13 42 12 67
-8z m-532 -242 c5 -73 -9 -97 -31 -54 -18 36 -32 118 -23 141 6 15 9 15 28 -5
16 -16 23 -37 26 -82z m184 -64 c5 -6 -2 -19 -14 -30 -18 -14 -34 -17 -71 -13
-75 7 -75 26 -1 52 40 14 73 11 86 -9z m-294 -19 c27 -32 21 -177 -7 -177 -15
0 -31 60 -31 111 0 72 14 96 38 66z m326 -125 c-13 -20 -73 -57 -80 -49 -10 9
28 65 50 75 27 13 45 -2 30 -26z m-165 -24 c-5 -18 -9 -34 -9 -35 0 -2 -4 -3
-10 -3 -13 0 -13 12 0 44 14 38 31 33 19 -6z m95 -64 c24 -9 19 -33 -9 -40
-28 -7 -77 7 -82 23 -6 16 61 28 91 17z"/>
<path d="M1425 7300 c-34 -38 -27 -199 8 -187 7 2 27 23 45 46 34 45 43 102
22 142 -14 25 -52 24 -75 -1z m61 -68 c-5 -36 -31 -82 -45 -82 -24 0 -27 89
-5 132 l17 32 19 -24 c15 -18 18 -34 14 -58z"/>
<path d="M3651 7305 c-103 -23 -214 -81 -269 -139 -26 -28 -55 -62 -63 -76
l-17 -25 -23 21 c-80 72 -213 92 -357 55 -45 -12 -134 -46 -198 -76 -108 -51
-119 -54 -158 -45 -139 32 -256 -20 -272 -121 l-6 -37 -69 29 c-201 86 -407
74 -469 -25 -27 -45 -25 -77 8 -108 27 -27 126 -78 150 -78 21 0 13 -14 -20
-35 -67 -43 -62 -73 14 -85 l43 -7 -76 -36 c-89 -43 -207 -77 -265 -77 -48 0
-88 34 -82 72 4 32 49 32 63 1 14 -33 55 -30 89 6 52 54 31 127 -46 167 -62
32 -147 5 -215 -69 -66 -72 -79 -162 -31 -223 11 -14 18 -27 15 -30 -11 -11
-65 77 -71 116 -9 59 -30 52 -22 -7 15 -108 122 -173 286 -173 l46 0 -30 -62
c-33 -67 -37 -107 -40 -418 -1 -124 24 -182 111 -259 l61 -53 -15 -55 c-10
-40 -13 -94 -10 -201 6 -168 12 -190 133 -440 65 -134 71 -152 55 -152 -19 0
-69 -51 -86 -87 l-18 -38 -44 140 c-25 77 -57 173 -72 214 l-28 73 20 62 c13
39 20 90 21 143 1 75 -1 84 -29 124 -47 67 -90 92 -148 86 -59 -5 -58 11 2 31
51 17 121 81 121 110 0 11 -12 30 -27 42 -31 24 -65 20 -99 -12 l-22 -20 -6
54 c-4 29 -14 97 -23 150 l-16 97 32 39 c35 44 81 138 81 165 0 10 -7 17 -18
17 -29 0 -79 -61 -98 -120 l-18 -54 -12 29 c-18 43 -17 56 10 96 37 54 77 156
79 201 2 59 -35 77 -77 35 -24 -24 -66 -124 -66 -157 0 -30 -16 -24 -30 10
-20 49 -67 108 -99 125 -41 20 -71 19 -71 -3 0 -31 70 -122 130 -169 32 -25
63 -57 68 -72 6 -14 13 -34 17 -45 6 -13 -6 -8 -39 18 -66 50 -117 64 -151 42
-64 -42 -2 -102 145 -140 38 -10 74 -24 80 -32 11 -13 42 -115 36 -121 -1 -1
-30 24 -63 57 -63 61 -95 77 -137 66 -82 -20 10 -158 150 -225 l64 -31 0 -54
c0 -85 -19 -156 -53 -199 -22 -26 -38 -65 -53 -125 -26 -103 -30 -71 -8 66 18
109 14 164 -16 222 -28 55 -86 118 -129 140 -33 17 -37 23 -49 86 -13 71 -58
176 -78 182 -24 6 -44 -29 -44 -76 0 -47 28 -123 49 -136 21 -13 11 -26 -19
-26 -36 0 -100 -25 -100 -38 0 -6 16 -6 42 0 55 13 139 3 188 -22 50 -25 114
-99 128 -148 15 -51 15 -84 -3 -217 -18 -132 -19 -201 -4 -211 16 -9 25 8 60
121 37 119 47 140 89 183 25 25 41 32 71 32 51 0 112 -56 129 -120 13 -48 7
-150 -11 -197 l-10 -28 -29 47 c-49 78 -98 98 -138 56 -27 -30 -42 -71 -42
-117 0 -59 44 -217 84 -305 l36 -79 -16 -120 c-13 -97 -14 -130 -5 -170 20
-89 42 -97 97 -37 29 32 40 37 55 30 16 -9 17 -24 16 -130 -1 -117 -1 -119
-19 -100 -38 41 -79 16 -101 -61 l-13 -44 -41 62 c-22 33 -55 89 -73 122 l-33
61 47 91 c33 65 46 102 46 133 0 47 -24 82 -64 92 -28 7 -79 -17 -100 -48 -9
-12 -18 -20 -20 -17 -15 15 -46 256 -46 356 0 87 -3 114 -12 110 -15 -4 -18
-156 -5 -284 l8 -82 -32 30 c-103 97 -259 106 -259 16 0 -54 113 -183 201
-228 24 -12 69 -30 99 -39 l55 -18 65 -129 c36 -71 92 -167 124 -213 57 -81
58 -83 30 -76 -65 15 -105 18 -139 12 -48 -9 -112 -68 -127 -117 -10 -34 -9
-42 8 -60 17 -19 27 -21 87 -16 56 4 85 13 167 55 85 43 101 48 111 35 10 -12
8 -18 -14 -36 -24 -20 -47 -63 -47 -88 0 -6 11 -20 25 -33 l25 -23 -61 -28
c-141 -63 -366 -83 -426 -39 -69 51 -99 143 -68 205 25 48 57 74 160 124 97
48 132 84 141 146 7 43 -22 97 -65 123 -17 10 -75 25 -129 32 -111 17 -153 28
-201 56 -36 20 -47 18 -38 -6 10 -24 74 -46 182 -62 55 -8 114 -19 130 -24
110 -36 130 -164 32 -205 -124 -53 -149 -67 -191 -105 -53 -49 -71 -94 -63
-163 17 -137 144 -198 337 -164 55 10 48 2 -47 -49 l-72 -39 -23 22 c-35 33
-91 53 -150 53 -59 0 -124 -15 -134 -31 -11 -18 2 -20 39 -4 74 31 194 11 235
-38 10 -12 4 -20 -37 -46 -99 -64 -161 -146 -161 -214 0 -36 3 -39 48 -59 26
-11 49 -22 51 -24 2 -2 -6 -15 -18 -30 -11 -15 -21 -32 -21 -38 0 -6 -4 -17
-9 -24 -7 -12 -13 -11 -37 1 -16 8 -44 18 -61 22 -49 10 -41 -12 8 -25 43 -12
89 -49 89 -72 0 -7 -10 -20 -23 -27 -12 -8 -41 -30 -64 -50 -38 -31 -43 -40
-43 -77 0 -35 5 -47 35 -73 19 -16 53 -36 75 -42 22 -7 40 -16 40 -21 0 -23
-45 -92 -96 -147 -68 -74 -60 -81 11 -11 l51 50 1 -82 c2 -130 49 -249 130
-323 35 -32 35 -33 18 -59 -31 -47 -166 -133 -237 -150 -16 -3 -28 -10 -28
-15 0 -27 155 43 225 100 49 40 65 42 65 8 0 -54 73 -147 153 -194 144 -84
392 -116 508 -65 l24 11 -25 -7 c-66 -16 -211 -16 -287 1 -103 23 -231 83
-280 132 -41 41 -73 113 -73 166 0 24 3 28 18 22 77 -32 182 -26 271 17 64 30
188 158 241 248 l44 75 12 -73 c16 -95 64 -195 122 -256 49 -50 149 -106 192
-106 14 0 31 -4 39 -9 20 -13 -4 -48 -66 -97 -67 -53 -73 -60 -35 -38 18 10
58 40 87 67 l54 47 46 -48 c86 -93 214 -142 373 -144 99 0 108 -4 43 -19 -153
-34 -497 -69 -686 -69 -311 0 -767 68 -999 149 -69 24 -66 24 -66 11 0 -24
191 -80 397 -114 73 -13 136 -26 139 -29 4 -4 2 -55 -4 -114 -7 -81 -15 -118
-32 -146 -12 -21 -24 -36 -26 -34 -3 2 3 32 12 67 26 102 5 158 -56 145 -27
-6 -30 -4 -30 19 0 16 -6 26 -15 26 -9 0 -15 -9 -15 -25 0 -21 -8 -27 -66 -45
-36 -11 -72 -20 -79 -20 -13 0 -20 29 -27 113 -2 15 -7 27 -13 27 -12 0 -12
-45 -2 -110 7 -44 6 -45 -26 -60 -64 -30 -41 -72 75 -142 38 -22 68 -42 68
-43 0 -2 -39 6 -88 16 -98 22 -127 16 -138 -27 -9 -37 4 -215 18 -231 21 -26
74 -15 144 32 37 25 69 44 71 42 2 -2 -11 -34 -28 -71 -40 -86 -34 -94 69 -98
71 -3 77 -5 80 -26 5 -30 22 -28 22 3 0 20 7 26 43 35 90 23 157 65 157 98 0
9 -23 40 -52 69 l-51 52 74 -6 c119 -9 174 27 155 99 -7 28 -96 181 -121 208
-23 25 -47 25 -70 0 -10 -11 -22 -20 -27 -20 -7 0 -2 96 7 126 2 7 33 5 102
-7 212 -37 431 -52 682 -46 130 4 261 11 291 16 30 6 58 7 61 3 4 -4 10 -22
14 -40 6 -30 5 -33 -27 -39 l-33 -7 30 -6 c34 -6 75 -59 75 -98 0 -86 -69
-175 -173 -222 -86 -39 -237 -79 -327 -86 -164 -14 -300 47 -300 134 0 25 28
58 56 66 18 6 22 2 22 -20 -1 -73 65 -115 189 -122 157 -9 319 64 404 182 36
49 37 89 4 122 -14 14 -23 29 -20 33 10 18 -257 -49 -401 -100 -115 -40 -258
-105 -309 -138 -110 -73 -113 -178 -7 -271 32 -29 54 -40 76 -40 28 1 29 2 11
12 -32 17 -95 80 -111 110 -8 15 -14 47 -14 72 0 38 6 50 37 83 l37 38 7 -44
c10 -54 20 -66 83 -98 136 -69 475 -21 638 90 105 72 148 192 99 274 l-20 31
24 6 c46 12 145 19 145 11 0 -5 -7 -16 -16 -26 -24 -27 -29 -99 -10 -136 20
-40 63 -65 156 -95 65 -20 95 -23 230 -23 142 1 162 3 235 28 104 35 155 80
155 136 0 12 3 21 6 21 15 0 163 -95 204 -131 l45 -39 -33 0 c-134 0 -276
-119 -258 -216 9 -43 65 -104 97 -104 23 0 22 1 -8 23 -17 12 -39 35 -48 51
-37 62 7 157 95 203 65 34 200 29 200 -7 0 -6 -19 -11 -42 -11 -43 -1 -43 -1
12 -10 41 -7 61 -16 76 -35 36 -44 67 -115 72 -166 4 -40 8 -48 25 -48 18 0
19 5 14 55 -6 63 -43 133 -110 211 -42 50 -44 55 -50 135 -4 46 -15 116 -26
154 -10 39 -22 82 -25 97 l-6 26 42 -20 c64 -31 115 -29 143 5 l22 29 6 -61
c9 -103 93 -218 199 -272 98 -50 258 -92 401 -105 88 -8 84 0 62 -117 -17 -89
-19 -137 -6 -137 5 0 15 38 22 85 7 47 15 88 19 90 3 2 53 9 110 15 101 10
315 45 353 56 14 5 29 -17 78 -120 53 -111 79 -149 79 -116 0 15 -83 187 -115
238 -19 31 -23 43 -13 46 7 2 63 16 123 31 225 56 391 116 445 161 63 54 81
142 45 219 -26 54 -135 166 -244 250 l-90 70 -1 50 c0 28 -7 95 -15 149 -8 55
-13 102 -10 105 3 3 25 4 48 2 23 -1 128 5 232 14 196 17 274 15 404 -12 189
-38 300 -136 301 -268 0 -81 -47 -149 -109 -157 -20 -3 -24 1 -25 26 -2 43
-50 80 -94 72 -180 -29 -134 -265 57 -291 56 -8 260 31 381 72 167 56 420 212
540 333 218 219 225 475 20 694 -32 33 -90 81 -128 106 -39 25 -71 48 -71 53
-1 4 20 7 47 7 26 1 71 9 100 19 47 16 52 17 46 2 -4 -9 -9 -41 -11 -71 -4
-48 0 -61 26 -103 34 -53 129 -120 195 -138 23 -6 61 -18 85 -25 127 -40 328
19 423 124 51 57 108 159 108 193 0 16 -15 -5 -41 -59 -63 -125 -157 -201
-296 -237 -31 -8 -73 -15 -93 -15 -31 1 -27 4 45 33 103 42 166 87 220 159
114 151 160 324 160 598 0 157 -2 182 -23 242 -60 174 -217 255 -479 246 -67
-2 -120 -1 -115 3 4 3 50 17 102 30 72 18 122 24 205 24 123 -1 176 -17 268
-83 34 -24 47 -30 47 -18 0 20 -80 74 -143 96 -81 28 -169 33 -287 16 -58 -9
-115 -19 -128 -22 -22 -6 -21 -4 10 42 28 42 33 58 33 109 0 63 -12 76 -53 60
-15 -6 -14 -8 6 -16 17 -7 22 -16 22 -46 0 -21 -8 -54 -18 -73 -21 -42 -101
-104 -159 -124 -43 -15 -59 -5 -24 13 32 17 88 113 101 173 37 166 -89 339
-248 341 -72 0 -121 -16 -178 -60 -42 -31 -45 -32 -39 -11 4 13 25 55 47 95
22 40 54 109 73 154 l33 82 7 -49 c11 -91 27 -170 35 -184 7 -11 16 -8 43 13
90 68 121 191 91 358 l-6 34 17 -25 c34 -48 79 -90 96 -90 14 0 20 15 29 71
29 170 -26 354 -175 580 -36 55 -65 102 -65 104 0 3 30 -15 68 -40 123 -82
190 -117 219 -113 27 3 28 6 31 60 2 35 -3 71 -13 94 -9 22 -12 41 -6 48 18
23 21 67 7 99 -48 117 -201 199 -371 199 -49 0 -120 4 -157 10 l-67 10 -21 62
c-73 220 -297 435 -548 526 -132 48 -233 62 -421 58 l-164 -3 -12 48 c-17 66
-61 125 -119 162 -66 40 -160 46 -270 16 -101 -28 -234 -28 -342 -1 -125 32
-281 115 -519 275 -231 156 -388 239 -515 275 -98 28 -253 35 -339 15z m293
-48 c100 -48 179 -104 331 -236 66 -58 140 -122 164 -142 l43 -36 -71 -72
c-76 -77 -84 -76 -56 15 20 66 20 138 -1 155 -13 11 -21 10 -50 -6 l-34 -18
-37 44 c-71 87 -202 206 -269 246 -64 38 -103 54 -194 82 -32 9 -29 10 30 8
52 -2 82 -11 144 -40z m-130 -11 c38 -14 94 -41 125 -60 76 -47 204 -159 271
-239 45 -54 54 -71 55 -106 1 -22 -2 -41 -5 -41 -4 0 -29 28 -57 63 -157 193
-309 305 -464 342 -80 18 -137 19 -214 1 -33 -8 -61 -13 -63 -11 -6 5 67 49
113 68 54 23 150 16 239 -17z m265 -5 c95 -38 172 -84 388 -229 117 -78 249
-162 293 -186 134 -75 277 -125 358 -126 17 0 32 -4 32 -10 0 -16 -251 -13
-302 4 -24 8 -60 17 -82 21 -21 3 -63 18 -92 33 -45 22 -54 31 -54 52 0 31
-32 50 -83 50 -26 0 -52 18 -142 97 -216 189 -300 255 -372 292 -89 45 -55 46
56 2z m-358 -55 c119 -26 247 -105 360 -223 26 -26 91 -102 144 -168 154 -189
203 -242 283 -306 145 -117 248 -153 432 -153 134 0 161 4 400 64 297 75 400
92 585 97 147 4 184 2 273 -16 189 -39 365 -135 489 -264 202 -211 261 -445
162 -640 -37 -71 -144 -169 -233 -213 -72 -35 -88 -39 -165 -41 -312 -7 -366
1 -420 62 -70 80 -40 207 54 231 34 8 92 -21 110 -55 18 -36 16 -37 -27 -11
-99 60 -179 -33 -93 -109 92 -81 252 -58 350 51 121 135 88 317 -89 493 -174
172 -386 252 -761 290 -234 23 -356 38 -351 43 11 11 289 57 407 67 198 17
466 -47 648 -155 250 -149 400 -375 389 -585 -7 -128 -59 -206 -182 -276 -39
-22 -60 -37 -46 -33 85 23 182 106 225 190 27 52 30 68 29 149 -1 72 -6 102
-26 153 -42 103 -88 171 -178 262 -148 152 -299 235 -525 292 -76 19 -117 22
-260 22 -161 0 -181 -2 -375 -43 -160 -33 -235 -44 -340 -48 -161 -6 -218 5
-355 72 -116 57 -206 125 -405 310 -252 233 -359 308 -510 359 -103 34 -206
42 -299 22 -41 -9 -76 -14 -77 -13 -2 1 8 17 22 35 32 40 91 72 164 88 73 16
112 16 191 0z m-527 -75 c46 -23 113 -78 104 -86 -3 -3 -25 2 -49 12 -57 21
-250 23 -369 4 -85 -14 -232 -55 -303 -85 -63 -26 -31 1 59 50 109 59 231 111
292 123 79 17 213 7 266 -18z m447 -62 c101 -26 235 -92 338 -169 42 -31 139
-115 216 -186 229 -210 292 -259 415 -321 72 -36 55 -44 -31 -14 -86 29 -173
77 -303 165 -144 98 -252 162 -401 241 -60 32 -149 80 -196 106 -118 66 -207
99 -272 99 -56 0 -77 12 -77 42 0 20 29 34 95 48 69 14 128 11 216 -11z m-375
-44 c58 -28 66 -40 34 -50 -11 -3 -33 -22 -48 -41 l-29 -35 -84 17 c-167 34
-372 -7 -589 -116 -69 -35 -217 -122 -340 -202 -393 -252 -654 -321 -778 -205
-78 73 -66 179 29 260 50 43 102 54 152 33 47 -19 71 -57 63 -98 -11 -56 -56
-83 -56 -34 0 14 -4 36 -9 49 -21 54 -124 39 -156 -22 -19 -37 -22 -109 -6
-139 39 -73 205 -88 356 -31 83 31 188 105 306 218 186 176 255 227 413 302
185 88 388 131 585 124 87 -3 113 -8 157 -30z m-703 -1 c25 -9 21 -19 -18 -37
-41 -19 -49 -21 -40 -8 3 5 1 12 -4 16 -6 3 -15 -4 -21 -15 -13 -24 -30 -18
-30 11 0 10 -4 19 -10 19 -5 0 -10 -11 -10 -24 0 -18 -6 -26 -22 -28 -22 -3
-22 -4 6 -19 l28 -16 -93 -66 -93 -66 -35 28 c-34 27 -93 61 -106 61 -16 0 -1
-19 24 -30 32 -13 81 -60 63 -60 -6 0 -51 11 -98 25 -47 14 -103 24 -123 24
-20 -1 -27 -3 -16 -6 90 -20 193 -47 205 -54 9 -5 -35 -9 -105 -10 -101 -2
-111 -3 -65 -9 30 -5 88 -8 129 -9 l75 -1 -34 -25 c-30 -22 -44 -25 -114 -25
-94 0 -168 18 -231 54 -77 46 -88 103 -30 155 86 75 244 65 454 -30 35 -16 67
-27 70 -24 3 3 4 25 2 49 -2 35 3 49 25 76 40 47 78 61 145 56 31 -3 63 -8 72
-12z m953 -74 c28 -10 87 -38 130 -63 43 -24 165 -92 270 -149 105 -58 251
-146 325 -195 180 -121 236 -151 337 -184 l87 -28 -87 0 c-207 -2 -366 60
-733 285 -313 191 -437 254 -501 254 -31 0 -74 -41 -74 -72 -1 -21 -1 -22 -11
-4 -6 10 -9 41 -7 68 11 108 109 141 264 88z m832 -39 c5 -36 -29 -164 -40
-153 -16 16 -22 136 -9 161 15 28 45 23 49 -8z m-1357 -22 c-139 -36 -385
-174 -484 -273 -58 -58 -69 -64 -135 -79 -39 -9 -89 -25 -111 -37 -26 -13 -60
-20 -95 -20 -30 0 -65 -4 -78 -9 -44 -16 -80 -22 -74 -12 3 5 32 24 64 41 31
18 122 74 202 125 160 101 299 180 306 173 11 -12 -265 -222 -343 -262 -18 -9
-33 -19 -33 -21 0 -3 26 8 59 24 60 31 153 98 251 182 161 137 284 186 475
187 l70 0 -74 -19z m209 -8 c35 -10 37 -49 6 -117 -51 -112 -176 -202 -351
-255 -60 -18 -104 -22 -317 -26 -164 -4 -248 -2 -248 5 0 12 127 43 345 83
174 32 245 54 350 107 59 29 185 117 185 128 0 6 -8 2 -89 -54 -79 -54 -178
-103 -251 -126 -71 -21 -330 -64 -336 -55 -5 9 116 106 196 156 210 130 395
186 510 154z m256 -65 c62 -28 134 -71 383 -224 147 -90 331 -190 416 -225
l40 -17 -90 6 c-177 11 -380 66 -551 150 -100 49 -245 141 -311 199 -38 32
-43 42 -43 79 0 23 6 48 13 55 17 18 74 9 143 -23z m1138 12 c20 -32 -38 -76
-128 -99 -43 -11 -82 -19 -87 -17 -15 5 49 86 90 114 43 29 107 30 125 2z m66
-73 c29 -15 40 -25 30 -28 -8 -3 -35 -10 -60 -17 -25 -6 -73 -25 -106 -42
l-62 -30 -41 21 c-43 22 -54 41 -23 41 38 0 139 32 172 55 19 13 37 24 40 24
3 0 25 -11 50 -24z m890 -6 c71 -15 140 -72 169 -139 33 -77 30 -81 -74 -102
-50 -10 -96 -16 -102 -13 -7 2 -13 16 -13 31 0 37 -39 102 -75 124 -65 39
-172 35 -320 -15 -152 -50 -354 -105 -421 -115 -72 -10 -165 -1 -201 19 -19
10 -101 91 -92 91 2 0 32 -10 64 -22 54 -21 77 -23 220 -22 153 1 165 3 280
36 66 20 167 52 225 73 97 34 214 62 267 64 12 1 45 -4 73 -10z m-2317 -36
c-8 -57 -56 -155 -99 -203 -55 -61 -144 -116 -238 -147 -76 -25 -93 -27 -271
-27 -104 -1 -273 3 -375 8 -155 7 -197 6 -260 -8 -95 -20 -200 -72 -267 -131
-29 -26 -53 -44 -53 -41 0 14 55 94 89 129 78 84 181 134 321 157 46 8 189 14
370 15 234 1 310 5 368 18 161 37 304 120 372 217 19 27 38 49 42 50 4 0 4
-17 1 -37z m1575 -22 c-6 -34 -67 -51 -181 -51 -65 0 -106 4 -102 9 9 16 115
52 175 59 74 10 112 4 108 -17z m-1353 -142 c54 -99 135 -178 227 -223 71 -34
195 -67 241 -65 12 1 -7 7 -43 14 -133 27 -261 93 -327 168 -38 43 -88 126
-80 133 2 3 45 -18 93 -46 206 -118 453 -186 710 -195 67 -3 145 -9 174 -15
29 -5 96 -10 148 -10 52 0 93 -2 90 -5 -11 -11 -320 -37 -528 -44 l-215 -8
190 -1 c152 -2 248 4 485 29 367 39 634 45 745 15 137 -36 234 -106 291 -208
26 -48 29 -62 29 -143 0 -81 -3 -95 -30 -143 -40 -73 -130 -155 -202 -184 -84
-33 -207 -32 -284 3 -70 33 -123 87 -143 147 -40 117 2 224 114 291 19 11 28
21 19 21 -19 0 -85 -43 -116 -75 -40 -42 -238 -46 -376 -8 -65 18 -83 33 -39
33 16 0 90 12 163 27 116 23 158 27 310 26 161 0 180 -2 222 -22 121 -59 162
-189 86 -276 -77 -87 -196 -51 -207 63 -5 52 7 70 49 74 22 3 24 -1 26 -37 1
-22 2 -46 2 -52 1 -7 12 -13 26 -13 30 0 55 35 62 89 5 33 1 44 -20 65 -16 16
-37 26 -54 26 -42 -1 -105 -33 -136 -69 -71 -85 -4 -233 125 -275 63 -20 83
-20 149 1 66 22 133 84 148 139 52 187 -73 324 -368 401 -126 34 -379 42 -671
22 -292 -20 -500 -17 -625 9 -197 42 -354 127 -473 256 -50 56 -122 170 -122
195 0 7 21 -3 48 -22 33 -25 59 -56 87 -108z m1685 134 c0 -6 -143 -46 -227
-63 -105 -21 -289 -27 -328 -10 -15 6 -5 9 35 9 72 2 166 24 197 47 22 17 45
19 174 19 82 0 149 -1 149 -2z m-3040 -7 c0 -2 -23 -19 -51 -37 -42 -27 -61
-32 -112 -33 -49 -1 -62 2 -65 15 -6 29 73 59 156 59 39 0 72 -2 72 -4z m1156
-47 c-22 -135 -110 -208 -459 -381 -93 -46 -179 -89 -192 -95 -22 -12 -120
-26 -287 -40 -56 -4 -78 -10 -78 -19 0 -8 -7 -14 -16 -14 -9 0 -57 -21 -106
-47 -186 -96 -298 -249 -333 -455 -7 -44 -14 -46 -50 -15 -56 48 -53 165 7
279 27 51 100 133 153 173 11 8 16 14 10 15 -17 0 -93 -65 -135 -116 -48 -58
-87 -136 -96 -193 -12 -72 -28 -30 -29 72 0 78 4 100 26 147 30 64 83 120 154
161 62 36 52 38 -16 3 -69 -34 -135 -103 -167 -172 -22 -48 -26 -71 -26 -144
0 -96 -8 -96 -25 -1 -43 235 143 484 397 534 62 12 229 9 549 -7 339 -18 582
85 684 291 17 36 34 65 37 65 2 0 2 -18 -2 -41z m2170 11 c45 -22 71 -62 81
-125 5 -32 4 -34 -33 -44 -61 -17 -74 -14 -74 14 0 66 -63 124 -135 126 -57 2
-104 14 -85 23 66 29 192 32 246 6z m-3381 -46 c-33 -31 -92 -77 -132 -104
-157 -105 -354 -130 -430 -54 -23 23 -25 32 -21 81 4 46 10 61 32 80 32 27 58
29 80 7 23 -23 19 -35 -8 -28 -19 4 -32 -1 -50 -19 -29 -29 -26 -54 11 -89 64
-60 273 -1 503 141 36 22 67 40 70 40 3 0 -22 -25 -55 -55z m1302 -62 c64
-132 161 -236 282 -301 31 -16 155 -59 275 -95 121 -37 222 -68 224 -71 11
-11 -59 -17 -137 -12 -222 16 -492 134 -594 259 -41 51 -71 108 -85 163 -15
60 -24 145 -15 144 4 0 27 -39 50 -87z m1893 50 c14 -11 24 -23 23 -28 -2 -11
-149 -74 -171 -74 -15 1 -15 2 1 14 9 7 17 16 17 20 0 14 -21 4 -55 -26 -34
-29 -131 -65 -144 -52 -3 3 17 25 44 49 28 24 48 45 45 48 -3 3 -36 -21 -74
-54 -56 -47 -77 -59 -104 -59 -33 0 -34 1 -19 18 10 10 17 25 17 33 -1 8 -13
0 -29 -18 -38 -45 -86 -45 -161 -1 l-55 33 85 6 c47 4 126 19 175 34 50 14
133 40 185 56 107 33 177 33 220 1z m100 -22 c28 -30 44 -78 34 -104 -5 -13
-71 -32 -80 -23 -2 2 2 17 11 33 20 38 19 50 -6 90 -18 30 -19 34 -4 34 9 0
29 -13 45 -30z m-50 -60 c0 -16 -11 -42 -25 -58 -28 -33 -66 -45 -206 -63 -80
-10 -89 -9 -119 10 -37 22 -37 22 51 40 31 7 69 9 83 5 20 -5 25 -3 21 8 -4
10 20 26 87 55 51 22 96 38 101 36 4 -2 7 -17 7 -33z m-2051 -1 c-41 -78 -162
-173 -399 -314 -221 -132 -272 -167 -340 -235 -110 -110 -154 -257 -106 -354
22 -43 68 -76 107 -76 36 0 92 40 104 74 8 23 6 30 -9 42 -16 11 -23 11 -47
-3 -37 -22 -48 -10 -22 25 32 43 65 55 105 39 108 -46 117 -187 18 -271 -17
-14 -36 -26 -41 -26 -5 0 -8 -5 -6 -12 9 -44 -190 -60 -273 -22 -75 35 -145
107 -187 192 -37 73 -38 80 -38 181 0 96 3 112 28 162 60 123 184 195 365 214
l63 6 -104 -103 c-117 -116 -160 -188 -179 -300 -21 -121 31 -246 129 -308 52
-33 119 -47 160 -32 26 10 25 10 -20 11 -92 2 -166 52 -215 146 -22 43 -26 62
-26 135 1 130 46 224 167 342 96 94 169 143 350 234 236 118 301 158 361 219
55 56 73 67 55 34z m41 -53 c0 -48 49 -215 83 -282 19 -38 56 -93 82 -122 l48
-53 -21 -67 c-37 -120 -45 -186 -39 -318 l6 -124 -37 0 c-26 0 -33 -3 -25 -11
18 -18 82 -28 118 -18 43 12 46 29 6 29 -32 0 -28 -11 -46 133 -8 60 11 212
35 290 l20 65 78 -40 c94 -48 166 -60 282 -46 47 5 86 11 87 12 2 1 -57 2
-130 2 -130 -1 -133 -1 -202 33 -81 40 -175 129 -223 212 -34 61 -87 208 -77
217 4 4 11 -2 17 -13 23 -40 93 -107 158 -150 124 -82 339 -150 517 -163 l98
-7 3 -135 c4 -177 -21 -339 -81 -515 -85 -248 -258 -437 -494 -540 -88 -38
-91 -38 -207 32 -294 176 -462 412 -522 733 -21 112 -32 474 -14 494 10 13 7
14 -20 6 -49 -14 -196 -118 -247 -174 -58 -64 -105 -163 -111 -232 -4 -46 -1
-56 21 -78 32 -31 63 -33 93 -5 41 38 60 2 23 -45 -36 -46 -113 -24 -145 42
-23 49 -15 152 16 217 31 63 172 205 228 230 23 10 42 22 42 26 0 5 76 53 170
109 93 56 208 130 255 166 47 35 85 61 85 57 0 -3 -14 -28 -31 -55 -43 -66
-105 -118 -199 -168 -77 -40 -104 -59 -57 -41 136 53 261 161 312 268 29 62
45 72 45 29z m262 -84 c78 -54 207 -110 313 -138 140 -37 374 -43 705 -19 405
29 644 3 833 -92 100 -50 177 -150 177 -232 0 -91 -67 -191 -143 -212 -107
-29 -211 14 -253 104 -28 62 -30 87 -7 134 31 67 138 100 164 52 15 -28 5 -97
-16 -118 -16 -15 -17 -13 -11 28 8 50 -4 71 -41 71 -40 0 -81 -27 -88 -59 -10
-48 11 -107 50 -137 30 -23 42 -26 88 -22 156 13 213 201 92 306 -48 43 -189
108 -285 134 -70 18 -111 22 -230 21 -131 -1 -166 -5 -368 -46 -306 -63 -340
-66 -438 -34 -44 14 -137 42 -209 62 -188 53 -284 102 -371 189 -83 83 -125
146 -53 81 24 -23 65 -55 91 -73z m1353 27 l30 -21 -50 7 c-27 3 -66 9 -85 13
l-35 6 40 7 c65 10 69 10 100 -12z m-3131 -67 c-52 -46 -81 -87 -129 -177
l-36 -70 4 72 c3 56 11 83 34 124 28 49 34 54 89 70 83 24 84 23 38 -19z
m3056 -2 c0 -5 -19 -10 -42 -9 -37 1 -39 2 -18 9 36 12 60 12 60 0z m916 -65
c291 -50 490 -150 627 -313 122 -146 142 -314 50 -423 -54 -64 -171 -101 -250
-80 -86 23 -126 92 -70 119 24 12 31 11 53 -3 24 -16 25 -18 9 -35 -16 -17
-15 -20 4 -39 49 -49 189 -14 239 59 61 90 -13 268 -148 359 -76 50 -146 73
-345 111 -88 17 -172 35 -186 41 -15 6 -33 26 -43 49 -21 48 -86 113 -151 152
l-50 30 86 -6 c47 -3 126 -13 175 -21z m-4262 -47 c0 -57 -70 -211 -84 -188
-13 21 -12 41 6 120 25 113 80 160 78 68z m-229 -9 c32 -38 69 -109 61 -117
-13 -12 -116 113 -116 140 0 19 30 6 55 -23z m3764 -39 c46 -5 109 -17 140
-27 l56 -17 -120 -7 c-67 -4 -186 -19 -265 -32 -208 -37 -269 -40 -389 -23
-57 8 -105 16 -107 18 -6 7 378 79 461 87 115 12 131 12 224 1z m-2763 -103
c-141 -105 -186 -213 -186 -448 0 -134 71 -282 172 -357 105 -78 193 -111 448
-168 349 -77 472 -155 517 -327 15 -55 16 -76 6 -131 -33 -193 -168 -319 -343
-318 -108 0 -219 57 -254 129 -23 47 -15 51 18 9 15 -20 53 -48 89 -66 116
-57 251 -39 346 46 61 55 86 115 85 199 -2 73 -22 123 -71 171 -53 53 -136 87
-323 134 -302 76 -469 156 -606 294 -123 124 -180 240 -191 391 -14 192 73
353 230 430 82 39 106 44 63 12z m522 -147 c0 -112 -3 -140 -14 -140 -26 0
-37 41 -31 124 5 86 22 156 37 156 5 0 9 -63 8 -140z m1668 125 c274 -44 503
-181 583 -349 17 -33 29 -62 27 -63 -1 -1 -29 23 -62 55 -135 132 -320 227
-699 360 -29 10 -29 10 15 11 25 1 86 -6 136 -14z m-2906 -5 c0 -19 -29 -81
-51 -108 l-22 -27 6 38 c3 21 15 53 27 72 21 34 40 46 40 25z m1140 -68 c-30
-75 -50 -156 -50 -205 0 -30 -4 -34 -40 -44 l-40 -10 0 42 c0 82 53 192 124
256 17 16 32 29 32 29 1 0 -11 -31 -26 -68z m1600 -72 c71 -104 117 -219 139
-344 13 -72 14 -166 2 -166 -5 0 -26 19 -48 43 -37 41 -40 48 -46 123 -9 107
-47 235 -113 374 l-54 115 41 -45 c23 -25 58 -70 79 -100z m86 84 c193 -91
432 -328 513 -506 32 -70 55 -168 49 -213 -3 -26 -7 -30 -39 -33 -36 -3 -216
30 -263 48 -24 9 -24 9 -10 56 19 63 18 177 -2 245 -40 138 -150 282 -294 389
-39 29 -70 54 -70 57 0 8 42 -8 116 -43z m1562 10 c206 -35 297 -77 391 -179
53 -58 81 -119 82 -182 2 -70 -7 -90 -54 -117 -54 -31 -105 -40 -136 -24 -31
16 -40 40 -15 38 37 -4 44 0 44 26 0 37 -15 59 -55 84 -34 21 -73 24 -125 9
-11 -3 -16 6 -18 39 -3 35 0 42 15 42 27 0 121 57 134 81 14 27 3 37 -46 41
-36 3 -40 6 -45 33 -4 26 -10 30 -42 33 -22 2 -55 -5 -80 -16 -68 -31 -238
-167 -238 -191 0 -23 74 -33 151 -21 122 21 124 21 127 -22 2 -22 -5 -52 -17
-77 -12 -22 -21 -58 -21 -81 0 -22 -4 -40 -9 -40 -17 0 -22 19 -11 40 25 47
-26 91 -106 93 -57 0 -82 -22 -86 -77 l-3 -41 -78 -3 -79 -3 26 34 c30 39 32
50 10 71 -11 11 -35 16 -80 16 -56 0 -68 -4 -89 -25 -17 -17 -25 -36 -26 -62
l0 -38 -14 43 c-7 23 -19 49 -25 57 -10 12 -9 16 6 21 137 44 243 135 285 244
12 32 19 75 19 121 l0 72 33 -7 c17 -4 96 -18 175 -32z m-4648 -4 c22 -11 56
-37 77 -58 34 -33 35 -37 17 -40 -29 -4 -129 35 -162 63 -23 20 -24 25 -13 39
18 21 34 20 81 -4z m3081 -83 c133 -114 208 -233 236 -375 14 -71 14 -89 2
-153 -8 -40 -19 -74 -24 -76 -6 -2 -35 12 -65 29 l-55 33 -7 115 c-10 174 -63
324 -163 455 -19 25 -35 48 -35 50 0 11 37 -15 111 -78z m-1769 36 c-30 -43
-62 -146 -62 -201 0 -32 -5 -54 -15 -62 -8 -7 -15 -21 -15 -31 0 -28 -18 -32
-31 -8 -7 14 -10 46 -6 85 5 70 35 133 99 207 43 51 64 58 30 10z m2420 -3
c-9 -22 -21 -40 -27 -40 -16 0 -134 54 -135 62 0 4 30 9 68 11 37 2 77 4 89 5
21 2 21 2 5 -38z m-3002 -24 c-55 -81 -73 -148 -74 -266 0 -89 4 -115 26 -172
68 -179 213 -331 414 -431 71 -36 232 -90 344 -116 251 -59 333 -102 383 -200
61 -122 17 -259 -104 -326 -47 -25 -64 -29 -129 -29 -142 1 -251 82 -252 188
-2 82 47 119 130 97 50 -14 92 -53 92 -86 0 -18 -5 -25 -20 -25 -11 0 -20 6
-20 14 0 21 -40 46 -72 46 -57 0 -86 -68 -55 -130 19 -39 91 -70 162 -70 110
0 186 36 219 103 24 51 15 97 -31 148 -67 74 -142 98 -383 123 -178 19 -233
30 -322 67 -206 85 -397 288 -467 495 -29 85 -39 223 -21 303 20 89 69 179
139 254 35 37 66 65 68 63 3 -3 -9 -25 -27 -50z m694 -9 c-7 -73 10 -126 50
-152 19 -12 27 -28 31 -63 11 -79 52 -244 74 -294 19 -45 19 -48 2 -48 -26 0
-96 64 -116 106 -13 29 -15 42 -6 61 28 62 3 152 -54 189 -22 14 -25 23 -25
73 0 55 11 109 32 164 16 42 19 33 12 -36z m1515 -47 c51 -122 89 -278 82
-335 -1 -5 -15 13 -31 40 -37 62 -74 176 -89 275 -7 41 -14 85 -17 98 -11 53
17 14 55 -78z m322 74 c269 -108 479 -266 535 -400 27 -65 15 -169 -27 -241
-30 -49 -40 -58 -67 -61 l-32 -3 0 58 c-1 193 -160 431 -415 620 -87 65 -87
64 6 27z m382 -30 c47 -24 67 -40 67 -53 0 -11 3 -28 6 -38 5 -11 -8 -4 -32
19 -21 20 -66 55 -99 78 -67 47 -45 45 58 -6z m1137 -19 c0 -25 38 -55 70 -55
61 0 22 -47 -66 -80 -121 -45 -251 -62 -273 -36 -10 12 0 25 56 71 37 32 88
70 112 86 49 32 101 39 101 14z m-4939 -100 c31 -105 31 -105 20 -105 -17 0
-59 63 -70 106 -6 23 -8 56 -4 74 6 31 7 32 20 14 8 -10 23 -50 34 -89z m5936
80 c123 -23 230 -81 328 -179 89 -88 122 -145 132 -225 10 -88 -9 -83 -219 55
-70 46 -132 84 -138 84 -19 0 -10 -22 33 -78 93 -122 176 -274 218 -397 20
-58 24 -90 24 -187 0 -64 -4 -120 -8 -125 -11 -10 -43 28 -107 127 -27 41 -65
95 -83 120 -34 45 -35 46 -24 105 19 112 -21 301 -93 445 -15 30 -57 98 -91
150 -35 52 -68 101 -72 108 -10 16 3 15 100 -3z m211 -21 c117 -24 193 -76
226 -156 26 -62 15 -122 -13 -70 -14 25 -120 128 -164 158 -21 14 -60 36 -87
50 -77 38 -72 41 38 18z m-5960 -24 c70 -43 161 -158 150 -190 -4 -14 -84 29
-132 71 -48 43 -82 99 -73 123 8 21 15 20 55 -4z m5707 -84 c60 -91 125 -221
125 -247 0 -30 -198 -189 -235 -189 -17 0 -25 33 -25 113 0 68 24 239 39 280
5 12 12 46 16 75 4 28 11 52 16 52 5 0 34 -38 64 -84z m-2836 -35 c28 -114 64
-183 134 -258 105 -111 270 -195 449 -225 89 -15 385 -15 523 0 55 6 129 14
165 17 l65 5 -75 -20 c-263 -68 -517 -103 -708 -98 -127 3 -141 5 -196 32 -73
36 -226 185 -274 267 -18 31 -53 102 -78 156 -41 93 -44 104 -38 157 4 31 8
55 9 54 2 -2 12 -41 24 -87z m1027 -137 c77 -76 99 -129 91 -216 -8 -94 -28
-108 -156 -115 -55 -3 -101 -3 -101 1 0 4 9 19 20 34 25 34 60 133 60 170 0
15 -9 68 -20 118 -11 49 -20 93 -20 97 0 17 66 -30 126 -89z m-3091 29 c16
-66 121 -190 192 -226 20 -11 32 -26 36 -45 3 -17 31 -57 63 -91 31 -34 54
-61 50 -61 -3 0 -31 11 -62 25 -97 43 -182 113 -236 194 -35 52 -81 231 -60
231 5 0 13 -12 17 -27z m-514 -13 c42 -23 14 -77 -58 -114 -59 -30 -64 -21
-32 53 11 27 30 53 42 59 28 14 25 14 48 2z m3730 0 c44 0 50 -3 65 -32 21
-40 13 -106 -20 -163 -42 -70 -51 -71 -51 -7 0 64 -26 125 -78 181 l-32 34 34
-7 c18 -3 55 -6 82 -6z m273 0 c35 -13 33 -33 -10 -75 l-35 -36 118 3 118 3 0
50 c0 44 3 50 25 58 16 6 41 5 67 -2 33 -9 44 -18 49 -38 4 -14 2 -34 -4 -44
-10 -16 -6 -23 24 -46 20 -15 51 -40 69 -55 17 -15 44 -32 60 -38 15 -6 26
-12 24 -14 -10 -11 -327 -46 -408 -46 -51 0 -109 -6 -133 -14 -42 -14 -195
-36 -252 -36 l-29 0 46 49 c25 26 55 68 67 92 12 24 32 55 45 69 12 14 26 42
29 62 11 60 64 83 130 58z m-1409 -375 c32 -108 88 -231 143 -311 84 -123 225
-242 335 -282 26 -9 47 -20 47 -24 0 -14 -110 -9 -173 8 -63 16 -164 63 -207
96 -136 104 -238 263 -260 404 -6 34 -20 88 -31 118 l-22 55 26 63 c15 35 36
101 49 147 l22 85 22 -135 c13 -74 35 -174 49 -224z m2667 333 c-3 -13 -25
-45 -49 -73 -41 -48 -83 -135 -83 -174 0 -41 62 -33 98 13 24 31 32 33 32 7 0
-28 23 -43 51 -32 13 5 59 34 102 65 42 31 77 54 77 52 0 -3 -27 -60 -60 -128
-70 -143 -82 -202 -56 -273 10 -25 24 -49 32 -53 15 -8 13 -29 -16 -137 -8
-30 -8 -30 -9 8 -2 66 -32 180 -65 242 -39 74 -117 152 -193 192 -62 33 -172
73 -200 73 -27 0 -8 11 60 35 80 28 172 90 228 154 49 56 60 62 51 29z m-2654
-71 c73 -133 191 -268 277 -316 68 -39 134 -51 278 -51 198 0 330 21 817 130
160 36 207 42 345 47 359 13 566 -45 720 -201 128 -129 183 -272 192 -494 5
-116 2 -156 -23 -304 -21 -128 -30 -164 -36 -147 -9 22 -26 124 -64 364 -62
400 -235 639 -515 711 -103 27 -339 15 -494 -25 -139 -35 -257 -74 -370 -124
-264 -115 -318 -136 -392 -156 -168 -45 -290 -37 -419 24 -137 66 -308 285
-338 435 -19 96 -30 180 -23 180 3 0 23 -33 45 -73z m-2413 26 c13 -81 37
-170 60 -220 l24 -53 -37 25 c-20 14 -49 25 -64 25 -24 0 -27 4 -34 46 -10 71
14 214 36 214 5 0 12 -17 15 -37z m5054 -72 c-9 -57 -23 -88 -53 -113 -29 -24
-36 -22 -36 7 0 43 66 155 90 155 4 0 4 -22 -1 -49z m-4086 -25 c32 -33 68
-58 88 -64 28 -7 42 -22 81 -86 27 -43 48 -79 48 -82 0 -12 -44 0 -101 28 -39
20 -94 61 -146 111 l-83 80 28 33 c15 18 28 33 29 33 1 1 26 -23 56 -53z
m4409 2 c7 -25 13 -95 13 -163 0 -110 -2 -125 -27 -175 -43 -89 -84 -125 -124
-110 -44 17 -58 136 -26 220 24 64 133 270 143 270 5 0 14 -19 21 -42z m-4472
-95 c82 -84 162 -136 244 -158 51 -14 73 -27 107 -61 24 -24 39 -44 35 -44 -5
0 -40 11 -78 25 -39 14 -111 32 -162 41 -101 17 -186 51 -229 92 -27 25 -77
110 -77 130 0 9 63 39 85 41 6 1 40 -29 75 -66z m-234 27 c42 0 43 -1 67 -53
26 -58 72 -109 121 -134 17 -9 26 -18 19 -20 -21 -7 -131 25 -171 51 -46 29
-127 117 -135 147 -5 19 -3 21 25 15 17 -3 50 -6 74 -6z m3923 -10 c182 -19
315 -74 411 -170 130 -130 169 -313 136 -624 -20 -187 -21 -322 -2 -358 41
-78 136 -158 188 -158 9 0 30 12 47 26 26 21 31 33 31 69 0 40 -3 46 -49 78
-56 41 -68 70 -40 98 60 60 179 -44 179 -158 0 -132 -116 -221 -275 -211 -84
6 -136 32 -162 81 -27 53 -28 158 -2 282 30 140 33 381 6 487 -83 334 -303
502 -712 544 l-80 8 55 7 c91 10 163 10 269 -1z m-4530 -127 c98 -110 172
-301 206 -533 l16 -104 118 -121 c65 -66 123 -130 130 -142 10 -20 8 -24 -16
-39 -16 -10 -45 -33 -65 -53 l-38 -35 0 38 c0 26 -4 36 -12 33 -8 -2 -13 -24
-13 -58 0 -30 -6 -67 -14 -84 -19 -42 -26 -128 -12 -154 21 -38 -10 -25 -127
54 -106 71 -133 85 -132 68 1 -9 121 -94 202 -143 32 -19 58 -38 58 -41 0 -4
-27 -17 -60 -29 -45 -17 -70 -21 -104 -16 -47 7 -110 50 -136 92 -15 24 -40
33 -40 14 0 -22 90 -99 129 -111 39 -12 55 -29 29 -29 -7 0 -42 -14 -78 -30
l-65 -29 -17 22 c-27 33 -65 163 -79 263 -7 52 -9 141 -6 214 l5 124 -55 93
c-76 130 -147 281 -184 393 -26 79 -30 107 -27 167 3 73 23 113 56 113 24 0
72 -60 103 -129 39 -84 129 -359 159 -478 12 -51 26 -93 31 -93 19 0 219 105
219 115 0 5 -15 35 -33 65 -45 74 -189 362 -215 430 -36 92 -53 170 -41 191
18 35 54 23 108 -38z m2176 -15 c40 -134 42 -279 8 -508 -20 -140 -15 -264 15
-314 12 -20 22 -40 22 -44 0 -18 -95 90 -118 133 -25 50 -25 52 -28 305 -1
140 -6 274 -12 297 -9 41 -7 46 29 95 21 28 41 59 44 70 11 31 24 20 40 -34z
m2154 6 c107 -26 193 -77 270 -160 139 -148 206 -322 246 -634 9 -69 25 -163
35 -210 10 -46 18 -86 16 -87 -3 -3 -45 71 -135 237 -168 310 -428 525 -734
607 -43 12 -100 17 -187 16 -159 -1 -251 -24 -510 -128 -114 -46 -222 -82
-272 -92 -147 -27 -264 -2 -370 82 -55 43 -143 143 -134 152 2 2 23 -10 47
-26 97 -68 248 -95 396 -71 99 16 215 54 368 120 272 118 392 158 568 190 131
24 309 25 396 4z m-1902 -67 c21 -29 59 -88 84 -131 63 -112 154 -208 237
-248 66 -33 68 -33 207 -32 157 1 183 7 412 103 247 102 400 133 566 112 184
-24 384 -118 459 -218 57 -75 88 -169 88 -269 0 -183 -61 -250 -270 -294 -206
-43 -304 -92 -346 -172 -23 -44 -18 -105 11 -133 13 -14 29 -25 35 -25 5 0 10
-10 10 -22 0 -31 10 -44 45 -62 26 -14 27 -16 9 -16 -35 0 -116 61 -138 105
-44 84 -15 180 79 263 24 21 100 68 167 103 155 81 228 148 253 232 18 64 10
118 -28 168 -62 85 -252 149 -442 149 -44 0 -102 7 -129 15 -62 19 -212 19
-291 0 -33 -7 -148 -43 -255 -79 -243 -81 -259 -84 -330 -56 -190 74 -351 241
-445 460 -50 118 -48 127 12 47z m-1370 -43 c77 -18 209 -76 277 -124 26 -17
56 -49 68 -73 21 -38 23 -56 23 -202 l0 -160 -33 -67 c-39 -81 -91 -129 -168
-158 -108 -40 -279 -36 -432 9 -204 61 -288 213 -189 343 52 67 105 92 212 96
83 3 94 1 145 -25 119 -61 125 -182 11 -230 -60 -26 -141 6 -141 55 0 58 59
73 85 22 18 -34 48 -39 77 -13 43 39 2 99 -90 128 -46 16 -57 16 -90 3 -53
-20 -79 -64 -87 -149 -7 -68 -6 -72 23 -112 18 -26 54 -55 93 -77 61 -33 68
-35 164 -35 91 0 105 3 158 29 72 37 150 119 185 193 35 78 43 206 17 284 -35
105 -148 190 -335 253 -86 28 -73 33 27 10z m-757 -158 c118 -79 229 -117 420
-144 l55 -8 -52 -17 c-191 -63 -492 68 -575 250 -15 34 -28 66 -28 70 0 3 26
-19 58 -51 31 -31 86 -77 122 -100z m1746 42 c15 -99 18 -310 5 -343 -7 -17
-9 -15 -19 15 -34 108 -49 383 -22 415 7 9 15 13 17 11 3 -2 11 -46 19 -98z
m3375 -43 c30 -98 36 -207 16 -275 -16 -55 -71 -135 -87 -125 -28 17 -36 309
-13 489 l6 50 29 -35 c16 -18 38 -65 49 -104z m-126 -6 c-28 -108 -86 -198
-120 -186 -12 5 -15 22 -14 74 1 80 9 113 29 123 8 4 28 14 43 21 15 7 38 29
50 48 l22 36 3 -26 c2 -15 -4 -55 -13 -90z m-3368 24 c-7 -22 -12 -109 -12
-208 0 -152 2 -177 23 -237 48 -139 132 -233 274 -304 75 -38 207 -84 235 -83
10 0 -19 13 -64 29 -313 108 -434 258 -450 552 -5 102 8 243 26 277 5 7 11
-38 14 -100 12 -227 82 -427 185 -527 115 -113 246 -164 692 -268 85 -19 176
-45 203 -56 62 -27 141 -112 155 -169 12 -47 7 -65 -10 -34 -6 11 -38 46 -71
77 -108 103 -279 172 -492 197 -49 6 -108 14 -130 17 -22 4 -37 4 -34 0 3 -3
68 -15 145 -26 176 -26 227 -41 342 -96 68 -33 109 -61 156 -107 110 -108 119
-185 41 -357 -54 -120 -65 -157 -65 -224 0 -159 146 -303 355 -351 37 -9 172
-22 299 -30 266 -16 370 -32 516 -81 263 -88 460 -236 547 -411 31 -64 37 -87
41 -160 4 -79 -10 -187 -26 -197 -4 -2 -8 37 -8 87 -1 68 -7 107 -23 149 -26
67 -96 148 -166 193 -163 104 -460 167 -915 195 -294 18 -389 45 -467 133 -61
70 -91 135 -134 294 -22 81 -49 176 -60 210 l-20 62 22 43 c15 29 24 67 27
119 8 134 -39 238 -140 305 -55 37 -210 93 -369 133 -85 21 -148 45 -237 90
-260 133 -366 226 -430 377 -28 67 -53 219 -39 233 8 8 7 15 -1 23 -8 8 -12
47 -12 113 l1 100 37 27 c49 35 52 34 39 -9z m-1683 -87 c90 -73 219 -126 311
-126 24 0 35 -4 30 -9 -6 -5 -53 -10 -105 -12 -76 -1 -107 3 -154 20 -33 11
-70 21 -82 21 -18 0 -25 7 -30 28 -3 15 -12 48 -19 75 -7 26 -11 47 -9 47 2 0
28 -20 58 -44z m2178 -146 c75 -61 159 -104 248 -126 51 -13 91 -15 185 -11
143 7 172 -2 83 -27 -35 -9 -115 -40 -178 -68 -214 -94 -290 -109 -369 -68
-79 40 -87 68 -127 435 l-6 60 51 -72 c28 -40 79 -95 113 -123z m-936 139 c40
-44 165 -92 277 -105 31 -4 57 -11 57 -17 0 -13 -97 -4 -183 18 -61 15 -90 15
-75 -1 5 -4 127 -30 246 -50 17 -4 22 -11 22 -37 0 -56 39 -198 71 -258 68
-127 167 -203 452 -351 241 -125 333 -185 429 -283 68 -68 69 -71 64 -110 -3
-22 -9 -94 -12 -160 l-7 -121 -38 -28 c-76 -54 -129 -157 -129 -251 0 -87 -10
-89 -160 -36 -49 17 -118 33 -163 37 -73 6 -78 8 -83 33 -3 14 -16 57 -29 95
l-24 70 59 81 c68 93 90 140 90 190 0 128 -129 117 -195 -15 -10 -19 -19 -36
-20 -38 -1 -1 -24 20 -52 48 -59 59 -98 66 -138 25 -31 -30 -31 -58 -2 -109
20 -36 58 -66 179 -141 40 -25 83 -101 99 -173 6 -30 9 -55 7 -56 -1 -2 -33
-6 -69 -10 l-66 -6 -13 30 c-7 17 -29 44 -48 62 -20 17 -46 52 -58 77 -25 55
-89 115 -148 141 -41 17 -43 21 -59 84 -28 116 -109 221 -206 270 -34 18 -49
33 -59 59 -20 56 -68 114 -126 152 -149 100 -331 80 -456 -48 l-35 -36 -60 30
c-53 27 -67 30 -125 26 -83 -6 -147 -34 -209 -92 -78 -73 -99 -159 -60 -244
20 -45 15 -60 -18 -61 -21 0 -55 -53 -48 -77 8 -34 -13 -28 -55 16 -39 40 -80
118 -80 150 0 13 10 21 34 25 66 13 118 75 96 117 -6 10 -20 19 -31 19 -31 0
-95 -36 -121 -69 -22 -29 -25 -30 -67 -20 -68 15 -131 -14 -131 -61 0 -27 45
-31 110 -11 35 11 66 18 69 16 4 -5 51 -117 51 -124 0 -2 -8 0 -17 4 -70 29
-119 20 -109 -18 5 -22 3 -22 -137 -23 -151 -1 -264 -21 -367 -65 -79 -34 -58
-41 28 -9 93 33 240 60 335 60 147 0 347 -40 549 -109 121 -41 159 -56 450
-174 315 -128 521 -187 721 -206 99 -10 113 -9 165 10 236 85 227 83 377 83
132 0 145 -2 235 -33 106 -36 140 -58 75 -47 -144 23 -192 27 -288 28 -59 0
-110 -2 -114 -6 -17 -16 3 -20 310 -51 154 -15 204 -28 157 -39 -14 -3 -117
-10 -228 -15 -185 -9 -224 -13 -211 -25 2 -2 108 -10 235 -19 230 -14 307 -28
234 -41 -19 -4 -131 -10 -248 -14 -274 -9 -279 -18 -39 -67 65 -13 122 -27
125 -31 10 -10 -191 3 -338 21 -69 9 -215 32 -325 50 -181 31 -470 74 -600 89
-837 100 -1755 239 -1920 292 -62 20 -68 26 -67 63 2 77 60 139 222 236 309
185 834 406 1343 565 186 58 201 61 265 55 114 -12 244 15 332 67 61 37 96 82
113 146 10 37 27 58 27 33 0 -18 104 -123 164 -165 79 -56 148 -90 326 -161
312 -124 469 -227 561 -368 69 -106 72 -215 9 -279 -39 -39 -99 -40 -129 -2
-23 29 -27 64 -10 81 17 17 2 33 -30 33 -28 0 -62 -29 -74 -63 -10 -28 17 -81
54 -109 101 -75 231 -58 306 41 57 74 68 167 33 272 -27 80 -60 131 -129 202
-126 131 -213 173 -581 282 -178 53 -282 105 -350 175 -101 104 -188 295 -210
466 -6 44 -13 91 -16 107 -7 32 6 35 32 6z m778 -198 c17 -155 34 -203 89
-245 19 -14 56 -30 83 -35 80 -15 141 1 334 92 245 115 518 149 654 83 68 -34
128 -100 157 -175 17 -43 23 -85 27 -178 2 -73 1 -123 -5 -123 -11 0 -53 55
-53 70 0 29 -54 120 -95 162 -59 59 -124 94 -221 118 -159 41 -327 18 -545
-75 -223 -95 -302 -104 -396 -49 -65 38 -93 101 -93 214 0 77 13 231 27 320
l6 35 8 -37 c5 -20 15 -100 23 -177z m2990 57 c-22 -68 -148 -322 -152 -308
-2 6 1 55 7 111 6 55 11 131 11 169 0 67 12 92 23 50 9 -36 70 -16 106 34 22
30 25 3 5 -56z m-4202 19 c29 -13 70 -43 91 -65 31 -36 37 -49 37 -87 0 -25
-7 -56 -15 -69 -25 -38 -103 -66 -182 -66 -85 0 -114 15 -50 24 59 9 107 42
131 89 27 56 15 102 -40 155 -51 48 -46 51 28 19z m2633 13 c17 -6 13 -9 -20
-14 -81 -14 -273 -59 -390 -93 -76 -22 -150 -36 -200 -39 l-80 -4 45 16 c205
73 316 110 380 125 78 18 230 23 265 9z m-3349 -31 l29 -11 -37 -19 c-21 -11
-48 -33 -60 -50 l-23 -31 -12 64 c-6 34 -9 66 -7 69 4 8 66 -5 110 -22z m3480
-21 c60 -41 104 -102 111 -156 9 -64 -38 -146 -149 -267 -51 -55 -101 -111
-110 -125 -17 -25 -17 -24 -17 41 -2 243 -104 378 -313 413 l-73 13 56 16
c115 34 375 91 435 96 7 1 33 -14 60 -31z m291 -2 c171 -55 248 -164 199 -281
-31 -74 -97 -127 -252 -205 -172 -85 -220 -126 -253 -216 -37 -97 -13 -173 70
-234 86 -62 167 -64 226 -5 39 39 44 79 12 95 -23 13 -41 4 -20 -9 17 -11 10
-71 -10 -84 -20 -13 -84 -1 -104 19 -26 26 -19 82 14 115 24 24 38 29 76 29
39 0 52 -5 75 -30 31 -33 44 -84 34 -127 -26 -110 -123 -168 -239 -143 -205
44 -321 187 -294 363 16 102 60 176 187 311 101 108 135 170 134 242 0 65 -19
100 -79 154 l-48 43 95 -6 c61 -3 124 -15 177 -31z m-4768 -44 c56 -45 99
-108 117 -170 9 -31 19 -63 22 -71 4 -11 -2 -13 -28 -7 -90 18 -220 109 -270
191 -29 47 -24 97 10 105 35 9 107 -14 149 -48z m753 23 c10 -22 8 -27 -16
-46 -34 -26 -49 -54 -55 -104 -7 -48 -35 -60 -45 -19 -13 51 17 133 62 171 34
29 40 29 54 -2z m375 8 c-67 -20 -124 -77 -133 -131 -4 -23 -8 -42 -10 -42
-13 0 -54 47 -54 62 0 73 82 126 195 126 l50 0 -48 -15z m110 -10 c-38 -43
-51 -139 -25 -199 19 -45 60 -89 112 -122 l46 -29 -83 -6 c-45 -3 -92 -9 -104
-12 -18 -6 -23 -1 -33 32 -22 72 -24 189 -5 240 17 45 91 130 102 119 4 -3 -1
-14 -10 -23z m3943 -50 c72 -81 151 -188 190 -256 28 -51 32 -65 28 -113 -6
-66 -40 -114 -114 -155 -61 -35 -190 -51 -334 -43 -52 3 -124 1 -160 -5 -124
-20 -220 -91 -220 -162 0 -41 -17 -36 -31 10 -32 108 66 187 296 236 223 47
292 91 320 200 8 32 15 80 15 105 0 58 -24 169 -45 209 -24 48 -2 37 55 -26z
m-4029 7 c-38 -53 -55 -125 -46 -197 7 -54 6 -56 -11 -43 -9 8 -30 35 -46 59
-35 56 -38 116 -7 155 24 31 85 65 117 66 22 0 22 0 -7 -40z m989 -143 c14
-107 9 -160 -19 -215 -64 -124 -220 -174 -476 -152 -157 14 -379 14 -457 1
-94 -16 -155 -56 -191 -125 -14 -28 -15 -29 -21 -8 -9 28 27 112 64 147 15 14
45 31 66 36 23 5 144 7 289 3 168 -4 273 -2 320 5 206 34 355 185 387 394 14
89 15 87 38 -86z m-1345 113 c8 -16 15 -33 15 -38 0 -12 -93 -53 -102 -44 -11
11 8 71 28 93 24 27 41 24 59 -11z m-346 -116 l58 -98 -33 -12 c-18 -6 -44
-24 -58 -40 -26 -29 -26 -29 -42 -9 -13 17 -15 38 -9 128 6 103 12 143 22 134
2 -3 30 -49 62 -103z m-176 59 c28 -32 31 -70 8 -131 -12 -32 -33 -71 -46 -87
l-23 -30 -23 50 c-15 34 -22 71 -23 113 -1 55 2 66 23 83 29 24 63 24 84 2z
m1932 -104 c106 -212 192 -271 535 -372 220 -65 305 -99 398 -161 177 -118
283 -305 253 -447 -25 -117 -93 -179 -195 -179 -92 0 -183 83 -161 147 6 17
19 29 32 31 19 3 20 -1 16 -42 -5 -39 -2 -48 22 -70 61 -56 167 -20 200 69 44
114 -23 265 -169 384 -97 77 -222 143 -440 231 -112 44 -232 98 -267 118 -120
70 -231 199 -253 297 -4 17 -9 38 -12 48 -11 38 7 13 41 -54z m3881 -3 c58
-27 97 -72 125 -146 29 -76 25 -145 -12 -218 -34 -70 -71 -105 -146 -139 -53
-24 -203 -45 -173 -24 8 6 24 11 35 11 37 0 120 47 157 88 72 80 76 182 11
270 -32 42 -72 62 -126 62 -81 0 -122 -60 -81 -118 9 -13 33 -34 55 -48 40
-25 48 -48 29 -83 -38 -71 -159 23 -176 136 -15 102 46 190 156 224 46 14 95
9 146 -15z m-2211 -21 c121 -31 215 -92 266 -174 16 -25 29 -49 29 -53 0 -5
-24 5 -52 21 -95 52 -152 65 -278 64 -69 0 -145 -7 -190 -17 -200 -45 -322
-66 -391 -66 -80 0 -194 25 -244 54 l-30 17 43 -6 c69 -9 156 12 316 76 81 33
183 68 225 79 94 23 227 25 306 5z m-1965 -136 c-25 -21 -70 -49 -100 -62 -53
-21 -68 -22 -375 -23 -302 -1 -324 -2 -368 -22 -26 -12 -47 -17 -47 -12 0 14
65 66 112 88 93 45 168 49 475 23 122 -10 236 0 289 27 60 30 63 25 14 -19z
m2074 -34 c83 -22 119 -41 178 -94 107 -96 122 -189 61 -374 -35 -103 -38
-121 -38 -227 0 -109 2 -118 30 -169 60 -109 189 -169 339 -158 115 8 193 35
426 147 318 153 473 209 715 258 267 55 470 29 652 -84 177 -110 277 -288 277
-494 0 -155 -52 -277 -139 -328 -84 -49 -236 -9 -335 88 -80 78 -89 162 -25
238 63 75 137 62 180 -31 30 -62 33 -112 8 -122 -23 -8 -49 23 -58 72 -13 74
-64 95 -112 47 -22 -22 -25 -32 -21 -72 11 -118 141 -214 264 -195 46 7 122
43 146 70 91 100 77 303 -33 489 -126 214 -388 337 -648 305 -197 -25 -527
-145 -986 -359 -82 -39 -197 -87 -255 -108 -98 -35 -113 -38 -220 -38 -111 -1
-117 0 -178 32 -47 24 -71 45 -93 80 -30 46 -30 49 -26 147 3 85 10 119 48
230 41 123 44 136 44 240 0 104 -2 113 -32 170 -51 98 -124 150 -251 180 -116
28 -390 9 -528 -36 -23 -7 -46 -6 -80 2 -75 18 -75 29 0 29 37 0 147 15 244
34 97 19 188 37 202 39 60 10 190 6 244 -8z m1456 -270 c26 -68 114 -131 199
-144 l46 -7 -75 -23 c-41 -13 -94 -30 -118 -37 l-43 -13 6 29 c20 90 -25 125
-151 118 -70 -4 -83 -2 -93 14 -30 48 -112 58 -169 22 -22 -14 -26 -13 -62 20
-43 38 -90 66 -115 66 -8 0 -15 3 -15 8 0 4 69 7 153 8 113 0 167 5 212 18 73
21 153 74 180 118 l20 33 6 -100 c4 -55 12 -113 19 -130z m150 45 c74 -74 154
-123 221 -137 49 -9 32 -21 -41 -28 -122 -12 -215 11 -267 67 -40 42 -53 91
-53 190 l1 93 32 -55 c17 -30 66 -89 107 -130z m-1715 149 c107 -22 213 -96
253 -176 28 -55 45 -146 37 -203 -7 -51 -26 -127 -69 -270 -53 -178 -43 -284
34 -354 51 -46 80 -60 176 -86 72 -20 113 -23 459 -30 262 -6 410 -13 477 -24
488 -78 779 -252 853 -510 37 -128 4 -248 -99 -364 -119 -133 -234 -223 -375
-293 -76 -37 -218 -85 -227 -77 -2 3 14 17 36 32 151 100 249 285 250 470 0
155 -54 281 -171 398 -156 156 -299 196 -889 253 -297 28 -358 37 -448 66 -78
24 -126 54 -174 107 -89 99 -101 153 -102 492 l-1 275 -27 45 c-57 97 -105
123 -313 170 -181 41 -179 40 -125 57 114 36 330 47 445 22z m-3404 -76 c11
-29 5 -97 -13 -142 l-10 -26 -19 24 c-33 40 -21 171 16 171 9 0 20 -12 26 -27z
m1064 18 l50 -7 -120 -38 c-107 -35 -132 -39 -230 -40 -115 -2 -145 -11 -193
-56 -29 -27 -36 -22 -22 16 26 67 93 109 197 123 83 10 250 12 318 2z m-1005
-164 c14 -77 7 -97 -29 -78 -29 16 -35 49 -16 100 8 24 15 55 16 70 l1 26 8
-25 c4 -14 13 -56 20 -93z m734 64 c3 -5 -27 -19 -67 -32 -39 -12 -91 -31
-114 -40 -50 -21 -59 -7 -19 30 41 38 184 69 200 42z m711 -24 c74 -36 127
-87 151 -143 8 -19 14 -35 14 -37 0 -3 -33 -6 -72 -9 -40 -3 -89 -12 -110 -22
-35 -17 -37 -17 -79 5 -69 35 -144 57 -232 69 -45 7 -83 13 -85 15 -9 8 35 58
78 90 66 48 112 63 195 64 60 1 81 -4 140 -32z m2886 3 c80 -24 130 -65 163
-132 82 -165 -36 -288 -275 -288 -84 0 -186 15 -201 29 -4 3 26 5 66 3 117 -6
196 30 236 108 37 73 21 183 -31 211 -67 35 -133 29 -189 -17 l-30 -26 0 25
c0 14 12 39 26 56 44 53 129 64 235 31z m-1456 -61 c126 -41 208 -87 244 -138
63 -88 84 -200 57 -294 -9 -31 -20 -57 -24 -57 -4 0 -18 28 -32 61 -71 180
-198 325 -385 443 l-60 38 40 -7 c22 -4 94 -24 160 -46z m-3033 5 c20 -3 44
-14 53 -24 15 -17 12 -20 -49 -54 -99 -56 -192 -79 -240 -60 -32 12 -19 64 29
111 l45 45 62 -6 c35 -3 80 -8 100 -12z m6223 -9 c232 -61 321 -268 271 -627
-24 -173 -67 -291 -147 -409 -35 -52 -118 -133 -128 -124 -2 2 13 23 34 47 54
64 113 192 132 289 40 212 -27 492 -144 604 -85 82 -255 145 -391 145 -123 0
-444 -59 -652 -119 -119 -35 -367 -125 -500 -181 -41 -17 -108 -43 -148 -58
-41 -14 -70 -28 -65 -29 11 -4 143 43 343 122 246 96 441 157 650 200 168 35
434 46 527 22 133 -35 238 -112 287 -213 76 -155 100 -383 57 -537 -23 -83
-65 -176 -99 -217 -20 -23 -19 -20 4 55 60 187 1 401 -157 570 -134 143 -308
215 -519 215 -252 0 -605 -107 -1015 -308 -60 -30 -150 -71 -200 -90 -85 -34
-97 -36 -206 -37 -110 0 -118 1 -175 31 -148 77 -190 244 -118 464 l28 85 8
-40 c30 -142 79 -225 168 -287 69 -49 135 -68 224 -67 l71 2 -76 7 c-145 14
-269 99 -324 222 -33 74 -30 106 5 52 36 -55 97 -97 181 -125 65 -21 92 -24
224 -24 189 0 258 16 725 165 360 116 602 179 765 200 50 6 97 13 105 15 32 8
198 -5 255 -20z m-1440 -1 c18 -8 36 -22 39 -29 3 -8 -20 -39 -53 -73 l-57
-59 -18 63 c-20 71 -17 90 16 104 32 12 36 12 73 -6z m-3690 -14 c52 -25 85
-81 85 -142 0 -24 -7 -53 -15 -64 -21 -28 -19 -31 31 -38 59 -8 102 -39 125
-90 24 -52 23 -90 -1 -143 l-19 -42 42 -23 c22 -13 50 -38 60 -56 19 -32 19
-34 2 -53 -10 -10 -18 -33 -18 -49 0 -17 -3 -30 -6 -30 -19 0 -263 105 -266
114 -1 6 -9 42 -18 79 l-15 69 49 64 c56 73 50 88 -8 19 -20 -25 -40 -45 -44
-45 -4 0 -15 26 -24 57 -16 53 -16 62 0 126 9 38 14 71 11 74 -6 6 -36 -58
-36 -76 0 -27 -20 -15 -49 29 -18 28 -39 50 -47 50 -16 0 -16 -1 28 -66 44
-66 35 -78 -35 -49 -39 16 -67 19 -67 8 0 -5 35 -19 77 -33 l77 -26 22 -69
c12 -39 20 -73 18 -77 -2 -3 -34 6 -71 22 -80 32 -123 44 -123 32 0 -5 18 -14
39 -21 22 -6 69 -25 104 -42 60 -27 66 -33 75 -72 6 -23 10 -43 8 -44 -2 -2
-36 10 -77 26 -41 17 -126 47 -190 68 -93 31 -118 43 -127 62 -7 14 -12 31
-12 37 0 19 50 54 76 54 30 0 30 4 2 43 -17 23 -24 49 -26 97 -3 58 0 70 26
111 71 111 229 161 337 109z m3936 -41 c11 -5 24 -22 30 -35 11 -32 -12 -86
-44 -102 -26 -13 -270 -92 -273 -89 -2 1 23 16 54 32 31 16 69 37 85 48 15 10
46 20 68 22 42 3 68 15 32 15 -34 0 -33 11 3 42 59 52 37 51 -28 -2 -35 -27
-66 -50 -70 -50 -5 0 -8 14 -8 30 0 42 -16 38 -23 -6 -6 -36 -22 -64 -38 -64
-5 0 -6 14 -2 30 9 46 -13 36 -29 -12 -13 -43 -39 -63 -107 -83 -21 -6 -19 -1
20 55 65 93 118 149 153 165 37 16 150 19 177 4z m-4821 -77 l19 -42 -49 -25
c-55 -28 -80 -31 -98 -13 -13 13 -16 47 -5 73 7 19 80 56 101 52 7 -1 22 -21
32 -45z m1130 32 c166 -39 324 -158 369 -280 13 -32 25 -80 28 -106 l6 -48
-37 15 c-26 11 -51 14 -82 9 -24 -3 -44 -4 -44 -2 0 3 5 19 11 37 15 42 4 94
-27 131 -21 25 -33 30 -69 30 -51 0 -85 -24 -111 -77 l-18 -38 -8 45 c-12 71
-63 125 -129 139 -27 6 -33 12 -30 27 2 10 4 45 4 77 l1 57 36 0 c19 0 64 -7
100 -16z m-726 -50 c37 -14 9 -74 -41 -88 -13 -3 -32 -9 -43 -12 -16 -4 -20
-1 -20 18 1 29 17 51 55 71 36 20 30 18 49 11z m1214 -41 c102 -48 192 -163
209 -268 l6 -35 -70 0 c-38 0 -95 -7 -126 -15 -32 -8 -62 -15 -66 -15 -5 0
-11 22 -15 49 -10 72 -67 180 -126 235 -28 26 -50 51 -50 56 0 5 12 12 28 16
15 3 32 8 37 10 25 9 122 -9 173 -33z m-1382 -43 c15 -6 24 -13 21 -16 -9 -9
-119 -35 -125 -30 -3 3 0 17 6 31 13 28 49 33 98 15z m2148 -56 c23 -22 20
-96 -5 -147 -12 -23 -39 -67 -62 -97 -22 -30 -41 -56 -42 -58 -4 -5 -179 104
-206 129 -51 48 -50 131 2 137 26 3 58 -24 123 -103 l24 -30 30 65 c28 62 60
101 92 113 24 9 28 8 44 -9z m620 -46 c57 -103 85 -188 176 -526 18 -67 31
-125 28 -128 -12 -12 -67 27 -121 85 -63 69 -109 157 -132 252 -23 98 -19 379
6 379 4 0 24 -28 43 -62z m2531 -18 c105 -28 180 -74 267 -161 133 -134 206
-326 179 -473 -20 -110 -77 -164 -183 -174 -48 -4 -66 0 -111 22 -92 45 -150
154 -113 211 20 31 51 32 67 4 6 -12 11 -44 10 -73 -1 -68 5 -84 39 -101 62
-32 149 -8 199 56 50 64 50 186 0 324 -51 138 -124 214 -259 272 -61 26 -74
28 -200 27 -122 -1 -145 -4 -235 -32 -55 -17 -167 -58 -250 -92 -82 -34 -215
-87 -295 -119 l-145 -57 -124 5 -125 6 185 84 c293 133 548 229 709 267 153
36 259 38 385 4z m-4196 -6 c23 -29 28 -94 12 -137 -10 -25 -59 -77 -73 -77
-20 0 -5 41 20 55 l27 15 -25 -2 c-18 -2 -24 1 -22 12 11 48 11 91 -1 87 -6
-2 -13 -12 -15 -23 -7 -44 -11 -48 -31 -30 -29 26 -33 5 -5 -31 22 -29 25 -40
18 -76 l-7 -42 -20 45 c-14 29 -21 67 -21 107 -1 55 2 65 28 92 39 41 86 42
115 5z m1974 -326 c47 -149 141 -225 329 -268 l83 -18 -53 -1 c-71 -1 -184 25
-257 59 -158 75 -242 212 -216 354 6 30 27 95 48 143 l38 87 6 -154 c4 -94 13
-174 22 -202z m-3014 270 c34 -22 35 -23 13 -26 -31 -5 -82 17 -82 34 0 21 28
17 69 -8z m5278 -43 c41 -14 95 -39 119 -55 171 -118 253 -433 143 -551 -31
-34 -89 -40 -127 -13 -30 21 -28 34 8 34 47 0 64 35 57 120 -13 157 -112 251
-296 281 -89 15 -174 4 -359 -47 -215 -59 -300 -70 -422 -54 -58 7 -111 16
-118 19 -7 4 44 30 115 58 71 29 162 66 203 83 132 56 283 111 355 130 106 28
228 26 322 -5z m-4403 -73 c8 -23 7 -23 -22 -8 l-31 16 17 39 17 40 6 -32 c3
-18 9 -42 13 -55z m749 -24 c54 -29 125 -106 111 -121 -3 -3 -20 -1 -37 4
-112 32 -248 -25 -299 -124 -26 -53 -25 -52 -43 -37 -9 7 -32 16 -52 19 -32 5
-36 10 -39 39 -2 18 -11 46 -19 62 -14 27 -14 33 -1 59 9 16 18 47 22 70 7 44
13 48 99 62 92 14 193 1 258 -33z m-418 7 c18 -17 25 -35 25 -64 0 -46 -14
-60 -38 -37 -29 26 -89 46 -134 45 l-43 -1 55 -12 c67 -14 104 -38 141 -90 33
-45 38 -99 12 -128 -17 -19 -49 -23 -73 -9 -12 8 -9 14 13 37 33 33 27 47 -7
15 l-24 -23 -12 21 c-12 23 -8 34 23 68 11 13 17 26 13 30 -4 5 -18 -5 -31
-21 l-23 -29 -16 38 c-12 27 -20 35 -27 28 -7 -7 -6 -21 5 -47 14 -33 14 -36
-3 -36 -9 0 -26 7 -37 15 -23 18 -47 19 -42 3 3 -7 29 -22 58 -34 52 -21 77
-44 48 -44 -14 0 -167 56 -175 64 -3 3 -6 23 -7 45 0 29 6 47 23 65 14 14 29
26 35 26 6 0 23 15 38 33 54 68 156 90 203 42z m1415 -48 c0 -44 31 -143 65
-209 19 -37 35 -69 35 -71 0 -2 -26 5 -57 16 -45 15 -74 18 -125 14 -66 -6
-68 -5 -74 19 -15 57 35 169 100 226 38 33 56 35 56 5z m2550 -68 c36 -5 84
-19 107 -29 53 -23 132 -96 149 -137 19 -43 17 -53 -4 -26 -9 12 -39 33 -66
47 -61 32 -132 34 -265 6 -52 -11 -146 -23 -208 -27 -106 -6 -121 -4 -216 23
l-101 29 59 13 c33 7 112 29 175 49 96 30 228 58 290 62 8 0 44 -4 80 -10z
m-3426 -50 c42 -20 107 -87 106 -108 -1 -6 -168 -62 -183 -61 -4 0 -4 30 -1
66 6 55 5 66 -7 62 -10 -3 -15 -25 -17 -74 -2 -38 -7 -73 -12 -78 -10 -10 -97
-10 -177 0 -63 7 -65 16 -28 91 60 120 196 164 319 102z m2651 -48 c155 -31
299 -74 423 -128 243 -103 374 -212 451 -372 30 -63 36 -88 39 -160 6 -130
-28 -221 -131 -344 -47 -57 -63 -55 -18 2 136 171 121 397 -36 563 -224 235
-673 361 -1238 346 -211 -6 -347 1 -290 16 85 21 196 59 240 81 49 24 53 25
250 21 154 -3 225 -9 310 -25z m-5205 -39 l75 -18 -75 -38 c-41 -21 -89 -47
-106 -57 -35 -21 -44 -17 -44 19 0 31 46 112 63 112 7 -1 46 -9 87 -18z m6114
-10 c8 -13 -143 -79 -221 -96 -102 -23 -120 -21 -209 21 l-79 38 125 7 c69 4
157 14 195 22 79 16 181 20 189 8z m-5789 -48 c197 -31 195 -30 195 -43 0 -6
-44 -54 -97 -109 -148 -148 -254 -196 -433 -196 -127 0 -200 24 -251 82 l-32
36 38 33 c110 95 358 239 395 229 8 -3 92 -17 185 -32z m1833 -1 c33 -33 20
-39 -48 -23 -52 12 -66 23 -55 40 13 21 75 11 103 -17z m1337 -28 l34 -14 -24
-55 c-13 -30 -30 -85 -38 -123 l-14 -68 -62 -7 c-93 -10 -180 -55 -258 -133
-36 -36 -66 -65 -68 -65 -6 0 -24 57 -27 85 l-3 30 60 3 c100 5 99 27 -2 57
-29 9 -53 19 -53 23 1 26 23 33 111 38 107 7 159 19 159 39 0 23 -35 35 -120
42 -44 3 -80 9 -80 13 0 5 40 11 88 15 94 7 130 19 99 31 -9 3 -17 12 -17 19
0 7 -12 22 -27 33 l-28 21 30 12 c77 31 173 33 240 4z m-2681 -45 c120 -16
223 -30 227 -30 12 0 11 -74 -1 -127 -38 -166 -168 -296 -296 -296 -161 0
-277 120 -277 288 0 77 15 122 57 172 20 24 34 32 49 28 12 -3 120 -18 241
-35z m2787 -15 c21 -19 61 -46 88 -60 l50 -25 36 -117 c39 -125 97 -281 139
-376 14 -32 26 -60 26 -62 0 -11 -89 -4 -136 10 -27 8 -85 38 -129 67 -170
112 -230 290 -169 500 16 53 39 98 51 98 3 0 23 -16 44 -35z m-2264 -54 c120
-17 245 -33 278 -36 100 -11 98 -10 92 -70 -10 -99 -75 -183 -159 -206 -70
-19 -176 -7 -237 26 -90 50 -191 181 -226 293 -8 28 -15 29 252 -7z m-891
-104 c0 -68 5 -91 26 -132 27 -53 58 -90 97 -117 l23 -16 -18 -48 c-51 -134
-184 -280 -311 -341 -67 -33 -79 -35 -151 -32 -64 3 -85 9 -115 29 -47 32 -91
93 -125 173 -23 55 -26 75 -26 172 0 82 5 120 17 148 17 37 17 37 80 37 83 0
237 34 300 65 59 30 131 82 166 119 14 14 27 26 30 26 3 0 6 -37 7 -83z m4559
41 c198 -40 329 -103 426 -205 111 -116 151 -217 152 -378 1 -96 -3 -119 -26
-178 -55 -141 -144 -239 -274 -304 -84 -42 -196 -56 -255 -33 -100 40 -141
149 -79 211 52 51 138 29 129 -33 -4 -30 -44 -38 -53 -10 -8 28 -34 35 -61 17
-29 -18 -32 -60 -8 -94 21 -29 89 -61 129 -60 26 0 22 3 -22 18 -29 10 -59 23
-67 30 -20 17 -39 68 -32 86 9 23 35 18 42 -9 3 -14 13 -31 22 -39 21 -18 76
-32 67 -17 -3 5 -13 10 -21 10 -8 0 -14 5 -14 10 0 6 15 10 33 10 44 1 109 32
135 65 85 108 25 279 -125 354 -98 49 -188 65 -363 66 -91 0 -235 -4 -320 -8
-85 -5 -160 -5 -166 0 -6 4 -13 26 -16 48 l-6 41 142 -1 c136 0 246 16 246 36
0 4 -30 18 -67 29 -95 30 -212 30 -282 0 l-52 -23 -38 21 c-67 38 -231 67
-231 42 0 -33 170 -100 221 -87 10 3 23 0 28 -7 14 -16 26 -96 15 -96 -36 1
-148 36 -197 62 -87 47 -134 100 -163 182 -13 38 -24 73 -24 78 0 5 15 -3 34
-17 73 -55 130 -66 391 -76 244 -8 443 -31 599 -68 296 -70 484 -223 515 -417
16 -104 -22 -178 -114 -221 -24 -11 -25 -13 -6 -9 24 5 24 5 5 -15 -11 -11
-47 -31 -80 -44 -32 -14 -50 -25 -39 -25 74 0 226 126 278 231 163 329 -38
631 -553 830 l-75 29 60 -6 c33 -3 105 -15 160 -26z m-3854 -104 c44 -60 96
-103 166 -138 l50 -26 -4 -52 c-12 -146 -72 -301 -149 -387 -70 -78 -111 -96
-219 -96 -77 0 -98 4 -147 27 -66 31 -134 98 -168 165 -32 64 -60 176 -60 238
l0 52 63 -14 c176 -37 333 89 378 306 l11 55 21 -39 c11 -22 37 -63 58 -91z
m845 79 c111 -14 209 -32 219 -39 16 -12 17 -15 2 -37 -26 -40 -84 -62 -162
-62 -60 0 -79 5 -130 33 -77 42 -179 131 -150 132 11 0 111 -12 221 -27z
m1910 -86 c77 -40 174 -55 504 -77 563 -39 836 -137 929 -334 29 -61 48 -126
37 -126 -3 0 -18 19 -32 43 -103 166 -322 278 -639 326 -181 27 -246 33 -465
41 -129 4 -252 13 -272 19 -76 24 -168 116 -184 186 -7 30 -7 30 43 -16 27
-26 63 -54 79 -62z m-1976 -45 c46 -23 67 -27 132 -26 l76 1 11 -62 c16 -89
13 -190 -6 -259 -13 -49 -27 -71 -68 -113 -33 -32 -66 -55 -91 -62 -217 -62
-446 36 -541 230 -30 62 -56 163 -45 174 3 3 38 5 79 5 82 0 121 13 172 56 37
31 81 114 81 155 0 14 3 29 6 32 4 3 36 -18 73 -49 36 -30 91 -67 121 -82z
m1090 82 c0 -14 -8 -15 -47 -9 -78 11 -86 24 -15 25 50 0 62 -3 62 -16z m-546
-25 c99 -17 183 -32 185 -34 17 -17 -56 -137 -98 -163 l-30 -18 67 0 c84 1
143 -27 212 -100 58 -61 57 -56 31 -229 -10 -66 -16 -124 -13 -128 11 -21 23
18 37 123 8 62 17 115 19 117 8 8 26 -62 36 -137 11 -85 11 -203 1 -240 -7
-26 -41 -41 -41 -18 0 24 -82 95 -147 127 -70 35 -160 61 -211 61 l-33 0 33
41 c32 40 33 45 33 128 -1 75 -5 95 -32 152 -28 61 -29 68 -15 83 15 15 15 16
0 16 -13 0 -17 18 -23 95 -4 52 -11 95 -16 95 -4 0 -9 -35 -11 -77 l-3 -77
-41 55 c-23 30 -62 76 -88 103 -25 26 -46 50 -46 52 0 6 1 6 194 -27z m-164
-56 c86 -97 193 -274 175 -291 -10 -10 -111 28 -158 59 -55 37 -104 94 -140
164 l-25 50 41 37 c23 20 45 37 49 38 3 0 30 -26 58 -57z m1154 -10 c7 -62 42
-148 82 -200 13 -17 24 -33 24 -35 0 -2 -40 -1 -89 0 -137 6 -252 -35 -359
-125 -29 -25 -56 -42 -60 -38 -4 4 -7 48 -7 98 1 81 4 99 29 146 62 120 199
208 327 210 l46 1 7 -57z m-623 11 c9 -3 19 -19 23 -36 7 -37 8 -228 1 -228
-3 0 -30 20 -60 45 -53 43 -131 75 -183 75 l-24 0 31 39 c17 21 31 41 31 44 0
2 7 21 15 42 l16 36 67 -6 c37 -4 74 -9 83 -11z m130 -10 c34 -6 37 -9 43 -50
3 -25 13 -58 21 -75 15 -27 15 -36 -1 -99 -14 -59 -15 -81 -5 -145 11 -73 10
-77 -15 -117 -15 -23 -34 -58 -43 -77 l-16 -36 -3 40 c-4 59 -32 186 -48 217
-10 20 -14 70 -14 188 0 180 -6 168 81 154z m-611 -266 c30 -15 72 -29 93 -33
l38 -7 -7 -42 c-45 -272 -206 -381 -421 -286 -49 21 -113 66 -113 78 0 4 21
16 47 26 64 27 126 86 151 144 27 63 42 160 35 223 l-6 50 64 -64 c37 -37 87
-74 119 -89z m1734 102 c76 -24 93 -40 41 -40 -34 0 -120 33 -131 51 -8 14 19
11 90 -11z m445 -21 c17 -6 31 -14 31 -19 0 -13 -143 -22 -230 -14 -45 3 -78
10 -73 15 4 4 33 15 63 23 59 16 154 14 209 -5z m-3140 -86 c60 -167 272 -302
456 -291 50 3 50 3 47 -26 -9 -83 -96 -188 -196 -235 -92 -43 -130 -51 -256
-51 -133 1 -176 9 -265 51 -68 32 -170 120 -163 141 3 7 23 16 46 20 134 23
255 175 292 366 7 34 16 62 19 62 4 0 13 -17 20 -37z m2745 -59 c61 -14 78
-22 81 -38 11 -47 34 -250 29 -258 -7 -11 -55 21 -53 36 4 29 -2 47 -13 43 -7
-2 -12 -12 -10 -22 4 -19 6 -20 -63 16 -27 15 -58 35 -67 46 -18 19 -128 244
-128 260 0 5 33 -7 74 -28 40 -20 108 -45 150 -55z m-619 75 c107 -20 225 -97
225 -147 0 -15 -16 -17 -138 -17 -153 0 -226 -17 -352 -80 -71 -36 -207 -129
-257 -178 -18 -17 -35 -28 -39 -24 -13 12 10 92 48 169 70 140 196 242 338
274 71 16 103 16 175 3z m375 -128 c54 -6 55 -7 78 -55 13 -26 21 -50 19 -52
-2 -2 -20 2 -39 10 -19 8 -65 22 -101 32 -58 14 -67 20 -76 47 -6 16 -11 32
-11 34 0 2 17 1 38 -3 20 -4 62 -10 92 -13z m-1380 -36 c0 -59 -19 -104 -61
-143 -39 -37 -59 -42 -35 -9 26 34 64 121 71 161 10 51 25 45 25 -9z m1335
-50 c178 -53 316 -131 515 -290 112 -90 215 -198 205 -215 -10 -16 -46 3 -61
31 -22 43 -37 37 -29 -12 15 -85 -42 -186 -129 -231 -61 -32 -145 -30 -219 4
-61 29 -141 104 -173 163 -23 43 -36 40 -46 -10 -28 -132 -188 -245 -345 -245
-102 1 -196 58 -239 146 -22 45 -26 64 -22 114 2 33 0 60 -4 60 -5 0 -33 -26
-63 -58 -135 -145 -285 -155 -362 -24 -21 36 -28 60 -28 103 0 50 5 64 39 113
66 96 231 230 372 303 68 35 120 53 219 77 11 3 79 3 150 2 105 -3 147 -9 220
-31z m-1887 -134 c51 -35 108 -59 170 -72 42 -8 59 -15 50 -21 -32 -21 -498
-163 -498 -152 0 2 23 15 51 29 87 45 148 117 182 218 8 22 13 21 45 -2z m714
-30 c89 -37 162 -97 178 -145 9 -29 8 -39 -12 -71 -12 -21 -27 -59 -34 -84
l-11 -46 -7 78 c-9 88 -19 100 -82 90 l-39 -6 23 22 c12 12 22 33 22 47 0 33
-54 57 -166 74 -102 16 -118 11 -111 -35 7 -40 5 -41 -28 -19 -21 13 -30 14
-62 3 -57 -18 -142 -76 -155 -104 -19 -43 -1 -50 147 -53 74 -2 135 -7 135
-10 0 -4 -27 -22 -60 -40 -70 -38 -130 -88 -130 -108 0 -7 10 -20 23 -28 31
-20 182 -57 242 -60 l49 -1 12 -60 c11 -54 18 -114 15 -139 -1 -6 -13 2 -28
16 -123 114 -355 211 -571 237 -89 11 -102 16 -102 33 0 7 -10 32 -21 56 -39
79 -150 106 -270 67 -63 -21 -98 -43 -156 -98 -41 -40 -42 -40 -48 -16 -3 13
-6 42 -8 64 -2 36 1 40 23 43 179 23 704 187 920 289 89 41 99 44 165 40 50
-3 92 -13 147 -36z m-107 -66 c85 -18 125 -37 125 -58 0 -18 -40 -53 -70 -62
-14 -4 -45 -18 -69 -31 -53 -29 -52 -30 -81 78 -21 77 -20 104 4 95 6 -3 47
-12 91 -22z m-163 -52 c20 -22 58 -98 58 -114 0 -15 -238 -5 -254 11 -7 7 1
21 25 46 64 67 140 92 171 57z m352 -89 c3 -9 6 -49 6 -89 0 -104 -27 -126
-107 -88 -37 17 -133 107 -133 123 0 19 138 67 196 69 20 1 34 -5 38 -15z
m-189 -184 c26 -62 20 -90 -20 -90 -32 0 -217 48 -228 59 -21 21 3 49 83 99
l85 54 28 -34 c16 -18 39 -58 52 -88z m-720 69 c32 -29 48 -69 26 -69 -15 0
-41 30 -41 46 0 23 -20 16 -30 -10 -12 -31 -47 -43 -68 -23 -14 14 -13 18 2
41 21 32 11 33 -52 1 -52 -26 -169 -38 -145 -14 29 29 130 59 200 59 67 0 75
-2 108 -31z m2747 -68 c29 -76 -18 -154 -125 -205 -115 -54 -389 -128 -617
-168 -121 -21 -485 -17 -590 6 -180 39 -297 97 -360 177 -39 48 -79 142 -80
183 0 27 1 26 33 -20 83 -125 229 -126 367 -4 l45 40 15 -64 c36 -145 164
-229 325 -211 125 13 263 105 307 203 l19 43 63 -66 c81 -83 152 -117 242
-117 72 0 151 31 196 79 33 36 68 101 68 129 0 28 4 31 45 26 28 -3 39 -10 47
-31z m-2890 7 c4 -29 45 -35 86 -14 17 9 33 11 38 6 5 -5 22 -10 38 -12 16 -2
31 -9 34 -15 3 -10 -19 -13 -85 -13 -87 -1 -233 -12 -325 -26 -56 -8 -60 0
-22 45 24 29 31 31 92 32 37 0 76 4 87 9 35 15 53 11 57 -12z m-1554 -50 c19
-19 14 -91 -13 -170 -14 -40 -25 -74 -25 -75 -1 -21 -185 71 -245 121 -50 42
-42 53 58 90 124 44 203 56 225 34z m1801 -18 c104 -11 269 -47 289 -62 6 -6
12 -24 12 -40 0 -76 -140 -133 -325 -133 -130 0 -188 18 -235 71 -30 35 -40
87 -24 129 17 43 105 53 283 35z m-306 -39 c-32 -82 16 -162 119 -197 82 -28
251 -25 346 5 111 36 130 52 179 149 1 2 11 -1 22 -8 46 -24 7 -108 -69 -147
-169 -86 -545 -54 -629 53 -31 40 -29 113 5 153 35 42 45 39 27 -8z m-1327 11
c15 -10 100 -150 119 -195 14 -35 14 -41 1 -62 -8 -12 -28 -25 -44 -28 -62
-13 -226 29 -247 63 -4 7 2 24 13 38 12 15 46 64 77 110 56 83 61 88 81 74z
m981 -64 c37 -35 31 -80 -18 -133 -107 -116 -287 -171 -435 -134 -47 12 -94
56 -94 88 0 43 37 68 165 110 138 46 296 89 334 90 14 1 35 -9 48 -21z m-1344
-135 c75 -15 137 -31 137 -34 0 -13 -110 -107 -172 -148 -66 -43 -112 -52
-122 -25 -3 9 -6 65 -6 125 0 80 3 109 13 109 6 0 74 -12 150 -27z m315 -155
c23 -22 42 -48 42 -57 0 -43 -87 -83 -210 -97 -123 -14 -142 14 -86 125 20 39
53 89 72 111 l36 39 51 -40 c29 -23 71 -59 95 -81z"/>
<path d="M1942 6133 c-35 -8 -61 -17 -59 -20 3 -2 22 1 44 8 22 7 132 15 263
19 l225 6 -205 1 c-150 1 -222 -3 -268 -14z"/>
<path d="M1950 6030 c-8 -5 -10 -10 -5 -10 6 0 17 5 25 10 8 5 11 10 5 10 -5
0 -17 -5 -25 -10z"/>
<path d="M2830 6100 c-8 -5 -10 -10 -5 -10 6 0 17 5 25 10 8 5 11 10 5 10 -5
0 -17 -5 -25 -10z"/>
<path d="M2880 5991 l-35 -7 45 -7 c25 -4 92 -12 150 -18 58 -6 127 -15 154
-20 62 -12 79 -11 71 1 -21 35 -293 71 -385 51z"/>
<path d="M3712 5961 c-19 -5 -39 -14 -45 -20 -8 -8 48 -11 209 -10 205 1 216
2 174 15 -53 17 -290 27 -338 15z"/>
<path d="M2869 5673 c-12 -15 -12 -16 4 -10 15 6 17 3 12 -14 -6 -19 -5 -20
15 -9 13 7 25 8 29 3 9 -13 282 -10 305 3 21 12 -14 17 -199 29 -49 3 -104 8
-121 11 -22 3 -35 -1 -45 -13z"/>
<path d="M3720 5640 c-73 -5 -74 -6 -45 -19 40 -18 181 -26 229 -13 25 7 45 8
57 2 12 -7 19 -6 21 2 3 8 10 8 27 -1 21 -12 22 -11 16 8 -5 17 -3 20 11 14
12 -4 15 -3 10 5 -8 13 -182 14 -326 2z"/>
<path d="M3321 5265 c-40 -7 -80 -11 -87 -8 -8 3 -14 0 -14 -6 0 -6 5 -11 11
-11 6 0 34 -20 62 -44 70 -59 113 -80 167 -80 56 0 99 23 156 79 24 25 55 50
68 57 23 12 21 13 -27 13 -29 0 -99 4 -157 7 -74 5 -126 3 -179 -7z m276 -26
l28 -11 -44 -39 c-82 -73 -159 -74 -242 0 l-44 39 115 -3 c63 -1 86 -1 50 1
-36 2 -81 7 -100 11 l-35 6 30 8 c39 10 207 2 242 -12z"/>
<path d="M5797 5324 c-8 -8 3 -34 14 -34 5 0 9 9 9 20 0 19 -11 26 -23 14z"/>
<path d="M5475 5290 c-7 -12 2 -30 16 -30 12 0 12 27 0 35 -5 3 -12 1 -16 -5z"/>
<path d="M2040 4452 c0 -5 7 -16 16 -23 14 -12 16 -11 13 5 -4 20 -29 35 -29
18z"/>
<path d="M1947 4374 c-31 -17 -28 -34 7 -34 25 0 46 17 46 37 0 17 -18 16 -53
-3z"/>
<path d="M1820 4335 c0 -8 7 -15 15 -15 9 0 12 6 9 15 -4 8 -10 15 -15 15 -5
0 -9 -7 -9 -15z"/>
<path d="M5886 3784 c-9 -8 -16 -20 -16 -25 0 -13 37 -11 46 3 4 7 3 8 -4 4
-7 -4 -12 -1 -12 8 0 8 6 17 13 19 8 4 9 6 0 6 -6 1 -19 -6 -27 -15z"/>
<path d="M5347 2194 c-9 -9 12 -46 23 -39 4 3 6 14 3 25 -5 20 -15 25 -26 14z"/>
<path d="M4953 2168 c-25 -12 -40 -45 -26 -59 14 -14 118 -29 158 -22 43 7 63
27 45 47 -24 30 -141 52 -177 34z m126 -29 c61 -27 43 -43 -43 -37 -69 4 -93
16 -83 42 9 23 72 20 126 -5z"/>
<path d="M4725 2150 c3 -5 17 -10 31 -10 42 0 27 -27 -31 -55 -88 -41 -185
-52 -185 -21 0 6 14 24 32 39 l33 28 -30 -14 c-17 -8 -38 -24 -49 -36 -63 -70
96 -69 234 2 56 29 62 51 19 66 -40 14 -62 14 -54 1z"/>
<path d="M4815 2068 c-26 -15 -35 -28 -35 -55 0 -21 5 -23 53 -23 65 0 118 15
149 40 23 20 23 20 4 35 -24 18 -141 20 -171 3z m150 -23 c0 -20 -131 -50
-155 -35 -12 7 -11 13 5 30 16 18 28 20 84 18 36 -2 66 -7 66 -13z"/>
<path d="M3253 1784 c-8 -21 22 -173 36 -187 20 -20 22 0 6 59 -8 32 -15 75
-15 96 0 40 -16 60 -27 32z"/>
<path d="M3420 1645 c0 -65 3 -86 13 -82 8 2 12 28 12 82 0 54 -4 80 -12 83
-10 3 -13 -18 -13 -83z"/>
<path d="M1285 7207 c-36 -31 -45 -105 -18 -157 22 -42 39 -44 67 -7 31 41 31
153 0 174 -20 13 -24 12 -49 -10z m50 -40 c7 -35 -9 -112 -25 -122 -15 -9 -33
36 -33 82 0 71 47 102 58 40z"/>
<path d="M1470 7063 c0 -21 78 -84 112 -89 67 -11 101 32 57 72 -15 14 -40 20
-95 22 -41 3 -74 0 -74 -5z m124 -17 c43 -18 54 -35 31 -52 -12 -9 -24 -10
-44 -3 -28 11 -71 47 -71 61 0 13 47 9 84 -6z"/>
<path d="M1356 6962 c-6 -10 48 -64 81 -81 12 -6 30 -11 40 -11 12 1 6 7 -17
19 -19 11 -44 28 -54 40 -19 21 -19 21 13 21 17 0 48 -7 67 -15 29 -12 35 -19
31 -35 -6 -24 5 -26 23 -4 28 33 -50 73 -142 74 -20 0 -39 -4 -42 -8z"/>
<path d="M1166 6511 c-22 -24 -45 -87 -46 -123 0 -25 -33 -68 -51 -68 -4 0 -5
15 -3 33 11 67 -38 118 -66 68 -14 -26 -13 -94 2 -126 10 -22 8 -29 -17 -55
-37 -39 -27 -49 14 -14 28 24 37 26 82 20 65 -9 135 20 145 58 9 36 -12 59
-49 53 -29 -4 -28 -2 21 40 43 37 52 51 52 77 0 18 -5 37 -12 44 -18 18 -53
14 -72 -7z m62 -28 c4 -27 -21 -66 -55 -88 l-26 -17 5 46 c6 50 32 89 57 84 9
-2 17 -13 19 -25z m-188 -118 c0 -53 -11 -72 -24 -39 -13 34 -3 94 15 94 5 0
9 -25 9 -55z m158 -52 c6 -38 -86 -69 -128 -43 -18 11 -17 12 45 44 56 30 79
30 83 -1z"/>
<path d="M1073 5463 c-37 -14 -38 -143 -2 -214 20 -41 95 -112 112 -106 30 10
41 213 15 263 -24 44 -87 73 -125 57z m81 -43 c14 -17 28 -47 32 -66 7 -36 -2
-160 -13 -177 -8 -14 -63 43 -84 88 -21 46 -26 154 -7 173 20 20 45 14 72 -18z"/>
<path d="M960 5201 c0 -17 25 -50 84 -111 102 -106 120 -132 112 -164 -8 -31
-51 -46 -132 -46 -53 0 -64 -3 -64 -16 0 -15 10 -16 87 -11 102 7 136 26 141
75 4 38 -2 47 -105 159 -45 48 -90 99 -102 113 l-20 25 -1 -24z"/>
<path d="M7476 5173 c29 -129 136 -393 200 -494 22 -35 27 -38 45 -28 28 14
59 85 59 134 -1 131 -71 254 -208 364 -73 59 -106 67 -96 24z m161 -116 c75
-83 106 -153 110 -251 4 -80 -8 -129 -32 -129 -31 0 -205 408 -205 481 0 18
64 -33 127 -101z"/>
<path d="M7455 4659 c-50 -56 -88 -141 -93 -211 -4 -49 -2 -58 12 -58 50 0
138 85 156 149 19 67 4 161 -25 161 -7 0 -29 -19 -50 -41z m58 -59 c-1 -64
-37 -137 -83 -168 -18 -12 -37 -19 -41 -15 -12 13 7 107 31 154 29 58 71 102
84 89 5 -5 9 -33 9 -60z"/>
<path d="M7946 2578 c-10 -32 -15 -188 -7 -188 11 0 17 31 26 133 5 46 3 67
-5 67 -6 0 -12 -6 -14 -12z"/>
<path d="M7455 2464 c8 -69 20 -98 30 -74 9 25 -9 123 -24 128 -11 4 -12 -6
-6 -54z"/>
<path d="M7645 2478 c15 -48 43 -51 31 -3 -4 14 -13 25 -22 25 -11 0 -14 -6
-9 -22z"/>
<path d="M7751 2449 c-70 -14 -198 -59 -222 -78 -40 -32 -8 -74 112 -142 30
-17 43 -28 29 -25 -14 3 -58 11 -98 18 -101 17 -104 12 -103 -128 2 -173 32
-191 165 -104 l76 50 -30 -60 c-52 -104 -42 -120 76 -120 l61 0 7 -61 c3 -34
6 -124 6 -199 0 -110 -3 -140 -15 -150 -8 -7 -15 -25 -15 -41 0 -29 -13 -38
-26 -18 -4 7 -22 9 -48 5 l-42 -7 4 91 c5 112 -12 122 -22 13 -5 -43 -8 -87
-8 -98 0 -13 -16 -30 -43 -47 -51 -31 -83 -74 -68 -89 15 -15 75 -26 186 -34
l97 -7 -77 -44 c-91 -52 -113 -71 -113 -95 0 -27 33 -44 137 -73 151 -43 191
-33 180 44 l-5 39 37 -19 c44 -22 92 -29 97 -15 2 6 -9 10 -24 11 -38 1 -104
47 -147 102 l-36 47 48 22 c26 12 74 25 106 29 56 7 80 24 32 24 l-25 0 20 20
c11 11 20 27 20 35 0 24 -36 53 -77 63 -21 5 -63 16 -93 23 l-55 14 -3 210 -2
210 58 17 c73 21 126 57 130 87 3 17 -9 37 -44 72 l-47 48 71 -6 c45 -4 72 -2
72 4 0 6 -28 13 -62 16 -67 7 -141 29 -172 52 -17 13 -15 18 41 97 32 46 67
95 76 111 10 15 24 27 32 27 8 0 30 -24 50 -52 27 -40 35 -48 35 -31 0 34 -39
92 -66 99 -38 10 -49 0 -105 -86 -28 -44 -53 -79 -55 -77 -2 1 3 25 11 52 17
56 19 118 5 146 -12 21 -51 24 -129 8z m105 -21 c21 -33 -13 -205 -47 -242
-10 -11 -127 43 -207 97 -90 61 -85 72 53 119 112 38 188 48 201 26z m-199
-243 c70 -14 129 -28 132 -31 9 -9 -96 -102 -163 -146 -60 -39 -102 -48 -124
-26 -13 13 -18 209 -5 221 10 11 24 9 160 -18z m265 -109 c84 -70 103 -97 89
-125 -13 -24 -101 -58 -173 -66 -29 -4 -66 -8 -82 -10 -39 -5 -76 11 -76 33 0
30 65 154 105 199 42 50 39 51 137 -31z m8 -670 c51 -13 101 -32 111 -43 17
-17 17 -21 4 -39 -7 -12 -42 -31 -77 -44 -35 -12 -67 -26 -72 -31 -17 -16 -34
-10 -42 14 -13 39 -32 152 -27 160 6 9 -3 11 103 -17z m-174 -34 c13 -8 64
-106 64 -123 0 -12 -137 -7 -217 7 -62 11 -34 55 65 105 39 19 70 23 88 11z
m124 -207 c27 -44 59 -135 53 -151 -9 -24 -32 -23 -135 6 -132 36 -138 38
-138 61 0 17 27 36 135 96 54 30 60 29 85 -12z"/>
<path d="M5763 2220 c-15 -6 -23 -18 -23 -33 0 -20 10 -29 49 -46 28 -12 73
-26 101 -33 40 -9 55 -18 63 -37 7 -17 11 -133 12 -341 0 -319 -7 -401 -40
-433 -9 -10 -11 -34 -5 -95 6 -65 12 -88 29 -106 15 -16 24 -41 28 -80 7 -72
29 -76 24 -4 l-3 51 62 -6 c35 -4 96 -7 136 -7 l74 0 0 -45 c0 -60 18 -58 22
3 l3 47 60 7 c64 7 192 37 264 63 24 8 47 13 50 9 3 -3 27 -42 52 -87 41 -72
69 -105 69 -80 0 5 -20 44 -45 88 -25 44 -44 84 -41 90 2 5 36 23 76 39 116
47 160 102 146 181 -13 70 -130 151 -295 207 -81 28 -94 29 -216 26 -128 -3
-130 -3 -133 20 -5 35 -22 26 -22 -13 0 -22 -5 -35 -13 -35 -28 0 -175 -80
-220 -120 l-48 -42 8 83 c10 107 10 385 0 509 l-7 96 46 12 c81 22 139 77 113
108 -26 32 -113 7 -156 -44 l-22 -26 -22 23 c-38 41 -133 68 -176 51z m83 -21
c44 -11 109 -69 85 -77 -24 -8 -123 21 -149 44 -23 20 -25 25 -12 34 19 12 22
12 76 -1z m270 0 c17 -28 -105 -104 -129 -80 -12 12 7 44 39 70 29 22 78 28
90 10z m428 -630 c14 -13 -1 -39 -31 -50 -18 -7 -48 -6 -100 2 -111 18 -145
10 -208 -50 -30 -28 -57 -51 -61 -51 -15 0 -44 33 -44 50 0 34 145 94 262 109
68 9 167 4 182 -10z m141 -36 c33 -14 73 -34 88 -45 27 -19 27 -22 12 -37 -11
-12 -31 -15 -73 -14 -67 3 -112 -10 -138 -38 -39 -44 -67 -50 -124 -30 -58 20
-69 19 -189 -24 -55 -20 -85 -25 -114 -21 -49 8 -137 52 -137 69 0 7 13 26 29
41 l28 27 16 -24 c31 -48 112 -35 141 22 29 55 75 64 201 42 83 -15 117 -6
143 39 19 33 20 33 117 -7z m177 -147 c-17 -38 -54 -56 -134 -68 -89 -12 -100
-17 -135 -70 -44 -66 -86 -77 -205 -55 -65 13 -133 17 -228 15 -113 -2 -140 1
-168 16 -42 22 -47 36 -32 83 20 62 24 63 86 31 66 -32 143 -37 209 -12 118
45 126 46 186 23 52 -19 59 -19 86 -5 16 8 36 22 43 31 26 31 68 45 138 45 54
0 75 4 93 19 24 20 24 20 48 -4 21 -21 23 -27 13 -49z m43 -34 c17 -82 -56
-135 -285 -210 -152 -50 -289 -73 -425 -74 -194 0 -240 20 -252 112 -6 45 -2
47 50 25 27 -11 76 -15 184 -15 81 0 168 -5 193 -11 106 -24 201 -4 233 50 28
47 53 62 129 75 81 14 104 24 132 55 25 28 33 26 41 -7z"/>
<path d="M7330 2030 c0 -22 5 -40 10 -40 6 0 10 18 10 40 0 22 -4 40 -10 40
-5 0 -10 -18 -10 -40z"/>
<path d="M5697 2013 c-11 -10 -8 -133 3 -133 6 0 10 30 10 70 0 70 -1 76 -13
63z"/>
<path d="M5880 1904 c0 -45 24 -42 28 4 2 24 -1 32 -12 32 -12 0 -16 -10 -16
-36z"/>
<path d="M7300 1910 c0 -5 7 -10 15 -10 39 0 42 -73 5 -157 l-19 -43 -45 20
c-69 29 -156 88 -156 105 0 19 25 32 118 60 43 13 66 24 52 24 -40 0 -183 -52
-194 -71 -13 -21 9 -48 71 -84 25 -14 42 -28 39 -31 -3 -3 -27 0 -55 7 -91 21
-106 2 -95 -122 10 -112 25 -119 118 -63 32 19 60 35 62 35 3 0 -5 -18 -16
-41 -31 -60 -24 -83 26 -87 l40 -3 12 -182 c12 -177 26 -294 37 -305 15 -15
15 20 1 155 -8 81 -16 188 -18 237 -3 101 -13 88 94 116 48 12 98 49 98 70 0
7 -16 27 -35 46 -19 18 -35 35 -35 36 0 2 29 3 64 3 73 0 106 20 105 64 0 29
-84 168 -111 185 -25 15 -46 0 -86 -60 l-33 -49 6 56 c8 68 -5 99 -40 99 -14
0 -25 -4 -25 -10z m214 -127 c73 -122 60 -152 -58 -140 -51 5 -126 34 -126 48
0 4 10 20 23 36 13 15 38 52 56 81 18 28 39 52 46 52 7 0 34 -35 59 -77z
m-324 -79 c47 -9 89 -20 93 -24 12 -10 -94 -102 -148 -129 -65 -32 -75 -21
-75 85 0 98 -8 94 130 68z m188 -80 c73 -59 91 -86 72 -109 -22 -26 -75 -44
-153 -51 -60 -5 -75 -4 -86 10 -11 14 -10 24 13 69 28 58 76 126 89 127 5 0
34 -21 65 -46z"/>
<path d="M2030 1800 c-19 -11 -31 -19 -27 -20 11 0 67 29 67 35 0 7 -1 7 -40
-15z"/>
<path d="M7630 1715 c0 -37 4 -65 10 -65 6 0 10 28 10 65 0 37 -4 65 -10 65
-6 0 -10 -28 -10 -65z"/>
<path d="M7932 1717 c-15 -35 -15 -47 -2 -47 14 0 22 24 18 52 -4 22 -5 22
-16 -5z"/>
<path d="M6096 1713 c-3 -3 -6 -25 -6 -47 1 -38 2 -40 15 -22 23 31 15 93 -9
69z"/>
<path d="M6874 1665 c-8 -20 3 -48 16 -40 13 8 13 55 0 55 -6 0 -13 -7 -16
-15z"/>
<path d="M7976 1582 c-3 -5 -8 -36 -12 -68 -6 -53 -5 -57 9 -44 16 16 29 107
16 115 -4 3 -10 1 -13 -3z"/>
<path d="M1004 1514 c8 -39 21 -62 31 -52 10 9 -10 81 -24 86 -11 4 -12 -4 -7
-34z"/>
<path d="M6993 1430 c4 -18 7 -46 7 -63 0 -22 3 -28 11 -20 15 15 7 105 -10
111 -11 4 -13 -3 -8 -28z"/>
<path d="M7490 1428 c0 -52 13 -98 27 -98 12 0 13 9 8 43 -9 60 -15 77 -26 77
-5 0 -9 -10 -9 -22z"/>
<path d="M4012 1395 c-27 -34 -36 -79 -22 -105 15 -29 25 -17 22 25 -2 18 4
48 13 65 21 40 13 49 -13 15z"/>
<path d="M5657 1303 c-6 -12 34 -133 44 -133 13 0 11 31 -7 83 -16 47 -29 64
-37 50z"/>
<path d="M5808 1243 c-23 -26 -29 -53 -29 -128 -1 -58 -3 -66 -17 -59 -117 49
-212 63 -245 35 -26 -21 -5 -46 71 -83 58 -28 78 -32 147 -33 44 0 83 -4 87
-10 22 -30 58 88 58 190 0 88 -35 130 -72 88z m36 -25 c8 -30 8 -137 0 -177
-16 -79 -49 11 -41 111 3 37 9 73 12 78 10 17 22 11 29 -12z m-173 -147 c61
-24 120 -62 116 -76 -5 -14 -92 -8 -147 10 -55 18 -106 57 -96 73 11 18 70 14
127 -7z"/>
<path d="M4138 1206 c-11 -26 -5 -56 12 -56 5 0 10 11 10 24 0 13 3 31 6 40
10 26 -15 18 -28 -8z"/>
<path d="M5420 1216 c0 -25 12 -46 26 -46 10 0 11 6 3 30 -11 31 -29 41 -29
16z"/>
<path d="M7087 1213 c-11 -10 -8 -93 3 -93 6 0 10 23 10 50 0 51 -1 55 -13 43z"/>
<path d="M3712 1180 c-18 -11 -40 -36 -48 -55 -12 -30 -12 -39 0 -69 17 -41
104 -96 151 -96 27 0 24 3 -25 26 -127 59 -146 131 -50 197 34 24 12 21 -28
-3z"/>
<path d="M4464 1136 c-8 -33 -2 -69 14 -74 8 -2 12 10 12 42 0 50 -16 70 -26
32z"/>
<path d="M7437 1152 c-8 -13 5 -102 14 -96 12 7 11 104 0 104 -6 0 -12 -3 -14
-8z"/>
<path d="M4245 1108 c-2 -7 -6 -43 -8 -80 -3 -50 -1 -68 8 -68 12 0 25 63 25
126 0 33 -17 47 -25 22z"/>
<path d="M6930 1090 c0 -16 5 -30 10 -30 6 0 10 14 10 30 0 17 -4 30 -10 30
-5 0 -10 -13 -10 -30z"/>
<path d="M1690 1073 c0 -66 12 -113 27 -113 11 0 13 7 10 23 -3 12 -9 46 -13
75 -8 60 -24 70 -24 15z"/>
<path d="M2903 1100 c-34 -5 -90 -16 -125 -26 -78 -21 -228 -89 -228 -103 0
-16 8 -14 43 13 41 30 130 63 237 87 205 45 478 3 548 -86 19 -24 42 -33 42
-17 0 13 -52 58 -86 75 -92 47 -304 75 -431 57z"/>
<path d="M1109 1053 c-6 -47 12 -106 27 -90 9 9 -6 97 -17 97 -5 0 -9 -3 -10
-7z"/>
<path d="M2852 1050 c-91 -13 -166 -37 -187 -60 -28 -31 -11 -35 27 -7 89 67
418 67 498 1 37 -32 60 -31 31 0 -48 51 -234 84 -369 66z"/>
<path d="M1047 1033 c-11 -10 -8 -73 3 -73 6 0 10 18 10 40 0 41 -2 45 -13 33z"/>
</g>
</svg>
