<?xml version="1.0" encoding="UTF-8" standalone="no"?>
<svg
   xmlns:dc="http://purl.org/dc/elements/1.1/"
   xmlns:cc="http://creativecommons.org/ns#"
   xmlns:rdf="http://www.w3.org/1999/02/22-rdf-syntax-ns#"
   xmlns:svg="http://www.w3.org/2000/svg"
   xmlns="http://www.w3.org/2000/svg"
   xmlns:sodipodi="http://sodipodi.sourceforge.net/DTD/sodipodi-0.dtd"
   xmlns:inkscape="http://www.inkscape.org/namespaces/inkscape"
   version="1.0"
   width="850.000000pt"
   height="850.000000pt"
   viewBox="0 0 850.000000 850.000000"
   preserveAspectRatio="xMidYMid meet"
   id="svg2"
   inkscape:version="0.91 r13725"
   sodipodi:docname="People_2018916_24.svg">
  <defs
     id="defs650" />
  <sodipodi:namedview
     pagecolor="#ffffff"
     bordercolor="#666666"
     borderopacity="1"
     objecttolerance="10"
     gridtolerance="10"
     guidetolerance="10"
     inkscape:pageopacity="0"
     inkscape:pageshadow="2"
     inkscape:window-width="1920"
     inkscape:window-height="979"
     id="namedview648"
     showgrid="false"
     inkscape:zoom="2.5129743"
     inkscape:cx="476.82595"
     inkscape:cy="642.91797"
     inkscape:window-x="0"
     inkscape:window-y="1"
     inkscape:window-maximized="1"
     inkscape:current-layer="svg2" />
  <metadata
     id="metadata4">
Created by potrace 1.14, written by Peter Selinger 2001-2017
<rdf:RDF>
  <cc:Work
     rdf:about="">
    <dc:format>image/svg+xml</dc:format>
    <dc:type
       rdf:resource="http://purl.org/dc/dcmitype/StillImage" />
  </cc:Work>
</rdf:RDF>
</metadata>
  <g
     transform="translate(0.000000,850.000000) scale(0.100000,-0.100000)"
     fill="#000000"
     stroke="none"
     id="g6">
    <path
       d="M0 4250 l0 -4250 4250 0 4250 0 0 4250 0 4250 -4250 0 -4250 0 0 -4250z m4189 3974 c11 -14 27 -49 37 -77 9 -29 36 -95 59 -147 57 -128 78 -221 77 -350 0 -158 -44 -294 -124 -386 -20 -23 -32 -46 -30 -59 4 -31 -30 -69 -64 -70 -25 -2 -29 -7 -46 -70 -18 -64 -18 -69 -2 -86 32 -36 76 -13 73 38 -1 17 -2 17 -6 1 -6 -24 -23 -23 -23 2 0 10 9 24 21 30 54 29 79 -72 39 -155 -13 -27 -34 -49 -61 -64 -36 -20 -50 -23 -105 -18 -72 7 -88 -7 -20 -17 66 -10 96 -38 96 -89 0 -25 8 -52 19 -66 l18 -24 12 35 c6 19 43 82 81 139 39 57 70 112 70 122 0 27 12 20 53 -31 20 -26 71 -87 112 -137 41 -49 90 -121 109 -159 l34 -68 43 63 c23 35 73 106 111 157 62 84 97 144 112 195 3 9 9 17 14 17 10 0 87 -135 97 -170 8 -28 117 -220 125 -219 3 0 19 19 35 42 33 46 228 182 245 172 34 -21 110 -227 110 -297 l0 -39 31 18 c46 26 174 148 200 189 12 19 24 32 28 29 3 -4 11 -28 18 -53 6 -26 21 -78 33 -117 12 -42 23 -113 27 -177 3 -58 9 -111 13 -118 5 -7 25 -6 69 5 51 14 77 15 150 6 49 -6 102 -8 118 -5 l30 6 6 -105 c7 -116 -2 -159 -49 -230 -14 -22 -24 -40 -22 -42 6 -7 268 -35 319 -35 35 0 49 -4 49 -14 0 -8 -22 -70 -50 -139 -27 -69 -50 -128 -50 -131 0 -3 10 -6 23 -6 31 -1 97 -27 194 -77 l81 -42 -44 -102 c-24 -56 -61 -123 -81 -147 l-37 -45 23 -16 c13 -8 53 -40 90 -70 36 -31 78 -63 91 -72 l25 -17 -74 -68 c-63 -59 -104 -91 -226 -177 -18 -14 -18 -15 17 -45 19 -18 55 -58 79 -89 24 -32 61 -79 82 -105 30 -37 35 -48 22 -48 -10 0 -39 -16 -66 -36 -54 -39 -135 -74 -173 -74 -23 0 -23 0 14 -72 35 -69 68 -173 57 -184 -2 -3 -21 5 -41 17 -59 35 -115 24 -270 -54 -163 -82 -226 -101 -338 -102 -85 0 -87 -1 -74 -20 44 -68 101 -186 127 -262 16 -48 31 -93 34 -100 3 -9 22 -6 70 12 132 50 283 63 397 34 32 -8 51 -4 143 31 194 74 279 91 474 97 l174 6 -7 -24 c-3 -13 -18 -93 -32 -178 -34 -202 -73 -326 -119 -381 -7 -9 -15 -56 -17 -115 -7 -135 -38 -244 -115 -395 -51 -101 -63 -133 -63 -173 0 -48 -42 -173 -90 -268 -55 -108 -159 -231 -259 -307 -17 -13 -31 -30 -31 -38 0 -20 -89 -114 -166 -175 -129 -103 -325 -179 -462 -179 -36 0 -68 -8 -100 -24 -92 -46 -157 -60 -302 -60 -115 -1 -146 2 -210 22 -89 28 -151 59 -202 100 -30 23 -52 31 -104 37 -89 9 -157 30 -191 59 -41 34 -105 65 -162 77 -42 9 -56 8 -86 -7 -65 -30 -165 -204 -243 -419 -25 -70 -25 -70 -26 -460 -2 -335 -4 -398 -19 -445 -9 -30 -26 -91 -37 -135 -12 -44 -28 -87 -37 -95 -14 -13 -15 -13 -9 3 3 10 23 71 43 135 l38 117 1 405 2 405 30 80 c76 202 131 307 202 387 40 46 44 48 96 48 62 0 140 -27 190 -65 54 -41 113 -63 189 -71 l70 -7 -24 27 c-49 52 1 24 58 -33 65 -65 150 -112 252 -136 72 -17 235 -20 320 -6 67 11 172 52 171 66 -1 6 -19 14 -41 19 -23 5 -41 13 -41 17 0 12 9 11 66 -6 100 -30 252 -11 389 49 106 47 325 230 325 271 0 11 -5 15 -15 11 -8 -3 -22 -9 -32 -13 -11 -4 -14 -3 -9 6 4 6 39 27 78 47 39 19 86 52 105 72 134 142 253 370 253 484 l0 41 -50 -47 c-71 -66 -83 -57 -14 12 142 141 233 355 246 578 l4 62 -45 -34 c-64 -49 -64 -32 0 25 30 27 67 71 81 98 37 67 74 202 97 353 11 69 23 136 27 149 l7 23 -144 -7 c-164 -8 -247 -22 -380 -66 -134 -44 -230 -91 -259 -125 -26 -30 -50 -50 -50 -40 0 3 16 24 36 46 20 22 34 43 31 46 -11 11 -83 24 -137 24 -99 0 -305 -56 -317 -85 -2 -7 2 -49 10 -94 7 -45 10 -84 5 -87 -4 -3 -72 -8 -151 -11 -107 -4 -175 -1 -277 12 -74 10 -145 18 -157 18 -36 -1 -113 -43 -159 -87 -37 -37 -43 -48 -49 -101 -11 -96 -135 -355 -169 -355 -7 0 -27 20 -45 45 -36 51 -98 97 -171 127 l-50 21 -41 -29 c-61 -42 -162 -158 -195 -222 -24 -47 -29 -69 -28 -124 0 -73 -11 -90 -22 -33 -3 19 -9 35 -13 35 -17 0 -62 -59 -84 -110 -41 -94 -50 -152 -44 -284 5 -119 25 -212 63 -298 16 -36 16 -37 -15 -85 -53 -83 -83 -145 -123 -257 -46 -128 -54 -146 -72 -146 -16 0 -18 10 -51 330 -14 135 -32 290 -41 345 -8 55 -19 134 -24 175 -5 41 -21 143 -34 225 -37 229 -50 318 -48 344 1 13 -14 45 -36 74 -20 28 -67 109 -103 180 -52 102 -68 125 -74 111 -4 -11 -10 -79 -13 -153 -4 -115 1 -207 23 -431 3 -25 12 -115 20 -200 19 -191 38 -308 70 -425 28 -101 31 -135 13 -135 -7 0 -22 15 -34 33 -12 17 -61 79 -109 137 -48 58 -105 130 -125 160 -83 123 -234 232 -366 264 -131 33 -310 21 -218 -15 15 -5 24 -12 20 -16 -3 -3 -43 11 -88 33 -80 37 -88 39 -201 42 -173 5 -309 -26 -422 -97 l-40 -25 45 -8 c98 -16 110 -19 110 -27 0 -4 -21 -4 -47 0 -191 31 -388 -27 -521 -155 -65 -62 -130 -146 -114 -146 5 0 26 7 47 16 20 8 42 13 48 11 7 -3 3 -8 -8 -12 -183 -65 -332 -223 -416 -439 -28 -72 -40 -148 -26 -163 4 -3 23 11 43 31 53 55 55 35 2 -22 -53 -57 -66 -79 -85 -147 -28 -102 -63 -322 -63 -395 l1 -75 22 27 c37 45 39 32 6 -27 -21 -37 -33 -74 -36 -113 -8 -85 14 -278 41 -374 47 -161 89 -252 99 -218 35 113 88 185 167 225 26 13 84 33 129 44 99 25 179 66 200 103 9 16 19 28 24 28 11 0 8 -14 -9 -38 -9 -13 -13 -26 -10 -30 4 -3 62 -8 129 -10 92 -3 139 0 186 12 82 21 228 89 263 123 15 15 31 24 34 20 4 -3 -9 -20 -27 -38 l-34 -31 53 5 c65 7 199 70 270 126 79 63 143 172 167 284 3 15 10 27 15 27 5 0 0 -32 -11 -71 -11 -39 -18 -73 -16 -75 9 -9 84 66 128 129 77 110 118 288 97 422 -10 68 -5 81 12 29 l13 -37 13 32 c7 18 23 82 35 144 24 128 52 195 109 260 86 97 219 126 329 71 58 -29 89 -66 138 -165 27 -54 36 -92 58 -241 45 -314 55 -568 34 -908 -10 -176 -49 -435 -71 -470 -11 -19 -1 55 18 130 14 54 25 159 43 415 10 141 -1 527 -19 667 -29 227 -53 344 -82 403 -73 146 -148 193 -281 174 -131 -17 -226 -141 -257 -336 -6 -37 -24 -108 -40 -158 -15 -49 -33 -129 -39 -176 -6 -47 -18 -108 -26 -136 -20 -67 -85 -166 -147 -222 -28 -25 -91 -87 -140 -138 -68 -70 -107 -101 -167 -132 -89 -46 -174 -71 -242 -71 -33 0 -69 -10 -121 -35 -101 -48 -212 -63 -354 -47 -96 11 -106 10 -136 -8 -18 -10 -77 -30 -130 -44 -54 -14 -114 -34 -135 -45 -69 -35 -124 -109 -147 -195 -8 -32 -19 -63 -25 -69 -13 -13 -48 64 -98 211 -44 133 -73 374 -54 463 6 32 8 87 5 130 -5 54 0 106 15 194 30 167 48 245 66 288 8 20 15 60 15 90 0 58 31 159 75 247 44 88 107 169 196 255 46 44 104 109 129 144 89 126 194 196 356 236 58 14 119 37 154 58 138 83 304 123 470 114 52 -2 111 -12 130 -20 27 -12 58 -14 142 -10 123 7 214 -10 310 -58 121 -59 189 -120 310 -280 92 -121 200 -250 205 -245 2 2 -7 48 -21 102 -34 138 -53 262 -71 459 -8 94 -22 234 -30 313 -8 78 -15 179 -15 225 l-1 82 -37 -70 c-23 -43 -70 -104 -123 -160 -47 -49 -91 -100 -98 -112 -6 -12 -11 -44 -11 -72 0 -28 -3 -51 -6 -51 -3 0 -30 16 -60 36 -97 64 -184 177 -278 359 -53 103 -83 200 -93 298 -3 37 -9 67 -13 67 -4 0 -27 -26 -52 -57 -73 -92 -137 -155 -218 -212 -100 -70 -137 -89 -215 -105 -75 -16 -76 -16 -91 -59 l-11 -32 -45 62 c-65 89 -89 164 -95 298 -3 61 0 130 6 155 12 54 8 60 -22 32 -46 -44 -164 -72 -369 -87 -82 -7 -87 -9 -93 -33 -15 -62 -54 67 -55 183 0 133 50 352 114 489 l32 71 -90 0 c-74 0 -100 4 -138 23 -143 67 -313 90 -388 52 -63 -32 -70 -28 -70 35 0 172 198 454 399 569 l41 22 -53 17 c-60 20 -134 71 -170 119 -14 18 -55 92 -92 163 -37 72 -79 142 -93 158 -16 16 -22 30 -16 35 20 19 152 101 194 122 25 12 46 23 48 25 1 1 -15 20 -36 42 -41 43 -83 139 -85 195 -2 32 1 34 92 81 83 42 101 47 158 47 57 0 64 2 59 18 -2 9 -14 62 -26 117 -11 55 -23 108 -26 117 -3 11 3 21 18 29 43 23 191 59 295 71 l103 12 1 100 c0 56 5 117 12 136 18 52 45 61 167 58 l105 -3 5 50 c3 28 9 56 13 63 6 8 37 12 98 12 91 0 98 4 79 40 -9 17 -13 17 -64 4 -30 -8 -114 -37 -186 -64 -73 -28 -143 -50 -156 -50 -29 0 -49 37 -40 73 5 21 24 31 148 73 104 36 150 56 170 77 22 23 35 28 66 26 28 -2 47 3 67 19 15 12 38 22 50 22 12 0 28 7 35 15 7 8 27 15 46 15 18 0 36 5 40 11 3 6 20 9 38 6 21 -4 41 1 61 14 17 10 44 26 62 34 17 8 34 19 38 25 3 5 18 10 32 10 27 0 27 -1 0 75 -17 46 -9 79 21 83 27 4 80 -67 88 -120 4 -21 9 -40 13 -42 3 -2 56 15 116 37 78 30 111 47 113 60 4 20 -24 57 -43 57 -7 0 -24 11 -39 25 -21 19 -27 33 -24 58 3 28 8 34 47 46 55 17 71 52 71 154 0 63 4 80 25 112 15 20 25 39 23 40 -2 2 -31 10 -66 19 -55 14 -142 66 -142 85 0 4 -16 23 -36 44 -40 41 -76 48 -106 20 -22 -20 -23 -51 -2 -81 22 -32 9 -40 -24 -15 -32 24 -40 74 -19 125 23 55 107 85 159 57 11 -6 21 -9 23 -7 3 2 -2 26 -10 53 -30 98 -14 207 38 263 57 62 123 68 173 18 28 -28 34 -42 34 -75 0 -46 -11 -53 -28 -16 -8 18 -19 25 -39 25 -73 -1 -86 -65 -31 -146 26 -38 39 -44 31 -15 -9 35 16 90 44 97 38 10 77 -24 81 -69 3 -38 -5 -46 -26 -25 -21 21 -35 -4 -22 -38 12 -30 38 -64 50 -64 4 0 12 18 19 40 18 62 64 74 148 39 29 -12 44 -11 130 11 174 43 273 98 315 177 14 26 38 85 53 130 34 105 64 127 104 77z m2120 -189 c37 -19 91 -81 119 -138 55 -111 3 -229 -150 -343 l-57 -42 67 -7 c94 -9 141 -23 185 -52 39 -27 107 -125 107 -155 0 -22 -47 -52 -117 -74 -73 -23 -140 -15 -204 25 -28 17 -51 31 -53 31 -1 0 0 -16 2 -35 2 -19 1 -42 -2 -52 -6 -14 -12 -11 -40 16 l-33 32 -6 -39 c-15 -92 -69 -175 -143 -218 -89 -52 -133 -13 -141 130 -5 75 -3 88 22 144 15 33 36 69 46 78 31 28 22 32 -33 13 -114 -39 -216 -18 -275 58 -41 53 -42 54 -63 135 -29 112 -29 146 0 170 69 56 335 -33 436 -145 24 -27 44 -44 44 -39 0 6 -4 14 -10 17 -5 3 -10 17 -10 30 0 17 -9 29 -29 39 -70 37 -126 140 -103 192 7 14 17 22 22 19 14 -8 13 -55 -1 -55 -17 0 -1 -50 27 -87 13 -17 40 -41 60 -53 32 -20 37 -21 51 -7 21 20 30 174 13 207 -11 21 -13 21 -22 7 -5 -10 -13 -17 -18 -17 -16 0 -11 36 6 51 14 11 19 9 35 -11 26 -35 34 -103 20 -178 -8 -46 -9 -68 -2 -75 6 -6 11 -19 11 -28 0 -10 3 -20 8 -22 4 -3 7 38 7 92 0 152 51 309 121 370 39 35 61 38 103 16z m-4511 -55 c12 -12 29 -32 38 -46 13 -18 22 -23 38 -18 11 4 38 6 58 5 31 -1 43 4 68 31 29 32 31 32 45 14 24 -31 19 -135 -10 -222 -29 -86 -86 -204 -122 -251 -25 -35 -21 -44 8 -17 9 8 32 18 51 21 45 6 73 26 105 74 48 72 62 179 23 179 -14 0 -25 -23 -12 -28 19 -6 14 -34 -5 -30 -23 4 -24 47 -2 61 9 6 24 7 32 4 65 -25 -8 -217 -100 -266 -35 -19 -36 -20 -12 -21 42 0 126 48 159 93 34 46 49 102 31 120 -8 8 -11 5 -11 -12 0 -13 -5 -21 -12 -19 -19 7 -20 24 -2 43 16 15 18 15 36 -3 17 -17 18 -24 9 -58 -13 -50 -63 -117 -104 -142 -18 -11 -67 -30 -109 -43 -55 -16 -80 -30 -89 -46 -15 -28 -68 -54 -96 -47 -15 4 -28 -6 -56 -45 -35 -48 -82 -89 -93 -79 -2 3 11 28 30 57 19 28 34 51 33 51 -1 0 -24 -7 -51 -15 -61 -19 -102 -19 -191 0 -84 18 -103 33 -87 70 7 16 8 33 3 49 -8 20 -5 27 20 45 17 13 29 31 29 44 0 16 9 26 31 34 29 11 30 14 27 60 l-3 48 43 -1 c41 -1 42 1 52 37 10 36 50 79 73 79 6 0 19 7 29 17 14 13 18 31 18 93 0 77 9 100 40 100 9 0 26 -9 38 -20z m5352 -4355 c0 -2 -19 -14 -42 -26 -24 -12 -70 -43 -103 -69 -87 -69 -320 -311 -389 -405 -33 -44 -85 -106 -115 -137 -30 -32 -52 -60 -49 -63 3 -4 55 13 114 36 222 85 235 89 282 88 l47 -2 -55 -7 c-30 -5 -100 -27 -155 -49 -55 -23 -139 -55 -186 -70 -61 -20 -109 -45 -160 -83 -41 -30 -129 -92 -197 -137 -68 -46 -122 -84 -120 -85 2 -1 93 2 203 5 201 7 216 9 313 48 91 36 213 64 225 52 8 -8 2 -11 -23 -11 -19 0 -93 -20 -165 -45 -162 -55 -238 -67 -368 -59 -144 9 -195 -3 -366 -88 -80 -40 -200 -91 -265 -114 -104 -36 -115 -42 -91 -48 16 -4 74 -28 129 -53 l100 -46 156 4 c283 7 411 3 460 -15 36 -13 38 -14 10 -8 -19 4 -172 7 -340 7 l-305 0 -105 49 c-123 59 -157 61 -270 23 -102 -34 -299 -122 -385 -170 -72 -41 -185 -124 -185 -137 0 -4 26 -1 58 7 43 11 114 15 291 13 263 -1 363 -14 462 -58 88 -40 155 -61 241 -76 l73 -14 -51 -1 c-57 -1 -146 24 -272 75 -111 47 -143 51 -400 59 -189 6 -237 4 -322 -10 -55 -10 -113 -26 -129 -36 -16 -9 -59 -60 -97 -113 -38 -52 -73 -95 -77 -96 -15 0 38 83 95 149 136 156 218 274 238 341 36 123 43 200 25 270 -21 83 -32 230 -16 230 7 0 11 -23 11 -67 0 -38 7 -101 17 -141 15 -63 15 -85 5 -165 -16 -128 -25 -154 -82 -242 -28 -42 -45 -73 -38 -68 7 4 46 30 86 56 39 26 105 63 145 82 92 43 224 101 258 114 29 11 104 102 136 166 42 82 55 147 63 320 9 191 24 256 71 310 38 43 61 47 25 4 -15 -17 -34 -45 -42 -61 -25 -48 -44 -183 -37 -263 10 -126 -37 -291 -113 -395 -24 -33 -42 -60 -40 -60 25 0 360 125 449 168 103 49 122 61 142 96 43 74 57 148 60 321 2 163 14 227 61 318 25 48 23 29 -11 -75 -39 -120 -50 -203 -36 -273 10 -54 -8 -190 -35 -253 -8 -20 -12 -37 -9 -40 5 -5 166 101 336 222 106 74 107 76 138 150 36 86 38 120 11 196 -24 69 -27 187 -5 216 14 18 15 17 8 -11 -13 -48 -6 -146 12 -195 28 -72 29 -119 6 -173 -12 -27 -21 -51 -21 -55 0 -15 69 63 151 169 82 109 301 338 395 416 60 48 164 105 164 88z m-655 -1082 c13 -12 16 -27 12 -55 -4 -31 -2 -40 11 -44 10 -3 25 -10 35 -15 24 -13 60 17 54 43 -3 10 -1 18 4 18 15 0 10 -42 -8 -62 -16 -17 -15 -20 17 -53 19 -19 42 -35 52 -35 22 0 68 -28 68 -42 0 -5 -12 0 -26 11 -15 12 -35 21 -44 21 -28 0 -12 -42 28 -75 18 -15 31 -30 28 -32 -2 -3 -14 5 -25 16 -28 28 -45 26 -59 -4 -8 -17 -20 -25 -37 -25 -14 0 -36 -7 -49 -16 -21 -13 -28 -13 -59 0 -41 17 -47 13 -48 -28 0 -29 -1 -30 -10 -8 -5 15 -5 30 1 42 11 21 3 53 -12 44 -5 -3 -13 -16 -18 -28 -8 -19 -9 -19 -9 7 -1 15 5 30 13 33 10 4 12 14 6 40 -5 20 -10 37 -12 38 -1 1 -16 8 -32 14 -16 7 -26 15 -23 18 3 3 15 1 26 -6 26 -14 37 -8 45 26 6 22 1 32 -29 60 -38 35 -44 66 -12 72 20 4 24 -24 5 -31 -9 -3 -7 -11 7 -26 l20 -21 43 21 c46 23 57 57 22 66 -11 3 -20 12 -20 19 0 19 15 18 35 -3z m-3718 -353 c21 -7 56 -20 78 -30 99 -45 171 -80 187 -92 13 -10 37 -10 115 0 140 17 247 15 326 -7 69 -19 85 -27 75 -36 -3 -4 -34 4 -69 16 -75 25 -207 29 -334 9 -63 -9 -86 -17 -108 -38 -71 -67 -167 -248 -216 -407 -25 -81 -28 -202 -6 -324 15 -89 14 -115 -3 -59 -21 67 -35 202 -29 272 11 127 105 353 198 475 22 29 38 55 36 57 -8 9 -166 -49 -242 -89 -156 -82 -237 -192 -315 -426 -38 -114 -46 -222 -26 -361 7 -52 12 -97 10 -99 -13 -15 -28 77 -32 201 -4 131 -2 154 18 220 32 105 84 231 119 288 17 28 31 53 31 56 0 3 -24 -11 -52 -32 -29 -21 -89 -63 -133 -93 -147 -101 -167 -121 -197 -202 -77 -207 -99 -422 -59 -554 32 -101 23 -123 -10 -25 -20 60 -28 105 -29 155 0 130 44 356 87 438 8 16 13 31 10 33 -5 6 -136 -148 -177 -209 -19 -29 -63 -88 -97 -132 -77 -98 -87 -128 -74 -237 32 -273 33 -283 23 -308 -10 -23 -11 -21 -11 20 -1 25 -8 100 -16 165 -8 66 -15 139 -15 163 0 23 -4 42 -8 42 -18 0 -171 -319 -217 -450 -26 -74 -57 -157 -70 -185 -12 -27 -25 -60 -29 -72 -7 -20 -36 -52 -36 -39 0 4 20 53 44 109 24 56 63 156 86 222 23 66 77 189 121 273 43 83 75 152 70 152 -22 0 -133 -94 -205 -174 -44 -48 -93 -97 -110 -108 -17 -12 -29 -19 -26 -16 28 33 154 170 185 201 22 22 76 63 120 92 47 31 88 67 99 87 11 18 43 62 71 98 28 36 59 78 69 93 9 16 53 71 97 123 44 52 78 94 76 94 -13 0 -258 -105 -296 -126 -80 -47 -184 -125 -234 -176 -27 -28 -51 -47 -55 -43 -10 10 107 117 190 173 91 62 140 86 306 152 91 36 149 66 185 95 77 63 347 244 467 313 62 36 145 74 203 93 55 17 95 35 90 39 -4 5 -66 35 -138 66 l-130 58 -205 1 c-113 0 -227 -4 -255 -8 -36 -6 -47 -6 -39 2 25 27 435 35 511 11z m-181 -312 c5 -8 -12 -9 -67 -5 -109 10 -380 -9 -470 -32 -41 -10 -105 -33 -141 -50 -36 -17 -74 -31 -84 -30 -15 0 -14 2 6 11 14 7 53 24 88 40 128 58 233 75 489 77 120 1 174 -2 179 -11z m72 -596 c2 -7 -7 -16 -21 -21 -28 -11 -37 -29 -37 -74 0 -28 1 -29 13 -13 11 16 15 16 25 3 7 -8 12 -19 11 -23 -3 -21 2 -24 22 -13 16 8 23 8 29 -1 5 -8 12 -5 24 11 18 26 22 69 6 69 -5 0 -10 9 -10 21 0 11 5 19 12 17 40 -14 33 -96 -13 -139 -32 -29 -35 -54 -15 -109 l13 -35 58 58 c32 31 60 55 63 53 11 -12 -14 -50 -64 -95 -68 -62 -78 -86 -51 -123 17 -22 19 -37 14 -89 -3 -34 -11 -66 -17 -73 -10 -8 -11 3 -7 51 3 43 1 67 -8 80 -17 23 -29 11 -31 -30 -1 -18 -5 -62 -9 -100 -7 -57 -10 -65 -22 -55 -15 12 -14 61 3 132 6 26 5 27 -14 17 -36 -19 -63 -12 -97 25 l-33 36 -28 -39 c-33 -44 -66 -73 -76 -67 -9 6 71 124 88 131 13 5 20 43 8 43 -13 0 -64 -42 -64 -52 0 -20 -32 -48 -54 -48 -19 1 -19 2 -5 13 9 7 23 26 32 44 9 17 36 44 59 60 37 25 43 34 42 64 -1 18 -9 54 -18 77 -11 28 -14 56 -10 78 6 33 24 38 24 7 0 -8 7 -40 16 -70 l16 -55 25 24 c37 35 45 53 32 82 -15 31 -4 86 22 120 21 27 39 30 47 8z"
       id="path8"
       style="fill:#333300" />
    <path
       d="M4126 8208 c-8 -13 -22 -50 -31 -83 -36 -125 -81 -183 -181 -236 -35 -19 -43 -29 -48 -60 -11 -70 -86 -93 -134 -41 -24 26 -31 27 -62 19 -19 -5 -36 -10 -38 -12 -4 -3 107 -209 138 -257 l24 -36 28 21 c23 17 32 19 53 9 39 -18 52 -55 32 -97 l-16 -34 35 -31 c38 -33 224 -130 250 -130 19 0 74 56 74 76 0 8 -6 14 -13 14 -22 0 -47 34 -47 64 0 53 75 97 108 64 17 -17 28 0 36 55 5 32 3 44 -14 62 -28 30 -27 80 3 100 22 14 23 19 15 82 -9 74 -39 173 -73 243 -12 25 -28 63 -35 85 -22 70 -61 145 -75 145 -8 0 -21 -10 -29 -22z m92 -180 c3 -29 -2 -43 -22 -63 -47 -47 -83 -21 -77 57 2 28 31 49 65 46 28 -3 31 -7 34 -40z m70 -154 c43 -30 11 -124 -43 -124 -54 0 -75 73 -33 117 25 27 45 29 76 7z m-238 -44 c27 -27 25 -62 -6 -99 -41 -49 -101 -39 -119 20 -9 27 19 67 58 84 42 19 44 18 67 -5z m-176 -126 c22 -22 20 -54 -6 -81 -41 -43 -88 -22 -88 41 0 31 24 56 55 56 13 0 31 -7 39 -16z m284 -56 c14 -14 16 -62 2 -87 -5 -10 -24 -24 -41 -31 -30 -13 -33 -12 -51 10 -14 17 -18 33 -14 55 10 52 73 84 104 53z m-37 -212 c16 -35 -1 -79 -35 -91 -24 -8 -31 -6 -47 14 -24 30 -24 56 1 81 28 28 68 26 81 -4z"
       id="path10"
       style="fill:#990000" />
    <path
       d="M4139 8023 c-10 -28 -3 -53 17 -60 19 -6 45 22 47 52 2 26 -2 30 -25 33 -23 3 -30 -2 -39 -25z"
       id="path12"
       style="fill:#3366ff" />
    <path
       d="M4226 7851 c-25 -28 -18 -75 12 -79 31 -5 52 15 52 47 0 49 -34 65 -64 32z"
       id="path14"
       style="fill:#3366ff" />
    <path
       d="M3970 7802 c-35 -36 -37 -43 -10 -67 42 -38 113 26 84 73 -18 28 -42 25 -74 -6z"
       id="path16"
       style="fill:#3366ff" />
    <path
       d="M3807 7694 c-14 -14 -7 -65 9 -71 26 -10 49 11 49 43 0 24 -5 30 -25 32 -14 2 -29 0 -33 -4z"
       id="path18"
       style="fill:#3366ff" />
    <path
       d="M4087 7622 c-21 -23 -22 -56 -2 -72 32 -27 92 43 65 75 -17 20 -44 19 -63 -3z"
       id="path20"
       style="fill:#3366ff" />
    <path
       d="M4055 7424 c-19 -19 -16 -43 7 -57 23 -15 48 8 48 44 0 34 -28 40 -55 13z"
       id="path22"
       style="fill:#3366ff" />
    <path
       d="M3202 8073 c-19 -9 -44 -35 -59 -60 -23 -40 -25 -51 -21 -127 7 -145 84 -260 220 -332 61 -32 83 -38 130 -38 31 1 77 8 101 18 l45 17 -41 88 -42 88 -31 -10 c-47 -14 -94 -1 -165 46 -78 52 -119 108 -126 170 -5 40 -2 49 21 72 22 22 34 26 67 23 21 -2 39 0 39 3 0 15 -63 59 -83 59 -12 0 -37 -8 -55 -17z"
       id="path24"
       style="fill:#ff9933" />
    <path
       d="M3320 7911 c-16 -31 -12 -76 11 -105 25 -32 34 -29 18 7 -10 22 -9 31 5 52 10 16 23 24 32 21 20 -8 17 8 -4 27 -25 22 -49 21 -62 -2z"
       id="path26"
       style="fill:#ffcc33" />
    <path
       d="M3783 7838 c-24 -5 -43 -15 -43 -22 0 -39 69 -50 94 -14 33 46 23 53 -51 36z"
       id="path28"
       style="fill:#3366ff" />
    <path
       d="M3465 7800 c-21 -40 -19 -57 3 -37 39 35 74 9 113 -83 32 -76 135 -259 162 -288 12 -14 37 -31 55 -38 17 -8 32 -20 32 -28 0 -18 104 -89 185 -128 78 -36 152 -48 166 -27 14 22 11 39 -8 45 -10 4 -65 29 -123 57 -94 45 -115 61 -200 146 -82 83 -104 113 -164 223 -76 143 -117 188 -171 188 -28 0 -37 -6 -50 -30z"
       id="path30"
       style="fill:#990099" />
    <path
       d="M3480 7745 c0 -17 2 -18 24 -9 18 7 12 24 -10 24 -8 0 -14 -7 -14 -15z"
       id="path32"
       style="fill:none" />
    <path
       d="M3004 7730 c-22 -9 -54 -47 -54 -64 0 -5 10 0 23 12 45 42 79 31 160 -52 62 -63 81 -77 130 -91 91 -26 99 -15 23 33 -36 24 -74 55 -83 68 -8 13 -38 42 -66 64 -51 41 -87 49 -133 30z"
       id="path34"
       style="fill:#ffcc33" />
    <path
       d="M4315 7640 c-8 -26 14 -68 26 -49 5 8 9 26 9 42 0 32 -25 37 -35 7z"
       id="path36"
       style="fill:#3366ff" />
    <path
       d="M2940 7620 c0 -5 5 -10 11 -10 5 0 7 5 4 10 -3 6 -8 10 -11 10 -2 0 -4 -4 -4 -10z"
       id="path38"
       style="fill:none" />
    <path
       d="M3575 7513 c-22 -8 -78 -17 -124 -19 -119 -5 -133 -21 -141 -161 -6 -106 -23 -139 -81 -158 -28 -10 -34 -17 -34 -40 0 -23 8 -34 45 -55 25 -14 51 -38 57 -52 7 -14 20 -31 29 -39 14 -12 20 -10 40 14 13 16 24 35 24 44 0 12 7 9 25 -11 31 -34 31 -35 -1 -33 -18 1 -32 -6 -46 -25 -27 -34 -18 -58 22 -58 24 0 32 -6 44 -34 32 -76 107 -84 207 -21 57 35 74 38 45 6 -15 -16 -16 -25 -7 -58 6 -21 11 -62 11 -90 0 -36 4 -53 13 -53 8 0 237 26 263 30 0 0 -5 31 -10 68 -10 61 -16 75 -58 120 -48 55 -78 122 -78 179 0 30 -3 34 -20 28 -26 -8 -50 11 -49 39 0 21 0 21 11 -1 41 -84 92 81 54 172 -8 19 -18 35 -21 35 -19 0 -47 -25 -59 -53 -14 -31 -14 -31 -15 -7 -1 14 6 36 15 48 14 21 13 24 -18 66 -19 24 -45 64 -58 90 -28 51 -28 51 -85 29z m17 -61 c8 -8 -6 -11 -54 -9 -61 2 -69 0 -106 -30 -71 -57 -104 -31 -34 27 36 30 40 31 110 27 40 -2 78 -9 84 -15z m-65 -70 c6 -4 23 -24 37 -45 l26 -38 -32 -14 c-78 -32 -155 -27 -200 13 -22 18 -24 40 -3 22 13 -10 15 -9 15 11 l0 24 21 -25 c16 -20 22 -22 26 -10 4 8 19 27 34 42 27 28 53 35 76 20z m271 -165 c2 -20 -1 -37 -5 -37 -5 0 -9 8 -9 18 0 9 -4 28 -8 41 -6 18 -5 22 5 19 8 -3 15 -21 17 -41z"
       id="path40"
       style="fill:#ffcc99" />
    <path
       d="M3466 7348 c-13 -13 -27 -33 -31 -45 -6 -20 -3 -23 23 -23 42 0 92 20 92 36 0 16 -35 54 -49 54 -6 0 -21 -10 -35 -22z"
       id="path42"
       style="fill:#330066" />
    <path
       d="M3832 7508 c-18 -18 -15 -32 12 -58 44 -40 76 -3 40 48 -17 25 -34 28 -52 10z"
       id="path44"
       style="fill:#3366ff" />
    <path
       d="M4227 7432 c-33 -36 -13 -92 32 -92 13 0 41 53 41 78 0 34 -47 43 -73 14z"
       id="path46"
       style="fill:#3366ff" />
    <path
       d="M3845 7198 c-12 -104 -8 -163 15 -217 23 -50 80 -115 122 -137 36 -19 102 -18 145 3 57 27 95 111 74 164 l-10 24 0 -27 c-1 -33 -33 -68 -61 -68 -21 0 -70 41 -70 58 0 5 7 29 15 52 8 23 15 55 15 70 0 24 -6 30 -37 40 -48 15 -156 74 -173 95 -21 26 -27 17 -35 -57z"
       id="path48"
       style="fill:#ff9933" />
    <path
       d="M2937 7048 c-2 -8 5 -45 18 -83 12 -39 21 -73 18 -77 -5 -10 10 -10 31 -2 9 4 16 18 16 33 -1 55 -70 163 -83 129z"
       id="path50"
       style="fill:#ffcc99" />
    <path
       d="M3270 6965 c-14 -7 -85 -35 -158 -61 -123 -45 -133 -50 -150 -83 -15 -31 -24 -37 -67 -46 -61 -12 -101 -33 -88 -46 9 -9 103 23 386 131 117 45 137 56 137 74 0 21 -17 46 -29 46 -4 -1 -17 -7 -31 -15z"
       id="path52"
       style="fill:#336633" />
    <path
       d="M4881 6875 c-7 -19 -52 -89 -101 -154 -154 -206 -208 -304 -252 -457 -19 -67 -23 -102 -22 -229 0 -167 5 -205 33 -252 15 -23 25 -30 40 -26 20 5 20 6 -5 26 -21 16 -24 25 -19 46 4 14 8 91 10 171 4 214 20 266 155 510 113 206 200 322 200 268 0 -5 29 -72 64 -147 95 -203 116 -282 116 -439 l1 -97 31 34 31 34 -6 116 c-6 135 -25 203 -87 317 -24 43 -58 111 -77 149 -53 111 -79 159 -89 162 -6 2 -16 -13 -23 -32z"
       id="path54"
       style="fill:#cc3300" />
    <path
       d="M3198 6843 l-138 -55 0 -44 c0 -25 -7 -60 -15 -80 -10 -25 -12 -42 -4 -62 5 -15 12 -34 15 -42 5 -13 7 -12 15 3 15 27 37 20 44 -14 9 -39 12 -35 31 37 16 64 91 241 105 250 16 9 140 -60 217 -122 l77 -62 7 28 c10 36 53 77 89 85 16 4 29 8 29 9 0 2 -5 17 -11 35 -9 24 -16 31 -28 26 -124 -51 -177 -41 -220 43 -18 34 -58 27 -213 -35z"
       id="path56"
       style="fill:#333300" />
    <path
       d="M2903 6874 c-7 -20 8 -68 22 -67 18 2 28 29 21 56 -7 30 -33 36 -43 11z"
       id="path58"
       style="fill:#ffcc99" />
    <path
       d="M4252 6780 c-35 -55 -70 -119 -77 -144 -12 -39 -11 -47 7 -76 l19 -33 28 81 c30 86 81 177 99 177 6 0 45 -48 85 -107 65 -94 92 -144 134 -248 10 -25 10 -25 31 16 33 65 15 109 -115 281 -76 102 -125 154 -142 152 -3 0 -35 -45 -69 -99z"
       id="path60"
       style="fill:#cc3300" />
    <path
       d="M2844 6845 c-9 -21 25 -70 38 -57 14 14 2 58 -17 66 -9 3 -18 -1 -21 -9z"
       id="path62"
       style="fill:#ffcc99" />
    <path
       d="M2780 6808 c0 -18 20 -38 38 -38 24 0 10 45 -15 48 -14 2 -23 -2 -23 -10z"
       id="path64"
       style="fill:#ffcc99" />
    <path
       d="M2700 6795 c-7 -9 -22 -12 -40 -9 -23 5 -31 1 -40 -17 -17 -33 -16 -32 -38 -18 -29 18 -55 -5 -50 -43 5 -33 4 -34 -29 -8 -29 22 -87 28 -81 8 3 -7 14 -14 26 -16 34 -5 75 -54 99 -118 28 -73 72 -128 125 -155 l39 -20 42 24 41 25 3 113 c4 128 -13 208 -49 234 -28 19 -32 19 -48 0z"
       id="path66"
       style="fill:#ffcc99" />
    <path
       d="M3247 6768 c-32 -30 -87 -166 -94 -233 -5 -51 9 -101 26 -90 5 2 12 25 15 50 8 47 48 174 68 213 6 12 21 22 32 22 20 0 102 -60 213 -156 48 -41 53 -43 62 -25 8 15 3 28 -26 65 -58 75 -203 176 -252 176 -11 0 -31 -10 -44 -22z"
       id="path68"
       style="fill:#cc3300" />
    <path
       d="M2990 6762 c-33 -16 -35 -20 -35 -69 0 -31 -6 -57 -14 -65 -11 -11 -12 -7 -7 22 3 19 2 47 -2 62 l-7 26 -50 -16 -50 -17 -3 -72 c-4 -91 16 -138 53 -129 21 5 26 2 31 -21 10 -47 13 -53 28 -53 8 0 38 21 66 48 l52 47 -16 39 c-18 43 -21 89 -7 115 14 25 18 93 6 97 -5 2 -26 -4 -45 -14z"
       id="path70"
       style="fill:#ffcc99" />
    <path
       d="M3987 6773 c-13 -13 -7 -53 8 -53 17 0 39 36 30 50 -7 11 -28 13 -38 3z"
       id="path72"
       style="fill:#3366ff" />
    <path
       d="M4037 6741 c-9 -46 -67 -67 -228 -81 -151 -14 -191 -6 -197 38 -4 29 -15 28 -32 -2 -20 -38 -5 -75 38 -93 77 -32 392 15 448 67 30 29 32 75 5 90 -27 14 -28 14 -34 -19z"
       id="path74"
       style="fill:#3366ff" />
    <path
       d="M4281 6678 c-22 -46 -46 -107 -52 -136 -12 -49 -11 -56 14 -110 26 -56 56 -133 103 -262 14 -41 29 -120 39 -210 8 -80 19 -159 23 -175 8 -28 10 -29 58 -26 27 1 50 4 51 4 1 1 -5 27 -13 57 -10 34 -16 111 -17 205 -2 139 0 157 27 248 34 116 32 136 -27 250 -43 83 -146 236 -159 237 -4 0 -25 -37 -47 -82z"
       id="path76"
       style="fill:#990000" />
    <path
       d="M4843 6683 c-78 -119 -201 -347 -223 -414 -29 -84 -46 -251 -34 -324 8 -52 12 -60 36 -66 46 -12 88 -49 119 -105 37 -65 41 -68 85 -60 33 7 34 9 34 51 0 46 -2 49 -65 99 -27 22 -28 26 -20 61 18 68 69 73 89 9 5 -16 16 -47 26 -69 10 -22 21 -65 25 -95 l8 -55 17 65 c21 80 57 160 103 233 35 55 36 58 38 169 2 156 -22 252 -111 435 -38 79 -70 143 -72 143 -2 0 -27 -35 -55 -77z"
       id="path78"
       style="fill:#990000" />
    <path
       d="M5300 6702 c-78 -50 -144 -115 -160 -158 -6 -15 -6 -34 1 -51 19 -49 39 -173 39 -240 l0 -66 43 41 c48 44 171 135 230 171 33 20 37 27 37 65 0 83 -74 286 -104 286 -6 0 -45 -22 -86 -48z"
       id="path80"
       style="fill:#660000" />
    <path
       d="M3634 6725 c-8 -21 3 -48 19 -43 19 7 22 58 2 58 -8 0 -18 -7 -21 -15z"
       id="path82"
       style="fill:#3366ff" />
    <path
       d="M3271 6688 c-38 -102 -64 -190 -68 -233 -5 -47 -3 -55 26 -87 39 -45 126 -105 169 -117 29 -9 34 -7 42 12 5 12 29 69 54 126 25 58 46 108 46 112 0 17 -64 80 -123 122 -34 25 -71 54 -81 66 -25 27 -54 27 -65 -1z"
       id="path84"
       style="fill:#990000" />
    <path
       d="M2265 6633 l-131 -46 4 -33 c2 -19 9 -34 14 -34 6 0 77 25 159 55 81 30 155 55 164 55 18 0 20 14 3 28 -33 26 -83 21 -213 -25z"
       id="path86"
       style="fill:#336633" />
    <path
       d="M4054 6639 c-51 -32 -207 -62 -332 -64 -121 -3 -146 -12 -120 -42 25 -29 29 -52 14 -87 -16 -39 -51 -66 -83 -66 -19 0 -28 -12 -49 -57 -30 -67 -66 -201 -58 -214 3 -5 14 -9 24 -9 39 0 131 -42 197 -91 37 -27 72 -48 77 -46 10 3 19 27 30 80 12 53 21 26 18 -53 l-4 -80 50 -52 c27 -29 63 -73 80 -97 18 -24 49 -56 69 -72 21 -15 47 -42 58 -58 11 -17 26 -31 32 -31 25 0 168 -137 194 -186 32 -59 62 -149 56 -167 -2 -6 -12 13 -22 43 -10 30 -26 71 -36 91 -21 42 -107 139 -152 171 -34 24 -31 16 24 -57 21 -27 49 -76 63 -109 29 -66 29 -66 18 -66 -5 0 -19 24 -33 53 -36 79 -194 305 -206 294 -2 -2 6 -30 17 -63 12 -32 28 -86 36 -119 16 -64 88 -213 136 -284 l30 -43 23 28 c20 25 26 27 50 19 41 -15 68 -56 68 -104 0 -22 -5 -47 -12 -54 -8 -11 3 -25 53 -65 82 -67 149 -96 267 -117 104 -18 179 -10 179 20 0 8 -4 15 -8 15 -5 0 -27 16 -51 36 l-42 36 -23 -21 c-25 -23 -56 -27 -89 -10 -49 26 -51 76 -5 113 l32 25 -32 45 c-65 90 -123 256 -157 445 -13 69 -33 175 -46 234 -22 100 -25 108 -44 102 -78 -25 -115 -5 -115 64 0 57 41 95 93 87 34 -6 38 -4 33 11 -3 10 -8 32 -12 48 -6 26 -92 256 -99 263 -1 1 -15 -2 -31 -8 -43 -17 -73 -4 -90 36 -17 41 -11 69 23 105 l24 26 -38 61 c-21 34 -40 61 -43 61 -3 0 -19 -9 -36 -20z m-117 -121 c49 -46 13 -128 -56 -128 -47 0 -61 14 -61 64 0 74 67 111 117 64z m-252 -223 c34 -33 32 -67 -6 -104 -74 -75 -154 2 -104 99 20 40 74 42 110 5z m418 -26 c29 -16 37 -28 37 -60 0 -61 -76 -107 -125 -75 -33 22 -40 57 -20 95 23 46 67 61 108 40z m-145 -242 c35 -42 16 -114 -39 -142 -39 -21 -68 -11 -84 29 -26 63 12 126 76 126 20 0 41 -6 47 -13z m252 -207 c24 -24 26 -70 5 -109 -16 -32 -33 -41 -76 -41 -55 0 -75 85 -34 147 20 30 76 32 105 3z m195 -211 c18 -18 10 -78 -15 -104 -62 -66 -148 17 -95 92 22 31 82 38 110 12z m79 -325 c25 -24 20 -81 -9 -109 -70 -71 -150 29 -82 103 24 26 69 29 91 6z"
       id="path88"
       style="fill:#333399" />
    <path
       d="M3855 6504 c-10 -11 -15 -29 -13 -53 3 -32 6 -36 34 -39 37 -4 64 19 64 53 0 48 -52 71 -85 39z"
       id="path90"
       style="fill:#993300" />
    <path
       d="M3590 6281 c-23 -45 -7 -101 31 -101 26 0 69 39 69 64 0 49 -78 77 -100 37z"
       id="path92"
       style="fill:#993300" />
    <path
       d="M4025 6235 c-29 -28 -32 -57 -9 -79 21 -22 46 -20 78 5 46 36 28 99 -29 99 -9 0 -27 -11 -40 -25z"
       id="path94"
       style="fill:#993300" />
    <path
       d="M3889 6016 c-34 -17 -54 -62 -40 -92 15 -34 63 -33 90 2 45 57 9 120 -50 90z"
       id="path96"
       style="fill:#993300" />
    <path
       d="M4116 5798 c-33 -46 -13 -108 34 -108 31 0 70 39 70 69 0 31 -30 61 -60 61 -18 0 -34 -8 -44 -22z"
       id="path98"
       style="fill:#993300" />
    <path
       d="M4321 5591 c-25 -25 -27 -63 -5 -81 23 -20 66 -1 78 33 19 54 -33 88 -73 48z"
       id="path100"
       style="fill:#993300" />
    <path
       d="M4413 5268 c-42 -53 -34 -102 14 -96 39 5 67 47 54 81 -11 29 -50 38 -68 15z"
       id="path102"
       style="fill:#993300" />
    <path
       d="M5690 6560 c-38 -39 -124 -106 -205 -160 -188 -125 -257 -182 -340 -284 -118 -145 -176 -255 -198 -381 -9 -53 -8 -64 7 -88 20 -29 36 -28 36 3 0 32 50 181 86 255 40 82 149 206 252 286 37 29 87 71 112 94 25 22 101 83 169 134 92 69 125 90 132 80 14 -23 24 -159 22 -299 -1 -155 -18 -246 -67 -367 -35 -87 -30 -104 16 -55 30 31 80 150 97 232 22 101 30 238 20 333 -8 82 -53 263 -68 277 -3 3 -35 -24 -71 -60z"
       id="path104"
       style="fill:#cc3300" />
    <path
       d="M2096 6571 c-11 -17 2 -63 17 -58 18 6 20 30 4 51 -10 14 -16 16 -21 7z"
       id="path106" />
    <path
       d="M2403 6543 c-49 -5 -46 1 -69 -153 -27 -191 -6 -309 63 -350 20 -11 38 -19 40 -16 2 2 -3 19 -12 36 -48 93 -68 189 -55 267 22 129 33 173 44 173 6 0 46 -12 90 -25 43 -14 81 -24 83 -21 2 2 -8 21 -22 42 -35 51 -53 57 -162 47z"
       id="path108"
       style="fill:#cc3300" />
    <path
       d="M3061 6508 c-13 -16 -46 -46 -73 -66 -26 -20 -48 -40 -48 -45 0 -12 76 -123 123 -180 22 -27 71 -74 109 -104 l69 -55 76 24 c79 24 85 30 98 101 7 34 7 34 -60 65 -80 38 -166 120 -218 210 -20 35 -37 67 -37 73 0 17 -15 8 -39 -23z"
       id="path110"
       style="fill:#6699ff" />
    <path
       d="M2810 6515 c0 -15 18 -40 24 -34 3 3 -1 14 -9 25 -8 10 -14 15 -15 9z"
       id="path112"
       style="fill:none" />
    <path
       d="M3573 6508 c-12 -15 -53 -94 -53 -103 0 -13 38 -3 58 15 29 28 39 68 20 86 -12 12 -17 13 -25 2z"
       id="path114"
       style="fill:#993300" />
    <path
       d="M4158 6499 c-21 -12 -30 -52 -18 -83 12 -32 55 -45 77 -23 13 13 13 19 -5 60 -23 51 -31 59 -54 46z"
       id="path116"
       style="fill:#993300" />
    <path
       d="M2411 6443 c-30 -111 -34 -180 -17 -249 31 -125 60 -169 194 -304 165 -165 242 -256 282 -332 18 -35 34 -64 36 -66 1 -2 44 22 94 52 51 31 117 63 146 73 35 11 54 22 54 32 0 38 -13 58 -45 70 -43 15 -164 144 -247 264 -122 174 -179 229 -255 248 -24 6 -43 17 -43 23 0 7 14 34 31 61 l31 49 -35 33 c-20 18 -49 35 -64 38 -15 4 -52 15 -81 26 -30 10 -58 19 -63 19 -4 0 -13 -17 -18 -37z"
       id="path118"
       style="fill:#cc6600" />
    <path
       d="M2806 6436 c-80 -50 -139 -104 -160 -145 -15 -28 -15 -29 12 -36 77 -18 153 -92 262 -255 90 -133 218 -270 252 -270 3 0 7 47 10 104 4 86 9 114 30 156 l25 51 -45 31 c-108 74 -282 293 -298 376 -4 17 -9 32 -13 31 -3 0 -37 -20 -75 -43z"
       id="path120"
       style="fill:#6699ff" />
    <path
       d="M5654 6430 c-32 -22 -86 -62 -119 -90 -33 -28 -112 -93 -175 -145 -222 -182 -305 -311 -354 -547 -21 -101 -13 -121 25 -68 45 63 90 80 206 80 75 0 108 -5 141 -20 l43 -19 38 27 c20 15 64 40 97 55 91 44 145 138 175 307 22 127 15 460 -10 460 -4 0 -34 -18 -67 -40z"
       id="path122"
       style="fill:#cc6600" />
    <path
       d="M2090 6402 c-26 -21 -47 -142 -36 -213 l7 -46 57 -6 c31 -4 90 -18 131 -32 41 -14 76 -24 77 -22 2 2 -1 20 -7 41 -6 21 -9 94 -7 161 l3 124 -29 5 c-16 3 -61 6 -101 6 -55 0 -78 -4 -95 -18z"
       id="path124"
       style="fill:#660000" />
    <path
       d="M2675 6390 c3 -5 8 -10 11 -10 2 0 4 5 4 10 0 6 -5 10 -11 10 -5 0 -7 -4 -4 -10z"
       id="path126"
       style="fill:none" />
    <path
       d="M5945 6204 c-11 -3 -37 -12 -57 -21 -35 -15 -37 -19 -43 -72 -12 -97 -34 -180 -69 -257 -19 -41 -32 -74 -28 -74 4 0 43 9 87 20 44 11 129 25 188 32 l108 11 31 45 c47 68 59 120 51 223 l-6 89 -32 0 c-18 0 -72 2 -121 5 -49 2 -98 2 -109 -1z"
       id="path128"
       style="fill:#660000" />
    <path
       d="M1900 6109 c-129 -20 -256 -58 -253 -76 1 -6 7 -42 13 -79 21 -134 66 -252 133 -349 66 -95 108 -127 180 -138 42 -6 48 4 15 26 -62 41 -113 105 -153 191 -42 89 -95 268 -95 318 0 26 2 26 88 35 137 13 279 9 352 -11 224 -59 450 -252 641 -548 28 -44 45 -48 60 -14 23 50 -79 193 -272 382 -122 117 -169 154 -264 202 -147 74 -264 90 -445 61z"
       id="path130"
       style="fill:#cc3300" />
    <path
       d="M3304 6061 c-53 -24 -80 -60 -93 -122 -29 -132 4 -349 103 -688 68 -235 85 -347 68 -461 -13 -91 -30 -130 -79 -182 l-35 -36 23 -52 c21 -46 26 -51 49 -45 39 10 125 70 155 110 45 58 54 99 55 240 0 72 7 168 15 215 23 131 30 320 15 440 -12 101 -24 146 -69 258 -30 76 -9 64 26 -15 38 -86 52 -143 62 -254 5 -50 11 -93 15 -96 29 -29 246 313 246 388 0 49 -223 250 -335 300 -54 25 -166 25 -221 0z"
       id="path132"
       style="fill:#cc9999" />
    <path
       d="M4269 6022 c-25 -21 -30 -71 -9 -96 16 -20 49 -20 78 0 42 29 19 114 -30 114 -9 0 -26 -8 -39 -18z"
       id="path134"
       style="fill:#993300" />
    <path
       d="M1843 6021 c-40 -4 -75 -10 -79 -13 -8 -8 23 -155 46 -224 36 -105 90 -193 154 -250 80 -73 98 -81 219 -104 220 -40 352 -83 463 -150 l62 -37 61 89 c34 50 60 96 57 103 -17 45 -167 236 -256 325 -121 123 -219 188 -348 233 -74 26 -103 31 -197 33 -60 1 -143 -1 -182 -5z"
       id="path136"
       style="fill:#cc6600" />
    <path
       d="M4802 5948 c-23 -23 -14 -58 21 -78 41 -24 57 -57 57 -115 0 -24 5 -47 12 -51 18 -12 3 97 -21 144 -12 23 -21 52 -21 65 0 21 -16 47 -30 47 -3 0 -11 -5 -18 -12z"
       id="path138"
       style="fill:#cc6666" />
    <path
       d="M4584 5853 c-25 -25 -13 -47 33 -58 49 -12 81 -38 100 -84 10 -24 17 -31 25 -23 18 18 -19 98 -63 136 -49 41 -74 49 -95 29z"
       id="path140"
       style="fill:#cc6666" />
    <path
       d="M5995 5814 c-208 -32 -483 -131 -541 -195 -16 -18 -16 -21 -1 -36 15 -15 22 -14 95 20 95 43 368 122 475 136 138 19 397 12 397 -11 0 -5 -22 -55 -49 -111 -43 -88 -63 -117 -151 -210 -57 -59 -101 -109 -99 -111 2 -2 16 -6 31 -10 54 -13 179 113 251 252 45 86 97 214 97 236 0 22 -408 54 -505 40z"
       id="path142"
       style="fill:#cc3300" />
    <path
       d="M4620 5770 c0 -5 9 -14 20 -20 22 -12 27 -1 8 18 -14 14 -28 16 -28 2z"
       id="path144"
       style="fill:none" />
    <path
       d="M1566 5759 c-48 -11 -176 -78 -183 -95 -3 -7 2 -37 11 -66 30 -103 105 -186 152 -168 32 12 174 37 258 45 l68 7 -29 31 c-39 43 -132 182 -144 217 -14 38 -55 47 -133 29z"
       id="path146"
       style="fill:#660000" />
    <path
       d="M3848 5668 c-50 -105 -122 -215 -183 -278 -50 -52 -53 -58 -59 -121 -6 -67 4 -119 24 -119 18 0 157 139 214 213 63 83 126 191 126 216 0 22 -56 135 -74 150 -11 9 -21 -3 -48 -61z"
       id="path148"
       style="fill:#3300ff" />
    <path
       d="M4427 5733 c-19 -19 14 -53 51 -53 33 0 72 25 72 46 0 10 -14 14 -58 14 -32 0 -62 -3 -65 -7z"
       id="path150"
       style="fill:#cc6633" />
    <path
       d="M4577 5733 c-24 -24 26 -83 71 -83 78 0 76 59 -2 79 -52 13 -60 13 -69 4z"
       id="path152"
       style="fill:#cc6633" />
    <path
       d="M6125 5734 c-105 -10 -203 -29 -345 -70 -153 -43 -287 -100 -283 -119 2 -5 12 -37 24 -69 11 -33 25 -100 31 -150 6 -50 11 -92 12 -93 1 -1 35 7 76 18 116 30 246 49 346 49 85 0 92 2 133 32 74 54 207 222 242 306 17 41 27 78 22 82 -9 9 -199 19 -258 14z"
       id="path154"
       style="fill:#cc6600" />
    <path
       d="M4798 5690 c-74 -22 -121 -89 -117 -163 2 -35 -2 -47 -24 -69 -32 -32 -34 -56 -6 -92 57 -72 168 -80 212 -13 12 19 14 33 7 56 -11 40 5 41 25 1 15 -28 14 -32 -4 -51 -12 -13 -21 -41 -25 -82 -3 -34 -8 -87 -12 -118 -6 -52 -4 -58 23 -89 24 -27 38 -33 80 -37 61 -6 64 -2 71 83 5 63 4 64 -21 64 -61 0 -71 51 -32 173 30 94 31 111 4 190 -25 76 -61 125 -105 143 -37 16 -38 16 -76 4z m-23 -79 c7 -12 -31 -25 -46 -15 -8 4 -7 9 2 15 18 11 36 11 44 0z m125 -1 c0 -5 -14 -10 -31 -10 -17 0 -28 4 -24 10 3 6 17 10 31 10 13 0 24 -4 24 -10z m-10 -55 c18 -22 8 -50 -19 -50 -32 0 -49 28 -32 49 17 20 35 20 51 1z m-112 -26 c4 -30 -22 -46 -44 -28 -15 12 -19 41 -7 53 16 16 48 1 51 -25z m-28 -109 c0 -11 -4 -20 -10 -20 -5 0 -10 9 -10 20 0 11 5 20 10 20 6 0 10 -9 10 -20z m70 -5 c0 -8 -4 -15 -10 -15 -5 0 -10 7 -10 15 0 8 5 15 10 15 6 0 10 -7 10 -15z"
       id="path156"
       style="fill:#ff9999" />
    <path
       d="M4850 5539 c0 -5 5 -7 10 -4 6 3 10 8 10 11 0 2 -4 4 -10 4 -5 0 -10 -5 -10 -11z"
       id="path158" />
    <path
       d="M4520 5670 c-8 -5 -25 -10 -37 -10 -33 0 -28 -14 18 -51 l41 -32 26 26 26 26 -24 26 c-26 28 -29 29 -50 15z"
       id="path160"
       style="fill:#ff9933" />
    <path
       d="M5148 5641 c-81 -27 -143 -103 -131 -162 4 -23 -5 -69 -33 -167 -6 -21 -4 -22 20 -16 70 17 106 -28 106 -134 0 -69 22 -106 78 -129 45 -19 51 -11 12 17 -17 12 -40 40 -51 63 -18 35 -21 54 -17 137 4 107 14 130 72 175 74 56 162 37 204 -45 38 -76 23 -151 -43 -217 -51 -52 -92 -57 -130 -18 -51 50 -22 175 40 175 13 0 31 -7 39 -16 20 -20 21 -70 1 -78 -18 -6 -19 -2 -4 25 13 26 -4 49 -37 49 -44 0 -62 -102 -24 -140 80 -80 203 107 145 219 -16 32 -69 61 -110 61 -43 0 -95 -38 -116 -84 -26 -57 -26 -188 0 -236 40 -75 144 -117 225 -90 44 14 109 86 124 138 19 63 15 200 -8 275 -23 74 -86 154 -144 181 -41 19 -178 30 -218 17z"
       id="path162"
       style="fill:#9999cc" />
    <path
       d="M4651 5631 c-21 -6 -22 -8 -7 -20 13 -11 19 -11 31 -1 16 13 20 31 8 29 -5 -1 -19 -4 -32 -8z"
       id="path164"
       style="fill:none" />
    <path
       d="M4454 5576 c4 -33 9 -62 12 -65 2 -3 17 7 32 22 l27 27 -39 38 -38 37 6 -59z"
       id="path166"
       style="fill:#cc6633" />
    <path
       d="M4582 5597 c-29 -30 -28 -38 8 -72 25 -24 34 -27 48 -19 27 17 27 62 1 90 -28 30 -30 30 -57 1z"
       id="path168"
       style="fill:#cc6633" />
    <path
       d="M3150 5601 c-20 -5 -26 -14 -28 -43 -3 -30 1 -38 18 -43 35 -11 70 19 70 60 0 37 -8 41 -60 26z"
       id="path170"
       style="fill:#cc6600" />
    <path
       d="M3023 5538 c-40 -23 -73 -47 -73 -54 0 -6 13 -17 29 -24 59 -24 126 25 119 88 l-3 32 -72 -42z"
       id="path172"
       style="fill:#cc6600" />
    <path
       d="M4500 5515 c-20 -20 -30 -38 -24 -43 5 -4 21 -18 37 -32 l27 -24 35 34 35 34 -32 33 c-18 18 -35 33 -38 33 -3 0 -21 -16 -40 -35z"
       id="path174"
       style="fill:#ff9933" />
    <path
       d="M3946 5479 c-38 -69 -135 -189 -229 -281 l-78 -77 17 -33 c23 -44 56 -88 66 -88 13 0 146 126 205 194 29 34 66 86 82 116 l30 55 -27 77 c-15 42 -30 79 -33 82 -3 4 -18 -17 -33 -45z"
       id="path176"
       style="fill:#3300ff" />
    <path
       d="M3185 5500 c-10 -11 -14 -20 -8 -20 5 0 18 9 28 20 10 11 14 20 8 20 -5 0 -18 -9 -28 -20z"
       id="path178"
       style="fill:none" />
    <path
       d="M3089 5469 c-25 -28 -26 -30 -10 -50 16 -20 16 -20 50 15 29 30 32 38 21 51 -18 22 -31 18 -61 -16z"
       id="path180"
       style="fill:#cc6633" />
    <path
       d="M4645 5490 c-3 -5 -1 -10 4 -10 6 0 11 5 11 10 0 6 -2 10 -4 10 -3 0 -8 -4 -11 -10z"
       id="path182"
       style="fill:none" />
    <path
       d="M6375 5445 c-38 -55 -138 -155 -156 -155 -5 0 -9 -4 -9 -8 0 -4 32 -19 72 -31 40 -13 115 -45 167 -72 53 -27 99 -49 103 -49 17 0 87 111 116 185 17 43 30 80 29 81 -1 1 -49 25 -106 53 -68 33 -117 51 -141 51 -33 0 -40 -5 -75 -55z"
       id="path184"
       style="fill:#660000" />
    <path
       d="M3208 5474 c-15 -15 -15 -19 0 -50 27 -58 48 -40 29 25 -11 39 -13 41 -29 25z"
       id="path186"
       style="fill:#cc6633" />
    <path
       d="M2855 5409 c-64 -67 -63 -79 7 -79 50 0 80 37 76 94 -2 22 -8 41 -14 43 -6 2 -37 -24 -69 -58z"
       id="path188"
       style="fill:#cc6600" />
    <path
       d="M1700 5449 c-136 -23 -279 -79 -375 -147 -27 -20 -51 -37 -53 -38 -2 -1 10 -23 26 -50 15 -27 55 -98 87 -159 94 -174 185 -255 290 -255 70 0 88 14 39 30 -144 47 -196 97 -282 271 l-69 139 22 14 c37 24 139 64 232 91 158 46 346 44 588 -6 124 -26 187 -46 345 -108 69 -27 128 -47 133 -44 4 2 7 14 7 27 0 17 -16 32 -75 65 -82 48 -168 77 -338 115 -282 64 -435 78 -577 55z"
       id="path190"
       style="fill:#cc3300" />
    <path
       d="M4585 5430 l-29 -30 42 -42 c44 -45 65 -47 37 -4 -10 14 -17 44 -17 66 0 22 0 40 -2 40 -1 0 -15 -14 -31 -30z"
       id="path192"
       style="fill:#cc6633" />
    <path
       d="M2960 5418 c0 -21 39 -98 50 -98 3 0 20 15 38 33 30 31 31 32 13 56 -13 16 -30 24 -59 26 -37 3 -42 1 -42 -17z"
       id="path194"
       style="fill:#cc6600" />
    <path
       d="M3133 5408 l-31 -33 20 -39 20 -39 36 36 36 36 -17 36 c-9 19 -20 35 -25 35 -4 0 -22 -15 -39 -32z"
       id="path196"
       style="fill:#ff9933" />
    <path
       d="M4487 5410 c5 -20 15 -25 26 -13 8 7 -11 33 -23 33 -5 0 -6 -9 -3 -20z"
       id="path198"
       style="fill:none" />
    <path
       d="M4518 5373 c-15 -16 -14 -22 4 -70 11 -29 25 -53 32 -53 7 0 24 13 39 28 l27 28 -43 42 c-41 40 -44 42 -59 25z"
       id="path200"
       style="fill:#ff9933" />
    <path
       d="M2933 5346 c-12 -13 -29 -28 -39 -34 -17 -9 -17 -13 -4 -37 21 -39 37 -41 71 -9 34 32 35 40 11 76 l-18 28 -21 -24z"
       id="path202"
       style="fill:#cc6600" />
    <path
       d="M3240 5363 c1 -10 39 -60 40 -51 0 14 -23 58 -32 58 -4 0 -8 -3 -8 -7z"
       id="path204"
       style="fill:none" />
    <path
       d="M1730 5354 c-87 -17 -193 -50 -261 -81 -44 -20 -79 -38 -79 -41 0 -2 9 -21 19 -41 11 -20 37 -75 59 -122 46 -101 97 -156 180 -195 89 -42 126 -42 230 0 192 77 380 104 577 82 72 -8 144 -18 161 -21 l31 -7 6 85 c4 46 10 98 13 115 6 32 5 33 -62 63 -105 48 -316 115 -439 139 -106 21 -372 36 -435 24z"
       id="path206"
       style="fill:#cc6600" />
    <path
       d="M3051 5326 c-32 -33 -32 -34 -17 -65 9 -17 20 -31 24 -31 5 0 21 13 37 30 26 27 27 31 15 60 -7 17 -16 32 -20 35 -4 2 -21 -11 -39 -29z"
       id="path208"
       style="fill:#cc6600" />
    <path
       d="M3192 5319 c-38 -37 -38 -38 -11 -91 l21 -40 34 33 c19 18 34 39 34 45 0 11 -38 84 -44 84 -1 0 -17 -14 -34 -31z"
       id="path210"
       style="fill:#ff9933" />
    <path
       d="M4010 5277 c-34 -60 -182 -220 -249 -270 l-34 -25 58 -61 c32 -34 62 -61 66 -61 17 0 126 100 167 152 24 31 58 86 77 123 l33 66 -35 62 c-19 34 -37 65 -41 69 -4 3 -23 -21 -42 -55z"
       id="path212"
       style="fill:#3300ff" />
    <path
       d="M2751 5276 c-28 -41 -61 -106 -61 -121 0 -3 14 -5 31 -5 67 0 110 85 75 149 l-13 24 -32 -47z"
       id="path214"
       style="fill:#cc6600" />
    <path
       d="M2825 5237 c0 -88 1 -89 50 -51 l30 24 -24 45 c-13 25 -32 50 -41 55 -14 7 -16 -1 -15 -73z"
       id="path216"
       style="fill:#cc6600" />
    <path
       d="M4660 5302 c0 -6 16 -23 35 -38 34 -26 36 -26 55 -9 27 25 25 31 -12 38 -18 4 -43 9 -55 13 -14 4 -23 2 -23 -4z"
       id="path218"
       style="fill:#cc6633" />
    <path
       d="M4785 5269 c-19 -17 -35 -37 -35 -43 0 -13 57 -72 64 -65 16 18 36 74 36 104 0 44 -17 46 -65 4z"
       id="path220"
       style="fill:#cc6633" />
    <path
       d="M4600 5260 l-35 -29 42 -42 c42 -43 42 -43 64 -24 42 39 44 54 8 91 -18 19 -35 34 -38 34 -4 0 -22 -14 -41 -30z"
       id="path222"
       style="fill:#ff9933" />
    <path
       d="M5915 5283 c-66 -6 -256 -43 -308 -60 -42 -13 -52 -21 -67 -56 -11 -23 -17 -43 -16 -45 2 -1 32 11 67 28 107 50 190 63 363 57 180 -6 269 -28 442 -111 96 -46 284 -160 284 -172 0 -3 -33 -25 -72 -51 -40 -25 -104 -67 -143 -93 -125 -85 -228 -129 -361 -154 l-69 -13 35 -22 c30 -19 45 -22 99 -18 54 4 84 15 199 73 75 38 161 87 191 110 71 51 196 162 196 173 0 11 -126 114 -210 171 -150 102 -317 165 -475 180 -52 5 -99 9 -105 8 -5 -1 -28 -3 -50 -5z"
       id="path224"
       style="fill:#cc3300" />
    <path
       d="M2966 5248 c-39 -39 -39 -44 -4 -91 12 -17 15 -16 46 16 l34 35 -20 38 -20 38 -36 -36z"
       id="path226"
       style="fill:#cc6600" />
    <path
       d="M4985 5260 c-23 -26 -13 -55 13 -39 11 7 27 9 36 6 14 -6 16 -22 15 -107 -1 -69 3 -105 12 -116 42 -50 183 -81 298 -66 79 12 136 44 195 114 66 77 40 79 -72 4 -68 -45 -90 -54 -142 -60 -91 -11 -162 7 -209 52 -37 36 -38 40 -44 122 -4 64 -9 87 -23 97 -26 19 -58 16 -79 -7z"
       id="path228"
       style="fill:#cc6666" />
    <path
       d="M3101 5236 l-34 -35 28 -47 27 -46 35 34 34 34 -26 47 c-15 26 -28 47 -29 47 -1 0 -17 -15 -35 -34z"
       id="path230"
       style="fill:#ff9933" />
    <path
       d="M3241 5203 c-29 -36 -30 -37 -13 -65 20 -34 29 -35 64 -5 26 21 27 24 17 65 -6 23 -17 42 -24 42 -8 0 -27 -17 -44 -37z"
       id="path232"
       style="fill:#ff9933" />
    <path
       d="M5005 5200 c4 -6 11 -8 16 -5 14 9 11 15 -7 15 -8 0 -12 -5 -9 -10z"
       id="path234"
       style="fill:none" />
    <path
       d="M4570 5194 c0 -17 59 -80 60 -63 0 8 -13 28 -30 44 -16 16 -30 24 -30 19z"
       id="path236"
       style="fill:none" />
    <path
       d="M4697 5172 c-33 -35 -33 -42 -2 -72 l26 -24 36 37 37 36 -24 26 c-30 32 -40 31 -73 -3z"
       id="path238"
       style="fill:#ff9933" />
    <path
       d="M5825 5194 c-75 -10 -152 -27 -185 -40 -32 -13 -36 -18 -32 -44 3 -24 -5 -38 -49 -86 -61 -63 -127 -101 -195 -111 -72 -9 -115 -48 -151 -134 -17 -41 -30 -75 -29 -76 1 -1 47 7 101 19 78 16 134 21 255 21 177 0 260 -17 389 -79 l75 -35 75 12 c78 11 185 46 256 82 36 18 289 180 308 197 8 7 -92 76 -193 133 -93 51 -211 96 -310 117 -85 19 -259 32 -315 24z"
       id="path240"
       style="fill:#ff6600" />
    <path
       d="M2875 5160 c-26 -27 -27 -31 -15 -60 18 -43 28 -46 61 -14 32 31 34 41 17 79 -15 33 -28 32 -63 -5z"
       id="path242"
       style="fill:#ff9933" />
    <path
       d="M4222 5178 c-21 -21 -13 -49 22 -84 39 -39 52 -42 61 -15 9 30 -5 69 -32 91 -30 23 -35 24 -51 8z"
       id="path244"
       style="fill:#993300" />
    <path
       d="M3015 5150 c-25 -26 -27 -32 -16 -57 7 -15 18 -37 26 -47 15 -19 16 -19 45 9 16 16 30 36 30 44 0 20 -37 81 -48 81 -5 0 -21 -13 -37 -30z"
       id="path246"
       style="fill:#ff9933" />
    <path
       d="M4095 5097 c-26 -47 -72 -105 -132 -166 -51 -52 -92 -95 -90 -96 92 -48 138 -66 156 -60 39 12 139 125 180 204 l40 77 -50 57 c-28 31 -54 57 -57 57 -4 0 -25 -33 -47 -73z"
       id="path248"
       style="fill:#3300ff" />
    <path
       d="M2757 5140 c-36 -16 -36 -17 -19 -33 26 -23 35 -21 60 12 27 37 12 44 -41 21z"
       id="path250"
       style="fill:#cc6633" />
    <path
       d="M3163 5118 c-44 -46 -32 -66 25 -42 47 18 49 23 24 53 l-17 22 -32 -33z"
       id="path252"
       style="fill:#cc6600" />
    <path
       d="M3597 5118 c-22 -88 -19 -124 12 -199 18 -41 36 -84 41 -96 6 -14 19 -23 32 -24 32 -2 82 2 87 6 12 13 -58 173 -95 218 -13 15 -32 48 -43 72 -11 25 -22 45 -24 45 -3 0 -7 -10 -10 -22z"
       id="path254"
       style="fill:#3300ff" />
    <path
       d="M3285 5103 c-22 -12 -44 -24 -48 -26 -5 -1 3 -23 17 -47 14 -25 42 -88 62 -140 20 -52 41 -99 45 -104 25 -27 0 250 -28 320 -8 20 -8 20 -48 -3z"
       id="path256"
       style="fill:#3300ff" />
    <path
       d="M4772 5097 c-36 -37 -35 -56 3 -81 21 -14 24 -13 51 15 27 29 28 29 11 64 -9 19 -20 35 -25 35 -4 0 -23 -15 -40 -33z"
       id="path258"
       style="fill:#cc6600" />
    <path
       d="M2797 5092 c-33 -34 -33 -39 -2 -77 l25 -30 26 26 26 26 -21 42 c-12 22 -23 41 -24 41 -2 0 -15 -13 -30 -28z"
       id="path260"
       style="fill:#ff9933" />
    <path
       d="M2677 5078 c-8 -42 -12 -152 -6 -157 2 -2 14 -1 27 3 52 17 71 125 29 164 -32 30 -44 28 -50 -10z"
       id="path262"
       style="fill:#cc6600" />
    <path
       d="M4640 5097 c0 -20 30 -57 46 -57 21 0 17 24 -9 48 -27 25 -37 28 -37 9z"
       id="path264"
       style="fill:#cc6633" />
    <path
       d="M2949 5088 c-8 -7 -23 -23 -32 -35 -18 -21 -18 -22 7 -62 30 -47 44 -50 74 -18 27 29 27 40 0 88 -24 43 -27 45 -49 27z"
       id="path266"
       style="fill:#ff9933" />
    <path
       d="M3080 5035 c-19 -19 -31 -35 -27 -35 16 0 77 46 77 58 0 20 -14 14 -50 -23z"
       id="path268"
       style="fill:#cc6633" />
    <path
       d="M3157 5041 c-52 -27 -104 -68 -124 -97 -62 -95 -106 -479 -102 -889 3 -278 2 -282 -89 -372 -49 -48 -53 -55 -45 -80 30 -89 249 23 282 143 6 22 11 58 11 80 0 25 16 81 40 141 40 101 68 199 58 208 -3 3 -17 1 -32 -5 -38 -14 -92 -12 -124 4 -31 16 -49 46 -55 94 -3 27 -1 32 12 26 9 -4 30 -9 47 -11 27 -4 35 0 56 29 14 18 31 49 39 68 15 37 19 164 7 218 -9 40 8 42 76 8 44 -22 47 -23 56 -5 14 25 12 77 -5 124 -14 40 -11 61 5 35 5 -8 11 -19 13 -23 4 -12 57 3 57 17 0 6 -14 52 -30 102 -30 89 -85 194 -105 201 -6 2 -27 -5 -48 -16z"
       id="path270"
       style="fill:#cc9999" />
    <path
       d="M4597 5032 c-22 -24 -21 -45 1 -65 30 -27 82 -19 82 13 0 22 -37 70 -54 70 -7 0 -20 -8 -29 -18z"
       id="path272"
       style="fill:#993300" />
    <path
       d="M4222 4969 c-20 -42 -58 -96 -94 -135 -54 -57 -58 -64 -37 -64 48 1 158 29 205 53 45 23 124 92 113 100 -2 1 -36 28 -75 60 -39 31 -73 57 -75 56 -2 0 -19 -32 -37 -70z"
       id="path274"
       style="fill:#3300ff" />
    <path
       d="M4700 5030 c-12 -7 -9 -14 18 -39 19 -18 38 -28 47 -25 21 9 19 16 -13 47 -31 30 -31 30 -52 17z"
       id="path276"
       style="fill:#cc6633" />
    <path
       d="M4831 5014 c-23 -23 -23 -24 -6 -51 l18 -27 35 39 c33 36 34 39 17 52 -25 17 -35 15 -64 -13z"
       id="path278"
       style="fill:#cc6600" />
    <path
       d="M2857 4990 l-26 -30 26 -45 c13 -25 28 -45 32 -45 4 0 18 11 31 25 l24 26 -24 45 c-14 25 -28 48 -32 50 -3 2 -18 -9 -31 -26z"
       id="path280"
       style="fill:#ff9933" />
    <path
       d="M5001 5012 l-23 -4 28 -29 c32 -33 44 -36 44 -11 0 28 -23 48 -49 44z"
       id="path282"
       style="fill:#cc6633" />
    <path
       d="M2770 4995 c0 -9 -7 -30 -16 -46 -21 -41 -10 -49 23 -17 20 20 24 32 19 52 -7 28 -26 36 -26 11z"
       id="path284"
       style="fill:#cc6633" />
    <path
       d="M4901 4975 c-17 -20 -31 -42 -31 -49 0 -13 88 -92 94 -85 67 90 67 91 25 127 -52 44 -55 44 -88 7z"
       id="path286"
       style="fill:#ff9933" />
    <path
       d="M2996 4949 c-18 -20 -25 -34 -18 -41 6 -6 17 4 31 28 28 47 22 53 -13 13z"
       id="path288"
       style="fill:none" />
    <path
       d="M4781 4956 c-10 -12 -7 -18 18 -31 25 -13 31 -13 31 -2 0 8 -8 21 -19 31 -16 14 -20 15 -30 2z"
       id="path290"
       style="fill:#cc6633" />
    <path
       d="M5060 4942 c0 -10 10 -28 23 -40 23 -22 24 -22 40 -4 24 27 21 36 -16 50 -44 16 -47 15 -47 -6z"
       id="path292"
       style="fill:#cc6633" />
    <path
       d="M2181 4939 c-138 -16 -317 -78 -481 -166 -163 -88 -235 -151 -329 -287 -78 -113 -113 -195 -119 -277 l-5 -70 37 22 c80 47 189 36 386 -39 96 -36 189 -46 248 -28 17 6 52 51 52 68 0 2 -24 1 -52 -2 -84 -8 -174 6 -246 41 -98 46 -198 64 -274 49 -33 -6 -62 -10 -64 -8 -2 2 16 44 41 94 74 150 185 268 345 364 112 67 212 104 382 140 223 48 416 50 531 5 14 -6 17 -2 17 24 0 41 -18 49 -157 67 -128 15 -198 16 -312 3z"
       id="path294"
       style="fill:#cc3300" />
    <path
       d="M2781 4914 l-21 -26 28 -49 c15 -27 31 -48 36 -46 6 2 19 15 30 30 l20 28 -24 44 c-28 52 -41 55 -69 19z"
       id="path296"
       style="fill:#ff9933" />
    <path
       d="M3565 4911 c-3 -17 -3 -50 0 -76 7 -41 10 -45 36 -45 35 0 36 10 8 84 -25 67 -35 76 -44 37z"
       id="path298"
       style="fill:#3300ff" />
    <path
       d="M5011 4876 c-17 -24 -31 -49 -31 -54 0 -4 11 -19 24 -31 l23 -22 32 42 c37 52 38 59 7 88 l-24 23 -31 -46z"
       id="path300"
       style="fill:#cc6600" />
    <path
       d="M5166 4904 c-15 -40 0 -84 30 -84 13 0 34 51 34 81 0 24 -55 27 -64 3z"
       id="path302"
       style="fill:#cc6600" />
    <path
       d="M2706 4901 c-3 -5 1 -11 9 -15 9 -3 15 0 15 9 0 16 -16 20 -24 6z"
       id="path304"
       style="fill:none" />
    <path
       d="M4834 4883 c-4 -16 -11 -34 -17 -41 -7 -9 0 -23 28 -52 l39 -40 28 27 c15 15 28 31 28 37 0 12 -80 96 -92 96 -4 0 -11 -12 -14 -27z"
       id="path306"
       style="fill:#ff9933" />
    <path
       d="M5255 4900 c-8 -13 5 -13 25 0 13 8 13 10 -2 10 -9 0 -20 -4 -23 -10z"
       id="path308"
       style="fill:none" />
    <path
       d="M2926 4871 l-28 -30 22 -35 c12 -20 26 -36 30 -36 14 0 32 79 26 106 -8 31 -16 30 -50 -5z"
       id="path310"
       style="fill:#cc6600" />
    <path
       d="M3765 4878 c13 -43 35 -68 60 -68 34 0 32 10 -13 53 -43 43 -56 46 -47 15z"
       id="path312"
       style="fill:#3300ff" />
    <path
       d="M4430 4893 c0 -5 14 -23 31 -42 l31 -33 21 20 21 21 -48 21 c-53 22 -56 23 -56 13z"
       id="path314"
       style="fill:#cc6633" />
    <path
       d="M2673 4836 c8 -59 36 -126 53 -126 18 0 44 40 44 68 0 38 -27 79 -61 91 -18 6 -34 11 -37 11 -3 0 -2 -20 1 -44z"
       id="path316"
       style="fill:#cc6600" />
    <path
       d="M4376 4846 c-14 -19 -26 -38 -26 -43 1 -12 58 -73 69 -73 5 0 21 16 35 35 l27 35 -31 40 c-18 22 -35 40 -40 40 -4 0 -19 -15 -34 -34z"
       id="path318"
       style="fill:#ff9933" />
    <path
       d="M2270 4853 c-138 -23 -339 -70 -395 -94 -99 -41 -210 -108 -280 -170 -74 -65 -180 -197 -211 -264 l-24 -50 103 -7 c114 -7 131 -11 237 -59 65 -28 86 -33 155 -33 44 0 93 4 109 8 16 4 65 42 110 85 112 108 188 161 319 225 134 65 223 96 293 103 l52 6 -28 61 c-15 33 -34 80 -41 104 -7 23 -18 47 -24 52 -35 29 -272 50 -375 33z"
       id="path320"
       style="fill:#ff6600" />
    <path
       d="M4548 4849 c-37 -21 -41 -47 -12 -84 14 -19 31 -35 38 -34 6 0 24 16 41 36 l29 35 -32 29 c-36 32 -39 33 -64 18z"
       id="path322"
       style="fill:#ff9933" />
    <path
       d="M4640 4830 c0 -5 7 -10 15 -10 8 0 15 5 15 10 0 6 -7 10 -15 10 -8 0 -15 -4 -15 -10z"
       id="path324"
       style="fill:none" />
    <path
       d="M4703 4825 c-18 -8 -33 -18 -33 -23 0 -10 43 -52 53 -52 7 0 57 71 57 82 0 12 -42 9 -77 -7z"
       id="path326"
       style="fill:#cc6600" />
    <path
       d="M5071 4798 c-17 -23 -27 -46 -23 -50 11 -11 94 70 86 83 -11 19 -33 7 -63 -33z"
       id="path328"
       style="fill:#cc6633" />
    <path
       d="M2862 4807 c-27 -29 -27 -43 -1 -86 l20 -34 29 28 30 28 -22 36 c-31 53 -32 53 -56 28z"
       id="path330"
       style="fill:#ff9933" />
    <path
       d="M4764 4771 l-27 -42 35 -36 36 -36 31 34 c17 19 31 36 31 39 0 3 -18 23 -39 44 l-39 38 -28 -41z"
       id="path332"
       style="fill:#ff9933" />
    <path
       d="M2780 4775 c0 -14 5 -25 10 -25 6 0 10 11 10 25 0 14 -4 25 -10 25 -5 0 -10 -11 -10 -25z"
       id="path334"
       style="fill:none" />
    <path
       d="M3842 4784 c-29 -20 -27 -32 8 -73 l30 -35 25 24 c30 28 31 34 4 71 -23 33 -35 35 -67 13z"
       id="path336"
       style="fill:#cc6600" />
    <path
       d="M4263 4788 c-35 -11 -41 -26 -21 -46 9 -9 18 -6 40 15 44 42 39 49 -19 31z"
       id="path338"
       style="fill:#cc6633" />
    <path
       d="M4931 4771 c-12 -16 -21 -33 -21 -38 0 -10 42 -53 52 -53 4 0 16 16 28 35 21 33 21 37 6 60 -22 33 -40 32 -65 -4z"
       id="path340"
       style="fill:#cc6600" />
    <path
       d="M5110 4771 c-42 -41 -49 -79 -20 -103 12 -10 26 -18 31 -18 11 0 69 114 69 135 0 26 -49 18 -80 -14z"
       id="path342"
       style="fill:#cc6600" />
    <path
       d="M3930 4770 c11 -21 25 -26 34 -11 3 4 -6 13 -20 19 -23 11 -24 10 -14 -8z"
       id="path344"
       style="fill:none" />
    <path
       d="M3598 4772 c-15 -6 -15 -10 -2 -42 l15 -35 25 29 c19 22 22 31 13 42 -12 15 -24 16 -51 6z"
       id="path346"
       style="fill:#cc6633" />
    <path
       d="M3694 4766 c-7 -18 13 -56 29 -56 17 0 69 54 60 63 -13 13 -83 7 -89 -7z"
       id="path348"
       style="fill:#cc6633" />
    <path
       d="M4296 4751 l-28 -30 20 -29 c42 -59 51 -59 90 -8 l23 29 -33 34 c-17 18 -35 33 -38 33 -3 0 -19 -13 -34 -29z"
       id="path350"
       style="fill:#ff9933" />
    <path
       d="M4462 4747 c-18 -18 -32 -37 -32 -43 0 -6 15 -25 34 -43 l33 -32 32 36 c17 20 31 39 31 43 0 5 -15 22 -33 40 l-33 32 -32 -33z"
       id="path352"
       style="fill:#ff9933" />
    <path
       d="M4621 4744 l-31 -35 20 -30 c12 -16 25 -29 30 -29 5 0 22 17 39 39 l31 39 -21 26 c-11 14 -24 26 -29 26 -4 0 -22 -16 -39 -36z"
       id="path354"
       style="fill:#cc6600" />
    <path
       d="M4128 4749 c-25 -14 -22 -28 12 -69 l29 -35 37 37 c37 36 38 38 19 58 -20 22 -68 26 -97 9z"
       id="path356"
       style="fill:#cc6600" />
    <path
       d="M2801 4737 c-8 -10 -4 -20 19 -42 37 -36 50 -25 25 20 -20 38 -27 42 -44 22z"
       id="path358"
       style="fill:#cc6633" />
    <path
       d="M3975 4740 c-6 -9 33 -70 45 -70 16 0 52 50 47 64 -7 18 -82 23 -92 6z"
       id="path360"
       style="fill:#cc6600" />
    <path
       d="M3766 4711 l-27 -28 27 -34 c16 -19 29 -36 30 -37 4 -7 64 42 64 51 0 13 -49 77 -59 77 -4 0 -20 -13 -35 -29z"
       id="path362"
       style="fill:#ff9933" />
    <path
       d="M5006 4707 c-26 -34 -30 -67 -7 -67 23 0 61 20 61 32 -1 7 -7 26 -13 42 l-13 30 -28 -37z"
       id="path364"
       style="fill:#cc6633" />
    <path
       d="M3640 4705 c-22 -24 -22 -25 -5 -51 l17 -27 30 30 c26 26 28 33 19 52 -15 28 -32 27 -61 -4z"
       id="path366"
       style="fill:#cc6600" />
    <path
       d="M5420 4723 c-76 -7 -216 -36 -240 -48 -14 -7 -33 -28 -44 -45 -18 -32 -18 -32 1 -26 171 54 447 58 668 9 82 -18 185 -67 272 -129 103 -74 288 -249 317 -300 14 -25 26 -47 26 -48 0 0 -21 -2 -48 -3 -80 -4 -142 -23 -257 -78 -131 -63 -193 -78 -303 -73 -45 1 -82 2 -82 0 0 -1 7 -14 16 -27 47 -72 276 -46 444 51 132 76 237 102 292 73 20 -11 21 -10 14 32 -15 92 -124 249 -233 331 -129 98 -323 210 -418 241 -121 39 -284 54 -425 40z"
       id="path368"
       style="fill:#cc3300" />
    <path
       d="M2918 4693 l-27 -29 21 -34 22 -35 8 45 c5 25 7 53 6 63 -3 16 -7 15 -30 -10z"
       id="path370"
       style="fill:#ff9933" />
    <path
       d="M3304 4706 c-3 -8 -4 -27 -2 -43 l3 -28 23 35 c12 19 22 38 22 43 0 13 -41 7 -46 -7z"
       id="path372"
       style="fill:none" />
    <path
       d="M3561 4679 c-23 -78 -57 -124 -128 -173 -75 -51 -143 -71 -143 -42 0 50 -71 136 -112 136 -18 0 -20 -5 -14 -44 8 -52 -9 -166 -31 -210 -29 -58 -63 -86 -105 -86 -43 0 -46 -7 -18 -43 33 -41 82 -53 138 -32 75 28 175 100 277 198 73 71 101 107 124 157 39 85 53 144 37 166 -11 14 -14 10 -25 -27z"
       id="path374"
       style="fill:#990033" />
    <path
       d="M3927 4698 c-33 -24 -34 -44 -4 -81 l22 -28 32 33 31 33 -26 32 -27 31 -28 -20z"
       id="path376"
       style="fill:#cc6600" />
    <path
       d="M4858 4685 c-16 -18 -28 -37 -28 -42 0 -11 58 -68 63 -62 2 2 16 21 32 42 l28 38 -28 29 c-16 17 -31 30 -34 29 -3 0 -18 -15 -33 -34z"
       id="path378"
       style="fill:#cc6600" />
    <path
       d="M4061 4684 c-27 -34 -26 -42 9 -84 l28 -35 26 24 c14 14 26 29 26 35 0 16 -49 86 -60 86 -5 0 -18 -12 -29 -26z"
       id="path380"
       style="fill:#ff9933" />
    <path
       d="M4687 4670 l-28 -40 31 -40 c17 -22 35 -40 40 -40 4 0 21 21 38 47 l30 46 -31 34 c-17 18 -36 33 -42 33 -5 0 -23 -18 -38 -40z"
       id="path382"
       style="fill:#ff9933" />
    <path
       d="M2740 4690 c-12 -7 -10 -18 15 -70 38 -80 49 -88 71 -55 31 48 -1 135 -50 135 -12 0 -28 -4 -36 -10z"
       id="path384"
       style="fill:#cc6600" />
    <path
       d="M4222 4669 c-17 -18 -32 -38 -32 -44 0 -6 14 -28 32 -49 l32 -39 33 38 c18 21 33 41 33 45 0 4 -15 24 -33 44 l-32 38 -33 -33z"
       id="path386"
       style="fill:#ff9933" />
    <path
       d="M4380 4655 c-32 -33 -32 -35 -17 -57 49 -70 54 -71 91 -23 l27 35 -32 40 c-18 22 -33 40 -34 40 0 0 -16 -16 -35 -35z"
       id="path388"
       style="fill:#ff9933" />
    <path
       d="M4541 4650 l-32 -41 30 -34 31 -35 30 41 c16 23 30 45 30 49 0 3 -13 18 -28 33 l-28 27 -33 -40z"
       id="path390"
       style="fill:#cc6600" />
    <path
       d="M3690 4641 l-34 -28 27 -37 c16 -20 31 -36 36 -36 4 0 20 13 36 30 l28 29 -27 36 c-15 19 -28 35 -29 35 -2 0 -18 -13 -37 -29z"
       id="path392"
       style="fill:#ff9933" />
    <path
       d="M6347 4614 c-48 -24 -110 -50 -138 -57 l-50 -13 73 -57 c40 -30 100 -83 133 -116 65 -67 82 -72 153 -47 44 16 152 84 152 96 0 14 -130 173 -169 207 -20 18 -43 32 -51 32 -8 0 -55 -20 -103 -45z"
       id="path394"
       style="fill:#660000" />
    <path
       d="M2867 4640 c-3 -8 -8 -32 -12 -52 -5 -35 -4 -38 18 -38 24 0 47 17 47 35 0 5 -11 24 -24 40 -19 23 -26 26 -29 15z"
       id="path396"
       style="fill:#cc6633" />
    <path
       d="M3597 4618 c-6 -42 -2 -46 23 -23 15 13 17 22 9 36 -15 28 -26 23 -32 -13z"
       id="path398"
       style="fill:#cc6633" />
    <path
       d="M3847 4622 c-33 -34 -33 -39 -2 -77 l24 -29 30 28 c30 29 30 29 13 58 -28 48 -36 50 -65 20z"
       id="path400"
       style="fill:#ff9933" />
    <path
       d="M4932 4604 c-24 -29 -29 -41 -20 -51 14 -17 28 -17 28 1 0 7 10 25 21 40 14 18 18 31 12 37 -7 7 -21 -2 -41 -27z"
       id="path402"
       style="fill:#cc6633" />
    <path
       d="M5019 4625 c-51 -28 -78 -107 -46 -134 10 -8 22 -2 49 27 51 54 89 108 81 115 -11 12 -57 7 -84 -8z"
       id="path404"
       style="fill:#cc6600" />
    <path
       d="M3986 4609 c-14 -11 -26 -25 -26 -30 0 -16 64 -98 74 -96 5 2 20 17 33 33 l23 30 -31 42 c-17 23 -34 42 -39 42 -4 0 -19 -9 -34 -21z"
       id="path406"
       style="fill:#ff9933" />
    <path
       d="M5285 4619 c-117 -17 -183 -47 -238 -106 -28 -29 -57 -62 -64 -73 -12 -18 -11 -20 14 -25 116 -25 180 -46 259 -86 123 -62 305 -184 385 -258 62 -56 72 -62 135 -72 96 -17 195 4 328 70 101 50 196 81 248 81 58 0 19 62 -109 172 -252 218 -349 269 -573 298 -90 11 -302 11 -385 -1z"
       id="path408"
       style="fill:#ff6600" />
    <path
       d="M4776 4574 l-29 -45 23 -25 c13 -13 29 -24 36 -24 12 0 64 62 64 77 0 9 -52 63 -61 63 -2 0 -17 -21 -33 -46z"
       id="path410"
       style="fill:#ff9933" />
    <path
       d="M4138 4577 l-26 -34 30 -46 c17 -26 34 -47 39 -47 4 0 20 16 35 35 l26 35 -33 45 c-19 24 -36 45 -39 45 -3 0 -17 -15 -32 -33z"
       id="path412"
       style="fill:#ff9933" />
    <path
       d="M4612 4567 l-31 -44 38 -37 38 -37 33 41 33 42 -40 39 -39 40 -32 -44z"
       id="path414"
       style="fill:#ff9933" />
    <path
       d="M3616 4571 l-28 -29 24 -41 23 -40 32 31 32 31 -26 38 c-14 22 -26 39 -27 39 -1 0 -15 -13 -30 -29z"
       id="path416"
       style="fill:#cc6600" />
    <path
       d="M4302 4564 c-18 -21 -32 -41 -32 -44 0 -3 15 -23 34 -44 l33 -40 31 35 c17 19 32 39 32 45 0 6 -15 28 -33 49 l-33 38 -32 -39z"
       id="path418"
       style="fill:#ff9933" />
    <path
       d="M4463 4559 l-32 -42 20 -28 c31 -44 40 -45 71 -9 34 42 34 47 0 88 l-27 33 -32 -42z"
       id="path420"
       style="fill:#cc6600" />
    <path
       d="M2585 4556 c-97 -32 -250 -105 -323 -155 -256 -173 -382 -365 -452 -687 -36 -167 -26 -354 18 -340 9 3 55 8 102 10 244 13 386 69 415 165 7 23 4 22 -44 -13 -65 -48 -138 -76 -199 -76 -40 -1 -155 -18 -202 -31 -40 -11 -8 327 46 469 42 113 141 252 245 347 119 107 341 232 483 270 49 14 91 27 94 29 3 3 -1 12 -8 21 -18 22 -92 18 -175 -9z"
       id="path422"
       style="fill:#cc3300" />
    <path
       d="M3761 4550 l-34 -29 27 -41 c14 -22 29 -40 33 -40 12 0 63 53 63 65 0 6 -12 25 -27 43 l-28 31 -34 -29z"
       id="path424"
       style="fill:#ff9933" />
    <path
       d="M3901 4526 l-22 -24 36 -51 c20 -28 40 -51 43 -51 4 0 19 15 34 34 l27 34 -35 41 c-41 47 -52 50 -83 17z"
       id="path426"
       style="fill:#ff9933" />
    <path
       d="M2831 4531 c-12 -7 -10 -15 7 -42 11 -19 34 -47 50 -62 l29 -28 7 32 c10 51 7 68 -14 89 -21 21 -55 26 -79 11z"
       id="path428"
       style="fill:#cc6600" />
    <path
       d="M4873 4528 c-26 -33 -24 -37 14 -31 47 7 49 9 33 28 -15 18 -34 19 -47 3z"
       id="path430"
       style="fill:none" />
    <path
       d="M3541 4492 c-23 -36 -23 -37 -6 -69 l18 -32 33 26 c19 14 34 28 34 30 0 10 -44 83 -49 83 -3 -1 -17 -17 -30 -38z"
       id="path432"
       style="fill:#ff9933" />
    <path
       d="M2660 4491 c-158 -52 -383 -183 -480 -280 -68 -68 -168 -205 -201 -276 -32 -69 -75 -270 -85 -398 -8 -96 -8 -95 56 -77 19 5 81 14 138 19 110 10 142 23 230 93 36 29 47 47 71 114 38 110 71 169 197 346 72 100 142 185 207 248 53 53 97 99 97 103 0 4 -23 37 -52 72 -34 43 -59 65 -72 65 -12 -1 -59 -13 -106 -29z"
       id="path434"
       style="fill:#ff6600" />
    <path
       d="M4072 4497 c-12 -13 -22 -29 -22 -35 0 -16 50 -92 61 -92 8 0 49 54 49 65 0 10 -54 85 -61 85 -3 0 -15 -10 -27 -23z"
       id="path436"
       style="fill:#ff9933" />
    <path
       d="M4541 4474 c-17 -19 -31 -39 -31 -45 0 -12 52 -88 61 -89 3 0 20 20 38 45 l33 46 -36 39 -35 39 -30 -35z"
       id="path438"
       style="fill:#ff9933" />
    <path
       d="M4701 4473 c-17 -21 -31 -41 -31 -44 0 -6 83 -39 97 -39 1 0 10 14 18 31 15 29 15 32 -2 51 -36 41 -49 41 -82 1z"
       id="path440"
       style="fill:#cc6600" />
    <path
       d="M3675 4474 c-31 -34 -31 -40 1 -88 l26 -38 36 35 35 36 -26 40 c-15 23 -32 41 -38 41 -5 0 -21 -12 -34 -26z"
       id="path442"
       style="fill:#ff9933" />
    <path
       d="M4222 4467 l-32 -33 33 -48 34 -47 32 37 c19 21 30 42 27 51 -7 18 -49 72 -57 72 -3 1 -20 -14 -37 -32z"
       id="path444"
       style="fill:#ff9933" />
    <path
       d="M4380 4460 l-32 -41 26 -39 c14 -22 30 -40 34 -40 5 0 23 20 40 44 l31 43 -27 36 c-15 20 -30 36 -34 37 -3 0 -21 -18 -38 -40z"
       id="path446"
       style="fill:#ff9933" />
    <path
       d="M4864 4476 c-59 -26 -103 -116 -56 -116 22 0 112 52 136 79 33 36 -24 62 -80 37z"
       id="path448"
       style="fill:#cc6600" />
    <path
       d="M3830 4450 c-20 -18 -29 -34 -24 -42 4 -7 21 -33 37 -57 l29 -43 36 35 35 35 -32 51 c-18 28 -37 51 -41 51 -4 0 -22 -13 -40 -30z"
       id="path450"
       style="fill:#ff9933" />
    <path
       d="M3996 4411 l-29 -30 19 -32 c28 -47 47 -56 78 -36 14 10 26 24 26 32 0 17 -49 95 -59 95 -4 0 -20 -13 -35 -29z"
       id="path452"
       style="fill:#ff9933" />
    <path
       d="M3472 4407 c-27 -28 -27 -33 -4 -62 20 -25 26 -23 56 12 18 21 18 24 2 48 -20 31 -27 31 -54 2z"
       id="path454"
       style="fill:#cc6600" />
    <path
       d="M3590 4395 c-23 -25 -24 -27 -8 -53 15 -23 23 -27 55 -24 21 2 41 7 45 10 9 9 -43 92 -58 92 -6 0 -21 -11 -34 -25z"
       id="path456"
       style="fill:#ff9933" />
    <path
       d="M4146 4379 c-26 -30 -26 -31 -9 -61 28 -46 38 -51 66 -33 14 9 28 23 31 31 6 15 -40 94 -54 94 -5 0 -20 -14 -34 -31z"
       id="path458"
       style="fill:#ff9933" />
    <path
       d="M4478 4392 c-42 -51 -42 -51 4 -45 24 3 45 7 47 9 2 2 -6 14 -17 28 -18 24 -20 24 -34 8z"
       id="path460"
       style="fill:#cc6633" />
    <path
       d="M4640 4395 c-14 -16 -10 -18 14 -9 9 3 16 10 16 15 0 14 -16 11 -30 -6z"
       id="path462"
       style="fill:none" />
    <path
       d="M3752 4367 c-37 -38 -37 -40 -16 -72 14 -22 18 -23 37 -11 12 8 35 17 50 20 l28 7 -31 44 c-17 25 -32 45 -34 45 -1 0 -16 -15 -34 -33z"
       id="path464"
       style="fill:#ff9933" />
    <path
       d="M4301 4361 l-33 -41 27 -10 c14 -5 30 -10 34 -10 5 0 14 -7 22 -16 12 -14 14 -14 26 2 19 26 16 45 -15 83 l-28 33 -33 -41z"
       id="path466"
       style="fill:#cc6600" />
    <path
       d="M4906 4383 c-37 -20 -27 -26 82 -48 91 -18 199 -53 253 -80 52 -27 236 -151 304 -205 168 -133 268 -294 319 -511 32 -137 37 -167 28 -172 -4 -3 -47 1 -97 9 -49 7 -127 14 -172 14 -140 0 -296 40 -378 96 -21 14 -39 23 -42 21 -10 -11 28 -77 58 -100 88 -67 331 -112 566 -105 79 2 146 7 149 11 10 10 -11 129 -41 233 -53 181 -190 415 -302 514 -101 89 -341 243 -443 284 -50 20 -201 56 -233 56 -12 -1 -35 -8 -51 -17z"
       id="path468"
       style="fill:#cc3300" />
    <path
       d="M4662 4373 c-38 -18 -55 -44 -50 -78 l3 -24 70 30 c90 39 96 45 66 70 -28 23 -46 24 -89 2z"
       id="path470"
       style="fill:#cc6600" />
    <path
       d="M2799 4263 c-102 -106 -275 -334 -338 -445 -18 -31 -57 -134 -88 -230 -52 -160 -56 -180 -56 -268 0 -144 32 -262 92 -340 l20 -25 24 23 c15 15 50 29 92 37 115 24 259 123 381 262 79 90 107 139 120 207 l7 39 -27 -19 c-14 -10 -41 -50 -60 -89 -43 -89 -96 -148 -188 -212 -92 -64 -163 -99 -214 -108 -21 -4 -52 -16 -67 -27 -16 -11 -34 -17 -41 -15 -15 6 -43 103 -51 177 -7 69 11 278 30 345 20 72 89 218 141 297 59 91 226 309 292 379 40 43 52 63 52 87 0 18 -4 32 -8 32 -5 0 -56 -48 -113 -107z"
       id="path472"
       style="fill:#cc3300" />
    <path
       d="M3415 4350 c-3 -5 1 -10 9 -10 9 0 16 5 16 10 0 6 -4 10 -9 10 -6 0 -13 -4 -16 -10z"
       id="path474"
       style="fill:none" />
    <path
       d="M3919 4330 l-30 -30 27 -33 27 -34 29 33 29 33 -22 31 c-13 16 -25 30 -27 30 -2 0 -17 -13 -33 -30z"
       id="path476"
       style="fill:#cc6600" />
    <path
       d="M3526 4331 c-12 -13 -15 -27 -10 -45 8 -32 14 -32 43 -2 19 20 21 28 12 45 -14 26 -23 26 -45 2z"
       id="path478"
       style="fill:#cc6633" />
    <path
       d="M4763 4317 c-40 -17 -73 -33 -73 -36 0 -3 28 -24 61 -46 71 -47 201 -186 262 -282 74 -116 155 -280 167 -340 9 -41 21 -65 42 -85 72 -67 235 -117 385 -119 43 0 121 -6 173 -13 52 -7 96 -12 97 -11 5 3 -37 188 -54 240 -45 142 -143 290 -251 381 -113 94 -323 229 -408 262 -66 25 -214 62 -309 77 -11 2 -53 -11 -92 -28z"
       id="path480"
       style="fill:#ff6600" />
    <path
       d="M4460 4327 c-34 -12 -80 -66 -80 -94 0 -12 9 -13 43 -8 79 12 148 28 153 37 10 16 -8 49 -36 63 -34 18 -34 18 -80 2z"
       id="path482"
       style="fill:#cc6600" />
    <path
       d="M4096 4321 c-4 -6 3 -15 14 -21 23 -12 27 2 6 19 -9 8 -16 8 -20 2z"
       id="path484"
       style="fill:none" />
    <path
       d="M3358 4291 c-28 -26 -31 -32 -18 -41 16 -10 101 -30 146 -33 26 -2 29 1 26 23 -10 78 -93 106 -154 51z"
       id="path486"
       style="fill:#cc6600" />
    <path
       d="M3690 4305 c0 -15 39 -65 44 -56 8 12 -21 61 -35 61 -5 0 -9 -2 -9 -5z"
       id="path488"
       style="fill:none" />
    <path
       d="M3588 4284 c-29 -15 -48 -42 -48 -67 0 -11 20 -16 80 -21 44 -4 84 -5 89 -1 13 8 -4 53 -31 83 -25 25 -51 27 -90 6z"
       id="path490"
       style="fill:#cc6600" />
    <path
       d="M4215 4267 c-19 -19 -35 -44 -35 -56 0 -25 21 -27 117 -10 49 9 63 15 63 28 0 25 -40 60 -78 67 -27 6 -37 1 -67 -29z"
       id="path492"
       style="fill:#cc6600" />
    <path
       d="M3788 4274 c-27 -14 -65 -71 -55 -81 3 -2 48 -7 101 -10 90 -6 96 -5 96 13 0 21 -24 62 -48 82 -21 16 -61 15 -94 -4z"
       id="path494"
       style="fill:#cc6600" />
    <path
       d="M4024 4280 c-26 -10 -74 -67 -74 -87 0 -14 13 -15 96 -10 54 4 99 9 102 12 7 6 -18 64 -35 81 -16 15 -56 17 -89 4z"
       id="path496"
       style="fill:#cc6600" />
    <path
       d="M2875 4233 c-27 -27 -124 -150 -237 -302 -70 -93 -138 -221 -172 -321 -50 -149 -58 -420 -15 -514 11 -24 14 -25 29 -11 9 8 40 19 70 25 84 16 231 103 314 186 43 43 86 109 86 133 0 5 -29 -8 -64 -29 -102 -62 -235 -110 -305 -110 -53 0 -65 4 -95 31 -41 36 -55 84 -36 129 14 33 30 40 30 12 0 -24 19 -42 44 -42 28 0 81 34 100 63 31 47 36 151 11 211 -8 17 -5 19 29 13 34 -5 50 -14 102 -52 10 -7 26 2 59 35 91 89 90 84 90 342 0 126 -3 228 -6 228 -4 0 -19 -12 -34 -27z"
       id="path498"
       style="fill:#ff6600" />
    <path
       d="M4150 4251 c0 -6 5 -13 10 -16 6 -3 10 1 10 9 0 9 -4 16 -10 16 -5 0 -10 -4 -10 -9z"
       id="path500"
       style="fill:none" />
    <path
       d="M4612 4251 c-10 -6 4 -21 50 -55 78 -58 240 -234 313 -341 64 -93 93 -171 129 -343 30 -142 33 -251 11 -373 -21 -112 -66 -270 -76 -267 -4 2 -18 19 -31 38 -34 50 -142 128 -277 199 -137 72 -195 125 -245 224 -29 58 -34 64 -40 45 -29 -109 26 -198 189 -307 58 -39 146 -90 198 -115 74 -35 105 -57 150 -105 l55 -60 31 47 c47 74 108 221 121 292 19 102 15 279 -9 400 -48 236 -244 546 -435 687 -58 43 -103 54 -134 34z"
       id="path502"
       style="fill:#cc3300" />
    <path
       d="M4490 4220 c-41 -10 -88 -19 -105 -19 -59 -2 -60 -11 -14 -102 58 -117 76 -172 95 -306 14 -99 15 -135 6 -230 -10 -103 -9 -117 9 -170 26 -77 81 -155 138 -197 25 -18 87 -54 136 -79 99 -49 196 -118 245 -173 17 -20 33 -35 34 -33 2 2 13 33 25 69 60 184 67 362 22 559 -16 70 -39 153 -51 185 -29 76 -150 237 -270 357 -80 80 -180 162 -192 158 -2 -1 -37 -10 -78 -19z"
       id="path504"
       style="fill:#ff6600" />
    <path
       d="M3238 4213 c-20 -12 -28 -28 -33 -62 -6 -40 -32 -119 -80 -242 -11 -28 -15 -53 -11 -65 8 -17 9 -17 19 6 32 77 134 244 182 299 42 48 53 66 43 72 -22 14 -91 9 -120 -8z"
       id="path506"
       style="fill:#ff3300" />
    <path
       d="M3327 4139 c-46 -50 -82 -105 -125 -188 -59 -116 -60 -118 -55 -183 7 -83 2 -103 -43 -168 -30 -43 -38 -67 -46 -128 -11 -94 3 -223 37 -330 27 -85 130 -272 197 -359 39 -51 142 -143 161 -143 4 0 7 13 7 29 0 51 19 84 94 161 114 119 183 234 212 356 14 61 14 70 -2 110 -9 25 -20 46 -23 48 -3 2 -7 -19 -8 -46 -6 -132 -60 -236 -194 -373 -54 -55 -103 -113 -109 -130 l-11 -30 -30 35 c-149 177 -259 437 -259 615 0 143 53 361 120 497 50 99 85 151 155 227 52 55 54 59 32 65 -39 10 -44 7 -110 -65z"
       id="path508"
       style="fill:#cc3300" />
    <path
       d="M3434 4139 c-140 -133 -242 -355 -273 -594 -7 -49 -14 -105 -17 -124 l-5 -34 34 37 c31 33 34 40 30 81 -5 39 -2 47 25 75 55 55 138 34 172 -43 l17 -38 31 35 c17 20 37 33 44 31 17 -7 38 47 38 93 0 30 -29 72 -49 72 -5 0 -17 -8 -27 -17 -17 -17 -17 -18 4 -21 25 -4 29 -17 8 -25 -15 -6 -36 11 -36 28 0 7 9 20 20 30 24 22 65 14 81 -16 11 -22 8 -101 -6 -133 -8 -17 -7 -17 25 -1 23 12 49 16 86 13 l52 -4 5 170 c5 185 23 276 73 365 13 24 24 45 24 46 0 2 -46 6 -102 9 -57 4 -124 9 -150 12 -46 6 -49 5 -104 -47z"
       id="path510"
       style="fill:#ff6600" />
    <path
       d="M4105 4169 c-33 -4 -92 -7 -131 -8 -56 -1 -74 -5 -88 -20 -28 -31 -73 -160 -86 -246 -15 -96 -7 -337 15 -438 31 -148 173 -426 271 -532 l65 -70 18 22 c24 28 114 255 140 354 26 92 48 237 57 354 9 140 -39 386 -106 538 -18 40 -24 45 -58 48 -20 2 -64 1 -97 -2z"
       id="path512"
       style="fill:#ff6600" />
    <path
       d="M4260 4175 c0 -3 7 -22 16 -43 39 -90 66 -187 90 -317 21 -112 25 -156 19 -220 -18 -218 -59 -400 -125 -560 -58 -139 -88 -195 -104 -195 -30 0 -151 146 -204 246 -145 271 -163 334 -169 595 -5 186 -3 213 16 288 11 46 32 108 46 138 l24 54 -32 -3 c-28 -3 -36 -10 -65 -68 -77 -155 -94 -466 -36 -665 47 -163 160 -401 243 -513 67 -89 162 -172 198 -172 29 0 129 233 206 480 52 166 64 223 73 370 11 182 -18 328 -97 488 -43 87 -54 102 -75 102 -13 0 -24 -2 -24 -5z"
       id="path514"
       style="fill:#cc3300" />
    <path
       d="M3105 3785 c-18 -78 -30 -97 -90 -153 -51 -49 -74 -62 -115 -71 -83 -18 -97 -15 -116 22 -21 41 -52 75 -85 93 l-27 13 -4 -88 c-3 -72 -8 -95 -27 -123 -48 -69 -122 -98 -163 -62 l-21 19 6 -40 c4 -25 16 -48 32 -62 89 -77 391 43 543 215 92 104 116 168 89 233 l-14 34 -8 -30z"
       id="path516"
       style="fill:#0066ff" />
    <path
       d="M3253 3581 c-76 -47 -47 -125 54 -144 39 -8 49 12 28 53 -8 16 -15 35 -15 42 1 7 7 -2 15 -21 11 -23 20 -31 31 -27 9 3 18 6 20 6 2 0 4 12 4 26 0 32 -50 84 -82 84 -13 0 -37 -9 -55 -19z"
       id="path518"
       style="fill:#9900ff" />
    <path
       d="M3545 3558 c-29 -16 -35 -23 -22 -26 22 -5 22 -5 -13 -44 -16 -18 -30 -35 -30 -39 0 -4 17 -10 37 -14 40 -7 103 -62 103 -89 0 -26 -28 -74 -49 -86 -11 -5 -36 -10 -55 -10 -25 0 -36 -4 -36 -15 0 -26 -38 -55 -73 -55 -47 0 -80 37 -80 90 0 22 -2 40 -4 40 -2 0 -15 -7 -28 -16 -23 -15 -25 -15 -25 0 0 12 -10 16 -38 16 -21 0 -48 7 -61 16 -23 17 -23 17 -16 -17 13 -61 67 -213 100 -279 34 -66 141 -220 154 -220 3 0 14 13 24 29 9 16 48 57 87 91 133 118 190 239 190 405 0 51 -3 113 -6 138 -6 44 -8 46 -34 40 -27 -5 -49 11 -35 25 3 3 10 0 15 -8 8 -13 12 -13 27 2 42 42 -65 63 -132 26z"
       id="path520"
       style="fill:#ff6600" />
    <path
       d="M3445 3514 c-20 -21 -15 -38 15 -42 37 -6 53 30 21 48 -15 7 -24 6 -36 -6z"
       id="path522"
       style="fill:#993333" />
    <path
       d="M3410 3455 c21 -23 50 -34 50 -19 0 10 -45 43 -59 44 -10 0 -7 -8 9 -25z"
       id="path524"
       style="fill:#993333" />
    <path
       d="M3189 3421 c-16 -16 -29 -39 -29 -50 0 -46 99 -70 133 -33 26 28 21 43 -10 37 l-28 -5 25 12 c54 28 54 30 -1 49 -29 11 -55 19 -57 19 -2 0 -17 -13 -33 -29z"
       id="path526"
       style="fill:#9900ff" />
    <path
       d="M3350 3422 c0 -11 39 -52 50 -52 22 0 17 19 -10 38 -31 24 -40 27 -40 14z"
       id="path528"
       style="fill:#993333" />
    <path
       d="M3466 3414 c-9 -22 -9 -22 22 -38 15 -9 20 -15 12 -16 -9 0 -25 7 -37 15 -34 24 -38 0 -11 -53 29 -57 65 -74 106 -51 58 32 55 103 -7 137 -46 26 -76 28 -85 6z"
       id="path530"
       style="fill:#9900ff" />
    <path
       d="M5220 3323 c0 -45 3 -83 8 -83 4 0 18 8 32 17 13 9 45 29 71 43 l47 25 -79 41 -79 41 0 -84z"
       id="path532"
       style="fill:#333300" />
    <path
       d="M3312 3340 c-14 -23 -10 -25 19 -9 11 5 17 14 14 20 -9 14 -19 11 -33 -11z"
       id="path534"
       style="fill:none" />
    <path
       d="M3402 3313 c-11 -38 -11 -38 -8 -5 3 38 -15 43 -38 10 -23 -33 -20 -81 7 -106 29 -27 61 -28 87 -2 25 25 25 58 0 90 -11 14 -20 31 -20 38 0 25 -17 11 -28 -25z"
       id="path536"
       style="fill:#9900ff" />
    <path
       d="M4415 3258 c-3 -7 -20 -60 -39 -118 -19 -58 -44 -127 -56 -155 -12 -27 -33 -81 -47 -120 -33 -93 -70 -155 -91 -155 -10 0 -51 27 -92 59 -41 33 -76 59 -77 57 -1 -1 4 -42 12 -92 61 -389 126 -866 150 -1114 9 -90 19 -168 22 -173 9 -14 20 10 54 113 36 107 65 169 115 245 l34 51 -15 45 c-40 110 -55 203 -55 334 0 99 5 145 19 193 23 74 69 149 111 180 16 13 30 28 30 35 0 7 14 41 31 77 23 50 53 87 129 162 l98 96 -86 53 c-98 60 -195 151 -217 204 -16 37 -23 43 -30 23z"
       id="path538"
       style="fill:#333300" />
    <path
       d="M6220 8011 c-35 -29 -35 -30 -18 -58 22 -38 41 -40 72 -6 36 39 42 64 20 80 -26 19 -35 17 -74 -16z"
       id="path540"
       style="fill:#ff9933" />
    <path
       d="M6318 7979 c-8 -13 -28 -36 -42 -51 -25 -25 -26 -29 -14 -53 l14 -26 52 40 c29 23 52 46 52 51 0 5 -10 21 -23 36 l-23 26 -16 -23z"
       id="path542"
       style="fill:#ff9933" />
    <path
       d="M6157 7925 c-27 -56 -57 -183 -64 -267 -3 -43 -3 -78 0 -78 3 0 17 24 30 54 14 30 43 74 65 98 76 83 80 121 24 186 l-38 43 -17 -36z"
       id="path544"
       style="fill:#993399" />
    <path
       d="M6350 7890 c-126 -108 -129 -116 -37 -107 73 7 127 24 127 40 -1 19 -38 97 -47 97 -4 0 -24 -14 -43 -30z"
       id="path546"
       style="fill:#ff9933" />
    <path
       d="M6360 7775 c-30 -7 -71 -14 -91 -14 -22 -1 -43 -9 -54 -21 -22 -24 -22 -24 37 -39 71 -17 132 -14 151 7 19 20 34 83 21 81 -5 -1 -34 -7 -64 -14z"
       id="path548"
       style="fill:#ff9933" />
    <path
       d="M5546 7697 c-21 -16 -18 -50 6 -55 9 -2 35 2 58 8 34 9 41 15 38 33 -2 18 -11 23 -43 25 -23 2 -48 -3 -59 -11z"
       id="path550"
       style="fill:#ff9933" />
    <path
       d="M5660 7705 c0 -4 6 -19 14 -33 8 -15 17 -43 21 -63 9 -61 36 -76 145 -81 67 -4 109 -11 143 -26 l48 -21 -31 39 c-17 22 -48 53 -68 70 -40 33 -159 93 -207 104 -16 4 -38 9 -47 12 -10 3 -18 2 -18 -1z"
       id="path552"
       style="fill:#993399" />
    <path
       d="M6162 7675 c-23 -29 -37 -64 -29 -72 9 -9 124 -16 151 -9 14 3 42 21 62 38 l37 32 -74 12 c-41 7 -86 15 -100 19 -21 5 -31 1 -47 -20z"
       id="path554"
       style="fill:#ff9933" />
    <path
       d="M5640 7643 c-14 -7 -42 -13 -62 -13 -41 0 -43 -4 -32 -59 6 -27 10 -31 41 -31 19 0 47 7 63 15 24 12 30 22 30 48 0 46 -10 56 -40 40z"
       id="path556"
       style="fill:#ff9933" />
    <path
       d="M6020 7576 c0 -14 5 -28 10 -31 6 -3 10 -19 10 -35 0 -16 5 -32 10 -35 6 -3 10 -17 10 -29 0 -13 9 -35 20 -49 11 -14 20 -36 20 -49 0 -25 47 -105 75 -128 13 -11 15 -6 15 31 0 40 -16 81 -55 149 -8 14 -15 33 -15 42 0 9 -4 20 -10 23 -5 3 -10 15 -10 25 0 11 -9 27 -19 37 -11 10 -21 29 -23 43 -4 35 -38 40 -38 6z"
       id="path558"
       style="fill:#ff6600" />
    <path
       d="M6116 7574 c-8 -20 -8 -69 0 -77 8 -8 79 18 122 45 l36 22 -70 12 c-38 7 -72 13 -75 13 -4 1 -10 -6 -13 -15z"
       id="path560"
       style="fill:#ff9933" />
    <path
       d="M5650 7539 c-19 -11 -48 -19 -63 -19 -25 0 -27 -3 -21 -22 11 -34 35 -68 49 -68 14 0 84 49 104 74 12 14 11 19 -4 36 -21 23 -19 23 -65 -1z"
       id="path562"
       style="fill:#ff9933" />
    <path
       d="M5715 7475 c-22 -19 -53 -40 -68 -46 -32 -14 -31 -25 5 -52 24 -18 30 -19 59 -7 34 15 82 59 118 109 l22 31 -48 0 c-40 -1 -55 -6 -88 -35z"
       id="path564"
       style="fill:#ff9933" />
    <path
       d="M5826 7449 c-27 -34 -65 -68 -83 -77 -48 -23 -41 -35 20 -30 65 5 116 40 154 106 21 36 24 46 12 53 -31 20 -55 8 -103 -52z"
       id="path566"
       style="fill:#ff9933" />
    <path
       d="M6230 7491 c0 -6 4 -11 9 -11 5 0 23 -11 39 -25 28 -24 29 -24 65 -7 20 9 36 20 37 23 0 4 -26 10 -57 13 -32 4 -66 9 -75 12 -10 3 -18 1 -18 -5z"
       id="path568"
       style="fill:#ff9933" />
    <path
       d="M5950 7476 c0 -8 -16 -35 -35 -60 -19 -25 -32 -46 -30 -46 15 0 103 51 119 69 19 21 19 22 0 36 -25 19 -54 19 -54 1z"
       id="path570"
       style="fill:#ff9933" />
    <path
       d="M6147 7483 c-15 -4 -17 -11 -12 -31 9 -38 22 -50 64 -62 43 -12 121 -13 121 -2 0 11 -60 67 -85 79 -28 14 -67 21 -88 16z"
       id="path572"
       style="fill:#993399" />
    <path
       d="M6356 7439 c-21 -11 -34 -24 -30 -29 5 -4 43 -10 84 -12 41 -3 83 -8 93 -12 32 -15 17 12 -25 43 -49 36 -69 38 -122 10z"
       id="path574"
       style="fill:#ff9933" />
    <path
       d="M6005 7397 c-18 -31 -25 -58 -25 -93 0 -60 9 -94 24 -94 17 0 56 64 63 103 5 36 -15 127 -29 127 -4 0 -19 -20 -33 -43z"
       id="path576"
       style="fill:#993399" />
    <path
       d="M6373 7383 l-33 -4 31 -39 c36 -45 97 -90 121 -90 10 0 29 11 45 24 24 21 26 28 18 51 -14 39 -105 67 -182 58z m125 -49 c25 -17 30 -54 8 -54 -23 0 -70 45 -62 58 10 16 27 15 54 -4z"
       id="path578"
       style="fill:#ff9933" />
    <path
       d="M6470 7315 c7 -8 20 -15 29 -15 13 1 13 3 -3 15 -26 19 -42 19 -26 0z"
       id="path580" />
    <path
       d="M5931 7341 c-17 -22 -40 -59 -51 -83 -19 -43 -37 -128 -28 -128 3 0 29 24 58 53 l53 52 1 73 c1 39 0 72 -1 72 -1 0 -15 -18 -32 -39z"
       id="path582"
       style="fill:#ff9933" />
    <path
       d="M6170 7372 c0 -5 13 -27 29 -49 32 -44 79 -77 126 -89 l30 -7 -18 24 c-9 13 -27 43 -39 66 -17 34 -28 43 -57 48 -20 3 -44 8 -53 11 -10 3 -18 1 -18 -4z"
       id="path584"
       style="fill:#ff9933" />
    <path
       d="M6317 7309 c15 -28 42 -60 58 -70 36 -23 36 -23 61 -4 19 14 18 14 -6 31 -14 10 -42 35 -62 56 -21 21 -47 38 -58 38 -21 0 -20 -1 7 -51z"
       id="path586"
       style="fill:#ff9933" />
    <path
       d="M6080 7307 c0 -7 -9 -30 -20 -52 l-20 -39 24 -48 c27 -53 30 -50 47 35 6 36 5 57 -6 83 -14 35 -25 44 -25 21z"
       id="path588"
       style="fill:#ff9933" />
    <path
       d="M5912 7166 c-42 -45 -58 -90 -47 -127 6 -19 11 -14 39 38 18 33 42 73 54 88 48 61 10 62 -46 1z"
       id="path590"
       style="fill:#ff9933" />
    <path
       d="M6009 7198 c0 -2 -1 -44 -2 -95 l-2 -92 28 27 c15 14 30 36 33 48 6 25 -29 114 -45 114 -6 0 -11 -1 -12 -2z"
       id="path592"
       style="fill:#ff9933" />
    <path
       d="M5958 7139 c-38 -50 -70 -126 -63 -149 8 -26 38 -25 70 3 25 21 26 26 23 102 l-3 80 -27 -36z m8 -94 c7 -16 -20 -65 -35 -65 -18 0 -21 33 -6 56 18 28 33 31 41 9z"
       id="path594"
       style="fill:#ff9933" />
    <path
       d="M5937 7034 c-4 -4 -7 -14 -7 -23 0 -11 3 -12 11 -4 6 6 10 16 7 23 -2 6 -7 8 -11 4z"
       id="path596" />
    <path
       d="M1795 7924 c19 -31 39 -78 44 -106 6 -28 20 -62 31 -75 16 -21 20 -41 20 -112 0 -47 -4 -102 -10 -121 -8 -29 -8 -32 4 -20 52 56 47 241 -9 355 -25 52 -90 135 -105 135 -5 0 7 -25 25 -56z"
       id="path598"
       style="fill:#ff66ff" />
    <path
       d="M1736 7953 c-11 -36 2 -141 23 -182 l22 -41 26 24 c25 23 25 26 14 73 -12 47 -52 127 -70 138 -5 3 -12 -3 -15 -12z"
       id="path600"
       style="fill:#9999ff" />
    <path
       d="M1998 7929 c-21 -28 -26 -30 -69 -24 -58 8 -66 -2 -40 -54 l21 -40 29 30 c34 34 43 35 66 12 13 -13 16 -29 13 -70 -6 -71 8 -46 22 40 12 69 7 137 -10 137 -5 0 -20 -14 -32 -31z"
       id="path602"
       style="fill:#9999ff" />
    <path
       d="M1946 7831 c-17 -18 -16 -20 3 -26 12 -3 24 -18 27 -32 6 -21 1 -31 -19 -49 -23 -19 -26 -29 -24 -73 1 -28 4 -51 7 -51 9 0 49 104 60 155 6 27 8 60 5 72 -7 28 -36 30 -59 4z"
       id="path604"
       style="fill:#ff66ff" />
    <path
       d="M1678 7774 c-27 -13 -48 -28 -48 -32 1 -4 16 -17 35 -29 29 -18 36 -19 46 -7 6 8 20 14 30 14 11 0 19 5 19 10 0 11 -28 70 -33 70 -1 -1 -23 -12 -49 -26z"
       id="path606"
       style="fill:#ff66ff" />
    <path
       d="M1927 7784 c-4 -4 -7 -18 -7 -31 0 -18 5 -24 18 -21 10 2 17 12 17 27 0 24 -15 37 -28 25z"
       id="path608"
       style="fill:#9933ff" />
    <path
       d="M1806 7735 c-23 -24 -20 -38 14 -57 50 -28 35 -98 -21 -98 -39 0 -57 36 -39 79 20 49 -4 67 -41 30 -27 -27 -21 -50 35 -140 24 -39 47 -86 51 -106 l6 -36 21 20 c39 40 63 238 35 293 -15 30 -39 36 -61 15z"
       id="path610"
       style="fill:#9999ff" />
    <path
       d="M1610 7687 c0 -27 7 -39 40 -63 40 -30 116 -121 108 -129 -2 -3 -20 16 -38 41 -39 51 -76 81 -137 113 -51 25 -53 20 -14 -25 16 -18 33 -39 38 -46 4 -8 22 -23 39 -33 35 -22 139 -133 132 -141 -6 -5 -87 -28 -160 -45 -40 -9 -52 -8 -75 6 -23 13 -38 15 -78 7 l-50 -9 30 -14 c19 -8 68 -13 135 -14 99 0 108 2 157 30 29 17 53 34 53 38 0 4 -7 24 -15 44 -18 42 -18 46 -4 37 14 -8 -5 27 -48 90 -18 26 -33 61 -33 76 0 19 -9 36 -26 49 -39 30 -54 27 -54 -12z"
       id="path612"
       style="fill:#9999ff" />
    <path
       d="M1783 7663 c-17 -6 -16 -48 1 -62 29 -24 65 14 46 50 -11 19 -23 22 -47 12z"
       id="path614"
       style="fill:#ff66ff" />
    <path
       d="M1524 7621 c7 -42 22 -61 47 -61 28 0 23 16 -17 58 l-36 37 6 -34z"
       id="path616"
       style="fill:#ff66ff" />
    <path
       d="M1496 7557 c-17 -13 -16 -15 18 -35 21 -12 39 -22 42 -22 12 0 2 45 -13 56 -23 17 -25 17 -47 1z"
       id="path618"
       style="fill:#ff66ff" />
    <path
       d="M1585 7534 c-19 -19 -19 -25 -1 -50 12 -15 17 -17 27 -6 17 16 54 15 68 -2 7 -8 11 -27 9 -43 -2 -23 -8 -29 -34 -31 -27 -3 -34 2 -53 33 -25 42 -48 43 -70 3 -14 -24 -14 -28 4 -48 17 -19 27 -21 65 -16 39 5 139 33 148 42 2 1 -11 19 -30 40 -73 82 -108 103 -133 78z"
       id="path620"
       style="fill:#ff66ff" />
    <path
       d="M1459 7508 c-7 -13 -17 -26 -22 -30 -6 -3 9 -11 32 -18 38 -10 44 -9 56 7 16 22 12 29 -25 48 -28 14 -30 14 -41 -7z"
       id="path622"
       style="fill:#ff66ff" />
    <path
       d="M1933 7465 c-3 -9 -3 -19 1 -22 7 -7 36 16 36 28 0 15 -30 10 -37 -6z"
       id="path624"
       style="fill:none" />
    <path
       d="M1616 7461 c-9 -13 3 -39 21 -45 24 -10 45 12 32 35 -10 20 -44 26 -53 10z"
       id="path626"
       style="fill:#9933ff" />
    <path
       d="M1417 7422 c-2 -21 -3 -38 -2 -39 0 -2 21 1 46 5 34 6 44 12 44 27 0 14 -11 22 -42 31 l-41 12 -5 -36z"
       id="path628"
       style="fill:#ff66ff" />
    <path
       d="M1843 7412 c-48 -30 -54 -42 -20 -42 27 0 63 23 77 51 15 28 -6 25 -57 -9z"
       id="path630"
       style="fill:#993300" />
    <path
       d="M1731 7318 c-13 -16 -21 -31 -18 -34 3 -3 15 9 27 26 29 40 22 46 -9 8z"
       id="path632"
       style="fill:none" />
    <path
       d="M6483 2412 c-38 -14 -61 -37 -49 -49 7 -8 118 42 118 52 -1 16 -24 15 -69 -3z"
       id="path634"
       style="fill:#ff0000" />
    <path
       d="M6570 2385 c13 -16 7 -45 -9 -45 -5 0 -16 7 -25 15 -27 27 -25 16 5 -41 16 -31 29 -62 29 -69 0 -42 55 -26 70 20 13 39 7 55 -20 55 -22 0 -31 19 -19 42 7 13 4 20 -10 28 -28 14 -36 13 -21 -5z m48 -84 c19 -11 11 -45 -11 -49 -19 -4 -32 20 -23 43 6 17 15 19 34 6z"
       id="path636"
       style="fill:#990000" />
    <path
       d="M6448 2353 c-22 -6 -24 -23 -3 -23 24 0 31 -31 11 -46 -14 -10 -15 -16 -6 -33 15 -30 55 -53 82 -49 19 2 23 9 21 33 -2 29 -8 35 -50 61 -15 10 -16 15 -6 32 18 30 1 38 -49 25z m80 -104 c2 -9 -5 -19 -14 -23 -21 -8 -50 17 -39 34 10 16 49 8 53 -11z"
       id="path638"
       style="fill:#990000" />
    <path
       d="M2619 1114 c-14 -17 -14 -17 29 -34 38 -15 48 -10 33 18 -13 25 -47 34 -62 16z"
       id="path640"
       style="fill:#ff0000" />
    <path
       d="M2566 1048 c-23 -32 -21 -35 32 -51 93 -30 102 -30 102 -5 -1 64 -100 105 -134 56z"
       id="path642"
       style="fill:#ff0000" />
    <path
       d="M2536 993 c-13 -14 -6 -116 11 -144 28 -47 30 -43 62 84 5 20 8 37 6 37 -1 0 -18 7 -38 15 -19 8 -37 11 -41 8z"
       id="path644"
       style="fill:#990000" />
    <path
       d="M2621 910 c-21 -98 -8 -121 39 -70 29 31 54 95 44 112 -3 4 -20 8 -39 8 -32 0 -34 -2 -44 -50z"
       id="path646"
       style="fill:#990000" />
  </g>
</svg>
