<?xml version="1.0" encoding="UTF-8" standalone="no"?>
<svg
   xmlns:dc="http://purl.org/dc/elements/1.1/"
   xmlns:cc="http://creativecommons.org/ns#"
   xmlns:rdf="http://www.w3.org/1999/02/22-rdf-syntax-ns#"
   xmlns:svg="http://www.w3.org/2000/svg"
   xmlns="http://www.w3.org/2000/svg"
   xmlns:sodipodi="http://sodipodi.sourceforge.net/DTD/sodipodi-0.dtd"
   xmlns:inkscape="http://www.inkscape.org/namespaces/inkscape"
   version="1.0"
   width="850.000000pt"
   height="850.000000pt"
   viewBox="0 0 850.000000 850.000000"
   preserveAspectRatio="xMidYMid meet"
   id="svg2"
   inkscape:version="0.91 r13725"
   sodipodi:docname="People518_012.svg">
  <defs
     id="defs244" />
  <sodipodi:namedview
     pagecolor="#ffffff"
     bordercolor="#666666"
     borderopacity="1"
     objecttolerance="10"
     gridtolerance="10"
     guidetolerance="10"
     inkscape:pageopacity="0"
     inkscape:pageshadow="2"
     inkscape:window-width="1920"
     inkscape:window-height="980"
     id="namedview242"
     showgrid="false"
     inkscape:zoom="0.44423529"
     inkscape:cx="563.87997"
     inkscape:cy="453.03083"
     inkscape:window-x="0"
     inkscape:window-y="1"
     inkscape:window-maximized="1"
     inkscape:current-layer="svg2" />
  <metadata
     id="metadata4">
Created by potrace 1.14, written by Peter Selinger 2001-2017
<rdf:RDF>
  <cc:Work
     rdf:about="">
    <dc:format>image/svg+xml</dc:format>
    <dc:type
       rdf:resource="http://purl.org/dc/dcmitype/StillImage" />
  </cc:Work>
</rdf:RDF>
</metadata>
  <g
     transform="translate(0.000000,850.000000) scale(0.100000,-0.100000)"
     fill="#000000"
     stroke="none"
     id="g6">
    <path
       d="M0 4250 l0 -4250 4250 0 4250 0 0 4250 0 4250 -4250 0 -4250 0 0 -4250z m4263 3685 c80 -21 131 -49 189 -103 61 -57 96 -122 104 -196 l7 -56 33 29 c50 44 96 56 219 55 95 0 119 -4 179 -27 92 -36 175 -88 246 -153 41 -38 74 -59 109 -70 107 -31 245 -169 291 -291 34 -86 39 -215 12 -276 -26 -58 -72 -90 -123 -84 -35 5 -37 3 -57 -46 l-22 -50 45 -39 c28 -24 57 -65 77 -106 29 -60 32 -76 33 -157 0 -150 -60 -272 -174 -355 l-60 -44 41 -20 c22 -12 54 -38 70 -59 82 -103 198 -100 198 6 0 51 -11 70 -36 65 -23 -4 -32 -38 -10 -38 9 0 16 -6 16 -13 0 -24 -23 -37 -65 -37 -58 0 -85 27 -85 85 0 57 41 95 103 95 60 0 155 -48 200 -101 116 -135 126 -287 25 -373 l-40 -35 21 -22 c40 -43 36 -131 -9 -204 -21 -34 -86 -75 -119 -75 -13 0 -26 -11 -37 -32 -33 -66 -70 -92 -154 -108 -72 -14 -169 8 -261 57 -4 2 -9 -17 -12 -42 -5 -53 -43 -100 -84 -108 -57 -11 -133 34 -133 79 0 32 17 39 24 9 8 -30 27 -32 50 -6 23 25 14 70 -22 112 l-25 31 -11 -34 c-7 -22 -22 -39 -44 -49 -18 -9 -51 -43 -73 -75 -23 -33 -59 -78 -82 -101 -22 -24 -39 -44 -36 -46 2 -2 29 -11 59 -20 88 -27 179 -86 275 -180 145 -141 246 -158 420 -73 144 71 260 190 436 447 126 186 207 287 285 358 166 152 327 201 511 154 36 -9 146 -56 244 -104 239 -118 253 -121 414 -113 144 7 180 -1 195 -41 9 -23 15 -25 82 -27 234 -7 386 14 592 83 65 21 130 39 144 39 24 0 25 -1 20 -62 -3 -35 -16 -85 -29 -113 -35 -76 -139 -175 -229 -218 -92 -44 -234 -86 -318 -94 -35 -3 -59 -10 -55 -14 4 -4 91 -13 193 -19 195 -12 265 -27 275 -60 16 -51 -74 -130 -192 -169 -133 -44 -425 -76 -588 -65 l-90 7 40 -33 c52 -43 131 -78 290 -130 148 -48 179 -62 218 -98 35 -33 34 -54 -3 -86 -42 -35 -82 -41 -250 -40 -159 1 -320 25 -457 69 -56 17 -87 22 -108 17 -29 -8 -27 -10 126 -146 84 -75 197 -166 249 -201 98 -65 124 -95 118 -136 -10 -74 -170 -63 -463 32 -179 58 -293 112 -360 171 l-49 43 29 -50 c69 -119 119 -175 266 -292 99 -80 184 -173 199 -219 11 -34 10 -38 -13 -62 -91 -91 -447 66 -701 308 -92 87 -156 139 -156 125 0 -9 75 -223 150 -425 96 -261 97 -310 3 -310 -90 0 -165 60 -303 241 -98 128 -168 237 -220 339 -28 55 -34 62 -41 45 -15 -38 -9 -212 11 -326 26 -148 26 -214 0 -256 -15 -25 -27 -33 -49 -33 -64 0 -137 94 -270 351 -87 169 -92 176 -121 176 l-30 0 2 -128 c2 -116 0 -131 -18 -156 -38 -50 -89 -40 -123 25 -19 35 -20 36 -21 10 0 -14 16 -59 36 -100 34 -70 35 -76 29 -151 -6 -77 -5 -78 28 -120 52 -64 102 -162 138 -267 28 -82 33 -112 37 -220 3 -107 0 -141 -21 -235 -33 -146 -39 -208 -27 -279 8 -51 16 -67 56 -107 26 -26 95 -75 157 -110 101 -57 116 -63 189 -69 110 -10 139 -40 103 -109 -14 -28 -13 -29 11 -35 72 -18 85 -88 27 -146 -21 -20 -44 -39 -51 -41 -10 -3 -10 -11 -2 -36 25 -70 -44 -141 -126 -131 l-33 4 5 -41 c4 -29 0 -48 -15 -72 -27 -43 -69 -54 -145 -36 -123 28 -240 111 -373 263 -83 94 -145 142 -164 123 -5 -5 -20 -38 -34 -73 -35 -90 -70 -136 -121 -161 -48 -23 -92 -21 -147 7 -49 26 -67 51 -67 94 0 34 7 47 50 90 80 81 82 103 24 355 -8 39 -14 91 -11 117 4 46 -6 78 -23 78 -6 0 -10 -9 -10 -19 0 -36 -60 -204 -109 -305 -124 -255 -277 -423 -476 -523 -242 -122 -631 -149 -845 -59 -13 5 -15 -14 -16 -136 -1 -126 -4 -152 -27 -223 -50 -151 -126 -244 -190 -231 -20 4 -38 -2 -70 -25 -53 -37 -117 -48 -150 -26 -21 14 -29 14 -63 2 -53 -19 -78 -18 -105 4 -22 18 -24 18 -67 -2 -38 -16 -51 -18 -83 -8 -49 15 -79 53 -79 101 0 35 -2 36 -29 32 -16 -2 -45 5 -69 17 -56 28 -82 85 -82 177 0 174 76 293 243 381 116 62 166 112 221 220 56 112 97 168 138 189 l33 17 -100 17 c-132 22 -360 92 -460 140 -44 21 -97 55 -118 75 -20 20 -42 33 -47 30 -17 -10 -122 14 -177 41 -68 33 -137 102 -158 159 l-18 45 -50 -46 c-67 -60 -116 -88 -211 -118 -104 -34 -198 -43 -254 -23 l-43 15 -19 -39 c-53 -103 -134 -149 -264 -149 -107 0 -170 22 -220 77 -131 145 -137 150 -216 173 -143 41 -191 72 -254 163 -24 35 -37 65 -38 90 -1 28 -5 36 -15 33 -24 -10 -81 21 -97 53 -9 16 -16 51 -16 77 0 30 -6 54 -16 65 -25 27 -30 103 -10 134 12 19 14 30 6 44 -20 39 -12 91 20 123 18 17 37 28 45 24 11 -4 15 1 15 18 0 70 49 117 101 98 13 -5 50 -36 81 -68 48 -49 58 -55 64 -40 5 12 -4 28 -29 54 -20 20 -45 59 -56 85 -11 26 -34 67 -50 90 -45 66 -96 175 -124 262 -74 236 -64 453 30 643 34 70 36 76 23 110 -12 35 -12 37 18 62 23 19 30 31 25 48 -4 17 2 26 26 39 22 13 31 25 31 45 0 32 45 88 71 88 14 0 19 7 19 28 0 91 155 85 249 -8 l28 -28 71 21 72 21 0 39 c0 50 52 107 98 107 47 0 125 -65 144 -120 2 -6 39 -14 83 -20 44 -5 92 -12 106 -15 26 -6 27 -5 33 57 4 35 18 95 32 133 13 39 25 74 26 79 2 4 -15 10 -37 12 -85 8 -117 15 -201 46 -102 36 -164 85 -164 128 0 49 54 78 190 99 215 34 343 71 248 71 -42 0 -219 41 -328 75 -192 61 -300 151 -300 251 0 78 53 99 215 83 60 -5 169 -9 240 -7 l130 3 -35 19 c-177 96 -375 376 -332 470 19 42 58 34 143 -29 148 -109 330 -198 498 -242 78 -21 120 -26 226 -27 72 0 142 2 156 6 24 7 25 11 25 76 -1 43 4 75 12 85 11 13 6 22 -35 64 -30 29 -53 64 -61 89 -24 83 -10 187 32 229 l23 23 -42 30 c-134 94 -167 283 -66 383 20 20 42 38 49 40 10 3 8 16 -9 54 -27 61 -37 177 -19 239 15 55 60 111 111 136 44 23 133 27 174 8 98 -44 51 -256 -48 -219 -29 11 -51 37 -42 51 9 15 25 12 25 -5 0 -8 6 -15 14 -15 22 0 46 29 46 54 0 53 -64 63 -111 17 -36 -37 -37 -70 -2 -112 70 -83 217 -80 331 8 49 37 112 138 112 179 0 32 -1 33 -26 23 -87 -32 -201 107 -147 180 18 23 71 47 82 36 2 -3 -8 -14 -22 -26 -71 -55 7 -105 97 -63 25 12 39 29 51 59 8 24 25 51 35 60 11 10 20 26 20 35 0 37 63 141 112 185 59 53 164 91 228 82 32 -4 42 -1 62 20 28 30 150 89 271 132 122 43 276 73 363 70 70 -2 74 -1 115 35 80 68 213 92 332 61z"
       id="path8"
       style="fill:none" />
    <path
       d="M4077 7910 c-202 -51 -249 -227 -96 -364 74 -67 135 -73 164 -16 17 34 19 83 5 111 -12 21 -50 25 -68 7 -17 -17 -15 -33 2 -19 19 16 56 -2 56 -28 0 -24 -41 -61 -67 -61 -29 0 -83 47 -99 87 -25 60 -18 101 24 143 46 46 104 59 182 40 87 -21 161 -120 175 -235 5 -41 2 -58 -17 -95 -13 -25 -31 -46 -41 -48 -16 -3 -16 -1 2 30 33 59 33 81 1 130 -54 81 -159 138 -256 138 -44 0 -54 -10 -54 -56 0 -32 39 -90 69 -104 20 -9 28 -8 45 9 11 11 17 24 12 28 -4 4 -11 1 -15 -6 -13 -21 -51 4 -51 34 0 26 33 55 63 55 10 0 32 -14 49 -30 28 -29 30 -35 26 -87 -4 -48 -10 -61 -37 -85 -38 -34 -84 -37 -140 -8 -74 37 -148 146 -155 227 l-4 37 -43 -3 c-138 -9 -334 -62 -477 -128 -43 -19 -78 -36 -80 -38 -2 -1 8 -15 23 -31 49 -52 65 -157 33 -217 -21 -41 -98 -44 -119 -5 -9 16 -6 25 12 44 27 29 16 47 -27 42 -41 -4 -69 -57 -69 -129 0 -106 78 -168 210 -169 53 0 82 6 120 24 87 41 124 96 126 184 0 26 4 56 9 67 7 18 8 18 15 -8 14 -53 1 -152 -25 -191 -52 -76 -166 -123 -277 -113 -90 9 -152 45 -192 112 -11 18 -12 16 -7 -13 15 -86 69 -150 166 -196 55 -26 77 -31 145 -31 68 0 89 4 137 28 60 30 109 84 129 144 13 41 29 43 29 3 0 -68 -68 -153 -153 -190 -167 -74 -393 10 -468 173 -21 48 -26 167 -9 229 6 21 26 53 44 73 42 44 99 49 134 12 30 -31 29 -67 0 -67 -21 0 -22 -1 -4 -17 16 -17 18 -17 38 7 16 20 19 35 16 83 -7 101 -73 157 -188 157 -84 0 -151 -31 -208 -95 -64 -72 -86 -140 -86 -260 0 -175 67 -327 204 -465 85 -86 167 -132 277 -155 70 -15 155 -18 208 -6 28 6 27 7 -23 19 -114 26 -218 96 -241 163 -13 39 -2 37 33 -7 71 -90 203 -138 371 -138 131 1 206 18 324 76 95 47 185 127 220 197 32 62 52 171 51 271 -2 108 -1 111 15 75 8 -16 14 -23 15 -14 1 33 112 108 161 109 22 0 86 72 96 107 15 52 8 185 -11 243 -27 77 -100 147 -190 184 -77 30 -177 41 -239 26z m207 -48 c88 -31 187 -161 185 -246 l0 -41 -13 46 c-16 60 -58 130 -98 164 -45 38 -126 75 -165 75 -33 0 -52 15 -31 23 17 7 62 -1 122 -21z"
       id="path10"
       style="fill:#ff9900" />
    <path
       d="M3650 7795 c-41 -8 -122 -30 -180 -50 -103 -36 -280 -122 -280 -136 0 -21 37 -12 136 32 145 64 331 117 447 126 76 7 92 11 95 26 3 15 -5 17 -70 16 -40 0 -107 -7 -148 -14z"
       id="path12"
       style="fill:#ff6600" />
    <path
       d="M4070 7778 c-24 -11 -23 -11 21 -18 62 -11 122 -43 182 -98 l50 -47 -26 50 c-53 105 -143 150 -227 113z"
       id="path14"
       style="fill:#ff6600" />
    <path
       d="M4668 7624 c-31 -9 -57 -26 -77 -51 -35 -42 -43 -90 -13 -78 176 74 358 32 548 -125 110 -91 214 -254 247 -385 19 -75 40 -266 31 -289 -14 -36 16 -13 35 27 17 36 21 62 21 153 0 132 -12 203 -51 305 -79 205 -259 378 -458 439 -76 24 -213 26 -283 4z"
       id="path16"
       style="fill:#ff9900" />
    <path
       d="M4657 7496 c-55 -12 -107 -40 -114 -63 -2 -6 35 -12 99 -16 184 -11 305 -51 434 -143 98 -69 210 -203 250 -300 24 -58 26 -33 3 42 -68 221 -273 424 -486 479 -67 18 -107 18 -186 1z"
       id="path18"
       style="fill:#ff9933" />
    <path
       d="M5350 7358 c17 -23 47 -49 68 -58 95 -43 172 -196 172 -340 0 -70 -17 -102 -58 -115 -25 -7 -32 -14 -30 -30 4 -29 48 -31 82 -4 38 30 56 77 56 147 0 165 -89 313 -244 406 -33 20 -63 36 -68 36 -4 0 5 -19 22 -42z"
       id="path20"
       style="fill:#ff6600" />
    <path
       d="M4525 7383 c-46 -11 -36 -23 21 -24 58 -1 58 -2 -34 -15 -51 -7 -105 -21 -120 -29 -15 -9 -18 -13 -7 -9 11 3 55 9 98 12 272 17 606 -209 752 -508 20 -41 40 -82 44 -90 6 -11 88 -33 98 -26 5 4 -71 244 -87 276 -35 68 -141 200 -202 251 -101 84 -196 124 -368 154 -83 15 -155 18 -195 8z"
       id="path22"
       style="fill:#ff9900" />
    <path
       d="M4380 7278 c-19 -5 -39 -14 -45 -20 -7 -8 -2 -9 15 -4 146 41 298 -5 504 -152 97 -69 264 -233 331 -324 27 -37 50 -66 52 -64 2 2 -8 29 -21 61 -102 228 -344 441 -571 500 -66 17 -211 19 -265 3z"
       id="path24"
       style="fill:#ff9933" />
    <path
       d="M5400 7285 c0 -3 10 -25 22 -48 34 -66 57 -154 70 -264 12 -108 22 -124 52 -81 33 47 8 205 -47 296 -27 46 -97 115 -97 97z"
       id="path26"
       style="fill:#ff6600" />
    <path
       d="M2752 7227 c-19 -45 -32 -151 -26 -203 19 -160 112 -319 246 -419 125 -94 237 -136 364 -136 99 0 169 22 263 83 52 34 61 44 44 46 -12 2 -35 -3 -50 -12 -107 -55 -328 -37 -473 40 -66 34 -161 120 -216 194 -69 93 -122 235 -133 355 -7 73 -8 78 -19 52z"
       id="path28"
       style="fill:#ff6600" />
    <path
       d="M4346 7230 c-29 -9 -66 -37 -66 -50 0 -4 22 -10 48 -14 103 -13 218 -97 295 -213 97 -148 130 -248 126 -382 -3 -93 21 -152 84 -206 102 -87 311 -120 430 -67 83 37 147 110 147 168 0 45 -40 102 -87 125 -55 27 -89 17 -116 -35 -19 -36 -19 -37 -1 -57 22 -24 60 -22 58 4 -2 14 4 17 25 15 33 -4 38 -32 12 -75 -43 -69 -150 -66 -222 6 -48 47 -58 96 -33 148 21 41 72 81 117 90 15 3 29 9 32 13 7 12 -145 189 -235 274 -107 100 -202 167 -310 219 -78 39 -91 42 -180 44 -52 1 -108 -2 -124 -7z"
       id="path30"
       style="fill:#ff9900" />
    <path
       d="M2540 7162 c0 -22 62 -62 95 -62 35 0 48 11 60 49 6 21 5 23 -11 16 -37 -15 -113 -18 -129 -5 -9 7 -15 8 -15 2z"
       id="path32"
       style="fill:#ff6600" />
    <path
       d="M4260 7125 c0 -20 7 -26 41 -35 122 -33 242 -246 242 -431 1 -89 -24 -150 -80 -200 -33 -28 -41 -31 -89 -27 -105 9 -175 88 -141 158 19 36 9 39 -22 6 -32 -34 -22 -84 24 -131 43 -43 100 -59 187 -52 57 4 74 9 112 38 153 118 171 359 37 510 -26 30 -50 61 -54 71 -9 26 -95 79 -159 100 -82 25 -98 24 -98 -7z"
       id="path34"
       style="fill:#ff9900" />
    <path
       d="M2236 7065 c-56 -20 -104 -71 -121 -129 -27 -91 -17 -147 38 -204 58 -60 101 -77 202 -77 78 0 98 4 150 28 106 49 167 126 179 222 l7 50 -23 -30 c-43 -57 -102 -108 -147 -129 -68 -31 -211 -30 -262 2 -38 23 -69 74 -69 112 0 36 28 85 59 103 40 23 96 22 121 -3 22 -22 26 -11 9 22 -10 19 -66 48 -91 48 -7 -1 -30 -7 -52 -15z"
       id="path36"
       style="fill:#ff6600" />
    <path
       d="M4252 7014 c-40 -198 -234 -357 -492 -404 -55 -10 -71 -18 -117 -60 -29 -27 -77 -60 -107 -74 -216 -102 -521 -9 -705 216 l-55 68 -21 -20 c-41 -38 -65 -105 -85 -236 -31 -200 -35 -304 -16 -414 31 -176 99 -358 191 -509 19 -32 42 -78 50 -101 8 -24 23 -48 32 -55 15 -11 15 -15 -6 -43 -12 -17 -33 -61 -48 -99 -34 -88 -38 -221 -9 -299 46 -125 156 -229 310 -293 76 -32 486 -142 605 -162 92 -16 206 -5 308 30 116 40 287 144 323 197 64 92 169 159 270 171 47 5 55 11 113 73 69 75 138 188 173 286 56 154 9 305 -113 366 -41 20 -45 23 -24 26 89 13 181 -99 199 -244 7 -55 9 -58 51 -81 145 -76 305 34 387 265 31 87 31 152 0 219 -39 84 -112 119 -199 96 -33 -9 -90 -13 -158 -11 l-107 3 10 -24 c20 -54 -24 -130 -87 -151 -40 -13 -89 6 -98 39 -7 27 3 34 23 16 14 -13 19 -13 28 -2 9 10 8 28 -3 72 -21 80 -47 118 -105 155 -27 18 -72 57 -100 87 l-50 55 -38 -15 -37 -16 43 0 c29 -1 42 -5 42 -15 0 -23 -50 -56 -82 -56 -23 0 -29 -4 -24 -16 25 -65 13 -172 -29 -257 -84 -168 -258 -234 -413 -156 -68 34 -128 95 -163 167 -34 68 -34 205 0 280 l24 53 -31 29 c-48 43 -43 68 5 30 31 -24 59 -26 67 -4 9 24 8 26 -14 19 -15 -5 -18 -3 -14 8 3 8 1 18 -5 22 -6 3 -11 12 -11 19 0 10 10 8 40 -6 40 -20 41 -20 88 -2 72 29 230 27 296 -4 46 -21 48 -21 32 -3 -49 54 -234 75 -335 37 -51 -19 -51 -19 -51 -8 0 5 19 18 42 28 34 15 66 19 153 19 123 0 186 -16 251 -64 31 -24 43 -27 68 -20 39 11 44 5 12 -16 -35 -23 -24 -35 31 -35 45 0 45 0 37 28 -5 15 -9 49 -9 75 0 43 -2 47 -20 42 -11 -4 -61 -9 -111 -12 -84 -5 -96 -3 -153 22 -63 29 -142 102 -156 144 -17 55 19 128 74 151 66 27 147 -21 123 -74 l-9 -21 -7 22 c-7 23 -46 40 -65 28 -18 -11 -12 -64 10 -86 24 -24 79 -49 110 -49 12 0 38 17 59 38 58 58 74 157 45 280 -33 140 -119 257 -211 286 -19 6 -22 1 -32 -50z m-122 -454 c33 -62 -194 -137 -244 -81 -43 47 43 100 161 101 62 0 74 -3 83 -20z m-994 -176 c9 -35 -7 -47 -96 -77 -111 -37 -139 -42 -146 -23 -17 45 108 126 193 126 37 0 43 -3 49 -26z m98 -223 c3 -4 -31 -11 -75 -14 -95 -6 -190 -47 -235 -100 l-27 -32 22 -3 c13 -2 32 5 45 17 45 42 116 65 207 67 56 1 96 7 117 18 42 22 47 20 28 -9 -16 -25 -14 -45 4 -45 5 0 22 12 39 26 28 23 31 24 31 7 0 -10 6 -25 13 -32 10 -11 8 -13 -10 -8 -39 9 -34 -8 12 -46 25 -22 55 -60 72 -94 25 -53 28 -68 28 -163 0 -95 -3 -110 -27 -155 -54 -102 -148 -165 -258 -173 -121 -8 -220 41 -278 138 -38 64 -50 103 -59 186 -5 60 -6 60 -38 61 -39 1 -90 26 -99 48 -5 13 0 15 29 9 37 -7 85 1 85 14 0 4 -15 6 -33 4 -26 -3 -41 2 -63 22 l-29 26 25 -4 c66 -12 87 -13 105 -6 18 8 18 9 -5 9 -27 1 -96 39 -87 48 3 3 22 0 42 -7 47 -15 55 -7 24 26 -22 24 -22 26 -4 20 16 -4 30 6 63 44 41 47 95 83 152 101 35 10 178 11 184 0z m2096 -290 c0 -5 -19 -12 -42 -16 -24 -4 -54 -13 -67 -20 l-24 -12 34 -7 c38 -7 79 -32 79 -46 0 -6 -15 -3 -32 6 -18 10 -52 18 -74 18 -46 1 -71 -16 -105 -71 -19 -31 -20 -35 -5 -46 10 -8 18 -35 22 -75 7 -68 23 -86 60 -72 39 15 64 59 64 112 0 55 16 57 26 4 8 -48 -25 -120 -65 -141 -61 -31 -111 6 -111 81 0 57 -7 73 -31 67 -51 -14 6 106 79 167 20 16 54 36 77 44 46 16 115 21 115 7z m-1539 -288 c37 -22 38 -36 2 -26 -88 25 -187 -12 -220 -81 -34 -71 4 -113 112 -123 60 -5 66 -8 50 -20 -46 -33 -168 -1 -194 51 -24 49 -17 89 27 138 65 72 160 98 223 61z m111 -60 c31 -28 21 -103 -13 -103 -17 0 -18 3 -8 21 11 21 9 46 -6 82 -9 22 3 22 27 0z m-45 -89 c8 -20 -32 -53 -65 -54 -33 0 -40 29 -13 52 29 22 70 24 78 2z m-347 -27 c0 -13 9 -32 20 -42 22 -20 26 -35 8 -35 -24 0 -48 34 -48 67 0 18 5 33 10 33 6 0 10 -11 10 -23z m814 -41 c40 -17 76 -53 76 -78 0 -25 -7 -23 -54 19 l-41 37 -7 -44 c-10 -61 -48 -113 -121 -166 -76 -57 -148 -93 -252 -129 -44 -16 -91 -39 -106 -52 -30 -27 -39 -29 -39 -7 0 13 -10 15 -72 9 -141 -13 -261 24 -354 108 -36 33 -54 43 -62 35 -16 -16 -32 0 -32 35 0 61 63 128 93 98 7 -7 6 -16 -6 -29 -37 -40 -7 -94 81 -150 76 -49 151 -66 262 -59 215 12 502 152 560 272 25 53 21 75 -15 75 -26 0 -35 24 -12 33 24 10 68 7 101 -7z m-251 -449 c-20 -34 -106 -91 -163 -108 -19 -5 -72 -15 -117 -21 -97 -14 -159 -1 -172 35 -13 32 5 44 30 21 18 -16 35 -19 108 -18 139 2 240 48 299 137 27 41 27 41 30 14 2 -15 -5 -42 -15 -60z"
       id="path38"
       style="fill:#ffcc99" />
    <path
       d="M3999 6550 c-58 -10 -89 -26 -89 -47 0 -31 182 6 188 40 4 19 -18 21 -99 7z"
       id="path40"
       style="fill:#663300" />
    <path
       d="M3017 6366 c-54 -22 -102 -54 -94 -62 9 -9 188 59 184 70 -6 19 -29 17 -90 -8z"
       id="path42"
       style="fill:#663300" />
    <path
       d="M3135 6050 c-102 -21 -149 -54 -186 -134 -23 -49 -29 -75 -29 -132 0 -200 106 -326 277 -326 111 -1 208 64 257 171 29 66 28 189 -3 253 -26 54 -103 130 -153 151 -46 19 -115 27 -163 17z m178 -234 c42 -17 84 -67 97 -114 30 -112 -90 -226 -202 -193 -118 36 -162 170 -85 258 53 60 122 78 190 49z"
       id="path44"
       style="fill:#99ccff" />
    <path
       d="M3262 5768 c-29 -29 -6 -68 40 -68 21 0 29 6 34 25 4 15 1 32 -6 40 -15 18 -51 20 -68 3z"
       id="path46"
       style="fill:#330000" />
    <path
       d="M3211 5596 c-14 -17 -7 -36 14 -36 22 0 29 20 13 36 -13 13 -16 13 -27 0z"
       id="path48"
       style="fill:#330000" />
    <path
       d="M2675 6788 c-66 -82 -122 -123 -201 -148 -110 -33 -219 -25 -287 23 -43 29 -42 15 3 -35 111 -126 312 -122 430 10 91 101 104 114 125 128 21 14 22 16 6 49 -9 19 -18 34 -21 35 -4 0 -28 -28 -55 -62z"
       id="path50"
       style="fill:#ff9900" />
    <path
       d="M4687 6651 c-20 -170 -145 -270 -324 -259 -40 3 -73 3 -73 2 0 -2 17 -11 38 -20 24 -11 66 -17 118 -18 71 -1 87 3 139 29 85 43 119 100 124 206 4 93 -13 139 -22 60z"
       id="path52"
       style="fill:#ff9933" />
    <path
       d="M5190 6661 c-109 -33 -146 -93 -105 -170 31 -62 119 -90 164 -53 l25 19 -30 -4 c-38 -6 -84 29 -84 63 0 34 24 78 56 103 37 29 91 27 139 -5 60 -39 77 -67 88 -153 14 -106 -5 -170 -73 -244 -105 -115 -273 -139 -438 -62 -99 46 -198 175 -204 267 -3 41 -13 49 -23 19 -3 -10 -21 -32 -40 -50 -32 -29 -35 -36 -35 -89 1 -99 52 -175 172 -253 105 -67 172 -84 338 -84 138 0 148 1 201 28 75 36 152 115 192 196 30 61 32 73 32 166 0 93 -2 105 -33 167 -36 74 -80 113 -150 134 -48 15 -151 17 -192 5z"
       id="path54"
       style="fill:#ff6600" />
    <path
       d="M2086 6599 c-100 -118 -48 -301 107 -370 44 -21 68 -24 162 -24 91 0 118 4 155 21 79 37 95 62 110 166 7 51 15 98 17 105 3 7 0 13 -6 13 -6 0 -15 -10 -20 -22 -14 -35 -102 -119 -146 -139 -87 -40 -237 -18 -295 42 -56 59 -79 169 -41 203 18 17 19 46 1 46 -5 0 -24 -19 -44 -41z"
       id="path56"
       style="fill:#ff9900" />
    <path
       d="M2637 6604 c-24 -32 -99 -75 -161 -91 l-51 -13 53 5 c29 2 79 16 111 30 49 23 60 32 65 57 8 40 5 42 -17 12z"
       id="path58"
       style="fill:#993300" />
    <path
       d="M2139 6569 c-26 -50 28 -152 101 -189 54 -27 171 -30 223 -5 37 18 113 92 103 102 -3 3 -22 -9 -42 -27 -73 -64 -166 -86 -238 -56 -46 19 -111 79 -126 117 -10 22 -10 36 -2 54 14 31 -3 34 -19 4z"
       id="path60"
       style="fill:#993300" />
    <path
       d="M2180 6551 c0 -39 30 -81 78 -112 60 -38 138 -41 196 -6 l38 24 -67 6 c-72 7 -152 38 -210 83 -34 26 -35 26 -35 5z"
       id="path62"
       style="fill:#ff9933" />
    <path
       d="M4784 6342 c51 -100 149 -170 271 -193 147 -27 279 30 335 145 29 62 25 75 -12 39 -138 -130 -422 -121 -574 19 l-47 43 27 -53z"
       id="path64"
       style="fill:#ff9933" />
    <path
       d="M4095 6216 c-66 -30 -112 -78 -144 -146 -51 -112 -25 -251 65 -344 139 -143 364 -95 455 99 73 152 5 351 -136 399 -73 24 -179 21 -240 -8z m156 -222 c119 -60 114 -232 -8 -286 -144 -64 -284 77 -217 218 38 80 141 111 225 68z"
       id="path66"
       style="fill:#99ccff" />
    <path
       d="M4186 5954 c-21 -21 -20 -37 5 -60 19 -17 23 -17 47 -3 32 18 39 41 17 63 -21 20 -49 21 -69 0z"
       id="path68"
       style="fill:#330000" />
    <path
       d="M4130 5771 c0 -15 6 -21 21 -21 14 0 19 5 17 17 -5 26 -38 29 -38 4z"
       id="path70"
       style="fill:#330000" />
    <path
       d="M2575 6201 c10 -32 -25 -99 -72 -141 -80 -70 -153 -77 -210 -17 -37 38 -49 77 -33 106 6 12 7 21 1 21 -5 0 -16 3 -25 6 -10 4 -20 -5 -30 -25 -44 -84 8 -167 125 -198 57 -15 74 -15 123 -4 64 14 112 50 132 98 14 33 19 129 8 157 -9 23 -27 20 -19 -3z"
       id="path72"
       style="fill:#ff9933" />
    <path
       d="M2493 6182 c-31 -10 -43 -19 -43 -33 0 -31 -37 -61 -72 -57 -32 3 -53 28 -23 28 32 0 12 35 -22 38 -43 4 -60 -25 -38 -68 18 -35 43 -50 85 -50 38 0 65 13 107 53 28 26 62 94 51 101 -1 1 -22 -4 -45 -12z"
       id="path74"
       style="fill:#ff9933" />
    <path
       d="M2168 6163 c-49 -56 -54 -145 -13 -229 30 -61 62 -87 140 -115 127 -45 246 -11 301 86 11 20 12 20 44 -4 29 -21 32 -22 25 -5 -4 10 -15 47 -24 82 l-17 62 -25 -37 c-78 -121 -322 -122 -411 -2 -28 37 -34 100 -14 140 19 37 16 47 -6 22z"
       id="path76"
       style="fill:#ff9900" />
    <path
       d="M2403 6163 c-15 -5 -18 -43 -3 -43 12 0 32 38 23 43 -5 2 -14 2 -20 0z"
       id="path78"
       style="fill:#ff9933" />
    <path
       d="M5545 6005 c-51 -50 -21 -115 52 -115 l33 0 -20 20 c-24 24 -25 43 -4 64 36 37 97 14 125 -47 37 -83 18 -207 -38 -244 -33 -22 -107 -12 -139 18 -13 12 -26 21 -28 18 -2 -2 -6 -23 -10 -46 -5 -38 -3 -43 29 -72 87 -76 232 -61 293 32 72 109 -5 299 -150 371 -67 33 -111 34 -143 1z"
       id="path80"
       style="fill:#ff9933" />
    <path
       d="M4860 5973 c0 -3 9 -16 19 -30 23 -28 45 -121 35 -146 -11 -28 12 -19 45 18 31 36 40 76 22 104 -8 13 -121 63 -121 54z"
       id="path82"
       style="fill:#993300" />
    <path
       d="M5707 5898 c5 -44 3 -50 -30 -83 -40 -40 -66 -44 -122 -15 -22 11 -40 20 -40 20 -1 0 1 -14 3 -31 6 -38 71 -89 114 -89 45 0 65 16 84 65 18 47 15 128 -5 163 -8 12 -9 4 -4 -30z"
       id="path84"
       style="fill:#993300" />
    <path
       d="M1176 5905 c-14 -37 51 -160 140 -269 56 -68 122 -121 195 -156 46 -23 48 -23 90 -5 28 11 83 19 149 22 l105 6 -32 32 c-20 20 -33 43 -33 58 0 22 -8 27 -84 51 -154 48 -313 131 -441 231 -63 48 -79 54 -89 30z"
       id="path86"
       style="fill:#99ffff" />
    <path
       d="M2604 5847 c-12 -18 -24 -54 -28 -80 -10 -65 -40 -98 -96 -104 -64 -6 -148 37 -173 90 -9 20 -22 37 -27 37 -17 0 -11 -61 10 -96 38 -61 166 -100 243 -75 72 24 125 119 111 199 -11 59 -17 64 -40 29z"
       id="path88"
       style="fill:#ff9933" />
    <path
       d="M2681 5753 c-7 -32 -14 -62 -17 -68 -2 -6 15 -10 41 -10 25 0 45 3 45 6 0 4 -13 34 -28 68 l-28 61 -13 -57z"
       id="path90"
       style="fill:#663333" />
    <path
       d="M2505 5780 c-11 -5 -55 -9 -97 -9 -65 -1 -76 -3 -71 -16 7 -20 68 -51 115 -60 31 -6 41 -3 62 19 15 14 26 37 26 51 0 27 -4 28 -35 15z"
       id="path92"
       style="fill:#ff9933" />
    <path
       d="M2221 5715 c-3 -124 119 -233 274 -243 l70 -4 0 59 0 58 -65 -3 c-109 -6 -231 55 -265 132 l-13 31 -1 -30z"
       id="path94"
       style="fill:#ff9900" />
    <path
       d="M2634 5616 c-27 -27 -34 -42 -34 -74 0 -108 80 -224 184 -267 l36 -15 15 36 c19 45 19 54 0 54 -23 0 -82 57 -89 87 -11 41 9 47 23 6 l13 -36 14 33 c19 45 19 44 -31 71 -39 21 -48 22 -77 11 -36 -13 -41 -12 -32 12 16 41 96 38 157 -6 34 -25 34 -20 -5 44 -40 68 -53 78 -101 78 -31 0 -46 -7 -73 -34z m97 -218 c21 -26 25 -38 15 -38 -22 0 -66 59 -66 89 0 38 14 49 18 14 2 -15 17 -45 33 -65z"
       id="path96"
       style="fill:#cc6633" />
    <path
       d="M2187 5608 c-40 -22 -133 -28 -245 -17 -62 7 -115 9 -119 5 -4 -3 6 -20 22 -36 30 -31 101 -62 170 -74 123 -22 143 -40 76 -71 -49 -22 -85 -59 -78 -79 11 -27 70 -49 145 -54 40 -3 75 -9 78 -14 4 -6 -16 -30 -43 -54 -45 -38 -50 -48 -50 -83 0 -38 3 -42 41 -60 43 -20 99 -33 231 -52 223 -32 421 -187 539 -424 l42 -85 23 24 c24 26 157 96 182 96 7 0 -31 22 -87 49 -109 54 -185 115 -233 188 -35 52 -71 158 -71 206 l0 30 -25 -23 c-18 -17 -40 -25 -79 -28 -59 -5 -81 10 -44 29 27 14 78 60 78 70 0 4 -13 2 -30 -4 -22 -8 -41 -8 -75 1 -25 7 -67 12 -94 12 -59 0 -107 19 -141 55 -57 60 -14 196 49 156 12 -8 13 -12 1 -26 -11 -14 -11 -18 3 -32 31 -31 86 13 106 85 l9 30 -56 1 c-32 0 -77 7 -102 16 -66 23 -150 84 -180 131 -21 34 -29 40 -43 32z"
       id="path98"
       style="fill:#66ffff" />
    <path
       d="M5485 5566 c-22 -53 -9 -81 51 -107 59 -27 113 -18 162 25 l35 31 -65 7 c-69 6 -140 36 -157 65 -8 16 -12 13 -26 -21z"
       id="path100"
       style="fill:#993300" />
    <path
       d="M6581 5589 c-111 -14 -209 -69 -321 -179 -69 -68 -144 -165 -305 -396 -245 -351 -508 -505 -717 -419 -14 5 -11 -4 11 -47 31 -57 54 -118 71 -185 8 -32 16 -43 29 -43 25 0 67 -51 76 -90 5 -24 1 -38 -19 -65 -14 -18 -35 -36 -45 -40 -17 -5 -18 -10 -9 -35 11 -34 24 -38 32 -12 4 11 17 29 30 41 l24 23 16 -30 c31 -61 72 -40 84 44 8 54 20 60 42 18 31 -59 61 -102 75 -108 24 -9 48 40 54 112 8 87 24 87 72 2 20 -35 48 -73 61 -83 24 -18 27 -18 52 -2 29 19 34 61 16 125 -17 60 4 59 64 -3 92 -96 153 -64 117 61 -8 27 -7 34 6 39 10 4 19 1 22 -8 2 -8 19 -29 37 -46 34 -35 88 -45 112 -21 16 16 15 58 -3 101 -8 20 -15 41 -15 47 0 18 26 11 50 -15 13 -13 42 -32 66 -41 40 -15 45 -15 81 2 55 28 63 60 30 124 -22 43 -24 52 -11 57 8 3 25 -4 37 -15 28 -26 88 -52 122 -52 14 0 37 11 52 26 31 31 27 66 -17 137 -29 47 -38 72 -22 65 4 -1 33 -16 65 -32 31 -16 77 -31 102 -33 39 -5 47 -2 75 25 16 17 30 39 30 50 0 32 -28 89 -61 127 -41 46 -29 61 32 40 102 -37 240 -28 254 16 6 19 -36 89 -53 89 -15 0 -73 63 -65 70 4 4 51 3 105 -3 124 -14 195 0 233 45 14 17 24 36 22 42 -2 6 -28 21 -58 33 -30 12 -54 27 -54 33 0 7 25 12 62 15 95 5 263 91 263 135 0 28 -36 34 -157 26 -145 -8 -205 7 -405 106 -89 44 -184 88 -210 99 -61 24 -167 36 -237 28z m779 -339 c0 -23 -94 -33 -345 -35 -264 -2 -357 -11 -450 -44 -115 -40 -230 -144 -354 -316 -159 -220 -238 -296 -383 -365 -112 -53 -328 -108 -328 -83 0 6 55 24 122 42 260 67 343 131 562 434 226 312 376 376 856 365 161 -4 250 -1 313 11 4 0 7 -3 7 -9z"
       id="path102"
       style="fill:#66ffff" />
    <path
       d="M5743 5490 c-14 -37 -65 -68 -126 -76 -26 -4 -50 -11 -53 -15 -12 -20 -82 -9 -113 17 l-31 25 -25 -28 c-32 -37 -31 -47 5 -73 94 -67 248 -94 318 -57 70 38 114 157 78 212 -22 33 -39 32 -53 -5z"
       id="path104"
       style="fill:#993300" />
    <path
       d="M5442 5468 c4 -25 59 -62 85 -55 15 3 13 6 -8 15 -15 6 -35 22 -47 36 -24 32 -34 33 -30 4z"
       id="path106"
       style="fill:#993300" />
    <path
       d="M1658 5456 c-104 -28 -126 -72 -61 -125 80 -66 252 -137 403 -165 102 -20 97 -20 105 3 3 10 16 30 30 45 l23 25 -36 6 c-137 23 -185 98 -105 164 20 17 35 32 32 34 -2 2 -31 8 -65 15 -78 15 -265 14 -326 -2z"
       id="path108"
       style="fill:#ccffff" />
    <path
       d="M2826 5434 c-7 -18 18 -64 34 -64 16 0 12 47 -6 64 -19 20 -20 20 -28 0z"
       id="path110"
       style="fill:#ff9966" />
    <path
       d="M1020 5413 c-33 -6 -60 -31 -60 -55 0 -54 77 -134 174 -179 74 -34 338 -103 458 -119 76 -10 89 -10 111 5 29 18 193 55 250 55 20 0 37 5 37 10 0 6 -10 10 -21 10 -32 0 -224 66 -305 105 -81 39 -134 92 -134 133 l0 27 -117 -6 c-100 -6 -241 0 -343 15 -14 2 -36 1 -50 -1z"
       id="path112"
       style="fill:#99ffff" />
    <path
       d="M8275 5370 c-180 -63 -419 -96 -580 -80 l-79 8 -44 -37 -43 -36 58 -8 c184 -25 263 -56 263 -103 0 -33 -45 -76 -105 -101 -50 -20 -59 -35 -17 -28 15 2 63 7 107 10 177 12 373 87 476 182 63 58 94 112 108 186 8 44 7 47 -13 46 -11 0 -70 -18 -131 -39z"
       id="path114"
       style="fill:#99ffff" />
    <path
       d="M2587 5371 c-15 -74 -103 -124 -153 -86 -27 20 -32 19 -26 -10 17 -92 203 -114 238 -29 15 36 31 44 40 20 6 -17 -22 -76 -36 -76 -6 0 -10 -4 -10 -10 0 -18 57 -11 84 11 34 27 33 55 -2 73 -29 15 -84 72 -113 116 l-16 24 -6 -33z"
       id="path116"
       style="fill:#ff9900" />
    <path
       d="M5308 5332 c-16 -10 -28 -23 -28 -30 0 -29 151 -72 200 -57 18 6 13 11 -37 35 -32 15 -68 37 -80 49 -12 11 -23 21 -25 20 -2 0 -15 -8 -30 -17z"
       id="path118"
       style="fill:#ff9933" />
    <path
       d="M5015 5309 c-5 -24 0 -33 34 -64 53 -48 78 -113 61 -155 -7 -17 -20 -34 -28 -39 -27 -15 24 -24 55 -9 50 24 69 105 38 158 -8 14 -23 42 -32 62 -10 21 -25 38 -33 38 -9 0 -32 8 -52 19 l-37 18 -6 -28z"
       id="path120"
       style="fill:#993300" />
    <path
       d="M5154 5289 c-2 -4 14 -27 37 -52 53 -61 131 -98 217 -104 91 -7 143 9 183 54 l32 37 -44 12 c-35 8 -50 8 -71 -3 -33 -16 -118 -17 -172 -2 -22 6 -53 24 -69 40 -24 24 -36 29 -69 27 -22 -2 -42 -6 -44 -9z"
       id="path122"
       style="fill:#993300" />
    <path
       d="M4967 5210 c-13 -21 -14 -31 -6 -36 13 -7 39 21 39 42 0 25 -17 22 -33 -6z"
       id="path124"
       style="fill:#993300" />
    <path
       d="M2780 5205 c0 -28 -23 -79 -48 -107 -23 -27 -1 -21 35 10 26 21 34 37 39 75 6 39 4 47 -10 47 -11 0 -16 -9 -16 -25z"
       id="path126"
       style="fill:#993300" />
    <path
       d="M7417 5178 c-56 -19 -57 -21 -38 -35 13 -9 21 -25 21 -44 0 -56 -70 -100 -173 -107 -88 -6 -68 -22 28 -22 236 0 473 48 534 109 49 49 11 73 -150 95 -63 9 -125 18 -139 20 -14 3 -51 -5 -83 -16z"
       id="path128"
       style="fill:#ccffff" />
    <path
       d="M1958 5090 c-191 -28 -258 -50 -258 -85 0 -17 76 -59 90 -50 6 4 17 19 25 35 28 53 63 63 206 58 l127 -5 -26 34 c-15 18 -29 33 -32 32 -3 -1 -62 -9 -132 -19z"
       id="path130"
       style="fill:#ccffff" />
    <path
       d="M1878 5018 c-38 -13 -36 -31 2 -23 56 12 65 3 110 -128 23 -67 45 -125 49 -130 4 -4 28 0 53 9 l46 15 -24 71 c-13 40 -24 76 -24 82 1 21 30 -28 46 -78 20 -61 34 -80 35 -45 l0 24 9 -22 c5 -13 14 -23 20 -23 7 0 9 9 4 23 -15 49 -14 51 6 15 11 -21 23 -38 27 -38 6 0 -1 49 -11 85 -4 11 0 7 8 -10 8 -16 15 -40 16 -52 0 -17 6 -23 21 -23 16 0 19 4 14 18 -4 9 -24 61 -45 115 -21 54 -40 100 -41 102 -5 4 -182 25 -185 22 -2 -2 4 -16 12 -32 22 -44 56 -153 52 -167 -3 -7 -22 29 -42 79 -35 85 -41 93 -77 107 -45 18 -44 18 -81 4z"
       id="path132"
       style="fill:#9900ff" />
    <path
       d="M1610 4989 c-42 -17 -171 -47 -255 -59 -104 -14 -179 -36 -195 -55 -43 -51 189 -153 351 -155 32 0 39 6 77 59 23 33 66 79 97 102 l54 43 -34 20 c-19 11 -37 28 -41 38 -6 20 -17 21 -54 7z"
       id="path134"
       style="fill:#99ffff" />
    <path
       d="M2240 4990 c0 -5 18 -57 41 -115 l40 -105 50 0 c72 0 128 -26 145 -66 18 -43 18 -155 0 -223 -12 -49 -12 -57 4 -85 10 -17 21 -45 25 -63 5 -25 13 -33 36 -38 67 -15 216 -151 238 -218 11 -31 10 -42 -7 -79 -11 -24 -32 -55 -46 -70 -26 -27 -26 -28 -9 -62 l16 -35 68 63 c37 36 94 82 126 104 l59 40 -8 118 c-16 233 -53 352 -160 514 -127 194 -270 291 -468 320 -84 12 -150 13 -150 0z"
       id="path136"
       style="fill:#ff99ff" />
    <path
       d="M7090 4994 c0 -4 18 -27 41 -51 47 -52 49 -85 6 -117 -33 -24 -142 -34 -202 -17 -21 6 -41 9 -43 7 -2 -3 4 -16 13 -30 19 -29 114 -63 254 -91 96 -20 272 -18 293 3 22 22 -11 63 -98 117 -86 53 -187 129 -218 164 -18 20 -46 29 -46 15z"
       id="path138"
       style="fill:#ccffff" />
    <path
       d="M1822 4936 c-178 -96 -300 -280 -319 -480 l-6 -63 71 -22 c39 -12 78 -24 87 -27 13 -5 15 7 15 84 0 259 115 522 229 522 11 0 21 5 21 10 0 18 -34 10 -98 -24z"
       id="path140"
       style="fill:#ff66ff" />
    <path
       d="M7495 4950 c-22 -4 -92 -11 -155 -15 -130 -8 -130 -7 2 -75 43 -23 95 -57 114 -77 32 -32 36 -40 31 -74 l-5 -39 91 0 c206 0 468 39 570 84 59 26 121 79 115 98 -7 21 -68 37 -143 37 -124 2 -297 21 -400 47 -102 25 -149 28 -220 14z"
       id="path142"
       style="fill:#99ffff" />
    <path
       d="M1895 4918 c-108 -59 -173 -222 -183 -452 -4 -99 -2 -118 9 -114 8 4 49 20 92 38 43 17 105 36 136 41 l58 11 17 59 c15 56 15 60 -4 91 -22 37 -26 79 -8 107 9 15 3 36 -30 115 -23 53 -42 101 -42 106 0 13 -20 12 -45 -2z"
       id="path144"
       style="fill:#ff99ff" />
    <path
       d="M4637 4886 c-26 -7 -72 -30 -102 -51 -99 -67 -145 -157 -145 -279 0 -43 -3 -57 -10 -46 -5 8 -10 45 -10 83 0 37 -3 67 -6 67 -3 0 -26 -14 -50 -31 -57 -39 -173 -92 -266 -121 -113 -35 -234 -31 -416 16 l-144 36 -68 -45 c-37 -24 -85 -64 -107 -88 -48 -52 -131 -174 -165 -242 -22 -44 -43 -105 -36 -105 2 0 25 7 52 15 114 35 130 9 19 -30 -43 -14 -95 -38 -115 -51 -21 -13 -41 -24 -45 -24 -18 0 -162 -121 -230 -194 -81 -87 -256 -314 -335 -435 -61 -94 -63 -123 -9 -194 85 -112 153 -170 276 -234 104 -53 193 -85 340 -119 115 -27 130 -28 380 -29 334 0 397 11 1123 185 l132 32 2 122 c2 66 2 155 0 196 -5 157 -58 309 -102 295 -66 -21 -137 187 -96 280 16 37 8 59 -36 106 -43 46 -76 149 -48 149 6 0 10 -8 10 -17 0 -20 39 -103 49 -103 3 0 5 33 3 73 -2 60 1 78 18 106 25 40 33 37 20 -10 -13 -45 -13 -116 2 -181 6 -29 13 -55 15 -57 1 -2 12 8 24 23 30 39 135 110 204 139 69 29 157 47 228 47 l50 0 -40 43 c-75 81 -83 180 -22 243 56 58 144 70 222 30 26 -13 47 -19 47 -14 0 19 -50 106 -96 167 -88 117 -224 210 -359 246 -70 18 -94 18 -158 1z m-1037 -614 c0 -48 48 -129 112 -187 120 -108 314 -185 524 -208 62 -7 108 -16 106 -22 -5 -19 -191 -9 -282 15 -139 36 -287 112 -380 196 -68 62 -116 162 -103 214 8 30 23 24 23 -8z m-616 -1116 c40 -24 76 -63 89 -99 9 -25 -9 -57 -33 -57 -22 0 -26 10 -10 26 22 22 -1 44 -44 44 -49 0 -66 13 -66 53 0 27 -2 29 -27 22 -34 -8 -53 -23 -53 -41 0 -8 -4 -14 -10 -14 -12 0 -13 40 -2 56 26 39 98 44 156 10z"
       id="path146"
       style="fill:#cc9966" />
    <path
       d="M2198 4739 c-38 -5 -83 -15 -100 -22 l-33 -14 30 -15 c37 -20 88 -73 108 -113 8 -17 27 -68 42 -113 25 -78 27 -81 48 -71 12 7 23 13 24 14 2 1 -2 16 -7 34 -10 37 1 71 25 71 17 0 35 -31 35 -60 0 -44 18 -8 22 45 5 57 26 93 47 81 14 -9 14 -86 1 -121 -9 -24 -8 -26 12 -23 32 4 47 54 47 160 1 114 -7 134 -56 142 -82 12 -181 14 -245 5z"
       id="path148"
       style="fill:#9933cc" />
    <path
       d="M6940 4691 c0 -35 49 -93 146 -172 41 -33 83 -78 94 -98 19 -39 45 -50 205 -90 152 -38 420 -54 505 -31 120 32 81 66 -175 150 -166 55 -230 87 -285 144 -41 43 -48 46 -95 46 -77 0 -232 26 -318 53 l-77 25 0 -27z"
       id="path150"
       style="fill:#99ffff" />
    <path
       d="M2036 4664 c-11 -29 34 -104 113 -185 41 -44 79 -79 83 -79 17 0 -14 53 -67 115 -30 36 -55 73 -55 82 0 9 11 0 28 -23 29 -40 62 -72 62 -60 0 31 -66 122 -106 147 -38 23 -50 24 -58 3z"
       id="path152"
       style="fill:#9900ff" />
    <path
       d="M6880 4603 c-48 -25 -77 -28 -129 -13 -19 5 -36 8 -39 6 -2 -2 4 -18 13 -35 37 -73 224 -170 357 -186 29 -3 59 -1 67 4 20 13 -15 59 -100 127 -38 31 -81 70 -96 88 l-28 32 -45 -23z"
       id="path154"
       style="fill:#ccffff" />
    <path
       d="M3195 4592 c-63 -22 -133 -63 -164 -96 -24 -25 -24 -26 -8 -88 17 -69 36 -195 40 -273 l3 -50 14 35 c63 160 223 376 314 425 20 11 36 22 36 25 0 8 -137 40 -165 40 -11 0 -43 -8 -70 -18z"
       id="path156"
       style="fill:#ccffff" />
    <path
       d="M1049 4509 c-18 -18 -21 -29 -16 -72 8 -64 29 -94 82 -118 33 -15 49 -17 69 -9 29 11 41 32 32 55 -4 13 -10 13 -47 0 -23 -8 -48 -15 -55 -15 -21 0 -47 46 -39 70 9 28 29 25 21 -4 -8 -34 16 -53 50 -37 14 6 36 11 50 11 22 0 24 3 18 23 -31 100 -113 148 -165 96z m116 -59 c-3 -5 -10 -10 -16 -10 -5 0 -9 5 -9 10 0 6 7 10 16 10 8 0 12 -4 9 -10z"
       id="path158"
       style="fill:#cc9966" />
    <path
       d="M2045 4469 c-8 -30 -15 -69 -15 -86 0 -29 2 -30 85 -52 84 -23 119 -22 128 3 3 7 -36 52 -89 102 l-94 89 -15 -56z"
       id="path160"
       style="fill:#9966ff" />
    <path
       d="M2418 4524 c-5 -4 -8 -26 -8 -48 1 -33 3 -38 11 -23 11 19 8 83 -3 71z"
       id="path162"
       style="fill:#9966ff" />
    <path
       d="M2326 4458 c3 -13 10 -30 15 -38 7 -12 8 -10 9 7 0 28 -10 53 -22 53 -5 0 -6 -10 -2 -22z"
       id="path164"
       style="fill:#9966ff" />
    <path
       d="M5044 4470 c-34 -13 -74 -69 -74 -101 0 -113 144 -232 280 -232 65 -1 136 28 144 57 6 25 -23 88 -44 95 -12 3 -13 2 -3 -11 11 -12 9 -19 -10 -36 -29 -27 -89 -52 -125 -52 -36 0 -103 44 -137 90 -39 52 -33 100 16 125 41 22 77 18 104 -10 28 -27 33 -76 10 -95 -14 -12 -19 -7 -16 14 3 13 -20 36 -35 36 -22 0 -16 -34 9 -58 30 -29 71 -28 91 0 23 32 20 90 -6 123 -41 52 -143 80 -204 55z"
       id="path166"
       style="fill:#cc99ff" />
    <path
       d="M6690 4442 c-28 -19 -44 -23 -80 -19 -25 3 -54 8 -66 12 -18 6 -20 3 -16 -28 2 -19 -1 -44 -7 -56 -10 -18 -6 -25 38 -59 100 -79 257 -159 296 -150 17 3 15 9 -74 170 -23 42 -45 94 -49 115 l-7 39 -35 -24z"
       id="path168"
       style="fill:#ccffff" />
    <path
       d="M6766 4428 c13 -39 27 -66 102 -198 37 -65 41 -105 12 -120 -11 -6 -25 -8 -30 -5 -6 3 -10 2 -10 -3 0 -15 99 -78 175 -112 36 -16 122 -48 191 -70 263 -84 443 -99 407 -35 -5 9 -51 44 -101 78 -135 92 -373 300 -397 348 -12 21 -23 27 -64 32 -61 7 -189 57 -248 97 -24 17 -46 30 -48 30 -2 0 2 -19 11 -42z"
       id="path170"
       style="fill:#99ffff" />
    <path
       d="M614 4425 c-25 -38 -4 -79 60 -116 77 -44 176 -39 176 9 0 48 -115 132 -182 132 -29 0 -41 -6 -54 -25z m106 -34 c0 -6 -4 -13 -10 -16 -16 -10 -11 -24 16 -41 24 -16 26 -16 55 5 23 17 29 18 29 7 0 -21 -56 -49 -81 -41 -32 10 -53 50 -39 74 11 21 30 29 30 12z"
       id="path172"
       style="fill:#cc9966" />
    <path
       d="M1930 4396 c-45 -10 -176 -60 -188 -71 -2 -2 33 -22 77 -46 l80 -42 -6 -154 c-4 -89 -2 -153 3 -152 12 1 125 134 146 173 27 49 23 84 -18 128 -35 39 -35 39 -28 109 4 38 3 69 -2 68 -5 0 -34 -6 -64 -13z"
       id="path174"
       style="fill:#9966ff" />
    <path
       d="M2400 4391 c-41 -9 -85 -23 -97 -29 -28 -15 -30 -56 -7 -105 l16 -34 41 23 c23 12 69 31 104 40 37 10 63 22 63 30 0 20 -31 94 -39 93 -3 0 -40 -8 -81 -18z"
       id="path176"
       style="fill:#9900ff" />
    <path
       d="M1250 4360 c0 -100 -159 -108 -216 -11 -19 33 -18 32 -108 7 -31 -9 -41 -18 -50 -46 -13 -40 -45 -60 -98 -60 -31 0 -38 -4 -38 -19 0 -22 -35 -51 -63 -51 -9 0 -20 -8 -24 -17 -3 -10 -19 -32 -35 -49 -16 -17 -41 -64 -55 -105 -48 -136 -31 -324 46 -494 107 -236 301 -417 633 -590 l126 -66 65 83 c139 178 233 237 391 246 143 7 251 -28 373 -120 74 -56 80 -45 23 43 -46 71 -57 116 -41 167 6 21 24 97 41 171 57 258 55 294 -26 382 -33 36 -54 68 -54 82 0 13 15 41 33 63 81 98 96 123 105 173 8 45 6 57 -14 97 l-23 45 -70 4 -71 5 0 -74 c0 -61 -5 -83 -30 -134 -17 -33 -54 -87 -83 -120 -29 -32 -61 -70 -71 -82 l-19 -24 -19 24 c-18 22 -19 37 -15 155 2 71 7 139 11 150 6 17 -5 25 -76 59 -46 22 -89 39 -96 37 -8 -1 -19 4 -25 13 -19 25 -296 86 -388 86 -37 0 -39 -2 -39 -30z"
       id="path178"
       style="fill:#ff99ff" />
    <path
       d="M5095 4370 c-31 -35 10 -113 75 -140 54 -22 150 13 135 51 -5 13 -11 11 -37 -12 -41 -39 -81 -38 -119 2 -20 22 -29 41 -29 65 0 34 9 40 49 35 7 -2 10 2 6 8 -10 18 -61 12 -80 -9z"
       id="path180"
       style="fill:#cc66ff" />
    <path
       d="M549 4347 c-70 -53 -27 -120 93 -142 29 -6 40 -3 57 14 12 12 21 24 21 29 -1 4 -22 17 -48 29 -26 12 -56 36 -67 53 -22 33 -32 36 -56 17z m88 -87 c-1 -20 -8 -25 -20 -14 -7 8 3 34 13 34 5 0 8 -9 7 -20z"
       id="path182"
       style="fill:#cc9966" />
    <path
       d="M6310 4286 c0 -19 -3 -42 -6 -51 -8 -19 -55 -45 -84 -45 -21 0 -21 0 -3 -31 32 -56 170 -194 222 -223 59 -32 104 -32 109 -1 2 12 -15 66 -37 120 -22 55 -45 132 -52 172 -12 71 -12 72 -39 67 -14 -3 -44 1 -64 10 -21 9 -40 16 -42 16 -2 0 -4 -15 -4 -34z"
       id="path184"
       style="fill:#ccffff" />
    <path
       d="M2020 4299 c0 -6 10 -24 21 -41 24 -33 39 -24 39 25 0 23 -4 27 -30 27 -16 0 -30 -5 -30 -11z"
       id="path186"
       style="fill:#9966ff" />
    <path
       d="M6476 4283 c15 -68 38 -145 70 -225 19 -48 34 -100 34 -116 0 -28 -21 -55 -49 -64 -20 -6 135 -148 232 -212 150 -99 330 -176 412 -176 40 0 65 22 58 50 -9 33 -97 124 -203 210 -127 104 -177 159 -233 260 -69 127 -78 137 -158 186 -41 25 -93 61 -116 80 -23 19 -44 34 -47 34 -4 0 -4 -12 0 -27z"
       id="path188"
       style="fill:#99ffff" />
    <path
       d="M2585 4228 c39 -46 53 -84 37 -100 -15 -15 -35 1 -87 70 -32 44 -51 62 -61 58 -9 -3 -18 -6 -21 -6 -3 0 9 -16 26 -35 35 -40 37 -48 17 -64 -19 -16 -47 -1 -76 39 -22 31 -35 36 -59 21 -12 -7 -10 -14 7 -36 27 -34 49 -103 62 -191 9 -65 6 -96 -15 -145 -9 -23 20 -28 89 -17 61 9 139 44 195 87 44 33 91 107 91 141 0 52 -99 154 -197 204 -47 24 -48 20 -8 -26z"
       id="path190"
       style="fill:#9933cc" />
    <path
       d="M2520 4257 c0 -12 72 -108 77 -103 10 10 -9 44 -42 76 -19 19 -35 31 -35 27z"
       id="path192"
       style="fill:#9966ff" />
    <path
       d="M478 4236 c-10 -7 -18 -20 -18 -29 0 -21 44 -55 92 -69 35 -10 41 -9 60 10 l22 21 -50 21 c-27 12 -58 30 -69 40 -17 16 -23 16 -37 6z"
       id="path194"
       style="fill:#cc9966" />
    <path
       d="M2420 4230 c0 -5 13 -24 30 -42 26 -29 29 -31 30 -12 0 11 -10 30 -23 42 -25 24 -37 28 -37 12z"
       id="path196"
       style="fill:#9966ff" />
    <path
       d="M6138 4220 c-4 -8 -9 -27 -12 -42 -4 -18 -18 -34 -38 -44 -31 -16 -34 -16 -75 6 -24 13 -43 27 -43 31 0 5 -4 9 -10 9 -5 0 -10 -17 -10 -37 0 -20 -5 -51 -11 -68 -11 -29 -8 -40 25 -108 38 -80 115 -172 172 -208 56 -34 61 -19 39 113 -10 62 -21 169 -25 238 -3 69 -9 118 -12 110z"
       id="path198"
       style="fill:#ccffff" />
    <path
       d="M2305 4129 c-5 -50 -1 -86 18 -167 14 -57 28 -106 31 -110 4 -3 15 -1 24 5 14 8 17 26 17 89 -1 77 -23 183 -33 156 -2 -8 1 -41 8 -73 7 -33 10 -62 7 -65 -9 -10 -38 97 -42 155 -6 80 -22 85 -30 10z"
       id="path200"
       style="fill:#9900ff" />
    <path
       d="M428 4149 c-23 -13 -23 -32 0 -52 27 -25 51 -21 58 10 5 19 2 30 -11 40 -22 15 -25 16 -47 2z"
       id="path202"
       style="fill:#cc9966" />
    <path
       d="M5737 4114 c-6 -39 -41 -84 -64 -84 -17 0 -16 -20 2 -98 19 -81 54 -148 100 -194 36 -36 91 -64 98 -50 2 4 2 87 -1 184 l-4 177 -30 12 c-16 7 -41 29 -55 51 -14 21 -29 38 -33 38 -4 0 -10 -16 -13 -36z"
       id="path204"
       style="fill:#ccffff" />
    <path
       d="M6185 4070 c4 -47 13 -120 21 -164 33 -181 4 -235 -90 -171 -20 14 -39 25 -42 25 -7 0 92 -155 183 -287 123 -177 220 -263 298 -263 55 0 51 22 -74 362 -49 134 -94 270 -101 303 -11 53 -21 68 -75 125 -35 36 -77 85 -95 110 l-32 45 7 -85z"
       id="path206"
       style="fill:#99ffff" />
    <path
       d="M4945 4134 c-11 -2 -45 -9 -75 -15 -71 -14 -203 -78 -257 -124 -25 -21 -55 -62 -74 -101 l-32 -64 18 -65 c16 -61 47 -115 64 -115 5 0 11 23 14 51 7 60 45 146 87 199 39 50 145 120 234 155 170 67 292 12 284 -125 -7 -109 -108 -179 -166 -117 -22 23 -29 71 -14 93 11 16 45 32 60 27 18 -7 15 -20 -8 -26 -24 -6 -26 -30 -4 -48 14 -11 18 -10 30 6 22 29 17 73 -11 100 -80 81 -162 -65 -92 -165 50 -71 159 -76 222 -10 33 35 44 109 26 176 -14 53 -80 127 -129 147 -41 17 -143 29 -177 21z"
       id="path208"
       style="fill:#cc66ff" />
    <path
       d="M510 4095 c0 -18 -7 -28 -27 -36 -53 -21 -58 -26 -86 -83 -112 -232 -96 -509 45 -790 l40 -80 13 30 c20 48 60 74 114 74 81 0 126 -46 181 -185 43 -107 74 -168 137 -262 48 -74 56 -82 81 -78 15 2 53 7 84 10 67 7 155 49 213 101 30 27 36 37 25 41 -59 23 -225 118 -330 187 -253 169 -419 388 -481 635 -30 118 -24 275 15 375 14 38 25 70 24 71 -2 2 -13 6 -25 9 -20 6 -23 4 -23 -19z"
       id="path210"
       style="fill:#ff66ff" />
    <path
       d="M5262 4102 l-52 -3 25 -33 c57 -75 76 -196 42 -263 -67 -128 -258 -122 -318 11 -44 97 0 206 84 206 35 0 83 -24 97 -49 15 -30 12 -93 -6 -121 l-17 -25 27 26 c31 30 44 89 27 131 -14 36 -66 68 -112 68 -95 0 -252 -75 -327 -157 -57 -62 -83 -115 -89 -182 -5 -54 -3 -58 50 -137 82 -120 100 -161 101 -221 2 -87 -26 -84 -37 6 -6 48 -24 107 -32 100 -2 -3 1 -25 6 -49 7 -28 8 -111 4 -222 l-7 -178 21 0 c16 0 26 -10 37 -35 23 -57 18 -78 -36 -136 -32 -34 -48 -59 -44 -69 22 -53 44 -128 59 -196 12 -53 27 -91 47 -116 47 -61 79 -144 90 -242 6 -50 17 -106 24 -125 l14 -34 30 28 c38 36 49 27 19 -15 -35 -47 -37 -139 -5 -270 42 -169 35 -214 -41 -292 -25 -25 -43 -50 -40 -55 3 -4 26 -19 52 -33 l47 -25 24 30 c26 33 33 23 8 -13 -19 -28 -46 -28 -95 0 -45 25 -60 18 -38 -20 20 -36 54 -52 113 -52 45 0 53 4 91 44 27 28 52 68 69 113 26 68 53 104 89 116 18 7 24 -8 7 -18 -6 -4 8 -19 31 -34 22 -16 69 -61 103 -102 79 -94 170 -168 273 -220 89 -46 165 -60 195 -37 21 16 32 67 19 87 -7 11 -15 9 -43 -13 -19 -14 -42 -26 -51 -26 -20 0 -51 44 -44 62 3 8 10 2 17 -14 16 -33 26 -34 60 -8 14 11 31 20 38 20 24 0 1 21 -82 75 -95 61 -132 101 -142 151 -10 55 11 64 24 11 12 -47 54 -92 115 -123 17 -9 53 -32 80 -50 64 -46 125 -48 168 -5 33 33 36 56 12 83 -16 18 -17 17 -38 -19 -17 -32 -26 -38 -54 -38 -19 0 -36 6 -38 12 -3 9 4 11 25 7 26 -5 32 -2 46 24 9 17 16 33 16 36 0 2 -25 12 -56 21 -104 30 -204 116 -204 175 0 17 2 30 4 30 1 0 17 -22 33 -49 39 -61 99 -103 188 -129 83 -25 116 -20 150 20 32 38 32 71 0 86 -23 11 -25 10 -25 -13 0 -28 -33 -50 -58 -40 -14 5 -12 9 11 21 40 22 34 41 -15 49 -79 12 -137 36 -200 83 -70 51 -64 71 7 22 55 -38 117 -65 167 -74 35 -6 39 -4 58 26 22 36 19 49 -5 24 -9 -9 -21 -16 -26 -16 -15 0 -35 23 -43 48 -5 14 -15 22 -30 22 -12 0 -59 18 -105 40 -45 22 -89 40 -96 40 -8 0 -52 37 -98 82 -74 74 -85 89 -95 136 -19 83 -14 163 15 290 52 222 31 392 -75 596 -30 58 -69 114 -110 158 -64 68 -76 96 -28 64 14 -9 27 -16 30 -16 2 0 7 22 11 48 5 35 2 61 -11 93 -26 67 -37 72 -29 12 8 -62 -10 -74 -22 -15 -10 49 -8 147 7 312 7 74 9 176 6 225 -8 113 -26 248 -35 255 -3 3 -30 4 -59 2z m-222 -581 c0 -6 -29 -24 -65 -42 -51 -25 -80 -32 -125 -33 -95 -1 -97 20 -3 26 56 3 93 12 133 30 30 15 56 27 58 27 1 1 2 -3 2 -8z m0 -110 c0 -5 -9 -12 -19 -16 -38 -12 -176 -23 -184 -15 -15 13 10 21 96 29 45 5 88 9 95 10 6 0 12 -3 12 -8z m-100 -91 c0 -5 -18 -10 -40 -10 -22 0 -40 5 -40 10 0 6 18 10 40 10 22 0 40 -4 40 -10z m542 -1169 c11 -11 0 -12 -64 -7 -53 5 -99 2 -150 -9 -87 -18 -81 -18 -72 -4 3 6 20 17 38 25 41 19 229 15 248 -5z m-43 -57 c52 -11 35 -21 -41 -26 -40 -3 -100 -15 -133 -27 -66 -24 -79 -26 -70 -11 10 17 84 51 128 60 55 10 78 11 116 4z m285 -307 c10 -28 2 -47 -13 -31 -5 5 -11 22 -15 37 -9 37 15 32 28 -6z m-121 -49 c9 -7 20 -28 23 -47 6 -29 4 -33 -12 -29 -11 2 -20 13 -22 28 -2 14 -8 29 -13 35 -23 23 -4 33 24 13z m393 -145 c-10 -10 -19 5 -10 18 6 11 8 11 12 0 2 -7 1 -15 -2 -18z m-982 -108 c3 -8 2 -15 -3 -15 -5 0 -14 7 -21 15 -10 12 -10 15 3 15 8 0 17 -7 21 -15z m902 -32 c-10 -10 -19 5 -10 18 6 11 8 11 12 0 2 -7 1 -15 -2 -18z m-122 -98 c-6 -16 -24 -21 -24 -7 0 11 11 22 21 22 5 0 6 -7 3 -15z"
       id="path212"
       style="fill:#cc9966" />
    <path
       d="M5560 4097 c0 -21 -44 -57 -68 -57 -12 0 -32 10 -43 21 -22 22 -24 22 -48 -21 -12 -21 30 -152 68 -212 32 -51 73 -83 94 -75 8 3 17 28 20 59 4 29 13 91 22 137 l15 85 -25 38 c-27 40 -35 46 -35 25z"
       id="path214"
       style="fill:#ccffff" />
    <path
       d="M2223 3989 c-24 -33 -43 -68 -43 -79 0 -26 130 -112 194 -128 25 -7 66 -17 90 -23 59 -15 85 -44 95 -108 10 -62 18 -72 37 -47 24 33 16 68 -32 147 -22 35 -24 36 -98 42 -129 11 -153 35 -181 179 -7 38 -15 71 -16 72 -2 2 -23 -23 -46 -55z"
       id="path216"
       style="fill:#9900ff" />
    <path
       d="M5902 3835 l3 -180 -38 1 c-78 3 -175 103 -213 221 l-18 58 -12 -90 -13 -89 78 -161 c114 -233 221 -382 267 -373 33 6 38 58 18 190 -13 87 -19 179 -19 313 0 188 -1 190 -28 240 l-28 50 3 -180z"
       id="path218"
       style="fill:#99ffff" />
    <path
       d="M5388 3740 c-5 -183 6 -243 58 -291 25 -24 26 -24 40 -5 10 15 14 54 14 154 l0 134 -35 42 c-19 23 -43 62 -53 86 l-19 45 -5 -165z"
       id="path220"
       style="fill:#99ffff" />
    <path
       d="M2701 3866 c-9 -11 -7 -22 10 -51 18 -31 24 -34 31 -21 6 10 5 29 -3 51 -14 38 -21 42 -38 21z"
       id="path222"
       style="fill:#9966ff" />
    <path
       d="M2623 3822 c-24 -15 -43 -33 -43 -40 0 -7 12 -36 26 -65 l27 -51 42 48 42 49 -21 43 c-11 24 -23 43 -26 43 -3 0 -24 -13 -47 -27z"
       id="path224"
       style="fill:#9966ff" />
    <path
       d="M2282 3752 c14 -52 4 -169 -27 -287 -36 -144 -35 -146 32 -85 76 69 114 88 153 73 29 -11 31 -9 70 45 22 31 38 64 35 72 -3 8 -9 40 -15 70 -13 69 -30 83 -127 105 -43 10 -90 23 -105 31 l-26 14 10 -38z"
       id="path226"
       style="fill:#ff99ff" />
    <path
       d="M2340 3388 l-45 -33 35 -5 c35 -6 35 -6 10 -17 -14 -6 -45 -17 -70 -24 -29 -9 -50 -23 -59 -40 -13 -24 -13 -31 3 -73 25 -65 124 -196 215 -286 115 -112 344 -280 564 -414 134 -81 164 -102 155 -112 -15 -15 -107 33 -267 139 -245 162 -386 269 -481 366 -49 50 -76 72 -64 52 33 -52 228 -262 354 -382 127 -121 137 -149 36 -104 -199 88 -357 246 -381 381 -13 67 -27 75 -21 11 6 -78 47 -161 151 -313 117 -168 147 -236 153 -336 5 -90 -12 -109 -23 -25 -16 112 -43 174 -151 334 l-106 157 7 -50 c14 -104 37 -219 51 -252 8 -19 14 -44 14 -55 0 -19 -1 -19 -19 -3 -25 22 -54 147 -76 319 -9 71 -20 138 -24 149 -23 64 -28 -381 -6 -562 24 -198 57 -268 164 -342 91 -63 340 -142 550 -173 58 -9 116 -18 127 -20 18 -4 28 10 73 102 90 186 173 280 293 333 42 18 46 23 51 65 11 78 94 304 103 280 3 -6 -16 -78 -41 -159 -25 -82 -43 -151 -40 -154 3 -3 10 10 17 29 45 134 269 472 294 446 3 -3 -9 -25 -28 -49 -65 -80 -136 -193 -192 -305 -47 -96 -53 -113 -38 -113 11 0 28 16 42 41 30 54 219 308 273 366 50 55 116 105 128 97 5 -3 -16 -29 -48 -57 -31 -29 -111 -125 -177 -214 -131 -175 -163 -223 -147 -223 6 0 34 35 62 78 68 100 204 237 297 297 41 26 110 61 155 78 73 27 94 31 197 31 123 1 180 -13 278 -71 39 -22 43 -23 38 -7 -15 51 -36 140 -36 156 0 28 -15 21 -53 -22 -32 -37 -57 -51 -57 -31 0 5 7 14 15 21 9 7 25 26 36 41 l19 27 -52 -29 c-50 -27 -118 -39 -118 -20 0 5 24 19 53 31 111 48 227 142 227 185 -1 50 -7 50 -191 7 -96 -23 -250 -59 -344 -81 -407 -95 -562 -115 -830 -108 -262 7 -435 42 -625 126 -163 71 -268 159 -369 307 -30 43 -61 83 -68 87 -21 13 -15 24 18 37 37 16 82 72 77 97 -5 30 -41 26 -88 -9z m156 -374 c186 -174 443 -276 766 -305 249 -22 432 3 1033 141 299 69 442 96 452 87 12 -13 -10 -25 -56 -31 -28 -4 -132 -27 -233 -52 -578 -143 -890 -192 -1138 -181 -335 16 -662 137 -823 306 -48 50 -68 81 -54 81 2 0 25 -21 53 -46z"
       id="path228"
       style="fill:#cc9966" />
    <path
       d="M545 3155 c-35 -34 -34 -96 3 -166 46 -88 105 -115 155 -71 26 23 30 9 6 -21 -15 -20 -30 -27 -55 -27 -19 0 -33 -4 -29 -9 8 -13 -23 -41 -45 -41 -10 0 -39 25 -65 55 -49 57 -72 70 -105 60 -26 -8 -34 -43 -21 -92 15 -54 50 -86 92 -81 40 4 49 -14 14 -30 -37 -17 -89 7 -116 53 -34 56 -89 38 -89 -30 0 -42 22 -69 85 -103 34 -18 51 -34 53 -49 4 -25 -12 -31 -25 -9 -8 13 -88 56 -104 56 -5 0 -11 -16 -15 -35 -9 -47 15 -81 65 -95 21 -5 44 -17 51 -25 20 -24 24 -19 38 38 21 90 67 170 133 231 87 81 107 71 25 -13 -104 -108 -146 -218 -146 -382 0 -90 2 -98 31 -142 56 -86 100 -113 240 -151 74 -21 114 -49 178 -129 69 -86 134 -120 239 -126 148 -7 236 71 281 252 18 70 35 93 47 64 3 -9 -1 -42 -9 -74 -9 -32 -13 -60 -11 -62 2 -3 42 -7 88 -9 68 -4 99 0 158 18 260 78 383 262 377 567 -1 57 1 106 4 109 3 3 10 -11 16 -33 15 -53 13 -177 -3 -248 -8 -33 -13 -61 -11 -63 2 -2 12 22 24 52 22 59 41 192 41 288 0 31 4 59 9 63 16 9 23 -116 11 -208 -16 -126 -56 -225 -126 -309 -20 -24 -21 -32 -12 -65 16 -60 44 -108 80 -138 45 -38 124 -74 182 -81 l48 -7 -17 32 c-60 118 -81 352 -65 726 l13 269 -56 53 c-113 104 -279 159 -413 136 -140 -24 -223 -87 -374 -282 -101 -131 -189 -187 -335 -214 l-68 -13 68 -62 c37 -34 112 -91 166 -127 88 -59 121 -95 88 -95 -19 0 -172 106 -253 176 -130 111 -248 276 -307 429 -48 123 -77 174 -112 195 -45 28 -92 26 -122 -5z m153 -599 c-51 -50 -70 -99 -80 -205 -5 -52 -11 -97 -13 -100 -28 -28 -25 135 5 212 23 61 79 127 107 127 11 0 5 -10 -19 -34z m53 -156 c6 -19 31 -60 55 -91 47 -61 48 -80 3 -48 -49 35 -81 101 -85 177 -3 57 -2 62 6 32 5 -19 15 -51 21 -70z m799 82 c0 -14 -63 -33 -74 -22 -8 8 -6 14 4 20 18 12 70 13 70 2z m-590 -304 c-32 -74 -25 -139 23 -217 54 -87 47 -110 -16 -47 -81 81 -89 237 -16 304 32 31 35 20 9 -40z"
       id="path230"
       style="fill:#cc9966" />
    <path
       d="M2375 2810 c31 -88 111 -176 234 -255 38 -25 73 -45 77 -45 4 0 -41 51 -102 113 -60 61 -133 138 -162 170 -29 31 -55 57 -57 57 -2 0 2 -18 10 -40z"
       id="path232"
       style="fill:#cc6633" />
    <path
       d="M4300 2604 c-90 -19 -232 -92 -313 -162 -70 -60 -158 -156 -215 -236 l-33 -46 103 5 c223 12 264 26 403 135 133 104 223 134 276 91 28 -22 20 -38 -9 -22 -58 31 -130 1 -272 -113 -124 -100 -167 -114 -390 -126 -188 -11 -268 -27 -352 -72 -108 -57 -244 -229 -310 -390 -32 -81 -65 -138 -79 -138 -13 0 -11 15 6 57 18 42 16 46 -18 38 -54 -14 -108 -75 -159 -181 -66 -137 -106 -181 -220 -239 -51 -27 -113 -68 -138 -91 -111 -103 -154 -310 -83 -395 33 -39 60 -49 96 -37 33 12 41 26 57 101 6 33 21 68 32 79 19 19 21 19 39 2 10 -9 19 -30 19 -47 0 -37 -46 -122 -76 -142 -19 -12 -24 -25 -24 -55 0 -53 27 -80 79 -80 53 0 77 22 120 111 30 63 40 74 64 77 l27 3 -23 -44 c-13 -24 -33 -53 -45 -65 -45 -45 -16 -97 46 -86 79 14 115 47 127 116 4 21 11 38 16 38 17 0 9 -75 -11 -108 -11 -18 -18 -37 -15 -43 9 -14 52 -11 84 6 39 20 98 91 106 126 4 16 11 26 17 23 10 -7 7 -56 -7 -86 -10 -24 11 -23 50 1 61 36 129 209 142 357 7 84 -4 201 -20 214 -7 6 -42 33 -79 61 -65 49 -81 69 -57 69 6 0 50 -26 97 -58 148 -99 299 -131 519 -112 394 35 616 170 808 492 58 97 137 277 160 363 54 202 14 376 -113 497 -119 114 -257 150 -432 112z m313 -516 c-4 -68 -2 -96 16 -152 23 -75 20 -94 -10 -58 -26 33 -39 86 -39 160 0 55 20 132 34 132 3 0 2 -37 -1 -82z m-1395 -864 c54 -47 92 -107 92 -144 0 -30 -14 -18 -49 44 -16 30 -51 71 -76 92 -25 21 -45 42 -45 46 0 19 29 5 78 -38z m-12 -77 c9 -16 14 -31 11 -33 -4 -5 -57 71 -57 82 0 13 32 -20 46 -49z m-656 -263 c0 -3 -9 -17 -20 -31 -24 -31 -26 -78 -4 -87 9 -3 33 -6 55 -6 52 0 50 -17 -3 -23 -83 -9 -113 46 -68 121 17 28 40 43 40 26z m67 -21 c3 -7 -3 -9 -16 -6 -12 3 -21 10 -21 15 0 13 32 6 37 -9z m103 -213 c0 -5 -7 -10 -15 -10 -8 0 -15 -7 -15 -16 0 -24 19 -54 35 -54 8 0 15 -4 15 -10 0 -17 -29 -11 -50 10 -22 22 -26 60 -8 78 15 15 38 16 38 2z m60 -25 c14 -16 10 -18 -14 -9 -9 3 -16 10 -16 15 0 14 16 11 30 -6z"
       id="path234"
       style="fill:#cc9966" />
    <path
       d="M320 2452 c0 -56 34 -96 73 -87 22 6 27 13 27 39 0 37 -30 71 -72 81 -27 7 -28 6 -28 -33z"
       id="path236"
       style="fill:#cc9966" />
    <path
       d="M6002 1758 c7 -13 14 -25 15 -27 2 -2 12 4 23 14 25 22 17 35 -21 35 -27 0 -28 -1 -17 -22z"
       id="path238"
       style="fill:#cc6633" />
    <path
       d="M2692 823 c-10 -19 -23 -103 -16 -103 7 0 44 79 44 94 0 23 -18 29 -28 9z"
       id="path240"
       style="fill:none" />
  </g>
</svg>
