<?xml version="1.0" standalone="no"?>
<!DOCTYPE svg PUBLIC "-//W3C//DTD SVG 20010904//EN"
 "http://www.w3.org/TR/2001/REC-SVG-20010904/DTD/svg10.dtd">
<svg version="1.0" xmlns="http://www.w3.org/2000/svg"
 width="850.000000pt" height="850.000000pt" viewBox="0 0 850.000000 850.000000"
 preserveAspectRatio="xMidYMid meet">
<metadata>
Created by potrace 1.14, written by Peter Selinger 2001-2017
</metadata>
<g transform="translate(0.000000,850.000000) scale(0.100000,-0.100000)"
fill="#000000" stroke="none">
<path d="M6359 8364 c-122 -124 -247 -219 -577 -443 -134 -90 -277 -195 -318
-234 -81 -76 -162 -183 -244 -322 -59 -102 -58 -100 -66 -93 -3 3 6 29 21 58
20 40 26 64 24 108 -2 57 13 98 57 160 15 20 15 22 1 22 -9 0 -32 -10 -52 -21
l-35 -21 6 54 c4 38 2 64 -10 92 -18 43 -21 86 -6 86 27 0 1 91 -34 120 -15
11 -15 14 1 26 16 12 16 15 3 23 -8 6 -38 13 -67 17 -46 5 -52 9 -50 28 2 19
-2 21 -38 18 -33 -2 -56 7 -130 49 -134 77 -207 102 -280 96 -74 -6 -166 -40
-209 -77 -31 -28 -32 -28 -86 -14 -76 20 -153 17 -240 -7 -147 -40 -267 -122
-341 -231 -33 -48 -39 -64 -34 -88 8 -35 5 -36 -70 -10 -87 30 -132 25 -99
-11 14 -15 12 -18 -30 -32 -57 -20 -136 -73 -136 -93 0 -11 10 -13 54 -8 63 8
72 -1 49 -47 -9 -18 -18 -54 -21 -81 -4 -40 -2 -48 12 -48 12 0 16 -10 16 -38
0 -21 9 -56 21 -77 11 -22 22 -60 25 -83 5 -48 24 -91 48 -111 34 -28 17 -34
-84 -28 -78 5 -100 3 -100 -7 0 -12 152 -127 231 -174 31 -19 37 -29 42 -67 4
-24 4 -58 1 -74 -5 -21 0 -41 15 -66 25 -42 25 -45 9 -45 -7 1 -52 49 -100
108 -135 165 -303 352 -366 406 -72 62 -180 135 -257 173 -125 63 -222 90
-450 122 -328 47 -407 70 -580 167 -109 61 -165 84 -201 84 -32 0 -30 -10 7
-46 47 -44 113 -191 157 -354 70 -252 216 -568 338 -726 141 -185 350 -313
613 -376 107 -25 276 -26 460 -3 144 19 237 12 308 -22 30 -14 33 -20 33 -57
0 -23 9 -59 21 -80 19 -36 19 -39 2 -52 -42 -31 -395 -204 -478 -234 -247 -88
-319 -117 -421 -170 -142 -74 -196 -111 -314 -212 -139 -121 -185 -173 -230
-260 -48 -92 -70 -182 -70 -294 0 -85 27 -212 55 -261 9 -15 14 -21 12 -13
-29 99 -39 180 -35 293 4 105 8 131 32 190 16 37 33 67 39 67 6 0 8 2 5 5 -3
3 5 18 17 33 13 15 47 56 77 92 69 82 132 126 264 184 87 38 325 126 341 126
2 0 -31 -28 -74 -62 -183 -145 -388 -405 -443 -560 -39 -111 -51 -281 -29
-404 20 -117 78 -269 129 -342 59 -84 153 -171 227 -209 l55 -28 -6 -41 c-10
-75 -49 -177 -133 -343 -46 -90 -81 -166 -78 -169 3 -3 31 6 63 21 31 14 100
44 154 67 122 52 281 156 395 257 106 94 120 109 180 193 26 36 49 68 53 73 3
4 21 -11 39 -33 l32 -40 -36 -73 c-36 -77 -43 -107 -24 -107 15 0 99 -68 99
-80 0 -5 -32 -49 -71 -97 -99 -124 -195 -269 -219 -333 -42 -112 -116 -245
-142 -257 -30 -15 -57 -53 -73 -103 -6 -19 -20 -50 -30 -69 -136 -232 -259
-422 -291 -445 -28 -20 -163 -96 -171 -96 -3 0 12 23 32 51 20 28 34 57 31 65
-4 11 -39 -15 -121 -87 -106 -93 -140 -133 -222 -265 -10 -16 -12 -8 -12 49
-1 54 -4 67 -17 67 -8 0 -20 -15 -26 -32 -6 -18 -38 -85 -70 -148 -84 -165
-101 -227 -95 -347 2 -54 8 -108 12 -121 7 -21 5 -22 -18 -17 -14 4 -60 0
-101 -9 -115 -24 -222 -29 -322 -17 -50 6 -144 14 -210 17 -154 8 -193 -2
-258 -67 -47 -48 -49 -50 -42 -95 6 -45 38 -104 56 -104 6 0 45 -32 87 -71
223 -203 424 -308 722 -374 153 -34 181 -33 219 6 16 16 36 45 45 62 8 18 48
98 88 179 70 143 73 150 73 223 1 41 5 75 10 75 5 0 48 19 95 41 104 51 174
118 220 211 19 37 44 74 57 83 12 8 48 46 78 84 49 62 63 72 127 97 47 19 66
30 54 34 -15 5 -15 7 2 22 44 40 133 70 225 77 51 3 93 11 95 17 4 11 -108 59
-165 70 -45 9 -35 19 113 109 68 42 128 82 135 89 23 29 -10 25 -75 -9 -95
-50 -106 -44 -41 20 52 51 70 85 46 85 -5 0 -31 -16 -56 -35 -59 -45 -125 -84
-149 -88 -11 -1 -26 -6 -33 -11 -7 -4 -54 -19 -104 -32 -92 -25 -162 -59 -251
-121 -27 -19 -51 -33 -53 -30 -2 2 5 30 16 62 11 32 20 64 20 72 0 28 -26 11
-48 -31 -13 -24 -67 -85 -120 -135 -54 -51 -127 -121 -164 -156 -93 -88 -90
-72 13 65 142 191 518 765 570 873 13 26 27 47 31 47 4 0 36 -20 70 -45 36
-27 86 -53 121 -63 49 -14 62 -23 75 -49 14 -29 32 -43 75 -57 15 -5 16 -9 6
-28 -19 -37 -148 -228 -197 -291 -24 -32 -42 -60 -39 -63 9 -9 127 138 198
246 101 155 90 143 122 131 36 -14 112 -14 138 -1 12 7 19 21 19 38 0 21 7 30
30 39 36 14 48 39 30 66 -9 15 -9 22 -2 25 30 10 63 46 60 66 -4 31 -35 31
-127 -3 l-82 -30 21 32 c11 18 39 68 62 112 31 62 49 86 77 102 32 18 202 164
340 291 42 39 49 42 86 37 21 -3 64 -19 95 -35 145 -77 364 -107 477 -65 61
22 74 16 97 -48 9 -23 48 -132 87 -242 39 -110 80 -217 90 -238 15 -28 17 -45
11 -69 l-8 -31 -55 62 c-31 33 -62 61 -69 61 -29 0 21 -150 68 -202 14 -16 13
-20 -1 -36 -23 -25 -21 -39 10 -81 15 -20 26 -44 25 -54 -8 -44 8 -67 66 -96
31 -16 75 -39 98 -50 l41 -22 43 -147 c23 -81 67 -223 97 -317 30 -93 79 -264
109 -380 30 -115 61 -232 69 -259 16 -54 14 -66 -9 -47 -21 17 -34 62 -45 159
-12 98 -56 208 -108 274 -46 57 -69 63 -59 16 4 -18 10 -49 12 -68 5 -33 4
-32 -25 20 -34 60 -77 103 -140 138 -36 21 -42 21 -47 7 -4 -9 0 -23 9 -33 8
-9 20 -28 27 -41 7 -13 -21 10 -61 51 -133 134 -212 157 -424 127 -77 -12
-155 -18 -172 -16 -50 9 -43 -22 15 -60 58 -39 94 -56 169 -84 32 -12 96 -45
143 -73 l85 -51 -74 -5 c-41 -3 -76 -10 -78 -15 -3 -10 70 -45 179 -85 53 -19
114 -58 105 -66 -2 -2 -34 9 -72 25 -38 16 -73 27 -77 25 -15 -9 -8 -33 11
-39 19 -6 56 -44 139 -143 24 -29 88 -84 143 -123 100 -71 271 -159 308 -159
11 0 22 -3 24 -7 8 -12 -62 -542 -73 -563 -13 -24 -13 -81 -1 -113 13 -34 76
-75 192 -125 88 -38 104 -42 180 -42 191 0 335 71 354 173 14 74 -11 227 -65
391 -43 132 -104 303 -135 379 -5 13 -2 17 14 17 59 0 159 83 233 194 50 74
175 228 194 239 8 4 14 15 14 24 0 13 -9 15 -52 10 -29 -3 -64 -8 -78 -12
l-25 -7 25 20 c14 12 60 39 103 62 43 23 76 47 74 53 -7 22 -103 20 -153 -3
-26 -11 -48 -19 -50 -17 -2 1 15 43 37 92 104 233 119 361 25 215 -21 -33 -39
-60 -41 -60 -1 0 0 30 2 68 8 109 -36 247 -101 320 -56 62 -226 137 -226 100
0 -8 9 -23 21 -34 23 -21 122 -169 133 -197 5 -17 3 -17 -28 2 -34 22 -76 28
-76 12 0 -5 18 -47 41 -93 39 -80 40 -86 36 -161 -4 -92 -20 -119 -36 -61 -13
47 -39 86 -54 81 -7 -2 -12 -40 -14 -100 -3 -85 -9 -115 -52 -244 -27 -82 -55
-185 -62 -230 -7 -46 -14 -81 -16 -80 -6 7 -35 173 -64 377 -17 118 -43 285
-59 370 -51 274 -79 443 -84 508 -3 34 -14 76 -23 94 -10 17 -23 40 -30 52
-11 19 -95 296 -114 376 -5 19 -11 115 -15 212 l-7 177 29 11 c51 20 64 39 58
81 -6 35 -4 39 32 64 89 61 205 129 289 170 170 83 245 185 136 185 -21 0
-140 130 -198 215 -45 66 -103 168 -103 179 0 4 26 -15 59 -42 119 -99 194
-137 416 -211 116 -38 252 -87 304 -110 52 -23 146 -62 210 -88 111 -43 206
-93 261 -134 54 -43 140 -133 155 -165 9 -19 20 -32 26 -29 16 10 10 113 -11
193 -53 207 -120 323 -294 511 -48 51 -100 113 -117 138 -53 76 -155 301 -224
493 -85 233 -144 348 -242 475 -98 125 -181 195 -326 274 -63 34 -121 69 -130
79 -31 35 -139 255 -236 480 -55 128 -114 253 -131 278 -16 25 -30 47 -30 50
0 2 33 4 73 4 91 0 172 28 308 105 193 109 380 278 506 454 93 130 142 229
194 391 35 112 44 129 82 164 23 21 35 36 27 34 -61 -20 -55 -58 -54 360 1
253 5 399 14 445 7 37 10 70 8 72 -2 2 -51 -43 -109 -101z m62 -60 c-6 -44
-10 -219 -9 -394 0 -179 -3 -328 -9 -345 -6 -22 -24 -38 -63 -59 -75 -41 -317
-128 -346 -124 -24 3 -23 4 36 142 33 77 58 141 56 143 -8 8 -103 -192 -116
-244 l-13 -51 -85 -17 c-46 -9 -86 -14 -89 -11 -3 3 29 22 71 43 42 20 76 43
76 50 0 18 -10 17 -104 -11 -44 -14 -121 -36 -171 -51 -114 -34 -193 -76 -258
-137 -28 -26 -52 -48 -53 -48 -2 0 -4 10 -6 22 -6 41 -27 29 -68 -42 -23 -40
-61 -90 -84 -112 l-41 -41 -8 52 c-10 73 14 139 106 289 167 269 227 327 592
566 235 155 422 296 514 390 41 41 77 74 79 72 2 -2 -2 -39 -7 -82z m-1691
-186 c41 -19 83 -42 94 -50 17 -14 18 -16 2 -47 l-17 -32 -42 34 c-23 18 -48
37 -55 41 -17 10 -72 26 -72 20 0 -2 25 -20 55 -39 59 -38 67 -52 33 -57 -29
-4 -35 -28 -9 -35 24 -6 27 -25 6 -43 -11 -9 -21 -7 -47 13 -80 60 -168 87
-288 88 -279 4 -261 5 -323 -23 -66 -31 -155 -115 -212 -201 -40 -61 -54 -68
-37 -18 14 41 0 48 -43 21 -32 -20 -35 -20 -60 -4 -14 9 -25 20 -25 24 0 4 13
25 28 46 118 163 368 258 552 210 53 -14 56 -14 80 9 58 53 152 86 240 82 51
-2 81 -10 140 -39z m233 -128 c-5 -18 0 -20 47 -20 41 0 51 -3 47 -14 -4 -9 5
-21 21 -31 52 -33 82 -88 43 -78 -27 7 -34 -13 -15 -42 18 -27 24 -98 10 -112
-5 -4 -11 -2 -13 5 -7 19 -43 15 -43 -6 0 -10 -7 -39 -16 -65 l-16 -47 -18 23
c-10 12 -20 20 -22 17 -22 -26 -58 -104 -58 -124 0 -48 -17 -35 -29 22 -20 90
-90 259 -127 308 -19 24 -34 48 -34 53 0 5 14 20 31 32 30 21 31 23 13 36 -16
12 -15 13 14 13 21 0 35 6 42 21 10 19 13 19 23 5 11 -15 16 -15 52 4 49 25
54 25 48 0z m-688 -1 c28 -5 97 -10 155 -12 99 -2 109 -4 170 -37 123 -66 183
-150 251 -350 44 -131 50 -252 19 -404 -32 -159 -38 -167 -39 -46 0 114 -12
212 -37 299 -13 44 -13 55 -2 62 10 7 9 9 -4 9 -10 0 -32 29 -58 76 -44 80
-159 209 -167 187 -2 -7 7 -27 20 -45 34 -45 61 -102 83 -171 16 -50 16 -60 4
-68 -27 -16 -38 -9 -71 44 -17 28 -46 70 -64 92 -22 28 -34 55 -39 90 -11 88
-23 69 -28 -47 -4 -73 -11 -127 -22 -153 -19 -44 -167 -267 -174 -261 -5 6 26
142 59 261 16 55 29 110 29 122 0 44 -19 22 -39 -45 -26 -85 -63 -144 -130
-204 -81 -73 -87 -60 -25 48 58 100 114 217 114 237 0 7 -17 -8 -38 -33 -20
-25 -99 -110 -175 -189 -76 -79 -142 -153 -147 -165 -9 -21 -9 -21 -9 0 -2 63
84 254 160 355 22 30 45 62 51 72 21 40 -42 -15 -87 -75 -62 -83 -121 -207
-146 -308 -19 -73 -21 -103 -16 -215 4 -74 15 -169 26 -219 12 -49 19 -91 17
-93 -9 -9 -76 126 -97 197 -44 142 -21 403 51 574 17 39 28 72 25 74 -3 3 -20
-28 -40 -69 -53 -112 -76 -214 -82 -364 -5 -110 -3 -141 15 -205 22 -84 39
-241 24 -225 -16 16 -79 186 -91 243 -16 76 -14 317 3 399 28 128 85 254 167
364 87 118 156 171 254 195 61 15 67 15 130 3z m-555 -241 c16 -10 24 -10 40
0 19 11 20 10 20 -33 0 -27 -11 -72 -26 -108 -52 -123 -66 -179 -71 -295 -5
-93 -8 -112 -20 -108 -8 4 -23 6 -34 6 -22 0 -59 65 -59 104 0 38 -18 41 -38
7 -9 -17 -20 -31 -23 -31 -3 0 -16 18 -28 41 -23 40 -25 79 -6 138 7 22 6 23
-18 19 -35 -7 -35 12 -2 78 14 27 23 54 21 60 -2 6 -24 15 -48 19 l-43 7 50
24 c28 13 65 24 83 24 26 0 32 4 32 21 0 14 5 19 14 16 55 -21 98 -27 112 -16
8 6 14 18 14 25 0 17 5 17 30 2z m-1891 -102 c222 -128 277 -144 671 -201 96
-14 198 -33 225 -42 201 -65 358 -166 512 -327 133 -138 375 -427 388 -464 6
-15 16 -36 22 -48 9 -16 9 -24 1 -32 -19 -19 -26 -14 -33 21 -13 59 -75 168
-122 213 -48 45 -122 86 -180 99 -27 5 -38 17 -64 66 -65 121 -175 215 -321
274 -125 51 -157 53 -43 3 165 -72 263 -150 339 -270 20 -31 36 -59 36 -61 0
-2 -28 -7 -61 -10 -80 -7 -185 -59 -216 -106 -31 -47 -30 -113 2 -177 14 -27
25 -50 25 -51 0 -9 -103 0 -196 17 -123 23 -187 42 -257 77 -27 13 -51 22 -54
20 -2 -3 33 -24 79 -47 64 -32 112 -46 213 -65 72 -13 152 -25 178 -25 42 0
57 -6 105 -44 32 -24 72 -51 90 -60 18 -9 30 -21 27 -26 -3 -6 1 -7 9 -4 8 3
37 -1 63 -10 127 -40 211 -33 276 24 55 49 85 53 79 11 -2 -16 1 -38 7 -50 9
-17 9 -26 -4 -43 -8 -13 -15 -38 -15 -56 0 -29 -3 -33 -17 -27 -105 44 -188
52 -353 31 -246 -31 -398 -19 -589 50 -140 50 -240 113 -352 224 -135 134
-210 256 -328 538 -53 124 -117 322 -105 322 2 0 61 -48 132 -106 160 -134
332 -248 536 -358 148 -79 284 -141 292 -134 2 2 -70 42 -159 88 -297 153
-484 273 -710 455 -69 55 -92 81 -110 120 -12 27 -43 91 -68 142 -25 51 -41
93 -36 93 6 0 44 -20 86 -44z m3277 -3 c13 -17 15 -17 30 2 16 19 16 19 10
-14 -3 -18 -6 -40 -6 -48 0 -15 -163 -97 -180 -91 -6 2 0 19 12 38 17 27 23
31 26 18 10 -46 50 -7 73 70 14 47 16 49 35 25z m-529 -117 l36 -59 -29 -24
c-16 -13 -54 -36 -84 -51 -52 -25 -53 -27 -26 -30 19 -2 47 8 86 32 32 20 62
36 67 36 8 0 33 -42 33 -54 0 -2 -17 -6 -37 -9 -77 -13 -167 -76 -136 -95 7
-4 16 -27 22 -51 13 -59 59 -105 104 -105 43 0 93 30 79 47 -13 16 -3 67 14
74 8 3 14 15 14 27 0 30 9 37 31 25 26 -13 24 0 -5 30 -18 20 -25 41 -29 94
-2 37 -3 67 -2 67 2 0 10 3 18 6 29 11 68 -165 71 -321 1 -76 -1 -84 -38 -149
-39 -69 -141 -202 -218 -284 -39 -42 -41 -43 -86 -36 -47 7 -182 43 -234 63
-40 15 -138 117 -197 204 -29 44 -69 89 -91 103 -39 26 -40 28 -40 83 0 46 6
66 30 104 28 45 32 47 75 47 l45 0 -20 -32 c-11 -18 -20 -40 -20 -48 0 -8 -14
-23 -30 -32 -39 -22 -42 -52 -4 -38 34 13 34 13 34 -11 0 -22 48 -118 65 -132
9 -7 68 -2 108 9 38 11 8 222 -32 225 -9 1 -32 1 -51 0 l-35 -3 28 30 c15 16
46 35 68 41 26 8 39 17 36 25 -3 8 15 33 40 57 31 31 44 38 40 24 -41 -145
-67 -313 -49 -301 7 4 12 13 12 20 0 16 77 136 161 252 60 82 89 146 89 194 0
59 30 41 87 -54z m153 -3 c0 -28 -28 -11 -33 20 -3 17 -8 41 -12 52 -4 11 5 2
19 -20 14 -22 26 -46 26 -52z m428 -34 c-80 -134 -162 -247 -203 -283 -76 -64
-70 -25 9 57 46 47 46 65 0 38 -44 -26 -44 -26 -44 4 0 30 32 65 61 65 15 0
19 5 15 18 -4 12 8 26 47 52 36 23 47 35 35 38 -20 4 -93 -41 -130 -81 l-28
-29 0 24 c0 13 6 32 13 41 14 19 251 128 255 117 1 -4 -12 -32 -30 -61z m-998
-6 c-88 -151 -82 -143 -124 -143 l-39 0 19 23 c20 24 157 156 162 157 2 0 -6
-17 -18 -37z m2195 -105 c-117 -353 -393 -662 -751 -840 l-126 -63 -107 1
c-97 1 -110 3 -153 28 -52 30 -56 37 -33 56 12 10 21 10 41 1 59 -26 162 0
237 62 33 27 54 35 102 41 63 7 163 48 205 85 19 16 8 13 -52 -14 -71 -32
-196 -70 -203 -63 -2 2 3 28 11 58 8 30 13 75 12 99 l-3 44 109 30 c117 33
122 45 17 46 -30 1 -51 5 -45 9 10 10 103 37 179 53 28 5 97 35 154 65 58 30
106 54 108 54 5 0 -73 -116 -110 -163 -16 -21 -27 -40 -24 -43 9 -9 96 99 128
160 18 34 60 90 93 126 34 36 90 101 125 145 67 84 101 119 108 111 3 -3 -7
-42 -22 -88z m-1661 41 c9 -56 2 -59 -23 -11 -11 22 -17 42 -14 46 16 16 31 2
37 -35z m1559 -31 c-72 -94 -180 -201 -251 -246 -78 -50 -201 -102 -312 -131
-149 -39 -296 -91 -345 -122 -26 -16 -45 -32 -42 -35 2 -3 38 8 78 24 71 29
89 33 172 47 51 8 40 -10 -10 -20 -53 -9 -268 -114 -329 -161 -46 -34 -113
-119 -102 -129 2 -3 25 7 51 21 53 28 57 24 23 -20 -13 -17 -33 -50 -45 -73
-12 -24 -25 -43 -29 -43 -5 0 -18 -20 -30 -45 -12 -25 -61 -87 -110 -137 -83
-87 -85 -90 -44 -69 24 12 62 39 84 59 l42 37 -20 -33 c-34 -59 -97 -116 -181
-165 -78 -45 -324 -157 -345 -157 -27 0 127 238 235 362 80 92 60 90 -29 -4
-93 -97 -161 -201 -281 -430 -13 -26 -33 -38 -33 -20 0 4 9 36 20 72 11 36 27
101 35 146 62 329 252 591 580 798 163 103 174 112 227 189 26 38 45 57 54 53
8 -3 49 22 96 61 45 36 106 77 136 90 52 23 192 65 192 58 0 -2 -33 -19 -72
-39 -86 -41 -158 -92 -158 -111 0 -10 20 -4 68 20 96 48 169 71 330 100 127
23 245 57 342 99 19 8 39 15 43 16 5 0 -13 -28 -40 -62z m-1073 40 c0 -25 -58
-134 -104 -196 -58 -79 -50 -105 11 -36 l44 49 -7 -34 c-3 -19 -15 -48 -25
-65 -22 -36 -25 -66 -6 -66 8 0 11 -14 9 -45 -4 -39 -9 -48 -34 -61 -16 -9
-32 -13 -34 -11 -3 2 0 24 5 48 6 24 10 53 10 64 -1 36 -38 -57 -39 -96 0 -42
-25 -72 -41 -48 -14 22 -10 66 6 73 14 5 14 9 -1 38 -28 54 -14 121 38 177 24
25 68 85 98 133 53 84 70 102 70 76z m-562 -134 c-9 -9 -24 -14 -32 -11 -27
11 -17 27 16 27 30 0 31 -1 16 -16z m-1072 -53 c4 8 14 -2 26 -25 14 -27 25
-36 44 -36 32 0 64 -17 64 -34 0 -15 -82 -41 -104 -33 -16 6 -60 78 -71 115
-6 21 -5 23 13 13 15 -8 23 -8 28 0z m1049 -57 c14 -3 32 -4 40 0 18 7 20 -15
3 -32 -21 -21 -55 -13 -82 19 -32 38 -37 75 -6 41 11 -12 32 -25 45 -28z
m-494 6 c-21 -18 -61 -28 -61 -15 0 7 60 34 75 34 6 0 -1 -9 -14 -19z m79 -98
c0 -61 -52 -82 -97 -40 -31 29 -29 35 12 30 30 -4 37 0 52 26 19 33 33 26 33
-16z m750 6 c0 -28 -11 -64 -30 -102 -31 -61 -79 -130 -86 -124 -2 3 6 29 17
59 12 30 30 83 40 117 28 99 59 124 59 50z m-1250 -13 c0 -22 -4 -25 -34 -25
-40 0 -66 -8 -66 -21 0 -5 24 -9 54 -9 l54 0 18 -52 c9 -29 19 -59 22 -65 7
-20 -37 -15 -88 8 -50 22 -230 138 -230 148 0 3 35 5 77 4 56 -2 92 2 128 16
67 24 65 25 65 -4z m279 -72 c33 -40 31 -48 -11 -58 -29 -7 -30 -6 -41 68 -6
39 15 35 52 -10z m828 -80 c-4 -32 -9 -73 -13 -90 -4 -21 -3 -33 4 -33 20 0
76 55 112 111 l36 57 11 -39 10 -39 -75 -56 c-70 -53 -77 -56 -115 -50 -45 8
-67 21 -67 42 0 13 90 153 99 154 2 0 1 -26 -2 -57z m-773 -2 c8 -13 -14 -28
-51 -36 -21 -4 -33 -3 -33 4 0 6 0 14 0 19 -1 4 14 10 32 13 18 4 36 7 40 8 4
0 9 -3 12 -8z m159 -180 c-6 -10 -110 71 -126 98 -35 60 -15 53 56 -20 39 -40
71 -76 70 -78z m-417 90 c7 -16 10 -40 7 -52 -4 -15 -2 -20 5 -15 6 3 16 -3
22 -15 9 -16 8 -29 -4 -59 -9 -24 -11 -40 -5 -42 6 -2 4 -17 -5 -38 -10 -26
-24 -39 -51 -49 -46 -16 -65 -3 -65 46 0 30 2 34 21 28 12 -4 20 -3 18 1 -3 5
-18 35 -34 66 -29 56 -29 92 1 50 14 -20 44 -31 44 -16 0 4 -15 27 -33 53 -55
76 -55 80 10 76 52 -3 57 -6 69 -34z m294 -31 c33 -33 56 -60 51 -60 -15 0
-161 101 -161 111 0 5 11 9 25 9 17 0 44 -19 85 -60z m1456 -22 c-3 -32 -12
-71 -20 -86 -36 -68 -128 -121 -212 -122 -55 0 -65 5 -57 25 3 10 18 12 51 9
102 -12 209 83 220 196 3 30 9 47 15 43 6 -3 7 -29 3 -65z m-2166 40 c52 -15
126 -65 160 -108 41 -52 90 -159 90 -196 0 -17 -6 -37 -14 -43 -7 -6 -16 -24
-19 -40 -12 -57 -132 -86 -243 -58 -151 39 -222 82 -283 171 -96 140 -47 242
133 281 62 13 113 11 176 -7z m566 -58 c17 -19 41 -52 53 -72 36 -60 55 -49
26 15 -13 28 -27 65 -31 80 l-7 29 54 -41 c56 -42 123 -71 168 -71 l26 -1 -27
-20 c-32 -24 -37 -49 -10 -49 30 0 32 -10 6 -47 -34 -50 -32 -73 6 -73 28 0
29 -2 23 -32 -3 -18 -7 -34 -8 -35 -1 -2 -15 16 -31 38 -59 83 -75 98 -121
113 -26 9 -72 16 -103 16 l-56 0 -1 40 c-1 21 -6 47 -11 57 -6 10 -13 45 -16
78 -7 60 -7 60 11 35 10 -14 32 -41 49 -60z m1554 50 c0 -30 -27 -91 -53 -118
-33 -35 -94 -64 -130 -60 l-32 3 28 24 c27 24 36 51 17 51 -5 0 -33 -9 -62
-20 l-53 -20 33 28 c35 31 218 131 240 132 6 0 12 -9 12 -20z m-785 -39 c8
-36 -8 -69 -40 -81 -16 -6 -28 -24 -40 -59 -19 -59 -30 -68 -53 -49 -32 28
-41 28 -61 7 -17 -18 -23 -20 -36 -9 -8 7 -24 10 -35 7 -11 -3 -23 -1 -26 4
-3 5 -13 9 -24 9 -14 0 -19 9 -22 40 -2 22 -1 40 2 40 3 0 40 -7 83 -15 43 -8
84 -15 91 -15 6 0 40 34 75 75 35 41 68 75 72 75 4 0 10 -13 14 -29z m84 -10
c11 -7 2 -23 -43 -73 -32 -34 -81 -96 -108 -137 -51 -74 -128 -219 -128 -239
0 -24 -21 -21 -55 10 -30 26 -40 30 -54 21 -15 -9 -21 -6 -35 18 -18 31 -35
36 -54 17 -9 -9 -12 -6 -12 14 0 40 -10 58 -32 58 -18 0 -20 4 -13 33 13 61
12 62 -23 59 -30 -2 -32 0 -22 18 6 11 19 24 30 30 26 14 25 34 -2 53 -23 15
-23 15 16 31 21 9 50 16 64 16 24 0 25 -1 19 -60 -6 -56 -5 -60 15 -60 11 0
26 -7 33 -16 9 -13 16 -14 33 -5 28 15 42 14 42 -4 0 -29 29 -28 54 1 23 28
25 28 44 11 34 -31 64 -18 84 36 10 27 34 63 53 81 19 19 38 47 41 65 7 32 25
39 53 22z m-911 -108 c3 -20 -32 -73 -41 -63 -3 3 0 24 6 48 11 43 30 51 35
15z m192 -95 c26 -14 51 -36 60 -53 9 -16 30 -45 47 -63 93 -101 123 -273 58
-338 -43 -43 -58 -35 -167 84 -36 39 -59 54 -93 63 -25 6 -42 15 -39 20 8 13
35 11 53 -5 9 -7 26 -17 39 -21 21 -6 20 -3 -11 39 -20 25 -38 63 -42 87 -14
83 -78 108 -171 65 -31 -14 -58 -26 -60 -26 -3 0 3 11 12 25 23 34 12 41 -41
27 -98 -26 -94 -2 9 50 140 71 263 87 346 46z m1177 -87 c97 -76 116 -108 255
-436 145 -340 274 -560 457 -781 104 -125 170 -239 242 -414 103 -252 150
-325 329 -515 53 -57 89 -107 123 -172 27 -52 43 -94 37 -98 -5 -3 -20 16 -34
42 -24 48 -55 93 -56 82 0 -3 11 -33 25 -67 39 -95 29 -96 -22 -2 -30 54 -49
79 -51 67 -2 -9 12 -45 31 -80 36 -65 83 -194 74 -204 -3 -2 -13 9 -21 26 -46
89 -186 290 -186 267 0 -8 98 -173 132 -223 15 -23 28 -44 28 -48 0 -3 -21 9
-46 27 -56 40 -147 139 -177 191 -34 60 -43 47 -38 -55 5 -86 -20 -116 -33
-40 -3 21 -32 81 -65 134 -67 106 -80 149 -81 257 0 62 -4 82 -27 120 -44 76
-121 180 -210 285 -111 130 -126 153 -174 276 -28 73 -52 117 -78 145 -60 63
-177 208 -184 228 -4 9 -10 17 -15 17 -15 0 -162 216 -214 315 -40 76 -50 108
-57 169 -11 92 -38 152 -98 211 l-46 45 31 58 c18 33 39 88 48 123 16 63 29
89 44 89 5 0 30 -17 57 -39z m-1535 -76 c-3 -21 0 -35 7 -35 6 0 11 -6 11 -14
0 -22 40 -66 54 -60 8 3 28 37 45 75 29 65 61 93 61 52 -1 -26 -34 -96 -53
-112 -10 -7 -17 -20 -17 -28 0 -13 3 -13 25 1 24 16 25 15 25 -3 0 -11 -4 -23
-10 -26 -23 -14 -80 -150 -80 -192 0 -50 -13 -55 -66 -22 -42 25 -54 47 -54
93 0 41 9 45 35 16 10 -11 22 -20 27 -20 16 0 7 23 -22 57 -47 53 -38 141 11
97 33 -30 33 -7 0 34 -40 51 -44 122 -6 122 7 0 9 -13 7 -35z m108 10 c0 -9
-40 -85 -45 -85 -2 0 -10 10 -16 22 -10 19 -8 25 17 45 28 22 44 29 44 18z
m119 -17 c23 -65 23 -78 -5 -89 -40 -15 -49 0 -33 60 14 55 25 64 38 29z m334
-15 c3 -16 13 -37 21 -48 16 -20 16 -20 31 -1 14 18 15 17 40 -13 26 -30 55
-41 55 -21 0 15 12 11 43 -14 l28 -23 -14 -49 -15 -49 -58 2 c-102 5 -101 4
-106 80 -3 41 -13 85 -27 110 -23 47 -25 53 -12 53 5 0 11 -12 14 -27z m-278
-157 c19 -8 35 -19 35 -24 0 -5 29 -39 64 -76 l65 -67 -25 -36 c-32 -47 -53
-120 -64 -218 -6 -51 -27 -132 -59 -225 l-50 -145 -71 -53 c-77 -57 -124 -115
-140 -170 -14 -53 -5 -51 24 5 32 64 126 150 218 201 135 75 189 136 238 267
57 152 101 191 203 182 91 -8 136 -55 112 -115 -5 -14 -12 -11 -38 19 l-32 37
-70 -7 c-49 -5 -64 -10 -50 -15 11 -4 38 -14 60 -23 97 -37 125 -53 125 -73 0
-27 -19 -25 -59 5 -34 24 -102 41 -137 33 -11 -3 8 -13 49 -25 74 -23 106 -52
107 -95 0 -30 -14 -38 -24 -13 -7 20 -66 45 -103 45 -35 0 -21 -12 40 -34 53
-20 62 -44 25 -70 -34 -24 -50 -20 -42 10 11 43 -17 24 -33 -22 -17 -50 -54
-82 -104 -90 -34 -6 -45 -14 -74 -58 -82 -123 -311 -377 -371 -412 -86 -51
-109 -20 -108 146 0 100 9 155 70 450 9 43 20 173 25 304 10 247 20 300 67
349 30 31 72 35 127 13z m1105 -43 c53 -61 66 -85 79 -156 12 -66 2 -138 -28
-202 -60 -124 -121 -259 -121 -264 0 -9 53 59 72 93 l17 31 0 -40 c1 -55 -15
-117 -33 -130 -8 -6 -19 -29 -25 -50 -6 -22 -28 -70 -50 -107 -55 -94 -23 -85
35 10 32 51 31 15 -1 -48 -14 -27 -25 -62 -24 -77 0 -23 5 -17 29 35 16 34 32
62 36 62 11 0 104 -78 125 -104 36 -46 86 -168 162 -396 109 -327 230 -599
345 -775 76 -116 208 -258 234 -252 66 18 -57 -81 -167 -134 -44 -21 -127 -70
-185 -108 -123 -81 -114 -88 -125 90 -10 176 -14 198 -106 678 -20 104 -66
240 -94 277 -13 17 -13 13 0 -31 39 -130 65 -238 80 -325 9 -52 29 -163 45
-245 35 -179 75 -602 59 -621 -6 -7 -45 -21 -87 -30 -71 -16 -84 -16 -196 0
-67 9 -162 16 -212 16 -78 0 -98 -4 -139 -25 -40 -22 -46 -23 -40 -8 83 204
113 465 81 715 -27 212 -22 303 23 480 22 84 51 186 65 226 14 39 23 72 20 72
-11 0 -66 -135 -90 -218 l-24 -87 4 70 c6 90 -7 59 -29 -71 -22 -126 -22 -290
0 -469 29 -232 8 -481 -53 -652 -24 -68 -33 -80 -64 -96 -21 -10 -71 -20 -120
-24 -70 -5 -100 -1 -188 21 -89 22 -250 88 -250 102 0 2 29 93 64 201 36 109
92 290 126 403 34 113 95 309 136 435 42 127 78 237 80 245 3 9 2 11 -4 5 -12
-14 -48 -100 -102 -249 l-48 -129 4 159 3 159 -24 -210 c-32 -275 -40 -308
-145 -656 -49 -162 -93 -310 -96 -327 -7 -37 -13 -38 -114 -21 -75 12 -197 62
-266 110 -55 37 -297 238 -302 250 -2 5 17 46 41 91 24 46 75 142 112 213 133
256 342 545 588 813 37 39 67 77 67 83 0 35 -199 -183 -351 -386 -136 -180
-297 -430 -368 -572 -17 -35 -35 -63 -39 -63 -7 1 -183 239 -190 258 -2 6 28
27 66 46 41 22 99 67 148 114 44 42 111 104 149 137 38 33 179 164 313 290
195 184 247 239 264 277 28 66 43 76 67 47 11 -13 23 -21 27 -16 4 4 2 13 -4
19 -13 13 -16 60 -5 72 4 3 22 -8 40 -26 48 -47 40 -18 -18 62 -8 11 -6 25 5
52 l16 37 34 -14 c19 -8 61 -17 93 -20 l58 -5 -50 15 c-140 42 -151 47 -178
80 l-27 33 27 30 c16 16 44 35 63 41 61 20 119 88 108 128 -2 7 6 18 17 27 13
9 21 27 22 53 1 21 4 52 8 68 8 41 -25 93 -65 102 -17 3 -30 11 -30 18 0 16
40 52 73 64 26 10 27 10 20 -17 -13 -44 -8 -94 10 -107 9 -7 17 -17 17 -23 0
-5 9 -40 21 -77 17 -57 23 -66 40 -62 30 8 52 -81 47 -191 -3 -75 -1 -87 14
-90 32 -6 81 123 94 247 6 64 8 70 28 68 19 -2 21 4 24 56 2 41 9 64 23 78 10
10 19 26 19 34 0 29 -39 92 -84 136 l-44 43 102 58 c55 33 114 72 131 88 16
17 33 30 36 30 4 0 26 -21 49 -47z m-700 -42 l55 -6 -3 -38 c-2 -21 -16 -75
-31 -120 -26 -77 -29 -82 -62 -88 -53 -11 -110 -81 -149 -185 l-33 -88 -28 32
c-50 56 -62 148 -33 257 21 84 56 140 101 162 24 11 46 33 58 56 17 32 23 37
45 31 14 -3 50 -9 80 -13z m358 -180 c5 -65 -11 -126 -34 -135 -41 -16 -86 83
-67 147 9 35 70 73 87 56 5 -5 12 -35 14 -68z m70 12 c56 -72 65 -105 33 -122
-16 -9 -23 -4 -44 27 -26 38 -46 132 -28 132 5 0 23 -17 39 -37z m-1078 12
c22 -12 23 -14 8 -20 -24 -9 -48 1 -48 20 0 18 8 18 40 0z m877 -22 c-7 -37
11 -119 29 -134 21 -17 16 -99 -6 -99 -4 0 -13 30 -20 66 -7 37 -19 68 -26 71
-19 7 -18 57 1 93 19 38 29 38 22 3z m-907 -44 c0 -23 -191 -149 -344 -226
-295 -149 -466 -274 -622 -456 -186 -217 -272 -393 -308 -632 l-13 -90 -8 69
c-10 94 1 241 25 319 40 130 191 340 357 497 98 93 322 245 538 365 77 43 183
106 235 140 l95 63 23 -21 c12 -11 22 -24 22 -28z m30 -69 c-26 -69 -69 -133
-122 -179 -40 -35 -96 -60 -298 -131 -176 -62 -290 -109 -369 -154 -35 -20
-65 -35 -67 -33 -6 6 130 110 227 173 53 34 174 101 270 149 176 88 234 125
322 203 27 24 51 41 54 38 3 -3 -4 -32 -17 -66z m-275 24 c-36 -27 -344 -195
-438 -239 -51 -23 -117 -50 -147 -60 -56 -18 -244 -90 -315 -120 -63 -27 -27
6 71 66 125 75 273 142 435 197 80 28 204 77 275 110 138 65 150 70 119 46z
m1346 -48 c10 -22 19 -51 19 -64 0 -19 -4 -21 -25 -16 -25 6 -25 6 -25 -60 0
-76 -24 -194 -45 -222 -13 -17 -14 -10 -15 61 0 44 -7 102 -15 129 -8 27 -15
68 -15 92 0 37 3 43 29 52 20 7 33 21 42 46 15 41 25 38 50 -18z m429 -12 c19
-37 58 -103 87 -148 l52 -81 -39 -7 c-56 -10 -109 -37 -127 -65 -38 -58 -45
-130 -19 -211 7 -20 2 -18 -48 15 -31 22 -55 46 -56 56 0 9 -5 26 -12 37 -11
16 -7 29 20 83 28 54 34 80 42 168 7 95 41 219 59 219 3 0 22 -30 41 -66z
m-1475 -61 c-7 -91 -10 -102 -45 -155 -37 -56 -95 -192 -125 -293 -44 -150
-65 -401 -46 -536 12 -82 43 -228 56 -261 4 -11 0 -20 -13 -27 -17 -9 -22 3
-71 174 -28 101 -56 219 -60 261 -27 238 74 611 204 756 24 26 55 77 71 113
16 36 30 65 32 65 2 0 1 -44 -3 -97z m375 -170 c0 -23 -134 -133 -146 -120 -2
2 12 49 32 103 20 54 38 105 40 113 5 14 74 -77 74 -96z m-570 8 c0 -5 -42
-45 -92 -89 -420 -360 -552 -605 -618 -1147 -29 -247 -45 -354 -54 -362 -11
-11 -92 37 -153 92 -73 64 -127 148 -160 249 -22 69 -26 98 -26 196 0 127 18
212 73 343 43 104 64 128 35 38 -81 -242 -42 -523 98 -704 16 -20 38 -42 49
-48 14 -7 7 6 -20 43 -51 68 -84 135 -114 228 -20 64 -23 95 -23 220 0 167 18
247 86 385 51 105 112 180 201 248 111 84 207 131 466 227 261 97 252 94 252
81z m2318 -86 c115 -70 203 -151 288 -264 88 -118 139 -221 225 -456 128 -353
191 -469 348 -640 116 -126 172 -203 216 -298 37 -81 85 -234 85 -274 0 -23
-5 -20 -57 33 -73 72 -179 142 -280 184 -43 17 -157 65 -253 105 -96 40 -242
94 -325 120 -221 69 -260 90 -321 172 -72 95 -136 203 -227 383 -88 173 -92
167 -10 -16 47 -105 134 -262 198 -359 l20 -29 -33 19 c-18 11 -65 52 -103 92
-54 55 -79 92 -114 165 -54 115 -130 315 -179 470 -20 65 -52 154 -71 199
l-35 81 48 -43 c26 -23 70 -52 97 -65 98 -46 250 -24 285 41 17 32 21 27 54
-62 31 -81 51 -111 160 -238 81 -93 191 -245 221 -304 12 -24 15 -46 11 -73
-13 -82 11 -159 90 -290 41 -68 77 -138 80 -155 3 -18 12 -33 20 -33 22 0 34
35 34 96 l0 57 29 -39 c50 -68 84 -101 154 -153 79 -59 127 -69 127 -27 0 14
-5 37 -10 52 -13 34 3 80 31 89 28 9 24 27 -31 135 -40 77 -72 120 -151 206
-145 156 -200 245 -289 464 -24 58 -67 148 -96 200 -51 94 -71 140 -59 140 3
0 28 -21 56 -47 61 -57 134 -155 194 -259 52 -91 57 -91 16 1 -58 127 -152
239 -263 312 -38 25 -92 74 -123 111 -56 67 -161 215 -185 262 -13 24 -13 24
11 9 13 -9 66 -42 117 -74z m-2169 -48 c-9 -56 -22 -120 -27 -142 -19 -72 -33
-216 -27 -263 10 -72 35 -141 54 -152 22 -11 17 -62 -9 -100 -28 -42 -33 -56
-8 -27 13 15 26 27 29 27 3 0 19 -32 34 -72 l28 -72 -74 -68 c-41 -37 -77 -68
-81 -68 -8 0 -21 46 -45 150 -35 158 -26 417 22 606 28 112 100 284 119 284 2
0 -5 -46 -15 -103z m1687 88 c18 -13 15 -14 -29 -15 -91 0 -132 -42 -130 -133
2 -59 23 -125 54 -169 27 -37 100 -85 151 -99 79 -21 178 35 178 100 0 37 6
38 31 9 39 -48 11 -116 -57 -138 -48 -16 -150 -8 -199 15 -93 44 -205 195
-205 274 0 41 29 109 53 130 21 17 85 40 113 41 11 0 29 -7 40 -15z m-1906
-131 c-17 -49 -38 -118 -46 -153 -12 -51 -25 -75 -61 -115 -51 -57 -105 -134
-151 -216 -33 -59 -116 -260 -109 -266 2 -2 23 39 47 92 24 52 66 135 93 182
51 89 144 222 155 222 4 0 6 -71 6 -158 l-1 -158 -36 -50 c-48 -67 -151 -249
-187 -329 -33 -74 -76 -209 -85 -270 -3 -22 12 10 33 71 21 61 56 149 78 195
52 112 188 361 198 363 4 0 24 -53 43 -119 34 -114 49 -158 79 -216 12 -24 9
-28 -51 -92 -47 -48 -86 -77 -145 -107 -44 -22 -80 -44 -80 -49 0 -4 29 -46
65 -92 36 -46 65 -91 65 -100 0 -17 -63 -111 -114 -170 -95 -110 -334 -287
-478 -354 -105 -48 -178 -76 -178 -67 0 4 18 41 40 82 82 152 98 194 155 387
3 8 16 10 39 6 46 -7 46 4 1 23 -33 13 -35 17 -31 47 12 74 37 261 51 392 44
395 151 642 383 887 85 90 243 231 250 224 2 -2 -11 -44 -28 -92z m1935 74
c23 -10 131 -133 168 -189 37 -57 -31 -149 -110 -149 -45 0 -123 40 -161 84
-33 37 -62 118 -62 170 1 89 73 126 165 84z m-1084 -180 c-7 -18 -13 -42 -13
-53 0 -35 -19 -74 -45 -91 l-26 -16 6 48 c3 27 9 87 13 132 l7 84 36 -36 c34
-35 35 -37 22 -68z m-95 -5 c-4 -54 -13 -130 -19 -169 l-12 -72 -177 -166
c-97 -91 -181 -166 -186 -166 -12 0 -19 38 -28 141 -6 72 -5 77 16 92 16 11
28 13 41 7 33 -18 122 -11 169 13 69 35 95 93 96 222 1 97 3 102 35 148 20 29
40 47 52 47 19 0 19 -5 13 -97z m-119 -101 c-11 -115 -40 -176 -94 -198 -38
-16 -129 -19 -138 -4 -4 6 11 10 38 10 30 0 53 7 72 22 32 25 75 111 75 151 0
31 28 87 44 87 5 0 6 -28 3 -68z m-103 -102 c-22 -40 -35 -52 -66 -62 -21 -6
-41 -8 -45 -4 -4 3 24 38 63 77 76 77 94 73 48 -11z m-233 -236 c4 -27 12 -75
19 -107 9 -42 10 -61 2 -69 -12 -12 -35 35 -58 122 -17 67 -18 97 -1 103 24
10 32 0 38 -49z m-161 -1261 c113 -98 200 -147 338 -188 l72 -21 -136 -124
c-142 -130 -230 -200 -249 -200 -16 0 -69 -57 -56 -61 15 -6 -41 -117 -85
-168 l-38 -44 -85 5 c-47 3 -102 12 -122 21 -48 20 -113 79 -129 116 -10 26
-8 35 28 99 22 39 43 80 47 91 7 24 21 27 28 9 3 -7 6 10 6 38 1 38 10 68 32
110 49 93 254 372 274 373 6 1 39 -25 75 -56z m1505 -264 c28 -6 89 -10 138
-10 l87 0 0 -61 c0 -62 16 -310 27 -408 4 -40 8 -50 13 -35 10 24 8 29 56
-130 50 -161 50 -162 -11 -202 -75 -50 -255 -104 -281 -86 -5 5 -21 26 -34 48
-13 22 -45 66 -72 98 -26 32 -48 66 -48 75 0 10 -3 28 -6 42 -6 21 -4 23 7 13
30 -29 27 -9 -11 65 -68 130 -217 539 -207 566 3 8 28 22 54 30 51 17 187 14
288 -5z m-2017 -407 c21 -60 75 -105 179 -148 21 -9 22 -10 5 -32 -17 -22 -19
-22 -68 -7 -48 14 -107 49 -168 98 l-29 23 18 35 c34 67 48 74 63 31z m592
-95 c0 -7 -20 -23 -45 -35 -49 -24 -55 -36 -25 -52 36 -19 24 -39 -30 -46 -60
-8 -71 -19 -35 -36 14 -6 24 -16 22 -22 -6 -17 -66 -25 -104 -14 -32 9 -34 12
-27 36 4 15 8 42 9 60 1 18 6 37 11 42 8 8 196 77 217 79 4 1 7 -5 7 -12z
m-277 -81 c25 -19 21 -63 -8 -91 -28 -29 -51 -31 -83 -9 -24 17 -30 61 -12 95
13 23 75 26 103 5z m1579 -191 c128 -141 128 -141 83 -159 -26 -11 -37 -23
-41 -46 -7 -34 -14 -36 -54 -15 -34 17 -40 32 -27 62 8 18 4 28 -22 58 -28 32
-39 55 -27 55 3 0 16 -4 30 -10 42 -16 41 7 -2 58 -35 43 -82 121 -82 138 0
12 39 -27 142 -141z m532 -77 c13 -52 6 -99 -19 -124 -44 -44 -132 -78 -212
-82 -110 -6 -123 -1 -123 52 l0 43 85 21 c81 21 177 62 220 96 28 21 42 20 49
-6z m-390 -114 c22 -21 20 -50 -4 -74 -26 -26 -45 -25 -64 2 -21 30 -20 44 4
68 24 24 43 25 64 4z m410 -56 c3 -18 13 -76 21 -128 9 -52 31 -183 50 -290
19 -107 46 -283 60 -390 14 -107 43 -283 64 -390 21 -107 37 -196 36 -198 -1
-1 -16 3 -34 9 -43 15 -110 7 -161 -20 -49 -25 -50 -25 -50 -3 0 18 -19 91
-114 452 -54 205 -167 577 -243 798 -19 57 -33 106 -30 108 2 3 35 0 72 -6
101 -16 243 19 291 71 24 27 32 24 38 -13z m-2890 -10 c-17 -31 -221 -328
-256 -375 -24 -31 -45 -50 -53 -47 -35 14 -160 -149 -210 -273 -24 -58 -51
-93 -71 -93 -22 0 -37 79 -30 157 8 95 35 173 102 297 l55 101 -4 -68 c-6 -82
5 -83 46 -6 47 87 111 171 177 233 34 31 64 55 67 52 3 -2 -8 -24 -25 -48 -45
-65 -71 -122 -78 -169 -10 -59 10 -43 30 25 21 73 89 147 175 191 72 37 86 41
75 23z m3429 -158 c46 -54 87 -178 87 -262 0 -35 -9 -95 -19 -133 -11 -38 -17
-73 -15 -77 12 -19 26 -3 70 72 26 44 49 79 51 77 5 -5 -30 -93 -61 -155 -34
-68 -68 -174 -58 -184 5 -5 32 7 60 26 48 32 107 54 118 43 2 -2 -31 -25 -74
-50 -79 -46 -136 -100 -129 -121 5 -13 3 -13 84 16 34 12 65 19 69 16 3 -4
-23 -42 -59 -85 -36 -43 -83 -105 -105 -138 -45 -68 -138 -160 -177 -175 -37
-14 -73 -12 -82 4 -4 8 -17 15 -28 17 -16 3 -21 13 -23 53 -5 77 24 234 64
348 48 139 64 203 64 267 0 64 8 62 23 -9 7 -28 17 -52 22 -53 6 -1 21 21 35
48 21 41 25 64 25 130 0 71 -4 87 -33 144 -18 34 -31 65 -28 68 3 3 24 -13 47
-36 23 -22 46 -41 51 -41 15 0 8 54 -12 99 -11 24 -39 71 -63 105 -23 33 -46
67 -51 74 -18 29 114 -50 147 -88z m-2928 36 c-40 -32 -27 -42 30 -21 25 10
47 16 50 14 2 -3 -31 -28 -74 -56 -43 -29 -97 -68 -121 -88 -50 -42 -80 -59
-170 -98 l-65 -28 47 4 c56 5 116 33 189 88 49 37 58 40 97 35 23 -3 54 -12
69 -19 25 -14 24 -15 -45 -30 -85 -19 -166 -58 -187 -90 -9 -15 -56 -41 -127
-71 -62 -26 -122 -54 -132 -62 -33 -24 -10 -27 39 -5 26 12 52 21 57 21 17 0
-31 -53 -135 -148 -87 -81 -117 -102 -221 -153 -76 -37 -108 -56 -86 -52 65
11 163 55 244 108 29 19 29 19 18 -1 -20 -38 -118 -121 -174 -147 -45 -21 -79
-29 -151 -34 -114 -7 -164 6 -174 45 -11 46 14 176 47 242 38 76 93 162 114
179 15 13 16 10 10 -30 -11 -67 -10 -73 7 -76 9 -2 30 17 53 52 22 30 75 86
120 122 45 37 101 89 125 115 24 27 45 47 48 44 2 -2 -5 -21 -16 -42 -26 -49
-12 -55 37 -16 91 72 242 154 292 158 19 2 71 16 115 32 100 37 107 38 70 8z
m1691 -491 c70 -34 165 -127 227 -222 26 -40 52 -73 59 -73 17 0 4 70 -25 130
-15 30 -24 56 -21 59 12 12 92 -91 113 -145 13 -32 27 -69 32 -81 22 -56 46
10 35 95 l-6 47 19 -22 c34 -41 79 -165 86 -238 12 -125 42 -195 85 -195 12 0
20 -12 27 -38 19 -74 3 -78 -106 -25 -60 28 -94 54 -160 122 -77 78 -82 82
-60 42 13 -24 48 -68 77 -97 52 -52 157 -114 193 -114 24 0 33 -18 19 -35 -31
-37 -298 101 -434 226 -47 43 -124 139 -112 139 3 0 31 -11 61 -25 50 -22 57
-23 62 -8 10 26 -85 107 -154 132 -32 12 -71 28 -88 35 -29 14 -27 15 48 15
79 1 99 13 52 31 -14 5 -53 28 -86 51 -33 22 -94 56 -135 75 -41 19 -108 50
-150 69 -79 37 -88 54 -26 56 20 0 71 7 112 14 107 20 188 13 256 -20z m-2737
-217 c-1 -18 -4 -44 -8 -58 -7 -25 -7 -25 -34 14 l-26 40 27 17 c38 25 42 23
41 -13z m-594 -29 c117 -13 290 -11 370 6 110 24 119 22 156 -31 24 -35 47
-53 97 -77 36 -17 79 -46 95 -64 24 -27 36 -33 69 -33 l41 0 -7 -46 c-6 -44
-123 -299 -154 -336 -30 -36 -210 -11 -430 59 -106 33 -283 121 -377 188 -85
60 -213 187 -239 238 l-20 38 26 26 c52 52 142 60 373 32z m-381 -133 c57 -98
223 -234 398 -326 151 -80 455 -170 572 -170 38 0 44 -8 24 -28 -17 -17 -51
-15 -164 8 -207 42 -371 108 -531 214 -79 52 -278 219 -311 261 -18 23 -31 85
-18 85 2 0 16 -20 30 -44z m1206 -16 c0 -16 -7 -20 -34 -20 -29 0 -66 20 -66
36 0 2 23 4 50 4 43 0 50 -3 50 -20z m3483 -298 c22 -24 52 -99 126 -315 89
-262 95 -286 81 -368 -10 -61 -16 -72 -55 -108 -73 -67 -117 -84 -226 -89
-110 -5 -168 11 -265 73 -76 49 -97 85 -89 155 25 230 65 530 74 553 14 35 28
27 37 -19 3 -19 9 -34 13 -32 3 2 33 16 65 32 72 36 127 38 184 6 23 -13 44
-22 46 -19 3 2 -2 33 -9 69 -8 36 -14 68 -15 73 0 13 17 7 33 -11z m-423 -767
c19 -36 122 -101 198 -126 93 -31 225 -24 302 16 68 34 96 56 127 97 l23 32 0
-28 c0 -100 -111 -164 -300 -173 l-105 -5 -105 46 c-124 54 -170 91 -170 135
0 38 12 40 30 6z"/>
<path d="M5845 7753 c-142 -122 -403 -367 -299 -282 189 156 481 419 464 419
-3 0 -77 -62 -165 -137z"/>
<path d="M6227 7788 c-11 -42 -38 -269 -34 -281 5 -15 25 98 38 212 9 82 7
115 -4 69z"/>
<path d="M4433 8069 c-51 -15 -46 -24 11 -21 29 2 76 -3 104 -12 56 -16 70 -6
25 18 -39 19 -102 26 -140 15z"/>
<path d="M2230 7395 c0 -12 142 -96 260 -155 69 -35 166 -85 215 -113 50 -27
110 -61 135 -74 l45 -25 -30 26 c-44 38 -140 94 -313 180 -84 42 -185 96 -224
121 -69 43 -88 51 -88 40z"/>
<path d="M2900 6355 c84 -18 216 -18 255 0 l30 13 -40 -6 c-51 -9 -140 -9
-235 0 l-75 6 65 -13z"/>
<path d="M4380 7010 c0 -5 5 -10 11 -10 5 0 7 5 4 10 -3 6 -8 10 -11 10 -2 0
-4 -4 -4 -10z"/>
<path d="M4398 6918 c-16 -5 -28 -14 -28 -20 0 -6 8 -7 18 -3 9 4 45 9 79 12
34 3 60 10 57 14 -7 12 -92 10 -126 -3z"/>
<path d="M5625 6844 l-60 -13 53 4 c28 2 60 9 70 14 21 13 12 12 -63 -5z"/>
<path d="M5631 7114 c-200 -59 -369 -147 -480 -250 -32 -30 -67 -54 -77 -54
-89 -1 -244 -158 -244 -247 0 -36 29 -73 57 -73 37 0 105 44 162 106 70 75 92
127 73 177 -12 30 -10 34 20 60 115 98 240 166 448 244 80 30 147 57 149 59
10 9 -29 1 -108 -22z m-533 -373 c7 -66 -116 -201 -196 -217 -29 -6 -31 -4
-38 31 -8 44 3 70 53 126 50 55 121 101 153 97 20 -2 26 -9 28 -37z"/>
<path d="M4719 6423 c-79 -82 -169 -191 -169 -206 0 -4 36 33 79 81 43 48 104
112 135 142 53 52 66 70 48 70 -5 0 -47 -39 -93 -87z"/>
<path d="M3165 6781 c-85 -38 -121 -116 -91 -195 22 -57 68 -99 143 -130 95
-40 150 -49 224 -37 80 13 109 41 109 104 -1 59 -31 118 -89 177 -93 92 -204
123 -296 81z m175 -32 c54 -24 134 -100 161 -152 27 -52 22 -104 -12 -129 -37
-28 -164 -27 -244 1 -109 38 -150 84 -150 166 0 39 5 59 20 75 54 59 145 75
225 39z"/>
<path d="M4076 6378 c-32 -46 -12 -144 35 -168 31 -17 79 -3 90 28 13 33 3 90
-21 130 -16 26 -26 32 -54 32 -25 0 -39 -7 -50 -22z m73 -17 c11 -11 23 -37
27 -57 12 -63 -26 -94 -65 -55 -34 34 -25 131 11 131 4 0 17 -9 27 -19z"/>
<path d="M4835 5300 c-104 -57 -157 -77 -240 -89 l-60 -9 61 -1 c81 -1 176 29
252 79 51 34 93 71 81 70 -2 0 -44 -23 -94 -50z"/>
<path d="M4810 5154 c-122 -75 -191 -99 -264 -91 -39 5 -47 4 -33 -4 11 -6 45
-13 76 -16 64 -6 109 9 209 72 56 34 127 93 120 100 -1 1 -50 -26 -108 -61z"/>
<path d="M5631 4814 c0 -11 3 -14 6 -6 3 7 2 16 -1 19 -3 4 -6 -2 -5 -13z"/>
<path d="M5645 4750 c9 -71 72 -246 123 -345 55 -106 165 -223 252 -269 63
-33 60 -29 -32 43 -37 29 -86 73 -109 99 -80 91 -157 248 -214 433 -19 63 -24
73 -20 39z"/>
<path d="M5903 4565 c9 -16 23 -39 32 -50 9 -11 7 -2 -6 20 -27 49 -47 72 -26
30z"/>
<path d="M3367 4459 c-56 -56 -88 -92 -72 -81 36 24 193 182 182 182 -5 0 -54
-45 -110 -101z"/>
<path d="M5945 1288 c-16 -46 -43 -119 -61 -163 -24 -56 -28 -73 -14 -55 34
44 120 283 107 296 -3 3 -17 -32 -32 -78z"/>
<path d="M2595 1779 c-27 -17 -81 -57 -120 -89 -76 -62 -265 -255 -265 -270 0
-5 46 36 103 91 56 56 155 144 220 196 105 86 124 103 114 103 -2 0 -25 -14
-52 -31z"/>
</g>
</svg>
