<?xml version="1.0" standalone="no"?>
<!DOCTYPE svg PUBLIC "-//W3C//DTD SVG 20010904//EN"
 "http://www.w3.org/TR/2001/REC-SVG-20010904/DTD/svg10.dtd">
<svg version="1.0" xmlns="http://www.w3.org/2000/svg"
 width="850.000000pt" height="850.000000pt" viewBox="0 0 850.000000 850.000000"
 preserveAspectRatio="xMidYMid meet">
<metadata>
Created by potrace 1.14, written by Peter Selinger 2001-2017
</metadata>
<g transform="translate(0.000000,850.000000) scale(0.100000,-0.100000)"
fill="#000000" stroke="none">
<path d="M4035 7930 c-35 -11 -79 -35 -104 -56 -41 -36 -45 -37 -115 -35 -87
3 -241 -27 -363 -70 -121 -43 -243 -102 -271 -132 -20 -21 -30 -24 -62 -20
-64 9 -169 -29 -228 -82 -49 -44 -112 -148 -112 -185 0 -9 -9 -25 -20 -35 -10
-9 -27 -36 -35 -60 -12 -30 -26 -47 -51 -59 -90 -42 -168 8 -97 63 14 12 24
23 22 26 -11 11 -64 -13 -82 -36 -54 -73 60 -212 147 -180 25 10 26 9 26 -23
0 -41 -63 -142 -112 -179 -82 -63 -195 -85 -271 -53 -42 17 -87 70 -87 103 0
55 92 107 128 71 17 -17 15 -54 -4 -72 -20 -20 -44 -21 -44 -1 0 17 -16 20
-25 5 -9 -14 13 -40 42 -51 99 -37 146 175 48 219 -41 19 -130 15 -174 -8 -51
-25 -96 -81 -111 -136 -18 -62 -8 -178 19 -239 17 -38 19 -51 9 -54 -7 -2 -29
-20 -49 -40 -101 -100 -68 -289 66 -383 l42 -30 -23 -23 c-42 -42 -56 -146
-32 -229 8 -25 31 -60 61 -89 41 -42 46 -51 35 -64 -8 -10 -13 -42 -12 -85 0
-65 -1 -69 -25 -76 -14 -4 -84 -6 -156 -6 -106 1 -148 6 -226 27 -168 44 -350
133 -498 242 -85 63 -124 71 -143 29 -43 -94 155 -374 332 -470 l35 -19 -130
-3 c-71 -2 -180 2 -240 7 -162 16 -215 -5 -215 -83 0 -100 108 -190 300 -251
109 -34 286 -75 328 -75 95 0 -33 -37 -248 -71 -136 -21 -190 -50 -190 -99 0
-43 62 -92 164 -128 84 -31 116 -38 201 -46 22 -2 39 -8 37 -12 -1 -5 -13 -40
-26 -79 -14 -38 -28 -98 -32 -133 -6 -62 -7 -63 -33 -57 -14 3 -62 10 -106 15
-44 6 -81 14 -83 20 -19 55 -97 120 -144 120 -46 0 -98 -57 -98 -107 l0 -39
-72 -21 -71 -21 -28 28 c-94 93 -249 99 -249 8 0 -21 -5 -28 -19 -28 -26 0
-71 -56 -71 -88 0 -20 -9 -32 -31 -45 -24 -13 -30 -22 -26 -39 5 -17 -2 -29
-25 -48 -30 -25 -30 -27 -18 -62 13 -34 11 -40 -23 -110 -94 -190 -104 -407
-30 -643 28 -87 79 -196 124 -262 16 -23 39 -64 50 -90 11 -26 36 -65 56 -85
25 -26 34 -42 29 -54 -6 -15 -16 -9 -64 40 -31 32 -68 63 -81 68 -52 19 -101
-28 -101 -98 0 -17 -4 -22 -15 -18 -8 4 -27 -7 -45 -24 -32 -32 -40 -84 -20
-123 8 -14 6 -25 -6 -44 -20 -31 -15 -107 10 -134 10 -11 16 -35 16 -65 0 -26
7 -61 16 -77 16 -32 73 -63 97 -53 10 3 14 -5 15 -33 1 -25 14 -55 38 -90 63
-91 111 -122 254 -163 79 -23 85 -28 216 -173 50 -55 113 -77 220 -77 130 0
211 46 264 149 l19 39 43 -15 c56 -20 150 -11 254 23 95 30 144 58 211 118
l50 46 18 -45 c21 -57 90 -126 158 -159 55 -27 160 -51 177 -41 5 3 27 -10 47
-30 21 -20 74 -54 118 -75 100 -48 328 -118 460 -140 l100 -17 -33 -17 c-41
-21 -82 -77 -138 -189 -55 -108 -105 -158 -221 -220 -167 -88 -243 -207 -243
-381 0 -92 26 -149 82 -177 24 -12 53 -19 69 -17 27 4 29 3 29 -32 0 -48 30
-86 79 -101 32 -10 45 -8 83 8 43 20 45 20 67 2 27 -22 52 -23 105 -4 34 12
42 12 63 -2 33 -22 97 -11 150 26 32 23 50 29 70 25 64 -13 140 80 190 231 23
71 26 97 27 223 1 122 3 141 16 136 172 -73 469 -71 705 3 271 86 464 267 616
579 49 101 109 269 109 305 0 10 4 19 10 19 17 0 27 -32 23 -78 -3 -26 3 -78
11 -117 58 -252 56 -274 -24 -355 -43 -43 -50 -56 -50 -90 0 -43 18 -68 67
-94 55 -28 99 -30 147 -7 51 25 86 71 121 161 14 35 29 68 34 73 19 19 81 -29
164 -123 133 -152 250 -235 373 -263 76 -18 118 -7 145 36 15 24 19 43 15 72
l-5 41 33 -4 c82 -10 151 61 126 131 -8 25 -8 33 2 36 7 2 30 21 51 41 58 58
45 128 -27 146 -24 6 -25 7 -11 35 36 69 7 99 -103 109 -73 6 -88 12 -189 69
-62 35 -131 84 -157 110 -74 76 -81 159 -29 386 21 94 24 128 21 235 -4 108
-9 138 -37 220 -36 105 -86 203 -138 267 -33 42 -34 43 -28 120 6 75 5 81 -29
151 -20 41 -36 86 -36 100 1 26 2 25 21 -10 34 -65 85 -75 123 -25 18 25 20
40 18 156 l-2 128 30 0 c29 0 34 -7 121 -176 133 -257 206 -351 270 -351 22 0
34 8 49 33 26 42 26 108 0 256 -20 114 -26 288 -11 326 7 17 13 10 41 -45 52
-102 122 -211 220 -339 138 -181 213 -241 303 -241 94 0 93 49 -3 310 -75 202
-150 416 -150 425 0 14 64 -38 156 -125 111 -107 223 -185 359 -253 120 -59
188 -80 258 -80 49 0 62 4 84 25 23 24 24 28 13 62 -15 46 -100 139 -199 219
-147 117 -197 173 -266 292 l-29 50 49 -43 c67 -59 181 -113 360 -171 293 -95
453 -106 463 -32 6 41 -20 71 -118 136 -52 35 -165 126 -249 201 -153 136
-155 138 -126 146 21 5 52 0 108 -17 137 -44 298 -68 457 -69 168 -1 208 5
250 40 37 32 38 53 3 86 -39 36 -70 50 -218 98 -159 52 -238 87 -290 130 l-40
33 90 -7 c163 -11 455 21 588 65 118 39 208 118 192 169 -10 33 -80 48 -275
60 -102 6 -189 15 -193 19 -4 4 20 11 55 14 84 8 226 50 318 94 90 43 194 142
229 218 13 28 26 78 29 113 5 61 4 62 -20 62 -14 0 -79 -18 -144 -39 -206 -69
-358 -90 -592 -83 -67 2 -73 4 -82 27 -15 40 -51 48 -195 41 -161 -8 -175 -5
-414 113 -98 48 -208 95 -244 104 -184 47 -345 -2 -511 -154 -78 -71 -159
-172 -285 -358 -176 -257 -292 -376 -436 -447 -174 -85 -275 -68 -420 73 -96
94 -187 153 -275 180 -30 9 -57 18 -59 20 -3 2 14 22 36 46 23 23 59 68 82
101 22 32 55 66 73 75 22 10 37 27 44 49 l11 34 25 -31 c36 -42 45 -87 22
-112 -23 -26 -42 -24 -50 6 -7 30 -24 23 -24 -9 0 -45 76 -90 133 -79 41 8 79
55 84 108 3 25 8 44 12 42 92 -49 189 -71 261 -57 84 16 121 42 154 108 11 21
24 32 37 32 33 0 98 41 119 75 45 73 49 161 9 204 l-21 22 40 35 c101 86 91
238 -25 373 -45 53 -140 101 -200 101 -62 0 -103 -38 -103 -95 0 -58 27 -85
85 -85 42 0 65 13 65 37 0 7 -7 13 -16 13 -22 0 -13 34 10 38 25 5 36 -14 36
-65 0 -50 -26 -83 -65 -83 -39 0 -99 35 -133 77 -16 21 -48 47 -70 59 l-41 20
60 44 c114 83 174 205 174 355 -1 81 -4 97 -33 157 -20 41 -49 82 -77 106
l-45 39 22 50 c20 49 22 51 57 46 51 -6 97 26 123 84 27 61 22 190 -12 276
-46 122 -184 260 -291 291 -35 11 -68 32 -109 70 -71 65 -154 117 -246 153
-60 23 -84 27 -179 27 -123 1 -169 -11 -219 -55 l-33 -29 -7 56 c-25 217 -291
367 -521 294z m281 -46 c90 -37 163 -107 190 -184 19 -58 26 -191 11 -243 -10
-35 -74 -107 -96 -107 -49 -1 -160 -76 -161 -109 -1 -9 -7 -2 -15 14 -16 36
-17 33 -15 -75 1 -100 -19 -209 -51 -271 -35 -70 -125 -150 -220 -197 -118
-58 -193 -75 -324 -76 -168 0 -300 48 -371 138 -35 44 -46 46 -33 7 23 -67
127 -137 241 -163 50 -12 51 -13 23 -19 -53 -12 -138 -9 -208 6 -110 23 -192
69 -277 155 -137 138 -204 290 -204 465 0 120 22 188 86 260 104 118 292 130
371 23 31 -41 35 -135 9 -168 -20 -24 -22 -24 -38 -7 -18 16 -17 17 4 17 29 0
30 36 0 67 -35 37 -92 32 -134 -12 -18 -20 -38 -52 -44 -73 -17 -62 -12 -181
9 -229 75 -163 301 -247 468 -173 85 37 153 122 153 190 0 40 -16 38 -29 -3
-20 -60 -69 -114 -129 -144 -48 -24 -69 -28 -137 -28 -68 0 -90 5 -145 31 -97
46 -151 110 -166 196 -5 29 -4 31 7 13 40 -67 102 -103 192 -112 111 -10 225
37 277 113 26 39 39 138 25 191 -7 26 -8 26 -15 8 -5 -11 -9 -41 -9 -67 -2
-88 -39 -143 -126 -184 -38 -18 -67 -24 -120 -24 -86 0 -141 23 -181 75 -24
31 -29 48 -29 94 0 72 28 125 69 129 43 5 54 -13 27 -42 -18 -19 -21 -28 -12
-44 21 -39 98 -36 119 5 32 60 16 165 -33 217 -15 16 -25 30 -23 31 2 2 37 19
80 38 143 66 339 119 477 128 l43 3 4 -37 c7 -81 81 -190 155 -227 56 -29 102
-26 140 8 27 24 33 37 37 85 4 52 2 58 -26 87 -17 16 -39 30 -49 30 -30 0 -63
-29 -63 -55 0 -30 38 -55 51 -34 4 7 11 10 15 6 5 -4 -1 -17 -12 -28 -17 -17
-25 -18 -45 -9 -30 14 -69 72 -69 104 0 46 10 56 54 56 97 0 202 -57 256 -138
32 -49 32 -71 -1 -130 -18 -31 -18 -33 -2 -30 10 2 28 23 41 48 19 37 22 54
17 95 -14 115 -88 214 -175 235 -78 19 -136 6 -182 -40 -42 -42 -49 -83 -24
-143 16 -40 70 -87 99 -87 26 0 67 37 67 61 0 26 -37 44 -56 28 -17 -14 -19 2
-2 19 18 18 56 14 68 -7 14 -28 12 -77 -5 -111 -29 -57 -90 -51 -164 16 -108
97 -121 215 -34 295 88 83 229 99 369 43z m-448 -91 c-3 -15 -19 -19 -95 -26
-116 -9 -302 -62 -447 -126 -99 -44 -136 -53 -136 -32 0 14 177 100 280 136
124 43 227 63 328 64 65 1 73 -1 70 -16z m319 -14 c41 -15 81 -57 110 -114
l26 -50 -50 47 c-60 55 -120 87 -182 98 -44 7 -45 7 -21 18 33 14 82 15 117 1z
m764 -159 c199 -61 379 -234 458 -439 39 -102 51 -173 51 -305 0 -91 -4 -117
-21 -153 -19 -40 -49 -63 -35 -27 9 23 -12 214 -31 289 -33 131 -137 294 -247
385 -190 157 -372 199 -548 125 -30 -12 -22 36 13 78 39 47 97 65 210 66 60 1
107 -5 150 -19z m-108 -125 c213 -55 418 -258 486 -479 23 -75 21 -100 -3 -42
-40 97 -152 231 -250 300 -129 92 -250 132 -434 143 -64 4 -101 10 -99 16 7
23 59 51 114 63 79 17 119 17 186 -1z m553 -131 c155 -93 244 -241 244 -406 0
-70 -18 -117 -56 -147 -34 -27 -78 -25 -82 4 -2 16 5 23 30 30 41 13 58 45 58
115 0 144 -77 297 -172 340 -34 15 -110 100 -90 100 5 0 35 -16 68 -36z m-676
11 c172 -30 267 -70 368 -154 61 -51 167 -183 202 -251 16 -32 92 -272 87
-276 -10 -7 -92 15 -98 26 -4 8 -24 49 -44 90 -146 299 -480 525 -752 508 -43
-3 -87 -9 -98 -12 -11 -4 -8 0 7 9 15 8 69 22 120 29 92 13 92 14 34 15 -36 1
-56 5 -50 10 24 24 111 26 224 6z m-75 -100 c227 -59 469 -272 571 -500 13
-32 23 -59 21 -61 -2 -2 -25 27 -52 64 -67 91 -234 255 -331 324 -206 147
-358 193 -504 152 -17 -5 -22 -4 -15 4 31 32 211 42 310 17z m852 -87 c55 -91
80 -249 47 -296 -30 -43 -40 -27 -52 81 -13 110 -36 198 -70 264 -12 23 -22
45 -22 48 0 18 70 -51 97 -97z m-2697 -157 c79 -235 253 -410 451 -455 143
-32 267 -28 342 10 15 9 38 14 50 12 17 -2 8 -12 -44 -46 -94 -61 -164 -83
-263 -83 -340 1 -657 349 -606 667 6 35 16 76 22 91 11 26 12 21 19 -52 4 -45
17 -109 29 -144z m1850 162 c108 -52 203 -119 310 -219 90 -85 242 -262 235
-274 -3 -4 -17 -10 -32 -13 -45 -9 -96 -49 -117 -90 -25 -52 -15 -101 33 -148
72 -72 179 -75 222 -6 26 43 21 71 -12 75 -21 2 -27 -1 -25 -15 2 -26 -36 -28
-58 -4 -18 20 -18 21 1 57 27 52 61 62 116 35 47 -23 87 -80 87 -125 0 -58
-64 -131 -147 -168 -119 -53 -328 -20 -430 67 -63 54 -87 113 -84 206 4 134
-29 234 -126 382 -77 116 -192 200 -295 213 -53 7 -57 13 -29 38 31 28 70 36
171 33 89 -2 102 -5 180 -44z m-2032 -40 c26 2 55 8 66 12 16 7 17 5 11 -16
-12 -38 -25 -49 -60 -49 -33 0 -95 40 -95 62 0 6 6 5 15 -2 10 -8 32 -11 63
-7z m1740 -21 c64 -21 150 -74 159 -100 4 -10 28 -41 54 -71 134 -151 116
-392 -37 -510 -38 -29 -55 -34 -112 -38 -87 -7 -144 9 -187 52 -46 47 -56 97
-24 131 31 33 41 30 22 -6 -34 -70 36 -149 141 -158 48 -4 56 -1 89 27 56 50
81 111 80 200 0 185 -120 398 -242 431 -34 9 -41 15 -41 35 0 31 16 32 98 7z
m-2023 -66 c31 -13 55 -41 55 -65 0 -6 -9 -2 -20 9 -25 25 -81 26 -121 3 -31
-18 -59 -67 -59 -103 0 -38 31 -89 69 -112 51 -32 194 -33 262 -2 45 21 104
72 147 129 l23 30 -7 -50 c-12 -96 -73 -173 -179 -222 -52 -24 -72 -28 -150
-28 -101 0 -144 17 -202 77 -55 57 -65 113 -38 204 17 58 65 109 121 129 50
18 58 18 99 1z m2007 -34 c67 -44 127 -144 153 -254 29 -123 13 -222 -45 -280
-21 -21 -47 -38 -59 -38 -31 0 -86 25 -110 49 -22 22 -28 75 -10 86 19 12 58
-5 65 -28 l7 -22 9 21 c24 53 -57 101 -123 74 -55 -23 -91 -96 -74 -151 14
-42 93 -115 156 -144 57 -25 69 -27 153 -22 50 3 100 8 111 12 18 5 20 1 20
-42 0 -26 4 -60 9 -75 8 -28 8 -28 -37 -28 -55 0 -66 12 -31 35 32 21 27 27
-12 16 -25 -7 -37 -4 -68 20 -65 48 -128 64 -251 64 -87 0 -119 -4 -153 -19
-23 -10 -42 -23 -42 -28 0 -11 0 -11 51 8 101 38 286 17 335 -37 16 -18 14
-18 -32 3 -66 31 -224 33 -296 4 -47 -18 -48 -18 -88 2 -30 14 -40 16 -40 6 0
-7 5 -16 11 -19 6 -4 8 -14 5 -22 -4 -11 -1 -13 14 -8 22 7 23 5 14 -19 -8
-22 -36 -20 -67 4 -48 38 -53 13 -5 -30 l31 -29 -24 -53 c-34 -75 -34 -212 0
-280 105 -213 356 -266 508 -107 91 96 135 254 97 353 -5 12 1 16 24 16 32 0
82 33 82 56 0 10 -13 14 -42 15 l-43 0 37 16 38 15 50 -55 c28 -30 73 -69 100
-87 58 -37 84 -75 105 -155 11 -44 12 -62 3 -72 -9 -11 -14 -11 -28 2 -9 8
-19 13 -22 9 -13 -12 6 -46 34 -60 75 -39 181 65 150 147 l-10 24 107 -3 c68
-2 125 2 158 11 87 23 160 -12 199 -96 31 -67 31 -132 0 -219 -82 -231 -242
-341 -387 -265 -42 23 -44 26 -51 81 -18 145 -110 257 -199 244 -21 -3 -17 -6
24 -26 122 -61 169 -212 113 -366 -35 -98 -104 -211 -173 -286 -58 -62 -66
-68 -113 -73 -101 -12 -206 -79 -270 -171 -36 -53 -207 -157 -323 -197 -102
-35 -216 -46 -308 -30 -119 20 -529 130 -605 162 -154 64 -264 168 -310 293
-29 78 -25 211 9 299 15 38 36 82 48 99 21 28 21 32 6 43 -9 7 -24 31 -32 55
-8 23 -31 69 -50 101 -92 151 -160 333 -191 509 -19 110 -15 214 16 414 20
131 44 198 85 236 l21 20 55 -68 c184 -225 489 -318 705 -216 30 14 78 47 107
74 46 42 62 50 117 60 258 47 452 206 492 404 12 64 19 65 90 18z m-1591 -217
c16 -33 15 -35 -6 -49 -21 -14 -34 -27 -125 -128 -118 -132 -319 -136 -430
-10 -45 50 -46 64 -3 35 68 -48 177 -56 287 -23 79 25 135 66 201 148 27 34
51 62 55 62 3 -1 12 -16 21 -35z m1958 -224 c-5 -106 -39 -163 -124 -206 -52
-26 -68 -30 -139 -29 -52 1 -94 7 -118 18 -21 9 -38 18 -38 20 0 1 33 1 73 -2
179 -11 304 89 324 259 9 79 26 33 22 -60z m673 65 c70 -21 114 -60 150 -134
31 -62 33 -74 33 -167 0 -93 -2 -105 -32 -166 -40 -81 -117 -160 -192 -196
-53 -27 -63 -28 -201 -28 -166 0 -233 17 -338 84 -120 78 -171 154 -172 253 0
53 3 60 35 89 19 18 37 40 40 50 10 30 20 22 23 -19 6 -92 105 -221 204 -267
165 -77 333 -53 438 62 68 74 87 138 73 244 -11 86 -28 114 -88 153 -48 32
-102 34 -139 5 -32 -25 -56 -69 -56 -103 0 -34 46 -69 84 -63 l30 4 -25 -19
c-45 -37 -133 -9 -164 53 -41 77 -4 137 105 170 41 12 144 10 192 -5z m-3239
-30 c3 -8 -3 -22 -14 -32 -38 -34 -15 -144 41 -203 58 -60 208 -82 295 -42 44
20 132 104 146 139 5 12 14 22 20 22 6 0 9 -6 6 -13 -2 -7 -10 -54 -17 -105
-15 -104 -31 -129 -110 -166 -37 -17 -64 -21 -155 -21 -94 0 -118 3 -162 24
-155 69 -207 252 -107 370 38 44 49 49 57 27z m511 -34 c-5 -25 -16 -34 -65
-57 -32 -14 -82 -28 -111 -30 l-53 -5 51 13 c62 16 137 59 161 91 22 30 25 28
17 -12z m-496 -27 c-8 -18 -8 -32 2 -54 15 -38 80 -98 126 -117 72 -30 165 -8
238 56 20 18 39 30 42 27 10 -10 -66 -84 -103 -102 -52 -25 -169 -22 -223 5
-73 37 -127 139 -101 189 16 30 33 27 19 -4z m146 -71 c31 -14 83 -27 121 -31
l67 -6 -38 -24 c-58 -35 -136 -32 -196 6 -48 31 -78 73 -78 112 0 21 1 21 35
-5 19 -15 60 -38 89 -52z m2599 -209 c168 -74 367 -54 475 48 37 36 41 23 12
-39 -108 -223 -484 -193 -606 48 l-27 53 47 -43 c26 -24 71 -54 99 -67z m-568
-61 c99 -34 165 -143 165 -272 0 -90 -37 -170 -110 -235 -146 -132 -345 -86
-437 100 -53 109 -28 256 58 342 76 76 210 103 324 65z m-1741 -20 c11 -28 6
-124 -8 -157 -20 -48 -68 -84 -132 -98 -49 -11 -66 -11 -123 4 -117 31 -169
114 -125 198 10 20 20 29 30 25 9 -3 20 -6 25 -6 6 0 5 -9 -1 -21 -16 -29 -4
-68 33 -106 57 -60 130 -53 210 17 47 42 82 109 72 141 -8 23 10 26 19 3z
m-63 -47 c-12 -34 -59 -86 -98 -106 -27 -14 -78 -14 -104 -1 -30 17 -52 66
-39 91 14 26 73 24 78 -3 2 -11 -3 -18 -13 -18 -30 0 -9 -25 23 -28 35 -4 72
26 72 57 0 14 12 23 43 33 23 8 44 13 45 12 2 -2 -1 -18 -7 -37z m-357 -16
c-46 -92 26 -195 154 -222 115 -23 223 10 271 84 l25 37 17 -62 c9 -35 20 -72
24 -82 7 -17 4 -16 -25 5 -32 24 -33 24 -44 4 -55 -97 -174 -131 -301 -86 -78
28 -110 54 -140 115 -41 84 -36 173 13 229 22 25 25 15 6 -22z m246 -2 c-6
-10 -15 -19 -20 -19 -15 0 -12 38 3 43 20 7 28 -3 17 -24z m3268 -135 c60 -30
126 -99 155 -164 32 -68 30 -155 -5 -207 -61 -93 -206 -108 -293 -32 -32 29
-34 34 -29 72 4 23 8 44 10 46 2 3 15 -6 28 -18 32 -30 106 -40 139 -18 56 37
75 161 38 244 -28 61 -89 84 -125 47 -21 -21 -20 -40 4 -64 l20 -20 -33 0
c-73 0 -103 65 -52 115 32 33 76 32 143 -1z m-707 -85 c18 -28 9 -68 -22 -104
-33 -37 -56 -46 -45 -18 10 25 -12 118 -35 146 -10 14 -19 27 -19 30 0 9 113
-41 121 -54z m746 -59 c7 -58 -17 -134 -47 -150 -54 -29 -153 20 -162 79 -2
17 -4 31 -3 31 0 0 18 -9 40 -20 56 -29 82 -25 122 15 33 33 35 39 30 83 -5
34 -4 42 4 30 5 -10 13 -40 16 -68z m-4462 15 c128 -100 287 -183 441 -231 76
-24 84 -29 84 -51 0 -15 13 -38 33 -58 l32 -32 -105 -6 c-66 -3 -121 -11 -149
-22 -42 -18 -44 -18 -90 5 -105 51 -202 146 -280 274 -56 94 -72 166 -37 166
7 0 39 -20 71 -45z m1379 -57 c14 -80 -39 -175 -111 -199 -77 -25 -205 14
-243 75 -21 35 -27 96 -10 96 5 0 18 -17 27 -37 25 -53 109 -96 173 -90 56 6
86 39 96 104 8 53 45 119 55 100 4 -7 9 -29 13 -49z m106 -137 c0 -3 -20 -6
-45 -6 -26 0 -43 4 -41 10 3 6 10 36 17 68 l13 57 28 -61 c15 -34 28 -64 28
-68z m-210 84 c0 -14 -11 -37 -26 -51 -21 -22 -31 -25 -62 -19 -47 9 -108 40
-115 60 -5 13 6 15 71 16 42 0 86 4 97 9 31 13 35 12 35 -15z m-253 -114 c59
-49 136 -73 213 -69 l65 3 0 -58 0 -59 -70 4 c-155 10 -277 119 -274 243 l1
30 13 -31 c8 -18 31 -46 52 -63z m475 -13 c14 -13 78 -113 78 -124 0 -3 -12 3
-27 14 -61 44 -141 47 -157 6 -9 -24 -4 -25 32 -12 29 11 38 10 77 -11 50 -27
50 -26 31 -71 l-14 -33 -13 36 c-14 41 -34 35 -23 -6 7 -30 66 -87 89 -87 19
0 19 -9 0 -54 l-15 -36 -36 15 c-104 43 -184 159 -184 267 0 57 51 108 107
108 22 0 46 -6 55 -12z m-451 -140 c70 -48 130 -69 201 -69 l56 -1 -9 -30
c-20 -72 -75 -116 -106 -85 -14 14 -14 18 -3 32 12 14 11 18 -1 26 -22 14 -34
11 -55 -12 -29 -33 -26 -110 6 -144 34 -36 82 -55 141 -55 27 0 69 -5 94 -12
34 -9 53 -9 75 -1 17 6 30 8 30 4 0 -10 -51 -56 -78 -70 -37 -19 -15 -34 44
-29 39 3 61 11 79 28 l25 23 0 -30 c0 -48 36 -154 71 -206 48 -73 124 -134
233 -188 56 -27 94 -49 87 -49 -25 0 -158 -70 -182 -96 l-23 -24 -42 85 c-118
237 -316 392 -539 424 -132 19 -188 32 -231 52 -38 18 -41 22 -41 60 0 35 5
45 50 83 27 24 47 48 43 54 -3 5 -38 11 -78 14 -75 5 -134 27 -145 54 -7 20
29 57 78 79 67 31 47 49 -76 71 -69 12 -140 43 -170 74 -16 16 -26 33 -22 36
4 4 57 2 119 -5 112 -11 205 -5 245 17 14 8 22 2 43 -32 15 -22 51 -58 81 -78z
m3251 51 c23 -12 70 -24 106 -27 l65 -7 -35 -31 c-49 -43 -103 -52 -162 -25
-60 26 -73 54 -51 107 14 34 18 37 26 21 6 -9 29 -27 51 -38z m1256 12 c26
-11 121 -55 210 -99 200 -99 260 -114 405 -106 121 8 157 2 157 -26 0 -44
-168 -130 -263 -135 -37 -3 -62 -8 -62 -15 0 -6 24 -21 54 -33 30 -12 56 -27
58 -33 2 -6 -8 -25 -22 -42 -38 -45 -109 -59 -233 -45 -54 6 -101 7 -105 3 -8
-7 50 -70 65 -70 17 0 59 -70 53 -89 -14 -44 -152 -53 -254 -16 -61 21 -73 6
-32 -40 33 -38 61 -95 61 -127 0 -11 -14 -33 -30 -50 -28 -27 -36 -30 -75 -25
-25 2 -71 17 -102 33 -32 16 -61 31 -65 32 -16 7 -7 -18 22 -65 44 -71 48
-106 17 -137 -15 -15 -38 -26 -52 -26 -34 0 -94 26 -122 52 -12 11 -29 18 -37
15 -13 -5 -11 -14 11 -57 33 -64 25 -96 -30 -124 -36 -17 -41 -17 -81 -2 -24
9 -53 28 -66 41 -24 26 -50 33 -50 15 0 -6 7 -27 15 -47 18 -43 19 -85 3 -101
-24 -24 -78 -14 -112 21 -18 17 -35 38 -37 46 -3 9 -12 12 -22 8 -13 -5 -14
-12 -6 -39 36 -125 -25 -157 -117 -61 -60 62 -81 63 -64 3 18 -64 13 -106 -16
-125 -25 -16 -28 -16 -52 2 -13 10 -41 48 -61 83 -48 85 -64 85 -72 -2 -6 -72
-30 -121 -54 -112 -14 6 -44 49 -75 108 -22 42 -34 36 -42 -18 -12 -84 -53
-105 -84 -44 l-16 30 -24 -23 c-13 -12 -26 -30 -30 -41 -8 -26 -21 -22 -32 12
-9 25 -8 30 9 35 10 4 31 22 45 40 20 27 24 41 19 65 -9 39 -51 90 -76 90 -13
0 -21 11 -29 43 -17 67 -40 128 -71 185 -22 43 -25 52 -11 47 114 -47 245 -23
387 70 94 61 231 206 330 349 265 380 374 493 526 550 98 37 239 35 337 -3z
m-1022 -66 c36 -55 -8 -174 -78 -212 -70 -37 -224 -10 -318 57 -36 26 -37 36
-5 73 l25 28 31 -25 c31 -26 101 -37 113 -17 3 4 27 11 53 15 61 8 112 39 126
76 14 37 31 38 53 5z m-324 -31 c12 -14 32 -30 47 -36 21 -9 23 -12 8 -15 -26
-7 -81 30 -85 55 -4 29 6 28 30 -4z m-3488 -6 c34 -7 63 -13 65 -15 3 -2 -12
-17 -32 -34 -80 -66 -32 -141 105 -164 l36 -6 -23 -25 c-14 -15 -27 -35 -30
-45 -8 -23 -3 -23 -105 -3 -151 28 -323 99 -403 165 -65 53 -43 97 61 125 61
16 248 17 326 2z m870 -24 c18 -17 22 -64 6 -64 -16 0 -41 46 -34 64 8 20 9
20 28 0z m-1659 -33 c55 -5 153 -6 218 -2 l117 6 0 -27 c0 -41 53 -94 134
-133 81 -39 273 -105 305 -105 11 0 21 -4 21 -10 0 -5 -17 -10 -37 -10 -57 0
-221 -37 -250 -55 -22 -15 -35 -15 -111 -5 -120 16 -384 85 -458 119 -97 45
-174 125 -174 179 0 37 53 64 110 56 14 -2 70 -8 125 -13z m7224 -38 c-29
-155 -175 -275 -409 -338 -52 -13 -131 -27 -175 -30 -44 -3 -92 -8 -107 -10
-42 -7 -33 8 17 28 60 25 105 68 105 101 0 47 -79 78 -263 103 l-58 8 43 36
44 37 79 -8 c161 -16 400 17 580 80 61 21 120 39 131 39 20 1 21 -2 13 -46z
m-5760 -46 c19 -21 47 -45 63 -53 35 -18 36 -46 2 -73 -27 -22 -84 -29 -84
-11 0 6 4 10 10 10 14 0 42 59 36 76 -9 24 -25 16 -40 -20 -35 -85 -221 -63
-238 29 -6 29 -1 30 26 10 50 -38 138 12 153 86 l6 33 16 -24 c9 -14 31 -42
50 -63z m2704 12 c12 -12 48 -34 80 -49 50 -24 55 -29 37 -35 -49 -15 -200 28
-200 57 0 10 38 41 58 47 2 1 13 -9 25 -20z m-253 -29 c8 0 23 -17 33 -38 9
-20 24 -48 32 -62 31 -53 12 -134 -38 -158 -31 -15 -82 -6 -55 9 8 5 21 22 28
39 17 42 -8 107 -61 155 -34 31 -39 40 -34 64 l6 28 37 -18 c20 -11 43 -19 52
-19z m157 -29 c16 -16 47 -34 69 -40 54 -15 139 -14 172 2 21 11 36 11 71 3
l44 -12 -32 -37 c-84 -95 -296 -69 -400 50 -23 25 -39 48 -37 52 2 3 22 7 44
9 33 2 45 -3 69 -27z m-267 -55 c0 -21 -26 -49 -39 -42 -8 5 -7 15 6 36 16 28
33 31 33 6z m-2194 -33 c-5 -38 -13 -54 -39 -75 -36 -31 -58 -37 -35 -10 25
28 48 79 48 107 0 16 5 25 16 25 14 0 16 -8 10 -47z m4833 -9 c161 -22 199
-46 150 -95 -61 -61 -298 -109 -534 -109 -96 0 -116 16 -28 22 103 7 173 51
173 107 0 19 -8 35 -21 44 -19 14 -18 16 38 35 32 11 69 19 83 16 14 -2 76
-11 139 -20z m-5517 -97 l26 -34 -127 5 c-143 5 -178 -5 -206 -58 -21 -41 -29
-43 -75 -20 -94 48 -30 83 218 120 70 10 129 18 132 19 3 1 17 -14 32 -32z
m-163 -63 c36 -14 42 -22 77 -107 20 -50 39 -86 42 -79 4 14 -30 123 -52 167
-8 16 -14 30 -12 32 3 3 180 -18 185 -22 1 -2 20 -48 41 -102 21 -54 41 -106
45 -115 5 -14 2 -18 -14 -18 -15 0 -21 6 -21 23 -1 12 -8 36 -16 52 -8 17 -12
21 -8 10 10 -36 17 -85 11 -85 -4 0 -16 17 -27 38 -20 36 -21 34 -6 -15 5 -14
3 -23 -4 -23 -6 0 -15 10 -20 23 l-9 22 0 -24 c-1 -35 -15 -16 -35 45 -16 50
-45 99 -46 78 0 -6 11 -42 24 -82 l24 -71 -46 -15 c-25 -9 -49 -13 -53 -9 -4
5 -26 63 -49 130 -45 131 -54 140 -110 128 -38 -8 -40 10 -2 23 37 14 36 14
81 -4z m-295 -32 c4 -10 22 -27 41 -38 l34 -20 -54 -43 c-31 -23 -74 -69 -97
-102 -38 -53 -45 -59 -77 -59 -119 2 -287 58 -340 114 -20 21 -22 28 -11 41
16 19 91 41 195 55 84 12 213 42 255 59 37 14 48 13 54 -7z m726 8 c198 -29
341 -126 468 -320 107 -162 144 -281 160 -514 l8 -118 -59 -40 c-32 -22 -89
-68 -126 -104 l-68 -63 -16 35 c-17 34 -17 35 9 62 14 15 35 46 46 70 17 37
18 48 7 79 -22 67 -171 203 -238 218 -23 5 -31 13 -36 38 -4 18 -15 46 -25 63
-16 28 -16 36 -4 85 18 68 18 180 0 223 -17 40 -73 66 -145 66 l-50 0 -40 105
c-23 58 -41 110 -41 115 0 13 66 12 150 0z m4746 -11 c31 -35 132 -111 218
-164 87 -54 120 -95 98 -117 -21 -21 -197 -23 -293 -3 -140 28 -235 62 -254
91 -9 14 -15 27 -13 30 2 2 22 -1 43 -7 60 -17 169 -7 202 17 43 32 41 65 -6
117 -23 24 -41 47 -41 51 0 14 28 5 46 -15z m-5216 -19 c0 -5 -10 -10 -21 -10
-114 0 -229 -263 -229 -522 0 -77 -2 -89 -15 -84 -9 3 -48 15 -87 27 l-71 22
6 63 c14 145 97 310 202 400 87 74 215 136 215 104z m5795 -24 c103 -26 276
-45 400 -47 75 0 136 -16 143 -37 6 -19 -56 -72 -115 -98 -102 -45 -364 -84
-570 -84 l-91 0 5 39 c5 34 1 42 -31 74 -19 20 -71 54 -114 77 -132 68 -132
67 -2 75 63 4 133 11 155 15 71 14 118 11 220 -14z m-5775 -16 c0 -5 19 -53
42 -106 33 -79 39 -100 30 -115 -18 -28 -14 -70 8 -107 19 -31 19 -35 4 -91
l-17 -59 -58 -11 c-31 -5 -93 -24 -136 -41 -43 -18 -84 -34 -92 -38 -11 -4
-13 15 -9 114 8 189 56 341 130 410 50 48 98 69 98 44z m2855 -35 c135 -36
271 -129 359 -246 46 -61 96 -148 96 -167 0 -5 -21 1 -47 14 -78 40 -166 28
-222 -30 -61 -63 -53 -162 22 -243 l40 -43 -50 0 c-71 0 -159 -18 -228 -47
-69 -29 -174 -100 -204 -139 -12 -15 -23 -25 -24 -23 -2 2 -9 28 -15 57 -15
65 -15 136 -2 181 13 47 5 50 -20 10 -17 -28 -20 -46 -18 -106 2 -40 0 -73 -3
-73 -10 0 -49 83 -49 103 0 9 -4 17 -10 17 -28 0 5 -103 48 -149 44 -47 52
-69 36 -106 -41 -93 30 -301 96 -280 44 14 97 -138 102 -295 2 -41 2 -130 0
-196 l-2 -122 -132 -32 c-726 -174 -789 -185 -1123 -185 -250 1 -265 2 -380
29 -147 34 -236 66 -340 119 -123 64 -191 122 -276 234 -54 71 -52 100 9 194
79 121 254 348 335 435 68 73 212 194 230 194 4 0 24 11 45 24 20 13 72 37
115 51 111 39 95 65 -19 30 -27 -8 -50 -15 -52 -15 -7 0 14 61 36 105 34 68
117 190 165 242 22 24 70 64 107 88 l68 45 144 -36 c182 -47 303 -51 416 -16
93 29 209 82 266 121 24 17 47 31 50 31 3 0 6 -30 6 -67 0 -38 5 -75 10 -83 7
-11 10 3 10 46 0 122 46 212 145 279 53 37 124 63 175 64 14 1 52 -6 85 -14z
m-2352 -151 c49 -8 57 -28 56 -142 0 -106 -15 -156 -47 -160 -20 -3 -21 -1
-12 23 13 35 13 112 -1 121 -21 12 -42 -24 -47 -81 -4 -53 -22 -89 -22 -45 0
29 -18 60 -35 60 -24 0 -35 -34 -25 -71 5 -18 9 -33 7 -34 -1 -1 -12 -7 -24
-14 -21 -10 -23 -7 -48 71 -15 45 -34 96 -42 113 -20 40 -71 93 -108 113 l-30
15 33 14 c69 28 216 35 345 17z m4747 -80 c52 -7 118 -14 145 -14 47 0 54 -3
95 -46 55 -57 119 -89 285 -144 256 -84 295 -118 175 -150 -85 -23 -353 -7
-505 31 -160 40 -186 51 -205 90 -11 20 -53 65 -94 98 -97 79 -146 137 -146
172 l0 27 77 -25 c43 -13 120 -31 173 -39z m-5096 7 c40 -25 106 -116 106
-147 0 -12 -33 20 -62 60 -17 23 -28 32 -28 23 0 -9 25 -46 55 -82 53 -62 84
-115 67 -115 -4 0 -42 35 -83 79 -79 81 -124 156 -113 185 8 21 20 20 58 -3z
m4955 -155 c85 -68 120 -114 100 -127 -8 -5 -38 -7 -67 -4 -133 16 -320 113
-357 186 -9 17 -15 33 -13 35 3 2 20 -1 39 -6 52 -15 81 -12 129 13 l45 23 28
-32 c15 -18 58 -57 96 -88z m-3691 87 c39 -9 72 -19 72 -23 0 -3 -16 -14 -36
-25 -91 -49 -251 -265 -314 -425 l-14 -35 -3 50 c-4 78 -23 204 -40 273 -16
62 -16 63 8 88 45 48 178 113 234 114 11 0 53 -7 93 -17z m-2204 -84 c26 -21
47 -54 60 -96 6 -20 4 -23 -18 -23 -14 0 -36 -5 -50 -11 -34 -16 -58 3 -50 37
8 29 -12 32 -21 4 -8 -24 18 -70 39 -70 7 0 32 7 55 15 37 13 43 13 47 0 9
-23 -3 -44 -32 -55 -20 -8 -36 -6 -69 9 -53 24 -74 54 -82 118 -5 43 -2 54 16
72 27 27 71 27 105 0z m1089 -175 c-9 -25 -44 -26 -128 -3 -83 22 -85 23 -85
52 0 17 7 56 15 86 l15 56 94 -89 c53 -50 92 -95 89 -102z m178 119 c-8 -15
-10 -10 -11 23 0 22 3 44 8 48 11 12 14 -52 3 -71z m-77 11 c3 -9 6 -25 6 -37
-1 -17 -2 -19 -9 -7 -16 27 -22 60 -13 60 6 0 13 -7 16 -16z m2842 -3 c54 -24
84 -64 84 -110 0 -74 -57 -106 -107 -59 -25 24 -31 58 -9 58 15 0 38 -23 35
-36 -3 -21 2 -26 16 -14 23 19 18 68 -10 95 -27 28 -63 32 -104 10 -49 -25
-55 -73 -16 -125 34 -46 101 -90 137 -90 36 0 96 25 125 52 19 17 21 24 10 36
-10 13 -9 14 3 11 21 -7 50 -70 44 -95 -8 -29 -79 -58 -144 -57 -136 0 -280
119 -280 232 0 32 40 88 74 101 36 15 99 10 142 -9z m1595 -149 c89 -161 91
-167 74 -170 -39 -9 -196 71 -296 150 -44 34 -48 41 -38 59 6 12 9 37 7 56 -4
31 -2 34 16 28 12 -4 41 -9 66 -12 36 -4 52 0 80 19 l35 24 7 -39 c4 -21 26
-73 49 -115z m22 128 c59 -40 187 -90 248 -97 41 -5 52 -11 64 -32 24 -48 262
-256 397 -348 50 -34 96 -69 101 -78 36 -64 -144 -49 -407 35 -69 22 -155 54
-191 70 -76 34 -175 97 -175 112 0 5 4 6 10 3 5 -3 19 -1 30 5 29 15 25 55
-12 120 -75 132 -89 159 -102 198 -9 23 -13 42 -11 42 2 0 24 -13 48 -30z
m-6046 -20 c51 -29 93 -75 93 -102 0 -48 -99 -53 -176 -9 -64 37 -85 78 -60
116 23 35 76 33 143 -5z m1239 -79 c-7 -70 -7 -70 28 -109 41 -44 45 -79 18
-128 -21 -39 -134 -172 -146 -173 -5 -1 -7 63 -3 152 l6 154 -80 42 c-44 24
-79 44 -77 46 21 19 200 79 252 84 5 1 6 -30 2 -68z m508 29 c9 -22 16 -46 16
-54 0 -8 -26 -20 -63 -30 -35 -9 -81 -28 -104 -40 l-41 -23 -16 34 c-23 49
-21 90 7 105 17 9 140 42 178 47 4 1 14 -17 23 -39z m-1088 5 c136 -24 248
-54 261 -71 6 -9 17 -14 25 -13 7 2 50 -15 96 -37 71 -34 82 -42 76 -59 -4
-11 -9 -79 -11 -150 -4 -118 -3 -133 15 -155 l19 -24 19 24 c10 12 42 50 71
82 29 33 66 87 83 120 25 51 30 73 30 134 l0 74 71 -5 70 -4 23 -45 c20 -40
22 -52 14 -97 -9 -50 -24 -75 -105 -173 -18 -22 -33 -50 -33 -63 0 -14 21 -46
54 -82 81 -88 83 -124 26 -382 -17 -74 -35 -150 -41 -171 -16 -51 -5 -96 41
-167 57 -88 51 -99 -23 -43 -122 92 -230 127 -373 120 -158 -9 -252 -68 -391
-246 l-65 -83 -126 66 c-332 173 -526 354 -633 590 -77 170 -94 358 -46 494
14 41 39 88 55 105 16 17 32 39 35 49 4 9 15 17 24 17 28 0 63 29 63 51 0 15
7 19 38 19 53 0 85 20 98 60 9 28 19 37 50 46 90 25 89 26 108 -7 41 -69 143
-93 191 -44 16 15 25 36 25 55 0 28 2 30 39 30 21 0 78 -7 127 -15z m3759 4
c4 -6 1 -10 -6 -8 -40 5 -49 -1 -49 -35 0 -24 9 -43 29 -65 38 -40 78 -41 119
-2 26 23 32 25 37 12 15 -38 -81 -73 -135 -51 -65 27 -106 105 -75 140 19 21
70 27 80 9z m-4570 -49 c11 -17 41 -41 67 -53 26 -12 47 -25 48 -29 0 -5 -9
-17 -21 -29 -17 -17 -28 -20 -57 -14 -94 17 -145 63 -121 107 13 25 38 47 54
48 6 0 19 -14 30 -30z m5751 -26 c20 -9 50 -13 64 -10 27 5 27 4 39 -67 7 -40
30 -117 52 -172 22 -54 39 -108 37 -120 -5 -31 -50 -31 -109 1 -52 29 -190
167 -222 223 -18 31 -18 31 3 31 29 0 76 26 84 45 3 9 6 32 6 51 0 19 2 34 4
34 2 0 21 -7 42 -16z m-4276 -21 c0 -49 -15 -58 -39 -25 -28 41 -27 52 9 52
26 0 30 -4 30 -27z m4443 -7 c23 -19 75 -55 116 -80 80 -49 89 -59 158 -186
56 -101 106 -156 233 -260 106 -86 194 -177 203 -210 7 -28 -18 -50 -58 -50
-82 0 -262 77 -412 176 -97 64 -252 206 -232 212 28 9 49 36 49 64 0 16 -15
68 -34 116 -45 114 -83 252 -70 252 3 0 24 -15 47 -34z m-3930 -22 c98 -50
197 -152 197 -204 0 -34 -47 -108 -91 -141 -56 -43 -134 -78 -195 -87 -69 -11
-98 -6 -89 17 21 49 24 80 15 145 -13 88 -35 157 -62 191 -17 22 -19 29 -7 36
24 15 37 10 59 -21 29 -40 57 -55 76 -39 20 16 18 24 -17 64 -17 19 -29 35
-26 35 3 0 12 3 21 6 10 4 29 -14 61 -58 52 -69 72 -85 87 -70 16 16 2 54 -37
100 -40 46 -39 50 8 26z m3 -77 c11 -36 -4 -27 -40 23 -20 27 -36 53 -36 57 0
13 70 -61 76 -80z m-2012 13 l50 -21 -22 -21 c-19 -19 -25 -20 -60 -10 -48 14
-92 48 -92 69 0 9 8 22 18 29 14 10 20 10 37 -6 11 -10 42 -28 69 -40z m1873
28 c13 -12 23 -31 23 -42 -1 -19 -4 -17 -30 12 -45 48 -39 73 7 30z m3718
-346 c22 -132 17 -147 -39 -113 -57 36 -134 128 -172 208 -33 68 -36 79 -25
108 6 17 11 48 11 68 0 20 5 37 10 37 6 0 10 -4 10 -9 0 -4 19 -18 43 -31 41
-22 44 -22 75 -6 20 10 34 26 38 44 14 63 18 50 24 -68 4 -69 15 -176 25 -238z
m-3840 247 c4 -58 33 -165 42 -155 3 3 0 32 -7 65 -7 32 -10 65 -8 73 10 27
32 -79 33 -156 0 -63 -3 -81 -17 -89 -9 -6 -20 -8 -24 -5 -3 4 -17 53 -31 110
-19 81 -23 117 -18 167 8 75 24 70 30 -10z m-1860 28 c13 -10 16 -21 11 -40
-7 -31 -31 -35 -58 -10 -23 20 -23 39 0 52 22 14 25 13 47 -2z m5308 -35 c14
-22 39 -44 55 -51 l30 -12 4 -177 c3 -97 3 -180 1 -184 -7 -14 -62 14 -98 50
-46 46 -81 113 -100 194 -18 78 -19 98 -2 98 23 0 58 45 64 84 3 20 9 36 13
36 4 0 19 -17 33 -38z m522 -112 c54 -57 64 -72 75 -125 7 -33 52 -169 101
-303 125 -340 129 -362 74 -362 -78 0 -175 86 -298 263 -91 132 -190 287 -183
287 3 0 22 -11 42 -25 94 -64 123 -10 90 171 -8 44 -17 117 -21 164 l-7 85 32
-45 c18 -25 60 -74 95 -110z m-1183 113 c49 -20 115 -94 129 -147 18 -67 7
-141 -26 -176 -63 -66 -172 -61 -222 10 -52 73 -21 190 50 190 50 0 85 -82 53
-125 -12 -16 -16 -17 -30 -6 -22 18 -20 42 4 48 23 6 26 19 8 26 -15 5 -49
-11 -60 -27 -15 -22 -8 -70 14 -93 58 -62 159 8 166 117 8 137 -114 192 -284
125 -89 -35 -195 -105 -234 -155 -42 -53 -80 -139 -87 -199 -3 -28 -9 -51 -14
-51 -17 0 -48 54 -64 115 l-18 65 32 64 c19 39 49 80 74 101 54 46 186 110
257 124 30 6 64 13 75 15 34 8 136 -4 177 -21z m-4564 -8 c1 -1 -10 -33 -24
-71 -39 -100 -45 -257 -15 -375 62 -247 228 -466 481 -635 105 -69 271 -164
330 -187 11 -4 5 -14 -25 -41 -58 -52 -146 -94 -213 -101 -31 -3 -69 -8 -84
-10 -25 -4 -33 4 -81 78 -63 94 -94 155 -137 262 -55 139 -100 185 -181 185
-54 0 -94 -26 -114 -74 l-13 -30 -40 80 c-141 281 -157 558 -45 790 28 57 33
62 86 83 20 8 27 18 27 36 0 23 3 25 23 19 12 -3 23 -7 25 -9z m4781 -90 c20
-148 23 -259 11 -395 -15 -165 -17 -263 -7 -312 12 -59 30 -47 22 15 -8 60 3
55 29 -12 13 -32 16 -58 11 -93 -4 -26 -9 -48 -11 -48 -3 0 -16 7 -30 16 -48
32 -36 4 28 -64 41 -44 80 -100 110 -158 106 -204 127 -374 75 -596 -29 -127
-34 -207 -15 -290 10 -47 21 -62 95 -136 46 -45 90 -82 98 -82 7 0 51 -18 96
-40 46 -22 93 -40 105 -40 15 0 25 -8 30 -22 8 -25 28 -48 43 -48 5 0 17 7 26
16 24 25 27 12 5 -24 -19 -30 -23 -32 -58 -26 -50 9 -112 36 -167 74 -71 49
-77 29 -7 -22 63 -47 121 -71 200 -83 49 -8 55 -27 15 -49 -23 -12 -25 -16
-11 -21 25 -10 58 12 58 40 0 23 2 24 25 13 32 -15 32 -48 0 -86 -34 -40 -67
-45 -150 -20 -89 26 -149 68 -188 129 -16 27 -32 49 -33 49 -2 0 -4 -13 -4
-30 0 -59 100 -145 204 -175 31 -9 56 -19 56 -21 0 -3 -7 -19 -16 -36 -14 -26
-20 -29 -46 -24 -21 4 -28 2 -25 -7 2 -6 19 -12 38 -12 28 0 37 6 54 38 21 36
22 37 38 19 24 -27 21 -50 -12 -83 -43 -43 -104 -41 -168 5 -27 18 -63 41 -80
50 -61 31 -103 76 -115 123 -13 53 -34 44 -24 -11 10 -50 47 -90 142 -151 83
-54 106 -75 82 -75 -7 0 -24 -9 -38 -20 -34 -26 -44 -25 -60 8 -7 16 -14 22
-17 14 -7 -18 24 -62 44 -62 9 0 32 12 51 26 28 22 36 24 43 13 13 -20 2 -71
-19 -87 -30 -23 -106 -9 -195 37 -103 52 -194 126 -273 220 -34 41 -81 86
-103 102 -23 15 -37 30 -31 34 17 10 11 25 -7 18 -36 -12 -63 -48 -89 -116
-17 -45 -42 -85 -69 -113 -38 -40 -46 -44 -91 -44 -59 0 -93 16 -113 52 -22
38 -7 45 38 20 49 -28 76 -28 95 0 25 36 18 46 -8 13 l-24 -30 -47 25 c-26 14
-49 29 -52 33 -3 5 15 30 40 55 76 78 83 123 41 292 -32 131 -30 223 5 270 30
42 19 51 -19 15 l-30 -28 -14 34 c-7 19 -18 75 -24 125 -11 98 -43 181 -90
242 -20 25 -35 63 -47 116 -15 68 -37 143 -59 196 -4 10 12 35 44 69 54 58 59
79 36 136 -11 25 -21 35 -37 35 l-21 0 7 178 c4 111 3 194 -4 222 -5 24 -8 46
-6 49 8 7 26 -52 32 -100 11 -90 39 -93 37 -6 -1 60 -19 101 -101 221 -53 79
-55 83 -50 137 6 67 32 120 89 182 75 82 232 157 327 157 46 0 98 -32 112 -68
17 -42 4 -101 -27 -131 l-27 -26 17 25 c18 28 21 91 6 121 -14 25 -62 49 -97
49 -84 0 -128 -109 -84 -206 60 -133 251 -139 318 -11 34 67 15 188 -42 263
l-25 33 52 3 c29 2 56 1 59 -2 4 -3 12 -41 18 -85z m256 57 l25 -38 -15 -85
c-9 -46 -18 -108 -22 -137 -3 -31 -12 -56 -20 -59 -21 -8 -62 24 -94 75 -38
60 -80 191 -68 212 24 43 26 43 48 21 11 -11 31 -21 43 -21 24 0 68 36 68 57
0 21 8 15 35 -25z m-3310 -100 c28 -144 52 -168 181 -179 74 -6 76 -7 98 -42
48 -79 56 -114 32 -147 -19 -25 -27 -15 -37 47 -10 64 -36 93 -95 108 -24 6
-65 16 -90 23 -64 16 -194 102 -194 128 0 18 81 141 89 134 1 -1 9 -34 16 -72z
m3670 -247 c0 -134 6 -226 19 -313 20 -132 15 -184 -18 -190 -46 -9 -153 140
-267 373 l-78 161 13 89 12 90 18 -58 c38 -118 135 -218 213 -221 l38 -1 -3
180 -3 180 28 -50 c27 -50 28 -52 28 -240z m-490 49 l35 -42 0 -134 c0 -100
-4 -139 -14 -154 -14 -19 -15 -19 -40 5 -52 48 -63 108 -58 291 l5 165 19 -45
c10 -24 34 -63 53 -86z m-2726 71 c8 -22 9 -41 3 -51 -7 -13 -13 -10 -31 21
-17 29 -19 40 -10 51 17 21 24 17 38 -21z m-43 -39 l21 -43 -42 -49 -42 -48
-27 51 c-14 29 -26 58 -26 65 0 11 74 66 90 67 3 0 15 -19 26 -43z m-293 -61
c97 -22 114 -36 127 -105 6 -30 12 -62 15 -70 3 -8 -13 -41 -35 -72 -39 -54
-41 -56 -70 -45 -39 15 -77 -4 -153 -73 -67 -61 -68 -59 -32 85 31 118 41 235
27 287 l-10 38 26 -14 c15 -8 62 -21 105 -31z m25 -348 c5 -25 -40 -81 -77
-97 -33 -13 -39 -24 -18 -37 7 -4 38 -44 68 -87 101 -148 206 -236 369 -307
190 -84 363 -119 625 -126 268 -7 423 13 830 108 94 22 248 58 344 81 184 43
190 43 191 -7 0 -43 -116 -137 -227 -185 -29 -12 -53 -26 -53 -31 0 -19 68 -7
118 20 l52 29 -19 -27 c-11 -15 -27 -34 -36 -41 -8 -7 -15 -16 -15 -21 0 -20
25 -6 57 31 38 43 53 50 53 22 0 -16 21 -105 36 -156 5 -16 1 -15 -38 7 -98
58 -155 72 -278 71 -103 0 -124 -4 -197 -31 -45 -17 -114 -52 -155 -78 -93
-60 -229 -197 -297 -297 -28 -43 -56 -78 -62 -78 -16 0 16 48 147 223 66 89
146 185 177 214 32 28 53 54 48 57 -12 8 -78 -42 -128 -97 -54 -58 -243 -312
-273 -366 -14 -25 -31 -41 -42 -41 -35 0 120 283 230 418 19 24 31 46 28 49
-25 26 -249 -312 -294 -446 -7 -19 -14 -32 -17 -29 -3 3 15 72 40 154 25 81
44 153 41 159 -9 24 -92 -202 -103 -280 -5 -42 -9 -47 -51 -65 -120 -53 -203
-147 -293 -333 -45 -92 -55 -106 -73 -102 -11 2 -69 11 -127 20 -210 31 -459
110 -550 173 -107 74 -140 144 -164 342 -22 181 -17 626 6 562 4 -11 15 -78
24 -149 22 -172 51 -297 76 -319 18 -16 19 -16 19 3 0 11 -6 36 -14 55 -14 33
-37 148 -51 252 l-7 50 106 -157 c108 -160 135 -222 151 -334 11 -84 28 -65
23 25 -6 100 -36 168 -153 336 -104 152 -145 235 -151 313 -6 64 8 56 21 -11
24 -135 182 -293 381 -381 101 -45 91 -17 -36 104 -126 120 -321 330 -354 382
-12 20 15 -2 64 -52 171 -174 713 -539 748 -505 9 10 -21 31 -155 112 -220
134 -449 302 -564 414 -91 90 -190 221 -215 286 -16 42 -16 49 -3 73 9 17 30
31 59 40 25 7 56 18 70 24 25 11 25 11 -10 17 l-35 5 45 33 c47 35 83 39 88 9z
m-1761 -237 c35 -21 64 -72 112 -195 59 -153 177 -318 307 -429 81 -70 234
-176 253 -176 33 0 0 36 -88 95 -54 36 -129 93 -166 127 l-68 62 68 13 c146
27 234 83 335 214 151 195 234 258 374 282 134 23 300 -32 413 -136 l56 -53
-13 -269 c-16 -374 5 -608 65 -726 l17 -32 -48 7 c-58 7 -137 43 -182 81 -36
30 -64 78 -80 138 -9 33 -8 41 12 65 70 84 110 183 126 309 12 92 5 217 -11
208 -5 -4 -9 -32 -9 -63 0 -96 -19 -229 -41 -288 -12 -30 -22 -54 -24 -52 -2
2 3 30 11 63 16 71 18 195 3 248 -6 22 -13 36 -16 33 -3 -3 -5 -52 -4 -109 6
-305 -117 -489 -377 -567 -59 -18 -90 -22 -158 -18 -46 2 -86 6 -88 9 -2 2 2
30 11 62 8 32 12 65 9 74 -12 29 -29 6 -47 -64 -31 -126 -75 -190 -155 -229
-46 -23 -64 -26 -126 -23 -105 6 -170 40 -239 126 -64 80 -104 108 -178 129
-140 38 -184 65 -240 151 -29 44 -31 52 -31 142 0 164 42 274 146 382 82 84
62 94 -25 13 -66 -61 -112 -141 -133 -231 -14 -57 -18 -62 -38 -38 -7 8 -30
20 -51 25 -50 14 -74 48 -65 95 4 19 10 35 15 35 16 0 96 -43 104 -56 13 -22
29 -16 25 9 -2 15 -19 31 -53 49 -63 34 -85 61 -85 103 0 68 55 86 89 30 27
-46 79 -70 116 -53 35 16 26 34 -14 30 -42 -5 -77 27 -92 81 -13 49 -5 84 21
92 33 10 56 -3 105 -60 26 -30 55 -55 65 -55 22 0 53 28 45 41 -4 5 10 9 29 9
25 0 40 7 55 27 24 30 20 44 -6 21 -10 -9 -27 -18 -39 -22 -54 -16 -144 102
-144 191 0 82 73 119 147 73z m1755 -367 c29 -32 102 -109 162 -170 61 -62
106 -113 102 -113 -4 0 -39 20 -77 45 -123 79 -203 167 -234 255 -8 22 -12 40
-10 40 2 0 28 -26 57 -57z m2111 -188 c83 -22 133 -50 199 -113 127 -121 167
-295 113 -497 -23 -86 -102 -266 -160 -363 -192 -322 -414 -457 -808 -492
-220 -19 -371 13 -519 112 -47 32 -91 58 -97 58 -24 0 -8 -20 57 -69 37 -28
72 -55 79 -61 16 -13 27 -130 20 -214 -13 -148 -81 -321 -142 -357 -39 -24
-60 -25 -50 -1 14 30 17 79 7 86 -6 3 -13 -7 -17 -23 -8 -35 -67 -106 -106
-126 -32 -17 -75 -20 -84 -6 -3 6 4 25 15 43 20 33 28 108 11 108 -5 0 -12
-17 -16 -38 -12 -69 -48 -102 -127 -116 -62 -11 -91 41 -46 86 12 12 32 41 45
65 l23 44 -27 -3 c-24 -3 -34 -14 -64 -77 -43 -89 -67 -111 -120 -111 -52 0
-79 27 -79 80 0 30 5 43 24 55 30 20 76 105 76 142 0 17 -9 38 -19 47 -18 17
-20 17 -39 -2 -11 -11 -26 -46 -32 -79 -16 -75 -24 -89 -57 -101 -36 -12 -63
-2 -96 37 -71 85 -28 292 83 395 25 23 87 64 138 91 114 58 154 102 220 239
51 106 105 167 159 181 34 8 36 4 18 -38 -17 -42 -19 -57 -6 -57 14 0 47 57
79 138 66 161 202 333 310 390 84 45 164 61 352 72 223 12 266 26 390 126 142
114 214 144 272 113 29 -16 37 0 9 22 -53 43 -143 13 -276 -91 -139 -109 -180
-123 -403 -135 l-103 -5 33 46 c221 308 516 463 761 399z m-4135 -147 c14 -14
22 -33 22 -54 0 -26 -5 -33 -27 -39 -39 -9 -73 31 -73 87 0 39 1 40 28 33 15
-3 37 -16 50 -27z m5656 -687 c3 -4 -3 -16 -14 -26 -11 -10 -21 -16 -23 -14
-28 48 -28 49 2 49 17 0 32 -4 35 -9z m-3334 -957 c0 -15 -37 -94 -44 -94 -7
0 6 84 16 103 10 20 28 14 28 -9z"/>
<path d="M4162 7883 c-21 -8 -2 -23 31 -23 39 0 120 -37 165 -75 40 -34 82
-104 98 -164 l13 -46 0 41 c2 85 -97 215 -185 246 -60 20 -105 28 -122 21z"/>
<path d="M3933 6561 c-54 -25 -71 -55 -47 -82 21 -24 80 -25 153 -3 68 20 106
55 91 84 -9 17 -21 20 -83 20 -49 0 -85 -7 -114 -19z m165 -18 c-4 -21 -51
-38 -131 -48 -48 -6 -57 -5 -57 8 0 21 31 37 89 47 81 14 103 12 99 -7z"/>
<path d="M2983 6381 c-64 -31 -100 -69 -89 -97 7 -19 35 -14 146 23 89 30 105
42 96 77 -6 23 -12 26 -49 26 -26 0 -66 -11 -104 -29z m124 -7 c4 -11 -175
-79 -184 -70 -8 8 40 40 94 62 61 25 84 27 90 8z"/>
<path d="M3050 6161 c-57 -18 -111 -54 -152 -101 -33 -38 -47 -48 -63 -44 -18
6 -18 4 4 -20 31 -33 23 -41 -24 -26 -20 7 -39 10 -42 7 -9 -9 60 -47 87 -48
23 0 23 -1 5 -9 -18 -7 -39 -6 -105 6 l-25 4 29 -26 c22 -20 37 -25 63 -22 18
2 33 0 33 -4 0 -13 -48 -21 -85 -14 -29 6 -34 4 -29 -9 9 -22 60 -47 99 -48
32 -1 33 -1 38 -61 9 -83 21 -122 59 -186 58 -97 157 -146 278 -138 110 8 204
71 258 173 24 45 27 60 27 155 0 95 -3 110 -28 163 -17 34 -47 72 -72 94 -46
38 -51 55 -12 46 18 -5 20 -3 10 8 -7 7 -13 22 -13 32 0 17 -3 16 -31 -7 -17
-14 -34 -26 -39 -26 -18 0 -20 20 -4 45 19 29 14 31 -28 9 -21 -11 -61 -17
-117 -18 -91 -2 -162 -25 -207 -67 -13 -12 -32 -19 -45 -17 l-22 3 27 32 c45
53 140 94 235 100 44 3 78 10 75 14 -6 11 -149 10 -184 0z m248 -128 c50 -21
127 -97 153 -151 31 -64 32 -187 3 -253 -49 -107 -146 -172 -257 -171 -171 0
-277 126 -277 326 0 118 55 212 146 247 79 30 164 31 232 2z"/>
<path d="M3185 5816 c-44 -19 -92 -78 -100 -124 -13 -77 42 -158 123 -183 112
-33 232 81 202 193 -27 100 -134 154 -225 114z m145 -51 c7 -8 10 -25 6 -40
-11 -43 -86 -30 -86 15 0 37 55 55 80 25z m-84 -194 c-9 -14 -33 -14 -41 -1
-4 6 -1 18 6 26 11 13 14 13 27 0 8 -8 11 -19 8 -25z"/>
<path d="M5215 5864 c-23 -8 -57 -28 -77 -44 -73 -61 -130 -181 -79 -167 24 6
31 -10 31 -67 0 -75 50 -112 111 -81 40 21 73 93 65 141 -10 53 -26 51 -26 -4
0 -53 -25 -97 -64 -112 -37 -14 -53 4 -60 72 -4 40 -12 67 -22 75 -15 11 -14
15 5 46 34 55 59 72 105 71 22 0 56 -8 74 -18 17 -9 32 -12 32 -6 0 14 -41 39
-79 46 l-34 7 24 12 c13 7 43 16 67 20 23 4 42 11 42 16 0 14 -69 9 -115 -7z"/>
<path d="M3645 5581 c-48 -22 -115 -92 -116 -124 -3 -59 12 -88 61 -116 43
-24 117 -28 145 -8 16 12 10 15 -50 20 -108 10 -146 52 -112 123 33 69 132
106 220 81 36 -10 35 4 -2 26 -37 22 -95 21 -146 -2z"/>
<path d="M3875 5523 c15 -36 17 -61 6 -82 -10 -18 -9 -21 8 -21 34 0 44 75 13
103 -24 22 -36 22 -27 0z"/>
<path d="M3779 5432 c-27 -23 -20 -52 13 -52 33 1 73 34 65 54 -8 22 -49 20
-78 -2z"/>
<path d="M3490 5397 c0 -33 24 -67 48 -67 18 0 14 15 -8 35 -11 10 -20 29 -20
42 0 12 -4 23 -10 23 -5 0 -10 -15 -10 -33z"/>
<path d="M4223 5373 c-23 -9 -14 -33 12 -33 36 0 40 -22 15 -75 -58 -120 -345
-260 -560 -272 -111 -7 -186 10 -262 59 -88 56 -118 110 -81 150 12 13 13 22
6 29 -30 30 -93 -37 -93 -98 0 -35 16 -51 32 -35 8 8 26 -2 62 -35 93 -84 213
-121 354 -108 62 6 72 4 72 -9 0 -22 9 -20 39 7 15 13 62 36 106 52 104 36
176 72 252 129 73 53 111 105 121 166 l7 44 41 -37 c47 -42 54 -44 54 -19 0
54 -117 110 -177 85z"/>
<path d="M4058 4963 c-59 -89 -160 -135 -299 -137 -73 -1 -90 2 -108 18 -25
23 -43 11 -30 -21 13 -36 75 -49 172 -35 109 15 142 25 207 64 60 37 93 83 88
125 -3 27 -3 27 -30 -14z"/>
<path d="M4134 6011 c-76 -19 -124 -82 -124 -164 0 -77 62 -145 142 -154 87
-10 165 46 184 130 24 110 -90 215 -202 188z m121 -57 c22 -22 15 -45 -17 -63
-24 -14 -28 -14 -47 3 -25 23 -26 39 -5 60 20 21 48 20 69 0z m-87 -187 c2
-12 -3 -17 -17 -17 -15 0 -21 6 -21 21 0 25 33 22 38 -4z"/>
<path d="M2688 5484 c-16 -16 -7 -64 18 -93 39 -46 62 -40 25 7 -16 20 -31 50
-33 65 -2 16 -6 25 -10 21z"/>
<path d="M7290 5250 c-30 -4 -143 -5 -250 -2 -480 11 -630 -53 -856 -365 -219
-303 -302 -367 -562 -434 -67 -18 -122 -36 -122 -42 0 -25 216 30 328 83 145
69 224 145 383 365 124 172 239 276 354 316 93 33 186 42 450 44 251 2 345 12
345 35 0 6 -3 9 -7 9 -5 -1 -33 -5 -63 -9z"/>
<path d="M3577 4280 c-13 -52 35 -152 103 -214 93 -84 241 -160 380 -196 91
-24 277 -34 282 -15 2 6 -44 15 -106 22 -210 23 -404 100 -524 208 -64 58
-112 139 -112 187 0 32 -15 38 -23 8z"/>
<path d="M2855 3168 c-11 -6 -23 -16 -27 -22 -11 -16 -10 -56 2 -56 6 0 10 6
10 14 0 18 19 33 53 41 25 7 27 5 27 -22 0 -40 17 -53 66 -53 43 0 66 -22 44
-44 -16 -16 -12 -26 10 -26 24 0 42 32 33 57 -33 88 -152 148 -218 111z"/>
<path d="M1140 4450 c0 -5 4 -10 9 -10 6 0 13 5 16 10 3 6 -1 10 -9 10 -9 0
-16 -4 -16 -10z"/>
<path d="M690 4379 c-14 -24 7 -64 39 -74 25 -8 81 20 81 41 0 11 -6 10 -29
-7 -29 -21 -31 -21 -55 -5 -27 17 -32 31 -16 41 13 8 13 25 0 25 -5 0 -14 -9
-20 -21z"/>
<path d="M617 4266 c-6 -14 0 -26 13 -26 3 0 6 9 7 20 2 23 -12 27 -20 6z"/>
<path d="M4980 3502 c-40 -18 -77 -27 -133 -30 -94 -6 -92 -27 3 -26 45 1 74
8 125 33 36 18 65 36 65 42 0 5 -1 9 -2 8 -2 0 -28 -12 -58 -27z"/>
<path d="M4933 3409 c-86 -8 -111 -16 -96 -29 8 -8 146 3 184 15 21 7 26 26 7
24 -7 -1 -50 -5 -95 -10z"/>
<path d="M4860 3320 c0 -5 18 -10 40 -10 22 0 40 5 40 10 0 6 -18 10 -40 10
-22 0 -40 -4 -40 -10z"/>
<path d="M5234 2156 c-18 -8 -35 -19 -38 -25 -9 -14 -15 -14 72 4 51 11 97 14
150 9 64 -5 75 -4 64 7 -19 20 -207 24 -248 5z"/>
<path d="M5323 2090 c-44 -9 -118 -43 -128 -60 -9 -15 4 -13 70 11 33 12 93
24 133 27 76 5 93 15 41 26 -38 7 -61 6 -116 -4z"/>
<path d="M5696 1793 c8 -33 21 -50 31 -40 10 10 -9 59 -25 65 -9 3 -11 -4 -6
-25z"/>
<path d="M5570 1742 c0 -4 4 -12 9 -17 5 -6 11 -21 13 -35 2 -15 11 -26 22
-28 16 -4 18 0 12 29 -3 19 -14 40 -23 47 -19 14 -33 16 -33 4z"/>
<path d="M5986 1611 c-4 -7 -5 -15 -2 -18 9 -9 19 4 14 18 -4 11 -6 11 -12 0z"/>
<path d="M4990 1485 c7 -8 16 -15 21 -15 5 0 6 7 3 15 -4 8 -13 15 -21 15 -13
0 -13 -3 -3 -15z"/>
<path d="M5906 1471 c-4 -7 -5 -15 -2 -18 9 -9 19 4 14 18 -4 11 -6 11 -12 0z"/>
<path d="M5777 1363 c-10 -9 -9 -23 2 -23 5 0 11 7 15 15 5 15 -5 20 -17 8z"/>
<path d="M2440 3049 c0 -22 117 -132 187 -175 249 -156 599 -228 943 -195 197
20 497 79 888 175 101 25 205 48 233 52 46 6 68 18 56 31 -10 9 -153 -18 -452
-87 -601 -138 -784 -163 -1033 -141 -323 29 -580 131 -766 305 -54 50 -56 51
-56 35z"/>
<path d="M666 2556 c-47 -48 -78 -133 -80 -223 -1 -64 6 -94 19 -82 2 3 8 48
13 100 10 106 29 155 80 205 24 24 30 34 19 34 -9 0 -32 -15 -51 -34z"/>
<path d="M724 2438 c4 -76 36 -142 85 -177 45 -32 44 -13 -3 48 -41 53 -52 75
-76 161 -8 30 -9 25 -6 -32z"/>
<path d="M1480 2480 c-10 -6 -12 -12 -4 -20 11 -11 74 8 74 22 0 11 -52 10
-70 -2z"/>
<path d="M951 2218 c-73 -67 -65 -223 16 -304 63 -63 70 -40 16 47 -48 78 -55
143 -23 217 26 60 23 71 -9 40z"/>
<path d="M4594 2135 c-28 -68 -14 -208 25 -257 30 -36 33 -17 10 58 -18 56
-20 84 -16 152 3 45 4 82 1 82 -3 0 -12 -16 -20 -35z"/>
<path d="M3140 1262 c0 -4 20 -25 45 -46 25 -21 60 -62 76 -92 17 -30 35 -57
40 -60 16 -9 10 36 -11 75 -30 60 -150 158 -150 123z"/>
<path d="M3160 1196 c0 -11 53 -87 57 -82 7 6 -23 60 -41 75 -9 8 -16 11 -16
7z"/>
<path d="M2510 858 c-45 -75 -15 -130 68 -121 53 6 55 23 3 23 -22 0 -46 3
-55 6 -22 9 -20 56 4 87 22 28 25 37 10 37 -6 0 -19 -15 -30 -32z"/>
<path d="M2580 872 c0 -5 9 -12 21 -15 13 -3 19 -1 16 6 -5 15 -37 22 -37 9z"/>
<path d="M2682 648 c-18 -18 -14 -56 8 -78 21 -21 50 -27 50 -10 0 6 -7 10
-15 10 -16 0 -35 30 -35 54 0 9 7 16 15 16 8 0 15 5 15 10 0 14 -23 13 -38 -2z"/>
<path d="M2750 631 c0 -5 7 -12 16 -15 24 -9 28 -7 14 9 -14 17 -30 20 -30 6z"/>
</g>
</svg>
