<?xml version="1.0" encoding="utf-8"?>
<!-- Generator: Adobe Illustrator 21.0.0, SVG Export Plug-In . SVG Version: 6.00 Build 0)  -->
<svg version="1.1" baseProfile="tiny" id="图层_1"
	 xmlns="http://www.w3.org/2000/svg" xmlns:xlink="http://www.w3.org/1999/xlink" x="0px" y="0px" viewBox="0 0 720.3 1280.1"
	 xml:space="preserve">
<title>Anime10_13_94</title>
<g>
	<path fill="#FEFEFE" d="M290.3,341c0.1,0.2,0.2,0.4,0.2,0.7l1.1-0.6C291.2,341,290.7,341,290.3,341z"/>
	<path fill="#FEFEFE" d="M263.7,349.6c0,0-0.1,0-0.1,0c0.1,0,0.2,0,0.3-0.1L263.7,349.6L263.7,349.6z"/>
	<path fill="#FEFEFE" d="M286.5,336.1c0,0,0,0.1,0,0.1l0.2-0.1C286.6,336.1,286.6,336.1,286.5,336.1z"/>
	<path fill="#FEFEFE" d="M303.4,273.7l0.1-0.1L303.4,273.7L303.4,273.7l0.1,0c0,0,0,0,0.1,0c0-0.1-0.1-0.2-0.1-0.3c0,0,0,0-0.1,0
		V273.7z"/>
	<path fill="#FEFEFE" d="M274.7,350c-0.3,0.1-0.6,0.4-0.9,0.4C274.2,350.5,274.4,350.3,274.7,350C274.7,350,274.7,350,274.7,350z"/>
	<path fill="#FEFEFE" d="M196.7,635.6c2.4-1.4,4.9-2.6,7.6-3.4C201,631.9,198.5,632.8,196.7,635.6z"/>
	<path fill="#FEFEFE" d="M296.7,340.7l0.3,0.1c0,0-0.1-0.1-0.1-0.1c0-0.1,0-0.1,0.1-0.2L296.7,340.7L296.7,340.7z"/>
	<path fill="#FEFEFE" d="M277.5,293c0-0.1-0.1-0.2-0.1-0.3c0-0.1,0-0.2,0-0.4l-3.2,1L277.5,293z"/>
	<path fill="#FEFEFE" d="M301.9,661.8c-0.1,0-0.1,0-0.2,0.1L301.9,661.8z"/>
	<path fill="#FEFEFE" d="M187.6,205.9L187,207c0,0,0,0,0,0c0,0,0.1,0,0.1,0l0.4,0.6c0-0.1,0-0.2,0-0.3c0-0.5,0.1-0.9,0.3-1.4l0.1,0
		c-0.2-0.2-0.4-0.4-0.6-0.6C187.3,205.5,187.4,205.7,187.6,205.9z"/>
	<path fill="#FEFEFE" d="M284.8,267.7c0,0.1,0.1,0.1,0.1,0.2c0,0,0,0,0,0c0.4-0.2,0.8-0.3,1.3-0.5L284.8,267.7z"/>
	<path fill="#FEFEFE" d="M301.3,662.3c-0.1,0.1-0.3,0.3-0.3,0.5L301.3,662.3z"/>
	<path fill="#FEFEFE" d="M257,337.6C257,337.6,257,337.7,257,337.6C257,337.7,257,337.7,257,337.6L257,337.6L257,337.6z"/>
	
		<ellipse transform="matrix(0.1691 -0.9856 0.9856 0.1691 -50.9497 367.0258)" fill="#FEFEFE" cx="192.2" cy="213.7" rx="0" ry="0"/>
	<path fill="#FEFEFE" d="M478.2,3.1c0-2.5-0.5-3.1-3.1-3.1C317.8,0.1,160.4,0.1,3.1,0C0.5,0,0,0.5,0,3.1C0,143.7,0.1,284.3,0.1,425
		c0,140.6,0,281.3-0.1,421.9c0,2.5,0.5,3.1,3.1,3.1c157.4-0.1,314.7-0.1,472.1,0c2.5,0,3.1-0.5,3.1-3.1
		C478.1,565.6,478.1,284.4,478.2,3.1z M392.7,609.9l0.1-0.1l0.1,0.2L392.7,609.9z M431.6,574.4c-5,12.4-14.9,20.4-25.4,27.8
		c-3.3,2.3-6.8,4-10.3,5.9c0,0-0.1,0.1-0.1,0.1l0,0l-0.4,0.2l-1,0.7l-0.5,0.2l0.3-0.4h0.1l1.2-0.5l0.4-0.3l0,0c0,0,0.1-0.1,0.1-0.1
		c8.9-7.6,18.9-13.9,26.6-23L431.6,574.4h-0.1l0.2-0.2l0.1-0.6l0.2,0.2l-0.3,0.4L431.6,574.4z M424.3,580.5
		c-21.6,24.4-49.9,39.1-78,54l-2.9,1.5c0,0,0,0,0,0.1l0,0l2.1,0.3l-2.1,1.6L304,661.2c0,0,0-0.1-0.1-0.1l0,0.1l-1,0.1
		c0,0-0.1,0.1-0.1,0.1c-0.3,0.2-0.6,0.3-0.9,0.4l-0.2,0.1c-0.1,0.1-0.2,0.1-0.2,0.2c-0.1,0.1-0.1,0.1-0.2,0.2l-0.3,0.5
		c0,0.1-0.1,0.2-0.1,0.2c-1.1,1.1-1.9,0.5-2.8-0.4c0.1-0.1,0.2-0.1,0.3-0.2c-0.1,0-0.2,0.1-0.2,0.1c-19.3,12.3-37.1,26.8-57.2,37.7
		c-9.4,5.2-19.4,9.3-30.6,7.8c0,0,0,0,0,0c-15.3-0.7-22.4-11.2-20.9-31.5c0.5-7.4,2.4-14.6,6.1-21.1c0-0.1,0-0.1,0-0.2
		c0,0.1-0.1,0.1-0.1,0.2c-4.2,0.1-7.4,2.6-10.8,4.5c-14,8.2-28.9,5.6-43.9,3.9c0,0,0.1,0,0.1-0.1c0,0-0.1,0-0.1,0
		c-5.6,0.6-10.2-1.7-15.3-3.9c-5-2.2-11.1-2.5-16.8-2.9c-5.7-0.4-9.1-0.5-12-5.3c-0.5-0.9-2.9-0.7-4.5-0.9c0,0-0.1,0-0.1,0
		c0.1,0,0.1,0.1,0.2,0.1c-11,3.3-22,6.8-33.9,5.6c0,0,0.1,0,0.1,0c-0.1,0-0.1,0-0.2,0c-6.1,0.7-11-1.7-14.9-6.2
		c-7.2-8.2-12.2-17.3-12.3-28.6c-0.1-13.1,11.2-19.9,22.9-13.9c5.8,2.9,9.6,7.7,12.4,13.3c0.5,1,0.6,2.7,2.7,1.8
		c2.1-0.9,0.5-1.9,0.6-2.8c0.7-8.4-8.1-14.9-5.2-23.8c0.1-0.4-0.5-1.1-1-1.5c-13.4-12.1-15.4-26.9-5.7-42.2
		c10.4-16.5,24.9-28.5,41.6-39.2c-8.6-2.1-15.2-6.2-19.3-13.7c0.5-0.2,0.7-0.4,0.8-0.3c5.6,1.3,12.4,6.7,9.8-6.6
		c-2.1-10.7,7.6-17.5,18.5-15c1.5,0.3,3.3-0.1,4.8-0.3c11.2-1.9,18.2,3.9,24.1,12.3c0.8,0.9,1.6,1.8,2.5,2.5c0.5-1,1-2.1,1.3-3.3
		c17.3-68.7,34.6-137.3,51.9-206c1.1-4.4,2.5-8.6,6.4-11.2c1.8-1.2,0.6-2-0.1-2.9c-12.3-15.9-19.7-34.2-25.4-53.4
		c-1.5-5.1,0.3-9.2,4.4-12.2c13.9-9.9,27.6-19.4,45.8-20.6c27-1.9,53.5-2.8,79.9,4.9c8.7,2.5,12.6,11.1,20.6,13.8c0,0,0.1,0,0.1,0
		c0,0,0,0,0,0c0,0,0.1,0,0.1,0c0,0,0,0,0,0l3.8,2.5c0,0,0,0,0,0h0.1c0,0.2,0,0.4,0.1,0.5c0-0.1,0-0.2,0.1-0.4l1.1,1.1c0,0,0,0,0,0
		l0.1,0.1c0,0.2,0,0.4,0,0.6c0-0.1,0.1-0.3,0.1-0.4l1.2,1.5c0,0,0,0,0,0c2.3,2.8,1.6,5.9,0.9,9c-4.4,19.8-12.8,37.7-25.6,53.5
		c0,0,0,0-0.1,0c0.1,0.1,0.1,0.1,0.2,0.2c-0.2,0.4-0.6,0.9-0.5,1.2c14.3,24.2,16.7,52.1,23.8,78.5c17.9,66.5,34.5,133.5,51.6,200.2
		c0.1,0.3,0.2,0.6,0.4,0.9l20.4,0.5v0.2l-19.7,1.3c0,0,0,0,0,0.1v0.6l35.9,0.7c0,0,0,0.1,0.1,0.1l7.9,1.6l-0.1,0.8l-7.9-1.3v-0.1
		l-5.3-0.3c0,0,0,0,0,0h0v1c0,0,0,0,0,0c3.6,0.9,7.4,1,11.1,1.9c5.3,1.3,6.4,5.1,5.6,10.2l2.5-6.4
		C434.1,569.9,429,575.2,424.3,580.5z"/>
	<path fill="#FEFEFE" d="M288.9,261.6c0,0.1,0.1,0.1,0.1,0.2c0,0,0,0,0,0.1c0.3-0.2,0.6-0.3,0.9-0.5L288.9,261.6z"/>
	<path fill="#FEFEFE" d="M322.8,342.5c-0.1,0.1-0.1,0.1-0.2,0.2c0.1,0.1,0.2,0.1,0.3,0.2C322.9,342.8,322.9,342.7,322.8,342.5z"/>
	<path fill="#FEFEFE" d="M305.1,321.2c-0.1,0.4-0.3,0.8-0.5,1.1l-0.1,0.3l0.2-0.2C304.8,321.9,305.1,321.6,305.1,321.2z"/>
	<path fill="#FEFEFE" d="M223,290.2c0,0.1-0.1,0.2-0.1,0.2c0.3,0.1,0.6,0.1,0.9,0.2C223.6,290.4,223.3,290.3,223,290.2z"/>
	<path fill="#221F1A" d="M93,579.9c0,0.1,0,0.2,0,0.4c0,0.1,0,0.1-0.1,0.2l2.6,0.3L93,579.9z"/>
	<path fill="#221F1A" d="M347.8,622.3c8.4-3.5,17-6.4,24.8-11c16.3-9.6,20.4-18.9,16.1-37.3c-1.6-7-3.3-13.9-5-20.9l0.1,0v-0.6
		c0,0,0,0,0-0.1l-0.1,0l-0.7-2l0,0c-0.1-0.3-0.3-0.6-0.4-0.9c-17.1-66.7-33.7-133.7-51.6-200.2c-7.1-26.4-9.6-54.2-23.8-78.5
		c-0.1-0.3,0.3-0.8,0.5-1.2c-0.1-0.1-0.1-0.1-0.2-0.2c-2.7-0.2-2.4,3-4.1,3.9c0,0.1,0.1,0.2,0.1,0.3c2.4,0.6,3.8,1.9,2.9,4.6
		c0,0-0.1,0-0.1,0l-0.8,0.6c0,0-0.1,0.1-0.1,0.1h0.1c-0.1,0.1-0.1,0.1-0.2,0.2l-0.2,0.4c-0.1,0.3-0.2,0.6-0.3,0.8
		c-0.2,0.2-0.5,0.2-0.7,0.3l-0.5,0.3c0,0-0.1,0.1-0.1,0.2h0.1c-0.1,0.1-0.2,0.1-0.3,0.2c-3.6,4.3-8.8,5.8-13.8,7.5l-0.1-0.1
		c0,0,0,0.1,0,0.1l-12,3.6c0,0.1,0,0.2,0,0.4c0,0.1,0.1,0.2,0.1,0.3l8.1-0.8c8.4-2.8,17.4-4.2,23.6-11.6c0.9-1.1,1.5,1.4,1.7,2.3
		c7.7,29.6,15.5,59.2,23.2,88.8l9.2,35.6c0.4,1.7,1,3.4-1.5,3.9c-2.5,0.5-1.6-1.7-1.9-2.7c-4.1-15.8-8.6-31.5-11.9-47.5
		c-2.4-11.8-9.6-17.8-20.4-20.9l-6.9-2.2l-3.8,2.7c0,0.1,0,0.1-0.1,0.2c0,0,0.1,0.1,0.1,0.1l14.3,4.2l-0.3,1l-15.6-4.1l-15.8,6.7v0
		l-5.2,1.4l-0.1,0h-0.1l-0.1,0l-1.2,0.5l-0.1-0.3l1.3-0.2l0.1,0h0.1l0.1,0l5-2.4c0,0,0,0,0.1-0.1l10.9-5.7c-0.1-0.3-0.1-0.5-0.2-0.7
		c-9.5-0.7-15.2,6-22.5,7.1l0,0l-4,1.4c-0.1,0.1-0.2,0.1-0.3,0.1c0,0,0.1,0,0.1,0h0h-0.3h-1l1-0.5c0,0,0.1,0,0.1,0.1l3.5-1.8
		c0,0,0,0,0,0l13.3-7.4l-12-1.4c0,0,0,0,0,0l-11.3-0.7v-0.2c0,0,0,0-0.1,0c0,0.1,0,0.1,0,0.2h-3.1v-0.4h3.1c0,0,0,0.1,0,0.1h0.1
		v-0.1h11.4v0l13.1,1.2c0,0,0.1,0,0.1-0.1l4.9-2.5c0,0,0-0.1,0-0.1c-13.8-2.6-27.8-2-41.7-2.1c-2,0-3.9-0.2-5.9-0.3
		c0.2,0,0.4-0.1,0.6-0.1c-0.2,0-0.4,0-0.6,0.1h-1.7c-0.6,0.2-1.3,0.3-2,0.3c-14,1.8-28.2,2.5-41.3,8.4c-4.6,2.1-10.6,4.2-10.2,10.4
		c0.3,6.1,6.3,7.6,11.1,9c36.8,10,73.8,9,110.8,1.5c0,0,0,0.1,0.1,0.1l3.6-1l0.3,0.7l-3.9,1.4c-37.7,10.4-75.4,10.2-113.2,0.1
		c-0.8-0.1-1.5-0.4-2.2-0.8c-8.7-7.1-9.9-1.2-11.4,6c-2.4,11.3-5.5,22.5-8.5,33.7c-0.3,0.9,0.7,3.5-1.9,2.8
		c-2.6-0.7-1.7-2.3-1.3-4.1c7.9-31.3,15.8-62.7,23.7-94l7.4-29.3c6.3,8.2,15,9.9,24.8,11.6c0-0.1,0.1-0.1,0.1-0.2
		c-5.9-2.7-11.1-4.8-15.9-7.4c-2.7-1.5-7.2-3.3-4.6-7.2s4.6,1.6,7.2,2.1c0.1,0,0.1,0.1,0.2,0.1l3.8,1c0,0,0-0.1-0.1-0.1
		c-0.9-2.3-3.4-2.5-5.1-3.6c-1.7-1.1-2.2-1.6-1.9-3.1c-0.4,0.1-0.5-0.4-0.6-0.7l-0.2-0.2c-12-14.6-19.3-31.7-26.2-49.6l5.5,2.4
		c0,0,0,0,0,0l3.4-1.3c-2.2-1.2-4.5-2.2-6.4-3.7c-2-1.5-5.8-4.3-4.6-8.3c1.2-4,5.2-6.2,9-7.6c1.8-0.6,0.8,1.1,0.9,2.3
		c0.2,0.2,0.4,0.4,0.6,0.6l2-0.6c0,0,0,0,0,0l0.9-3.5l3.7,2.9l0.1,0.1c0-0.1,0-0.2,0-0.2l4.1-0.1c-2.2-1.8-5.3-3.1-4.8-6.6
		c0.6-3.7,4-4.9,6.9-5.9c25.6-8.5,51.9-8.5,78.4-6.1c2.6,0.2,5.1,0.7,7.7,1.1c0.2,0,0.4,0,0.5,0l9.4,2c0,0,0,0,0,0
		c0,0-0.1,0-0.1-0.1c5.4,0.5,10.4,2.6,15.2,5.2c0.3,0.1,0.6,0.4,0.8,0.7l0.5,0.7c0,0,0.1,0.1,0.1,0.1c3,0.3,2.7,2.6,2.7,4.6
		c0,2.1-1.3,1.9-2.7,1.9c0-0.1,0.1-0.3,0.1-0.4c-0.1,0.1-0.1,0.1-0.2,0.2c0,0,0,0,0.1,0c0,0,0,0-0.1,0v0c-0.3,0.1-0.5,0.3-0.8,0.4
		c-2.8,2.2,1.6,8.5-4.4,8.9c0,0,0,0,0,0l-0.1,0.1h0h0c-1.5,3.7-4.4,4.4-8,4l0,0h0l-2.5,0.7c0,0,0,0,0,0c1.8,3.7,4.2,1.9,6.6,0.9
		c0.9-0.4,2.2-0.2,3.3-0.2c0,0,0,0,0,0h0.1h0.4c0,0-0.1,0-0.1-0.1c0.1-4.9,5.8-2.5,7.9-6.2c2.1-3.7,2.3-10.6,9.7-8.8
		c-8-2.7-11.9-11.3-20.6-13.8c-26.4-7.7-52.9-6.8-79.9-4.9c-18.2,1.3-31.9,10.8-45.8,20.6c-4.2,3-6,7.1-4.4,12.2
		c5.7,19.2,13.1,37.5,25.4,53.4c0.7,0.9,1.9,1.7,0.1,2.9c-3.9,2.6-5.3,6.8-6.4,11.2c-17.3,68.7-34.5,137.3-51.9,206
		c-0.4,1.1-0.8,2.2-1.3,3.3c-0.9-0.8-1.8-1.6-2.5-2.5c-5.9-8.4-12.9-14.2-24.1-12.3c-1.6,0.3-3.3,0.7-4.8,0.3
		c-10.8-2.5-20.6,4.3-18.5,15c2.7,13.3-4.2,8-9.8,6.6c-0.1-0.1-0.3,0.1-0.8,0.3c4.1,7.5,10.7,11.6,19.3,13.7
		c-16.7,10.8-31.3,22.8-41.6,39.2c-9.7,15.3-7.7,30.1,5.7,42.2c0.5,0.4,1.1,1.1,1,1.5c-2.9,8.9,5.9,15.3,5.2,23.8
		c-0.1,0.9,1.5,1.9-0.6,2.8c-2.1,0.9-2.2-0.8-2.7-1.8c-2.9-5.6-6.6-10.4-12.4-13.3c-11.8-6-23,0.8-22.9,13.9
		c0.1,11.2,5.1,20.4,12.3,28.6c3.9,4.6,8.8,6.9,14.9,6.2c0.1,0,0.1,0,0.2,0c7.3-3.4,14.6-7.4,22.2-10c4.1-1.4,7.6,2.7,11.5,4.3
		c0,0,0.1,0,0.1,0c1.6,0.3,4,0.1,4.5,0.9c2.9,4.8,6.2,4.9,12,5.3c5.7,0.4,11.8,0.7,16.8,2.9c5,2.2,9.7,4.4,15.3,3.9c0,0,0.1,0,0.1,0
		c5.9-2.9,12.3-4.6,18.8-5.2c9.7-0.9,16-7.8,23.2-13.1c4.6-3.4,9-7.1,13.7-9.9c1.8-2.8,4.3-3.7,7.6-3.4c4.7-1.4,9.9-1.7,16.2,0.1
		c15.7,4.4,32.8,2.9,50.6,2.4l-6.1,4.8c-10.7,8.6-21.4,17.3-32.1,26c-1.5,1.3-2.3,1.9-2.9-0.7c-2-8.4-6.7-14.6-14.9-18l0,0h0
		c-8.7-2.2-15,1.1-19.5,8.5c0,0.1,0,0.1,0,0.2c-3.7,6.5-5.6,13.7-6.1,21.1c-1.5,20.3,5.6,30.8,20.9,31.5
		c38.5-18.3,67.1-50.3,102.1-73.6C323.4,627.1,336.3,627.2,347.8,622.3z M237.1,333.8l-2,0.3L237.1,333.8z M187.4,351.6
		c11.8,11.7,28,9.9,42.2,13.5C214.5,368.2,185.2,358.4,187.4,351.6z M246.1,366.8l-8.3-0.9h-5.9c0,0,0-0.1-0.1-0.1l-1.9-0.5l1.8-0.4
		l0,0.1l5.9,0.5l8.4,0.7V366.8z M261.2,350.4h-0.3v-0.2h0.3V350.4z M273.8,350.4c0.3,0,0.6-0.2,0.9-0.4c0,0,0,0,0,0
		C274.4,350.3,274.2,350.5,273.8,350.4z M311.5,361.9l0.1,0l0.5-0.4l0.3,0.2l-0.7,0.2L311.5,361.9L311.5,361.9z M311.2,362l0.2-0.1
		l0.1,0.1L311.2,362l-0.9,0.4l-0.1-0.3L311.2,362z M275.7,372.7l4-0.6l5.8-0.7c0,0,0,0,0,0c10.5-1.7,20.7-4.1,30.2-9.1
		c0.1,0,0.1,0,0.1,0l1.6-1.1l0.7-0.3L318,361l0.1,0l-0.1,0l-1.9,1.6c-8.7,7.2-19.3,8.5-29.9,9.8l0,0l-6.6,0.3l-3.9,0.6V372.7z
		 M290.7,395.2c-0.7-1.9-1.5-3.7-3.8-3.2c-2.3,0.5-1.7,3-2.3,5.1c-1.7-2.1-1.7-3.9-0.3-5.4c1.1-1.3,2.9-1.8,4.5-1.1
		C290.7,391.3,291.4,392.9,290.7,395.2z M263.2,404.9c1.7-1.9,3.8-2.1,6.4-0.2c-2.9-0.1-5.6-0.1-5.9,3.1s2.4,3.9,5.4,4.2
		c-2.8,1.9-4.8,0.8-6.3-1.1C261.3,409.1,261.5,406.8,263.2,404.9z M203.2,385.7c2.1-2,5.1-2.3,7.4-0.1c2.3,2.2,2.4,4.8,0,7.2
		l-0.4,0.5c0,0-0.1,0-0.1,0h-0.7l0.4-0.5l0,0l0.4-0.6l0.4,0.5c-0.1-0.2-0.2-0.3-0.3-0.4c0.8-2,0.9-3.9-0.9-5.4
		c-1.2-1.1-3-1.3-4.3-0.4c-2.1,1.3-2.1,3.3-1.6,7C201.3,389.9,201.1,387.7,203.2,385.7z M145.5,493.9c9.6-3.3,19.4-5.4,29.4-6.9
		l-8.6-0.9c0.5-0.1,1.1-0.2,1.6-0.3c-0.5,0.1-1,0.1-1.5,0.2v-0.1h-0.3c-0.1,0.1-0.2,0.1-0.3,0.1l0.3-0.1c-3.9,2.7-8.3,3.1-12.9,2.8
		l1.6-0.3c-0.5,0.1-1.1,0.1-1.6,0.3l-4.4,0.7l0,0.1l-4.2,1.7l16.5-65.1l4.2-16.7c5,1.9,10,4.2,15.1,5.7c27.7,8.4,56.3,10.4,85,10.9
		c0.1,0,0.1,0,0.2-0.1c22.3-0.3,44.6-1.6,66.2-7.6c3.1-0.9,6-2.2,9-3.3c0,0,0,0,0,0.1c2.7-2,4-1.4,4.8,1.9
		c7.4,29.3,14.9,58.6,22.4,87.9c1,3.9-2.4,3.8-4.2,4.6c-17.9,8.4-37,11.4-56.4,13.7c-12.8,1.5-25.8,1.9-38.6,2.7
		c-1.1,0.1-2.8,0.9-3.3-1.1c0,0,0,0,0,0c0,0,0,0,0,0c-0.1-0.7-0.1-1.3-0.2-1.9s-0.3-0.3-0.9-0.7c0.2,6.9-7.3,7-9.5,11.7c0,0,0,0,0,0
		l2.7-0.6l0,0l0,0h0c0,0,0,0,0,0c2.1,2.7,3.4,6,2.3,9.2c-1.1,3.3-3.8,3.1-6.5,3.7c-2.7,0.5-3.5,1.9-5.2,3v0h8c0,0,0,0,0,0.1
		c4.5-2.1,2.9,2.1,2.4,3c-2.7,5.5-5.8,10.8-8.7,16.3c-0.1,0.2-0.2,0.5-0.4,0.7c-0.2,3.9,1.8,0.9,2.8,0.8c1-0.1,1.1-0.7,1.7-1v0
		l1-3.7c1.5,10.7,0.3,19.1-11.2,22.2c-2.1,0.6-1.9-1.8-2.1-3.2l0,0c-1.1-1.4-2-2.9-3.2-4.1s-3.2-2.7-5.5-2c-2.3,0.7-2.7,3-2.7,5.1
		c-0.1,3.7,0.1,7.4,0,11.2c0,0.7-1.1,1.3-1.7,1.9c-0.2-0.7-0.4-1.4-0.6-2.1c-1.9-10.5-3.8-21-5.7-31.5c-0.3-1.3-0.2-2.3,1.4-2.8
		c5.6-1.7,7.8-8.4,13.8-9.5c-0.1,0-0.1,0-0.2-0.1c0,0,0.1,0,0.1,0.1c-4.6-0.2-9.3-1-11.6,4.8c-0.4,1.1-2.8,1.3-4.3,1.9l-1.2-3.3
		c0,0,0,0,0,0c-0.8-2.9-3.1-7.2-2.1-8.4c2.1-2.3,5.6-4.1,9.8-2c2.1,1,0.5-3.4,3.7-3.9c6.6-1,13.1-3.2,19.6-5l-0.7-2.1c0,0,0,0,0-0.1
		l-0.8-0.1c0,0,0,0-0.1-0.1l-5.6,0.8c-4.9,1.4-9.8,3.1-14.8,4.1c-5,0.9-3.8-5-7-6c-0.6-0.3-1.1-0.7-1.6-1.2c-4.6-3-10-4.7-13.6-9
		c0,0,0,0,0.1,0c0,0,0,0,0,0l5.2-2.4l0,0l5.9-5.3l0.9-3.3l0.1-0.5c0-0.2,0-0.5,0.1-0.7l0.2-1.5c-3.6-14-8.4-17.2-23.8-16.1v0l-4.8,1
		c0,0,0,0,0,0c0,0,0,0,0,0c-8.6,0.8-17,3.2-24.8,6.9l-4.4,2.1c0,0,0,0,0,0c-7,4.5-12.3,1.2-17.1-3.8c0,0,0.1,0,0.1,0
		c0,0-0.1,0-0.1,0C142,496.4,142.2,495,145.5,493.9z M335.9,576.9l0.8-0.5l0.1-0.2h0.2l-0.3,0.2l-0.4,0.9l0,0l-0.4,0.5l-0.6-0.4
		L335.9,576.9L335.9,576.9z M337,569.7c0.2-4.3-0.2-8.5-2.1-12.5C339.2,560.8,338.4,565.2,337,569.7z M336.6,553.9L336.6,553.9
		l-0.7-0.6l-0.5-0.2l-0.1,0.1l-0.5-0.3l0.5,0.3l0.1-0.1l0.4,0.3l0.9,0.4l0,0c4.6,2.2,4.9,6.2,4.3,10.7
		C341,560.3,339,557.1,336.6,553.9z M333.8,556.1l-0.6-0.7l0,0l-0.4-0.4l0.2-0.2l0.4,0.5l0,0l0.6,0.5h0.1l0.3,0.9L333.8,556.1
		L333.8,556.1L333.8,556.1z M279.6,553.5c2.7-1.8,4.8-1.5,6.6,0.5c1.6,1.7,1.6,4.4,0,6c-1.8,2.1-3.9,2.4-7,0.5
		c3.5,0.1,6.2-0.1,6.2-3.4S282.6,553.6,279.6,553.5z M212,545.6c-0.4,0.8-0.7,1.7-0.9,2.6c-0.6-0.6-1.2-1.3-1.7-1.9
		c-5.3-7.5-12.3-13.1-20-18.1c8.4,3.1,15.1,8.4,20.8,15.8l1.1-11.4c3.4,0.7,6.6,1.5,9.3,3.9l-0.1,0.2l0.1-0.3l1.2,0.7h0.1l0,0.1
		l0.2,0.1c0.1,0,0,0.1,0.1,0.2l-0.2-0.3l-0.1-0.1l-1.3-0.5C208.2,530.6,213.9,541.9,212,545.6z M207.8,596
		c-2.5-15.3-5.4-30.5-10.2-45.2C204.7,565,207.1,580.2,207.8,596z M187.3,527.2l1.1,0.3l-0.2,0.3L187.3,527.2L187.3,527.2z
		 M186.2,527l0.2-0.3l0.9,0.5l-0.1,0.1L186.2,527z M167.8,520.1c8.6,0.3,17-0.5,24.7-4.8l-0.1-0.1l0.7-0.6l-0.3,0.8v0.2
		C185.6,522.5,176.7,521.6,167.8,520.1z M185,526.2l-0.3,0.3l-0.5-0.3l0.3-0.2L185,526.2z M183,525.6l-0.3,0.1l-0.3-0.1H183z
		 M157.6,510.1l-0.8,0.3l0.3-0.7l0,0c0,0,0-0.1,0-0.1c6.7-8.2,22.2-12.5,32.3-8.3C176.8,500,166.9,503.7,157.6,510.1z M166.6,519.5
		l-0.1,1l-7.6-1.4v-0.5L166.6,519.5z M204.2,500.4C204.2,500.4,204.2,500.4,204.2,500.4L204.2,500.4l0.1,1.1l0,0.1l0,0l0.2,0
		l0.4-0.1v0.2l-0.4-0.1l-0.3,0.1v-0.2l-0.4-0.8c0,0,0,0-0.1,0c-2.9-2-5.9-3.9-10.2-3.6c5.8,4.6,7.8,10,4.3,16.6l0.1,0l-1.1,1.7
		l0.4-2.1c3-9.4-0.5-13.8-14.6-16.9C191.6,495.9,198.9,492.8,204.2,500.4z M200.9,494.3c4.6-1.5,8.6-0.3,11.2,3.2s5.8,9.1,3.6,15.1
		C214.8,503.3,212.1,495.8,200.9,494.3z M196.5,516.2l-0.2,0.2c-0.1-0.1-0.2-0.1-0.2-0.3s0.1-0.1,0.2-0.2L196.5,516.2z M193.6,514.4
		l-0.3,0.2l0,0.1v-0.1l0,0l0.1-0.2H193.6z M217,538.5l3.1,1.7c-0.8,0.5-1.6,1.4-2.4,1.3c-0.8-0.1-1.2-1.2-1.7-2
		S216.6,538.9,217,538.5z M154,512.5l0.5-0.6c0,0,0.1,0,0.1,0l0.8-0.6l0.3-0.5l0.3,0.3l-0.5,0.2l-0.6,0.8c0,0.1-0.1,0.1-0.1,0.1
		l-0.5,0.5L154,512.5z M154.2,512.8l-0.5,0.3l0.3-0.5L154.2,512.8z M141.6,513.1c2.9-4.6,6.8-7.7,12.7-7.1
		c-4.7,2.7-12.3,2.6-10.8,11.3l1.5,0.9l-1.6,0.3C139.3,517.8,140.3,515.2,141.6,513.1z M152.9,514.4l-0.1,0.2l-0.1,0.1l0.1-0.1
		L152.9,514.4z M129.8,485.6l0.2,0.1c0.1,0.1,0,0.1,0,0.2l-0.5-0.1L129.8,485.6z M128.8,484.8L128.8,484.8l0,0.7l-0.7-0.2
		L128.8,484.8c-0.3,0.1-0.5,0.2-0.7,0.4l-14.7-4.5C120.6,480,125,481.4,128.8,484.8z M129.7,508.5l1.3,1.2c0,0,0,0,0,0
		c0.1,0.1,0.2,0.1,0.3,0.3l1.4,0.9v0l1,0.9l0.9,0.7l0.4,0.5l-0.7-0.1l-0.9-0.6l-1.1-0.9c0,0,0,0-0.1,0l-1.9-1.5l-1.1-1
		c-6.4-5.2-10.7-12.3-15.7-18.7c-3-3.9-6.2-7.4-10.4-9.7C116.7,485.3,120.3,499.7,129.7,508.5z M93.8,490.6c0.5-4.4,2.9-7.6,9.2-6.2
		c-5,1-7,3.8-7.1,7.7c-0.3,7.8,5.4,11.6,11,15.2c0,0,0,0.1,0.1,0.1v-0.1l3.3,1.9l-3.3-0.9C98.9,505.2,92.8,500.3,93.8,490.6z
		 M111.1,509.5l-0.3,0.3l-0.7-0.5h0.1L111.1,509.5z M109.8,514.3l-0.7-0.1L109.8,514.3z M61.5,641.2c-4.2,1.7-8.6,3.3-12.9,5
		c-0.8,0.3-2.5,0.1-2.1,1.9c-0.1,0.1-0.1,0.1-0.2,0.1h0.2l0.8,1.1l0,0l0.6,0.7l0.5,0.6l0.1,0l-0.1,0.1h0.1l0,0.1l0.2,0.1
		c0,0,0,0.1,0,0.2l-0.2-0.3l-0.1-0.1l-0.1-0.1l-1-0.2v0l0,0l-0.5-0.5c0,0,0,0-0.1,0l-1.7-1.8c-7.1-8-10.9-18.4-10.5-29.1
		c0.2-8.2,6.4-11.2,13.2-6.8c0,0,0,0.1,0.1,0.1v-0.1l0.7,0.6l0,0l0.4,0.5l-0.9-0.1h-0.1L48,613l0,0c-1.9,0-4.1-0.6-5.8,0.1
		c-4.6,1.8-5.2,5.9-4.8,10.2c0.1,1,0.3,0.7,6.2-1.4c3.5-1.3,6.4-4.6,10.7-3.2c-3.3,1.7-6.8,3.1-9.8,5.2c-3,2.1-7,0.1-6.3,5.4
		c0.7,5.3,2.5,6.6,7.4,3.9c3.7-2.1,7.9-3.4,11.9-4.9c0.7-0.3,1.8-1.5,2.5,0.1c0.7,1.6-0.9,1.5-1.6,1.8c-4,1.8-8.2,3.2-12.1,5.3
		c-1.7,0.9-6-0.3-4.5,4.1c1.5,4.4,3.1,6.7,8.1,4c3.5-1.9,7.4-2.9,11.1-4.1c0.9-0.3,2-1.6,2.7,0.1C63.8,639.7,62.4,640.9,61.5,641.2z
		 M76.4,644.7c-4.6,2.1-10.4,8.8-9.9-4.3c0.4-10.6-6.4-19.4-12.9-27.6c0,0-0.1,0-0.1,0l-5.8-3.5c2.4,0.8,4.7,1.9,6.8,3.1
		c1.1,0,1.9,0.9,2.7,1.6c0.2,0.2,0.5,0.4,0.7,0.6c6.8,5.1,12,12,17.2,18.8c4.1,0.8,5.3,4.1,5.8,7.5S78.1,643.9,76.4,644.7z
		 M207.3,618.9c0,0.1-0.1,0.1-0.1,0.2c0,5.4-4,6.9-8.1,8.3c-1.7,0.5-3.7,0.6-5.6,0.8c0,0,0,0,0,0c-0.3,0.2-0.7,0.3-1.1,0.5l0,0
		c-0.1,0.1-0.2,0.1-0.3,0.3c0.2,2.3,2.5,0.1,3.1,1.7c-3.5,3.3-4.8,9-10.8,10.6c-2.5,0.6-3.2,0.3-3.2-2c0,0-0.1,0-0.1,0
		c-0.9,8.6-9.4,9.5-14.2,14.2c0,0,0,0.1,0,0.1c-0.1,0.1-0.3,0.2-0.5,0.2l-0.8,0.6c0,0.1,0,0.1-0.1,0.2c-6.2,2.8-5.2-1.8-5.3-5.1
		c0,0,0,0-0.1,0c-4.9,9.8-14.9,8.4-23.2,10.7c-0.1,0-0.1-0.1-0.2-0.1c-3.3,0.7-5.9-0.8-8.3-2.8c1.4-1.6,3.2-2.7,5.1-3.6
		c-9.4,2.4-18.9,0.8-28.4-0.3c-0.1-0.1-0.1-0.1-0.1-0.2c0,0.1,0,0.1,0.1,0.2c-2.6,0.2-5.2-1.9-4.7-3.3c0.5-1.4,3.9-2.9,6.6-2.5
		c0,0,0.1,0.1,0.1,0.1l3.6,0.6c-4.1-3.3-7.6-4.1-11.6-1.9s-8.9,1-12.4-2.2c-1.3-1.1-1.5-3.3-2.3-5c1.3,0,2.6,0.1,3.9,0.1
		s2.5-0.3,4.6-0.7C81.3,635.9,72,624.3,72.5,614l6,4c-0.6-5.2-4.8-6.7-7.9-9.4c-3.1-2.7-3.9-6.8-2.2-10.9c0.1,0.1,0.2,0.1,0.3,0.2
		c-0.1-0.1-0.1-0.1-0.2-0.2c-0.1-0.1-0.1-0.3,0-0.5c0,0,0,0,0.1,0c0,0,0,0,0,0c1.4-2.9-3.4-1.9-2.7-4.3l-1.3-1.1c0,0,0,0,0-0.1
		c0,0,0,0-0.1,0.1c-8.9-7-11.8-20-6.9-31.7l2.3,5.6c3.8-0.9-2.4-4.3,1.2-5.3c1.2-15.2,12.5-23.3,22.8-31.7
		c7.4-6,14.1-14.2,25.1-14.5c0.2,0.1,0.5,0.2,0.7,0.1l0.5,0.2l10.7,1.3c0,0,0,0.1,0.1,0.1c0,0,0-0.1,0-0.1l8.6,1.7
		c4.1,0.3,7.9,1.3,11.2,3.8c0.1,0,0.2,0,0.3,0c-0.1,0-0.1-0.1-0.2-0.1c15.3,0.7,28.9,6.7,42,13.9c0.9,0.6,1.4,1.8,2.2,2.7l-0.1,0.1
		c0,0,0,0,0,0c6.4,0.1,7,6.9,11.1,9.6c0,0.1,0,0.3,0.1,0.4v-0.5l0.8,2.2l-0.8-0.5c0,0,0,0,0,0.1c-3.3,1.6,2.5,4.5-0.9,6.1v3.5
		c0,0-0.1,0-0.1,0.1c0,0,0.1,0,0.1,0c0.5,0.4,1.3,0.7,1.4,1.2c3.9,13.3,6.8,26.9,7.9,40.8c0,0.1,0,0.2,0,0.2l0.1-0.2
		c0.8,1,0.7,1.6-0.7,1.7c0,0,0,0,0,0c0,0,0,0,0,0h0c0,0,0,0,0,0c-1.6,3.5-4.6,5.2-8,6.7c-0.4,0.2-0.6,0.7-0.9,1.1l1.3,0.3
		c0.1,0,0.1,0.1,0.2,0.1l9.4-2.9C198.7,613.4,207.7,615,207.3,618.9z M250.4,613.6C250.4,613.6,250.4,613.6,250.4,613.6l-0.3-0.4
		h0.2c-0.1,0-0.1,0-0.2,0c-10.1,3.6-20.2,7.3-31.1,6.9c-1.1-0.1-2.1-0.6-3.2-0.9v0l0,0l-7.2-1.4l17.1-2.1v-0.9
		c-5.2-0.4-10.5-0.8-15.7-1.3c-1.3-0.1-2.4-1.1-3.6-1.7c1.4-0.6,2.8-1.6,4.2-1.7c4.6-0.2,9.4-0.1,14.1-1.7
		c-4.9-0.8-9.8-1.5-14.7-2.4c-0.9-0.1-1.7-0.8-2.5-1.3c0.8-0.5,1.6-1.2,2.5-1.3c3.6-0.5,7.2-1,10.8-1.3c11.2-0.7,14.3-4.2,13.7-15.3
		c-0.1-1.7,0.6-3.3,0.9-5c0.7,0.5,2,0.9,2.2,1.6c5.2,19.2,20,13.9,32.5,12.2c23.1-3.3,40.7-16,54.6-34.3l-0.1-0.1l2.7-3.9
		c0,0,0-0.1,0-0.1c1.1-3.4,2.7-3.1,4.6-0.5c4.4,5.8,3.3,12,0.9,18.1c-0.5,1.3-0.8,2.6-1.1,3.9l3.5-1.5l0.6,0.4
		c-22.2,21.8-48.9,33.5-79.7,36.3c-1.8,0.2-3.7-0.3-5.6-0.5L250.4,613.6L250.4,613.6C250.5,613.6,250.4,613.6,250.4,613.6z
		 M217.3,657.7c0.1-0.1,0.1-0.1,0.2-0.2c0.1,0.1,0.2,0.2,0.1,0.3s-0.1,0.1-0.2,0.2C217.4,658,217.2,657.7,217.3,657.7z M218.2,692.8
		c-0.5,2-1.7,0.8-2.7,0.6l-18.2-3.3c-1.7-0.3-3.3-0.8-2.9,2.2c-3.2-12.9-2.3-25.2,4.5-36.5c5-8.4,13.3-8.1,18.2,0.3
		c-0.3,0-0.5,0.1-0.5,0.4c0,0,0,0.1,0,0.1c-2-2.6-5.3-3.9-8.5-3.3c-4.6,0.7-8,3.8-8.4,7.8c-0.2,2.5,4.4,1.6,6.9,2.2
		c3.7,0.9,7.6,1.4,11.4,2.1c1.1,0.2,2.4,0.3,2.2,1.9c-0.1,0.3-1.6,0.5-2.4,0.4c-4.4-0.7-8.9-0.9-13-2.3c-6.8-2.2-8.4,1.3-9,6.8
		c-0.2,1.7,0,2.3,1.8,2.6c7,1.2,13.9,2.6,20.8,3.9c1,0.2,2.2,0.1,1.9,1.6c-0.3,1.5-1.5,0.8-2.3,0.7l-19.5-3.5
		c-1.5-0.3-4.1-1.7-3.7,1.5c0.5,3.2-3.5,7.6,2.3,9s12.6,2.3,18.9,3.5C216.9,691.4,218.7,690.8,218.2,692.8z M217.1,656.2v0.8
		l-0.5-0.3L217.1,656.2z M307,634.7c-29.6,20.9-56.3,45.7-86.8,65.5l-1.7,0.9c6.5-14.7,6.1-29.3,2.6-44.2c0,0,0.1,0,0.1,0
		c0,0,0,0,0-0.1l-1.4-2.7c0,0,0-0.1,0-0.1l-0.1,0.1l-0.9-2l1.7,1.2c0.1,0,0.1,0,0.1,0c7.8,6.8,8.6,16.5,9.8,23.4
		c7.7-18.4,28.5-25.4,42.5-39.2c1.4-1.5,3.4-2.6,5.2-3.9l7.8-1.5h-32.7c28.7-1.8,57.2-4.6,84.9-13.3c10.3-3.2,20.3-7.4,29.8-12.7
		c14.1-7.8,18-16.1,14.2-31.9c-4.8-20-10-39.8-15-59.8c-0.4-1.6-1-3.2,1.2-3.7c2.2-0.5,1.9,1.7,2.1,2.8c5,19.9,10.2,39.8,15,59.8
		c4.6,18.7,0.1,28.4-17.1,37c-22.6,11.2-46.7,17.1-71.5,21.1c-0.8,0.1-1.6,0.6-2,1.3c3.6-0.3,7.2-0.5,10.8-0.7
		c0.8,0,1.6,0.5,2.4,0.7C307.7,633.5,307.5,634.3,307,634.7z"/>
	<path fill="#221F1A" d="M205.9,271l0.2,0.2C206.1,271.1,206,271,205.9,271z"/>
	<path fill="#221F1A" d="M165.4,654.4l0.8-0.6C165.9,654,165.6,654.1,165.4,654.4z"/>
	<path fill="#221F1A" d="M305.4,279.2c-0.1,0.1-0.2,0.3-0.2,0.4L305.4,279.2z"/>
	<path fill="#221F1A" d="M303.7,281l0.5-0.3C304,280.7,303.8,280.8,303.7,281z"/>
	<path fill="#221F1A" d="M192.4,628.7C192.3,628.7,192.3,628.7,192.4,628.7L192.4,628.7z"/>
	<path fill="#221F1A" d="M204.1,602.1c0,0-0.1,0.1-0.1,0.1c0,0,0,0,0,0L204.1,602.1z"/>
	<path fill="#221F1A" d="M123.6,584.3C123.6,584.3,123.6,584.3,123.6,584.3l0.3,0.7c0,0,0,0,0,0c0-0.1,0-0.1,0-0.2l0.1-0.5
		c0.1-0.1,0.2-0.3,0.3-0.4c0,0,0,0,0,0L123.6,584.3z"/>
	<path fill="#221F1A" d="M104.6,614.7c-0.8-0.3-1.7-0.6-2.5-0.9C102.9,614.3,103.8,614.6,104.6,614.7z"/>
	<path fill="#221F1A" d="M192.1,596.4c-0.3,0.1-0.6,0.2-0.9,0.3C191.5,596.6,191.8,596.5,192.1,596.4z"/>
	<path fill="#221F1A" d="M179.7,625.4c-0.2,0.1-0.4,0.2-0.5,0.3C179.3,625.7,179.5,625.6,179.7,625.4z"/>
	<path fill="#221F1A" d="M164.8,629.8c0.4-0.1,0.7-0.2,1.1-0.4C165.5,629.5,165.2,629.6,164.8,629.8
		C164.8,629.8,164.8,629.8,164.8,629.8z"/>
	<path fill="#221F1A" d="M258.2,656.1L258.2,656.1l0.6-0.5l0,0l1-0.7c-0.1,0-0.1-0.1-0.2-0.1c-0.1-0.1-0.2-0.3-0.3-0.4l-1.9,2.1
		L258.2,656.1z"/>
	<path fill="#221F1A" d="M265.2,426c-0.3,0-0.5,0.1-0.8,0.2C264.7,426.1,265,426.1,265.2,426z"/>
	<polygon fill="#221F1A" points="327.4,499.4 327.4,499.4 327.4,499.4 	"/>
	<path fill="#221F1A" d="M323.6,505l-0.1-0.3l0.1,0c-0.1-0.1-0.2-0.2-0.3-0.3l0.1,0.5C323.6,505.2,323.5,504.9,323.6,505z"/>
	<path fill="#221F1A" d="M331.8,489.1c0-0.1,0-0.1,0-0.2l-0.1-0.3c-0.1,0.1-0.2,0.2-0.3,0.2l0.3,0.1L331.8,489.1z"/>
	<path fill="#221F1A" d="M318.9,459.3L318.9,459.3C318.8,459.2,318.8,459.3,318.9,459.3z"/>
	<path fill="#221F1A" d="M289.4,595.4C289.4,595.4,289.4,595.4,289.4,595.4C289.4,595.4,289.4,595.4,289.4,595.4L289.4,595.4z"/>
	<path fill="#221F1A" d="M334.2,473.5c0,0-0.1,0-0.1,0.1L334.2,473.5C334.2,473.5,334.2,473.5,334.2,473.5z"/>
	<path fill="#221F1A" d="M194,627.8L194,627.8C194,627.8,194,627.8,194,627.8z"/>
	<path fill="#221F1A" d="M305.6,278.9l0.8-0.6C306.1,278.4,305.8,278.6,305.6,278.9z"/>
	<path fill="#221F1A" d="M325.7,201.5L325.7,201.5C325.8,201.5,325.8,201.5,325.7,201.5C325.8,201.5,325.7,201.5,325.7,201.5
		C325.7,201.5,325.7,201.5,325.7,201.5C325.7,201.5,325.7,201.5,325.7,201.5z"/>
	<path fill="#908D8A" d="M337.6,639.7c0.1,0,0.2-0.1,0.3-0.1L337.6,639.7z"/>
	<path fill="#908D8A" d="M431,567.7c0.8-5-0.3-8.8-5.6-10.2c-3.7-0.9-7.5-1-11.1-1.9c0,0,0,0,0,0v0l-12.2-0.7v-0.3h12.2c0,0,0,0,0,0
		l5.3,0.3v-1.1l0.1,0c0,0,0-0.1-0.1-0.1l-35.9-0.7l-0.1,0c1.7,7,3.5,13.9,5,20.9c4.2,18.5,0.2,27.8-16.1,37.3
		c-7.8,4.6-16.5,7.4-24.8,11c-11.6,4.8-24.4,4.8-35.5,12.1c-35,23.3-63.6,55.3-102.1,73.6c0,0,0,0,0,0c11.2,1.5,21.2-2.6,30.6-7.8
		c20.1-11,38-25.4,57.2-37.7c0.1,0,0.2-0.1,0.2-0.1c10.9-7.5,21.4-15.3,33.8-20.1c0.2-0.1,0.3-0.2,0.5-0.3c0.8-1.8,2.3-2,3.9-1.9
		c0.1,0,0.1,0,0.2-0.1h-0.1c0.3-0.3,0.6-0.3,0.9-0.4l0.3-0.1c0.1,0,0.1-0.1,0.2-0.1H338c0.5-0.7,1.4-0.8,2.1-1.4H340
		c0.3-0.2,0.7-0.4,1-0.5l1.6-1.1l0,0l0.7-0.3c0,0,0,0,0-0.1l2.9-1.5c28.2-14.9,56.4-29.6,78-54c4.6-5.3,9.8-10.6,9.2-19.3L431,567.7
		z M430,568.9c-0.1-0.1-0.2-0.2-0.1-0.3c0.1-0.1,0.1-0.1,0.2-0.2l0.1,0.3L430,568.9z"/>
	<path fill="#908D8A" d="M215.1,646.8L215.1,646.8c14.2-8.6,30.1-7.6,45.8-7.9c1.4,0.1,2.7,0.3,4.1,0.6l6.1-4.8
		c-17.8,0.5-34.9,2-50.6-2.4c-6.3-1.7-11.6-1.5-16.2-0.1c-2.7,0.8-5.2,2-7.6,3.4c-4.7,2.8-9.1,6.5-13.7,9.9
		c-7.2,5.3-13.5,12.2-23.2,13.1c-6.5,0.6-12.9,2.3-18.8,5.2c0,0-0.1,0-0.1,0.1c14.9,1.7,29.9,4.3,43.9-3.9c3.4-1.9,6.6-4.4,10.8-4.5
		c0-0.1,0.1-0.1,0.1-0.2C200.1,647.8,206.4,644.5,215.1,646.8z"/>
	<path fill="#2E1F17" d="M277.5,234.7c0.3,0,0.6,0,0.8-0.1L277.5,234.7z"/>
	<path fill="#2E1F17" d="M223,278.2c-0.3-0.2-0.6-0.2-0.8-0.2L223,278.2z"/>
	<path fill="#2E1F17" d="M325.5,205.1c0.1,0.2,0.2,0.4,0.4,0.5L325.5,205.1z"/>
	<path fill="#2E1F17" d="M315.9,210.3c-2.1,3.7-7.8,1.3-7.9,6.2c0,0,0.1,0,0.1,0.1h0c6.6-1.7,11.9-4.8,12.6-12.5
		c0.2-1.9,1.3-1.8,4.6,0.8c0,0.1,0.1,0.2,0.1,0.2l0.4,0.5c0.1,0.1,0.1,0.1,0.2,0.2l0.7,0.7c0.1,0.1,0.1,0.1,0.2,0.2
		c5.5,3.7,4.7,8.1,0,11.4c-11.8,8.3-25.7,10.3-39.4,12.2c-14.7,2.1-29.6,2.6-44.4,1.5c-9.5-0.8-18.7,0.8-28,2.1
		c-4.3,0.6-7.6-0.7-10.6-4.5s-9.8-4.6-14.7-6.8h-1.2c0,0,0,0-0.1,0l-3.4,1.3c0,0,0,0,0,0l0.1,0l2.4,1.7l0,0
		c8.1,1.9,15.7,4,18.8,13.5c2.4,7.4,6.4,14.2,9.8,21.2c0.3,0.5,1.1,0.9,1.6,1.3v-1.3c-0.1-1.4-0.3-2.8-0.6-4.2
		c0.1,1.4,0.2,2.8,0.4,4.2c-1.8-5.6-3.7-11.3-5.2-17c-1.3-4.4,0.7-6.2,5.2-7c19.7-3.7,39.5,0.6,59.2-1.5c0.3,0,0.6,0,0.9,0l0.8-0.1
		c0.1,0,0.3-0.1,0.4-0.1l3.9-0.2c0.6-0.1,1.1-0.3,1.3-0.1l4.3-0.5l-2,0.7c0.8-0.1,1.5-0.2,2.2-0.7l8.4-1.4c0,0,0,0-0.1,0
		c10.5-2.1,20.8-4.8,30.1-10.4c0.8-0.5,1.6-1.1,1.6,0.6c0.3,13.5-22,48.3-34.5,53.2c-15.8,6.2-32.5,7-49.3,6.1
		c-6.9-0.3-13.8-1.1-20.5-3.3c-0.4-0.1-0.7-0.1-1.1-0.2c-0.1-0.1-0.1-0.1-0.2-0.2l-0.8-0.2c-0.3,0-0.7,0-1-0.1
		c-4.5-1.3-8.9-2.4-12.7-5.1l-1.5-1h-0.1c-0.1,0-0.1,0-0.2,0c-0.3,1.6,0.2,2,1.9,3.1c1.7,1.1,4.2,1.3,5.1,3.6c0,0,0,0.1,0.1,0.1
		l0.1,0c30.2,9.3,60,11.3,89-4.4l0.6-0.5v-0.1l-0.6,0.5l0.6-0.5v-0.2c0,0,0.1,0,0.1,0c1.8-0.9,1.4-4.1,4.1-3.9c0,0,0,0,0.1,0
		c12.7-15.8,21.1-33.7,25.6-53.5c0.7-3.1,1.4-6.2-0.9-9c-0.9,0-1.5-0.3-1.3-1.1c0-0.2-0.1-0.3,0-0.6l-0.1-0.1c0,0,0,0,0,0l0.1,0.1
		c-1.1,0.4-1.4,0.1-1.3-0.8c0-0.2-0.1-0.3-0.1-0.5h-0.1c0,0,0,0,0,0l0.1,0.1c-2.2,0.5-3.7-0.1-3.9-2.6c0,0,0-0.1-0.1-0.1
		c0,0,0,0,0,0c0,0-0.1,0-0.1,0C318.2,199.6,318,206.6,315.9,210.3z"/>
	<path fill="#908D8A" d="M80.7,646.5c-7.6,2.6-14.8,6.5-22.2,10c0,0-0.1,0-0.1,0c11.8,1.1,22.8-2.4,33.9-5.6c-0.1,0-0.1,0-0.2-0.1
		C88.3,649.2,84.8,645.1,80.7,646.5z"/>
	<path fill="#908D8A" d="M395.9,608.3c0,0,0.1-0.1,0.1-0.1C395.9,608.2,395.9,608.2,395.9,608.3L395.9,608.3z"/>
	<path fill="#908D8A" d="M396,608.1c3.5-1.9,7-3.7,10.3-5.9c10.5-7.4,20.4-15.4,25.4-27.8l-9,10.8
		C414.9,594.2,404.9,600.6,396,608.1z"/>
	<path fill="#908D8A" d="M340,638.1l-2.1,1.4L340,638.1l1-0.7c-0.4,0.2-0.7,0.3-1,0.5h0.1c-0.7,0.6-1.5,0.7-2.1,1.4h0.1
		c-0.1,0.1-0.1,0.1-0.2,0.1l0.1-0.1l-0.1,0.1c-0.1,0.1-0.2,0.1-0.3,0.1l-1,0.5c0,0,0,0,0.1,0l-4.1,2c0,0,0,0,0,0
		c-0.2,0.1-0.3,0.2-0.5,0.3c0.2-0.1,0.4-0.2,0.6-0.2l-28.6,18.1c0,0,0,0,0,0l-0.1,0.9c0,0,0,0.1,0.1,0.1l39.4-23.2l-0.6-0.6
		L340,638.1z"/>
	<path fill="#908D8A" d="M337.6,639.7c-0.3,0.1-0.7,0.1-0.9,0.4h0.1c-0.1,0-0.1,0-0.2,0.1c0,0,0,0,0,0L337.6,639.7z"/>
	<path fill="#F6F0EB" d="M301.9,661.8c0.3-0.1,0.7-0.2,0.9-0.4c0,0,0.1-0.1,0.1-0.1l-0.1,0L301.9,661.8z"/>
	<path fill="#F6F0EB" d="M301.3,662.3c0.1-0.1,0.1-0.1,0.2-0.2c0.1-0.1,0.2-0.1,0.2-0.2l-0.2,0.1L301.3,662.3z"/>
	<path fill="#F6F0EB" d="M304.1,660.1L304.1,660.1C304.1,660.2,304.1,660.2,304.1,660.1l28.6-18c-0.2,0.1-0.4,0.1-0.6,0.2
		c-12.4,4.8-22.9,12.6-33.8,20.1c-0.1,0.1-0.2,0.1-0.3,0.2c0.9,0.9,1.7,1.5,2.8,0.4c0-0.1,0.1-0.2,0.1-0.2l-0.1,0.2l0.1-0.2
		c0.1-0.2,0.2-0.3,0.3-0.5l0.2-0.3l0.2-0.1c0,0,0.1-0.1,0.2-0.1l0.9-0.5L304.1,660.1z"/>
	<polygon fill="#908D8A" points="383.8,552.5 383.8,552.5 403.6,551.2 402.5,551 403.6,551 383.1,550.5 383.1,550.5 	"/>
	<polygon fill="#F6F0EB" points="402.2,554.9 414.4,555.6 414.4,555.6 414.4,554.6 414.4,554.6 402.2,554.6 	"/>
	<polygon fill="#D6C198" points="419.7,554.9 419.7,555 427.6,556.3 427.7,555.5 419.8,553.9 419.7,553.9 	"/>
	<path fill="#221F1A" d="M325.7,201.6c0.2,2.5,1.7,3.1,3.9,2.6l-0.1-0.1L325.7,201.6L325.7,201.6
		C325.7,201.5,325.7,201.5,325.7,201.6z"/>
	<polygon fill="#D6C198" points="342.7,636.4 342.7,636.4 342.8,637.4 343.4,638 345.5,636.4 343.4,636.1 343.4,636.1 342.7,636.4 	
		"/>
	<polygon fill="#D6C198" points="403.6,551.2 403.6,551 402.5,551 	"/>
	<path fill="#221F1A" d="M331,205.4l-0.1-0.1l-1.1-1.1c0,0.1-0.1,0.3-0.1,0.4C329.6,205.5,330,205.8,331,205.4z"/>
	<path fill="#221F1A" d="M332.4,207.1C332.4,207.1,332.4,207.1,332.4,207.1l-1.2-1.5c-0.1,0.2-0.1,0.3-0.1,0.4
		C330.9,206.8,331.5,207.1,332.4,207.1z"/>
	<polygon fill="#D6C198" points="304.1,660.1 302.8,661.4 302.9,661.4 304,661.2 304,661.1 304.1,660.2 	"/>
	<polygon fill="#908D8A" points="431.8,573.5 431.7,574.2 432,573.7 	"/>
	<polygon fill="#908D8A" points="431.6,574.4 431.7,574.2 431.5,574.4 	"/>
	<polygon fill="#908D8A" points="395.8,608.2 395.4,608.4 395.9,608.3 395.9,608.3 395.8,608.2 	"/>
	<polygon fill="#908D8A" points="394.3,608.9 394.4,609.1 395.4,608.4 394.3,608.9 	"/>
	
		<line fill="none" stroke="#D6C198" stroke-width="0" stroke-linecap="round" stroke-linejoin="round" x1="301.7" y1="661.9" x2="301.5" y2="662"/>
	
		<line fill="none" stroke="#D6C198" stroke-width="0" stroke-linecap="round" stroke-linejoin="round" x1="301.7" y1="661.9" x2="301.9" y2="661.8"/>
	
		<line fill="none" stroke="#D6C198" stroke-width="0" stroke-linecap="round" stroke-linejoin="round" x1="302.8" y1="661.4" x2="301.9" y2="661.8"/>
	
		<line fill="none" stroke="#D6C198" stroke-width="0" stroke-linecap="round" stroke-linejoin="round" x1="301" y1="662.8" x2="301.3" y2="662.3"/>
	
		<line fill="none" stroke="#D6C198" stroke-width="0" stroke-linecap="round" stroke-linejoin="round" x1="300.8" y1="663" x2="301" y2="662.8"/>
	
		<line fill="none" stroke="#D6C198" stroke-width="0" stroke-linecap="round" stroke-linejoin="round" x1="301.5" y1="662" x2="301.3" y2="662.3"/>
	<polygon fill="#D6C198" points="392.7,609.9 392.9,610 392.8,609.8 	"/>
	<polygon fill="#D6C198" points="394.3,608.9 394.2,608.9 393.9,609.3 394.4,609.1 394.3,608.9 	"/>
	<path fill="#D6C198" d="M243.4,495.8c6.6,2.9,12.9,6.6,19.4,9.9c0.2-0.1,0.5,0.1,0.6,0.3c0,0,0,0.1,0,0.1l0.1,0.1l-0.1-0.1
		c0,0,0,0,0,0.1v0.1c0,0,0,0,0,0.1c0,0,0,0,0-0.1c6.4,2,8.4,7.2,9.3,13c0.3,1.6,0.3,2.7,2.4,2.7c11.9-0.1,23.8-1.3,35.5-3.5
		c9.2-1.8,6.6-9.2,7.7-15.9l2.5,8.8h0.5l-2.9-27h0.7l4.1,20.1c0.1,0.1,0.2,0.2,0.3,0.3l0.5,0l-5.3-45.4c-0.1,0-0.1-0.1,0-0.1
		l-0.1-0.7l0.5-0.1l8.1,41c0,0,0,0,0,0c0,0,0,0,0,0l0-0.1l0.7,0.1l-7.4-53.1h0l-0.8-3.2l0.6-0.1l0.8,3.2c0,0,0,0,0,0l9.5,42.4
		c0,0,0,0,0,0l0.6,0.2c0.1-0.1,0.2-0.1,0.3-0.2l-9.8-54.4h-0.1l-0.6-2.6l0.7-0.2l0.7,2.8l10.7,39.2c0,0,0,0,0,0l0.7,0.1
		c0,0,0.1,0,0.1-0.1c-3.4-15.9-6.8-31.8-10.3-47.7c-0.5-2.3-0.1-2.9,2.1-3.6c5.2-1.6,11-2.3,14.7-7.1c0,0,0.1,0,0.1-0.1
		c0,0,0,0,0-0.1c-3.1,1.1-6,2.4-9,3.3c-21.6,6-43.9,7.3-66.2,7.6c-0.1,0-0.1,0-0.2,0.1c0,0,0.1,0,0.1,0c-0.1,0-0.3,0.1-0.4,0.1
		c-0.2,0.1-0.5,0.1-0.8,0.2c-2.5,0.5-5.1,1.3-7.6,1.4c-29,0.9-57.6-1.5-85.1-11.2c-1.7-0.6-3.2-1.3-3.9,1.2l-19,71.8l4.4-0.7
		c0.5-0.1,1-0.2,1.6-0.3l11-2.4c0.1,0,0.2-0.1,0.3-0.1h0.3v0.1c0.5-0.1,1-0.1,1.5-0.2C194,481.2,219.1,485.4,243.4,495.8z
		 M320.6,427.1l0.1,0.6h0l-0.4-0.5L320.6,427.1z M319.6,440.7l0.2-0.5l0.2,0.5l-0.3,0.2C319.6,440.9,319.5,440.7,319.6,440.7z
		 M299.8,490.3c-0.9,0.3-1.7,0.9-2.7,1c-0.9,0.1-3.5,0.1-8.2,0.1c-1.1-0.2-5.2-0.7-9.2-1.5c-0.8-0.1-1.4-1.1-2.1-1.7
		c0.7-0.6,1.3-1.5,2.1-1.8c6.7-2.2,13-0.7,19.1,2.4C299.3,489.1,299.5,489.8,299.8,490.3z M298.6,468.3c0.1,7.9-4.8,11.9-12.3,12.8
		c-7.8-0.8-12.8-4.7-12.9-12.6s4.4-12.6,12.3-12.7C293.5,455.6,298.5,460.4,298.6,468.3z M244.7,433.5l43.4-5.9
		C272.4,431.8,259,434.1,244.7,433.5z M271.5,429c-18.7,2.1-37.4,3.3-53.2,0H271.5z M248.9,472.3c-4.3-0.8-4.5,0.8-5,2.3
		c-3.4,10.1-11.2,10.6-19.9,9.3c-8.8-1.3-13.6-5.4-12.2-14.9c0.8-5-3.7-1.5-5.5-3.7C220.7,463,234,464.8,248.9,472.3z M169.1,417.2
		l1.7,0.4c-0.7,2.5-1.4,5-2.2,7.5l-1.1-0.1L169.1,417.2z M151,484.8l6.2-24C158,469.6,154.6,477.2,151,484.8z M166.2,428.1
		c0.6,10.6-3.1,20-7.7,29.1L166.2,428.1z M177,475.9c-4.2-0.8-9.5-0.1-11.9-4.1c-0.9-1.3,3.8-1.3,6-1.8c3.6,0.4,7.8,0,9.2,4.2
		C180.9,475.6,178.3,476.1,177,475.9z M179.3,467c-6.9-0.9-11.4-4.6-11.2-11.9c0.2-7.2,4.6-11.4,11.7-11.3s11.4,4.6,11.3,11.7
		S186.5,466.3,179.3,467z"/>
	<path fill="#FAFAF9" d="M305.4,332.6c0,0,0,0.1-0.1,0.1L305.4,332.6l0.2-0.2C305.5,332.5,305.4,332.6,305.4,332.6z"/>
	<path fill="#FAFAF9" d="M288.7,287.4c-23.7,4.8-47.1,3.9-69.9-4.6c-3.2-1.2-6-3.5-9-5.2l0.1,0c-0.1,0-0.1-0.1-0.2-0.1
		c-2.6-0.5-4.6-6-7.2-2.1s1.9,5.8,4.6,7.2c4.8,2.6,10,4.7,15.9,7.4c0.3,0.1,0.6,0.2,0.8,0.4c-0.3-0.1-0.6-0.1-0.9-0.2
		c-9.8-1.7-18.5-3.4-24.8-11.6l-7.4,29.3c-7.9,31.3-15.8,62.7-23.7,94c-0.4,1.7-1.3,3.4,1.3,4.1c2.6,0.7,1.7-1.9,1.9-2.8
		c3-11.2,6.1-22.4,8.5-33.7c1.5-7.2,2.7-13.1,11.4-6c0.7,0.4,1.4,0.7,2.2,0.8c37.8,10.2,75.5,10.4,113.2-0.1v-1.1l0.1,0
		c0,0,0-0.1-0.1-0.1c-37,7.4-74,8.4-110.8-1.5c-4.8-1.3-10.8-2.9-11.1-9c-0.3-6.1,5.6-8.2,10.2-10.4c13.1-6,27.3-6.6,41.3-8.4
		c0.7,0,1.3-0.1,2-0.3h1.7c0.2,0,0.4,0,0.6-0.1c11.2-2.9,22.6-2.3,34-1.9c5.6,0.3,11.2,1.2,16.7,1.8l0,0c0,0,0,0,0,0l14-10.7
		c0,0,0-0.1,0-0.1c0-0.1,0.1-0.1,0.2-0.2l0,0l0.1-0.3c0.3-0.3,0.4-0.7,0.5-1.1c0,0.5-0.3,0.8-0.5,1.1l0.2-0.2V322l0.2-0.4l0.4-0.9
		h0.1l0,0l0.5-0.5h0.1l-0.6,0.6h-0.1l-0.5,0.8l-0.2,0.5c0,0.2,0,0.4-0.1,0.6c1.6,1.7,0.2,2.7-0.7,3.8c-0.5,0.7-1,1.5-1.5,2.3
		l2.5,0.6c0,0,0,0,0,0l2.9-2.3l-0.7,2.8c0,0,0,0.1,0,0.1l0.1-0.1c1.6,2.5-0.7,2.2-1.9,2.7v3.2c0,0,0,0,0.1,0.1
		c5.7,1.5,11.5,2.9,17.1,6.8c0.1-0.1,0.2-0.1,0.2-0.2c-4.9-18.4-9.6-36-14.3-53.8c-0.6-2.1-1.9-0.7-2.9-0.4
		c-6.5,2.4-13.1,4.4-20.1,3.9l-8.1,0.8l-3.3,0.3l3.2-1l12-3.6c0,0,0-0.1,0-0.1L288.7,287.4z M236.7,291.4c-4.4,1.5-7,1-9.3-1
		L236.7,291.4z M200.2,294.8c-1.3-2.4-0.5-4.2,1.1-6.2C202.3,290.7,201.9,293.2,200.2,294.8z M198.7,298.5
		c-0.9,14.2-4.8,27.7-9.7,40.9C190.6,325.5,193.9,311.7,198.7,298.5z M309.3,324.4l0.5,0.2l-1,1.5l-0.3,0.2l-0.3-0.1L309.3,324.4z
		 M306.3,319.8l0.1,0.1l-0.3,0.2l-0.1-0.1L306.3,319.8z"/>
	<path fill="#FAFAF9" d="M204,602.3C204,602.3,204,602.3,204,602.3C204,602.3,204,602.3,204,602.3C204,602.3,204,602.3,204,602.3z"
		/>
	<path fill="#FAFAF9" d="M204,602.3C204,602.3,204,602.3,204,602.3C203.9,602.3,203.9,602.3,204,602.3
		C203.9,602.3,204,602.3,204,602.3L204,602.3z"/>
	<path fill="#FAFAF9" d="M184.4,634.2c0-0.1-2.8,0.1-4-0.4c-4.5-2-9.2-0.5-13.8-1.1c-0.9-0.1-1.6-1.7-2.4-2.7
		c0.2-0.1,0.4-0.1,0.6-0.2c0,0,0,0,0-0.1c-0.2,0.1-0.5,0.2-0.7,0.3c-0.2-0.7-2.8-1.3,0.1-2c4.6-1.1,8.8-3.9,14-2.3
		c0.3,0.1,0.6,0.1,0.8,0c0.2-0.1,0.4-0.2,0.5-0.3c0.7-0.7,0.8-2.3,1.3-3.2c0.7-1.4,2.1-5.1,5.6-4.1c0,0-0.1,0.1-0.1,0.1
		c0.1,0,0.1,0,0.2,0c1.5,1.5,5.1,2.7,4.8,1.3c-1.2-5.1,13.5-0.8,5-9l0.1,0c-0.1,0-0.1-0.1-0.2-0.1l-1.3-0.3c0.3-0.3,0.5-0.9,0.9-1.1
		c3.3-1.5,6.4-3.2,8-6.7c0,0,0,0,0,0H204h-0.1c0,0,0,0,0,0c-0.3,0-0.6-0.2-0.8-0.1c-3.1,1.8-6.7,5.4-9.6,3.5
		c-1.9-1.3,3.3-3.9,3.7-6.8c0.2-1.8,0.9-4.8,0.2-5.2c-0.7-0.4-1.7,2.7-2.7,2.5c-0.9-0.1-1.8-0.1-2.5,0.2c-0.3,0.1-0.6,0.2-0.9,0.3
		c-4.9,2.3-6.6,10.7-13.7,8.1c-1-0.5-1.9-1-2.8-1.7c0,0-0.1,0-0.1,0l-3.7-2.3c6.4,0.6,7.6-3.6,10.5-6.8c2.9-3.2,7.2-9.1,11.9-12.4
		c0.3-0.6,2.3-1.3,0.5-1.7c-1.7-0.4-5.9-1.3-7.6,1.6c-5.2,8.8-11.6,16.9-21.4,20.2c-7.1,2.4-10.6,7.7-13.9,12.9
		c-4.6,7.2-11.3,2.9-16.7,4c-9.7,1.9-20.6-0.5-28.6-3.7c-0.3-0.1-0.6-0.2-0.9-0.4c-0.9-0.2-1.7-0.5-2.5-0.9
		c-11.5-4.1-23.9-7.4-33.4-15.9c-0.1-0.1-0.2-0.1-0.3-0.2c-1.7,4.1-0.9,8.2,2.2,10.9c3.1,2.7,7.3,4.2,7.9,9.4l-6-4
		c-0.5,10.3,8.8,21.8,20.2,24.6c-2.1,0.3-3.3,0.6-4.6,0.7s-2.6-0.1-3.9-0.1c0.7,1.7,1,3.9,2.3,5c3.5,3.2,8.4,4.4,12.4,2.2
		s7.4-1.5,11.6,1.9l-3.6-0.6c3.8,3.3-2.6,3.3-2.1,5.5c0,0.1,0.1,0.2,0.1,0.2c9.5,1.2,19,2.7,28.4,0.3c0.9-0.4,1.9-0.7,2.9-1
		c5.6,2-2.9,5.2,0.6,7.3c-0.1,0-0.2,0-0.2,0c0.1,0,0.1,0.1,0.2,0.1c8.3-2.3,18.3-0.9,23.2-10.7c0,0,0,0,0.1,0c0,0,0-0.1,0-0.1
		c4.8-1.8,6.9-8.4,13.3-7.6c1.4,0.2,2.8-3.2,3.8-0.9c1,2.3-1.1,4.6-3.6,5c-4.4,0.7-6.5,3.3-6.8,7.5c4.8-4.7,13.3-5.6,14.2-14.2
		c0,0,0.1,0,0.1,0c0,0,0,0,0-0.1C182.8,637.9,184.4,636.5,184.4,634.2z M100.7,626.3c-3.3-0.1-4.4-3.7-4.5-7l-1.3-6
		c3.5,9.8,12,3.4,17.5,5.7c1.5,0.7,3.8,0.2,4.5,2.5C111.8,624.3,106.4,626.4,100.7,626.3z M141,637.2c-0.1,5.5-4.7,7.5-8.1,10.3
		c-3.4,2.8-4.9,0.4-6.8-1.3c-3.2-2.9-10.2-0.2-10.6-7.1c0,0,0,0-0.1,0l-2.6-5.2c4,3.8,9.6,2.5,13.9,5.5s8.3-1.5,12.3-3.1
		c0.8-0.3,1.6-0.5,2.4-0.6L141,637.2z M151.4,628.9c-4.5,2-7,0.2-9.3-3.3l-4.2-2.3c2.5-0.3,4-0.8,5.4-0.5c4.6,0.9,7.8-0.9,10-4.9
		c0.4-0.6,0.9-1.2,1.4-1.7l0.5,2.4c0,0,0,0,0,0l0,0C155.8,622.8,155.9,626.9,151.4,628.9z"/>
	<path fill="#7D6F58" d="M326.1,422.2c-2.3,0.7-2.7,1.3-2.1,3.6c3.5,15.8,6.9,31.8,10.3,47.7c0,0,0,0,0,0.1l1.3,5.1l-0.8,0.2
		l-1.5-5.4l0.1,0c0,0,0,0,0,0l-10.7-39.2H322l9.8,54.4l0.1,0.3c0,0.1,0,0.1,0,0.2l1.7,8.2l-0.9,0.2l-1.9-8.8l0.1,0c0,0,0,0,0,0
		l-9.5-42.4c0,0,0,0,0,0l0,0.1h-0.6l7.4,53.1l0.8,3.9l0,0l0.5,3.9l-0.5,0.1v-4l-0.7,0.1l-0.8-4c0,0,0,0,0,0c0,0,0,0,0,0l-8.1-41
		l-0.5,0.1l0.1,0.7l0,0.1l5.3,45.4l0.1,0l0.7,3.1l-0.7,0.2l-0.6-3c-0.1-0.1,0,0.2-0.1-0.1l-0.1-0.5l-4.1-20.1h-0.7l2.9,27h-0.5
		l-2.5-8.8c-1.1,6.7,1.5,14.1-7.7,15.9c-11.7,2.3-23.6,3.4-35.5,3.5c-2.1,0-2.1-1.1-2.4-2.7c-0.9-5.8-2.9-11-9.3-13c0,0,0,0,0,0.1
		c4.3,5.7,5.7,11.8,2.2,18.5c0,0,0,0,0,0c0.5,2.1,2.2,1.2,3.3,1.1c12.9-0.8,25.8-1.2,38.6-2.7c19.3-2.3,38.5-5.3,56.4-13.7
		c1.9-0.9,5.2-0.8,4.2-4.6c-7.5-29.3-15-58.6-22.4-87.9c-0.9-3.3-2.2-4-4.8-1.9c0,0-0.1,0-0.1,0.1
		C337.1,420,331.3,420.6,326.1,422.2z M325.1,511.3c-0.1-0.2-0.3-0.4-0.3-0.5c0.1-0.3,0.1-0.6,0.3-0.9l0.3,0.7L325.1,511.3z
		 M335.7,481.6c-0.1-0.2-0.3-0.3-0.3-0.5s0.2-0.3,0.3-0.5l0.3,0.6L335.7,481.6z M336.6,483.8c-0.1,0.2-0.2,0.3-0.3,0.5
		s-0.3-0.3-0.2-0.5c0.1-0.1,0.2-0.3,0.3-0.5C336.4,483.4,336.6,483.6,336.6,483.8z M360.9,497c1.7,1.9,1.9,4.1,0.5,6.7
		c-0.4-2.1-0.9-4.2-1.3-6.4C360.2,497.2,360.9,497,360.9,497z M358.9,491.5c-7.9-23.3-13.9-47.2-17.9-71.4
		C348.4,443.6,354.7,467.3,358.9,491.5z"/>
	<path fill="#E97F63" d="M89.6,531.6c2.1,7,4.3,14.7,12.6,17.4c2.7,0.9,5.6,1.1,8.5,1.4c6.7,0.8,12.5,2.3,17.1,8.4
		c4.6,6,10.4,10.8,18.3,12.3c0,0.1,0,0.1,0,0.1l0.1-0.1l15.1-15.3l0.1-0.1c0,0,0,0,0,0c-10.7-7-15.8-20.6-28.9-24.5
		c-7.9-2.4-10.8-8-11.5-15.4c0,0,0-0.1-0.1-0.1l-10.7-1.3c-4.7,3.3-9.6,6.3-14,10C93.8,526.6,88.4,527.6,89.6,531.6z"/>
	<path fill="#908D8A" d="M294.9,632.8c0.4-0.7,1.2-1.2,2-1.3c24.8-4,48.9-9.9,71.5-21.1c17.3-8.6,21.7-18.3,17.1-37
		c-4.8-20-10-39.8-15-59.8c-0.3-1.1,0.1-3.3-2.1-2.8c-2.2,0.5-1.6,2.1-1.2,3.7c5,19.9,10.2,39.8,15,59.8c3.8,15.7-0.1,24-14.2,31.9
		c-9.5,5.2-19.5,9.5-29.8,12.7c-27.7,8.6-56.2,11.5-84.9,13.3H286l-7.8,1.5l-18.7,20.8c0.1,0.1,0.2,0.3,0.3,0.4
		c0.1,0,0.1,0.1,0.2,0.1l6.7-4.6l0,0l2.7-2.7c0,0,0.1,0,0.1,0c0-0.1,0.1-0.2,0.2-0.3l0,0c0,0-0.1,0-0.1-0.1l2.9-2.3l1.9-1.8l0.1,0.1
		l0.6-0.1l-0.3,0.5l0,0l-2.1,2.4c0,0,0,0-0.1,0v0l-1.7,1.5c0,0-0.1,0-0.1,0l0.2,0l-0.7,0.9l-0.1-0.1l-2.7,2.7
		c-11.6,11.3-23.2,22.6-34.8,33.9c-0.9,0.9-2.5,1-3.7,1.5c-0.4-1.2-0.7-2.5-0.9-3.7c-0.7-9-0.1-18.3-6.7-25.8c0,0-0.1,0-0.1,0
		c3.5,14.9,3.9,29.5-2.6,44.2l1.7-0.9c30.5-19.7,57.2-44.6,86.8-65.5c0.5-0.4,0.7-1.2,1.1-1.9c-0.8-0.3-1.6-0.7-2.4-0.7
		C302.1,632.2,298.4,632.5,294.9,632.8z M276.9,641.5L276.9,641.5l-0.3,0.2c0-0.1,0-0.1,0.1-0.2H276.9L276.9,641.5l0.1-0.3
		L276.9,641.5z"/>
	<path fill="#908D8A" d="M104.6,614.7c0.3,0.1,0.6,0.2,0.9,0.4c8,3.1,18.9,5.6,28.6,3.7c5.4-1.1,12.1,3.3,16.7-4
		c3.4-5.2,6.8-10.6,13.9-12.9c9.8-3.3,16.1-11.4,21.4-20.2c1.7-2.9,5.8-2,7.6-1.6c1.7,0.4-0.3,1.1-0.5,1.7
		c0.6,9.4-10,11.8-12.5,19.5c-0.4,1.2-3.9,1.4-6.1,2c0.9,0.7,1.8,1.2,2.8,1.7c7.1,2.5,8.8-5.9,13.7-8.1c0.3-0.1,0.6-0.2,0.9-0.3
		c0.8-0.2,1.6-0.3,2.5-0.2c1.1,0.2,2.1-2.9,2.7-2.5c0.7,0.4,0,3.5-0.2,5.2c-0.3,2.9-5.6,5.5-3.7,6.8c2.9,1.9,6.5-1.7,9.6-3.5
		c0.2-0.1,0.5,0,0.8,0.1c0,0,0,0,0,0c0,0,0.1-0.1,0.1-0.1l0.5-1.2c0-0.1,0-0.2,0-0.2c-1.1-13.9-4-27.4-7.9-40.8
		c-0.1-0.5-0.9-0.8-1.4-1.2c0,0-0.1,0-0.1,0c-12.9,9.6-23.8,21.1-34,33.5c-11.7,14.1-27,18.8-44.8,16.2
		c-16.3-2.3-32.5-4.9-47.8-11.2c0,0,0,0-0.1,0c-0.1,0.1-0.1,0.3,0,0.5c0.1,0.1,0.1,0.1,0.2,0.2c9.6,8.5,21.9,11.8,33.4,15.9
		C103,614.1,103.8,614.4,104.6,614.7z"/>
	<path fill="#908D8A" d="M204,602.3L204,602.3L204,602.3C204,602.3,204,602.3,204,602.3C204,602.3,204,602.3,204,602.3
		C204,602.3,204,602.3,204,602.3z"/>
	<path fill="#908D8A" d="M203.9,602.3C203.9,602.3,203.9,602.3,203.9,602.3L203.9,602.3L203.9,602.3
		C204,602.3,203.9,602.3,203.9,602.3z"/>
	<path fill="#E97F63" d="M257.7,186.6c-16.3,0.3-32.5,1.5-48.1,6.1c-3.5,1.1-8.6,1.3-8.9,6c-0.3,4.7,4.9,5.6,8.3,7.4
		c1.6,0.8,3.3,1.5,4.9,2.2c0.2,0.1,0.5,0.2,0.7,0.2h-0.1c0.5,0.5,1.2,0.3,1.8,0.3l-1.8-0.4l1.8,0.4c0.5,0,1,0,1.4,0.3l16.7,2.2
		c2,0.2,4.1,0.2,6.1,0.1h1.7c17.5-1.5,35.3-1.8,52-8.4c3.7-1.5,8.1-2.8,8.9-7.2c0.8-4.3-3.9-4.9-6.3-7.1c0,0,0,0,0,0l-9.4-2
		c-0.2,0-0.4,0-0.5,0c0.2,0,0.3,0.1,0.5,0.1C277.5,186.7,267.6,186.4,257.7,186.6z M274.2,197.7c-0.5,2-3.1,3.3-5.4,3.7
		c-9.9,2.1-19.7,3.7-29-2.1l0,0c-1.4-0.3-2.9-0.9-2.5-2.5s1.5-2,2.5-2.3c10.3-3.2,21.3-3.2,31.7,0
		C272.8,194.9,274.7,195.7,274.2,197.7z"/>
	<path fill="#908D8A" d="M250.4,613.6C250.4,613.6,250.5,613.6,250.4,613.6L250.4,613.6C250.4,613.6,250.4,613.6,250.4,613.6z"/>
	<path fill="#908D8A" d="M250.6,613.6c1.9,0.1,3.8,0.6,5.6,0.5c30.7-2.9,57.5-14.5,79.7-36.3l-0.6-0.4l-3.5,1.5
		c0.3-1.3,0.7-2.6,1.1-3.9c2.4-6.2,3.5-12.3-0.9-18.1c-1.9-2.6-3.5-2.9-4.6,0.5c0,0,0,0.1,0,0.1l0.1-0.1l-1.9,5c0,0,0,0.1,0,0.1
		c-8,15.4-22.1,23.9-36.1,32.9c0,0,0,0,0,0l12.1-5.1v-0.1l5-2.9l1.9-1.4v0v0l0,0c0.1,0.3,0.1,0.7-0.1,1l-1.3,0.8l0,0l-5.4,3.9
		c-14.1,9-30.1,12.4-46.5,13.9c-4.2,0.4-8.4,1-11.8,3.9c-8,6.6-17.5,8.9-27.6,9.8v0c1.1,0.3,2.1,0.9,3.2,0.9c11,0.4,21-3.3,31.1-6.9
		c0.1,0,0.2,0,0.2,0h0.6L250.6,613.6z"/>
	<path fill="#908D8A" d="M231.4,574.1c-0.2,0.1-0.3,0.1-0.5,0.2L231.4,574.1z"/>
	<path fill="#908D8A" d="M250.1,568.5c-0.1,0.2-0.2,0.4-0.4,0.7C249.9,568.9,250,568.7,250.1,568.5z"/>
	<path fill="#908D8A" d="M251.6,534.7L251.6,534.7c-6.6,1.7-13,4-19.7,5c-3.2,0.5-1.6,4.8-3.7,3.9c-4.1-2.1-7.7-0.3-9.8,2
		c-1.1,1.3,1.3,5.5,2.1,8.4c0,0,0,0,0,0l0-0.1c2.1,0.1,3.1-1.3,4.1-2.9c4-6.3,8.5-3.8,12.9-0.6c0.1,0,0.1,0,0.2,0.1
		c-6,1.1-8.2,7.8-13.8,9.5c-1.6,0.5-1.7,1.5-1.4,2.8c1.9,10.5,3.8,21,5.7,31.5c0.2,0.7,0.4,1.4,0.6,2.1c0.6-0.6,1.7-1.2,1.7-1.9
		c0.1-3.7-0.1-7.4,0-11.2c0-2.1,0.4-4.4,2.7-5.1c2.3-0.7,4.3,0.7,5.5,2s2.1,2.7,3.2,4.1l0,0v0c9.6-0.8,10.5-8.4,12.2-15.4
		c-0.5,0.3-0.7,0.9-1.7,1c-1,0.1-3,3.1-2.8-0.8c0.3-5.2,0.4-10.4,5.2-14.1c1.3-0.9,0.9-3.9,1.4-5.8c0,0,0,0,0,0c0,0,0,0,0-0.1h-8v0
		l0,0c-1.1-2.9,1.3-5.4,2.9-5.5c7.3-0.6,6.2-5.8,6.4-10.4l-2.7,0.6c0,0,0,0,0,0c0,0,0,0,0,0.1L251.6,534.7z M241.4,569.1
		c-0.3,1.7-2.1,2.5-3.9,2.8c-1.7,0.5-3.4,1.1-5.1,1.8c0,0,0,0,0,0h0.1c-0.3,0.3-0.7,0.4-1.1,0.5l-0.5,0.2c-0.7-3.6-0.4-7.6,3.7-7.9
		c2.3-0.1,2.1-6.6,5.4-1.9c0,0,0,0,0,0.1C242,565.6,241.7,567.4,241.4,569.1z"/>
	<polygon fill="#908D8A" points="257.7,533.2 257.7,533.2 257.7,533.2 	"/>
	<path fill="#FAFAF9" d="M255,605.5c16.4-1.5,32.3-4.8,46.5-13.9v-1.3l-12.1,5.1l0,0c0,0,0,0,0,0c14-9,28.1-17.5,36.1-32.9
		c0-0.1,0-0.1,0-0.1l0,0.1l-0.8-0.9c-13.9,18.3-31.5,31-54.6,34.3c-12.5,1.8-27.4,7-32.5-12.2c-0.2-0.7-1.5-1.1-2.2-1.6
		c-0.3,1.7-1,3.4-0.9,5c0.6,11-2.5,14.5-13.7,15.3c-3.6,0.3-7.2,0.7-10.8,1.3c-0.9,0.1-1.7,0.8-2.5,1.3c0.9,0.5,1.7,1.1,2.5,1.3
		c4.9,0.9,9.8,1.6,14.7,2.4c-4.8,1.6-9.5,1.5-14.1,1.7c-1.4,0.1-2.8,1.1-4.2,1.7c1.2,0.6,2.3,1.5,3.6,1.7c5.2,0.5,10.5,0.9,15.7,1.3
		v0.9l-17.1,2.1l7.2,1.4l0,0c10-0.9,19.5-3.2,27.6-9.8C246.7,606.5,250.8,605.9,255,605.5z M286.8,595.6l1-0.5l0.2,0.3L286.8,595.6
		L286.8,595.6l-1.2,0.5l-0.2-0.3L286.8,595.6z"/>
	<path fill="#F6F0EB" d="M61.3,561c3.3-0.4,2.6-7.4,5.8-5.2c4.8,3.6,5.7,10,5.7,16c0,0,0,0,0,0l6.4,3.1l-4.8-17.8
		c0-0.1,0-0.1-0.1-0.2c0,0.1,0,0.1,0,0.2l-2.5-4.6c0.1,0,0.1,0,0.1,0.1c0,0-0.1,0-0.1-0.1c0-0.1,0-0.1-0.1-0.2l0,0.1
		c-1.6-1.7-3-3.5-0.1-5.3l0,0.2c0,0,0-0.1,0.1-0.1c3.5-3.7,6.6-9.6,10.6-10.4c5.2-0.9,5.2,6.8,8.3,10.4s7.7,6.8,12.7,7.8
		c10,2,18.8,5.6,26.1,13.1c3.3,3.4,8.3,5.2,12.6,7.7c0,0,0,0,0.1,0l4-4.5c0,0,0-0.1,0-0.1c-7.8-1.5-13.7-6.3-18.3-12.3
		c-4.6-6-10.4-7.6-17.1-8.4c-2.9-0.3-5.8-0.5-8.5-1.4c-8.3-2.7-10.6-10.4-12.6-17.4c-1.2-4.1,4.1-5,6.6-7.1c4.4-3.7,9.3-6.7,14-10
		l-0.5-0.2c-0.3,0-0.5,0-0.7-0.1c-11,0.3-17.7,8.4-25.1,14.5c-10.3,8.4-21.6,16.5-22.8,31.7c0,0,0,0,0.1,0L61.3,561z"/>
	<path fill="#E97F63" d="M238.4,515.9C238.4,516,238.4,516,238.4,515.9l8.7,0.7l-0.2,0.1c0.1,0,0.1,0,0.2,0c1.9-0.3,4.8-0.3,7.2-0.8
		c5.7-1,6.6-4,3.5-8.5c-18.5-12.3-39.2-17.9-61-20.4c0,0,0,0,0,0l-0.6,4.4c15.4-1.1,20.2,2.1,23.8,16.1l0.6,1.1
		C226.3,511.2,233.1,511.8,238.4,515.9z"/>
	<path fill="#844C3C" d="M273.7,223.5c-25.3,0.9-50.7,1.9-75.2-7.1c-2.1-0.8-4.2-1.8-6.3-2.7c0,0,0,0,0,0c4.1,5.2,9.9,7.5,15.9,9.3
		c6.1,1.8,12.9,0.8,18.9,3.9c0,0,0.1,0,0.1,0c16.5,3.1,33.1,2.3,49.7,1c13.1-0.9,26.4-2.3,38.8-7c6.2-2.4,14-4.6,11-14.5
		c0.1,0.1,0.1,0.1,0.2,0.2c-0.1-0.1-0.1-0.1-0.2-0.2l-0.7-0.7c-0.1-0.1-0.1-0.1-0.2-0.2l0.2,0.3l0.7,0.7l-0.7-0.7l-0.2-0.3
		c-0.1-0.1-0.3-0.3-0.4-0.5l-0.1-0.2l0.1,0.2c0-0.1-0.1-0.2-0.1-0.2c-3.4-2.6-4.4-2.7-4.6-0.8c-0.7,7.7-6,10.8-12.6,12.5h0h-0.4
		C296.9,221.6,285.2,223.1,273.7,223.5z"/>
	<path fill="#844C3C" d="M307.6,216.6C307.6,216.6,307.6,216.6,307.6,216.6c0,0,0.1,0,0.1,0H307.6z"/>
	<path fill="#E97F63" d="M133.6,526.9c14,4.4,20.9,17.5,31.9,25.4c0,0,0,0,0,0l17-13.2c0,0,0-0.1,0.1-0.1
		c-11.7-9.9-26.3-13.3-40.6-17.3c-0.3-0.1-0.6-0.3-0.9-0.5c-0.1,0-0.2,0-0.3,0c-3.3-2.5-7.2-3.5-11.2-3.8
		C129,521.5,130.3,525.9,133.6,526.9z"/>
	<path fill="#F6F0EB" d="M171.7,416.3c27.6,9.7,56.1,12.2,85.1,11.2c2.5-0.1,5.1-0.8,7.6-1.4c0.3-0.1,0.5-0.1,0.8-0.2
		c0.1,0,0.3-0.1,0.4-0.1c0,0-0.1,0-0.1,0c-28.7-0.5-57.3-2.5-85-10.9c-5.2-1.5-10.1-3.8-15.1-5.7l-4.2,16.7l-16.5,65.1l4.2-1.7
		l0-0.1l19-71.8C168.5,415,170,415.7,171.7,416.3z"/>
	<path fill="#FAFAF9" d="M260.9,638.9c-15.7,0.3-31.6-0.7-45.8,7.9l0,0c8.2,3.4,12.9,9.6,14.9,18c0.6,2.5,1.3,1.9,2.9,0.7
		c10.7-8.7,21.4-17.3,32.1-26C263.7,639.1,262.3,638.9,260.9,638.9z"/>
	<path fill="#908D8A" d="M305.7,288.4c0.9-0.3,2.3-1.7,2.9,0.4c4.7,17.7,9.4,35.4,14.3,53.8c0,0.1,0.1,0.3,0.1,0.4
		c-0.1-0.1-0.2-0.1-0.3-0.2c-5.6-3.9-11.4-5.3-17.1-6.8c0,0,0,0-0.1-0.1v0.1l-2.6-0.6l-2.1,2.5l6.9,2.2c10.8,3.1,18,9.1,20.4,20.9
		c3.3,16,7.8,31.7,11.9,47.5c0.3,1-0.6,3.1,1.9,2.7c2.5-0.5,1.9-2.2,1.5-3.9l-9.2-35.6c-7.7-29.6-15.4-59.2-23.2-88.8
		c-0.2-0.9-0.7-3.4-1.7-2.3c-6.2,7.4-15.3,8.8-23.6,11.6C292.6,292.8,299.2,290.7,305.7,288.4z"/>
	<path fill="#FAFAF9" d="M228.7,686.3c1.3-0.5,2.9-0.6,3.7-1.5c11.6-11.3,23.2-22.6,34.8-33.9l-0.7-0.6l-6.7,4.6l-1,0.7l-0.4,0.6
		l0,0l-0.9,0.5h0.1l-0.4,0.3l-0.4,0.6l-0.5,0.5l-0.1-0.1l0.6-0.6l0.1,0.2v-0.2l0.4-0.4l0.2-0.3l0.5-0.7l-0.7,0.5l1.9-2.1l18.7-20.8
		c-1.8,1.3-3.8,2.3-5.2,3.9c-14,13.8-34.8,20.8-42.5,39.2c-1.3-6.9-2.1-16.5-9.8-23.4c-0.1,0-0.1,0-0.1,0l0,0l-0.7,0.7
		c0,0,0,0.1,0,0.1l1.4,2.7c0,0,0,0,0,0.1c6.5,7.5,5.9,16.8,6.7,25.8C228.1,683.9,228.4,685.1,228.7,686.3z M255.5,658.8l0.2-0.1
		l0-0.1h0l0.6-0.7l0.1,0.1l-0.7,0.6h0.1l-0.1,0.1l-0.2,0.3C255.4,659,255.4,658.9,255.5,658.8z"/>
	<path fill="#2E1F17" d="M161.2,592.3c10.2-12.4,21.1-23.9,34-33.5c0,0,0.1,0,0.1-0.1v-3.5c0,0,0,0-0.1,0l-0.1-0.1c0,0,0,0,0,0
		l-17.6,13.3l0,0c-0.2,2.7-2.4,3.5-4.2,4.7l0,0l-15.1,17.3c-0.6,2.1-2.2,3.8-4.2,4.6c-5.4,6.7-13,9.4-21,10.4
		c-10.5,1.2-21.2,0.4-31.4-2.4c0,0,0,0,0,0l-8.7-2c-9.5-1.1-18.3-4.2-27-8c-0.7,2.4,4.1,1.5,2.7,4.3c0,0,0,0,0,0
		c15.3,6.3,31.6,8.9,47.8,11.2C134.3,611,149.5,606.4,161.2,592.3z"/>
	<path fill="#908D8A" d="M303.4,273.8l-0.6,0.5c-28.9,15.7-58.8,13.7-89,4.4l-0.1,0l-3.8-1l-0.1,0c3,1.7,5.8,4,9,5.2
		c22.8,8.5,46.2,9.4,69.9,4.6l14.9-6.4l0.1-0.1c0.1-0.1,0.3-0.2,0.5-0.3l0.7-0.4l-0.7,0.4c0.3-0.1,0.5-0.1,0.7-0.3
		c0.2-0.2,0.2-0.5,0.3-0.8l-0.3,0.6l0.3-0.6c0.1-0.2,0.1-0.3,0.2-0.4l0.1-0.3l-0.1,0.1l0.1-0.1l0-0.1l0,0.1l0,0
		c0.2-0.3,0.5-0.5,0.8-0.6l0.1,0l-0.1,0c0,0,0.1,0,0.1,0c0.9-2.7-0.5-4-2.9-4.6c0,0,0,0-0.1,0L303.4,273.8z"/>
	<path fill="#908D8A" d="M303.6,281c-0.1,0.1-0.2,0.2-0.3,0.3c0.1-0.1,0.2-0.1,0.3-0.2h-0.1C303.6,281.1,303.6,281,303.6,281
		L303.6,281L303.6,281z"/>
	<path fill="#908D8A" d="M305.4,279.2c0.1-0.1,0.1-0.1,0.2-0.2h-0.1c0,0,0.1-0.1,0.1-0.1l0,0L305.4,279.2z"/>
	<path fill="#908D8A" d="M206,607.7l-9.4,2.9l-0.1,0c8.5,8.2-6.2,3.9-5,9c0.3,1.3-3.4,0.2-4.8-1.3c-0.1,0-0.1,0-0.2,0
		c-0.6,0.6-1.6,1.1-1.7,1.8c-1.6,12.8-11.8,7.8-18.9,9.4c-0.4,0.1-0.7,0.2-1.1,0.4c-0.2,0.1-0.4,0.1-0.6,0.2c0.8,1,1.5,2.6,2.4,2.7
		c4.6,0.6,9.3-0.9,13.8,1.1c1.2,0.5,4,0.3,4,0.4c0.1,2.3-1.6,3.7-3.3,5c0,0,0,0,0,0.1c-0.1,2.3,0.7,2.6,3.2,2
		c6-1.5,7.3-7.2,10.8-10.6c-0.7-1.7-2.9,0.6-3.1-1.7c0.1-0.1,0.2-0.2,0.3-0.3l-0.4,0.2l0.4-0.2c0,0,0,0,0,0l1-0.5l-1,0.5
		c0.3-0.2,0.8-0.2,1.1-0.5c0,0,0,0,0,0c-0.1,0-0.1,0-0.2,0l0.7-0.5c0,0,0,0,0,0l13.2-8.8c0,0.1,0,0.1,0,0.2c0-0.1,0.1-0.1,0.1-0.2
		C207.7,615,198.7,613.4,206,607.7z"/>
	<path fill="#2E1F17" d="M176.7,486.7c0.1-0.2,0.4-0.2,0.6-0.1c0,0,0.1,0.1,0.1,0.1l19.3,0.2l0,0.1c0,0,0,0,0,0
		c21.8,2.5,42.5,8.2,61,20.4c4.2,2.1,6,5.7,5.9,10.2c-0.2,6-2.5,10.9-8.6,13.2c-1.3,0.5-2.6,1.1-3.9,1.7l-0.1,0c0,0,0,0,0,0.1
		l0.7,2.1l0,0l3.3-0.8c0,0,0,0,0-0.1c2.2-4.7,9.7-4.8,9.5-11.7c0.7,0.5,0.9,0.1,0.9,0.7s0.1,1.3,0.2,1.9c0,0,0,0,0,0
		c3.5-6.7,2.1-12.8-2.2-18.5c0,0,0,0,0-0.1v-0.1c0,0,0,0,0-0.1l-0.5-0.4l0.5,0.4c0,0,0-0.1,0-0.1c-0.1-0.2-0.3-0.4-0.6-0.3
		c-6.4-3.3-12.7-7-19.4-9.9c-24.3-10.4-49.4-14.6-75.6-10c-0.5,0.1-1.1,0.2-1.6,0.3l8.6,0.9c0.2,0,0.3-0.1,0.5-0.1L176.7,486.7z"/>
	<path fill="#2E1F17" d="M187.5,207.2c0,0.1,0,0.2,0,0.3l4,5.5l0.5,0.6h0.1c0,0,0,0,0.1,0.1h0c0,0,0,0,0,0c2.1,0.9,4.2,1.9,6.3,2.7
		c24.4,9,49.9,8,75.2,7.1c11.6-0.4,23.2-1.9,34.1-6.9c0,0-0.1,0-0.1,0c-1.2,0-2.4-0.2-3.3,0.2c-2.5,0.9-4.8,2.7-6.6-0.9c0,0,0,0,0,0
		l-0.1,0c-28.2,6.6-56.5,6.6-84.9,1.3c-0.5-0.2-0.9-0.4-1.3-0.6c0,0,0,0-0.1,0c-6.2-1.1-12.2-2.4-17.3-6.2l0-0.1
		c0,0-0.1,0.1-0.1,0.1c-2.7-0.7-3.3-2.9-4-5.1l-2,0.6l-0.1,0C187.6,206.3,187.6,206.8,187.5,207.2z"/>
	<path fill="#2E1F17" d="M192.1,213.7l-0.5-0.6C191.6,213.5,191.7,213.7,192.1,213.7z"/>
	<path fill="#2E1F17" d="M195.3,205.9c0,0.1,0,0.1,0,0.2L195.3,205.9c25,10.9,51.4,9.9,77.7,9.2l0,0l21.7-3.3h0l13.1-3.7
		c0.6-0.1,1.2,0,1.9,0.1l-1.6,2.9c0,0,0,0,0,0c6-0.4,1.6-6.7,4.4-8.9c-21.9,10.9-45.5,10.1-69,10.1c-0.4,0-0.8-0.6-1.3-0.9h-1.7
		c-2,0.2-4.1,0.1-6.1-0.1l-16.7-2.2l-1.4-0.3c-0.7,0-1.3,0.1-1.8-0.3h0.1c-0.2-0.1-0.5-0.2-0.7-0.2c0.2,0.1,0.4,0.2,0.7,0.3
		l-15.7-4.1c-0.1,0-0.1-0.1-0.2-0.1l-4.1,0.1c0,0.1,0,0.2,0,0.2L195.3,205.9z"/>
	<path fill="#2E1F17" d="M313.3,201.7C313.3,201.7,313.4,201.7,313.3,201.7C313.4,201.7,313.4,201.7,313.3,201.7
		C313.3,201.7,313.3,201.7,313.3,201.7L313.3,201.7z"/>
	<path fill="#2E1F17" d="M216.4,208.9l1.4,0.3C217.3,208.8,216.9,208.8,216.4,208.9z"/>
	<path fill="#844C3C" d="M303.1,195.9c-0.8,4.4-5.2,5.7-8.9,7.2c-16.7,6.6-34.5,6.8-52,8.4c0.5,0.3,0.9,0.9,1.3,0.9
		c23.5-0.1,47.1,0.8,69-10.1c0.3-0.1,0.5-0.3,0.8-0.4v0v0c0,0,0,0,0,0c0.1-0.1,0.1-0.1,0.2-0.2c0.8-2.1,1-4.1-0.2-6.1c0,0,0,0,0.1,0
		c0,0-0.1-0.1-0.1-0.1l-0.5-0.7c-0.2-0.3-0.5-0.5-0.8-0.7c-4.8-2.6-9.8-4.6-15.2-5.2c0,0,0.1,0,0.1,0.1
		C299.2,191,303.9,191.5,303.1,195.9z M312.8,194.7L312,194L312.8,194.7z"/>
	<path fill="#F6F0EB" d="M216.1,691.2c-6.2-1.2-13.1-2.1-18.9-3.5s-1.8-5.8-2.3-9c-0.5-3.2,2.1-1.7,3.7-1.5l19.5,3.5
		c0.9,0.1,2.1,0.9,2.3-0.7c0.3-1.5-0.9-1.4-1.9-1.6c-7-1.3-13.9-2.7-20.8-3.9c-1.8-0.3-2-0.9-1.8-2.6c0.6-5.6,2.2-9,9-6.8
		c4.1,1.4,8.6,1.7,13,2.3c0.8,0.1,2.3-0.1,2.4-0.4c0.2-1.5-1.1-1.7-2.2-1.9c-3.9-0.7-7.7-1.1-11.4-2.1c-2.5-0.6-7.1,0.3-6.9-2.2
		c0.3-4,3.8-7.1,8.4-7.8c3.2-0.6,6.5,0.7,8.5,3.3c0,0,0-0.1,0-0.1c0-0.3,0.3-0.4,0.5-0.4c-4.8-8.4-13.1-8.7-18.2-0.3
		c-6.8,11.4-7.7,23.6-4.5,36.5c-0.5-3,1.2-2.5,2.9-2.2l18.2,3.3c1,0.2,2.2,1.4,2.7-0.6C218.7,690.8,216.9,691.4,216.1,691.2z"/>
	<path fill="#F6F0EB" d="M214.5,208.6c-0.2-0.1-0.4-0.2-0.7-0.3c-1.7-0.8-3.3-1.5-4.9-2.2c-3.4-1.8-8.6-2.7-8.3-7.4
		c0.3-4.7,5.4-5,8.9-6c15.7-4.6,31.9-5.8,48.1-6.1c9.9-0.2,19.9,0.1,29.7,0.3c-0.2,0-0.4-0.1-0.5-0.1c-2.6-0.4-5.2-0.8-7.7-1.1
		c-26.5-2.4-52.8-2.4-78.4,6.1c-2.9,1-6.3,2.3-6.9,5.9c-0.6,3.6,2.5,4.9,4.8,6.6c0.1,0,0.1,0.1,0.2,0.1L214.5,208.6z"/>
	<path fill="#F6F0EB" d="M132.5,531.3c13.1,3.9,18.2,17.5,28.9,24.5c0,0,0,0,0,0l4-3.5l0.1,0c0,0,0,0,0,0
		c-11-7.8-17.9-20.9-31.9-25.4c-3.3-1.1-4.6-5.4-4-9.4l-8.6-1.7c0,0,0,0.1,0,0.1C121.7,523.3,124.6,528.9,132.5,531.3z"/>
	<path fill="#844C3C" d="M235.7,519.3c-6.3,0.4-12.5,2.1-18.2,5c-3.1,1.5,1.2,2.2,1.8,3.3c0.6,1.1,2.1,2.4,3.3,3.5
		c-0.5-0.4-1-0.7-1.6-1.1c0.5,0.4,1,0.8,1.6,1.2c3.3,1,2.1,6.9,7,6c5-0.9,9.9-2.7,14.8-4.1C240.2,529.4,238.6,523.9,235.7,519.3z"/>
	<path fill="#844C3C" d="M309.7,208.2c-0.6-0.1-1.2-0.1-1.9-0.1l-13.1,3.7h0h0c-4.8,2.9-10.3,3.1-15.6,3.9c0,0,0,0,0,0
		c-22.6,3.2-45.2,2.7-67.8,0.8c0.4,0.2,0.9,0.4,1.3,0.6c28.4,5.3,56.6,5.4,84.9-1.3l0.1,0l2.5-0.7h0l8-4h0l0.1-0.1L309.7,208.2z"/>
	<path fill="#844C3C" d="M254.9,530.8c6.2-2.3,8.4-7.2,8.6-13.2c0.1-4.4-1.7-8-5.9-10.2c3.2,4.5,2.3,7.5-3.5,8.5
		c-2.3,0.5-5.3,0.5-7.2,0.8c0,0-0.1,0-0.2,0l-4.9,1.8c0,0,0,0-0.1,0c1.2,5.5,4.8,9.6,8.3,13.7l-0.1,0c0,0,0,0,0.1,0.1l0.8,0.1l0.1,0
		C252.3,531.9,253.6,531.2,254.9,530.8z"/>
	<path fill="#2E1F17" d="M182.6,539.1C182.6,539.1,182.6,539.1,182.6,539.1C182.6,539.1,182.5,539.1,182.6,539.1l-17.1,13.2l-0.1,0
		l-4,3.5l-0.1,0.1l-15.1,15.3l-0.1,0.1l-4,4.5c0,0,0,0-0.1,0c0,0,0,0,0.1,0c-3.7,4.1-8.6,6.1-13.8,7.3c-0.3,0.2-0.5,0.5-0.9,0.3
		l-2.5,0.4c-0.1,0.2-0.4,0.2-0.6,0.1c0,0,0,0,0,0c-0.1,0.1-0.2,0.2-0.3,0.4l-0.1,0.5c0,0.1,0,0.1,0,0.2c0.1,0.1,0.1,0.2,0.2,0.3
		l1.5,0.4c0,0,0,0,0,0c0,0-0.1-0.1-0.1-0.1c7.2-0.9,14-3.6,19.9-7.8c0,0,0,0,0,0c0.8-2.3,2.6-3.7,4.7-4.8
		c3.9-5.4,8.3-10.4,13.7-14.3l4.2-3.7l18.1-14.1c2.3-1.7,3.1,0.4,3.7,1.7c1.9,4.2,3.6,8.4,5.4,12.7l-0.1,0.1c0,0,0,0,0,0l0.1,0.1
		c0,0,0,0,0.1,0c3.4-1.5-2.4-4.5,0.9-6.1c0,0,0,0,0-0.1l0,0v-1.2c0-0.1,0-0.3-0.1-0.4c-4.1-2.7-4.7-9.5-11.1-9.6c0,0,0,0,0,0
		L182.6,539.1z"/>
	<path fill="#F6F0EB" d="M61,639.3c-3.7,1.3-7.6,2.3-11.1,4.1c-5,2.7-6.6,0.5-8.1-4c-1.5-4.4,2.9-3.2,4.5-4.1
		c3.9-2.1,8.1-3.5,12.1-5.3c0.7-0.3,2.3-0.2,1.6-1.8c-0.7-1.6-1.8-0.3-2.5-0.1c-4,1.5-8.2,2.8-11.9,4.9c-4.9,2.8-6.7,1.5-7.4-3.9
		c-0.7-5.3,3.3-3.3,6.3-5.4c3-2.1,6.5-3.5,9.8-5.2c-4.3-1.4-7.2,1.9-10.7,3.2c-6,2.1-6.2,2.4-6.2,1.4c-0.3-4.2,0.3-8.4,4.8-10.2
		c1.7-0.7,3.9-0.1,5.8-0.1l0,0v0v-0.7c0,0,0-0.1-0.1-0.1c-6.8-4.4-13-1.4-13.2,6.8c-0.4,10.7,3.3,21.1,10.5,29.1h1.1
		c0.1,0,0.1-0.1,0.2-0.1c-0.5-1.8,1.3-1.5,2.1-1.9c4.3-1.7,8.7-3.3,12.9-5c0.9-0.3,2.3-1.5,2.1-1.9C63,637.7,61.9,638.9,61,639.3z"
		/>
	<path fill="#908D8A" d="M75.2,633.5c-3.9,2.4-5.9,1.1-7.8-2.9c-3.3-6.9-6.2-14.1-13.7-17.9c6.5,8.3,13.3,17.1,12.9,27.6
		c-0.5,13.1,5.3,6.4,9.9,4.3c1.7-0.8,5-0.3,4.6-3.7S79.3,634.3,75.2,633.5z"/>
	<path fill="#908D8A" d="M57.2,614c-0.8-0.7-1.6-1.7-2.7-1.6c1.2,0.7,2.3,1.5,3.4,2.3C57.7,614.5,57.5,614.2,57.2,614z"/>
	<path fill="#F6F0EB" d="M206.9,271.8L206.9,271.8l1.6,1c-7-12.5-14-25.2-19.1-38.6c-1-2.7-3.7-5.2-1.8-8.6h0l0,0l-2.4-1.7l-0.1,0
		l-5.5-2.4c7,17.9,14.2,35,26.2,49.6c0.1,0,0.2,0.1,0.2,0.2L206.9,271.8z"/>
	<path fill="#F6F0EB" d="M206.1,271.2c0.2,0.3,0.2,0.7,0.6,0.7c0,0,0.1,0,0.2,0L206.1,271.2z"/>
	<path fill="#F6F0EB" d="M144.9,497.5c0,0,0.1,0,0.1,0c6.3-1.6,13.5-7.3,17,3.8l4.4-2.1c-6.8-7.9-0.8-8.5,5.2-9.3
		c4.2-0.5,8.3-1.2,12.3-2.1c4.3-1.1,6.7-0.1,7.2,4.5c0,0,0,0,0,0l4.8-1v0l0.6-4.4l0-0.1l-19.3-0.2c0,0-0.1-0.1-0.1-0.1
		c-0.2-0.1-0.4-0.1-0.6,0.1l-1.3,0.2c-0.2,0-0.3,0.1-0.5,0.1c-10,1.5-19.8,3.6-29.4,6.9C142.2,495,142,496.4,144.9,497.5z"/>
	<path fill="#D6C198" d="M302.8,335.3l2.5-2.5c0,0,0-0.1,0.1-0.1c0.1-0.1,0.1-0.1,0.2-0.2l1.7-2.4c0,0,0-0.1,0-0.1l0.7-2.8l-2.9,2.3
		c-1.5,2.4-3.4,4.3-6.2,5.2c0,0-0.1,0-0.1,0.1l-2.5,2.6c-2.3,2.9-5.2,2.7-8.9,1.7l3.5-2.6c0,0,0.1,0,0.1,0l-0.1,0l4-2.5
		c2.6-4.1,7.5-6.3,9.3-11.2l-14,10.7c0,0,0,0,0,0l-3.5,2.7l-0.2,0.1l-4.9,2.5c0,0-0.1,0-0.1,0.1l0.1,0l-1.2,1.3l-0.1,0l-13.3,7.4
		c0,0,0,0,0,0l0.1,0l0.8,0.7c7.3-1.2,13-7.8,22.5-7.1c0.4,0,0.9,0.1,1.3,0.1l-1.1,0.6l-10.9,5.7c0,0,0,0-0.1,0.1l0.1-0.1v1.1
		l15.8-6.7l1.3-1.1h0l0,0l0.3-0.2l3.8-2.7L302.8,335.3z"/>
	<path fill="#E97F63" d="M184,487.8c-4.1,0.9-8.2,1.7-12.3,2.1c-6,0.8-12,1.4-5.2,9.3c7.8-3.7,16.2-6.1,24.8-6.9c0,0,0,0,0,0
		C190.7,487.7,188.3,486.7,184,487.8z"/>
	<path fill="#908D8A" d="M290.1,333.4L290.1,333.4c-5.6-0.6-11.2-1.5-16.7-1.8c-11.4-0.4-22.8-1-34,1.9c-0.2,0-0.4,0.1-0.6,0.1
		c2,0.1,3.9,0.3,5.9,0.3c14,0.1,27.9-0.5,41.7,2.1c0.1,0,0.1,0,0.2,0L290.1,333.4z"/>
	<path fill="#844C3C" d="M89,594.9C88.9,594.9,88.9,594.8,89,594.9C88.9,594.9,88.9,594.9,89,594.9c-9.1,0.2-17.1-3.3-25.3-6.6
		c-0.3,1.3,2.1,2,0.9,3.4c0,0,0,0,0,0.1l1.3,1.1c8.7,3.7,17.5,6.9,27,8L89,594.9z"/>
	<path fill="#2E1F17" d="M219.3,527.6c-0.6-1.1-4.8-1.8-1.8-3.3c5.7-2.9,11.9-4.6,18.2-5c0,0,0,0,0,0c2-1.1,4-1.7,6.2-0.7
		c0,0,0,0,0,0c0,0,0,0,0.1,0l4.9-1.8l0.2-0.1l-8.6-0.7c0,0,0,0,0,0c0,0,0.1,0.1,0.1,0.1l-7.6,1.1l-13.6,3.7c-0.1,0-0.1,0-0.2,0
		c-3.2,1.7-6.4,2.3-9.7,0.2c0,0,0,0-0.1,0c3.7,4.3,9.1,6,13.6,9c0.5,0.3,1.1,0.7,1.6,1.1C221.4,530,219.9,528.7,219.3,527.6z"/>
	<path fill="#F6F0EB" d="M63.7,588.3c-2.8-5.4-4.3-11.3-4.4-17.3c0-1-0.7-2.7,1.4-2.7l0,0v0l-0.8-2.6l-2.3-5.6
		c-4.8,11.8-2,24.8,6.9,31.7c0,0,0,0,0.1-0.1C65.8,590.2,63.4,589.6,63.7,588.3z"/>
	<path fill="#F6F0EB" d="M67.3,630.6c1.9,4,4,5.2,7.8,2.9c-5.3-6.8-10.4-13.8-17.2-18.8c-1.1-0.8-2.2-1.6-3.4-2.3
		c-2.1-1.2-4.3-2.3-6.8-3.1l5.8,3.5c0,0,0.1,0,0.1,0C61.1,616.5,64,623.8,67.3,630.6z M68.5,626.7l0.7,0.8l-0.7,0.5
		c-0.2-0.3-0.3-0.6-0.5-0.9C68.1,627,68.3,626.8,68.5,626.7z"/>
	<path fill="#2E1F17" d="M60.6,568.3c4,3.6,8.9,6,13.8,8.1c0,0,0,0,0-0.1l8.4,2.9l0.1,0.1c0,0,0,0,0,0l10,1.2c0-0.1,0-0.1,0.1-0.2
		c0-0.1,0-0.2,0-0.4l-11.1-3.7l-0.8-0.4l-1.9-0.9v0l-6.4-3.1c0,0,0,0,0,0c0,0,0,0,0,0.1c-5.5-1.9-10-4.8-11.5-10.9l-0.3-0.7
		c0,0,0,0-0.1,0c-3.6,1,2.6,4.4-1.2,5.3L60.6,568.3L60.6,568.3z M81.8,576.2l-0.8-0.4L81.8,576.2z"/>
	<path fill="#E97F63" d="M145.1,497.5c0,0-0.1,0-0.1,0c4.8,5,10.1,8.3,17.1,3.8c0,0,0,0,0,0C158.6,490.2,151.3,495.9,145.1,497.5z"
		/>
	<path fill="#844C3C" d="M182.6,539.1C182.6,539.1,182.6,539.1,182.6,539.1l2.4-1.3l0.1-0.1c-0.8-0.9-1.3-2.1-2.2-2.7
		c-13.1-7.2-26.7-13.2-42-13.9c0.1,0,0.1,0.1,0.2,0.1c0.3,0.2,0.6,0.4,0.9,0.5C156.3,525.8,170.8,529.2,182.6,539.1z"/>
	<path fill="#908D8A" d="M173.6,646c2.5-0.4,4.6-2.7,3.6-5c-1-2.3-2.4,1.1-3.8,0.9c-6.4-0.9-8.4,5.8-13.3,7.6c0,0,0,0.1,0,0.1
		c0.1,3.3-0.9,7.9,5.3,5.1c0-0.1,0-0.1,0.1-0.2l-0.1,0l0.1,0c0.1-0.4,0.5-0.5,0.8-0.6l0.5-0.4l-0.5,0.4c0.2-0.1,0.4-0.1,0.5-0.2
		c0,0,0-0.1,0-0.1C167.1,649.2,169.2,646.7,173.6,646z"/>
	<path fill="#F6F0EB" d="M189.8,222.6c-2.1-2.3-4.6-4.4-6.2-7c-2.2-3.8-0.7-6.9,3.4-8.5c0,0,0,0,0,0l0.5-1.1
		c-0.2-0.2-0.3-0.4-0.3-0.7c0-1.1,0.9-2.9-0.9-2.3c-3.7,1.3-7.8,3.6-9,7.6c-1.2,4,2.7,6.8,4.6,8.3c2,1.5,4.3,2.5,6.4,3.7
		c0,0,0,0,0.1,0H189.8z"/>
	<path fill="#F6F0EB" d="M241.9,518.6C241.9,518.6,241.9,518.6,241.9,518.6c-2.2-1-4.2-0.4-6.2,0.7c0,0,0,0,0,0
		c2.9,4.6,4.5,10.1,8.8,13.8l5.6-0.8l0.1,0C246.7,528.2,243.1,524.1,241.9,518.6z"/>
	<path fill="#908D8A" d="M220.5,536.7l0.1-0.2c-2.7-2.4-5.9-3.3-9.3-3.9l-1.1,11.4c-5.6-7.4-12.4-12.7-20.8-15.8
		c7.7,4.9,14.7,10.6,20,18.1c0.5,0.7,1.1,1.3,1.7,1.9c0.2-0.9,0.6-1.8,0.9-2.6C213.9,541.9,208.2,530.6,220.5,536.7z"/>
	<path fill="#F6F0EB" d="M229.6,365c-14.3-3.6-30.4-1.8-42.2-13.5C185.2,358.4,214.5,368.2,229.6,365z"/>
	<path fill="#F6F0EB" d="M219.5,509.6l0.1-0.7C219.5,509.1,219.5,509.4,219.5,509.6z"/>
	<path fill="#F6F0EB" d="M230.9,517.1l7.6-1.1c0,0-0.1-0.1-0.1-0.1c-5.3-4.2-12.1-4.8-17.9-7.5l-1,1.6l-0.9,3.3L230.9,517.1z"/>
	<path fill="#F6F0EB" d="M241.9,584.4L241.9,584.4c0.2,1.4-0.1,3.8,2.1,3.2c11.4-3.2,12.7-11.6,11.2-22.2l-1,3.7v0
		C252.4,575.9,251.5,583.6,241.9,584.4z"/>
	<path fill="#F6F0EB" d="M182.7,496.4c14.1,3.1,17.6,7.5,14.6,16.9l0.7,0.4c3.4-6.6,1.5-12-4.3-16.6c4.2-0.3,7.2,1.6,10.2,3.6
		c0,0,0,0,0.1,0l0,0l0.3-0.2c0,0,0-0.1,0-0.1C198.9,492.8,191.6,495.9,182.7,496.4z"/>
	<path fill="#908D8A" d="M207.8,596c-0.7-15.7-3.1-31-10.2-45.2C202.3,565.5,205.3,580.7,207.8,596z"/>
	<path fill="#F6F0EB" d="M113.5,490.3c5,6.4,9.2,13.5,15.7,18.7l0.5-0.5c-9.4-8.8-12.9-23.2-26.6-28
		C107.3,482.9,110.5,486.4,113.5,490.3z"/>
	<path fill="#E97F63" d="M217.2,520.7c-0.1,0-0.1,0.1-0.2,0.1C217.1,520.8,217.2,520.8,217.2,520.7l13.6-3.6l-12.3-3.8l-5.9,5.3
		L217.2,520.7z"/>
	<path fill="#908D8A" d="M107,507.4c0,0,0-0.1-0.1-0.1c-5.6-3.7-11.3-7.4-11-15.2c0.1-3.9,2.1-6.7,7.1-7.7c-6.4-1.4-8.8,1.7-9.2,6.2
		c-1,9.7,5.1,14.6,13.2,17.8V507.4z"/>
	<path fill="#F6F0EB" d="M224.7,551c-0.9,1.5-1.9,2.9-4.1,2.9l0,0.1l1.2,3.3c1.5-0.6,3.9-0.9,4.3-1.9c2.3-5.8,7-5,11.6-4.8
		c0,0-0.1,0-0.1-0.1C233.2,547.2,228.7,544.7,224.7,551z"/>
	<path fill="#908D8A" d="M189.3,501.4c-10.1-4.2-25.6,0.1-32.3,8.3c0,0,0,0.1,0,0.1l0.5,0.4C166.9,503.7,176.8,500,189.3,501.4z"/>
	<path fill="#F6F0EB" d="M255,555c-4.8,3.8-5,8.9-5.2,14.1c0.1-0.2,0.2-0.4,0.4-0.7c2.9-5.5,6-10.8,8.7-16.3c0.5-0.9,2.1-5.1-2.4-3
		c0,0,0,0,0,0C255.9,551.2,256.2,554.1,255,555z"/>
	<path fill="#F6F0EB" d="M251.2,543.6c-1.6,0.1-4,2.6-2.9,5.5l0,0c1.7-1.1,2.5-2.5,5.2-3c2.7-0.5,5.4-0.4,6.5-3.7
		c1.1-3.3-0.2-6.5-2.3-9.2c0,0,0,0,0,0l0,0l0,0C257.4,537.8,258.5,543,251.2,543.6z"/>
	<path fill="#F6F0EB" d="M286.2,372.3c10.6-1.3,21.2-2.5,29.9-9.8l-0.4-0.3l0.1-0.1c0,0-0.1,0-0.1,0c-9.5,5-19.7,7.4-30.2,9.1
		c0,0,0,0,0,0l0.1,0L286.2,372.3z"/>
	<path fill="#908D8A" d="M136.2,652.7c-1,0.3-2,0.6-2.9,1c-1.9,0.8-3.6,2-5.1,3.6c2.4,2,5.1,3.5,8.3,2.8c0.1,0,0.2,0,0.2,0
		C133.4,657.9,141.8,654.7,136.2,652.7z"/>
	<path fill="#F6F0EB" d="M215.7,512.6c2.2-6-1.1-11.7-3.6-15.1s-6.5-4.6-11.2-3.2C212.1,495.8,214.8,503.3,215.7,512.6z"/>
	<path fill="#F6F0EB" d="M194,627.8L194,627.8l-0.7,0.5c0.1,0,0.1,0,0.2,0c1.9-0.2,3.9-0.3,5.6-0.8c4.1-1.3,8.1-2.9,8.1-8.3
		c0-0.1,0-0.1,0-0.2L194,627.8z"/>
	<path fill="#F6F0EB" d="M205,386.6c1.4-0.9,3.1-0.7,4.3,0.4c1.8,1.5,1.7,3.5,0.9,5.4c0.1,0.1,0.3,0.2,0.3,0.4c2.4-2.4,2.3-5,0-7.2
		c-2.3-2.2-5.3-1.9-7.4,0.1s-1.9,4.2,0.2,7.9C202.8,389.9,202.8,387.9,205,386.6z"/>
	<path fill="#908D8A" d="M192.9,515.4l-0.1,0.2l-0.3-0.3c-7.7,4.4-16.1,5.2-24.7,4.8c8.9,1.5,17.7,2.4,25.1-4.5V515.4z"/>
	<path fill="#F6F0EB" d="M143.3,518.4l0.1-1.1c-1.5-8.7,6.1-8.6,10.8-11.3c-5.8-0.6-9.8,2.5-12.7,7.1
		C140.3,515.2,139.3,517.8,143.3,518.4z"/>
	<path fill="#908D8A" d="M106.9,647.7C106.9,647.7,106.9,647.7,106.9,647.7c-2.8-0.5-6.2,1-6.7,2.4c-0.5,1.4,2.1,3.5,4.7,3.3
		c0-0.1-0.1-0.1-0.1-0.2C104.3,651,110.8,651,106.9,647.7z"/>
	<path fill="#908D8A" d="M269.1,412c-3-0.3-5.6-1.1-5.4-4.2s3-3.1,5.9-3.1c-2.7-1.9-4.7-1.7-6.4,0.2c-1.7,1.9-1.9,4.1-0.4,6
		C264.3,412.8,266.3,413.8,269.1,412z"/>
	<path fill="#F6F0EB" d="M193.9,210.3c0,0,0.1-0.1,0.1-0.1l1.4-4.2c0-0.1,0-0.1,0-0.2l-0.8-1.2l-0.1-0.1l-3.7-2.9l-0.9,3.5
		c0,0,0,0,0,0C190.6,207.4,191.2,209.7,193.9,210.3z"/>
	<path fill="#908D8A" d="M279.2,560.5c3.1,1.9,5.2,1.7,7-0.5c1.6-1.7,1.6-4.4,0-6c-1.7-2-3.9-2.3-6.6-0.5c3,0.1,5.9,0.4,5.8,3.7
		S282.6,560.6,279.2,560.5z"/>
	<path fill="#F6F0EB" d="M303.6,281L303.6,281L303.6,281l-14.9,6.4l0.8,1.2l0.1,0.1c5.1-1.7,10.2-3.2,13.8-7.5
		C303.4,281.2,303.5,281.1,303.6,281L303.6,281z"/>
	<path fill="#F6F0EB" d="M128.8,484.8L128.8,484.8c-3.8-3.3-8.2-4.7-15.4-4.1l14.7,4.5C128.3,485,128.6,484.8,128.8,484.8z"/>
	<polygon fill="#908D8A" points="296.7,340.7 295.5,341.8 311.1,345.9 311.3,344.9 297.1,340.8 296.7,340.7 	"/>
	<polygon fill="#908D8A" points="281.6,338.8 281.5,338.7 268.4,337.5 268.4,338.6 268.3,338.5 268.3,338.6 280.3,340 280.4,340 	
		"/>
	<path fill="#844C3C" d="M217.1,520.8c0.1,0,0.1-0.1,0.2-0.1l-4.6-2l0,0l-5.2,2.4c0,0,0,0,0,0C210.7,523.1,213.9,522.5,217.1,520.8z
		"/>
	<path fill="#7D6F58" d="M284.3,391.7c-1.3,1.5-1.4,3.3,0.3,5.4c0.5-2.1-0.1-4.6,2.3-5.1c2.3-0.5,3.1,1.3,3.8,3.2
		c0.7-2.3,0.1-3.9-1.9-4.6C287.2,389.9,285.4,390.3,284.3,391.7z"/>
	<path fill="#908D8A" d="M334.9,557.2c1.9,4,2.3,8.2,2.1,12.5C338.4,565.2,339.2,560.8,334.9,557.2z"/>
	<path fill="#2E1F17" d="M153.2,488.7c4.6,0.3,9-0.1,12.9-2.8l-0.3,0.1l-11,2.4L153.2,488.7z"/>
	<path fill="#908D8A" d="M336.7,553.8l-0.1,0.1l0,0l-0.1,0.1c2.4,3.1,4.4,6.4,4.4,10.5C341.6,560,341.3,556,336.7,553.8z"/>
	<path fill="#2E1F17" d="M313.5,201.5c0,0.1-0.1,0.3-0.1,0.4c1.4,0.1,2.7,0.2,2.7-1.9c0-2,0.3-4.4-2.7-4.6c0,0,0,0-0.1,0
		C314.5,197.4,314.3,199.4,313.5,201.5z"/>
	<path fill="#2E1F17" d="M300.1,215.1L300.1,215.1c3.5,0.4,6.5-0.3,8-4h0L300.1,215.1z"/>
	<polygon fill="#7D6F58" points="268.4,337.5 268.4,337.5 257,337.5 257,337.6 257,337.7 257,337.9 268.3,338.5 268.4,338.6 	"/>
	<path fill="#844C3C" d="M217.7,541.6c0.8,0.1,1.6-0.9,2.4-1.3l-3.1-1.7c-0.4,0.4-1.5,0.3-1,1.1S216.9,541.5,217.7,541.6z"/>
	<polygon fill="#7D6F58" points="166.5,520.5 166.6,519.5 158.9,518.6 158.9,519.1 	"/>
	<path fill="#7D6F58" d="M237.8,365.8l8.3,0.9V366l-8.4-0.7C237.6,365.5,237.6,365.7,237.8,365.8z"/>
	<polygon fill="#908D8A" points="274.4,349.9 274.5,349.9 274.3,349.9 	"/>
	<polygon fill="#908D8A" points="279.7,347.4 279.5,347.4 274.5,349.9 279.7,348.5 279.7,348.5 	"/>
	<polygon fill="#F6F0EB" points="325.5,562.4 325.5,562.4 327.4,557.4 327.3,557.5 324.6,561.4 324.7,561.5 	"/>
	<polygon fill="#D6C198" points="286.2,372.3 286.2,372.3 285.6,371.4 285.5,371.4 279.7,372.1 279.6,372.7 	"/>
	<polygon fill="#D6C198" points="305.5,364.4 309.4,363.1 309.1,362.3 305.5,363.4 305.5,363.4 	"/>
	<polygon fill="#7D6F58" points="279.7,372.1 275.7,372.7 275.7,373.3 279.6,372.7 	"/>
	<path fill="#908D8A" d="M267,347.4L267,347.4l-3.5,1.8c0.1,0.1,0.2,0.2,0.1,0.4h0h0.1l0.1,0l4-1.4l0,0L267,347.4z"/>
	<polygon fill="#7D6F58" points="110.3,509.3 107,507.3 107,507.4 107,508.4 	"/>
	<path fill="#F6F0EB" d="M237.6,365.4l-5.9-0.5l0.1,0.9l-0.1,0c0,0,0,0.1,0.1,0.1h5.9C237.6,365.7,237.6,365.5,237.6,365.4z"/>
	<polygon fill="#D6C198" points="220.5,653.3 218.8,652.1 219.6,654.1 219.8,653.9 220.5,653.3 	"/>
	<path fill="#844C3C" d="M257,337.5h-3.1v0.4h3.1c0-0.1,0-0.1,0-0.2c0,0,0-0.1,0-0.1C257,337.6,257,337.5,257,337.5z"/>
	
		<line fill="none" stroke="#908D8A" stroke-width="0" stroke-linecap="round" stroke-linejoin="round" x1="235.1" y1="334.1" x2="237.1" y2="333.8"/>
	<path fill="#908D8A" d="M132.1,511.4C132.1,511.5,132.1,511.5,132.1,511.4L132.1,511.4l0.6-0.5l0,0v0l-1.4-0.9h-1.1L132.1,511.4z"
		/>
	<path fill="#908D8A" d="M131,509.7C131,509.7,131,509.7,131,509.7l0.3,0.3C131.2,509.9,131.1,509.8,131,509.7z"/>
	<path fill="#D6C198" d="M46.9,649.9C46.9,649.9,46.9,649.9,46.9,649.9L46.9,649.9l0.5-0.7l-0.8-1.1h-0.2h-1.1L46.9,649.9z"/>
	<polygon fill="#908D8A" points="144.9,518.2 143.5,517.3 143.3,518.4 	"/>
	<polygon fill="#7D6F58" points="196.2,549 197,549.6 196.2,547.4 196.2,547.9 196.2,549 	"/>
	<polygon fill="#908D8A" points="220.4,508.5 219.8,507.4 219.6,508.9 219.5,509.6 219.4,510.1 	"/>
	<polygon fill="#908D8A" points="196.9,515.5 198.1,513.8 198,513.7 197.3,513.4 	"/>
	<path fill="#FAFAF9" d="M204,602.3L204,602.3L204,602.3C204,602.3,204,602.3,204,602.3C204,602.3,204,602.3,204,602.3
		c1.4,0,1.5-0.6,0.7-1.6l-0.1,0.2l-0.5,1.2L204,602.3z"/>
	<polygon fill="#F6F0EB" points="318.1,360.9 317.4,361.1 318,361 	"/>
	<polygon fill="#F6F0EB" points="316.1,362.6 318,361 317.4,361.1 315.9,362.2 315.7,362.3 	"/>
	<polygon fill="#908D8A" points="231.7,364.9 231.7,364.8 229.9,365.2 231.8,365.8 231.9,365.8 	"/>
	<polygon fill="#F6F0EB" points="130.2,510 131.3,510 131,509.7 129.7,508.5 129.1,509 	"/>
	<polygon fill="#7D6F58" points="274.2,349.9 274.3,349.9 274.3,349.9 	"/>
	<polygon fill="#7D6F58" points="273,350.4 274.2,349.9 272.9,350.2 	"/>
	<polygon fill="#908D8A" points="311.5,361.9 311.5,361.9 311.6,361.8 	"/>
	<polygon fill="#908D8A" points="312.1,361.4 311.6,361.8 312.4,361.6 	"/>
	<polygon fill="#7D6F58" points="183,525.6 182.5,525.6 182.7,525.7 	"/>
	<polygon fill="#7D6F58" points="184.8,526.5 185,526.2 184.5,526 184.2,526.2 	"/>
	<polygon fill="#7D6F58" points="186.4,526.7 186.2,527 187.2,527.2 187.3,527.2 	"/>
	
		<line fill="none" stroke="#F6F0EB" stroke-width="0" stroke-linecap="round" stroke-linejoin="round" x1="303.6" y1="281" x2="303.5" y2="281.1"/>
	
		<line fill="none" stroke="#F6F0EB" stroke-width="0" stroke-linecap="round" stroke-linejoin="round" x1="303.7" y1="281" x2="304.2" y2="280.7"/>
	
		<line fill="none" stroke="#F6F0EB" stroke-width="0" stroke-linecap="round" stroke-linejoin="round" x1="304.8" y1="280.3" x2="304.2" y2="280.7"/>
	
		<line fill="none" stroke="#F6F0EB" stroke-width="0" stroke-linecap="round" stroke-linejoin="round" x1="303.6" y1="281" x2="303.7" y2="281"/>
	<polygon fill="#908D8A" points="132.1,511.4 132.1,511.5 133.3,512.3 133.7,511.8 132.7,510.9 132.7,510.9 	"/>
	<polygon fill="#908D8A" points="311.2,362 310.2,362.2 310.3,362.5 	"/>
	<polygon fill="#908D8A" points="311.5,361.9 311.2,362 311.5,362 	"/>
	
		<line fill="none" stroke="#F6F0EB" stroke-width="0" stroke-linecap="round" stroke-linejoin="round" x1="192.3" y1="628.7" x2="192.4" y2="628.7"/>
	
		<line fill="none" stroke="#F6F0EB" stroke-width="0" stroke-linecap="round" stroke-linejoin="round" x1="193.3" y1="628.2" x2="192.4" y2="628.7"/>
	
		<line fill="none" stroke="#F6F0EB" stroke-width="0" stroke-linecap="round" stroke-linejoin="round" x1="192" y1="628.9" x2="192.3" y2="628.7"/>
	<polygon fill="#7D6F58" points="110.2,509.3 110.9,509.9 111.1,509.5 110.3,509.3 	"/>
	<polygon fill="#908D8A" points="335.4,553.1 335.8,553.3 335.4,553.1 	"/>
	<polygon fill="#908D8A" points="336.7,553.8 336.8,553.7 335.8,553.3 336.6,553.9 336.6,553.9 	"/>
	<path fill="#7D6F58" d="M263.5,349.2c0,0-0.1-0.1-0.1-0.1l-1,0.5h1h0.3C263.7,349.4,263.6,349.3,263.5,349.2z"/>
	
		<line fill="none" stroke="#2E1F17" stroke-width="0" stroke-linecap="round" stroke-linejoin="round" x1="206.9" y1="271.8" x2="206.1" y2="271.2"/>
	
		<line fill="none" stroke="#2E1F17" stroke-width="0" stroke-linecap="round" stroke-linejoin="round" x1="205.9" y1="271" x2="206.1" y2="271.2"/>
	<rect x="260.9" y="350.2" fill="#7D6F58" width="0.3" height="0.2"/>
	
		<line fill="none" stroke="#FAFAF9" stroke-width="0" stroke-linecap="round" stroke-linejoin="round" x1="166.8" y1="653.5" x2="166.3" y2="653.8"/>
	
		<line fill="none" stroke="#FAFAF9" stroke-width="0" stroke-linecap="round" stroke-linejoin="round" x1="165.4" y1="654.4" x2="166.3" y2="653.8"/>
	
		<line fill="none" stroke="#FAFAF9" stroke-width="0" stroke-linecap="round" stroke-linejoin="round" x1="165.4" y1="654.5" x2="165.4" y2="654.4"/>
	<polygon fill="#7D6F58" points="220.6,536.5 220.5,536.7 221.8,537.2 	"/>
	
		<line fill="none" stroke="#F6F0EB" stroke-width="0" stroke-linecap="round" stroke-linejoin="round" x1="304.9" y1="280.3" x2="305.2" y2="279.6"/>
	
		<line fill="none" stroke="#F6F0EB" stroke-width="0" stroke-linecap="round" stroke-linejoin="round" x1="305.2" y1="279.6" x2="305.4" y2="279.2"/>
	
		<line fill="none" stroke="#F6F0EB" stroke-width="0" stroke-linecap="round" stroke-linejoin="round" x1="305.6" y1="278.9" x2="305.4" y2="279.2"/>
	
		<line fill="none" stroke="#F6F0EB" stroke-width="0" stroke-linecap="round" stroke-linejoin="round" x1="305.6" y1="278.9" x2="305.6" y2="278.9"/>
	<polygon fill="#908D8A" points="188.4,527.5 187.3,527.2 187.2,527.2 188.2,527.8 	"/>
	
		<line fill="none" stroke="#E97F63" stroke-width="0" stroke-linecap="round" stroke-linejoin="round" x1="109.1" y1="514.2" x2="109.8" y2="514.3"/>
	<path fill="#908D8A" d="M134.2,512.9c0-0.2,0.2-0.3,0.3-0.3l-0.9-0.7l-0.4,0.5L134.2,512.9z"/>
	<path fill="#844C3C" d="M154.9,512.2l-0.1,0.1C154.8,512.3,154.8,512.3,154.9,512.2z"/>
	<path fill="#844C3C" d="M154.8,512.3c0-0.1,0-0.3-0.2-0.3c0,0,0,0,0,0l0.1-0.1c0,0-0.1,0-0.1,0l-0.5,0.6l0.3,0.3L154.8,512.3z"/>
	<path fill="#7D6F58" d="M134.2,512.9l0.7,0.1l-0.4-0.5C134.3,512.6,134.2,512.7,134.2,512.9z"/>
	<polygon fill="#844C3C" points="153.8,513 154.2,512.8 154,512.6 	"/>
	
		<line fill="none" stroke="#F6F0EB" stroke-width="0" stroke-linecap="round" stroke-linejoin="round" x1="305.6" y1="278.9" x2="306.4" y2="278.3"/>
	
		<line fill="none" stroke="#F6F0EB" stroke-width="0" stroke-linecap="round" stroke-linejoin="round" x1="305.6" y1="278.9" x2="305.5" y2="279"/>
	
		<line fill="none" stroke="#F6F0EB" stroke-width="0" stroke-linecap="round" stroke-linejoin="round" x1="306.5" y1="278.3" x2="306.4" y2="278.3"/>
	
		<line fill="none" stroke="#F6F0EB" stroke-width="0" stroke-linecap="round" stroke-linejoin="round" x1="305.6" y1="278.9" x2="305.6" y2="278.9"/>
	<path fill="#908D8A" d="M217.4,657.9c0.1-0.1,0.1-0.1,0.2-0.2s-0.1-0.2-0.1-0.3c-0.1,0.1-0.1,0.1-0.2,0.2
		C217.2,657.7,217.4,658,217.4,657.9z"/>
	<polygon fill="#908D8A" points="217.1,657 217.1,656.2 216.6,656.7 	"/>
	
		<line fill="none" stroke="#2E1F17" stroke-width="0" stroke-linecap="round" stroke-linejoin="round" x1="312.8" y1="194.7" x2="312" y2="194"/>
	<path fill="#D6C198" d="M48.8,650.9l-0.2-0.1l0.2,0.3C48.8,651.1,48.8,650.9,48.8,650.9z"/>
	<polygon fill="#D6C198" points="48.6,650.7 48.5,650.7 48.6,650.8 	"/>
	<polygon fill="#D6C198" points="47.5,650.4 48.5,650.6 47.9,650 47.5,650.4 	"/>
	<polygon fill="#D6C198" points="48.6,650.7 48.5,650.6 48.5,650.7 	"/>
	<polygon fill="#D6C198" points="46.9,649.9 47.5,650.4 47.5,650.4 47.9,650 47.3,649.3 47.3,649.3 46.9,649.9 	"/>
	<polygon fill="#908D8A" points="157,509.7 156.8,510.5 157.6,510.1 157.1,509.7 	"/>
	<polygon fill="#908D8A" points="156,511.2 155.8,510.8 155.4,511.3 155.5,511.4 	"/>
	<path fill="#908D8A" d="M154.6,512c0.1,0,0.2,0.2,0.2,0.3l0.1-0.1l0.6-0.8l-0.1-0.1L154.6,512L154.6,512
		C154.6,512,154.6,512,154.6,512z"/>
	<polygon fill="#F6F0EB" points="204.3,501.6 204.3,501.5 204.3,501.7 	"/>
	<polygon fill="#F6F0EB" points="203.9,500.7 204.3,501.5 204.3,500.4 204.2,500.4 203.9,500.7 	"/>
	<polygon fill="#7D6F58" points="335.9,577.8 336.3,577.3 335.9,576.9 335.3,577.4 	"/>
	<polygon fill="#7D6F58" points="336.3,577.3 336.7,576.4 335.9,576.9 335.9,576.9 336.3,577.3 	"/>
	<polygon fill="#7D6F58" points="336.8,576.2 336.7,576.4 337,576.2 	"/>
	<path fill="#7D6F58" d="M222.1,537.3l-0.2-0.1l0.2,0.3C222.1,537.5,222.2,537.3,222.1,537.3z"/>
	<polygon fill="#7D6F58" points="221.9,537.2 221.8,537.2 221.9,537.3 	"/>
	<polygon fill="#908D8A" points="209.8,393 210.1,393.4 210.5,392.9 210.1,392.4 	"/>
	<path fill="#908D8A" d="M210.1,393.4H210C210,393.4,210.1,393.4,210.1,393.4z"/>
	<polygon fill="#908D8A" points="209.7,392.9 209.3,393.4 210,393.4 210.1,393.4 209.8,393 	"/>
	<path fill="#D6C198" d="M130,485.7l-0.2-0.1l-0.3,0.2l0.5,0.1C130,485.8,130.1,485.8,130,485.7z"/>
	<polygon fill="#908D8A" points="334.5,556.5 334.2,555.7 334,555.7 334.1,555.7 333.8,556 333.8,556 	"/>
	<polygon fill="#908D8A" points="334,555.7 333.4,555.2 333.2,555.3 333.2,555.3 333.2,555.3 333.8,556.1 333.8,556 334.1,555.7 	
		"/>
	<polygon fill="#D6C198" points="128.1,485.2 128.8,485.4 128.8,484.8 128.8,484.8 128.8,484.8 	"/>
	<polygon fill="#908D8A" points="333.4,555.2 333.4,555.1 333,554.7 332.8,554.9 333.2,555.3 333.2,555.3 	"/>
	<polygon fill="#908D8A" points="335.3,553.2 335.4,553.1 334.8,552.9 	"/>
	
		<line fill="none" stroke="#844C3C" stroke-width="0" stroke-linecap="round" stroke-linejoin="round" x1="152.8" y1="514.6" x2="152.9" y2="514.4"/>
	<polygon fill="#908D8A" points="193.6,514.4 193.4,514.4 193.3,514.5 	"/>
	<polygon fill="#908D8A" points="193.3,514.6 193.3,514.5 193.3,514.6 	"/>
	
		<line fill="none" stroke="#844C3C" stroke-width="0" stroke-linecap="round" stroke-linejoin="round" x1="152.6" y1="514.8" x2="152.8" y2="514.6"/>
	<polygon fill="#908D8A" points="192.9,515.4 193.2,514.6 192.5,515.2 192.6,515.3 192.9,515.6 	"/>
	
		<line fill="none" stroke="#7D6F58" stroke-width="0" stroke-linecap="round" stroke-linejoin="round" x1="318" y1="361" x2="317.4" y2="361.1"/>
	
		<line fill="none" stroke="#7D6F58" stroke-width="0" stroke-linecap="round" stroke-linejoin="round" x1="318.1" y1="360.9" x2="318" y2="361"/>
	<polygon fill="#D6C198" points="48.2,613.2 49.1,613.4 48.6,612.9 48.3,613.2 	"/>
	<polygon fill="#D6C198" points="48,613 48.1,613.2 48.2,613.2 48.3,613.2 48.6,612.9 48.7,612.8 48,612.2 48,612.3 48,613 	"/>
	<path fill="#908D8A" d="M196.1,516.2c0,0.1,0.1,0.2,0.2,0.3l0.2-0.2l-0.2-0.3C196.2,516,196.1,516,196.1,516.2z"/>
	<polygon fill="#F6F0EB" points="204.6,501.6 204.4,501.6 204.3,501.6 204.3,501.7 	"/>
	<polygon fill="#F6F0EB" points="205,501.5 204.6,501.6 205,501.7 	"/>
	<path fill="#F6F0EB" d="M336.7,640.1C336.7,640.1,336.7,640.1,336.7,640.1L336.7,640.1L336.7,640.1
		C336.6,640.1,336.6,640.1,336.7,640.1c-1.7-0.1-3.2,0.2-4,1.9c0,0,0,0,0,0L336.7,640.1z"/>
	<polygon fill="#F6F0EB" points="342.8,637.4 342.7,636.4 342.7,636.4 341.1,637.5 340,638.1 	"/>
	
		<line fill="none" stroke="#F6F0EB" stroke-width="0" stroke-linecap="round" stroke-linejoin="round" x1="340" y1="638.1" x2="338" y2="639.5"/>
	
		<line fill="none" stroke="#F6F0EB" stroke-width="0" stroke-linecap="round" stroke-linejoin="round" x1="338" y1="639.5" x2="337.9" y2="639.5"/>
	
		<line fill="none" stroke="#F6F0EB" stroke-width="0" stroke-linecap="round" stroke-linejoin="round" x1="337.6" y1="639.7" x2="337.9" y2="639.5"/>
	
		<line fill="none" stroke="#F6F0EB" stroke-width="0" stroke-linecap="round" stroke-linejoin="round" x1="336.6" y1="640.1" x2="337.6" y2="639.7"/>
	
		<line fill="none" stroke="#F6F0EB" stroke-width="0" stroke-linecap="round" stroke-linejoin="round" x1="336.6" y1="640.1" x2="336.6" y2="640.1"/>
	<path fill="#FEFEFE" d="M429.8,568.7c-0.1,0.1,0.1,0.2,0.1,0.3l0.2-0.2l-0.1-0.3C430,568.5,429.9,568.6,429.8,568.7z"/>
	<path fill="#E97F63" d="M189.4,234.2c5,13.5,12,26.1,19.1,38.6c3.8,2.7,8.2,3.9,12.7,5.1c0.3,0.1,0.7,0.1,1,0.1l-1.1-0.2l1.1,0.2
		c0.3,0,0.6,0,0.8,0.2l0.1,0l-0.1,0c0.1,0,0.1,0.1,0.2,0.2c0.4,0.1,0.7,0.1,1.1,0.2c-0.4-0.1-0.8-0.3-1.2-0.4
		c16.8,2,33.5,1.7,50-2.2c2-0.5,4-1.2,5.8-2.1c-11.2,1.7-22.4,3.3-35.7,2.9c14.6-2.2,27.6-3.5,41.6-8.8c0,0,0,0,0,0
		c0-0.1-0.1-0.2-0.1-0.2l-20.8,3.5c7.9-2.8,16-4.8,25-9.2c0,0,0,0,0-0.1c0-0.1-0.1-0.2-0.1-0.2l-8,1.3l-1,0.5l-0.2-0.3l1.2-0.2
		c10.3-6.2,13.5-16.8,16.5-27.4c0.3-0.9,1.6-2.5-0.5-3.2l-8.4,1.4c-0.7,0.5-1.5,0.6-2.2,0.7l-2.1,0.7l-2,0.3c-0.7,0.3-1.4-0.1-2,0.5
		h-0.7c-0.5,0.2-1,0.4-1.5,0.4c-18.3,3.9-37,0.5-55.4,2.5c-8.1,0.9-6.8,5.6-6.1,10.8c0.3,2.2,0.5,4.4,0.6,6.6
		c0.3,1.4,0.5,2.8,0.6,4.2v1.3c-0.5-0.4-1.3-0.7-1.6-1.3c-3.3-7-7.4-13.9-9.8-21.2c-3.1-9.6-10.7-11.6-18.8-13.5h0
		C185.7,229,188.4,231.5,189.4,234.2z M282.2,235.3l-2,0.5L282.2,235.3z M279.7,235.8l-1.5,0.4L279.7,235.8z M229.3,264.7
		c1-6.5,2.1-13,3.4-19.5c0.3-1.3,1.1-2.4,1.6-3.6c0.6,1.3,1.1,2.7,1.5,4.1c0.1,1,0.1,2,0,2.9c0.1,5.9-1.3,11.6-4.2,16.7
		c-0.5,0.7-1,1.3-1.7,1.9C229.7,266.4,229.1,265.5,229.3,264.7z"/>
	<path fill="#844C3C" d="M297.4,235.6c-3,10.6-6.2,21.2-16.5,27.4l8-1.3l1.1-0.2c-0.3,0.2-0.6,0.3-0.9,0.5c-8.9,4.5-17.1,6.5-25,9.2
		l20.8-3.5l1.3-0.2c-0.4,0.2-0.8,0.3-1.3,0.5c-14,5.3-27,6.6-41.6,8.8c13.3,0.4,24.4-1.1,35.7-2.9c-1.9,0.9-3.8,1.6-5.8,2.1
		c-16.5,3.9-33.2,4.2-50,2.2c0.4,0.1,0.8,0.3,1.2,0.4c6.7,2.3,13.6,3,20.5,3.3c16.7,0.9,33.5,0.1,49.3-6.1
		c12.5-4.9,34.7-39.8,34.5-53.2c0-1.7-0.8-1.1-1.6-0.6c-9.3,5.5-19.7,8.2-30.1,10.4c0,0,0,0,0.1,0
		C299,233.1,297.7,234.7,297.4,235.6z M324.1,228.8c-3.7,14.5-11.4,26.8-22.7,39.6c7.6-14.8,14-27.5,20.6-40.2
		c0.3-0.7,1.2-1.1,1.9-1.7C324,227.3,324.3,228.1,324.1,228.8z M286,267.4c0-0.1,0.1-0.2,0.1-0.2h0.3c0,0.1-0.1,0.2-0.1,0.2H286z"/>
	<path fill="#E97F63" d="M315.7,221c-12.4,4.7-25.7,6-38.8,7c-16.6,1.3-33.2,2.1-49.7-1c0,0-0.1,0-0.1,0c0,0,0.1,0,0.1,0.1
		c-3.8,2.1-8,2.8-12.2,3.3c-5.8,0.8-7.5-2.1-6.8-7.3c-6.1-1.8-11.8-4.2-15.9-9.3c0,0,0,0,0,0c0,0,0,0-0.1-0.1h-0.1
		c-0.4,0.1-0.5-0.2-0.5-0.6l-4-5.5l-0.4-0.6c0,0-0.1,0-0.1,0c-4.1,1.7-5.5,4.7-3.4,8.5c1.5,2.7,4.1,4.7,6.2,7
		c4.9,2.3,11.8,3.1,14.7,6.8s6.2,5.1,10.6,4.5c9.3-1.3,18.5-2.9,28-2.1c14.8,1.1,29.7,0.6,44.4-1.5c13.7-1.9,27.7-3.9,39.4-12.2
		c4.7-3.3,5.5-7.6,0-11.4c-0.1-0.1-0.1-0.1-0.2-0.2C329.7,216.4,322,218.6,315.7,221z"/>
	<path fill="#F6F0EB" d="M216.5,249.5c-0.7-5.2-2-9.9,6.1-10.8c18.5-2.1,37.1,1.4,55.4-2.5c0.5,0,1-0.2,1.5-0.4h0.7
		c0.6-0.6,1.3-0.2,2-0.5l2-0.3l-1.4-0.7l1.2-0.1c-0.3-0.2-0.8-0.1-1.3,0.1l-3.9,0.2c-0.1,0.1-0.3,0.1-0.4,0.1l0.5-0.1l-0.5,0.1
		c-0.3,0.1-0.6,0.1-0.8,0.1l-0.8,0.1l0.8-0.1c-0.3,0-0.6,0-0.9,0c-19.7,2.1-39.5-2.1-59.2,1.5c-4.5,0.9-6.4,2.7-5.2,7
		c1.6,5.7,3.5,11.4,5.2,17c-0.1-1.4-0.2-2.8-0.4-4.2C217,253.9,216.8,251.7,216.5,249.5z"/>
	<polygon fill="#D6C198" points="284.2,235 286.2,234.4 288.3,233.7 284,234.2 282.8,234.4 	"/>
	
		<line fill="none" stroke="#D6C198" stroke-width="0" stroke-linecap="round" stroke-linejoin="round" x1="278.3" y1="234.6" x2="277.5" y2="234.7"/>
	
		<line fill="none" stroke="#D6C198" stroke-width="0" stroke-linecap="round" stroke-linejoin="round" x1="278.3" y1="234.6" x2="278.9" y2="234.6"/>
	
		<line fill="none" stroke="#D6C198" stroke-width="0" stroke-linecap="round" stroke-linejoin="round" x1="276.7" y1="234.8" x2="277.5" y2="234.7"/>
	
		<line fill="none" stroke="#844C3C" stroke-width="0" stroke-linecap="round" stroke-linejoin="round" x1="223.2" y1="278.3" x2="223" y2="278.2"/>
	
		<line fill="none" stroke="#844C3C" stroke-width="0" stroke-linecap="round" stroke-linejoin="round" x1="222.2" y1="278" x2="223" y2="278.2"/>
	
		<line fill="none" stroke="#844C3C" stroke-width="0" stroke-linecap="round" stroke-linejoin="round" x1="221.1" y1="277.8" x2="222.2" y2="278"/>
	
		<line fill="none" stroke="#221F1A" stroke-width="0" stroke-linecap="round" stroke-linejoin="round" x1="303.4" y1="273.7" x2="302.8" y2="274.2"/>
	
		<line fill="none" stroke="#221F1A" stroke-width="0" stroke-linecap="round" stroke-linejoin="round" x1="303.6" y1="273.6" x2="303.4" y2="273.7"/>
	
		<line fill="none" stroke="#E97F63" stroke-width="0" stroke-linecap="round" stroke-linejoin="round" x1="326.1" y1="205.9" x2="325.9" y2="205.6"/>
	
		<line fill="none" stroke="#E97F63" stroke-width="0" stroke-linecap="round" stroke-linejoin="round" x1="325.5" y1="205.1" x2="325.9" y2="205.6"/>
	
		<line fill="none" stroke="#E97F63" stroke-width="0" stroke-linecap="round" stroke-linejoin="round" x1="325.5" y1="205.1" x2="325.4" y2="205"/>
	
		<line fill="none" stroke="#E97F63" stroke-width="0" stroke-linecap="round" stroke-linejoin="round" x1="326.8" y1="206.6" x2="326.1" y2="205.9"/>
	<path fill="#221F1A" d="M211.8,469.1c-1.5,9.5,3.4,13.6,12.2,14.9c8.8,1.3,16.5,0.8,19.9-9.3c0.5-1.5,0.7-3.1,5-2.3
		c-14.8-7.6-28.2-9.3-42.6-6.9C208.1,467.6,212.6,464.1,211.8,469.1z M226,476.9c2.8,2.5,6.4,0.2,9.2,1.9c0.4,0.2,0.6,0.7,0.9,1.1
		l-6.5,2.1l-7.4-2.1C223.5,478.8,225.8,476.7,226,476.9z M215.3,467.6c0.1-0.3,0.7-0.5,1.1-0.8c0.2,0.4,0.4,0.8,0.5,1.3
		c0.1,3.3,0.1,6.7,0.2,10c0,0,0,0,0.1,0.1l0,0.1l0.2,0.1h-0.1l-0.1-0.1l-0.1-0.1c0,0,0,0,0-0.1C213.4,475.1,214.5,471.3,215.3,467.6
		z"/>
	<path fill="#221F1A" d="M273.4,468.5c0.1,7.9,5,11.8,12.9,12.6c7.4-0.9,12.3-4.9,12.3-12.8s-5-12.7-12.9-12.5
		C277.9,455.9,273.4,460.6,273.4,468.5z M283.6,477.9c-3.7-0.4-5.5-2.9-6.5-6.1c-0.1-0.5,0.3-1.1,0.6-1.8c3.4,1.5,6.2,3.1,7.4,6.4
		C285.2,476.7,284,478,283.6,477.9z M289.6,464c-0.9,3.8-3.3,5.9-7.2,5.8c-3.9-0.1-5.2-1.7-4.8-5c0.3-3.3,3.2-5.7,6.8-5.8
		S289.3,460.7,289.6,464z"/>
	<path fill="#221F1A" d="M179.9,443.8c-7.1-0.1-11.5,4.1-11.7,11.3c-0.2,7.2,4.2,11,11.2,11.9c7.2-0.7,11.8-4.4,11.8-11.5
		S187,443.9,179.9,443.8z M177.2,463.4c-2.8-0.2-4.3-2.1-5.6-4.8c0.5-0.3,1-0.8,1.3-0.7c2.5,0.8,4.8,2,6,4.5
		C179,462.5,177.8,463.5,177.2,463.4z M176.6,457.1c-3.4,0.1-4.7-1.5-4.6-4.4c0.1-2.9,2.5-5.1,5.6-5.6c2.9,0.2,4.9,1.7,4.8,4.5
		C182.3,454.4,180,456.9,176.6,457.1z"/>
	<path fill="#7D6F58" d="M279.8,486.4c-0.9,0.3-1.5,1.2-2.1,1.8c0.7,0.6,1.3,1.6,2.1,1.7c4,0.7,8,1.3,9.2,1.5c4.7,0,7.3,0,8.2-0.1
		c0.9-0.1,1.8-0.7,2.7-1c-0.3-0.5-0.5-1.3-1-1.5C292.8,485.7,286.5,484.2,279.8,486.4z"/>
	<path fill="#F6F0EB" d="M271.5,429h-53.2C234,432.2,252.8,431,271.5,429z"/>
	<path fill="#7D6F58" d="M171.1,470c-2.2,0.5-6.8,0.5-6,1.8c2.4,4,7.6,3.3,11.9,4.1c1.3,0.3,3.9-0.3,3.3-1.7
		C178.9,470,174.7,470.4,171.1,470z"/>
	<path fill="#F6F0EB" d="M166.2,428.1l-7.7,29.1C163.1,448.1,166.8,438.7,166.2,428.1z"/>
	<path fill="#F6F0EB" d="M288.2,427.6l-43.4,5.9C259,434.1,272.4,431.8,288.2,427.6z"/>
	<path fill="#F6F0EB" d="M151,484.8c3.7-7.6,7-15.3,6.2-24L151,484.8z"/>
	<path fill="#F6F0EB" d="M170.8,417.6l-1.7-0.4l-1.5,7.8l1.1,0.1C169.4,422.5,170.1,420.1,170.8,417.6z"/>
	<polygon fill="#908D8A" points="332.7,497.4 333.6,497.2 331.8,489.1 331.8,488.9 331.5,488.8 330.9,488.6 330.8,488.6 	"/>
	<polygon fill="#908D8A" points="334.8,478.8 335.6,478.6 334.2,473.5 334.1,473.5 333.4,473.5 333.3,473.5 	"/>
	<polygon fill="#908D8A" points="328.2,503.3 328.9,503.2 328.9,502.9 328.9,503.2 328.9,503.2 328.1,499.4 327.4,499.3 
		327.4,499.4 327.4,499.4 	"/>
	<polygon fill="#908D8A" points="323.6,505 324.1,508 324.9,507.8 324.2,504.7 324.1,504.7 323.6,504.7 323.5,504.7 	"/>
	<polygon fill="#908D8A" points="322.7,434.2 322,431.4 321.3,431.6 321.9,434.2 322,434.2 	"/>
	<polygon fill="#908D8A" points="321.4,446.2 321.3,446.2 320.6,442.9 320,443.1 320.8,446.2 320.8,446.2 	"/>
	<path fill="#908D8A" d="M320,440.7l-0.2-0.5l-0.2,0.5c-0.1,0.1,0.1,0.2,0.1,0.3L320,440.7z"/>
	<polygon fill="#908D8A" points="320.8,427.7 320.6,427.1 320.4,427.2 320.8,427.7 	"/>
	
		<line fill="none" stroke="#7D6F58" stroke-width="0" stroke-linecap="round" stroke-linejoin="round" x1="263.4" y1="506.1" x2="263.5" y2="506.1"/>
	
		<line fill="none" stroke="#7D6F58" stroke-width="0" stroke-linecap="round" stroke-linejoin="round" x1="263.4" y1="506.1" x2="262.9" y2="505.7"/>
	<path fill="#908D8A" d="M198.7,298.5c-4.8,13.2-8,26.9-9.7,40.9C193.9,326.2,197.7,312.7,198.7,298.5z"/>
	<path fill="#F6F0EB" d="M294.9,334l3.9,0.7l-0.1,0.1c0,0,0.1,0,0.1-0.1c2.7-0.9,4.6-2.8,6.2-5.2c0,0,0,0,0,0l-2.5-0.6
		c0.4-0.8,0.9-1.6,1.5-2.3c0.9-1.2,2.3-2.2,0.7-3.8c0,0,0,0,0,0.1h-0.6l0.2-0.2c-0.1,0-0.2,0.1-0.2,0.2c0,0,0,0.1,0,0.1
		C302.4,327.6,297.5,329.9,294.9,334z"/>
	<path fill="#2E1F17" d="M236.7,291.4l-9.3-1C229.7,292.4,232.3,292.9,236.7,291.4z"/>
	<path fill="#908D8A" d="M200.2,294.8c1.6-1.6,2.1-4.1,1.1-6.2C199.7,290.6,198.9,292.4,200.2,294.8z"/>
	<polygon fill="#F6F0EB" points="302.8,335.3 305.4,335.9 305.4,335.8 305.4,332.6 305.3,332.8 	"/>
	<path fill="#F6F0EB" d="M305.6,332.5l-0.1,0.2c1.3-0.5,3.5-0.1,1.9-2.7l-0.1,0.1L305.6,332.5z"/>
	<polygon fill="#F6F0EB" points="309.8,324.6 309.3,324.4 308.3,326.2 308.8,326.1 	"/>
	<polygon fill="#F6F0EB" points="308.8,326.1 308.3,326.2 308.5,326.3 	"/>
	<polygon fill="#D6C198" points="304.8,322 304.8,322.1 305.1,321.6 	"/>
	<polygon fill="#D6C198" points="305.5,320.8 305.6,320.7 305.6,320.7 305.5,320.7 305.1,321.6 305.5,320.8 	"/>
	<path fill="#D6C198" d="M304.8,322.8C304.8,322.7,304.8,322.7,304.8,322.8c0-0.3,0.1-0.5,0.1-0.7l-0.2,0.2l-0.2,0.2l0,0l-0.2,0.2
		H304.8z"/>
	
		<line fill="none" stroke="#D6C198" stroke-width="0" stroke-linecap="round" stroke-linejoin="round" x1="308.8" y1="326.1" x2="308.3" y2="326.2"/>
	<polygon fill="#F6F0EB" points="306.4,319.9 306.3,319.8 306.1,320 306.2,320.1 	"/>
	<polygon fill="#F6F0EB" points="305.5,320.8 305.6,320.8 306.2,320.2 306.1,320.2 305.6,320.7 305.5,320.8 	"/>
	<path fill="#908D8A" d="M115.5,639c0.4,6.9,7.4,4.2,10.6,7.1c1.9,1.7,3.4,4.1,6.8,1.3c3.4-2.8,8-4.8,8.1-10.3
		C133.1,645.5,124.3,642.7,115.5,639z"/>
	<path fill="#221F1A" d="M126.7,639.3c-4.2-3-9.9-1.7-13.9-5.5l2.6,5.2c0,0,0,0,0.1,0c8.8,3.6,17.5,6.5,25.5-1.8l0.5-1.5
		c-0.8,0.1-1.6,0.3-2.4,0.6C135,637.9,131,642.3,126.7,639.3z"/>
	<path fill="#221F1A" d="M180.8,601.1c2.5-7.6,13.1-10,12.5-19.5c-4.7,3.3-9,9.2-11.9,12.4c-2.9,3.2-4.1,7.4-10.5,6.8l3.7,2.3
		c0,0,0.1,0,0.1,0C176.9,602.5,180.4,602.4,180.8,601.1z"/>
	<path fill="#221F1A" d="M180.9,622.2c-0.5,1-0.6,2.5-1.3,3.2c-0.1,0.2-0.3,0.3-0.5,0.3c-0.2,0.1-0.5,0.1-0.8,0
		c-5.2-1.5-9.4,1.3-14,2.3c-2.9,0.7-0.3,1.3-0.1,2c0.2-0.1,0.5-0.2,0.7-0.3c0.3-0.1,0.7-0.2,1.1-0.3c7-1.6,17.2,3.3,18.9-9.4
		c0.1-0.7,1.1-1.2,1.7-1.8c0,0,0.1-0.1,0.1-0.1C183,617.1,181.7,620.8,180.9,622.2z"/>
	<path fill="#221F1A" d="M116.9,621.5c-0.7-2.3-3-1.8-4.5-2.5c-5.5-2.3-14,4.1-17.5-5.7l1.3,6C102.4,625.8,110.1,619.3,116.9,621.5z
		"/>
	<path fill="#908D8A" d="M96.1,619.3c0.1,3.3,1.2,7,4.5,7c5.7,0.1,11.2-2.1,16.2-4.8C110.1,619.3,102.4,625.8,96.1,619.3z"/>
	<path fill="#221F1A" d="M155,618.7C155,618.7,155,618.7,155,618.7l-0.5-2.4c-0.5,0.5-1,1.1-1.4,1.7c-2.1,4.1-5.3,5.8-10,4.9
		c-1.4-0.3-2.9,0.3-5.4,0.5l4.2,2.3C148.7,627.6,152.8,624.8,155,618.7z"/>
	<path fill="#908D8A" d="M155,618.7c-2.3,6.1-6.3,8.9-12.9,7c2.3,3.5,4.8,5.2,9.3,3.3C155.9,626.9,155.8,622.8,155,618.7L155,618.7z
		"/>
	<path fill="#2E1F17" d="M358.9,491.5c-4.2-24.2-10.5-47.9-17.9-71.4C345.1,444.3,351.1,468.2,358.9,491.5z"/>
	<path fill="#2E1F17" d="M360.9,497c-0.1-0.1-0.7,0.2-0.7,0.3c0.4,2.2,0.9,4.3,1.3,6.4C362.8,501.2,362.7,498.9,360.9,497z"/>
	<polygon fill="#908D8A" points="328.9,503.2 328.9,507.3 329.4,507.1 328.9,503.2 328.9,502.9 	"/>
	<path fill="#908D8A" d="M324.8,510.8c0,0.1,0.2,0.3,0.3,0.5l0.3-0.7l-0.3-0.7C325,510.2,324.9,510.5,324.8,510.8z"/>
	<path fill="#908D8A" d="M335.4,481c0,0.2,0.2,0.3,0.3,0.5l0.3-0.5l-0.3-0.6C335.6,480.7,335.4,480.8,335.4,481z"/>
	<path fill="#908D8A" d="M336.1,483.8c-0.1,0.1,0.1,0.6,0.2,0.5s0.2-0.3,0.3-0.5c0.1-0.2-0.1-0.3-0.2-0.5
		C336.3,483.4,336.2,483.6,336.1,483.8z"/>
	<path fill="#FAFAF9" d="M267.2,650.9l2.7-2.7l-0.6-0.6c0,0,0,0,0-0.1c0,0,0,0-0.1,0l-2.7,2.7l0,0L267.2,650.9z"/>
	<path fill="#D6C198" d="M272.3,645.9C272.3,645.9,272.3,645.9,272.3,645.9l2.2-2.3l-0.3-0.3l0.1,0l-0.1-0.1l-1.9,1.8V645.9z"/>
	<path fill="#F6F0EB" d="M270.5,647.5c0,0,0.1,0,0.1,0l1.7-1.5v0V645l-2.9,2.3c0,0,0.1,0,0.1,0.1L270.5,647.5z"/>
	<path fill="#D6C198" d="M276.6,641.7l0.2-0.2h-0.2C276.6,641.6,276.6,641.6,276.6,641.7z"/>
	<polygon fill="#D6C198" points="276.9,641.5 276.9,641.5 276.9,641.5 	"/>
	<polygon fill="#D6C198" points="276.9,641.5 277.1,641.2 276.9,641.5 	"/>
	<path fill="#FAFAF9" d="M269.9,648.3L269.9,648.3l0.8-0.8l-0.2,0l-1-0.1l0,0c-0.1,0-0.2,0.2-0.2,0.3c0,0,0,0,0,0.1L269.9,648.3z"/>
	<polygon fill="#D6C198" points="274.4,643.6 274.5,643.6 274.8,643.2 274.2,643.3 274.1,643.3 	"/>
	<path fill="#844C3C" d="M269.5,198c-3.9-4.3-26-3.5-29.7,1.3h0l0,0c9.3,5.8,19.1,4.2,29,2.1C269.4,200.3,271,199.7,269.5,198z"/>
	<path fill="#2E1F17" d="M271.4,194.5c-10.3-3.2-21.3-3.2-31.7,0c-1.1,0.3-2.2,0.7-2.5,2.3s1.1,2.2,2.5,2.5h0
		c3.8-4.7,25.8-5.6,29.7-1.3c1.5,1.7-0.1,2.3-0.7,3.3c2.3-0.4,4.9-1.7,5.4-3.7C274.7,195.7,272.8,194.9,271.4,194.5z"/>
	
		<line fill="none" stroke="#F6F0EB" stroke-width="0" stroke-linecap="round" stroke-linejoin="round" x1="214.5" y1="208.5" x2="216.4" y2="208.9"/>
	
		<line fill="none" stroke="#F6F0EB" stroke-width="0" stroke-linecap="round" stroke-linejoin="round" x1="217.8" y1="209.1" x2="216.4" y2="208.9"/>
	<polygon fill="#F6F0EB" points="301.5,591.7 306.9,587.7 306.5,587.3 301.5,590.3 301.5,590.4 	"/>
	<path fill="#F6F0EB" d="M308.3,585.9L308.3,585.9l-0.1,1C308.4,586.6,308.4,586.3,308.3,585.9z"/>
	<polygon fill="#F6F0EB" points="306.9,587.7 306.9,587.7 308.2,586.9 308.3,585.9 306.5,587.3 	"/>
	
		<line fill="none" stroke="#D6C198" stroke-width="0" stroke-linecap="round" stroke-linejoin="round" x1="308.3" y1="585.9" x2="308.2" y2="586.9"/>
	
		<line fill="none" stroke="#D6C198" stroke-width="0" stroke-linecap="round" stroke-linejoin="round" x1="308.3" y1="585.9" x2="308.3" y2="585.9"/>
	<polygon fill="#221F1A" points="250.6,613.6 250.9,613.2 250.3,613.2 250.1,613.2 250.4,613.6 250.5,613.6 250.5,613.7 	"/>
	<path fill="#F6F0EB" d="M232.3,573.7c0.4-2.5,1.5-4.4,4.2-4.7s3.5-2,3.4-4.4c0,0,0.1,0,0.1,0.1c0,0,0,0,0-0.1
		c-3.3-4.6-3.1,1.8-5.4,1.9c-4.1,0.3-4.4,4.3-3.7,7.9c0.1-0.1,0.3-0.2,0.5-0.2L232.3,573.7C232.3,573.7,232.3,573.7,232.3,573.7z"/>
	<path fill="#F6F0EB" d="M231.4,574.1c0.4-0.1,0.8-0.2,1.1-0.5h-0.1c0,0,0,0,0,0c0,0-0.1,0-0.1,0L231.4,574.1z"/>
	<path fill="#221F1A" d="M240,564.6C240,564.6,240,564.6,240,564.6c0,2.3-0.8,4-3.5,4.3s-3.9,2.2-4.2,4.7c0,0,0,0,0,0l0.1-0.1
		l-0.1,0.1c0,0,0.1,0,0.1,0c1.7-0.7,3.3-1.3,5.1-1.8c1.8-0.3,3.6-1.1,3.9-2.8C241.7,567.4,242,565.6,240,564.6z"/>
	
		<line fill="none" stroke="#221F1A" stroke-width="0" stroke-linecap="round" stroke-linejoin="round" x1="230.9" y1="574.4" x2="231.4" y2="574.1"/>
	
		<line fill="none" stroke="#221F1A" stroke-width="0" stroke-linecap="round" stroke-linejoin="round" x1="232.5" y1="573.6" x2="232.3" y2="573.7"/>
	
		<line fill="none" stroke="#221F1A" stroke-width="0" stroke-linecap="round" stroke-linejoin="round" x1="232.3" y1="573.7" x2="231.4" y2="574.1"/>
	<polygon fill="#D6C198" points="286.8,595.7 286.8,595.6 285.4,595.9 285.6,596.2 	"/>
	<polygon fill="#908D8A" points="286.8,595.7 288,595.4 287.8,595.1 286.8,595.6 286.8,595.7 	"/>
	<path fill="#E97F63" d="M98.2,596.8c8.2-0.8,16.5,0.5,24.5-1.7c2.9-0.8,6.4-1,7.3-4.2c0.9-3.2-2.9-3.4-4.3-5.2c0,0,0,0,0,0
		l-1.5-0.4c0-0.1-0.1-0.2-0.2-0.3c0,0,0,0,0,0l0.1,0.2c-0.6-0.1-1.5-0.1-0.5-0.9l0.1,0.1c0,0,0,0,0,0l0.7-0.4c0,0,0,0,0,0
		c0,0,0,0,0,0c0.2,0.1,0.4,0.1,0.6-0.1l2.5-0.4c0.4,0.2,0.6-0.1,0.9-0.3c5.2-1.2,10.1-3.2,13.8-7.3c0,0,0,0-0.1,0
		c-4.2-2.6-9.3-4.3-12.6-7.7c-7.3-7.6-16.1-11.2-26.1-13.1c-5-1-9.7-4.2-12.7-7.8s-3.1-11.3-8.3-10.4c-4.1,0.7-7.1,6.7-10.6,10.4
		c0,0,0,0.1-0.1,0.1l0.1,5c0,0.1,0,0.1,0.1,0.2c0,0,0.1,0,0.1,0.1c2,0.8,2.6,2.4,2.4,4.4c0,0.1,0,0.1,0.1,0.2l4.8,17.8v0l1.9,0.9
		l0.8,0.4l11.1,3.7l2.5,0.8l-2.6-0.3l-10-1.2c0,0,0,0,0,0L98.2,596.8z M127.4,583.3l0.9-0.3L127.4,583.3z"/>
	<path fill="#E97F63" d="M67.1,555.9c-3.2-2.3-2.5,4.8-5.8,5.2c1.5,6.1,6,9,11.5,10.9c0,0,0,0,0-0.1C72.8,565.8,72,559.4,67.1,555.9
		z"/>
	<path fill="#D6C198" d="M71.6,547.3l0-0.2c-2.9,1.9-1.5,3.6,0.1,5.3l0-0.1L71.6,547.3z"/>
	<path fill="#D6C198" d="M71.9,552.5c-0.1,0-0.1,0-0.1-0.1l2.5,4.6c0-0.1,0-0.1,0-0.2C74.5,554.9,73.9,553.3,71.9,552.5z"/>
	<path fill="#2E1F17" d="M214.9,230.4c4.2-0.5,8.4-1.3,12.2-3.3c0,0-0.1,0-0.1-0.1c-5.9-3.1-12.7-2.1-18.9-3.9
		C207.4,228.3,209.1,231.2,214.9,230.4z"/>
	<path fill="#D6C198" d="M255.5,658.8c-0.1,0.1-0.1,0.1-0.1,0.2l0.2-0.3L255.5,658.8z"/>
	<polygon fill="#D6C198" points="255.7,658.7 255.7,658.7 255.7,658.7 255.7,658.7 255.6,658.8 255.8,658.7 	"/>
	<polygon fill="#D6C198" points="255.7,658.7 256.4,658.1 256.3,658 255.7,658.7 255.7,658.7 	"/>
	<polygon fill="#D6C198" points="256.4,658 256.5,658.1 257,657.6 257,657.4 	"/>
	<polygon fill="#908D8A" points="257.8,656.7 257.7,656.7 257.4,657 	"/>
	<polygon fill="#908D8A" points="257,657.6 257.4,657 257,657.4 	"/>
	<polygon fill="#908D8A" points="258.3,656 258.2,656.1 257.7,656.7 258.5,656.3 258.5,656.2 258.5,656.3 	"/>
	<polygon fill="#908D8A" points="258.3,656 258.5,656.3 258.5,656.2 258.9,655.6 258.9,655.6 	"/>
	<path fill="#844C3C" d="M145.4,577.7C145.4,577.7,145.4,577.7,145.4,577.7C145.4,577.6,145.4,577.6,145.4,577.7
		c-5.9,4.2-12.7,6.8-19.9,7.8c0,0,0.1,0.1,0.1,0.1c1.4,1.9,5.2,2.1,4.3,5.2c-0.9,3.3-4.4,3.5-7.3,4.2c-8,2.3-16.3,0.9-24.5,1.7
		l3.5,6.1l-0.1,0c0,0,0,0,0,0c10.2,2.8,20.9,3.6,31.4,2.4c8-1,15.7-3.7,21-10.4C152.8,588.4,151.6,581.8,145.4,577.7z"/>
	<path fill="#844C3C" d="M195.2,555c-1.8-4.2-3.5-8.5-5.4-12.7c-0.6-1.3-1.5-3.4-3.7-1.7L168,554.7c0.7,6.2,5.2,10,9.6,13.6v0l0,0
		L195.2,555L195.2,555z"/>
	<path fill="#844C3C" d="M163.8,558.5c-5.4,4-9.8,9-13.7,14.3c6.7,4,4.1,12.3,8.2,17.5l15.1-17.3l0,0h0L163.8,558.5z"/>
	<path fill="#F6F0EB" d="M98.2,596.8l-15.3-17.6l-0.1-0.1l-8.4-2.9c0,0,0,0,0,0.1c0,0,0,0,0,0c2.8,6.4,8.9,10,12.7,15.5
		c0.6,0.9,1.1,1.9,1.7,2.9c0,0,0.1,0.1,0.1,0.1l3.9,6l8.7,2l0.1,0L98.2,596.8z"/>
	<path fill="#F6F0EB" d="M150.1,572.8c-2.1,1.1-3.9,2.6-4.7,4.8c0,0,0,0,0,0.1c6.2,4.1,7.4,10.7,8.7,17.2c2-0.8,3.6-2.5,4.2-4.6
		C154.2,585.1,156.8,576.8,150.1,572.8z"/>
	<path fill="#F6F0EB" d="M168,554.7l-4.2,3.7l9.6,14.6h0c1.8-1.2,4-2.1,4.2-4.7v0C173.2,564.7,168.7,561,168,554.7z"/>
	<path fill="#E97F63" d="M279.1,215.7C279.1,215.7,279.1,215.7,279.1,215.7C279.1,215.7,279.1,215.7,279.1,215.7l-6.1-0.6
		c-26.3,0.7-52.7,1.7-77.6-9.2l-0.1,0.2l-1.4,4.2l0,0.1c5.1,3.8,11.2,5.1,17.3,6.2c0,0,0,0,0.1,0C234,218.4,256.6,219,279.1,215.7z"
		/>
	
		<line fill="none" stroke="#844C3C" stroke-width="0" stroke-linecap="round" stroke-linejoin="round" x1="191.6" y1="213.1" x2="192.1" y2="213.7"/>
	<path fill="#908D8A" d="M279.1,215.7C279.1,215.7,279.1,215.7,279.1,215.7c5.4-0.9,10.8-1,15.7-3.9h0l-21.7,3.3l0,0L279.1,215.7z"
		/>
	<path fill="#844C3C" d="M123.5,584.2c-0.9,0.9-0.1,0.9,0.5,0.9l-0.1-0.2l-0.4-0.6L123.5,584.2z"/>
	
		<line fill="none" stroke="#844C3C" stroke-width="0" stroke-linecap="round" stroke-linejoin="round" x1="128.3" y1="583" x2="127.4" y2="583.3"/>
	<path fill="#2E1F17" d="M291,336.5c0,0-0.1,0-0.1,0l-3.5,2.6c3.7,1,6.6,1.2,8.9-1.7L291,336.5z"/>
	<polygon fill="#908D8A" points="294.9,334 290.9,336.4 291,336.5 296.3,337.4 298.7,334.8 298.8,334.7 	"/>
	<path fill="#E97F63" d="M87.2,591.9c-3.9-5.5-10-9.2-12.7-15.5c0,0,0,0,0,0c-4.9-2.1-9.7-4.4-13.8-8.1l0,0c-2.1,0-1.4,1.7-1.4,2.7
		c0.1,6,1.7,12,4.4,17.3c8.2,3.3,16.2,6.8,25.3,6.7c0-0.1-0.1-0.1-0.1-0.2C88.3,593.9,87.8,592.8,87.2,591.9z"/>
	<path fill="#221F1A" d="M69.2,627.5l-0.7-0.8c-0.2,0.1-0.5,0.3-0.5,0.4c0.1,0.3,0.3,0.6,0.5,0.9L69.2,627.5z"/>
	
		<line fill="none" stroke="#844C3C" stroke-width="0" stroke-linecap="round" stroke-linejoin="round" x1="81.8" y1="576.2" x2="81" y2="575.8"/>
	<path fill="#844C3C" d="M231.5,265.4c2.9-5.1,4.3-10.9,4.2-16.7c0.1-1,0.1-2,0-2.9c-0.4-1.4-0.9-2.8-1.5-4.1
		c-0.5,1.2-1.3,2.3-1.6,3.6c-1.2,6.5-2.4,12.9-3.4,19.5c-0.1,0.8,0.4,1.8,0.6,2.7C230.5,266.7,231,266.1,231.5,265.4z"/>
	<polygon fill="#844C3C" points="279.9,263.5 280.9,263 279.7,263.2 	"/>
	
		<line fill="none" stroke="#D6C198" stroke-width="0" stroke-linecap="round" stroke-linejoin="round" x1="282.2" y1="235.3" x2="280.3" y2="235.8"/>
	
		<line fill="none" stroke="#D6C198" stroke-width="0" stroke-linecap="round" stroke-linejoin="round" x1="278.2" y1="236.2" x2="279.7" y2="235.8"/>
	<path fill="#2E1F17" d="M322,228.2c-6.6,12.7-13,25.4-20.6,40.2c11.4-12.8,19.1-25,22.7-39.6c0.2-0.7-0.1-1.5-0.3-2.3
		C323.2,227.1,322.4,227.5,322,228.2z"/>
	<path fill="#E97F63" d="M286.4,267.2h-0.3c0,0-0.1,0.1-0.1,0.2h0.3C286.3,267.4,286.4,267.2,286.4,267.2z"/>
	<path fill="#908D8A" d="M236,479.8c-0.3-0.4-0.5-0.9-0.9-1.1c-2.8-1.7-6.4,0.7-9.2-1.9c-0.2-0.2-2.5,1.9-3.9,2.9l7.4,2.1L236,479.8
		z"/>
	<path fill="#908D8A" d="M217.2,478.1C217.2,478.1,217.1,478.1,217.2,478.1C217.1,478.1,217.1,478.1,217.2,478.1L217.2,478.1z"/>
	<path fill="#908D8A" d="M217.1,478.1c-0.1-3.3-0.1-6.7-0.2-10c-0.1-0.4-0.3-0.9-0.5-1.3c-0.4,0.3-1.1,0.5-1.1,0.8
		C214.5,471.3,213.4,475.1,217.1,478.1z"/>
	<polygon fill="#908D8A" points="217.2,478.2 217.2,478.1 217.1,478.1 	"/>
	<polygon fill="#908D8A" points="217.4,478.3 217.2,478.2 217.3,478.3 	"/>
	<path fill="#F6F0EB" d="M277.5,464.8c-0.3,3.3,0.9,4.9,4.8,5c3.9,0.1,6.3-2.1,7.2-5.8c-0.3-3.3-1.7-5-5.2-4.9
		S277.9,461.5,277.5,464.8z"/>
	<path fill="#F6F0EB" d="M277.7,470c-0.3,0.7-0.7,1.3-0.6,1.8c1,3.3,2.9,5.7,6.5,6.1c0.5,0.1,1.6-1.2,1.5-1.5
		C283.9,473.1,281.1,471.5,277.7,470z"/>
	<path fill="#F6F0EB" d="M177.6,447c-3.1,0.5-5.6,2.7-5.6,5.6c-0.1,2.9,1.3,4.5,4.6,4.4c3.4-0.1,5.6-2.7,5.8-5.5
		C182.5,448.7,180.5,447.2,177.6,447z"/>
	<path fill="#F6F0EB" d="M173,457.9c-0.3-0.1-0.8,0.4-1.3,0.7c1.3,2.7,2.8,4.6,5.6,4.8c0.6,0.1,1.8-0.9,1.8-1
		C177.8,459.9,175.5,458.7,173,457.9z"/>
</g>
</svg>
