<?xml version="1.0" encoding="utf-8"?>
<!-- Generator: Adobe Illustrator 21.0.0, SVG Export Plug-In . SVG Version: 6.00 Build 0)  -->
<svg version="1.1"
	 id="svg48" inkscape:version="0.92.2 5c3e80d, 2017-08-06" sodipodi:docname="25.svg" xmlns:cc="http://creativecommons.org/ns#" xmlns:dc="http://purl.org/dc/elements/1.1/" xmlns:inkscape="http://www.inkscape.org/namespaces/inkscape" xmlns:rdf="http://www.w3.org/1999/02/22-rdf-syntax-ns#" xmlns:sodipodi="http://sodipodi.sourceforge.net/DTD/sodipodi-0.dtd" xmlns:svg="http://www.w3.org/2000/svg"
	 xmlns="http://www.w3.org/2000/svg" xmlns:xlink="http://www.w3.org/1999/xlink" x="0px" y="0px" viewBox="0 0 850 850"
	 style="enable-background:new 0 0 850 850;" xml:space="preserve">
<style type="text/css">
	.st0{fill:none;}
	.st1{fill:#FFA500;}
	.st2{fill:#FF0000;}
	.st3{fill:#9370DB;}
	.st4{fill:#0000FF;}
	.st5{fill:#00CED1;}
	.st6{fill:#00FFFF;}
</style>
<sodipodi:namedview  bordercolor="#666666" borderopacity="1" gridtolerance="10" guidetolerance="10" id="namedview50" inkscape:current-layer="svg48" inkscape:cx="745.81331" inkscape:cy="627.14621" inkscape:pageopacity="0" inkscape:pageshadow="2" inkscape:window-height="978" inkscape:window-maximized="1" inkscape:window-width="1920" inkscape:window-x="0" inkscape:window-y="1" inkscape:zoom="0.41647059" objecttolerance="10" pagecolor="#ffffff" showgrid="false">
	</sodipodi:namedview>
<g id="g46" transform="translate(0.000000,0.000000) scale(1.00000,1.00000)">
	<path id="path4" class="st0" d="M0,0h425h425v425v425H576.9c-151.8,0-272.8-0.4-272.5-0.9c0.3-0.4,3.1-2.6,6.3-4.7
		c20.5-13.9,33.7-25.8,45.2-40.8c7.8-10.2,10.9-17.1,11.8-27.1c0.6-7.1-0.9-17.6-3.7-25.3c-1.1-2.8-1.7-5.2-1.4-5.2
		c0.3,0,2,1.2,3.7,2.6c3.9,3.3,24.1,13.1,28.7,13.9c8.4,1.4,23.1,1.7,29.6,0.6c8.1-1.4,17.9-5.2,24.9-9.6
		c6.1-3.9,21.4-16.5,27.4-22.8c5.1-5.3,6-4.6-9.4-6.8c-10.6-1.5-9.3-1.3-12.9-2.2c-5.1-1.4-13.8-8.2-23.6-18.3
		c-5.2-5.5-12.6-12.3-16.5-15.2c-6.9-5.2-26.6-15.6-31.5-16.6c-23.6-4.7-35.7-9.6-44.2-18c-5.4-5.4-12.8-17.4-12.8-20.8
		c0-0.7-0.6-2.4-1.3-3.8c-0.7-1.4-2.1-5.4-3.1-9c-1.1-3.6-2.7-9.2-3.8-12.4c-2.1-6.8-5.3-20-6.3-26.4l-0.7-4.2h16.4
		c8.9,0,21.3,0.7,27.3,1.5c46.1,6.4,84.7,5.7,113.8-1.9c7.6-2,15.1-4.3,16.8-5.2c1.7-0.8,4-1.7,5-1.9c1.1-0.2,5.6-2.6,10-5.2
		c18.5-11,29.2-28.5,32.4-53c0.9-6.6-2-25.5-5.1-34.4c-2.8-7.9-3-11.8-0.7-16.2c2.1-4.1,2.1-11.3,0-15.4c-1.8-3.4-6.2-6.3-9.6-6.3
		c-3,0-8.8-6.2-9.4-10.2c-1.1-7.7,2.6-21.9,10.1-37.8c3-6.4,4.6-8.9,5.1-8c1.2,2.4,6.8,22.7,9.1,33c1.2,5.2,2.8,15.6,3.6,23
		c1.4,13.4,4.7,27.3,11.5,48.5c10.4,32.6,10.2,49.4-0.6,70.7c-4.3,8.3-5.5,11.7-5.5,15.2c0,4.4,0.1,4.6,3,4.6c2.4,0,4.7-1.8,12.9-10
		c9.3-9.5,10-10,14-10c3.2,0,6.7,1.4,15.4,6.1c6.2,3.4,12.3,6.9,13.7,7.9c10.9,7.7,15.8,7.9,30,1.2c7.4-3.6,9.4-13.2,4.5-21.7
		c-3.5-5.9-6.2-7.8-22.1-15.9c-23.8-12-28.7-19-33.5-47.9c-1.6-9.5-3.4-20.8-3.9-25.2c-0.5-4.4-1.8-13.2-2.9-19.5
		c-4.1-23.9-8.4-64.7-6.9-65.6c0.5-0.3,5.7,0,11.6,0.7c10.6,1.2,12.7,1.1,29.2-1.7c7.4-1.2,19.6-8.2,27.7-15.8
		c17.5-16.5,21.9-38.7,11.9-59.6c-1.9-3.9-3.9-7.6-4.4-8.3c-0.6-0.7-2.4-3.7-4.1-6.7c-15.5-27.2-17-39.8-8.5-70.4
		c1.4-4.9,2.9-10.8,3.4-13c1.5-7.1,7.7-30,9-33.1c0.6-1.7,1.6-5.7,2.1-9c1.5-8.8,5.8-23.2,8.5-28.4c2.9-5.4,2.5-7.1-3.2-13.3
		c-2.4-2.6-4.4-5.1-4.4-5.6s1.3-2.6,3-4.7c7.3-9.2,5.3-20.9-4.5-27.1c-7.6-4.8-12.2-9.1-18.3-17.3c-7.4-9.8-15-17.4-23.7-23.9
		c-3.8-2.8-7.5-5.5-8-6c-1.7-1.4-15.7-8.6-17.1-8.8c-0.7-0.1-2.8-1-4.6-1.9c-6.1-3-27.2-7.5-39.9-8.5c-9-0.7-14.3-1.6-19.4-3.5
		c-3.8-1.4-7.9-2.7-9-3c-1.1-0.2-5.6-1.8-10-3.4C485,2.2,483.7,2,470.8,2c-12.3,0-15,0.3-25,3.1c-6.2,1.7-12.4,3.3-13.8,3.6
		c-5.2,0.9-26.4,9.8-32,13.4c-24,15.1-39.2,31.6-47.8,51.9c-5.8,13.6-7.8,36.2-4.7,52.3c2.9,15.1,11.1,30.1,23,42l6.7,6.7l-0.4,13.3
		c-0.4,11.8-0.8,14.1-3.7,21.9c-5,13.5-13.3,26.1-27,41.2C333.8,265,328,278.2,328,292.8c0,19.3,8.2,36.1,21.9,44.9
		c5.7,3.7,20.4,10.2,23.1,10.3c1.3,0,18.2,4,18.8,4.5c0.8,0.6-4.6,15-9.4,25.2c-16.9,35.6-20.4,42.9-26.4,54.8l-6.5,13l-7.7,2.2
		c-4.3,1.2-9.5,2.4-11.6,2.6c-6.8,0.7-27.4,5.9-41.2,10.4c-28.9,9.6-49.2,21.6-66.5,39.5c-12.1,12.5-17.7,21.2-24,37.8
		c-3.2,8.5-3.5,10-3.5,20.4c0,6.2,0.4,11.6,0.9,12.1c0.5,0.6,2.1,5,3.6,10c1.5,4.9,3.4,10.1,4.1,11.5c0.7,1.4,3.2,6.3,5.5,11
		c8.7,17.7,24.4,36.1,42.9,50.4c5.8,4.4,15,12.6,20.5,18.1c9.4,9.3,11.4,12.1,15.5,22c3.9,9.2,4.2,19.9,1,33
		c-5.6,23-3.2,44.5,8.9,78.9c5.6,16.1,6.6,22,5.6,35.2l-0.7,9.4H151.4H0V425V0z"/>
	<path id="path6" class="st1" d="M482.5,7c3.3,0.5,8,1.2,10.5,1.5c9,1.1,19.7,5.5,30,12.5c3,2,7.1,4.5,9,5.5c1.9,1,5.4,3.3,7.7,5.2
		c2.7,2.2,4.4,3,4.8,2.3c0.4-0.6,0.5-1.3,0.4-1.4c-5.4-4.5-15.7-13.2-16.4-13.9c-0.6-0.6,1.3-0.7,5.5-0.2c3.6,0.4,8.2,0.9,10.4,1.1
		c8,0.8,22.5,5.4,33.6,10.6c18.1,8.6,35.5,23.4,46.2,39.3l4.7,7l-3.7,3.7c-2,2.1-3.9,3.8-4.2,3.8s-1.8-2-3.4-4.5
		c-3.6-5.9-8.7-8.5-16.2-8.5c-10.6,0-16,5.8-15.8,17.1c0.1,6.6,0.1,6.6-3.1,7.8c-8.4,3-16.5,11.3-16.5,16.8c0,1.2,0.9,4.8,2.1,7.9
		c1.8,4.8,2.7,5.9,6.3,7.5c2.2,1,5.8,1.9,7.9,1.9h3.7v5.1c0,3.7,0.9,7,3.1,11.6c3.6,7.6,6.5,9.3,15.7,9.3c7.4,0,10.1-1.9,13.2-9.2
		c1.2-2.9,2.4-5.4,2.5-5.6c0.2-0.2,1.5,0.9,2.9,2.3c2.6,2.6,3.1,2.7,10.9,2.3l8.2-0.3l0.3,4.6c0.5,7.1-2.4,18.4-7,27.8
		c-5.7,11.7-18.7,24.9-29.8,30.3c-7.2,3.5-14,5.4-14,3.9c0-0.4,0.9-3.2,2-6.4c2.5-7.2,2.5-8.1-0.6-14.7c-2-4.3-7.1-10.1-24.3-27.5
		C543,137,541,134,541,120.8c0-7.5,0.4-9.3,3-14.4c4.9-9.7,5.7-14.4,3.6-20.9c-2.6-8.3-3.5-7.6-2.9,2.3c0.5,8.1,0.4,9.1-2.1,13.9
		c-2.8,5.6-6.2,8.7-15.5,14.4c-7.5,4.6-26.1,10.8-34.3,11.5c-3.5,0.3-6.6,0.8-6.9,1c-0.7,0.4-29.8,2.9-51.6,4.4
		c-16.4,1.1-19.4,1.6-26.3,4.3c-7.1,2.7-13.4,7.8-16.8,13.6c-2.3,4-2.7,5.7-2.7,12.6c0,4.4,0.3,9.5,0.7,11.2l0.7,3.3l-6-3.8
		c-14.4-8.8-26.1-23.9-31.5-40.7c-2.5-7.9-2.9-10.8-3.2-24.2c-0.4-14.2-0.2-15.9,2.4-25c4.3-15.5,8.9-22.8,23.4-37.3
		c10.9-10.9,24.3-22,26.6-22c0.4,0,1.5-0.7,2.4-1.5c4.5-4.1,28.9-13.9,37.5-15.1c2.4-0.3,6.5-0.9,9.2-1.4
		C457.6,5.9,475.5,5.8,482.5,7z"/>
	<path id="path8" class="st2" d="M601.5,73c4.3,0.1,10.8,3.2,13.4,6.6c1.9,2.5,2.2,3.8,1.9,8.9c-0.4,5.7-3.2,13.5-4.8,13.5
		c-0.4,0-1.3-2.1-2.1-4.8c-1.2-4.2-1.4-4.5-2-2.2c-0.4,1.4-0.7,3.9-0.8,5.7c-0.1,3.4,1.1,4,8.9,4.2l3.5,0.1l0.1-5.2
		c0-6.1,2.9-13.1,6.9-17.1c3.8-3.7,8.7-3.6,14.6,0.1c7.2,4.7,8.2,6.3,7.7,12.6c-0.8,10.2-5.8,14-20,15.3c-4.8,0.4-5.8,0.2-5.8-1
		c0-0.9,0.5-1.9,1-2.2c1.6-1,1.1-2.5-0.8-2.5c-2.8,0-3.1,0.7-1.8,5.6l1.1,4.5l8.1,0.2c7,0.2,8.7,0.6,13,3.2c2.8,1.8,5.3,4.2,5.8,5.7
		c1.2,3.5-0.5,9.2-4.4,14.6c-3,4.2-3.1,4.2-9.3,4.2c-10.4,0-15.1-4.2-16.5-14.6c-0.6-4.4-1.2-5.8-2.2-5.5c-6.7,1.6-8.5,1.3-11.7-2.1
		c-2-2.1-3.3-4.5-3.5-6.8l-0.3-3.5l-10.7-0.3c-6-0.1-10.8,0.1-10.8,0.5c0,0.4,2.3,0.6,5,0.5c6-0.5,8.4,0.1,12.8,2.8l3.4,2.1
		l-4.8,4.2c-6.4,5.8-9,7-14.7,7c-8.1,0-12.7-4.8-12.7-13.4c0-3.8,0.6-5.4,3.3-8.7c3.9-4.9,5.9-5.9,11.7-5.9c5.4,0,12.9,3.4,16,7.4
		l2.1,2.8l1.9-2.5l1.8-2.4l-4.6-1.8c-2.5-1-6.7-3.9-9.4-6.5c-3.9-3.8-4.8-5.4-4.8-8.1c0-4.4,3.2-9.6,7.8-12.7
		C596.8,74.1,599.8,73,601.5,73z"/>
	<path id="path10" class="st3" d="M536.1,115c0.4,0,1,2.8,1.3,6.1c1.6,14.2,8.6,26.4,21.8,38c13.2,11.7,29.7,28.7,30.4,31.3
		c1.4,5.6-13.4,29.4-26.9,43.3c-7.9,8.2-13.6,12.6-26.7,20.9c-4.5,2.9-17.2,8.3-23.2,10.1c-2.7,0.7-7.2,2-10,2.8
		c-3.3,0.9-10.3,1.5-18.8,1.6c-11.5,0.1-14.5-0.3-20-2.1c-14.4-4.8-23.5-10.8-36.5-23.8c-19.9-19.8-23.6-28.7-26.9-64.2
		c-0.8-9-1.4-16.5-1.3-16.7c0.1-0.1,4.6-0.4,10-0.7l9.7-0.6l-1.6,2.5c-1.2,1.9-1.5,4.2-1.2,10c0.3,7.4,0.4,7.6,4.9,12.1
		c2.9,2.9,5.9,4.8,8.2,5.4c4.2,0.9,10.7-0.3,14.2-2.6c3.3-2.2,7.2-8.3,7.9-12.7c0.8-4.3,1.7-4.7,3.6-1.2c1,1.9,1.6,2.2,2.6,1.4
		c1.1-0.9,1.1-1.6,0-3.8c-0.7-1.4-1.6-3.7-1.9-5.1c-1-4-7.5-10.8-13.1-13.7c-7.5-3.9-14.1-3.7-23.7,0.7c-8.7,4-15.8,4.9-21.2,2.7
		c-4.8-2.1-4.7-4.3,0.2-8.4c13.2-10.9,24.6-13.6,66.6-15.3c17.7-0.7,25-1.4,31.5-3.1c4.7-1.1,9.7-2.3,11.1-2.5
		c2.8-0.3,17.5-6.5,24.4-10.2C533.7,116,535.8,115.1,536.1,115z M508.2,177.4c-3.2,3-6.9,8.6-5.7,8.6c0.4,0,3.4-2,6.8-4.3
		c8.9-6.3,8.7-6.2,6.6-0.7c-2.7,7.2-2.4,13.4,0.9,19.5c6.3,11.4,18.7,13.5,28.3,4.8c4.6-4.2,6.4-7.3,7.4-12.6c0.4-2,1.1-3.7,1.6-3.7
		c0.4,0,2.9,1.1,5.5,2.5c6.3,3.3,9.3,3.2,12.9-0.5c3.1-3.2,2.9-3.6-0.9-1.9c-5,2.3-9.5,0.3-17.7-8.1c-4.4-4.3-9.8-8.8-12.6-10.1
		C530.7,165.7,517.9,168.2,508.2,177.4z M464.1,196.1c-1.2,0.1-7.1,6.4-7.1,7.6c0,2.3,2.3,6.3,3.7,6.3c1.1,0,1.1-0.4,0.3-2.1
		c-1.7-3.1-0.4-6.5,3-7.9c2.4-1,2.8-1.5,1.9-2.6C465.3,196.6,464.5,196,464.1,196.1z M450.3,227c-1.1,0,0.1,4.1,2,6.8
		c6.6,8.9,17.6,11.5,26.2,6.2c2.9-1.9,6.1-5.8,5.2-6.6c-0.2-0.3-2.6,0.5-5.3,1.7c-11,4.8-14.9,4.1-23.4-4
		C452.6,228.9,450.5,227,450.3,227z"/>
	<path id="path12" class="st4" d="M547.5,181.9c2.1,4.2,1.9,11.9-0.5,15.8c-2.4,4-3.2,4.1-5.8,0.8c-1.1-1.4-2.1-2.5-2.3-2.5
		c-0.2,0-0.4,1.9-0.4,4.2c0,3.9-0.2,4.3-2.7,4.6c-1.8,0.2-3.1-0.4-4.1-1.9c-1.9-2.6-1.3-4.5,2.2-6.4l2.6-1.4l-2.8-0.1
		c-2.9,0-4.7,2.8-4.7,7.5c0,3.7-1.9,4-5.8,0.8c-9.3-7.5-6.8-23.9,4.3-28.9C534.6,171.3,543.7,174.7,547.5,181.9z"/>
	<path id="path14" class="st2" d="M602,121c0.3,0,1.6,0.9,3,2s3.6,2,5,2c1.4,0,3.1,0.4,3.8,0.8c3.2,2.1,4.4,17,1.7,22.1
		c-1.9,3.8-6.4,5.5-12.7,4.8c-6.1-0.8-8.9-2.5-12.9-8c-4.3-5.9-3.5-8.5,4.8-17C598.4,124,601.7,121,602,121z"/>
	<path id="path16" class="st4" d="M446.2,163.9c2.4,3.8,2.9,5.4,2.5,9.2c-0.3,4.1-3.9,10.9-5.7,10.9c-0.4,0-1.2-1-1.7-2.3
		c-1.1-2.2-1.1-2.2-1.8,0.5c-0.8,3-3.4,4.3-6.6,3.3c-1.7-0.6-2-1.3-1.7-4.5c0.2-2.6,0-3.6-0.9-3.3c-1.8,0.7-2.3,3.1-1.3,5.9
		c1.3,3.3,1.3,3.4-0.5,3.4c-2.9,0-9.2-7.5-10-11.8c-1-6.4,2.5-13.3,9-17.3C433.7,154,441.5,156.6,446.2,163.9z"/>
	<path id="path18" class="st1" d="M381.3,177.1l7.7,3.9c4.2,2.1,8.1,4.4,8.7,5.2c0.6,0.7,1.3,4.9,1.6,9.3c0.6,9.2,4.9,22.3,9.9,30.6
		c8.7,14.5,17.8,23.2,37.7,36.3c5.5,3.6,10.5,7.5,11.1,8.6c1.5,2.9-3.4,12.8-7.8,15.7c-3,1.9-9.6,3.9-16.2,4.9
		c-4.8,0.6-17.4,8.3-22,13.3c-7.3,7.9-11.7,17.7-17.5,38.1l-1.3,4.5l-6.8-0.2c-13.6-0.2-31.5-8.3-42.1-18.9
		c-10.1-10.1-14.6-25.1-12.6-41.7c1.5-11.8,6-20.5,17.8-34.2c10.8-12.6,19-24.3,23-33c3.8-8.3,7.4-23.3,8.2-33.7L381.3,177.1z"/>
	<path id="path20" class="st1" d="M631.2,192.2c0.4-0.1,0.1,1.9-0.7,4.5c-6.2,20.1-10.5,40.1-10.5,48.3c0,13.3,4.5,25.8,16.5,46
		c2.4,4.1,5.2,9.1,6,11c0.9,1.9,1.9,4.2,2.4,5c2.1,3.8,3.3,12.7,2.8,19.9c-0.8,11.8-4.6,19.2-15.6,30.2c-10,10-16,13.4-29.5,16.9
		c-13.4,3.4-32.8,2.1-36.4-2.4c-1-1.3-3.1-9.1-5-18.2c-1.8-8.7-4-19.1-4.8-22.9c-4.3-20.4-11.6-28.8-30.4-34.9
		c-10.4-3.4-15.7-6.4-19.9-11.1c-4.1-4.7-4.2-9.1-0.3-12.7c2.2-2.2,12.5-6.8,18.2-8.3c2.1-0.5,16.4-7.6,17-8.4
		c0.3-0.4,2.5-1.9,5-3.3c2.5-1.5,7.5-5.1,11.2-8.2c6-5,8.7-8,19.9-21.9c2.4-2.9,3.7-3.7,6.3-3.7c5.1,0,20.8-5.5,28.4-9.9
		c3.9-2.2,9.6-6.7,12.8-9.9C627.9,195,630.8,192.3,631.2,192.2z"/>
	<path id="path22" class="st3" d="M462,272h18.9h19l0.7,5.6c0.5,4,1.5,6.7,3.8,9.6c3.5,4.6,12,9.5,18.1,10.4c2.2,0.3,7.2,2,11,3.8
		c7.4,3.4,12,7.8,15.5,14.6c2,3.9,5.8,21.3,7.9,36c3,20.7,7.5,51.2,9.6,65c4.8,30.8,8.3,56.8,9.5,69.2c1.2,13.7,4.2,25,8.4,31.6
		c4.4,6.9,12.8,13.8,23.7,19.2c13,6.6,20.5,11.3,21.9,13.9c0.6,1.2,0.7,2.1,0.3,2.1c-0.4,0-4.6-2.3-9.2-5c-9.6-5.7-8.3-3.4,2.1,3.6
		c6.1,4.2,11.8,9.8,11.8,11.7c0,1.5-3,0.5-9.6-2.9c-3.8-2-8.7-4.9-10.9-6.4c-4.5-3-11.6-6.8-10-5.3c0.9,0.9,9,7,21.8,16.5l5.1,3.7
		l-2.9,1.1c-4.1,1.5-7.7,0.4-14.2-4.4c-10.1-7.3-21.5-14.8-21.9-14.3c-0.5,0.4,8.6,7.8,18.5,15c8.2,6,8.3,6,7.6,7.9
		c-1,2.6-7.4,0.6-18.7-5.7c-5.7-3.2-11.9-6.8-13.8-8.1c-1.9-1.2-6.3-3.2-9.6-4.4l-6.2-2.2l-4.5,2c-2.5,1.1-5.7,3.6-7.3,5.8
		c-10.4,13.6-18,18.2-13.5,7.9c1.2-2.6,2.1-5.3,2.1-5.9c0-0.6,1.2-2.8,2.6-4.9c8.3-12.3,10.7-33,5.9-52.3
		c-2.3-9.5-7.6-27.4-12.2-41.4c-0.8-2.5-2.3-10.6-3.3-18c-3.3-24.6-7.1-43-12.5-60.7c-1.5-5-1.5-5.4,0.5-9c1.1-2.1,2-4.9,2-6.4
		c0-3.8-4.9-17.1-7.2-19.6c-3.5-3.7-18.4-10.7-23.1-10.8c-2.3,0-6.2-0.6-8.6-1.4c-4-1.1-4.7-1-9.6,1.3c-2.9,1.5-7,4-9,5.6
		c-4.4,3.5-8.7,4.9-9.3,3.1c-0.2-0.6-2.1-3.4-4.3-6.1c-3.4-4.4-4.7-5.2-11.1-7.1c-11.7-3.5-14.8-3.5-23.6-0.4
		c-8.3,3-10.8,4.8-15.3,11c-4.8,6.6-7,12.1-6.3,15.2c0.4,1.5,3.6,5.5,7.1,8.9c7.3,7.2,7.9,9.7,3.8,17.3c-2.2,4.1-4.4,9.2-11.1,25.1
		c-1,2.5-4.6,7.4-8,11c-3.6,3.7-7,8.4-8,11c-2.8,7.2-3.4,7.6-14.7,8.8c-14.7,1.7-17.7,1.9-17.7,1.2c0-0.3,2-4.4,4.5-9.1
		c2.4-4.6,5.8-11.1,7.5-14.4c1.6-3.3,4.7-9.4,6.9-13.5c12.4-23.9,18.2-39.1,26.1-68.8c4.6-17.2,9.5-26.6,17.8-34.3
		c6-5.6,8.2-6.8,16.4-9.7c5.2-1.8,10.5-3.4,11.8-3.4c4-0.3,12.3-5.2,14.8-8.8c1.3-2,2.2-4.8,2.2-7.1V272z"/>
	<path id="path24" class="st5" d="M440,337.4c2.4,1.1,2.5,1.4,2.5,11.1c0,14.4-4.9,31.5-8.1,28.2c-1-0.9-6.1-24.2-6.8-30.9l-0.8-6.7
		l3.4-2.1C433.5,335,435,335.1,440,337.4z"/>
	<path id="path26" class="st5" d="M450.3,339.2c6.7,3.8,7.5,8.5,3.1,17.8c-3.3,7.1-4.5,10-3.9,10c0.3,0,1.3-1.5,2.2-3.4
		c7.8-14.8,8.6-15.7,10.3-11.1c2.3,6-3.6,16.2-14.1,24.6l-4,3.1l0.7-2.7c0.7-3-0.1-2.9-3.8,0.3c-2.3,1.9-2.3,1,0.1-8
		c1.1-4,2.5-11.6,3.1-16.8c0.6-5.2,1.6-10.7,2.2-12.3C447.4,337.6,447.3,337.6,450.3,339.2z"/>
	<path id="path28" class="st6" d="M421.1,339c1.7,0,3.8,4.3,5.3,11c0.8,4.1,2.7,12.4,4,18.5c1.3,6,2.3,11.2,2.1,11.4
		c-0.2,0.2-1.7-0.6-3.3-1.8c-3.3-2.3-5.3-2.8-3.4-0.9c0.7,0.7,1.2,1.8,1.2,2.5c0,1.5-6.2-1.3-11.3-5.1c-4-2.9-9.6-10.8-10.3-14.5
		c-0.6-2.9,1.1-9.1,2.5-9.1c0.3,0,2.3,2.7,4.4,5.9c5.6,8.7,7.6,9.7,3.4,1.6c-2.3-4.2-3.7-8.3-3.7-10.5c0-3,0.6-3.9,4.3-6.2
		C418.6,340.3,420.8,339,421.1,339z"/>
	<path id="path30" class="st5" d="M491.1,342c2.3,1.3,2.4,5,0.4,17.5c-0.8,4.9-1.5,11.1-1.5,13.7c0,5.6-1.4,9.8-3.3,9.8
		c-1.6,0-6.7-10.6-6.7-13.9c0-1.1-0.5-2.1-1.1-2.1c-0.6,0-0.9,0.6-0.6,1.3c1.4,3.7,3.9,15.8,3.3,16.4c-1,1-2-0.5-7.8-11.7
		c-8.7-16.9-9.2-19.7-3.5-22.6c3.6-1.9,4.1-1.3,5.8,6.6c1.2,6.1,3.3,10.6,2.5,5.5c-1.6-10.2-1.7-14.5-0.2-17.3
		c0.9-1.7,2.1-3.2,2.8-3.5C483.5,340.8,489.1,341,491.1,342z"/>
	<path id="path32" class="st6" d="M509.2,346.1c2.6,2.5,3,3.4,2.5,6.5c-0.3,2-1.5,5.4-2.7,7.5c-3.9,7.6-1.9,6.3,2.5-1.6
		c2.5-4.4,5-7.9,5.7-7.7c0.6,0.2,2.4,1.2,4,2.3c2.2,1.6,2.8,2.8,2.8,5.5c0,6.4-13.1,20.6-24.2,26.5c-4.3,2.2-4.6,1.9-1.9-1.9
		c2.2-3.2,6.3-11.2,5.7-11.2c-0.3,0-7.3,8.8-9.7,12.2c-0.3,0.5-1.3,0.6-2.3,0.2c-1.9-0.7-1.9-0.2,1.5-22.9c2.6-16.6,2.5-16.4,6.1-18
		C503.1,341.9,505.3,342.5,509.2,346.1z M506.6,367c-0.3,0-1,0.9-1.6,2s-0.8,2-0.6,2c0.3,0,1-0.9,1.6-2S506.8,367,506.6,367z"/>
	<path id="path34" class="st3" d="M465,361.1c0.3-0.1,2,3.9,3.8,8.7c7.6,20.1,11.8,24.2,26.1,24.8c8.7,0.4,8.8,0.4,11.7-2.7
		c2.9-3.1,8.2-6.4,9-5.6c0.2,0.2-0.2,1.7-1.1,3.3c-0.8,1.6-1.5,3.4-1.5,4c0,0.6-1.1,3.7-2.5,6.8c-4.9,11-6.6,25.2-4.3,34.4
		c0.2,0.9-4.6,3.5-13.2,7.3c-7.4,3.2-14.4,6.3-15.5,6.8c-6.2,2.9-32.3,14.4-40,17.7c-4.9,2-9.9,4.4-11,5.1c-4.8,3.2-6,1.5-8.6-12.2
		c-0.7-3.3-2.2-10.6-3.5-16.2c-2.8-12-2.9-13.6-0.9-15.3c5.6-4.6,10.5-20.1,10.5-33.1c0-8,0.9-8.9,7-7.2c2.7,0.7,5.2,0.6,8.6-0.3
		c5.4-1.4,7.9-3.7,18.4-17.7C461.6,365,464.7,361.1,465,361.1z"/>
	<path id="path36" class="st5" d="M526,366.5c0.6,0.3,1,2.2,1,4.1c0,4.6-5,10-13.2,14c-6.7,3.3-12.9,5.6-13.5,5
		c-0.2-0.2,2-2.6,4.9-5.3c2.9-2.7,8.6-8,12.6-11.7C521.8,368.9,525.5,366.2,526,366.5z"/>
	<path id="path38" class="st0" d="M419.8,387.7c1.9,5.1,2.3,10.4,1.2,16c-1.4,6.6-5.9,16.7-9.2,20.6l-2.3,2.8l-3.7-2.6l-3.7-2.5
		l5.3-12.8c2.9-7,6.3-14.6,7.4-16.9c1.2-2.3,2.2-4.9,2.2-5.8C417,384.1,418.7,384.8,419.8,387.7z"/>
	<path id="path40" class="st6" d="M404.8,428.6c2.7,1.9,5.7,7.6,6.5,12.4c0.3,1.9,1.5,7.7,2.6,12.9c2.2,9.7,2.7,17.1,1.3,17.1
		c-0.9,0-21.7-23.7-24.4-27.9c-1-1.4-1.8-3.8-1.8-5.2c0-2.4,3.7-8.5,6.2-10.1C397.3,426.5,402.4,426.9,404.8,428.6z"/>
	<path id="path42" class="st6" d="M513,440.5c3.7,0.2,5.1,1,8.2,4.4c3.4,3.6,3.8,4.6,3.8,9.2c0,6.6-2.5,9.1-15.3,14.7
		c-12.4,5.5-20.8,6.4-54.2,6l-26-0.3l12-5.8c38.3-18.6,55.4-26.1,63-27.7C506.7,440.5,510.5,440.3,513,440.5z"/>
	<path id="path44" class="st3" d="M404,462.8c6.3,6.7,12.5,12.6,14,13.1c4.8,2,20.5,3.1,43.8,3.1c25.8,0,31-0.7,48.4-6.5
		c7.5-2.5,10.5-3.1,11-2.2c0.4,0.7,2.4,6.4,4.5,12.7c3.5,10.7,3.8,12.3,3.8,23.5c-0.1,10.5-0.4,12.9-2.8,19.4
		c-1.4,4-4.2,10.1-6.1,13.5c-4.9,8.7-17.1,20.1-26.6,24.8c-8,4-26.9,10.3-34.1,11.3c-2.4,0.3-8,1.3-12.4,2.1
		c-19.2,3.5-50.7,3.4-73-0.1c-5.5-0.9-21.9-2-36.5-2.6c-14.6-0.5-27.1-1.1-27.7-1.4c-0.9-0.3-1.3-3-1.3-8.9c0-4.7-0.4-8.7-0.9-9
		c-4.9-3.1,3,48.9,10.1,66.9c11.1,27.9,16.5,35.5,30.6,42.5c4.6,2.4,15.8,5.8,21.2,6.5c6.1,0.8,18.4,5.2,27,9.5
		c10.7,5.4,20.3,12.7,31,23.6c10.4,10.6,14.5,13.9,22.4,18.1c5.7,3.1,14.2,5.5,18.8,5.5c2.1-0.1,3.8,0.3,3.8,0.7
		c0,0.4-3.3,3.9-7.2,7.7c-18.4,17.7-33.9,24.8-53.8,24.7c-8.6,0-12-0.5-19-2.7c-7.8-2.6-19-8-22.9-11.2c-0.9-0.7-4.4-3.6-7.8-6.4
		s-6.4-4.6-6.7-4.1c-0.6,0.9,1.3,7.1,3.2,10.7c3.6,6.7,5.5,13.6,5.9,21.4c0.5,7.4,0.2,9.5-2.1,16c-6.1,17.4-18.8,32.1-40.6,47.1
		c-6.9,4.7-13,8.8-13.5,9.2c-0.7,0.4-1.1-2.5-1.1-8.6c0.1-9.3-2.1-18.4-7.3-30.7c-9.3-21.8-12.3-49.1-8.1-74.5c1.1-6.6,2-14,2-16.5
		c0-8.1-2.6-18.4-6.6-26c-5.1-9.7-13.1-18.2-28.4-29.8c-26.6-20.4-42.1-39.7-53.9-67.7c-8.9-21-8.1-42.6,2.3-62.1
		c4.8-9.1,12.7-19.4,20.2-26.5c5.6-5.1,16-13.9,16.6-13.9c0.3,0,4.1-2.2,8.6-4.9c12.8-7.7,32.2-15.6,51.7-21
		c12.8-3.6,33-7.9,39.5-8.6c2.5-0.2,10.1-1.3,17-2.4c6.9-1.1,13.9-2.2,15.5-2.4C386,444.4,387.6,445.5,404,462.8z"/>
	<path d="M470,2.1c13.9-0.1,14.8,0,22.5,3c4.4,1.6,8.9,3.2,10,3.4c1.1,0.3,5.2,1.6,9,3c5.1,1.9,10.4,2.8,19.4,3.5
		c12.7,1,33.8,5.5,39.9,8.5c1.8,0.9,3.9,1.8,4.6,1.9c1.4,0.2,15.4,7.4,17.1,8.8c0.5,0.5,4.2,3.2,8,6c8.7,6.5,16.3,14.1,23.7,23.9
		c6.1,8.2,10.7,12.5,18.3,17.3c9.8,6.2,11.8,17.9,4.5,27.1c-1.7,2.1-3,4.2-3,4.7s2,3,4.4,5.6c5.7,6.2,6.1,7.9,3.2,13.3
		c-2.7,5.2-7,19.6-8.5,28.4c-0.5,3.3-1.5,7.3-2.1,9c-1.3,3.1-7.5,26-9,33.1c-0.5,2.2-2,8.1-3.4,13c-3.7,13.3-5.9,27.9-5.1,33.8
		c1.3,9.9,3.6,17.9,7,24.5c4.3,8.2,9.4,17.2,10.7,18.8c0.5,0.7,2.5,4.4,4.4,8.3c10,20.9,5.6,43.1-11.9,59.6
		c-8.1,7.6-20.3,14.6-27.7,15.8c-16.5,2.8-18.6,2.9-29.2,1.7c-5.9-0.7-11.1-1-11.6-0.7c-1.5,0.9,2.8,41.7,6.9,65.6
		c1.1,6.3,2.4,15.1,2.9,19.5c0.5,4.4,2.3,15.7,3.9,25.2c4.8,28.9,9.7,35.9,33.5,47.9c15.9,8.1,18.6,10,22.1,15.9
		c4.9,8.5,2.9,18.1-4.5,21.7c-14.2,6.7-19.1,6.5-30-1.2c-1.4-1-7.5-4.5-13.7-7.9c-8.7-4.7-12.2-6.1-15.4-6.1c-4,0-4.7,0.5-14,10
		c-8.2,8.2-10.5,10-12.9,10c-2.9,0-3-0.2-3-4.6c0-3.5,1.2-6.9,5.5-15.2c10.8-21.3,11-38.1,0.6-70.7c-6.8-21.2-10.1-35.1-11.5-48.5
		c-0.8-7.4-2.4-17.8-3.6-23c-2.3-10.3-7.9-30.6-9.1-33c-0.5-0.9-2.1,1.6-5.1,8c-7.5,15.9-11.2,30.1-10.1,37.8
		c0.6,4,6.4,10.2,9.4,10.2c3.4,0,7.8,2.9,9.6,6.3c2.1,4.1,2.1,11.3,0,15.4c-2.3,4.4-2.1,8.3,0.7,16.2c3.1,8.9,6,27.8,5.1,34.4
		c-3.2,24.5-13.9,42-32.4,53c-4.4,2.6-8.9,5-10,5.2c-1,0.2-3.3,1.1-5,1.9c-1.7,0.9-9.2,3.2-16.8,5.2c-29.1,7.6-67.7,8.3-113.8,1.9
		c-6-0.8-18.4-1.5-27.3-1.5h-16.4l0.7,4.2c1,6.4,4.2,19.6,6.3,26.4c1.1,3.2,2.7,8.8,3.8,12.4c1,3.6,2.4,7.6,3.1,9
		c0.7,1.4,1.3,3.1,1.3,3.8c0,3.4,7.4,15.4,12.8,20.8c8.5,8.4,20.6,13.3,44.2,18c4.9,1,24.6,11.4,31.5,16.6
		c3.9,2.9,11.3,9.7,16.5,15.2c11.4,11.9,19.6,17.8,26.4,19c0.6,0.1,5.2,0.8,10.1,1.5c15.4,2.2,14.5,1.5,9.4,6.8
		c-6,6.3-21.3,18.9-27.4,22.8c-7,4.4-16.8,8.2-24.9,9.6c-6.5,1.1-21.2,0.8-29.6-0.6c-4.6-0.8-24.8-10.6-28.7-13.9
		c-1.7-1.4-3.4-2.6-3.7-2.6c-0.3,0,0.3,2.4,1.4,5.2c2.8,7.7,4.3,18.2,3.7,25.3c-0.9,9.9-4,16.9-11.7,27
		c-12,15.7-19.7,22.6-46.6,41.9l-6.1,4.4l0.1-14.7l0.1-14.6l-5.3-14.6c-12.3-34.1-14.9-56.1-9.2-79.4c3.2-13.1,2.9-23.8-1-33
		c-4.1-9.9-6.1-12.7-15.5-22c-5.5-5.5-14.7-13.7-20.5-18.1c-18.5-14.3-34.2-32.7-42.9-50.4c-2.3-4.7-4.8-9.6-5.5-11
		c-0.7-1.4-2.6-6.6-4.1-11.5c-1.5-5-3.1-9.4-3.6-10c-0.5-0.5-0.9-5.9-0.9-12.1c0-10.4,0.3-11.9,3.5-20.4c6.3-16.6,11.9-25.3,24-37.8
		c17.3-17.9,37.6-29.9,66.5-39.5c13.8-4.5,34.4-9.7,41.2-10.4c2.1-0.2,7.3-1.4,11.6-2.6l7.7-2.2l6.5-13c6-11.9,9.5-19.2,26.4-54.8
		c4.8-10.2,10.2-24.6,9.4-25.2c-0.6-0.5-17.5-4.5-18.8-4.5c-2.7-0.1-17.4-6.6-23.1-10.3c-6.8-4.3-10.7-8.6-15.2-16.9
		c-6.5-11.7-8.5-28.9-4.9-41.9c2.6-9.2,8-18.3,16.3-27.5c13.7-15.1,22-27.7,27-41.2c2.9-7.8,3.3-10.1,3.7-21.9l0.4-13.3l-6.7-6.7
		c-16.6-16.6-24.5-35.9-24.5-60c0-25.7,8.1-45.3,26.9-64.6c9-9.2,14.7-13.8,27.1-21.6c5.8-3.7,26.9-12.5,32.5-13.6
		c1.7-0.3,7.5-1.8,13-3.4C454.3,2.6,457.2,2.2,470,2.1z M450.7,7c-2.7,0.5-6.8,1.1-9.2,1.4c-8.6,1.2-33,11-37.5,15.1
		c-0.9,0.8-2,1.5-2.4,1.5c-2.3,0-15.7,11.1-26.6,22c-14.5,14.5-19.1,21.8-23.4,37.3c-2.6,9.1-2.8,10.8-2.4,25
		c0.3,13.4,0.7,16.3,3.2,24.2c5.4,16.8,17.1,31.9,31.5,40.7l6,3.8l-0.7-3.3c-0.4-1.7-0.7-6.8-0.7-11.2c0-6.9,0.4-8.6,2.7-12.6
		c3.4-5.8,9.7-10.9,16.8-13.6c6.9-2.7,9.9-3.2,26.3-4.3c21.8-1.5,50.9-4,51.6-4.4c0.3-0.2,3.4-0.7,6.9-1c8.2-0.7,26.8-6.9,34.3-11.5
		c9.3-5.7,12.7-8.8,15.5-14.4c2.5-4.8,2.6-5.8,2.1-13.9c-0.6-9.9,0.3-10.6,2.9-2.3c2.1,6.5,1.3,11.2-3.6,20.9c-2.6,5.1-3,6.9-3,14.4
		c0,13.2,2,16.2,28.1,42.7c17.2,17.4,22.3,23.2,24.3,27.5c3.1,6.6,3.1,7.5,0.6,14.7c-1.1,3.2-2,6-2,6.4c0,1.5,6.8-0.4,14-3.9
		c11.1-5.4,24.1-18.6,29.8-30.3c4.6-9.4,7.5-20.7,7-27.8l-0.3-4.6l-8.2,0.3c-7.8,0.4-8.3,0.3-10.9-2.3c-1.4-1.4-2.7-2.5-2.9-2.3
		c-0.1,0.2-1.3,2.7-2.5,5.6c-3.1,7.3-5.8,9.2-13.2,9.2c-9.2,0-12.1-1.7-15.7-9.3c-2.2-4.6-3.1-7.9-3.1-11.6V130h-3.7
		c-2.1,0-5.7-0.9-7.9-1.9c-3.6-1.6-4.5-2.7-6.3-7.5c-1.2-3.1-2.1-6.7-2.1-7.9c0-5.5,8.1-13.8,16.5-16.8c3.2-1.2,3.2-1.2,3.1-7.8
		c-0.2-11.3,5.2-17.1,15.8-17.1c7.5,0,12.6,2.6,16.2,8.5c1.6,2.5,3.1,4.5,3.4,4.5s2.2-1.7,4.2-3.8l3.7-3.7l-4.7-7
		c-10.7-15.9-28.1-30.7-46.2-39.3c-11.1-5.2-25.6-9.8-33.6-10.6c-2.2-0.2-6.8-0.7-10.4-1.1c-4.2-0.5-6.1-0.4-5.5,0.2
		c0.7,0.7,11,9.4,16.4,13.9c0.1,0.1,0,0.8-0.4,1.4c-0.4,0.7-2.1-0.1-4.8-2.3c-2.3-1.9-5.8-4.2-7.7-5.2c-1.9-1-6-3.5-9-5.5
		c-10.3-7-21-11.4-30-12.5c-2.5-0.3-7.2-1-10.5-1.5C475.5,5.8,457.6,5.9,450.7,7z M601.5,73c-6.4,0-14.5,8.4-14.5,15.2
		c0,2.7,0.9,4.3,4.8,8.1c2.7,2.6,6.9,5.5,9.4,6.5l4.6,1.8L604,107l-1.9,2.5l-2.1-2.8c-3.1-4-10.6-7.4-16-7.4c-5.8,0-7.8,1-11.7,5.9
		c-2.7,3.3-3.3,4.9-3.3,8.7c0,8.6,4.6,13.4,12.7,13.4c5.7,0,8.3-1.2,14.7-7l4.8-4.2l-3.4-2.1c-4.4-2.7-6.8-3.3-12.8-2.8
		c-2.7,0.1-5-0.1-5-0.5c0-0.4,4.8-0.6,10.8-0.5l10.7,0.3l0.3,3.5c0.2,2.3,1.5,4.7,3.5,6.8c3.2,3.4,5,3.7,11.7,2.1
		c1-0.3,1.6,1.1,2.2,5.5c1.4,10.4,6.1,14.6,16.5,14.6c6.2,0,6.3,0,9.3-4.2c3.9-5.4,5.6-11.1,4.4-14.6c-0.5-1.5-3-3.9-5.8-5.7
		c-4.3-2.6-6-3-13-3.2l-8.1-0.2l-1.1-4.5c-1.3-4.9-1-5.6,1.8-5.6c1.9,0,2.4,1.5,0.8,2.5c-0.5,0.3-1,1.3-1,2.2c0,1.2,1,1.4,5.8,1
		c14.2-1.3,19.2-5.1,20-15.3c0.5-6.3-0.5-7.9-7.7-12.6c-5.9-3.7-10.8-3.8-14.6-0.1c-4,4-6.9,11-6.9,17.1l-0.1,5.2l-3.5-0.1
		c-7.8-0.2-9-0.8-8.9-4.2c0.1-1.8,0.4-4.3,0.8-5.7c0.6-2.3,0.8-2,2,2.2c0.8,2.7,1.7,4.8,2.1,4.8c1.6,0,4.4-7.8,4.8-13.5
		c0.3-5.1,0-6.4-1.9-8.9c-1.2-1.6-4.1-3.7-6.3-4.7C606.3,73.9,603.1,73,601.5,73z M536.1,115c-0.3,0.1-2.4,1-4.6,2.2
		c-6.9,3.7-21.6,9.9-24.4,10.2c-1.4,0.2-6.4,1.4-11.1,2.5c-6.5,1.7-13.8,2.4-31.5,3.1c-42,1.7-53.4,4.4-66.6,15.3
		c-4.9,4.1-5,6.3-0.2,8.4c5.4,2.2,12.5,1.3,21.2-2.7c9.6-4.4,16.2-4.6,23.7-0.7c5.6,2.9,12.1,9.7,13.1,13.7c0.3,1.4,1.2,3.7,1.9,5.1
		c1.1,2.2,1.1,2.9,0,3.8c-1,0.8-1.6,0.5-2.6-1.4c-1.9-3.5-2.8-3.1-3.6,1.2c-0.7,4.4-4.6,10.5-7.9,12.7c-3.5,2.3-10,3.5-14.2,2.6
		c-2.3-0.6-5.3-2.5-8.2-5.4c-4.5-4.5-4.6-4.7-4.9-12.1c-0.3-5.8,0-8.1,1.2-10l1.6-2.5l-9.7,0.6c-5.4,0.3-9.9,0.6-10,0.7
		c-0.1,0.2,0.5,7.7,1.3,16.7c3.3,35.5,7,44.4,26.9,64.2c13,13,22.1,19,36.5,23.8c5.5,1.8,8.5,2.2,20,2.1c8.5-0.1,15.5-0.7,18.8-1.6
		c2.8-0.8,7.3-2.1,10-2.8c6-1.8,18.7-7.2,23.2-10.1c13.1-8.3,18.8-12.7,26.7-20.9c13.5-13.9,28.3-37.7,26.9-43.3
		c-0.7-2.6-17.2-19.6-30.4-31.3c-13.2-11.6-20.2-23.8-21.8-38C537.1,117.8,536.5,115,536.1,115z M602,121c-0.3,0-3.6,3-7.3,6.7
		c-8.3,8.5-9.1,11.1-4.8,17c4,5.5,6.8,7.2,12.9,8c6.3,0.7,10.8-1,12.7-4.8c2.7-5.1,1.5-20-1.7-22.1c-0.7-0.4-2.4-0.8-3.8-0.8
		c-1.4,0-3.6-0.9-5-2S602.3,121,602,121z M419.5,167.4c-2.4,5.7-1.2,10.9,3.6,15.7c2.1,2.1,4.6,3.9,5.4,3.9c1.8,0,1.8-0.1,0.5-3.4
		c-1-2.8-0.5-5.2,1.3-5.9c0.9-0.3,1.1,0.7,0.9,3.3c-0.3,3.2,0,3.9,1.7,4.5c3.2,1,5.8-0.3,6.6-3.3c0.7-2.7,0.7-2.7,1.8-0.5
		c0.5,1.3,1.3,2.3,1.7,2.3c1.8,0,5.4-6.8,5.7-10.9c0.4-3.8-0.1-5.4-2.5-9.2c-1.7-2.6-4.4-5.3-6.5-6.2
		C431.6,153.8,423.5,157.7,419.5,167.4z M389,181l-7.7-3.9l-0.6,8.7c-0.8,10.4-4.4,25.4-8.2,33.7c-4,8.7-12.2,20.4-23,33
		c-11.8,13.7-16.3,22.4-17.8,34.2c-2,16.6,2.5,31.6,12.6,41.7c10.6,10.6,28.5,18.7,42.1,18.9l6.8,0.2l1.3-4.5
		c8-28.4,14.7-39,29.5-47c4.1-2.3,8.6-4.2,10-4.4c6.6-1,13.2-3,16.2-4.9c4.4-2.9,9.3-12.8,7.8-15.7c-0.6-1.1-5.6-5-11.1-8.6
		c-19.9-13.1-29-21.8-37.7-36.3c-5-8.3-9.3-21.4-9.9-30.6c-0.3-4.4-1-8.6-1.6-9.3C397.1,185.4,393.2,183.1,389,181z M631.2,192.2
		c-0.4,0.1-3.3,2.8-6.6,6c-3.2,3.2-8.9,7.7-12.8,9.9c-7.6,4.4-23.3,9.9-28.4,9.9c-2.6,0-3.9,0.8-6.3,3.7
		c-11.2,13.9-13.9,16.9-19.9,21.9c-3.7,3.1-8.7,6.7-11.2,8.2c-2.5,1.4-4.7,2.9-5,3.3c-0.6,0.8-14.9,7.9-17,8.4
		c-5.7,1.5-16,6.1-18.2,8.3c-3.9,3.6-3.8,8,0.3,12.7c4.2,4.7,9.5,7.7,19.9,11.1c18.8,6.1,26.1,14.5,30.4,34.9
		c0.8,3.8,3,14.2,4.8,22.9c1.9,9.1,4,16.9,5,18.2c3.6,4.5,23,5.8,36.4,2.4c13.5-3.5,19.5-6.9,29.5-16.9c11-11,14.8-18.4,15.6-30.2
		c0.5-7.2-0.7-16.1-2.8-19.9c-0.5-0.8-1.5-3.1-2.4-5c-0.8-1.9-3.6-6.9-6-11c-16.8-28.3-19.5-41.4-13.5-66.1
		c3.5-14.2,5.4-21.4,7.5-28.2C631.3,194.1,631.6,192.1,631.2,192.2z M499.9,272h-19H462v3.9c0,2.3-0.9,5.1-2.2,7.1
		c-2.5,3.6-10.8,8.5-14.8,8.8c-1.3,0-6.6,1.6-11.8,3.4c-8.2,2.9-10.4,4.1-16.4,9.7c-8.3,7.7-13.2,17.1-17.8,34.3
		c-7.9,29.7-13.7,44.9-26.1,68.8c-2.2,4.1-5.3,10.2-6.9,13.5c-1.7,3.3-5.1,9.8-7.5,14.4c-2.5,4.7-4.5,8.8-4.5,9.1
		c0,0.7,3,0.5,17.7-1.2c11.3-1.2,11.9-1.6,14.7-8.8c1-2.6,4.4-7.3,8-11c3.4-3.6,7-8.5,8-11c6.7-15.9,8.9-21,11.1-25.1
		c4.1-7.6,3.5-10.1-3.8-17.3c-3.5-3.4-6.7-7.4-7.1-8.9c-0.7-3.1,1.5-8.6,6.3-15.2c4.5-6.2,7-8,15.3-11c8.8-3.1,11.9-3.1,23.6,0.4
		c6.4,1.9,7.7,2.7,11.1,7.1c2.2,2.7,4.1,5.5,4.3,6.1c0.6,1.8,4.9,0.4,9.3-3.1c2-1.6,6.1-4.1,9-5.6c4.9-2.3,5.6-2.4,9.6-1.3
		c2.4,0.8,6.3,1.4,8.6,1.4c4.7,0.1,19.6,7.1,23.1,10.8c2.3,2.5,7.2,15.8,7.2,19.6c0,1.5-0.9,4.3-2,6.4c-2,3.6-2,4-0.5,9
		c5.4,17.7,9.2,36.1,12.5,60.7c1,7.4,2.5,15.5,3.3,18c4.6,14,9.9,31.9,12.2,41.4c2.4,9.4,2.7,12.3,2.3,22.5
		c-0.5,12.7-3.1,22.3-8.2,29.8c-1.4,2.1-2.6,4.3-2.6,4.9c0,0.6-0.9,3.3-2.1,5.9c-1.7,3.9-1.9,4.9-0.8,5.6c1.4,0.9,8.2-5.5,14.3-13.5
		c1.6-2.2,4.8-4.7,7.3-5.8l4.5-2l6.2,2.2c3.3,1.2,7.7,3.2,9.6,4.4c1.9,1.3,8.1,4.9,13.8,8.1c11.3,6.3,17.7,8.3,18.7,5.7
		c0.7-1.9,0.6-1.9-7.6-7.9c-9.9-7.2-19-14.6-18.5-15c0.4-0.5,11.8,7,21.9,14.3c6.5,4.8,10.1,5.9,14.2,4.4l2.9-1.1l-5.1-3.7
		c-12.8-9.5-20.9-15.6-21.8-16.5c-1.6-1.5,5.5,2.3,10,5.3c2.2,1.5,7.1,4.4,10.9,6.4c6.6,3.4,9.6,4.4,9.6,2.9
		c0-1.9-5.7-7.5-11.8-11.7c-10.4-7-11.7-9.3-2.1-3.6c4.6,2.7,8.8,5,9.2,5c0.4,0,0.3-0.9-0.3-2.1c-1.4-2.6-8.9-7.3-21.9-13.9
		c-10.9-5.4-19.3-12.3-23.7-19.2c-4.2-6.6-7.2-17.9-8.4-31.6c-1.2-12.4-4.7-38.4-9.5-69.2c-2.1-13.8-6.6-44.3-9.6-65
		c-2.1-14.7-5.9-32.1-7.9-36c-3.5-6.8-8.1-11.2-15.5-14.6c-3.8-1.8-8.8-3.5-11-3.8c-6.1-0.9-14.6-5.8-18.1-10.4
		c-2.3-2.9-3.3-5.6-3.8-9.6L499.9,272z M430.2,337l-3.4,2.1l0.8,6.7c0.7,6.7,5.8,30,6.8,30.9c3.2,3.3,8.1-13.8,8.1-28.2
		c0-9.7-0.1-10-2.5-11.1C435,335.1,433.5,335,430.2,337z M447.6,338c-1,0-2.6,6.5-3.6,15c-0.6,5.2-2,12.8-3.1,16.8
		c-2.4,9-2.4,9.9-0.1,8c3.7-3.2,4.5-3.3,3.8-0.3l-0.7,2.7l4-3.1c10.5-8.4,16.4-18.6,14.1-24.6c-1.7-4.6-2.5-3.7-10.3,11.1
		c-0.9,1.9-1.9,3.4-2.2,3.4c-0.6,0,0.6-2.9,3.9-10c4.4-9.3,3.6-14-3.1-17.8C449,338.6,447.9,338,447.6,338z M416.3,341.8
		c-3.7,2.3-4.3,3.2-4.3,6.2c0,2.2,1.4,6.3,3.7,10.5c4.2,8.1,2.2,7.1-3.4-1.6c-2.1-3.2-4.1-5.9-4.4-5.9c-1.4,0-3.1,6.2-2.5,9.1
		c0.7,3.7,6.3,11.6,10.3,14.5c5.1,3.8,11.3,6.6,11.3,5.1c0-0.7-0.5-1.8-1.2-2.5c-1.9-1.9,0.1-1.4,3.4,0.9c1.6,1.2,3.1,2,3.3,1.8
		c0.2-0.2-0.8-5.4-2.1-11.4c-1.3-6.1-3.2-14.4-4-18.5c-0.9-4.1-2.3-8.3-3.2-9.3C421.3,338.5,421.3,338.5,416.3,341.8z M481.2,341.7
		c-0.7,0.3-1.9,1.8-2.8,3.5c-1.5,2.8-1.4,7.1,0.2,17.3c0.8,5.1-1.3,0.6-2.5-5.5c-1.7-7.9-2.2-8.5-5.8-6.6c-5.7,2.9-5.2,5.7,3.5,22.6
		c5.8,11.2,6.8,12.7,7.8,11.7c0.6-0.6-1.9-12.7-3.3-16.4c-0.3-0.7,0-1.3,0.6-1.3c0.6,0,1.1,1,1.1,2.1c0,3.3,5.1,13.9,6.7,13.9
		c1.9,0,3.3-4.2,3.3-9.8c0-2.6,0.7-8.8,1.5-13.7c2-12.5,1.9-16.2-0.4-17.5C489.1,341,483.5,340.8,481.2,341.7z M499.2,343.5
		c-3.6,1.6-3.5,1.4-6.1,18c-3.4,22.7-3.4,22.2-1.5,22.9c1,0.4,2,0.3,2.3-0.2c2.4-3.4,9.4-12.2,9.7-12.2c0.6,0-3.5,8-5.7,11.2
		c-2.7,3.8-2.4,4.1,1.9,1.9c11.1-5.9,24.2-20.1,24.2-26.5c0-2.7-0.6-3.9-2.8-5.5c-1.6-1.1-3.4-2.1-4-2.3c-0.7-0.2-3.2,3.3-5.7,7.7
		c-4.4,7.9-6.4,9.2-2.5,1.6c1.2-2.1,2.4-5.5,2.7-7.5c0.5-3.1,0.1-4-2.5-6.5C505.3,342.5,503.1,341.9,499.2,343.5z M465,361.1
		c-0.3,0-3.4,3.9-7,8.6c-10.5,14-13,16.3-18.4,17.7c-3.4,0.9-5.9,1-8.6,0.3c-6.1-1.7-7-0.8-7,7.2c0,13-4.9,28.5-10.5,33.1
		c-2,1.7-1.9,3.3,0.9,15.3c1.3,5.6,2.8,12.9,3.5,16.2c2.6,13.7,3.8,15.4,8.6,12.2c1.1-0.7,6.1-3.1,11-5.1c7.7-3.3,33.8-14.8,40-17.7
		c1.1-0.5,8.1-3.6,15.5-6.8c8.6-3.8,13.4-6.4,13.2-7.3c-2.3-9.2-0.6-23.4,4.3-34.4c1.4-3.1,2.5-6.2,2.5-6.8c0-0.6,0.7-2.4,1.5-4
		c0.9-1.6,1.3-3.1,1.1-3.3c-0.8-0.8-6.1,2.5-9,5.6c-2.9,3.1-3,3.1-11.7,2.7c-7.7-0.3-9.4-0.8-13.1-3.3c-4.9-3.3-8.2-8.7-13-21.5
		C467,365,465.3,361,465,361.1z M526,366.5c-0.5-0.3-4.2,2.4-8.2,6.1c-4,3.7-9.7,9-12.6,11.7c-2.9,2.7-5.1,5.1-4.9,5.3
		c0.6,0.6,6.8-1.7,13.5-5c8.2-4,13.2-9.4,13.2-14C527,368.7,526.6,366.8,526,366.5z M417,386.5c0,0.9-1,3.5-2.2,5.8
		c-1.1,2.3-4.5,9.9-7.4,16.9l-5.3,12.8l3.7,2.5l3.7,2.6l2.3-2.8c3.3-3.9,7.8-14,9.2-20.6c1.1-5.6,0.7-10.9-1.2-16
		C418.7,384.8,417,384.1,417,386.5z M395.2,427.8c-2.5,1.6-6.2,7.7-6.2,10.1c0,1.4,0.8,3.8,1.8,5.2c2.7,4.2,23.5,27.9,24.4,27.9
		c1.4,0,0.9-7.4-1.3-17.1c-1.1-5.2-2.3-11-2.6-12.9c-0.8-4.8-3.8-10.5-6.5-12.4C402.4,426.9,397.3,426.5,395.2,427.8z M513,440.5
		c-9.8-0.8-20,3.2-71.5,28.2l-12,5.8l26,0.3c33.4,0.4,41.8-0.5,54.2-6c12.8-5.6,15.3-8.1,15.3-14.7c0-4.6-0.4-5.6-3.8-9.2
		C518.1,441.5,516.7,440.7,513,440.5z M361,448.1c-6.9,1.1-14.5,2.2-17,2.4c-6.5,0.7-26.7,5-39.5,8.6c-19.5,5.4-38.9,13.3-51.7,21
		c-4.5,2.7-8.3,4.9-8.6,4.9c-0.6,0-11,8.8-16.6,13.9c-7.5,7.1-15.4,17.4-20.2,26.5c-10.4,19.5-11.2,41.1-2.3,62.1
		c11.8,28,27.3,47.3,53.9,67.7c15.3,11.6,23.3,20.1,28.4,29.8c4,7.6,6.6,17.9,6.6,26c0,2.5-0.9,9.9-2,16.5
		c-4.2,25.4-1.2,52.7,8.1,74.5c5.2,12.3,7.4,21.4,7.3,30.7c0,6.1,0.4,9,1.1,8.6c0.5-0.4,6.6-4.5,13.5-9.2
		c21.8-15,34.5-29.7,40.6-47.1c2.3-6.5,2.6-8.6,2.1-16c-0.4-7.8-2.3-14.7-5.9-21.4c-1.9-3.6-3.8-9.8-3.2-10.7
		c0.3-0.5,3.3,1.3,6.7,4.1s6.9,5.7,7.8,6.4c3.9,3.2,15.1,8.6,22.9,11.2c7,2.2,10.4,2.7,19,2.7c19.9,0.1,35.4-7,53.8-24.7
		c3.9-3.8,7.2-7.3,7.2-7.7c0-0.4-1.7-0.8-3.8-0.7c-4.6,0-13.1-2.4-18.8-5.5c-7.9-4.2-12-7.5-22.4-18.1c-10.7-10.9-20.3-18.2-31-23.6
		c-8.6-4.3-20.9-8.7-27-9.5c-5.4-0.7-16.6-4.1-21.2-6.5c-14.1-7-19.5-14.6-30.6-42.5c-7.1-18-15-70-10.1-66.9c0.5,0.3,0.9,4.3,0.9,9
		c0,5.9,0.4,8.6,1.3,8.9c0.6,0.3,13.1,0.9,27.7,1.4c14.6,0.6,31,1.7,36.5,2.6c22.3,3.5,53.8,3.6,73,0.1c4.4-0.8,10-1.8,12.4-2.1
		c7.2-1,26.1-7.3,34.1-11.3c9.5-4.7,21.7-16.1,26.6-24.8c1.9-3.4,4.7-9.5,6.1-13.5c2.4-6.5,2.7-8.9,2.8-19.4
		c0-11.2-0.3-12.8-3.8-23.5c-2.1-6.3-4.1-12-4.5-12.7c-0.5-0.9-3.5-0.3-11,2.2c-17.4,5.8-22.6,6.5-48.4,6.5c-23.3,0-39-1.1-43.8-3.1
		c-1.5-0.5-7.7-6.4-14-13.1c-6.3-6.6-13.2-13.4-15.4-14.9C383.9,444.4,384.2,444.4,361,448.1z"/>
	<path d="M541.3,170.9c2.8,1.3,8.2,5.8,12.6,10.1c8.2,8.4,12.7,10.4,17.7,8.1c3.8-1.7,4-1.3,0.9,1.9c-3.6,3.7-6.6,3.8-12.9,0.5
		c-2.6-1.4-5.1-2.5-5.5-2.5c-0.5,0-1.2,1.7-1.6,3.7c-1,5.3-2.8,8.4-7.4,12.6c-9.6,8.7-22,6.6-28.3-4.8c-3.3-6.1-3.6-12.3-0.9-19.5
		c2.1-5.5,2.3-5.6-6.6,0.7c-3.4,2.3-6.4,4.3-6.8,4.3c-1.2,0,2.5-5.6,5.7-8.6c3.3-3.2,7.6-5.8,13.3-8.1
		C526.1,167.4,535.7,168.2,541.3,170.9z M518.1,186.5c-1.7,6.9,0.1,12.7,5.1,16.8c3.9,3.2,5.8,2.9,5.8-0.8c0-4.7,1.8-7.5,4.7-7.5
		l2.8,0.1l-2.6,1.4c-3.5,1.9-4.1,3.8-2.2,6.4c1,1.5,2.3,2.1,4.1,1.9c2.5-0.3,2.7-0.7,2.7-4.6c0-2.3,0.2-4.2,0.4-4.2
		c0.2,0,1.2,1.1,2.3,2.5c1.1,1.4,2.4,2.5,2.9,2.5c2,0,4.9-6.6,4.9-11.3c0-6.1-2-10-7.2-13.7C532.7,169.4,520.9,174.7,518.1,186.5z"
		/>
	<path d="M465.9,197.4c0.9,1.1,0.5,1.6-1.9,2.6c-3.4,1.4-4.7,4.8-3,7.9c0.8,1.7,0.8,2.1-0.3,2.1c-1.4,0-3.7-4-3.7-6.3
		c0-0.7,1.5-2.6,3.2-4.4C464,195.6,464.3,195.5,465.9,197.4z"/>
	<path d="M450.3,227c0.2,0,2.3,1.9,4.7,4.1c8.5,8.1,12.4,8.8,23.4,4c5.5-2.4,6.3-2.3,4.4,0.9c-4.5,7.3-18.1,8.8-25.7,2.9
		c-3.4-2.7-7.1-7.9-7.1-10.1C450,227.8,450.2,227,450.3,227z"/>
	<path d="M506.6,367c0.2,0,0,0.9-0.6,2s-1.3,2-1.6,2c-0.2,0,0-0.9,0.6-2S506.3,367,506.6,367z"/>
</g>
</svg>
