<?xml version="1.0" encoding="utf-8"?>
<!-- Generator: Adobe Illustrator 21.0.0, SVG Export Plug-In . SVG Version: 6.00 Build 0)  -->
<svg version="1.1"
	 id="svg112" inkscape:version="0.92.2 5c3e80d, 2017-08-06" sodipodi:docname="55 #17536.svg" xmlns:cc="http://creativecommons.org/ns#" xmlns:dc="http://purl.org/dc/elements/1.1/" xmlns:inkscape="http://www.inkscape.org/namespaces/inkscape" xmlns:rdf="http://www.w3.org/1999/02/22-rdf-syntax-ns#" xmlns:sodipodi="http://sodipodi.sourceforge.net/DTD/sodipodi-0.dtd" xmlns:svg="http://www.w3.org/2000/svg"
	 xmlns="http://www.w3.org/2000/svg" xmlns:xlink="http://www.w3.org/1999/xlink" x="0px" y="0px" viewBox="0 0 850 850"
	 style="enable-background:new 0 0 850 850;" xml:space="preserve">
<style type="text/css">
	.st0{fill:none;}
	.st1{fill:#00FF00;}
	.st2{fill:#ADFF2F;}
	.st3{fill:#FF00FF;}
	.st4{fill:#B0E0E6;}
	.st5{fill:#FF6347;}
	.st6{fill:#191970;}
	.st7{fill:#556B2F;}
	.st8{fill:#1E90FF;}
	.st9{fill:#AFEEEE;}
	.st10{fill:#00008B;}
	.st11{fill:#0000FF;}
	.st12{fill:#ADD8E6;}
	.st13{fill:#4169E1;}
</style>
<sodipodi:namedview  bordercolor="#666666" borderopacity="1" gridtolerance="10" guidetolerance="10" id="namedview114" inkscape:current-layer="svg112" inkscape:cx="669.00704" inkscape:cy="938.59191" inkscape:pageopacity="0" inkscape:pageshadow="2" inkscape:window-height="978" inkscape:window-maximized="1" inkscape:window-width="1920" inkscape:window-x="0" inkscape:window-y="1" inkscape:zoom="0.58897835" objecttolerance="10" pagecolor="#ffffff" showgrid="false">
	</sodipodi:namedview>
<g id="g110" transform="translate(0.000000,0.000000) scale(1.00000,1.00000)">
	<path id="path4" class="st0" d="M0,0h217.8C435,0.1,435.5,0.1,430.1,2C419.8,5.7,411,15.7,411,23.7c0,4.9-3.2,6.2-7,2.9
		c-5.4-4.5-11.4-4.5-22.2,0c-6.9,2.9-11,3-15.2,0.5c-10.4-6.4-21.2-3.6-26.6,6.9c-2.5,4.9-2.7,13.6-0.4,16.1c1.5,1.6,1.4,2-0.9,5.1
		c-4,5.2-8.5,15.6-10.3,23.7c-1.4,6.1-1.6,10.8-1.1,24.7l0.5,17.2l-5.4,0.7c-8.1,1-15.8,5.4-26.9,15.6
		c-14.3,13.1-26.4,23.1-34.8,28.7c-7,4.8-43.6,24.6-44.2,24c-0.5-0.7-3.7-11-7-23.2c-4.7-17.3-6.7-21.6-9.9-21.6
		c-5.3,0-8.5,6.9-10.2,22.5c-1,8.9-1.7,9.5-4.3,3.3c-2.7-6.1-4.5-8.4-8.4-10.5c-3.7-1.9-6.1-1-8.7,3.4c-2.5,4.2-2.4,6.6,0.9,27.8
		c3.8,24.5,4.2,26.3,7.1,30.8c2.2,3.5,3.8,4.8,7.6,6.1c5.9,2,15.6,2.1,26.7,0.1c8.9-1.6,33.4-9.7,47.5-15.8l8.2-3.6V220
		c0,6,0.5,16.6,1.1,23.4l1.1,12.4l-4.6,20.4c-6.7,30.2-8.9,43-8.9,54.8c-0.2,18.2,3.6,29.5,11.2,33.4c1.4,0.8,7.9,2.5,14.5,4
		c9.8,2.1,13.4,3.5,21,7.8c5,2.8,9.4,5.6,9.7,6.1c0.3,0.5,1.6,5.4,2.9,11c11,50.1,23.2,84.2,41.6,116.4c20,35.2,47.3,67.7,75.1,89.6
		c8.7,6.8,12.5,10.5,13,12.4c1.1,4.5,0.8,11.8-1.1,28.1c-2.6,21.5-1.9,56,1.4,71.1c4.5,21.4,14.5,44.5,30,70.1
		c17.5,28.9,29.8,41.7,60.3,62.3l9.8,6.7h-272H0V425V0z"/>
	<path id="path6" d="M453.5,0.2c7.5,0,7.7,0.1,3.8,1c-2.7,0.7-5.4,0.7-8,0C445.9,0.3,446.2,0.2,453.5,0.2z"/>
	<path id="path8" class="st0" d="M661.8,0H850v425v425H700.1H550.3l0.4-2.4c0.5-2.6-1.3-8.7-8.7-29.6
		c-22.8-64.1-26.4-123.8-9.4-156.1c8.4-16,21.9-28,43.8-38.9c22-11.1,33.7-14.3,66.4-18.5c34.5-4.4,40.2-5.7,40.2-9.1
		c0-2.1-2.8-3.2-22.8-8.4c-21.8-5.6-26.1-7.2-49.1-17.4c-28.7-12.8-42-16.2-58.6-15.3c-12.9,0.8-19.3,2.8-44,13.9
		c-27,12.2-29.4,13-40,13.5c-11.6,0.6-16.3-1.6-20.7-9.4c-7.3-13-12.5-46.4-11.4-74.2c0.9-22.3,1.8-28.5,8.1-51.6
		c8.9-33.2,9-33.7,9-55c0-16.1-0.4-20.6-2.3-29.7c-2.6-12.1-7.4-27-12-37.1c-8.1-17.7-24.1-39.4-36.8-49.7c-4-3.4-7.5-6.7-7.5-7.3
		c-0.1-0.7-0.2-4.2-0.3-7.9c-0.1-5.9-0.4-7.1-2.8-9.5c-2.6-2.6-3.5-2.8-13.7-3.3c-9.9-0.5-11.1-0.8-14.7-3.4
		c-4.6-3.4-6.6-5.7-9.9-11.2l-2.5-4.1l2-4.4c1.6-3.5,2-6.6,2-15.6V197l2.8,1.1c1.5,0.6,5.1,1,8,1c3.8,0,7.1,0.9,11.7,3.1
		c3.6,1.6,6.7,3.4,7,3.9s1.5,4.3,2.6,8.6c3.8,14.7,7.6,18.9,23.9,26.5c15.6,7.3,18.1,10.2,24.7,29.1c7.3,21.1,13.8,28.9,26.5,32.2
		c2.9,0.8,12.1,2.1,20.5,2.8c17.9,1.7,21.9,3.4,27.1,11.1c4.1,6.2,4.1,8.7-0.3,21.9c-4,12.1-4.1,13.7-1.6,19.3
		c2.2,4.9,7.2,9.2,16.2,13.9c11.2,5.9,12.1,5,8.3-8.3c-2.4-8.8-2.6-10.2-1.6-15.1c1.1-5.3,5.5-13.1,7.4-13.1c0.5,0,3.2,1.9,6.1,4.1
		c9.5,7.6,16.1,9.4,23.2,6.5c4.5-1.9,4.5-4.2,0-8.6c-6.1-5.9-6.4-11.6-1.4-24.2c2.9-7.5,3.6-17.2,1.5-23.5
		c-3.4-10.1-12-17.1-28.3-22.9c-12.8-4.6-18.8-8-22.4-12.5c-8.7-11-9-27.7-0.6-35.6c1.7-1.6,8.4-6.4,14.8-10.6
		c13-8.5,18.5-14,23.1-23.4c3-6.2,3.1-6.9,3-18.4c-0.2-11.8-0.2-11.9,3.2-18.1c5.1-9.4,7-16.8,7-27.8c0-16.1-7.5-35.1-18.1-45.9
		c-4.6-4.6-5.3-5.9-5.4-9.5c-0.1-8.8-4.7-15.9-17.5-27c-5-4.4-10-9.8-11.5-12.5c-5.4-9.3-13.5-15-21.5-15.1c-2.5,0-4.7-0.6-5.4-1.5
		c-2.1-2.5-7-5.7-10.9-7.1C474.1,0.3,506.7,0.1,661.8,0z"/>
	<path id="path10" class="st1" d="M441.5,5.6c1.1,0.2,3.1,0.4,4.3,0.4c2.2,0,2,0.4-2.4,5.2c-5.5,6.2-8.3,11.9-8.4,17v3.7l-3.2-1.1
		c-4.7-1.5-5.1-2.2-4.4-6.3c0.5-2.4,2.2-5.2,5.1-8.1c2.5-2.4,4-4.4,3.3-4.4c-2.4,0-9.6,8.6-10.7,12.8c-1.1,4-1.3,4.2-5.1,4.2
		s-4-0.2-4-3c0-8.3,9.6-17.9,20-20.1C437.9,5.5,440.4,5.4,441.5,5.6z"/>
	<path id="path12" class="st1" d="M477.3,7.4c3.2,1.3,7.4,5.2,6.6,6.1c-0.3,0.2-3.5,0.9-7.3,1.5c-8.6,1.4-11.4,2.8-16.4,8.6
		c-5.6,6.2-8.2,12-8.2,18l-0.1,4.9l-3.4-3.7c-1.9-2-3.7-4.9-4.1-6.3c-1.5-6.1,3.2-13.9,12.1-20.2c4.7-3.4,2-3.9-3.2-0.7
		c-5.4,3.3-11.1,10.3-12,14.5c-0.6,3.4-1.9,3-2.6-0.7c-0.8-4.3,1-8.6,5.9-14.2c5.2-6,7.3-7.3,12.9-8.3C464.5,5.7,474,6,477.3,7.4z"
		/>
	<path id="path14" class="st1" d="M501.8,18.2c2.8,1.7,8.6,8.7,7.9,9.5c-0.2,0.1-2.5-0.5-5.2-1.3c-11-3.4-23.3,0.3-29.7,8.9
		c-4.2,5.8-5.5,9.2-8,20.7c-2.6,12.1-4.5,13.6-3.9,3c0.3-4.6,2.9-13.6,5.3-18.3c1-2.1,1.7-4.4,1.5-5c-0.5-1.4-6,10.2-7.9,16.6
		l-1.3,4.2l-0.3-3.8c-0.8-8.8,5-20.1,13.3-25.9c4.2-3,5.6-4.8,3.7-4.8c-1.5,0-9.9,6.4-12.4,9.5c-3.3,3.9-6.8,10.9-6.8,13.5
		c0,3.3-1.9,2.3-2.6-1.5c-0.9-5,2-11.9,7.4-17.7c4.9-5.2,8.5-6.8,20.7-9.1C492.7,15,497.1,15.3,501.8,18.2z"/>
	<path id="path16" class="st2" d="M504,29.6c6.8,1.6,9.2,3.1,21,13.5c7.9,6.9,12.3,13.5,13.6,20.4l0.7,4l-6.4-5.9
		c-3.9-3.6-9.3-7.3-13.9-9.5c-6.9-3.3-8.2-3.6-16.5-3.5c-7.5,0-10,0.5-14.7,2.6c-7.9,3.6-14,9.6-17,16.6c-4.7,10.9-4.9,11.2-4.3,6.9
		c0.7-4.6,6.5-18.4,9.4-22.6c2.9-4.1,16.1-12.2,21-12.8c3.1-0.4,5.6,0.3,12.8,3.6c12.5,5.7,13.9,5,1.9-1
		c-12.9-6.4-15.5-6.4-25.8-0.4c-4.1,2.4-9.2,6.3-11.2,8.6c-2,2.4-3.6,4-3.6,3.7s0.9-3.6,2.1-7.3c2.6-8.4,8.4-14.7,15.6-16.9
		C494.9,27.7,496.2,27.7,504,29.6z"/>
	<path id="path18" class="st3" d="M366.8,35.7c0.2,1.6-0.7,2.2-5.6,3.6c-3.4,0.9-8.1,3.3-10.8,5.3c-4.5,3.4-4.8,3.5-6.1,1.8
		c-3.3-4.5,1.1-14.1,7.7-16.7C356.8,27.7,366.2,31.6,366.8,35.7z"/>
	<path id="path20" class="st1" d="M400.7,30.6c0.3,0.9,0,2-0.8,2.5c-2.1,1.3-2.6,1.1-3.2-1.1c-0.8-3-3.5-2.6-3,0.4
		c0.4,1.8-0.1,2.7-1.7,3.6c-2.6,1.4-20,2.6-20,1.4c0-0.5,3.9-2.6,8.8-4.6C390.6,28.6,399.5,27.6,400.7,30.6z"/>
	<path id="path22" class="st4" d="M432,33.7c4,1.3,6.3,2.9,10.1,7.2c2.7,3.1,6.5,6.7,8.4,8.1c2.9,2,4.4,4.5,8,13.5
		c3.1,7.6,4.5,12.5,4.5,15.8s0.9,6.4,2.9,10.2c2.4,4.6,2.8,6.1,2.1,8.6c-1.9,6.7-8.4,12.6-18.7,17c-2.5,1-4.6,1.9-4.8,1.9
		c-0.2,0-0.1-2.6,0.2-5.9c0.3-3.4,0-7.3-0.7-9.5c-1.8-5.4-6.6-10.6-9.9-10.6c-4.7,0-5.3,1.8-2.2,6.4c8,11.7,8.3,16.3,1.8,29.1
		c-4.4,8.9-6.5,17.3-8.2,32.5c-0.4,3-1.2,5.8-1.8,6.2c-0.7,0.4-3.5,0.8-6.4,0.8s-7.4,0.5-10.1,1.1c-5.2,1.1-15.3,6.5-15.9,8.6
		c-0.3,0.7,2.8,2.7,6.9,4.6c10.2,4.8,12.6,7.9,10.2,13.5c-2,4.9-8.8,7.6-17.3,7c-3.6-0.3-8.3-1.3-10.4-2.1l-3.9-1.7l2.9-4
		c2-2.9,3.5-4,5.4-4c1.5,0,4.2-0.6,6-1.4c5.8-2.5,10.8,2,7.9,7.3c-1.6,3.1,1.5,2.8,3.6-0.4c2-3,1.2-5.7-2.7-9
		c-3.5-2.9-6.9-3.2-10.9-0.9c-3.7,2.3-6,1.2-6-2.6c0-10.6-11.9-19.8-22.2-17.2c-4.1,1.1-4.4,1-6.5-1.6c-3.7-4.6-11.1-17.6-14.3-24.9
		c-5.1-12.2-7.4-24-7.3-39.3c0.1-21.7,4.4-34.3,15.7-45.6c9.4-9.4,12.7-10.8,27.1-11.1c11.9-0.4,12-0.4,8.6,1.3
		c-1.8,1-4.4,3.5-5.8,5.6c-2.2,3.2-2.5,4.6-2.1,9.6c1.3,18.7,23.6,20.8,29.4,2.8c0.9-2.8,2.3-5.8,3-6.6c2.7-2.8,1.7,5.7-1.3,10.7
		c-2.3,3.9-2.4,4.5-0.8,4.2c2.7-0.6,5.5-6.7,5.5-12.1c0-3.6,0.4-4.8,1.8-5.1c1.4-0.4,1.3-0.6-0.6-1.2c-3-1-5.6-5.7-3.9-7.4
		c0.8-0.8,0.4-1.1-1.9-1.1c-1.7,0-3.9-0.6-4.9-1.4c-1.6-1.2-1.7-1.6-0.6-3c2.1-2.5,8.4-4.1,10.9-2.7c5.2,2.8,9.1,11.4,9.2,20.3
		c0,4.2,1.2,4.7,4.8,2.2c4.8-3.3,2-16-4.8-21.7c-1.6-1.4-3-2.8-3-3.1C419,31.4,427,32.1,432,33.7z M360.8,78.7
		c-0.7,1.6-2.3,4.2-3.5,5.9c-1.2,1.7-2.4,4-2.6,5.2c-0.2,1.1-1.5,3.2-3,4.6c-3.8,3.5-3.6,7.5,0.5,12.2c4,4.5,8.2,6.4,14.3,6.4
		c4.5,0,4.5,0,4.5,3.5s1.9,5,2.2,1.7c0.4-5.4-0.9-12.5-2.2-11.7c-1.3,0.8-5.6-5.3-7.4-10.8c-1.8-5.4-2.1-11.6-0.7-16.5
		C364.1,75.2,362.5,74.8,360.8,78.7z M388.3,105.9c-2.9,5.6-2.9,10.6,0,16.2c3.1,5.9,7.7,8.9,13.6,8.9c5.7,0,10.1-2.6,13.7-8
		c1.7-2.5,3.1-3.7,3.7-3.1c1.2,1.2-0.6,4.4-3.9,7c-1.5,1.2-2.4,2.4-2.1,2.8c1.4,1.3,5.8-1.8,7.4-5.2c1-2.1,2.2-3.4,3-3.1
		c1.5,0.6,1.8-1,0.3-1.9c-0.5-0.3-1-2.6-1-5.1c0-4.2,0.2-4.5,2.3-3.9c2.1,0.6,2.1,0.5-0.4-1.7c-4.5-3.9-6.3-8.8-3.2-8.8
		c3.3,0,0.3-1.3-3.5-1.5c-3.4-0.2-3.9,0-3.5,1.6c0.7,2.4-0.1,2.4-3.6-0.2C403.9,94.6,392.6,97.6,388.3,105.9z"/>
	<path id="path24" class="st5" d="M360,92c0,1.4,1.2,5,2.6,7.9c2.4,5.3,2.4,5.4,0.3,3.5c-4.1-3.6-7.4-13.6-5.2-15.7
		C358.7,86.7,360,89.1,360,92z"/>
	<path id="path26" class="st5" d="M356.7,99.3c1.4,2.3,3.8,5.7,5.6,7.4c2.5,2.7,2.8,3.3,1.3,3.3c-2.8,0-8.5-3-10.1-5.4
		c-1.8-2.5-1.9-6.8-0.3-8.4C354.1,95.3,354.9,96,356.7,99.3z"/>
	<path id="path28" class="st6" d="M407.6,101.6c3.5,1.7,7.4,8.1,7.4,12.2c0,9.5-10.2,16.7-17.9,12.8c-9.5-5-9.4-21,0.2-25.1
		C401.5,99.6,403.5,99.7,407.6,101.6z M401.8,110.1c-4.6,0.1-5.6,0.7-7.4,4.1c-3.1,6.1,0.6,11.8,7.7,11.8s10.5-8.5,5.4-13.5
		C405.9,110.8,404,110,401.8,110.1z"/>
	<path id="path30" class="st6" d="M406,116.5c1.7,2.1,0.3,5.7-2.2,5.3c-3-0.4-4.5-3.2-2.9-5.2C402.6,114.6,404.4,114.6,406,116.5z"
		/>
	<path id="path32" class="st7" d="M418.5,104.4c1.9,2.5,1.9,3.6,0,3.6c-1,0-1.5-1-1.5-2.8C417.1,102.6,417.1,102.6,418.5,104.4z"/>
	<path id="path34" class="st7" d="M421,113.6c0,2.4-0.4,3.4-1.2,3.2c-1.8-0.6-2.2-3.6-0.8-5.3C420.8,109.4,421,109.6,421,113.6z"/>
	<path id="path36" class="st7" d="M417.8,35c1.2,0,2.6,1.9,1.9,2.6c-0.2,0.2-1-0.2-1.7-1.1C417.2,35.6,417.2,35,417.8,35z"/>
	<path id="path38" class="st7" d="M398,38.7c-0.1,2.1-1.8,3-5,2.5l-3.5-0.5l3.5-1.3C397.2,37.9,398,37.8,398,38.7z"/>
	<path id="path40" class="st7" d="M401.8,42.2c1,0.7,1.9,1.3,2.1,1.5c0.1,0.1,0,0.7-0.4,1.3c-0.5,0.8-1.3,0.6-2.6-0.6
		c-1-0.9-1.6-2.1-1.3-2.6C399.9,41.3,400.9,41.5,401.8,42.2z"/>
	<path id="path42" class="st6" d="M398.5,47.3c1.9,1.9,3.7,4.6,4.1,6c0.9,4-0.4,9.3-3.1,12.4l-2.4,2.8l0.6-3.7
		c1.1-7-4.6-11.5-10.6-8.3c-3.4,1.7-4.6,4.5-3.6,8.2c0.5,2.3,0.4,2.5-0.9,1.4c-2.3-1.9-3.9-7.8-3.2-11.6c0.8-3.9,4-8.3,7-9.5
		C391.1,43.1,395.1,43.9,398.5,47.3z"/>
	<path id="path44" class="st7" d="M407.8,48.4c1.1,2.5,0.7,3.6-1.5,3.6c-0.8,0-1.3-1.2-1.3-3C405,45.4,406.3,45.1,407.8,48.4z"/>
	<path id="path46" class="st2" d="M504,52.3c11.3,0.3,17.3,3.2,29.4,14.4c5,4.6,11,10.2,13.4,12.4c5,4.6,11,16.5,13.6,27.1
		c1.8,7.6,2.1,19.4,0.6,25.3c-1.6,6.1-4.1,12.5-4.8,12.5c-0.4,0-1.5-3.6-2.5-8c-6.7-29.9-32.4-49.9-64.1-50h-9.1l2.5-2.1
		c4.4-3.6,12.3-6.9,16.7-6.9c4.5,0,12.8,2.8,23.3,7.9c4.6,2.2,8.2,5.1,12.6,9.9c3.4,3.8,7.8,7.9,9.7,9.2c4.1,2.8,7.2,7.8,8.2,13.3
		c0.4,2,1.1,4,1.6,4.3c1.3,0.8,1.1-0.7-1-7.5c-1.7-5.6-2.9-7.1-13.9-17.9c-11.1-10.9-12.6-12-21.8-16.1c-17-7.6-25.5-6.9-39,3.5
		c-4.1,3.1-7.7,5.5-7.9,5.2c-0.8-0.8,3.1-9.4,6.5-14.3c6.9-10,21.4-12.8,34.6-6.6c3.7,1.7,8.7,4.7,11,6.6c5.3,4.3,7.8,4.6,3.8,0.4
		c-8.3-8.8-19.7-13.3-31.5-12.7c-11.6,0.7-17.7,4.8-23.5,15.8c-1.6,3-3,5.7-3.2,5.9c-0.1,0.2-0.4,0.2-0.7-0.1
		c-0.3-0.3,0.9-4.3,2.6-8.9c4.5-11.7,11.3-18.6,21.9-22C494.4,52.4,499.3,52.2,504,52.3z"/>
	<path id="path48" class="st6" d="M395,63.6c0,2.9-2.4,4.1-4.5,2.4c-1.9-1.6-1.9-2.5,0-4.4C392.6,59.6,395,60.7,395,63.6z"/>
	<path id="path50" class="st2" d="M510,92c14.3,4.8,28.1,16.2,34.7,28.5c5.8,11,7.3,18.8,7.3,38.1v17.1l-3.5,7.1
		c-2.4,4.6-5.4,8.7-8.9,11.9c-5,4.6-25.3,17.9-26.1,17.1c-0.2-0.2,3.7-6,8.6-12.8c10.4-14.5,11.7-16.7,13.5-23.5
		c2.6-9.6,1.2-23.4-4.5-43.1c-4.2-14.6-7.1-19.8-14.6-26c-4.6-3.8-21.9-11.8-23.9-11.1c-0.6,0.3,0.3,1,1.9,1.7
		c16.7,7,25.2,13.4,29.8,22.5c1.4,2.8,4.2,11.8,6.3,20c4.6,18,5.2,29.6,2,38.2c-1.7,4.6-19.3,29.9-20.2,29.1
		c-0.1-0.2,0.6-5.5,1.7-11.8c4.3-24.3-1.3-44.9-16.7-61.5c-8.1-8.8-8.4-6.4-0.3,3.4c7.4,9.2,10.2,14.5,13.1,25.3
		c3.5,13.2,3,22.2-2.7,47.3c-5.3,23.8-5.5,29.1-1.2,38.7c3,6.7,10.3,14.4,16.7,17.5c2.5,1.3,9.3,4.1,15.2,6.3
		c17.7,6.8,25,14.3,25,25.8c0,3.1-0.6,7-1.2,8.7c-0.7,1.6-2.3,7-3.5,12l-2.4,9l-0.1-14.6c0-14.9-1.1-21.4-4.5-26.5
		c-2.6-4-2.9-2-0.3,2.8c2.1,4,2.3,5.9,2.8,25.3c0.3,13.9,1,21.7,1.8,23.2c0.6,1.2,1.2,2.5,1.2,2.8c0,1.4-8.1-4-12-7.9l-4-4.2
		l2.5-6.3c4.7-11.4,4.9-25.9,0.6-35.5c-2.2-5-7.7-11.6-9.7-11.6c-2.2,0-1.7,1.4,1.5,4.4c7,6.7,10.1,23.2,6.6,35.2
		c-1.8,6.3-7.1,15.8-10.5,18.9c-2.7,2.4-2.6,1.9,1.2-6.1c5.7-12.1,4.6-24.6-3.1-36.5c-3.3-5.1-18.1-19.9-18.1-18.2
		c0,0.7,3.6,5,7.9,9.7c8.4,8.9,10.9,12.9,13.5,21.5c2.6,8.7,2.1,12.5-2.9,23.6c-6.4,14.1-6.7,15.6-5.4,27.5
		c0.6,5.6,0.9,10.4,0.6,10.7c-0.3,0.2-1.9-1.4-3.6-3.7c-4.7-6.4-4.8-10.7-1-25.6c3.7-14.6,4.2-24,1.6-29c-0.9-1.7-5-6.8-9.1-11.3
		c-7.7-8.4-10.6-14.2-10.6-21.3c0-4.7-3.3-11.9-10.3-22c-7.6-11.2-9.7-17.1-9.7-27.8c0-6.2,0.7-9.6,3.5-17.8c3-8.7,3.6-11.6,3.6-19
		c0-12.1-3.9-22.9-10.6-29.2c-3.5-3.3-3.1-1.3,1,5.6c7.9,13,8.8,25.1,3.2,40.4c-1.9,5.3-3.8,11.8-4.1,14.5
		c-1.5,10.8,2.7,24.9,10.5,35.2c6.8,8.9,8.7,13.1,9.9,21.3c1.4,9.8,2.9,12.9,10.3,20.8c12,12.7,13.4,19.3,8.2,36.7
		c-3.2,10.7-4.2,19.1-2.7,23.4c1.4,4-0.2,4.1-2.3,0.1c-2.3-4.4-1.8-9.1,1.6-17.7c4.6-11.5,4.5-16.5-0.9-27.8
		c-2.4-4.9-5.8-10.8-7.6-13c-1.8-2.2-6-8.3-9.3-13.6c-3.4-5.3-8.6-13-11.7-17c-7.7-10.1-11.4-17.9-12.5-26.4
		c-0.5-3.9-1.8-9.3-2.9-12c-3.2-8.2-3.6-15-1.6-30.4c1.6-13.3,1.7-14.3,0-23.3c-2.1-11-2.6-13.1-3.3-12.5c-0.2,0.3,0.3,5.5,1.3,11.6
		c1.6,10.4,1.6,11.8,0,21.8c-2.3,15.1-2.1,22.4,0.9,32.4c1.4,4.6,3,11.3,3.6,14.9c1.4,8.9,4.3,14.8,12.8,26
		c7.7,10.1,14.6,20.8,13.9,21.5c-0.3,0.3-3.8-0.7-8-2c-9.2-3.1-11.8-5.8-14.8-14.9c-3.1-9.6-6.4-12.8-18-17.5
		c-5.2-2.2-10.8-5.1-12.6-6.4c-3.7-3.1-6.7-9.1-8.4-17.2c-2-9.1-4.5-12.9-11.9-18c-7.8-5.2-15.1-12-15.1-14c0-0.8,0.9-3.3,2.1-5.5
		c1.6-3,1.9-5,1.5-7.5c-0.6-2.8-0.4-3.5,0.9-3.5c0.9,0,1.5,0.9,1.5,2.2c0,4.5,4.2,10.8,11.7,17.5c8.6,7.6,11,11.9,12,21.4
		c0.4,3.7,0.9,5.6,1.3,4.5c0.9-2.8-0.5-13.8-2.4-17.8c-0.9-1.9-5.1-6.6-9.3-10.4c-7-6.3-12-13.5-10.7-15.6c0.3-0.4,1.6-0.5,2.9-0.2
		c1.2,0.3,2.6,0.1,2.9-0.5c0.4-0.6-0.5-1.3-2.1-1.6c-3-0.7-20.8-7.9-23.3-9.5c-3.2-2,15.3-8,25-8c2.3,0,2.7,0.7,4.2,7.2
		c1.3,5,4.1,11.2,9.8,21.2c4.4,7.8,8.8,16.6,9.7,19.6c1.5,5.1,1.5,6.2-0.1,15.5c-1.7,10.6-1.2,15.8,1.6,16.3c1.5,0.3,3-2.2,5.9-9.3
		c0.6-1.7,1.3-2.6,1.4-2c0.2,0.5,1.1,3.6,2,6.9c1.4,5,2.7,6.9,9.1,13.3c5.2,5.2,8.5,9.6,11,14.6c3.7,7.3,6.9,11.7,8.7,11.7
		c0.6,0,0.1-1-1-2.3c-1.2-1.2-3.8-5.8-5.7-10.1c-2.9-6.3-5.1-9.4-11-15.1c-10.5-10.2-12-15.3-10.1-34.7c0.9-9.2-0.1-12.9-7.7-29.1
		l-5.1-10.8l1.6-3.5c2.4-5,2-7.7-0.4-3c-2.5,4.6-3,4.1-5.5-5.2c-1.7-6.2-1.7-6.3,0.5-8.6c1.3-1.4,4.3-6.2,6.7-10.8
		c2.5-4.5,4.2-7.2,3.8-5.8c-4.1,14.4-3,27,2.8,32.9c1.8,1.8,4.1,3.1,5.5,3.1c2.1,0,2.3-0.3,1.6-2.3c-0.4-1.2-0.8-6.3-0.8-11.2
		c0-8.1,0.3-9.6,3.2-15.5c1.8-3.6,4.3-7.9,5.7-9.5l2.4-3l1,2.6c0.6,1.5,3.8,5.7,7.2,9.5c7,7.9,11.4,16,13,24.1
		c1.5,6.9,0.9,22.4-1.5,38.8c-2.1,14.9-1.6,24.8,1.7,30.7c1.3,2.3,2.9,4.4,3.7,4.6c1,0.3,0.7-0.5-0.7-2.5c-4.9-6.9-5.2-17.1-1.1-44
		c3.6-24.2,0.1-38.2-13.2-52.9c-4.9-5.4-7.9-10.2-7.9-12.6c0-0.7,1.1-4,2.5-7.3c2.8-6.9,3.1-12.1,1-19.1c-1.8-5.9-1-6.7,5.7-6
		c10.6,1.1,23.1,10,28.5,20.3c1.7,3.2,4.6,10.1,6.3,15.3c1.8,5.2,3.6,9.9,4.1,10.4c3.6,3.9-5.5-24.2-10.2-31.6
		c-7.4-11.5-24.8-20-35.5-17.4c-2.5,0.7-2.6,0.9-2,5.4c1.8,12.6,1.8,14.2,0.3,18.7c-0.9,2.5-4.2,8.3-7.3,12.7
		c-8,11.5-10.7,18.4-10.8,28c-0.1,4.3-0.4,7.8-0.8,7.8c-1.2,0-3.8-9.4-3.8-14.1c0-11.4,3.4-20.2,10.9-28.3c5.5-5.9,8.1-9.5,8.1-11.3
		c0-2.3-1.4-1.3-4.2,2.7c-1.8,2.6-4.8,5-9,7.1c-10.9,5.5-15.4,9.4-18.9,16.4c-5.8,11.9-4.1,23,7.1,45.5c6.4,12.8,9,20.4,9,26.3
		c0,3.8-5.4,21.2-7.1,23.2c-1.2,1.3-1.2,0.3,0.6-9c2.3-12,0.9-18.1-10-43c-2.9-6.6-5.9-14.7-6.5-18c-1.5-7.5-0.6-18.3,2-24.3
		c2.4-5.5,1.9-6.7-0.9-2.1c-3,4.9-4.4,13.3-3.8,22.4c0.3,4.6,0.1,6.9-0.3,5.5c-1.3-4-1-18.9,0.4-26.3c1.8-9.1,4.3-11.6,19.1-18.7
		c6.6-3.1,13.4-6.9,15.1-8.3c3.4-2.9,6.8-9,6.1-11c-0.3-0.7-0.9,0-1.5,1.4c-2.3,5.7-7,9.6-17,13.9c-5.3,2.3-11.7,5.4-14.1,6.7
		l-4.3,2.5l1.8-3.2c2.3-3.8,7.2-7.4,17.4-12.5c12.9-6.4,17-10.7,19.4-20.3c1.1-4.2,1.6-4.8,5.2-5.9C483.7,88.3,502,89.3,510,92z"/>
	<path id="path52" class="st4" d="M327.3,126c4.9,0,4.9,1.5-0.7,12.6c-2.5,4.9-4.3,9.1-4,9.3c1,1,5.4-4.6,8.2-10.3l3-6l6.5,13.5
		c3.7,7.4,8.1,15.5,10,18l3.4,4.4l-2.5,3.3c-3.3,4.3-4.1,12.2-1.8,17.7c1.8,4.3,1.4,5.2-3.1,6.1l-3.1,0.6l0.2-6.3
		c0.1-5.4-0.4-7.2-2.9-11.4c-3.3-5.6-4.9-4.1-1.9,1.7c2.3,4.3,2.2,12.8-0.3,19.3c-1.1,2.7-7.1,13.3-13.5,23.5
		c-17.8,28.4-21.3,36.6-26.3,60.5c-5.4,25.6-6.1,27.5-11.8,32.8c-5.2,4.8-17.4,11.7-20.8,11.7c-1,0-2.5,1-3.3,2.2
		c-0.9,1.2-1.7,2-1.9,1.7c-1-1.1,1.7-22.2,4.9-38.3c4.9-24.7,9.2-38.8,16.7-54.6c3.6-7.4,9.1-19.8,12.2-27.5
		c7.9-19.1,10.9-24.9,15.8-30.2c4.4-4.8,8.9-7.3,13.2-7.3c1.4,0,2.5-0.5,2.5-1c0-1.5-6.8-1.2-10.4,0.5c-1.7,0.8-4.4,2.7-5.9,4.1
		c-2.4,2.2-3,2.4-4.4,1.2c-3.3-2.7-5.3-9-5.3-17.1v-7.9l4.6-5.4c2.6-3,4.4-5.7,4.1-6.1c-0.9-0.8-27.3,24.3-30.7,29.2
		c-4.1,6-7.6,15-9,23.5c-0.7,4.1-1.8,8-2.4,8.7c-3.1,3.4-43.9,18.3-56.5,20.7c-4.6,0.9-11.8,1.6-16.2,1.6c-6.7,0-8.2-0.3-10.4-2.3
		c-3.9-3.4-6.5-12.4-7.6-26.1c-0.5-6.7-1.6-15.1-2.4-18.8c-3-13.6-1.2-14.3,6.7-2.4c3.1,4.7,5.8,9,6.1,9.8c0.8,1.9,5.5-3.9,6.6-8.2
		c0.5-1.9,1.6-8.2,2.5-14c1.8-11.4,2.7-13.5,4.6-9.9c0.9,1.6,1.1,6.8,0.8,18.1c-0.3,10.6-0.1,15.7,0.6,15.5
		c1.8-0.6,2.7-6.1,2.2-13.5c-0.3-4-0.2-7.1,0.3-6.8c1.6,1,3.1,9.4,3.1,17c0,7.5,0.9,9.3,2.9,5.8c0.9-1.4,1-1.3,1.1,1.1
		c0,2.4-0.7,3.1-4.7,4.9c-2.5,1.1-7.5,2.9-11.1,3.9c-8.5,2.4-9.1,3.3-1.6,2.6c8.1-0.7,19.9-5.4,46.9-18.7
		c24.6-12.2,30.1-15.9,51.2-35c17.3-15.7,20.2-17.9,26.6-20.1C321.2,126.9,325.2,126.1,327.3,126z"/>
	<path id="path54" class="st1" d="M445.7,147.1c-2.5,4.8-4.3,7.4-4.5,6.4c-0.5-2.2,1.6-7.2,4.6-11.3
		C450.1,136.5,450,138.8,445.7,147.1z"/>
	<path id="path56" class="st8" d="M295.5,156.8l1.1,7.4c1.3,8,2.3,10.8,5.3,15.2l2,2.9l-3.9,7.6c-2,4.2-6.3,13.9-9.5,21.6
		c-3.1,7.7-6,14.3-6.4,14.8c-1,1-8-1.9-10.8-4.6c-2.1-1.8-2.3-3-2.3-11.1c0-5,0.9-13.2,1.9-18.1c2.6-12.7,6.8-20.5,15.5-28.8
		L295.5,156.8z"/>
	<path id="path58" class="st3" d="M377,173.5c4.3,7,3.4,15-2.2,18.9c-3.1,2.2-12.4,2.1-16.7-0.2c-3.7-2-7.1-7.3-7.1-11
		c0-5.7,5.9-13.2,11.5-14.5C367.5,165.6,374,168.6,377,173.5z"/>
	<path id="path60" class="st8" d="M348.8,197.1c1.6-0.1,1.7,19.7,0,23.3c-1.3,2.9-7.9,5.8-17.3,7.5c-3.2,0.6-6,1.1-6.2,1.1
		c-1,0,0.5-2.9,7-13.2c3.9-6.4,7.9-13,8.9-14.6c0.9-1.7,2.7-3.2,4-3.5C346.4,197.5,348.1,197.2,348.8,197.1z"/>
	<path id="path62" class="st1" d="M405.5,202.7c2.8,4.5,7.7,9.1,14.8,14c8.7,6.2,10.7,9.2,13.1,19.7c2,8.6,3.5,11.3,8.8,16.2
		c3,2.8,7.4,5.2,14.1,7.8c11.2,4.3,12.8,6,15.7,15.8c3.1,10.2,6.2,13.2,17.2,16.5c6.6,2,10,3.6,13.1,6.4c2.3,2,3.9,4,3.6,4.3
		c-0.3,0.3-2.3-0.1-4.5-0.9c-2.1-0.7-9.2-3-15.6-5c-15.4-4.8-18.1-6.9-24.3-18.4c-5-9.4-7.5-12.1-15.1-15.9
		c-5.9-3-11.1-9.3-18.4-22.7c-6.5-11.6-8.4-14.2-17.6-22.5c-2.7-2.5-6.2-6.9-7.7-9.8l-2.8-5.2l2.3-0.9
		C403.9,201.4,404.7,201.6,405.5,202.7z"/>
	<path id="path64" class="st1" d="M393.2,203c4.4,0,4.5,0.1,6.8,5.2c1.6,3.7,4.9,7.8,10.6,13.3c7.2,7.1,14.4,16.3,14.4,18.7
		c0,0.5-1.7,0-3.7-1.1c-2.1-1-7.3-3.3-11.6-5.1c-9.4-3.9-14.1-8.8-16.2-17c-1.6-5.6-2.7-9.1-4-12.3C388.9,203.2,389.4,203,393.2,203
		z"/>
	<path id="path66" class="st9" d="M272.4,226c1.6,0,9.6,4.1,9.6,4.9c0,0.6-1.9,4.8-4.2,9.3l-4.3,8.3l-0.7-4.5
		c-0.3-2.5-0.7-7.5-0.7-11.3C272,229,272.2,226,272.4,226z"/>
	<path id="path68" class="st9" d="M343.7,228.1c0.7-0.1,2.4,2.3,3.8,5.2c2.9,6.2,10.2,14,15.6,16.7c2.1,1.1,4,2.4,4.4,3
		c1.1,1.8-2.5,6.9-7.7,11.1c-12.2,9.6-31.4,16.7-48.2,17.6l-9.8,0.6l0.7-3.4c1.4-7.3,7-22.8,11.2-31.4c6-12,8.7-15.5,12.1-15.5
		c1.5,0,5.9-0.9,9.7-1.9C339.4,229,343,228.1,343.7,228.1z"/>
	<path id="path70" class="st10" d="M379.7,252c5.5,0,6.4,0.3,8.3,2.7c2.3,3,2.3,8.1-0.1,10.9c-0.9,1.1-1.6,0.8-4.1-1.6
		c-1.6-1.6-4.8-3.5-7.1-4.1c-2.3-0.6-4.8-1.3-5.5-1.5c-1.5-0.4-0.7-4.4,1.2-5.6C373,252.4,376.3,252,379.7,252z"/>
	<path id="path72" class="st2" d="M438.4,261c0.3,0,3.2,1.6,6.5,3.6c7.5,4.5,11.4,8.8,15.3,17.1c3.6,7.4,8.8,12.3,16.2,15.3l5.1,2.1
		l-8.1-0.5c-17.4-0.9-24.3-7.6-33.3-31.9C439,263.6,438.2,261,438.4,261z"/>
	<path id="path74" class="st8" d="M382.6,267.5c1.8,2.7,1.8,2.8-0.6,4.7c-1.4,1.1-4.7,3.1-7.4,4.5c-3.9,2-5.1,2.2-5.4,1.2
		c-0.3-0.8-2.4-3.3-4.8-5.6l-4.3-4.2l3.7-3.1C369.5,260.3,378.7,261.5,382.6,267.5z"/>
	<path id="path76" class="st10" d="M359.1,271c2.9,1.6,6.9,7,6.9,9.4c0,3.4-5.3,7.7-12,9.6c-2.4,0.7-2.9,0.5-3.4-1.3
		c-0.3-1.2-0.6-3.1-0.6-4.2c0-1.1-0.7-3.3-1.5-4.9c-0.8-1.5-1.5-3-1.5-3.2c0-0.2,2.3-1.7,5.2-3.3C355.9,270.9,357.8,270.4,359.1,271
		z"/>
	<path id="path78" class="st11" d="M389.3,271c0.4,0,4.7,3.5,9.5,7.9c14,12.5,24.2,26.2,33.4,44.6c8.6,17.2,12.9,32,15.4,52.7
		c2.4,20.8,1.1,32.2-8,66.4c-8.2,30.9-8.9,36.6-8.3,67.2c0.4,22.7,0.8,27.2,3.1,38.1c4.5,21.7,8.9,32.3,18.1,43.5
		c2,2.5,12.1,10.9,22.3,18.7c10.3,7.9,21.2,16.3,24.2,18.7c8.8,7.1,15,17.2,10.5,17.2c-0.8,0-8.8-4.9-17.8-10.9
		c-8.9-6-22.9-15.3-31.2-20.6c-21.4-13.9-29.9-20.8-47.5-38.4c-30.6-30.8-52.1-62.9-69.9-104.8c-9.3-22-13.1-34.7-22.7-75.3
		l-3.6-15.5l2.1-1.4c3.3-2.1,2.5-4.6-2.8-9.2c-2.8-2.4-4.8-4.6-4.6-4.9c0.2-0.3,4.2,0,8.8,0.8c7.4,1.2,8.8,1.2,12-0.2
		c6.8-2.8,4.3-7.3-5.8-10.1c-3.3-1-6.4-2.1-6.8-2.5c-0.4-0.4,3.4-1,8.6-1.3c5.2-0.4,10.6-1.2,12.1-1.8c4.8-2.2,4.3-7-1-8.3
		c-2.3-0.6-2.3-0.8-0.9-3c1.4-2.1,1.4-2.5-0.2-4.5c-1.6-1.9-3.1-2.1-16.3-2.6c-20.3-0.8-20.2-0.8-22.9-5.5c-2.1-3.7-2.1-4.1-0.6-6.4
		c2.1-3.2,1.6-6.8-1.1-8.1c-2-1-2-1.2-0.6-6.3c1.2-4.2,1.8-5.2,3.1-4.7c0.9,0.4,8.4,0.9,16.7,1.2l15.1,0.6l9-4.2
		c4.9-2.2,9.6-4.1,10.5-4.1c3.8,0,11.2-3.6,15.6-7.5c2.6-2.4,7.5-5.9,10.8-7.9c3.3-1.9,7.1-4.4,8.5-5.5
		C387.4,272,388.8,271.1,389.3,271z M367.5,303.2c-0.8,2.6-1.6,3.4-3.8,3.6c-1.8,0.2-3.1,1.1-3.7,2.7c-1.2,3.1-2.8,3.9-4.5,2.5
		c-1.2-1-1.5-0.9-1.5,0.8c0,4,5.7,3.5,8-0.8c0.6-1.1,1.7-2,2.4-2c2.1,0,5.6-4.5,5.6-7.3C370,299,368.6,299.3,367.5,303.2z
		 M398.4,305.6c0.9,3.6-0.9,5.4-5.5,5.4c-2.7,0-3.9,0.4-3.9,1.4c0,0.8-1.1,2.7-2.4,4.3c-2.3,2.7-2.5,2.7-4.3,1
		c-2.4-2.1-3.3-2.2-3.3-0.2s3.7,3.8,6.5,3.1c1.3-0.3,3.3-2,4.5-3.6c1.2-1.7,2.8-3,3.5-3c5,0,9.4-5.4,7.5-9.1
		C399.4,302.1,397.7,302.5,398.4,305.6z M407.2,340.8c-0.7-0.7-1.2-0.3-1.7,1.2c-0.6,2-1.2,2.2-5,1.6l-4.4-0.5l-0.3,3.7
		c-0.3,3.7-0.3,3.7-5,3.7c-3.2,0-5.3,0.6-6.8,2c-1.7,1.6-2.4,1.7-4,0.7c-2.5-1.6-3-1.5-3,0.3c0,0.8,0.9,1.9,2.1,2.5
		c1.6,0.9,2.6,0.8,4.7-0.6c1.7-1.1,4.2-1.7,6.9-1.5c4.4,0.2,8.3-2.3,8.3-5.4c0-1,1-1.5,3-1.5c2.1,0,3.5-0.8,4.6-2.6
		C407.8,342.7,408,341.6,407.2,340.8z M433.6,373.5c-0.9,3.6-4.7,5.1-9.1,3.8c-3.3-1-3.5-1-4.1,1.3c-0.9,3.4-3.6,4.7-6,2.9
		c-2.4-1.8-3.4-1.9-3.4,0c0,1.7,3,3.5,6,3.5c1.1,0,3.1-1.1,4.4-2.5c1.8-1.9,3.3-2.5,6.5-2.5c4.5,0,8.1-2.6,8.1-5.9
		C436,371.1,434.3,370.7,433.6,373.5z M426.6,412.4c-0.8,3.2-3.2,3.9-6.2,1.9c-2.2-1.4-2.7-1.4-3.5-0.2c-0.5,0.8-0.9,1.9-0.9,2.5
		c0,2.3-2.7,3.6-4.9,2.5c-1.6-0.9-2.5-0.7-4.6,1.5c-3.2,3.2-2.5,4.2,1.8,2.6c1.9-0.7,4.1-1.2,5-1.2c1,0,2.7-1.1,3.8-2.4
		c1.7-1.9,2.8-2.3,5.4-1.9c2.6,0.4,3.6,0.1,4.9-1.8c0.9-1.3,1.6-3.1,1.6-4.1C429,409.2,427.3,409.6,426.6,412.4z M420.8,450.2
		c-0.2,1.7-0.9,2.3-2.8,2.2c-1.4-0.1-3.2-0.4-4.1-0.8c-1.1-0.5-1.9,0.1-2.7,2c-1,2.1-1.5,2.4-2.7,1.4s-1.5-1-1.5,0.3
		c0,0.8,0.7,2.1,1.6,2.8c1.4,1.1,1.9,1,3.4-0.9c1.2-1.5,2.9-2.2,5.2-2.2c3.7,0,5.8-1.5,5.8-4.1C423,448.2,421.2,447.7,420.8,450.2z
		 M419.8,488.2c-0.2,1.8-0.9,2.2-2.7,2c-1.3-0.1-3.1,0.4-4,1.2c-0.9,0.7-2.3,1.6-3.1,1.9c-1.2,0.4-1.1,0.6,0.4,1.2
		c1.1,0.5,2.7,0.3,3.7-0.3c1-0.7,2.7-1.2,3.7-1.2c2.5,0,4.2-1.9,4.2-4.7C422,485.3,420.2,485.3,419.8,488.2z"/>
	<path id="path80" class="st10" d="M343.1,278.1c2-0.1,3.7,3.9,4.1,9.2l0.3,3.9l-7.2,3.3c-8.1,3.8-7.5,4.2-8.8-6
		c-0.8-5.8-0.2-6.6,6.1-8.9C339.7,278.8,342.2,278.1,343.1,278.1z"/>
	<path id="path82" class="st8" d="M326.6,283.1c0.7,0,1.3,2.5,1.7,6.2c0.3,3.4,0.9,7,1.3,8c0.6,1.6,0.1,1.8-5.7,1.5l-6.4-0.3
		l0.3-5.9c0.3-6.7,1.2-8.3,5-8.9C324.3,283.5,326,283.2,326.6,283.1z"/>
	<path id="path84" class="st10" d="M302.8,285c1.1,0,1.3,0.8,0.8,3.1c-0.3,1.7-0.6,4.7-0.6,6.5c0,3.5-0.5,4-2.9,2.5
		c-1.1-0.7-1.1-1.8,0-6.5C300.9,286.9,301.8,285,302.8,285z"/>
	<path id="path86" class="st8" d="M311.6,285c3,0,3.4,0.3,3.4,2.7c0,1.6-0.3,4.5-0.6,6.5c-0.6,3.6-0.9,3.8-4.4,3.8
		c-3.1,0-3.9-0.4-4.4-2.3c-0.5-2.2,0.5-7.4,1.9-9.7C307.8,285.5,309.7,285,311.6,285z"/>
	<path id="path88" class="st12" d="M294.9,314c2.7,0,1.1,4.3-4.4,11.9c-1.4,1.9-3,5.2-3.6,7.4c-1.4,5.1-6.1,9.7-10,9.7
		c-1.6,0-2.9,0.4-2.9,1c0,1.7,6.3,1.1,9.5-0.8c3-1.8,4.5-4.1,6.4-9.3c0.9-2.5,1.2-2.6,5.3-1.8c2.4,0.5,12.3,1.3,22.2,1.8
		c9.8,0.5,18,1.2,18.3,1.5c0.3,0.3,0,1.2-0.6,2c-1.8,2.2-14.4,3.9-23.8,3.3c-8-0.5-10.8,0.2-8.1,2c0.7,0.4,9,0.8,18.5,0.8
		c12.7,0,17.5,0.3,18.5,1.3c2.8,2.8-3.4,3.9-25.2,4.7c-7,0.2-12.6,0.8-12.8,1.4c-0.2,0.5,1.6,1.5,4,2.1c23.1,6.1,26.8,7.4,26.8,9
		c0,1.5-11.4,1.2-19.5-0.5c-8.1-1.7-13.5-1.9-13.5-0.6c0,0.6,3,3.1,6.8,5.7c8.6,6,11.3,8.5,10.6,9.5c-1.2,1.9-5.4,0.7-12.4-3.7
		c-9.2-5.8-14.1-7.7-25-9.9c-4.7-0.9-9.8-2.4-11.3-3.2c-4.3-2.2-6.8-8.9-7-18.4c-0.2-9.1-0.5-8.7,10.8-13.2c3.3-1.3,9.5-4.9,13.9-8
		C290.7,316.6,294.5,314,294.9,314z"/>
	<path id="path90" class="st1" d="M557,330.5c0.5,0.3,1,1.2,1,1.9c0,0.7,1.1,3,2.5,5.1c1.4,2,2,3.5,1.3,3.3
		c-1.7-0.6-4.5-4.9-5.2-8.1C556.1,330.8,556.3,330.1,557,330.5z"/>
	<path id="path92" class="st11" d="M556.3,560.1c15.4-0.2,25.1,2.7,56.7,16.7c15.5,6.8,31,12,45.8,15.3c5.6,1.2,10.2,2.6,10.2,3
		c0,0.4-5.1,1.5-11.4,2.4l-11.4,1.7l-20.3-3.1c-11.2-1.8-26.2-4.3-33.4-5.6c-41.8-7.7-59.7-7.8-90.5,0c-9.7,2.4-27.3,5.9-34.4,6.9
		c-3.7,0.5-4.3,0.2-9.4-4.9c-3.1-3.1-5.3-5.7-5.1-6c0.3-0.2,3.5,0.1,7.2,0.8c11.3,1.9,21.3-0.5,42.2-10
		c23.7-10.8,32.3-14.3,38.6-15.7C544.6,560.8,551.5,560.2,556.3,560.1z"/>
	<path id="path94" class="st13" d="M577,590.9c33.8,5.6,52.1,8.9,52.5,9.3c0.3,0.2-3.2,1-7.6,1.7c-4.5,0.7-12.7,2.6-18.3,4.2
		c-13.1,3.8-20,3.7-39.6-0.2c-25.5-5.2-42.9-4.3-67.8,3.2c-5.9,1.8-11.2,2.8-12.5,2.5c-1.2-0.3-5.3-3-9.2-5.9l-7-5.2l3.5-0.3
		c5.4-0.4,18.6-3.1,28.7-5.8c5.1-1.3,14.1-3.3,20-4.4C533.7,587.5,558.5,587.9,577,590.9z"/>
	<path id="path96" class="st11" d="M566.7,609.1c9.4,1.6,17.5,2.9,18,2.9c0.4,0.1-4.1,2.6-10.2,5.8c-6,3.1-12.8,6.9-15,8.4
		c-2.2,1.6-4.7,2.8-5.5,2.8c-0.9,0-7.2-1.6-14-3.5c-14.2-4-19.7-4.3-29.8-1.5c-3.9,1.1-7.6,2-8.1,2c-1.1,0-14.1-10-14.1-10.9
		c0-0.7,15.4-5.4,23.5-7.1c2.8-0.7,8.6-1.5,13-2C535.5,604.9,546.5,605.7,566.7,609.1z"/>
	<path id="path98" class="st4" d="M456.7,616.2c6.5,4.2,7.9,6.2,10.3,13.7c1.7,5.5,2,9,1.9,25c-0.1,21.8,0.7,26.8,6.7,45.1
		c8.1,24.3,24,53.9,37.1,68.9c11.2,12.8,12.9,15.8,17.8,31.5c2.5,8.2,4.3,15.1,4.1,15.4c-1.1,1-20.4-14.5-29.7-23.9
		c-13.7-13.7-22.4-27.6-32.7-51.9c-10.9-25.8-13.8-38.4-15.2-65.7c-1.1-20.7-3.7-52.4-4.6-55.8c-0.3-1.1-0.8-2.8-1-3.8
		C450.7,612.4,451.1,612.5,456.7,616.2z"/>
	<path id="path100" class="st13" d="M478.9,631.8c0.5,1,1.7,8.9,2.5,17.7c3.3,32.4,6.7,42.7,21.9,66.1c14,21.8,14.4,22.6,16.1,36.4
		c0.9,6.9,2.3,15.2,3,18.5c1.3,5.2,1.4,7.8,0.3,6.4c-0.2-0.2-3.1-3.9-6.6-8.1c-18.3-22.7-33.5-52.7-40.6-79.8
		c-2.5-9.4-2.8-12.9-3.4-34.5c-0.5-14.5-1.2-25.1-1.9-26.8c-0.7-1.6-1.2-3.1-1.2-3.3C469,623,477.7,629.6,478.9,631.8z"/>
	<path id="path102" class="st11" d="M453.5,667.5c0.9,20.5,2.3,32.6,5,43c3.9,15.4,16.4,45.1,24.8,58.9c9.8,16.2,26,32.8,43.2,44.6
		c8.7,5.9,10.5,7.6,12,11.2c1.7,4.3,6.5,17.8,6.5,18.5c0,2-30.6-21.4-39.9-30.5c-10-9.8-17.7-20.4-28.2-38.4
		c-14.7-25.4-23.6-46.3-27.4-64.7c-2.1-10.2-3.7-34.5-3-46.6c0.9-15.5,2.6-35.8,3.3-37.5C450.4,624.2,452.5,647.6,453.5,667.5z"/>
	<path id="path104" class="st13" d="M524.5,625.5c5.5,0.5,26.5,5.6,26.4,6.5c0,0.3-2,2.2-4.5,4.2c-4.3,3.6-9.4,9.2-14.5,15.8
		l-2.5,3.3l-7.2-4.6c-6-3.9-7.3-5.2-8.1-8.5c-0.6-2.2-2.9-6-5.1-8.5c-2.4-2.6-3.6-4.8-3-5.2c0.6-0.3,3.8-1.3,7.3-2
		C516.7,625.7,521.8,625.2,524.5,625.5z"/>
	<path id="path106" class="st4" d="M491,638.6c7.3,4.9,7.3,5,8.5,14.9c1.5,12,5.6,21.7,13.4,32l4.6,6.2l-0.7,11.4
		c-0.4,6.3-0.5,15.2-0.2,19.9c0.7,10,1.5,10.7-10.6-9c-16.1-26.2-18.7-34.4-21.5-69c-0.4-4.1-0.9-8.3-1.1-9.3
		C482.7,633.3,483.2,633.5,491,638.6z"/>
	<path id="path108" class="st11" d="M504.1,647.5c1.3,0.4,4.2,1,6.3,1.2c2.3,0.3,6.9,2.4,10.7,4.9l6.8,4.3l-3.4,8.5
		c-1.8,4.7-3.9,11.1-4.6,14.1c-0.7,3.1-1.6,5.8-2,6c-0.7,0.5-6.1-7.2-8.9-12.4c-2.4-4.6-5.8-16-6.6-21.7
		C501.7,646.7,501.7,646.7,504.1,647.5z"/>
	<path d="M442.5,0.6c3.9,0.3,8.9,0.6,11.3,0.5c2.3,0,8.4-0.2,13.5-0.3c8.4-0.3,9.6-0.1,13.7,2.3c2.5,1.5,5.4,3.6,6.4,4.8
		c1.3,1.5,3.1,2.1,6,2.1c8,0.1,16.1,5.8,21.5,15.1c1.5,2.7,6.5,8.1,11.5,12.5c12.8,11.1,17.4,18.2,17.5,27c0.1,3.6,0.8,4.9,5.4,9.5
		c10.6,10.8,18.1,29.8,18.1,45.9c0,11-1.9,18.4-7,27.8c-3.4,6.2-3.4,6.3-3.2,18.1c0.1,11.5,0,12.2-3,18.4
		c-4.6,9.4-10.1,14.9-23.1,23.4c-6.4,4.2-13.1,9-14.8,10.6c-8.4,7.9-8.1,24.6,0.6,35.6c3.6,4.5,9.6,7.9,22.4,12.5
		c16.3,5.8,24.9,12.8,28.3,22.9c2.1,6.3,1.4,16-1.5,23.5c-5,12.6-4.7,18.3,1.4,24.2c4.5,4.4,4.5,6.7,0,8.6
		c-7.1,2.9-13.7,1.1-23.2-6.5c-2.9-2.2-5.6-4.1-6.1-4.1c-1.9,0-6.3,7.8-7.4,13.1c-1,4.9-0.8,6.3,1.6,15.1c3.8,13.3,2.9,14.2-8.3,8.3
		c-9-4.7-14-9-16.2-13.9c-2.5-5.6-2.4-7.2,1.6-19.3c4.4-13.2,4.4-15.7,0.3-21.9c-5.2-7.7-9.2-9.4-27.1-11.1
		c-8.4-0.7-17.6-2-20.5-2.8c-12.7-3.3-19.2-11.1-26.5-32.2c-6.6-18.9-9.1-21.8-24.7-29.1c-16.3-7.6-20.1-11.8-23.9-26.5
		c-1.1-4.3-2.3-8.1-2.6-8.6s-3.4-2.3-7-3.9c-4.6-2.2-7.9-3.1-11.7-3.1c-2.9,0-6.5-0.4-8-1L355,197v11.3c0,9-0.4,12.1-2,15.6l-2,4.4
		l2.5,4.1c3.3,5.5,5.3,7.8,9.9,11.2c3.6,2.6,4.8,2.9,14.7,3.4c10.2,0.5,11.1,0.7,13.7,3.3c2.4,2.4,2.7,3.6,2.8,9.5
		c0.1,3.7,0.2,7.2,0.3,7.9c0,0.6,3.5,3.9,7.5,7.3c12.7,10.3,28.7,32,36.8,49.7c4.6,10.1,9.4,25,12,37.1c1.9,9.1,2.3,13.6,2.3,29.7
		c0,21.3-0.1,21.8-9,55c-6.3,23.1-7.2,29.3-8.1,51.6c-1.1,27.8,4.1,61.2,11.4,74.2c4.4,7.8,9.1,10,20.7,9.4c10.6-0.5,13-1.3,40-13.5
		c24.7-11.1,31.1-13.1,44-13.9c16.6-0.9,29.9,2.5,58.6,15.3c23,10.2,27.3,11.8,49.1,17.4c20,5.2,22.8,6.3,22.8,8.4
		c0,3.4-5.7,4.7-40.2,9.1c-32.7,4.2-44.4,7.4-66.4,18.5c-28,13.9-42.8,30.1-49.8,54.2c-9.7,33.6-4,86.4,15.4,140.8
		c10.4,29.1,10.7,31.3,5.4,31.8c-2.5,0.2-5.2-1.1-13-6.4C503.8,822.6,491.5,810,474,781c-15.5-25.6-25.5-48.7-30-70.1
		c-3.3-15.1-4-49.6-1.4-71.1c1.9-16.3,2.2-23.6,1.1-28.1c-0.5-1.9-4.3-5.6-13-12.4c-27.8-21.9-55.1-54.4-75.1-89.6
		c-18.4-32.2-30.6-66.3-41.6-116.4c-1.3-5.6-2.6-10.5-2.9-11c-0.3-0.5-4.7-3.3-9.7-6.1c-7.6-4.3-11.2-5.7-21-7.8
		c-6.6-1.5-13.1-3.2-14.5-4c-7.6-3.9-11.4-15.2-11.2-33.4c0-11.8,2.2-24.6,8.9-54.8l4.6-20.4l-1.1-12.4c-0.6-6.8-1.1-17.4-1.1-23.4
		v-10.9l-8.2,3.6c-14.1,6.1-38.6,14.2-47.5,15.8c-11.1,2-20.8,1.9-26.7-0.1c-3.8-1.3-5.4-2.6-7.6-6.1c-2.9-4.5-3.3-6.3-7.1-30.8
		c-3.3-21.2-3.4-23.6-0.9-27.8c2.6-4.4,5-5.3,8.7-3.4c3.9,2.1,5.7,4.4,8.4,10.5c2.6,6.2,3.3,5.6,4.3-3.3
		c1.7-15.6,4.9-22.5,10.2-22.5c3.2,0,5.2,4.3,9.9,21.6c3.3,12.2,6.5,22.5,7,23.2c0.6,0.6,37.2-19.2,44.2-24
		c8.4-5.6,20.5-15.6,34.8-28.7c11.1-10.2,18.8-14.6,26.9-15.6l5.4-0.7l-0.5-17.2c-0.5-13.9-0.3-18.6,1.1-24.7
		c1.8-8.1,6.3-18.5,10.3-23.7c2.3-3.1,2.4-3.5,0.9-5.1c-2.3-2.5-2.1-11.2,0.4-16.1c5.4-10.5,16.2-13.3,26.6-6.9
		c4.2,2.5,8.2,2.4,15.2-0.5c10.9-4.5,16.7-4.5,22.1,0c3.9,3.3,7.1,2,7.1-2.9c0-8,8.7-17.9,19.1-21.7C434.5,0.3,436.8,0.1,442.5,0.6z
		 M441.5,5.6C431.4,3.6,416,15.9,416,26c0,2.8,0.2,3,4,3s4-0.2,5.1-4.2c1.1-4.2,8.3-12.8,10.7-12.8c0.7,0-0.8,2-3.3,4.4
		c-2.9,2.9-4.6,5.7-5.1,8.1c-0.7,4.1-0.3,4.8,4.4,6.3l3.2,1.1v-3.7c0.1-5.1,2.9-10.8,8.4-17c4.4-4.8,4.6-5.2,2.4-5.2
		C444.6,6,442.6,5.8,441.5,5.6z M451.3,8.8c-3.4,1.9-11.3,11.4-12.2,14.8c-0.9,3.3-0.4,8.1,0.9,8.9c0.4,0.3,1-0.8,1.3-2.4
		c0.9-4.2,6.6-11.2,12-14.5c5.2-3.2,7.9-2.7,3.2,0.7c-8.9,6.3-13.6,14.1-12.1,20.2c0.4,1.4,2.2,4.3,4.1,6.3l3.4,3.7l0.1-4.9
		c0-6,2.6-11.8,8.2-18c5-5.8,7.8-7.2,16.4-8.6c3.8-0.6,7-1.3,7.3-1.5c0.8-0.9-3.4-4.8-6.6-6.1C472.2,5.2,456.3,6.1,451.3,8.8z
		 M483.5,16.7c-12.2,2.3-15.8,3.9-20.7,9.1c-5.4,5.8-8.3,12.7-7.4,17.7c0.7,3.8,2.6,4.8,2.6,1.5c0-2.6,3.5-9.6,6.8-13.5
		c2.5-3.1,10.9-9.5,12.4-9.5c1.9,0,0.5,1.8-3.7,4.8c-8.3,5.8-14.1,17.1-13.3,25.9l0.3,3.8l1.3-4.2c1.9-6.4,7.4-18,7.9-16.6
		c0.2,0.6-0.5,2.9-1.5,5c-2.4,4.7-5,13.7-5.3,18.3c-0.6,10.6,1.3,9.1,3.9-3c2.5-11.5,3.8-14.9,8-20.7c6.4-8.6,18.7-12.3,29.7-8.9
		c2.7,0.8,5,1.4,5.2,1.3c0.7-0.8-5.1-7.8-7.9-9.5C497.1,15.3,492.7,15,483.5,16.7z M488.7,29.6c-7.2,2.2-13,8.5-15.6,16.9
		c-1.2,3.7-2.1,7-2.1,7.3s1.6-1.3,3.6-3.7c2-2.3,7.1-6.2,11.2-8.6c10.3-6,12.9-6,25.8,0.4c12,6,10.6,6.7-1.9,1
		c-7.2-3.3-9.7-4-12.8-3.6c-4.9,0.6-18.1,8.7-21,12.8c-2.9,4.2-8.7,18-9.4,22.6c-0.6,4.3-0.4,4,4.3-6.9c3-7,9.1-13,17-16.6
		c4.7-2.1,7.2-2.6,14.7-2.6c8.3-0.1,9.6,0.2,16.5,3.5c4.6,2.2,10,5.9,13.9,9.5l6.4,5.9l-0.7-4c-1.3-6.9-5.7-13.5-13.6-20.4
		c-11.8-10.4-14.2-11.9-21-13.5C496.2,27.7,494.9,27.7,488.7,29.6z M352,29.7c-6.6,2.6-11,12.2-7.7,16.7c1.3,1.7,1.6,1.6,6.1-1.8
		c2.7-2,7.4-4.4,10.8-5.3c4.9-1.4,5.8-2,5.6-3.6c-0.2-1.1-1.5-2.9-2.9-3.9C361.2,29.8,354.6,28.6,352,29.7z M380.8,32.8
		c-4.9,2-8.8,4.1-8.8,4.6c0,1.2,17.4,0,20-1.4c1.6-0.9,2.1-1.8,1.7-3.6c-0.5-3,2.2-3.4,3-0.4c0.6,2.2,1.1,2.4,3.2,1.1
		c0.8-0.5,1.1-1.6,0.8-2.5C399.5,27.6,390.6,28.6,380.8,32.8z M419,32.6c0,0.3,1.4,1.7,3,3.1c6.8,5.7,9.6,18.4,4.8,21.7
		c-3.6,2.5-4.8,2-4.8-2.2c-0.1-8.9-4-17.5-9.2-20.3c-2.5-1.4-8.8,0.2-10.9,2.7c-1.1,1.4-1,1.8,0.6,3c1,0.8,3.2,1.4,4.9,1.4
		c2.3,0,2.7,0.3,1.9,1.1c-1.7,1.7,0.9,6.4,3.9,7.4c1.9,0.6,2,0.8,0.6,1.2c-1.4,0.3-1.8,1.5-1.8,5.1c0,5.4-2.8,11.5-5.5,12.1
		c-1.6,0.3-1.5-0.3,0.8-4.2c3-5,4-13.5,1.3-10.7c-0.7,0.8-2.1,3.8-3,6.6c-3.5,10.9-14.4,15.8-22.5,10.2c-4.4-3.1-6.5-7-6.9-13
		c-0.4-5-0.1-6.4,2.1-9.6c1.4-2.1,4-4.6,5.8-5.6c3.4-1.7,3.3-1.7-8.6-1.3c-14.4,0.3-17.7,1.7-27.1,11.1
		c-11.3,11.3-15.6,23.9-15.7,45.6c-0.1,15.3,2.2,27.1,7.3,39.3c3.2,7.3,10.6,20.3,14.3,24.9c2.1,2.6,2.4,2.7,6.5,1.6
		c10.3-2.6,22.2,6.6,22.2,17.2c0,3.8,2.3,4.9,6,2.6c4-2.3,7.4-2,10.9,0.9c3.9,3.3,4.7,6,2.7,9c-2.1,3.2-5.2,3.5-3.6,0.4
		c2.9-5.3-2.1-9.8-7.9-7.3c-1.8,0.8-4.5,1.4-6,1.4c-1.9,0-3.4,1.1-5.4,4l-2.9,4l3.9,1.7c2.1,0.8,6.8,1.8,10.4,2.1
		c8.5,0.6,15.3-2.1,17.3-7c2.4-5.6,0-8.7-10.2-13.5c-4.1-1.9-7.2-3.9-6.9-4.6c0.6-2.1,10.7-7.5,15.9-8.6c2.7-0.6,7.2-1.1,10.1-1.1
		s5.7-0.4,6.4-0.8c0.6-0.4,1.4-3.2,1.8-6.2c1.7-15.2,3.8-23.6,8.2-32.5c6.5-12.8,6.2-17.4-1.8-29.1c-3.1-4.6-2.5-6.4,2.2-6.4
		c3.3,0,8.1,5.2,9.9,10.6c0.7,2.2,1,6.1,0.7,9.5c-0.3,3.3-0.4,5.9-0.2,5.9c0.2,0,2.3-0.9,4.8-1.9c10.3-4.4,16.8-10.3,18.7-17
		c0.7-2.5,0.3-4-2.1-8.6c-2-3.8-2.9-6.9-2.9-10.2s-1.4-8.2-4.5-15.8c-3.6-9-5.1-11.5-8-13.5c-1.9-1.4-5.7-5-8.4-8.1
		c-3.8-4.3-6.1-5.9-10.1-7.2C427,32.1,419,31.4,419,32.6z M417.8,35c-0.6,0-0.6,0.6,0.2,1.5c1.4,1.7,2.6,1.3,1.5-0.4
		C419.2,35.5,418.4,35,417.8,35z M393,39.4l-3.5,1.3l3.5,0.5c3.2,0.5,4.9-0.4,5-2.5C398,37.8,397.2,37.9,393,39.4z M401.8,42.2
		c-2.3-1.8-3.1,0.2-0.9,2.2c1.3,1.2,2.1,1.4,2.6,0.6c0.4-0.6,0.5-1.2,0.4-1.3C403.7,43.5,402.8,42.9,401.8,42.2z M382.2,48.5
		c-4,5-3.7,14.2,0.4,17.6c1.3,1.1,1.4,0.9,0.9-1.4c-1-3.7,0.2-6.5,3.6-8.2c6-3.2,11.7,1.3,10.6,8.3l-0.6,3.7l2.4-2.8
		c2.7-3.1,4-8.4,3.1-12.4c-0.4-1.4-2.2-4.1-4.1-6C393.6,42.4,386.6,42.9,382.2,48.5z M405,49c0,1.8,0.5,3,1.3,3
		c2.2,0,2.6-1.1,1.5-3.6C406.3,45.1,405,45.4,405,49z M504,52.3c-12-0.3-18.6,2.3-25.6,9.9c-3.9,4.2-11.2,20.3-9.9,21.6
		c0.3,0.3,0.6,0.3,0.7,0.1c0.2-0.2,1.6-2.9,3.2-5.9c1.6-3,3.8-6.6,5-7.8c11.3-12.6,35.9-10.2,50,4.7c4,4.2,1.5,3.9-3.8-0.4
		c-2.3-1.9-7.3-4.9-11-6.6c-13.2-6.2-27.7-3.4-34.6,6.6c-3.4,4.9-7.3,13.5-6.5,14.3c0.2,0.3,3.8-2.1,7.9-5.2
		c13.5-10.4,22-11.1,39-3.5c9.2,4.1,10.7,5.2,21.8,16.1c11,10.8,12.2,12.3,13.9,17.9c2.1,6.8,2.3,8.3,1,7.5
		c-0.5-0.3-1.2-2.3-1.6-4.3c-1-5.5-4.1-10.5-8.2-13.3c-1.9-1.3-6.3-5.4-9.7-9.2c-4.4-4.8-8-7.7-12.6-9.9
		c-10.5-5.1-18.8-7.9-23.3-7.9c-4.4,0-12.3,3.3-16.7,6.9l-2.5,2.1h9.1c31.7,0.1,57.4,20.1,64.1,50c1,4.4,2.1,8,2.5,8
		c0.7,0,3.2-6.4,4.8-12.5c1.5-5.9,1.2-17.7-0.6-25.3c-2.6-10.6-8.6-22.5-13.6-27.1c-2.4-2.2-8.4-7.8-13.4-12.4
		c-5.3-4.9-11.6-9.6-15-11.3C513.5,53,511.1,52.5,504,52.3z M390.5,61.6c-1.9,1.9-1.9,2.8,0,4.4c2.1,1.7,4.5,0.5,4.5-2.4
		C395,60.7,392.6,59.6,390.5,61.6z M477.6,90.3c-3.6,1.1-4.1,1.7-5.2,5.9c-2.4,9.6-6.5,13.9-19.4,20.3c-10.2,5.1-15.1,8.7-17.4,12.5
		l-1.8,3.2l4.3-2.5c2.4-1.3,8.8-4.4,14.1-6.7c10-4.3,14.7-8.2,17-13.9c0.6-1.4,1.2-2.1,1.5-1.4c0.7,2-2.7,8.1-6.1,11
		c-1.7,1.4-8.5,5.2-15.1,8.3c-14.8,7.1-17.3,9.6-19.1,18.7c-1.4,7.4-1.7,22.3-0.4,26.3c0.4,1.4,0.6-0.9,0.3-5.5
		c-0.6-9.1,0.8-17.5,3.8-22.4c2.8-4.6,3.3-3.4,0.9,2.1c-2.6,6-3.5,16.8-2,24.3c0.6,3.3,3.6,11.4,6.5,18c10.9,24.9,12.3,31,10,43
		c-1.8,9.3-1.8,10.3-0.6,9c1.7-2,7.1-19.4,7.1-23.2c0-5.9-2.6-13.5-9-26.3c-11.2-22.5-12.9-33.6-7.1-45.5c3.5-7,8-10.9,18.9-16.4
		c4.2-2.1,7.2-4.5,9-7.1c2.8-4,4.2-5,4.2-2.7c0,1.8-2.6,5.4-8.1,11.3c-7.5,8.1-10.9,16.9-10.9,28.3c0,4.7,2.6,14.1,3.8,14.1
		c0.4,0,0.7-3.5,0.8-7.8c0.1-9.6,2.8-16.5,10.8-28c3.1-4.4,6.4-10.2,7.3-12.7c1.5-4.5,1.5-6.1-0.3-18.7c-0.6-4.5-0.5-4.7,2-5.4
		c10.7-2.6,28.1,5.9,35.5,17.4c4.7,7.4,13.8,35.5,10.2,31.6c-0.5-0.5-2.3-5.2-4.1-10.4c-1.7-5.2-4.6-12.1-6.3-15.3
		c-5.4-10.3-17.9-19.2-28.5-20.3c-6.7-0.7-7.5,0.1-5.7,6c2.1,7,1.8,12.2-1,19.1c-1.4,3.3-2.5,6.6-2.5,7.3c0,2.4,3,7.2,7.9,12.6
		c13.3,14.7,16.8,28.7,13.2,52.9c-4.1,26.9-3.8,37.1,1.1,44c1.4,2,1.7,2.8,0.7,2.5c-0.8-0.2-2.4-2.3-3.7-4.6
		c-3.3-5.9-3.8-15.8-1.7-30.7c2.4-16.4,3-31.9,1.5-38.8c-1.6-8.1-6-16.2-13-24.1c-3.4-3.8-6.6-8-7.2-9.5l-1-2.6l-2.4,3
		c-1.4,1.6-3.9,5.9-5.7,9.5c-2.9,5.9-3.2,7.4-3.2,15.5c0,4.9,0.4,10,0.8,11.2c0.7,2,0.5,2.3-1.6,2.3c-3.4,0-8.3-5.3-9.6-10.5
		c-1.8-7.3-1.4-15.9,1.3-25.5c0.4-1.4-1.3,1.3-3.8,5.8c-2.4,4.6-5.4,9.4-6.7,10.8c-2.2,2.3-2.2,2.4-0.5,8.6c2.5,9.3,3,9.8,5.5,5.2
		c2.4-4.7,2.8-2,0.4,3l-1.6,3.5l5.1,10.8c7.6,16.2,8.6,19.9,7.7,29.1c-1.9,19.4-0.4,24.5,10.1,34.7c5.9,5.7,8.1,8.8,11,15.1
		c1.9,4.3,4.5,8.9,5.7,10.1c1.1,1.3,1.6,2.3,1,2.3c-1.8,0-5-4.4-8.7-11.7c-2.5-5-5.8-9.4-11-14.6c-6.4-6.4-7.7-8.3-9.1-13.3
		c-0.9-3.3-1.8-6.4-2-6.9c-0.1-0.6-0.8,0.3-1.4,2c-2.9,7.1-4.4,9.6-5.9,9.3c-2.8-0.5-3.3-5.7-1.6-16.3c1.6-9.3,1.6-10.4,0.1-15.5
		c-0.9-3-5.3-11.8-9.7-19.6c-5.7-10-8.5-16.2-9.8-21.2c-1.5-6.5-1.9-7.2-4.2-7.2c-9.7,0-28.2,6-25,8c2.5,1.6,20.3,8.8,23.3,9.5
		c1.6,0.3,2.5,1,2.1,1.6c-0.3,0.6-1.7,0.8-2.9,0.5c-1.3-0.3-2.6-0.2-2.9,0.2c-1.3,2.1,3.7,9.3,10.7,15.6c4.2,3.8,8.4,8.5,9.3,10.4
		c1.9,4,3.3,15,2.4,17.8c-0.4,1.1-0.9-0.8-1.3-4.5c-1-9.5-3.4-13.8-12-21.4c-7.5-6.7-11.7-13-11.7-17.5c0-1.3-0.6-2.2-1.5-2.2
		c-1.3,0-1.5,0.7-0.9,3.5c0.4,2.5,0.1,4.5-1.5,7.5c-1.2,2.2-2.1,4.7-2.1,5.5c0,2,7.3,8.8,15.1,14c7.4,5.1,9.9,8.9,11.9,18
		c1.7,8.1,4.7,14.1,8.4,17.2c1.8,1.3,7.4,4.2,12.6,6.4c11.6,4.7,14.9,7.9,18,17.5c3,9.1,5.6,11.8,14.8,14.9c4.2,1.3,7.7,2.3,8,2
		c0.7-0.7-6.2-11.4-13.9-21.5c-8.5-11.2-11.4-17.1-12.8-26c-0.6-3.6-2.2-10.3-3.6-14.9c-3-10-3.2-17.3-0.9-32.4
		c1.6-10,1.6-11.4,0-21.8c-1-6.1-1.5-11.3-1.3-11.6c0.7-0.6,1.2,1.5,3.3,12.5c1.7,9,1.6,10,0,23.3c-2,15.4-1.6,22.2,1.6,30.4
		c1.1,2.7,2.4,8.1,2.9,12c1.1,8.5,4.8,16.3,12.5,26.4c3.1,4,8.3,11.7,11.7,17c3.3,5.3,7.5,11.4,9.3,13.6c1.8,2.2,5.2,8.1,7.6,13
		c5.4,11.3,5.5,16.3,0.9,27.8c-3.4,8.6-3.9,13.3-1.6,17.7c2.1,4,3.7,3.9,2.3-0.1c-1.5-4.3-0.5-12.7,2.7-23.4
		c5.2-17.4,3.8-24-8.2-36.7c-7.4-7.9-8.9-11-10.3-20.8c-1.2-8.2-3.1-12.4-9.9-21.3c-7.8-10.3-12-24.4-10.5-35.2
		c0.3-2.7,2.2-9.2,4.1-14.5c5.6-15.3,4.7-27.4-3.2-40.4c-4.1-6.9-4.5-8.9-1-5.6c6.7,6.3,10.6,17.1,10.6,29.2c0,7.4-0.6,10.3-3.6,19
		c-2.8,8.2-3.5,11.6-3.5,17.8c0,10.7,2.1,16.6,9.7,27.8c7,10.1,10.3,17.3,10.3,22c0,7.1,2.9,12.9,10.6,21.3
		c4.1,4.5,8.2,9.6,9.1,11.3c2.6,5,2.1,14.4-1.6,29c-3.8,14.9-3.7,19.2,1,25.6c1.7,2.3,3.3,3.9,3.6,3.7c0.3-0.3,0-5.1-0.6-10.7
		c-1.3-11.9-1-13.4,5.4-27.5c5-11.1,5.5-14.9,2.9-23.6c-2.6-8.6-5.1-12.6-13.5-21.5c-4.3-4.7-7.9-9-7.9-9.7
		c0-1.7,14.8,13.1,18.1,18.2c7.7,11.9,8.8,24.4,3.1,36.5c-3.8,8-3.9,8.5-1.2,6.1c3.4-3.1,8.7-12.6,10.5-18.9
		c3.5-12,0.4-28.5-6.6-35.2c-3.2-3-3.7-4.4-1.5-4.4c2,0,7.5,6.6,9.7,11.6c4.3,9.6,4.1,24.1-0.6,35.5l-2.5,6.3l4,4.2
		c3.9,3.9,12,9.3,12,7.9c0-0.3-0.6-1.6-1.2-2.8c-0.8-1.5-1.5-9.3-1.8-23.2c-0.5-19.4-0.7-21.3-2.8-25.3c-2.6-4.8-2.3-6.8,0.3-2.8
		c3.4,5.1,4.5,11.6,4.5,26.5l0.1,14.6l2.4-9c1.2-5,2.8-10.4,3.5-12c0.6-1.7,1.2-5.6,1.2-8.7c0-11.5-7.3-19-25-25.8
		c-5.9-2.2-12.7-5-15.2-6.3c-6.4-3.1-13.7-10.8-16.7-17.5c-4.3-9.6-4.1-14.9,1.2-38.7c5.7-25.1,6.2-34.1,2.7-47.3
		c-2.9-10.8-5.7-16.1-13.1-25.3c-8.1-9.8-7.8-12.2,0.3-3.4c15.4,16.6,21,37.2,16.7,61.5c-1.1,6.3-1.8,11.6-1.7,11.8
		c0.9,0.8,18.5-24.5,20.2-29.1c3.2-8.6,2.6-20.2-2-38.2c-2.1-8.2-4.9-17.2-6.3-20c-4.6-9.1-13.1-15.5-29.8-22.5
		c-1.6-0.7-2.5-1.4-1.9-1.7c2-0.7,19.3,7.3,23.9,11.1c7.5,6.2,10.4,11.4,14.6,26c5.7,19.7,7.1,33.5,4.5,43.1
		c-1.8,6.8-3.1,9-13.5,23.5c-4.9,6.8-8.8,12.6-8.6,12.8c0.8,0.8,21.1-12.5,26.1-17.1c3.5-3.2,6.5-7.3,8.9-11.9l3.5-7.1v-17.1
		c0-19.3-1.5-27.1-7.3-38.1c-6.6-12.3-20.4-23.7-34.7-28.5C502,89.3,483.7,88.3,477.6,90.3z M327.3,126c-5.2,0.1-13.4,3-18,6.5
		c-2.1,1.6-10,8.6-17.6,15.5c-21.1,19.1-26.6,22.8-51.2,35c-27,13.3-38.8,18-46.9,18.7c-7.5,0.7-6.9-0.2,1.6-2.6
		c3.6-1,8.6-2.8,11.1-3.9c4-1.8,4.7-2.5,4.7-4.9c-0.1-2.4-0.2-2.5-1.1-1.1c-2,3.5-2.9,1.7-2.9-5.8c0-7.6-1.5-16-3.1-17
		c-0.5-0.3-0.6,2.8-0.3,6.8c0.5,7.4-0.4,12.9-2.2,13.5c-0.7,0.2-0.9-4.9-0.6-15.5c0.3-11.3,0.1-16.5-0.8-18.1
		c-1.9-3.6-2.8-1.5-4.6,9.9c-0.9,5.8-2,12.1-2.5,14c-1.1,4.3-5.8,10.1-6.6,8.2c-0.3-0.8-3-5.1-6.1-9.8c-7.9-11.9-9.7-11.2-6.7,2.4
		c0.8,3.7,1.9,12.1,2.4,18.8c1.1,13.7,3.7,22.7,7.6,26.1c2.2,2,3.7,2.3,10.4,2.3c4.4,0,11.6-0.7,16.2-1.6
		c12.6-2.4,53.4-17.3,56.5-20.7c0.6-0.7,1.7-4.6,2.4-8.7c1.4-8.5,4.9-17.5,9-23.5c3.4-4.9,29.8-30,30.7-29.2
		c0.3,0.4-1.5,3.1-4.1,6.1l-4.6,5.4v7.9c0,8.1,2,14.4,5.3,17.1c1.4,1.2,2,1,4.4-1.2c1.5-1.4,4.2-3.3,5.9-4.1
		c3.6-1.7,10.4-2,10.4-0.5c0,0.5-1.1,1-2.5,1c-4.3,0-8.8,2.5-13.2,7.3c-4.9,5.3-7.9,11.1-15.8,30.2c-3.1,7.7-8.6,20.1-12.2,27.5
		c-7.5,15.8-11.8,29.9-16.7,54.6c-3.2,16.1-5.9,37.2-4.9,38.3c0.2,0.3,1-0.5,1.9-1.7c0.8-1.2,2.3-2.2,3.3-2.2
		c3.4,0,15.6-6.9,20.8-11.7c5.7-5.3,6.4-7.2,11.8-32.8c5-23.9,8.5-32.1,26.3-60.5c6.4-10.2,12.4-20.8,13.5-23.5
		c2.5-6.5,2.6-15,0.3-19.3c-3-5.8-1.4-7.3,1.9-1.7c2.5,4.2,3,6,2.9,11.4l-0.2,6.3l3.1-0.6c4.5-0.9,4.9-1.8,3.1-6.1
		c-2.3-5.5-1.5-13.4,1.8-17.7l2.5-3.3l-3.4-4.4c-1.9-2.5-6.3-10.6-10-18l-6.5-13.5l-3,6c-2.8,5.7-7.2,11.3-8.2,10.3
		c-0.3-0.2,1.5-4.4,4-9.3c2.4-4.8,4.4-9.6,4.4-10.7C331,126.4,330.3,126,327.3,126z M445.8,142.2c-3,4.1-5.1,9.1-4.6,11.3
		c0.2,1,2-1.6,4.5-6.4C450,138.8,450.1,136.5,445.8,142.2z M296.6,164.2l-1.1-7.4l-7.1,6.9c-8.7,8.3-12.9,16.1-15.5,28.8
		c-1,4.9-1.9,13.1-1.9,18.1c0,8.1,0.2,9.3,2.3,11.1c2.8,2.7,9.8,5.6,10.8,4.6c0.4-0.5,3.3-7.1,6.4-14.8c3.2-7.7,7.5-17.4,9.5-21.6
		l3.9-7.6l-2-2.9c-1.1-1.6-2.5-4-3.1-5.4C298.3,172.6,297.3,168.2,296.6,164.2z M357.1,169.7c-3.5,2.7-6.1,7.6-6.1,11.5
		c0,3.7,3.4,9,7.1,11c4.3,2.3,13.6,2.4,16.7,0.2c3.5-2.4,5.5-7.2,4.9-11.5c-0.6-4.9-4.1-10.6-7.5-12.3
		C366.1,165.6,362.3,165.8,357.1,169.7z M348.8,197.1c-4.5,0.5-6.2,1.4-7.6,4.1c-1,1.6-5,8.2-8.9,14.6c-6.5,10.3-8,13.2-7,13.2
		c2.3,0,13.3-2.6,17.2-4.1c6.7-2.5,7.5-4.4,7.5-17.4C350,199.7,349.7,197,348.8,197.1z M405.5,202.7c-0.8-1.1-1.6-1.3-3.3-0.6
		l-2.3,0.9l2.8,5.2c1.5,2.9,5,7.3,7.7,9.8c9.2,8.3,11.1,10.9,17.6,22.5c7.3,13.4,12.5,19.7,18.4,22.7c7.6,3.8,10.1,6.5,15.1,15.9
		c6.2,11.5,8.9,13.6,24.3,18.4c6.4,2,13.5,4.3,15.6,5c2.2,0.8,4.2,1.2,4.5,0.9c0.3-0.3-1.3-2.3-3.6-4.3c-3.1-2.8-6.5-4.4-13.1-6.4
		c-11-3.3-14.1-6.3-17.2-16.5c-2.9-9.8-4.5-11.5-15.7-15.8c-6.7-2.6-11.1-5-14.1-7.8c-5.3-4.9-6.8-7.6-8.8-16.2
		c-2.4-10.5-4.4-13.5-13.1-19.7c-4.3-3-9.2-7-10.8-8.9C407.8,205.9,406.1,203.6,405.5,202.7z M393.2,203c-3.8,0-4.3,0.2-3.7,1.7
		c1.3,3.2,2.4,6.7,4,12.3c2.1,8.2,6.8,13.1,16.2,17c4.3,1.8,9.5,4.1,11.6,5.1c2,1.1,3.7,1.6,3.7,1.1c0-2.4-7.2-11.6-14.4-18.7
		c-5.7-5.5-9-9.6-10.6-13.3C397.7,203.1,397.6,203,393.2,203z M272.4,226c-0.6,0-0.3,13,0.4,18l0.7,4.5l4.3-8.3
		c2.3-4.5,4.2-8.7,4.2-9.3c0-0.5-2.1-1.9-4.6-2.9C274.9,226.9,272.6,226,272.4,226z M343.7,228.1c-0.7,0-4.3,0.9-8.2,2
		c-3.8,1-8.2,1.9-9.7,1.9c-3.4,0-6.1,3.5-12.1,15.5c-4.2,8.6-9.8,24.1-11.2,31.4l-0.7,3.4l9.8-0.6c16.8-0.9,36-8,48.2-17.6
		c5.2-4.2,8.8-9.3,7.7-11.1c-0.4-0.6-2.3-1.9-4.4-3c-5.4-2.7-12.7-10.5-15.6-16.7C346.1,230.4,344.4,228,343.7,228.1z M379.7,252
		c-3.4,0-6.7,0.4-7.3,0.8c-1.9,1.2-2.7,5.2-1.2,5.6c0.7,0.2,3.2,0.9,5.5,1.5c2.3,0.6,5.5,2.5,7.1,4.1c2.5,2.4,3.2,2.7,4.1,1.6
		c2.4-2.8,2.4-7.9,0.1-10.9C386.1,252.3,385.2,252,379.7,252z M438.4,261c-0.2,0,0.6,2.6,1.7,5.7c9,24.3,15.9,31,33.3,31.9l8.1,0.5
		l-5.1-2.1c-7.4-3-12.6-7.9-16.2-15.3c-3.9-8.3-7.8-12.6-15.3-17.1C441.6,262.6,438.7,261,438.4,261z M363.8,265l-3.7,3.1l4.3,4.2
		c2.4,2.3,4.5,4.8,4.8,5.6c0.3,1,1.5,0.8,5.4-1.2c2.7-1.4,6-3.4,7.4-4.5c2.4-1.9,2.4-2,0.6-4.7c-1-1.4-3.3-3.3-5.1-4.1
		C372,261.1,367.9,261.6,363.8,265z M352.2,273.1c-2.9,1.6-5.2,3.1-5.2,3.3c0,0.2,0.7,1.7,1.5,3.2c0.8,1.6,1.5,3.8,1.5,4.9
		c0,1.1,0.3,3,0.6,4.2c0.5,1.8,1,2,3.4,1.3c6.7-1.9,12-6.2,12-9.6c0-1.2-1.2-3.6-2.6-5.3C359.1,270,358,269.8,352.2,273.1z
		 M389.3,271c-0.5,0.1-1.9,1-3.2,2.1c-1.4,1.1-5.2,3.6-8.5,5.5c-3.3,2-8.2,5.5-10.8,7.9c-4.4,3.9-11.8,7.5-15.6,7.5
		c-0.9,0-5.6,1.9-10.5,4.1l-9,4.2l-15.1-0.6c-8.3-0.3-15.8-0.8-16.7-1.2c-1.3-0.5-1.9,0.5-3.1,4.7c-1.4,5.1-1.4,5.3,0.6,6.3
		c2.7,1.3,3.2,4.9,1.1,8.1c-1.5,2.3-1.5,2.7,0.6,6.4c2.7,4.7,2.6,4.7,22.9,5.5c13.2,0.5,14.7,0.7,16.3,2.6c1.6,2,1.6,2.4,0.2,4.5
		c-1.4,2.2-1.4,2.4,0.9,3c5.3,1.3,5.8,6.1,1,8.3c-1.5,0.6-6.9,1.4-12.1,1.8c-5.2,0.3-9,0.9-8.6,1.3c0.4,0.4,3.5,1.5,6.8,2.5
		c10.1,2.8,12.6,7.3,5.8,10.1c-3.2,1.4-4.6,1.4-12,0.2c-4.6-0.8-8.6-1.1-8.8-0.8c-0.2,0.3,1.8,2.5,4.6,4.9c5.3,4.6,6.1,7.1,2.8,9.2
		l-2.1,1.4l3.6,15.5c9.6,40.6,13.4,53.3,22.7,75.3c17.8,41.9,39.3,74,69.9,104.8c17.6,17.6,26.1,24.5,47.5,38.4
		c8.3,5.3,22.3,14.6,31.2,20.6c9,6,17,10.9,17.8,10.9c4.5,0-1.7-10.1-10.5-17.2c-3-2.4-13.9-10.8-24.2-18.7
		c-10.2-7.8-20.3-16.2-22.3-18.7c-9.2-11.2-13.6-21.8-18.1-43.5c-2.3-10.9-2.7-15.4-3.1-38.1c-0.6-30.6,0.1-36.3,8.3-67.2
		c3.1-11.5,6.1-24.3,6.9-28.5c8.4-48.2-10.6-101.9-47.7-135.2C394,274.5,389.7,271,389.3,271z M337.6,279.6
		c-6.3,2.3-6.9,3.1-6.1,8.9c1.3,10.2,0.7,9.8,8.8,6l7.2-3.3l-0.3-3.9c-0.2-2.1-0.8-5-1.4-6.6C344.6,277.7,343.3,277.5,337.6,279.6z
		 M326.6,283.1c-8,1.1-8.5,1.6-8.8,9.5l-0.3,5.9l6.4,0.3c5.8,0.3,6.3,0.1,5.7-1.5c-0.4-1-1-4.6-1.3-8
		C327.9,285.6,327.3,283.1,326.6,283.1z M302.8,285c-2.2,0-4.5,10.9-2.7,12.1c2.4,1.5,2.9,1,2.9-2.5c0-1.8,0.3-4.8,0.6-6.5
		C304.1,285.8,303.9,285,302.8,285z M311.6,285c-1.9,0-3.8,0.5-4.1,1c-1.4,2.3-2.4,7.5-1.9,9.7c0.5,1.9,1.3,2.3,4.4,2.3
		c3.5,0,3.8-0.2,4.4-3.8c0.3-2,0.6-4.9,0.6-6.5C315,285.3,314.6,285,311.6,285z M286.4,319.7c-4.4,3.1-10.6,6.7-13.9,8
		c-11.3,4.5-11,4.1-10.8,13.2c0.2,9.5,2.7,16.2,7,18.4c1.5,0.8,6.6,2.3,11.3,3.2c10.9,2.2,15.8,4.1,25,9.9c7,4.4,11.2,5.6,12.4,3.7
		c0.7-1-2-3.5-10.6-9.5c-3.8-2.6-6.8-5.1-6.8-5.7c0-1.3,5.4-1.1,13.5,0.6c8.1,1.7,19.5,2,19.5,0.5c0-1.6-3.7-2.9-26.8-9
		c-2.4-0.6-4.2-1.6-4-2.1c0.2-0.6,5.8-1.2,12.8-1.4c21.8-0.8,28-1.9,25.2-4.7c-1-1-5.8-1.3-18.5-1.3c-9.5,0-17.8-0.4-18.5-0.8
		c-2.7-1.8,0.1-2.5,8.1-2c9.4,0.6,22-1.1,23.8-3.3c0.6-0.8,0.9-1.7,0.6-2c-0.3-0.3-8.5-1-18.3-1.5c-9.9-0.5-19.8-1.3-22.2-1.8
		c-4.1-0.8-4.4-0.7-5.3,1.8c-1.9,5.2-3.4,7.5-6.4,9.3c-3.2,1.9-9.5,2.5-9.5,0.8c0-0.6,1.3-1,2.9-1c3.9,0,8.6-4.6,10-9.7
		c0.6-2.2,2.2-5.5,3.6-7.4c3.7-5.1,6.5-10.6,5.8-11.3C295.2,313.5,294.3,313.9,286.4,319.7z M557,330.5c-1.6-1-0.1,4.5,1.9,7.4
		c1,1.4,2.3,2.7,2.9,2.9c0.7,0.2,0.1-1.3-1.3-3.3c-1.4-2.1-2.5-4.4-2.5-5.1C558,331.7,557.5,330.8,557,330.5z M556.3,560.1
		c-15.1,0.2-19.9,1.7-53.8,17.2c-20.9,9.5-30.9,11.9-42.2,10c-3.7-0.7-6.9-1-7.2-0.8c-0.2,0.3,2,2.9,5.1,6c5.1,5.1,5.7,5.4,9.4,4.9
		c7.1-1,24.7-4.5,34.4-6.9c30.8-7.8,48.7-7.7,90.5,0c7.2,1.3,22.2,3.8,33.4,5.6l20.3,3.1l11.4-1.7c6.3-0.9,11.4-2,11.4-2.4
		c0-0.4-4.6-1.8-10.2-3c-14.8-3.3-30.3-8.5-45.8-15.3c-21.4-9.5-32.1-13.5-40.3-15.2C568.5,560.7,561.1,560,556.3,560.1z
		 M547.5,588.4c-18.3-0.4-28.5,0.9-47.8,6c-10.1,2.7-23.3,5.4-28.7,5.8l-3.5,0.3l7,5.2c3.9,2.9,8,5.6,9.2,5.9
		c1.3,0.3,6.6-0.7,12.5-2.5c24.9-7.5,42.3-8.4,67.8-3.2c19.6,3.9,26.5,4,39.6,0.2c5.6-1.6,13.8-3.5,18.3-4.2
		c4.4-0.7,7.9-1.5,7.6-1.7c-0.4-0.4-18.7-3.7-52.5-9.3C569.2,589.6,558.1,588.7,547.5,588.4z M497.3,611.8c-5.1,1.5-9.3,3-9.3,3.3
		c0,0.9,13,10.9,14.1,10.9c0.5,0,4.2-0.9,8.1-2c10.1-2.8,15.6-2.5,29.8,1.5c6.8,1.9,13.1,3.5,14,3.5c0.8,0,3.3-1.2,5.5-2.8
		c2.2-1.5,9-5.3,15-8.4c6.1-3.2,10.6-5.7,10.2-5.8c-0.5,0-8.6-1.3-18-2.9C535.2,603.8,522.8,604.2,497.3,611.8z M451.4,614.7
		c0.2,1,0.7,2.7,1,3.8c0.9,3.4,3.5,35.1,4.6,55.8c1.4,27.3,4.3,39.9,15.2,65.7c10.3,24.3,19,38.2,32.7,51.9
		c9.3,9.4,28.6,24.9,29.7,23.9c0.2-0.3-1.6-7.2-4.1-15.4c-4.9-15.7-6.6-18.7-17.8-31.5c-13.1-15-29-44.6-37.1-68.9
		c-6-18.3-6.8-23.3-6.7-45.1c0.1-16-0.2-19.5-1.9-25c-2.4-7.5-3.8-9.5-10.3-13.7C451.1,612.5,450.7,612.4,451.4,614.7z M470.2,627.7
		c0.7,1.7,1.4,12.3,1.9,26.8c0.6,21.6,0.9,25.1,3.4,34.5c7.1,27.1,22.3,57.1,40.6,79.8c3.5,4.2,6.4,7.9,6.6,8.1
		c1.1,1.4,1-1.2-0.3-6.4c-0.7-3.3-2.1-11.6-3-18.5c-1.7-13.8-2.1-14.6-16.1-36.4c-15.2-23.4-18.6-33.7-21.9-66.1
		c-0.8-8.8-2-16.7-2.5-17.7c-0.5-0.9-2.4-2.8-4.2-4.1C468.6,623.1,468.3,623.1,470.2,627.7z M449.8,626c-0.4,0.8-1.1,7.3-1.7,14.5
		c-4.9,60.1,0.5,85.5,28.8,134.3c10.5,18,18.2,28.6,28.2,38.4c9.3,9.1,39.9,32.5,39.9,30.5c0-0.7-4.8-14.2-6.5-18.5
		c-1.5-3.6-3.3-5.3-12-11.2c-17.2-11.8-33.4-28.4-43.2-44.6c-8.4-13.8-20.9-43.5-24.8-58.9c-2.7-10.4-4.1-22.5-5-43
		C452.5,647.6,450.4,624.2,449.8,626z M524.5,625.5c-4.6-0.4-16,1.5-18.5,3c-0.6,0.4,0.6,2.6,3,5.2c2.2,2.5,4.5,6.3,5.1,8.5
		c0.8,3.3,2.1,4.6,8.1,8.5l7.2,4.6l2.5-3.3c5.1-6.6,10.2-12.2,14.5-15.8c2.5-2,4.5-3.9,4.5-4.2c0.1-0.3-4.7-1.8-10.6-3.3
		C534.3,627.2,527.3,625.7,524.5,625.5z M483.4,635.7c0.2,1,0.7,5.2,1.1,9.3c2.8,34.6,5.4,42.8,21.5,69c12.1,19.7,11.3,19,10.6,9
		c-0.3-4.7-0.2-13.6,0.2-19.9l0.7-11.4l-4.6-6.2c-7.8-10.3-11.9-20-13.4-32c-1.2-9.9-1.2-10-8.5-14.9
		C483.2,633.5,482.7,633.3,483.4,635.7z M504.1,647.5c-2.4-0.8-2.4-0.8-1.7,4.9c0.8,5.7,4.2,17.1,6.6,21.7
		c2.8,5.2,8.2,12.9,8.9,12.4c0.4-0.2,1.3-2.9,2-6c0.7-3,2.8-9.4,4.6-14.1l3.4-8.5l-6.8-4.3c-3.8-2.5-8.4-4.6-10.7-4.9
		C508.3,648.5,505.4,647.9,504.1,647.5z"/>
	<path d="M362.9,79.2c-1.4,4.9-1.1,11.1,0.7,16.5c1.8,5.5,6.1,11.6,7.4,10.8c1.3-0.8,2.6,6.3,2.2,11.7c-0.3,3.3-2.2,1.8-2.2-1.7
		s0-3.5-4.5-3.5c-6.1,0-10.3-1.9-14.3-6.4c-4.1-4.7-4.3-8.7-0.5-12.2c1.5-1.4,2.8-3.5,3-4.6c0.2-1.2,1.4-3.5,2.6-5.2
		c1.2-1.7,2.8-4.3,3.5-5.9C362.5,74.8,364.1,75.2,362.9,79.2z M357.7,87.7c-2.2,2.1,1.1,12.1,5.2,15.7c2.1,1.9,2.1,1.8-0.3-3.5
		c-1.4-2.9-2.6-6.5-2.6-7.9C360,89.1,358.7,86.7,357.7,87.7z M356.7,99.3c-1.8-3.3-2.6-4-3.5-3.1c-1.6,1.6-1.5,5.9,0.3,8.4
		c1.6,2.4,7.3,5.4,10.1,5.4c1.5,0,1.2-0.6-1.3-3.3C360.5,105,358.1,101.6,356.7,99.3z"/>
	<path d="M411.1,99.9c3.5,2.6,4.3,2.6,3.6,0.2c-0.4-1.6,0.1-1.8,3.5-1.6c3.8,0.2,6.8,1.5,3.5,1.5c-3.1,0-1.3,4.9,3.2,8.8
		c2.5,2.2,2.5,2.3,0.4,1.7c-2.1-0.6-2.3-0.3-2.3,3.9c0,2.5,0.5,4.8,1,5.1c1.5,0.9,1.2,2.5-0.3,1.9c-0.8-0.3-2,1-3,3.1
		c-1.6,3.4-6,6.5-7.4,5.2c-0.3-0.4,0.6-1.6,2.1-2.8c3.3-2.6,5.1-5.8,3.9-7c-0.6-0.6-2,0.6-3.7,3.1c-3.6,5.4-8,8-13.7,8
		c-5.9,0-10.5-3-13.6-8.9c-4.5-8.6-1.6-18.6,6.7-22.9C400.4,96.4,406.7,96.7,411.1,99.9z M397.3,101.5c-9.6,4.1-9.7,20.1-0.2,25.1
		c7.7,3.9,17.9-3.3,17.9-12.8c0-4.1-3.9-10.5-7.4-12.2C403.5,99.7,401.5,99.6,397.3,101.5z M418.5,104.4c-1.4-1.8-1.4-1.8-1.5,0.8
		c0,1.8,0.5,2.8,1.5,2.8c0.8,0,1.5-0.4,1.5-0.8C420,106.7,419.3,105.5,418.5,104.4z M419,111.5c-1.4,1.7-1,4.7,0.8,5.3
		c0.8,0.2,1.2-0.8,1.2-3.2C421,109.6,420.8,109.4,419,111.5z"/>
	<path d="M407.5,112.5c5.1,5,1.7,13.5-5.4,13.5c-4.6,0-7.8-2.2-8.6-5.9c-0.7-3.1,1.5-8.5,3.7-9.4
		C400.6,109.3,405.2,110.1,407.5,112.5z M400.9,116.6c-1.6,2-0.1,4.8,2.9,5.2c2.5,0.4,3.9-3.2,2.2-5.3
		C404.4,114.6,402.6,114.6,400.9,116.6z"/>
	<path d="M370,302.7c0,2.8-3.5,7.3-5.6,7.3c-0.7,0-1.8,0.9-2.4,2c-2.3,4.3-8,4.8-8,0.8c0-1.7,0.3-1.8,1.5-0.8
		c1.7,1.4,3.3,0.6,4.5-2.5c0.6-1.6,1.9-2.5,3.7-2.7c2.2-0.2,3-1,3.8-3.6C368.6,299.3,370,299,370,302.7z"/>
	<path d="M401,304.9c1.9,3.7-2.5,9.1-7.5,9.1c-0.7,0-2.3,1.3-3.5,3c-1.2,1.6-3.2,3.3-4.5,3.6c-2.8,0.7-6.5-1.1-6.5-3.1
		s0.9-1.9,3.3,0.2c1.8,1.7,2,1.7,4.3-1c1.3-1.6,2.4-3.5,2.4-4.3c0-1,1.2-1.4,3.9-1.4c4.6,0,6.4-1.8,5.5-5.4
		C397.7,302.5,399.4,302.1,401,304.9z"/>
	<path d="M407.2,340.8c1.9,1.9-1.8,6.2-5.2,6.2c-2,0-3,0.5-3,1.5c0,3.1-3.9,5.6-8.3,5.4c-2.7-0.2-5.2,0.4-6.9,1.5
		c-2.1,1.4-3.1,1.5-4.7,0.6c-1.2-0.6-2.1-1.7-2.1-2.5c0-1.8,0.5-1.9,3-0.3c1.6,1,2.3,0.9,4-0.7c1.5-1.4,3.6-2,6.8-2
		c4.7,0,4.7,0,5-3.7l0.3-3.7l4.4,0.5c3.8,0.6,4.4,0.4,5-1.6C406,340.5,406.5,340.1,407.2,340.8z"/>
	<path d="M436,374.1c0,3.3-3.6,5.9-8.1,5.9c-3.2,0-4.7,0.6-6.5,2.5c-1.3,1.4-3.3,2.5-4.4,2.5c-3,0-6-1.8-6-3.5c0-1.9,1-1.8,3.4,0
		c2.4,1.8,5.1,0.5,6-2.9c0.6-2.3,0.8-2.3,4.1-1.3c4.4,1.3,8.2-0.2,9.1-3.8C434.3,370.7,436,371.1,436,374.1z"/>
	<path d="M428.1,410c1.5,0,1,3.4-0.7,5.9c-1.3,1.9-2.3,2.2-4.9,1.8c-2.6-0.4-3.7,0-5.4,1.9c-1.1,1.3-2.8,2.4-3.8,2.4
		c-0.9,0-3.1,0.5-5,1.2c-4.3,1.6-5,0.6-1.8-2.6c2.1-2.2,3-2.4,4.6-1.5c2.2,1.1,4.9-0.2,4.9-2.5c0-0.6,0.4-1.7,0.9-2.5
		c0.8-1.2,1.3-1.2,3.5,0.2c3,2,5.4,1.3,6.2-1.9C426.9,411.1,427.6,410,428.1,410z"/>
	<path d="M423,450.9c0,2.6-2.1,4.1-5.8,4.1c-2.3,0-4,0.7-5.2,2.2c-1.5,1.9-2,2-3.4,0.9c-0.9-0.7-1.6-2-1.6-2.8
		c0-1.3,0.3-1.3,1.5-0.3s1.7,0.7,2.7-1.4c0.8-1.9,1.6-2.5,2.7-2c0.9,0.4,2.7,0.7,4.1,0.8c1.9,0.1,2.6-0.5,2.8-2.2
		C421.2,447.7,423,448.2,423,450.9z"/>
	<path d="M422,488.3c0,2.8-1.7,4.7-4.2,4.7c-1,0-2.7,0.5-3.7,1.2c-1,0.6-2.6,0.8-3.7,0.3c-1.5-0.6-1.6-0.8-0.4-1.2
		c0.8-0.3,2.2-1.2,3.1-1.9c0.9-0.8,2.7-1.3,4-1.2c1.8,0.2,2.5-0.2,2.7-2C420.2,485.3,422,485.3,422,488.3z"/>
</g>
</svg>
