<?xml version="1.0" encoding="utf-8"?>
<!-- Generator: Adobe Illustrator 21.0.0, SVG Export Plug-In . SVG Version: 6.00 Build 0)  -->
<svg version="1.1"
	 id="svg68" inkscape:version="0.92.2 5c3e80d, 2017-08-06" sodipodi:docname="0 #24072.svg" xmlns:cc="http://creativecommons.org/ns#" xmlns:dc="http://purl.org/dc/elements/1.1/" xmlns:inkscape="http://www.inkscape.org/namespaces/inkscape" xmlns:rdf="http://www.w3.org/1999/02/22-rdf-syntax-ns#" xmlns:sodipodi="http://sodipodi.sourceforge.net/DTD/sodipodi-0.dtd" xmlns:svg="http://www.w3.org/2000/svg"
	 xmlns="http://www.w3.org/2000/svg" xmlns:xlink="http://www.w3.org/1999/xlink" x="0px" y="0px" viewBox="0 0 850 850"
	 style="enable-background:new 0 0 850 850;" xml:space="preserve">
<style type="text/css">
	.st0{fill:none;}
	.st1{fill:#FF9900;}
	.st2{fill:#FFCC00;}
	.st3{fill:#CCCC99;}
	.st4{fill:#6699FF;}
	.st5{fill:#FF3399;}
	.st6{fill:#FF33FF;}
	.st7{fill:#FF0099;}
	.st8{fill:#CCCC66;}
	.st9{fill:#CC9999;}
	.st10{fill:#99CC66;}
	.st11{fill:#666666;}
	.st12{fill:#99FF66;}
</style>
<sodipodi:namedview  bordercolor="#666666" borderopacity="1" gridtolerance="10" guidetolerance="10" id="namedview70" inkscape:current-layer="svg68" inkscape:cx="618.56806" inkscape:cy="740.90147" inkscape:pageopacity="0" inkscape:pageshadow="2" inkscape:window-height="978" inkscape:window-maximized="1" inkscape:window-width="1920" inkscape:window-x="0" inkscape:window-y="1" inkscape:zoom="0.83294118" objecttolerance="10" pagecolor="#ffffff" showgrid="false">
	</sodipodi:namedview>
<g id="g66" transform="translate(0.000000,0.000000) scale(1.00000,1.00000)">
	<path id="path4" class="st0" d="M0-3l300.8,0.1c177.7,0.1,297.6,0.5,293.2,1C561.1,2,544.7,11,530.3,33.2c-3.9,6-4.8,8.3-5.1,13
		c-0.6,7.4,2.2,12.3,11.6,20.7c8.4,7.4,10.6,11.5,10,18.3c-0.6,5.8-3,9.4-8.4,12.6c-4.7,2.8-13.1,2.6-16.3-0.2
		c-1.2-1.1-4.7-9.9-8.7-22.2c-3.8-11.8-7.9-22.4-9.6-24.9c-8.9-13.4-33.5-27.9-49.6-29.1c-10.3-0.8-10.8-1-18.2-7.8
		c-7.9-7.3-11.9-9-19.4-8.4c-8.2,0.7-15.9,4.9-25,13.7c-4.4,4.3-12.6,10.7-18.1,14.3c-14.7,9.5-21.8,18-21.8,26.1
		c0,7.4,6.2,12.2,20.7,16.2c12,3.3,12.6,3.7,12.6,8.9c0,2.9,0.7,5.2,2.1,7c2.5,3.2,2.2,5.2-2.8,15.4c-5.1,10.3-4.9,15,0.7,26.2
		c10.8,21.6,13.8,25,22,25c8.7,0,2.2,4.4-8,5.4c-8.4,0.8-17.4,5.2-22.8,11c-2.3,2.5-6.4,9.1-9.3,14.8C359,205,343,231,338.5,235.5
		c-2.2,2.2-7.8,5.9-12.5,8.2c-6.1,3.1-13.9,8.7-27.5,19.8c-31.5,25.7-32.9,27.4-42,51c-6.2,15.9-8.5,26-8.5,36.7v8.8h-29.7
		c-30.6,0-56.4,1.3-61.9,3c-6.2,2.1-12.4,11.3-12.4,18.6c0,1.8,1.4,7.1,3.1,11.6c1.6,4.6,4.1,13,5.5,18.8c1.4,5.8,3.5,12.3,4.8,14.5
		c3,5.5,24.6,32.4,29,36.3c4.8,4.2,5.5,4.5,37.6,18.4c15.1,6.5,29.9,13.4,32.8,15.4c7.4,4.9,47.3,42.6,60.9,57.6
		C354.8,595,376.2,632.7,384,671c3.7,17.7,1.6,30-7.6,44.6c-10.9,17.7-26.4,34.6-42.9,47.2l-9,6.9l0.3,6.4c0.2,5.3-0.6,9.4-4.4,22.4
		c-7.8,27-7.6,26.1-7.2,37.8l0.3,10.7H156.8H0V422V-3z"/>
	<path id="path6" class="st0" d="M615.5-2.9h117.3L850-3v425v425l-238.2-0.2c-203.3-0.1-225.5-0.3-151.3-1
		c156.5-1.4,218.3-2.3,219-2.9c0.3-0.4-2.5-6.8-6.4-14.3c-7.6-14.6-8.3-17.7-5.5-24.4c1.9-4.7,5.5-8.4,12.2-12.9
		c6.4-4.3,9.2-8.1,9.2-12.5c0-4.5,1.3-6,9-10.7c4.1-2.4,6.5-4.5,6.5-5.7c0-3.1-2.1-2.6-6.9,1.6c-2.6,2.2-5.1,4-5.5,4
		c-0.5,0-2,1.1-3.5,2.5c-2.1,1.9-2.6,3.3-2.6,6.9c0,4.5-0.1,4.7-7.2,10c-4.2,3.1-7.4,4.8-7.6,4.2c-0.1-0.7,1.5-7,3.8-14
		c8.3-26.1,11.5-43.8,10.8-58.6c-0.5-10.5-2.5-15-8.4-19.1c-2.8-1.9-4.4-3.8-4.4-5c0-3.3,8-17.8,13.3-24.2c2.7-3.2,4.7-6.1,4.4-6.3
		c-0.2-0.3-2.9,1.8-5.9,4.5c-3.9,3.6-6.8,7.5-10,13.8c-2.5,4.8-4.7,9.4-4.9,10.2c-0.3,0.9-4.5-1.5-13.2-7.7l-12.7-9l3.6-4.3
		c2-2.4,3.9-4.8,4.4-5.2c0.4-0.5,1.7,2.4,3,6.5c2.6,8.8,4.4,11.8,7,11.8c2.5,0,2.5-0.3-0.4-4.8c-4.1-6.2-5.9-13.5-5.3-20.7l0.5-6.5
		l-4.2,0.6c-2.2,0.4-4.3,0.7-4.6,0.8c-0.3,0-0.6-0.4-0.7-0.9c-0.2-1.1,7.4-10.5,8.5-10.5c0.4,0,2.9,7,5.6,15.5
		c3,9.3,5.4,15.5,6.2,15.5c0.9,0,1-0.8,0.4-2.8c-6.3-21.2-8-28-7.6-29.7c0.3-1.1,2.2-4,4.2-6.4c3.4-3.9,3.8-4.1,4.7-2.5
		c0.6,1,1.3,8.2,1.6,15.9c0.6,13.7,1.3,17.1,3.2,16c1.5-1,1-22.3-0.6-29.3c-1.9-8-6-16-8.8-17.3c-3-1.4-6-0.1-12.7,5.3
		c-6,4.9-11.9,8.3-12.8,7.4c-1.2-1.3,2.7-6.9,11.5-16.4c5.1-5.5,9.5-11,9.8-12.3c0.3-1.4,0.1-3.8-0.5-5.4l-1.2-3l-2,5.4
		c-1.5,4-4.2,7.7-10.3,14c-11.4,11.9-13.4,16.2-9.5,20.1c3.2,3.2,6.1,2.4,13-3.4c7.2-5.9,12.6-9,14-8.1c0.6,0.3,1,1.9,1,3.6
		c0,2.3-2,5-9.5,13.1c-5.2,5.7-9.8,11.3-10.1,12.6c-0.4,1.6-1.2,2.1-2.2,1.7c-1.2-0.4-1.2-0.3-0.3,0.9c0.6,0.7,0.8,2.1,0.5,3.1
		c-0.6,1.5-0.3,1.7,1.7,1.2c6.9-1.6,8.9-1.8,8.9-0.9c0,1.2-4.5,7.8-8.1,12c-1.6,1.8-2.9,3.7-2.9,4.2c0,1.9-1.8,0.9-6.9-3.6l-5.1-4.6
		v-10c0-7.4-1.2-16.7-4.6-36.1c-6.2-35.3-5.9-32.9-3.7-34.8c1-0.8,6.3-3.5,11.8-5.8c5.5-2.4,10.6-4.8,11.3-5.3
		c3.2-2.6-0.9-20.1-12.2-51.9c-3.6-10.2-6.6-20.2-6.6-22.2c0-1.9,0.7-6.8,1.5-10.7c1.4-6.8,1.2-10.2-0.5-8.3c-0.4,0.4-1.5,4-2.4,7.8
		c-0.9,3.9-2.1,7.7-2.6,8.4c-0.6,1.1-3.6-0.6-12.9-7.4c-13.8-10.1-15.4-11.6-14.9-14.2c0.3-1.4,2.1-0.2,8.6,6
		c4.5,4.3,8.7,7.5,9.3,7.1c1.1-0.6-0.2-2.3-9.5-12.2c-5.5-5.7-8.3-6.5-11.6-3.2c-2.6,2.6-0.4,4.2-28.8-21
		c-12.4-11-21.5-19.8-20.8-20.1c0.6-0.3,4.7-1.2,9.1-1.8c4.4-0.7,16.6-3.1,27-5.2c22.3-4.7,43.5-7.9,52.3-7.9c7.1,0,7.4,0.4,8.7,9.6
		c0.9,6.6,1.5,8.4,2.6,8.4c0.5,0,0.9-3.6,0.9-8c0-4.4,0.3-8,0.8-8c0.4,0,4.3,1.1,8.7,2.3c6.3,1.8,8,2.7,8.5,4.4
		c0.4,1.9,1.1,2.1,6.3,2c4.9-0.2,6.2-0.6,7.8-2.6c2.6-3.2,2.4-5-1-8.6c-3.1-3.1-13.1-19.1-13.1-20.8c0-0.6,0.8-0.3,1.8,0.6
		c1,1,2.3,1.7,2.8,1.7c2.3,0,4.6-6.5,5.5-15.8c0.8-8.3,2.5-16,4.6-21c0.4-1.1,0.1-1.2-1.5-0.3c-3.3,1.7-4.9,7-6.6,21
		c-0.8,7.4-1.7,13.5-1.9,13.7c-0.2,0.2-1.5-1.3-2.8-3.3c-1.6-2.5-3.4-3.9-5.5-4.4c-1.8-0.3-6.3-3.4-10.6-7.1
		c-16.7-14.6-33-23.3-51.3-27.3c-10.5-2.4-30.7-1.6-41.5,1.5c-10.7,3-30.1,12.5-54.9,26.8l-4.3,2.5l1.7-3.3
		c10.1-19.5,7.3-38.5-8.8-58.8c-4.7-6-6.4-8.8-5.8-10c0.4-0.9,1.5-3.5,2.5-5.7c2.8-6.2,1.9-16.2-2-21.7c-4.1-5.9-9.7-8.8-18.9-9.7
		c-4.1-0.4-7.8-1-8.2-1.5c-1.3-1.3-0.9-14.7,0.5-19.7c0.8-2.5,2.4-5.8,3.6-7.4l2.2-2.8l10.4,16.4c15.2,24,22,34.2,23.8,35.6
		c6.3,5.1,21.8-6.4,28.2-20.9c1.1-2.5,3.9-11.5,6.4-20c2.4-8.5,4.9-16.4,5.5-17.5c0.8-1.5,2.9-2.3,8.8-3.3c6.2-1,10.4-2.6,21.3-8.2
		c15.5-8,24.4-11.2,36.6-13.3c4.7-0.9,10.3-2.4,12.5-3.6c18.8-9.5,26.8-36.2,17.4-57.5c-3.4-7.6-7.4-12.5-14.8-17.7
		c-19.1-13.7-29.8-36.2-25.4-53.4c2.8-10.8,7.9-16.9,16-19.1c10-2.8,19.9,5.4,21.4,17.6c0.8,7.1-1.7,13.6-8.2,21.3
		c-3,3.5-5.5,6.7-5.5,7.1c-0.1,4.3,16.1-4.3,25.6-13.7c11.2-11.1,12.8-17.3,11-43c-0.9-13.2-2.6-19.1-7.3-25.2c-2-2.6-4.2-6.2-5-8.2
		c-3.5-8.3-8.8-13-18.6-16.7L615.5-2.9z M680,359.5c-2-1.8-2-1.7-2,8.2c0,7.3,0.4,10.4,1.4,11.2c2,1.7,2.6-0.6,2.6-9.8
		C682,362.6,681.7,361,680,359.5z M628.3,430.1c-0.8,2-0.6,5.9,1.1,19.6c0.7,5.3-0.5,5.6-2.3,0.5c-3.5-9.6-6.4-14.4-9.9-16
		c-3.2-1.6-3.5-1.6-4.8,0.3c-3.1,4.2-2.8,6.4,3.8,23.2c3.5,9,6.8,16.5,7.3,16.6c2.5,0.5,1.2-5.2-3.9-17.2
		c-3.9-8.9-5.6-14.3-5.6-17.2v-4.3l2.9,2.9c1.7,1.5,3.8,5,4.8,7.7c1.9,5.4,6.7,11.8,8.9,11.8c1.6,0,1.9-7.5,0.7-21.8
		C630.7,427.8,630,426.4,628.3,430.1z M606.6,467.7c-1.1,2.7-0.6,5.1,1.4,7.4l2,2.4l-0.6-3.8c-0.3-2-0.3-3.7,0.2-3.7s2.7,1.9,5,4.1
		c2.5,2.5,4.7,3.8,5.4,3.4c0.8-0.5-0.3-2.3-3.5-5.5C611.5,467,607.5,465.2,606.6,467.7z"/>
	<path id="path8" class="st1" d="M630,10.2c3.6,3.5,3.4,4.3-0.6,2.8c-3.6-1.4-17.1-1.5-20.4-0.1c-2.2,0.9-1.9,1,2.5,1.1
		c19.9,0.3,32.8,9.9,35.9,26.8l0.6,3.4l-5.1-4.1c-5.2-4.2-10.7-6.5-13.6-5.9c-1.3,0.3-0.8,0.9,1.8,2.2c10.8,5.2,17.1,14.9,17,26.4
		c0,8.4-0.6,11.1-3.8,17.7C642,85.1,633.5,95,631.9,95c-0.4,0,0.2-3.2,1.3-7.2c3.3-11.5,1-20.1-7.3-27.1c-4.7-4.1-12.6-6.4-18.1-5.3
		c-8.4,1.6-17.5,10.7-20.4,20.4c-2.9,9.6-1.3,22.2,4.2,33.8c3.3,7.1,9.6,14.4,22.4,25.9c12,10.8,16.4,20.6,16.4,36.5
		c0,13.4-1.9,19.3-8,25.4c-5.9,5.9-11.8,7.9-29.4,10.1c-14.5,1.7-23.9,4.2-23,6c0.6,1.1,2.1,1.1,7,0.1c5.2-1.2-21.7,11.9-29.5,14.3
		c-9.5,2.9-9.9,2.9-9-1.7c0.3-2,1.5-5.5,2.5-7.7c4.1-8.7,9.3-12.3,26.5-18c7.7-2.6,15.1-5.6,16.3-6.8c2.9-2.7,7.2-10.9,7.2-13.7
		c0-2.9-2.4-2.5-6.5,1.1c-4,3.5-4,3.5-2.1-1.2c0.8-1.9,2.1-8,3-13.6c0.9-5.6,1.9-11,2.3-12c1.2-3.3-8,5.1-11.4,10.3
		c-1.7,2.7-4,5.8-5.1,6.8c-1.9,1.9-19.8,8.7-20.6,7.8c-0.3-0.2-0.1-1.5,0.5-2.9c1.5-4.1,1-8-1.4-10.8l-2.3-2.7l-8.2,11
		c-6.6,8.7-8.2,11.6-8.2,14.3c0,4.9-2.7,14.7-5.2,18.8c-3.2,5.3-11.8,15.9-13.5,16.5c-3.7,1.4-13.9-7.4-18.5-15.9
		c-1.4-2.8-4-10.6-5.7-17.4c-3.7-14.9-10.1-28.4-15.1-31.9c-4.7-3.1-7.4-2.9-3.2,0.4c2.7,2.2,6.2,7.1,6.2,8.8
		c0,1.3-21.7-8.6-23.4-10.6c-2.2-2.8-1.8-8.6,1.4-17c2.3-6.2,4.5-7.8,13.9-10l5.2-1.2l13.3,6.7c15.9,7.9,17.7,9.7,26.7,26.9
		c5.6,10.5,9.9,16.1,11.4,14.6c0.2-0.2-3.3-7.1-7.8-15.3c-10.9-19.8-13-21.8-34.2-32.8c-9.3-4.9-18.1-10-19.5-11.4
		c-2.2-2.2-2.3-2.4-0.5-1.9c1.8,0.5,19,4.4,44.3,10c9.5,2.1,12.7,2,8.4-0.3c-1.1-0.6-12.5-3.7-25.5-6.9c-12.9-3.3-25-6.8-26.9-7.9
		c-7.6-4.4-9.8-13.1-5.8-23.3c2.5-6.4,2.5-6.3-0.7-5.6c-5.2,1.1-14.4-2.3-28.6-10.5c-23.5-13.7-33.2-17.2-47.7-17.3
		c-9.7,0-17.5,2.3-18.5,5.4c-0.3,1.1,0.1,3.3,1,5c0.9,1.8,1.5,3.4,1.3,3.6c-0.2,0.2-1.8-0.6-3.6-1.6c-4.2-2.6-4.3-6.9-0.4-13.1
		c4.8-7.4,12.3-13.4,28.6-22.7c8.3-4.8,8.7-5.1,6.1-5.8c-2.6-0.6-2.4-0.9,5.6-6c14.5-9.3,21.2-10.5,28.4-5c1.9,1.5,8.6,10.5,15,20
		c11.9,18,13.9,20.4,14.9,18.7c0.4-0.6-2.7-6.7-6.9-13.7s-7.3-12.9-7-13.2c1.2-1.2,15.4,2.1,22.8,5.3c11.7,5,18.3,9.3,25.6,16.5
		c7.9,7.9,12.5,16.2,13.9,25c1.1,6.9,10.6,32.7,14.8,39.8c5.1,8.6,16.4,13.6,25.4,11.2c5.2-1.4,11.7-7.7,15-14.5
		c2.6-5.3,3.9-16.2,2.5-21.2l-0.8-2.8L563,87c-0.5,1.4-0.8,4.2-0.9,6.3c-0.1,5-5.2,17.2-9.1,21.9c-5.7,6.9-14,7.2-22.9,0.8
		c-3.8-2.8-9.2-11.2-8-12.5c0.3-0.3,3,0,6,0.5c7.8,1.5,12.9-0.1,17.8-5.6c2.2-2.6,4.3-6.3,5-8.8c2.2-8.8-0.6-15.1-12.4-27.5
		c-8.4-9-10.2-12.1-9.1-16.4c0.8-3.5,11.9-17.9,17.6-23c9.4-8.5,23-16.1,32.5-18.1c2.8-0.6,2.5-0.2-2.9,4.7
		c-7.3,6.6-6.1,8.6,1.7,2.8c5.8-4.4,10.7-6.8,18.2-8.7C607.2,0.5,623.8,3.9,630,10.2z"/>
	<path id="path10" class="st2" d="M368.9,58h9.7c8.8,0,9.6,0.2,8.9,1.7c-0.4,1-1.4,3.7-2.2,6c-0.8,2.4-1.7,4.3-1.9,4.3
		c-0.3,0-2.1-0.7-4.1-1.5c-4.5-1.9-7-4.1-8.9-7.7L368.9,58z"/>
	<path id="path12" class="st3" d="M393.7,60c2.4,0,19.1,8,32.8,15.7c6.1,3.4,14.1,7.3,17.8,8.6c3.8,1.4,7.1,2.7,7.3,3
		c0.3,0.3,0,3.3-0.6,6.8s-1,9.1-0.8,12.5c0.3,6.2,0.2,6.3-3.5,9.2c-3.7,3-3.7,3-1.9,5.3c1.6,1.9,2.7,2.2,7.2,2
		c6.3-0.2,15.7,2.6,14.2,4.1c-0.6,0.6-3.6,1.2-6.6,1.3c-6.2,0.2-8.3,1.5-12.2,7.7c-2.6,4-3.1,5.9-1.2,4c0.7-0.7,1.4-1.2,1.8-1.2
		c0.3,0,0.3,4.3,0.2,9.5c-0.2,5.3-0.1,10.7,0.2,12c0.9,3.5,5.1,8.1,11.2,12.1c6.6,4.4,14,12.4,17.6,19.1
		c3.1,5.7,17.8,48.5,17.8,51.8c0,1.2-0.9,4.8-2,8c-2.4,7.1-2.5,9.5-0.3,14.3l1.7,3.7l0.6-6.6c0.8-8.5,4.1-15.2,12.5-25.4
		c11.7-14.4,21.8-27.9,23.2-31.3c1.3-3.1,2.3-7.9,3.8-17.4c0.5-3.4,11.1-18.8,13.5-19.6c1.7-0.6,1.1,2.6-1.7,8.2
		c-1.5,3.1-2.5,5.7-2.2,6c0.2,0.2,6.3-0.9,13.4-2.5c16.3-3.6,16.2-3.6,13.5-0.2c-1.5,2-1.8,2.9-0.9,3.2c2,0.6,5.8-4.6,6.5-9
		c0.7-4.5,1.9-5.1,2.8-1.4c0.8,3.2-1.5,8.3-5.4,12c-1.7,1.6-3,3.2-3,3.7c0,1.6,6.6,0.8,9.9-1.3c4.1-2.5,5.3-1.6,2,1.5
		c-1.4,1.3-9.6,5-19.4,8.5c-17.4,6.4-21.1,8.6-24.2,14.5c-0.8,1.6-5,14-9.3,27.5s-8.7,26.7-9.9,29.4c-4.5,10.4-14.8,22.7-19,22.7
		c-1,0-2.5-0.8-3.4-1.8c-0.8-0.9-10.6-16.7-21.6-35.1c-22.7-37.6-25.7-42.2-26.7-39.8c-0.3,0.9,0.6,3.5,2,6c1.4,2.4,2.6,4.7,2.6,5
		c0,1.3-15.7,0.8-16.8-0.6c-0.5-0.6-1.8-3.9-2.8-7.2c-2.4-7.6-8.4-14-14.1-15.1c-2.1-0.4-8.3-0.2-13.8,0.5
		c-9.2,1.1-10.2,1.4-12.9,4.3l-2.9,3.2l-2.3-3c-3.1-3.8-4.8-8.9-4-12c0.6-2.3,0.5-2.4-4.7-2.4c-6.4,0-9.1,2.3-13.2,11.3
		c-3.9,8.4-3.7,15.4,0.6,24l3.2,6.6l-2.5,3.9c-4.6,6.9-14.6,17.8-21.5,23.5c-10.4,8.4-18.4,12.9-38.2,21.1
		c-18.4,7.7-24.1,10.4-27.4,13c-1.7,1.3-1.6,1.8,1.2,10.7c3.4,10.9,6.8,27.5,5.8,28.6c-1.4,1.3-4-2.6-6.3-9.4
		c-1.3-3.7-2.9-6.8-3.6-6.8c-2.4,0-6.8,10.6-7.8,19c-2.4,18.6-3.1,18.9-3.3,1.4c-0.1-8.3-0.6-12.4-1.4-12.6
		c-0.7-0.3-2.9,4.1-5.4,10.7c-2.4,6.1-4.5,10.7-4.7,10.2c-0.2-0.6,0.6-5.8,1.7-11.7c2.5-12.6,2.4-11.5,0.7-11.5
		c-1.2,0-1-1.2,0.8-5.8c7.4-18.4,10.3-24.7,13.5-28.4c5.7-6.6,48.6-40.3,59.1-46.3c7.4-4.3,13.1-9.4,16.3-14.5
		c1.1-1.9,5.4-8.6,9.5-14.9c4-6.2,10.5-17.3,14.3-24.6c9.6-18.4,12.5-20.8,30.1-24.6l8.9-1.9l1.8,2.2c1.8,2.1,1.8,2.1,2.3-2.6
		c0.3-2.7,1.5-6,2.5-7.5c1.6-2.1,8.8-6.9,12.8-8.4c0.6-0.3,0.7-0.8,0.3-1.2c-0.5-0.5-5.4,0.6-11,2.3c-17,5.1-17.9,5-22.2-3.6
		c-4.3-8.7-5.7-13.2-2.5-8.2c1.3,1.9,2.2,3.8,2.1,4.2c-0.3,1.3,5,4.8,7.3,4.8c3.3,0,8.4-3.9,12.3-9.3c1.9-2.6,3.3-5,3-5.2
		c-0.5-0.5-24.9-4.5-27.4-4.5c-1.1,0-1.4,0.6-1,2.2c0.3,1.3-0.3,0.3-1.4-2.1c-1.1-2.4-2.2-6.2-2.5-8.5c-0.4-3.3-0.3-3.6,0.4-1.9
		c1.5,3.3,3.2,2.8,2.5-0.6c-0.5-2.6,0-3.6,4.5-7.9c5.9-5.8,6-6.5,2.9-19c-1.9-7.7-2.2-8.4-3.1-5.9c-1.1,3.5-2.2,3.4-3.8-0.4
		c-1-2.5-1-3.8-0.1-6.2c0.9-2.3,0.9-4,0-6.9c-0.9-3.2-0.9-4.5,0.5-7.3C391.3,61.4,392.7,60,393.7,60z M426,84.1h-4.5l5,2.3
		c2.8,1.3,7.6,4.5,10.9,7.1c3.2,2.6,5.4,3.9,4.8,2.9c-2.2-4-6.3-8.8-8.9-10.6C431.6,84.7,428.8,84,426,84.1z M420.4,91
		c-2.3,0-4.4,0.3-4.7,0.7c-0.4,0.3-0.7,4.3-0.7,8.8c0,10.2,1.5,12.1,9,11.8c6.6-0.3,7.2-0.5,9.3-3.1c2.7-3.3,1.4-7.5-4.2-13.3
		C425,91.6,423.8,91,420.4,91z"/>
	<path id="path14" class="st4" d="M428.8,101.3c3.1,3,4.1,6,2.3,7.1C430.2,109,420,98.3,420,96.8C420,94.9,424.4,97.2,428.8,101.3z"
		/>
	<path id="path16" class="st2" d="M368.8,65c1.5,1.1,4.4,3.3,6.6,4.7c4.5,3.2,3.3,4.2-1.9,1.7c-3.5-1.6-7.5-5.7-7.5-7.6
		C366,63.3,367.2,63.8,368.8,65z"/>
	<path id="path18" class="st5" d="M401,142.6c4.3,0.8,5.1,1.4,1.9,1.4c-1.3,0-3.1-0.5-3.9-1C397.9,142.3,398.5,142.2,401,142.6z"/>
	<path id="path20" class="st0" d="M457.3,165c2.1,0,16.6,6.5,18.6,8.3c2.5,2.3,5.4,8.1,6.5,13.1c0.7,2.6,0.3,2.5-3.2-2
		c-4.7-5.9-6.6-7.7-15.6-14.3C459.8,167.3,457,165,457.3,165z"/>
	<path id="path22" class="st6" d="M378,198.6c1,1.1,11,17.4,11,18c0,1.1-6,0.2-9.7-1.5c-4.2-2-7.3-6.1-7.3-9.9
		c0-1.1,1.2-3.2,2.6-4.7C376,199,377.5,198.1,378,198.6z"/>
	<path id="path24" class="st6" d="M427,217.5c-5.3,6.4-34,6-34-0.5c0-3.5,6.6-8,14.7-9.9C418.3,204.5,431.8,211.8,427,217.5z"/>
	<path id="path26" class="st6" d="M367.7,210c0.3,0,2.4,1.7,4.7,3.8s6.3,4.7,8.9,5.8c7.3,3,5.6,4.6-2.5,2.4c-4.8-1.4-9.3-5.2-10.7-9
		C367.6,211.3,367.4,210,367.7,210z"/>
	<path id="path28" class="st0" d="M498,219.2c4.6,4.3,8.7,7.8,9.2,7.8c1.7,0,0.6,2.4-3.3,7.2c-2.3,2.7-4.5,4.6-4.9,4.1
		c-0.4-0.4-2.4-6-4.5-12.3c-2.1-6.3-4-12.2-4.3-13C489.9,212.2,493.4,215,498,219.2z"/>
	<path id="path30" class="st6" d="M395.8,222.1c5.8,4.5,13,4.7,27,0.6c6.3-1.7,7.5-1.8,8.3-0.6c2.7,4.3-1.8,10.2-8.7,11.5
		c-6.4,1.2-16.5-0.3-22.3-3.3c-6.3-3.3-10.4-7.9-8.1-9.3C392.9,220.4,394.2,220.8,395.8,222.1z"/>
	<path id="path32" class="st6" d="M381.5,225.3l3,1.6L380,227c-4.4,0-11-2.9-11-4.9C369,221,377.5,223.1,381.5,225.3z"/>
	<path id="path34" class="st6" d="M374.3,229.4c1.2,0.3,3.9,0.6,6,0.6c4.5,0,4.1,1.6-0.5,2.3c-3.8,0.5-7.8-0.7-7.8-2.4
		C372,229.2,372.9,229,374.3,229.4z"/>
	<path id="path36" class="st6" d="M392.8,230.2c10.4,5.3,13.2,6.2,20.7,6.6c4.4,0.2,9.7,0,11.8-0.6c3-0.8,3.7-0.8,3.7,0.4
		c0,2-3.5,5.2-6.6,6c-4.4,1.1-13.5-0.4-18.5-3c-5.4-2.8-11.9-7.7-11.9-8.9C392,230.2,392.3,230,392.8,230.2z"/>
	<path id="path38" class="st7" d="M445,231.1c9.1,0.1,9.3,0.1,6,1.4c-4.6,1.8-9.9,1.8-13,0C435.7,231.2,436.3,231.1,445,231.1z"/>
	<path id="path40" class="st8" d="M389.9,238c6.1,10.9,21.1,16.9,30.8,12.4c1.9-1,4.8-3.4,6.5-5.5c4-5,10.6-8.3,15.6-7.7
		c2,0.3,6.2-0.1,9.2-0.8c3-0.7,5.6-1.1,5.8-1c0.6,0.7-3.1,9.1-7.7,17.3c-2.8,5-5.1,9.4-5.1,9.7c0,0.3,0.9,0.1,2-0.6
		c1-0.7,2.1-1,2.3-0.8c0.3,0.3,0.7,3.7,1.1,7.6l0.7,7.2l-7,4.6c-8.2,5.5-12.1,9.9-22.4,25.6c-7.7,11.8-19.1,26-20.7,26
		c-0.5,0-1.6-1.2-2.3-2.8c-2.7-5.2-2.8-7.7-0.4-12c1.2-2.2,3.4-6.3,4.9-9.1c4-7.1,4.6-14.3,2-22.8c-1.2-3.7-6.9-15.6-12.8-26.3
		c-5.9-10.7-10.9-20-11.1-20.7c-0.3-0.6,0.8-1.8,2.4-2.7C387.5,233.5,387.3,233.5,389.9,238z"/>
	<path id="path42" class="st6" d="M397.1,239.3c2.4,2.1,6.8,4.4,11,5.7c3.8,1.3,6.7,2.5,6.4,2.8c-1,1-9.7,0.2-12.4-1.3
		c-3.1-1.5-9.1-7.9-9.1-9.6C393,236.3,394.8,237.4,397.1,239.3z"/>
	<path id="path44" class="st0" d="M374.8,238c0.7,0,23.2,41.1,24.7,45.1c0.5,1.3-0.8,2.1-5.6,3.9c-10.9,4.1-14.1,8.1-16.5,20.8
		c-0.8,4.1-1.6,7.7-1.8,7.9c-0.2,0.2-9.3-0.1-20.2-0.7c-26.4-1.5-41.9,0-57.4,5.6c-3.7,1.3-7,2.4-7.3,2.4s-0.8-2.4-1.2-5.3
		c-0.8-5.7-3.6-13.1-6.2-15.9c-1-1.1-1.3-2.2-0.7-2.7c0.5-0.5,7.9-3.4,16.4-6.5c8.5-3.2,18.4-6.8,22-8.2c19.2-7.5,36-21.1,48-38.9
		C371.8,241.4,374.4,238,374.8,238z"/>
	<path id="path46" class="st6" d="M467,280.5c0.7,0.8,1.7,3.8,2.4,6.7l1.2,5.3l1.2-4.8c1.4-5.3,2.3-5.7,5.7-2.3
		c2.8,2.8,4,9.5,3.2,16.9c-0.6,4.8-2.7,9.1-2.7,5.5c0-1.7-9.9-12-10.9-11.3c-0.4,0.2-2.8-3.1-5.3-7.3c-4.2-6.9-4.5-7.8-3.1-9
		C461,278.5,465.5,278.7,467,280.5z"/>
	<path id="path48" class="st7" d="M452.6,282c1.1,0,9.7,13.9,9.7,15.7c0,0.7-22,13.2-23.5,13.3c-0.4,0-1-2.1-1.4-4.8l-0.7-4.7
		l-1.4,6.2c-1.8,8.1-6.9,13.6-17.8,19.6c-4.4,2.3-9.3,5.2-11,6.2l-3,1.9l3.1-3.5c1.7-1.9,8.7-10.8,15.5-19.8
		c14-18.6,19.8-25,25.5-27.9C449.7,283,452,282.1,452.6,282z"/>
	<path id="path50" class="st7" d="M400.2,288.7c1.9,1,2.9,8.7,1.8,13.1c-2,8.1-3.6,10.1-10.8,13.5c-6.3,2.9-6.5,3.1-3.7,3.5
		c4.1,0.5,5.1,1.6,6.4,6.6c1.3,5.4,4.6,9.6,7.4,9.6c1.8,0,1.9,0.2,0.7,1c-3.1,2-5,0.7-11.9-8.5c-8.3-11.1-9.1-12.5-6.5-12.5
		c1.7,0,1.6-0.3-0.5-1.9c-2.3-1.7-2.3-2-1.1-7c1.5-6.5,4.6-10.2,11.9-14.5C397,289.8,399.8,288.5,400.2,288.7z"/>
	<path id="path52" class="st3" d="M481,321c12,17.1,14.4,21.5,16,29.7c3,15-5.5,33.3-17.6,37.9c-6,2.3-20.7,1.5-28.1-1.5
		c-2.9-1.1-23.6-11.1-46-22.1c-22.4-11.1-44.2-21.3-48.3-22.8c-6.7-2.4-8.9-2.6-21.5-2.6c-12.1,0-14.8,0.3-19.7,2.2
		c-5.5,2.2-10.8,6.3-6.3,4.9c6.3-2,17.6-3.7,24.2-3.7c13.7,0,11.8-0.7,88.5,35c23,10.7,41.7,19.8,41.8,20.1c0,0.4-3,0.9-6.7,1.1
		c-3.8,0.3-8.6,1.3-10.7,2.2l-4,1.7l3.5,3l3.4,3l-3-0.5c-15.5-2.8-31.1-3-96.5-1c-16.3,0.5-22.6,0.3-30.6-0.9
		c-30.7-4.9-53.3-17.9-62.6-36c-2.4-4.8-2.1-7.1,2.4-19.2l3.3-9l0.3,9.7c0.2,8.6,0.5,9.8,2.1,9.8c2.8,0,6.1-7.3,7.7-16.7
		c0.9-5.9,2-9.3,3.3-10.7c1.9-1.9,2-1.9,4.6,1.2c3,3.6,8.2,5.6,11.9,4.6c1.4-0.3,2.6-0.8,2.6-1c0-0.2-1.1-2.9-2.5-6
		c-1.4-3.1-2.5-6-2.5-6.4c0-0.3,4.4-1.7,9.8-2.9c8.8-2.1,13.1-2.4,44.3-2.8l34.5-0.6l6,6.9c10.2,11.8,10.9,12.4,14.7,12.4
		c2.7,0,7.2-2.5,21.3-11.7c24.7-16.1,32.1-20.6,37.9-23.1C467.4,301.4,467,301.2,481,321z"/>
	<path id="path54" class="st9" d="M255.7,328.3c0.2,0.3-0.4,3.4-1.3,7.1s-1.8,6.5-2.1,6.3c-0.2-0.3,0.4-3.4,1.3-7.1
		C254.5,330.9,255.4,328.1,255.7,328.3z"/>
	<path id="path56" class="st10" d="M583.1,358c-0.9,0.5,1.7,0.8,6.6,0.8c12-0.1,23.3,4.3,41.3,15.9c10.1,6.6,24.5,20.6,21.7,21.1
		c-1.4,0.3-0.3,1.7,4.6,6.3c6.2,5.6,14.1,17.9,12.5,19.4c-0.3,0.3-4.1-1.1-8.4-3.3c-13.1-6.5-18.8-7.7-35.9-7.7
		c-14.9,0.1-15.2,0.1-44.9,6.9c-29.6,6.7-43.3,8.6-50.8,7.2c-2-0.3-6.4-2.5-9.9-4.8l-6.4-4.2l11.6-1.2c6.4-0.7,16.7-2.4,22.9-3.8
		c6.2-1.5,12-2.6,12.9-2.6c2,0,4.7-1.7,4-2.5c-0.4-0.3-9.1,1.1-19.5,3.1c-12.5,2.3-22,3.6-27.9,3.7c-8.2,0-9.9-0.3-18.5-3.7
		c-5.2-2.1-9.9-4.2-10.5-4.7c-0.5-0.5,2-0.9,6-0.9c15.8,0,38.9-4.4,47.5-9.1c3.5-1.9,3.5-1.9,0.5-1.3c-1.6,0.3-5.5,1.2-8.5,1.9
		c-8.7,2.1-55,5.9-56.3,4.6c-0.8-0.8-0.6-1.1,0.6-1.1c0.9,0,1.7-0.4,1.7-0.9c0-0.4-2.8-1.3-6.2-1.8c-5.5-0.9-5.8-1-2.3-1.2
		c5.5-0.2,18.9-3.5,25-6.2c2.8-1.2,14-7,25-13c26.1-14.2,32.9-16.5,52.5-17.8C583.9,356.4,585.3,356.5,583.1,358z"/>
	<path id="path58" class="st11" d="M248,365.3c1.7,0.8,4.3,4.7,7.8,11.5c3,5.7,5.2,10.5,5,10.7c-0.2,0.1-2.9-0.2-6-0.8
		c-4.4-0.8-7.5-0.7-12.9,0.3c-6.4,1.2-8.6,1.1-23.2-0.9c-32-4.4-45.6-7-54.2-10.5c-7.7-3.1-9.5-3.4-9.5-1.6c0,1.5,10,6,18,8
		c17.3,4.4,37.9,8,52.8,9.2c13.7,1,15.6,1,18.8-0.5c1.9-0.9,4.8-1.7,6.5-1.7c2.9,0,15.8,5.1,35.4,13.9c11.2,5,24.7,8.7,37.3,10.1
		c11.3,1.3,51.9,0.7,60.2-0.9c9.3-1.8,33-3,42-2.1c18,1.7,35,8.3,40.7,15.9c4,5.1,5.1,9,3.2,10.2c-2.2,1.4-11.4,2.2-16.1,1.4
		c-4.4-0.7-22.2-7.1-40.7-14.5c-15.2-6-25.6-7.6-14.3-2.1c5,2.5,31.3,11.9,47.6,17.1c9,2.9,10.5,3.1,18.1,2.5
		c7.9-0.7,8.4-0.6,9.5,1.5c0.6,1.1,3.8,11.2,7.1,22.3c10.6,35.4,17.2,46.7,43.4,73.7c7.7,8,16.2,17.8,18.9,21.9
		c9.4,14.1,15.9,29.9,19.7,47.3c0.7,3.2,1.5,5.8,1.9,5.8c2.7,0,7.9-11,10.9-22.7c4.3-16.9,5.5-27,5.5-48.8c0-18.1-0.3-22.4-2.3-31.5
		c-4.9-22.8-14.4-44.9-25.8-60.1l-5.5-7.3l6.8,6.2c27.1,24.7,46.4,40.5,56,45.7c10.5,5.9,12.7,9.2,19.7,31.6
		c6.3,19.9,11.2,36.1,12.1,40.2l0.7,2.9l-4.3-0.7c-12.2-2.1-23.3-6.9-42.5-18.7c-6.3-3.8-11.7-6.8-11.9-6.5
		c-0.2,0.2,3.1,3.2,7.3,6.6c8.7,6.8,22.2,14.1,35.6,19.1c4.8,1.8,8.4,3.6,8,4c-0.4,0.4-5.3,2.4-10.8,4.4c-11.1,4.1-18.4,9-22.7,15.1
		c-3.9,5.6-6.2,15.4-5.4,22.9l0.6,6.1l-2-2.5c-1.1-1.4-2-2.8-2-3.3c0-0.4-0.5-0.7-1.1-0.7c-3.3,0,5.3,19.1,13.9,30.6
		c6.5,8.7,19.2,21.5,29,29.4c3.5,2.7,14.3,10.8,24.1,18c9.7,7.1,18.6,13.9,19.7,15.1c1.6,1.7,1.9,3.5,1.7,9.6
		c-0.4,15.8-5.7,44.1-13.5,71.3c-6.4,22.4-5.9,29.7,2.9,44.3c1.9,3.2,3.3,6.1,3,6.3c-0.3,0.3-64.6,1-142.9,1.4
		c-78.3,0.5-157.1,1.2-175.3,1.5c-39.2,0.8-37.1,1.4-36.8-9.4c0.3-8.5,2.8-19.5,8.3-35.6c2.2-6.5,4-13.2,4-14.8
		c0-7.7,2-10.6,19-28.2c25.5-26.4,32.4-35.7,37.5-50.8c3.5-10.5,4.2-21,2.2-32.8c-0.9-5.2-2.1-12.6-2.6-16.6c-0.7-5.8-2.3-10.2-8-22
		c-4-8.1-9.5-17.9-12.4-21.8c-2.9-3.8-9.1-12.9-13.9-20c-13.4-20.2-24.3-33-50.2-59.3c-13.2-13.3-23.7-24.2-23.4-24.2
		c0.4,0,10.6,4.3,22.8,9.5c20.6,8.8,26,10.7,26,8.7c0-0.4-3.7-2.2-8.3-4.1c-4.5-1.8-15.3-7.2-23.9-11.8
		c-19.1-10.3-44.7-22.3-70.2-32.8c-27.1-11.3-36.7-17.6-46.8-30.8c-2.9-3.8-7.2-9.2-9.5-11.9c-5.5-6.6-6.9-9.8-13.8-31.5
		c-6.7-21.2-6.8-25.2-1.1-30.9c4.1-4.1,10.2-5.5,28.1-6.4C206.8,363.8,245.2,363.9,248,365.3z"/>
	<path id="path60" class="st10" d="M449.2,403c0.3,0,3.8,1.1,7.8,2.5c4,1.4,7.7,2.5,8.2,2.5c1.7,0,0.7-1.6-1.9-3.3l-2.8-1.7l3,0.6
		c10.3,2.2,27,9.8,40,18.2c24.8,15.9,47.4,42.2,61.4,71.2c7.3,15.2,10.1,25.9,10.7,40.5l0.5,12l-2.4-5.5c-1.3-3-5.5-12.8-9.2-21.8
		c-3.8-8.9-7.5-16.2-8.2-16.2c-0.8,0,0,2.9,2.3,8.2c4.5,10.5,7.7,18.7,12.1,31.3c4.7,13.5,5.2,21.1,2.4,36.8
		c-3.2,18-4.5,23.2-5.6,23.2c-0.5,0-3.5-7.5-6.6-16.7c-8.1-23.9-15-35.4-28.2-46.9c-7-6.1-18.1-19.4-25.1-29.9
		c-8.9-13.3-16-29.1-23.5-51.7c-3.7-11.4-7.8-22.8-9.1-25.3c-3.9-7.8-9.7-14.7-18.1-21.5C452.4,405.9,449,403,449.2,403z"/>
	<path id="path62" class="st12" d="M509.2,417.7c18.2,10.7,39.9,34.7,50.8,56.3c4.5,8.9,3.7,8.5-2.8-1.5
		c-15.9-24.5-34.8-43.2-57.2-56.4c-4.7-2.8-9.2-5.5-10-6.1C486.2,407.5,503.8,414.6,509.2,417.7z"/>
	<path id="path64" class="st11" d="M617.1,585c0.4,0,1,3.9,1.4,8.7c0.4,4.7,1.8,13.9,3.2,20.2c1.4,6.4,3.4,15.6,4.4,20.6
		c1.9,9.1,2.3,19.9,1,24.5c-0.7,2.4-1,2.2-8.7-5.5c-4.4-4.4-9.5-10.2-11.2-13c-4.3-6.5-7.4-16.9-7-23c0.3-4.5,0.5-4.9,3.7-6l3.4-1.1
		l-3.1-1.3c-3.7-1.5-4-3.6-1.5-8.4l1.6-3.2l1.3,3c0.7,1.6,1.6,4.5,2,6.2c0.3,1.8,1,3.3,1.4,3.3c1.8,0,1.8-4.6,0-10.3l-1.9-6.1
		l4.7-4.3C614.3,586.9,616.8,585,617.1,585z"/>
	<path d="M609.5-2.6c14.3,0.4,25,6.5,30,17.2c1.5,3.1,4.1,7.5,6,9.9c4.5,5.9,6.2,11.9,7.1,25c1.8,25.7,0.2,31.9-11,43
		c-9.5,9.4-25.7,18-25.6,13.7c0-0.4,2.5-3.6,5.5-7.1c9.1-10.7,10.8-20.9,5.1-30.6c-4.1-6.9-11.3-10.2-18.3-8.3
		c-11.8,3.2-18.8,17.2-16.4,32.8c2.3,15.3,11.5,29.5,25.8,39.7c7.4,5.2,11.4,10.1,14.8,17.7c9.4,21.3,1.4,48-17.4,57.5
		c-2.2,1.2-7.8,2.7-12.5,3.6c-12.2,2.1-21.1,5.3-36.6,13.3c-10.9,5.6-15.1,7.2-21.3,8.2c-5.9,1-8,1.8-8.8,3.3
		c-0.6,1.1-3.1,9-5.5,17.5c-2.5,8.5-5.3,17.5-6.4,20c-6.4,14.5-21.9,26-28.2,20.9c-1.8-1.4-8.6-11.6-23.8-35.6l-10.4-16.4l-2.2,2.8
		c-1.2,1.6-2.8,4.9-3.6,7.4c-1.4,5-1.8,18.4-0.5,19.7c0.4,0.5,4.1,1.1,8.2,1.5c14.1,1.4,21.6,8.4,22.3,20.7c0.3,5-0.1,7.8-1.4,10.7
		c-1,2.2-2.1,4.8-2.5,5.7c-0.6,1.2,1.1,4,5.8,10c16.1,20.3,18.9,39.3,8.8,58.8l-1.7,3.3l4.3-2.5c24.8-14.3,44.2-23.8,54.9-26.8
		c10.8-3.1,31-3.9,41.5-1.5c18.3,4,34.6,12.7,51.3,27.3c4.3,3.7,8.8,6.8,10.6,7.1c2.1,0.5,3.9,1.9,5.5,4.4c1.3,2,2.6,3.5,2.8,3.3
		c0.2-0.2,1.1-6.3,1.9-13.7c1.7-14,3.3-19.3,6.6-21c1.6-0.9,1.9-0.8,1.5,0.3c-2.1,5-3.8,12.7-4.6,21c-0.9,9.3-3.2,15.8-5.5,15.8
		c-0.5,0-1.8-0.7-2.8-1.7c-1-0.9-1.8-1.2-1.8-0.6c0,1.7,10,17.7,13.1,20.8c3.4,3.6,3.6,5.4,1,8.6c-1.6,2-2.9,2.4-7.8,2.6
		c-5.2,0.1-5.9-0.1-6.3-2c-0.5-1.7-2.2-2.6-8.5-4.4c-4.4-1.2-8.3-2.3-8.7-2.3c-0.5,0-0.8,3.6-0.8,8c0,4.4-0.4,8-0.9,8
		c-1.1,0-1.7-1.8-2.6-8.4c-1.3-9.2-1.6-9.6-8.7-9.6c-8.8,0-30,3.2-52.3,7.9c-10.4,2.1-22.6,4.5-27,5.2c-4.4,0.6-8.5,1.5-9.1,1.8
		c-0.7,0.3,8.4,9.1,20.8,20.1c28.4,25.2,26.2,23.6,28.8,21c3.3-3.3,6.1-2.5,11.6,3.3c9.3,9.8,10.6,11.5,9.5,12.1
		c-0.6,0.4-4.8-2.8-9.3-7.1c-6.5-6.2-8.3-7.4-8.6-6c-0.5,2.6,1.1,4.1,14.9,14.2c9.3,6.8,12.3,8.5,12.9,7.4c0.5-0.7,1.7-4.5,2.6-8.4
		c2-8.2,2.3-9,3.5-7.8c0.6,0.6,0.3,3.8-0.6,8.2c-0.8,4-1.5,8.9-1.5,10.8c0,2,3,12,6.6,22.2c11.3,31.8,15.4,49.3,12.2,51.9
		c-0.7,0.5-5.8,2.9-11.3,5.3c-5.5,2.3-10.8,5-11.8,5.8c-2.2,1.9-2.5-0.5,3.7,34.8c3.4,19.4,4.6,28.7,4.6,36.1v10l5.1,4.6
		c5.1,4.5,6.9,5.5,6.9,3.6c0-0.5,1.3-2.4,2.9-4.2c3.7-4.2,8.1-10.8,8.1-12c0-0.6-1-0.8-2.2-0.5c-8.6,2-9.1,2-8.4,0.2
		c0.3-1,0.1-2.4-0.5-3.1c-0.9-1.2-0.9-1.3,0.3-0.9c1,0.4,1.8-0.1,2.2-1.7c0.3-1.3,4.9-6.9,10.1-12.6c7.5-8.1,9.5-10.8,9.5-13.1
		c0-1.7-0.4-3.3-1-3.6c-1.4-0.9-6.8,2.2-14,8.1c-6.9,5.8-9.8,6.6-13,3.4c-3.9-3.9-1.9-8.2,9.5-20.1c6.1-6.3,8.8-10,10.3-14l2-5.4
		l1.2,3c0.6,1.6,0.8,4,0.5,5.4c-0.3,1.3-4.7,6.8-9.8,12.3c-16,17.2-15.2,22.5,1.3,9c6.7-5.4,9.7-6.7,12.7-5.3
		c2.8,1.3,6.9,9.3,8.8,17.3c1.6,7,2.1,28.3,0.6,29.3c-1.9,1.1-2.6-2.3-3.2-16c-0.3-7.7-1-14.9-1.6-15.9c-0.9-1.6-1.3-1.4-4.7,2.5
		c-2,2.4-3.9,5.3-4.2,6.4c-0.4,1.7,1.3,8.5,7.6,29.7c0.6,2,0.5,2.8-0.4,2.8c-0.8,0-3.2-6.2-6.2-15.5c-2.7-8.5-5.2-15.5-5.6-15.5
		c-1,0-8.7,9.3-8.6,10.5c0,0.5,0.3,0.9,0.7,0.9c0.3-0.1,2.5-0.4,4.7-0.8l4.2-0.6l-0.5,6.5c-0.6,7.2,1.2,14.5,5.3,20.7
		c2.9,4.5,2.9,4.8,0.4,4.8c-2.6,0-4.4-3-7-11.8c-1.3-4.1-2.6-7-3-6.5c-0.5,0.4-2.4,2.8-4.4,5.2l-3.6,4.3l12.7,9
		c8.7,6.2,12.9,8.6,13.2,7.7c0.2-0.8,2.4-5.4,4.9-10.2c3.2-6.3,6.1-10.2,10-13.8c3-2.7,5.7-4.8,5.9-4.5c0.3,0.2-1.7,3.1-4.4,6.3
		c-5.3,6.4-13.3,20.9-13.3,24.2c0,1.2,1.6,3.1,4.4,5c5.9,4.1,7.9,8.6,8.4,19.1c0.7,14.8-2.5,32.5-10.8,58.6c-2.3,7-3.9,13.3-3.8,14
		c0.2,0.6,3.4-1.1,7.6-4.2c7.1-5.3,7.2-5.5,7.2-10c0-3.6,0.5-5,2.6-6.9c1.5-1.4,3-2.5,3.5-2.5c0.4,0,2.9-1.8,5.5-4
		c4.8-4.2,6.9-4.7,6.9-1.6c0,1.2-2.4,3.3-6.5,5.7c-7.7,4.7-9,6.2-9,10.7c0,4.4-2.8,8.2-9.2,12.5c-6.7,4.5-10.3,8.2-12.2,12.9
		c-2.8,6.7-2.1,9.9,5.4,24.3c3.9,7.4,7,13.7,7,13.9c0,1.3-20.5,1.7-136,2.6c-69,0.5-148.9,1.3-177.6,1.6l-52.1,0.7l-0.6-2.4
		c-1.2-4.3-0.7-20.3,0.7-25.4c0.8-2.8,3.5-12.2,6-21c3.8-13,4.6-17.1,4.4-22.4l-0.3-6.4l9-6.9c16.5-12.6,32-29.5,42.9-47.2
		c9.2-14.6,11.3-26.9,7.6-44.6c-7.8-38.3-29.2-76-66.3-116.8c-13.6-15-53.5-52.7-60.9-57.6c-2.9-2-17.7-8.9-32.8-15.4
		c-32.1-13.9-32.8-14.2-37.6-18.4c-4.4-3.9-26-30.8-29-36.3c-1.3-2.2-3.4-8.7-4.8-14.5c-1.4-5.8-3.9-14.2-5.5-18.8
		c-1.7-4.5-3.1-9.8-3.1-11.6c0-7.3,6.2-16.5,12.4-18.6c5.5-1.7,31.3-3,61.9-3H248v-8.8c0-10.7,2.3-20.8,8.5-36.7
		c9.1-23.6,10.5-25.3,42-51c13.6-11.1,21.4-16.7,27.5-19.8c4.7-2.3,10.3-6,12.5-8.2c4.5-4.5,20.5-30.5,28.4-46.3
		c2.9-5.7,7-12.3,9.3-14.8c5.4-5.8,14.4-10.2,22.8-11c10.2-1,16.7-5.4,8-5.4c-8.2,0-11.2-3.4-22-25c-5.6-11.2-5.8-15.9-0.7-26.2
		c5-10.2,5.3-12.2,2.8-15.4c-1.4-1.8-2.1-4.1-2.1-7c0-5.2-0.6-5.6-12.6-8.9c-14.5-4-20.7-8.8-20.7-16.2c0-8.1,7.1-16.6,21.8-26.1
		c5.5-3.6,13.7-10,18.1-14.3c9.1-8.8,16.8-13,25-13.7c7.5-0.6,11.5,1.1,19.4,8.4c7.4,6.8,7.9,7,18.2,7.8
		c16.1,1.2,40.7,15.7,49.6,29.1c1.7,2.5,5.8,13.1,9.6,24.9c4,12.3,7.5,21.1,8.7,22.2c3.2,2.8,11.6,3,16.3,0.2
		c5.4-3.2,7.8-6.8,8.4-12.6c0.6-6.8-1.6-10.9-10-18.3c-9.4-8.4-12.2-13.3-11.6-20.7c0.3-4.7,1.2-7,5.1-13
		c6.3-9.7,12.6-16.3,20.6-21.6c11.5-7.7,20.8-10.7,39.6-13C596.6-2.2,605.1-2.7,609.5-2.6z M578.3,12.1c-7.8,5.8-9,3.8-1.7-2.8
		c5.4-4.9,5.7-5.3,2.9-4.7c-9.5,2-23.1,9.6-32.5,18.1c-5.7,5.1-16.8,19.5-17.6,23c-1.1,4.3,0.7,7.4,9.1,16.4
		c11.8,12.4,14.6,18.7,12.4,27.5c-0.7,2.5-2.8,6.2-5,8.8c-4.9,5.5-10,7.1-17.8,5.6c-3-0.5-5.7-0.8-6-0.5c-1.2,1.3,4.2,9.7,8,12.5
		c8.9,6.4,17.2,6.1,22.9-0.8c3.9-4.7,9-16.9,9.1-21.9c0.1-2.1,0.4-4.9,0.9-6.3l0.7-2.5l0.8,2.8c1.4,5,0.1,15.9-2.5,21.2
		c-3.3,6.8-9.8,13.1-15,14.5c-9,2.4-20.3-2.6-25.4-11.2c-4.2-7.1-13.7-32.9-14.8-39.8c-1.4-8.8-6-17.1-13.9-25
		c-7.3-7.2-13.9-11.5-25.6-16.5c-7.4-3.2-21.6-6.5-22.8-5.3c-0.3,0.3,2.8,6.2,7,13.2s7.3,13.1,6.9,13.7c-1,1.7-3-0.7-14.9-18.7
		c-6.4-9.5-13.1-18.5-15-20c-7.2-5.5-13.9-4.3-28.4,5c-8,5.1-8.2,5.4-5.6,6c2.6,0.7,2.2,1-6.1,5.8c-16.3,9.3-23.8,15.3-28.6,22.7
		c-3.9,6.2-3.8,10.5,0.4,13.1c1.8,1,3.4,1.8,3.6,1.6c0.2-0.2-0.4-1.8-1.3-3.6c-0.9-1.7-1.3-3.9-1-5c1-3.1,8.8-5.4,18.5-5.4
		c14.5,0.1,24.2,3.6,47.7,17.3c14.2,8.2,23.4,11.6,28.6,10.5c3.2-0.7,3.2-0.8,0.7,5.6c-4,10.2-1.8,18.9,5.8,23.3
		c1.9,1.1,14,4.6,26.9,7.9c13,3.2,24.4,6.3,25.5,6.9c4.3,2.3,1.1,2.4-8.4,0.3c-25.3-5.6-42.5-9.5-44.3-10c-1.8-0.5-1.7-0.3,0.5,1.9
		c1.4,1.4,10.2,6.5,19.5,11.4c21.2,11,23.3,13,34.2,32.8c4.5,8.2,8,15.1,7.8,15.3c-1.5,1.5-5.8-4.1-11.4-14.6
		c-9-17.2-10.8-19-26.7-26.9l-13.3-6.7l-5.2,1.2c-9.4,2.2-11.6,3.8-13.9,10c-3.2,8.4-3.6,14.2-1.4,17c1.7,2,23.4,11.9,23.4,10.6
		c0-1.7-3.5-6.6-6.2-8.8c-4.2-3.3-1.5-3.5,3.2-0.4c5,3.5,11.4,17,15.1,31.9c1.7,6.8,4.3,14.6,5.7,17.4c4.6,8.5,14.8,17.3,18.5,15.9
		c1.7-0.6,10.3-11.2,13.5-16.5c2.5-4.1,5.2-13.9,5.2-18.8c0-2.7,1.6-5.6,8.2-14.3l8.2-11l2.3,2.7c2.4,2.8,2.9,6.7,1.4,10.8
		c-0.6,1.4-0.8,2.7-0.5,2.9c0.8,0.9,18.7-5.9,20.6-7.8c1.1-1,3.4-4.1,5.1-6.8c3.4-5.2,12.6-13.6,11.4-10.3c-0.4,1-1.4,6.4-2.3,12
		c-0.9,5.6-2.2,11.7-3,13.6c-1.9,4.7-1.9,4.7,2.1,1.2c4.1-3.6,6.5-4,6.5-1.1c0,2.8-4.3,11-7.2,13.7c-1.2,1.2-8.6,4.2-16.3,6.8
		c-17.2,5.7-22.4,9.3-26.5,18c-1,2.2-2.2,5.7-2.5,7.7c-0.9,4.6-0.5,4.6,9,1.7c7.8-2.4,34.7-15.5,29.5-14.3c-4.9,1-6.4,1-7-0.1
		c-0.9-1.8,8.5-4.3,23-6c17.6-2.2,23.5-4.2,29.4-10.1c6.1-6.1,8-12,8-25.4c0-15.9-4.4-25.7-16.4-36.5
		c-12.8-11.5-19.1-18.8-22.4-25.9c-5.5-11.6-7.1-24.2-4.2-33.8c2.9-9.7,12-18.8,20.4-20.4c5.5-1.1,13.4,1.2,18.1,5.3
		c8.3,7,10.6,15.6,7.3,27.1c-1.1,4-1.7,7.2-1.3,7.2c1.6,0,10.1-9.9,12.4-14.5c3.2-6.6,3.8-9.3,3.8-17.7c0.1-11.5-6.2-21.2-17-26.4
		c-2.6-1.3-3.1-1.9-1.8-2.2c2.9-0.6,8.4,1.7,13.6,5.9l5.1,4.1l-0.6-3.4c-3.1-16.9-16-26.5-35.9-26.8c-4.4-0.1-4.7-0.2-2.5-1.1
		c3.3-1.4,16.8-1.3,20.4,0.1c1.6,0.6,3.1,0.9,3.3,0.6c1.1-1-6.4-6.7-11.3-8.6C607.2-0.3,591.2,2.3,578.3,12.1z M378.6,58h-9.7
		l1.5,2.8c1.9,3.6,4.4,5.8,8.9,7.7c2,0.8,3.8,1.5,4.1,1.5c0.2,0,1.1-1.9,1.9-4.3c0.8-2.3,1.8-5,2.2-6C388.2,58.2,387.4,58,378.6,58z
		 M393.7,60c-1,0-2.4,1.4-3.4,3.5c-1.4,2.8-1.4,4.1-0.5,7.3c0.9,2.9,0.9,4.6,0,6.9c-0.9,2.4-0.9,3.7,0.1,6.2
		c1.6,3.8,2.7,3.9,3.8,0.4c0.9-2.5,1.2-1.8,3.1,5.9c3.1,12.5,3,13.2-2.9,19c-4.5,4.3-5,5.3-4.5,7.9c0.7,3.4-1,3.9-2.5,0.6
		c-0.7-1.7-0.8-1.4-0.4,1.9c0.3,2.3,1.4,6.1,2.5,8.5c1.1,2.4,1.7,3.4,1.4,2.1c-0.4-1.6-0.1-2.2,1-2.2c2.5,0,26.9,4,27.4,4.5
		c0.3,0.2-1.1,2.6-3,5.2c-3.9,5.4-9,9.3-12.3,9.3c-2.3,0-7.6-3.5-7.3-4.8c0.1-0.4-0.8-2.3-2.1-4.2c-3.2-5-1.8-0.5,2.5,8.2
		c4.3,8.6,5.2,8.7,22.2,3.6c5.6-1.7,10.5-2.8,11-2.3c0.4,0.4,0.3,0.9-0.3,1.2c-4,1.5-11.2,6.3-12.8,8.4c-1,1.5-2.2,4.8-2.5,7.5
		c-0.5,4.7-0.5,4.7-2.3,2.6l-1.8-2.2l-8.9,1.9c-17.6,3.8-20.5,6.2-30.1,24.6c-3.8,7.3-10.3,18.4-14.3,24.6c-4.1,6.3-8.4,13-9.5,14.9
		c-3.2,5.1-8.9,10.2-16.3,14.5c-10.5,6-53.4,39.7-59.1,46.3c-3.2,3.7-6.1,10-13.5,28.4c-1.8,4.6-2,5.8-0.8,5.8
		c1.7,0,1.8-1.1-0.7,11.5c-1.1,5.9-1.9,11.1-1.7,11.7c0.2,0.5,2.3-4.1,4.7-10.2c2.5-6.6,4.7-11,5.4-10.7c0.8,0.2,1.3,4.3,1.4,12.6
		c0.2,17.5,0.9,17.2,3.3-1.4c1-8.4,5.4-19,7.8-19c0.7,0,2.3,3.1,3.6,6.8c2.3,6.8,4.9,10.7,6.3,9.4c1-1.1-2.4-17.7-5.8-28.6
		c-2.8-8.9-2.9-9.4-1.2-10.7c3.3-2.6,9-5.3,27.4-13c19.8-8.2,27.8-12.7,38.2-21.1c6.9-5.7,16.9-16.6,21.5-23.5l2.5-3.9l-3.2-6.6
		c-4.3-8.6-4.5-15.6-0.6-24c4.1-9,6.8-11.3,13.2-11.3c5.2,0,5.3,0.1,4.7,2.4c-0.8,3.1,0.9,8.2,4,12l2.3,3l2.9-3.2
		c2.7-2.9,3.7-3.2,12.9-4.3c5.5-0.7,11.7-0.9,13.8-0.5c5.7,1.1,11.7,7.5,14.1,15.1c1,3.3,2.3,6.6,2.8,7.2c1.1,1.4,16.8,1.9,16.8,0.6
		c0-0.3-1.2-2.6-2.6-5c-1.4-2.5-2.3-5.1-2-6c1-2.4,4,2.2,26.7,39.8c11,18.4,20.8,34.2,21.6,35.1c0.9,1,2.4,1.8,3.4,1.8
		c4.2,0,14.5-12.3,19-22.7c1.2-2.7,5.6-15.9,9.9-29.4s8.5-25.9,9.3-27.5c3.1-5.9,6.8-8.1,24.2-14.5c9.8-3.5,18-7.2,19.4-8.5
		c3.3-3.1,2.1-4-2-1.5c-3.3,2.1-9.9,2.9-9.9,1.3c0-0.5,1.3-2.1,3-3.7c3.9-3.7,6.2-8.8,5.4-12c-0.9-3.7-2.1-3.1-2.8,1.4
		c-0.7,4.4-4.5,9.6-6.5,9c-0.9-0.3-0.6-1.2,0.9-3.2c2.7-3.4,2.8-3.4-13.5,0.2c-7.1,1.6-13.2,2.7-13.4,2.5c-0.3-0.3,0.7-2.9,2.2-6
		c2.8-5.6,3.4-8.8,1.7-8.2c-2.4,0.8-13,16.2-13.5,19.6c-1.5,9.5-2.5,14.3-3.8,17.4c-1.4,3.4-11.5,16.9-23.2,31.3
		c-8.4,10.2-11.7,16.9-12.5,25.4l-0.6,6.6l-1.7-3.7c-2.2-4.8-2.1-7.2,0.3-14.3c1.1-3.2,2-6.8,2-8c0-3.3-14.7-46.1-17.8-51.8
		c-3.6-6.7-11-14.7-17.6-19.1c-6.1-4-10.3-8.6-11.2-12.1c-0.3-1.3-0.4-6.7-0.2-12c0.1-5.2,0.1-9.5-0.2-9.5c-0.4,0-1.1,0.5-1.8,1.2
		c-1.9,1.9-1.4,0,1.2-4c3.9-6.2,6-7.5,12.2-7.7c3-0.1,6-0.7,6.6-1.3c1.5-1.5-7.9-4.3-14.2-4.1c-4.5,0.2-5.6-0.1-7.2-2
		c-1.8-2.3-1.8-2.3,1.9-5.3c3.7-2.9,3.8-3,3.5-9.2c-0.2-3.4,0.2-9,0.8-12.5s0.9-6.5,0.6-6.8c-0.2-0.3-3.5-1.6-7.3-3
		c-3.7-1.3-11.7-5.2-17.8-8.6c-6-3.4-15.5-8.3-21-10.9C400,62.1,394.7,60,393.7,60z M368.8,65c-3.3-2.5-3.7-1.4-0.8,2.2
		c2.1,2.7,8.4,6.2,10.2,5.6c0.6-0.2-0.7-1.6-2.8-3.1C373.2,68.3,370.3,66.1,368.8,65z M401,142.6c-2.5-0.4-3.1-0.3-2,0.4
		c1.4,0.9,6.9,1.5,5.9,0.6C404.7,143.4,402.9,143,401,142.6z M457.3,165c-0.3,0,2.5,2.3,6.3,5.1c9,6.6,10.9,8.4,15.6,14.3
		c3.5,4.5,3.9,4.6,3.2,2c-1.1-5-4-10.8-6.5-13.1c-1.3-1.2-5.9-3.5-10.2-5.2C461.4,166.4,457.7,165,457.3,165z M378,198.6
		c-1.1-1.2-6,4.2-6,6.6c0,3.8,3.1,7.9,7.3,9.9c3.7,1.7,9.7,2.6,9.7,1.5c0-0.3-2.3-4.2-5.1-8.8C381.1,203.2,378.4,199.1,378,198.6z
		 M399.1,210.4c-12,6.1-5.7,12.1,12.2,11.8c5.6-0.1,14-2.6,15.7-4.7c2-2.5,0.3-6.3-3.8-8.4C415.7,205.3,408.5,205.7,399.1,210.4z
		 M367.7,210c-0.3,0-0.1,1.3,0.4,3c1.4,3.8,5.9,7.6,10.7,9c8.1,2.2,9.8,0.6,2.5-2.4c-2.6-1.1-6.6-3.7-8.9-5.8S368,210,367.7,210z
		 M498,219.2c-4.6-4.2-8.1-7-7.8-6.2c0.3,0.8,2.2,6.7,4.3,13c2.1,6.3,4.1,11.9,4.5,12.3c0.4,0.5,2.6-1.4,4.9-4.1
		c3.9-4.8,5-7.2,3.3-7.2C506.7,227,502.6,223.5,498,219.2z M395.8,222.1c-1.6-1.3-2.9-1.7-3.8-1.1c-2.3,1.4,1.8,6,8.1,9.3
		c5.8,3,15.9,4.5,22.3,3.3c6.9-1.3,11.4-7.2,8.7-11.5c-0.8-1.2-2-1.1-8.3,0.6c-10.3,3-15.8,3.6-20.5,2.4
		C400.1,224.5,397.2,223.1,395.8,222.1z M369,222.1c0,2,6.6,4.9,11,4.9l4.5-0.1l-3-1.6C377.5,223.1,369,221,369,222.1z M374.3,229.4
		c-1.4-0.4-2.3-0.2-2.3,0.5c0,1.7,4,2.9,7.8,2.4c4.6-0.7,5-2.3,0.5-2.3C378.2,230,375.5,229.7,374.3,229.4z M392.8,230.2
		c-2.2-1.1-0.3,1.7,2.7,4.1c11,8.8,25.8,11.4,31.5,5.7c1.1-1.1,2-2.6,2-3.4c0-1.2-0.7-1.2-3.7-0.4c-6.7,1.8-19,0.5-25.8-2.7
		C396.2,231.9,393.2,230.4,392.8,230.2z M445,231.1c-8.7,0-9.3,0.1-7,1.4c3.1,1.8,8.4,1.8,13,0C454.3,231.2,454.1,231.2,445,231.1z
		 M387.1,234c-1.9,0.2-6.2,3.3-5.8,4.3c0.2,0.7,5.2,10,11.1,20.7c5.9,10.7,11.6,22.6,12.8,26.3c2.6,8.5,2,15.7-2,22.8
		c-1.5,2.8-3.7,6.9-4.9,9.1c-2.4,4.3-2.3,6.8,0.4,12c0.7,1.6,1.8,2.8,2.3,2.8c1.6,0,13-14.2,20.7-26c10.3-15.7,14.2-20.1,22.4-25.6
		l7-4.6l-0.7-7.2c-0.4-3.9-0.8-7.3-1.1-7.6c-0.2-0.2-1.3,0.1-2.3,0.8c-1.1,0.7-2,0.9-2,0.6c0-0.3,2.3-4.7,5.1-9.7
		c4.6-8.2,8.3-16.6,7.7-17.3c-0.2-0.1-2.8,0.3-5.8,1c-3,0.7-7.2,1.1-9.2,0.8c-5-0.6-11.6,2.7-15.6,7.7c-1.7,2.1-4.6,4.5-6.5,5.5
		c-9.7,4.5-24.7-1.5-30.8-12.4C388.6,235.8,387.4,234,387.1,234z M397.1,239.3c-2.3-1.9-4.1-3-4.1-2.4c0,1.7,6,8.1,9.1,9.6
		c2.7,1.5,11.4,2.3,12.4,1.3c0.3-0.3-2.6-1.5-6.4-2.8C403.9,243.7,399.5,241.4,397.1,239.3z M374.8,238c-0.4,0-3,3.4-5.8,7.5
		c-12,17.8-28.8,31.4-48,38.9c-3.6,1.4-13.5,5-22,8.2c-8.5,3.1-15.9,6-16.4,6.5c-0.6,0.5-0.3,1.6,0.7,2.7c2.6,2.8,5.4,10.2,6.2,15.9
		c0.4,2.9,0.9,5.3,1.2,5.3s3.6-1.1,7.3-2.4c15.5-5.6,31-7.1,57.4-5.6c10.9,0.6,20,0.9,20.2,0.7c0.2-0.2,1-3.8,1.8-7.9
		c2.4-12.7,5.6-16.7,16.5-20.8c4.8-1.8,6.1-2.6,5.6-3.9c-0.3-0.9-5.8-11.4-12.2-23.4C380.9,247.8,375.3,238,374.8,238z M458.7,280.2
		c-1.4,1.2-1.1,2.1,3.1,9c2.5,4.2,4.9,7.5,5.3,7.3c1-0.7,10.9,9.6,10.9,11.3c0,3.6,2.1-0.7,2.7-5.5c0.8-7.4-0.4-14.1-3.2-16.9
		c-3.4-3.4-4.3-3-5.7,2.3l-1.2,4.8l-1.2-5.3c-0.7-2.9-1.7-5.9-2.4-6.7C465.5,278.7,461,278.5,458.7,280.2z M452.6,282
		c-2.6,0.1-9.2,4.5-13.5,8.9c-2.5,2.6-10.2,12.1-17,21.2c-6.8,9-13.8,17.9-15.5,19.8l-3.1,3.5l3-1.9c1.7-1,6.6-3.9,11-6.2
		c10.9-6,16-11.5,17.8-19.6l1.4-6.2l0.7,4.7c0.4,2.7,1,4.8,1.4,4.8c1.5-0.1,23.5-12.6,23.5-13.3c0-0.5-1.9-4.2-4.3-8.3
		C455.7,285.3,453.3,282,452.6,282z M400.2,288.7c-1.2-0.7-11.8,6.1-14.5,9.2c-1.4,1.7-3,5.3-3.7,8.2c-1.2,5-1.2,5.3,1.1,7
		c2.1,1.6,2.2,1.9,0.5,1.9c-2.6,0-1.8,1.4,6.5,12.5c6.9,9.2,8.8,10.5,11.9,8.5c1.2-0.8,1.1-1-0.7-1c-2.8,0-6.1-4.2-7.4-9.6
		c-1.3-5-2.3-6.1-6.4-6.6c-2.8-0.4-2.6-0.6,3.7-3.5c7.2-3.4,8.8-5.4,10.8-13.5c0.9-3.3,0.9-5.6,0.1-8.6
		C401.4,290.9,400.6,288.9,400.2,288.7z M458.5,305.2c-5.8,2.5-13.2,7-37.9,23.1c-14.1,9.2-18.6,11.7-21.3,11.7
		c-3.8,0-4.5-0.6-14.7-12.4l-6-6.9l-34.5,0.6c-31.2,0.4-35.5,0.7-44.3,2.8c-5.4,1.2-9.8,2.6-9.8,2.9c0,0.4,1.1,3.3,2.5,6.4
		c1.4,3.1,2.5,5.8,2.5,6c0,0.2-1.2,0.7-2.6,1c-3.7,1-8.9-1-11.9-4.6c-2.6-3.1-2.7-3.1-4.6-1.2c-1.3,1.4-2.4,4.8-3.3,10.7
		c-1.6,9.4-4.9,16.7-7.7,16.7c-1.6,0-1.9-1.2-2.1-9.8l-0.3-9.7l-3.3,9c-4.5,12.1-4.8,14.4-2.4,19.2c9.3,18.1,31.9,31.1,62.6,36
		c8,1.2,14.3,1.4,30.6,0.9c65.4-2,81-1.8,96.5,1l3,0.5l-3.4-3l-3.5-3l4-1.7c2.1-0.9,6.9-1.9,10.7-2.2c3.7-0.2,6.7-0.7,6.7-1.1
		c-0.1-0.3-18.8-9.4-41.8-20.1c-76.7-35.7-74.8-35-88.5-35c-6.6,0-17.9,1.7-24.2,3.7c-4.5,1.4,0.8-2.7,6.3-4.9
		c4.9-1.9,7.6-2.2,19.7-2.2c12.6,0,14.8,0.2,21.5,2.6c4.1,1.5,25.9,11.7,48.3,22.8c22.4,11,43.1,21,46,22.1
		c3.4,1.4,8.4,2.3,14.4,2.7c11.4,0.6,16.4-1,22-7.1c10.6-11.5,12.9-28.7,5.8-42.7c-2.8-5.5-21.9-32.8-24.7-35.3
		C466.2,302.5,464.6,302.6,458.5,305.2z M255.7,328.3c-0.3-0.2-1.2,2.6-2.1,6.3c-0.9,3.7-1.5,6.8-1.3,7.1c0.3,0.2,1.2-2.6,2.1-6.3
		S255.9,328.6,255.7,328.3z M574,357.1c-19.6,1.3-26.4,3.6-52.5,17.8c-11,6-22.2,11.8-25,13c-6.1,2.7-19.5,6-25,6.2
		c-3.5,0.2-3.2,0.3,2.3,1.2c3.4,0.5,6.2,1.4,6.2,1.8c0,0.5-0.8,0.9-1.7,0.9c-1.2,0-1.4,0.3-0.6,1.1c1.3,1.3,47.6-2.5,56.3-4.6
		c3-0.7,6.9-1.6,8.5-1.9c3-0.6,3-0.6-0.5,1.3c-8.6,4.7-31.7,9.1-47.5,9.1c-4,0-6.5,0.4-6,0.9c0.6,0.5,5.3,2.6,10.5,4.7
		c8.6,3.4,10.3,3.7,18.5,3.7c5.9-0.1,15.4-1.4,27.9-3.7c10.4-2,19.1-3.4,19.5-3.1c0.7,0.8-2,2.5-4,2.5c-0.9,0-6.7,1.1-12.9,2.6
		c-6.2,1.4-16.5,3.1-22.9,3.8l-11.6,1.2l6.4,4.2c3.5,2.3,7.9,4.5,9.9,4.8c7.5,1.4,21.2-0.5,50.8-7.2c29.7-6.8,30-6.8,44.9-6.9
		c17.1,0,22.8,1.2,35.9,7.7c4.3,2.2,8.1,3.6,8.4,3.3c1.6-1.5-6.3-13.8-12.5-19.4c-4.9-4.6-6-6-4.6-6.3c2.8-0.5-11.6-14.5-21.7-21.1
		c-18-11.6-29.3-16-41.3-15.9c-4.9,0-7.5-0.3-6.6-0.8C585.3,356.5,583.9,356.4,574,357.1z M162,367c-7.3,1.7-11.6,5.9-12.5,12.4
		c-0.6,4.1,0,7.1,5,22.9c6.9,21.7,8.3,24.9,13.8,31.5c2.3,2.7,6.6,8.1,9.5,11.9c10.1,13.2,19.7,19.5,46.8,30.8
		c25.5,10.5,51.1,22.5,70.2,32.8c8.6,4.6,19.4,10,23.9,11.8c4.6,1.9,8.3,3.7,8.3,4.1c0,2-5.4,0.1-26-8.7
		c-12.2-5.2-22.4-9.5-22.8-9.5c-0.3,0,10.2,10.9,23.4,24.2c25.9,26.3,36.8,39.1,50.2,59.3c4.8,7.1,11,16.2,13.9,20
		c2.9,3.9,8.4,13.7,12.4,21.8c5.7,11.8,7.3,16.2,8,22c0.5,4,1.7,11.4,2.6,16.6c2,11.8,1.3,22.3-2.2,32.8
		c-5.1,15.1-12,24.4-37.5,50.8c-17,17.6-19,20.5-19,28.2c0,1.6-1.8,8.3-4,14.8c-5.5,16.1-8,27.1-8.3,35.6
		c-0.3,10.8-2.4,10.2,36.8,9.4c18.2-0.3,97-1,175.3-1.5c78.3-0.4,142.6-1.1,142.9-1.4c0.3-0.2-1.1-3.1-3-6.3
		c-8.8-14.6-9.3-21.9-2.9-44.3c7.8-27.2,13.1-55.5,13.5-71.3c0.2-6.1-0.1-7.9-1.7-9.6c-1.1-1.2-10-8-19.7-15.1
		c-9.8-7.2-20.6-15.3-24.1-18c-9.8-7.9-22.5-20.7-29-29.4c-8.6-11.5-17.2-30.6-13.9-30.6c0.6,0,1.1,0.3,1.1,0.7c0,0.5,0.9,1.9,2,3.3
		l2,2.5l-0.6-6.1c-0.8-7.5,1.5-17.3,5.4-22.9c4.3-6.1,11.6-11,22.7-15.1c5.5-2,10.4-4,10.8-4.4c0.4-0.4-3.2-2.2-8-4
		c-13.4-5-26.9-12.3-35.6-19.1c-4.2-3.4-7.5-6.4-7.3-6.6c0.2-0.3,5.6,2.7,11.9,6.5c19.2,11.8,30.3,16.6,42.5,18.7l4.3,0.7l-0.7-2.9
		c-0.9-4.1-5.8-20.3-12.1-40.2c-7-22.4-9.2-25.7-19.7-31.6c-9.6-5.2-28.9-21-56-45.7l-6.8-6.2l5.5,7.3
		c11.4,15.2,20.9,37.3,25.8,60.1c2,9.1,2.3,13.4,2.3,31.5c0,21.8-1.2,31.9-5.5,48.8c-3,11.7-8.2,22.7-10.9,22.7
		c-0.4,0-1.2-2.6-1.9-5.8c-3.8-17.4-10.3-33.2-19.7-47.3c-2.7-4.1-11.2-13.9-18.9-21.9c-26.2-27-32.8-38.3-43.4-73.7
		c-3.3-11.1-6.5-21.2-7.1-22.3c-1.1-2.1-1.6-2.2-9.5-1.5c-7.6,0.6-9.1,0.4-18.1-2.5c-27.3-8.7-52.4-18.3-52.4-20.1
		c0-1.3,8.9,1.1,19.1,5.1c18.5,7.4,36.3,13.8,40.7,14.5c4.7,0.8,13.9,0,16.1-1.4c1.9-1.2,0.8-5.1-3.2-10.2
		C461,418.3,444,411.7,426,410c-9-0.9-32.7,0.3-42,2.1c-8.3,1.6-48.9,2.2-60.2,0.9c-12.6-1.4-26.1-5.1-37.3-10.1
		c-19.6-8.8-32.5-13.9-35.4-13.9c-1.7,0-4.6,0.8-6.5,1.7c-3.2,1.5-5.1,1.5-18.8,0.5c-14.9-1.2-35.5-4.8-52.8-9.2c-8-2-18-6.5-18-8
		c0-1.8,1.8-1.5,9.5,1.6c8.6,3.5,22.2,6.1,54.2,10.5c14.6,2,16.8,2.1,23.2,0.9c5.4-1,8.5-1.1,12.9-0.3c3.1,0.6,5.8,0.9,6,0.8
		c0.2-0.2-2-5-5-10.7c-3.5-6.8-6.1-10.7-7.8-11.5C243.3,362.9,173.6,364.3,162,367z M449.2,403c-0.2,0,3.2,2.9,7.7,6.5
		c8.4,6.8,14.2,13.7,18.1,21.5c1.3,2.5,5.4,13.9,9.1,25.3c7.5,22.6,14.6,38.4,23.5,51.7c7,10.5,18.1,23.8,25.1,29.9
		c13.2,11.5,20.1,23,28.2,46.9c3.1,9.2,6.1,16.7,6.6,16.7c1.1,0,2.4-5.2,5.6-23.2c2.8-15.7,2.3-23.3-2.4-36.8
		c-4.4-12.6-7.6-20.8-12.1-31.3c-2.3-5.3-3.1-8.2-2.3-8.2c0.7,0,4.4,7.3,8.2,16.2c3.7,9,7.9,18.8,9.2,21.8l2.4,5.5l-0.5-12
		c-0.6-14.6-3.4-25.3-10.7-40.5c-14-29-36.6-55.3-61.4-71.2c-13-8.4-29.7-16-40-18.2l-3-0.6l2.8,1.7c2.6,1.7,3.6,3.3,1.9,3.3
		c-0.5,0-4.2-1.1-8.2-2.5C453,404.1,449.5,403,449.2,403z M495.8,411.6c-8-2.8-8-2.8,4.2,4.5c22.4,13.2,41.3,31.9,57.2,56.4
		c6.5,10,7.3,10.4,2.8,1.5c-10.9-21.6-32.6-45.6-50.8-56.3C505.9,415.7,499.8,413,495.8,411.6z M617.1,585c-0.3,0-2.8,1.9-5.3,4.3
		l-4.7,4.3l1.9,6.1c1.8,5.7,1.8,10.3,0,10.3c-0.4,0-1.1-1.5-1.4-3.3c-0.4-1.7-1.3-4.6-2-6.2l-1.3-3l-1.6,3.2
		c-2.5,4.8-2.2,6.9,1.5,8.4l3.1,1.3l-3.4,1.1c-3.2,1.1-3.4,1.5-3.7,6c-0.4,6.1,2.7,16.5,7,23c1.7,2.8,6.8,8.6,11.2,13
		c7.7,7.7,8,7.9,8.7,5.5c1.3-4.6,0.9-15.4-1-24.5c-1-5-3-14.2-4.4-20.6c-1.4-6.3-2.8-15.5-3.2-20.2C618.1,588.9,617.5,585,617.1,585
		z"/>
	<path d="M421.5,84.1h4.5c5.2-0.1,8.8,1.9,12.6,7c4.9,6.5,4.6,7.2-1.2,2.4c-3.3-2.6-8.1-5.8-10.9-7.1L421.5,84.1z"/>
	<path d="M420.4,91c3.4,0,4.6,0.6,8.7,4.9c5.6,5.8,6.9,10,4.2,13.3c-2.1,2.6-2.7,2.8-9.3,3.1c-7.5,0.3-9-1.6-9-11.8
		c0-4.5,0.3-8.5,0.7-8.8C416,91.3,418.1,91,420.4,91z M425.1,103.3c4.9,5.6,6.9,6.4,6.9,2.8c0-1.8-5.1-7.1-8.7-9
		C418.4,94.6,418.9,96.3,425.1,103.3z"/>
	<path d="M680,359.5c1.7,1.5,2,3.1,2,9.6c0,9.2-0.6,11.5-2.6,9.8c-1-0.8-1.4-3.9-1.4-11.2C678,357.8,678,357.7,680,359.5z"/>
	<path d="M631.3,436.2c1.2,14.3,0.9,21.8-0.7,21.8c-2.2,0-7-6.4-8.9-11.8c-1-2.7-3.1-6.2-4.8-7.7l-2.9-2.9v4.3
		c0,2.9,1.7,8.3,5.6,17.2c5.1,12,6.4,17.7,3.9,17.2c-0.5-0.1-3.8-7.6-7.3-16.6c-6.6-16.8-6.9-19-3.8-23.2c1.3-1.9,1.6-1.9,4.8-0.3
		c3.5,1.6,6.4,6.4,9.9,16c1.8,5.1,3,4.8,2.3-0.5c-1.7-13.7-1.9-17.6-1.1-19.6C630,426.4,630.7,427.8,631.3,436.2z"/>
	<path d="M616.5,472c3.2,3.2,4.3,5,3.5,5.5c-0.7,0.4-2.9-0.9-5.4-3.4c-2.3-2.2-4.5-4.1-5-4.1s-0.5,1.7-0.2,3.7l0.6,3.8l-2-2.4
		c-2-2.3-2.5-4.7-1.4-7.4C607.5,465.2,611.5,467,616.5,472z"/>
</g>
</svg>
