<?xml version="1.0" encoding="utf-8"?>
<!-- Generator: Adobe Illustrator 21.0.0, SVG Export Plug-In . SVG Version: 6.00 Build 0)  -->
<svg version="1.1" baseProfile="tiny"
	 id="svg240" inkscape:version="0.92.2 5c3e80d, 2017-08-06" sodipodi:docname="39 #2851.svg" xmlns:cc="http://creativecommons.org/ns#" xmlns:dc="http://purl.org/dc/elements/1.1/" xmlns:inkscape="http://www.inkscape.org/namespaces/inkscape" xmlns:rdf="http://www.w3.org/1999/02/22-rdf-syntax-ns#" xmlns:sodipodi="http://sodipodi.sourceforge.net/DTD/sodipodi-0.dtd" xmlns:svg="http://www.w3.org/2000/svg"
	 xmlns="http://www.w3.org/2000/svg" xmlns:xlink="http://www.w3.org/1999/xlink" x="0px" y="0px" viewBox="0 0 850 850"
	 xml:space="preserve">
<sodipodi:namedview  bordercolor="#666666" borderopacity="1" gridtolerance="10" guidetolerance="10" id="namedview242" inkscape:current-layer="svg240" inkscape:cx="536.51516" inkscape:cy="671.12483" inkscape:pageopacity="0" inkscape:pageshadow="2" inkscape:window-height="978" inkscape:window-maximized="1" inkscape:window-width="1920" inkscape:window-x="0" inkscape:window-y="1" inkscape:zoom="0.83294118" objecttolerance="10" pagecolor="#ffffff" showgrid="false">
	</sodipodi:namedview>
<g id="g238" transform="translate(0.000000,0.000000) scale(1.00000,1.00000)">
	<path id="path4" fill="none" d="M0,0l208.8,0.1c202.3,0,208.5,0.1,203.1,1.8c-3.1,1-8.1,3.2-11.1,5c-4.6,2.6-6.6,3.1-12,3.1
		c-17.2,0-36.6,9.9-46.4,23.6c-4.5,6.3-9.4,19.6-9.4,25.5c0,2.4-0.5,2.9-3.6,3.5c-6.1,1.1-7.4,8.7-1.8,11.2c1.4,0.7,2.4,1.6,2.2,2
		c-0.2,0.4-1.2,2.4-2.3,4.5c-1.9,3.7-1.9,4-0.3,8.5c1.5,4,1.5,4.8,0.3,5.5c-4.1,2.3-5.7,6.3-3.6,9.5c0.5,0.8-0.2,3.1-1.6,6
		c-2.3,4.3-2.4,5.5-1.9,13.7c0.3,4.9,0.9,11.6,1.2,14.8c1,9.2-0.9,14-8.4,21.4c-3.5,3.5-6.8,6.3-7.3,6.3s-0.9-5.6-0.9-13
		c0-10.9-0.3-13.2-1.6-13.7c-2-0.8-6.2,1.5-7,3.9c-0.9,3-2.1,2.1-4-3c-2.3-6.1-3.2-7.2-6-7.2c-1.6,0-2.8,0.8-3.6,2.5
		c-0.9,2-0.6,3.7,1.5,9.5c1.4,3.8,2.3,7,1.9,7c-0.4-0.1-2.5-3.1-4.7-6.8c-4.6-7.7-7.3-8.9-10.1-4.7c-1.6,2.5-1.6,2.7,2.5,10.6
		c2.4,4.5,4,8.3,3.8,8.5c-0.3,0.3-1.8-1.4-3.5-3.7s-4-4.8-5.1-5.5c-1.8-1.3-2.3-1.2-4.1,0.6c-1.1,1.1-2,2.6-2,3.4
		c0,0.8,2.5,5.2,5.5,9.7c6.3,9.4,6.7,11.8,3,19.7c-2,4.3-3.5,5.9-8.6,9c-19.2,11.6-30.3,24.2-35.4,40.1c-2.4,7.5-1.7,20.5,1.6,28.5
		c3.4,8.5,4.9,8.4,4.9-0.2c0-11.3,1-15.9,5-22.5c3.4-5.6,11.5-13.5,12.7-12.3c0.3,0.3-0.6,2-2,3.8c-3.7,5-8.3,16.4-10.1,25
		c-4.5,21.6,1,42,15.2,56.6c5.9,6,15.3,12.5,16.5,11.3c0.5-0.5-1.1-3.3-3.7-6.5c-5.1-6.3-8.5-12.5-11.1-20.4c-2-6.2-1.5-8,0.8-2.5
		c2.9,7.1,9.2,15.2,22.7,29.5c23.9,25.3,28.2,31.8,28.8,44.5c0.5,8.9,0,11.2-3.4,15.2c-2.2,2.7-2.3,3.2-1,3.7
		c4.2,1.6,13.5-5.8,16.7-13.3c1-2.5,1.9-5.1,1.9-5.9c0-2.6,1.8-1.4,3.6,2.3c2.6,5.4,3,14.2,1,20.4c-0.9,2.8-5.1,12-9.3,20.5
		c-8,16.4-9.5,22.1-7.3,27.4l1.3,3.1l6.6-6.4c6.6-6.4,17.1-13.7,24.4-17c2-0.9,3.7-1.4,3.7-1c0,0.3-2.4,3.8-5.4,7.7
		c-30.6,39.9-37,49.3-47.5,70.1c-11.8,23.4-19.9,51.8-24.2,84.2c-0.6,4.6-0.9,16.6-0.7,27c0.4,16,0.8,20.6,3.2,30.8
		c5.1,22.4,11.3,39.9,22.1,63c1.8,3.8,4.7,13,6.5,20.3c5.5,23.2,13,41.1,24.5,58.6c23.2,35.3,65.8,63,106.8,69.6
		c11,1.8,6.9,1.8-210.5,1.9L0,850V425V0z"/>
	<path id="path6" fill="none" d="M642.8,0.1L850,0v425v425l-187.7-0.1c-184.8-0.1-187.6-0.1-177.8-1.9c25.4-4.6,47.4-16.9,69-38.5
		c6.6-6.6,19.3-20.6,28.1-31c20.5-24.2,29.7-33.6,36.2-36.9c2.9-1.5,5.2-3.2,5.2-3.8c0-2.4-12.7-13.4-19.5-17
		c-9.3-4.8-22.2-9.2-31.7-10.8c-5.3-0.9-7.8-1.7-7.8-2.6c0-2.7,13.9-30,19.9-38.9c6.8-10.4,17.8-21.3,25.1-25c2.8-1.4,5-3,5-3.6
		s-3-2.4-6.7-4.1c-19.7-8.9-42.3-13-60.8-10.9c-15.8,1.8-16,1.8-26,5.1c-24.5,7.8-46.6,24.1-64,47c-10.5,14-24,30.4-28.7,35.1
		c-7.4,7.4-18,14.4-27.2,18.1c-7.1,2.8-9.6,3.2-19.7,3.6c-13.3,0.5-20.3-0.9-31.4-6.2c-7.7-3.6-15.7-10.2-18-14.7
		c-2.2-4.1-3.8-22.8-3.1-34.4c0.9-14.9,4.1-32.6,8.1-45c4.7-14.3,15.8-36.7,24-48c12.9-17.9,36.6-41.3,70-69.1
		c23.4-19.4,48.5-44.2,54.6-53.9c13.6-21.5,15.9-37.7,9.2-67.2c-0.6-2.6,3.2-9.6,7.4-13.5c4.2-4,15.2-11,21.3-13.7
		c13-5.7,22.4-10.2,25.3-12.3l3-2.2l-0.7,2.5c-3.5,12.5-3.7,14-2.6,19.4c1.5,7,3.6,7.3,4.6,0.7c1.2-8.7,4.9-13.7,24-32.7
		c20.5-20.3,21.7-21.7,27.5-33.5c10.5-21.3,14.2-38,12-54.9c-2.1-15.7-5.6-22.7-24.2-48.1c-13.7-18.7-15.6-21.9-18-29.2
		c-1-3.3-1.9-6.3-1.9-6.6s2.4,1.7,5.3,4.5c2.8,2.7,10.8,8.9,17.7,13.7c15.7,11.1,18.5,13.7,22.1,20.8c2.4,4.7,2.9,7,2.9,12.9
		c0,5.1,0.3,7,1.2,6.7c3.5-1.2,3.5-23.4,0.1-32.3c-4.1-10.7-9.5-17.3-23.8-29c-13.1-10.8-14.3-13.1-19.6-36.6
		c-4.6-20.6-7.2-27.7-13-35.5c-6.3-8.2-13.2-12.8-29.5-19.3c-8.1-3.3-17.5-7.9-21-10.2l-6.3-4.3l0.6-4.1c0.5-4.3-1.2-7.5-4.1-7.5
		c-0.8,0-1.6-1.9-2-5c-0.9-7-5.4-11.6-16.6-17.5c-5.7-2.9-9-5.2-9-6.2c0-2.7-3.1-5.3-6.3-5.3c-1.9,0-4.3-1.2-7.2-3.8
		C457.7,8.1,450,4,442,1.9C435.7,0.2,442.7,0.1,642.8,0.1z"/>
	<path id="path8" fill="#FFA500" d="M428.5,3.3c10.8,0.2,12.7,0.5,18.5,3.2c5.9,2.6,12.3,6.9,16.5,11.1c0.8,0.9,1.4,2.8,1.3,4.4
		c-0.4,5.4,5.4,8.8,10,5.9c1.4-0.9,3.1-0.5,8.2,2.1c15,7.5,20.5,16.3,15,23.8c-2.5,3.4-1.7,6.8,2.1,8.7c1.5,0.8,3.2,1.5,3.8,1.5
		c0.5,0,4.5,2.4,8.8,5.2c4.3,2.9,12.4,7,17.8,9.1c5.5,2.1,12.9,5.2,16.4,7c15.4,7.7,24.6,23.1,28.1,46.8c1.3,8.9,5.6,22.5,8.5,27.1
		c1.3,2,6.7,7.1,11.9,11.3c5.3,4.2,11.4,9.7,13.6,12.3c5.2,6,10.7,17.3,11.5,23.7l0.6,5l-2.2-4.3c-2.7-5.3-8.3-10.3-24.9-22.2
		c-14.8-10.6-20.5-16.3-24.3-24.3c-3.6-7.8-4.9-13.1-5.2-21.7c-0.2-9.3-1.9-10.8-2.3-2.1c-0.3,7.3,1.9,19.4,4.6,24.8
		c1.1,2.1,2.2,6.4,2.5,9.6c0.9,8.7,6.9,19.9,21,38.7c14.4,19.4,17.5,24.7,21.2,36c3.4,10.5,3.7,23.1,1,33c-1,3.6-2,7.7-2.2,9.2
		c-0.9,5.1-1.8,2.9-2-5c-0.1-8.7-3.6-21.2-7.9-29.2c-3.8-6.9-9.1-12.9-22.3-25c-15.3-14.1-22-23.7-26-37.3c-3-9.9-3.2-11.1-4-28.3
		c-0.8-14.9-1.1-16.9-3.6-22.1C539.4,130.7,512,106,512,112c0,0.5,4.4,4.4,9.7,8.7c20.4,16.2,23.8,23.1,24.7,50.3
		c0.4,13.5,0.8,16.6,3.1,23c4.9,13.8,9.5,20.1,28.6,39c15.9,15.8,18,18.2,21.1,25c2.4,5,4.1,10.8,5.2,17.5c2,12.4,2,13.7,0,23.3
		c-2.7,13.7-7.1,19.9-29.6,42.2c-14,13.8-20.3,20.8-21.7,24c-1.8,4-2.1,4.2-2.1,1.8c0-6.3,5.9-17.5,20-37.8
		c12.6-18,16.7-30.9,13.6-42.9c-1.9-7.3-6.3-16.8-8.2-17.5c-2.2-0.8-1.6,1.6,1.9,8.4c3,6,3.2,6.9,3.2,16.9c0,9.9-0.2,11.1-3.2,17.4
		c-4.1,8.6-23.4,36.7-26.5,38.6c-1.2,0.8-3.4,2.1-4.8,3c-2.5,1.6-2.4,1.5,0.3-1.8c6-7.2,11.3-20.9,14.1-35.9c0.5-2.8,0.3-3.3-1.2-3
		c-1.2,0.2-1.9,1.7-2.4,5.8c-1.1,8.7-6.5,22.4-11.5,29.1c-5.4,7.1-11.1,11.4-26.2,19.4c-13.5,7.2-19.4,11.5-23.9,17.5
		c-1.9,2.5-3.7,4.6-4.1,4.7c-0.3,0.2-2-2.4-3.8-5.6c-2.3-4.2-2.9-6.1-2.1-6.9s-0.3-2.6-4.1-6.7c-2.8-3.1-5.1-6-5.1-6.3
		c0-0.4,7.1-0.7,15.8-0.7c11.1-0.1,18-0.6,23.7-1.8c9.4-2.1,23.1-8.4,27.4-12.8c2.9-2.8,3.1-3.6,3.1-9.8c0-4.7-1-10-3-16.9
		c-1.6-5.6-3-10.9-3-11.8c0-0.8,2.6-4.6,5.9-8.2c11.3-12.9,15.3-22.6,15.3-37.4c0-4.8-0.3-9.2-0.7-9.8c-1.6-2.7-2.3,0-2.7,11.5
		c-0.5,11.4-0.7,13-3.6,18.8c-1.7,3.5-6,9.7-9.5,13.8c-10.6,12.5-15,19-16.3,24.4l-1.2,5l-0.1-6.9c-0.1-8.7,1.3-13.4,6.5-22.1
		c15.3-25.3,17.9-35.4,13.8-53.8c-1.5-6.6-3.3-10.6-14.1-30.5c-3.9-7.1-6.6-20.3-6.1-30.4c0.3-7-1.6-9.3-2.8-3.2
		c-2,10.9,1.5,26.1,9.2,40.2c10.3,18.7,12.4,24.9,12.4,37.1c0,6.2-0.7,10.4-2.3,15.2c-2.7,8-8.8,18.4-9.8,16.6s-4.5-16.8-6.8-28.7
		c-3.3-17.5-5.9-28.3-7.6-32.4c-0.9-2.1-1.4-4-1.2-4.3c1.1-1.1,4.9,2.5,6.9,6.5c1.7,3.6,2,5.5,1.4,10.3c-0.4,4.5-0.3,5.9,0.7,5.9
		c2,0,5.1-9.9,5.1-16c-0.1-8.5-2.8-12.6-14.4-22c-13.5-10.9-17.6-15.4-19.6-21.2c-1.5-4.6-1.5-5.1,0.7-11.6
		c1.3-3.7,3.3-9.6,4.5-13.2c1.2-3.6,3-10.6,4-15.7c1.6-8,1.7-10.2,0.6-16.5c-2.9-17.1-14.5-30.4-31.2-35.6
		c-4.8-1.6-7.3-1.9-25.5-3.7c-8.8-0.9-20.1-2.3-25.1-3.1c-9.3-1.4-27.8-7.3-23.5-7.4c1.4,0,3.5-1,4.8-2.2l2.3-2.1v2.6
		c0,5.3,9.4,7.7,10.7,2.7c0.5-1.9,0.7-1.9,3.5,0.5c3.7,3.1,5.3,3.1,8.2,0.2c2-2,2.6-2.2,4.2-1c2.8,2,6.3,1.6,8.8-1.2
		c1.6-1.7,2.6-2.1,3.4-1.3c2.9,2.9,10.2-0.3,10.2-4.5c0-1.9,0.1-1.9,1.8-0.4c1,1,2.9,1.7,4.2,1.7c2.7,0,6-2.6,6-4.8
		c0-1,0.6-1.2,1.8-0.7c3.9,1.6,5.3,1.7,7.7,0.1c1.4-0.9,2.5-2.3,2.5-3c0-1.2,0.6-1.2,2.9-0.3c3.6,1.3,7.7-1,8.7-5
		c0.6-2.1,0.2-3.1-2-5c-1.5-1.3-3.6-2.3-4.7-2.3c-1.9,0-5.3,2.8-6.1,5c-0.3,1-0.9,1-2.6-0.1c-1.9-1.2-2.6-1.2-5,0.1
		c-1.5,0.9-2.8,2.6-3,3.8c-0.3,2.1-2.2,3.2-2.2,1.2c0-1.6-6.7-1.2-8.4,0.6c-0.9,0.8-1.6,2.5-1.6,3.6c0,2-0.1,2-1.8,0.5
		c-3.1-2.8-10.2-1.5-10.2,1.8c0,1.7-1.6,2-2.5,0.5c-1.2-1.9-7.3-1.1-8.9,1.2c-1.5,2-1.6,2.1-3.4,0.5c-2.7-2.4-5.9-2.1-8.7,0.9
		c-1.8,1.9-2.5,2.2-2.5,1.2c0-0.9-1.3-2.1-3-2.8c-2.5-1-3.4-1-5.3,0.3c-2.2,1.4-2.4,1.3-3.9-1.4c-1-1.6-2.5-3-3.5-3
		c-1-0.1-0.4-0.4,1.2-0.8c1.8-0.3,3.4-1.5,4-2.9c0.5-1.2,1.4-2.1,2-1.9c4.3,1.6,5.4,1.6,7.8-0.4c1.5-1.1,2.7-2.7,2.7-3.6
		c0-0.9,0.6-1.3,1.5-0.9c0.8,0.3,2.1,0.8,2.8,1.1c2.2,0.9,6.7-3.3,6.7-6.3c0-2,0.3-2.3,1.2-1.4c3.2,3.2,9.8-0.4,9.8-5.3
		c0-2.3,0.2-2.5,2.1-1.5c1.1,0.7,3.2,0.9,4.5,0.6c2.6-0.7,4.9-4.9,4-7.3c-0.4-0.9,0.3-1.3,2.1-1.3c3.5,0,6.3-2.7,6.3-6.1
		c0-3.6-2.4-5.9-6-5.9c-3.5,0-6,2.3-6,5.6c0,1.6-0.6,2.4-1.8,2.4c-3,0-6.2,2.9-6.2,5.7c0,2.3-0.2,2.5-3.5,1.9
		c-2.9-0.6-3.9-0.3-6,1.8c-1.4,1.4-2.5,3.1-2.5,3.9c0,0.9-0.9,1.2-3,0.9c-3.6-0.5-7,2-7,5.2c0,1.5-0.3,1.7-1.2,0.8
		c-2.1-2.1-6.5-1.4-8.6,1.3c-1.6,2-2.5,2.3-5.4,1.8c-2.8-0.4-4-0.1-5.7,1.6c-1.1,1.1-2.1,2.9-2.1,3.8c0,1.5-0.1,1.5-1.2,0.1
		c-2-2.3-4.3-2.8-7.1-1.3c-2.4,1.2-2.6,1.2-2.9-1.2c-0.2-1.4-1.2-3.2-2.3-3.9c-3-2-6.5,0.6-6.5,4.7c0,2.7-0.2,2.9-2,1.9
		c-2.8-1.5-7.2,0.7-8,3.9c-0.5,2.1-0.7,2.2-1.9,0.7c-1.8-2.2-6.4-2-8.6,0.3c-1.7,2-1.7,2-4.7-0.2c-2.8-2.1-3-2.1-6-0.4
		s-3.1,1.7-4.6-0.4c-1.1-1.6-2.2-2-4.8-1.7c-3.2,0.4-3.4,0.2-3.4-2.8c0-9.2,4.6-21.3,11.2-29.4c7.4-9.3,23.7-17.4,37.3-18.6
		c7.9-0.7,8-0.7,6.2,1.3c-1.6,1.8-1.4,3.3,0.4,3.3c0.5,0,3.2-2.1,6-4.6c4.7-4.2,10-7.1,16.9-9.5C415.4,3.5,421.9,3.2,428.5,3.3z"/>
	<path id="path10" fill="#FF00FF" d="M474,23.1c0,2.5-0.4,2.9-2.9,2.9c-3.3,0-4.6-2.2-3.1-5.1C469.9,17.5,474,19,474,23.1z"/>
	<path id="path12" fill="#FF00FF" d="M462,28.9c1.8,3.4-1,6.8-4.5,5.5c-1.5-0.6-2.1-5.5-0.8-6.7C458,26.3,461,27,462,28.9z"/>
	<path id="path14" fill="#FF00FF" d="M453.9,37.9c1.4,2.6-0.8,5.4-3.9,4.9c-2.5-0.3-3.6-2.7-2.6-5.4
		C448.2,35.4,452.7,35.7,453.9,37.9z"/>
	<path id="path16" fill="#FF00FF" d="M441.2,43.1c2.6,1.4,3.3,3.6,1.7,5.5c-1.5,1.9-4.8,1.5-6.3-0.8c-0.8-1.3-0.6-2.2,0.8-3.7
		C438.9,42.5,439.7,42.3,441.2,43.1z"/>
	<path id="path18" fill="#FF00FF" d="M431.8,50.2c3.4,3.4-1.3,8.5-4.9,5.2c-2.3-2.1-2.4-2.8-0.3-4.8
		C428.5,48.7,430.2,48.6,431.8,50.2z"/>
	<path id="path20" fill="#FF00FF" d="M417.6,54c1.4,0,4.4,2.7,4.4,4s-3,4-4.4,4c-3.1,0-4.7-4.5-2.4-6.8C415.9,54.5,417,54,417.6,54z
		"/>
	<path id="path22" fill="#FF00FF" d="M507,57.7c0,1.7-3.5,3.4-5.4,2.7c-1.8-0.7-2.7-2.9-2-4.9C500.8,52.5,507,54.3,507,57.7z"/>
	<path id="path24" fill="#FF00FF" d="M385,58c1.5,0,2,0.7,2,2.9c0,1.7-0.5,3.3-1.1,3.7c-1.4,0.8-2.9-1.4-2.9-4.4
		C383,58.7,383.6,58,385,58z"/>
	<path id="path26" fill="#FF00FF" d="M492.5,59.9c1.3,4.2-1.9,6.9-5.4,4.5c-2.4-1.7-2.7-3.4-0.9-5.2C488,57.4,491.8,57.7,492.5,59.9
		z"/>
	<path id="path28" fill="#FF00FF" d="M409.9,60.9c0.8,1.4,0.6,2.3-0.9,3.6c-3.1,2.8-7.1-0.1-5.6-4C404.2,58.4,408.7,58.6,409.9,60.9
		z"/>
	<path id="path30" fill="#FF00FF" d="M396.8,63.2c1.7,1.7,1.5,4.3-0.4,5.9c-3.1,2.6-7-2.5-4.4-5.6C393.5,61.7,395.2,61.6,396.8,63.2
		z"/>
	<path id="path32" fill="#FF00FF" d="M480.8,65.1c0.4,3.4-2,5.4-4.7,3.9c-2.3-1.2-2.7-4-0.9-5.8C477.3,61.1,480.5,62.2,480.8,65.1z"
		/>
	<path id="path34" fill="#FF00FF" d="M379,66.1c1.5,2.7-0.5,5.1-3.9,4.7c-2.9-0.3-3.9-3.1-2.1-5.3C374.8,63.4,377.8,63.7,379,66.1z"
		/>
	<path id="path36" fill="#FF00FF" d="M332.8,66.3c1.8,2.1,0.3,5.7-2.4,5.7c-2.9,0-4.6-2.8-3.3-5.2C328.2,64.7,331.3,64.4,332.8,66.3
		z"/>
	<path id="path38" d="M401.7,66.2c1.7,1.4,1.6,2.8-0.1,2.8c-0.8,0-1.4-0.9-1.3-1.9C400.4,65.6,400.7,65.4,401.7,66.2z"/>
	<path id="path40" fill="#FF00FF" d="M339.4,66c3.9,0,4.9,7.2,1,7.8c-3.1,0.4-4.7-2-3.4-5.2C337.5,67.2,338.6,66,339.4,66z"/>
	<path id="path42" fill="#FFA500" d="M384.1,67.6c1.7,1.5,2.2,1.6,2.9,0.4c1-1.7,1.5-1.3,2.4,1.7c0.5,1.7,0.4,2.2-0.6,1.8
		c-2.7-1-5.7,3.2-5.9,8.2c-0.1,2.3-0.2,2.4-0.6,0.6c-0.5-2.7-3.9-5.3-7-5.3c-6.3,0-7.3,10.1-1.1,12.3c0.8,0.2-1.5,3.4-5.9,8
		c-17.9,18.9-25.1,36-21.8,51.9c1.5,7.6,5.6,16.2,13,27.8c10,15.6,11.4,24.1,5.8,36.2c-3.2,6.9-5.9,9.9-24.5,27.3
		c-7.7,7.2-8.8,8.6-10.3,13.9c-1.1,3.7-1.6,8-1.3,11.7c0.5,7-0.6,6.7-2.8-0.8c-2.3-7.8-1.5-16.7,2.1-23.5c4-7.7,6-10,15-17.6
		c10-8.5,11.9-12.1,11.2-20.8c-0.5-6.6-0.8-7.2-12.2-21.8c-7.2-9.3-10-17.8-9.8-30.3c0.1-5.1-0.3-9.5-0.7-9.8
		c-1.6-1-2.3,6.6-1.7,16.4c0.8,11.8,3.5,17.9,13.8,30.8c11.6,14.7,11.7,20.2,0.1,30.8c-16.6,15.1-21.1,22.2-22,34.5
		c-0.4,6.1-0.1,8.1,2.2,13.8c2.8,7.2,8.3,14.9,9.7,13.5c0.5-0.5,0.2-3.3-0.6-6.3c-0.8-3-1.5-8.2-1.5-11.6c0-9.7,3.1-14.6,16.7-26.6
		c17.6-15.4,22.4-23.3,22.4-36.7c0-9-1-11.6-11.4-28.5c-8.9-14.6-10.6-19.4-10.7-29.8c0-9.1,1.7-15.3,6.2-22.6
		c1.9-3.1,2.1-3.2,3.3-1.5c1.9,2.8,5.5,14.3,6.6,21.4c2.6,16.4,10.7,25.8,30.7,35.8c9.1,4.5,9.2,4.6,8.6,7.6
		c-0.9,4.4-5.2,13.1-8.1,16.5c-1.4,1.7-4.2,3.4-6.5,4c-5.7,1.6-11.7,7.6-16.1,16.4c-2.8,5.5-6.7,10.7-13.9,18.4
		c-10.8,11.6-14.2,16.5-17,25c-2.3,6.9-2.3,14-0.1,20.9c1.6,5.2,1.6,5.4-0.7,9.6c-1.2,2.3-2.6,4.6-3,5s-2.7-2.5-5.1-6.5
		c-4.5-7.5-12.3-18.1-23.7-32.5c-5.4-6.7-6.6-8.8-6.6-11.9c-0.1-3.5-0.5-4.1-3.8-5.6c-4.3-2.1-4.3-2.1-2.3-5.2
		c2.1-3.1,1.1-7-2.2-8.5c-2.5-1.1-2.5-1.2,7.8-11.9c11.3-11.7,18-19.9,21-25.9c2-3.9,2.6-11.3,0.9-11.3c-0.5,0-1,0.7-1,1.5
		c0,2.9-4.1,12.4-6.9,15.9c-1.5,1.9-8.1,9-14.6,15.8l-11.8,12.3l0.6-8c0.5-7,1.2-9.2,6.1-19c6.2-12.5,7.6-16.4,7.6-21
		c0-2.8,1-4.2,7-9.5c12.1-10.7,14.8-17.7,12.4-31.9c-1.9-11.8-1.8-16.4,0.7-22.2c1.8-4.2,2.5-4.9,5-4.9c1.5,0,3.1-0.5,3.5-1.1
		c0.3-0.6,1.7-0.8,3.1-0.4c2.9,0.7,6.8-1.5,7.8-4.4c0.6-1.9,0.7-1.9,3.5-0.3c2.7,1.5,3.2,1.6,5.7,0.2c2-1.1,2.9-2.6,3.3-5
		c0.3-2.3,0.8-3.1,1.3-2.3c0.9,1.4,4.5,1.7,7.2,0.7c3.7-1.5,3.8-8.2,0.1-10.6c-3.6-2.4-9.6,0.6-9.6,4.8c0,2.1-0.2,2.3-2.5,1.2
		c-3.6-1.6-7.4,0.3-8.2,4.2c-0.6,3-0.6,3-2.1,0.9c-1.4-2.1-5.2-2.3-9.2-0.5c-1.2,0.5-2-0.5-3.4-4.3l-1.8-5l2.8-4.9l2.7-4.9l3,1.5
		c2.7,1.3,3.1,1.3,5.8-0.7c2.3-1.7,2.9-1.8,2.9-0.7c0,3.6,7.6,4.8,10.5,1.6c1.5-1.7,1.9-1.7,3.2-0.5c3.1,3.1,10.3,0.9,10.3-3.1
		c0-1.3,0.2-1.3,1.6,0C375,75.8,382,73,382,68.3C382,65.7,382,65.7,384.1,67.6z"/>
	<path id="path44" fill="#FF00FF" d="M469,67.9c1.5,2.9,0.2,5.1-3,5.1c-3.3,0-4.9-3.2-3-5.5C464.7,65.4,467.7,65.6,469,67.9z"/>
	<path id="path46" fill="#FF00FF" d="M366,68.4c1.6,2.1,0.9,6-1.3,6.4c-4,0.8-6.4-4.7-2.9-6.7C364.1,66.7,364.6,66.8,366,68.4z"/>
	<path id="path48" fill="#FF00FF" d="M353.4,68.6c2.1,0.8,2.1,4.8,0,6.5c-3.1,2.6-7-2.5-4.4-5.6C350.4,67.8,351.1,67.7,353.4,68.6z"
		/>
	<path id="path50" fill="#FF00FF" d="M457,74.6c0,1.4-0.8,2.5-2,2.9c-4.4,1.4-7-4.8-2.7-6.4C455.1,70,457,71.4,457,74.6z"/>
	<path id="path52" fill="#FF4500" d="M398.1,71.1c0.3,0,0.4,1.3,0.1,2.9c-0.3,2.1,0.2,3.8,1.4,5.1c1.8,2,1.8,2.1-0.8,0.8
		c-1.5-0.6-3.2-2.5-3.8-4.2c-1.3-3.8-1.3-3.5,0.8-4C396.7,71.4,397.8,71.2,398.1,71.1z"/>
	<path id="path54" fill="#FF00FF" d="M407.5,76c-0.5,1.6-1.4,2-3.2,1.8c-3.4-0.4-5.1-3.1-3.4-5.2C403.7,69.2,408.8,71.9,407.5,76z"
		/>
	<path id="path56" fill="#FF00FF" d="M443.4,73.6c2.1,0.8,2.1,4.8,0,6.5c-3.1,2.6-7-2.5-4.4-5.6C440.4,72.8,441.1,72.7,443.4,73.6z"
		/>
	<path id="path58" fill="#FF00FF" d="M393,76c1.5,2.8-2.2,6.5-5,5c-1.9-1-2.7-4.9-1.3-6.3S392,74.1,393,76z"/>
	<path id="path60" fill="#FF00FF" d="M419.4,76.6c2.4,2.3,0.3,5.6-3.2,5.2c-3-0.3-4.1-3-2.2-5.3C415.6,74.6,417.5,74.6,419.4,76.6z"
		/>
	<path id="path62" fill="#FF00FF" d="M432.8,77.3c0.6,2.9-2.6,5.9-4.9,4.6c-1.9-1-2.6-4.9-1.2-6.3S432.5,75.5,432.8,77.3z"/>
	<path id="path64" fill="#FF00FF" d="M378.4,79.2c1.5,2.1,1.4,2.4-0.4,4.3c-1.6,1.5-2.4,1.7-3.8,0.9c-2.2-1.4-2.7-4.1-1.2-5.9
		C374.8,76.4,376.6,76.7,378.4,79.2z"/>
	<path id="path66" fill="#ADD8E6" d="M403.2,84.8c4,1.6,10.9,3.7,15.3,4.7c4.4,1.1,8.2,2,8.4,2.2c0.2,0.1-1.1,1.4-2.8,2.8
		c-1.7,1.5-3.1,3.3-3.1,4.1c0,2.5,3.5,1.5,7.1-2.2l3.4-3.5l10.9,0.6c16.4,0.8,27.6,5.1,37.6,14.2c3.8,3.4,4,3.8,4,9.7
		c0,7.8-2.4,13-6.2,13.4c-2.2,0.3-3,1.1-3.8,4c-1.3,4.8-3.1,7.5-11.3,16.6c-7,7.7-17.5,16.7-27.4,23.3c-4.9,3.2-6.6,3.8-11.8,4
		c-9.1,0.2-24-5.8-38.7-15.6c-9-6.1-13.1-11.9-15.7-22.1c-1-4.1-1.8-7.6-1.7-7.7c0.1-0.1,2.2,0.7,4.6,1.9c7.4,3.7,17.8,2,25.6-4.1
		l2.4-1.9l-4.7-4c-6.7-5.5-10.9-7.5-15.3-7c-4.2,0.4-4.5-0.6-0.5-1.6c1.6-0.4,4.3,0.1,7.2,1.4c5.4,2.4,5.3,2.4,5.3,0.7
		c0-2.4-7.4-5-12.1-4.4c-5.5,0.7-8.9,3.3-11.6,8.7c-1.8,3.5-2.4,4-2.9,2.4c-0.3-1-1.7-4.7-3.1-8.2c-2.3-5.6-2.4-6.6-1.2-8.8
		c3-5.7,24.1-26.5,25.5-25.2c0.2,0.3-0.3,2.4-1.1,4.8c-2.1,5.9-1.9,10.2,0.6,13.4c2.4,3,3.6,3.2,6.1,0.9c2.6-2.4,2.4-8.9-0.6-13.8
		l-2.5-4l2.2-1.2C394.4,81.6,395.1,81.7,403.2,84.8z M432.3,100.6c-3.5,1.8-7.8,7.7-6.8,9.4c0.3,0.5,2.5-1.1,4.9-3.5
		c3.2-3.3,5-4.5,7.2-4.5c2.8,0,2.8,0.1-1.2,1.9c-2.3,1-5,3.2-6,4.7c-2.6,3.8-6.9,13.3-6.3,13.9c1.6,1.6,12.1,1.6,17.5,0
		c6.9-2,14.4-8.6,14.4-12.7c0-2.5-4.6-7.6-8.7-9.7C444.2,98.5,436,98.8,432.3,100.6z M365.8,106.4c-3.8,2.5-3.5,4,0.4,2
		c6.3-3.2,8.7-3.5,15.1-1.3c3.3,1.1,6.6,1.8,7.4,1.5c2.8-1.1,0.6-3-4.8-4.2C374.8,102.2,371.3,102.6,365.8,106.4z M473.9,106
		c-1.4,0-2,1.8-0.9,2.5c3.6,2.2,2.9,13.2-0.7,11.8c-1.1-0.4-1.4-0.2-1.1,0.8c0.8,2.4,5.1,1.7,6.6-1.1c1.6-3.2,0.9-9.5-1.4-12.1
		C475.5,106.9,474.3,106,473.9,106z M399,112c-1.4,0-1.3,0.4,2.2,7.3c3.3,6.6,3.8,10.9,2.3,20.5c-0.7,4.7-0.6,5.5,1.5,7.7
		c2.5,2.6,7,3.4,7,1.2c0-0.6-1.5-1.9-3.3-2.7c-2.5-1.2-3.1-2-3-4c0.2-1.4,0.6-5.2,0.9-8.6c0.7-6.8-0.5-11.8-4.2-17.7
		C401.1,113.7,399.5,112,399,112z M410.4,139.1c-0.2,0.4,0.9,1.5,2.5,2.4c2,1,2.8,2,2.5,3c-0.4,0.9,0,1.5,0.9,1.5
		c2.2,0,2.8-2.5,1.2-4.8C416,139.1,411.3,137.7,410.4,139.1z M434.4,149.1c-1.7,1.7-4,2.2-11.8,2.9c-7.4,0.6-11,1.5-15,3.5
		c-4.1,2-6.1,2.5-8.5,2c-2.5-0.5-3-0.4-2.5,0.8c0.3,0.8,2,2.1,3.7,2.8c1.8,0.7,4.4,2.5,5.9,4.1c2.3,2.4,3.4,2.8,8.3,2.8
		c7.5,0,10.4-1.7,15.8-9.3c2.5-3.5,5.2-6.9,6.1-7.6c0.9-0.8,1.6-2,1.6-2.7C438,146.4,436.8,146.7,434.4,149.1z"/>
	<path id="path68" fill="#00008B" d="M447.7,108.6c0.7,1,1.3,2.6,1.3,3.6c0,2-3.4,5.8-5.2,5.8c-0.6,0-0.3-0.6,0.7-1.4
		c1.4-1,2-2.6,2-5.6C446.5,107.4,446.6,107.1,447.7,108.6z"/>
	<path id="path70" fill="#00008B" d="M452,107.5c0.6,0.3,1,1.2,1,2s-0.4,1.7-1,2c-0.6,0.4-1-0.5-1-2S451.4,107.1,452,107.5z"/>
	<path id="path72" fill="#00008B" d="M432,114.9c0,0.4,1.2,2,2.6,3.5l2.7,2.6h-4.7c-4.9,0-5.3-0.5-3.4-4.5
		C430.3,114.1,432,113.1,432,114.9z"/>
	<path id="path74" fill="#FF0000" d="M426.5,155c-1.1,0.4-4.9,1.3-8.5,1.8c-3.6,0.6-7.6,1.4-9,1.7c-2.4,0.6-2.4,0.6-0.5-0.7
		c1.1-0.7,4.3-1.8,7-2.4C421.5,154,429.6,153.7,426.5,155z"/>
	<path id="path76" fill="#FF0000" d="M427,158.9c0,1.6-5.8,5.9-9.6,7.1c-3.2,1.1-3.9,1-6.2-0.7c-3.7-2.8-3.7-3.9,0-4.2
		c1.8-0.1,5.8-0.8,8.8-1.5C426.9,157.8,427,157.8,427,158.9z"/>
	<path id="path78" fill="#FF00FF" d="M365.2,86.5c1,2.1,0.9,2.9-0.5,4.3c-1.3,1.3-2.1,1.4-3.5,0.6c-2.1-1.4-2.8-5.4-1-6.5
		C362.5,83.4,364,83.9,365.2,86.5z"/>
	<path id="path80" fill="#C71585" d="M390.2,91.5c2.2,5,2.2,6.9,0.2,8.6c-1.3,1-1.7,1-2.5-0.2c-1-1.7-1.1-6.4-0.2-9.9
		C388.3,87.6,388.4,87.7,390.2,91.5z"/>
	<path id="path82" fill="#FF00FF" d="M354.1,93.1c0.9,1.8,0.7,2.5-0.9,4.2c-1.8,1.7-2.3,1.8-3.6,0.7c-1.6-1.3-2.2-5.1-0.9-6.3
		C350,90.3,353,91.1,354.1,93.1z"/>
	<path id="path84" fill="#FF00FF" d="M338.6,94c1.4,0,4.4,2.7,4.4,4c0,1.4-3,4-4.6,4c-2.1,0-3.8-4.9-2.3-6.6
		C336.7,94.6,337.8,94,338.6,94z"/>
	<path id="path86" fill="#FF8C00" d="M471.5,96.6c16,3.7,25.6,11.1,31.9,24.4c2.8,6,3.1,7.3,3,16.5c0,9.2-0.4,11.3-5.1,26
		c-7,22-8.7,29.6-8,35.7c0.5,4.1,0.4,4.8-0.7,3.9c-1.8-1.5-5.2-9.6-6.1-14.2c-0.8-4.4,1.2-12.8,5.9-24.9c4.9-12.5,6.1-17.7,5.9-25.5
		c-0.1-8-2.8-16.4-7.1-22.7c-4.1-6-12.3-13.8-18-17.1C469.3,96.4,469,96,471.5,96.6z"/>
	<path id="path88" fill="#FF00FF" d="M332.3,99.2c0.8,2.8-1,5-3.7,4.6c-2.1-0.3-3.2-2.8-2.2-5.4C327.3,96.1,331.7,96.7,332.3,99.2z"
		/>
	<path id="path90" fill="#FF8C00" d="M488.3,116.7c0.5,0.3,2.3,3.5,4.1,7.2c2.7,5.8,3.1,7.6,3.1,15.6c0,7.4-0.5,10.1-2.7,15.5
		c-7.8,19.4-8.8,22.8-8.8,30.5c0,4.3,0.6,9,1.4,11c1.9,4.4,0.6,4.4-3.8,0.1c-8.6-8.6-10.3-24.5-5.1-48.1c2.3-10.6,3.3-13.5,5.6-16
		c2-2.2,3.1-4.8,4-9.7C486.8,119,487.8,116.3,488.3,116.7z"/>
	<path id="path92" fill="#00008B" d="M388,123.5c1.7,1,1.1,5.1-1.1,7.9c-1.2,1.5-2.4,2.5-2.6,2.2c-0.3-0.3,0.4-1.7,1.6-3.3
		c1.5-1.8,2-3.5,1.6-5.1C387.1,123.7,387.3,123.1,388,123.5z"/>
	<path id="path94" fill="#00008B" d="M372.1,127.3c0.4,1.6,1.3,3.5,2,4.3c1.8,2.1-0.5,1.7-2.5-0.5c-1.3-1.4-1.6-2.7-1-4.3
		C371.3,124.5,371.3,124.5,372.1,127.3z"/>
	<path id="path96" fill="#00008B" d="M393.2,127.8c1.1,1.1,0.3,3.2-1.2,3.2c-0.4,0-0.6-0.9-0.3-2.1
		C392.1,127.6,392.6,127.2,393.2,127.8z"/>
	<path id="path98" fill="#5F9EA0" d="M290.4,142.7c3.3,7.8,5,18.4,4.3,26.7c-0.6,6.8-2.7,10.2-2.7,4.3c0-2.4-0.5-4-1.5-4.3
		c-1.2-0.5-1.3-2-0.9-7.7c0.6-6.1,0.2-8.5-2-15.5c-1.4-4.6-2.4-8.8-2.1-9.3C286.7,135.1,287.5,136.1,290.4,142.7z"/>
	<path id="path100" fill="#5F9EA0" d="M280.4,149c6,9.8,6.9,15.5,3.9,22.7c-1.6,3.7-1.9,6.2-1.6,10.9c0.5,5.9,0.4,6.1-3.5,10.7
		c-2.2,2.5-4.6,6.3-5.2,8.3c-1.4,4.3-0.8,13,1,14.7c1,1,1.1,0,0.7-4.7c-0.7-7.1,0.6-10.7,6-16.6c3.7-4.2,3.8-4.5,4.3-13.3
		c0.3-5,1-9.2,1.5-9.4c1.3-0.4,4.5,11.8,4.5,16.8c0,2-0.7,5.6-1.5,8c-0.9,2.4-1.4,5.2-1.1,6.2c0.2,1,0,3.2-0.6,5
		c-0.5,1.8-1.1,7.5-1.4,12.7c-0.5,12.4-0.5,12.2-2.3,11.4c-2.4-1-5.3-0.7-6.9,0.9c-2.1,2.2-5.4-1.4-9.8-10.9
		c-5.5-11.8-5.3-16.2,1.2-28.4c2.8-5.2,5.7-11.8,6.3-14.6c1.5-6.1,0.6-8.7-5.9-18.5c-2.8-4.3-3.8-6.5-3.1-7.2
		c0.6-0.6,1.2-0.9,1.4-0.6c10.3,13,11.8,15.9,11,20c-0.5,2.5-0.3,3.1,0.8,2.7c1.1-0.4,1.4-2.5,1.3-9c-0.1-7.9-0.3-9-3.7-15.1
		c-2.1-3.6-3.7-7.5-3.7-8.6C274,139.4,275.5,140.8,280.4,149z"/>
	<path id="path102" fill="#5F9EA0" d="M474.6,141c0.3,0,0.3,0.7,0,1.6c-1.3,3.3-3.6,22.9-3.6,29.8c0.1,12.1,3.4,22.4,8.5,26.4
		c1.4,1.1,2.5,2.1,2.5,2.3s-2.4,0.5-5.2,0.7c-5.9,0.4-6.3,0.6-5.3,2.2c0.5,0.9,3.1,1,9.1,0.5l8.4-0.7l6.8,6.6
		c4.6,4.5,8.4,7.1,11.5,8.2c7.8,2.7,9.5,5.7,14.8,26.3c1,4.1,1.9,8.4,1.9,9.7s1.8,10.3,4,20c2.2,9.8,4,18.5,4,19.5
		c0,0.9-1.4,4.7-3.1,8.4c-1.8,3.6-3.7,9.8-4.3,13.6c-0.9,6.3-1.2,6.8-3.1,6.2c-1.1-0.3-4.5-0.9-7.5-1.2l-5.4-0.6l-1.2-7
		c-0.7-3.9-3.3-12.9-5.9-20c-4.6-12.7-6.8-20-8.5-28c-1.1-4.9-3.3-11.3-5.4-15.4c-2-3.8-4.4-4-8.6-0.5l-3.1,2.6l-3.9-2.6
		c-6.9-4.6-17.8-6.9-29.9-6.4c-10.2,0.4-11,0.6-20.1,5.1c-5.2,2.5-11.9,6.5-14.9,8.7c-2.9,2.3-5.4,4-5.6,3.8
		c-0.1-0.2-1.2-2.1-2.3-4.4c-3.6-7-12.3-13.3-20.7-15c-2.2-0.5-4.3-0.7-4.7-0.6c-0.5,0.1-0.8-0.3-0.8-0.8c0-0.6,0.9-1,1.9-1
		c3.3,0,13.1-14.6,11.5-17.1c-0.7-1.2-3.4,0.7-3.4,2.5c0,0.6-1.6,3.4-3.5,6.2c-2.5,3.6-4.8,5.6-7.5,6.7c-2.2,0.8-4,1.2-4,0.7
		c0-1.9,10.4-23.6,12.7-26.7c5.1-6.7,15.2-10.3,28.8-10.3c9.4,0,18.5-7,18.5-14.2c0-3.4,2.3-5.7,10.8-11.1
		c3.4-2.2,9.5-6.7,13.5-10.2C460,159,474,143.8,474,142C474,141.4,474.3,141,474.6,141z M438,197.9c0,2.9,2.5,4.4,6.4,3.7
		c4.2-0.8,6.6-3.3,4.1-4.2c-0.9-0.4-2.1-0.2-2.8,0.5c-1.6,1.6-4.7,1.4-5.3-0.4C439.6,195.4,438,195.6,438,197.9z"/>
	<path id="path104" fill="#5F9EA0" d="M302.5,161.3v18.2l-3.8,7l-3.7,7v-4.2c0-2.3-0.4-5.3-0.9-6.6c-0.7-1.9-0.6-2.7,0.4-3.1
		c2.4-0.9,3.5-7.6,3.5-21.2c0-8.8,0.4-13.4,1.2-14.2C302.1,141.3,302.5,143.1,302.5,161.3z"/>
	<path id="path106" fill="#FF4500" d="M411.9,179.9c1.1,0.7,1.1,1.5,0.1,4.7c-3.1,9.5-6.7,14.4-10.6,14.4H399l2.9-5.3
		c1.6-2.8,3.5-7.3,4.2-10C407.2,179,408.8,177.9,411.9,179.9z"/>
	<path id="path108" fill="#FF8C00" d="M418.5,181.5c8.3,1.7,7.8,1.4,7.1,4.8c-1.1,5.6-9.2,11.7-15.4,11.7c-0.6,0,0.4-3.2,2.3-7.2
		s3.5-7.8,3.5-8.5C416,181.4,416.9,181.1,418.5,181.5z"/>
	<path id="path110" fill="#FF4500" d="M496.4,190c0.2,0,1.6,2,2.9,4.3c2.8,4.8,6.4,8.1,17.9,17.1c8.9,6.8,11.9,10.5,12.8,15.8
		c0.9,4.5,0,4.9-1.8,0.9c-1.7-3.7-7.1-7.4-15.4-10.4c-3.7-1.3-7.9-3.2-9.4-4.1c-3.9-2.6-7.4-11-7.4-17.9
		C496,192.6,496.2,190,496.4,190z"/>
	<path id="path112" fill="#FF8C00" d="M264,196c0.4,0,0.1,1.9-0.7,4.2c-0.8,2.3-1.3,6.9-1.2,10.1c0.3,6.8,0.2,6.9-9.5,11.9
		c-11.2,5.7-18.4,15.3-21.1,28.3l-1.2,6l-0.8-5.8c-1.1-8.9,0.2-17.1,4-24.6c4.1-8.2,13.7-18.8,22.8-25.2
		C260.2,198.2,263.6,196,264,196z"/>
	<path id="path114" fill="#FFA500" d="M263.4,218.8l3.1,6.2c2.8,5.8,2.9,6.2,1.2,7.2c-4.4,2.4-3.6,9.4,1.2,10.4
		c5.3,1.1,5.3,1.2,2.9,4.4c-1.9,2.7-2.1,3.4-1.1,6.1c0.9,2.3,0.9,4.6,0.1,8.7c-2,11,1.1,25.9,7.4,35c1.7,2.4,7.5,8.8,12.8,14.1
		c5.6,5.5,11.8,12.8,14.5,17.1c2.6,4.1,6.4,9.5,8.5,12c5.2,6.4,6.4,10.2,6.4,20c0,9.5-1.6,14.1-6.7,19.1c-1.6,1.7-3.1,2.9-3.2,2.7
		c-0.2-0.2,0.3-2.7,1-5.6c1.1-3.9,1.2-6.7,0.5-10.4c-2.5-13.2-6.5-19.7-22.9-37.1c-22.9-24.4-29.5-33.4-33.1-45.5
		c-3.6-11.9-2.3-24.1,4.5-41.5c0.5-1.1,0.2-1.7-0.6-1.7c-2.3,0-6.9,12.4-8.1,21.8c-1.2,10.3-0.4,29.3,1.6,34.9
		c0.8,2.3,2.8,6.8,4.5,10.2c3.5,7.1,2.1,7-4-0.4c-8.9-10.8-12.9-22.2-12.9-36.9c0-17.8,6.9-35.3,18.3-46.7L263.4,218.8z"/>
	<path id="path116" fill="#FF1493" d="M295.4,229.6c2.1,2.1,0.3,5.7-2.6,5.2c-3-0.4-4.5-3.2-2.9-5.2
		C291.6,227.6,293.4,227.6,295.4,229.6z"/>
	<path id="path118" fill="#FF1493" d="M273.6,239.5c-1.5,2-4.4,1.7-5.9-0.7c-0.8-1.2-0.7-2.1,0.2-3.2
		C270.9,232,276.4,235.7,273.6,239.5z"/>
	<path id="path120" fill="#FF1493" d="M285.1,235.6c1.7,2.1,0,4.9-3.2,4.9c-2.7,0-3.7-2.8-1.9-5
		C281.6,233.6,283.4,233.6,285.1,235.6z"/>
	<path id="path122" fill="#FF8C00" d="M365.7,234.3c0.6,0.7-2.4,7.5-4.6,10.4c-1.8,2.2-3.1,5.9-8.3,23.1c-0.5,1.8-2.2,6.1-3.8,9.5
		l-2.8,6.2l-1.3-3c-0.7-1.7-1.2-5.8-1.2-9.2c-0.1-8.6,5.6-20,14.9-30.1C362.2,237.2,365.4,234.1,365.7,234.3z"/>
	<path id="path124" fill="#5F9EA0" d="M290,236.7c3.1,0.8,4.3,2.9,3.1,5.2c-2.5,4.6,0.4,9.5,5.8,9.6c2.2,0,4,1.6,9.3,8.1
		c19.8,24.3,33.4,47.7,32.2,55.2c-0.5,3.4-0.3,4.2,1.7,5.6c1.3,0.9,3.5,1.6,4.9,1.6s4.2,1,6.3,2.3l3.8,2.3l-7.1,5.2
		c-3.8,2.9-7,5.6-7,5.9c0,1.6,3.5,4.3,5.7,4.3c1.2,0,2.3,0.4,2.3,0.9c0,1.6-10.9,11.1-12.7,11.1c-2.5,0-8.9-3.5-14.2-7.8
		c-8.8-7.1-18.7-22.1-26.7-40.1c-8.8-20.1-17.9-48.3-16.4-51.1c1.9-3.5,1.1-6.8-2-9c-1.6-1.2-3-3-3-4.1c0-1.9,0.1-1.9,3.1,0.3
		c2.8,2.1,3.2,2.1,5.7,0.7c1.7-0.9,2.8-2.5,3-4.1C288,236.8,288.5,236.3,290,236.7z"/>
	<path id="path126" fill="#FF1493" d="M301.6,244.2c0.9,2.9-2,5.7-4.4,4.2s-2.7-4.5-0.7-6C298.6,240.8,300.7,241.6,301.6,244.2z"/>
	<path id="path128" fill="#FF1493" d="M370.9,243.4c7.7,1,15.1,3.9,19.1,7.3c3,2.6,8.3,10.2,10.8,15.4c0.1,0.3-2.3,0.9-5.5,1.3
		c-4.5,0.5-6.9,0.2-11.3-1.4c-7.9-3-17.6-8-21.2-11c-2.8-2.4-3-2.8-1.8-5.1c0.7-1.3,2.2-3.5,3.4-4.7
		C366.2,243.1,367.1,242.9,370.9,243.4z"/>
	<path id="path130" fill="#FF1493" d="M455.5,247.1c6.3,1.1,16.6,5.5,17.2,7.5c0.2,0.6-0.7,1.6-1.9,2.3c-1.9,0.9-3.2,0.9-6.7-0.4
		c-9-3.1-19.9-1.5-37.4,5.6c-7.4,3-11.4,4.1-16.2,4.2c-5.2,0.2-6.2-0.1-5.7-1.3c1.5-4.3,10.4-10.2,23.5-15.6
		C437.4,245.7,444.2,245.1,455.5,247.1z"/>
	<path id="path132" fill="#FF1493" d="M280,250.9c0,2.6-2.5,4.4-5,3.6c-2.5-0.8-2.7-5-0.3-6.4C277,246.9,280,248.5,280,250.9z"/>
	<path id="path134" fill="#FFA500" d="M282,273c4.8,15.1,10.2,29.5,13.3,35.5l2,4l-4.4-4c-10.1-9.1-16.1-17.8-17.9-26
		c-1.2-5.5-1.5-18.8-0.4-23C275.7,255.2,277.2,258.1,282,273z"/>
	<path id="path136" fill="#FF1493" d="M363.3,259c5.5,4.4,19.1,9.9,27.5,11.2c4.5,0.7,8.2,1.5,8.2,1.9c0,0.9-6.6,2.7-12.7,3.5
		c-2.9,0.3-9.1,0.3-13.9-0.1c-7.7-0.6-9.1-1-11.5-3.5c-3.2-3.2-4.5-8.4-3-12.3C359.2,256.5,359.9,256.4,363.3,259z"/>
	<path id="path138" fill="#FF1493" d="M471.9,264.1c4.5,4.8,1.7,9.2-8.2,12.6c-8.1,2.8-30.3,2.5-42.2-0.6c-11-2.8-12.8-3.7-10-4.7
		c1.1-0.4,5.2-2.1,9-3.7c3.9-1.6,11.1-4.4,16-6.2C451.3,255.9,465.2,257,471.9,264.1z"/>
	<path id="path140" fill="#FF1493" d="M405.8,270.4c1.7,1.7,0.9,4.6-1.3,4.6c-2.1,0-3-2.7-1.4-4.6
		C404.2,269.1,404.5,269.1,405.8,270.4z"/>
	<path id="path142" fill="#FF4500" d="M357,272.5c1,0.9,2.2,3.5,2.6,5.8c0.4,2.7,1.8,5.3,3.8,7.3c3.2,3.2,4.4,6.9,7.9,24.1
		c1,4.9,0.9,5.5-1.7,9.4l-2.8,4.1l-3.1-3c-4.3-4-6.2-4.8-12.6-5.6c-3-0.4-5.7-0.9-6-1.2c-0.3-0.3-1.5-3.3-2.8-6.6l-2.2-6.2l3.8-6.5
		c3.5-6,5.5-10.2,9.8-20C355,271,355.2,270.9,357,272.5z"/>
	<path id="path144" fill="#FF1493" d="M399.9,275.6c0.9,0.8-4.2,5.2-9,7.9c-4.3,2.3-6.2,2.7-13.3,2.7c-4.6,0-9.3-0.5-10.5-1.1
		c-2-1.1-5.7-6.9-4.8-7.7c0.2-0.2,2.8,0.1,5.8,0.7c6.5,1.4,21.9,0.6,27.4-1.4C397.7,275.9,399.7,275.4,399.9,275.6z"/>
	<path id="path146" fill="#FF1493" d="M416.8,277.7c4.2,1.3,10.6,2.7,14.2,3.1c12,1.3,29.5,0.6,34.4-1.4c3.4-1.3,0,3.2-4.9,6.6
		c-7.4,5.1-10.6,6-21,6c-8.2,0-10.4-0.4-14.8-2.5c-5.8-2.7-15.7-10.9-15.7-13C409,275.5,410.9,275.8,416.8,277.7z"/>
	<path id="path148" fill="#5F9EA0" d="M403.9,277c0.2,0,3.3,2.7,6.7,6c15.2,14.6,36.1,16.7,52,5.1c3.6-2.5,4.7-2.8,14.3-3
		c5.8-0.1,10.8-0.4,11.3-0.7c0.4-0.3,0.8-0.3,0.8-0.1c0,0.7-5.9,10.9-13.8,23.9c-3.9,6.4-8.4,14.3-9.9,17.6
		c-3.1,6.9-3.5,7.1-16.5,10.6c-5.1,1.4-12,3.4-15.3,4.6c-4.2,1.4-6.1,1.7-6.4,0.9c-0.7-2.2-4.1-4.9-6.3-4.9c-2.9,0-5.8,2.8-5.8,5.5
		c0,5.6-9.8,3.1-20.9-5.3c-4.5-3.4-9-6.2-10-6.2c-2.5,0-3.6-1.6-5.5-8c-0.8-3-2.9-10-4.5-15.5s-3.1-11.8-3.5-14l-0.5-4h7.3
		c6.1-0.1,8.3-0.6,13.7-3.2c3.5-1.8,7.7-4.6,9.3-6.2C402.1,278.4,403.6,277,403.9,277z"/>
	<path id="path150" fill="#B8860B" d="M494.1,282c0.4,0,1.1,1.7,1.8,3.7c0.6,2.1,2.8,9.1,5,15.5c2.1,6.4,4.2,13.5,4.6,15.8
		c0.6,3.6,0.5,4-1.3,4c-2.4,0-27.1,6.3-32.9,8.4c-2.5,0.9-4.3,1.1-4.3,0.5c0-1.5,5.4-11.6,10.9-20.4c2.7-4.4,7.4-12.4,10.3-17.7
		C491.1,286.4,493.8,282,494.1,282z"/>
	<path id="path152" fill="#5F9EA0" d="M538,313c0.5,0,1,0.2,1,0.5s1.1,4.7,2.4,9.8c3.8,14.3,4,16.7,1.7,20.4
		c-2.6,4.1-10.2,8.5-22.1,12.5l-9.5,3.3H490c-11.8,0-30.2-0.4-40.8-0.9c-19.1-0.9-19.3-0.9-18.8-3.1c0.7-2.8-1.9-6.5-4.7-6.5
		c-4.2,0,0.7-3.1,8.1-5c3.9-1,14.1-4.1,22.9-6.9c40.5-12.9,52.6-15.1,63.8-11.7c3.8,1.1,4.1,1.5,6,7.6c2.4,7.4,4.5,9,4.5,3.5
		c0-3.2,0.2-3.6,2-3c1.4,0.4,2,0.2,2-0.8c0-0.8-0.9-2.2-2-3.2c-2.6-2.3-2.5-2.8,1-10.3C535.6,315.8,537.4,313,538,313z"/>
	<path id="path154" fill="#5F9EA0" d="M352.3,317.9c6.3,1.7,10.7,4.3,10.7,6.3c0,1.6-3.7,0.8-7-1.7c-1.9-1.4-4.4-2.5-5.6-2.5
		c-3.1,0-7.4-1.7-7.4-3C343,315.6,344.6,315.7,352.3,317.9z"/>
	<path id="path156" fill="#FF4500" d="M375.8,322.7c1,2.9,0.9,3.3-0.6,3.3c-3.6,0-4.6-1.6-3.2-5
		C373.4,317.6,374.2,317.9,375.8,322.7z"/>
	<path id="path158" fill="#5F9EA0" d="M364.3,327c1.4,0-0.4,1.7-5.3,5c-8.8,6.2-11,7.3-11.8,6.6c-0.6-0.7,0.5-1.5,9.6-7.9
		C359.8,328.7,363.2,327,364.3,327z"/>
	<path id="path160" fill="#5F9EA0" d="M375.5,330c1.6,0.7,1.2,0.9-1.8,0.9c-4.8,0.1-9.2,2.2-14.5,6.7c-2.2,1.9-4.6,3.4-5.4,3.4
		c-2.9-0.1,10.8-9.9,15.4-11C373.4,329,373.2,329,375.5,330z"/>
	<path id="path162" fill="#5F9EA0" d="M384.2,333.9c1.3,0.5,5.5,3.4,9.3,6.5c7.3,5.9,15.6,9.3,19.9,8.2c2.8-0.7,8.5,0.7,6.8,1.8
		c-1.4,0.8-1.6,5.5-0.3,7.5c0.7,1.1-0.2,2.2-3.7,4.5c-6,3.9-14.4,4.4-25.9,1.4c-7.6-1.9-15.6-2-22-0.2c-1.7,0.5-2.3,0.2-2.3-0.9
		c0-2.4,2.2-3.6,9.8-5.3c6.8-1.5,7.2-1.8,7.2-4.4c0-2.5-4.5-9.9-6.9-11.5c-1.6-0.9-1.3-2.5,0.5-2.5c0.8,0,6.2,4.4,11.8,9.9
		c11.2,10.7,15,12.8,21.9,11.7c4.5-0.8,6.7-2.1,6.7-4.2c0-1.2-0.5-1.2-3,0.1c-7,3.6-13.6,0.7-25-11c-10.1-10.3-13.1-11.3-21.6-7
		c-5.7,2.9-8.8,3.4-6.4,1.1c0.8-0.8,3.7-2.6,6.4-4C372.5,332.9,379.7,332.2,384.2,333.9z"/>
	<path id="path164" fill="#FF1493" d="M422.4,346.1c-1.1,0.9-2,1-3.2,0.2c-2.4-1.5-2.7-4.4-0.7-5.9
		C422.3,337.6,426,343.1,422.4,346.1z"/>
	<path id="path166" fill="#FF8C00" d="M372.4,341.8c2.7,2.4,7.6,9.3,7.6,10.7c0,0.7-2.1,1.5-5.2,1.9c-6.8,0.9-10.2,2.8-11.8,6.6
		c-1.8,4.3,0,6.3,4.8,5.4c6.6-1.3,7.7-1.1,7.5,1.3c-0.1,1.1-1.6,4.4-3.3,7.3c-1.6,2.8-3,5.6-3,6.3c0,0.7-0.9,1.8-2,2.5
		c-1.4,0.8-2,2.3-2,5c-0.1,2.9-1.4,5.6-6.4,12.7c-3.4,4.9-7.3,9.5-8.7,10.2c-1.3,0.7-6.4,3.1-11.2,5.3c-5.9,2.7-11.4,6.3-16.3,10.6
		c-4.6,4.1-7.4,5.9-7.4,4.9c0-3.8,6.7-14.1,15.6-24.1c11.3-12.7,16.1-19.6,20.1-28.5c2.6-6,2.8-7.3,2.9-20.1
		c0-15.5,0.6-17.2,5.9-16.2c2.3,0.4,4.4,0,7.1-1.4C370.2,340.3,370.6,340.3,372.4,341.8z"/>
	<path id="path168" fill="#FFA500" d="M325.5,351c1,1.1,4.2,2.9,7.1,4c6,2.2,8.2,1.8,13.9-2.5c2.8-2.2,3.3-2.3,3.9-0.9
		c1.3,3.4,0.6,17.1-1.3,23.5c-2.4,8.6-6.7,15.2-18,27.8c-5,5.6-10.3,12-11.7,14.1c-1.5,2.2-2.8,4-3,4s3.1-6.7,7.3-14.9
		c6.4-12.8,7.6-15.8,8-21.4c0.7-8.6-0.1-12.3-4.1-19c-1.9-3.1-3.8-8-4.3-11.1C322.2,348.6,322.7,347.9,325.5,351z"/>
	<path id="path170" fill="#FF1493" d="M425.4,351.2c1.6,0.2,2.1,1,2.1,3.3c0,2.5-0.4,3-2.4,3c-3.2,0-4.9-2.8-3.1-5
		C422.7,351.6,424.3,351,425.4,351.2z"/>
	<path id="path172" fill="#008080" d="M466.5,363c-0.8,1.2-41.7,14-44.8,14c-3.2,0-17.6,8.2-21.1,12c-2,2.2-3.7,4-3.9,4
		s-1-1.9-1.7-4.3c-1.9-6.5-4.4-10.8-9.4-16.4c-2.5-2.8-4.6-5.6-4.6-6.2c0-1.4,6.4-0.8,13.4,1.4c6.3,1.9,13.7,1.9,18.3,0
		c4.4-1.8,4-1.9,4.6,0.5c0.3,1.1,1.7,2.5,3.1,3.1c2.1,1,3,0.9,5.2-0.6c2.3-1.5,2.6-2.2,2.1-5.6l-0.5-3.8l6.2-0.3
		C445.9,360.2,467.3,361.6,466.5,363z"/>
	<path id="path174" fill="#FF1493" d="M422.5,362c3.3,0,4.7,5.3,1.7,6.9c-3.7,2-7-2.7-4-5.7C420.9,362.5,421.9,362,422.5,362z"/>
	<path id="path176" fill="#C71585" d="M472.2,363.1c0.3-0.1,2.9,2.7,5.8,6l5.1,6.2l-2.3,2.4c-2.9,3.1-9.8,6.7-16.8,8.7
		c-3.2,0.9-15.2,2.2-28,3c-15.1,1-24.7,2.2-29.2,3.4c-3.8,1.1-6.8,1.6-6.8,1.1c0-0.4,1.9-2.4,4.2-4.4c7.1-6,15.7-9.4,39.3-15.6
		c14.7-3.8,18.8-5.2,24-8.3C469.7,364.3,471.8,363.1,472.2,363.1z"/>
	<path id="path178" fill="#C71585" d="M379,370c2.7,0,15.4,20,13.7,21.6c-0.2,0.3-2-0.9-3.8-2.6c-3.3-2.9-12.6-8-14.8-8
		c-1.7,0-1.3-1.3,1.5-6.4C377,372.1,378.5,370,379,370z"/>
	<path id="path180" fill="#FF1493" d="M484.8,383.4c1.7,1.7,0.9,4.6-1.3,4.6c-2.1,0-3-2.7-1.4-4.6
		C483.2,382.1,483.5,382.1,484.8,383.4z"/>
	<path id="path182" fill="#5F9EA0" d="M380.6,386.9c4.8,2.8,9.1,6.9,12.5,12c1.5,2.3,1.6,2.3,4.5,0.8c9.5-5.2,15.7-6.7,28.4-6.7
		c4.1,0,12.5-0.5,18.5-1.1c6.1-0.6,12.5-1.1,14.3-1.1c1.7,0,3.5-0.4,3.8-0.9s1.8-0.9,3.4-0.9c1.5,0,4.8-1.1,7.1-2.5
		c5.3-3,5.9-3,5.9-0.6c0,2.9,2.5,4.4,6.4,3.7l3.4-0.6l2.7,8.2c5.8,18.1,5.6,32.5-0.8,48.4c-8.2,20.2-20.1,32.8-73.1,77.7
		c-40.3,34.1-59.3,55.8-73.2,83.7c-5.4,10.8-11.9,27.5-13.4,34.5c-4.8,22.5-5,24.5-5,44.6c0,18.3,0.3,21.4,3,35.1
		c1.7,8.2,3,15.2,3,15.4c0,1.1-10-7.2-16.8-13.9c-9.7-9.5-14.9-16.9-20.7-29.7c-13.1-28.7-20.1-54.4-23-83.5
		c-1.1-11,2.2-40.5,6.7-60.5c5-22.2,11.9-41.2,21.8-59.7c5.7-10.6,19-31.1,26.7-41c21.9-28.2,27.7-35.8,34-44.6
		c4-5.6,7.7-10.2,8.3-10.2s1.4-0.5,1.8-1.1s1.7-1.6,2.9-2.3c1.9-0.9,2.1-1.5,1.3-3.6C373.8,383.3,374.4,383.4,380.6,386.9z"/>
	<path id="path184" fill="#FF1493" d="M372,386.9c0,2.6-1.7,3.6-3.6,2.1c-1.1-1-1.2-1.6-0.3-2.6C369.8,384.4,372,384.7,372,386.9z"
		/>
	<path id="path186" fill="#5F9EA0" d="M581.9,630.2l9.4,2.3h-12.9c-20.6,0.1-35.4,4.8-54,17.1c-11.4,7.6-28.7,24.4-41.7,40.3
		c-40.6,50.2-41.5,51.1-59.2,57.1c-30.3,10.2-55.5,7.1-80.5-9.8c-8.8-6-9.7-7.2-11.3-16l-0.7-3.3l5.2,4.5
		c11.7,10.2,28.3,15.4,45.8,14.2c11.5-0.7,17.4-2.2,26.8-7c14.2-7.2,24.1-16.9,45.7-45.1c14.9-19.5,27.8-31.9,42.3-40.7
		c7.9-4.8,22.3-11.2,27.3-12.2c1.3-0.2,5.3-1.1,8.9-2c3.6-0.8,7.9-1.7,9.5-2C550,626.4,572.6,627.9,581.9,630.2z"/>
	<path id="path188" fill="#ADD8E6" d="M586.5,636c4.4,0.6,4.6,0.8,1.5,0.9c-8,0.5-11.2,1.1-18.8,4.1c-9.4,3.6-17.6,8.7-25.3,15.8
		c-6.1,5.6-18.8,21.6-24.7,31.2c-2,3.3-7,11.1-10.9,17.3l-7.3,11.4l-10.2,4.1c-5.7,2.3-18.1,7.3-27.6,11.2c-9.5,3.8-17.5,7-17.8,7
		c-0.2,0,2-2.5,5-5.6c3-3,12.8-14.6,21.8-25.7c20.6-25.6,27.9-33.8,40-44.6c14.3-12.8,34.8-24,47-25.7c2.3-0.4,6.6-1,9.3-1.4
		C575.1,635,580.4,635,586.5,636z"/>
	<path id="path190" fill="#ADD8E6" d="M601.5,639.9l4,0.7l-4,1.3c-6.6,2.2-19.6,9.1-25.6,13.7c-7.8,6-15.1,14.2-21,23.8
		c-7.4,11.9-17.3,27.4-18,28c-0.3,0.4-5.3,1.5-11,2.5c-5.7,1.1-12.4,2.7-14.8,3.5c-2.4,0.9-4.6,1.6-4.8,1.6
		c-0.7,0,2.8-5.6,16.6-26.5c21-31.9,35.4-43.5,59.6-48C590.6,639,595.8,638.8,601.5,639.9z"/>
	<path id="path192" fill="#008080" d="M598.4,646.1c0.5-0.1-2,2.9-5.6,6.6c-9.1,9.5-15.9,20.2-25,39l-7.9,16.3h-9.4
		c-5.2,0-9.5-0.3-9.5-0.6c0-1.2,12.2-20.7,19.1-30.4c9.2-13.1,17.1-20.1,31.4-27.7C594.8,647.6,597.9,646.1,598.4,646.1z"/>
	<path id="path194" fill="#66CDAA" d="M534,711.9c0,0.5-3,5.7-6.7,11.6l-6.8,10.7l-7.5,3c-4.1,1.6-10.4,4.1-14,5.5
		s-9.2,3.6-12.5,4.9s-6.3,2.4-6.8,2.4c-0.4,0,2.6-3.9,6.6-8.8c4.1-4.8,9.7-11.9,12.4-15.7c4.3-6.1,5.5-7.2,9.4-8.2
		c2.4-0.6,8.7-2.3,13.9-3.7C532.6,710.8,534,710.6,534,711.9z"/>
	<path id="path196" fill="#66CDAA" d="M538.1,711h9.9c6.2,0,10,0.4,10,1s-1.3,3.7-3,7c-2.8,5.5-3.3,6-8.2,7.4
		c-16.5,4.8-20.1,5.7-20.5,5.3c-0.2-0.3,1.6-3.6,4-7.4c2.5-3.9,5.2-8.4,6.1-10.1L538.1,711z"/>
	<path id="path198" fill="#008080" d="M563.3,711c0.8,0,5.9,1.2,11.3,2.6c5.5,1.4,10.8,2.7,12,3c5.1,1,26.2,12,25.1,13
		c-0.2,0.2-3.2-0.7-6.6-2.1c-12.5-5.1-28.5-6.8-42.5-4.5c-3.3,0.5-6.1,0.9-6.2,0.7c-0.1-0.1,1.1-3,2.6-6.5
		C560.6,713.8,562.5,711,563.3,711z"/>
	<path id="path200" fill="#3CB371" d="M308,725l3.2,5.5l-2.7-2.5c-2.4-2.2-5.5-7.6-5.5-9.7C303,717,304.7,719.3,308,725z"/>
	<path id="path202" fill="#66CDAA" d="M497.8,721.1c0.7-0.2-7.5,10.9-13.5,18.2c-9.6,11.7-14.2,14.9-28,19.2
		c-6.5,2-12.7,3.9-13.8,4.1s-5.6,1.3-10,2.4c-11,2.9-28.7,4.3-43,3.6c-10.8-0.6-12.7-1-20-4.3c-7.6-3.4-28.1-16.1-27.3-16.9
		c0.2-0.2,4.1,1.2,8.5,3.2c13.2,5.6,20.1,6.7,40.3,6.1c19.3-0.6,23.5-1.5,40.8-8.8c5.1-2.2,13.2-5.6,18-7.5c4.8-2,12.5-5.2,17.2-7.1
		c12.1-5,17.7-7.2,24.5-9.9C494.8,722.2,497.6,721.1,497.8,721.1z"/>
	<path id="path204" fill="#008080" d="M315.3,727c2.8,2.8,8.4,7.6,12.3,10.5c5.7,4.3,7.3,6.1,8.3,9.5c0.7,2.3,1.1,4.4,0.8,4.6
		c-0.2,0.2-3.8-2.2-8-5.3c-6.3-4.7-8.7-7.4-13.2-14.6c-3-4.9-5.5-9.1-5.5-9.4C310,722.1,312.4,724.1,315.3,727z"/>
	<path id="path206" fill="#008080" d="M591.2,726.6c7.9,1.5,20.8,6,20.8,7.3c0,0.3-3.9,0.7-8.8,0.7c-11.8,0.2-22.5,3.3-48,14.1
		c-5.7,2.4-11.7,5-13.3,5.8c-3.5,1.9-3.5,1.7-0.5-3.7c1.3-2.4,4.4-8.1,7-12.8c2.6-4.6,5.1-8.9,5.7-9.5c0.5-0.5,4-1.5,7.7-2.1
		C571.6,724.7,581.9,724.8,591.2,726.6z"/>
	<path id="path208" fill="#008080" d="M549.9,728.6c0.5,0.4-9.6,19-13.2,24.4c-3.8,5.6-4.8,6.3-12.2,9.4c-3.3,1.4-13,5.5-21.5,9.1
		s-15.6,6.5-15.7,6.5c-0.2,0,4.1-4.4,9.4-9.8c5.4-5.3,13.4-14.5,17.8-20.4c8.7-11.8,6.9-10.7,25.5-16.5
		C545.2,729.6,549.7,728.4,549.9,728.6z"/>
	<path id="path210" fill="#008080" d="M325.8,752.1l5.4,7.4l-7.7-7.5c-9.8-9.6-15-15.9-15.9-19C306.6,729.5,318.9,742.3,325.8,752.1
		z"/>
	<path id="path212" fill="#3CB371" d="M341.3,739.7c2.8,1.9,8.2,5,12,6.9c3.7,1.9,6.7,3.6,6.7,3.9c0,1.4-21.9-8.9-23.2-10.9
		c-0.4-0.6-0.8-1.6-0.8-2.3C336,736.7,338.4,737.7,341.3,739.7z"/>
	<path id="path214" fill="#ADD8E6" d="M613.5,737.9c1.7,0.7,1.4,0.9-1.6,1.5c-9.1,1.7-28.1,13.2-50.4,30.5
		c-34.8,27-48.4,35.5-71.2,44.2c-17.4,6.6-27.9,8.4-48.8,8.4c-14.6-0.1-19.9-0.5-28-2.2c-28.3-6.1-58.5-22.3-82.7-44.4
		c-7-6.4-9-9-12.5-16c-8.1-16.3-8-16.4,2.1-6.3c5,5,12.9,11.9,17.6,15.4s11.4,9.1,15,12.3c17.8,16.4,44.1,28.9,67.8,32.2
		c43.1,6.2,79.1-8.4,107-43.4c7.1-8.8,7.9-9.5,16.1-13.3c18.8-8.7,38.6-16.1,49.1-18.2C600.3,737.1,610.5,736.7,613.5,737.9z"/>
	<path id="path216" fill="#008080" d="M516.3,740.2c-0.5,0.7-3.7,4.9-7,9.3c-9.3,12.4-25.6,27.5-34.3,31.9c-4,2-7.9,3.6-8.7,3.6
		c-0.8,0-5.3,1.1-10.1,2.5c-4.8,1.4-10.6,2.7-12.7,2.9c-2.2,0.2-9.3,0.9-15.7,1.6c-11.3,1.3-15.2,1.1-27.6-1.4
		c-4.7-1-18.9-6.9-27-11.3c-8.5-4.6-26.5-17.3-24.5-17.3c0.6,0,3.6,1.1,6.7,2.5s7.1,2.7,8.8,3c1.8,0.4,7.4,1.8,12.3,3.2
		c5,1.4,10.1,2.7,11.5,2.9s4.7,0.9,7.4,1.4c13.2,2.7,22.7,2.4,42.7-1.5c6.3-1.2,22.2-9,30.3-14.9c3.1-2.2,5.1-3.1,23.6-10.1
		c5.2-2,12.7-4.9,16.5-6.5C516.3,738.7,517.7,738.4,516.3,740.2z"/>
	<path id="path218" fill="#5F9EA0" d="M601.3,751.2c-3.9,4-11.7,12.9-17.2,19.7c-37.7,46.2-58.9,63-91.4,72.4
		c-11.1,3.2-11.3,3.2-33.7,3.2c-20.3,0-23.4-0.2-31.5-2.3c-4.9-1.3-10-2.6-11.3-2.8c-7.6-1.5-28.3-10.9-40.2-18.4
		c-13.6-8.4-30.6-23.7-42.1-38c-3.1-3.9-3.7-4.9-1.8-3.5c1.5,1.1,6.9,5.2,12,9.1c20.1,15.2,36.6,23.4,60.5,30.3
		c21.8,6.4,52,6.4,73.9,0c24-6.9,42.6-16.7,69.1-36.6c5-3.7,16.1-12,24.5-18.4c14.1-10.6,26.3-18.5,32.1-20.8
		C608.8,743.2,608.3,744.1,601.3,751.2z"/>
	<path id="path220" fill="#3CB371" d="M334.6,754.1c3.5,2.4,6.4,6.8,6.4,9.7c0,0.9-5-4-9.4-9.3C327.4,749.4,327.6,749.4,334.6,754.1
		z"/>
	<path id="path222" fill="#3CB371" d="M355.9,761.2c0.1,0.4-2.7-0.6-6.1-2.2c-5.8-2.7-9.8-6-9.8-8.1
		C340,749.9,355.8,760.1,355.9,761.2z"/>
	<path id="path224" d="M361.9,750c0.6,0,1.1,0.4,1.1,1c0,0.5-0.2,1-0.4,1c-0.3,0-0.8-0.5-1.1-1C361.2,750.4,361.4,750,361.9,750z"/>
	<path id="path226" fill="#66CDAA" d="M456.9,762.3c-1.5,1.3-12.8,5.9-19.9,8.2c-7.3,2.3-10.3,2.7-21.8,2.7
		c-7.3,0.1-13.5-0.1-13.7-0.4c-0.3-0.3,2.7-0.8,6.7-1.1c10.7-0.8,24.8-3.5,37.3-7.1C455.1,761.7,458.4,761.1,456.9,762.3z"/>
	<path id="path228" fill="#008080" d="M352,769.1c6,4.8,11.5,8.2,23.5,14.6c5.5,2.9,9.7,5.3,9.4,5.3c-2.1,0.1-19.2-6.6-25.8-10
		c-10.5-5.5-16.4-10.7-15.5-13.8C344.3,762.7,343.8,762.5,352,769.1z"/>
	<path id="path230" fill="#5F9EA0" d="M528.3,764.1c1.5-0.2-5.5,8-14.3,16.8c-27.2,27-64.9,37.8-100.3,28.6c-3-0.8-6.6-1.6-8-1.9
		c-9.3-1.7-34.5-14.7-43.7-22.6l-3.5-3l8,3.4c17.6,7.5,37.4,11,62.5,11.1c20.9,0,23.7-0.6,40-8.1c5.2-2.4,13.8-5.9,19-7.8
		c9.3-3.4,15.5-6,31.5-12.9C523.9,765.8,527.9,764.1,528.3,764.1z"/>
	<path id="path232" d="M447.4,792.1c1.1-0.1,1.7,0.2,1.3,0.5c-0.3,0.3-1.2,0.4-1.9,0.1C446,792.4,446.3,792.1,447.4,792.1z"/>
	<path id="path234" d="M442.4,793.1c1.1-0.1,1.7,0.2,1.3,0.5c-0.3,0.3-1.2,0.4-1.9,0.1C441,793.4,441.3,793.1,442.4,793.1z"/>
	<path id="path236" fill="#5F9EA0" d="M436.4,794.1c1.1-0.1,1.7,0.2,1.3,0.5c-0.3,0.3-1.2,0.4-1.9,0.1
		C435,794.4,435.3,794.1,436.4,794.1z"/>
	<path d="M440.9,1.6c8,2,16.7,6.4,22.5,11.6c2.9,2.4,5.4,3.8,7.2,3.8c3.2,0,6.4,2.5,6.4,5.1c0,1.3,2.7,3.2,9,6.4
		c11.2,5.9,15.7,10.5,16.6,17.5c0.4,3.1,1.2,5,2,5c2.9,0,4.6,3.2,4.1,7.5l-0.6,4.1l6.3,4.3c3.5,2.3,12.9,6.9,21,10.2
		c16.3,6.5,23.2,11.1,29.5,19.3c5.8,7.8,8.4,14.9,13,35.5c5.3,23.5,6.5,25.8,19.6,36.6c14.3,11.7,19.7,18.3,23.8,29
		c3.4,8.9,3.4,31.1-0.1,32.3c-0.9,0.3-1.2-1.6-1.2-6.7c0-5.9-0.5-8.2-2.9-12.9c-3.6-7.1-6.4-9.7-22.1-20.8
		c-6.9-4.8-14.9-11-17.7-13.7c-2.9-2.8-5.3-4.8-5.3-4.5s0.9,3.3,1.9,6.6c2.4,7.3,4.3,10.5,18,29.2c18.6,25.4,22.1,32.4,24.2,48.1
		c2.2,16.9-1.5,33.6-12,54.9c-5.8,11.8-7,13.2-27.5,33.5c-19.1,19-22.8,24-24,32.7c-1,6.6-3.1,6.3-4.6-0.7
		c-1.1-5.4-0.9-6.9,2.6-19.4l0.7-2.5l-3,2.2c-2.9,2.1-12.3,6.6-25.3,12.3c-6.1,2.7-17.1,9.7-21.3,13.7c-4.2,3.9-8,10.9-7.4,13.5
		c6.7,29.5,4.4,45.7-9.2,67.2c-6.1,9.7-31.2,34.5-54.6,53.9c-33.4,27.8-57.1,51.2-70,69.1c-8.2,11.3-19.3,33.7-24,48
		c-4,12.4-7.2,30.1-8.1,45c-0.7,11.6,0.9,30.3,3.1,34.4c2.3,4.5,10.3,11.1,18,14.7c11.1,5.3,18.1,6.7,31.4,6.2
		c10.1-0.4,12.6-0.8,19.7-3.6c9.2-3.7,19.8-10.7,27.2-18.1c4.7-4.7,18.2-21.1,28.7-35.1c17.4-22.9,39.5-39.2,64-47
		c10-3.3,10.2-3.3,26-5.1c18.5-2.1,41.1,2,60.8,10.9c3.7,1.7,6.7,3.5,6.7,4.1s-2.2,2.2-5,3.6c-7.3,3.7-18.3,14.6-25.1,25
		c-6,8.9-19.9,36.2-19.9,38.9c0,0.9,2.5,1.7,7.8,2.6c9.5,1.6,22.4,6,31.7,10.8c6.8,3.6,19.5,14.6,19.5,17c0,0.6-2.3,2.3-5.2,3.8
		c-6.5,3.3-15.7,12.7-36.2,36.9c-33.5,39.7-51.6,54.5-78.9,64.6c-24.6,9.2-62.9,9.1-91.5-0.1c-19.5-6.3-43.6-20.2-58.7-34
		c-27.2-24.7-42.5-51.2-51.5-89.2c-1.8-7.3-4.7-16.5-6.5-20.3c-10.8-23.1-17-40.6-22.1-63c-2.4-10.2-2.8-14.8-3.2-30.8
		c-0.2-10.4,0.1-22.4,0.7-27c4.3-32.4,12.4-60.8,24.2-84.2c10.5-20.8,16.9-30.2,47.5-70.1c3-3.9,5.4-7.4,5.4-7.7
		c0-0.4-1.7,0.1-3.7,1c-7.3,3.3-17.8,10.6-24.4,17l-6.6,6.4L311,438c-2.2-5.3-0.7-11,7.3-27.4c4.2-8.5,8.4-17.7,9.3-20.5
		c2-6.2,1.6-15-1-20.4c-1.8-3.7-3.6-4.9-3.6-2.3c0,0.8-0.9,3.4-1.9,5.9c-3.2,7.5-12.5,14.9-16.7,13.3c-1.3-0.5-1.2-1,1-3.7
		c3.4-4,3.9-6.3,3.4-15.2c-0.6-12.7-4.9-19.2-28.8-44.5c-13.5-14.3-19.8-22.4-22.7-29.5c-2.3-5.5-2.8-3.7-0.8,2.5
		c2.6,7.9,6,14.1,11.1,20.4c2.6,3.2,4.2,6,3.7,6.5c-1.2,1.2-10.6-5.3-16.5-11.3c-14.2-14.6-19.7-35-15.2-56.6
		c1.8-8.6,6.4-20,10.1-25c1.4-1.8,2.3-3.5,2-3.8c-1.2-1.2-9.3,6.7-12.7,12.3c-4,6.6-5,11.2-5,22.5c0,8.6-1.5,8.7-4.9,0.2
		c-3.3-8-4-21-1.6-28.5c5.1-15.9,16.2-28.5,35.4-40.1c5.1-3.1,6.6-4.7,8.6-9c3.7-7.9,3.3-10.3-3-19.7c-3-4.5-5.5-8.9-5.5-9.7
		s0.9-2.3,2-3.4c1.8-1.8,2.3-1.9,4.1-0.6c1.1,0.7,3.4,3.2,5.1,5.5s3.2,4,3.5,3.7c0.2-0.2-1.4-4-3.8-8.5c-4.1-7.9-4.1-8.1-2.5-10.6
		c2.8-4.2,5.5-3,10.1,4.7c2.2,3.7,4.3,6.7,4.7,6.8c0.4,0-0.5-3.2-1.9-7c-2.1-5.8-2.4-7.5-1.5-9.5c0.8-1.7,2-2.5,3.6-2.5
		c2.8,0,3.7,1.1,6,7.2c1.9,5.1,3.1,6,4,3c0.8-2.4,5-4.7,7-3.9c1.3,0.5,1.6,2.8,1.6,13.7c0,7.4,0.4,13,0.9,13s3.8-2.8,7.3-6.3
		c7.5-7.4,9.4-12.2,8.4-21.4c-0.3-3.2-0.9-9.9-1.2-14.8c-0.5-8.2-0.4-9.4,1.9-13.7c1.4-2.9,2.1-5.2,1.6-6c-2.1-3.2-0.5-7.2,3.6-9.5
		c1.2-0.7,1.2-1.5-0.3-5.5c-1.6-4.5-1.6-4.8,0.3-8.5c1.1-2.1,2.1-4.1,2.3-4.5c0.2-0.4-0.8-1.3-2.2-2c-5.6-2.5-4.3-10.1,1.8-11.2
		c3.1-0.6,3.6-1.1,3.6-3.5c0-5.9,4.9-19.2,9.4-25.5c9.8-13.7,29.2-23.6,46.4-23.6c5.4,0,7.4-0.5,12-3.1c3-1.8,8-4,11.1-5
		C419.1-0.4,432.2-0.5,440.9,1.6z M428.5,3.3c-6.6-0.1-13.1,0.2-14.5,0.6c-6.9,2.4-12.2,5.3-16.9,9.5c-2.8,2.5-5.5,4.6-6,4.6
		c-1.8,0-2-1.5-0.4-3.3c1.8-2,1.7-2-6.2-1.3c-13.6,1.2-29.9,9.3-37.3,18.6c-6.6,8.1-11.2,20.2-11.2,29.4c0,3,0.2,3.2,3.4,2.8
		c2.6-0.3,3.7,0.1,4.8,1.7c1.5,2.1,1.6,2.1,4.6,0.4s3.2-1.7,6,0.4c3,2.2,3,2.2,4.7,0.2c2.2-2.3,6.8-2.5,8.6-0.3
		c1.2,1.5,1.4,1.4,1.9-0.7c0.8-3.2,5.2-5.4,8-3.9c1.8,1,2,0.8,2-1.9c0-4.1,3.5-6.7,6.5-4.7c1.1,0.7,2.1,2.5,2.3,3.9
		c0.3,2.4,0.5,2.4,2.9,1.2c2.8-1.5,5.1-1,7.1,1.3c1.1,1.4,1.2,1.4,1.2-0.1c0-0.9,1-2.7,2.1-3.8c1.7-1.7,2.9-2,5.7-1.6
		c2.9,0.5,3.8,0.2,5.4-1.8c2.1-2.7,6.5-3.4,8.6-1.3c0.9,0.9,1.2,0.7,1.2-0.8c0-3.2,3.4-5.7,7-5.2c2.1,0.3,3,0,3-0.9
		c0-0.8,1.1-2.5,2.5-3.9c2.1-2.1,3.1-2.4,6-1.8c3.3,0.6,3.5,0.4,3.5-1.9c0-2.8,3.2-5.7,6.2-5.7c1.2,0,1.8-0.8,1.8-2.4
		c0-5,6.9-7.6,10.4-4c3.7,3.7,0.7,10.4-4.7,10.4c-1.8,0-2.5,0.4-2.1,1.3c0.9,2.4-1.4,6.6-4,7.3c-1.3,0.3-3.4,0.1-4.5-0.6
		c-1.9-1-2.1-0.8-2.1,1.5c0,4.9-6.6,8.5-9.8,5.3c-0.9-0.9-1.2-0.6-1.2,1.4c0,3-4.5,7.2-6.7,6.3c-0.7-0.3-2-0.8-2.8-1.1
		c-0.9-0.4-1.5,0-1.5,0.9s-1.2,2.5-2.7,3.6c-2.4,2-3.5,2-7.8,0.4c-0.6-0.2-1.5,0.7-2,1.9c-0.6,1.4-2.2,2.6-4,2.9
		c-1.6,0.4-2.2,0.7-1.2,0.8c1,0,2.5,1.4,3.5,3c1.5,2.7,1.7,2.8,3.9,1.4c1.9-1.3,2.8-1.3,5.3-0.3c1.7,0.7,3,1.9,3,2.8
		c0,1,0.7,0.7,2.5-1.2c2.8-3,6-3.3,8.7-0.9c1.8,1.6,1.9,1.5,3.4-0.5c1.6-2.3,7.7-3.1,8.9-1.2c0.9,1.5,2.5,1.2,2.5-0.5
		c0-3.3,7.1-4.6,10.2-1.8c1.7,1.5,1.8,1.5,1.8-0.5c0-1.1,0.7-2.8,1.6-3.6c1.7-1.8,8.4-2.2,8.4-0.6c0,2,1.9,0.9,2.2-1.2
		c0.2-1.2,1.5-2.9,3-3.8c2.4-1.3,3.1-1.3,5-0.1c1.7,1.1,2.3,1.1,2.6,0.1c0.8-2.2,4.2-5,6.1-5c1.1,0,3.2,1,4.7,2.3
		c2.2,1.9,2.6,2.9,2,5c-1,4-5.1,6.3-8.7,5c-2.3-0.9-2.9-0.9-2.9,0.3c0,0.7-1.1,2.1-2.5,3c-2.4,1.6-3.8,1.5-7.7-0.1
		c-1.2-0.5-1.8-0.3-1.8,0.7c0,4.1-6.8,6.2-10.2,3.1c-1.7-1.5-1.8-1.5-1.8,0.4c0,4.2-7.3,7.4-10.2,4.5c-0.8-0.8-1.8-0.4-3.4,1.3
		c-2.5,2.8-6,3.2-8.8,1.2c-1.6-1.2-2.2-1-4.2,1c-2.9,2.9-4.5,2.9-8.2-0.2c-2.8-2.4-3-2.4-3.5-0.5c-1.3,5-10.7,2.6-10.7-2.7v-2.6
		l-2.3,2.1c-1.3,1.2-3.4,2.2-4.8,2.2c-4.3,0.1,14.2,6,23.5,7.4c5,0.8,16.3,2.2,25.1,3.1c18.2,1.8,20.7,2.1,25.5,3.7
		c16.7,5.2,28.3,18.5,31.2,35.6c1.1,6.3,1,8.5-0.6,16.5c-1,5.1-2.8,12.1-4,15.7c-1.2,3.6-3.2,9.5-4.5,13.2c-2.2,6.5-2.2,7-0.7,11.6
		c2,5.8,6.1,10.3,19.6,21.2c11.6,9.4,14.3,13.5,14.4,22c0,6.1-3.1,16-5.1,16c-1,0-1.1-1.4-0.7-5.9c0.6-4.8,0.3-6.7-1.4-10.3
		c-2-4-5.8-7.6-6.9-6.5c-0.2,0.3,0.3,2.2,1.2,4.3c1.7,4.1,4.3,14.9,7.6,32.4c2.3,11.9,5.8,26.9,6.8,28.7s7.1-8.6,9.8-16.6
		c1.6-4.8,2.3-9,2.3-15.2c0-12.2-2.1-18.4-12.4-37.1c-7.7-14.1-11.2-29.3-9.2-40.2c1.2-6.1,3.1-3.8,2.8,3.2
		c-0.5,10.1,2.2,23.3,6.1,30.4c10.8,19.9,12.6,23.9,14.1,30.5c4.1,18.4,1.5,28.5-13.8,53.8c-5.2,8.7-6.6,13.4-6.5,22.1l0.1,6.9
		l1.2-5c1.3-5.4,5.7-11.9,16.3-24.4c3.5-4.1,7.8-10.3,9.5-13.8c2.9-5.8,3.1-7.4,3.6-18.8c0.4-11.5,1.1-14.2,2.7-11.5
		c0.4,0.6,0.7,5,0.7,9.8c0,14.8-4,24.5-15.3,37.4c-3.3,3.6-5.9,7.4-5.9,8.2c0,0.9,1.4,6.2,3,11.8c2,6.9,3,12.2,3,16.9
		c0,6.2-0.2,7-3.1,9.8c-4.3,4.4-18,10.7-27.4,12.8c-5.7,1.2-12.6,1.7-23.7,1.8c-8.7,0-15.8,0.3-15.8,0.7c0,0.3,2.3,3.2,5.1,6.3
		c3.8,4.1,4.9,5.9,4.1,6.7c-0.8,0.8-0.2,2.7,2.1,6.9c1.8,3.2,3.5,5.8,3.8,5.6c0.4-0.1,2.2-2.2,4.1-4.7c4.5-6,10.4-10.3,23.9-17.5
		c15.1-8,20.8-12.3,26.2-19.4c5-6.7,10.4-20.4,11.5-29.1c0.5-4.1,1.2-5.6,2.4-5.8c1.5-0.3,1.7,0.2,1.2,3c-2.8,15-8.1,28.7-14.1,35.9
		c-2.7,3.3-2.8,3.4-0.3,1.8c1.4-0.9,3.6-2.2,4.8-3c3.1-1.9,22.4-30,26.5-38.6c3-6.3,3.2-7.5,3.2-17.4c0-10-0.2-10.9-3.2-16.9
		c-3.5-6.8-4.1-9.2-1.9-8.4c1.9,0.7,6.3,10.2,8.2,17.5c3.1,12-1,24.9-13.6,42.9c-14.1,20.3-20,31.5-20,37.8c0,2.4,0.3,2.2,2.1-1.8
		c1.4-3.2,7.7-10.2,21.7-24c22.5-22.3,26.9-28.5,29.6-42.2c2-9.6,2-10.9,0-23.3c-1.1-6.7-2.8-12.5-5.2-17.5
		c-3.1-6.8-5.2-9.2-21.1-25c-19.1-18.9-23.7-25.2-28.6-39c-2.3-6.4-2.7-9.5-3.1-23c-0.9-27.2-4.3-34.1-24.7-50.3
		c-5.3-4.3-9.7-8.2-9.7-8.7c0-6,27.4,18.7,32.5,29.3c2.5,5.2,2.8,7.2,3.6,22.1c0.8,17.2,1,18.4,4,28.3c4,13.6,10.7,23.2,26,37.3
		c13.2,12.1,18.5,18.1,22.3,25c4.3,8,7.8,20.5,7.9,29.2c0.2,7.9,1.1,10.1,2,5c0.2-1.5,1.2-5.6,2.2-9.2c2.7-9.9,2.4-22.5-1-33
		c-3.7-11.3-6.8-16.6-21.2-36c-14.1-18.8-20.1-30-21-38.7c-0.3-3.2-1.4-7.5-2.5-9.6c-2.7-5.4-4.9-17.5-4.6-24.8
		c0.4-8.7,2.1-7.2,2.3,2.1c0.3,8.6,1.6,13.9,5.2,21.7c3.8,8,9.5,13.7,24.3,24.3c16.6,11.9,22.2,16.9,24.9,22.2l2.2,4.3l-0.6-5
		c-0.8-6.4-6.3-17.7-11.5-23.7c-2.2-2.6-8.3-8.1-13.6-12.3c-5.2-4.2-10.6-9.3-11.9-11.3c-2.9-4.6-7.2-18.2-8.5-27.1
		c-3.5-23.7-12.7-39.1-28.1-46.8c-3.5-1.8-10.9-4.9-16.4-7c-5.4-2.1-13.5-6.2-17.8-9.1c-4.3-2.8-8.3-5.2-8.8-5.2
		c-0.6,0-2.3-0.7-3.8-1.5c-3.8-1.9-4.6-5.3-2.1-8.7c5.5-7.5,0-16.3-15-23.8c-5.1-2.6-6.8-3-8.2-2.1c-4.6,2.9-10.4-0.5-10-5.9
		c0.1-1.6-0.5-3.5-1.3-4.4c-4.2-4.2-10.6-8.5-16.5-11.1C441.2,3.8,439.3,3.5,428.5,3.3z M468,20.9c-1.5,2.9-0.2,5.1,3.1,5.1
		c2.5,0,2.9-0.4,2.9-2.9c0-1.7-0.6-3.1-1.6-3.5C469.9,18.6,469.1,18.9,468,20.9z M456.7,27.7c-1.3,1.2-0.7,6.1,0.8,6.7
		c3.5,1.3,6.3-2.1,4.5-5.5C461,27,458,26.3,456.7,27.7z M447.4,37.4c-1,2.7,0.1,5.1,2.6,5.4c3.1,0.5,5.3-2.3,3.9-4.9
		C452.7,35.7,448.2,35.4,447.4,37.4z M441.2,43.1c-2.7-1.4-6.2,2.2-4.6,4.7c2.3,3.6,8.5,1.6,7.1-2.2
		C443.4,44.8,442.2,43.7,441.2,43.1z M426.6,50.6c-2.1,2-2,2.7,0.3,4.8c1.5,1.4,2.4,1.5,4,0.6c2.3-1.2,2.7-4,0.9-5.8
		C430.2,48.6,428.5,48.7,426.6,50.6z M417.6,54c-1.7,0-3.6,2.1-3.6,4s1.9,4,3.6,4c1.4,0,4.4-2.7,4.4-4c0-0.5-0.7-1.6-1.6-2.4
		C419.6,54.7,418.3,54,417.6,54z M499.6,55.5c-1.3,3.5,2.1,6.3,5.5,4.5c2.2-1.2,2.5-3,0.7-4.8C504.1,53.5,500.3,53.7,499.6,55.5z
		 M385,58c-2.1,0-2.8,3.3-1.1,5.9c1.3,2.1,3.1,0.4,3.1-3C387,58.7,386.5,58,385,58z M485,61.6c0,1.7,3.9,4.4,5.5,3.7
		c1.8-0.6,2.7-3.2,2-5.4C491.4,56.6,485,58.1,485,61.6z M403.4,60.5c-1.5,3.9,2.5,6.8,5.6,4c1.5-1.3,1.7-2.2,0.9-3.6
		C408.7,58.6,404.2,58.4,403.4,60.5z M392,63.5c-2.6,3.1,1.3,8.2,4.4,5.6c1.9-1.6,2.1-4.2,0.4-5.9C395.2,61.6,393.5,61.7,392,63.5z
		 M478.5,62.2c-4.2-0.6-6.2,4.8-2.4,6.8c2.7,1.5,5.1-0.5,4.7-3.9C480.6,63.4,479.8,62.4,478.5,62.2z M373,65.5
		c-1.8,2.2-0.8,5,2.1,5.3c3.4,0.4,5.4-2,3.9-4.7C377.8,63.7,374.8,63.4,373,65.5z M327.1,70.3c1.5,2.5,5.5,2.2,6.2-0.5
		c0.4-1.2,0.1-2.8-0.5-3.5C330.1,63,325.1,66.6,327.1,70.3z M401.7,66.2c-1-0.8-1.3-0.6-1.4,0.9c-0.1,1,0.5,1.9,1.3,1.9
		s1.4-0.4,1.4-0.9S402.4,66.8,401.7,66.2z M337,68.6c-1.3,3.2,0.3,5.6,3.4,5.2c2.5-0.4,3.4-4.2,1.6-6.4
		C340.1,65.2,338.1,65.7,337,68.6z M384.1,67.6c-2.1-1.9-2.1-1.9-2.1,0.7c0,4.7-7,7.5-10.4,4.1c-1.4-1.3-1.6-1.3-1.6,0
		c0,4-7.2,6.2-10.3,3.1c-1.3-1.2-1.7-1.2-3.2,0.5c-2.9,3.2-10.5,2-10.5-1.6c0-1.1-0.6-1-2.9,0.7c-2.7,2-3.1,2-5.8,0.7l-3-1.5
		l-2.7,4.9l-2.8,4.9l1.8,5c1.4,3.8,2.2,4.8,3.4,4.3c4-1.8,7.8-1.6,9.2,0.5c1.5,2.1,1.5,2.1,2.1-0.9c0.8-3.9,4.6-5.8,8.2-4.2
		c2.3,1.1,2.5,0.9,2.5-1.2c0-4.2,6-7.2,9.6-4.8c3.7,2.4,3.6,9.1-0.1,10.6c-2.7,1-6.3,0.7-7.2-0.7c-0.5-0.8-1,0-1.3,2.3
		c-0.4,2.4-1.3,3.9-3.3,5c-2.5,1.4-3,1.3-5.7-0.2c-2.8-1.6-2.9-1.6-3.5,0.3c-1,2.9-4.9,5.1-7.8,4.4c-1.4-0.4-2.8-0.2-3.1,0.4
		c-0.4,0.6-2,1.1-3.5,1.1c-2.5,0-3.2,0.7-5,4.9c-2.5,5.8-2.6,10.4-0.7,22.2c2.4,14.2-0.3,21.2-12.4,31.9c-6,5.3-7,6.7-7,9.5
		c0,4.6-1.4,8.5-7.6,21c-4.9,9.8-5.6,12-6.1,19l-0.6,8l11.8-12.3c6.5-6.8,13.1-13.9,14.6-15.8c2.8-3.5,6.9-13,6.9-15.9
		c0-0.8,0.5-1.5,1-1.5c1.7,0,1.1,7.4-0.9,11.3c-3,6-9.7,14.2-21,25.9c-10.3,10.7-10.3,10.8-7.8,11.9c3.3,1.5,4.3,5.4,2.2,8.5
		c-2,3.1-2,3.1,2.3,5.2c3.3,1.5,3.7,2.1,3.8,5.6c0,3.1,1.2,5.2,6.6,11.9c11.4,14.4,19.2,25,23.7,32.5c2.4,4,4.7,6.9,5.1,6.5
		s1.8-2.7,3-5c2.3-4.2,2.3-4.4,0.7-9.6c-2.2-6.9-2.2-14,0.1-20.9c2.8-8.5,6.2-13.4,17-25c7.2-7.7,11.1-12.9,13.9-18.4
		c4.4-8.8,10.4-14.8,16.1-16.4c2.3-0.6,5.1-2.3,6.5-4c2.9-3.4,7.2-12.1,8.1-16.5c0.6-3,0.5-3.1-8.6-7.6c-20-10-28.1-19.4-30.7-35.8
		c-1.1-7.1-4.7-18.6-6.6-21.4c-1.2-1.7-1.4-1.6-3.3,1.5c-4.5,7.3-6.2,13.5-6.2,22.6c0.1,10.4,1.8,15.2,10.7,29.8
		c10.4,16.9,11.4,19.5,11.4,28.5c0,13.4-4.8,21.3-22.4,36.7c-13.6,12-16.7,16.9-16.7,26.6c0,3.4,0.7,8.6,1.5,11.6s1.1,5.8,0.6,6.3
		c-1.4,1.4-6.9-6.3-9.7-13.5c-2.3-5.7-2.6-7.7-2.2-13.8c0.9-12.3,5.4-19.4,22-34.5c11.6-10.6,11.5-16.1-0.1-30.8
		c-10.3-12.9-13-19-13.8-30.8c-0.6-9.8,0.1-17.4,1.7-16.4c0.4,0.3,0.8,4.7,0.7,9.8c-0.2,12.5,2.6,21,9.8,30.3
		c11.4,14.6,11.7,15.2,12.2,21.8c0.7,8.7-1.2,12.3-11.2,20.8c-9,7.6-11,9.9-15,17.6c-3.6,6.8-4.4,15.7-2.1,23.5
		c2.2,7.5,3.3,7.8,2.8,0.8c-0.3-3.7,0.2-8,1.3-11.7c1.5-5.3,2.6-6.7,10.3-13.9c18.6-17.4,21.3-20.4,24.5-27.3
		c5.6-12.1,4.2-20.6-5.8-36.2c-7.4-11.6-11.5-20.2-13-27.8c-3.3-15.9,3.9-33,21.8-51.9c4.4-4.6,6.7-7.8,5.9-8
		C368,85.1,369,75,375.3,75c3.1,0,6.5,2.6,7,5.3c0.4,1.8,0.5,1.7,0.6-0.6c0.2-5,3.2-9.2,5.9-8.2c1,0.4,1.1-0.1,0.6-1.8
		c-0.9-3-1.4-3.4-2.4-1.7C386.3,69.2,385.8,69.1,384.1,67.6z M462.5,71c0.4,1.4,1.5,2,3.5,2c3.2,0,4.5-2.2,3-5.1
		C466.9,64.1,461.1,66.7,462.5,71z M361.8,68.1c-3.5,2-1.1,7.5,2.9,6.7c2.2-0.4,2.9-4.3,1.3-6.4C364.6,66.8,364.1,66.7,361.8,68.1z
		 M349,69.5c-2.6,3.1,1.3,8.2,4.4,5.6c2.1-1.7,2.1-5.7,0-6.5C351.1,67.7,350.4,67.8,349,69.5z M452.3,71.1c-4.3,1.6-1.7,7.8,2.7,6.4
		c1.2-0.4,2-1.5,2-2.9C457,71.4,455.1,70,452.3,71.1z M398.1,71.1c-2,0.4-4.1,1.1-4.1,1.3c0,2.3,2.7,6.6,4.8,7.5
		c2.6,1.3,2.6,1.2,0.8-0.8c-1.2-1.3-1.7-3-1.4-5.1C398.5,72.4,398.4,71.1,398.1,71.1z M400.9,72.6c-1.7,2.1,0,4.8,3.4,5.2
		c3,0.4,4.6-3,2.7-5.3C405.4,70.5,402.6,70.6,400.9,72.6z M439,74.5c-2.6,3.1,1.3,8.2,4.4,5.6c2.1-1.7,2.1-5.7,0-6.5
		C441.1,72.7,440.4,72.8,439,74.5z M386.7,74.7c-1.4,1.4-0.6,5.3,1.3,6.3c2.8,1.5,6.5-2.2,5-5C392,74.1,388.1,73.3,386.7,74.7z
		 M414,76.5c-1.9,2.3-0.8,5,2.2,5.3c3.5,0.4,5.6-2.9,3.2-5.2C417.5,74.6,415.6,74.6,414,76.5z M426.7,75.6c-1.4,1.4-0.7,5.3,1.2,6.3
		c2.3,1.3,5.5-1.7,4.9-4.6C432.5,75.5,428.1,74.2,426.7,75.6z M373,78.5c-1.5,1.8-1,4.5,1.2,5.9c1.4,0.8,2.2,0.6,3.8-0.9
		c1.8-1.9,1.9-2.2,0.4-4.3C376.6,76.7,374.8,76.4,373,78.5z M391.3,83.3l-2.2,1.2l2.5,4c3,4.9,3.2,11.4,0.6,13.8
		c-2.5,2.3-3.7,2.1-6.1-0.9c-2.5-3.2-2.7-7.5-0.6-13.4c0.8-2.4,1.3-4.5,1.1-4.8c-1.4-1.3-22.5,19.5-25.5,25.2
		c-1.2,2.2-1.1,3.2,1.2,8.8c1.4,3.5,2.8,7.2,3.1,8.2c0.5,1.6,1.1,1.1,2.9-2.4c2.7-5.4,6.1-8,11.6-8.7c4.7-0.6,12.1,2,12.1,4.4
		c0,1.7,0.1,1.7-5.3-0.7c-2.9-1.3-5.6-1.8-7.2-1.4c-4,1-3.7,2,0.5,1.6c4.4-0.5,8.6,1.5,15.3,7l4.7,4l-2.4,1.9
		c-7.8,6.1-18.2,7.8-25.6,4.1c-2.4-1.2-4.5-2-4.6-1.9c-0.9,1,4.3,16.2,6.9,20c3.6,5.5,13.6,12.7,25.3,18.3
		c18.2,8.7,26.2,9.4,35.7,3.1c9.9-6.6,20.4-15.6,27.4-23.3c8.2-9.1,10-11.8,11.3-16.6c0.8-2.9,1.6-3.7,3.8-4
		c3.8-0.4,6.2-5.6,6.2-13.4c0-5.9-0.2-6.3-4-9.7c-10-9.1-21.2-13.4-37.6-14.2l-10.9-0.6l-3.4,3.5c-3.6,3.7-7.1,4.7-7.1,2.2
		c0-0.8,1.4-2.6,3.1-4.1c1.7-1.4,3-2.7,2.8-2.8c-0.2-0.2-4-1.1-8.4-2.2c-4.4-1-11.3-3.1-15.3-4.7C395.1,81.7,394.4,81.6,391.3,83.3z
		 M359.2,88c0.5,3.4,3.3,4.9,5.5,2.8c1.4-1.4,1.5-2.2,0.5-4.3C363.4,82.6,358.5,83.7,359.2,88z M390.2,91.5
		c-1.8-3.8-1.9-3.9-2.5-1.5c-0.9,3.5-0.8,8.2,0.2,9.9c0.8,1.2,1.2,1.2,2.5,0.2c0.9-0.8,1.6-2.1,1.6-3
		C392,96.2,391.1,93.7,390.2,91.5z M348.7,91.7c-1.3,1.2-0.7,5,0.9,6.3c1.3,1.1,1.8,1,3.6-0.7c1.6-1.7,1.8-2.4,0.9-4.2
		C353,91.1,350,90.3,348.7,91.7z M336.1,95.4c-1.5,1.7,0.2,6.6,2.3,6.6c1.6,0,4.6-2.6,4.6-4c0-0.5-0.7-1.6-1.6-2.4
		C339.5,93.6,337.6,93.6,336.1,95.4z M471.5,96.6c-2.5-0.6-2.2-0.2,1.7,2.1c5.7,3.3,13.9,11.1,18,17.1c4.3,6.3,7,14.7,7.1,22.7
		c0.2,7.8-1,13-5.9,25.5c-4.7,12.1-6.7,20.5-5.9,24.9c0.9,4.6,4.3,12.7,6.1,14.2c1.1,0.9,1.2,0.2,0.7-3.9c-0.7-6.1,1-13.7,8-35.7
		c4.7-14.7,5.1-16.8,5.1-26c0.1-9.2-0.2-10.5-3-16.5c-5.2-11-13.1-18.3-23.7-21.9C476.9,98.1,473.2,97,471.5,96.6z M326.4,98.4
		c-1,2.6,0.1,5.1,2.2,5.4c2.7,0.4,4.5-1.8,3.7-4.6C331.7,96.7,327.3,96.1,326.4,98.4z M488.3,116.7c-0.5-0.4-1.5,2.3-2.2,6.1
		c-0.9,4.9-2,7.5-4,9.7c-2.3,2.5-3.3,5.4-5.6,16c-5.2,23.6-3.5,39.5,5.1,48.1c4.4,4.3,5.7,4.3,3.8-0.1c-0.8-2-1.4-6.7-1.4-11
		c0-7.7,1-11.1,8.8-30.5c2.2-5.4,2.7-8.1,2.7-15.5c0-8-0.4-9.8-3.1-15.6C490.6,120.2,488.8,117,488.3,116.7z M388,123.5
		c-0.7-0.4-0.9,0.2-0.5,1.7c0.4,1.6-0.1,3.3-1.6,5.1c-1.2,1.6-1.9,3-1.6,3.3c0.9,0.9,4.7-4.8,4.7-7.2
		C389,125.2,388.5,123.8,388,123.5z M372.1,127.3c-0.8-2.8-0.8-2.8-1.5-0.5c-0.6,1.6-0.3,2.9,1,4.3c2,2.2,4.3,2.6,2.5,0.5
		C373.4,130.8,372.5,128.9,372.1,127.3z M393.2,127.8c-0.6-0.6-1.1-0.2-1.5,1.1c-0.5,2.2,0.7,2.9,1.9,1
		C393.9,129.3,393.8,128.4,393.2,127.8z M286.8,136c-1.8,0-1.6,2.5,0.8,10.2c2.2,7,2.6,9.4,2,15.5c-0.4,5.7-0.3,7.2,0.9,7.7
		c1,0.3,1.5,1.9,1.5,4.3c0,5.9,2.1,2.5,2.7-4.3c0.7-8.3-1-18.9-4.3-26.7C288.8,139,287.2,136,286.8,136z M274.8,141
		c-1.8,0-0.6,4.6,2.9,10.7c3.4,6.1,3.6,7.2,3.7,15.1c0.1,6.5-0.2,8.6-1.3,9c-1.1,0.4-1.3-0.2-0.8-2.7c0.8-4.1-0.7-7-11-20
		c-0.2-0.3-0.8,0-1.4,0.6c-0.7,0.7,0.3,2.9,3.1,7.2c6.5,9.8,7.4,12.4,5.9,18.5c-0.6,2.8-3.5,9.4-6.3,14.6
		c-6.5,12.2-6.7,16.6-1.2,28.4c4.4,9.5,7.7,13.1,9.8,10.9c1.6-1.6,4.5-1.9,6.9-0.9c1.8,0.8,1.8,1,2.3-11.4
		c0.3-5.2,0.9-10.9,1.4-12.7c0.6-1.8,0.8-4,0.6-5c-0.3-1,0.2-3.8,1.1-6.2c0.8-2.4,1.5-6,1.5-8c0-5-3.2-17.2-4.5-16.8
		c-0.5,0.2-1.2,4.4-1.5,9.4c-0.5,8.8-0.6,9.1-4.3,13.3c-5.4,5.9-6.7,9.5-6,16.6c0.4,4.7,0.3,5.7-0.7,4.7c-1.8-1.7-2.4-10.4-1-14.7
		c0.6-2,3-5.8,5.2-8.3c3.9-4.6,4-4.8,3.5-10.7c-0.3-4.7,0-7.2,1.6-10.9c3-7.2,2.1-12.9-3.9-22.7C277.8,144.6,275.2,141,274.8,141z
		 M474.6,141c-0.3,0-0.6,0.4-0.6,1c0,1.8-14,17-21.7,23.5c-4,3.5-10.1,8-13.5,10.2c-8.5,5.4-10.8,7.7-10.8,11.1
		c0,7.2-9.1,14.2-18.5,14.2c-13.6,0-23.7,3.6-28.8,10.3c-2.3,3.1-12.7,24.8-12.7,26.7c0,0.5,1.8,0.1,4-0.7c2.7-1.1,5-3.1,7.5-6.7
		c1.9-2.8,3.5-5.6,3.5-6.2c0-1.8,2.7-3.7,3.4-2.5c1.6,2.5-8.2,17.1-11.5,17.1c-1,0-1.9,0.4-1.9,1c0,0.5,0.3,0.9,0.8,0.8
		c0.4-0.1,2.5,0.1,4.7,0.6c8.4,1.7,17.1,8,20.7,15c1.1,2.3,2.2,4.2,2.3,4.4c0.2,0.2,2.7-1.5,5.6-3.8c3-2.2,9.7-6.2,14.9-8.7
		c9.1-4.5,9.9-4.7,20.1-5.1c12.1-0.5,23,1.8,29.9,6.4l3.9,2.6l3.1-2.6c4.2-3.5,6.6-3.3,8.6,0.5c2.1,4.1,4.3,10.5,5.4,15.4
		c1.7,8,3.9,15.3,8.5,28c2.6,7.1,5.2,16.1,5.9,20l1.2,7l5.4,0.6c3,0.3,6.4,0.9,7.5,1.2c1.9,0.6,2.2,0.1,3.1-6.2
		c0.6-3.8,2.5-10,4.3-13.6c1.7-3.7,3.1-7.5,3.1-8.4c0-1-1.8-9.7-4-19.5c-2.2-9.7-4-18.7-4-20s-0.9-5.6-1.9-9.7
		c-5.3-20.6-7-23.6-14.8-26.3c-3.1-1.1-6.9-3.7-11.5-8.2l-6.8-6.6l-8.4,0.7c-6,0.5-8.6,0.4-9.1-0.5c-1-1.6-0.6-1.8,5.3-2.2
		c2.8-0.2,5.2-0.5,5.2-0.7s-1.1-1.2-2.5-2.3c-5.1-4-8.4-14.3-8.5-26.4c0-6.9,2.3-26.5,3.6-29.8C474.9,141.7,474.9,141,474.6,141z
		 M301.5,143c-2.9,0-3.5,2.7-3.5,15.4c0,13.6-1.1,20.3-3.5,21.2c-1,0.4-1.1,1.2-0.4,3.1c0.5,1.3,0.9,4.3,0.9,6.6v4.2l3.7-7l3.8-7
		v-18.2C302.5,149.2,302.1,143,301.5,143z M406.1,183.7c-0.7,2.7-2.6,7.2-4.2,10L399,199h2.4c3.9,0,7.5-4.9,10.6-14.4
		c1-3.2,1-4-0.1-4.7C408.8,177.9,407.2,179,406.1,183.7z M418.5,181.5c-1.6-0.4-2.5-0.1-2.5,0.8c0,0.7-1.6,4.5-3.5,8.5
		s-2.9,7.2-2.3,7.2c6.2,0,14.3-6.1,15.4-11.7c0.6-2.9,0.4-3.3-2-3.8C422.2,182.2,419.9,181.8,418.5,181.5z M496.4,190
		c-0.2,0-0.4,2.6-0.4,5.7c0,6.9,3.5,15.3,7.4,17.9c1.5,0.9,5.7,2.8,9.4,4.1c8.3,3,13.7,6.7,15.4,10.4c1.8,4,2.7,3.6,1.8-0.9
		c-0.9-5.3-3.9-9-12.8-15.8c-11.5-9-15.1-12.3-17.9-17.1C498,192,496.6,190,496.4,190z M264,196c-2,0-15.4,10.7-20.9,16.6
		c-11.2,12.2-15.4,24.1-13.6,38.1l0.8,5.8l1.2-6c2.7-13,9.9-22.6,21.1-28.3c9.7-5,9.8-5.1,9.5-11.9c-0.1-3.2,0.4-7.8,1.2-10.1
		C264.1,197.9,264.4,196,264,196z M266.5,225l-3.1-6.2l-4.1,4.1c-11.4,11.4-18.3,28.9-18.3,46.7c0,14.7,4,26.1,12.9,36.9
		c6.1,7.4,7.5,7.5,4,0.4c-1.7-3.4-3.7-7.9-4.5-10.2c-2-5.6-2.8-24.6-1.6-34.9c1.2-9.4,5.8-21.8,8.1-21.8c0.8,0,1.1,0.6,0.6,1.7
		c-6.8,17.4-8.1,29.6-4.5,41.5c3.6,12.1,10.2,21.1,33.1,45.5c16.4,17.4,20.4,23.9,22.9,37.1c0.7,3.7,0.6,6.5-0.5,10.4
		c-0.7,2.9-1.2,5.4-1,5.6c0.1,0.2,1.6-1,3.2-2.7c5.1-5,6.7-9.6,6.7-19.1c0-9.8-1.2-13.6-6.4-20c-2.1-2.5-5.9-7.9-8.5-12
		c-2.7-4.3-8.9-11.6-14.5-17.1c-5.3-5.3-11.1-11.7-12.8-14.1c-6.3-9.1-9.4-24-7.4-35c0.8-4.1,0.8-6.4-0.1-8.7
		c-1-2.7-0.8-3.4,1.1-6.1c2.4-3.2,2.4-3.3-2.9-4.4c-4.8-1-5.6-8-1.2-10.4C269.4,231.2,269.3,230.8,266.5,225z M289.9,229.6
		c-1.6,2-0.1,4.8,2.9,5.2c2.9,0.5,4.7-3.1,2.6-5.2C293.4,227.6,291.6,227.6,289.9,229.6z M267.9,235.6c-1.6,1.9-0.2,4.7,2.6,5.3
		c2.6,0.5,4.7-2.6,3.4-5C272.7,233.6,269.7,233.4,267.9,235.6z M280,235.5c-1.8,2.2-0.8,5,1.9,5c3.2,0,4.9-2.8,3.2-4.9
		C283.4,233.6,281.6,233.6,280,235.5z M365.7,234.3c-0.3-0.2-3.5,2.9-7.1,6.9c-9.3,10.1-15,21.5-14.9,30.1c0,3.4,0.5,7.5,1.2,9.2
		l1.3,3l2.8-6.2c1.6-3.4,3.3-7.7,3.8-9.5c5.2-17.2,6.5-20.9,8.3-23.1c1.1-1.4,2.6-4.2,3.5-6.2C365.4,236.4,365.9,234.6,365.7,234.3z
		 M290,236.7c-1.5-0.4-2,0.1-2.2,2.1c-0.2,1.6-1.3,3.2-3,4.1c-2.5,1.4-2.9,1.4-5.7-0.7c-3-2.2-3.1-2.2-3.1-0.3c0,1.1,1.4,2.9,3,4.1
		c3.1,2.2,3.9,5.5,2,9c-1.5,2.8,7.6,31,16.4,51.1c8,18,17.9,33,26.7,40.1c5.3,4.3,11.7,7.8,14.2,7.8c1.8,0,12.7-9.5,12.7-11.1
		c0-0.5-1.1-0.9-2.3-0.9c-2.2,0-5.7-2.7-5.7-4.3c0-0.3,3.2-3,7-5.9l7.1-5.2l-3.8-2.3c-2.1-1.3-4.9-2.3-6.3-2.3s-3.6-0.7-4.9-1.6
		c-2-1.4-2.2-2.2-1.7-5.6c0.5-3.3-0.1-5.3-4.4-14.2c-5.1-10.5-15.9-26.4-27.8-41c-5.3-6.5-7.1-8.1-9.3-8.1c-5.4-0.1-8.3-5-5.8-9.6
		c0.7-1.5,0.7-2.4-0.1-3.4C292.4,237.8,291.1,237,290,236.7z M296.5,242.4c-2,1.5-1.7,4.5,0.7,6c2.4,1.5,5.3-1.3,4.4-4.2
		C300.7,241.6,298.6,240.8,296.5,242.4z M370.9,243.4c-3.8-0.5-4.7-0.3-6.5,1.8c-1.2,1.2-2.7,3.4-3.4,4.7c-1.2,2.3-1,2.7,1.8,5.1
		c3.6,3,13.3,8,21.2,11c4.4,1.6,6.8,1.9,11.3,1.4c3.2-0.4,5.6-1,5.5-1.3c-0.2-0.3-1.8-3.2-3.7-6.4c-4.2-7.3-9.6-11.8-16.4-14
		C377.8,244.8,373.4,243.7,370.9,243.4z M428.3,249.4c-13.1,5.4-22,11.3-23.5,15.6c-0.5,1.2,0.5,1.5,5.7,1.3
		c4.8-0.1,8.8-1.2,16.2-4.2c17.5-7.1,28.4-8.7,37.4-5.6c3.5,1.3,4.8,1.3,6.7,0.4c1.2-0.7,2.1-1.7,1.9-2.3c-0.6-2-10.9-6.4-17.2-7.5
		C444.2,245.1,437.4,245.7,428.3,249.4z M274.7,248.1c-2.4,1.4-2.2,5.6,0.3,6.4c2.5,0.8,5-1,5-3.6C280,248.5,277,246.9,274.7,248.1z
		 M274.6,259.5c-1.1,4.2-0.8,17.5,0.4,23c1.8,8.2,7.8,16.9,17.9,26l4.4,4l-2-4c-3.1-6-8.5-20.4-13.3-35.5
		C277.2,258.1,275.7,255.2,274.6,259.5z M357.9,259.7c-1.5,3.9-0.2,9.1,3,12.3c2.4,2.5,3.8,2.9,11.5,3.5c4.8,0.4,11,0.4,13.9,0.1
		c6.1-0.8,12.7-2.6,12.7-3.5c0-0.4-3.7-1.2-8.2-1.9c-8.4-1.3-22-6.8-27.5-11.2C359.9,256.4,359.2,256.5,357.9,259.7z M453.5,258.1
		c-8.3,0-13.6,1.6-33,9.6c-3.8,1.6-7.9,3.3-9,3.7c-2.8,1-1,1.9,10,4.7c11.9,3.1,34.1,3.4,42.2,0.6c12.9-4.5,13.7-11.5,1.9-16.8
		C462.7,258.6,459.2,258.1,453.5,258.1z M405.8,270.4c-1.3-1.3-1.6-1.3-2.7,0c-0.7,0.9-1.1,2.3-0.7,3.1c0.7,2,3.5,1.9,4.3-0.1
		C407,272.6,406.6,271.2,405.8,270.4z M357,272.5c-1.8-1.6-2-1.5-3.3,1.6c-4.3,9.8-6.3,14-9.8,20l-3.8,6.5l2.2,6.2
		c1.3,3.3,2.5,6.3,2.8,6.6c0.3,0.3,3,0.8,6,1.2c6.4,0.8,8.3,1.6,12.6,5.6l3.1,3l2.8-4.1c2.6-3.9,2.7-4.5,1.7-9.4
		c-3.5-17.2-4.7-20.9-7.9-24.1c-2-2-3.4-4.6-3.8-7.3C359.2,276,358,273.4,357,272.5z M395.5,276.7c-5.5,2-20.9,2.8-27.4,1.4
		c-3-0.6-5.6-0.9-5.8-0.7c-0.9,0.8,2.8,6.6,4.8,7.7c1.2,0.6,5.9,1.1,10.5,1.1c7.1,0,9-0.4,13.3-2.7c2.7-1.5,6-3.8,7.2-5.1
		C401,275.3,400.4,274.9,395.5,276.7z M416.8,277.7c-9.5-3-10.1-1.9-2.5,4.8c8.5,7.5,13.9,9.5,25.2,9.5c10.4,0,13.6-0.9,21-6
		c4.9-3.4,8.3-7.9,4.9-6.6c-4.9,2-22.4,2.7-34.4,1.4C427.4,280.4,421,279,416.8,277.7z M403.9,277c-0.3,0-1.8,1.4-3.5,3.1
		c-1.6,1.6-5.8,4.4-9.3,6.2c-5.4,2.6-7.6,3.1-13.7,3.2h-7.3l0.5,4c0.4,2.2,1.9,8.5,3.5,14s3.7,12.5,4.5,15.5c1.9,6.4,3,8,5.5,8
		c1,0,5.5,2.8,10,6.2c11.1,8.4,20.9,10.9,20.9,5.3c0-2.7,2.9-5.5,5.8-5.5c2.2,0,5.6,2.7,6.3,4.9c0.3,0.8,2.2,0.5,6.4-0.9
		c3.3-1.2,10.2-3.2,15.3-4.6c13-3.5,13.4-3.7,16.5-10.6c1.5-3.3,6-11.2,9.9-17.6c7.9-13,13.8-23.2,13.8-23.9c0-0.2-0.4-0.2-0.8,0.1
		c-0.5,0.3-5.5,0.6-11.3,0.7c-9.6,0.2-10.7,0.5-14.3,3c-15.9,11.6-36.8,9.5-52-5.1C407.2,279.7,404.1,277,403.9,277z M494.1,282
		c-0.3,0-3,4.4-5.9,9.8c-2.9,5.3-7.6,13.3-10.3,17.7c-5.5,8.8-10.9,18.9-10.9,20.4c0,0.6,1.8,0.4,4.3-0.5c5.8-2.1,30.5-8.4,32.9-8.4
		c1.8,0,1.9-0.4,1.3-4c-0.4-2.3-2.5-9.4-4.6-15.8c-2.2-6.4-4.4-13.4-5-15.5C495.2,283.7,494.5,282,494.1,282z M538,313
		c-1.1,0-7,11.5-7,13.6c0,0.6,0.9,1.9,2,2.9s2,2.4,2,3.2c0,1-0.6,1.2-2,0.8c-1.8-0.6-2-0.2-2,3c0,5.5-2.1,3.9-4.5-3.5
		c-1.9-6.1-2.2-6.5-6-7.6c-11.2-3.4-23.3-1.2-63.8,11.7c-8.8,2.8-19,5.9-22.9,6.9c-7.4,1.9-12.3,5-8.1,5c2.8,0,5.4,3.7,4.7,6.5
		c-0.5,2.2-0.3,2.2,18.8,3.1c10.6,0.5,29,0.9,40.8,0.9h21.5l9.5-3.3c11.9-4,19.5-8.4,22.1-12.5c2.3-3.7,2.1-6.1-1.7-20.4
		c-1.3-5.1-2.4-9.5-2.4-9.8C539,313.2,538.5,313,538,313z M343,317c0,1.3,4.3,3,7.4,3c1.2,0,3.7,1.1,5.6,2.5c3.3,2.5,7,3.3,7,1.7
		c0-2-4.4-4.6-10.7-6.3C344.6,315.7,343,315.6,343,317z M372,321c-1.4,3.4-0.4,5,3.2,5c1.5,0,1.6-0.4,0.6-3.3
		C374.2,317.9,373.4,317.6,372,321z M364.3,327c-1.8,0-6.5,2.9-15.3,9.2c-2.7,2-2.1,3.5,0.8,1.9c1.1-0.6,5.2-3.3,9.2-6.1
		C363.9,328.7,365.7,327,364.3,327z M369.2,330c-4.6,1.1-18.3,10.9-15.4,11c0.8,0,3.2-1.5,5.4-3.4c5.3-4.5,9.7-6.6,14.5-6.7
		c3,0,3.4-0.2,1.8-0.9C373.2,329,373.4,329,369.2,330z M367.4,335.6c-2.7,1.4-5.6,3.2-6.4,4c-2.4,2.3,0.7,1.8,6.4-1.1
		c8.5-4.3,11.5-3.3,21.6,7c11.4,11.7,18,14.6,25,11c2.5-1.3,3-1.3,3-0.1c0,2.1-2.2,3.4-6.7,4.2c-6.9,1.1-10.7-1-21.9-11.7
		c-5.6-5.5-11-9.9-11.8-9.9c-1.8,0-2.1,1.6-0.5,2.5c2.4,1.6,6.9,9,6.9,11.5c0,2.6-0.4,2.9-7.2,4.4c-7.6,1.7-9.8,2.9-9.8,5.3
		c0,1.1,0.6,1.4,2.3,0.9c6.4-1.8,14.4-1.7,22,0.2c11.5,3,19.9,2.5,25.9-1.4c3.5-2.3,4.4-3.4,3.7-4.5c-1.3-2-1.1-6.7,0.3-7.5
		c1.7-1.1-4-2.5-6.8-1.8c-4.3,1.1-12.6-2.3-19.9-8.2c-3.8-3.1-8-6-9.3-6.5C379.7,332.2,372.5,332.9,367.4,335.6z M418.5,340.4
		c-2,1.5-1.7,4.4,0.7,5.9c2,1.3,4.8-0.6,4.8-3.4C424,340.3,420.7,338.7,418.5,340.4z M366.6,342.2c-2.7,1.4-4.8,1.8-7.1,1.4
		c-5.3-1-5.9,0.7-5.9,16.2c-0.1,12.8-0.3,14.1-2.9,20.1c-4,8.9-8.8,15.8-20.1,28.5c-8.9,10-15.6,20.3-15.6,24.1c0,1,2.8-0.8,7.4-4.9
		c4.9-4.3,10.4-7.9,16.3-10.6c4.8-2.2,9.9-4.6,11.2-5.3c1.4-0.7,5.3-5.3,8.7-10.2c5-7.1,6.3-9.8,6.4-12.7c0-2.7,0.6-4.2,2-5
		c1.1-0.7,2-1.8,2-2.5s1.4-3.5,3-6.3c1.7-2.9,3.2-6.2,3.3-7.3c0.2-2.4-0.9-2.6-7.5-1.3c-4.8,0.9-6.6-1.1-4.8-5.4
		c1.6-3.8,5-5.7,11.8-6.6c3.1-0.4,5.2-1.2,5.2-1.9c0-0.7-1.3-3-2.9-5.1C371.9,340.3,371.1,339.9,366.6,342.2z M323,349
		c-1.7,0,1.5,11.6,4.6,16.7c4,6.7,4.8,10.4,4.1,19c-0.4,5.6-1.6,8.6-8,21.4c-4.2,8.2-7.5,14.9-7.3,14.9s1.5-1.8,3-4
		c1.4-2.1,6.7-8.5,11.7-14.1c11.3-12.6,15.6-19.2,18-27.8c1.9-6.4,2.6-20.1,1.3-23.5c-0.6-1.4-1.1-1.3-3.9,0.9
		c-5.7,4.3-7.9,4.7-13.9,2.5c-2.9-1.1-6.1-2.9-7.1-4S323.4,349,323,349z M425.4,351.2c-1.1-0.2-2.7,0.4-3.4,1.3
		c-1.8,2.2-0.1,5,3.1,5c2,0,2.4-0.5,2.4-3C427.5,352.2,427,351.4,425.4,351.2z M433.4,360.8l-6.2,0.3l0.5,3.8
		c0.5,3.4,0.2,4.1-2.1,5.6c-2.2,1.5-3.1,1.6-5.2,0.6c-1.4-0.6-2.8-2-3.1-3.1c-0.6-2.4-0.2-2.3-4.6-0.5c-4.6,1.9-12,1.9-18.3,0
		c-7-2.2-13.4-2.8-13.4-1.4c0,0.6,2.1,3.4,4.6,6.2c5,5.6,7.5,9.9,9.4,16.4c0.7,2.4,1.5,4.3,1.7,4.3s1.9-1.8,3.9-4
		c3.5-3.8,17.9-12,21.1-12c3.1,0,44-12.8,44.8-14c0.3-0.5-2.3-1.1-5.7-1.4C451.5,360.8,440.3,360.5,433.4,360.8z M422.5,362
		c-3.3,0-4.7,5.2-1.8,6.9c3.7,2,7.1-2.7,4.1-5.7C424.1,362.5,423.1,362,422.5,362z M472.2,363.1c-0.4,0-2.5,1.2-4.7,2.5
		c-5.2,3.1-9.3,4.5-24,8.3c-23.6,6.2-32.2,9.6-39.3,15.6c-2.3,2-4.2,4-4.2,4.4c0,0.5,3,0,6.8-1.1c4.5-1.2,14.1-2.4,29.2-3.4
		c12.8-0.8,24.8-2.1,28-3c7-2,13.9-5.6,16.8-8.7l2.3-2.4l-5.1-6.2C475.1,365.8,472.5,363,472.2,363.1z M379,370c-0.9,0-6,8.6-6,10.1
		c0,0.5,0.5,0.9,1.1,0.9c2.2,0,11.5,5.1,14.8,8c1.8,1.7,3.6,2.9,3.8,2.6c1-1-4.8-11.9-8.8-16.7C381.7,372.2,379.4,370,379,370z
		 M484.8,383.4c-1.3-1.3-1.6-1.3-2.7,0c-0.7,0.9-1.1,2.3-0.7,3.1c0.7,2,3.5,1.9,4.3-0.1C486,385.6,485.6,384.2,484.8,383.4z
		 M375,386.5c0.8,2.1,0.6,2.7-1.3,3.6c-1.2,0.7-2.5,1.7-2.9,2.3c-0.4,0.6-1.2,1.1-1.8,1.1s-4.3,4.6-8.3,10.2
		c-6.3,8.8-12.1,16.4-34,44.6c-7.7,9.9-21,30.4-26.7,41c-9.9,18.5-16.8,37.5-21.8,59.7c-4.5,20-7.8,49.5-6.7,60.5
		c2.9,29.1,9.9,54.8,23,83.5c5.8,12.8,11,20.2,20.7,29.7c6.8,6.7,16.8,15,16.8,13.9c0-0.2-1.3-7.2-3-15.4c-2.7-13.7-3-16.8-3-35.1
		c0-20.1,0.2-22.1,5-44.6c1.5-7,8-23.7,13.4-34.5c13.9-27.9,32.9-49.6,73.2-83.7c53-44.9,64.9-57.5,73.1-77.7
		c6.4-15.9,6.6-30.3,0.8-48.4l-2.7-8.2l-3.4,0.6c-3.9,0.7-6.4-0.8-6.4-3.7c0-2.4-0.6-2.4-5.9,0.6c-2.3,1.4-5.6,2.5-7.1,2.5
		c-1.6,0-3.1,0.4-3.4,0.9s-2.1,0.9-3.8,0.9c-1.8,0-8.2,0.5-14.3,1.1c-6,0.6-14.4,1.1-18.5,1.1c-12.7,0-18.9,1.5-28.4,6.7
		c-2.9,1.5-3,1.5-4.5-0.8c-3.4-5.1-7.7-9.2-12.5-12C374.4,383.4,373.8,383.3,375,386.5z M368.1,386.4c-0.9,1-0.8,1.6,0.3,2.6
		c1.9,1.5,3.6,0.5,3.6-2.1C372,384.7,369.8,384.4,368.1,386.4z M559,627.5c-14.3-0.4-15.8-0.2-26,2.1c-3.6,0.9-7.6,1.8-8.9,2
		c-5,1-19.4,7.4-27.3,12.2c-14.5,8.8-27.4,21.2-42.3,40.7c-21.6,28.2-31.5,37.9-45.7,45.1c-9.4,4.8-15.3,6.3-26.8,7
		c-17.5,1.2-34.1-4-45.8-14.2l-5.2-4.5l0.7,3.3c1.6,8.8,2.5,10,11.3,16c25,16.9,50.2,20,80.5,9.8c17.7-6,18.6-6.9,59.2-57.1
		c13-15.9,30.3-32.7,41.7-40.3c18.6-12.3,33.4-17,54-17.1h12.9l-9.4-2.3C575.1,628.5,568.8,627.8,559,627.5z M568.5,636
		c-2.7,0.4-7,1-9.3,1.4c-12.2,1.7-32.7,12.9-47,25.7c-12.1,10.8-19.4,19-40,44.6c-9,11.1-18.8,22.7-21.8,25.7c-3,3.1-5.2,5.6-5,5.6
		c0.3,0,8.3-3.2,17.8-7c9.5-3.9,21.9-8.9,27.6-11.2l10.2-4.1l7.3-11.4c3.9-6.2,8.9-14,10.9-17.3c5.9-9.6,18.6-25.6,24.7-31.2
		c7.7-7.1,15.9-12.2,25.3-15.8c7.6-3,10.8-3.6,18.8-4.1c3.1-0.1,2.9-0.3-1.5-0.9C580.4,635,575.1,635,568.5,636z M582.5,640.5
		c-24.2,4.5-38.6,16.1-59.6,48c-13.8,20.9-17.3,26.5-16.6,26.5c0.2,0,2.4-0.7,4.8-1.6c2.4-0.8,9.1-2.4,14.8-3.5
		c5.7-1,10.7-2.1,11-2.5c0.7-0.6,10.6-16.1,18-28c5.9-9.6,13.2-17.8,21-23.8c6-4.6,19-11.5,25.6-13.7l4-1.3l-4-0.7
		C595.8,638.8,590.6,639,582.5,640.5z M598.4,646.1c-1.5,0.1-12.6,6.2-17.9,9.9c-8.2,5.7-13.4,11-20.4,21
		c-6.9,9.7-19.1,29.2-19.1,30.4c0,0.3,4.3,0.6,9.5,0.6h9.4l7.9-16.3c9.1-18.8,15.9-29.5,25-39C596.4,649,598.9,646,598.4,646.1z
		 M508.1,717.3c-3.9,1-5.1,2.1-9.4,8.2c-2.7,3.8-8.3,10.9-12.4,15.7c-4,4.9-7,8.8-6.6,8.8c0.5,0,3.5-1.1,6.8-2.4s8.9-3.5,12.5-4.9
		s9.9-3.9,14-5.5l7.5-3l6.8-10.7c3.7-5.9,6.7-11.1,6.7-11.6C534,710.4,534.8,710.2,508.1,717.3z M548,711h-9.9l-1.7,3.2
		c-0.9,1.7-3.6,6.2-6.1,10.1c-2.4,3.8-4.2,7.1-4,7.4c0.4,0.4,4-0.5,20.5-5.3c4.9-1.4,5.4-1.9,8.2-7.4c1.7-3.3,3-6.4,3-7
		S554.2,711,548,711z M563.3,711c-1.2,0-7.6,11.9-6.9,12.7c0.1,0.2,2.9-0.2,6.2-0.7c14-2.3,30-0.6,42.5,4.5c3.4,1.4,6.4,2.3,6.6,2.1
		c1.1-1-20-12-25.1-13c-1.2-0.3-6.5-1.6-12-3C569.2,712.2,564.1,711,563.3,711z M304.4,722.3c0.7,1.8,2.6,4.3,4.1,5.7l2.7,2.5
		L308,725C303.2,716.8,301.5,715.5,304.4,722.3z M497.8,721.1c-0.8,0.1-15.2,5.8-30.8,12.2c-4.7,1.9-12.4,5.1-17.2,7.1
		c-4.8,1.9-12.9,5.3-18,7.5c-17.3,7.3-21.5,8.2-40.8,8.8c-20.2,0.6-27.1-0.5-40.3-6.1c-4.4-2-8.3-3.4-8.5-3.2
		c-0.8,0.8,19.7,13.5,27.3,16.9c7.3,3.3,9.2,3.7,20,4.3c14.3,0.7,32-0.7,43-3.6c4.4-1.1,8.9-2.2,10-2.4s7.3-2.1,13.8-4.1
		c8.8-2.8,13-4.7,16.8-7.6c5-4,14.1-14.6,21.2-24.5C496.4,723.4,498,721,497.8,721.1z M315.3,727c-2.9-2.9-5.3-4.9-5.3-4.7
		c0,0.3,2.5,4.5,5.5,9.4c4.5,7.2,6.9,9.9,13.2,14.6c4.2,3.1,7.8,5.5,8,5.3c0.3-0.2-0.1-2.3-0.8-4.6c-1-3.4-2.6-5.2-8.3-9.5
		C323.7,734.6,318.1,729.8,315.3,727z M575.7,725.1c-8.6,0.2-20.2,2-21.6,3.4c-0.6,0.6-3.1,4.9-5.7,9.5c-2.6,4.7-5.7,10.4-7,12.8
		c-3,5.4-3,5.6,0.5,3.7c1.6-0.8,7.6-3.4,13.3-5.8c25.5-10.8,36.2-13.9,48-14.1c4.9,0,8.8-0.4,8.8-0.7c0-1.3-12.9-5.8-20.8-7.3
		C586.7,725.7,579.7,725.1,575.7,725.1z M549.9,728.6c-0.2-0.2-4.7,1-9.9,2.7c-18.6,5.8-16.8,4.7-25.5,16.5
		c-4.4,5.9-12.4,15.1-17.8,20.4c-5.3,5.4-9.6,9.8-9.4,9.8c0.1,0,7.2-2.9,15.7-6.5s18.2-7.7,21.5-9.1c3.3-1.4,6.7-3,7.6-3.7
		c2.3-1.8,7-9.1,12.9-20C547.9,733.3,550.1,728.8,549.9,728.6z M307.6,733c0.9,3.1,6.1,9.4,15.9,19l7.7,7.5l-5.4-7.4
		C318.9,742.3,306.6,729.5,307.6,733z M341.3,739.7c-4.7-3.2-6.6-3.2-4.5-0.1c1.3,2,23.2,12.3,23.2,10.9c0-0.3-3-2-6.7-3.9
		C349.5,744.7,344.1,741.6,341.3,739.7z M593,738.6c-10.5,2.1-30.3,9.5-49.1,18.2c-8.2,3.8-9,4.5-16.1,13.3
		c-27.9,35-63.9,49.6-107,43.4c-23.7-3.3-50-15.8-67.8-32.2c-3.6-3.2-10.3-8.8-15-12.3s-12.6-10.4-17.6-15.4
		c-10.1-10.1-10.2-10-2.1,6.3c3.5,7,5.5,9.6,12.5,16c24.2,22.1,54.4,38.3,82.7,44.4c8.1,1.7,13.4,2.1,28,2.2
		c20.9,0,31.4-1.8,48.8-8.4c22.8-8.7,36.4-17.2,71.2-44.2c22.3-17.3,41.3-28.8,50.4-30.5c3-0.6,3.3-0.8,1.6-1.5
		C610.5,736.7,600.3,737.1,593,738.6z M508.5,742c-3.8,1.6-11.3,4.5-16.5,6.5c-18.5,7-20.5,7.9-23.6,10.1
		c-8.1,5.9-24,13.7-30.3,14.9c-20,3.9-29.5,4.2-42.7,1.5c-2.7-0.5-6-1.2-7.4-1.4s-6.5-1.5-11.5-2.9c-4.9-1.4-10.5-2.8-12.3-3.2
		c-1.7-0.3-5.7-1.6-8.8-3c-3.1-1.4-6.1-2.5-6.7-2.5c-2,0,16,12.7,24.5,17.3c8.1,4.4,22.3,10.3,27,11.3c12.4,2.5,16.3,2.7,27.6,1.4
		c6.4-0.7,13.5-1.4,15.7-1.6c2.1-0.2,7.9-1.5,12.7-2.9c4.8-1.4,9.3-2.5,10.1-2.5c0.8,0,4.7-1.6,8.7-3.6c8.7-4.4,25-19.5,34.3-31.9
		c3.3-4.4,6.5-8.6,7-9.3C517.7,738.4,516.3,738.7,508.5,742z M607.5,744.1c-4.3,0.2-18,8.7-35.4,21.8c-8.4,6.4-19.5,14.7-24.5,18.4
		c-26.5,19.9-45.1,29.7-69.1,36.6c-21.9,6.4-52.1,6.4-73.9,0c-23.9-6.9-40.4-15.1-60.5-30.3c-5.1-3.9-10.5-8-12-9.1
		c-1.9-1.4-1.3-0.4,1.8,3.5c11.5,14.3,28.5,29.6,42.1,38c11.9,7.5,32.6,16.9,40.2,18.4c1.3,0.2,6.4,1.5,11.3,2.8
		c8.1,2.1,11.2,2.3,31.5,2.3c22.4,0,22.6,0,33.7-3.2c32.5-9.4,53.7-26.2,91.4-72.4c5.5-6.8,13.3-15.7,17.2-19.7
		C605.2,747.3,608,744,607.5,744.1z M331.6,754.5c4.4,5.3,9.4,10.2,9.4,9.3c0-2.9-2.9-7.3-6.4-9.7
		C327.6,749.4,327.4,749.4,331.6,754.5z M340,750.9c0,2.1,4,5.4,9.8,8.1c3.4,1.6,6.2,2.6,6.1,2.2C355.8,760.1,340,749.9,340,750.9z
		 M361.9,750c-0.5,0-0.7,0.4-0.4,1c0.3,0.5,0.8,1,1.1,1c0.2,0,0.4-0.5,0.4-1C363,750.4,362.5,750,361.9,750z M445.5,764.6
		c-12.5,3.6-26.6,6.3-37.3,7.1c-4,0.3-7,0.8-6.7,1.1c0.2,0.3,6.4,0.5,13.7,0.4c11.5,0,14.5-0.4,21.8-2.7c7.1-2.3,18.4-6.9,19.9-8.2
		C458.4,761.1,455.1,761.7,445.5,764.6z M343.6,765.2c-0.9,3.1,5,8.3,15.5,13.8c6.6,3.4,23.7,10.1,25.8,10c0.3,0-3.9-2.4-9.4-5.3
		c-12-6.4-17.5-9.8-23.5-14.6C343.8,762.5,344.3,762.7,343.6,765.2z M528.3,764.1c-0.4,0-4.4,1.7-8.8,3.6
		c-16,6.9-22.2,9.5-31.5,12.9c-5.2,1.9-13.8,5.4-19,7.8c-16.3,7.5-19.1,8.1-40,8.1c-25.1-0.1-44.9-3.6-62.5-11.1l-8-3.4l3.5,3
		c9.2,7.9,34.4,20.9,43.7,22.6c1.4,0.3,5,1.1,8,1.9c35.4,9.2,73.1-1.6,100.3-28.6c4.7-4.7,10-10.4,11.8-12.7
		C527.7,765.9,528.8,764,528.3,764.1z M447.4,792.1c-1.1,0-1.4,0.3-0.6,0.6c0.7,0.3,1.6,0.2,1.9-0.1
		C449.1,792.3,448.5,792,447.4,792.1z M442.4,793.1c-1.1,0-1.4,0.3-0.6,0.6c0.7,0.3,1.6,0.2,1.9-0.1
		C444.1,793.3,443.5,793,442.4,793.1z M436.4,794.1c-1.1,0-1.4,0.3-0.6,0.6c0.7,0.3,1.6,0.2,1.9-0.1
		C438.1,794.3,437.5,794,436.4,794.1z"/>
	<path d="M447.3,100.1c4.1,2.1,8.7,7.2,8.7,9.7c0,4.1-7.5,10.7-14.4,12.7c-5.4,1.6-15.9,1.6-17.5,0c-0.6-0.6,3.7-10.1,6.3-13.9
		c1-1.5,3.7-3.7,6-4.7c4-1.8,4-1.9,1.2-1.9c-2.2,0-4,1.2-7.2,4.5c-2.4,2.4-4.6,4-4.9,3.5c-1-1.7,3.3-7.6,6.8-9.4
		C436,98.8,444.2,98.5,447.3,100.1z M447.7,108.6c-1.1-1.5-1.2-1.2-1.2,2.4c0,3-0.6,4.6-2,5.6c-1,0.8-1.3,1.4-0.7,1.4
		c1.8,0,5.2-3.8,5.2-5.8C449,111.2,448.4,109.6,447.7,108.6z M452,107.5c-0.6-0.4-1,0.5-1,2s0.4,2.4,1,2c0.6-0.3,1-1.2,1-2
		S452.6,107.8,452,107.5z M429.2,116.5c-1.9,4-1.5,4.5,3.4,4.5h4.7l-2.7-2.6c-1.4-1.5-2.6-3.1-2.6-3.5
		C432,113.1,430.3,114.1,429.2,116.5z"/>
	<path d="M389.8,106.8c0.7,2.2-2.5,2.3-8.5,0.3c-6.4-2.2-8.8-1.9-15.1,1.3c-1.8,0.9-3.2,1.2-3.2,0.7c0-0.9,4.1-4,7-5.3
		C373.8,102.1,389,104.4,389.8,106.8z"/>
	<path d="M478.6,113.7c0.6,4.9-1.4,8.8-4.5,8.8c-1.4,0-2.6-0.6-2.9-1.4c-0.3-1,0-1.2,1.1-0.8c3.6,1.4,4.3-9.6,0.7-11.8
		c-0.5-0.3-0.8-1.1-0.5-1.6C474.2,104.3,478,108.5,478.6,113.7z"/>
	<path d="M402.4,115.7c3.7,5.9,4.9,10.9,4.2,17.7c-0.3,3.4-0.7,7.2-0.9,8.6c-0.1,2,0.5,2.8,3,4c1.8,0.8,3.3,2.1,3.3,2.7
		c0,2.2-4.5,1.4-7-1.2c-2.1-2.2-2.2-3-1.5-7.7c1.5-9.6,1-13.9-2.3-20.5c-1.8-3.4-3.2-6.5-3.2-6.8C398,110.8,400.3,112.5,402.4,115.7
		z"/>
	<path d="M417.5,141.2c1.6,2.3,1,4.8-1.2,4.8c-0.9,0-1.3-0.6-0.9-1.5c0.3-1-0.5-2-2.5-3c-1.6-0.9-2.7-2-2.5-2.4
		C411.3,137.7,416,139.1,417.5,141.2z"/>
	<path d="M437.2,147c1.4,0,0.9,2.7-0.8,4.1c-0.9,0.7-3.6,4.1-6.1,7.6c-5.4,7.6-8.3,9.3-15.8,9.3c-4.9,0-6-0.4-8.3-2.8
		c-1.5-1.6-4.1-3.4-5.9-4.1c-1.7-0.7-3.4-2-3.7-2.8c-0.5-1.2,0-1.3,2.5-0.8c2.4,0.5,4.4,0,8.5-2c4-2,7.6-2.9,15-3.5
		c7.8-0.7,10.1-1.2,11.8-2.9C435.5,147.9,436.8,147,437.2,147z M424.5,154.2c-5.1,0-13.4,1.9-16,3.6c-1.9,1.3-1.9,1.3,0.5,0.7
		c1.4-0.3,5.4-1.1,9-1.7c3.6-0.5,7.4-1.4,8.5-1.8C428,154.3,427.5,154.1,424.5,154.2z M420,159.6c-3,0.7-7,1.4-8.8,1.5
		c-3.7,0.3-3.7,1.4,0,4.2c2.3,1.7,3,1.8,6.2,0.7c3.8-1.2,9.6-5.5,9.6-7.1C427,157.8,426.9,157.8,420,159.6z"/>
	<path d="M440.4,197.5c0.6,1.8,3.7,2,5.3,0.4c0.7-0.7,1.9-0.9,2.8-0.5c2.5,0.9,0.1,3.4-4.1,4.2c-3.9,0.7-6.4-0.8-6.4-3.7
		C438,195.6,439.6,195.4,440.4,197.5z"/>
</g>
</svg>
