<?xml version="1.0" encoding="utf-8"?>
<!-- Generator: Adobe Illustrator 21.0.0, SVG Export Plug-In . SVG Version: 6.00 Build 0)  -->
<svg version="1.1"
	 id="svg224" inkscape:version="0.92.2 5c3e80d, 2017-08-06" sodipodi:docname="4.svg" xmlns:cc="http://creativecommons.org/ns#" xmlns:dc="http://purl.org/dc/elements/1.1/" xmlns:inkscape="http://www.inkscape.org/namespaces/inkscape" xmlns:rdf="http://www.w3.org/1999/02/22-rdf-syntax-ns#" xmlns:sodipodi="http://sodipodi.sourceforge.net/DTD/sodipodi-0.dtd" xmlns:svg="http://www.w3.org/2000/svg"
	 xmlns="http://www.w3.org/2000/svg" xmlns:xlink="http://www.w3.org/1999/xlink" x="0px" y="0px" viewBox="0 0 850 850"
	 style="enable-background:new 0 0 850 850;" xml:space="preserve">
<style type="text/css">
	.st0{fill:none;}
	.st1{fill:#FF9900;}
	.st2{fill:#FFCC00;}
	.st3{fill:#CCCC99;}
	.st4{fill:#99CC00;}
	.st5{fill:#99FFFF;}
	.st6{fill:#99FF33;}
	.st7{fill:#9999FF;}
	.st8{fill:#CC0033;}
	.st9{fill:#CCFFFF;}
	.st10{fill:#CC66FF;}
	.st11{fill:#CC99FF;}
	.st12{fill:#CCCCFF;}
	.st13{fill:#99CCFF;}
	.st14{fill:#99FFCC;}
</style>
<sodipodi:namedview  bordercolor="#666666" borderopacity="1" gridtolerance="10" guidetolerance="10" id="namedview226" inkscape:current-layer="svg224" inkscape:cx="623.54096" inkscape:cy="254.05427" inkscape:pageopacity="0" inkscape:pageshadow="2" inkscape:window-height="978" inkscape:window-maximized="1" inkscape:window-width="1920" inkscape:window-x="0" inkscape:window-y="1" inkscape:zoom="0.83294118" objecttolerance="10" pagecolor="#ffffff" showgrid="false">
	</sodipodi:namedview>
<g id="g222" transform="translate(0.000000,0.000000) scale(1.00000,1.00000)">
	<path id="path4" class="st0" d="M0-1.5l204.3,0.1c112.3,0.1,203.3,0.3,202.2,0.5c-1.1,0.1-6.9,0.8-13,1.5c-18.7,2-42.4,8.5-62,17.1
		c-31.8,14-67.8,41.5-89.7,68.7c-26.8,33.2-44.5,76.5-49.9,122.1c-0.7,5.8-1.3,10.6-1.4,10.8c-0.2,0.3-23.4-8.5-30.8-11.7
		c-7-3-12.1-2.8-14.5,0.6c-2.8,4.1-5.2,10.9-6.8,19.1c-2.4,12.6-1.5,26.2,2.7,42.6c1.1,4.3,1.8,8,1.7,8.2c-0.2,0.1-3.7-1.8-7.8-4.3
		c-16.3-10-30.1-14.5-44.5-14.6c-9.5-0.1-12.7,0.9-14.6,4.5c-0.7,1.2-1.1,7.8-1.2,16.7c0,16.6,1.6,25.2,6.3,34
		c1.7,3,2.9,5.6,2.7,5.7c-0.2,0.2-8.9,1.2-19.5,2.3c-10.5,1.1-20.2,2.6-21.4,3.3c-1.3,0.7-3.7,2.2-5.4,3.3l-3.1,1.9l4,3.3
		c2.2,1.9,5.6,4.1,7.5,4.8c1.8,0.8,14.1,3.2,27.3,5.2c13.1,2.1,23.9,4.1,23.9,4.4c0,0.4-10.1,9.3-22.5,19.8
		c-12.4,10.6-23.2,20.5-24,22.2l-1.6,2.9h4.2c2.2,0,15.8-2.7,30.1-6s26.6-6,27.3-6s-5.8,10.7-14.6,23.7
		c-14.4,21.5-15.9,24.1-15.9,28v4.3h3.9c3.2,0,6.2-1.6,18.2-9.6c7.9-5.3,17-11.6,20.1-14c3.1-2.4,5.9-4.4,6.1-4.4
		c0.3,0-0.3,3.7-1.4,8.2c-3.7,16.8-9.1,49.8-8.5,52.3c0.8,3.2,3.5,3.3,7.3,0.1c1.5-1.3,9.8-11.9,18.3-23.6
		c14.7-20.3,15.5-21.2,16.2-18.4c0.4,1.6,1.9,11,3.4,20.9c2,13.9,3.2,19.1,5.2,22.7c1.4,2.7,2.8,4.8,3.3,4.8c1.1,0,6.7-6.6,7.3-8.7
		c1.9-6.5,10-38,12.6-49c3.3-13.9,5.9-19.2,10-20.6c2.1-0.8,3.2-0.2,7.1,3.5c7.4,7.2,16.6,8.5,25.9,3.8c4.7-2.4,10.7-9.2,11.5-13.2
		c0.4-1.6,1.2-2.7,1.8-2.5c0.5,0.1,12.7,10.2,26.9,22.3L301,434l-6.3,0.3c-4.7,0.2-7.6-0.3-11.1-1.8c-2.6-1.1-6.4-2.3-8.5-2.6
		c-4.1-0.7-5.4,0.3-6.5,4.8c-0.4,1.7-1.9,3.3-4.3,4.5c-3.9,1.9-4.6,4-2.9,9c0.5,1.7,0.1,2.5-2.3,3.9c-4.2,2.5-4.4,3.7-1.5,7.9
		c2.3,3.5,2.4,3.9,0.9,6.1c-0.8,1.3-1.5,2.7-1.5,3.3c0,1.2,7.4,4.1,10.4,4.1c4.1,0,7.4,3.8,16.1,18.6c11.3,19.1,23.9,37.8,27.1,40.3
		c6.9,5.4,13.3,4.9,30.8-2.3c6.1-2.5,11.1-4.4,11.3-4.3c0.1,0.2-1.1,3.9-2.8,8.3c-12.6,32.6-15.2,45.5-15.3,76.9
		c-0.1,21.2,1.1,32.1,5.6,49.9c4.8,19.4,11.8,35.7,23.9,56.2c6.9,11.6,13.2,25.2,15.9,34.2c2.9,9.6,2.6,20.5-1,27.7
		c-4.9,10-16.5,18.1-32.2,22.5c-15.3,4.2-26.1,1.6-33.8-8.1c-2.1-2.7-4.2-5.8-4.5-7c-1-3.1-2.9-1.7-3.7,2.7
		c-2.9,16.1,2.1,32.5,13.1,43.4c6.5,6.4,12.7,10.2,22.6,13.5l7,2.3l-173.7,0.1L0,848.5v-425V-1.5z"/>
	<path id="path6" class="st0" d="M644.3-1.3L850-1.5v425v425l-169.2-0.1H511.5l8-2.7c19.5-6.6,30.2-17.8,34-35.7
		c1.5-7.1,1.8-17.6,0.6-22.9l-0.6-2.9l-3.3,5.1c-8.1,12.6-24.1,17.4-39.9,11.9c-7.7-2.6-19.7-10.1-25.5-15.8
		c-7.1-7-9.3-13.2-9.2-26.4c0.1-12.8,3.3-21.5,15.5-42.3c13.2-22.2,18.1-32.4,22.2-46.2c5-16.4,6.8-28.1,7.4-47
		c0.9-27.9-3.1-49.5-15.2-82.8c-3.5-9.7-6.3-17.8-6.1-17.9c0.1-0.1,5.1,1.8,11,4.2c20.6,8.6,40.3,13.9,62.2,17
		c8.7,1.2,11.9,2.2,17.6,5.2c6.2,3.4,7.4,4.5,10.5,10.1l3.6,6.3l3.2-3.1c3.2-3.1,3.4-3.2,5.6-1.6c3.9,2.7,5.9,2,7.7-2.4
		c1.6-3.9,1.9-4.1,5-3.5c4.1,0.7,6.2-0.8,6.2-4.4c0-1.9,1.4-4.1,4.8-7.4l4.8-4.7l6.6,3.5c10.3,5.5,18,7.6,29.9,8.2
		c5.8,0.3,12.7,0.3,15.2-0.1c4.2-0.7,4.9-1.2,9.1-7.4c2.5-3.7,4.6-7.7,4.6-9c0-4,1.8-6,7.2-7.7c6.9-2.3,9.8-4.1,9.8-6.4
		c0-1-1.2-4.4-2.6-7.6l-2.6-5.7l3.2-7c3.9-8.4,3.6-9.4-3.9-12.3c-5-1.9-5.2-2.2-4.7-5c0.3-1.7,0.9-5.3,1.2-8.1
		c0.6-4.7,0.4-5.3-1.5-6.4c-1.2-0.6-5-1.4-8.4-1.8c-5.7-0.6-6.2-0.9-6.5-3.2c-1-9.5-3.1-13-7.6-13c-1.4,0-2.7-0.3-2.9-0.8
		c-0.5-0.8,2-24.2,2.6-24.9c0.3-0.2,2,1.7,3.7,4.4c1.8,2.6,9.4,13,16.9,23c15.6,20.9,18.9,23.6,21,17c1-2.8,0.3-7.4-3.9-29.3
		c-2.8-14.2-5.3-27-5.6-28.3l-0.5-2.4l3.3,2.5c21.6,16.5,38.1,26.8,42.7,26.8c1.3,0,2.6-1,3.2-2.4c0.9-2,0.7-3.4-1.3-7.8
		c-2.1-4.4-23.4-36.2-30-44.7c-1-1.3-1.7-2.5-1.6-2.7c0.2-0.1,13.3,2.9,29.3,6.7c25.8,6.1,33.5,7.3,33.5,5s-6.2-8.3-25.5-24.6
		c-12.1-10.2-22.1-19-22.3-19.5c-0.2-0.6,0.7-1,1.9-1s9.6-1.1,18.5-2.5c26.7-4.2,42.4-9.4,42.4-14.2c0-1.6-6.6-5.1-11.5-6.2
		c-4.2-0.9-32.9-4.1-37-4.1c-0.9,0-0.1-2.3,2-6.5c1.8-3.6,3.8-9.3,4.6-12.7c1.5-6.7,1.9-32.2,0.6-37c-1.1-4.1-4-5.1-14.7-5.1
		c-14.9,0.1-27.9,4.3-44,14.2c-4.5,2.8-8.5,5-8.7,4.7c-0.2-0.2,0.5-3.5,1.6-7.2c6.1-20.7,5.7-42.1-1-57.3c-2.7-6.1-4.7-8.1-8-8.1
		c-1.5,0-11.1,3.1-21.3,7c-10.2,3.8-18.8,7-19.1,7c-0.3,0-0.5-2-0.5-4.4c0-6.8-4.5-31.8-8-44C632.6,105,588.8,52.4,528.5,23
		c-27.4-13.4-56-21.3-86-23.8C440.3-1,531.1-1.2,644.3-1.3z"/>
	<path id="path8" class="st1" d="M417.2,4.5C427,4.5,435,4.7,435,5c0,0.3-8.4,12.6-18.7,27.3c-49.9,71.1-84.8,125.8-111.8,174.7
		c-9.7,17.6-28.7,56.1-35.8,72.5c-6.1,14-7.9,15.6-9.9,8.8c-1.6-5.3-1.5-25.5,0.1-38.8c8.9-73.6,33.9-132.8,79.2-187.5
		c12.4-15,50.3-52,56.3-55C399.2,4.6,400.3,4.5,417.2,4.5z"/>
	<path id="path10" class="st2" d="M447,4.6c2.7,0,21,2.5,21.5,3C469,8.1,458,44.4,452.9,59c-25.5,72.9-72.5,145.3-131.5,202.5
		c-22.7,22-47.1,43.7-49.7,44.2c-2.6,0.5-8.7-1.5-8.7-2.8c0-1,18.3-39,31.7-65.8C323.4,179.7,354,130.3,414,44.5
		c24.9-35.6,26.6-37.9,29.4-39C444.6,5,446.2,4.6,447,4.6z"/>
	<path id="path12" class="st2" d="M380.6,7.6c0.7-0.1-6.8,7.9-16.5,17.6C354.3,35,343,47,338.8,52c-52,62.2-79.9,130.8-85.8,210.9
		c-0.6,7.7-1.2,14.1-1.4,14.3c-0.1,0.2-2.5-0.4-5.2-1.2c-2.7-0.8-7.9-1.5-11.5-1.5h-6.7l-0.7-12.8c-1.8-31.2,2.9-74.3,11.6-105.3
		c12.2-43.8,34.5-81.6,67.3-114.5c10-9.9,13.5-12.8,20.2-16.2c10-5.1,27.3-11.4,41.9-15.2C374.6,8.9,380,7.6,380.6,7.6z"/>
	<path id="path14" class="st1" d="M473.9,7.5c0.8,0,56.5,20.1,56.9,20.5c0.5,0.5-18,41.8-27.7,62c-23.2,47.9-49.5,84.3-89.2,123
		C388,238.1,365,256.6,285.3,316.2l-3.1,2.4l-3.1-4.4l-3-4.4l11.2-9.8c94.5-82.1,154.9-174.6,182.8-280.3
		C471.9,13,473.6,7.5,473.9,7.5z"/>
	<path id="path16" class="st2" d="M539.9,34.5c3.3,1.6,6.5,3.9,7.2,5.1c1.4,2.7,0.6,8.2-3.2,22.7c-8.4,31.9-26,63.4-64.4,115
		c-40.6,54.8-93.3,101.7-155.8,139c-26.5,15.8-42.6,25.2-43.2,25.2c-0.9,0,0.2-7,2-13.6c1.7-5.8-1.3-3.3,36.5-31.9
		c67.4-51.1,85.7-66.2,109-90.1c33.3-34.1,59.9-72.3,82-117.9c6.9-14.2,18.3-40.9,23.3-54.8C533.9,31.6,534.5,31.7,539.9,34.5z"/>
	<path id="path18" class="st2" d="M557,44.9c0.8,0.7,6.2,5.1,12,9.8c36.7,29.9,62.9,69,75.9,113.3c4.1,13.9,8,34.7,8.8,46.9
		c0.6,9.8,0.5,10.4-2.1,14.8c-4.2,7.2-4.9,13.5-3,26c1,6,1.6,11,1.3,11.2c-0.2,0.3-3.1,0.8-6.4,1.1l-6.1,0.7l-1.7-20.8
		c-2.4-30.5-6.1-49.3-14.4-73.4c-10.6-31-25.4-59.1-53.8-102.4c-12.3-18.8-15.9-26.1-13.4-27.7C554.9,43.9,556.1,44.1,557,44.9z"/>
	<path id="path20" class="st2" d="M286.6,55c-30.6,36.7-51,81.8-59.5,131.5c-3.5,20.6-4.5,34.8-4.5,63.2c0,15.3-0.2,27.8-0.4,27.8
		s-5.1-2.5-10.8-5.6l-10.4-5.6l0.6-11.2c0.6-9.8,0.4-12-1.4-17.7c-3.6-10.8-4.5-22.3-2.7-33.9c7.7-51.7,27.8-93.5,62-128.9
		c10-10.3,27.9-26,33-28.9C296.2,43.6,296.3,43.4,286.6,55z"/>
	<path id="path22" class="st1" d="M552.8,58.5c1.1,0.1,22.5,33.8,33,52c5.3,9.1,13,23.7,17.3,32.5c16.8,34.7,21.7,53.9,26.9,104.5
		c3,28.4,2.4,31.8-5.3,29.5c-7.6-2.3-11.5-4.3-13.1-6.7c-0.9-1.3-3.7-14.9-6.5-31.3c-2.8-16-5.9-33.5-7.1-39
		c-6.3-30.7-18.3-65.9-36-106c-11-24.9-11.3-25.8-10.6-30.9C551.8,60.6,552.4,58.5,552.8,58.5z"/>
	<path id="path24" class="st1" d="M557.6,96.1c24.5,56.2,39.2,106.9,45.9,158.7c2.3,18.3,2.4,17.8-4.2,22.9
		c-6.8,5.2-9.4,9.8-10.1,18.3c-0.2,3.6-0.9,6.5-1.3,6.5c-1.9,0-9.4-21.9-14.3-42c-4.3-17.3-7.6-38-12.1-75.5
		c-2-16.5-5.6-46.1-8-65.8c-2.4-19.7-4.1-36.5-3.8-37.4C550.5,79.8,550.5,79.8,557.6,96.1z"/>
	<path id="path26" class="st3" d="M541.8,88.5c0.4,0,0.2,4.9-0.5,11c-5.5,48.7-7,94.5-3.8,117c4.6,32.5,12.4,57.3,27.5,88
		c4.4,9,4.4,9,2.4,21.3c-0.9,5.2,1.6,11.3,6.7,16.6l4.1,4.2l-2.1,4.9c-2.7,6.1-2.7,15-0.2,20.5c2.4,5.3,9,11.1,14,12.5
		c2.3,0.6,4.1,1.3,4.1,1.6c0,0.2-0.8,1.7-1.7,3.2c-9.3,14.8-31.8,31.4-63.8,47.2c-21.1,10.4-33.2,15-51.1,19.6
		c-17.1,4.3-29.8,5.6-52.9,5.6c-20.9,0-35.9-1.6-54-5.9c-29.3-6.9-58.5-20.9-84.4-40.5c-8.1-6.1-29.1-24.8-29.1-25.9
		c0-0.5,2.4-2.6,5.3-4.7c6.4-4.7,11.5-10.4,12.3-13.6c0.3-1.3,1.1-6,1.7-10.5l1.2-8.2l15.5-5.3c89.2-30.3,156.4-85.5,207.2-170.4
		c12.8-21.3,40.8-81,40.8-86.8C541,89.1,541.4,88.5,541.8,88.5z M311.6,374.4c-1.7,1.7-3.3,3.1-3.8,3.1c-0.4,0-3.1-1.6-5.8-3.6
		c-5-3.6-8-3.9-8-1c0,0.9,2.7,3.4,6,5.7c3.2,2.3,5.7,4.7,5.3,5.2c-0.3,0.5-2.5,0.6-4.9,0.2c-5.2-0.7-11.6,0.3-11.1,1.9
		c0.2,0.6,2.8,1.6,5.8,2.2c8.3,1.7,8.8,2,5.4,3.4c-6.5,2.6-8,3.6-8.3,5.7l-0.3,2.1l6.7-1.9c3.7-1,6.8-1.8,6.9-1.6
		c7.7,11.4,11.8,15,19.5,16.6c13.1,2.8,26.1-8.1,26.2-22.2c0.1-9-5.3-16.6-14.7-20.8C326.9,365.2,318.8,366.8,311.6,374.4z
		 M513.6,368c-5.6,2-8.7,4.5-11.9,9.7c-8.2,13.1-1.5,29.9,13.6,34.3c6.2,1.8,9.9,1.4,15.8-1.6c3.9-2,9-7.3,11.4-11.9
		c0.9-1.7,1.7-3,1.8-3s2.4,0.7,5.1,1.5c10.3,3.1,12,0.5,2.5-4c-6.8-3.3-6.4-3.8,3.4-5c3.2-0.4,5.7-1.1,5.7-1.6c0-2-4.4-3.1-10-2.4
		c-3.6,0.4-6,0.3-6.4-0.4c-0.4-0.5,2.1-2.9,5.4-5.2c6.1-4.4,6.9-5.6,4.9-7.6c-0.9-0.9-2.7-0.2-7.2,2.9c-4,2.7-6.4,3.8-7.2,3.2
		c-0.7-0.5-3.1-2.4-5.5-4.2c-2.4-1.8-6.6-3.9-9.3-4.7C519.6,366.2,518.6,366.2,513.6,368z M440.2,413.1c-1.2-0.7-6.2,4.9-6.2,6.9
		c0,1.7-5.7,6.5-7.8,6.5c-0.9,0-4.5-3-7.9-6.6c-6.5-6.8-9-7.4-7.9-2.1c1.5,7.3,8.6,13.7,15.3,13.7c5.8,0,12.9-7.2,14.8-15.1
		C440.9,414.9,440.7,413.4,440.2,413.1z"/>
	<path id="path28" class="st2" d="M548.1,119.4c0.7,0.7,2.3,12.9,7.9,61.2c6.1,52.7,11.3,79.7,20.5,107.4c2.4,7.1,4.6,13.7,5,14.6
		c0.4,1.1-0.7,2.4-3.6,4.3c-4.8,3.2-3.9,4.1-10.8-9.4c-11-21.4-18.5-45.2-23.3-73.5c-2.1-12.7-2.3-17.1-2.3-46.5
		c0-36.7,1.6-57.6,4.4-58.3C546.8,119,547.8,119.1,548.1,119.4z"/>
	<path id="path30" class="st1" d="M504,155.2c1.7,0.5,1.5,1.1-1.8,7.1c-37.9,70.1-95,126.1-162.8,160.1c-16.8,8.4-47,20.1-43.4,16.8
		c0.8-0.8,7.4-4.9,14.5-9.2c34.2-20.6,64.3-41.1,87-59.3c15.8-12.7,54.1-51.1,68.5-68.7c6.2-7.7,16.9-21.5,23.8-30.6
		C499.5,158.3,502.5,154.8,504,155.2z"/>
	<path id="path32" class="st4" d="M151.9,210.5c2.1,0,22.4,8.1,30,12c6.6,3.3,12.4,9,14.6,14.2c2,4.8,1.9,14-0.1,23.1
		c-1.5,6.4-2.2,7.6-7.2,12.5c-3,2.9-7.1,8.3-9.1,11.9c-2,3.6-3.9,6.5-4.3,6.5c-0.5-0.1-2.1-0.2-3.8-0.2h-3v-14.9
		c0-14.4-0.4-18.1-1.9-18.1c-2.2,0-3.1,6.1-3.1,19.9v14.8l-2.6,1.2c-2.2,1-2.8,0.8-4.5-1.1c-3.6-4.3-9.8-18.3-12.1-27.3
		c-4.4-17.6-2.7-44.3,3.4-52.1C149.3,211.6,150.9,210.5,151.9,210.5z"/>
	<path id="path34" class="st4" d="M703.9,215.4c9,18,3.5,59.2-10.1,74.7c-2.6,2.9-3.2,3.2-5.4,2.2c-2.4-1.1-2.4-1.2-2.4-16.8
		c0-11.5-0.4-16.1-1.3-17.5c-2.4-3.2-3.2,0.1-3.7,15.2c-0.3,7.8-0.9,14.6-1.5,15.1c-0.5,0.6-2.4,1.3-4.2,1.7
		c-2.9,0.6-3.2,0.4-3.8-2.7c-1.3-5.7-4.3-10.4-9.9-15.4c-4.7-4.2-5.6-5.7-7-10.9c-4.2-16.3-2.8-25.4,5.2-33.4
		c5.1-5.1,15.3-10.5,27.2-14.5C698.3,209.3,701,209.6,703.9,215.4z"/>
	<path id="path36" class="st4" d="M769.4,265.4c1.7,1.5,1.8,2.7,1.2,16.1c-0.4,8-1.3,17.3-2.1,20.8c-2.8,11.9-9.8,18.4-23,21.3
		c-7.8,1.7-35.5,1.8-41.2,0.1c-3.9-1.2-4.3-1.6-4.3-4.6c0-7.1,5.9-12.2,18.9-16.6c3.8-1.2,8.2-3.3,9.8-4.6l2.8-2.3l-3.7-0.1
		c-2.1,0-8.8,2-15.4,4.5c-6.4,2.5-12,4.2-12.5,3.9s-1.6-1.9-2.4-3.5c-2-3.7-1.3-5.1,6.2-11.9c16.8-15.4,32.3-23.1,50.3-25
		C762.8,262.6,766.8,263.1,769.4,265.4z"/>
	<path id="path38" class="st4" d="M93,264.9c11.9,0.7,19.4,2.6,29.5,7.5c9.4,4.5,18,10.8,25.3,18.5c5.5,5.8,6.6,9.4,3.8,13.2
		c-1.2,1.6-1.8,1.7-4.3,0.7c-1.5-0.6-6.6-2.8-11.3-4.7c-8.1-3.4-13-4.3-16.4-3c-0.9,0.3-1.6,1-1.6,1.4s5.2,2.4,11.5,4.4
		c15.1,4.9,19.8,8.9,20.7,17.6l0.3,3.5l-8.5,1.2c-27.1,3.7-49.6-1-56.2-11.8c-3.4-5.5-4.5-11.3-5.4-30.3
		c-0.6-13.5-0.5-14.8,1.2-16.7C83.4,264.4,84.2,264.3,93,264.9z"/>
	<path id="path40" class="st5" d="M649.2,272.8c10.9,0.9,16.7,7.3,17.1,18.7c0.2,4.8,0.5,5.9,1.7,5.5c12.6-3.9,21-1.5,25.7,7.5
		c4,7.6,2.6,14.7-4.5,22.2c-1.4,1.5-2.4,2.9-2.1,3.1c0.2,0.2,2.1,1.3,4.1,2.6c5.3,3.1,9.6,8.5,10.4,12.8c0.8,4.3-0.8,11.3-3.4,14.9
		c-2.6,3.7-9.1,6.4-15.1,6.4h-5.3l0.8,3.7c0.5,2.1,0.9,6.3,0.9,9.4c0,6.8-3.2,11.6-9.8,14.8c-7.7,3.7-14.4,2.4-21.6-4.3
		c-2.3-2.1-3.5-2.7-3.8-1.8c-1,2.8-7,9.8-10.2,11.9c-4.2,2.8-10,3-15.7,0.4c-5.9-2.7-9.3-7.6-10.6-15.5c-0.6-3.6-1.4-6.6-1.8-6.6
		s-3,0.4-5.7,0.9c-10.3,2-18-2.8-20.9-12.7c-1.5-4.9-1.5-5.8,0-9.6c0.9-2.3,3.2-5.7,5-7.5l3.5-3.4l-5.8-3.8
		c-9.2-6.1-12.2-14-8.5-22.7c0.8-2,2.7-4.9,4.2-6.5c2.8-2.9,10.5-5.7,15.8-5.7h3.3l-1.6-4.6c-1.8-5.3-1.3-12.2,1.1-15.9
		c3.9-5.9,14.1-9.8,21.1-8.1c1.5,0.4,4.8,2.7,7.5,5.2l4.7,4.4l1.3-3.1c1.7-4.1,5.6-8.7,9.5-11.1
		C642.8,272.8,644.7,272.5,649.2,272.8z M634,318.5c-14.6,2.8-21.3,18.4-12.9,29.9c6.2,8.7,17.7,11,26.6,5.5
		c12.3-7.6,12.4-25.3,0.2-32.5C642.9,318.3,639,317.5,634,318.5z"/>
	<path id="path42" class="st2" d="M650.4,330.9c6.4,13.6-9.9,27.3-21.7,18.3c-4.8-3.7-7.3-10.3-5.7-15.1c1.5-4.7,4.7-8.5,8.4-10.2
		C638.2,320.8,647.2,324.1,650.4,330.9z"/>
	<path id="path44" class="st5" d="M208.9,274.9c2.7,1.5,9.1,7.9,9.1,9.4c0,0.4,0.7,1.5,1.5,2.6c1.4,1.8,1.5,1.8,4.6-0.8
		c8.9-7.5,17.7-8.5,24.7-2.9c5.6,4.4,7.4,8.7,6.8,15.3c-0.3,3-0.8,6.4-1.2,7.6c-0.5,1.9,0,2.2,4.7,2.7c12.7,1.5,19.4,8.7,18.7,20
		c-0.5,6.9-2.5,9.9-9.6,14.7l-5.2,3.4l2.9,3.1c6.7,7,7.8,13.9,3.3,22c-4.3,7.9-10.7,10.3-21.9,8.2l-4.3-0.7v3.4
		c0,4.8-2.6,11.6-5.7,14.8c-5.6,5.8-16,7.4-21.6,3.2c-1.4-1.1-4.2-4.2-6.3-7.1l-3.7-5.2l-4.1,3.3c-5.7,4.7-7.9,5.6-12.6,5.6
		c-5.5,0-10.1-2.3-14.4-7c-5.1-5.7-5.6-11-2-20.5c0.4-0.8-1.1-1.4-4.8-1.9c-6.3-0.9-12.6-3.5-15.2-6.4c-1-1.2-2.5-4.4-3.2-7.1
		c-2.2-8.8,0.7-15.4,9.5-21.1l5-3.1l-3.1-3.2c-8.7-9.1-8.9-17.6-0.5-26.5c5-5.2,12.8-6.2,22-2.7c1.4,0.6,1.7,0.1,1.7-3.2
		c0-9.6,4.6-17.7,11.5-20.1C199.9,273.2,205.7,273.3,208.9,274.9z M205,320.6c-3.1,1.3-7.8,5.6-9.5,8.9c-8.1,16,8.9,34.5,25,27.1
		c6.8-3,12.5-11.3,12.5-18.1c0-6.5-5.8-15.2-11.7-17.6C217.6,319.3,208.7,319.2,205,320.6z"/>
	<path id="path46" class="st2" d="M225.8,345.5c-3.7,5.4-7.2,7.4-12.8,7.4s-9.1-2-12.7-7.4c-5-7.3-0.6-18.2,8.3-21
		C221,320.7,232.8,335.1,225.8,345.5z"/>
	<path id="path48" class="st6" d="M781.6,325.5c13.4,1,27.1,3.7,25.7,5c-3.3,3-26.7,7.9-50.5,10.6c-8.7,1-15.8,2.1-15.8,2.4
		c0,0.5,40.3,35.5,45.7,39.7c4.1,3.2-1.6,2.4-28.7-3.9c-16.2-3.7-29.8-6.7-30.2-6.6c-0.5,0.2,8.2,13.1,19.2,28.7
		c12.9,18.1,19.8,28.7,19.2,29.3c-2.1,2.1-16.2-7-37.6-24.1c-7.7-6.1-14.2-10.9-14.4-10.7c-0.2,0.3,2.9,15.3,6.9,33.5
		c3.9,18.2,6.9,33.4,6.6,33.7c-1.5,1.5-4.4-2-21.6-26.5C689,412.2,686,408.3,686,410.1c0,0.4-0.9,9.8-2.1,20.8
		c-1.7,16.1-2.5,20.6-4.1,22.8c-5,7.1-7.4,2.7-14.2-25.2c-3.1-12.9-5.6-24.3-5.6-25.3c0-1.2,0.8-1.7,2.8-1.7c1.5,0,5.5-1.3,8.8-2.9
		c9.1-4.3,13.4-11.1,13.4-21.1v-4.6l5.1-1.9c10.4-3.7,15.9-11.2,15.9-21.5c0-7.1-2.3-12.5-7.9-18.4l-3.6-3.9l3,0.7
		c1.7,0.4,11.1,0.9,21,1.3c14.7,0.4,19.8,0.2,27.5-1.2c5.2-1,11.5-2.1,14-2.5C766.7,324.4,767.6,324.4,781.6,325.5z"/>
	<path id="path50" class="st6" d="M105.5,329c5.8,1.4,10.2,1.6,26,1c10.5-0.3,20.1-0.9,21.5-1.2c2.3-0.6,2.1-0.2-1.7,4.1
		c-2.2,2.5-4.8,6.2-5.7,8c-2.3,4.8-2.1,14,0.4,19.1c2.7,5.6,5.7,8.2,12.6,11l5.9,2.4l1.5,7.8c2.5,12.8,6.4,17.1,19.3,20.8
		c3.1,0.9,5.7,1.8,5.7,2.1c0,0.2-3.7,15.1-8.1,32.9c-6.8,27.2-8.5,32.5-9.9,32.5c-2.2,0-2.1,0.6-6-32.5c-1.8-14.3-3.3-26.1-3.4-26.3
		c-0.2-0.1-9,12.1-19.6,27.3c-17,24.1-22,30.2-22,26.6c0-1,11.2-52.2,13.4-61.4c1.1-4.5,1.1-5.7,0.2-5.4c-0.7,0.3-12,8.4-25,18.1
		c-13.1,9.7-24.1,17.6-24.6,17.6c-4.6,0,5.4-16.5,28-46.1c5.5-7.2,9.8-13.4,9.6-13.6c-0.5-0.5-4.3,0.3-38.5,8.3
		c-12.8,3-23.5,5.3-23.8,5.1c-0.2-0.3,10.4-9.8,23.7-21.2s24-20.8,23.8-21c-0.2-0.3-15-2.7-32.8-5.5c-17.9-2.8-33.1-5.3-33.7-5.5
		c-1.7-0.6-1.7-3.1,0-3.8c0.7-0.3,4.7-1,8.8-1.6c4.1-0.6,8.5-1.3,9.9-1.5C66.9,326.1,98.8,327.5,105.5,329z"/>
	<path id="path52" class="st0" d="M602.1,387.5c0.4,0,0.9,1.3,1.2,2.9c0.9,4.1,6.7,11.3,11.4,13.9c9.1,5,18.6,3.8,26.3-3.4
		c2.6-2.4,5.4-4.4,6.3-4.4c0.8,0,2.8,1.5,4.5,3.4c2.3,2.7,3.5,5.6,5.2,13.3c2.7,12.3,6.9,30.3,7.5,32.3c0.4,1.2-0.5,1.5-4.1,1.5
		c-5.4,0-6.4,1.1-9.4,10.1c-1.2,3.5-2.5,6.4-2.8,6.4c-0.4,0-3.7-0.6-7.5-1.4c-14.7-3.1-17.3,0.2-19.6,24.9c-2,21-2.1,21.4-4.3,22.6
		c-1.7,0.9-2.5,0.5-5.6-3.1c-3.5-4.2-3.6-4.2-8.8-3.6c-5,0.6-6.4,0.1-27.6-8.8c-12.3-5.2-34.9-14.7-50.3-21.1
		c-15.4-6.5-29.3-12.4-30.9-13.2l-3-1.6l9-3.2c37.4-13.4,66.6-31.8,93.4-58.9C597.6,391.4,601.7,387.5,602.1,387.5z"/>
	<path id="path54" class="st3" d="M284.7,438.2c6.9,2.8,11.2,3.3,15.1,2c2-0.8,2.2-0.5,2.2,3c0,5.3,1.2,7.1,15.6,25.6
		c7,8.9,12.9,16.4,13.1,16.6c0.8,1.1,9.5-4.2,17.8-10.8c5-4,11.7-8.5,15-10c6.1-3,13.5-4.7,13.5-3.1c0,2.6-19.3,52.5-21.3,54.8
		c-3,3.7-29.5,14.2-35.8,14.2c-6.4,0-15.6-11.8-33.5-43.4c-7.8-13.8-11.2-17.6-15.7-17.6c-1,0-2.8-0.5-3.9-1.1
		c-1.9-1-1.8-1.2,1.7-3.4l3.8-2.2l-5.2-2.8c-2.8-1.6-5.1-3.1-5.1-3.5c0-0.3,2.3-1.4,5-2.4c2.8-1,5.2-2.2,5.5-2.6
		c0.3-0.4-1.3-2-3.6-3.4c-2.2-1.5-3.7-3.1-3.4-3.5c0.3-0.5,2.8-1.2,5.6-1.6l5.1-0.7l-0.7-3.4C274.7,434.6,275.7,434.6,284.7,438.2z"
		/>
	<path id="path56" class="st0" d="M307.6,437.5c1,0,50.9,21.1,51.6,21.8c0.6,0.6-22.8,18.7-25.6,19.8c-1.2,0.5-4.4-3.3-18.8-22.4
		c-7-9.2-7.8-10.7-7.8-14.7C307,439.5,307.3,437.5,307.6,437.5z"/>
	<path id="path58" class="st7" d="M659,451.5c0.4,0,2.6,1.5,5,3.2c10,7.6,10.5,7.9,13.1,7.4c1.4-0.3,4.9-2.1,7.8-4
		c2.9-2,5.7-3.6,6.2-3.6s0.9,1.2,0.9,2.7c0,4.5,2,10.3,4.2,12.5c1.7,1.7,2.9,1.9,6.7,1.5c2.5-0.3,5.6-0.9,6.8-1.2
		c2.2-0.7,2.2-0.6-0.8,7c-1.6,4.3-2.7,8.6-2.4,9.5c0.6,1.7,3.5,3.3,8.5,4.4c1.4,0.3,3.2,1,4,1.5c1.2,0.9,1.2,1.2-0.2,2.8
		c-5.6,6.4-6.4,14.5-1.8,19.7c3.6,4,3.2,4.5-5.7,6.5c-6.3,1.5-8.7,4-8.8,9.2c-0.1,2.5-0.8,4.7-2.1,6l-2.1,2l-10.4-2.6
		c-5.7-1.5-10.6-2.8-10.8-3.1c-0.2-0.2,2.3-3.2,5.6-6.8c12.1-12.9,12.3-24.9,0.6-36.2c-5.9-5.7-9.6-7.4-16.5-7.4
		c-6.8,0-12.4,2.6-18.7,8.5l-5,4.7l-0.7-5.3c-0.8-6-2.9-8.5-7.8-9.4c-3.2-0.6-3.6-1.1-4.1-4.9c-0.6-4.1,0.5-8.9,2.4-10
		c0.6-0.4,3.7,0,7,0.9c10.6,2.7,13.3,2,14.6-4c0.4-1.7,1.4-4.9,2.2-7.3C657.6,453.4,658.6,451.5,659,451.5z"/>
	<path id="path60" class="st3" d="M480.2,461.5c4,0,14.5,4.3,107.2,43.3c4.4,1.9,8.5,4.1,9,5c0.8,1.3,0.3,3.1-2.3,7.8
		c-1.8,3.3-4.2,8.8-5.2,12.1c-2.5,8.3-4,9.8-10.3,9.8c-11,0-38-6.2-55.3-12.6c-12.4-4.6-25.5-10.6-26.9-12.5
		c-1-1.2-20.4-51.2-20.4-52.5C476,461.7,477.9,461.5,480.2,461.5z"/>
	<path id="path62" class="st3" d="M389,465.5l37.3,0.2l37.2,0.3v14.7c0,12.6-0.3,15-1.7,16.4c-1.6,1.6-5,1.7-35.8,1.7
		c-25.6,0-34.4-0.4-35.5-1.3c-1.2-1-1.5-4.2-1.5-16.6V465.5z"/>
	<path id="path64" class="st8" d="M475.8,477.5c0.6,0,8.2,18.7,8.2,20.3c0,0.4-2,0.7-4.5,0.7H475V488
		C475,482.2,475.3,477.5,475.8,477.5z"/>
	<path id="path66" class="st8" d="M377.2,478.5c0.4,0,0.8,4.5,0.8,9.9v9.9l-4.2,0.4c-2.4,0.3-4.5,0.4-4.6,0.2
		c-0.2-0.1,1.3-4.8,3.4-10.3C374.6,483,376.7,478.5,377.2,478.5z"/>
	<path id="path68" class="st7" d="M624.8,483.7l6.1,1.5l6.1,1.5v4.5c0,9.4,4.1,14,13.2,15.2l5.3,0.6l0.5,7c0.4,6.2,0.8,7.1,3,8.2
		c1.4,0.7,4.2,1.3,6.2,1.3c4.6,0,6.8,2.2,6.8,6.6c0,5.8,4,8.9,13.4,10.4c6.1,1,7.6,1.6,7.4,2.9c-0.3,1.4-2.1,1.6-12.3,1.6
		c-10,0-13.2-0.4-19.4-2.4c-9.7-3.2-21.1-10.8-26.7-18c-6.8-8.6-8.6-14.4-9.2-28.8L624.8,483.7z"/>
	<path id="path70" class="st9" d="M674.9,489.5c8.4,4.2,13.4,14.5,11.1,22.8c-1.1,4.2-5.4,10.2-7.2,10.2c-0.6,0-4.8-1.2-9.4-2.6
		l-8.3-2.6l-0.7-4.7c-1-7.1-2.8-9.9-7.4-11.2c-2.2-0.7-4-1.8-4-2.5c0-2.1,6.2-8.6,9.5-10C663,486.9,670.5,487.2,674.9,489.5z"/>
	<path id="path72" class="st8" d="M486,505.1c0.7,0.7,4.3,9.2,8,19l6.9,17.9l-36.9,0.3c-20.3,0.1-53.7,0.1-74.2,0l-37.4-0.3
		l5.7-15.3c7.4-19.3,7.9-20.4,10.9-21.9C372.4,503,484.3,503.4,486,505.1z"/>
	<path id="path74" class="st3" d="M621.6,516.3c-1.2,2,0.7,6.4,4.9,11.7c4,4.9,6.5,8.7,6.5,9.9c0,0.3-1.3,0.6-2.9,0.6
		c-3.8,0-4,0.5-3.1,6.2c0.8,5.5,0.3,5.7-4.7,2.7c-1.9-1.2-3.7-1.9-4-1.6c-0.3,0.3-0.8,2.7-1,5.2c-0.3,2.5-0.9,4.8-1.4,5
		c-0.4,0.3-2.2-1.5-4-4s-3.6-4.5-4-4.5c-0.5,0-1.1,1.6-1.5,3.5c-0.7,4.1-1.9,4.1-4.8,0.1c-3.4-4.5-2.8-10.5,2.2-22.1
		c4.6-10.5,6.4-13.2,9.7-14.6C617.6,512.8,623,514,621.6,516.3z"/>
	<path id="path76" class="st8" d="M500.5,548.7c2.8,1.3,5.8,6.2,6.9,11.4l0.7,3l-12.8,5.4c-7,2.9-17.5,7.3-23.3,9.7
		c-27.6,11.7-42.4,17.3-45.6,17.3c-2.2,0-16.5-5.6-41.2-16.2c-20.7-8.8-38.1-16.5-38.6-16.9c-1.3-1.1,2-12.1,4.1-13.7
		C353.1,547,496.6,546.9,500.5,548.7z"/>
	<path id="path78" class="st8" d="M344.3,567.5c2.8,0,70.7,30.3,70.7,31.5c0,0.2-2,2.5-4.4,5c-3.8,3.9-5,4.5-8.4,4.5
		c-4.7,0-6.3-1.3-9.7-7.9c-4.3-8.1-3.8-8-9.4-2.8c-4.1,3.8-5.7,4.7-8.6,4.7c-6.6,0-8.1-1.8-10.5-12.8c-0.7-2.8-1.5-5.2-1.9-5.2
		c-0.4,0-2.4,1.8-4.6,4c-4.9,5-8.1,6.2-12.3,4.4c-4.7-1.9-5.3-4.6-3.4-15.8C342.7,571.8,343.8,567.5,344.3,567.5z"/>
	<path id="path80" class="st8" d="M509.1,568.6c1.3-0.1,1.9,2.5,3.6,13.9l1.9,14h-3.2c-2.6,0-4-0.9-7.4-5c-2.3-2.8-4.6-5-5.1-5
		c-0.4,0-2.3,3-4.1,6.7c-2.7,5.6-3.9,7-7,8.1c-4.8,1.8-8,0.3-12.3-5.7c-1.7-2.5-3.5-4.6-4.1-4.8c-0.6-0.2-2.1,2.2-3.3,5.2
		c-2.7,6.5-7.9,12.5-10.9,12.5c-2.6,0-8.4-4.9-11.3-9.6c-1.2-1.9-2-3.6-1.8-3.8c0.2-0.1,14.6-6.1,31.9-13.3
		C493.3,574.6,508.2,568.6,509.1,568.6z"/>
	<path id="path82" class="st10" d="M358.2,595.6c0.3-0.1,2.8,2.9,5.4,6.6l4.7,6.6l-3.2,2.9c-7.1,6.3-17.1,1.4-17.1-8.5
		c0-3,0.4-3.5,4.8-5.4C355.4,596.6,357.8,595.7,358.2,595.6z"/>
	<path id="path84" class="st10" d="M503.3,598.1c5.3,2.7,7.7,5.5,7.7,8.9c0,4.3-1.8,6.4-6.1,7.1c-3.1,0.5-3.9,0.2-6.2-2.6
		c-3-3.6-3.4-6.5-1.3-11.5C499.1,596,499.1,596,503.3,598.1z"/>
	<path id="path86" class="st10" d="M438.3,597.5c1.4,0,0.7,6.6-0.9,8.9c-1.6,2.3-7,5.1-9.8,5.1c-2,0-6.7-4.2-8.8-7.7l-1.7-3l7.2,0.1
		c5,0,8.1-0.4,10.2-1.6C436.2,598.3,437.8,597.6,438.3,597.5z"/>
	<path id="path88" class="st10" d="M472.1,602.7l8.2,3c4.5,1.6,8.4,3.1,8.6,3.3c0.2,0.2-1,2.3-2.5,4.6c-4.6,6.8-11.3,7-17.2,0.6
		l-2.4-2.5l2.7-4.5L472.1,602.7z"/>
	<path id="path90" class="st10" d="M383.6,605.2c-0.3,0.4,2.2,3.5,5.6,7c7,7.1,7.1,9,0.6,10.7c-9.8,2.5-18.7-11.2-10.5-16.2
		C382.5,604.7,385,603.8,383.6,605.2z"/>
	<path id="path92" class="st10" d="M347.9,614.5l5,6.4l-6,3.4c-3.3,1.9-6.2,3.2-6.5,2.9c-1.2-1.2-1.6-16.5-0.4-18.6
		C341.4,606,341.2,605.9,347.9,614.5z"/>
	<path id="path94" class="st10" d="M443.6,606.5c0.2,0,4,1.8,8.4,4c5,2.5,8,4.6,8,5.6c0,0.9-1.5,3.1-3.4,5c-2.7,2.7-4.2,3.4-7.4,3.4
		c-4.4,0-8.7-2.8-11.1-7.3c-1.3-2.4-1.1-2.9,1.8-6.6C441.7,608.3,443.4,606.5,443.6,606.5z"/>
	<path id="path96" class="st10" d="M414,608.8c2.9,1.2,16,9,16,9.5c0,0.4-1.9,2-4.2,3.5c-7.3,4.7-14.5,3-18.3-4.3
		c-1.4-2.8-1.4-2.9,2.3-5.9C411.8,609.9,413.7,608.7,414,608.8z"/>
	<path id="path98" class="st10" d="M370,614.6c0.7-0.1,9,12.6,9,13.8c0,1.8-5.9,7.1-8,7.1c-5.8,0-11-5.7-11-12.2
		c0-2.9,0.6-3.6,4.8-5.9C367.4,615.9,369.7,614.7,370,614.6z"/>
	<path id="path100" class="st10" d="M494.4,616.1c1.6,4.3-1.7,9.9-7.6,13c-3.6,1.8-5.6,1.3-9.3-2.6l-2.9-3h4.5
		c5.1,0,10.4-2.8,12.1-6.5C492.5,614.1,493.5,613.8,494.4,616.1z"/>
	<path id="path102" class="st10" d="M402.5,620.8l2.2,2c3.4,3,3.7,5.3,1.3,10.3c-2.5,5.1-6.7,7.8-10.5,6.8c-2.2-0.5-9.5-7.7-9.5-9.3
		c0-0.3,3.7-2.7,8.3-5.2L402.5,620.8z"/>
	<path id="path104" class="st10" d="M465.8,623.1c0.4,2.6-2.7,9.1-5.5,11.6c-3,2.8-7.5,3.3-10,1.1c-1.2-1-2.3-2.4-2.5-3.1
		c-0.2-0.8,3.5-3.6,8.7-6.6C465.1,621.1,465.5,621,465.8,623.1z"/>
	<path id="path106" class="st10" d="M435.2,623.5c1.5,0,2,4.8,0.8,7.2c-0.7,1.2-2.8,4-4.8,6c-4.8,5-7.5,4.9-12.9-0.4l-4.3-4.2
		l10.3-4.3C429.9,625.5,434.8,623.6,435.2,623.5z"/>
	<path id="path108" class="st10" d="M499,625.5c0.3,0,2.3,1,4.5,2.3c3.4,1.9,4,2.8,4.3,6c0.3,3.1-0.2,4.3-2.8,6.8
		c-2.5,2.5-3.6,3-5.8,2.4c-3.5-0.8-5.7-2.9-7.3-6.6c-1.1-2.9-1-3.2,2.7-7C496.7,627.3,498.7,625.5,499,625.5z"/>
	<path id="path110" class="st10" d="M353.7,627.6c1.2-0.1,6.3,8.7,6.3,10.9c0,1.2-10.1,5.8-13.7,6.2c-2.4,0.3-2.9-0.3-5-5.6
		c-1.2-3.3-2-6.2-1.7-6.5c0.3-0.3,3.3-1.6,6.7-2.8S353.1,627.6,353.7,627.6z"/>
	<path id="path112" class="st10" d="M470.6,629.5c1.6,0,14.4,7.7,14.4,8.7c0,0.7-1.7,3-3.8,5.3c-5.1,5.3-9.6,5.5-14.8,0.7l-3.6-3.3
		l3.6-5.7C468.4,632.1,470.3,629.5,470.6,629.5z"/>
	<path id="path114" class="st10" d="M441.4,635.2c7.9,4.8,14.6,9.5,14.6,10.4c0,0.6-1.8,2.9-4,5.1c-3.5,3.5-4.4,4-7.3,3.4
		c-3.8-0.7-10.7-7.5-10.7-10.5c0-1.1,1.4-3.6,3.1-5.6C438.9,636,440.7,634.8,441.4,635.2z"/>
	<path id="path116" class="st10" d="M382.2,635.8c0.4,0.1,3,2.9,5.7,6.2l5,6l-4.1,1.8c-5.7,2.4-11.3,3.1-14.5,1.8
		c-3.1-1.3-7.7-7.3-7.1-9.3c0.3-0.7,3.6-2.5,7.4-4C378.4,636.8,381.8,635.7,382.2,635.8z"/>
	<path id="path118" class="st10" d="M411.3,638.5c1.2,0,13.7,10,13.7,10.9c0,0.4-2.3,2-5.1,3.5c-6.3,3.5-10.2,3-14.9-1.9l-3.4-3.5
		l4.4-4.5C408.4,640.5,410.8,638.5,411.3,638.5z"/>
	<path id="path120" class="st10" d="M497.2,647.1l7.1,3.6l-4.9,4.9c-5.4,5.5-7.5,6-12.5,2.6c-4.4-2.9-4.9-6.4-1.4-10.1
		c1.4-1.5,2.5-3.1,2.5-3.7C488,642.8,489.8,643.4,497.2,647.1z"/>
	<path id="path122" class="st10" d="M361.2,644.6c1.2-0.2,3.8,4.3,3.8,6.5c0,1.3-1.2,3.2-2.6,4.3c-3.7,2.9-8.5,2.7-11.4-0.4
		c-2.7-2.9-2.8-2.7,4.2-7.1C358.1,646.1,360.8,644.6,361.2,644.6z"/>
	<path id="path124" class="st10" d="M462,648.5c0.2,0,3.5,1.2,7.2,2.7c7.6,2.9,8.3,4.4,5.3,10.8c-3,6.1-9.5,7.2-15,2.4
		c-5.1-4.5-5.4-7-1.3-11.8C460,650.3,461.7,648.5,462,648.5z"/>
	<path id="path126" class="st11" d="M395.7,651.5c0.3,0,5.4,2.6,11.4,5.7c7.5,4,10.9,6.3,10.9,7.6c0,2.1-5.5,5.7-8.8,5.7
		c-3.6,0-9-5.9-11.6-12.8C396.2,654.3,395.4,651.5,395.7,651.5z"/>
	<path id="path128" class="st10" d="M429.6,652.5c0.9,0,5.4,2.1,10,4.6c9.1,4.9,9.3,5.4,4.2,10c-5.5,5.1-10,4.6-15.3-1.8
		c-3.4-4.1-4.1-7.3-2.1-10.3C427.3,653.6,428.8,652.5,429.6,652.5z"/>
	<path id="path130" class="st10" d="M510.2,656.2c2.1,1.9,2.2,4.2,0.4,10.2l-1.3,4.5l-2.6-2.7c-3.1-3-3.4-6.4-1.2-10.7
		C507.3,654,507.7,653.9,510.2,656.2z"/>
	<path id="path132" class="st11" d="M381.3,657.5l9.2,0.1l-4.2,3.9c-3.7,3.5-4.5,3.9-6.8,3c-3.6-1.4-8.5-5.2-7.9-6.2
		C371.9,657.9,376.3,657.5,381.3,657.5z"/>
	<path id="path134" class="st10" d="M365.5,659.8l2.3,2.1c1.3,1.1,3.8,3.8,5.4,5.9l3.1,3.8l-2.9,3c-2.1,2.2-3.7,2.9-6.7,2.9
		c-5.1,0-7.6-1.5-9.3-5.5c-2.5-6.2-2-8,3.4-10.2L365.5,659.8z"/>
	<path id="path136" class="st11" d="M392.5,662.7l5.5,6c8.8,9.7,9,10.2,5.5,13.8c-4.2,4.4-9.2,4.2-13.9-0.5
		c-6.4-6.4-6.3-11.4,0.3-17.1L392.5,662.7z"/>
	<path id="path138" class="st11" d="M480.8,662.5c0.4,0,4.3,1.2,8.7,2.7l7.9,2.6l-3.9,3.4c-4.2,3.6-8.6,4.3-15.6,2.2
		c-4.2-1.3-4.2-0.4,0.6-8.4C479.4,663.6,480.4,662.5,480.8,662.5z"/>
	<path id="path140" class="st11" d="M459.5,669.7c9.3,4.7,10.3,6.3,6.5,11.1c-2.7,3.4-6.9,4.2-11.6,2.2c-8.2-3.4-10.5-8.2-5.9-12.5
		c1.4-1.3,2.5-2.9,2.5-3.7S453.9,667,459.5,669.7z"/>
	<path id="path142" class="st11" d="M422.2,668.5c0.4,0,4.4,2.6,8.8,5.7l8,5.6l-4.7,2.9c-6.6,3.8-11.6,3.8-15.3-0.3
		c-4.5-4.8-4.7-6.6-0.9-10.5C419.9,670,421.7,668.5,422.2,668.5z"/>
	<path id="path144" class="st11" d="M350.1,671l3.5,4c4.9,5.4,8.8,10.5,8.3,10.8c-0.2,0.1-1.6,1.2-3,2.5l-2.7,2.3l-3.1-6.2
		c-1.8-3.6-3.1-7.7-3.1-9.8L350.1,671z"/>
	<path id="path146" class="st11" d="M502.1,671.6c1.6-0.2,1.8,6.1,0.3,8.4c-1.7,2.6-6.9,6.8-9.8,7.8c-1.7,0.7-9.6-2.8-9.6-4.2
		c0-0.4,4.2-3.2,9.3-6.3C497.3,674.2,501.8,671.6,502.1,671.6z"/>
	<path id="path148" class="st11" d="M378.5,677.6c0.6,0,3.2,3,6,6.6l4.9,6.6l-3.4,2.9c-6.8,5.6-11.8,4.6-15.7-3.1
		c-2.6-5.1-2.2-6.3,3.3-10.2C375.8,678.9,378,677.6,378.5,677.6z"/>
	<path id="path150" class="st11" d="M473.7,680.4c1,8-2.9,15.3-8.8,16.6c-2.6,0.6-3.6,0.2-6.5-2.6c-4.2-4.1-4.2-4.9-0.4-4.9
		c1.7,0,4.4-0.7,5.9-1.4c3.1-1.6,9-7.9,9.3-9.9C473.2,677.5,473.5,678.5,473.7,680.4z"/>
	<path id="path152" class="st10" d="M413.7,684.3c2.1,2.5,2.6,8,1.2,11.3c-1.3,3.3-6.1,6.9-9.2,6.9c-2,0-10.9-7.9-10.4-9.3
		c0.1-0.5,4.1-3.1,8.7-5.7C411.5,683.4,412.7,683,413.7,684.3z"/>
	<path id="path154" class="st11" d="M443.7,683.6c0.7-0.1,1.6,1.1,1.9,2.6c1.4,5.5-6.3,15.3-12.1,15.3c-2,0-10.4-7.5-9.4-8.4
		c0.2-0.2,4.5-2.4,9.4-4.9C438.5,685.7,443.1,683.6,443.7,683.6z"/>
	<path id="path156" class="st11" d="M479.6,688.5c0.5,0,14.7,7,15.3,7.6c0.8,0.7-6.4,8.3-8.8,9.4c-2.3,0.9-3.8,0.7-8.4-1
		c-3.1-1.2-5.7-2.6-5.7-3.2c0-0.6,1.6-3.7,3.6-6.9C477.5,691.1,479.3,688.5,479.6,688.5z"/>
	<path id="path158" class="st11" d="M362.6,691.7c0.7,0.2,3.5,3.2,6.3,6.8l5,6.5l-3.4,3.5c-4,4-3.7,4.2-9.4-6.5
		c-3.4-6.3-3.4-6.5-1.6-8.5C360.5,692.4,361.9,691.6,362.6,691.7z"/>
	<path id="path160" class="st11" d="M450.2,695.6c0.7-0.1,12.4,6.5,14.5,8.1c0.8,0.7,0.9,1.7,0.1,3.9c-2.2,6.2-9.1,7.7-16.4,3.4
		c-6.4-3.8-6.7-5.8-1.4-12.3C448.4,697,449.8,695.6,450.2,695.6z"/>
	<path id="path162" class="st11" d="M390.4,697.6l3,2.6c6.5,5.4,10.6,9.3,10.6,10.1c0,0.5-1.4,2.1-3,3.7c-3.5,3.3-8.9,4-13.4,1.6
		c-2.3-1.3-6.6-8.2-6.6-10.8c0-0.6,2.1-2.4,4.7-4.1L390.4,697.6z"/>
	<path id="path164" class="st12" d="M419.1,698.5l6.2,4.2c3.4,2.3,7.3,4.9,8.5,5.9l2.4,1.8l-4.9,3.1c-3.6,2.3-5.5,3-7.7,2.5
		c-3.2-0.6-12.6-6.2-12.6-7.5c0-0.4,1.8-2.8,4.1-5.3L419.1,698.5z"/>
	<path id="path166" class="st11" d="M472.4,708.5c1.9,0,4.6,3.4,4.6,5.7c0,2.9-2.4,7.9-5.3,11c-3,3.4-7.6,3-11.3-0.8l-2.9-3.1l7-6.4
		C468.4,711.4,471.9,708.5,472.4,708.5z"/>
	<path id="path168" class="st11" d="M375.1,710.5c0.8,0,15.2,12.9,15.7,14.1c0.3,0.8-5,3.9-6.7,3.9c-1.7,0-8.1-6.1-9.7-9.1
		c-1.5-2.9-1.9-7.1-0.7-8.2C374,710.8,374.7,710.5,375.1,710.5z"/>
	<path id="path170" class="st10" d="M446.7,717.2c3.2,2.8,3.2,2.9,1.8,6.6c-1.7,5-4.9,8.3-8.6,9.1c-5.2,1-9.3-1.9-11.3-8
		c-0.5-1.8,0.4-3,5.6-7.2C441,712.3,441.1,712.3,446.7,717.2z"/>
	<path id="path172" class="st11" d="M408.8,713.5c0.2,0,2.7,1.9,5.7,4.2c4,3.2,5.4,5,5.4,6.9c0.2,5.5-8.8,10.6-13.8,7.9
		c-2.4-1.3-6.1-6.7-6.1-9c0-0.8,1.9-3.4,4.2-5.7C406.5,715.4,408.6,713.5,408.8,713.5z"/>
	<path id="path174" class="st11" d="M453.8,726.5c0.1,0,4,2.1,8.7,4.6l8.5,4.6l-3,3.8c-5.8,7.3-11.3,7.4-18,0.5l-3.2-3.3l3.4-5.1
		C452,728.8,453.6,726.5,453.8,726.5z"/>
	<path id="path176" class="st12" d="M395.1,729.5c0.5,0,9.2,7.3,13.3,11.1c0.5,0.4-0.6,2.3-2.6,4.3c-4.6,4.6-10,5-14.6,1.1
		c-2.5-2.1-6.9-10.3-6-11c0.2-0.1,2.3-1.4,4.8-2.8C392.5,730.7,394.8,729.5,395.1,729.5z"/>
	<path id="path178" class="st12" d="M423.5,730.5c1,0,15.9,9.8,16.2,10.6c0.2,0.5-1.7,2.2-4.2,3.8c-5.4,3.4-8,3.1-15.4-1.5l-5.1-3.1
		l4.1-4.9C421.3,732.7,423.3,730.5,423.5,730.5z"/>
	<path id="path180" class="st11" d="M446.5,744.9c0.6,0.1,1.1,1.8,1.3,3.7c0.3,4.4-3.3,10.7-7.6,13.2c-3.9,2.3-7.3,1.3-11.7-3.3
		l-2.7-2.8l9.9-5.6C441.1,747.1,446,744.7,446.5,744.9z"/>
	<path id="path182" class="st12" d="M414.7,745.5c1.8,0,4.3,4.1,4.3,7.2c0,3.7-7.3,11.8-10.6,11.8c-2.2,0-10.4-6.3-10.4-8
		c0-0.4,3.5-3,7.8-5.9C410,747.8,414,745.5,414.7,745.5z"/>
	<path id="path184" class="st12" d="M472,747.5c0,1.5-3.8,8.7-4.9,9.4c-1.3,0.8-10.3-3.4-9.9-4.6c0.2-0.6,3.1-2.1,6.3-3.3
		C470.5,746.4,472,746.1,472,747.5z"/>
	<path id="path186" class="st10" d="M452.2,755.7l8.1,4.4c9,4.7,9.8,6.5,5.5,11.1c-5.2,5.6-12.2,5.1-17.8-1.3l-3-3.5l3.6-5.3
		L452.2,755.7z"/>
	<path id="path188" class="st11" d="M393.3,761.5c0.6,0.1,3.9,2.5,7.1,5.4l6,5.3l-4.3,3.1c-5.6,4.1-10.3,5-13.7,2.7
		c-2.3-1.5-2.5-2.2-2.1-5.2c0.4-2,1.8-5.3,3.2-7.4C390.9,763.2,392.6,761.5,393.3,761.5z"/>
	<path id="path190" class="st12" d="M422.1,761.5c1.9,0,15.9,9.3,15.9,10.5c0,0.7-1.4,2.5-3.1,3.9c-4.2,3.6-10.6,3.6-14.8,0
		c-5.3-4.5-5.6-5.9-2-10.4C419.9,763.3,421.7,761.5,422.1,761.5z"/>
	<path id="path192" class="st12" d="M442.9,774.5c0.7,0,17.3,7,17.9,7.5c0.2,0.2-0.4,1.9-1.3,3.8c-3.4,7.3-12.5,7.5-17.5,0.5
		c-3.4-4.7-3.6-5.9-1.4-9.3C441.5,775.6,442.5,774.5,442.9,774.5z"/>
	<path id="path194" class="st12" d="M431,786.2c0.8,0.8-5.9,6.3-7.6,6.3c-6.8,0-17.5-12.6-13.8-16.2
		C410.1,775.8,429.6,784.8,431,786.2z"/>
	<path id="path196" class="st12" d="M400.5,784.5c0.6,1-7,7-9,7c-1.8,0-6.8-5.7-6.1-6.9C386.3,783.2,399.7,783.1,400.5,784.5z"/>
	<path id="path198" class="st9" d="M466.2,786.5c0.9,0,17.1,6,17.7,6.6c0.8,0.8-5.2,6.5-9.5,9c-11.8,7-27.3,9.9-48.6,9.1
		c-21.7-0.7-37.4-5.4-47.5-14.2c-3.7-3.2-3.7-3.2-2-5.9c2.2-3.3,3.3-3.3,6.4,0.4c3.5,4.2,7.8,6.3,11.3,5.5c1.6-0.3,4.7-2.7,7-5.1
		l4.2-4.5l5.1,3.9c9.9,7.5,11.5,7.7,21.1,2.7l6.7-3.6l2.9,2.1c8.8,6.3,14.4,5.9,20.7-1.5C463.8,788.5,465.8,786.6,466.2,786.5z"/>
	<path id="path200" class="st5" d="M315.2,802.5c12.3,7.2,28.1,8.2,49.8,3c13.8-3.3,13.2-3.3,12.8-1.3c-0.5,2.6-12.9,7-23.7,8.4
		c-16.1,2.2-33.6-1.8-40.7-9.2C310.1,800,310.6,799.8,315.2,802.5z"/>
	<path id="path202" class="st5" d="M548,802.4c0,1.9-7,6.3-13.2,8.3c-7.6,2.5-27,3-36.2,0.9c-6.4-1.4-17.6-5.9-17.6-7.1
		c0-2.1,3.9-1.7,18,2c12.2,3.2,24.9,3.1,35.5-0.4c4.4-1.4,8.7-3,9.5-3.6C545.9,801.3,548,801.2,548,802.4z"/>
	<path id="path204" class="st5" d="M315.8,811.4c9.6,4.8,17.3,6.5,29.2,6.6c6.3,0,15.3-0.3,20-0.7l8.5-0.8l-7.5,2.7
		c-6.8,2.4-8.9,2.7-22.5,2.7c-9.4,0.1-17.3-0.4-21.3-1.3c-5.4-1.2-6.6-1.9-9.2-5.4c-1.6-2.2-2.7-4.4-2.4-4.9
		C311.3,809.2,311.6,809.2,315.8,811.4z"/>
	<path id="path206" class="st5" d="M479.6,811.6c13.1,5.6,32.3,8.1,45,6c3.9-0.7,10.6-2.8,14.9-4.6c4.3-1.9,8.1-3.2,8.3-3
		c1.3,1.3-1.6,7.1-4.3,8.7c-7.7,4.4-35.2,4.9-49.3,0.9c-8.1-2.4-19.2-7.6-19.2-9.1C475,810,477.1,810.5,479.6,811.6z"/>
	<path id="path208" class="st5" d="M385.5,822.6c-19.4,12-51.1,16.3-62.4,8.5c-2.2-1.6-4.1-3.2-4.1-3.6c0-0.4,8.2-0.7,18.3-0.7
		c16.7,0.1,19-0.1,28-2.6c5.4-1.4,14.4-4.8,20-7.5C400.9,809.2,401,813.1,385.5,822.6z"/>
	<path id="path210" class="st13" d="M477.4,818.1c17,8.5,36.5,11.4,55.5,8.4c3.5-0.6,6.6-0.9,6.9-0.6c0.9,1-2.8,5.6-6.1,7.3
		c-2.6,1.5-5.4,1.8-14.7,1.6c-15.1-0.2-27.8-3.1-40.3-9.4c-6.5-3.3-16.8-10.9-16.2-12C463.6,811.7,466.4,812.5,477.4,818.1z"/>
	<path id="path212" class="st13" d="M405.5,819.6c-14.1,14.4-35.2,23.6-52.2,22.7c-11.1-0.6-12.8-2.3-3.1-3.1
		c15.4-1.3,33.3-8.2,46.1-17.8c3.7-2.8,8-5.5,9.5-5.9C410.6,814.1,410.5,814.4,405.5,819.6z"/>
	<path id="path214" class="st13" d="M456.9,828.1c7.7,6,14.1,11.2,14.1,11.6c0,1.1-12.6-3.8-17.7-6.8c-6.7-3.9-17.3-13.3-17.3-15.4
		C436,813.7,442.6,817,456.9,828.1z"/>
	<path id="path216" class="st5" d="M449.6,815.5h2.9c1.9,0,4.8,1.5,8.7,4.5c12.7,10.1,31.2,17.5,47.8,19.3c7,0.8,7.3,0.9,4.7,2
		c-4,1.7-15.8,1.5-23.1-0.4c-12.3-3.1-29.4-13.1-38-22.3L449.6,815.5z"/>
	<path id="path218" class="st13" d="M423,817.4c0,2.2-13.3,13-20.6,16.8c-8.2,4.2-15.2,6.8-16,6c-0.3-0.2,4.4-3.6,10.3-7.5
		c5.9-3.9,12.2-8.5,13.8-10.2c1.7-1.8,4.4-3.8,6-4.6C420,816.4,423,816.1,423,817.4z"/>
	<path id="path220" class="st14" d="M428.6,818.6c0.1,0,3.2,3,7.1,6.7c10.7,10.6,20.4,15.8,38.3,20.7l8.5,2.4h-52.4
		c-28.8,0.1-52.2-0.1-52-0.3c0.2-0.2,4-1.4,8.5-2.5c15.5-4,26.9-10.5,36.4-20.9C426,821.4,428.6,818.7,428.6,818.6z"/>
	<path d="M458.5,1c24.5,3.7,47.2,10.8,70,22c23.9,11.6,43.9,25.9,62.6,44.5c28.4,28.4,48.7,63.2,59.9,102.6c3.5,12.2,8,37.2,8,44
		c0,2.4,0.2,4.4,0.5,4.4c0.3,0,8.9-3.2,19.1-7c10.2-3.9,19.8-7,21.3-7c3.3,0,5.3,2,8,8.1c6.7,15.2,7.1,36.6,1,57.3
		c-1.1,3.7-1.8,7-1.6,7.2c0.2,0.3,4.2-1.9,8.7-4.7c16.1-9.9,29.1-14.1,44-14.2c10.7,0,13.6,1,14.7,5.1c1.3,4.8,0.9,30.3-0.6,37
		c-0.8,3.4-2.8,9.1-4.6,12.7c-2.1,4.2-2.9,6.5-2,6.5c4.1,0,32.8,3.2,37,4.1c4.9,1.1,11.5,4.6,11.5,6.2c0,0.4-1,1.9-2.2,3.2
		c-3.1,3.3-19.5,7.7-40.2,11c-8.9,1.4-17.3,2.5-18.5,2.5s-2.1,0.4-1.9,1c0.2,0.5,10.2,9.3,22.3,19.5c19.3,16.3,25.5,22.3,25.5,24.6
		s-7.7,1.1-33.5-5c-16-3.8-29.1-6.8-29.3-6.7c-0.1,0.2,0.6,1.4,1.6,2.7c6.6,8.5,27.9,40.3,30,44.7c2,4.4,2.2,5.8,1.3,7.8
		c-0.6,1.4-1.9,2.4-3.2,2.4c-4.6,0-21.1-10.3-42.7-26.8l-3.3-2.5l0.5,2.4c0.3,1.3,2.8,14.1,5.6,28.3c4.2,21.9,4.9,26.5,3.9,29.3
		c-2.1,6.6-5.4,3.9-21-17c-7.5-10-15.1-20.4-16.9-23c-1.7-2.7-3.4-4.6-3.7-4.4c-0.6,0.7-3.1,24.1-2.6,24.9c0.2,0.5,1.5,0.8,2.9,0.8
		c4.5,0,6.6,3.5,7.6,13c0.3,2.3,0.8,2.6,6.5,3.2c3.4,0.4,7.2,1.2,8.4,1.8c1.9,1.1,2.1,1.7,1.5,6.4c-0.3,2.8-0.9,6.4-1.2,8.1
		c-0.5,2.8-0.3,3.1,4.7,5c7.5,2.9,7.8,3.9,3.9,12.3l-3.2,7l2.6,5.7c1.4,3.2,2.6,6.6,2.6,7.6c0,2.3-2.9,4.1-9.8,6.4
		c-5.4,1.7-7.2,3.7-7.2,7.7c0,1.3-2.1,5.3-4.6,9c-4.2,6.2-4.9,6.7-9.1,7.4c-2.5,0.4-9.4,0.4-15.2,0.1c-11.9-0.6-19.6-2.7-29.9-8.2
		l-6.6-3.5l-4.8,4.7c-3.4,3.3-4.8,5.5-4.8,7.4c0,3.6-2.1,5.1-6.2,4.4c-3.1-0.6-3.4-0.4-5,3.5c-1.8,4.4-3.8,5.1-7.7,2.4
		c-2.2-1.6-2.4-1.5-5.6,1.6l-3.2,3.1l-3.6-6.3c-3.1-5.6-4.3-6.7-10.5-10.1c-5.7-3-8.9-4-17.6-5.2c-21.9-3.1-41.6-8.4-62.2-17
		c-5.9-2.4-10.9-4.3-11-4.2c-0.2,0.1,2.6,8.2,6.1,17.9c12.1,33.3,16.1,54.9,15.2,82.8c-0.6,18.9-2.4,30.6-7.4,47
		c-4.1,13.8-9,24-22.2,46.2c-12.2,20.8-15.4,29.5-15.5,42.3c-0.1,13.2,2.1,19.4,9.2,26.4c5.8,5.7,17.8,13.2,25.5,15.8
		c15.8,5.5,31.8,0.7,39.9-11.9l3.3-5.1l0.6,2.9c1.2,5.3,0.9,15.8-0.6,22.9c-3.9,18.4-15.9,30.4-36.1,36.4c-10.6,3.1-30.6,3-42.9-0.3
		c-18.2-4.9-27.9-10.1-38.7-20.7l-6.9-6.7l-5.7,6c-10.3,10.9-20.7,16.7-37.8,21.3c-8,2.1-11.8,2.5-23.3,2.5
		c-11.8,0-14.7-0.3-21.2-2.5c-10.3-3.3-16.4-6.9-23-13.5c-11-10.9-16-27.3-13.1-43.4c0.8-4.4,2.7-5.8,3.7-2.7c0.3,1.2,2.4,4.3,4.5,7
		c7.7,9.7,18.5,12.3,33.8,8.1c15.7-4.4,27.3-12.5,32.2-22.5c3.6-7.2,3.9-18.1,1-27.7c-2.7-9-9-22.6-15.9-34.2
		c-12.1-20.5-19.1-36.8-23.9-56.2c-4.5-17.8-5.7-28.7-5.6-49.9c0.1-31.4,2.7-44.3,15.3-76.9c1.7-4.4,2.9-8.1,2.8-8.3
		c-0.2-0.1-5.2,1.8-11.3,4.3c-17.5,7.2-23.9,7.7-30.8,2.3c-3.2-2.5-15.8-21.2-27.1-40.3c-8.7-14.8-12-18.6-16.1-18.6
		c-3,0-10.4-2.9-10.4-4.1c0-0.6,0.7-2,1.5-3.3c1.5-2.2,1.4-2.6-0.9-6.1c-2.9-4.2-2.7-5.4,1.5-7.9c2.4-1.4,2.8-2.2,2.3-3.9
		c-1.7-5-1-7.1,2.9-9c2.4-1.2,3.9-2.8,4.3-4.5c1.1-4.5,2.4-5.5,6.5-4.8c2.1,0.3,5.9,1.5,8.5,2.6c3.5,1.5,6.4,2,11.1,1.8l6.3-0.3
		l-25.8-21.9c-14.2-12.1-26.4-22.2-26.9-22.3c-0.6-0.2-1.4,0.9-1.8,2.5c-0.8,4-6.8,10.8-11.5,13.2c-9.3,4.7-18.5,3.4-25.9-3.8
		c-3.9-3.7-5-4.3-7.1-3.5c-4.1,1.4-6.7,6.7-10,20.6c-2.6,11-10.7,42.5-12.6,49c-0.6,2.1-6.2,8.7-7.3,8.7c-0.5,0-1.9-2.1-3.3-4.8
		c-2-3.6-3.2-8.8-5.2-22.7c-1.5-9.9-3-19.3-3.4-20.9c-0.7-2.8-1.5-1.9-16.2,18.4c-8.5,11.7-16.8,22.3-18.3,23.6
		c-3.8,3.2-6.5,3.1-7.3-0.1c-0.6-2.5,4.8-35.5,8.5-52.3c1.1-4.5,1.7-8.2,1.4-8.2c-0.2,0-3,2-6.1,4.4c-3.1,2.4-12.2,8.7-20.1,14
		c-12,8-15,9.6-18.2,9.6H80v-4.3c0-3.9,1.5-6.5,15.9-28c8.8-13,15.3-23.7,14.6-23.7s-13,2.7-27.3,6s-27.9,6-30.1,6h-4.2l1.6-2.9
		c0.8-1.7,11.6-11.6,24-22.2C86.9,357.9,97,349,97,348.6c0-0.3-10.8-2.3-23.9-4.4c-13.2-2-25.5-4.4-27.3-5.2
		c-1.9-0.7-5.3-2.9-7.5-4.8l-4-3.3l3.1-1.9c1.7-1.1,4.1-2.6,5.4-3.3c1.2-0.7,10.9-2.2,21.4-3.3c10.6-1.1,19.3-2.1,19.5-2.3
		c0.2-0.1-1-2.7-2.7-5.7c-4.7-8.8-6.3-17.4-6.3-34c0.1-8.9,0.5-15.5,1.2-16.7c1.9-3.6,5.1-4.6,14.6-4.5c14.4,0.1,28.2,4.6,44.5,14.6
		c4.1,2.5,7.6,4.4,7.8,4.3c0.1-0.2-0.6-3.9-1.7-8.2c-4.2-16.4-5.1-30-2.7-42.6c1.6-8.2,4-15,6.8-19.1c2.4-3.4,7.5-3.6,14.5-0.6
		c7.4,3.2,30.6,12,30.8,11.7c0.1-0.2,0.7-5,1.4-10.8c5.4-45.6,23.1-88.9,49.9-122.1c21.9-27.2,57.9-54.7,89.7-68.7
		c19.6-8.6,43.3-15.1,62-17.1c6.1-0.7,11.9-1.4,13-1.6C411.6-1.9,448.5-0.5,458.5,1z M417.2,4.5c-16.9,0-18,0.1-22.8,2.5
		c-6,3-43.9,40-56.3,55c-45.3,54.7-70.3,113.9-79.2,187.5c-1.6,13.3-1.7,33.5-0.1,38.8c2,6.8,3.8,5.2,9.9-8.8
		c7.1-16.4,26.1-54.9,35.8-72.5c27-48.9,61.9-103.6,111.8-174.7C426.6,17.6,435,5.3,435,5C435,4.7,427,4.5,417.2,4.5z M443.4,5.5
		c-2.8,1.1-4.5,3.4-29.4,39c-60,85.8-90.6,135.2-119.3,192.6c-13.4,26.8-31.7,64.8-31.7,65.8c0,1.3,6.1,3.3,8.7,2.8
		c2.6-0.5,27-22.2,49.7-44.2c59-57.2,106-129.6,131.5-202.5C458,44.4,469,8.1,468.5,7.6c-0.3-0.2-4.9-1-10.3-1.7
		C446.9,4.4,446.2,4.3,443.4,5.5z M380.6,7.6c-3.2,0.2-24.5,6.3-34.5,9.8c-20.2,7.3-26,10.9-39.7,24.5
		c-32.8,32.9-55.1,70.7-67.3,114.5c-8.7,31-13.4,74.1-11.6,105.3l0.7,12.8h6.7c3.6,0,8.8,0.7,11.5,1.5c2.7,0.8,5.1,1.4,5.2,1.2
		c0.2-0.2,0.8-6.6,1.4-14.3c5.9-80.1,33.8-148.7,85.8-210.9c4.2-5,15.5-17,25.3-26.8C373.8,15.5,381.3,7.5,380.6,7.6z M473.9,7.5
		c-0.3,0-2,5.5-3.8,12.2C442.2,125.4,381.8,217.9,287.3,300l-11.2,9.8l3,4.4l3.1,4.4l3.1-2.4C365,256.6,388,238.1,413.9,213
		c39.7-38.7,66-75.1,89.2-123c9.7-20.2,28.2-61.5,27.7-62c-0.2-0.2-12.9-4.9-28.3-10.4C487.1,12,474.3,7.5,473.9,7.5z M539.9,34.5
		c-5.4-2.8-6-2.9-6.6-1.3c-5,13.9-16.4,40.6-23.3,54.8c-22.1,45.6-48.7,83.8-82,117.9c-23.3,23.9-41.6,39-109,90.1
		c-37.8,28.6-34.8,26.1-36.5,31.9c-1.8,6.6-2.9,13.6-2,13.6c0.6,0,16.7-9.4,43.2-25.2c62.5-37.3,115.2-84.2,155.8-139
		c21.7-29.1,39.1-55.8,48.9-74.8c11.6-22.4,21.8-57,18.7-62.9C546.4,38.4,543.2,36.1,539.9,34.5z M557,44.9c-0.9-0.8-2.1-1-2.9-0.5
		c-2.5,1.6,1.1,8.9,13.4,27.7c47.3,72,63.1,112.8,68.2,175.8l1.7,20.8l6.1-0.7c3.3-0.3,6.2-0.8,6.4-1.1c0.3-0.2-0.3-5.2-1.3-11.2
		c-1.9-12.5-1.2-18.8,3-26c2.6-4.4,2.7-5,2.1-14.8c-0.8-12.2-4.7-33-8.8-46.9c-13-44.3-39.2-83.4-75.9-113.3
		C563.2,50,557.8,45.6,557,44.9z M280.5,55c-46.1,37.9-73.9,87.6-83,148.5c-1.8,11.6-0.9,23.1,2.7,33.9c1.8,5.7,2,7.9,1.4,17.7
		l-0.6,11.2l10.4,5.6c5.7,3.1,10.6,5.6,10.8,5.6s0.4-12.5,0.4-27.8c0-28.4,1-42.6,4.5-63.2c8.5-49.7,28.9-94.8,59.5-131.5
		c3.3-3.9,6.5-7.8,7.3-8.8C297,42.3,292.2,45.5,280.5,55z M552.8,58.5c-0.4,0-1,2.1-1.4,4.6c-0.7,5.1-0.4,6,10.6,30.9
		c17.7,40.1,29.7,75.3,36,106c1.2,5.5,4.3,23,7.1,39c2.8,16.4,5.6,30,6.5,31.3c1.6,2.4,5.5,4.4,13.1,6.7c7.7,2.3,8.3-1.1,5.3-29.5
		c-5.2-50.6-10.1-69.8-26.9-104.5c-9.2-19.1-22.7-42.5-38.2-66.7C558.6,66.5,553.2,58.6,552.8,58.5z M551.1,81.8
		c-2.2-4-1.7,4.1,2.4,37.4c2.4,19.7,6,49.3,8,65.8c4.5,37.5,7.8,58.2,12.1,75.5c4.9,20.1,12.4,42,14.3,42c0.4,0,1.1-2.9,1.3-6.5
		c0.7-8.5,3.3-13.1,10.1-18.3c6.6-5.1,6.5-4.6,4.2-22.9c-6.7-51.8-21.4-102.5-45.9-158.7C554.5,89,551.6,82.6,551.1,81.8z
		 M541.8,88.5c-0.4,0-0.8,0.6-0.8,1.4c0,5.8-28,65.5-40.8,86.8c-50.8,84.9-118,140.1-207.2,170.4l-15.5,5.3l-1.2,8.2
		c-0.6,4.5-1.4,9.2-1.7,10.5c-0.8,3.2-5.9,8.9-12.3,13.6c-2.9,2.1-5.3,4.2-5.3,4.7c0,1.1,21,19.8,29.1,25.9
		c41.5,31.5,86.2,46.4,138.4,46.4c23.1,0,35.8-1.3,52.9-5.6c17.9-4.6,30-9.2,51.1-19.6c32-15.8,54.5-32.4,63.8-47.2
		c0.9-1.5,1.7-3,1.7-3.2c0-0.3-1.8-1-4.1-1.6c-5-1.4-11.6-7.2-14-12.5c-2.5-5.5-2.5-14.4,0.2-20.5l2.1-4.9l-4.1-4.2
		c-5.1-5.3-7.6-11.4-6.7-16.6c2-12.3,2-12.3-2.4-21.3c-15.1-30.7-22.9-55.5-27.5-88c-3.2-22.5-1.7-68.3,3.8-117
		C542,93.4,542.2,88.5,541.8,88.5z M548.1,119.4c-0.3-0.3-1.3-0.4-2.2-0.2c-2.8,0.7-4.4,21.6-4.4,58.3c0,29.4,0.2,33.8,2.3,46.5
		c4.8,28.3,12.3,52.1,23.3,73.5c6.9,13.5,6,12.6,10.8,9.4c2.9-1.9,4-3.2,3.6-4.3c-0.4-0.9-2.6-7.5-5-14.6
		c-9.2-27.7-14.4-54.7-20.5-107.4c-2.2-19.1-4.7-40.5-5.6-47.6C549.5,125.8,548.5,119.7,548.1,119.4z M504,155.2
		c-1.5-0.4-4.5,3.1-14.2,16.2c-6.9,9.1-17.6,22.9-23.8,30.6c-14.4,17.6-52.7,56-68.5,68.7c-22.7,18.2-52.8,38.7-87,59.3
		c-7.1,4.3-13.7,8.4-14.5,9.2c-0.8,0.7,2.4,0,7-1.6c80.5-27.5,154.3-92.3,199.2-175.3C505.5,156.3,505.7,155.7,504,155.2z
		 M151.9,210.5c-2.6,0-5.4,4.2-7.5,11.2c-2.8,9.5-2.6,31.2,0.4,43.3c2.3,9,8.5,23,12.1,27.3c1.7,1.9,2.3,2.1,4.5,1.1l2.6-1.2v-14.8
		c0-13.8,0.9-19.9,3.1-19.9c1.5,0,1.9,3.7,1.9,18.1v14.9h3c1.7,0,3.3,0.1,3.8,0.2c0.4,0,2.3-2.9,4.3-6.5c2-3.6,6.1-9,9.1-11.9
		c5-4.9,5.7-6.1,7.2-12.5c2-9.1,2.1-18.3,0.1-23.1c-3.6-8.4-10.4-13.1-31.5-21.6C158.7,212.6,152.8,210.5,151.9,210.5z M687,213.1
		c-11.9,4-22.1,9.4-27.2,14.5c-8,8-9.4,17.1-5.2,33.4c1.4,5.2,2.3,6.7,7,10.9c5.6,5,8.6,9.7,9.9,15.4c0.6,3.1,0.9,3.3,3.8,2.7
		c1.8-0.4,3.7-1.1,4.2-1.7c0.6-0.5,1.2-7.3,1.5-15.1c0.5-15.1,1.3-18.4,3.7-15.2c0.9,1.4,1.3,6,1.3,17.5c0,15.6,0,15.7,2.4,16.8
		c2.2,1,2.8,0.7,5.4-2.2c6.7-7.7,12.4-24.3,14.2-41.3c1.7-16.3-2.2-35.6-7.5-37.7C697.7,210,694.7,210.5,687,213.1z M754,263.5
		c-18,1.9-33.5,9.6-50.3,25c-7.5,6.8-8.2,8.2-6.2,11.9c0.8,1.6,1.9,3.2,2.4,3.5s6.1-1.4,12.5-3.9c6.6-2.5,13.3-4.5,15.4-4.5l3.7,0.1
		l-2.8,2.3c-1.6,1.3-6,3.4-9.8,4.6c-13,4.4-18.9,9.5-18.9,16.6c0,3,0.4,3.4,4.3,4.6c5.7,1.7,33.4,1.6,41.2-0.1
		c13.2-2.9,20.2-9.4,23-21.3c0.8-3.5,1.7-12.8,2.1-20.8c0.6-13.4,0.5-14.6-1.2-16.1C766.8,263.1,762.8,262.6,754,263.5z M93,264.9
		c-8.8-0.6-9.6-0.5-11.4,1.5c-1.7,1.9-1.8,3.2-1.2,16.7c0.9,19,2,24.8,5.4,30.3c6.6,10.8,29.1,15.5,56.2,11.8l8.5-1.2l-0.3-3.5
		c-0.9-8.7-5.6-12.7-20.7-17.6c-6.3-2-11.5-4-11.5-4.4s0.7-1.1,1.6-1.4c3.4-1.3,8.3-0.4,16.4,3c4.7,1.9,9.8,4.1,11.3,4.7
		c2.5,1,3.1,0.9,4.3-0.7c2.8-3.8,1.7-7.4-3.8-13.2c-10.5-11.2-25.8-20.4-39.3-23.9C105.2,266.2,98.2,265.2,93,264.9z M640.5,274.3
		c-3.9,2.4-7.8,7-9.5,11.1l-1.3,3.1l-4.7-4.4c-2.7-2.5-6-4.8-7.5-5.2c-7-1.7-17.2,2.2-21.1,8.1c-2.4,3.7-2.9,10.6-1.1,15.9l1.6,4.6
		h-3.3c-5.3,0-13,2.8-15.8,5.7c-1.5,1.6-3.4,4.5-4.2,6.5c-3.7,8.7-0.7,16.6,8.5,22.7l5.8,3.8l-3.5,3.4c-1.8,1.8-4.1,5.2-5,7.5
		c-1.5,3.8-1.5,4.7,0,9.6c2.9,9.9,10.6,14.7,20.9,12.7c2.7-0.5,5.3-0.9,5.7-0.9s1.2,3,1.8,6.6c1.3,7.9,4.7,12.8,10.6,15.5
		c5.7,2.6,11.5,2.4,15.7-0.4c3.2-2.1,9.2-9.1,10.2-11.9c0.3-0.9,1.5-0.3,3.8,1.8c7.2,6.7,13.9,8,21.6,4.3c6.6-3.2,9.8-8,9.8-14.8
		c0-3.1-0.4-7.3-0.9-9.4l-0.8-3.7h5.3c6,0,12.5-2.7,15.1-6.4c2.6-3.6,4.2-10.6,3.4-14.9c-0.8-4.3-5.1-9.7-10.4-12.8
		c-2-1.3-3.9-2.4-4.1-2.6c-0.3-0.2,0.7-1.6,2.1-3.1c7.1-7.5,8.5-14.6,4.5-22.2c-4.7-9-13.1-11.4-25.7-7.5c-1.2,0.4-1.5-0.7-1.7-5.5
		c-0.2-7.3-3-13.1-7.8-16C653.4,272.4,644.5,271.8,640.5,274.3z M189.7,278.3c-3.1,2.9-5.7,10.5-5.7,16.5c0,3.3-0.3,3.8-1.7,3.2
		c-9.2-3.5-17-2.5-22,2.7c-8.4,8.9-8.2,17.4,0.5,26.5l3.1,3.2l-5,3.1c-8.8,5.7-11.7,12.3-9.5,21.1c0.7,2.7,2.2,5.9,3.2,7.1
		c2.6,2.9,8.9,5.5,15.2,6.4c3.7,0.5,5.2,1.1,4.8,1.9c-3.6,9.5-3.1,14.8,2,20.5c4.3,4.7,8.9,7,14.4,7c4.7,0,6.9-0.9,12.6-5.6l4.1-3.3
		l3.7,5.2c2.1,2.9,4.9,6,6.3,7.1c5.6,4.2,16,2.6,21.6-3.2c3.1-3.2,5.7-10,5.7-14.8v-3.4l4.3,0.7c11.2,2.1,17.6-0.3,21.9-8.2
		c4.5-8.1,3.4-15-3.3-22l-2.9-3.1l5.2-3.4c7.1-4.8,9.1-7.8,9.6-14.7c0.7-11.3-6-18.5-18.7-20c-4.7-0.5-5.2-0.8-4.7-2.7
		c0.4-1.2,0.9-4.6,1.2-7.6c0.6-6.6-1.2-10.9-6.8-15.3c-7-5.6-15.8-4.6-24.7,2.9c-3.1,2.6-3.2,2.6-4.6,0.8c-0.8-1.1-1.5-2.2-1.5-2.6
		c0-1.5-6.4-7.9-9.1-9.4C203.5,272.1,194.7,273.7,189.7,278.3z M746,328c-7.7,1.4-12.8,1.6-27.5,1.2c-9.9-0.4-19.3-0.9-21-1.3
		l-3-0.7l3.6,3.9c5.6,5.9,7.9,11.3,7.9,18.4c0,10.3-5.5,17.8-15.9,21.5l-5.1,1.9v4.6c0,10-4.3,16.8-13.4,21.1
		c-3.3,1.6-7.3,2.9-8.8,2.9c-2,0-2.8,0.5-2.8,1.7c0,1,2.5,12.4,5.6,25.3c6.8,27.9,9.2,32.3,14.2,25.2c1.6-2.2,2.4-6.7,4.1-22.8
		c1.2-11,2.1-20.4,2.1-20.8c0-1.8,3,2.1,20.1,26.5c17.2,24.5,20.1,28,21.6,26.5c0.3-0.3-2.7-15.5-6.6-33.7
		c-4-18.2-7.1-33.2-6.9-33.5c0.2-0.2,6.7,4.6,14.4,10.7c21.4,17.1,35.5,26.2,37.6,24.1c0.6-0.6-6.3-11.2-19.2-29.3
		c-11-15.6-19.7-28.5-19.2-28.7c0.4-0.1,14,2.9,30.2,6.6c27.1,6.3,32.8,7.1,28.7,3.9C781.3,379,741,344,741,343.5
		c0-0.3,7.1-1.4,15.8-2.4c23.8-2.7,47.2-7.6,50.5-10.6c1.4-1.3-12.3-4-25.7-5C765.4,324.2,766.8,324.1,746,328z M61,327.1
		c-1.4,0.2-5.8,0.9-9.9,1.5c-4.1,0.6-8.1,1.3-8.8,1.6c-1.7,0.7-1.7,3.2,0,3.8c0.6,0.2,15.8,2.7,33.7,5.5c17.8,2.8,32.6,5.2,32.8,5.5
		c0.2,0.2-10.5,9.6-23.8,21s-23.9,20.9-23.7,21.2c0.3,0.2,11-2.1,23.8-5.1c34.2-8,38-8.8,38.5-8.3c0.2,0.2-4.1,6.4-9.6,13.6
		c-22.6,29.6-32.6,46.1-28,46.1c0.5,0,11.5-7.9,24.6-17.6c13-9.7,24.3-17.8,25-18.1c0.9-0.3,0.9,0.9-0.2,5.4
		c-2.2,9.2-13.4,60.4-13.4,61.4c0,3.6,5-2.5,22-26.6c10.6-15.2,19.4-27.4,19.6-27.3c0.1,0.2,1.6,12,3.4,26.3
		c3.9,33.1,3.8,32.5,6,32.5c1.4,0,3.1-5.3,9.9-32.5c4.4-17.8,8.1-32.7,8.1-32.9c0-0.3-2.6-1.2-5.7-2.1c-12.9-3.7-16.8-8-19.3-20.8
		l-1.5-7.8l-5.9-2.4c-6.9-2.8-9.9-5.4-12.6-11c-2.5-5.1-2.7-14.3-0.4-19.1c0.9-1.8,3.5-5.5,5.7-8c3.8-4.3,4-4.7,1.7-4.1
		c-1.4,0.3-11,0.9-21.5,1.2c-15.8,0.6-20.2,0.4-26-1C98.8,327.5,66.9,326.1,61,327.1z M602.1,387.5c-0.4,0-4.5,3.9-9.1,8.6
		c-26.8,27.1-56,45.5-93.4,58.9l-9,3.2l3,1.6c1.6,0.8,15.5,6.7,30.9,13.2c15.4,6.4,38,15.9,50.3,21.1c21.2,8.9,22.6,9.4,27.6,8.8
		c5.2-0.6,5.3-0.6,8.8,3.6c3.1,3.6,3.9,4,5.6,3.1c2.2-1.2,2.3-1.6,4.3-22.6c2.3-24.7,4.9-28,19.6-24.9c3.8,0.8,7.1,1.4,7.5,1.4
		c0.3,0,1.6-2.9,2.8-6.4c3-9,4-10.1,9.4-10.1c3.6,0,4.5-0.3,4.1-1.5c-0.6-2-4.8-20-7.5-32.3c-1.7-7.7-2.9-10.6-5.2-13.3
		c-1.7-1.9-3.7-3.4-4.5-3.4c-0.9,0-3.7,2-6.3,4.4c-7.7,7.2-17.2,8.4-26.3,3.4c-4.7-2.6-10.5-9.8-11.4-13.9
		C603,388.8,602.5,387.5,602.1,387.5z M275.5,438.9l0.7,3.4l-5.1,0.7c-2.8,0.4-5.3,1.1-5.6,1.6c-0.3,0.4,1.2,2,3.4,3.5
		c2.3,1.4,3.9,3,3.6,3.4c-0.3,0.4-2.7,1.6-5.5,2.6c-2.7,1-5,2.1-5,2.4c0,0.4,2.3,1.9,5.1,3.5l5.2,2.8l-3.8,2.2
		c-3.5,2.2-3.6,2.4-1.7,3.4c1.1,0.6,2.9,1.1,3.9,1.1c4.5,0,7.9,3.8,15.7,17.6c17.9,31.6,27.1,43.4,33.5,43.4
		c6.3,0,32.8-10.5,35.8-14.2c2-2.3,21.3-52.2,21.3-54.8c0-1.6-7.4,0.1-13.5,3.1c-3.3,1.5-10,6-15,10c-8.3,6.6-17,11.9-17.8,10.8
		c-0.2-0.2-6.1-7.7-13.1-16.6c-14.4-18.5-15.6-20.3-15.6-25.6c0-3.5-0.2-3.8-2.2-3c-3.9,1.3-8.2,0.8-15.1-2
		C275.7,434.6,274.7,434.6,275.5,438.9z M307.6,437.5c-0.3,0-0.6,2-0.6,4.5c0,4,0.8,5.5,7.8,14.7c14.4,19.1,17.6,22.9,18.8,22.4
		c2.8-1.1,26.2-19.2,25.6-19.8c-0.4-0.4-12-5.4-25.8-11.2C319.5,442.3,307.9,437.5,307.6,437.5z M659,451.5c-0.8,0-3.4,6.7-4.5,11.5
		c-1.3,6-4,6.7-14.6,4c-3.3-0.9-6.4-1.3-7-0.9c-1.9,1.1-3,5.9-2.4,10c0.5,3.8,0.9,4.3,4.1,4.9c4.9,0.9,7,3.4,7.8,9.4l0.7,5.3l5-4.7
		c6.3-5.9,11.9-8.5,18.7-8.5c6.9,0,10.6,1.7,16.5,7.4c11.7,11.3,11.5,23.3-0.6,36.2c-3.3,3.6-5.8,6.6-5.6,6.8
		c0.2,0.3,5.1,1.6,10.8,3.1l10.4,2.6l2.1-2c1.3-1.3,2-3.5,2.1-6c0.1-5.2,2.5-7.7,8.8-9.2c8.9-2,9.3-2.5,5.7-6.5
		c-4.6-5.2-3.8-13.3,1.8-19.7c1.4-1.6,1.4-1.9,0.2-2.8c-0.8-0.5-2.6-1.2-4-1.5c-5-1.1-7.9-2.7-8.5-4.4c-0.3-0.9,0.8-5.2,2.4-9.5
		c3-7.6,3-7.7,0.8-7c-1.2,0.3-4.3,0.9-6.8,1.2c-3.8,0.4-5,0.2-6.7-1.5c-2.2-2.2-4.2-8-4.2-12.5c0-1.5-0.4-2.7-0.9-2.7
		s-3.3,1.6-6.2,3.6c-2.9,1.9-6.4,3.7-7.8,4c-2.6,0.5-3.1,0.2-13.1-7.4C661.6,453,659.4,451.5,659,451.5z M480.2,461.5
		c-2.3,0-4.2,0.2-4.2,0.4c0,1.3,19.4,51.3,20.4,52.5c1.4,1.9,14.5,7.9,26.9,12.5c17.3,6.4,44.3,12.6,55.3,12.6
		c6.3,0,7.8-1.5,10.3-9.8c1-3.3,3.4-8.8,5.2-12.1c2.6-4.7,3.1-6.5,2.3-7.8c-0.5-0.9-4.6-3.1-9-5c-4.3-1.8-29.3-12.3-55.4-23.3
		C495.6,466.2,483.4,461.5,480.2,461.5z M463.5,466l-37.2-0.3l-37.3-0.2v15.4c0,12.4,0.3,15.6,1.5,16.6c1.1,0.9,9.9,1.3,35.5,1.3
		c30.8,0,34.2-0.1,35.8-1.7c1.4-1.4,1.7-3.8,1.7-16.4V466z M475.8,477.5c-0.5,0-0.8,4.7-0.8,10.5v10.5h4.5c2.5,0,4.5-0.3,4.5-0.7
		c0-0.3-1.7-5-3.7-10.4C478.2,481.9,476.2,477.5,475.8,477.5z M377.2,478.5c-0.9,0-8.7,19.9-8,20.4c0.1,0.2,2.2,0.1,4.6-0.2l4.2-0.4
		v-9.9C378,483,377.6,478.5,377.2,478.5z M637,486.7l-6.1-1.5l-6.1-1.5l0.4,12.1c0.6,14.4,2.4,20.2,9.2,28.8
		c5.6,7.2,17,14.8,26.7,18c6.2,2,9.4,2.4,19.4,2.4c10.2,0,12-0.2,12.3-1.6c0.2-1.3-1.3-1.9-7.4-2.9c-9.4-1.5-13.4-4.6-13.4-10.4
		c0-4.4-2.2-6.6-6.8-6.6c-2,0-4.8-0.6-6.2-1.3c-2.2-1.1-2.6-2-3-8.2l-0.5-7l-5.3-0.6c-9.1-1.2-13.2-5.8-13.2-15.2V486.7z
		 M658.5,488.9c-3.3,1.4-9.5,7.9-9.5,10c0,0.7,1.8,1.8,4,2.5c4.6,1.3,6.4,4.1,7.4,11.2l0.7,4.7l8.3,2.6c4.6,1.4,8.8,2.6,9.4,2.6
		c1.8,0,6.1-6,7.2-10.2c2.3-8.3-2.7-18.6-11.1-22.8C670.5,487.2,663,486.9,658.5,488.9z M369,504.8c-3,1.5-3.5,2.6-10.9,21.9
		l-5.7,15.3l37.4,0.3c20.5,0.1,53.9,0.1,74.2,0l36.9-0.3l-6.9-17.9c-3.7-9.8-7.3-18.3-8-19C484.3,503.4,372.4,503,369,504.8z
		 M609.8,517.1c-0.9,1.1-3.6,6.4-6,11.9c-5,11.6-5.6,17.6-2.2,22.1c2.9,4,4.1,4,4.8-0.1c0.4-1.9,1-3.5,1.5-3.5c0.4,0,2.2,2,4,4.5
		s3.6,4.3,4,4c0.5-0.2,1.1-2.5,1.4-5c0.2-2.5,0.7-4.9,1-5.2c0.3-0.3,2.1,0.4,4,1.6c5,3,5.5,2.8,4.7-2.7c-0.9-5.7-0.7-6.2,3.1-6.2
		c1.6,0,2.9-0.3,2.9-0.6c0-1.2-2.5-5-6.5-9.9c-4.2-5.3-6.1-9.7-4.9-11.7c0.4-0.5,0-1.4-0.7-1.9C618,512.6,612.7,513.9,609.8,517.1z
		 M350.7,548.7c-2.1,1.6-5.4,12.6-4.1,13.7c0.5,0.4,17.9,8.1,38.6,16.9c24.7,10.6,39,16.2,41.2,16.2c3.2,0,18-5.6,45.6-17.3
		c5.8-2.4,16.3-6.8,23.3-9.7l12.8-5.4l-0.7-3c-1.1-5.2-4.1-10.1-6.9-11.4C496.6,546.9,353.1,547,350.7,548.7z M344.3,567.5
		c-1.4,0-4.3,19-3.2,21.7c1.2,3.2,6.4,5.4,9.9,4.1c1.5-0.5,4.4-2.7,6.5-4.8c2.2-2.2,4.2-4,4.6-4c0.4,0,1.2,2.4,1.9,5.2
		c2.4,11,3.9,12.8,10.5,12.8c2.9,0,4.5-0.9,8.6-4.7c5.6-5.2,5.1-5.3,9.4,2.8c3.4,6.6,5,7.9,9.7,7.9c3.4,0,4.6-0.6,8.4-4.5
		c2.4-2.5,4.4-4.8,4.4-5c0-1-14.4-7.7-41.6-19.4C357.9,573,344.8,567.5,344.3,567.5z M509.1,568.6c-1.2,0.1-63.4,25.5-65,26.5
		c-0.2,0.2,0.6,1.9,1.8,3.8c2.9,4.7,8.7,9.6,11.3,9.6c3,0,8.2-6,10.9-12.5c1.2-3,2.7-5.4,3.3-5.2c0.6,0.2,2.4,2.3,4.1,4.8
		c4.3,6,7.5,7.5,12.3,5.7c3.1-1.1,4.3-2.5,7-8.1c1.8-3.7,3.7-6.7,4.1-6.7c0.5,0,2.8,2.2,5.1,5c3.4,4.1,4.8,5,7.4,5h3.2l-1.9-14
		C511,571.1,510.4,568.5,509.1,568.6z M358.2,595.6c-0.4,0.1-2.8,1-5.4,2.2c-4.4,1.9-4.8,2.4-4.8,5.4c0,9.9,10,14.8,17.1,8.5
		l3.2-2.9l-4.7-6.6C361,598.5,358.5,595.5,358.2,595.6z M497.4,600c-2.1,5-1.7,7.9,1.3,11.5c2.3,2.8,3.1,3.1,6.2,2.6
		c4.3-0.7,6.1-2.8,6.1-7.1c0-3.4-2.4-6.2-7.7-8.9C499.1,596,499.1,596,497.4,600z M434.5,599.3c-2.1,1.2-5.2,1.6-10.2,1.6l-7.2-0.1
		l1.7,3c2.1,3.5,6.8,7.7,8.8,7.7c2.8,0,8.2-2.8,9.8-5.1c0.9-1.3,1.6-3.8,1.6-5.6C439,597,438.6,596.9,434.5,599.3z M480.3,605.7
		l-8.2-3l-2.6,4.5l-2.7,4.5l2.4,2.5c5.9,6.4,12.6,6.2,17.2-0.6c1.5-2.3,2.7-4.4,2.5-4.6C488.7,608.8,484.8,607.3,480.3,605.7z
		 M379.3,606.7c-2.3,1.4-3.3,2.7-3.3,4.5c0,7.4,7.1,13.4,13.8,11.7c6.5-1.7,6.4-3.6-0.6-10.7c-3.4-3.5-5.9-6.6-5.6-7
		C385,603.8,382.5,604.7,379.3,606.7z M340,608.6c-1.2,2.1-0.8,17.4,0.4,18.6c0.3,0.3,3.2-1,6.5-2.9l6-3.4l-5-6.4
		C341.2,605.9,341.4,606,340,608.6z M443.6,606.5c-0.2,0-1.9,1.8-3.7,4.1c-2.9,3.7-3.1,4.2-1.8,6.6c2.4,4.5,6.7,7.3,11.1,7.3
		c3.2,0,4.7-0.7,7.4-3.4c1.9-1.9,3.4-4.1,3.4-5c0-1-3-3.1-8-5.6C447.6,608.3,443.8,606.5,443.6,606.5z M414,608.8
		c-0.3-0.1-2.2,1.1-4.2,2.8c-3.7,3-3.7,3.1-2.3,5.9c3.8,7.3,11,9,18.3,4.3c2.3-1.5,4.2-3.1,4.2-3.5c0-0.3-3.5-2.6-7.7-5
		C418,610.9,414.3,608.9,414,608.8z M370,614.6c-0.3,0.1-2.6,1.3-5.2,2.8c-4.2,2.3-4.8,3-4.8,5.9c0,6.5,5.2,12.2,11,12.2
		c2.1,0,8-5.3,8-7.1c0-0.5-1.9-3.8-4.2-7.4C372.4,617.5,370.3,614.6,370,614.6z M491.2,617c-1.7,3.7-7,6.5-12.1,6.5h-4.5l2.9,3
		c3.7,3.9,5.7,4.4,9.3,2.6c5.9-3.1,9.2-8.7,7.6-13C493.5,613.8,492.5,614.1,491.2,617z M404.7,622.8l-2.2-2l-8.2,4.6
		c-4.6,2.5-8.3,4.9-8.3,5.2s1.6,2.4,3.5,4.6c4.1,4.8,7.4,5.9,11.4,3.8c3.3-1.7,7.6-9.5,6.7-12.3C407.2,625.7,406,623.9,404.7,622.8z
		 M465.8,623.1c-0.3-2.1-0.7-2-9.3,3c-5.2,3-8.9,5.8-8.7,6.6c0.6,2.7,4.5,5,7.6,4.4c3.7-0.8,6.3-3.1,8.8-7.9
		C465.2,627.1,466,624.3,465.8,623.1z M435.2,623.5c-0.4,0.1-5.3,2-10.9,4.3l-10.3,4.3l4.3,4.2c5.4,5.3,8.1,5.4,12.9,0.4
		c4.6-4.8,6.1-7.8,5.4-10.8C436.2,624.6,435.6,623.5,435.2,623.5z M499,625.5c-0.3,0-2.3,1.8-4.4,3.9c-3.7,3.8-3.8,4.1-2.7,7
		c1.6,3.7,3.8,5.8,7.3,6.6c2.2,0.6,3.3,0.1,5.8-2.4c2.6-2.5,3.1-3.7,2.8-6.8c-0.3-3.2-0.9-4.1-4.3-6
		C501.3,626.5,499.3,625.5,499,625.5z M353.7,627.6c-1.6,0.1-13.4,4.2-14.1,5c-0.3,0.3,0.5,3.2,1.7,6.5c2.1,5.3,2.6,5.9,5,5.6
		c3.6-0.4,13.7-5,13.7-6.2c0-0.6-1.1-3.3-2.5-6C356.1,629.7,354.4,627.5,353.7,627.6z M470.6,629.5c-0.3,0-2.2,2.6-4.2,5.7l-3.6,5.7
		l3.6,3.3c5.2,4.8,9.7,4.6,14.8-0.7c2.1-2.3,3.8-4.6,3.8-5.3s-3.2-2.9-7-5C474.2,631.2,470.8,629.5,470.6,629.5z M441.4,635.2
		c-1.6-0.9-7.4,5.8-7.4,8.4c0,3,6.9,9.8,10.7,10.5c2.9,0.6,3.8,0.1,7.3-3.4c2.2-2.2,4-4.5,4-5.1c0-0.6-3-3-6.7-5.4
		C445.5,637.8,442,635.6,441.4,635.2z M382.2,635.8c-1.5-0.4-14.6,5.3-15,6.5c-0.6,2,4,8,7.1,9.3c3.2,1.3,8.8,0.6,14.5-1.8l4.1-1.8
		l-5-6C385.2,638.7,382.6,635.9,382.2,635.8z M411.3,638.5c-0.5,0-2.9,2-5.3,4.5l-4.4,4.5l3.4,3.5c4.7,4.9,8.6,5.4,14.9,1.9
		c2.8-1.5,5.1-3.1,5.1-3.5c0-0.4-2.9-3-6.4-5.8C415.1,640.8,411.8,638.5,411.3,638.5z M488,644.4c0,0.6-1.1,2.2-2.5,3.7
		c-3.5,3.7-3,7.2,1.4,10.1c5,3.4,7.1,2.9,12.5-2.6l4.9-4.9l-7.1-3.6C489.8,643.4,488,642.8,488,644.4z M361.2,644.6
		c-0.8,0.1-10.9,6.2-11.9,7.3c-0.3,0.3,0.4,1.7,1.7,3.1c2.9,3.1,7.7,3.3,11.4,0.4c2.9-2.3,3.3-5.4,1-8.7
		C362.6,645.5,361.6,644.5,361.2,644.6z M462,648.5c-0.3,0-2,1.8-3.8,4.1c-4.1,4.8-3.8,7.3,1.3,11.8c5.5,4.8,12,3.7,15-2.4
		c3-6.4,2.3-7.9-5.3-10.8C465.5,649.7,462.2,648.5,462,648.5z M395.7,651.5c-1.6,0,4.8,12.9,7.8,15.7c4,3.8,6.7,4.1,11.3,1.3
		c5.4-3.3,4.3-4.9-7.7-11.3C401.1,654.1,396,651.5,395.7,651.5z M429.6,652.5c-2.3,0-4.9,4.6-4.2,7.4c0.8,3.4,5,8,8.8,9.9
		c3.5,1.7,5.4,1.2,9.6-2.7c5.1-4.6,4.9-5.1-4.2-10C435,654.6,430.5,652.5,429.6,652.5z M505.5,657.5c-2.2,4.3-1.9,7.7,1.2,10.7
		l2.6,2.7l1.3-4.5c1.8-6,1.7-8.3-0.4-10.2C507.7,653.9,507.3,654,505.5,657.5z M390.5,657.6l-9.2-0.1c-5,0-9.4,0.4-9.7,0.8
		c-0.6,1,4.3,4.8,7.9,6.2c2.3,0.9,3.1,0.5,6.8-3L390.5,657.6z M367.8,661.9l-2.3-2.1l-4.7,2c-5.4,2.2-5.9,4-3.4,10.2
		c1.7,4,4.2,5.5,9.3,5.5c3,0,4.6-0.7,6.7-2.9l2.9-3l-3.1-3.8C371.6,665.7,369.1,663,367.8,661.9z M398,668.7l-5.5-6l-2.6,2.2
		c-6.6,5.7-6.7,10.7-0.3,17.1c4.7,4.7,9.7,4.9,13.9,0.5c2.7-2.8,2.8-3.2,1.5-5.4C404.2,675.8,401,672.1,398,668.7z M480.8,662.5
		c-0.4,0-1.4,1.1-2.3,2.5c-4.8,8-4.8,7.1-0.6,8.4c7,2.1,11.4,1.4,15.6-2.2l3.9-3.4l-7.9-2.6C485.1,663.7,481.2,662.5,480.8,662.5z
		 M459.5,669.7c-5.6-2.7-8.5-3.7-8.5-2.9s-1.1,2.4-2.5,3.7c-1.4,1.3-2.5,3.3-2.5,4.5c0,4.4,9.6,10.2,15.1,9c3.3-0.8,6.9-4.8,6.9-7.9
		C468,674.4,466.2,673.1,459.5,669.7z M422.2,668.5c-0.5,0-2.3,1.5-4.1,3.4c-3.8,3.9-3.6,5.7,0.9,10.5c3.7,4.1,8.7,4.1,15.3,0.3
		l4.7-2.9l-8-5.6C426.6,671.1,422.6,668.5,422.2,668.5z M353.6,675l-3.5-4l-0.1,3.6c0,2.1,1.3,6.2,3.1,9.8l3.1,6.2l2.7-2.3
		c1.4-1.3,2.8-2.4,3-2.5c0.2-0.1-0.8-1.7-2.2-3.5C358.4,680.5,355.6,677.2,353.6,675z M502.1,671.6c-1.1,0.1-19.1,11.4-19.1,12
		c0,0.3,1.8,1.5,3.9,2.7c4.3,2.4,5.8,2.2,10.8-1.5c4.6-3.5,6.4-6.7,5.7-10.2C503,672.9,502.5,671.5,502.1,671.6z M378.5,677.6
		c-1.5,0.1-8.6,5.3-9.6,7.1c-1.2,2.1,2.9,9.9,6.2,11.7c3.2,1.8,6.4,1,10.9-2.7l3.4-2.9l-4.9-6.6
		C381.7,680.6,379.1,677.6,378.5,677.6z M473.7,680.4c-0.2-1.9-0.5-2.9-0.5-2.2c-0.3,2-6.2,8.3-9.3,9.9c-1.5,0.7-4.2,1.4-5.9,1.4
		c-3.8,0-3.8,0.8,0.4,4.9c2.9,2.8,3.9,3.2,6.5,2.6c3.7-0.8,7.8-5.4,8.6-9.8C473.9,685.3,474,682.3,473.7,680.4z M404,687.5
		c-4.6,2.6-8.6,5.2-8.7,5.7c-0.5,1.4,8.4,9.3,10.4,9.3c3.1,0,7.9-3.6,9.2-6.9c0.8-1.7,1.1-4.5,0.7-6.4
		C414.3,682.4,413.4,682.3,404,687.5z M443.7,683.6c-1.1,0-18.5,8.5-19.6,9.5c-1,0.9,7.4,8.4,9.4,8.4c5.8,0,13.5-9.8,12.1-15.3
		C445.3,684.7,444.4,683.5,443.7,683.6z M479.6,688.5c-0.7,0-7.6,11.6-7.6,12.8c0,0.6,2.6,2,5.7,3.2c4.6,1.7,6.1,1.9,8.4,1
		c2.4-1.1,9.6-8.7,8.8-9.4c-0.2-0.2-3.7-2-7.6-4C483.3,690.1,479.8,688.5,479.6,688.5z M362.6,691.7c-0.7-0.1-2.1,0.7-3.1,1.8
		c-1.8,2-1.8,2.2,1.6,8.5c5.7,10.7,5.4,10.5,9.4,6.5l3.4-3.5l-5-6.5C366.1,694.9,363.3,691.9,362.6,691.7z M450.2,695.6
		c-0.7,0-5,5-6.5,7.6c-1.4,2.4,0.3,5.2,4.7,7.8c7.3,4.3,14.2,2.8,16.4-3.4c1.2-3.4,1.4-3.3-7.6-8.5
		C453.7,697.1,450.6,695.5,450.2,695.6z M393.4,700.2l-3-2.6l-4.7,3.1c-2.6,1.7-4.7,3.5-4.7,4.1c0,2.6,4.3,9.5,6.6,10.8
		c4.5,2.4,9.9,1.7,13.4-1.6c1.6-1.6,3-3.2,3-3.7c0-0.4-1.7-2.3-3.7-4.2C398.2,704.3,395.1,701.6,393.4,700.2z M425.3,702.7l-6.2-4.2
		l-4,4.7c-2.3,2.5-4.1,4.9-4.1,5.3c0,1.3,9.4,6.9,12.6,7.5c2.2,0.5,4.1-0.2,7.7-2.5l4.9-3.1l-2.4-1.8
		C432.6,707.6,428.7,705,425.3,702.7z M472.4,708.5c-0.5,0-4,2.9-7.9,6.4l-7,6.4l2.9,3.1c5.3,5.5,10.7,3.8,15-4.6
		c2.1-4.2,2-7.6-0.2-9.6C474.2,709.2,472.9,708.5,472.4,708.5z M375.1,710.5c-2.5,0-2.8,4.7-0.7,8.9c1.6,3,8,9.1,9.7,9.1
		c1.7,0,7-3.1,6.7-3.9c-0.2-0.4-3.6-3.7-7.6-7.4C379.1,713.5,375.5,710.5,375.1,710.5z M434.2,717.7c-5.2,4.2-6.1,5.4-5.6,7.2
		c3.7,11.5,15.7,10.9,19.9-1.1c1.4-3.7,1.4-3.8-1.8-6.6C441.1,712.3,441,712.3,434.2,717.7z M408.8,713.5c-1.1,0-8.8,8.8-8.8,10
		c0,2.3,3.7,7.7,6.1,9c5,2.7,14-2.4,13.8-7.9c0-1.9-1.4-3.7-5.4-6.9C411.5,715.4,409,713.5,408.8,713.5z M453.8,726.5
		c-0.2,0-1.8,2.3-3.6,5.1l-3.4,5.1l3.2,3.3c6.7,6.9,12.2,6.8,18-0.5l3-3.8l-8.5-4.6C457.8,728.6,453.9,726.5,453.8,726.5z
		 M395.1,729.5c-0.5,0-8.6,4.5-9.9,5.5c-0.9,0.7,3.5,8.9,6,11c4.6,3.9,10,3.5,14.6-1.1c2-2,3.1-3.9,2.6-4.3c-0.5-0.5-3.6-3.2-6.8-6
		C398.3,731.8,395.4,729.5,395.1,729.5z M423.5,730.5c-0.2,0-2.2,2.2-4.4,4.9l-4.1,4.9l5.1,3.1c7.4,4.6,10,4.9,15.4,1.5
		c2.5-1.6,4.4-3.3,4.2-3.8c-0.2-0.5-3.8-3.1-8.1-5.8C427.3,732.7,423.7,730.5,423.5,730.5z M446.5,744.9c-0.5-0.2-5.4,2.2-10.8,5.2
		l-9.9,5.6l2.7,2.8c4.4,4.6,7.8,5.6,11.7,3.3c4.3-2.5,7.9-8.8,7.6-13.2C447.6,746.7,447.1,745,446.5,744.9z M414.7,745.5
		c-1.5,0-16.7,10-16.7,11c0,1.7,8.2,8,10.4,8c1.5,0,3.8-1.6,6.5-4.5c4.5-4.9,5.2-8.4,2.5-12.3C416.6,746.5,415.3,745.5,414.7,745.5z
		 M470.8,746.6c-2.7,0.3-13.2,4.7-13.6,5.7c-0.4,1.2,8.6,5.4,9.9,4.6c1.1-0.7,4.9-7.9,4.9-9.4C472,747,471.4,746.6,470.8,746.6z
		 M460.3,760.1l-8.1-4.4l-3.6,5.4l-3.6,5.3l3,3.5c4.1,4.6,7.9,6.1,12.3,4.7c4-1.4,7.4-4.7,7.9-7.9
		C468.5,764.8,467.3,763.8,460.3,760.1z M393.3,761.5c-1.9,0-6.3,7.2-7,11.3c-0.4,3-0.2,3.7,2.1,5.2c3.4,2.3,8.1,1.4,13.7-2.7
		l4.3-3.1l-6-5.3C397.2,764,393.9,761.6,393.3,761.5z M422.1,761.5c-0.4,0-2.2,1.8-4,4c-3.6,4.5-3.3,5.9,2,10.4
		c4.2,3.6,10.6,3.6,14.8,0c1.7-1.4,3.1-3.2,3.1-3.9s-3.4-3.4-7.5-5.9C426.3,763.6,422.6,761.5,422.1,761.5z M442.9,774.5
		c-1,0-3.9,4.7-3.9,6.3c0,0.8,1.3,3.2,3,5.5c5,7,14.1,6.8,17.5-0.5c0.9-1.9,1.5-3.6,1.3-3.8c-0.1-0.1-4.1-1.9-8.7-3.9
		C447.4,776.1,443.3,774.5,442.9,774.5z M409.6,776.3c-3.7,3.6,7,16.2,13.8,16.2c1.7,0,8.4-5.5,7.6-6.3
		C429.6,784.8,410.1,775.8,409.6,776.3z M385.4,784.6c-0.7,1.2,4.3,6.9,6.1,6.9c2,0,9.6-6,9-7C399.7,783.1,386.3,783.2,385.4,784.6z
		 M466.2,786.5c-0.4,0.1-2.4,2-4.5,4.5c-6.3,7.4-11.9,7.8-20.7,1.5l-2.9-2.1l-6.7,3.6c-9.6,5-11.2,4.8-21.1-2.7l-5.1-3.9l-4.2,4.5
		c-2.3,2.4-5.4,4.8-7,5.1c-3.5,0.8-7.8-1.3-11.3-5.5c-3.1-3.7-4.2-3.7-6.4-0.4c-1.7,2.7-1.7,2.7,2,5.9c10.1,8.8,25.8,13.5,47.5,14.2
		c21.3,0.8,36.8-2.1,48.6-9.1c4.3-2.5,10.3-8.2,9.5-9c-0.2-0.3-4.2-1.9-8.7-3.5C470.6,787.9,466.6,786.5,466.2,786.5z M313.4,803.4
		c7.1,7.4,24.6,11.4,40.7,9.2c10.8-1.4,23.2-5.8,23.7-8.4c0.4-2,1-2-12.8,1.3c-21.7,5.2-37.5,4.2-49.8-3
		C310.6,799.8,310.1,800,313.4,803.4z M544,802.5c-0.8,0.6-5.1,2.2-9.5,3.6c-10.6,3.5-23.3,3.6-35.5,0.4c-14.1-3.7-18-4.1-18-2
		c0,1.2,11.2,5.7,17.6,7.1c9.2,2.1,28.6,1.6,36.2-0.9c6.2-2,13.2-6.4,13.2-8.3C548,801.2,545.9,801.3,544,802.5z M310.6,810.3
		c-0.3,0.5,0.8,2.7,2.4,4.9c2.6,3.5,3.8,4.2,9.2,5.4c4,0.9,11.9,1.4,21.3,1.3c13.6,0,15.7-0.3,22.5-2.7l7.5-2.7l-8.5,0.8
		c-4.7,0.4-13.7,0.7-20,0.7c-11.9-0.1-19.6-1.8-29.2-6.6C311.6,809.2,311.3,809.2,310.6,810.3z M479.6,811.6
		c-2.5-1.1-4.6-1.6-4.6-1.1c0,1.5,11.1,6.7,19.2,9.1c14.1,4,41.6,3.5,49.3-0.9c2.7-1.6,5.6-7.4,4.3-8.7c-0.2-0.2-4,1.1-8.3,3
		c-14.2,6.1-30.7,7-47.6,2.6C487.7,814.4,482.2,812.6,479.6,811.6z M385.3,816.7c-5.6,2.7-14.6,6.1-20,7.5c-9,2.5-11.3,2.7-28,2.6
		c-10.1,0-18.3,0.3-18.3,0.7c0,0.4,1.9,2,4.1,3.6c3,2.1,5.9,3,10.3,3.5c9.9,1,24.2-0.7,34.7-4c9.3-3,23.5-10.8,27.3-15
		C399.2,811.4,395.4,811.8,385.3,816.7z M464.8,812.5c-3.7,0-2.5,2.1,3.4,6.3c15.3,10.8,30.9,15.8,50.8,16
		c9.3,0.2,12.1-0.1,14.7-1.6c3.3-1.7,7-6.3,6.1-7.3c-0.3-0.3-3.4,0-6.9,0.6c-19,3-38.5,0.1-55.5-8.4
		C471.4,815,465.7,812.5,464.8,812.5z M409.5,814.6c-3.3,0.3-7.3,2.3-13.2,6.8c-12.8,9.6-30.7,16.5-46.1,17.8
		c-9.7,0.8-8,2.5,3.1,3.1c17,0.9,38.1-8.3,52.2-22.7C408.2,816.8,410,814.5,409.5,814.6z M436,817.5c0,2.1,10.6,11.5,17.3,15.4
		c5.1,3,17.7,7.9,17.7,6.8c0-0.4-6.4-5.6-14.1-11.6C442.6,817,436,813.7,436,817.5z M452.5,815.5h-2.9l3,3.1
		c8.6,9.2,25.7,19.2,38,22.3c7.3,1.9,19.1,2.1,23.1,0.4c2.6-1.1,2.3-1.2-4.7-2c-16.6-1.8-35.1-9.2-47.8-19.3
		C457.3,817,454.4,815.5,452.5,815.5z M410.5,822.5c-1.6,1.7-7.9,6.3-13.8,10.2c-5.9,3.9-10.6,7.3-10.3,7.5c0.8,0.8,7.8-1.8,16-6
		c7.3-3.8,20.6-14.6,20.6-16.8C423,814.6,414.7,818,410.5,822.5z"/>
	<path d="M349.2,380.8c7.9,15.6-7.2,35.3-24.2,31.6c-7.7-1.6-11.8-5.2-19.5-16.6c-0.1-0.2-3.2,0.6-6.9,1.6l-6.7,1.9l0.3-2.1
		c0.3-2.1,1.8-3.1,8.3-5.7c3.4-1.4,2.9-1.7-5.4-3.4c-3-0.6-5.6-1.6-5.8-2.2c-0.5-1.6,5.9-2.6,11.1-1.9c2.4,0.4,4.6,0.3,4.9-0.2
		c0.4-0.5-2.1-2.9-5.3-5.2c-3.3-2.3-6-4.8-6-5.7c0-2.9,3-2.6,8,1c2.7,2,5.4,3.6,5.8,3.6c0.5,0,2.1-1.4,3.8-3.1c3-3.2,6.9-5.6,11.4-7
		C330.9,364.9,344.6,371.9,349.2,380.8z"/>
	<path d="M519.1,366.5c3.5-0.1,11.8,3.2,15.9,6.2c2.4,1.8,4.8,3.7,5.5,4.2c0.8,0.6,3.2-0.5,7.2-3.2c4.5-3.1,6.3-3.8,7.2-2.9
		c2,2,1.2,3.2-4.9,7.6c-3.3,2.3-5.8,4.7-5.4,5.2c0.4,0.7,2.8,0.8,6.4,0.4c5.6-0.7,10,0.4,10,2.4c0,0.5-2.5,1.2-5.7,1.6
		c-9.8,1.2-10.2,1.7-3.4,5c9.5,4.5,7.8,7.1-2.5,4c-2.7-0.8-5-1.5-5.1-1.5s-0.9,1.3-1.8,3c-2.4,4.6-7.5,9.9-11.4,11.9
		c-5.9,3-9.6,3.4-15.8,1.6c-15.1-4.4-21.8-21.2-13.6-34.3c3.2-5.2,6.3-7.7,11.9-9.7C515.7,367.2,518.2,366.6,519.1,366.5z"/>
	<path d="M437.4,423.3c-2.9,4.9-7.6,8.2-11.7,8.2c-6.7,0-13.8-6.4-15.3-13.7c-1.1-5.3,1.4-4.7,7.9,2.1c3.4,3.6,7,6.6,7.9,6.6
		c2.1,0,7.8-4.8,7.8-6.5c0-0.7,1.2-2.7,2.6-4.4C441.7,409.5,442.2,415,437.4,423.3z"/>
	<path d="M657,337.5c0,10.5-8.7,19.2-19.2,19.3c-13.1,0.1-23.5-12.5-19.8-24c2.5-7.8,8.2-12.8,16-14.3
		C645.7,316.3,657,325.6,657,337.5z M623,334.1c-1.6,4.8,0.9,11.4,5.7,15.1c4.5,3.5,11.8,3.8,16,0.7c9.1-6.7,9.6-18.5,1.1-24.6
		C637.5,319.4,626.4,323.7,623,334.1z"/>
	<path d="M221.3,320.9c5.9,2.4,11.7,11.1,11.7,17.6c0,9.6-10.2,19.9-19.8,20c-14,0.1-24.1-16.4-17.7-29c1.7-3.3,6.4-7.6,9.5-8.9
		C208.7,319.2,217.6,319.3,221.3,320.9z M199.4,332.7c-4.6,8.9,3,20.2,13.6,20.2c3.5,0,5.9-0.6,7.8-2c9.3-7,9.4-17.9,0.2-24.5
		C213.9,321.3,203.8,324.3,199.4,332.7z"/>
</g>
</svg>
