<?xml version="1.0" encoding="utf-8"?>
<!-- Generator: Adobe Illustrator 21.0.0, SVG Export Plug-In . SVG Version: 6.00 Build 0)  -->
<svg version="1.1"
	 id="svg82" inkscape:version="0.92.2 5c3e80d, 2017-08-06" sodipodi:docname="30 #18221.svg" xmlns:cc="http://creativecommons.org/ns#" xmlns:dc="http://purl.org/dc/elements/1.1/" xmlns:inkscape="http://www.inkscape.org/namespaces/inkscape" xmlns:rdf="http://www.w3.org/1999/02/22-rdf-syntax-ns#" xmlns:sodipodi="http://sodipodi.sourceforge.net/DTD/sodipodi-0.dtd" xmlns:svg="http://www.w3.org/2000/svg"
	 xmlns="http://www.w3.org/2000/svg" xmlns:xlink="http://www.w3.org/1999/xlink" x="0px" y="0px" viewBox="0 0 850 850"
	 style="enable-background:new 0 0 850 850;" xml:space="preserve">
<style type="text/css">
	.st0{fill:none;}
	.st1{fill:#E9967A;}
	.st2{fill:#0000FF;}
	.st3{fill:#00FA9A;}
	.st4{fill:#CD5C5C;}
	.st5{fill:#008000;}
	.st6{fill:#1E90FF;}
	.st7{fill:#32CD32;}
	.st8{fill:#8B008B;}
	.st9{fill:#FF4500;}
	.st10{fill:#FFFF00;}
</style>
<sodipodi:namedview  bordercolor="#666666" borderopacity="1" gridtolerance="10" guidetolerance="10" id="namedview84" inkscape:current-layer="svg82" inkscape:cx="965.10075" inkscape:cy="691.52334" inkscape:pageopacity="0" inkscape:pageshadow="2" inkscape:window-height="978" inkscape:window-maximized="1" inkscape:window-width="1920" inkscape:window-x="0" inkscape:window-y="1" inkscape:zoom="0.41647059" objecttolerance="10" pagecolor="#ffffff" showgrid="false">
	</sodipodi:namedview>
<g id="g80" transform="translate(0.000000,0.000000) scale(1.00000,1.00000)">
	<path id="path4" class="st0" d="M0,0h425h425v188.1v188l-2.2-1.5c-5.5-3.8-27.5-0.5-35.8,5.4c-1.5,1.1-3.2,2-3.8,2
		c-2.5,0-16,14.3-22.3,23.7c-3.8,5.6-6.9,10.5-6.9,10.7c0,1-12.4,21.2-16,26.1c-5,6.8-6.6,8-10.9,8c-3.1,0-4.8-1-9.7-5.2
		c-8.2-7.3-16.3-16.9-31.7-37.8c-14.7-19.9-20.3-25.9-32-34.3C664,362.6,639.6,348,636.6,348c-0.6,0-2-0.6-3.1-1.4
		c-3.4-2.3-25.6-8.7-34-9.6c-4.4-0.6-11.7-1-16.3-1H575l4,5.9c6,8.8,8,16.3,7.1,26.5c-0.1,0.5-2.3-2.4-5-6.5
		c-6.1-9-10.7-13.7-18.5-18.3c-8.1-4.9-9.4-4.6-5.6,0.9c3.8,5.6,8.6,15.8,9.5,20.5l0.8,3.5l-4.4-3.8c-15.9-13.5-19.5-16.1-25.2-17.9
		c-3.2-1-7.8-1.8-10-1.8h-4.2l5,4.6c2.8,2.5,7.9,7.4,11.5,10.8c9.6,9.3,15.1,20.5,7.5,15.2c-1.1-0.7-3.1-1.7-4.5-2.1
		c-7.2-2.2-10.9-4.8-14.5-10.2c-8.3-12.5-25.5-31-38.5-41.3c-9.1-7.2-23.4-15.5-34.3-20c-45.5-18.7-100.7-0.6-148.8,48.7
		c-13.7,14-35.2,40.2-43.3,52.8c-5.2,8.1-22.7,23.2-34.6,29.9c-20.7,11.6-37.4,17.7-85,31.1c-5.2,1.4-12.9,3.7-17,5.1
		c-4.1,1.4-9.9,3.2-12.9,4c-3,0.8-7.5,2.4-9.9,3.4c-2.5,1.1-5,2-5.6,2c-1.2,0-12.1,4.3-22.1,8.7c-12.1,5.4-25.8,14.6-35.3,23.8
		c-15.5,14.9-25,31.3-28.3,49.3c-1,5.8-1.9,12.4-1.9,14.6c0,5.1,2.2,19.6,2.9,19.6c0.3,0,1.9-3.7,3.5-8.3
		c5.4-15.6,13.7-26.3,28.7-37c6.1-4.3,16.9-10,17.6-9.3c0.2,0.2-1.7,4.8-4.2,10.2c-8.5,18.2-11.4,28.2-12.1,41.3
		c-0.3,6.8-0.1,14.9,0.6,19.6c0.6,4.4,1.5,14.3,1.9,22c1.7,28.6,8.2,45.5,26.8,68.7c5.6,7,6.5,10.5,4,14.3
		c-0.8,1.1-3.3,7.6-5.7,14.5c-3.5,10.3-4.3,14.2-4.7,22.1c-1.3,25.1,6.3,52.6,19.1,69.6c6,7.9,19.6,20.6,26.1,24.4l5,2.9H60.3H0V425
		V0z"/>
	<path id="path6" class="st1" d="M421,298.5c19.2,0.5,32.4,4.5,53.4,16.4c11.6,6.6,31.1,24.6,44.2,40.8c4.1,5.1,7.9,9.5,8.4,9.8
		c2.8,1.7,0.5,3.3-6.2,4.4c-15,2.5-19.3,3.6-19.3,5.1c0,0.9,2.2,1.7,7,2.6c3.9,0.6,10.3,2.2,14.3,3.4c5.9,1.8,7.5,2.8,8.7,5.1
		c3,5.7,7.1,6.8,44,11.9c20.6,2.9,25.9,3.8,33.7,6.2c7.5,2.2,17,7.6,22.3,12.6c4.5,4.4,10.2,12.9,11,16.7l0.6,3l-3-3.4
		c-4-4.5-5-3.4-1.6,1.8c2.4,3.9,9.8,18.7,10.1,20.3c0.1,0.5,0.2,1.2,0.3,1.7c0,0.5,2.5,4.5,5.5,8.9c5.3,7.8,5.4,8,2.7,7.2
		c-7.4-2.1-14.1-9.3-14.1-15.1c0-4-7.6-18.2-12.2-22.6c-4.1-4-11.8-8.3-11.8-6.5c0,0.4,2.5,3.2,5.6,6.2c5.2,5.1,12,15.5,12.9,19.7
		c4.1,18.6,4.2,20.6,2,30.1c-1.7,7.3-3.6,11.1-7.8,16.6c-3.4,4.3-14.6,13-15.6,12c-0.3-0.3,0.3-1,1.4-1.6
		c3.3-1.9,10.6-9.1,12.1-11.9c3-5.9,1.1-5.3-7.1,2.2c-7.5,6.7-12.8,10.3-28.4,19.1c-5.8,3.3-12.1,6.9-14,8.1l-3.3,2l1.1-2.1
		c0.6-1.2,9.2-10.4,19-20.4c9.8-10.1,18.4-19.4,19-20.6c2.6-4.8-0.1-3.4-6.4,3.5c-11.3,12.4-29.5,19.7-49,19.6
		c-11.9,0-32.5-3.8-32.5-5.9c0-1.6-6.9-1.8-14-0.4c-7.1,1.3-7,1,2.9-7.3c4-3.3,3.6-4.3-1.1-2.4c-6.7,2.8-15.4,12.6-13.1,14.7
		c0.4,0.4,5.2,0.5,10.6,0.1c5.4-0.3,10-0.3,10.3,0c0.6,1.1-3.8,4.5-11.9,9.3c-4.3,2.5-8.1,4.6-8.3,4.6c-0.5,0-11.2,4.9-22.1,10.2
		c-12.3,5.9-12.8,6.9-12.9,24.8c-0.1,8-0.2,15-0.3,15.7c-0.1,1.6-6.5,3.3-12.4,3.3c-5.9,0-10.3,2.1-11.1,5.5
		c-0.4,1.5-1.3,2.5-2.4,2.5c-3.6,0-19.9-5.2-24.9-8c-6.2-3.5-6.5-3.3-8.3,6.8l-1.3,7.3l-6.1,3.6c-3.4,2-6.9,4.3-7.8,5.1
		c-1,0.8-3.5,1.5-5.7,1.6c-3.6,0.1-4.7-0.5-9.1-4.9c-4.9-4.8-12.4-17.5-13.3-22.5c-0.3-1.4-1.2-5.2-2-8.5
		c-1.9-7.3-3.6-16.7-4.1-22.6c-0.2-2.4-1.4-10.3-2.6-17.4c-1.4-8.3-2-14.9-1.6-18.2c0.8-7.2,4.3-15.8,7.1-17.3l2.2-1.2l-3.3-9.4
		c-1.8-5.1-3.1-10-2.8-10.9c0.5-1.2,2.4-1.5,9-1.5c4.6,0,8.4,0.2,8.4,0.6c0,0.3-1.1,2.2-2.5,4.2c-2.6,3.8-3.3,7.2-1.5,7.2
		c0.6,0,1-0.7,1-1.6c0-2,7.9-9.4,10.1-9.4c1.5,0,3.3,3.7,5.5,11c1.3,4.7,10.6,16,13.1,16c1.9,0,3.4-3.5,4.3-10.2
		c1.5-10.3,6.6-13.2,18.9-10.4c10.9,2.5,21.3,3.1,29,1.6c6.1-1.1,7.1-1.1,11.2,0.7l4.4,1.9l-4.4,1.5c-7.9,2.7-6.1,3.6,7.6,4.2
		c13.2,0.5,22.6,2.8,32.2,7.7c3.5,1.8,3.9,1.8,3.7,0.2c-0.1-2.3,4.2-2.7,8.9-0.8c4.9,2.1,7.9,2,33.5-0.5c18.6-1.8,22.1-2.4,25.7-4.5
		c4.5-2.6,8.3-7.4,4.7-6c-1.1,0.4-4.6,1.4-7.9,2.1c-3.3,0.7-8.7,2-12,2.8c-16.7,4.4-40.2,4.1-62.3-0.9c-17.3-3.8-28.4-8.9-46.2-20.9
		c-5.7-3.9-13.2-8.9-16.7-11.1c-3.5-2.3-7.2-4.9-8.3-5.9c-1-0.9-5.3-3.4-9.7-5.6l-7.8-4l4.5,0.5c12,1.4,14.6,1.9,22.3,4.6
		c4.5,1.6,13.6,5.4,20.1,8.4c19.4,9.2,15.2,4.7-5.2-5.4c-7.3-3.7-15.5-6.8-21.7-8.4c-11.1-2.8-26-4.8-31.5-4.1
		c-1.9,0.2-6.2,0.7-9.5,1l-5.9,0.6l2.3-2.5c4-4.3,17.7-10.3,26.4-11.7c12.4-1.9,37.1,0,59.8,4.6c15.9,3.2,29.9,3.4,39,0.5
		c6.2-1.9,10.7-4.5,9.8-5.4c-0.2-0.3-3.6,0.4-7.4,1.5c-8.1,2.3-27.9,3.7-28.9,2.1c-0.3-0.6,1.3-1.8,4-2.8c5.9-2.2,9.4-5,9.4-7.5
		c0-2.4-0.8-2.4-3.4,0c-3.5,3.3-12.8,7.4-17.8,7.9s-12.9-0.7-26.8-4.1c-6.4-1.5-12-2.1-23-2.1c-15.3-0.1-19.6,0.8-33.5,6.9
		c-5.3,2.3-15.9,11.9-16.7,15.2c-0.5,1.9,0,2,13.1,1.9c13.2-0.1,13.8,0,21.5,3.2c7.6,3.1,16.1,7.9,23.7,13.2
		c7.7,5.4,20,15,20.2,15.7c0.4,1.5-8.7,2.1-18.3,1.3c-9.7-0.8-22-4.2-31.6-8.6c-2.9-1.3-5.6-2.4-6-2.4s-4.2-1.3-8.3-3
		c-18-7-21.8-8.3-27.1-9c-3-0.4-6.2-0.4-7,0.1c-0.8,0.5-1.2,0.9-0.9,0.9c0.4,0,6.5,2.1,13.5,4.6c7.1,2.5,15.8,5.5,19.2,6.6
		c3.5,1.1,6.2,2.2,5.9,2.4c-0.3,0.3-6,0-12.8-0.6c-28.3-2.6-52.4,3-65.1,15.3c-9.4,9.1-16.1,18.7-13,18.7c0.4,0,1.8-1.6,3.1-3.6
		c5.7-8.4,19.9-19.1,29-21.9c2.2-0.7,1.9-0.1-2,4.6c-9.5,11.4-12.5,16.5-16.6,28.4c-2.2,6.1-4.4,23.9-2.8,22.4
		c0.4-0.5,3.1-10.1,5.5-19.9c2.3-9,11.7-24.6,19.2-31.6c9.6-9.1,13.3-10.5,14.4-5.7c0.4,1.6,1.8,5.3,3.1,8.3c3.2,7,3.1,8.1-0.5,16
		l-3.1,6.5v-6.3c-0.1-6.6-1.4-8.3-2.5-3.1c-1.7,8.5-0.7,17.4,5.6,50.6c2.6,13.4,3.3,42.1,1.2,45.7c-1.1,1.8-1.4,1.5-4-3.4
		c-9.8-18.2-14.3-29-17.5-41.9c-1.3-4.9-2.6-8.8-3.1-8.5c-1.5,0.9-0.8,6.8,1.7,14.9c1.4,4.4,2.5,8.7,2.5,9.5
		c0,0.9,6.4,14.6,14.3,30.6c14.3,29.4,19.4,41,18.2,42.2c-1.7,1.7-19.1-10.2-29.4-20.1c-18-17.3-30.2-41.9-31.7-64.1
		c-0.3-4.5-0.8-9-1.1-10.1c-0.6-1.8-0.7-1.8-1.4,0.5c-1.2,4.2-0.9,13.2,0.6,20.5c0.9,3.8,1.8,8.3,2.1,10c0.3,1.6,2.9,7.9,5.9,14
		c9.8,19.9,30.1,40.8,58.3,59.8c16.6,11.3,21.2,15.3,28.4,25.2c3.2,4.4,6.3,8.6,7,9.4c1.2,1.4,4.8,11.5,4.8,13.5
		c0,0.5-1.7-0.6-3.7-2.5c-6-5.6-15.2-12.4-22.3-16.4c-14.9-8.4-39.2-15.7-58-17.5c-12.5-1.2-18.1-2.3-24.7-4.8
		c-6.1-2.3-16.4-9.2-21.8-14.6c-9.9-10-23.3-30-35.8-53.6c-8.3-15.7-16.7-25.1-26.9-30.3c-5.3-2.6-12.8-3.7-12.8-1.8
		c0,0.5,2.3,1.7,5,2.7c2.8,1,5,2.1,5,2.4c0,0.3-4.4,1.4-9.7,2.4c-10.6,2-21.7,5.8-30.8,10.8c-7.5,4-18.7,14.6-22.5,21.3
		c-4.2,7.3-3.9,10.3,0.4,4c4.9-7.3,16.1-17.6,24.2-22.3c6.8-4,18.1-8.2,27.2-10.3c7.4-1.6,18.8-1.4,21.6,0.5c3,1.9,3.4,3.6,0.9,3.6
		c-3.6,0-20.2,9.1-25.7,14c-5.8,5.4-13,16-16.5,24.5c-5.1,12.4-6.2,28.1-3.5,46.5c0.9,5.8,1.6,11.2,1.6,12s1.1,5.8,2.5,11
		c1.4,5.2,2.9,10.8,3.3,12.5c1,4.2,14,42.6,15.2,44.8c0.5,1,1.1,2.8,1.3,4c0.3,1.2,0.9,3.1,1.5,4.2c1.7,3.4,8,22.3,8,24.1
		c0,2.5-13.3,15.7-21.1,20.9c-7.7,5.2-20.2,11.2-31.1,15c-7.7,2.7-9.6,2.7-5.1-0.1c9.1-5.6,14.5-9.8,22.2-17.2l8.6-8.3l-7,4.7
		c-3.8,2.7-10.8,7.6-15.5,11c-9.9,7.3-24.8,15.1-30.5,16l-4,0.5l8-7.5c4.4-4.2,12.1-10.4,17-13.8c11.4-7.9,17.7-13.7,22.7-21.1
		c4.5-6.6,10.3-18.5,9.5-19.4c-0.3-0.3-2.6,2.6-5,6.4c-4.4,6.9-12.5,14.7-34.2,33.3c-15,12.9-24.1,21.7-28.1,27.6
		c-2,2.9-4.1,5.1-4.7,4.7c-1.7-1.1,0.1-15.4,3.2-24.8c1.6-5,4.6-13,6.6-17.9c2-4.8,3.4-9,3.1-9.3c-2.6-2.7-12.7,19.5-15.3,33.7
		c-2.9,15.7-1.3,34.1,3.9,44.8c1.1,2.4,1.8,4.6,1.5,4.9c-1.1,1-10.2-6.5-19.2-15.9c-6.7-6.9-10.3-11.7-14.1-18.8
		c-5.8-10.8-10-22.7-11.1-31.5c-1-7.6-1-29.9-0.1-34.5c0.7-3.5,7.8-23.7,11.8-34c1.2-3,3.3-8.4,4.6-11.8c1.4-3.5,3.4-8.4,4.5-10.9
		c1.1-2.5,2.2-5.3,2.4-6.2c0.2-0.9,1.4-4.8,2.8-8.6c4.2-11.9,7-30.3,6.2-40.1c-0.5-6.6-1-8.4-2.2-8.4c-1.3,0-1.5,1-0.9,5.7
		c1.1,10.7-0.9,25.7-5.3,38.7c-2.2,6.6-5.4,14.7-7,18l-2.9,6.1l-0.1-7c-0.2-16.9-3.9-33.1-7.7-34.2c-1.2-0.4-1.3-0.7,2.6,17.2
		c2.4,10.8,2.4,26.1,0.1,31.9l-1.2,2.9l-5-4.9C72.3,693,61,674.1,59.5,667c-0.2-0.8-1.3-4.4-2.5-8c-4.6-13.6-4.6-43.6,0-58
		c1.2-3.6,2.3-7.6,2.6-8.9s1.1-3.6,1.9-5.2c0.8-1.5,1.5-3.5,1.5-4.4c0-2.5-2.7-1.7-3.4,1c-0.4,1.4-1.8,5-3.1,8
		c-1.4,2.9-2.5,6-2.5,6.7c-0.1,0.7-0.8,2.4-1.6,3.8c-1.4,2.3-1.5,1.6-1-9c0.4-11.9,2.2-21.4,5.7-30.3c2.1-5.4,9.5-20.2,11-22.1
		c0.5-0.6,3.6-4.8,7-9.4c3.4-4.5,8.5-10.3,11.3-13c4.6-4.1,23-17.4,31.3-22.4c13.1-8.1,14.7-9.3,13.2-9.6c-1.8-0.3-9.4,3.2-19.7,9.1
		c-11.3,6.5-24.9,17.5-34.4,27.9c-5.2,5.6-12.1,11.9-15.8,14.3c-9.5,6.2-24.2,14.7-24.6,14.2c-0.3-0.2,2.1-3.5,5.1-7.2
		c3.1-3.7,5.3-7,5.1-7.3c-1.1-1-11.6,9-16.3,15.5c-2.6,3.7-7.4,12-10.5,18.3L14,582.5v-6.6c0-9.4,4.1-24.6,9.7-35.7
		c7.7-15.3,22.2-30.5,39.3-41.2c8.8-5.5,23.5-12.7,30.5-15c2.2-0.7,4.5-1.6,5-2c0.9-0.7,18-6.1,36.5-11.6c4.7-1.4,12.8-3.8,18-5.4
		c5.2-1.6,14.2-4.4,20-6.1c15.8-4.9,31.3-9.8,33.5-10.8c7.9-3.5,20.4-9.7,22.5-11.1c1.4-0.9,5.2-3.4,8.5-5.6
		c3.3-2.1,7.9-5.7,10.3-7.8c2.3-2.1,4.4-3.7,4.7-3.4c1.3,1.3-19,27.5-29.3,37.5c-4.6,4.6-8.1,8.3-7.7,8.3c1.3,0,15.1-10.9,18.6-14.6
		c5.5-6,12.5-15.4,25.2-33.9c24-35,37.4-52.2,52.7-67.6c24.8-25,53.1-42,80.5-48.3c6.1-1.4,11.9-2.7,13-3
		C406.6,298.3,413.6,298.3,421,298.5z M299.2,470.9c-1.2,2.1-2.2,4.5-2.2,5.2c0,1.6,5.9-6.2,6-7.9C303,465.9,301.4,467,299.2,470.9z
		 M487.2,501.1c-0.4,0.1-5.9,0.7-12.2,1.5c-6.3,0.7-16.2,2-22,2.9c-5.8,0.8-12.6,1.5-15.2,1.5c-5.2,0-6.7,1.2-4.1,3.2
		c2.9,2.1,6.9,8,8.2,12c1.4,4.2,11.2,13.8,14,13.8c3.7,0,16.8-8.6,24-15.7c4-4,7.7-7.3,8.2-7.3c0.6,0,3.2,1.2,6,2.6
		c5.1,2.6,8.1,2.5,4.5-0.2c-1.1-0.8-1.4-1.4-0.8-1.4c2.6,0,0.9-1.8-4.8-5.2c-4.2-2.5-5.6-3.8-4.8-4.6c0.5-0.5,0.7-1.5,0.4-2.1
		C488.2,501.5,487.6,501,487.2,501.1z M200,536.7c-6.7,0.9-5,1.9,3.2,2c10.3,0.2,21.6,2.7,26.4,5.9c2,1.4,3.8,2.3,4.1,2.1
		c0.9-1-6.6-5.8-11.9-7.6C215.8,537.1,205.7,535.9,200,536.7z M243.5,541c-1.6,0-1.2,2.6,1,7c1.4,2.7,2.3,5,2,5
		c-0.3,0,0.5,2.1,1.8,4.7c1.4,2.7,3,6.5,3.6,8.5c0.7,2.1,1.9,3.8,2.7,3.8c0.8,0,1.4-0.3,1.4-0.8c0-1.8-5-14.4-8.3-21
		C245.6,544.3,243.8,541,243.5,541z M156,567.4c-5.3,3.9-19,18.1-19,19.7c0,1.3,10.7-8.1,19.5-17C163.1,563.4,162.9,562.3,156,567.4
		z M263.7,590c-0.4-0.8-0.5,0.5-0.2,2.9c0.5,4.5,5.3,14.2,7.3,14.9c0.7,0.2-0.5-3.4-2.6-8C266,595.2,264,590.8,263.7,590z"/>
	<path id="path8" class="st2" d="M482.4,508.9c0.7,1.1-2.7,2.1-7,2.1c-3.1,0-5.3,0.9-10.2,4c-3.3,2.1-6.4,7.5-7.7,13.3l-1.1,4.9
		l-4.4-3.4c-3-2.2-5.7-5.7-8.2-10.3c-2.1-3.9-3.8-7.3-3.8-7.6c0-0.3,3.9-1.1,8.8-1.8c4.8-0.7,9.2-1.5,9.7-1.6
		C460.9,507.7,481.9,508.1,482.4,508.9z"/>
	<path id="path10" class="st2" d="M469.8,515c1.4,0,0.7,1.1-6.1,10.5l-3,4l0.6-3.9c0.4-2.5,1.8-5.1,3.9-7.3
		C466.9,516.5,469,515,469.8,515z"/>
	<path id="path12" class="st3" d="M632.8,350.5c1.8,1.6,1.7,16.6-0.2,22.7c-0.8,2.7-1.2,4.8-1,4.8c1.2,0-6.7,13-10.5,17.3l-4.5,4.9
		l-5-0.6c-4.6-0.6-23.6-5.4-24.4-6.1c-0.2-0.2,0.3-2.6,1.2-5.4c3.5-11.7,3.1-25.5-1-36.4c-0.7-2-1.1-3.7-0.8-3.7
		c0.2,0-0.7-2-2.1-4.3c-1.4-2.4-2.5-4.7-2.5-5.2C582,335.1,627.8,346,632.8,350.5z"/>
	<path id="path14" class="st4" d="M577.7,363c5.9,8.7,9.2,25,6,29.4c-1.3,1.8-2.2,1.8-16.3,0.7c-8.2-0.7-16.4-1.7-18.3-2.3
		c-1.8-0.6-7.5-3.7-12.5-6.9c-5-3.3-10.8-6.4-12.8-7c-7.7-2-5.4-5.3,3.2-4.5c7.7,0.7,16.6,4.5,30.9,12.9l3.3,2l-0.7-2.4
		c-1.4-4.7-13.1-21.5-19.7-28.3c-3.8-3.8-6.8-7-6.8-7.2c0-0.2,1.5,0.2,3.3,0.8c6.3,2.2,14.5,7.8,19.5,13.3c7,7.6,12.6,17,13.1,21.7
		c0.1,0.5,0.5,0.8,1,0.8c0.4,0,1.1-2.2,1.4-4.8c0.8-6.8-2.5-21-6.3-27.8C559.6,342.2,568.8,349.8,577.7,363z"/>
	<path id="path16" class="st3" d="M651.9,359.7c7.1,4,10.3,6.5,10.7,8.1c0.9,3.4-4.1,18-8.3,24.3c-5.7,8.3-11.1,14.4-16,17.9
		c-4.3,3.2-4.4,3.2-7.2,1.3c-3.1-1.9-11.1-9-11.1-9.7c0-0.3,1.7-2.5,3.9-5c8.5-9.8,13.8-22.6,14-34c0.1-3.7,0.4-7.2,0.7-7.7
		C639.6,353.2,641.8,354,651.9,359.7z"/>
	<path id="path18" class="st3" d="M667.6,370c1.2,0,10.6,7.6,21.8,17.7c4.5,4,4.8,4.6,4.3,8.1c-0.7,5.9-5.7,15-11.4,21.2
		c-8,8.7-8.4,8.8-19.7,5c-5.3-1.7-13.5-4-18.2-4.9l-8.6-1.7l6.4-5.4c3.5-3,8.4-8,11.1-11.2c4.8-5.9,11.4-19.3,12.4-25.4
		C666,371.5,666.9,370,667.6,370z"/>
	<path id="path20" class="st3" d="M835.6,377.1c12.4-0.1,13,0.6,7.4,9.8c-2.3,3.9-4.7,7.4-5.3,7.9c-0.7,0.5-4.3,1.9-8.2,3.1
		c-12.4,3.8-26.1,16.4-40.2,36.9c-10.4,15.1-13.2,17.8-18,16.3c-1.5-0.5-4-1.2-5.5-1.5c-1.6-0.4-2.8-1-2.8-1.5s3.5-6.3,7.9-12.8
		c4.3-6.5,12.3-18.5,17.7-26.7c5.6-8.4,12-16.8,14.9-19.4c4.5-4,15.8-10.2,21-11.5C825.6,377.4,830.6,377.2,835.6,377.1z"/>
	<path id="path22" class="st0" d="M849.6,383c0.2,0,0.4,105.1,0.4,233.5V850H633.1H416.3l0.9-4.8c0.6-2.6,1.3-17.5,1.7-33.2
		l0.6-28.5l6.3-3.1c3.4-1.7,7.6-4.4,9.2-5.9c2.7-2.6,9.8-15.9,8.9-16.7c-0.2-0.2,1.1-2.4,2.9-5c3.3-4.8,6.2-13.9,6.2-19.3
		c0-5.2-2.9-14.7-5.6-18.3c-1.4-1.8-2.8-4.8-3.1-6.5s-1.2-4.5-2-6.2c-2.3-4.3-18.2-20.4-22.4-22.5c-5.3-2.8-9.9-6.9-13-11.8
		c-1.5-2.4-8.9-10-16.6-16.9c-7.6-7-14.3-13.4-14.9-14.2c-0.6-0.9-1.8-4.8-2.7-8.6c-1-3.9-2.9-9.3-4.3-12.2s-2.4-5.4-2.3-5.5
		c0.1-0.2-1.3-3.3-3.3-6.9c-3.3-6.3-3.4-6.8-2.7-13.5c0.4-3.8,1.3-8.2,1.9-9.9c1.1-2.9,1.1-2.9,5.5,6.3c5.2,11,12.6,19.2,17.3,19.2
		c4.2,0,9-1.9,15-5.8c3.7-2.5,6.7-3.6,10.5-4c5.9-0.5,6.3-0.9,7.2-6.8c0.3-2.4,1-4.6,1.5-4.9s3.5,1,6.6,3c9.9,5.9,19.4,5.7,19.4-0.4
		c0-4.7,3-6.1,13-6.1h8.5v12.3c0,13.8,1.4,18.2,8.1,26.4c4.1,5,12.7,11.7,16.4,12.8c4.8,1.4,5.1,2.3,1.9,7.3
		c-3.9,6.2-4.1,14.1-0.4,17.7l2.4,2.5l5.3-2.2c3.4-1.5,8-2.4,13-2.6l7.6-0.3l16.4,8.4c9,4.6,19.5,9.6,23.3,11
		c9.9,3.6,21.8,5.1,30.8,3.8c4-0.6,10.1-1.2,13.7-1.3l6.5-0.3l-0.3,10.5c-0.9,27.5,9.6,46.7,31.8,58c2.5,1.3,8.1,5.8,12.6,10.1
		c7,6.9,8.5,7.9,11.6,7.9c4.9,0,7.9-2.7,12.9-11.8c2.3-4.2,6.4-11,9.2-15.1c8.4-12.5,10-17,9.5-26.5c-0.4-7.2-0.9-9.2-5.2-17.8
		c-2.6-5.4-5.8-11.4-7.2-13.3c-1.3-2-3.3-5.3-4.3-7.3c-1.1-2-3.6-6.2-5.5-9.2c-2-3-3.6-6.1-3.5-7c0-0.8,3.2-3.5,7.1-6
		c10-6.4,17.7-13.7,25.6-24.3c7.6-10.1,17.2-26.3,17.2-28.9c0-0.9,0.4-1.9,0.9-2.2c0.5-0.4,2.1-3.9,3.6-7.9
		c1.5-3.9,3.4-8.5,4.1-10.1c0.8-1.7,1.7-4.3,2-5.9c0.2-1.7,0.9-3.9,1.5-4.9c0.6-1.1,1.9-4.4,2.9-7.3c2.2-6.3,4-9.1,17.2-26.5
		c13.6-17.7,14.9-18.5,33.3-18.5c12.9,0.1,13,0.1,21,3.9c4.4,2,8.9,4.6,10,5.7c3.1,2.8,7.8,3.5,9.9,1.3c1.6-1.6,1.7-3.2,1.2-15.8
		c-0.4-7.8-1.6-22.2-2.8-32.1c-2.3-20.5-2.1-37.1,0.7-47c1-3.3,1.7-6.6,1.8-7.3c0-0.8,2.7-6.6,6-13c3.3-6.5,7.6-14.7,9.4-18.5
		C847.6,386,849.3,383,849.6,383z"/>
	<path id="path24" class="st3" d="M698.1,398c1.5,0,10.6,10.8,11.3,13.4c0.7,2.7,0,3.7-8.6,12.3c-5.1,5.1-9.8,9.3-10.6,9.3
		c-0.7,0-3.5-1.1-6.2-2.5c-2.7-1.4-5.6-2.5-6.5-2.5c-0.8,0-1.5-0.3-1.5-0.6c0-0.4,3.4-4.2,7.5-8.5c4.7-5,8.7-10.3,10.7-14.4
		C696,400.9,697.7,398,698.1,398z"/>
	<path id="path26" class="st5" d="M832.5,400c2.3,0,2.3,0.1-1.7,11.2c-4.3,12.3-6.2,15.1-11.7,16.9c-6.6,2.1-12.2,6.1-23.9,17
		c-11.7,10.9-16.2,13.4-16.2,9c0-2.9,22.2-31.5,33.3-42.9c2.3-2.4,7.3-5.9,11.1-7.8C827.2,401.6,831.3,400,832.5,400z"/>
	<path id="path28" class="st3" d="M712.6,417c0.6,0,5.3,5.3,10.4,11.7c5.2,6.5,11.2,13.7,13.4,16c3.7,4,3.9,4.3,1.7,4.3
		c-6.9,0-29.6-7.1-40.3-12.6l-3.7-1.9l7.5-7.5c4.1-4.1,8-8,8.7-8.7C711,417.6,712,417.1,712.6,417z"/>
	<path id="path30" class="st6" d="M644.9,422c3.7,0,16.9,3.3,22.6,5.7c2.2,0.9,5.4,2.7,7.2,4c5.4,3.9,12.8,16.2,13.9,22.9
		c0.3,2.1,1,4.8,1.5,6.1c1.4,3.6,1.1,14.3-0.6,22.1c-2.2,10.7-11,28-20.3,40.2c-2.8,3.6-8.3,14.9-8.8,17.9c-0.3,1.4-1.4,3.4-2.6,4.4
		c-1.9,1.6-2.2,1.6-3.8,0.2c-2.8-2.5-5.2-13-5.1-22c0.1-4.4,1.3-16.6,2.8-27.1l2.6-19.1l4.1,0.7c15.5,2.8,16.5,2.1,7.7-5.1
		c-6.8-5.6-9.2-10.1-18.9-34.4c-2.2-5.6-4.3-11.5-4.7-13.3C641.9,422.1,642,422,644.9,422z"/>
	<path id="path32" class="st3" d="M823.4,438.2c-1,10.8-1.1,29.9-0.2,34.3l0.6,3l-12.6,0.1c-8.6,0-14.9,0.6-19.4,1.8
		c-3.7,1-7.2,1.5-7.8,1.1c-0.5-0.3-1-4.5-1-9.4v-8.8l6.3-5.9c9.8-9.3,22.2-19.5,27.4-22.5C824.2,427.5,824.3,427.6,823.4,438.2z"/>
	<path id="path34" class="st7" d="M687.5,436.1c5.2,3.1,11.9,13.1,14.5,21.8c2.1,6.9,2.2,8.1,1.1,16.7c-2.7,22.6-0.4,36.4,6.1,36.4
		c2.3,0,3.6-1.3,8.2-7.8c3-4.2,7.6-11.8,10.1-16.7c6-11.7,6.7-17.2,3.3-27.3c-1.4-3.9-2.2-7.4-2-7.7c0.7-0.7,5.5,2.1,7.9,4.7
		c3.2,3.5,4.4,9.5,3.7,19c-0.6,7.9-0.5,8.5,1.7,11.1c5.2,5.8,10.4,3.9,16.9-6.3c3-4.7,3.2-5.6,3.1-13.2c-0.1-4.5-0.4-9.2-0.7-10.5
		c-0.6-2.1-0.3-2.3,3.2-2.3c4.8,0,9.8,2.9,12.4,7.2c6,9.8-0.9,35.3-14.4,53.1c-1.7,2.3-5.3,7.2-7.9,10.9c-2.6,3.8-5.2,6.8-5.7,6.8
		c-2,0-7,5.4-8.1,8.8c-0.7,2-2.5,6.5-4.1,10s-3.1,7.1-3.3,8c-0.1,0.9-1,3.3-1.9,5.2c-0.8,1.9-4.6,11.4-8.4,21
		c-12.9,33.2-22.4,44.8-49.4,60.4l-4.8,2.8l-3-6.7c-1.6-3.7-3-6.8-3-7c0-0.2-2.3-5.2-5.1-11.2c-2.8-5.9-5.7-12.2-6.5-13.8
		c-0.7-1.7-1.8-5.4-2.4-8.3c-1.1-6.2-2-7.9-5.4-11.2l-2.7-2.4l2.6,6.7c3.1,8.3,3.3,17,0.6,24.2c-2.6,6.9-4.6,7.5-11.4,3.6
		c-3-1.7-6-3.8-6.8-4.7c-2.2-2.6-19.8-10.9-21-9.7c-0.6,0.6,1.3,2,5.9,4.1c10.1,4.7,10.5,5.4,9.9,15.9c-0.5,7.6-3.9,27.2-5.1,29.1
		c-0.2,0.4-0.7,2.4-1,4.5c-0.8,4.9-2.1,7.4-4.4,8.1c-14,4.5-23.3,5.3-36.8,3.1c-16.2-2.6-34.2-10.2-48.1-20.4l-4.2-3.1l-12.2,2.5
		c-15,3.1-15.5,3.1-16.3,0.2c-1.7-6.8,5.1-15.6,12.6-16.4c4.1-0.5,4.6-0.3,7.1,3c4.3,5.7,16.2,8.5,23.4,5.6c2.6-1.1,2-1.3-6.6-2.5
		c-10.9-1.6-15.2-3.9-19.1-10.2c-1.4-2.3-2.9-4.2-3.3-4.2c-0.5,0-0.6,0.4-0.3,0.9c0.4,0.5,0.3,1.7,0,2.6c-0.6,1.4-1.6,1.6-5.5,1.3
		c-11-1.1-22.4-10.3-28.3-22.8c-2.8-6-3-7.4-3.1-17c0-12.2,1.5-16.1,6.6-17.9c7.1-2.5,14-0.5,22.5,6.5c3.5,2.8,6,4.2,6.2,3.5
		c0.2-0.7-0.5-2.3-1.7-3.5c-1.2-1.2-2.1-2.6-2.1-3c0-0.4,2.7-0.5,6-0.1c6.7,0.8,6.7,0.8,4.6-5.7c-0.8-2.4-2.9-9-4.6-14.7
		c-1.8-5.8-3.9-11.5-4.7-12.8c-0.8-1.3-1.2-2.3-0.9-2.3c0.4,0-0.3-1.8-1.4-4c-1.1-2.1-2-4.5-2-5.3c0-0.7,2.1-2.3,4.8-3.5
		c7.4-3.4,14.8-7.7,19.5-11.6c2.3-1.9,5.5-3.9,7-4.5c2.7-1.1,12.3-0.5,30.2,1.9c6.5,0.8,9.5,0.7,16.2-0.6c4.5-0.9,8.6-1.4,9.2-1.2
		c0.5,0.1-2,3.9-5.6,8.3c-6.7,8.2-9.3,12.9-9.9,17.7c-0.4,3.4,1.1,3.6,4.5,0.5c1.5-1.3,6.3-4.9,10.8-8.1l8.2-5.7l1.1,4.3
		c1.9,6.9,7.2,22.2,8.1,23.3c0.5,0.5,0.9,1.5,0.9,2.2c0,3,4.4,10.4,7.3,12.2c3,1.9,3.3,1.9,5,0.3c3.8-3.4,4.7-6.7,4.1-14.4
		c-0.6-6.9-0.4-7.7,2.6-13.3c4.1-7.7,8.3-18.4,10.3-26c0.9-3.3,3.5-9.6,5.7-14c4.4-8.4,6.4-14.7,7.6-23.3c0.7-5.4,1-5.8,3.2-4.3
		c1.5,0.9,1,11.4-1.5,30.1c-2.4,17.6-2.1,30,0.8,38.5c2.9,8.5,6.1,11,10.6,8.5c2.1-1.2,3.4-3.6,5.7-10.1c2.9-8,4-9.9,9.1-16.7
		c1.9-2.5,6.4-9.9,12.9-21.5c1.5-2.6,2.4-4.7,2.1-4.7s-0.1-0.8,0.4-1.8c2.6-4.8,5.2-18.2,5.2-26.9c0-8-0.4-10.2-3.1-17
		c-1.7-4.3-3.8-8.8-4.6-10.1c-0.8-1.2-2.1-3.3-3-4.7C681.4,433.4,682.7,433.3,687.5,436.1z M527.3,536.1h-2.8l3.3,1.6
		c1.7,0.9,3.2,2,3.2,2.4c0,0.4-1.8,2.9-4,5.5c-7,8.5-8.7,18.5-4.9,29.6c3.7,10.9,7.5,13,14.9,8.3c2.2-1.4,4.2-2.5,4.6-2.5
		c1.5,0,10.6-7.5,13.4-11c4.5-5.6,2.7-7.5-1.9-2.1l-3.6,4.2v-5.8c0-9.1-3.1-17.7-8.2-23c-2.4-2.4-5.9-5.1-7.8-5.9
		C531.6,536.6,528.8,536,527.3,536.1z"/>
	<path id="path36" class="st8" d="M546.1,561.2c1.2,7.1,1.1,7.6-1,11.4c-2.8,4.9-8,8.4-12.7,8.4c-6.6,0-7.9-1.8-9.9-13.3
		c-0.5-3.3-0.4-3.7,1.4-3.7c2.9,0,8-4.9,9-8.7c0.7-2.5,0.5-4-0.9-6.8c-1.8-3.5-1.8-3.5,0.3-5C538.9,538.9,543.3,544.5,546.1,561.2z"
		/>
	<path id="path38" class="st6" d="M720.2,449.5c5.9,2.9,8,8.4,8,20.9c-0.1,9.2-0.3,10.6-2.8,15.1c-3.3,5.8-15.2,21.5-16.4,21.5
		c-0.4,0-1.4-0.7-2.1-1.7c-1.1-1.3-1.4-6.9-1.4-26.7v-25.1l-3.2-5.3c-1.8-2.9-3.3-5.4-3.3-5.6C699,441.9,716.3,447.6,720.2,449.5z"
		/>
	<path id="path40" class="st6" d="M758.7,464.3c-0.9,12.6-2.4,17.5-6.1,19.8c-4.2,2.6-7.4,2.4-8.5-0.4c-0.4-1.2-1.1-8.1-1.4-15.3
		l-0.5-13.1l5.1-1C758.8,452,759.5,452.7,758.7,464.3z"/>
	<path id="path42" class="st9" d="M399.3,470c5.7,0,10.6,0.3,11,0.6c0.3,0.3-1,2.6-2.9,5.1c-1.9,2.4-3.7,5.7-4,7.1
		c-1.2,5.6-1.5,5.8-2.9,3.2c-0.8-1.4-1.4-3.3-1.5-4.3c0-2.6-1.7-2-2.4,0.8c-0.4,1.5-1.1,2.3-1.7,1.9c-1.5-0.9-5.9-10.4-5.9-12.7
		C389,470.2,390.2,470,399.3,470z"/>
	<path id="path44" class="st3" d="M809.2,479.1c10-0.1,13.9,0.2,14.5,1.1c0.4,0.7,0.9,3.3,1,5.8c0.1,2.5,0.5,5.7,0.7,7.2
		c0.3,1.6,0.4,2.8,0.2,2.8s-4.6-1.3-9.7-3c-7.5-2.4-12-3.1-22.1-3.7c-14-0.7-15.1-1.3-10.1-5.9c2.5-2.4,3.8-2.9,9.3-3.7
		C794.4,479.4,801.7,479.2,809.2,479.1z"/>
	<path id="path46" class="st3" d="M787.6,491c11.2,0,34.9,5.7,37.6,9c0.9,1.1,1.9,4.6,2.3,7.8c0.3,3.1,0.7,7.2,1,8.9
		c0.2,1.8,0.1,3.3-0.3,3.3c-0.4,0-4.3-1.4-8.7-3.1c-24.2-9.2-27.5-10.1-35.4-9.4c-4.1,0.3-8.7,0.9-10.3,1.2l-2.9,0.6l3.5-6.4
		c1.9-3.5,4.6-7.6,5.9-9.2C782.4,491.5,783.6,491,787.6,491z"/>
	<path id="path48" class="st6" d="M630.2,511.1c0.6-0.1-4.8,13.5-7.7,19.4c-4.7,9.6-6.8,17.1-6.7,24.5c0.1,9.1-0.6,10.8-4.1,9.3
		c-1.8-0.8-3.2-3.2-5.1-8.1c-1.5-3.8-2.8-7.8-3-8.9c-0.2-1-1.7-5.7-3.3-10.4c-4.4-12.5-4.3-12.9,4.7-15.6c4.1-1.3,8.4-2.3,9.5-2.3
		c1.1,0,4.9-1.8,8.5-3.9C626.6,512.9,629.8,511.1,630.2,511.1z"/>
	<path id="path50" class="st6" d="M494.7,535.7c0.3,1,3.2,7.7,6.4,14.9c4.4,9.7,5.9,14.2,5.9,17.6c0,4.3-0.2,4.6-3.1,5.2
		c-5.4,1-7.8,0.7-13.1-2c-4.5-2.3-6-2.6-11.4-2.1l-6.1,0.6l-1.2-3.8c-3.9-13.3,1.8-27.1,12.7-30.5
		C491.3,533.6,494,533.7,494.7,535.7z"/>
	<path id="path52" class="st4" d="M234.6,570.4c1.1,0.8,5.3,6.9,9.2,13.5c28.6,48.1,32.8,53.6,47.4,63.4c7.1,4.7,18.4,9.7,22.2,9.7
		c0.6,0,1.7,0.4,2.5,0.9c1,0.7,0.4,1.7-2.7,4.5c-7.7,7-11.1,14.1-12.7,26.8c-0.5,3.5-1.1,4.8-2.2,4.8c-0.9,0-1.4-0.3-1-0.6
		c0.3-0.3-0.3-2.2-1.3-4.2c-1.1-2.1-3.5-7.5-5.5-12.2c-3.5-8.3-5-10.8-5.9-9.9c-0.4,0.4,7.2,21.4,9.9,27.4c0.7,1.6,2.2,5.7,3.4,9
		c1.1,3.3,3.6,10.3,5.5,15.5c4.8,13.3,5.2,14.5,8,23.5c1.4,4.4,2.8,9.3,3,11c0.3,1.6,1.7,8.2,3,14.5c5,23.3,7.4,57.8,5.3,75.2
		l-0.9,6.8h-42.2h-42.3l-0.7-10.7c-0.5-6-1-13.5-1.2-16.7c-0.2-3.3-1.5-10.7-2.9-16.5c-1.4-5.8-2.8-12.2-3.1-14.1
		c-0.9-6.2-3.6-14.7-27.2-85c-14-41.7-16.7-53.5-16.7-72.5c0-27.2,9.1-47.7,26.2-59.1c3.1-2.1,7.3-4.3,9.3-5
		C225.7,568.7,232.1,568.7,234.6,570.4z"/>
	<path id="path54" class="st3" d="M649.6,615c0.3,0,1.6,2.6,3,5.7c5.6,12.8,8.9,19.8,18.2,37.8c0.8,1.6,4.5,8.2,8.2,14.5
		c7.9,13.4,11.7,20.8,13.7,26.4c3.4,9.8,2.4,23-2.4,29.9l-2.8,4l-0.8-3.9c-1.9-8.7-5.2-17.3-9.4-24.7c-6.9-12.2-15-28.8-16.1-33.2
		c-0.6-2.2-2.2-8.3-3.6-13.5c-1.4-5.2-2.8-11.1-3.1-13c-0.3-1.9-1.8-7.3-3.3-12c-2.6-8.2-2.7-9.4-2.4-15.3
		C648.9,616.2,649.2,615,649.6,615z"/>
	<path id="path56" class="st3" d="M629.7,624.2c2,1.9,2.3,3.1,2.3,10.4c0,4.5-1,14.7-2.1,22.6c-2.4,16.2-2.2,30.8,0.5,44.3
		c2.7,13.2,3.8,16.1,14.4,37.9c0.8,1.7-5.1-0.5-9.3-3.4c-9.2-6.4-18.3-20.5-20-31c-1.5-8.9-0.6-21.4,2.3-35.5
		c1.6-7.7,2.9-14.7,2.9-15.5c0.1-0.8,0.8-6.5,1.7-12.5c0.9-6.1,1.8-12.9,2.2-15.3C625.2,621.5,626.3,621,629.7,624.2z"/>
	<path id="path58" class="st3" d="M646.1,626.7c0.3,0.1,1.1,2.2,1.7,4.5c0.6,2.4,2.2,8.8,3.6,14.3c1.4,5.5,2.8,11.3,3,12.9
		c0.3,1.5,1.7,6.4,3.1,10.7c1.5,4.3,2.6,8,2.6,8.1c-0.1,0.2,3.3,7,7.5,15.3c12.1,23.8,16,37.7,13.4,47.5c-2.6,10.3-9.4,20-14,20
		c-2.2,0-10.1-9-15.9-18c-8-12.4-13.8-26.7-18.1-44.5c-1.4-6.2-1.4-36.2,0.1-44.2c0.6-3.2,1.4-10.1,1.8-15.2l0.6-9.5l5-1.1
		C643.3,626.9,645.8,626.5,646.1,626.7z"/>
	<path id="path60" class="st10" d="M341.5,660c11.2,1,22,4.4,37.8,11.7c10,4.8,12.9,7.2,5.5,4.8c-2.4-0.8-6.5-2.1-9.1-2.9
		c-2.6-0.9-8.9-2.3-14-3.1c-19.8-3.2-33.9-0.7-46,8.2c-2.8,2.1-6.2,4.4-7.5,5.1c-2.4,1.2-2.4,1.1-1.8-2c1.9-9.5,10.5-21.2,16.3-22.1
		C327.6,659,331.2,659,341.5,660z"/>
	<path id="path62" class="st10" d="M377.3,677c7.3,1.5,20.3,7.6,27.1,12.7c5.7,4.3,11.5,10,11.6,11.4c0,0.4-1.9,0.3-4.2-0.2
		c-7.4-1.4-42.6-1-50.1,0.6c-15.8,3.3-32.1,10.6-43.8,19.4c-3.5,2.7-6.7,4.6-7.1,4.3c-1.3-1.4-9-20.6-9.5-23.8
		c-0.8-4.8,1.3-8.8,6.6-13.2c10.5-8.7,21.5-13.5,34.2-15.1C350.4,672.2,358.7,673.1,377.3,677z"/>
	<path id="path64" class="st10" d="M415.4,682c1.3,0,8.6,4.5,8.6,5.2c0,1.4-5.7,0.8-7-0.7c-0.7-0.8-0.9-1.5-0.5-1.5s0.2-0.7-0.5-1.5
		C415.3,682.7,415.1,682,415.4,682z"/>
	<path id="path66" class="st10" d="M427.7,693.4c4.7,2.2,11.3,9.1,11.3,11.8c0,0.9-5.6,0.2-13-1.6c-3.9-1-4.8-1.7-6.8-5.6
		c-2.1-4.2-2.1-4.6-0.5-5.7C421,690.6,421.7,690.6,427.7,693.4z"/>
	<path id="path68" class="st10" d="M405.5,704c6.6,1.1,12.3,2,12.8,2c2.3,0-1.1,12.7-4.8,17.6c-1.4,1.8-2.9,4.3-3.4,5.6
		c-1.3,3.3-15.2,17.9-23.5,24.6c-21.4,17.4-36.2,23.1-53,20.2c-9.1-1.5-12.3-3.7-13.2-8.8c-0.3-2-1.7-7.5-3-12.2
		c-2.9-10.3-3.8-15.4-3.8-19.9c0.1-2.9,1-4.4,6.1-9.2c6-5.6,15.8-11.2,22.4-12.9c1.9-0.5,5.9-1.6,8.9-2.5c6.2-1.8,25.3-5.2,32-5.8
		C392.2,702,393.8,702,405.5,704z"/>
	<path id="path70" class="st10" d="M442.8,714.8c2.7,3.8,6.2,14.3,6.2,18.7c0,5-1.8,11.6-3.9,14.4l-1.8,2.3l-5.4-5.7
		c-3-3.2-7.8-7.3-10.7-9.2l-5.4-3.5l0.7-12.1c0.4-6.7,1-12.6,1.2-13C425.2,704.1,439.6,710.2,442.8,714.8z"/>
	<path id="path72" class="st10" d="M417.6,733.2c-4.3,20.7-15.1,37.7-30.1,47.3c-14.3,9.1-28.7,10-38.4,2.4
		c-3.5-2.8-3.8-3.9-1.1-3.9c2.6,0,18.8-7,25.4-11c10.6-6.4,22.9-17.4,29.3-26.1c3.4-4.6,8.4-10.8,11-13.8
		C419.3,721.7,419.8,722.4,417.6,733.2z"/>
	<path id="path74" class="st10" d="M434.9,744.3c5.7,9.3,4.9,18.5-2.3,26.3c-4.6,5-12.4,9-11.2,5.7c0.9-2.2,0.9-1.8,0.7-7
		c-0.1-2.9-0.9-5.1-2.8-7.3c-3.3-4-3.6-8.6-1.2-15.6c1.1-2.9,1.9-5.9,1.9-6.7c0-0.7,0.5-1.8,1.2-2.5
		C423.5,734.9,431.7,739.2,434.9,744.3z"/>
	<path id="path76" class="st4" d="M415.7,761.7c3.8,2.5,4.2,5,2.2,12.2c-1.5,5.2-1.9,10-1.9,25.5c0,18.2-1.2,39.1-2.8,46.6l-0.8,3.5
		l-44.2,0.3L324,850l0.8-3.2c0.9-4.2,0.9-54.2,0-63.1c-0.5-4.7-0.4-6.6,0.3-6.1c0.6,0.4,4.3,1,8.1,1.4c6.3,0.7,7.4,1.2,11.2,4.8
		c7,6.8,9.6,7.7,22.1,7.6c10.6,0,11.2-0.1,18-3.6c5.1-2.6,9.3-6,15.6-12.5c4.7-4.8,9.5-10.3,10.8-12
		C413.1,760.1,413.2,760.1,415.7,761.7z"/>
	<path id="path78" class="st0" d="M217.9,769c1.1,0,4.5,7.9,6.1,14c0.6,2.5,2,7.2,3,10.5c1,3.3,2.1,7.5,2.4,9.3
		c0.2,1.8,0.9,5.4,1.5,8c1.3,6.1,3.1,20.5,3.8,30.9l0.6,8.3h-53.1h-53.1l-3.5-6c-4-6.7-4.6-8.8-5.3-17.5c-0.5-5.6-0.3-6.3,2.9-11
		c2.3-3.3,4.6-5.4,6.9-6.1c8-2.8,19.6-5.5,28.6-6.9c9.7-1.5,19.4-4.8,26.5-9.2c2.1-1.3,4.1-2.3,4.6-2.3c0.9,0,16.4-12.3,22.9-18.2
		C215.1,770.7,217.4,769,217.9,769z"/>
	<path d="M437.5,296.7c20.8,3.5,45.8,17.6,65.8,37.1c8.5,8.3,20.2,22,25.2,29.5c3.6,5.4,7.3,8,14.5,10.2c1.4,0.4,3.4,1.4,4.5,2.1
		c7.6,5.3,2.1-5.9-7.5-15.2c-3.6-3.4-8.7-8.3-11.5-10.8l-5-4.6h4.2c2.2,0,6.8,0.8,10,1.8c5.7,1.8,9.3,4.4,25.2,17.9l4.4,3.8
		l-0.8-3.5c-0.9-4.7-5.7-14.9-9.5-20.5c-3.8-5.5-2.5-5.8,5.6-0.9c7.8,4.6,12.4,9.3,18.5,18.3c2.7,4.1,4.9,7,5,6.5
		c0.9-10.2-1.1-17.7-7.1-26.5l-4-5.9h8.2c4.6,0,11.9,0.4,16.3,1c8.4,0.9,30.6,7.3,34,9.6c1.1,0.8,2.5,1.4,3.1,1.4
		c3,0,27.4,14.6,42.1,25.2c11.7,8.4,17.3,14.4,32,34.3c22.6,30.7,34.4,43,41.4,43c4.3,0,5.9-1.2,10.9-8c3.6-4.9,16-25.1,16-26.1
		c0-0.2,3.1-5.1,6.9-10.7c6.3-9.4,19.8-23.7,22.3-23.7c0.6,0,2.3-0.9,3.8-2c5.2-3.7,17.4-7,25.8-7c14,0,15.2,3.3,6.7,19.2
		c-7.2,13.3-13.5,26.4-14,28.6c-0.2,0.9-1.1,4.4-2,7.7c-2.8,9.9-3,26.6-0.7,47c1.2,9.9,2.4,24.3,2.8,32.1
		c0.5,12.6,0.4,14.2-1.2,15.8c-2.1,2.2-6.8,1.5-9.9-1.3c-1.1-1.1-5.6-3.7-10-5.7c-8-3.8-8.1-3.8-21-3.9c-18.4,0-19.7,0.8-33.3,18.5
		c-13.2,17.4-15,20.2-17.2,26.5c-1,2.9-2.3,6.2-2.9,7.3c-0.6,1-1.3,3.2-1.5,4.9c-0.3,1.6-1.2,4.2-2,5.9c-0.7,1.6-2.6,6.2-4.1,10.1
		c-1.5,4-3.1,7.5-3.6,7.9c-0.5,0.3-0.9,1.3-0.9,2.2c0,2.6-9.6,18.8-17.2,28.9c-7.9,10.6-15.6,17.9-25.6,24.3c-3.9,2.5-7.1,5.2-7.1,6
		c-0.1,0.9,1.5,4,3.5,7c1.9,3,4.4,7.2,5.5,9.2c1,2,3,5.3,4.3,7.3c1.4,1.9,4.6,7.9,7.2,13.3c4.3,8.6,4.8,10.6,5.2,17.8
		c0.5,9.5-1.1,14-9.5,26.5c-2.8,4.1-6.9,10.9-9.2,15.1c-5,9.1-8,11.8-12.9,11.8c-3.1,0-4.6-1-11.6-7.9c-4.5-4.3-10.1-8.8-12.6-10.1
		c-22.2-11.3-32.7-30.5-31.8-58l0.3-10.5l-6.5,0.3c-3.6,0.1-9.7,0.7-13.7,1.3c-9,1.3-20.9-0.2-30.8-3.8c-3.8-1.4-14.3-6.4-23.3-11
		l-16.4-8.4l-7.6,0.3c-5,0.2-9.6,1.1-13,2.6l-5.3,2.2l-2.4-2.5c-3.7-3.6-3.5-11.5,0.4-17.7c3.2-5,2.9-5.9-1.9-7.3
		c-3.7-1.1-12.3-7.8-16.4-12.8c-6.7-8.2-8.1-12.6-8.1-26.4V581H458c-10,0-13,1.4-13,6.1c0,6.1-9.5,6.3-19.4,0.4
		c-3.1-2-6.1-3.3-6.6-3s-1.2,2.5-1.5,4.9c-0.9,5.9-1.3,6.3-7.2,6.8c-3.8,0.4-6.8,1.5-10.5,4c-6,3.9-10.8,5.8-15,5.8
		c-4.7,0-12.1-8.2-17.3-19.2c-4.4-9.2-4.4-9.2-5.5-6.3c-0.6,1.7-1.5,6.1-1.9,9.9c-0.7,6.7-0.6,7.2,2.7,13.5c2,3.6,3.4,6.7,3.3,6.9
		c-0.1,0.1,0.9,2.6,2.3,5.5s3.3,8.3,4.3,12.2c0.9,3.8,2.1,7.7,2.7,8.6c0.6,0.8,7.3,7.2,14.9,14.2c7.7,6.9,15.1,14.5,16.6,16.9
		c3.1,4.9,7.7,9,13,11.8c4.2,2.1,20.1,18.2,22.4,22.5c0.8,1.7,1.7,4.5,2,6.2s1.7,4.7,3.1,6.5c2.7,3.6,5.6,13.1,5.6,18.3
		c0,5.2-2.9,14.5-5.9,18.8c-1.6,2.3-2.8,4.4-2.7,4.7c0,0.3-1.4,3.7-3.1,7.6c-3.9,8.4-7.1,11.7-15.5,15.8l-6.3,3.1l-0.7,29
		c-0.8,32.8-1.3,36.9-4.5,37.3c-2,0.3-2.1,0.1-1.2-3.7c1.7-7.5,2.9-27.6,2.9-46.7c0-15.5,0.4-20.3,1.9-25.5c2-7.2,1.6-9.7-2.2-12.2
		c-2.5-1.6-2.6-1.6-4.8,1.6c-1.3,1.7-6.1,7.2-10.8,12c-6.3,6.5-10.5,9.9-15.6,12.5c-6.8,3.5-7.4,3.6-18,3.6
		c-12.5,0.1-15.1-0.8-22.1-7.6c-3.8-3.6-4.9-4.1-11.2-4.8c-3.8-0.4-7.5-1-8.1-1.4c-0.7-0.5-0.8,1.4-0.3,6.1
		c0.9,9.1,0.9,60.1-0.1,63.5c-0.4,1.6-1.2,2.8-1.8,2.8c-0.6,0-0.7-2.6-0.2-7.8c1.9-18.8-0.4-51.3-5.3-74.2c-1.3-6.3-2.7-12.9-3-14.5
		c-0.2-1.7-1.6-6.6-3-11c-2.8-9-3.2-10.2-8-23.5c-1.9-5.2-4.4-12.2-5.5-15.5c-1.2-3.3-2.7-7.4-3.4-9c-2.7-6-10.3-27-9.9-27.4
		c0.9-0.9,2.4,1.6,5.9,9.9c2,4.7,4.4,10.1,5.5,12.2c1,2,1.6,3.9,1.3,4.2c-0.4,0.3,0.1,0.6,1,0.6c1.1,0,1.7-1.3,2.2-4.7
		c1.6-12.8,5-19.9,12.7-26.9c3.1-2.8,3.7-3.8,2.7-4.5c-0.8-0.5-1.9-0.9-2.5-0.9c-3.8,0-15.1-5-22.2-9.7
		c-14.6-9.8-18.7-15.2-47.3-63.2c-4-6.8-8.4-13-9.7-13.9c-3.5-2.3-12-1-19,2.9c-8,4.6-17,14-21.3,22.4c-5.7,11.1-8.4,23.5-8.4,39
		c0,19,2.7,30.8,16.7,72.5c23.6,70.3,26.3,78.8,27.2,85c0.3,1.9,1.7,8.3,3.1,14.1c1.4,5.8,2.7,13.2,2.9,16.5
		c0.2,3.2,0.7,10.7,1.2,16.6c0.4,7,0.3,10.8-0.3,10.8s-1.3-3.7-1.6-8.2c-0.7-10.5-2.5-24.9-3.8-31c-0.6-2.6-1.3-6.2-1.5-8
		c-0.3-1.8-1.4-6-2.4-9.3c-1-3.3-2.4-8-3-10.5c-1.6-6.1-5-14-6.1-14c-0.5,0-2.8,1.7-5.2,3.8c-6.5,5.9-22,18.2-22.9,18.2
		c-0.5,0-2.5,1-4.6,2.3c-7.1,4.4-16.8,7.7-26.5,9.2c-9,1.4-20.6,4.1-28.6,6.9c-2.3,0.7-4.6,2.8-6.9,6.1c-3.2,4.7-3.4,5.4-2.9,11
		c0.7,8.7,1.4,10.8,5.1,17.2l3.4,5.8l-3.9,0.3c-2.8,0.2-5.3-0.5-8.8-2.3c-6.3-3.5-20.6-16.7-26.7-24.8c-12.8-17-20.4-44.5-19.1-69.6
		c0.4-7.9,1.2-11.8,4.7-22.1c2.4-6.9,4.9-13.4,5.7-14.5c2.5-3.8,1.6-7.3-4-14.3c-18.6-23.2-25.1-40.1-26.8-68.7
		c-0.4-7.7-1.3-17.6-1.9-22c-0.7-4.7-0.9-12.8-0.6-19.6c0.7-13.1,3.6-23.1,12.1-41.3c2.5-5.4,4.4-10,4.2-10.2
		c-0.7-0.7-11.5,5-17.6,9.3c-15,10.7-23.3,21.4-28.7,37c-1.6,4.6-3.2,8.3-3.5,8.3c-0.7,0-2.9-14.5-2.9-19.6c0-2.2,0.9-8.8,1.9-14.6
		c5.5-29.7,30.4-58.3,63.6-73.1c10-4.4,20.9-8.7,22.1-8.7c0.6,0,3.1-0.9,5.6-2c2.4-1,6.9-2.6,9.9-3.4c3-0.8,8.8-2.6,12.9-4
		c4.1-1.4,11.8-3.7,17-5.1c47.6-13.4,64.3-19.5,85-31.1c11.9-6.7,29.4-21.8,34.6-29.9c1-1.6,5.5-7.7,9.8-13.5
		c33-43.7,63.4-70.2,97.1-84.7c9.7-4.1,23.1-8.1,31.5-9.2c4.7-0.6,9.6-1.3,11-1.5C416.6,294,427.1,294.9,437.5,296.7z M421,298.5
		c-7.4-0.2-14.4-0.2-15.5,0.1c-1.1,0.3-6.9,1.6-13,3c-27.4,6.3-55.7,23.3-80.5,48.3c-15.3,15.4-28.7,32.6-52.7,67.6
		c-12.7,18.5-19.7,27.9-25.2,33.9c-3.5,3.7-17.3,14.6-18.6,14.6c-0.4,0,3.1-3.7,7.7-8.3c10.3-10,30.6-36.2,29.3-37.5
		c-0.3-0.3-2.4,1.3-4.7,3.4c-2.4,2.1-7,5.7-10.3,7.8c-3.3,2.2-7.1,4.7-8.5,5.6c-2.1,1.4-14.6,7.6-22.5,11.1
		c-2.2,1-17.7,5.9-33.5,10.8c-5.8,1.7-14.8,4.5-20,6.1c-5.2,1.6-13.3,4-18,5.4c-18.5,5.5-35.6,10.9-36.5,11.6c-0.5,0.4-2.8,1.3-5,2
		c-7,2.3-21.7,9.5-30.5,15c-17.1,10.7-31.6,25.9-39.3,41.2c-5.6,11.1-9.7,26.3-9.7,35.7v6.6l5.8-11.5c3.1-6.3,7.9-14.6,10.5-18.3
		c4.7-6.5,15.2-16.5,16.3-15.5c0.2,0.3-2,3.6-5.1,7.3c-3,3.7-5.4,7-5.1,7.2c0.4,0.5,15.1-8,24.6-14.2c3.7-2.4,10.6-8.7,15.8-14.3
		c9.5-10.4,23.1-21.4,34.4-27.9c10.3-5.9,17.9-9.4,19.7-9.1c1.5,0.3-0.1,1.5-13.2,9.6c-8.3,5-26.7,18.3-31.3,22.4
		c-2.8,2.7-7.9,8.5-11.3,13c-3.4,4.6-6.5,8.8-7,9.4c-1.5,1.9-8.9,16.7-11,22.1c-3.5,8.9-5.3,18.4-5.7,30.3c-0.5,10.6-0.4,11.3,1,9
		c0.8-1.4,1.5-3.1,1.6-3.8c0-0.7,1.1-3.8,2.5-6.7c1.3-3,2.7-6.6,3.1-8c0.7-2.7,3.4-3.5,3.4-1c0,0.9-0.7,2.9-1.5,4.4
		c-0.8,1.6-1.6,3.9-1.9,5.2s-1.4,5.3-2.6,8.9c-4.6,14.4-4.6,44.4,0,58c1.2,3.6,2.3,7.2,2.5,8c1.5,7.1,12.8,26,19.4,32.4l5,4.9
		l1.2-2.9c2.3-5.8,2.3-21.1-0.1-31.9c-3.9-17.9-3.8-17.6-2.6-17.2c3.8,1.1,7.5,17.3,7.7,34.2l0.1,7l2.9-6.1c1.6-3.3,4.8-11.4,7-18
		c4.4-13,6.4-28,5.3-38.7c-0.6-4.7-0.4-5.7,0.9-5.7c1.2,0,1.7,1.8,2.2,8.4c0.8,9.8-2,28.2-6.2,40.1c-1.4,3.8-2.6,7.7-2.8,8.6
		c-0.2,0.9-1.3,3.7-2.4,6.2c-1.1,2.5-3.1,7.4-4.5,10.9c-1.3,3.4-3.4,8.8-4.6,11.8c-4,10.3-11.1,30.5-11.8,34
		c-0.9,4.6-0.9,26.9,0.1,34.5c1.1,8.8,5.3,20.7,11.1,31.5c3.8,7.1,7.4,11.9,14.1,18.8c9,9.4,18.1,16.9,19.2,15.9
		c0.3-0.3-0.4-2.5-1.5-4.9c-5.2-10.7-6.8-29.1-3.9-44.8c2.6-14.2,12.7-36.4,15.3-33.7c0.3,0.3-1.1,4.5-3.1,9.3
		c-2,4.9-5,12.9-6.6,17.9c-3.1,9.4-4.9,23.7-3.2,24.8c0.6,0.4,2.7-1.8,4.7-4.7c4-5.9,13.1-14.7,28.1-27.6
		c21.7-18.6,29.8-26.4,34.2-33.3c2.4-3.8,4.7-6.7,5-6.4c0.8,0.9-5,12.8-9.5,19.4c-5,7.4-11.3,13.2-22.7,21.1
		c-4.9,3.4-12.6,9.6-17,13.8l-8,7.5l4-0.5c5.7-0.9,20.6-8.7,30.5-16c4.7-3.4,11.7-8.3,15.5-11l7-4.7l-8.6,8.3
		c-7.7,7.4-13.1,11.6-22.2,17.2c-4.5,2.8-2.6,2.8,5.1,0.1c10.9-3.8,23.4-9.8,31.1-15c7.8-5.2,21.1-18.4,21.1-20.9
		c0-1.8-6.3-20.7-8-24.1c-0.6-1.1-1.2-3-1.5-4.2c-0.2-1.2-0.8-3-1.3-4c-1.2-2.2-14.2-40.6-15.2-44.8c-0.4-1.7-1.9-7.3-3.3-12.5
		c-1.4-5.2-2.5-10.2-2.5-11s-0.7-6.2-1.6-12c-2.7-18.4-1.6-34.1,3.5-46.5c3.5-8.5,10.7-19.1,16.5-24.5c5.5-4.9,22.1-14,25.7-14
		c2.5,0,2.1-1.7-0.9-3.6c-2.8-1.9-14.2-2.1-21.6-0.5c-9.1,2.1-20.4,6.3-27.2,10.3c-8.1,4.7-19.3,15-24.2,22.3
		c-4.3,6.3-4.6,3.3-0.4-4c3.8-6.7,15-17.3,22.5-21.3c9.1-5,20.2-8.8,30.8-10.8c5.3-1,9.7-2.1,9.7-2.4c0-0.3-2.2-1.4-5-2.4
		c-2.7-1-5-2.2-5-2.7c0-1.9,7.5-0.8,12.8,1.8c10.2,5.2,18.6,14.6,26.9,30.3c12.5,23.6,25.9,43.6,35.8,53.6
		c5.4,5.4,15.7,12.3,21.8,14.6c6.6,2.5,12.2,3.6,24.7,4.8c18.8,1.8,43.1,9.1,58,17.5c7.1,4,16.3,10.8,22.3,16.4c2,1.9,3.7,3,3.7,2.5
		c0-2-3.6-12.1-4.8-13.5c-0.7-0.8-3.8-5-7-9.4c-7.2-9.9-11.8-13.9-28.4-25.2c-28.2-19-48.5-39.9-58.3-59.8c-3-6.1-5.6-12.4-5.9-14
		c-0.3-1.7-1.2-6.2-2.1-10c-1.5-7.3-1.8-16.3-0.6-20.5c0.7-2.3,0.8-2.3,1.4-0.5c0.3,1.1,0.8,5.6,1.1,10.1
		c1.5,22.2,13.7,46.8,31.7,64.1c10.3,9.9,27.7,21.8,29.4,20.1c1.2-1.2-3.9-12.8-18.2-42.2c-7.9-16-14.3-29.7-14.3-30.6
		c0-0.8-1.1-5.1-2.5-9.5c-2.5-8.1-3.2-14-1.7-14.9c0.5-0.3,1.8,3.6,3.1,8.5c3.2,12.9,7.7,23.7,17.5,41.9c2.6,4.9,2.9,5.2,4,3.4
		c2.1-3.6,1.4-32.3-1.2-45.7c-6.3-33.2-7.3-42.1-5.6-50.6c1.1-5.2,2.4-3.5,2.5,3.1v6.3l3.1-6.5c3.6-7.9,3.7-9,0.5-16
		c-1.3-3-2.7-6.7-3.1-8.3c-1.1-4.8-4.8-3.4-14.4,5.7c-7.5,7-16.9,22.6-19.2,31.6c-2.4,9.8-5.1,19.4-5.5,19.9
		c-1.6,1.5,0.6-16.3,2.8-22.4c4.1-11.9,7.1-17,16.6-28.4c3.9-4.7,4.2-5.3,2-4.6c-9.1,2.8-23.3,13.5-29,21.9c-1.3,2-2.7,3.6-3.1,3.6
		c-3.1,0,3.6-9.6,13-18.7c12.7-12.3,36.8-17.9,65.1-15.3c6.8,0.6,12.5,0.9,12.8,0.6c0.3-0.2-2.4-1.3-5.9-2.4
		c-3.4-1.1-12.1-4.1-19.2-6.6c-7-2.5-13.1-4.6-13.5-4.6c-0.3,0,0.1-0.4,0.9-0.9c0.8-0.5,4-0.5,7-0.1c5.3,0.7,9.1,2,27.1,9
		c4.1,1.7,7.9,3,8.3,3s3.1,1.1,6,2.4c9.6,4.4,21.9,7.8,31.6,8.6c9.6,0.8,18.7,0.2,18.3-1.3c-0.2-0.7-12.5-10.3-20.2-15.7
		c-7.6-5.3-16.1-10.1-23.7-13.2c-7.7-3.2-8.3-3.3-21.5-3.2c-13.1,0.1-13.6,0-13.1-1.9c0.8-3.3,11.4-12.9,16.7-15.2
		c13.9-6.1,18.2-7,33.5-6.9c11,0,16.6,0.6,23,2.1c13.9,3.4,21.8,4.6,26.8,4.1s14.3-4.6,17.8-7.9c2.6-2.4,3.4-2.4,3.4,0
		c0,2.5-3.5,5.3-9.4,7.5c-2.7,1-4.3,2.2-4,2.8c1,1.6,20.8,0.2,28.9-2.1c3.8-1.1,7.2-1.8,7.4-1.5c0.9,0.9-3.6,3.5-9.8,5.4
		c-9.1,2.9-23.1,2.7-39-0.5c-22.7-4.6-47.4-6.5-59.8-4.6c-8.7,1.4-22.4,7.4-26.4,11.7l-2.3,2.5l5.9-0.6c3.3-0.3,7.6-0.8,9.5-1
		c5.5-0.7,20.4,1.3,31.5,4.1c6.2,1.6,14.4,4.7,21.7,8.4c20.4,10.1,24.6,14.6,5.2,5.4c-6.5-3-15.6-6.8-20.1-8.4
		c-7.7-2.7-10.3-3.2-22.3-4.6l-4.5-0.5l7.8,4c4.4,2.2,8.7,4.7,9.7,5.6c1.1,1,4.8,3.6,8.3,5.9c3.5,2.2,11,7.2,16.7,11.1
		c17.8,12,28.9,17.1,46.2,20.9c22.1,5,45.6,5.3,62.3,0.9c3.3-0.8,8.7-2.1,12-2.8c3.3-0.7,6.8-1.7,7.9-2.1c3.6-1.4-0.2,3.4-4.7,6
		c-3.6,2.1-7.1,2.7-25.7,4.5c-25.6,2.5-28.6,2.6-33.5,0.5c-4.7-1.9-9-1.5-8.9,0.8c0.2,1.6-0.2,1.6-3.7-0.2c-9.6-4.9-19-7.2-32.2-7.7
		c-13.7-0.6-15.5-1.5-7.6-4.2l4.4-1.5l-4.4-1.9c-4.1-1.8-5.1-1.8-11.2-0.7c-7.7,1.5-18.1,0.9-29-1.6c-12.3-2.8-17.4,0.1-18.9,10.4
		c-0.9,6.7-2.4,10.2-4.3,10.2c-2.5,0-11.8-11.3-13.1-16c-2.2-7.3-4-11-5.5-11c-2.2,0-10.1,7.4-10.1,9.4c0,0.9-0.4,1.6-1,1.6
		c-1.8,0-1.1-3.4,1.5-7.2c1.4-2,2.5-3.9,2.5-4.2c0-0.4-3.8-0.6-8.4-0.6c-6.6,0-8.5,0.3-9,1.5c-0.3,0.9,1,5.8,2.8,10.9l3.3,9.4
		l-2.2,1.2c-2.8,1.5-6.3,10.1-7.1,17.3c-0.4,3.3,0.2,9.9,1.6,18.2c1.2,7.1,2.4,15,2.6,17.4c0.5,5.9,2.2,15.3,4.1,22.6
		c0.8,3.3,1.7,7.1,2,8.5c0.9,5,8.4,17.7,13.3,22.5c4.4,4.4,5.5,5,9.1,4.9c2.2-0.1,4.7-0.8,5.7-1.6c0.9-0.8,4.4-3.1,7.8-5.1l6.1-3.6
		l1.3-7.3c1.8-10.1,2.1-10.3,8.3-6.8c5,2.8,21.3,8,24.9,8c1.1,0,2-1,2.4-2.5c0.8-3.4,5.2-5.5,11.1-5.5c5.9,0,12.3-1.7,12.4-3.3
		c0.1-0.7,0.2-7.7,0.3-15.7c0.1-17.9,0.6-18.9,12.9-24.8c10.9-5.3,21.6-10.2,22.1-10.2c0.2,0,4-2.1,8.3-4.6
		c8.1-4.8,12.5-8.2,11.9-9.3c-0.3-0.3-4.9-0.3-10.3,0c-5.4,0.4-10.2,0.3-10.6-0.1c-2.3-2.1,6.4-11.9,13.1-14.7
		c4.7-1.9,5.1-0.9,1.1,2.4c-9.9,8.3-10,8.6-2.9,7.3c7.1-1.4,14-1.2,14,0.4c0,2.1,20.6,5.9,32.5,5.9c19.5,0.1,37.7-7.2,49-19.6
		c6.3-6.9,9-8.3,6.4-3.5c-0.6,1.2-9.2,10.5-19,20.6c-9.8,10-18.4,19.2-19,20.4l-1.1,2.1l3.3-2c1.9-1.2,8.2-4.8,14-8.1
		c15.6-8.8,20.9-12.4,28.4-19.1c8.2-7.5,10.1-8.1,7.1-2.2c-1.5,2.8-8.8,10-12.1,11.9c-1.1,0.6-1.7,1.3-1.4,1.6c1,1,12.2-7.7,15.6-12
		c4.2-5.5,6.1-9.3,7.8-16.6c2.2-9.5,2.1-11.5-2-30.1c-0.9-4.2-7.7-14.6-12.9-19.7c-3.1-3-5.6-5.8-5.6-6.2c0-1.8,7.7,2.5,11.8,6.5
		c4.6,4.4,12.2,18.6,12.2,22.6c0,5.8,6.7,13,14.1,15.1c2.7,0.8,2.6,0.6-2.7-7.2c-3-4.4-5.5-8.4-5.5-8.9c-0.1-0.5-0.2-1.2-0.3-1.7
		c-0.3-1.6-7.7-16.4-10.1-20.3c-3.4-5.2-2.4-6.3,1.6-1.8l3,3.4l-0.6-3c-0.8-3.8-6.5-12.3-11-16.7c-5.3-5-14.8-10.4-22.3-12.6
		c-7.8-2.4-13.1-3.3-33.7-6.2c-36.9-5.1-41-6.2-44-11.9c-1.2-2.3-2.8-3.3-8.7-5.1c-4-1.2-10.4-2.8-14.3-3.4c-4.8-0.9-7-1.7-7-2.6
		c0-1.5,4.3-2.6,19.3-5.1c6.7-1.1,9-2.7,6.2-4.4c-0.5-0.3-4.3-4.7-8.4-9.8c-13.1-16.2-32.6-34.2-44.2-40.8
		c-10.7-6-21.9-11-30.4-13.4C436.3,299.3,431.9,298.7,421,298.5z M582,338.5c0,0.5,1.1,2.8,2.5,5.2c1.4,2.3,2.3,4.3,2.1,4.3
		c-0.3,0,0.1,1.7,0.8,3.7c4.1,10.9,4.5,24.7,1,36.4c-0.9,2.8-1.4,5.2-1.2,5.4c0.8,0.7,19.8,5.5,24.4,6.1l5,0.6l4.5-4.9
		c3.8-4.3,11.7-17.3,10.5-17.3c-0.2,0,0.2-2.1,1-4.8c1.9-6.1,2-21.1,0.2-22.7c-1.9-1.7-17.9-7-28.6-9.5
		C593.6,338.6,582,337.3,582,338.5z M566,353.4c3.8,6.8,7.1,21,6.3,27.8c-0.3,2.6-1,4.8-1.4,4.8c-0.5,0-0.9-0.3-1-0.8
		c-0.8-8.1-13.7-24.7-23.8-30.5c-5.1-3-12.1-6.1-12.1-5.3c0,0.2,3,3.4,6.8,7.2c6.6,6.8,18.3,23.6,19.7,28.3l0.7,2.4l-3.3-2
		c-14.3-8.4-23.2-12.2-30.9-12.9c-8.6-0.8-10.9,2.5-3.2,4.5c2,0.6,7.8,3.7,12.8,7c5,3.2,10.7,6.3,12.5,6.9
		c1.9,0.6,10.1,1.6,18.3,2.3c17.2,1.3,17.6,1.2,17.6-7.2c0-10.2-4.8-20.9-14.7-32.7C564.2,346.1,561.8,346.2,566,353.4z
		 M638.6,354.9c-0.3,0.5-0.6,4-0.7,7.7c-0.2,11.4-5.5,24.2-14,34c-2.2,2.5-3.9,4.7-3.9,5c0,0.7,8,7.8,11.1,9.7
		c2.8,1.9,2.9,1.9,7.2-1.3c4.9-3.5,10.3-9.6,16-17.9c4.2-6.3,9.2-20.9,8.3-24.3c-0.4-1.6-3.6-4.1-10.7-8.1
		C641.8,354,639.6,353.2,638.6,354.9z M667.6,370c-0.7,0-1.6,1.5-1.9,3.4c-1,6.1-7.6,19.5-12.4,25.4c-2.7,3.2-7.6,8.2-11.1,11.2
		l-6.4,5.4l8.6,1.7c4.7,0.9,12.9,3.2,18.2,4.9c11.3,3.8,11.7,3.7,19.7-5c5.7-6.2,10.7-15.3,11.4-21.2c0.6-4.2,0.5-4.2-17-19.2
		C672.4,373,668.3,370,667.6,370z M835.6,377.1c-10.9,0.2-11.2,0.2-20.1,4.3c-10.2,4.8-15.7,10.4-26.9,27.2
		c-5.4,8.2-13.4,20.2-17.7,26.7c-4.4,6.5-7.9,12.3-7.9,12.8s1.2,1.1,2.8,1.5c1.5,0.3,4,1,5.5,1.5c4.8,1.5,7.6-1.2,18-16.3
		c14.1-20.5,27.8-33.1,40.2-36.9c3.9-1.2,7.5-2.6,8.2-3.1c0.6-0.5,3-4,5.3-7.9c3.5-5.7,4-7.2,3-8.4C845,377.4,842.6,377,835.6,377.1
		z M698.1,398c-0.4,0-2.1,2.9-3.9,6.5c-2,4.1-6,9.4-10.7,14.4c-4.1,4.3-7.5,8.1-7.5,8.5c0,0.3,0.7,0.6,1.5,0.6
		c0.9,0,3.8,1.1,6.5,2.5c2.7,1.4,5.5,2.5,6.2,2.5c0.8,0,5.5-4.2,10.6-9.3c8.6-8.6,9.3-9.6,8.6-12.3c-0.4-1.6-3-5.2-5.7-8.1
		C700.9,400.4,698.4,398,698.1,398z M832.5,400c-3.8,0-15.8,6.6-20.2,11.2c-11.1,11.4-33.3,40-33.3,42.9c0,4.4,4.5,1.9,16.2-9
		c11.7-10.9,17.3-14.9,23.9-17c5.5-1.8,7.4-4.6,11.7-16.9C834.8,400.1,834.8,400,832.5,400z M712.6,417c-0.6,0.1-1.6,0.6-2.3,1.3
		c-0.7,0.7-4.6,4.6-8.7,8.7l-7.5,7.5l3.7,1.9c10.7,5.5,33.4,12.6,40.3,12.6c2.2,0,2-0.3-1.7-4.3c-2.2-2.3-8.2-9.5-13.4-16
		C717.9,422.3,713.2,417,712.6,417z M644.9,422c-2.9,0-3,0.1-2.4,3.2c0.4,1.8,2.5,7.7,4.7,13.3c9.7,24.3,12.1,28.8,18.9,34.4
		c8.8,7.2,7.8,7.9-7.7,5.1l-4.1-0.7l-2.6,19.1c-1.5,10.5-2.7,22.7-2.8,27.1c-0.1,9,2.3,19.5,5.1,22c1.6,1.4,1.9,1.4,3.8-0.2
		c1.2-1,2.3-3,2.6-4.4c0.5-3,6-14.3,8.8-17.9c9.3-12.2,18.1-29.5,20.3-40.2c1.7-7.8,2-18.5,0.6-22.1c-0.5-1.3-1.2-4-1.5-6.1
		c-0.7-4.2-3.1-9.3-7.7-16c-5-7.6-10.6-10.8-25.1-14.6C651.5,422.9,646.6,422,644.9,422z M822.9,429.1c-3.9,0.1-18.9,11.4-33.6,25.3
		l-6.3,5.9v8.8c0,4.9,0.5,9.1,1,9.4c0.6,0.4,4.1-0.1,7.8-1.1c4.5-1.2,10.8-1.8,19.4-1.8l12.6-0.1l-0.6-3c-0.9-4.4-0.8-23.5,0.2-34.3
		C824.1,430.7,824,429,822.9,429.1z M683.4,436.5c0.9,1.4,2.2,3.5,3,4.7c0.8,1.3,2.9,5.8,4.6,10.1c2.7,6.8,3.1,9,3.1,17
		c0,8.7-2.6,22.1-5.2,26.9c-0.5,1-0.7,1.8-0.4,1.8s-0.6,2.1-2.1,4.7c-6.5,11.6-11,19-12.9,21.5c-5.1,6.8-6.2,8.7-9.1,16.7
		c-2.3,6.5-3.6,8.9-5.7,10.1c-4.5,2.5-7.7,0-10.6-8.5c-2.9-8.5-3.2-20.9-0.8-38.5c2.5-18.7,3-29.2,1.5-30.1
		c-2.2-1.5-2.5-1.1-3.2,4.3c-1.2,8.6-3.2,14.9-7.6,23.3c-2.2,4.4-4.8,10.7-5.7,14c-2,7.6-6.2,18.3-10.3,26c-3,5.6-3.2,6.4-2.6,13.3
		c0.6,7.7-0.3,11-4.1,14.4c-1.7,1.6-2,1.6-5-0.3c-2.9-1.8-7.3-9.2-7.3-12.2c0-0.7-0.4-1.7-0.9-2.2c-0.9-1.1-6.2-16.4-8.1-23.3
		l-1.1-4.3l-8.2,5.7c-4.5,3.2-9.3,6.8-10.8,8.1c-3.4,3.1-4.9,2.9-4.5-0.5c0.6-4.8,3.2-9.5,9.9-17.7c3.6-4.4,6.1-8.2,5.6-8.3
		c-0.6-0.2-4.7,0.3-9.2,1.2c-6.7,1.3-9.7,1.4-16.2,0.6c-17.9-2.4-27.5-3-30.2-1.9c-1.5,0.6-4.7,2.6-7,4.5
		c-4.7,3.9-12.1,8.2-19.5,11.6c-2.7,1.2-4.8,2.8-4.8,3.5c0,0.8,0.9,3.2,2,5.3c1.1,2.2,1.8,4,1.4,4c-0.3,0,0.1,1,0.9,2.3
		c0.8,1.3,2.9,7,4.7,12.8c1.7,5.7,3.8,12.3,4.6,14.7c2.1,6.5,2.1,6.5-4.6,5.7c-3.3-0.4-6-0.3-6,0.1c0,0.4,0.9,1.8,2.1,3
		c1.2,1.2,1.9,2.8,1.7,3.5c-0.2,0.7-2.7-0.7-6.2-3.5c-8.5-7-15.4-9-22.5-6.5c-5.1,1.8-6.6,5.7-6.6,17.9c0.1,9.6,0.3,11,3.1,17
		c5.9,12.5,17.3,21.7,28.3,22.8c3.9,0.3,4.9,0.1,5.5-1.3c0.3-0.9,0.4-2.1,0-2.6c-0.3-0.5-0.2-0.9,0.3-0.9c0.4,0,1.9,1.9,3.3,4.2
		c3.9,6.3,8.2,8.6,19.1,10.2c8.6,1.2,9.2,1.4,6.6,2.5c-7.2,2.9-19.1,0.1-23.4-5.6c-2.5-3.3-3-3.5-7.1-3c-7.5,0.8-14.3,9.6-12.6,16.4
		c0.8,2.9,1.3,2.9,16.3-0.2l12.2-2.5l4.2,3.1c13.9,10.2,31.9,17.8,48.1,20.4c13.5,2.2,22.8,1.4,36.8-3.1c2.3-0.7,3.6-3.2,4.4-8.1
		c0.3-2.1,0.8-4.1,1-4.5c1.2-1.9,4.6-21.5,5.1-29.1c0.6-10.5,0.2-11.2-9.9-15.9c-4.6-2.1-6.5-3.5-5.9-4.1c1.2-1.2,18.8,7.1,21,9.7
		c0.8,0.9,3.8,3,6.8,4.7c6.8,3.9,8.8,3.3,11.4-3.6c2.7-7.2,2.5-15.9-0.6-24.2l-2.6-6.7l2.7,2.4c3.4,3.3,4.3,5,5.4,11.2
		c0.6,2.9,1.7,6.6,2.4,8.3c0.8,1.6,3.7,7.9,6.5,13.8c2.8,6,5.1,11,5.1,11.2c0,0.2,1.4,3.3,3,7l3,6.7l4.8-2.8
		c10.7-6.2,22.6-15,27.5-20.4c7.9-8.7,14.4-20.6,21.9-40c3.8-9.6,7.6-19.1,8.4-21c0.9-1.9,1.8-4.3,1.9-5.2c0.2-0.9,1.7-4.5,3.3-8
		s3.4-8,4.1-10c1.1-3.4,6.1-8.8,8.1-8.8c0.5,0,3.1-3,5.7-6.8c2.6-3.7,6.2-8.6,7.9-10.9c13.5-17.8,20.4-43.3,14.4-53.1
		c-2.6-4.3-7.6-7.2-12.4-7.2c-3.5,0-3.8,0.2-3.2,2.3c0.3,1.3,0.6,6,0.7,10.5c0.1,7.6-0.1,8.5-3.1,13.2c-6.5,10.2-11.7,12.1-16.9,6.3
		c-2.2-2.6-2.3-3.2-1.7-11.1c0.7-9.5-0.5-15.5-3.7-19c-2.4-2.6-7.2-5.4-7.9-4.7c-0.2,0.3,0.6,3.8,2,7.7c3.4,10.1,2.7,15.6-3.3,27.3
		c-2.5,4.9-7.1,12.5-10.1,16.7c-4.6,6.5-5.9,7.8-8.2,7.8s-3.2-0.8-5-4.5c-2.6-5.3-2.9-16.5-1.1-31.9c1.1-8.6,1-9.8-1.1-16.7
		c-2.6-8.7-9.3-18.7-14.5-21.8C682.7,433.3,681.4,433.4,683.4,436.5z M699,442.6c0,0.2,1.5,2.7,3.3,5.6l3.2,5.3v25.1
		c0,19.8,0.3,25.4,1.4,26.7c0.7,1,1.7,1.7,2.1,1.7c1.2,0,13.1-15.7,16.4-21.5c2.5-4.5,2.7-5.9,2.8-15.1c0-12.5-2.1-18-8-20.9
		C716.3,447.6,699,441.9,699,442.6z M747.3,454.3l-5.1,1l0.5,13.1c0.7,15.1,1.3,17.6,4.5,17.6c4.5,0,8.4-3.5,9.7-8.6
		c2-7.7,2.6-21.1,1.1-22.9C756.6,452.8,754.9,452.8,747.3,454.3z M399.3,470c-11.9,0-11.9,0-7.9,8.6c2.9,6.3,4.3,7.3,5.2,3.9
		c0.7-2.8,2.4-3.4,2.4-0.8c0.1,1,0.7,2.9,1.5,4.3c1.4,2.6,1.7,2.4,2.9-3.2c0.3-1.4,2.1-4.7,4-7.1c1.9-2.5,3.2-4.8,2.9-5.1
		C409.9,470.3,405,470,399.3,470z M809.2,479.1c-18.7,0.2-21.6,0.7-25.5,4.3c-5,4.6-3.9,5.2,10.1,5.9c10.1,0.6,14.6,1.3,22.1,3.7
		c5.1,1.7,9.5,3,9.7,3s0.1-1.2-0.2-2.8c-0.2-1.5-0.6-4.7-0.7-7.2c-0.1-2.5-0.6-5.1-1-5.8C823.1,479.3,819.2,479,809.2,479.1z
		 M787.6,491c-5.7,0-7.7,1.8-13.2,11.9l-3.5,6.4l2.9-0.6c1.6-0.3,6.2-0.9,10.3-1.2c7.9-0.7,11.2,0.2,35.4,9.4
		c4.4,1.7,8.3,3.1,8.7,3.1c0.4,0,0.5-1.5,0.3-3.3c-0.3-1.7-0.7-5.8-1-8.9c-0.4-3.2-1.4-6.7-2.3-7.8c-1.9-2.3-11.4-5.2-24.7-7.6
		C796.1,491.6,790.3,491,787.6,491z M630.2,511.1c-0.4,0-3.6,1.8-7.2,4c-3.6,2.1-7.4,3.9-8.5,3.9c-1.1,0-5.4,1-9.5,2.3
		c-9,2.7-9.1,3.1-4.7,15.6c1.6,4.7,3.1,9.4,3.3,10.4c0.2,1.1,1.5,5.1,3,8.9c1.9,4.9,3.3,7.3,5.1,8.1c3.5,1.5,4.2-0.2,4.1-9.3
		c-0.1-7.4,2-14.9,6.7-24.5c0.8-1.7,3-6.7,4.9-11.3C629.3,514.7,630.5,511,630.2,511.1z M484.8,535.6c-10.9,3.4-16.6,17.2-12.7,30.5
		l1.2,3.8l6.1-0.6c5.4-0.5,6.9-0.2,11.4,2.1c5.3,2.7,7.7,3,13.1,2c2.9-0.6,3.1-0.9,3.1-5.2c0-3.4-1.5-7.9-5.9-17.6
		c-3.2-7.2-6.1-13.9-6.4-14.9C494,533.7,491.3,533.6,484.8,535.6z M649.6,615c-0.6,0-0.9,2.5-1,7.5c0,1.1,1.2,5.8,2.6,10.5
		c1.5,4.7,3,10.1,3.3,12c0.3,1.9,1.7,7.8,3.1,13c1.4,5.2,3,11.3,3.6,13.5c1.1,4.4,9.2,21,16.1,33.2c4.2,7.4,7.5,16,9.4,24.7l0.8,3.9
		l2.8-4c4.8-6.9,5.8-20.1,2.4-29.9c-2-5.6-5.8-13-13.7-26.4c-3.7-6.3-7.4-12.9-8.2-14.5c-9.3-18-12.6-25-18.2-37.8
		C651.2,617.6,649.9,615,649.6,615z M624.6,626.2c-0.4,2.4-1.3,9.2-2.2,15.3c-0.9,6-1.6,11.7-1.7,12.5c0,0.8-1.3,7.8-2.9,15.5
		c-2.9,14.1-3.8,26.6-2.3,35.5c1.7,10.5,10.8,24.6,20,31c4.2,2.9,10.1,5.1,9.3,3.4c-10.6-21.8-11.7-24.7-14.4-37.9
		c-2.7-13.5-2.9-28.1-0.5-44.3c1.1-7.9,2.1-18.1,2.1-22.6c0-7.3-0.3-8.5-2.3-10.4C626.3,621,625.2,621.5,624.6,626.2z M646.1,626.7
		c-0.3-0.2-2.8,0.2-5.6,0.8l-5,1.1l-0.6,9.5c-0.4,5.1-1.2,12-1.8,15.2c-1.5,8-1.5,38-0.1,44.2c4.3,17.8,10.1,32.1,18.1,44.5
		c5.8,9,13.7,18,15.9,18c4.6,0,11.4-9.7,14-20c2.6-9.8-1.3-23.7-13.4-47.5c-4.2-8.3-7.6-15.1-7.5-15.3c0-0.1-1.1-3.8-2.6-8.1
		c-1.4-4.3-2.8-9.2-3.1-10.7c-0.2-1.6-1.6-7.4-3-12.9c-1.4-5.5-3-11.9-3.6-14.3C647.2,628.9,646.4,626.8,646.1,626.7z M315.8,664.2
		c-4.1,4.1-8.3,11.9-9.4,17.6c-0.6,3.1-0.6,3.2,1.8,2c1.3-0.7,4.7-3,7.5-5.1c2.8-2,6.8-4.4,8.9-5.3c5.6-2.4,16-4.4,22.4-4.4
		c6.8,0,22.3,2.5,28.7,4.6c2.6,0.8,6.7,2.1,9.1,2.9c7.4,2.4,4.5,0-5.5-4.8c-15.8-7.3-26.6-10.7-37.8-11.7
		C324.3,658.4,321.1,658.9,315.8,664.2z M342.1,673.1c-12.7,1.6-23.7,6.4-34.2,15.1c-5.3,4.4-7.4,8.4-6.6,13.2
		c0.5,3.2,8.2,22.4,9.5,23.8c0.4,0.3,3.6-1.6,7.1-4.3c11.7-8.8,28-16.1,43.8-19.4c7.5-1.6,42.7-2,50.1-0.6c2.3,0.5,4.2,0.6,4.2,0.2
		c-0.1-1.4-5.9-7.1-11.6-11.4c-6.8-5.1-19.8-11.2-27.1-12.7c-2.6-0.6-8.4-1.7-12.8-2.4C352.9,672.5,349.2,672.3,342.1,673.1z
		 M416,683.5c0.7,0.8,0.9,1.5,0.5,1.5s-0.2,0.7,0.5,1.5c1.3,1.5,7,2.1,7,0.7c0-0.4-1.8-1.7-4-3C415.5,681.6,414.3,681.4,416,683.5z
		 M418.7,692.3c-1.6,1.1-1.6,1.5,0.5,5.7c2,3.9,2.9,4.6,6.8,5.6c7.4,1.8,13,2.5,13,1.6c0-2.7-6.6-9.6-11.3-11.8
		C421.7,690.6,421,690.6,418.7,692.3z M383,702.7c-6.7,0.6-25.8,4-32,5.8c-3,0.9-7,2-8.9,2.5c-6.6,1.7-16.4,7.3-22.4,12.9
		c-5.1,4.8-6,6.3-6.1,9.2c0,4.5,0.9,9.6,3.8,19.9c1.3,4.7,2.7,10.2,3,12.2c0.9,5.1,4.1,7.3,13.2,8.8c16.8,2.9,31.6-2.8,53-20.2
		c8.3-6.7,22.2-21.3,23.5-24.6c0.5-1.3,2-3.8,3.4-5.6c3.7-4.9,7.1-17.6,4.8-17.6c-0.5,0-6.2-0.9-12.8-2
		C393.8,702,392.2,702,383,702.7z M423.7,706.7c-0.2,0.4-0.8,6.3-1.2,13l-0.7,12.1l5.4,3.5c2.9,1.9,7.7,6,10.7,9.2l5.4,5.7l1.8-2.3
		c4.2-5.6,4.9-15,1.8-24.1c-2.7-8.2-5.1-11.4-10.8-14.2C430.8,706.9,424.5,705.4,423.7,706.7z M418.8,724.2
		c-0.4-1.9-6.9,5.4-16.1,17.7c-6.4,8.7-18.7,19.7-29.3,26.1c-6.6,4-22.8,11-25.4,11c-2.7,0-2.4,1.1,1.1,3.9
		c12.5,9.9,33.4,5,49.6-11.6c8.5-8.6,15.9-23.6,18.9-38.1C418.4,729.1,419,725.1,418.8,724.2z M424.5,736.6
		c-2.2-0.6-4.5,0.9-4.5,3.1c0,0.8-0.8,3.8-1.9,6.7c-2.4,7-2.1,11.6,1.2,15.6c1.9,2.2,2.7,4.4,2.8,7.3c0.2,5.2,0.2,4.8-0.7,7
		c-0.6,1.7-0.5,1.8,3.2,0.3c5.4-2.2,11.8-9.4,13.4-15.2c2.2-7.8-1.7-18.2-8.3-22.2C427.9,738.1,425.6,737,424.5,736.6z"/>
	<path d="M303,468.2c-0.1,1.7-6,9.5-6,7.9c0-0.7,1-3.1,2.2-5.2C301.4,467,303,465.9,303,468.2z"/>
	<path d="M487.2,501.1c1.3-0.2,2,2.1,1,3.1c-0.8,0.8,0.6,2.1,4.8,4.6c5.7,3.4,7.4,5.2,4.8,5.2c-0.6,0-0.3,0.6,0.8,1.4
		c3.6,2.7,0.6,2.8-4.5,0.2c-2.8-1.4-5.4-2.6-6-2.6c-0.5,0-4.2,3.3-8.2,7.3c-7.2,7.1-20.3,15.7-24,15.7c-2.8,0-12.6-9.6-14-13.8
		c-1.3-4-5.3-9.9-8.2-12c-2.6-2-1.1-3.2,4.1-3.2c2.6,0,9.4-0.7,15.2-1.5c5.8-0.9,15.7-2.2,22-2.9
		C481.3,501.8,486.8,501.2,487.2,501.1z M458.5,508.5c-0.5,0.1-4.9,0.9-9.7,1.6c-4.9,0.7-8.8,1.5-8.8,1.8c0,0.3,1.7,3.7,3.8,7.6
		c2.5,4.6,5.2,8.1,8.2,10.3l4.4,3.4l1.1-4.9c1.3-5.8,4.4-11.2,7.7-13.3c4.9-3.1,7.1-4,10.2-4c4.3,0,7.7-1,7-2.1
		C481.9,508.1,460.9,507.7,458.5,508.5z M465.2,518.3c-2.1,2.2-3.5,4.8-3.9,7.3l-0.6,3.9l3-4c1.6-2.2,3.9-5.5,5.2-7.3
		C471.9,513.8,469.5,513.9,465.2,518.3z"/>
	<path d="M230.7,543.6c4.5,3.4,3.6,4.2-1.1,1c-4.8-3.2-16.1-5.7-26.4-5.9c-8.2-0.1-9.9-1.1-3.2-2
		C209.9,535.4,224.2,538.6,230.7,543.6z"/>
	<path d="M243.5,541c1.4,0,12.5,25.1,12.5,28.2c0,0.5-0.6,0.8-1.4,0.8c-0.8,0-2-1.7-2.7-3.8c-0.6-2-2.2-5.8-3.6-8.5
		c-1.3-2.6-2.1-4.7-1.8-4.7c0.3,0-0.6-2.3-2-5c-1.4-2.8-2.3-5.5-2-6C242.9,541.4,243.3,541,243.5,541z"/>
	<path d="M156.5,570.1c-8.8,8.9-19.5,18.3-19.5,17c0-1.6,13.7-15.8,19-19.7C162.9,562.3,163.1,563.4,156.5,570.1z"/>
	<path d="M263.7,590c0.3,0.8,2.3,5.2,4.5,9.8c2.1,4.6,3.3,8.2,2.6,8c-2-0.7-6.8-10.4-7.3-14.9C263.2,590.5,263.3,589.2,263.7,590z"
		/>
	<path d="M524.5,536.1h2.8c7.9-0.2,17.2,8.1,20.2,18c1.1,3.5,2,9,2,12.2v5.8l3.6-4.2c4.6-5.4,6.4-3.5,1.9,2.1
		c-2.8,3.5-11.9,11-13.4,11c-0.4,0-2.4,1.1-4.6,2.5c-7.4,4.7-11.2,2.6-14.9-8.3c-3.8-11.1-2.1-21.1,4.9-29.6c2.2-2.6,4-5.1,4-5.5
		c0-0.4-1.5-1.5-3.2-2.4L524.5,536.1z M532.3,543.5c-2.1,1.5-2.1,1.5-0.3,5c1.4,2.8,1.6,4.3,0.9,6.8c-1,3.8-6.1,8.7-9,8.7
		c-1.8,0-1.9,0.4-1.4,3.7c2,11.5,3.3,13.3,9.9,13.3c4.7,0,9.9-3.5,12.7-8.4c2.1-3.8,2.2-4.3,1-11.4c-1.5-8.8-3.5-14.9-5.8-17.4
		C538.3,541.6,535.2,541.5,532.3,543.5z"/>
</g>
</svg>
