<?xml version="1.0" encoding="utf-8"?>
<!-- Generator: Adobe Illustrator 21.0.0, SVG Export Plug-In . SVG Version: 6.00 Build 0)  -->
<svg version="1.1" baseProfile="tiny"
	 id="svg98" inkscape:version="0.92.2 5c3e80d, 2017-08-06" sodipodi:docname="54.svg" xmlns:cc="http://creativecommons.org/ns#" xmlns:dc="http://purl.org/dc/elements/1.1/" xmlns:inkscape="http://www.inkscape.org/namespaces/inkscape" xmlns:rdf="http://www.w3.org/1999/02/22-rdf-syntax-ns#" xmlns:sodipodi="http://sodipodi.sourceforge.net/DTD/sodipodi-0.dtd" xmlns:svg="http://www.w3.org/2000/svg"
	 xmlns="http://www.w3.org/2000/svg" xmlns:xlink="http://www.w3.org/1999/xlink" x="0px" y="0px" viewBox="0 0 850 850"
	 xml:space="preserve">
<sodipodi:namedview  bordercolor="#666666" borderopacity="1" gridtolerance="10" guidetolerance="10" id="namedview100" inkscape:current-layer="svg98" inkscape:cx="466.89452" inkscape:cy="643.27657" inkscape:pageopacity="0" inkscape:pageshadow="2" inkscape:window-height="978" inkscape:window-maximized="1" inkscape:window-width="1920" inkscape:window-x="0" inkscape:window-y="1" inkscape:zoom="0.83294118" objecttolerance="10" pagecolor="#ffffff" showgrid="false">
	</sodipodi:namedview>
<g id="g96" transform="translate(0.000000,0.000000) scale(1.00000,1.00000)">
	<path id="path4" fill="none" d="M0,0l210.3,0.1C325.9,0.2,418.4,0.6,415.9,1c-22.5,3.8-42.2,14.2-59.4,31.5
		c-14.2,14.1-23.7,29.7-30.1,49.3c-12.4,37.8-7.9,79.9,11.8,109.3c3.2,4.8,5.8,9.1,5.8,9.6c0,0.6-2.3,4.8-5.2,9.4
		c-2.8,4.6-5.9,10.9-6.8,13.9l-1.8,5.4l-19.8,3.8c-40.8,7.8-49.3,13.1-56.9,35.1c-3.7,10.6-5.4,12.3-22.2,21.8
		c-11.1,6.2-19.5,13.5-22.5,19.2c-2.8,5.7-3,14.7-0.2,18.4c3.2,4.3,7.7,6.9,16,9.4c14,4.2,15.1,7,8,21.5
		c-5.4,11.1-6.1,14.1-4.5,19.4c1.7,5.5,7,10.8,15.3,15c7.5,3.9,13.6,9.8,13.6,13.3c0,1.2,0.5,3.9,1,5.9c2.5,8.7,10.3,4,11.5-6.9
		c1.8-16.3,5.2-20.6,18.8-24.2c9.7-2.6,17.5-6,20-8.9c1.7-1.9,2.1-1.9,5.2-0.6c2.1,0.8,6.9,1.4,12,1.4c7.3,0,11.3,0.8,13.4,2.6
		c0.2,0.2-2.7,3.4-6.4,7.1c-22.3,22.1-34.3,49.5-37.7,85.8c-3.4,37.9,9.7,91.2,37.4,151.4c14.7,31.9,18.1,43.1,18.2,58.6
		c0,14.4-3.2,23.2-9.8,26.4c-6.9,3.3-17.9-5-24.1-18.2c-5.4-11.1-7.3-22.1-9-51.6c-1.8-30-3.1-36.4-9.8-49.7
		c-6.6-13-13.7-22.6-25.6-34.5C261,539.9,253.3,535,247,535c-3.9,0-4.9,2.4-2.2,5.3c3.4,3.7,4.4,7.7,4.9,20.3
		c0.7,14.5-1,23.3-6.3,34.5c-4.9,10.3-12.1,19.5-30.3,38.7c-27.5,29.1-32.3,34.5-40.2,45.1c-13.7,18.4-21.6,36.4-25.4,57.5
		c-3.5,19.6-0.6,44.1,7.8,64.9c5.3,13.1,24.6,45.4,28.5,47.6c1.1,0.7-29.2,1-91,1.1H0V425V0z"/>
	<path id="path6" fill="none" d="M443.5,0.2l203.3-0.1L850,0v425v425H520H190v-4c0-2.2-1.4-8.1-3.2-13.2c-3-8.7-3.2-10.1-3.2-22.8
		c0.1-16,2.1-24.8,8.5-37.9c7.7-15.6,22.2-27.4,42.5-34.7c15.6-5.6,25.1-6.6,64.4-6.9c37.1-0.3,48.3-1.4,61-6.5
		c20.8-8.2,32.2-20.4,39.6-42.5c4.1-12.4,5.6-21.1,8.9-50.7c2.8-26.3,3.6-31.4,7-44.8c5.3-20.8,16-44.7,38.2-85.2
		c16.3-29.8,32.7-62.5,41.1-81.8c8.9-20.5,21.9-54.2,25.1-64.9c1.7-5.7,3.3-10.7,3.6-11s3.1,2.1,6.1,5.3c3.4,3.5,7.7,6.8,11.2,8.4
		c5.1,2.4,6.9,2.7,16.7,2.7h11l15.3-6.3c8.4-3.4,15.6-6.2,16-6.2c0.4,0.1,2.7,2.8,5.2,6.1c8.2,11.1,18.9,17.1,30.5,17.3
		c5.9,0.1,7.5-0.3,10.5-2.4c1.9-1.3,4.1-3.1,4.8-4c2.8-3.3,7.3-13.3,8.3-18.2c1.6-8.1,2.6-9.7,7.2-11.8c5-2.3,7.7-2.5,7.7-0.6
		c0,0.7,0.9,2.5,2.1,4c5.5,7,13.5,0.7,21.3-16.8c6.4-14.4,7-19.9,2.7-27.8c-2.3-4.3-3.1-7.1-3.1-10.9c0-8.7-5.1-14.3-15-16.4
		c-5-1.1-5.1-1.2-3.5-5.2c3-7.2,1.4-12.9-4.4-15.3c-2.8-1.1-3.6-0.9-8.5,1.9l-5.5,3.1l-2.1-2.8c-3.9-5-9.1-8.2-13.2-8.2
		c-6,0-10.3,2.4-19.1,10.6c-9.6,9-12.5,10.4-21,10.4c-5.4,0-7.3-0.5-12-3.3c-5.5-3.1-7-4.7-4.4-4.7c0.7,0,2.9-1.1,5-2.5
		c3.2-2.2,3.7-3.1,3.7-6.4c0-5.8-2.6-7.6-10.9-7.5c-3.6,0-10.4,0.8-15,1.8c-4.6,0.9-8.6,1.4-8.9,1.1c-0.3-0.3,1-2.2,3-4.3
		c6.3-6.6,7.2-9.3,7-22.1c-0.3-14.6,0.8-18.3,11.4-38.7c11.2-21.4,12.7-27.1,12.7-47.4c0-12.4-0.4-17.5-2.3-25.5
		c-6.8-30.4-23.1-56.8-45-72.9C532,15,511.1,8.8,497,12.1c-4.1,0.9-5.6,0.6-18-3.5c-7.4-2.5-18.4-5.5-24.5-6.5L443.5,0.2z"/>
	<path id="path8" fill="#1E90FF" d="M456.5,8.5c4.4,0.9,13,3.3,19,5.3c10.7,3.6,11.4,3.7,26,3.7c14.7,0,15.1,0.1,22.6,3.3
		c19.1,8.2,34.7,21.2,45.6,37.8c5.3,8.1,13.9,26.1,13,27.1c-0.2,0.2-3.3-2.4-6.9-5.7c-4.7-4.2-9.9-11-18.1-23.3
		c-15.5-23.5-23.9-30.8-38.9-33.9c-4.7-1-7.3-0.9-16.2,0.7c-11.3,1.9-16.3,4.3-6,2.8c3.3-0.4,10.4-0.8,15.9-0.8
		c9.2,0,10.5,0.3,16,3.2c8.3,4.3,15.7,12.5,27.1,29.9c7.1,10.9,12.3,17.4,19.2,24.4c5.1,5.2,10,10.6,10.7,12
		c4.8,9.3,6.3,38.5,2.7,52.1c-1.8,6.7-14.4,33.9-15.7,33.9c-0.3,0,0.7-3,2.1-6.8c5.8-14.6,7.6-22.3,7.7-32.2
		c0.2-18.7-5.3-31.6-18.4-42.9C546.7,84.3,546.8,84.4,544,70c-2.2-11.3-3.2-13.8-7.7-20.2c-4.5-6.2-11.2-11-20.7-14.8
		c-11-4.4-11.4-3.3-0.6,1.9c16.5,7.9,23.3,16.7,26.5,34.5c2.5,13.5,4,15.9,17.7,27.4c14.9,12.6,19.9,22.9,20,41.7
		c0.1,11.9-1.6,19.4-7.2,33.4c-4.8,11.8-7.2,26.6-6.3,38.4c0.8,10.2-0.6,13.7-8.9,22.4c-3.8,4-7.8,9.4-8.9,11.8
		c-1.6,3.7-3.5,5.6-10.2,10c-7.1,4.8-8.4,5.3-9.3,4c-1.3-1.7-0.6-6.5,1.5-10.2c0.6-1.2,4.2-4.2,7.9-6.6c8.3-5.4,13.6-10.8,16.8-16.9
		c3-5.8,4.7-12.9,3.3-14.2c-0.6-0.6-0.9-0.4-0.9,0.7c0,0.9-0.9,4.1-2.1,7.2c-2.6,6.9-10.1,15.2-19.2,21.4
		c-6.8,4.5-8.7,6.7-10.7,12.5l-1.1,3l-2.6-2.7c-1.5-1.4-2.5-2.8-2.2-2.9C536,240,546,229,550.3,217.2c1.7-4.9,2.1-8.1,2.1-21.9
		c0.1-8.8-0.3-15.9-0.7-15.6c-2,1.2,0.2-13.1,3.7-24.2c2-6.6,4-14.1,4.3-16.8c0.3-2.6,0.9-4.7,1.4-4.7c0.4,0,1.6,2.1,2.6,4.7
		c1.3,3.5,1.8,7.4,1.8,14.3c0,8.9-0.3,10.1-4.2,19.2c-3.9,9.1-4.2,10.8-2.1,10.8c1.5,0,7.7-14.3,9.4-21.7
		c3.2-13.7-0.5-28.5-9.1-36.1c-2.5-2.2-8.1-5.3-13.7-7.6c-5.2-2.1-10.8-4.8-12.3-6l-2.7-2.2l1.7-3.9c2.1-5.2,3.4-16,2.5-21l-0.7-4
		l-0.6,3.5c-0.3,1.9-0.9,5.7-1.3,8.5c-1.6,12.8-7.1,21-19.9,29.9c-5.2,3.6-9.7,6.6-9.8,6.6c-0.2,0,0.7-3.7,2-8.3
		c1.8-6.1,2.3-9.7,2-14.1l-0.5-5.8l5.3-5.3c7.3-7.4,11.8-16.8,12.3-25.8c0.5-8.1-1.2-8.6-2.1-0.7c-1,8.6-4.9,15.5-13.5,23.9
		c-9.2,9.1-14.9,12.2-39.8,22c-20,7.9-27.6,12.2-37.2,21.5c-15.7,15-23.5,34.1-23.5,57.1c0,12.7,1.8,21.4,6.6,31.9
		c2.8,6.2,3.2,8.1,3.2,15.6c0,6.6-0.5,9.5-2.2,13l-2.1,4.5l0.1-12.6l0.2-12.6l-7.8-15.4c-10.7-21.2-12.7-31.5-9.1-48.6
		c3.5-16.9,10.4-30.1,22.3-42.6c10.1-10.6,16-14.6,39.1-26.7c22.3-11.8,26.6-14.5,33.5-21.5c9-9.1,12.7-19,11.1-29.9
		c-1.1-7.2-2.1-5.4-2.1,3.6c0,6.7-0.5,9.2-2.4,13.1C492.5,76.8,479.9,86.6,455,99c-8,3.9-17.6,9.2-21.5,11.8
		c-8.9,5.8-22,18.8-27.3,27c-8.4,13.1-13.2,29.1-13.2,44.3c0,14.4,1.5,19.8,9.9,35.9l7.5,14.5l0.1,15c0.1,9,0.6,16.9,1.4,19.7
		c1.4,4.9,0.8,13.2-1,14.3c-0.5,0.4-0.9-1.6-0.9-4.7c-0.1-3.9-0.9-6.7-3-10.8c-3.4-6.3-3.6-8.3-1.4-17.6c1.3-5.6,1.3-7.9,0.3-13.8
		c-1.4-8.8-1.4-8.7-11.1-20.9c-10.3-13-12.5-16.4-16.1-26.2c-2.9-7.6-3-8.8-3.1-23c0-15.6,0.7-20.9,5-35.3
		c7.7-25.8,20.3-42.6,43.4-57.6c6.9-4.5,17.3-11.3,23.2-15.2c5.9-3.8,10.8-7.5,10.8-8.2c0-0.6-0.2-1.2-0.5-1.2
		c-1,0-36.9,23.1-43.5,28.1c-17.5,12.9-29.2,29.9-36.4,52.8c-3.9,12.2-5.8,24.5-5.8,36.6c0.1,20.8,4.5,32,20.1,51.5
		c5.6,6.9,10.1,12.8,10.1,13.2c0,0.5-0.5,0.8-1.1,0.8c-2.1,0-16.5-5.3-21.1-7.7c-4.6-2.5-4.6-2.6-4.6-7.7c0.1-3.8-0.8-7.2-3.5-13.1
		c-12.2-27.7-13.5-31.9-14.4-47.2c-0.8-13.2,0.8-23.1,5.8-35.7c2.1-5.5,3.6-10.2,3.4-10.5c-0.7-0.6-0.8-0.4-3.7,6.4
		c-6.7,15.3-9.1,29.9-7.7,45.5c1,10.7,4.4,21.5,11.3,36.2c6,12.6,7.2,16.9,5.7,19.5c-0.9,1.6-1.4,1.4-4.8-2.4
		c-8.6-9.3-16.1-25.6-19-41.5c-2.2-11.8-2.5-45.6-0.4-56.8c6.3-35,25.6-61.2,55.5-75c12.7-5.9,19.3-7,43.2-7
		c15.2,0,20.5-0.3,19.7-1.1c-0.8-0.8-8.2-1-24.5-0.7c-25.8,0.5-28.2,1-43.3,8.5c-19.1,9.6-35,26.1-44,45.6
		c-9.5,20.6-12.9,43.8-10.6,71.9c1.3,15.5,4.6,29.8,9.1,39.1l3.1,6.2L351,197c-29-31.2-33.5-87.3-10.9-132.3
		c8.4-16.5,25.7-35.6,37.4-41.2c14.4-6.9,35.2-11.5,52.1-11.6c13.6,0,22.4,1.8,37.8,7.6c11.3,4.3,14.3,5,11.4,2.8
		c-1.5-1.2-21-8.4-28.6-10.7c-14.9-4.3-31.4-3-61.6,4.9c-1.2,0.3-0.5-0.3,1.4-1.3c5.4-3,17.9-7,25-8.1C424.1,5.7,447,6.5,456.5,8.5z
		"/>
	<path id="path10" fill="#F5DEB3" d="M502.5,103.3l0.6,2.9c0.8,3.3-0.3,9.5-3.2,19.5c-1.2,3.9-1.9,7.9-1.5,8.9c0.6,1.4,1,1.3,3.9-1
		c1.7-1.4,6.6-4.9,10.7-7.7c4.1-2.9,9.4-6.9,11.6-9.1l4.2-4l4,2.6c2.2,1.4,7.4,3.9,11.6,5.7c10.8,4.5,12.6,6.4,12.6,13.3
		c0,3.5-1.2,9.2-3.1,15.1l-3,9.6l-5.8-5.4c-6.6-6.1-10.8-8.3-18.5-9.9c-4.7-1-5.7-0.9-8.1,0.6c-1.9,1.3-2.5,2.4-2.3,4.4
		c0.3,2.5,0.7,2.7,6.3,3.3c8.1,0.8,15.3,3.3,21.1,7.4l4.9,3.5l-0.3,8.8c-0.2,4.8-0.8,9.1-1.3,9.6c-0.5,0.6-1.9,0.5-3.6-0.3
		c-1.5-0.7-2.2-1.5-1.7-1.9c1.6-1.1,3.8-7.2,2.9-8c-0.4-0.4-1-0.1-1.2,0.5c-0.7,2.1-2.9,1.5-6.3-1.7c-6.1-5.7-19.6-5.1-25.5,1
		c-3.5,3.6-2.8,3.8,2,0.6c4-2.7,11-4.2,15.1-3.2c3.9,1,2,2-4,2.1c-11.9,0.2-19.7,10.6-18.3,24.3c0.7,6.5,3.5,11.1,8.4,13.9
		c8.2,4.6,18.3,3.8,24.8-1.8c4.3-3.8,5.9-8.6,5.2-15.5c-0.5-4.8-0.3-5.4,1.3-5.4c2.5,0,3.4,6.2,2.8,18.6c-0.4,8-1,10.4-3.8,16.1
		c-9.4,18.9-41.2,39.4-61,39.3c-9.4-0.1-12.3-1.3-20.4-8.4c-8.8-7.6-14.7-10.6-22.6-11.2c-3.2-0.3-8.3-1.8-12.2-3.6
		c-6.5-3-6.8-3.3-9.8-10c-5.7-12.8-7.5-21-7.4-34.3c0-9.5,0.5-13.7,2.3-20c4.8-16.8,15-31.4,28.5-40.9c8.1-5.8,13.7-8.5,28.8-13.9
		c13.4-4.9,23.3-9.2,28.3-12.5L502.5,103.3z M443.8,142.3c-4.3,2.5-8.5,6.4-7.7,7.1c0.2,0.2,3.8-0.7,7.9-2.1c9.9-3.4,19.6-4,28-1.9
		c6.1,1.6,6.5,1.6,7.7-0.1c2.6-3.5,0.6-6.6-5.5-8.3C465.6,134.6,453.2,136.8,443.8,142.3z M444.5,161.4c-2.7,1.3-5.9,3.3-7,4.6
		c-2.2,2.6-2.4,2.6,6.5-1.8c3.6-1.8,8-3.2,9.8-3.2c4.7,0,3.6,2.2-1.3,2.7c-9.7,1-16.3,7-18.5,16.7c-3.6,16.4,9.1,28.9,25.1,24.6
		c9.7-2.6,12.9-7.5,12.9-19.7c0.1-7.6,0.1-7.8,3.2-9.8c1.7-1.1,3.4-2.6,3.6-3.4c0.3-0.8,0-1.1-0.7-0.7c-3.2,2-7.1,2.4-8.6,0.9
		c-1.7-1.6-1-3.7,0.9-3c0.8,0.3,1.2-0.7,1.2-2.9c0-2.4-0.4-3.3-1.3-3c-0.7,0.3-3.4-0.6-6-1.9C458.2,158.2,451.3,158.2,444.5,161.4z
		 M484,207c-1.3,2.5-1,2.5,4-0.1c5.1-2.7,10.3-2,12.6,1.7c1.4,2,1.5,3,0.5,5c-1.5,3.4-1.4,3.9,0.5,2.3c4.3-3.6,3.6-9.7-1.5-12.4
		C494.5,200.7,486.5,202.4,484,207z M461.6,221.9c-2.4,2.7-1.4,3.8,2.1,2.2c2.2-1,2.8-1,3.5,0.3c1.5,2.7,9.4,6.6,14.5,7.2
		c5.6,0.7,12.3-1.5,12.3-4.1c0-1.3-0.7-1.5-3.7-0.8c-8.2,1.7-16.8,0-20.2-4c-1-1.3-0.8-1.7,0.9-2.2c1.2-0.4,1.9-1.2,1.7-1.8
		C471.8,216,465.2,217.9,461.6,221.9z"/>
	<path id="path12" fill="#800080" d="M468,181.8c1.2,4.5,0.7,5-2.2,2.3c-4.9-4.6-12-3.9-16.8,1.6c-3,3.4-3.2,4-2.8,9.4l0.4,5.9
		l-2.9-1.8c-4.1-2.3-6.7-7.7-6.7-13.5c0-7.4,3.6-12.9,9.6-14.7C456.7,168,465.4,172.4,468,181.8z"/>
	<path id="path14" fill="#800080" d="M460.4,185.6c4.5,4.5-2.1,12.4-7.3,8.8c-2.8-2-2.7-4.9,0.4-7.9
		C456.3,183.6,458.2,183.4,460.4,185.6z"/>
	<path id="path16" fill="#800080" d="M541,189c1.1,4.2-0.1,9.7-3,13.2l-1.9,2.3l-0.1-4c-0.1-11.4-11.5-16.3-19.6-8.4
		c-1.8,1.7-3.5,4.2-3.9,5.6c-0.8,3.3-2.2,2.1-3-2.6c-1.4-8.1,3-16,9.9-18C530.1,174,538.1,178.4,541,189z"/>
	<path id="path18" fill="#800080" d="M527.4,192.6c2.7,2.6,1.7,5.8-2.5,8c-5.8,3-9.3-2.4-4.7-7.3
		C522.7,190.6,525.2,190.4,527.4,192.6z"/>
	<path id="path20" fill="#FF1493" d="M349.2,201.1l8.2,8.2c10.9,11.1,22,18,36.9,23c2.8,1,2,2.5-2.1,3.8c-2.9,0.8-5.7,0.8-11.2,0
		c-12.9-2-21.8-7.1-27.6-15.7c-1.9-3-3.9-5.2-4.4-4.9c-1.1,0.7,0.5,4.6,4.3,10.3c5.4,8.1,20,14.2,33.8,14.2c4.4,0,7.9,0.4,7.9,1
		c0,1.6-6.1,8-9.3,9.6c-3.3,1.7-7.4,1.4-18.7-1.3c-13.3-3.2-22.8-8.9-27.6-16.4c-4.3-6.9-2.7-9.5,1.8-3c5.1,7.2,15.7,12.5,26.5,13.3
		c6,0.4,5.4-1.6-0.8-2.5c-5.9-0.8-12.7-3.6-18.2-7.4c-3.8-2.6-8.7-9.6-8.7-12.4c0-0.8,1.8-4.1,4-7.4s4.3-7.4,4.6-9.2L349.2,201.1z"
		/>
	<path id="path22" fill="#4169E1" d="M337.4,236.5c2,3.1,1.7,3.6-3.7,7.4c-6.2,4.2-12.5,6-27,7.7c-24.5,2.9-32.3,8.2-39.4,26.8
		c-3.9,10.2-6.7,13.6-15.2,18.6c-10.7,6.2-13.8,11.5-12.8,22.2c0.4,4.7,1.6,7.7,6.1,15.6c7.1,12.4,7.3,15.3,1.6,27
		c-5.2,10.7-6.3,15.3-5.1,19.7l0.9,3.5l-2.7-1.6c-3.7-2.2-6.1-6.4-6.1-10.6c0-2,2-7.3,5-13.3c2.8-5.6,5-11.4,5-13.1
		c0-6.3-7.5-13.3-15.9-14.9c-6.5-1.2-13.1-4.6-14.6-7.6c-2-3.8-1.9-5.6,0.9-11.4c2.7-6,8.7-10.8,22.9-18.9c5.4-3.1,10.8-6.3,12-7.1
		c3.3-2.3,7.3-8.9,10.7-17.8c1.7-4.5,4.3-9.7,5.7-11.5c6.5-8.5,18-13.1,46.4-18.3c9.6-1.7,18.3-3.5,19.4-4
		C334.8,233.6,335.7,233.9,337.4,236.5z"/>
	<path id="path24" fill="#4169E1" d="M401.6,250.3c-1.7,9.9-1.4,12.6,1.7,17c1,1.5,2.3,5.6,2.7,9.1c0.7,6.1,3.8,13.8,6.1,15.2
		c1.5,0.9,2.9-1.4,2.9-4.9c0-1.5,0.3-2.7,0.8-2.7c0.4,0,3.1,4.6,6,10.3c5.5,10.9,6.3,15.2,4.2,22.9c-1.4,5-5.6,9.8-8.6,9.8
		c-5.1,0-10.2,3.2-16.9,10.6c-5.9,6.6-7.8,7.9-16.3,11.9c-5.3,2.5-12.7,6-16.3,7.9l-6.6,3.4l-6.9-2.3c-3.8-1.3-8.2-2.6-9.7-3
		c-1.6-0.3-3.2-1.6-3.9-3c-1.8-4.1,1.7-9,14.5-19.8l11.5-9.8l3.1,1.6c3.6,1.8,3.8,3.4,1.5,11.6c-0.9,3.2-1.4,6.5-1.1,7.4
		c0.9,2.2,4.1,1.9,6.3-0.7c1-1.1,5.6-4.5,10.2-7.5c12.9-8.4,15.5-15.2,8.7-23.3c-1.9-2.3-3.5-5-3.5-6s1.6-5.1,3.5-9.1
		c5.1-10.8,4.9-16-1.7-33.6l-3.1-8.3l4.6-4.5c2.5-2.6,5.2-6.2,5.9-8.1C403.2,236.9,403.3,240.2,401.6,250.3z"/>
	<path id="path26" fill="#EEE8AA" d="M588.7,242.6c0.9,2.4-1.4,3.9-11.2,7.7c-19,7.3-19.3,7.7-7.2,7.7c10.7,0,16.2,1.7,26.7,8.3
		c10.7,6.8,11.4,9.1,2.7,9.5c-5.1,0.3-6.5-0.1-10.6-2.7c-4.9-3.2-10.4-3.9-17.6-2.1c-3,0.7-3,0.7-0.5,1.3c1.4,0.3,4.8,0.5,7.5,0.4
		c4.5-0.1,5.8,0.5,12.9,5.2c7.3,5,7.8,5.5,6.1,6.7c-2.5,1.8-12.2,1.8-19.4,0c-3.7-1-6.8-1.2-9.1-0.7l-3.5,0.8l4.2,0.8
		c7,1.2,14.7,7.5,12.8,10.5c-0.3,0.5-4.3,1-9.1,1c-6.5,0-9.4,0.5-12.3,2c-2.1,1-7.2,2.7-11.2,3.6c-8.4,1.9-9.6,3-17.1,14.9
		c-6.6,10.4-16.3,20.4-25.7,26.4c-9,5.7-12.8,7.1-19.1,7.1c-4.4,0-5.2-0.5-12.6-6.9c-11.8-10.2-40.6-41.1-46-49.2
		c-5.8-8.8-11-20.6-11.9-27c-0.9-6.6,1.7-15.3,5.9-19.5c4.5-4.5,10.3-6.1,17.3-4.6c13.3,2.8,20.3,8.4,38,30.4
		c11.5,14.3,13.4,17.1,12.1,17.9c-6.9,3.9-11,10.3-12.4,19.3c-0.9,6.5,1,5.4,3.1-1.9c1.9-6.5,4-9.2,10.8-14.1
		c2.8-2.1,11.8-9.1,19.8-15.5c15.7-12.6,24.1-18.5,40.5-28.4c10-6.1,15-7.9,27.4-9.8C585.6,240.8,588.1,241,588.7,242.6z"/>
	<path id="path28" fill="#1E90FF" d="M342.1,242.1c1.7-0.2,4,3.9,3.4,6.1c-2.7,8.6-8.8,12.4-27.8,17.2c-7.4,1.9-14.8,4.1-16.6,5
		c-7,3.7-14.3,11.9-21.1,24.1c-1.9,3.3-6,8.7-9.2,12.1c-6.3,6.6-8.8,11.4-8.8,16.9c0,5,1.6,3.6,2.2-1.9c0.5-3.9,1.5-5.6,7.1-11.6
		c3.6-3.9,9.3-11.5,12.6-16.9c10.2-16.7,17.1-21.5,37.1-26.1c12.7-2.9,21.3-7.1,24.5-11.8c1.4-2,2.5-4.4,2.5-5.3
		c0-2.6,0.9-2.8,5.1-1.1c4.8,1.9,5.1,4.4,1.2,12.1c-5.8,11.8-19.4,21.1-40.8,28.1c-12.6,4.1-20.1,7.9-24.2,12.2
		c-3.8,3.9-6.3,9.5-6.3,13.8c0,4.4-2.5,8.6-9.1,15.5c-10.5,11-11.9,17.6-6,29.3c4.6,9.1,4.6,10.6,0.7,22.8c-1.9,6-3.8,12.8-4.2,15.1
		c-0.4,2.4-1,4.3-1.5,4.3s-0.9-0.5-0.9-1.1s-3.3-4.6-7.4-8.8c-11.6-12.1-11.7-12.5-4.5-28.8c6.2-13.8,6.3-18,0.9-26.6
		c-7.6-11.9-8.5-14-8.5-19.7c0-8.1,2.4-11.5,12.6-17.7c9.7-6,11.9-8.8,15.4-19.4c5.8-17.3,13.8-22.5,39-25.3
		c16.5-1.9,19.1-2.7,26.2-8.1C338.9,244.1,341.8,242.1,342.1,242.1z"/>
	<path id="path30" fill="#FF4500" d="M659.6,271.7c0.8,5.3,1.9,10.4,2.4,11.4c0.5,0.9,3.3,3.6,6.2,6c8,6.5,14.5,13.4,15.2,16.2
		c0.3,1.5-0.2,4.2-1.5,7.1c-1.1,2.6-1.7,5.5-1.4,6.5c1.2,3.8-3.4,7.1-13,9.6c-10.4,2.7-11.9,4-13.5,12.3c-1.7,8.2-6.1,17.3-10,20.6
		c-3.1,2.6-4,2.8-9.6,2.4c-9.4-0.6-16.7-4.7-22.7-12.8c-8-10.9-12.6-12.3-31.9-9.9c-10.1,1.2-15.6,0.2-19.5-3.7
		c-2.2-2.2-2.5-3.2-2.1-7.9c0.3-4.1,1.4-6.8,4.6-11.7c5-7.6,6.6-12,5.8-15.3c-0.7-2.8-0.4-2.9,6.1-2.5c4.7,0.2,11.3-1.6,11.3-3.1
		c0-0.5-0.6-2.5-1.4-4.3l-1.4-3.4l7.3-0.4c8.7-0.4,12-2.5,11.1-7c-0.5-2.3-0.2-2.8,1.5-2.8c3.9,0,5.9-1.9,5.9-5.5c0-1.8-0.4-3.7-1-4
		c-2.1-1.3-1-3.5,1.7-3.5c4.5,0,10.4-3.6,19.2-11.5c4.5-4.2,9.3-8,10.5-8.5C649.3,242,656.2,250.8,659.6,271.7z M640,260
		c-1.8,0-4,1.9-4,3.4c0,0.6,0.5,0.5,1.2-0.2c1.7-1.7,3.9-1.5,5.4,0.5c1.1,1.5,1.3,1.6,1.4,0.2c0-0.8-0.5-2-1.2-2.7
		C642.1,260.5,640.9,260,640,260z M628,267c-1.5,0-5,3.3-5,4.7s0.4,1.3,2.3-0.5c1.5-1.5,3-2,4.7-1.6c2.4,0.5,2.4,0.5,0.6-1
		C629.5,267.7,628.4,267,628,267z M642.5,272.6c-1.9,1.5-1.8,1.6,1.4,0.9c2.3-0.5,3.6-0.3,4.2,0.6c0.4,0.7,1.1,1,1.5,0.6
		c0.4-0.3,0.1-1.3-0.6-2.2C647.4,270.6,645.1,270.6,642.5,272.6z M612.6,278.1c-2,2.9-1.2,3.8,1.3,1.5c1-1,2.5-1.6,3.3-1.4
		c0.7,0.2,1.5-0.2,1.6-0.7C619.4,275.4,614.2,275.9,612.6,278.1z M631,283c-1.3,0-5.6,3.9-4.3,4c0.6,0,1.5-0.5,1.8-1
		c0.3-0.6,1.8-0.7,3.3-0.3c2.4,0.6,2.6,0.5,1.3-1C632.4,283.7,631.4,283,631,283z M646,288.9c0,0.4,1.6,0.7,3.5,0.7
		c1.9-0.1,3.3-0.6,3.2-1.1C652.1,286.7,646,287,646,288.9z M605.9,289.6c-1.2,1.5-1.2,1.6,0.9,1c1.4-0.5,2.9-0.3,3.9,0.5
		c1.3,1.1,1.5,1.1,1.2-0.6C611.4,287.9,607.7,287.4,605.9,289.6z M650,299.5c-1.4,1.6-0.6,1.8,2.5,0.5c1.3-0.5,2.6-0.3,3.8,0.8
		c1.9,1.7,3.2,1.1,2.4-1.3C657.9,297.5,651.7,297.5,650,299.5z M633.5,300c-0.3,0.6,0.4,1,1.7,1s2.9,0.5,3.6,1.2
		c0.7,0.7,1.2,0.8,1.2,0.2c0-0.6-0.5-1.5-1.2-2.2C637.3,298.7,634.3,298.6,633.5,300z M613.2,301.2c-0.8,1,0,1.3,3.3,1.3
		c3.4,0,4.1-0.2,3.3-1.2C618.5,299.6,614.6,299.6,613.2,301.2z M600.9,307.2c-1.8-0.3-6.9,3.4-6.9,5c0,0.7,1.1,0.1,2.5-1.2
		c2.2-2.1,2.9-2.3,4.6-1.2c1.8,1.2,2,1.1,1.7-0.5C602.6,308.3,601.8,307.4,600.9,307.2z M662.2,309.2c-1.8,1.8-1.5,3.3,0.4,1.7
		c1.3-1,1.9-1,3.6,0c2.4,1.5,3.5,0.7,1.8-1.4C666.5,307.7,663.9,307.5,662.2,309.2z M627,312c0,0.6,0.6,1,1.3,0.7
		c0.6-0.2,2,0,3.1,0.5c1.4,0.8,1.7,0.7,1.4-0.4C632.2,311.2,627,310.4,627,312z M650.8,315.4c-2.6,1.9-2.2,2.7,0.7,1.4
		c1.9-0.9,2.8-0.9,3.7,0c1.9,1.9,3,1.4,1.8-0.8C655.8,313.7,653.3,313.5,650.8,315.4z M581,317.9c-1.6,3.2-1.2,3.6,1.4,1.2
		c1.5-1.4,2.6-1.9,3.1-1.2c0.3,0.6,1.1,1.1,1.7,1.1c0.7,0,0.6-0.6-0.2-1.5C585.3,315.4,582.3,315.6,581,317.9z M607.3,318.7
		c-2.5,1-1.2,1.8,2.6,1.8c3.1,0,3.7-0.2,2.9-1.2C611.7,318,609.5,317.7,607.3,318.7z M637.7,326.7c-1.3,1.3-0.7,2.1,1.2,1.6
		c1-0.3,2.8,0,4,0.6c2.5,1.4,2.7,0.8,0.5-1.3C641.8,326,638.8,325.5,637.7,326.7z M618.8,328.1c-2.6,1.5-2.3,3.2,0.3,1.9
		c1.6-0.9,2.5-0.8,4,0.6c1.7,1.5,1.9,1.5,1.9,0.1c0-0.9-0.9-2.1-1.9-2.7C620.8,326.8,620.9,326.8,618.8,328.1z M628.3,340.2
		c-3.4,1.6-2.8,2.8,0.7,1.5c2.4-0.9,3.5-0.9,5.1,0.1c1.8,1.2,2,1.1,1.7-0.5C635.4,339.2,631.5,338.6,628.3,340.2z"/>
	<path id="path32" fill="#EEE8AA" d="M673.4,252.3c1.8,2.8-5.9,23-8.9,23.1c-0.5,0.1-1.3-2.4-1.6-5.4s-1.1-7.2-1.7-9.2
		c-1.1-4.1-0.6-4.8,5.8-8.7C670.9,249.8,671.9,249.8,673.4,252.3z"/>
	<path id="path34" fill="#1E90FF" d="M364.8,259.3c-0.9,7.5-6.4,17.5-13.7,24.7c-6.5,6.4-8.9,7.8-27.4,16.5
		c-7.1,3.3-16.4,10.1-15.3,11.2c0.2,0.2,2.6-1.1,5.3-3.1c2.6-1.9,10.3-5.9,17.1-8.9c6.7-3,14.7-7.4,17.7-9.6
		c9.7-7.4,18-20.8,19.2-31.3c1.1-9.1,5-4.4,6,7.2c0.7,8.8-1.5,16.3-6.8,23c-6.8,8.6-28.5,21.7-45,27.1c-5.2,1.7-11.7,4.2-14.5,5.5
		c-6,2.8-14.4,11.3-14.4,14.5c0,2.9,3,7.6,7.9,12.2c4.4,4.1,5.8,8.3,4.7,14.1c-1.1,6-3.2,7.4-17.6,12.1c-7.4,2.5-13.5,4.5-13.5,4.5
		s0-3.3,0-7.3c0-6-0.5-8.3-2.8-12.9c-3.1-6.1-4.3-11.4-3.3-15.2c0.3-1.4,4.2-6.3,8.6-11.1c7.7-8.3,10-12.5,10-18.3
		c0-3.6,3.6-9.7,7.6-13c2.2-1.8,8.3-4.6,16.2-7.3c17.8-6,30.7-12.7,37.4-19.2c6.5-6.4,10.5-12.9,11.4-18.6
		C360.8,248.9,365.6,251.9,364.8,259.3z"/>
	<path id="path36" fill="#EEE8AA" d="M515.6,254c1,0,10.4,9.3,10.4,10.3c0,0.6-12.1,10-12.4,9.6c-0.1-0.2-1.7-3.9-3.4-8.2l-3.1-7.7
		l3.7-2C512.8,255,515,254.1,515.6,254z"/>
	<path id="path38" fill="#1E90FF" d="M379.5,259.2c2.4,5.9,2.8,12.1,1.1,18.7c-2.9,11.4-7.2,17.8-18.3,27
		c-3.5,2.8-8.6,8.1-11.5,11.6c-2.8,3.6-8.4,9.2-12.4,12.5c-8.3,6.8-12.5,13.1-13.2,20c-0.6,6.1,1.8,11.2,6.9,14.8
		c2.1,1.5,3.9,3,3.9,3.3s-3.3,0.4-7.2,0.2c-20.1-0.9-21.6-3.4-12.6-22c5.5-11.3,6.3-12.2,25.3-30.4c4.4-4.2,11.2-9.7,15-12.2
		c8.2-5.4,14.5-11.6,17.4-17.3c3.9-7.5,4.8-17.7,2.5-26.9C375.5,254.8,377.8,255.4,379.5,259.2z"/>
	<path id="path40" fill="#4169E1" d="M383.3,256c0.8,0,2,1.5,2.7,3.2c8.6,23.5,8.8,26.4,2.9,37.7c-4.8,9.1-4.7,10.5,0.6,17.2
		c3.8,4.8,4.3,7.3,2,10.6c-1.4,2-7.5,6.3-8.9,6.3c-0.4,0,0-1.3,0.9-3c2-4,1.9-8.3-0.5-13c-2.6-5.2-2.5-6.7,1-14.2
		c2.3-4.9,3-7.7,3-12.6c0-4.8-0.3-6.2-1.5-6.2c-1.1,0-1.5,1.3-1.5,5.2c0,3-0.9,7.1-1.9,9.5c-2.5,5.3-15,18.4-27.1,28.3
		c-12.4,10.2-16.4,14.5-19,20.3c-3.7,8.4-0.9,13,10.5,17.2c4.1,1.5,7.5,3,7.5,3.4s-1.3,1.4-2.9,2.4c-3.8,2.2-7.4,1.1-15.1-4.8
		c-7.2-5.5-9.4-9.3-8.7-14.7c0.7-5.5,4.7-10.7,14.3-18.9c4.6-3.9,9.9-9.2,11.8-11.7c1.9-2.6,7.6-8.6,12.8-13.3
		c11-10.2,15.3-16.8,17.3-26.8c1.5-6.9,1-15-1.2-20.7C382,256.6,382.4,256,383.3,256z"/>
	<path id="path42" fill="#EEE8AA" d="M505.6,264.2c0.6,3.3,0.4,3.6-3.2,5.4c-2.5,1.1-6.8,2-11.7,2.2l-7.8,0.4l-4.2-4.3l-4.1-4.4
		l10.9-0.6c6.2-0.4,12.5-1.3,14.5-2.1C504.1,259,504.9,259.5,505.6,264.2z"/>
	<path id="path44" fill="#EEE8AA" d="M507.7,271c0.1,0,0.9,1.3,1.8,2.9l1.5,3l-7.1,5.8c-3.8,3.2-7.4,5.9-7.8,6.1
		c-0.5,0.2-3.4-2.8-6.5-6.5l-5.7-6.8l8.8-0.6c5.2-0.3,10-1.2,11.8-2.2C506.2,271.8,507.6,271.1,507.7,271z"/>
	<path id="path46" fill="#EEE8AA" d="M682.6,272.1c6.6,1.7,8.7,4.9,7.9,11.9c-1,8.6-2.4,12.9-4.5,14c-5,2.7-8.6-4.4-7.4-14.6
		c0.5-4.1,0.4-5.5-0.4-5c-0.6,0.4-1.4,2.9-1.8,5.6c-0.4,2.8-1.1,5-1.6,5s-3-2-5.6-4.4l-4.6-4.4l3.1-2.6c1.8-1.5,3.5-3.6,3.8-4.6
		C672.2,270.7,675.7,270.4,682.6,272.1z"/>
	<path id="path48" fill="#EEE8AA" d="M548.5,306.6c4.6,1.4,8.6,1.5,11.6,0.5c1.8-0.6,3.4-0.9,3.6-0.7c0.3,0.2-1.8,4.8-4.6,10.1
		c-5.7,10.8-6.3,14.5-3,21.1c1.6,3.4,2.9,4.6,6.6,6c5,1.9,11.9,2.3,20.3,1.1c6.7-0.9,5.7-0.2-8,5.4c-9.1,3.8-11.4,4.3-17.5,4.2
		c-11.2-0.1-17.1-2.9-25.2-11.9c-3.8-4.2-7-8-7.1-8.5c-0.2-0.5,1.4-3.1,3.7-5.8c2.2-2.6,6.1-8.1,8.6-12.2c2.5-4,5.5-7.9,6.8-8.6
		C545.5,306.6,547.4,306.3,548.5,306.6z"/>
	<path id="path50" fill="#20B2AA" d="M434,307.2c1.6,0.7,26.1,27.3,25.3,27.5c-1.6,0.6-13.1-4.5-18.8-8.2c-7.5-5-8.4-6.7-7.8-13.8
		C433,309.5,433.6,307,434,307.2z"/>
	<path id="path52" fill="#4169E1" d="M325.4,321.1c0.5-0.1-1.3,2.3-4,5.1c-3,3.2-6.4,8.6-8.8,13.6l-3.8,8.3l-2.5-2.3
		c-4.4-4.1-6.5-7.7-5.9-10.2c0.8-3.1,9.6-9.1,17.7-12.1C321.6,322.2,324.9,321.1,325.4,321.1z"/>
	<path id="path54" fill="#EEE8AA" d="M431.1,323l3.6,3.5c6.7,6.5,14.8,10.2,28.7,13c1.6,0.3,5.6,3.2,9,6.4c7.7,7.3,9.7,8.4,16.3,8.3
		c6,0,13.8-3.2,21.5-8.8c2.8-1.9,5.2-3.3,5.5-3c0.3,0.2-0.3,3.5-1.2,7.3c-2.2,8.8-21.1,56.7-23,58.3c-2.2,1.8-13.8,2.8-23.2,1.9
		c-16.2-1.4-27.6-7.2-40.8-20.5c-11.5-11.6-16.8-24.5-14.5-34.8c1.4-6.3,3.1-9.5,10-19.1c3.1-4.4,6.2-9,6.9-10.3L431.1,323z
		 M486.6,386.1c-1.1-1-1.7-0.7-3,1.1c-2,2.8-2,4.7-0.1,5.4c1.9,0.8,4.5-1.3,4.5-3.6C488,388,487.4,386.7,486.6,386.1z"/>
	<path id="path56" fill="#40E0D0" d="M417.2,337.7c-2.4,2.9-3.1,3.2-6.4,2.7c-2.1-0.4-3.8-1-3.8-1.4c0-1.3,2.8-3.2,6.7-4.6
		C420.7,331.9,421.5,332.7,417.2,337.7z"/>
	<path id="path58" fill="#40E0D0" d="M412.2,343.6c0.3,0.3-0.3,2.7-1.3,5.5c-1.1,2.7-1.9,6-1.9,7.4c0,2.2-0.4,2.5-3.6,2.5
		c-3.9,0-6.7,1.2-10.1,4.3l-2.3,2v-3c0-3.1,6.8-13.7,11.2-17.6C406.1,343.1,411,342.4,412.2,343.6z"/>
	<path id="path60" fill="#BDB76B" d="M393.3,352c0.4,0-0.2,1.3-1.4,2.9c-3.1,4.2-3.4,10.2-1,21c2.9,13,5.3,16.8,15.9,24.2
		c4.8,3.4,11.2,8.5,14.2,11.4c7.4,7,10.7,8.5,20.4,9.5c4.9,0.5,10.8,1.9,14.4,3.4c7.8,3.3,16.3,3.5,23.2,0.5
		c2.7-1.2,5.3-1.9,5.8-1.8c0.5,0.2-4.1,10.5-10.3,22.9c-10.4,20.9-11.4,22.5-13.9,22.5c-3.1-0.1-3.4,1-0.7,2.4
		c1.8,1,1.1,2.6-9.6,22.3c-24,44.4-34.1,66.6-40.2,88c-3.6,12.9-5.3,23.6-8.6,54.1c-4.3,39.6-9.7,56-22.4,68.8
		c-4.8,4.8-8.9,7.7-15.1,10.7c-13.4,6.6-21.9,8.5-39,8.5c-13.1,0-15.7-0.3-26.2-3.1c-14.2-3.8-26.8-8.8-36.1-14.3
		c-7.7-4.6-22.6-18.1-20.7-18.7c0.7-0.3,2.3,0.9,3.6,2.6c11.9,15.2,56.7,29.1,81.1,25.3c21.2-3.3,28.9-11.6,30.1-32.5
		c0.9-16.5-4.1-34.1-17.8-63.6c-14.6-31.3-19.8-44.6-26.9-69c-14.9-51.6-14.8-91.9,0.4-129.4c5.7-14.1,11.7-22.1,25.5-34.3
		c13.1-11.6,22-17.5,39.5-26.5C385.7,355.5,392.9,352.1,393.3,352z M350,404c-0.6,0-2,2-3.2,4.6c-2.1,4.1-2.1,4.7-0.7,7.2
		c0.8,1.5,3,3.2,4.9,3.8c1.9,0.6,3.6,1.8,3.8,2.5c1.4,5.2,6.9,9,10.8,7.5c2.3-0.9,0.7-2.6-2.5-2.6c-3.4,0-6.1-2.8-6.1-6.3
		c0-2.3-0.4-2.7-3-2.7c-1.7,0-3.9-0.9-5.1-2.1c-2.1-2.1-2-3.8,0.8-9.2C350.5,405.1,350.6,404,350,404z M418.7,437l-1.8-2.5l0.7,2.5
		c1.6,6.6,7.6,10.2,13.4,8.1c1.8-0.6,3-0.6,3,0c0,2.3,4.2,4.9,7.9,4.9c4.7,0,9.1-1.5,9.1-3.1c0-0.6-0.7-0.8-1.7-0.5
		c-0.9,0.4-3.6,0.9-5.8,1.3c-4.8,0.6-7.5-1.3-7.5-5.3v-2.5l-2.6,2c-3.5,2.8-7.9,2.7-10.7-0.2C421.5,440.5,419.7,438.4,418.7,437z
		 M345.8,449.7c-0.4-5.3-1.8-3.5-1.8,2.3c0,6.8,5.1,11.3,11,9.7c1.6-0.4,2,0,2,1.8c0,1.2,1,3.5,2.2,5c1.8,2.3,2.7,2.6,5.9,2.2
		c3.1-0.4,3.9-0.1,4.4,1.3c1.1,3.6,10.6,5.2,14.1,2.4c1.8-1.4,1.6-1.5-2.6-1c-5.4,0.7-9.4-1-9.8-4.2c-0.2-1.2-0.4-2.2-0.5-2.2
		s-1.7,0.4-3.6,1c-5.1,1.4-7.1-0.1-7.1-5.5c0-2.5-0.1-4.5-0.3-4.5c-0.1,0-1.7,0.4-3.5,0.9c-4.3,1.3-9-0.4-9.7-3.2
		C346.2,454.5,345.9,451.8,345.8,449.7z M312.4,476.2l-1.2-5.7l-0.1,5.3c-0.1,2.9,0.4,6.2,0.9,7.3c1.6,2.8,6.7,5.1,10,4.4
		c2.5-0.6,2.8-0.3,3.4,2.9c0.9,4.8,4.7,7.6,10.2,7.6c2.3,0,4.6-0.5,4.9-1c0.4-0.6-1.3-1-4.4-1c-4.2,0-5.3-0.4-7-2.6
		c-1.2-1.5-2.1-4.1-2.1-5.9v-3.2l-5.3,0.5c-4.1,0.3-5.6,0-6.7-1.3C314.2,482.6,313.1,479.3,312.4,476.2z M342,526.5
		c-0.8-1.8-0.9-1.7-0.9,0.6c-0.1,3.3,3.4,7.9,6,7.9c1.1,0,3-0.5,4.2-1.1c1.8-1,2.4-0.8,4.1,1.3c3.4,4.1,6,5,10.6,3.8
		c5.7-1.5,5-3-1-2.3c-5.8,0.7-9-1.3-9-5.4c0-1.4-0.3-2.3-0.7-2.1c-0.5,0.2-2.4,1.2-4.5,2.2c-3.9,2-6.5,1.6-7.4-1.1
		C343.1,529.3,342.5,527.6,342,526.5z M343.9,576c-2.1-2.5-2.9-3-2.9-1.7c0,2.6,4.8,7,6.7,6.3c0.9-0.4,2.4,0.3,3.9,1.9
		c2,2.1,3.2,2.5,8.3,2.5c6.2,0,11.1-1.3,11.1-2.9c0-0.6-1.2-0.6-3.2,0c-8.5,2.4-15.8,0.5-15.8-4.2c0-1.9-0.1-1.9-2.6-0.2
		C346.7,579.4,346.7,579.4,343.9,576z M359.9,614.1c-0.7-2.5-0.7-2.5-0.8,0.5c-0.1,4.2,3.3,8.4,6.8,8.4c2.8,0,8-4.3,6.4-5.3
		c-0.5-0.3-1.7,0.3-2.6,1.4c-2.3,2.6-6.3,2.5-7.8-0.3C361.3,617.6,360.4,615.5,359.9,614.1z M365.7,654.5c-1.3-2.4-1.6-2.6-1.7-1
		c-0.1,5.3,5.9,8.2,11.1,5.5c1.4-0.8,2.7-0.7,4.9,0.5c3.4,1.8,3.8,1.3,1.1-1.4c-1-1-2.1-2.5-2.3-3.2c-0.4-1.1-1.1-0.9-2.9,0.7
		c-2.8,2.6-6,3.6-7.5,2.6C367.8,657.8,366.6,656.1,365.7,654.5z M365.7,683.5c-0.3-1.1-0.5-0.2-0.6,2c0,2.2,0.3,4.6,0.8,5.3
		c1,1.6,6.3,1.2,6.9-0.5c0.2-0.9-0.5-1.1-2.7-0.7c-2.6,0.5-3.1,0.3-3.5-1.7C366.3,686.6,365.9,684.6,365.7,683.5z"/>
	<path id="path62" fill="#40E0D0" d="M405.8,361.6c0.8,0.2,1.7,0.4,2.2,0.4c0.4,0,1,1.8,1.4,3.9c0.3,2.2,1.5,6,2.6,8.5
		c1.8,4.2,1.8,4.6,0.2,4.6c-3.6,0-9.3,2.2-12.2,4.6l-3,2.6l-0.9-2.4c-0.4-1.3-1.4-5.4-2-9.3l-1.2-7l2.8-2.3c1.5-1.2,4.2-2.6,5.8-3.1
		C403.2,361.6,405.1,361.4,405.8,361.6z"/>
	<path id="path64" fill="#20B2AA" d="M422.7,389.2c4,4,7.3,7.6,7.3,8c0,0.5-1.8,1.5-4,2.4s-4.5,2.5-5,3.5c-0.9,1.6-1.9,1.2-10.6-4.8
		c-13.1-9.1-13.8-10.9-6-14.4C412.1,380.4,414.6,381.1,422.7,389.2z"/>
	<path id="path66" fill="#40E0D0" d="M431.9,400c1,0,14.1,7.4,17.1,9.7c0.9,0.7-3.3,7.3-5,7.8c-2.5,0.8-10.9-1.2-14.5-3.5
		c-1.6-1-4.3-3.3-6-5c-3-3.1-3-3.2-1-4.7c1.1-0.8,3.4-2.1,5-2.9C429.2,400.7,431.1,400.1,431.9,400z"/>
	<path id="path68" fill="#20B2AA" d="M451.8,410.3l6.9,1.8c3.7,1,9.3,1.8,12.4,1.8l5.7,0.1l0.4,3.6c0.3,2.8,0,3.8-1.6,4.7
		c-3.6,2-13.5,1.3-19.6-1.3c-7.4-3.2-7.6-3.4-5.8-7.3L451.8,410.3z"/>
	<path id="path70" fill="#40E0D0" d="M490,413.6c0,2-2.6,4.5-5.7,5.3c-4.3,1.2-4.2,1.2-4.5-1.9c-0.3-2.1,0.2-2.6,3.2-3.1
		C487.9,413,490,412.9,490,413.6z"/>
	<path id="path72" fill="#BDB76B" d="M255.9,545c8.5,4.5,29.9,30,36.5,43.5c5.3,10.5,6.5,16.9,8.2,41c1.9,28.9,3.7,42.2,6.8,52.1
		c3.3,10.4,10.6,21,17.7,25.5c4.8,3.1,5,3.4,2.8,4c-1.3,0.4-6.3,0.7-11,0.8c-8.1,0.1-8.7,0-11.1-2.7c-6.7-7.2-12.4-23.9-15.3-44.6
		c-8.9-63.6-10.9-70.2-26.5-86.8l-7.7-8.3l-0.6-10.5c-0.3-5.8-0.9-11.6-1.3-12.9C253.8,543.9,253.9,543.9,255.9,545z"/>
	<path id="path74" fill="#B8860B" d="M257,574c0.4,0,2.8,2.2,5.3,4.9c10.5,11.2,16.2,23.7,18.7,40.6c0.6,4.4,1.8,11.6,2.6,16
		c0.7,4.4,2.3,14.5,3.3,22.5c2.7,19.8,6.3,33.8,11.5,44.2c4.8,9.8,4.9,9.7-5,7.2c-7.3-1.9-10.2-4.5-14.1-13.1
		c-3.5-7.6-5.1-17-5.8-33.8c-0.8-17.8-2.5-30-6.5-45.2c-3.1-12-6-18.5-11-24.8c-2.1-2.6-2.9-4.6-2.6-6c0.3-1.1,1.1-4.4,1.7-7.3
		C255.8,576.4,256.6,574,257,574z"/>
	<path id="path76" fill="#BDB76B" d="M252,593c1.5,0,6.3,8.2,8.6,14.6c5.2,14.3,8.1,31,9.4,55.1c1.1,19.7,3.2,30.5,7.5,38l2.4,4.4
		l-2.2-0.7c-1.2-0.3-4.2-1.6-6.7-2.8c-6.3-2.9-8-7-11.9-27.7c-6.2-32.5-9.1-40.9-17.6-51.3l-4.5-5.5l5.3-7.8
		c2.8-4.3,6.1-9.8,7.1-12.1C250.4,594.9,251.6,593,252,593z"/>
	<path id="path78" fill="#B8860B" d="M242.2,627.2c5.1,7.6,8.2,16,10.8,29.4c2,10.5,7.2,34.4,8.6,39.3l0.7,2.4l-4.2-2.4
		c-2.3-1.3-4.6-2.8-5-3.4c-0.5-0.5-2.7-7.3-5.1-15c-5.9-19.3-10-27.2-18.6-36.4l-7.1-7.6l6.5-7.2C236.2,618,235.9,618,242.2,627.2z"
		/>
	<path id="path80" fill="#B8860B" d="M220.5,636l6.4,6.7c3.8,4.1,7.8,9.7,10.1,14.3c4.1,8.3,11.4,28.4,10.8,30.2
		c-0.5,1.4-5.3-4.9-10.5-13.7c-5.6-9.5-16.3-21.8-21.8-25c-2.5-1.5-4.5-2.9-4.5-3.2s2.1-2.5,4.8-4.9L220.5,636z"/>
	<path id="path82" fill="#B8860B" d="M209.3,648c4.2,0,16.2,12,23.6,23.6c2.8,4.3,5.1,8.2,5.1,8.7c0,0.4-4.4-2.7-9.7-6.9
		c-12.3-9.6-17.9-12.4-25.5-12.4c-3.2,0-5.8-0.3-5.8-0.7s2.6-3.3,5.7-6.5C205.9,650.6,208.8,648,209.3,648z"/>
	<path id="path84" fill="#B8860B" d="M193.8,663.4l7.1,0.7c5,0.4,8.8,1.5,12.6,3.5c5.7,3,23.4,16.3,23.5,17.6c0,0.4-2.4-0.2-5.2-1.3
		c-12.9-5.2-16.9-6-29.8-6.1c-8.5,0-14,0.5-17.2,1.5c-2.7,0.8-4.8,1.2-4.8,0.8c0-0.5,3.1-4.4,6.9-8.8L193.8,663.4z"/>
	<path id="path86" fill="#BDB76B" d="M204.5,680.4c10.7,0.2,12.9,0.6,20.5,3.5c4.7,1.8,9.7,3.7,11.2,4.3c2.8,1,6.5,4.5,5.6,5.3
		c-0.3,0.3-2.9,0-5.9-0.5c-8-1.6-24.2-1.3-33.9,0.5c-9.1,1.8-21.6,6.3-31.9,11.4c-3.5,1.8-6.5,3-6.8,2.7
		c-0.9-0.9,8.1-16.7,11.7-20.7c3-3.3,4.6-4.1,10.5-5.4C190.2,680.5,196.5,680.2,204.5,680.4z"/>
	<path id="path88" fill="#BDB76B" d="M237.9,696.5c8.1,1.3,9.9,2,13.7,5.2c2.5,2,4.3,3.8,4,4c-0.2,0.2-5.9-0.1-12.6-0.8
		c-9.8-1-14.6-1-23.4,0c-27.4,3.1-49.9,12.5-61.4,25.5c-1.7,2-3.3,3.6-3.6,3.6c-0.6,0,3.2-13.4,4.9-17.7c1.2-2.7,3.1-4,12.7-8.6
		c13.4-6.4,21-9.3,29.8-11.1C210.7,694.7,226.4,694.7,237.9,696.5z"/>
	<path id="path90" fill="#B8860B" d="M254,708.4c8.5,1.2,17,4,17,5.5c0,0.3-9.3,0.6-20.8,0.7c-17.7,0-22,0.3-29.9,2.2
		c-28.1,6.7-53,23.4-64,43l-3.3,5.7v-12.7v-12.7l4.9-5.9c11.4-13.6,29.4-21.8,58.1-26.5C221.9,706.7,245.3,707.2,254,708.4z"/>
	<path id="path92" fill="#B8860B" d="M260.7,717.7c19.7,0.5,21.9,0.7,30,3.3l8.8,2.9H283c-20.6,0.1-51.7,3.9-62.9,7.7
		c-25.3,8.7-39.6,19.8-48.5,37.9c-4,8-8.6,23.1-8.6,28.1c0,6-1.6,3.7-5-7.1c-2.5-8.1-3.1-11.7-2.8-15.8
		c1.7-20.8,29.3-44.8,61.3-53.3c5-1.3,12.2-2.8,16-3.3C236.4,717.6,249,717.4,260.7,717.7z"/>
	<path id="path94" fill="#B8860B" d="M220.1,736.6c-10,4.9-12.5,6.7-20.1,14.2c-4.7,4.8-10,11.2-11.7,14.2
		c-9.8,17.7-13.9,45-9.4,62.3c1,3.7,1.5,6.4,1.1,6c-0.4-0.5-3.9-6.2-7.8-12.9c-8-13.4-8.2-14.2-5.8-27.4c2.9-16,11.6-32.3,22.4-42.1
		c6.3-5.6,21.7-13.7,33.4-17.5C232.9,730,232.6,730.4,220.1,736.6z"/>
	<path d="M479.2,8.6c12.3,4.2,13.5,4.4,18,3.4c7.7-1.6,13.7-1.2,23.3,1.6c25.9,7.5,47.6,26.5,61.7,54c10.2,19.8,14.1,36,14.1,58.4
		c0,20.3-1.5,26-12.7,47.4c-10.6,20.4-11.7,24.1-11.4,38.7c0.2,12.8-0.7,15.5-7,22.1c-2,2.1-3.3,4-3,4.3s4.3-0.2,8.9-1.1
		c4.6-1,11.4-1.8,15-1.8c8.3-0.1,10.9,1.7,10.9,7.5c0,3.3-0.5,4.2-3.7,6.4c-2.1,1.4-4.3,2.5-5,2.5c-2.6,0-1.1,1.6,4.4,4.7
		c4.7,2.8,6.6,3.3,12,3.3c8.5,0,11.4-1.4,21-10.4c8.8-8.2,13.1-10.6,19.1-10.6c4.1,0,9.3,3.2,13.2,8.2l2.1,2.8l5.5-3.1
		c4.9-2.8,5.7-3,8.5-1.9c5.8,2.4,7.4,8.1,4.4,15.3c-1.6,4-1.5,4.1,3.5,5.2c9.9,2.1,15,7.7,15,16.4c0,3.8,0.8,6.6,3.1,10.9
		c4.3,7.9,3.7,13.4-2.7,27.8c-7.8,17.5-15.8,23.8-21.3,16.8c-1.2-1.5-2.1-3.3-2.1-4c0-1.9-2.7-1.7-7.7,0.6
		c-4.6,2.1-5.6,3.7-7.2,11.8c-1,4.9-5.5,14.9-8.3,18.2c-0.7,0.9-2.9,2.7-4.8,4c-3,2.1-4.6,2.5-10.5,2.4
		c-11.6-0.2-22.3-6.2-30.5-17.3c-2.5-3.3-4.8-6-5.2-6.1c-0.4,0-7.6,2.8-16,6.2l-15.3,6.3h-11c-9.8,0-11.6-0.3-16.7-2.7
		c-3.5-1.6-7.8-4.9-11.2-8.4c-3-3.2-5.8-5.6-6.1-5.3s-1.9,5.3-3.6,11c-3.2,10.7-16.2,44.4-25.1,64.9c-8.4,19.3-24.8,52-41.1,81.8
		c-22.2,40.5-32.9,64.4-38.2,85.2c-3.4,13.4-4.2,18.5-7,44.8c-3.3,29.6-4.8,38.3-8.9,50.7c-4.2,12.5-8.9,20.6-16.2,27.9
		c-9.5,9.5-22,15.5-39.4,18.8c-9.1,1.8-15.2,2.1-45,2.3c-39.3,0.3-48.8,1.3-64.4,6.9c-26.4,9.4-42,25.7-48.8,51.1
		c-1.6,6.2-2.1,11-2.2,21.5c0,12.7,0.2,14.1,3.2,22.8c3.8,11.1,4.2,17.2,1.1,17.2c-3.7,0-5.7-1.9-11.5-10.8
		c-21.3-32.7-28.9-52.9-30.1-79.8c-1.2-28.5,7.4-54.8,26.6-80.5c7.9-10.6,12.7-16,40.2-45.1c18.2-19.2,25.4-28.4,30.3-38.7
		c5.3-11.2,7-20,6.3-34.5c-0.5-12.6-1.5-16.6-4.9-20.3c-2.7-2.9-1.7-5.3,2.2-5.3c6.3,0,14,4.9,25.1,15.9
		c11.9,11.9,19,21.5,25.6,34.5c6.7,13.3,8,19.7,9.8,49.7c1.7,29.5,3.6,40.5,9,51.6c6.2,13.2,17.2,21.5,24.1,18.2
		c6.6-3.2,9.8-12,9.8-26.4c-0.1-15.5-3.5-26.7-18.2-58.6c-27.7-60.2-40.8-113.5-37.4-151.4c3.4-36.3,15.4-63.7,37.7-85.8
		c3.7-3.7,6.6-6.9,6.4-7.1c-2.1-1.8-6.1-2.6-13.4-2.6c-5.1,0-9.9-0.6-12-1.4c-3.1-1.3-3.5-1.3-5.2,0.6c-2.5,2.9-10.3,6.3-20,8.9
		c-13.6,3.6-17,7.9-18.8,24.2c-1.2,10.9-9,15.6-11.5,6.9c-0.5-2-1-4.7-1-5.9c0-3.5-6.1-9.4-13.6-13.3c-8.3-4.2-13.6-9.5-15.3-15
		c-1.6-5.3-0.9-8.3,4.5-19.4c7.1-14.5,6-17.3-8-21.5c-8.3-2.5-12.8-5.1-16-9.4c-2.8-3.7-2.6-12.7,0.2-18.4c3-5.7,11.4-13,22.5-19.2
		c16.8-9.5,18.5-11.2,22.2-21.8c7.6-22,16.1-27.3,56.9-35.1l19.8-3.8l1.8-5.4c0.9-3,4-9.3,6.8-13.9c2.9-4.6,5.2-8.8,5.2-9.4
		c0-0.5-2.6-4.8-5.8-9.6c-10.2-15.2-16-32.5-18.2-54.1c-2.3-23.1,2.9-51.8,13-72.1c12-24,34-45.7,56.3-55.9c6.9-3.1,18.7-6.6,26.6-8
		C432.3-1.8,457.7,1.3,479.2,8.6z M415,7.1c-7.1,1.1-19.6,5.1-25,8.1c-1.9,1-2.6,1.6-1.4,1.3c30.2-7.9,46.7-9.2,61.6-4.9
		c7.6,2.3,27.1,9.5,28.6,10.7c2.9,2.2-0.1,1.5-11.4-2.8c-15.4-5.8-24.2-7.6-37.8-7.6c-16.9,0.1-37.7,4.7-52.1,11.6
		c-5.6,2.7-9,5.4-16.6,13.2c-13.3,13.8-19.7,23.6-26.8,41.5c-15.9,40.3-8.6,91.3,16.9,118.8l5.1,5.5l-3.1-6.2
		c-4.5-9.3-7.8-23.6-9.1-39.1c-2.3-28.1,1.1-51.3,10.6-71.9c11-24,31.4-42.2,57.5-51.4c5.9-2,8.7-2.3,29.8-2.7
		c16.3-0.3,23.7-0.1,24.5,0.7c0.8,0.8-4.5,1.1-19.7,1.1c-23.9,0-30.5,1.1-43.2,7c-29.9,13.8-49.2,40-55.5,75
		c-2.1,11.2-1.8,45,0.4,56.8c2.9,15.9,10.4,32.2,19,41.5c3.4,3.8,3.9,4,4.8,2.4c1.5-2.6,0.3-6.9-5.7-19.5
		c-6.9-14.7-10.3-25.5-11.3-36.2c-1.4-15.6,1-30.2,7.7-45.5c2.9-6.8,3-7,3.7-6.4c0.2,0.3-1.3,5-3.4,10.5c-5,12.6-6.6,22.5-5.8,35.7
		c0.9,15.3,2.2,19.5,14.4,47.2c2.7,5.9,3.6,9.3,3.5,13.1c0,5.1,0,5.2,4.6,7.7c4.6,2.4,19,7.7,21.1,7.7c0.6,0,1.1-0.3,1.1-0.8
		c0-0.4-4.5-6.3-10.1-13.2c-15.6-19.5-20-30.7-20.1-51.5c0-12.1,1.9-24.4,5.8-36.6C384.8,105,396.5,88,414,75.1
		c6.6-5,42.5-28.1,43.5-28.1c0.3,0,0.5,0.6,0.5,1.2c0,0.7-4.9,4.4-10.8,8.2c-5.9,3.9-16.3,10.7-23.2,15.2
		c-23.1,15-35.7,31.8-43.4,57.6c-4.3,14.4-5,19.7-5,35.3c0.1,14.2,0.2,15.4,3.1,23c3.6,9.8,5.8,13.2,16.1,26.2
		c9.7,12.2,9.7,12.1,11.1,20.9c1,5.9,1,8.2-0.3,13.8c-2.2,9.3-2,11.3,1.4,17.6c2.1,4.1,2.9,6.9,3,10.8c0,3.1,0.4,5.1,0.9,4.7
		c1.8-1.1,2.4-9.4,1-14.3c-0.8-2.8-1.3-10.7-1.4-19.7l-0.1-15l-7.5-14.5c-8.4-16.1-9.9-21.5-9.9-35.9c0-15.2,4.8-31.2,13.2-44.3
		c5.3-8.2,18.4-21.2,27.3-27c3.9-2.6,13.5-7.9,21.5-11.8c24.9-12.4,37.5-22.2,43.1-33.7c1.9-3.9,2.4-6.4,2.4-13.1
		c0-9,1-10.8,2.1-3.6c1.6,10.9-2.1,20.8-11.1,29.9c-6.9,7-11.2,9.7-33.5,21.5c-23.1,12.1-29,16.1-39.1,26.7
		c-11.9,12.5-18.8,25.7-22.3,42.6c-3.6,17.1-1.6,27.4,9.1,48.6l7.8,15.4l-0.2,12.6l-0.1,12.6l2.1-4.5c1.7-3.5,2.2-6.4,2.2-13
		c0-7.5-0.4-9.4-3.2-15.6c-4.8-10.5-6.6-19.2-6.6-31.9c0-23,7.8-42.1,23.5-57.1c9.6-9.3,17.2-13.6,37.2-21.5
		c24.9-9.8,30.6-12.9,39.8-22c8.6-8.4,12.5-15.3,13.5-23.9c0.9-7.9,2.6-7.4,2.1,0.7c-0.5,9-5,18.4-12.3,25.8l-5.3,5.3l0.5,5.8
		c0.3,4.4-0.2,8-2,14.1c-1.3,4.6-2.2,8.3-2,8.3c0.1,0,4.6-3,9.8-6.6c12.8-8.9,18.3-17.1,19.9-29.9c0.4-2.8,1-6.6,1.3-8.5l0.6-3.5
		l0.7,4c0.9,5-0.4,15.8-2.5,21l-1.7,3.9l2.7,2.2c1.5,1.2,7.1,3.9,12.3,6c5.6,2.3,11.2,5.4,13.7,7.6c8.6,7.6,12.3,22.4,9.1,36.1
		c-1.7,7.4-7.9,21.7-9.4,21.7c-2.1,0-1.8-1.7,2.1-10.8c3.9-9.1,4.2-10.3,4.2-19.2c0-6.9-0.5-10.8-1.8-14.3c-1-2.6-2.2-4.7-2.6-4.7
		c-0.5,0-1.1,2.1-1.4,4.7c-0.3,2.7-2.3,10.2-4.3,16.8c-3.5,11.1-5.7,25.4-3.7,24.2c0.4-0.3,0.8,6.8,0.7,15.6c0,13.8-0.4,17-2.1,21.9
		C546,229,536,240,519.1,251.8c-0.3,0.1,0.7,1.5,2.2,2.9l2.6,2.7l1.1-3c2-5.8,3.9-8,10.7-12.5c9.1-6.2,16.6-14.5,19.2-21.4
		c1.2-3.1,2.1-6.3,2.1-7.2c0-1.1,0.3-1.3,0.9-0.7c1.4,1.3-0.3,8.4-3.3,14.2c-3.2,6.1-8.5,11.5-16.8,16.9c-3.7,2.4-7.3,5.4-7.9,6.6
		c-2.1,3.7-2.8,8.5-1.5,10.2c0.9,1.3,2.2,0.8,9.3-4c6.7-4.4,8.6-6.3,10.2-10c1.1-2.4,5.1-7.8,8.9-11.8c8.3-8.7,9.7-12.2,8.9-22.4
		c-0.9-11.8,1.5-26.6,6.3-38.4c5.6-14,7.3-21.5,7.2-33.4c-0.1-18.8-5.1-29.1-20-41.7c-13.7-11.5-15.2-13.9-17.7-27.4
		c-3.2-17.8-10-26.6-26.5-34.5c-10.8-5.2-10.4-6.3,0.6-1.9c9.5,3.8,16.2,8.6,20.7,14.8c4.5,6.4,5.5,8.9,7.7,20.2
		c2.8,14.4,2.7,14.3,19.9,29.1c13.1,11.3,18.6,24.2,18.4,42.9c-0.1,9.9-1.9,17.6-7.7,32.2c-1.4,3.8-2.4,6.8-2.1,6.8
		c1.3,0,13.9-27.2,15.7-33.9c3.6-13.6,2.1-42.8-2.7-52.1c-0.7-1.4-5.6-6.8-10.7-12c-6.9-7-12.1-13.5-19.2-24.4
		c-11.4-17.4-18.8-25.6-27.1-29.9c-5.5-2.9-6.8-3.2-16-3.2c-5.5,0-12.6,0.4-15.9,0.8c-10.3,1.5-5.3-0.9,6-2.8
		c8.9-1.6,11.5-1.7,16.2-0.7c15,3.1,23.4,10.4,38.9,33.9c8.2,12.3,13.4,19.1,18.1,23.3c3.6,3.3,6.7,5.9,6.9,5.7
		c0.9-1-7.7-19-13-27.1C558.8,42,543.2,29,524.1,20.8c-7.5-3.2-7.9-3.3-22.6-3.3c-14.6,0-15.3-0.1-26-3.7c-6-2-14.6-4.4-19-5.3
		C447,6.5,424.1,5.7,415,7.1z M503.1,106.2l-0.6-2.9l-3,1.9c-5,3.3-14.9,7.6-28.3,12.5c-15.1,5.4-20.7,8.1-28.8,13.9
		c-13.5,9.5-23.7,24.1-28.5,40.9c-1.8,6.3-2.3,10.5-2.3,20c-0.1,13.3,1.7,21.5,7.4,34.3c3,6.7,3.3,7,9.8,10c3.9,1.8,9,3.3,12.2,3.6
		c7.9,0.6,13.8,3.6,22.6,11.2c8.1,7.1,11,8.3,20.4,8.4c19.8,0.1,51.6-20.4,61-39.3c2.8-5.7,3.4-8.1,3.8-16.1
		c0.6-12.4-0.3-18.6-2.8-18.6c-1.6,0-1.8,0.6-1.3,5.4c0.7,6.9-0.9,11.7-5.2,15.5c-6.5,5.6-16.6,6.4-24.8,1.8
		c-4.9-2.8-7.7-7.4-8.4-13.9c-1.4-13.7,6.4-24.1,18.3-24.3c6-0.1,7.9-1.1,4-2.1c-4.1-1-11.1,0.5-15.1,3.2c-4.8,3.2-5.5,3-2-0.6
		c5.9-6.1,19.4-6.7,25.5-1c3.4,3.2,5.6,3.8,6.3,1.7c0.2-0.6,0.8-0.9,1.2-0.5c0.9,0.8-1.3,6.9-2.9,8c-0.5,0.4,0.2,1.2,1.7,1.9
		c1.7,0.8,3.1,0.9,3.6,0.3c0.5-0.5,1.1-4.8,1.3-9.6l0.3-8.8l-4.9-3.5c-5.8-4.1-13-6.6-21.1-7.4c-5.6-0.6-6-0.8-6.3-3.3
		c-0.2-2,0.4-3.1,2.3-4.4c2.4-1.5,3.4-1.6,8.1-0.6c7.7,1.6,11.9,3.8,18.5,9.9l5.8,5.4l3-9.6c1.9-5.9,3.1-11.6,3.1-15.1
		c0-6.9-1.8-8.8-12.6-13.3c-4.2-1.8-9.4-4.3-11.6-5.7l-4-2.6l-4.2,4c-2.2,2.2-7.5,6.2-11.6,9.1c-4.1,2.8-9,6.3-10.7,7.7
		c-2.9,2.3-3.3,2.4-3.9,1c-0.4-1,0.3-5,1.5-8.9c1.1-4,2.5-9.3,3-12C503.3,111.1,503.5,107.7,503.1,106.2z M513.7,180.4
		c-3.2,2.9-5.1,9.5-4.2,14.7c0.8,4.7,2.2,5.9,3,2.6c0.4-1.4,2.1-3.9,3.9-5.6c8.1-7.9,19.5-3,19.6,8.4l0.1,4l1.9-2.3
		c6.1-7.3,3.3-20.5-5.3-24.5C526.8,174.8,518.4,176,513.7,180.4z M520.2,193.3c-4.6,4.9-1.1,10.3,4.7,7.3c4.2-2.2,5.2-5.4,2.5-8
		C525.2,190.4,522.7,190.6,520.2,193.3z M357.4,209.3l-8.2-8.2l-0.6,3.2c-0.3,1.8-2.4,5.9-4.6,9.2s-4,6.6-4,7.4
		c0,2.8,4.9,9.8,8.7,12.4c5.5,3.8,12.3,6.6,18.2,7.4c6.2,0.9,6.8,2.9,0.8,2.5c-10.8-0.8-21.4-6.1-26.5-13.3c-4.5-6.5-6.1-3.9-1.8,3
		c4.8,7.5,14.3,13.2,27.6,16.4c11.3,2.7,15.4,3,18.7,1.3c3.2-1.6,9.3-8,9.3-9.6c0-0.6-3.5-1-7.9-1c-13.8,0-28.4-6.1-33.8-14.2
		c-3.8-5.7-5.4-9.6-4.3-10.3c0.5-0.3,2.5,1.9,4.4,4.9c5.8,8.6,14.7,13.7,27.6,15.7c5.5,0.8,8.3,0.8,11.2,0c4.1-1.3,4.9-2.8,2.1-3.8
		c-6.6-2.2-17.7-7.5-22.8-10.8C368.2,219.3,361.8,213.9,357.4,209.3z M331.5,234.9c-1.1,0.5-9.8,2.3-19.4,4
		c-28.4,5.2-39.9,9.8-46.4,18.3c-1.4,1.8-4,7-5.7,11.5c-3.4,8.9-7.4,15.5-10.7,17.8c-1.2,0.8-6.6,4-12,7.1
		c-14.2,8.1-20.2,12.9-22.9,18.9c-2.8,5.8-2.9,7.6-0.9,11.4c1.5,3,8.1,6.4,14.6,7.6c8.4,1.6,15.9,8.6,15.9,14.9
		c0,1.7-2.2,7.5-5,13.1c-3,6-5,11.3-5,13.3c0,4.2,2.4,8.4,6.1,10.6l2.7,1.6l-0.9-3.5c-1.2-4.4-0.1-9,5.1-19.7
		c5.7-11.7,5.5-14.6-1.6-27c-4.5-7.9-5.7-10.9-6.1-15.6c-1-10.7,2.1-16,12.8-22.2c8.5-5,11.3-8.4,15.2-18.6
		c7.1-18.6,14.9-23.9,39.4-26.8c14.5-1.7,20.8-3.5,27-7.7c5.4-3.8,5.7-4.3,3.7-7.4C335.7,233.9,334.8,233.6,331.5,234.9z
		 M401.2,242.4c-0.7,1.9-3.4,5.5-5.9,8.1l-4.6,4.5l3.1,8.3c6.6,17.6,6.8,22.8,1.7,33.6c-1.9,4-3.5,8.1-3.5,9.1s1.6,3.7,3.5,6
		c6.8,8.1,4.2,14.9-8.7,23.3c-4.6,3-9.2,6.4-10.2,7.5c-2.2,2.6-5.4,2.9-6.3,0.7c-0.3-0.9,0.2-4.2,1.1-7.4c2.3-8.2,2.1-9.8-1.5-11.6
		l-3.1-1.6l-11.5,9.8c-12.8,10.8-16.3,15.7-14.5,19.8c0.7,1.4,2.3,2.7,3.9,3c1.5,0.4,5.9,1.7,9.7,3l6.9,2.3l6.6-3.4
		c3.6-1.9,11-5.4,16.3-7.9c8.5-4,10.4-5.3,16.3-11.9c6.7-7.4,11.8-10.6,16.9-10.6c3,0,7.2-4.8,8.6-9.8c2.1-7.7,1.3-12-4.2-22.9
		c-2.9-5.7-5.6-10.3-6-10.3c-0.5,0-0.8,1.2-0.8,2.7c0,3.5-1.4,5.8-2.9,4.9c-2.3-1.4-5.4-9.1-6.1-15.2c-0.4-3.5-1.7-7.6-2.7-9.1
		c-3.1-4.4-3.4-7.1-1.7-17C403.3,240.2,403.2,236.9,401.2,242.4z M570.3,243.6c-11,2.3-32.7,15.8-58.2,36.3
		c-8,6.4-17,13.4-19.8,15.5c-6.8,4.9-8.9,7.6-10.8,14.1c-2.1,7.3-4,8.4-3.1,1.9c1.4-9,5.5-15.4,12.4-19.3c1.3-0.8-0.6-3.6-12.1-17.9
		c-17.7-22-24.7-27.6-38-30.4c-7-1.5-12.8,0.1-17.3,4.6c-4.2,4.2-6.8,12.9-5.9,19.5c0.9,6.4,6.1,18.2,11.9,27
		c5.4,8.1,34.2,39,46,49.2c7.4,6.4,8.2,6.9,12.6,6.9c6.3,0,10.1-1.4,19.1-7.1c9.4-6,19.1-16,25.7-26.4c7.5-11.9,8.7-13,17.1-14.9
		c4-0.9,9.1-2.6,11.2-3.6c2.9-1.5,5.8-2,12.3-2c4.8,0,8.8-0.5,9.1-1c1.9-3-5.8-9.3-12.8-10.5l-4.2-0.8l3.5-0.8
		c2.3-0.5,5.4-0.3,9.1,0.7c7.2,1.8,16.9,1.8,19.4,0c1.7-1.2,1.2-1.7-6.1-6.7c-7.1-4.7-8.4-5.3-12.9-5.2c-2.7,0.1-6.1-0.1-7.5-0.4
		c-2.5-0.6-2.5-0.6,0.5-1.3c7.2-1.8,12.7-1.1,17.6,2.1c4.1,2.6,5.5,3,10.6,2.7c8.7-0.4,8-2.7-2.7-9.5c-10.5-6.6-16-8.3-26.7-8.3
		c-4.6,0-8.3-0.4-8.3-0.8c0-0.8,1.5-1.5,15.5-6.9c9.8-3.8,12.1-5.3,11.2-7.7C587.8,240.4,584.3,240.6,570.3,243.6z M342.1,242.1
		c-0.3,0-3.2,2-6.4,4.4c-7.1,5.4-9.7,6.2-26.2,8.1c-25.2,2.8-33.2,8-39,25.3c-3.5,10.6-5.7,13.4-15.4,19.4
		c-10.2,6.2-12.6,9.6-12.6,17.7c0,5.7,0.9,7.8,8.5,19.7c5.4,8.6,5.3,12.8-0.9,26.6c-7.2,16.3-7.1,16.7,4.5,28.8
		c4.1,4.2,7.4,8.2,7.4,8.8c0,0.6,0.4,1.1,0.9,1.1s1.1-1.9,1.5-4.3c0.4-2.3,2.3-9.1,4.2-15.1c3.9-12.2,3.9-13.7-0.7-22.8
		c-5.9-11.7-4.5-18.3,6-29.3c6.6-6.9,9.1-11.1,9.1-15.5c0-4.3,2.5-9.9,6.3-13.8c4.1-4.3,11.6-8.1,24.2-12.2
		c21.4-7,35-16.3,40.8-28.1c3.9-7.7,3.6-10.2-1.2-12.1c-4.2-1.7-5.1-1.5-5.1,1.1c0,0.9-1.1,3.3-2.5,5.3c-3.2,4.7-11.8,8.9-24.5,11.8
		c-20,4.6-26.9,9.4-37.1,26.1c-3.3,5.4-9,13-12.6,16.9c-5.6,6-6.6,7.7-7.1,11.6c-0.6,5.5-2.2,6.9-2.2,1.9c0-5.5,2.5-10.3,8.8-16.9
		c3.2-3.4,7.3-8.8,9.2-12.1c6.8-12.2,14.1-20.4,21.1-24.1c1.8-0.9,9.2-3.1,16.6-5c15-3.7,22.4-7.2,25.2-11.8
		c3.1-5.1,3.5-7.5,1.5-9.7C343.5,242.9,342.4,242,342.1,242.1z M628.9,254.5c-8.8,7.9-14.7,11.5-19.2,11.5c-2.7,0-3.8,2.2-1.7,3.5
		c0.6,0.3,1,2.2,1,4c0,3.6-2,5.5-5.9,5.5c-1.7,0-2,0.5-1.5,2.8c0.9,4.5-2.4,6.6-11.1,7l-7.3,0.4l1.4,3.4c0.8,1.8,1.4,3.8,1.4,4.3
		c0,1.5-6.6,3.3-11.3,3.1c-6.5-0.4-6.8-0.3-6.1,2.5c0.8,3.3-0.8,7.7-5.8,15.3c-3.2,4.9-4.3,7.6-4.6,11.7c-0.4,4.7-0.1,5.7,2.1,7.9
		c3.9,3.9,9.4,4.9,19.5,3.7c19.3-2.4,23.9-1,31.9,9.9c6,8.1,13.3,12.2,22.7,12.8c5.6,0.4,6.5,0.2,9.6-2.4c3.9-3.3,8.3-12.4,10-20.6
		c1.6-8.3,3.1-9.6,13.5-12.3c9.6-2.5,14.2-5.8,13-9.6c-0.3-1,0.3-3.9,1.4-6.5c1.3-2.9,1.8-5.6,1.5-7.1c-0.7-2.8-7.2-9.7-15.2-16.2
		c-2.9-2.4-5.7-5.1-6.2-6c-0.5-1-1.6-6.1-2.4-11.4c-2.1-12.7-4.8-19.8-9.2-23.6C644.3,242.7,640.6,243.8,628.9,254.5z M667,252.1
		c-6.4,3.9-6.9,4.6-5.8,8.7c0.6,2,1.4,6.2,1.7,9.2s1.1,5.5,1.6,5.4c3-0.1,10.7-20.3,8.9-23.1C671.9,249.8,670.9,249.8,667,252.1z
		 M359.6,256.1c-0.9,5.7-4.9,12.2-11.4,18.6c-6.7,6.5-19.6,13.2-37.4,19.2c-7.9,2.7-14,5.5-16.2,7.3c-4,3.3-7.6,9.4-7.6,13
		c0,5.8-2.3,10-10,18.3c-4.4,4.8-8.3,9.7-8.6,11.1c-1,3.8,0.2,9.1,3.3,15.2c2.3,4.6,2.8,6.9,2.8,12.9c0,4,0,7.3,0,7.3
		s6.1-2,13.5-4.5c14.4-4.7,16.5-6.1,17.6-12.1c1.1-5.8-0.3-10-4.7-14.1c-4.9-4.6-7.9-9.3-7.9-12.2c0-3.2,8.4-11.7,14.4-14.5
		c2.8-1.3,9.3-3.8,14.5-5.5c16.5-5.4,38.2-18.5,45-27.1c5.3-6.7,7.5-14.2,6.8-23c-1-11.6-4.9-16.3-6-7.2
		c-1.2,10.5-9.5,23.9-19.2,31.3c-3,2.2-11,6.6-17.7,9.6c-6.8,3-14.5,7-17.1,8.9c-2.7,2-5.1,3.3-5.3,3.1c-1.1-1.1,8.2-7.9,15.3-11.2
		c18.5-8.7,20.9-10.1,27.4-16.5c9.8-9.7,16.7-25.9,12.9-30.5C361.9,250.9,360.3,251.8,359.6,256.1z M515.6,254c-0.6,0.1-2.8,1-4.8,2
		l-3.7,2l3.1,7.7c1.7,4.3,3.3,8,3.4,8.2c0.3,0.4,12.4-9,12.4-9.6c0-0.3-2.1-2.7-4.7-5.4C518.8,256.2,516.2,254,515.6,254z
		 M376.4,258.5c4.6,18.2-1.8,32.4-19.9,44.2c-3.8,2.5-10.6,8-15,12.2c-19,18.2-19.8,19.1-25.3,30.4c-9,18.6-7.5,21.1,12.6,22
		c3.9,0.2,7.2,0.1,7.2-0.2s-1.8-1.8-3.9-3.3c-5.1-3.6-7.5-8.7-6.9-14.8c0.7-6.9,4.9-13.2,13.2-20c4-3.3,9.6-8.9,12.4-12.5
		c2.9-3.5,8-8.8,11.5-11.6c11.1-9.2,15.4-15.6,18.3-27c1.7-6.6,1.3-12.8-1.1-18.7C377.8,255.4,375.5,254.8,376.4,258.5z M383.3,256
		c-0.9,0-1.3,0.6-1,1.4c2.2,5.7,2.7,13.8,1.2,20.7c-2,10-6.3,16.6-17.3,26.8c-5.2,4.7-10.9,10.7-12.8,13.3
		c-1.9,2.5-7.2,7.8-11.8,11.7c-17.6,15-19,23.3-5.6,33.6c7.7,5.9,11.3,7,15.1,4.8c1.6-1,2.9-2,2.9-2.4s-3.4-1.9-7.5-3.4
		c-11.4-4.2-14.2-8.8-10.5-17.2c2.6-5.8,6.6-10.1,19-20.3c12.1-9.9,24.6-23,27.1-28.3c1-2.4,1.9-6.5,1.9-9.5c0-3.9,0.4-5.2,1.5-5.2
		c1.2,0,1.5,1.4,1.5,6.2c0,4.9-0.7,7.7-3,12.6c-3.5,7.5-3.6,9-1,14.2c2.4,4.7,2.5,9,0.5,13c-0.9,1.7-1.3,3-0.9,3
		c1.4,0,7.5-4.3,8.9-6.3c2.3-3.3,1.8-5.8-2-10.6c-5.3-6.7-5.4-8.1-0.6-17.2c5.9-11.3,5.7-14.2-2.9-37.7
		C385.3,257.5,384.1,256,383.3,256z M500,260.8c-2,0.8-8.3,1.7-14.5,2.1l-10.9,0.6l4.1,4.4l4.2,4.3l7.8-0.4
		c4.9-0.2,9.2-1.1,11.7-2.2c3.6-1.8,3.8-2.1,3.2-5.4C504.9,259.5,504.1,259,500,260.8z M507.7,271c-0.1,0.1-1.5,0.8-3.2,1.7
		c-1.8,1-6.6,1.9-11.8,2.2l-8.8,0.6l5.7,6.8c3.1,3.7,6,6.7,6.5,6.5c0.4-0.2,4-2.9,7.8-6.1l7.1-5.8l-1.5-3
		C508.6,272.3,507.8,271,507.7,271z M671.5,273c-0.3,1-2,3.1-3.8,4.6l-3.1,2.6l4.6,4.4c2.6,2.4,5.1,4.4,5.6,4.4s1.2-2.2,1.6-5
		c0.4-2.7,1.2-5.2,1.8-5.6c0.8-0.5,0.9,0.9,0.4,5c-1.2,10.2,2.4,17.3,7.4,14.6c2.1-1.1,3.5-5.4,4.5-14c0.8-7-1.3-10.2-7.9-11.9
		C675.7,270.4,672.2,270.7,671.5,273z M548.5,306.6c-3.3-1-6.2,1.5-11,9.3c-2.5,4.1-6.4,9.6-8.6,12.2c-2.3,2.7-3.9,5.3-3.7,5.8
		c0.1,0.5,3.3,4.3,7.1,8.5c8.1,9,14,11.8,25.2,11.9c6.1,0.1,8.4-0.4,17.5-4.2c13.7-5.6,14.7-6.3,8-5.4c-8.4,1.2-15.3,0.8-20.3-1.1
		c-3.7-1.4-5-2.6-6.6-6c-3.3-6.6-2.7-10.3,3-21.1c2.8-5.3,4.9-9.9,4.6-10.1c-0.2-0.2-1.8,0.1-3.6,0.7c-1.7,0.6-4.6,0.9-6.4,0.6
		C552,307.4,549.6,306.9,548.5,306.6z M434,307.2c-1.4-0.6-1.8,11.2-0.5,13.4c2.7,4.3,22.6,15.2,25.8,14.1
		c0.5-0.1-4.8-6.3-11.8-13.7S434.4,307.4,434,307.2z M325.4,321.1c-0.5,0-3.8,1.1-7.3,2.4c-8.1,3-16.9,9-17.7,12.1
		c-0.6,2.5,1.5,6.1,5.9,10.2l2.5,2.3l3.8-8.3c2.4-5,5.8-10.4,8.8-13.6C324.1,323.4,325.9,321,325.4,321.1z M434.7,326.5l-3.6-3.5
		l-1.2,2.2c-0.7,1.3-3.8,5.9-6.9,10.3c-6.9,9.6-8.6,12.8-10,19.1c-2.3,10.3,3,23.2,14.5,34.8c13.2,13.3,24.6,19.1,40.8,20.5
		c9.4,0.9,21-0.1,23.2-1.9c1.9-1.6,20.8-49.5,23-58.3c0.9-3.8,1.5-7.1,1.2-7.3c-0.3-0.3-2.7,1.1-5.5,3c-7.7,5.6-15.5,8.8-21.5,8.8
		c-6.6,0.1-8.6-1-16.3-8.3c-3.4-3.2-7.4-6.1-9-6.4c-8.9-1.8-15.5-4-20-6.5C440.7,331.4,436.7,328.5,434.7,326.5z M408.5,337
		c-2.3,1.9-1.8,2.7,2.3,3.4c3.3,0.5,4,0.2,6.4-2.7c1.5-1.7,2.8-3.5,2.8-4C420,332.1,411.4,334.6,408.5,337z M404.2,344.7
		c-4.4,3.9-11.2,14.5-11.2,17.6v3l2.3-2c3.4-3.1,6.2-4.3,10.1-4.3c3.2,0,3.6-0.3,3.6-2.5c0-1.4,0.8-4.7,1.9-7.4
		c1-2.8,1.6-5.2,1.3-5.5C411,342.4,406.1,343.1,404.2,344.7z M393.3,352c-2.1,0.1-31.8,16.1-38.3,20.7c-15,10.4-27.9,22.9-35.7,34.4
		c-7.1,10.4-15.1,35.8-17.4,54.9c-1.4,12.7-0.7,39.1,1.5,50.5c7.1,38.3,15.7,63.8,35.6,106.5c8.8,19,15.1,36.4,17,47.6
		c2.7,15.5-0.4,32.5-7.3,39.8c-6.2,6.4-22.3,10.3-38.4,9.2c-23.5-1.6-55.8-14.5-64.7-25.8c-1.3-1.7-2.9-2.9-3.6-2.6
		c-1.9,0.6,13,14.1,20.7,18.7c9.3,5.5,21.9,10.5,36.1,14.3c10.5,2.8,13.1,3.1,26.2,3.1c17.1,0,25.6-1.9,39-8.5
		c6.2-3,10.3-5.9,15.1-10.7c12.7-12.8,18.1-29.2,22.4-68.8c3.3-30.5,5-41.2,8.6-54.1c6.1-21.4,16.2-43.6,40.2-88
		c10.7-19.7,11.4-21.3,9.6-22.3c-2.7-1.4-2.4-2.5,0.7-2.4c2.5,0,3.5-1.6,13.9-22.5c6.2-12.4,10.8-22.7,10.3-22.9
		c-0.5-0.1-3.1,0.6-5.8,1.8c-6.9,3-15.4,2.8-23.2-0.5c-3.6-1.5-9.5-2.9-14.4-3.4c-9.7-1-13-2.5-20.4-9.5c-3-2.9-9.4-8-14.2-11.4
		c-10.6-7.4-13-11.2-15.9-24.2c-2.4-10.8-2.1-16.8,1-21C393.1,353.3,393.7,352,393.3,352z M405.8,361.6c-2.1-0.6-7,1.1-10.1,3.6
		l-2.8,2.3l1.2,7c0.6,3.9,1.6,8,2,9.3l0.9,2.4l3-2.6c2.9-2.4,8.6-4.6,12.2-4.6c1.6,0,1.6-0.4-0.2-4.6c-1.1-2.5-2.3-6.3-2.6-8.5
		c-0.4-2.1-1-3.9-1.4-3.9C407.5,362,406.6,361.8,405.8,361.6z M404.4,383.9c-7.8,3.5-7.1,5.3,6,14.4c8.7,6,9.7,6.4,10.6,4.8
		c0.5-1,2.8-2.6,5-3.5s4-1.9,4-2.4c0-0.4-3.3-4-7.3-8C414.6,381.1,412.1,380.4,404.4,383.9z M431.9,400c-1.8,0.1-6.9,2.4-9.4,4.3
		c-2,1.5-2,1.6,1,4.7c1.7,1.7,4.4,4,6,5c3.6,2.3,12,4.3,14.5,3.5c1.7-0.5,5.9-7.1,5-7.8c-0.3-0.2-3.9-2.4-8.1-5
		C436.7,402.1,432.6,400,431.9,400z M458.7,412.1l-6.9-1.8l-1.6,3.4c-1.8,3.9-1.6,4.1,5.8,7.3c6.1,2.6,16,3.3,19.6,1.3
		c1.6-0.9,1.9-1.9,1.6-4.7l-0.4-3.6l-5.7-0.1C468,413.9,462.4,413.1,458.7,412.1z M483,413.9c-3,0.5-3.5,1-3.2,3.1
		c0.3,3.1,0.2,3.1,4.5,1.9c3.1-0.8,5.7-3.3,5.7-5.3C490,412.9,487.9,413,483,413.9z M255.9,545c-2-1.1-2.1-1.1-1.5,1.1
		c0.4,1.3,1,7.1,1.3,12.9l0.6,10.5l7.7,8.3c15.6,16.6,17.6,23.2,26.5,86.8c2.9,20.7,8.6,37.4,15.3,44.6c2.4,2.7,3,2.8,11.1,2.7
		c4.7-0.1,9.7-0.4,11-0.8c2.2-0.6,2-0.9-2.8-4c-7.1-4.5-14.4-15.1-17.7-25.5c-3.1-9.9-4.9-23.2-6.8-52.1c-1.7-24.1-2.9-30.5-8.2-41
		c-4.7-9.6-17.5-26.4-26.7-35.2C261.6,549.4,257.2,545.6,255.9,545z M257,574c-0.4,0-1.2,2.4-1.9,5.2c-0.6,2.9-1.4,6.2-1.7,7.3
		c-0.3,1.4,0.5,3.4,2.6,6c5,6.3,7.9,12.8,11,24.8c4,15.2,5.7,27.4,6.5,45.2c0.7,16.8,2.3,26.2,5.8,33.8c3.9,8.6,6.8,11.2,14.1,13.1
		c9.9,2.5,9.8,2.6,5-7.2c-5.2-10.4-8.8-24.4-11.5-44.2c-1-8-2.6-18.1-3.3-22.5c-0.8-4.4-2-11.6-2.6-16c-2.5-16.9-8.2-29.4-18.7-40.6
		C259.8,576.2,257.4,574,257,574z M252,593c-0.4,0-1.6,1.9-2.6,4.2s-4.3,7.8-7.1,12.1l-5.3,7.8l4.5,5.5
		c8.5,10.4,11.4,18.8,17.6,51.3c3.9,20.7,5.6,24.8,11.9,27.7c2.5,1.2,5.5,2.5,6.7,2.8l2.2,0.7l-2.4-4.4c-4.3-7.5-6.4-18.3-7.5-38
		c-1.7-31-7-54.8-14.5-65.7C254,594.8,252.4,593,252,593z M228.8,626.3l-6.5,7.2l7.1,7.6c8.6,9.2,12.7,17.1,18.6,36.4
		c2.4,7.7,4.6,14.5,5.1,15c0.4,0.6,2.7,2.1,5,3.4l4.2,2.4l-0.7-2.4c-1.4-4.9-6.6-28.8-8.6-39.3c-2.6-13.4-5.7-21.8-10.8-29.4
		C235.9,618,236.2,618,228.8,626.3z M226.9,642.7l-6.4-6.7l-4.7,4.4c-2.7,2.4-4.8,4.6-4.8,4.9c0,0.3,2,1.7,4.5,3.2
		c5.5,3.2,16.2,15.5,21.8,25c5.2,8.8,10,15.1,10.5,13.7c0.6-1.8-6.7-21.9-10.8-30.2C234.7,652.4,230.7,646.8,226.9,642.7z
		 M209.3,648c-1,0-12.3,11.3-12.3,12.3c0,0.4,2.6,0.7,5.8,0.7c7.6,0,13.2,2.8,25.5,12.4c5.3,4.2,9.7,7.3,9.7,6.9
		c0-0.5-2.3-4.4-5.1-8.7c-5.5-8.6-15.8-20-20.1-22.2C211.3,648.6,209.7,648,209.3,648z M200.9,664.1l-7.1-0.7l-6.9,7.9
		c-3.8,4.4-6.9,8.3-6.9,8.8c0,0.4,2.1,0,4.8-0.8c3.2-1,8.7-1.5,17.2-1.5c12.9,0.1,16.9,0.9,29.8,6.1c2.8,1.1,5.2,1.7,5.2,1.3
		c-0.1-1.3-17.8-14.6-23.5-17.6C209.7,665.6,205.9,664.5,200.9,664.1z M204.5,680.4c-16.7-0.5-24.8,1.3-29.5,6.5
		c-3.6,4-12.6,19.8-11.7,20.7c0.3,0.3,3.3-0.9,6.8-2.7c10.3-5.1,22.8-9.6,31.9-11.4c9.7-1.8,25.9-2.1,33.9-0.5
		c3,0.5,5.6,0.8,5.9,0.5c0.9-0.8-2.8-4.3-5.6-5.3c-1.5-0.6-6.5-2.5-11.2-4.3C217.4,681,215.2,680.6,204.5,680.4z M218.5,695.1
		c-15.9,0.1-25.8,2.8-46.3,12.6c-9.6,4.6-11.5,5.9-12.7,8.6c-1.7,4.3-5.5,17.7-4.9,17.7c0.3,0,1.9-1.6,3.6-3.6
		c15.4-17.6,52.6-28.7,84.8-25.5c6.7,0.7,12.4,1,12.6,0.8c0.3-0.2-1.5-2-4-4c-3.8-3.2-5.6-3.9-13.7-5.2
		C232.7,695.7,224,695,218.5,695.1z M216,707.7c-28.7,4.7-46.7,12.9-58.1,26.5l-4.9,5.9v12.7v12.7l3.3-5.7c4.5-8.1,9.7-14,18.4-20.9
		c13.9-11.1,28.1-17.9,45.6-22.1c7.9-1.9,12.2-2.2,29.9-2.2c11.5-0.1,20.8-0.4,20.8-0.7c0-1.5-8.5-4.3-17-5.5
		C245.3,707.2,221.9,706.7,216,707.7z M260.7,717.7c-22.9-0.6-30.3,0-44.2,3.7c-32,8.5-59.6,32.5-61.3,53.3
		c-0.3,4.1,0.3,7.7,2.8,15.8c3.4,10.8,5,13.1,5,7.1c0-5,4.6-20.1,8.6-28.1c8.9-18.1,23.2-29.2,48.5-37.9c11.2-3.8,42.3-7.6,62.9-7.7
		h16.5l-8.8-2.9C282.6,718.4,280.4,718.2,260.7,717.7z M222.2,733.4c-11.7,3.8-27.1,11.9-33.4,17.5c-10.8,9.8-19.5,26.1-22.4,42.1
		c-2.4,13.2-2.2,14,5.8,27.4c3.9,6.7,7.4,12.4,7.8,12.9c0.4,0.4-0.1-2.3-1.1-6c-4.5-17.3-0.4-44.6,9.4-62.3c1.7-3,7-9.4,11.7-14.2
		c7.6-7.5,10.1-9.3,20.1-14.2C232.6,730.4,232.9,730,222.2,733.4z"/>
	<path d="M479.5,139.6c1.8,1.9,1.9,3.5,0.2,5.7c-1.2,1.7-1.6,1.7-7.7,0.1c-8.4-2.1-18.1-1.5-28,1.9c-4.1,1.4-7.7,2.3-7.9,2.1
		c-0.8-0.7,3.4-4.6,7.7-7.1c2.4-1.4,6.9-3.4,10-4.4C463.1,134.9,475.6,135.8,479.5,139.6z"/>
	<path d="M464.3,161.5c2.6,1.3,5.3,2.2,6,1.9c0.9-0.3,1.3,0.6,1.3,3c0,2.2-0.4,3.2-1.2,2.9c-1.9-0.7-2.6,1.4-0.9,3
		c1.5,1.5,5.4,1.1,8.6-0.9c0.7-0.4,1-0.1,0.7,0.7c-0.2,0.8-1.9,2.3-3.6,3.4c-3.1,2-3.1,2.2-3.2,9.8c0,12.2-3.2,17.1-12.9,19.7
		c-16,4.3-28.7-8.2-25.1-24.6c2.2-9.7,8.8-15.7,18.5-16.7c4.9-0.5,6-2.7,1.3-2.7c-1.8,0-6.2,1.4-9.8,3.2c-8.9,4.4-8.7,4.4-6.5,1.8
		c1.1-1.3,4.3-3.3,7-4.6C451.3,158.2,458.2,158.2,464.3,161.5z M441.8,173.7c-7.2,6.5-6.1,20.8,1.9,25.5l2.9,1.8l-0.4-5.9
		c-0.4-5.4-0.2-6,2.8-9.4c4.8-5.5,11.9-6.2,16.8-1.6c2.9,2.7,3.4,2.2,2.2-2.3c-1.4-4.8-4.6-8.7-8.6-10.4
		C453.8,169,445.8,170.1,441.8,173.7z M453.5,186.5c-3.1,3-3.2,5.9-0.4,7.9c5.2,3.6,11.8-4.3,7.3-8.8
		C458.2,183.4,456.3,183.6,453.5,186.5z"/>
	<path d="M501.6,215.9c-1.9,1.6-2,1.1-0.5-2.3c1-2,0.9-3-0.5-5c-2.3-3.7-7.5-4.4-12.6-1.7c-2.2,1.2-4.3,2.1-4.6,2.1
		c-1.3,0,2-4.1,4.4-5.4C498.1,198,510.2,208.8,501.6,215.9z"/>
	<path d="M470.9,217.3c2.3,0.3,2.4,2.5,0.1,3.2c-1.7,0.5-1.9,0.9-0.9,2.2c3.4,4,12,5.7,20.2,4c3-0.7,3.7-0.5,3.7,0.8
		c0,2.6-6.7,4.8-12.3,4.1c-5.1-0.6-13-4.5-14.5-7.2c-0.7-1.3-1.3-1.3-3.5-0.3c-1.5,0.7-3,0.9-3.4,0.6c-0.9-1,2.8-4.8,6.2-6.3
		C468.2,217.7,470.1,217.2,470.9,217.3z"/>
	<path d="M640,260c2,0,4,2,4,3.9c-0.1,1.4-0.3,1.3-1.4-0.2c-1.5-2-3.7-2.2-5.4-0.5c-0.7,0.7-1.2,0.8-1.2,0.2s0.5-1.5,1.2-2.2
		C637.9,260.5,639.1,260,640,260z"/>
	<path d="M630.6,268.6c1.8,1.5,1.8,1.5-0.6,1c-1.7-0.4-3.2,0.1-4.7,1.6c-1.9,1.8-2.3,1.9-2.3,0.5c0-0.9,1-2.3,2.2-3.1
		C628,266.6,628.2,266.6,630.6,268.6z"/>
	<path d="M646.1,271c1.9,0,4.5,2.7,3.5,3.7c-0.4,0.4-1.1,0.1-1.5-0.6c-0.6-0.9-1.9-1.1-4.2-0.6c-3.2,0.7-3.3,0.6-1.4-0.9
		C643.6,271.8,645.2,271,646.1,271z"/>
	<path d="M618.8,277.5c-0.1,0.5-0.9,0.9-1.6,0.7c-0.8-0.2-2.3,0.4-3.3,1.4c-2.5,2.3-3.3,1.4-1.3-1.5
		C614.2,275.9,619.4,275.4,618.8,277.5z"/>
	<path d="M633.1,284.7c1.3,1.5,1.1,1.6-1.3,1c-1.5-0.4-3-0.3-3.3,0.3c-0.3,0.5-1.2,1-1.8,1c-0.7-0.1-0.1-1,1.2-2
		C630.7,282.6,631.4,282.5,633.1,284.7z"/>
	<path d="M652.7,288.5c0.1,0.5-1.3,1-3.2,1.1c-3.5,0-4.6-1-2.2-2C649.1,286.9,652.3,287.4,652.7,288.5z"/>
	<path d="M611.9,290.5c0.3,1.7,0.1,1.7-1.2,0.6c-1-0.8-2.5-1-3.9-0.5c-2.1,0.6-2.1,0.5-0.9-1C607.7,287.4,611.4,287.9,611.9,290.5z"
		/>
	<path d="M658.7,299.5c0.8,2.4-0.5,3-2.4,1.3c-1.2-1.1-2.5-1.3-3.8-0.8c-3.1,1.3-3.9,1.1-2.5-0.5
		C651.7,297.5,657.9,297.5,658.7,299.5z"/>
	<path d="M640,302.4c0,0.6-0.5,0.5-1.2-0.2s-2.3-1.2-3.6-1.2s-2-0.4-1.7-1C634.9,297.8,640,299.7,640,302.4z"/>
	<path d="M619.8,301.3c0.8,1,0.1,1.2-3.3,1.2c-3.3,0-4.1-0.3-3.3-1.3C614.6,299.6,618.5,299.6,619.8,301.3z"/>
	<path d="M602.8,309.3c0.3,1.6,0.1,1.7-1.7,0.5c-1.7-1.1-2.4-0.9-4.6,1.2c-1.4,1.3-2.5,1.9-2.5,1.2c0-0.6,1.2-2,2.7-3.2
		C599.8,306.6,602.3,306.7,602.8,309.3z"/>
	<path d="M668,309.5c1.7,2.1,0.6,2.9-1.8,1.4c-1.7-1-2.3-1-3.6,0c-1.9,1.6-2.2,0.1-0.4-1.7C663.9,307.5,666.5,307.7,668,309.5z"/>
	<path d="M632.8,312.8c0.3,1.1,0,1.2-1.4,0.4c-1.1-0.5-2.5-0.7-3.1-0.5c-0.7,0.3-1.3-0.1-1.3-0.7C627,310.4,632.2,311.2,632.8,312.8
		z"/>
	<path d="M657,316c1.2,2.2,0.1,2.7-1.8,0.8c-0.9-0.9-1.8-0.9-3.7,0c-2.9,1.3-3.3,0.5-0.7-1.4C653.3,313.5,655.8,313.7,657,316z"/>
	<path d="M587,317.5c0.8,0.9,0.9,1.5,0.2,1.5c-0.6,0-1.4-0.5-1.7-1.1c-0.5-0.7-1.6-0.2-3.1,1.2c-2.6,2.4-3,2-1.4-1.2
		C582.3,315.6,585.3,315.4,587,317.5z"/>
	<path d="M612.8,319.3c0.8,1,0.2,1.2-2.9,1.2c-3.8,0-5.1-0.8-2.6-1.8C609.5,317.7,611.7,318,612.8,319.3z"/>
	<path d="M643.4,327.6c2.2,2.1,2,2.7-0.5,1.3c-1.2-0.6-3-0.9-4-0.6c-1.9,0.5-2.5-0.3-1.2-1.6C638.8,325.5,641.8,326,643.4,327.6z"/>
	<path d="M623.1,328c1,0.6,1.9,1.8,1.9,2.7c0,1.4-0.2,1.4-1.9-0.1c-1.5-1.4-2.4-1.5-4-0.6c-2.6,1.3-2.9-0.4-0.3-1.9
		C620.9,326.8,620.8,326.8,623.1,328z"/>
	<path d="M635.8,341.3c0.3,1.6,0.1,1.7-1.7,0.5c-1.6-1-2.7-1-5.1-0.1c-3.5,1.3-4.1,0.1-0.7-1.5C631.5,338.6,635.4,339.2,635.8,341.3
		z"/>
	<path d="M486.6,386.1c2.9,2.4,0.4,7.9-3.1,6.5c-1.9-0.7-1.9-2.6,0.1-5.4C484.9,385.4,485.5,385.1,486.6,386.1z"/>
	<path d="M350,404c0.6,0,0.5,1.1-0.3,2.7c-2.8,5.4-2.9,7.1-0.8,9.2c1.2,1.2,3.4,2.1,5.1,2.1c2.6,0,3,0.4,3,2.7
		c0,3.5,2.7,6.3,6.1,6.3c3.2,0,4.8,1.7,2.5,2.6c-3.9,1.5-9.4-2.3-10.8-7.5c-0.2-0.7-1.9-1.9-3.8-2.5s-4.1-2.3-4.9-3.8
		c-1.4-2.5-1.4-3.1,0.7-7.2C348,406,349.4,404,350,404z"/>
	<path d="M416.9,434.5l1.8,2.5c5.3,7.4,9.7,8.8,14.7,4.9l2.6-2v2.5c0,4,2.7,5.9,7.5,5.3c2.2-0.4,4.9-0.9,5.8-1.3
		c1-0.3,1.7-0.1,1.7,0.5c0,1.6-4.4,3.1-9.1,3.1c-3.7,0-7.9-2.6-7.9-4.9c0-0.6-1.2-0.6-3,0c-5.8,2.1-11.8-1.5-13.4-8.1L416.9,434.5z"
		/>
	<path d="M345.8,449.7c0.1,2.1,0.4,4.8,0.7,6c0.7,2.8,5.4,4.5,9.7,3.2c1.8-0.5,3.4-0.9,3.5-0.9c0.2,0,0.3,2,0.3,4.5
		c0,5.4,2,6.9,7.1,5.5c1.9-0.6,3.5-1,3.6-1s0.3,1,0.5,2.2c0.4,3.2,4.4,4.9,9.8,4.2c4.2-0.5,4.4-0.4,2.6,1c-3.5,2.8-13,1.2-14.1-2.4
		c-0.5-1.4-1.3-1.7-4.4-1.3c-3.2,0.4-4.1,0.1-5.9-2.2c-1.2-1.5-2.2-3.8-2.2-5c0-1.8-0.4-2.2-2-1.8c-5.9,1.6-11-2.9-11-9.7
		c0-2.6,0.3-5,0.8-5.4C345.2,446.2,345.6,447.5,345.8,449.7z"/>
	<path d="M311.2,470.5l1.2,5.7c1.7,8,2.9,9.1,9.3,8.6l5.3-0.5v3.2c0,1.8,0.9,4.4,2.1,5.9c1.7,2.2,2.8,2.6,7,2.6c3.1,0,4.8,0.4,4.4,1
		c-0.3,0.5-2.6,1-4.9,1c-5.5,0-9.3-2.8-10.2-7.6c-0.6-3.2-0.9-3.5-3.4-2.9c-3.3,0.7-8.4-1.6-10-4.4c-0.5-1.1-1-4.4-0.9-7.3
		L311.2,470.5z"/>
	<path d="M342,526.5c0.5,1.1,1.1,2.8,1.4,3.8c0.9,2.7,3.5,3.1,7.4,1.1c2.1-1,4-2,4.5-2.2c0.4-0.2,0.7,0.7,0.7,2.1
		c0,4.1,3.2,6.1,9,5.4c6-0.7,6.7,0.8,1,2.3c-4.6,1.2-7.2,0.3-10.6-3.8c-1.7-2.1-2.3-2.3-4.1-1.3c-1.2,0.6-3.1,1.1-4.2,1.1
		c-2.6,0-6.1-4.6-6-7.9C341.1,524.8,341.2,524.7,342,526.5z"/>
	<path d="M343.9,576c2.8,3.4,2.8,3.4,5.5,1.7c2.5-1.7,2.6-1.7,2.6,0.2c0,4.7,7.3,6.6,15.8,4.2c2-0.6,3.2-0.6,3.2,0
		c0,1.6-4.9,2.9-11.1,2.9c-5.1,0-6.3-0.4-8.3-2.5c-1.5-1.6-3-2.3-3.9-1.9c-1.9,0.7-6.7-3.7-6.7-6.3C341,573,341.8,573.5,343.9,576z"
		/>
	<path d="M359.9,614.1c2.2,7,6.2,9.1,9.8,5c0.9-1.1,2.1-1.7,2.6-1.4c1.6,1-3.6,5.3-6.4,5.3c-3.5,0-6.9-4.2-6.8-8.4
		C359.2,611.6,359.2,611.6,359.9,614.1z"/>
	<path d="M365.7,654.5c0.9,1.6,2.1,3.3,2.7,3.7c1.5,1,4.7,0,7.5-2.6c1.8-1.6,2.5-1.8,2.9-0.7c0.2,0.7,1.3,2.2,2.3,3.2
		c2.7,2.7,2.3,3.2-1.1,1.4c-2.2-1.2-3.5-1.3-4.9-0.5c-5.2,2.7-11.2-0.2-11.1-5.5C364.1,651.9,364.4,652.1,365.7,654.5z"/>
	<path d="M365.7,683.5c1.5,7.1,1.2,6.8,4.4,6.1c2.2-0.4,2.9-0.2,2.7,0.7c-0.6,1.7-5.9,2.1-6.9,0.5c-0.5-0.7-0.8-3.1-0.8-5.3
		C365.2,683.3,365.4,682.4,365.7,683.5z"/>
</g>
</svg>
