<?xml version="1.0" encoding="utf-8"?>
<!-- Generator: Adobe Illustrator 21.0.0, SVG Export Plug-In . SVG Version: 6.00 Build 0)  -->
<svg version="1.1" baseProfile="tiny"
	 id="svg100" inkscape:version="0.92.2 5c3e80d, 2017-08-06" sodipodi:docname="42.svg" xmlns:cc="http://creativecommons.org/ns#" xmlns:dc="http://purl.org/dc/elements/1.1/" xmlns:inkscape="http://www.inkscape.org/namespaces/inkscape" xmlns:rdf="http://www.w3.org/1999/02/22-rdf-syntax-ns#" xmlns:sodipodi="http://sodipodi.sourceforge.net/DTD/sodipodi-0.dtd" xmlns:svg="http://www.w3.org/2000/svg"
	 xmlns="http://www.w3.org/2000/svg" xmlns:xlink="http://www.w3.org/1999/xlink" x="0px" y="0px" viewBox="0 0 850 850"
	 xml:space="preserve">
<sodipodi:namedview  bordercolor="#666666" borderopacity="1" gridtolerance="10" guidetolerance="10" id="namedview102" inkscape:current-layer="svg100" inkscape:cx="421.87845" inkscape:cy="655.84829" inkscape:pageopacity="0" inkscape:pageshadow="2" inkscape:window-height="978" inkscape:window-maximized="1" inkscape:window-width="1920" inkscape:window-x="0" inkscape:window-y="1" inkscape:zoom="0.58897835" objecttolerance="10" pagecolor="#ffffff" showgrid="false">
	</sodipodi:namedview>
<g id="g98" transform="translate(0.000000,0.000000) scale(1.00000,1.00000)">
	<path id="path4" fill="none" d="M0,0h172.5C302.9,0,345,0.3,345,1.2c0,2.2-9.3,16.9-13.9,22.1c-2.6,2.9-5.9,6.7-7.3,8.5
		c-2.8,3.4-3.1,3.3-4.2-1c-0.8-3.6-9.6-14.3-15.9-19.6c-2.9-2.3-5.5-4.2-5.9-4.2c-0.5,0-0.8,2.4-0.8,5.3c0,4.5-0.6,6.2-3.2,9.8
		l-3.1,4.3l-1.9-2.5l-2-2.6l-9.1,9.6c-9.3,9.7-11.5,13.5-15.7,26.6c-0.7,2.2-3.3,8.4-5.8,13.9l-4.5,9.9l1.2,7.1
		c0.7,3.9,2.1,10.6,3.1,15c1.1,4.3,2,8.8,2,10c0,3.6-3.2,7.6-18.6,23.6c-38.9,40.4-53.9,59.8-60.4,78.4c-2.9,8-1.7,10.4,11.4,23.1
		c11.2,10.9,11.4,11.1,12,16.5c1,8.4,5.2,21.9,9.4,29.9c4.9,9.3,17.3,22.1,25.6,26.3c3.2,1.6,6,2.8,6.2,2.6s-1.7-3.4-4.1-7.1
		c-2.5-3.6-4.5-7.1-4.5-7.6c0-0.6,2.1,1.2,4.7,4c6.2,6.7,15,12.3,31.7,20.4c9.8,4.7,16.8,7.3,23.5,8.9c5.3,1.2,10.1,2.5,10.8,2.9
		c0.6,0.4,1.9,2.9,2.7,5.5c1.1,3.3,2.5,5.2,4.6,6.4c2.5,1.4,3,2.4,3,5.3c0,5.3,3.2,8,11.2,9.4c3.5,0.6,8.8,1.1,11.6,1.1
		c5.2,0,5.2,0,13.4,8.3c4.6,4.5,9.9,9,11.8,9.9c7.2,3.4,10.7,4.7,15.5,5.9c2.8,0.6,9.6,2.5,15.1,4c5.6,1.6,10.9,2.9,11.8,2.9
		c2,0,2.1-0.6-0.9,6.5c-2.7,6.6-3.1,12.5-1.4,20.7c2.5,11.5,9.3,20.1,20.5,25.6c3.4,1.7,7.3,4.5,8.7,6.1c2.4,2.9,5.7,11.9,5.7,15.6
		c0,2.1,4.2,12.9,8.8,22.5c5.1,10.6,15.8,25.5,26.6,36.8c23,24.3,48.1,53.8,53.8,63.2c15,24.9,20.5,56.1,14.9,84
		c-2.3,11.4-7.7,27.1-11,32c-0.9,1.4-2.3,3.7-3,5.2c-2,3.9-14.7,19.5-21.1,25.8c-14,13.9-27.3,22.9-45.2,30.6
		c-13.3,5.8-15.5,5.7-18.2-1.1c-2.5-6.5-2.7-23.4-0.4-31.6c1.7-5.7,8.9-20.2,16.3-32.4c7-11.6,12.6-23.5,17-36
		c1.6-4.6,3.5-19.6,3.5-27.5c0-34.4-19.3-70.7-49.5-93.1c-12.2-9.1-36.3-19.9-44.2-19.9c-2.7,0-2.7-0.5-0.9,7.3
		c4.6,20.1,5.8,41.8,3.1,54.2c-2.2,9.9-8,26.3-15.1,42.5c-6.5,15-12.4,32.8-14.8,45c-5.6,27.9-5,42,3,66.9c1.3,4.1,2.1,7.7,1.8,8
		c-0.5,0.5-6.8-2.7-14.9-7.6c-14.7-9-44.6-25.8-48.9-27.4c-2.8-1.2-5.8-2.7-6.7-3.5c-0.8-0.8-2.1-1.4-2.8-1.4
		c-1.5,0-24.5-11.8-29.4-15.2c-5.7-3.9-6.9-6.1-8.8-17.2c-0.9-5.6-2.7-14.7-3.8-20.4c-2.9-14-2.8-29.4,0.3-50.9
		c3.4-23.5,4.1-34.3,2.5-34.3c-2,0-13.5,12.5-18.4,20c-7.7,11.7-13.7,26-16.9,40c-6.3,27.9-4.3,61.5,5.4,88.5
		c5,14.1,7.5,18.9,17.9,35c5.9,9.1,28.7,32,37.6,37.7c7.1,4.6,25.5,14.2,25.5,13.4c0-0.3,3,0.6,6.7,2c9.6,3.6,34.6,6.8,48.8,6.1
		c14.5-0.7,26.9-2.4,38.5-5.4c8.3-2.2,12.2-2.5,31-2.9c32.7-0.6,41.6-1.2,52-3.5c5.2-1.1,10.4-2.2,11.5-2.3
		c3.2-0.5,20.3-6.6,29-10.4c24.4-10.6,53.7-30.9,70.5-48.9c19.8-21.2,33.7-43.9,49.9-81.8c15.7-36.4,20.3-59.8,18.1-90.5
		c-1.3-17.8-4.4-38.2-7.2-47.5c-1.1-3.9-2.7-9.4-3.4-12.3c-0.8-2.9-2.3-7.3-3.4-9.7c-1.1-2.4-2-4.8-2-5.3c0-3.5-16.6-34.7-23.7-44.4
		c-2.1-2.9-4.7-6.7-5.7-8.3c-1.1-1.7-8-9.2-15.5-16.9c-12.6-12.8-30.1-26.8-41.1-32.8c-3.5-2-3.3-3.3,0.8-4.3
		c5.4-1.3,17.4-9.2,26.2-17.3c4.9-4.6,9-8.9,9-9.7c0-0.7-1-1.5-2.1-1.8c-2.1-0.6-2.1-0.7,0.8-3.1c1.6-1.4,5.3-4,8.2-5.9
		s9.2-7.7,14.1-12.9c13.8-14.7,28.2-22.7,34.9-19.5c2.5,1.2,3.4,3.3,5.6,14.1l0.6,2.9l2.1-3.3c6.5-10.7,6.4-28.6-0.2-39.7
		c-2.6-4.3-2.5-8.3,0-12.7c2.9-4.8,5.9-15.8,6.6-24.1c1.6-18.1-11.6-47.4-29.6-66c-6.1-6.3-8.1-9-8.9-12.5
		c-2.3-9-5.5-14.3-13.8-22.6c-8.9-9-15.1-12.8-27.1-16.3c-8.6-2.6-23.1-5.3-24.3-4.5c-1.8,1.1-0.8-1.9,2.1-6.1
		c3.8-5.5,5.2-9.2,4.4-11.7c-0.5-1.7-0.8-1.6-4.2,1.2c-7.9,6.5-12.5,9.2-21.9,12.6c-9.5,3.5-10.2,3.6-23.8,3.6
		c-12.4,0-14.9-0.3-22.5-2.7c-6.9-2.2-9.3-3.5-12.6-7c-4.9-5-6.8-9.6-5.1-11.9c0.7-0.9,3.9-1.9,7.9-2.5c8-1.1,16-5.2,19.9-10.1
		c6.1-7.6,7.5-25.2,3.2-38.1c-2.5-7.2-10-17-15.7-20.3c-8.5-5-24.1-7.3-37.2-5.5c-4.9,0.7-17.7,1.3-28.4,1.3
		c-16.7,0.1-20.1,0.4-23.5,2c-5.8,2.6-9.3,3.5-16,4.1c-8.8,0.8-23.3,3.3-28.5,4.8c-6.6,2-7.1,1.4-3.9-5.1c3.9-8.2,5.2-13.9,4.5-19.7
		c-0.7-6.1-5-17.1-7.9-20.3l-2-2.2h250.6H850v425v425H425H0V425V0z M189.4,320.6c-0.8,4.3,1.5,8,6.2,10c6.5,2.7,12.4-1.4,12.4-8.6
		c0-3-0.6-4.4-3.1-6.4C199,310.6,190.8,313.3,189.4,320.6z M210.4,363.2c-4.9,9.7-2.8,21.7,5.2,28.7c4.3,3.8,13.2,6.5,18.2,5.6
		c14.4-2.7,22.2-16,18.1-30.8c-1.3-4.9-7.7-11.3-12.6-12.6C225.2,350.3,215.3,353.4,210.4,363.2z M265.4,384.4
		c-4.7,2.1-9.7,7.9-11.8,13.5c-1.1,3.1-3,6-4.8,7.4c-6.8,5.1-8,6.7-7.4,9.5c0.4,1.5,2,3.9,3.7,5.5c2.9,2.7,3,2.7,12.8,2.1
		c6.4-0.5,11-0.3,13.1,0.5c11.5,4,24.7-12.9,19.9-25.6c-1.4-3.7-6.5-9-11.1-11.4C274.7,383.3,269.1,382.7,265.4,384.4z M225.6,465.9
		l-4.9,2.9l-4.1-1.9c-5-2.2-13.6-2.5-17.5-0.4c-1.6,0.8-4.3,3.3-6,5.7c-2.6,3.5-3.1,5.1-3.1,9.8c0,7.1,3.2,12,9.9,15.4
		c5.8,3,6.6,4,7.5,9.1c1.1,6,6.9,17.4,11.6,22.8c4.9,5.6,12.2,10.7,17,11.9c1.9,0.5,5.1,1.3,7,1.8c5.6,1.5,15.1,1.1,22.7-0.8
		c22.1-5.9,35.2-32.2,27.4-55.4c-1.9-5.7-3.4-7.9-9.6-14.3c-7.8-7.9-11.9-10.3-22-13C250.5,456.7,237.3,459,225.6,465.9z"/>
	<path id="path6" fill="#20B2AA" d="M204.3,317.8c2.5,2.2,2.1,5.4-1.1,8.5c-3.4,3.2-5.1,3.4-8.6,0.6s-3.3-6.1,0.5-9.3
		C198.4,314.8,200.9,314.8,204.3,317.8z"/>
	<path id="path8" fill="#00FF7F" d="M231,354c6.8,0.1,16.9,8.3,18.9,15.6c1.9,6.8-2.1,17.2-8.5,22.3c-2.2,1.7-4,2.1-10.1,2.1
		c-4.4,0-8.5-0.6-10.1-1.4c-3.6-1.9-7.8-6.5-9.1-9.9c-1.5-4-1.4-12.8,0.3-16.8c1.8-4.4,3.9-6.2,10.6-9.3
		C226,355.2,229.6,354,231,354z M235.6,361.8c-0.3,0.5,0.6,1.5,2,2.3c3,1.5,4.9,4.9,5.9,10.2c0.8,4,1.9,4.1,2.9,0.2
		c0.9-3.5-2-9.3-5.8-11.6C237.1,360.8,236.4,360.6,235.6,361.8z M216.1,373.6c-2.7,3.4-2.6,4.6,0.5,8.3c3.1,3.8,6.2,4,9.4,0.6
		c2.1-2.2,2.2-2.7,1-5.5c-0.7-1.7-2.2-3.7-3.4-4.5C220.6,370.3,218.4,370.7,216.1,373.6z"/>
	<path id="path10" fill="#20B2AA" d="M222.5,376c1.7,1.9,1.5,5-0.3,5c-1.7,0-4.2-3.7-3.6-5.4C219.4,373.5,220.3,373.6,222.5,376z"/>
	<path id="path12" fill="#7FFFD4" d="M271.5,388c7.6,0,13.5,3.9,16.1,10.6c1.6,4.3,1.6,4.9,0.1,9.8c-1.8,5.6-4.5,8.8-9,10.5
		c-5.7,2.2-16.2,0.4-15-2.5c1-2.6-0.6-6.1-4.7-10.3c-2.2-2.2-4-4.9-4-5.8s2.5-4.1,5.5-7C265.8,388.2,266.2,388,271.5,388z
		 M276.4,393c-1.6,0-1.5,0.2,0.4,1.6c3.1,2.1,5.2,6.6,5.2,11.1l0.1,3.8l1.5-2.8c2-3.7,1.2-7.1-2.6-10.8
		C279.4,394.3,277.3,393,276.4,393z"/>
	<path id="path14" fill="#20B2AA" d="M253.8,413.9c2.6,5.1,2,6.4-2.9,5.9c-2.4-0.2-3.8-1.1-4.8-2.9c-1.3-2.4-1.3-2.9,0.3-5.3
		C248.8,407.9,251,408.6,253.8,413.9z"/>
	<path id="path16" fill="#7FFFD4" d="M288.3,483.9c3,6.3,3.2,7.2,3.2,18.1c0,11.1-0.1,11.7-3.3,17.9c-4.2,7.9-11,14.7-18.5,18.4
		c-5.4,2.7-6.4,2.9-16.6,2.5c-10.3-0.3-11.1-0.5-19.2-4.5c-9.4-4.6-14.4-9-18.1-15.5c-2.8-5-5.3-15.6-4.4-18.4
		c0.3-1.1,2.8-3.1,5.6-4.6c3.5-2,5.6-4,7.1-7c2.1-4.2,2.2-6.9,0.3-16.6c-0.4-2-0.2-3.8,0.7-4.8c1.9-2.3,10.9-6.7,15.4-7.5
		C261.6,458.3,279.9,466.7,288.3,483.9z M277.4,486.5c1.4,3.9,2.8,15.2,2.4,20.5c-0.3,4-1.4,7.8-3.5,11.9c-3.3,6.4-2.3,7.3,1.6,1.5
		c3.7-5.4,5.3-14.4,4-22.9c-0.6-3.9-1.8-8.2-2.5-9.8C277.9,484.9,276.4,483.9,277.4,486.5z M236,516.3c-3.8,1.9-5.5,6.1-3.9,9.9
		c1.7,4.2,8.2,8.3,13.1,8.3c10.3,0,10.4-13.8,0.2-18.1C241.3,514.7,239.2,514.7,236,516.3z"/>
	<path id="path18" fill="#00FF7F" d="M247,521.5c3.4,3.2,3.8,5.6,1.3,8c-1.9,2-7.1,1.5-10.9-1c-2.8-1.8-3.2-5.9-0.9-8.5
		C238.8,517.5,243.6,518.2,247,521.5z"/>
	<path id="path20" fill="#00FF7F" d="M216,472.2c0,3.2-9.6,22.4-11.6,23.2c-3.9,1.5-11.4-7.7-11.4-14.2c0-4.8,2.5-9.9,5.9-12
		C204.2,466,216,468,216,472.2z M202.2,482.1l-2.7-3.3l-2.2,2.4l-2.2,2.4l3.3,2.6c3.2,2.6,3.5,2.6,5,0.9
		C204.8,485.5,204.8,485.1,202.2,482.1z"/>
	<path id="path22" fill="#00FF7F" d="M219.4,477.3c1.6,0.5,3,6.9,2.2,10c-0.8,3.5-4.6,7.7-7.3,8.2c-2,0.3-2.3,0-2.3-2.9
		c0-4.1,1.7-9.2,4.3-12.9C217.3,478.2,218.7,477.1,219.4,477.3z"/>
	<path id="path24" fill="#FFA500" d="M348.4,4.9l1.8,2.3c3,4,4.2,9,4.2,17.8c0,7.5-0.4,9.3-3.2,15.5c-4.2,8.8-7.3,12.9-10.9,14.2
		c-5.1,1.9-16.9,5.3-18.1,5.3c-3,0,0.9-10.3,6.3-16.9c1.5-1.7,2.2-3.1,1.7-3.1s-2.8,2.1-5,4.7c-7.6,9.1-6,1.3,2.2-10.6
		c2.2-3.2,6.5-9.4,9.5-13.7c3-4.4,6.8-9.6,8.5-11.7L348.4,4.9z"/>
	<path id="path26" fill="#FFA500" d="M306.8,17.5C312.5,23.6,318,33.7,318,38c0,1.4-0.8,5.9-1.8,10c-1.8,7-2,7.5-5.2,8.3
		c-2.4,0.6-3.6,0.5-4.5-0.5c-1.8-1.9-3.5-7.6-3.5-11.4c0-2.4-0.5-3.4-1.6-3.4c-1,0-1.4,0.6-1,1.7c1.2,4.4,2.8,16,2.5,18.2
		c-0.2,1.3-1.1,2.9-2,3.4c-1.3,0.8-2.3,0.4-4.3-1.9c-4.9-5.4-5.9-8.2-5.4-15.4c0.4-5.6,1-7.3,4.1-11.3c4.5-5.8,6.1-10.6,5.2-15.7
		c-0.4-2.1-0.3-4.9,0.1-6.2C301.2,11.7,301.6,11.9,306.8,17.5z"/>
	<path id="path28" fill="#DDA0DD" d="M297,26c0,2-2.8,6.5-5.9,9.4c-1.9,1.8-3.1,4-3.1,5.5c-0.1,4.2-3.4,10.2-9.4,16.9
		c-8.8,9.9-10,12.8-10.1,25.2c0,9.9,0.2,10.8,3.1,15.9c1.7,3,3.5,5.6,4,5.8c0.5,0.2,1.7-0.9,2.7-2.4l1.8-2.8l-0.5,4.5
		c-1.3,11.1-10.1,23-17.1,23c-1.9,0-3.5,0.4-3.5,0.8c0,0.5,2.7,2.2,6,3.8l6,2.9l-7.3,7.3c-3.9,4-11.7,10.3-17.2,13.9
		c-14.4,9.5-28.7,24.2-34.4,35.3c-7.2,14.3-11.1,28.9-11.1,42c0,4.4-0.4,8-0.9,8c-1.7,0-15.1-12.2-16.6-15.1
		c-3-5.7-1.6-10.3,7.9-24.9c12.8-19.9,29.5-40.4,58-71.2c3.9-4.2,8.4-8.2,9.9-8.9c3.2-1.5,3.2-1.1,0.8-10.7
		c-1.1-4.3-2.5-13.7-3.1-20.9L255.8,76l3-3.5c1.7-1.9,3.4-5.2,3.8-7.2c1.2-6.9,6.4-19.5,9.9-24.2c6.1-8.3,12.9-13.4,9.5-7.2
		c-0.9,1.9-0.8,2.1,1.5,2.1c1.4,0,2.5-0.4,2.5-0.9c0-0.4,1.9-2.9,4.3-5.5C294.5,25.2,297,23.8,297,26z"/>
	<path id="path30" fill="#DC143C" d="M430.2,39.9c1.9,0.7,1.1,1.4-5.8,6c-8.3,5.6-7.5,5.7,4.1,0.9c17.2-7.2,21.3-8.2,33.5-8.2
		c30.1-0.1,44.2,12.7,44.4,40.4c0.1,9.8-0.1,10.8-2.8,15.8c-4.4,7.8-8.4,9.9-22.3,11.2c-11.8,1.1-23.7,5-21.6,7.1
		c0.7,0.7,2.2,0.3,4.6-1.1c4.4-2.6,7.2-1.5,8.2,3.2c1.1,4.9,5.3,10.5,10.3,13.9c9.4,6.4,33.4,8.7,50.2,4.9
		c8.6-1.9,22.8-8.3,26.7-11.9c2.8-2.6,3.3-2.6,3.3-0.1c0,2.7-5.5,8.7-10.4,11.3l-4.1,2.2l5,0.2c5.4,0.3,20.9,2,26.2,2.9
		c4.6,0.7,16.6,6.8,22.9,11.5c6.3,4.8,16.2,17.4,17.1,21.9l0.6,3.1l-3.9-2.2c-11.4-6.4-25.6-12.7-35.4-15.8
		c-4.7-1.5-20.1-2.5-25.6-1.6c-8.1,1.2-4.6,2.5,6.9,2.5c6.8,0,13.4,0.6,16.7,1.5c3,0.8,6.6,1.7,8,2c9.4,1.7,29.7,15.4,42.5,28.6
		c13.1,13.5,20.9,26.2,25.5,41.4c2.8,9.3,2.9,10.3,3.1,23.2c0.2,11.1-0.1,12.9-2.7,20.2c-1.6,4.5-3.2,8.1-3.6,8.1
		c-0.4,0-3.3-2.3-6.4-5c-7.7-6.8-9.1-6.3-2.3,0.7c11.3,11.8,16.9,23,16.9,34c0,6.4-2.6,13.6-4,11.3c-0.5-0.8-1-2.2-1-3.1
		c0-2.9-8.2-13.9-12.9-17.2c-6-4.4-13.1-6.9-13.1-4.8c0,0.5,2,1.7,4.5,2.8c5.1,2.1,5.8,3.3,1.8,3.3c-2.3,0.1-1.4,0.8,4.5,3.8
		l7.3,3.8l-10.3,5.2c-5.7,2.9-11.8,6.2-13.5,7.2c-4.1,2.4-4.1,1.5-0.2-3.9c1.7-2.4,2.8-4.5,2.6-4.7c-1.2-1.3-7.4,5.9-12.4,14.5
		c-5,8.4-10.5,15.1-12.4,15.1c-0.3,0-0.1-2.5,0.4-5.5c0.6-3,0.8-5.8,0.4-6.1c-0.3-0.3-3.3-0.8-6.6-1.1c-4.5-0.4-7.3-0.1-10.8,1.2
		c-4.4,1.7-7.6,3.6-24.8,14.7c-3.3,2.1-6.1,3.4-6.3,2.8s1.5-3.1,3.8-5.8c2.3-2.6,4.9-6.1,5.8-7.9c1.4-2.9,1.4-3.4-0.2-5.7
		c-2.2-3.4-4.4-3.3-9.2,0.7c-3.9,3.2-16.6,12.1-20.7,14.4c-3.2,1.8-3.2,0.3,0.2-8.9c6-16.3,7.4-22.4,6.9-30.1
		c-0.3-4-1.2-8.6-2.1-10.2c-3-5.9-45.8-43.9-65-57.9c-25.9-18.7-33.5-23.4-48-29.5l-4.8-2l3.3-4.7c15.9-22.2,15.3-20.5,15.3-40.9
		c0-14.5,0.3-17.5,1.8-20.7c1.1-2.1,2.7-4,3.8-4.3c1.2-0.4,1.9-1.6,1.9-3.3c0-1.5,1.1-6.8,2.4-11.7c3.2-11.9,4.1-21.6,2.6-29.1
		c-2.2-10.8-2.3-10.6,5-13.1c10.1-3.5,23-2.6,23,1.5c0,0.9-2.4,4.1-5.2,7l-5.3,5.4l3.9-1.6c5.2-2.2,6-2.9,8.1-7.7
		c1.4-3,2.3-3.9,3.7-3.6c2.8,0.8,2.1-0.9-1.4-3.5c-2.8-1.9-4.7-2.3-11.8-2.5c-14.7-0.4-28.6,4.8-39,14.4c-3.3,3-6,4.9-6,4.2
		c0-2.3,5.5-11,10-16.2c2.3-2.6,3.8-4.7,3.4-4.7s-5.3,4-10.9,8.9c-14.1,12.3-21,16.8-35.2,22.9c-6.8,2.8-12.7,5.2-13.1,5.2
		c-0.5,0-2.3,0.7-4.1,1.6c-6.4,3.2-3.9,0.6,5.4-5.7c5.2-3.5,9.5-6.8,9.5-7.3c0-1.3-2.5,0-9.8,5.3c-3.9,2.8-7.3,5.1-7.7,5.1
		c-0.3,0,2-3,5.3-6.6c8.4-9.3,7-11.4-1.8-3c-8.2,7.7-19.3,13.5-27.7,14.6c-5.7,0.6-5.7,0.7-2.9,1.9c1.6,0.6,5.5,1.4,8.7,1.8
		c3.3,0.3,5.9,0.9,5.9,1.3s-1.3,2.5-2.9,4.6c-2.8,4-5.1,5.8-12.6,10.1c-4.1,2.3-5,2.8-22,10.8c-5.5,2.5-13.1,6.3-17,8.2
		c-7.1,3.7-18.7,13-20.7,16.7c-0.6,1.1,1.6-0.3,4.8-3c3.3-2.8,7.7-6.1,9.9-7.5c3.7-2.4,17.1-8.9,18.2-8.9c0.3,0-2.6,3.5-6.4,7.8
		c-10.7,12.2-16.3,19.4-19.5,25.3c-4,7-7,15.7-5.7,16.4c0.5,0.4,0.9,0.1,0.9-0.6c0-1.8,4.1-9.8,8-15.4c6.4-9.4,14.2-19.5,14.9-19.5
		c0.4,0,2.4,1.7,4.4,3.8c3,3,4.7,6.5,8.6,17.7c6.5,18.8,7.8,22.2,10.2,27.3c1.1,2.4,2.9,6.9,4.1,10c1.1,3.2,2.4,6.2,2.9,6.8
		c1.3,1.7,4.9,17.5,4.9,21.8c0,4.7-2.6,15.9-4.7,19.9c-2.3,4.5-12.7,14.1-18.6,17.3c-3.1,1.5-5.3,3.2-5.1,3.6
		c0.3,0.5,4.4-1.3,9.1-3.8c10.9-6,11.5-5.3,8.1,8.6c-1.5,6-4.4,11.7-6.6,12.8c-0.9,0.5-3.1,0.7-4.8,0.5c-4.7-0.7-8.9,4-9.7,10.7
		c-0.4,2.9-1.2,5.8-1.8,6.6c-1.6,2-8.3,1.7-17.5-0.7c-4.3-1.1-8.6-2.2-9.4-2.3s-2.8-0.8-4.5-1.4c-1.6-0.7-5.4-2.2-8.4-3.4
		c-7.9-3.2-22.7-13.2-29.2-19.8c-5.7-5.9-11-14.3-13.4-21.5c-2.2-6.5-5.4-18.8-5.7-21.9c-0.2-1.6-0.8-3.1-1.4-3.3
		c-2.2-0.7,1.6,24.5,5.6,36.9c2.1,6.5,3.4,11.8,3,11.8c-0.5,0-3.5-2.9-6.8-6.5c-16.4-17.9-22.8-45.2-17.8-76.6
		c5.1-32.8,25-54.7,72.9-80.1c2.1-1.1,3.7-2.2,3.5-2.3c-0.2-0.2-2.7,0.3-5.7,1.1c-6,1.5-7.1,1.3-5.1-1.1c1.6-2,7-4.8,7.7-4.2
		c0.8,0.8,10.2-2.3,15.7-5.1c11.3-6,20.6-18.9,22.3-31.2l0.8-5.5l5-1.3c2.8-0.7,7.9-1.7,11.5-2.2c8.2-1.2,23.7-6.1,28.7-9
		c7.3-4.4,20.7-18.9,19-20.6c-0.3-0.3-1.7,0.2-3.1,1.2c-3.3,2.1-15.1,3-19.7,1.6c-1.9-0.6-4.7-1.4-6.4-1.7c-5.4-0.9-8.9-2.1-9.2-3.1
		c-0.2-0.6,1.6-1.9,3.9-3c6.1-2.7,6.5-2.8,5.1-1.3c-3.4,3.5-0.2,3.1,5.7-0.8c5.7-3.7,18.7-6.9,23.3-5.8l2.5,0.7l-3.7,3.4l-3.6,3.4
		l10.4-5.1c5.7-2.8,11.3-5.2,12.5-5.5c1.1-0.2,3.2-0.8,4.6-1.4s4.5-1.4,7-2C416.7,38.1,426.6,38.5,430.2,39.9z M317.9,208
		c-0.7,0-0.9,0.9-0.5,2.2s1.5,6.6,2.6,11.8c1.2,5.2,2.3,10.7,2.7,12.2c0.3,1.6,1.2,2.8,2,2.8s1.3-0.6,1.1-1.3
		c-0.3-0.6-1.8-6.6-3.3-13.2c-1.5-6.6-2.9-12.6-3.1-13.3C319.2,208.6,318.5,208,317.9,208z"/>
	<path id="path32" fill="#FFA500" d="M290,57.9c1,2.1,2.6,4.1,3.3,4.4c1.4,0.5,4.7,6.1,4.7,7.9c0,0.4-0.9,0.8-2.1,0.8
		c-3.5,0-8.9,3.1-11.6,6.7c-3.8,4.9-2,5.2,3.2,0.4c3.2-2.9,5.3-4.1,7.5-4.1c4.8,0,4.1,3.8-1.4,7.7c-2.4,1.7-6.9,6.5-10,10.7
		s-6.1,7.6-6.7,7.6c-1.7,0-5-8.7-4.8-12.7c0-2.1-0.2-5.9-0.6-8.4c-0.9-5.6,1.1-10.3,6.7-16.2c2.1-2.2,3.8-4.4,3.8-4.9
		c0-0.4,0.9-1.7,2-2.8C286.5,52.5,287.4,53,290,57.9z"/>
	<path id="path34" fill="#FFFF00" d="M315.3,59.7c4.9,0.9,3.6,4.7-4,11.9c-3.6,3.5-6.9,6.4-7.3,6.4s-1.2-1.1-1.8-2.5
		c-1.6-3.6,0.5-11,3.9-13.9C308.9,59.2,310.8,58.8,315.3,59.7z"/>
	<path id="path36" fill="#FFA500" d="M353.2,62.6c7.3,1.6,13.8,2.5,17.3,2.2c3-0.1,5.5,0,5.5,0.4c0,2.6-22.1,16-28.3,17.2
		c-1.2,0.2-5,1.1-8.4,2s-9.4,1.9-13.5,2.1l-7.3,0.6l-3.3-5.2c-4.9-7.8-4.4-8.9,6.3-12.2c12.2-3.8,12.6-4,8.8-4.5
		c-1.8-0.2-3.3-0.7-3.3-1.2c0-1.1,3.3-3,6.9-4C337,59.2,338,59.3,353.2,62.6z"/>
	<path id="path38" fill="#FFA500" d="M311.9,82.6c1.8,2.2,2.1,4.1,2.1,11.1c0,7.5-0.3,9-3.4,15.2c-3.8,7.4-10.5,14.3-17.2,17.5
		c-2.1,1-4.6,2.2-5.5,2.7c-5.5,2.6-19.9,2.1-19.9-0.7c0-0.8,0.8-1.7,1.8-2.1c4.3-1.5,7.3-6,11.7-17.7c6.8-17.9,8.6-21.6,11.7-23.8
		c2.5-1.7,8.8-4.2,8.8-3.3c0,0.1-1.4,3.2-3.1,6.8c-1.8,4-3.2,8.8-3.5,12.4l-0.5,5.8l1.6-4c3-7.3,8.8-19,10.3-20.8
		C308.8,79.4,309.5,79.5,311.9,82.6z"/>
	<path id="path40" fill="#D8BFD8" d="M445.1,86.7c0.3,0.5,1.4,5.3,2.4,10.8c0.9,5.5,1.9,11,2.2,12.2c0.5,2.2,0.2,2.3-5.1,2.3
		c-6.4,0-7.3,1.2-1.8,2.6c4.5,1.1,5.1,3.3,2.7,10.4c-1.9,5.6-4.9,8.1-6.8,5.7c-0.7-0.9-2.1-1.7-3.2-1.9c-1.7-0.3-1.9-1-1.7-4.3
		c0.2-2.6,0-3.6-0.6-3c-2,2.1-16.3,29.5-16.8,32.5c-0.4,2,0.1,4.7,1.5,7.9c2.7,6.4,2.7,8.3-0.5,12.1l-2.7,3.1l3.4-1.4
		c3-1.2,3.4-1.8,3.7-5.6c0.2-2.6-0.4-5.7-1.3-7.8c-0.9-1.9-1.5-3.6-1.3-3.8c0.8-0.8,13.4-2.2,14-1.6c1.5,1.4,2.1,19.6,0.8,23.7
		c-1.6,4.7-8.6,14.8-15.5,22.2c-4.5,4.8-5.5,5.4-10.5,6.1c-5.7,0.8-8.6,2-15.8,6.9c-3.8,2.6-4.8,2.8-8.5,2.1
		c-11.6-2.2-24.9-13.4-36.2-30.5c-4.2-6.2-8-11.6-8.7-12c-0.6-0.4-4.2-1.3-8.1-2c-4.9-1-8.2-2.3-10.6-4.2c-5-4.1-5.8-5.6-4.1-8.6
		c1.4-2.8,6.9-6.8,8.1-6c0.4,0.2,1.8,3.5,3,7.2c2.9,8.5,3.6,5.9,1-3.8c-1.8-6.7-1.9-10-0.2-10c0.3,0,4.2,3.2,8.6,7
		c4.4,3.9,8.5,7,9,7c0.7,0,0.8-2.7,0.2-8.5c-0.5-4.6-0.6-9.6-0.3-11.1c0.4-1.4,2.8-4.5,5.3-6.7c2.5-2.3,7.8-7.4,11.7-11.2
		c5.8-5.8,8.1-7.4,12.6-8.7c24.4-7.2,31.6-9.9,35.5-13.7c4.5-4.2,9.4-7.5,10.2-6.8c0.2,0.3,0,4-0.6,8.2s-1.1,8.5-1.1,9.6
		c0,2.4,1.9,2.5,2.6,0.1c3.3-9.8,10.4-19.3,18.3-24.4C442.4,87.3,444.7,86.3,445.1,86.7z M388.5,119.4l-5-0.6l-7.5,6.7
		c-9.6,8.5-10.2,9.9-6.4,15.6c5.1,7.5,13.3,11.2,21.3,9.4c3.8-0.8,5.2-3.4,7.7-13.8c1.6-6.9,2.1-7.8,4.3-8.3c4.6-1,4.7-1.2,0.4-1.3
		c-4.8-0.1-4.9-0.2-2.8-3.5c1.6-2.3,1.5-2.4-2.7-3C395.4,120.3,391.2,119.8,388.5,119.4z M381,183.2c0.2,11.2,10,22.8,19.3,22.8
		c4.2,0,9.2-4.3,10.2-8.9c0.4-1.7,2.1-3.9,4.2-5.4l3.7-2.6l-4-1.8c-3-1.4-6.5-1.8-15.5-1.8c-9.7,0-12-0.3-13.6-1.8
		C383,181.7,381,181.5,381,183.2z"/>
	<path id="path42" fill="#0000CD" d="M382.6,127.4c1.1,0.2,2.3,1.9,3.2,4.6c1.4,4,1.3,4.6-0.7,8.6c-1.1,2.4-2.6,4.4-3.2,4.4
		c-0.8,0-0.8-0.4-0.2-1.3c2.4-2.9,2.3-9-0.2-14.9C381,127.6,381.3,127.2,382.6,127.4z"/>
	<path id="path44" fill="#0000CD" d="M389.9,127c3,0,4.3,0.5,5.1,1.9c2.3,4.4,0.2,17.4-3.1,19.2c-1.1,0.5-3.5,0.7-5.4,0.3l-3.4-0.6
		l2.4-3.3c1.9-2.4,2.5-4.4,2.5-8.4c0-2.9-0.5-6.1-1-7.2C386,127.2,386.3,127,389.9,127z"/>
	<path id="path46" fill="#FF0000" d="M389.3,188.5c1.2,0.4,6.3,0.9,11.4,1.2l9.2,0.5L408,194c-2.2,4.4-5.9,6-11,4.9
		c-3.7-0.8-10-6.7-10-9.5C387,188.2,387.5,187.9,389.3,188.5z"/>
	<path id="path48" fill="#0000CD" d="M432.7,137.1c1.4,1.2,1.5,6.4,0.3,11.4c-0.7,3-0.7,3-1.3,0.5c-1-4.4-1.6-11.7-1-12.4
		C431,136.3,431.9,136.5,432.7,137.1z"/>
	<path id="path50" fill="#FF0000" d="M341.5,141.3c1,0.4,2,16.7,1.1,16.7c-1,0-10.1-10.3-10.1-11.3c0-0.6,1.8-2.2,4-3.4
		S341,141.2,341.5,141.3z"/>
	<path id="path52" fill="#0000CD" d="M429,142c0.5,0.8,1,2.6,1,4c0,2.8-3.4,9-5,9c-0.5,0-0.1-1.5,1-3.3c1.1-1.7,2-5,2-7.2
		C428,141.5,428.3,140.9,429,142z"/>
	<path id="path54" fill="#DDA0DD" d="M333.7,178.4c4.4,0.7,6.2,2.6,13.2,13.7c5.5,8.6,12.3,15.8,21.9,22.9c3.7,2.7,7.2,5.3,7.7,5.7
		c0.6,0.5,2.2,1.6,3.8,2.6c1.5,1,2.7,2.3,2.7,3c0,0.6-1.4,4.1-3,7.5c-3.3,7.1-3.4,7.2-2.1,7.2c0.5,0,2.1-2.1,3.7-4.8
		c4.3-7.5,13.2-17.9,18-21.1c4.1-2.6,5.1-2.9,12.2-2.7c13.5,0.4,28.1,7.7,54.3,27.4c22.7,17,45.6,36.1,57.4,48.1l12,12.2l-0.2,10.4
		c-0.2,12.1-2.1,20.2-11.4,47.6c-3.2,9.7-5.9,18-5.9,18.4c0,0.3,0.5,0.5,1.1,0.3c0.7-0.2,1.8-2.9,2.6-5.8c2.2-9,5.4-14.1,12.4-19.8
		c13.2-10.8,23.9-17.8,25.3-16.5c1.5,1.5,0.3,4.1-4.3,8.8c-3.3,3.4-5.9,7.4-8,12.4c-1.7,4.1-3,7.5-2.8,7.7c0.1,0.1,2-1.3,4.2-3.2
		c7.3-6.3,39.5-24.7,39.5-22.5c0,1.9-8,7.9-20,15.1c-6.9,4.1-12.7,7.5-12.9,7.6c-0.1,0.2,0,0.7,0.4,1.3c0.4,0.7,1.9,0.4,4.3-0.8
		c4.4-2.3,28.5-18,32.3-21c4.9-3.9,8.3-3.6,4.4,0.3c-2.8,2.7-22.5,18-28.3,21.9c-5.5,3.7-7.4,5.7-5.4,5.7c1.2,0,14.6-9.7,24.5-17.8
		c3.7-3,7-5.2,7.3-4.9c1,1-3.3,7.2-8.3,11.9c-5.4,5-18.6,13.8-20.8,13.8c-0.7,0-1.7,0.5-2,1c-1,1.6-5.9,3.9-9.6,4.5
		c-10.1,1.8-21.9,5.3-21.9,6.6c0,0.6,0.5,0.7,1,0.4c0.6-0.4,2.7-0.9,4.8-1.1c2-0.3,6-1.1,8.7-1.9c17.7-4.9,22.2-6.6,32-12.3
		c3.8-2.3,7.1-3.9,7.4-3.7c0.9,1-5.4,7.8-11.2,11.8c-5.5,4-21,11.7-23.3,11.7c-0.5,0-4.5,1.2-8.9,2.6c-18.7,6-28.3,5.7-36.2-1.1
		c-5.1-4.3-6.8-9.1-8.4-23.5c-1.3-11.4-1.3-40.1-0.1-46.5c0.7-3.8,1-4,4.1-3.8c3.9,0.1,3.5-0.4-4.6-5.4
		c-3.4-2.1-16.6-10.8-29.5-19.4c-12.8-8.6-25.2-16.6-27.4-17.8c-6.9-3.4-24.6-10.2-25.2-9.6c-0.3,0.2,4.2,2.7,9.9,5.4
		c15.1,7.1,17.3,10.1,18.5,25.2l0.7,7.9l-4.2,4c-4.6,4.4-9.7,7.3-18,10.1c-7.8,2.7-9.6,2.5-13.7-2c-3.5-4-6.5-5.4-13.9-6.7
		c-2.2-0.4-5.2-1.5-6.7-2.5c-1.7-1.3-4.4-1.9-7.7-1.9c-8.8,0-17.4,5.8-24.4,16.4l-2.5,3.8l-1.3-2.3c-0.8-1.5-1.2-6.1-1.2-12.2
		c0.1-7.4-0.2-9.6-1.1-8.7c-0.7,0.7-1.1,6.3-1,17.1c0.2,15.8,0.1,16-2,15.4c-2.2-0.7-7.5-6-13.4-13.4l-3.3-4.1l3-4.3
		c3.2-4.4,6.1-15.7,6.1-24c0-2.8,1.4-6.9,4.8-13.5l4.7-9.6v-10.5c-0.1-11.1-1.8-17.6-8.9-33.9c-3.4-7.5-6.2-18.7-7.6-29.2
		c-0.6-4.7-1.3-9.3-1.6-10.3C329.9,178.1,330.3,177.9,333.7,178.4z"/>
	<path id="path56" fill="#8B0000" d="M447.3,281.6c2.7,1.7,17.4,11.5,19.7,13.2c1.4,1,5.7,3.8,9.5,6.2c3.9,2.4,9.4,6.1,12.3,8.2
		l5.2,3.9v7.8c0,4.3-0.3,9.2-0.6,10.8l-0.6,2.9l-6.1-1.3c-10.4-2.1-20.8-1.2-26.4,2.4c-2.5,1.6-2.5,1.6-6.1-7.7
		c-3.1-7.9-8.1-35.2-8.2-44.3C446,281.7,446.4,281.1,447.3,281.6z"/>
	<path id="path58" fill="#00FF7F" d="M384.1,306c4.7,1.3,5.5,4.1,2.8,9.7c-5.2,10.7-17.6,19.3-29.1,20.1l-5.7,0.4l1.4-4.5
		c3.4-11.4,9.9-19.6,19-23.9C379.3,304.6,379.2,304.6,384.1,306z"/>
	<path id="path60" fill="#008000" d="M445,306.4c0,3.1-8.3,10.7-15.6,14.2c-9.6,4.6-13.2,5.6-15.5,4.3c-2.6-1.3-0.9-4.6,2.3-4.7
		c5.6,0,22.8-8.9,26.8-13.7C444.5,304.6,445,304.6,445,306.4z"/>
	<path id="path62" fill="#00FF7F" d="M403.6,315.3c2.3,2,2.7,3.2,2.7,7.1c0,4.3-0.4,5.1-4.9,9.7c-8.9,9.1-21,14.2-33.4,14.2
		c-8.7,0-13.8-1.7-14.6-4.9c-0.4-1.4-0.5-2.7-0.3-2.9c0.2-0.2,2.9-0.4,5.9-0.6c3-0.1,7-0.8,8.8-1.5c6.3-2.6,14-8.5,18.8-14.6
		c2.7-3.5,5.5-6.8,6.4-7.5C395.5,312.3,400.6,312.8,403.6,315.3z"/>
	<path id="path64" fill="#4B0082" d="M444.8,314c0.4,0,1.7,3.5,3,7.7c4.2,14.7,12.8,29.4,20.8,35.7c2,1.6,6.8,4.5,10.8,6.5
		c6.3,3.3,7.1,4,7.4,6.8c0.4,4.3-3.5,29.4-5.3,34.1c-3.2,8.2-5.7,22.1-5.3,29.7c0.2,4.1,0.1,7.5-0.1,7.5s-2.4-0.7-5-1.5
		c-2.5-0.8-10.3-3.3-17.3-5.4c-6.9-2.2-14-4.6-15.6-5.5c-4.4-2.3-8-7.8-9.6-14.6c-3.7-15.7-15.6-24.8-36.6-28
		c-17.4-2.7-27.9-7.8-37.7-18.3c-5.7-6-6.4-8.4-3.4-11.1c1.8-1.7,2.2-1.5,8.8,2.9c3.8,2.5,8.3,4.8,9.9,5.1c14.8,2.8,22.1,2,28.7-3
		c4.8-3.6,10.5-13.5,13.6-23.6c2.7-8.7,4.3-10.7,10-12.4c6.3-1.8,12.1-4.9,17.7-9.1C442.1,315.6,444.5,314,444.8,314z"/>
	<path id="path66" fill="#00FF7F" d="M322.2,315c0.5,0,6.6,5.3,13.5,11.7c11.4,10.7,12.3,11.8,10.6,13.1c-4.2,3.1-19.7-2.9-25.8-10
		c-4-4.8-4.4-7.8-1.4-11.9C320.2,316.3,321.6,315,322.2,315z"/>
	<path id="path68" fill="#00FF7F" d="M315.6,331c0.4,0,2.3,1.3,4.3,2.8c6.5,5.1,16,9.2,21.2,9.2c6.2,0,6.8,1.3,1.8,3.6
		c-6.9,3.1-25.7,1.7-30.1-2.3c-2.5-2.2-2.3-8.3,0.2-11.1C314.2,332,315.3,331,315.6,331z"/>
	<path id="path70" fill="#00FF7F" d="M409.9,333.6c1.4,3.3,0.8,5.4-3.5,11.4c-5.9,8.2-14.2,12.7-25.9,14c-6.7,0.8-6.6,0.8,2.5,0.5
		c5.2-0.2,10.6-0.6,12-1l2.5-0.7l-2.5,2c-3.2,2.7-11.2,5.2-16.4,5.2c-5,0-13-2.5-14.8-4.7c-1.1-1.4-0.7-1.5,4-0.8
		c2.8,0.4,5.2,0.5,5.2,0.2c0-0.2-2.6-1.4-5.8-2.5c-5.2-1.9-13.3-8.4-12.1-9.6c0.2-0.3,2.5,0,4.9,0.6c6.6,1.5,17.8,0.4,24.9-2.5
		c7.5-3,16.1-8.2,19.8-11.8C408.3,330.5,408.4,330.5,409.9,333.6z"/>
	<path id="path72" fill="#8B0000" d="M470.3,337c2.3,0,2.7,0.4,2.7,2.7l0.1,2.8l1.5-2.8c1.3-2.3,2.1-2.7,5.9-2.7
		c5.3,0,12.1,2.5,13,4.8c0.7,1.9-2.5,19.2-3.6,19.2c-0.4,0-1.5-1.9-2.5-4.3c-2-4.9-3-3.1-1.5,3.1c0.5,2.3,0.6,4.2,0.2,4.2
		c-1.4,0-8.9-8.7-10.1-11.8c-1.6-4.1-3.5-5.5-2.7-1.9c0.4,1.4,1,3.2,1.3,4.1c1.3,3.4-2.4,1.4-8.4-4.5c-3.7-3.6-6.2-6.8-6-7.7
		c0.2-1,1.9-2.5,3.8-3.4C465.9,337.8,468.7,337,470.3,337z"/>
	<path id="path74" fill="#00FF7F" d="M350.1,347.1c1.6-0.2,1.9,5.2,0.4,7.5c-3.1,4.8-6.2,5.9-16.2,5.9c-10.2,0-12.5-1.1-13.8-6.8
		l-0.7-2.7l7.8-0.1c4.4,0,11-0.9,14.9-1.9S349.8,347.1,350.1,347.1z"/>
	<path id="path76" fill="#008000" d="M496,377.3c0,3.5,0.8,5.6,3.5,9.6c3.6,5.3,4.4,9.5,2.2,12.4c-1.5,2.1-14.9,6.8-16.1,5.7
		c-0.4-0.4,0.4-6.2,1.8-12.9s2.6-14.3,2.6-16.9c0-2.7,0.3-5.2,0.7-5.5C493.3,367,496,370.9,496,377.3z"/>
	<path id="path78" fill="#4B0082" d="M555.8,396c21.3,11.6,48.3,36.4,60.7,55.7c2.1,3.2,4.8,7.4,6.1,9.3
		c2.2,3.4,12.2,23.1,15.9,31.5c3.3,7.6,8.6,24,11.6,36.5c10.3,42.5,6.7,83.8-11.2,128c-5.1,12.7-6.7,16.1-12.6,28
		c-13.2,26.7-21.1,37.8-40.8,57.6c-16,16.1-26.8,24.6-43.3,34.3c-7.2,4.2-28.2,14.4-28.2,13.6c0-0.2-3.7,1-8.1,2.6
		c-4.5,1.6-9.3,3.1-10.8,3.3c-1.4,0.2-6.9,1.4-12.1,2.6c-7.2,1.7-13.8,2.3-27.5,2.6c-9.9,0.2-19.2,0.6-20.7,0.7
		c-1.6,0.2-2.8,0.1-2.8-0.2c0.1-0.3,4.3-2.6,9.5-5c5.2-2.5,9.5-4.9,9.5-5.5c0-1.1-14.2-5.9-21.3-7.1c-4-0.8-5.5-2-3.4-2.8
		c0.8-0.3,4.9-1.1,9.3-1.7c17.7-2.7,38.1-11,54.6-22.2c8.8-5.9,32.7-30,38.1-38.4c10.3-16,17.1-33,18.9-47.4
		c1.4-11.1,0.4-36.6-1.8-44.5c-6.9-25.7-15.5-42.4-32-62c-5-6.1-12.6-14.4-16.9-18.5c-12.3-12-27.1-29.2-34.1-39.7
		c-9.9-14.9-19.8-36.5-23.4-51.1l-0.8-3.2h21.7h21.7l1.8-9.3c1.3-6.4,3.3-11.9,6.5-18.2c6-11.7,16.2-27.3,18.2-28
		c0.9-0.3,3.5,0.2,5.9,1c6.1,2.2,10.4,1.8,19.5-1.4C543.4,393.5,550.6,393.2,555.8,396z"/>
	<path id="path80" fill="#008000" d="M411.3,398c0.7,0,2.9,1.1,4.9,2.5c3.4,2.3,8.1,10.3,10.3,17.5c0.6,2.2,0.3,2.1-3.6-1.5
		c-3.4-3.2-3.9-3.5-2.6-1.3c0.9,1.5,1.7,3.4,1.7,4.2s1.6,2.8,3.5,4.3c5.7,4.6,5.7,11.9,0,17.3c-2.6,2.4-2.2,2.6-9.6-4
		c-2.6-2.2-5.3-5.5-6-7.2c-1.1-2.8-1.1-3.2,0.9-4.9c2.9-2.3,2.8-2.9-0.7-2.9c-4.4,0-5.3-1.8-4-8.6c0.5-3.2,1.7-8,2.5-10.7
		C409.5,400.1,410.7,398,411.3,398z"/>
	<path id="path82" fill="#008000" d="M497,404.5c0,0.3-3.9,8.3-8.7,17.8c-5.8,11.5-8.8,16.5-9.1,15.2c-0.2-1-0.2-5.5,0-10
		c0.4-6.6,0.9-8.8,3.2-12.5c3.2-5.1,5.7-7.5,10.1-9.5C495.7,404,497,403.7,497,404.5z"/>
	<path id="path84" fill="#008000" d="M442.5,435.3c4.5,0.4,23.6,7.2,30.5,10.7c4.3,2.2,4.4,2.3,2.1,3.2c-3.6,1.3-34.9,1.2-36.6-0.2
		c-0.7-0.6-1.9-3.4-2.6-6.2c-1.1-4.7-1-5.2,0.7-6.5C437.8,435.4,440,435,442.5,435.3z"/>
	<path id="path86" fill="#008000" d="M432.5,443.9c0.6,2.9,0.5,3.3-1,2.8c-0.9-0.4-2.1-0.7-2.6-0.7c-1.2,0-1.1-2.7,0.2-5.2
		C430.4,438.3,431.5,439.4,432.5,443.9z"/>
	<path id="path88" fill="#8A2BE2" d="M395,530.5c2.3,1.4,10.7,15.4,13.4,22.1c4.3,10.8,5.3,20.1,3.4,33.6
		c-1.4,10.3-1.5,12.9-0.4,11.7c0.2-0.2,1.4-5,2.7-10.5c2.2-9.8,2.2-10.4,0.7-17.5c-2.2-10.2-4.6-18.6-6.9-23.7
		c-1.1-2.3-2.2-5.6-2.6-7.3l-0.6-3.1l9.3,4.7c10,5,19,12.6,22,18.5c1,1.9,3,8.7,4.5,14.9c2.3,9.6,2.7,12.8,2.2,20
		c-0.9,13.2-3.3,21.2-14.7,49.1c-15.3,37.2-21.6,59.2-23,79.5c-0.7,11.2-0.1,30.7,1,31.8c0.3,0.3,0.5-6.7,0.5-15.6
		c0-13.4,0.4-18,2.4-26.7c2.5-11.3,6.9-26.9,10.2-36.5c1.2-3.3,2.5-7.4,2.9-9c1.1-4.3,7.7-22.1,9.4-25.3
		c2.2-4.3,10.6-26.2,12.2-31.7c0.8-3.1,1.4-9.9,1.4-17.8c0-12-0.2-13.5-3.5-23.4c-1.9-5.8-3.5-10.8-3.5-11c0-0.3,1.9,1,4.2,2.8
		c9.2,7.4,18.5,23.5,21.2,37.1c3.1,15.1,1.3,28.2-6.8,50.8c-2.4,6.9-5,14.1-5.7,16s-2.2,6.2-3.5,9.5c-3.7,10-3.7,11.3-0.1,5
		c10.8-19,18.7-42.5,20.2-60c0.6-7.2-0.6-21.7-2.2-26.3c-0.4-1.2-0.3-1.4,0.5-0.7c1.7,1.6,7.8,19.9,9.7,28.9
		c5.3,26.3,1.5,46.2-14.5,74.1c-9.6,16.7-15.1,27.6-18.4,36.2c-3.3,8.4-3.6,10.1-3.6,19c0.1,7.1,0.6,11.3,2,15.3
		c2.6,7.3,2.5,8.5-0.6,9.9c-3.6,1.6-4.8,0.3-7.3-7.7c-3.1-10.2-4.4-20.8-3.7-29.5c0.7-8.9,4.6-26.1,8.2-36.1c1.4-3.8,2.3-7.1,2-7.3
		c-0.7-0.7-5.4,10.1-8.2,18.6c-5.1,16-5.2,41.2-0.1,55.8l2.5,7.2l-3.9,1.5c-2.2,0.9-4.6,1.6-5.5,1.6c-2.1,0-7.4-2.8-10.3-5.4
		l-2.4-2.1l1.8,2.8c1,1.5,1.6,3,1.3,3.2c-0.4,0.5-15.7-7.1-17.3-8.6c-0.5-0.5-2-0.9-3.3-0.9c-4,0-16-7-19.6-11.4
		c-7.8-9.6-13.4-25.4-14.9-41.8c-2-21.5,1.3-43.4,9.2-61.8c1.1-2.5,3.6-8.6,5.7-13.5c3.6-8.8,5.7-13.6,10.7-24.5
		c1.4-3,3.8-9.6,5.3-14.5c2.8-8.8,2.9-9.6,2.9-30.5c-0.1-19.8-0.3-22.2-2.6-30.8c-1.4-5.1-2.4-9.4-2.2-9.6
		C389.2,529.1,393.8,529.7,395,530.5z M401.6,621.3c-0.4-0.4-2.5,3.9-10.6,21.2c-5.5,11.6-8.7,22.3-12.6,41.3
		c-0.3,1.3-0.1,2.1,0.4,1.8s1.4-3.1,2.1-6.3c1.6-6.9,8-25.9,10.9-32.3c1.2-2.5,3.9-9.2,6.2-14.9
		C400.2,626.4,401.8,621.5,401.6,621.3z M377.3,714.4c0.1,3.9,0.7,7.1,1.3,7.3c0.7,0.2,0.9-1.5,0.6-5.4
		C378.5,707.6,377,706.1,377.3,714.4z M384.6,744c-3.2-7-3.6-3.2-0.4,4.3c2.6,6.4,4.3,8.4,3.5,4.2C387.4,750.8,386,747,384.6,744z"
		/>
	<path id="path90" fill="#7B68EE" d="M249.8,579c1,0-0.3,11-1.8,15.6c-0.6,1.7-3.8,6.6-7.1,11c-7.1,9.4-14.5,24.1-19,37.6
		c-1.7,5.4-3.6,9.8-4.1,9.8c-2,0,0.4-16.2,3.9-26.3c1.9-5.5,3.9-10.7,4.4-11.6c0.5-0.9,1.9-3.9,3.2-6.6c4.7-9.8,8.3-15.5,14-22.5
		C246.4,582.2,249.4,579,249.8,579z"/>
	<path id="path92" fill="#8A2BE2" d="M245.8,604c0.7,0-0.7,33.5-1.7,40.6c-0.5,3.5-2.6,9.8-4.9,14.5c-3.9,8.3-7,17.6-9.2,27.4
		c-0.6,2.7-1.1,12.8-1.2,22.5c0,17.4,0,17.5-1.8,14c-1.8-3.6-5.3-15.2-7.6-25.5c-0.8-3.5-1.3-12.2-1.4-20.6c0-20.1,2-27.3,13.8-50.4
		c3.1-6,3.7-7.1,8.6-14.8C243.1,607.5,245.5,604,245.8,604z"/>
	<path id="path94" fill="#7B68EE" d="M246,658.7c0,1.4,1.3,8.4,2.9,15.7c4.7,20.9,5.7,31,4.3,42.4c-0.7,5.3-1.2,12.1-1.2,15.1
		c0,6.2,2.9,19.1,4.3,19.1c0.5,0,0.6-0.7,0.3-1.6c-2.2-5.8-1.7-36.9,0.6-36.2c1,0.4,9.6,23.2,11.8,31.3
		c3.3,11.9,11.6,31.7,16.1,38.2c6.1,8.9,15.4,17.7,13.6,12.9c-0.4-1-0.3-1.5,0.2-1.2c0.4,0.3,3.2,0.9,6.2,1.5
		c3,0.5,10.8,2.1,17.4,3.5c10.4,2.3,15.2,2.8,36.3,3.3c16.3,0.4,24.2,0.3,24.2-0.4s-6.5-1-18.7-1c-16.7,0.1-20.4-0.2-33.3-2.7
		c-8-1.6-19.4-4.2-25.5-5.8c-11.9-3.2-16.2-6.1-18.6-12.2c-0.7-1.7-3.4-7.8-6.1-13.5s-4.6-10.6-4.3-10.9c0.3-0.3,2.7,0.2,5.3,1.2
		c28.1,10.8,81.2,25.9,98.2,28c1.9,0.2,7.7,1.1,12.9,2c5.1,1,9.5,1.5,9.8,1.2c0.5-0.5-7.3-2.2-17-3.7c-8-1.1-22.9-4.5-38.2-8.6
		c-5.5-1.5-10.1-2.6-10.2-2.5c-0.2,0.1-3.6-1-7.5-2.5c-4-1.4-8.6-2.9-10.3-3.4c-1.6-0.4-7.5-2.4-13-4.4s-12.4-4.5-15.3-5.5
		c-2.9-1.1-7.9-3.1-11.2-4.6c-5.8-2.6-5.9-2.7-8.3-9.8c-4.9-14.3-7.7-23.6-7.7-25.7s0-2.1,3.3,0.3c5.2,4,22.6,13.4,34.8,18.9
		c6.3,2.8,11.9,5.5,12.4,5.9c0.6,0.4,2.1,1.1,3.5,1.5s6.1,2.5,10.5,4.5c41.5,19.5,60.6,28,71,31.7c11.4,4.1,22.9,6.7,23.3,5.4
		c0.2-0.5,4,0.2,8.4,1.5c4.5,1.3,9,2.4,9.9,2.4c3.6,0,2.9,2.1-1.3,3.9c-12.6,5.4-35.6,12.6-43.3,13.6c-2.2,0.3-7.1,1.1-11,2
		c-13.8,2.9-31.5,4-44.8,2.7c-6.7-0.7-14.7-1.8-17.7-2.6s-6.6-1.7-8-1.9c-4.4-0.8-11.5-2.9-12.5-3.7c-0.5-0.4-2.8-1.3-5-2
		s-4.7-1.8-5.5-2.5s-3.3-2.2-5.5-3.3c-5.9-2.9-15-10.7-19.2-16.4c-2.1-2.9-3.9-4.5-4.3-3.9c-0.8,1.3-11.8-9.9-17.1-17.4
		c-7.8-10.9-13.9-28.9-15.4-45c-1.3-14.6,4.8-42,12.6-56.7C244.4,654.4,246,655.4,246,658.7z M257.3,760.5
		c0.6,3.4,4.7,12.9,5.2,12.3c0.2-0.2-0.5-3.3-1.6-6.8C258.7,758.9,256.3,755.3,257.3,760.5z"/>
	<path id="path96" fill="#8A2BE2" d="M267.5,702.5c2.8,1.3,6.1,2.6,7.3,3c1.3,0.4,5,2,8.2,3.6c3.3,1.6,6.2,2.9,6.5,2.9
		c0.4,0,1.9,0.8,3.3,1.9c1.5,1,4.6,2.4,7,3.1c2.3,0.7,4.2,1.7,4.2,2.2s0.5,0.6,1,0.3c0.6-0.3,1-0.1,1,0.5s1.9,2,4.3,3.1
		c2.3,1.1,7.1,3.7,10.7,5.7c3.6,2.1,11.9,6.9,18.5,10.7c6.6,3.7,13.6,7.8,15.5,9s5.3,3.2,7.5,4.5s7.8,4.6,12.5,7.3
		c14.7,8.7,33.2,18.2,37.3,19.2c1.3,0.4,3.6,1.7,5.3,3l2.9,2.5l-5-1.5c-2.7-0.9-7.5-2.2-10.5-3.1c-5-1.4-9.8-3.4-24.5-9.9
		c-2.7-1.3-8.4-3.7-12.5-5.5c-11.7-5-17.2-7.5-37.5-17.1c-15.1-7.1-34.5-17-50-25.6c-3.3-1.8-8-4.2-10.5-5.4
		c-6.3-2.9-8.8-5.5-10.5-11.3c-0.8-2.7-1.5-5.4-1.5-5.8C258,698.7,260.9,699.5,267.5,702.5z"/>
	<path d="M350.7,2.2c2.9,3.2,7.2,14.2,7.9,20.3c0.7,5.8-0.6,11.5-4.5,19.7c-3.2,6.5-2.7,7.1,3.9,5.1c5.2-1.5,19.7-4,28.5-4.8
		c6.7-0.6,10.2-1.5,16-4.1c3.4-1.6,6.8-1.9,23.5-2c10.7,0,23.5-0.6,28.4-1.3c13.1-1.8,28.7,0.5,37.2,5.5
		c5.7,3.3,13.2,13.1,15.7,20.3c4.3,12.9,2.9,30.5-3.2,38.1c-3.9,4.9-11.9,9-19.9,10.1c-4,0.6-7.2,1.6-7.9,2.5
		c-1.7,2.3,0.2,6.9,5.1,11.9c3.3,3.5,5.7,4.8,12.6,7c7.6,2.4,10.1,2.7,22.5,2.7c13.6,0,14.3-0.1,23.8-3.6c9.4-3.4,14-6.1,21.9-12.6
		c3.4-2.8,3.7-2.9,4.2-1.2c0.8,2.5-0.6,6.2-4.4,11.7c-2.9,4.2-3.9,7.2-2.1,6.1c1.2-0.8,15.7,1.9,24.3,4.5c12,3.5,18.2,7.3,27.1,16.3
		c8.3,8.3,11.5,13.6,13.8,22.6c0.8,3.5,2.8,6.2,8.9,12.5c18,18.6,31.2,47.9,29.6,66c-0.7,8.3-3.7,19.3-6.6,24.1
		c-2.5,4.4-2.6,8.4,0,12.7c6.6,11.1,6.7,29,0.2,39.7l-2.1,3.3l-0.6-2.9c-2.2-10.8-3.1-12.9-5.6-14.1c-6.7-3.2-21.1,4.8-34.9,19.5
		c-4.9,5.2-11.2,11-14.1,12.9c-2.9,1.9-6.6,4.5-8.2,5.9c-2.9,2.4-2.9,2.5-0.8,3.1c1.1,0.3,2.1,1.1,2.1,1.8c0,0.8-4.1,5.1-9,9.7
		c-8.8,8.1-20.8,16-26.2,17.3c-4.1,1-4.3,2.3-0.8,4.3c11,6,28.5,20,41.1,32.8c7.5,7.7,14.4,15.2,15.5,16.9c1,1.6,3.6,5.4,5.7,8.3
		c7.1,9.7,23.7,40.9,23.7,44.4c0,0.5,0.9,2.9,2,5.3s2.6,6.8,3.4,9.7c0.7,2.9,2.3,8.4,3.4,12.3c2.8,9.3,5.9,29.7,7.2,47.5
		c2.2,30.7-2.4,54.1-18.1,90.5c-16.2,37.9-30.1,60.6-49.9,81.8c-16.8,18-46.1,38.3-70.5,48.9c-8.7,3.8-25.8,9.9-29,10.4
		c-1.1,0.1-6.3,1.2-11.5,2.3c-10.4,2.3-19.3,2.9-52,3.5c-18.8,0.4-22.7,0.7-31,2.9c-11.6,3-24,4.7-38.5,5.4
		c-14.2,0.7-39.2-2.5-48.8-6.1c-3.7-1.4-6.7-2.3-6.7-2c0,0.8-18.4-8.8-25.5-13.4c-3.9-2.5-12.6-10.2-20-17.6
		c-22.8-22.8-33.9-43.2-41.1-75.1c-2.1-9.5-2.8-15.5-3.2-28.7c-0.9-32.2,5.5-57.2,20.3-79.8c4.9-7.5,16.4-20,18.4-20
		c1.6,0,0.9,10.8-2.5,34.3c-3.1,21.5-3.2,36.9-0.3,50.9c1.1,5.7,2.9,14.8,3.8,20.4c1.9,11.1,3.1,13.3,8.8,17.2
		c4.9,3.4,27.9,15.2,29.4,15.2c0.7,0,2,0.6,2.8,1.4c0.9,0.8,3.9,2.3,6.7,3.5c4.3,1.6,34.2,18.4,48.9,27.4c8.1,4.9,14.4,8.1,14.9,7.6
		c0.3-0.3-0.5-3.9-1.8-8c-8-24.9-8.6-39-3-66.9c2.4-12.2,8.3-30,14.8-45c7.1-16.2,12.9-32.6,15.1-42.5c1.4-6.4,1.6-10.7,1.2-21.5
		c-0.6-13.3-1.5-20.5-4.3-32.7c-1.8-7.8-1.8-7.3,0.9-7.3c7.9,0,32,10.8,44.2,19.9c30.2,22.4,49.5,58.7,49.5,93.1
		c0,7.9-1.9,22.9-3.5,27.5c-4.4,12.5-10,24.4-17,36c-7.4,12.2-14.6,26.7-16.3,32.4c-2.3,8.2-2.1,25.1,0.4,31.6
		c2.7,6.8,4.9,6.9,18.2,1.1c17.9-7.7,31.2-16.7,45.2-30.6c6.4-6.3,19.1-21.9,21.1-25.8c0.7-1.5,2.1-3.8,3-5.2
		c3.3-4.9,8.7-20.6,11-32c5.6-27.9,0.1-59.1-14.9-84c-5.7-9.4-30.8-38.9-53.8-63.2c-10.8-11.3-21.5-26.2-26.6-36.8
		c-4.6-9.6-8.8-20.4-8.8-22.5c0-3.7-3.3-12.7-5.7-15.6c-1.4-1.6-5.3-4.4-8.7-6.1c-11.2-5.5-18-14.1-20.5-25.6
		c-1.7-8.2-1.3-14.1,1.4-20.7c3-7.1,2.9-6.5,0.9-6.5c-0.9,0-6.2-1.3-11.8-2.9c-5.5-1.5-12.3-3.4-15.1-4c-4.8-1.2-8.3-2.5-15.5-5.9
		c-1.9-0.9-7.2-5.4-11.8-9.9c-8.2-8.3-8.2-8.3-13.4-8.3c-2.8,0-8.1-0.5-11.6-1.1c-8-1.4-11.2-4.1-11.2-9.4c0-2.9-0.5-3.9-3-5.3
		c-2.1-1.2-3.5-3.1-4.6-6.4c-0.8-2.6-2.1-5.1-2.7-5.5c-0.7-0.4-5.5-1.7-10.8-2.9c-6.7-1.6-13.7-4.2-23.5-8.9
		c-16.7-8.1-25.5-13.7-31.7-20.4c-2.6-2.8-4.7-4.6-4.7-4c0,0.5,2,4,4.5,7.6c2.4,3.7,4.3,6.9,4.1,7.1s-3-1-6.2-2.6
		c-8.3-4.2-20.7-17-25.6-26.3c-4.2-8-8.4-21.5-9.4-29.9c-0.6-5.4-0.8-5.6-12-16.5c-13.1-12.7-14.3-15.1-11.4-23.1
		c6.5-18.6,21.5-38,60.4-78.4c15.4-16,18.6-20,18.6-23.6c0-1.2-0.9-5.7-2-10c-1-4.4-2.4-11.1-3.1-15l-1.2-7.1l4.5-9.9
		c2.5-5.5,5.1-11.7,5.8-13.9c4.2-13.1,6.4-16.9,15.7-26.6l9.1-9.6l2,2.6l1.9,2.5l3.1-4.3c2.6-3.6,3.2-5.3,3.2-9.8
		c0-2.9,0.3-5.3,0.8-5.3c0.4,0,3,1.9,5.9,4.2c6.3,5.3,15.1,16,15.9,19.6c1.1,4.3,1.4,4.4,4.2,1c1.4-1.8,4.7-5.6,7.3-8.5
		C335.7,18.1,345,3.4,345,1.2C345-0.8,348.5-0.1,350.7,2.2z M350.2,7.2l-1.8-2.3l-3,3.8c-1.7,2.1-5.5,7.3-8.5,11.7
		c-3,4.3-7.3,10.5-9.5,13.7c-8.2,11.9-9.8,19.7-2.2,10.6c2.2-2.6,4.5-4.7,5-4.7s-0.2,1.4-1.7,3.1c-5.4,6.6-9.3,16.9-6.3,16.9
		c1.2,0,13-3.4,18.1-5.3c3.6-1.3,6.7-5.4,10.9-14.2c2.8-6.2,3.2-8,3.2-15.5c0-4.7-0.5-10.1-1.2-12C352.5,11.1,351.2,8.5,350.2,7.2z
		 M306.8,17.5c-5.2-5.6-5.6-5.8-6.2-3.7c-0.4,1.3-0.5,4.1-0.1,6.2c0.9,5.1-0.7,9.9-5.2,15.7c-3.1,4-3.7,5.7-4.1,11.3
		c-0.5,7.2,0.5,10,5.4,15.4c2,2.3,3,2.7,4.3,1.9c0.9-0.5,1.8-2.1,2-3.4c0.3-2.2-1.3-13.8-2.5-18.2c-0.4-1.1,0-1.7,1-1.7
		c1.1,0,1.6,1,1.6,3.4c0,3.8,1.7,9.5,3.5,11.4c0.9,1,2.1,1.1,4.5,0.5c3.2-0.8,3.4-1.3,5.2-8.3c2.4-10,2.3-11.5-1.1-18.6
		C313.6,26.1,309.8,20.7,306.8,17.5z M290.3,29.6c-2.4,2.6-4.3,5.1-4.3,5.5c0,0.5-1.1,0.9-2.5,0.9c-2.3,0-2.4-0.2-1.5-2.1
		c3.4-6.2-3.4-1.1-9.5,7.2c-3.5,4.7-8.7,17.3-9.9,24.2c-0.4,2-2.1,5.3-3.8,7.2l-3,3.5l1.2,13.3c0.6,7.2,2,16.6,3.1,20.9
		c2.4,9.6,2.4,9.2-0.8,10.7c-1.5,0.7-6,4.7-9.9,8.9c-28.5,30.8-45.2,51.3-58,71.2c-9.5,14.6-10.9,19.2-7.9,24.9
		c1.5,2.9,14.9,15.1,16.6,15.1c0.5,0,0.9-3.6,0.9-8c0-13.1,3.9-27.7,11.1-42c5.7-11.1,20-25.8,34.4-35.3c5.5-3.6,13.3-9.9,17.2-13.9
		l7.3-7.3l-6-2.9c-3.3-1.6-6-3.3-6-3.8c0-0.4,1.6-0.8,3.5-0.8c7,0,15.8-11.9,17.1-23l0.5-4.5l-1.8,2.8c-1,1.5-2.2,2.6-2.7,2.4
		s-2.3-2.8-4-5.8c-2.9-5.1-3.1-6-3.1-15.9c0.1-12.4,1.3-15.3,10.1-25.2c6-6.7,9.3-12.7,9.4-16.9c0-1.5,1.2-3.7,3.1-5.5
		c3.1-2.9,5.9-7.4,5.9-9.4C297,23.8,294.5,25.2,290.3,29.6z M405,41c-1.4,0.6-3.5,1.2-4.6,1.4c-1.2,0.3-6.8,2.7-12.5,5.5L377.5,53
		l3.6-3.4l3.7-3.4l-2.5-0.7c-4.6-1.1-17.6,2.1-23.3,5.8c-5.9,3.9-9.1,4.3-5.7,0.8c1.4-1.5,1-1.4-5.1,1.3c-2.3,1.1-4.1,2.4-3.9,3
		c0.3,1,3.8,2.2,9.2,3.1c1.7,0.3,4.5,1.1,6.4,1.7c4.6,1.4,16.4,0.5,19.7-1.6c1.4-1,2.8-1.5,3.1-1.2c1.7,1.7-11.7,16.2-19,20.6
		c-5,2.9-20.5,7.8-28.7,9c-3.6,0.5-8.7,1.5-11.5,2.2l-5,1.3l-0.8,5.5c-1.7,12.3-11,25.2-22.3,31.2c-5.5,2.8-14.9,5.9-15.7,5.1
		c-0.7-0.6-6.1,2.2-7.7,4.2c-2,2.4-0.9,2.6,5.1,1.1c3-0.8,5.5-1.3,5.7-1.1c0.2,0.1-1.4,1.2-3.5,2.3c-47.9,25.4-67.8,47.3-72.9,80.1
		c-5,31.4,1.4,58.7,17.8,76.6c3.3,3.6,6.3,6.5,6.8,6.5c0.4,0-0.9-5.3-3-11.8c-4-12.4-7.8-37.6-5.6-36.9c0.6,0.2,1.2,1.7,1.4,3.3
		c0.3,3.1,3.5,15.4,5.7,21.9c2.4,7.2,7.7,15.6,13.4,21.5c6.5,6.6,21.3,16.6,29.2,19.8c3,1.2,6.8,2.7,8.4,3.4
		c1.7,0.6,3.7,1.3,4.5,1.4s5.1,1.2,9.4,2.3c9.2,2.4,15.9,2.7,17.5,0.7c0.6-0.8,1.4-3.7,1.8-6.6c0.8-6.7,5-11.4,9.7-10.7
		c1.7,0.2,3.9,0,4.8-0.5c2.2-1.1,5.1-6.8,6.6-12.8c3.4-13.9,2.8-14.6-8.1-8.6c-4.7,2.5-8.8,4.3-9.1,3.8c-0.2-0.4,2-2.1,5.1-3.6
		c5.9-3.2,16.3-12.8,18.6-17.3c2.1-4,4.7-15.2,4.7-19.9c0-4.3-3.6-20.1-4.9-21.8c-0.5-0.6-1.8-3.6-2.9-6.8c-1.2-3.1-3-7.6-4.1-10
		c-2.4-5.1-3.7-8.5-10.2-27.3c-3.9-11.2-5.6-14.7-8.6-17.7c-2-2.1-4-3.8-4.4-3.8c-0.7,0-8.5,10.1-14.9,19.5c-3.9,5.6-8,13.6-8,15.4
		c0,0.7-0.4,1-0.9,0.6c-1.3-0.7,1.7-9.4,5.7-16.4c3.2-5.9,8.8-13.1,19.5-25.3c3.8-4.3,6.7-7.8,6.4-7.8c-1.1,0-14.5,6.5-18.2,8.9
		c-2.2,1.4-6.6,4.7-9.9,7.5c-3.2,2.7-5.4,4.1-4.8,3c2-3.7,13.6-13,20.7-16.7c3.9-1.9,11.5-5.7,17-8.2c17-8,17.9-8.5,22-10.8
		c7.5-4.3,9.8-6.1,12.6-10.1c1.6-2.1,2.9-4.2,2.9-4.6s-2.6-1-5.9-1.3c-3.2-0.4-7.1-1.2-8.7-1.8c-2.8-1.2-2.8-1.3,2.9-1.9
		c8.4-1.1,19.5-6.9,27.7-14.6c8.8-8.4,10.2-6.3,1.8,3c-3.3,3.6-5.6,6.6-5.3,6.6c0.4,0,3.8-2.3,7.7-5.1c7.3-5.3,9.8-6.6,9.8-5.3
		c0,0.5-4.3,3.8-9.5,7.3c-9.3,6.3-11.8,8.9-5.4,5.7c1.8-0.9,3.6-1.6,4.1-1.6c0.4,0,6.3-2.4,13.1-5.2c14.2-6.1,21.1-10.6,35.2-22.9
		C434.1,78,439,74,439.4,74s-1.1,2.1-3.4,4.7c-4.5,5.2-10,13.9-10,16.2c0,0.7,2.7-1.2,6-4.2c10.4-9.6,24.3-14.8,39-14.4
		c7.1,0.2,9,0.6,11.8,2.5c3.5,2.6,4.2,4.3,1.4,3.5c-1.4-0.3-2.3,0.6-3.7,3.6c-2.1,4.8-2.9,5.5-8.1,7.7l-3.9,1.6l5.3-5.4
		c2.8-2.9,5.2-6.1,5.2-7c0-4.1-12.9-5-23-1.5c-7.3,2.5-7.2,2.3-5,13.1c1.5,7.5,0.6,17.2-2.6,29.1c-1.3,4.9-2.4,10.2-2.4,11.7
		c0,1.7-0.7,2.9-1.9,3.3c-1.1,0.3-2.7,2.2-3.8,4.3c-1.5,3.2-1.8,6.2-1.8,20.7c0,20.4,0.6,18.7-15.3,40.9l-3.3,4.7l4.8,2
		c14.5,6.1,22.1,10.8,48,29.5c19.2,14,62,52,65,57.9c0.9,1.6,1.8,6.2,2.1,10.2c0.5,7.7-0.9,13.8-6.9,30.1c-3.4,9.2-3.4,10.7-0.2,8.9
		c4.1-2.3,16.8-11.2,20.7-14.4c4.8-4,7-4.1,9.2-0.7c1.6,2.3,1.6,2.8,0.2,5.7c-0.9,1.8-3.5,5.3-5.8,7.9c-2.3,2.7-4,5.2-3.8,5.8
		s3-0.7,6.3-2.8c17.2-11.1,20.4-13,24.8-14.7c3.5-1.3,6.3-1.6,10.8-1.2c3.3,0.3,6.3,0.8,6.6,1.1c0.4,0.3,0.2,3.1-0.4,6.1
		c-0.5,3-0.7,5.5-0.4,5.5c1.9,0,7.4-6.7,12.4-15.1c5-8.6,11.2-15.8,12.4-14.5c0.2,0.2-0.9,2.3-2.6,4.7c-3.9,5.4-3.9,6.3,0.2,3.9
		c1.7-1,7.8-4.3,13.5-7.2l10.3-5.2l-7.3-3.8c-5.9-3-6.8-3.7-4.5-3.8c4,0,3.3-1.2-1.8-3.3c-2.5-1.1-4.5-2.3-4.5-2.8
		c0-2.1,7.1,0.4,13.1,4.8c4.7,3.3,12.9,14.3,12.9,17.2c0,0.9,0.5,2.3,1,3.1c1.4,2.3,4-4.9,4-11.3c0-11-5.6-22.2-16.9-34
		c-6.8-7-5.4-7.5,2.3-0.7c3.1,2.7,6,5,6.4,5s2-3.6,3.6-8.1c2.6-7.3,2.9-9.1,2.7-20.2c-0.2-12.9-0.3-13.9-3.1-23.2
		c-4.6-15.2-12.4-27.9-25.5-41.4c-12.8-13.2-33.1-26.9-42.5-28.6c-1.4-0.3-5-1.2-8-2c-3.3-0.9-9.9-1.5-16.7-1.5
		c-11.5,0-15-1.3-6.9-2.5c5.5-0.9,20.9,0.1,25.6,1.6c9.8,3.1,24,9.4,35.4,15.8l3.9,2.2l-0.6-3.1c-0.9-4.5-10.8-17.1-17.1-21.9
		c-6.3-4.7-18.3-10.8-22.9-11.5c-5.3-0.9-20.8-2.6-26.2-2.9l-5-0.2l4.1-2.2c4.9-2.6,10.4-8.6,10.4-11.3c0-2.5-0.5-2.5-3.3,0.1
		c-3.9,3.6-18.1,10-26.7,11.9c-16.8,3.8-40.8,1.5-50.2-4.9c-5-3.4-9.2-9-10.3-13.9c-1-4.7-3.8-5.8-8.2-3.2c-2.4,1.4-3.9,1.8-4.6,1.1
		c-2.1-2.1,9.8-6,21.6-7.1c13.9-1.3,17.9-3.4,22.3-11.2c2.7-5,2.9-6,2.8-15.8c-0.2-27.7-14.3-40.5-44.4-40.4
		c-12.2,0-16.3,1-33.5,8.2c-11.6,4.8-12.4,4.7-4.1-0.9c6.9-4.6,7.7-5.3,5.8-6C424.2,37.7,411.8,38.2,405,41z M287.1,53.5
		c-1.1-0.6-5.1,2.9-5.1,4.3c0,0.5-1.7,2.7-3.8,4.9c-5.6,5.9-7.6,10.6-6.7,16.2c0.4,2.5,0.6,6.3,0.6,8.4c-0.2,4,3.1,12.7,4.8,12.7
		c0.6,0,3.6-3.4,6.7-7.6s7.6-9,10-10.7c5.5-3.9,6.2-7.7,1.4-7.7c-2.2,0-4.3,1.2-7.5,4.1c-5.2,4.8-7,4.5-3.2-0.4
		c2.7-3.6,8.1-6.7,11.6-6.7c1.2,0,2.1-0.4,2.1-0.8c0-1.8-3.3-7.4-4.7-7.9c-0.7-0.3-2.3-2.3-3.3-4.4
		C288.9,55.8,287.6,53.9,287.1,53.5z M310.6,59.2c-5.4,0.3-10.9,10.8-8.4,16.3c0.6,1.4,1.4,2.5,1.8,2.5s3.7-2.9,7.3-6.4
		c7.6-7.2,8.9-11,4-11.9C313.7,59.4,311.7,59.2,310.6,59.2z M329.2,61.9c-3.1,1.7-2.7,2.9,1.1,3.3c3.8,0.5,3.4,0.7-8.8,4.5
		c-10.7,3.3-11.2,4.4-6.3,12.2l3.3,5.2l7.3-0.6c4.1-0.2,10.1-1.2,13.5-2.1s7.2-1.8,8.4-2c6.2-1.2,28.3-14.6,28.3-17.2
		c0-0.4-2.5-0.5-5.5-0.4c-3.5,0.3-10-0.6-17.3-2.2C335.8,58.8,335,58.8,329.2,61.9z M306.8,81.7c-1.5,1.8-7.3,13.5-10.3,20.8l-1.6,4
		l0.5-5.8c0.3-3.6,1.7-8.4,3.5-12.4c1.7-3.6,3.1-6.7,3.1-6.8c0-0.9-6.3,1.6-8.8,3.3c-3.1,2.2-4.9,5.9-11.7,23.8
		c-4.4,11.7-7.4,16.2-11.7,17.7c-1,0.4-1.8,1.3-1.8,2.1c0,2.8,14.4,3.3,19.9,0.7c0.9-0.5,3.4-1.7,5.5-2.7
		c6.7-3.2,13.4-10.1,17.2-17.5c3.1-6.2,3.4-7.7,3.4-15.2c0-7-0.3-8.9-2.1-11.1C309.5,79.5,308.8,79.4,306.8,81.7z M445.1,86.7
		c-1.1-1.1-9.1,4.4-13.7,9.4c-3.5,3.9-7.9,11.6-9.8,17.1c-0.7,2.4-2.6,2.3-2.6-0.1c0-1.1,0.5-5.4,1.1-9.6s0.8-7.9,0.6-8.2
		c-0.8-0.7-5.7,2.6-10.2,6.8c-3.9,3.8-11.1,6.5-35.5,13.7c-4.5,1.3-6.8,2.9-12.6,8.7c-3.9,3.8-9.2,8.9-11.7,11.2
		c-2.5,2.2-4.9,5.3-5.3,6.7c-0.3,1.5-0.2,6.5,0.3,11.1c0.6,5.8,0.5,8.5-0.2,8.5c-0.5,0-4.6-3.1-9-7c-4.4-3.8-8.3-7-8.6-7
		c-1.7,0-1.6,3.3,0.2,10c2.6,9.7,1.9,12.3-1,3.8c-1.2-3.7-2.6-7-3-7.2c-1.2-0.8-6.7,3.2-8.1,6c-1.7,3-0.9,4.5,4.1,8.6
		c2.4,1.9,5.7,3.2,10.6,4.2c3.9,0.7,7.5,1.6,8.1,2c0.7,0.4,4.5,5.8,8.7,12c11.3,17.1,24.6,28.3,36.2,30.5c3.7,0.7,4.7,0.5,8.5-2.1
		c7.2-4.9,10.1-6.1,15.8-6.9c5-0.7,6-1.3,10.5-6.1c6.9-7.4,13.9-17.5,15.5-22.2c1.3-4.1,0.7-22.3-0.8-23.7c-0.6-0.6-13.2,0.8-14,1.6
		c-0.2,0.2,0.4,1.9,1.3,3.8c0.9,2.1,1.5,5.2,1.3,7.8c-0.3,3.8-0.7,4.4-3.7,5.6l-3.4,1.4l2.7-3.1c3.2-3.8,3.2-5.7,0.5-12.1
		c-1.4-3.2-1.9-5.9-1.5-7.9c0.5-3,14.8-30.4,16.8-32.5c0.6-0.6,0.8,0.4,0.6,3c-0.2,3.3,0,4,1.7,4.3c1.1,0.2,2.5,1,3.2,1.9
		c1.9,2.4,4.9-0.1,6.8-5.7c2.4-7.1,1.8-9.3-2.7-10.4c-5.5-1.4-4.6-2.6,1.8-2.6c5.3,0,5.6-0.1,5.1-2.3c-0.3-1.2-1.3-6.7-2.2-12.2
		C446.5,92,445.4,87.2,445.1,86.7z M430.7,136.6c-0.6,0.7,0,8,1,12.4c0.6,2.5,0.6,2.5,1.3-0.5c0.4-1.7,0.8-4.6,0.9-6.6
		C434,138.5,432.1,135.3,430.7,136.6z M341.5,141.3c-1.4-0.4-9,4.1-9,5.4c0,1,9.1,11.3,10.1,11.3c0.3,0,0.4-3.7,0.2-8.2
		C342.6,145.3,342.1,141.5,341.5,141.3z M429,142c-0.7-1.1-1-0.5-1,2.5c0,2.2-0.9,5.5-2,7.2c-1.1,1.8-1.5,3.3-1,3.3c1.6,0,5-6.2,5-9
		C430,144.6,429.5,142.8,429,142z M330.4,179.7c0.3,1,1,5.6,1.6,10.3c1.4,10.5,4.2,21.7,7.6,29.2c7.1,16.3,8.8,22.8,8.9,33.9v10.5
		l-4.7,9.6c-3.4,6.6-4.8,10.7-4.8,13.5c0,8.3-2.9,19.6-6.1,24l-3,4.3l3.3,4.1c5.9,7.4,11.2,12.7,13.4,13.4c2.1,0.6,2.2,0.4,2-15.4
		c-0.1-10.8,0.3-16.4,1-17.1c0.9-0.9,1.2,1.3,1.1,8.7c0,6.1,0.4,10.7,1.2,12.2l1.3,2.3l2.5-3.8c7-10.6,15.6-16.4,24.4-16.4
		c3.3,0,6,0.6,7.7,1.9c1.5,1,4.5,2.1,6.7,2.5c7.4,1.3,10.4,2.7,13.9,6.7c4.1,4.5,5.9,4.7,13.7,2c8.3-2.8,13.4-5.7,18-10.1l4.2-4
		l-0.7-7.9c-1.2-15.1-3.4-18.1-18.5-25.2c-5.7-2.7-10.2-5.2-9.9-5.4c0.6-0.6,18.3,6.2,25.2,9.6c2.2,1.2,14.6,9.2,27.4,17.8
		c12.9,8.6,26.1,17.3,29.5,19.4c8.1,5,8.5,5.5,4.6,5.4c-3.1-0.2-3.4,0-4.1,3.8c-1.2,6.4-1.2,35.1,0.1,46.5
		c1.6,14.4,3.3,19.2,8.4,23.5c7.9,6.8,17.5,7.1,36.2,1.1c4.4-1.4,8.4-2.6,8.9-2.6c2.3,0,17.8-7.7,23.3-11.7
		c5.8-4,12.1-10.8,11.2-11.8c-0.3-0.2-3.6,1.4-7.4,3.7c-9.8,5.7-14.3,7.4-32,12.3c-2.7,0.8-6.7,1.6-8.7,1.9
		c-2.1,0.2-4.2,0.7-4.8,1.1c-0.5,0.3-1,0.2-1-0.4c0-1.3,11.8-4.8,21.9-6.6c3.7-0.6,8.6-2.9,9.6-4.5c0.3-0.5,1.3-1,2-1
		c2.2,0,15.4-8.8,20.8-13.8c5-4.7,9.3-10.9,8.3-11.9c-0.3-0.3-3.6,1.9-7.3,4.9c-9.9,8.1-23.3,17.8-24.5,17.8c-2,0-0.1-2,5.4-5.7
		c5.8-3.9,25.5-19.2,28.3-21.9c3.9-3.9,0.5-4.2-4.4-0.3c-3.8,3-27.9,18.7-32.3,21c-2.4,1.2-3.9,1.5-4.3,0.8
		c-0.4-0.6-0.5-1.1-0.4-1.3c0.2-0.1,6-3.5,12.9-7.6c12-7.2,20-13.2,20-15.1c0-2.2-32.2,16.2-39.5,22.5c-2.2,1.9-4.1,3.3-4.2,3.2
		c-0.2-0.2,1.1-3.6,2.8-7.7c2.1-5,4.7-9,8-12.4c4.6-4.7,5.8-7.3,4.3-8.8c-1.4-1.3-12.1,5.7-25.3,16.5c-7,5.7-10.2,10.8-12.4,19.8
		c-0.8,2.9-1.9,5.6-2.6,5.8c-0.6,0.2-1.1,0-1.1-0.3c0-0.4,2.7-8.7,5.9-18.4c9.3-27.4,11.2-35.5,11.4-47.6l0.2-10.4l-12-12.2
		c-11.8-12-34.7-31.1-57.4-48.1c-26.2-19.7-40.8-27-54.3-27.4c-7.1-0.2-8.1,0.1-12.2,2.7c-4.8,3.2-13.7,13.6-18,21.1
		c-1.6,2.7-3.2,4.8-3.7,4.8c-1.3,0-1.2-0.1,2.1-7.2c1.6-3.4,3-6.9,3-7.5c0-0.7-1.2-2-2.7-3c-1.6-1-3.2-2.1-3.8-2.6
		c-0.5-0.4-4-3-7.7-5.7c-9.6-7.1-16.4-14.3-21.9-22.9c-2.6-4.2-5.8-8.8-7.1-10.3C336.9,178.3,329.5,176.7,330.4,179.7z M447.3,281.6
		c-1.7-1-1.7,2.2,0.2,15.4c2.2,15,4.2,24.7,6.7,31c3.6,9.3,3.6,9.3,6.1,7.7c5.6-3.6,16-4.5,26.4-2.4l6.1,1.3l0.6-2.9
		c0.3-1.6,0.6-6.5,0.6-10.8v-7.8l-5.2-3.9c-2.9-2.1-8.4-5.8-12.3-8.2c-3.8-2.4-8.1-5.2-9.5-6.2s-6.1-4.2-10.5-7.1
		C452.1,284.8,447.9,282.1,447.3,281.6z M372.5,307.8c-9.1,4.3-15.6,12.5-19,23.9l-1.4,4.5l5.7-0.4c11.5-0.8,23.9-9.4,29.1-20.1
		c2.7-5.6,1.9-8.4-2.8-9.7C379.2,304.6,379.3,304.6,372.5,307.8z M443,306.5c-4,4.8-21.2,13.7-26.8,13.7c-3.2,0.1-4.9,3.4-2.3,4.7
		c2.3,1.3,5.9,0.3,15.5-4.3c7.3-3.5,15.6-11.1,15.6-14.2C445,304.6,444.5,304.6,443,306.5z M393,314.3c-0.9,0.7-3.7,4-6.4,7.5
		c-4.8,6.1-12.5,12-18.8,14.6c-1.8,0.7-5.8,1.4-8.8,1.5c-3,0.2-5.7,0.4-5.9,0.6c-0.2,0.2-0.1,1.5,0.3,2.9c0.8,3.2,5.9,4.9,14.6,4.9
		c12.4,0,24.5-5.1,33.4-14.2c4.5-4.6,4.9-5.4,4.9-9.7c0-3.9-0.4-5.1-2.7-7.1C400.6,312.8,395.5,312.3,393,314.3z M444.8,314
		c-0.3,0-2.7,1.6-5.2,3.5c-5.6,4.2-11.4,7.3-17.7,9.1c-5.7,1.7-7.3,3.7-10,12.4c-3.1,10.1-8.8,20-13.6,23.6c-6.6,5-13.9,5.8-28.7,3
		c-1.6-0.3-6.1-2.6-9.9-5.1c-6.6-4.4-7-4.6-8.8-2.9c-3,2.7-2.3,5.1,3.4,11.1c9.8,10.5,20.3,15.6,37.7,18.3c21,3.2,32.9,12.3,36.6,28
		c1.6,6.8,5.2,12.3,9.6,14.6c1.6,0.9,8.7,3.3,15.6,5.5c7,2.1,14.8,4.6,17.3,5.4c2.6,0.8,4.8,1.5,5,1.5s0.3-3.4,0.1-7.5
		c-0.4-7.6,2.1-21.5,5.3-29.7c1.8-4.7,5.7-29.8,5.3-34.1c-0.3-2.8-1.1-3.5-7.4-6.8c-4-2-8.8-4.9-10.8-6.5c-8-6.3-16.6-21-20.8-35.7
		C446.5,317.5,445.2,314,444.8,314z M322.2,315c-1.7,0-5.2,5.6-5.2,8.2c0,8.2,23,21.2,29.3,16.6c1.7-1.3,0.8-2.4-10.6-13.1
		C328.8,320.3,322.7,315,322.2,315z M315.6,331c-0.3,0-1.4,1-2.6,2.2c-2.5,2.8-2.7,8.9-0.2,11.1c4.4,4,23.2,5.4,30.1,2.3
		c5-2.3,4.4-3.6-1.8-3.6c-5.2,0-14.7-4.1-21.2-9.2C317.9,332.3,316,331,315.6,331z M404.7,333.9c-3.7,3.6-12.3,8.8-19.8,11.8
		c-7.1,2.9-18.3,4-24.9,2.5c-2.4-0.6-4.7-0.9-4.9-0.6c-1.2,1.2,6.9,7.7,12.1,9.6c3.2,1.1,5.8,2.3,5.8,2.5c0,0.3-2.4,0.2-5.2-0.2
		c-4.7-0.7-5.1-0.6-4,0.8c1.8,2.2,9.8,4.7,14.8,4.7c5.2,0,13.2-2.5,16.4-5.2l2.5-2l-2.5,0.7c-1.4,0.4-6.8,0.8-12,1
		c-9.1,0.3-9.2,0.3-2.5-0.5c11.7-1.3,20-5.8,25.9-14c4.3-6,4.9-8.1,3.5-11.4C408.4,330.5,408.3,330.5,404.7,333.9z M470.3,337
		c-3.7,0-9.7,3.1-10.1,5.2c-0.2,0.9,2.3,4.1,6,7.7c6,5.9,9.7,7.9,8.4,4.5c-0.3-0.9-0.9-2.7-1.3-4.1c-0.8-3.6,1.1-2.2,2.7,1.9
		c1.2,3.1,8.7,11.8,10.1,11.8c0.4,0,0.3-1.9-0.2-4.2c-1.5-6.2-0.5-8,1.5-3.1c1,2.4,2.1,4.3,2.5,4.3c1.1,0,4.3-17.3,3.6-19.2
		c-0.9-2.3-7.7-4.8-13-4.8c-3.8,0-4.6,0.4-5.9,2.7l-1.5,2.8l-0.1-2.8C473,337.4,472.6,337,470.3,337z M350.1,347.1
		c-0.3,0-3.7,0.9-7.6,1.9s-10.5,1.9-14.9,1.9l-7.8,0.1l0.7,2.7c1.3,5.7,3.6,6.8,13.8,6.8c7.2,0,9.9-0.4,12-1.8
		c3.9-2.6,5.9-6,5.1-9.1C351.1,348.2,350.5,347,350.1,347.1z M490.7,369.7c-0.4,0.3-0.7,2.8-0.7,5.5c0,2.6-1.2,10.2-2.6,16.9
		s-2.2,12.5-1.8,12.9c1.2,1.1,14.6-3.6,16.1-5.7c2.2-2.9,1.4-7.1-2.2-12.4c-2.7-4-3.5-6.1-3.5-9.6c0-2.4-0.5-5.3-1-6.4
		C493.9,369,491.9,368.4,490.7,369.7z M533.5,397.1c-9.1,3.2-13.4,3.6-19.5,1.4c-2.4-0.8-5-1.3-5.9-1c-2,0.7-12.2,16.3-18.2,28
		c-3.2,6.3-5.2,11.8-6.5,18.2l-1.8,9.3h-21.7h-21.7l0.8,3.2c3.6,14.6,13.5,36.2,23.4,51.1c7,10.5,21.8,27.7,34.1,39.7
		c4.3,4.1,11.9,12.4,16.9,18.5c16.5,19.6,25.1,36.3,32,62c2.2,7.9,3.2,33.4,1.8,44.5c-1.8,14.4-8.6,31.4-18.9,47.4
		c-5.4,8.4-29.3,32.5-38.1,38.4c-16.5,11.2-36.9,19.5-54.6,22.2c-4.4,0.6-8.5,1.4-9.3,1.7c-2.1,0.8-0.6,2,3.4,2.8
		c7.1,1.2,21.3,6,21.3,7.1c0,0.6-4.3,3-9.5,5.5c-5.2,2.4-9.4,4.7-9.5,5c0,0.3,1.2,0.4,2.8,0.2c1.5-0.1,10.8-0.5,20.7-0.7
		c13.7-0.3,20.3-0.9,27.5-2.6c5.2-1.2,10.7-2.4,12.1-2.6c1.5-0.2,6.3-1.7,10.8-3.3c4.4-1.6,8.1-2.8,8.1-2.6c0,0.8,21-9.4,28.2-13.6
		c16.5-9.7,27.3-18.2,43.3-34.3c19.7-19.8,27.6-30.9,40.8-57.6c5.9-11.9,7.5-15.3,12.6-28c17.9-44.2,21.5-85.5,11.2-128
		c-3-12.5-8.3-28.9-11.6-36.5c-3.7-8.4-13.7-28.1-15.9-31.5c-1.3-1.9-4-6.1-6.1-9.3c-12.4-19.3-39.4-44.1-60.7-55.7
		C550.6,393.2,543.4,393.5,533.5,397.1z M411.3,398c-1.3,0-3.8,7-5.2,15.4c-1.3,6.8-0.4,8.6,4,8.6c3.5,0,3.6,0.6,0.7,2.9
		c-2,1.7-2,2.1-0.9,4.9c0.7,1.7,3.4,5,6,7.2c7.4,6.6,7,6.4,9.6,4c5.7-5.4,5.7-12.7,0-17.3c-1.9-1.5-3.5-3.5-3.5-4.3
		s-0.8-2.7-1.7-4.2c-1.3-2.2-0.8-1.9,2.6,1.3c3.9,3.6,4.2,3.7,3.6,1.5c-2.2-7.2-6.9-15.2-10.3-17.5C414.2,399.1,412,398,411.3,398z
		 M492.5,405.5c-4.4,2-6.9,4.4-10.1,9.5c-2.3,3.7-2.8,5.9-3.2,12.5c-0.2,4.5-0.2,9,0,10c0.3,1.3,3.3-3.7,9.1-15.2
		c4.8-9.5,8.7-17.5,8.7-17.8C497,403.7,495.7,404,492.5,405.5z M436.6,436.3c-1.7,1.3-1.8,1.8-0.7,6.5c0.7,2.8,1.9,5.6,2.6,6.2
		c1.7,1.4,33,1.5,36.6,0.2c2.3-0.9,2.2-1-2.1-3.2c-2.5-1.3-9.4-4.1-15.5-6.3C444.9,435.1,439.4,434.2,436.6,436.3z M429.1,440.8
		c-1.3,2.5-1.4,5.2-0.2,5.2c0.5,0,1.7,0.3,2.6,0.7c1.5,0.5,1.6,0.1,1-2.8C431.5,439.4,430.4,438.3,429.1,440.8z M388.7,529.6
		c-0.2,0.2,0.8,4.5,2.2,9.6c2.3,8.6,2.5,11,2.6,30.8c0,20.9-0.1,21.7-2.9,30.5c-1.5,4.9-3.9,11.5-5.3,14.5
		c-5,10.9-7.1,15.7-10.7,24.5c-2.1,4.9-4.6,11-5.7,13.5c-7.9,18.4-11.2,40.3-9.2,61.8c1.5,16.4,7.1,32.2,14.9,41.8
		c3.6,4.4,15.6,11.4,19.6,11.4c1.3,0,2.8,0.4,3.3,0.9c1.6,1.5,16.9,9.1,17.3,8.6c0.3-0.2-0.3-1.7-1.3-3.2l-1.8-2.8l2.4,2.1
		c2.9,2.6,8.2,5.4,10.3,5.4c0.9,0,3.3-0.7,5.5-1.6l3.9-1.5l-2.5-7.2c-5.1-14.6-5-39.8,0.1-55.8c2.8-8.5,7.5-19.3,8.2-18.6
		c0.3,0.2-0.6,3.5-2,7.3c-3.6,10-7.5,27.2-8.2,36.1c-0.7,8.7,0.6,19.3,3.7,29.5c2.5,8,3.7,9.3,7.3,7.7c3.1-1.4,3.2-2.6,0.6-9.9
		c-1.4-4-1.9-8.2-2-15.3c0-8.9,0.3-10.6,3.6-19c3.3-8.6,8.8-19.5,18.4-36.2c16-27.9,19.8-47.8,14.5-74.1c-1.9-9-8-27.3-9.7-28.9
		c-0.8-0.7-0.9-0.5-0.5,0.7c1.6,4.6,2.8,19.1,2.2,26.3c-1.5,17.5-9.4,41-20.2,60c-3.6,6.3-3.6,5,0.1-5c1.3-3.3,2.8-7.6,3.5-9.5
		s3.3-9.1,5.7-16c8.1-22.6,9.9-35.7,6.8-50.8c-2.7-13.6-12-29.7-21.2-37.1c-2.3-1.8-4.2-3.1-4.2-2.8c0,0.2,1.6,5.2,3.5,11
		c3.3,9.9,3.5,11.4,3.5,23.4c0,7.9-0.6,14.7-1.4,17.8c-1.6,5.5-10,27.4-12.2,31.7c-1.7,3.2-8.3,21-9.4,25.3c-0.4,1.6-1.7,5.7-2.9,9
		c-3.3,9.6-7.7,25.2-10.2,36.5c-2,8.7-2.4,13.3-2.4,26.7c0,8.9-0.2,15.9-0.5,15.6c-1.1-1.1-1.7-20.6-1-31.8
		c1.4-20.3,7.7-42.3,23-79.5c11.4-27.9,13.8-35.9,14.7-49.1c0.5-7.2,0.1-10.4-2.2-20c-1.5-6.2-3.5-13-4.5-14.9
		c-3-5.9-12-13.5-22-18.5l-9.3-4.7l0.6,3.1c0.4,1.7,1.5,5,2.6,7.3c2.3,5.1,4.7,13.5,6.9,23.7c1.5,7.1,1.5,7.7-0.7,17.5
		c-1.3,5.5-2.5,10.3-2.7,10.5c-1.1,1.2-1-1.4,0.4-11.7c1.9-13.5,0.9-22.8-3.4-33.6c-2.7-6.7-11.1-20.7-13.4-22.1
		C393.8,529.7,389.2,529.1,388.7,529.6z M249.8,579c-0.4,0-3.4,3.2-6.5,7c-5.7,7-9.3,12.7-14,22.5c-1.3,2.7-2.7,5.7-3.2,6.6
		c-0.5,0.9-2.5,6.1-4.4,11.6c-3.5,10.1-5.9,26.3-3.9,26.3c0.5,0,2.4-4.4,4.1-9.8c4.5-13.5,11.9-28.2,19-37.6
		c6.6-8.7,7.7-11,8.9-20.4C250.3,581.8,250.3,579,249.8,579z M245.8,604c-0.5,0-9.3,13.6-11.4,17.5C220.3,648.3,218,656,218,676.9
		c0.1,8.4,0.6,17.1,1.4,20.6c2.3,10.3,5.8,21.9,7.6,25.5c1.8,3.5,1.8,3.4,1.8-14c0.1-9.7,0.6-19.8,1.2-22.5
		c2.2-9.8,5.3-19.1,9.2-27.4c4.7-9.9,5.5-14.8,6.4-37.9C246,611.8,246.1,604,245.8,604z M243.1,656.8c-7.8,14.7-13.9,42.1-12.6,56.7
		c1.5,16.1,7.6,34.1,15.4,45c5.3,7.5,16.3,18.7,17.1,17.4c0.4-0.6,2.2,1,4.3,3.9c4.2,5.7,13.3,13.5,19.2,16.4
		c2.2,1.1,4.7,2.6,5.5,3.3s3.3,1.8,5.5,2.5s4.5,1.6,5,2c1,0.8,8.1,2.9,12.5,3.7c1.4,0.2,5,1.1,8,1.9c3,0.8,11,1.9,17.7,2.6
		c13.3,1.3,31,0.2,44.8-2.7c3.9-0.9,8.8-1.7,11-2c7.7-1,30.7-8.2,43.3-13.6c4.2-1.8,4.9-3.9,1.3-3.9c-0.9,0-5.4-1.1-9.9-2.4
		c-4.4-1.3-8.2-2-8.4-1.5c-0.4,1.3-11.9-1.3-23.3-5.4c-10.4-3.7-29.5-12.2-71-31.7c-4.4-2-9.1-4.1-10.5-4.5s-2.9-1.1-3.5-1.5
		c-0.5-0.4-6.1-3.1-12.4-5.9c-12.2-5.5-29.6-14.9-34.8-18.9c-3.3-2.4-3.3-2.4-3.3-0.3s2.8,11.4,7.7,25.7c2.4,7.1,2.5,7.2,8.3,9.8
		c3.3,1.5,8.3,3.5,11.2,4.6c2.9,1,9.8,3.5,15.3,5.5s11.4,4,13,4.4c1.7,0.5,6.3,2,10.3,3.4c3.9,1.5,7.3,2.6,7.5,2.5
		c0.1-0.1,4.7,1,10.2,2.5c15.3,4.1,30.2,7.5,38.2,8.6c9.7,1.5,17.5,3.2,17,3.7c-0.3,0.3-4.7-0.2-9.8-1.2c-5.2-0.9-11-1.8-12.9-2
		c-17-2.1-70.1-17.2-98.2-28c-2.6-1-5-1.5-5.3-1.2s1.6,5.2,4.3,10.9s5.4,11.8,6.1,13.5c2.4,6.1,6.7,9,18.6,12.2
		c6.1,1.6,17.5,4.2,25.5,5.8c12.9,2.5,16.6,2.8,33.3,2.7c12.2,0,18.7,0.3,18.7,1s-7.9,0.8-24.2,0.4c-21.1-0.5-25.9-1-36.3-3.3
		c-6.6-1.4-14.4-3-17.4-3.5c-3-0.6-5.8-1.2-6.2-1.5c-0.5-0.3-0.6,0.2-0.2,1.2c1.8,4.8-7.5-4-13.6-12.9c-4.5-6.5-12.8-26.3-16.1-38.2
		c-2.2-8.1-10.8-30.9-11.8-31.3c-2.3-0.7-2.8,30.4-0.6,36.2c0.3,0.9,0.2,1.6-0.3,1.6c-1.4,0-4.3-12.9-4.3-19.1c0-3,0.5-9.8,1.2-15.1
		c1.4-11.4,0.4-21.5-4.3-42.4c-1.6-7.3-2.9-14.3-2.9-15.7C246,655.4,244.4,654.4,243.1,656.8z M258,699.8c0,0.4,0.7,3.1,1.5,5.8
		c1.7,5.8,4.2,8.4,10.5,11.3c2.5,1.2,7.2,3.6,10.5,5.4c15.5,8.6,34.9,18.5,50,25.6c20.3,9.6,25.8,12.1,37.5,17.1
		c4.1,1.8,9.8,4.2,12.5,5.5c14.7,6.5,19.5,8.5,24.5,9.9c3,0.9,7.8,2.2,10.5,3.1l5,1.5l-2.9-2.5c-1.7-1.3-4-2.6-5.3-3
		c-4.1-1-22.6-10.5-37.3-19.2c-4.7-2.7-10.3-6-12.5-7.3s-5.6-3.3-7.5-4.5s-8.9-5.3-15.5-9c-6.6-3.8-14.9-8.6-18.5-10.7
		c-3.6-2-8.4-4.6-10.7-5.7c-2.4-1.1-4.3-2.5-4.3-3.1s-0.4-0.8-1-0.5c-0.5,0.3-1,0.2-1-0.3s-1.9-1.5-4.2-2.2c-2.4-0.7-5.5-2.1-7-3.1
		c-1.4-1.1-2.9-1.9-3.3-1.9c-0.3,0-3.2-1.3-6.5-2.9c-3.2-1.6-6.9-3.2-8.2-3.6c-1.2-0.4-4.5-1.7-7.3-3
		C260.9,699.5,258,698.7,258,699.8z"/>
	<path d="M317.9,208c0.6,0,1.3,0.6,1.5,1.2c0.2,0.7,1.6,6.7,3.1,13.3s3,12.6,3.3,13.2c0.2,0.7-0.3,1.3-1.1,1.3s-1.7-1.2-2-2.8
		c-0.4-1.5-1.5-7-2.7-12.2c-1.1-5.2-2.2-10.5-2.6-11.8C317,208.9,317.2,208,317.9,208z"/>
	<path d="M383.5,118.8l5,0.6c14.4,1.8,13.7,1.6,12,4.2c-2.1,3.3-2,3.4,2.8,3.5c4.3,0.1,4.2,0.3-0.4,1.3c-2.2,0.5-2.7,1.4-4.3,8.3
		c-2.5,10.4-3.9,13-7.7,13.8c-8,1.8-16.2-1.9-21.3-9.4c-3.8-5.7-3.2-7.1,6.4-15.6L383.5,118.8z M382.6,127.4
		c-1.3-0.2-1.6,0.2-1.1,1.4c2.5,5.9,2.6,12,0.2,14.9c-0.6,0.9-0.6,1.3,0.2,1.3c0.6,0,2.1-2,3.2-4.4c2-4,2.1-4.6,0.7-8.6
		C384.9,129.3,383.7,127.6,382.6,127.4z M389.9,127c-3.6,0-3.9,0.2-2.9,1.9c0.5,1.1,1,4.3,1,7.2c0,4-0.6,6-2.5,8.4l-2.4,3.3l3.4,0.6
		c1.9,0.4,4.3,0.2,5.4-0.3c3.3-1.8,5.4-14.8,3.1-19.2C394.2,127.5,392.9,127,389.9,127z"/>
	<path d="M385.3,183.7c1.6,1.5,3.9,1.8,13.6,1.8c9,0,12.5,0.4,15.5,1.8l4,1.8l-3.7,2.6c-2.1,1.5-3.8,3.7-4.2,5.4
		c-1,4.6-6,8.9-10.2,8.9c-9.3,0-19.1-11.6-19.3-22.8C381,181.5,383,181.7,385.3,183.7z M389.3,188.5c-3.4-1.1-2.9,1.8,1,6.1
		c5.9,6.5,14.2,6.2,17.7-0.6l1.9-3.8l-9.2-0.5C395.6,189.4,390.5,188.9,389.3,188.5z"/>
	<path d="M401.6,621.3c0.5,0.4-6.3,18.2-9.8,25.7c-2.9,6.4-9.3,25.4-10.9,32.3c-0.7,3.2-1.6,6-2.1,6.3s-0.7-0.5-0.4-1.8
		c2.8-13.6,4.3-19.6,6.8-26.8c2.8-8.2,4-10.9,12.3-28.3C399.5,624.4,401.4,621.1,401.6,621.3z"/>
	<path d="M379.2,716.3c0.3,3.9,0.1,5.6-0.6,5.4c-0.6-0.2-1.2-3.4-1.3-7.3C377,706.1,378.5,707.6,379.2,716.3z"/>
	<path d="M384.6,744c2.7,6,4.3,12.2,2.7,10.5c-1.7-1.7-5.3-11.2-5.2-13.7C382.1,739.2,382.8,740.1,384.6,744z"/>
	<path d="M257.8,758.5c1.2,1.1,5.4,13.7,4.7,14.3c-0.5,0.6-4.6-8.9-5.2-12.3C256.9,758.4,257.1,757.8,257.8,758.5z"/>
	<path d="M208,322c0,4.4-2.8,8.5-6.5,9.4c-3.3,0.8-8.9-1.6-11-4.8c-2.9-4.4-0.6-11,4.5-12.9C201.2,311.4,208,315.7,208,322z
		 M195.1,317.6c-3.8,3.2-4,6.5-0.5,9.3s5.2,2.6,8.6-0.6c3.2-3.1,3.6-6.3,1.1-8.5C200.9,314.8,198.4,314.8,195.1,317.6z"/>
	<path d="M247,359c10.3,10.3,7.1,29.3-6,36c-5.8,2.9-10.2,3.4-16.4,1.6c-10.5-3.1-17-11.7-16.8-22.6c0.2-10.8,6.5-19.1,16.1-21.1
		C231.9,351.2,241.9,353.9,247,359z M231,354c-2.9,0-12.6,4.3-15.3,6.8c-2.9,2.6-4.7,7.9-4.7,13.8c0,6.4,1.3,10,4.8,13.7
		c4.3,4.6,7.4,5.7,15.5,5.7c6.1,0,7.9-0.4,10.1-2.1c6.4-5.1,10.4-15.5,8.5-22.3c-1.3-4.8-7.3-11.4-12.4-13.7
		C235.3,354.9,232.4,354,231,354z"/>
	<path d="M240.6,362.9c3.8,2.3,6.7,8.1,5.8,11.6c-1,3.9-2.1,3.8-2.9-0.2c-1-5.3-2.9-8.7-5.9-10.2c-1.4-0.8-2.3-1.8-2-2.3
		C236.4,360.6,237.1,360.8,240.6,362.9z"/>
	<path d="M219.9,371c2.6,0,5.7,2.6,7.1,6c1.2,2.8,1.1,3.3-1,5.5c-3.2,3.4-6.3,3.2-9.4-0.6c-3.1-3.7-3.2-4.9-0.5-8.3
		C217.2,372.2,218.9,371,219.9,371z M218.6,375.6c-0.6,1.7,1.9,5.4,3.6,5.4c1.8,0,2-3.1,0.3-5C220.3,373.6,219.4,373.5,218.6,375.6z
		"/>
	<path d="M290.9,397.3c4.8,12.7-8.4,29.6-19.9,25.6c-2.1-0.8-6.7-1-13.1-0.5c-9.8,0.6-9.9,0.6-12.8-2.1c-1.7-1.6-3.3-4-3.7-5.5
		c-0.6-2.8,0.6-4.4,7.4-9.5c1.8-1.4,3.7-4.3,4.8-7.4c2.1-5.6,7.1-11.4,11.8-13.5C273.2,380.9,287.5,388.1,290.9,397.3z M271.5,388
		c-5.3,0-5.7,0.2-11,5.3c-3,2.9-5.5,6.1-5.5,7s1.8,3.6,4,5.8c4.1,4.2,5.7,7.7,4.7,10.3c-1.2,2.9,9.3,4.7,15,2.5
		c4.5-1.7,7.2-4.9,9-10.5c1.5-4.9,1.5-5.5-0.1-9.8c-1.3-3.3-3-5.5-6.1-7.6C277.9,388.5,276.1,388,271.5,388z M246.4,411.6
		c-1.6,2.4-1.6,2.9-0.3,5.3c1,1.8,2.4,2.7,4.8,2.9c4.9,0.5,5.5-0.8,2.9-5.9C251,408.6,248.8,407.9,246.4,411.6z"/>
	<path d="M276.4,393c2.3,0,7.3,5.1,8.1,8.3c0.4,1.5,0,3.6-0.9,5.4l-1.5,2.8l-0.1-3.8c0-4.5-2.1-9-5.2-11.1
		C274.9,393.2,274.8,393,276.4,393z"/>
	<path d="M261.5,459.5c10.1,2.7,14.2,5.1,22,13c6.2,6.4,7.7,8.6,9.6,14.3c7.8,23.2-5.3,49.5-27.4,55.4c-7.6,1.9-17.1,2.3-22.7,0.8
		c-1.9-0.5-5.1-1.3-7-1.8c-4.8-1.2-12.1-6.3-17-11.9c-4.7-5.4-10.5-16.8-11.6-22.8c-0.9-5.1-1.7-6.1-7.5-9.1
		c-6.7-3.4-9.9-8.3-9.9-15.4c0-4.7,0.5-6.3,3.1-9.8c1.7-2.4,4.4-4.9,6-5.7c3.9-2.1,12.5-1.8,17.5,0.4l4.1,1.9l4.9-2.9
		c5.2-3,14.8-6.5,19.9-7.2C251.9,457.9,255.8,458.1,261.5,459.5z M231.4,465.2c-6.6,3.4-7.8,5-7,9c1.9,9.7,1.8,12.4-0.3,16.6
		c-1.5,3-3.6,5-7.1,7c-2.8,1.5-5.3,3.5-5.6,4.6c-0.9,2.8,1.6,13.4,4.4,18.4c3.7,6.5,8.7,10.9,18.1,15.5c8.1,4,8.9,4.2,19.2,4.5
		c10.2,0.4,11.2,0.2,16.6-2.5c7.5-3.7,14.3-10.5,18.5-18.4c3.2-6.2,3.3-6.8,3.3-17.9c0-10.9-0.2-11.8-3.2-18.1
		c-5.7-11.7-16.5-19.9-29-21.9C248.3,460.2,239.2,461.2,231.4,465.2z M193,481.2c0,6.5,7.5,15.7,11.4,14.2c2-0.8,11.6-20,11.6-23.2
		c0-1.3-1.2-2.4-3.2-3.3C202.3,464.6,193,470.4,193,481.2z M219.4,477.3c-2.6-0.9-7.4,9.1-7.4,15.3c0,2.9,0.3,3.2,2.3,2.9
		c2.7-0.5,6.5-4.7,7.3-8.2c0.4-1.4,0.3-4.2-0.2-6.1C220.9,479.2,220,477.5,219.4,477.3z"/>
	<path d="M279.4,487.7c0.7,1.6,1.9,5.9,2.5,9.8c1.3,8.5-0.3,17.5-4,22.9c-3.9,5.8-4.9,4.9-1.6-1.5c2.1-4.1,3.2-7.9,3.5-11.9
		c0.4-5.3-1-16.6-2.4-20.5C276.4,483.9,277.9,484.9,279.4,487.7z"/>
	<path d="M245.4,516.4c10.2,4.3,10.1,18.1-0.2,18.1c-4.9,0-11.4-4.1-13.1-8.3c-1.6-3.8,0.1-8,3.9-9.9
		C239.2,514.7,241.3,514.7,245.4,516.4z M235,524.3c0,4.8,9.9,8.7,13.3,5.2c2.5-2.4,2.1-4.8-1.3-8C241.8,516.5,235,518,235,524.3z"
		/>
	<path d="M199.5,478.8l2.7,3.3c2.6,3,2.6,3.4,1.2,5c-1.5,1.7-1.8,1.7-5-0.9l-3.3-2.6l2.2-2.4L199.5,478.8z"/>
</g>
</svg>
