<?xml version="1.0" standalone="no"?>
<!DOCTYPE svg PUBLIC "-//W3C//DTD SVG 20010904//EN"
 "http://www.w3.org/TR/2001/REC-SVG-20010904/DTD/svg10.dtd">
<svg version="1.0" xmlns="http://www.w3.org/2000/svg"
 width="850.000000pt" height="850.000000pt" viewBox="0 0 850.000000 850.000000"
 preserveAspectRatio="xMidYMid meet">
<metadata>
Created by potrace 1.14, written by Peter Selinger 2001-2017
</metadata>
<g transform="translate(0.000000,850.000000) scale(0.100000,-0.100000)"
fill="#000000" stroke="none">
<path d="M5832 8424 c-5 -11 -24 -64 -41 -119 -18 -55 -48 -142 -68 -193 -48
-126 -186 -394 -235 -459 -74 -97 -313 -283 -391 -304 -21 -6 -41 -9 -42 -7
-2 2 10 25 26 52 17 26 45 85 64 129 18 45 40 99 50 121 29 67 9 50 -35 -31
-52 -95 -109 -170 -187 -244 -72 -70 -190 -149 -221 -149 -13 0 -37 14 -54 30
-30 31 -30 31 -25 118 3 48 8 98 12 112 14 48 -12 6 -41 -65 -22 -55 -28 -86
-28 -143 0 -72 0 -73 -18 -50 -17 22 -18 22 -18 2 0 -34 -40 -62 -99 -70 -46
-6 -62 -14 -107 -55 -30 -27 -66 -51 -81 -55 -16 -3 -44 -10 -63 -15 -19 -4
-93 -15 -165 -24 -157 -19 -189 -27 -282 -71 -39 -19 -78 -34 -86 -34 -9 0
-28 -11 -43 -23 -23 -20 -27 -31 -26 -70 1 -26 -7 -74 -18 -107 -25 -74 -25
-101 -1 -131 13 -16 17 -33 14 -54 -4 -27 2 -36 64 -91 37 -33 78 -66 91 -73
29 -15 66 -4 117 34 48 37 97 42 168 15 48 -18 58 -25 55 -43 -4 -30 -43 -47
-110 -47 -32 0 -58 -4 -58 -8 0 -10 156 -35 169 -27 16 9 23 -15 10 -31 -7 -9
-36 -27 -63 -42 -41 -20 -69 -27 -141 -30 -88 -4 -147 8 -249 53 -42 18 -3
-16 46 -41 116 -59 312 -72 444 -30 43 14 82 22 87 19 5 -3 -8 -23 -29 -44
-21 -22 -35 -39 -32 -39 3 0 28 11 55 25 26 14 64 27 83 31 l35 6 -25 -21
c-44 -38 -167 -92 -257 -113 -148 -36 -127 -53 25 -22 89 18 210 68 276 114
63 42 76 36 76 -38 0 -76 -37 -152 -124 -253 -125 -147 -149 -163 -528 -342
-75 -36 -162 -83 -195 -104 -32 -21 -84 -47 -115 -56 -73 -23 -89 -37 -139
-127 -23 -41 -73 -119 -112 -172 l-70 -97 -66 34 c-88 44 -140 86 -309 249
-81 78 -151 138 -167 142 -40 10 -199 -3 -239 -20 -19 -8 -68 -46 -110 -84
-64 -60 -100 -83 -253 -158 -98 -49 -215 -106 -260 -126 -108 -50 -156 -91
-151 -130 4 -27 -3 -35 -86 -97 -323 -243 -709 -414 -1108 -492 -65 -12 -118
-26 -118 -31 0 -12 3 -12 377 -25 237 -8 276 -14 259 -42 -10 -15 -160 -146
-182 -159 -10 -6 -16 -13 -13 -16 8 -8 121 32 253 89 135 59 219 75 278 55 81
-29 77 -59 -22 -182 -39 -49 -65 -88 -57 -88 29 0 113 65 215 168 167 170 280
231 314 170 6 -13 12 -60 12 -105 0 -46 2 -83 6 -83 11 0 54 87 79 164 15 44
33 82 40 84 6 2 42 -28 79 -66 101 -105 234 -204 250 -187 4 4 -6 17 -23 28
-16 12 -56 48 -87 80 -80 80 -93 126 -93 317 0 125 3 151 20 185 30 60 64 60
104 1 18 -25 41 -50 51 -56 24 -13 24 -12 6 32 -21 50 -28 147 -13 187 28 78
77 63 77 -25 0 -89 29 -279 55 -361 25 -79 91 -203 108 -203 5 0 6 8 2 18 -52
130 -55 518 -6 624 29 61 79 107 124 115 33 5 40 1 91 -47 53 -50 62 -70 31
-70 -31 0 -123 -52 -133 -75 -7 -14 -16 -105 -22 -202 -17 -279 -56 -494 -134
-723 -35 -102 -34 -134 10 -206 20 -32 49 -93 66 -134 40 -101 77 -146 205
-248 184 -148 262 -242 357 -437 63 -127 103 -239 146 -400 30 -116 81 -255
92 -255 6 0 8 10 4 23 -23 80 -14 362 13 405 13 21 34 4 81 -65 25 -37 50 -68
57 -70 36 -12 20 119 -38 303 -49 157 -64 238 -55 296 9 57 26 75 48 50 8 -9
43 -80 77 -157 78 -175 139 -289 228 -430 39 -60 85 -136 102 -167 42 -75 63
-188 50 -271 -20 -121 15 -255 125 -477 120 -241 233 -398 426 -592 l137 -137
-30 -10 c-39 -14 -156 -14 -196 0 -20 7 -31 18 -31 30 0 10 5 19 10 19 6 0 10
-5 10 -11 0 -6 10 -9 23 -7 33 5 34 41 2 56 -45 21 -66 14 -123 -43 -62 -61
-99 -74 -156 -55 -44 14 -58 37 -47 77 21 71 66 112 101 91 16 -10 22 -10 36
4 22 22 11 48 -21 48 -67 0 -134 -57 -157 -131 -17 -60 -51 -82 -112 -75 -181
21 -474 295 -540 505 -45 143 -43 268 5 395 28 77 57 106 104 106 40 0 47 17
11 26 -83 20 -190 -113 -232 -291 -9 -38 -25 -90 -34 -115 -10 -25 -21 -62
-24 -82 -9 -47 -38 -52 -60 -9 -43 83 -69 228 -86 491 -13 186 -79 601 -111
698 -27 82 -93 179 -147 216 -35 25 -46 28 -69 20 -30 -10 -43 -42 -22 -55 8
-5 20 -2 31 8 27 24 46 9 79 -62 72 -153 103 -446 66 -610 -29 -124 -50 -144
-122 -119 -83 28 -165 134 -285 367 -89 174 -140 299 -241 587 -39 113 -91
246 -114 297 -133 286 -331 437 -419 320 -25 -34 -13 -60 29 -65 25 -3 27 -1
23 22 -7 37 17 34 74 -12 136 -108 268 -373 268 -538 0 -59 -3 -68 -29 -95
-61 -60 -108 -40 -311 137 -232 201 -347 283 -505 359 -185 89 -334 120 -533
111 -255 -10 -324 -19 -373 -48 -114 -67 -133 -238 -35 -306 63 -43 156 -21
156 37 0 39 -21 54 -64 45 -32 -5 -36 -4 -36 15 0 35 53 54 150 54 227 -1 440
-121 736 -417 261 -260 349 -399 579 -916 118 -265 258 -552 335 -685 299
-521 642 -879 996 -1041 100 -45 243 -89 353 -108 136 -23 368 -21 516 4 108
18 386 90 481 123 138 50 284 148 404 274 l91 95 87 -35 c127 -51 202 -72 337
-97 66 -12 143 -28 171 -36 28 -8 75 -13 105 -13 30 1 205 -3 389 -8 195 -6
364 -6 405 -1 39 5 124 10 189 12 194 7 406 41 461 75 17 10 48 21 70 25 57
11 171 72 224 120 25 23 64 50 85 60 85 38 177 106 204 150 15 24 43 52 62 62
60 33 157 136 188 201 16 34 45 80 66 104 52 61 106 171 113 232 5 36 17 66
44 105 48 69 73 141 74 217 0 36 8 73 18 92 45 85 93 264 83 314 -3 17 2 45
14 71 42 96 53 198 47 423 -13 446 -85 849 -193 1075 -162 339 -254 500 -291
510 -13 3 -39 32 -63 70 -51 79 -128 160 -152 160 -10 0 -18 4 -18 9 0 5 -25
29 -56 55 -47 38 -65 63 -105 144 -85 173 -205 291 -383 377 -153 75 -222 89
-431 90 -130 0 -186 -4 -203 -13 -29 -17 -21 -28 25 -35 60 -8 93 -24 93 -45
0 -31 -34 -52 -100 -63 -35 -5 -66 -12 -70 -14 -3 -2 -51 -8 -106 -14 -178
-18 -330 -91 -190 -91 63 0 86 -7 86 -26 0 -20 -54 -56 -185 -119 -66 -32
-147 -77 -180 -100 -73 -52 -215 -196 -215 -219 0 -20 -2 -20 45 4 41 21 70
25 79 12 8 -13 -54 -97 -144 -197 -129 -143 -260 -345 -385 -595 -112 -223
-196 -446 -211 -559 -4 -28 -10 -54 -14 -56 -9 -5 -67 143 -104 265 -58 193
-91 427 -84 602 3 85 8 113 30 160 35 76 68 108 111 108 18 0 38 -5 45 -12 7
-7 12 -10 13 -8 0 3 1 50 2 106 2 97 4 104 44 186 53 105 123 202 162 222 16
9 48 18 72 22 69 9 70 10 58 37 -9 19 -6 34 12 76 31 73 99 129 245 200 139
68 260 161 210 161 -8 0 -27 5 -41 12 -22 10 -25 17 -25 65 0 66 29 150 75
220 19 29 87 107 150 173 118 124 156 173 195 250 13 25 30 50 39 57 27 20 9
22 -52 6 -58 -14 -60 -14 -83 8 -16 15 -24 34 -24 56 0 28 12 45 93 123 84 80
103 107 177 238 46 81 90 155 98 165 24 28 9 29 -56 2 -34 -14 -75 -25 -92
-25 -48 0 -99 26 -110 56 -15 38 -4 82 55 230 81 201 144 414 122 414 -3 0
-14 -16 -26 -35 -39 -66 -149 -88 -198 -39 -23 23 -25 31 -20 87 3 34 15 125
27 202 22 142 23 285 3 395 l-9 45 -13 -38 c-17 -51 -36 -67 -79 -67 -47 0
-75 19 -108 76 -75 127 -82 264 -28 538 11 52 12 82 6 88 -7 7 -13 4 -20 -8z
m-23 -562 c14 -48 34 -86 56 -111 36 -40 100 -66 131 -54 14 5 16 3 10 -13
-21 -56 -121 -197 -193 -273 l-81 -86 5 135 c6 142 -8 226 -44 275 -15 20 -15
20 -8 0 26 -74 36 -166 30 -260 -4 -55 -7 -116 -8 -135 -1 -30 -8 -41 -42 -66
-74 -57 -204 -127 -221 -120 -23 9 -15 117 12 173 20 39 17 38 -85 -51 -126
-110 -181 -148 -250 -176 -74 -29 -110 -26 -186 16 l-67 37 64 22 c158 56 270
121 375 218 43 40 84 77 91 82 22 17 127 157 164 220 48 81 129 244 163 329
46 119 49 119 56 9 3 -58 14 -128 28 -171z m261 -224 c0 -51 -7 -138 -15 -193
-48 -311 -46 -292 -31 -329 19 -45 57 -69 112 -70 l45 -1 -48 -42 c-67 -59
-206 -154 -282 -193 -57 -29 -65 -30 -79 -16 -10 10 -18 42 -22 88 l-5 73 -7
-59 c-5 -42 -3 -69 8 -94 7 -19 14 -36 14 -37 0 -8 -194 -67 -263 -80 -87 -17
-187 -20 -171 -6 5 5 27 14 49 21 60 19 147 65 169 89 22 24 15 27 -17 7 -12
-8 -32 -17 -44 -21 -20 -5 -23 -3 -24 22 l-1 28 -10 -32 c-12 -35 -29 -43 -99
-43 -52 0 -105 15 -131 38 -26 22 -11 34 22 17 33 -17 60 -20 60 -5 0 16 62
80 94 97 17 9 58 19 91 23 56 6 58 7 27 15 -41 10 -56 36 -47 84 12 62 36 89
166 186 69 51 158 129 198 171 87 95 184 236 208 304 10 27 21 50 25 50 5 0 8
-42 8 -92z m-731 -174 c-42 -45 -161 -131 -239 -173 -76 -40 -267 -108 -277
-97 -3 3 5 14 18 25 13 11 64 55 114 98 79 69 87 74 68 41 -12 -20 -19 -39
-16 -42 13 -12 83 -5 125 13 43 18 199 129 212 150 4 6 10 11 13 11 4 0 -4
-12 -18 -26z m-641 -251 l26 -22 -28 -10 c-50 -20 -51 -19 -61 64 l-7 60 22
-35 c12 -19 33 -45 48 -57z m695 1 c-5 -37 -2 -50 16 -75 13 -17 21 -32 19
-34 -22 -22 -334 -122 -345 -111 -2 2 29 19 70 38 45 22 83 48 98 68 26 34
140 160 145 160 2 0 1 -21 -3 -46z m-783 -50 c0 -8 -2 -14 -4 -14 -2 0 -11 -3
-20 -6 -19 -7 -22 16 -4 34 13 13 28 7 28 -14z m190 -45 c25 -5 65 -22 89 -36
l43 -25 -28 -19 c-16 -10 -39 -19 -51 -19 -13 0 -23 -4 -23 -10 0 -15 64 -12
86 5 22 17 38 20 29 5 -9 -14 2 -12 28 4 12 7 46 16 75 19 30 4 79 18 110 32
33 14 48 18 37 9 -11 -9 -49 -29 -85 -46 -36 -16 -73 -37 -82 -45 -20 -18 -24
-85 -8 -129 9 -24 9 -25 -5 -14 -8 7 -18 30 -21 51 -6 38 -30 69 -56 73 -7 1
-19 5 -26 10 -22 13 -22 2 -3 -50 15 -37 21 -45 26 -31 4 9 5 26 2 38 -4 16
-3 18 8 9 8 -6 17 -26 20 -43 8 -35 50 -97 66 -97 6 0 7 6 4 13 -4 6 3 1 14
-13 23 -28 25 -36 11 -45 -14 -9 6 -83 37 -137 13 -24 -24 0 -79 50 -42 38
-55 47 -41 26 63 -89 194 -184 254 -184 19 0 41 -5 49 -10 12 -8 11 -10 -7
-10 -39 0 -83 -84 -83 -159 0 -42 6 -57 46 -111 l45 -62 -33 19 c-18 10 -66
52 -108 93 -74 73 -90 99 -162 260 -16 35 -16 35 -17 -63 0 -139 45 -278 123
-380 21 -27 36 -50 34 -52 -2 -1 -24 4 -50 12 -56 19 -86 13 -123 -24 l-28
-28 6 234 c4 157 3 231 -4 224 -8 -8 -26 -217 -29 -338 -1 -29 -1 -29 -15 9
-16 45 -32 58 -61 51 l-22 -5 19 37 c14 27 19 58 19 112 l0 74 -38 -54 c-42
-60 -121 -119 -160 -119 -21 0 -16 5 26 26 30 15 73 49 102 81 40 46 57 78 95
181 25 68 44 132 43 141 -2 9 -23 -36 -46 -100 -24 -64 -59 -139 -78 -167 -39
-59 -121 -119 -174 -127 -32 -5 -31 -4 10 11 109 40 160 99 218 252 36 93 36
96 22 87 -6 -4 -29 -45 -51 -92 -68 -147 -131 -204 -244 -218 -90 -12 -175 25
-225 97 -29 42 -113 103 -172 124 -62 22 -98 17 -138 -16 -40 -33 -32 -37 31
-14 56 19 94 12 170 -32 40 -24 69 -50 87 -79 15 -24 46 -57 70 -74 53 -39 54
-54 5 -45 -62 10 -134 47 -204 105 -37 30 -75 59 -85 66 -16 10 -12 11 26 6
25 -3 65 -12 90 -19 44 -13 45 -13 21 5 -40 31 -111 43 -207 36 -76 -6 -97
-12 -147 -41 -32 -19 -66 -34 -75 -34 -16 0 -72 48 -72 62 0 16 47 7 65 -12
10 -11 22 -20 27 -20 4 0 8 9 8 20 0 11 -7 20 -15 20 -8 0 -15 5 -15 11 0 7
10 9 26 5 21 -6 25 -4 21 7 -3 8 0 20 6 26 15 15 -34 5 -72 -15 -43 -23 -121
-16 -121 10 0 8 11 11 29 8 16 -2 66 8 112 22 45 14 90 26 100 26 26 0 50 -11
44 -21 -3 -4 -13 -5 -22 -2 -10 4 -14 2 -11 -7 9 -28 46 -30 75 -6 24 20 25
26 14 40 -7 9 -21 16 -31 16 -9 0 -20 3 -23 7 -10 9 -71 10 -78 0 -3 -4 -26
-9 -50 -10 -24 -1 -50 -8 -57 -14 -16 -15 -36 -17 -27 -3 3 6 2 10 -4 10 -5 0
-11 -5 -13 -12 -3 -7 -13 -3 -27 11 -19 19 -22 29 -15 59 4 21 8 46 9 57 1 11
7 30 14 43 6 12 7 22 2 22 -5 0 -17 -20 -27 -45 -23 -62 -30 -49 -9 16 13 38
15 54 6 57 -20 7 -13 60 11 76 33 23 41 19 21 -11 -12 -17 -14 -28 -6 -30 6
-2 8 -14 5 -26 -5 -20 -4 -20 11 -8 9 7 17 22 17 33 0 10 19 40 43 64 55 59
113 74 307 78 124 3 158 8 235 32 50 15 92 31 95 35 3 4 21 14 40 22 l35 15
-45 1 c-44 1 -44 1 -25 21 11 11 36 23 55 26 32 7 34 6 21 -9 -12 -15 -11 -17
2 -17 9 0 38 9 65 19 80 32 162 39 242 20z m640 -64 c-16 -26 -21 -47 -18 -75
4 -45 7 -43 -90 -60 -35 -6 -73 -15 -85 -20 -18 -7 -14 -9 21 -9 43 -1 43 -1
28 -23 -9 -12 -16 -30 -16 -40 0 -22 2 -22 -45 2 -47 24 -69 26 -62 6 10 -26
-20 -7 -48 31 -34 43 -45 36 -16 -11 33 -52 94 -103 150 -123 28 -10 51 -20
51 -24 0 -3 -9 -14 -20 -24 -17 -15 -23 -16 -51 -5 -69 29 -174 160 -193 243
-6 26 -5 27 31 27 48 1 123 18 140 32 14 11 221 105 236 107 5 0 -1 -15 -13
-34z m820 23 c0 -12 -80 -221 -115 -303 -49 -111 -70 -193 -61 -230 9 -35 52
-82 83 -90 26 -7 24 -9 -32 -27 -90 -28 -225 -58 -267 -58 -63 0 -73 48 -38
179 23 84 24 99 11 85 -15 -14 -51 -154 -51 -194 0 -20 7 -45 15 -57 14 -20
13 -21 -68 -27 -82 -6 -215 3 -337 23 -53 9 -70 17 -92 43 -15 17 -25 35 -21
41 12 20 75 37 138 37 l65 0 1 -42 1 -43 10 41 c10 39 13 42 52 49 l41 8 -36
9 c-30 8 -38 15 -46 46 l-10 37 -2 -37 -1 -38 -57 0 c-32 0 -95 7 -141 17 -65
12 -87 21 -98 39 -13 18 -13 26 -2 43 11 19 19 20 78 15 76 -7 209 8 329 37
210 52 404 164 566 328 59 60 85 81 85 69z m-2013 -94 c-3 -3 -12 -4 -19 -1
-8 3 -5 6 6 6 11 1 17 -2 13 -5z m922 -294 c17 -15 21 -24 13 -33 -6 -6 -12
-25 -14 -42 l-3 -30 -23 37 c-25 41 -43 93 -35 102 7 6 29 -6 62 -34z m1127
-256 c-3 -9 -34 -62 -68 -119 -42 -72 -88 -131 -149 -193 -101 -103 -122 -148
-96 -200 l15 -30 -59 -7 c-63 -7 -219 2 -239 15 -22 14 -2 74 50 154 53 81 80
138 80 165 0 9 -20 -20 -44 -64 -23 -44 -59 -107 -79 -139 -20 -33 -37 -70
-37 -83 0 -29 -17 -29 -98 -2 -59 20 -62 22 -62 54 0 19 11 65 25 103 14 38
25 85 24 103 0 27 -5 17 -25 -46 -13 -44 -29 -101 -36 -127 -12 -52 -22 -57
-68 -33 -38 20 -44 43 -30 123 12 72 3 137 -25 191 -24 48 -9 55 88 41 57 -9
141 -11 254 -7 148 5 184 9 303 40 74 19 158 44 185 55 64 26 99 28 91 6z
m-997 -78 c64 -113 93 -223 54 -209 -49 17 -112 101 -123 165 -7 39 6 118 19
118 4 0 27 -34 50 -74z m-185 -123 c32 -29 66 -53 76 -53 10 0 38 -12 61 -26
24 -14 35 -23 24 -20 -130 34 -156 38 -170 26 -22 -18 -31 -6 -63 78 -47 122
-49 133 -15 87 16 -22 55 -64 87 -92z m-894 48 c0 -3 -13 -13 -29 -22 -27 -16
-28 -16 -24 2 3 11 0 25 -6 33 -9 11 -9 15 1 18 13 5 58 -19 58 -31z m577 -1
c-4 -16 -22 -62 -41 -101 l-35 -71 -14 33 c-8 19 -21 40 -30 47 -15 12 -10 18
44 54 33 23 63 47 66 54 9 25 16 15 10 -16z m-500 -32 c39 -17 38 -16 19 -37
-15 -16 -22 -18 -36 -9 -14 9 -32 8 -79 -5 -78 -22 -86 -21 -36 3 22 10 51 28
65 39 30 24 31 24 67 9z m143 -35 c-1 -20 -50 -43 -80 -37 -29 6 -30 8 -14 25
17 19 94 28 94 12z m159 -13 c45 -12 72 -44 91 -106 10 -34 10 -53 -4 -112
-19 -83 -19 -82 -7 -82 5 0 16 30 26 68 22 88 53 150 88 176 27 20 29 20 42 3
7 -10 27 -77 44 -150 57 -238 64 -261 97 -327 l33 -65 -34 -49 -35 -50 26 -27
c14 -15 23 -32 19 -38 -3 -6 -34 -24 -69 -40 -80 -36 -128 -79 -160 -143 -36
-72 -34 -92 12 -115 30 -15 40 -27 53 -68 10 -27 19 -87 21 -132 l3 -82 -35
34 c-52 51 -56 43 -13 -22 145 -223 148 -318 14 -497 -78 -104 -168 -262 -156
-274 4 -4 12 1 19 10 7 10 15 15 18 12 4 -3 12 12 19 33 10 32 13 35 19 18 6
-16 10 -12 20 25 8 25 18 50 23 55 7 7 8 4 4 -7 -12 -34 -36 -166 -48 -258 -7
-56 -9 -161 -7 -255 4 -119 3 -145 -4 -100 -5 33 -8 140 -6 237 2 121 0 172
-7 160 -16 -27 -12 -375 5 -457 14 -67 15 -69 22 -35 6 30 7 29 4 -12 -2 -26
0 -48 3 -50 4 -2 20 -57 35 -123 16 -66 45 -165 66 -220 53 -141 53 -143 34
-110 -9 16 -34 77 -55 134 -39 108 -71 162 -44 76 8 -28 20 -68 26 -89 17 -63
54 -140 98 -205 38 -56 40 -60 21 -66 -30 -10 -24 -25 10 -25 39 0 83 -40 178
-160 105 -133 101 -127 69 -107 -43 28 -46 10 -5 -26 40 -35 78 -92 78 -119 0
-30 37 -103 70 -139 57 -62 57 -68 -3 -52 -59 15 -97 17 -97 4 0 -5 9 -28 20
-52 22 -49 26 -89 9 -89 -6 0 -28 13 -48 29 -71 56 -293 162 -308 147 -3 -3 2
-22 12 -42 26 -56 8 -63 -62 -23 -139 78 -232 158 -280 240 -19 33 -28 36 -37
14 -10 -27 -50 -15 -116 35 -89 68 -96 63 -13 -9 75 -64 103 -77 131 -62 16 9
24 3 53 -35 19 -25 52 -61 74 -79 52 -42 241 -165 255 -165 20 0 34 48 21 76
-10 24 -10 25 11 18 49 -15 196 -94 248 -133 30 -23 62 -40 70 -39 21 4 24 61
6 97 -26 49 -22 64 17 56 104 -23 142 -55 65 -55 -24 0 -50 6 -57 13 -12 10
-13 8 -6 -8 32 -84 46 -181 28 -198 -3 -4 -30 15 -58 42 -29 28 -89 68 -136
91 -46 23 -97 54 -113 69 -24 22 -28 23 -21 6 22 -55 11 -105 -27 -129 -15 -9
-27 -1 -76 49 -38 39 -87 76 -142 105 -91 48 -152 97 -182 145 -18 30 -26 19
-9 -13 11 -22 -4 -62 -23 -62 -22 0 -72 46 -134 124 -58 74 -131 146 -146 146
-5 0 13 -24 40 -53 27 -28 71 -80 97 -113 25 -34 67 -80 91 -101 37 -32 47
-50 59 -99 24 -95 30 -176 22 -327 l-7 -141 -22 25 c-11 13 -33 40 -48 59 -48
62 -39 25 12 -49 l50 -73 0 -81 c-1 -45 -7 -127 -14 -182 -7 -54 -10 -114 -6
-132 4 -18 3 -53 -2 -78 -6 -26 -8 -84 -6 -129 3 -73 7 -88 38 -140 19 -31 66
-96 105 -144 47 -59 60 -79 40 -65 -89 64 -246 268 -305 396 -16 34 -52 141
-80 237 -86 292 -157 466 -234 575 -25 34 -52 65 -61 69 -19 7 -15 0 31 -61
59 -78 140 -283 214 -540 59 -206 108 -326 172 -420 l59 -88 -49 48 c-28 28
-60 73 -74 105 -14 31 -31 68 -37 82 -9 21 -10 17 -5 -25 l6 -50 -41 45 c-63
70 -94 175 -92 311 2 173 -15 178 -24 7 -4 -81 -4 -153 0 -160 3 -7 -3 -2 -14
11 -17 18 -21 37 -21 88 0 40 -4 62 -10 58 -6 -3 -10 -22 -10 -41 0 -19 -3
-34 -7 -34 -8 0 -15 11 -90 142 l-45 77 17 81 c9 44 15 86 12 93 -4 12 -37
-85 -37 -110 0 -7 -5 -13 -11 -13 -8 0 -10 19 -6 60 3 33 3 60 1 60 -2 0 -10
-12 -18 -27 l-14 -28 -12 30 c-7 17 -16 41 -22 55 -28 68 -38 134 -39 259 0
88 3 137 11 145 8 8 24 -3 62 -44 27 -30 47 -47 44 -37 -5 15 2 12 31 -11 60
-47 143 -95 151 -87 4 4 -4 15 -18 24 -136 90 -269 234 -385 414 -32 49 -9 28
27 -25 59 -88 174 -214 249 -273 39 -30 75 -55 80 -55 18 0 8 16 -20 33 -58
34 -196 173 -269 272 -96 129 -209 359 -298 608 -67 188 -95 242 -54 105 30
-102 92 -271 129 -352 17 -38 29 -71 26 -74 -7 -7 -62 116 -107 243 -55 152
-130 423 -163 588 -16 75 -30 135 -33 132 -15 -15 56 -338 132 -600 19 -66 33
-121 31 -123 -6 -6 -96 190 -120 263 -34 102 -62 250 -85 457 -11 101 -22 201
-25 223 l-6 40 16 -35 c16 -36 82 -110 98 -110 4 0 -7 19 -27 43 -62 76 -90
166 -71 226 5 16 0 27 -15 39 -16 13 -30 49 -50 125 -14 59 -24 107 -21 107
20 -1 38 -29 71 -116 45 -120 93 -219 125 -259 31 -38 44 -26 16 14 -49 69
-143 302 -128 317 12 13 211 -104 296 -173 30 -25 71 -54 91 -66 20 -11 41
-30 46 -41 11 -26 68 -41 117 -32 49 9 48 28 0 22 -21 -3 -10 2 25 11 64 17
88 40 30 28 -27 -5 -30 -4 -15 5 9 6 47 17 83 25 36 7 69 17 72 21 8 8 -115
-2 -143 -12 -28 -10 31 53 68 72 15 8 27 19 27 25 0 16 -39 1 -88 -32 -35 -24
-41 -26 -32 -9 14 26 9 25 -36 -5 -20 -14 -45 -25 -56 -25 -23 0 -72 24 -115
57 -23 16 -33 20 -33 10 0 -26 101 -87 145 -87 15 0 36 5 48 11 21 10 21 10 3
-5 -46 -37 -104 -17 -231 80 -165 125 -369 222 -629 299 -45 13 -69 24 -55 24
15 1 111 -28 214 -64 103 -36 190 -63 194 -60 9 10 -17 22 -149 70 -69 25
-147 55 -175 67 -34 15 -71 22 -118 22 l-67 0 6 63 c6 54 4 63 -9 63 -23 0
-51 -61 -71 -150 -9 -41 -19 -84 -22 -95 -6 -18 -4 -18 9 -5 9 8 25 49 35 90
l20 75 1 -72 c1 -39 4 -78 7 -87 4 -11 0 -16 -13 -16 -20 0 -43 -18 -43 -34 0
-5 9 -1 19 8 27 24 37 15 56 -49 8 -30 18 -61 21 -68 4 -11 -1 -13 -21 -9 -35
6 -65 -22 -64 -62 l0 -31 16 38 c25 60 71 44 127 -46 l17 -27 -38 20 c-32 17
-40 18 -58 6 -28 -18 -47 -82 -40 -129 4 -21 22 -58 41 -83 19 -24 34 -48 34
-54 0 -20 87 -60 130 -60 42 0 43 0 25 -20 -10 -11 -25 -20 -34 -20 -9 0 -24
-7 -35 -15 -31 -24 -98 -29 -142 -10 -117 49 -147 158 -109 390 8 50 14 99 14
110 -2 39 -29 -70 -45 -179 -22 -153 -10 -229 50 -294 52 -58 153 -79 219 -46
l32 16 -20 -20 c-11 -12 -51 -37 -88 -57 -82 -42 -138 -47 -161 -13 -12 17
-16 18 -16 7 0 -9 10 -29 22 -44 19 -25 26 -27 68 -22 49 6 151 49 171 73 13
16 33 19 24 4 -7 -11 12 -50 24 -50 5 0 4 13 -2 29 -9 26 -7 34 18 68 42 57
137 164 141 160 2 -2 -5 -27 -16 -55 -23 -60 -24 -73 -9 -143 7 -34 23 -64 46
-89 l34 -38 -113 5 c-113 5 -171 -3 -327 -48 -33 -9 -48 -9 -62 -1 -17 11 -18
8 -16 -37 5 -116 -75 -104 -127 19 -21 51 -79 171 -103 214 -24 44 -19 86 25
248 80 288 120 502 129 691 2 53 7 97 9 97 3 0 28 -7 56 -16 55 -19 53 -13 32
-112 -7 -33 -6 -34 17 -20 13 7 52 34 87 61 35 26 67 47 73 47 5 0 9 5 9 10 0
31 -121 -28 -149 -73 -25 -38 -26 -33 -6 16 8 20 15 41 15 46 0 21 -32 39 -81
46 -28 4 -47 11 -42 15 10 11 135 40 169 40 13 0 24 5 24 10 0 17 60 11 218
-21 83 -16 211 -36 284 -43 l133 -13 -80 -3 c-114 -5 -147 -1 -260 26 -108 26
-135 29 -119 15 23 -23 184 -63 269 -67 109 -6 341 17 338 33 -2 11 21 18 154
43 89 18 163 9 212 -23 23 -15 41 -23 41 -18 0 15 -60 61 -88 67 -51 11 -47
14 13 9 73 -7 65 12 -11 24 -27 5 -43 9 -36 10 6 0 12 6 12 12 0 13 -53 3 -94
-18 -72 -37 -399 -79 -440 -56 -15 8 -8 21 52 102 59 79 152 235 152 255 0 22
-24 -6 -69 -81 -39 -67 -157 -229 -197 -272 -2 -2 -2 23 0 54 3 51 2 56 -10
40 -8 -10 -14 -23 -14 -29 0 -5 -3 -7 -6 -4 -3 3 4 24 15 47 26 50 26 59 1 36
-34 -30 -23 -13 54 89 41 54 95 136 121 182 42 74 75 111 75 83 0 -17 22 -5
163 88 87 57 181 108 276 150 79 34 164 75 190 89 139 81 275 225 346 367 50
99 55 134 24 191 -25 47 -18 57 15 21 20 -21 26 -24 26 -11 0 25 16 19 44 -16
14 -18 26 -28 26 -21 0 22 -21 68 -43 92 -17 19 -18 23 -5 18 9 -3 35 -11 57
-17z m590 -79 c19 -12 29 -115 10 -109 -17 5 -70 99 -63 110 7 11 36 10 53 -1z
m102 -95 c16 -33 29 -69 29 -78 0 -9 5 -20 12 -24 8 -5 10 12 5 68 -4 41 -9
83 -13 92 -5 12 -2 15 9 10 32 -12 49 -195 27 -289 -5 -22 -16 -85 -24 -140
-14 -93 -55 -243 -74 -273 -5 -8 -10 46 -11 129 -2 155 -8 177 -65 234 l-32
32 18 44 c34 81 53 117 60 113 11 -7 21 63 15 111 -6 58 7 49 44 -29z m-139
-36 l58 -21 -15 -36 c-8 -19 -31 -61 -50 -93 -19 -32 -35 -63 -35 -69 0 -6 12
-16 26 -21 24 -10 25 -12 12 -33 -17 -25 -87 -76 -105 -77 -23 0 -73 192 -73
284 0 103 43 118 182 66z m340 -65 c38 -14 115 -37 171 -51 117 -30 243 -34
365 -10 62 12 72 12 72 -1 0 -32 -39 -82 -167 -215 -187 -194 -253 -303 -253
-418 0 -28 -4 -50 -9 -50 -16 0 -130 91 -166 133 -19 22 -35 51 -35 64 0 29
33 95 71 144 33 42 104 173 114 209 3 14 -16 -13 -43 -60 -26 -47 -70 -116
-96 -154 -26 -38 -50 -82 -53 -97 -3 -16 -9 -29 -13 -29 -13 0 -70 120 -70
145 0 33 23 93 60 155 18 30 37 66 42 80 21 55 -22 -6 -71 -103 l-50 -99 5 54
c3 29 14 98 25 152 10 54 19 116 19 137 0 22 3 39 6 39 4 0 38 -11 76 -25z
m-291 -262 c10 -33 14 -99 13 -213 -2 -196 -15 -260 -79 -370 -23 -41 -45 -82
-48 -90 -7 -19 1 106 11 180 16 118 -17 246 -78 305 -17 16 -30 34 -30 40 0
17 49 67 112 113 31 23 59 51 63 62 10 32 21 24 36 -27z m172 -196 c51 -126
162 -250 285 -319 85 -49 75 -62 -115 -154 -156 -75 -232 -139 -254 -214 -13
-42 -13 -42 -30 -21 -10 12 -27 46 -38 75 -30 81 -18 111 88 220 l86 89 -62
-46 c-34 -26 -80 -68 -103 -94 l-41 -48 6 70 c4 39 13 79 19 90 21 34 74 196
97 298 13 53 28 97 33 97 6 0 19 -20 29 -43z m-318 -121 c18 -61 19 -130 3
-260 -12 -94 -14 -99 -46 -124 -53 -41 -92 -104 -92 -151 0 -44 -16 -56 -24
-18 -3 12 -10 69 -16 127 -17 155 -32 202 -80 243 -22 19 -40 41 -40 49 0 30
88 115 158 151 38 20 75 44 83 53 12 14 14 14 26 -2 8 -10 20 -41 28 -68z
m-2447 -43 c-10 -2 -28 -2 -40 0 -13 2 -5 4 17 4 22 1 32 -1 23 -4z m-113 -19
c-39 -13 -38 -13 48 -10 85 4 88 3 130 -29 24 -18 68 -64 99 -103 58 -72 218
-205 240 -200 7 1 41 -13 75 -31 l62 -33 -14 -29 c-8 -15 -15 -36 -15 -46 1
-17 2 -16 17 2 15 19 15 19 9 1 -4 -11 -1 -23 6 -27 25 -15 -1 -20 -54 -10
-280 54 -333 68 -334 90 -2 31 -102 179 -143 209 -30 24 -44 27 -108 27 -86 0
-88 3 -44 89 33 66 25 78 -33 51 -53 -25 -122 -90 -168 -157 -22 -33 -48 -68
-57 -77 -9 -9 -34 -38 -55 -64 -39 -48 -42 -72 -6 -49 28 17 95 15 110 -3 7
-8 16 -30 20 -48 l8 -32 1 36 c1 52 -30 89 -77 89 l-36 0 36 38 c19 20 53 62
75 92 22 30 53 66 69 80 l27 25 -25 -35 c-31 -42 -71 -120 -65 -126 2 -2 20
22 40 54 50 80 74 100 46 37 -24 -55 -59 -212 -59 -269 0 -47 10 -41 20 11 l8
38 0 -45 c1 -25 -5 -113 -12 -197 -7 -89 -10 -172 -5 -200 17 -105 6 -98 -21
13 -23 91 -40 217 -40 287 0 26 -7 63 -14 82 -34 82 -126 11 -129 -99 -2 -48
-4 -52 -20 -42 -10 6 -24 31 -32 56 -7 25 -14 37 -14 27 -1 -15 -5 -16 -21 -7
-35 19 -120 -44 -120 -89 0 -10 7 -6 19 13 11 16 33 38 50 49 29 18 33 18 56
3 28 -19 33 -36 9 -36 -8 0 -28 -13 -44 -28 -39 -40 -64 -151 -55 -252 5 -53
4 -72 -4 -65 -20 20 -60 152 -71 236 -6 46 -15 104 -19 127 -8 43 -8 45 36 85
24 22 52 47 61 55 9 8 4 6 -13 -3 -16 -10 -39 -25 -50 -35 -32 -28 -61 -40
-97 -41 -29 0 -37 -7 -70 -58 -21 -32 -53 -93 -71 -137 -59 -138 -127 -266
-201 -376 -65 -100 -96 -130 -96 -93 0 8 -10 20 -22 26 -72 39 -195 22 -338
-46 -105 -50 -97 -42 65 72 122 85 226 165 295 227 77 69 340 346 340 358 0 6
-55 -42 -122 -108 -196 -190 -537 -474 -571 -474 -7 0 -22 9 -32 20 -29 32
-114 43 -282 36 -104 -5 -153 -4 -153 3 0 6 12 13 28 17 295 65 684 236 887
389 155 117 217 174 210 194 -8 27 18 45 175 116 250 114 358 177 458 268 48
43 59 49 88 44 35 -6 47 6 18 17 -9 4 -14 9 -11 12 9 10 69 22 107 22 l35 0
-40 -14z m435 -262 c0 -7 -75 56 -105 89 -16 18 0 6 38 -26 37 -32 67 -60 67
-63z m3687 21 c-3 -10 -5 -4 -5 12 0 17 2 24 5 18 2 -7 2 -21 0 -30z m303 4
c44 -16 44 -16 8 -12 -33 5 -36 4 -31 -15 4 -14 -5 -30 -33 -55 -24 -23 -32
-35 -22 -35 17 0 78 64 78 81 0 14 31 4 118 -38 39 -20 72 -41 72 -47 0 -19
-64 -45 -126 -52 -30 -4 -51 -11 -47 -15 13 -13 133 10 172 32 l33 20 54 -42
c30 -23 73 -64 95 -90 l41 -49 -36 15 c-41 17 -46 18 -46 7 0 -5 18 -17 39
-27 22 -9 54 -33 73 -53 26 -28 28 -32 8 -19 -79 53 -103 61 -210 65 -112 4
-180 -11 -180 -42 0 -31 -133 -102 -148 -79 -4 5 -17 15 -29 22 -13 6 -32 30
-44 52 -13 26 -38 52 -70 71 -27 17 -47 33 -45 35 2 2 28 8 57 12 62 10 235
-1 365 -24 48 -8 94 -15 103 -14 34 2 -48 28 -139 45 -66 12 -103 24 -120 40
-39 34 -85 54 -148 63 -31 5 -48 9 -36 10 31 2 56 24 49 43 -6 15 -8 15 -26
-3 -20 -20 -64 -23 -204 -10 l-70 6 48 14 c27 8 56 25 67 39 11 13 20 20 20
15 0 -6 -7 -16 -15 -23 -9 -7 -13 -15 -10 -18 6 -6 45 28 45 39 0 4 5 20 10
34 l10 27 113 -5 c66 -2 130 -11 157 -20z m-4348 -43 c38 -27 106 -109 127
-154 l12 -25 -18 25 c-41 57 -68 82 -106 101 -55 29 -96 19 -152 -35 -25 -23
-45 -40 -45 -36 0 4 5 33 12 64 10 51 15 60 42 72 47 20 86 17 128 -12z m2588
-27 c0 -72 23 -142 65 -201 41 -58 45 -86 13 -86 -47 0 -110 -42 -155 -103
-56 -77 -113 -178 -135 -242 l-18 -50 4 95 c4 113 24 186 57 211 19 14 22 20
12 30 -22 22 -14 44 38 102 28 32 49 60 46 63 -3 3 -33 -22 -67 -56 -33 -33
-65 -58 -70 -55 -17 10 -11 98 9 140 11 22 31 53 47 69 l28 29 13 -47 c20 -68
31 -62 49 24 3 19 12 48 20 65 7 16 15 38 18 48 11 36 26 15 26 -36z m1840 43
c8 -5 11 -10 5 -10 -5 0 -17 5 -25 10 -8 5 -10 10 -5 10 6 0 17 -5 25 -10z
m60 -25 c17 -9 30 -18 30 -21 0 -4 -59 23 -69 32 -10 9 13 3 39 -11z m182
-125 c54 -48 133 -143 159 -192 18 -33 2 -18 -26 25 -49 73 -108 138 -175 190
-81 63 -94 76 -52 50 19 -11 61 -44 94 -73z m-819 23 c-13 -2 -20 -10 -17 -17
3 -7 -12 -20 -36 -31 -22 -10 -38 -20 -36 -23 8 -7 68 17 91 36 16 14 33 16
94 12 68 -5 73 -6 59 -21 -10 -10 -58 -22 -125 -33 -68 -10 -128 -26 -161 -42
-56 -27 -173 -66 -180 -60 -2 2 24 16 57 31 46 21 63 35 76 62 12 25 14 38 6
46 -16 16 -13 35 7 40 9 3 55 5 102 4 47 0 75 -2 63 -4z m405 -33 c17 -7 32
-19 32 -27 0 -13 -6 -14 -32 -7 -18 5 -79 9 -135 9 l-102 0 22 24 c21 22 27
23 102 18 44 -3 95 -11 113 -17z m-210 -61 c-24 -14 -23 -35 4 -53 l21 -15
-24 -10 c-14 -5 -38 -20 -55 -34 -59 -49 -65 -50 -127 -7 -32 21 -75 41 -98
45 l-40 7 22 18 c27 24 178 55 284 58 25 1 27 0 13 -9z m-4779 -159 c23 -173
42 -248 96 -385 8 -19 6 -18 -17 3 -52 47 -88 22 -114 -83 -21 -85 -30 -69
-16 29 6 39 11 172 11 296 0 124 1 229 1 235 0 5 7 3 14 -5 8 -8 19 -49 25
-90z m-80 -141 c-4 -124 -10 -235 -13 -245 -5 -16 -13 -19 -45 -16 -62 6 -106
-23 -261 -172 -80 -77 -117 -111 -83 -76 34 36 87 101 118 145 59 82 179 322
210 417 18 54 75 182 79 176 1 -2 -1 -105 -5 -229z m4443 114 c-70 -76 -79
-83 -114 -83 -21 0 -58 -5 -83 -12 -32 -9 -48 -9 -56 -1 -11 11 30 40 216 151
62 38 84 46 97 39 14 -9 5 -22 -60 -94z m510 80 c8 -10 29 -44 46 -75 l32 -57
-23 -13 c-12 -7 -44 -18 -70 -24 l-48 -11 -55 44 c-30 24 -54 50 -54 58 0 27
99 94 141 95 9 0 23 -8 31 -17z m-329 -15 c12 -6 39 -25 60 -41 l37 -31 -23
-25 c-13 -14 -38 -47 -56 -73 -18 -27 -34 -48 -37 -48 -3 0 -15 7 -29 16 -13
8 -56 25 -97 38 l-73 22 76 77 c79 79 99 88 142 65z m919 -20 c51 -22 103 -72
140 -137 13 -23 26 -41 30 -41 11 0 -11 48 -45 98 -20 29 -25 47 -19 58 7 12
21 -12 58 -97 27 -62 51 -117 53 -121 2 -5 -16 0 -38 12 -46 23 -50 23 -196
16 -109 -5 -125 1 -125 43 0 15 -20 60 -45 100 -25 41 -43 76 -40 79 11 11 82
19 130 14 28 -2 71 -14 97 -24z m-1216 7 c-11 -8 -22 -12 -25 -9 -6 6 19 24
34 24 6 -1 1 -7 -9 -15z m-61 -31 c-16 -14 -52 -43 -78 -66 -26 -22 -51 -52
-54 -66 -4 -16 -42 -61 -92 -107 -61 -58 -73 -66 -43 -31 43 50 51 73 30 94
-18 18 -28 15 -21 -5 6 -15 4 -16 -8 -6 -8 7 -25 16 -38 21 -22 8 -18 12 50
64 73 55 119 84 119 74 0 -3 -20 -17 -44 -31 -24 -14 -50 -33 -58 -42 -7 -10
7 -5 35 12 48 27 48 27 54 6 3 -11 9 -18 14 -15 5 3 7 15 4 27 -5 19 4 27 67
59 86 43 104 47 63 12z m1043 -66 c36 -54 102 -176 102 -188 0 -6 -17 -10 -37
-10 -21 0 -56 -5 -78 -10 -38 -9 -42 -8 -69 23 -26 30 -28 30 -21 7 4 -14 17
-35 28 -47 11 -13 15 -23 9 -23 -6 0 -19 12 -28 28 -10 15 -32 50 -51 77 -18
28 -33 55 -33 61 0 6 -9 19 -20 29 -11 10 -20 24 -20 30 0 18 109 65 152 65
32 0 41 -5 66 -42z m-499 -28 c49 -56 55 -60 94 -60 24 0 52 7 65 15 12 9 37
22 56 30 l34 15 34 -48 c36 -50 108 -174 108 -186 0 -4 -4 -4 -10 -1 -5 3 -33
-1 -63 -10 -87 -25 -116 -17 -160 46 -20 30 -47 64 -58 77 -21 22 -22 22 -50
5 -15 -10 -42 -37 -58 -61 -40 -55 -63 -54 -118 3 -47 49 -51 69 -27 118 20
38 82 117 93 117 4 0 31 -27 60 -60z m-272 -76 c32 -18 43 -31 39 -42 -53
-165 -67 -176 -172 -140 l-69 24 1 40 c1 21 13 65 28 98 l26 59 51 -6 c28 -4
71 -18 96 -33z m1369 -137 c28 -54 43 -57 25 -6 -6 18 -9 34 -7 36 5 5 106
-144 149 -219 33 -57 52 -72 45 -34 -3 14 -4 26 -2 26 5 0 114 -197 114 -206
0 -5 -13 14 -29 41 -31 55 -112 135 -135 135 -26 0 -26 -17 -1 -84 14 -37 25
-74 24 -84 0 -9 -7 6 -16 33 -19 65 -38 85 -28 30 l7 -40 -30 40 c-77 106
-166 136 -190 65 -6 -15 -8 -31 -5 -34 4 -3 -10 -6 -30 -6 -38 0 -40 2 -52 75
-4 22 -12 46 -17 53 -6 7 -12 38 -14 68 -2 32 -14 78 -28 109 -14 30 -22 56
-18 59 15 8 103 -22 143 -49 58 -41 124 -119 162 -192 30 -59 47 -78 47 -52 0
7 -16 45 -35 85 -25 51 -57 96 -106 146 -61 63 -120 150 -119 175 1 17 122
-125 146 -170z m-1556 153 c0 -5 -4 -19 -9 -32 -5 -13 -17 -44 -26 -71 l-17
-47 -56 2 c-32 1 -67 -2 -79 -6 -43 -14 -17 48 49 120 37 40 45 44 89 44 27 0
49 -4 49 -10z m-191 -49 c-19 -21 -45 -55 -59 -74 -25 -35 -58 -53 -72 -39 -4
4 20 40 53 80 46 55 67 72 86 72 l25 0 -33 -39z m573 -142 l32 -13 60 67 c34
37 64 67 68 67 4 0 25 -34 48 -75 23 -41 50 -80 60 -85 28 -15 103 -12 156 6
25 8 48 14 50 12 2 -2 11 -33 20 -69 9 -35 20 -72 25 -81 6 -11 5 -19 -2 -24
-6 -3 -17 -21 -25 -39 l-13 -32 -67 33 c-36 19 -77 34 -91 34 -13 0 -35 12
-50 26 -22 22 -25 32 -20 77 4 46 3 49 -10 31 -9 -12 -13 -36 -11 -67 l3 -47
-72 0 c-84 0 -106 15 -124 85 -16 65 -23 73 -27 36 -2 -18 4 -56 13 -83 9 -28
15 -51 13 -52 -2 0 -24 -8 -50 -17 l-47 -16 -50 33 c-27 19 -62 50 -77 70 -16
20 -30 32 -32 26 -5 -16 52 -96 90 -126 l33 -25 -40 -18 c-61 -27 -179 -24
-228 5 -45 26 -54 28 -36 5 21 -25 110 -63 148 -63 l33 0 -68 -72 c-87 -94
-115 -104 -234 -84 -46 8 -86 13 -89 11 -12 -13 171 -59 206 -52 29 5 29 4 -2
-79 -30 -81 -50 -101 -110 -109 -38 -6 -158 11 -227 31 -10 3 -18 1 -18 -4 0
-5 33 -20 73 -33 68 -22 157 -29 237 -18 23 4 25 1 24 -32 -2 -57 -36 -94
-122 -136 -72 -34 -85 -37 -190 -41 -120 -5 -131 -16 -27 -27 71 -8 182 13
246 46 24 12 60 39 80 60 l35 38 13 -50 c12 -47 12 -53 -13 -104 -47 -95 -147
-169 -289 -215 -103 -34 -103 -53 1 -26 128 34 241 111 299 201 15 25 34 47
41 50 17 6 52 -12 74 -39 56 -68 -38 -233 -192 -337 -47 -33 -61 -49 -40 -49
21 0 177 129 212 176 21 27 47 77 59 112 l21 62 83 0 c52 0 87 -4 91 -11 4 -7
9 -41 12 -78 5 -76 -35 -262 -68 -316 -24 -39 -26 -52 -4 -34 24 20 51 80 76
166 17 60 22 103 21 186 l0 108 36 26 c20 15 51 40 69 57 52 48 66 28 120
-174 l10 -35 1 40 c1 47 -18 121 -47 189 l-22 48 20 26 c11 14 18 28 14 31 -3
3 -14 -5 -24 -19 l-18 -24 -36 32 c-20 18 -43 32 -51 32 -22 0 -18 13 9 39 14
13 30 36 36 52 7 17 23 32 37 35 72 19 213 -36 278 -107 46 -51 55 -46 16 9
-54 73 -161 132 -243 132 -79 0 -57 57 39 103 62 28 70 30 117 20 28 -6 60
-15 70 -19 35 -14 6 17 -30 32 -48 20 -132 18 -177 -5 l-37 -19 0 27 c0 35 34
89 65 103 14 6 25 15 25 20 0 17 -44 -3 -69 -30 -23 -25 -25 -26 -35 -8 -6 11
-19 28 -29 38 -32 33 -6 48 83 48 43 0 91 -3 108 -6 28 -6 30 -9 26 -38 -5
-29 -1 -33 46 -61 28 -16 60 -39 71 -51 l21 -22 -21 -7 c-29 -9 -26 -24 9 -67
40 -48 60 -98 60 -147 0 -32 -4 -40 -23 -45 -23 -5 -23 -8 -19 -88 7 -141 -57
-366 -122 -428 l-25 -23 -11 27 c-5 15 -10 54 -10 87 0 32 -4 59 -8 59 -12 0
-105 -145 -147 -230 -35 -71 -42 -78 -119 -127 -159 -102 -253 -129 -414 -121
-72 4 -115 12 -167 32 -95 37 -182 94 -194 129 -7 17 -23 33 -45 42 -52 22
-96 91 -96 151 0 43 -5 53 -41 90 -32 32 -44 56 -55 100 -19 82 -18 100 11
142 30 44 31 71 5 114 -21 35 -27 19 -10 -27 8 -20 6 -34 -7 -58 l-17 -32 -7
45 c-9 57 -11 163 -3 184 5 13 16 15 60 10 41 -5 59 -3 79 10 31 21 31 40 1
107 -14 30 -28 78 -32 108 l-7 54 32 -24 c25 -19 48 -24 104 -27 63 -3 75 -1
91 17 18 20 18 22 -2 78 -20 54 -32 156 -20 168 3 3 25 1 49 -4 58 -14 142
-14 171 0 23 10 24 14 20 105 -5 101 -1 107 43 78 29 -19 119 -44 161 -44 39
0 63 26 75 82 5 24 14 55 20 70 l11 27 49 -53 c27 -29 63 -59 81 -67z m905 99
c-3 -8 -6 -5 -6 6 -1 11 2 17 5 13 3 -3 4 -12 1 -19z m-4587 -10 c1 -21 2 -21
11 -5 10 17 44 22 72 11 11 -4 8 -12 -14 -34 -26 -25 -29 -36 -29 -89 0 -42 8
-81 24 -121 14 -33 21 -60 17 -60 -23 0 -95 183 -107 271 -6 41 -4 49 10 49
10 0 16 -9 16 -22z m4524 16 c22 -8 73 -92 95 -156 l19 -55 -93 -7 c-92 -6
-125 -2 -125 15 0 6 8 5 19 -1 11 -5 28 -10 38 -10 13 0 8 6 -14 20 -18 11
-35 30 -38 42 -3 13 -10 46 -15 73 -6 28 -13 58 -16 68 -5 15 2 17 55 17 32 0
66 -3 75 -6z m-2430 -76 c31 -144 31 -138 5 -138 -31 0 -84 -33 -99 -60 -6
-12 -14 -20 -16 -17 -9 9 28 203 46 245 28 63 45 55 64 -30z m-1934 -18 c17
-27 52 -90 76 -139 27 -56 55 -99 74 -112 16 -13 30 -29 30 -36 0 -18 -37 -90
-62 -123 -49 -63 -151 -90 -216 -56 -83 43 -138 167 -99 220 16 23 34 15 112
-49 47 -38 100 -63 112 -52 2 3 -10 26 -26 52 -52 82 -92 231 -77 289 5 21 31
56 41 56 1 0 17 -22 35 -50z m93 31 c17 -7 30 -25 42 -58 9 -26 23 -63 31 -81
8 -18 14 -41 14 -51 0 -10 10 -30 21 -45 27 -34 17 -45 -19 -20 -16 11 -47 61
-77 120 -27 55 -58 113 -69 129 l-18 28 25 -7 c15 -3 37 -10 50 -15z m4135
-42 c7 -28 12 -65 12 -83 0 -32 0 -32 -72 -47 l-73 -14 -23 25 c-19 22 -21 22
-17 5 3 -11 -1 -6 -9 10 -7 17 -17 48 -20 71 -7 40 -7 41 31 52 49 16 112 30
139 31 17 1 23 -8 32 -50z m-1183 15 c20 -5 20 -9 10 -84 -5 -44 -16 -85 -23
-92 -14 -14 -111 -17 -154 -5 -25 7 -26 9 -17 44 22 87 40 122 67 132 30 11
87 13 117 5z m-173 -36 c-5 -7 -22 -47 -37 -88 -22 -63 -26 -87 -22 -147 2
-43 0 -74 -6 -76 -6 -2 -5 -12 3 -26 9 -17 9 -30 1 -47 -12 -28 -44 -31 -95
-10 -55 23 -66 49 -66 149 l0 89 63 65 c62 65 116 102 151 103 13 0 16 -3 8
-12z m-179 -49 c-3 -15 -22 -47 -43 -73 -32 -38 -73 -122 -103 -208 -4 -10
-13 -18 -21 -18 -13 0 -13 5 1 38 31 74 161 297 169 289 1 -1 0 -14 -3 -28z
m1783 -77 c10 -6 37 -152 30 -159 -1 -2 -31 -7 -65 -11 -67 -10 -114 -5 -105
9 3 5 -4 9 -15 9 -13 0 -21 7 -21 18 0 11 -3 13 -8 6 -4 -7 -7 18 -7 56 0 41
4 66 10 64 5 -2 24 0 40 5 37 11 126 13 141 3z m-220 -37 c3 -13 2 -51 -4 -82
-11 -65 -10 -71 24 -83 23 -9 24 -13 24 -104 0 -85 -2 -94 -20 -99 -15 -4 -25
5 -46 42 -15 25 -34 54 -42 64 -14 16 -14 21 2 48 22 38 17 45 -15 20 l-24
-19 -62 58 c-35 32 -63 65 -63 74 0 9 7 30 15 46 11 22 23 30 43 30 15 0 47 7
72 14 68 22 89 20 96 -9z m475 -68 c59 -40 103 -110 136 -217 8 -27 25 17 30
78 4 40 0 69 -11 96 -9 21 -16 46 -16 54 0 23 77 -54 102 -102 23 -45 47 -152
48 -216 1 -41 2 -43 12 -20 9 24 6 128 -7 180 -3 14 6 3 20 -25 26 -49 52
-113 121 -303 l34 -93 -13 -140 c-7 -77 -10 -142 -6 -145 9 -5 29 108 29 161
0 24 4 35 9 30 15 -16 51 -207 51 -272 0 -66 -23 -215 -44 -283 -14 -47 -17
-45 -31 27 -3 18 -16 44 -27 58 -20 26 -20 27 -3 113 21 103 34 133 35 82 0
-19 5 -42 10 -50 7 -11 10 4 10 48 0 48 -4 64 -16 69 -8 3 -19 2 -24 -3 -7 -7
-46 -168 -67 -274 -4 -23 -3 -24 10 -7 8 9 17 17 19 17 16 0 37 -74 39 -135 2
-62 -2 -78 -34 -145 -34 -73 -35 -74 -36 -38 -1 43 -15 83 -36 104 -12 13 -16
12 -27 -8 -28 -51 -56 -129 -42 -117 8 6 14 16 14 22 0 5 10 26 22 45 19 31
22 33 29 16 4 -10 8 -33 8 -51 1 -17 7 -38 15 -46 13 -12 11 -19 -11 -51 -28
-42 -22 -65 7 -26 10 14 22 21 27 17 4 -5 8 -53 8 -106 0 -94 -1 -99 -30 -132
-30 -35 -139 -132 -153 -137 -4 -1 -7 41 -7 93 0 74 -4 98 -16 111 -15 14 -19
14 -45 1 -32 -16 -73 -57 -58 -57 5 0 -2 -9 -16 -20 -14 -11 -19 -20 -12 -20
8 0 25 9 39 20 27 21 53 26 53 11 0 -5 7 -17 16 -26 13 -13 15 -28 9 -79 -6
-58 -9 -65 -49 -99 -24 -19 -61 -43 -82 -53 -35 -15 -36 -18 -16 -21 13 -3 41
4 63 15 35 18 38 18 25 3 -24 -27 -19 -34 10 -15 l26 17 -3 -146 c-2 -81 0
-150 4 -153 4 -4 8 1 8 12 1 10 5 73 9 139 l6 120 2 -110 c1 -60 -3 -139 -8
-175 -8 -62 -11 -67 -66 -117 -49 -45 -137 -94 -148 -82 -2 2 7 51 21 109 31
133 36 283 11 322 -15 23 -16 31 -2 89 18 75 22 176 11 236 -8 40 -7 43 18 49
24 6 26 10 22 43 -3 27 4 54 29 106 18 39 40 79 49 90 14 17 17 18 25 5 17
-26 11 -39 -30 -66 -64 -42 -46 -55 20 -15 55 33 58 38 47 80 -8 30 -8 43 2
55 17 20 31 11 31 -20 0 -13 5 -24 10 -24 15 0 12 61 -6 113 -16 47 -16 49 10
101 37 75 50 84 66 46 18 -43 30 -37 30 15 0 31 -5 47 -15 51 -9 4 -15 19 -15
38 0 17 -9 64 -20 105 -11 41 -20 89 -20 106 0 65 -13 127 -28 132 -8 4 -22
-4 -33 -18 l-19 -24 6 35 c3 19 12 55 19 80 8 25 17 62 21 82 3 21 10 36 14
33 8 -5 40 -135 55 -219 4 -24 10 -35 14 -28 5 9 12 3 20 -15 29 -63 32 -87
14 -155 -13 -50 -14 -71 -6 -79 8 -8 13 -1 17 28 8 44 26 80 26 51 0 -9 5 -20
11 -24 9 -5 10 6 5 37 -4 30 -1 61 10 94 20 62 33 332 15 321 -6 -4 -11 -31
-12 -59 l0 -52 -26 50 c-14 28 -28 68 -32 90 -6 37 -27 54 -25 20 0 -8 2 -45
3 -82 2 -64 3 -66 15 -39 l13 28 15 -38 c9 -22 19 -63 23 -91 7 -54 -2 -153
-13 -153 -11 0 -72 136 -72 161 -1 13 -13 62 -28 109 -20 62 -34 88 -49 95
-18 7 -23 21 -29 71 -3 34 -3 68 1 74 4 7 11 35 15 64 l7 51 33 -68 c29 -62
32 -74 26 -128 -7 -58 5 -83 18 -36 16 60 6 120 -30 186 -39 71 -62 101 -76
101 -4 0 -8 -37 -9 -82 -1 -46 -4 -73 -7 -60 -4 13 -11 23 -15 22 -4 0 -20 14
-34 31 -31 37 -86 63 -114 54 -12 -4 -22 -22 -29 -48 -6 -23 -16 -55 -23 -71
l-13 -28 -33 66 c-39 77 -47 75 -82 -12 -12 -31 -33 -79 -47 -106 -20 -42 -26
-47 -34 -32 -11 20 -3 82 17 119 19 37 48 217 43 272 -3 48 -2 49 52 39 l32
-7 -6 -68 c-4 -38 -4 -69 -1 -69 16 0 35 76 36 147 1 43 4 81 6 86 8 14 40 7
74 -16z m-2109 -154 c-1 -87 3 -173 9 -191 6 -18 9 -35 7 -38 -3 -2 -26 -7
-53 -11 l-48 -6 7 83 c4 46 11 104 16 129 17 80 53 202 58 197 2 -3 4 -76 4
-163z m1231 135 c39 -12 66 -26 64 -32 -5 -12 -10 -12 -86 3 -29 6 -76 11
-102 11 -53 0 -57 4 -32 32 19 21 49 19 156 -14z m-3638 -26 c-3 -21 -1 -67 4
-102 6 -36 20 -146 31 -245 23 -190 50 -343 75 -416 l15 -44 -23 26 c-12 14
-53 52 -92 83 -86 71 -115 104 -115 132 0 28 48 49 95 41 49 -8 45 7 -21 74
-50 51 -57 63 -61 106 -4 36 2 65 22 118 38 98 55 163 55 211 0 37 6 54 18 54
2 0 1 -17 -3 -38z m3428 9 c9 -34 -15 -40 -68 -17 l-30 13 35 11 c51 15 57 14
63 -7z m-1147 -44 c-7 -21 -20 -46 -29 -55 -16 -15 -17 -15 -17 1 0 17 50 101
56 94 2 -1 -3 -20 -10 -40z m-1649 27 c-3 -3 -12 -4 -19 -1 -8 3 -5 6 6 6 11
1 17 -2 13 -5z m3463 -10 c0 -2 -7 -4 -15 -4 -8 0 -15 4 -15 10 0 5 7 7 15 4
8 -4 15 -8 15 -10z m-246 -83 c26 -24 56 -77 56 -99 0 -18 -92 15 -113 40 -18
20 -55 50 -106 85 -7 5 23 35 44 43 21 8 56 -13 119 -69z m441 -23 c-4 -51 -9
-96 -12 -100 -6 -12 -97 -10 -129 2 -24 9 -25 9 -14 -5 11 -13 10 -14 -4 -9
-9 3 -16 11 -17 18 0 6 -3 44 -5 84 l-4 72 42 1 c24 0 63 6 88 13 25 8 49 14
54 15 4 0 5 -41 1 -91z m-920 53 c71 -40 81 -139 26 -256 -38 -82 -78 -125
-151 -164 -139 -74 -270 -45 -294 65 -20 89 86 293 175 339 85 44 183 51 244
16z m-1121 -83 c-5 -31 -4 -32 10 -14 19 23 36 13 36 -24 0 -19 -9 -36 -27
-50 l-28 -22 -3 57 c-3 55 1 85 12 85 3 0 3 -15 0 -32z m-44 -75 c0 -57 -1
-59 -49 -100 -28 -24 -52 -43 -55 -43 -13 0 -5 72 12 98 23 38 75 100 85 101
4 1 7 -25 7 -56z m1675 -5 c44 -20 65 -75 65 -170 0 -46 -3 -107 -7 -136 l-6
-53 -27 58 c-17 36 -30 83 -33 125 -7 75 -16 99 -56 141 -22 24 -23 29 -11 37
20 13 44 12 75 -2z m95 -23 c0 -5 -5 -3 -10 5 -5 8 -10 20 -10 25 0 6 5 3 10
-5 5 -8 10 -19 10 -25z m245 5 c13 -6 15 -9 5 -9 -8 0 -22 4 -30 9 -18 12 -2
12 25 0z m-1939 -27 c-2 -10 -8 -58 -11 -107 -8 -102 -19 -97 -29 14 -6 70 -5
76 16 92 29 22 30 22 24 1z m1844 7 c14 -9 10 -45 -19 -145 -8 -28 -9 -29 -10
-5 -1 14 -10 49 -20 78 -18 52 -18 53 3 67 24 17 26 18 46 5z m459 -10 c10 -5
31 -26 46 -47 l28 -38 -36 34 c-21 20 -42 31 -51 28 -18 -7 -59 -68 -81 -120
-22 -54 -3 -38 40 33 20 33 42 60 49 60 14 0 69 -56 85 -87 6 -12 13 -44 16
-70 2 -26 5 -55 6 -63 1 -8 1 -31 0 -50 l-3 -35 -9 38 c-13 54 -46 115 -70
127 -25 14 -49 6 -49 -16 0 -18 -51 -104 -61 -104 -3 0 -16 25 -28 56 l-21 55
35 66 c19 37 40 84 47 105 11 39 25 46 57 28z m-326 -53 c-8 -28 -19 -61 -24
-74 -14 -36 -11 -69 7 -84 26 -22 72 -94 80 -125 l6 -29 -17 25 c-29 40 -78
90 -90 90 -6 0 -27 14 -48 31 -27 22 -37 38 -37 59 0 34 21 131 31 145 4 6 30
10 57 11 l50 0 -15 -49z m-241 -39 c20 -63 23 -94 23 -228 -1 -159 -4 -176
-61 -376 -14 -48 -18 -53 -66 -74 -63 -27 -151 -29 -197 -5 l-32 16 45 37 c93
77 216 245 216 295 0 15 10 56 22 90 18 51 22 85 22 190 0 70 1 127 3 127 1 0
13 -33 25 -72z m411 -48 c0 -27 -25 -86 -64 -149 l-21 -34 -24 39 c-13 21 -26
44 -29 51 -4 6 15 55 41 107 l47 96 25 -42 c14 -23 25 -54 25 -68z m-2206 18
l11 -83 -26 -22 c-15 -12 -39 -29 -54 -37 l-27 -16 -6 57 c-4 32 -12 64 -18
71 -8 10 3 25 43 62 29 28 55 50 59 50 4 0 12 -37 18 -82z m-177 -32 l-32 -31
28 55 c24 47 29 52 32 31 3 -17 -6 -33 -28 -55z m44 -60 c9 -30 16 -61 16 -69
0 -9 -27 -36 -59 -61 -57 -44 -59 -45 -65 -23 -3 12 -6 42 -6 67 0 40 5 49 47
92 26 26 48 48 49 48 2 0 10 -24 18 -54z m-3446 -50 c84 -92 150 -238 271
-598 141 -418 203 -559 328 -750 58 -89 171 -195 217 -203 51 -10 92 3 121 37
14 16 25 23 25 16 0 -19 -38 -54 -74 -68 -36 -13 -92 -3 -131 23 -24 17 -27
18 -16 3 22 -27 86 -56 124 -56 20 0 46 9 61 21 l26 20 -2 -193 -2 -193 -6
180 c-6 216 -20 180 -20 -54 0 -394 102 -666 311 -832 65 -51 55 -27 -19 47
-38 38 -88 98 -110 132 -42 65 -96 184 -107 237 -3 17 9 -8 27 -55 88 -224
232 -373 478 -498 92 -46 75 -47 -30 -1 -36 16 -56 22 -45 13 32 -24 175 -91
250 -116 38 -12 63 -24 57 -26 -7 -2 -12 -10 -12 -19 0 -10 6 -12 23 -7 32 10
49 25 43 41 -4 10 1 12 22 7 15 -4 29 -8 30 -10 10 -7 -85 -64 -117 -70 -87
-17 -309 48 -449 131 -155 92 -285 224 -421 425 -253 377 -399 785 -566 1584
-58 277 -101 428 -167 586 -56 131 -89 186 -155 260 -32 35 -48 58 -37 52 12
-6 44 -36 72 -66z m5556 -1 c41 -22 46 -44 19 -100 -14 -30 -15 -41 -4 -70
l12 -35 -72 -82 c-39 -46 -75 -86 -78 -91 -4 -4 1 32 12 80 12 59 19 134 20
228 l2 140 26 -25 c14 -14 42 -34 63 -45z m-4322 32 c-47 -50 -22 -113 75
-185 37 -28 91 -74 118 -102 l50 -52 -55 34 c-87 55 -277 137 -344 149 -33 6
-95 14 -136 16 -83 6 -95 12 -105 50 -8 32 0 40 47 48 33 6 37 5 40 -16 2 -14
11 -25 23 -28 20 -3 20 -3 1 18 -17 19 -18 23 -5 36 8 7 40 20 72 28 l57 15 0
-25 c0 -29 14 -59 43 -90 34 -38 39 -26 7 19 -34 46 -38 82 -12 97 9 6 46 11
81 11 l64 0 -21 -23z m4001 -34 c27 -61 28 -145 3 -193 -11 -19 -39 -60 -64
-90 -26 -30 -49 -58 -52 -63 -3 -4 6 31 22 78 35 107 51 200 46 265 -4 66 16
67 45 3z m738 14 c12 -21 11 -21 -8 -4 -11 9 -23 14 -26 10 -4 -3 -7 -2 -7 4
0 30 23 24 41 -10z m-1211 -12 c20 -24 6 -58 -38 -92 -70 -53 -84 -53 -146 3
-43 39 -50 50 -37 56 153 65 154 66 182 56 15 -5 33 -16 39 -23z m-1146 -22
c9 -26 16 -50 16 -54 0 -4 -25 -21 -56 -39 -63 -35 -68 -33 -78 33 -5 29 -3
43 6 48 7 4 29 19 48 33 19 14 38 25 42 26 3 0 13 -21 22 -47z m2176 33 c0 -2
-7 -7 -16 -10 -8 -3 -12 -2 -9 4 6 10 25 14 25 6z m186 -72 c20 -45 25 -72 24
-133 -1 -148 0 -171 10 -171 10 0 14 7 45 85 21 52 29 38 45 -85 16 -111 17
-141 6 -195 -7 -37 -6 -39 8 -21 30 37 16 2 -21 -53 -21 -31 -40 -60 -44 -64
-4 -5 -12 15 -19 45 -7 29 -19 60 -27 69 -15 18 -24 116 -23 259 0 85 -18 149
-46 157 -6 2 -31 -33 -55 -79 -66 -123 -89 -115 -49 15 21 68 55 107 91 107
28 0 24 44 -6 68 -24 19 -25 35 0 26 7 -3 15 2 18 10 10 26 17 19 43 -40z
m-6956 7 c69 -16 149 -38 177 -49 77 -29 169 -99 265 -202 145 -153 242 -318
348 -590 155 -396 186 -473 232 -565 53 -107 135 -235 150 -235 5 0 -6 24 -25
53 -97 152 -161 296 -297 662 -118 319 -213 506 -324 640 l-41 49 45 -32 c41
-29 113 -88 83 -68 -8 5 -13 4 -13 -2 0 -29 293 -266 368 -298 45 -18 122 -18
149 1 27 19 24 30 48 -175 26 -225 88 -560 102 -547 2 2 -10 87 -26 188 -35
217 -49 331 -55 454 l-5 90 23 -110 c29 -132 39 -199 26 -170 -26 59 -4 -64
61 -336 131 -555 291 -931 530 -1246 77 -101 256 -278 337 -333 46 -31 51 -38
46 -62 -3 -16 -3 -28 1 -28 8 0 44 42 45 51 0 3 -32 28 -72 54 -93 62 -252
216 -339 328 -184 238 -335 548 -439 903 -22 75 -40 142 -39 148 0 6 26 -68
58 -164 215 -650 488 -1055 843 -1251 29 -16 45 -29 36 -29 -25 0 -58 -36 -58
-62 0 -29 81 -106 152 -143 31 -16 55 -31 53 -33 -6 -6 -171 81 -243 130 -103
69 -236 183 -328 281 -183 193 -313 375 -616 867 -316 512 -488 772 -683 1035
-272 367 -559 643 -782 751 -121 59 -123 74 -5 74 60 0 125 -9 212 -29z m6780
9 c9 -17 5 -22 -39 -45 -28 -14 -53 -25 -56 -25 -11 0 -3 26 15 50 17 21 19
22 15 5 -5 -16 -1 -14 16 8 27 32 35 33 49 7z m-1272 -41 c24 -17 42 -39 42
-50 0 -17 -7 -19 -57 -19 -32 0 -63 4 -69 8 -5 4 -19 26 -31 50 l-20 42 46 0
c37 0 56 -7 89 -31z m1117 1 c21 -41 19 -65 -10 -84 -31 -21 -34 -20 -44 6 -9
24 14 108 30 108 5 0 15 -13 24 -30z m-6978 -16 c129 -42 296 -129 347 -180
26 -25 45 -48 43 -51 -3 -2 -36 16 -73 40 -126 81 -275 144 -363 153 -88 10
-177 -17 -223 -66 -21 -21 -38 -50 -38 -62 0 -19 -2 -20 -10 -8 -14 22 -12 87
4 118 47 92 150 110 313 56z m4617 -82 c-20 -26 -38 -49 -40 -51 -4 -4 37 117
52 154 7 17 9 14 16 -18 7 -33 4 -42 -28 -85z m194 67 c11 -46 10 -53 -5 -64
-10 -7 -38 -29 -63 -49 -51 -40 -58 -36 -59 41 -1 39 2 45 52 82 28 23 55 41
58 41 3 0 11 -23 17 -51z m-2563 -20 c112 -13 122 -16 130 -41 6 -19 8 -20 12
-5 6 22 26 22 106 -3 l65 -20 -5 -43 c-3 -35 2 -53 31 -102 44 -74 46 -68 5
18 -25 55 -28 69 -19 87 15 28 40 22 137 -31 l71 -39 -5 -93 c-6 -105 17 -238
66 -382 26 -76 48 -176 36 -164 -3 3 -30 55 -61 114 -62 122 -129 235 -182
310 -42 58 -243 267 -287 297 -18 13 -5 -5 31 -43 59 -62 173 -198 226 -269
24 -31 25 -37 12 -54 -8 -11 -14 -34 -13 -50 l1 -31 9 33 c11 38 38 43 58 10
26 -41 111 -189 111 -194 0 -2 -11 2 -25 8 -17 7 -29 8 -35 2 -6 -6 -15 -62
-21 -125 -15 -153 -18 -155 -49 -33 -68 262 -184 494 -324 643 -17 18 -75 72
-129 118 -73 63 -95 88 -85 94 7 5 22 7 33 4 11 -4 56 -10 100 -16z m4899 6
c-4 -8 -12 -15 -19 -15 -7 0 -23 -8 -36 -18 -25 -19 -79 -38 -63 -22 8 8 115
69 121 70 1 0 0 -7 -3 -15z m-2178 -19 c4 -17 -5 -39 -32 -80 -21 -31 -41 -56
-44 -56 -3 0 -13 23 -22 51 l-17 50 47 30 c56 35 60 35 68 5z m2133 -78 c-54
-131 -80 -225 -109 -383 -41 -222 -44 -244 -31 -225 13 21 44 145 77 315 28
141 45 165 25 35 -14 -88 -15 -311 -1 -290 5 8 10 40 11 70 l1 55 10 -60 c5
-33 7 -116 5 -185 -5 -144 -31 -242 -93 -346 -63 -107 -87 -129 -45 -41 66
133 117 335 109 425 -4 44 -6 38 -33 -103 -52 -280 -230 -550 -437 -664 l-43
-24 61 64 c111 116 201 278 279 500 50 145 41 168 -14 33 -65 -161 -114 -260
-172 -349 -58 -90 -174 -208 -239 -244 l-43 -24 52 67 c138 181 270 459 331
696 19 75 26 129 15 118 -3 -3 -19 -50 -34 -104 -84 -290 -223 -576 -345 -712
-48 -53 -133 -109 -176 -117 -35 -6 -36 -6 -47 37 l-11 43 52 60 c97 110 167
218 247 380 76 154 293 675 284 683 -7 7 -72 -131 -165 -353 -105 -250 -196
-435 -270 -547 -73 -110 -165 -207 -218 -229 -24 -11 -46 -19 -48 -19 -8 0 18
44 41 70 101 112 250 403 359 701 24 68 48 133 52 143 5 13 4 17 -3 13 -6 -4
-33 -62 -58 -130 -137 -355 -250 -567 -391 -733 -36 -43 -50 -52 -86 -57 -23
-3 -44 -4 -46 -2 -2 2 19 37 47 79 115 170 234 434 305 675 51 176 43 183 -13
11 -83 -252 -158 -412 -301 -643 -65 -107 -74 -117 -101 -117 -71 0 -138 55
-125 104 3 13 21 45 41 72 105 148 215 342 286 505 41 95 109 283 109 302 0
26 -21 -14 -55 -108 -60 -162 -167 -371 -267 -518 -135 -200 -158 -239 -158
-262 0 -19 -6 -20 -93 -20 -186 1 -197 3 -197 26 0 50 -14 58 -93 52 -41 -3
-98 -3 -128 1 -48 6 -56 11 -69 39 -10 20 -30 39 -57 52 -39 19 -133 100 -133
115 0 4 28 2 61 -3 69 -11 187 1 277 28 70 21 63 28 -8 9 -30 -8 -96 -18 -146
-21 -77 -5 -101 -2 -157 16 -37 13 -67 27 -67 33 0 6 7 7 18 2 9 -4 52 -16 95
-27 93 -24 135 -19 335 44 68 22 130 39 137 39 21 0 19 -16 -3 -32 -59 -42
-74 -139 -31 -197 23 -32 26 -33 80 -28 124 11 252 108 364 276 85 128 144
247 250 497 92 219 132 294 91 169 -5 -15 -2 -13 15 7 l23 28 21 -38 c30 -54
93 -86 172 -86 45 0 59 -3 47 -9 -24 -14 -113 -3 -159 19 -21 10 -50 34 -62
53 -13 19 -23 28 -23 20 0 -22 37 -77 59 -89 12 -6 21 -18 21 -28 1 -16 2 -15
14 1 12 15 18 17 36 7 28 -15 134 -17 151 -3 8 6 32 16 54 23 55 17 109 45
125 65 22 27 3 28 -33 1 -31 -24 -106 -56 -131 -56 -6 0 16 13 49 29 33 15 84
49 113 75 34 32 52 42 52 32 0 -30 15 -15 54 54 22 39 53 79 70 90 17 11 49
33 70 50 21 16 46 30 55 30 9 0 27 9 41 20 38 30 42 24 19 -32z m-2436 -10 c6
-50 5 -53 -36 -99 -23 -26 -46 -46 -52 -45 -5 2 -14 18 -19 38 -8 32 -5 39 39
96 27 34 51 62 55 62 4 0 10 -23 13 -52z m188 -23 c11 -28 19 -57 19 -65 0 -9
-27 -39 -60 -68 l-59 -52 -15 28 c-8 16 -20 50 -27 75 -11 46 -11 47 21 74 47
40 84 63 94 60 4 -1 17 -25 27 -52z m2427 19 c3 -15 1 -17 -9 -7 -10 10 -16
10 -27 0 -13 -10 -14 -9 -3 11 14 27 34 24 39 -4z m-2208 -224 c46 -86 183
-225 270 -273 215 -117 502 -112 687 13 25 17 47 29 49 27 8 -8 -148 -309
-206 -397 -110 -166 -251 -284 -311 -261 -13 5 -32 18 -42 29 -17 18 -17 23
-3 49 14 27 60 73 118 115 23 17 23 18 4 33 -37 29 -123 19 -278 -32 -122 -39
-158 -47 -245 -51 -89 -4 -108 -2 -146 17 -58 28 -127 88 -127 111 0 11 19 29
53 48 59 34 132 105 123 120 -4 7 -20 6 -46 0 -70 -18 -220 22 -220 58 0 8 11
63 24 122 41 180 107 346 179 451 l30 44 26 -79 c15 -44 42 -108 61 -144z
m2197 52 c-4 -107 -19 -225 -33 -262 -12 -32 -25 20 -29 117 -3 54 -13 121
-22 149 -18 56 -13 83 17 91 10 3 27 17 36 31 15 22 18 23 26 8 5 -9 7 -69 5
-134z m-2548 -31 c12 -22 9 -27 -40 -77 -29 -30 -57 -54 -60 -54 -4 0 -13 26
-19 58 -6 31 -14 66 -16 78 -4 14 9 36 42 73 l47 53 17 -54 c9 -29 22 -64 29
-77z m2464 -87 c1 -68 -1 -77 -26 -101 l-27 -28 -2 70 c-1 89 3 188 9 198 3 5
14 -8 25 -29 14 -26 20 -58 21 -110z m-6043 -4 l45 -42 -50 40 c-27 23 -70 60
-95 82 l-45 42 50 -40 c28 -22 70 -59 95 -82z m3672 75 c-18 -50 -26 -55 -42
-26 -8 16 -4 24 23 45 17 14 33 26 34 26 1 0 -5 -20 -15 -45z m-233 -75 c19
-70 19 -90 3 -90 -9 0 -82 96 -82 107 0 8 52 64 56 60 1 -1 12 -36 23 -77z
m3194 -83 c1 -88 -4 -142 -17 -195 -21 -85 -36 -101 -36 -40 0 24 -9 61 -19
83 -18 40 -18 40 10 124 16 46 32 106 35 134 11 84 25 29 27 -106z m-3008 97
c15 -23 15 -29 2 -69 -14 -40 -75 -134 -88 -135 -8 0 -49 88 -49 106 0 15 97
124 110 124 4 0 15 -12 25 -26z m2555 -113 c5 -11 10 -34 10 -52 0 -18 5 -47
12 -65 10 -28 9 -35 -11 -59 -30 -39 -17 -44 21 -9 18 16 7 1 -25 -33 -31 -34
-70 -88 -85 -121 -28 -59 -28 -59 -50 -41 -12 9 -22 23 -22 31 0 7 27 92 60
188 33 96 60 175 60 177 0 11 21 -1 30 -16z m-5793 -23 c-3 -8 -6 -5 -6 6 -1
11 2 17 5 13 3 -3 4 -12 1 -19z m5679 -50 c17 -37 17 -37 -19 -113 -20 -41
-37 -75 -39 -75 -6 0 -10 209 -4 219 14 22 45 6 62 -31z m-2476 -24 c-10 -44
-14 -48 -29 -31 -9 11 -6 20 10 41 11 14 22 26 24 26 1 0 -1 -16 -5 -36z
m2970 -155 c5 -45 11 -83 13 -86 5 -4 56 109 59 128 0 8 4 -8 7 -36 4 -27 3
-60 -1 -73 -5 -13 -8 -47 -8 -75 0 -29 -13 -97 -30 -152 l-30 -100 6 65 c5 62
-8 186 -22 199 -9 9 -44 -39 -44 -62 0 -20 0 -20 14 -2 17 23 15 36 20 -145 2
-63 4 -119 5 -124 0 -5 11 -1 22 10 l21 19 -7 -35 c-8 -37 -86 -235 -110 -279
-26 -48 -17 6 11 60 14 28 23 56 21 62 -2 7 -11 -3 -21 -20 -23 -45 -28 -41
-11 8 31 86 42 302 17 343 -2 5 -5 52 -6 105 -1 62 -7 106 -16 125 -14 28 -13
33 15 90 44 89 46 92 57 72 5 -8 13 -52 18 -97z m-4562 76 c-3 -3 -9 2 -12 12
-6 14 -5 15 5 6 7 -7 10 -15 7 -18z m-835 -80 c36 -112 84 -474 97 -730 13
-265 43 -422 94 -496 30 -43 68 -56 101 -35 23 15 23 15 30 -42 9 -73 48 -188
93 -275 64 -124 213 -239 407 -316 41 -16 89 -25 153 -29 51 -2 95 -8 97 -13
3 -4 -19 -20 -50 -34 -63 -31 -65 -31 -275 32 -352 106 -553 282 -650 570 -53
160 -63 258 -61 618 2 378 -15 585 -64 790 -12 48 10 17 28 -40z m877 5 c11
-22 18 -40 15 -40 -2 0 -14 18 -25 40 -11 22 -18 40 -15 40 2 0 14 -18 25 -40z
m40 -70 c6 -11 8 -20 6 -20 -3 0 -10 9 -16 20 -6 11 -8 20 -6 20 3 0 10 -9 16
-20z m1658 -3 c56 2 62 0 51 -13 -7 -9 -31 -25 -53 -36 -23 -11 -49 -27 -58
-35 -19 -17 -22 -10 -31 65 -3 27 -1 32 12 25 9 -4 44 -7 79 -6z m2299 -136
l22 -28 -30 -22 c-18 -13 -45 -54 -66 -99 l-37 -77 -13 33 c-11 28 -11 37 3
65 41 79 86 157 93 157 4 0 17 -13 28 -29z m-2948 -155 c46 -27 109 -76 141
-108 32 -32 65 -58 74 -58 9 0 19 -12 23 -27 10 -35 10 -216 1 -303 -4 -36 -7
-73 -7 -84 -1 -12 -6 -16 -16 -13 -8 4 -17 2 -20 -4 -4 -5 -20 2 -37 16 -40
34 -77 53 -161 81 -38 13 -76 29 -83 35 -8 7 -14 31 -15 58 0 41 -1 43 -10 21
-7 -17 -7 -37 0 -61 12 -38 34 -53 116 -79 59 -19 110 -46 149 -80 32 -29 35
-30 51 -13 17 16 17 16 10 -7 -11 -36 -10 -36 -57 2 -62 50 -104 73 -181 98
-38 12 -79 32 -93 44 -25 21 -25 24 -28 191 -3 142 -7 185 -28 263 -13 50 -20
92 -16 92 5 0 14 11 20 25 l11 25 36 -33 c20 -18 74 -54 120 -81z m3141 95 c0
-5 3 -17 7 -27 6 -15 4 -15 -14 2 -20 19 -21 34 -2 34 5 0 9 -4 9 -9z m246
-67 c14 -53 -3 -217 -31 -302 -14 -46 -24 -90 -22 -97 5 -12 -51 -90 -59 -82
-3 2 7 51 20 108 35 149 42 236 22 284 -15 34 -15 40 -2 54 12 12 18 12 31 1
21 -17 32 -4 17 21 -13 20 -9 39 8 39 5 0 13 -12 16 -26z m-442 -36 c4 -29 0
-96 -6 -148 l-13 -95 -35 -6 c-19 -3 -57 -17 -85 -31 -27 -14 -67 -31 -89 -36
-38 -11 -38 -11 -20 10 11 11 39 32 64 46 61 34 70 48 70 105 0 39 6 57 28 86
16 20 34 45 40 56 10 18 11 18 13 -10 0 -16 5 -41 10 -55 6 -17 8 -1 6 53 -3
87 9 104 17 25z m-5697 -543 c275 -445 417 -660 533 -805 380 -475 793 -718
1229 -721 76 0 91 -2 71 -11 -16 -6 -93 -8 -210 -5 -154 5 -203 10 -289 31
-261 66 -471 189 -700 411 -305 296 -505 616 -841 1345 -67 146 -126 269 -131
275 -5 5 -9 14 -9 20 1 15 101 -141 347 -540z m3462 447 c31 -31 71 -69 90
-84 32 -25 34 -28 22 -56 -7 -17 -23 -40 -37 -53 -29 -28 -31 -44 -3 -29 11 6
34 32 50 58 16 25 29 42 29 36 0 -32 -92 -129 -152 -160 -47 -24 -79 -31 -77
-16 1 4 1 9 0 12 -18 50 -37 149 -31 160 17 33 19 88 6 138 l-13 52 30 0 c24
0 42 -13 86 -58z m2578 36 c21 -44 21 -55 -2 -184 -40 -219 -46 -241 -80 -274
l-31 -30 4 194 c3 129 1 200 -7 214 -9 18 -7 23 23 41 41 26 62 27 75 4 10
-17 10 -17 11 -1 0 9 -4 20 -10 23 -12 7 -13 35 -2 35 5 0 13 -10 19 -22z
m-2949 -11 c20 -12 55 -31 76 -42 21 -11 61 -40 88 -65 55 -50 67 -84 67 -195
1 -86 -6 -105 -38 -105 l-26 -1 25 -14 c35 -20 38 -19 49 18 l9 32 1 -30 c1
-46 -11 -60 -39 -45 -29 16 -107 7 -178 -20 -29 -11 -65 -20 -81 -20 -28 0
-28 1 -20 43 13 67 10 226 -6 301 -14 65 -13 70 5 94 11 13 20 35 20 48 0 29
1 29 48 1z m2452 13 c0 -5 -7 -10 -16 -10 -8 0 -12 5 -9 10 3 6 10 10 16 10 5
0 9 -4 9 -10z m-5333 -62 c-3 -8 -6 -5 -6 6 -1 11 2 17 5 13 3 -3 4 -12 1 -19z
m5331 -31 c3 -42 1 -47 -27 -62 -42 -21 -101 -74 -123 -110 l-18 -30 0 51 c0
27 -4 54 -10 60 -6 6 13 32 57 74 37 36 61 57 54 48 -19 -25 2 -23 24 2 27 30
40 20 43 -33z m-5321 -9 c-3 -8 -6 -5 -6 6 -1 11 2 17 5 13 3 -3 4 -12 1 -19z
m5681 -39 c-3 -8 -7 -3 -11 10 -4 17 -3 21 5 13 5 -5 8 -16 6 -23z m-5671 -1
c-3 -8 -6 -5 -6 6 -1 11 2 17 5 13 3 -3 4 -12 1 -19z m5070 -86 c-32 -33 -35
-47 -7 -32 16 9 20 7 25 -13 4 -12 5 -49 3 -82 l-3 -59 -40 -9 c-79 -16 -120
-30 -147 -49 l-28 -19 0 43 c0 24 -4 50 -9 58 -8 11 4 23 52 52 34 20 87 60
117 87 61 55 78 66 37 23z m-1473 -13 c74 -2 77 -2 29 -8 -65 -8 -80 -21 -25
-21 23 0 42 -5 42 -10 0 -18 -41 -134 -52 -148 -9 -10 -16 -4 -35 27 -25 43
-103 105 -153 122 l-31 11 26 28 c26 27 27 27 72 14 26 -8 83 -15 127 -15z
m1852 0 c28 -31 25 -192 -5 -315 l-22 -90 -139 -2 c-77 -2 -140 -1 -140 2 0 3
13 38 29 78 39 100 55 172 48 222 l-6 43 78 26 c43 15 85 27 93 27 23 0 45
-31 54 -75 7 -37 8 -38 12 -11 5 39 -5 73 -28 96 -14 14 -16 20 -7 20 8 0 22
-9 33 -21z m-2041 -68 c69 -31 105 -68 105 -107 0 -48 -21 -94 -67 -145 -21
-23 -31 -39 -23 -35 8 5 0 -7 -18 -25 -40 -41 -52 -31 -52 46 0 68 -19 215
-30 234 -6 11 -3 22 7 33 20 22 28 22 78 -1z m380 -7 c33 -8 85 -18 115 -22
l55 -7 18 -50 17 -50 -4 40 c-3 22 -8 51 -12 64 -5 17 -4 22 4 17 25 -15 44
-115 37 -189 -4 -40 -9 -75 -12 -80 -2 -4 -32 18 -66 48 -70 63 -163 112 -231
121 -26 4 -45 10 -43 13 2 3 14 30 28 58 13 29 26 53 29 53 3 0 33 -7 65 -16z
m1402 -21 c6 -25 -47 -266 -61 -281 -3 -2 -18 0 -35 6 -21 7 -49 7 -93 0 -35
-6 -80 -8 -100 -4 -36 7 -38 9 -38 46 0 32 6 43 33 63 44 33 90 47 152 47 61
0 71 9 81 68 9 60 24 62 24 5 1 -39 3 -44 11 -30 6 10 9 38 7 63 -4 49 8 59
19 17z m-1080 -24 c41 -17 43 -19 14 -14 -18 3 -39 5 -47 5 -7 0 -20 7 -28 16
-20 20 -22 41 -2 24 8 -6 36 -20 63 -31z m-810 -4 c11 -11 17 -51 23 -143 13
-190 -7 -235 -132 -298 -67 -34 -54 -43 16 -11 31 14 56 24 56 22 0 -8 -114
-62 -152 -73 l-37 -10 -6 61 c-9 89 18 280 43 305 11 11 23 37 26 59 9 52 13
56 76 80 69 26 68 26 87 8z m2571 -42 c-6 -74 -72 -247 -102 -267 l-22 -14 18
51 c9 29 17 82 18 118 0 63 2 69 42 118 23 28 44 51 46 51 2 0 2 -26 0 -57z
m-1402 2 c3 -14 3 -40 0 -58 -3 -17 -8 -50 -12 -72 -14 -101 -16 -102 -107
-51 -82 45 -165 69 -231 64 l-54 -3 -5 55 c-3 30 -5 55 -4 56 1 1 25 -2 52 -6
28 -4 112 -5 188 -2 113 4 141 2 148 -9 6 -10 9 -7 9 13 0 17 -6 28 -17 31
-14 4 -13 5 4 6 16 1 24 -6 29 -24z m1454 -15 c0 -35 -27 -117 -47 -145 -14
-19 -14 -18 -10 15 3 19 10 53 15 75 6 22 14 53 17 68 7 35 25 26 25 -13z
m-1090 -84 l-12 -57 -31 8 c-52 13 -170 5 -231 -15 l-55 -19 6 61 c3 34 9 64
12 68 4 4 50 10 102 12 53 3 108 10 123 16 41 15 56 12 67 -12 7 -19 8 -15 4
17 l-5 40 16 -31 c14 -26 14 -39 4 -88z m-2334 10 c61 -20 158 -76 197 -115
27 -26 27 -29 17 -82 -7 -29 -17 -67 -25 -84 -7 -16 -15 -61 -18 -98 -4 -37
-9 -73 -13 -79 -13 -21 -111 -3 -182 34 -38 20 -76 36 -86 35 -11 -1 -26 11
-38 33 -20 37 -20 90 2 260 5 41 12 96 16 122 l5 48 37 -29 c20 -16 60 -36 88
-45z m-1501 -7 c-30 -129 -13 -274 47 -396 17 -34 61 -100 97 -145 175 -215
404 -344 525 -294 l37 15 30 -33 c31 -36 100 -65 153 -67 17 0 39 -4 49 -8 16
-6 16 -9 5 -18 -28 -22 -78 -29 -213 -27 -159 1 -250 21 -372 78 -264 126
-394 317 -409 603 -5 75 -3 143 5 187 12 68 49 181 57 173 3 -2 -2 -33 -11
-68z m2751 33 c84 -30 174 -84 174 -106 0 -7 -7 -21 -16 -32 -15 -18 -15 -18
-5 3 16 32 14 37 -19 56 -35 21 -40 13 -9 -12 l21 -17 -21 -42 c-12 -23 -35
-57 -52 -77 -20 -22 -26 -35 -17 -35 8 0 20 6 27 13 8 6 3 -3 -9 -20 -13 -18
-29 -33 -35 -33 -17 0 -70 98 -100 185 -15 44 -33 89 -41 100 -37 52 -12 56
102 17z m-153 -16 c17 6 44 -38 67 -111 7 -22 21 -58 32 -80 13 -27 14 -34 3
-21 -25 32 -17 0 15 -64 17 -33 30 -70 30 -83 0 -24 -49 -100 -79 -125 -47
-37 -50 -36 -76 22 -13 30 -34 110 -45 177 -12 67 -28 138 -35 157 -14 33 -14
36 15 75 17 23 30 47 30 55 0 11 3 12 14 3 7 -6 21 -9 29 -5z m-541 -26 c-4
-25 -3 -25 13 -5 l16 20 -9 -20 c-25 -52 -40 -174 -36 -292 4 -116 3 -123 -17
-133 -24 -13 -277 -35 -287 -25 -4 4 -6 62 -6 128 1 93 7 143 25 211 l24 88
70 19 c39 10 84 23 100 28 17 5 48 9 70 8 36 -2 40 -4 37 -27z m2683 -118
c-17 -58 -40 -102 -53 -102 -4 0 -8 26 -8 58 0 31 -6 68 -13 80 -12 22 -9 27
36 68 l48 45 3 -46 c2 -25 -4 -72 -13 -103z m-1484 59 c89 -34 92 -37 76 -98
-16 -61 -6 -70 17 -15 l16 37 -6 -35 c-3 -19 -17 -56 -31 -81 -29 -55 -109
-149 -127 -149 -25 0 -155 137 -177 186 -40 92 -39 90 -16 90 18 -1 25 9 37
48 l15 48 70 -5 c39 -3 95 -15 126 -26z m504 -25 c18 -13 18 -52 0 -136 -3
-16 2 -11 15 15 13 26 19 55 18 83 -3 42 5 55 16 26 17 -44 -5 -113 -63 -197
l-30 -44 -58 5 c-135 9 -236 46 -269 98 -13 19 -14 30 -5 57 10 29 15 33 40
29 21 -3 33 2 48 22 13 15 40 30 74 40 71 19 189 20 214 2z m-1255 -191 c5
-75 16 -144 29 -185 25 -77 26 -102 7 -138 -27 -51 -111 -102 -167 -102 -25 0
-28 40 -16 183 8 98 7 144 -2 191 -10 52 -10 66 3 91 9 17 16 37 16 44 0 8 21
34 48 57 l47 42 14 -31 c7 -18 17 -86 21 -152z m2134 169 c3 -9 6 -30 5 -47
-1 -30 -1 -30 -8 -7 -4 14 -17 30 -30 36 -22 11 -22 12 -5 23 26 14 31 14 38
-5z m-5057 -91 c-2 -16 -4 -3 -4 27 0 30 2 43 4 28 2 -16 2 -40 0 -55z m3421
-42 c12 -23 61 -82 107 -131 47 -49 85 -95 85 -103 0 -16 -56 -70 -138 -130
l-62 -47 -73 75 c-87 91 -140 185 -126 223 5 13 7 32 4 41 -3 11 11 32 41 61
25 25 57 65 71 89 l26 43 21 -40 c12 -22 31 -59 44 -81z m971 99 c108 0 123
-13 115 -102 -4 -51 -3 -59 7 -44 6 10 15 42 20 70 l8 51 -4 -60 c-5 -68 -44
-193 -55 -176 -4 7 -21 -10 -44 -44 -20 -31 -47 -60 -60 -66 -29 -14 -78 0
-166 43 -63 32 -65 34 -65 73 0 30 8 48 34 80 34 40 72 116 85 168 5 23 9 26
26 17 10 -5 55 -10 99 -10z m132 -7 c13 -16 12 -17 -3 -4 -17 13 -22 21 -14
21 2 0 10 -8 17 -17z m415 -8 c-18 -14 -18 -15 -2 -15 9 0 30 7 47 15 16 9 34
13 39 10 16 -10 11 -99 -10 -166 -19 -61 -19 -89 0 -59 6 8 10 10 10 4 0 -14
-53 -96 -73 -113 -9 -7 -17 -10 -17 -7 0 4 -13 -2 -30 -14 -16 -11 -49 -27
-73 -34 l-45 -13 24 34 c56 83 85 229 61 315 -6 24 -4 27 36 41 55 19 55 19
33 2z m-2179 -37 c-3 -8 -6 -5 -6 6 -1 11 2 17 5 13 3 -3 4 -12 1 -19z m1973
12 c-12 -8 -9 -10 13 -10 73 0 90 -56 57 -184 -11 -44 -18 -81 -16 -83 2 -2
14 26 26 63 18 53 22 82 18 141 -6 87 13 87 20 0 5 -63 -9 -139 -38 -199 -24
-51 -73 -115 -64 -83 5 17 2 15 -19 -7 -40 -43 -108 -61 -204 -53 -98 8 -112
24 -68 77 56 66 115 228 115 315 l0 33 88 0 c60 0 82 -3 72 -10z m440 -108
c-45 -117 -101 -186 -167 -206 -21 -7 -20 -4 11 48 18 30 41 81 50 113 21 70
28 85 45 91 18 6 7 -44 -29 -131 -19 -45 -23 -64 -14 -56 21 18 59 94 78 158
14 49 47 92 54 71 2 -4 -11 -44 -28 -88z m-113 56 c-3 -7 -5 -2 -5 12 0 14 2
19 5 13 2 -7 2 -19 0 -25z m-5050 -35 c-3 -10 -5 -4 -5 12 0 17 2 24 5 18 2
-7 2 -21 0 -30z m2733 34 c0 -2 -12 -14 -27 -28 l-28 -24 24 28 c23 25 31 32
31 24z m1119 -87 c14 -7 36 -17 50 -21 23 -8 22 -8 -7 -4 -18 3 -31 1 -27 -4
7 -13 93 -41 124 -41 63 -1 64 -35 4 -101 -46 -51 -36 -62 12 -14 69 69 72
131 7 138 -35 3 -35 4 9 5 58 2 84 -15 75 -51 -3 -15 -46 -68 -94 -118 l-88
-92 -50 18 c-79 29 -231 124 -237 147 -4 14 4 30 27 52 18 17 50 59 71 94 l38
63 31 -29 c17 -16 42 -35 55 -42z m1188 38 c-3 -8 -6 -5 -6 6 -1 11 2 17 5 13
3 -3 4 -12 1 -19z m-1859 -29 c-3 -8 -7 -3 -11 10 -4 17 -3 21 5 13 5 -5 8
-16 6 -23z m-3171 -11 c-3 -7 -5 -2 -5 12 0 14 2 19 5 13 2 -7 2 -19 0 -25z
m2714 -73 c0 -52 3 -65 10 -50 6 13 7 -4 3 -53 -8 -107 -6 -232 5 -269 12 -40
-2 -57 -57 -73 -59 -16 -198 -13 -216 5 -21 21 -30 77 -21 128 20 120 23 162
16 208 -6 37 -5 52 5 60 8 6 14 19 14 29 0 13 11 19 39 24 22 3 73 23 113 44
47 25 76 34 80 28 4 -6 8 -42 9 -81z m-2704 33 c-3 -8 -6 -5 -6 6 -1 11 2 17
5 13 3 -3 4 -12 1 -19z m3940 6 c-3 -3 -12 -4 -19 -1 -8 3 -5 6 6 6 11 1 17
-2 13 -5z m-2047 -85 c25 -11 67 -25 94 -30 41 -8 52 -6 68 7 10 10 18 27 19
38 0 19 1 19 10 -4 15 -37 3 -70 -25 -70 -62 0 -252 79 -273 113 -4 6 9 1 28
-11 18 -13 54 -32 79 -43z m-28 -34 c31 -14 89 -34 128 -43 68 -16 70 -18 64
-42 -4 -14 -8 -106 -9 -205 -1 -99 -5 -179 -8 -177 -4 1 -12 2 -19 2 -9 0 -9
3 0 12 7 7 12 32 11 57 l-1 46 -12 -39 c-7 -22 -17 -41 -22 -43 -25 -8 -107
62 -175 149 -101 130 -113 161 -106 265 3 46 9 88 12 93 4 6 22 -3 43 -20 20
-16 63 -41 94 -55z m1323 -25 c4 0 4 10 0 23 -4 16 -1 14 11 -8 9 -16 33 -50
53 -74 19 -24 36 -50 37 -58 2 -8 12 -25 23 -37 37 -40 28 -80 -31 -137 -28
-27 -53 -49 -54 -49 -2 0 -26 -9 -53 -20 l-50 -19 -55 69 c-30 39 -64 95 -75
126 -19 50 -20 57 -6 77 8 12 15 36 15 55 0 27 6 36 31 50 17 9 50 31 73 48
l41 32 17 -39 c9 -21 20 -39 23 -39z m961 13 c26 -15 75 -38 109 -50 33 -13
47 -22 30 -19 -16 2 -39 8 -50 12 -18 7 -18 6 -6 -9 7 -9 31 -22 52 -29 22 -6
39 -17 39 -24 0 -8 -14 -36 -31 -64 -17 -28 -29 -54 -25 -57 7 -8 5 -11 50 57
40 61 44 84 19 100 -16 9 -15 10 7 8 59 -7 19 -95 -94 -207 l-54 -53 -38 12
c-54 18 -153 67 -192 97 -59 44 -57 53 43 157 49 52 91 95 91 95 1 1 23 -11
50 -26z m-1746 -37 c0 -30 5 -58 10 -61 14 -9 2 -75 -19 -99 -12 -14 -16 -37
-14 -99 1 -47 -2 -86 -9 -94 -15 -19 -76 -16 -153 8 -37 11 -69 18 -72 16 -9
-9 113 -50 163 -55 43 -3 55 -1 73 17 12 12 21 34 21 54 l1 32 15 -35 c8 -19
14 -46 12 -60 -3 -23 -8 -25 -55 -28 -68 -4 -212 31 -264 63 l-40 26 3 137 c3
127 5 140 28 173 l25 37 115 7 c63 3 120 8 125 10 30 10 35 3 35 -49z m1998
14 c-7 -11 -17 -20 -22 -20 -5 0 -1 9 9 20 10 11 20 20 22 20 2 0 -2 -9 -9
-20z m-1431 -47 c-3 -10 -5 -2 -5 17 0 19 2 27 5 18 2 -10 2 -26 0 -35z m851
-73 c36 -15 68 -32 70 -39 12 -37 -192 -181 -256 -181 -35 0 -163 63 -192 94
-21 23 -22 26 -5 20 17 -7 15 -3 -7 25 -16 18 -28 36 -28 39 0 4 22 20 49 36
26 15 72 49 101 75 l54 47 74 -45 c41 -24 104 -56 140 -71z m1153 81 c-21 -39
-221 -207 -221 -186 0 3 7 20 16 37 10 19 14 48 12 81 l-3 51 80 16 c107 22
127 22 116 1z m-228 -90 c-2 -53 -19 -76 -19 -26 0 20 -8 43 -19 55 l-20 22
30 -4 c29 -3 30 -5 28 -47z m-98 18 c-22 -10 -48 -19 -57 -19 -9 0 -20 -4 -23
-10 -9 -15 31 -12 72 5 19 8 41 15 49 15 25 0 26 -40 1 -94 -29 -62 -57 -83
-200 -151 l-88 -42 -62 13 c-74 15 -113 29 -121 43 -4 5 27 43 67 83 41 41 85
94 100 119 l26 45 79 -9 c61 -7 88 -6 127 6 68 20 78 19 30 -4z m-1677 -94 c6
-22 41 -77 77 -122 36 -45 65 -87 64 -95 0 -7 -4 -4 -9 7 -7 17 -92 121 -123
150 -17 16 22 -45 64 -101 22 -28 39 -59 39 -68 0 -27 -84 -59 -170 -64 l-75
-4 -40 73 c-34 64 -40 83 -41 142 -2 67 -2 67 26 67 36 0 105 25 139 49 30 23
34 20 49 -34z m392 0 c0 -19 -3 -36 -7 -38 -5 -3 -8 14 -8 38 0 24 3 41 8 38
4 -2 7 -19 7 -38z m675 -86 c33 -17 53 -29 45 -26 -8 2 -25 7 -37 11 -41 13
-24 -5 24 -26 l47 -21 -33 -28 c-18 -15 -60 -42 -93 -59 -41 -22 -56 -35 -47
-40 8 -6 -2 -12 -30 -20 -30 -8 -46 -8 -55 -1 -7 6 -60 30 -117 53 -121 50
-135 69 -62 87 53 13 124 57 192 118 l44 39 31 -28 c17 -16 58 -43 91 -59z
m-1638 19 c-2 -13 -4 -5 -4 17 -1 22 1 32 4 23 2 -10 2 -28 0 -40z m1008 22
c3 -5 8 -20 10 -32 4 -21 49 -68 106 -110 l24 -18 -60 -55 c-42 -38 -79 -62
-127 -79 l-68 -25 -65 45 c-74 52 -78 57 -79 99 -1 27 4 32 53 52 65 27 156
86 173 113 14 22 24 25 33 10z m45 -45 c7 -8 41 -28 76 -45 66 -31 74 -43 49
-76 -14 -18 -15 -18 -12 5 2 20 -8 30 -53 57 -56 32 -102 74 -83 74 6 0 16 -7
23 -15z m1265 -1 c-73 -56 -215 -126 -280 -138 -59 -11 -34 6 75 48 52 21 118
53 145 71 51 34 100 50 60 19z m-3306 -30 c28 -15 51 -30 51 -34 0 -22 -135
-28 -200 -10 l-45 13 45 9 c25 4 56 17 70 27 14 11 26 20 27 20 0 1 24 -11 52
-25z m297 -9 c-19 -30 -4 -33 23 -6 20 20 20 20 46 -1 l26 -21 -37 -38 c-45
-46 -30 -52 20 -9 31 28 66 33 66 10 0 -16 -147 -144 -225 -196 -44 -30 -76
-54 -71 -54 31 0 177 92 241 152 84 78 119 88 55 15 -55 -62 -47 -70 10 -12
45 45 60 54 60 34 0 -19 -79 -111 -143 -167 -166 -143 -330 -214 -564 -242
-50 -6 -104 -15 -120 -20 -49 -15 81 -12 187 5 272 41 520 185 645 373 15 23
30 42 34 42 3 0 19 -10 34 -23 l28 -22 -77 -78 c-178 -180 -372 -272 -664
-314 -103 -15 -136 -16 -262 -5 -244 20 -423 64 -557 138 -96 53 -143 92 -139
118 4 31 47 32 142 2 44 -14 122 -32 171 -41 111 -20 465 -32 515 -17 33 10
31 10 -30 11 -96 1 -344 22 -352 30 -11 10 121 84 150 84 15 0 75 -5 135 -11
116 -11 271 -2 367 22 50 13 37 13 -155 9 -118 -3 -220 -1 -234 4 -21 8 -17
12 50 43 81 36 75 36 269 25 83 -4 145 -3 160 3 21 8 15 11 -45 16 -38 4 -82
10 -98 12 l-27 6 37 26 c21 14 60 29 87 33 27 5 59 17 71 29 13 12 35 20 56
20 19 0 55 10 79 23 25 12 47 22 49 20 2 -1 -4 -14 -13 -28z m1034 -55 c8 -19
29 -59 47 -88 18 -29 33 -58 33 -65 0 -6 -6 -2 -13 9 -34 59 -69 114 -74 114
-9 0 9 -45 33 -82 l24 -38 -23 -14 c-34 -22 -153 -29 -207 -13 -34 11 -52 24
-74 56 -15 23 -30 40 -33 38 -7 -8 25 -64 60 -104 17 -20 25 -34 17 -32 -8 3
-30 28 -49 57 -19 28 -36 50 -38 48 -4 -3 12 -41 35 -90 3 -5 -23 -6 -59 -2
-74 8 -197 62 -272 120 -62 47 -75 37 -20 -15 50 -46 46 -48 -25 -10 -46 25
-50 30 -36 42 12 10 14 23 10 51 -7 44 -5 45 39 18 45 -28 177 -60 254 -62 70
-3 91 12 91 62 l0 26 83 -3 c53 -3 98 1 127 10 51 16 52 15 70 -33z m1420 47
c0 -2 -17 -19 -37 -38 l-37 -34 30 37 c25 31 44 46 44 35z m110 -66 c46 -21
42 -29 -4 -11 -40 15 -31 -5 11 -25 l37 -18 -27 -22 c-35 -31 -127 -65 -210
-78 -59 -9 -72 -8 -97 6 -15 9 -43 17 -62 18 -30 0 -28 2 22 18 81 25 173 77
217 121 33 34 40 37 53 25 8 -8 36 -23 60 -34z m-518 -82 c49 -19 88 -37 88
-40 0 -9 -131 -86 -155 -91 -12 -2 -19 -11 -18 -22 1 -18 -6 -19 -120 -12
-143 8 -259 27 -264 42 -2 5 23 18 54 28 80 25 185 81 236 126 41 37 42 37 67
20 14 -9 64 -32 112 -51z m598 45 c0 -14 -3 -14 -15 -4 -8 7 -15 14 -15 16 0
2 7 4 15 4 8 0 15 -7 15 -16z m108 -30 c14 -11 -162 -78 -233 -89 -32 -5 -25
0 36 25 42 17 87 41 100 54 19 19 31 23 59 19 19 -3 37 -7 38 -9z m-1328 -19
c7 -9 37 -30 66 -48 30 -17 56 -37 58 -44 4 -8 -5 -6 -22 5 -89 60 -106 71
-111 67 -7 -8 31 -45 71 -67 29 -17 35 -24 27 -35 -6 -7 -18 -13 -26 -13 -8 0
-27 -7 -43 -15 -27 -14 -38 -14 -117 2 -71 14 -94 23 -120 48 -17 16 -39 36
-47 43 -25 21 -19 28 21 24 45 -6 159 14 193 33 32 18 35 18 50 0z m818 -81
c2 -1 -19 -14 -48 -29 -40 -20 -63 -25 -103 -23 l-52 3 55 31 c45 24 63 29
100 26 25 -3 47 -6 48 -8z m-1071 -27 c-7 -21 -91 -56 -137 -57 -38 0 -150 39
-150 53 0 2 39 1 88 -1 73 -3 93 0 126 17 29 15 43 18 58 10 11 -6 18 -15 15
-22z m1167 -3 c71 -10 35 -24 -59 -23 -76 0 -78 1 -50 14 36 16 48 17 109 9z"/>
<path d="M5767 7143 c-3 -21 -8 -72 -11 -113 -5 -58 -4 -68 4 -45 6 17 13 67
17 113 6 84 0 112 -10 45z"/>
<path d="M4622 7093 c-16 -6 -46 -63 -33 -63 6 0 15 9 21 20 14 26 45 25 115
-1 31 -12 59 -19 62 -16 3 3 -19 19 -49 36 -50 29 -86 36 -116 24z"/>
<path d="M4615 7016 c-11 -17 -26 -26 -43 -26 -20 0 -23 -3 -14 -12 9 -9 18
-9 37 0 36 16 38 15 15 -8 -12 -12 -25 -18 -30 -15 -6 4 -10 2 -10 -4 0 -13
86 -51 116 -51 13 0 24 5 24 11 0 6 7 9 15 5 9 -3 24 3 33 12 10 10 24 16 30
14 7 -2 12 1 12 7 0 6 -6 11 -12 11 -7 0 -26 16 -43 36 -23 27 -40 37 -71 41
-37 5 -44 2 -59 -21z m95 -47 c0 -12 -27 -11 -35 1 -11 17 5 32 21 19 8 -6 14
-15 14 -20z m40 6 c13 -14 19 -25 13 -25 -5 0 -20 11 -33 25 -13 14 -19 25
-13 25 5 0 20 -11 33 -25z"/>
<path d="M3870 6910 c-13 -9 -13 -10 0 -9 8 0 24 4 35 9 l20 9 -20 0 c-11 0
-27 -4 -35 -9z"/>
<path d="M3935 6890 c-3 -5 -21 -10 -40 -10 -39 0 -65 -29 -65 -72 0 -52 68
-61 125 -17 29 24 34 69 9 93 -18 19 -21 19 -29 6z"/>
<path d="M3791 6787 c-7 -21 -9 -46 -5 -55 4 -9 7 -20 6 -23 -1 -4 18 -2 41 3
23 5 55 8 70 5 22 -3 37 4 63 28 19 18 34 38 34 46 0 7 -13 0 -31 -17 -27 -25
-37 -29 -92 -29 l-62 0 -5 40 -5 40 -14 -38z"/>
<path d="M4555 6799 c-66 -15 -127 -41 -118 -50 5 -5 52 4 108 20 55 16 109
31 120 34 36 9 -69 5 -110 -4z"/>
<path d="M4905 6795 c-4 -11 -18 -44 -31 -72 -21 -49 -26 -53 -56 -52 -18 0
-78 11 -133 23 -91 21 -116 24 -104 12 9 -10 217 -66 242 -66 32 0 60 35 82
101 16 47 16 97 0 54z"/>
<path d="M3740 6759 c-6 -11 -10 -25 -7 -32 2 -6 9 3 15 21 12 36 8 42 -8 11z"/>
<path d="M3760 6738 c0 -9 5 -20 10 -23 13 -8 13 5 0 25 -8 13 -10 13 -10 -2z"/>
<path d="M4300 6680 c0 -6 5 -21 11 -32 17 -31 -3 -38 -113 -38 -63 0 -98 -4
-98 -11 0 -7 37 -10 113 -8 l112 3 3 -37 c2 -20 7 -37 12 -37 24 0 21 78 -6
132 -15 30 -34 45 -34 28z"/>
<path d="M3720 6650 c0 -5 5 -10 11 -10 5 0 7 5 4 10 -3 6 -8 10 -11 10 -2 0
-4 -4 -4 -10z"/>
<path d="M3840 6614 c0 -8 5 -12 10 -9 6 3 10 10 10 16 0 5 -4 9 -10 9 -5 0
-10 -7 -10 -16z"/>
<path d="M3892 6619 c2 -6 8 -10 13 -10 5 0 11 4 13 10 2 6 -4 11 -13 11 -9 0
-15 -5 -13 -11z"/>
<path d="M3783 6608 c2 -7 8 -13 13 -13 5 0 15 -4 22 -8 16 -11 15 1 -2 19
-18 17 -39 18 -33 2z"/>
<path d="M3950 6610 c0 -5 5 -10 10 -10 6 0 10 5 10 10 0 6 -4 10 -10 10 -5 0
-10 -4 -10 -10z"/>
<path d="M3682 6598 c5 -15 28 -18 29 -3 0 6 -7 12 -17 13 -10 3 -15 -1 -12
-10z"/>
<path d="M3735 6600 c3 -5 10 -10 16 -10 5 0 9 5 9 10 0 6 -7 10 -16 10 -8 0
-12 -4 -9 -10z"/>
<path d="M4000 6590 c0 -5 5 -10 11 -10 5 0 7 5 4 10 -3 6 -8 10 -11 10 -2 0
-4 -4 -4 -10z"/>
<path d="M3870 6490 c0 -5 5 -10 11 -10 5 0 7 5 4 10 -3 6 -8 10 -11 10 -2 0
-4 -4 -4 -10z"/>
<path d="M3855 6450 c3 -5 11 -10 16 -10 6 0 7 5 4 10 -3 6 -11 10 -16 10 -6
0 -7 -4 -4 -10z"/>
<path d="M4777 6024 c-3 -3 -18 -30 -32 -60 -33 -68 -119 -161 -199 -219 -34
-23 -162 -93 -286 -155 -238 -119 -307 -159 -354 -209 -17 -17 -40 -31 -52
-31 -36 0 -38 -19 -2 -24 18 -2 78 -12 132 -21 64 -10 102 -13 108 -7 17 17
-33 35 -110 40 -40 3 -75 9 -78 14 -8 13 55 70 107 95 24 13 129 60 232 107
279 125 402 210 480 329 45 69 84 171 54 141z"/>
<path d="M4010 5250 c-41 -12 -104 -34 -138 -51 -54 -26 -70 -41 -103 -92 -21
-33 -39 -64 -39 -69 0 -17 16 -6 39 27 41 60 95 101 162 124 84 27 193 41 251
32 55 -9 68 -3 36 16 -21 12 -16 13 37 8 50 -5 57 -4 40 7 -35 22 -200 20
-285 -2z"/>
<path d="M3395 5123 c-27 -47 -67 -105 -87 -128 -40 -45 -45 -55 -28 -55 21 0
180 234 180 265 0 20 -22 -8 -65 -82z"/>
<path d="M2850 4751 c0 -12 29 -23 42 -15 6 4 5 10 -3 15 -18 11 -39 11 -39 0z"/>
<path d="M2753 4731 c-56 -22 -81 -46 -38 -35 58 14 99 31 103 42 5 16 -14 14
-65 -7z"/>
<path d="M3665 3940 c20 -33 143 -59 152 -32 3 8 -8 12 -36 12 -23 0 -58 7
-78 15 -42 18 -46 18 -38 5z"/>
<path d="M1957 4652 c-20 -22 -42 -81 -33 -89 3 -3 10 7 16 22 6 15 20 41 31
56 22 32 12 40 -14 11z"/>
<path d="M8049 3668 c0 -2 -2 -23 -5 -48 -2 -25 -5 -52 -6 -60 -2 -8 2 -17 7
-20 6 -3 11 5 13 18 5 34 19 26 37 -23 10 -25 25 -50 33 -57 14 -11 15 -10 8
7 -4 11 -16 43 -26 71 -26 74 -55 128 -61 112z"/>
<path d="M7900 2454 c-17 -26 -28 -49 -25 -53 7 -6 50 39 58 61 8 25 19 -1 23
-55 2 -30 10 -75 19 -100 8 -25 14 -54 13 -65 -2 -12 2 -22 7 -24 14 -4 19
101 5 117 -6 8 -14 40 -17 72 -10 106 -34 119 -83 47z"/>
<path d="M7517 3177 c-48 -74 -185 -392 -173 -404 6 -6 17 15 60 120 20 48 61
137 91 197 30 61 51 110 46 110 -5 0 -15 -10 -24 -23z"/>
<path d="M3105 1201 c24 -185 159 -391 311 -472 89 -48 100 -42 19 11 -173
114 -241 206 -307 415 -20 64 -27 77 -23 46z"/>
<path d="M5227 1413 c-4 -3 -7 -40 -7 -82 0 -42 -4 -81 -8 -87 -9 -15 -67 -44
-86 -44 -8 0 -18 -5 -22 -11 -10 -17 77 -1 106 20 24 17 25 23 25 115 0 53 0
96 -1 96 0 0 -4 -3 -7 -7z"/>
<path d="M5058 1183 c6 -2 18 -2 25 0 6 3 1 5 -13 5 -14 0 -19 -2 -12 -5z"/>
<path d="M6290 1243 c0 -5 14 -22 30 -38 36 -34 37 -56 8 -102 l-21 -35 21 11
c12 6 29 25 37 41 14 27 14 33 0 59 -15 29 -75 80 -75 64z"/>
<path d="M5504 927 c3 -104 1 -106 -93 -124 l-66 -13 73 4 c108 5 115 15 97
131 l-14 90 3 -88z"/>
<path d="M6478 1038 c20 -22 92 -60 155 -81 39 -14 13 -52 -75 -109 -42 -26
-61 -48 -42 -48 9 0 97 61 127 88 29 27 35 63 15 79 -7 6 -40 20 -73 32 -33
13 -76 32 -95 44 l-35 20 23 -25z"/>
</g>
</svg>
