<?xml version="1.0" encoding="UTF-8" standalone="no"?>
<svg
   xmlns:dc="http://purl.org/dc/elements/1.1/"
   xmlns:cc="http://creativecommons.org/ns#"
   xmlns:rdf="http://www.w3.org/1999/02/22-rdf-syntax-ns#"
   xmlns:svg="http://www.w3.org/2000/svg"
   xmlns="http://www.w3.org/2000/svg"
   xmlns:sodipodi="http://sodipodi.sourceforge.net/DTD/sodipodi-0.dtd"
   xmlns:inkscape="http://www.inkscape.org/namespaces/inkscape"
   version="1.0"
   width="1024.000000pt"
   height="1024.000000pt"
   viewBox="0 0 1024.000000 1024.000000"
   preserveAspectRatio="xMidYMid meet"
   id="svg2"
   inkscape:version="0.91 r13725"
   sodipodi:docname="Basic_78d.svg">
  <defs
     id="defs504" />
  <sodipodi:namedview
     pagecolor="#ffffff"
     bordercolor="#666666"
     borderopacity="1"
     objecttolerance="10"
     gridtolerance="10"
     guidetolerance="10"
     inkscape:pageopacity="0"
     inkscape:pageshadow="2"
     inkscape:window-width="1920"
     inkscape:window-height="974"
     id="namedview502"
     showgrid="false"
     inkscape:zoom="0.7375"
     inkscape:cx="765.13841"
     inkscape:cy="638.30898"
     inkscape:window-x="0"
     inkscape:window-y="1"
     inkscape:window-maximized="1"
     inkscape:current-layer="svg2" />
  <metadata
     id="metadata4">
Created by potrace 1.14, written by Peter Selinger 2001-2017
<rdf:RDF>
  <cc:Work
     rdf:about="">
    <dc:format>image/svg+xml</dc:format>
    <dc:type
       rdf:resource="http://purl.org/dc/dcmitype/StillImage" />
  </cc:Work>
</rdf:RDF>
</metadata>
  <g
     transform="translate(0.000000,1024.000000) scale(0.100000,-0.100000)"
     fill="#000000"
     stroke="none"
     id="g6">
    <path
       d="M0 5120 l0 -5120 5120 0 5120 0 0 5120 0 5120 -5120 0 -5120 0 0 -5120z m5344 4749 c22 -17 26 -28 26 -70 0 -82 -52 -119 -119 -84 -33 16 -41 33 -41 79 0 35 15 53 65 79 38 21 38 21 69 -4z m-40 -365 c9 -8 19 -27 22 -42 4 -15 26 -103 51 -197 24 -93 52 -210 63 -260 11 -49 29 -124 40 -165 34 -129 68 -270 94 -400 14 -69 36 -163 50 -210 13 -47 34 -132 46 -190 12 -58 25 -112 29 -120 4 -8 16 -50 26 -93 9 -42 21 -79 24 -82 4 -2 33 29 64 69 80 102 104 123 125 110 22 -14 30 -42 38 -126 l6 -67 103 89 c130 111 243 187 448 302 88 49 173 98 189 109 26 19 67 19 68 1 0 -4 2 -194 3 -422 2 -381 0 -420 -17 -483 -10 -37 -16 -70 -13 -73 7 -7 20 -2 175 63 82 35 107 41 122 33 26 -14 25 -24 -5 -105 -15 -38 -25 -76 -23 -85 3 -16 7 -15 53 6 53 24 257 112 340 147 28 11 82 35 120 53 39 18 93 40 120 50 28 9 124 50 215 91 91 42 188 83 216 93 67 24 160 68 204 97 61 42 198 106 214 100 8 -3 20 -15 25 -26 10 -18 1 -29 -71 -98 -218 -207 -409 -412 -628 -674 -237 -285 -273 -329 -295 -365 -11 -18 -33 -49 -49 -68 -16 -20 -27 -38 -25 -40 2 -2 54 2 114 9 94 11 113 10 133 -2 28 -17 27 -22 -38 -118 -27 -41 -50 -77 -50 -80 0 -3 27 -5 60 -5 32 0 83 -5 112 -12 29 -6 57 -11 61 -10 13 4 168 -38 237 -63 36 -13 90 -33 120 -44 30 -11 82 -25 115 -31 33 -7 66 -17 73 -22 24 -20 13 -55 -25 -84 -57 -42 -137 -128 -221 -234 -41 -52 -127 -145 -191 -207 -64 -61 -114 -114 -111 -117 3 -3 59 -25 125 -50 158 -60 172 -76 102 -113 -38 -19 -107 -73 -107 -84 0 -4 12 -10 28 -13 92 -22 727 -232 754 -250 13 -8 41 -17 63 -21 48 -8 198 -55 205 -65 3 -3 14 -7 25 -7 33 -2 168 -33 195 -45 14 -6 36 -12 50 -13 14 -1 50 -9 80 -18 30 -9 67 -19 83 -22 30 -6 34 -21 13 -50 -11 -16 -29 -19 -127 -21 -190 -4 -507 -46 -717 -94 -48 -11 -150 -34 -227 -50 -257 -54 -319 -68 -414 -91 l-94 -22 63 -57 c88 -79 88 -79 -105 -136 -33 -9 -62 -19 -63 -20 -2 -1 86 -92 195 -201 222 -221 303 -326 303 -393 0 -45 -3 -46 -101 -55 -41 -3 -117 -15 -169 -25 -52 -11 -159 -23 -238 -28 -78 -5 -145 -11 -147 -14 -3 -2 9 -47 25 -99 33 -105 36 -131 16 -148 -10 -8 -22 -7 -50 4 -27 11 -172 45 -193 45 -12 0 1 -38 16 -47 10 -6 58 -65 108 -130 49 -65 149 -197 223 -293 73 -96 142 -191 154 -210 11 -19 26 -38 32 -42 7 -5 40 -41 74 -80 35 -40 102 -116 150 -169 49 -52 110 -122 136 -155 26 -32 67 -80 92 -106 26 -27 42 -52 39 -61 -11 -30 -46 -25 -142 24 -53 27 -103 49 -110 49 -13 0 -197 87 -510 242 -82 40 -202 96 -265 122 -63 27 -137 60 -165 74 -76 38 -540 232 -555 232 -5 0 -4 -15 1 -32 57 -182 51 -250 -20 -221 -14 6 -57 24 -96 41 -125 52 -115 55 -115 -35 0 -43 -5 -107 -11 -143 -5 -36 -14 -90 -18 -120 -56 -361 -56 -360 -94 -360 -15 1 -42 26 -87 82 -45 55 -114 120 -224 209 -88 71 -161 127 -162 126 -2 -1 -10 -59 -20 -129 -9 -69 -20 -131 -24 -138 -15 -24 -49 2 -157 114 l-109 113 -16 -70 c-15 -62 -15 -73 -1 -93 13 -21 13 -24 -11 -39 -28 -19 -34 -37 -66 -195 -12 -58 -32 -148 -45 -200 -13 -52 -38 -153 -55 -225 -17 -71 -44 -175 -60 -230 -15 -55 -38 -147 -50 -205 -12 -58 -31 -138 -41 -178 -11 -40 -19 -88 -19 -108 0 -51 -15 -74 -49 -74 -40 0 -58 26 -76 112 -8 41 -24 102 -34 134 -11 33 -33 109 -50 169 -17 61 -37 130 -45 155 -8 25 -27 95 -42 155 -14 61 -31 119 -37 130 -7 13 -7 20 1 23 8 2 7 10 -2 25 -8 12 -31 103 -51 202 -54 257 -98 428 -112 433 -7 2 -17 -7 -22 -20 -5 -13 -30 -49 -55 -82 -25 -32 -46 -63 -46 -68 0 -5 -15 -8 -32 -6 -30 3 -36 10 -65 68 -18 36 -42 93 -55 127 -12 35 -27 63 -33 63 -5 0 -66 -45 -135 -101 -69 -55 -161 -125 -205 -156 -44 -31 -105 -83 -136 -115 -61 -63 -93 -74 -108 -36 -24 63 -63 420 -60 548 l2 65 -54 -3 c-30 -1 -82 -9 -115 -17 -64 -16 -109 -9 -119 17 -3 7 8 54 24 103 16 50 27 92 25 94 -2 2 -65 -35 -141 -81 -136 -84 -183 -112 -193 -113 -3 0 -23 -12 -45 -26 -51 -33 -101 -59 -114 -59 -5 0 -33 -16 -63 -35 -29 -20 -165 -92 -303 -161 -241 -121 -325 -166 -447 -240 -68 -41 -137 -54 -157 -30 -12 14 -7 26 37 89 28 39 92 137 143 217 50 80 109 168 130 196 22 28 39 54 39 58 0 14 276 409 343 491 34 42 142 224 136 229 -7 7 -136 26 -170 26 -40 0 -79 24 -79 48 0 10 27 63 59 120 l59 102 -121 -1 c-67 -1 -156 3 -197 10 -41 6 -102 15 -135 20 -33 5 -86 17 -118 25 -32 9 -68 16 -80 16 -33 0 -158 50 -164 66 -3 7 4 28 15 46 11 18 37 64 56 102 70 135 156 231 313 348 68 50 123 93 123 95 0 2 -17 11 -37 20 -21 8 -71 31 -111 50 -100 47 -98 60 19 142 l91 63 -73 23 c-41 13 -110 30 -154 39 -149 31 -169 36 -280 70 -60 19 -147 42 -193 50 -123 23 -244 56 -270 72 -12 8 -27 12 -31 9 -5 -3 -38 4 -73 15 -86 27 -417 90 -473 90 -34 0 -47 5 -55 19 -19 36 -12 50 33 61 23 6 116 31 207 55 91 24 183 46 205 49 84 13 285 60 415 97 74 20 160 43 190 49 30 6 84 20 120 30 36 10 88 23 115 29 64 14 209 49 258 62 48 13 40 25 -44 71 -45 25 -59 38 -59 55 0 29 27 46 130 84 117 42 124 47 108 66 -7 9 -56 48 -108 88 -117 89 -148 123 -280 304 -58 79 -129 172 -158 205 -69 80 -89 120 -73 140 20 24 82 28 487 35 l383 6 -45 70 c-28 44 -43 79 -42 95 3 24 6 25 68 25 36 0 93 -4 128 -8 l62 -8 -51 88 c-29 48 -84 140 -122 203 -70 114 -100 166 -276 476 -93 166 -458 731 -512 794 -16 19 -28 44 -27 55 6 40 49 29 189 -50 73 -41 208 -113 299 -159 244 -124 306 -157 405 -217 50 -30 112 -68 139 -84 27 -17 104 -67 172 -112 67 -45 140 -91 161 -103 21 -11 65 -37 98 -57 33 -20 102 -58 153 -84 l92 -49 0 33 c0 36 -27 197 -34 205 -10 9 15 42 31 42 9 0 49 -22 89 -50 l72 -50 5 153 c3 100 12 188 26 257 29 138 40 199 51 292 19 163 30 162 259 -37 57 -49 141 -121 186 -160 45 -38 117 -101 159 -139 42 -38 78 -67 80 -65 4 4 42 138 55 194 5 23 13 31 35 33 22 3 37 -7 79 -51 29 -30 58 -62 66 -72 12 -15 15 -15 22 -2 5 8 35 122 68 253 32 132 75 298 94 369 20 72 59 213 86 315 198 736 199 740 245 694z m-3505 -1060 c37 -31 41 -73 11 -121 -45 -74 -164 -43 -164 42 0 32 6 44 39 72 46 40 73 42 114 7z m2855 -99 c31 -47 15 -94 -41 -124 -55 -28 -123 9 -123 68 0 70 127 113 164 56z m1383 -20 c32 -22 46 -80 28 -115 -18 -34 -56 -60 -101 -67 -66 -11 -92 48 -60 137 20 55 86 78 133 45z m2736 -316 c43 -12 77 -44 77 -74 0 -26 -54 -79 -96 -93 -44 -14 -88 7 -103 48 -17 51 -14 66 24 99 40 34 44 35 98 20z m-5344 -65 c26 -33 26 -50 1 -91 -23 -38 -71 -65 -108 -61 -30 3 -59 50 -69 112 -5 33 -3 36 18 36 13 1 38 7 54 15 48 22 81 18 104 -11z m3893 -231 c11 -10 18 -30 18 -54 0 -31 -6 -42 -33 -63 -69 -53 -113 -51 -142 5 -20 37 -8 78 33 109 31 25 98 27 124 3z m-4938 -863 c17 -6 29 -22 37 -48 10 -33 8 -44 -9 -78 -21 -42 -58 -68 -87 -62 -29 5 -56 51 -58 96 -1 46 28 87 67 95 11 2 22 5 23 6 1 0 13 -3 27 -9z m5700 -136 c18 -18 21 -66 6 -95 -6 -10 -31 -28 -57 -40 -55 -25 -83 -17 -108 32 -19 37 -14 70 17 99 28 25 118 28 142 4z m-6019 -1108 c11 -26 12 -41 4 -65 -11 -31 -52 -61 -83 -61 -26 0 -49 46 -42 82 11 55 32 78 72 78 30 0 37 -4 49 -34z m6320 -32 c35 -23 50 -75 31 -111 -8 -16 -26 -35 -40 -42 -22 -12 -31 -12 -67 5 -68 30 -96 95 -63 142 12 18 25 22 65 22 28 0 60 -7 74 -16z m-7810 -579 c67 -27 68 -95 3 -135 -89 -54 -183 17 -136 103 25 48 70 59 133 32z m9195 -210 c57 -29 79 -96 43 -127 -35 -30 -64 -40 -103 -33 -50 8 -87 43 -96 91 -6 33 -4 40 20 61 32 27 92 31 136 8z m-7750 -362 c26 -33 24 -93 -5 -136 -31 -48 -87 -25 -114 46 -15 40 -15 42 20 82 38 43 69 45 99 8z m6358 -25 c32 -32 -4 -130 -53 -142 -78 -20 -116 75 -53 134 24 22 87 27 106 8z m-373 -1093 c32 -31 32 -66 -1 -104 -29 -35 -83 -49 -120 -32 -35 16 -59 75 -44 110 20 50 125 67 165 26z m-5538 -50 c27 -19 40 -77 24 -111 -15 -34 -66 -33 -103 3 -35 34 -35 59 -1 95 30 32 49 35 80 13z m4487 -846 c30 -36 31 -40 10 -84 -42 -88 -154 -74 -154 20 0 84 93 125 144 64z m-3484 -51 c26 -42 25 -79 0 -106 -42 -45 -130 -15 -145 49 -10 42 36 89 86 89 34 0 42 -5 59 -32z m5239 -403 c11 -9 24 -30 30 -45 8 -24 6 -34 -10 -55 -29 -35 -104 -36 -142 -1 -39 36 -45 72 -16 103 21 22 30 24 72 20 26 -2 56 -12 66 -22z m-2799 -33 c29 -24 38 -93 16 -127 -25 -37 -87 -35 -127 4 -16 16 -29 37 -29 46 0 26 32 67 65 81 40 18 49 17 75 -4z m-1327 -24 c43 -57 14 -128 -53 -130 -25 -1 -40 6 -62 31 -36 41 -35 56 7 98 41 41 78 42 108 1z m-2629 -61 c11 -8 20 -31 23 -58 4 -38 1 -47 -20 -68 -43 -40 -138 -26 -153 22 -16 52 37 117 95 117 21 0 45 -6 55 -13z m3276 -1307 c16 -16 20 -33 20 -80 0 -53 -3 -61 -26 -76 -46 -31 -126 -15 -140 28 -17 54 45 148 97 148 16 0 38 -9 49 -20z"
       id="path8"
       style="fill:none" />
    <path
       d="M5261 9328 c-5 -13 -19 -66 -31 -118 -12 -52 -35 -138 -50 -190 -37 -121 -81 -283 -131 -478 -21 -84 -52 -198 -68 -255 -16 -56 -34 -127 -41 -157 -32 -151 -54 -238 -66 -261 -12 -23 -11 -29 2 -40 12 -10 29 -9 92 5 109 25 115 31 140 123 18 69 25 101 47 218 3 17 7 48 10 70 2 22 13 96 23 165 11 69 26 171 32 228 9 73 17 105 27 109 29 11 28 18 117 -427 24 -118 48 -264 54 -325 10 -118 26 -169 50 -160 7 3 43 -2 78 -10 115 -26 117 -24 89 82 -9 32 -24 96 -34 143 -11 47 -35 148 -54 225 -19 77 -49 208 -67 290 -17 83 -58 258 -90 390 -32 132 -66 275 -75 318 -18 80 -37 100 -54 55z"
       id="path10"
       style="fill:#ff33ff" />
    <path
       d="M5257 8563 c-3 -5 -19 -93 -37 -198 -17 -104 -45 -257 -61 -339 -17 -81 -29 -150 -27 -152 5 -5 248 -7 254 -2 12 12 -39 387 -66 483 -5 17 -16 72 -26 123 -15 84 -25 105 -37 85z"
       id="path12"
       style="fill:#990099" />
    <path
       d="M3937 8203 c-4 -3 -7 -27 -7 -51 0 -33 7 -54 26 -79 26 -35 99 -93 116 -93 17 0 39 69 29 89 -10 17 -144 141 -153 141 -3 0 -8 -3 -11 -7z"
       id="path14"
       style="fill:#ff3399" />
    <path
       d="M6548 8062 l-78 -47 0 -59 c0 -69 1 -69 90 1 41 31 70 64 86 95 13 26 24 50 24 53 0 17 -55 -3 -122 -43z"
       id="path16"
       style="fill:#ff0099" />
    <path
       d="M2076 8082 c-2 -4 61 -104 141 -222 172 -254 242 -366 415 -675 128 -228 244 -415 257 -415 4 0 32 34 62 76 30 42 58 82 63 88 5 7 -13 41 -48 93 -31 46 -57 86 -58 90 -1 4 -12 22 -24 38 -13 17 -76 98 -139 180 -64 83 -124 165 -133 183 -8 17 -19 32 -23 32 -13 0 -140 180 -134 190 12 20 44 9 74 -25 17 -19 33 -35 37 -35 3 0 52 -33 108 -74 127 -92 224 -155 454 -296 l182 -112 63 52 c34 29 63 56 65 60 1 4 -53 40 -120 80 -68 40 -135 84 -150 98 -16 14 -28 22 -28 19 0 -11 -44 14 -53 29 -4 8 -12 14 -17 14 -5 0 -35 17 -67 39 -167 110 -397 243 -551 317 -95 46 -213 106 -261 134 -89 50 -106 57 -115 42z"
       id="path18"
       style="fill:#ff33ff" />
    <path
       d="M6663 8007 l-41 -73 5 -87 c3 -48 9 -87 12 -87 3 0 24 7 46 14 l40 14 3 146 c3 173 -3 180 -65 73z"
       id="path20"
       style="fill:#ff0099" />
    <path
       d="M3915 8028 c-27 -88 -49 -217 -43 -262 2 -22 10 -31 30 -37 17 -4 31 -3 36 4 15 19 26 261 13 286 -13 23 -30 28 -36 9z"
       id="path22"
       style="fill:#ff3399" />
    <path
       d="M4143 8017 c-5 -6 -16 -27 -23 -45 -11 -29 -11 -34 6 -48 41 -32 103 -74 109 -74 12 0 44 44 45 60 0 9 -21 34 -47 55 -75 64 -80 66 -90 52z"
       id="path24"
       style="fill:#ff3399" />
    <path
       d="M6320 7923 c-46 -32 -88 -65 -94 -75 -12 -20 9 -98 27 -97 7 0 48 26 92 58 l80 57 -2 48 c-1 27 -5 52 -10 57 -5 5 -45 -15 -93 -48z"
       id="path26"
       style="fill:#ff0099" />
    <path
       d="M4001 7941 c-25 -45 -6 -491 25 -616 17 -65 53 -145 65 -145 13 0 113 41 122 49 4 4 -1 43 -12 87 -11 43 -30 134 -42 202 -17 97 -19 125 -9 137 15 18 33 7 134 -87 88 -80 146 -153 146 -183 0 -12 8 -32 18 -44 16 -21 20 -21 71 -9 29 6 55 18 58 25 3 7 -10 45 -28 85 -27 61 -52 93 -148 192 -73 74 -150 141 -206 179 -49 33 -111 81 -137 105 -44 41 -47 42 -57 23z"
       id="path28"
       style="fill:#660000" />
    <path
       d="M4657 7923 c-12 -20 -57 -184 -57 -207 0 -30 117 -199 133 -193 6 2 20 46 30 98 32 164 32 153 -3 206 -56 82 -92 115 -103 96z"
       id="path30"
       style="fill:#660000" />
    <path
       d="M6515 7881 c-22 -16 -58 -39 -80 -51 -55 -31 -252 -172 -297 -212 -104 -93 -228 -276 -214 -314 6 -17 81 -64 101 -64 8 0 27 19 41 43 37 59 95 118 189 191 100 79 103 80 119 67 10 -9 11 -22 5 -54 -5 -23 -15 -96 -23 -162 -8 -73 -22 -138 -34 -165 -11 -24 -18 -48 -15 -53 3 -5 33 -27 66 -48 49 -32 63 -37 73 -27 16 18 70 172 100 288 22 82 27 128 33 330 5 129 6 241 4 248 -8 18 -24 14 -68 -17z"
       id="path32"
       style="fill:#660000" />
    <path
       d="M4296 7853 l-19 -26 64 -58 c80 -73 105 -87 127 -72 9 5 17 18 17 26 0 15 -151 158 -165 157 -3 0 -14 -12 -24 -27z"
       id="path34"
       style="fill:#ff3399" />
    <path
       d="M5135 7831 c-76 -10 -188 -39 -241 -61 -27 -12 -45 -28 -53 -48 -20 -47 -8 -53 57 -31 43 15 104 22 251 30 207 11 271 6 404 -31 124 -34 152 -25 124 43 -13 30 -21 36 -68 46 -30 7 -91 21 -135 32 -94 22 -252 31 -339 20z"
       id="path36"
       style="fill:#990099" />
    <path
       d="M5829 7760 c-41 -45 -76 -85 -77 -91 -8 -21 31 -200 42 -196 6 2 39 45 74 96 l63 93 -7 82 c-3 44 -10 85 -14 89 -4 5 -41 -28 -81 -73z"
       id="path38"
       style="fill:#660000" />
    <path
       d="M6094 7740 c-115 -110 -116 -111 -109 -140 4 -14 13 -32 21 -40 12 -13 19 -9 57 29 23 24 66 62 95 84 57 43 60 55 33 107 l-19 34 -78 -74z"
       id="path40"
       style="fill:#ff0099" />
    <path
       d="M6668 7729 l-38 -19 0 -90 0 -90 54 0 c65 0 71 10 61 103 -13 129 -14 130 -77 96z"
       id="path42"
       style="fill:#ff0099" />
    <path
       d="M3855 7648 c-4 -24 -5 -65 -3 -93 3 -47 5 -50 28 -47 72 8 70 5 70 97 l0 85 -44 0 -45 0 -6 -42z"
       id="path44"
       style="fill:#ff3399" />
    <path
       d="M4495 7670 c-18 -20 -18 -21 5 -48 48 -54 61 -62 81 -52 25 14 24 25 -8 76 -31 48 -51 54 -78 24z"
       id="path46"
       style="fill:#ff3399" />
    <path
       d="M5022 7680 c-29 -4 -88 -22 -132 -40 -69 -28 -80 -36 -80 -56 0 -29 5 -29 100 -3 48 13 114 22 185 24 145 5 424 -19 463 -39 46 -24 142 -37 149 -20 15 41 -33 91 -102 105 -167 36 -198 39 -360 38 -93 -1 -194 -5 -223 -9z"
       id="path48"
       style="fill:#990099" />
    <path
       d="M8120 7553 c-80 -35 -161 -71 -180 -78 -78 -30 -149 -62 -162 -71 -7 -6 -33 -17 -58 -24 -25 -7 -71 -26 -102 -42 -32 -15 -65 -28 -74 -28 -9 0 -28 -8 -42 -18 -15 -11 -109 -54 -209 -97 -101 -42 -183 -81 -183 -85 0 -11 81 -70 95 -70 7 0 99 41 206 91 107 50 239 111 294 136 55 25 121 57 147 70 48 24 68 24 68 -1 0 -7 -33 -42 -72 -77 -100 -88 -428 -421 -428 -434 0 -18 83 -125 92 -119 5 3 57 65 116 137 153 189 384 457 483 562 153 162 189 202 189 208 0 16 -44 1 -180 -60z"
       id="path50"
       style="fill:#ff33ff" />
    <path
       d="M2620 7566 c0 -8 19 -38 43 -68 48 -58 254 -336 329 -441 27 -37 54 -67 62 -67 23 0 196 156 196 176 0 18 -34 41 -436 296 -33 21 -84 56 -114 78 -56 42 -80 50 -80 26z"
       id="path52"
       style="fill:#990099" />
    <path
       d="M4943 7545 c-143 -33 -156 -40 -165 -94 -4 -24 -5 -48 -2 -52 7 -12 77 -11 110 1 18 7 31 7 37 1 6 -6 17 -7 27 -1 33 18 449 12 500 -7 8 -3 44 -5 80 -5 58 2 139 -9 194 -25 17 -5 18 -1 12 48 -4 29 -12 59 -17 66 -6 6 -54 25 -107 42 -75 23 -130 32 -242 40 -218 16 -311 13 -427 -14z m347 -51 c11 -13 10 -19 -7 -36 -24 -24 -53 -18 -53 10 0 38 37 54 60 26z"
       id="path54"
       style="fill:#990099" />
    <path
       d="M5894 7508 c-23 -35 -49 -85 -59 -112 -18 -47 -18 -49 0 -62 11 -8 24 -13 30 -11 16 6 114 170 115 193 0 18 -27 54 -41 54 -3 0 -23 -28 -45 -62z"
       id="path56"
       style="fill:#ff0099" />
    <path
       d="M4602 7528 c-17 -17 -16 -25 15 -95 22 -51 32 -63 50 -63 19 0 23 5 23 30 0 16 -9 54 -21 85 -21 56 -41 69 -67 43z"
       id="path58"
       style="fill:#ff3399" />
    <path
       d="M6654 7490 c-29 -12 -31 -15 -48 -101 -27 -141 -27 -138 -6 -149 32 -17 68 -12 84 13 19 28 60 212 52 232 -6 16 -48 19 -82 5z"
       id="path60"
       style="fill:#ff0099" />
    <path
       d="M3651 7443 c1 -75 23 -181 40 -199 32 -31 194 -124 198 -113 5 16 -36 149 -64 206 -15 32 -44 65 -88 101 -35 28 -70 52 -76 52 -7 0 -11 -19 -10 -47z"
       id="path62"
       style="fill:#660000" />
    <path
       d="M3913 7473 c-49 -6 -57 -23 -44 -95 6 -34 15 -66 20 -71 5 -5 26 0 50 13 37 18 42 24 37 48 -3 15 -8 46 -11 70 -4 23 -10 41 -13 40 -4 0 -21 -3 -39 -5z"
       id="path64"
       style="fill:#ff3399" />
    <path
       d="M4983 7363 c-27 -5 -26 -4 -11 -54 10 -37 13 -39 51 -39 36 0 39 2 33 23 -3 12 -6 34 -6 50 0 28 -10 31 -67 20z"
       id="path66"
       style="fill:#330066" />
    <path
       d="M5115 7360 c-11 -18 -8 -82 4 -90 20 -12 104 -21 112 -13 4 5 11 32 15 61 l7 52 -66 0 c-36 0 -68 -4 -72 -10z"
       id="path68"
       style="fill:#330066" />
    <path
       d="M4803 7343 c-23 -4 -28 -20 -17 -60 5 -19 13 -23 43 -23 69 0 81 8 81 51 l0 39 -42 -1 c-24 -1 -53 -4 -65 -6z"
       id="path70"
       style="fill:#330066" />
    <path
       d="M5301 7319 c-18 -52 -14 -67 20 -74 40 -9 59 9 66 64 l6 41 -41 0 c-36 0 -41 -3 -51 -31z"
       id="path72"
       style="fill:#330066" />
    <path
       d="M5445 7317 c-8 -13 -16 -34 -17 -47 -3 -23 1 -25 39 -28 41 -3 42 -2 54 38 7 22 10 42 8 44 -2 2 -19 6 -36 9 -27 5 -36 2 -48 -16z"
       id="path74"
       style="fill:#330066" />
    <path
       d="M4670 7286 c0 -41 21 -60 55 -52 49 12 23 86 -31 86 -21 0 -24 -5 -24 -34z"
       id="path76"
       style="fill:#330066" />
    <path
       d="M5580 7286 c-20 -52 -9 -66 51 -66 24 0 33 6 44 33 16 39 10 47 -44 54 -37 5 -41 3 -51 -21z"
       id="path78"
       style="fill:#330066" />
    <path
       d="M4543 7293 c-19 -4 -23 -11 -23 -38 0 -61 29 -73 108 -44 l23 9 -21 40 c-21 41 -30 44 -87 33z"
       id="path80"
       style="fill:#330066" />
    <path
       d="M3936 7265 l-26 -24 23 -62 c30 -79 44 -89 85 -60 l31 21 -31 75 c-17 41 -36 75 -43 75 -7 0 -24 -11 -39 -25z"
       id="path82"
       style="fill:#ff3399" />
    <path
       d="M5717 7243 c-20 -53 -15 -61 35 -69 33 -6 36 -4 51 35 22 54 22 58 -10 64 -16 3 -35 8 -43 12 -11 4 -20 -7 -33 -42z"
       id="path84"
       style="fill:#330066" />
    <path
       d="M3414 7224 c-142 -101 -318 -262 -388 -353 -90 -118 -122 -201 -77 -201 11 0 22 9 26 19 3 11 25 39 48 63 23 25 65 70 93 101 52 57 144 138 240 212 103 79 213 170 213 177 1 8 -52 38 -67 38 -6 0 -45 -25 -88 -56z"
       id="path86"
       style="fill:#990099" />
    <path
       d="M6855 7239 c-60 -22 -114 -44 -118 -48 -16 -16 -87 -192 -82 -202 4 -5 22 -1 43 10 20 10 82 35 137 56 55 21 104 42 109 46 10 9 56 146 56 167 0 19 -27 14 -145 -29z"
       id="path88"
       style="fill:#660000" />
    <path
       d="M4416 7250 c-26 -11 -50 -21 -53 -24 -3 -2 0 -21 7 -41 11 -34 14 -37 43 -31 17 4 42 13 55 22 20 13 23 21 18 47 -9 45 -15 47 -70 27z"
       id="path90"
       style="fill:#330066" />
    <path
       d="M5856 7210 c-21 -52 -20 -55 7 -67 31 -14 45 -7 68 39 21 41 16 57 -18 58 -6 0 -18 3 -26 6 -10 3 -19 -8 -31 -36z"
       id="path92"
       style="fill:#330066" />
    <path
       d="M5096 7232 c-3 -3 -6 -11 -6 -19 0 -25 72 -197 106 -255 19 -32 51 -86 71 -120 147 -247 338 -460 525 -583 70 -47 98 -54 117 -31 9 10 -17 37 -126 128 -144 121 -288 261 -346 338 -78 104 -220 372 -256 482 -7 20 -17 41 -24 46 -16 12 -54 21 -61 14z"
       id="path94"
       style="fill:#0066ff" />
    <path
       d="M4800 7205 c-167 -40 -264 -67 -294 -82 -15 -8 -38 -16 -50 -17 -11 -2 -28 -6 -36 -9 -8 -3 -46 -15 -85 -27 -38 -12 -90 -36 -115 -54 -44 -32 -93 -51 -117 -47 -6 1 -17 -7 -25 -17 -7 -10 -39 -40 -72 -66 -155 -126 -257 -220 -395 -364 -82 -86 -147 -160 -145 -164 3 -4 31 -8 62 -8 82 0 319 -19 447 -36 161 -21 225 -35 241 -52 8 -7 21 -11 30 -8 21 8 116 -42 209 -111 101 -75 141 -113 195 -188 24 -33 61 -81 82 -106 44 -53 169 -278 199 -358 20 -53 82 -253 101 -321 25 -95 94 -420 103 -487 12 -90 39 -81 51 17 9 79 50 349 69 460 41 230 241 711 340 817 24 26 54 58 66 70 11 13 50 44 85 70 35 26 64 52 64 58 0 16 -33 44 -110 95 -212 140 -545 597 -630 865 -13 39 -27 76 -33 83 -15 19 -129 13 -237 -13z m5 -95 c3 -5 -1 -10 -9 -10 -9 0 -16 5 -16 10 0 6 4 10 9 10 6 0 13 -4 16 -10z m93 -22 c18 -18 15 -28 -8 -28 -13 0 -20 7 -20 20 0 23 10 26 28 8z m117 -19 c10 -15 -1 -23 -20 -15 -9 3 -13 10 -10 16 8 13 22 13 30 -1z m-291 -8 c3 -5 0 -11 -8 -14 -15 -6 -26 1 -26 15 0 11 27 10 34 -1z m-204 -62 c0 -6 -4 -7 -10 -4 -5 3 -10 11 -10 16 0 6 5 7 10 4 6 -3 10 -11 10 -16z m-190 -50 c0 -5 -4 -9 -10 -9 -5 0 -10 7 -10 16 0 8 5 12 10 9 6 -3 10 -10 10 -16z m478 2 c3 -8 -1 -12 -9 -9 -7 2 -15 10 -17 17 -3 8 1 12 9 9 7 -2 15 -10 17 -17z m267 -20 c3 -5 1 -12 -5 -16 -5 -3 -10 1 -10 9 0 18 6 21 15 7z m-110 -10 c3 -5 1 -13 -5 -16 -15 -9 -43 3 -35 15 8 13 32 13 40 1z m-469 -48 c-10 -10 -19 5 -10 18 6 11 8 11 12 0 2 -7 1 -15 -2 -18z m209 -13 c3 -5 -1 -10 -9 -10 -9 0 -16 5 -16 10 0 6 4 10 9 10 6 0 13 -4 16 -10z m-495 -40 c0 -5 -4 -10 -10 -10 -5 0 -10 5 -10 10 0 6 5 10 10 10 6 0 10 -4 10 -10z m862 -25 c0 -5 -5 -11 -11 -13 -6 -2 -11 4 -11 13 0 9 5 15 11 13 6 -2 11 -8 11 -13z m-177 -25 c3 -5 1 -10 -4 -10 -6 0 -11 5 -11 10 0 6 2 10 4 10 3 0 8 -4 11 -10z m280 -119 c3 -5 1 -12 -4 -15 -5 -3 -11 1 -15 9 -6 16 9 21 19 6z m-405 -51 c0 -5 -4 -10 -10 -10 -5 0 -10 5 -10 10 0 6 5 10 10 10 6 0 10 -4 10 -10z m145 -20 c3 -5 1 -10 -4 -10 -6 0 -11 5 -11 10 0 6 2 10 4 10 3 0 8 -4 11 -10z m170 -78 c-3 -3 -11 0 -18 7 -9 10 -8 11 6 5 10 -3 15 -9 12 -12z m115 -176 c0 -3 -4 -8 -10 -11 -5 -3 -10 -1 -10 4 0 6 5 11 10 11 6 0 10 -2 10 -4z m135 -286 c3 -5 2 -10 -4 -10 -5 0 -13 5 -16 10 -3 6 -2 10 4 10 5 0 13 -4 16 -10z"
       id="path96"
       style="fill:#3333ff" />
    <path
       d="M3562 7166 c-218 -153 -472 -390 -550 -513 l-34 -52 23 -41 c27 -48 42 -50 60 -7 54 135 273 356 547 552 45 33 82 63 82 67 0 9 -42 38 -55 38 -6 0 -39 -20 -73 -44z"
       id="path98"
       style="fill:#990099" />
    <path
       d="M4272 7201 c-10 -6 -12 -19 -5 -52 9 -48 30 -60 57 -34 15 15 15 35 0 83 -4 14 -33 16 -52 3z"
       id="path100"
       style="fill:#330066" />
    <path
       d="M5223 7180 c4 -18 27 -75 51 -126 126 -265 272 -456 474 -616 40 -32 103 -83 141 -113 56 -45 75 -55 107 -55 49 0 189 43 189 59 0 6 -22 26 -50 44 -27 19 -79 53 -115 77 -36 24 -124 103 -195 174 -141 141 -239 276 -331 455 -27 52 -58 100 -69 107 -11 7 -62 16 -114 20 l-94 7 6 -33z"
       id="path102"
       style="fill:#0066ff" />
    <path
       d="M6569 7193 c-8 -10 -21 -36 -27 -58 -11 -36 -10 -42 9 -57 25 -21 52 -23 67 -5 15 18 47 115 40 122 -3 3 -21 8 -39 11 -26 4 -38 1 -50 -13z"
       id="path104"
       style="fill:#ff0099" />
    <path
       d="M7668 7199 c-10 -5 -75 -34 -145 -65 -131 -56 -273 -132 -273 -145 0 -11 120 -109 134 -109 7 0 27 12 44 28 71 63 264 255 278 278 15 22 15 24 -2 24 -11 0 -27 -5 -36 -11z"
       id="path106"
       style="fill:#990099" />
    <path
       d="M5971 7164 c-12 -20 -21 -44 -19 -52 4 -21 89 -46 101 -29 15 23 37 66 37 74 0 7 -76 43 -92 43 -3 0 -16 -16 -27 -36z"
       id="path108"
       style="fill:#330066" />
    <path
       d="M5528 7173 c-28 -7 -22 -28 37 -132 148 -261 334 -464 557 -607 119 -76 168 -97 228 -98 62 0 263 12 329 20 63 8 40 24 -89 64 -182 56 -396 153 -515 233 -67 46 -156 132 -231 222 -62 74 -148 194 -169 234 -22 44 -99 77 -147 64z"
       id="path110"
       style="fill:#0066ff" />
    <path
       d="M4129 7131 l-23 -19 18 -41 c11 -22 21 -41 24 -41 2 0 22 10 43 22 43 24 47 37 23 73 -20 30 -53 32 -85 6z"
       id="path112"
       style="fill:#330066" />
    <path
       d="M3678 7097 c-29 -24 -73 -56 -97 -72 -25 -15 -90 -67 -145 -115 -180 -157 -292 -288 -345 -407 l-24 -51 38 -69 c20 -37 41 -72 47 -78 11 -12 29 9 138 160 89 124 238 285 263 285 9 0 17 7 17 15 0 8 3 15 8 15 4 0 41 30 82 66 41 37 112 91 158 122 45 30 81 60 79 66 -5 16 -130 104 -149 105 -9 1 -40 -19 -70 -42z m-224 -303 c8 -21 -20 -54 -46 -54 -13 0 -18 7 -18 28 0 16 3 32 7 35 13 13 51 7 57 -9z"
       id="path114"
       style="fill:#990099" />
    <path
       d="M6133 7097 c-34 -50 -29 -73 19 -90 13 -5 25 4 43 31 14 20 25 42 25 49 0 10 -48 43 -62 43 -2 0 -13 -15 -25 -33z"
       id="path116"
       style="fill:#330066" />
    <path
       d="M5730 7102 c1 -24 145 -215 235 -310 116 -123 295 -222 574 -316 215 -73 240 -73 176 2 -49 56 -118 99 -200 124 -84 25 -301 131 -388 190 -84 56 -163 137 -225 230 -28 42 -57 80 -63 83 -5 4 -33 9 -60 10 -41 3 -49 1 -49 -13z"
       id="path118"
       style="fill:#0066ff" />
    <path
       d="M6988 7068 c-27 -11 -48 -24 -48 -29 0 -4 45 -31 99 -59 100 -51 119 -67 282 -237 30 -32 66 -75 78 -95 26 -44 42 -48 60 -14 18 32 9 52 -62 150 -73 98 -142 174 -189 207 -18 12 -53 40 -77 61 -50 44 -73 46 -143 16z"
       id="path120"
       style="fill:#990099" />
    <path
       d="M4028 7049 c-52 -38 -25 -94 31 -65 40 21 46 33 30 62 -15 29 -26 30 -61 3z"
       id="path122"
       style="fill:#330066" />
    <path
       d="M6250 7030 c-36 -45 -35 -58 7 -82 l30 -17 32 40 c37 45 35 61 -8 83 -29 16 -30 15 -61 -24z"
       id="path124"
       style="fill:#330066" />
    <path
       d="M5930 7043 c0 -5 24 -37 53 -73 71 -88 208 -189 346 -255 120 -58 141 -64 141 -40 0 33 -92 112 -260 223 -96 64 -177 119 -180 123 -18 22 -100 41 -100 22z"
       id="path126"
       style="fill:#0066ff" />
    <path
       d="M6502 7030 c-18 -29 -15 -58 7 -70 31 -16 40 -12 61 23 25 41 25 41 -5 55 -36 17 -48 15 -63 -8z"
       id="path128"
       style="fill:#ff0099" />
    <path
       d="M6848 7017 c-16 -6 -28 -16 -28 -22 0 -6 39 -33 88 -60 48 -26 112 -65 142 -86 83 -56 207 -205 261 -311 16 -32 31 -58 34 -58 3 0 16 18 31 39 l26 39 -27 48 c-45 80 -80 125 -167 214 -70 73 -101 95 -200 148 -64 34 -120 62 -125 61 -4 -1 -20 -6 -35 -12z"
       id="path130"
       style="fill:#990099" />
    <path
       d="M3922 6974 c-27 -18 -28 -35 -4 -64 l17 -22 28 26 c31 29 31 42 1 63 -17 11 -23 10 -42 -3z"
       id="path132"
       style="fill:#330066" />
    <path
       d="M6747 6973 c-28 -7 -141 -70 -145 -81 -1 -5 23 -29 55 -55 32 -25 80 -66 107 -92 27 -26 65 -58 85 -73 82 -59 259 -260 316 -359 11 -18 22 -33 25 -33 4 0 30 32 59 71 l53 71 -17 64 c-19 70 -38 102 -134 223 -66 84 -115 125 -216 180 -33 18 -73 43 -90 56 -33 24 -70 35 -98 28z m343 -298 c25 -31 -33 -71 -65 -45 -19 16 -19 35 0 53 16 16 48 12 65 -8z"
       id="path134"
       style="fill:#990099" />
    <path
       d="M6399 6957 c-76 -59 -74 -57 -56 -74 15 -16 19 -15 54 14 36 29 50 63 28 69 -5 2 -17 -2 -26 -9z"
       id="path136"
       style="fill:#330066" />
    <path
       d="M3825 6909 c-11 -17 5 -79 19 -79 8 0 21 11 29 24 14 21 14 26 1 45 -16 23 -39 28 -49 10z"
       id="path138"
       style="fill:#330066" />
    <path
       d="M6441 6872 l-43 -38 32 -27 c17 -15 39 -27 48 -27 21 0 92 47 92 61 0 12 -62 68 -75 68 -5 0 -30 -17 -54 -37z"
       id="path140"
       style="fill:#330066" />
    <path
       d="M3742 6848 c-17 -17 -15 -42 6 -68 l18 -22 24 20 c24 20 25 21 8 49 -19 32 -38 39 -56 21z"
       id="path142"
       style="fill:#330066" />
    <path
       d="M6568 6772 c-45 -32 -47 -44 -12 -71 35 -28 48 -26 85 7 l32 29 -23 31 c-13 18 -29 32 -34 32 -6 -1 -28 -13 -48 -28z"
       id="path144"
       style="fill:#330066" />
    <path
       d="M3647 6772 c-22 -25 -21 -44 4 -76 l21 -26 28 22 c35 28 36 32 9 69 -24 34 -39 36 -62 11z"
       id="path146"
       style="fill:#330066" />
    <path
       d="M3536 6667 c-32 -42 -32 -45 2 -86 l28 -34 32 43 c38 53 40 72 7 94 -34 22 -40 21 -69 -17z"
       id="path148"
       style="fill:#330066" />
    <path
       d="M6673 6679 c-18 -12 -33 -24 -33 -29 0 -4 15 -19 33 -33 l34 -26 31 20 c37 22 40 37 12 67 -26 27 -36 27 -77 1z"
       id="path150"
       style="fill:#330066" />
    <path
       d="M6783 6588 c-38 -23 -41 -38 -13 -63 19 -17 21 -17 60 0 46 21 49 33 17 63 -27 26 -23 26 -64 0z"
       id="path152"
       style="fill:#330066" />
    <path
       d="M2726 6553 c-7 -8 59 -129 87 -160 11 -13 28 -23 36 -23 13 0 125 -32 204 -57 27 -9 21 8 -40 114 -61 106 -69 115 -96 107 -9 -3 -32 -1 -50 4 -42 13 -133 22 -141 15z"
       id="path154"
       style="fill:#660000" />
    <path
       d="M3425 6534 c-20 -31 -16 -45 19 -63 24 -14 28 -13 56 14 17 16 30 32 30 37 0 10 -54 38 -73 38 -8 0 -22 -12 -32 -26z"
       id="path156"
       style="fill:#330066" />
    <path
       d="M6858 6492 c-33 -20 -34 -22 -8 -50 25 -27 31 -27 81 -1 l41 20 -23 25 c-26 28 -53 30 -91 6z"
       id="path158"
       style="fill:#330066" />
    <path
       d="M7512 6485 c-57 -6 -107 -16 -111 -21 -31 -35 -101 -145 -97 -152 3 -5 56 -3 118 4 62 7 116 13 120 13 3 1 29 33 58 71 49 66 59 102 28 99 -7 -1 -59 -7 -116 -14z"
       id="path160"
       style="fill:#660000" />
    <path
       d="M3335 6430 c-16 -16 -27 -31 -24 -34 33 -29 86 -33 105 -8 20 26 17 40 -16 57 -37 19 -31 20 -65 -15z"
       id="path162"
       style="fill:#330066" />
    <path
       d="M6933 6393 c-40 -28 -29 -43 32 -43 57 0 63 6 45 41 -13 23 -46 24 -77 2z"
       id="path164"
       style="fill:#330066" />
    <path
       d="M2425 6351 c-25 -5 -29 -11 -27 -31 6 -40 22 -47 110 -53 75 -5 82 -4 82 13 0 68 -60 94 -165 71z"
       id="path166"
       style="fill:#ff3399" />
    <path
       d="M1997 6341 c-20 -5 -40 -11 -43 -14 -6 -5 106 -141 131 -159 23 -17 85 21 85 51 -1 9 -16 41 -34 71 -28 49 -36 55 -67 57 -19 0 -51 -2 -72 -6z"
       id="path168"
       style="fill:#ff3399" />
    <path
       d="M2140 6331 c0 -35 48 -55 143 -59 l87 -4 0 29 c0 47 -14 53 -127 53 -94 0 -103 -2 -103 -19z"
       id="path170"
       style="fill:#ff3399" />
    <path
       d="M2610 6336 c0 -25 21 -74 35 -80 7 -2 52 -8 98 -12 l84 -7 5 34 c3 19 4 39 1 45 -10 27 -223 47 -223 20z"
       id="path172"
       style="fill:#ff3399" />
    <path
       d="M3275 6339 c-11 -5 -31 -26 -44 -46 l-24 -37 29 -23 c16 -13 32 -23 35 -23 13 0 80 113 75 126 -6 16 -41 17 -71 3z"
       id="path174"
       style="fill:#330066" />
    <path
       d="M3391 6289 c-84 -91 -213 -338 -236 -451 -8 -42 -15 -84 -15 -93 0 -28 25 -15 72 39 50 57 220 172 355 240 116 58 330 133 436 152 46 8 54 19 26 34 -35 19 -258 80 -292 80 -18 0 -50 7 -72 14 -22 8 -84 17 -137 21 l-97 7 -40 -43z"
       id="path176"
       style="fill:#3333ff" />
    <path
       d="M2877 6313 c-4 -3 -7 -25 -7 -49 0 -42 1 -42 40 -49 47 -8 70 5 70 41 0 16 -9 28 -27 37 -40 21 -68 28 -76 20z"
       id="path178"
       style="fill:#ff3399" />
    <path
       d="M6699 6296 c-2 -3 -74 -9 -160 -15 -160 -11 -229 -21 -311 -48 -65 -20 -62 -39 10 -53 301 -60 407 -93 641 -201 95 -44 176 -78 179 -75 7 8 -27 107 -47 136 -10 14 -39 67 -66 117 -63 124 -86 143 -174 143 -37 0 -70 -2 -72 -4z"
       id="path180"
       style="fill:#3333ff" />
    <path
       d="M6948 6293 c-22 -6 -22 -5 3 -54 l20 -41 52 7 c29 4 53 9 55 10 5 5 -30 69 -42 77 -12 8 -60 9 -88 1z"
       id="path182"
       style="fill:#330066" />
    <path
       d="M7366 6258 c-25 -9 -27 -14 -22 -41 3 -17 8 -33 11 -35 2 -2 46 2 97 9 l93 14 3 33 3 32 -78 -1 c-43 0 -91 -5 -107 -11z"
       id="path184"
       style="fill:#ff0099" />
    <path
       d="M7587 6238 c-2 -18 -3 -36 0 -40 2 -5 35 -8 73 -8 63 0 71 2 86 25 29 44 14 55 -75 55 l-79 0 -5 -32z"
       id="path186"
       style="fill:#ff0099" />
    <path
       d="M3022 6238 c-22 -22 -13 -47 26 -67 l39 -20 16 28 c17 30 13 42 -20 60 -28 14 -46 14 -61 -1z"
       id="path188"
       style="fill:#ff3399" />
    <path
       d="M7802 6238 c-7 -7 -12 -25 -12 -40 0 -25 4 -28 33 -28 17 0 48 -3 68 -6 29 -5 41 -2 58 15 34 34 26 46 -37 59 -73 15 -95 15 -110 0z"
       id="path190"
       style="fill:#ff0099" />
    <path
       d="M2210 6223 c0 -25 76 -108 189 -206 58 -50 153 -134 211 -185 139 -124 246 -206 262 -199 11 4 64 166 56 171 -2 1 -37 17 -79 35 -97 41 -253 156 -257 190 -2 13 2 28 10 32 26 17 210 10 286 -11 94 -26 127 -26 146 2 21 30 20 65 -3 77 -22 12 -219 57 -311 70 -36 6 -148 15 -250 21 -102 6 -202 12 -222 14 -29 3 -38 0 -38 -11z"
       id="path192"
       style="fill:#660000" />
    <path
       d="M7236 6204 c-19 -18 -19 -16 -6 -48 11 -31 25 -32 68 -6 32 20 32 21 16 45 -19 29 -55 33 -78 9z"
       id="path194"
       style="fill:#ff0099" />
    <path
       d="M3141 6141 c-17 -32 -31 -63 -31 -69 0 -13 54 -32 67 -23 5 3 24 31 41 62 31 54 31 57 14 73 -35 31 -57 20 -91 -43z"
       id="path196"
       style="fill:#330066" />
    <path
       d="M8019 6184 c-31 -37 55 -83 158 -83 53 -1 85 10 71 24 -5 6 -199 75 -209 75 -3 0 -12 -7 -20 -16z"
       id="path198"
       style="fill:#ff0099" />
    <path
       d="M4100 6160 c-19 -5 -82 -18 -140 -30 -351 -74 -742 -318 -857 -536 -75 -140 -105 -615 -53 -839 10 -44 24 -127 30 -185 15 -122 23 -152 44 -144 53 20 397 -161 536 -283 58 -50 172 -133 184 -133 7 0 10 20 8 59 -3 53 -1 60 24 80 19 15 41 21 74 21 59 0 103 -36 119 -98 10 -35 24 -51 84 -97 40 -30 86 -65 102 -79 61 -49 224 -126 370 -174 284 -94 496 -124 711 -103 140 14 392 76 490 121 98 44 246 146 339 233 44 41 95 87 113 102 28 23 33 33 28 57 -13 64 51 138 119 138 16 0 41 -14 67 -38 35 -33 41 -44 41 -81 0 -36 -6 -49 -39 -82 -37 -39 -41 -40 -85 -35 l-46 6 -124 -106 c-178 -151 -276 -223 -371 -271 -101 -50 -257 -109 -341 -128 -34 -8 -82 -19 -107 -26 -108 -28 -416 -10 -591 35 -133 33 -386 149 -498 227 -51 35 -147 99 -214 142 -108 69 -126 78 -157 73 -19 -3 -43 -6 -52 -6 -30 0 -21 -17 44 -82 94 -96 156 -174 188 -239 17 -32 30 -63 30 -68 0 -6 14 -31 31 -56 44 -66 135 -271 179 -405 37 -115 37 -115 76 -127 21 -7 95 -31 164 -52 311 -100 596 -121 855 -66 39 8 102 15 140 15 127 0 302 61 435 149 47 32 132 84 190 117 58 34 123 72 146 86 111 71 338 285 393 372 22 35 62 88 89 119 62 71 161 239 202 343 18 43 43 103 56 132 13 29 24 59 24 68 0 8 12 43 26 77 15 34 33 87 39 117 7 30 31 125 53 210 53 206 54 263 6 536 -20 115 -40 241 -45 279 -13 102 -87 252 -154 314 -49 44 -160 111 -185 111 -6 0 -63 24 -125 54 -62 30 -144 64 -182 75 -37 12 -76 26 -85 32 -10 5 -27 9 -37 9 -11 0 -64 11 -118 24 -54 13 -137 30 -184 36 l-85 13 -67 -34 c-37 -18 -67 -38 -67 -45 0 -13 32 -24 74 -24 44 0 492 -115 510 -131 12 -11 -53 -3 -120 15 -254 67 -481 106 -538 92 -29 -7 -78 -45 -71 -56 3 -4 38 -11 77 -15 202 -19 552 -84 595 -111 12 -8 36 -14 53 -14 37 0 101 -25 233 -91 54 -27 106 -49 117 -49 27 0 63 -55 56 -84 -3 -13 -26 -51 -51 -85 -25 -33 -45 -67 -45 -74 0 -6 18 -39 40 -72 21 -32 37 -61 35 -63 -3 -3 -29 14 -60 37 -30 23 -61 44 -68 46 -19 8 -87 -53 -87 -78 0 -12 11 -58 25 -101 14 -43 25 -81 25 -83 0 -2 -28 27 -61 66 -67 77 -93 87 -129 51 -23 -23 -23 -23 -11 -87 36 -184 46 -226 57 -230 7 -3 39 8 71 24 52 25 68 28 158 28 116 0 165 -13 232 -59 66 -45 103 -117 103 -197 0 -62 -27 -154 -57 -197 -10 -14 -22 -32 -28 -40 -33 -51 -151 -133 -185 -130 -14 1 -32 -2 -40 -7 -20 -13 -131 -7 -197 10 -83 22 -141 64 -186 135 -44 69 -15 251 53 340 14 19 29 43 33 54 13 34 -125 260 -175 287 -14 8 -25 6 -43 -5 l-23 -15 28 -97 c29 -96 47 -184 37 -174 -15 15 -100 146 -130 201 l-35 64 -50 3 c-32 2 -53 -2 -60 -10 -6 -8 -18 -50 -27 -93 -9 -44 -18 -81 -19 -83 -3 -2 -21 79 -31 139 -7 45 -23 59 -73 66 l-40 5 -46 -71 c-25 -39 -48 -71 -52 -71 -4 0 -3 15 0 33 4 17 8 59 8 92 0 53 -2 61 -28 82 -39 31 -74 40 -85 21 -4 -8 -18 -26 -29 -39 -17 -18 -20 -20 -16 -6 3 10 9 36 12 58 6 33 4 40 -15 47 -24 9 -150 104 -151 113 -1 18 33 14 100 -13 85 -34 248 -81 360 -103 205 -41 418 6 565 124 28 23 74 57 102 77 56 39 143 137 143 160 0 8 -8 17 -17 21 -10 3 -49 20 -88 38 -38 18 -88 36 -111 39 -22 4 -85 21 -140 37 -54 17 -120 34 -146 39 -27 5 -54 12 -60 16 -7 5 -26 7 -43 5 -17 -1 -51 3 -75 8 -25 6 -112 18 -193 26 -183 18 -185 17 -288 -93 -91 -96 -158 -219 -221 -400 -82 -239 -82 -237 -104 -549 -13 -174 21 -368 110 -632 54 -160 56 -155 -66 -221 -50 -27 -68 -31 -131 -31 -93 0 -115 5 -202 48 -73 36 -135 87 -135 111 0 8 29 67 65 132 103 183 147 385 120 545 -23 133 -76 356 -95 400 -5 11 -24 65 -41 120 -43 135 -143 320 -214 396 -31 34 -63 72 -71 85 -9 13 -40 35 -69 49 -48 24 -63 26 -186 26 -152 1 -392 -35 -569 -86 -30 -8 -62 -13 -71 -10 -10 3 -21 0 -26 -8 -4 -7 -50 -31 -102 -53 -52 -21 -96 -44 -98 -50 -4 -12 88 -131 148 -194 89 -91 190 -171 257 -201 146 -65 258 -83 437 -69 117 9 123 11 230 64 68 34 125 70 150 95 22 22 45 41 51 41 17 0 25 -29 15 -48 -16 -29 -155 -158 -190 -176 -32 -17 -33 -20 -27 -62 7 -54 -7 -57 -35 -9 -24 41 -25 41 -104 15 -68 -23 -75 -31 -69 -77 2 -18 6 -49 8 -68 4 -29 2 -35 -14 -35 -22 0 -28 15 -36 86 -5 40 -12 58 -26 65 -14 8 -23 8 -31 0 -6 -6 -28 -11 -48 -11 -20 0 -41 -6 -46 -12 -6 -7 -16 -49 -23 -93 -16 -99 -26 -121 -46 -104 -10 8 -14 35 -14 98 0 47 -4 92 -8 98 -5 7 -33 18 -64 24 -72 15 -90 3 -163 -107 l-54 -79 55 -50 c65 -60 84 -103 84 -191 0 -140 -58 -241 -162 -282 -154 -60 -265 -56 -371 14 -43 28 -92 119 -103 190 -14 92 54 249 127 293 47 29 200 54 275 46 34 -3 64 -2 67 2 10 15 47 161 47 182 0 23 -28 41 -62 41 -28 0 -131 -88 -154 -131 -15 -29 -44 -40 -44 -16 0 6 21 53 47 104 47 90 47 92 29 112 -11 12 -25 21 -33 21 -17 0 -84 -42 -102 -64 -14 -17 -51 -22 -51 -7 0 4 15 28 33 52 57 74 59 83 36 113 -38 48 -56 51 -97 19 -44 -36 -82 -56 -89 -50 -3 3 14 33 37 67 l42 62 -28 24 c-16 13 -32 23 -36 24 -4 0 -22 21 -39 47 l-32 47 35 30 c97 84 552 260 625 241 13 -3 23 -1 23 3 0 18 211 50 383 59 65 3 120 9 122 14 3 4 -9 19 -26 33 -24 20 -41 26 -80 26 -54 0 -307 -39 -455 -70 -51 -10 -128 -22 -171 -25 -73 -5 -76 -4 -47 9 17 8 77 24 135 35 57 11 136 28 174 36 39 9 121 24 183 34 62 9 117 22 123 28 12 12 -26 43 -93 73 -46 21 -63 22 -118 10z m3031 -855 c1 -17 -18 -17 -25 0 -4 11 -1 15 10 13 8 -2 15 -7 15 -13z m-3913 -59 c3 -12 -1 -17 -10 -14 -7 3 -15 13 -16 22 -3 12 1 17 10 14 7 -3 15 -13 16 -22z m3832 -42 c0 -8 -4 -14 -9 -14 -12 0 -32 26 -25 33 10 9 34 -4 34 -19z m120 -24 c0 -5 -4 -10 -10 -10 -5 0 -10 5 -10 10 0 6 5 10 10 10 6 0 10 -4 10 -10z m-3860 -96 c0 -9 -5 -14 -12 -12 -18 6 -21 28 -4 28 9 0 16 -7 16 -16z m-82 -86 c-3 -7 -11 -13 -18 -13 -7 0 -15 6 -17 13 -3 7 4 12 17 12 13 0 20 -5 18 -12z m3510 -1001 c2 -10 -3 -17 -12 -17 -18 0 -29 16 -21 31 9 14 29 6 33 -14z m-348 -183 c0 -14 -21 -19 -33 -7 -9 9 13 34 24 27 5 -3 9 -12 9 -20z m240 -88 c0 -3 -4 -8 -10 -11 -5 -3 -10 -1 -10 4 0 6 5 11 10 11 6 0 10 -2 10 -4z m-218 -161 c0 -5 -5 -11 -11 -13 -6 -2 -11 4 -11 13 0 9 5 15 11 13 6 -2 11 -8 11 -13z m-908 -106 c-8 -13 -24 -1 -24 18 0 13 3 13 15 3 8 -7 12 -16 9 -21z m451 21 c11 -17 -5 -32 -21 -19 -8 6 -14 15 -14 20 0 12 27 11 35 -1z m-305 -40 c0 -5 -4 -10 -10 -10 -5 0 -10 5 -10 10 0 6 5 10 10 10 6 0 10 -4 10 -10z m-960 -20 c0 -5 -2 -10 -4 -10 -3 0 -8 5 -11 10 -3 6 -1 10 4 10 6 0 11 -4 11 -10z m708 -13 c59 -21 99 -50 154 -115 74 -85 73 -133 -3 -210 -68 -69 -166 -100 -349 -112 -113 -7 -127 -6 -145 10 -11 10 -39 23 -63 30 -35 9 -49 20 -73 57 -39 63 -37 97 10 170 52 81 139 142 261 184 36 12 157 4 208 -14z m858 -14 c-10 -10 -19 5 -10 18 6 11 8 11 12 0 2 -7 1 -15 -2 -18z m124 18 c0 -12 -20 -25 -27 -18 -7 7 6 27 18 27 5 0 9 -4 9 -9z m-1562 -60 c3 -8 -1 -12 -9 -9 -7 2 -15 10 -17 17 -3 8 1 12 9 9 7 -2 15 -10 17 -17z m-380 -20 c3 -8 -1 -12 -9 -9 -7 2 -15 10 -17 17 -3 8 1 12 9 9 7 -2 15 -10 17 -17z m298 -59 c-9 -9 -37 8 -31 18 5 8 11 7 21 -1 8 -6 12 -14 10 -17z m1299 -40 c-8 -8 -25 10 -19 20 4 6 9 5 15 -3 4 -7 6 -15 4 -17z m-225 -3 c0 -5 -7 -9 -15 -9 -15 0 -20 12 -9 23 8 8 24 -1 24 -14z m-1256 -70 c-6 -11 -24 -2 -24 11 0 5 7 7 15 4 8 -4 12 -10 9 -15z m1334 -37 c2 -7 -3 -12 -12 -12 -9 0 -16 7 -16 16 0 17 22 14 28 -4z m-178 -21 c0 -13 -11 -20 -26 -14 -8 3 -14 14 -14 24 0 17 3 18 20 9 11 -6 20 -14 20 -19z m-972 -50 c3 -8 -1 -12 -9 -9 -7 2 -15 10 -17 17 -3 8 1 12 9 9 7 -2 15 -10 17 -17z m892 -36 c10 -13 9 -15 -9 -15 -12 0 -21 6 -21 15 0 8 4 15 9 15 5 0 14 -7 21 -15z m180 0 c0 -8 -4 -15 -9 -15 -5 0 -11 7 -15 15 -3 9 0 15 9 15 8 0 15 -7 15 -15z"
       id="path200"
       style="fill:#0000ff" />
    <path
       d="M5173 3376 c-100 -32 -234 -152 -247 -219 -7 -38 4 -76 26 -95 8 -6 50 -21 94 -32 197 -49 429 -3 487 98 22 40 8 48 -40 24 -39 -20 -92 -34 -202 -52 -106 -19 -211 22 -211 81 0 31 68 95 115 108 69 19 103 14 137 -19 25 -25 28 -33 18 -45 -18 -22 -50 -19 -50 4 0 34 -76 35 -138 2 -20 -10 -47 -69 -37 -80 20 -19 149 -22 220 -4 75 18 179 72 183 95 6 31 -46 84 -111 114 -73 33 -177 42 -244 20z"
       id="path202"
       style="fill:#9966cc" />
    <path
       d="M7050 6157 c-49 -15 -59 -31 -37 -60 11 -14 18 -15 75 -3 35 8 66 16 69 19 3 3 -3 17 -14 31 -19 27 -38 30 -93 13z"
       id="path204"
       style="fill:#330066" />
    <path
       d="M7426 6155 c-85 -15 -172 -53 -169 -76 1 -8 12 -50 25 -94 27 -90 23 -88 118 -60 54 15 74 19 259 50 148 25 154 12 49 -91 -92 -90 -113 -103 -223 -147 -49 -20 -91 -41 -93 -46 -5 -16 61 -183 75 -188 32 -12 245 158 318 255 24 31 98 111 164 177 67 66 121 125 121 131 0 22 -67 44 -191 64 -103 16 -349 42 -369 39 -3 -1 -40 -7 -84 -14z"
       id="path206"
       style="fill:#660000" />
    <path
       d="M2156 6126 l-30 -23 48 -61 c26 -34 51 -62 56 -62 5 0 23 12 42 27 18 15 35 28 37 30 9 6 -93 113 -108 113 -9 0 -29 -11 -45 -24z"
       id="path208"
       style="fill:#ff3399" />
    <path
       d="M7108 6052 c-26 -9 -49 -20 -53 -23 -10 -11 33 -97 54 -109 16 -8 33 -7 68 3 44 13 48 17 46 43 -2 46 -31 104 -51 103 -9 0 -38 -8 -64 -17z"
       id="path210"
       style="fill:#330066" />
    <path
       d="M8134 6036 c-40 -18 -104 -74 -104 -93 0 -21 79 -54 102 -42 19 10 118 129 118 141 0 13 -83 8 -116 -6z"
       id="path212"
       style="fill:#ff0099" />
    <path
       d="M3051 5969 c-20 -42 -22 -52 -10 -60 13 -8 77 -6 82 2 34 61 35 72 5 93 -36 26 -52 19 -77 -35z"
       id="path214"
       style="fill:#330066" />
    <path
       d="M2302 5970 c-23 -17 -42 -34 -42 -39 0 -5 19 -30 43 -56 28 -31 47 -44 57 -40 8 4 32 29 53 56 l37 49 -41 30 c-23 16 -47 30 -54 30 -7 0 -31 -14 -53 -30z"
       id="path216"
       style="fill:#ff3399" />
    <path
       d="M2437 5852 c-20 -21 -37 -43 -37 -50 0 -6 24 -29 54 -51 30 -23 57 -45 61 -51 14 -22 34 -8 50 35 10 24 15 54 11 67 -5 19 -82 88 -97 88 -3 0 -22 -17 -42 -38z"
       id="path218"
       style="fill:#ff3399" />
    <path
       d="M7173 5870 c-24 -11 -43 -23 -43 -28 0 -16 46 -52 66 -52 18 0 84 35 84 44 0 3 -4 16 -10 30 -12 31 -37 33 -97 6z"
       id="path220"
       style="fill:#330066" />
    <path
       d="M7935 5854 c-15 -19 -25 -36 -24 -38 2 -1 23 -17 45 -34 23 -18 44 -32 47 -32 2 0 23 17 46 38 57 52 55 75 -10 90 -71 17 -73 16 -104 -24z"
       id="path222"
       style="fill:#ff0099" />
    <path
       d="M3023 5860 c-13 -5 -26 -24 -32 -47 -13 -46 1 -64 50 -66 38 -2 55 21 61 83 3 33 1 35 -27 37 -16 1 -40 -2 -52 -7z"
       id="path224"
       style="fill:#330066" />
    <path
       d="M7253 5763 c-27 -14 -32 -22 -35 -62 -3 -25 -1 -50 3 -54 5 -7 87 30 106 47 5 4 -26 81 -33 82 -5 2 -23 -4 -41 -13z"
       id="path226"
       style="fill:#330066" />
    <path
       d="M7825 5738 c-60 -70 -61 -75 -19 -93 20 -8 47 -15 61 -15 32 0 109 71 100 93 -6 15 -76 57 -96 57 -5 0 -26 -19 -46 -42z"
       id="path228"
       style="fill:#ff0099" />
    <path
       d="M2606 5717 c-9 -23 -16 -50 -16 -58 0 -17 60 -79 77 -79 12 0 63 70 63 87 0 12 -85 93 -98 93 -5 0 -17 -19 -26 -43z"
       id="path230"
       style="fill:#ff3399" />
    <path
       d="M2956 5708 c-14 -49 -26 -97 -26 -105 0 -9 64 -33 87 -33 14 0 48 119 37 129 -5 5 -28 12 -51 16 -32 5 -44 3 -47 -7z"
       id="path232"
       style="fill:#330066" />
    <path
       d="M2746 5599 c-19 -23 -33 -45 -31 -50 3 -4 30 -20 60 -35 62 -32 72 -28 81 28 6 31 2 38 -34 66 l-40 32 -36 -41z"
       id="path234"
       style="fill:#ff3399" />
    <path
       d="M7281 5614 c-29 -24 -32 -31 -26 -63 4 -20 11 -40 15 -45 10 -10 85 8 94 22 10 16 -20 107 -36 110 -8 2 -30 -9 -47 -24z"
       id="path236"
       style="fill:#330066" />
    <path
       d="M7688 5593 c-61 -51 -63 -65 -9 -93 l40 -20 55 46 c31 25 56 49 56 54 0 12 -65 40 -90 40 -10 0 -33 -12 -52 -27z"
       id="path238"
       style="fill:#ff0099" />
    <path
       d="M2450 5539 c-52 -22 -98 -43 -103 -48 -7 -7 73 -77 120 -105 7 -4 60 5 117 19 58 14 110 25 115 25 5 0 22 5 38 11 l28 10 -25 20 c-14 11 -43 29 -65 41 -22 11 -53 31 -68 44 -16 13 -36 24 -45 23 -9 0 -60 -18 -112 -40z"
       id="path240"
       style="fill:#660000" />
    <path
       d="M2911 5531 c-6 -10 -13 -37 -17 -60 -6 -37 -4 -41 20 -51 56 -21 73 -14 85 34 17 68 15 74 -26 85 -50 14 -51 14 -62 -8z"
       id="path242"
       style="fill:#330066" />
    <path
       d="M7533 5482 c-24 -15 -44 -31 -47 -37 -6 -16 5 -75 15 -75 22 0 118 42 138 61 l23 21 -28 29 c-34 36 -48 36 -101 1z"
       id="path244"
       style="fill:#ff0099" />
    <path
       d="M7318 5460 c-20 -11 -39 -23 -41 -28 -6 -8 15 -107 24 -116 3 -4 29 -1 58 5 58 12 60 18 38 104 -15 57 -27 62 -79 35z"
       id="path246"
       style="fill:#330066" />
    <path
       d="M7750 5440 c-19 -17 -38 -30 -43 -30 -13 0 -97 -60 -97 -70 0 -11 44 -24 156 -46 87 -17 93 -17 138 0 25 10 67 37 93 61 l48 43 -39 16 c-43 18 -186 56 -208 56 -7 -1 -29 -14 -48 -30z"
       id="path248"
       style="fill:#660000" />
    <path
       d="M2711 5385 c-46 -13 -90 -30 -97 -37 -40 -42 -58 -445 -29 -627 24 -145 21 -142 148 -164 60 -10 111 -16 114 -13 3 3 0 41 -7 85 -7 44 -10 91 -6 104 3 15 -1 38 -11 58 -15 29 -18 64 -18 219 0 102 4 233 9 293 10 124 20 116 -103 82z m13 -368 c12 -34 -1 -61 -34 -65 -26 -4 -35 4 -44 40 -13 56 59 80 78 25z"
       id="path250"
       style="fill:#990099" />
    <path
       d="M2875 5369 c-2 -8 -6 -49 -7 -93 -3 -90 6 -103 64 -92 l36 6 4 88 c3 48 4 89 2 91 -2 2 -23 6 -48 8 -33 4 -47 2 -51 -8z"
       id="path252"
       style="fill:#330066" />
    <path
       d="M2522 5331 c-20 -12 -30 -69 -43 -236 -14 -184 -12 -304 7 -414 7 -46 14 -85 14 -87 0 -2 14 -4 30 -4 36 0 37 8 13 100 -20 80 -24 478 -5 574 12 61 7 82 -16 67z"
       id="path254"
       style="fill:#990099" />
    <path
       d="M2379 5299 c-25 -9 -28 -16 -40 -112 -18 -148 -16 -425 3 -487 3 -8 9 -28 14 -44 7 -22 18 -32 43 -38 18 -5 35 -7 37 -5 3 2 0 57 -7 120 -8 86 -8 164 0 299 15 256 15 278 -6 277 -10 0 -30 -5 -44 -10z"
       id="path256"
       style="fill:#990099" />
    <path
       d="M7500 5288 c0 -7 7 -61 17 -119 15 -99 15 -111 0 -185 -34 -159 -89 -496 -82 -503 6 -5 163 19 190 29 28 10 83 155 95 250 18 134 7 412 -19 475 -7 16 -28 25 -87 39 -44 10 -87 20 -96 22 -11 3 -18 0 -18 -8z m155 -358 c6 -18 -16 -70 -29 -70 -31 0 -45 35 -30 74 9 24 51 20 59 -4z"
       id="path258"
       style="fill:#990099" />
    <path
       d="M2229 5266 c-2 -2 -98 -25 -214 -51 -115 -25 -223 -50 -240 -56 -186 -57 -219 -65 -590 -140 -210 -42 -211 -62 -10 -104 166 -35 331 -78 385 -99 19 -8 73 -19 119 -26 46 -6 152 -31 235 -55 149 -42 363 -95 387 -95 16 0 5 108 -13 126 -14 14 -164 49 -258 59 -130 15 -446 88 -476 110 -21 15 -10 35 19 35 12 0 83 12 157 27 74 14 151 26 170 27 19 1 42 5 50 8 8 4 82 21 165 37 105 21 153 35 162 48 8 9 13 46 13 85 l0 68 -28 0 c-16 0 -31 -2 -33 -4z"
       id="path260"
       style="fill:#ff33ff" />
    <path
       d="M7310 5230 c0 -10 5 -42 11 -70 l11 -50 54 0 54 0 -6 58 c-8 84 -7 82 -69 82 -48 0 -55 -3 -55 -20z"
       id="path262"
       style="fill:#330066" />
    <path
       d="M7757 5179 c4 -35 8 -152 8 -259 0 -173 -2 -202 -22 -260 -33 -101 -37 -126 -18 -134 33 -12 63 5 83 47 42 91 57 175 56 317 -2 173 -13 304 -27 324 -7 8 -29 18 -50 22 l-38 6 8 -63z"
       id="path264"
       style="fill:#990099" />
    <path
       d="M7890 5151 c0 -34 5 -126 10 -204 10 -131 9 -150 -11 -242 -33 -155 -34 -165 -15 -165 31 0 65 47 88 121 22 69 23 88 20 294 -3 238 -3 240 -60 251 l-32 7 0 -62z"
       id="path266"
       style="fill:#990099" />
    <path
       d="M8027 5163 c-4 -3 -7 -35 -7 -70 0 -75 -11 -67 165 -113 66 -18 176 -49 245 -70 69 -22 161 -47 204 -57 44 -10 81 -23 83 -29 7 -21 -112 -40 -387 -64 -113 -10 -229 -25 -287 -36 -16 -3 -26 -19 -42 -73 -12 -38 -21 -72 -21 -76 0 -11 59 -1 220 34 437 97 622 133 830 162 85 11 157 23 159 25 11 10 -19 24 -84 39 -38 10 -92 25 -120 35 -59 22 -112 38 -262 80 -61 17 -160 49 -220 71 -134 51 -156 58 -324 108 -149 45 -143 44 -152 34z"
       id="path268"
       style="fill:#ff33ff" />
    <path
       d="M2863 5143 c-9 -3 -13 -26 -13 -64 0 -66 1 -66 83 -53 l37 7 0 58 0 59 -47 -1 c-27 0 -54 -3 -60 -6z"
       id="path270"
       style="fill:#330066" />
    <path
       d="M7358 5059 c-19 -11 -22 -36 -12 -88 6 -30 9 -32 43 -29 l36 3 0 60 c0 57 -1 60 -25 62 -14 2 -33 -2 -42 -8z"
       id="path272"
       style="fill:#330066" />
    <path
       d="M2200 5039 c-19 -4 -109 -22 -200 -39 -234 -43 -260 -50 -260 -66 0 -16 -6 -15 230 -54 102 -17 207 -35 233 -40 83 -17 78 -23 75 98 -3 119 -4 120 -78 101z"
       id="path274"
       style="fill:#990099" />
    <path
       d="M2854 4975 c-9 -23 1 -124 14 -137 6 -6 28 -8 57 -4 l46 7 -3 72 -3 72 -53 3 c-40 2 -54 -1 -58 -13z"
       id="path276"
       style="fill:#330066" />
    <path
       d="M8026 4873 c4 -60 8 -110 10 -112 2 -2 95 6 206 19 112 12 230 25 262 29 33 3 61 11 63 17 4 11 -69 44 -97 44 -8 0 -35 7 -60 16 -63 22 -346 94 -371 94 -19 0 -19 -4 -13 -107z"
       id="path278"
       style="fill:#990099" />
    <path
       d="M6775 4955 c-27 -8 -65 -17 -84 -20 -134 -19 -262 -285 -193 -397 47 -75 100 -107 220 -133 81 -17 129 -9 215 37 95 51 159 143 187 268 23 104 -16 177 -118 223 -74 34 -160 42 -227 22z m200 -69 c48 -31 79 -84 78 -134 0 -96 -81 -220 -168 -261 -86 -40 -214 -22 -252 36 -17 26 -10 43 11 28 60 -44 72 -49 120 -49 96 0 167 44 215 133 58 110 51 180 -21 217 -29 15 -41 15 -118 4 -47 -7 -97 -19 -112 -26 -35 -18 -68 -61 -68 -91 0 -48 69 -113 120 -113 30 0 78 27 91 52 10 18 8 24 -7 35 -11 8 -30 12 -44 9 -37 -7 -58 8 -41 28 19 22 83 20 112 -3 30 -24 32 -83 2 -112 -24 -25 -137 -51 -167 -39 -23 9 -64 51 -91 92 -26 42 -13 109 27 144 39 32 64 42 148 59 76 16 131 13 165 -9z"
       id="path280"
       style="fill:#6666ff" />
    <path
       d="M3605 4938 c-109 -26 -143 -40 -174 -70 -85 -83 -110 -211 -62 -316 27 -60 65 -90 152 -118 46 -15 62 -16 122 -5 185 31 270 123 271 291 0 83 -15 124 -60 159 -31 25 -57 27 -74 6 -19 -23 -33 -18 -26 10 4 17 1 27 -11 33 -30 16 -96 20 -138 10z m130 -134 c108 -68 100 -181 -18 -272 -49 -39 -59 -42 -113 -42 -37 0 -75 8 -101 20 -52 23 -58 45 -10 36 17 -4 59 -9 93 -12 l60 -6 57 52 c67 61 88 110 67 159 -16 40 -87 74 -153 75 -44 1 -52 -2 -78 -34 -43 -51 -36 -96 20 -119 22 -10 34 -10 50 -1 26 13 26 27 4 53 -17 18 -16 18 17 15 31 -3 35 -7 38 -34 6 -64 -77 -95 -144 -54 -27 17 -34 29 -40 66 -10 71 24 126 91 145 34 9 106 -12 160 -47z"
       id="path282"
       style="fill:#6666ff" />
    <path
       d="M7352 4877 c-13 -15 -19 -118 -8 -135 4 -7 20 -12 36 -12 32 0 35 7 45 91 7 53 6 57 -17 62 -34 10 -44 8 -56 -6z"
       id="path284"
       style="fill:#330066" />
    <path
       d="M2913 4803 c-41 -4 -43 -6 -43 -37 0 -51 18 -68 70 -64 43 3 45 4 42 33 -4 46 -12 75 -20 73 -4 -1 -26 -3 -49 -5z"
       id="path286"
       style="fill:#330066" />
    <path
       d="M5236 4739 c-10 -32 -46 -494 -46 -601 l0 -68 33 0 c38 0 122 38 155 70 15 14 22 30 19 44 -7 33 -64 216 -82 266 -9 25 -24 98 -34 162 -16 111 -34 162 -45 127z"
       id="path288"
       style="fill:#3333ff" />
    <path
       d="M7324 4698 c-18 -23 -36 -100 -26 -110 10 -10 84 -29 89 -24 6 5 25 127 22 131 -2 2 -20 6 -40 10 -24 4 -38 2 -45 -7z"
       id="path290"
       style="fill:#330066" />
    <path
       d="M2917 4653 c-22 -4 -28 -9 -25 -26 3 -19 10 -22 56 -25 54 -3 61 3 46 42 -6 16 -20 17 -77 9z"
       id="path292"
       style="fill:#330066" />
    <path
       d="M5059 4507 c-23 -88 -51 -156 -92 -224 -50 -80 -54 -105 -25 -133 27 -26 110 -67 155 -76 30 -6 30 -5 35 41 6 49 -5 220 -21 345 -6 41 -11 83 -11 93 0 40 -26 12 -41 -46z"
       id="path294"
       style="fill:#3333ff" />
    <path
       d="M2933 4550 c-28 -11 -28 -25 -2 -112 17 -57 23 -68 37 -63 9 4 32 11 50 17 17 5 32 12 32 16 0 4 -9 36 -20 71 -24 81 -41 93 -97 71z"
       id="path296"
       style="fill:#330066" />
    <path
       d="M7271 4524 c-15 -34 -26 -140 -15 -147 5 -3 27 -7 48 -8 l40 -4 18 70 c9 39 18 75 18 81 0 9 -69 34 -93 34 -2 0 -9 -12 -16 -26z"
       id="path298"
       style="fill:#330066" />
    <path
       d="M2505 4533 c-29 -8 -196 -135 -192 -147 2 -6 46 -29 98 -52 104 -46 110 -46 178 12 18 15 38 24 47 20 10 -4 18 1 21 13 3 11 34 36 69 57 35 21 64 43 64 51 0 7 -3 13 -7 13 -5 0 -51 7 -103 15 -139 22 -153 23 -175 18z"
       id="path300"
       style="fill:#660000" />
    <path
       d="M7633 4453 c-58 -10 -93 -20 -93 -27 0 -18 145 -116 172 -116 25 0 189 43 207 54 19 12 12 23 -44 65 -62 47 -83 49 -242 24z"
       id="path302"
       style="fill:#660000" />
    <path
       d="M2750 4392 c-83 -43 -94 -62 -59 -105 l21 -28 46 26 c90 50 132 88 129 115 -3 40 -49 37 -137 -8z"
       id="path304"
       style="fill:#ff3399" />
    <path
       d="M7410 4391 c-24 -46 -10 -62 123 -131 l86 -45 28 27 28 28 -24 17 c-54 41 -197 123 -213 123 -10 0 -22 -9 -28 -19z"
       id="path306"
       style="fill:#ff0099" />
    <path
       d="M3118 4385 c-10 -11 10 -69 50 -139 36 -66 39 -68 117 -102 44 -19 102 -48 128 -64 27 -17 52 -30 57 -30 5 0 47 -22 94 -50 296 -175 460 -384 565 -722 12 -37 21 -80 21 -96 0 -17 9 -37 24 -51 29 -27 167 -85 177 -74 9 10 -39 157 -84 253 -161 347 -193 401 -309 521 -93 96 -295 260 -451 368 -168 115 -365 210 -389 186z"
       id="path308"
       style="fill:#cc99ff" />
    <path
       d="M3026 4351 c-47 -10 -52 -30 -23 -94 14 -32 30 -57 34 -57 15 0 73 40 73 50 0 11 -48 111 -53 109 -1 -1 -15 -4 -31 -8z"
       id="path310"
       style="fill:#330066" />
    <path
       d="M7216 4339 c-27 -83 -28 -90 -15 -105 12 -14 79 -48 84 -42 4 5 45 124 45 130 0 3 -13 8 -29 11 -16 3 -40 9 -55 13 -17 4 -27 2 -30 -7z"
       id="path312"
       style="fill:#330066" />
    <path
       d="M2884 4317 c-16 -13 -56 -39 -89 -57 -33 -18 -130 -79 -215 -135 -85 -56 -173 -112 -195 -126 -84 -50 -183 -163 -171 -195 3 -7 18 -14 33 -14 15 0 57 -7 93 -15 36 -8 124 -21 195 -30 239 -27 395 -16 509 35 90 41 92 46 58 116 -18 38 -34 58 -43 55 -53 -15 -164 -21 -287 -15 -119 5 -146 10 -167 26 -23 18 -25 48 -2 48 6 0 64 34 128 75 65 42 145 85 178 96 34 12 61 24 61 29 0 10 -42 113 -50 123 -4 4 -20 -3 -36 -16z"
       id="path314"
       style="fill:#660000" />
    <path
       d="M2552 4259 c-73 -51 -81 -62 -59 -90 24 -31 45 -29 89 6 24 19 53 40 66 47 28 15 28 39 -1 66 l-23 22 -72 -51z"
       id="path316"
       style="fill:#ff3399" />
    <path
       d="M7365 4248 c-8 -48 -9 -48 101 -109 50 -27 79 -51 99 -81 15 -24 34 -47 42 -51 7 -4 25 -30 38 -58 l25 -49 -32 0 c-18 0 -55 7 -83 15 -40 13 -77 14 -181 9 l-132 -7 -16 -35 c-10 -19 -13 -38 -9 -42 4 -5 46 -17 93 -29 68 -16 118 -20 235 -20 112 0 177 -5 255 -20 124 -25 200 -27 200 -8 0 36 -163 205 -352 366 -73 62 -235 161 -263 161 -8 0 -16 -18 -20 -42z"
       id="path318"
       style="fill:#660000" />
    <path
       d="M7678 4205 c-21 -28 -22 -35 -5 -35 16 0 87 -72 87 -88 0 -17 7 -15 41 9 40 28 36 51 -17 98 -53 47 -81 51 -106 16z"
       id="path320"
       style="fill:#ff0099" />
    <path
       d="M3083 4175 c-30 -24 -31 -27 -19 -58 7 -17 16 -40 19 -50 6 -16 9 -16 34 -3 66 35 67 37 42 89 -13 26 -28 47 -33 47 -6 0 -25 -12 -43 -25z"
       id="path322"
       style="fill:#330066" />
    <path
       d="M6361 4186 c-7 -8 -11 -25 -9 -38 2 -18 10 -24 39 -26 42 -4 72 19 67 52 -2 17 -11 22 -44 24 -27 2 -45 -2 -53 -12z"
       id="path324"
       style="fill:#9933ff" />
    <path
       d="M7156 4174 c-14 -36 -6 -51 33 -62 55 -17 68 -15 75 11 10 38 7 45 -25 56 -45 15 -76 14 -83 -5z"
       id="path326"
       style="fill:#330066" />
    <path
       d="M2402 4149 c-23 -17 -42 -33 -42 -35 0 -10 31 -64 37 -64 3 0 25 16 49 35 l43 35 -17 30 c-9 16 -19 30 -23 30 -3 0 -24 -14 -47 -31z"
       id="path328"
       style="fill:#ff3399" />
    <path
       d="M3253 4104 c-9 -23 22 -49 110 -93 86 -42 341 -242 407 -319 105 -121 226 -350 232 -438 3 -35 7 -41 48 -61 25 -12 48 -22 53 -23 28 -1 -39 213 -111 354 -59 116 -132 206 -247 305 -114 98 -185 145 -335 220 -146 73 -149 74 -157 55z"
       id="path330"
       style="fill:#cc99ff" />
    <path
       d="M3898 4096 c-6 -14 -8 -32 -5 -40 9 -22 60 -20 80 2 21 23 21 27 1 46 -24 25 -63 20 -76 -8z"
       id="path332"
       style="fill:#9933ff" />
    <path
       d="M2218 4000 c-89 -91 -101 -113 -72 -124 31 -12 43 -5 96 47 29 29 68 65 87 79 33 25 34 27 21 57 -7 17 -19 31 -28 31 -9 0 -55 -41 -104 -90z"
       id="path334"
       style="fill:#ff3399" />
    <path
       d="M7103 4038 c-12 -30 -17 -58 -12 -63 4 -6 26 -21 49 -34 l40 -23 24 54 c42 96 42 94 -8 107 -68 17 -72 15 -93 -41z"
       id="path336"
       style="fill:#330066" />
    <path
       d="M7842 4070 c-26 -25 -22 -37 36 -97 47 -48 68 -55 112 -36 l34 14 -69 69 c-38 39 -74 70 -80 70 -6 0 -21 -9 -33 -20z"
       id="path338"
       style="fill:#ff0099" />
    <path
       d="M3142 4030 c-19 -17 -32 -36 -29 -43 31 -79 53 -117 66 -115 8 2 29 22 45 46 l31 43 -25 47 c-14 26 -32 48 -40 50 -8 1 -30 -11 -48 -28z"
       id="path340"
       style="fill:#330066" />
    <path
       d="M3330 3966 c0 -14 65 -132 126 -227 16 -25 81 -101 144 -168 63 -67 119 -131 124 -142 5 -10 14 -19 20 -19 7 0 30 -18 51 -41 48 -49 118 -99 139 -99 9 0 16 2 16 4 0 16 -78 192 -109 245 -78 133 -245 299 -421 417 -68 46 -90 53 -90 30z"
       id="path342"
       style="fill:#cc99ff" />
    <path
       d="M7041 3914 c-12 -15 -21 -31 -21 -37 0 -12 77 -87 90 -87 8 0 50 79 50 94 0 6 -83 56 -93 56 -3 0 -15 -12 -26 -26z"
       id="path344"
       style="fill:#330066" />
    <path
       d="M8012 3894 c-12 -8 -22 -19 -22 -24 0 -17 70 -119 88 -129 24 -13 108 -24 121 -16 17 10 -15 62 -77 127 -58 61 -74 67 -110 42z"
       id="path346"
       style="fill:#ff0099" />
    <path
       d="M3236 3858 c-39 -44 -39 -59 -3 -82 13 -8 23 -4 47 19 32 30 40 71 18 93 -17 17 -20 16 -62 -30z"
       id="path348"
       style="fill:#330066" />
    <path
       d="M2083 3831 c-32 -36 -77 -131 -66 -142 14 -14 111 -39 150 -39 30 0 34 3 44 45 15 61 16 59 -32 67 -53 9 -55 12 -39 44 12 22 12 27 0 34 -23 15 -37 12 -57 -9z"
       id="path350"
       style="fill:#ff3399" />
    <path
       d="M6971 3804 c-12 -15 -21 -33 -21 -40 0 -13 86 -83 103 -84 4 0 15 16 24 36 l18 36 -45 39 c-25 21 -48 39 -52 39 -4 0 -16 -12 -27 -26z"
       id="path352"
       style="fill:#330066" />
    <path
       d="M3303 3760 c-18 -16 -33 -38 -33 -47 1 -20 44 -73 60 -73 15 0 90 49 90 58 0 15 -62 92 -73 92 -7 0 -27 -14 -44 -30z"
       id="path354"
       style="fill:#330066" />
    <path
       d="M7180 3766 c-12 -14 -20 -31 -17 -38 5 -15 105 -50 119 -42 4 3 8 23 8 44 0 29 -5 42 -19 50 -32 17 -66 11 -91 -14z"
       id="path356"
       style="fill:#ff0099" />
    <path
       d="M3072 3751 c-35 -15 -67 -32 -73 -38 -12 -12 0 -73 15 -73 46 0 176 56 176 75 0 14 -38 65 -48 65 -4 0 -35 -13 -70 -29z"
       id="path358"
       style="fill:#ff3399" />
    <path
       d="M7333 3753 c-15 -6 -17 -79 -3 -88 21 -13 123 -35 160 -35 l40 0 0 59 0 58 -37 7 c-44 7 -142 7 -160 -1z"
       id="path360"
       style="fill:#ff0099" />
    <path
       d="M7572 3688 l3 -73 98 -3 97 -3 0 55 c0 70 -15 81 -123 90 l-78 7 3 -73z"
       id="path362"
       style="fill:#ff0099" />
    <path
       d="M2256 3693 c-15 -31 -25 -57 -24 -59 9 -8 173 -33 179 -27 7 7 13 75 10 110 -1 14 -62 33 -108 33 -29 0 -34 -5 -57 -57z"
       id="path364"
       style="fill:#ff3399" />
    <path
       d="M2476 3704 c-19 -18 -31 -93 -18 -106 5 -5 56 -10 113 -9 123 1 138 9 119 65 -15 46 -28 52 -123 59 -59 4 -80 2 -91 -9z"
       id="path366"
       style="fill:#ff3399" />
    <path
       d="M7805 3710 c-4 -6 -4 -32 0 -57 6 -40 9 -44 28 -39 12 3 42 8 67 12 25 4 50 11 56 16 13 10 8 43 -10 56 -18 15 -133 24 -141 12z"
       id="path368"
       style="fill:#ff0099" />
    <path
       d="M7993 3703 c-11 -28 12 -48 52 -47 40 2 65 18 50 33 -6 6 -29 14 -53 20 -36 8 -44 7 -49 -6z"
       id="path370"
       style="fill:#ff0099" />
    <path
       d="M2840 3703 c-107 -4 -120 -9 -120 -39 0 -14 5 -34 11 -46 10 -18 17 -19 82 -13 77 8 168 23 174 29 3 2 -2 18 -11 34 -14 27 -38 45 -54 40 -4 -1 -41 -3 -82 -5z"
       id="path372"
       style="fill:#ff3399" />
    <path
       d="M6873 3680 c-13 -15 -23 -33 -23 -39 0 -14 93 -61 119 -61 19 0 51 44 51 69 0 13 -85 61 -107 60 -10 0 -28 -13 -40 -29z"
       id="path374"
       style="fill:#330066" />
    <path
       d="M3171 3595 c-28 -38 -51 -74 -51 -81 0 -7 13 -33 28 -56 16 -24 58 -88 94 -143 36 -55 98 -135 137 -177 115 -123 267 -238 315 -238 24 0 236 122 230 132 -6 9 -203 160 -281 215 -64 44 -118 96 -192 183 -36 41 -81 90 -100 109 -20 19 -57 54 -82 79 l-47 44 -51 -67z m339 -324 c25 -49 -3 -88 -55 -75 -48 12 -55 61 -12 82 34 16 55 14 67 -7z"
       id="path376"
       style="fill:#990099" />
    <path
       d="M3397 3622 c-34 -36 -34 -46 4 -73 32 -23 43 -21 93 17 19 14 19 15 -14 49 -19 19 -39 35 -45 35 -6 0 -23 -13 -38 -28z"
       id="path378"
       style="fill:#330066" />
    <path
       d="M7023 3558 c-68 -89 -119 -139 -276 -272 -63 -53 -307 -219 -342 -232 -33 -13 -13 -36 59 -70 41 -19 84 -34 95 -34 28 0 133 54 206 106 72 50 168 150 226 235 53 79 159 269 159 286 0 7 -13 27 -28 44 l-28 31 -71 -94z m-155 -320 c4 -32 -31 -49 -54 -26 -12 12 -12 17 2 36 21 30 48 24 52 -10z"
       id="path380"
       style="fill:#990099" />
    <path
       d="M7190 3640 c0 -17 161 -219 179 -224 62 -16 252 -49 256 -44 6 6 -27 113 -47 151 -6 12 -14 29 -18 37 -5 10 -40 21 -101 31 -52 9 -126 26 -165 38 -79 23 -104 26 -104 11z"
       id="path382"
       style="fill:#660000" />
    <path
       d="M3010 3590 c-36 -10 -81 -18 -100 -19 -45 -1 -91 -30 -110 -67 -8 -16 -34 -60 -58 -98 -30 -47 -40 -72 -33 -79 11 -11 144 -36 198 -36 30 -1 34 5 117 151 47 83 83 155 80 160 -7 10 -15 9 -94 -12z"
       id="path384"
       style="fill:#660000" />
    <path
       d="M6786 3555 c-15 -19 -24 -40 -21 -45 9 -15 73 -40 100 -40 26 0 88 47 80 60 -9 14 -97 60 -115 60 -10 0 -30 -16 -44 -35z"
       id="path386"
       style="fill:#330066" />
    <path
       d="M3496 3521 c-34 -35 -30 -53 19 -101 l35 -34 32 31 31 31 -34 48 c-19 26 -39 49 -45 51 -5 2 -23 -10 -38 -26z"
       id="path388"
       style="fill:#330066" />
    <path
       d="M7142 3488 c-39 -86 -134 -237 -194 -309 -67 -81 -166 -161 -255 -206 -40 -20 -73 -41 -73 -45 0 -4 13 -14 30 -23 28 -15 33 -14 88 14 73 37 150 96 227 176 132 135 260 363 239 422 -16 45 -32 37 -62 -29z"
       id="path390"
       style="fill:#990099" />
    <path
       d="M6696 3454 c-22 -21 -20 -26 12 -57 35 -34 52 -34 91 -1 36 30 33 39 -16 59 -45 19 -68 19 -87 -1z"
       id="path392"
       style="fill:#330066" />
    <path
       d="M3066 3428 c-22 -30 -20 -51 5 -74 12 -10 59 -75 105 -144 45 -69 104 -149 130 -179 47 -53 249 -211 269 -211 13 1 61 37 55 43 -3 2 -33 25 -68 51 -157 119 -313 291 -416 459 -27 42 -52 77 -56 77 -5 0 -16 -10 -24 -22z"
       id="path394"
       style="fill:#990099" />
    <path
       d="M7211 3369 c-98 -193 -229 -350 -378 -450 -40 -27 -73 -53 -73 -58 0 -5 20 -16 45 -26 43 -16 47 -16 73 1 84 54 185 141 210 182 76 121 212 358 212 369 0 6 -11 24 -23 39 l-24 27 -42 -84z"
       id="path396"
       style="fill:#990099" />
    <path
       d="M3605 3394 c-8 -20 -15 -40 -15 -45 0 -4 21 -24 46 -44 34 -25 50 -32 59 -25 14 11 40 69 34 73 -2 1 -23 19 -47 40 -23 20 -46 37 -52 37 -5 0 -17 -16 -25 -36z"
       id="path398"
       style="fill:#330066" />
    <path
       d="M6606 3374 c-6 -15 13 -47 39 -66 19 -14 44 -8 56 14 10 19 8 25 -17 45 -34 27 -69 30 -78 7z"
       id="path400"
       style="fill:#330066" />
    <path
       d="M2995 3301 c-16 -32 -22 -56 -17 -68 10 -26 176 -274 198 -298 46 -49 195 -166 228 -180 35 -15 40 -15 69 3 50 29 45 46 -25 93 -125 85 -234 208 -352 396 -32 51 -62 95 -66 98 -5 3 -21 -17 -35 -44z"
       id="path402"
       style="fill:#990099" />
    <path
       d="M6527 3312 c-33 -35 -33 -39 -1 -73 l26 -28 34 22 c19 12 34 27 34 33 0 5 -15 24 -33 42 l-33 32 -27 -28z"
       id="path404"
       style="fill:#330066" />
    <path
       d="M7316 3318 c-85 -136 -84 -130 -33 -186 24 -26 109 -126 189 -222 129 -155 195 -223 383 -393 38 -35 47 -49 39 -57 -9 -9 -27 -2 -74 29 -34 23 -66 41 -71 41 -26 0 -628 319 -664 351 -20 19 -60 7 -112 -31 -29 -23 -53 -45 -53 -50 0 -5 17 -18 38 -29 50 -26 401 -183 527 -236 55 -23 250 -117 433 -209 183 -91 340 -166 348 -166 29 0 11 37 -54 110 -230 258 -339 386 -404 471 -40 54 -102 134 -138 180 -36 46 -110 142 -165 214 -102 135 -160 205 -169 205 -3 0 -12 -10 -20 -22z"
       id="path406"
       style="fill:#ff33ff" />
    <path
       d="M3746 3296 c-9 -14 -16 -32 -16 -39 0 -15 74 -87 89 -87 9 0 51 65 51 79 0 4 -10 13 -22 19 -13 6 -37 20 -54 32 l-31 20 -17 -24z"
       id="path408"
       style="fill:#330066" />
    <path
       d="M6399 3218 c-24 -17 -46 -32 -48 -34 -2 -2 2 -15 9 -29 16 -31 47 -32 100 -5 50 25 56 37 34 62 -36 39 -49 40 -95 6z"
       id="path410"
       style="fill:#330066" />
    <path
       d="M3890 3188 c-11 -18 -20 -38 -20 -44 0 -10 81 -54 100 -54 9 0 44 70 38 75 -2 2 -24 15 -50 29 l-48 27 -20 -33z"
       id="path412"
       style="fill:#330066" />
    <path
       d="M2914 3158 c-86 -136 -127 -197 -238 -352 -68 -94 -144 -204 -170 -243 -26 -40 -51 -73 -55 -73 -5 0 -11 -10 -15 -22 -3 -13 -44 -81 -91 -153 -47 -71 -85 -133 -85 -137 0 -5 -4 -8 -8 -8 -5 0 -16 -16 -25 -35 -17 -36 -22 -65 -11 -65 3 0 50 24 104 54 65 37 105 53 119 49 14 -3 21 -1 21 9 0 7 61 45 138 86 75 39 196 103 268 141 100 53 134 67 143 58 9 -9 13 -7 17 8 5 20 158 115 184 115 7 0 27 12 45 28 17 15 53 39 78 54 26 15 47 31 47 36 0 14 -132 106 -150 105 -31 -3 -159 -83 -470 -295 -69 -47 -156 -104 -194 -127 -59 -37 -71 -41 -83 -28 -12 12 -9 20 26 58 23 24 41 46 41 49 0 4 35 42 78 87 67 69 352 424 391 486 12 20 10 28 -23 84 -20 34 -41 65 -46 68 -5 3 -21 -14 -36 -37z"
       id="path414"
       style="fill:#ff33ff" />
    <path
       d="M6247 3124 c-20 -14 -37 -28 -37 -32 0 -5 13 -21 29 -36 l29 -28 41 21 c47 24 51 39 19 68 -37 33 -43 33 -81 7z"
       id="path416"
       style="fill:#330066" />
    <path
       d="M4035 3110 c-9 -17 -13 -39 -10 -49 5 -16 126 -81 152 -81 5 0 14 20 20 45 l10 44 -67 36 c-38 19 -73 35 -79 35 -6 0 -18 -14 -26 -30z"
       id="path418"
       style="fill:#330066" />
    <path
       d="M7184 3088 c-15 -24 -42 -67 -60 -96 -19 -29 -34 -57 -34 -62 0 -8 120 -82 300 -184 36 -20 72 -40 80 -45 8 -5 53 -28 98 -51 119 -60 125 -44 26 67 -44 48 -114 131 -156 183 -42 52 -88 106 -102 119 -14 14 -26 30 -26 38 0 7 -4 13 -10 13 -5 0 -25 14 -43 30 -19 17 -37 30 -41 30 -3 0 -18 -19 -32 -42z"
       id="path420"
       style="fill:#990099" />
    <path
       d="M6113 3034 c-24 -14 -43 -29 -43 -33 0 -4 13 -20 30 -36 l30 -28 33 18 c18 9 42 24 53 32 18 14 18 15 -14 44 -18 16 -36 29 -40 29 -4 0 -26 -12 -49 -26z"
       id="path422"
       style="fill:#330066" />
    <path
       d="M4245 3003 c-20 -48 -19 -58 10 -71 34 -16 30 -17 55 23 26 42 22 59 -19 73 -30 11 -32 10 -46 -25z"
       id="path424"
       style="fill:#330066" />
    <path
       d="M3023 2997 c-11 -12 -58 -74 -105 -137 -48 -63 -132 -168 -188 -234 -89 -104 -114 -145 -84 -139 16 3 539 353 542 363 4 10 -110 150 -132 162 -8 4 -21 -1 -33 -15z"
       id="path426"
       style="fill:#990099" />
    <path
       d="M3933 2896 l-42 -84 31 -11 c17 -6 37 -11 44 -11 7 0 24 36 39 80 22 65 24 84 15 95 -26 31 -45 16 -87 -69z"
       id="path428"
       style="fill:#ff0099" />
    <path
       d="M4361 2946 c-12 -18 -21 -36 -21 -40 0 -13 88 -46 104 -40 9 3 16 7 16 8 0 0 4 16 9 34 9 31 8 33 -29 52 -52 26 -55 26 -79 -14z"
       id="path430"
       style="fill:#330066" />
    <path
       d="M6291 2971 c-11 -7 -11 -15 -3 -40 6 -17 14 -70 18 -117 l7 -86 31 6 c50 10 52 18 26 123 -30 123 -40 138 -79 114z"
       id="path432"
       style="fill:#ff0099" />
    <path
       d="M5976 2946 c-28 -22 -29 -25 -17 -55 18 -41 25 -45 56 -26 14 8 37 22 51 31 l26 16 -28 29 c-34 35 -50 36 -88 5z"
       id="path434"
       style="fill:#330066" />
    <path
       d="M4050 2873 c-20 -54 -42 -141 -70 -273 -17 -85 -33 -381 -20 -394 7 -7 41 20 107 86 54 52 109 101 122 108 42 22 155 132 207 201 21 29 74 131 74 143 0 5 -89 36 -102 36 -4 0 -8 -9 -8 -21 0 -23 -84 -115 -193 -212 -61 -54 -70 -59 -84 -45 -13 14 -11 30 22 164 20 82 43 162 51 178 8 16 14 30 14 32 0 4 -85 54 -93 54 -3 0 -15 -26 -27 -57z"
       id="path436"
       style="fill:#660000" />
    <path
       d="M4519 2890 c-18 -58 -6 -72 72 -87 35 -7 88 -18 117 -24 58 -14 72 -7 72 36 0 35 -14 44 -115 74 -55 16 -108 33 -117 36 -13 5 -19 -2 -29 -35z"
       id="path438"
       style="fill:#330066" />
    <path
       d="M6195 2909 c-24 -20 -26 -26 -20 -63 3 -23 8 -107 11 -188 7 -171 6 -172 -73 -109 -72 57 -109 100 -138 159 -14 28 -29 52 -33 52 -12 0 -111 -36 -118 -43 -9 -9 124 -155 147 -162 10 -4 40 -32 65 -63 50 -61 147 -149 189 -172 23 -12 28 -12 35 0 6 8 10 135 10 281 0 329 -8 360 -75 308z"
       id="path440"
       style="fill:#660000" />
    <path
       d="M6410 2913 c1 -33 50 -207 63 -220 18 -18 189 -82 204 -76 7 3 13 10 13 16 0 26 -62 208 -78 227 -17 20 -146 70 -183 70 -11 0 -19 -7 -19 -17z"
       id="path442"
       style="fill:#660000" />
    <path
       d="M3743 2861 c-55 -32 -107 -61 -115 -63 -8 -3 -28 -50 -45 -104 -54 -170 -55 -166 9 -154 24 5 76 14 116 20 39 7 72 14 72 17 0 22 44 210 60 257 21 63 25 86 12 86 -4 0 -53 -26 -109 -59z"
       id="path444"
       style="fill:#660000" />
    <path
       d="M5863 2885 c-26 -11 -33 -20 -33 -42 0 -48 11 -56 59 -42 22 7 41 18 41 26 0 13 -27 74 -33 73 -1 -1 -17 -7 -34 -15z"
       id="path446"
       style="fill:#330066" />
    <path
       d="M4827 2814 c-4 -21 -3 -42 1 -46 10 -10 100 -27 107 -20 8 8 6 66 -4 81 -5 7 -29 15 -53 18 l-45 5 -6 -38z"
       id="path448"
       style="fill:#330066" />
    <path
       d="M5723 2840 c-38 -15 -27 -80 12 -80 55 0 69 25 39 68 -17 24 -19 25 -51 12z"
       id="path450"
       style="fill:#330066" />
    <path
       d="M4994 2816 c-3 -8 -4 -29 -2 -48 3 -32 5 -33 58 -40 30 -3 98 -8 150 -9 l95 -3 -2 39 c-2 21 -4 39 -5 41 -2 1 -57 7 -123 13 -66 6 -130 14 -143 16 -14 4 -25 0 -28 -9z"
       id="path452"
       style="fill:#330066" />
    <path
       d="M5540 2811 c-43 -6 -45 -7 -42 -36 4 -44 23 -53 84 -44 62 10 78 24 71 62 -6 29 -16 31 -113 18z"
       id="path454"
       style="fill:#330066" />
    <path
       d="M5345 2799 c-2 -8 -1 -30 3 -49 9 -39 36 -49 84 -31 20 8 25 15 21 35 -7 33 -19 43 -65 51 -28 5 -39 4 -43 -6z"
       id="path456"
       style="fill:#330066" />
    <path
       d="M3857 2684 c-9 -47 -15 -90 -12 -95 7 -10 64 -1 81 13 7 5 17 38 24 75 12 61 11 67 -5 80 -11 7 -31 13 -45 13 -25 0 -27 -4 -43 -86z"
       id="path458"
       style="fill:#ff0099" />
    <path
       d="M4496 2713 c-2 -10 -7 -28 -11 -40 -5 -18 0 -25 25 -38 17 -9 35 -13 39 -10 12 7 41 92 33 99 -3 3 -22 6 -43 6 -27 0 -39 -5 -43 -17z"
       id="path460"
       style="fill:#ff0099" />
    <path
       d="M6361 2712 c-6 -12 -18 -22 -26 -22 -33 0 -48 -82 -17 -99 9 -5 33 -11 52 -12 l35 -4 3 56 c2 43 -1 61 -16 79 l-19 24 -12 -22z"
       id="path462"
       style="fill:#ff0099" />
    <path
       d="M5723 2700 c-13 -5 -23 -12 -23 -14 0 -17 66 -136 75 -136 15 0 45 54 45 82 -1 27 -17 50 -47 66 -25 14 -21 14 -50 2z"
       id="path464"
       style="fill:#ff0099" />
    <path
       d="M4674 2687 c-11 -28 48 -188 76 -209 32 -23 157 -54 275 -68 112 -12 329 -13 414 0 94 13 110 29 143 141 41 139 43 133 -49 124 -43 -5 -193 -7 -333 -6 -231 2 -299 6 -467 27 -43 6 -54 4 -59 -9z m507 -117 c41 -23 12 -79 -41 -80 -40 0 -52 18 -35 51 20 38 43 46 76 29z"
       id="path466"
       style="fill:#990099" />
    <path
       d="M4541 2503 c-71 -101 -82 -122 -77 -148 13 -60 79 -225 91 -225 17 0 155 178 155 201 0 33 -62 264 -74 277 -10 11 -29 -9 -95 -105z"
       id="path468"
       style="fill:#660000" />
    <path
       d="M4436 2589 c-14 -11 -33 -33 -41 -49 -14 -28 -14 -29 21 -49 19 -12 36 -21 38 -21 11 0 77 113 72 125 -8 22 -59 19 -90 -6z"
       id="path470"
       style="fill:#ff0099" />
    <path
       d="M5636 2558 c-22 -63 -46 -153 -46 -176 0 -24 164 -212 185 -212 21 0 23 8 42 129 l16 111 -65 67 c-35 38 -73 80 -82 96 -10 15 -22 27 -26 27 -5 0 -15 -19 -24 -42z"
       id="path472"
       style="fill:#660000" />
    <path
       d="M5836 2555 c-19 -39 -14 -55 27 -94 30 -27 35 -25 62 24 l19 37 -39 34 c-22 19 -43 34 -46 34 -4 0 -14 -16 -23 -35z"
       id="path474"
       style="fill:#ff0099" />
    <path
       d="M3873 2550 l-41 -19 -4 -82 c-3 -90 0 -95 53 -81 l34 8 8 89 c4 48 4 91 0 95 -4 4 -27 0 -50 -10z"
       id="path476"
       style="fill:#ff0099" />
    <path
       d="M6304 2526 c-3 -7 -4 -33 -2 -57 3 -36 8 -47 37 -66 59 -40 69 -33 73 50 2 40 -1 75 -7 79 -18 14 -95 9 -101 -6z"
       id="path478"
       style="fill:#ff0099" />
    <path
       d="M4314 2456 l-39 -34 19 -36 c11 -20 27 -36 35 -36 9 0 36 19 59 43 l42 42 -35 28 c-19 15 -36 27 -38 27 -2 0 -21 -15 -43 -34z"
       id="path480"
       style="fill:#ff0099" />
    <path
       d="M5956 2452 c-31 -49 -31 -51 -8 -69 58 -46 63 -48 78 -28 22 30 17 72 -15 107 l-28 32 -27 -42z"
       id="path482"
       style="fill:#ff0099" />
    <path
       d="M4753 2392 c-10 -25 29 -47 154 -88 102 -32 134 -38 234 -42 124 -5 308 12 349 31 18 9 26 22 28 45 l3 32 -42 -6 c-59 -10 -336 -10 -449 -1 -52 4 -135 16 -183 26 -79 17 -89 17 -94 3z"
       id="path484"
       style="fill:#990099" />
    <path
       d="M4183 2358 c-71 -46 -78 -59 -53 -108 11 -22 25 -40 30 -40 16 0 130 91 130 103 0 16 -38 77 -47 77 -5 0 -31 -15 -60 -32z"
       id="path486"
       style="fill:#ff0099" />
    <path
       d="M6081 2367 c-6 -8 -14 -27 -17 -43 -5 -26 0 -34 48 -74 29 -25 73 -63 96 -85 79 -73 87 -67 54 36 -11 37 -28 65 -47 81 -118 96 -122 99 -134 85z"
       id="path488"
       style="fill:#ff0099" />
    <path
       d="M6290 2359 c0 -55 23 -191 36 -217 22 -44 32 -40 39 16 4 26 11 60 16 76 13 41 11 89 -4 109 -16 23 -87 35 -87 16z"
       id="path490"
       style="fill:#ff0099" />
    <path
       d="M3869 2332 c-41 -21 -45 -37 -29 -148 14 -99 31 -109 54 -31 17 58 28 185 17 192 -4 2 -23 -4 -42 -13z"
       id="path492"
       style="fill:#ff0099" />
    <path
       d="M4776 2258 c12 -68 30 -80 170 -116 167 -43 341 -53 449 -25 l69 18 15 47 c8 27 13 50 10 52 -2 2 -62 0 -134 -6 -71 -5 -184 -8 -250 -6 -102 4 -134 9 -213 36 -119 41 -123 41 -116 0z"
       id="path494"
       style="fill:#990099" />
    <path
       d="M4053 2246 c-13 -23 -78 -91 -108 -112 -33 -25 -53 -104 -26 -104 20 0 191 122 203 145 7 12 2 25 -17 51 -28 37 -40 42 -52 20z"
       id="path496"
       style="fill:#ff0099" />
    <path
       d="M4818 2125 c-3 -4 5 -46 18 -93 13 -48 33 -134 44 -191 39 -201 87 -396 139 -566 14 -46 67 -220 96 -317 15 -52 31 -88 38 -88 8 0 18 26 27 68 7 37 32 141 55 232 23 91 50 197 59 235 10 39 25 92 34 119 18 57 31 115 37 166 2 19 18 89 36 155 46 176 49 188 49 214 0 23 -2 23 -47 17 -56 -7 -93 -30 -93 -56 0 -10 -5 -22 -11 -25 -6 -4 -8 -13 -5 -21 6 -15 -14 -127 -63 -364 -17 -80 -35 -178 -41 -219 -11 -76 -22 -101 -46 -101 -9 0 -14 12 -14 36 0 19 -4 65 -9 102 -5 37 -14 105 -20 152 -24 185 -64 456 -71 476 -6 15 -28 25 -92 41 -45 12 -90 24 -99 28 -8 3 -18 3 -21 0z"
       id="path498"
       style="fill:#ff33ff" />
    <path
       d="M5080 2043 c0 -10 16 -126 35 -258 19 -132 35 -246 35 -252 0 -7 6 -13 13 -13 19 0 116 507 99 521 -4 4 -46 9 -94 13 -80 6 -88 4 -88 -11z"
       id="path500"
       style="fill:#990099" />
  </g>
</svg>
