<?xml version="1.0" encoding="utf-8"?>
<!-- Generator: Adobe Illustrator 21.0.0, SVG Export Plug-In . SVG Version: 6.00 Build 0)  -->
<svg version="1.1" baseProfile="tiny" id="Layer_1" xmlns="http://www.w3.org/2000/svg" xmlns:xlink="http://www.w3.org/1999/xlink"
	 x="0px" y="0px" width="1000px" height="1769.6px" viewBox="0 0 1000 1769.6" xml:space="preserve">
<g>
	<polygon fill="#FFFFFF" points="179.7,1607.6 141.8,1450.6 101.3,1288.6 65.8,1126.6 30.4,974.7 0,853.2 0,1769.6 283.5,1769.6 
		202.5,1726.6 	"/>
	<polygon fill="#FFFFFF" points="888.6,1339.2 789.9,1450.6 719,1519 640.5,1587.3 610.1,1696.2 544.3,1767.1 438,1767.1 
		283.5,1769.6 1000,1769.6 1000,1103.8 964.6,1217.7 	"/>
	<polygon fill="#FFFFFF" points="397.5,0 374.7,68.4 392.4,144.3 438,205.1 508.9,265.8 577.2,336.7 600,422.8 587.3,508.9 
		526.6,577.2 465.8,615.2 379.7,640.5 445.6,589.9 491.1,511.4 483.5,425.3 425.3,357 341.8,301.3 293.7,217.7 306.3,119 
		339.2,58.2 397.5,0 0,0 0,853.2 7.6,751.9 65.8,701.3 194.9,696.2 384.8,696.2 569.6,698.7 736.7,696.2 815.2,721.5 853.2,792.4 
		820.3,913.9 916.5,931.6 984.8,982.3 1000,1103.8 1000,0 	"/>
	<polygon fill="#FFFFFF" points="794.9,1022.8 762,1131.6 726.6,1263.3 701.3,1372.2 670.9,1465.8 757,1389.9 848.1,1286.1 
		901.3,1182.3 901.3,1075.9 855.7,1035.4 	"/>
	<polygon fill="#7132A4" points="7.6,751.9 0,853.2 96.2,779.7 	"/>
	<polygon fill="#6D2F9C" points="65.8,701.3 7.6,751.9 96.2,779.7 	"/>
	<polygon fill="#592A94" points="172.2,858.2 0,853.2 30.4,974.7 	"/>
	<polygon fill="#00ADE5" points="96.2,779.7 0,853.2 172.2,858.2 	"/>
	<polygon fill="#36D3FF" points="194.9,696.2 65.8,701.3 96.2,779.7 	"/>
	<polygon fill="#009DD7" points="172.2,858.2 194.9,696.2 96.2,779.7 	"/>
	<polygon fill="#00AFE8" points="30.4,974.7 65.8,1126.6 205.1,1106.3 	"/>
	<polygon fill="#06AFEA" points="172.2,858.2 30.4,974.7 205.1,1106.3 	"/>
	<polygon fill="#01ACE0" points="65.8,1126.6 101.3,1288.6 205.1,1106.3 	"/>
	<polygon fill="#00A2D6" points="101.3,1288.6 141.8,1450.6 255.7,1301.3 	"/>
	<polygon fill="#0EBDEC" points="205.1,1106.3 101.3,1288.6 255.7,1301.3 	"/>
	<polygon fill="#81D8F6" points="202.5,1726.6 334.2,1607.6 179.7,1607.6 	"/>
	<polygon fill="#57D0E1" points="202.5,1726.6 283.5,1769.6 334.2,1607.6 	"/>
	<polygon fill="#60DCFF" points="179.7,1607.6 334.2,1607.6 141.8,1450.6 	"/>
	<polygon fill="#43D0EC" points="346.8,951.9 172.2,858.2 205.1,1106.3 	"/>
	<polygon fill="#3ABFDE" points="255.7,1301.3 141.8,1450.6 367.1,1377.2 	"/>
	<polygon fill="#7DE1FB" points="141.8,1450.6 334.2,1607.6 367.1,1377.2 	"/>
	<polygon fill="#9CEB90" points="306.3,119 374.7,68.4 339.2,58.2 	"/>
	<polygon fill="#A2F88B" points="293.7,217.7 341.8,301.3 382.3,230.4 	"/>
	<polygon fill="#56D7ED" points="384.8,696.2 194.9,696.2 172.2,858.2 	"/>
	<polygon fill="#4FD7B1" points="346.8,951.9 384.8,696.2 172.2,858.2 	"/>
	<polygon fill="#67CB51" points="392.4,144.3 374.7,68.4 306.3,119 	"/>
	<polygon fill="#64D734" points="293.7,217.7 392.4,144.3 306.3,119 	"/>
	<polygon fill="#5AD82E" points="382.3,230.4 392.4,144.3 293.7,217.7 	"/>
	<polygon fill="#6EDD38" points="374.7,68.4 397.5,0 339.2,58.2 	"/>
	<polygon fill="#5AE484" points="255.7,1301.3 367.1,1377.2 405.1,1215.2 	"/>
	<polygon fill="#83E6FB" points="205.1,1106.3 255.7,1301.3 405.1,1215.2 	"/>
	<polygon fill="#91E329" points="341.8,301.3 425.3,357 382.3,230.4 	"/>
	<polygon fill="#C4DD00" points="438,205.1 392.4,144.3 382.3,230.4 	"/>
	<polygon fill="#46D20D" points="334.2,1607.6 283.5,1769.6 438,1767.1 	"/>
	<polygon fill="#EFDF03" points="379.7,640.5 465.8,615.2 445.6,589.9 	"/>
	<polygon fill="#75E47B" points="465.8,1083.5 346.8,951.9 205.1,1106.3 	"/>
	<polygon fill="#4ECD1C" points="465.8,1083.5 205.1,1106.3 405.1,1215.2 	"/>
	<polygon fill="#E3EB04" points="405.1,1215.2 367.1,1377.2 478.5,1334.2 	"/>
	<polygon fill="#DFE706" points="491.1,835.4 384.8,696.2 346.8,951.9 	"/>
	<polygon fill="#F6E800" points="491.1,835.4 346.8,951.9 465.8,1083.5 	"/>
	<polygon fill="#FCED0E" points="425.3,357 508.9,265.8 382.3,230.4 	"/>
	<polygon fill="#F9E400" points="508.9,265.8 438,205.1 382.3,230.4 	"/>
	<polygon fill="#FFE404" points="425.3,357 483.5,425.3 516.5,367.1 	"/>
	<polygon fill="#FFE502" points="516.5,367.1 508.9,265.8 425.3,357 	"/>
	<polygon fill="#FDE90E" points="465.8,615.2 526.6,577.2 445.6,589.9 	"/>
	<polygon fill="#FDE803" points="445.6,589.9 526.6,577.2 491.1,511.4 	"/>
	<polygon fill="#FFE804" points="334.2,1607.6 438,1767.1 526.6,1572.2 	"/>
	<polygon fill="#C5E008" points="367.1,1377.2 334.2,1607.6 526.6,1572.2 	"/>
	<polygon fill="#FFEC01" points="367.1,1377.2 526.6,1572.2 478.5,1334.2 	"/>
	<polygon fill="#FDE700" points="438,1767.1 544.3,1767.1 526.6,1572.2 	"/>
	<polygon fill="#FEE800" points="569.6,698.7 384.8,696.2 491.1,835.4 	"/>
	<polygon fill="#FED602" points="577.2,336.7 508.9,265.8 516.5,367.1 	"/>
	<polygon fill="#FFEB00" points="478.5,1334.2 582.3,1202.5 465.8,1083.5 405.1,1215.2 	"/>
	<polygon fill="#FDD900" points="491.1,511.4 587.3,508.9 483.5,425.3 	"/>
	<polygon fill="#FFD506" points="526.6,577.2 587.3,508.9 491.1,511.4 	"/>
	<polygon fill="#FCCD01" points="600,422.8 577.2,336.7 516.5,367.1 	"/>
	<polygon fill="#FFD602" points="483.5,425.3 600,422.8 516.5,367.1 	"/>
	<polygon fill="#F5C912" points="587.3,508.9 600,422.8 483.5,425.3 	"/>
	<polygon fill="#FFE43E" points="544.3,1767.1 610.1,1696.2 526.6,1572.2 	"/>
	<polygon fill="#FDE000" points="610.1,1025.3 491.1,835.4 465.8,1083.5 	"/>
	<polygon fill="#FED700" points="610.1,1025.3 465.8,1083.5 582.3,1202.5 	"/>
	<polygon fill="#FFD911" points="632.9,1248.1 582.3,1202.5 478.5,1334.2 	"/>
	<polygon fill="#F8D00E" points="610.1,1696.2 640.5,1587.3 526.6,1572.2 	"/>
	<polygon fill="#F9D507" points="653.2,913.9 569.6,698.7 491.1,835.4 	"/>
	<polygon fill="#FBD603" points="653.2,913.9 491.1,835.4 610.1,1025.3 	"/>
	<polygon fill="#FAD610" points="526.6,1572.2 670.9,1465.8 478.5,1334.2 	"/>
	<polygon fill="#FEC500" points="526.6,1572.2 640.5,1587.3 670.9,1465.8 	"/>
	<polygon fill="#FFE41F" points="478.5,1334.2 701.3,1372.2 632.9,1248.1 	"/>
	<polygon fill="#FED001" points="670.9,1465.8 701.3,1372.2 478.5,1334.2 	"/>
	<polygon fill="#F88100" points="640.5,1587.3 719,1519 670.9,1465.8 	"/>
	<polygon fill="#FB7907" points="701.3,1372.2 726.6,1263.3 632.9,1248.1 	"/>
	<polygon fill="#FFA904" points="731.6,789.9 569.6,698.7 653.2,913.9 	"/>
	<polygon fill="#F28B02" points="736.7,696.2 569.6,698.7 731.6,789.9 	"/>
	<polygon fill="#FC8D00" points="726.6,1263.3 762,1131.6 632.9,1248.1 	"/>
	<polygon fill="#FAAF00" points="582.3,1202.5 762,1131.6 610.1,1025.3 	"/>
	<polygon fill="#FFAC04" points="632.9,1248.1 762,1131.6 582.3,1202.5 	"/>
	<polygon fill="#F89F41" points="719,1519 789.9,1450.6 670.9,1465.8 	"/>
	<polygon fill="#FF7400" points="670.9,1465.8 789.9,1450.6 757,1389.9 	"/>
	<polygon fill="#F68E07" points="794.9,1022.8 653.2,913.9 610.1,1025.3 	"/>
	<polygon fill="#F98500" points="762,1131.6 794.9,1022.8 610.1,1025.3 	"/>
	<polygon fill="#F5733F" points="815.2,721.5 736.7,696.2 731.6,789.9 	"/>
	<polygon fill="#FA8100" points="653.2,913.9 820.3,913.9 731.6,789.9 	"/>
	<polygon fill="#FB8442" points="794.9,1022.8 820.3,913.9 653.2,913.9 	"/>
	<polygon fill="#FE4735" points="853.2,792.4 815.2,721.5 731.6,789.9 	"/>
	<polygon fill="#F5706B" points="820.3,913.9 853.2,792.4 731.6,789.9 	"/>
	<polygon fill="#FF7069" points="855.7,1035.4 820.3,913.9 794.9,1022.8 	"/>
	<polygon fill="#F87064" points="789.9,1450.6 888.6,1339.2 757,1389.9 	"/>
	<polygon fill="#E15F5D" points="757,1389.9 888.6,1339.2 848.1,1286.1 	"/>
	<polygon fill="#FB6159" points="916.5,931.6 820.3,913.9 855.7,1035.4 	"/>
	<polygon fill="#FF4981" points="888.6,1339.2 964.6,1217.7 848.1,1286.1 	"/>
	<polygon fill="#CD001D" points="964.6,1217.7 901.3,1182.3 848.1,1286.1 	"/>
	<polygon fill="#DD526F" points="901.3,1075.9 984.8,982.3 855.7,1035.4 	"/>
	<polygon fill="#D04E7A" points="984.8,982.3 916.5,931.6 855.7,1035.4 	"/>
	<polygon fill="#C2023B" points="901.3,1075.9 1000,1103.8 984.8,982.3 	"/>
	<polygon fill="#E06786" points="901.3,1182.3 1000,1103.8 901.3,1075.9 	"/>
	<polygon fill="#D52B50" points="964.6,1217.7 1000,1103.8 901.3,1182.3 	"/>
</g>
</svg>
