<svg xmlns="http://www.w3.org/2000/svg" width="378.9" height="461.9" viewBox="0 0 378.9 461.9">
  <title>Anime10_13_14</title>
  <g>
    <path d="M497,606v19c-1.3,2.9-4,2.5-6.5,2.5H383.8c-2,.2-3-.9-2.3-2.7s.5-4.9,1.4-7.2c2.9-2.5,6.7-2.2,10.1-3.4s5.8-2.2,8.6-3.5c7.4-3,10.4-8.6,10-16.4a18.8,18.8,0,0,1,.3-6.4c2.4-3.6,7.5-3.3,9.8-6.9,5.2-1.5,10.2-1.5,14.4,2.6,2,2,4,.8,6,.4s6.6-3.5,8.4-1.9c4.8,4.4,10.2,1.8,15.3,2.7,1.3.2,2.5,1.1,4.2.3-.1-10.9,9.4-10.8,16.3-13.7.4-8.3.4-8.3,4.9-7.3,1.3-1.5.7-3.6,1.7-5.1s2.5-3.2,3.5.2q0,20.9,0,41.7C496.5,602.8,496.1,604.5,497,606Z" transform="translate(-118.1 -166.1)" style="fill: #e87f72"/>
    <path d="M382,626.9l109.7.3A7.4,7.4,0,0,0,497,625v3H118.1V166.1H497V606c-1.8-1.4-.9-3.4-1-5.1-.1-14.3-.2-28.6-.2-43-3-3.9-1.6-8.4-1.5-12.7a21,21,0,0,1,0-6.4c-.7-9.8-.4-19.5-.2-29.3,0-1.8.3-3.6-.8-5.2s-3.1-5.3-2.7-8.6c5-4.6,3-10.7,3.7-16.3a19.9,19.9,0,0,1,.1-7.8c-.9-7.1.1-14.3-.4-21.4-.4-3.2.4-6.4,0-9.6s-.1-4.3-.1-6.5q0-126.4,0-252.9c0-1.8,0-3.7,0-5.5-.1-5.9-.8-6.5-6.7-6.7H130.4c-9.3,0-9.3,0-9.3,9.6q0,147.7,0,295.3a53.5,53.5,0,0,1-.3,8.5,68.3,68.3,0,0,1-.2,14,14.2,14.2,0,0,1,0,4.6c.1,1.2,0,2.5.1,3.7.5,12.8.5,25.5,0,38.3.5,10.6.5,21.2,0,31.9a256.9,256.9,0,0,1,0,26.7,39.4,39.4,0,0,1-.1,7.4c.6,2.8.2,5.5.2,8.3a2.9,2.9,0,0,0,1.9,2.7c6.3,1.2,11.5,5.2,18.5,5.1,77.1-.3,154.1-.1,231.2-.1C375.7,625,379.2,624.2,382,626.9Z" transform="translate(-118.1 -166.1)" style="fill: #fefcfc"/>
    <path d="M495.9,544.9v13.1c-3.7,2.6-.6,7.4-4.1,10.5-2.3.4-1.5-3.7-3.9-3.8-1.6,1.9.6,2.9,1,4.3,1.1,3.8-.2,5.3-4.1,5.2s-7.9,3.5-12,5.2c-1.2.5-.7,2.7-.4,4.2.6,3.9-1.2,5.7-4.5,4s-6-2-9.3,0-4.3.9-5.3-1.8-2.7-2.7-5.1-1.8-7.5,2.6-11.7,4c-2.3-7.6-8.5-5.9-14-5.8-3.1.6-5.7,3.8-9.3,1.6-2.3-4.3-2.1-5.7,1.6-9.9a44.8,44.8,0,0,1-5,1c-2.5-1.4-4.6-3.2-4.5-6.5s2.3-4.8-.9-6.4-5.7-1.7-8.4.5a29.5,29.5,0,0,0-2.3,2.7c-2.3,2.4-4.8,4.2-8.4,3a5,5,0,0,1-1.9-1.4c-1.5-2.8-3.6-5.3-4.2-8.5a10.3,10.3,0,0,1,.8-4.3c.3-.8,1-1.3,1.3-2.1,1.8-5,5.6-6.4,10.3-5.4,1.8-2.7-.2-5.2.7-7.6s4.5-6.7,6.6-10.2a3.1,3.1,0,0,1,3.6.7,8.6,8.6,0,0,1,1.6,2.5c1.7,2.5-.4,6.9,4.1,8a3.2,3.2,0,0,1,.8,1.2,4.7,4.7,0,0,1,.1,2c-1.2,7.9-1.2,7.9,3.8,15,2.1-2.6-1-5.5.8-7.9s5.1-4.1,8.6-3.6a31.3,31.3,0,0,0,14-1.5c2.8-.9,5.1-3.4,8.4-2.3a6.4,6.4,0,0,0,2.7,1.2c10.4.2,20.8,1.6,31-1.2C484.5,541.7,490.4,541.6,495.9,544.9Z" transform="translate(-118.1 -166.1)" style="fill: #cd6559"/>
    <path d="M382,626.9H136.8c-2.7,0-5.5.7-7.2-2.7s-3.3-1.3-5-1.2c-4.4.2-6.1-1.8-5.5-6.1,3.9-3.3,9-2.6,13.4-2.7,18.1-.6,36.2-2.4,54.3-2.4,10.1,0,19.9,1.8,29.7,3.4s17.2.8,25.8,2c10.6,1.6,21.3,2.9,32,3.5,18.1,1,36.2.7,54.4.8a15.7,15.7,0,0,0,4.9-.9c7.2-1.2,14.5-.4,21.7-.5,3.5-.1,6.9-.2,10.1-1.5s8.7-.8,13.1-1.4c1.6-.2,3.3-.4,4.5,1.2C387.2,621.7,382.5,624,382,626.9Z" transform="translate(-118.1 -166.1)" style="fill: #cd6559"/>
    <path d="M383.1,618.2c-5.7.8-11.3,2.5-17.1,1.7a2.1,2.1,0,0,0-1.4-.4c-1.5.3-3.2.8-3.9-1.1s1-2.9,2.5-3.7l2.3-1a14.8,14.8,0,0,1,5.9-.6c9.3,1.1,16.6-3.7,24.1-8,2.5-1.4,3.3-3.9,3.3-6.9-3.7-1.4-6.8.3-9.6,1.7-4.6,2.2-9,3.2-13.8.9-1.8-.8-3.6-.3-5.4.1s-6.1-.9-6.5-4.9,4.6-2.9,7.1-4.6c-8.3-.4-16.5-1.6-24.8-2a14.9,14.9,0,0,1-4.4-.5c-3.1-1.2-5.7-.1-8.8.9-6.3,2-11.8,5.9-18.3,6.9a65.8,65.8,0,0,1-28.3-3.5c-2-.7-4.1-1.3-5.4-3.3s1.5-4.5,3.9-4.1,5-1.3,6-4c2.7-1.6,4.3-.2,5.6,2.1s.9,2.9,2.1,3.9,16.9,2.9,19,1.6c3.7-2.4,1.1-3.5-1-4.7a2.2,2.2,0,0,1-.4-2.9c2.3-1.7,4.8-.7,7.2-.4,17,2.3,33.8.9,50.4-2.9a5,5,0,0,0,3.8-3.6c1.5-3.5.9-8.7,6.7-8.9l.9,1c1.9,2-.6,4.5.8,6.9,3.9-1.2,8-1.4,11.9-3.1s4.4-5,8.2-2.8c.3,2.7,3.2,3.7,4.2,6s-1.3,4.5-3.1,6.1-6.3,4.8-8.9,8.2c5.1-2.1,9.3-5.8,15.1-5.3,3.3,1.4,6-2.7,9.3-.9-2.3,3.3-5.6,5-9.4,5.9-.2.2-.6.5-.6.8,1.2,9.9-5.3,16.2-10.4,23.2C396.3,616,389.7,617.1,383.1,618.2Z" transform="translate(-118.1 -166.1)" style="fill: #844d3d"/>
    <path d="M402,612a8.7,8.7,0,0,1,3.1-7.5c4.1-3.6,6.6-7.8,6-13.5-.2-1.4.3-2.6,2-3,0,3,0,5.9,0,8.9C412.9,605.8,410.6,609,402,612Z" transform="translate(-118.1 -166.1)" style="fill: #a9483e"/>
    <path d="M119.1,483.1c0-10-.1-20-.1-30q0-139.2-.1-278.4c0-7.8,0-7.8,7.7-7.8H488.4c7.6,0,7.6,0,7.6,7.3q0,130.9,0,261.9c0,1.7-.1,3.3-.1,5s-3,2.6-5,2.6a17.8,17.8,0,0,0-8.5,2.3c-1.5.6-3.2.5-4.6,1.6s-5.8,2-8.3-.9,1.9-4.9,2.1-7.6a15,15,0,0,1,1.1-3.2c.3-.8.7-1.6,1-2.4l.6-1.1a3.6,3.6,0,0,0,.9-2.9,34.6,34.6,0,0,1,.2-5.5c-2.9-19.6-19.7-27.2-34.9-21.8-1.8.6-3.1,1.9-4.6,2.8s-3.8,1.1-5.6,2-.2,3.3-1.1,4.8-3.4,4-6.5,2.4c-7.1-3.7-9.1-3.2-14.1,3.8a3.4,3.4,0,0,1-1.2.7,4.3,4.3,0,0,1-3.3-.6c-2.4-1.7-4.4-1.7-7.2,0s-7.1.9-10.5,2.3a2.2,2.2,0,0,1-1.2-.9c-.9-2.4-.6-5.1-1.8-7.4-1.2-14.6-2.1-29.1-.9-43.8.4-6.2,1.7-12.3.9-18.7s-1-9.9.7-14.7c2.6-2.8,3.6.6,5.3,1.3a12.1,12.1,0,0,1,2.2,4.9,26.5,26.5,0,0,0,8.1,13.5c11.8-2.6,15.9-10.8,16.4-21.7a8.3,8.3,0,0,1,3.1-7.5c3-2.3,4.2-4.5,1-7.6a2.2,2.2,0,0,1-.4-2.3c4.1-4.2,9.5-2.8,14.8-3.2.9-2.6,0-6,2.6-8.1s5.5-2.5,7.5-4.9c7-1.7,12.3-6.2,17.4-10.9s8.2-5,12.8-6.3c2.4-.7,4.8-.9,7.3-2.3-4.7-2.6-9.7-4.1-14-7a4.8,4.8,0,0,0-3.4-.5c-9.5.9-12.7-1.8-13.6-11a26.1,26.1,0,0,0-1.8-4.6c-3.4-6.2-4.6-6.4-10.4-2.5s-11.9,3.8-17.7,6.2c-3.3-1.3-3.9-3.9-3.7-7,1.5-5.3,5-9.2,9.3-13.2-6-.8-9.9,3.5-14.7,4.6a5.9,5.9,0,0,1-2.2,0,24.2,24.2,0,0,0-2.8-.7c-5.6,1.3-10.1-1.9-14.8-4a3,3,0,0,1-2.1-1.9c-.2-3.3,2.4-4.5,4.5-6s4.1-2.1,5.2-4.6c-3.8-3-8.6-1.1-12.4-3.2a8.7,8.7,0,0,0-4.6-2.5c-4.2-1.2-7.8-3.4-8.9-8.1,1.1-3.7,4.4-6.4,5.2-10.3s6.2-1.7,7-5.1-1.8-5.2-2.6-7.9a14.2,14.2,0,0,0-16.5-10.4c-5.3,1-10.1,1.5-14.6-2.3-1.9-1.6-4.1-.5-4,1.6.6,7.7-3.5,13.4-7.2,19.3a9.3,9.3,0,0,0-.5,1.4,8.5,8.5,0,0,1-1.7,2.5c-1.1,1.1-2.3,2.1-3.9,1.5s-2.4-2.2-2.3-4A102.5,102.5,0,0,1,334,187c.5-2.9,1.3-5.9-.5-8.7-2.7-.5-4,1.5-5.3,3.1-2.7,3.2-4.9,6.8-7.8,9.8-7,7.4-10.9,15.8-9.6,26.2.3,2.5.1,5.2-1.7,7.1s-3.2,6.4-3.1,10.2a20.9,20.9,0,0,1-2,3.9c-3.4,6.4-3.9,6.7-10.5,7.1-1.1,3.1,1.5,6.6-1,9.5s-3.8.4-5.6,0-3.7-1.5-5.3-.1,0,2.2.5,3.1c2,3.5,1.6,6.3-2.3,8a7.7,7.7,0,0,0-4.4,5c-2.8,3-6.5,4.6-9.6,7.3s-3.9,1.4-5.9-.1c-3-4.3-.1-8.7-.2-13s-4.2-3.7-5.4-6.3c-.4-.5-.7.3-.2-.1s.1.1.3.4c2,2.5.6,3.6-1.8,4s-4.7-.4-6.8-1.1c-8.6-2.7-16.9-2.7-25.2,1-3,1.3-6.2,2.6-9.6,2.2a5.1,5.1,0,0,1-2.9-.7c-2.8-2.5-4.6-6-7.8-8.2s-4.8-3.2-7.8-2.5c-5.7,1.4-11.8,1.5-16.9,5.1s-12.5,2.4-19.1,3.7c12.6,5.4,20.3,17.6,33.1,22.5,1.7,3.4,4.7,4.8,8.1,6s4,5.4,5.5,8.4c-.1,3.4-2.5,3.8-5.1,3.8a20.7,20.7,0,0,1-5.2-.9c-2-.1-4,.2-5.9-.2-4.9-1-8.9.7-12.1,4.2a44.6,44.6,0,0,1-10.1,8c-6.2,3.8-11.3,8.6-13,15.7a2.5,2.5,0,0,0,2.7,1.7c6.9-.5,12.7,3.6,19.2,4.6,3.4.6,4.4,3.4,4,6.5a8,8,0,0,0,2.1,6.8c.7,9.4-4.5,15.4-14.7,16.8a12,12,0,0,0-8,5.4c-3.9,5.4-8.2,10.4-15.2,13.9,9.1,2.3,17.1,5.4,25.6.9,1.6-.9,3.4-2.4,5.5-.7a5.1,5.1,0,0,1,.3,4.5c-5.1,5.8-11.9,7.9-19.3,8.9-2.4.3-5,.5-6,3.4a30.1,30.1,0,0,0-6,5.1c-3.9,4.4-7.9,8.8-14.5,10.2,6.6,2.8,12.2,7.1,19.6,6.8a13.8,13.8,0,0,0,8.6-3.6,73.4,73.4,0,0,1,9-7,149,149,0,0,1,23.9-10.3c3.4.1,4.9,1.9,4.4,5.2-5.2,4.7-4.9,11.7-9,17.9,5.2-.8,8.1-1.8,8.1-6.5,0-2.9,2.1-4.3,5-4.5s6.6-2.1,10.2-1.7,3.4-1,3.8-3.1c1.4-4.6.9-9.4,1.8-14.1a117.6,117.6,0,0,1,23.4-9.7,5.6,5.6,0,0,1,3.6,2,9.2,9.2,0,0,1,.6,7.3c-1.4,3.6-4.8,5.8-7,8.9-3.8,5.5-3.9,7.3-.1,12.6a10,10,0,0,1,2,7.9c-.3,1.5-.6,2.9.6,4.1,1.5,5.2,2.7,10.4,2,16-.4,3.3.9,6.5,3.4,10,6.4-4.1,7.7-11.6,12.4-16.4a42.1,42.1,0,0,1,8.3-8.9c2.8-.7,4.6,1.3,6.7,2.6s2.3,1.9,2.7,0c1.9-8.8,6.5-17.1,3.9-26.5-.5-3-1.2-5.9-1.5-8.8s.5-5.6,4-6.5a3.8,3.8,0,0,1,4,1.5c4.2,7,9.2,13.8,10,22.3.1,13.4-5.1,25.2-10.5,37-4.7,10.2-10.4,20-14.2,30.7-.8,2.2-2.1,4.2-4.7,4.8a4.3,4.3,0,0,1-1.9.5c-13.9-1.4-27.8-.5-41.7-1.5-10.1-.7-20.2-.7-30.2-2-3.4-.4-6.8-1.7-10.3-.5-7.9.5-15.8,1.5-23.7,1.1-10.1-.6-20.1-1.3-30.2-1.1A6.1,6.1,0,0,1,119.1,483.1Z" transform="translate(-118.1 -166.1)" style="fill: #c2cbd0"/>
    <path d="M119.2,575V543.2c1.8-2.3,4.3-2.3,6.9-2,11.8,1.3,23.5.5,35.4.2,8.7-.2,17.6.2,26.4.8,13.3.9,26.5,1.8,39.8,1.8,6,0,12-.3,17.9.8,4.2.8,7.8-1.2,11.3-3.2s6.2.4,7.8,3.8,1.3,4.1,2.3,6,.4,3.6,1.1,5.2-1.6,5.1-2.3,7.5c1.1,1.8,3.1,2.2,4.1,3.7s.4,1,.7,1.3c5.9,4.8,5.9,4.8,1.7,12a8.9,8.9,0,0,1-2.8,2.9c-9.2,0-18.5,1.5-27.7.3a13.1,13.1,0,0,0-4-.2c-19.5,3.5-39.2,1.2-58.8,1.8-4.3.1-8.7-.1-13,0s-9-.9-12.2-5.2-13.6-4.6-17.5-1.5-4.6,2.5-7,.1-5.5-1-8-2.4A8.8,8.8,0,0,1,119.2,575Z" transform="translate(-118.1 -166.1)" style="fill: #cd6559"/>
    <path d="M258.2,542.1c-3.2,5.2-8.4,5.5-13.4,4.8a96,96,0,0,0-13.9-.7c-22-.2-43.9-2.4-65.8-2.8-10.8-.2-21.6.9-32.4.4l-13.4-.6V503.9c1.6-1.7,3.7-1.6,5.6-1.3,12.3,1.9,24.8.4,37.1,1,4.4,1.9,8.9,3.4,13.2,5.4s8.4,1.2,11.9-3.5a4.9,4.9,0,0,1,1.9-1.6c11.8,1.2,23.6.1,35.4.9,3.6,3.5,8.7,3.5,13,5.2a14.2,14.2,0,0,0,2,.3c2.4.6,5.6.9,5.8,3.8s-3.2,3.2-5.6,3.7-3.6.3-5.9,2.7c7.1.5,13.3,2.1,19.7,2.6,2.3.2,4.7-.1,6.5,1.8C261.9,530.9,262.9,536.8,258.2,542.1Z" transform="translate(-118.1 -166.1)" style="fill: #dac6b2"/>
    <path d="M178,483l43.5,2.8c1.8.1,3.6.2,5.5.1,12.3-.4,24.5.6,36.7,1.2a20,20,0,0,1-4.1,17.7,20.3,20.3,0,0,1-9.9,0,17.1,17.1,0,0,0-4.4-.5c-37.4.6-74.7-1.7-112.1-1.1-4.7.1-9.6,0-14-2.3V497c5.4-5,12.4-5.2,19-5.7,14.5-1.3,29-1.3,43.4-3.3a9.1,9.1,0,0,0,2.2-.5C181.1,487,178,487.1,178,483Z" transform="translate(-118.1 -166.1)" style="fill: #dac6b2"/>
    <path d="M119.2,575c2.1.5,4.2,1.2,6.4,1s5.9.3,6.7,5.2c3.8-9,10.6-5.5,16.5-5.1,3.2.2,6.3,1.2,7.6,4.7s2.9,3.3,5.5,3.3c21.1-.1,42.3,1,63.4-.5,10.4-.7,20.8.2,31.1-1.3,4.3-.6,8.8,1.1,13.3.7,1.3.9,1.2,2,.7,3.2a3.6,3.6,0,0,1-1.5,1c-16.2,1.4-32.4,2.9-48.7,3.9-7,.4-13.8,1.9-20.8,2.2-4.5.2-8.1,3.7-12.6,4.6-6.9,1.4-13.9,1.1-20.9,1-4.7-.1-8.9.5-11.7,5-1,1.6-2.9,2.8-4.7,2-8.4-3.3-17.2-1.3-25.7-2.3-1.7-.2-3.3-.3-4.5-1.7Z" transform="translate(-118.1 -166.1)" style="fill: #b05f3f"/>
    <path d="M495.9,472v7.9c-4.5,3.4-8.2.4-11.7-1.8s-2.8-2-5.6,0c6.1,4.3,6.5,9.3.9,12.6-2.6,1.5-4.9,1.5-5.8-1.9s-2-4.1-4.9-3.6c-8.7-2.3-17.2.7-25.5-.3-1.3,3.2.3,4.6,1.4,6.2s2.9,5.2.7,8.2a3.4,3.4,0,0,1-3.7-.3c-3.7-4.8-8.6-7.6-14.3-9.4-2.6-.8-4.8-2.6-5.1-5.6s1.4-3.9,3.6-4.8a6.5,6.5,0,0,1,2.9-.1c2.1.4,4,.1,5.2-1.8s-1.4-2.9-2-4.8c1.8-3.2,3.9-6.5,7.5-8.8-1.2-3.7-2.1-7.3-6-9.2-1.4-.7-2.4-1.8-1.6-3.6a3.7,3.7,0,0,1,1.1-.9c2.8-1.1,5.5.1,8.3.2s3.9.4,6-.9c-2.6-3.4-5.3-6.8-5.3-11.3,2.3-4.9,1.2-10.8,4.4-15.4,4.6-.8,5,2.5,5.6,5.7s.5,7.2,1.5,10.8a21,21,0,0,0,3.8,7.9c.4,3.2,2.3,5.8,3.2,8.8-.1,1.1.3,1.1,1,.5,5.3-.4,5.4,3.1,4.9,6.9,3.3,1,4.4-.4,4.8-3.2.9-6.1,2-6.8,8.1-5.5,3.3,5.8,8.2,10,13.9,13.2C494.8,468.4,494.5,470.8,495.9,472Z" transform="translate(-118.1 -166.1)" style="fill: #5b1209"/>
    <path d="M119.2,602c7.6,0,15.4-1,22.8.3s11.1,2.9,14.8-4c1-1.8,3.9-1.3,6.1-1.4,7.8-.2,15.6.7,23.4-1a10.7,10.7,0,0,0,2.4-.4c15.1-7.5,31.6-6,47.6-7.4,10.9-.9,21.7-2.8,32.7-2.1,1.2,2.7-1,3.2-2.7,3.6a75.9,75.9,0,0,1-9.2,2.2c-1.7.3-3.5.5-4.6,1.7-5.1,5.2-11.8,5.2-18.2,5.2-8,0-15.8,1.4-23.8,2.8,7.7-1.2,14.3,3.6,21.7,3.7a7.4,7.4,0,0,1,3.4.8,84,84,0,0,0,20.9,8.2c1.6.4,3.3,1.2,2.7,3.5s-3.6,1.2-5.5,1c-14.1-1.3-27.9-4.1-41.8-6.2a192.7,192.7,0,0,0-26.8-2.2c-15.6-.2-31.2-1.5-46.8-1.3-4.8.1-9.5,1.4-14.4,1.1-1.6-.1-3.4.3-4.7-1.1Z" transform="translate(-118.1 -166.1)" style="fill: #a9483e"/>
    <path d="M119.2,609c13.1-2,26.3-2.8,39.6-1.3a87.4,87.4,0,0,0,10.9.3c24.1-.3,47.9,2.7,71.4,7.5,4.9,1,9.8,1.6,14.7,2.4a3.4,3.4,0,0,0,3.2-.9,3.3,3.3,0,0,1,3.3-1.1,10.4,10.4,0,0,0,4.2.6c7.2.5,14.6-1,21.7,1.8,1.3.5,2.6-.2,3.9-.6a7.5,7.5,0,0,1,4.1.3c2.7,1.9,5.7,1.7,8.8,1.2,7.6-.8,15.2.3,22.9.2,2.5-.2,5.2-.9,6.3,2.5-2,1.2-4.2,1-6.3,1-16.3,0-32.7.4-49-.1-10.2-.4-20.4-2.2-30.6-3.3-4.9-.5-9.9-1.6-14.8-1.4-11.4.5-22.5-1.9-33.6-3.4a137.1,137.1,0,0,0-31.4-.3c-7.6.7-15.2.6-22.8,1.2s-17.5,1.7-26.3,1.3Z" transform="translate(-118.1 -166.1)" style="fill: #b05f3f"/>
    <path d="M495.9,544.9l-17.7-1.1h-.7a3.3,3.3,0,0,1-2-.3,4.2,4.2,0,0,1-1-.9,4.3,4.3,0,0,0-3.3-2c-6.8,0-10.5-5-15-8.9-.3-3.4.9-7-.6-10.3-.6-4.9-3.3-8.8-6.2-12.7-1.8-2.3-4-4.5-3.1-7.9a4.7,4.7,0,0,1,4.3-2.8,11.1,11.1,0,0,1,8.8,5.7c.8,1.5,1.7,2.8,3.6,3.1s3.3,1,3.5,3-1.3,2.9-2.8,3.7-1.9.7-2.5,2.2a15.1,15.1,0,0,1,6.6,1.2c4.2,1.8,5,1.3,5.5-3.1s1.6-7.8-1.8-11.2c-.8-.8-.5-2.2.2-3.3,3.5-2.8,5.8-.8,7.7,2a10.7,10.7,0,0,1,1.8,6.1,29.9,29.9,0,0,0-.2,14.8c1.6,6.3,4.7,11.4,10.9,14a8.2,8.2,0,0,1,3.9,2.9Z" transform="translate(-118.1 -166.1)" style="fill: #3f251d"/>
    <path d="M178,483c1.9,2.6,4.3,3.4,7.4,2.4s3.7-.8,4,1.5-1.7,2-3.2,2.2c-8.5,1-17.1,2.6-25.6,2.9-14,.4-27.9,1-41.4,5.1q0-7,0-13.9C138.8,482.2,158.4,485.5,178,483Z" transform="translate(-118.1 -166.1)" style="fill: #cab7a4"/>
    <path d="M480,507.8a47.6,47.6,0,0,0-2.4-6.4c-1.2-2.2-3-3.6-5.5-1.3-5.1,2.1-9.1-1.6-13.6-2.5-1.4-3.8,1.6-6,3.5-7.9a32.4,32.4,0,0,1,6.9-5.6c7.7-3.7,4.9,3.9,6.9,6.7,3.8-1.8,7.4-3.4,5.7-9-2.4-.5-5-1-7.1-3.3,1.5-3.2,5.4-3.2,7.9-5.9,2.7,6.3,7.7,7.6,13.4,7.4a86.8,86.8,0,0,0,.2,9.3c.5,4-1.5,5.9-5,6.8-.4,1.5.6,3.3-.9,4.6s-4.7,2-5.1,5.4S482.7,510,480,507.8Z" transform="translate(-118.1 -166.1)" style="fill: #844d3d"/>
    <path d="M480,507.8c2.5.5,4-.6,3.8-3-.4-5,2.6-5.2,6.2-4.7.2.3.5.7.4.9-5.8,8.8,1.6,17.9-.7,25.3-.1-5.8-1.2-13,1.6-20,.5-1.3.3-3.6,2.9-3.3s1.8,1.8,1.8,3.1c0,11-.1,22-.1,33.1C482,536.4,474.4,521.3,480,507.8Z" transform="translate(-118.1 -166.1)" style="fill: #84220d"/>
    <path d="M119.1,501.2c19.3,1.8,38.6.8,57.9,1.2,27.6.6,55.2,1,82.9,1.5a1.9,1.9,0,0,1-.1,2.7c-.6.3.2.2-.4.3-11.5,1.9-23,2.3-34.4-.6l-36.9-.9c-4.5,3.2-9.6,1.6-14.4,1.6a40.2,40.2,0,0,1-10.6-1.6l-43.9-1.4Z" transform="translate(-118.1 -166.1)" style="fill: #844d3d"/>
    <path d="M495.9,472c-2.3-3.4-7.5-3.4-9.2-7.5-.1-.3-.4-.7-.7-.7-5.4-.5-5.9-4.9-7-8.8a3.9,3.9,0,0,1-.9-4.5c2-2.7,4.8-1.9,6.7-.6,3.9,2.7,7.3,2.9,11,.1Z" transform="translate(-118.1 -166.1)" style="fill: #2e0d07"/>
    <path d="M495.8,450c-3,5.9-3.8,6.1-9.4,2.3a14.4,14.4,0,0,0-7-2.3c-2.7-3.4,1.2-3.7,2.5-5.2a7.8,7.8,0,0,1,7.5-2.5c2.4.4,4.4-.3,6.5-1.2Z" transform="translate(-118.1 -166.1)" style="fill: #5b1209"/>
    <path d="M494.2,503c-3.9,9.3-3.2,19-3.1,30-2.8-4.1-3.1-7.5-3.1-11s.7-7.8-2.3-11.4c-1.7-2-.3-4.7,1.3-6.8s3-1.7,3-3.7-.3-2.9,1-4.1Z" transform="translate(-118.1 -166.1)" style="fill: #c6540e"/>
    <path d="M381.3,553.9c-.4,1.4,0,3-1.1,4.2s-4.4,2-6.6,3.2c-9.2,2.4-17.7,6.9-27,9.1-5.8.2-11.4.8-17,3-11.2,4.5-24.4-3.4-27.6-15.8-1.4-5.5-1.1-11.2-.6-16.8s-1.3-10.7,2.9-15.1c1.7-.5,2.8.6,3.9,1.6,7.7,7.4,16.6,11.9,27.5,11.8a17.7,17.7,0,0,1,13,5.4c3.5,3.4,7.4,6.2,10.9,9.5s8.1,2.2,12.4.5,5.2-4.7,5.2-8.7c.1-10.8,0-21.6,0-32.4,0-2-.1-4,.8-5.9s1.3-2.5,2.9-1a4.1,4.1,0,0,1,.9,2.3c-.2,8.1,1.8,16.1,1,24.3S383.8,547.1,381.3,553.9Z" transform="translate(-118.1 -166.1)" style="fill: #fbbb02"/>
    <path d="M381.2,532.9,379.7,506a3,3,0,0,1-1.1-1.9c0-1.5-.4-3-.4-4.5,2.9-4.7,1.8-9,.1-14-2.4-7-4.7-14-8.9-20.3a12.8,12.8,0,0,1-2.5-8.4c.7-2.5,2.1-4.2,4.8-4.6s3.9,2.4,5.1,4.3q6.3,9.5,12.3,19.2c1.5,2.4,2.7,4.9,5.6,6.1s4.2,5.1,5.5,8.2,2.4,6.2,4.8,8.6a6.5,6.5,0,0,1,1.7,5.6c-.9,5.7.2,11.3.1,16.9-.1,3.8.6,8.1-3.3,10.8a2.7,2.7,0,0,1-1.5-2c-.8-1.3-1.6-2.5-1.4-4.1,1.8-12.8-3.4-24-8.1-35.3-1.6-3.8-4-7.3-5.7-11-.3-.4-.1-1.2-1-1.1.9,0,.8.8,1.1,1.2,6.2,11.2,11.4,22.8,13.6,35.5.8,4.7,1.2,9.5-1.4,13.9.1,4.6-2.6,7.5-6.2,9.9C388,538.7,384.6,535.8,381.2,532.9Z" transform="translate(-118.1 -166.1)" style="fill: #844d3d"/>
    <path d="M408.3,541l-.2-1.5c-1.8-1.5-1.1-3.3-.5-5s1.7-2.7,1.4-4.2c-1.6-7.5,1.4-14.7,1.2-22.1a10,10,0,0,0-3.4-7.9,13.9,13.9,0,0,1-4.8-12.5c.7-6.6-1.5-11.8-7.9-14.6-3-1.3-5.1-4.3-8.5-5s-3.8-3.2-2.9-6.1a5.4,5.4,0,0,1,6.4-1.2c4.1,2.1,7.8,1.4,11.7-.1a4,4,0,0,1,3.5,1.5c2.3,3.7,5.9,6.4,8,10.3a7.4,7.4,0,0,1,.2,1.5c.2,3.9,1.6,7.4,3.2,10.9s4.5,9.7,3.4,15.3c-4.2,6.8-3.1,14.2-2.9,21.6.1,2.8,3.2,2.5,4.5,4.2s.2,6.3.3,9.5c1.2,5.7,4.5,8.4,10.5,7.8,2.2-.2,5.2-.6,5.9,2.9a36.4,36.4,0,0,1-15,1.8c-3.3-.2-6.1.5-8.3,3.2-2.9-.2-2.6-2.6-2.7-4.4A7.1,7.1,0,0,0,408.3,541Z" transform="translate(-118.1 -166.1)" style="fill: #5b1209"/>
    <path d="M386,467.1c12.6,2.6,18.2,10.2,17.4,22.6-.2,3.5,1.3,7.3,4.2,9s4.3,4.5,4.3,7.7,1,9.3-1.8,13.6c-1.4,2.1.7,3.7,1,5.5,1,5.3-2.7,9.3-3.1,14.1-1.6.2-1.8,1.7-3.1,2.9-1-3.6-2.2-6.9-1.5-10.5a40.3,40.3,0,0,0,1-17.7,14.3,14.3,0,0,1,.2-6.4c1.1-3.9.8-7.1-2.9-10.1s-2.5-8.5-5.8-11.9c-.9-.9-.8-2.6-2.5-2.9-3.3-3.6-5.2-8.1-7.6-12.3C385.2,469.5,384.9,468.3,386,467.1Z" transform="translate(-118.1 -166.1)" style="fill: #2e0d07"/>
    <path d="M373.7,560.2c1.7-1.9,4.2-1.6,6.4-2.1,1.2,2.7,4.1,4.5,3.9,7.9-4.3,1.6-3.4,6.1-5.1,9.2a12.5,12.5,0,0,1-7.5,3.6c-9.4,1.3-18.7,2.8-28.2,1.8-2.2-2-2.5-4.7-2.7-7.5,7.5-3.7,15.4-6.4,24.3-5.6C365.9,562.7,369.7,561.3,373.7,560.2Z" transform="translate(-118.1 -166.1)" style="fill: #d09314"/>
    <path d="M437.3,546.1c-1.7-1.5-3.8-1-5.7-1.1-9.4-.1-9.4-.1-12.6-9.1a10.3,10.3,0,0,0,3.2-4.8c1.8-5.9,3.7-6.4,9.2-2.8a3.9,3.9,0,0,1,1,1.7c.8,4.2,3,5,7.1,4,6.1-1.5,8.4,1.1,6.8,7.1a3.1,3.1,0,0,1-2.2,2C441.4,543.1,440.3,546.7,437.3,546.1Z" transform="translate(-118.1 -166.1)" style="fill: #bf400b"/>
    <path d="M381.2,532.9c4.6.7,8.1,3.3,11.7,5.9a28.8,28.8,0,0,1,1.5,5.2c.3,2.6-.6,5.9-3.8,4.4-4.7-2.1-6.1.3-7.7,3.7a8.2,8.2,0,0,1-1.6,1.8Z" transform="translate(-118.1 -166.1)" style="fill: #b05f3f"/>
    <path d="M444.1,543.1l1.2-1.8c1.5-2.1,3.4-3.7,6.2-3.4,8.5,0,16.8.8,24.5,4.8v.3c.6.5,1.4.4,2.1.8h.2a29.9,29.9,0,0,1-12.8,2.2c-5.6-.2-11.2-.1-16.9-.1C446.5,545.9,444.5,545.8,444.1,543.1Z" transform="translate(-118.1 -166.1)" style="fill: #cab7a4"/>
    <path d="M413,583c-5.8,2.8-11.8,5-17,8.8-1.7-2.6-.3-3.8.9-5.2a48.8,48.8,0,0,1,9.4-8.1A10.3,10.3,0,0,0,410,574c3.6.5,5.4-4.4,9.7-3.2C416.5,574.4,411.4,577,413,583Z" transform="translate(-118.1 -166.1)" style="fill: #b05f3f"/>
    <path d="M405.9,568c-3.5-.4-4.4,4.2-7.8,4-1.7-2.6-6.1-3.5-5.1-7.9,2.5-5.2,8.2-6.8,12.9-3.5S409.6,565,405.9,568Z" transform="translate(-118.1 -166.1)" style="fill: #bf400b"/>
    <path d="M399,529c2.6-16.7-4.3-31.1-11.1-45.6l-2.4-4.9q-.5-1,.6-.7c11.1,15.6,17.3,32.7,15.8,52.1Z" transform="translate(-118.1 -166.1)" style="fill: #cab7a4"/>
    <path d="M408.3,541c3.4-1.3,4.8-.1,4.8,3.5s-.7,4.6,1,6.6a18.5,18.5,0,0,0,.8,2.3c2.3,4.7,1.8,5.7-3.6,7.1C408.9,554.2,403.4,548.5,408.3,541Z" transform="translate(-118.1 -166.1)" style="fill: #3f251d"/>
    <path d="M393,564.1c.2,1.2.6,2.5,1.8,2.6,3.7.3,3.2,2.9,3.3,5.3-3.2,3.5-8.4,1.3-12.1,4.4-1.3,1.1-3.3-2-2.8-4.4a35.9,35.9,0,0,1,1.8-5C388.3,567.7,390.7,566.2,393,564.1Z" transform="translate(-118.1 -166.1)" style="fill: #84220d"/>
    <path d="M334,622c-1.8-1.8-4.1-.5-6.1-1.1s-2.5-.8-3.8-.9-2.4-.4-2.5-1.9a2.3,2.3,0,0,1,2.2-2.4c7.4-.9,14.6-5,22.4-1.5,3.3,1.5,6.8.9,10.2-.4,1.7-.7,3.2-1.8,5.2-1.6s3.6,1,4.7,2.8c-1.1,1.4-3.5,1-4.5,2.8,1,1.8,3.4.3,4.3,2.1-7.9,3.7-16.3,1.6-24.5,2.1C339,622.2,336.5,622,334,622Z" transform="translate(-118.1 -166.1)" style="fill: #5b1209"/>
    <path d="M362,613c-6.3,4.4-12.8,5.8-19.9,1.7-2.6-1.5-5.1.5-7.6,1l-12,1.8c1,2.8,5,.3,5.4,3.4l-23.3-.2c-2.8-1.2-6,.2-8.7-1.4l-3.8-.2c-6.5.4-12.3-2.7-18.6-3.2-4.9-3.7-5.5-9-5.3-14.6.1-3.3,1.4-6.4,1.3-9.7a9,9,0,0,1,.5-4.1,16.5,16.5,0,0,0,.6-3.1c4.9-1.5,7.5,1.8,10.4,4.7,10.7,5.3,22.2,6.4,33.9,6.2a25.8,25.8,0,0,0,14.5-1.7c2.8-1.3,5.1-1.6,7.5,1.2s6.6,2.3,10.3,2c5.8-2.2,11.7-4.3,17.7-.5.3,3.1,3.3,2.7,5.1,3.8a30.5,30.5,0,0,1,8.7,1.9c3.8,1.4,4.4,4.2,1.1,6.4C374.4,611.5,368.6,613.9,362,613Z" transform="translate(-118.1 -166.1)" style="fill: #2e0d07"/>
    <path d="M362,613c4.6-2.6,10.3-2.2,14.8-5,1.6-1,4-1.1,3.9-3.9-3.1-2.5-7.7-1.3-10.7-4.2,2.4-1.7,4.8-.9,7.1,0s6.4,1.3,9.5-.8,6.9-2.3,10.3-3.6,4,.2,4.1,2.7-1,7.1-4.2,9c-9.4,5.5-19.2,9.8-30.6,7.9C364.6,614.8,362.5,615.5,362,613Z" transform="translate(-118.1 -166.1)" style="fill: #3f251d"/>
    <path d="M343,579.9c6-1.5,12.1-1,18.1-1.4a70.4,70.4,0,0,0,17.9-3.3c-.4,2.9-2.3,4.4-4.9,4.9-8.9,1.9-17.8,4-27,4.2s-20.9.4-31.1-2.4l-.9.4c-2.8.8-6.2,1.3-7.2-1.8s2.6-3.8,4.9-4.8a159.1,159.1,0,0,0,19.8-1.4C337.2,573.6,341.1,575.1,343,579.9Z" transform="translate(-118.1 -166.1)" style="fill: #2e0d07"/>
    <path d="M317.1,584.1c1.9-.5,3.9-.4,4.7,1.6s-.7,3.7-2.3,5.1a6.7,6.7,0,0,1-5.1,1.4c-4.8-.4-9.6-.7-14.3-1.3-3.1-.4-5.3-1.8-5.1-5.5s-1.7-3.3-3.9-3.3c-2.2,4.5-6.6,3.9-10.4,4-2.3.1-3.6-1.8-3.5-4.1s1.3-5.2,4.9-4.8c4.6-3,8.9-2,13.2.6a15.1,15.1,0,0,0,7.7,1.8c2.9.6,4.9,2.5,7.1,4.3S314.7,586.1,317.1,584.1Z" transform="translate(-118.1 -166.1)" style="fill: #2e0d07"/>
    <path d="M348,598c-3.4,1.6-6.7.4-10.2,0s-2.3-3.2-4-4.7c-6,3.3-12.2,6-18.9,1.8,4.4-1.1,7.9-4.2,11.9-5.6,6-2.2,12.6-5.3,19.3-1.4C346.1,591.5,349.7,594.2,348,598Z" transform="translate(-118.1 -166.1)" style="fill: #5b1209"/>
    <path d="M348,598a41.1,41.1,0,0,0-2.9-6.2c-1.3-1.9,0-2.7,1-3.7a8.8,8.8,0,0,1,6.7,0c4.6,1.8,9.5.8,14.3.9,2.8.1,5.7,0,7.6,2.7-.5,3-2.6,2.5-4.8,2.6s-4.6-2.1-5,1.8c-.6.5-1.7,1.5-1.9,1.4C357.9,593.4,353,596.6,348,598Z" transform="translate(-118.1 -166.1)" style="fill: #3f251d"/>
    <path d="M282.7,579.1c-2.8-1.4-3.6,0-4,2.5s1.1,3.3,3.3,3.4,6.2-1.6,9.1-2.9c.2,4.2-1,6.8-6,5.2A3.1,3.1,0,0,0,281,589c-3.8-.6-6.4-3.5-9.7-4.9-1.4-1.3-.8-2.8-.4-4.2,2.3-1.9,2.2-4.9,4.1-7.4-2.3-1.3-7,.6-5.8-4.4,1.5-2.6,4-2.7,6.6-2.3,5.2,1.8,4.9,7.6,8,10.9C284.3,577.4,283.8,578.7,282.7,579.1Z" transform="translate(-118.1 -166.1)" style="fill: #3f251d"/>
    <path d="M317.1,584.1c-.3,4.6-2.7,4.8-5.9,2.7s-5.5-4.1-8.3-6.1a2.8,2.8,0,0,1-.8-2.9,8.8,8.8,0,0,1,2.8-3.9c5.3-2.1,6.9-1.5,8.2,3.1l-4.6,3.2c2.3,1.7,5.4,0,7.4,1.8Z" transform="translate(-118.1 -166.1)" style="fill: #84220d"/>
    <path d="M304.9,234.8c-.8-4.2-1.7-8.2,3-11,1.8-1.1,1.3-3.4,1.1-5.1-1.8-11.7,2.4-21.1,10.5-29.2a70.4,70.4,0,0,0,7.4-9.4,11,11,0,0,1,8.8-4.9c2,9.5-1.9,19-.6,28.5,3.2-.1,3-3.2,5-3.8,6-2.3,8.5,2.5,11.9,5.7-.5-3.7-1.2-7.4.2-11s3.5-4.1,5.9-1.4,4.9,3.4,8.1,4.1,8.6,1.2,9.2,6.7c-3,3.5-7.6,3.5-11.7,5.5,3.6,1.9,4.3,4.9,3.6,8.4s-2.8,4.6-.3,7.1c.3,1.3.8,3,2.3,2.9,5.7-.5,8.4,3.1,11,7.2-.9,4.4-4.5,5-8,5.7-1.3-.1-2.6-.9-3.8,0-2.8,2-5.5,1.9-8.8.8s-6.3,1.2-9.5,2a68.6,68.6,0,0,1-11.7,2.1c-6.5,2.1-7.8,1-6.9-5.6a5,5,0,0,0-.5-3.8c-1.3-1.9-1.4-4-1-6.2a9.4,9.4,0,0,0-.1-4.4c-.9-2.8-1.4-6.4-4.7-7s-4.1,2.7-5.7,4.8c-3.8,5-8,9.6-14,12Z" transform="translate(-118.1 -166.1)" style="fill: #9b740e"/>
    <path d="M438.2,305c-2.6,2.8-1.8,5.6.4,8.9-6.6,1-13-.9-18.8,2-3.8,3-8,3.3-12.5,2-2-1.3-2.5-3.7-3.6-5.6-2.2-4.5-3.4-9.2-1.2-14.1,2.2-3,.9-6.3-1-8.2-3.4-3.4-6.8-7.3-12.1-8.3-2-.4-4.6-.5-3.9-3.8,1.4-1.5,3.2-1.6,5-1.5s4-.9,4.3-3.5c2.7-4.1,6.3-.9,10.1-1.3-1.2-2.9-2.2-5.9.2-8.6a28.3,28.3,0,0,0,2.5-3c3.9-4.4,7.7-4.4,10.6.7,1.4,2.4,3.6,2.6,5.5,3.7a3.8,3.8,0,0,1,1,1.1c1,2.6.3,4.8-1.1,7-2.5,4-1.7,5.7,2.8,7.3,2.4.8,5.5,0,6.9,3a2.7,2.7,0,0,1-.2,1.4c-.8,1.4-2.9.8-3.8,2.4A87.8,87.8,0,0,1,438.2,305Z" transform="translate(-118.1 -166.1)" style="fill: #84220d"/>
    <path d="M259.9,506.1v-2.2l3.8-16.7c3.8-11.5,9.3-22.2,14.8-33s10.7-24.9,12.1-38.6c5.5,1.3,5.5,6.3,6.9,10.3.2,8.8-3.6,16.5-7.2,24.2-5.3,11.3-11,22.4-15.1,34.3-2.9,6.5-4.3,13.5-5.3,20.5a31.8,31.8,0,0,1-1.2,5.3c-.3,1.5.3,3,.1,4.5-.6,5.6.4,10.2,6.8,11.9a3.3,3.3,0,0,1,2.6,3.3,3.7,3.7,0,0,1-1.9,1.5c-5.7,2.6-5.7,2.6-3.4,8.6s.5,11.2-7.3,12.4a14,14,0,0,1-2.6-6.3c-.6-2.9-2.1-4.3-5-4.1,2-5.6,1.8-11.3.6-17.1C255.4,518.5,257,512.3,259.9,506.1Z" transform="translate(-118.1 -166.1)" style="fill: #3f251d"/>
    <path d="M179,350c-3.6,0-3.9-2-3.5-5,1-6.5.7-6.7-5.6-7.6-2.8-.4-5.6-.8-7.8-2.8s-4.4-.9-6.7-.8c-6.5.3-7.5-1.1-4.8-7.1s8.9-11.8,15.6-15.4c1.2-.7,2.5-1,3.5-2.4,5.5-8,13.1-10.5,22.5-7.8,2.1,3.6-1,7.1-.1,10.7-1,4.2-5.2,5.1-7.7,7.8s-9.1,2-11.5,6.6c.7,1.6,1.9,1.1,2.7.8,5.4-2,9.8,1.2,14,3.3s3,5.9,2.4,9.4c-2.5,3.5-6.4,5.6-8.9,9.2A3,3,0,0,1,179,350Z" transform="translate(-118.1 -166.1)" style="fill: #bc160c"/>
    <path d="M375.1,204c-2.9-4.4-7.3-5.3-12.1-5.3a5.3,5.3,0,0,1-4.6-2.5c-1-1.4-1.6-3.3-3.6-4.2-3.5,5.9-.3,12.1-1.4,19.4-3.7-5.9-6.9-11-13.5-11.6-.2-3.4.8-6.1,4-7.9s3.1-3.2,2.3-5.9,0-5.3.7-7.8,4.1-4.7,6.6-2,6.6,4.4,10.7,2.7c7.7-3.1,13.2,1.9,19.3,4.7a2.5,2.5,0,0,1,1.3,1.9c-.5,4.2,1.5,7.8,3.3,11.3s-2.7,3.3-.4,5.7a22,22,0,0,0-7.9,1.4C378.3,205.4,376.7,205.6,375.1,204Z" transform="translate(-118.1 -166.1)" style="fill: #d7c06b"/>
    <path d="M201.8,298.9c-2.8-1.4-3.3-4.3-4.7-6.6.5-3.3,3.7-4,5.7-5.9,3.7-3.5,6.8-7.8,11.4-10.4s8.9-.7,12.7,2.3a4.6,4.6,0,0,0,4.1,1,15.2,15.2,0,0,1,10.6,1.7c1.9,2,4.5,3.6,4.7,6.7s-4.9,5-6.3,8.6c2.7,1,4.3-.7,6.2-1.5s5.1-1.6,6.7,1.6.2,6.2-2,8.7c-4.8,1.6-5.7,7.4-10.3,9.3-.9.4-1.5,1.2-2.4,1.7a8.4,8.4,0,0,1-5.1,1.1c-7.4-2.7-9.6-6.2-7.9-13.6.7-3.1-.2-4.8-2.8-6s-5.5-3.1-8.4-4.4a10,10,0,0,0-9.1-.1c-1.7.8-1.2,2.4-1.3,3.8S204.1,299.8,201.8,298.9Z" transform="translate(-118.1 -166.1)" style="fill: #5b1209"/>
    <path d="M432.9,283.9a5,5,0,0,1,.1-.9c.9-2.6,2.9-3.3,5.5-3.1s4.9.7,7.4-.3a16,16,0,0,0-2.1-9.4c-.8-1.3-1.8-2.4-1.3-4,2.5-3.5,6.3-4.4,10.2-5l.6,7.3c10.1,3.4,10.1,3.4,13,1.1,3.1,2.1,6.1,4.4,9.6,5.8s6.7,2.8,10.3,4.4c-2,2.4-5,2.7-7.8,3.3a37.4,37.4,0,0,0-17.6,9.2c-3.9,3.6-8.3,9.7-15.6,8-.9-3.2-2.6-6.1-2.7-9.4s-1.6-3.9-4.3-4.1S433.3,287.4,432.9,283.9Z" transform="translate(-118.1 -166.1)" style="fill: #c18212"/>
    <path d="M179,350c4.7-2.5,6.5-8.5,12-10.1,1.1-1.3,1.3-3.4,3.6-3.5,4.1,1.1,6.2,4,7.1,8,.3,1.4.2,3,1.2,4.2s.7,3,1.8,4,3.8,2.5,3,5.2-1.9,7.3-5,9.5-6.5,1.1-9,.4c-5.3-1.6-8,.6-10.8,4.1a5.8,5.8,0,0,1-3.7.4,18.9,18.9,0,0,0-8.6-1.2c-4.6.5-5.5-.5-6.4-5.7C174,365,177.2,358.2,179,350Z" transform="translate(-118.1 -166.1)" style="fill: #a45a13"/>
    <path d="M235.9,389.2c-7.5,3.2-14.9,6.8-22.9,8.7a2.2,2.2,0,0,1-.6-1.3c.2-2.3,1.9-3.4,3.6-4.5,5.5-3.7,9.5-8.6,13.2-14.1-3.7.3-3.7.3-6.8,5.1s-4.9,6.8-9.8,6.4c-4.7-3-5.7-5.4-4.2-9.7,2.2-6.2,5.3-8.4,11.4-8.1-1.3-2.5-1.8-5,.7-7s4-1.2,6,0c4.4,2.5,5.5,2.1,6.9-2.7a23.3,23.3,0,0,1,.7-2.4c2.3-4.2,5.1-7.7,10.4-7.9,6,2.3,7.5,4.8,6.6,10.8-1.5,2-1.7,5-4.4,6.1s-2.9-.3-4.7,0a9.7,9.7,0,0,1-2.9,8.2c-1.9,1.8-.5,3.7-.1,5.6S238.6,387.8,235.9,389.2Z" transform="translate(-118.1 -166.1)" style="fill: #844d3d"/>
    <path d="M274.3,270.3c-.4-3.5,1.5-5.1,4.6-5.8s4.3-2.6,1.6-5.4-2.9-2.6-1.6-4.7,3.6-2.1,5.8-1.5l8.1,2.4a7.3,7.3,0,0,1,7.3,4.4,2.9,2.9,0,0,1,.2,1.5,27,27,0,0,0,1.1,17.8c0,2.6-1.5,4.4-3.4,6a15,15,0,0,0-1.5,1.3c-4.8,6.2-4.7,6.1-11.4,1.6-2.7-1.8-6.2-.1-9.1-1.3a3,3,0,0,1-1-1.8,40,40,0,0,1-.1-4.9,7.3,7.3,0,0,1,2.8-4.3C275.5,274.2,275.6,271.9,274.3,270.3Z" transform="translate(-118.1 -166.1)" style="fill: #d09314"/>
    <path d="M432.9,450.9H432c-1.5,4.5-5.1,7.7-7.2,11.8s-4.1,3-6.7.9a2,2,0,0,1,0-2.7c3.4-3.6,1.5-6.5-1.1-9.4-3.3-4.4-6.7-8.8-10.1-13.1a9.5,9.5,0,0,1-2.2-6.3,17,17,0,0,0-2.2-9.7c.4-2.7,2.5-3.5,4.6-4.3l.8-.2c4.4-2.2,6.6,1.5,9.4,3.5s2.5,5.1,6.1,4.1c5.3-2.4,10.2.6,15.3.8a3.3,3.3,0,0,1,1.1,4c-.8,2.5-.2,4.8.7,7.1C438.5,442.3,434.7,446.1,432.9,450.9Z" transform="translate(-118.1 -166.1)" style="fill: #3f251d"/>
    <path d="M164.2,365.4c2,.7,3.8,1.5,1.9,4.3,4.9.5,9.5-3,13,1.5.3.4.8.9.6,1.3-2.2,4.6-2.9,10.1-7.7,13.2-11.1,9.6-22.6,3.6-35.2,1.3,3.9-3.2,8-3.5,10.7-6.3s6-6.1,8.2-9.9S160.3,365.5,164.2,365.4Z" transform="translate(-118.1 -166.1)" style="fill: #84220d"/>
    <path d="M208.3,263.9l2.7.4a1.7,1.7,0,0,1,1.3,1.8,3.2,3.2,0,0,1-1.4,1.8c-6.6,1.9-13.5.6-20.2.9-1.6.1-3.3-.6-5.4.7,5.3.9,6.4,4.4,6.2,8.5,2.2,1.1,4.7,0,6.4,1.7-.8,4.2-3.9,6.4-9.3,6.4-7.3-.7-11.1-6.5-16.3-10.4s-8.7-8.5-15-9.5c-2.8-.4-3.8-2.3-4.1-4.9,2.1-2.4,4.9-1.4,7.5-1.6s7.9,1.4,11.4-1.6c.8-.7,1.9,0,2.8.5s2.5-.2,3.3.7c4.7,4.6,10.6,3.4,16.3,3.7S203.8,262.1,208.3,263.9Z" transform="translate(-118.1 -166.1)" style="fill: #9b740e"/>
    <path d="M388.6,337.2c-2-.2-1.9-2.7-3.6-3.3h-.5a2.3,2.3,0,0,0-.8.8c-2.5,6.9-5.5,7.7-10.1,2.7,1.5-5.4-.6-11.1,1.5-16.5.5-1.4.4-2.9,1.3-4.2,2.6-2.1,6.7-2.2,8.4-5.7-.1-1.6-1.3-2.4-2.3-3.3-3.5-2.9-6-5.9-2.9-10.6.6-1,.3-2.2-.1-3.4-1.8-6.6-.3-8.4,7-8.2,3.9,1.2,5.4,4.1,6,7.9s1.4,5.7,2.7,8.4c5.2,10.4,4.9,11.7-4.4,17.7-.4.6-.6,1.3-1,1.9-1.6,2.4-.9,5-.5,7.5s1.3,4.7.4,7.2A1.7,1.7,0,0,1,388.6,337.2Z" transform="translate(-118.1 -166.1)" style="fill: #a94709"/>
    <path d="M164.7,415.8l-9.5,8a13.2,13.2,0,0,1-13.1,2.7c-5.5-1.7-10.8-4.2-16.2-6.4a2.6,2.6,0,0,1-1.9-2.3c.9-1.9,2.9-1.8,4.6-2,3.8-.4,5.8-2.6,8.4-5.3s4.6-8,10-7.4c3.9-2.8,4.2-2.5,5.1,3.7,4.1.2,7.4,2.7,11,4.6C165.1,412.5,165.7,413.7,164.7,415.8Z" transform="translate(-118.1 -166.1)" style="fill: #5b1209"/>
    <path d="M191.5,409.7c.9-3-.9-4-3.4-4.5a1.6,1.6,0,0,1-2.1-1.4,7.9,7.9,0,0,0-4.7-6.2c-2-1-1.9-3.3-1.4-5.3,2.5-5.6,5.8-10.8,8.7-16.2,1-1.8,2-3.4,4.2-4s6.3,1,7.4,4.5.6,7.6-3.8,9.4c1,4.6,2.7,8.7,1.6,13.3,3.3-4.8,5.9-4.5,8.4.7a8.7,8.7,0,0,1-.1,2.9c-.9,3.8.2,6.4,4.1,7.6a3,3,0,0,1,1.8,1.5c.3,4.5-1.9,6.2-5.9,4.5s-6.2,2.8-9.6,1.7c-.8-2.5-.8-5.5-4.5-6C191.2,412.1,191.1,410.7,191.5,409.7Z" transform="translate(-118.1 -166.1)" style="fill: #84220d"/>
    <path d="M181,392.1c-.1,2.6-.2,5.1,3.6,4.9,2.2-.1,3.4,1,2.7,3.5s-.7,3.3.8,4.6c-.3,1.2-1,2.5-2.1,2.5-8.1.1-13.8,6.5-21.3,8.2l-1.3-2.8c-1.7-.8-1.7,2.6-4.4,1.1l.5.3c.4-6.8-5.1-4.3-8.5-5.5s-1.5-3.8-.6-5.9c-1.3-1.1-2.3.5-3.4.1-.1-3.3,1.8-5.1,4.8-5,7.7.2,13.8-3.5,20-7.2,2.2,1.6.8,3.6.4,5.4s-2,2.8-1.1,4.6c3-.3,2.9-3.4,4.4-5S177.7,391.2,181,392.1Z" transform="translate(-118.1 -166.1)" style="fill: #a45a13"/>
    <path d="M278.1,393.2c-2.9,1-3.7,2.7-2.7,5.8s1,6,1.5,9.1c-.9,4.6-3.5,8.7-4.4,13.3-3.2,3.9-4.5,3.7-6.2-.7-.9-2.3-1.4-4.8-2.7-7.7.1,2.5-.1,4.5-2.4,4.7s-3.5-1.4-4.4-3.4c-1.3-5.3-4.7-9.5-7.3-14.1-1.2-2.1-2.4-4.2-.8-6.5s3.6-1,5.8-.8c3.7.4,7.5-.9,11-2.4,1.1-.9,2.6-1,3.8-1.6,3.4-.5,7.3-2.8,9.4,2.3A2.7,2.7,0,0,1,278.1,393.2Z" transform="translate(-118.1 -166.1)" style="fill: #9b740e"/>
    <path d="M372.1,240.1c2.6-1.9,6-2.5,8.2-5,4.4-2,7.5-1.1,10.6,2.9a2.6,2.6,0,0,0,1.9,1.8c3.9,1.7,7,4.2,7,8.6s-3,7.1-7,8.6a22.3,22.3,0,0,0-3.8,2.3,11.3,11.3,0,0,1-8.7.9,14.6,14.6,0,0,1-2.8-1.5c-1.6-1.2-3.7-1.4-5.4-2.6s-2.5-2.6-2-4.7,2.6-4,1-6.7S369.9,241.3,372.1,240.1Z" transform="translate(-118.1 -166.1)" style="fill: #fbbb02"/>
    <path d="M435,403.8c8.4-6.1,17.5-6.7,26.6-2.4s14.5,12.1,15,22.7c-2.6,0-4.7.4-6.6,2.7s-5.1,1.9-7.7.4-4.3-3.2-2.8-6.4c1.5-1.5,3.4-1.1,5.1-1s3-.5,3.1-2.4-.9-4.9-3.4-6.1-2.9-.2-3.6,1.5a5.4,5.4,0,0,1-2,2.8c-2.7,1-5.5.8-8.3.8s-6-1.4-6.9-5-1.3-4.4-3.8-5.2S436,405.7,435,403.8Z" transform="translate(-118.1 -166.1)" style="fill: #d79668"/>
    <path d="M201.8,298.9c1.5-1.5-.4-2.3-.7-3.4s.8-3.3,2.8-3.6a18.1,18.1,0,0,0,4.9.4c5.5-.5,7.2.8,8.6,6.2,6.5-.2,9,3.9,6.4,10.6-7.9,2.9-15.9,5.5-24.4,6.2-3.1.2-6.4.1-8.4-3.1s.8-7.2,1-10.8c2.4-.6,4.6.5,6.9.7S202.6,301.5,201.8,298.9Z" transform="translate(-118.1 -166.1)" style="fill: #c6540e"/>
    <path d="M278.1,393.2v-2.3c-3.1-3.6-4.1-7.1-.8-11.5s6.8-4.4,9.3.6,5.2,10.4,4.7,16.4a23,23,0,0,0-.4,5.2,3.4,3.4,0,0,0,2.1,4c4.7,2.2,7.3,5.8,8.4,10.9.8,3.6,3.5,6.3,6.1,8.9s4.9,5,5.6,8.6a4,4,0,0,1-1.5,4c-2.6.9-4-.9-5.5-2.4-3.3-3-6.2-6.4-9.3-9.6s-2.8-7.8-6.2-10.5c-2.1-7.8-7.1-14.3-10.3-21.6C280,393.6,278.8,393.5,278.1,393.2Z" transform="translate(-118.1 -166.1)" style="fill: #a37e21"/>
    <path d="M235.4,251.4c-2.7-3.1-4.4-.1-6.5.7-10.6,4-19.6-.8-23.7-12.6,1.4-2,3.8-1.8,5.8-2.3,5.9-1.5,11.9-.6,17.8-.5S239.6,244.9,235.4,251.4Z" transform="translate(-118.1 -166.1)" style="fill: #9e372d"/>
    <path d="M389.2,258c.5-1.7,2-2.1,3.4-2.7,7.1-3.3,7.8-7.3,2.4-12.9a31.8,31.8,0,0,1-2.1-2.7c.8-.9,2-1.1,2.6-.4,3,3.5,6.4,4.9,10.9,2.8.3-.1,1.1.6,1.6,1a3.8,3.8,0,0,0,2,1h2c1.3-.1,2.5.4,2.7,1.6.4,3,2.6,4.9,4,7.3s0,5.7,3.2,7.2,3.3,2.2,2,4.5c-3.6.5-7.3,1.9-7.4-4.3,0-2.5-4.7-3.2-6.1-.9a14.6,14.6,0,0,1-4.3,4.6C400.5,262,394,262.3,389.2,258Z" transform="translate(-118.1 -166.1)" style="fill: #c18212"/>
    <path d="M383.8,368.1c.4,14.9-.2,29.8,1.5,44.6-.1,2.1-.2,4.3-.4,6.4s-1.5,5.1-5.1,4.3c-3.5-4.8-3.6-10.3-3.5-15.9-.1-2-1.1-3.9-.8-6-1-7.6-.4-15.2-.5-22.8,0-4-.4-7.9-.7-11.9a10.1,10.1,0,0,1,1.3-5.7c1.3-2,2.7-1.3,4,0A14.6,14.6,0,0,1,383.8,368.1Z" transform="translate(-118.1 -166.1)" style="fill: #3f251d"/>
    <path d="M254.9,441.1c-2.5,4.1-4.9,8.2-7.6,12.2-1.6,2.4-3,6-6.4,5.4s-3.4-4.5-4.2-7.3a7,7,0,0,1-.5-2.9c.8-5.8-.2-11.4-1.4-17s3-9,8.2-10.7c2.6-.3,4.8.2,6.2,2.6,0,5.1-5,5.5-8,8.5,4.5,1.2.7,5.2,3,7.7,1.5-2,.7-5,3.3-6.8C251.1,434.3,253,437.8,254.9,441.1Z" transform="translate(-118.1 -166.1)" style="fill: #e6bc4d"/>
    <path d="M390.9,238c-3.5-1.2-6.8-2.9-10.6-2.9l-4.1-.3c-1.9-1.6.1-2.9-.2-4.8-2.1,0-4.2.1-6.3,0s-5.3-1.3-3.6-5a5.8,5.8,0,0,1,5.6-3.3c5.5.4,11,.5,16.3,2.1s7.9-.2,11.8,1.1c1.3.4,2.6.5,3.2,1.9s-.6,2.4-1.5,3.4C398.4,233.3,393.5,234.1,390.9,238Z" transform="translate(-118.1 -166.1)" style="fill: #c18212"/>
    <path d="M435,403.8c2,.3,4.3-.6,6,1.3s2,3.9,1.1,6.2c-.3.6-.7,1.4-1.3,1.4-9.3.7-11.7,9.8-17.8,14.3-1.3,3.6-2.3.6-3-.3-3.3-3.9-6.3-8.2-12-8.8,2.3-8,9.3-10,15.4-4.8,4,3.4,3.8-2.1,5.5-3.1s-2.7-1.7-2.2-4.2C428.6,403.4,432.9,407.1,435,403.8Z" transform="translate(-118.1 -166.1)" style="fill: #844d3d"/>
    <path d="M269.9,389.9c-.9,1.4-2.4,1-3.7,1s-4.1-.4-5.9-1.4-4.4-1.7-6.5-.1c-4.9,3.7-9.9,3-15,.6-1,0-2.2.2-2.9-.9l2.2-6.9c6.2-2.5,8.5-7.2,7.4-13.7,0-.2.4-.5.6-.7,2.5-.7.9-4.5,3.7-5,2.7,2.2,2.3,5.9,4.2,8.5s1.5,4.6,4.1,5.1C265.4,378.2,266.8,384.8,269.9,389.9Z" transform="translate(-118.1 -166.1)" style="fill: #b05f3f"/>
    <path d="M238.8,390.1c.8-.3,1.8-1.1,2.2-.9,5.4,2.8,9.7.6,13.9-2.6,1.6-1.2,3.3-.7,5,.5s4.2,2.6,6.3,3.9c-.1,1.8-.7,3.7-2.9,2.8-4.1-1.7-5.8.3-6.7,3.8-.6-.2-1-.3-1.1-.5-.9-1.8-1.5-3.8-4-3.9a2.1,2.1,0,0,0-2.1,1.8c-.6,2.3,1.6,3.4,2.3,5,1.9,4.8,6.7,8.3,6.5,14-1.7,2.4-4,2.7-6.7,1.9-4.3-2.1-5.6-6.4-7.6-10.3-.2-3.4-3.1-5.1-4.7-7.7Z" transform="translate(-118.1 -166.1)" style="fill: #84220d"/>
    <path d="M417.2,332.8c1.4,1.2,1.1,2.7.6,4.1-1.1,3-2.2,5.9-3.5,8.8s-4.1,8.2-9.6,8.8c-1.7.2-4,1-4.9,2.5-6.5-4.7-9-12.1-11.1-19.7l.4-.2a3.3,3.3,0,0,1,4.5-.8c4.7,3.4,10.3,4.8,15.1,6.7a2.9,2.9,0,0,1-1.1-2.8c1-4.8,4.3-6.9,9-7.2Z" transform="translate(-118.1 -166.1)" style="fill: #bc160c"/>
    <path d="M208.3,263.9c-8.5,2.4-17.2,1.1-25.7.7-2.6-.1-5-3.8-7.5-5.8,1.2-2.5,2.9-4.1,5.9-4.2a29.1,29.1,0,0,0,5.8-1.1C197.3,251.1,203.1,253.9,208.3,263.9Z" transform="translate(-118.1 -166.1)" style="fill: #d09314"/>
    <path d="M274.3,270.3c3.5-.1,2.2,4.9,7,4.9-3.5,1.1-4.3,3-5.3,4.8a3.2,3.2,0,0,1-1.2.8c-3.6-.2-4.8,3.1-7.2,4.8s-2.8,4.2-2.2,7.4-2.3,4.9-5.7,4.7a5.4,5.4,0,0,1-2.9-3.2,22,22,0,0,1-.6-2.9c-1.2-5.4-2.2-5.9-7.5-3.8-1.2.5-2.4,1.2-3.8.6-.2-2.9-3.1-4-4.1-6.3,2.7-2.4,6.6-2,9.4-4.2s6.8-2.5,10,.2c1.3-.1,3.2.4,3.9-.3A43.5,43.5,0,0,1,274.3,270.3Z" transform="translate(-118.1 -166.1)" style="fill: #b05f3f"/>
    <path d="M239,397.9c3.2,1.3,7.7,1.6,5.1,7.1s-.4,11.3-1.1,16.9c-4.6,1.6-5.4,6.4-8.3,9.5-2.2-.7-2.2-2.4-1.6-4,1.7-4.1,0-7.2-3.2-9.5s-2.5-3.6-1.7-6A29.9,29.9,0,0,1,239,397.9Z" transform="translate(-118.1 -166.1)" style="fill: #a37e21"/>
    <path d="M423.9,264.8c.3-1.9-1.9-2.8-2-4.5,1.7-2.9,4.6-3.6,7.6-4.1,4.7-.7,9-2,11.9-6.2,1.3-1.9,3.3-1.9,4.5-.4,2.9,3.4,6.5,6.5,6.7,11.5-2.4,3.4-6.7,3-9.7,5.2a2.5,2.5,0,0,1-3.3,0c-3.6-3.3-7.3-2.3-11.1-.5-1.3.6-2.7,1.4-4.3.6Z" transform="translate(-118.1 -166.1)" style="fill: #9e372d"/>
    <path d="M389,320.6v-1.5c6.2.7,12.2-.4,18.1-2.2l12.8-1c1.2,2.5,4.7,2.4,5.7,5.6-1.9,4.1-9.1,4.9-8.3,11.3l-.2.2c-2.1,1.7-4.8.9-7.1,1.5s-2.9-1.5-3-3.5,1.2-3.5.4-5.5c-3.6-1.4-6.6-.7-8.9,2.6C393.4,328.1,390.6,325.9,389,320.6Z" transform="translate(-118.1 -166.1)" style="fill: #bc160c"/>
    <path d="M251.1,414.9l6.9-.9c.9,1.4,1.6,3,3.8,2.5,1.8-2.7-1.3-4.4-1.2-7.6,7.1,2.6,5.5,9.9,8.6,14.4L271,421c4.2,5.5,2.6,12.7-3.2,14.1-2.4-.2-3.1-3.6-5.8-3.1-4.9.6-6.7-1.4-7.4-8.2C252.4,421.2,248.1,419.5,251.1,414.9Z" transform="translate(-118.1 -166.1)" style="fill: #c18212"/>
    <path d="M383.8,368.1c-3.5-1.6-4.1-5.7-6.8-8-3.3-.3-3.2-3.1-3.9-5.3.6-4.4.2-8.7.1-13.1,0-1.3-.4-2.6,1-3.5,4.8,2.3,7.6,1.2,8.1-4.4.1-.8.8-1.4,1.8-.6l.9.9h0c-1.2,5.7.2,11.3.3,17S385.3,362.5,383.8,368.1Z" transform="translate(-118.1 -166.1)" style="fill: #84220d"/>
    <path d="M481.9,444.9c-.4,1.9-2.9,2.9-2.5,5.2L479,455l-4.4.2a2.2,2.2,0,0,0-2.2,2.7c.4,8.2-1.3,9.2-9.6,5.8,0-2,3.6-2.3,2.2-4.8s-3.1-1.6-4.8-1.7l-.2-.2c-2.8-2.4-3.6-5.6-4-9,4.4-1.7,9.1-1,13.6-2l5.1,2.6C476.7,446.4,478.9,444.7,481.9,444.9Z" transform="translate(-118.1 -166.1)" style="fill: #844d3d"/>
    <path d="M255.9,423.9l2.3.4c.6,2.3-2.2,1.1-2.2,2.6s2.9.5,3.5,2.2l-1.4,1.4,4,1.5c-1.2,3.9-4.8,6-7.1,9.1-4-.7-4.7-4.7-7.3-7.6l-1.9,9.4c-4.5-2.2-5.6-5.3-3.2-9.1-1.5-1.4-2.5,1.5-4.4,0,.9-6.1,8.3-5.5,10.8-9.8S253.5,422.2,255.9,423.9Z" transform="translate(-118.1 -166.1)" style="fill: #b68f2c"/>
    <path d="M432.9,283.9c2.3,2,5,.9,7.6,1s4.8.7,3.7,4.4c-.5,1.5-.8,3.6.7,4.6,3,2.1,1.5,4.1.3,6.3-.3,4.5-4.6,3.4-7,4.8a9.1,9.1,0,0,1-4.3-6.2c-1.1-5.6-5.5-9.6-7.8-14.9Z" transform="translate(-118.1 -166.1)" style="fill: #d09314"/>
    <path d="M299.1,259l-6.3-3.7c-.2-4.3-2.9-8.2-1.5-12.7,2.6-.6,4.1,1.7,6.3,2.2,3.4-2.6,4.3-7.1,7.3-10v.2a3.2,3.2,0,0,1,1.5,2.4,45.4,45.4,0,0,0,4,16.1,3.9,3.9,0,0,1-.2,3.8C306.8,259.2,303.4,261.9,299.1,259Z" transform="translate(-118.1 -166.1)" style="fill: #b56308"/>
    <path d="M188.7,286.1c2.8-2.5,7-3,9.3-6.2-.2-5.6,2.2-8.5,7.5-8.7,2.8-.1,5.7.1,8.1,1.8s.8,2.9.7,4.4c-5.7,5-9.9,11.7-17.2,14.8C193.4,291.5,188.8,292,188.7,286.1Z" transform="translate(-118.1 -166.1)" style="fill: #c18212"/>
    <path d="M444.7,409.7c.6,4.9,3.8,5.9,7.9,5a9.8,9.8,0,0,1,6.3.3c2.2,1.6,2.2,3.7,1.1,5.9,0,4,2.8,5.5,6.1,5.9s4.3-3.7,5.6-6.3c2.8-.4,2.9,3,5,3.5v6.8c-.3.9-1.3,1.5-1.2,2.6a.4.4,0,0,1-.3.5,71.5,71.5,0,0,1-10.1-1.1,11.4,11.4,0,0,1-8.9-7.2,9.9,9.9,0,0,0-8.4-6.5c-5.2-.8-7.3-4.4-5.5-8.4A1.8,1.8,0,0,1,444.7,409.7Z" transform="translate(-118.1 -166.1)" style="fill: #d6853b"/>
    <path d="M444.7,409.7c-2.8,4.1-2.3,7.2,2.1,7.5,6.4.4,9.4,3.4,11.8,9.2a8.1,8.1,0,0,0,10.3,4.8c3-1,4.6,1.1,6.3,2.8a2.1,2.1,0,0,1-1.2,2.1c-5.9,3.5-10.3,3-15.3-1.4-3-2.7-4.9-6.2-7.2-9.4s-3.6-3.9-6.7-2.7c-2.7-.6-3.8-2.8-5-5a5.4,5.4,0,0,1,1.1-5.6v-6.9C442.6,406.3,444.5,407.4,444.7,409.7Z" transform="translate(-118.1 -166.1)" style="fill: #c6540e"/>
    <path d="M386.4,419.9h.2c2.5,1.3,4.9,2.7,7.8,3,5.3,2.9,7.4,8.1,5.8,14.1-2.4,2.5-2.7,6.4-5.9,8.3-3.2.3-4.1-2.5-5.6-4.4a14.8,14.8,0,0,1-1-2.1l-.5-1.6c-1.3-3.5-2.7-7-3-10.8S383.6,421.4,386.4,419.9Z" transform="translate(-118.1 -166.1)" style="fill: #cab7a4"/>
    <path d="M191.5,409.7c.4,1.1.8,2.2,2.4,1.9,5.5-1.3,5.3,1.1,3.1,4.8a5.4,5.4,0,0,0-.3,1.9c-2.9-.1-4,1.3-3.3,4s-.8,6-4.7,5.8-3.1,1.2-3.4,3.3c-3.2-5.5-3.1-5.4-.2-10.6a13,13,0,0,0,1.7-5.6C187,411.9,188.6,410.3,191.5,409.7Z" transform="translate(-118.1 -166.1)" style="fill: #b05f3f"/>
    <path d="M469.6,446c-4.1,4-8.9,2.5-13.6,2-5.2-3.2-4.1-8.8-4.9-13.6-.3-1.8-.1-3.6-1.1-5.2,2.8-2,3.8,0,4.6,2.2,2.8,7.5,7,9.6,14.9,7.5,1.3-.4,2.5-.9,3.7.3C473.1,442,470.7,443.7,469.6,446Z" transform="translate(-118.1 -166.1)" style="fill: #84220d"/>
    <path d="M473.1,439c-5.3,3.4-10.5,3.8-16.1.1-2.4-1.6-4.1-3.2-4-6.2s-.1-4.1-3.1-3.8c-.4-2.5.6-5.8-3.6-6-1.2.4-1.5-.1-1.3-1.2,5.8-2.1,7.9,2.4,10.4,6s5.4,7.5,10.3,8.9c2.9.8,5.5-1.1,8.4-.7Z" transform="translate(-118.1 -166.1)" style="fill: #a94709"/>
    <path d="M375.1,204h4.8c1.4,4.8-1.9,7.2-5,9.7s-4.7,5.3-8.8,4.3c1.2-5.3-2.2-7.5-6.2-9.7Z" transform="translate(-118.1 -166.1)" style="fill: #b68f2c"/>
    <path d="M366.1,218.1c3.2-.9,5.2-4.3,8.8-4.3,2.4,3.8,5.4,6.6,10.1,7.2,1.6.2,2.8.9,3,2.7-4.3.9-8.6,1.6-12.9-.5s-5.9,1.4-9,1.7c-.9-1.6-3.7-.8-3.8-3.5Z" transform="translate(-118.1 -166.1)" style="fill: #e9dba5"/>
    <path d="M386.4,419.9c-1.4,6.4,2.1,12,2.9,18.1-1.5.7-.8,3-2.4,3.6-5.4.2-4.9-4.3-6-7.5.2-.6-.3-.3-.3-.3.2,4-2,3.8-4.7,2.7s-1.1-4.5.1-6.4,2.4-4.9,4.2-6.9c3-.4,3.5-2.8,3.8-5.1s.2-3.6,1.3-5.2C386.8,414.9,385.4,417.6,386.4,419.9Z" transform="translate(-118.1 -166.1)" style="fill: #844d3d"/>
    <path d="M418.8,253.1c-3.2-1.1-6.2-2.2-5.1-6.7.1-.6-1.1-1.5-1.7-2.2,10.9-6.3,12.7-6.8,18.6-4.5C424.8,242.7,422,248.1,418.8,253.1Z" transform="translate(-118.1 -166.1)" style="fill: #c7944a"/>
    <path d="M212.1,265.7l-1.1-1.4c3.7,0,7.1-1.5,10.5-2.8,7.5-3,15.1-3.6,22.8-.8a19.4,19.4,0,0,0,10.5,1.1c-.4-3.3-4-3.8-5.9-7.1,5.7,2,8,7.1,12.5,9.1-1.1,1.7-2.7,1.7-4.4,1.5a75.1,75.1,0,0,1-20.1-2.6c-3.2-.9-6.2.1-9.2,1.1s-6.8,2.6-10.5,3C215.4,267,213.4,267.6,212.1,265.7Z" transform="translate(-118.1 -166.1)" style="fill: #3f251d"/>
    <path d="M257.1,263.6l4.2.2c1.2,3.2-1,5.9-1.2,8.8s.1,3.5.1,5.3c-3.4-.3-6.8.5-10.1,1.1C247.6,273.9,250.9,266.8,257.1,263.6Z" transform="translate(-118.1 -166.1)" style="fill: #b68f2c"/>
    <path d="M267.9,435.2c6.1-3.6,3.7-9.1,3.2-14.1a22.4,22.4,0,0,1,5.9-13c1.7,4.3.5,8.5-.2,12.7a23,23,0,0,1-.8,2.9l-4.3,14.7C269.6,437.9,268.9,436.4,267.9,435.2Z" transform="translate(-118.1 -166.1)" style="fill: #c7944a"/>
    <path d="M212.3,412.1c-8.1-.5-9.2-2.3-7.2-11.6.8-2.4,3.5-2,5.1-3.3a3.2,3.2,0,0,1,2.7-.5v1.1c2.5,4.5-.6,9.2.6,13.8Z" transform="translate(-118.1 -166.1)" style="fill: #b05f3f"/>
    <path d="M393.9,424.4c-3.6.3-7.3.9-7.3-4.5,1.7-2.3,3.5-3.7,6.6-2.4s4.5-2.8,7-4.6c1.5,2.7,4.1,4,6.8,5.2-.7,2.1-2.7,2.8-4.3,3.9S396.3,421.5,393.9,424.4Z" transform="translate(-118.1 -166.1)" style="fill: #844d3d"/>
    <path d="M169.9,402.1c-1.4-1.5-.8-2.9.1-4.4a9.6,9.6,0,0,0,1.8-6.8c-.1-1.8,1.7-3.5.3-5.3,2.2-4.9,4.1-9.9,7-14.5l4-.2a1.5,1.5,0,0,1,2.1,0c.9,2.8-.5,5-2.3,6.7-4.8,4.5-7,10-8,16.5C174.6,397.2,174.3,401.3,169.9,402.1Z" transform="translate(-118.1 -166.1)" style="fill: #3f251d"/>
    <path d="M410,244.1c-1.5,1.3-1.8.2-2-1A2.1,2.1,0,0,1,410,244.1Z" transform="translate(-118.1 -166.1)" style="fill: #c7944a"/>
    <path d="M475.5,433.5a1.7,1.7,0,0,1,1.2-2.6A2.2,2.2,0,0,1,475.5,433.5Z" transform="translate(-118.1 -166.1)" style="fill: #d79668"/>
    <path d="M265.8,552.5c1-.9,1.8-2.2,3-2.5,5.5-1.8,4.7-5.1,2.7-9.2-4.1-8.7-3.2-10,6.4-10.8,1.4-.5,1.7.5,2.2,1.5.3,3.7,1.9,7.4-.2,11.1.1,1.3-.3,2.7.2,4,6.1,2,8,4.7,7,10.4-3.9,3.2-8.4,2.2-12.6,1.3a46.8,46.8,0,0,0-7.7-1C265.7,555.8,266.1,554.1,265.8,552.5Z" transform="translate(-118.1 -166.1)" style="fill: #9e372d"/>
    <path d="M266.7,557.2c1.5-2.4,3.7-2.8,6.1-1.6,4.8,2.3,9.6,1.8,14.5.3,2.9.7,3.5,2.7,3,5.3s-4,1.8-5.9,2.9-5.5,2.3-8.5,3l-6.7,1a17.4,17.4,0,0,0-2.7-1c-3.8-.8-4.3-2.6-1.7-5.3S267.3,559.3,266.7,557.2Z" transform="translate(-118.1 -166.1)" style="fill: #84220d"/>
    <path d="M270.9,579.9l.4,4.2-.4,2.9c-.9.1-1.4,0-.9-1l-.3-3C270,581.9,269.9,580.7,270.9,579.9Z" transform="translate(-118.1 -166.1)" style="fill: #84220d"/>
    <path d="M259.9,506.1,258.7,525c-9.7.1-19.1-1.5-29.1-4,3.7-6.6,10.4-3.5,14.5-6.3-.1-2.1-2-2.2-2.9-2.1-5.3.3-9.4-3.7-14.6-3.5-2.2.1-1.2-1.9-1.5-3C236.6,505.7,248.2,505.8,259.9,506.1Z" transform="translate(-118.1 -166.1)" style="fill: #cab7a4"/>
    <path d="M163,505.3a156.5,156.5,0,0,1,25.1,0c.2,4.8-2.8,6.4-6.8,6.7a11.1,11.1,0,0,1-5.8-.7Z" transform="translate(-118.1 -166.1)" style="fill: #cab7a4"/>
    <path d="M270,586l.9,1q0,2,0,4c-1.6,4.2-5.2,5.6-9,7s-7.2,1.3-10.3,4.3c2.6,5.1,7.1,7.6,12.1,9.5,3.4,1.3,7.2,1.2,10.5,2.9,6.2.2,11.9,2.8,17.9,4.2a3.7,3.7,0,0,1-4.1.9c-7.5-3-15.4-.6-22.9-1.8a3.1,3.1,0,0,1-2.1-.9H259c-8.4-2.5-16.4-6.6-24.6-8.9-6.6-1.9-13.6-5.5-21.2-4.2a8.6,8.6,0,0,1-7.7-2.7c.2-2.5,2.2-2.1,3.7-2.3l35.7-3c1-.1,2.4-.1,2.8-.7,4.8-6.9,12.7-5.4,19.3-7.3a2.5,2.5,0,0,0,2-2Z" transform="translate(-118.1 -166.1)" style="fill: #9e372d"/>
    <path d="M430.9,529c-4.4-2.1-7.5-2.4-7.1,4.1.2,3-2.6,2.8-4.8,2.8l.6-10.1c-.5-.7-1.1-1.4-1.2-2.2-.2-7.9-1.5-15.8-.5-23.7a38.5,38.5,0,0,0-4.6-15.5c-1.9-3.2-3.1-6.8-2.5-10.7,5.4-2.9,10,0,14.4,2.5a3.1,3.1,0,0,1,1.3,3.9c-1.3,1.1-3.8,1.5-3.1,3.9s2.5,3.4,4.7,4c5.8,1.6,11.5,3.4,14,9.8a3.4,3.4,0,0,1-1.9,3.5,4,4,0,0,1-3.3-.5c-2.2-1.3-2.9.2-3.5,1.8-4.9,4.2-5.2,9.1-3,15.1C431.6,521.2,433.7,525.2,430.9,529Z" transform="translate(-118.1 -166.1)" style="fill: #c6540e"/>
    <path d="M426.5,480.2c-3.9-5.4-9.8-6-15.7-6.4l.2-.8c1.4-1.7,3.7-2.2,4.9-4.1-2-5.5-1.9-5.8,2.2-5.9s5,1.5,6.2-2.6,4.4-6.8,7.7-9.3a2.3,2.3,0,0,0,1.9,2c6.6,1.5,5.6,7.9,9.2,12.9-6.8-1.3-6.2,5.2-9.7,6.8,2.1.3,4.6.6,3.3,3.8s-3.2,5.4-6.9,4.9A14.9,14.9,0,0,1,426.5,480.2Z" transform="translate(-118.1 -166.1)" style="fill: #844d3d"/>
    <path d="M468.9,484.1c-.8,2.8-1.5,5.2-5.2,6.4s-2.5,5.4-5.7,6.6l-.5.5a3.2,3.2,0,0,1-2,.1c-1.9-.7-3.1.9-4.6,1.4l-3.9,2.1c-1.5.2-2.1-.4-2-1.9.4-3.3.1-6.1-3-8.3-1.4-1-1.8-3.4-3.3-6.5C449.2,483.3,458.9,480.9,468.9,484.1Z" transform="translate(-118.1 -166.1)" style="fill: #2e0d07"/>
    <path d="M444.9,499.2l2,1.9c.6,3.5,3.1,5.7,5.1,8.4s4.9,6.7,5.2,11c.4,2.8.7,5.7-.5,8.3a7.3,7.3,0,0,1-8,4.6c-3.6-.3-4.8-3.1-4.6-6s-3-5.6-2.2-8.9,1.5-3.8.1-6-4.2-7.1-2.1-11.4l2.1-3.2Z" transform="translate(-118.1 -166.1)" style="fill: #fbbb02"/>
    <path d="M432.9,450.9c-.9-6,3.2-9.3,6.8-13a2.3,2.3,0,0,1,3.3.1c1.8,3.8,1.8,9,7.7,9.5-.2,3.9-2.9,4.1-5.6,4.5C441,452.5,437,451.1,432.9,450.9Z" transform="translate(-118.1 -166.1)" style="fill: #844d3d"/>
    <path d="M443,438h-3.3c-5.2-3.3-.9-7.2-.8-10.9a7.9,7.9,0,0,1,2.1-9.2l4,4,1.3,1.2C446.3,428.3,445.9,433.5,443,438Z" transform="translate(-118.1 -166.1)" style="fill: #b05f3f"/>
    <path d="M460.1,457.1l-.3.4-.2-.2.4-.3Z" transform="translate(-118.1 -166.1)" style="fill: #844d3d"/>
    <path d="M295.9,619.1c3,.1,6.2-1.4,8.7,1.4C301.6,620.6,298.3,622.6,295.9,619.1Z" transform="translate(-118.1 -166.1)" style="fill: #9e372d"/>
    <path d="M262.9,617.1a2.2,2.2,0,0,1,2.1.9C263.6,619.3,263.3,618.2,262.9,617.1Z" transform="translate(-118.1 -166.1)" style="fill: #a9483e"/>
    <path d="M443.1,518.2c1.7,3.7,3.7,7.2,3.1,11.6-.3,2,1.6,2.2,3.1,2.2,4.2-.2,6.7-2.5,7.5-6.5a40.1,40.1,0,0,0,.4-4.9c2,3.9.1,7.7,0,11.6s-3.2,5.9-6.7,7c-1.6.9-3.1,2.3-5.2,2.2-.4-1.9,1.8-4.4-.5-5.6-3.8-2-7.2.7-11,1.9-2.3-2.4-2.6-5.5-2.9-8.6a66,66,0,0,0-2.7-13.1c-2.6-8.4-2.6-8.4,4.8-14.1,3.6.7,2.4,3.3,2.1,5.4-1.1,6.9-1.2,6.9,5.6,8.9A3.2,3.2,0,0,1,443.1,518.2Z" transform="translate(-118.1 -166.1)" style="fill: #f08711"/>
    <path d="M450.9,498.9c.4-1.8,1-3.5,2.6-4.6s1.9,1.6,2.5,2.6a1.3,1.3,0,0,0,2-.1h0c5.2-1.2,9.3,2.4,14.1,3.1,0,1.2.1,2.3,1.5,2.8,3,1.1,2.7,3.6,2.2,5.8a35.8,35.8,0,0,0-.8,6.4c-.1,4.6-2,5.7-6.4,4.2-2.2-.8-4.2-4-7-.7-.6.8-2-.6-2.8-1.5s-.4-2.2.3-3.2a5.2,5.2,0,0,1,3.4-1.9c1.4-.3,3.4-.3,2.9-2.5s-2.1-1-3.3-.8a2.5,2.5,0,0,1-3.1-2C458.1,502.3,454.4,500.7,450.9,498.9Z" transform="translate(-118.1 -166.1)" style="fill: #5b1209"/>
    <path d="M450.5,539l6.7-7h.5c5.5,3.3,10.5,7.6,17.2,8.6.5.1.8,1.3,1.2,2C467.7,540.3,459,540.5,450.5,539Z" transform="translate(-118.1 -166.1)" style="fill: #5b1209"/>
    <path d="M478.1,543.8a1.6,1.6,0,0,1-2.1-.8C476.8,542.9,477.7,542.8,478.1,543.8Z" transform="translate(-118.1 -166.1)" style="fill: #cd6559"/>
    <path d="M379.6,504.1v2c-1.1,1.7-.7,3.6-.7,5.4,0,11.8-.1,23.6,0,35.5,0,5-2.5,7.5-6.9,9.8-6.9,3.6-11.8,1.4-16.6-3.6-3-3.1-6.4-5.8-9.6-8.7a12.7,12.7,0,0,0-10.1-3.4c-10.1,1.2-17.7-4.7-26-8.8-2.5-1.3-2.9-4.4-4.9-6.2a3.5,3.5,0,0,1-1.4-3c.2-10.4-.5-20.8.4-31.2a14.2,14.2,0,0,1,11.8-5.3c4.8.2,9.9-.5,14.4.9,7.1,2.2,13.3,3,20.3-.7,4.2-2.2,9.4.4,14,2,3,1.4,4.4,4,4.8,7s3.1,5.8,7.2,4.8C378.5,500.8,378.7,502.7,379.6,504.1Z" transform="translate(-118.1 -166.1)" style="fill: #fdd601"/>
    <path d="M313.1,576.9c-2.1-3.3-4.9-3.5-8.1-1.8s-6.1-2.1-8-5c1.1-5.9-.7-11.1-2.6-16.6s-2.7-9.3,1.1-13.5c2.7-1,5.2-1.2,7.4,1.2.6,5.3-.5,10.6.8,15.8,3.4,13.2,16.7,19.3,28.6,13.1,4.8-2.5,10-1,15.1-.8-1.4,2.4-4.2,2.2-6.3,3.3,1.9,2.1,2,4.6,1.8,7.2-4.9-4.9-10.6-4.3-16.6-2.9A27.4,27.4,0,0,1,313.1,576.9Z" transform="translate(-118.1 -166.1)" style="fill: #e58521"/>
    <path d="M302.9,541.2l-7.7-.2c-1,.5-1.3-.1-1.7-.9s1.3-3.3,2.7-4.5a8.6,8.6,0,0,0,3.1-8c.8-12.8,2.2-25.5,1.8-38.4a5.5,5.5,0,0,1,1.6-4.1c4.9.3,4,2.9,2.4,5.9q-.1,17.5-.1,35C301.5,530.7,303.6,536.1,302.9,541.2Z" transform="translate(-118.1 -166.1)" style="fill: #e6bc4d"/>
    <path d="M341.2,572.7c1.5-2.2,4.4-1.8,6.3-3.3,8.7-3.2,17.1-7.2,26.2-9.2-6.6,3.3-6.6,3.3-6.6,9.6C357.9,566.2,349.9,571.5,341.2,572.7Z" transform="translate(-118.1 -166.1)" style="fill: #5b1209"/>
    <path d="M376.9,500.9c-5.7,3.5-7.8,2.7-8.9-3.8a14.2,14.2,0,0,0-3.1-7,30.9,30.9,0,0,1-6.3-10.2c-.6-3.5-.7-7.1-1.9-10.5-.3-1.6-.8-3.1-1.1-4.6-.8-5.9-3.9-11.5-3.2-17.7.2-1.4,0-2.9.5-4.3s3.7-3.5,6.6-2.8c5.5,4.4,6.8,10.9,8.4,17.2,1.6,4.7,3.1,9.3,6.7,13.2,1.8,1.9,2.7,4.9,3.2,7.6a38.3,38.3,0,0,0,3.5,10.7c2.2,4.3,1.8,8-2.2,11C379,500.9,378,501,376.9,500.9Z" transform="translate(-118.1 -166.1)" style="fill: #fefcfc"/>
    <path d="M367.9,457.1c-3-3.2-4-7.4-5.7-11.2-.7-1.6-1-3.5-2.4-4.7-3.9-6.3-3.2-13.2,2-17.5,4.2,4.3,3,10.5,5.5,15.3.2,3.1,2.3,5.3,3.7,7.8s2.8,3.7,1.1,6.2A12.4,12.4,0,0,0,367.9,457.1Z" transform="translate(-118.1 -166.1)" style="fill: #9a7e73"/>
    <path d="M372,453c-.5-5.1-5.7-7.9-6.3-13,4.2-.9,4.7,3.5,7.1,5,3.7,3.9,5.5,9,8.8,13.2a4.4,4.4,0,0,1,.8,4c1.1,1.7,1.8,3.7,3.5,5,1.2,5.9,5.9,10.2,7.6,15.9-2.3,0-2.9-2-3.9-3.4C383.7,470.7,378.6,461.3,372,453Z" transform="translate(-118.1 -166.1)" style="fill: #dac6b2"/>
    <path d="M376.9,500.9c.3-1.1,1.3-1.1,2.1-1.4,1,1.4.9,3,.5,4.5A3.2,3.2,0,0,1,376.9,500.9Z" transform="translate(-118.1 -166.1)" style="fill: #fbbb02"/>
    <path d="M385.6,478.5c-.4-.4-1.4-.5-.9-1.2s1.1-.1,1.4.5Z" transform="translate(-118.1 -166.1)" style="fill: #cab7a4"/>
    <path d="M418.1,462.9a2.8,2.8,0,0,0-2.7,1.7c.4,2.2,3.1.8,3.9,2.8-1.9,2.9-3.9,5.9-8.4,5.5-4.2-2.9-5.4-8.5-10.1-10.9l-.7-1c-.3-.8-.5-1.6-.9-2.4a91.9,91.9,0,0,0-4.5-8.7c-.9-1.5-2-3.1-1.1-5s1-6.8,5.1-7.9c1.9-.9,3.4.1,4.8,1.1,5.1,4.9,7.6,11.6,11.8,17.4.6-1.7.2-4.1,2.6-4.6l4.6,5.7C422.2,459.6,419,460.4,418.1,462.9Z" transform="translate(-118.1 -166.1)" style="fill: #84220d"/>
    <path d="M393.8,444.8c2.7,4.6,5.8,9,7.3,14.3a1.1,1.1,0,0,1,0,1.8V462c-4,2.5-7.8,3.3-12.1.3-1.5-1-4.2-.2-6.4-.2l-1.6-2.9c1.4-4.3,1.4-4.3,8-4.5.6-2.9-.6-5.4-1.6-7.9s-2-3.9-.3-6c-.2-1.8.5-2.8,2.3-2.8a.5.5,0,0,1,.1.5c-.2.8.2,1.2.8,1.5Z" transform="translate(-118.1 -166.1)" style="fill: #3f251d"/>
    <path d="M417.9,500c2.9,8.5,2.4,17.2,1.7,25.9-2.3,1-5,1-5.1-1.7-.4-7.7-2.1-15.6,2-22.9C416.8,500.8,417.4,500.5,417.9,500Z" transform="translate(-118.1 -166.1)" style="fill: #2e0d07"/>
    <path d="M274.2,614.8c-8.4,1.1-15.3-2.1-21.3-7.5-1.7-1.5-3.9-3.1-3.3-5.7s3.2-2.7,5.3-3.2c5.9-1.4,11.5-3.1,16-7.3.7,3.7-.6,7.2-.8,10.9S270.9,611.1,274.2,614.8Z" transform="translate(-118.1 -166.1)" style="fill: #84220d"/>
    <path d="M275.9,567.1c1.5-3.8,5-3.5,8.1-4.1h1.5c2.2.2,4.8.3,4.9,3.1s-2.6,2.8-4.8,3l-.7.2c5.1,5,11.9,6.1,18.2,8.4l-.2,2.8c-4.2.9-7.6-1.3-11.2-2.9-1.8-.8-3.7-1.3-6.2-2.2.7,3,1,5.6-2.8,3.5.8-3.5-2-4.4-4.5-5.9C279.4,570.4,278.5,568.4,275.9,567.1Z" transform="translate(-118.1 -166.1)" style="fill: #844d3d"/>
    <path d="M303.1,577.8a18.2,18.2,0,0,1-15.2-4.6c-.6-.5-1.2-1.3-2-1.4-4.4-.9-4.4-.9-2.4-5.2,1.8-.9,4.5,3.4,6.1-.8-1.6-1.6-4.3-.9-5.6-2.8,1.6-2,3.9-2.1,6.1-2.1s3.2,2,4.1,3.7a19,19,0,0,0,3.5,4.7c2.3,2,4.2,4.6,7.2,5.8C305,576.5,303.8,577,303.1,577.8Z" transform="translate(-118.1 -166.1)" style="fill: #5b1209"/>
    <path d="M310.1,256.8c-3.5-6.8-6.1-13.9-5.1-21.8,7.1-5.7,13.4-12.1,18.2-19.8a13.4,13.4,0,0,1,8.7,14.7c-.7,4.5-.7,4.5,2.3,7-.1,2.8-3.2,5.2-1.4,8s3.4-1.2,5.3-.8a5.4,5.4,0,0,1,2,4.3c-.3,3.9,2.1,5.1,5.2,5.9s4.5.8,5.2,3.2-1.6,3.7-3.2,5a6,6,0,0,0-2.7,5.9c0,.3,0,.7,0,1,0,2.3,3.2,5.3-.9,6.7s-7.4,1.4-9.4-2.2c-2.8-5.1-8.2-7.9-10.9-13.4-1.6-3.2-7-3.4-11.2-2.7A2.3,2.3,0,0,1,310.1,256.8Z" transform="translate(-118.1 -166.1)" style="fill: #d09314"/>
    <path d="M342.8,268c-1.7-3.5.9-5.1,3-6.8s3.1-1.2,3.9-3.2c-2.6-3.1-7-1.6-9.8-3.8s-.2-7-1.8-10.2c6.5-.3,12.5-2.4,18.8-3.8,1.7-.4,2.7-.8,4.5.4a3.8,3.8,0,0,0,5.6-1.2c2.1-3.5,3.7-1.7,5.1.7-.9,2.1.5,3.4,1.4,5.1s2.9,5.8-2.4,6c-3.2-.1-6.2.5-8.5,3s-3.9,1.4-6.2,1.5c3.6,1.9,7,3.7,4.5,8.5-2,2.6-5.5,3.6-6.9,6.8a5.9,5.9,0,0,1-4.7,2.2C345.8,273,344.3,270.5,342.8,268Z" transform="translate(-118.1 -166.1)" style="fill: #a37e21"/>
    <path d="M424.3,266.3c1.4-.9,2.7-1.9,4.2-2.6,5.4-2.7,10.3-2.2,14.4,2.6s4.2,9.6,6,14.7c-5.2,3.1-11-1.5-15.8,2-1.9-1.8-4.4-.6-6.6-1.2-3.9-1.1-6.5-3.5-8.8-7.3C422.2,273.4,423.7,270.2,424.3,266.3Z" transform="translate(-118.1 -166.1)" style="fill: #d09314"/>
    <path d="M389.2,258l13.4,3.3c1.5.4,3.4.7,3.6,2.9-3,4,.8,5.8,3,8.2-2.4,2.5-4.6,1.7-7,.9s-4.3-2.3-6.5-.3-5.1-1.3-7.7-1.8l-1.1-.7c-.6-.4-.8-2.1-1.9-.5a4.1,4.1,0,0,1-2.2.2c-4-2.8-4.9-6.3-2.6-11.2A24.8,24.8,0,0,0,389.2,258Z" transform="translate(-118.1 -166.1)" style="fill: #d09314"/>
    <path d="M391,294c-.5-3.2-1.6-6-5.1-7a4.6,4.6,0,0,0-3.3-.9c-2.8.5-4.9-.5-6-3.1s-.9-4.8,1.4-6.7,5.9-1,7.9,2c.3.4.6,1.2.8,1.2,6.8-.8,10.3,4.9,15.3,7.7,3,1.7,4.1,8.2,2,10.9-3.3.6-6.5-.6-9.8-.4S392,295.3,391,294Z" transform="translate(-118.1 -166.1)" style="fill: #a00706"/>
    <path d="M385.9,278.3l-7.9-1.6c-4,1-7.5,0-10.9-2.1a2,2,0,0,1-.5-1.4c1.7-3.3,4.9-4.6,8-6a7.1,7.1,0,0,1,2.2.2c2.7-.1,4.4,2.8,7.2,2.5,1.2-.4,2.5.9,3.7-.2,3,.1,5.5,1.8,8,3.2-.4,2,2.1,3.4,1,5.9A20.3,20.3,0,0,0,385.9,278.3Z" transform="translate(-118.1 -166.1)" style="fill: #dac6b2"/>
    <path d="M391,294l3,3c2.8,1.7,3.5,4.8,4.5,7.5s3.2,6.1,6.7,7.4c2,1.2,1.9,3.1,1.9,5.1a7.5,7.5,0,0,0-2.1,1.2c-4.3,4.7-9,4.3-14.1,1.5a6.9,6.9,0,0,0-1.9-.4c.6-1.6,2.1-1.9,3.4-2.5,4.7-2,5.6-4.6,3.6-9.5S390.7,299.1,391,294Z" transform="translate(-118.1 -166.1)" style="fill: #c6540e"/>
    <path d="M405.2,311.9c-3.2,1.4-5.4.5-6.6-2.8L394,296.9c3.5-1.4,6.9-1.6,10,1.2C402.3,302.9,403.6,307.4,405.2,311.9Z" transform="translate(-118.1 -166.1)" style="fill: #bf400b"/>
    <path d="M372,445.9c-2.9-1.1-3.1-5-6.2-5.9-2.6-4.6-2.4-10.1-4.2-15.4-3.7,5.5-1.9,11.1-1.8,16.5-2.1.1-4.5-.7-5.8,1.8s-3.6-.5-4.6-2.2-1.1-3.1-1.8-4.6c-1.8-4.2-5.3-5.7-9.7-4.4a31,31,0,0,0-5.4,2.4c-5.5,3-6,8.2-1.2,12.3s10.2,4.5,16.4.7c1.9-1.2,4-3.7,6.2-.2-.3,6.2,3.6,11.7,3.2,17.9a4.3,4.3,0,0,1-4.1,3.2c-9.9,0-19.8,1.9-29.6.3-3.3-.5-6.5-1.6-9.7.3a4.8,4.8,0,0,1-2.5.3c-4.7-2.4-5.5-4.4-3.3-8.9s4.1-6.5,3.2-10.5c-3,1.5-3.8,4.6-5.2,7.1-4.9,8.8-9.9,17.6-14.8,26.4-1.4,2.5-2.6,5.5-6,6.2a21.7,21.7,0,0,1-7.8-1c-2.1-.7-3.9-1.8-3.6-4.5,2.5-8.8,6.4-17.1,10.5-25.1a146,146,0,0,0,12.4-32.4c2.1-.6,3.2.6,4.5,2.2A55.8,55.8,0,0,0,311,438c2-.2,2.7-1.5,3.1-3.3a43.6,43.6,0,0,0,1-10.4c0-2.5-.2-5,1.9-7s4.7-1.2,7.2-1a112.5,112.5,0,0,0,34.1-1.3c2.6-.5,4.7-1.5,5.7-4.1,5.2-5.2,9.2-6.3,13.7-3.9l2.5,15.9c.3,2.5,1.4,4.8-2.3,6.4-1.9.8-1.1,4.4-1.7,6.6C377.3,440.5,375.6,443.6,372,445.9Z" transform="translate(-118.1 -166.1)" style="fill: #c2cbd0"/>
    <path d="M312,448c2.4,4.5.6,8.4-2,11.9s-2.5,5.9,1,8.3c.2,1.7-1.1,2.3-2.3,2.8a6.4,6.4,0,0,0-4.1,6.2c-.5,2.6,1.2,5.6-1.5,7.8-.3,14.7-.1,29.4-2.4,44-2.1,2.3-4.6,1.2-6.9.9s-6.5-2.3-9.7-2.8-1.7,5-5,4.9c-.1-.8,0-1.8-1.2-2s-1.6-1.6-2.4-1.7c-8.6-1.1-9.3-7-8.6-13.8l.4-4.5c2.1-1.6,4.1-.1,6.2,0a19.1,19.1,0,0,0,7.3-1c1.7-.3,2.4-1.3,2.8-3,3.5-15.2,10.8-28.8,18.4-42.3,2.4-4.2,4.3-8.6,6.9-12.7C309.6,449.8,309.7,447.7,312,448Z" transform="translate(-118.1 -166.1)" style="fill: #cab7a4"/>
    <path d="M281,510c-4.6,3.9-9.2,1.5-13.8,0,1.5-8.9,2.1-18.1,6.6-26.3,2.8,5,8.3,2.4,12.2,4.4,1.4,1.4,1.1,3.1.6,4.6C284.9,498.5,283.3,504.4,281,510Z" transform="translate(-118.1 -166.1)" style="fill: #dac6b2"/>
    <path d="M223.9,308.1c.2-3-2.6-5.2-1.5-8.1-2.5-1.4-3.5,1-5.2,1.4s-3.7-.3-2.6-1.9c2.5-3.8-.5-4.8-2.5-6.5-3.2,2.8-5.8,1.1-8.2-1.2a8.1,8.1,0,0,1,8.9-.9c4.3,2.1,8.6,4.2,12.9,6.4a3.9,3.9,0,0,1,2.2,5c-2.5,8.6-2.2,9.5,5.3,13.6,1.4,4.4.5,8.1-3.3,11.1s-4.4,4.5-6.5,6.8-6.8,4.4-11.2,2.7c-2.1-.8-4.2-2.1-6.7-1.2s-8-1.3-11.5,1.7a6.1,6.1,0,0,1-3,2.9c-.3-2.1-.6-4.2-1-6.3s-.4-1.8-.6-1.8c-4.8.3-8.2-6-13.6-2.8-1.7,1-3.9,1.7-5.3-.5s.2-4.2,2-5.4a25.7,25.7,0,0,1,11.5-4.1,52.5,52.5,0,0,1,13.1-2.3c7.6-.6,14.3-4.6,21.8-5.8C221,310.6,222.9,310.1,223.9,308.1Z" transform="translate(-118.1 -166.1)" style="fill: #bf400b"/>
    <path d="M223.9,308.1c.3,3.5-2.4,4.1-4.8,4.5-6.2,1.1-12,4.1-17.9,5.2s-11.3,2.6-17.1,1.1c.5-4.1,5.8-3.5,7-6.9,6.2,2.1,12.3,1.6,18.5-.3S219.1,309.3,223.9,308.1Z" transform="translate(-118.1 -166.1)" style="fill: #84220d"/>
    <path d="M257.1,263.6c-3.3,4.7-6.9,9.2-7,15.4-2,4.5-5.9,2.9-9.3,2.9-2.8-2.1-6.7,1-8.7-2.3-2.5.9-1.4,3.2-3.2,4.8-2.7-6.9-7.9-8.4-14.5-7-2.2-1.1.4-2.2,0-3.3s-3.2-4.4-3.3-7.3l1.1-1.1a60.6,60.6,0,0,0,15.7-4.4,12.2,12.2,0,0,1,8.3-1.1A117.2,117.2,0,0,0,257.1,263.6Z" transform="translate(-118.1 -166.1)" style="fill: #c2cbd0"/>
    <path d="M205.1,334c2.5-1.7,4.7-.7,7,.6,3.9,2.2,6.9,1.7,10-1.9s4.5-6.6,8.4-8.2c1.4-.5,1.5-2,1.5-3.4s-.1-3.7,1.2-5.2l4.5-1c7.6,2.1,11,7.3,11.1,17a4.6,4.6,0,0,1-1.3,2.7c-7.8,6.2-16.6,8.5-26.5,6.4-3.2-.7-4.6,2.2-6.9,3.5s-3.5-.3-4.9-1.5S203.8,338.3,205.1,334Z" transform="translate(-118.1 -166.1)" style="fill: #84220d"/>
    <path d="M257.9,293.7l2.4,3.7a7.3,7.3,0,0,0,6.1-1.3,14.1,14.1,0,0,1,6.9-2.5c5.8-.5,9.3,3,9.4,9.3-4.8,4.2-8,10.6-15.6,10.8-1.7,0-2.4,1.6-3.1,2.9-2.7,2.7-3.1,7.1-6.9,9-6-1.5-7.1-3.6-3.9-8.4,1.7-2.5,1-4.1-.8-6.1s-4-2.8-2.5-5.7.5-6.3,2.1-9.1S255.4,293,257.9,293.7Z" transform="translate(-118.1 -166.1)" style="fill: #c18212"/>
    <path d="M249.9,305.2c.3,2,2,2.9,3.3,4.1,4.7,4.3,4.7,5.1.2,9.7-.4.4-.8,1-1.4,1.8l4.9,4.1c3.5,3.1,6.2,7,9.6,10.2-1.5,6-6,7.6-10.3,3.5-2.6-2.4-4.8-5.3-8.2-6.7-.3-.5-1-1.1-.9-1.6,1-5.9-2.3-9.5-6.4-12.9-1-.8-1.9-1.8-2.8-2.7a3.2,3.2,0,0,1,2-2.6c4.1-1,6.1-3.5,5.6-7.5C247.3,303.7,248.5,305.2,249.9,305.2Z" transform="translate(-118.1 -166.1)" style="fill: #e6bc4d"/>
    <path d="M257.9,293.7l-5.8,2.4a4.7,4.7,0,0,0-5.5.2,23.3,23.3,0,0,1-2.9,1.8c-2,1-4.5,1.8-5.8-.3s.8-4.2,2.5-5.6,4.2-1.4,4.5-4.1l.8-.5c2.7-1.7,5.3-4.7,8.7-3S257.9,290.2,257.9,293.7Z" transform="translate(-118.1 -166.1)" style="fill: #84220d"/>
    <path d="M210.3,342.1c1.1.9,2,2,3.7,1.9,1.9,1.7-.2,4.2,1.6,6.8,2.8-5.5,7.9-5.9,12.8-6.7,2.1-.3,4.2-.2,4.9,2.2s-1.2,3.1-2.8,4.1-2.5,1.6-3.3,4.6c3.4.5,7.6.2,8,5.2-.1,1.5-.2,3-.4,4.5s-2.4,3.5-4.5,4.2a3.1,3.1,0,0,1-4.4-2c-.7-1.8-2.2-1.8-3.7-1.5a2.7,2.7,0,0,0-2.2,2.4,3.4,3.4,0,0,0,1.7,3.8c1.2.7,3,.9,2.5,3.9-6.9-4.1-11.6-2.4-14.6,5.1-1.7,4.2,1,6.1,3.2,8.4-1.5,2.9-.4,6.3-1.9,9.2s-4.1,1.4-6,2.5c-.2-2.4-1.4-4-3.9-3.2s-1.8,3.3-.7,5.4c-2.9.4-4.8.6-3.9-3.1s0-6.9-1.3-10c-2-5-1.7-5.9,3.4-7,1.1-5,.4-9-5.7-9.8-2.9,0-6,.6-8.5-1.9h-1.4l3-6.2c4.3-.7,8.6,5.4,12.7-.6l1.6,3.2c2.2-.3,3.7-3.2,6.3-11.4-.7-2-3.1-.6-4.5-2.6v-4.3C202.4,344.9,205.4,342.3,210.3,342.1Z" transform="translate(-118.1 -166.1)" style="fill: #5b1209"/>
    <path d="M210.3,342.1c-2.2,2.9-6,4-8.1,7-1.2-.3-2.3-.9-2.2-2.2.6-4.9-2.8-7.4-6.1-9.9.7-3.6,2.8-4.5,6.2-3.5a26.4,26.4,0,0,0,4.9.5A21.3,21.3,0,0,0,210.3,342.1Z" transform="translate(-118.1 -166.1)" style="fill: #b56308"/>
    <path d="M253,372c-3-2.3-3-5.7-3.2-9,.9-5-1.2-8.3-5.9-10.1-1.3-2.1-.2-3.5,1.2-4.9,7-3.2,10.5-2,16.7,6.2,4.7-1.8,7.6-5.2,9.1-10,.6-1.8.6-4,2.7-5,4.6-.1,8.7-1.3,11.9-5a5.3,5.3,0,0,1,4.5-1.7,5.1,5.1,0,0,1,2.2.5,4.8,4.8,0,0,1,2.3,1.8c3.2,6.3,9.2,10.5,12.7,16.6,1.1,2,2.9,4.1-1,5.2a6.5,6.5,0,0,1-3.9-1.8c-2.7,2-4.5,4.3-4.3,7.9.1,1.8.4,3.9-1.9,4.5s-2.8-1.2-3.8-2.5c-2.6-3.4-4.9-3.5-10.9-.5.2,2.5,2.3,3.9,3.5,5.8s2.8,3.5,1.1,5.8-3.9-1.1-5.5-2.5-2.5-3.1-4.1-4.1-2.4,1.8-3.2,2.9-2.1,2.9-4,2-1.7-2.8-1.3-4.4c1.2-5,3.7-8.9,9-10.3,1.5-.4,3.4-.2,4.2-2.1-5.8-4-6.6-3.8-10.7,1.5-.6.8-1.2,2-2,2.1-6.1,1.2-9.3,6.2-13.2,10.2A3,3,0,0,1,253,372Z" transform="translate(-118.1 -166.1)" style="fill: #5b1209"/>
    <path d="M246.1,348.9a6.4,6.4,0,0,0-2.2,4.1c-4.3.7-6.2,4.1-8.6,7.1-2-.5-2.1-2.9-4-3.7s-4.4,3.5-5.9-.1c-2.5-6.5,3.5-6.9,7.5-8.7-.6-1-.9-1.8-1.3-1.9-2.7-.8-5.1,1-7.7,1.2s-4.9.7-5.7,4.1c-.4,1.8-2.5,2.7-4.5,1.7s-1.4-2.7-.9-4.3.8-2.9,1.2-4.3c1.4-4.5,4.6-6.2,8.7-4.4s5.6,1.8,7.6-1.6c3.7,3.1,7,2,9.6-.5a16.4,16.4,0,0,1,6.9-3.6c1.9-1.2,3.5-.8,4.6,1.2a4.4,4.4,0,0,1-.7,5.5C248.3,343,247.3,345.9,246.1,348.9Z" transform="translate(-118.1 -166.1)" style="fill: #3f251d"/>
    <path d="M211,398c-.7-2.8.5-5.9-1.5-8.3,1.1-1.2,2.4-.6,3.4-.9,6.7-1.4,9-7,11.8-12.6,2.2-.5,4.9.1,7.5-1-4,7.2-8,14.1-15.4,18.2-1.6.9-3.5,1.4-4,3.4Z" transform="translate(-118.1 -166.1)" style="fill: #cab7a4"/>
    <path d="M246.1,368c-.7,2.4,1.5,3.4,2.6,4.9-2.5,4.4-2.8,11.2-10.6,9.5-3.1-2-3.6-4-.5-6.6s3.9-3.4,2.1-6.7.9-3.3,3-2.8A14.1,14.1,0,0,1,246.1,368Z" transform="translate(-118.1 -166.1)" style="fill: #84220d"/>
    <path d="M310.1,256.8l1.9.2c8.9-.2,16,7.2,14.4,15.2-.4,2.1-1.2,4.1-3.3,5.2s-5-.9-7.3-2.2-4.6-1.4-6.6.8-3,2.1-4.6,3-3,1.7-4.4-.2c-5.7-6.3-1.7-13.1-1.1-19.7C303.1,259.8,306.2,256.5,310.1,256.8Z" transform="translate(-118.1 -166.1)" style="fill: #2e0d07"/>
    <path d="M282.2,303c-3.1-9.3-6.1-10.4-15-5.4-2.2,1.3-4.6,2.7-6.8-.2,1.1-1.4,3.3-.7,4.4-2.8s-3.5-3.6-2-6.4,6.1-5,7.9-8.8c.9-1.9,2.9-.2,4.2.7s.9,2.6,1.2,4l.2,1.9c5.1.5,9,3.3,12.7,6.6s5.8,4.7,9.9,3a3.2,3.2,0,0,1,3.7.5c1.5,5.1.7,6.7-4.3,7.7-2,.4-4,.6-5.4,2.3a3.5,3.5,0,0,1-1.5.6C287.9,306.4,284.7,305.7,282.2,303Z" transform="translate(-118.1 -166.1)" style="fill: #5b1209"/>
    <path d="M301.5,296.5l-2.4.7c-2.4-3-.8-6.5-1-9.8a4.9,4.9,0,0,0-1.2-3.4,7.4,7.4,0,0,0,3.3-5.3c3.9.5,5.2-4.1,8.7-4.4a3.4,3.4,0,0,1,3.5,1.2c1.5,1.8,3.4,2.1,5.6,2.2,4,.2,7.1,1.9,8.3,6.1-2.5,2.7-5.3,4.6-9.4,4.2s-5.4,2.6-7.5,4.8S305.2,297.6,301.5,296.5Z" transform="translate(-118.1 -166.1)" style="fill: #b05f3f"/>
    <path d="M296.9,284c1.7.2,3.6-.4,5.7.9-7.2,2.5,0,8.7-3.5,12.2-6.5,3-10.3-2.4-14.1-5.5-2.3-1.9-4.1-3.8-7.2-4-.5,0-1-1.1-1.5-1.8,3.1-1,6.6.8,9.2-1.5,1.6.4,1.4,1.6,1.5,2.5s1.6,3.2,3.7,3.1,3.2-1,3.2-3S294.8,283.9,296.9,284Z" transform="translate(-118.1 -166.1)" style="fill: #a37e21"/>
    <path d="M276,284c-1.6-1-.8-2.6-1.2-4H276C275.8,281.3,277.6,282.6,276,284Z" transform="translate(-118.1 -166.1)" style="fill: #a37e21"/>
    <path d="M441,417.9a25.7,25.7,0,0,1-2.1,9.2c-2.7.9-5.4,1.1-8-.2s-5.4-.5-8,.2a1.9,1.9,0,0,1,.2-3c4-2.2,5.5-6.3,8.1-9.7s6.2-2.5,9.7-2.4Z" transform="translate(-118.1 -166.1)" style="fill: #84220d"/>
    <path d="M415.4,425c-2.2,3.5.4,5.2,2.1,5.8,4,1.3,5.4,5.1,7.4,7.7s.6,8-2.5,11.4C412.8,441.7,408.7,428.7,415.4,425Z" transform="translate(-118.1 -166.1)" style="fill: #a37e21"/>
    <path d="M402.8,439.1l-3.9-2.2c.9-4.5-1.4-10.3-5-12.5.9-1.6.8-3.9,2.8-5s3.7,2.6,6.1,2.6c3.4,2.3,5,5.1,3.5,9.4-.7,2.1.9,4.4,1.8,6.5C407,441.4,404.8,439.7,402.8,439.1Z" transform="translate(-118.1 -166.1)" style="fill: #b05f3f"/>
    <path d="M402.8,439.1c1.8-.3,3.8.5,5.3-1.2a82.4,82.4,0,0,1,10,13c-2.6,2.6.6,5.7-.9,9.3C410.9,453.7,408.6,445.1,402.8,439.1Z" transform="translate(-118.1 -166.1)" style="fill: #a37e21"/>
    <path d="M211,266.8c2.1,2,5,3.6,3.3,7.3l-2.4-.4c-8.8-2-9.5-1.7-13.8,6.2h-.5c-8.2,1.1-8.2,1.1-8-7-1.3-1.4-3.1-.7-4.7-1s-2.4-2.3-2.4-3.8,1.7-2,3.3-1.8C194.1,267.7,202.6,266.7,211,266.8Z" transform="translate(-118.1 -166.1)" style="fill: #d09314"/>
    <path d="M374.2,338.2c.1,5.6,3.1,11.2-.2,16.7-.5,1.8-1.3,2.9-3.4,2.1-1.7-2.4-2.7-5.2-6.1-6.2s-5.4-1.8-4.8-4.8,4.1-1.6,6.5-2.1c-6.1-1.9-12.6-1.7-18.5-4-3-1.1-5.9-2.3-8.1-4.8s-2.1-3.2-.9-5,2.9-1.3,4.6-.8,5.9,3.2,10.2,1.5c-3.2-1.3-6-1.4-8.6-2.2-4.4-1.3-7.7-7.8-6.2-12,.7-1.9,2.5-2.1,4.1-2.3a29.8,29.8,0,0,1,11.9,1,11.6,11.6,0,0,0,5.9.2c5.4,1.5,11,.1,16.3,1.6a19.4,19.4,0,0,1-1.2,9.3c-.5,1.1-1,2.4-.2,3.3C378,333.1,375.7,335.6,374.2,338.2Z" transform="translate(-118.1 -166.1)" style="fill: #844d3d"/>
    <path d="M376.9,317.2c-5.7,1.8-11.3.6-16.9-.1-2-.7-3.3-1.7-.5-3.1s3.9-.7,5.9-.7c3.6-.1,7.2.2,11-.9-2.1-4.8-8.6-5-9.6-10.2s2.9-8,4.4-11.9c2.4-6.3,2.3-6.9-3.7-9.9a4.6,4.6,0,0,1-1.9-1.5c-.6-2-.3-3.7,1.4-5,3.7.9,7.5,1,11,2.8-1.2,6.1-.6,7.1,5.2,8.3a3.6,3.6,0,0,1,2.7,1.9c-2.5,0-5,.2-6.7,2.9,2.3,3.5,4.8,7.1.3,11.1-1.3,1.1.7,2.6,1.6,3.7s5.1,3.2,6.7,6.4C385.4,315.1,381.6,316.8,376.9,317.2Z" transform="translate(-118.1 -166.1)" style="fill: #84220d"/>
    <path d="M389,320.6c3,2.6,5.6,5.8,9.1,7.8,1.4-.2,2.3.6,3.3,1.4l1.6,1.6.7.8.7.8.3.4.6.8.6.8.5.8.5.8.5.8a4.2,4.2,0,0,1,.4.9,2.6,2.6,0,0,1,0,1v.5c.3,2.4,2.4,1.7,3.8,2.3s1.4,2.1.7,3.3-2.2,1.8-2.8.7c-2.4-4.7-7.5-3.2-11.2-5.1s-5-5.8-9.4-4.2a96.4,96.4,0,0,1-1.8-9.5C387,325.1,385.7,322.2,389,320.6Z" transform="translate(-118.1 -166.1)" style="fill: #e45a26"/>
    <path d="M385,334.1c-1,.4-.8-.5-.9-.9Z" transform="translate(-118.1 -166.1)" style="fill: #c2cbd0"/>
    <path d="M184.5,371c3.1-.6,6-.5,8.5,1.9a59.5,59.5,0,0,0-9.1,15.4,7.2,7.2,0,0,1-2.8,3.8c-2.7,1.3-3.8,3.9-5,6.3a11.9,11.9,0,0,1-5.7,6.1l-.5-2.5a20.5,20.5,0,0,0,3.9-10.6,17.1,17.1,0,0,1,6.2-12.9A14.5,14.5,0,0,0,184.5,371Z" transform="translate(-118.1 -166.1)" style="fill: #c2cbd0"/>
    <path d="M253,372c2-3.4,6.3-5.2,6.6-9.7,0-.4,1.5-1.3,2-1.1,5.5,1.8,7.5-2.3,9.3-5.9s3.2-3.3,5.9-2.1,5.2,2,7.9,3.1c-.6,3.5-3.2,4.3-5.8,4.7-6.3,1-9.9,5.8-9.4,12.6,2.5.3,2.4-1.8,3-3.2,2.4-4.8,3.5-5,6.7-.9,1.9,2.5,3.9,5,6.7,6.6l.7.2c3.6,2.8,5.3,7.2,8.9,10a6.9,6.9,0,0,0,1.2,1.4c.5.5-.2-.1.3.4l-.3-.4a4.9,4.9,0,0,1-1.1-1.5,2,2,0,0,1,.4-1.9c1.9-1.9,4-1.4,6.1-.6a10.6,10.6,0,0,1,4.9,3.9,7.4,7.4,0,0,0,4.9,2.9c3,3.9,2.3,6.3-2.2,6.6-2.5.2-4,.9-5.2,2.9s-2.7,2.3-4.2,1a10.2,10.2,0,0,0-8.7-2.4,1.2,1.2,0,0,1-1.3-1.6,63.2,63.2,0,0,0-4-15c-1.1-3-3.2-4.2-5.9-5.1-2.4,4.7-5.2,8.9-2.1,13.9l-3.7-2.1c-1.4.3-1,1.9-2,2.5s-.8-2.3-2.5-1.4c-1.2-1.1-2.8-2-3.6-3.3-2.6-4.1-4.5-8.3-10.3-8.9C253.4,377.4,252.9,374.5,253,372Z" transform="translate(-118.1 -166.1)" style="fill: #844d3d"/>
    <path d="M374.9,268.1a27.9,27.9,0,0,1-7.7,5c-3.5-1.5-6.9-2.4-10.7-.9-1.4.5-2.8-.5-3.4-2.1.3-4.3,4.1-4.5,6.9-6s6.4-4.7,9.6-7,6.2-.6,9.4.2L380,259c.3,2.6.7,5.2.7,7.8s1.4,2.3,2.9,2.5.6.7.2,1.2l-7.7-1.7c-.5-.5-.1-1.4-.7-1.8A1,1,0,0,1,374.9,268.1Z" transform="translate(-118.1 -166.1)" style="fill: #3f251d"/>
    <path d="M378.9,257.2c-4.9-.7-9.1.1-12.2,4.6-1.5,2.1-4.2,2.4-6.8,2.3,1.7-6.3-2.5-6.3-7.2-6,.7-2.6,2.2-3.9,4.1-5.5,2.1,4,3.7,1.4,5.4-.3s5.4-4.7,8.8-1c-.3,2.9,1.7,3.9,4,4.6S378,255.6,378.9,257.2Z" transform="translate(-118.1 -166.1)" style="fill: #d09314"/>
    <path d="M460,421c-1.2-1.8-.9-3.9-1.1-5.9s-.7-5.3,2.9-6a5.8,5.8,0,0,1,6.7,3.2c1.3,2.7,2.4,5.6.5,8.5-.9,1.3-2.3,1.2-3.6,1Z" transform="translate(-118.1 -166.1)" style="fill: #e8b08c"/>
    <path d="M290,397.1l.4.3c4.6-1.6,8.8-2,10.9,4,2.5-2.5,2.4-5.5,4.7-7,1.9.4,4,3.1,6.1.6s.1-2.8-1.1-3.8c-1-2.7.7-3.1,2.6-2.9s2.6,1.2,3.8,1.9c4,5.2,4.3,8.9.5,13.7-1.5,1.9-1.9,4.2-3.3,6-3.2,1.5-3.4-1.5-4.7-2.9-.3,1.6.1,3.2-.5,4.8-1.4,3.1-3.9,3.7-5.5.9s-4-4.2-7.3-5a11,11,0,0,1-7.5-5.3C289.2,400.5,288.5,398.6,290,397.1Z" transform="translate(-118.1 -166.1)" style="fill: #b68f2c"/>
    <path d="M289.1,402.2c4.2.9,7,5.8,12.2,3.9,1.4-.5,2,1.4,2.5,2.6s.8,3.6,2.7,4.7c3.4-3.3,1.8-6.4-.6-9.6,2.4-1.3,3.9-1,5.1,1.1a140.3,140.3,0,0,1,2.9,22.1c.1,2.5.3,5.1-1.9,6.9-1.7-3.5-4.5-6.1-7.1-8.8s-5.7-6.5-6-11.1-3-4.9-5.6-6.4S288.7,405.4,289.1,402.2Z" transform="translate(-118.1 -166.1)" style="fill: #e6bc4d"/>
    <path d="M312,434c.9-9.7-2.3-19.3-1-29,1.7,1.2.4,3.9,2.5,4.9s3.3,5,3.4,8.2c-.1,5.9.7,11.8-1.1,17.6-.8,2.5-1.9,4.4-4.9,2.2C312.1,436.9,312.1,435.5,312,434Z" transform="translate(-118.1 -166.1)" style="fill: #dac6b2"/>
    <path d="M370.9,356.8l3.1-2,3,5.2c-1.2,13.9.5,27.9-.1,41.8-4.6,1.7-8.1-.6-11.7-3.1-1.8-7.7-2.4-15.3.7-22.9,1.1-4.3-1.9-7.7-2.4-11.6a4.5,4.5,0,0,1,.7-4.9C366.3,358.1,368.1,356.3,370.9,356.8Z" transform="translate(-118.1 -166.1)" style="fill: #c2cbd0"/>
    <path d="M366.2,398.9c3.9-.2,7,2.4,10.7,3,.2,1.7,1.4,3.3.8,5.2-4.8-.9-8.4,2.3-12.4,3.9-1.6,1.3-3.3,1.6-4.8-.1s-.1-3.2,1.2-4.1C364.5,404.9,363.3,400.8,366.2,398.9Z" transform="translate(-118.1 -166.1)" style="fill: #959698"/>
    <path d="M255.9,423.9c-2.3.9-4.7-1.7-7,.2a6.7,6.7,0,0,0-5.8-2.1c-2.1-5.8-4.2-11.6,1.1-16.9a9.1,9.1,0,0,1,1.9.3c.2,4,3.8,6.2,5.1,9.6C250.5,419.1,254.9,420.6,255.9,423.9Z" transform="translate(-118.1 -166.1)" style="fill: #b05f3f"/>
    <path d="M400.6,331l-2.5-2.6-.7-3.9a22.9,22.9,0,0,1,2.5-1c3.1-.8,6.7-1.7,9.1.1s-.4,5.1-.8,7.7a7.9,7.9,0,0,0,.1,1.6H417c-.2.3-.3.8-.5.8-3.9.7-6.4,3.2-8.5,6.2h0c-.6-.6-.4-1.5-1-2h0l-1-1h0c-.6-.6-.4-1.5-1-2h0l-1-1h0l-1-1h0A4.1,4.1,0,0,0,400.6,331Z" transform="translate(-118.1 -166.1)" style="fill: #db3f19"/>
    <path d="M390.2,440l-.8-1.5Z" transform="translate(-118.1 -166.1)" style="fill: #844d3d"/>
    <path d="M372,445.9l4.2-9.8c2.5.4,4.1-.9,5-3.1,2.6,2.3,1.1,7.3,5.8,7.8-.2,3.4,2.7,5.5,3.4,8.7a18.9,18.9,0,0,1,.3,7.7c-3.4-.1-7.6-2.7-9.9,2.1C376.9,455.5,375.4,450,372,445.9Z" transform="translate(-118.1 -166.1)" style="fill: #5b1209"/>
    <path d="M297.7,569.3c-2.4,0-4-1-4.5-3.5a9,9,0,0,0-3.1-5,10.9,10.9,0,0,0-2.9-5,18.3,18.3,0,0,0-3.3-6.5c-1.6-1.9-3.2-2.2-4.4.6-2-2.3-1.2-4.9-1.2-7.4,3.5-4.1,9.2-4.8,13.1-8.3,1.3-1.1,2.3.3,2.8,1.7s-.4,2.6-.3,3.9l1.2,1.2c-.6,8.1.7,14.1,4.9,22.3C299.7,565.4,297,566.7,297.7,569.3Z" transform="translate(-118.1 -166.1)" style="fill: #cab7a4"/>
    <path d="M294,539.8c-2-1-.7-3-1.7-4.8-3.3,5.2-8.9,5.9-14,7.5,2.9-3.3-1.1-7.1.8-10.5s1.1-5.4,3.1-8c5.8,2.8,11.8,5.4,18.6,5C302.3,534.9,296.6,536.4,294,539.8Z" transform="translate(-118.1 -166.1)" style="fill: #844d3d"/>
    <path d="M443.1,518.2a16.7,16.7,0,0,0-3.8-.8c-6,.2-8.6-3.4-6.4-9.1.8-2.2,2.2-4.3,0-6.4.1-1.4-1.5-2.7-.1-4.5,2.9.1,4.6,2.9,7.2,3.7-.1,3.4,3.4,5.9,2.3,9.6,2.3-.1,3.3.9,3.2,3.3,0,.2,1.7,1.3,1.4,2.6S444.5,517.9,443.1,518.2Z" transform="translate(-118.1 -166.1)" style="fill: #efa64f"/>
    <path d="M458,497c-.6,1-1.3,1-2,.1Z" transform="translate(-118.1 -166.1)" style="fill: #844d3d"/>
    <path d="M303.1,485v-9c1.3-.4,2.2.4,3,1.2,3.1,3.4,7.1,4.3,11.5,4.1a94.7,94.7,0,0,1,21.1-4.3c5.9-.5,11.6.5,17.4,1a6.1,6.1,0,0,1,4,1.9c1.9,3.2,5.4,5.7,5,10.1l-7.8-1.5c-5.2-1.2-9.9-.8-13.7,3.4-1.9,2.2-3.8,2.5-5.8.2s-5.2-3.3-8.5-3.2-8.6.4-12.9-.8a6.9,6.9,0,0,0-6.1,1.4,7,7,0,0,1-5.1,1.4C304.8,488.8,305.6,486.3,303.1,485Z" transform="translate(-118.1 -166.1)" style="fill: #fbbb02"/>
    <path d="M353.9,447c-2.4-1.6-3.5.5-5,1.7-7.1,5.8-18.5,3.2-22-4.9-2.2-5.1-1.2-8.2,3.7-10.6a60.6,60.6,0,0,1,7.7-3.4c5.1-1.7,9.7,1.1,11.3,6.7.8,2.6.5,5.9,4.2,6.6Z" transform="translate(-118.1 -166.1)" style="fill: #dac6b2"/>
    <path d="M360,480l-22-1c-2.4-1.2-4.7-2.5-6.3-4.8s-1.7-3,.3-4.3c8.8-.9,17.5-3.5,26.4-1.3A19.8,19.8,0,0,1,360,480Z" transform="translate(-118.1 -166.1)" style="fill: #fdd601"/>
    <path d="M358.4,468.6c-9.1.2-18,3.1-27.2,2.6a2.3,2.3,0,0,1-1.7.9c-5.8-.3-11.2-2.1-16.6-4.2,1.6-3.4,4.7-2,7-1.7a98.7,98.7,0,0,0,26.7,0c3.4-.5,7.2,1.4,10.4-1.2C358.1,465.9,358.1,467.3,358.4,468.6Z" transform="translate(-118.1 -166.1)" style="fill: #cab7a4"/>
    <path d="M401,460.9v-1.8C401.9,459.7,401.9,460.3,401,460.9Z" transform="translate(-118.1 -166.1)" style="fill: #5b1209"/>
    <path d="M321.9,276.8c4.7-4.5,3.6-12.8-2.3-16.4A64.8,64.8,0,0,0,312,257c2.9-3.8,5.7.6,8.6.1s5.8.7,5.5,4.8c-.1,1.7,1.5,2.5,2.7,3.4,2.8,2.1,5.1,4.3,6.6,7.7s5.8,1.3,9.3,2.2l-1.8-7.2,6.2,4a3.3,3.3,0,0,1-.1,4.3c-2.9,2.5-6.5,3.8-10.1,4.8a10.6,10.6,0,0,0-4.1,1.6c-2.4,2-4.8,2-7-.4s-5.8-1.7-7-4.9c0-.1.1-.3.2-.4A.7.7,0,0,1,321.9,276.8Z" transform="translate(-118.1 -166.1)" style="fill: #b56308"/>
    <path d="M348,275.9a7,7,0,0,0,1.1-3.9,6.4,6.4,0,0,0,4-2c2,1.1,4.3,1.6,6,0,3.4-3.1,5.4-2.4,6.6,1.8.2.5,1,.8,1.5,1.3a4.1,4.1,0,0,0-.2.8c0,1.8.1,3.5-.9,5.1-.2,4.5-2.8,7.7-5.8,10.7s-6.2,2.5-9.3,3.5-4.9,1.3-7-.8a3.5,3.5,0,0,0-3.3-.7c-1.6.2-3-.1-3.9-1.6s.1-3.2,1.2-4.5a11.6,11.6,0,0,1,4.9-4.1C345.6,280.6,347,278.5,348,275.9Z" transform="translate(-118.1 -166.1)" style="fill: #b05f3f"/>
    <path d="M383.9,270.5l-.2-1.2,1.9-.2c.9-.3,1.3.7,2,.8h.2C386.8,272,385.2,270.7,383.9,270.5Z" transform="translate(-118.1 -166.1)" style="fill: #844d3d"/>
    <path d="M387.5,269.9l-2-.8C386.8,268,387.1,268.9,387.5,269.9Z" transform="translate(-118.1 -166.1)" style="fill: #cab7a4"/>
    <path d="M374.9,268.1c.3-1.3-.6-2.8.8-4.6.2,2.1,1.5,3.5.5,5.3Z" transform="translate(-118.1 -166.1)" style="fill: #844d3d"/>
    <path d="M366.2,398.9c-.2,4.4.8,9.4-5.7,10.3,1.2,2.6,3.2,1.3,4.8,1.7,1.3,4-1,5.2-4.4,5.9a128.6,128.6,0,0,1-37.5,1.7l-6.4-.4c-3.6-1.7-2.3-5.5-3.4-8.2s.6-5.7,3.7-8,1-7.3-.3-11c-1.1-1.1-2.1-2.2-1.7-4,3-5.7,3-5.7,7.9-1.7,1.8,1.5,3.9,1.7,6.5,1.7,1.1-5.9,1.4-11.7-1.4-17.3-1-3.8-1-7.3,1.8-10.4,4.8-2.4,9.8-1,14.7-.7s9.5,4.7,13.5,8.2,6.4,5.7,9.8,8.3C363.8,382.7,366.5,391,366.2,398.9Z" transform="translate(-118.1 -166.1)" style="fill: #3f251d"/>
    <path d="M281,510c-1.3-1.9-.6-3.7,0-5.6,1.7-5.4,3.3-10.9,5-16.4,7.8-11.9,14.2-24.7,21.4-36.9a16.3,16.3,0,0,1,4.5-5.4V448c-10.1,17.9-19.9,35.9-26.6,55.5a6.5,6.5,0,0,0-.2,3.4C286.3,511.4,284.3,511.5,281,510Z" transform="translate(-118.1 -166.1)" style="fill: #aaa4a2"/>
    <path d="M312.9,467.9c6.4-.7,12.1,2.4,18.3,3.3l1.7,2.8c-3.6,3.5-6.8,3.7-12.3.6-2.6-1.5-5-2.5-7,.8.5,2.9,6.3,3.3,3.4,7.6-6.3,1-10.5-2-13.8-6.9-.9-6.2,5-5.5,7.9-7.9Z" transform="translate(-118.1 -166.1)" style="fill: #f8da63"/>
    <path d="M246.1,348.9c-1.6-3.3-.5-5.8,2.1-8.1s3.7-4.9-1.4-6.8l1.2-1.9c3.5-.5,5.7.9,7.8,3.8,4.1,5.7,7,5.3,10.3-1,2.7-1.5,4.8.3,7.1,1.4a3,3,0,0,1,.9,3.5c-1.1,6.6-3.7,12.2-9.7,15.9-2.8,1.7-4.3,1.9-5.6-1.6C256.6,348.3,252.8,346.9,246.1,348.9Z" transform="translate(-118.1 -166.1)" style="fill: #c18212"/>
    <path d="M273,336.9c-2.7.8-4.5-1.7-7-2-5.8-.7-7.3-5.4-9.1-9.9,2.4-2.8,2.5-7.1,6.1-9.1,4.6-4.5,9.6-2.5,14.3-.5s7.2,5.7,6.6,11C279.6,329.3,276.6,333.5,273,336.9Z" transform="translate(-118.1 -166.1)" style="fill: #2e0d07"/>
    <path d="M282.8,326.9c-1.1-9.4-8.6-13.5-19.9-10.9.5-2.4,1.8-3.9,4.3-4s6-1.4,8.1-4.6a10.9,10.9,0,0,1,6.8-4.4c3.4-.3,6.1,1.5,8.8,3.1,2.5,3.6.7,5.6-2.9,6.2s-4.7,2.5-3.7,6.1,1.8,5.3,1,8.2C284.7,327.5,283.8,327.8,282.8,326.9Z" transform="translate(-118.1 -166.1)" style="fill: #a94709"/>
    <path d="M305.9,356.1c2-.3,2.3-1.6.8-2.6-3.9-2.7-4.3-8.2-9.4-10.5-2.5-1.1-2.7-6.4-5.3-9,1.6-4.8,4.7-6.1,11.5-5.1a7,7,0,0,1,2.5,1.8c1.4,2.5,4.1,1.6,6.2,2.5s4.3,4.8,3.7,8.1c1.2,1,2.4.9,3.5,1.3,4.4,2.7,4.3,3.2.8,6.3s-2.1,5.3-1.4,8.3,2,4.3.7,6.7c-3.5,2.2-4.8-.7-6.5-2.7a1.4,1.4,0,0,1-.3-.8c0,.5.4.9.6,1.3,1.1,4.8.7,5.4-3.8,6C304.2,363.9,303.3,360.9,305.9,356.1Z" transform="translate(-118.1 -166.1)" style="fill: #84220d"/>
    <path d="M302,385c-1.9-.2-3.9-1.6-5.8.1s-4-1.2-5.1-3.1a26.9,26.9,0,0,0-5.2-6h0c.4-4.1-3.7-5.6-5.2-8.7-.6-1.3-2.4-1.9-2.3-3.9,2.8-2.6,6.7-2,10.1-3.1,5.4-1.7,4.3,4.8,9.1,7.1-4.2-7.2,3.9-10.9,1.8-17,2.7.2,3.4,1.8,3.7,3.7-1.9,9,.4,17.9.5,26.9A4.5,4.5,0,0,1,302,385Z" transform="translate(-118.1 -166.1)" style="fill: #84220d"/>
    <path d="M303.8,329.9c-4.4-.1-8.8.1-11.8,4H290c-3.4-1.7-3.9-4.2-1.7-7.4-1.4.2-2.4.5-3.2-.5-2.4-3.5-1.8-7.9-3.5-11.6-.8-1.6,1.2-2.9,2.9-3.2s4.1-.7,6.4-1.1l.2-4,.9-.2c5-1,6.9,2.5,8.8,6,.4,2.6-2,4.5-1.8,7.4,2.3,2,6.7,2.3,7.1,6.6C306.1,327.6,305.7,329.2,303.8,329.9Z" transform="translate(-118.1 -166.1)" style="fill: #b56308"/>
    <path d="M302,385c-.5-6.8-.5-13.7-1.7-20.4-.7-3.9,1.2-7.1,2.7-10.4l2.9,1.9c-.8,4.5.9,8,4.1,11,1.9,5,4.8,9.6,6,14.9.4,1.8,1,3.5.2,5.3l.7,3.8c-2,.7-4.1-4.8-6,.2-2.4,1.9-3.6,0-4.6-1.6A13.4,13.4,0,0,0,302,385Z" transform="translate(-118.1 -166.1)" style="fill: #b05f3f"/>
    <path d="M285.1,326c2.3-.2,3.6-2.9,6.8-2.5.2,3.6-6.6,6.3-1.9,10.4-2.1.2-3.4,1.4-4.6,3.1-3.2,4.2-7.2,5.1-11.3,2.9l-1-2.9c1.4-5.2,3.4-9.8,9.9-10.1A2.2,2.2,0,0,0,285.1,326Z" transform="translate(-118.1 -166.1)" style="fill: #d09314"/>
    <path d="M303.8,329.9c1.6-3.6,1.4-6.4-3-7.7s-5.6-2.1-2.9-6.8c.7-1.1,1.4-2.2,2.2-3.3s4.6-.8,6.9-.3,5.2,2.1,8,2.3,5-.4,4.7-4.8c3.9-5.2,5.7-11.3,8.6-17,1.8-3.6-1.6-5.7-2-8.7-3.3-2.2-5.9-6.1-10.9-3.8-1.3.6-2.5-.6-3.2-1.8a7.9,7.9,0,0,0-3.3-3.6c2.1-2.7,4.5-2.8,7.2-.9s3.9,2.3,5.8,3.5,1.9,3.2,4.2,2.4,2.1-.2,2.2.4c1.7,5.7,3.8,1.9,6.7.9s8.6-3.3,12.9-4.7c1.9,3.7.9,5.9-3.3,6.6s-4.9,4.1-7.5,6.4c2.6,4.1,4.5-.2,6.3-.4s1.1,2.9,2.4,4.1c4.9-.1,9-3.7,14.1-3.6.7.6,1.2,1.5.8,2.1-2.8,4.6-1.3,9.1.3,13.7,2-1,3.3-4.7,6.8-3.1.8,2.8,3.4,3.4,5.4,4.7s5.5,3.5,6.5,7.3c-6.2,1.5-12.3,1-18.3,1.1-1.3,0-3.6-.5-1.6,2.1-1.7,1.1-3.5.7-5.3.1-4.7-1.4-9.5-1.3-14.3-.9a5,5,0,0,0-.3,1c-.5,9.3,5.9,10.6,13,11.3,1.4.1,2.8.5,4.6.9-5.8,8.8-11.9,1.8-17.9.6-1,3.9,1.8,5,3.9,6.1,7.5,4.1,15.9,4.3,24,5.9,1.2.2,2.7-.4,3.9,1-2.8,4.6-7.2,2.3-11.3,2.2.6,3.3,3.2,3.5,5.3,4.1,3.9,1.1,6.2,3.1,5.4,7.5-1.8,1.4-3.5,3.1-5.9,3.3-5.6-3.9-13.9-2.4-18.2-9.2,3.5,5.4,6.7,11,14,11.6a11.8,11.8,0,0,1,4.2,1.3c.7,3.8,3.6,7.1,3.1,11.2a9,9,0,0,1-8.3-4.4c-3.3-5-8.8-7.3-13.7-10.5a16.3,16.3,0,0,1-8.2-8,7.8,7.8,0,0,0-3.3-3c-1.6-.9-3.4-3.2-5.1-1.1s-2.1,4.6.4,6.6a3.2,3.2,0,0,1,1.2,1.8c.1,1.3-1.9,2.2-1.2,3.9.2,3.2-1.7,6.5.1,9.7-.4,2,1.3,5.1-2.2,5.7s-4.3-1.9-5.5-4.1-1.4-3-2.1-4.5a13.7,13.7,0,0,1-1-2.6v-.7c-2.2-5.8-3.7-11.7-.4-18.6.6-.3.8,2.7,2.5,2,.1-.1.5-.3.5-.5.3-2-.9-2.6-2.5-2.8-.1-4.2,3.8-5.5,6.2-7.5a22,22,0,0,0,7.3-9.8c1-2,.1-4.4,1.3-6.4.1-.3.7-.5.6-1s-.4.7-.7.9c-1.7,2.7-4.5,3.8-7.2,5.1-5.2,2.4-10.5,4.5-15.6,7.1a6.1,6.1,0,0,1-6.1-.3Z" transform="translate(-118.1 -166.1)" style="fill: #5b1209"/>
    <path d="M319.9,309.2c.9,1.6,4.2,2,3,4.5s-3.5,2.2-5.6,2.5c-5.1.7-9.1-3-13.9-3.4a27,27,0,0,1-3.4-.7c-2.7-2.1-4.6-5.3-8.2-6.2.9-6.1,6.1-3.2,9.3-4.4.9-1.7.3-3.3.4-4.9,2.2-1.3,5.6-.8,6.5-4.2,1.8-1.2,2.9-.1,3.9,1.2a7,7,0,0,1,.8,3.8c-.4,5.2,1.8,8.7,6.6,10.7A2.6,2.6,0,0,1,319.9,309.2Z" transform="translate(-118.1 -166.1)" style="fill: #844d3d"/>
    <path d="M311,294a5.1,5.1,0,0,0-3.1-1.7c3.3-3.9,6.2-8.8,12.7-5.1.5-3.9,3.5-2.9,5.6-3.6,4.2,1.9,5.5,4.9,3.6,9.2l-6.4,13.9c-.7,1.5-2.1,2-3.5,2.5a.3.3,0,0,0,.2-.5c-2.1-1.7-.9-3.6-.4-5.4,1.8-6.6,1-7.9-5.7-8.2A4.2,4.2,0,0,1,311,294Z" transform="translate(-118.1 -166.1)" style="fill: #d79668"/>
    <path d="M367.9,301.9c-4,1.1-5.5,6.1-10.9,6.8,2.9-3.2,2.5-5.8.8-8.9s-2.2-5,1.1-7c.8-.5.8-2.4,1.2-3.6,1.8-3.5,3.5-7.1,6.1-10.1,7.8.2,10.2,3.8,7.1,10.6C371.3,293.7,369.6,297.8,367.9,301.9Z" transform="translate(-118.1 -166.1)" style="fill: #844d3d"/>
    <path d="M400.6,331a2,2,0,0,1,2.3,2Z" transform="translate(-118.1 -166.1)" style="fill: #bc160c"/>
    <path d="M405,335a2.2,2.2,0,0,1,1,2A2.2,2.2,0,0,1,405,335Z" transform="translate(-118.1 -166.1)" style="fill: #bc160c"/>
    <path d="M407,338a2.1,2.1,0,0,1,1,2A2.2,2.2,0,0,1,407,338Z" transform="translate(-118.1 -166.1)" style="fill: #bc160c"/>
    <path d="M406,337l1,1Z" transform="translate(-118.1 -166.1)" style="fill: #bc160c"/>
    <path d="M404,334l1,1Z" transform="translate(-118.1 -166.1)" style="fill: #bc160c"/>
    <path d="M403,333l1,1Z" transform="translate(-118.1 -166.1)" style="fill: #bc160c"/>
    <path d="M286,376c3.2.3,4.2,3.2,5.9,5.2a51.9,51.9,0,0,0,4.3,3.9v1.6q.1.6-.5.5C290.4,385.4,288.5,380.4,286,376Z" transform="translate(-118.1 -166.1)" style="fill: #5b1209"/>
    <path d="M297.2,387.8l.6,1.2-.3.3-.7-1.2Z" transform="translate(-118.1 -166.1)" style="fill: #5b1209"/>
    <path d="M296.3,386.7l.9,1.1-.4.4-1-1Z" transform="translate(-118.1 -166.1)" style="fill: #5b1209"/>
    <path d="M365,363.8c-10.2,2.7-14.6-5.3-20.2-10.9a2.9,2.9,0,0,1,.2-4.4c1.4-1,2.8,0,4,1s2.9,4.9,5.7,6,1.1-2.4,2.9-2.6c1,3.8,6.1,3.5,7.5,7.2C363.9,361.3,363.7,362.6,365,363.8Z" transform="translate(-118.1 -166.1)" style="fill: #3f251d"/>
    <path d="M316.9,482.9c.1-1.6-.2-3.3-1.9-3.6-3.7-.7-5.2-2.6-3.1-5.8s5.7-3.9,8.2-1.5c4.1,4,8.3,3.3,12.8,2a14.9,14.9,0,0,1,5.1,5C330.7,479.1,324,482.1,316.9,482.9Z" transform="translate(-118.1 -166.1)" style="fill: #faec14"/>
    <path d="M321,364.9c2.5,3.1,2.1,8.3,6.5,10.1,2.3-1.3.5-3.9,2.4-4.9,3.2,6.5,2.3,13.2.8,20.3-2.2-1.4-4-2.4-6.8-1.9s-2.1-4.2-5-5l-2.7,3.8c-3-4.6-1.9-11-6.7-14.9-1.5-1.2.4-3.4.5-5.2,5-1.1,1.7-4.5,1.8-6.9l.4-.4c2.9.3,3.8,4.1,6.9,4.1h0C319.5,364.7,320.4,364.4,321,364.9Z" transform="translate(-118.1 -166.1)" style="fill: #844d3d"/>
    <path d="M329.9,360.3c-1.3-.4-3.1.1-3.7-1.7s2.5-1.3,3.8-2.2c-2.1-.7-4.6-1.2-3.8-3.8s-.4-5.8,2.1-7.3,4.4-.1,6.3,1.5,6.1,4,6.8,8.1c.4,2.5,5,1.7,4.7,5.1Z" transform="translate(-118.1 -166.1)" style="fill: #2e0d07"/>
    <path d="M334,327c-.3,3.6-2.4,6.3-4.8,8.7s-6.7,5.6-10,8.4c-2.6.2-4.6-1-7.3-2.4,5.5-3,1.7-5.1.1-7.5a2.4,2.4,0,0,1,1.7-3.1c4.8-1.7,9.1-4.8,14.1-6.1C330.2,324.4,332.7,324,334,327Z" transform="translate(-118.1 -166.1)" style="fill: #b05f3f"/>
    <path d="M334,327c-2.5-1.5-5.1-1-7.6,0-5,2.1-10.3,3.5-14.5,7.1-2.3-.8-5.4,1.4-6.9-2.1,3.1.1,6.6.9,6.8-4.6,3.6,2.5,6.1.5,8.8-1,4.7-2.6,9.5-5,14.3-7.5h.1C335.1,321.8,335.2,324.5,334,327Z" transform="translate(-118.1 -166.1)" style="fill: #cd6559"/>
    <path d="M311.8,360.2l-.2-.6.6.2Z" transform="translate(-118.1 -166.1)" style="fill: #844d3d"/>
    <path d="M321,364.9a2,2,0,0,1-1.9-.9Z" transform="translate(-118.1 -166.1)" style="fill: #84220d"/>
    <path d="M334.9,318.9l.5-.4-.3.5Z" transform="translate(-118.1 -166.1)" style="fill: #cd6559"/>
    <path d="M311,294l3.4-.7c6.1-1.4,9.5,2.4,7.9,8.4-.7,2.4-2.4,4.4-2.1,7-6.7-.3-8.9-2.3-9.2-8.7C310.9,298,311,296,311,294Z" transform="translate(-118.1 -166.1)" style="fill: #a37e21"/>
  </g>
</svg>
