<?xml version="1.0" encoding="utf-8"?>
<!-- Generator: Adobe Illustrator 21.0.0, SVG Export Plug-In . SVG Version: 6.00 Build 0)  -->
<svg version="1.1"
	 id="svg140" inkscape:version="0.92.2 5c3e80d, 2017-08-06" sodipodi:docname="37.svg" xmlns:cc="http://creativecommons.org/ns#" xmlns:dc="http://purl.org/dc/elements/1.1/" xmlns:inkscape="http://www.inkscape.org/namespaces/inkscape" xmlns:rdf="http://www.w3.org/1999/02/22-rdf-syntax-ns#" xmlns:sodipodi="http://sodipodi.sourceforge.net/DTD/sodipodi-0.dtd" xmlns:svg="http://www.w3.org/2000/svg"
	 xmlns="http://www.w3.org/2000/svg" xmlns:xlink="http://www.w3.org/1999/xlink" x="0px" y="0px" viewBox="0 0 850 850"
	 style="enable-background:new 0 0 850 850;" xml:space="preserve">
<style type="text/css">
	.st0{fill:none;}
	.st1{fill:#FF8C00;}
	.st2{fill:#4B0082;}
	.st3{fill:#00FFFF;}
	.st4{fill:#EEE8AA;}
	.st5{fill:#8B4513;}
	.st6{fill:#000080;}
	.st7{fill:#FF00FF;}
	.st8{fill:#F0E68C;}
	.st9{fill:#228B22;}
	.st10{fill:#98FB98;}
	.st11{fill:#006400;}
	.st12{fill:#32CD32;}
	.st13{fill:#FF0000;}
	.st14{fill:#6B8E23;}
	.st15{fill:#ADFF2F;}
	.st16{fill:#90EE90;}
	.st17{fill:#00FF00;}
	.st18{fill:#BDB76B;}
	.st19{fill:#008080;}
	.st20{fill:#556B2F;}
</style>
<sodipodi:namedview  bordercolor="#666666" borderopacity="1" gridtolerance="10" guidetolerance="10" id="namedview142" inkscape:current-layer="svg140" inkscape:cx="779.39188" inkscape:cy="659.61604" inkscape:pageopacity="0" inkscape:pageshadow="2" inkscape:window-height="978" inkscape:window-maximized="1" inkscape:window-width="1920" inkscape:window-x="0" inkscape:window-y="1" inkscape:zoom="0.58897835" objecttolerance="10" pagecolor="#ffffff" showgrid="false">
	</sodipodi:namedview>
<g id="g138" transform="translate(0.000000,0.000000) scale(1.00000,1.00000)">
	<path id="path4" class="st0" d="M0,0h228.1h228l-0.7,2.2c-1,3.2-7.9,16.9-9.8,19.3c-1.5,1.9-1.5,1.8-1.6-2.2c0-2.3,0.7-5.8,1.7-7.7
		c2.2-4.8,0.8-10.1-2.7-10.1c-3.6,0-5.8,4.8-4,8.9c0.7,1.7,1.5,5.3,1.7,8.1l0.5,5l-5.1-7.2c-2.8-3.9-5.5-7.4-6-7.8
		c-0.6-0.3-3.1,1.3-5.5,3.5c-4.2,3.8-4.5,4-4.8,1.9c-0.5-3.5-3.3-4.7-5.7-2.5c-2.6,2.4-2.6,4.6-0.1,7.9c1.9,2.4,2.7,5.7,1.4,5.7
		c-0.3,0-2.5-1.6-5-3.6c-3.2-2.6-4.5-3.2-4.9-2.3c-0.3,0.8-1.5,4.5-2.8,8.4c-2.2,6.4-2.6,7-5.6,7.6c-4,0.8-5.3,2-6.7,6.1
		c-0.9,2.7-2,3.5-7.7,5.6c-9,3.3-10.7,2.6-15.1-7.2c-3.9-8.4-9.2-14.8-15-17.9c-3.5-1.9-5.7-2.2-15.1-2.2
		c-9.6,0.1-11.8,0.4-17.6,2.8c-9.8,4.1-13.6,7.8-18.3,17.7c-3,6.4-4,9.8-4,13.5c0,5.5,0.7,6.8,9.7,18c4.3,5.4,4.8,6.4,4.5,10.5
		l-0.3,4.5l-4.6,0.6c-12.3,1.8-19,11-14.4,19.8c1.3,2.6,6.9,6,8.1,4.9c0.3-0.3-0.5-2.2-1.6-4.1c-4.6-7.8-0.2-13.3,10.3-13
		c9.1,0.3,12.2-1,14.6-6.1c1.2-2.3,2.1-5.8,2.1-7.7c0-10.4,2.4-13.7,8.7-12c2.6,0.7,2.9,1.2,3.5,6.9c0.7,6,0.6,6.2-4.1,14
		c-9.6,15.9-12.4,29.9-11.9,58.5l0.3,18.7h-3.3c-8.2,0-13.1,4.8-15.3,14.8c-2.6,11.3,2.2,23.6,13.8,35.9c8.2,8.6,9.5,10.7,11.3,17.3
		c2,7.4,4.6,11.5,14.3,22.6c16.5,19.1,16,18.2,15.3,23.9c-0.5,3.6-1.4,5.6-3.2,7.2c-3.4,3.1-4.4,2.9-8.9-1.8
		c-6.2-6.4-8.5-7.2-20.5-7.2c-5.8,0-11.7,0.5-13.3,1.1c-2.4,1-2.6,1.4-1.7,3.3c1,1.8,0.1,3.2-9.2,12.7c-5.7,5.9-11.2,12.5-12.3,14.7
		c-2.4,5.2-3,12.3-1.6,18.2c1.2,4.9,13.6,26.9,17.4,31.1c1.9,2,2.1,3.7,2.5,16.5c0.4,12.5,0,16.4-2.7,32.7c-3.5,20.9-3.8,26-1.5,34
		l1.6,5.7l-5.3,7.2c-5.1,7.1-9,10-15.1,11.5c-3.9,0.9-3.5,2.2,1.8,5.6c4.9,3.1,14,5.5,18,4.7c1.4-0.2,2.4,0.1,2.4,0.7
		c0,3-8.9,16.3-17.7,26.6c-10.8,12.7-16.8,21.4-20.9,30.4c-2.3,5-2.6,6.8-2.2,12.1c0.8,9.7,8.8,24.5,12.4,23.1
		c0.8-0.3,1.4,0,1.4,0.7c0.1,9.7,4.9,41.8,7.6,51.5c1.6,5.4,3.6,6.5,4.2,2.4c0.4-2.7,0.4-2.7,4.4-0.2c1.9,1.2,5.1,2,7.5,2
		c3.9,0,4.5,0.4,7,4.1c3.2,4.8,6.8,6.9,12.2,6.9c2.7,0,4.8,0.8,6.9,2.5c3.7,3.1,7.4,4.5,11.7,4.5c3.2,0,3.9,0.6,8.6,7.7l5.2,7.7
		l0.2,23.5c0.1,21.3,0.4,25,2.9,37.6c6.5,33.3,6.6,34.5,2.1,42.1c-3.1,5.3-6.8,7.7-13,8.4c-4.4,0.4-5.2,0.9-6.5,3.7
		c-0.8,1.7-5.2,6.6-9.7,10.7c-10.2,9.5-12.3,13.6-12.4,24c-0.1,6.7,0.3,8.2,2.5,11.6c5.5,8.4,22.8,13.1,34.9,9.6
		c3.4-1,10-4.6,16.9-9.2c6.2-4.2,15.1-9.5,19.9-11.9c4.7-2.4,9.1-5,9.8-5.9c1.1-1.4,2.4-0.5,10.2,6.7c4.9,4.5,10.9,10.9,13.2,14.2
		c9.5,13.4,17.7,20.1,27.4,22.4c2.3,0.5-89.9,0.9-224.9,1L0,850V425V0z"/>
	<path id="path6" class="st0" d="M460,0h195h195v425v425H660.3H470.5l4.1-2c5.1-2.6,7.6-5.9,11.4-15.5c2.2-5.4,3-9.2,3-13.6
		c0-7.1-1.7-10.8-6.5-14.5c-1.9-1.4-3.5-3.2-3.5-3.9c0-2.2-3-4.5-5.6-4.5c-2.5,0-9.3-6.4-19.4-18.5c-4-4.8-4.1-5.3-3.7-10.2
		c0.3-2.9,4.4-16.8,9.1-31c4.6-14.2,8.8-27.2,9.1-29c1.8-9.2,2.3-20.8,1.3-33.1l-1.1-13.3l3.3-7c1.8-3.8,3.4-8.8,3.7-10.9
		c0.5-3.9,0.6-4,5.5-4.6c2.7-0.4,6.6-1.8,8.6-3.2c2-1.3,5.9-2.7,8.8-3.1c2.9-0.4,6-1.3,6.9-2.1c0.9-0.7,3.9-1.7,6.7-2.1
		c5.6-0.9,17.6-7.6,20.8-11.6c1.6-2,2.2-2.2,3.9-1.3c1.8,0.9,2.1,0.7,2.7-1.4c0.3-1.3,1.6-2.8,3-3.5c1.3-0.6,2.4-1.5,2.4-2.1
		c0-0.5,1.7-1.7,3.7-2.5c2-0.8,4.3-2.4,5-3.5c0.7-1,3-2.2,5.1-2.6c5.4-1,7.2-2.2,7.2-4.9c0-1.3,0.7-2.8,1.6-3.3
		c1.4-0.8,1.2-1.8-1.4-9.3c-1.7-4.6-3.7-10-4.5-11.9c-0.8-2-1.7-8.6-2-15c-0.7-13.8-2.4-22.9-7.2-39.2c-6.8-23.4-18.2-42.4-39-65.4
		l-6.4-7.2l6-13.8c5-11.4,6.2-15.2,6.6-21c0.8-10.5,0.1-11.8-23.9-42.1c-0.6-0.8-0.1-3.8,1.6-8.7c3-8.7,3.3-16.8,1-26.6
		c-3.1-13.2-10.3-21.1-23.2-25.4c-7.2-2.4-8.1-3-8.4-5.4c-0.3-2.7-0.4-2.7-9.8-3.4c-14.2-1.2-20.1-0.3-26.2,3.9
		c-5.8,3.9-8.8,3.8-11.4-0.2c-2.9-4.4-1.6-5.6,10.1-10c6.1-2.3,13.9-5.7,17.5-7.5c9.4-4.7,23.1-14.3,27.8-19.5
		c3.6-4,4.6-4.5,8.4-4.5c5.9,0,15.4-2.6,20.3-5.5c2.2-1.2,6.1-4.3,8.6-6.8c3.8-3.8,5-5.9,6.8-12.2c1.7-5.5,2.2-9.3,1.9-13.3
		c-0.4-4.9-0.9-5.9-4.5-9.2l-3.9-3.7l4.2-7.4c5.9-10.2,13.1-27.3,15.6-37.1c1.7-6.7,2-10.3,1.6-20.2c-0.4-11.5-0.3-12.4,2.3-18.1
		c1.5-3.3,2.9-6.7,3.2-7.6c0.3-0.8,2.4-2.1,4.7-2.8c3.7-1.1,4.4-1,6,0.4c2.5,2.3,1.7,3.9-3,6c-5.3,2.4-8.3,5.9-8.3,9.4
		c0,3.8,1.9,6.1,5,6.1c2.7,0,6.4,1.7,7.5,3.4c0.4,0.6,0.8,2.5,0.8,4.3c0,3.4-3.3,6.8-7.7,7.9c-5.7,1.5-0.2,4.4,8.2,4.4
		c4.7,0,5.6-0.3,7.9-3.1c4.3-5.1,3.2-12.2-2.8-17.8c-5-4.7-2.9-7.2,8.4-10.4c6.5-1.9,9.9-5.1,13.2-12.2c2-4.3,2.3-6.6,2.3-16
		c0-10.3-0.2-11.4-3.2-17.5c-6.9-14-16.4-20.7-30.9-21.7c-4.6-0.3-9.7-0.1-12.2,0.6c-7.9,2.2-15,10.6-17.3,20.9
		c-0.7,2.9-1.8,5.2-2.5,5.2s-2.5-1.7-4.1-3.8c-1.5-2-4.9-6.1-7.5-9c-3-3.3-4.8-6.3-4.8-7.8c0-1.4-1.2-3.6-2.6-4.9l-2.6-2.4l1.2-8.7
		c1.1-7.3,1-8.9-0.1-9.8c-0.8-0.6-1.3-2.4-1.1-4.2c0.6-6-5.8-5.1-8.4,1.1c-2,4.9-3.4,5.3-3.4,1c0-4.2-1.9-12.3-3-13
		c-0.7-0.5-7.5,0.6-13,2.1c-2.1,0.6-1.9,0.2,1.4-2.5c2.1-1.7,4.3-3.1,4.7-3.1c0.5,0,1.6-1.1,2.5-2.5c3.1-4.7-1.7-9.8-6.2-6.7
		c-1.8,1.1-3.4,4.9-2.9,6.4c0.3,0.8-0.8,3.2-2.5,5.3l-3,3.8V13.1V0z"/>
	<path id="path8" class="st1" d="M457.2,13.5c0.5,3.3,0.8,13,0.6,21.5c-0.3,12.3-0.7,16.2-2.1,18.9c-2.2,4.4-2.1,5.1,0.3,5.1
		c1.2,0,3-1.6,4.7-4.1c3.3-5,7.4-7.2,19.8-10.4c11.7-3,13.8-3.1,13.2-0.8c-0.3,1-1.1,4.7-1.8,8.2c-1.2,6.4-1.2,6.4,1.4,8.5
		c1.7,1.4,2.7,3.1,2.7,4.8c0,2.5-0.6,2.9-6.9,4.8c-3.7,1.1-8.6,2-10.7,2c-12.8,0-35.6-4.9-62-13.4C396.3,52.1,390.2,47,394,39.9
		c0.6-1,2.1-1.9,3.3-1.9c1.2,0,3.2-0.6,4.3-1.4c1.9-1.4,2-1.3,1.6,1.3c-0.3,2.4,0.3,3.3,4.7,6.4c2.8,2.1,5.6,3.7,6.1,3.7
		c0.6,0,1-1.3,1-2.9c0-1.6,0.3-4.3,0.6-6c1-5,3.4-2,3.4,4.3c0,5.9,1.2,7.6,5.2,7.6c2.8,0,2.8-0.1,2.2-4.3c-0.4-2.3-1.3-5.4-2-6.8
		C423,37.1,411,27,409.2,27c-0.6,0-2,1.2-3.1,2.6c-2.4,3.1-2.7,1.8-0.6-3.2l1.4-3.4l8.6,5.2c9.8,6,12.8,9.9,14.6,19.1
		c1.3,6.2,3.4,9.1,4.9,6.6c0.5-0.7,0.7-2.3,0.4-3.4s0-3.8,0.5-6c0.9-3.5,1-3.6,0.9-1c0,1.6,0,4.7,0.1,6.8c0.3,9.9,12.8,12,17.5,2.9
		c2.6-5,2.9-11.6,1.1-22.2c-1-5.5-2.2-10-2.6-10s-2.1,1.1-3.7,2.5c-2.8,2.3-2.7,1.9,1.9-5.7c2.7-4.6,5-8.8,5-9.3
		C456.2,7.9,456.7,10.2,457.2,13.5z M484.5,46.1c-1.6,0.5-4.9,1.3-7.2,1.9c-5.2,1.3-17.1,10.9-15.1,12.1c3.1,2,5.7,0.9,7.8-3.1
		c1.9-3.7,6-7.2,6-5.1c0,0.5-0.9,3.1-2,5.7c-1.2,2.6-1.7,5.1-1.2,5.6c0.8,0.8,13.7-1.4,14.8-2.5c1-0.9,2.4-8,2.4-12
		C490,44.8,489.6,44.6,484.5,46.1z"/>
	<path id="path10" class="st1" d="M429,12c1.1,0,3.6,3.1,6.7,8.5c3.5,6.1,4.5,8.5,3.4,8.5c-0.5,0-2.5-3.2-4.5-7
		c-2.1-3.9-4.3-7-5.1-7c-0.8,0-3.3,2.7-5.5,6c-3.5,5.1-6,7.4-6,5.5c0-1.5,3.5-7,6.7-10.6C426.6,13.8,428.6,12,429,12z"/>
	<path id="path12" class="st2" d="M359,30.6c2.9,3.4,8,13.1,8,15.3c0,0.5-1.7,1.1-3.9,1.4c-8.3,1.1-17,7.6-21.3,16
		c-1.6,3.2-2.3,3.8-4.1,3.3c-1.2-0.3-3.9-0.6-6-0.6h-3.8l2.6-4.3c3.1-5.5,3.3-7.7,0.4-5.1c-3.6,3.2-6.9,11.3-6.9,17.2
		c0,10.9-3.5,18.2-8.7,18.2c-2.3,0-2.5-0.3-1.8-2.8c1.6-5.6,1.1-12.9-1-15.5c-1.1-1.4-4.1-5.1-6.8-8.3c-2.6-3.3-5-7.4-5.3-9.2
		c-1.2-6.5,4.1-19.9,9.8-24.7c3.9-3.4,14.5-8.3,20.2-9.5C340.7,19.8,352.7,23.4,359,30.6z"/>
	<path id="path14" class="st3" d="M451,26c1.4,0,3.3,11.8,2.8,18c-0.5,7.7-3.1,11.4-8,11.8c-4.4,0.4-5.7-1.2-6.5-7.6
		c-0.7-6.6,0.9-11.1,6.4-17.2C448.1,28.3,450.5,26,451,26z"/>
	<path id="path16" class="st2" d="M392.1,49.7c4.4,5.3,13.8,8.9,46.6,18.2c18.1,5.1,38.7,7.3,48.6,5.1c12.3-2.6,10.7-3.3,19.4,7.7
		c9.5,11.9,15,21.7,19.1,33.8c3.5,10.4,6.6,32.2,5.7,39.3c-1.8,13.1-7.4,27.5-17.6,45.3c-5,8.9-5.1,8.9-9,8.9c-2.2,0-5.4,0.7-7,1.6
		c-1.7,0.8-3.3,1.3-3.6,1c-1.5-1.5,5.2-22.9,10.6-33.6c8-15.8,9.5-20.7,9.4-31c0-14.5-6.3-26.9-21.3-42c-8.7-8.9-10.5-10.1-22-15.9
		c-6.9-3.4-16.9-7.7-22.2-9.5c-5.3-1.9-9.4-3.6-9.1-4c0.4-0.3-0.5-0.6-1.8-0.6c-1.4,0-3,0.5-3.7,1.2c-2.1,2.1-1.4,7.8,1.3,11.4
		c3.1,4.1,3.2,5.9,0.1,7.9c-2.3,1.5-2.8,1.4-10.4-2.6c-6.7-3.5-8.2-3.9-10.1-3c-2.3,1.3-2.6,3.5-1.1,7.5c1.1,3-0.1,4.1-2.9,2.6
		c-2-1-2.4-2-3.6-7.7c-0.5-2.4-0.2-3.6,1.4-5.2c1.7-1.7,2.8-1.9,9.5-1.4c8.8,0.7,10.1-0.5,6.8-6.1l-2-3.4l3-3c3.7-3.7,2.2-5-2.1-1.8
		c-2.5,1.9-4.9,2.5-12.5,3c-23.4,1.7-44.1,10.8-57.2,24.9c-10.6,11.4-16.4,29.8-16.4,51.8c0,10-0.3,12.9-1.5,13.9
		c-1.9,1.6-1.9,2.9-0.1,4.9c0.8,0.9,1.2,2.7,0.9,4.3l-0.5,2.6l-4.4-3c-7.4-4.9-7.6-5.8-8.2-24.8c-0.5-19.5,1.1-31.7,6-44
		c8.2-20.9,27-41.7,46.9-51.9C385.7,47.7,389.9,47,392.1,49.7z"/>
	<path id="path18" class="st2" d="M371,50.1c1.3,0.9,1.2,1.2-0.4,2.2c-7.5,4.6-19,14.4-23.6,19.9c-5,6-5.6,6.5-6.4,4.6
		c-0.8-1.5-0.4-3.2,1.4-6.6c6.7-13.2,11.5-18.2,19.5-20.1C366.9,48.9,369.2,48.8,371,50.1z"/>
	<path id="path20" class="st2" d="M556,62.5c14.3,5,23.3,18.9,23.4,36c0,7-0.4,8.8-3.1,14.6c-3.5,7-4,7.4-15.3,11.7
		c-6,2.2-7.7,3.3-8.4,5.5c-0.8,2.3-0.5,3.2,2.2,6.4c8.4,9.8,7.2,16.7-3,18.1l-4.3,0.5l3.9-3.6c3.7-3.5,3.8-3.9,3.3-8.4
		c-0.6-5.6-2.8-7.8-8.8-8.8c-2.2-0.4-4.3-1.3-4.6-2.1c-0.8-2.2,2.3-6.2,6.5-8.3c5-2.5,6.3-4.2,6.8-8.8c0.6-4.5-1.2-8.3-4.6-10
		c-3.5-1.7-3.8-0.7-0.7,2.5c1.5,1.6,2.7,3.2,2.7,3.8c0,0.5-2.9,0.9-6.4,0.9h-6.4L538,107c-2.2-10-7.1-16.9-14.4-20.4
		c-2.9-1.4-3.6-2.2-3.6-4.7c0-7,8.2-17.7,15.6-20.5C540.2,59.7,549.4,60.2,556,62.5z"/>
	<path id="path22" class="st4" d="M412,76.1c8.4-0.1,8.6-0.1,10.3,2.8c0.9,1.6,1.7,3.2,1.7,3.6c0,0.3-3.1,0.3-7-0.1
		c-9.6-0.9-12,0.6-12,7.7c0,6.7,2.1,10.4,6.6,11.9c3,1,3.9,1,5.1-0.3c1.3-1.2,1.3-2.1,0.3-5.1c-1.1-3.5-0.8-5.6,1-5.6
		c0.4,0,3.1,1.6,6,3.5c5.7,3.8,10.2,4.5,13.8,1.9c3.1-2.1,3-7.7-0.3-12c-3.7-4.9-3.4-6.6,1.3-5.8c7,1.2,15.7,4.6,28.8,11
		c10.4,5,14.7,7.8,20.2,12.9c14.3,13.3,23.1,28.4,24,41.2c0.6,9.4-0.7,14.3-7.5,27.8c-8.5,16.8-10,21.7-12.7,40.8
		c-2.6,18-4.7,25.1-11.6,38.8c-5.4,10.6-12.8,17-32.8,28.3c-14.2,8.1-40.8,16.6-51.8,16.6c-7.5,0-13.2-3.4-27.8-16.7
		s-27.7-28.3-32.4-37.1c-4.3-8.1-6.6-18.1-5.7-25.6c0.3-3.3,2.9-13.8,5.7-23.4c2.7-9.6,4.8-18.3,4.5-19.3s-0.1-1.9,0.4-1.9
		s0.9,4.1,0.9,9c0,17.7,5.2,23.2,25.2,27c5.6,1.1,10.3,2.2,10.6,2.5c1,1,3.1-5.5,4.3-13.5c1.9-13.2-0.4-21.7-8.9-33.2
		c-5.7-7.7-8.5-8.2-19.6-3.8c-4.4,1.7-9.2,3.4-10.5,3.7l-2.4,0.6l0.6-14.4c0.7-16.2,3.1-26.5,9.2-39.3c7-14.8,25.8-27.6,48.4-33.1
		C401,76.8,407.3,76.1,412,76.1z M368,121.3c-6.7-0.2-10.4,0.1-12.5,1.1c-3.5,1.6-13.2,11.3-12.2,12.2c0.3,0.4,2.6,0.1,5.1-0.5
		c2.5-0.6,8.9-1.1,14.3-1.1c11.7,0,15.6,1.5,22.3,8.4c2.4,2.5,5,4.6,5.7,4.6c3.7,0,4.6-11.1,1.2-15.4c-1.2-1.5-4.9-4.1-8.3-5.8
		C378.3,122,376.3,121.6,368,121.3z M447.1,146.4c-0.6,0.4-1.1,3.5-1.1,7c0,9.1,0.6,9.4,13.6,6.6c6-1.2,11.6-1.9,13.2-1.5
		c1.4,0.3,6.8,3.6,11.9,7.1l9.3,6.5v-4.7c0-10.6-5.5-18.7-14.7-21.8C472.8,143.4,451.1,144,447.1,146.4z M449.7,185.7
		c-2.9,2.1-7.2,8.1-6.5,8.9c0.3,0.3-0.8,2.9-2.6,5.8c-3.9,6.5-8.2,18.7-7.3,20.9c0.3,0.9,3,2.9,5.9,4.4c4.3,2.2,6.6,2.7,12.3,2.7
		c15.4,0,25.7-6.2,29-17.7c1.5-5.2,1.9-5.7,4.5-5.7c3,0,6.3-2.5,5.7-4.3c-0.2-0.6-1.8-1.4-3.6-1.8c-4-0.8-9.1-5.5-8.8-8.1
		c0.1-1.2-1.2-3-3.8-4.9C468.3,181.4,455.6,181.2,449.7,185.7z M379.3,231.4c-0.3,2.6-0.1,4.6,0.6,5c0.7,0.5,1.1-0.2,1.1-1.6
		c0-1.3,0.8-4,1.9-6c1-2.1,1.6-4,1.3-4.3C382.3,222.6,379.9,226,379.3,231.4z M350,235c-0.5,0-1,1.8-1,4c0,2.2,0.5,4,1,4
		c0.6,0,1-1.8,1-4C351,236.8,350.6,235,350,235z M428.2,236c-1.1,0-3.5,10.1-2.6,10.9c1.2,1.2,3.4-3.4,3.4-7.1
		C429,237.7,428.6,236,428.2,236z M386,237.9c0,1.1,5.9,3.6,6.7,2.8c0.3-0.4,0-1.3-0.7-2.2C390.7,236.9,386,236.4,386,237.9z
		 M408.6,243.9c-0.3,0.5,1.7,1.3,4.4,1.8c5.1,1,6,0.7,3.8-1.5C415.4,242.8,409.4,242.6,408.6,243.9z M363,244.5
		c0,0.3,1.5,2.5,3.3,4.9c2.3,3,3.8,6.3,4.6,10.7c1.5,7.5,2.9,10.4,6.8,14.1c7.8,7.4,20.6,9,31,3.8c3.3-1.7,7.8-5,10-7.4
		c2.3-2.5,6.5-6,9.4-7.8l5.4-3.3l-6-0.6c-3.3-0.3-10.3-2.3-15.5-4.4c-8.7-3.4-10.6-3.8-23-4.5c-11.8-0.6-14.2-1-18.7-3.4
		C365.3,244.1,363,243.4,363,244.5z M448.6,259c-1.5,0-4.9,4-4.1,4.8c0.8,0.9,3.4-0.7,4.5-2.7C449.8,259.4,449.8,259,448.6,259z"/>
	<path id="path24" class="st5" d="M392,137.3c-0.1,5.3-1.6,5.3-7.2,0.1c-6.8-6.4-11.4-7.8-24.8-7.2c-5.5,0.2-10,0-10-0.3
		c0-1.1,5-4.4,8.5-5.7C369.5,120,392,128.9,392,137.3z"/>
	<path id="path26" class="st5" d="M491,162.7c0.5,2,0.7,3.9,0.6,4.1c-0.2,0.1-2.3-1.4-4.6-3.3c-9.4-7.9-15.8-9.1-29.8-5.8
		c-8.3,1.9-9.2,1.5-9.2-4.5c0-3.8,1.6-4.7,11.3-6.1C476.2,144.6,488.3,150.6,491,162.7z"/>
	<path id="path28" class="st6" d="M468.4,193.5c2.2,2.2,3.9,9.2,3.1,13.1c-0.9,4.9-6.4,10.4-10.6,10.6c-5.8,0.3-8.9-0.2-12-1.8
		c-3.4-1.7-6.9-6.9-6.9-10.1c0-3.1,5.7-9.2,10.5-11.4C457.5,191.6,466.3,191.4,468.4,193.5z M454.8,194.9c-8.7,2.6-6.2,18.1,3,18.1
		c2.8,0,6.9-3.5,7.6-6.6c0.4-1.5,1.4-3.3,2.1-4.1c1.7-1.6,1.9-4.1,0.6-6.2C467.3,194.8,457.9,193.9,454.8,194.9z"/>
	<path id="path30" class="st6" d="M472.6,193c0.2,0,1.7,1.9,3.4,4.2c7,9.6,0.7,22.6-12.8,26.8c-8.8,2.7-15.4,2.6-22.1-0.5
		c-5.8-2.7-6-3.4-3.1-10.9l1.1-2.9l4.4,4.6c4.9,5.1,8.3,6.2,17.1,5.5c5.8-0.5,9.3-2.8,12-8c1.6-3.1,1.8-10.8,0.5-15.6
		C472.6,194.5,472.3,193,472.6,193z"/>
	<path id="path32" class="st7" d="M381.7,251.7c6,0.2,13,0.9,15.8,1.4c6.3,1.2,25.5,8.1,25.5,9.2c0,0.4-1.1,1.3-2.5,1.9
		c-4.6,2.1-22.9-0.6-35.5-5.3c-6-2.3-11.6-4.9-12.4-5.8C371.1,251.4,371.6,251.3,381.7,251.7z"/>
	<path id="path34" class="st7" d="M383,261.3c3.6,1.4,11.5,3.2,17.5,4.2c6.1,0.9,12.3,1.8,13.8,2.1l2.9,0.6l-2.2,2.3
		c-3.3,3.6-11.5,7.5-16.7,8.1c-3.6,0.5-6.2,0-10.3-1.6c-8.3-3.2-11.5-6.8-13.8-15.4C373,257.2,372.3,257.3,383,261.3z"/>
	<path id="path36" class="st2" d="M523.1,89.6c10.5,5.3,16.5,23.6,11.2,33.9l-2.1,3.9l-0.7-3.4c-1.3-6.3-7.7-22.4-11.6-29.3
		c-2.2-3.8-3.9-7.1-3.9-7.4C516,86.7,519.8,87.9,523.1,89.6z"/>
	<path id="path38" class="st6" d="M367.4,166.4c2.9,1.2,7.1,5.4,6.2,6.3c-0.1,0.2-1.9-0.4-3.9-1.2c-5.2-2.1-8.1-1.9-11.6,1.1
		c-2.6,2.1-3.1,3.3-3.1,6.8c0,5.1,2,8.1,6.4,9.6c4.1,1.3,10.3-0.7,11.2-3.7c2.1-6.8,4.6-6.9,4.2-0.2c-0.3,4.8-0.6,5.6-3.7,7.6
		c-4.2,2.9-11.2,3.1-16.1,0.4c-4.8-2.5-8-8.3-8-14.5c0-4.4,0.4-5.3,4.4-9.2C358.2,164.5,361.4,163.9,367.4,166.4z"/>
	<path id="path40" class="st6" d="M348.4,170.6c-1.1,1.6-1.7,4.6-1.7,8.3c0,10.5,5.4,17.2,15.1,18.7c4.4,0.7,7,0.1,14.5-3.1
		c2.1-0.9,2.2,0.3,0.6,7.5l-1.1,5.2l-4.7-0.7c-13.3-2-22.7-6.7-25.8-13c-3-6-2.5-18.7,0.9-23C348.8,167.2,350.5,167.3,348.4,170.6z"
		/>
	<path id="path42" class="st8" d="M319,170.2c5.8,0.6,13.7,5,15.9,9c1.3,2.3,1.3,3.1-0.3,7.2l-1.8,4.7l-2.2-1.9
		c-4.5-4.2-9.3-5.6-17.8-5.3c-4.2,0.2-3.3,2.1,1,2.1c5.6,0,10.3,1.6,14.3,4.9l3.6,3l-2.3,9.8c-1.3,5.4-2.4,11.5-2.4,13.5
		c0,2.1-0.5,3.8-1.1,3.8c-0.6,0-3.8-2.7-7-6.1c-13.6-14.1-16.9-32.2-7.8-42C313.8,170,314.4,169.8,319,170.2z"/>
	<path id="path44" class="st8" d="M517.4,218.4c1.7,3.4,1.7,4.4,0.6,9.5c-2.9,13.2-7.8,19.4-19.5,24.7c-4.6,2.1-16.3,4.9-17.2,4.1
		c-0.1-0.2,1.5-4.3,3.6-9.3c5.4-12.5,7.2-18.1,7.8-24.4c0.7-7.1,2.2-9.5,7.5-11.4C507.7,208.9,513.9,211.3,517.4,218.4z
		 M496.5,227.6c-3.1,1.6-5.4,3.4-4.3,3.4c0.4,0,3.4-0.7,6.8-1.6c3.3-0.8,7.3-1.4,8.7-1.2c1.5,0.2,2.8-0.3,3-1
		C511.4,225.4,500.2,225.6,496.5,227.6z"/>
	<path id="path46" class="st4" d="M362.7,279.1c0.9,0.8,5.5,4.7,10.2,8.8c11.7,10,13,10.5,27.1,9.8c6.3-0.3,12.3-0.8,13.2-1.2
		c1.3-0.5,1.9,0.2,2.7,3.2l1.1,3.9l-10.8,11.1c-9.8,10.2-11.1,11.2-15.2,11.9c-6.4,0.9-14.1,4-18.9,7.4c-2.2,1.6-4.2,2.6-4.4,2.2
		c-0.2-0.4-1.6-4.4-3.1-8.9c-3.1-9.2-6.6-13.3-11.7-13.3c-2.3,0-2.9-0.4-2.9-2.3c0-4.8,5.4-19.7,7.1-19.7c0.5,0,0.9,2,0.9,4.4
		c0,5.8,1,10.7,2.1,10c0.5-0.3,0.9-6.8,0.9-14.6C361,278.8,361.1,277.9,362.7,279.1z"/>
	<path id="path48" class="st9" d="M325.8,282.1c9.4-0.1,13.3,1.1,17.7,5.8l2.9,3.1l-2.7,2.7l-2.7,2.8l-3.1-3.8
		c-1.7-2-3.7-3.7-4.5-3.7c-2.2,0-1.7,1.3,1.6,4.5c1.7,1.6,3,3.9,3,5.2c0,2.8,0.2,2.8-6.2-0.1c-2.9-1.3-7-3.1-9-4
		c-2.8-1.1-4.4-2.8-6.2-6.5c-2.3-4.5-2.4-5-0.8-5.4C316.7,282.4,321.2,282.2,325.8,282.1z"/>
	<path id="path50" class="st10" d="M313.8,290c1,0,2.2,2.3,2.2,4.1c0,0.5-0.3,0.8-0.7,0.8c-3-0.5-5.8,0.6-10.2,4.1
		c-2.8,2.2-5.1,4.5-5.1,5.1c0,0.6,2.7,4.3,6,8.4c6.6,8.1,9.3,9.5,17.6,9.5c6.2,0,6-0.5,3.8,10.5c-0.9,4.7-1.6,14-1.7,22.7
		c-0.2,10.6-0.5,14.8-1.4,14.8c-3.8,0-11.2-11.9-12.1-19.5c-0.4-4,1.1-18.3,2.5-23c0.5-1.7,0.4-1.8-1-0.7c-4,3.4-5.5,22.3-2.3,30.5
		c1,2.7,1.6,5.1,1.3,5.3c-1.4,1.5-8.4-7.4-15.2-19.3c-7.3-12.8-7.5-13.3-7.5-19.9c0-9.4,2.2-13.4,13.5-24.3
		C308.7,294.1,313.3,290,313.8,290z"/>
	<path id="path52" class="st11" d="M352,293.5c0,0.3-0.9,3.4-2.1,6.8c-1.9,5.6-2.1,7.7-1.6,21.7c0.7,20.4,3.9,35.2,10.8,51
		c2.8,6.3,5.3,12.5,5.6,13.7c0.3,1.5-2,6.2-7.9,15.6c-4.5,7.5-8.6,13.6-9,13.6c-0.3,0.1-3-3.1-5.8-6.9c-4.8-6.5-5.4-7-7-5.5
		c-1.5,1.4-1.8,0.8-3.9-9.3c-6.2-29.2-4-60.9,5.9-84.5c3.6-8.7,6-12.1,10.4-14.8C350.5,293,352,292.6,352,293.5z"/>
	<path id="path54" class="st9" d="M319.1,297.3c8.1,0.7,17.6,5.8,16.4,8.9c-0.6,1.6-0.9,1.5-3.5-0.3c-4.7-3.5-17.6-3.6-18.8-0.1
		c-0.3,0.9,1.5,1,7,0.6c6.9-0.5,7.5-0.4,10.1,2.1c3.2,3.1,3.4,5.4,0.7,8.3c-2.6,2.7-6,3.6-10.7,2.7c-5.5-1-6.7-1.9-11.9-8.6
		c-5.3-7-5.2-7.9,1.2-11.7C312.8,297.3,314.5,297,319.1,297.3z"/>
	<path id="path56" class="st9" d="M462.4,299.6c1.9,0.7,2.1,5.5,0.5,8.6c-1.1,2.1-6.6,4.8-9.7,4.8c-1,0-4-1.7-6.6-3.7
		c-4.1-3.2-4.5-3.8-2.9-4.4c1-0.4,5-0.5,8.9-0.2c4.6,0.4,7.4,0.2,7.8-0.5c0.9-1.5-7.2-2.6-14.2-1.8c-3.1,0.3-7.9,0.9-10.7,1.2
		c-4.9,0.5-4.9,0.5-2.7-1.1c1.3-1,3.5-2.1,5-2.5C441,299,460.1,298.7,462.4,299.6z"/>
	<path id="path58" class="st11" d="M421.7,305.3c0.8,0.9-1.6,3.6-4.7,5.2c-3.7,1.9-5.4,6.4-4.5,11.7c0.7,4.7,0.8,8.1,0.5,23.3
		c-0.3,17.3,4.5,30.1,15.6,41.1c6.9,6.9,15,11.4,20.5,11.4c5.4,0,6.7,0.8,9.1,5.3c1.4,2.9,2.1,6.2,2.2,10.9l0.1,6.8l-4,0.4
		c-18.8,2.1-21.6,2.9-45.7,13c-9.9,4.2-21,6.6-21.6,4.7c-0.2-0.6-1.1-1.1-2-1.1c-1.7,0-5.8-2.4-10-5.7l-2.3-1.9l3-5.8
		c4.9-9.1,5.4-8.6-12.1-10.7c-6-0.7-10.8-1.7-10.8-2.1c0-0.5,3.1-6.2,6.9-12.6c3.8-6.4,10.5-19.6,14.9-29.2
		c17-37.6,19.6-41.6,37.1-58.4C417.8,307.8,421.3,305,421.7,305.3z"/>
	<path id="path60" class="st10" d="M468,306c1.9,0,12.8,4.6,16.2,6.8c7.8,5,13.2,18,13.2,31.3c0,6.7-0.5,8.5-3.9,15.7
		c-5.7,12.1-6.5,12.3-6.5,1.6c0-10.1-2.1-16.1-6.4-19c-3.4-2.2-4.5-1.1-1.9,1.9c9.7,10.6,7.6,31-3.9,37.2c-3.3,1.7-4.2,1.8-9.5,0.7
		c-3.2-0.6-9.3-2.3-13.6-3.7c-4.4-1.5-8.4-2.4-9-2.2c-2.1,0.8,9.9,5.7,18.8,7.6c4.8,1.1,8.9,2.2,9.2,2.4c0.2,0.3-0.6,1.5-1.9,2.7
		c-7.5,7.1-18.3,8.5-27.7,3.6c-16.6-8.6-27.1-29.1-25.8-50.4c0.3-4.6,0.7-8.6,1-8.9c0.3-0.3,1.8,0.4,3.3,1.6c2.2,1.7,4,2.1,10.3,2.1
		c6.4,0,23.7-2.3,24.7-3.2c0.1-0.2-0.2-3.8-0.8-8.1c-1.3-9.8-0.9-10.7,4.1-10.7c4.9,0,9.2,3.4,11.5,9c0.9,2.2,1.8,4,2.1,4
		c0.3,0,0.5-1.7,0.5-3.7c0-3-0.8-4.4-4.4-7.8l-4.4-4.2l2-3.2C466.3,307.4,467.6,306,468,306z"/>
	<path id="path62" class="st9" d="M429.3,307c8.3,0,11.7,1.1,16.3,5.4c4.2,3.9,4.5,4.5,5.4,11.5c0.6,4.1,0.9,7.6,0.6,7.8
		c-1.1,1.1-24,3-26.8,2.2c-6-1.7-9.8-7.1-9.8-13.8c0-9.6,10.1-11.5,20.4-3.7c6.4,4.7,7.6,4.1,3-1.4c-1.8-2.1-4.4-3.5-8.5-4.7
		c-3.2-0.9-5.6-2-5.3-2.5C424.9,307.4,427,307,429.3,307z"/>
	<path id="path64" class="st12" d="M357.9,319.4c2.6,2.8,5.6,10.4,6.6,16.7c1.1,7.2,1.6,7.4,6.9,2.4c4.5-4.1,12-7.8,18.8-9.2
		l2.8-0.6l-5.1,10.9c-2.8,6-8.5,18.2-12.6,27.1c-4.2,9-7.9,16.3-8.4,16.3c-0.4,0-2.1-3.4-3.9-7.6c-5.8-13.9-9.8-27.7-10.9-37.4
		c-1.7-15.9-2-19.8-1.4-20.4C352.1,316.2,355.8,317.1,357.9,319.4z"/>
	<path id="path66" class="st10" d="M310.5,365c0.3,0,2.9,1.5,5.8,3.3c2.8,1.8,6.1,3.7,7.2,4.3c1.6,0.9,2.1,2.3,2.3,6.7l0.3,5.6
		l-2.8-0.8c-3.5-1-11-4.8-11.6-5.8c-0.2-0.5-0.7-3.6-1.1-7.1C310.2,367.8,310.2,365,310.5,365z"/>
	<path id="path68" class="st10" d="M493.1,368.1c1-0.2,2.9,2.3,2.9,3.9c0,2.3-8,13.9-14.4,20.7c-4.9,5.3-15.4,12.3-18.5,12.3
		c-1,0-4.1-5-4.1-6.8c0-0.5,2-1.7,4.5-2.6c2.5-1,5.8-3.3,7.5-5.4c1.7-2,3.6-4.2,4.2-4.7c0.6-0.6,3-3,5.4-5.5
		c4.5-4.7,5.2-5.4,9.4-9.4C491.4,369.3,492.7,368.2,493.1,368.1z"/>
	<path id="path70" class="st4" d="M498.5,375c0.9,0,14.7,18.3,16.9,22.4c3.5,6.7,3.3,10.8-1.3,22.3c-6.9,17.3-9,21.5-10.4,20.7
		c-0.6-0.4-4.8-3.3-9.2-6.4c-10-7.1-10.4-7.3-19.2-9.5c-7.4-1.7-8.6-2.9-6.4-6.4c0.7-1.1,1.7-0.8,5.4,1.3c6.5,3.9,7,1.4,0.5-2.8
		c-2.9-1.8-6.3-4.5-7.6-5.9l-2.3-2.5l6.5-3.6c8.3-4.7,14.6-10.9,21.5-21.4C495.8,378.7,498.4,375,498.5,375z"/>
	<path id="path72" class="st4" d="M311.4,382c0.2,0,2.8,1.1,5.8,2.5c2.9,1.4,6.3,2.5,7.5,2.5c1.8,0,2.4,1,3.6,6.7
		c3.2,14.3,3.2,13-0.8,17.4c-3.3,3.7-3.6,4.5-3.4,9.1l0.3,5.1l-5.5,2.7c-6.3,3.2-8.2,5.1-9.8,10c-1,3-0.9,3.7,0.5,4.7
		c1.4,1,1.5,1.5,0.4,2.8c-1.9,2.3-2.8,1.8-3.9-2.3c-1.7-5.8-1.3-17.1,0.9-28.2c1-5.6,2.2-12.7,2.5-15.8c0.4-3.1,0.8-7.1,1-8.7
		c0.2-1.7,0.4-4.2,0.4-5.8C311,383.2,311.2,382,311.4,382z"/>
	<path id="path74" class="st13" d="M336.3,406.7l2.9,3.4c3.7,4.4,6.8,9.1,6.8,10.5c0,0.6-1.8,1.4-4,1.7c-2.1,0.3-5.2,1.4-6.9,2.6
		c-5,3.6-7.7,2.3-8.8-4.4c-0.5-3.3-0.2-4,4.7-8.7L336.3,406.7z"/>
	<path id="path76" class="st13" d="M357,416c5.8,0.1,20,1.7,20.7,2.4c0.3,0.2-0.7,2.5-2.2,5l-2.6,4.5l-6.4-0.2
		c-5.4-0.2-6.7,0.1-8.7,2c-1.3,1.3-2.9,2.3-3.4,2.3s-1.9-2.2-3.1-4.8c-1.9-4.2-2.1-5.3-1.1-8C351.4,416.1,351.7,416,357,416z"/>
	<path id="path78" class="st14" d="M488.7,433.1c6.8,4.1,25.2,21.5,33.5,31.8c8.3,10.4,17.3,23.9,20.3,30.7
		c3.6,8.1,10,28.6,11.9,37.9c1.4,7.1,3.6,26.5,2.9,26.5c-0.1,0-1.8-1.1-3.7-2.4c-6.3-4.3-33.7-10.6-56.7-13.1
		c-15.9-1.7-29.3-3-47.4-4.4c-11.4-0.9-35.4-6.3-47.5-10.6c-10.9-3.9-18.5-11-28.5-26.6l-6-9.4V484c-0.1-7.4-0.6-10.5-2.2-14.1
		l-2.1-4.6l5.2-1.6c6.9-2.2,12.9-7.5,16.2-14.3c2.9-5.9,4.7-7.4,9.1-7.4c5,0,14.5-2.9,23.5-7.1l8.7-4.1l14.8,4.7
		c29.1,9.2,44.2,19.5,61.3,41.4c12,15.4,13.4,13.4,1.7-2.2c-15.5-20.6-35-33.8-61.6-41.6c-5.8-1.7-10.7-3.3-10.9-3.6
		c-0.7-0.7,3.9-2.2,11.5-3.9C456.5,422.5,476.2,425.7,488.7,433.1z"/>
	<path id="path80" class="st13" d="M325.2,429.1l2.7-0.1l-2.1,3.5c-2.2,3.9-2,8.6,0.7,11.5c1.8,1.9,1,5-1.2,5c-2,0-9.5-4.5-12.1-7.2
		c-1.9-2.2-2-2.5-0.6-5.4c0.9-1.8,3.2-3.9,5.7-5.2C320.6,430.1,323.7,429.1,325.2,429.1z"/>
	<path id="path82" class="st13" d="M332,435.4c0,3.7-2.2,7.2-3.8,6.2c-1.8-1.1-1.4-6.7,0.4-8.7C330.8,430.5,332,431.4,332,435.4z"/>
	<path id="path84" class="st13" d="M379.8,437.5c1.8,1.3,3.8,2.5,4.4,2.7c3.4,1.2-4.5,13.7-11.6,18.5c-8.4,5.7-19.2,3.9-21.5-3.6
		c-1.4-5-1.4-5.1,0.8-5.1c1.1,0,2.9-1.2,4.1-2.8c1.9-2.3,2.1-3.5,1.6-7.8c-0.6-5.4,0-6.7,3.9-7.7
		C367.5,430.3,371.7,431.6,379.8,437.5z"/>
	<path id="path86" class="st13" d="M351.2,433c1.3,0,3.8,5.8,3.8,8.8c0,5.1-5,7.1-8.4,3.3c-2-2.2-2.1-2,1.4-7.8
		C349.4,434.9,350.8,433,351.2,433z"/>
	<path id="path88" class="st13" d="M317.5,448.7l2.4,1.8l-5.1,5.1c-6.9,7.2-5.8,9.2,1.5,2.6c6.7-6.1,8.7-6.6,8.7-2.1
		c0,2.4-1.3,4.6-5.6,9.3c-8.5,9.2-11.6,10.8-19,10.2c-5.6-0.5-13.5-3.1-13.4-4.5c0.1-0.3,2.2-1.6,4.8-2.9c3-1.4,6.2-4.1,8.7-7.4
		c2.2-2.9,5.7-7.1,7.9-9.5C312.7,446.5,314,446.2,317.5,448.7z"/>
	<path id="path90" class="st13" d="M333.9,450.6c1.8,0.9,4.4,1.4,5.9,1.1c6.9-1.4,6.6-1.5,8,4.2c1.6,6.3,1,7.2-7.7,12.8
		c-5.2,3.3-5.4,3.4-7.3,1.6c-4.9-4.4-7.4-14.5-4.8-19.4C329.3,448.6,329.8,448.6,333.9,450.6z"/>
	<path id="path92" class="st13" d="M357.7,464.1c1.2,0.4,3.2,2.8,4.5,5.1c1.9,3.5,2.3,5.9,2.3,12.8c0,7.8-0.3,9-3.7,15.5
		c-4.8,9.2-8.8,13.9-11,13c-2.9-1.1-5.6-6.5-8.2-16.5c-3.5-13.7-4.1-18.7-2.5-20.6c2-2.4,9-6.7,9.7-5.9c0.9,0.9,0.8,18.3,0,22.3
		c-1.2,5.2,1.5,3.5,2.9-1.9c1.6-6.1,1.5-12.4-0.2-18.8c-0.8-3-1.2-5.8-0.9-6.3C351.1,462,352.8,462.3,357.7,464.1z"/>
	<path id="path94" class="st14" d="M324.5,463.9l1.5,2.3c2,3.1,6.1,7.2,8.4,8.5c1.8,1,1.8,1.1,0,4.8c-2.7,5.8-7.4,9.8-16.8,14.4
		c-9.1,4.5-13,8.2-16.7,15.9c-1.8,3.7-2,5.4-1.5,11.2l0.7,6.9l-7.5,4.1c-12.5,6.9-16.5,12.5-18.2,25.9l-0.7,5.4l-1.5-2.9
		c-2.9-5.6-4.2-12.5-3.1-17.2c2-8.9,9.6-20.7,24.2-37.5c5.8-6.6,10.1-12.9,13.3-19c3.3-6.5,6.6-11.2,11.3-16L324.5,463.9z"/>
	<path id="path96" class="st15" d="M335.8,485.3c0.2,1.1-0.7,3-2,4.4c-2.7,3-11.1,9.2-15.1,11.3c-4.6,2.3-10.3,7.7-12.1,11.4
		c-2,4.2-2,9.6-0.1,16c1.9,6.3,1.1,11-2.8,16c-3.2,4.1-3.6,6.2-2.4,15.1c0.6,4.5,0.6,4.7-0.4,2c-0.7-1.7-2-4.1-3-5.4
		c-2.8-3.5-2.3-5.7,2.2-11.1c5.3-6.3,6-11.2,3-20c-2.6-7.4-2.1-11.1,2-17.4c3.6-5.3,8.1-8.9,15.5-12.2c3-1.3,7.6-4.6,10.2-7.2
		C334.6,484.4,335.6,483.8,335.8,485.3z"/>
	<path id="path98" class="st16" d="M338.4,492.9l1.3,4.5c1.3,4.3,1.2,4.8-1,8.3c-1.4,2.1-6.7,7.7-12,12.5
		c-11.6,10.7-14,15-14.1,25.2c0,5.2,0.6,8.4,2.2,11.9l2.1,4.8l-4.2,6.2c-2.3,3.4-6.1,10.1-8.4,14.8c-4.2,8.4-13.3,34.2-13.3,37.3
		c0,0.9-0.4,1.6-0.8,1.6c-2.2,0-7.2-33.5-7.2-47.7c0-18.2,5.9-34.7,14.2-39.6c2.4-1.4,4.6-2.3,5-2c0.5,0.2,0.8,2,0.8,3.8
		c0,2.8-1.1,4.6-5.1,9.1c-4.6,5-5.1,6-4.6,9c0.3,1.9,1.5,4.6,2.6,6.1c2.7,3.3,2.6,4.5-0.6,11c-2.3,4.7-2.5,6-1.7,9.9
		c0.9,4.6,3.1,6.2,2.7,2.1c-0.3-3.9,0.6-6.6,3.7-10c4.5-5.2,5.2-7.9,3.9-15.1l-1.2-6.2l3.8-5.5c3.6-5.2,3.7-5.6,3.2-12.2l-0.4-6.9
		l9.4-6.9c9.6-7.1,12.5-10.7,17.3-20.8L338.4,492.9z"/>
	<path id="path100" class="st12" d="M365.4,495c0.2,0,1.1,1.6,2,3.5c1.6,3.3,1.6,4,0.1,9.8c-2.2,8.7-6.7,15.7-15.5,24
		c-8.1,7.7-24.3,19.7-26.7,19.7c-2.1,0-4.6-6.8-3.9-10.4c1.2-5.6,6.9-13.5,16.1-22c8.3-7.6,9.3-8.2,11-7c1,0.8,2.2,1.4,2.5,1.4
		c1.7,0,8.5-8.1,11.1-13.3C363.7,497.6,365.2,495,365.4,495z"/>
	<path id="path102" class="st17" d="M371.4,505.3l4.7,6.7c5.4,7.7,11.8,13.6,18.4,17.1c2.6,1.4,4.8,3.3,5.1,4.6
		c1.3,5.1-4.1,19.2-11.6,30.3c-5.1,7.5-11.2,19.9-14.3,29c-3.6,10.5-5,22-4.5,36.5c0.4,12.2,0.4,12.3-1.7,11.3
		c-1.1-0.6-5.4-4.5-9.6-8.7c-6.2-6.3-8.4-9.5-12.8-18.4c-2.9-5.9-5.1-11.3-4.8-12c0.2-0.7,2.5-1.8,5-2.4
		c8.6-2.3,14.2-11.4,11.8-19.3c-2.2-7.5-12.4-17.9-19.1-19.5c-4.2-1.1-7-3.4-7-5.9c0-1.7,1.4-3.2,5.8-5.9c8-5,22.8-19.1,27.4-26.2
		c2.2-3.3,4.7-8.5,5.6-11.6L371.4,505.3z M368.2,527.6c-6.7,14.6-12.4,38.3-9,37.2c0.7-0.3,1.8-3.6,2.5-8c1.5-9,3.9-16.4,8.6-27.3
		c1.9-4.4,3.8-9.2,4.1-10.8C375.7,512.9,373.2,516.5,368.2,527.6z"/>
	<path id="path104" class="st17" d="M344,507.7c1.3,1.2,0.3,2.4-6.5,8.6c-16.9,15.2-19,18.6-18.3,28.6c0.6,8.3,3.2,11.3,15.3,17.1
		c9,4.4,10.5,5.5,15.3,11.5c5.8,7.5,6.5,10.7,3.3,16.5c-2.1,4.1-8.9,8-13.8,8c-1.9,0-5.1-0.9-7.3-2c-5.3-2.7-6.8-2.5-8.8,1
		c-0.9,1.6-2.1,3-2.6,3c-1.1,0,0.1-5.9,1.5-7.7c1.7-1.9,8-1.6,11.4,0.7c5.5,3.7,12.5,2,15.4-3.7c0.6-1.2,1.1-4.3,1.1-7
		c0-9-4.8-13.4-20.3-18.9c-11-3.8-14.7-9-14.7-20.4c0.1-7.7,3.1-12.5,15.8-25C340.7,508.2,342.7,506.6,344,507.7z"/>
	<path id="path106" class="st17" d="M402.5,533c0.4,0,19.7,5,21.7,5.6c1.5,0.4,1.7,2.1,1.7,12.7c0,14,1.1,22.9,4.6,37.7
		c3.7,15.6,6.6,24.9,8.1,26.1c2.1,1.7,1.8-0.5-1.2-10.7c-5.7-19.5-8.4-34.4-9.1-49.7c-0.3-8.1-0.2-14.7,0.2-14.7
		c0.5,0,3.8,0.5,7.4,1c3.6,0.6,8.1,1.3,9.9,1.6c2.7,0.4,3.6,1.2,5.2,4.7c5.4,12.5,11.4,24.4,13.6,27c1.4,1.7,2.4,4.1,2.4,6
		c0,4.7-3.4,17.9-7.4,29c-3.7,10.1-6.6,24.1-6.6,31.4c0,2.4-0.3,4.3-0.7,4.3c-2.5,0-17-12-24.1-19.8c-3.9-4.4-14.5-21.9-19-31.6
		c-7.7-16.2-10.6-34.7-8.2-51.6C401.7,537.1,402.4,533,402.5,533z"/>
	<path id="path108" class="st17" d="M459.3,543.6c16.9,1.3,37.7,3.5,38.9,3.9c2,0.8,11.2,13.6,15.5,21.5c3.8,6.9,5.3,8.5,5.3,5.4
		c0-1.6-11.7-21.2-14.8-24.7c-1.4-1.6-1.3-1.7,0.9-1.7c5.5,0.1,25.1,4.8,26.9,6.5c3.1,2.8,6.1,13.9,6.7,24.5
		c0.4,7.7-1,30.6-1.9,31.6c-0.2,0.1-7.3-3.2-15.9-7.4c-8.5-4.3-21.8-10.7-29.6-14.4c-19.6-9.3-24.2-13.7-32.9-31.2
		c-3.5-7.1-6.4-13.4-6.4-13.8C452,543.4,455.3,543.3,459.3,543.6z"/>
	<path id="path110" class="st17" d="M549,558.2c4.8,2.1,6.2,3.9,10.3,13.8c5.6,13.1,6.8,17,5.4,17c-2.5,0-13.4-5.9-18.4-10
		c-4.6-3.8-5.2-4.7-5.8-9.4c-0.4-2.8-1.6-7.3-2.6-9.9c-1.1-2.6-1.9-4.9-1.9-5.1C536,554,545.1,556.5,549,558.2z"/>
	<path id="path112" class="st16" d="M398.1,565.3c4.6,26.4,15.6,48.1,34.1,67.3l8.8,9.1l-3.9,1.2c-8.4,2.5-20.7,3.3-39.8,2.7
		c-10.6-0.4-20.4-1.1-21.7-1.6c-3.5-1.3-5-9.5-4.3-23c1-19,6.9-36.5,18.3-54.4c3.5-5.5,6.4-10.4,6.5-11
		C396.2,555,397.1,559.4,398.1,565.3z"/>
	<path id="path114" class="st16" d="M320,562.6c0.8,0.3,2.9,1.1,4.5,1.6c1.7,0.6,3.4,1.4,3.8,1.8c0.5,0.5,1.9,5.7,3.1,11.8l2.2,11
		l-5-0.5c-6.4-0.7-9.5,1.5-10.5,7.3c-0.9,5.2,0.5,8.2,5.1,10.5c2.1,1.1,3.8,2.3,3.8,2.7c0,0.5-1.3,2.1-3,3.7c-1.6,1.6-3,3.5-3,4.2
		c0,1.9,5.1,1.6,8-0.4c3.4-2.3,4-3.3,4-7.1c0-3.1-0.8-4.3-6-8.2c-2-1.5-2.2-2.1-1.3-3.1c1-1,2.2-0.8,6.1,1c4.6,2.2,5,2.7,8.7,11.3
		c4.9,11.6,10,19.2,17.8,26.4l6.1,5.7l-3.8-0.7c-6.1-1.2-22.5-6.1-30.6-9.3c-14.5-5.7-34.2-14.8-34.7-16c-0.7-1.8,5.3-20.5,9.3-29.3
		c1.9-4.1,5.8-11.4,8.7-16.3C317.1,564.3,318.9,562.1,320,562.6z"/>
	<path id="path116" class="st17" d="M336.1,568.4c10.5,4.4,14.5,12.7,9.8,20.3c-1.8,2.9-2.6,3.4-5.2,3.1c-3-0.3-3.2-0.5-5.8-10.3
		c-1.5-5.5-2.8-11-2.8-12.3C332,566.6,331.8,566.6,336.1,568.4z"/>
	<path id="path118" class="st16" d="M541.6,579c0.4,0,2.2,1.4,4.1,3.1c2,1.7,5.5,4,7.9,5.2c2.4,1.1,4.3,2.5,4.1,3
		c-0.1,0.5-4,2.9-8.5,5.4l-8.2,4.5v-10.6C541,583.8,541.3,579,541.6,579z"/>
	<path id="path120" class="st16" d="M472.8,581.6c8,5.3,14.6,8.8,24.6,13c11.4,4.8,20.8,9.3,28.4,13.7l4.4,2.4l-5.7,3.6
		c-3.2,2-11.4,5.7-18.4,8.2c-11.9,4.4-40.9,13.5-47.7,14.9l-3.2,0.7l1.3-6.8c0.7-3.7,3.4-13.1,5.8-20.8c2.5-7.7,5-16.9,5.7-20.5
		c0.6-3.6,1.3-7.3,1.6-8.3C470.1,580,470.3,580,472.8,581.6z"/>
	<path id="path122" class="st18" d="M473,643.7c0,2.5-4.2,11.2-10,20.8c-2.8,4.6-5,8.5-5,8.9c0,1.5,3.2-1,5.1-4.1
		c1.3-2,2.5-3.1,3-2.6c1.6,1.6,2.2,22.3,1,32.3c-0.9,7.4-3.3,15.8-10.6,37.6c-5.2,15.5-9.5,29.8-9.5,31.8c0,5.6,1.5,7.9,14.8,21.9
		c6.2,6.6,6,7.7-1.7,6.9c-3.5-0.3-5,0-6,1.2c-0.7,0.9-2.4,1.6-3.8,1.6c-3.1,0-6.3,1.7-8.5,4.4l-1.7,2.1l-5.8-4.1
		c-7.8-5.5-22.1-21.8-22.7-25.8c-0.3-1.7-1.2-9.9-2-18.1c-0.9-8.3-2.3-19.5-3.2-25c-2.1-13.5-1.4-27,2.7-46.5
		c2.2-10.4,3.3-18.5,3.3-24.7l0.1-9.1l3.5-0.6c1.9-0.3,6.6-0.6,10.3-0.6c4.9,0,7.9-0.6,10.9-2.1c3.2-1.6,5.5-2,10.9-1.7
		c3.8,0.2,6.9,0,6.9-0.4c0-1.4,4.8-3.9,9.1-4.7C471.3,641.7,473,641.8,473,643.7z"/>
	<path id="path124" class="st18" d="M355.3,647.2c2.9,1.5,6.3,2.2,10.7,2.3c4,0.2,7.8,0.9,9.9,2c2.8,1.5,4.9,1.7,13,1.1
		c6.3-0.4,11.5-0.1,15.1,0.7c5.5,1.2,5.5,1.3,6.2,5.7c0.9,5.8,0.3,10.9-2.8,24.3c-3.5,15.3-5.4,26.4-5.4,32.2c0,2.8,1.4,14.2,3,25.5
		c3.5,24,3.4,33.2-0.6,38c-3.4,3.9-11.4,8.9-19,11.6c-7.8,2.9-8,2.9-8.7,0.5c-0.7-2.7-6.5-6.1-10.5-6.1c-1.9,0-3.5-0.6-3.8-1.5
		c-0.3-0.8-1.4-1.7-2.3-2c-1-0.3-2.4-2-3.3-3.8c-1.6-3.3-1.6-3.3,1.9-6.6c8.1-7.7,9.2-17.8,4.4-38.9c-1.6-7-3.4-16.2-4-20.5
		c-1.3-9.1-1.5-45.7-0.3-45.7c0.4,0,1.3,0.5,1.9,1.1c0.6,0.6,1.8,0.9,2.7,0.7c1.2-0.2-0.2-2.3-4.9-7.6c-6.2-7-9.5-11.9-9.5-14.2
		C349,644.5,350.6,644.8,355.3,647.2z"/>
	<path id="path126" class="st19" d="M356,781.2c0,1.7-7.2,5.8-10,5.8c-2.9,0-9.1,3-8.5,4.1c0.3,0.4,1.9,0.3,3.5-0.2
		c1.6-0.6,3.7-0.9,4.7-0.7c1.6,0.3,1.5,0.7-1,3.1c-2.2,2.3-3.5,2.8-6.5,2.5c-3.4-0.3-3.7-0.5-4-3.8c-0.3-3,0.3-4.1,4.3-7.8
		c2.5-2.4,4.5-4.9,4.5-5.6c0-0.7,0.5-1.7,1.2-2.4C347.2,773.2,356,777,356,781.2z"/>
	<path id="path128" class="st20" d="M406.5,784.3c-0.8,1.9-1.8,6.2-2.1,9.4c-0.4,3.2-1.5,7-2.5,8.4c-1.1,1.5-6.1,4.8-11.1,7.5
		c-5.1,2.6-14.1,8-20,12c-12.4,8.5-16.5,9.8-26.6,9.1c-8.8-0.7-17.1-4.3-20.4-8.9c-4.9-6.9-2.8-20.6,4.2-27.3l2.8-2.7l0.7,3.1
		c0.4,1.8,1.5,3.3,2.7,3.6c2.6,0.9,8.7-0.3,11.6-2.1c1.2-0.8,2.6-1.2,3.1-1c1.3,0.8,2.9,5.6,3.6,10.8c0.8,6.3,3.3,9.3,6.9,8.4
		c3.5-0.9,7.3-4.9,8.1-8.5c0.5-2.3,1.5-3,5.3-4.2c3.5-1,4.8-2,5-3.5c0.2-1.6,2.2-2.9,8.4-5.3c7.8-3.1,17.4-8.7,19.8-11.7
		C408,779.1,408.2,780.3,406.5,784.3z"/>
	<path id="path130" class="st20" d="M412,783.8c0,1.8,13.4,15.3,20,20.2l7,5.2v4.9c0,4,0.4,5.1,2.3,6.4c1.3,0.8,3,2.6,3.7,4
		c0.7,1.3,2.8,3.1,4.5,4c3.4,1.6,10.2,2,12.1,0.7c1.7-1.1,2.7-5.1,1.6-6.5c-1.4-1.8-2.3-6.3-1.6-8.1c0.3-0.9,1.4-1.6,2.4-1.6
		c2.4,0,8,4.7,8,6.7c0,0.8,2.5,3.8,5.5,6.7c5,4.9,5.4,5.6,4.6,8.3c-2.9,10.1-11.7,14.5-24.3,12.3c-11.2-2.1-18.8-7.3-25.9-17.7
		c-5.4-8-10.7-13.9-16-17.9c-7.5-5.8-9.3-9.2-8.6-16.7c0.2-3.4,1-7.4,1.7-9C410.2,783.2,412,782,412,783.8z"/>
	<path id="path132" class="st19" d="M364.7,787.4c5.6,0.7,9.1,2.8,10.3,6.2c1.2,3.2-0.3,6.4-3,6.4c-3.1,0-3.5-0.3-3.2-2.8
		c0.2-1.2-0.1-2.2-0.7-2.2c-0.6,0-1.6,2.7-2.3,6.1c-0.8,3.9-2.1,6.9-3.7,8.5c-2.8,2.8-5.6,3.1-6.5,0.7c-1-2.6-2-13.3-1.2-13.3
		c0.4,0,1.6,2,2.7,4.5c1.1,2.5,2.2,4.5,2.4,4.5c0.3,0,0.5-1.5,0.5-3.3c0-2.3-0.9-4.2-3-6.4c-2.7-2.8-2.8-3.2-1.4-4.4
		c1.4-1.1,1.8-1,3.1,0.6c0.7,1.1,1.6,3,2,4.2c0.3,1.3,0.9,2.3,1.4,2.3c1.4,0,1.1-3.2-0.6-6.4c-0.8-1.5-1.5-3.5-1.5-4.4
		C360,787,360.9,786.8,364.7,787.4z"/>
	<path id="path134" class="st19" d="M472.6,798.1c1.5-0.1,3.4,2,3.4,3.8c0,0.9,2.1,3.1,4.6,5c2.5,1.9,5,4.3,5.5,5.3
		c1.2,2.2,0.3,13.5-1.1,14.3c-1,0.6-17-15.6-17-17.3c0-2,3.5-1.4,7.5,1.3c2,1.5,4,2.3,4.3,2c1.1-1.1-4.3-5.6-8-6.5
		c-2.1-0.6-3.8-1.5-3.8-2c0-0.4-0.2-1.5-0.5-2.2c-0.4-0.9,0.4-1.9,1.7-2.6C470.5,798.6,472,798.1,472.6,798.1z"/>
	<path id="path136" class="st19" d="M454.4,804.1c3,2.4,3.2,3.4,1,7.8c-1.8,3.7-1.4,9.6,1,11.9c1.3,1.3,1.4,0.7,0.9-4.5
		c-0.4-4.1-0.2-6.3,0.6-6.8c0.9-0.5,1.1,0.2,0.6,2.8c-0.4,2-0.2,4.4,0.5,5.6c0.6,1.2,0.8,3.1,0.5,4.1c-1,3-7.4,2.7-10.9-0.5
		c-4.4-4-3.3-8.5,3.7-14.7c3.6-3.2,3.9-3.7,2-3.8c-3,0-8,4.4-9.5,8.5c-1.4,4-2.4,4.4-3.3,1.4c-1.1-3.5,2.2-10.5,5.8-12.3
		C451.4,801.6,451.2,801.6,454.4,804.1z"/>
	<path d="M458.3,0c1.5,0,1.7,1.3,1.7,13.1v13.2l3-3.8c1.7-2.1,2.8-4.5,2.5-5.3c-0.5-1.5,1.1-5.3,2.9-6.4c4.5-3.1,9.3,2,6.2,6.7
		c-0.9,1.4-2,2.5-2.5,2.5c-0.4,0-2.6,1.4-4.7,3.1c-3.3,2.7-3.5,3.1-1.4,2.5c5.5-1.5,12.3-2.6,13-2.1c1.1,0.7,3,8.8,3,13
		c0,4.3,1.4,3.9,3.4-1c2.6-6.2,9-7.1,8.4-1.1c-0.2,1.8,0.3,3.6,1.1,4.2c1.1,0.9,1.2,2.5,0.1,9.8l-1.2,8.7l2.6,2.4
		c1.4,1.3,2.6,3.5,2.6,4.9c0,1.5,1.8,4.5,4.8,7.8c2.6,2.9,6,7,7.5,9c1.6,2.1,3.4,3.8,4.1,3.8s1.8-2.3,2.5-5.2
		c2.3-10.3,9.4-18.7,17.3-20.9c2.5-0.7,7.6-0.9,12.2-0.6c14.5,1,24,7.7,30.9,21.7c3,6.1,3.2,7.2,3.2,17.5c0,9.4-0.3,11.7-2.3,16
		c-3.3,7.1-6.7,10.3-13.2,12.2c-11.3,3.2-13.4,5.7-8.4,10.4c6,5.6,7.1,12.7,2.8,17.8c-2.3,2.8-3.2,3.1-7.9,3.1
		c-8.4,0-13.9-2.9-8.2-4.4c4.4-1.1,7.7-4.5,7.7-7.9c0-1.8-0.4-3.7-0.8-4.3c-1.1-1.7-4.8-3.4-7.5-3.4c-3.1,0-5-2.3-5-6.1
		c0-3.5,3-7,8.3-9.4c4.7-2.1,5.5-3.7,3-6c-1.6-1.4-2.3-1.5-6-0.4c-2.3,0.7-4.4,2-4.7,2.8c-0.3,0.9-1.7,4.3-3.2,7.6
		c-2.6,5.7-2.7,6.6-2.3,18.1c0.4,9.9,0.1,13.5-1.6,20.2c-2.5,9.8-9.7,26.9-15.6,37.1l-4.2,7.4l3.9,3.7c3.6,3.3,4.1,4.3,4.5,9.2
		c0.3,4-0.2,7.8-1.9,13.3c-1.8,6.3-3,8.4-6.8,12.2c-2.5,2.5-6.4,5.6-8.6,6.8c-4.9,2.9-14.4,5.5-20.3,5.5c-3.8,0-4.8,0.5-8.4,4.5
		c-4.7,5.2-18.4,14.8-27.8,19.5c-3.6,1.8-11.4,5.2-17.5,7.5c-11.7,4.4-13,5.6-10.1,10c2.6,4,5.6,4.1,11.4,0.2
		c6.1-4.2,12-5.1,26.2-3.9c9.4,0.7,9.5,0.7,9.8,3.4c0.3,2.4,1.2,3,8.4,5.4c12.9,4.3,20.1,12.2,23.2,25.4c2.3,9.8,2,17.9-1,26.6
		c-1.7,4.9-2.2,7.9-1.6,8.7c24,30.3,24.7,31.6,23.9,42.1c-0.4,5.8-1.6,9.6-6.6,21l-6,13.8l6.4,7.2c20.8,23,32.2,42,39,65.4
		c4.8,16.3,6.5,25.4,7.2,39.2c0.3,6.4,1.2,13,2,15c0.8,1.9,2.8,7.3,4.5,11.9c2.6,7.5,2.8,8.5,1.4,9.3c-0.9,0.5-1.6,2-1.6,3.3
		c0,2.7-1.8,3.9-7.2,4.9c-2.1,0.4-4.4,1.6-5.1,2.6c-0.7,1.1-3,2.7-5,3.5c-2,0.8-3.7,2-3.7,2.5c0,0.6-1.1,1.5-2.4,2.1
		c-1.4,0.7-2.7,2.2-3,3.5c-0.6,2.1-0.9,2.3-2.7,1.4c-1.7-0.9-2.3-0.7-3.9,1.3c-3.2,4-15.2,10.7-20.8,11.6c-2.8,0.4-5.8,1.4-6.7,2.1
		c-0.9,0.8-4,1.7-6.9,2.1c-2.9,0.4-6.8,1.8-8.8,3.1c-2,1.4-5.9,2.8-8.6,3.2c-4.9,0.6-5,0.7-5.5,4.6c-0.3,2.1-1.9,7.1-3.7,10.9
		l-3.3,7l1.1,13.3c1,12.3,0.5,23.9-1.3,33.1c-0.3,1.8-4.5,14.8-9.1,29c-4.7,14.2-8.8,28.1-9.1,31c-0.4,4.9-0.3,5.4,3.7,10.2
		c10.1,12.1,16.9,18.5,19.4,18.5c2.6,0,5.6,2.3,5.6,4.5c0,0.7,1.6,2.5,3.5,3.9c4.8,3.7,6.5,7.4,6.5,14.5c0,4.4-0.8,8.2-3,13.6
		c-3.9,9.7-6.3,13-11.8,15.6c-3.7,1.9-5.6,2.1-12.7,1.7c-14.8-1-23.4-6.7-35.2-23.3c-2.3-3.3-8.3-9.7-13.2-14.2
		c-7.8-7.2-9.1-8.1-10.2-6.7c-0.7,0.9-5.1,3.5-9.8,5.9c-4.8,2.4-13.7,7.7-19.9,11.9c-6.9,4.6-13.5,8.2-16.9,9.2
		c-12.1,3.5-29.4-1.2-34.9-9.6c-2.2-3.4-2.6-4.9-2.5-11.6c0.1-10.4,2.2-14.5,12.4-24c4.5-4.1,8.9-9,9.7-10.7
		c1.3-2.8,2.1-3.3,6.5-3.7c6.2-0.7,9.9-3.1,13-8.4c4.5-7.6,4.4-8.8-2.1-42.1c-2.5-12.6-2.8-16.3-2.9-37.6l-0.2-23.5l-5.2-7.7
		c-4.7-7.1-5.4-7.7-8.6-7.7c-4.3,0-8-1.4-11.7-4.5c-2.1-1.7-4.2-2.5-6.9-2.5c-5.4,0-9-2.1-12.2-6.9c-2.5-3.7-3.1-4.1-7-4.1
		c-2.4,0-5.6-0.8-7.5-2c-4-2.5-4-2.5-4.4,0.2c-0.6,4.1-2.6,3-4.2-2.4c-2.7-9.7-7.5-41.8-7.6-51.5c0-0.7-0.6-1-1.4-0.7
		c-3.6,1.4-11.6-13.4-12.4-23.1c-0.4-5.3-0.1-7.1,2.2-12.1c4.1-9,10.1-17.7,20.9-30.4c8.8-10.3,17.7-23.6,17.7-26.6
		c0-0.6-1-0.9-2.4-0.7c-4,0.8-13.1-1.6-18-4.7c-5.3-3.4-5.7-4.7-1.8-5.6c6.1-1.5,10-4.4,15.1-11.5l5.3-7.2l-1.6-5.7
		c-2.3-8-2-13.1,1.5-34c2.7-16.3,3.1-20.2,2.7-32.7c-0.4-12.8-0.6-14.5-2.5-16.5c-3.8-4.2-16.2-26.2-17.4-31.1
		c-1.4-5.9-0.8-13,1.6-18.2c1.1-2.2,6.6-8.8,12.3-14.7c9.3-9.5,10.2-10.9,9.2-12.7c-0.9-1.9-0.7-2.3,1.7-3.3
		c1.6-0.6,7.5-1.1,13.3-1.1c12,0,14.3,0.8,20.5,7.2c4.5,4.7,5.5,4.9,8.9,1.8c1.8-1.6,2.7-3.6,3.2-7.2c0.7-5.7,1.2-4.8-15.3-23.9
		c-9.7-11.1-12.3-15.2-14.3-22.6c-1.8-6.6-3.1-8.7-11.3-17.3c-11.6-12.3-16.4-24.6-13.8-35.9c2.2-10,7.1-14.8,15.3-14.8h3.3
		l-0.3-18.7c-0.5-28.6,2.3-42.6,11.9-58.5c4.7-7.8,4.8-8,4.1-14c-0.6-5.7-0.9-6.2-3.5-6.9c-6.3-1.7-8.7,1.6-8.7,12
		c0,1.9-0.9,5.4-2.1,7.7c-2.4,5.1-5.5,6.4-14.6,6.1c-10.5-0.3-14.9,5.2-10.3,13c1.1,1.9,1.9,3.8,1.6,4.1c-1.2,1.1-6.8-2.3-8.1-4.9
		c-4.6-8.8,2.1-18,14.4-19.8l4.6-0.6l0.3-4.5c0.3-4.1-0.2-5.1-4.5-10.5c-9-11.2-9.7-12.5-9.7-18c0-3.7,1-7.1,4-13.5
		c4.7-9.9,8.5-13.6,18.3-17.7c5.8-2.4,8-2.7,17.6-2.8c9.4,0,11.6,0.3,15.1,2.2c5.8,3.1,11.1,9.5,15,17.9c4.4,9.8,6.1,10.5,15.1,7.2
		c5.7-2.1,6.8-2.9,7.7-5.6c1.4-4.1,2.7-5.3,6.7-6.1c3-0.6,3.4-1.2,5.6-7.6c1.3-3.9,2.5-7.6,2.8-8.4c0.4-0.9,1.7-0.3,4.9,2.3
		c2.5,2,4.7,3.6,5,3.6c1.3,0,0.5-3.3-1.4-5.7c-2.5-3.3-2.5-5.5,0.1-7.9c2.4-2.2,5.2-1,5.7,2.5c0.3,2.1,0.6,1.9,4.8-1.9
		c2.4-2.2,4.9-3.8,5.5-3.5c0.5,0.4,3.2,3.9,6,7.8l5.1,7.2l-0.5-5c-0.2-2.8-1-6.4-1.7-8.1c-1.8-4.1,0.4-8.9,4-8.9
		c3.5,0,4.9,5.3,2.7,10.1c-1,1.9-1.7,5.4-1.7,7.7v4.2l2-2.5c1-1.4,3.9-6.7,6.2-11.7C455.2,2.8,457,0,458.3,0z M457.2,13.5
		c-0.5-3.3-1-5.6-1.1-5c0,0.5-2.3,4.7-5,9.3c-4.6,7.6-4.7,8-1.9,5.7c1.6-1.4,3.3-2.5,3.7-2.5s1.6,4.5,2.6,10
		c1.8,10.6,1.5,17.2-1.1,22.2c-4.7,9.1-17.2,7-17.5-2.9c-0.1-2.1-0.1-5.2-0.1-6.8c0.1-2.6,0-2.5-0.9,1c-0.5,2.2-0.8,4.9-0.5,6
		s0.1,2.7-0.4,3.4c-1.5,2.5-3.6-0.4-4.9-6.6c-1.8-9.2-4.8-13.1-14.6-19.1l-8.6-5.2l-1.4,3.4c-2.1,5-1.8,6.3,0.6,3.2
		c1.1-1.4,2.5-2.6,3.1-2.6c1.8,0,13.8,10.1,15.2,12.9c0.7,1.4,1.6,4.5,2,6.8c0.6,4.2,0.6,4.3-2.2,4.3c-4,0-5.2-1.7-5.2-7.6
		c0-6.3-2.4-9.3-3.4-4.3c-0.3,1.7-0.6,4.4-0.6,6c0,1.6-0.4,2.9-1,2.9c-0.5,0-3.3-1.6-6.1-3.7c-4.4-3.1-5-4-4.7-6.4
		c0.4-2.6,0.3-2.7-1.6-1.3c-1.1,0.8-3.1,1.4-4.3,1.4c-1.2,0-2.7,0.9-3.3,1.9c-3.8,7.1,2.3,12.2,22.4,18.7
		c26.4,8.5,49.2,13.4,62,13.4c2.1,0,7-0.9,10.7-2c6.3-1.9,6.9-2.3,6.9-4.8c0-1.7-1-3.4-2.7-4.8c-2.6-2.1-2.6-2.1-1.4-8.5
		c0.7-3.5,1.5-7.2,1.8-8.2c0.6-2.3-1.5-2.2-13.2,0.8c-12.4,3.2-16.5,5.4-19.8,10.4c-1.7,2.5-3.5,4.1-4.7,4.1c-2.4,0-2.5-0.7-0.3-5.1
		c1.4-2.7,1.8-6.6,2.1-18.9C458,26.5,457.7,16.8,457.2,13.5z M429,12c-1.9,0-11,12-11,14.5c0,1.9,2.5-0.4,6-5.5c2.2-3.3,4.7-6,5.5-6
		c0.8,0,3,3.1,5.1,7c2,3.8,4,7,4.5,7s0.5-0.8,0.2-1.8c-1-2.6-6.3-11.5-8.1-13.5C430.4,12.8,429.4,12,429,12z M330.4,22
		c-5.7,1.2-16.3,6.1-20.2,9.5c-5.7,4.8-11,18.2-9.8,24.7c0.3,1.8,2.7,5.9,5.3,9.2c2.7,3.2,5.7,6.9,6.8,8.3c2.1,2.6,2.6,9.9,1,15.5
		c-0.7,2.5-0.5,2.8,1.8,2.8c5.2,0,8.7-7.3,8.7-18.2c0-5.9,3.3-14,6.9-17.2c2.9-2.6,2.7-0.4-0.4,5.1l-2.6,4.3h3.8
		c2.1,0,4.8,0.3,6,0.6c1.8,0.5,2.5-0.1,4.1-3.3c4.3-8.4,13-14.9,21.3-16c2.2-0.3,3.9-0.9,3.9-1.4s-1.1-3.2-2.4-6.2
		c-3-6.9-7.8-12.3-13.6-15.2C345.7,21.8,336.5,20.7,330.4,22z M451,26c-1.7,0-9.9,10.2-11.1,13.7c-1.3,4-0.6,12.7,1.2,15
		c2,2.3,7.9,1.2,10.2-1.9c2.6-3.5,3.4-12.9,1.7-20.9C452.3,28.7,451.4,26,451,26z M377.1,52.1c-19.9,10.2-38.7,31-46.9,51.9
		c-4.9,12.3-6.5,24.5-6,44c0.6,19,0.8,19.9,8.2,24.8l4.4,3l0.5-2.6c0.3-1.6-0.1-3.4-0.9-4.3c-1.8-2-1.8-3.3,0.1-4.9
		c1.2-1,1.5-3.9,1.5-13.9c0-22,5.8-40.4,16.4-51.8c13.1-14.1,33.8-23.2,57.2-24.9c7.6-0.5,10-1.1,12.5-3c4.3-3.2,5.8-1.9,2.1,1.8
		l-3,3l2,3.4c3.3,5.6,2,6.8-6.8,6.1c-6.7-0.5-7.8-0.3-9.5,1.4c-1.6,1.6-1.9,2.8-1.4,5.2c1.2,5.7,1.6,6.7,3.6,7.7
		c2.8,1.5,4,0.4,2.9-2.6c-1.5-4-1.2-6.2,1.1-7.5c1.9-0.9,3.4-0.5,10.1,3c7.6,4,8.1,4.1,10.4,2.6c3.1-2,3-3.8-0.1-7.9
		c-2.7-3.6-3.4-9.3-1.3-11.4c0.7-0.7,2.3-1.2,3.7-1.2c1.3,0,2.2,0.3,1.8,0.6c-0.3,0.4,3.8,2.1,9.1,4c5.3,1.8,15.3,6.1,22.2,9.5
		c11.5,5.8,13.3,7,22,15.9c15,15.1,21.3,27.5,21.3,42c0.1,10.3-1.4,15.2-9.4,31c-5.4,10.7-12.1,32.1-10.6,33.6
		c0.3,0.3,1.9-0.2,3.6-1c1.6-0.9,4.8-1.6,7-1.6c3.9,0,4,0,9-8.9c10.2-17.8,15.8-32.2,17.6-45.3c0.9-7.1-2.2-28.9-5.7-39.3
		c-4.1-12.1-9.6-21.9-19.1-33.8c-8.7-11-7.1-10.3-19.4-7.7c-9.9,2.2-30.5,0-48.6-5.1c-32.8-9.3-42.2-12.9-46.6-18.2
		C389.9,47,385.7,47.7,377.1,52.1z M361.5,50.1c-8,1.9-12.8,6.9-19.5,20.1c-1.8,3.4-2.2,5.1-1.4,6.6c0.8,1.9,1.4,1.4,6.4-4.6
		c4.6-5.5,16.1-15.3,23.6-19.9c1.6-1,1.7-1.3,0.4-2.2C369.2,48.8,366.9,48.9,361.5,50.1z M535.6,61.4c-7.4,2.8-15.6,13.5-15.6,20.5
		c0,2.5,0.7,3.3,3.6,4.7c7.3,3.5,12.2,10.4,14.4,20.4l1.2,5.5h6.4c3.5,0,6.4-0.4,6.4-0.9c0-0.6-1.2-2.2-2.7-3.8
		c-3.1-3.2-2.8-4.2,0.7-2.5c3.4,1.7,5.2,5.5,4.6,10c-0.5,4.6-1.8,6.3-6.8,8.8c-4.2,2.1-7.3,6.1-6.5,8.3c0.3,0.8,2.4,1.7,4.6,2.1
		c6,1,8.2,3.2,8.8,8.8c0.5,4.5,0.4,4.9-3.3,8.4l-3.9,3.6l4.3-0.5c10.2-1.4,11.4-8.3,3-18.1c-2.7-3.2-3-4.1-2.2-6.4
		c0.7-2.2,2.4-3.3,8.4-5.5c11.3-4.3,11.8-4.7,15.3-11.7c2.7-5.8,3.1-7.6,3.1-14.6c-0.1-17.1-9.1-31-23.4-36
		C549.4,60.2,540.2,59.7,535.6,61.4z M412,76.1c-18.2,0.2-39.3,8.7-52.7,21.2c-11.5,10.8-18,28.7-19,52.6l-0.6,14.4l2.4-0.6
		c1.3-0.3,6.1-2,10.5-3.7c11.1-4.4,13.9-3.9,19.6,3.8c8.5,11.5,10.8,20,8.9,33.2c-1.2,8-3.3,14.5-4.3,13.5c-0.3-0.3-5-1.4-10.6-2.5
		c-20-3.8-25.2-9.3-25.2-27c0-4.9-0.4-9-0.9-9s-0.7,0.9-0.4,1.9s-1.8,9.7-4.5,19.3c-2.8,9.6-5.4,20.1-5.7,23.4
		c-0.9,7.5,1.4,17.5,5.7,25.6c4.7,8.8,17.8,23.8,32.4,37.1s20.3,16.7,27.8,16.7c11,0,37.6-8.5,51.8-16.6
		c20-11.3,27.4-17.7,32.8-28.3c6.9-13.7,9-20.8,11.6-38.8c2.7-19.1,4.2-24,12.7-40.8c6.8-13.5,8.1-18.4,7.5-27.8
		c-0.9-12.8-9.7-27.9-24-41.2c-5.5-5.1-9.8-7.9-20.2-12.9c-13.1-6.4-21.8-9.8-28.8-11c-4.7-0.8-5,0.9-1.3,5.8
		c3.3,4.3,3.4,9.9,0.3,12c-3.6,2.6-8.1,1.9-13.8-1.9c-2.9-1.9-5.6-3.5-6-3.5c-1.8,0-2.1,2.1-1,5.6c1,3,1,3.9-0.3,5.1
		c-1.2,1.3-2.1,1.3-5.1,0.3c-4.5-1.5-6.6-5.2-6.6-11.9c0-7.1,2.4-8.6,12-7.7c3.9,0.4,7,0.4,7,0.1c0-0.4-0.8-2-1.7-3.6
		C420.6,76,420.4,76,412,76.1z M516,87.3c0,0.3,1.7,3.6,3.9,7.4c3.9,6.9,10.3,23,11.6,29.3l0.7,3.4l2.1-3.9
		c5.3-10.3-0.7-28.6-11.2-33.9C519.8,87.9,516,86.7,516,87.3z M353.4,169.4c-4,3.9-4.4,4.8-4.4,9.2c0,6.2,3.2,12,8,14.5
		c4.9,2.7,11.9,2.5,16.1-0.4c3.1-2,3.4-2.8,3.7-7.6c0.2-3.9,0-5.2-0.9-4.9c-1.3,0.4-2.4,2.1-3.3,5.1c-0.9,3-7.1,5-11.2,3.7
		c-4.4-1.5-6.4-4.5-6.4-9.6c0-3.5,0.5-4.7,3.1-6.8c3.5-3,6.4-3.2,11.6-1.1c2,0.8,3.8,1.4,3.9,1.2c0.9-0.9-3.3-5.1-6.2-6.3
		C361.4,163.9,358.2,164.5,353.4,169.4z M346.2,170.5c-3.4,4.3-3.9,17-0.9,23c3.1,6.3,12.5,11,25.8,13l4.7,0.7l1.1-5.2
		c1.6-7.2,1.5-8.4-0.6-7.5c-7.5,3.2-10.1,3.8-14.5,3.1c-9.7-1.5-15.1-8.2-15.1-18.7c0-3.7,0.6-6.7,1.7-8.3
		C350.5,167.3,348.8,167.2,346.2,170.5z M319,170.2c-4.6-0.4-5.2-0.2-7.9,2.7c-9.1,9.8-5.8,27.9,7.8,42c3.2,3.4,6.4,6.1,7,6.1
		c0.6,0,1.1-1.7,1.1-3.8c0-2,1.1-8.1,2.4-13.5l2.3-9.8l-3.6-3c-4-3.3-8.7-4.9-14.3-4.9c-4.3,0-5.2-1.9-1-2.1
		c8.5-0.3,13.3,1.1,17.8,5.3l2.2,1.9l1.8-4.7c1.6-4.1,1.6-4.9,0.3-7.2c-0.8-1.5-3.6-4-6.2-5.6C325.8,171.8,322.1,170.5,319,170.2z
		 M500.2,211.6c-5.3,1.9-6.8,4.3-7.5,11.4c-0.6,6.3-2.4,11.9-7.8,24.4c-2.1,5-3.7,9.1-3.6,9.3c0.9,0.8,12.6-2,17.2-4.1
		c11.7-5.3,16.6-11.5,19.5-24.7c1.1-5.1,1.1-6.1-0.6-9.5c-1.1-2.1-3-4.6-4.4-5.6C509.4,210.2,505.1,209.8,500.2,211.6z M362.7,279.1
		c-1.6-1.2-1.7-0.3-1.7,12.7c0,7.8-0.4,14.3-0.9,14.6c-1.1,0.7-2.1-4.2-2.1-10c0-2.4-0.4-4.4-0.9-4.4c-1.7,0-7.1,14.9-7.1,19.7
		c0,1.9,0.6,2.3,2.9,2.3c5.1,0,8.6,4.1,11.7,13.3c1.5,4.5,2.9,8.5,3.1,8.9c0.2,0.4,2.2-0.6,4.4-2.2c4.8-3.4,12.5-6.5,18.9-7.4
		c4.1-0.7,5.4-1.7,15.2-11.9l10.8-11.1l-1.1-3.9c-0.8-3-1.4-3.7-2.7-3.2c-0.9,0.4-6.9,0.9-13.2,1.2c-14.1,0.7-15.4,0.2-27.1-9.8
		C368.2,283.8,363.6,279.9,362.7,279.1z M315.8,282.7c-1.6,0.4-1.5,0.9,0.8,5.4c1.8,3.7,3.4,5.4,6.2,6.5c2,0.9,6.1,2.7,9,4
		c6.4,2.9,6.2,2.9,6.2,0.1c0-1.3-1.3-3.6-3-5.2c-3.3-3.2-3.8-4.5-1.6-4.5c0.8,0,2.8,1.7,4.5,3.7l3.1,3.8l2.7-2.8l2.7-2.7l-2.9-3.1
		c-1.7-1.7-4.4-3.8-6.2-4.5C334.2,282.1,319.9,281.6,315.8,282.7z M313.8,290c-1.9,0-19.8,18.4-21.8,22.4c-1.4,3-2,6.2-2,11
		c0,6.6,0.2,7.1,7.5,19.9c6.8,11.9,13.8,20.8,15.2,19.3c0.3-0.2-0.3-2.6-1.3-5.3c-3.2-8.2-1.7-27.1,2.3-30.5c1.4-1.1,1.5-1,1,0.7
		c-1.4,4.7-2.9,19-2.5,23c0.9,7.6,8.3,19.5,12.1,19.5c0.9,0,1.2-4.2,1.4-14.8c0.1-8.7,0.8-18,1.7-22.7c2.2-11,2.4-10.5-3.8-10.5
		c-8.3,0-11-1.4-17.6-9.5c-3.3-4.1-6-7.8-6-8.4c0-0.6,2.3-2.9,5.1-5.1c4.4-3.5,7.2-4.6,10.2-4.1c0.9,0.1,0.9-1.2,0.1-3.3
		C315.1,290.7,314.4,290,313.8,290z M342.2,299.4c-1.1,1.5-3.5,6.1-5.2,10.3c-9.9,23.6-12.1,55.3-5.9,84.5
		c2.1,10.1,2.4,10.7,3.9,9.3c1.6-1.5,2.2-1,7,5.5c2.8,3.8,5.5,7,5.8,6.9c0.4,0,4.5-6.1,9-13.6c5.9-9.4,8.2-14.1,7.9-15.6
		c-0.3-1.2-2.8-7.4-5.6-13.7c-6.9-15.8-10.1-30.6-10.8-51c-0.5-14-0.3-16.1,1.6-21.7c1.2-3.4,2.1-6.5,2.1-6.8
		C352,291.6,345.1,295.8,342.2,299.4z M319.1,297.3c-4.6-0.3-6.3,0-9.5,1.9c-6.4,3.8-6.5,4.7-1.2,11.7c5.2,6.7,6.4,7.6,11.9,8.6
		c4.7,0.9,8.1,0,10.7-2.7c2.7-2.9,2.5-5.2-0.7-8.3c-2.6-2.5-3.2-2.6-10.1-2.1c-5.5,0.4-7.3,0.3-7-0.6c1.2-3.5,14.1-3.4,18.8,0.1
		c2.6,1.8,2.9,1.9,3.5,0.3c0.7-1.8-0.8-3.2-6.9-6.4C326.4,298.7,322.1,297.6,319.1,297.3z M437.8,300c-1.5,0.4-3.7,1.5-5,2.5
		c-2.2,1.6-2.2,1.6,2.7,1.1c2.8-0.3,7.6-0.9,10.7-1.2c7-0.8,15.1,0.3,14.2,1.8c-0.4,0.7-3.2,0.9-7.8,0.5c-3.9-0.3-7.9-0.2-8.9,0.2
		c-1.6,0.6-1.2,1.2,2.9,4.4c2.6,2,5.6,3.7,6.6,3.7c3.1,0,8.6-2.7,9.7-4.8c1.6-3.1,1.4-7.9-0.5-8.6C460.1,298.7,441,299,437.8,300z
		 M421.7,305.3c-0.8-0.8-13.4,11.3-21.2,20.5c-6.6,7.6-9.9,13.8-23.7,44.2c-4.4,9.6-11.1,22.8-14.9,29.2c-3.8,6.4-6.9,12.1-6.9,12.6
		c0,0.4,4.8,1.4,10.8,2.1c17.5,2.1,17,1.6,12.1,10.7l-3,5.8l2.3,1.9c4.2,3.3,8.3,5.7,10,5.7c0.9,0,1.8,0.5,2,1.1
		c0.6,1.9,11.7-0.5,21.6-4.7c24.1-10.1,26.9-10.9,45.7-13l4-0.4l-0.1-6.8c-0.1-4.7-0.8-8-2.2-10.9c-2.4-4.5-3.7-5.3-9.1-5.3
		c-5.5,0-13.6-4.5-20.5-11.4c-11.1-11-15.9-23.8-15.6-41.1c0.3-15.2,0.2-18.6-0.5-23.3c-0.9-5.3,0.8-9.8,4.5-11.7
		c1.4-0.7,3.2-2.1,4-3C421.7,306.7,422,305.7,421.7,305.3z M468,306c-0.4,0-1.7,1.4-2.8,3.1l-2,3.2l4.4,4.2c3.6,3.4,4.4,4.8,4.4,7.8
		c0,2-0.2,3.7-0.5,3.7c-0.3,0-1.2-1.8-2.1-4c-2.3-5.6-6.6-9-11.5-9c-5,0-5.4,0.9-4.1,10.7c0.6,4.3,0.9,7.9,0.8,8.1
		c-1,0.9-18.3,3.2-24.7,3.2c-6.3,0-8.1-0.4-10.3-2.1c-1.5-1.2-3-1.9-3.3-1.6c-0.3,0.3-0.7,4.3-1,8.9c-1.3,21.3,9.2,41.8,25.8,50.4
		c9.4,4.9,20.2,3.5,27.7-3.6c1.3-1.2,2.1-2.4,1.9-2.7c-0.3-0.2-4.4-1.3-9.2-2.4c-8.9-1.9-20.9-6.8-18.8-7.6c0.6-0.2,4.6,0.7,9,2.2
		c4.3,1.4,10.4,3.1,13.6,3.7c5.3,1.1,6.2,1,9.5-0.7c11.5-6.2,13.6-26.6,3.9-37.2c-2.6-3-1.5-4.1,1.9-1.9c4.3,2.9,6.4,8.9,6.4,19
		c0,10.7,0.8,10.5,6.5-1.6c3.4-7.2,3.9-9,3.9-15.7c0-13.3-5.4-26.3-13.2-31.3c-2-1.3-6.3-3.4-9.5-4.6C471.4,307,468.5,306,468,306z
		 M424.6,307.8c-0.3,0.5,2.1,1.6,5.3,2.5c4.1,1.2,6.7,2.6,8.5,4.7c4.6,5.5,3.4,6.1-3,1.4c-10.3-7.8-20.4-5.9-20.4,3.7
		c0,6.7,3.8,12.1,9.8,13.8c2.8,0.8,25.7-1.1,26.8-2.2c0.3-0.2,0-3.7-0.6-7.8c-0.9-7-1.2-7.6-5.4-11.5c-3-2.7-5.8-4.3-8.3-4.7
		C431.9,306.8,425.2,306.9,424.6,307.8z M350.7,317.6c-0.6,0.6-0.3,4.5,1.4,20.4c1.1,9.7,5.1,23.5,10.9,37.4
		c1.8,4.2,3.5,7.6,3.9,7.6c0.5,0,4.2-7.3,8.4-16.3c4.1-8.9,9.8-21.1,12.6-27.1l5.1-10.9l-2.8,0.6c-6.8,1.4-14.3,5.1-18.8,9.2
		c-5.3,5-5.8,4.8-6.9-2.4c-1-6.3-4-13.9-6.6-16.7C355.8,317.1,352.1,316.2,350.7,317.6z M310.5,365c-0.6,0,0.5,12,1.2,13.3
		c0.6,1,8.1,4.8,11.6,5.8l2.8,0.8l-0.3-5.6c-0.2-4.4-0.7-5.8-2.3-6.7c-1.1-0.6-4.4-2.5-7.2-4.3C313.4,366.5,310.8,365,310.5,365z
		 M490,370.6c-4.2,4-4.9,4.7-9.4,9.4c-2.4,2.5-4.8,4.9-5.4,5.5c-0.6,0.5-2.5,2.7-4.2,4.7c-1.7,2.1-5,4.4-7.5,5.4
		c-2.5,0.9-4.5,2.1-4.5,2.6c0,1.8,3.1,6.8,4.1,6.8c0.6,0,3.8-1.4,7.1-3.2c6.6-3.5,14.7-11.7,21.4-21.7c4.6-6.9,5.2-8.9,3.2-10.9
		C493.3,367.7,493,367.7,490,370.6z M498.5,375c-0.1,0-2.7,3.7-5.6,8.2c-6.9,10.5-13.2,16.7-21.5,21.4l-6.5,3.6l2.3,2.5
		c1.3,1.4,4.7,4.1,7.6,5.9c6.5,4.2,6,6.7-0.5,2.8c-3.7-2.1-4.7-2.4-5.4-1.3c-2.2,3.5-1,4.7,6.4,6.4c8.8,2.2,9.2,2.4,19.2,9.5
		c4.4,3.1,8.6,6,9.2,6.4c0.9,0.5,2.1-1.2,3.9-5.1c6.3-14.2,10.4-25.6,10.4-29.2c0-5-3.5-11.5-12.2-22.3
		C502,378.9,498.7,375,498.5,375z M311.4,382c-0.2,0-0.4,1.2-0.5,2.7c0,1.6-0.2,4.1-0.4,5.8c-0.2,1.6-0.6,5.6-1,8.7
		c-0.3,3.1-1.5,10.2-2.5,15.8c-2.2,11.1-2.6,22.4-0.9,28.2c1.1,4.1,2,4.6,3.9,2.3c1.1-1.3,1-1.8-0.4-2.8c-1.4-1-1.5-1.7-0.5-4.7
		c1.6-4.9,3.5-6.8,9.8-10l5.5-2.7l-0.3-5.1c-0.2-4.6,0.1-5.4,3.4-9.1c4-4.4,4-3.1,0.8-17.4c-1.2-5.7-1.8-6.7-3.6-6.7
		c-1.2,0-4.6-1.1-7.5-2.5C314.2,383.1,311.6,382,311.4,382z M339.2,410.1l-2.9-3.4l-5.3,5.1c-4.9,4.7-5.2,5.4-4.7,8.7
		c1.1,6.7,3.8,8,8.8,4.4c1.7-1.2,4.8-2.3,6.9-2.6c4.5-0.6,4.8-1.5,2.1-5.8C343,414.8,340.8,412,339.2,410.1z M357,416
		c-5.3,0-5.6,0.1-6.8,3.2c-1,2.7-0.8,3.8,1.1,8c1.2,2.6,2.6,4.8,3.1,4.8s2.1-1,3.4-2.3c2-1.9,3.3-2.2,8.7-2l6.4,0.2l2.6-4.5
		c1.5-2.5,2.5-4.8,2.2-5c-0.2-0.2-3.7-0.8-7.8-1.4C365.8,416.5,360,416,357,416z M442.7,425.6c-7.6,1.7-12.2,3.2-11.5,3.9
		c0.2,0.3,5.1,1.9,10.9,3.6c26.6,7.8,46.1,21,61.6,41.6c11.7,15.6,10.3,17.6-1.7,2.2c-17.1-21.9-32.2-32.2-61.3-41.4l-14.8-4.7
		l-8.7,4.1c-9,4.2-18.5,7.1-23.5,7.1c-4.4,0-6.2,1.5-9.1,7.4c-3.3,6.8-9.3,12.1-16.2,14.3l-5.2,1.6l2.1,4.6
		c1.6,3.6,2.1,6.7,2.2,14.1v9.5l6,9.4c10,15.6,17.6,22.7,28.5,26.6c12.1,4.3,36.1,9.7,47.5,10.6c18.1,1.4,31.5,2.7,47.4,4.4
		c23,2.5,50.4,8.8,56.7,13.1c1.9,1.3,3.6,2.4,3.7,2.4c0.7,0-1.5-19.4-2.9-26.5c-1.9-9.3-8.3-29.8-11.9-37.9
		c-5.8-13.2-21.1-33.2-37.2-48.6c-12.6-12.1-19-16.3-30.5-19.7C464.3,424.2,451.9,423.5,442.7,425.6z M327.9,429l-2.7,0.1
		c-4.3,0.1-11,3.9-12.6,7.3c-1.4,2.9-1.3,3.2,0.6,5.4c2.6,2.7,10.1,7.2,12.1,7.2c2.2,0,3-3.1,1.2-5c-2.7-2.9-2.9-7.6-0.7-11.5
		L327.9,429z M328.6,432.9c-1.8,2-2.2,7.6-0.4,8.7c1.6,1,3.8-2.5,3.8-6.2C332,431.4,330.8,430.5,328.6,432.9z M361.5,431.7
		c-3.9,1-4.5,2.3-3.9,7.7c0.5,4.3,0.3,5.5-1.6,7.8c-1.2,1.6-3,2.8-4.1,2.8c-2.2,0-2.2,0.1-0.8,5.1c2.3,7.5,13.1,9.3,21.5,3.6
		c7.1-4.8,15-17.3,11.6-18.5c-0.6-0.2-2.6-1.4-4.4-2.7c-1.8-1.3-5-3.3-7-4.5C369.2,431.1,365.8,430.7,361.5,431.7z M351.2,433
		c-0.6,0-4.8,6.5-6.1,9.3c-0.6,1.4,3.1,4.7,5.4,4.7c4.5,0,5.9-5.3,3-11C352.6,434.3,351.6,433,351.2,433z M313.7,447
		c-1.6,0-6.8,5.5-13.2,13.8c-2.5,3.3-5.7,6-8.7,7.4c-2.6,1.3-4.7,2.6-4.8,2.9c-0.1,1.4,7.8,4,13.4,4.5c7.4,0.6,10.5-1,19-10.2
		c4.3-4.7,5.6-6.9,5.6-9.3c0-4.5-2-4-8.7,2.1c-7.3,6.6-8.4,4.6-1.5-2.6l5.1-5.1l-2.4-1.8C316.2,447.8,314.5,447,313.7,447z
		 M328,450.9c-2.6,4.9-0.1,15,4.8,19.4c1.9,1.8,2.1,1.7,7.3-1.6c8.7-5.6,9.3-6.5,7.7-12.8c-1.4-5.7-1.1-5.6-8-4.2
		c-1.5,0.3-4.1-0.2-5.9-1.1C329.8,448.6,329.3,448.6,328,450.9z M351.5,469.1c1.7,6.4,1.8,12.7,0.2,18.8c-1.4,5.4-4.1,7.1-2.9,1.9
		c0.8-4,0.9-21.4,0-22.3c-0.7-0.8-7.7,3.5-9.7,5.9c-1.6,1.9-1,6.9,2.5,20.6c2.6,10,5.3,15.4,8.2,16.5c2.2,0.9,6.2-3.8,11-13
		c3.4-6.5,3.7-7.7,3.7-15.5c0-6.9-0.4-9.3-2.3-12.8c-1.3-2.3-3.3-4.7-4.5-5.1C350,461.2,349.5,461.5,351.5,469.1z M326,466.2
		l-1.5-2.3l-6.6,6.8c-4.7,4.8-8,9.5-11.3,16c-3.2,6.1-7.5,12.4-13.3,19c-14.6,16.8-22.2,28.6-24.2,37.5c-1.1,4.7,0.2,11.6,3.1,17.2
		l1.5,2.9l0.7-5.4c1.7-13.4,5.7-19,18.2-25.9l7.5-4.1l-0.7-6.9c-0.5-5.8-0.3-7.5,1.5-11.2c3.7-7.7,7.6-11.4,16.7-15.9
		c9.4-4.6,14.1-8.6,16.8-14.4c1.8-3.7,1.8-3.8,0-4.8c-1.1-0.6-3-2.2-4.4-3.6S326.8,467.5,326,466.2z M335.8,485.3
		c-0.2-1.5-1.2-0.9-5,2.9c-2.6,2.6-7.2,5.9-10.2,7.2c-7.4,3.3-11.9,6.9-15.5,12.2c-4.1,6.3-4.6,10-2,17.4c3,8.8,2.3,13.7-3,20
		c-4.5,5.4-5,7.6-2.2,11.1c1,1.3,2.3,3.7,3,5.4c1,2.7,1,2.5,0.4-2c-1.2-8.9-0.8-11,2.4-15.1c3.9-5,4.7-9.7,2.8-16
		c-1.9-6.4-1.9-11.8,0.1-16c1.8-3.7,7.5-9.1,12.1-11.4c4-2.1,12.4-8.3,15.1-11.3C335.1,488.3,336,486.4,335.8,485.3z M339.7,497.4
		l-1.3-4.5l-2.4,5.2c-4.8,10.1-7.7,13.7-17.3,20.8l-9.4,6.9l0.4,6.9c0.5,6.6,0.4,7-3.2,12.2l-3.8,5.5l1.2,6.2
		c1.3,7.2,0.6,9.9-3.9,15.1c-3.1,3.4-4,6.1-3.7,10c0.4,4.1-1.8,2.5-2.7-2.1c-0.8-3.9-0.6-5.2,1.7-9.9c3.2-6.5,3.3-7.7,0.6-11
		c-1.1-1.5-2.3-4.2-2.6-6.1c-0.5-3,0-4,4.6-9c4-4.5,5.1-6.3,5.1-9.1c0-1.8-0.3-3.6-0.8-3.8c-0.4-0.3-2.6,0.6-5,2
		c-8.3,4.9-14.2,21.4-14.2,39.6c0,14.2,5,47.7,7.2,47.7c0.4,0,0.8-0.7,0.8-1.6c0-3.1,9.1-28.9,13.3-37.3c2.3-4.7,6.1-11.4,8.4-14.8
		l4.2-6.2l-2.1-4.8c-1.6-3.5-2.2-6.7-2.2-11.9c0.1-10.2,2.5-14.5,14.1-25.2c5.3-4.8,10.6-10.4,12-12.5
		C340.9,502.2,341,501.7,339.7,497.4z M365.4,495c-0.2,0-1.7,2.6-3.3,5.7c-2.6,5.2-9.4,13.3-11.1,13.3c-0.3,0-1.5-0.6-2.5-1.4
		c-1.7-1.2-2.7-0.6-11,7c-9.2,8.5-14.9,16.4-16.1,22c-0.7,3.6,1.8,10.4,3.9,10.4c2.4,0,18.6-12,26.7-19.7c8.8-8.3,13.3-15.3,15.5-24
		c1.5-5.8,1.5-6.5-0.1-9.8C366.5,496.6,365.6,495,365.4,495z M376.1,512l-4.7-6.7l-1.6,5.6c-0.9,3.1-3.4,8.3-5.6,11.6
		c-4.6,7.1-19.4,21.2-27.4,26.2c-4.4,2.7-5.8,4.2-5.8,5.9c0,2.5,2.8,4.8,7,5.9c6.7,1.6,16.9,12,19.1,19.5c2.4,7.9-3.2,17-11.8,19.3
		c-2.5,0.6-4.8,1.7-5,2.4c-0.3,0.7,1.9,6.1,4.8,12c4.4,8.9,6.6,12.1,12.8,18.4c4.2,4.2,8.5,8.1,9.6,8.7c2.1,1,2.1,0.9,1.7-11.3
		c-0.5-14.5,0.9-26,4.5-36.5c3.1-9.1,9.2-21.5,14.3-29c7.5-11.1,12.9-25.2,11.6-30.3c-0.3-1.3-2.5-3.2-5.1-4.6
		c-2.5-1.3-6.6-4.2-9.1-6.4C382.9,520.5,378.7,515.7,376.1,512z M344,507.7c-1.3-1.1-3.3,0.5-13.2,10.3
		c-12.7,12.5-15.7,17.3-15.8,25c0,11.4,3.7,16.6,14.7,20.4c15.5,5.5,20.3,9.9,20.3,18.9c0,2.7-0.5,5.8-1.1,7
		c-2.9,5.7-9.9,7.4-15.4,3.7c-3.4-2.3-9.7-2.6-11.4-0.7c-1.4,1.8-2.6,7.7-1.5,7.7c0.5,0,1.7-1.4,2.6-3c2-3.5,3.5-3.7,8.8-1
		c2.2,1.1,5.4,2,7.3,2c4.9,0,11.7-3.9,13.8-8c3.2-5.8,2.5-9-3.3-16.5c-4.8-6-6.3-7.1-15.3-11.5c-12.1-5.8-14.7-8.8-15.3-17.1
		c-0.7-10,1.4-13.4,18.3-28.6C344.3,510.1,345.3,508.9,344,507.7z M402.5,533c-0.1,0-0.8,4.1-1.5,9c-2.4,16.9,0.5,35.4,8.2,51.6
		c4.5,9.7,15.1,27.2,19,31.6c7.1,7.8,21.6,19.8,24.1,19.8c0.4,0,0.7-1.9,0.7-4.3c0-7.3,2.9-21.3,6.6-31.4c4-11.1,7.4-24.3,7.4-29
		c0-1.9-1-4.3-2.4-6c-2.2-2.6-8.2-14.5-13.6-27c-1.6-3.5-2.5-4.3-5.2-4.7c-1.8-0.3-6.3-1-9.9-1.6c-3.6-0.5-6.9-1-7.4-1
		c-0.4,0-0.5,6.6-0.2,14.7c0.7,15.3,3.4,30.2,9.1,49.7c3,10.2,3.3,12.4,1.2,10.7c-1.5-1.2-4.4-10.5-8.1-26.1
		c-3.5-14.8-4.6-23.7-4.6-37.7c0-10.6-0.2-12.3-1.7-12.7c-0.9-0.3-6.1-1.7-11.6-3.1C407.2,534.1,402.7,533,402.5,533z M452,543.8
		c0,0.4,2.9,6.7,6.4,13.8c8.7,17.5,13.3,21.9,32.9,31.2c7.8,3.7,21.1,10.1,29.6,14.4c8.6,4.2,15.7,7.5,15.9,7.4
		c0.9-1,2.3-23.9,1.9-31.6c-0.6-10.6-3.6-21.7-6.7-24.5c-1.8-1.7-21.4-6.4-26.9-6.5c-2.2,0-2.3,0.1-0.9,1.7
		c3.1,3.5,14.8,23.1,14.8,24.7c0,3.1-1.5,1.5-5.3-5.4c-4.3-7.9-13.5-20.7-15.5-21.5c-0.7-0.2-8.1-1.1-16.5-1.9
		C456.6,543.2,452,542.9,452,543.8z M536,554.6c0,0.2,0.8,2.5,1.9,5.1c1,2.6,2.2,7.1,2.6,9.9c0.6,4.7,1.2,5.6,5.8,9.4
		c5,4.1,15.9,10,18.4,10c1.4,0,0.2-3.9-5.4-17c-4.1-9.9-5.5-11.7-10.3-13.8C545.1,556.5,536,554,536,554.6z M398.1,565.3
		c-1-5.9-1.9-10.3-2-9.7c-0.1,0.6-3,5.5-6.5,11c-11.4,17.9-17.3,35.4-18.3,54.4c-0.7,13.5,0.8,21.7,4.3,23
		c1.3,0.5,11.1,1.2,21.7,1.6c19.1,0.6,31.4-0.2,39.8-2.7l3.9-1.2l-8.8-9.1c-13.6-14.1-23.3-29.9-29.2-47.6
		C401.3,580.1,399.1,571.2,398.1,565.3z M320,562.6c-1.7-0.7-9.4,11.5-15.4,24.4c-4,8.8-10,27.5-9.3,29.3c0.5,1.2,20.2,10.3,34.7,16
		c8.1,3.2,24.5,8.1,30.6,9.3l3.8,0.7l-6.1-5.7c-7.8-7.2-12.9-14.8-17.8-26.4c-3.7-8.6-4.1-9.1-8.7-11.3c-3.9-1.8-5.1-2-6.1-1
		c-0.9,1-0.7,1.6,1.3,3.1c5.2,3.9,6,5.1,6,8.2c0,3.8-0.6,4.8-4,7.1c-2.9,2-8,2.3-8,0.4c0-0.7,1.4-2.6,3-4.2c1.7-1.6,3-3.2,3-3.7
		c0-0.4-1.7-1.6-3.8-2.7c-4.6-2.3-6-5.3-5.1-10.5c1-5.8,4.1-8,10.5-7.3l5,0.5l-2.2-11c-1.2-6.1-2.6-11.3-3.1-11.8
		c-0.4-0.4-2.1-1.2-3.8-1.8C322.9,563.7,320.8,562.9,320,562.6z M332.4,567c-0.9,0,0,5.3,2.5,14.5c2.6,9.8,2.8,10,5.8,10.3
		c2.6,0.3,3.4-0.2,5.2-3.1c4.7-7.6,0.7-15.9-9.8-20.3C334.3,567.6,332.6,567,332.4,567z M541.6,579c-0.3,0-0.6,4.8-0.6,10.6v10.6
		l8.2-4.5c4.5-2.5,8.4-4.9,8.5-5.4c0.2-0.5-1.7-1.9-4.1-3c-2.4-1.2-5.9-3.5-7.9-5.2C543.8,580.4,542,579,541.6,579z M472.8,581.6
		c-3.1-2-3-2.2-4.8,8.4c-0.7,3.6-3.2,12.8-5.7,20.5c-2.4,7.7-5.1,17.1-5.8,20.8l-1.3,6.8l3.2-0.7c6.8-1.4,35.8-10.5,47.7-14.9
		c7-2.5,15.2-6.2,18.4-8.2l5.7-3.6l-4.4-2.4c-7.6-4.4-17-8.9-28.4-13.7c-6.2-2.6-13.6-6.2-16.5-7.9
		C477.9,584.9,474.3,582.6,472.8,581.6z M464.1,643.1c-4.3,0.8-9.1,3.3-9.1,4.7c0,0.4-3.1,0.6-6.9,0.4c-5.4-0.3-7.7,0.1-10.9,1.7
		c-3,1.5-6,2.1-10.9,2.1c-3.7,0-8.4,0.3-10.3,0.6l-3.5,0.6l-0.1,9.1c0,6.2-1.1,14.3-3.3,24.7c-4.1,19.5-4.8,33-2.7,46.5
		c0.9,5.5,2.3,16.7,3.2,25c0.8,8.2,1.7,16.4,2,18.1c0.6,4,14.9,20.3,22.7,25.8l5.8,4.1l1.7-2.1c2.2-2.7,5.4-4.4,8.5-4.4
		c1.4,0,3.1-0.7,3.8-1.6c1-1.2,2.5-1.5,6-1.2c7.7,0.8,7.9-0.3,1.7-6.9c-13.3-14-14.8-16.3-14.8-21.9c0-2,4.3-16.3,9.5-31.8
		c7.3-21.8,9.7-30.2,10.6-37.6c1.2-10,0.6-30.7-1-32.3c-0.5-0.5-1.7,0.6-3,2.6c-1.9,3.1-5.1,5.6-5.1,4.1c0-0.4,2.2-4.3,5-8.9
		c5.8-9.6,10-18.3,10-20.8C473,641.8,471.3,641.7,464.1,643.1z M350,645c-3,0,0.4,6.1,8.5,15.2c4.7,5.3,6.1,7.4,4.9,7.6
		c-0.9,0.2-2.1-0.1-2.7-0.7c-0.6-0.6-1.5-1.1-1.9-1.1c-1.2,0-1,36.6,0.3,45.7c0.6,4.3,2.4,13.5,4,20.5c4.8,21.1,3.7,31.2-4.4,38.9
		c-3.5,3.3-3.5,3.3-1.9,6.6c0.9,1.8,2.3,3.5,3.3,3.8c0.9,0.3,2,1.2,2.3,2c0.3,0.9,1.9,1.5,3.8,1.5c4,0,9.8,3.4,10.5,6.1
		c0.7,2.4,0.9,2.4,8.7-0.5c7.6-2.7,15.6-7.7,19-11.6c4-4.8,4.1-14,0.6-38c-1.6-11.3-3-22.7-3-25.5c0-5.8,1.9-16.9,5.4-32.2
		c3.1-13.4,3.7-18.5,2.8-24.3c-0.7-4.4-0.7-4.5-6.2-5.7c-3.6-0.8-8.8-1.1-15.1-0.7c-8.1,0.6-10.2,0.4-13-1.1c-2.1-1.1-5.9-1.8-9.9-2
		c-4.4-0.1-7.8-0.8-10.7-2.3C353,646,350.6,645,350,645z M343,778.6c0,0.7-2,3.2-4.5,5.6c-4,3.7-4.6,4.8-4.3,7.8
		c0.3,3.3,0.6,3.5,4,3.8c3,0.3,4.3-0.2,6.5-2.5c2.5-2.4,2.6-2.8,1-3.1c-1-0.2-3.1,0.1-4.7,0.7c-1.6,0.5-3.2,0.6-3.5,0.2
		c-0.6-1.1,5.6-4.1,8.5-4.1c2.8,0,10-4.1,10-5.8c0-0.7-1.1-2.4-2.5-3.7C349.9,773.8,343,774.5,343,778.6z M406,781.4
		c-2.4,3-12,8.6-19.8,11.7c-6.2,2.4-8.2,3.7-8.4,5.3c-0.2,1.5-1.5,2.5-5,3.5c-3.8,1.2-4.8,1.9-5.3,4.2c-0.8,3.6-4.6,7.6-8.1,8.5
		c-3.6,0.9-6.1-2.1-6.9-8.4c-0.7-5.2-2.3-10-3.6-10.8c-0.5-0.2-1.9,0.2-3.1,1c-2.9,1.8-9,3-11.6,2.1c-1.2-0.3-2.3-1.8-2.7-3.6
		l-0.7-3.1l-2.8,2.7c-7,6.7-9.1,20.4-4.2,27.3c3.3,4.6,11.6,8.2,20.4,8.9c10.1,0.7,14.2-0.6,26.6-9.1c5.9-4,14.9-9.4,20-12
		c5-2.7,10-6,11.1-7.5c1-1.4,2.1-5.2,2.5-8.4c0.3-3.2,1.3-7.5,2.1-9.4C408.2,780.3,408,779.1,406,781.4z M411.2,783
		c-1.6,0-3.4,5.5-3.9,11.7c-0.7,7.5,1.1,10.9,8.6,16.7c5.3,4,10.6,9.9,16,17.9c7.1,10.4,14.7,15.6,25.9,17.7
		c12.6,2.2,21.4-2.2,24.3-12.3c0.8-2.7,0.4-3.4-4.6-8.3c-3-2.9-5.5-5.9-5.5-6.7c0-2-5.6-6.7-8-6.7c-1,0-2.1,0.7-2.4,1.6
		c-0.7,1.8,0.2,6.3,1.6,8.1c1.1,1.4,0.1,5.4-1.6,6.5c-1.9,1.3-8.7,0.9-12.1-0.7c-1.7-0.9-3.8-2.7-4.5-4c-0.7-1.4-2.4-3.2-3.7-4
		c-1.9-1.3-2.3-2.4-2.3-6.4v-4.9l-7-5.2c-6.6-4.9-20-18.4-20-20.2C412,783.4,411.6,783,411.2,783z M364.7,787.4
		c-5.3-0.8-5.9,0.2-3.2,5.2c1.7,3.2,2,6.4,0.6,6.4c-0.5,0-1.1-1-1.4-2.3c-0.4-1.2-1.3-3.1-2-4.2c-1.3-1.6-1.7-1.7-3.1-0.6
		c-1.4,1.2-1.3,1.6,1.4,4.4c2.1,2.2,3,4.1,3,6.4c0,1.8-0.2,3.3-0.5,3.3c-0.2,0-1.3-2-2.4-4.5c-1.1-2.5-2.3-4.5-2.7-4.5
		c-0.8,0,0.2,10.7,1.2,13.3c0.9,2.4,3.7,2.1,6.5-0.7c1.6-1.6,2.9-4.6,3.7-8.5c0.7-3.4,1.7-6.1,2.3-6.1c0.6,0,0.9,1,0.7,2.2
		c-0.3,2.5,0.1,2.8,3.2,2.8c4.7,0,4.5-7.3-0.3-10.4C370.4,788.7,367.3,787.7,364.7,787.4z M469.2,799.2c-1.3,0.7-2.1,1.7-1.7,2.6
		c0.3,0.7,0.5,1.8,0.5,2.2c0,0.5,1.7,1.4,3.8,2c3.7,0.9,9.1,5.4,8,6.5c-0.3,0.3-2.3-0.5-4.3-2c-4-2.7-7.5-3.3-7.5-1.3
		c0,1.7,16,17.9,17,17.3c1.4-0.8,2.3-12.1,1.1-14.3c-0.5-1-3-3.4-5.5-5.3c-2.5-1.9-4.6-4.1-4.6-5c0-0.8-0.5-2-1.2-2.7
		C473.4,797.8,472.3,797.8,469.2,799.2z M447.3,803.6c-3.6,1.8-6.9,8.8-5.8,12.3c0.9,3,1.9,2.6,3.3-1.4c1.5-4.1,6.5-8.5,9.5-8.5
		c1.9,0.1,1.6,0.6-2,3.8c-7,6.2-8.1,10.7-3.7,14.7c3.5,3.2,9.9,3.5,10.9,0.5c0.3-1,0.1-2.9-0.5-4.1c-0.7-1.2-0.9-3.6-0.5-5.6
		c0.5-2.6,0.3-3.3-0.6-2.8c-0.8,0.5-1,2.7-0.6,6.8c0.5,5.2,0.4,5.8-0.9,4.5c-2.4-2.3-2.8-8.2-1-11.9c2.2-4.4,2-5.4-1-7.8
		C451.2,801.6,451.4,801.6,447.3,803.6z"/>
	<path d="M490,48.7c0,4-1.4,11.1-2.4,12c-1.1,1.1-14,3.3-14.8,2.5c-0.5-0.5,0-3,1.2-5.6c1.1-2.6,2-5.2,2-5.7c0-2.1-4.1,1.4-6,5.1
		c-2.1,4-4.7,5.1-7.8,3.1c-2-1.2,9.9-10.8,15.1-12.1c2.3-0.6,5.6-1.4,7.2-1.9C489.6,44.6,490,44.8,490,48.7z"/>
	<path d="M368,121.3c8.3,0.3,10.3,0.7,15.6,3.5c3.4,1.7,7.1,4.3,8.3,5.8c3.4,4.3,2.5,15.4-1.2,15.4c-0.7,0-3.3-2.1-5.7-4.6
		c-6.7-6.9-10.6-8.4-22.3-8.4c-5.4,0-11.8,0.5-14.3,1.1c-2.5,0.6-4.8,0.9-5.1,0.5c-1-0.9,8.7-10.6,12.2-12.2
		C357.6,121.4,361.3,121.1,368,121.3z M358.5,124.2c-3.5,1.3-8.5,4.6-8.5,5.7c0,0.3,4.5,0.5,10,0.3c13.4-0.6,18,0.8,24.8,7.2
		c4.3,4,5.5,4.7,6.2,3.6c3-4.7-1-10.4-10.2-14.5C373.8,123.4,363.5,122.3,358.5,124.2z"/>
	<path d="M479.3,145.6c9.2,3.1,14.7,11.2,14.7,21.8v4.7l-9.3-6.5c-5.1-3.5-10.5-6.8-11.9-7.1c-1.6-0.4-7.2,0.3-13.2,1.5
		c-13,2.8-13.6,2.5-13.6-6.6c0-3.5,0.5-6.6,1.1-7c0.6-0.3,3.4-1,6.3-1.4C462.6,143.6,474.4,143.9,479.3,145.6z M459.3,147.1
		c-9.7,1.4-11.3,2.3-11.3,6.1c0,6,0.9,6.4,9.2,4.5c14-3.3,20.4-2.1,29.8,5.8c2.3,1.9,4.4,3.4,4.6,3.3c0.1-0.2-0.1-2.1-0.6-4.1
		c-1.2-5.5-4.9-10.3-10-13.1C475.6,146.8,467.8,145.9,459.3,147.1z"/>
	<path d="M474.5,185.9c2.6,1.9,3.9,3.7,3.8,4.9c-0.3,2.6,4.8,7.3,8.8,8.1c1.8,0.4,3.4,1.2,3.6,1.8c0.6,1.8-2.7,4.3-5.7,4.3
		c-2.6,0-3,0.5-4.5,5.7c-3.3,11.5-13.6,17.7-29,17.7c-5.7,0-8-0.5-12.3-2.7c-2.9-1.5-5.6-3.5-5.9-4.4c-0.9-2.2,3.4-14.4,7.3-20.9
		c1.8-2.9,2.9-5.5,2.6-5.8c-0.7-0.8,3.6-6.8,6.5-8.9c1.3-1.1,4.5-2.3,7.1-2.7C464.1,181.7,470,182.6,474.5,185.9z M452.5,193.9
		c-4.8,2.2-10.5,8.3-10.5,11.4c0,3.2,3.5,8.4,6.9,10.1c3.1,1.6,6.2,2.1,12,1.8c4.2-0.2,9.7-5.7,10.6-10.6c0.8-3.9-0.9-10.9-3.1-13.1
		C466.3,191.4,457.5,191.6,452.5,193.9z M472.6,193c-0.3,0,0,1.5,0.5,3.2c1.3,4.8,1.1,12.5-0.5,15.6c-2.7,5.2-6.2,7.5-12,8
		c-8.8,0.7-12.2-0.4-17.1-5.5l-4.4-4.6l-1.1,2.9c-2.9,7.5-2.7,8.2,3.1,10.9c6.7,3.1,13.3,3.2,22.1,0.5c13.5-4.2,19.8-17.2,12.8-26.8
		C474.3,194.9,472.8,193,472.6,193z"/>
	<path d="M468.1,196.1c1.3,2.1,1.1,4.6-0.6,6.2c-0.7,0.8-1.7,2.6-2.1,4.1c-0.7,3.1-4.8,6.6-7.6,6.6c-9.2,0-11.7-15.5-3-18.1
		C457.9,193.9,467.3,194.8,468.1,196.1z"/>
	<path d="M383,224c1.6,0,1.6,1.3-0.1,4.8c-1.1,2-1.9,4.7-1.9,6c0,1.4-0.4,2.1-1.1,1.6c-1.4-0.8-0.6-8.8,1.1-10.9
		C381.7,224.7,382.6,224,383,224z"/>
	<path d="M350,235c0.6,0,1,1.8,1,4c0,2.2-0.4,4-1,4c-0.5,0-1-1.8-1-4C349,236.8,349.5,235,350,235z"/>
	<path d="M428.2,236c1.4,0,0.9,7.5-0.6,9.6c-2.2,2.9-2.8,1.2-1.4-4.5C426.8,238.3,427.7,236,428.2,236z"/>
	<path d="M392,238.5c0.7,0.9,1,1.8,0.7,2.2c-0.8,0.8-6.7-1.7-6.7-2.8C386,236.4,390.7,236.9,392,238.5z"/>
	<path d="M416.8,244.2c2.2,2.2,1.3,2.5-3.8,1.5c-2.7-0.5-4.7-1.3-4.4-1.8C409.4,242.6,415.4,242.8,416.8,244.2z"/>
	<path d="M370.3,246.6c4.5,2.4,6.9,2.8,18.7,3.4c12.4,0.7,14.3,1.1,23,4.5c5.2,2.1,12.2,4.1,15.5,4.4l6,0.6l-5.4,3.3
		c-2.9,1.8-7.1,5.3-9.4,7.8c-2.2,2.4-6.7,5.7-10,7.4c-10.4,5.2-23.2,3.6-31-3.8c-3.9-3.7-5.3-6.6-6.8-14.1
		c-0.8-4.4-2.3-7.7-4.6-10.7c-1.8-2.4-3.3-4.6-3.3-4.9C363,243.4,365.3,244.1,370.3,246.6z M381.7,251.7c-10.1-0.4-10.6-0.3-9.1,1.4
		c0.8,0.9,6.4,3.5,12.4,5.8c12.6,4.7,30.9,7.4,35.5,5.3c1.4-0.6,2.5-1.5,2.5-1.9c0-1.1-19.2-8-25.5-9.2
		C394.7,252.6,387.7,251.9,381.7,251.7z M374.2,261.6c2.3,8.6,5.5,12.2,13.8,15.4c4.1,1.6,6.7,2.1,10.3,1.6
		c5.2-0.6,13.4-4.5,16.7-8.1l2.2-2.3l-2.9-0.6c-1.5-0.3-7.7-1.2-13.8-2.1c-6-1-13.9-2.8-17.5-4.2C372.3,257.3,373,257.2,374.2,261.6
		z"/>
	<path d="M449,261.1c-1.1,2-3.7,3.6-4.5,2.7c-0.3-0.2,0.2-1.4,1.1-2.6C447.6,258.3,450.5,258.1,449,261.1z"/>
	<path d="M510.7,227.2c-0.2,0.7-1.5,1.2-3,1c-1.4-0.2-5.4,0.4-8.7,1.2c-3.4,0.9-6.4,1.6-6.8,1.6c-1.1,0,1.2-1.8,4.3-3.4
		C500.2,225.6,511.4,225.4,510.7,227.2z"/>
	<path d="M374.4,518.7c-0.3,1.6-2.2,6.4-4.1,10.8c-4.7,10.9-7.1,18.3-8.6,27.3c-0.7,4.4-1.8,7.7-2.5,8c-3.4,1.1,2.3-22.6,9-37.2
		C373.2,516.5,375.7,512.9,374.4,518.7z"/>
</g>
</svg>
