<?xml version="1.0" encoding="utf-8"?>
<!-- Generator: Adobe Illustrator 21.0.0, SVG Export Plug-In . SVG Version: 6.00 Build 0)  -->
<svg version="1.1"
	 id="svg180" inkscape:version="0.92.2 5c3e80d, 2017-08-06" sodipodi:docname="5.svg" xmlns:cc="http://creativecommons.org/ns#" xmlns:dc="http://purl.org/dc/elements/1.1/" xmlns:inkscape="http://www.inkscape.org/namespaces/inkscape" xmlns:rdf="http://www.w3.org/1999/02/22-rdf-syntax-ns#" xmlns:sodipodi="http://sodipodi.sourceforge.net/DTD/sodipodi-0.dtd" xmlns:svg="http://www.w3.org/2000/svg"
	 xmlns="http://www.w3.org/2000/svg" xmlns:xlink="http://www.w3.org/1999/xlink" x="0px" y="0px" viewBox="0 0 850 850"
	 style="enable-background:new 0 0 850 850;" xml:space="preserve">
<style type="text/css">
	.st0{fill:none;}
	.st1{fill:#FF8C00;}
	.st2{fill:#FFA500;}
	.st3{fill:#D8BFD8;}
	.st4{fill:#CD5C5C;}
	.st5{fill:#191970;}
	.st6{fill:#FFFF00;}
	.st7{fill:#9400D3;}
	.st8{fill:#1E90FF;}
	.st9{fill:#0000CD;}
	.st10{fill:#6495ED;}
	.st11{fill:#00FF7F;}
	.st12{fill:#6A5ACD;}
	.st13{fill:#DA70D6;}
	.st14{fill:#00BFFF;}
	.st15{fill:#FF0000;}
	.st16{fill:#00008B;}
	.st17{fill:#B0E0E6;}
	.st18{fill:#00CED1;stroke:#00FFFF;}
	.st19{fill:#ADD8E6;}
</style>
<sodipodi:namedview  bordercolor="#666666" borderopacity="1" gridtolerance="10" guidetolerance="10" id="namedview182" inkscape:current-layer="svg180" inkscape:cx="634.01937" inkscape:cy="682.5625" inkscape:pageopacity="0" inkscape:pageshadow="2" inkscape:window-height="978" inkscape:window-maximized="1" inkscape:window-width="1920" inkscape:window-x="0" inkscape:window-y="1" inkscape:zoom="0.83294118" objecttolerance="10" pagecolor="#ffffff" showgrid="false">
	</sodipodi:namedview>
<g id="g178" transform="translate(0.000000,0.000000) scale(1.00000,1.00000)">
	<path id="path4" class="st0" d="M0-0.8h183.5h183.4L357.2,9c-5.3,5.4-11.5,11.1-13.7,12.7c-10.3,7.4-14,13-19.7,29.5
		c-5,14.4-7.1,25.1-7.4,39c-0.1,5.3-0.7,11.3-1.3,13.5c-1.7,6-1.3,11.8,1.1,18.7c1.8,5.5,2,6.9,1,11.5c-0.6,2.9-2.5,8.3-4.3,11.9
		c-3.2,6.8-20.1,33-22.5,35c-0.8,0.6-1.1,1.3-0.8,1.6c1.1,1.2-5.6,4.8-8.9,4.8c-5.1,0-9.2-1.7-7.9-3.3c1.6-2.1,2.4-8.7,1.2-10.2
		c-0.8-1-0.6-3.1,1-8.4c1.1-3.9,2.4-7.3,2.9-7.5c1.3-0.9,3.4,2.2,2.7,3.9c-0.8,2.2,1.7,1.9,3.8-0.4c1-1.1,3.7-2.3,5.9-2.6
		c6-1,11.4-4.1,13.1-7.3c2.4-4.8,3.8-13,2.4-15.5c-2.1-3.9-7.1-9.6-9-10.2c-1-0.4-1.8-1.5-1.8-2.5c0-2.2-2.2-2.8-11.3-2.9
		c-6.3-0.2-7.2,0.1-10.5,2.9c-2,1.7-4.2,3.5-4.8,3.9c-1.7,1.3-2.6,18.7-1.2,21.1c1.7,2.7,0.6,3.3-3,1.4c-1.7-0.8-4.4-1.6-5.9-1.7
		c-2.7-0.2-2.8-0.1-2.8,5.3c0,4.7-0.6,6.5-4.5,12.9c-3.9,6.5-4.5,8.4-4.8,14.2c-0.5,8.9,4.5,26.8,8.9,32c3.6,4.2,3.7,7.3,0.4,16.9
		c-2.6,7.8-2.4,9,1.9,9c3.4,0,5.4-3,7.2-10.6c1-4.1,2.1-7.4,2.5-7.4c0.3,0,2.2,0.7,4.1,1.4l3.5,1.5l0.6,11.8
		c0.5,8.3,0.2,14.6-0.8,21.3c-3.1,20-1.2,41.9,4.7,55.4c8.3,18.9,24.8,35.4,46,45.6l7.6,3.7l-10,13.4c-6.4,8.4-11.1,13.8-12.9,14.6
		c-7,2.9-16.1,16.7-23.4,35.4c-3,7.5-11.9,20.5-15.3,22.3c-3.8,1.9-31.6,29.8-36.8,36.9c-6.2,8.4-6.4,10.9-1.8,20.1
		c4.6,9.1,4.9,7.6-6,32.5c-21.2,48.5-34.3,90.4-45.5,145.1c-3.2,15.8-7.6,46.3-8.7,60.3c-0.3,4.8-1,9-1.5,9.3
		c-0.5,0.3-0.9,2.3-0.9,4.5c0,3.2,0.7,4.6,3.5,7.4c3.5,3.3,3.6,3.5,3,9.7c-0.5,5.3-0.3,6.8,1.4,9.6c2.6,4.1,6.2,5.5,12.4,4.9
		c4.5-0.4,4.9-0.2,7.7,3.3c4.1,5.2,9.1,7.4,14.8,6.6c4.1-0.5,4.9-0.3,7.4,2.1c1.5,1.5,2.8,3.4,2.8,4.2c0,4.5,2.3,9.3,5.3,11.1
		c3.8,2.4,12.3,2.7,15.3,0.6c1.8-1.3,2.5-1.1,7.4,2.1c5.3,3.4,5.7,3.5,12.8,2.9c6.9-0.6,7.4-0.4,11.5,2.5c4,2.9,4.6,3.1,11.4,2.6
		c6.1-0.3,7.5-0.1,8.9,1.4c0.9,1,3.6,2.8,6,4c3.6,1.7,5.4,2,9.4,1.4c5-0.7,5.2-0.6,10,3.9c5.5,5.1,9.1,5.8,15.6,3.1
		c3.5-1.4,3.7-1.4,7.3,1.4c7.3,5.7,10,6.2,16.8,3.2c4.1-1.9,4.2-1.9,6,0.1c4.6,5.1,12.9,6.3,19.2,2.7l3.7-2.1l3.7,2.2
		c2,1.2,3.7,2.4,3.7,2.6s-89.3,0.4-198.5,0.4H0v-425V-0.8z"/>
	<path id="path6" class="st0" d="M613.9-0.8H850v425v425H628.8H407.5l4.7-3.1c4.4-2.9,4.8-2.9,7.5-1.6c2.6,1.4,6.6,2.1,10.4,1.8
		c0.8-0.1,3.4-1.7,5.7-3.7l4.2-3.6l4.5,1.8c6.5,2.4,11.8,1.5,16.4-3l3.7-3.7l5.2,1.2c4.6,0.9,5.7,0.8,9.6-1.1
		c2.5-1.1,4.9-2.7,5.5-3.4c0.9-1,2.2-1,7.1,0.3l6.1,1.6l6.4-3.4c5.7-2.9,6.8-3.2,9.6-2.2c5.7,2,10.2,1.4,14.9-2c4.2-3,4.4-3.1,9.9-2
		c5.3,1.1,5.9,1,11.7-1.9c6-2.9,6.1-2.9,10.2-1.4c4.7,1.9,9.1,1.4,14.1-1.7c3.2-1.9,3.3-2.2,2.7-6.2c-0.4-2.3-0.9-5.2-1.2-6.3
		c-0.5-1.9,0-2.3,3.4-2.9c2.4-0.4,5.6-2,8-4.1c4-3.4,4-3.4,7.8-1.8c5.7,2.4,11.5,1.2,16.5-3.5l4-3.9l4.9,1.5
		c6.4,1.9,10.6,0.6,15.2-4.5l3.3-3.7l4.2,1.4c4.8,1.7,10.1,0.6,14.8-3.1c2.5-1.9,2.7-2.6,2.2-6.7c-0.3-2.5-0.9-6-1.3-7.8
		c-0.6-2.8-0.3-3.4,2-4.4c3.3-1.6,3.3-3.2,0.1-23.6C653,686.4,642,645.7,624.2,601c-20.1-50.3-44.7-94.6-77.1-138.8
		c-26.1-35.6-40.9-53.9-63.4-78.4c-8.1-8.8-14.7-16.2-14.7-16.6c0-0.3,5.2-2.8,11.6-5.4l11.6-4.9l2.3,2.4
		c1.2,1.3,12.1,13.2,24.2,26.4c12.1,13.2,23.8,25.7,26.1,27.7c5,4.6,8.8,5.3,20.6,4.2c17.3-1.6,20.9-1.3,26,2.3
		c4.8,3.4,9.3,4.2,11.4,2.1c1.8-1.8,1.5-3.3-1.4-6.7c-3-3.6-2.7-3.8,2.3-1.1c5.1,2.7,8.8,2.5,11.8-0.5c3.8-3.7,3.2-5.8-3.2-10.6
		l-5.7-4.3l2.8-0.7c1.5-0.4,3.4-1.3,4.2-2c1.9-1.5,1.8-5.5-0.2-6.3c-0.9-0.3-7.3-0.6-14.3-0.6c-10.2,0-14.3,0.5-20.7,2.2
		c-4.3,1.3-10.7,2.3-14.1,2.3c-6,0-6.4-0.2-10.2-4c-2.2-2.2-8.5-10.5-14-18.5c-5.5-8-12.2-17.7-14.9-21.5c-2.7-3.9-5.7-8.5-6.8-10.3
		l-1.9-3.3l4.6-8.7c12.9-24.2,15.1-46.3,6.8-69.8l-3.1-8.8L527,238c2.6-12.4,2.4-20.5-1-32.8c-3.5-12.4-14.4-29.3-32.7-50.9
		c-7.9-9.3-16.6-22.1-22.7-33.3c-4.5-8.4-4.6-8.9-3.6-12.9c2.2-8.2,0.1-27.8-3.9-35.7c-1-2-2.1-6.3-2.5-9.5
		c-0.7-6.2-2.9-12.7-5.7-16.7c-0.9-1.4-2.2-4.5-2.9-7c-2-7.7-6.1-13.9-13.8-21.1c-7.3-6.8-16.5-12.1-25.7-14.9
		c-2.2-0.6-10.6-1.4-18.8-1.7c-8.1-0.3-15-1-15.3-1.4C378.1-0.4,481.7-0.8,613.9-0.8z M775.9,838.6c1.8,1.8,3.7,2.6,5.2,2.4
		c3.9-0.5,3.2-2.6-1.7-4.7C772.1,833,770.9,833.8,775.9,838.6z"/>
	<path id="path8" class="st1" d="M410,7.7c13.6,3.6,25.4,11.1,31.5,19.9c2.1,3.1,3.6,5.8,3.4,6c-0.2,0.2-3.3-1.4-6.8-3.5
		c-6.4-3.9-10.6-5-9.9-2.7c0.3,0.7,2.7,2.5,5.4,4.1c10.4,6,19.7,17.7,21.9,27.2l0.7,3l-2.5-2.3c-2-1.9-2.6-2-3.6-0.9
		c-0.9,1.2-0.4,2.4,2.6,6c2.1,2.5,4.7,6.1,5.7,7.9c1.7,2.8,0.8,2.3-5.3-3.2c-14.8-13.2-26.8-21.1-36.7-24c-4.1-1.2-4.1-1.3-2.8-3.9
		c0.8-1.4,1.4-3.4,1.4-4.4c0-3.1-3.1-7.5-6.7-9.4c-2.8-1.5-3.3-2.2-2.8-4.2c0.8-3-1.5-6.5-5.4-8.1c-2.6-1.1-3.5-1-5.6,0.4
		c-1.4,0.9-2.8,2.9-3.1,4.4c-0.5,2.5-0.9,2.7-4.3,2.4l-3.7-0.4l0.2-8.1c0.2-4.5,0.3-8.4,0.4-8.6C384.1,4.3,404.2,6.2,410,7.7z"/>
	<path id="path10" class="st1" d="M358.3,14.2c0.4,0,0.7,1.7,0.7,3.7c0,2.1,0.7,5.1,1.5,6.7c1.8,3.4,1.9,4.4,0.3,2.8
		c-1.6-1.6-4.3-1.5-7.8,0.3c-2.7,1.4-3,1.4-4-0.4c-1.4-2.7-0.3-5,4.4-9.3C355.7,15.9,357.8,14.2,358.3,14.2z"/>
	<path id="path12" class="st2" d="M384.5,29l2.4,0.4c3,0.4,4.7,2.9,3.6,5.4c-0.6,1.5-0.8,1.6-1.2,0.4c-0.3-0.8-1.5-2.6-2.7-3.8
		L384.5,29z"/>
	<path id="path14" class="st2" d="M366.6,34c2,2.9,1,5.8-2.8,7.8l-3.1,1.6l2.1-2.7c1.2-1.5,2.2-4.2,2.2-5.9
		C365,31.8,365,31.8,366.6,34z"/>
	<path id="path16" class="st1" d="M379.2,34.7c1.1,1.5,3,3.1,4.2,3.5c2.1,0.9,2.1,0.9-0.2,0.9c-1.3,0.1-3.6-0.6-5.3-1.4
		c-2.5-1.4-2.8-1.9-1.9-3.6C377.1,32.1,377.2,32.2,379.2,34.7z"/>
	<path id="path18" class="st1" d="M338.4,34.8c0.7,1.9-1,4.4-3,4.4c-0.8,0-1.3,0.3-1.2,0.7c0.1,0.5-0.2,2.1-0.7,3.6
		c-0.5,2-0.2,4,1,6.8l1.8,4l-5.8,5.9c-3.3,3.3-6.2,6-6.6,6c-1.8,0,4.2-15.9,6.4-16.8c0.4-0.2,0.5-0.7,0.2-1.1
		c-0.7-1.3,1.5-8.4,3.8-11.8C336.8,32.8,337.5,32.5,338.4,34.8z"/>
	<path id="path20" class="st2" d="M375.4,40.7c2.4,1.8,2.1,2.1-2.6,2.8c-4.2,0.6-4.6,0.2-2.1-2.5C372.6,38.9,372.9,38.8,375.4,40.7z
		"/>
	<path id="path22" class="st1" d="M390.8,46.4c0.8,0.8,1.8,0.9,3.6,0c1.9-0.8,4.5-0.7,11.6,0.8c9.1,1.9,23.6,7.8,21.3,8.7
		c-3.1,1.1-0.6,3.6,8.5,8.2c17.4,9,24.6,16.2,26.7,26.9c0.7,3.1,1.1,5.8,1,6c-0.1,0.1-2.2-0.9-4.6-2.2s-9.1-3.8-14.9-5.6
		c-17.9-5.4-27.2-9-34.8-13.7c-7.7-4.7-9.6-7-8.1-9.4c3-4.8-2-3.6-5.6,1.4c-4.6,6.3-10.7,9.2-30.2,14.3
		c-13.6,3.6-25.4,11.8-29.6,20.6c-5.6,11.8-4.3,22.5,5,41c7.3,14.7,8.2,18.1,5.9,22.6c-2.2,4.2-3.7,5-3,1.5c0.8-4.1-1.7-10.1-7.9-19
		c-13.2-18.9-16.7-26.7-16.7-37.4c0-7.7,3-15.5,8.9-23.2c4.6-6,5.4-8.7,2.6-8.7c-0.7,0-3.2,2.5-5.5,5.5c-2.3,3-4.5,5.5-4.8,5.5
		c-1.4,0,1.3-11.2,4-16.3c7.4-13.8,26.7-24.7,43.8-24.7c7,0,9.7,1.5,4.3,2.3c-7.2,1.2-23,10.3-21.1,12.2c0.4,0.4,4-0.8,8-2.8
		c11.1-5.3,14.4-6.2,24.8-6.1c7.1,0.1,10.8,0.6,14.7,2.1c4.8,1.9,6.3,2,6.3,0.3c0-1-12-6.3-19.3-8.6c-4.4-1.4-5.4-2-4-2.5
		C384.6,44.9,389.5,45.1,390.8,46.4z"/>
	<path id="path24" class="st3" d="M397.3,73.3c0.5-0.1,2.7,1.4,5,3.3c2.3,1.8,6.4,4.5,9.1,5.8l4.9,2.5l-5.2,0.7
		c-4.2,0.6-5.9,1.4-9.6,5c-4,3.8-5.9,7.6-3.7,7.6c1.5,0,3.3,12.7,2.2,15.6c-1.5,3.7-0.3,4.5,7.3,5.1c5.5,0.5,7.3,0.2,11.9-1.9
		c12.1-5.6,13-15.3,2-20.2c-2.2-1-4.3-2.7-4.6-3.8c-0.3-1.4-1-1.9-2.1-1.4c-0.9,0.3-2.5,0.6-3.6,0.6s-1.9,0.7-1.9,1.7
		c0,1.5-0.2,1.6-1,0.3c-0.5-0.8-1-1.7-1-2c0-1.3,6-4,8.8-4c1.7,0,3.2-0.5,3.4-1.1c0.3-0.8,2.7-0.4,7.7,1.2l7.3,2.3l-0.7,11.3
		c-0.8,11.7,0.4,22.2,3.1,27.5c0.8,1.5,1.4,3.4,1.4,4.2c0,2.2-9.9,12.5-19,19.7c-19.8,15.7-24.8,16.2-45.3,4.5
		c-12.5-7-19.4-12.6-20.3-16.4c-0.4-1.5-1.3-3.5-2.2-4.4c-1.3-1.6-4.1-11.4-4.2-14.7c0-0.8,0.8-0.3,2,1.1c3,3.8,7.2,5.1,14.5,4.6
		c4.4-0.4,7.4-1.3,9.7-2.9c4.7-3.3,5-4.1,2.4-6.9c-1.4-1.5-2.3-4-2.5-6.5c-0.2-2.2-0.7-4.8-1.2-5.7c-0.5-0.9-0.9-2.6-0.9-3.6
		c0-2.7-7.3-6.2-12.9-6.2c-4.9,0-11.1,2.6-11.1,4.6c0,1.6,2.6,1.9,3.5,0.4c0.8-1.3,6.6-1.3,10,0c2.4,0.9,2.5,1,0.8,2.8
		c-1.6,1.6-2,1.7-3.4,0.5c-1.5-1.2-1.9-1.2-3.2,0.7c-0.8,1.1-1.8,2-2.3,1.9c-2.6-0.4-3.6,0.2-3.1,2.1c0.3,1.1-0.2,3.9-1.1,6.2
		l-1.6,4.2l-0.8-3c-0.4-1.6-1.5-5.7-2.5-9.1c-1.5-5.5-1.6-6.5-0.3-8.9c2.2-4.1,9.4-8.1,20.5-11.5c14.9-4.4,23.5-7.7,28.5-10.9
		C394.5,74.6,396.9,73.3,397.3,73.3z M377,106.2c0,0.8,0.9,3.9,2,6.8c2.4,6.3,2.5,10.1,0.4,17.1c-1.5,5.2-1.5,5.4,0.7,7.7
		c1.6,1.7,3.3,2.4,5.8,2.4l3.6-0.1l-3.4-2.9c-3.3-2.8-3.4-3-2.3-6.8c1.5-5,1.5-10.4,0.1-15.3C382.6,110.9,377.1,103.7,377,106.2z
		 M408,140c-1.9,0.9-7.3,1.9-12,2.2c-5.7,0.4-10.1,1.4-13.4,2.9c-4.3,2-5.2,2.1-7.5,1c-1.4-0.7-2.9-1.5-3.3-1.7
		c-0.5-0.2-0.8,0.3-0.8,1c0,0.8,1.8,2.5,4.1,3.8c2.2,1.4,5.3,3.5,6.9,4.8c5.2,4.1,8.4,4.7,13.5,2.2c3.9-1.9,17.5-15.4,17.5-17.4
		C413,137.9,411.9,138.2,408,140z"/>
	<path id="path26" class="st4" d="M395.6,151.8c-2.2,1.6-6.4,1.8-8.5,0.5c-1-0.6,0.3-1.2,4-1.8C397.3,149.4,398.3,149.8,395.6,151.8
		z"/>
	<path id="path28" class="st2" d="M445.8,94.3c2.6,1,2.6,0.7,0.6,10.5c-2.8,13.5-0.6,23.9,7.1,34.5c6.4,8.7,8.1,16.6,5,23.4
		c-1.3,3-1.3,3-1.4-2.5c-0.2-6.5-2.6-12.4-7.9-18.9c-8.6-10.5-11.2-18-11.2-32.7c0-5.6,0.3-11.6,0.6-13.3
		C439.3,92,439.5,92,445.8,94.3z"/>
	<path id="path30" class="st5" d="M403.1,95.2c1,0,1.2,1.4,0.3,2.3c-1,0.9-2.5-0.3-1.9-1.4C401.9,95.6,402.5,95.2,403.1,95.2z"/>
	<path id="path32" class="st1" d="M453.2,97.2c0.5,0,2.1,0.6,3.6,1.4c2.5,1.3,2.9,2.3,4.1,9.3c2.2,13.7,6.7,21.2,31.8,52.5
		c25.2,31.6,30.3,41.3,31.1,60.3c0.2,6.4-0.1,13.4-0.7,16.6c-1.6,7.9-6.1,16.7-11.4,22.7l-4.6,5.2l-1.5-2.3
		c-3.4-5.1-15-32.6-16.2-38.3c-2-9.7-5.1-15.9-10.3-20.5c-2.5-2.2-5.9-5.3-7.6-6.9c-5.6-5.2-8.6-6.1-25.2-8
		c-12-1.3-15.7-3.1-18.6-8.9c-1.8-3.7-2.2-6.1-2.1-12.6c0.3-12.8,1.3-15.2,9.3-21.8c3.8-3.1,7.3-5.7,7.8-5.7c1.5,0,6.3,6.8,8.3,12
		c2.3,5.9,2.6,14.7,0.6,20.3c-1.9,5.1-0.2,5.7,4.1,1.6c4-3.9,6.6-8.5,8.3-14.8c1.6-6.2,0-11.9-6.2-21.3c-2.7-4.3-5.6-9.4-6.4-11.5
		c-1.6-4.7-1.8-16.1-0.3-23.6C451.8,99.8,452.7,97.2,453.2,97.2z"/>
	<path id="path34" d="M416,101.4c1.4,0,1.9,0.2,1.3,0.5c-0.7,0.2-1.9,0.2-2.5,0C414.1,101.6,414.6,101.4,416,101.4z"/>
	<path id="path36" class="st5" d="M367.1,103c1.3,0.6,1.4,0.9,0.5,1.8c-1,0.9-1.6,0.7-2.4-0.7C363.9,102.1,364.4,101.9,367.1,103z"
		/>
	<path id="path38" class="st5" d="M420.3,103.1c0.9,0.7,1.6,2.3,1.6,3.5c-0.1,2-0.2,2-0.6,0.1c-0.3-1.1-1-2.7-1.7-3.5
		C418.6,101.9,418.7,101.9,420.3,103.1z"/>
	<path id="path40" class="st5" d="M412.6,105.3c0.4,0.7-0.1,1.6-1,2.1c-1.5,0.8-1.5,1.1,0,3.3c0.9,1.4,1.4,2.5,1,2.5
		c-1.4,0-3.7-5.1-3.1-7C410.2,104,411.5,103.6,412.6,105.3z"/>
	<path id="path42" class="st1" d="M338.9,108.8c1.2,1.3,3.2,9,4.1,15.9c1.5,11.3,6,20.7,12.5,26.2c2.5,2.1,9.6,6.7,15.8,10.3
		l11.2,6.6l-0.4,3.9c-0.3,4.3-4.7,10.3-8.5,11.8c-1.2,0.5-7.3,1.5-13.6,2.3c-17.2,2.1-26.2,5.7-29.8,11.8c-1.1,1.9-3.6,4.5-5.6,5.8
		c-4.2,2.7-6.6,6.6-6.6,10.5c0,1.6-0.4,3.3-0.8,3.8c-0.5,0.6-1.5,4.8-2.2,9.4c-0.7,4.6-1.9,9.5-2.6,10.9l-1.3,2.5l-1.4-3.4
		c-5.4-12.7-6.5-15.8-7.2-19.4c-1-5.8-7.1-18.5-10.6-22.1c-3.6-3.7-3.9-2.8,6-17.7c3.6-5.5,8.5-12.9,10.9-16.6
		c4.4-6.8,12.2-22.3,12.2-24.1c0-3.2,5.1,3.1,13.2,16.4c5.7,9.4,6.2,13.7,2.3,19.3c-1.3,2-2.2,4-2,4.4c0.7,1.1,7.5-0.7,10.4-2.8
		c1.4-1.1,3.7-4.1,5-6.8c2.5-4.8,2.5-4.9,0.8-11.2c-0.9-3.4-4.1-11.3-7.2-17.5c-4.7-9.5-5.7-12.4-6.2-18.4c-0.3-4-0.3-8.4,0.1-9.9
		C337.8,109.2,338.5,108.3,338.9,108.8z"/>
	<path id="path44" class="st5" d="M407.6,111.7c2,2.7,1.7,3.3-1.1,3.1c-2.9-0.1-2.9-0.1-1.4-2.8
		C406.2,109.9,406.3,109.9,407.6,111.7z"/>
	<path id="path46" class="st5" d="M419.1,112.2c-1.3,1.1-3,2-3.9,2c-1.8,0-1.2-0.8,2-2.6C420.7,109.7,421.8,110,419.1,112.2z"/>
	<path id="path48" class="st5" d="M359.2,115c0.9,0.9,0.9,1.5,0,2.4c-1.5,1.5-2.6,0.4-1.8-1.8C357.9,114.3,358.3,114.1,359.2,115z"
		/>
	<path id="path50" d="M354.3,120.3c0.3,1.3,0.1,1.9-0.6,1.6c-0.7-0.2-1.3-1.1-1.5-2C351.7,117.5,353.7,117.8,354.3,120.3z"/>
	<path id="path52" d="M358.4,121.8c0.3,0.8,0.2,1.2-0.4,0.9c-0.6-0.3-1-1-1-1.6C357,119.7,357.7,120,358.4,121.8z"/>
	<path id="path54" class="st5" d="M367.1,122.6c-1.5,1.8-4.5,2.6-6.2,1.5c-1.1-0.7-0.9-0.9,0.7-0.9c1.1,0,2.9-0.6,4-1.4
		C367.9,120.1,368.8,120.6,367.1,122.6z"/>
	<path id="path56" class="st3" d="M420,158.2c0.4,0,1,4.7,1.2,10.5c0.7,11.9,2.4,16.6,7.7,20.2c4.7,3.2,13.5,5.6,21.6,5.9
		c9.9,0.5,12,1.1,10.4,3c-4,4.8-20.6,11.2-39.6,15c-14.4,3-32.4,3.6-42.8,1.5c-14.8-3-20.4-4.6-26.5-7.7
		c-6.8-3.5-14.9-9.8-13.9-10.8c2.1-2.1,14-5,24.7-6c11-1,12.6-1.4,15.8-3.9c5-4,9.4-10.5,9.4-13.8c0-2.6,0.1-2.7,3.3-1.8
		c5.6,1.6,12.2-0.8,22.6-8.2C416.9,159.9,419.6,158.2,420,158.2z M419,196.2c-17.7,0-19.1,0.1-18.8,1.7c0.3,1.6,2,1.8,18.8,1.8
		c16.8,0,18.5-0.2,18.8-1.8C438.1,196.3,436.7,196.2,419,196.2z"/>
	<path id="path58" class="st6" d="M267.8,185.5c0.6,4.5-4.2,34.6-5.4,33.5c-0.3-0.4,3.2-27.5,4.3-32.8
		C267.4,182.8,267.4,182.8,267.8,185.5z"/>
	<path id="path60" class="st3" d="M282.5,192.4c1.4,0.6,2.5,1.9,2.5,2.8c0,1,0.9,2,2,2.3c3.8,1,8.2,9.6,13,25.7
		c1.8,6.1,9.8,23.3,18.4,39.5c0.9,1.6,2.1,5.3,2.7,8.1c1.2,5.4,0.9,7.5-3.1,22.3c-2.2,8.1-2.5,17.1-0.9,24c0.5,2.4,0.7,4.6,0.4,4.9
		c-1.4,1.5-8.8-8-13.5-17.3c-5.6-11.2-5.2-9-11-53c-1.3-9.4-3-17.9-4.1-20.5c-3.4-7.7-9.6-12.6-18-14.4c-3.2-0.7-4-3.2-2.8-8.3
		c0.5-2.1,0.9-6.4,0.9-9.6c0-3.1,0.2-5.7,0.5-5.7s2.3,1.2,4.5,2.6c3.7,2.5,7,2.7,7,0.5c0-0.6-0.9-1.5-2-2.1c-1.1-0.6-2-1.5-2-2
		C277,190.9,279.4,190.9,282.5,192.4z M270.5,209.2c0,0.9,1.1,1.6,3,1.8c6.1,0.5,7.8,1.4,13.1,6.4c3.9,3.7,5.4,4.6,5.4,3.3
		c0-2.5-3.7-8.2-6.8-10.3C279.5,206.4,270.5,205.7,270.5,209.2z"/>
	<path id="path62" class="st3" d="M258,200.4c0.4,2,1.2,4.4,1.9,5.2c0.8,0.9,1,2.4,0.6,3.8c-0.8,2.2-0.8,2.2-3.1-0.7
		c-2.6-3.3-3-6.5-1.2-9.8C257.3,196.8,257.4,196.9,258,200.4z"/>
	<path id="path64" class="st7" d="M468.5,199.9c1.6,4.3-15.7,14.3-33,19.1c-26.9,7.6-51.9,7.7-74.2,0.4
		c-17.3-5.7-33.1-16.7-28.3-19.7c0.5-0.3,3.4,1.5,6.5,4c9.7,7.9,21.8,12.7,35.7,14.2c9.1,1,36.5,1,43.6,0.1
		c14.6-2,35.9-10.1,44.1-16.8C467.1,197.7,467.6,197.6,468.5,199.9z"/>
	<path id="path66" class="st8" d="M475.2,206.2c0.3,0,2,1.6,3.6,3.6c2.2,2.7,4,7.1,6.7,17.2c2.7,9.7,5.5,17.1,9.7,25.1
		c6.1,12,9.8,22.2,9.8,27.2c0,4.4-3.5,10.4-7.3,12.7c-4.8,2.8-12.1,4.2-26.3,4.9l-12.3,0.6l-3.5-3.5c-4.5-4.5-5.2-8.5-3.8-22.5
		c1.5-14.8-0.4-27.5-4.3-28.9c-2.6-1.1-2.8,0.2-1,6.9c1.2,4.3,1.6,8.8,1.3,13.3c-0.4,6.4-1.2,8.4-11.2,28.4
		c-6.3,12.7-11,23.2-11.3,25.6c-0.3,2.6,0.1,6.1,1.2,9.3c1.9,5.7,4.2,8.4,36.5,42.1c29.6,30.9,28.7,29.8,26.4,31.5
		c-2.7,2-3.1,1.9-7.9-2.3c-4.3-3.8-10-6.2-14.5-6.2c-3.5,0-10,4.1-10.7,6.8c-0.3,1.3-0.3,4.4,0,7c0.6,5.8-0.2,11.2-1.8,11.2
		c-0.6,0-2.2-1.1-3.5-2.5c-2.8-3-16.6-7.5-22.6-7.4c-5.4,0-12.6,3.1-14.1,6c-0.7,1.3-1.3,5.9-1.3,10.1v7.7l-6.2,0.8
		c-3.5,0.4-7.2,0.7-8.3,0.6c-1.1-0.1-7.3-0.5-13.7-0.9l-11.8-0.7l-0.2-4.1c-0.1-2.3-0.3-5.5-0.4-7.1c-0.1-1.7-0.3-5.2-0.3-7.8
		c-0.1-4.8-0.1-4.8-5.3-7.2c-3-1.4-7.2-2.5-9.6-2.5c-4.5,0-13.8,2.6-14.8,4.1c-0.3,0.5-1.5,0.9-2.8,0.9c-1.2,0-3.5,1.3-5.1,3
		c-1.6,1.6-3.2,3-3.5,3c-0.4,0-0.7-1.5-0.8-3.3c-0.1-1.7-0.5-6.6-0.9-10.7c-0.7-6.6-1.1-7.6-3.3-8.7c-1.4-0.7-3.6-1.3-4.9-1.3
		c-3.1,0-2.7-0.8,6.3-12.8c17.6-23.4,26.9-39.7,28.8-50c1.5-8.1,0.3-15.7-4.5-27.8c-6-15.3-8.7-22.4-8.7-23c0-0.3,2.3-0.4,5.2-0.2
		c4.2,0.2,5.3,0,5.6-1.3c0.2-1.3-1.1-1.9-5.6-2.8c-4.6-0.9-6.6-1.9-9.5-4.9c-7.5-7.7-7.7-14-0.8-27.8c2.7-5.5,5.2-11.6,5.5-13.7
		l0.7-3.7l2.9,1.5c6.5,3.3,17.1,6.6,26.5,8.1c5.5,0.9,10.5,2,11,2.4c0.6,0.5,4.1,0.7,7.8,0.5c3.7-0.1,7,0.1,7.3,0.6s1.3,0.5,2.4-0.1
		c1-0.5,3.2-0.7,4.8-0.4c1.7,0.4,3.2,0.1,3.6-0.5c0.5-0.8,1.3-0.8,2.8,0c1.2,0.7,2.3,0.7,2.7,0.2c0.3-0.5,5.6-2,11.6-3.3
		c12.1-2.6,26.2-7.5,32.2-11.3c2.1-1.3,6.3-4.5,9.3-7C472,208.3,474.8,206.2,475.2,206.2z M351,228.2c-0.8,0.5-2.5,0.7-3.6,0.4
		c-2.7-0.7-3-0.1-3.9,5.7c-0.7,4.5-0.6,4.7,2.9,6.8l3.5,2.2l3.5-2.3c4-2.6,4.3-4,2-9.8C353.7,226.9,353.3,226.7,351,228.2z
		 M408.5,238.2c1.4,1.5,1.4,1.8-0.1,3c-1.2,1.1-2,1.1-3.5,0.2c-2.7-1.7-2.5,0.1,0.7,5.6c2.5,4.2,2.7,4.4,6.2,3.7
		c4.7-0.8,5-1.1,5.8-6.1c0.6-4,0.5-4.1-3.9-6.7C407.5,234.2,405,234.4,408.5,238.2z M375.3,237.8c-4.1,1.8-4.4,2.3-3.1,7.1
		c0.9,3.6,1.4,4.2,4.9,5.1c3.7,0.9,4,0.8,6.4-2.3c3.1-4.1,3.1-5.3,0-8.8C380.8,235.9,379.9,235.7,375.3,237.8z M356,242.2
		c-2.4,0-4.6,2.8-3.4,4.4c0.5,0.7,2.1,3.2,3.7,5.5c3.1,4.7,3.7,4.9,6.2,2.1c1.4-1.6,2.1-1.7,3.2-0.8c2.1,1.7,6.2-2.5,4.7-4.9
		c-1.5-2.3-4.6-4.1-5-2.8c-1.3,3.3-2.2,3.9-3.8,2.5c-0.9-0.7-1.4-1.5-1.1-1.8s-0.2-1.4-1.2-2.4C358.4,243,356.9,242.2,356,242.2z
		 M384.9,249.8c-1.6,1.9-0.1,4.7,2.7,5.2c1,0.2,2.9,1.3,4.2,2.5l2.2,2l2.4-2.2c1.4-1.3,2.9-2.1,3.4-1.7c1.2,0.7,5.2-2.2,5.2-3.8
		c0-0.7-1.2-1.9-2.6-2.6c-2-1.1-2.9-1.2-4.4-0.2c-2.4,1.5-6.7,1.6-7.5,0.2C389.6,247.7,386.4,248,384.9,249.8z M431.7,260.5
		c-4,6.9-10.6,12.3-16.3,13.5c-5.9,1.2-13.4,0.2-20-2.7c-2.6-1.2-4.9-1.9-5.2-1.6c-0.9,0.9,3.1,4.6,7.1,6.7
		c14.5,7.3,36-1.9,38.4-16.6C436.5,254.9,434.8,255.2,431.7,260.5z"/>
	<path id="path68" class="st8" d="M325.8,208.2c1.6,0,13.3,8.6,13.8,10.3c0.6,2-2.4,11.2-6.8,20.6c-5.3,11.3-4.7,22.1,1.7,28.1
		c1.6,1.5,3.6,5.8,5.5,11.7c3.6,11.3,3.7,11.7,0.8,10.2c-4.5-2.3-8.5-7.5-9.2-11.8c-0.8-5.4-3.1-9.8-5.3-10.5
		c-2.4-0.8-9-13.1-9.7-18.1c-0.4-2.8,0-5.9,1.4-10c1.1-3.3,2.5-10.5,3.1-16c0.6-5.5,1.7-11,2.5-12.3
		C324.4,209.2,325.4,208.2,325.8,208.2z"/>
	<path id="path70" class="st1" d="M281.4,227.1c2.5,2.4,6,12.1,7.5,21.1c2.6,15.7,2.1,16.6-3.4,5.5c-3.3-6.6-6.5-20.1-6.5-27.4
		C279,225.3,279.7,225.5,281.4,227.1z"/>
	<path id="path72" class="st1" d="M280.1,254.2c0.5,0,0.9,0.4,0.9,0.9s0.6,1.6,1.3,2.3c0.7,0.7,2.9,3.5,4.8,6.3
		c3.1,4.3,3.7,6.1,4.3,12.4c1,9.8,4,21.2,7.7,29.1c1.7,3.6,4.1,9.4,5.3,13c1.2,3.6,3.4,8.4,4.9,10.6c6.8,10.8,24,18.6,26.7,12.1
		c1-2.2,11-39.1,11-40.4c0-0.4,0.4-0.3,0.9,0.2c1.5,1.7,5.1,14.5,5.1,18.4c-0.1,7.7-10.2,30.3-15.9,35.5c-2,1.8-2.3,1.8-6.6,0.2
		c-13.1-5-31-18.8-38.9-29.9c-11.4-16.1-16.8-40.8-13.6-62.3C278.6,258,279.6,254.2,280.1,254.2z"/>
	<path id="path74" class="st1" d="M522,255.2c0.4,0,1.8,2.8,3,6.2c1.7,4.9,2.3,9.4,2.7,19.8c0.5,11.8,0.2,14.7-1.7,22.5
		c-2.3,9.4-7.6,21.8-9.1,21.3c-2.3-0.8-16-17.7-17.8-22l-2-4.9l2.1-1.7c7.5-5.9,9.8-10.7,9.8-20.8c0-5.7,0.2-6.1,6.1-13.2
		C518.4,258.5,521.5,255.2,522,255.2z"/>
	<path id="path76" class="st9" d="M327.4,272.7l0.9,3.2c0.8,2.5,0.6,3.5-0.7,4.9c-1.2,1.1-1.5,2.5-1.1,4.1c0.5,2.1,0.4,2.3-1.4,1.4
		c-2-1.1-1.9-1.2,0.2-7.4L327.4,272.7z"/>
	<path id="path78" class="st1" d="M446.1,284c0.3,0.4,1.1,2.7,1.8,5.2c1.2,4.1,5.3,9.2,9.4,11.5c1.1,0.6,2.4,3.5,3.3,7.5
		c2,8.3,1.4,19.5-1.6,28.3c-1.2,3.7-2,7.3-1.6,8.2c0.3,0.9,2.7,2.6,5.3,3.8c3.9,1.7,6.7,2.2,14.5,2.2c6.3,0,10.1,0.4,10.9,1.2
		c0.7,0.7,1.1,1.5,0.8,1.7c-0.9,0.9-22.3,8.6-23.9,8.6c-2.2,0-29.4-28.4-32.9-34.2c-4.3-7.2-3.7-10.7,5.4-28.7
		C441.9,290.5,445.8,283.7,446.1,284z"/>
	<path id="path80" class="st10" d="M329.2,293.3c0,1.9,0.5,3.9,1,4.6c0.6,0.7-0.4,2-3.1,4c-2.2,1.5-4.1,3.4-4.1,4.1
		c0,2.7,3.1,7.2,5.4,7.8c4.3,1.1,6,0.1,7.6-4.4c1.4-4.1,1.4-4.4-0.4-5.8c-2.6-1.8-1.3-1.8,2.4,0.1c3.5,1.8,3.5,2,1.5,7.7
		c-0.8,2.4-1.9,6.7-2.5,9.6c-1.2,5.5-3.2,6.7-5.5,3.5c-0.9-1.3-1-2.2-0.2-3.4c0.9-1.4,0.7-2.2-0.7-3.8c-2.2-2.5-2.6-2.5-5-0.8
		c-2.4,1.7-1.3,9.2,1.2,8.2c1.5-0.6,3.2,1,3.2,3c0,0.5-1,1.1-2.3,1.1c-1.8,0.1-2.7-0.8-4.2-4c-3.1-6.9-3.4-32.6-0.3-32.6
		c0.6,0,1.7,0.8,2.5,1.7c1.1,1.4,1.3,1.5,1.2,0.3c-0.1-0.8,0.1-2.3,0.6-3.3C328.5,288.5,329.1,289.3,329.2,293.3z"/>
	<path id="path82" class="st9" d="M339,291.9c5.5,3.1,6.9,6,2.3,4.8c-3.1-0.7-6-3-7.4-5.7C332.6,288.6,333.1,288.7,339,291.9z"/>
	<path id="path84" class="st9" d="M493.5,301.1c0,1.9-3.4,2.8-17,4.6c-11,1.4-12.1,1.3-12.7-1.5c-0.2-1.2,2.3-1.8,12.7-3
		C492.2,299.3,493.5,299.3,493.5,301.1z"/>
	<path id="path86" class="st10" d="M496.2,309.3c0.3-0.1,2.2,1.8,4.1,4.1l3.4,4.1l-2.9,4.4c-3,4.4-4.2,5.1-5.3,3.2
		c-0.5-0.7-1.5-0.5-3.1,0.5c-3.1,2.1-3.4,2-3.4-0.9c0-2.5-1-3-7-3.7c-2-0.2-2.9,0.5-4.5,3.4c-2.2,4.2-1.8,5.8,2.7,9.1
		c2.4,1.8,2.5,1.8,6.1-0.3c2-1.2,3.7-2.7,3.7-3.3c0-0.5,0.9-0.2,1.9,0.7c1.6,1.4,2.3,1.5,4.1,0.6c1.6-0.9,2.5-0.9,3.6,0
		c1.1,1,0.7,1.8-2.9,4.6c-5.3,4.3-14.9,9-20.2,9.9l-4,0.7l3.8-3.9c4.3-4.5,4.4-5.3,1.7-7.8c-1.6-1.5-2.2-1.5-3.5-0.5
		c-0.8,0.7-1.5,2.1-1.5,3.2s-0.5,1.6-1,1.3c-0.6-0.4-1.7-0.2-2.4,0.4c-1,0.8-1.7,0.7-2.6-0.4c-0.7-0.8-1.9-1.5-2.7-1.5
		c-1.1,0-1.4-0.7-1-2.3c0.3-1.2,1.3-6.3,2.3-11.3l1.7-9.1l9.9-0.7c6.1-0.4,11.4-1.4,14.1-2.6C493.6,310.2,495.8,309.3,496.2,309.3z"
		/>
	<path id="path88" class="st9" d="M504.7,317.7l2.3,2c4.4,3.9,4.3,5.1-0.2,8.7c-2.5,1.9-3.9,2.6-3.6,1.7c0.4-0.9,0-2.6-0.9-3.8
		c-1.4-2.1-1.4-2.2,1.1-1.5c3.2,0.8,4.6-1.8,2.6-5L504.7,317.7z"/>
	<path id="path90" class="st10" d="M316.6,327.1c3.8,2.9,7.8,6.6,8.8,8.3l1.9,3l-4-2.1c-4.7-2.4-9-6.4-11.7-11.1
		C309.8,322,309.9,322.1,316.6,327.1z"/>
	<path id="path92" class="st9" d="M513.8,331.9c-0.3,1.5-0.6,1.4-1.7-0.6c-1.1-1.9-1.1-2.5,0-3.2C513.6,327.2,514.4,329,513.8,331.9
		z"/>
	<path id="path94" class="st9" d="M330.6,332.4c2.2,2.1,3.2,4.8,1.9,4.8c-0.8,0-5.4-5.3-5.5-6.3C327,329.6,328.1,330.1,330.6,332.4z
		"/>
	<path id="path96" class="st3" d="M508.2,332.3c0.4-0.1,2.7,3.4,5.3,7.7c2.5,4.2,8.6,13.4,13.5,20.2c24.8,34.8,26,36.2,34,37.9
		c5,1.1,6,0.9,16-2.1c4.1-1.2,10.5-2.1,17.5-2.3c10.7-0.4,10.8-0.4,3,0.5c-4.4,0.4-10.5,1.8-13.5,3c-3.5,1.4-6.7,2-8.8,1.6
		c-2.4-0.3-3.5-0.1-3.9,1.1c-0.8,2.1,0.6,2.8,12.2,5.9c5.5,1.5,10.5,3.1,11,3.6c0.6,0.7-0.2,0.7-2.5,0.2c-4.4-1.1-30.2-0.6-31.4,0.6
		c-0.4,0.4,0.4,1.5,2,2.5c2.9,1.6,2.9,1.6-3.2,1.2c-3.3-0.3-7.5-1.2-9.2-2.1c-2.5-1.3-44.8-46.3-58.1-61.8c-3.2-3.8-3.3-4-1.5-5.3
		c1.1-0.8,5.3-3.8,9.4-6.9C504.1,334.8,507.8,332.3,508.2,332.3z"/>
	<path id="path98" class="st9" d="M469,344.8c0.7,0.7-0.1,0.9-2.5,0.6c-1.9-0.2-3.7-0.8-4-1.2C461.8,343.1,467.8,343.6,469,344.8z"
		/>
	<path id="path100" class="st11" d="M314.3,392.2c2,0,2.2,0.6,2.4,6.2c0.1,4.6,0.9,7.6,3.1,11.9c3.6,7,2.8,8.5-3.2,5.8
		c-8.1-3.7-10.9-0.9-3.3,3.3c3.7,2.1,4.3,2.8,4.8,6.7c0.7,5.5-0.6,7-10.4,11.7c-8.4,4-10.3,4.2-13.4,1.2c-1.9-1.8-2.3-3.2-2.3-7.9
		c0-12.1,7.7-29.4,15.8-35.6C310.2,393.7,313.1,392.2,314.3,392.2z"/>
	<path id="path102" class="st12" d="M479.4,401.7c5.3,5.2,7.3,8.7,11.9,22.1c3,8.5,3.4,10.7,2.7,14.4c-1.4,7.8-6.3,9-16.4,4
		c-9.6-4.8-9.8-5-9.4-11.2c0.3-5.2,0.4-5.3,4.6-7.2c4-1.9,5.3-3.8,3.2-5.1c-0.5-0.3-3.1,0.6-5.9,1.9c-4.2,2.2-5.1,2.3-6.1,1.1
		c-0.9-1.1-0.8-2,0.9-4.4c2.6-3.6,5.5-14.4,4.6-17.2c-0.4-1.3-0.2-2.5,0.5-2.9C472,395.9,474.6,397.2,479.4,401.7z"/>
	<path id="path104" class="st13" d="M589.5,398.4l5.1-0.1c4.8-0.1,5.7,0.3,12.8,5.5c4.3,3.1,7.5,5.8,7.3,6c-1,1-6-1.8-10.2-5.7
		c-3.6-3.3-5.5-4.3-9.7-4.9L589.5,398.4z"/>
	<path id="path106" class="st13" d="M587.5,401.1c-0.3,0.6-1.4,1.1-2.3,1.1c-1.5-0.1-1.5-0.2,0.2-1.5
		C587.5,399.1,588.6,399.4,587.5,401.1z"/>
	<path id="path108" class="st13" d="M600.5,406c2.2,1.1,6.2,5.2,5.2,5.2c-0.8,0-11.9-6-13.1-7.1C591.5,403.1,598,404.6,600.5,406z"
		/>
	<path id="path110" class="st11" d="M369,423.5c0,12.8-4.6,24-14,33.9c-10.1,10.6-15.3,6.9-23.6-17l-2.9-8.3l2.3-1.9
		c2.3-1.9,2.4-1.9,8.7,0.5c6.5,2.4,7.5,2.4,7.5-0.5c0-1.2-1.9-2.1-7.5-3.4c-4.1-1-7.5-2.3-7.5-2.9c0-1.3,3-4.7,4.2-4.7
		c0.5,0,2.9-1.7,5.2-3.7c2.3-2,6.5-4.5,9.2-5.4C363.5,405.5,369,409.5,369,423.5z"/>
	<path id="path112" class="st14" d="M503.5,412.3l2,2.6c1.1,1.4,4.9,6.3,8.5,10.7c14.2,17.6,27.9,35.5,33.5,43.6
		c3.2,4.7,6.9,9.9,8.2,11.6c1.3,1.7,2.3,3.4,2.3,3.9c0,0.4,1.5,2.8,3.4,5.4c2.6,3.7,22.3,36.3,26.8,44.5c15.6,28.7,35,73,43.9,100.3
		l3.3,10.3l-3.3,3.4c-6.2,6.4-11.9,8.4-28.1,9.6c-24.5,1.9-34.4,3-37.3,4.2c-1.6,0.6-3.2,0.7-3.7,0.2c-0.4-0.5-3.3-9.5-6.4-19.9
		c-14.2-48.9-30.2-89.3-53.6-135.9c-7.1-14.2-13-26.3-13-26.7c0-2.2,3.1-0.6,4.6,2.3c0.9,1.8,2.4,4.2,3.4,5.3c0.9,1.1,2.9,4,4.4,6.5
		s4.2,6.4,6.1,8.8c1.9,2.4,3.5,5.4,3.5,6.6c0,1.3,0.9,3.5,2,4.9c1.1,1.4,2,3.2,2,4c0,0.9,2,6,4.5,11.5s4.5,11.1,4.5,12.6
		c0,3.6,4.7,10.5,7.7,11.2c1.3,0.4,2.9,0.1,3.7-0.5s2.6-5.8,4.1-11.4c3.2-12,8.5-26.1,12.6-33.4c4-7.3,4-13.4,0-17.1
		c-1.6-1.5-3.8-4.5-4.9-6.7c-2.7-5.4-30.5-31.7-38.8-36.8c-1.6-0.9-4.4-2.8-6.2-4.1c-1.8-1.4-3.7-2.6-4.2-2.8
		c-0.6-0.2-1.5-5.2-2-11.2l-1.1-10.8l3.8-3.4L503.5,412.3z"/>
	<path id="path114" class="st12" d="M433.3,415.2c8.5,2.4,20.7,10,20.7,12.8c0,0.5-2.3,1.4-5.1,2.1c-5.3,1.4-11.5,5.9-10.8,7.8
		c0.3,0.8,1.8,0.4,4.4-0.9c5.4-2.7,9.9-3.7,11.9-2.6c4.8,2.7-2.4,24.7-10,30.7c-3.2,2.6-7.6,2.7-11.1,0.4
		c-6.3-4.2-14.5-21.8-15.9-34.5c-0.8-7,0-11.8,2.7-15.2C422.6,412.7,424.4,412.6,433.3,415.2z"/>
	<path id="path116" class="st13" d="M592.3,414.2c0.9,0,2.9,1.2,4.4,2.6l2.8,2.6l-4-2.3c-2.2-1.2-4.2-2.4-4.4-2.6
		C590.9,414.3,591.4,414.2,592.3,414.2z"/>
	<path id="path118" class="st15" d="M327,426.9c-2.1,4.8-4.5,5.6-5.4,1.8c-0.7-2.6,0.4-5.6,3.2-8.8
		C328.8,415.3,330.3,419.8,327,426.9z"/>
	<path id="path120" class="st15" d="M458.8,423.2c2.7,0,5.3,3.9,5.4,8c0.2,7.9-6,4.9-6.9-3.4C456.8,423.6,456.9,423.2,458.8,423.2z"
		/>
	<path id="path122" class="st16" d="M414,439.7c0,2.2-3.8,2.8-20.8,2.9c-17.6,0.1-23.4-0.7-22.5-2.9
		C371.5,437.5,414,437.5,414,439.7z"/>
	<path id="path124" class="st11" d="M324.3,443.1c0.8,0.8,1.2,6.3,1.1,17.2c-0.1,14.6,0.1,15.9,1.7,15.9c1.5,0,1.9-1.3,2.5-8
		c0.3-4.4,1-8,1.4-8c0.5,0,1.8,1.5,2.9,3.4c1.7,2.8,2.5,7.6,4.6,28.2c1.4,13.7,2.5,28.4,2.5,32.7c0,7.1-0.2,7.8-2.2,8.6
		c-14.9,5.9-27.2,12.3-35.7,18.8c-2.4,1.8-4.6,3.2-4.8,3c-0.2-0.2,1-6,2.6-12.8c1.6-6.8,4.3-18.7,6-26.4
		c5.4-24.1,9.1-40.6,11.5-51.5c1.4-5.8,3-13.1,3.6-16.4C322.9,443.4,323.5,442.3,324.3,443.1z"/>
	<path id="path126" class="st11" d="M289.8,444.2c1.2,0,2.2,0.1,2.2,0.3c0,0.2-3,2.7-6.6,5.6c-6,4.9-7.3,7-4.8,7.8
		c0.6,0.2,3.9-1.9,7.3-4.6c4.9-3.9,7.6-5.3,12.9-6.5c3.6-0.8,6.8-1.3,7.1-1.1c0.2,0.3-2.3,3.3-5.5,6.8c-18.9,20.3-38,51.2-46.5,75.5
		c-1.2,3.4-2.4,6-2.7,5.8c-0.2-0.3-1.7-4.4-3.3-9.3c-1.6-4.8-5.3-13.6-8.1-19.5l-5.1-10.6l2.6-4.4c6.4-10.8,19.9-24,42.2-41.1
		C284.8,446.4,288.5,444.3,289.8,444.2z"/>
	<path id="path128" class="st12" d="M462.5,448.2c0.2,0,1.3,4.4,2.4,9.7c1.2,5.4,3.5,15.4,5.1,22.3c3,13.3,7.4,33.1,11.6,52
		c1.4,6.3,3.4,15,4.4,19.2c1,4.3,1.5,7.8,1.1,7.8c-0.3,0-3.4-1.9-6.7-4.3c-3.4-2.4-12.4-7.1-20-10.6c-7.7-3.5-14.2-6.7-14.7-7.1
		c-0.9-0.8,4-65.7,5.2-67.9c0.5-0.9,1.9-2.5,3-3.5l2.1-1.9v5.5c0,8.1,0.9,11.8,3,11.8c1.6,0,1.7-1.1,1.2-13.5
		c-0.3-9.5-0.1-14.3,0.8-16.5C461.7,449.6,462.4,448.2,462.5,448.2z"/>
	<path id="path130" class="st14" d="M366.2,449.3l25.6,0.5l25.5,0.4l2.9,5.2c3.6,6.6,7.3,10.5,15.2,15.8l6.2,4.2l-0.7,5.7
		c-0.7,5.4-2.5,30.8-3.4,49.8c-0.5,9.8,0.4,12.3,4.4,12.3c1,0,2.4,0.7,3.1,1.4c0.6,0.8,2.8,2,4.8,2.7c6.8,2.2,14.6,6.7,24.2,13.8
		c13.4,10,17.1,11.8,20.6,10.3c2.6-1.3,2.7-1.4,2.1-8c-0.3-3.7-1.7-11.2-3.2-16.7c-1.4-5.5-2.7-11-2.9-12.2c-0.3-1.2-1.6-6.3-3-11.5
		c-1.4-5.1-3.5-14.3-4.7-20.3c-1.1-6.1-3.1-14.2-4.3-18.1c-2-6.3-2.1-7.3-0.8-9.2c1.8-2.7,3.4-2.8,4.7-0.3
		c17.8,33.3,39,80,51.2,112.1c9,24.1,22,65.2,25.4,80.8c1,4.9,1,5.5-1,7.6c-1.2,1.2-5.4,3.9-9.4,5.9c-11.5,5.7-25.8,6.3-64.1,2.8
		c-9-0.8-13.3-0.7-25.5,0.9c-12.5,1.6-16.2,2.5-25.8,6.4c-12.8,5.1-16.3,6.2-27.6,8.1c-4.5,0.8-10.7,2-13.7,2.6
		c-10.3,2.1-24.9,0.1-42-5.8c-10.6-3.6-14.1-5.1-15.3-6.5c-2.1-2.6-13.9-6.5-22.2-7.4c-4.4-0.4-17.7-0.8-29.5-0.9
		c-17.2-0.1-22.3-0.4-25.5-1.7c-2.2-0.9-6.6-2.6-9.7-3.8s-6.8-3.4-8.2-4.9l-2.5-2.6l1.9-8c1.1-4.4,4.6-19,7.9-32.6
		c8.7-36,14.4-54.9,24.7-82.4c1.2-3.3,2.9-7.8,3.7-10c7.8-21.6,30.8-70.5,33.1-70.5c2.6,0,2.6,1.5,0.2,10.1
		c-2.1,7.4-4.4,17.4-7.4,31.9c-0.5,2.5-1.8,7.9-3,12c-3.3,12-6.3,25.3-6.2,27.8c0,1.2-0.9,5-2.1,8.4c-2.3,7-2,9.9,1.5,11.8
		c2.2,1.1,3,1,7-1.4c2.5-1.5,8-5.3,12.3-8.5c4.3-3.2,14.2-9.1,22-13c7.8-4,14.7-7.8,15.3-8.6c1.3-1.6-0.1-25.1-3.5-59.1l-0.7-7
		l4.5-1.8c5.3-2,14.7-10.7,16.6-15.4L366.2,449.3z"/>
	<path id="path132" class="st12" d="M499.6,450.7c10.7,4.5,42.1,34.3,47.9,45.5c1.4,2.7,1.2,3.3-3.5,13.2
		c-2.7,5.7-6.5,15.1-8.4,20.8c-3,9.5-3.4,10.2-4.1,7.5c-1.1-4.3-8.1-21.7-11.1-27.8c-8-15.9-24.6-39.3-37.7-53.4l-6.1-6.5l4,0.7
		c8.4,1.5,11.5,2.7,16.6,6.7c2.9,2.2,5.8,4.5,6.4,4.9c0.6,0.5,1.8,0.3,2.7-0.4c1.5-1.1,1-1.8-4.7-6.2c-3.6-2.8-6.5-5.3-6.6-5.8
		C495,448.9,495.6,449,499.6,450.7z"/>
	<path id="path134" class="st14" d="M299.7,470.4c-0.3,0.7-5,11-10.4,22.8c-11.7,25.3-18.8,42.1-23.3,54.5c-1.8,4.9-4.1,11.2-5.1,14
		c-1,2.7-3.4,9.9-5.2,16c-1.9,6-4.9,15.5-6.6,21c-1.7,5.5-3.1,10.6-3.1,11.2c0,0.7-1.3,6.1-2.9,12c-2.8,10.6-7.3,30.1-8.7,37.6
		c-0.9,5.1-3.3,6-12.7,4.7c-8.9-1.3-12.4-2.4-20.8-6.6c-9.4-4.7-9.4-4.7-6.9-14.6c6.7-26.1,20.7-68.8,27.5-84.1
		c0.8-1.7,3.9-9.1,6.9-16.2c7.4-17.7,10.6-24.8,11.1-24.4c1.4,1.5,6.5,17,6.5,20c0,8.7,4.2,13,9.4,9.5c2.3-1.5,5.8-9.1,7.1-15.3
		c0.3-1.5,1.5-4.6,2.5-6.8c1.1-2.2,3.7-7.8,6-12.5c5.6-11.9,11-21.9,14.1-26c1.5-1.9,3.4-5.1,4.4-7c0.9-1.9,3.3-5.2,5.3-7.3
		C298.4,469.2,300.7,468,299.7,470.4z"/>
	<path id="path136" class="st17" d="M638,654.7c3,1.9-0.9,6.2-9,9.9c-6.5,3-14.7,4.2-36,5.5c-8.5,0.6-17.7,1.7-20.5,2.5
		c-6.3,2-7.5,2-7.5,0.1c0-3.4,9.8-5.3,33.5-6.5c13.6-0.7,19.6-1.5,23.9-3c6.1-2.1,14.6-6.9,14.6-8.3
		C637,654.4,637.5,654.4,638,654.7z"/>
	<path id="path138" class="st17" d="M189.8,659.9l3.2,2.3c5.9,4.2,17.9,8,28.7,9.3c12.2,1.3,13.5,3.3,2,3
		c-9.7-0.2-18.4-2.4-26.7-6.6c-4.8-2.5-6.6-4-6.8-5.7L189.8,659.9z"/>
	<path id="path140" class="st18" d="M641.5,666.4l3.1,11.7c3.1,11.7,8.1,34,9,40.2c0.7,4.7,4.3,25.9,4.9,28.7c0.4,1.7,0,2.5-2,3.2
		c-1.4,0.5-2.5,1.6-2.5,2.4c0,1.8-3.7,2.5-6.7,1.3c-2.9-1.2-5.3-0.2-5.3,2.1c0,2.6,2.5,4.5,4.8,3.8c1.1-0.4,2.4,0,3.1,0.8
		c1,1.2,0.6,1.6-2.1,2.5c-13.6,4.4-33,2.5-47-4.5c-3.6-1.9-3.5-1.9-5.9,2.7c-1.9,3.8-2.2,4-3.6,2.6c-1.4-1.4-1.4-1.7,0.1-3.2
		c2.1-2.1,2-2.8-0.2-4.9c-1.8-1.5-2-1.5-3.7,0.5c-1.4,1.5-1.7,2.4-0.9,3.6c1.4,2.2-1.5,5.2-4.9,5c-2.3-0.2-2.5-0.6-3.1-7.7
		c-1.3-16.6-3.9-36.3-6.7-50.5c-1.6-8.3-3-17-3.1-19.4l-0.3-4.5l7-2.2c6-2,8.7-2.2,18.5-1.9c19.3,0.6,36.5-3.1,44-9.4L641.5,666.4z
		 M594,741c0,2.3-1.9,4.2-4.2,4.2c-1.7,0-1.7,0.3,0.4,4c1.7,3,2.9,4,4.9,4c3.7,0,5.9-2,6.5-6.1c0.6-3.3,0.3-3.8-2.9-5.8
		C594.5,738.7,594,738.7,594,741z M629.2,745.2c-3.5,2.1-3.5,2.4-1.1,8.7c0.7,1.9,1.6,2.3,5.2,2.3c4.2,0,4.4-0.1,5.7-4.1
		c1.3-3.9,1.3-4.1-1.6-6.4C633.8,742.7,633.3,742.7,629.2,745.2z M607.5,750.2c-1.1,0-3.5,3.4-3.5,5c0,1.4,3.6,3.1,5.4,2.4
		c1.9-0.7,2.1-4.5,0.4-6.2C609.1,750.7,608.1,750.2,607.5,750.2z M617,755.7c-1.2,2.2-1.2,2.8,0.3,4.3c3.1,3.1,7.5-1.9,4.7-5.3
		C620.2,752.5,618.5,752.9,617,755.7z"/>
	<path id="path142" class="st18" d="M190.9,673.1c3.5,2.5,12.9,6.1,15.9,6.1c1.3,0,3.7,0.7,5.4,1.6c1.9,1,5.9,1.7,10.1,1.8l6.9,0.1
		l-0.6,9c-0.4,4.9-1.5,14.8-2.6,22c-1,7.1-2.6,19.8-3.6,28.2c-1.2,10.8-2,15-2.9,14.7c-0.6-0.3-1.8,0.2-2.5,1
		c-1.3,1.6-5.5,1.3-7.4-0.5c-1.5-1.4-3.8-1.1-5.8,0.8c-1.7,1.5-1.7,1.7-0.2,3.5c1,1,2.4,1.8,3.3,1.8s2.2,0.9,2.9,2
		c1.6,2.5,3.8,2.5,5.9,0c2-2.3,4.3-2.6,4.3-0.5c0,2.5-3.6,3.5-12.7,3.5c-13.6,0-28.6-4.9-31.4-10.2c-1.1-2.1-1.1-2.2,0.5-0.9
		c1.3,1.1,2.2,1.2,4.2,0.2c1.4-0.6,2.9-0.9,3.4-0.6c1.3,0.8,6-1.6,6-3.1c0-0.7-1-2-2.2-2.8c-2-1.4-2.4-1.4-4.3,0.3
		c-1.6,1.6-2.3,1.7-3.5,0.8c-2.7-2.1-4.2-8.2-3.1-12.4c0.5-2.1,1.3-6.7,1.6-10.3c0.4-3.6,1.5-11.5,2.6-17.5c1-6.1,2.8-17.2,3.8-24.8
		c1.1-7.6,2.3-14.2,2.6-14.8C187.9,671.6,189.3,672,190.9,673.1z M199.1,742.3c-0.3,0.1-2.3,0.8-4.4,1.7c-3.9,1.5-3.9,1.5-3.2,6.1
		c0.8,5.4,1,5.6,5.2,6.4c2.8,0.6,3.5,0.2,6.3-3.3l3.1-3.9l-3.2-3.6C201.1,743.8,199.4,742.2,199.1,742.3z"/>
	<path id="path144" class="st16" d="M241.8,681.9c12.5,6.2,14.4,6.5,43.7,7.3c15.1,0.5,28.8,1.3,31,2c2.2,0.6,9.2,3.6,15.5,6.5
		c19.5,9,33.3,12.5,50,12.5c14.8,0,27.7-2.8,58.2-12.6c22.7-7.2,24.9-7.3,66.1-2.9c3.1,0.4,10.6,0.6,16.5,0.6
		c11.9,0,16.8-1.2,32-8.2c4.5-2.1,8.2-3.4,8.2-3c0,1.6-7.9,8-12.7,10.4c-8.2,4.1-14.6,5.2-29.8,4.9c-7.7-0.1-15.1-0.4-16.5-0.7
		c-6.4-1.3-39.8-1.7-46.5-0.6c-7.3,1.3-27.8,6.7-30.7,8.2c-2.5,1.4-21.4,6-30.3,7.5c-18.4,3-38.7-0.3-59.6-9.7
		c-16.7-7.5-18.9-7.9-50.9-9.4c-19.9-0.9-29.8-1.7-32.7-2.8c-7-2.4-18.3-9.6-18.3-11.6C235,678.8,235.9,679,241.8,681.9z"/>
	<path id="path146" class="st18" d="M234,690.2c0.4,0,1.3,0.7,2.1,1.6c1.7,2.1,5,3.7,14,6.8c9,3.1,30.4,4.9,49.1,4.1
		c14.1-0.6,18.9,0.6,37.8,9.5c14.8,6.9,22,8.9,35.5,9.9c16.7,1.2,36.6-1.5,50.5-6.7c23.5-8.8,34.9-10.7,59.3-9.9
		c9.7,0.4,23.5,1.2,30.5,1.8c12.1,1.2,13.5,1.1,24.7-1.1c10.6-2.1,12.8-2.9,19.4-7.2c8.7-5.5,8-6,10.5,7.3
		c6.9,37.7,9.7,75.9,5.9,80.1c-1.3,1.5-1.4,2.3-0.5,4.3c1,2.2,0.9,2.7-1.2,4c-2,1.3-17.8,7.5-19.1,7.5c-0.3,0,0.3-0.9,1.2-2
		c1-1.1,2.2-2,2.9-2c0.6,0,1.9-0.9,2.9-2c1.7-1.9,1.7-2.1,0-4c-2.4-2.6-5-2.5-6.9,0.2c-0.9,1.2-1.6,1.9-1.6,1.4s-0.7-0.3-1.5,0.4
		c-1.3,1-1.9,1-3.4-0.4c-3.6-3.3-7.4,0.8-4.6,5c1.7,2.6,2.6,2.9,4.1,1.4c0.7-0.7,1.6-0.4,2.8,0.8c1.6,1.9,1.5,2-3.2,2.6
		c-6.3,0.8-26.2,0.9-27,0.1c-0.9-0.9,2-2.6,3.5-2c0.7,0.2,2.5-0.7,4-2c2.8-2.3,2.8-2.4,0.8-3.9c-2.6-2-4.4-2-6.5-0.1
		c-1.6,1.4-2,1.4-4.8-1c-3.4-2.8-5-3.1-7.6-1.2c-1.6,1.2-1.7,1.6-0.5,3.5c0.8,1.2,2.1,2.2,2.9,2.2c0.8,0,2.1,0.9,2.7,1.9
		c1.2,1.9,1.1,1.9-5.5,0.1c-9.1-2.5-21.2-7.1-21.2-7.9c0-1.6,1.3-1.9,2.9-0.9c1.3,0.8,2.4,0.6,4.4-0.7c3.4-2.2,3.4-2.8,0-5
		c-2.1-1.4-3-1.5-4.5-0.6c-2.2,1.4-3.8,0.7-3.8-1.7c0-0.9-1.2-2.5-2.6-3.5c-2.4-1.8-2.6-1.8-4.5-0.1c-2.4,2.2-2.4,3.9,0,5.6
		c1.2,0.9,1.7,1.9,1.2,2.7c-0.6,0.9-1.7,0.9-5-0.5c-3.5-1.4-4.4-1.4-6-0.3c-1,0.8-5.5,4.2-10,7.6c-9.4,7.2-21.7,14.1-31.3,17.7
		c-5.8,2.2-25.3,7.6-27.4,7.6c-0.4,0,0.5-1.1,2-2.5c1.5-1.4,3.1-2.5,3.5-2.5s1.6-0.8,2.5-1.9c1.6-1.8,1.6-2-1-4
		c-2.7-2.2-4-1.9-6.2,1.1c-1.6,2.2-3.5,2.3-6.7,0.2c-2.2-1.4-2.5-1.4-4.5,0.6c-2.1,2.1-2.1,2.2-0.4,4.1c1,1.1,2.6,1.8,3.6,1.6
		c2-0.6,5.5,2.8,3.9,3.7c-1.4,0.9-26.8,1.4-30.9,0.7c-3.1-0.6-3.2-0.7-1.7-2.8c1-1.5,2.1-1.9,3.6-1.6c1.5,0.4,2.7,0,3.5-1.2
		c1.1-1.5,1.1-2.2-0.3-4.6c-2.1-3.6-3.8-3.7-5.6-0.3c-0.9,1.7-1.7,2.3-2.1,1.6c-0.4-0.6-1.4-0.8-2.3-0.5c-1,0.4-1.4,0.2-1-0.4
		c0.4-0.5-0.4-2-1.7-3.2c-2.2-2.1-2.3-2.1-4-0.2c-2.2,2.4-1.7,5.3,1.1,6.5c1.1,0.6,2.8,2.2,3.7,3.7l1.6,2.6l-6.3-1.3
		c-11.3-2.4-24.7-7.1-24.7-8.5c0-0.4,0.6-1.2,1.4-1.8c1.1-0.9,1.8-0.8,3,0.5c1.6,1.5,1.8,1.5,3.6-0.1c2.4-2.1,2.5-3.5,0.6-6.1
		c-1.3-1.6-1.8-1.7-3.6-0.6c-1.7,1-2.5,1-3.6,0.1c-0.7-0.6-1.2-1.5-0.9-1.9c0.7-1.2-3.2-4.2-5.1-3.8c-0.9,0.1-2.2,1.1-2.8,2.1
		c-0.9,1.5-0.7,2.2,1.1,3.6c1.2,1,1.9,2.1,1.6,2.5c-0.3,0.3,0.2,1.5,1.2,2.6c1,1.1,1.3,2,0.8,2c-1.5,0-16.1-10.5-20.5-14.8
		c-3.4-3.2-3.6-3.6-2-4.8c1.4-1,2-1,3.3,0.2c2,1.8,2.8,1.8,5.1-0.3c1.7-1.5,1.8-1.5,1.8,0.4c0,1,1.3,2.9,3,4.1l3,2.3l4-2.3
		c3.6-2.1,4-2.6,3.4-5.3c-1.2-5.6-2.1-6.5-6.9-6.5c-4,0-4.5,0.3-5.1,2.6l-0.6,2.5l-2.5-2.3c-2-1.8-2.7-2-4.2-1.1
		c-1.5,1-2.2,0.8-3.5-0.6c-0.9-1-1.4-2.5-1-3.5c1.4-3.6-4-6.2-6.6-3.1c-1,1.2-0.9,2,0.4,4c0.9,1.3,1.6,3.2,1.6,4.2
		c0,1.3-0.8,1-3.4-1.6l-3.3-3.2l-5.3,3.1c-2.9,1.7-5.4,3-5.5,2.8c-0.6-0.6,2-3.3,4.8-5.1c3.4-2.2,3.4-3,0.1-5.2
		c-2.5-1.6-2.7-1.6-4.8,0.4c-1.2,1.2-2.7,2.1-3.3,2.1c-0.6,0-1.3,0.6-1.6,1.2c-0.3,0.9-1.1,0.4-2.6-1.2l-2.1-2.5l-2,2.4
		c-1.1,1.3-2,2.9-2,3.6c0,1.9,2.6,3.7,4.8,3.3c1-0.2,2.7,0.3,3.6,1.1c1.6,1.3,1.4,1.6-1.6,2.8c-9.2,3.9-31.5,6-28.8,2.8
		c0.7-0.8,2.2-1.5,3.3-1.5c2.4,0,5.7-2.7,5.7-4.6c0-2.6-3.7-3.6-6.9-1.9c-3.8,1.9-7.1,1.9-7.1,0c0-0.8-0.8-1.9-1.9-2.4
		c-1.4-0.8-2.3-0.6-3.6,0.9c-1.5,1.7-1.6,2.4-0.7,4.5c0.6,1.4,1.8,2.5,2.6,2.5c0.7,0,2,0.7,2.7,1.6c1.2,1.5,1,1.6-2.1,0.9
		c-5-1.1-12.6-5.1-13.4-7c-1.2-3.1-0.6-4.5,1.7-4.5c1.3,0,2.8,0.5,3.4,1.1c0.8,0.8,1.8,0,3.7-2.7c1.4-2.1,2.6-4.3,2.6-4.9
		c0-0.6-1.5-2.5-3.3-4.3c-2.4-2.3-3.6-2.9-4.7-2.2c-0.8,0.5-1.9,1-2.4,1c-0.8,0-0.1-18.6,0.8-23.7c0.2-1,1.8-14.1,3.6-29.1
		C231.8,702.5,233.6,690.2,234,690.2z M289.3,765.4c-3.7,2.6-3.9,3.2-1.8,8.2c1.5,3.5,1.8,3.7,5.8,3.4c3.8-0.3,4.4-0.7,6-4.2l1.9-4
		l-3.4-2.8C293.8,762.6,293.3,762.6,289.3,765.4z M469.9,766.2c-0.5,0-4.7,2.9-7.2,5c-0.4,0.4-0.1,2.6,0.9,4.9
		c1.6,4,1.7,4.1,6.3,4.1c4.7,0,4.8-0.1,6.1-4.1c1.4-4.2,1.4-4.2-2-7C472.1,767.5,470.3,766.2,469.9,766.2z M255.5,770.2
		c-1,0-0.5,1.8,1,3c1.4,1.1,1.3,1.4-0.4,2.7c-1.1,0.7-2.5,1.2-3.2,1.1c-2-0.5-2,1.6,0.1,4.9c1.7,2.9,2.5,3.3,6.4,3.3
		c4.3,0,4.4,0,5.5-4.4c0.6-2.5,1.1-4.7,1.1-5s-2.2-1.7-5-3.1C258.3,771.3,255.8,770.2,255.5,770.2z M559.8,780.8
		c-2.8,3.9-2.7,4.5,0.9,9.1c1.6,2,2.2,2.1,6.1,1.1c3.7-0.9,4.2-1.4,4.2-3.8c0-1.6,0.3-3.5,0.6-4.3c0.3-1-0.4-2.1-1.8-3.1
		C564.8,776.6,562.6,776.8,559.8,780.8z M508.3,781.5c-2.4-2.7-3.2-3-5.6-2.3c-4.5,1.4-5.3,2.5-4.9,7.3c0.4,4.1,0.6,4.5,4,5.5
		c3.3,1.1,3.9,0.9,6.4-1.5c1.5-1.5,2.8-3.4,2.8-4.3C511,785.3,509.8,783.2,508.3,781.5z M457.6,784.9c-1.4,2.8-2,3.2-4.4,2.7
		c-3.3-0.7-5.7,1.5-4.7,4.5c0.7,2.4,3.1,3.4,5.4,2.1c1-0.5,2.7-0.7,3.8-0.4c2.2,0.6,3.6-0.8,6.4-6.2c1.7-3.5,1.8-3.9,0.2-5.6
		C461.8,779.2,460.2,779.9,457.6,784.9z M541,788.3l-3.8-3l-3.8-3l-3.5,2.2c-1.8,1.1-3.6,2.2-3.8,2.4c-0.2,0.1,0.2,2.2,0.9,4.7
		c1.1,3.9,1.6,4.4,4.8,4.9c4.3,0.8,4.7,0.5,7.2-4.3L541,788.3z M438.9,785.2c-4.8,0-4.8,0-5.9,4.1c-1.4,5.1-1.1,5.9,3.3,8.3
		c3.5,1.8,3.5,1.8,6.6-0.5c3.4-2.5,3.7-3.9,2-8.8C443.9,785.4,443.5,785.2,438.9,785.2z M350,795.3c-0.3,0-2.1,0.6-4,1.3
		c-3.2,1.2-3.5,1.6-3.8,5.9c-0.3,4.5-0.2,4.8,3.2,6.4c3.6,1.7,3.6,1.7,6.6-1.2c3.6-3.4,3.7-4.5,0.8-9
		C351.5,796.8,350.3,795.3,350,795.3z M410.1,796.2c-0.8,0-3.4,3.2-5.4,6.7c-1,1.7,4.1,7.3,6.6,7.3c1.2,0,3.4-0.6,4.8-1.4
		c2.4-1.2,2.9-1.2,4.7,0.7c1.8,1.7,2.3,1.8,3.7,0.7c1.2-1,1.9-1,2.7-0.2c0.7,0.7,1.9,1.2,2.8,1.2c1.9,0,5.6-3.7,4.7-4.6
		c-0.3-0.4,0.4-1.5,1.6-2.5l2.2-1.8l-2.3-2.3c-2.5-2.6-4.9-1.8-6.7,2c-1.2,2.8-3.1,3.5-5.5,2c-1.5-1-2.3-0.9-3.9,0.6
		c-2.1,1.9-2.1,1.9-2.1-1.8c0-3.3-0.4-3.9-3.5-5.2C412.6,796.9,410.6,796.2,410.1,796.2z M375.3,803.8c-2.9,2.4-3.1,2.8-2.1,5.7
		c1.7,5,2.8,5.8,7.1,5.5c3.7-0.3,4.2-0.7,5.8-4.5l1.7-4.1l-3.7-2.6C379.6,800.6,379.3,800.6,375.3,803.8z"/>
	<path id="path148" d="M659,758c0,0.5-1.1,1.4-2.5,2c-2.7,1.2-2.8,1.2-1.9-1.2C655.2,757.2,659,756.5,659,758z"/>
	<path id="path150" class="st17" d="M600.3,762c2.4,1.8,12.4,5.3,17.2,6c11.1,1.6,27.4,0.5,34.1-2.3c3.3-1.4,3.4-1.3,3.9,1.1
		c0.3,1.3,0.7,3.5,1,4.9c0.5,2.3,0.3,2.5-1.8,2c-1.5-0.4-2.8-0.1-3.7,1.1c-1.3,1.4-1.2,1.9,0.8,3.4c1.8,1.5,1.9,1.9,0.6,2.4
		c-0.9,0.3-2.9,0.6-4.6,0.6h-3l2.2-1.8c2.2-1.8,2.2-1.9,0.5-4.6c-1.7-2.6-1.8-2.6-3.7-0.9c-1.2,1.1-1.8,2.6-1.5,4
		c0.4,2,0.2,2.1-1.2,1.1c-0.9-0.7-1.7-1.3-1.9-1.4c-0.2-0.1,0.2-1.1,1-2.3c1.1-1.7,1-2.3-0.4-3.7c-1.2-1.3-2-1.4-3.7-0.5
		c-2.5,1.4-2.7,3.4-0.6,5.1c1.4,1.2,2.1,5,1,5c-0.3,0-1.7-0.7-3-1.6c-2-1.3-2.8-1.4-4-0.4c-2.1,1.7-1.9,3.6,0.7,5.4
		c2.7,1.9,2.1,2.6-3.2,3.3c-4.1,0.6-4.2,0.5-3-1.6c1.5-2.8,0.6-5.1-1.8-5.1c-2.3,0-4.6,2.5-3.7,4c1,1.6-1.1,1.2-2.5-0.5
		c-1-1.2-0.9-1.6,0.4-2.1c2-0.8,2.1-2.8,0.1-4.4c-1.2-1-2.1-1-4-0.2c-3.1,1.4-3.2,3.6-0.3,5.6c3.2,2.3,1.1,3.9-3,2.4
		c-2.7-1.1-3.4-1-4.9,0.4c-1.3,1.4-1.4,2-0.3,3.2c1.3,1.7,4,2.1,5.6,0.8c0.5-0.4-0.1,0.3-1.4,1.5c-1.7,1.7-3.5,2.3-6.8,2.3h-4.5
		l2.6-2.3l2.7-2.3l-2.1-2.4l-2.1-2.5l-1.9,2.5c-1.3,1.6-1.6,2.9-1,3.5c1.9,1.9,0.8,2.7-1.6,1.1c-3.2-2.1-3.2-2.1-5,1.4
		c-1.9,3.6-6.3,6-10.7,5.9c-3-0.1-3.1-0.2-0.8-0.8c2.4-0.7,2.5-1,2.6-8.9l0.1-8.3l5-3.4c5-3.3,10.8-9.7,13.2-14.3
		C598.7,761.8,599.5,761.4,600.3,762z M587.7,784c-1.5,1.6-1.5,2.1-0.3,3.7c1.3,1.8,1.7,1.8,4,0.6c3.1-1.7,3.3-3.6,0.7-5.1
		C589.6,781.9,589.6,781.9,587.7,784z M582.6,789.1c-2.3,2.5-1.7,5.5,1.2,5.9c2.6,0.4,3.7-1.7,2.8-5.3
		C585.8,786.7,584.9,786.6,582.6,789.1z"/>
	<path id="path152" class="st19" d="M590.4,768.6c-0.5,1.3-8.6,7.6-9.8,7.6c-0.3,0-0.6-0.9-0.6-2.1c0-1.1,0.4-1.8,0.9-1.5
		c0.5,0.3,1.6-0.5,2.5-1.8c1-1.6,2.2-2.3,3.5-1.9c1,0.2,2.2,0,2.5-0.6C590.4,766.7,591,766.9,590.4,768.6z"/>
	<path id="path154" class="st17" d="M182.1,768.2c0.4,0,4.5,0.9,9.1,2c5.5,1.3,11.8,2,18.6,2H220v4.9c0,2.9-0.7,6.2-1.7,8
		c-1.5,2.6-1.6,3.3-0.4,4c0.8,0.5,0.9,1.1,0.3,1.5c-0.6,0.3-2.2-0.5-3.6-1.9c-1.4-1.4-3.1-2.5-3.9-2.5c-1.9,0-3.7,2.1-3.7,4.2
		c0,2-1.5,2.4-2.5,0.7c-0.4-0.5,0.1-1.9,1-2.9c1.3-1.5,1.4-2.3,0.5-3.9c-1.2-2.3-4-2.7-5.8-0.9c-0.9,0.9-1.2,0.9-1.2,0
		c0-0.6,0.9-1.6,2-2.2c2.6-1.4,2.6-4.2,0-5.8c-1.4-0.9-2.6-0.9-3.9-0.3c-2.2,1.2-3.4,3.8-2.1,4.6c1.5,0.9,1.2,2.5-0.5,2.5
		c-0.8,0-1.5-0.8-1.5-1.8c0-0.9-0.7-2.6-1.5-3.6c-1.4-1.9-1.5-1.9-3.6,0c-1.3,1.2-1.9,2.7-1.6,4.1c0.5,2.5,0,2.8-2.3,1.3
		c-1.2-0.8-1.3-1.2-0.2-1.9c2.1-1.3,1.1-5.5-1.4-5.9c-1.7-0.2-2-0.8-1.6-3.2C181,769.5,181.6,768.2,182.1,768.2z"/>
	<path id="path156" d="M657.6,776.2c0.2,0,0.4,0.4,0.4,1c0,0.5-0.5,1-1.1,1c-0.5,0-0.7-0.5-0.4-1
		C656.8,776.6,657.3,776.2,657.6,776.2z"/>
	<path id="path158" class="st17" d="M290.5,788.5l2.6,2.1c1.5,1.2,6.2,5.3,10.5,9.1c13.9,12.4,28.8,20.4,46.1,24.7
		c12.7,3.2,40.2,3.2,55,0c22.8-4.9,44.8-15.2,60.6-28.4l4.7-4l11.3,5c14.3,6.4,27.7,10.1,39.5,10.9c6.5,0.4,9,0.9,8.2,1.7
		c-1.4,1.4-1.2,4.1,0.4,5.6c0.8,0.6,1.2,1.8,0.9,2.6c-0.5,1.3-0.8,1.3-2.3-0.1c-3-2.7-5.5-1.5-5.4,2.6c0.1,2.7-0.3,3.5-1.7,3.6
		c-1.5,0.1-1.7-0.4-1.3-2.7c0.8-3.9-2.5-5.9-5.1-3c-1,1.1-2.3,2-2.8,2c-0.6,0-0.2-0.9,0.8-2c2-2.2,1-4.4-2.6-5.5
		c-4-1.3-6.6,3.8-3.4,6.5c1.2,1,1.3,1.6,0.5,2.4s-1.7,0.4-3.1-1.3l-2-2.5l-2.4,3c-1.9,2.3-2.6,2.7-3.6,1.7c-1.9-1.9-4.6-1.6-6.2,0.8
		c-0.9,1.2-1.8,1.6-2.1,1c-0.4-0.5,0.3-1.5,1.5-2.2l2.2-1.1l-2.6-2.6c-2.3-2.2-2.9-2.4-5.2-1.4c-3,1.4-3.2,3.3-0.5,5.7
		c1.1,1,1.7,2.2,1.4,2.7c-0.4,0.6-0.9,0.6-1.3,0.2c-2-2.8-4-3.5-6-2.2c-1.2,0.7-2.1,1.9-2.1,2.6c0,0.9-0.6,0.9-2.3-0.3
		c-1.3-0.8-2.6-1.2-3-0.9c-0.3,0.3-1.9-0.5-3.7-1.7c-2.4-1.8-3.5-2.1-4.8-1.3c-2.3,1.5-2.6,3.8-0.7,5.8c1,0.9,1.4,2.4,1.1,3.3
		c-0.6,1.4-1,1.3-3.2-0.8l-2.6-2.4l-1.9,2.4c-2.3,2.8-2.3,3.5-0.4,5.4c1.7,1.8,1,2.7-2.3,2.7c-2.1,0-2.3-0.2-1.2-1.5s1-2,0-4.1
		c-1.6-2.9-4.1-2.8-5.5,0.4c-1.1,2.4-2,2.8-3,1.1c-0.4-0.5,0-1.8,0.9-2.8c1.5-1.6,1.4-1.9-0.9-4.1c-2.4-2.3-2.5-2.3-4.5-0.5
		c-2.4,2.2-2.5,3.3-0.3,5.7c1.8,2,1,3.9-0.9,2c-1.8-1.8-4.3-1.5-6.3,0.8c-1.6,1.7-1.9,1.8-4,0.4c-2-1.3-2.4-1.3-3.8,0
		c-0.8,0.9-1.7,2.1-2,2.8c-0.3,1-0.7,1-1.7,0.1c-0.9-0.8-0.9-1.6-0.2-2.9c0.8-1.4,0.6-2.6-0.6-4.6c-1.9-3.3-3.1-3.2-5.2,0.5
		c-1.3,2.3-1.3,2.8,0.4,4.6c2.5,2.8,1.1,4.7-2,2.7c-1.3-0.9-3-1.6-3.9-1.6c-1.9,0-3.7,4.1-2.4,5.4c1.5,1.6,1,2.6-1.1,2.6
		c-1.6,0-2-0.7-2-3s-0.6-3.3-2.6-4.2c-2.2-1.1-2.8-1-4,0.7c-2,2.6-2.6,1.4-1.2-2.3c1.1-2.8,1-3.3-0.7-4.7c-2.7-2-3.2-1.9-5.1,1.1
		c-1.3,1.9-1.4,2.8-0.5,3.7c2.8,2.8,0,3.8-3.1,1c-1.7-1.5-1.9-1.5-3.8,0.2c-2,1.8-2.1,1.8-4.3-0.3c-2.8-2.6-3.5-2.7-5.9-0.5
		c-1,0.9-2.1,1.3-2.6,0.9c-0.4-0.4,0.3-1.6,1.6-2.6c2.8-2.3,2.8-3.4-0.2-5.4c-2.3-1.4-2.6-1.4-4.7,0.2c-1.8,1.5-2,2.2-1.1,3.9
		c0.8,1.4,0.8,2.3,0,3.1c-1.6,1.6-2.8,1.5-2.8-0.2c0-0.7-0.6-1.9-1.4-2.5c-2.2-1.8-5.8,0.7-5.3,3.7c0.4,2.3-0.8,2.8-3.3,1.2
		c-1.2-0.7-1.2-1.2-0.2-2.2c1.8-1.8,1.5-4.2-0.8-6.3c-1.1-1-1.7-2.1-1.5-2.5c0.8-1.3-4.5-4.1-6.5-3.5c-2.4,0.8-3.3,3.4-1.8,5.2
		c1,1.2,0.9,1.8-0.7,3c-1.8,1.3-2,1.2-2.3-0.6c-0.5-2.8-2.7-4.4-5.3-3.6c-1.7,0.6-2,1.3-1.7,3.7c0.4,2.7,0.3,2.9-2.1,2.3
		c-3.7-0.9-3.7-1.2-0.8-3.6c3.4-2.6,3.4-3.1-0.1-5.1c-1.9-1.1-3.3-1.4-4.2-0.8c-0.8,0.6-1.9,1-2.5,0.9c-0.5,0,0.2-0.7,1.8-1.5
		c3.4-1.8,3.4-2.9,0.1-5.1c-3.2-2.1-5.9-0.7-5.9,3c0,1.4-0.4,2.9-0.9,3.4c-0.5,0.4-0.6,0.3-0.3-0.3c1-1.7-2.9-4.7-5.2-4.1
		c-1.2,0.3-2.7-0.3-3.7-1.4c-2.1-2.3-4.2-2.4-6.6-0.2c-1.6,1.4-1.8,1.4-1.8,0.1c0-0.9,1-2.2,2.3-3.1c2.2-1.4,2.2-1.5,0.3-3.6
		c-2.3-2.5-4.9-2.7-6.7-0.5c-1,1.2-1,2-0.1,3.5c1,1.5,0.8,2-0.8,2.9c-1.5,0.8-1.8,0.7-1.4-0.3c0.2-0.7-0.7-2.4-2.1-3.7
		c-2.5-2.3-2.5-2.3-4-0.4c-1.8,2.3-1.9,4.6-0.3,6.2c1.5,1.5,1,1.5-3.1,0.1l-3.2-1.1l2.1-2.3c2.1-2.2,2.1-2.4,0.5-4.9
		c-1.4-2-2.1-2.4-3.5-1.6c-1,0.5-2,1.5-2.3,2.2c-0.2,0.7-0.8,1-1.2,0.5c-0.5-0.4,0.2-1.8,1.5-3.2c2.3-2.5,2.3-2.5,0.4-4
		c-4.1-3.1-9-0.3-6.5,3.7c0.9,1.5,1,2.3,0.2,3.1s-1.1,0.8-1.1,0c0-0.6-1.2-1.8-2.6-2.8c-2.5-1.6-2.7-1.6-5,0.6
		c-1.6,1.5-2.1,2.6-1.4,3.3c1.6,1.6,1.2,2.5-1,1.9c-2.1-0.6-2.7-2.8-1-3.8c1.7-1,1.1-4.4-1-5.5c-1.5-0.8-2.4-0.6-3.9,0.9
		c-1.2,1.2-2.3,1.6-2.6,1c-0.4-0.5,0.4-1.8,1.7-2.9l2.3-2l-2.2-1.9c-1.3-1.1-2.3-2.1-2.3-2.3c0-0.2,2.7-0.5,5.9-0.6
		c8-0.3,20.1-3.5,28.6-7.6L290.5,788.5z"/>
	<path id="path160" class="st17" d="M232.4,796.7c1.7,0.4,5.7,1.3,8.9,1.9c5.5,1.1,5.7,1.2,4,2.9c-1.5,1.4-1.6,2.1-0.5,3.7
		c1.8,3,1.5,3.1-2.3,1.3c-3.3-1.6-3.6-1.5-5.4,0.2c-1.6,1.3-1.8,2.2-1,3.6c0.8,1.5,0.6,1.9-0.9,1.9c-2.7,0-3.2-0.9-2-3.6
		c1.3-2.7-0.3-5.4-3.1-5.4c-1.4,0-1.6-0.7-1.3-3.6C229.2,796.1,229.4,796,232.4,796.7z"/>
	<path id="path162" class="st17" d="M572.5,807.6c0.4,1.9,0,2.5-2.1,3c-2,0.5-2.5,1.2-2.2,3.3c0.2,2-0.2,2.7-1.9,2.9
		c-2.3,0.4-3.1-1-1.3-2.1c2.6-1.6-1.2-5.9-4.5-5.1c-1.8,0.5-2.4,0.1-2.8-1.6c-0.4-1.2-0.5-2.3-0.4-2.4c0.1-0.1,2.9-1.3,6.2-2.7
		C571.8,799.4,570.7,798.9,572.5,807.6z"/>
	<path id="path164" class="st17" d="M548.6,807.4c1.3-0.1,2.4,0.5,2.7,1.5c0.2,1,0.8,2.7,1.3,3.7c0.7,1.9,0.6,1.9-1.6,0.3
		c-3.3-2.3-6.4-0.6-5.8,3.4c0.3,2,0,2.9-0.9,2.9c-0.7,0-1.3-0.8-1.3-1.8c0-1.1-0.9-2.7-2.1-3.8c-2.1-1.9-2.1-1.8-3.9,0.4
		c-1,1.2-2.4,2.2-3.1,2.2c-0.8,0-0.5-0.7,0.7-2.1c1.5-1.6,1.6-2.4,0.6-3.9c-1.1-1.8-0.8-1.9,5.1-2.3
		C543.7,807.7,547.5,807.5,548.6,807.4z"/>
	<path id="path166" d="M305.5,824.5c0,0.1,0.7,1,1.4,1.9c1.1,1.5,1.1,1.8,0,1.8c-0.8,0-2.1-0.5-2.9-1c-1.3-0.9-1.3-1.1,0-1.9
		C304.8,824.7,305.5,824.4,305.5,824.5z"/>
	<path id="path168" d="M499.2,825.8c1.4,0.9-0.2,2.4-2.5,2.4c-2.1-0.1-2.1-0.1-0.3-1.5C497.4,825.9,498.7,825.5,499.2,825.8z"/>
	<path id="path170" d="M466.1,827.2c0.5,0,0.9,0.4,0.9,1c0,0.5-0.7,1-1.6,1c-0.8,0-1.2-0.5-0.9-1
		C464.8,827.6,465.5,827.2,466.1,827.2z"/>
	<path id="path172" d="M345,831.7c-0.7,0.9-1.5,1.3-1.9,1c-0.3-0.3,0.1-1,0.9-1.5C346.1,829.8,346.4,830,345,831.7z"/>
	<path id="path174" d="M430.9,839.6c0.9,1.1,0.6,1.5-1.9,1.8c-2.8,0.4-2.9,0.4-1.3-1.4C429.6,837.8,429.5,837.9,430.9,839.6z"/>
	<path id="path176" d="M377.7,841.8c1.9,1.8,1.6,2.4-1,2.4c-3.2,0-4-1-2-2.5C376,840.7,376.7,840.7,377.7,841.8z"/>
	<path d="M366.9-0.8h5.5c3,0,5.7,0.4,6,0.9c0.3,0.4,7.2,1.1,15.3,1.4c8.2,0.3,16.6,1.1,18.8,1.7c18.7,5.6,35.5,20.9,39.5,36
		c0.7,2.5,2,5.6,2.9,7c2.8,4,5,10.5,5.7,16.7c0.4,3.2,1.5,7.5,2.5,9.5c4,7.9,6.1,27.5,3.9,35.7c-1,4-0.9,4.5,3.6,12.9
		c6.1,11.2,14.8,24,22.7,33.3c31.4,36.9,39.4,56.8,33.7,83.7l-2.2,10.8l3.1,8.8c8.3,23.5,6.1,45.6-6.8,69.8l-4.6,8.7l1.9,3.3
		c1.1,1.8,4.1,6.4,6.8,10.3c2.7,3.8,9.4,13.5,14.9,21.5c5.5,8,11.8,16.3,14,18.5c3.8,3.8,4.2,4,10.2,4c3.4,0,9.8-1,14.1-2.3
		c6.4-1.7,10.5-2.2,20.7-2.2c7,0,13.4,0.3,14.3,0.6c2,0.8,2.1,4.8,0.2,6.3c-0.8,0.7-2.7,1.6-4.2,2l-2.8,0.7l5.7,4.3
		c6.4,4.8,7,6.9,3.2,10.6c-3,3-6.7,3.2-11.8,0.5c-5-2.7-5.3-2.5-2.3,1.1c2.9,3.4,3.2,4.9,1.4,6.7c-2.1,2.1-6.6,1.3-11.4-2
		c-5.1-3.7-8.7-4-26-2.4c-11.8,1.1-15.6,0.4-20.6-4.2c-2.3-2-14-14.5-26.1-27.7c-12.1-13.2-23-25.1-24.2-26.4l-2.3-2.4l-11.6,4.9
		c-6.4,2.6-11.6,5.1-11.6,5.4c0,0.4,6.6,7.8,14.7,16.6c22.5,24.5,37.3,42.8,63.4,78.4c32.4,44.2,57,88.5,77.1,138.8
		c17.8,44.7,28.8,85.4,37.3,137.5c3.2,20.4,3.2,22-0.1,23.6c-2.3,1-2.6,1.6-2,4.4c0.4,1.8,1,5.3,1.3,7.8c0.5,4.1,0.3,4.8-2.2,6.7
		c-4.7,3.7-10,4.8-14.8,3.1l-4.2-1.4l-3.3,3.7c-4.6,5.1-8.8,6.4-15.2,4.5l-4.9-1.5l-4,3.9c-5,4.7-10.8,5.9-16.5,3.5
		c-3.8-1.6-3.8-1.6-7.8,1.8c-2.4,2.1-5.6,3.7-8,4.1c-3.4,0.6-3.9,1-3.4,2.9c0.3,1.1,0.8,4,1.2,6.3c0.6,4,0.5,4.3-2.7,6.2
		c-5,3.1-9.4,3.6-14.1,1.7c-4.1-1.5-4.2-1.5-10.2,1.4c-5.8,2.9-6.4,3-11.7,1.9c-5.5-1.1-5.7-1-9.9,2c-4.7,3.4-9.2,4-14.9,2
		c-2.8-1-3.9-0.7-9.6,2.2l-6.4,3.4l-6.1-1.6c-4.9-1.3-6.2-1.3-7.1-0.3c-0.6,0.7-3,2.3-5.5,3.4c-3.9,1.9-5,2-9.6,1.1l-5.2-1.2
		l-3.7,3.7c-4.6,4.5-9.9,5.4-16.4,3L440,839l-4.2,3.6c-2.3,2-4.9,3.6-5.7,3.7c-3.8,0.3-7.8-0.4-10.4-1.8c-2.7-1.3-3.1-1.2-7.6,1.6
		c-6.3,4.1-12.4,4.2-18.3,0.5l-4.1-2.6l-3.7,2.1c-6.4,3.6-14.7,2.4-19.3-2.7c-1.8-2-1.9-2-6-0.1c-6.8,3-9.5,2.5-16.8-3.2
		c-3.6-2.8-3.8-2.8-7.3-1.4c-6.5,2.7-10.1,2-15.6-3.1c-4.8-4.5-5-4.6-10-3.9c-4,0.6-5.8,0.3-9.4-1.4c-2.4-1.2-5.1-3-6-4
		c-1.4-1.5-2.8-1.7-8.9-1.4c-6.8,0.5-7.4,0.3-11.4-2.6c-4.1-2.9-4.6-3.1-11.5-2.5c-7.1,0.6-7.5,0.5-12.8-2.9
		c-4.9-3.2-5.6-3.4-7.4-2.1c-3,2.1-11.5,1.8-15.3-0.6c-3-1.8-5.3-6.6-5.3-11.1c0-0.8-1.3-2.7-2.8-4.2c-2.5-2.4-3.3-2.6-7.4-2.1
		c-5.7,0.8-10.7-1.4-14.8-6.6c-2.8-3.5-3.2-3.7-7.7-3.3c-6.2,0.6-9.8-0.8-12.4-4.9c-1.7-2.8-1.9-4.3-1.4-9.6c0.6-6.2,0.5-6.4-3-9.7
		c-2.8-2.8-3.5-4.2-3.5-7.4c0-2.2,0.4-4.2,0.9-4.5c0.5-0.3,1.2-4.5,1.5-9.3c1.1-14,5.5-44.5,8.7-60.3
		c11.2-54.7,24.3-96.6,45.5-145.1c10.9-24.9,10.6-23.4,6-32.5c-4.6-9.2-4.4-11.7,1.8-20.1c5.2-7.1,33-35,36.8-36.9
		c3.4-1.8,12.3-14.8,15.3-22.3c7.3-18.7,16.4-32.5,23.4-35.4c1.8-0.8,6.5-6.2,12.9-14.6l10-13.4l-7.6-3.7
		c-21.2-10.2-37.7-26.7-46-45.6c-5.9-13.5-7.8-35.4-4.7-55.4c1-6.7,1.3-13,0.8-21.3l-0.6-11.8l-3.5-1.5c-1.9-0.7-3.8-1.4-4.1-1.4
		c-0.4,0-1.5,3.3-2.5,7.4c-1.8,7.6-3.8,10.6-7.2,10.6c-4.3,0-4.5-1.2-1.9-9c3.3-9.6,3.2-12.7-0.4-16.9c-4.4-5.2-9.4-23.1-8.9-32
		c0.3-5.8,0.9-7.7,4.8-14.2c3.9-6.4,4.5-8.2,4.5-12.9c0-5.4,0.1-5.5,2.8-5.3c1.5,0.1,4.2,0.9,5.9,1.7c3.6,1.9,4.7,1.3,3-1.4
		c-1.4-2.4-0.5-19.8,1.2-21.1c0.6-0.4,2.8-2.2,4.8-3.9c3.3-2.8,4.2-3.1,10.5-2.9c9.1,0.1,11.3,0.7,11.3,2.9c0,1,0.8,2.1,1.8,2.5
		c1.9,0.6,6.9,6.3,9,10.2c1.4,2.5,0,10.7-2.4,15.5c-1.7,3.2-7.1,6.3-13.1,7.3c-2.2,0.3-4.9,1.5-5.9,2.6c-2.1,2.3-4.6,2.6-3.8,0.4
		c0.7-1.7-1.4-4.8-2.7-3.9c-0.5,0.2-1.8,3.6-2.9,7.5c-1.6,5.3-1.8,7.4-1,8.4c1.2,1.5,0.4,8.1-1.2,10.2c-1.3,1.6,2.8,3.3,7.9,3.3
		c3.3,0,10-3.6,8.9-4.8c-0.3-0.3,0-1,0.8-1.6c2.4-2,19.3-28.2,22.5-35c1.8-3.6,3.7-9,4.3-11.9c1-4.6,0.8-6-1-11.5
		c-2.4-6.9-2.8-12.7-1.1-18.7c0.6-2.2,1.2-8.2,1.3-13.5c0.3-13.9,2.4-24.6,7.4-39c5.7-16.5,9.4-22.1,19.7-29.5
		c2.2-1.6,8.4-7.3,13.7-12.7L366.9-0.8z M384,5.3c-0.1,0.2-0.2,4.1-0.4,8.6l-0.2,8.1l3.7,0.4c3.4,0.3,3.8,0.1,4.3-2.4
		c0.3-1.5,1.7-3.5,3.1-4.4c2.1-1.4,3-1.5,5.6-0.4c3.9,1.6,6.2,5.1,5.4,8.1c-0.5,2,0,2.7,2.8,4.2c3.6,1.9,6.7,6.3,6.7,9.4
		c0,1-0.6,3-1.4,4.4c-1.3,2.6-1.3,2.7,2.8,3.9c9.9,2.9,21.9,10.8,36.7,24c6.1,5.5,7,6,5.3,3.2c-1-1.8-3.6-5.4-5.7-7.9
		c-3-3.6-3.5-4.8-2.6-6c1-1.1,1.6-1,3.6,0.9l2.5,2.3l-0.7-3c-2.2-9.5-11.5-21.2-21.9-27.2c-2.7-1.6-5.1-3.4-5.4-4.1
		c-0.7-2.3,3.5-1.2,9.9,2.7c3.5,2.1,6.6,3.7,6.8,3.5c0.2-0.2-1.3-2.9-3.4-6c-6.1-8.8-17.9-16.3-31.5-19.9
		C404.2,6.2,384.1,4.3,384,5.3z M358.3,14.2c-1.3,0-9,7.4-9.7,9.3c-0.3,1-0.1,2.7,0.4,3.8c1,1.8,1.3,1.8,4,0.4
		c3.5-1.8,6.2-1.9,7.8-0.3c1.6,1.6,1.5,0.6-0.3-2.8c-0.8-1.6-1.5-4.6-1.5-6.7C359,15.9,358.7,14.2,358.3,14.2z M386.9,29.4l-2.4-0.4
		l2.1,2.4c1.2,1.2,2.4,3,2.7,3.8c0.4,1.2,0.6,1.1,1.2-0.4c0.5-1,0.4-2.6-0.2-3.5C389.8,30.4,388.2,29.5,386.9,29.4z M366.6,34
		c-1.6-2.2-1.6-2.2-1.6,0.8c0,1.7-1,4.4-2.2,5.9l-2.1,2.7l3.1-1.6c1.7-0.9,3.3-2.5,3.7-3.6C367.9,37.1,367.5,35.3,366.6,34z
		 M379.2,34.7c-2-2.5-2.1-2.6-3.2-0.6c-0.9,1.7-0.6,2.2,1.9,3.6c1.7,0.8,4,1.5,5.3,1.4c2.3,0,2.3,0,0.2-0.9
		C382.2,37.8,380.3,36.2,379.2,34.7z M337.1,33.2c-2.1,0-7.8,13.1-6.6,15.1c0.3,0.4,0.2,0.9-0.2,1.1c-2.2,0.9-8.2,16.8-6.4,16.8
		c0.4,0,3.3-2.7,6.6-6l5.8-5.9l-1.8-4c-1.2-2.8-1.5-4.8-1-6.8c0.5-1.5,0.8-3.1,0.7-3.6c-0.1-0.4,0.4-0.7,1.2-0.7c2,0,3.7-2.5,3-4.4
		C338.1,33.9,337.5,33.2,337.1,33.2z M370.7,41c-2.5,2.7-2.1,3.1,2.1,2.5c4.7-0.7,5-1,2.6-2.8C372.9,38.8,372.6,38.9,370.7,41z
		 M381.7,46.1c-1.4,0.5-0.4,1.1,4,2.5c7.3,2.3,19.3,7.6,19.3,8.6c0,1.7-1.5,1.6-6.3-0.3c-3.9-1.5-7.6-2-14.7-2.1
		c-10.4-0.1-13.7,0.8-24.8,6.1c-4,2-7.6,3.2-8,2.8c-1.9-1.9,13.9-11,21.1-12.2c5.4-0.8,2.7-2.3-4.3-2.3c-17.1,0-36.4,10.9-43.8,24.7
		c-2.7,5.1-5.4,16.3-4,16.3c0.3,0,2.5-2.5,4.8-5.5c2.3-3,4.8-5.5,5.5-5.5c2.8,0,2,2.7-2.6,8.7c-5.9,7.7-8.9,15.5-8.9,23.2
		c0,10.7,3.5,18.5,16.7,37.4c6.2,8.9,8.7,14.9,7.9,19c-0.7,3.5,0.8,2.7,3-1.5c2.3-4.5,1.4-7.9-5.9-22.6c-4.6-9.2-6.8-14.9-7.6-19.8
		c-3.4-20.2,8.5-35.6,32.2-41.8c19.5-5.1,25.6-8,30.2-14.3c3.6-5,8.6-6.2,5.6-1.4c-1.5,2.4,0.4,4.7,8.1,9.4
		c7.6,4.7,16.9,8.3,34.8,13.7c5.8,1.8,12.5,4.3,14.9,5.6s4.5,2.3,4.6,2.2c0.1-0.2-0.3-2.9-1-6c-2.1-10.7-9.3-17.9-26.7-26.9
		c-9.1-4.6-11.6-7.1-8.5-8.2c2.3-0.9-12.2-6.8-21.3-8.7c-7.1-1.5-9.7-1.6-11.6-0.8c-1.8,0.9-2.8,0.8-3.6,0
		C389.5,45.1,384.6,44.9,381.7,46.1z M397.3,73.3c-0.4,0-2.8,1.3-5.3,2.9c-5,3.2-13.6,6.5-28.5,10.9c-11.1,3.4-18.3,7.4-20.5,11.5
		c-1.3,2.4-1.2,3.4,0.3,8.9c1,3.4,2.1,7.5,2.5,9.1l0.8,3l1.6-4.2c0.9-2.3,1.4-5.1,1.1-6.2c-0.5-1.9,0.5-2.5,3.1-2.1
		c0.5,0.1,1.5-0.8,2.3-1.9c1.3-1.9,1.7-1.9,3.2-0.7c1.4,1.2,1.8,1.1,3.4-0.5c1.7-1.8,1.6-1.9-0.8-2.8c-3.4-1.3-9.2-1.3-10,0
		c-0.9,1.5-3.5,1.2-3.5-0.4c0-2,6.2-4.6,11.1-4.6c5.6,0,12.9,3.5,12.9,6.2c0,1,0.4,2.7,0.9,3.6c0.5,0.9,1,3.5,1.2,5.7
		c0.2,2.5,1.1,5,2.5,6.5c2.6,2.8,2.3,3.6-2.4,6.9c-2.3,1.6-5.3,2.5-9.7,2.9c-7.3,0.5-11.5-0.8-14.5-4.6c-1.2-1.4-2-1.9-2-1.1
		c0.1,3.3,2.9,13.1,4.2,14.7c0.9,0.9,1.8,2.9,2.2,4.4c0.9,3.8,7.8,9.4,20.3,16.4c20.5,11.7,25.5,11.2,45.3-4.5
		c9.1-7.2,19-17.5,19-19.7c0-0.8-0.6-2.7-1.4-4.2c-2.7-5.3-3.9-15.8-3.1-27.5l0.7-11.3l-7.3-2.3c-5-1.6-7.4-2-7.7-1.2
		c-0.2,0.6-1.7,1.1-3.4,1.1c-2.8,0-8.8,2.7-8.8,4c0,0.3,0.5,1.2,1,2c0.8,1.3,1,1.2,1-0.3c0-1,0.8-1.7,1.9-1.7s2.7-0.3,3.6-0.6
		c1.1-0.5,1.8,0,2.1,1.4c0.3,1.1,2.4,2.8,4.6,3.8c11,4.9,10.1,14.6-2,20.2c-4.6,2.1-6.4,2.4-11.9,1.9c-7.6-0.6-8.8-1.4-7.3-5.1
		c1.1-2.9-0.7-15.6-2.2-15.6c-2.2,0-0.3-3.8,3.7-7.6c3.7-3.6,5.4-4.4,9.6-5l5.2-0.7l-4.9-2.5c-2.7-1.3-6.8-4-9.1-5.8
		C400,74.7,397.8,73.2,397.3,73.3z M438.6,95.3c-0.3,1.7-0.6,7.7-0.6,13.3c0,14.7,2.6,22.2,11.2,32.7c5.3,6.5,7.7,12.4,7.9,18.9
		c0.1,5.5,0.1,5.5,1.4,2.5c3.1-6.8,1.4-14.7-5-23.4c-7.7-10.6-9.9-21-7.1-34.5c2-9.8,2-9.5-0.6-10.5C439.5,92,439.3,92,438.6,95.3z
		 M403.1,95.2c-1.4,0-2.3,1.8-1.3,2.4c1,0.6,2.2-0.3,2.2-1.6C404,95.6,403.6,95.2,403.1,95.2z M453.2,97.2c-1.4,0-3.2,10.5-3.2,18.4
		c0.1,8.8,1.4,12.6,7.8,22.4c6.2,9.4,7.8,15.1,6.2,21.3c-1.7,6.3-4.3,10.9-8.3,14.8c-4.3,4.1-6,3.5-4.1-1.6c2-5.6,1.7-14.4-0.6-20.3
		c-2-5.2-6.8-12-8.3-12c-0.5,0-4,2.6-7.8,5.7c-8,6.6-9,9-9.3,21.8c-0.1,6.5,0.3,8.9,2.1,12.6c2.9,5.8,6.6,7.6,18.6,8.9
		c16.6,1.9,19.6,2.8,25.2,8c1.7,1.6,5.1,4.7,7.6,6.9c5.2,4.6,8.3,10.8,10.3,20.5c1.2,5.7,12.8,33.2,16.2,38.3l1.5,2.3l4.6-5.2
		c5.3-6,9.8-14.8,11.4-22.7c0.6-3.2,0.9-10.2,0.7-16.6c-0.4-9.3-1-12.2-3.7-19.1c-4-10.4-10.3-19.9-27.4-41.2
		c-25.1-31.3-29.6-38.8-31.8-52.5c-1.2-7-1.6-8-4.1-9.3C455.3,97.8,453.7,97.2,453.2,97.2z M416,101.4c-1.4,0-1.9,0.2-1.2,0.5
		c0.6,0.2,1.8,0.2,2.5,0C417.9,101.6,417.4,101.4,416,101.4z M365.2,104.1c0.8,1.4,1.4,1.6,2.4,0.7c0.9-0.9,0.8-1.2-0.5-1.8
		C364.4,101.9,363.9,102.1,365.2,104.1z M420.3,103.1c-1.6-1.2-1.7-1.2-0.7,0.1c0.7,0.8,1.4,2.4,1.7,3.5c0.4,1.9,0.5,1.9,0.6-0.1
		C421.9,105.4,421.2,103.8,420.3,103.1z M409.5,106.2c-0.6,1.9,1.7,7,3.1,7c0.4,0-0.1-1.1-1-2.5c-1.5-2.2-1.5-2.5,0-3.3
		c0.9-0.5,1.4-1.4,1-2.1C411.5,103.6,410.2,104,409.5,106.2z M338.9,108.8c-1.4-1.6-2.2,4.4-1.6,11.8c0.5,6,1.5,8.9,6.2,18.4
		c3.1,6.2,6.3,14.1,7.2,17.5c1.7,6.3,1.7,6.4-0.8,11.2c-1.3,2.7-3.6,5.7-5,6.8c-2.9,2.1-9.7,3.9-10.4,2.8c-0.2-0.4,0.7-2.4,2-4.4
		c3.9-5.6,3.4-9.9-2.3-19.3c-8.1-13.3-13.2-19.6-13.2-16.4c0,1.8-7.8,17.3-12.2,24.1c-2.4,3.7-7.3,11.1-10.9,16.6
		c-9.9,14.9-9.6,14-6,17.7c3.5,3.6,9.6,16.3,10.6,22.1c0.7,3.6,1.8,6.7,7.2,19.4l1.4,3.4l1.3-2.5c0.7-1.4,1.9-6.3,2.6-10.9
		c0.7-4.6,1.7-8.8,2.2-9.4c0.4-0.5,0.8-2.2,0.8-3.8c0-3.9,2.4-7.8,6.6-10.5c2-1.3,4.5-3.9,5.6-5.8c3.6-6.1,12.6-9.7,29.8-11.8
		c6.3-0.8,12.4-1.8,13.6-2.3c3.8-1.5,8.2-7.5,8.5-11.8l0.4-3.9l-11.2-6.6c-6.2-3.6-13.3-8.2-15.8-10.3c-6.5-5.5-11-14.9-12.5-26.2
		c-0.5-3.3-1.4-8-2-10.5C340.3,111.7,339.4,109.3,338.9,108.8z M407.6,111.7c-1.3-1.8-1.4-1.8-2.5,0.3c-1.5,2.7-1.5,2.7,1.4,2.8
		c1.4,0.1,2.5-0.1,2.5-0.5C409,113.9,408.4,112.7,407.6,111.7z M417.2,111.6c-3.2,1.8-3.8,2.6-2,2.6c0.9,0,2.6-0.9,3.9-2
		C421.8,110,420.7,109.7,417.2,111.6z M359.2,115c-0.9-0.9-1.3-0.7-1.8,0.6c-0.8,2.2,0.3,3.3,1.8,1.8
		C360.1,116.5,360.1,115.9,359.2,115z M352.8,118.2c-1.3,0-0.6,3.2,0.9,3.7c0.7,0.3,0.9-0.3,0.6-1.6
		C354,119.1,353.3,118.2,352.8,118.2z M357,121.1c0,0.6,0.4,1.3,1,1.6c0.6,0.3,0.7-0.1,0.4-0.9C357.7,120,357,119.7,357,121.1z
		 M365.6,121.8c-1.1,0.8-2.9,1.4-4,1.4c-1.6,0-1.8,0.2-0.7,0.9c1.7,1.1,4.7,0.3,6.2-1.5C368.8,120.6,367.9,120.1,365.6,121.8z
		 M420,158.2c-0.4,0-3.1,1.7-6.1,3.9c-10.4,7.4-17,9.8-22.6,8.2c-3.2-0.9-3.3-0.8-3.3,1.8c0,3.3-4.4,9.8-9.4,13.8
		c-3.2,2.5-4.8,2.9-15.8,3.9c-10.7,1-22.6,3.9-24.7,6c-1,1,7.1,7.3,13.9,10.8c6.1,3.1,11.7,4.7,26.5,7.7c10.4,2.1,28.4,1.5,42.8-1.5
		c19-3.8,35.6-10.2,39.6-15c1.6-1.9-0.5-2.5-10.4-3c-8.1-0.3-16.9-2.7-21.6-5.9c-5.3-3.6-7-8.3-7.7-20.2
		C421,162.9,420.4,158.2,420,158.2z M266.7,186.2c-1.1,5.3-4.6,32.4-4.3,32.8c0.6,0.6,2.5-8.3,4.1-19.5
		C268.2,188.2,268.3,178.5,266.7,186.2z M279,194.2c1.1,0.6,2,1.5,2,2.1c0,2.2-3.3,2-7-0.5c-2.2-1.4-4.2-2.6-4.5-2.6
		s-0.5,2.6-0.5,5.7c0,3.2-0.4,7.5-0.9,9.6c-1.2,5.1-0.4,7.6,2.8,8.3c8.4,1.8,14.6,6.7,18,14.4c1.1,2.6,2.8,11.1,4.1,20.5
		c5.8,44,5.4,41.8,11,53c4.7,9.3,12.1,18.8,13.5,17.3c0.3-0.3,0.1-2.5-0.4-4.9c-1.6-6.9-1.3-15.9,0.9-24c4-14.8,4.3-16.9,3.1-22.3
		c-0.6-2.8-1.8-6.5-2.7-8.1c-8.6-16.2-16.6-33.4-18.4-39.5c-4.8-16.1-9.2-24.7-13-25.7c-1.1-0.3-2-1.3-2-2.3c0-0.9-1.1-2.2-2.5-2.8
		C277.7,190.2,274.6,191.8,279,194.2z M258,200.4c-0.6-3.5-0.7-3.6-1.8-1.5c-1.8,3.3-1.4,6.5,1.2,9.8c2.3,2.9,2.3,2.9,3.1,0.7
		c0.4-1.4,0.2-2.9-0.6-3.8C259.2,204.8,258.4,202.4,258,200.4z M462.9,201.2c-8.2,6.7-29.5,14.8-44.1,16.8
		c-7.1,0.9-34.5,0.9-43.6-0.1c-13.9-1.5-26-6.3-35.7-14.2c-3.1-2.5-6-4.3-6.5-4c-4.8,3,11,14,28.3,19.7c22.3,7.3,47.3,7.2,74.2-0.4
		c17.3-4.8,34.6-14.8,33-19.1C467.6,197.6,467.1,197.7,462.9,201.2z M475.2,206.2c-0.4,0-3.2,2.1-6.2,4.7c-3,2.5-7.2,5.7-9.3,7
		c-6,3.8-20.1,8.7-32.2,11.3c-6,1.3-11.3,2.8-11.6,3.3c-0.4,0.5-1.5,0.5-2.7-0.2c-1.5-0.8-2.3-0.8-2.8,0c-0.4,0.6-1.9,0.9-3.6,0.5
		c-1.6-0.3-3.8-0.1-4.8,0.4c-1.1,0.6-2.1,0.6-2.4,0.1s-3.6-0.7-7.3-0.6c-3.7,0.2-7.2,0-7.8-0.5c-0.5-0.4-5.5-1.5-11-2.4
		c-9.4-1.5-20-4.8-26.5-8.1l-2.9-1.5l-0.7,3.7c-0.3,2.1-2.8,8.2-5.5,13.7c-6.9,13.8-6.7,20.1,0.8,27.8c2.9,3,4.9,4,9.5,4.9
		c4.5,0.9,5.8,1.5,5.6,2.8c-0.3,1.3-1.4,1.5-5.6,1.3c-2.9-0.2-5.2-0.1-5.2,0.2c0,0.6,2.7,7.7,8.7,23c4.8,12.1,6,19.7,4.5,27.8
		c-1.9,10.3-11.2,26.6-28.8,50c-9,12-9.4,12.8-6.3,12.8c1.3,0,3.5,0.6,4.9,1.3c2.2,1.1,2.6,2.1,3.3,8.7c0.4,4.1,0.8,9,0.9,10.7
		c0.1,1.8,0.4,3.3,0.8,3.3c0.3,0,1.9-1.4,3.5-3c1.6-1.7,3.9-3,5.1-3c1.3,0,2.5-0.4,2.8-0.9c1-1.5,10.3-4.1,14.8-4.1
		c2.4,0,6.6,1.1,9.6,2.5c5.2,2.4,5.2,2.4,5.3,7.2c0,2.6,0.2,6.1,0.3,7.8c0.1,1.6,0.3,4.8,0.4,7.1l0.2,4.1l11.8,0.7
		c6.4,0.4,12.6,0.8,13.7,0.9c1.1,0.1,4.8-0.2,8.3-0.6l6.2-0.8v-7.7c0-4.2,0.6-8.8,1.3-10.1c1.5-2.9,8.7-6,14.1-6
		c6-0.1,19.8,4.4,22.6,7.4c1.3,1.4,2.9,2.5,3.5,2.5c1.6,0,2.4-5.4,1.8-11.2c-0.3-2.6-0.3-5.7,0-7c0.7-2.7,7.2-6.8,10.7-6.8
		c4.5,0,10.2,2.4,14.5,6.2c4.8,4.2,5.2,4.3,7.9,2.3c2.3-1.7,3.2-0.6-26.4-31.5c-32.3-33.7-34.6-36.4-36.5-42.1
		c-1.1-3.2-1.5-6.7-1.2-9.3c0.3-2.4,5-12.9,11.3-25.6c10-20,10.8-22,11.2-28.4c0.3-4.5-0.1-9-1.3-13.3c-1.8-6.7-1.6-8,1-6.9
		c3.9,1.4,5.8,14.1,4.3,28.9c-1.4,14-0.7,18,3.8,22.5l3.5,3.5l12.3-0.6c14.2-0.7,21.5-2.1,26.3-4.9c3.8-2.3,7.3-8.3,7.3-12.7
		c0-5-3.7-15.2-9.8-27.2c-4.2-8-7-15.4-9.7-25.1c-2.7-10.1-4.5-14.5-6.7-17.2C477.2,207.8,475.5,206.2,475.2,206.2z M325.8,208.2
		c-2,0-3.7,5.5-4.7,14.5c-0.6,5.5-2,12.7-3.1,16c-1.4,4.1-1.8,7.2-1.4,10c0.7,5,7.3,17.3,9.7,18.1c2.2,0.7,4.5,5.1,5.3,10.5
		c0.7,4.3,4.7,9.5,9.2,11.8c2.9,1.5,2.8,1.1-0.8-10.2c-1.9-5.9-3.9-10.2-5.5-11.7c-6.4-6-7-16.8-1.7-28.1c4.4-9.4,7.4-18.6,6.8-20.6
		c-0.3-1-3.4-3.7-6.8-6.1C329.3,210.1,326.2,208.2,325.8,208.2z M279,226.3c0,7.3,3.2,20.8,6.5,27.4c2,4.1,4.1,7.5,4.5,7.5
		c1.5,0-1.1-15.6-4.1-25.2C283.9,229.8,279,222.8,279,226.3z M280.1,254.2c-1.7,0-3.4,16.5-2.8,27.2c1.4,22.9,9.9,41.8,25.2,55.5
		c7,6.3,20.9,15.1,28,17.9c4.3,1.6,4.6,1.6,6.6-0.2c5.7-5.2,15.8-27.8,15.9-35.5c0-3.9-3.6-16.7-5.1-18.4c-0.5-0.5-0.9-0.6-0.9-0.2
		c0,1.3-10,38.2-11,40.4c-2.7,6.5-19.9-1.3-26.7-12.1c-1.5-2.2-3.7-7-4.9-10.6c-1.2-3.6-3.6-9.4-5.3-13c-3.7-7.9-6.7-19.3-7.7-29.1
		c-0.6-6.3-1.2-8.1-4.3-12.4c-1.9-2.8-4.1-5.6-4.8-6.3c-0.7-0.7-1.3-1.8-1.3-2.3S280.6,254.2,280.1,254.2z M522,255.2
		c-0.5,0-3.6,3.3-6.9,7.2c-5.9,7.1-6.1,7.5-6.1,13.2c0,10.1-2.3,14.9-9.8,20.8l-2.1,1.7l2,4.9c1.8,4.3,15.5,21.2,17.8,22
		c1.5,0.5,6.8-11.9,9.1-21.3c1.9-7.8,2.2-10.7,1.7-22.5c-0.4-10.4-1-14.9-2.7-19.8C523.8,258,522.4,255.2,522,255.2z M328.3,275.9
		l-0.9-3.2l-2.1,6.2c-2.1,6.2-2.2,6.3-0.2,7.4c1.8,0.9,1.9,0.7,1.4-1.4c-0.4-1.6-0.1-3,1.1-4.1C328.9,279.4,329.1,278.4,328.3,275.9
		z M446.1,284c-0.3-0.3-4.2,6.5-8.6,15.3c-9.1,18-9.7,21.5-5.4,28.7c3.5,5.8,30.7,34.2,32.9,34.2c1.6,0,23-7.7,23.9-8.6
		c0.3-0.2-0.1-1-0.8-1.7c-0.8-0.8-4.6-1.2-10.9-1.2c-7.8,0-10.6-0.5-14.5-2.2c-2.6-1.2-5-2.9-5.3-3.8c-0.4-0.9,0.4-4.5,1.6-8.2
		c3-8.8,3.6-20,1.6-28.3c-0.9-4-2.2-6.9-3.3-7.5c-4.1-2.3-8.2-7.4-9.4-11.5C447.2,286.7,446.4,284.4,446.1,284z M328.7,289.6
		c-0.7-0.7-2,2.9-1.8,4.6c0.1,1.2-0.1,1.1-1.2-0.3c-0.8-0.9-1.9-1.7-2.5-1.7c-3.1,0-2.8,25.7,0.3,32.6c1.5,3.2,2.4,4.1,4.2,4
		c1.3,0,2.3-0.6,2.3-1.1c0-2-1.7-3.6-3.2-3c-2.5,1-3.6-6.5-1.2-8.2c2.4-1.7,2.8-1.7,5,0.8c1.4,1.6,1.6,2.4,0.7,3.8
		c-0.8,1.2-0.7,2.1,0.2,3.4c2.3,3.2,4.3,2,5.5-3.5c0.6-2.9,1.7-7.2,2.5-9.6c2-5.7,2-5.9-1.5-7.7c-3.7-1.9-5-1.9-2.4-0.1
		c1.8,1.4,1.8,1.7,0.4,5.8c-1.6,4.5-3.3,5.5-7.6,4.4c-2.3-0.6-5.4-5.1-5.4-7.8c0-0.7,1.9-2.6,4.1-4.1c2.7-2,3.7-3.3,3.1-4
		c-0.5-0.7-1-2.7-1-4.6C329.2,291.5,328.9,289.8,328.7,289.6z M333.9,291c1.4,2.7,4.3,5,7.4,5.7c4.6,1.2,3.2-1.7-2.3-4.8
		C333.1,288.7,332.6,288.6,333.9,291z M476.5,301.2c-10.4,1.2-12.9,1.8-12.7,3c0.6,2.8,1.7,2.9,12.7,1.5c13.6-1.8,17-2.7,17-4.6
		C493.5,299.3,492.2,299.3,476.5,301.2z M496.2,309.3c-0.4,0-2.6,0.9-4.9,1.9c-2.7,1.2-8,2.2-14.1,2.6l-9.9,0.7l-1.7,9.1
		c-1,5-2,10.1-2.3,11.3c-0.4,1.6-0.1,2.3,1,2.3c0.8,0,2,0.7,2.7,1.5c0.9,1.1,1.6,1.2,2.6,0.4c0.7-0.6,1.8-0.8,2.4-0.4
		c0.5,0.3,1-0.2,1-1.3s0.7-2.5,1.5-3.2c1.3-1,1.9-1,3.5,0.5c2.7,2.5,2.6,3.3-1.7,7.8l-3.8,3.9l4-0.7c5.3-0.9,14.9-5.6,20.2-9.9
		c3.6-2.8,4-3.6,2.9-4.6c-1.1-0.9-2-0.9-3.6,0c-1.8,0.9-2.5,0.8-4.1-0.6c-1-0.9-1.9-1.2-1.9-0.7c0,0.6-1.7,2.1-3.7,3.3
		c-3.6,2.1-3.7,2.1-6.1,0.3c-4.5-3.3-4.9-4.9-2.7-9.1c1.6-2.9,2.5-3.6,4.5-3.4c6,0.7,7,1.2,7,3.7c0,2.9,0.3,3,3.4,0.9
		c1.6-1,2.6-1.2,3.1-0.5c1.1,1.9,2.3,1.2,5.3-3.2l2.9-4.4l-3.4-4.1C498.4,311.1,496.5,309.2,496.2,309.3z M507,319.7l-2.3-2l1.3,2.1
		c2,3.2,0.6,5.8-2.6,5c-2.5-0.7-2.5-0.6-1.1,1.5c0.9,1.2,1.3,2.9,0.9,3.8c-0.3,0.9,1.1,0.2,3.6-1.7c3.3-2.6,4-3.7,3.3-5
		C509.6,322.4,508.2,320.8,507,319.7z M316.6,327.1c-6.7-5-6.8-5.1-5-1.9c2.7,4.7,7,8.7,11.7,11.1l4,2.1l-1.9-3
		C324.4,333.7,320.4,330,316.6,327.1z M512.1,328.1c-1.1,0.7-1.1,1.3,0,3.2c1.1,2,1.4,2.1,1.7,0.6
		C514.4,329,513.6,327.2,512.1,328.1z M327,330.9c0.1,1,4.7,6.3,5.5,6.3c1.3,0,0.3-2.7-1.9-4.8C328.1,330.1,327,329.6,327,330.9z
		 M508.2,332.3c-0.4,0-4.1,2.5-8.2,5.5c-4.1,3.1-8.3,6.1-9.4,6.9c-1.8,1.3-1.7,1.5,1.5,5.3c13.3,15.5,55.6,60.5,58.1,61.8
		c1.7,0.9,5.9,1.8,9.2,2.1c6.1,0.4,6.1,0.4,3.2-1.2c-1.6-1-2.4-2.1-2-2.5c1.2-1.2,27-1.7,31.4-0.6c2.3,0.5,3.1,0.5,2.5-0.2
		c-0.5-0.5-5.5-2.1-11-3.6c-11.6-3.1-13-3.8-12.2-5.9c0.4-1.2,1.5-1.4,3.9-1.1c2.1,0.4,5.3-0.2,8.8-1.6c3-1.2,9.1-2.6,13.5-3
		c7.8-0.9,7.7-0.9-3-0.5c-7,0.2-13.4,1.1-17.5,2.3c-10,3-11,3.2-16,2.1c-8-1.7-9.2-3.1-34-37.9c-4.9-6.8-11-16-13.5-20.2
		C510.9,335.7,508.6,332.2,508.2,332.3z M462.5,344.2c0.3,0.4,2.1,1,4,1.2c2.4,0.3,3.2,0.1,2.5-0.6
		C467.8,343.6,461.8,343.1,462.5,344.2z M314.3,392.2c-1.2,0-4.1,1.5-6.5,3.3c-11.5,8.7-20.3,37.1-13.5,43.5c3.1,3,5,2.8,13.4-1.2
		c9.8-4.7,11.1-6.2,10.4-11.7c-0.5-3.9-1.1-4.6-4.8-6.7c-7.6-4.2-4.8-7,3.3-3.3c6,2.7,6.8,1.2,3.2-5.8c-2.2-4.3-3-7.3-3.1-11.9
		C316.5,392.8,316.3,392.2,314.3,392.2z M473,396.9c-2.7-0.7-4.3,0.7-3.5,3.2c0.9,2.8-2,13.6-4.6,17.2c-1.7,2.4-1.8,3.3-0.9,4.4
		c1,1.2,1.9,1.1,6.1-1.1c2.8-1.3,5.4-2.2,5.9-1.9c2.1,1.3,0.8,3.2-3.2,5.1c-4.2,1.9-4.3,2-4.6,7.2c-0.4,6.2-0.2,6.4,9.4,11.2
		c10.1,5,15,3.8,16.4-4c0.7-3.7,0.3-5.9-2.7-14.4c-4.6-13.4-6.6-16.9-11.9-22.1C476.9,399.3,474,397.2,473,396.9z M594.6,398.3
		l-5.1,0.1l5.3,0.8c4.2,0.6,6.1,1.6,9.7,4.9c4.2,3.9,9.2,6.7,10.2,5.7c0.2-0.2-3-2.9-7.3-6C600.3,398.6,599.4,398.2,594.6,398.3z
		 M585.4,400.7c-1.7,1.3-1.7,1.4-0.2,1.5c0.9,0,2-0.5,2.3-1.1C588.6,399.4,587.5,399.1,585.4,400.7z M592.6,404.1
		c1.2,1.1,12.3,7.1,13.1,7.1c1,0-3-4.1-5.2-5.2C598,404.6,591.5,403.1,592.6,404.1z M341.4,415.5c-2.3,2-4.7,3.7-5.2,3.7
		c-1.2,0-4.2,3.4-4.2,4.7c0,0.6,3.4,1.9,7.5,2.9c5.6,1.3,7.5,2.2,7.5,3.4c0,2.9-1,2.9-7.5,0.5c-6.3-2.4-6.4-2.4-8.7-0.5l-2.3,1.9
		l2.9,8.3c5.8,16.6,10,22.8,15.5,22.8c3.2,0,12.4-9.4,16.3-16.6c7.3-13.4,7.8-33.7,1-37.3C359.2,406.6,348.1,409.7,341.4,415.5z
		 M505.5,414.9l-2-2.6l-3.8,3.3l-3.8,3.4l1.1,10.8c0.5,6,1.4,11,2,11.2c0.5,0.2,2.4,1.4,4.2,2.8c1.8,1.3,4.6,3.2,6.2,4.1
		c8.3,5.1,36.1,31.4,38.8,36.8c1.1,2.2,3.3,5.2,4.9,6.7c4,3.7,4,9.8,0,17.1c-4.1,7.3-9.4,21.4-12.6,33.4c-1.5,5.6-3.3,10.8-4.1,11.4
		s-2.4,0.9-3.7,0.5c-3-0.7-7.7-7.6-7.7-11.2c0-1.5-2-7.1-4.5-12.6s-4.5-10.6-4.5-11.5c0-0.8-0.9-2.6-2-4c-1.1-1.4-2-3.6-2-4.9
		c0-1.2-1.6-4.2-3.5-6.6c-1.9-2.4-4.6-6.3-6.1-8.8s-3.5-5.4-4.4-6.5c-1-1.1-2.5-3.5-3.4-5.3c-1.5-2.9-4.6-4.5-4.6-2.3
		c0,0.4,5.9,12.5,13,26.7c23.4,46.6,39.4,87,53.6,135.9c3.1,10.4,6,19.4,6.4,19.9c0.5,0.5,2.1,0.4,3.7-0.2
		c2.9-1.2,12.8-2.3,37.3-4.2c16.2-1.2,21.9-3.2,28.1-9.6l3.3-3.4l-3.3-10.3c-8.9-27.3-28.3-71.6-43.9-100.3
		c-4.5-8.2-24.2-40.8-26.8-44.5c-1.9-2.6-3.4-5-3.4-5.4c0-0.5-1-2.2-2.3-3.9c-1.3-1.7-5-6.9-8.2-11.6c-5.6-8.1-19.3-26-33.5-43.6
		C510.4,421.2,506.6,416.3,505.5,414.9z M424.3,413.2c-2.7,0-6.1,4.2-6.9,8.7c-2.2,11.9,7.3,37.9,15.9,43.6
		c3.5,2.3,7.9,2.2,11.1-0.4c7.6-6,14.8-28,10-30.7c-2-1.1-6.5-0.1-11.9,2.6c-2.6,1.3-4.1,1.7-4.4,0.9c-0.7-1.9,5.5-6.4,10.8-7.8
		c2.8-0.7,5.1-1.6,5.1-2.1c0-2.8-12.2-10.4-20.7-12.8C429.6,414.1,425.5,413.2,424.3,413.2z M592.3,414.2c-1.9,0-1.9,0,3.2,2.9
		l4,2.3l-2.8-2.6C595.2,415.4,593.2,414.2,592.3,414.2z M322.1,423.9c-1.4,2.7-0.4,7.3,1.6,7.3c1.6,0,5.2-7.4,5.3-10.8
		C329,416.3,325,418.3,322.1,423.9z M458.8,423.2c-1.9,0-2,0.4-1.5,4.6c0.6,5.3,3.9,9.6,5.8,7.7c1.7-1.7,1.3-7-0.6-9.9
		C461.7,424.3,460,423.2,458.8,423.2z M370.7,439.7c-0.9,2.2,4.9,3,22.5,2.9c17-0.1,20.8-0.7,20.8-2.9S371.5,437.5,370.7,439.7z
		 M324.3,443.1c-0.8-0.8-1.4,0.3-2.3,4.7c-0.6,3.3-2.2,10.6-3.6,16.4c-2.4,10.9-6.1,27.4-11.5,51.5c-1.7,7.7-4.4,19.6-6,26.4
		c-1.6,6.8-2.8,12.6-2.6,12.8c0.2,0.2,2.4-1.2,4.8-3c8.5-6.5,20.8-12.9,35.7-18.8c2-0.8,2.2-1.5,2.2-8.6c0-4.3-1.1-19-2.5-32.7
		c-2.1-20.6-2.9-25.4-4.6-28.2c-1.1-1.9-2.4-3.4-2.9-3.4c-0.4,0-1.1,3.6-1.4,8c-0.6,6.7-1,8-2.5,8c-1.6,0-1.8-1.3-1.7-15.9
		C325.5,449.4,325.1,443.9,324.3,443.1z M289.8,444.2c-2.5,0.1-8.5,4.4-25.6,18.7c-11.3,9.5-20.2,19.1-24.9,27.1l-2.6,4.4l5.1,10.6
		c2.8,5.9,6.5,14.7,8.1,19.5c1.6,4.9,3.1,9,3.3,9.3c0.3,0.2,1.5-2.4,2.7-5.8c8.5-24.3,27.6-55.2,46.5-75.5c3.2-3.5,5.7-6.5,5.5-6.8
		c-0.3-0.2-3.5,0.3-7.1,1.1c-5.3,1.2-8,2.6-12.9,6.5c-3.4,2.7-6.7,4.8-7.3,4.6c-2.5-0.8-1.2-2.9,4.8-7.8c3.6-2.9,6.6-5.4,6.6-5.6
		C292,444.3,291,444.2,289.8,444.2z M462.5,448.2c-0.1,0-0.8,1.4-1.5,3c-0.9,2.2-1.1,7-0.8,16.5c0.5,12.4,0.4,13.5-1.2,13.5
		c-2.1,0-3-3.7-3-11.8v-5.5l-2.1,1.9c-1.1,1-2.5,2.6-3,3.5c-1.2,2.2-6.1,67.1-5.2,67.9c0.5,0.4,7,3.6,14.7,7.1
		c7.6,3.5,16.6,8.2,20,10.6c3.3,2.4,6.4,4.3,6.7,4.3c0.4,0-0.1-3.5-1.1-7.8c-1-4.2-3-12.9-4.4-19.2c-4.2-18.9-8.6-38.7-11.6-52
		c-1.6-6.9-3.9-16.9-5.1-22.3C463.8,452.6,462.7,448.2,462.5,448.2z M417.3,450.2l-25.5-0.4l-25.6-0.5l-1.3,3.1
		c-1.9,4.7-11.3,13.4-16.6,15.4l-4.5,1.8l0.7,7c3.4,34,4.8,57.5,3.5,59.1c-0.6,0.8-7.5,4.6-15.3,8.6c-7.8,3.9-17.7,9.8-22,13
		c-4.3,3.2-9.8,7-12.3,8.5c-4,2.4-4.8,2.5-7,1.4c-3.5-1.9-3.8-4.8-1.5-11.8c1.2-3.4,2.1-7.2,2.1-8.4c-0.1-2.5,2.9-15.8,6.2-27.8
		c1.2-4.1,2.5-9.5,3-12c3-14.5,5.3-24.5,7.4-31.9c2.4-8.6,2.4-10.1-0.2-10.1c-2.3,0-25.3,48.9-33.1,70.5c-0.8,2.2-2.5,6.7-3.7,10
		c-10.3,27.5-16,46.4-24.7,82.4c-3.3,13.6-6.8,28.2-7.9,32.6l-1.9,8l2.5,2.6c1.4,1.5,5.1,3.7,8.2,4.9s7.5,2.9,9.7,3.8
		c3.2,1.3,8.3,1.6,25.5,1.7c11.8,0.1,25.1,0.5,29.5,0.9c8.3,0.9,20.1,4.8,22.2,7.4c1.2,1.4,4.7,2.9,15.3,6.5
		c17.1,5.9,31.7,7.9,42,5.8c3-0.6,9.2-1.8,13.7-2.6c11.3-1.9,14.8-3,27.6-8.1c9.6-3.9,13.3-4.8,25.8-6.4c12.2-1.6,16.5-1.7,25.5-0.9
		c38.3,3.5,52.6,2.9,64.1-2.8c4-2,8.2-4.7,9.4-5.9c2-2.1,2-2.7,1-7.6c-3.4-15.6-16.4-56.7-25.4-80.8
		c-12.2-32.1-33.4-78.8-51.2-112.1c-1.3-2.5-2.9-2.4-4.7,0.3c-1.3,1.9-1.2,2.9,0.8,9.2c1.2,3.9,3.2,12,4.3,18.1
		c1.2,6,3.3,15.2,4.7,20.3c1.4,5.2,2.7,10.3,3,11.5c0.2,1.2,1.5,6.7,2.9,12.2c1.5,5.5,2.9,13,3.2,16.7c0.6,6.6,0.5,6.7-2.1,8
		c-3.5,1.5-7.2-0.3-20.6-10.3c-9.6-7.1-17.4-11.6-24.2-13.8c-2-0.7-4.2-1.9-4.8-2.7c-0.7-0.7-2.1-1.4-3.1-1.4c-4,0-4.9-2.5-4.4-12.3
		c0.9-19,2.7-44.4,3.4-49.8l0.7-5.7l-6.2-4.2c-7.9-5.3-11.6-9.2-15.2-15.8L417.3,450.2z M501.6,455.7c5.7,4.4,6.2,5.1,4.7,6.2
		c-0.9,0.7-2.1,0.9-2.7,0.4c-0.6-0.4-3.5-2.7-6.4-4.9c-5.1-4-8.2-5.2-16.6-6.7l-4-0.7l6.1,6.5c13.1,14.1,29.7,37.5,37.7,53.4
		c3,6.1,10,23.5,11.1,27.8c0.7,2.7,1.1,2,4.1-7.5c1.9-5.7,5.7-15.1,8.4-20.8c4.7-9.9,4.9-10.5,3.5-13.2c-5.8-11.2-37.2-41-47.9-45.5
		C492.7,447.8,493.3,449.4,501.6,455.7z M289.5,480.2c-1,1.9-2.9,5.1-4.4,7c-3.1,4.1-8.5,14.1-14.1,26c-2.3,4.7-4.9,10.3-6,12.5
		c-1,2.2-2.2,5.3-2.5,6.8c-1.3,6.2-4.8,13.8-7.1,15.3c-5.2,3.5-9.4-0.8-9.4-9.5c0-3-5.1-18.5-6.5-20c-0.5-0.4-3.7,6.7-11.1,24.4
		c-3,7.1-6.1,14.5-6.9,16.2c-6.8,15.3-20.8,58-27.5,84.1c-2.5,9.9-2.5,9.9,6.9,14.6c8.4,4.2,11.9,5.3,20.8,6.6
		c9.4,1.3,11.8,0.4,12.7-4.7c1.4-7.5,5.9-27,8.7-37.6c1.6-5.9,2.9-11.3,2.9-12c0-0.6,1.4-5.7,3.1-11.2c1.7-5.5,4.7-15,6.6-21
		c1.8-6.1,4.2-13.3,5.2-16c1-2.8,3.3-9.1,5.1-14c4.5-12.4,11.6-29.2,23.3-54.5c5.4-11.8,10.1-22.1,10.4-22.8
		C301.8,465.5,292.2,474.7,289.5,480.2z M638,654.7c-0.5-0.3-1-0.3-1,0.2c0,1.4-8.5,6.2-14.6,8.3c-4.3,1.5-10.3,2.3-23.9,3
		c-23.7,1.2-33.5,3.1-33.5,6.5c0,1.9,1.2,1.9,7.5-0.1c2.8-0.8,12-1.9,20.5-2.5c21.3-1.3,29.5-2.5,36-5.5c5.9-2.7,10-6,10-8
		C639,655.9,638.6,655,638,654.7z M193,662.2l-3.2-2.3l0.4,2.3c0.2,1.7,2,3.2,6.8,5.7c8.3,4.2,17,6.4,26.7,6.6
		c11.5,0.3,10.2-1.7-2-3c-6.7-0.8-13-2.2-17.9-4.1C199.6,665.7,194.7,663.4,193,662.2z M644.6,678.1l-3.1-11.7l-3.5,2.9
		c-7.5,6.3-24.7,10-44,9.4c-9.8-0.3-12.5-0.1-18.5,1.9l-7,2.2l0.3,4.5c0.1,2.4,1.5,11.1,3.1,19.4c2.8,14.2,5.4,33.9,6.7,50.5
		c0.6,7.1,0.8,7.5,3.1,7.7c3.4,0.2,6.3-2.8,4.9-5c-0.8-1.2-0.5-2.1,0.9-3.6c1.7-2,1.9-2,3.7-0.5c2.2,2.1,2.3,2.8,0.2,4.9
		c-1.5,1.5-1.5,1.8-0.1,3.2c1.4,1.4,1.7,1.2,3.6-2.6c2.4-4.6,2.3-4.6,5.9-2.7c14,7,33.4,8.9,47,4.5c2.7-0.9,3.1-1.3,2.1-2.5
		c-0.7-0.8-2-1.2-3.1-0.8c-2.3,0.7-4.8-1.2-4.8-3.8c0-2.3,2.4-3.3,5.3-2.1c3,1.2,6.7,0.5,6.7-1.3c0-0.8,1.1-1.9,2.5-2.4
		c2-0.7,2.4-1.5,2-3.2c-0.6-2.8-4.2-24-4.9-28.7c-0.2-1.8-1.7-9-3.2-16C648.9,695.4,646.3,684.5,644.6,678.1z M190.9,673.1
		c-1.6-1.1-3-1.5-3.4-1c-0.3,0.6-1.5,7.2-2.6,14.8c-1,7.6-2.8,18.7-3.8,24.8c-1.1,6-2.2,13.9-2.6,17.5c-0.3,3.6-1.1,8.2-1.6,10.3
		c-1.1,4.2,0.4,10.3,3.1,12.4c1.2,0.9,1.9,0.8,3.5-0.8c1.9-1.7,2.3-1.7,4.3-0.3c1.2,0.8,2.2,2.1,2.2,2.8c0,1.5-4.7,3.9-6,3.1
		c-0.5-0.3-2,0-3.4,0.6c-2,1-2.9,0.9-4.2-0.2c-1.6-1.3-1.6-1.2-0.5,0.9c2.8,5.3,17.8,10.2,31.4,10.2c9.1,0,12.7-1,12.7-3.5
		c0-2.1-2.3-1.8-4.3,0.5c-2.1,2.5-4.3,2.5-5.9,0c-0.7-1.1-2-2-2.9-2s-2.3-0.8-3.3-1.8c-1.5-1.8-1.5-2,0.2-3.5c2-1.9,4.3-2.2,5.8-0.8
		c1.9,1.8,6.1,2.1,7.4,0.5c0.7-0.8,1.9-1.3,2.5-1c0.9,0.3,1.7-3.9,2.9-14.7c1-8.4,2.6-21.1,3.6-28.2c1.1-7.2,2.2-17.1,2.6-22l0.6-9
		l-6.9-0.1c-4.2-0.1-8.2-0.8-10.1-1.8c-1.7-0.9-4.1-1.6-5.4-1.6c-1.3,0-4.7-0.9-7.7-2.1C196.1,676,192.4,674.2,190.9,673.1z
		 M241.8,681.9c-5.9-2.9-6.8-3.1-6.8-1.6c0,2,11.3,9.2,18.3,11.6c2.9,1.1,12.8,1.9,32.7,2.8c32,1.5,34.2,1.9,50.9,9.4
		c20.9,9.4,41.2,12.7,59.6,9.7c8.9-1.5,27.8-6.1,30.3-7.5c2.9-1.5,23.4-6.9,30.7-8.2c6.7-1.1,40.1-0.7,46.5,0.6
		c1.4,0.3,8.8,0.6,16.5,0.7c15.2,0.3,21.6-0.8,29.8-4.9c4.8-2.4,12.7-8.8,12.7-10.4c0-0.4-3.7,0.9-8.2,3c-15.2,7-20.1,8.2-32,8.2
		c-5.9,0-13.4-0.2-16.5-0.6c-41.2-4.4-43.4-4.3-66.1,2.9c-30.5,9.8-43.4,12.6-58.2,12.6c-16.7,0-30.5-3.5-50-12.5
		c-6.3-2.9-13.3-5.9-15.5-6.5c-2.2-0.7-15.9-1.5-31-2c-20.5-0.6-28.2-1.1-32-2.4C250.8,685.9,245.5,683.7,241.8,681.9z M234,690.2
		c-0.4,0-2.2,12.3-4,27.2c-1.8,15-3.4,28.1-3.6,29.1c-0.9,5.1-1.6,23.7-0.8,23.7c0.5,0,1.6-0.5,2.4-1c1.1-0.7,2.3-0.1,4.7,2.2
		c1.8,1.8,3.3,3.7,3.3,4.3c0,0.6-1.2,2.8-2.6,4.9c-1.9,2.7-2.9,3.5-3.7,2.7c-0.6-0.6-2.1-1.1-3.4-1.1c-2.3,0-2.9,1.4-1.7,4.5
		c0.8,1.9,8.4,5.9,13.4,7c3.1,0.7,3.3,0.6,2.1-0.9c-0.7-0.9-2-1.6-2.7-1.6c-0.8,0-2-1.1-2.6-2.5c-0.9-2.1-0.8-2.8,0.7-4.5
		c1.3-1.5,2.2-1.7,3.6-0.9c1.1,0.5,1.9,1.6,1.9,2.4c0,1.9,3.3,1.9,7.1,0c3.2-1.7,6.9-0.7,6.9,1.9c0,1.9-3.3,4.6-5.7,4.6
		c-1.1,0-2.6,0.7-3.3,1.5c-1.1,1.3-0.4,1.5,5.3,1.5c7.1,0,18.2-2,23.5-4.3c3-1.2,3.2-1.5,1.6-2.8c-0.9-0.8-2.6-1.3-3.6-1.1
		c-2.2,0.4-4.8-1.4-4.8-3.3c0-0.7,0.9-2.3,2-3.6l2-2.4l2.1,2.5c1.5,1.6,2.3,2.1,2.6,1.2c0.3-0.6,1-1.2,1.6-1.2
		c0.6,0,2.1-0.9,3.3-2.1c2.1-2,2.3-2,4.8-0.4c3.3,2.2,3.3,3-0.1,5.2c-2.8,1.8-5.4,4.5-4.8,5.1c0.1,0.2,2.6-1.1,5.5-2.8l5.3-3.1
		l3.3,3.2c2.6,2.6,3.4,2.9,3.4,1.6c0-1-0.7-2.9-1.6-4.2c-1.3-2-1.4-2.8-0.4-4c2.6-3.1,8-0.5,6.6,3.1c-0.4,1,0.1,2.5,1,3.5
		c1.3,1.4,2,1.6,3.5,0.6c1.5-0.9,2.2-0.7,4.2,1.1l2.5,2.3l0.6-2.5c0.6-2.3,1.1-2.6,5.1-2.6c4.8,0,5.7,0.9,6.9,6.5
		c0.6,2.7,0.2,3.2-3.4,5.3l-4,2.3l-3-2.3c-1.7-1.2-3-3.1-3-4.1c0-1.9-0.1-1.9-1.8-0.4c-2.3,2.1-3.1,2.1-5.1,0.3
		c-1.3-1.2-1.9-1.2-3.3-0.2c-1.6,1.2-1.4,1.6,2,4.8c4.4,4.3,19,14.8,20.5,14.8c0.5,0,0.2-0.9-0.8-2c-1-1.1-1.5-2.3-1.2-2.6
		c0.3-0.4-0.4-1.5-1.6-2.5c-1.8-1.4-2-2.1-1.1-3.6c0.6-1,1.9-2,2.8-2.1c1.9-0.4,5.8,2.6,5.1,3.8c-0.3,0.4,0.2,1.3,0.9,1.9
		c1.1,0.9,1.9,0.9,3.6-0.1c1.8-1.1,2.3-1,3.6,0.6c1.9,2.6,1.8,4-0.6,6.1c-1.8,1.6-2,1.6-3.6,0.1c-1.2-1.3-1.9-1.4-3-0.5
		c-0.8,0.6-1.4,1.4-1.4,1.8c0,1.4,13.4,6.1,24.7,8.5l6.3,1.3l-1.6-2.6c-0.9-1.5-2.6-3.1-3.7-3.7c-2.8-1.2-3.3-4.1-1.1-6.5
		c1.7-1.9,1.8-1.9,4,0.2c1.3,1.2,2.1,2.7,1.7,3.2c-0.4,0.6,0,0.8,1,0.4c0.9-0.3,1.9-0.1,2.3,0.5c0.4,0.7,1.2,0.1,2.1-1.6
		c1.8-3.4,3.5-3.3,5.6,0.3c1.4,2.4,1.4,3.1,0.3,4.6c-0.8,1.2-2,1.6-3.5,1.2c-1.5-0.3-2.6,0.1-3.6,1.6c-1.5,2.1-1.4,2.2,1.7,2.8
		c4.1,0.7,29.5,0.2,30.9-0.7c1.6-0.9-1.9-4.3-3.9-3.7c-1,0.2-2.6-0.5-3.6-1.6c-1.7-1.9-1.7-2,0.4-4.1c2-2,2.3-2,4.5-0.6
		c3.2,2.1,5.1,2,6.7-0.2c2.2-3,3.5-3.3,6.2-1.1c2.6,2,2.6,2.2,1,4c-0.9,1.1-2.1,1.9-2.5,1.9s-2,1.1-3.5,2.5c-1.5,1.4-2.4,2.5-2,2.5
		c2.1,0,21.6-5.4,27.4-7.6c9.6-3.6,21.9-10.5,31.3-17.7c4.5-3.4,9-6.8,10-7.6c1.6-1.1,2.5-1.1,6,0.3c3.3,1.4,4.4,1.4,5,0.5
		c0.5-0.8,0-1.8-1.2-2.7c-2.4-1.7-2.4-3.4,0-5.6c1.9-1.7,2.1-1.7,4.5,0.1c1.4,1,2.6,2.6,2.6,3.5c0,2.4,1.6,3.1,3.8,1.7
		c1.5-0.9,2.4-0.8,4.5,0.6c3.4,2.2,3.4,2.8,0,5c-2,1.3-3.1,1.5-4.4,0.7c-1.6-1-2.9-0.7-2.9,0.9c0,0.8,12.1,5.4,21.2,7.9
		c6.6,1.8,6.7,1.8,5.5-0.1c-0.6-1-1.9-1.9-2.7-1.9c-0.8,0-2.1-1-2.9-2.2c-1.2-1.9-1.1-2.3,0.5-3.5c2.6-1.9,4.2-1.6,7.6,1.2
		c2.8,2.4,3.2,2.4,4.8,1c2.1-1.9,3.9-1.9,6.5,0.1c2,1.5,2,1.6-0.8,3.9c-1.5,1.3-3.3,2.2-4,2c-1.5-0.6-4.4,1.1-3.5,2
		c0.8,0.8,20.7,0.7,27-0.1c4.7-0.6,4.8-0.7,3.2-2.6c-1.2-1.2-2.1-1.5-2.8-0.8c-1.5,1.5-2.4,1.2-4.1-1.4c-2.8-4.2,1-8.3,4.6-5
		c1.5,1.4,2.1,1.4,3.4,0.4c0.8-0.7,1.5-0.9,1.5-0.4s0.7-0.2,1.6-1.4c1.9-2.7,4.5-2.8,6.9-0.2c1.7,1.9,1.7,2.1,0,4
		c-1,1.1-2.3,2-2.9,2c-0.7,0-1.9,0.9-2.9,2c-0.9,1.1-1.5,2-1.2,2c1.3,0,17.1-6.2,19.1-7.5c2.1-1.3,2.2-1.8,1.2-4
		c-0.9-2-0.8-2.8,0.5-4.3c3.8-4.2,1-42.4-5.9-80.1c-2.5-13.3-1.8-12.8-10.5-7.3c-6.6,4.3-8.8,5.1-19.4,7.2
		c-11.2,2.2-12.6,2.3-24.7,1.1c-7-0.6-20.8-1.4-30.5-1.8c-24.4-0.8-35.8,1.1-59.3,9.9c-13.9,5.2-33.8,7.9-50.5,6.7
		c-13.5-1-20.7-3-35.5-9.9c-18.9-8.9-23.7-10.1-37.8-9.5c-18.7,0.8-40.1-1-49.1-4.1c-9-3.1-12.3-4.7-14-6.8
		C235.3,690.9,234.4,690.2,234,690.2z M654.6,758.8c-0.9,2.4-0.8,2.4,1.9,1.2c1.4-0.6,2.5-1.5,2.5-2
		C659,756.5,655.2,757.2,654.6,758.8z M600.3,762c-0.8-0.6-1.6-0.2-2.4,1.4c-2.4,4.6-8.2,11-13.2,14.3l-5,3.4l-0.1,8.3
		c-0.1,7.9-0.2,8.2-2.6,8.9c-2.3,0.6-2.2,0.7,0.8,0.8c4.4,0.1,8.8-2.3,10.7-5.9c1.8-3.5,1.8-3.5,5-1.4c2.4,1.6,3.5,0.8,1.6-1.1
		c-0.6-0.6-0.3-1.9,1-3.5l1.9-2.5l2.1,2.5l2.1,2.4l-2.7,2.3l-2.6,2.3h4.5c3.3,0,5.1-0.6,6.8-2.3c1.3-1.2,1.9-1.9,1.4-1.5
		c-1.6,1.3-4.3,0.9-5.6-0.8c-1.1-1.2-1-1.8,0.3-3.2c1.5-1.4,2.2-1.5,4.9-0.4c4.1,1.5,6.2-0.1,3-2.4c-2.9-2-2.8-4.2,0.3-5.6
		c1.9-0.8,2.8-0.8,4,0.2c2,1.6,1.9,3.6-0.1,4.4c-1.3,0.5-1.4,0.9-0.4,2.1c1.4,1.7,3.5,2.1,2.5,0.5c-0.9-1.5,1.4-4,3.7-4
		c2.4,0,3.3,2.3,1.8,5.1c-1.2,2.1-1.1,2.2,3,1.6c5.3-0.7,5.9-1.4,3.2-3.3c-2.6-1.8-2.8-3.7-0.7-5.4c1.2-1,2-0.9,4,0.4
		c1.3,0.9,2.7,1.6,3,1.6c1.1,0,0.4-3.8-1-5c-2.1-1.7-1.9-3.7,0.6-5.1c1.7-0.9,2.5-0.8,3.7,0.5c1.4,1.4,1.5,2,0.4,3.7
		c-0.8,1.2-1.2,2.2-1,2.3c0.2,0.1,1,0.7,1.9,1.4c1.4,1,1.6,0.9,1.2-1.1c-0.3-1.4,0.3-2.9,1.5-4c1.9-1.7,2-1.7,3.7,0.9
		c1.7,2.7,1.7,2.8-0.5,4.6l-2.2,1.8h3c1.7,0,3.7-0.3,4.6-0.6c1.3-0.5,1.2-0.9-0.6-2.4c-2-1.5-2.1-2-0.8-3.4c0.9-1.2,2.2-1.5,3.7-1.1
		c2.1,0.5,2.3,0.3,1.8-2c-0.3-1.4-0.7-3.6-1-4.9c-0.5-2.4-0.6-2.5-3.9-1.1c-4.6,1.9-12.4,3-21.6,3c-10,0-16.3-1-23-3.6
		C604,763.9,601,762.5,600.3,762z M589.4,768.3c-0.3,0.6-1.5,0.8-2.5,0.6c-1.3-0.4-2.5,0.3-3.5,1.9c-0.9,1.3-2,2.1-2.5,1.8
		c-0.5-0.3-0.9,0.4-0.9,1.5c0,1.2,0.3,2.1,0.6,2.1c1.2,0,9.3-6.3,9.8-7.6C591,766.9,590.4,766.7,589.4,768.3z M182.1,768.2
		c-0.5,0-1.1,1.3-1.3,3c-0.4,2.4-0.1,3,1.6,3.2c2.5,0.4,3.5,4.6,1.4,5.9c-1.1,0.7-1,1.1,0.2,1.9c2.3,1.5,2.8,1.2,2.3-1.3
		c-0.3-1.4,0.3-2.9,1.6-4.1c2.1-1.9,2.2-1.9,3.6,0c0.8,1,1.5,2.7,1.5,3.6c0,1,0.7,1.8,1.5,1.8c1.7,0,2-1.6,0.5-2.5
		c-1.3-0.8-0.1-3.4,2.1-4.6c1.3-0.6,2.5-0.6,3.9,0.3c2.6,1.6,2.6,4.4,0,5.8c-1.1,0.6-2,1.6-2,2.2c0,0.9,0.3,0.9,1.2,0
		c3.4-3.4,8.5,1.3,5.3,4.8c-0.9,1-1.4,2.4-1,2.9c1,1.7,2.5,1.3,2.5-0.7c0-2.1,1.8-4.2,3.7-4.2c0.8,0,2.5,1.1,3.9,2.5
		c1.4,1.4,3,2.2,3.6,1.9c0.6-0.4,0.5-1-0.3-1.5c-1.2-0.7-1.1-1.4,0.4-4c1-1.8,1.7-5.1,1.7-8v-4.9h-10.2c-6.8,0-13.1-0.7-18.6-2
		C186.6,769.1,182.5,768.2,182.1,768.2z M657.6,776.2c-0.3,0-0.8,0.4-1.1,1c-0.3,0.5-0.1,1,0.4,1c0.6,0,1.1-0.5,1.1-1
		C658,776.6,657.8,776.2,657.6,776.2z M293.1,790.6l-2.6-2.1l-7,3.3c-8.5,4.1-20.6,7.3-28.6,7.6c-3.2,0.1-5.9,0.4-5.9,0.6
		c0,0.2,1,1.2,2.3,2.3l2.2,1.9l-2.3,2c-1.3,1.1-2.1,2.4-1.7,2.9c0.3,0.6,1.4,0.2,2.6-1c1.5-1.5,2.4-1.7,3.9-0.9
		c2.1,1.1,2.7,4.5,1,5.5c-1.7,1-1.1,3.2,1,3.8c2.2,0.6,2.6-0.3,1-1.9c-0.7-0.7-0.2-1.8,1.4-3.3c2.3-2.2,2.5-2.2,5-0.6
		c1.4,1,2.6,2.2,2.6,2.8c0,0.8,0.3,0.8,1.1,0s0.7-1.6-0.2-3.1c-1-1.7-1-2.3,0-3.6c1.7-2,4-2,6.5-0.1c1.9,1.5,1.9,1.5-0.4,4
		c-1.3,1.4-2,2.8-1.5,3.2c0.4,0.5,1,0.2,1.2-0.5c0.3-0.7,1.3-1.7,2.3-2.2c1.4-0.8,2.1-0.4,3.5,1.6c1.6,2.5,1.6,2.7-0.5,4.9l-2.1,2.3
		l3.2,1.1c4.1,1.4,4.6,1.4,3.1-0.1c-1.6-1.6-1.5-3.9,0.3-6.2c1.5-1.9,1.5-1.9,4,0.4c1.4,1.3,2.3,3,2.1,3.7c-0.4,1-0.1,1.1,1.4,0.3
		c1.6-0.9,1.8-1.4,0.8-2.9c-0.9-1.5-0.9-2.3,0.1-3.5c1.8-2.2,4.4-2,6.7,0.5c1.9,2.1,1.9,2.2-0.3,3.6c-1.3,0.9-2.3,2.2-2.3,3.1
		c0,1.3,0.2,1.3,1.8-0.1c2.4-2.2,4.5-2.1,6.6,0.2c1,1.1,2.5,1.7,3.7,1.4c2.3-0.6,6.2,2.4,5.2,4.1c-0.3,0.6-0.2,0.7,0.3,0.3
		c0.5-0.5,0.9-2,0.9-3.4c0-3.7,2.7-5.1,5.9-3c3.3,2.2,3.3,3.3-0.1,5.1c-1.6,0.8-2.3,1.5-1.8,1.5c0.6,0.1,1.7-0.3,2.5-0.9
		c0.9-0.6,2.3-0.3,4.2,0.8c3.5,2,3.5,2.5,0.1,5.1c-2.9,2.4-2.9,2.7,0.8,3.6c2.4,0.6,2.5,0.4,2.1-2.3c-0.3-2.4,0-3.1,1.7-3.7
		c2.6-0.8,4.8,0.8,5.3,3.6c0.3,1.8,0.5,1.9,2.3,0.6c1.6-1.2,1.7-1.8,0.7-3c-1.5-1.8-0.6-4.4,1.8-5.2c2-0.6,7.3,2.2,6.5,3.5
		c-0.2,0.4,0.4,1.5,1.5,2.5c2.3,2.1,2.6,4.5,0.8,6.3c-1,1-1,1.5,0.2,2.2c2.5,1.6,3.7,1.1,3.3-1.2c-0.5-3,3.1-5.5,5.3-3.7
		c0.8,0.6,1.4,1.8,1.4,2.5c0,1.7,1.2,1.8,2.8,0.2c0.8-0.8,0.8-1.7,0-3.1c-0.9-1.7-0.7-2.4,1.1-3.9c2.1-1.6,2.4-1.6,4.7-0.2
		c3,2,3,3.1,0.2,5.4c-1.3,1-2,2.2-1.6,2.6c0.5,0.4,1.6,0,2.6-0.9c2.4-2.2,3.1-2.1,5.9,0.5c2.2,2.1,2.3,2.1,4.3,0.3
		c1.9-1.7,2.1-1.7,3.8-0.2c3.1,2.8,5.9,1.8,3.1-1c-0.9-0.9-0.8-1.8,0.5-3.7c1.9-3,2.4-3.1,5.1-1.1c1.7,1.4,1.8,1.9,0.7,4.7
		c-1.4,3.7-0.8,4.9,1.2,2.3c1.2-1.7,1.8-1.8,4-0.7c2,0.9,2.6,1.9,2.6,4.2s0.4,3,2,3c2.1,0,2.6-1,1.1-2.6c-1.3-1.3,0.5-5.4,2.4-5.4
		c0.9,0,2.6,0.7,3.9,1.6c3.1,2,4.5,0.1,2-2.7c-1.7-1.8-1.7-2.3-0.4-4.6c2.1-3.7,3.3-3.8,5.2-0.5c1.2,2,1.4,3.2,0.6,4.6
		c-0.7,1.3-0.7,2.1,0.2,2.9c1,0.9,1.4,0.9,1.7-0.1c0.3-0.7,1.2-1.9,2-2.8c1.4-1.3,1.8-1.3,3.8,0c2.1,1.4,2.4,1.3,4-0.4
		c2-2.3,4.5-2.6,6.3-0.8c1.9,1.9,2.7,0,0.9-2c-2.2-2.4-2.1-3.5,0.3-5.7c2-1.8,2.1-1.8,4.5,0.5c2.3,2.2,2.4,2.5,0.9,4.1
		c-0.9,1-1.3,2.3-0.9,2.8c1,1.7,1.9,1.3,3-1.1c1.4-3.2,3.9-3.3,5.5-0.4c1,2.1,1.1,2.8,0,4.1s-0.9,1.5,1.2,1.5c3.3,0,4-0.9,2.3-2.7
		c-1.9-1.9-1.9-2.6,0.4-5.4l1.9-2.4l2.6,2.4c2.2,2.1,2.6,2.2,3.2,0.8c0.3-0.9-0.1-2.4-1.1-3.3c-1.9-2-1.6-4.3,0.7-5.8
		c1.3-0.8,2.4-0.5,4.8,1.3c1.8,1.2,3.4,2,3.7,1.7c0.4-0.3,1.7,0.1,3,0.9c1.7,1.2,2.3,1.2,2.3,0.3c0-0.7,0.9-1.9,2.1-2.6
		c2-1.3,4-0.6,6,2.2c0.4,0.4,0.9,0.4,1.3-0.2c0.3-0.5-0.3-1.7-1.4-2.7c-2.7-2.4-2.5-4.3,0.5-5.7c2.3-1,2.9-0.8,5.2,1.4l2.6,2.6
		l-2.2,1.1c-1.2,0.7-1.9,1.7-1.5,2.2c0.3,0.6,1.2,0.2,2.1-1c1.6-2.4,4.3-2.7,6.2-0.8c1,1,1.7,0.6,3.6-1.7l2.4-3l2,2.5
		c1.4,1.7,2.3,2.1,3.1,1.3s0.7-1.4-0.5-2.4c-3.2-2.7-0.6-7.8,3.4-6.5c3.6,1.1,4.6,3.3,2.6,5.5c-1,1.1-1.4,2-0.8,2
		c0.5,0,1.8-0.9,2.8-2c2.6-2.9,5.9-0.9,5.1,3c-0.4,2.3-0.2,2.8,1.3,2.7c1.4-0.1,1.8-0.9,1.7-3.6c-0.1-4.1,2.4-5.3,5.4-2.6
		c1.5,1.4,1.8,1.4,2.3,0.1c0.3-0.8-0.1-2-0.9-2.6c-1.6-1.5-1.8-4.2-0.4-5.6c0.8-0.8-1.7-1.3-8.2-1.7c-11.8-0.8-25.2-4.5-39.5-10.9
		l-11.3-5l-4.7,4c-15.8,13.2-37.8,23.5-60.6,28.4c-14.8,3.2-42.3,3.2-55,0c-17.3-4.3-32.2-12.3-46.1-24.7
		C299.3,795.9,294.6,791.8,293.1,790.6z M232.4,796.7c-3-0.7-3.2-0.6-3.6,2.9c-0.3,2.9-0.1,3.6,1.3,3.6c2.8,0,4.4,2.7,3.1,5.4
		c-1.2,2.7-0.7,3.6,2,3.6c1.5,0,1.7-0.4,0.9-1.9c-0.8-1.4-0.6-2.3,1-3.6c1.8-1.7,2.1-1.8,5.4-0.2c3.8,1.8,4.1,1.7,2.3-1.3
		c-1.1-1.6-1-2.3,0.5-3.7c1.7-1.7,1.5-1.8-4-2.9C238.1,798,234.1,797.1,232.4,796.7z M570.2,800.3c-0.7,0.1-12.5,4.9-12.9,5.3
		c-0.1,0.1,0,1.2,0.4,2.4c0.4,1.7,1,2.1,2.8,1.6c3.3-0.8,7.1,3.5,4.5,5.1c-1.8,1.1-1,2.5,1.3,2.1c1.7-0.2,2.1-0.9,1.9-2.9
		c-0.3-2.1,0.2-2.8,2.2-3.3c2.1-0.5,2.5-1.1,2.1-3c-0.3-1.3-0.7-3.5-1-4.9C571.2,801.3,570.6,800.2,570.2,800.3z M548.6,807.4
		c-1.1,0.1-4.9,0.3-8.3,0.5c-5.9,0.4-6.2,0.5-5.1,2.3c1,1.5,0.9,2.3-0.6,3.9c-1.2,1.4-1.5,2.1-0.7,2.1c0.7,0,2.1-1,3.1-2.2
		c1.8-2.2,1.8-2.3,3.9-0.4c1.2,1.1,2.1,2.7,2.1,3.8c0,1,0.6,1.8,1.3,1.8c0.9,0,1.2-0.9,0.9-2.9c-0.6-4,2.5-5.7,5.8-3.4
		c2.2,1.6,2.3,1.6,1.6-0.3c-0.5-1-1.1-2.7-1.3-3.7C551,807.9,549.9,807.3,548.6,807.4z M305.5,824.5c0-0.1-0.7,0.2-1.5,0.8
		c-1.3,0.8-1.3,1,0,1.9c0.8,0.5,2.1,1,2.9,1c1.1,0,1.1-0.3,0-1.8C306.2,825.5,305.5,824.6,305.5,824.5z M496.4,826.7
		c-1.8,1.4-1.8,1.4,0.3,1.5c1.2,0,2.4-0.4,2.8-0.9C500.5,825.6,498.4,825.2,496.4,826.7z M466.1,827.2c-0.6,0-1.3,0.4-1.6,1
		c-0.3,0.5,0.1,1,0.9,1c0.9,0,1.6-0.5,1.6-1C467,827.6,466.6,827.2,466.1,827.2z M344,831.2c-0.8,0.5-1.2,1.2-0.9,1.5
		c0.4,0.3,1.2-0.1,1.9-1C346.4,830,346.1,829.8,344,831.2z M427.7,840c-1.6,1.8-1.5,1.8,1.3,1.4c2.5-0.3,2.8-0.7,1.9-1.8
		C429.5,837.9,429.6,837.8,427.7,840z M377.7,841.8c-1-1.1-1.7-1.1-3-0.1c-0.9,0.6-1.4,1.5-1,1.8c0.8,0.9,5.3,0.9,5.3,0.1
		C379,843.3,378.4,842.5,377.7,841.8z"/>
	<path d="M379.9,108c4.8,5.6,6.3,14.3,3.9,22.4c-1.1,3.8-1,4,2.3,6.8l3.4,2.9l-3.6,0.1c-2.5,0-4.2-0.7-5.8-2.4
		c-2.2-2.3-2.2-2.5-0.7-7.7c2.1-7,2-10.8-0.4-17.1c-1.1-2.9-2-6-2-6.8C377.1,105.3,378.1,105.9,379.9,108z"/>
	<path d="M406.5,146.8c-7.9,8.7-13.9,12.2-18.6,10.5c-1.7-0.6-4.3-2.1-5.9-3.3c-1.6-1.3-4.7-3.4-6.9-4.8c-2.3-1.3-4.1-3-4.1-3.8
		c0-0.7,0.3-1.2,0.8-1c0.4,0.2,1.9,1,3.3,1.7c2.3,1.1,3.2,1,7.5-1c3.3-1.5,7.7-2.5,13.4-2.9c4.7-0.3,10.1-1.3,12-2.2
		C414.9,136.8,414.7,137.6,406.5,146.8z M391.1,150.5c-3.7,0.6-5,1.2-4,1.8c2.1,1.3,6.3,1.1,8.5-0.5
		C398.3,149.8,397.3,149.4,391.1,150.5z"/>
	<path d="M419,196.2c17.7,0,19.1,0.1,18.8,1.7c-0.3,1.6-2,1.8-18.8,1.8c-16.8,0-18.5-0.2-18.8-1.8
		C399.9,196.3,401.3,196.2,419,196.2z"/>
	<path d="M289.9,215.6c4,6.4,2.5,7.3-3.3,1.8c-5.3-5-7-5.9-13.1-6.4c-1.9-0.2-3-0.9-3-1.8s1.3-1.7,3-2
		C279.2,206.1,286.3,209.7,289.9,215.6z"/>
	<path d="M355.4,231.2c2.3,5.8,2,7.2-2,9.8l-3.5,2.3l-3.5-2.2c-3.5-2.1-3.6-2.3-2.9-6.8c0.9-5.8,1.2-6.4,3.9-5.7
		c1.1,0.3,2.8,0.1,3.6-0.4C353.3,226.7,353.7,226.9,355.4,231.2z"/>
	<path d="M413.7,237.9c4.4,2.6,4.5,2.7,3.9,6.7c-0.8,5-1.1,5.3-5.8,6.1c-3.5,0.7-3.7,0.5-6.2-3.7c-3.2-5.5-3.4-7.3-0.7-5.6
		c1.5,0.9,2.3,0.9,3.5-0.2c1.5-1.2,1.5-1.5,0.1-3c-0.8-0.9-1.5-2-1.5-2.3C407,234.6,409.2,235.2,413.7,237.9z"/>
	<path d="M383.5,238.9c3.1,3.5,3.1,4.7,0,8.8c-2.4,3.1-2.7,3.2-6.4,2.3c-3.5-0.9-4-1.5-4.9-5.1c-1.3-4.8-1-5.3,3.1-7.1
		C379.9,235.7,380.8,235.9,383.5,238.9z"/>
	<path d="M356,242.2c1.8,0,5.4,3.3,4.5,4.2c-0.3,0.3,0.2,1.1,1.1,1.8c1.6,1.4,2.5,0.8,3.8-2.5c0.4-1.3,3.5,0.5,5,2.8
		c1.5,2.4-2.6,6.6-4.7,4.9c-1.1-0.9-1.8-0.8-3.2,0.8c-2.5,2.8-3.1,2.6-6.2-2.1c-1.6-2.3-3.2-4.8-3.7-5.5c-0.7-0.8-0.5-1.8,0.3-2.8
		C353.7,242.9,355,242.2,356,242.2z"/>
	<path d="M390.5,249.2c0.8,1.4,5.1,1.3,7.5-0.2c1.5-1,2.4-0.9,4.4,0.2c1.4,0.7,2.6,1.9,2.6,2.6c0,1.6-4,4.5-5.2,3.8
		c-0.5-0.4-2,0.4-3.4,1.7l-2.4,2.2l-2.2-2c-1.3-1.2-3.2-2.3-4.2-2.5c-2.8-0.5-4.3-3.3-2.7-5.2C386.4,248,389.6,247.7,390.5,249.2z"
		/>
	<path d="M435.7,259.8c-2.4,14.7-23.9,23.9-38.4,16.6c-4-2.1-8-5.8-7.1-6.7c0.3-0.3,2.6,0.4,5.2,1.6c6.6,2.9,14.1,3.9,20,2.7
		c5.7-1.2,12.3-6.6,16.3-13.5C434.8,255.2,436.5,254.9,435.7,259.8z"/>
	<path d="M598.7,741.3c3.2,2,3.5,2.5,2.9,5.8c-0.6,4.1-2.8,6.1-6.5,6.1c-2,0-3.2-1-4.9-4c-2.1-3.7-2.1-4-0.4-4
		c2.3,0,4.2-1.9,4.2-4.2S594.5,738.7,598.7,741.3z"/>
	<path d="M637.4,745.7c2.9,2.3,2.9,2.5,1.6,6.4c-1.3,4-1.5,4.1-5.7,4.1c-3.6,0-4.5-0.4-5.2-2.3c-2.4-6.3-2.4-6.6,1.1-8.7
		C633.3,742.7,633.8,742.7,637.4,745.7z"/>
	<path d="M611,754.8c0,2.6-2.4,3.8-5.1,2.4c-2.2-1.2-2.4-2.3-0.7-5C607.3,748.8,611,750.5,611,754.8z"/>
	<path d="M622,754.7c2.8,3.4-1.6,8.4-4.7,5.3c-1.5-1.5-1.5-2.1-0.3-4.3C618.5,752.9,620.2,752.5,622,754.7z"/>
	<path d="M199.1,742.3c0.3-0.1,2,1.5,3.8,3.4l3.2,3.6l-3.1,3.9c-2.8,3.5-3.5,3.9-6.3,3.3c-4.2-0.8-4.4-1-5.2-6.4
		c-0.7-4.6-0.7-4.6,3.2-6.1C196.8,743.1,198.8,742.4,199.1,742.3z"/>
	<path d="M297.8,766l3.4,2.8l-1.9,4c-1.6,3.5-2.2,3.9-6,4.2c-4,0.3-4.3,0.1-5.8-3.4c-2.1-5-1.9-5.6,1.8-8.2
		C293.3,762.6,293.8,762.6,297.8,766z"/>
	<path d="M469.9,766.2c0.4,0,2.2,1.3,4.1,2.9c3.4,2.8,3.4,2.8,2,7c-1.3,4-1.4,4.1-6.1,4.1c-4.6,0-4.7-0.1-6.3-4.1
		c-1-2.3-1.3-4.5-0.9-4.9c0.4-0.4,2.1-1.6,3.7-2.8C468,767.2,469.6,766.2,469.9,766.2z"/>
	<path d="M255.5,770.2c1,0,10.5,5,10.5,5.6c0,0.3-0.5,2.5-1.1,5c-1.1,4.4-1.2,4.4-5.5,4.4c-3.9,0-4.7-0.4-6.4-3.3
		c-2.1-3.3-2.1-5.4-0.1-4.9c0.7,0.1,2.1-0.4,3.2-1.1c1.7-1.3,1.8-1.6,0.4-2.7c-0.8-0.7-1.5-1.6-1.5-2.1S255.2,770.2,255.5,770.2z"/>
	<path d="M565,777.7c4,1,7.2,3.5,6.6,5.2c-0.3,0.8-0.6,2.7-0.6,4.3c0,2.4-0.5,2.9-4.2,3.8c-3.9,1-4.5,0.9-6.1-1.1
		c-3.6-4.6-3.7-5.2-0.9-9.1C562,777.7,562.8,777.2,565,777.7z"/>
	<path d="M508.3,781.5c3.4,3.9,3.4,5.6-0.1,9c-2.5,2.4-3.1,2.6-6.4,1.5c-3.4-1-3.6-1.4-4-5.5c-0.4-4.8,0.4-5.9,4.9-7.3
		C505.1,778.5,505.9,778.8,508.3,781.5z"/>
	<path d="M464.3,782c1.6,1.7,1.5,2.1-0.2,5.6c-2.8,5.4-4.2,6.8-6.4,6.2c-1.1-0.3-2.8-0.1-3.8,0.4c-2.3,1.3-4.7,0.3-5.4-2.1
		c-1-3,1.4-5.2,4.7-4.5c2.4,0.5,3,0.1,4.4-2.7c0.9-1.7,2.2-3.5,2.8-3.9C462,779.9,462.5,780,464.3,782z"/>
	<path d="M533.4,782.3l3.8,3l3.8,3l-2,3.9c-2.5,4.8-2.9,5.1-7.2,4.3c-3.2-0.5-3.7-1-4.8-4.9c-0.7-2.5-1.1-4.6-0.9-4.7
		c0.2-0.2,2-1.3,3.8-2.4L533.4,782.3z"/>
	<path d="M438.9,785.2c4.6,0,5,0.2,6,3.1c1.7,4.9,1.4,6.3-2,8.8c-3.1,2.3-3.1,2.3-6.6,0.5c-4.4-2.4-4.7-3.2-3.3-8.3
		C434.1,785.2,434.1,785.2,438.9,785.2z"/>
	<path d="M350,795.3c0.8-0.1,5,6.8,5,8.2c0,0.7-1.3,2.6-3,4.2c-3,2.9-3,2.9-6.6,1.2c-3.4-1.6-3.5-1.9-3.2-6.4
		c0.3-4.3,0.6-4.7,3.8-5.9C347.9,795.9,349.7,795.3,350,795.3z"/>
	<path d="M414.5,797.6c3.1,1.3,3.5,1.9,3.5,5.2c0,3.7,0,3.7,2.1,1.8c1.6-1.5,2.4-1.6,3.9-0.6c2.4,1.5,4.3,0.8,5.5-2
		c1.8-3.8,4.2-4.6,6.7-2l2.3,2.3l-2.2,1.8c-1.2,1-1.9,2.1-1.6,2.5c0.9,0.9-2.8,4.6-4.7,4.6c-0.9,0-2.1-0.5-2.8-1.2
		c-0.8-0.8-1.5-0.8-2.7,0.2c-1.4,1.1-1.9,1-3.7-0.7c-1.8-1.9-2.3-1.9-4.7-0.7c-1.4,0.8-3.6,1.4-4.8,1.4c-2.5,0-7.6-5.6-6.6-7.3
		c0.3-0.7,1.5-2.4,2.5-4C409.4,795.8,409.9,795.7,414.5,797.6z"/>
	<path d="M384.1,803.8l3.7,2.6l-1.7,4.1c-1.6,3.8-2.1,4.2-5.8,4.5c-4.3,0.3-5.4-0.5-7.1-5.5c-1-2.9-0.8-3.3,2.1-5.7
		C379.3,800.6,379.6,800.6,384.1,803.8z"/>
	<path d="M592.1,783.2c2.6,1.5,2.4,3.4-0.7,5.1c-2.3,1.2-2.7,1.2-4-0.6c-1.2-1.6-1.2-2.1,0.3-3.7
		C589.6,781.9,589.6,781.9,592.1,783.2z"/>
	<path d="M586.6,789.7c0.9,3.6-0.2,5.7-2.8,5.3c-2.9-0.4-3.5-3.4-1.2-5.9C584.9,786.6,585.8,786.7,586.6,789.7z"/>
	<path d="M779.4,836.3c4.9,2.1,5.6,4.2,1.7,4.7c-2.2,0.4-8.1-4-8.1-6C773,833.8,774.3,834,779.4,836.3z"/>
</g>
</svg>
