<?xml version="1.0" encoding="utf-8"?>
<!-- Generator: Adobe Illustrator 21.0.0, SVG Export Plug-In . SVG Version: 6.00 Build 0)  -->
<svg version="1.1" baseProfile="tiny"
	 id="svg76" inkscape:version="0.92.2 5c3e80d, 2017-08-06" sodipodi:docname="75 #31876.svg" xmlns:cc="http://creativecommons.org/ns#" xmlns:dc="http://purl.org/dc/elements/1.1/" xmlns:inkscape="http://www.inkscape.org/namespaces/inkscape" xmlns:rdf="http://www.w3.org/1999/02/22-rdf-syntax-ns#" xmlns:sodipodi="http://sodipodi.sourceforge.net/DTD/sodipodi-0.dtd" xmlns:svg="http://www.w3.org/2000/svg"
	 xmlns="http://www.w3.org/2000/svg" xmlns:xlink="http://www.w3.org/1999/xlink" x="0px" y="0px" viewBox="0 0 850 850"
	 xml:space="preserve">
<sodipodi:namedview  bordercolor="#666666" borderopacity="1" gridtolerance="10" guidetolerance="10" id="namedview78" inkscape:current-layer="svg76" inkscape:cx="919.34796" inkscape:cy="717.86007" inkscape:pageopacity="0" inkscape:pageshadow="2" inkscape:window-height="978" inkscape:window-maximized="1" inkscape:window-width="1920" inkscape:window-x="0" inkscape:window-y="1" inkscape:zoom="0.41647059" objecttolerance="10" pagecolor="#ffffff" showgrid="false">
	</sodipodi:namedview>
<g id="g74" transform="translate(0.000000,0.000000) scale(1.00000,1.00000)">
	<path id="path4" fill="none" d="M0,0l212.3,0.1c183.4,0,211.3,0.2,205.8,1.4c-40,8.7-67.8,36.3-83,82.5
		c-3.4,10.5-4.7,17.9-9.1,54.5c-3.2,26.7-4.5,33.5-8.4,43.7c-4.9,13-11.1,20.7-19.3,23.8c-7.6,2.8-11.7,2.6-14.2-0.6
		c-2.6-3.3-2.6-5-0.1-10.5c1-2.4,1.5-4.8,1.1-5.2c-1.3-1.3-8.5,1.1-13.7,4.6c-11,7.4-17,20.3-16.2,35c0.7,12.5,6.1,22,14.7,25.8
		c3.6,1.6,3.7,1.8,1.2,6.7c-3.8,7.6-4.6,13.9-4.6,35.7c0.1,24.3,1.3,32.8,7.5,51.7c5.2,15.7,11.6,28.9,18,36.9c2.8,3.4,5.5,8,6,10.1
		c2.1,7.5-2.7,16.8-8.6,16.8c-1.5,0-6.9-2-12.1-4.5c-6.5-3-9.5-4-9.9-3.2c-0.6,1.6,4,13.1,7.1,17.8c3,4.6,10.9,8.6,18.8,9.5
		c6.7,0.8,6.6,0.7,0.8,9.2c-4.2,6.2-10.2,12.1-22.3,22c-4.2,3.5-7.9,7-8.2,7.7c-0.8,2.2,2.2,4.5,6,4.5c1.9,0,3.4,0.2,3.4,0.3
		c0,0.2-2.3,4.1-5,8.7c-2.8,4.6-5,9.4-5,10.7c0,1.9,0.5,2.3,3.3,2.3c2.5,0,4.7-1.2,9.2-5c3.2-2.7,6-4.8,6.2-4.7
		c0.1,0.2-0.2,1.9-0.7,3.8c-1.5,5.1-1.2,12.2,0.6,14.7l1.5,2.2l4-2c4.5-2.3,9.8-9.1,13.1-16.7c1.3-2.9,2.5-5.3,2.8-5.3
		s1.3,2.7,2.3,6c0.9,3.2,2.7,6.8,3.9,7.9c3.8,3.6,4.7,0.6,4.8-14.8c0-13.1,0.1-13.5,3.5-21.1c3.8-8.4,4.5-14.7,2.3-20.7
		c-1.9-5.2-0.2-5.1,5.5,0.4c2.8,2.8,7.2,6.2,9.7,7.6c5,2.8,16.9,6.7,20.6,6.7c2.6,0,3,1,1.3,2.7c-0.7,0.7-0.1,1.6,2.3,3.1
		c5,3.1,14.2,5.2,22.6,5.2c5.5,0,7.3,0.3,6.9,1.2c-8,19.1-16.7,37.3-33.1,69c-5.3,10.3-9.6,19.3-9.6,20.1c0,1.1,1.9,1.7,7.3,2.2
		c11.5,1,11,0.5,8.1,8.3c-1.4,3.7-3.5,8.9-4.8,11.7c-1.3,2.7-2.7,6.1-3.1,7.5c-1.3,4.2-3.5,6.8-6.5,7.9c-3.4,1.1-4.8,3.8-16.5,30.1
		c-10.3,23.1-15.3,31.9-28.6,49.7C277.3,708.6,259,737.8,249,760c-3.7,8.2-7.8,15.7-9.5,17.4c-2.2,2.2-8.2,5.2-20.5,10.1
		c-9.6,3.8-18.5,7.9-19.7,9.1c-2,2-2.1,3-1.9,14.3c0.2,7.9,0.7,12.6,1.5,13.4c0.9,0.9,9.4,1.2,33.4,1c42.7-0.2,54.5-0.9,57.7-3.2
		c1.4-0.9,4.8-6.2,7.5-11.7c6.9-13.6,14.4-25,20.3-30.7l4.9-4.8l0.6,5.3c0.4,2.9,0.7,12.5,0.7,21.3c0,14.1,0.2,16.4,2,19.2
		c2.9,4.9,5,5.6,12.3,4.2c3.4-0.6,6.9-1.8,7.8-2.6c1.2-1,2-4.5,2.9-11.6c3.5-30.4,6.2-50.6,7.1-53.4c0.5-1.7,2.4-4.9,4-7
		c2.4-3,3-4.5,2.6-7c-0.4-2,0.1-4.5,1.4-6.9c1-2.1,1.9-5.1,1.9-6.6c0-3.4-5.3-17.3-12.1-31.7c-8.3-17.5-8-19.2,5.8-34.6
		c25.8-28.7,29.9-33.5,33.3-38.7c4-6.1,6.5-14,10.1-32.4c1.2-6.1,2.5-11.7,2.9-12.4c0.5-0.9,2.7-0.6,8.6,1.3
		c24.7,7.8,47.1,8.6,66.9,2.3l7-2.2v28.5c0,15.7,0.6,45.1,1.4,65.4c1.6,40.3,1.4,42.6-3.8,52.7c-1.6,3-3.6,8.6-4.5,12.5
		c-1,3.8-3.8,13.7-6.3,22c-13,43.1-13.6,44.6-20.5,48.5c-2.1,1.2-4.5,3.4-5.3,5c-1.9,3.7-2.1,21.8-0.2,24.3
		c1.2,1.6,10.6,4.1,29.7,7.7c9.3,1.8,3.9,1.8-234.7,1.9L0,850V425V0z"/>
	<path id="path6" fill="none" d="M647.3,0.1L850,0v425v425l-168.7-0.1c-92.9-0.1-167.7-0.4-166.3-0.6c22.8-3.7,29.6-5.4,31.8-7.8
		c1.4-1.8,2.2-3.9,2.2-6.4c0-2.1,0.8-5.6,1.7-7.7c1.4-3.1,1.7-6.6,1.7-17.9c-0.1-18.3-0.8-21.4-18.3-86.5
		c-3.8-13.9-6.1-24.4-6.1-27.7c0-5,1.1-12.8,8-58.3l3.2-20.5l-3.1-9.5c-1.7-5.2-4-13.1-5.1-17.5s-2.8-10.2-3.7-12.9
		c-1.4-4.5-1.4-4.9,0.3-6.6c1.1-1,5.8-3,10.7-4.5c7.9-2.4,8.6-2.8,7.7-4.5c-0.6-1-1.5-2.2-2.1-2.6c-2.1-1.3-10.1-14.5-13.1-21.7
		c-8.7-21-8.3-18.7-8.4-44.7c0-17.9-0.4-25.4-1.7-31.5c-0.9-4.4-1.7-8.3-1.7-8.6s2.6-1.2,5.8-1.9c3.1-0.7,8.4-2.5,11.8-4
		c5.4-2.4,39.7-22.2,41.8-24c0.4-0.5-2.6-2.5-6.8-4.6c-4.2-2-7.8-4-8.1-4.3c-0.2-0.4,2.6,0.3,6.3,1.6c4.5,1.5,9.1,2.3,13.8,2.3
		c5.6,0,7.7,0.4,9.5,1.9c2.4,1.9,2.4,2.1,2.1,19.3c-0.1,9.5-0.9,20.7-1.7,24.8c-2.6,14-3.6,24.6-2.5,27.4c0.5,1.4,1.1,2.6,1.4,2.6
		c3.2,0,6.9-5.2,9.2-13.2l1.6-5.3l3.4,10.9c1.8,6,4,11.6,4.8,12.4c2.3,2.3,6.7,1.8,9.2-1.1c1.8-2.1,2.3-4.3,2.8-11.9
		c0.3-5.1,0.7-10.9,0.9-12.8l0.2-3.5l4.1,7c6.2,10.4,11.9,16.5,15.5,16.5c2.3,0,2.9-0.4,2.9-2.3c0-3.7-2.5-10.7-7.5-21
		c-2.7-5.3-4.5-10-4.2-10.3s2.9,0.2,5.7,1.1c4.2,1.4,5.7,1.5,7.7,0.6c2.2-1,2.4-1.6,1.9-4.4c-0.3-1.8-1.6-4-2.9-4.9
		c-1.2-0.9-3.5-2.7-5-3.9c-1.6-1.2-6-6.9-10-12.8c-3.9-5.8-10.1-13.8-13.9-17.8c-4.4-4.7-6.8-8-6.8-9.5c0-1.3,1.6-4.8,3.5-7.8
		c3.9-6.1,4.5-11.1,1.9-16.1c-1.7-3.3-1.3-3.4-8.9,1.8c-1.1,0.7-3.9,1.3-6.2,1.3c-4.7,0-8.3-2.6-8.3-6c0-1.7,0.5-1.9,3.2-1.3
		l3.2,0.6l-2.2-3c-1.2-1.7-2.2-3.4-2.2-3.8c0-0.7,2.7-0.2,7.3,1.1c3.1,1,1.8-1.6-1.8-3.3c-1.9-0.9-3.5-2-3.5-2.3
		c0-0.4,1.9-1.5,4.3-2.5c5.4-2.4,5.4-2.4,3.7-3.5c-1-0.6,0.3-2.6,6-8.7c9.1-9.7,16.1-20.3,18.9-28.5c7.2-21,1.1-47.2-16-68.8
		c-2.2-2.9-3.7-5.5-3.3-6c0.5-0.4,3.2-1.5,5.9-2.4c7.6-2.5,12.6-6.5,15.9-12.6c2.6-4.7,3-6.7,3.4-15.5c0.3-8.4,0.1-10.9-1.7-15.5
		c-2.4-6.4-6.3-11.6-7.9-10.6c-0.6,0.3-1.3,1.9-1.7,3.4c-1.4,6.5-7.5,10.1-13.1,7.7c-4-1.6-5.3-3.5-7-9.7
		c-3.8-14.5-3.1-22.9,4.7-55.1c7.5-30.9,7.5-38.6,0.4-53.6c-9.4-19.7-25.5-37.2-48-51.8c-5.5-3.6-14.3-9.5-19.6-13
		C530.2,12.8,521,9.7,508,9.6c-8-0.1-10.8,0.4-17.8,2.8l-8.4,2.8l-6.1-3.3C462,4.6,458.2,3,451.5,1.6C445.3,0.3,467.2,0.2,647.3,0.1
		z"/>
	<path id="path8" fill="#A52A2A" d="M475.1,18.4c6,4,5.7,4.3-1.6,2c-2.7-0.8-10-1.8-16-2.1c-18.8-1-33.5,3.2-49.7,14
		c-7.6,5-17.3,13.7-15.4,13.7c0.4,0,2.2-1.1,3.9-2.4c9.1-7,25.1-14.2,38.4-17.6c9.7-2.4,24.6-2.6,34.6-0.4c7.1,1.6,19.7,7,19.7,8.4
		c0,0.4-2.6,0.1-5.7-0.7c-8.4-2.1-27.3-2.1-35.3,0c-9.1,2.4-12,3.7-12,5.4c0,1.1,0.7,1.3,2.8,0.9c17.9-3.9,33-4.6,44.1-2.1
		c7.6,1.8,11.1,4.3,11.1,8c0,4.1-3.9,11.1-8.5,15.4c-5.2,4.8-9.6,7.1-29.1,15.1c-19.4,8.1-38,17-46.3,22.1
		C388,112,372.9,128,364.5,146.3c-5.5,12.2-5.9,15.1-4.9,42.6c1,28.2,1,27.8,0,47.1c-0.7,15.9,0.1,16.3,3,1.3
		c1.4-7.5,1.6-13.1,1-38.1c-0.3-16.2-0.3-29.2,0.2-29.2c2.6,0,4.5,4.5,5.7,13.7c1.1,8.2,3.9,23,6,32c0.5,2.1,3.5,3.3,3.5,1.5
		c0-0.5-1.6-9.6-3.5-20.2c-1.9-10.7-3.3-19.6-3-19.8c1.1-1.1,3.8,2.6,6.9,9.3c6.9,14.9,16.4,26.5,32.2,39.1
		c9.7,7.8,10.4,8.9,10.4,18c0,5.1,0.8,4.9-12,2.9c-19.4-3-27.8-1.5-33.4,5.8c-3.8,4.9-10.1,21.8-12.6,33.7
		c-3.2,15.3-8.8,28.7-18.6,44.5c-9.2,14.9-22.4,40.6-26.9,52.3c-3.1,8.3-4.8,9.5-12.3,9l-4.4-0.3l-5-9.4c-2.7-5.2-6.3-11.4-7.9-13.8
		c-4.5-6.4-6.4-11.4-9.8-24.8c-3.2-13.2-5.4-26.5-7.1-45.2c-1.3-13.9-0.3-23.9,3.2-31.2c3.2-6.6,5.1-8.1,10.3-8.1
		c5.9,0,14.5-3.3,18-7c1.6-1.6,2.6-3.2,2.4-3.4c-0.3-0.3-2.9,0.6-5.8,2.1c-11.3,5.4-22.2,3.9-30.9-4.1c-6.8-6.2-8.7-10.6-8.7-20.1
		c0-7.1,0.4-8.9,3.3-14.8c2.9-5.9,10-13.7,12.4-13.7c0.4,0,0.8,1.2,0.8,2.6c0,13.5,17.4,16.6,31.7,5.7c13-9.9,24.8-46.5,26.9-83.3
		c1.7-31.9,6.3-47.7,19.8-68.5c7.3-11.1,15.4-20.4,22.8-26.1c11.2-8.4,35.9-18.9,50.2-21.3C444.1,4.5,460.3,8.4,475.1,18.4z"/>
	<path id="path10" fill="#B22222" d="M523.6,18.1c7.2,2.2,18.9,7.7,18.2,8.5c-0.3,0.2-5-0.1-10.5-0.6c-7-0.7-12.7-0.7-18.9,0
		c-21,2.5-18.6,2.8-21.6-1.9c-2.9-4.5-2.8-4.7,3.6-6.7C501.1,15.3,515.7,15.7,523.6,18.1z"/>
	<path id="path12" fill="#A52A2A" d="M540.3,32.5c9,1.6,20.2,6.5,29.1,12.9c8.7,6.2,23.9,22.4,30.7,32.8
		c8.4,12.8,10.3,18.2,10.3,29.8c0,8.4-0.7,12.3-6.2,34c-3.4,13.6-6.6,27.6-7,31.3c-1.2,9.5,0.1,17.8,3.8,25.3
		c5.6,11.4,13.9,15,23.3,10l4.8-2.6l0.9,2.6c1.7,4.4,1.2,17.4-0.9,21.9c-3.5,7.7-10.2,11.9-20.4,13.1c-7.6,0.9-17.1-2.1-26.7-8.5
		c-4.1-2.7-7.6-4.8-7.8-4.6s0.5,1.7,1.7,3.4c3.2,4.4,13.4,11.7,19.9,14.1c6.5,2.4,12.2,7.5,18.7,16.5c10.4,14.6,14.9,28.8,14.3,45
		c-0.3,9.6-0.6,10.7-4.5,18.7c-3.2,6.3-6.6,11-13.4,18.4c-9.9,10.7-13.6,13.4-18.6,13.4c-5.3,0-7.7-1.5-23.1-13.8
		c-8.1-6.5-18.2-14.4-22.4-17.6c-8.7-6.5-9.3-7.4-23.8-34.1c-5.6-10.5-11.6-21.1-13.2-23.7c-4.5-7.2-9.8-9.4-28.6-11.7
		c-8.5-1-15.8-2.3-16.4-2.9s1.6-1.2,6.4-1.6c12.9-1.3,24-6,40.3-17.1l9.5-6.5l0.2,5.2c0.1,2.9,0,8.2-0.1,11.8
		c-0.4,11,1.7,23.4,5.8,34.3c2.1,5.6,6,16.4,8.7,24.1c4.3,12.1,6.4,15.9,7.9,14.4c0.2-0.2-2.3-8.7-5.6-18.8
		c-11.3-35.2-13.4-46.4-12-64.3c0.8-10.6,0.9-10.9,4.3-14.4l3.5-3.5l0.5,16.9c0.5,15.5,2.3,26.9,4.7,29.5c0.3,0.4,0.6-11.2,0.6-25.7
		v-26.3l3.2-4.4c7.8-10.5,9.4-15,12.4-35.3c2.7-18.5,8.5-45.5,9.8-45.5c1.1,0,8.8,13.2,11.5,19.8c3,7.2,6.6,21.2,6.6,25.9
		c0,3.8,1.5,4.4,2.4,1c2.1-8-3.7-31.1-11.1-43.6c-5.5-9.3-10.5-14.5-32.3-33.5c-34-29.6-38.6-34.1-42-40.8c-1.6-3.4-3-7.3-3-8.7
		c0.2-10.5,18.1-10.8,41.2-0.7c5.7,2.4,10.7,4.2,11.2,3.9c2.3-1.5-10.4-8.6-21.9-12.3c-5.3-1.8-9.6-2.3-17.9-2.4
		c-7.1-0.1-11.1-0.6-11.3-1.3c-0.6-1.6,0.9-2.3,8.5-3.8C515.7,30.8,530.6,30.7,540.3,32.5z"/>
	<path id="path14" fill="#FFDEAD" d="M494.6,59c0.1,0,1.4,1.9,2.9,4.2c4.4,6.6,12,14.3,23,23.1c5.5,4.4,11.9,9.8,14.3,11.9l4.2,3.9
		l-3.7,1.5c-7.9,3.1-13.8,5.8-15.1,6.9c-1.4,1.3-3.4,7.5-2.3,7.5c0.4,0,6-2.7,12.6-6c7-3.6,12.5-5.8,13.6-5.5
		c2.4,0.8,15.9,15.2,15.9,17c0,1.7-2.9,6.5-3.9,6.5c-0.3,0-0.5-2-0.3-4.5c0.3-3.5,0.1-4.5-1.1-4.5c-0.8,0-1.7,1.3-2.1,3.2
		c-0.8,3.9-2.3,5.8-4.7,5.8c-1.5,0-1.9-0.8-2-3.3c0-2.9-0.1-3-1.2-1.3c-3.1,5-6.2,7.6-12.6,11c-7.3,3.8-13.3,9.7-17.9,17.6
		c-2.2,3.7-9.4,23.1-8.9,23.7c0.1,0.1,5.8-0.9,12.7-2.3c14.5-2.9,24.6-7.2,31.4-13.4l4.6-4.3l-0.5,2.9c-0.2,1.6-0.6,6.3-0.9,10.4
		c-0.7,9.3-3.7,21.2-7.2,28.6c-5.1,10.8-21.4,25.8-40.4,37.2c-18.9,11.4-24,13.5-32.3,13.5c-8.6,0-18.9-3.2-32-10
		c-12.9-6.7-23.6-14.7-36-27c-17.6-17.5-23.1-25.9-27.2-41.7c-2.4-9.5-5.1-11.7-4.3-3.7c0.6,5.6,0.5,5.6-2.3,4.1
		c-3.4-1.9-6.2-8.7-5.5-13.5c1.4-9.1,10.7-24.4,21.7-35.6c10.4-10.6,32.3-23.9,39.3-23.9c4.1,0,12.3,3.9,22.3,10.7
		c8.1,5.4,8.3,5.5,10.8,3.9c1.4-0.9,2.5-2,2.5-2.5s-6.5-4.4-14.5-8.7c-7.9-4.3-14.1-8.2-13.7-8.6s5.7-2.8,11.7-5.3
		C474,76.4,481.6,72.2,490,63.6C492.4,61.1,494.5,59,494.6,59z M404,113.7c0.1,1,0.7,3.5,1.4,5.5c2.2,6,0.4,6.4-5.4,1.2
		c-4.7-4.3-5.9-4-3.1,0.7c1.2,1.9,2.1,4,2.1,4.6c0,1.9-3.5,1.6-7.2-0.7c-3.9-2.4-4.4-2.4-5.1-0.6c-0.4,1,1.4,2.6,5.9,5.1
		c3.5,2,6.4,3.9,6.4,4.3s0.7,3.7,1.4,7.4c3.3,15.3,10.9,24.7,23.3,28.6c3.7,1.2,14.3,3.7,23.6,5.4c21.2,4,20.8,4.3,16.8-9.2
		c-5.2-17.9-13.5-31.4-22.9-37.2c-2-1.3-7.7-3.7-12.7-5.3c-7.4-2.5-9.3-3.5-11-6.2c-2.7-4.3-3.4-4.1-2.8,0.7c0.4,2.6,0.2,4-0.6,4
		c-1.7,0-5.2-3.8-6.3-7.1C406.7,111.8,404,110.9,404,113.7z M480.7,204.1c-3.1,0.1-27.8,5.7-28.5,6.4c-0.7,0.6,2.9,14.9,4.7,19
		c2.4,5.3,8.2,11,12.7,12.5c12.1,4,24.6-3.5,27.5-16.7c0.8-3.6,2.2-6.4,4.3-8.5c3.1-3,3.1-3.1,0.6-2.5c-3.3,0.8-4.3,0.1-6.9-5.1
		c-1.2-2.3-2.4-4.2-2.7-4.2s-1.7,0.6-3.3,1.4c-2.5,1.3-2.8,1.3-3.9-0.5C484.4,204.6,482.9,204,480.7,204.1z"/>
	<path id="path16" fill="#0000FF" d="M420.6,127c1.9,0,1.8,0.3-1.1,4.6c-4.5,6.6-3,14.1,4,20.3c2.9,2.5,4.4,3.1,8.2,3.1
		c4.1,0,5-0.5,9.2-4.7l4.6-4.6l-4.9-1.6c-6.1-2-7.4-3.8-5.7-7.9c0.7-1.7,1.9-3.3,2.8-3.6c1.8-0.7,12.3,9.5,12.3,12.1
		c0,1-1,3.9-2.2,6.3c-2.8,5.5-8.9,9-15.8,9c-5.7,0-14-3.8-16.8-7.7c-4.4-6.1-3.7-16.2,1.4-22.3C418,128.4,419.8,127,420.6,127z"/>
	<path id="path18" fill="#0000FF" d="M411.5,129.7c-3.5,9.1-3.8,16.7-1,22.3c4,7.7,17.2,13.4,27,11.6c4.1-0.8,10.3-6,13.7-11.4
		l2.2-3.6l3.2,6.8c2.9,6.1,5.4,16.9,4.2,18.2c-0.9,0.8-27.3-3.5-33.1-5.5c-13.8-4.8-21.9-14.8-23.4-29.1c-0.6-6.4,0.2-8.5,4.2-10
		C411.6,127.7,412.3,127.9,411.5,129.7z"/>
	<path id="path20" fill="#FF00FF" d="M483.4,210.2c1.3,1.9,1.9,2,4.1,1c3.7-1.7,4.3-1.5,6,1.8l1.6,3h-3.3c-1.9,0-4.1,0.9-5.6,2.2
		c-1.9,1.8-2.6,2-3,0.9c-1.2-3.5-4.2-5.1-9.4-5.1c-2.9,0-6.4-0.3-7.7-0.7c-2.1-0.5-1.5-0.9,4-2.9
		C478.5,207.5,481.5,207.4,483.4,210.2z"/>
	<path id="path22" fill="#FF00FF" d="M456.8,215.3l9.8,1.4c6.4,1,10.6,2.1,11.9,3.2c3.2,2.8,5.1,3.1,10.2,1.6
		c6.3-1.9,7.2-0.8,4.2,5.2c-7.2,13.8-23.8,14.5-32.5,1.3c-1.5-2.2-2.9-5.9-3.1-8.3L456.8,215.3z"/>
	<path id="path24" fill="#0000FF" d="M546.3,135l3.6,0.6c2,0.4,4,0.9,4.5,1.2c1.4,0.8-0.3,12.3-2.5,16.9c-2.6,5.3-6.7,8.8-14.5,12.4
		c-6.2,2.8-26.2,8.4-27.1,7.5c-0.3-0.2,0.4-2.4,1.5-4.9l2-4.5l4.6,1.5c9.2,3,20-1.5,25.4-10.6c2.3-4,2.7-5.6,2.6-12.4L546.3,135z"/>
	<path id="path26" fill="#0000FF" d="M542.9,143.8c0.1,6.7-4.7,14.5-11.1,17.8c-4.3,2.2-13.2,1.7-16.6-1.1c-0.1-0.1,0-0.9,0.4-1.8
		c0.4-1.3,1.8-1.4,7.9-1c8.7,0.7,11.3-0.5,14.5-6.7c2.7-5.3,2.6-6.4-0.6-5.6c-3,0.8-5.4-0.8-5.4-3.4c0-1.1,1.6-2.4,4.8-3.7
		C542.3,136,542.8,136.5,542.9,143.8z"/>
	<path id="path28" fill="#DEB887" d="M426,237.1l16.6,8.2l16.5,8.2l-0.7,6.1c-0.7,6.7,0.8,9.6,2.6,4.9c1.3-3.5,3.1-3.9,9.8-2.3
		l5.7,1.4l-3,1.6c-13.4,7-42.3,2.7-53.7-8c-3.7-3.4-3.5-4.3,0.4-3.1c5.8,1.6,5.8,1.6,5.8-8.1L426,237.1L426,237.1z"/>
	<path id="path30" fill="#BDB76B" d="M403.5,256.1c4.8,9.2,13.8,15.7,28.8,21c10,3.5,12.2,3.9,20.8,3.9c8.1,0,10.7-0.4,17.7-3
		c4.6-1.7,9-3,10-3s4-2.3,6.7-5c5.2-5.3,6.9-5.9,11.4-3.6c4.8,2.6,8.5,7.8,17.5,25.1c12.5,23.9,18.6,33.3,24.3,37.5
		c2.7,1.9,9.3,7.1,14.8,11.6c5.5,4.4,13.6,11,18,14.5c4.5,3.5,8.1,6.8,8.2,7.4c0.1,1.7-31.7,29.5-60.6,52.8
		C492,438.9,474,452,470.5,452c-1.1,0-35.1-13.3-75.5-29.5l-73.5-29.4l-0.3-3.6c-0.5-5.4,4.1-14.6,27.9-55.6
		c12.5-21.6,15.4-27.8,17-36.2c3.3-17.8,10.2-36.2,16.3-43.4c1.5-1.8,4.2-3.7,5.9-4.2C394.1,248.5,401,251.2,403.5,256.1z"/>
	<path id="path32" fill="#FFDEAD" d="M591,386c11.3,16.1,18.6,25.6,27.9,36.3c4.7,5.3,10.7,13.2,13.2,17.5c2.7,4.6,5.9,8.6,8,9.9
		c6.6,4.3,7.9,5.4,7.4,6.4c-2.1,3.2-8.8-0.8-25-15c-4.4-3.8-8.1-6.6-8.3-6c-0.6,1.7,3.8,7.7,8.7,11.8c4.3,3.6,5.5,5.7,12,20.3
		c4,9,7.5,17.6,7.7,19.3c0.5,2.9,0.5,2.9-1.1,1c-0.9-1.1-5.5-8.2-10.2-15.9c-4.8-7.6-9.2-14-9.8-14.2c-0.7-0.3-4,0-7.5,0.5
		c-3.5,0.6-6.5,0.9-6.7,0.7c-0.2-0.2,0.6-2.7,1.7-5.6c1.1-2.9,1.9-5.4,1.7-5.7c-0.3-0.2-2.1,2.1-4.2,5.2c-2.7,4.2-4,7.4-4.7,12.3
		c-1,6.9-6.5,23.2-7.8,23.2c-0.4,0-0.5-1-0.3-2.3c0.2-1.2,1.7-14.1,3.4-28.7c1.8-14.6,3.4-28.2,3.6-30.3c0.5-3.7,0.4-3.9-17.6-22
		c-10-10.1-18.1-18.7-18.1-19.2c0-0.8,6.8-7.5,7.6-7.5c0.1,0,2.4,3.5,5.1,7.7c3.7,6.1,4.9,7.3,5.1,5.6c0.2-1.2-1.1-4.9-2.7-8.2
		c-4.7-9.1-3.7-9.5,2-0.9c2.9,4.3,5.8,7.8,6.5,7.8c1.9,0,1.9,0.1-2.6-7.8c-2.2-3.8-4-7.3-4-7.8C582,373.2,582.9,374.4,591,386z"/>
	<path id="path34" fill="#EEE8AA" d="M613.3,388.1c1.3-0.2,0.7,6-0.9,9.5c-2.9,6-3.7,6-8.4-0.2c-2.3-3-4-5.7-3.8-5.9
		c0.2-0.2,3.1-1,6.3-1.8C609.8,388.9,612.8,388.2,613.3,388.1z"/>
	<path id="path36" fill="#EEE8AA" d="M579.5,405.9l8,7.4l-7-0.6c-8.7-0.7-17.3-3.8-20.7-7.5c-3.6-3.9-6.2-11-4.7-12.8
		c0.6-0.8,1.5-1.4,1.9-1.4c0.5,0,2.5,3.6,4.7,8c2.1,4.4,4.4,8,5.1,8c1.5,0,1.7,0.8-1.8-8.5c-1.6-4.4-3-8.2-3-8.4
		C562,389.7,567.5,394.7,579.5,405.9z"/>
	<path id="path38" fill="#8B0000" d="M316.9,396.4c1,1.2-0.1,3.2-5.3,10.3c-4.1,5.4-6.8,10.1-7.1,12.3c-1.3,8.1-1.6,8.5-7.2,8.8
		c-7.9,0.5-13.1-1.4-18-6.3c-6.8-6.7-6-7.5,4.9-5.2c5.1,1,10.2,1.6,11.5,1.2c4-1,7.2-6.5,7.9-13.6c0.3-3.5,0.7-7,1-7.7
		C305.1,394.5,315.4,394.6,316.9,396.4z"/>
	<path id="path40" fill="#FFDEAD" d="M324.2,400c0.5,1.4,0.6,6.4,0.3,11.2c-0.6,7.5-0.5,8.8,0.8,8.8c1.1,0,1.7-1.5,2.1-5
		c0.3-2.8,0.9-7.3,1.2-10c0.8-7.1,2.4-5.2,2.4,3c0,8.6-1,11.2-6.6,17.2c-6.8,7.2-8.8,12.6-8.1,21.1c0.6,6.4,0.3,7.8-2.9,16
		c-3.5,9-3.6,9.2-3,20.6c0.6,11.3,0.5,11.5-1.1,8.1c-1.1-2.4-1.6-6.4-1.7-12.3l-0.1-8.9l-4.4,0.6c-2.4,0.3-6.1,0.6-8.2,0.6
		c-2.8,0-3.9,0.4-3.9,1.5c0,0.9,0.9,1.5,2.1,1.5c2.5,0,2.6-0.7-3.1,15c-2.3,6.3-4.4,12.3-4.7,13.2c-0.3,1-1,1.8-1.5,1.8
		s-0.7-0.8-0.4-1.8c0.9-3.1,4.7-25.4,4.4-25.7c-0.2-0.2-4.6,3.7-9.8,8.5c-5.2,4.9-9.8,8.9-10.2,9c-2,0.1,6.4-13.2,11.8-18.6
		c5.3-5.5,6.6-6.3,11-6.9c2.7-0.3,6.1-1.1,7.5-1.6c5-2,9.9-8.8,9.9-14c0-2.4-1.9-2.5-2.6-0.2c-2.3,7.7-5.6,10.6-14.9,12.9
		c-2.7,0.7-9,2.7-13.8,4.5c-4.8,1.7-9.1,2.9-9.5,2.5c-0.7-0.8-0.2-1.3,13.3-11.6c9.8-7.5,14.9-13.3,19.9-22.5
		c1.8-3.3,6.6-12.1,10.6-19.5c4.1-7.4,8.5-15.3,9.8-17.5C323.3,397.6,323.3,397.6,324.2,400z"/>
	<path id="path42" fill="#EEE8AA" d="M551.5,399c0.8,0.7,2.5,4.6,3.7,8.7c1.3,4.6,2.8,7.7,3.7,8c2.9,0.8,12.3,5.4,12,5.7
		c-0.2,0.2-5.6,3.6-11.9,7.6c-14.3,9.1-25.5,14.5-34.3,16.7c-8,1.9-7.3,2.4-11.2-8.4l-2.7-7.2l2.9-2.5c1.5-1.4,3.3-2.6,3.9-2.6
		c0.5,0,2.1,4,3.5,9c1.5,5.8,2.9,9,3.8,9c1.7,0,0.9-7.7-1.6-15.8l-1.7-5.2l2.9-3c3.4-3.5,3.9-3,4.9,4.5c1,6.9,2.7,12.5,3.9,12.5
		c0.6,0,0.7-4.5,0.3-12.4c-0.8-14.2,0.5-17.9,2.4-6.4c1.8,11.8,2.1,12.9,3.3,12.5c0.7-0.3,1.1-0.8,1.1-1.3
		c-0.1-0.5-0.5-5.7-0.8-11.5l-0.7-10.6l3.5-2.6l3.4-2.7l3.4,9.5c5.8,16.4,6.4,11.1,1.3-10.4C549.9,398,550.1,397.8,551.5,399z"/>
	<path id="path44" fill="#EEE8AA" d="M344.1,405.5l1.9,2.4c1.5,2.1,6,16.3,8.6,27.4c0.6,2.7,2.9,4.6,4,3.4c0.4-0.3-0.8-6.4-2.5-13.4
		c-1.7-7.1-3.1-13.2-3.1-13.6c0-1.5,4.8-0.6,7.3,1.3c2.1,1.7,2.7,3.4,3.7,10.7c0.8,5.2,1,12.1,0.6,17.1c-0.7,9.6,0.5,10.2,3,1.4
		c1.4-4.9,1.5-6.9,0.5-15.5c-0.7-5.4-1-10.1-0.8-10.3c1.4-1.5,2.8,3.9,3.8,15c1.3,13.2,2.5,15.3,3.2,5.1c0.3-5,0.4-4.5,0.5,2.7
		c0.2,6.7,0.5,8.8,1.6,8.8c1.7,0,2.6-4.2,2.7-12.4c0-3.3,0.4-8.1,0.8-10.6c0.6-4.2,0.7-4.4,1.9-2.3c0.9,1.7,1.1,5.5,0.6,14.3
		c-0.4,6.6-1,12.3-1.4,12.5c-0.5,0.3-5.1,1.2-10.3,2.1c-8.8,1.5-10.2,1.5-17.4,0c-9.2-1.8-20.6-7.3-26.4-12.7
		c-4.7-4.3-4.7-4.6,0.8-11.8c4.1-5.4,5.3-6.1,5.3-3.2c0,1.1,0.5,2.3,1,2.6c0.6,0.4,1-0.8,1-2.9c0-4.2,1.7-8.9,2.9-8.2
		c0.5,0.3,1.5,4.4,2.2,9.1c1.8,12.3,3.3,10.9,2.6-2.5c-0.4-6.8-0.3-12,0.4-13.7L344.1,405.5z"/>
	<path id="path46" fill="#EEE8AA" d="M389,424.7c2.5,0.7,2.5,0.4-0.5,14.3c-1.6,7.6-2.1,11.8-1.4,12.5c1.4,1.4,2,0,5.3-12.4
		c2.8-10.8,3.6-12,6.5-10.2c1.6,1,0.2,7.1-5.6,25.1l-2.8,8.5l-7.7,0.3c-7.5,0.3-15.8-1.1-15.8-2.6c0-0.4,3.4-2.2,7.5-4.1
		c4.2-1.8,7.8-3.7,8.1-4.2c1.6-2.6,4.4-16.3,4.4-21.6C387,424.7,387.2,424.2,389,424.7z"/>
	<path id="path48" fill="#006400" d="M404.5,431c1.2,0,5.5,2.4,5.5,3.1c0,0.5-1.8,3.8-4,7.4c-4.1,6.6-4.7,8.5-3.1,8.5
		c1,0,6.6-6.6,9.4-11.3c1.8-2.9,4.5-3.4,7.8-1.6c1.9,1,1.8,1.3-2.7,6.7c-8.8,10.5-8.2,9.6-5.9,8.4c1.1-0.6,3.5-2.2,5.4-3.6
		c4.9-3.7,5-3.4,0.7,6.6c-1.3,3.1-1.4,3.8-0.3,3.8c0.8,0,3.6-3.6,6.3-8.1c4.3-7.1,4.9-7.8,5.2-5.5c0.3,1.9-0.8,3.9-3.7,7.3
		c-2.3,2.5-4.1,5-4.1,5.5c0,0.9,4.1-1.4,7.2-4c1.5-1.2,1.8-1.1,3.1,1.5c1.3,2.4,1.3,3.1,0.1,4.8c-2,2.7-1.8,4.8,0.4,4.1
		c1.5-0.5,2.9,0.9,6.6,6.5c2.6,3.9,4.6,7.2,4.4,7.3c-0.2,0.1-8.5,1.2-18.6,2.3c-10,1.1-18.6,2.3-18.9,2.7c-2.4,2.4,9.5,2.1,36.9-0.9
		l5.6-0.6l0.7,7.6c0.4,4.2,0.4,8-0.1,8.5s-4.5,2.2-8.9,3.8c-10.8,4-15.8,6.2-15.3,6.8c0.3,0.2,6.4-1.1,13.6-3l13.1-3.4l0.5,4.1
		c3,23.2,4.6,74.1,2.4,76.2c-0.8,0.9-23.4-2.8-34.3-5.6c-11-2.8-19.3-5.6-42-14.4c-10.7-4.1-20-7.5-20.7-7.5
		c-4.4-0.1-4-1.6,6.6-22.8c19.6-39.2,31.4-68.1,39.1-95.5C403.3,433.6,404.2,431,404.5,431z"/>
	<path id="path50" fill="#006400" d="M511.4,447c6.1,18.1,6.8,24.4,6.7,61.1c-0.1,24.4,0.2,33.3,1.1,35.5c1.2,2.7,1.3,2.1,1.8-7.1
		l0.5-10l8.8,17.4c4.9,9.5,8.7,17.4,8.5,17.6c-0.2,0.1-3.7,1.2-7.8,2.3c-4.1,1.2-21.2,6-38,10.7s-31,8.5-31.6,8.5
		c-0.7,0-1.6-11.5-2.8-33.3c-0.9-18.2-1.9-36.8-2.2-41.2l-0.6-8l13.6-10.3c12.1-9.1,14.8-11.9,12.4-12.5c-0.3-0.1-6.5,4-13.7,9
		c-7.2,5.1-13.2,9.3-13.5,9.3c-0.8,0-2.8-13.9-2.2-14.9c0.4-0.5,5-2.4,10.4-4.1c7.4-2.4,10.1-2.9,11.4-2.1c1.2,0.7,1.9,0.7,2.4,0
		c0.3-0.6,1.7-1.4,3-1.9c3-1.2,4-3.7,4.9-12.3c0.4-3.7,1.1-6.5,1.5-6.2c0.4,0.2,1.3,3.2,2,6.5c0.7,3.5,1.8,5.9,2.4,5.7
		c1.2-0.4,1-5.6-0.5-13.6c-0.9-4.5-0.8-5.6,0.5-6.9s1.6-1.3,2-0.1c0.5,1.7,1.9,6.4,4.1,14.1c0.8,3.2,2,5.8,2.5,5.8
		c1.5,0,1.2-7.8-0.5-13.4c-3-9.8-2-13.3,5-16.9C507.1,433.9,506.7,433.3,511.4,447z"/>
	<path id="path52" fill="#EEE8AA" d="M460.5,453.6c1.1,0.5,0.9,1.6-1.2,6.2c-1.4,3.2-3.4,7.9-4.6,10.5c-1.4,3.3-2.3,4.4-2.8,3.5
		c-1.6-2.4-0.9-5.3,3.1-13C457.8,455.5,459.5,453.3,460.5,453.6z"/>
	<path id="path54" fill="#EEE8AA" d="M467.1,456c2.4,0,3.2,4.9,1.8,10.7l-1.4,5.8l-4.7,0.9c-2.7,0.5-5.1,0.7-5.4,0.4
		c-0.3-0.3,1.6-4.5,4.1-9.2C464.1,459.9,466.6,456,467.1,456z"/>
	<path id="path56" fill="#FFDEAD" d="M617.5,461c1.1,0,1.5,3.1,1.7,17c0.2,9.4,0,17-0.3,17c-1.2,0-4.8-30.4-3.8-32.2
		C615.6,461.8,616.7,461,617.5,461z"/>
	<path id="path58" fill="#FFDEAD" d="M604.8,461.9l3.4,0.3l3.3,0.3l0.7,9.5c0.4,5.2,0.9,12.4,1.2,16l0.5,6.5l-2-3.7
		c-1.9-3.6-5-15.7-6.4-24.6L604.8,461.9z"/>
	<path id="path60" fill="#8FBC8F" d="M369.2,564c1.2,0,28.2,11.2,29.2,12.1c0.5,0.4,0.4,5.5-0.3,12.1c-1.5,13.7-2.6,18.9-4.1,19.8
		c-0.9,0.6-39.8-6.5-40.8-7.4c-0.1-0.2,3.3-8.5,7.5-18.4C365,572.2,368.8,564,369.2,564z"/>
	<path id="path62" fill="#8FBC8F" d="M519.9,572.3c2.9,0.4,11.3,25.1,12.8,37.4c0.5,5.1,0.5,5.3-2.3,6.4c-1.6,0.7-10.1,1.4-19.5,1.7
		c-14.5,0.4-16.7,0.2-18.2-1.2c-1.5-1.5-1.6-3.5-1-15.9c0.3-7.8,1.1-15.8,1.7-17.7c1.1-3.4,1.4-3.6,13.1-7.2
		C513.1,573.8,519.1,572.2,519.9,572.3z"/>
	<path id="path64" fill="#4682B4" d="M346.7,603c0.3,0,4.4,1.4,9.1,3.1c8.6,3,23.9,5.9,31.7,5.9c7.5,0,7.4,0.8-1.7,13.1
		c-4.7,6.3-15.1,18.8-23.2,27.9c-17.5,19.6-19,22-18.4,30.5c0.3,4.9,1.5,8.5,6.5,19.1c12.4,25.9,13.2,31.4,5.1,36.1
		c-1.8,1.1-6.5,3.9-10.5,6.2l-7.1,4.2l-6.4-2.9c-11.5-5.3-18.6-15.4-19.6-27.9c-0.6-7.6,0.5-13.1,6.8-35.9c4.4-15.6,4.9-18.2,3.8-21
		c-1-2.9-0.5-4.4,7.4-22c4.7-10.4,10.3-22.8,12.3-27.7C344.6,606.9,346.4,603,346.7,603z"/>
	<path id="path66" fill="#4682B4" d="M533.8,620.2c0.4,0.8-3.2,26.4-7.4,53.8c-3.3,21.3-3,27.7,2.5,47.9c2.3,8.4,4,15.5,3.7,15.8
		c-0.9,0.9-5.6-8.4-6.5-13.2c-0.6-2.8-2.7-12.9-4.6-22.5c-4.4-21.5-5.8-25.6-9.5-27.5c-6-3.1-11-1.2-14.3,5.5l-2.4,4.7l-1.7-24.1
		c-0.9-13.2-2-27.6-2.3-31.9l-0.6-7.9l4.9,0.9c6.8,1.1,24.6,0.6,31.9-0.9C530.8,620.1,533.6,619.8,533.8,620.2z"/>
	<path id="path68" fill="#4682B4" d="M320,663.5c0,0.8-2.5,10.1-5.6,20.7c-4.9,16.6-5.7,20.8-6.2,30.1c-0.4,8.5-0.1,11.6,1.2,15.1
		c2.6,6.9,6.9,12,14.3,17.2c3.7,2.6,7.2,5.1,7.6,5.5c0.5,0.4-2.4,3.1-6.5,6.2c-15.3,11.4-26.5,25.1-36.2,44.4
		c-2.8,5.6-5.7,10-7.3,11c-2.4,1.6-6.2,1.8-38.8,2.1c-29.7,0.2-36.3,0-37.9-1.1c-1.4-1.1-2.1-3-2.4-7.4c-0.4-5.6-0.2-6.1,2.4-8.2
		c1.5-1.2,7.3-3.5,12.8-5.3c18.5-5.7,27.1-11.7,30.1-21.1c3.9-12.2,13.5-29.1,33.4-58.7c22.2-33.1,26.2-38.8,32.9-46.8
		C318.3,661.9,320,660.9,320,663.5z"/>
	<path id="path70" fill="#4682B4" d="M509.8,678.2c2.7,3.4,9.4,28.6,10.7,40.2c1.1,9.4,3.1,14.7,8,20.6c2.5,3,5.9,8.3,7.6,11.7
		c3.2,6.6,7.6,26.7,10.4,46.9c1.7,12.1,1.5,14.8-1.8,29.4c-1.3,5.5-1.4,5.5-6.8,7.4c-8.8,3-36.6,3.8-61.6,1.6
		c-12.5-1-20.8-2.2-21.8-3c-2.1-1.7-2-11.3,0.1-14.9c0.9-1.5,3.1-3.7,4.9-5c1.9-1.2,4.1-3.3,4.9-4.6c1.9-2.9,27.9-80.3,30.1-89.5
		c0.8-3.6,2-10.7,2.5-15.8c1-9.2,3.9-19.7,6.6-24C505.2,676.8,508.2,676.3,509.8,678.2z"/>
	<path id="path72" fill="#191970" d="M351.3,755.1c1.1-0.1,0.9,2.5-1.3,13.9c-2.2,11.9-4,28.5-4,36.9c0,6.9-1.3,8.8-6.2,9.3
		l-3.8,0.4V811c0-5.7,2.9-45.7,3.6-48.8c0.3-1.7,2-3.1,5.7-4.7C348.2,756.2,350.8,755.1,351.3,755.1z"/>
	<path d="M450.8,1.5c7.4,1.5,11.1,3.1,24.9,10.4l6.1,3.3l8.4-2.8c7-2.4,9.8-2.9,17.8-2.8c13,0.1,22.2,3.2,34.9,11.7
		c5.3,3.5,14.1,9.4,19.6,13c22.5,14.6,38.6,32.1,48,51.8c7.1,15,7.1,22.7-0.4,53.6c-7.8,32.2-8.5,40.6-4.7,55.1c1.7,6.2,3,8.1,7,9.7
		c5.6,2.4,11.7-1.2,13.1-7.7c0.4-1.5,1.1-3.1,1.7-3.4c1.6-1,5.5,4.2,7.9,10.6c1.8,4.6,2,7.1,1.7,15.5c-0.4,8.8-0.8,10.8-3.4,15.5
		c-3.3,6.1-8.3,10.1-15.9,12.6c-2.7,0.9-5.4,2-5.9,2.4c-0.4,0.5,1.1,3.1,3.3,6c17.1,21.6,23.2,47.8,16,68.8
		c-2.8,8.2-9.8,18.8-18.9,28.5c-5.7,6.1-7,8.1-6,8.7c1.7,1.1,1.7,1.1-3.7,3.5c-2.4,1-4.3,2.1-4.3,2.5c0,0.3,1.6,1.4,3.5,2.3
		c3.6,1.7,4.9,4.3,1.8,3.3c-4.6-1.3-7.3-1.8-7.3-1.1c0,0.4,1,2.1,2.2,3.8l2.2,3l-3.2-0.6c-2.7-0.6-3.2-0.4-3.2,1.3
		c0,3.4,3.6,6,8.3,6c2.3,0,5.1-0.6,6.2-1.3c7.6-5.2,7.2-5.1,8.9-1.8c2.6,5,2,10-1.9,16.1c-1.9,3-3.5,6.5-3.5,7.8
		c0,1.5,2.4,4.8,6.8,9.5c3.8,4,10,12,13.9,17.8c4,5.9,8.4,11.6,10,12.8c1.5,1.2,3.8,3,5,3.9c1.3,0.9,2.6,3.1,2.9,4.9
		c0.5,2.8,0.3,3.4-1.9,4.4c-2,0.9-3.5,0.8-7.7-0.6c-2.8-0.9-5.4-1.4-5.7-1.1s1.5,5,4.2,10.3c5,10.3,7.5,17.3,7.5,21
		c0,1.9-0.6,2.3-2.9,2.3c-3.6,0-9.3-6.1-15.5-16.5l-4.1-7l-0.2,3.5c-0.2,1.9-0.6,7.7-0.9,12.8c-0.5,7.6-1,9.8-2.8,11.9
		c-2.5,2.9-6.9,3.4-9.2,1.1c-0.8-0.8-3-6.4-4.8-12.4l-3.4-10.9l-1.6,5.3c-1.3,4.7-5.1,12.2-6.1,12.2c-0.2,0-1,0.3-1.9,0.6
		c-4,1.5-4-8.7-0.1-29.6c0.8-4.1,1.6-15.3,1.7-24.8c0.3-17.2,0.3-17.4-2.1-19.3c-1.8-1.5-3.9-1.9-9.5-1.9c-4.7,0-9.3-0.8-13.8-2.3
		c-3.7-1.3-6.5-2-6.3-1.6c0.3,0.3,3.9,2.3,8.1,4.3c4.2,2.1,7.2,4.1,6.8,4.6c-2.1,1.8-36.4,21.6-41.8,24c-3.4,1.5-8.7,3.3-11.8,4
		c-3.2,0.7-5.8,1.6-5.8,1.9s0.8,4.2,1.7,8.6c1.3,6.1,1.7,13.6,1.7,31.5c0.1,26-0.3,23.7,8.4,44.7c3,7.2,11,20.4,13.1,21.7
		c0.6,0.4,1.5,1.6,2.1,2.6c0.9,1.7,0.2,2.1-7.7,4.5c-4.9,1.5-9.6,3.5-10.7,4.5c-1.7,1.7-1.7,2.1-0.3,6.6c0.9,2.7,2.6,8.5,3.7,12.9
		c1.1,4.4,3.4,12.3,5.1,17.5l3.1,9.5L536,637c-6.9,45.5-8,53.3-8,58.3c0,3.3,2.3,13.8,6.1,27.7c17.5,65.1,18.2,68.2,18.3,86.5
		c0,11.3-0.3,14.8-1.7,17.9c-0.9,2.1-1.7,5.6-1.7,7.7c0,6.9-2.5,8.5-18,11.5c-16.5,3.2-33.8,4.1-45.1,2.5
		c-15.1-2.2-35.3-7.1-36.6-8.8c-1.9-2.5-1.7-20.6,0.2-24.3c0.8-1.6,3.2-3.8,5.3-5c6.9-3.9,7.5-5.4,20.5-48.5
		c2.5-8.3,5.3-18.2,6.3-22c0.9-3.9,2.9-9.5,4.5-12.5c5.2-10.1,5.4-12.4,3.8-52.7c-0.8-20.3-1.4-49.7-1.4-65.4v-28.5l-7,2.2
		c-19.8,6.3-42.2,5.5-66.9-2.3c-5.9-1.9-8.1-2.2-8.6-1.3c-0.4,0.7-1.7,6.3-2.9,12.4c-3.6,18.4-6.1,26.3-10.1,32.4
		c-3.4,5.2-7.5,10-33.3,38.7c-13.8,15.4-14.1,17.1-5.8,34.6c6.8,14.4,12.1,28.3,12.1,31.7c0,1.5-0.9,4.5-1.9,6.6
		c-1.3,2.4-1.8,4.9-1.4,6.9c0.4,2.5-0.2,4-2.6,7c-1.6,2.1-3.5,5.3-4,7c-0.9,2.8-3.6,23-7.1,53.4c-0.9,7.1-1.7,10.6-2.9,11.6
		c-0.9,0.8-4.4,2-7.8,2.6c-7.3,1.4-9.4,0.7-12.3-4.2c-1.8-2.8-2-5.1-2-19.2c0-8.8-0.3-18.4-0.7-21.3l-0.6-5.3l-4.9,4.8
		c-5.9,5.7-13.4,17.1-20.3,30.7c-2.7,5.5-6.1,10.8-7.5,11.7c-3.2,2.3-15,3-57.7,3.2c-24,0.2-32.5-0.1-33.4-1
		c-0.8-0.8-1.3-5.5-1.5-13.4c-0.2-11.3-0.1-12.3,1.9-14.3c1.2-1.2,10.1-5.3,19.7-9.1c12.3-4.9,18.3-7.9,20.5-10.1
		c1.7-1.7,5.8-9.2,9.5-17.4c10-22.2,28.3-51.4,52.9-84.3c13.3-17.8,18.3-26.6,28.6-49.7c11.7-26.3,13.1-29,16.5-30.1
		c3-1.1,5.2-3.7,6.5-7.9c0.4-1.4,1.8-4.8,3.1-7.5c1.3-2.8,3.4-8,4.8-11.7c2.9-7.8,3.4-7.3-8.1-8.3c-5.4-0.5-7.3-1.1-7.3-2.2
		c0-0.8,4.3-9.8,9.6-20.1c16.4-31.7,25.1-49.9,33.1-69c0.4-0.9-1.4-1.2-6.9-1.2c-8.4,0-17.6-2.1-22.6-5.2c-2.4-1.5-3-2.4-2.3-3.1
		c1.7-1.7,1.3-2.7-1.3-2.7c-3.7,0-15.6-3.9-20.6-6.7c-2.5-1.4-6.9-4.8-9.7-7.6c-5.7-5.5-7.4-5.6-5.5-0.4c2.2,6,1.5,12.3-2.3,20.7
		c-3.4,7.6-3.5,8-3.5,21.1c-0.1,15.4-1,18.4-4.8,14.8c-1.2-1.1-3-4.7-3.9-7.9c-1-3.3-2-6-2.3-6s-1.5,2.4-2.8,5.3
		c-3.3,7.6-8.6,14.4-13.1,16.7l-4,2l-1.5-2.2c-1.8-2.5-2.1-9.6-0.6-14.7c0.5-1.9,0.8-3.6,0.7-3.8c-0.2-0.1-3,2-6.2,4.7
		c-4.5,3.8-6.7,5-9.2,5c-2.8,0-3.3-0.4-3.3-2.3c0-1.3,2.3-6.1,5-10.7c2.8-4.6,5-8.5,5-8.7c0-0.1-1.5-0.3-3.4-0.3
		c-3.8,0-6.8-2.3-6-4.5c0.3-0.7,4-4.2,8.2-7.7c12.1-9.9,18.1-15.8,22.3-22c5.8-8.5,5.9-8.4-0.8-9.2c-7.9-0.9-15.8-4.9-18.8-9.5
		c-3.1-4.7-7.7-16.2-7.1-17.8c0.4-0.8,3.4,0.2,9.9,3.2c5.2,2.5,10.6,4.5,12.1,4.5c5.9,0,10.7-9.3,8.6-16.8c-0.5-2.1-3.2-6.7-6-10.1
		c-6.4-8-12.8-21.2-18-36.9c-6.2-18.9-7.4-27.4-7.5-51.7c0-21.8,0.8-28.1,4.6-35.7c2.5-4.9,2.4-5.1-1.2-6.7
		c-8.6-3.8-14-13.3-14.7-25.8c-0.8-14.7,5.2-27.6,16.2-35c5.2-3.5,12.4-5.9,13.7-4.6c0.4,0.4-0.1,2.8-1.1,5.2
		c-2.5,5.5-2.5,7.2,0.1,10.5c2.5,3.2,6.6,3.4,14.2,0.6c8.2-3.1,14.4-10.8,19.3-23.8c3.9-10.2,5.2-17,8.4-43.7
		c1.7-13.8,3.7-29.5,4.5-35c3.5-23.2,15.9-50.8,31.4-69.3C375.3,18.1,399.2,4.7,420.7,1C428.8-0.3,442.7-0.1,450.8,1.5z M428.4,7.1
		c-14.3,2.4-39,12.9-50.2,21.3c-7.4,5.7-15.5,15-22.8,26.1c-13.5,20.8-18.1,36.6-19.8,68.5c-2.1,36.8-13.9,73.4-26.9,83.3
		c-14.3,10.9-31.7,7.8-31.7-5.7c0-1.4-0.4-2.6-0.8-2.6c-2.4,0-9.5,7.8-12.4,13.7s-3.3,7.7-3.3,14.8c0,9.5,1.9,13.9,8.7,20.1
		c8.7,8,19.6,9.5,30.9,4.1c2.9-1.5,5.5-2.4,5.8-2.1c0.2,0.2-0.8,1.8-2.4,3.4c-3.5,3.7-12.1,7-18,7c-5.2,0-7.1,1.5-10.3,8.1
		c-3.5,7.3-4.5,17.3-3.2,31.2c1.7,18.7,3.9,32,7.1,45.2c3.4,13.4,5.3,18.4,9.8,24.8c1.6,2.4,5.2,8.6,7.9,13.8l5,9.4l4.4,0.3
		c7.5,0.5,9.2-0.7,12.3-9c4.5-11.7,17.7-37.4,26.9-52.3c9.8-15.8,15.4-29.2,18.6-44.5c2.5-11.9,8.8-28.8,12.6-33.7
		c5.6-7.3,14-8.8,33.4-5.8c12.8,2,12,2.2,12-2.9c0-9.1-0.7-10.2-10.4-18c-15.8-12.6-25.3-24.2-32.2-39.1c-3.1-6.7-5.8-10.4-6.9-9.3
		c-0.3,0.2,1.1,9.1,3,19.8c1.9,10.6,3.5,19.7,3.5,20.2c0,1.8-3,0.6-3.5-1.5c-2.1-9-4.9-23.8-6-32c-1.2-9.2-3.1-13.7-5.7-13.7
		c-0.5,0-0.5,13-0.2,29.2c0.6,25,0.4,30.6-1,38.1c-2.9,15-3.7,14.6-3-1.3c1-19.3,1-18.9,0-47.1c-1-27.5-0.6-30.4,4.9-42.6
		c8.4-18.3,23.5-34.3,45.6-48.2c8.3-5.1,26.9-14,46.3-22.1c19.5-8,23.9-10.3,29.1-15.1c4.6-4.3,8.5-11.3,8.5-15.4
		c0-3.7-3.5-6.2-11.1-8c-11.1-2.5-26.2-1.8-44.1,2.1c-2.1,0.4-2.8,0.2-2.8-0.9c0-1.7,2.9-3,12-5.4c8-2.1,26.9-2.1,35.3,0
		c3.1,0.8,5.7,1.1,5.7,0.7c0-1.4-12.6-6.8-19.7-8.4c-10-2.2-24.9-2-34.6,0.4c-13.3,3.4-29.3,10.6-38.4,17.6
		c-1.7,1.3-3.5,2.4-3.9,2.4c-1.9,0,7.8-8.7,15.4-13.7c16.2-10.8,30.9-15,49.7-14c6,0.3,13.3,1.3,16,2.1c7.3,2.3,7.6,2,1.6-2
		c-7.9-5.4-16.6-9.1-25.3-10.8C441.4,5.9,436.3,5.8,428.4,7.1z M489.2,19.4c-0.7,0.4-0.1,2.1,1.6,4.7c3,4.7,0.6,4.4,21.6,1.9
		c6.2-0.7,11.9-0.7,18.9,0c5.5,0.5,10.2,0.8,10.5,0.6c0.7-0.8-11-6.3-18.2-8.5C513.2,14.9,495.4,15.5,489.2,19.4z M506.8,32.5
		c-7.6,1.5-9.1,2.2-8.5,3.8c0.2,0.7,4.2,1.2,11.3,1.3c8.3,0.1,12.6,0.6,17.9,2.4c11.5,3.7,24.2,10.8,21.9,12.3
		c-0.5,0.3-5.5-1.5-11.2-3.9c-23.1-10.1-41-9.8-41.2,0.7c0,1.4,1.4,5.3,3,8.7c3.4,6.7,8,11.2,42,40.8c21.8,19,26.8,24.2,32.3,33.5
		c7.4,12.5,13.2,35.6,11.1,43.6c-0.9,3.4-2.4,2.8-2.4-1c0-4.7-3.6-18.7-6.6-25.9c-2.7-6.6-10.4-19.8-11.5-19.8
		c-1.3,0-7.1,27-9.8,45.5c-3,20.3-4.6,24.8-12.4,35.3l-3.2,4.4v26.3c0,14.5-0.3,26.1-0.6,25.7c-2.4-2.6-4.2-14-4.7-29.5l-0.5-16.9
		l-3.5,3.5c-3.4,3.5-3.5,3.8-4.3,14.4c-1.4,17.9,0.7,29.1,12,64.3c3.3,10.1,5.8,18.6,5.6,18.8c-1.5,1.5-3.6-2.3-7.9-14.4
		c-2.7-7.7-6.6-18.5-8.7-24.1c-4.1-10.9-6.2-23.3-5.8-34.3c0.1-3.6,0.2-8.9,0.1-11.8L521,231l-9.5,6.5
		c-16.3,11.1-27.4,15.8-40.3,17.1c-4.8,0.4-7,1-6.4,1.6s7.9,1.9,16.4,2.9c18.8,2.3,24.1,4.5,28.6,11.7c1.6,2.6,7.6,13.2,13.2,23.7
		c14.5,26.7,15.1,27.6,23.8,34.1c4.2,3.2,14.3,11.1,22.4,17.6c15.4,12.3,17.8,13.8,23.1,13.8c5,0,8.7-2.7,18.6-13.4
		c6.8-7.4,10.2-12.1,13.4-18.4c3.9-8,4.2-9.1,4.5-18.7c0.6-16.2-3.9-30.4-14.3-45c-6.5-9-12.2-14.1-18.7-16.5s-16.7-9.7-19.9-14.1
		c-1.2-1.7-1.9-3.2-1.7-3.4s3.7,1.9,7.8,4.6c9.6,6.4,19.1,9.4,26.7,8.5c10.2-1.2,16.9-5.4,20.4-13.1c2.1-4.5,2.6-17.5,0.9-21.9
		l-0.9-2.6l-4.8,2.6c-9.4,5-17.7,1.4-23.3-10c-3.7-7.5-5-15.8-3.8-25.3c0.4-3.7,3.6-17.7,7-31.3c5.5-21.7,6.2-25.6,6.2-34
		c0-11.6-1.9-17-10.3-29.8c-6.8-10.4-22-26.6-30.7-32.8c-8.9-6.4-20.1-11.3-29.1-12.9C530.6,30.7,515.7,30.8,506.8,32.5z M494.6,59
		c-0.1,0-2.2,2.1-4.6,4.6c-8.4,8.6-16,12.8-44.5,24.9c-6,2.5-11.3,4.9-11.7,5.3c-0.4,0.4,5.8,4.3,13.7,8.6c8,4.3,14.5,8.2,14.5,8.7
		s-1.1,1.6-2.5,2.5c-2.5,1.6-2.7,1.5-10.8-3.9c-10-6.8-18.2-10.7-22.3-10.7c-7,0-28.9,13.3-39.3,23.9c-11,11.2-20.3,26.5-21.7,35.6
		c-0.7,4.8,2.1,11.6,5.5,13.5c2.8,1.5,2.9,1.5,2.3-4.1c-0.8-8,1.9-5.8,4.3,3.7c4.1,15.8,9.6,24.2,27.2,41.7
		c12.4,12.3,23.1,20.3,36,27c13.1,6.8,23.4,10,32,10c8.3,0,13.4-2.1,32.3-13.5c19-11.4,35.3-26.4,40.4-37.2
		c3.5-7.4,6.5-19.3,7.2-28.6c0.3-4.1,0.7-8.8,0.9-10.4l0.5-2.9l-4.6,4.3c-6.8,6.2-16.9,10.5-31.4,13.4c-6.9,1.4-12.6,2.4-12.7,2.3
		c-0.5-0.6,6.7-20,8.9-23.7c4.6-7.9,10.6-13.8,17.9-17.6c6.4-3.4,9.5-6,12.6-11c1.1-1.7,1.2-1.6,1.2,1.3c0.1,2.5,0.5,3.3,2,3.3
		c2.4,0,3.9-1.9,4.7-5.8c0.4-1.9,1.3-3.2,2.1-3.2c1.2,0,1.4,1,1.1,4.5c-0.2,2.5,0,4.5,0.3,4.5c1,0,3.9-4.8,3.9-6.5
		c0-1.8-13.5-16.2-15.9-17c-1.1-0.3-6.6,1.9-13.6,5.5c-6.6,3.3-12.2,6-12.6,6c-1.1,0,0.9-6.2,2.3-7.5c1.3-1.1,7.2-3.8,15.1-6.9
		l3.7-1.5l-4.2-3.9c-2.4-2.1-8.8-7.5-14.3-11.9c-11-8.8-18.6-16.5-23-23.1C496,60.9,494.7,59,494.6,59z M549.9,135.6l-3.6-0.6
		l0.1,7.7c0.1,6.8-0.3,8.4-2.6,12.4c-5.4,9.1-16.2,13.6-25.4,10.6l-4.6-1.5l-2,4.5c-1.1,2.5-1.8,4.7-1.5,4.9
		c0.9,0.9,20.9-4.7,27.1-7.5c7.8-3.6,11.9-7.1,14.5-12.4c2.2-4.6,3.9-16.1,2.5-16.9C553.9,136.5,551.9,136,549.9,135.6z
		 M536.8,138.3c-3.2,1.3-4.8,2.6-4.8,3.7c0,2.6,2.4,4.2,5.4,3.4c3.2-0.8,3.3,0.3,0.6,5.6c-3.2,6.2-5.8,7.4-14.5,6.7
		c-6.1-0.4-7.5-0.3-7.9,1c-0.4,0.9-0.5,1.7-0.4,1.8c3.4,2.8,12.3,3.3,16.6,1.1c6.4-3.3,11.2-11.1,11.1-17.8
		C542.8,136.5,542.3,136,536.8,138.3z M459.1,253.5l-16.5-8.2l-16.6-8.2v8.9c0,9.7,0,9.7-5.8,8.1c-3.9-1.2-4.1-0.3-0.4,3.1
		c11.4,10.7,40.3,15,53.7,8l3-1.6l-5.7-1.4c-6.7-1.6-8.5-1.2-9.8,2.3c-1.8,4.7-3.3,1.8-2.6-4.9L459.1,253.5z M382.4,254.3
		c-6.1,7.2-13,25.6-16.3,43.4c-1.6,8.4-4.5,14.6-17,36.2c-23.8,41-28.4,50.2-27.9,55.6l0.3,3.6l73.5,29.4
		c40.4,16.2,74.4,29.5,75.5,29.5c3.5,0,21.5-13.1,50.6-36.7c28.9-23.3,60.7-51.1,60.6-52.8c-0.1-0.6-3.7-3.9-8.2-7.4
		c-4.4-3.5-12.5-10.1-18-14.5c-5.5-4.5-12.1-9.7-14.8-11.6c-5.7-4.2-11.8-13.6-24.3-37.5c-9-17.3-12.7-22.5-17.5-25.1
		c-4.5-2.3-6.2-1.7-11.4,3.6c-2.7,2.7-5.7,5-6.7,5s-5.4,1.3-10,3c-7,2.6-9.6,3-17.7,3c-8.6,0-10.8-0.4-20.8-3.9
		c-15-5.3-24-11.8-28.8-21c-0.8-1.7-2.8-3.7-4.3-4.4C392.5,248.3,386.7,249.2,382.4,254.3z M582.9,374.5c-2-2.2-0.6,1.3,3.1,7.7
		c4.5,7.9,4.5,7.8,2.6,7.8c-0.7,0-3.6-3.5-6.5-7.8c-5.7-8.6-6.7-8.2-2,0.9c1.6,3.3,2.9,7,2.7,8.2c-0.2,1.7-1.4,0.5-5.1-5.6
		c-2.7-4.2-5-7.7-5.1-7.7c-0.8,0-7.6,6.7-7.6,7.5c0,0.5,8.1,9.1,18.1,19.2c18,18.1,18.1,18.3,17.6,22c-0.2,2.1-1.8,15.7-3.6,30.3
		c-1.7,14.6-3.2,27.5-3.4,28.7c-0.2,1.3-0.1,2.3,0.3,2.3c1.3,0,6.8-16.3,7.8-23.2c0.7-4.9,2-8.1,4.7-12.3c2.1-3.1,3.9-5.4,4.2-5.2
		c0.2,0.3-0.6,2.8-1.7,5.7c-1.1,2.9-1.9,5.4-1.7,5.6s3.2-0.1,6.7-0.7c3.5-0.5,6.8-0.8,7.5-0.5c0.6,0.2,5,6.6,9.8,14.2
		c4.7,7.7,9.3,14.8,10.2,15.9c1.6,1.9,1.6,1.9,1.1-1c-0.2-1.7-3.7-10.3-7.7-19.3c-6.5-14.6-7.7-16.7-12-20.3
		c-4.9-4.1-9.3-10.1-8.7-11.8c0.2-0.6,3.9,2.2,8.3,6c16.2,14.2,22.9,18.2,25,15c0.5-1-0.8-2.1-7.4-6.4c-2.1-1.3-5.3-5.3-8-9.9
		c-2.5-4.3-8.5-12.2-13.2-17.5c-9.3-10.7-16.6-20.2-27.9-36.3C587,380.2,583.3,375.1,582.9,374.5z M613.3,388.1
		c-2.2,0.3-12.8,3.1-13.1,3.4c-0.2,0.2,1.5,2.9,3.8,5.9c3.2,4.3,4.6,5.4,5.5,4.6c2.1-1.8,4.5-7.6,4.5-10.9
		C614,389.4,613.7,388,613.3,388.1z M562,390.1c0,0.2,1.4,4,3,8.4c3.5,9.3,3.3,8.5,1.8,8.5c-0.7,0-3-3.6-5.1-8c-2.2-4.4-4.2-8-4.7-8
		c-0.4,0-1.3,0.6-1.9,1.4c-1.5,1.8,1.1,8.9,4.7,12.8c3.4,3.7,12,6.8,20.7,7.5l7,0.6l-8-7.4C567.5,394.7,562,389.7,562,390.1z
		 M304.6,396.2c-0.3,0.7-0.7,4.2-1,7.7c-0.7,7.1-3.9,12.6-7.9,13.6c-1.3,0.4-6.4-0.2-11.5-1.2c-10.9-2.3-11.7-1.5-4.9,5.2
		c4.9,4.9,10.1,6.8,18,6.3c5.6-0.3,5.9-0.7,7.2-8.8c0.3-2.2,3-6.9,7.1-12.3c5.2-7.1,6.3-9.1,5.3-10.3
		C315.4,394.6,305.1,394.5,304.6,396.2z M324.2,400c-0.9-2.4-0.9-2.4-3.4,1.5c-1.3,2.2-5.7,10.1-9.8,17.5c-4,7.4-8.8,16.2-10.6,19.5
		c-5,9.2-10.1,15-19.9,22.5c-13.5,10.3-14,10.8-13.3,11.6c0.4,0.4,4.7-0.8,9.5-2.5c4.8-1.8,11.1-3.8,13.8-4.5
		c9.3-2.3,12.6-5.2,14.9-12.9c0.7-2.3,2.6-2.2,2.6,0.2c0,5.2-4.9,12-9.9,14c-1.4,0.5-4.8,1.3-7.5,1.6c-4.4,0.6-5.7,1.4-11,6.9
		c-5.4,5.4-13.8,18.7-11.8,18.6c0.4-0.1,5-4.1,10.2-9c5.2-4.8,9.6-8.7,9.8-8.5c0.3,0.3-3.5,22.6-4.4,25.7c-0.3,1-0.1,1.8,0.4,1.8
		s1.2-0.8,1.5-1.8c0.3-0.9,2.4-6.9,4.7-13.2c5.7-15.7,5.6-15,3.1-15c-1.2,0-2.1-0.6-2.1-1.5c0-1.1,1.1-1.5,3.9-1.5
		c2.1,0,5.8-0.3,8.2-0.6l4.4-0.6l0.1,8.9c0.1,5.9,0.6,9.9,1.7,12.3c1.6,3.4,1.7,3.2,1.1-8.1c-0.6-11.4-0.5-11.6,3-20.6
		c3.2-8.2,3.5-9.6,2.9-16c-0.7-8.5,1.3-13.9,8.1-21.1c5.6-6,6.6-8.6,6.6-17.2c0-8.2-1.6-10.1-2.4-3c-0.3,2.7-0.9,7.2-1.2,10
		c-0.4,3.5-1,5-2.1,5c-1.3,0-1.4-1.3-0.8-8.8C324.8,406.4,324.7,401.4,324.2,400z M551.5,399c-1.4-1.2-1.6-1-1,1.1
		c5.1,21.5,4.5,26.8-1.3,10.4l-3.4-9.5l-3.4,2.7l-3.5,2.6l0.7,10.6c0.3,5.8,0.7,11,0.8,11.5c0,0.5-0.4,1-1.1,1.3
		c-1.2,0.4-1.5-0.7-3.3-12.5c-1.9-11.5-3.2-7.8-2.4,6.4c0.4,7.9,0.3,12.4-0.3,12.4c-1.2,0-2.9-5.6-3.9-12.5c-1-7.5-1.5-8-4.9-4.5
		l-2.9,3l1.7,5.2c2.5,8.1,3.3,15.8,1.6,15.8c-0.9,0-2.3-3.2-3.8-9c-1.4-5-3-9-3.5-9c-0.6,0-2.4,1.2-3.9,2.6l-2.9,2.5l2.7,7.2
		c3.9,10.8,3.2,10.3,11.2,8.4c8.8-2.2,20-7.6,34.3-16.7c6.3-4,11.7-7.4,11.9-7.6c0.3-0.3-9.1-4.9-12-5.7c-0.9-0.3-2.4-3.4-3.7-8
		C554,403.6,552.3,399.7,551.5,399z M346,407.9l-1.9-2.4l-1,2.8c-0.7,1.7-0.8,6.9-0.4,13.7c0.7,13.4-0.8,14.8-2.6,2.5
		c-0.7-4.7-1.7-8.8-2.2-9.1c-1.2-0.7-2.9,4-2.9,8.2c0,2.1-0.4,3.3-1,2.9c-0.5-0.3-1-1.5-1-2.6c0-2.9-1.2-2.2-5.3,3.2
		c-5.5,7.2-5.5,7.5-0.8,11.8c5.8,5.4,17.2,10.9,26.4,12.7c7.2,1.5,8.6,1.5,17.4,0c5.2-0.9,9.8-1.8,10.3-2.1c0.4-0.2,1-5.9,1.4-12.5
		c0.5-8.8,0.3-12.6-0.6-14.3c-1.2-2.1-1.3-1.9-1.9,2.3c-0.4,2.5-0.8,7.3-0.8,10.6c-0.1,8.2-1,12.4-2.7,12.4c-1.1,0-1.4-2.1-1.6-8.8
		c-0.1-7.2-0.2-7.7-0.5-2.7c-0.7,10.2-1.9,8.1-3.2-5.1c-1-11.1-2.4-16.5-3.8-15c-0.2,0.2,0.1,4.9,0.8,10.3c1,8.6,0.9,10.6-0.5,15.5
		c-2.5,8.8-3.7,8.2-3-1.4c0.4-5,0.2-11.9-0.6-17.1c-1-7.3-1.6-9-3.7-10.7c-2.5-1.9-7.3-2.8-7.3-1.3c0,0.4,1.4,6.5,3.1,13.6
		c1.7,7,2.9,13.1,2.5,13.4c-1.1,1.2-3.4-0.7-4-3.4c-0.4-1.5-2.1-7.8-3.8-13.9C349.2,415.3,347,409.3,346,407.9z M389,424.7
		c-1.8-0.5-2,0-2,5.6c0,5.3-2.8,19-4.4,21.6c-0.3,0.5-3.9,2.4-8.1,4.2c-4.1,1.9-7.5,3.7-7.5,4.1c0,1.5,8.3,2.9,15.8,2.6l7.7-0.3
		l2.8-8.5c5.8-18,7.2-24.1,5.6-25.1c-2.9-1.8-3.7-0.6-6.5,10.2c-3.3,12.4-3.9,13.8-5.3,12.4c-0.7-0.7-0.2-4.9,1.4-12.5
		c1.4-6.3,2.5-12,2.5-12.6C391,425.7,390.1,425,389,424.7z M404.5,431c-0.3,0-1.2,2.6-2,5.7c-7.7,27.4-19.5,56.3-39.1,95.5
		c-10.6,21.2-11,22.7-6.6,22.8c0.7,0,10,3.4,20.7,7.5c22.7,8.8,31,11.6,42,14.4c10.9,2.8,33.5,6.5,34.3,5.6c2.2-2.1,0.6-53-2.4-76.2
		l-0.5-4.1l-13.1,3.4c-7.2,1.9-13.3,3.2-13.6,3c-0.5-0.6,4.5-2.8,15.3-6.8c4.4-1.6,8.4-3.3,8.9-3.8s0.5-4.3,0.1-8.5l-0.7-7.6
		l-5.6,0.6c-27.4,3-39.3,3.3-36.9,0.9c0.3-0.4,8.9-1.6,18.9-2.7c10.1-1.1,18.4-2.2,18.6-2.3c0.2-0.1-1.8-3.4-4.4-7.3
		c-3.7-5.6-5.1-7-6.6-6.5c-2.2,0.7-2.4-1.4-0.4-4.1c1.2-1.7,1.2-2.4-0.1-4.8c-1.3-2.6-1.6-2.7-3.1-1.5c-3.1,2.6-7.2,4.9-7.2,4
		c0-0.5,1.8-3,4.1-5.5c2.9-3.4,4-5.4,3.7-7.3c-0.3-2.3-0.9-1.6-5.2,5.5c-2.7,4.5-5.5,8.1-6.3,8.1c-1.1,0-1-0.7,0.3-3.8
		c4.3-10,4.2-10.3-0.7-6.6c-1.9,1.4-4.3,3-5.4,3.6c-2.3,1.2-2.9,2.1,5.9-8.4c4.5-5.4,4.6-5.7,2.7-6.7c-3.3-1.8-6-1.3-7.8,1.6
		c-2.8,4.7-8.4,11.3-9.4,11.3c-1.6,0-1-1.9,3.1-8.5c2.2-3.6,4-6.9,4-7.4c0-0.4-1.1-1.3-2.5-1.9C406.1,431.5,404.7,431,404.5,431z
		 M503.5,435.7c-7,3.6-8,7.1-5,16.9c1.7,5.6,2,13.4,0.5,13.4c-0.5,0-1.7-2.6-2.5-5.8c-2.2-7.7-3.6-12.4-4.1-14.1
		c-0.4-1.2-0.7-1.2-2,0.1s-1.4,2.4-0.5,6.9c1.5,8,1.7,13.2,0.5,13.6c-0.6,0.2-1.7-2.2-2.4-5.7c-0.7-3.3-1.6-6.3-2-6.5
		c-0.4-0.3-1.1,2.5-1.5,6.2c-0.9,8.6-1.9,11.1-4.9,12.3c-1.3,0.5-2.7,1.3-3,1.9c-0.5,0.7-1.2,0.7-2.4,0c-1.3-0.8-4-0.3-11.4,2.1
		c-5.4,1.7-10,3.6-10.4,4.1c-0.6,1,1.4,14.9,2.2,14.9c0.3,0,6.3-4.2,13.5-9.3c7.2-5,13.4-9.1,13.7-9c2.4,0.6-0.3,3.4-12.4,12.5
		l-13.6,10.3l0.6,8c0.3,4.4,1.3,23,2.2,41.2c1.2,21.8,2.1,33.3,2.8,33.3c0.6,0,14.8-3.8,31.6-8.5c16.8-4.7,33.9-9.5,38-10.7
		c4.1-1.1,7.6-2.2,7.8-2.3c0.2-0.2-3.6-8.1-8.5-17.6l-8.8-17.4l-0.5,10c-0.5,9.2-0.6,9.8-1.8,7.1c-0.9-2.2-1.2-11.1-1.1-35.5
		c0.1-36.7-0.6-43-6.7-61.1C506.7,433.3,507.1,433.9,503.5,435.7z M460.5,453.6c-1.6-0.6-9.5,13.5-9.5,16.9c0.1,4.7,1.7,4.6,3.7-0.2
		c1.2-2.6,3.2-7.3,4.6-10.5C461.4,455.2,461.6,454.1,460.5,453.6z M467.1,456c-1.2,0-10.4,17-9.7,17.8c0.3,0.3,2.7,0.1,5.4-0.4
		l4.7-0.9l1.4-5.8c1-4.4,1.1-6.4,0.3-8.3C468.5,457.1,467.6,456,467.1,456z M617.5,461c-3.1,0-3.4,3.4-1.3,18.8
		c1.2,8.3,2.4,15.2,2.7,15.2s0.5-7.6,0.3-17C619,464.1,618.6,461,617.5,461z M611.5,462.5l-3.3-0.3l-3.4-0.3l0.7,4.3
		c1.4,8.9,4.5,21,6.4,24.6l2,3.7l-0.5-6.5c-0.3-3.6-0.8-10.8-1.2-16L611.5,462.5z M369.2,564c-0.7,0-16.5,36.1-16,36.6
		c1,0.9,39.9,8,40.8,7.4c1.5-0.9,2.6-6.1,4.1-19.8c0.7-6.6,0.8-11.7,0.3-12.1c-0.5-0.5-7.1-3.4-14.7-6.5
		C376.2,566.5,369.6,564,369.2,564z M519.9,572.3c-0.8-0.1-6.8,1.5-13.4,3.5c-11.7,3.6-12,3.8-13.1,7.2c-0.6,1.9-1.4,9.9-1.7,17.7
		c-0.6,12.4-0.5,14.4,1,15.9c1.5,1.4,3.7,1.6,18.2,1.2c9.4-0.3,17.9-1,19.5-1.7c2.8-1.1,2.8-1.3,2.3-6.4c-0.9-7.5-4.3-19.6-8-29
		C522.8,576.1,520.7,572.4,519.9,572.3z M346.7,603c-0.3,0-2.1,3.9-4.2,8.7c-2,4.9-7.6,17.3-12.3,27.7c-7.9,17.6-8.4,19.1-7.4,22
		c1.1,2.8,0.6,5.4-3.8,21c-6.3,22.8-7.4,28.3-6.8,35.9c1,12.5,8.1,22.6,19.6,27.9l6.4,2.9l7.1-4.2c4-2.3,8.7-5.1,10.5-6.2
		c8.1-4.7,7.3-10.2-5.1-36.1c-5-10.6-6.2-14.2-6.5-19.1c-0.6-8.5,0.9-10.9,18.4-30.5c8.1-9.1,18.5-21.6,23.2-27.9
		c9.1-12.3,9.2-13.1,1.7-13.1c-7.8,0-23.1-2.9-31.7-5.9C351.1,604.4,347,603,346.7,603z M533.8,620.2c-0.2-0.4-3-0.1-6.3,0.6
		c-7.3,1.5-25.1,2-31.9,0.9l-4.9-0.9l0.6,7.9c0.3,4.3,1.4,18.7,2.3,31.9l1.7,24.1l2.4-4.7c3.3-6.7,8.3-8.6,14.3-5.5
		c3.7,1.9,5.1,6,9.5,27.5c1.9,9.6,4,19.7,4.6,22.5c0.9,4.8,5.6,14.1,6.5,13.2c0.3-0.3-1.4-7.4-3.7-15.8c-5.5-20.2-5.8-26.6-2.5-47.9
		c1.4-9.1,3.7-24.7,5.1-34.8C533,629.1,534,620.6,533.8,620.2z M313.8,667.2c-6.7,8-10.7,13.7-32.9,46.8
		c-19.9,29.6-29.5,46.5-33.4,58.7c-3,9.4-11.6,15.4-30.1,21.1c-5.5,1.8-11.3,4.1-12.8,5.3c-2.6,2.1-2.8,2.6-2.4,8.2
		c0.3,4.4,1,6.3,2.4,7.4c1.6,1.1,8.2,1.3,37.9,1.1c32.6-0.3,36.4-0.5,38.8-2.1c1.6-1,4.5-5.4,7.3-11c9.7-19.3,20.9-33,36.2-44.4
		c4.1-3.1,7-5.8,6.5-6.2c-0.4-0.4-3.9-2.9-7.6-5.5c-7.4-5.2-11.7-10.3-14.3-17.2c-1.3-3.5-1.6-6.6-1.2-15.1
		c0.5-9.3,1.3-13.5,6.2-30.1c3.1-10.6,5.6-19.9,5.6-20.7C320,660.9,318.3,661.9,313.8,667.2z M503.6,679.2c-2.7,4.3-5.6,14.8-6.6,24
		c-0.5,5.1-1.7,12.2-2.5,15.8c-2.2,9.2-28.2,86.6-30.1,89.5c-0.8,1.3-3,3.4-4.9,4.6c-1.8,1.3-4,3.5-4.9,5
		c-2.1,3.6-2.2,13.2-0.1,14.9c1,0.8,9.3,2,21.8,3c25,2.2,52.8,1.4,61.6-1.6c5.4-1.9,5.5-1.9,6.8-7.4c3.3-14.6,3.5-17.3,1.8-29.4
		c-2.8-20.2-7.2-40.3-10.4-46.9c-1.7-3.4-5.1-8.7-7.6-11.7c-4.9-5.9-6.9-11.2-8-20.6c-1.3-11.6-8-36.8-10.7-40.2
		C508.2,676.3,505.2,676.8,503.6,679.2z M345.3,757.5c-3.7,1.6-5.4,3-5.7,4.7c-0.7,3.1-3.6,43.1-3.6,48.8v4.6l3.8-0.4
		c4.9-0.5,6.2-2.4,6.2-9.3c0-8.4,1.8-25,4-36.9c1.1-5.8,2-11.3,2-12.3C352,754.6,351.7,754.6,345.3,757.5z"/>
	<path d="M407.8,114.9c1.1,3.3,4.6,7.1,6.3,7.1c0.8,0,1-1.4,0.6-4c-0.6-4.8,0.1-5,2.8-0.7c1.7,2.7,3.6,3.7,11,6.2
		c5,1.6,10.7,4,12.7,5.3c9.4,5.8,17.7,19.3,22.9,37.2c4,13.5,4.4,13.2-16.8,9.2c-9.3-1.7-19.9-4.2-23.6-5.4
		c-12.4-3.9-20-13.3-23.3-28.6c-0.7-3.7-1.4-7-1.4-7.4s-2.9-2.3-6.4-4.3c-4.5-2.5-6.3-4.1-5.9-5.1c0.7-1.8,1.2-1.8,5.1,0.6
		c3.7,2.3,7.2,2.6,7.2,0.7c0-0.6-0.9-2.7-2.1-4.6c-2.8-4.7-1.6-5,3.1-0.7c5.8,5.2,7.6,4.8,5.4-1.2c-0.7-2-1.3-4.5-1.4-5.5
		C404,110.9,406.7,111.8,407.8,114.9z M416.6,130c-5.1,6.1-5.8,16.2-1.4,22.3c2.8,3.9,11.1,7.7,16.8,7.7c6.9,0,13-3.5,15.8-9
		c1.2-2.4,2.2-5.3,2.2-6.3c0-2.6-10.5-12.8-12.3-12.1c-0.9,0.3-2.1,1.9-2.8,3.6c-1.7,4.1-0.4,5.9,5.7,7.9l4.9,1.6l-4.6,4.6
		c-4.2,4.2-5.1,4.7-9.2,4.7c-3.8,0-5.3-0.6-8.2-3.1c-7-6.2-8.5-13.7-4-20.3c1.4-2,2.5-3.9,2.5-4.1C422,125.9,418.8,127.5,416.6,130z
		 M408.5,129c-4,1.5-4.8,3.6-4.2,10c1.5,14.3,9.6,24.3,23.4,29.1c5.8,2,32.2,6.3,33.1,5.5c1.2-1.3-1.3-12.1-4.2-18.2l-3.2-6.8
		l-2.2,3.6c-3.4,5.4-9.6,10.6-13.7,11.4c-9.8,1.8-23-3.9-27-11.6c-2.8-5.6-2.5-13.2,1-22.3C412.3,127.9,411.6,127.7,408.5,129z"/>
	<path d="M485.2,205.9c1.1,1.8,1.4,1.8,3.9,0.5c1.6-0.8,3-1.4,3.3-1.4s1.5,1.9,2.7,4.2c2.6,5.2,3.6,5.9,6.9,5.1
		c2.5-0.6,2.5-0.5-0.6,2.5c-2.1,2.1-3.5,4.9-4.3,8.5c-2.9,13.2-15.4,20.7-27.5,16.7c-4.5-1.5-10.3-7.2-12.7-12.5
		c-1.8-4.1-5.4-18.4-4.7-19c0.2-0.2,5.9-1.7,12.8-3.3C480.4,203.6,483.6,203.4,485.2,205.9z M470.1,210.4c-5.5,2-6.1,2.4-4,2.9
		c1.3,0.4,4.8,0.7,7.7,0.7c5.2,0,8.2,1.6,9.4,5.1c0.4,1.1,1.1,0.9,3-0.9c1.5-1.3,3.7-2.2,5.6-2.2h3.3l-1.6-3c-1.7-3.3-2.3-3.5-6-1.8
		c-2.2,1-2.8,0.9-4.1-1C481.5,207.4,478.5,207.5,470.1,210.4z M466.6,216.7l-9.8-1.4l0.5,4.4c0.2,2.4,1.6,6.1,3.1,8.3
		c8.7,13.2,25.3,12.5,32.5-1.3c3-6,2.1-7.1-4.2-5.2c-5.1,1.5-7,1.2-10.2-1.6C477.2,218.8,473,217.7,466.6,216.7z"/>
</g>
</svg>
