<?xml version="1.0" encoding="utf-8"?>
<!-- Generator: Adobe Illustrator 21.0.0, SVG Export Plug-In . SVG Version: 6.00 Build 0)  -->
<svg version="1.1"
	 id="svg130" inkscape:version="0.92.2 5c3e80d, 2017-08-06" sodipodi:docname="101 #19488.svg" xmlns:cc="http://creativecommons.org/ns#" xmlns:dc="http://purl.org/dc/elements/1.1/" xmlns:inkscape="http://www.inkscape.org/namespaces/inkscape" xmlns:rdf="http://www.w3.org/1999/02/22-rdf-syntax-ns#" xmlns:sodipodi="http://sodipodi.sourceforge.net/DTD/sodipodi-0.dtd" xmlns:svg="http://www.w3.org/2000/svg"
	 xmlns="http://www.w3.org/2000/svg" xmlns:xlink="http://www.w3.org/1999/xlink" x="0px" y="0px" viewBox="0 0 850 850"
	 style="enable-background:new 0 0 850 850;" xml:space="preserve">
<style type="text/css">
	.st0{fill:none;}
	.st1{fill:#AD7FA8;}
	.st2{fill:#F57900;}
	.st3{fill:#FF00FF;}
	.st4{fill:#FFDEAD;}
	.st5{fill:#778899;}
	.st6{fill:#000080;}
	.st7{fill:#FF0000;}
	.st8{fill:#E9967A;}
	.st9{fill:#FFA500;}
	.st10{fill:#D2691E;}
	.st11{fill:#D2B48C;}
	.st12{fill:#9370DB;}
	.st13{fill:#9400D3;}
	.st14{fill:#EE82EE;}
	.st15{fill:#4B0082;}
	.st16{fill:#8A2BE2;}
	.st17{fill:#7B68EE;}
	.st18{fill:#00BFFF;}
	.st19{fill:#48D1CC;}
	.st20{fill:#FFD700;}
	.st21{fill:#00FF00;}
</style>
<sodipodi:namedview  bordercolor="#666666" borderopacity="1" gridtolerance="10" guidetolerance="10" id="namedview132" inkscape:current-layer="svg130" inkscape:cx="588.56" inkscape:cy="834.50873" inkscape:pageopacity="0" inkscape:pageshadow="2" inkscape:window-height="978" inkscape:window-maximized="1" inkscape:window-width="1920" inkscape:window-x="0" inkscape:window-y="1" inkscape:zoom="0.83294118" objecttolerance="10" pagecolor="#ffffff" showgrid="false">
	</sodipodi:namedview>
<g id="g128" transform="translate(0.000000,0.000000) scale(1.00000,1.00000)">
	<path id="path4" class="st0" d="M0,0h425h425v425v425h-68.9h-68.9l-8.3-11.8c-15.9-22.5-49.1-65.2-66.7-85.7
		c-13.4-15.6-41.3-45.5-49.9-53.4l-7.3-6.8l13-4.3c7.1-2.4,13-4.7,13-5.1c0-1-11-8.8-18-12.7c-14.5-8.1-33.4-13.2-49.2-13.2
		c-6.3,0-6.9-0.2-6.3-1.8c1.8-4.1,3.3-10.2,3.5-13.3c0.4-6.8,0.3-6.9-4.2-6.9c-2.4,0-6.3-0.7-8.8-1.6c-3-1.1-6.3-1.4-9.8-1.1
		c-7.7,0.8-6.3-0.9,5.7-7c9.2-4.7,10.8-5.2,14.7-4.6c4,0.5,4.3,0.4,5-2.1c1.3-5.4-4.9-7.8-8-3.1c-0.9,1.4-2.4,2.5-3.4,2.5
		c-0.9,0-5.3,1.8-9.7,3.9c-4.4,2.2-8.1,3.8-8.2,3.7c-0.5-0.4-2.3-14.1-2.3-17.1c0-4.2,14.5-19,20.1-20.5c4.7-1.3,5.2-2.1,3.3-4.9
		c-2-2.8-5.4-2.4-7,0.6c-0.6,1.3-3.7,4.6-7,7.4c-3.2,2.9-7,6.5-8.4,8.1l-2.5,2.9l-4.8-6.1c-2.6-3.3-5.9-6.7-7.2-7.6
		c-2.5-1.6-2.7-1.5-7.9,1.9c-2.9,1.9-7.9,5.6-11,8.2c-3.2,2.6-5.9,4.5-6.1,4.3c-0.2-0.2,0.1-2.6,0.7-5.3c0.7-3.3,1.9-5.7,3.5-7.1
		c3.1-2.5,2.4-6.1-1.3-7c-3.7-1-5.8,0.2-4.9,2.9c1,2.9,0.9,6.3-0.6,17.4c-0.6,5.1-1.5,9.3-2,9.3c-0.5,0-0.9-0.6-0.9-1.3
		c0-3.1-6.3-9.7-14.9-15.6l-9.2-6.3l-2.5,2.3l-2.4,2.2v-3.2c0-6.1,4.8-14.1,12.9-21.6c19.4-17.9,28-29.6,32.1-43.2
		c0.7-2.4,1.6-4.3,1.9-4.3c1,0,4.1,5.6,4.1,7.3c0,1.7,2,3.5,32.9,30.3c26.1,22.7,31.6,27.1,38.4,30.5c18.6,9.5,32.4,12.2,47.7,9.3
		c7.8-1.4,9.9-2.2,12.3-4.6l2.9-2.9l-0.5-14.7c-1-28.1-7.7-39.8-32.6-56.7c-16.4-11.1-39.1-27.9-45-33.2c-5.1-4.6-5.3-5-5.3-9.8
		c0-3,0.8-6.8,2-9.5c1.2-2.5,2.6-8.4,3.2-13.2s1.9-12.8,3-17.9c1.6-7.7,1.7-10.5,0.9-17.8c-1.4-12-2.5-15.7-6.3-19.9
		c-1.8-2-4.5-6-5.9-8.9c-1.5-2.8-4.6-8-7-11.5c-3.6-5.1-10.2-17-13.7-24.7c-2.1-4.7-7.3-3.6-7.8,1.7c-0.3,3.1-0.4,3.1-2.7,1.6
		c-2.3-1.5-2.4-1.4-3.9,1.5c-2.9,5.5-2.1,12.8,2.5,22.7c5.3,11.1,6.9,17.1,6.9,25.5c0,6.5-3.2,19.9-4.8,19.9
		c-0.6,0-4.8-18.3-6.9-30.3c-0.3-1.5-1.6-3.5-2.9-4.3c-2.2-1.5-2.6-1.5-4.8-0.1c-1.5,1-2.5,2.9-2.9,5.4c-1.1,6.6-0.7,16.6,0.8,21.7
		c0.8,2.7,1.3,5.1,1.1,5.3c-0.2,0.2-2.5-2.1-5.2-5.1c-10.6-12.4-22-17.6-38.3-17.6c-9.3,0-10.1-0.2-17.9-4c-6-2.9-8.2-4.4-8.2-5.8
		c0-1.1-0.7-2.5-1.5-3.2c-1-0.9-1.5-0.9-1.5-0.1c0,2.3-1.7,1-5.5-4.4c-2.2-3-4.3-5.5-4.7-5.5c-0.5,0-0.8-2-0.8-4.5V370h6.8
		c7.9,0,13.1-2.1,19.2-7.7c2.3-2.1,11.2-9.2,19.8-15.8c23.1-17.7,27-24.5,25.8-43.9c-0.3-5.6-1-12.7-1.4-15.9c-0.8-5.8,0-7.9,1.3-3
		c1.1,4.7,5.1,9.9,11.5,14.8c3.3,2.5,6,5.4,6,6.3s-1.8,4.4-4,7.7c-2.2,3.3-4,6.9-4,8.1c0,1.1,1.3,3.3,3,4.9l3,2.9l-3.1,2.5l-3,2.6
		l2.1,2.2c2.7,3,6.5,2.9,9.5-0.2c3.3-3.2,3.2-4.3-1-10.5c-1.9-2.9-3.5-5.8-3.5-6.6c0-0.8,1.5-3.1,3.4-5.1c7.3-8.3,7.5-12,0.8-19.5
		c-9.4-10.3-15.1-20.5-15.2-26.9c0-2.7,1.3-5.6,5-11.3c7.2-11,9.8-16.7,11.5-24.7c1.8-8.6,1.9-14.7,0.1-22
		c-1.8-7.7-5.5-13.8-14.2-23.1c-4.1-4.3-7.4-8.7-7.4-9.7c0-1,0.7-3.7,1.5-6.1c0.8-2.3,2.2-8.3,3-13.3c2-11.7,5.1-23.1,7-26.1
		c1.6-2.4,1.1-5.5-0.9-5.7c-2.5-0.3-4.3,0.4-8.7,3.6l-4.6,3.2l-1.3-11.8c-1.1-9.8-1.1-13.5,0-20.9c0.8-5.7,0.9-9.5,0.4-10
		c-0.6-0.6-3.5,0.7-7.7,3.5c-3.6,2.5-6.8,4.5-7.1,4.5c-0.2,0-0.2-9.6,0.1-21.3c0.6-19.4,0.8-21.4,2.7-24c2.1-2.8,2.1-2.9,0.2-4.3
		c-2.7-1.9-3.9-1.8-7,0.7l-2.7,2.2l2.8,2.9c2.7,2.9,2.8,3.2,2.6,13.1c-0.1,5.6-1.1,15.9-2.2,22.8c-3.2,19.6-4.6,22-8.1,13.1
		c-1.5-4-2.5-9.2-3-17.2c-1.2-16.7-3.4-28.1-8.5-42.6c-4.2-11.8-4.4-12.9-3-15.1c1.4-2.1,1.3-2.4-1-3.9c-2.3-1.5-2.7-1.5-5,0
		c-3.3,2.1-3.2,4.2,0.4,7.2c3.5,2.9,6.6,12.4,11,33.6c3.3,15.6,4.1,27.3,1.9,26.6c-2.1-0.7-7.5-12.2-8.8-18.5
		c-1.8-9.3-3-13.3-4-13.3c-0.4,0-2,3.1-3.5,7c-4.4,11.5-4,11.3-17,9.4c-6-0.9-11.6-2.1-12.2-2.6c-0.7-0.6-2.9-6.2-4.9-12.7
		c-8.5-27.4-13.8-42-14.9-40.9c-0.2,0.2,3.4,12.4,8.1,27.2c4.6,14.8,8.3,27,8.2,27.1c-0.2,0.1-1.5,0.5-3,0.9c-2.6,0.6-3,0.2-7.2-8.1
		c-2.4-4.9-6.9-12.3-10-16.6c-4.2-5.9-5.6-8.7-5.6-11.3c0-2.9-0.3-3.4-2.3-3.4c-1.3,0-3.4,1.1-4.6,2.4c-1.9,2-2.1,2.8-1.2,4.5
		c1.3,2.4,2.4,2.6,5.2,1.1c1.5-0.9,2.1-0.7,2.6,0.7c0.3,1,2.3,4.3,4.3,7.3c3.4,5.1,12,21.8,12,23.3c0,2.3-3.6-0.3-10.8-7.7
		c-5.1-5.2-8.2-9.2-8.2-10.5c0-2.7-2.4-3.7-5.6-2.3c-1.6,0.8-2.4,2-2.4,3.7c0,2.9,2.5,4.3,5,2.8c1.4-0.9,2.8,0.2,8.6,6.8
		c3.8,4.3,7,8.4,7.2,9.1c0.2,0.7-1-0.2-2.6-2.1c-3-3.5-3.5-3.4-4.6,1.1c-0.5,2.2-2.1,3.5-7.4,6.2c-18.9,9.5-32.9,26.2-37.2,44.5
		c-1.9,8-0.8,20.9,2.5,30.6c2.4,7.1,7.6,18.5,10.7,23.4c0.9,1.5,0.4,2.8-3.5,7.5c-14.6,18-18.3,36.4-11.9,60.6
		c1.7,6.3,3.3,13.7,3.7,16.5c2.5,19.4,11.1,37.5,19.3,40.8c2.1,0.8,4.3,2.1,4.9,2.9c1.5,2,3.2,38.3,2.4,54.4l-0.6,14l-3.7,4.4
		c-2.1,2.4-3.8,5.2-3.8,6.1c0,2.6-1.7,3.2-2.9,1.2c-1.1-2-2.5-1.1-4.5,2.9c-0.6,1.3-4,3.8-8,5.8c-6.7,3.3-7.5,3.5-18,3.5
		c-10.3,0.1-11.7,0.4-19.1,3.5c-6.7,2.8-9.3,4.7-15.8,11.2c-4.3,4.3-8,7.8-8.2,7.8c-0.1,0,0.6-3.5,1.7-7.8c2.4-9.4,2.1-18-0.9-22
		c-2.6-3.6-5.8-4-7.6-1c-2.1,3.2-5.3,15.5-6.8,26c-0.7,4.9-1.6,8.8-1.9,8.8c-0.4,0-1.5-3.5-2.5-7.8c-3.4-14.3-1.8-26.3,5.4-41.1
		c5.4-11.2,5.5-16.7,0.4-23c-0.2-0.3-1.4,0.6-2.8,1.9l-2.5,2.3v-3.4c0-1.9-0.7-4.2-1.4-5.2c-2.5-3.2-5.1-0.4-11.9,12.7
		c-3.6,6.8-8.3,14.8-10.5,17.7c-2.2,3-4.9,7.3-6,9.5c-1.2,2.3-3.5,5.5-5.1,7.1c-5.9,6-7.1,18.9-4.1,43.3c1.7,13.5,2.9,19.2,5.2,25
		c2.2,5.5,2.8,8.5,2.5,11.3c-0.3,2.1-0.7,4-0.9,4.1c-0.1,0.1-3.9,3.1-8.3,6.7c-9.3,7.6-32.4,25-44.4,33.5
		c-10.5,7.4-20.9,18.5-25.2,27.1c-3.3,6.4-3.4,7.2-3.9,20.7c-0.3,7.8-0.9,14.7-1.3,15.4c-1.5,2.2,2.3,8.8,6.1,10.7
		c5.9,2.8,18.8,4,28.9,2.7c17.4-2.2,33.5-10.6,51.4-26.7c6.1-5.5,18.8-16.5,28.2-24.5c15.1-12.8,17.5-15.2,19.9-20.2
		c1.5-3.2,3.1-5.8,3.5-5.8c0.5,0,1.9,2.8,3.2,6.2c5.2,13.3,13.9,25.1,27.5,37c4.5,3.9,9.2,8.4,10.4,9.9c5.6,7,12.3,38.1,9.3,43.6
		c-0.6,1.2-9.2,7.6-19.1,14.3c-29.2,19.7-49.5,36.5-74.6,61.6c-26.6,26.7-51.8,60.1-69.1,91.9c-10.1,18.4-14.6,29.7-21.9,54.7
		l-2.8,9.8H66.3H0V425V0z M367,9.3c-3.2,1.6-3.2,3.5,0.2,6c3.1,2.3,5.4,1.8,7-1.7c0.8-2,0.8-2.9-0.2-4.1
		C372.5,7.7,370.3,7.6,367,9.3z"/>
	<path id="path6" class="st1" d="M426.5,74.5c2.5,9.7,6.7,21.6,13.9,39c4.4,10.7,4.6,11.3,4.6,21.6c0,7.2-0.5,12.1-1.6,15.3
		l-1.7,4.8l-4.6-0.7c-8.2-1.2-9.3-1.6-8.5-3.4c1.3-3.1,1.7-18.2,0.6-25.4c-0.6-4-1.6-11.6-2.3-17c-0.7-5.3-1.6-9.7-2.1-9.7
		c-1.2,0-1,8.6,0.8,24.3c1.5,13.5,1.5,26.1,0,28.6c-0.5,0.7-4.4,1.1-11,1.1h-10.3l-0.7-3.3c-2.9-14.4-1.4-26.2,6-45.3
		c9.9-25.7,14.3-37.4,14.5-38.4C424.2,65.7,425.3,69.5,426.5,74.5z"/>
	<path id="path8" class="st1" d="M394,77.3l9.4,1.6c5.2,0.9,9.7,1.9,10.1,2.2c0.3,0.4-1.4,4.9-3.8,10c-2.4,5.2-5.6,13.8-7.2,19.1
		c-1.6,5.4-3.2,9.2-3.6,8.5c-0.8-1.5-4.9-33-4.9-37.9V77.3z"/>
	<path id="path10" class="st2" d="M386.9,78c2.3,0,3,2,5.6,16.5c0.9,4.9,1.9,10.9,2.4,13.2c0.5,2.4,0.5,4.3,0.1,4.3
		c-1,0-5.8-14.6-7.5-23.3c-0.9-4.3-1.9-8.5-2.2-9.3C385,78.5,385.5,78,386.9,78z"/>
	<path id="path12" class="st1" d="M368.3,79l14.9,22.6c9.2,13.9,15.1,23.9,15.3,25.8c1.1,8.4,2.8,26.2,2.6,26.6
		c-0.2,0.6-3.4,1.5-8.8,2.3L388,157l-2.3-4.7c-2.6-5.2-7.7-23.4-7.7-27.6c0-1.4-0.4-2.8-0.9-3.1c-0.8-0.5-0.6,8.1,0.5,16.9
		c0.2,2.2,2,7.6,3.9,11.9c1.9,4.4,3.4,8.1,3.2,8.2c-0.1,0.1-2.8,1.3-5.9,2.7l-5.6,2.5l-3.5-6.6c-6.4-12.3-8-25.3-5.3-42.7
		c0.8-5,2-15,2.7-22.2L368.3,79z"/>
	<path id="path14" class="st2" d="M365.1,81.6c0.7,0.4,0.8,0-2.5,19.9c-1.4,8.2-3,18.4-3.6,22.5s-1.3,7.6-1.5,7.8
		c-0.8,0.8-10.1-6.7-15.8-12.7c-3.2-3.4-6-6.1-6.3-6.1c-0.9,0-0.3,30.3,0.7,37.7c1.4,9.9,6.2,20.2,12.4,26.7l4.7,4.8l-2.4,2.7
		c-10.9,12-12.8,14.5-13.4,17.7c-0.9,5,1.1,6.8,2.4,2c1.7-5.8,4.8-9.3,13.5-14.4c4.5-2.7,12-7.2,16.6-10c9.5-5.9,16.1-8.5,28.1-11.4
		c12.3-2.9,32.7-2.2,45.5,1.6c29.5,8.7,42.3,18.8,47.9,37.6c2.3,7.8,2.2,19.9-0.3,28c-3.2,9.9-4.1,10.6-4.1,3
		c-0.1-9.9-2.4-25.1-4.4-28.9c-4.7-8.9-14.8-15.3-34.5-21.8c-13.7-4.4-22.9-5.6-38.1-5c-16.7,0.8-26.3,4.1-39.3,13.8
		c-7.3,5.4-11,11-14.2,21.5c-3.1,10.1-5.1,11.9-13.2,11.8c-8.1-0.2-10.2-2.2-13.7-13c-1.6-4.9-3.3-9.2-3.8-9.5
		c-1.7-1.1,3.3-12,9-19.6c2-2.7,2.9-3.2,5-2.6c2.6,0.6,2.6,0.6,1-1.8c-7.9-11.2-13.8-25.6-15.1-37.2c-3.1-26,7.2-46.4,30.5-60.5
		C360.7,83.4,364.7,81.3,365.1,81.6z"/>
	<path id="path16" class="st1" d="M468.6,92.2c0.1,0.2-0.1,2.1-0.6,4.3c-1.3,5.5-1.2,26.1,0.1,36.8c1.2,10.3,0.1,19.1-3.3,26.3
		c-2.3,4.7-3.2,5.1-6.1,3c-1.7-1.3-1.7-1.7,0.4-7.9c1.9-6,2.1-7.8,1.4-19.4c-0.9-14.6-1.9-14-2.9,1.7c-0.8,12.7-2.3,21-4,21.6
		c-0.7,0.3-2.9-0.3-5-1.1c-3.1-1.3-3.7-2-3.3-3.8c3.2-12.9,3.9-20.5,2.7-28.2l-1.3-8.1l5.4-7.8c3-4.3,7.8-10.1,10.8-12.8
		C465.8,94.1,468.4,92.1,468.6,92.2z"/>
	<path id="path18" class="st1" d="M338.4,123c1.1,0,15.6,10.3,18.2,12.9c1.2,1.2,2.9,4.3,3.9,6.9s3.7,8.6,6.1,13.4l4.3,8.8l-3.7,3
		c-4.2,3.4-4.8,3.6-5.6,1.5c-1.3-3.5-13.1-21.5-13.4-20.6c-0.5,1.6,4.7,12.6,8.5,17.9c1.8,2.6,3.3,5.2,3.3,5.8
		c0,0.7-1.6,2.4-3.5,3.9c-4.5,3.4-5.3,2.8-9.9-6.9c-4.6-9.7-7.4-21.9-8.2-35.4C338,128.1,338,123,338.4,123z"/>
	<path id="path20" class="st1" d="M481.6,129.3c0.1,0.1-0.6,2.7-1.6,5.7s-2.3,9.8-2.9,15c-1.3,10.8-4,23-5,23
		c-0.4,0-2.1-1.5-3.9-3.3l-3.1-3.2l2.8-8c1.6-4.4,3.4-9.3,4-11c0.7-1.6,1-3.9,0.7-5.1c-0.9-3.5,1.2-8,5.2-10.8
		C479.8,130.2,481.5,129.2,481.6,129.3z"/>
	<path id="path22" class="st3" d="M418,156.4c14.2,0.3,16.2,0.6,24.3,3.4c4.9,1.7,11.2,4.6,14,6.3c5.6,3.4,13.2,9.7,10.6,8.7
		c-5.5-2.1-25.1-7.1-34.3-8.8c-28.9-5.3-54.9,0-71.8,14.7c-6.9,6-9.4,7-5.1,2c10.5-12.1,23.6-20,41.8-25.3
		C401.2,156.4,406.6,156.1,418,156.4z"/>
	<path id="path24" class="st4" d="M475.5,206.7c4.9,5,8.8,21.8,7.1,30.7l-0.7,3.5L478,237c-4.1-4.1-8.9-5.7-13.5-4.6
		c-5.6,1.4-1.2,5.6,5.9,5.6c4.2,0,8.1,3,9.6,7.4c0.9,2.9,0.6,4.3-2.7,12.1l-3.7,8.9l-3.5-4.1c-8.2-9.3-13.7-8.6-21,2.7
		c-3.7,5.7-7.1,18-5.8,21.2c0.4,1.3,5.1,2.7,14.8,4.3c3.1,0.6,4.1,0.2,7.2-2.5l3.5-3.1l1.7,7.7c3.7,16.4,0.2,28.1-11.9,40
		c-9.3,9.1-31.8,27.8-37.6,31.2c-6.4,3.8-15.6,3.8-22,0c-5.6-3.3-19.8-15.2-26.6-22.3l-5-5.2l2.3-2.7c1.4-1.7,2.3-4,2.3-6.2
		c0-2.9-0.6-3.9-4-6.2c-5.1-3.4-5.6-5.6-2.9-11.6c1.5-3.5,2-6.2,1.7-9.6c-0.5-4.8-0.7-5.3-8.1-19c-2.6-4.7-4.7-9.5-4.7-10.6
		c0-1.2,1.2-4.8,2.7-8c2.7-5.7,2.8-6.5,2.8-23.9c0.1-17.8,0.1-18.1,3-23.8c6.9-14,24.2-24.9,45.3-28.7
		C425.4,182.8,463.7,194.5,475.5,206.7z M399.4,216.1c-14.2,1.1-17.7,1.8-22.2,4.6c-4.1,2.5-11.9,11.9-10.8,13
		c0.2,0.2,2.6-1.8,5.2-4.4c3.3-3.3,6.3-5.3,9.4-6.2c5.3-1.4,15-0.8,22.8,1.4c5.1,1.5,9.2,1.3,9.2-0.4c0-2.1-4.3-5.9-7.8-6.9
		C403,216.5,400.4,216.1,399.4,216.1z M379.1,245.1c-5,1.8-5.6,1.8-7.9,0.3c-3.5-2.3-4.5-0.5-2.3,4c1.1,2.1,2.4,6.7,3,10.3
		c2,13,7.2,17.1,24.6,19.7c12.8,1.9,13,1.8,12-8.7c-1.2-14.1-4.4-21.6-10.9-25.6C393.4,242.5,386.5,242.5,379.1,245.1z M410.1,302.3
		c-0.9-1.6-1.1-1.5-2,1c-0.9,2.2-0.7,3.5,0.7,6l1.7,3.2l0.3-4.2C411,305.9,410.7,303.2,410.1,302.3z M434.8,312.8
		c-2.1,2.5-3.6,4.8-3.4,4.9c0.9,1,7.6-3.3,7.6-4.8c0-1,0.3-2.4,0.6-3.3C440.7,306.6,438.5,308.1,434.8,312.8z M443.8,312
		c-1.8,4.3-1.7,4.5,1.3,3c1.2-0.7,1.9-2.1,1.9-4C447,306.9,445.8,307.3,443.8,312z M390.5,318.7c0.4,1,1.6,5.4,2.7,9.8
		c2.6,10,4.7,14.4,9.2,18.2c4.6,4.1,9.7,5.7,18.3,5.8c6.6,0,7.5-0.3,9.9-2.7c1.5-1.5,4.4-5.8,6.3-9.5c2.6-4.8,4.5-7.2,6.6-8.1
		c8.2-3.6,8.1-4.4-1-6.3c-5.7-1.1-8.8-1.3-12.3-0.6c-4.2,0.9-5.3,0.7-10.1-1.7c-4.1-2.1-7.5-2.9-15-3.5c-5.3-0.4-10.6-1.3-11.8-1.9
		C390.3,316.6,389.7,316.7,390.5,318.7z"/>
	<path id="path26" class="st5" d="M380.8,251c1.6,0.1,1.6,0.1-0.1,1.1c-0.9,0.5-2.6,2.7-3.7,4.7c-1.9,3.6-1.9,3.6-2,0.9
		c0-1.5,0.9-3.6,2-4.7C378.1,251.9,379.8,251,380.8,251z"/>
	<path id="path28" class="st5" d="M395.8,252.9c4.5,2.4,8.9,10.9,10.1,19.1l0.8,6.2l-5.6-0.7c-7-0.8-13.3-2.3-10.5-2.4
		c2.5-0.1,6.9-4.6,8.4-8.6c1.4-3.6,0.6-7-2.7-11.4C394,252.2,394,251.9,395.8,252.9z"/>
	<path id="path30" class="st6" d="M391.9,254.4c9.3,4.8,5.1,19.6-5.5,19.6c-3.1,0-8-4.7-9-8.4c-0.9-3.7,1.3-8.5,5-10.7
		C386.1,252.6,388.2,252.5,391.9,254.4z M380,263.6c0,6.5,7.5,9.9,12,5.4c2.8-2.8,2.8-10.5,0.1-12C386.7,254.2,380,257.8,380,263.6z
		"/>
	<path id="path32" class="st7" d="M422.7,327.2c3.1,1.8,3.9,1.9,7.4,0.9c3.9-1.2,10.5-0.6,11.4,0.9c0.5,0.9-14.6,2.6-17.5,2.1
		c-1.8-0.3-20.3-7.1-20.9-7.7C401.2,321.6,419.3,325,422.7,327.2z"/>
	<path id="path34" class="st8" d="M398,324.1l5.3,1.9c2.8,1,7.7,2.8,10.7,4c3,1.2,8.5,2.4,12.2,2.7c3.7,0.3,6.8,1,6.8,1.4
		c0,2-4,4.7-7.8,5.4c-8.7,1.4-21.8-4.9-25.7-12.5L398,324.1z"/>
	<path id="path36" class="st7" d="M400.8,331.7c8,8.5,12.5,10.6,21.8,10.1c6-0.3,7.7-0.8,9.8-2.7c3.2-3,3.5-1.1,0.6,3.6
		c-2.8,4.7-7.3,6.6-14.9,6.5c-9.5-0.1-14.5-3.5-19.3-13.2c-2.1-4.1-3.8-8.1-3.8-8.9S397.6,328.4,400.8,331.7z"/>
	<path id="path38" class="st9" d="M326.4,215.5l0.6,5l-1.9-3.8c-1-2-1.7-4.7-1.4-5.8C324.5,207.9,325.7,209.8,326.4,215.5z"/>
	<path id="path40" class="st10" d="M325.1,224.6c2.3,11.4,8.6,18.4,16.6,18.4c3.3,0,10.7-3.2,11.8-5.1c1.3-2,2.4,1.7,2.4,8.6
		c0.1,7.2-0.8,13.5-2,13.5c-0.5,0-0.6-0.8-0.2-1.8c0.5-1.3,0.3-1.5-0.7-0.5c-0.9,0.8-1.1,3.6-0.8,10c0.5,9.4,1.2,11.5,8.8,24.8
		c4.5,7.9,4.8,10.2,2,16.4c-3,6.5-2.6,8.4,2.5,12.9c2.5,2.2,4.5,4.6,4.5,5.3c0,1.9-9.6-8.5-10.3-11.1c-0.3-1.1,0.4-3.6,1.4-5.7
		c3.6-7.1,2-12-6.5-20.1L350,286l-0.1-11.3c0-10.9-0.7-15-2.3-14.7c-0.4,0-1.7-1.4-2.9-3.2c-2.9-4.2-8.3-7.8-11.8-7.8
		c-1.5,0-4.1,1.2-5.8,2.6l-3.1,2.6l-1.1-2.9c-2.8-7.3-3.6-25.7-1.3-31.6C322.8,216.6,323.8,218,325.1,224.6z"/>
	<path id="path42" class="st10" d="M326.9,220.5l2.6,4.6c4.8,8.3,12.7,10.9,20.6,6.8c2.3-1.1,4.2-1.9,4.4-1.7c1,0.9-2.9,6.6-5.5,8.2
		c-4.1,2.3-10.5,2.3-13.9-0.1c-2.9-2.2-6.6-9.1-7.6-14.3L326.9,220.5z"/>
	<path id="path44" class="st11" d="M332.9,252c3.6,0,7.9,4,11,10.1c2.7,5.5,3.1,7.2,3.1,14.6c0,4.6,0.5,9.3,1,10.3
		c0.6,1,3.5,4.3,6.5,7.4c6.1,6.1,7,9.5,3.9,16c-2.2,4.5-1.3,7.7,3.8,13.2c3.3,3.6,4,4.9,3.2,6.2c-0.6,0.9-1.5,1.7-2,1.9
		c-1.5,0.5-8-11.1-10.5-18.6c-1.8-5.4-2-7-1-9.6c1.4-4.1,1.4-8.8-0.1-10.3c-1.3-1.3-8.8-1.7-8.8-0.5c0,0.4,1.2,2.4,2.6,4.4
		c2.9,4.2,2.5,5.9-1.2,5.9c-3.6,0-5.9-2.9-11.3-14.2c-6.6-14-7.4-16.9-6.9-24.8c0.3-5.6,0.8-7.4,2.8-9.5
		C330.3,253.1,332.1,252,332.9,252z M332,260c0,0.6,1.5,3.1,3.4,5.7c3.2,4.5,3.3,4.6,1.5,6.4c-1.1,1.1-1.9,3.1-1.9,4.6
		c0.1,3.6,3.1,10.3,5.9,12.7c2.1,1.9,2.1,1.9,2.1,0c0-1-1.1-3.7-2.5-5.9c-3-4.9-3.1-6.9-0.4-8.7c2-1.3,2.1-1.7,1-5
		c-0.7-2-2.1-4.8-3.2-6.2C335.5,260.5,332,258.4,332,260z"/>
	<path id="path46" class="st5" d="M462.8,264c2.8,0,4.2,2.2,4.9,7.8c1.1,9.4-3.3,16.2-10.6,16.2c-6.4,0-13.6-2.8-11.9-4.6
		c0.3-0.2,3.6,0.2,7.3,1l6.9,1.4l3.3-3.3c4.3-4.3,4.6-10.1,0.7-15.2C461.1,264.3,461,264,462.8,264z"/>
	<path id="path48" class="st6" d="M460.5,268c5.7,5.9,2.9,15.1-4.4,14.9c-2.5-0.1-2.5-0.1,0.7-1.5c3.5-1.5,5.6-5.5,4.8-8.9
		c-0.6-2.5-4.4-4.5-8.4-4.5c-2.6-0.1-2.6-0.1-0.8-1.5C455.3,264.3,457.3,264.7,460.5,268z"/>
	<path id="path50" class="st10" d="M479,275.4c0,3.1,5.7,12.1,12,19.1c6,6.5,6.6,8.2,5,12c-0.7,1.7-0.9,1.5-0.9-1.1
		c-0.1-2.6-1.4-4.3-7.4-9.7c-5.9-5.3-7.8-7.7-9.5-12.2c-2.2-5.7-2.8-10.6-1.5-11.8C477.6,270.8,479,273,479,275.4z"/>
	<path id="path52" class="st6" d="M447.7,278.6c0.3,0.9,1.5,2,2.7,2.4c1.9,0.8,1.9,0.9,0.2,0.9c-2,0.1-5.6-2.5-5.6-4.1
		C445,276.4,447,276.9,447.7,278.6z"/>
	<path id="path54" class="st10" d="M490,314.9c-1.5,2.8-1.2,6.7,0.5,8.1c0.9,0.7,1.3,1.5,1,1.8c-0.9,0.9-4.5-3.1-4.5-5
		c0-1,0.7-3,1.6-4.3C490.5,312.5,491.5,312.2,490,314.9z"/>
	<path id="path56" class="st4" d="M353.2,321.9l3.9,6.3c2.2,3.6,3.8,7.6,3.9,9.4c0,4,1.7,6,6.1,7.2c2.4,0.6,8.8,5.2,17.8,12.8
		l14.1,11.7v7.2c0,7.4,2.3,17.5,4,17.5c0.6,0,1-0.8,1-1.7c0-1.2,0.9-0.5,2.5,1.9c3.1,4.5,3.1,4.8,0.2,4.8c-1.2,0-3.3,0.7-4.6,1.6
		c-2,1.4-2.3,2.3-1.8,6c0.5,4.7-0.4,5.4-3.7,2.9c-2.9-2.2-7.1-1.8-10.4,1c-1.9,1.6-4.2,2.5-6.4,2.5c-2.9,0-3.7-0.5-5.1-3.5
		c-2-4.2-5.3-5.3-10.8-3.5c-4.7,1.6-10.8,0.4-12.1-2.3c-0.4-0.9-1.2-2.5-1.7-3.5c-0.4-0.9-1.9-1.8-3.2-2c-4.9-0.6-5.1-1-2.2-5.3
		c2.6-4,2.8-4.1,3.4-1.8c0.5,2,0.8,1.6,2.4-3.1c1.5-4.6,1.8-10.3,2.2-35.8L353.2,321.9z"/>
	<path id="path58" class="st12" d="M244.1,354.7c1.3,3.5-0.8,9-4.4,11.5c-1.8,1.2-3.5,2.7-3.9,3.2c-0.4,0.6-0.9,0.8-1.2,0.5
		c-0.3-0.2,1.6-4.2,4.1-8.9C242.7,353.9,243.4,352.9,244.1,354.7z"/>
	<path id="path60" class="st12" d="M507.9,354.5c1.6,1.7,10,17.5,9.3,17.5c-0.4,0-2.8-2-5.4-4.4c-4.5-4.1-4.8-4.7-4.8-9.2
		C507,355.5,507.4,354,507.9,354.5z"/>
	<path id="path62" class="st12" d="M251.7,359c0.3,0,0.4,2.4,0.1,5.3c-0.3,3.6-2,8.6-5.4,15.7c-4.9,10.5-4.9,10.5-5.2,22.4
		c-0.3,10.8-0.1,12.5,2.3,19.5c2.5,7,7.2,15.2,9.5,16.6c0.5,0.3,0.3-1-0.5-2.9c-2-4.7-1.9-7.1,0.5-13.3c1.1-2.9,3.1-9.8,4.5-15.4
		c1.4-5.6,2.7-10.4,2.9-10.7c1.1-1,2.4,1.1,3.5,5.1c1.1,4.4,0,13.1-2.9,22.7c-0.5,1.9-1,11.8-1,22c0,12.9-0.4,19.9-1.4,23
		c-0.8,2.5-7.2,15.1-14.4,28c-17,30.8-16.7,30.4-25.2,46c-17.2,31.7-29.9,45.2-46.5,49.6c-10.2,2.8-32.7,1.3-35.7-2.3
		c-2-2.5-1.6-23.1,0.6-31.3c2.3-8.3,3.8-11.2,9.7-18.5c5.9-7.3,13.9-13.6,32.9-26.2c13.2-8.7,32.5-23.6,35.9-27.6
		c1-1.3,1.8-1.4,3.3-0.6c1.7,0.9,1.9,0.8,1.5-0.8c-1.4-5.1-1.6-7.3-0.8-7.3c0.5,0,1.3,0.5,1.7,1.1c0.4,0.7,1,0.7,1.6,0.1
		c0.7-0.7,0.2-2.2-1.6-4.5c-3.6-4.7-6.4-13.4-8.2-25.2c-0.8-5.5-2.1-12.8-2.9-16.3c-2-8.3-1.8-12.9,0.8-23.2
		c2.1-8.3,2.3-8.6,7.1-11.7c2.7-1.7,6.4-4.6,8.2-6.4c1.9-1.8,3.7-3,4-2.6c1.6,1.6-1.2,6.7-6.5,11.9l-5.8,5.6l-0.5,8.6
		c-0.3,6.5-0.2,8.3,0.7,7.6c0.7-0.6,1.5-4.2,1.9-8.2c0.6-6.5,1.8-9.8,3.5-9.8c0.3,0,0.4,2.7,0.3,6c-0.2,3.5,0,6,0.6,6
		c1.4,0,3.2-5.6,3.2-10.4c0.1-2.3,0.7-5.2,1.4-6.5c1.2-2.2,1.3-2.1,1.9,2.4c0.4,2.6,0.7,6.1,0.7,7.6c0,1.6,0.4,2.9,0.9,2.9
		c1,0,1.6-3.5,2.5-14.6c0.3-3.4,1.3-8.3,2.2-11c1.7-5.1,8.5-19.6,11.7-25.2C250.3,360.5,251.4,359,251.7,359z M221,429.8
		c0,2,4.7,10.9,11.2,21.1c8.2,12.8,9,15.2,9,24.6c0,7.2,0.1,7.8,1.4,6c0.8-1.1,1.9-3.6,2.5-5.6c1.9-6.1-0.9-12.9-12.2-30.1
		C221.8,429.1,221,428,221,429.8z"/>
	<path id="path64" class="st12" d="M508.4,375.7c4.7,9.1,7.2,18.6,8.3,31.6c0.8,9.5,2.3,9.4,2.3-0.2c0-4.5,0.4-8.1,0.8-8.1
		c2.1,0,4.2,6.1,4.2,12.4c0,3.7,0.4,6.6,1,6.6s1-2.7,1-6s0.4-6,0.9-6c1.9,0,2.9,2.8,3.5,10c0.9,10.7,3,11.2,3.4,0.9l0.3-8.1l-6-5.7
		c-5-4.7-10.1-12.5-8.9-13.6c0.2-0.2,3.1,1.7,6.5,4.3c3.4,2.6,7.3,5.5,8.7,6.4c4.1,3,6.9,11.9,7,22.8c0.1,13.8-5.5,42.1-10.1,50.9
		c-3.9,7.5-3.9,7.5-1.4,6.2c1.8-1,1.9-0.8,1.4,2.9c-0.5,3.2-0.3,4,1,4c0.9,0,4.9,2.8,8.9,6.3c9.3,8.1,18.8,15.1,37.4,27.5
		c20.9,14,29.8,23.4,34.4,36.5c1.6,4.5,2,8.2,2,18.7c0,7.2-0.4,14-1,15c-1.4,2.7-11.2,5.2-20,5.3c-18.3,0.1-35.8-10.1-47.7-27.8
		c-4.1-6.2-16.9-29.2-28.8-52c-9.4-17.9-15.5-28.9-20.3-36.3c-5.8-8.9-6.7-13.8-6.5-32.7c0.3-16.6-0.3-22.4-3.2-33.7
		c-1.7-6.3-1.7-6.9,0-12.2c1-3.1,2-5.6,2.4-5.6c0.7,0,5.6,16,7.6,25.2c0.8,3.7,2,7.6,2.6,8.6c0.9,1.4,0.7,2.7-1,6
		c-2.4,4.7-2.5,5.2-1.1,5.2s7.8-13,10.6-21.7c1.3-4,2.4-9.8,2.4-12.7c0-7.1-3-18.5-7.4-27.5c-3.6-7.5-5.4-15-4.1-17.1
		C500.3,360.6,502,363.1,508.4,375.7z M523.6,439.6c-3.3,4.9-6.7,9.8-7.7,10.9c-0.9,1.1-3.3,4.9-5.3,8.5c-4.5,8.3-5.6,16-3.1,21.3
		c0.9,2.1,2.1,3.7,2.5,3.7c0.4,0,0.5-2.9,0.3-6.4c-0.7-8,1.3-14.3,7.1-22.9c2.4-3.4,6.2-9.4,8.5-13.4
		C532.4,430.3,530.6,428.9,523.6,439.6z"/>
	<path id="path66" class="st12" d="M238,377c-1.1,2.2-3.7,5.1-5.8,6.4c-2,1.3-5.7,4-8,6c-2.4,2-4.6,3.6-4.9,3.6s0.6-1.9,2-4.3
		c1.3-2.3,5.8-7,9.8-10.4C240.6,370.2,241.5,370.1,238,377z"/>
	<path id="path68" class="st12" d="M529.8,390l2.7,4.5l-2.5-1.8c-1.4-0.9-4.7-3.3-7.5-5.1c-2.7-1.9-5.8-4.2-6.7-5.3
		c-1.6-1.7-4.8-8.4-4.8-9.8C511,370.7,527.6,386.2,529.8,390z"/>
	<path id="path70" class="st4" d="M337.5,401.6c-0.5,3.4-0.2,5.2,1,7c1.7,2.7,3.4,2.9,8.1,1.2c2.3-0.8,4.7-0.9,8.1-0.2
		c4.2,0.8,4.8,1.2,5.1,3.6c0.4,3.1,5.4,7.8,8.2,7.8c1,0,3.1-1.1,4.7-2.4c3.9-3.3,7.4-2.6,12.9,2.4c4,3.6,5,4.1,7.7,3.6
		c4.2-0.9,5.9-2.7,6.6-7.3c0.6-3.7,0.7-3.8,6.1-4.6c3-0.4,5.9-1.2,6.5-1.8c0.5-0.5,0.9-3.4,0.8-6.4c-0.2-3,0.2-5.7,0.7-6
		c0.5-0.3,5,1,9.9,2.9c8.1,3.3,9.7,3.6,18.8,3.6c6.3,0,11.6,0.6,14.4,1.5c6,2.1,14.2,8.5,22.8,17.8l7.3,7.9l-0.9,10.6
		c-1,13-1,20.5,0,25.4c0.4,2,4.1,8.7,8.2,14.9c4.1,6.1,7.5,11.7,7.5,12.3c0,0.6-2.3,3.4-5.1,6.1c-5.2,5.1-10.9,14-10.9,16.9
		c0,0.9-0.4,1.6-1,1.6c-2.1,0-3.8-4.9-4.9-13.5c-0.7-5-1.6-12.6-2.2-17c-1-7.9-2.6-14.5-3.5-14.5c-0.3,0-1.5,1.2-2.8,2.7l-2.3,2.6
		l-0.7-10.4c-0.9-13.7-2.2-15.2-7.6-9l-3.8,4.4l-1.7-3.9c-0.9-2.1-1.5-5.4-1.3-7.2c0.4-3.5-1.6-4.6-2.7-1.3
		c-0.8,2.5,0.1,6.4,2.7,12.3c1.9,4.2,2,5.1,0.8,9.2c-0.7,2.6-1.5,4.6-1.9,4.6c-0.3,0-3.5-4.3-7-9.5c-3.9-5.7-7.1-9.5-8.2-9.5
		c-2.4,0-9.4,7.2-12,12.2c-1.2,2.4-2.3,4.5-2.6,4.7c-0.8,1-11.4-11.6-14.4-17.1c-4.1-7.4-6.1-9.3-8.7-7.9
		c-1.1,0.6-6.5,6.7-12.1,13.6S377.5,478,377,478c-0.6,0-3-3.9-5.4-8.8c-7.1-14.2-9.4-15-14.9-5.6c-3,5.1-9.9,12.8-12.9,14.5
		c-2.2,1.2-16.6-7.8-24.5-15.2c-2.8-2.7-5.8-4.6-6.5-4.3c-0.7,0.3-3.8,4-6.8,8.4l-5.5,7.9l-2.2-2.1c-2.8-2.6-2.8-4.6-0.2-12.3
		c1.2-3.7,1.7-7.1,1.3-8.8c-0.9-4.1-1.9-2.3-3.3,6.1c-0.7,3.9-1.7,6.9-2.2,6.6c-0.5-0.3-1.8-2.3-3-4.5c-1.7-3.4-2.4-4-4.7-3.7
		c-2.7,0.3-2.7,0.5-3.9,10.8c-0.6,5.8-1.2,10.7-1.2,10.9c-0.1,0.2-1-0.4-2.2-1.5c-1.7-1.5-2.2-1.6-2.9-0.4c-1.1,1.8-4.9,21.8-5.6,30
		c-0.7,7.6-2.1,12-3.9,12c-0.8,0-1.6-1.3-2-2.9c-0.8-3.6-5.2-10-11.3-16.4l-4.6-4.7l1.8-3.1c1-1.7,4.2-6.4,7.1-10.5
		c6.9-9.6,8.9-15.5,8.1-24.2c-0.3-3.7-0.9-10.8-1.2-15.7l-0.7-9.1l5-5.9c14.1-16.9,26.3-23.3,41.8-22c6.4,0.5,7.7,0.3,15.5-2.9
		C337.8,395.8,338.4,395.9,337.5,401.6z"/>
	<path id="path72" class="st3" d="M347.3,401.8c1.5,1.6,1.5,2,0.1,4c-1.7,2.4-4.3,2.9-6.2,1s-1.4-4.4,1.1-5.6
		C345.3,399.7,345.5,399.8,347.3,401.8z"/>
	<path id="path74" class="st3" d="M406,400c5.1,0,7.2,7.4,2.5,8.6c-5,1.2-6.5-0.8-4.5-6C404.5,401.2,405.4,400,406,400z"/>
	<path id="path76" class="st3" d="M371,411c1.7,3.2,0.3,6-2.9,6c-4.7,0-7.1-4.8-3.3-6.9C367.5,408.5,369.8,408.8,371,411z"/>
	<path id="path78" class="st3" d="M394.6,414.1c-0.4,2.2-0.2,2.9,1,2.9c2.3,0,1.1,2.3-1.9,3.8c-3.3,1.6-6.4,0.2-7.3-3.2
		c-0.8-3.4,1.1-6.4,4.3-6.8C394.6,410.3,395.3,410.8,394.6,414.1z"/>
	<path id="path80" class="st3" d="M397.1,413.7c0.7,0.7,1,1.5,0.7,1.8c-0.3,0.3-0.9-0.2-1.2-1.2C396,412.9,396.1,412.8,397.1,413.7z
		"/>
	<path id="path82" class="st13" d="M401.6,454c0.7,0,2.3,2.4,3.7,5.3c1.5,2.9,5.8,9.1,9.7,13.7c10.4,12.4,13,18.1,13.7,29.6l0.6,9.3
		l-5,5.8c-6.6,7.6-14,17.9-14.8,20.3c-0.4,1.1-0.9,2-1.3,2s-2.8-3.3-5.4-7.3c-6.3-9.6-13.1-17.1-22.8-25.1c-5.7-4.7-8-7.3-8-8.9
		c0.1-5,5.1-13.7,16.5-28.8C395.1,461.1,401,454,401.6,454z M403.9,478c-0.3,0,0.7,5.1,2.3,11.2c3.6,14.4,4.5,27.9,2.5,37.3
		c-0.8,3.8-1.3,7.2-1.1,7.4c0.2,0.2,1.4-1.8,2.6-4.5c4.6-10.3,3.4-30.4-2.6-44.1C405.9,481.3,404.2,478,403.9,478z"/>
	<path id="path84" class="st14" d="M370.8,473.2l4.4,8.3l-2.1,4.8c-1.2,2.7-2.1,5.2-2.1,5.7s-0.4,2-1,3.4l-1,2.6l-8.2-6
		c-4.6-3.2-9.6-7-11.2-8.3l-2.9-2.4l8.4-10.2C364.8,459.4,363.5,459.2,370.8,473.2z"/>
	<path id="path86" class="st14" d="M464.1,461c0.5,0,0.9,2.8,0.9,6.3c0,3.4,0.9,9.6,2.1,13.7c2.8,10,2.2,14.2-3.2,23.2
		c-5.2,8.5-12.5,16.6-23.4,25.9c-4.4,3.7-12,10.6-17,15.3c-9.5,9.1-9.3,9-12.1,2.8c-3.1-6.9-0.8-10.4,22.1-34.2
		c10.6-11,12.7-13.8,17.3-22.8c2.8-5.7,5.2-10.9,5.2-11.6c0-0.8,1.6-5.3,3.6-10C461.6,464.9,463.6,461,464.1,461z"/>
	<path id="path88" class="st15" d="M314.2,462c0.5,0,2.3,1.7,4.1,3.7c1.8,2,9.1,7.5,16.2,12.1c32.2,21,52.7,38.5,65,55.7
		c5.3,7.4,12.5,20.4,12.5,22.7c0,2.5-2.2,6.8-3.4,6.7c-0.6,0-3.8-3.4-7.1-7.5c-9.5-11.9-21-22.1-36.9-32.9
		c-53.4-36.2-61.6-42.1-61.6-44.8c0-0.7,2.3-4.5,5.2-8.5C311,465.3,313.7,462,314.2,462z"/>
	<path id="path90" class="st15" d="M437.1,463.2c1.5,0.5,13.9,18.1,13.9,19.7c0,0.9-1.6,4.3-3.5,7.6l-3.4,6l-0.7-3.3
		c-0.8-3.8-2.4-4.3-2.4-0.6c0,5.4-2.2,11.2-5.6,14.5l-3.4,3.3v-6.3c0-4.3-0.9-9.1-3-15.2l-3-8.9l5.1-8.6
		C434,466.8,436.6,463.1,437.1,463.2z"/>
	<path id="path92" class="st16" d="M286.4,464c0.2,0,1.9,2.4,3.7,5.2c7.5,12.4,22.6,25.4,48.3,41.7c23,14.7,29.7,19.4,40.4,28.5
		c16,13.7,28.8,30.1,36.7,47c6.8,14.6,8.8,21.2,8,26c-0.4,2.2-0.8,5.1-0.8,6.3c-0.1,1.3-0.3,2.3-0.5,2.3s-1.5-1.5-3-3.3
		c-10.5-12.7-22.9-23.2-50.2-42.3c-30.2-21.1-33.2-23.5-51.5-42.4c-18.4-18.8-28.6-31.2-33.1-39.8l-2.5-4.8l2.1-9.2
		c1.1-5,2-10.5,2-12.2C286,465.4,286.2,464,286.4,464z"/>
	<path id="path94" class="st16" d="M474,488c0.4,0,1.3,6.4,2,14.2c1.2,13.9,1.2,14.5-1,20.8c-3.5,10.6-8,16.5-28.9,38.4
		c-12,12.6-16,19.7-16.8,29.9c-0.9,12.6-0.8,12.7-9.9-6.2c-4.6-9.6-8.4-17.8-8.4-18.3c0-3.4,14.6-18.7,28-29.5
		c4.1-3.3,11-9.7,15.2-14.1c6.3-6.6,8.7-10.1,12.8-18.6c2.7-5.7,5.3-11.8,5.6-13.5C473,489.4,473.6,488,474,488z"/>
	<path id="path96" class="st17" d="M278,490.3c0,2.7,9.9,20.7,14.6,26.7c2.6,3.3,9.5,10.2,15.3,15.3c5.8,5.1,14.6,13,19.5,17.6
		c9.4,8.7,17.4,14.9,53.2,40.6c24.1,17.3,32.6,25.2,37.2,34.4c4.5,9.1,4.3,11-2,16.6c-14.9,13.1-38.9,21.7-56.2,20.1
		c-3.8-0.4-8-0.9-9.3-1.2c-1.2-0.4-2.3-0.2-2.3,0.3s3.1,1.7,7,2.7c20,5.2,44.1-2.4,61.8-19.4c3-2.8,5.5-5,5.7-4.8
		c0.1,0.2,0.5,1.5,0.9,3c0.6,2.5,0.1,2.9-6.4,6.4c-9.3,4.8-15.8,12-19.9,21.8c-3.4,8.1-4.1,15.5-1.7,17.5c1.7,1.4,5.4,0.8,14.3-2.3
		c3.7-1.3,10.3-3.3,14.5-4.5c4.2-1.2,8.3-2.4,9.1-2.7c1.2-0.4,1.2,0.2,0,4.8c-1.7,6.2-2.1,18.6-0.9,31.4c0.9,8.8,0.8,9.4-2.7,19.5
		c-13.2,38.8-35,75-60.1,99.9c-5.3,5.2-9.6,9.8-9.6,10.2c0,2.1,3-0.2,14.8-11.7c22.7-22,38.2-44.3,50-72c3.1-7.4,8.5-22.7,9.9-28.4
		c0.8-3.3,0.9-3.2,5.7,7.5c2.7,6,5.4,11.5,5.9,12.1c1.6,2.1,4.1,1.5,8.9-2.2c7.8-6.1,15.8-19.9,17.9-30.8c0.5-2.8,1.4-6.8,2-9l1.1-4
		l4.2,8.4c4.5,9,12.7,21.7,17.7,27.4c1.7,1.9,7.8,7.2,13.6,11.6c7.5,5.8,10.9,9.1,12,11.8c2.6,5.9,10.4,27.3,11.5,31.1
		c1.2,4.3,3.3,7.4,4.6,6.6c0.5-0.3-1.3-7.4-4.3-16.3c-2.8-8.7-5.5-16.9-5.8-18.3c-0.6-2.4,0-2.2,12.6,3.9c8.4,4.1,14.9,6.6,17.8,6.9
		c4.2,0.4,4.9,0.2,6.5-2.3c1.7-2.6,1.7-3-1-13.7c-1.5-6-3.6-13.5-4.7-16.6c-1-3-1.8-5.7-1.6-5.8c0.2-0.2,2.7,1.2,5.5,3.2
		c6.5,4.4,9.7,9.2,11.3,17.1c2.1,10.4-1.4,22.7-8.5,29.4c-3.9,3.7-3.4,5,2,4.6c5.8-0.5,9.1-3.6,14.1-13.5c3.7-7.3,3.8-7.8,3.7-17.6
		c0-8.5-0.4-10.9-2.4-15.1c-3.5-7.3-11.3-14.6-18.5-17.4c-9.9-3.9-12.3-5.9-18.4-15c-3.2-4.7-8.1-11.5-10.9-15.1
		c-2.8-3.5-4.9-6.6-4.7-6.8c0.2-0.2,3.7,0.2,7.9,0.9c7.2,1.1,21.6,0.8,29.3-0.7c2.9-0.6,4,0.1,13,8.2
		c37.2,33.1,74.7,76.9,112.2,130.9l11,16l-284.6,0.3c-156.5,0.1-284.8,0-285-0.1c-0.6-0.6,4.4-18.8,7.2-26c3-8,16.1-33.9,23.1-45.6
		c5.6-9.5,24.4-34.7,38.9-52.1c11.2-13.6,45.7-48.2,62.5-62.7c14-12,30.1-24.2,43-32.4c14.2-9,14.5-9.5,14.4-22.7
		c-0.1-8.4-0.7-12.6-2.8-19.5c-4.3-14.3-6.6-17.9-21.6-33.2c-16.9-17.3-19.2-20.3-23-29.8c-2.7-6.8-3-8.6-3-19
		c0-6.3,0.3-12.9,0.6-14.6C276.2,489,278,487.7,278,490.3z M418.9,633.6c-0.2-0.1-4.4,1.8-9.2,4.4c-15.6,8.3-31.3,10.1-48.9,5.6
		c-5.2-1.3-11.8-3.6-14.6-5c-2.9-1.5-5.2-2.2-5.2-1.6c0,1.7,7.5,6,15.1,8.7c9.8,3.5,29.9,4.4,39.9,1.9c9-2.3,18.5-7.1,21.1-10.7
		C418.3,635.2,419.1,633.8,418.9,633.6z M427.7,702.2c-0.2-1.5-0.5-2.1-0.6-1.3c0,0.7-3.4,8.1-7.5,16.5
		c-19.1,38.8-45.2,70.8-79.4,97.1c-5.6,4.3-10,8-9.8,8.3c0.3,0.2,2.9-1,5.8-2.8c10.1-6.2,26.3-19.6,39.4-32.5
		c11.2-11.1,14.7-15.3,23.6-29c10.9-16.5,20.4-33.5,25.8-46.3C426.8,707.9,427.9,703.7,427.7,702.2z M479.4,721.5
		c8,21,11,65.4,6,90.3c-1,4.8,0.9,3.8,3-1.6c2.3-6.2,3.3-32.6,1.8-51.2c-1.2-13.9-4.9-31-8-36.2
		C480.5,719.9,478.4,718.9,479.4,721.5z"/>
	<path id="path98" class="st12" d="M247,498c2.5,0,16,23.8,16,28.3c0,2.7-6.2,8.7-22.5,21.7c-4.4,3.6-13.5,11-20.1,16.6
		c-6.7,5.6-15,12.1-18.5,14.5l-6.4,4.3l5.8-6.5c12.3-13.5,19.3-25.6,40.3-69.7C244.1,502.2,246.5,498,247,498z"/>
	<path id="path100" class="st12" d="M504.9,499.7c0.4,0.4,5.2,10,10.5,21.3c15.6,32.7,20.8,41.3,34.1,56.5c6.8,7.7,6.9,7.8,2.5,4.7
		c-15.7-11.2-61.3-49.1-62.6-52c-2.2-5,1.2-13.2,10.8-26C502.4,501.2,504.5,499.2,504.9,499.7z"/>
	<path id="path102" class="st18" d="M492.4,590.3c2.1,0.7,7.6,8.8,8.6,12.7c1,3.8,0.7,4.8-4.8,17.3c-3.3,7.2-6.3,14.2-6.6,15.4
		c-0.4,1.3-1.4,2.3-2.2,2.3c-1.3,0-13.3-4.7-14.2-5.5c-0.2-0.2-1.2-5.2-2.2-11.1c-1.4-8-1.6-11.3-0.8-13c0.6-1.3,4.8-5,9.2-8.3
		c4.5-3.2,9-6.8,10-8C490.5,590.9,491.8,590.1,492.4,590.3z"/>
	<path id="path104" class="st19" d="M439.7,595c0.2,0,2.6,1.1,5.3,2.5c6.8,3.5,15.4,12.3,17.2,17.6c1.6,4.8,3.7,6.3,3.9,2.7
		c0.1-1.3,0.9,0.8,1.9,4.7c2.6,10.1,2.6,10.5-1.2,10.5c-3,0-3.8-0.7-9.4-9.3c-3.4-5-6.6-10.2-7.3-11.5c-2.4-4.5-8.3-2.2-13.8,5.4
		l-3.5,4.9l0.5-7.7c0.4-5.3,1.4-9.6,3.3-13.7C438.1,597.7,439.5,595,439.7,595z"/>
	<path id="path106" class="st18" d="M429.4,607c0.2,0,0.2,8,0.1,17.9c-0.2,9.8,0.1,18.4,0.5,19.1c0.9,1.5,1.1,1,3.5-10.1
		c1.7-8.3,5.8-15.7,10-18.5c1.4-0.9,2.7-1.5,2.9-1.3c0.1,0.2,1.4,2.9,2.9,5.9c1.4,3,6.8,10.2,11.8,16c11.9,13.6,14.4,18.7,14.3,29.8
		l-0.1,8.4l4.4-5.2c2.5-2.8,6.2-5.9,8.2-6.9c3.2-1.6,19.2-6.6,24.5-7.7c3.6-0.7,12.1-3.7,15.9-5.6c2-1,3.7-1.6,3.7-1.3
		c0,1.6-7.3,11.6-11.6,15.9c-12.6,12.7-27.2,18.3-39.4,15.2c-3.4-0.9-7.8-1.6-9.9-1.6c-5.3,0-14.7-2.6-20.3-5.7
		c-13.9-7.6-24.6-26.6-24.8-43.9c0-4.6,1.3-14.3,2.6-18.7C428.9,607.8,429.3,607,429.4,607z"/>
	<path id="path108" class="st18" d="M503.1,612c1,0,1.9,5.6,1.9,11.9c0,5.4-0.3,5.9-6.1,12.9c-8.5,10.2-10.1,8.4-5-5.5
		c1.6-4.3,4.1-10.4,5.7-13.6C501.1,614.6,502.7,612,503.1,612z"/>
	<path id="path110" class="st20" d="M478.4,637.1c8,2.2,12.6,8,12.6,15.6c-0.1,3.5-0.6,4.2-5.8,8l-5.7,4.2l-0.7-5
		c-0.8-5.2-4.5-13.3-8.4-18.5c-2.9-3.7-2.9-4.1-0.6-4.7C472.8,635.9,474.4,636,478.4,637.1z"/>
	<path id="path112" class="st19" d="M502.8,637.2c0.3,1.4,0.7,1.4,4.5,0.1c2.9-1,5.9-1.3,9.7-0.8c3,0.4,8,0.9,11,1.2
		s5.6,0.6,5.8,0.8c0.2,0.2-0.3,1.6-1.2,3.3c-1.9,3.7-5.3,5.3-19.6,9c-17.2,4.6-16.8,4.6-17.5,1.1c-1-4.3,0.2-8.1,3.8-12.4
		C501.6,636.7,502.6,636,502.8,637.2z"/>
	<path id="path114" class="st19" d="M425,649c0.3,0.1,4,4.7,8.2,10.3l7.7,10.2l-2.1,2.2c-1.4,1.5-5,2.9-11.1,4.3
		c-11.9,2.8-24.6,6.8-27.6,8.7c-3.7,2.3-4.6,0.4-2.7-5.5c3.2-9.5,11.5-19.7,21.7-26.6C422,650.6,424.7,649,425,649z"/>
	<path id="path116" class="st19" d="M546.5,661c18.8,2.7,36.2,8.9,50.8,18.2l4.9,3.1l-9.8,2.8c-5.4,1.6-11.4,3.1-13.4,3.4
		c-35.8,5.7-48.6,4.3-65.7-7.3l-4.3-2.8l4.8-3.6c2.6-1.9,5.7-4,6.9-4.7c2.6-1.3,12.1-1.4,22.8-0.2c4.4,0.6,11.5,1.2,15.7,1.5
		c4.3,0.3,8.1,0.6,8.5,0.7c0.4,0.1,1.3,0,1.8-0.1c0.6-0.1-3.9-1.4-10-3c-8.8-2.3-13.2-2.9-22.2-2.9c-6.8-0.1-11.3-0.5-11.3-1.1
		c0-0.6,0.9-1.9,2-3C530.3,659.7,535.3,659.4,546.5,661z"/>
	<path id="path118" class="st19" d="M444.6,671c0.2,0,2.5,1.3,5,2.8c3.9,2.5,4.3,3,2.9,4.2c-3,2.5-5.6,13.9-5.3,23.5
		c0.4,12,2.3,12.4,3.1,0.7c0.6-8.5,3.8-21.3,6-24c0.6-0.7,2.2-1.1,3.6-0.8c1.4,0.3,4.2,0.7,6.2,1.1c3.2,0.5,3.6,0.8,3.1,3
		c-0.2,1.3,0.5,5.5,1.7,9.4c1.2,3.8,2.1,8.2,2.1,9.8c0,3.8-6.8,23.9-11.3,33.3c-3.9,8.1-11.9,17.2-13.7,15.4
		c-2.9-2.9-8.2-19.8-10.1-32.4c-3.1-19.7-1.6-34.9,4.1-43C443.2,672.3,444.3,671,444.6,671z"/>
	<path id="path120" class="st21" d="M479.9,681.1c2.3,0.8,4.5,3.2,8.4,9.3c10.5,16,25.8,25.9,55.7,35.9c17.9,5.9,24.2,9.1,30.1,14.8
		c8.4,8.2,11,17.7,8.3,30.5c-1.7,8.6-5.7,17-8.3,17.7c-1.2,0.3-0.6-1.6,2.4-7.6c3.3-6.6,4-9.2,4.3-15.2c0.5-9-1.6-14.2-8.5-21.6
		c-6-6.4-10.5-8.7-26.8-13.4c-33-9.5-47.9-17.9-60.6-34.1c-4-5.1-9.9-15.2-9.9-16.9C475,679.7,476.4,679.9,479.9,681.1z"/>
	<path id="path122" class="st19" d="M514.3,685.2c12.2,8.2,21.5,18.7,29.7,33.2l3.3,5.9l-2.9-0.7c-4.9-1.1-27.4-12.8-27.2-14.1
		c0.5-2-8.3-14.6-14.4-20.6c-3.2-3.2-5.8-6-5.8-6.2c0-0.3,0.8-0.8,1.8-1C504.4,680.2,508.2,681.1,514.3,685.2z"/>
	<path id="path124" class="st21" d="M492.4,683.6c1.6,0.6,24.1,25.4,23.1,25.4c-0.4,0-4.7-2.7-9.6-6.1c-5.7-4-10.7-8.3-13.9-12.4
		c-2.8-3.5-5-6.6-5-6.9C487,682.8,490.4,682.8,492.4,683.6z"/>
	<path id="path126" class="st19" d="M476.5,691.2c5.9,12,21.1,25.6,36.5,32.5c5.8,2.6,26.4,9.3,33.2,10.7c5.9,1.3,8.3,4.8,13.2,19.4
		c4.7,14.3,5.8,21.8,3.1,22.8c-0.7,0.3-4.5-0.6-8.2-2.1c-18.9-7.6-38.1-20.2-50.3-33.1c-12.7-13.5-22.3-30-30.5-52.7
		C471.3,682.9,473.2,684.4,476.5,691.2z"/>
	<path d="M374.2,13.6c-1.6,3.5-3.9,4-7,1.7c-3.4-2.5-3.4-4.4-0.2-6C372.3,6.6,376.2,9,374.2,13.6z"/>
	<path d="M374.4,21.7c1.5,3.1,7.3,20.2,13,38.4c2,6.5,4.2,12.1,4.9,12.7c0.6,0.5,6.2,1.7,12.2,2.6c13,1.9,12.6,2.1,17-9.4
		c1.5-3.9,3.1-7,3.5-7c1,0,2.2,4,4,13.3c1.3,6.3,6.7,17.8,8.8,18.5c2.2,0.7,1.4-11-1.9-26.6c-4.4-21.2-7.5-30.7-11-33.6
		c-3.6-3-3.7-5.1-0.4-7.2c2.3-1.5,2.7-1.5,5,0c2.3,1.5,2.4,1.8,1,3.9c-1.4,2.2-1.2,3.3,3,15.1c5.1,14.5,7.3,25.9,8.5,42.6
		c0.5,8,1.5,13.2,3,17.2c3.5,8.9,4.9,6.5,8.1-13.1c1.1-6.9,2.1-17.2,2.2-22.8c0.2-9.9,0.1-10.2-2.6-13.1l-2.8-2.9l2.7-2.2
		c3.1-2.5,4.3-2.6,7-0.7c1.9,1.4,1.9,1.5-0.2,4.3c-1.9,2.6-2.1,4.6-2.7,24c-0.3,11.7-0.3,21.3-0.1,21.3c0.3,0,3.5-2,7.1-4.5
		c4.2-2.8,7.1-4.1,7.7-3.5c0.5,0.5,0.4,4.3-0.4,10c-1.1,7.4-1.1,11.1,0,20.9l1.3,11.8l4.6-3.2c4.4-3.2,6.2-3.9,8.7-3.6
		c2,0.2,2.5,3.3,0.9,5.7c-1.9,3-5,14.4-7,26.1c-0.8,5-2.2,11-3,13.3c-0.8,2.4-1.5,5.1-1.5,6.1c0,1,3.3,5.4,7.4,9.7
		c8.7,9.3,12.4,15.4,14.2,23.1c1.8,7.3,1.7,13.4-0.1,22c-1.7,8-4.3,13.7-11.5,24.7c-3.7,5.7-5,8.6-5,11.3
		c0.1,6.4,5.8,16.6,15.2,26.9c6.7,7.5,6.5,11.2-0.8,19.5c-1.9,2-3.4,4.3-3.4,5.1c0,0.8,1.6,3.7,3.5,6.6c4.2,6.2,4.3,7.3,1,10.5
		c-3,3.1-6.8,3.2-9.5,0.2l-2.1-2.2l3-2.6l3.1-2.5l-3-2.9c-1.7-1.6-3-3.8-3-4.9c0-1.2,1.8-4.8,4-8.1c2.2-3.3,4-6.8,4-7.7
		s-2.7-3.8-6-6.3c-6.4-4.9-10.4-10.1-11.5-14.8c-1.3-4.9-2.1-2.8-1.3,3c0.4,3.2,1.1,10.3,1.4,15.9c1.2,19.4-2.7,26.2-25.8,43.9
		c-8.6,6.6-17.5,13.7-19.8,15.8c-6.1,5.6-11.3,7.7-19.2,7.7H403v4.5c0,2.5,0.3,4.5,0.8,4.5c0.4,0,2.5,2.5,4.7,5.5
		c3.8,5.4,5.5,6.7,5.5,4.4c0-0.8,0.5-0.8,1.5,0.1c0.8,0.7,1.5,2.1,1.5,3.2c0,1.4,2.2,2.9,8.2,5.8c7.8,3.8,8.6,4,17.9,4
		c16.3,0,27.7,5.2,38.3,17.6c2.7,3,5,5.3,5.2,5.1c0.2-0.2-0.3-2.6-1.1-5.3c-1.5-5.1-1.9-15.1-0.8-21.7c0.4-2.5,1.4-4.4,2.9-5.4
		c2.2-1.4,2.6-1.4,4.8,0.1c1.3,0.8,2.6,2.8,2.9,4.3c2.1,12,6.3,30.3,6.9,30.3c1.6,0,4.8-13.4,4.8-19.9c0-8.4-1.6-14.4-6.9-25.5
		c-4.6-9.9-5.4-17.2-2.5-22.7c1.5-2.9,1.6-3,3.9-1.5c2.3,1.5,2.4,1.5,2.7-1.6c0.5-5.3,5.7-6.4,7.8-1.7c3.5,7.7,10.1,19.6,13.7,24.7
		c2.4,3.5,5.5,8.7,7,11.5c1.4,2.9,4.1,6.9,5.9,8.9c3.8,4.2,4.9,7.9,6.3,19.9c0.8,7.3,0.7,10.1-0.9,17.8c-1.1,5.1-2.4,13.1-3,17.9
		s-2,10.7-3.2,13.2c-1.2,2.7-2,6.5-2,9.5c0,4.8,0.2,5.2,5.3,9.8c5.9,5.3,28.6,22.1,45,33.2c24.9,16.9,31.6,28.6,32.6,56.7l0.5,14.7
		l-2.9,2.9c-2.4,2.4-4.5,3.2-12.3,4.6c-15.3,2.9-29.1,0.2-47.7-9.3c-6.8-3.4-12.3-7.8-38.4-30.5C487,532.8,485,531,485,529.3
		c0-1.7-3.1-7.3-4.1-7.3c-0.3,0-1.2,1.9-1.9,4.3c-4.1,13.6-12.7,25.3-32.1,43.2C438.8,577,434,585,434,591.1v3.2l2.4-2.2l2.5-2.3
		l9.2,6.3c8.6,5.9,14.9,12.5,14.9,15.6c0,0.7,0.4,1.3,0.9,1.3c0.5,0,1.4-4.2,2-9.3c1.5-11.1,1.6-14.5,0.6-17.4
		c-0.9-2.7,1.2-3.9,4.9-2.9c3.7,0.9,4.4,4.5,1.3,7c-1.6,1.4-2.8,3.8-3.5,7.1c-0.6,2.7-0.9,5.1-0.7,5.3c0.2,0.2,2.9-1.7,6.1-4.3
		c3.1-2.6,8.1-6.3,11-8.2c5.2-3.4,5.4-3.5,7.9-1.9c1.3,0.9,4.6,4.3,7.2,7.6l4.8,6.1l2.5-2.9c1.4-1.6,5.2-5.2,8.4-8.1
		c3.3-2.8,6.4-6.1,7-7.4c1.6-3,5-3.4,7-0.6c1.9,2.8,1.4,3.6-3.3,4.9c-5.6,1.5-20.1,16.3-20.1,20.5c0,3,1.8,16.7,2.3,17.1
		c0.1,0.1,3.8-1.5,8.2-3.7c4.4-2.1,8.8-3.9,9.7-3.9c1,0,2.5-1.1,3.4-2.5c3.1-4.7,9.3-2.3,8,3.1c-0.7,2.5-1,2.6-5,2.1
		c-3.9-0.6-5.5-0.1-14.7,4.6c-12,6.1-13.4,7.8-5.7,7c3.5-0.3,6.8,0,9.8,1.1c2.5,0.9,6.4,1.6,8.8,1.6c4.5,0,4.6,0.1,4.2,6.9
		c-0.2,3.1-1.7,9.2-3.5,13.3c-0.6,1.6,0,1.8,6.3,1.8c15.8,0,34.7,5.1,49.2,13.2c7,3.9,18,11.7,18,12.7c0,0.4-5.9,2.7-13,5.1l-13,4.3
		l7.3,6.8c8.6,7.9,36.5,37.8,49.9,53.4c23.1,27,73.8,93.3,73.8,96.6c0,0.5-1.1,0.9-2.4,0.9c-1.9,0-4.2-2.7-12.2-14.3
		c-37.6-54.5-76.1-99.7-113.7-133.1c-9-8.1-10.1-8.8-13-8.2c-7.7,1.5-22.1,1.8-29.3,0.7c-4.2-0.7-7.7-1.1-7.9-0.9
		c-0.2,0.2,1.9,3.3,4.7,6.8c2.8,3.6,7.7,10.4,10.9,15.1c6.1,9.1,8.5,11.1,18.4,15c7.2,2.8,15,10.1,18.5,17.4c2,4.2,2.4,6.6,2.4,15.1
		c0.1,9.8,0,10.3-3.7,17.6c-5,9.9-8.3,13-14.1,13.5c-5.4,0.4-5.9-0.9-2-4.6c7.1-6.7,10.6-19,8.5-29.3c-1.6-8-4.8-12.8-11.3-17.2
		c-2.8-2-5.3-3.4-5.5-3.2c-0.2,0.1,0.6,2.8,1.6,5.8c1.1,3.1,3.2,10.6,4.7,16.6c2.7,10.7,2.7,11.1,1,13.7c-1.6,2.5-2.3,2.7-6.5,2.3
		c-2.9-0.3-9.4-2.8-17.8-6.9c-12.6-6.1-13.2-6.3-12.6-3.9c0.3,1.4,3,9.6,5.8,18.3c3,8.9,4.8,16,4.3,16.3c-1.3,0.8-3.4-2.3-4.6-6.6
		c-1.1-3.8-8.9-25.2-11.5-31.1c-1.1-2.7-4.5-6-12-11.8c-5.8-4.4-11.9-9.7-13.6-11.6c-5-5.7-13.2-18.4-17.7-27.4l-4.2-8.4l-1.1,4
		c-0.6,2.2-1.5,6.2-2,9c-2.1,10.9-10.1,24.7-17.9,30.8c-4.8,3.7-7.3,4.3-8.9,2.2c-0.5-0.6-3.2-6.1-5.9-12.1
		c-4.8-10.7-4.9-10.8-5.7-7.5c-1.4,5.7-6.8,21-9.9,28.4c-11.8,27.7-27.3,50-50,72C363,844,360,846.3,360,844.2c0-0.4,4.3-5,9.6-10.2
		c25.1-24.9,46.9-61.1,60.1-99.9c3.5-10.1,3.6-10.7,2.7-19.5c-1.2-12.8-0.8-25.2,0.9-31.4c1.2-4.6,1.2-5.2,0-4.8
		c-0.8,0.3-4.9,1.5-9.1,2.7c-4.2,1.2-10.8,3.2-14.5,4.5c-8.9,3.1-12.6,3.7-14.3,2.3c-2.4-2-1.7-9.4,1.7-17.5
		c4.1-9.8,10.6-17,19.9-21.8c6.5-3.5,7-3.9,6.4-6.4c-0.4-1.5-0.8-2.8-0.9-3c-0.2-0.2-2.7,2-5.7,4.8c-17.7,17-41.8,24.6-61.8,19.4
		c-3.9-1-7-2.2-7-2.7s1.1-0.7,2.3-0.3c1.3,0.3,5.5,0.8,9.3,1.2c17.3,1.6,41.3-7,56.2-20.1c6.3-5.6,6.5-7.5,2-16.6
		c-4.6-9.2-13.1-17.1-37.2-34.4c-35.8-25.7-43.8-31.9-53.2-40.6c-4.9-4.6-13.7-12.5-19.5-17.6c-5.8-5.1-12.7-12-15.3-15.3
		c-4.7-6-14.6-24-14.6-26.7c0-0.7-0.4-1.3-0.9-1.3c-1.4,0-2.1,5.6-2.1,17.7c0,10.4,0.3,12.2,3,19c3.8,9.5,6.1,12.5,23,29.8
		c15,15.3,17.3,18.9,21.6,33.2c2.1,6.9,2.7,11.1,2.8,19.5c0.1,13.2-0.2,13.7-14.4,22.7c-23.3,14.8-43.6,31.8-74.3,62.1
		c-22,21.6-34,35.4-53.5,61.3c-13.6,18.1-18.2,25.6-29.7,48c-8.1,15.9-12.7,27.6-16,40.9c-1.1,4.3-2.2,6.8-3.1,6.8
		c-1.9,0-1.9-0.2,1.7-12.1c8.9-30.3,17.2-48.1,35.7-76.4c33.2-51,74.9-92.8,129.2-129.5c9.9-6.7,18.5-13.1,19.1-14.3
		c3-5.5-3.7-36.6-9.3-43.6c-1.2-1.5-5.9-6-10.4-9.9c-13.6-11.9-22.3-23.7-27.5-37c-1.3-3.4-2.7-6.2-3.2-6.2c-0.4,0-2,2.6-3.5,5.7
		c-2.4,5.1-4.8,7.5-19.9,20.3c-9.4,8-22.1,19-28.2,24.5c-17.9,16.1-34,24.5-51.4,26.7c-10.1,1.3-23,0.1-28.9-2.7
		c-3.8-1.9-7.6-8.5-6.1-10.7c0.4-0.7,1-7.6,1.3-15.4c0.5-13.5,0.6-14.3,3.9-20.7c4.3-8.6,14.7-19.7,25.2-27.1
		c12-8.5,35.1-25.9,44.4-33.5c4.4-3.6,8.2-6.6,8.3-6.7c0.2-0.1,0.6-2,0.9-4.1c0.3-2.8-0.3-5.8-2.5-11.3c-2.3-5.8-3.5-11.5-5.2-25
		c-3-24.4-1.8-37.3,4.1-43.3c1.6-1.6,3.9-4.8,5.1-7.1c1.1-2.2,3.8-6.5,6-9.5c2.2-2.9,6.9-10.9,10.5-17.7
		c6.8-13.1,9.4-15.9,11.9-12.7c0.7,1,1.4,3.3,1.4,5.2v3.4l2.5-2.3c1.4-1.3,2.6-2.2,2.8-1.9c5.1,6.3,5,11.8-0.4,23
		c-7.2,14.8-8.8,26.8-5.4,41.1c1,4.3,2.1,7.8,2.5,7.8c0.3,0,1.2-3.9,1.9-8.8c1.5-10.5,4.7-22.8,6.8-26c1.8-3,5-2.6,7.6,1
		c3,4,3.3,12.6,0.9,22c-1.1,4.3-1.8,7.8-1.7,7.8c0.2,0,3.9-3.5,8.2-7.8c6.5-6.5,9.1-8.4,15.8-11.2c7.4-3.1,8.8-3.4,19.1-3.5
		c10.5,0,11.3-0.2,18-3.5c4-2,7.4-4.5,8-5.8c2-4,3.4-4.9,4.5-2.9c1.2,2,2.9,1.4,2.9-1.2c0-0.9,1.7-3.7,3.8-6.1l3.7-4.4l0.6-14
		c0.8-16.1-0.9-52.4-2.4-54.4c-0.6-0.8-2.8-2.1-4.9-2.9c-8.2-3.3-16.8-21.4-19.3-40.8c-0.4-2.8-2-10.2-3.7-16.5
		c-6.4-24.2-2.7-42.6,11.9-60.6c3.9-4.7,4.4-6,3.5-7.5c-3.1-4.9-8.3-16.3-10.7-23.4c-3.3-9.7-4.4-22.6-2.5-30.6
		c4.3-18.3,18.3-35,37.2-44.5c5.3-2.7,6.9-4,7.4-6.2c1.1-4.5,1.6-4.6,4.6-1.1c1.6,1.9,2.8,2.8,2.6,2.1c-0.2-0.7-3.4-4.8-7.2-9.1
		c-5.8-6.6-7.2-7.7-8.6-6.8c-2.5,1.5-5,0.1-5-2.8c0-1.7,0.8-2.9,2.4-3.7c3.2-1.4,5.6-0.4,5.6,2.3c0,1.3,3.1,5.3,8.2,10.5
		c7.2,7.4,10.8,10,10.8,7.7c0-1.5-8.6-18.2-12-23.3c-2-3-4-6.3-4.3-7.3c-0.5-1.4-1.1-1.6-2.6-0.7c-2.8,1.5-3.9,1.3-5.2-1.1
		c-0.9-1.7-0.7-2.5,1.2-4.5c1.2-1.3,3.3-2.4,4.6-2.4c2,0,2.3,0.5,2.3,3.4c0,2.6,1.4,5.4,5.6,11.3c3.1,4.3,7.6,11.7,10,16.6
		c4.2,8.3,4.6,8.7,7.2,8.1c1.5-0.4,2.8-0.8,3-0.9c0.2-0.2-15.1-49.4-16.5-53.2C371.4,17.9,372.9,19,374.4,21.7z M426.5,74.5
		c-1.2-5-2.3-8.8-2.4-8.5c-0.2,1-4.6,12.7-14.5,38.4c-7.4,19.1-8.9,30.9-6,45.3l0.7,3.3h10.3c6.6,0,10.5-0.4,11-1.1
		c1.5-2.5,1.5-15.1,0-28.6c-1.8-15.7-2-24.3-0.8-24.3c0.5,0,1.4,4.4,2.1,9.7c0.7,5.4,1.7,13,2.3,17c1.1,7.2,0.7,22.3-0.6,25.4
		c-0.8,1.8,0.3,2.2,8.5,3.4l4.6,0.7l1.7-4.8c1.1-3.2,1.6-8.1,1.6-15.3c0-10.3-0.2-10.9-4.6-21.6c-2.5-6.1-6.1-15.3-8.1-20.5
		C430.4,87.8,427.8,79.4,426.5,74.5z M403.4,78.9l-9.4-1.6v3.5c0,4.9,4.1,36.4,4.9,37.9c0.4,0.7,2-3.1,3.6-8.5
		c1.6-5.3,4.8-13.9,7.2-19.1c2.4-5.1,4.1-9.6,3.8-10C413.1,80.8,408.6,79.8,403.4,78.9z M386.9,78c-1.4,0-1.9,0.5-1.6,1.4
		c0.3,0.8,1.3,5,2.2,9.3c1.7,8.7,6.5,23.3,7.5,23.3c0.4,0,0.4-1.9-0.1-4.3c-0.5-2.3-1.5-8.3-2.4-13.2c-0.9-5-2.1-10.7-2.6-12.8
		C389.2,78.9,388.4,78,386.9,78z M383.2,101.6L368.3,79l-1.2,13.3c-0.7,7.2-1.9,17.2-2.7,22.2c-2.7,17.4-1.1,30.4,5.3,42.7l3.5,6.6
		l5.6-2.5c3.1-1.4,5.8-2.6,5.9-2.7c0.2-0.1-1.3-3.8-3.2-8.2c-1.9-4.3-3.7-9.7-3.9-11.9c-1.1-8.8-1.3-17.4-0.5-16.9
		c0.5,0.3,0.9,1.7,0.9,3.1c0,4.2,5.1,22.4,7.7,27.6l2.3,4.7l4.3-0.7c5.4-0.8,8.6-1.7,8.8-2.3c0.2-0.4-1.5-18.2-2.6-26.6
		C398.3,125.5,392.4,115.5,383.2,101.6z M365.1,81.6c-0.4-0.3-4.4,1.8-8.9,4.6c-23.3,14.1-33.6,34.5-30.5,60.5
		c1.3,11.6,7.2,26,15.1,37.2c1.6,2.4,1.6,2.4-1,1.8c-2.1-0.6-3-0.1-5,2.6c-5.7,7.6-10.7,18.5-9,19.6c0.5,0.3,2.2,4.6,3.8,9.5
		c3.5,10.8,5.6,12.8,13.7,13c8.1,0.1,10.1-1.7,13.2-11.8c3.2-10.5,6.9-16.1,14.2-21.5c13-9.7,22.6-13,39.3-13.8
		c15.2-0.6,24.4,0.6,38.1,5c19.7,6.5,29.8,12.9,34.5,21.8c2,3.8,4.3,19,4.4,28.9c0,7.6,0.9,6.9,4.1-3c2.5-8.1,2.6-20.2,0.3-28
		c-5.6-18.8-18.4-28.9-47.9-37.6c-12.8-3.8-33.2-4.5-45.5-1.6c-12,2.9-18.6,5.5-28.1,11.4c-4.6,2.8-12.1,7.3-16.6,10
		c-8.7,5.1-11.8,8.6-13.5,14.4c-1.3,4.8-3.3,3-2.4-2c0.6-3.2,2.5-5.7,13.4-17.7l2.4-2.7l-4.7-4.8c-6.2-6.5-11-16.8-12.4-26.7
		c-1-7.4-1.6-37.7-0.7-37.7c0.3,0,3.1,2.7,6.3,6.1c5.7,6,15,13.5,15.8,12.7c0.2-0.2,0.9-3.7,1.5-7.8s2.2-14.3,3.6-22.5
		c1.4-8.3,2.6-16,2.8-17.3C365.6,83,365.4,81.8,365.1,81.6z M468.6,92.2c-0.9-0.9-11.8,10.6-16.5,17.4l-5.4,7.8l1.3,8.1
		c1.2,7.7,0.5,15.3-2.7,28.2c-0.4,1.8,0.2,2.5,3.3,3.8c2.1,0.8,4.3,1.4,5,1.1c1.7-0.6,3.2-8.9,4-21.6c1-15.7,2-16.3,2.9-1.7
		c0.7,11.6,0.5,13.4-1.4,19.4c-2.1,6.2-2.1,6.6-0.4,7.9c2.9,2.1,3.8,1.7,6.1-3c3.4-7.2,4.5-16,3.3-26.3c-1.3-10.7-1.4-31.3-0.1-36.8
		C468.5,94.3,468.7,92.4,468.6,92.2z M338.4,123c-1.3,0,0.6,22.4,2.7,31c2.2,8.9,7.8,21.8,10.3,23.9c1.2,1,2.2,0.8,5.1-1.4
		c1.9-1.5,3.5-3.2,3.5-3.9c0-0.6-1.5-3.2-3.3-5.8c-3.8-5.3-9-16.3-8.5-17.9c0.3-0.9,12.1,17.1,13.4,20.6c0.8,2.1,1.4,1.9,5.6-1.5
		l3.7-3l-4.3-8.8c-2.4-4.8-5.1-10.8-6.1-13.4c-2.1-5.7-3.6-7.2-13.7-14.4C342.6,125.4,338.9,123,338.4,123z M481.6,129.3
		c-0.1-0.1-1.8,0.9-3.8,2.3c-4,2.8-6.1,7.3-5.2,10.8c0.3,1.2,0,3.5-0.7,5.1c-0.6,1.7-2.4,6.6-4,11l-2.8,8l3.1,3.2
		c1.8,1.8,3.5,3.3,3.9,3.3c1,0,3.7-12.2,5-23c0.6-5.2,1.9-12,2.9-15S481.7,129.4,481.6,129.3z M418,156.4c-16-0.4-18.2-0.1-31,4.4
		c-10.2,3.6-23.5,12.9-31.3,21.9c-4.3,5-1.8,4,5.1-2c16.9-14.7,42.9-20,71.8-14.7c9.2,1.7,28.8,6.7,34.3,8.8c2.6,1-5-5.3-10.6-8.7
		c-2.8-1.7-9.1-4.6-14-6.3C434.2,157,432.2,156.7,418,156.4z M407.8,186c-21.1,3.8-38.4,14.7-45.3,28.7c-2.9,5.7-2.9,6-3,23.8
		c0,17.4-0.1,18.2-2.8,23.9c-1.5,3.2-2.7,6.8-2.7,8c0,1.1,2.1,5.9,4.7,10.6c7.4,13.7,7.6,14.2,8.1,19c0.3,3.4-0.2,6.1-1.7,9.6
		c-2.7,6-2.2,8.2,2.9,11.6c3.4,2.3,4,3.3,4,6.2c0,2.2-0.9,4.5-2.3,6.2l-2.3,2.7l5,5.2c6.8,7.1,21,19,26.6,22.3
		c6.4,3.8,15.6,3.8,22,0c5.8-3.4,28.3-22.1,37.6-31.2c12.1-11.9,15.6-23.6,11.9-40l-1.7-7.7l-3.5,3.1c-3.1,2.7-4.1,3.1-7.2,2.5
		c-9.7-1.6-14.4-3-14.8-4.3c-1.3-3.2,2.1-15.5,5.8-21.2c7.3-11.3,12.8-12,21-2.7l3.5,4.1l3.7-8.9c3.3-7.8,3.6-9.2,2.7-12.1
		c-1.5-4.4-5.4-7.4-9.6-7.4c-7.1,0-11.5-4.2-5.9-5.6c4.6-1.1,9.4,0.5,13.5,4.6l3.9,3.9l0.7-3.5c1.7-8.9-2.2-25.7-7.1-30.7
		c-6.3-6.4-22.1-13.9-39-18.3C426.1,185.8,414.6,184.7,407.8,186z M323.7,210.9c-0.3,1.1,0.4,3.8,1.4,5.8l1.9,3.8l-0.6-5
		C325.7,209.8,324.5,207.9,323.7,210.9z M320.4,229c-0.6,7.5,0.5,17.1,2.5,22.3l1.1,2.9l3.1-2.6c1.7-1.4,4.3-2.6,5.8-2.6
		c3.5,0,8.9,3.6,11.8,7.8c1.2,1.8,2.5,3.2,2.9,3.2c1.6-0.3,2.3,3.8,2.3,14.7L350,286l4.6,4.2c8.5,8.1,10.1,13,6.5,20.1
		c-1,2.1-1.7,4.6-1.4,5.7c0.7,2.6,10.3,13,10.3,11.1c0-0.7-2-3.1-4.5-5.3c-5.1-4.5-5.5-6.4-2.5-12.9c2.8-6.2,2.5-8.5-2-16.4
		c-7.6-13.3-8.3-15.4-8.8-24.8c-0.3-6.4-0.1-9.2,0.8-10c1-1,1.2-0.8,0.7,0.5c-0.4,1-0.3,1.8,0.2,1.8c1.2,0,2.1-6.3,2-13.5
		c0-6.9-1.1-10.6-2.4-8.6c-1.1,1.9-8.5,5.1-11.8,5.1c-8,0-14.3-7-16.6-18.4C323.1,214.4,321.3,216.1,320.4,229z M329.5,225.1
		l-2.6-4.6l0.6,3.5c1,5.2,4.7,12.1,7.6,14.3c3.4,2.4,9.8,2.4,13.9,0.1c2.6-1.6,6.5-7.3,5.5-8.2c-0.2-0.2-2.1,0.6-4.4,1.7
		c-5.1,2.7-9.3,2.7-14.1,0C333.7,230.6,331.1,227.9,329.5,225.1z M329,254.5c-2,2.1-2.5,3.9-2.8,9.5c-0.5,7.9,0.3,10.8,6.9,24.8
		c5.4,11.3,7.7,14.2,11.3,14.2c3.7,0,4.1-1.7,1.2-5.9c-1.4-2-2.6-4-2.6-4.4c0-1.2,7.5-0.8,8.8,0.5c1.5,1.5,1.5,6.2,0.1,10.3
		c-1,2.6-0.8,4.2,1,9.6c2.5,7.5,9,19.1,10.5,18.6c0.5-0.2,1.4-1,2-1.9c0.8-1.3,0.1-2.6-3.2-6.2c-5.1-5.5-6-8.7-3.8-13.2
		c3.1-6.5,2.2-9.9-3.9-16c-3-3.1-5.9-6.4-6.5-7.4c-0.5-1-1-5.7-1-10.3c0-7.4-0.4-9.1-3.1-14.6c-2-3.9-4.3-7-6.3-8.2
		C333.5,251.4,331.8,251.5,329,254.5z M462.8,264c-1.8,0-1.7,0.3,0.6,3.3c3.9,5.1,3.6,10.9-0.7,15.2l-3.3,3.3l-6.9-1.4
		c-3.7-0.8-7-1.2-7.3-1c-0.9,1,1.1,2.6,4.6,3.6c9.1,2.5,15,0.2,17.3-6.7c1.3-4,0.6-12.7-1.2-14.9C465.3,264.6,463.9,264,462.8,264z
		 M452.4,266.5c-1.8,1.4-1.8,1.4,0.8,1.5c4,0,7.8,2,8.4,4.5c0.8,3.4-1.3,7.4-4.8,8.9c-3.2,1.4-3.2,1.4-0.7,1.5
		c7.3,0.2,10.1-9,4.4-14.9C457.3,264.7,455.3,264.3,452.4,266.5z M476.7,271.7c-1.3,1.2-0.7,6.1,1.5,11.8c1.7,4.5,3.6,6.9,9.5,12.2
		c6,5.4,7.3,7.1,7.4,9.7c0,2.6,0.2,2.8,0.9,1.1c1.6-3.8,1-5.5-5-12c-6.3-7-12-16-12-19.1C479,273,477.6,270.8,476.7,271.7z
		 M445,277.8c0,1.6,3.6,4.2,5.6,4.1c1.7,0,1.7-0.1-0.2-0.9c-1.2-0.4-2.4-1.5-2.7-2.4C447,276.9,445,276.4,445,277.8z M488.6,315.5
		c-0.9,1.3-1.6,3.3-1.6,4.3c0,1.9,3.6,5.9,4.5,5c0.3-0.3-0.1-1.1-1-1.8c-1.7-1.4-2-5.3-0.5-8.1C491.5,312.2,490.5,312.5,488.6,315.5
		z M357.1,328.2l-3.9-6.3l-0.5,30.3c-0.4,25.5-0.7,31.2-2.2,35.8c-1.6,4.7-1.9,5.1-2.4,3.1c-0.6-2.3-0.8-2.2-3.4,1.8
		c-2.9,4.3-2.7,4.7,2.2,5.3c1.3,0.2,2.8,1.1,3.2,2c0.5,1,1.3,2.6,1.7,3.5c1.3,2.7,7.4,3.9,12.1,2.3c5.5-1.8,8.8-0.7,10.8,3.5
		c1.4,3,2.2,3.5,5.1,3.5c2.2,0,4.5-0.9,6.4-2.5c3.3-2.8,7.5-3.2,10.4-1c3.3,2.5,4.2,1.8,3.7-2.9c-0.5-3.7-0.2-4.6,1.8-6
		c1.3-0.9,3.4-1.6,4.6-1.6c2.9,0,2.9-0.3-0.2-4.8c-1.6-2.4-2.5-3.1-2.5-1.9c0,0.9-0.4,1.7-1,1.7c-1.7,0-4-10.1-4-17.5v-7.2
		l-14.1-11.7c-9-7.6-15.4-12.2-17.8-12.8c-4.4-1.2-6.1-3.2-6.1-7.2C360.9,335.8,359.3,331.8,357.1,328.2z M244.1,354.7
		c-0.7-1.8-1.4-0.8-5.4,6.3c-2.5,4.7-4.4,8.7-4.1,8.9c0.3,0.3,0.8,0.1,1.2-0.5c0.4-0.5,2.1-2,3.9-3.2c2-1.4,3.6-3.7,4.2-5.8
		C244.4,358.4,244.5,355.9,244.1,354.7z M507,358.4c0,4.5,0.3,5.1,4.8,9.2c2.6,2.4,5,4.4,5.4,4.4c0.4,0-1.4-3.7-3.9-8.3
		C507.4,353,507,352.6,507,358.4z M251.7,359c-1.3,0-11.3,20.2-14.1,28.4c-0.9,2.7-1.9,7.6-2.2,11c-0.9,11.1-1.5,14.6-2.5,14.6
		c-0.5,0-0.9-1.3-0.9-2.9c0-1.5-0.3-5-0.7-7.6c-0.6-4.5-0.7-4.6-1.9-2.4c-0.7,1.3-1.3,4.2-1.4,6.5c0,4.8-1.8,10.4-3.2,10.4
		c-0.6,0-0.8-2.5-0.6-6c0.1-3.3,0-6-0.3-6c-1.7,0-2.9,3.3-3.5,9.8c-0.4,4-1.2,7.6-1.9,8.2c-0.9,0.7-1-1.1-0.7-7.6l0.5-8.6l5.8-5.6
		c5.3-5.2,8.1-10.3,6.5-11.9c-0.3-0.4-2.1,0.8-4,2.6c-1.8,1.8-5.5,4.7-8.2,6.4c-4.8,3.1-5,3.4-7.1,11.7c-2.6,10.3-2.8,14.9-0.8,23.2
		c0.8,3.5,2.1,10.8,2.9,16.3c1.8,11.8,4.6,20.5,8.2,25.2c1.8,2.3,2.3,3.8,1.6,4.5c-0.6,0.6-1.2,0.6-1.6-0.1
		c-0.4-0.6-1.2-1.1-1.7-1.1c-0.8,0-0.6,2.2,0.8,7.3c0.4,1.6,0.2,1.7-1.5,0.8c-1.5-0.8-2.3-0.7-3.3,0.6c-3.4,4-22.7,18.9-35.9,27.6
		c-19,12.6-27,18.9-32.9,26.2c-5.9,7.3-7.4,10.2-9.7,18.5c-2.2,8.2-2.6,28.8-0.6,31.3c1.9,2.3,9.9,3.7,21,3.7
		c16.2,0,24.5-3.3,35.6-13.9c8.1-7.8,15.5-18.6,25.6-37.1c8.5-15.6,8.2-15.2,25.2-46c7.2-12.9,13.6-25.5,14.4-28
		c1-3.1,1.4-10.1,1.4-23c0-10.2,0.5-20.1,1-22c2.9-9.6,4-18.3,2.9-22.7c-1.1-4-2.4-6.1-3.5-5.1c-0.2,0.3-1.5,5.1-2.9,10.7
		c-1.4,5.6-3.4,12.5-4.5,15.4c-2.4,6.2-2.5,8.6-0.5,13.3c0.8,1.9,1,3.2,0.5,2.9c-2.3-1.4-7-9.6-9.5-16.6c-2.4-7-2.6-8.7-2.3-19.5
		c0.3-11.9,0.3-11.9,5.2-22.4c3.4-7.1,5.1-12.1,5.4-15.7C252.1,361.4,252,359,251.7,359z M499.5,362c-1.3,2.1,0.5,9.6,4.1,17.1
		c4.4,9,7.4,20.4,7.4,27.5c0,2.9-1.1,8.7-2.4,12.7c-2.8,8.7-9.2,21.7-10.6,21.7s-1.3-0.5,1.1-5.2c1.7-3.3,1.9-4.6,1-6
		c-0.6-1-1.8-4.9-2.6-8.6c-2-9.2-6.9-25.2-7.6-25.2c-0.4,0-1.4,2.5-2.4,5.6c-1.7,5.3-1.7,5.9,0,12.2c2.9,11.3,3.5,17.1,3.2,33.7
		c-0.2,18.9,0.7,23.8,6.5,32.7c4.8,7.4,10.9,18.4,20.3,36.3c11.9,22.8,24.7,45.8,28.8,52c11.9,17.7,29.4,27.9,47.7,27.8
		c8.8-0.1,18.6-2.6,20-5.3c0.6-1,1-7.8,1-15c0-10.5-0.4-14.2-2-18.7c-4.6-13.1-13.5-22.5-34.4-36.5c-18.6-12.4-28.1-19.4-37.4-27.5
		c-4-3.5-8-6.3-8.9-6.3c-1.3,0-1.5-0.8-1-4c0.5-3.7,0.4-3.9-1.4-2.9c-2.5,1.3-2.5,1.3,1.4-6.2c4.6-8.8,10.2-37.1,10.1-50.9
		c-0.1-10.9-2.9-19.8-7-22.8c-1.4-0.9-5.3-3.8-8.7-6.4c-3.4-2.6-6.3-4.5-6.5-4.3c-1.2,1.1,3.9,8.9,8.9,13.6l6,5.7l-0.3,8.1
		c-0.4,10.3-2.5,9.8-3.4-0.9c-0.6-7.2-1.6-10-3.5-10c-0.5,0-0.9,2.7-0.9,6s-0.4,6-1,6s-1-2.9-1-6.6c0-6.3-2.1-12.4-4.2-12.4
		c-0.4,0-0.8,3.6-0.8,8.1c0,9.6-1.5,9.7-2.3,0.2c-1.1-13-3.6-22.5-8.3-31.6C502,363.1,500.3,360.6,499.5,362z M221.3,388.7
		c-1.4,2.4-2.3,4.3-2,4.3s2.5-1.6,4.9-3.6c2.3-2,6-4.7,8-6c3.1-2,7.8-8.6,7.8-10.9C240,369.9,224.4,383.3,221.3,388.7z M511,372.5
		c0,1.4,3.2,8.1,4.8,9.8c0.9,1.1,4,3.4,6.7,5.3c2.8,1.8,6.1,4.2,7.5,5.1l2.5,1.8l-2.7-4.5C527.6,386.2,511,370.7,511,372.5z
		 M326,400.6c-7.8,3.2-9.1,3.4-15.5,2.9c-15.5-1.3-27.7,5.1-41.8,22l-5,5.9l0.7,9.1c0.3,4.9,0.9,12,1.2,15.7
		c0.8,8.7-1.2,14.6-8.1,24.2c-2.9,4.1-6.1,8.8-7.1,10.5l-1.8,3.1l4.6,4.7c6.1,6.4,10.5,12.8,11.3,16.4c0.4,1.6,1.2,2.9,2,2.9
		c1.8,0,3.2-4.4,3.9-12c0.7-8.2,4.5-28.2,5.6-30c0.7-1.2,1.2-1.1,2.9,0.4c1.2,1.1,2.1,1.7,2.2,1.5c0-0.2,0.6-5.1,1.2-10.9
		c1.2-10.3,1.2-10.5,3.9-10.8c2.3-0.3,3,0.3,4.7,3.7c1.2,2.2,2.5,4.2,3,4.5c0.5,0.3,1.5-2.7,2.2-6.6c1.4-8.4,2.4-10.2,3.3-6.1
		c0.4,1.7-0.1,5.1-1.3,8.8c-2.6,7.7-2.6,9.7,0.2,12.3l2.2,2.1l5.5-7.9c3-4.4,6.1-8.1,6.8-8.4c0.7-0.3,3.7,1.6,6.5,4.3
		c7.9,7.4,22.3,16.4,24.5,15.2c3-1.7,9.9-9.4,12.9-14.5c5.5-9.4,7.8-8.6,14.9,5.6c2.4,4.9,4.8,8.8,5.4,8.8c0.5,0,5.5-5.6,11.1-12.5
		s11-13,12.1-13.6c2.6-1.4,4.6,0.5,8.7,7.9c3,5.5,13.6,18.1,14.4,17.1c0.3-0.2,1.4-2.3,2.6-4.7c2.6-5,9.6-12.2,12-12.2
		c1.1,0,4.3,3.8,8.2,9.5c3.5,5.2,6.7,9.5,7,9.5c0.4,0,1.2-2,1.9-4.6c1.2-4.1,1.1-5-0.8-9.2c-2.6-5.9-3.5-9.8-2.7-12.3
		c1.1-3.3,3.1-2.2,2.7,1.3c-0.2,1.8,0.4,5.1,1.3,7.2l1.7,3.9l3.8-4.4c5.4-6.2,6.7-4.7,7.6,9l0.7,10.4l2.3-2.6
		c1.3-1.5,2.5-2.7,2.8-2.7c0.9,0,2.5,6.6,3.5,14.5c0.6,4.4,1.5,12,2.2,17c1.1,8.6,2.8,13.5,4.9,13.5c0.6,0,1-0.7,1-1.6
		c0-2.9,5.7-11.8,10.9-16.9c2.8-2.7,5.1-5.5,5.1-6.1c0-0.6-3.4-6.2-7.5-12.3c-4.1-6.2-7.8-12.9-8.2-14.9c-1-4.9-1-12.4,0-25.4
		l0.9-10.6l-7.3-7.9c-8.6-9.3-16.8-15.7-22.8-17.8c-2.8-0.9-8.1-1.5-14.4-1.5c-9.1,0-10.7-0.3-18.8-3.6c-4.9-1.9-9.4-3.2-9.9-2.9
		c-0.5,0.3-0.9,3-0.7,6c0.1,3-0.3,5.9-0.8,6.4c-0.6,0.6-3.5,1.4-6.5,1.8c-5.4,0.8-5.5,0.9-6.1,4.6c-0.7,4.6-2.4,6.4-6.6,7.3
		c-2.7,0.5-3.7,0-7.7-3.6c-5.5-5-9-5.7-12.9-2.4c-1.6,1.3-3.7,2.4-4.7,2.4c-2.8,0-7.8-4.7-8.2-7.8c-0.3-2.4-0.9-2.8-5.1-3.6
		c-3.4-0.7-5.8-0.6-8.1,0.2c-4.7,1.7-6.4,1.5-8.1-1.2c-1.2-1.8-1.5-3.6-1-7C338.4,395.9,337.8,395.8,326,400.6z M342.3,401.2
		c-2.5,1.2-3,3.7-1.1,5.6s4.5,1.4,6.2-1c1.4-2,1.4-2.4-0.1-4C345.5,399.8,345.3,399.7,342.3,401.2z M404,402.6c-2,5.2-0.5,7.2,4.5,6
		c2-0.5,2.5-1.3,2.5-3.6c0-1.9-0.7-3.3-1.9-4C406.1,399.5,405,399.8,404,402.6z M368.2,409c-6.8,0.2-6.9,8-0.1,8
		c3.2,0,4.6-2.8,2.9-6C370.4,409.9,369.2,409,368.2,409z M390.7,410.8c-3.2,0.4-5.1,3.4-4.3,6.8c0.9,3.4,4,4.8,7.3,3.2
		c3-1.5,4.2-3.8,1.9-3.8c-1.2,0-1.4-0.7-1-2.9C395.3,410.8,394.6,410.3,390.7,410.8z M397.1,413.7c-1-0.9-1.1-0.8-0.5,0.6
		c0.3,1,0.9,1.5,1.2,1.2C398.1,415.2,397.8,414.4,397.1,413.7z M401.6,454c-1.9,0-24.9,31.3-27.3,37.1c-3.5,8.4-3.3,9,5.7,16.5
		c9.7,8,16.5,15.5,22.8,25.1c2.6,4,5,7.3,5.4,7.3s0.9-0.9,1.3-2c0.8-2.4,8.2-12.7,14.8-20.3l5-5.8l-0.6-9.3
		c-0.7-11.5-3.3-17.2-13.7-29.6c-3.9-4.6-8.2-10.8-9.7-13.7C403.9,456.4,402.3,454,401.6,454z M355.1,471.1l-8.4,10.2l2.9,2.4
		c1.6,1.3,6.6,5.1,11.2,8.3l8.2,6l1-2.6c0.6-1.4,1-2.9,1-3.4s0.9-3,2.1-5.7l2.1-4.8l-4.4-8.3C363.5,459.2,364.8,459.4,355.1,471.1z
		 M464.1,461c-1,0-8.1,16.3-8.1,18.6c0,0.7-2.4,5.9-5.2,11.6c-4.6,9-6.7,11.8-17.3,22.8c-22.9,23.8-25.2,27.3-22.1,34.2
		c2.8,6.2,2.6,6.3,12.1-2.8c5-4.7,12.6-11.6,17-15.3c10.9-9.3,18.2-17.4,23.4-25.9c5.4-9,6-13.2,3.2-23.2
		c-1.2-4.1-2.1-10.3-2.1-13.7C465,463.8,464.6,461,464.1,461z M314.2,462c-1.1,0-11.2,14.1-11.2,15.7c0,2.7,8.2,8.6,61.6,44.8
		c15.9,10.8,27.4,21,36.9,32.9c3.3,4.1,6.5,7.5,7.1,7.5c1.2,0.1,3.4-4.2,3.4-6.7c0-2.3-7.2-15.3-12.5-22.7
		c-12.3-17.2-32.8-34.7-65-55.7c-7.1-4.6-14.4-10.1-16.2-12.1C316.5,463.7,314.7,462,314.2,462z M437.1,463.2
		c-0.5-0.1-3.1,3.6-6,8.2L426,480l3,8.9c2.1,6.1,3,10.9,3,15.2v6.3l3.4-3.3c3.4-3.3,5.6-9.1,5.6-14.5c0-3.7,1.6-3.2,2.4,0.6l0.7,3.3
		l3.4-6c1.9-3.3,3.5-6.7,3.5-7.6c0-0.8-2.9-5.5-6.5-10.5C440.9,467.5,437.6,463.4,437.1,463.2z M286.4,464c-0.2,0-0.4,1.4-0.4,3
		c0,1.7-0.9,7.2-2,12.2l-2.1,9.2l2.5,4.8c4.5,8.6,14.7,21,33.1,39.8c18.3,18.9,21.3,21.3,51.5,42.4c27.3,19.1,39.7,29.6,50.2,42.3
		c1.5,1.8,2.8,3.3,3,3.3s0.4-1,0.5-2.3c0-1.2,0.4-4.1,0.8-6.3c0.8-4.8-1.2-11.4-8-26c-7.9-16.9-20.7-33.3-36.7-47
		c-10.7-9.1-17.4-13.8-40.4-28.5c-25.7-16.3-40.8-29.3-48.3-41.7C288.3,466.4,286.6,464,286.4,464z M474,488c-0.4,0-1,1.4-1.4,3.1
		c-0.3,1.7-2.9,7.8-5.6,13.5c-4.1,8.5-6.5,12-12.8,18.6c-4.2,4.4-11.1,10.8-15.2,14.1c-13.4,10.8-28,26.1-28,29.5
		c0,0.5,3.8,8.7,8.4,18.3c9.1,18.9,9,18.8,9.9,6.2c0.8-10.2,4.8-17.3,16.8-29.9c20.9-21.9,25.4-27.8,28.9-38.4
		c2.2-6.3,2.2-6.9,1-20.8C475.3,494.4,474.4,488,474,488z M247,498c-0.5,0-2.9,4.2-5.4,9.2c-21,44.1-28,56.2-40.3,69.7l-5.8,6.5
		l6.4-4.3c3.5-2.4,11.8-8.9,18.5-14.5c6.6-5.6,15.7-13,20.1-16.6c16.3-13,22.5-19,22.5-21.7c0-3-5.6-14.4-11.1-22.5
		C249.7,500.6,247.5,498,247,498z M504.9,499.7c-0.4-0.5-2.5,1.5-4.7,4.5c-9.6,12.8-13,21-10.8,26c1.3,2.9,46.9,40.8,62.6,52
		c4.4,3.1,4.3,3-2.5-4.7c-13.3-15.2-18.5-23.8-34.1-56.5C510.1,509.7,505.3,500.1,504.9,499.7z M489.4,592.1c-1,1.2-5.5,4.8-10,8
		c-4.4,3.3-8.6,7-9.2,8.3c-0.8,1.7-0.6,5,0.8,13c1,5.9,2,10.9,2.2,11.1c0.9,0.8,12.9,5.5,14.2,5.5c0.8,0,1.8-1,2.2-2.3
		c0.3-1.2,3.3-8.2,6.6-15.4c5.5-12.5,5.8-13.5,4.8-17.3c-0.6-2.1-2.5-5.8-4.3-8.1C492.8,589.7,491.9,589.4,489.4,592.1z M439.7,595
		c-0.2,0-1.6,2.7-3.1,6.1c-1.9,4.1-2.9,8.4-3.3,13.7l-0.5,7.7l3.5-4.9c5.5-7.6,11.4-9.9,13.8-5.4c0.7,1.3,3.9,6.5,7.3,11.5
		c5.6,8.6,6.4,9.3,9.4,9.3c3.8,0,3.8-0.4,1.2-10.5c-1-3.9-1.8-6-1.9-4.7c-0.2,3.6-2.3,2.1-3.9-2.7c-1.8-5.3-10.4-14.1-17.2-17.6
		C442.3,596.1,439.9,595,439.7,595z M429.4,607c-1,0-3.4,14.3-3.4,20.4c0.2,17.3,10.9,36.3,24.8,43.9c5.6,3.1,15,5.7,20.3,5.7
		c2.1,0,6.5,0.7,9.9,1.6c12.2,3.1,26.8-2.5,39.4-15.2c4.3-4.3,11.6-14.3,11.6-15.9c0-0.3-1.7,0.3-3.7,1.3
		c-3.8,1.9-12.3,4.9-15.9,5.6c-5.3,1.1-21.3,6.1-24.5,7.7c-2,1-5.7,4.1-8.2,6.9l-4.4,5.2l0.1-8.4c0.1-11.1-2.4-16.2-14.3-29.8
		c-5-5.8-10.4-13-11.8-16c-1.5-3-2.8-5.7-2.9-5.9c-0.2-0.2-1.5,0.4-2.9,1.3c-4.2,2.8-8.3,10.2-10,18.5c-2.4,11.1-2.6,11.6-3.5,10.1
		c-0.4-0.7-0.7-9.3-0.5-19.1C429.6,615,429.6,607,429.4,607z M503.1,612c-1,0-5.9,10.3-9.2,19.3c-5.1,13.9-3.5,15.7,5,5.5
		c5.8-7,6.1-7.5,6.1-12.9c0-3.1-0.3-7.1-0.6-8.8C504,613.4,503.4,612,503.1,612z M469.8,636.7c-2.3,0.6-2.3,1,0.6,4.7
		c3.9,5.2,7.6,13.3,8.4,18.5l0.7,5l5.7-4.2c5.2-3.8,5.7-4.5,5.8-8c0-7.6-4.6-13.4-12.6-15.6C474.4,636,472.8,635.9,469.8,636.7z
		 M502.8,637.2c-0.2-1.2-1.2-0.5-3.5,2.3c-3.6,4.3-4.8,8.1-3.8,12.4c0.7,3.5,0.3,3.5,17.5-1.1c14.3-3.7,17.7-5.3,19.6-9
		c0.9-1.7,1.4-3.1,1.2-3.3c-0.2-0.2-2.8-0.5-5.8-0.8s-8-0.8-11-1.2c-3.8-0.5-6.8-0.2-9.7,0.8C503.5,638.6,503.1,638.6,502.8,637.2z
		 M425,649c-1.3-0.1-11.8,7.7-15.6,11.6c-10.9,11.2-18,29.6-9.3,24.1c3-1.9,15.7-5.9,27.6-8.7c6.1-1.4,9.7-2.8,11.1-4.3l2.1-2.2
		l-7.7-10.2C429,653.7,425.3,649.1,425,649z M528,662c-1.1,1.1-2,2.4-2,3c0,0.6,4.5,1,11.3,1.1c9,0,13.4,0.6,22.2,2.9
		c6.1,1.6,10.6,2.9,10,3c-0.5,0.1-1.4,0.2-1.8,0.1c-0.4-0.1-4.2-0.4-8.5-0.7c-4.2-0.3-11.3-0.9-15.7-1.5
		c-10.7-1.2-20.2-1.1-22.8,0.2c-1.2,0.7-4.3,2.8-6.9,4.7l-4.8,3.6l4.3,2.8c17.1,11.6,29.9,13,65.7,7.3c2-0.3,8-1.8,13.4-3.4l9.8-2.8
		l-4.9-3.1c-14.6-9.3-32-15.5-50.8-18.2C535.3,659.4,530.3,659.7,528,662z M444.6,671c-1.2,0-4.8,6.4-6.2,10.7
		c-4.2,13.4-1.8,40.3,5.1,57.8c1.9,4.9,4,9.4,4.5,9.9c1.8,1.8,9.8-7.3,13.7-15.4c4.5-9.4,11.3-29.5,11.3-33.3c0-1.6-0.9-6-2.1-9.8
		c-1.2-3.9-1.9-8.1-1.7-9.4c0.5-2.2,0.1-2.5-3.1-3c-2-0.4-4.8-0.8-6.2-1.1c-1.4-0.3-3,0.1-3.6,0.8c-2.2,2.7-5.4,15.5-6,24
		c-0.8,11.7-2.7,11.3-3.1-0.7c-0.3-9.6,2.3-21,5.3-23.5c1.4-1.2,1-1.7-2.9-4.2C447.1,672.3,444.8,671,444.6,671z M477.6,686.3
		c6,11.8,18.8,24.7,31.5,31.7c7.8,4.3,19.3,8.6,36.4,13.5c16.3,4.7,20.8,7,26.8,13.4c6.9,7.4,9,12.6,8.5,21.6c-0.3,6-1,8.6-4.3,15.2
		c-3,6-3.6,7.9-2.4,7.6c2.6-0.7,6.6-9.1,8.3-17.7c2.7-12.8,0.1-22.3-8.3-30.5c-5.9-5.7-12.2-8.9-30.1-14.8
		c-29.9-10-45.2-19.9-55.7-35.9c-3.9-6.1-6.1-8.5-8.4-9.3C474.1,679.1,474.1,679.2,477.6,686.3z M504.3,681.1
		c-4.3,0.1-7.3,0.8-7.3,1.6c0,0.2,2.6,3,5.8,6.2c6.1,6,14.9,18.6,14.4,20.6c-0.2,1.3,22.3,13,27.2,14.1l2.9,0.7l-3.3-5.9
		c-8.2-14.5-17.5-25-29.7-33.2C509.5,682,507.2,681,504.3,681.1z M487,683.6c0,0.3,2.2,3.4,5,6.9c3.2,4.1,8.2,8.4,13.9,12.4
		c4.9,3.4,9.2,6.1,9.6,6.1c1,0-21.5-24.8-23.1-25.4C490.4,682.8,487,682.8,487,683.6z M473.5,688.7c8.2,22.7,17.8,39.2,30.5,52.7
		c12.2,12.9,31.4,25.5,50.3,33.1c3.7,1.5,7.5,2.4,8.2,2.1c2.7-1,1.6-8.5-3.1-22.8c-4.9-14.6-7.3-18.1-13.2-19.4
		c-6.8-1.4-27.4-8.1-33.2-10.7c-15.4-6.9-30.6-20.5-36.5-32.5C473.2,684.4,471.3,682.9,473.5,688.7z"/>
	<path d="M399.4,216.1c5.2-0.3,13.6,4.5,13.6,8c0,1.7-4.1,1.9-9.2,0.4c-7.8-2.2-17.5-2.8-22.8-1.4c-3.1,0.9-6.1,2.9-9.4,6.2
		c-2.6,2.6-5,4.6-5.2,4.4c-0.3-0.2,1-2.6,2.8-5.3c4.8-7.1,10.9-10.5,20.5-11.4C394,216.6,398.3,216.2,399.4,216.1z"/>
	<path d="M408.5,270.7c1,10.5,0.8,10.6-12,8.7c-17.4-2.6-22.6-6.7-24.6-19.7c-0.6-3.6-1.9-8.2-3-10.3c-2.2-4.5-1.2-6.3,2.3-4
		c2.3,1.5,2.9,1.5,7.9-0.3C397,238.7,406.5,246.9,408.5,270.7z M380.8,251c-2.7,0-5.8,3.7-5.8,6.7c0.1,2.7,0.1,2.7,2-0.9
		c1.1-2,2.8-4.2,3.7-4.7C382.4,251.1,382.4,251.1,380.8,251z M395.8,252.9c-1.8-1-1.8-0.7,0.5,2.2c3.3,4.4,4.1,7.8,2.7,11.4
		c-1.5,4-5.9,8.5-8.4,8.6c-2.8,0.1,3.5,1.6,10.5,2.4l5.6,0.7l-0.8-6.2c-0.9-6.1-2.5-10.1-6.1-15.3
		C398.7,255.2,396.9,253.5,395.8,252.9z M382.4,254.9c-3.7,2.2-5.9,7-5,10.7c1,3.7,5.9,8.4,9,8.4c10.6,0,14.8-14.8,5.5-19.6
		C388.2,252.5,386.1,252.6,382.4,254.9z"/>
	<path d="M392.1,257c1.4,0.8,1.9,2.1,1.9,5.5c0,5.4-2.6,8.5-7,8.5c-6.7,0-9.6-8.8-4.4-12.9C385.5,255.8,389,255.4,392.1,257z"/>
	<path d="M410.1,302.3c0.6,0.9,0.9,3.6,0.7,6l-0.3,4.2l-1.7-3.2c-1.4-2.5-1.6-3.8-0.7-6C409,300.8,409.2,300.7,410.1,302.3z"/>
	<path d="M439.6,309.6c-0.3,0.9-0.6,2.3-0.6,3.3c0,1.5-6.7,5.8-7.6,4.8c-0.2-0.1,1.3-2.4,3.4-4.9
		C438.5,308.1,440.7,306.6,439.6,309.6z"/>
	<path d="M447,311c0,1.9-0.7,3.3-1.9,4c-3,1.5-3.1,1.3-1.3-3C445.8,307.3,447,306.9,447,311z"/>
	<path d="M393.3,318.2c1.2,0.6,6.5,1.5,11.8,1.9c7.5,0.6,10.9,1.4,15,3.5c4.8,2.4,5.9,2.6,10.1,1.7c3.5-0.7,6.6-0.5,12.3,0.6
		c9.1,1.9,9.2,2.7,1,6.3c-2.1,0.9-4,3.3-6.6,8.1c-1.9,3.7-4.8,8-6.3,9.5c-2.4,2.4-3.3,2.7-9.9,2.7c-8.6-0.1-13.7-1.7-18.3-5.8
		c-4.5-3.8-6.6-8.2-9.2-18.2c-1.1-4.4-2.3-8.8-2.7-9.8C389.7,316.7,390.3,316.6,393.3,318.2z M403.1,323.4
		c0.6,0.6,19.1,7.4,20.9,7.7c2.9,0.5,18-1.2,17.5-2.1c-0.9-1.5-7.5-2.1-11.4-0.9c-3.5,1-4.3,0.9-7.4-0.9c-1.8-1.2-6.5-2.6-10.3-3.2
		C404.9,322.9,402.4,322.8,403.1,323.4z M403.3,326l-5.3-1.9l1.5,2.9c3.9,7.6,17,13.9,25.7,12.5c3.8-0.7,7.8-3.4,7.8-5.4
		c0-0.4-3.1-1.1-6.8-1.4c-3.7-0.3-9.2-1.5-12.2-2.7C411,328.8,406.1,327,403.3,326z M400.8,331.7c-3.2-3.3-5.8-5.4-5.8-4.6
		s1.7,4.8,3.8,8.9c4.8,9.7,9.8,13.1,19.3,13.2c7.6,0.1,12.1-1.8,14.9-6.5c2.9-4.7,2.6-6.6-0.6-3.6c-3.7,3.5-15.3,4-21.5,0.9
		C408.5,338.8,403.9,335.1,400.8,331.7z"/>
	<path d="M337.9,263.6c1.1,1.4,2.5,4.2,3.2,6.2c1.1,3.3,1,3.7-1,5c-2.7,1.8-2.6,3.8,0.4,8.7c1.4,2.2,2.5,4.9,2.5,5.9
		c0,1.9,0,1.9-2.1,0c-2.8-2.4-5.8-9.1-5.9-12.7c0-1.5,0.8-3.5,1.9-4.6c1.8-1.8,1.7-1.9-1.5-6.4c-1.9-2.6-3.4-5.1-3.4-5.7
		C332,258.4,335.5,260.5,337.9,263.6z"/>
	<path d="M232.9,445.8c11.3,17.2,14.1,24,12.2,30.1c-0.6,2-1.7,4.5-2.5,5.6c-1.3,1.8-1.4,1.2-1.4-6c0-9.4-0.8-11.8-9-24.6
		c-6.5-10.2-11.2-19.1-11.2-21.1C221,428,221.8,429.1,232.9,445.8z"/>
	<path d="M529.8,432.4c0.4,1.8-5.1,11.6-12.4,22.3c-5.8,8.6-7.8,14.9-7.1,22.9c0.2,3.5,0.1,6.4-0.3,6.4c-0.4,0-1.6-1.6-2.5-3.7
		c-2.5-5.3-1.4-13,3.1-21.3c2-3.6,4.4-7.4,5.3-8.5c1-1.1,4.4-6,7.7-10.9C527.5,433.7,529.6,431.2,529.8,432.4z"/>
	<path d="M403.9,478c1.4,0.1,7,15,8.1,21.6c1.8,10,0.9,23.7-1.8,29.8c-1.2,2.7-2.4,4.7-2.6,4.5c-0.2-0.2,0.3-3.6,1.1-7.4
		c2-9.4,1.1-22.9-2.5-37.3C404.6,483.1,403.6,478,403.9,478z"/>
	<path d="M418.9,633.6c1.3,1-5,6.8-10.2,9.3c-10.4,5.1-17.4,6.4-32.2,5.9c-14.2-0.5-23.6-2.9-31.6-8.3c-5.6-3.7-4.8-5,1.3-1.9
		c2.8,1.4,9.4,3.7,14.6,5c17.6,4.5,33.3,2.7,48.9-5.6C414.5,635.4,418.7,633.5,418.9,633.6z"/>
	<path d="M427.7,702.2c0.9,5.6-12.4,32-28.5,56.3c-8.9,13.7-12.4,17.9-23.6,29c-13.1,12.9-29.3,26.3-39.4,32.5
		c-2.9,1.8-5.5,3-5.8,2.8c-0.2-0.3,4.2-4,9.8-8.3c34.2-26.3,60.3-58.3,79.4-97.1c4.1-8.4,7.5-15.8,7.5-16.5
		C427.2,700.1,427.5,700.7,427.7,702.2z"/>
	<path d="M482.2,722.8c3.1,5.2,6.8,22.3,8,36.2c1.5,18.6,0.5,45-1.8,51.2c-2.1,5.4-4,6.4-3,1.6c5-24.9,2-69.3-6-90.3
		C478.4,718.9,480.5,719.9,482.2,722.8z"/>
</g>
</svg>
