<?xml version="1.0" encoding="utf-8"?>
<!-- Generator: Adobe Illustrator 21.0.0, SVG Export Plug-In . SVG Version: 6.00 Build 0)  -->
<svg version="1.1"
	 id="svg92" inkscape:version="0.92.2 5c3e80d, 2017-08-06" sodipodi:docname="6 #31871.svg" xmlns:cc="http://creativecommons.org/ns#" xmlns:dc="http://purl.org/dc/elements/1.1/" xmlns:inkscape="http://www.inkscape.org/namespaces/inkscape" xmlns:rdf="http://www.w3.org/1999/02/22-rdf-syntax-ns#" xmlns:sodipodi="http://sodipodi.sourceforge.net/DTD/sodipodi-0.dtd" xmlns:svg="http://www.w3.org/2000/svg"
	 xmlns="http://www.w3.org/2000/svg" xmlns:xlink="http://www.w3.org/1999/xlink" x="0px" y="0px" viewBox="0 0 850 850"
	 style="enable-background:new 0 0 850 850;" xml:space="preserve">
<style type="text/css">
	.st0{fill:none;}
	.st1{fill:#800000;}
	.st2{fill:#FF0000;}
	.st3{fill:#F08080;}
	.st4{fill:#A52A2A;}
	.st5{fill:#DAA520;}
	.st6{fill:#D2B48C;}
	.st7{fill:#000080;}
	.st8{fill:#006400;}
	.st9{fill:#FF8C00;}
	.st10{fill:#4682B4;}
	.st11{fill:#008080;}
	.st12{fill:#66CDAA;}
	.st13{fill:#9ACD32;}
	.st14{fill:#556B2F;}
</style>
<sodipodi:namedview  bordercolor="#666666" borderopacity="1" gridtolerance="10" guidetolerance="10" id="namedview94" inkscape:current-layer="svg92" inkscape:cx="1164.4188" inkscape:cy="489.07015" inkscape:pageopacity="0" inkscape:pageshadow="2" inkscape:window-height="978" inkscape:window-maximized="1" inkscape:window-width="1920" inkscape:window-x="0" inkscape:window-y="1" inkscape:zoom="0.41647059" objecttolerance="10" pagecolor="#ffffff" showgrid="false">
	</sodipodi:namedview>
<g id="g90" transform="translate(0.000000,0.000000) scale(1.00000,1.00000)">
	<path id="path4" class="st0" d="M0,0h425h425v425v425H425H0V425V0z M349.2,3.5c-15.1,5.4-21.5,16-19.2,31.5
		c0.5,3.6,0.6,6.8,0.2,7.1c-0.4,0.3-2.9,1.2-5.6,1.8c-6.3,1.5-11.5,4.2-14.6,7.6c-2.2,2.3-2.6,3.8-3,12.2l-0.5,9.6l-9.6,6
		c-20.4,12.7-35.6,27.3-45.1,43.3c-15.4,26-13.9,51.8,3.9,68.5c3.5,3.2,8.6,7,11.3,8.4c2.8,1.4,5,2.9,5,3.4c0,1.1-7.2,6.1-8,5.6
		c-0.4-0.2-1.5-3.1-2.5-6.5c-1-3.3-2.4-6-3.1-6c-1.7,0-6.4,5.7-8.5,10.5c-0.9,2.2-2.4,8-3.3,12.9c-1.2,7.4-2.3,10.1-6.4,17
		c-8.9,14.5-13.4,26.6-15.1,40.5c-1.8,14.1-0.1,23,13,68.9c3.8,13.4,6.9,26.1,6.9,28.1c0,5.6-3.8,12.1-9.4,15.8
		c-4.1,2.8-5.7,3.3-10.7,3.3c-7.1,0-10.9-1.5-21.2-8.2c-4.3-2.8-8-4.9-8.2-4.6c-1,1,1.5,15.7,3.5,21.2c1.2,3.1,3.7,7.9,5.5,10.6
		c3.4,5.1,3,5.5-1.3,1.6l-2.4-2.1l-2.3,2.9c-3.8,4.7-6.5,13.1-6.5,19.9c0,13.9,10.5,26.5,28.5,34.4c4,1.8,4.5,2.2,2.4,2.3
		c-1.4,0-2.8,0.3-3.2,0.6c-1.2,1.2,5.6,12.8,10.5,18c3.9,4.2,14.5,13.2,24.8,21.2c0.3,0.2-2.5,3.3-6.2,6.8c-5,4.7-9.5,7.7-17.2,11.4
		c-16.5,8.1-24.4,8.1-35.2,0c-6.4-4.9-8.4-5.9-8.4-4.1c0,0.4-1.1,2-2.5,3.5c-3.1,3.3-6.7,3.4-14.5,0.1c-3.3-1.4-6.5-2.5-7.2-2.5
		s-2.6,2.2-4.3,4.8c-2.4,3.8-3.7,4.8-6.4,5.2c-4.8,0.7-6.5,3.5-11.1,19c-10.2,33.7-15.5,45.6-25.6,58.1l-6.6,8.1l2.7,2.8
		c2.1,2.2,2.6,3.6,2.3,5.7c-0.3,1.5-5.3,14.4-11.1,28.5c-9,22-10.3,25.8-8.9,26.3c1,0.4,20.8,7.9,44.2,16.7
		c95.2,35.9,98.3,37.1,101.8,39.5c0.6,0.5,2.4,4.9,3.8,9.9c5.7,19.8,17.5,38.5,36,57c8.1,8.1,11.7,10.9,17.8,14
		c7,3.4,8.5,3.8,15.6,3.8c6.7,0,8.7-0.5,14.2-3.2c11.5-5.7,24.5-18,30.1-28.6c1.6-3.1,2.2-5.9,2.2-11.6c0-6.9-0.3-8.1-3.5-13.4
		c-1.9-3.2-5.6-7.7-8.1-10c-5.7-5-6.1-5.8-9.4-17.5l-2.6-9.3l4.3-5.6c6.6-8.6,20.7-22.4,37.3-36.1c8.3-6.8,18.5-15.6,22.8-19.4
		c6.2-5.5,8.1-6.7,8.8-5.6c0.5,0.8,0.9,2.1,0.9,3c0,3.7,8.5,43.8,13,61.8c9.5,37.6,17,56.8,30,76.2c2.7,4.1,5,8.3,5,9.4
		c0,3.5,4.6,11.9,8.9,16.3c8.1,8.3,23.4,16.2,31.3,16.2c5.2,0,43.2-14.1,58.1-21.7c16.3-8.2,29.2-19.5,34.8-30.5
		c8.2-16,3.1-37.8-12.4-53.6c-5.8-5.9-11.5-8.2-20.2-8.2c-6.6,0-15.9,4.5-20.9,10l-3.6,4l-3.6-1.5c-2-0.8-5.8-1.5-8.5-1.5
		c-2.6,0-6-0.5-7.5-1.2c-1.4-0.7-5.6-5.5-9.3-10.8c-18.8-26.5-27.4-42.3-34.4-63c-4.4-12.8-18.1-60.9-17.6-61.4
		c0.3-0.3,29.9-7.3,37.1-8.8c1-0.2,1.4,2.6,1.9,12.7c0.3,7.1,1.1,14.2,1.7,15.7c1.1,2.8,2.5,19.7,4.8,60.3
		c0.7,13.1,2.7,18.2,8.7,22.6c6.1,4.4,9.8,5,20.2,3.5c5-0.8,12.8-2.4,17.5-3.6c18-4.7,27.9-0.9,37.4,14.2
		c5.6,8.7,15.4,12.3,22.9,8.3c1.5-0.8,9.4-7,17.5-13.7c36.2-30.4,37.3-30.9,63.2-35.3c15.2-2.5,15-2.4,15-4.8c0-1.1-1-6-2.1-10.8
		c-2.8-11.3-2.2-12.8,8.5-21.6c4.4-3.7,17.2-14.5,28.4-24.1l20.3-17.5l-5.3-5.6c-2.9-3.1-11.3-11.7-18.6-19.3
		c-7.3-7.5-13.9-15.1-14.6-17c-0.8-1.8-4-6-7.3-9.4c-3.2-3.3-8.5-9.6-11.8-13.9c-7.9-10.3-21.8-24.3-24.8-25
		c-3.3-0.9-8.6,1.5-12.8,5.7c-2.9,2.9-4.9,3.8-13.4,5.7c-5.5,1.3-11.5,3-13.3,3.7c-2,0.8-6.8,1.4-12.2,1.4c-8.4,0-9.2-0.2-11.9-2.8
		c-1.7-1.5-4.8-6.3-7.1-10.7c-4-7.8-16.6-22.5-19.3-22.5c-0.7,0-2-1.9-3-4c-2.3-5-5.2-6.5-14.7-7.9c-15.3-2.1-26-7.5-42.2-21.1
		c-5.4-4.5-9.8-8.4-9.8-8.7c0-0.3,1.3-3.3,2.9-6.7c4.7-10.1,6.3-15.7,6.8-24.7c0.5-8.4-1.5-19.9-3.6-19.9c-0.4,0-2.3,2.1-4.2,4.7
		l-3.4,4.8l-0.7-6c-0.4-3.3-1.2-7.1-1.8-8.5c-1.8-4.1-6.2-10-7-9.5c-0.5,0.3-1.1,2.4-1.5,4.8c-1.2,7.6-2.5,10.5-7,14.6
		c-4.9,4.6-5.4,4.7-9.3,2.7c-4.8-2.5-6.5-5.1-6.4-10.1c0.2-7.9,3-12.2,15.2-23.5c35.4-32.7,40.4-39.2,44.8-58.9l1.7-7.6l8-3.9
		c8.6-4.3,15.2-10.2,18.4-16.3c2-4.1,4.9-15.9,4-16.8c-0.3-0.2-3.8,0.9-7.9,2.6c-12.7,5.4-19.8,2.7-23.4-8.7c-1-3.1-1.6-5.7-1.4-5.9
		s5.1,0.1,10.8,0.7c14.4,1.4,20.5,0.7,28.2-3.3c3.5-1.8,6.5-3.4,6.7-3.6c1-0.7-9.5-12-16.6-17.8c-4.3-3.6-9.5-9.1-11.6-12.2
		l-3.8-5.6l14.9-15.1c16.1-16.4,20.2-21.9,23.7-32.5c6-17.7,4.8-46-2.8-66.2c-14.9-39.6-49-68.2-91.6-76.9
		c-13.7-2.8-34.5-2.8-48.4,0c-7.9,1.6-36.7,9.2-43.3,11.5c-0.6,0.2-3.8-4.2-7.2-9.8c-11-18.6-16-23.4-28.8-27.7
		C361.9,0.5,357.1,0.6,349.2,3.5z"/>
	<path id="path6" class="st1" d="M373.5,10c10,4.8,21.2,18.5,23.6,28.7c1.2,5.4-0.9,8.4-10.3,14.6C370.1,64.2,370.5,64,362,62.9
		c-12.3-1.6-31.9,0.7-43.3,5.2c-6,2.4-7.2,1.6-7.2-4.4c0.1-5.6,2.6-9.1,9-12.3c4-1.9,7.1-2.6,12.4-2.7c5.9-0.2,7-0.5,6.5-1.7
		c-3.3-8.1-5.4-14.4-5.4-16.3c0-7.6,6.9-17.4,15.3-21.7C355.1,6.1,366.3,6.6,373.5,10z"/>
	<path id="path8" class="st2" d="M529,47.3c30,16.7,50.2,43.1,57.6,75.3c2.5,10.6,2.6,33.3,0.2,41.9c-3,10.8-5.8,17.1-9.5,21.5
		c-3.7,4.3-11.6,10-13.9,10c-0.7,0-3.9-2.3-7.1-5.1c-20.8-18.3-47.9-29.8-85.3-36.6c-17.6-3.1-52.6-4.3-68.8-2.4
		c-38.2,4.7-71.7,15.8-106.5,35.5c-9.5,5.3-14.5,7.6-16.9,7.6c-7.2,0-22.3-13-27.4-23.7c-3.9-8.2-4.5-19.2-1.4-28.3
		c4-12.2,15.8-29.9,28-42.1c16.7-16.6,39.7-28.3,64-32.3c7-1.2,10.4-1.3,13-0.6c8.2,2.3,16.6,0.1,31.3-8.4
		c28.6-16.5,50-24.2,73.7-26.6C481.2,30.9,510.5,37,529,47.3z M423.1,78.5c0,2.2,0.6,6.2,1.3,9c1.1,4.1,1.8,5,4.1,5.7
		c3.8,1,5.1-0.2,9.2-8.7c3.8-8,4.1-12.2,1.2-15.9C433.8,62.1,423,68.8,423.1,78.5z M363.3,73c-6.4,3.2-10.9,7.5-11.9,11.6
		c-0.7,2.6,0.2,7.4,1.4,7.4c0.6-0.1,11.8-14,16.1-20.1C370.6,69.5,370.7,69.5,363.3,73z M528.9,72c-0.5,0-1,2.6-1,5.7
		c-0.2,10-0.9,11.5-5.6,13.1c-2.4,0.7-4.3,1.9-4.3,2.6c0,2.3,4.8,6.6,7.3,6.6c5.7,0,8.8-5.3,10.2-17.1c0.7-5.4,0.6-5.7-2.5-8.2
		C531.3,73.2,529.4,72,528.9,72z M304.3,98.2c-2.9-0.3-3.1-0.1-3.7,4.2c-0.9,5.6-5.5,10.1-9.4,9.1c-1.3-0.3-3.7-0.8-5.2-1.1
		l-2.7-0.6l0.7,4.7c0.8,5.3,2,6.5,6.9,6.5c2.9,0,4.5-1,10.2-6.8c6.8-6.8,9-11.2,7.2-14.1C307.7,99.2,305.9,98.4,304.3,98.2z
		 M481,105.5l-5.5-0.7l3.8,3.2c6,5.1,4.6,11.3-3.5,15.7c-2.6,1.4-4.8,2.9-4.8,3.2c0.1,0.3,1.2,1.9,2.5,3.6l2.5,3l4.8-2.6
		c6.7-3.6,8.5-7.5,7.7-16.4c-0.3-3.8-0.9-7.3-1.3-7.6C486.8,106.5,484,105.9,481,105.5z M378,112.2c0,0.5,0.9,2.6,2,4.8
		c2.9,5.7,2.5,8.3-2,13.5c-4.5,5.2-4.8,6.5-2.2,8.8c2.7,2.4,4.7,2.1,8.7-1.4c6.1-5.4,8.3-18.1,3.7-22.2
		C386,113.7,378,110.9,378,112.2z M561.6,130c-0.3,0-0.6,3.1-0.6,6.9c0,12.2-3.1,15.8-6.7,7.7c-1.4-3.4-2.2-4.3-3.3-3.6
		c-1.2,0.8-1.1,1.9,0.8,7.2c3.4,9.3,4.8,11.1,8,10.3c1.5-0.3,3.2-1.3,3.9-2.2c1.5-1.9,6.3-16.1,6.3-18.5c0-0.9-1.8-3-3.9-4.7
		C564,131.4,561.9,130,561.6,130z M312.5,139.5l-3.2-0.3l-3.3-0.3v6c0,5-0.4,6.5-2.6,9c-2.2,2.7-3.1,3.1-5.8,2.5
		c-5.3-0.9-6.3,1.5-2.2,5.5l3.4,3.3l4.6-2.7c2.5-1.5,5.7-4,7.1-5.7c2.3-2.7,2.6-3.8,2.3-10.2L312.5,139.5z"/>
	<path id="path10" class="st3" d="M428.2,69.8l2.4,2.3c4.8,4.5,1.8,14.8-3.5,11.9c-1.2-0.6-2.1-1.8-2.2-2.8c-0.3-3.8,0.3-6.8,1.8-9
		L428.2,69.8z"/>
	<path id="path12" class="st1" d="M456,157.4c23.8,3.2,52.5,11.6,70.5,20.6c13.7,6.8,33.5,21.8,33.5,25.3c0,0.8-1.5,3.1-3.3,5.2
		l-3.4,3.9l-7.9-5c-28.8-18.3-59.3-29.7-93.7-35c-13.7-2.1-47.4-2.4-62.2-0.6c-29.2,3.7-59.2,11.7-90.8,24.3
		c-8.2,3.2-15.8,6.4-16.9,7c-1.2,0.7-1.8,0.7-1.4,0.1c2-3.3,38.7-22.4,56.6-29.5c20.6-8.1,47.5-14.9,67-17
		C413.5,155.7,446.4,156.2,456,157.4z"/>
	<path id="path14" class="st4" d="M408.4,182c2.5,3,6.3,13.6,5.3,14.7c-0.8,0.8-7.6-1.6-12.2-4.2c-4.2-2.4-14.5-12.6-14.5-14.4
		c0-0.5,1-1.2,2.3-1.4C398.1,175,403.8,176.6,408.4,182z"/>
	<path id="path16" class="st1" d="M410,176h14.3c33.9,0,64.2,7.4,95.5,23.5c17.2,8.7,23.6,13.9,29.4,23.7c2.6,4.5,6.5,9,10.7,12.6
		c7.8,6.8,18.1,17,18.1,18.1c0,0.4-1.8,1.6-3.9,2.6c-3.8,1.7-4.8,1.7-21.8,0c-14-1.3-18.4-2.1-20.5-3.6c-3.5-2.4-3.5-2.4-4.3,1.1
		c-0.4,1.6-1,3-1.4,3c-0.3,0-4.2-3.7-8.6-8.1c-6.3-6.4-7.5-8-5.5-7.6c10.3,2.3,49.2,8.8,49.7,8.4c2.5-2.6-4.6-4.6-41.1-11.7
		c-8.7-1.7-20.1-4.5-25.3-6.1c-26.6-8.5-51.9-24.5-78.6-49.5L410,176z"/>
	<path id="path18" class="st5" d="M378.8,179.1c0.7,1.8-8.4,22.7-12.9,29.3c-2.7,4-11.6,14.3-19.8,22.9
		c-17.3,18.1-20.2,22.8-20.8,34c-0.4,6.1-0.1,7.9,1.9,11.6c3.2,6.2,7.5,8.4,15.3,7.8c3.3-0.3,7.1-0.8,8.4-1.3
		c2.3-0.7,2.4-0.6,1.9,4.8c-0.7,9.2-5.6,16.8-13.8,21.6c-3.9,2.4-5.6,2.7-13,2.7c-7.3,0-9.3-0.4-14.2-2.8c-7-3.5-13-10-15.9-17.6
		c-4.3-11-2.3-28.4,4.7-42.4c2.4-4.6,12.9-20.5,18-27.3c4.9-6.3,0.2-3.5-8,4.8c-12.2,12.4-20.3,29.5-22.6,47.4
		c-2.9,22.8,10.1,40.9,32.2,44.6c5.3,1,7.6,0.8,13.9-0.6c9.1-2.2,6.6-3.2,29.5,12.4c19.3,13.2,30.9,23.5,29.8,26.3
		c-0.9,2.4-3.4,1.8-11-2.8c-7.3-4.4-11.1-5.5-19.5-5.5c-5,0-7.7,0.6-11.7,2.6c-8.8,4.4-13.6,11.3-17,24.8c-2.6,9.8-4.1,12-9.7,14.2
		c-2.5,0.9-4.4,2.2-4.2,2.8c0.2,0.6,1,2.8,1.7,4.8l1.4,3.7l-7.5,7.8c-13.1,13.8-21.1,27.5-38.3,66c-4.7,10.6-8.6,19.6-8.6,20.1
		c0,0.4-1.3,2.9-3,5.5c-4.7,7.4-8.1,6.5-23.2-6.5c-5.5-4.7-12.8-13.6-12.8-15.5c0-0.5,5.6-3.6,12.4-6.9c8.1-3.8,12.5-6.5,12.5-7.5
		c0.1-2.4-0.8-2.9-3.5-1.9c-1.4,0.6-5.4,1.4-9,2c-13.5,2.2-25.6-2.2-35.8-13.1c-9.6-10.1-11.6-18.5-7-28.3l1.7-3.4l5.8,4.3
		c3.3,2.4,8.2,5.1,11,6c7.2,2.4,18.5,1.6,25.9-1.8c5.3-2.5,5.4-2.5,2.2-2.6c-5.6-0.2-18.5-3.1-23.7-5.5c-6.6-3-11.8-7.6-15-13.3
		c-2.6-4.7-6-15.1-5.3-15.9c0.3-0.2,3.8,1.1,7.9,3c4.1,1.9,9.9,3.9,12.9,4.4c17.6,3.2,31.2-9.8,28.6-27.3
		c-0.8-4.9-4.7-18.6-11.9-41.5c-9.2-29.4-10-47.3-3.1-68c2.7-8,8.8-19.5,13.2-24.7l2.7-3.2l5.5,1.5c9.8,2.7,20.6,0.2,28.2-6.5
		c3.3-2.9,9.8-11.8,9.8-13.5c0-0.4-3.3,2.1-7.2,5.5c-7.9,6.6-15.7,10.9-20.1,10.9c-4.2,0-11.7-4-13.9-7.4c-1.4-2.3-1.8-4.4-1.5-8.4
		c0.5-7.2,1.6-8,6.5-4.7c6,4,10.6,4.2,16.7,0.9c28-15.5,63.5-27.8,94.5-32.8C375.1,178.9,378.6,178.7,378.8,179.1z"/>
	<path id="path20" class="st6" d="M382.5,184c0.2,0,2.8,2.4,5.9,5.4c5.9,5.6,16.2,11.7,23.3,13.5c3.3,0.9,5.4,2.6,10.3,8.2
		c8.5,9.9,15.3,15.4,23.8,19.6c8.7,4.2,30.2,9,30.2,6.7c0-0.3-1.4-2.6-3.1-5c-1.7-2.5-2.9-4.7-2.7-4.9c0.3-0.3,35.9,22.3,37.3,23.7
		c0.4,0.4-0.2,3.3-1.3,6.5c-3.4,9.9-4.3,17.3-4,35.4l0.3,17.4l-3,5.4c-6.2,11.1-12.4,14.4-59,31.2c-12.6,4.5-23.1,8.4-23.3,8.5
		c-0.2,0.1,1.3,2.3,3.2,4.9c3.9,5.1,4.1,5.7,2.6,8.6c-0.8,1.5-2.2,1.9-6.1,1.9c-9.4,0-16.6-5.7-20-15.7c-3-9.1-7-13.8-16.4-19.1
		C373,332,348,314.4,348,313.4c0-0.2,1.2-2.3,2.7-4.6c7-11.2,9.5-21.6,7.3-30.7c-1.3-5.5-2-6-4.1-3.4c-2.4,2.8-9.8,5.5-13.4,4.9
		c-9.8-1.9-12.9-13.8-6.8-25.9c2.4-4.9,4.3-6.9,23.6-25.6c5.9-5.7,12.3-12.9,14.4-15.9c4.7-7.2,9.1-17.4,9.9-23.5
		C382,186.1,382.4,184,382.5,184z M386.8,232c-16.2,6.2-18.5,8.5-28.2,27.7l-2.6,5.2l5.3,1.9c2.8,1.1,9.5,3.4,14.9,5.2l9.6,3.3
		l3.4-1.9c4.8-2.8,6.7-7.5,7.4-18.5c0.4-6.7,1.1-10.3,2.5-12.7c2.1-3.7,1.8-5.2-1.3-5.2c-2.1,0-2.1-0.9-0.2-7.3
		C398.3,227.5,398.2,227.5,386.8,232z M493.1,254.1c-3.4,0.2-17.2,5.7-20.5,8.2c-4.4,3.4-8.6,11.9-9.3,19c-0.5,5-0.3,5.8,1.9,8
		c3,3,9.2,4,21.3,3.5c7.9-0.3,8-0.3,7.6-2.8c-0.8-4.3-0.4-9.2,1.6-18c1.7-7.7,1.8-8.9,0.4-13.3C495.2,255.6,494.1,254,493.1,254.1z
		 M399.4,300c-1.6,0.1-6.4,3.4-6.4,4.5c0,0.5,1.6,2,3.4,3.2c2.1,1.3,4.7,4.7,6.7,8.4c5.7,10.6,13.6,16.9,21.4,16.9
		c1.8,0,31.5-16.7,33.9-19c1.4-1.4-9-0.1-14.9,1.7c-6.8,2.2-16.8,1.9-23.9-0.8c-4.1-1.5-7.8-4-12.6-8.5
		C403.3,302.9,399.9,300,399.4,300z"/>
	<path id="path22" class="st7" d="M385.4,241c1.8,0,5.3,4,6.6,7.5c2.4,6.4-1,18.6-6.1,21.8c-1.9,1.2-10.9-1.1-10.9-2.8
		c0-0.5,1.9-2.8,4.1-5c4.1-4,4.1-4,3.5-9.7c-0.3-3.1-0.1-7,0.5-8.7S384.7,241,385.4,241z"/>
	<path id="path24" class="st7" d="M489,266c2.8,2.8,2.5,9.2-0.8,16c-2.4,4.8-3.1,5.5-6,5.8c-3.8,0.4-3.9-0.4-1.1-5.3
		c1.8-3,2.1-4.6,1.6-9.8c-0.4-5-0.2-6.3,1.1-7.4C486.1,263.6,486.7,263.7,489,266z"/>
	<path id="path26" class="st4" d="M444.3,212c12.4,9.6,22.6,18.1,22.7,18.9c0,0.9-0.8,1.2-2.8,0.8c-11.1-2.2-26.6-11.6-34.3-20.9
		c-4.3-5.1-9.9-14.4-9.9-16.4C420,193.3,421.4,194.4,444.3,212z"/>
	<path id="path28" class="st5" d="M514.5,258c0.6,0,2.5,2.4,4.3,5.2c1.8,2.9,4.1,6.4,5.1,7.7l1.8,2.4l2.9-7.4c1.5-4.1,3-7.6,3.2-7.9
		c1-1.3,3,3.5,3.6,8.6c0.8,7.1,3.8,12.9,7.9,15.4c3.6,2.2,11.9,2.7,17.6,1c1.9-0.5,3.6-0.8,3.9-0.6c0.8,0.8-4.1,9-7.8,13
		c-4.2,4.5-10.7,8.3-16.1,9.2c-8.3,1.4-7.9,1-7.3,5.7c0.8,5.6-2.9,16.9-8.6,26.7c-4.8,8.3-18.2,22.3-36.5,38
		c-16.2,14.1-19.5,20.2-16,30c5.2,14.7,22.3,17.2,30.5,4.4c1.5-2.5,3.1-4.1,3.4-3.6c0.2,0.4-0.6,3.7-1.8,7.3c-1.3,3.5-2.7,7.8-3,9.5
		l-0.7,3.2l9.7-3.9c5.3-2.2,9.8-3.8,10-3.6c0.2,0.2-1.7,6.8-4.1,14.8C514,441,512,448,512,448.7c0,2.5-2.4,1.3-11.4-5.6
		c-11-8.4-17.9-15-26.9-25.5c-5.8-6.9-6.7-8.4-6.7-11.9c0-3-0.6-4.5-2.9-6.6c-3.3-3.1-5.1-8.4-5.1-15.1c0-14.6-9.1-23.1-25.1-23.4
		c-15.2-0.4-12.4-2.4,18.1-13.1c30.6-10.8,39.4-14.9,45.5-21c8.2-8.2,9-11,9.1-33.5c0-20.2,0.2-21.4,5-31.3
		C512.6,259.7,513.9,258,514.5,258z"/>
	<path id="path30" class="st8" d="M374.4,355.1c2.1,0.6,5.7,2.8,8.1,5c3,2.8,5.6,4.2,9.1,4.8c2.7,0.6,8.9,3,13.7,5.5
		c12.3,6.4,18.6,6,24.6-1.4c1.7-2.1,4-4.1,5-4.5c3-0.9,11.7,3.3,15.2,7.2c4,4.6,4.8,7,5.4,16c0.4,5.9,1,8.5,2.9,11.3
		c1.6,2.4,2.1,4.2,1.6,5.1c-0.7,1-1.5,0-3-3.6c-4.2-10.2-6.5-13.8-10.2-16.3c-2.1-1.4-4-2.3-4.2-2.1c-0.2,0.2-1.1,1.9-2,3.7
		c-1.7,3.3-1.8,3.4-7.4,2.9c-3.1-0.3-6.9-0.8-8.4-1.2c-2.4-0.6-3-0.3-4.5,2.4c-1,1.7-2.1,3.1-2.5,3.1c-0.3,0-2-1.1-3.6-2.5
		c-1.7-1.4-3.4-2.5-3.9-2.5c-1.4,0-5.6,10.1-5.7,13.9c-0.1,3,0.7,4,6.2,8.8c3.5,2.9,6.7,5.1,7.1,4.9c0.5-0.3,1.4-2.6,2.1-5.1
		c0.7-2.5,1.4-4.5,1.5-4.5c0.2,0,2.3,1.1,4.6,2.5c5.8,3.3,7.5,3.1,11.6-1c1.9-1.9,3.7-3.5,3.9-3.5c0.2,0,1.5,1.9,3,4.1l2.6,4.2
		l2.5-4.2c1.4-2.3,2.7-4.1,2.9-3.9c0.3,0.3,8.4,30.2,8.4,31c0,0.2-6.6,0.2-14.7,0c-12-0.3-16.7,0-24.8,1.7c-9.5,2-24,6.4-35.2,11
		L381,450l-0.5-2.3c-0.9-4.2-4.5-30.2-4.5-33.1c0-2.1,1.6-4.5,7-10.1c6.2-6.3,6.9-7.4,5.5-8.5c-1.3-1-1.9-1-3.3,0.2
		c-0.9,0.8-7,6.1-13.5,11.7c-11.6,10.2-11.8,10.3-15.8,9.7c-8.7-1.4-19.7-9.1-26-18.2l-2.9-4.2l3.3-2.1c4.2-2.6,5.3-4.5,7.7-13.8
		c3.4-12.7,9.6-20.6,18.6-23.8C361.3,353.8,369.1,353.6,374.4,355.1z"/>
	<path id="path32" class="st9" d="M444,390c1.2,0,6,5.9,6,7.4c0,2-4.1,6.9-5,5.9c-1.4-1.6-3.1-9.4-2.5-11.3
		C442.9,390.9,443.5,390,444,390z"/>
	<path id="path34" class="st9" d="M415,396.7c4.7,3.4,5.3,5.2,2.9,9.2c-2.3,3.8-2.9,3.8-6.3,0.5c-2.8-2.8-3.4-7-1.5-10.5
		C411.1,394,411.2,394,415,396.7z"/>
	<path id="path36" class="st9" d="M434.9,395.9c0.2,0.8-0.2,1.7-0.8,1.9c-0.6,0.2-1.1,2.2-1.1,4.4c0,3.9-0.1,4-2.7,3.4
		c-3-0.7-8.3-6.1-8.3-8.4c0-1.1,0.9-1.3,3.3-0.9c1.8,0.3,4.6-0.1,6.2-0.7C434.1,394.5,434.6,394.6,434.9,395.9z"/>
	<path id="path38" class="st6" d="M327.5,406.8c1,0.6,17.7,12.2,18.3,12.7c0.2,0.2-3.1,4.1-7.4,8.8c-10.2,11.3-17.6,21.9-34.1,48.6
		c-19.6,31.7-17.6,26.6-17.7,46.2v16.7l-4-3.4c-2.2-1.9-4.2-3.4-4.6-3.4c-0.3,0-2.8,3.8-5.5,8.5c-2.7,4.7-5.2,8.5-5.6,8.5
		c-0.4,0-2-1.1-3.6-2.4c-2.4-2.1-2.9-2.2-3.8-0.9c-0.9,1.2-1.6,0.5-3.4-3.8c-1.6-4.1-2.4-5-3.1-3.9c-1.1,1.7-1.2,1.6-3.9-3.7
		c-3.3-6.6-2.8-8.6,3.6-14.5c16.5-15.4,18.3-18.3,32.8-51.3c12.4-28.2,18.4-37.6,39-61C325.6,407.3,327,406.5,327.5,406.8z"/>
	<path id="path40" class="st0" d="M375.7,448.5c0.4,10.8,0.1,14.8-1.7,23.4c-3.6,17.6-9.2,30.3-21.1,48.2c-8,12-11.9,15.9-15.7,15.9
		c-2,0-9.3-3.2-19.6-8.5c-13.6-7-17.3-8.5-21-8.5c-5.7,0-8.6-2.5-8.6-7.3c0-2.6,3.5-8.5,17.2-28.8c16.7-24.8,35.9-51.1,42.1-57.7
		c3-3.1,3.3-3.2,11.8-3.2c9.2,0,9.9-0.4,9.9-5.4c0-1.3,0.3-2.6,0.8-3C371.5,411.9,375.1,433.3,375.7,448.5z"/>
	<path id="path42" class="st6" d="M463.3,413c0.3,0,2.8,2.9,5.6,6.4c10.5,13.5,26.5,27.8,49.6,44.6c28.1,20.3,28.5,20.6,47,24.6
		c4.4,0.9,9,2.3,10.2,3.1c2.3,1.6,4.8,7.3,3.6,8.3c-0.5,0.4-3.8,0.4-7.5,0.1c-3.8-0.4-6.8-0.4-6.8-0.1c0.1,0.3,1.4,3,3,6
		c3.7,6.8,3.7,8,0.3,8c-3.4,0-20.4-11.7-25.4-17.5c-2-2.3-6-5-9.9-6.8c-10.9-4.9-54.1-29.8-58.2-33.5c-2.2-2-4.6-4.9-5.4-6.5
		c-1.5-2.9-5-20.4-6.1-31C463,415.6,463,413,463.3,413z"/>
	<path id="path44" d="M221.3,426.6c1,0.3,1.5,0.9,1.2,1.2c-0.3,0.3-1.1,0-1.8-0.7C219.8,426.1,219.9,426,221.3,426.6z"/>
	<path id="path46" class="st8" d="M448.2,441.4c13.2,0.2,13.6,0.5,15.5,16.2c0.7,6.6,2.4,23.1,3.7,36.9l2.3,25l2.7-5.9
		c1.5-3.3,3.1-5.5,3.6-5c0.4,0.5,3.4,6.5,6.5,13.4c9.9,21.9,20.6,41.3,29.8,53.9c4.5,6.1,4.3,8-1.6,12.5c-4.7,3.6-9.2,5-25.8,8
		c-17.3,3.2-25.3,5.5-37.9,10.9c-16.9,7.2-30.2,6.2-50.3-3.9c-11.8-6-20.5-8.9-34-11.5c-12.6-2.4-20.2-4.9-26.4-8.4
		c-4.6-2.8-14.3-13.6-14.3-16.1c0-0.8,3.7-5.4,8.3-10.2c11.9-12.7,30.5-38.8,37.7-53.2c5.4-10.8,7.8-18.3,10.4-32.6
		c1.7-9.5,3.1-14.3,4.3-15.5c2.2-2.1,20.4-9,29.8-11.4c3.9-1,11.3-2.1,16.5-2.5C434.2,441.6,442.9,441.3,448.2,441.4z"/>
	<path id="path48" class="st0" d="M485.5,473.3c6.3,0.2,7.7,0.7,13.5,4.3c3.6,2.2,10.1,5.5,14.5,7.3c4.4,1.8,11.6,5.5,16,8.1
		c9.5,5.8,22.5,16.5,22.5,18.6c0,2.4-15.5,33.8-17.6,35.5c-2,1.7-15.4,3.9-23.4,3.9c-7.8,0-9.9-2.1-17.4-17.6
		c-14.2-28.9-18.5-40.4-20-52.5c-0.7-5.6-0.7-5.7,2.1-6.8C477.2,473.5,481.7,473.2,485.5,473.3z"/>
	<path id="path50" class="st10" d="M585.7,510c1.3,0,12.3,14.6,12.3,16.4c0,2.3-8.5,9.9-13.8,12.3c-5.2,2.4-28.8,7-30,5.8
		c-0.6-0.5,3.9-19.1,5.8-24.1c1.2-3.1,5.1-4.7,8.6-3.3c3.4,1.2,7.7-0.2,12.4-4.1C582.9,511.4,585,510,585.7,510z"/>
	<path id="path52" class="st11" d="M673,521.2c1,0.2,6.7,6,12.6,12.9c6,6.9,22.2,25.5,35.9,41.3c13.8,15.8,25,29.2,25,29.9
		c0,1.5-48.7,44.7-50,44.3c-1.7-0.5-4.2-13.3-12.4-62.9l-7.9-47.7l-3.5-3.9c-2-2.2-4.3-5.2-5.3-6.6c-1.8-2.7-1.8-2.8,1-5.2
		C670,522,672,521,673,521.2z"/>
	<path id="path54" class="st0" d="M289.8,524h5.9c4.3,0,7.3,0.7,11.8,2.9c4.9,2.3,19.3,10.4,26.5,15c1.2,0.7,0,2.4-6.1,8.8
		c-4.2,4.3-8.6,9.1-9.7,10.7c-6,7.9,1,21.2,14.3,27.2c2.7,1.2,12.9,3.9,22.5,5.9c17.2,3.6,24.7,6,28.1,9.1
		c4.3,3.8,2.9,15.5-2.2,19.8c-1.5,1.3-16,9.2-32.1,17.6s-31,16.2-33,17.3c-2.1,1.1-4,1.8-4.3,1.5c-0.5-0.5,3-11.3,15.4-46.7
		c4-11.2,7-20.5,6.8-20.7c-0.2-0.2-8.4-3.4-18.3-7c-19.5-7.1-22-8.4-23.4-11.7c-0.5-1.2-3.4-7.8-6.4-14.7c-5-11.4-7.4-18-6.5-18
		c0.2,0,2.9,0.7,5.9,1.5c7.1,1.9,7.1,1.9,6.6-0.8c-0.3-1.2-0.8-5.7-1.1-10L289.8,524z"/>
	<path id="path56" class="st10" d="M242.5,535.1c0.6,0,2.8,2.7,5,6.2c5,7.7,10.8,12.2,17.8,13.7l5.4,1.2l-0.9,5.2
		c-0.5,2.8-1.3,5.4-1.6,5.8c-1,1-44.2-15.3-44.1-16.6c0-0.6,4-4.3,8.7-8.3C237.6,538.4,242,535.1,242.5,535.1z"/>
	<path id="path58" class="st12" d="M179.9,537c0.3,0,15.5,11.5,21.4,16.3l2.9,2.3l-1.8,3.7c-1.8,3.7-1.8,3.8,0.5,6
		c2.2,2.1,2.3,2.1,3.4,0.3c3.9-6.2,2.3-6.8,26.2,11.1l22,16.4l-0.3,4.8c-0.4,6.2,1.7,7.4,5.1,3l2.3-3l12.7,8.6l12.6,8.7l-20.1,30.1
		c-11.1,16.5-23.5,35.1-27.8,41.3l-7.6,11.2l-19-13.2c-10.5-7.2-36-24.8-56.6-39l-37.6-25.9l18-24.1c9.9-13.3,23.6-31.8,30.6-41.3
		C173.8,544.8,179.7,537.1,179.9,537z M228.1,641.1c-4.9,1-9.9,4.4-13.3,9.1c-1.9,2.8-2.3,4.6-2.3,10.9c0,4.5,0.6,8.6,1.3,10.1
		c1.9,3.4,7.3,5.8,13.1,5.8c5.5,0,11.7-3.8,15.2-9.3c2.9-4.6,2.2-13.3-1.7-21.2C237.2,639.9,236.2,639.4,228.1,641.1z"/>
	<path id="path60" class="st13" d="M230.7,646.5c4,1,5.3,2.4,5.3,5.5c0,3.4-2.2,5.6-3.7,3.8c-1.6-2-4.3-7.6-4.3-8.9
		C228,646.2,228.9,646,230.7,646.5z"/>
	<path id="path62" class="st13" d="M220.8,649c0.4,0,2.6,2.3,5,5c4,4.6,4.7,5,8.8,5c4,0,4.4,0.2,4.4,2.4c0,2.9-3.3,7.2-7,9.1
		c-3.9,2-10.4,1.9-12.5-0.2c-4.1-4-4.9-14.3-1.4-18.7C219.2,650.2,220.4,649,220.8,649z"/>
	<path id="path64" class="st12" d="M670,539.7c0,0.9,17.5,98.2,21.9,121.8c1.6,8.2,2.6,15.3,2.2,15.6c-2,2.1-165.6,32.9-174.5,32.9
		c-0.9,0-1.8-3.3-2.8-10.5c-1.4-10.2-1.4-10.5,0.6-11.8c1.9-1.3,1.9-1.4-0.7-5.2c-2.5-3.7-2.6-4.2-2-14.9c0.5-9.9,0.2-12.2-2.1-21.1
		c-1.7-6.5-3.2-16.7-4.3-28.9l-1.7-18.8l2.6-2.2c1.5-1.1,5-3.9,7.9-6.1c8.7-6.8,8.9-10,0.9-19.1c-2.8-3.2-4.9-5.8-4.8-6
		c0.7-0.6,23.7-4.4,27-4.4s4.1,0.5,6.8,4.6c1.8,2.5,3.7,4.3,4.3,4.1c0.7-0.2,1.3-2.5,1.5-5.1c0.3-4.2,0.6-4.8,3.5-6.1
		c5.5-2.4,55.2-10.3,58-9.2c0.8,0.3,2.3,2.8,3.3,5.6c1.5,4.2,2.2,5.1,4.2,5.1c2.3,0,2.4-0.2,1.8-4.3c-0.4-2.3-0.9-5.2-1.2-6.4
		c-0.5-1.9-0.1-2.2,3.8-2.8c6.2-0.9,6.3-0.9,6.8,3c0.6,4.6,2.3,4.6,3.1,0c0.3-2,1-4,1.5-4.5s5.9-1.6,11.9-2.5
		c6.1-0.9,12.6-2,14.5-2.5C668.7,538.9,670,538.9,670,539.7z"/>
	<path id="path66" class="st11" d="M164.7,548.4c0.5,0.4-23.3,33.2-24.8,34.1c-0.5,0.4-0.9,0-0.9-0.7c0-1.4,11.5-36.2,12.5-37.8
		C151.9,543.3,163.4,547.1,164.7,548.4z"/>
	<path id="path68" class="st11" d="M290.4,596c1.2,0,24.2,8.4,25,9.1c0.4,0.4-3.5,13.9-8.8,30.1c-5.2,16.1-11.5,35.4-13.9,42.8
		c-15.9,48.8-22,67-22.4,67c-0.3,0-8.1-2.9-17.2-6.4s-24.9-9.5-35.1-13.4c-42.3-16.1-71.8-27.4-76-29.1c-2.5-1-12.7-4.9-22.8-8.7
		c-10-3.8-18-7.4-17.8-7.9c0.3-0.6,4.6-11.6,9.6-24.5c5-12.9,9.5-24,9.9-24.7c1.2-2.3,51.5,31.5,85.5,57.5
		c10.3,7.9,20.3,15,22.2,15.8c4.4,1.8,9.6,1.8,14.1-0.1c6.6-2.8,5.9-1.9,23.6-31c24.1-39.7,37.7-62.3,38.2-63.7
		c0.5-1.1-1.5-3.1-6.9-6.8c-4.2-2.9-7.6-5.4-7.6-5.6C290,596.2,290.2,596,290.4,596z"/>
	<path id="path70" class="st11" d="M500.5,599c1.6,0,2.1,2.4,3.5,17.5c0.5,6,2.6,28,4.5,48.9c4.1,43.9,4,42.2,2.1,40.7
		c-3.5-2.9-5.4-10.7-7-28.6c-3.7-41.2-5.7-69.3-5.1-73.8C499,600.7,499.7,599,500.5,599z"/>
	<path id="path72" class="st12" d="M297,611.1c0,0.9-33.9,57.4-46.5,77.6c-3.9,6.2-10.8,11.5-12.5,9.7c-0.5-0.5,3.2-6.8,8.2-13.9
		c34.8-49.9,45.4-65.5,47.2-69.7C295.4,610.3,297,608.6,297,611.1z"/>
	<path id="path74" class="st14" d="M407.3,613.8c9,3.1,22,3.9,32.2,2.2c6-1,7.8-1,9,0c1.7,1.4,1.9,2.2,9.5,31
		c8.1,30.8,14.9,44.8,40.1,83.6l12.1,18.8l-0.7,13c-0.4,7.2-1,16.5-1.5,20.6c-0.8,7.4-0.9,7.6-6,12.1c-12,10.9-33.5,17.4-39,11.9
		c-2.6-2.6-13.9-25.3-18.9-37.8c-7.9-19.9-16.3-49.9-24.6-88.1c-1.8-8.6-5.5-22.4-8.1-30.6c-5.1-16.4-11.4-37.6-11.4-38.5
		C400,611.6,403.3,612.5,407.3,613.8z"/>
	<path id="path76" class="st14" d="M389.9,628.1c0.2-0.1,2.5,1.5,5,3.4c4.8,3.5,5.9,5.9,10.8,23.8c0.7,2.5-0.2,3.4-19.7,19.1
		c-20.4,16.4-28.3,24.1-44.3,42.8c-12.4,14.5-17.1,18.5-25.3,21.2c-2.8,0.9-8.6,3.9-13,6.6l-7.9,4.9l-3.8-3.8l-3.8-3.7l4.6-16.3
		c2.5-9,6.1-22.8,8-30.7c1.9-7.9,4.3-16.1,5.4-18.2c2.8-5.6,8.2-9.8,18.3-14.7c6.3-3,9.4-5.2,11.1-7.6c1.6-2.4,4.2-4.1,9.7-6.4
		c4.1-1.7,9.5-4.4,12-6c5.5-3.5,23.4-11.5,25.8-11.5c0.9,0,2.8-0.7,4.2-1.4C388.4,628.8,389.7,628.2,389.9,628.1z"/>
	<path id="path78" class="st11" d="M647.9,691.7c0.7,0.5-0.1,1.2-22.2,19.2c-10.8,9-20.1,16.1-20.6,15.9c-1-0.4-20.2-22.1-19.8-22.4
		c0.2-0.2,10.6-2.4,23.2-5c12.7-2.6,26.6-5.4,31-6.3C643.9,692.2,647.7,691.6,647.9,691.7z"/>
	<path id="path80" class="st14" d="M580.6,751.5c9.2,14.5,8.5,29.1-2.2,42.2c-4.6,5.6-18.1,16.3-27.4,21.8
		c-4.1,2.4-12.9,6.2-19.6,8.4c-6.6,2.2-14.3,5-17,6.2c-9.6,4.2-18.8,6.9-23.3,6.9c-8.5,0-19.5-7.1-23.7-15.1c-2-4-1.2-5.9,2.5-5.9
		c5.2,0,41.4-20.4,42.6-23.9c0.3-0.9,0.9-8,1.4-15.7c1.6-23.9,3.6-28.4,11.2-25.5l2.6,0.9l-1.7,10.9c-2.9,18.1-3,19.3-1.4,19.3
		c2.7,0,8-2.7,11.7-5.9c5.2-4.6,7.1-10.4,6.3-19c-0.5-4.5-0.3-7.8,0.4-9.1c1.6-2.9,8.5-7,13.3-7.9
		C565.9,738.4,574.9,742.7,580.6,751.5z"/>
	<path id="path82" class="st14" d="M337.5,745.6c0.6,3.1,0.5,3.2-3.7,3.8c-2.4,0.4-6.6,1.7-9.3,3c-5.5,2.5-17.5,13-17.5,15.2
		c0,1.8,5.2,4.4,8.9,4.4c4.2,0,12.6-3.3,19.1-7.5c3-1.9,6.4-3.5,7.5-3.5c2.5,0,7.5,5.1,10,10c1,1.9,2,6.5,2.3,10.2
		c0.4,5.8,0.1,7.5-2.2,12.2c-6.6,13.5-24.4,22.4-39.3,19.6c-20.5-3.7-47.4-27.7-56.4-50.1c-2.3-5.7-4.9-14.5-4.9-16.7
		c0-1.9,4-1.4,9.5,1.1c9.3,4.3,13.2,4.2,18.3-0.5c2.5-2.4,1.3-3.1,12,6.5l5.2,4.8l5.8-5.1c7.2-6.5,12.3-9.5,19.2-11.4
		C332.4,738.8,336.3,739.8,337.5,745.6z"/>
	<path id="path84" class="st8" d="M337.8,755.8c0.4,1.3-21.5,12.5-22.9,11.6c-2.4-1.4,9.3-10.2,16-12
		C336,754,337.2,754.1,337.8,755.8z"/>
	<path id="path86" class="st8" d="M295.5,812c1.7,0,22.4,6.5,23.1,7.3c0.4,0.4-1.3,0.7-3.9,0.7c-5.1,0-13.8-2.9-17.7-6
		C295.6,812.9,295,812,295.5,812z"/>
	<path id="path88" class="st8" d="M554,820.9c0,2.1-18.6,11.9-31,16.3c-8.4,2.9-17.2,4.8-16.8,3.6c0.2-0.6,7.8-4.1,16.8-7.8
		c21.7-8.7,27.3-11.2,28.5-12.2C552.7,819.7,554,819.8,554,820.9z"/>
	<path d="M369.4,3c12.8,4.3,17.8,9.1,28.8,27.7c3.4,5.6,6.6,10,7.2,9.8c6.6-2.3,35.4-9.9,43.3-11.5c13.9-2.8,34.7-2.8,48.4,0
		c42.6,8.7,76.7,37.3,91.6,76.9c7.6,20.2,8.8,48.5,2.8,66.2c-3.5,10.6-7.6,16.1-23.7,32.5l-14.9,15.1l3.8,5.6
		c2.1,3.1,7.3,8.6,11.6,12.2c7.1,5.8,17.6,17.1,16.6,17.8c-0.2,0.2-3.2,1.8-6.7,3.6c-7.7,4-13.8,4.7-28.2,3.3
		c-5.7-0.6-10.6-0.9-10.8-0.7s0.4,2.8,1.4,5.9c3.6,11.4,10.7,14.1,23.4,8.7c4.1-1.7,7.6-2.8,7.9-2.6c0.9,0.9-2,12.7-4,16.8
		c-3.2,6.1-9.8,12-18.4,16.3l-8,3.9l-1.7,7.6c-4.4,19.7-9.4,26.2-44.8,58.9c-12.2,11.3-15,15.6-15.2,23.5c-0.1,5,1.6,7.6,6.4,10.1
		c3.9,2,4.4,1.9,9.3-2.7c4.5-4.1,5.8-7,7-14.6c0.4-2.4,1-4.5,1.5-4.8c0.8-0.5,5.2,5.4,7,9.5c0.6,1.4,1.4,5.2,1.8,8.5l0.7,6l3.4-4.8
		c1.9-2.6,3.8-4.7,4.2-4.7c2.1,0,4.1,11.5,3.6,19.9c-0.5,9-2.1,14.6-6.8,24.7c-1.6,3.4-2.9,6.4-2.9,6.7c0,0.3,4.4,4.2,9.8,8.7
		c16.2,13.6,26.9,19,42.2,21.1c9.5,1.4,12.4,2.9,14.7,7.9c1,2.1,2.3,4,3,4c2.7,0,15.3,14.7,19.3,22.5c2.3,4.4,5.4,9.2,7.1,10.7
		c2.7,2.6,3.5,2.8,11.9,2.8c5.4,0,10.2-0.6,12.2-1.4c1.8-0.7,7.8-2.4,13.3-3.7c8.5-1.9,10.5-2.8,13.4-5.7c4.2-4.2,9.5-6.6,12.8-5.7
		c3,0.7,16.9,14.7,24.8,25c3.3,4.3,8.6,10.6,11.8,13.9c3.3,3.4,6.5,7.6,7.3,9.4c0.7,1.9,7.3,9.5,14.6,17
		c7.3,7.6,15.7,16.2,18.6,19.3l5.3,5.6l-20.3,17.5c-11.2,9.6-24,20.4-28.4,24.1c-10.7,8.8-11.3,10.3-8.5,21.6
		c1.1,4.8,2.1,9.7,2.1,10.8c0,2.4,0.2,2.3-15,4.8c-25.9,4.4-27,4.9-63.2,35.3c-8.1,6.7-16,12.9-17.5,13.7c-7.5,4-17.3,0.4-22.9-8.3
		c-9.5-15.1-19.4-18.9-37.4-14.2c-4.7,1.2-12.5,2.8-17.5,3.6c-10.4,1.5-14.1,0.9-20.2-3.5c-6-4.4-8-9.5-8.7-22.6
		c-2.3-40.6-3.7-57.5-4.8-60.3c-0.6-1.5-1.4-8.6-1.7-15.7c-0.5-10.1-0.9-12.9-1.9-12.7c-7.2,1.5-36.8,8.5-37.1,8.8
		c-0.5,0.5,13.2,48.6,17.6,61.4c7,20.7,15.6,36.5,34.4,63c3.7,5.3,7.9,10.1,9.3,10.8c1.5,0.7,4.9,1.2,7.5,1.2c2.7,0,6.5,0.7,8.5,1.5
		l3.6,1.5l3.6-4c5-5.5,14.3-10,20.9-10c8.7,0,14.4,2.3,20.2,8.2c15.5,15.8,20.6,37.6,12.4,53.6c-5.6,11-18.5,22.3-34.8,30.5
		c-14.9,7.6-52.9,21.7-58.1,21.7c-7.9,0-23.2-7.9-31.3-16.2c-4.3-4.4-8.9-12.8-8.9-16.3c0-1.1-2.3-5.3-5-9.4
		c-13-19.4-20.5-38.6-30-76.2c-4.5-18-13-58.1-13-61.8c0-0.9-0.4-2.2-0.9-3c-0.7-1.1-2.6,0.1-8.8,5.6c-4.3,3.8-14.5,12.6-22.8,19.4
		c-16.6,13.7-30.7,27.5-37.3,36.1l-4.3,5.6l2.6,9.3c3.3,11.7,3.7,12.5,9.4,17.5c2.5,2.3,6.2,6.8,8.1,10c3.2,5.3,3.5,6.5,3.5,13.4
		c0,5.7-0.6,8.5-2.2,11.6c-5.6,10.6-18.6,22.9-30.1,28.6c-5.5,2.7-7.5,3.2-14.2,3.2c-7.1,0-8.6-0.4-15.6-3.8
		c-6.1-3.1-9.7-5.9-17.8-14c-18.5-18.5-30.3-37.2-36-57c-1.4-5-3.2-9.4-3.8-9.9c-3.5-2.4-6.6-3.6-101.8-39.5
		c-23.4-8.8-43.2-16.3-44.2-16.7c-1.4-0.5-0.1-4.3,8.9-26.3c5.8-14.1,10.8-27,11.1-28.5c0.3-2.1-0.2-3.5-2.3-5.7l-2.7-2.8l6.6-8.1
		c10.1-12.5,15.4-24.4,25.6-58.1c4.6-15.5,6.3-18.3,11.1-19c2.7-0.4,4-1.4,6.4-5.2c1.7-2.6,3.6-4.8,4.3-4.8s3.9,1.1,7.2,2.5
		c7.8,3.3,11.4,3.2,14.5-0.1c1.4-1.5,2.5-3.1,2.5-3.5c0-1.8,2-0.8,8.4,4.1c10.8,8.1,18.7,8.1,35.2,0c7.7-3.7,12.2-6.7,17.2-11.4
		c3.7-3.5,6.5-6.6,6.2-6.8c-10.3-8-20.9-17-24.8-21.2c-4.9-5.2-11.7-16.8-10.5-18c0.4-0.3,1.8-0.6,3.2-0.6c2.1-0.1,1.6-0.5-2.4-2.3
		c-18-7.9-28.5-20.5-28.5-34.4c0-6.8,2.7-15.2,6.5-19.9l2.3-2.9l2.4,2.1c4.3,3.9,4.7,3.5,1.3-1.6c-1.8-2.7-4.3-7.5-5.5-10.6
		c-2-5.5-4.5-20.2-3.5-21.2c0.2-0.3,3.9,1.8,8.2,4.6c10.3,6.7,14.1,8.2,21.2,8.2c5,0,6.6-0.5,10.7-3.3c5.6-3.7,9.4-10.2,9.4-15.8
		c0-2-3.1-14.7-6.9-28.1c-13.1-45.9-14.8-54.8-13-68.9c1.7-13.9,6.2-26,15.1-40.5c4.1-6.9,5.2-9.6,6.4-17c0.9-4.9,2.4-10.7,3.3-12.9
		c2.1-4.8,6.8-10.5,8.5-10.5c0.7,0,2.1,2.7,3.1,6c1,3.4,2.1,6.3,2.5,6.5c0.8,0.5,8-4.5,8-5.6c0-0.5-2.2-2-5-3.4
		c-2.7-1.4-7.8-5.2-11.3-8.4c-17.8-16.7-19.3-42.5-3.9-68.5c9.5-16,24.7-30.6,45.1-43.3l9.6-6l0.5-9.6c0.4-8.4,0.8-9.9,3-12.2
		c3.1-3.4,8.3-6.1,14.6-7.6c2.7-0.6,5.2-1.5,5.6-1.8c0.4-0.3,0.3-3.5-0.2-7.1c-2.3-15.5,4.1-26.1,19.2-31.5
		C357.1,0.6,361.9,0.5,369.4,3z M349.3,9c-8.4,4.3-15.3,14.1-15.3,21.7c0,1.9,2.1,8.2,5.4,16.3c0.5,1.2-0.6,1.5-6.5,1.7
		c-5.3,0.1-8.4,0.8-12.4,2.7c-6.4,3.2-8.9,6.7-9,12.3c0,6,1.2,6.8,7.2,4.4c11.4-4.5,31-6.8,43.3-5.2c8.5,1.1,8.1,1.3,24.8-9.6
		c9.4-6.2,11.5-9.2,10.3-14.6c-2.4-10.2-13.6-23.9-23.6-28.7C366.3,6.6,355.1,6.1,349.3,9z M386.3,59.6
		c-14.7,8.5-23.1,10.7-31.3,8.4c-2.6-0.7-6-0.6-13,0.6c-24.3,4-47.3,15.7-64,32.3c-12.2,12.2-24,29.9-28,42.1
		c-3.1,9.1-2.5,20.1,1.4,28.3c5.1,10.7,20.2,23.7,27.4,23.7c2.4,0,7.4-2.3,16.9-7.6c34.8-19.7,68.3-30.8,106.5-35.5
		c16.2-1.9,51.2-0.7,68.8,2.4c37.4,6.8,64.5,18.3,85.3,36.6c3.2,2.8,6.4,5.1,7.1,5.1c2.3,0,10.2-5.7,13.9-10
		c3.7-4.4,6.5-10.7,9.5-21.5c2.4-8.6,2.3-31.3-0.2-41.9c-10.3-44.7-45.7-78.3-92.1-87.4C459.4,28.2,428.5,35.2,386.3,59.6z
		 M404,156.7c-19.5,2.1-46.4,8.9-67,17c-17.9,7.1-54.6,26.2-56.6,29.5c-0.4,0.6,0.2,0.6,1.4-0.1c1.1-0.6,8.7-3.8,16.9-7
		c31.6-12.6,61.6-20.6,90.8-24.3c14.8-1.8,48.5-1.5,62.2,0.6c34.4,5.3,64.9,16.7,93.7,35l7.9,5l3.4-3.9c1.8-2.1,3.3-4.4,3.3-5.2
		c0-3.5-19.8-18.5-33.5-25.3c-18-9-46.7-17.4-70.5-20.6C446.4,156.2,413.5,155.7,404,156.7z M387,178.1c0,1.8,10.3,12,14.5,14.4
		c4.6,2.6,11.4,5,12.2,4.2c0.2-0.3-0.2-3-1.1-6.1c-1.8-6-5.3-10.9-9.7-13.1C398.9,175.4,387,175.9,387,178.1z M424.3,176H410
		l6.7,6.4c26.7,25,52,41,78.6,49.5c5.2,1.6,16.6,4.4,25.3,6.1c36.5,7.1,43.6,9.1,41.1,11.7c-0.5,0.4-39.4-6.1-49.7-8.4
		c-2-0.4-0.8,1.2,5.5,7.6c4.4,4.4,8.3,8.1,8.6,8.1c0.4,0,1-1.4,1.4-3c0.8-3.5,0.8-3.5,4.3-1.1c2.1,1.5,6.5,2.3,20.5,3.6
		c17,1.7,18,1.7,21.8,0c2.1-1,3.9-2.2,3.9-2.6c0-1.1-10.3-11.3-18.1-18.1c-4.2-3.6-8.1-8.1-10.7-12.6c-5.8-9.8-12.2-15-29.4-23.7
		c-23.4-12-44.7-18.7-69.7-22C443.8,176.7,432.1,176,424.3,176z M378.8,179.1c-0.2-0.4-3.7-0.2-7.8,0.5c-31,5-66.5,17.3-94.5,32.8
		c-6.1,3.3-10.7,3.1-16.7-0.9c-4.9-3.3-6-2.5-6.5,4.7c-0.3,4,0.1,6.1,1.5,8.4c2.2,3.4,9.7,7.4,13.9,7.4c4.4,0,12.2-4.3,20.1-10.9
		c3.9-3.4,7.2-5.9,7.2-5.5c0,1.7-6.5,10.6-9.8,13.5c-7.6,6.7-18.4,9.2-28.2,6.5l-5.5-1.5l-2.7,3.2c-4.4,5.2-10.5,16.7-13.2,24.7
		c-6.9,20.7-6.1,38.6,3.1,68c7.2,22.9,11.1,36.6,11.9,41.5c2.6,17.5-11,30.5-28.6,27.3c-3-0.5-8.8-2.5-12.9-4.4
		c-4.1-1.9-7.6-3.2-7.9-3c-0.7,0.8,2.7,11.2,5.3,15.9c3.2,5.7,8.4,10.3,15,13.3c5.2,2.4,18.1,5.3,23.7,5.5c3.2,0.1,3.1,0.1-2.2,2.6
		c-7.4,3.4-18.7,4.2-25.9,1.8c-2.8-0.9-7.7-3.6-11-6l-5.8-4.3l-1.7,3.4c-4.6,9.8-2.6,18.2,7,28.3c10.2,10.9,22.3,15.3,35.8,13.1
		c3.6-0.6,7.6-1.4,9-2c2.7-1,3.6-0.5,3.5,1.9c0,1-4.4,3.7-12.5,7.5c-6.8,3.3-12.4,6.4-12.4,6.9c0,1.9,7.3,10.8,12.8,15.5
		c15.1,13,18.5,13.9,23.2,6.5c1.7-2.6,3-5.1,3-5.5c0-0.5,3.9-9.5,8.6-20.1c17.2-38.5,25.2-52.2,38.3-66l7.5-7.8l-1.4-3.7
		c-0.7-2-1.5-4.2-1.7-4.8c-0.2-0.6,1.7-1.9,4.2-2.8c5.6-2.2,7.1-4.4,9.7-14.2c3.4-13.5,8.2-20.4,17-24.8c4-2,6.7-2.6,11.7-2.6
		c8.4,0,12.2,1.1,19.5,5.5c7.6,4.6,10.1,5.2,11,2.8c1.1-2.8-10.5-13.1-29.8-26.3c-22.9-15.6-20.4-14.6-29.5-12.4
		c-6.3,1.4-8.6,1.6-13.9,0.6c-22.1-3.7-35.1-21.8-32.2-44.6c2.3-17.9,10.4-35,22.6-47.4c8.2-8.3,12.9-11.1,8-4.8
		c-5.1,6.8-15.6,22.7-18,27.3c-7,14-9,31.4-4.7,42.4c2.9,7.6,8.9,14.1,15.9,17.6c4.9,2.4,6.9,2.8,14.2,2.8c7.4,0,9.1-0.3,13-2.7
		c8.2-4.8,13.1-12.4,13.8-21.6c0.5-5.4,0.4-5.5-1.9-4.8c-1.3,0.5-5.1,1-8.4,1.3c-7.8,0.6-12.1-1.6-15.3-7.8c-2-3.7-2.3-5.5-1.9-11.6
		c0.6-11.2,3.5-15.9,20.8-34c17.5-18.3,23.2-26.3,28.9-40.8C377.2,184.6,379,179.5,378.8,179.1z M382.5,184c-0.1,0-0.5,2.1-0.9,4.7
		c-0.8,6.1-5.2,16.3-9.9,23.5c-2.1,3-8.5,10.2-14.4,15.9c-19.3,18.7-21.2,20.7-23.6,25.6c-6.1,12.1-3,24,6.8,25.9
		c3.6,0.6,11-2.1,13.4-4.9c2.1-2.6,2.8-2.1,4.1,3.4c2.2,9.1-0.3,19.5-7.3,30.7c-1.5,2.3-2.7,4.4-2.7,4.6c0,1,25,18.6,32.5,22.8
		c9.4,5.3,13.4,10,16.4,19.1c3.4,10,10.6,15.7,20,15.7c3.9,0,5.3-0.4,6.1-1.9c1.5-2.9,1.3-3.5-2.6-8.6c-1.9-2.6-3.4-4.8-3.2-4.9
		c0.2-0.1,10.7-4,23.3-8.5c46.6-16.8,52.8-20.1,59-31.2l3-5.4l-0.3-17.4c-0.3-18.1,0.6-25.5,4-35.4c1.1-3.2,1.7-6.1,1.3-6.5
		c-1.4-1.4-37-24-37.3-23.7c-0.2,0.2,1,2.4,2.7,4.9c1.7,2.4,3.1,4.7,3.1,5c0,2.3-21.5-2.5-30.2-6.7c-8.5-4.2-15.3-9.7-23.8-19.6
		c-4.9-5.6-7-7.3-10.3-8.2c-7.1-1.8-17.4-7.9-23.3-13.5C385.3,186.4,382.7,184,382.5,184z M420.8,194.2c-1.3-0.6-1,0.6,1.7,5.8
		c6,11.8,20,24,33.2,29c8.1,3,11.3,3.6,11.3,1.9c-0.1-0.8-10.3-9.3-22.7-18.9C431.8,202.4,421.2,194.3,420.8,194.2z M514.5,258
		c-0.6,0-1.9,1.7-2.9,3.7c-4.8,9.9-5,11.1-5,31.3c-0.1,22.5-0.9,25.3-9.1,33.5c-6.1,6.1-14.9,10.2-45.5,21
		c-30.5,10.7-33.3,12.7-18.1,13.1c16,0.3,25.1,8.8,25.1,23.4c0,6.7,1.8,12,5.1,15.1c2.3,2.1,2.9,3.6,2.9,6.6c0,3.5,0.9,5,6.7,11.9
		c9,10.5,15.9,17.1,26.9,25.5c9,6.9,11.4,8.1,11.4,5.6c0-0.7,2-7.7,4.5-15.6c2.4-8,4.3-14.6,4.1-14.8c-0.2-0.2-4.7,1.4-10,3.6
		l-9.7,3.9l0.7-3.2c0.3-1.7,1.7-6,3-9.5c1.2-3.6,2-6.9,1.8-7.3c-0.3-0.5-1.9,1.1-3.4,3.6c-8.2,12.8-25.3,10.3-30.5-4.4
		c-3.5-9.8-0.2-15.9,16-30c18.3-15.7,31.7-29.7,36.5-38c5.7-9.8,9.4-21.1,8.6-26.7c-0.6-4.7-1-4.3,7.3-5.7
		c5.4-0.9,11.9-4.7,16.1-9.2c3.7-4,8.6-12.2,7.8-13c-0.3-0.2-2,0.1-3.9,0.6c-5.7,1.7-14,1.2-17.6-1c-4.1-2.5-7.1-8.3-7.9-15.4
		c-0.6-5.1-2.6-9.9-3.6-8.6c-0.2,0.3-1.7,3.8-3.2,7.9l-2.9,7.4l-1.8-2.4c-1-1.3-3.3-4.8-5.1-7.7C517,260.4,515.1,258,514.5,258z
		 M356.6,355.5c-9,3.2-15.2,11.1-18.6,23.8c-2.4,9.3-3.5,11.2-7.7,13.8l-3.3,2.1l2.9,4.2c6.3,9.1,17.3,16.8,26,18.2
		c4,0.6,4.2,0.5,15.8-9.7c6.5-5.6,12.6-10.9,13.5-11.7c1.4-1.2,2-1.2,3.3-0.2c1.4,1.1,0.7,2.2-5.5,8.5c-5.4,5.6-7,8-7,10.1
		c0,2.9,3.6,28.9,4.5,33.1l0.5,2.3l5.3-2.1c11.2-4.6,25.7-9,35.2-11c8.1-1.7,12.8-2,24.8-1.7c8.1,0.2,14.7,0.2,14.7,0
		c0-0.8-8.1-30.7-8.4-31c-0.2-0.2-1.5,1.6-2.9,3.9l-2.5,4.2l-2.6-4.2c-1.5-2.2-2.8-4.1-3-4.1c-0.2,0-2,1.6-3.9,3.5
		c-4.1,4.1-5.8,4.3-11.6,1c-2.3-1.4-4.4-2.5-4.6-2.5c-0.1,0-0.8,2-1.5,4.5c-0.7,2.5-1.6,4.8-2.1,5.1c-0.4,0.2-3.6-2-7.1-4.9
		c-5.5-4.8-6.3-5.8-6.2-8.8c0.1-3.8,4.3-13.9,5.7-13.9c0.5,0,2.2,1.1,3.9,2.5c1.6,1.4,3.3,2.5,3.6,2.5c0.4,0,1.5-1.4,2.5-3.1
		c1.5-2.7,2.1-3,4.5-2.4c1.5,0.4,5.3,0.9,8.4,1.2c5.6,0.5,5.7,0.4,7.4-2.9c0.9-1.8,1.8-3.5,2-3.7c0.2-0.2,2.1,0.7,4.2,2.1
		c3.7,2.5,6,6.1,10.2,16.3c1.5,3.6,2.3,4.6,3,3.6c0.5-0.9,0-2.7-1.6-5.1c-1.9-2.8-2.5-5.4-2.9-11.3c-0.6-9-1.4-11.4-5.4-16
		c-3.5-3.9-12.2-8.1-15.2-7.2c-1,0.4-3.3,2.4-5,4.5c-6,7.4-12.3,7.8-24.6,1.4c-4.8-2.5-11-4.9-13.7-5.5c-3.5-0.6-6.1-2-9.1-4.8
		c-2.4-2.2-6-4.4-8.1-5C369.1,353.6,361.3,353.8,356.6,355.5z M442.5,392c-0.6,1.9,1.1,9.7,2.5,11.3c0.9,1,5-3.9,5-5.9
		c0-0.7-1.2-2.6-2.6-4.3C444.4,389.5,443.4,389.3,442.5,392z M415,396.7c-3.8-2.7-3.9-2.7-4.9-0.8c-1.9,3.5-1.3,7.7,1.5,10.5
		c1.5,1.4,3.1,2.6,3.6,2.6c1.4,0,4.6-6,4.1-7.8C419.1,400.3,417.1,398.2,415,396.7z M434.9,395.9c-0.3-1.3-0.8-1.4-3.4-0.3
		c-1.6,0.6-4.4,1-6.2,0.7c-2.4-0.4-3.3-0.2-3.3,0.9c0,2.3,5.3,7.7,8.3,8.4c2.6,0.6,2.7,0.5,2.7-3.4c0-2.2,0.5-4.2,1.1-4.4
		C434.7,397.6,435.1,396.7,434.9,395.9z M327.5,406.8c-0.5-0.3-1.9,0.5-3,1.7c-20.6,23.4-26.6,32.8-39,61
		c-14.5,33-16.3,35.9-32.8,51.3c-6.4,5.9-6.9,7.9-3.6,14.5c2.7,5.3,2.8,5.4,3.9,3.7c0.7-1.1,1.5-0.2,3.1,3.9c1.8,4.3,2.5,5,3.4,3.8
		c0.9-1.3,1.4-1.2,3.8,0.9c1.6,1.3,3.2,2.4,3.6,2.4c0.4,0,2.9-3.8,5.6-8.5c2.7-4.7,5.2-8.5,5.5-8.5c0.4,0,2.4,1.5,4.6,3.4l4,3.4
		v-16.7c0.1-19.6-1.9-14.5,17.7-46.2c16.5-26.7,23.9-37.3,34.1-48.6c4.3-4.7,7.6-8.6,7.4-8.8c-0.2-0.1-4.1-2.9-8.8-6.2
		C332.3,410.1,328.1,407.2,327.5,406.8z M369.8,413.6c-0.5,0.4-0.8,1.7-0.8,3c0,5-0.7,5.4-9.9,5.4c-8.5,0-8.8,0.1-11.8,3.2
		c-6.2,6.6-25.4,32.9-42.1,57.7c-13.7,20.3-17.2,26.2-17.2,28.8c0,4.8,2.9,7.3,8.6,7.3c3.7,0,7.4,1.5,21,8.5
		c10.3,5.3,17.6,8.5,19.6,8.5c3.8,0,7.7-3.9,15.7-15.9c17.2-25.7,23.8-46.4,22.8-71.6c-0.3-7.2-1.3-16.8-2.2-21.5
		C371.1,414.6,370.6,412.7,369.8,413.6z M463.3,413c-1.6,0,3.8,32.3,6.1,36.7c0.8,1.6,3.2,4.5,5.4,6.5c4.1,3.7,47.3,28.6,58.2,33.5
		c3.9,1.8,7.9,4.5,9.9,6.8c5,5.8,22,17.5,25.4,17.5c3.4,0,3.4-1.2-0.3-8c-1.6-3-2.9-5.7-3-6c0-0.3,3-0.3,6.8,0.1
		c3.7,0.3,7,0.3,7.5-0.1c1.2-1-1.3-6.7-3.6-8.3c-1.2-0.8-5.8-2.2-10.2-3.1c-18.5-4-18.9-4.3-47-24.6c-23.1-16.8-39.1-31.1-49.6-44.6
		C466.1,415.9,463.6,413,463.3,413z M221.3,426.6c-1.4-0.6-1.5-0.5-0.6,0.5c0.7,0.7,1.5,1,1.8,0.7
		C222.8,427.5,222.3,426.9,221.3,426.6z M448.2,441.4c-13.2-0.2-27.3,1-35.7,3.1c-9.4,2.4-27.6,9.3-29.8,11.4
		c-1.2,1.2-2.6,6-4.3,15.5c-2.6,14.3-5,21.8-10.4,32.6c-7.2,14.4-25.8,40.5-37.7,53.2c-4.6,4.8-8.3,9.4-8.3,10.2
		c0,2.5,9.7,13.3,14.3,16.1c6.2,3.5,13.8,6,26.4,8.4c13.5,2.6,22.2,5.5,34,11.5c20.1,10.1,33.4,11.1,50.3,3.9
		c12.6-5.4,20.6-7.7,37.9-10.9c16.6-3,21.1-4.4,25.8-8c5.9-4.5,6.1-6.4,1.6-12.5c-9.2-12.6-19.9-32-29.8-53.9
		c-3.1-6.9-6.1-12.9-6.5-13.4c-0.5-0.5-2.1,1.7-3.6,5l-2.7,5.9l-2.3-25c-3.8-41-4.8-48.4-7.3-50.9
		C458.2,441.8,456.7,441.5,448.2,441.4z M485.5,473.3c-3.8-0.1-8.3,0.2-9.8,0.8c-2.8,1.1-2.8,1.2-2.1,6.8c1.5,12.1,5.8,23.6,20,52.5
		c7.5,15.5,9.6,17.6,17.4,17.6c8,0,21.4-2.2,23.4-3.9c2.1-1.7,17.6-33.1,17.6-35.5c0-2.1-13-12.8-22.5-18.6
		c-4.4-2.6-11.6-6.3-16-8.1c-4.4-1.8-10.9-5.1-14.5-7.3C493.2,474,491.8,473.5,485.5,473.3z M585.7,510c-0.7,0-2.8,1.4-4.7,3
		c-4.7,3.9-9,5.3-12.4,4.1c-3.5-1.4-7.4,0.2-8.6,3.3c-1.9,5-6.4,23.6-5.8,24.1c1.2,1.2,24.8-3.4,30-5.8c5.3-2.4,13.8-10,13.8-12.3
		c0-0.6-2.5-4.6-5.6-8.8C589.4,513.4,586.3,510,585.7,510z M673,521.2c-1-0.2-3,0.8-4.6,2.1c-2.8,2.4-2.8,2.5-1,5.2
		c1,1.4,3.3,4.4,5.3,6.6l3.5,3.9l7.9,47.7c8.2,49.6,10.7,62.4,12.4,62.9c1.3,0.4,50-42.8,50-44.3c0-0.7-11.2-14.1-25-29.9
		c-13.7-15.8-29.9-34.4-35.9-41.3C679.7,527.2,674,521.4,673,521.2z M295.7,524h-5.9l0.7,7.7c0.3,4.3,0.8,8.8,1.1,10
		c0.5,2.7,0.5,2.7-6.6,0.8c-3-0.8-5.7-1.5-5.9-1.5c-0.9,0,1.5,6.6,6.5,18c3,6.9,5.9,13.5,6.4,14.7c1.4,3.3,3.9,4.6,23.4,11.7
		c9.9,3.6,18.1,6.8,18.3,7c0.2,0.2-2.8,9.5-6.8,20.7c-12.4,35.4-15.9,46.2-15.4,46.7c0.3,0.3,2.2-0.4,4.3-1.5
		c2-1.1,16.9-8.9,33-17.3s30.6-16.3,32.1-17.6c5.1-4.3,6.5-16,2.2-19.8c-3.4-3.1-10.9-5.5-28.1-9.1c-9.6-2-19.8-4.7-22.5-5.9
		c-13.3-6-20.3-19.3-14.3-27.2c1.1-1.6,5.5-6.4,9.7-10.7c6.1-6.4,7.3-8.1,6.1-8.8c-7.2-4.6-21.6-12.7-26.5-15
		C303,524.7,300,524,295.7,524z M242.5,535.1c-1.5,0.1-18.3,14.2-18.4,15.5c-0.1,1.3,43.1,17.6,44.1,16.6c0.3-0.4,1.1-3,1.6-5.8
		l0.9-5.2l-5.4-1.2c-7-1.5-12.8-6-17.8-13.7C245.3,537.8,243.1,535.1,242.5,535.1z M179.9,537c-0.2,0.1-6.1,7.8-13.1,17.3
		c-7,9.5-20.7,28-30.6,41.3l-18,24.1l37.6,25.9c20.6,14.2,46.1,31.8,56.6,39l19,13.2l7.6-11.2c4.3-6.2,16.7-24.8,27.8-41.3
		l20.1-30.1l-12.6-8.7l-12.7-8.6l-2.3,3c-3.4,4.4-5.5,3.2-5.1-3l0.3-4.8l-22-16.4c-23.9-17.9-22.3-17.3-26.2-11.1
		c-1.1,1.8-1.2,1.8-3.4-0.3c-2.3-2.2-2.3-2.3-0.5-6l1.8-3.7l-2.9-2.3c-1.5-1.3-6.9-5.5-11.9-9.3C184.3,540.1,180.1,537,179.9,537z
		 M664,540c-1.9,0.5-8.4,1.6-14.5,2.5c-6,0.9-11.4,2-11.9,2.5s-1.2,2.5-1.5,4.5c-0.8,4.6-2.5,4.6-3.1,0c-0.5-3.9-0.6-3.9-6.8-3
		c-3.9,0.6-4.3,0.9-3.8,2.8c0.3,1.2,0.8,4.1,1.2,6.4c0.6,4.1,0.5,4.3-1.8,4.3c-2,0-2.7-0.9-4.2-5.1c-1-2.8-2.5-5.3-3.3-5.6
		c-2.8-1.1-52.5,6.8-58,9.2c-2.9,1.3-3.2,1.9-3.5,6.1c-0.2,2.6-0.8,4.9-1.5,5.1c-0.6,0.2-2.5-1.6-4.3-4.1c-2.7-4.1-3.5-4.6-6.8-4.6
		s-26.3,3.8-27,4.4c-0.1,0.2,2,2.8,4.8,6c8,9.1,7.8,12.3-0.9,19.1c-2.9,2.2-6.4,5-7.9,6.1l-2.6,2.2l1.7,18.8
		c1.1,12.2,2.6,22.4,4.3,28.9c2.3,8.9,2.6,11.2,2.1,21.1c-0.6,10.7-0.5,11.2,2,14.9c2.6,3.8,2.6,3.9,0.7,5.2c-2,1.3-2,1.6-0.6,11.8
		c1,7.2,1.9,10.5,2.8,10.5c8.9,0,172.5-30.8,174.5-32.9c0.4-0.3-0.6-7.4-2.2-15.6c-4.4-23.6-21.9-120.9-21.9-121.8
		C670,538.9,668.7,538.9,664,540z M151.5,544c-1,1.6-12.5,36.4-12.5,37.8c0,0.7,0.4,1.1,0.9,0.7c1.5-0.9,25.3-33.7,24.8-34.1
		C163.4,547.1,151.9,543.3,151.5,544z M297.6,602c5.4,3.7,7.4,5.7,6.9,6.8c-0.5,1.4-14.1,24-38.2,63.7c-17.7,29.1-17,28.2-23.6,31
		c-4.5,1.9-9.7,1.9-14.1,0.1c-1.9-0.8-11.9-7.9-22.2-15.8c-34-26-84.3-59.8-85.5-57.5c-0.4,0.7-4.9,11.8-9.9,24.7
		c-5,12.9-9.3,23.9-9.6,24.5c-0.2,0.5,7.8,4.1,17.8,7.9c10.1,3.8,20.3,7.7,22.8,8.7c4.2,1.7,33.7,13,76,29.1
		c10.2,3.9,26,9.9,35.1,13.4s16.9,6.4,17.2,6.4c0.4,0,6.5-18.2,22.4-67c2.4-7.4,8.7-26.7,13.9-42.8c5.3-16.2,9.2-29.7,8.8-30.1
		c-0.5-0.5-6.2-2.7-12.7-5C286.8,594.6,286.9,594.6,297.6,602z M498.5,603.7c-0.6,4.5,1.4,32.6,5.1,73.8c1.6,17.9,3.5,25.7,7,28.6
		c1.9,1.5,2,3.2-2.1-40.7c-1.9-20.9-4-42.9-4.5-48.9c-0.6-6.1-1.3-12.5-1.6-14.3C501.6,597.3,499.3,598.2,498.5,603.7z M293.4,614.8
		c-1.8,4.2-12.4,19.8-47.2,69.7c-5,7.1-8.7,13.4-8.2,13.9c1.7,1.8,8.6-3.5,12.5-9.7c12.6-20.2,46.5-76.7,46.5-77.6
		C297,608.6,295.4,610.3,293.4,614.8z M407.3,613.8c-4-1.3-7.3-2.2-7.3-1.8c0,0.9,6.3,22.1,11.4,38.5c2.6,8.2,6.3,22,8.1,30.6
		c8.3,38.2,16.7,68.2,24.6,88.1c5,12.5,16.3,35.2,18.9,37.8c5.5,5.5,27-1,39-11.9c5.1-4.5,5.2-4.7,6-12.1c0.5-4.1,1.1-13.4,1.5-20.6
		l0.7-13l-12.1-18.8c-25.2-38.8-32-52.8-40.1-83.6c-7.6-28.8-7.8-29.6-9.5-31c-1.2-1-3-1-9,0c-4.3,0.7-11.2,1.1-16.2,0.8
		C417.8,616.4,411.7,615.3,407.3,613.8z M389.9,628.1c-0.2,0.1-1.5,0.7-2.9,1.5c-1.4,0.7-3.3,1.4-4.2,1.4c-2.4,0-20.3,8-25.8,11.5
		c-2.5,1.6-7.9,4.3-12,6c-5.5,2.3-8.1,4-9.7,6.4c-1.7,2.4-4.8,4.6-11.1,7.6c-10.1,4.9-15.5,9.1-18.3,14.7
		c-1.1,2.1-3.5,10.3-5.4,18.2c-1.9,7.9-5.5,21.7-8,30.7l-4.6,16.3l3.8,3.7l3.8,3.8l7.9-4.9c4.4-2.7,10.2-5.7,13-6.6
		c8.2-2.7,12.9-6.7,25.3-21.2c16-18.7,23.9-26.4,44.3-42.8c19.5-15.7,20.4-16.6,19.7-19.1c-4.9-17.9-6-20.3-10.8-23.8
		C392.4,629.6,390.1,628,389.9,628.1z M647.9,691.7c-0.2-0.1-4,0.5-8.4,1.4c-4.4,0.9-18.3,3.7-31,6.3c-12.6,2.6-23,4.8-23.2,5
		c-0.4,0.3,18.8,22,19.8,22.4c0.7,0.3,35.7-27.7,41.8-33.4C647.7,692.7,648.2,691.9,647.9,691.7z M548.1,743.4
		c-5.6,3.6-6.3,5.4-5.5,13.7c0.8,8.6-1.1,14.4-6.3,19c-3.7,3.2-9,5.9-11.7,5.9c-1.6,0-1.5-1.2,1.4-19.3l1.7-10.9l-2.6-0.9
		c-7.6-2.9-9.6,1.6-11.2,25.5c-0.5,7.7-1.1,14.8-1.4,15.7c-1.2,3.5-37.4,23.9-42.6,23.9c-3.7,0-4.5,1.9-2.5,5.9
		c4.2,8,15.2,15.1,23.7,15.1c4.5,0,13.7-2.7,23.3-6.9c2.7-1.2,10.4-4,17-6.2c13.8-4.6,23.5-9.9,35.3-19.4
		C581,793,587,783.6,587,772.3c0-10.9-5.9-23.2-13.6-28.5C566,738.6,555.9,738.5,548.1,743.4z M322,741.6c-6.9,1.9-12,4.9-19.2,11.4
		l-5.8,5.1l-5.2-4.8c-10.7-9.6-9.5-8.9-12-6.5c-5.1,4.7-9,4.8-18.3,0.5c-5.5-2.5-9.5-3-9.5-1.1c0,2.2,2.6,11,4.9,16.7
		c9,22.4,35.9,46.4,56.4,50.1c14.9,2.8,32.7-6.1,39.3-19.6c2.3-4.7,2.6-6.4,2.2-12.2c-0.3-3.7-1.3-8.3-2.3-10.2
		c-2.5-4.9-7.5-10-10-10c-1.1,0-4.5,1.6-7.5,3.5c-6.5,4.2-14.9,7.5-19.1,7.5c-3.7,0-8.9-2.6-8.9-4.4c0-2.2,12-12.7,17.5-15.2
		c2.7-1.3,6.9-2.6,9.3-3c4.2-0.6,4.3-0.7,3.7-3.8c-0.4-1.7-1.4-3.7-2.3-4.4C333.2,739.6,328.9,739.8,322,741.6z M336.4,754.4
		c-5-1.3-25,10.8-21.5,13c1.4,0.9,23.3-10.3,22.9-11.6C337.5,755.1,337,754.5,336.4,754.4z M295.5,812c-2.1,0,4.2,4.1,9.3,6
		c4.9,1.9,15.4,2.9,13.8,1.3c-0.4-0.4-5.5-2.2-11.4-4S296.1,812,295.5,812z M551.5,820.8c-1.2,1-6.8,3.5-28.5,12.2
		c-9,3.7-16.6,7.2-16.8,7.8c-0.4,1.2,8.4-0.7,16.8-3.6c12.4-4.4,31-14.2,31-16.3C554,819.8,552.7,819.7,551.5,820.8z"/>
	<path d="M438.9,68.6c2.9,3.7,2.6,7.9-1.2,15.9c-4.1,8.5-5.4,9.7-9.2,8.7c-2.3-0.7-3-1.6-4.1-5.7c-2.6-10.1-1-16.9,4.8-20.1
		C433,65.2,436.6,65.7,438.9,68.6z M430.6,72.1l-2.4-2.3l-1.5,2.4c-1.5,2.2-2.1,5.2-1.8,9c0.1,1,1,2.2,2.2,2.8c3,1.7,5.9-1.2,5.9-6
		C433,75.4,432.3,73.7,430.6,72.1z"/>
	<path d="M368.9,71.9c-4.3,6.1-15.5,20-16.1,20.1c-1.2,0-2.1-4.8-1.4-7.4c1-4.1,5.5-8.4,11.9-11.6C370.7,69.5,370.6,69.5,368.9,71.9
		z"/>
	<path d="M528.9,72c0.5,0,2.4,1.2,4.1,2.7c3.1,2.5,3.2,2.8,2.5,8.2c-1.4,11.8-4.5,17.1-10.2,17.1c-2.5,0-7.3-4.3-7.3-6.6
		c0-0.7,1.9-1.9,4.3-2.6c4.7-1.6,5.4-3.1,5.6-13.1C527.9,74.6,528.4,72,528.9,72z"/>
	<path d="M304.3,98.2c7.2,0.7,6,6.8-3.2,16c-5.7,5.8-7.3,6.8-10.2,6.8c-4.9,0-6.1-1.2-6.9-6.5l-0.7-4.7l2.7,0.6
		c1.5,0.3,3.9,0.8,5.2,1.1c3.9,1,8.5-3.5,9.4-9.1C301.2,98.1,301.4,97.9,304.3,98.2z"/>
	<path d="M475.5,104.8l5.5,0.7c3,0.4,5.8,1,6.2,1.4c0.4,0.3,1,3.8,1.3,7.6c0.8,8.9-1,12.8-7.7,16.4l-4.8,2.6l-2.5-3
		c-1.3-1.7-2.4-3.3-2.5-3.6c0-0.3,2.2-1.8,4.8-3.2c8.1-4.4,9.5-10.6,3.5-15.7L475.5,104.8z"/>
	<path d="M388.2,115.7c4.6,4.1,2.4,16.8-3.7,22.2c-4,3.5-6,3.8-8.7,1.4c-2.6-2.3-2.3-3.6,2.2-8.8c4.5-5.2,4.9-7.8,2-13.5
		c-1.1-2.2-2-4.3-2-4.8C378,110.9,386,113.7,388.2,115.7z"/>
	<path d="M561.6,130c1.6,0,8.4,6.4,8.4,7.8c0,2.4-4.8,16.6-6.3,18.5c-0.7,0.9-2.4,1.9-3.9,2.2c-3.2,0.8-4.6-1-8-10.3
		c-1.9-5.3-2-6.4-0.8-7.2c1.1-0.7,1.9,0.2,3.3,3.6c3.6,8.1,6.7,4.5,6.7-7.7C561,133.1,561.3,130,561.6,130z"/>
	<path d="M306,138.9l3.3,0.3l3.2,0.3l0.3,7.1c0.3,6.4,0,7.5-2.3,10.2c-1.4,1.7-4.6,4.2-7.1,5.7l-4.6,2.7l-3.4-3.3
		c-4.1-4-3.1-6.4,2.2-5.5c2.7,0.6,3.6,0.2,5.8-2.5c2.2-2.5,2.6-4,2.6-9V138.9z"/>
	<path d="M397.6,229.7c-1.9,6.4-1.9,7.3,0.2,7.3c3.1,0,3.4,1.5,1.3,5.2c-1.4,2.4-2.1,6-2.5,12.7c-0.7,11-2.6,15.7-7.4,18.5l-3.4,1.9
		l-9.6-3.3c-5.4-1.8-12.1-4.1-14.9-5.2l-5.3-1.9l2.6-5.2c9.7-19.2,12-21.5,28.2-27.7C398.2,227.5,398.3,227.5,397.6,229.7z
		 M385.4,241c-2,0-3.4,5.8-2.8,11.8c0.6,5.7,0.6,5.7-3.5,9.7c-2.2,2.2-4.1,4.5-4.1,5c0,1.7,9,4,10.9,2.8c3.2-2,5.9-7.4,6.6-13.1
		c0.7-6.3-0.4-10.4-3.7-14C387.6,242,386.1,241,385.4,241z"/>
	<path d="M493.1,254.1c1-0.1,2.1,1.5,3,4.6c1.4,4.4,1.3,5.6-0.4,13.3c-2,8.8-2.4,13.7-1.6,18c0.4,2.5,0.3,2.5-7.6,2.8
		c-12.1,0.5-18.3-0.5-21.3-3.5c-2.2-2.2-2.4-3-1.9-8c0.7-7.1,4.9-15.6,9.3-19c1.9-1.4,7-3.8,11.2-5.4
		C488,255.4,492.2,254.1,493.1,254.1z M483.8,265.3c-1.3,1.1-1.5,2.4-1.1,7.4c0.5,5.2,0.2,6.8-1.6,9.8c-2.8,4.9-2.7,5.7,1.1,5.3
		c2.9-0.3,3.6-1,6-5.8c3.3-6.8,3.6-13.2,0.8-16C486.7,263.7,486.1,263.6,483.8,265.3z"/>
	<path d="M399.4,300c0.5,0,3.9,2.9,7.6,6.4c4.8,4.5,8.5,7,12.6,8.5c7.1,2.7,17.1,3,23.9,0.8c5.9-1.8,16.3-3.1,14.9-1.7
		c-2.4,2.3-32.1,19-33.9,19c-7.8,0-15.7-6.3-21.4-16.9c-2-3.7-4.6-7.1-6.7-8.4c-4.1-2.7-4.2-3.7-0.6-5.9
		C397.3,300.8,398.9,300,399.4,300z"/>
	<path d="M240.4,646.5c3.9,7.9,4.6,16.6,1.7,21.2c-3.5,5.5-9.7,9.3-15.2,9.3c-5.8,0-11.2-2.4-13.1-5.8c-0.7-1.5-1.3-5.6-1.3-10.1
		c0-6.3,0.4-8.1,2.3-10.9c3.4-4.7,8.4-8.1,13.3-9.1C236.2,639.4,237.2,639.9,240.4,646.5z M230.7,646.5c-3.2-0.8-3.4,0.2-1.1,4.8
		c2.6,5.1,3.5,5.9,5,4.6c1.7-1.4,1.8-6.3,0.1-7.7C234.1,647.6,232.3,646.9,230.7,646.5z M220.8,649c-2.1,0-4.8,5.6-4.8,10.1
		c0,8.8,2.9,12.9,9.1,12.9c6.9,0,13.9-5.3,13.9-10.6c0-2.2-0.4-2.4-4.4-2.4c-4.1,0-4.8-0.4-8.8-5C223.4,651.3,221.2,649,220.8,649z"
		/>
</g>
</svg>
