<?xml version="1.0" encoding="utf-8"?>
<!-- Generator: Adobe Illustrator 21.0.0, SVG Export Plug-In . SVG Version: 6.00 Build 0)  -->
<svg version="1.1"
	 id="svg86" inkscape:version="0.92.2 5c3e80d, 2017-08-06" sodipodi:docname="100 #12955.svg" xmlns:cc="http://creativecommons.org/ns#" xmlns:dc="http://purl.org/dc/elements/1.1/" xmlns:inkscape="http://www.inkscape.org/namespaces/inkscape" xmlns:rdf="http://www.w3.org/1999/02/22-rdf-syntax-ns#" xmlns:sodipodi="http://sodipodi.sourceforge.net/DTD/sodipodi-0.dtd" xmlns:svg="http://www.w3.org/2000/svg"
	 xmlns="http://www.w3.org/2000/svg" xmlns:xlink="http://www.w3.org/1999/xlink" x="0px" y="0px" viewBox="0 0 850 850"
	 style="enable-background:new 0 0 850 850;" xml:space="preserve">
<style type="text/css">
	.st0{fill:none;}
	.st1{fill:#F57900;}
	.st2{fill:#EDD400;}
	.st3{fill:#73D216;}
	.st4{fill:#E9B96E;}
	.st5{fill:#204A87;}
	.st6{fill:#CC0000;}
	.st7{fill:#75507B;}
	.st8{fill:#5C3566;}
	.st9{fill:#AD7FA8;}
	.st10{fill:#4E9A06;}
</style>
<sodipodi:namedview  bordercolor="#666666" borderopacity="1" gridtolerance="10" guidetolerance="10" id="namedview88" inkscape:current-layer="svg86" inkscape:cx="652.88109" inkscape:cy="721.50715" inkscape:pageopacity="0" inkscape:pageshadow="2" inkscape:window-height="978" inkscape:window-maximized="1" inkscape:window-width="1920" inkscape:window-x="0" inkscape:window-y="1" inkscape:zoom="0.83294118" objecttolerance="10" pagecolor="#ffffff" showgrid="false">
	</sodipodi:namedview>
<g id="g84" transform="translate(0.000000,0.000000) scale(1.00000,1.00000)">
	<path id="path4" class="st0" d="M0,0h425h425v425v425h-59.9h-59.8l-3-6.7c-3.2-7.1-5.7-14.4-6.8-20.3c-0.4-1.9-1.3-4.6-2-6
		c-1.5-3.1-6.6-19.4-15.4-49c-1.7-5.8-4-13.3-5.1-16.7c-1.8-5.9-1.8-6.5-0.3-10.5c2.6-6.8,2.2-21.7-1-37.6
		c-1.5-7.3-3.4-14.3-4.2-15.5c-0.7-1.2-2.9-6.7-4.8-12.2c-1.9-5.5-4.8-12.7-6.6-16c-5.3-10-9.7-31.9-7.1-35c0.7-0.8,3.7-2.2,6.6-3.1
		c7.2-2.1,11.8-7.3,11-12.4c-0.3-1.9-1-8.9-1.5-15.4c-1.3-14.3-1.6-15.4-4.5-16.2c-3-0.7-11.4,2.1-17.2,5.8
		c-2.5,1.6-4.7,2.8-4.9,2.6c-0.6-0.8-3.4-13.9-4-18.8c-0.4-3-1.5-7.1-2.5-9c-1-1.9-4.5-9.3-7.7-16.5c-3.2-7.1-8.2-16.5-11.1-20.7
		c-2.9-4.3-7.8-13.1-10.8-19.5c-3-6.5-6.7-13.3-8.2-15.2c-1.5-2-4-5.9-5.7-8.8c-2.6-4.6-16.9-21.6-51.7-61.6
		c-5.4-6.2-9.8-11.7-9.8-12.3c0-0.5,1.6-2.6,3.6-4.5c8.8-8.4,19.4-25.3,19.4-30.9c0-4.9,1.6-4.2,4.4,2c4.1,9.1,6.1,15.7,7.6,24.5
		c1.8,11.2,2.2,11.7,5.5,6.5c5.4-8.6,6-10.7,6-23.6v-12.1l-4.2-8.4c-2.3-4.6-6.7-11.7-9.7-15.7c-3-3.9-5.1-7.2-4.7-7.2
		c1.4,0,15.6,14.4,19,19.3c1.8,2.7,4.7,8.5,6.4,13c2.9,7.7,3.1,9,3.1,22.4c0.1,7.9,0.2,14.3,0.4,14.3c0.1,0,1.7-1.6,3.4-3.6
		c1.7-1.9,4.3-4.1,5.8-4.9c3.4-1.8,13.6-14,17.7-21.3c6.5-11.4,7.8-17.1,7.7-33.2c-0.1-13.5-0.3-15.2-3.2-23.8
		c-4.7-13.8-18.5-41.3-23.8-47.3c-2.4-2.7-5.2-6.6-6.3-8.7c-1-2-8.1-10.4-15.6-18.5c-7.5-8.2-13.5-15-13.3-15.3
		c1-1,28.8,9.1,34.4,12.5c9.1,5.5,28.4,26.5,32,34.7c0.9,2.1,2.7,6.4,4,9.4c1.3,3,2.7,7.3,3.1,9.5l0.7,4l0.7-3
		c1-4.7,1-17.5-0.1-20.9c-0.5-1.7-1.6-5.6-2.4-8.6c-0.8-3-2.9-9.3-4.8-14c-2.8-7.2-4.3-9.5-10.3-15.5c-11.9-12-19.2-15.4-60-28.1
		c-36.1-11.2-47.3-16.2-56.6-25.4c-5.7-5.6-10-13.3-11.9-21.1c-0.6-2.4-1.5-19-2.1-36.9c-1-31.9-1.3-34.9-5.3-49.6
		c-1.9-7-7.6-18-12.6-24.2c-4.9-6.2-13.7-13-23.5-18c-29-14.8-48.2-18-59.8-9.9c-2.5,1.7-3.4,1.8-6.7,0.8
		c-12.4-3.7-33.1,2.3-51.5,15c-9,6.2-13.5,10.9-17.9,18.7c-6.3,11.1-7,16.1-6.7,46.2c0.2,27.7-0.4,33.8-4,41.5
		c-2.9,6.2-8.4,10.2-20.5,14.8c-17.7,6.9-25.8,11.3-33.8,18.8c-6.2,5.8-8.2,8.5-11.9,16.2c-4,8.3-4.6,10.6-6.1,22.7
		c-2.1,16.6-5,30.2-7.7,35.6c-2.1,4.5-11.9,13.7-16.6,15.5c-1.6,0.7-12.3,1.5-24.8,2c-22.6,0.8-26.8,1.5-35.3,5.8
		c-7.1,3.6-11,7.9-15.4,17l-4.2,8.6v14c0,13.5,0.1,14.2,2.8,19.2c1.6,2.8,4,6.2,5.5,7.6c2.3,2.1,13.5,7.3,14.3,6.6
		c0.2-0.1,1.3,0.3,2.6,1c3.3,1.7,4.8,0.4,2.4-2.3c-5.6-6.1-9.4-13.5-9.9-19.3c-0.9-9.5,0.9-13.8,8.9-21.6c3.8-3.8,8.6-7.5,10.6-8.4
		c2-0.8,5.6-2.4,8-3.5c5.1-2.4,6.1-1.9,3.6,1.9c-3.6,5.6-11.3,21.2-12.7,26c-0.9,3-1.5,10.1-1.6,18.8c-0.1,12.7,0.1,14.6,2.4,21
		c1.4,3.8,2.9,8.3,3.4,10c1,3.7,6.4,12.2,12.8,20.2c2.6,3.3,6.9,9,9.5,12.7c5.6,7.8,7.4,8.4,6.4,2.3c-1.4-9-1.8-29.8-0.7-41.9
		c1-11.7,1.4-13.5,5.6-23c5-11.2,6.1-12.8,11.2-15.8l3.4-2l-2.5,4.7c-4.8,9.3-5.8,14.3-5.4,27.6c0.3,13.7,1.6,17.5,8.9,26.7
		c3.8,4.8,13.8,13.5,14.6,12.7c0.2-0.2-1.2-4.4-3.1-9.3c-4.4-11.6-6.1-23.6-4.5-33.5c1.1-7.3,4.2-15.5,7.3-19.4
		c1.4-1.9,1.5-1.2,1.6,9c0.1,13.4,2.5,25.2,6.8,32.7c3.7,6.5,16,19.9,23.4,25.5c6.1,4.7,17.6,10.8,18.5,9.9c0.3-0.3-0.8-4-2.6-8.2
		c-2.8-6.7-3.2-8.7-3.2-17.2c-0.1-12.3,2.1-18.4,10.3-29.3c8.2-10.9,19.3-20,31-25.5l4.6-2.2l1.2,2.9c1,2.4,1,3.3-0.4,5.4
		c-2.3,3.4-2,6.3,0.9,10.6c2.4,3.3,2.7,5,3.6,19.5c0.7,9.6,1.6,16.9,2.5,18.5c1.1,2.3,5.9,5.9,17,12.9c1.3,0.8,2.4,1.7,2.4,2
		s-5.5,4.1-12.1,8.5c-20.6,13.7-42.9,35.7-61.7,60.8c-14.1,18.9-29.8,42.6-32.2,48.7c-2.9,7.6-9.4,19.8-13.1,24.7
		c-2.1,2.8-5.2,8-7,11.5l-3.1,6.3l-4.6,0.1c-2.6,0-9,0.7-14.3,1.5c-14,2-15.9,4.5-9,11.3c2.2,2.2,4.1,5.1,4.3,6.5
		c0.2,1.6,1.5,3.3,3.8,4.7c6.8,4.3,8,6,8,11c0,3.4-1,6.6-4,12.2c-2.1,4.3-5,10.8-6.4,14.7c-5.9,16.7-14.3,35.1-19.6,43
		c-8.2,12.1-17.2,35.5-19,49.4c-0.8,6-2.8,11.2-11.4,30c-5.7,12.4-10.7,23.7-11.1,25.1c-0.4,1.4-2.5,6.2-4.6,10.7
		c-2.2,4.6-3.9,8.7-3.9,9.2s-2.1,5.8-4.6,11.8c-2.6,5.9-5.5,13-6.5,15.8c-5.7,16.1-11.2,29.1-12.9,30.7c-1.8,1.7-5.3,1.8-61,1.8H0
		V425V0z"/>
	<path id="path6" class="st1" d="M481.2,46.8c3.4,3.1,7.8,8.3,9.9,11.5c8.6,13.2,13.8,39.9,13.9,71.1c0,19.5,1.8,33.3,5.1,40.5
		c5.7,12.5,14.4,20,30.1,26.1c11.8,4.6,27,10.1,29.2,10.5c1.1,0.3,4.9,1.6,8.6,3c3.7,1.4,7.6,2.7,8.8,3c4.1,0.8,26.2,8.4,30.4,10.6
		c12.5,6.3,21.3,15,27.6,27.4c3.3,6.4,8.7,22.4,7.8,23.2c-0.2,0.3-1.5-1.5-2.7-3.9c-3.3-6.4-11.9-17.6-18.6-24
		c-12.6-12-29.4-20.2-47.3-23.1c-12.4-2.1-17-2.7-17-2.2c0,0.2,6.2,6.6,13.8,14.2c25.5,25.4,43.8,51.3,52.8,75
		c2.8,7.4,6.4,25.9,6.4,32.9c0,6.8-3,20.4-5.8,25.9c-3.4,6.7-10.2,15.5-15.9,20.4l-4.8,4.1l-0.7-8.4c-0.8-11-3.3-19.6-8.1-28.1
		c-7.4-13.4-16.6-22-31.2-29.4c-4.4-2.3-8.4-4.1-8.9-4.1c-0.6,0,2.3,3.5,6.5,7.7c17.1,17.5,22.9,29.4,22.8,46.3
		c-0.1,4.1-0.4,8.6-0.8,9.9c-0.5,2-1,1.5-3.5-4c-4.7-10.6-8.6-17.8-15.9-29.9c-3.9-6.3-9.9-17.5-13.4-24.9l-6.4-13.3l1.5-3.9
		c2-4.8,1.4-6.3-3.5-9.1c-2.1-1.2-5-3.8-6.3-5.7c-2.1-3.2-11.4-20.2-20.8-38.1c-9.2-17.4-12.2-22.8-14.6-25.9
		c-1.6-2.2-2.9-5.5-3.3-8.9c-0.5-3.7-1.9-7.1-4.3-10.8c-4.2-6.3-6.5-6.8-11.1-2.5c-1.6,1.6-5.7,4.4-9,6.1c-3.3,1.8-7.5,4.1-9.3,5.2
		c-5.8,3.6-18.4,2-21.4-2.6c-0.4-0.6-0.8-5.5-0.8-10.8c0-12.6,2-17.2,9.8-22.3c4.3-2.9,5.9-4.8,8.3-9.8c1.6-3.4,2.9-7.2,2.9-8.3
		c0-1.2,2.3-5,5.1-8.5c6.4-7.9,9-13.5,9.1-19.8c0.1-5.4-2.1-10-5.3-10.8c-2.6-0.7-2.5-4.1,0.6-18.8c3.2-15.2,5.3-40.5,3.7-44
		c-1.5-3.3-6.9-3.3-13.5-0.1c-3.2,1.6-5,2-5.2,1.2c-3-9.9-4.9-14.9-6.2-16.1c-2.1-2.2-6-1.8-15.4,1.4l-8.4,3l-7-7.3
		c-6.7-7-18.3-15.6-21.2-15.6c-3.5,0-18.2,17.2-20.4,24c-0.6,1.9-1.5,3.9-1.9,4.4c-0.5,0.4-4-0.9-7.8-3c-9.9-5.4-11.1-4.9-18,8.3
		l-5.3,10.2l-3.5-1.5c-2-0.8-5.4-1.6-7.6-1.7c-6.6-0.2-7.1,1.2-6.5,18.3c0.5,12,1.1,16.4,3.5,25.3c3.4,11.9,9.7,25.9,14.1,30.9
		c4.3,5,5.1,7.2,5.1,13.8c0,5.9,0.1,6.2,4.8,10.8c2.9,3,6.3,5.2,8.9,6c3.5,1,4.9,2.3,7.8,6.7c1.9,3,5.1,6.5,7.2,7.9
		c3.3,2.1,12.7,6.2,18.7,8.1c1.6,0.5,1.8,1.2,1.3,5.7c-0.4,2.8-1.7,7.2-2.9,9.7c-2.1,4.1-2.9,4.8-7.8,6.3
		c-6.9,2.1-29.6,6.9-34.1,7.1c-3.2,0.2-3.5-0.1-6.7-6.8c-4.4-9.1-6.7-11.5-10.9-11.5c-1.9,0-4.4-0.7-5.8-1.6
		c-3.2-2.1-5.5-0.8-9.4,5.5c-1.6,2.8-4,5.5-5.2,6.1c-1.9,1.1-2.1,1.8-1.5,5.7c0.5,3.6,0.2,5-1.4,7c-2.5,3.2-2.5,5.6,0,11.1
		c1.8,3.9,1.8,4.6,0.5,6.5c-2.1,2.9-1.9,7,0.5,11.7c1.6,3.1,2,5.9,2,13.1c0,10.6,3.5,28.1,8.1,40.2c3.1,8.5,3.4,9.7,2,9.7
		c-0.5,0-3.4,1.4-6.3,3.2c-24.6,14.6-34.3,24.6-38.8,40.2c-3.6,12.7-3.5,15,0.7,33.4l0.6,2.4l-3.9-2c-10.8-5.6-24-19.6-29.8-31.8
		c-7.2-14.8-8.4-27.2-4-40.2c1.4-4.2,3.4-9.1,4.5-10.8c3.3-5.5,2.3-5.8-4.5-1.3c-7.9,5.3-15,16.4-18.2,28.4
		c-1.6,5.7-1.8,21.1-0.4,27c0.5,2.2,0.7,4.1,0.5,4.3c-0.8,0.8-5.8-9.1-7.1-14c-2.7-10.1-0.9-23.4,4.3-33c3-5.6,12.4-15.5,18.3-19.4
		c8.2-5.5-2.1-4.4-13.4,1.3c-15.8,8-24.7,19.7-29.6,38.8c-2.1,8.3-2.6,27.3-1.2,42.2l0.8,7.3l-2.9-2.8c-1.6-1.5-5.4-6.4-8.4-11
		c-15.4-23.1-19.2-52.7-9.5-74.7c3.9-9,8.3-15.4,15.7-23.3l5-5.4l-5,0.7c-19.3,2.6-37.2,13-44.6,25.9c-2.5,4.4-2.9,6.1-2.9,12.9
		c0,4.5,0.6,9.2,1.4,11.2c2,4.6,0.5,4.4-3.6-0.4c-4.3-5.1-6.8-12.1-6.8-19.4c0-6,2.7-17.3,5.3-22.3c5.3-10.2,18.2-18.8,27.9-18.5
		c9.6,0.2,31.9-1.8,38.6-3.5c12.1-3,19.5-8.2,25.1-17.5c2.3-3.9,5.3-17,7.1-30.9c2.6-20.3,4.6-26.5,11.6-36.5
		c6.8-9.7,15.2-15.4,32.4-22c17.1-6.4,23.9-11,28.4-18.8c4.1-7.3,4.8-14.7,4.1-41.1c-0.8-27.3-0.3-31.3,6.2-44.3
		c6.5-13.4,22.3-25.6,40.5-31.5c11.4-3.7,20.6-4.1,26.7-1.1l4,2l2.3-2.4c1.3-1.4,3.9-3.4,5.8-4.4C424.5,16.6,463.1,30.1,481.2,46.8z
		"/>
	<path id="path8" class="st2" d="M412.4,37.9c4.9,2.7,17.6,15.2,19.7,19.3c1.9,3.7,4.1,4.9,5.5,2.7c1.4-2.3,12-6.5,16.4-6.4
		c4.3,0,4.5,0.1,5.8,4c0.7,2.1,1.6,6.5,2.1,9.7c0.4,3.2,1,6.1,1.3,6.4c0.4,0.3,4-1.3,8-3.5c8.8-4.8,10.5-5,11.4-1.4
		c1.3,5.2-6.4,55.3-8.6,55.3c-0.4,0-1-2-1.2-4.4c-0.3-2.4-1.7-6.9-3.2-10.1c-7.9-16.6-24.5-24.9-49.6-24.8
		c-32.1,0.1-55.4,12.8-60.7,33.2c-1.5,5.7-1.4,21.6,0.2,27.1c0.7,2.2,0.6,2.3-0.8,1c-2.8-2.7-8.8-14.3-11.8-23
		c-4.2-11.8-7.6-36.1-6.1-43c0.9-4.2,1.8-4.3,10.2-1.2c10.5,3.9,9.9,3.9,9.3-0.6c-0.8-6.1,6.3-20.2,10.2-20.2c0.6,0,4.3,2.2,8.2,5
		c3.9,2.7,8.3,5.4,9.8,6c2.4,0.9,2.6,0.8,2-0.7c-2.1-4.9-1.6-6.8,3.3-14.3c5.9-9.1,11.8-16.3,14.1-17.1
		C408.8,36.5,410.8,37,412.4,37.9z M413,50.9c-2.4,1.3-4,1.6-5.2,1c-0.9-0.5-3.2-0.9-5.1-0.9c-4.4,0-8.7,4.6-8.7,9.3
		c0,2.7,1.3,4.3,7.8,10.4c4.2,4,8.5,7.6,9.5,7.9c2.4,0.8,5.7-2.3,11.3-10.7c5.4-8,5.7-11.7,1.5-16C420.7,48.6,417.9,48.3,413,50.9z
		 M437.4,63.1c-2.9,5.7,0.4,17.3,5.2,18.5c3.2,0.8,9-0.9,13.5-3.9c2.9-2,3.4-2.9,3.3-6c-0.2-4.5-1.8-6.7-5.1-6.7c-1.4,0-4.1-1.4-6-3
		C443.5,57.8,440,58.1,437.4,63.1z M374.3,68.4c-1.7,1.4-3.6,2.6-4.1,2.6c-5,0-9.4,6.2-7.4,10.5c2.5,5.5,16.8,9.2,19.8,5
		c3.5-4.8,4.4-14.1,1.7-17.3C381.4,65.7,377.8,65.5,374.3,68.4z"/>
	<path id="path10" class="st3" d="M417.9,52c2.8,0,7.1,3.6,7.1,6c0,1.8-8.1,14.4-11.1,17.2c-1.7,1.7-2.1,1.4-9.3-5.3
		c-8.3-7.8-9.3-10.4-5.4-14.6c2.6-2.8,4.3-2.9,8.4-0.4l3.2,1.9l2.3-2.4C414.3,53.1,416.5,52,417.9,52z"/>
	<path id="path12" class="st3" d="M447,63.7c1.4,1.9,3.4,3,5.8,3.3c3.3,0.4,3.7,0.9,4,3.6c0.2,1.9-0.3,3.6-1.5,4.6
		c-2.4,2-11,4.9-12.8,4.2c-1.9-0.8-3.5-5.9-3.5-11.6c0-4.1,0.3-5,2.3-5.8C444.5,60.7,444.7,60.7,447,63.7z"/>
	<path id="path14" class="st3" d="M382.9,78.7c-1.6,7-3.2,8.7-7.7,8C371,86,365,81.5,365,79c0-3.7,1.2-5,4.6-5
		c1.8,0,3.7-0.6,4.1-1.3c0.4-0.8,1.7-1.9,2.8-2.5C382.2,67,384.7,70.4,382.9,78.7z"/>
	<path id="path16" class="st4" d="M422,88.4c14.1,0.4,21.7,2.3,31,7.8c10.1,6.1,16.4,17.8,17.6,32.8c0.3,3.6,0.8,7.2,1.2,8
		c1.7,4.4-0.2,23.1-3.4,33.1c-0.8,2.5-2.9,5.9-4.7,7.6c-4.8,4.6-27.7,21.4-30.6,22.5c-2,0.7-6,0.2-16.6-2.3
		c-22.6-5.1-26.7-7.5-34.3-20.1c-2.7-4.6-7.5-12.1-10.6-16.6c-3.1-4.6-5.6-8.6-5.6-8.8s1.5-0.4,3.4-0.4c2.9,0,4.1,0.8,7.6,5
		c5.1,6,8,6.4,15.5,2.1c9.1-5.2,9.6-6.5,7.7-19.2c-1.7-10.9-4.8-15.1-12.2-16.4c-7.7-1.3-16.9,7-17,15.3c0,2.8-0.4,3.3-3,3.9
		c-4.3,0.8-4.6,2.1-0.9,3.7c3.1,1.3,3.1,1.4,1.1,2.5c-1.1,0.6-2.3,1.1-2.6,1.1s-1.5-3.2-2.7-7.1c-1.7-5.5-2-8.7-1.7-14.2
		c1.6-22,15.5-34.2,45.8-40.1C408.4,88.4,415.1,88.3,422,88.4z M429.2,120.7c-0.6,1.5-1.4,5.6-1.7,8.9c-0.6,5-0.3,6.9,1.3,10
		c4.2,8.1,10.6,11.1,21.1,9.8c7.1-0.9,10.1-3.7,10.1-9.5c0-3.6,0.6-4.6,4.2-8c4.4-4,4.4-4.3-0.5-3.9l-2.9,0.2l2.3-3.1
		c2.2-3,2-5.6-0.3-3.3c-2.1,2.1-5.3,1.3-8.4-1.9c-1.6-1.7-4.1-3.7-5.6-4.5C442.5,112.1,431.4,115.1,429.2,120.7z M367,118
		c-2.1,2.1-4,6.1-4,8.3c0,1.1,5.2-4.4,7-7.5C371.6,116.2,369.4,115.6,367,118z M417.5,155.4c-0.5,3.1-0.2,5.2,0.9,7.5
		c2.3,4.3,3.8,3.9,2-0.6c-0.9-2-1.4-5.4-1.2-7.5C419.7,149.5,418.3,150,417.5,155.4z M439.4,170.1c-0.8-0.6-23.2,4.4-24.3,5.4
		c-0.2,0.2,0,2,0.3,4c1.7,8.7,16,10.3,23,2.6c1.3-1.4,1.9-3.6,1.9-6.6C440.3,173,439.9,170.6,439.4,170.1z"/>
	<path id="path18" class="st5" d="M441.4,119.4c1.2,0.3,2.6,0.6,3.2,0.6c2.4,0,6.4,5.4,8.3,11.3c2.5,7.4,2.6,9.5,0.4,11.9
		c-2.3,2.6-3.4,2.2-2.3-0.8c4.7-12.2-5.7-25.8-15-19.8c-2.1,1.3-2,1.1,0.4-1.1C438.4,119.7,440,119,441.4,119.4z"/>
	<path id="path20" class="st5" d="M443.5,124.2c6.2,2.8,8.6,14.8,4,19.4c-2.8,2.8-5.5,2.6-8.8-0.5c-1.7-1.7-5.1-12-4.2-12.9
		c0.5-0.5,0.6-0.3,2.7,6.8c2.3,7.8,8.4,8.7,10.8,1.6c1.7-5.2-0.7-10.1-6-12.2c-3-1.2-3.8-1.9-2.8-2.5
		C440.8,122.8,440.4,122.8,443.5,124.2z"/>
	<path id="path22" class="st6" d="M437.9,173.3c1,0.9,0.5,1.5-2.5,2.8c-2.2,0.9-5.7,1.9-7.9,2.3c-2.2,0.4-4.8,1.5-5.8,2.4
		c-1.8,1.6-2,1.5-3.3-0.3c-2-2.6-1.8-3.2,1.4-3.9c1.5-0.3,5.9-1.4,9.7-2.5C434.7,172.7,436.9,172.5,437.9,173.3z"/>
	<path id="path24" class="st6" d="M437,178.8c0,2.9-8,6.6-12.2,5.7c-5.2-1.2-3.5-2.7,5.7-5C436.9,177.9,437,177.8,437,178.8z"/>
	<path id="path26" class="st5" d="M386.4,129h3.1l-3.2,1.6c-3.3,1.6-6.3,7.3-6.3,11.8c0,3.8,2.1,8.9,4.9,12l2.6,2.8l-2.5-0.7
		c-3.5-1-3.8-1.4-6-7.8c-2.9-8.2-2.6-11.9,1.1-16.2C382.4,129.9,384,129,386.4,129z"/>
	<path id="path28" class="st4" d="M482,133c4.2,4.2,2.2,11.6-6.2,23.4c-3.8,5.3-3.6,2.3,0.4-6.1c3.7-7.8,4.4-14.9,1.6-14.7
		c-2.1,0.2-2.4-1.6-0.6-3.4C478.9,130.5,479.7,130.7,482,133z"/>
	<path id="path30" class="st4" d="M477.5,138c0.9,0,1,1.1,0.2,4.6c-1,4.3-1.1,4.4-2.3,2.3c-0.8-1.7-0.9-2.9-0.1-4.6
		C475.8,139,476.9,138,477.5,138z"/>
	<path id="path32" class="st5" d="M386.5,146.3c2.2,5.7,4.6,7.4,8.4,5.7c2.5-1.2,2.6-1.2,0.7,0.9c-2.9,3.2-6,2.6-9.5-1.6
		c-2.3-2.8-3.1-4.8-3.1-7.7C383,138.8,384.1,139.7,386.5,146.3z"/>
	<path id="path34" class="st4" d="M361.8,158.5l1.7,3c0.9,1.6,4.2,5.4,7.3,8.3c4.5,4.2,5.2,5.2,3.2,4.7c-5.5-1.4-10.1-6.6-11.5-13
		L361.8,158.5z"/>
	<path id="path36" class="st4" d="M446.6,197.1c0-0.1-0.2,5-0.4,11.1c-0.5,13.7-0.2,14.1,12.1,17.3c9,2.3,9,2.4,6.1,9.3l-1.3,3.2
		l-4.6-3.5c-5.8-4.4-10.3-4.7-15.3-0.8l-3.5,2.7l-3.8-2.2c-2.1-1.2-5.3-2.2-7.2-2.2c-4.3,0-9.7,3.6-11.8,7.8l-1.7,3.3l-3.4-4.3
		c-1.9-2.4-4.9-6.4-6.7-9l-3.1-4.7l2.8-1.5c4.3-2.2,6.1-5.7,7.4-14.1c0.8-5.1,1.6-7.5,2.5-7.5c0.8,0,4.2,0.7,7.7,1.6
		c7.4,1.8,11.2,1.1,19.1-3.5C444.3,198.4,446.5,197.1,446.6,197.1z"/>
	<path id="path38" class="st7" d="M496.5,210.1l2.4,2.2c2.9,2.7,5.1,7.7,5.1,11.4c0,1.5-1.1,4.7-2.5,7c-1.3,2.4-2,4.3-1.5,4.3
		c1.6,0,7,10.7,7,13.9c0,2.4-0.6,3.4-2.2,4c-2.3,0.9-2.3,0.9,0.5,2c5.2,2,6.3,9.1,1.3,8.6c-3-0.4-4.4,1.1-1.7,1.8
		c1.5,0.3,1.9,1.8,2.4,7.3c0.3,3.8,0.1,7-0.4,7.2c-0.4,0.2-0.2,1.4,0.7,2.7c1.4,2.2,1.3,2.7-2.8,9.2l-4.3,6.8l-0.3-6.5
		c-0.2-3.6,0.2-8.2,0.8-10.3c1.5-5,0.3-16.5-1.8-19c-1.2-1.4-1.4-2.2-0.5-3.5c0.8-1.3,0.6-2.5-1-5.1c-1.4-2.3-2.1-5.4-2.3-10.3
		c-0.3-6.2-0.6-7.2-2.6-8.2c-1.3-0.6-3.3-3.3-4.6-5.9c-1.5-3.1-3.6-5.6-5.9-6.9l-3.5-2.1l5.4-2.6c2.9-1.4,6.9-3.8,8.8-5.3
		L496.5,210.1z"/>
	<path id="path40" class="st7" d="M336.5,212.8l2.5,0.8c1.4,0.5,4.1,0.8,5.9,0.7c3.6-0.2,4.1,0.2,8.5,7l2,3l-2.7-0.7
		c-1.5-0.3-2.7-0.4-2.7-0.1c0,0.3,2.3,3,5.1,6.1c5.8,6.4,6.4,10.1,1.7,9.6c-1.6-0.2-2.8,0.1-2.8,0.6s1.2,1.3,2.8,1.7
		c4.9,1.2,7,3.3,8.7,8.7c0.9,2.9,1.8,5.8,2.1,6.4c0.2,0.6-1.4,2.3-3.6,3.9c-5.3,3.7-5.1,4.7,0.8,3c6-1.9,6.2-1.9,6.2,0.2
		c0,4.6,3.3,19.2,4.3,19c1.9-0.3,3.7,16.5,1.9,17.7c-0.4,0.2-2.7-1.3-5.1-3.3c-4.4-3.7-4.4-3.8-2.7-6.4c1.9-2.8,1.3-5.1-2.7-9.5
		c-2.5-2.7-4.3-2.8-5.9-0.2c-1.6,2.5-2.8,2.6-2.8,0.3c0-1,2.3-3.9,5.2-6.5c2.8-2.7,4.8-5.1,4.5-5.5c-0.4-0.4-2.2,0.7-4,2.5l-3.2,3.1
		l-3.7-5.6c-2.8-4.1-3.8-6.7-3.8-9.5c0-4.7-1.5-7.8-6.9-14.3c-2.3-2.7-4.1-5.3-4.1-5.7c0-0.5,1.1-0.8,2.5-0.8s2.9-0.8,3.5-1.9
		c0.7-1.3,1.7-1.8,3.2-1.4c2.3,0.5,2.3,0.4-0.2-1.6c-1.4-1.1-4.4-3-6.8-4.2c-5.3-2.8-5.5-3.1-4.1-6.2c0.8-1.7,1.7-2.3,2.8-1.9
		c1.4,0.5,1.4,0.4,0.2-1.4c-0.8-1-2.6-3.2-4-4.8L336.5,212.8z"/>
	<path id="path42" class="st7" d="M335.5,227.2c1.8,1.8,4.4,4,5.6,4.9l2.3,1.6l-3.7,3.3c-2.5,2.2-5.4,6.7-8.9,13.9
		c-4.1,8.6-5.2,10.2-5.9,8.6c-1.3-3.3-1-5.4,1.1-8.3c1.9-2.6,1.9-2.9,0.3-7.3c-1.7-4.5-1.6-4.6,0.9-9c2.3-3.9,2.5-4.7,1.3-6.9
		c-0.7-1.4-1.1-2.8-0.9-3.2C328.7,223.1,332.3,224.2,335.5,227.2z"/>
	<path id="path44" class="st7" d="M480.4,225.4c4.1,1.7,5.1,4.2,3.7,9.3c-1.1,4-4.4,8.1-10,12.5l-3.4,2.6l2.8,3.4
		c4.6,5.4,5.8,9.2,4.1,13.1c-1.6,3.8-6,7.7-8.7,7.7c-1,0-4.1-0.8-6.8-1.9c-2.8-1-5.2-1.6-5.5-1.4c-0.3,0.3,0.1,1.7,0.8,3.2
		c2.6,5.1,2.8,8.6,0.7,10.5c-2,1.8-2.2,1.7-7.8-3.7c-6.6-6.3-7-4.7,4-17.3c7.7-8.9,8.7-10.9,12.2-24.1c2.5-9.8,2.9-10.7,5.3-13.6
		C473.6,223.6,476,223.5,480.4,225.4z"/>
	<path id="path46" class="st7" d="M398.7,228.7c3.6,3.2,14,16.7,16.1,20.9c3.1,6.2,9.5,13.7,16.4,19.5c3.5,2.8,6.4,5.5,6.6,5.9
		c0.5,1.3-9,11-11.4,11.6c-2.8,0.7-6.4-1.9-6.4-4.6c0-0.9,1.1-3.8,2.4-6.6c1.5-3,2.1-5.3,1.5-5.9c-0.6-0.6-4.3,0.2-10.2,2.3
		c-10.8,3.8-13.3,3.9-16.4,1c-4.5-4.2-2.2-8.1,9.4-16.3c7.4-5.2,5.1-7.5-7.6-7.5c-9.1,0-18.5-3.3-29.3-10.4c-5.1-3.2-5.9-4.6-3-4.6
		c0.9,0,6.7-1.6,12.7-3.4C392.2,226.7,396,226.3,398.7,228.7z"/>
	<path id="path48" class="st7" d="M505.7,234.2c1,0.2,8,12.2,18,30.7c15,28.1,17.9,34.2,15.3,32.6c-1.5-0.9-13.1,2.2-18.5,5
		c-2.7,1.5-7.2,4.8-9.8,7.3l-4.9,4.7l-2.9-3.5c-1.6-1.9-2.9-4.4-2.9-5.5c0-1.2,2-4.7,4.4-7.8c2.4-3.2,5.4-7.7,6.5-10l2.1-4.3
		l-2.1-6.2l-2.1-6.2l2.1-4.3c2-4.1,2-4.6,0.6-9.3c-0.8-2.7-1.2-5.6-1-6.4c0.3-0.9-1.1-4.8-3-8.9c-1.9-4-3.5-7.5-3.5-7.8
		C504,234.1,504.7,234,505.7,234.2z"/>
	<path id="path50" class="st3" d="M450.6,235c3.2,0,10.4,6.8,10.4,9.8c0,3.6-17.5,25.2-20.5,25.2c-1.7,0-17-14.5-19.4-18.4
		c-3.1-4.9-2.7-8.2,1.3-12.2c4.3-4.3,7.9-4.5,12.6-0.4c1.9,1.6,3.9,2.9,4.4,3c0.5,0,2.6-1.6,4.7-3.5C446.5,236.4,449,235,450.6,235z
		"/>
	<path id="path52" class="st8" d="M367.3,240.3c6.7,5.6,19.8,11.4,27.2,12.2c3.6,0.4,6.5,0.9,6.5,1.2c0,0.2-1.7,2.2-3.7,4.4
		c-5.2,5.6-6.6,8.6-5.9,12.2c1.6,7.8,7.8,10,18.7,6.7c3.9-1.1,7.3-1.9,7.6-1.6c0.2,0.2,0,1.3-0.6,2.4c-1.9,3.6-1.3,7.2,1.8,10.3
		c4.5,4.5,8.6,4,15.2-1.8c9.6-8.3,8.4-7.9,11.9-4c3.8,4.4,10,7,13.3,5.8c2.9-1.1,3.7-2.9,3.7-8.2V276h4.5c6.1,0,10.1-2.2,12.5-7
		c2.6-5,2.5-9.3-0.1-14.7l-2.1-4.3l5.2-6.2c2.9-3.5,5.5-6.4,5.9-6.5c1.3-0.5,7.2,20.7,8.1,29.2c1.3,11.7-0.2,26.6-4,41
		c-3.7,14.1-5.4,29.4-4.6,40l0.7,8.3l-7.3,1.6c-4,1-14.3,2.6-22.8,3.8c-12.7,1.7-18.4,1.9-32,1.4c-20.4-0.8-31.7-2.6-34.1-5.4
		c-1-1.3-1.9-5-2.3-9.7c-0.8-9.3-4-24.5-5.9-28.2c-2.4-4.8-3.7-12.4-3.6-21.8c0.1-6.9-0.4-10.4-2-15c-1.2-3.3-3.1-9.2-4.1-13
		c-2.2-8.4-4.8-15.6-6.1-17.1c-1.1-1.3-5.9-13.3-5.9-14.7C363,237.3,364.9,238.4,367.3,240.3z"/>
	<path id="path54" class="st7" d="M344.8,249.3c2.6,2.7,3.5,4.6,4.1,9.3c0.6,3.9,2,7.7,4.2,11.2c2.5,4,3,5.5,2.1,6.4
		c-1.7,1.7-1.5,6.3,0.3,7.8c0.9,0.8,3,1.1,5.5,0.7c4.4-0.6,4.2-0.9,4.4,7.2c0.1,5.3,0.3,5.6,4.4,8.4c5,3.3,6.7,6.3,7.6,13.2
		c0.4,2.7,0.9,6.4,1.2,8.2l0.6,3.1l-8.1-0.5c-9-0.6-15.2,0.6-21.7,4.3l-4.2,2.4l-1-2.8c-0.6-1.5-2.4-6.3-4.1-10.7
		c-6.5-17.3-8.3-26.4-8.4-42.3c0-13.4,0.2-15.3,2.5-21.2c1.4-3.6,2.8-7.3,3.2-8.3C338.1,243.5,340.1,244.4,344.8,249.3z"/>
	<path id="path56" class="st7" d="M538.2,302.4c5.5,0.3,7.6,0.9,11,3.2l4.3,2.9l-13,0.5c-11.8,0.5-13.4,0.7-17.6,3.2
		c-4.6,2.7-8.6,7.7-10.9,13.6c-1.9,4.9-4.4,3.9-4.8-1.9c-0.3-3.9,0.2-5.3,3-9c4.3-5.6,10.3-9.8,16.5-11.5
		C529.4,302.6,534.4,302.2,538.2,302.4z"/>
	<path id="path58" class="st0" d="M496.5,310.9l3.8,4.1c3.6,3.8,3.8,4.3,3.1,8.6c-0.8,5.3,1.1,8.1,5.3,8.1c3.1,0,5.3,2.5,11.5,12.6
		c3.7,6.1,4,7.1,2.9,9.4c-0.8,1.8-0.9,2.9-0.1,3.7c0.5,0.5,1,3.1,1,5.7c0,4.5-1.2,6.6-10.6,18.7c-0.1,0.2-2.9-1-6.2-2.8
		c-6.5-3.4-8.3-6.1-10.7-15.9c-0.7-3.1-2.3-9.2-3.4-13.5l-2.1-7.9l2.7-15.4L496.5,310.9z"/>
	<path id="path60" class="st9" d="M546.4,312.9c1.7,0.6,13,21,22.2,40c3.2,6.5,4,12.6,2.4,17.6c-1.3,3.8-10.3,16.4-18.7,26
		c-2.6,3.1-13,13.1-23,22.5c-21.8,20.4-22,20.6-21.3,39c0.9,24.4,0.7,27.1-2,32.5c-3.8,7.4-4.7,6.8-3.6-2.4
		c0.6-5.4,0.6-8.7-0.1-10.3c-0.9-2-1.1-1.5-1.7,3.7c-1.1,10.3-2.3,16.9-3.9,20.5c-1.5,3.4-1.5,2.9-1.6-10.5
		c-0.1-9.4-0.4-13.5-1.1-12.5c-0.5,0.8-1,4.2-1,7.6c0,6.5-2.3,16-4.5,18.2c-1,1.1-1.2-1-0.8-12c0.5-15-2.4-45.1-5.2-52.8
		c-3.1-8.6-3.5-7.9,31.6-53.5c11.5-15,12.9-17.2,12.9-21.2c0-1.7,0.7-3.8,1.5-4.7c2.1-2.1,9.4-3,18.1-2.2c4.1,0.3,7.4,0.2,7.4-0.3
		s-1.7-2.3-3.7-4.1c-3.4-3.1-4-3.2-9.5-2.7c-4,0.3-7.2,1.4-9.8,3.1c-4.2,2.8-5,2.5-5-1.6c0-3.8-1.8-7.9-6.9-15.7
		c-4.7-7.3-5-9.2-1.8-14.3c2.8-4.7,6.7-7.7,12-9.4C533.9,312,543.4,311.7,546.4,312.9z"/>
	<path id="path62" class="st7" d="M368.5,327.1c6.6-0.1,16.5,5.5,16.5,9.3c0,0.3-2.5-0.4-5.7-1.5c-11.1-3.8-23.6-1.6-32,5.6
		c-4.6,3.9-5.8,4.2-6.7,1.9c-0.5-1.2,0.8-3,3.8-6c3.5-3.3,6.4-4.9,12.3-6.8C361,328.2,366.3,327.1,368.5,327.1z"/>
	<path id="path64" class="st9" d="M380.9,339.9c0.8,0.5,1.6,3.2,1.9,6.4c0.3,4.4,0.9,5.7,2.6,6.5c2,1,1.9,1.1-0.7,1.1
		c-1.6,0.1-4.4,0.8-6.3,1.7c-3.4,1.6-9.4,7.6-9.4,9.4c0,0.6,3.5-0.8,7.8-3c4.2-2.2,8.3-4,9.1-4c0.7,0,3,1.5,5.1,3.2
		c2,1.8,8.6,7.3,14.6,12.3c6,4.9,17.3,14.5,25.2,21.2c7.8,6.8,17.7,14.6,22,17.5c21.4,14.4,29.2,27.5,31.3,52.3
		c1.1,13.1,0.5,25.2-1.5,27.5c-0.8,0.8-1.6,3.5-1.9,6c-1.2,8.7-5.4,19.7-7,18c-0.3-0.3,0.5-8,1.7-17.2c1.8-13.2,2-16.8,1-17.2
		c-0.8-0.3-2,1.4-3.2,4.7c-4,10.5-12,26.3-14.6,28.6l-2.6,2.4v-2.4c0-1.3,3.6-10.1,7.9-19.4c4.3-9.4,7.6-17.3,7.4-17.8
		c-0.7-1.2-2.4,0.4-3.9,3.7c-10.3,24-13.3,30.1-14.8,30.4c-1.3,0.3-1.6-0.5-1.6-3.6c0-3.4,1.8-9,8.4-27.1c0.9-2.4,1.4-4.6,1.1-4.9
		c-1.1-1.1-7.8,6.5-12.7,14.3l-5,8l0.5-4.5c0.2-2.5,2.1-8.2,4.1-12.6c4.3-9.3,4.3-10.2,1.1-33.9c-2-15.2-2.5-16.8-6.1-19.1
		c-2.4-1.6-35.6-15.5-41.4-17.3c-1.4-0.5-5.1-2-8.3-3.5c-3.2-1.4-6-2.6-6.4-2.6c-0.6,0-24.1-12.5-30.7-16.3c-6.6-3.9-7.6-6-9.7-21.3
		c-2.7-20.6-2.9-19.7,3.5-24c3-2,7.2-4.2,9.3-4.9C365.1,336.2,376.2,336.9,380.9,339.9z"/>
	<path id="path66" class="st2" d="M492.8,361.4c2.6,5.7,4.5,15.5,3.6,17.6c-2.2,4.8-22.1,18.8-29.2,20.5c-0.9,0.3-4.8,1.4-8.7,2.5
		c-3.8,1.1-8.1,2-9.6,2c-1.9,0-7.2-3.8-19.5-14.1c-9.3-7.8-20-17-23.8-20.5l-6.9-6.2l3.9,0.9c4.6,1.1,15.7,1.9,26.9,1.9h8l-3,1.9
		c-5.4,3.3-6.9,5.7-6.8,11.2c0.1,4.8,0.4,5.5,5.4,10.6c6.7,6.8,14.6,13.3,16.4,13.3c2.3,0,18.4-19.1,19.1-22.6
		c0.8-4.4-1.2-9.9-4.4-12.5c-2.2-1.7-3.6-2-7.4-1.6c-2.6,0.3-5.7,1.3-7,2.1c-2.1,1.3-2.7,1.3-5.8-0.4c-3.3-1.8-3.3-1.9-1-2
		c1.4-0.1,4.5-0.3,7-0.5c2.5-0.2,6.9-0.6,9.8-0.9c4.6-0.3,19.9-3.3,28.7-5.5C491.2,358.4,491.6,358.7,492.8,361.4z"/>
	<path id="path68" class="st10" d="M456.8,370c2.5,0,8.2,5,8.2,7.2c0,3.2-13.7,20.8-16.2,20.8c-1.5,0-14.8-13.1-16.4-16.2
		c-1.9-3.6-1.8-4.2,1.2-7.7c3.2-3.9,7.2-4.1,10.5-0.6c3.1,3.2,3.9,3.1,7.4-0.5C453.1,371.3,455.4,370,456.8,370z"/>
	<path id="path70" class="st8" d="M500.4,382c0.5,0,2.9,1.1,5.2,2.5l4.4,2.6L499.2,401c-5.9,7.6-13.2,17.5-16.2,21.8l-5.6,8l-5.3-6
		c-4.6-5.1-16.6-14.6-20.4-16.2c-2.1-0.8,1.3-2.4,7.3-3.5c10-1.7,25.7-10.2,36.5-19.5C497.7,383.6,499.9,382.1,500.4,382z"/>
	<path id="path72" class="st8" d="M381.8,406.9c2,1,6.9,3.1,10.7,4.6c3.9,1.5,7.4,3.1,8,3.6c0.5,0.5,1.5,0.9,2.2,0.9
		c0.7,0,3.6,1.1,6.5,2.4c2.9,1.3,10.8,4.5,17.5,7.1c15.7,6.1,17.3,7.7,18.4,18.2c0.4,4.3,1.5,11.4,2.3,15.8c1.8,9.3,1.5,11.1-5,25.3
		c-2.2,4.7-3,12.8-1.4,14.7c2,2.4,4.6,0.2,10-8.3c5.3-8.2,6.6-8.5,2.5-0.5c-2.3,4.5-5.5,19.7-4.7,22.2c0.2,0.6,0.9,1.1,1.6,1.1
		c0.7,0,2.2,1.1,3.4,2.5c1.2,1.4,2.7,2.5,3.3,2.5c2.2,0,7.4-6.8,11.4-14.8c2.2-4.5,4.3-8.1,4.6-8.2c0.6,0-0.6,11.7-1.6,15.7
		c-0.5,2.2,1.2,7.3,2.5,7.3c2.5,0,8.9-8.4,10-13.3l0.8-3.2l0.1,3.7c0.1,4.3,1.6,5.6,3.9,3.5c1-0.9,2.7-1.3,4.4-1
		c2.3,0.4,3.3-0.3,7.3-5.4c10.4-13.1,11.6-17.6,10.5-39.4c-1.3-25.2-0.5-26.9,19.8-43.2c6.5-5.2,12.6-10.3,13.7-11.3
		c1.8-1.8,2.1-1.5,13.8,10.6c38.1,39.6,68.2,83.4,87,126.5c6.2,14.1,14.7,44.1,14.7,51.7v4.8l-10.2,4.8c-5.7,2.7-12.8,6.6-15.8,8.6
		c-3.9,2.7-8.2,4.5-15,6.2c-12.9,3.2-19.8,5.6-24.3,8.7c-8.4,5.7-12.9,6.3-31.9,4.1c-3.5-0.4-7.7-0.2-10.5,0.6
		c-2.7,0.6-5.5,1.3-6.3,1.5c-0.8,0.2-4.2,1.5-7.5,2.8c-5.7,2.4-7,2.5-26,2.5c-14.8-0.1-21.9,0.4-27.5,1.6c-10.3,2.2-15.6,2-22.8-0.8
		c-11.5-4.5-15.9-5-26.9-2.7c-11.2,2.2-12.4,2.4-21.5,2.2c-6.3-0.1-7-0.3-10.2-3.6c-3.2-3.2-4-3.5-9.4-3.5c-3.3,0-8.8-0.9-12.2-2
		c-3.4-1.1-7.4-2-8.8-2c-2.7,0-14-5.5-20.7-10c-10.1-6.9-13-7.6-21.7-5.5c-2.2,0.6-4.5-0.5-13-5.8c-8.8-5.5-11.1-6.5-16.1-6.9
		c-5.5-0.4-6-0.7-13-7.5c-6.9-6.8-11.5-9.3-17-9.3c-3.6,0-21.1-12.7-25.9-18.9l-4.7-6l6.1-11.8c12.4-24.1,26.1-47,40.2-66.8
		c22.5-31.9,52.1-61.5,74.6-74.7C369.6,404.4,375.7,403.8,381.8,406.9z M320.2,484.5c-0.1,11.6,0,12.8,1.3,11.1
		c1.1-1.4,1.3-3.4,0.9-7.5C320.6,471.9,320.2,471.3,320.2,484.5z M570,509c-0.6-4.7-0.7-3.9-0.9,5.7c0,7,0.3,11.3,0.9,11.3
		s1-2.5,0.9-5.8C570.8,517.1,570.5,512,570,509z M365.8,507.5c-0.2,0-3.7,0.3-7.8,0.7c-4.1,0.4-11.1,0.5-15.5,0.2
		c-7.1-0.6-7.8-0.5-6.7,0.9c1,1.2,1,1.6,0,2c-0.7,0.2-1,0.7-0.7,1.1c0.4,0.4,6,0,12.5-0.8c15.1-2,15.4-2,15.4,0.4
		c0,3.2,1.7,2.3,2.4-1.2C365.7,509.1,365.9,507.6,365.8,507.5z M311.8,508.1c-0.2,0.1-6.8,1.2-14.8,2.4l-14.5,2.3l12.6,0.1
		c10.4,0.1,12.8-0.2,13.3-1.4c0.3-0.8,1.2-1.5,2.1-1.5c0.8,0,1.5-0.5,1.5-1C312,508.4,311.9,508.1,311.8,508.1z M320.9,524
		c-0.6,0-0.9,1-0.6,2.2c0.3,1.3,0.9,6.3,1.3,11.2c1.1,14.9,2.2,15.2,2.3,0.8c0.1-8.6-0.3-13.1-0.9-12.7c-0.5,0.3-1,0.1-1-0.4
		C322,524.5,321.5,524,320.9,524z M593.8,538c-6.8,0-8.8,0.3-8.8,1.4c0,1,1.5,1.2,7.3,0.8c3.9-0.2,7.9-0.8,8.7-1.3
		C601.9,538.4,599,538,593.8,538z M546,540c-2.9,0.6-2.4,0.8,3.2,0.9c3.7,0,7-0.4,7.3-0.9C557.2,538.9,551.4,538.9,546,540z
		 M571.4,552c-1.5,0-1.6,1-1.1,9.1c0.4,5.6,0.3,8.8-0.3,8.4c-1.3-0.8-6,0.5-6,1.7c0,0.6,1.4,0.8,3.3,0.5c3-0.5,3.5-0.2,4.4,2.1
		l1.1,2.7l0.1-2.8c0.1-2.3,0.5-2.7,3.4-2.8c2.6,0,2.8-0.2,1.2-0.8c-1.1-0.5-2.6-0.6-3.2-0.4c-1,0.4-1.3-1.7-1.3-8.6
		C573,553.3,572.8,552,571.4,552z M531.5,572c-1.3,0.6,0.7,0.9,6.3,0.9c4.8,0.1,8.2-0.3,8.2-0.9C546,570.8,534.3,570.8,531.5,572z
		 M555,581c-1.1,0-1.2,3.3,0,10.5c0.7,4.8,0.7,4.8,0.9-2.8C555.9,584.2,555.6,581,555,581z"/>
	<path id="path74" class="st9" d="M236.3,566.6c1.8,0.9,6.2,4.5,9.9,8c10.8,10.1,22.4,17.4,27.7,17.4c2.8,0,6.8,2.9,15,10.6
		c1.3,1.1,0.6,1.7-4.3,3.9c-7,3.1-6.8,4.4,0.4,2c3.7-1.2,6.4-1.5,9.3-1c2.3,0.4,6,0.9,8.2,1c3.9,0.2,11.4,4.2,19,9.9l3.5,2.7l-4,5.1
		c-4.7,5.8-4.5,7.6,0.3,3.1c3.4-3.3,7.6-5.6,13.7-7.8c3.7-1.3,4-1.3,13.5,4.1c15.3,8.7,32.5,14.4,43,14.4c6.1,0,9.5,1.3,9.5,3.5
		c0,1.9,2.7,3.2,8.9,4.6l5.1,1.1l-2.1,2.9c-2.6,3.6-3.6,10.3-2,12.3c1,1.2,0,1.5-7.3,1.8c-4.8,0.2-8.6,0.1-8.6-0.2s0.7-1.4,1.5-2.4
		c2.1-2.8,1.8-5.9-0.7-8.3c-3.4-3-6.3-4.3-9.8-4.3c-3.2,0-3.2,0-1.6-2.5c4-6,0.7-4.6-8,3.7l-7.5,7.2l-3.7-1.4
		c-7.8-2.8-10.4-4.2-13.4-7c-2.9-2.8-3.2-2.9-5.9-1.4c-3.3,1.7-3.5,1.1-1.4-3.9c2.5-6,1.7-6.4-2.6-1.5c-3.6,4.2-4.5,4.8-8,4.8
		c-3.1,0-4.6-0.6-6.7-2.9c-3.6-3.8-6.3-5.1-10.9-5.1c-2.7,0-5.5-1-9.3-3.5c-3-1.9-6.1-3.5-7-3.5c-3,0-4.1-1.5-3.1-4.2
		c1.4-3.7,0.1-4.3-2-0.9c-1.3,2.2-2.3,2.8-3.9,2.4c-3.6-0.9-3.1-2,2.7-6.4c3.1-2.3,5.2-4.4,4.5-4.7c-0.7-0.2-4.5,2.1-8.6,5.2
		c-4.1,3.1-7.7,5.6-8,5.6c-0.3,0-0.6-1.7-0.6-3.9c0-4.4-2.6-8.3-7-10.6c-3.8-2-8.4-1.9-10.1,0.1c-1.5,1.8-5.3,1.5-11.3-1
		c-3.3-1.4-3.7-1.8-2.5-3.2c0.7-0.9,4.9-3.4,9.3-5.6c8.9-4.5,8.9-6.2,0-2.8c-3.2,1.1-6,1.7-6.4,1.3c-0.4-0.4-1.9-2.9-3.3-5.5
		l-2.7-4.7l5.5-1.2c7-1.5,7.1-2.7,0.3-1.9c-5.2,0.6-11.1,3-12.3,5c-1,1.6-5.1,1.1-6.9-0.9c-1.6-1.7-1.5-2,1.9-4.6
		c4.2-3.2,4-4.3-0.4-2.1c-3.9,2.1-4.3,2-3.9-0.5c0.2-1.7,1.1-2.2,3.6-2.4c1.9-0.2,3.9-0.8,4.5-1.4c0.7-0.7-1.3-1-7-0.8
		c-9.8,0.2-11.8-0.9-17.4-10l-3.7-6.1l5.7-1.5C224.6,564.7,232.4,564.6,236.3,566.6z"/>
	<path id="path76" class="st9" d="M681.7,583c0.7,0,1.5,1.7,1.8,3.7c0.3,2.1,1.6,7.2,3,11.4c3.3,10.6,1.8,15.2-5.4,16.5
		c-7.7,1.4-10.4,3.8-20.1,18.2l-6.5,9.7l-13.5,0.6c-13,0.6-21.4,2.4-24.7,5.1c-1.1,0.9-1.7,0.7-2.8-0.8c-3.6-5-4.4-5.8-5-5.2
		c-0.4,0.4,0.7,2.9,2.4,5.6c3.6,5.7,3.8,6.8,1.1,7.7c-2.7,0.8-3.5,0.2-6.6-5.1c-1.7-2.9-3-4.2-3.6-3.6c-0.6,0.6,0.3,2.9,2.6,6.3
		l3.6,5.3l-2.3,2.4c-5.7,6.1-14,6.9-24.6,2.3c-16.3-7.2-28.5-9.7-32.6-6.8c-1.4,1.1-1.7,2.3-1.3,5.9l0.5,4.5l-4.3-0.5
		c-3.5-0.4-5.2,0.1-9.1,2.5c-11.4,6.8-13.7,7.3-28.7,5.7l-7.9-0.9l-3.5-8.3c-4.1-9.7-7.3-11.3-3.6-1.8c0.6,1.4,0.3,1.4-2.2,0.1
		c-4.1-2.1-6.5-1.9-13.7,1.4c-3.6,1.6-8,3.2-9.8,3.6c-3.3,0.6-20.4-1.6-21.6-2.8c-0.3-0.3-0.9-2.6-1.4-5.1
		c-1.6-8.8-6.4-15.4-6.4-8.9v2.7l-8.5-0.2c-4.7-0.2-8.9-0.7-9.4-1.2s0.2-1.9,1.6-3.3c2-2,3.8-2.5,11.4-3.2
		c17.7-1.6,23.3-1.3,30.6,1.9c6.4,2.7,6.7,3,6.1,5.7c-0.7,3.5,1,3.8,2.5,0.5c0.8-1.8,2.4-2.7,6.4-3.6c9.3-2,30.9-4,44.3-4h13.1
		l2.7,5.5c1.5,3,3.2,5.5,3.8,5.5c0.6,0,0.9-0.7,0.6-1.4c-0.4-1-0.1-1.3,0.9-0.9c2.1,0.8,1.7-0.8-1.2-5.1c-3.2-4.6-3.2-4.6,8.5-8.3
		c8.2-2.6,8.4-2.6,19.8-1.3c13.1,1.4,14.5,2.2,20.3,11.4c3.7,5.9,3.8,6,5.8,4.8c0.9-0.7,0.8-2.1-0.8-6.7c-1.1-3.3-2.5-6.4-3-6.9
		c-1.3-1.3-1.3,0.5,0,4c0.6,1.5,0.9,2.9,0.6,3.1c-0.4,0.4-6.6-8.1-6.6-9.1c0-0.3,6.5-3.7,14.4-7.6c11.6-5.6,15.3-7,18.8-6.9
		c2.4,0.1,6.3-0.2,8.7-0.6c4.2-0.8,4.5-0.7,7.6,3.1c3.5,4.2,5.8,4.1,3.1-0.1c-5.3-8.2-6-6.6,6.1-13.1c16.1-8.7,17.9-9.4,22.1-9.4
		c2.7,0,4.4-0.7,5.9-2.3c3.3-3.6,3.8-5,1.7-4.4c-1.1,0.3-3.4,0.8-5.1,1.2l-3.3,0.7v-5.6V591l7.8-3.9C677,584.9,681,583.1,681.7,583z
		"/>
	<path id="path78" class="st7" d="M246.9,603.9c1.8,1,2,1.5,0.9,3.3c-3.3,5.3-3.6,6.2-2.9,8.2c0.5,1.4,3.7,3.4,9.2,5.8
		c7.4,3.4,9.2,3.8,15.4,3.5l7-0.2l0.3,3.5c0.5,4.9,1.8,6,7.1,6c2.5,0,6,0.7,7.6,1.6c1.7,0.9,4.2,1.8,5.6,2c1.5,0.2,5.3,1.9,8.5,3.9
		c4.5,2.6,7,3.5,10.5,3.5c3.9,0,5,0.5,8,3.6c5.2,5.5,8.1,6.6,16.2,6.3c6.5-0.2,8,0.2,15,3.6c11,5.2,14.5,5.5,18.9,1.6
		c4.5-3.9,8.5-5.4,12.5-4.6c1.8,0.3,3.3,0.8,3.3,1c0,0.1-1,2.2-2.2,4.5c-1.7,3.1-2,4.5-1.2,5.8c1.7,2.7,8.3,4.5,16.9,4.6
		c9.6,0,12.6-1.3,18.6-8.4c2.3-2.7,4.8-5,5.5-5c0.7,0,3,2,5.1,4.5c4.5,5.4,9.3,7.8,18.7,9.5c9.8,1.8,18.5,0.8,25-3
		c3-1.6,6.1-3,6.9-3c0.9,0,3,2.6,4.9,6.2c4.2,7.9,5.2,8.5,12,6.9c3.9-0.9,6-1,8.1-0.2c1.6,0.6,5.4,1.1,8.6,1.1c4.9,0,7.3-0.7,15-4.6
		c8.2-4.1,9.6-4.5,13.6-4c3.9,0.6,4.6,0.5,6-1.8c0.9-1.4,1.5-3.9,1.3-5.8l-0.3-3.3h6c5,0.1,7.8,0.9,16.5,4.8c5.8,2.7,12.5,5,15,5.3
		c5.7,0.7,11.8-1.4,18.4-6.5c2.8-2.1,6.1-4.2,7.3-4.5c2.9-0.9,4.8-3.4,4.8-6.5c0-2.4,0.6-2.7,6-3.9c3.3-0.8,10.5-1.3,16-1.3
		c5.5,0,11.1-0.4,12.5-1c1.4-0.5,4.9-4.4,7.9-8.6l5.5-7.7l0.8,2.9c0.4,1.7,1,5.7,1.4,9c0.3,3.3,1.5,11.1,2.5,17.3
		c2.3,13.7,2.4,25.3,0.4,35.8c-2.2,11.4-5.8,14.7-12.8,11.6c-5.2-2.4-20.5-16.7-29.9-28c-6.3-7.5-7.2-8.2-8.6-6.9
		c-1.3,1.4-1.3,2.5,0.3,10.7c2.2,11.1,1.7,25-1.1,32.5c-1.6,4.2-2.7,5.4-6.4,7.2c-5.1,2.7-9.3,2.9-16.9,0.8
		c-11.1-2.9-18.2-9.9-26.6-26c-7.2-13.8-8.9-13.8-7.9,0.4c0.8,11.8-0.2,15.7-5.9,21.9c-5.1,5.5-9.6,7.8-18.1,9.3
		c-7.8,1.3-17,0-22.1-3.1c-7.3-4.5-12.7-12.7-16.9-25.7c-4.2-12.7-6.3-12.9-8-0.8c-1.2,8.5-3.5,15.3-7.2,21.1
		c-13.6,21.2-32.8,23.9-49.7,6.9c-7.1-7.1-11.5-15-15.7-27.8c-1.8-5.3-3.6-9.7-4-9.7c-0.9,0-3.7,5.7-9.6,19.9
		c-3.8,9-5.9,12.6-10.2,17.2c-12.2,13.2-25.9,12.4-37.2-2.3c-5.7-7.3-9.4-16.2-12.5-30.3c-1.5-6.6-3-12.6-3.4-13.3
		c-0.5-0.9-1.9,0.5-4.6,4.5c-5.8,8.7-22.9,31.4-26.1,34.7c-4.7,4.7-11.6,7.6-17.9,7.6c-10.4,0-16.3-5.1-22.1-18.8
		c-2.9-6.7-2.9-6.7-2.8-28c0.1-14.9-0.2-21.2-1-20.9c-0.6,0.2-3.3,3.7-6.1,7.7c-5.8,8.6-16.2,19.6-22,23.2
		c-10.6,6.6-28.4,10.5-34.3,7.4c-5.1-2.6-5.7-4.7-5.6-18.6l0.1-12.5l4.8-11.5c2.6-6.3,5.7-14,7-17c1.2-3,2.9-7.1,3.8-9
		c0.9-1.9,3.9-9.1,6.8-16c2.8-6.9,5.3-12.8,5.5-13.1C229.1,600,244.3,602.6,246.9,603.9z"/>
	<path id="path80" class="st9" d="M681.7,672.6c0.8,2.1,2.4,6.1,3.4,8.9c1.1,2.7,3.6,11,5.5,18.3c2.8,11.2,3.4,15,3.4,24
		c0,12-1.8,20.3-5.1,23.8c-1.2,1.3-4.2,3.1-6.7,4.1c-3.9,1.4-5.2,1.5-10.6,0.4c-10.2-2.1-20.6-9.1-27.7-18.7c-2.2-3-4.5-5.4-5.2-5.4
		c-0.9,0-1.6,3.4-2.4,11.3c-1.7,16.7-5.8,25.9-13.9,31.4c-2.9,2-4.9,2.5-9.8,2.5c-12,0-24.9-9.6-31.4-23.4
		c-4.8-10.3-5.3-10.2-9.8,1.7c-5.8,15.3-7.8,19.6-11.1,23.5c-8,9.3-19.4,12.2-30.8,7.9c-11.1-4.1-21-16.6-26.6-33.4
		c-2.1-6.5-3.3-7.2-5.3-3.2c-0.9,1.9-1.6,4.5-1.6,5.8c0,3.4-7.3,17.8-11.5,22.7c-2.1,2.4-6.4,5.6-9.8,7.3c-5.7,2.9-6.4,3.1-16.6,2.7
		c-10.1-0.3-10.9-0.5-16.6-3.8c-3.8-2.3-7.1-5.2-9-8.1c-3-4.3-10.5-21.8-10.5-24.3c0-0.6-0.7-2.2-1.6-3.5c-2.1-2.9-3-2-5.9,6.3
		c-4.1,11.7-10.3,19.7-19.6,25c-5.5,3.2-10.6,4.1-21.9,4.1c-10.3-0.1-15.6-1.5-20.8-5.8c-9.9-8.2-15.2-19.6-15.2-33
		c0-5.4-0.5-9-1.3-10.2c-1.3-1.7-1.5-1.7-3,0.6c-1,1.3-1.7,3.2-1.7,4.2c0,3.8-6.4,13.9-11.9,18.9c-9.8,8.7-23.4,13.3-37.7,12.6
		c-9.3-0.5-15.1-3.2-20.2-9.4c-8-9.6-10.3-27.1-5.9-44.7c1.4-5.6,2-10,1.5-10.3s-4.8,3.2-9.6,7.8c-22.6,21.8-48.2,33.2-58.2,26
		c-3.4-2.4-7.8-11.5-9.1-18.7c-1-5.5-0.9-6.7,1.4-13.7c3.1-8.9,11.3-27.8,13-29.5c0.9-0.9,1.2,0.8,1.3,7.5
		c0.1,18.9,8.3,24.3,28.9,19.2c10.2-2.5,14.8-4.6,22-10c5-3.8,12.5-11.3,16.1-16.1l1.9-2.5v11c0.1,17.8,6.2,35.9,14.4,42.7
		c10.9,9,25,7.1,37.1-5.1c5.5-5.4,16.4-19.1,21.6-27c1.5-2.2,3-3.7,3.5-3.5c0.4,0.3,1.1,2.7,1.5,5.3c0.9,6,5.6,19.1,9,25
		c3.7,6.3,10,12.9,15.2,15.9c3.7,2.2,5.7,2.6,11.6,2.6c8.4,0,13.6-2.2,20.1-8.7c4.5-4.5,11.4-15.7,13.4-21.6
		c0.6-1.9,1.7-4.5,2.4-5.8c1.2-2.2,1.5-1.9,4.7,5.5c4.7,10.9,7.4,14.9,14.6,21.9c7.9,7.6,15.6,10.9,25.4,10.8
		c16.3-0.2,31.3-14,36.5-33.4l1.2-4.5l3.4,7c4,8.5,10.6,15.8,17.4,19.3c7.5,3.8,21.2,4.3,29.6,1.1c11.9-4.4,21.8-16.6,22-27.2
		c0-2.9,0.1-3,0.9-0.9c1.8,4.3,8.8,13.8,12.2,16.4c1.8,1.4,5.8,3.8,8.8,5.3c4.8,2.5,6.7,2.8,15,2.9c10.8,0.1,13.1-0.9,17.2-7.2
		c5.9-9,6.9-21.8,3.1-38.2c-0.4-1.7,3.4,1.6,12.6,11.2c14.2,14.7,18.7,17.8,26.3,17.8c4,0,5-0.5,7.7-3.5c1.7-2,3.3-4.5,3.5-5.8
		c2.1-9.8,2.6-13.8,2.6-21c0-4.5,0.3-9.3,0.7-10.6C680.3,668.9,680.4,669,681.7,672.6z"/>
	<path id="path82" class="st7" d="M249.8,715c0.1,0,0,4.6-0.4,10.3c-1.9,30.1,11,47.2,35.6,47.1c14.3-0.1,28.6-6.2,39.3-16.9
		c3.7-3.7,6.7-7.2,6.7-7.6c0-0.5,0.5-0.9,1-0.9c0.6,0,1,0.6,1,1.4s1.2,5,2.6,9.4c3.5,11,9.6,18.5,18.8,23.2
		c6.9,3.5,6.9,3.5,20.5,3.5h13.6l7.3-3.9c8.5-4.5,14.5-10.8,19.3-20l3.4-6.5l2.6,6.7c3.3,8.6,8.8,17.3,13.1,20.5
		c1.9,1.5,6.1,3.9,9.3,5.4c5.3,2.4,7.2,2.8,16,2.8c8.9,0,10.7-0.3,16.3-2.9c9.7-4.5,17.7-14.4,23.1-28.9c1.1-2.8,1.2-2.7,5.6,6.1
		c13.2,26.4,39.9,33.4,57.6,15c4.8-4.9,6.3-7.5,9.9-16.6c2.3-5.9,4.3-10.9,4.5-11c0.2-0.2,1.4,1.6,2.6,3.9c1.2,2.4,4.9,7.2,8.2,10.6
		c6.9,7.3,17.3,12.3,25.2,12.3c8.4,0,18.4-7,23-16.1c2.3-4.4,5.4-17.1,5.6-22.6c0-1.5,0.3-2.2,0.6-1.5c0.7,1.8,15.9,13.1,21.9,16.2
		c3.8,2.1,6.6,2.7,12,2.9c6.6,0.2,7.4,0,12.3-3.3c3.3-2.3,5.3-3.1,5.5-2.3c5.1,18.1,8.8,30.2,18,59.7c6.1,19.5,11,36.3,10.8,37.2
		c-0.3,1.7-15.3,1.8-298.3,1.8c-237.7,0-297.9-0.3-297.9-1.3c0-0.6,1.2-4.4,2.6-8.2c1.4-3.9,3.3-9.3,4.3-12c1-2.8,2.7-7.3,3.9-10
		c12.8-31.3,15.8-38.1,29.8-69c3.8-8.3,7.7-16.5,8.8-18.4l1.9-3.3l2.3,4.5c2.8,5.4,7.2,9.3,12.5,10.8c11.1,3.4,34.5-7.3,52.9-23.9
		C247.5,716.9,249.6,715.1,249.8,715z"/>
	<path d="M452,24.3c26.9,11.9,37.2,20.3,45.7,37.1c3.4,6.8,4.7,10.6,7.8,23.1c1,4.1,1.8,16.5,2.4,38.5c0.6,17.9,1.5,34.5,2.1,36.9
		c1.9,7.8,6.2,15.5,11.9,21.1c9.3,9.2,20.5,14.2,56.6,25.4c40.8,12.7,48.1,16.1,60,28.1c6,6,7.5,8.3,10.3,15.5c1.9,4.7,4,11,4.8,14
		c0.8,3,1.9,6.9,2.4,8.6c1.1,3.4,1.1,16.2,0.1,20.9l-0.7,3l-0.7-4c-0.4-2.2-1.8-6.5-3.1-9.5c-1.3-3-3.1-7.3-4-9.4
		c-3.6-8.2-22.9-29.2-32-34.7c-5.6-3.4-33.4-13.5-34.4-12.5c-0.2,0.3,5.8,7.1,13.3,15.3c7.5,8.1,14.6,16.5,15.6,18.5
		c1.1,2.1,3.9,6,6.3,8.7c5.3,6,19.1,33.5,23.8,47.3c2.9,8.6,3.1,10.3,3.2,23.8c0.1,16.1-1.2,21.8-7.7,33.2
		c-4.1,7.3-14.3,19.5-17.7,21.3c-1.5,0.8-4.1,3-5.8,4.9c-1.7,2-3.3,3.6-3.4,3.6c-0.2,0-0.3-6.4-0.4-14.3c0-13.4-0.2-14.7-3.1-22.4
		c-1.7-4.5-4.6-10.3-6.4-13c-3.4-4.9-17.6-19.3-19-19.3c-0.4,0,1.7,3.3,4.7,7.2c3,4,7.4,11.1,9.7,15.7l4.2,8.4v12.1
		c0,12.9-0.6,15-6,23.6c-3.3,5.2-3.7,4.7-5.5-6.5c-1.5-8.8-3.5-15.4-7.6-24.5c-2.8-6.2-4.4-6.9-4.4-2c0,5.6-10.6,22.5-19.4,30.9
		c-2,1.9-3.6,4-3.6,4.5c0,0.6,4.4,6.1,9.8,12.3c34.8,40,49.1,57,51.7,61.6c1.7,2.9,4.2,6.8,5.7,8.8c1.5,1.9,5.2,8.7,8.2,15.2
		c3,6.4,7.9,15.2,10.8,19.5c2.9,4.2,7.9,13.6,11.1,20.7c3.2,7.2,6.7,14.6,7.7,16.5c1,1.9,2.1,6,2.5,9c0.6,4.9,3.4,18,4,18.8
		c0.2,0.2,2.4-1,4.9-2.6c5.8-3.7,14.2-6.5,17.2-5.8c2.9,0.8,3.2,1.9,4.5,16.2c0.5,6.5,1.2,13.5,1.5,15.4c0.8,5.1-3.8,10.3-11,12.4
		c-2.9,0.9-5.9,2.3-6.6,3.1c-2.6,3.1,1.8,25,7.1,35c1.8,3.3,4.7,10.5,6.6,16c1.9,5.5,4.1,11,4.8,12.2c0.8,1.2,2.7,8.2,4.2,15.5
		c3.2,15.9,3.6,30.8,1,37.6c-1.5,4-1.5,4.6,0.3,10.5c1.1,3.4,3.4,10.9,5.1,16.7c8.8,29.6,13.9,45.9,15.4,49c0.7,1.4,1.6,4.1,2,6
		c1.1,5.7,4.6,16.2,7.1,21.1c1.3,2.6,2,4.9,1.7,5.3c-0.4,0.3-2.1,0.6-4,0.6c-2.8,0-3.3-0.3-3.1-2.2c0-1.3-4.8-18.1-10.9-37.3
		c-9.1-29-12.8-41.2-17.9-59.2c-0.2-0.8-2.2,0-5.5,2.3c-4.9,3.3-5.7,3.5-12.3,3.3c-5.4-0.2-8.2-0.8-12-2.9
		c-6-3.1-21.2-14.4-21.9-16.2c-0.3-0.7-0.6,0-0.6,1.5c-0.2,5.5-3.3,18.2-5.6,22.6c-4.6,9.1-14.6,16.1-23,16.1
		c-7.9,0-18.3-5-25.2-12.3c-3.3-3.4-7-8.2-8.2-10.6c-1.2-2.3-2.4-4.1-2.6-3.9c-0.2,0.1-2.2,5.1-4.5,11c-3.6,9.1-5.1,11.7-9.9,16.6
		c-17.7,18.4-44.4,11.4-57.6-15c-4.4-8.8-4.5-8.9-5.6-6.1c-5.4,14.5-13.4,24.4-23.1,28.9c-5.6,2.6-7.4,2.9-16.3,2.9
		c-8.8,0-10.7-0.4-16-2.8c-3.2-1.5-7.4-3.9-9.3-5.4c-4.3-3.2-9.8-11.9-13.1-20.5l-2.6-6.7l-3.4,6.5c-4.8,9.2-10.8,15.5-19.3,20
		l-7.3,3.9h-13.6c-13.6,0-13.6,0-20.5-3.5c-9.2-4.7-15.3-12.2-18.8-23.2c-1.4-4.4-2.6-8.6-2.6-9.4s-0.4-1.4-1-1.4
		c-0.5,0-1,0.4-1,0.9c0,0.4-3,3.9-6.7,7.6c-10.7,10.7-25,16.8-39.3,16.9c-24.6,0.1-37.5-17-35.6-47.1l0.7-10.4l-7.1,5.9
		c-15.6,13.2-30.7,21.2-42.8,22.8c-9.1,1.2-16.4-3-20.9-12l-2-3.8l-1.9,3.3c-2.2,3.7-11.9,24.9-22.7,49.4c-8.7,19.7-18.5,44.2-26,65
		c-1.2,3.4-2,4-4.6,4.3c-3.4,0.4-4-0.4-1.6-2.2c1.3-1,6.9-14.5,12.4-30.1c1-2.8,3.9-9.9,6.5-15.8c2.5-6,4.6-11.3,4.6-11.8
		s1.7-4.6,3.9-9.2c2.1-4.5,4.2-9.3,4.6-10.7c0.4-1.4,5.4-12.7,11.1-25.1c8.6-18.8,10.6-24,11.4-30c1.8-13.9,10.8-37.3,19-49.4
		c5.3-7.9,13.7-26.3,19.6-43c1.4-3.9,4.3-10.4,6.4-14.7c3-5.6,4-8.8,4-12.2c0-5-1.2-6.7-8-11c-2.3-1.4-3.6-3.1-3.8-4.7
		c-0.2-1.4-2.1-4.3-4.3-6.5c-6.9-6.8-5-9.3,9-11.3c5.3-0.8,11.7-1.5,14.3-1.5l4.6-0.1l3.1-6.3c1.8-3.5,4.9-8.7,7-11.5
		c3.7-4.9,10.2-17.1,13.1-24.7c2.4-6.1,18.1-29.8,32.2-48.7c18.8-25.1,41.1-47.1,61.7-60.8c6.6-4.4,12.1-8.2,12.1-8.5
		s-1.1-1.2-2.4-2c-11.1-7-15.9-10.6-17-12.9c-0.9-1.6-1.8-8.9-2.5-18.5c-0.9-14.5-1.2-16.2-3.6-19.5c-2.9-4.3-3.2-7.2-0.9-10.6
		c1.4-2.1,1.4-3,0.4-5.4l-1.2-2.9l-4.6,2.2c-11.7,5.5-22.8,14.6-31,25.5c-8.2,10.9-10.4,17-10.3,29.3c0,8.5,0.4,10.5,3.2,17.2
		c1.8,4.2,2.9,7.9,2.6,8.2c-0.9,0.9-12.4-5.2-18.5-9.9c-7.4-5.6-19.7-19-23.4-25.5c-4.3-7.5-6.7-19.3-6.8-32.7
		c-0.1-10.2-0.2-10.9-1.6-9c-3.1,3.9-6.2,12.1-7.3,19.4c-1.6,9.9,0.1,21.9,4.5,33.5c1.9,4.9,3.3,9.1,3.1,9.3
		c-0.8,0.8-10.8-7.9-14.6-12.7c-7.3-9.2-8.6-13-8.9-26.7c-0.4-13.3,0.6-18.3,5.4-27.6l2.5-4.7l-3.4,2c-5.1,3-6.2,4.6-11.2,15.8
		c-4.2,9.5-4.6,11.3-5.6,23c-1.1,12.1-0.7,32.9,0.7,41.9c1,6.1-0.8,5.5-6.4-2.3c-2.6-3.7-6.9-9.4-9.5-12.7
		c-6.4-8-11.8-16.5-12.8-20.2c-0.5-1.7-2-6.2-3.4-10c-2.3-6.4-2.5-8.3-2.4-21c0.1-8.7,0.7-15.8,1.6-18.8c1.4-4.8,9.1-20.4,12.7-26
		c2.5-3.8,1.5-4.3-3.6-1.9c-2.4,1.1-6,2.7-8,3.5c-2,0.9-6.8,4.6-10.6,8.4c-8,7.8-9.8,12.1-8.9,21.6c0.5,5.8,4.3,13.2,9.9,19.3
		c2.2,2.5,0.9,4.1-1.9,2.5c-1-0.5-2.2-0.9-2.6-0.9c-2.2,0-12.5-4.8-14.8-6.9c-1.5-1.4-3.9-4.8-5.5-7.6c-2.7-5-2.8-5.7-2.8-19.2v-14
		l4.2-8.6c4.4-9.1,8.3-13.4,15.4-17c8.5-4.3,12.7-5,35.3-5.8c12.5-0.5,23.2-1.3,24.8-2c4.7-1.8,14.5-11,16.6-15.5
		c2.7-5.4,5.6-19,7.7-35.6c1.5-12.1,2.1-14.4,6.1-22.7c3.7-7.7,5.7-10.4,11.9-16.2c8-7.5,16.1-11.9,33.8-18.8
		c12.1-4.6,17.6-8.6,20.5-14.8c3.6-7.7,4.2-13.8,4-41.5c-0.3-30.1,0.4-35.1,6.7-46.2c4.4-7.8,8.9-12.5,17.9-18.7
		c18.4-12.7,39.1-18.7,51.5-15c3.3,1,4.2,0.9,6.7-0.8c1.5-1.1,4.2-2.5,5.8-3.1C420.6,15.4,437.8,18,452,24.3z M413,22.9
		c-1.9,1-4.5,3-5.8,4.4l-2.3,2.4l-4-2c-6.1-3-15.3-2.6-26.7,1.1c-18.2,5.9-34,18.1-40.5,31.5c-6.5,13-7,17-6.2,44.3
		c0.7,26.4,0,33.8-4.1,41.1c-4.5,7.8-11.3,12.4-28.4,18.8c-17.2,6.6-25.6,12.3-32.4,22c-7,10-9,16.2-11.6,36.5
		c-1.8,13.9-4.8,27-7.1,30.9c-5.6,9.3-13,14.5-25.1,17.5c-6.7,1.7-29,3.7-38.6,3.5c-9.7-0.3-22.6,8.3-27.9,18.5
		c-2.6,5-5.3,16.3-5.3,22.3c0,7.3,2.5,14.3,6.8,19.4c4.1,4.8,5.6,5,3.6,0.4c-0.8-2-1.4-6.7-1.4-11.2c0-6.8,0.4-8.5,2.9-12.9
		c7.4-12.9,25.3-23.3,44.6-25.9l5-0.7l-5,5.4c-7.4,7.9-11.8,14.3-15.7,23.3c-9.7,22-5.9,51.6,9.5,74.7c3,4.6,6.8,9.5,8.4,11l2.9,2.8
		l-0.8-7.3c-1.4-14.9-0.9-33.9,1.2-42.2c4.9-19.1,13.8-30.8,29.6-38.8c11.3-5.7,21.6-6.8,13.4-1.3c-5.9,3.9-15.3,13.8-18.3,19.4
		c-5.2,9.6-7,22.9-4.3,33c1.3,4.9,6.3,14.8,7.1,14c0.2-0.2,0-2.1-0.5-4.3c-1.4-5.9-1.2-21.3,0.4-27c3.2-12,10.3-23.1,18.2-28.4
		c6.8-4.5,7.8-4.2,4.5,1.3c-1.1,1.7-3.1,6.6-4.5,10.8c-4.4,13-3.2,25.4,4,40.2c5.8,12.2,19,26.2,29.8,31.8l3.9,2l-0.6-2.4
		c-4.2-18.4-4.3-20.7-0.7-33.4c4.5-15.6,14.2-25.6,38.8-40.2c2.9-1.8,5.8-3.2,6.3-3.2c1.4,0,1.1-1.2-2-9.7
		c-4.6-12.1-8.1-29.6-8.1-40.2c0-7.2-0.4-10-2-13.1c-2.4-4.7-2.6-8.8-0.5-11.7c1.3-1.9,1.3-2.6-0.5-6.5c-2.5-5.5-2.5-7.9,0-11.1
		c1.6-2,1.9-3.4,1.4-7c-0.6-3.9-0.4-4.6,1.5-5.7c1.2-0.6,3.6-3.3,5.2-6.1c3.9-6.3,6.2-7.6,9.4-5.5c1.4,0.9,3.9,1.6,5.8,1.6
		c4.2,0,6.5,2.4,10.9,11.5c3.2,6.7,3.5,7,6.7,6.8c4.5-0.2,27.2-5,34.1-7.1c4.9-1.5,5.7-2.2,7.8-6.3c1.2-2.5,2.5-6.9,2.9-9.7
		c0.5-4.5,0.3-5.2-1.3-5.7c-6-1.9-15.4-6-18.7-8.1c-2.1-1.4-5.3-4.9-7.2-7.9c-2.9-4.4-4.3-5.7-7.8-6.7c-2.6-0.8-6-3-8.9-6
		c-4.7-4.6-4.8-4.9-4.8-10.8c0-6.6-0.8-8.8-5.1-13.8c-4.4-5-10.7-19-14.1-30.9c-2.4-8.9-3-13.3-3.5-25.3
		c-0.6-17.1-0.1-18.5,6.5-18.3c2.2,0.1,5.6,0.9,7.6,1.7l3.5,1.5l5.3-10.2c6.9-13.2,8.1-13.7,18-8.3c3.8,2.1,7.3,3.4,7.8,3
		c0.4-0.5,1.3-2.5,1.9-4.4c2.2-6.8,16.9-24,20.4-24c2.9,0,14.5,8.6,21.2,15.6l7,7.3l8.4-3c9.4-3.2,13.3-3.6,15.4-1.4
		c1.3,1.2,3.2,6.2,6.2,16.1c0.2,0.8,2,0.4,5.2-1.2c6.6-3.2,12-3.2,13.5,0.1c1.6,3.5-0.5,28.8-3.7,44c-3.1,14.7-3.2,18.1-0.6,18.8
		c3.2,0.8,5.4,5.4,5.3,10.8c-0.1,6.3-2.7,11.9-9.1,19.8c-2.8,3.5-5.1,7.3-5.1,8.5c0,1.1-1.3,4.9-2.9,8.3c-2.4,5-4,6.9-8.3,9.8
		c-7.8,5.1-9.8,9.7-9.8,22.3c0,5.3,0.4,10.2,0.8,10.8c3,4.6,15.6,6.2,21.4,2.6c1.8-1.1,6-3.4,9.3-5.2c3.3-1.7,7.4-4.5,9-6.1
		c4.6-4.3,6.9-3.8,11.1,2.5c2.4,3.7,3.8,7.1,4.3,10.8c0.4,3.4,1.7,6.7,3.3,8.9c2.4,3.1,5.4,8.5,14.6,25.9
		c9.4,17.9,18.7,34.9,20.8,38.1c1.3,1.9,4.2,4.5,6.3,5.7c4.9,2.8,5.5,4.3,3.5,9.1l-1.5,3.9l6.4,13.3c3.5,7.4,9.5,18.6,13.4,24.9
		c7.3,12.1,11.2,19.3,15.9,29.9c2.5,5.5,3,6,3.5,4c0.4-1.3,0.7-5.8,0.8-9.9c0.1-16.9-5.7-28.8-22.8-46.3c-4.2-4.2-7.1-7.7-6.5-7.7
		c0.5,0,4.5,1.8,8.9,4.1c14.6,7.4,23.8,16,31.2,29.4c4.8,8.5,7.3,17.1,8.1,28.1l0.7,8.4l4.8-4.1c5.7-4.9,12.5-13.7,15.9-20.4
		c2.8-5.5,5.8-19.1,5.8-25.9c0-7-3.6-25.5-6.4-32.9c-9-23.7-27.3-49.6-52.8-75c-7.6-7.6-13.8-14-13.8-14.2c0-0.5,4.6,0.1,17,2.2
		c17.9,2.9,34.7,11.1,47.3,23.1c6.7,6.4,15.3,17.6,18.6,24c1.2,2.4,2.5,4.2,2.7,3.9c0.9-0.8-4.5-16.8-7.8-23.2
		c-6.3-12.4-15.1-21.1-27.6-27.4c-4.2-2.2-26.3-9.8-30.4-10.6c-1.2-0.3-5.1-1.6-8.8-3c-3.7-1.4-7.5-2.7-8.6-3
		c-2.2-0.4-17.4-5.9-29.2-10.5c-15.7-6.1-24.4-13.6-30.1-26.1c-3.3-7.2-5.1-21-5.1-40.5c-0.1-31.2-5.3-57.9-13.9-71.1
		c-9-13.8-27.1-25.8-50.6-33.5C428.6,21,417.9,20.2,413,22.9z M407.9,36.9c-2.3,0.8-8.2,8-14.1,17.1c-4.9,7.5-5.4,9.4-3.3,14.3
		c0.6,1.5,0.4,1.6-2,0.7c-1.5-0.6-5.9-3.3-9.8-6c-3.9-2.8-7.6-5-8.2-5c-3.9,0-11,14.1-10.2,20.2c0.6,4.5,1.2,4.5-9.3,0.6
		c-8.4-3.1-9.3-3-10.2,1.2c-1.5,6.9,1.9,31.2,6.1,43c3,8.7,9,20.3,11.8,23c1.4,1.3,1.5,1.2,0.8-1c-1.6-5.5-1.7-21.4-0.2-27.1
		c3-11.6,12.7-21.8,25.6-26.9c22.3-8.8,52.2-8.4,68.4,0.9c10,5.7,18.3,17.6,19.5,27.7c0.2,2.4,0.8,4.4,1.2,4.4
		c2.2,0,9.9-50.1,8.6-55.3c-0.9-3.6-2.6-3.4-11.4,1.4c-4,2.2-7.6,3.8-8,3.5c-0.3-0.3-0.9-3.2-1.3-6.4c-0.5-3.2-1.4-7.6-2.1-9.7
		c-1.3-3.9-1.5-4-5.8-4c-4.4-0.1-15,4.1-16.4,6.4c-1.4,2.2-3.6,1-5.5-2.7c-1.1-2.2-5.3-7-9.4-10.8C414.2,38.6,410.2,36,407.9,36.9z
		 M422,88.4c-13.6-0.3-13.8-0.2-25.5,2.8c-22.4,5.8-33.9,18-35.3,37.5c-0.3,5.5,0,8.7,1.7,14.2c1.2,3.9,2.4,7.1,2.7,7.1
		s1.5-0.5,2.6-1.1c2-1.1,2-1.2-1.1-2.5c-3.7-1.6-3.4-2.9,0.9-3.7c2.6-0.6,3-1.1,3-3.9c0.1-8.3,9.3-16.6,17-15.3
		c7.4,1.3,10.5,5.5,12.2,16.4c1.9,12.7,1.4,14-7.7,19.2c-7.5,4.3-10.4,3.9-15.5-2.1c-3.5-4.2-4.7-5-7.6-5c-1.9,0-3.4,0.2-3.4,0.4
		s2.5,4.2,5.6,8.8c3.1,4.5,7.9,12,10.6,16.6c7.6,12.6,11.7,15,34.3,20.1c10.6,2.5,14.6,3,16.6,2.3c2.9-1.1,25.8-17.9,30.6-22.5
		c1.8-1.7,3.9-5.1,4.7-7.6c3.2-10,5.1-28.7,3.4-33.1c-0.4-0.8-0.9-4.4-1.2-8c-1.6-20-11-32.1-29.6-38.2
		C436.1,89.3,431.4,88.7,422,88.4z M389.5,129h-3.1c-4.4,0-9.4,5.6-9.4,10.6c0,3.4,3.3,14.1,4.7,15.5c0.5,0.4,1.9,1,3.3,1.4l2.5,0.7
		l-2.6-2.8c-2.8-3.1-4.9-8.2-4.9-12c0-4.5,3-10.2,6.3-11.8L389.5,129z M477.2,132.2c-1.8,1.8-1.5,3.6,0.6,3.4
		c2.8-0.2,2.1,6.9-1.6,14.7c-4,8.4-4.2,11.4-0.4,6.1c8.4-11.8,10.4-19.2,6.2-23.4C479.7,130.7,478.9,130.5,477.2,132.2z M477.5,138
		c-2.1,0-3.4,4.3-2.1,6.9c1.2,2.1,1.3,2,2.3-2.3C478.5,139.1,478.4,138,477.5,138z M383,143.6c0,2.9,0.8,4.9,3.1,7.7
		c3.5,4.2,6.6,4.8,9.5,1.6c1.9-2.1,1.8-2.1-0.7-0.9c-3.8,1.7-6.2,0-8.4-5.7C384.1,139.7,383,138.8,383,143.6z M363.5,161.5l-1.7-3
		l0.7,3c1.4,6.4,6,11.6,11.5,13c2,0.5,1.3-0.5-3.2-4.7C367.7,166.9,364.4,163.1,363.5,161.5z M446.6,197.1c-0.1,0-2.3,1.3-5.1,3
		c-7.9,4.6-11.7,5.3-19.1,3.5c-3.5-0.9-6.9-1.6-7.7-1.6c-0.9,0-1.7,2.4-2.5,7.5c-1.3,8.4-3.1,11.9-7.4,14.1l-2.8,1.5l3.1,4.7
		c1.8,2.6,4.8,6.6,6.7,9l3.4,4.3l1.7-3.3c2.1-4.2,7.5-7.8,11.8-7.8c1.9,0,5.1,1,7.2,2.2l3.8,2.2l3.5-2.7c5-3.9,9.5-3.6,15.3,0.8
		l4.6,3.5l1.3-3.2c2.9-6.9,2.9-7-6.1-9.3c-12.3-3.2-12.6-3.6-12.1-17.3C446.4,202.1,446.6,197,446.6,197.1z M498.9,212.3l-2.4-2.2
		l-3.5,2.7c-1.9,1.5-5.9,3.9-8.8,5.3l-5.4,2.6l3.5,2.1c2.3,1.3,4.4,3.8,5.9,6.9c1.3,2.6,3.3,5.3,4.6,5.9c2,1,2.3,2,2.6,8.2
		c0.2,4.9,0.9,8,2.3,10.3c1.6,2.6,1.8,3.8,1,5.1c-0.9,1.3-0.7,2.1,0.5,3.5c2.1,2.5,3.3,14,1.8,19c-0.6,2.1-1,6.7-0.8,10.3l0.3,6.5
		l4.3-6.8c4.1-6.5,4.2-7,2.8-9.2c-0.9-1.3-1.1-2.5-0.7-2.7c0.5-0.2,0.7-3.4,0.4-7.2c-0.5-5.5-0.9-7-2.4-7.3
		c-2.7-0.7-1.3-2.2,1.7-1.8c5,0.5,3.9-6.6-1.3-8.6c-2.8-1.1-2.8-1.1-0.5-2c1.6-0.6,2.2-1.6,2.2-4c0-3.2-5.4-13.9-7-13.9
		c-0.5,0,0.2-1.9,1.5-4.3c2.8-4.8,3.1-8.3,1.1-13C501.9,215.9,500.2,213.5,498.9,212.3z M339,213.6l-2.5-0.8l2.6,2.8
		c1.4,1.6,3.2,3.8,4,4.8c1.2,1.8,1.2,1.9-0.2,1.4c-1.1-0.4-2,0.2-2.8,1.9c-1.4,3.1-1.2,3.4,4.1,6.2c2.4,1.2,5.4,3.1,6.8,4.2
		c2.5,2,2.5,2.1,0.2,1.6c-1.5-0.4-2.5,0.1-3.2,1.4c-0.6,1.1-2.1,1.9-3.5,1.9s-2.5,0.3-2.5,0.8c0,0.4,1.8,3,4.1,5.7
		c5.4,6.5,6.9,9.6,6.9,14.3c0,2.8,1,5.4,3.8,9.5l3.7,5.6l3.2-3.1c1.8-1.8,3.6-2.9,4-2.5c0.3,0.4-1.7,2.8-4.5,5.5
		c-2.9,2.6-5.2,5.5-5.2,6.5c0,2.3,1.2,2.2,2.8-0.3c1.6-2.6,3.4-2.5,5.9,0.2c4,4.4,4.6,6.7,2.7,9.5c-1.7,2.6-1.7,2.7,2.7,6.4
		c2.4,2,4.7,3.5,5.1,3.3c1.8-1.2,0-18-1.9-17.7c-1,0.2-4.3-14.4-4.3-19c0-2.1-0.2-2.1-6.2-0.2c-5.9,1.7-6.1,0.7-0.8-3
		c2.2-1.6,3.8-3.3,3.6-3.9c-0.3-0.6-1.2-3.5-2.1-6.4c-1.7-5.4-3.8-7.5-8.7-8.7c-1.6-0.4-2.8-1.2-2.8-1.7s1.2-0.8,2.8-0.6
		c4.7,0.5,4.1-3.2-1.7-9.6c-2.8-3.1-5.1-5.8-5.1-6.1c0-0.3,1.2-0.2,2.7,0.1l2.7,0.7l-2-3c-4.4-6.8-4.9-7.2-8.5-7
		C343.1,214.4,340.4,214.1,339,213.6z M328.5,228c1.2,2.2,1,3-1.3,6.9c-2.5,4.4-2.6,4.5-0.9,9c1.6,4.4,1.6,4.7-0.3,7.3
		c-2.1,2.9-2.4,5-1.1,8.3c0.7,1.6,1.8,0,5.9-8.6c3.5-7.2,6.4-11.7,8.9-13.9l3.7-3.3l-2.3-1.6c-1.2-0.9-3.8-3.1-5.6-4.9
		C330.4,222.4,325.8,222.9,328.5,228z M471.8,225.7c-2.4,2.9-2.8,3.8-5.3,13.6c-3.5,13.2-4.5,15.2-12.2,24.1
		c-11,12.6-10.6,11-4,17.3c5.6,5.4,5.8,5.5,7.8,3.7c2.1-1.9,1.9-5.4-0.7-10.5c-0.7-1.5-1.1-2.9-0.8-3.2c0.3-0.2,2.7,0.4,5.5,1.4
		c2.7,1.1,5.8,1.9,6.8,1.9c2.7,0,7.1-3.9,8.7-7.7c1.7-3.9,0.5-7.7-4.1-13.1l-2.8-3.4l3.4-2.6c11.2-8.7,14.1-18.6,6.3-21.8
		C476,223.5,473.6,223.6,471.8,225.7z M379.5,230.6c-6,1.8-11.8,3.4-12.7,3.4c-2.9,0-2.1,1.4,3,4.6c10.8,7.1,20.2,10.4,29.3,10.4
		c12.7,0,15,2.3,7.6,7.5c-11.6,8.2-13.9,12.1-9.4,16.3c3.1,2.9,5.6,2.8,16.4-1c5.9-2.1,9.6-2.9,10.2-2.3c0.6,0.6,0,2.9-1.5,5.9
		c-1.3,2.8-2.4,5.7-2.4,6.6c0,2.7,3.6,5.3,6.4,4.6c2.4-0.6,11.9-10.3,11.4-11.6c-0.2-0.4-3.1-3.1-6.6-5.9
		c-6.9-5.8-13.3-13.3-16.4-19.5c-2.1-4.2-12.5-17.7-16.1-20.9C396,226.3,392.2,226.7,379.5,230.6z M505.7,234.2
		c-2.2-0.5-2.2-0.5,1.8,7.9c1.9,4.1,3.3,8,3,8.9c-0.2,0.8,0.2,3.7,1,6.4c1.4,4.7,1.4,5.2-0.6,9.3l-2.1,4.3l2.1,6.2l2.1,6.2l-2.1,4.3
		c-1.1,2.3-4.1,6.8-6.5,10c-2.4,3.1-4.4,6.6-4.4,7.8c0,1.1,1.3,3.6,2.9,5.5l2.9,3.5l4.9-4.7c2.6-2.5,7.1-5.8,9.8-7.3
		c5.4-2.8,17-5.9,18.5-5c2.6,1.6-0.3-4.5-15.3-32.6C513.7,246.4,506.7,234.4,505.7,234.2z M444.1,238.5c-2.1,1.9-4.2,3.5-4.7,3.5
		c-0.5-0.1-2.5-1.4-4.4-3c-4.7-4.1-8.3-3.9-12.6,0.4c-4,4-4.4,7.3-1.3,12.2c2.4,3.9,17.7,18.4,19.4,18.4c3,0,20.5-21.6,20.5-25.2
		c0-1.1-1.7-3.8-3.9-5.9C452.2,233.9,449.3,233.9,444.1,238.5z M367.3,240.3c-2.4-1.9-4.3-3-4.3-2.6c0,1.4,4.8,13.4,5.9,14.7
		c1.3,1.5,3.9,8.7,6.1,17.1c1,3.8,2.9,9.7,4.1,13c1.6,4.6,2.1,8.1,2,15c-0.1,9.4,1.2,17,3.6,21.8c1.9,3.7,5.1,18.9,5.9,28.2
		c0.4,4.7,1.3,8.4,2.3,9.7c2.4,2.8,13.7,4.6,34.1,5.4c13.6,0.5,19.3,0.3,32-1.4c8.5-1.2,18.8-2.8,22.8-3.8l7.3-1.6l-0.7-8.3
		c-0.8-10.6,0.9-25.9,4.6-40c3.8-14.4,5.3-29.3,4-41c-0.9-8.5-6.8-29.7-8.1-29.2c-0.4,0.1-3,3-5.9,6.5l-5.2,6.2l2.1,4.3
		c2.6,5.4,2.7,9.7,0.1,14.7c-2.4,4.8-6.4,7-12.5,7H463v3.9c0,5.3-0.8,7.1-3.7,8.2c-3.3,1.2-9.5-1.4-13.3-5.8
		c-3.5-3.9-2.3-4.3-11.9,4c-6.6,5.8-10.7,6.3-15.2,1.8c-3.1-3.1-3.7-6.7-1.8-10.3c0.6-1.1,0.8-2.2,0.6-2.4c-0.3-0.3-3.7,0.5-7.6,1.6
		c-10.9,3.3-17.1,1.1-18.7-6.7c-0.7-3.6,0.7-6.6,5.9-12.2c2-2.2,3.7-4.2,3.7-4.4c0-0.3-2.9-0.8-6.5-1.2c-4.4-0.4-9-1.9-14.7-4.7
		C375.2,245.6,369.6,242.3,367.3,240.3z M337.4,245.7c-0.4,1-1.8,4.7-3.2,8.3c-2.3,5.9-2.5,7.8-2.5,21.2c0.1,15.9,1.9,25,8.4,42.3
		c1.7,4.4,3.5,9.2,4.1,10.7l1,2.8l4.2-2.4c6.5-3.7,12.7-4.9,21.7-4.3l8.1,0.5l-0.6-3.1c-0.3-1.8-0.8-5.5-1.2-8.2
		c-0.9-6.9-2.6-9.9-7.6-13.2c-4.1-2.8-4.3-3.1-4.4-8.4c-0.2-8.1,0-7.8-4.4-7.2c-2.5,0.4-4.6,0.1-5.5-0.7c-1.8-1.5-2-6.1-0.3-7.8
		c0.9-0.9,0.4-2.4-2.1-6.4c-2.2-3.5-3.6-7.3-4.2-11.2c-0.6-4.7-1.5-6.6-4.1-9.3C340.1,244.4,338.1,243.5,337.4,245.7z M538.2,302.4
		c-11.8-0.7-21.1,3.5-28,12.5c-2.8,3.7-3.3,5.1-3,9c0.4,5.8,2.9,6.8,4.8,1.9c2.3-5.9,6.3-10.9,10.9-13.6c4.2-2.5,5.8-2.7,17.6-3.2
		l13-0.5l-4.3-2.9C545.8,303.3,543.7,302.7,538.2,302.4z M500.3,315l-3.8-4.1l-2.8,15.4l-2.7,15.4l2.1,7.9
		c1.1,4.3,2.7,10.4,3.4,13.5c2.4,9.8,4.2,12.5,10.7,15.9c3.3,1.8,6.1,3,6.2,2.8c9.4-12.1,10.6-14.2,10.6-18.7c0-2.6-0.5-5.2-1-5.7
		c-0.8-0.8-0.7-1.9,0.1-3.7c1.1-2.3,0.8-3.3-2.9-9.4c-6.2-10.1-8.4-12.6-11.5-12.6c-4.2,0-6.1-2.8-5.3-8.1
		C504.1,319.3,503.9,318.8,500.3,315z M529.3,313.4c-5.3,1.7-9.2,4.7-12,9.4c-3.2,5.1-2.9,7,1.8,14.3c5.1,7.8,6.9,11.9,6.9,15.7
		c0,4.1,0.8,4.4,5,1.6c2.6-1.7,5.8-2.8,9.8-3.1c5.5-0.5,6.1-0.4,9.5,2.7c2,1.8,3.7,3.6,3.7,4.1s-3.3,0.6-7.4,0.3
		c-8.7-0.8-16,0.1-18.1,2.2c-0.8,0.9-1.5,3-1.5,4.7c0,4-1.4,6.2-12.9,21.2c-35.1,45.6-34.7,44.9-31.6,53.5
		c2.8,7.7,5.7,37.8,5.2,52.8c-0.4,11-0.2,13.1,0.8,12c2.2-2.2,4.5-11.7,4.5-18.2c0-3.4,0.5-6.8,1-7.6c0.7-1,1,3.1,1.1,12.5
		c0.1,13.4,0.1,13.9,1.6,10.5c1.6-3.6,2.8-10.2,3.9-20.5c0.6-5.2,0.8-5.7,1.7-3.7c0.7,1.6,0.7,4.9,0.1,10.3
		c-1.1,9.2-0.2,9.8,3.6,2.4c2.7-5.4,2.9-8.1,2-32.5c-0.7-18.4-0.5-18.6,21.3-39c10-9.4,20.4-19.4,23-22.5c8.4-9.6,17.4-22.2,18.7-26
		c1.6-5,0.8-11.1-2.4-17.6c-9.2-19-20.5-39.4-22.2-40C543.4,311.7,533.9,312,529.3,313.4z M356.7,329.6c-5.9,1.9-8.8,3.5-12.3,6.8
		c-3,3-4.3,4.8-3.8,6c0.9,2.3,2.1,2,6.7-1.9c8.4-7.2,20.9-9.4,32-5.6c3.2,1.1,5.7,1.8,5.7,1.5c0-2.1-3-4.9-7.3-7
		C371.2,326.4,366.5,326.4,356.7,329.6z M358.7,338.5c-2.1,0.7-6.3,2.9-9.3,4.9c-6.4,4.3-6.2,3.4-3.5,24c2.1,15.3,3.1,17.4,9.7,21.3
		c6.6,3.8,30.1,16.3,30.7,16.3c0.4,0,3.2,1.2,6.4,2.6c3.2,1.5,6.9,3,8.3,3.5c5.8,1.8,39,15.7,41.4,17.3c3.6,2.3,4.1,3.9,6.1,19.1
		c3.2,23.7,3.2,24.6-1.1,33.9c-2,4.4-3.9,10.1-4.1,12.6l-0.5,4.5l5-8c4.9-7.8,11.6-15.4,12.7-14.3c0.3,0.3-0.2,2.5-1.1,4.9
		c-6.6,18.1-8.4,23.7-8.4,27.1c0,3.1,0.3,3.9,1.6,3.6c1.5-0.3,4.5-6.4,14.8-30.4c1.5-3.3,3.2-4.9,3.9-3.7c0.2,0.5-3.1,8.4-7.4,17.8
		c-4.3,9.3-7.9,18.1-7.9,19.4v2.4l2.6-2.4c2.6-2.3,10.6-18.1,14.6-28.6c1.2-3.3,2.4-5,3.2-4.7c1,0.4,0.8,4-1,17.2
		c-1.2,9.2-2,16.9-1.7,17.2c1.6,1.7,5.8-9.3,7-18c0.3-2.5,1.1-5.2,1.9-6c2-2.3,2.6-14.4,1.5-27.5c-2.1-24.8-9.9-37.9-31.3-52.3
		c-4.3-2.9-14.2-10.7-22-17.5c-7.9-6.7-19.2-16.3-25.2-21.2c-6-5-12.6-10.5-14.6-12.3c-2.1-1.7-4.4-3.2-5.1-3.2
		c-0.8,0-4.9,1.8-9.1,4c-4.3,2.2-7.8,3.6-7.8,3c0-1.8,6-7.8,9.4-9.4c1.9-0.9,4.7-1.6,6.3-1.7c2.6,0,2.7-0.1,0.7-1.1
		c-1.7-0.8-2.3-2.1-2.6-6.5c-0.5-5.9-1.2-6.7-6.8-8.3C371.1,336.6,363.2,336.8,358.7,338.5z M492.8,361.4c-1.2-2.7-1.6-3-4.3-2.3
		c-8.8,2.2-24.1,5.2-28.7,5.5c-2.9,0.3-7.3,0.7-9.8,0.9c-2.5,0.2-5.6,0.4-7,0.5c-2.3,0.1-2.3,0.2,1,2c3.1,1.7,3.7,1.7,5.8,0.4
		c1.3-0.8,4.4-1.8,7-2.1c3.8-0.4,5.2-0.1,7.4,1.6c3.2,2.6,5.2,8.1,4.4,12.5c-0.7,3.5-16.8,22.6-19.1,22.6c-1.8,0-9.7-6.5-16.4-13.3
		c-5-5.1-5.3-5.8-5.4-10.6c-0.1-5.5,1.4-7.9,6.8-11.2l3-1.9h-8c-11.2,0-22.3-0.8-26.9-1.9l-3.9-0.9l6.9,6.2
		c3.8,3.5,14.5,12.7,23.8,20.5c12.3,10.3,17.6,14.1,19.5,14.1c1.5,0,5.8-0.9,9.6-2c3.9-1.1,7.8-2.2,8.7-2.5
		c7.1-1.7,27-15.7,29.2-20.5c0.6-1.3,0.3-4.2-0.7-8.3C494.9,367.3,493.6,363.1,492.8,361.4z M451.5,373c-3.5,3.6-4.3,3.7-7.4,0.5
		c-3.3-3.5-7.3-3.3-10.5,0.6c-3,3.5-3.1,4.1-1.2,7.7c1.6,3.1,14.9,16.2,16.4,16.2c2.5,0,16.2-17.6,16.2-20.8c0-0.7-1.3-2.7-2.9-4.3
		C458.3,369.2,455.1,369.2,451.5,373z M500.4,382c-0.5,0.1-2.7,1.6-4.9,3.6c-10.8,9.3-26.5,17.8-36.5,19.5c-6,1.1-9.4,2.7-7.3,3.5
		c3.8,1.6,15.8,11.1,20.4,16.2l5.3,6l5.6-8c3-4.3,10.3-14.2,16.2-21.8l10.8-13.9l-4.4-2.6C503.3,383.1,500.9,382,500.4,382z
		 M362,408.8c-22.5,13.2-52.1,42.8-74.6,74.7c-14.1,19.8-27.8,42.7-40.2,66.8l-6.1,11.8l4.7,6c4.8,6.2,22.3,18.9,25.9,18.9
		c5.5,0,10.1,2.5,17,9.3c7,6.8,7.5,7.1,13,7.5c5,0.4,7.3,1.4,16.1,6.9c8.5,5.3,10.8,6.4,13,5.8c8.7-2.1,11.6-1.4,21.7,5.5
		c6.7,4.5,18,10,20.7,10c1.4,0,5.4,0.9,8.8,2c3.4,1.1,8.9,2,12.2,2c5.4,0,6.2,0.3,9.4,3.5c3.2,3.3,3.9,3.5,10.2,3.6
		c9.1,0.2,10.3,0,21.5-2.2c11-2.3,15.4-1.8,26.9,2.7c7.2,2.8,12.5,3,22.8,0.8c5.6-1.2,12.7-1.7,27.5-1.6c19,0,20.3-0.1,26-2.5
		c3.3-1.3,6.7-2.6,7.5-2.8c0.8-0.2,3.6-0.9,6.3-1.5c2.8-0.8,7-1,10.5-0.6c19,2.2,23.5,1.6,31.9-4.1c4.5-3.1,11.4-5.5,24.3-8.7
		c6.8-1.7,11.1-3.5,15-6.2c3-2,10.1-5.9,15.8-8.6L660,603v-4.8c0-7.6-8.5-37.6-14.7-51.7c-18.8-43.1-48.9-86.9-87-126.5
		c-11.7-12.1-12-12.4-13.8-10.6c-1.1,1-7.2,6.1-13.7,11.3c-20.3,16.3-21.1,18-19.8,43.2c1.1,21.8-0.1,26.3-10.5,39.4
		c-4,5.1-5,5.8-7.3,5.4c-1.7-0.3-3.4,0.1-4.4,1c-2.3,2.1-3.8,0.8-3.9-3.5l-0.1-3.7l-0.8,3.2c-1.1,4.9-7.5,13.3-10,13.3
		c-1.3,0-3-5.1-2.5-7.3c1-4,2.2-15.7,1.6-15.7c-0.3,0.1-2.4,3.7-4.6,8.2c-4,8-9.2,14.8-11.4,14.8c-0.6,0-2.1-1.1-3.3-2.5
		c-1.2-1.4-2.7-2.5-3.4-2.5c-0.7,0-1.4-0.5-1.6-1.1c-0.8-2.5,2.4-17.7,4.7-22.2c4.1-8,2.8-7.7-2.5,0.5c-5.4,8.5-8,10.7-10,8.3
		c-1.6-1.9-0.8-10,1.4-14.7c6.5-14.2,6.8-16,5-25.3c-0.8-4.4-1.9-11.5-2.3-15.8c-1.1-10.5-2.7-12.1-18.4-18.2
		c-6.7-2.6-14.6-5.8-17.5-7.1c-2.9-1.3-5.8-2.4-6.5-2.4c-0.7,0-1.7-0.4-2.2-0.9c-0.6-0.5-4.1-2.1-8-3.6c-3.8-1.5-8.7-3.6-10.7-4.6
		C375.7,403.8,369.6,404.4,362,408.8z M216.9,566.7l-5.7,1.5l3.7,6.1c5.6,9.1,7.6,10.2,17.4,10c5.7-0.2,7.7,0.1,7,0.8
		c-0.6,0.6-2.6,1.2-4.5,1.4c-2.5,0.2-3.4,0.7-3.6,2.4c-0.4,2.5,0,2.6,3.9,0.5c4.4-2.2,4.6-1.1,0.4,2.1c-3.4,2.6-3.5,2.9-1.9,4.6
		c1.8,2,5.9,2.5,6.9,0.9c1.2-2,7.1-4.4,12.3-5c6.8-0.8,6.7,0.4-0.3,1.9l-5.5,1.2l2.7,4.7c1.4,2.6,2.9,5.1,3.3,5.5
		c0.4,0.4,3.2-0.2,6.4-1.3c8.9-3.4,8.9-1.7,0,2.8c-4.4,2.2-8.6,4.7-9.3,5.6c-1.2,1.4-0.8,1.8,2.5,3.2c6,2.5,9.8,2.8,11.3,1
		c1.7-2,6.3-2.1,10.1-0.1c4.4,2.3,7,6.2,7,10.6c0,2.2,0.3,3.9,0.6,3.9c0.3,0,3.9-2.5,8-5.6c4.1-3.1,7.9-5.4,8.6-5.2
		c0.7,0.3-1.4,2.4-4.5,4.7c-5.8,4.4-6.3,5.5-2.7,6.4c1.6,0.4,2.6-0.2,3.9-2.4c2.1-3.4,3.4-2.8,2,0.9c-1,2.7,0.1,4.2,3.1,4.2
		c0.9,0,4,1.6,7,3.5c3.8,2.5,6.6,3.5,9.3,3.5c4.6,0,7.3,1.3,10.9,5.1c2.1,2.3,3.6,2.9,6.7,2.9c3.5,0,4.4-0.6,8-4.8
		c4.3-4.9,5.1-4.5,2.6,1.5c-2.1,5-1.9,5.6,1.4,3.9c2.7-1.5,3-1.4,5.9,1.4c3,2.8,5.6,4.2,13.4,7l3.7,1.4l7.5-7.2
		c8.7-8.3,12-9.7,8-3.7c-1.6,2.5-1.6,2.5,1.6,2.5c3.5,0,6.4,1.3,9.8,4.3c2.5,2.4,2.8,5.5,0.7,8.3c-0.8,1-1.5,2.1-1.5,2.4
		s3.8,0.4,8.6,0.2c7.3-0.3,8.3-0.6,7.3-1.8c-1.6-2-0.6-8.7,2-12.3l2.1-2.9l-5.1-1.1c-6.2-1.4-8.9-2.7-8.9-4.6c0-2.2-3.4-3.5-9.5-3.5
		c-10.5,0-27.7-5.7-43-14.4c-9.5-5.4-9.8-5.4-13.5-4.1c-6.1,2.2-10.3,4.5-13.7,7.8c-4.8,4.5-5,2.7-0.3-3.1l4-5.1l-3.5-2.7
		c-7.6-5.7-15.1-9.7-19-9.9c-2.2-0.1-5.9-0.6-8.2-1c-2.9-0.5-5.6-0.2-9.3,1c-7.2,2.4-7.4,1.1-0.4-2c4.9-2.2,5.6-2.8,4.3-3.9
		c-8.2-7.7-12.2-10.6-15-10.6c-5.3,0-16.9-7.3-27.7-17.4c-3.7-3.5-8.1-7.1-9.9-8C232.4,564.6,224.6,564.7,216.9,566.7z M681.7,583
		c-0.7,0.1-4.7,1.9-8.9,4.1L665,591v5.6v5.6l3.3-0.7c1.7-0.4,4-0.9,5.1-1.2c2.1-0.6,1.6,0.8-1.7,4.4c-1.5,1.6-3.2,2.3-5.9,2.3
		c-4.2,0-6,0.7-22.1,9.4c-12.1,6.5-11.4,4.9-6.1,13.1c2.7,4.2,0.4,4.3-3.1,0.1c-3.1-3.8-3.4-3.9-7.6-3.1c-2.4,0.4-6.3,0.7-8.7,0.6
		c-3.5-0.1-7.2,1.3-18.8,6.9c-7.9,3.9-14.4,7.3-14.4,7.6c0,1,6.2,9.5,6.6,9.1c0.3-0.2,0-1.6-0.6-3.1c-1.3-3.5-1.3-5.3,0-4
		c0.5,0.5,1.9,3.6,3,6.9c1.6,4.6,1.7,6,0.8,6.7c-2,1.2-2.1,1.1-5.8-4.8c-5.8-9.2-7.2-10-20.3-11.4c-11.4-1.3-11.6-1.3-19.8,1.3
		c-11.7,3.7-11.7,3.7-8.5,8.3c2.9,4.3,3.3,5.9,1.2,5.1c-1-0.4-1.3-0.1-0.9,0.9c0.3,0.7,0,1.4-0.6,1.4c-0.6,0-2.3-2.5-3.8-5.5
		l-2.7-5.5h-13.1c-13.4,0-35,2-44.3,4c-4,0.9-5.6,1.8-6.4,3.6c-1.5,3.3-3.2,3-2.5-0.5c0.6-2.7,0.3-3-6.1-5.7
		c-7.3-3.2-12.9-3.5-30.6-1.9c-7.6,0.7-9.4,1.2-11.4,3.2c-1.4,1.4-2.1,2.8-1.6,3.3s4.7,1,9.4,1.2l8.5,0.2v-2.7
		c0-6.5,4.8,0.1,6.4,8.9c0.5,2.5,1.1,4.8,1.4,5.1c1.2,1.2,18.3,3.4,21.6,2.8c1.8-0.4,6.2-2,9.8-3.6c7.2-3.3,9.6-3.5,13.7-1.4
		c2.5,1.3,2.8,1.3,2.2-0.1c-3.7-9.5-0.5-7.9,3.6,1.8l3.5,8.3l7.9,0.9c15,1.6,17.3,1.1,28.7-5.7c3.9-2.4,5.6-2.9,9.1-2.5l4.3,0.5
		l-0.5-4.5c-0.4-3.6-0.1-4.8,1.3-5.9c4.1-2.9,16.3-0.4,32.6,6.8c10.6,4.6,18.9,3.8,24.6-2.3l2.3-2.4l-3.6-5.3
		c-2.3-3.4-3.2-5.7-2.6-6.3c0.6-0.6,1.9,0.7,3.6,3.6c3.1,5.3,3.9,5.9,6.6,5.1c2.7-0.9,2.5-2-1.1-7.7c-1.7-2.7-2.8-5.2-2.4-5.6
		c0.6-0.6,1.4,0.2,5,5.2c1.1,1.5,1.7,1.7,2.8,0.8c3.3-2.7,11.7-4.5,24.7-5.1l13.5-0.6l6.5-9.7c9.7-14.4,12.4-16.8,20.1-18.2
		c7.2-1.3,8.7-5.9,5.4-16.5c-1.4-4.2-2.7-9.3-3-11.4C683.2,584.7,682.4,583,681.7,583z M228.6,600.9c-0.2,0.3-2.7,6.2-5.5,13.1
		c-2.9,6.9-5.9,14.1-6.8,16c-0.9,1.9-2.6,6-3.8,9c-1.3,3-4.4,10.7-7,17l-4.8,11.5l-0.1,12.5c-0.1,13.9,0.5,16,5.6,18.6
		c5.9,3.1,23.7-0.8,34.3-7.4c5.8-3.6,16.2-14.6,22-23.2c2.8-4,5.5-7.5,6.1-7.7c0.8-0.3,1.1,6,1,20.9c-0.1,21.3-0.1,21.3,2.8,28
		c5.8,13.7,11.7,18.8,22.1,18.8c6.3,0,13.2-2.9,17.9-7.6c3.2-3.3,20.3-26,26.1-34.7c2.7-4,4.1-5.4,4.6-4.5c0.4,0.7,1.9,6.7,3.4,13.3
		c4.4,19.7,11.3,32.2,21.1,38.5c6.5,4.1,10.8,4.6,17.6,2c8.9-3.3,15.2-10.9,21.2-25.1c5.9-14.2,8.7-19.9,9.6-19.9
		c0.4,0,2.2,4.4,4,9.7c4.2,12.8,8.6,20.7,15.7,27.8c16.9,17,36.1,14.3,49.7-6.9c3.7-5.8,6-12.6,7.2-21.1c1.7-12.1,3.8-11.9,8,0.8
		c4.2,13,9.6,21.2,16.9,25.7c5.1,3.1,14.3,4.4,22.1,3.1c8.5-1.5,13-3.8,18.1-9.3c5.7-6.2,6.7-10.1,5.9-21.9
		c-1-14.2,0.7-14.2,7.9-0.4c8.4,16.1,15.5,23.1,26.6,26c7.6,2.1,11.8,1.9,16.9-0.8c3.7-1.8,4.8-3,6.4-7.2c2.8-7.5,3.3-21.4,1.1-32.5
		c-1.6-8.2-1.6-9.3-0.3-10.7c1.4-1.3,2.3-0.6,8.6,6.9c9.4,11.3,24.7,25.6,29.9,28c7,3.1,10.6-0.2,12.8-11.6
		c2-10.5,1.9-22.1-0.4-35.8c-1-6.2-2.2-14-2.5-17.3c-0.4-3.3-1-7.3-1.4-9l-0.8-2.9l-5.5,7.7c-3,4.2-6.5,8.1-7.9,8.6
		c-1.4,0.6-7,1-12.5,1c-5.5,0-12.7,0.5-16,1.3c-5.4,1.2-6,1.5-6,3.9c0,3.1-1.9,5.6-4.8,6.5c-1.2,0.3-4.5,2.4-7.3,4.5
		c-6.6,5.1-12.7,7.2-18.4,6.5c-2.5-0.3-9.2-2.6-15-5.3c-8.7-3.9-11.5-4.7-16.5-4.8h-6l0.3,3.3c0.2,1.9-0.4,4.4-1.3,5.8
		c-1.4,2.3-2.1,2.4-6,1.8c-4-0.5-5.4-0.1-13.6,4c-7.7,3.9-10.1,4.6-15,4.6c-3.2,0-7-0.5-8.6-1.1c-2.1-0.8-4.2-0.7-8.1,0.2
		c-6.8,1.6-7.8,1-12-6.9c-1.9-3.6-4-6.2-4.9-6.2c-0.8,0-3.9,1.4-6.9,3c-6.5,3.8-15.2,4.8-25,3c-9.4-1.7-14.2-4.1-18.7-9.5
		c-2.1-2.5-4.4-4.5-5.1-4.5c-0.7,0-3.2,2.3-5.5,5c-6,7.1-9,8.4-18.6,8.4c-8.6-0.1-15.2-1.9-16.9-4.6c-0.8-1.3-0.5-2.7,1.2-5.8
		c1.2-2.3,2.2-4.4,2.2-4.5c0-0.2-1.5-0.7-3.3-1c-4-0.8-8,0.7-12.5,4.6c-4.4,3.9-7.9,3.6-18.9-1.6c-7-3.4-8.5-3.8-15-3.6
		c-8.1,0.3-11-0.8-16.2-6.3c-3-3.1-4.1-3.6-8-3.6c-3.5,0-6-0.9-10.5-3.5c-3.2-2-7-3.7-8.5-3.9c-1.4-0.2-3.9-1.1-5.6-2
		c-1.6-0.9-5.1-1.6-7.6-1.6c-5.3,0-6.6-1.1-7.1-6l-0.3-3.5l-7,0.2c-6.2,0.3-8-0.1-15.4-3.5c-5.5-2.4-8.7-4.4-9.2-5.8
		c-0.7-2-0.4-2.9,2.9-8.2c1.1-1.8,0.9-2.3-0.9-3.3C244.3,602.6,229.1,600,228.6,600.9z M681.7,672.6c-1.3-3.6-1.4-3.7-2-1.5
		c-0.4,1.3-0.7,6.1-0.7,10.6c0,7.2-0.5,11.2-2.6,21c-0.2,1.3-1.8,3.8-3.5,5.8c-2.7,3-3.7,3.5-7.7,3.5c-7.6,0-12.1-3.1-26.3-17.8
		c-9.2-9.6-13-12.9-12.6-11.2c3.8,16.4,2.8,29.2-3.1,38.2c-4.1,6.3-6.4,7.3-17.2,7.2c-8.3-0.1-10.2-0.4-15-2.9c-3-1.5-7-3.9-8.8-5.3
		c-3.4-2.6-10.4-12.1-12.2-16.4c-0.8-2.1-0.9-2-0.9,0.9c-0.2,10.6-10.1,22.8-22,27.2c-8.4,3.2-22.1,2.7-29.6-1.1
		c-6.8-3.5-13.4-10.8-17.4-19.3l-3.4-7l-1.2,4.5c-5.2,19.4-20.2,33.2-36.5,33.4c-9.8,0.1-17.5-3.2-25.4-10.8
		c-7.2-7-9.9-11-14.6-21.9c-3.2-7.4-3.5-7.7-4.7-5.5c-0.7,1.3-1.8,3.9-2.4,5.8c-2,5.9-8.9,17.1-13.4,21.6
		c-6.5,6.5-11.7,8.7-20.1,8.7c-5.9,0-7.9-0.4-11.6-2.6c-5.2-3-11.5-9.6-15.2-15.9c-3.4-5.9-8.1-19-9-25c-0.4-2.6-1.1-5-1.5-5.3
		c-0.5-0.2-2,1.3-3.5,3.5c-5.2,7.9-16.1,21.6-21.6,27c-12.1,12.2-26.2,14.1-37.1,5.1c-8.2-6.8-14.3-24.9-14.4-42.7v-11l-1.9,2.5
		c-3.6,4.8-11.1,12.3-16.1,16.1c-7.2,5.4-11.8,7.5-22,10c-20.6,5.1-28.8-0.3-28.9-19.2c-0.1-6.7-0.4-8.4-1.3-7.5
		c-1.7,1.7-9.9,20.6-13,29.5c-2.3,7-2.4,8.2-1.4,13.7c1.3,7.2,5.7,16.3,9.1,18.7c10,7.2,35.6-4.2,58.2-26c4.8-4.6,9.1-8.1,9.6-7.8
		s-0.1,4.7-1.5,10.3c-4.4,17.6-2.1,35.1,5.9,44.7c5.1,6.2,10.9,8.9,20.2,9.4c14.3,0.7,27.9-3.9,37.7-12.6c5.5-5,11.9-15.1,11.9-18.9
		c0-1,0.7-2.9,1.7-4.2c1.5-2.3,1.7-2.3,3-0.6c0.8,1.2,1.3,4.8,1.3,10.2c0,13.4,5.3,24.8,15.2,33c5.2,4.3,10.5,5.7,20.8,5.8
		c11.3,0,16.4-0.9,21.9-4.1c9.3-5.3,15.5-13.3,19.6-25c2.9-8.3,3.8-9.2,5.9-6.3c0.9,1.3,1.6,2.9,1.6,3.5c0,2.5,7.5,20,10.5,24.3
		c1.9,2.9,5.2,5.8,9,8.1c5.7,3.3,6.5,3.5,16.6,3.8c10.2,0.4,10.9,0.2,16.6-2.7c3.4-1.7,7.7-4.9,9.8-7.3c4.2-4.9,11.5-19.3,11.5-22.7
		c0-1.3,0.7-3.9,1.6-5.8c2-4,3.2-3.3,5.3,3.2c5.6,16.8,15.5,29.3,26.6,33.4c11.4,4.3,22.8,1.4,30.8-7.9c3.3-3.9,5.3-8.2,11.1-23.5
		c4.5-11.9,5-12,9.8-1.7c6.5,13.8,19.4,23.4,31.4,23.4c4.9,0,6.9-0.5,9.8-2.5c8.1-5.5,12.2-14.7,13.9-31.4
		c0.8-7.9,1.5-11.3,2.4-11.3c0.7,0,3,2.4,5.2,5.4c7.1,9.6,17.5,16.6,27.7,18.7c5.4,1.1,6.7,1,10.6-0.4c2.5-1,5.5-2.8,6.7-4.1
		c3.3-3.5,5.1-11.8,5.1-23.8c0-9-0.6-12.8-3.4-24c-1.9-7.3-4.4-15.6-5.5-18.3C684.1,678.7,682.5,674.7,681.7,672.6z"/>
	<path d="M424.1,51.9c4.2,4.3,3.9,8-1.5,16c-5.6,8.4-8.9,11.5-11.3,10.7c-1-0.3-5.3-3.9-9.5-7.9c-6.5-6.1-7.8-7.7-7.8-10.4
		c0-4.7,4.3-9.3,8.7-9.3c1.9,0,4.2,0.4,5.1,0.9c1.2,0.6,2.8,0.3,5.2-1C417.9,48.3,420.7,48.6,424.1,51.9z M413.1,54.4l-2.3,2.4
		l-3.2-1.9c-4.1-2.5-5.8-2.4-8.4,0.4c-3.9,4.2-2.9,6.8,5.4,14.6c7.2,6.7,7.6,7,9.3,5.3c3-2.8,11.1-15.4,11.1-17.2
		c0-0.9-1-2.6-2.3-3.8C419.6,51.3,415.9,51.4,413.1,54.4z"/>
	<path d="M448.3,62c1.9,1.6,4.6,3,6,3c3.3,0,4.9,2.2,5.1,6.7c0.1,3.1-0.4,4-3.3,6c-4.5,3-10.3,4.7-13.5,3.9
		c-6.6-1.6-8.6-19.4-2.4-21.9C443,58.5,445.1,59.1,448.3,62z M441.3,62c-2,0.8-2.3,1.7-2.3,5.8c0,5.7,1.6,10.8,3.5,11.6
		c1.8,0.7,10.4-2.2,12.8-4.2c1.2-1,1.7-2.7,1.5-4.6c-0.3-2.7-0.7-3.2-4-3.6c-2.4-0.3-4.4-1.4-5.8-3.3
		C444.7,60.7,444.5,60.7,441.3,62z"/>
	<path d="M384.3,69.2c2.7,3.2,1.8,12.5-1.7,17.3c-3,4.2-17.3,0.5-19.8-5c-2-4.3,2.4-10.5,7.4-10.5c0.5,0,2.4-1.2,4.1-2.6
		C377.8,65.5,381.4,65.7,384.3,69.2z M373.7,72.7c-0.4,0.7-2.3,1.3-4.1,1.3c-5.7,0-6.4,5.5-1.2,9.5c4.3,3.3,9.7,4.3,11.7,2.2
		c2.3-2.3,4.3-12.1,2.9-14.7C381.4,68,375.9,69,373.7,72.7z"/>
	<path d="M448.8,115.4c1.5,0.8,4,2.8,5.6,4.5c3.1,3.2,6.3,4,8.4,1.9c2.3-2.3,2.5,0.3,0.3,3.3l-2.3,3.1l2.9-0.2
		c4.9-0.4,4.9-0.1,0.5,3.9c-3.6,3.4-4.2,4.4-4.2,8c0,5.8-3,8.6-10.1,9.5c-14.7,1.8-23.8-6.3-22.4-19.8c0.9-8.5,2.2-11.4,6.4-13.6
		C438.2,113.7,445.1,113.5,448.8,115.4z M441.4,119.4c-1.4-0.4-3,0.3-5,2.1c-2.4,2.2-2.5,2.4-0.4,1.1c9.3-6,19.7,7.6,15,19.8
		c-1.1,3,0,3.4,2.3,0.8c2.2-2.4,2.1-4.5-0.4-11.9c-1.9-5.9-5.9-11.3-8.3-11.3C444,120,442.6,119.7,441.4,119.4z M439.2,123.9
		c-1,0.6-0.2,1.3,2.8,2.5c5.3,2.1,7.7,7,6,12.2c-2.4,7.1-8.5,6.2-10.8-1.6c-2.1-7.1-2.2-7.3-2.7-6.8c-0.9,0.9,2.5,11.2,4.2,12.9
		c3.3,3.1,6,3.3,8.8,0.5c4.6-4.6,2.2-16.6-4-19.4C440.4,122.8,440.8,122.8,439.2,123.9z"/>
	<path d="M370,118.8c-1.8,3.1-7,8.6-7,7.5c0-2.2,1.9-6.2,4-8.3C369.4,115.6,371.6,116.2,370,118.8z"/>
	<path d="M419.2,154.8c-0.2,2.1,0.3,5.5,1.2,7.5c1.8,4.5,0.3,4.9-2,0.6c-1.1-2.3-1.4-4.4-0.9-7.5C418.3,150,419.7,149.5,419.2,154.8
		z"/>
	<path d="M439.4,170.1c1.7,1.5,1.1,9.7-1,12c-7,7.7-21.3,6.1-23-2.6c-0.3-2-0.5-3.8-0.3-4s5.6-1.6,11.9-3.2
		C433.3,170.7,438.9,169.7,439.4,170.1z M437.9,173.3c-1-0.8-3.2-0.6-8.4,0.8c-3.8,1.1-8.2,2.2-9.7,2.5c-3.2,0.7-3.4,1.3-1.4,3.9
		c1.3,1.8,1.5,1.9,3.3,0.3c1-0.9,3.6-2,5.8-2.4c2.2-0.4,5.7-1.4,7.9-2.3C438.4,174.8,438.9,174.2,437.9,173.3z M430.5,179.5
		c-9.2,2.3-10.9,3.8-5.7,5c4.2,0.9,12.2-2.8,12.2-5.7C437,177.8,436.9,177.9,430.5,179.5z"/>
	<path d="M321,477c1.9,13.8,2,16.6,0.5,18.6c-1.3,1.7-1.4,0.5-1.3-11.1C320.2,474.1,320.4,472.6,321,477z"/>
	<path d="M570,509c1.2,8.2,1.1,17,0,17c-0.6,0-0.9-4.3-0.9-11.3C569.3,505.1,569.4,504.3,570,509z"/>
	<path d="M365.8,507.5c0.1,0.1-0.1,1.6-0.4,3.3c-0.7,3.5-2.4,4.4-2.4,1.2c0-2.4-0.3-2.4-15.4-0.4c-6.5,0.8-12.1,1.2-12.5,0.8
		c-0.3-0.4,0-0.9,0.7-1.1c1-0.4,1-0.8,0-2c-1.1-1.4-0.4-1.5,6.7-0.9c4.4,0.3,11.4,0.2,15.5-0.2C362.1,507.8,365.6,507.5,365.8,507.5
		z"/>
	<path d="M311.8,508.1c0.1,0,0.2,0.3,0.2,0.9c0,0.5-0.7,1-1.5,1c-0.9,0-1.8,0.7-2.1,1.5c-0.5,1.2-2.9,1.5-13.3,1.4l-12.6-0.1
		l14.5-2.3C305,509.3,311.6,508.2,311.8,508.1z"/>
	<path d="M320.9,524c0.6,0,1.1,0.5,1.1,1.1c0,0.5,0.5,0.7,1,0.4c0.6-0.4,1,4.1,0.9,12.7c-0.1,14.4-1.2,14.1-2.3-0.8
		c-0.4-4.9-1-9.9-1.3-11.2C320,525,320.3,524,320.9,524z"/>
	<path d="M593.8,538c10.2,0.1,9.3,1.5-1.5,2.2c-5.8,0.4-7.3,0.2-7.3-0.8C585,538.3,587,538,593.8,538z"/>
	<path d="M556.5,540c-0.3,0.5-3.6,0.9-7.3,0.9c-5.6-0.1-6.1-0.3-3.2-0.9C551.4,538.9,557.2,538.9,556.5,540z"/>
	<path d="M571.4,552c1.4,0,1.6,1.3,1.6,9.1c0,6.9,0.3,9,1.3,8.6c0.6-0.2,2.1-0.1,3.2,0.4c1.6,0.6,1.4,0.8-1.2,0.8
		c-2.9,0.1-3.3,0.5-3.4,2.8l-0.1,2.8l-1.1-2.7c-0.9-2.3-1.4-2.6-4.4-2.1c-1.9,0.3-3.3,0.1-3.3-0.5c0-1.2,4.7-2.5,6-1.7
		c0.6,0.4,0.7-2.8,0.3-8.4C569.8,553,569.9,552,571.4,552z"/>
	<path d="M546,572c0,0.6-3.4,1-8.2,0.9c-5.6,0-7.6-0.3-6.3-0.9C534.3,570.8,546,570.8,546,572z"/>
	<path d="M555,581c0.6,0,0.9,3.2,0.9,7.7c-0.2,7.6-0.2,7.6-0.9,2.8c-0.5-2.8-0.9-6.2-0.9-7.8C554,582.2,554.5,581,555,581z"/>
</g>
</svg>
