<?xml version="1.0" encoding="utf-8"?>
<!-- Generator: Adobe Illustrator 21.0.0, SVG Export Plug-In . SVG Version: 6.00 Build 0)  -->
<svg version="1.1" baseProfile="tiny"
	 id="svg86" inkscape:version="0.92.2 5c3e80d, 2017-08-06" sodipodi:docname="58 #24480.svg" xmlns:cc="http://creativecommons.org/ns#" xmlns:dc="http://purl.org/dc/elements/1.1/" xmlns:inkscape="http://www.inkscape.org/namespaces/inkscape" xmlns:rdf="http://www.w3.org/1999/02/22-rdf-syntax-ns#" xmlns:sodipodi="http://sodipodi.sourceforge.net/DTD/sodipodi-0.dtd" xmlns:svg="http://www.w3.org/2000/svg"
	 xmlns="http://www.w3.org/2000/svg" xmlns:xlink="http://www.w3.org/1999/xlink" x="0px" y="0px" viewBox="0 0 850 850"
	 xml:space="preserve">
<sodipodi:namedview  bordercolor="#666666" borderopacity="1" gridtolerance="10" guidetolerance="10" id="namedview88" inkscape:current-layer="svg86" inkscape:cx="1064.9122" inkscape:cy="769.60753" inkscape:pageopacity="0" inkscape:pageshadow="2" inkscape:window-height="978" inkscape:window-maximized="1" inkscape:window-width="1920" inkscape:window-x="0" inkscape:window-y="1" inkscape:zoom="0.41647059" objecttolerance="10" pagecolor="#ffffff" showgrid="false">
	</sodipodi:namedview>
<g id="g84" transform="translate(0.000000,0.000000) scale(1.00000,1.00000)">
	<path id="path4" fill="none" d="M0,0.1h160.5h160.4l-2.5,2.5c-1.3,1.3-2.7,3.8-3,5.4l-0.6,2.9L310.6,9c-5-2.3-9.7-2.4-13.7-0.4
		c-3.6,1.9-4.9,5-4.9,11.3v4.7h-4.8c-10.3,0.1-13.2,3-13.2,12.9c0,5.2-0.1,5.5-3,6.1c-3.5,0.8-7,4.8-7,8s8.6,10.9,21.3,18.9
		c5.9,3.7,10.7,7.1,10.7,7.5c0,2.2-11.3,15-14,16c-15.2,5.3-32.4,49.7-36.9,95.2c-1.8,17.8-2,18.4-7.4,26.7
		c-2.8,4.2-8.8,15.1-13.3,24.2c-8.5,17-14.6,27-22.7,37.4c-8.5,10.8-28.8,32.6-34.5,37c-9,6.9-20.3,14.1-25.5,16.4
		c-6.4,2.8-5.4,4.7,2,3.8l5.4-0.6l-4.7,6.6c-5.3,7.4-9,17.5-10,26.9c-0.7,7,0.9,21.7,3.3,28.9c1.7,5.3,8.6,17.5,13.7,24.1
		c1.7,2.3,5.1,8.7,7.4,14.1c5,11.7,11,19.6,20.3,26.5c5.1,3.7,7.4,6.3,9.5,10.5c4.2,8.4,15,18,25.9,23.3c5,2.3,9.6,4.6,10.4,5
		c0.7,0.3,3.9,8.5,7.1,18.1c12.2,37.2,27.9,71.9,59.4,131.3c6.4,12,11.6,22,11.6,22.3c0,0.2-4.2,0.4-9.2,0.4
		c-5.1,0-11.6,0.6-14.4,1.4c-6.3,1.6-21.5,8.8-30.8,14.4c-3.8,2.3-12.3,6.2-18.8,8.8c-10.3,4-13.4,5.8-22.2,12.7
		c-23.1,18.4-60.1,58.5-77.1,83.7c-3.6,5.2-8.6,11.7-11.1,14.4c-5,5.1-8.4,13.4-8.4,20.3c0,1.9-0.4,4.3-1,5.3
		c-0.8,1.4-1.8,9.3-2,15.7c0,1-11.5,1.3-54,1.3H0v-425V0.1z"/>
	<path id="path6" fill="none" d="M328,0.1h261h261v425v425h-89.5c-84.4,0-89.6-0.1-90.1-1.8c-0.3-0.9-1.2-3.1-2.1-4.7
		c-0.8-1.7-2.1-4.6-2.8-6.6s-2.6-5.6-4.2-7.9c-1.5-2.4-3.6-5.5-4.5-6.9s-6.9-13-13.2-25.6c-14.1-28.3-23.7-42.9-42.7-65
		c-17.9-20.8-20.5-23.2-34.7-33.4c-17-12.1-28.6-19-40.7-24.3c-6-2.6-12.4-5.8-14-7.1c-4.3-3.4-8.2-5.3-14.4-6.7l-5.3-1.2l0.6-6.2
		c0.4-3.3,1.1-11.7,1.6-18.6c0.5-6.9,1.8-15.9,2.9-20c9.2-34.9,9-34.4,12.1-37.3c1.7-1.5,3.9-2.7,5.1-2.7c3.8,0,7.6-2.8,8.2-6
		c0.4-1.8,1.3-3,2.3-3c0.8,0,2.9-1.4,4.6-3c1.7-1.7,3.2-3,3.3-2.8s2.6,3.7,5.5,7.8c3,4.1,14,18.3,24.6,31.5
		c15.5,19.3,22,26.5,33.4,37c14.5,13.4,35.6,28.7,42,30.5c1.9,0.5,8,1,13.6,1c8.7,0,10.7-0.3,15.2-2.6c11.6-5.8,16.3-20.6,17.6-55.9
		c0.7-17.9,1.6-20.5,6.7-20.5c2.1,0,4.1-1.1,6.9-3.8c2.1-2,5.3-4.8,7.1-6.1c3.5-2.7,6.8-9.1,6.9-13.2c0-1.4-1.2-4.4-2.7-6.5
		c-1.4-2.1-3.4-5.8-4.3-8.2c-0.9-2.3-3.9-6.8-6.6-9.8c-4.5-5.1-6.1-6.7-13.6-14.1c-2-1.9-3.2-2.4-5.1-1.9c-2.2,0.5-2.6,0.2-3.1-2.2
		c-1.1-5.7-2.8-24.8-2.4-28.1c0.4-4.6,2.5-5.1,20.3-5.6c17.1-0.4,21.9-1.5,24-5.5c0.8-1.6,1.5-4.2,1.5-5.9c0-2.3,1.1-4,4.6-7.3
		c2.5-2.4,5.7-6.5,7.1-9.1l2.4-4.9l-2.7-8.1c-2.9-9-16.5-38-18.2-39.1c-0.6-0.3-2.7,0.8-4.6,2.5c-4.4,3.8-7,3.5-7.4-0.8
		c-0.2-1.8-1.2-3.9-2.3-4.6c-1.9-1.4-1.9-1.5,0.8-9c2.6-7.4,2.6-7.7,0.8-9.7c-1-1.1-2.6-2-3.6-2c-1.6,0-1.6-0.3,0.2-5
		c2.2-5.9,2.3-6.9,0.7-10.7c-0.8-1.8-1.1-7.3-0.9-15.5c0.3-10.3,0-13.1-1.3-14.9c-0.9-1.3-1.6-4.2-1.6-6.5c0-2.4-0.6-4.7-1.4-5.4
		c-1.1-0.8-1.3-2.4-0.9-6c0.8-6.5-1.4-10-5.9-10c-2.5,0-4.1,1-7.5,4.6c-2.4,2.6-4.3,5-4.3,5.5s-1.8,1.3-4,1.9
		c-2.3,0.6-4.7,2.1-5.6,3.6c-1.4,2-2.2,2.3-4.9,1.8s-3.6-0.1-6,2.7c-1.5,1.9-3.4,4.8-4.3,6.6c-0.9,1.8-2,3.3-2.5,3.3
		c-3.3,0-17.8-3.6-20.9-5.1l-3.7-1.9l3.1-5c4-6.4,4.9-16.1,2.3-23.9c-2.3-6.9-8.6-13.3-15.4-15.6c-3.8-1.2-5-2-4.2-2.8
		c1.6-1.6,1.3-5.7-0.5-6.4c-2.4-0.9-6.2,1.6-12.3,7.9c-3,3.2-6.2,5.8-7.1,5.8c-1.5,0-10,9.4-10,11.1c0,0.4-1.4,2.1-3.1,3.8
		c-2.9,3-3,3.4-2.4,8.4c0.9,6.5,1.9,9.2,5.2,13.9l2.5,3.7l-2.8,5.2c-1.6,2.8-5.4,7.4-8.6,10.3c-7.4,6.6-16.1,20.7-14.8,23.9
		c0.6,1.2,1.4,7.9,1.9,14.9l0.9,12.6l4.2,6.1c4.4,6.3,4.7,8.2,0.8,6.4c-2.5-1.2-16.8-28.4-16.8-32c0-1.1,0.7-3.7,1.5-5.6
		c1.2-2.8,1.5-8,1.5-22.5c0-18.2-0.1-19.3-3.5-32.4c-2.8-11.4-4.8-16.4-11.9-30.5c-4.6-9.3-11.8-22.8-15.9-29.9
		c-16.2-28-20.6-39.3-21.4-54.5c-0.7-12.6,0-16.9,3.1-16.9c1.2,0,3.1-0.7,4.2-1.5c1.9-1.4,1.9-1.4-0.3-1.5c-3.2,0-3.6-1.5-0.8-3
		c3-1.6,3.2-3,0.5-3c-2.3,0-2.3,0.2-0.9-3.7c0.8-2.6,1.9-3.3,5.7-4.3c12.2-3,40.8-23.8,45.8-33.2c1.9-3.6,1.8-14.8-0.1-22.3
		c-0.9-3.3-3.1-9.4-5-13.5c-2.4-5.3-3.6-9.6-4-14.8c-0.9-10.6-2.9-17.4-8.6-29.1c-3.7-7.5-6.6-11.9-10.7-16.1
		c-7.9-8-11.2-8.9-24.6-6.7c-5.5,0.9-10.9,1.7-12,1.7c-1,0-6.7-3-12.6-6.6c-14.5-8.8-17.8-9.7-31.5-9c-9.7,0.5-11.7,0.3-16.5-1.5
		c-17.6-6.7-46.4-0.7-64.3,13.4c-2.1,1.6-3.9,2.8-4.1,2.6s0.1-6.5,0.6-14c0.6-7.5,0.8-14.8,0.4-16.3s-2.1-3.6-3.9-4.7
		c-4.2-2.6-8.8-1.9-13.8,2.1c-2.1,1.6-4.1,3-4.5,3s-2.6-1.8-5-4L328,0.1z"/>
	<path id="path8" fill="#00FF00" d="M331.9,8.6c2.6,2.5,5.4,4.5,6.1,4.5c0.8,0,2.4-1,3.7-2.2l2.3-2.1v3.5c0,4.4,3.2,7.8,5.8,6.2
		c0.9-0.6,2.1-2.7,2.6-4.7c0.8-3,0.6-4-0.9-5.7c-2.4-2.6-0.1-2.6,2.6,0.1c1.9,1.9,2,2.7,1.4,15.2c-1.2,23.4-2.7,25.7-7,10.7
		c-3.1-11.1-5.5-15.3-7.6-13.2c-1.2,1.1-0.5,9.6,1.8,20.6c0.4,2,0.3,2.7-0.6,2.2c-0.6-0.4-2.3-4.8-3.8-9.8c-2.7-8.9-5.6-13-8.3-11.3
		c-1.7,1.1-1.1,7.7,1.5,15c3.6,10.2,3,10.2-2.1,0c-6.7-13.2-7.1-13.7-9.4-12.5c-3.1,1.6-2.5,5.6,2.3,15.3c5.4,11,3.7,10.8-2.4-0.4
		c-2.6-4.6-5.4-8.5-6.3-8.7c-4.7-1-6.1,5.8-2.2,10.5c1.3,1.5,3.1,4.1,4,5.8c0.9,1.6,2.3,4,3.2,5.2c0.9,1.3,1.4,2.3,1.2,2.3
		c-0.3,0-2.9-3.1-5.9-6.9c-3-3.8-7.1-7.9-9.1-9.1L301,37v4.5c0,4.1,0.6,5.2,7,12.8c3.8,4.6,7,8.7,7,9.2s-4-2.9-8.9-7.7
		c-9.3-9.1-12.1-10.5-12.1-6.1c0,2.9,1.4,5.9,4.4,9.3c1.7,2,1.2,1.8-2.6-0.8c-3.2-2.3-5.2-3.1-6.7-2.6c-3.5,1.1-2.4,3.4,5.1,11.1
		c3.9,4.1,6.8,7.4,6.5,7.4c-0.4,0-6.4-3.6-13.3-7.9c-9.5-6-12-8-10.3-8.3c3.7-0.5,4.7-3.3,2.3-6.5c-2.3-3.1-5.8-4.1-8-2.3
		c-2,1.8-1.7,4,0.9,6.9l2.2,2.5l-3.2-2.3c-5.4-3.7-3.8-7.6,4.3-10.5c2.8-1,3.8-1.9,3.7-3.2c-0.8-6.4-0.4-11.7,0.8-12.5
		c0.8-0.6,4.6-0.8,8.4-0.7l7,0.3v-6.8c0-6,0.3-7.1,2.4-8.8c3.2-2.6,8-2.4,13.4,0.7l4.6,2.5l2.7-5.3c1.4-2.9,3.1-5.9,3.6-6.6
		C324.1,3.1,327,4.1,331.9,8.6z M322,12.1c0,3.2,0.5,4.3,3,6c4.2,3,5.8,1.6,5.1-4.6C329.1,5.1,322,3.9,322,12.1z M300.5,15.1
		c-2.4,2.7-1,7.1,2.7,8.4c5.6,2,7.8-2.6,3.7-7.8C304.4,12.6,302.9,12.4,300.5,15.1z M281.3,36.1c1.5,3.1,6.1,4.9,8.5,3.4
		c2.6-1.7,2.6-4.1-0.2-6.9C284.9,27.9,278.6,30.6,281.3,36.1z"/>
	<path id="path10" fill="#FF4500" d="M423.5,25.1l3,0.7l-2.7,1.1c-3.1,1.3-4,4.7-1,3.8c0.9-0.2,6.3-1.2,11.9-2.2
		c9.5-1.6,10.5-1.6,14.6,0c2.3,0.9,6,1.6,8.1,1.6c4.7,0,24.2,9.8,22.5,11.4c-0.2,0.2-7.8,2.9-16.9,6c-35.4,12.2-35,12.1-30.6,12.4
		c5,0.4,10.6-0.9,22.1-5.2c28.4-10.7,51.8-15,60.8-11.2c4.5,1.9,8.3,6,13.3,14.6c6.6,11.2,11.4,27.7,11.4,39c0,5.5-1.9,11-4.7,13.6
		c-4.8,4.4-17.6,8-36,9.9c-8.8,1-9.9,0.4-11.8-6.1c-1.8-6.2-6.3-11.7-12.4-15.2c-2.3-1.2-4.1-1.9-4.1-1.5s2.1,2.9,4.8,5.6l4.7,4.9
		l-4.3-2.1c-6.3-3.2-15.1-5.2-26.4-5.9l-10.1-0.7l4.4-2.5c3.8-2.1,5.7-2.5,13.6-2.5c5.1,0,9.3-0.3,9.3-0.7c0-0.4-1.8-1.3-4.1-1.9
		c-3.2-1-5.6-1-11.7,0c-9.8,1.6-14.8,3.9-22.5,9.9c-15.5,12.3-23.1,14.6-47.2,14c-19.4-0.4-18.4-0.1-29.3-9.7
		c-8.6-7.7-17.5-20.2-21.9-30.8c-3.3-8.1-6.1-12.8-7-12c-0.6,0.6,3.8,13.9,6,18.2c3.5,7,15.7,23.3,20.9,27.9c2.7,2.5,7.5,6,10.6,7.8
		c5.4,3.1,6.3,3.2,18.2,3.7l12.5,0.4l-8.5,2.9c-4.7,1.5-10.9,3.1-13.8,3.5c-4.8,0.5-5.6,0.3-10.6-3c-8.5-5.7-12.4-9.5-19.8-19.5
		c-6.6-9-10.4-12.2-7.3-6.3c5.1,10,21.6,27.7,28,30.1c1.4,0.5,6.1,1,10.3,1h7.6l-3.9,4.1c-6.1,6.3-15,12.9-25.5,18.7
		c-7.7,4.4-8.9,5.3-6,4.9c1.9-0.3,8.1-3,13.8-6c5.6-3,10.2-5.1,10.2-4.7c0,2.5-9.6,10-18.4,14.4c-12.1,6-14.8,5.9-24.6-0.9
		c-5.4-3.6-7.9-6.2-12.1-12.8c-2.9-4.5-6.4-9.5-7.6-11c-1.4-1.8-2.3-4.2-2.3-6.3c0-3.8-2.4-9.4-4-9.4c-1.3,0-1.4-0.5,1.4,7.9
		c7.9,22.9,21.2,38.7,33.7,39.9c3.8,0.3,6.1-0.2,12.6-3.2c4.4-2,8.3-3.6,8.7-3.6c2.8,0-9.7,15.7-16.8,21.1
		c-6.2,4.8-5.8,4.3-10.3,10.4c-3.2,4.3-8,14.5-6.9,14.5c0.2,0,2.8-3.2,5.6-7c2.9-3.9,5.4-7,5.5-6.8s-0.2,3.8-0.8,8
		c-1.9,14.7,3.6,38.5,14.4,62c14,30.4,17.9,41.5,17.9,50.4c0,3.6-0.2,3.4-4.1-4.7c-2.3-4.6-5.4-13.5-7-19.8s-3.2-11.7-3.4-12
		c-1.3-1.2-1.4,1.1-0.4,6.5c1.6,8.5,0.6,24.5-2.1,32.9c-2.1,6.8-2.6,7.4-15.6,19.9c-10.8,10.3-14,14.1-16.5,19.2
		c-2.8,5.7-3.1,7.1-2.6,12.4c0.6,6.8,6.5,19.5,12.9,28c2.1,2.8,3.8,5.3,3.8,5.5c0,0.3-1.9-0.4-4.2-1.6c-2.4-1.2-9.7-7.4-16.3-13.8
		c-6.6-6.4-14.7-13.2-18-15.1c-4.8-2.9-6.5-4.5-8.4-8.5c-1.4-2.8-3.3-6.6-4.3-8.6c-2.6-5.3-4.8-16.9-4.8-25.5c0-10,3-18.5,13.5-38.9
		c4.6-8.8,9.3-19.2,10.4-23c3.9-13.3,6.1-41.5,3.1-41.5c-0.4,0-1,6-1.4,13.4c-1,21.5-3,27.1-18.2,52.9
		c-9.8,16.5-13.2,32.4-10.5,48.2c1.4,8.2,1.2,8.5-9.2,13.9c-6.2,3.3-7.2,3.5-13,2.9c-4.8-0.4-7.1-0.2-9.6,1.1
		c-4,2.1-15,16.8-19.6,26.2c-7.2,14.7-11.3,45.6-8.6,64.2c1.9,12.8,7.3,27,12.7,33.5c2.2,2.6,4.2,9.2,3.1,10.3
		c-1.4,1.4-16.6-7.5-22.9-13.4c-8.7-8.2-13.3-15.2-16.9-26c-3.4-10.1-7.9-27.1-7.9-30.1c0-1.2-0.5-2.1-1.1-2.1
		c-1.6,0-0.5,8.8,2.6,21.1c1.4,5.4,2.5,10.5,2.5,11.4c0,2.5-7.3-3.8-11.5-9.9c-5.8-8.6-14.6-29.2-16.2-38.1
		c-2.7-15.5-3.5-18.5-4.4-18.5c-1.2,0-1.1,1.9,0.6,12.4c0.8,4.9,1.3,9.2,1.1,9.4c-0.7,0.6-3.3-4.8-6.8-14c-3.1-8-3.2-8.9-3.2-22.8
		c0.1-10.9,0.5-15.6,1.7-18.8c3.4-8.9,13.2-20.6,22.9-27.4c5.8-4.1,7.5-6.5,3.8-5.3c-1.1,0.3,4.7-6,12.8-14.2
		c24.3-24.4,33.1-36.6,55.6-77.3c2-3.6,3.6-6.2,3.6-5.8c0,2.1-6.3,33.1-7.6,37.3c-3.6,11.2-16.8,33.9-29.4,50.6
		c-3.5,4.6-11.5,13.5-17.9,19.6c-6.3,6.2-11.2,11.3-10.8,11.3c6.3,0,29.7-23.9,43.5-44.6c7.9-11.8,18.7-33.8,20.2-41.1
		c0.6-3.2,1.8-8.7,2.7-12.3c4.3-19,10.1-53,12.4-72.5c1.5-14,6.6-35.3,10.8-45.8c4-10.1,8.3-16.7,15.1-23.2c3.8-3.6,4.2-3.7,3.5-1.5
		c-0.4,1.4-2.4,5.2-4.6,8.5c-6.4,10.1-8,14.9-10,29.9c-2.5,18.9-2.4,29.2,0.6,55.8c1.3,12.3,2.7,31.8,3.1,43.4
		c0.7,23.8,0,30.1-6.6,55.6c-2,8.2-3.4,14.8-3,14.8c1.2,0,7.5-16.3,10-26c2-7.3,2.3-11.7,2.7-32c0.4-19.9,0.1-26.8-1.8-44.5
		c-2.6-24.2-3.1-57.6-1-68.5c1.6-8.1,5.6-21,7.3-23.3c1.1-1.5,1.3-1,1.6,3.5c0.2,2.9,1.1,8.4,2.2,12.3c1,3.8,2.4,10.4,2.9,14.5
		c1.2,8.4,4.8,18.5,8.7,24.2c4.5,6.4,12.5,12.2,21.7,15.6c9.8,3.7,10.9,2.5,1.9-2.1c-9.5-4.8-19.4-13.1-22.2-18.6
		c-1-2.1-3.1-9-4.6-15.2c-2.3-9.9-2.5-12.9-2.1-23.2c0.2-6.5,0.1-12-0.4-12.2c-1.2-0.8-1.8,0.8-2.1,6.2c-0.2,2.8-0.7,4.9-1.2,4.6
		s-0.6-4.7-0.3-9.7c0.6-11,3.1-18.2,9.2-26.6c4.1-5.5,12.7-12.9,15-13c0.7,0,0.8,2.9,0.3,8.2c-1.4,17.7-0.7,19.3,2.2,4.9
		c2.3-11.5,4.7-19.8,6-20.6c0.5-0.3,1.2,0.7,1.5,2.2c1.5,6.9,4.6,16.3,5.6,16.8c2.1,1.3,1.9-0.4-0.7-8.1c-3.4-10.3-3.1-17,1.2-21.5
		c3.9-4.2,10.8-7.5,17.1-8.4l5.2-0.7l6.3,6c8.1,7.4,13.1,10.3,23.7,13.6c11.2,3.5,17.7,4.1,30.2,2.7c9.5-1.1,23-4.8,25-6.8
		c0.5-0.5-3.7-0.1-9.4,0.9c-24.1,4.2-39.7,3.3-53.4-3.1c-6.2-3-15.3-10.4-15.3-12.5c0-1.1,8-7.5,16.7-13.5
		c3.7-2.5,14.1-6.6,23.3-9.2C401.7,24.2,417.6,23.6,423.5,25.1z M268.8,256.8l-0.3-6.2l-0.8,6c-3.4,25.2-11.4,50.1-23.8,74.7
		c-3.2,6.4-3.3,6.8-1.9,6.8c1.8,0,7.9-10.3,11.6-19.5c5.3-13.2,9.9-28.4,12.9-42.9C268.1,267.7,269,260.6,268.8,256.8z M193.6,329.4
		c-10,10.7-19.1,39.6-20.3,64.8c-0.4,8.4-0.2,13.2,0.5,14.5c1,1.6,1.1,1.6,1.2,0.3c0.1-6,5.5-41,7.5-48.7c2.9-10.7,7.3-21.4,12.1-29
		C198.5,325.3,198.1,324.6,193.6,329.4z"/>
	<path id="path12" fill="#D2B48C" d="M468.2,107.9c9,2.6,16.6,7.5,17,11c0.2,2.2,1.5,3.3,6.5,5.8c8.8,4.3,17.1,10.9,17.9,14.1
		c0.6,2.3-1.1,14.4-2.3,16.5c-0.2,0.4-2-0.4-3.9-1.7c-4.4-3-9.1-4-12.5-2.7c-3.5,1.4-8.9,6.1-8.9,7.8c0,2,4.4,1.7,9-0.6
		c2.2-1.1,5.3-2,7-2c2.9,0,7,2.9,7,5c0,1.7-8.4,18-9.3,18c-0.5,0-2-0.9-3.4-2c-3.7-2.9-11-2.7-17.5,0.6c-8.6,4.4-12,9.2-14.4,20.4
		c-1.6,7.9-0.9,12.1,1.2,7.1c1.5-3.6,1.8-3.6,9.1-1.5c6,1.7,8.7,1.4,15-1.9c2.3-1.2,4.5-1.9,4.8-1.5c1.3,1.3,2.7,15.6,2.2,22.3
		c-0.3,3.8-1.5,10-2.7,13.7c-1.9,6.3-3,7.8-17,22.8c-8.2,8.8-18.6,20.5-23,26c-10.7,13.2-13.5,15.3-21.5,15.8
		c-13.1,0.9-36-7.6-50.2-18.4c-19.8-15.2-32.3-33.7-35.8-53c-1.9-10.7-3.3-15.4-4.6-15.4c-0.5,0-0.9,1.2-0.9,2.7
		c0,2.6-0.1,2.6-1.7,1c-2.3-2.2-2.9-12.2-1.3-20.9l1.2-7l9.7-9.3c6.5-6.4,11.2-11.9,14.3-17.2c2.6-4.3,6.3-9.3,8.2-11.2
		c2-1.9,4.1-5.1,4.7-7c1.9-5.8,11.1-15.6,17.7-18.7c3.1-1.5,7.2-3.7,9.2-5c1.9-1.3,6.9-3.2,11.1-4.3s10.9-3.9,14.9-6.2
		c3.9-2.3,8.6-4.6,10.4-5C440.7,104.6,460.9,105.7,468.2,107.9z M407.6,135.2c-3.3,0.1-12.4,2.4-13.4,3.3c-1.4,1.4,1.1,1.7,6.2,0.6
		c7.2-1.5,11.1-0.4,23.9,6.8c8.2,4.6,11.1,5.7,15.6,5.9c5.8,0.4,9.4-0.8,7.6-2.6c-0.6-0.5-9.1-3.9-18.9-7.5
		C418.7,138.1,409.3,135.1,407.6,135.2z M401.2,164.7c-8.9,4.4-11.6,7.5-10.9,12.6c1.1,8.3,8.5,13.8,19.9,14.6
		c10.3,0.7,11.2,0.2,15.9-8.4c2.3-4.2,4.7-7.7,5.3-7.9c0.6-0.2,2.4-0.6,3.9-0.9c3.5-0.8,2.6-2.6-1.4-2.6c-3.6,0-3.7-1.2-0.4-3
		c3.4-1.8,3.1-3.3-0.5-2.5c-2.1,0.5-3.5,0.2-4.6-0.9c-0.8-0.9-2.4-1.6-3.3-1.6c-1,0-3.5-0.7-5.4-1.5
		C413.9,160.2,409,160.7,401.2,164.7z M461.6,222.1c-0.3,0-0.3,2.7,0,5.9l0.7,5.9l-4.2,3c-4.5,3.3-4.2,4.6,0.8,3.6
		c3.6-0.7,7.1-4.6,7.1-7.8c0-1.1-0.9-4-2-6.4C463,224,461.9,222.1,461.6,222.1z M437.3,234.6c-2.4,1.8-1.8,2.1,4.6,2.9
		c4.7,0.6,5.3,0.5,4.2-0.8C444,234.2,439.4,233.1,437.3,234.6z M407.9,241.5c-2.5-2.4-2.7-2.4-3.1-0.6c-0.8,2.8,3.3,15,7.5,22.5
		c4.6,8.1,8.8,12.2,14.5,14.2c5.9,2,9.8,1.9,14.7-0.4c5.1-2.4,8.1-5.7,9-10.1c1.1-5.1,3-8.3,6.9-11.8c2-1.7,3.6-3.4,3.6-3.6
		c0-0.3-1.6-1-3.6-1.5c-3.7-1-8.4,0-8.4,1.9c0,1.6-2.4,1.2-8.6-1.7c-4-1.8-8.5-2.9-15-3.5c-5.1-0.4-10.6-1.3-12.1-1.9
		C411.8,244.4,409.3,242.8,407.9,241.5z"/>
	<path id="path14" fill="#000080" d="M411.2,170.5c10.4,2,14.8,4.1,14.8,6.9v2.2l-1.8-2.1c-6.2-7.7-17.6-5.3-21.6,4.6
		c-0.9,2.2-2,4-2.5,4c-1.8,0-6.1-6.2-6.1-8.9s2.9-6.3,6-7.4C402.4,168.9,403.4,169,411.2,170.5z"/>
	<path id="path16" fill="#000080" d="M419.6,177.5c1.7,1.3,1.6,1.4-2.1,1c-2.9-0.4-4.9,0-7.1,1.4c-2.6,1.7-3,2.5-2.6,5.1
		c0.3,2.4,0.1,3.1-1.2,3.1c-2.9,0-1.7-5.8,2.2-10.3C410.7,175.7,416.8,175.5,419.6,177.5z"/>
	<path id="path18" fill="#FF0000" d="M414.6,255.8c4.8,6.3,8.7,9.3,14.2,10.9c7.1,2.1,12.7,1.1,17-2.9c3.7-3.6,4.1-2.3,1.3,4
		c-2.5,5.3-8.6,8.8-14.3,8c-8.6-1.1-17-8.9-20.9-19.2C409.8,251.1,410.8,250.8,414.6,255.8z"/>
	<path id="path20" fill="#FF00FF" d="M418.4,254.5c1,0.3,6.8,2,12.9,3.6c6,1.6,11.2,3.2,11.5,3.4c0.2,0.3,0.2,1.2-0.1,2.1
		c-0.5,1-2,1.5-4.9,1.5c-8-0.1-11.9-1.6-16.7-6.6C418.5,255.9,417.3,254.1,418.4,254.5z"/>
	<path id="path22" fill="#B22222" d="M544.4,106.6l2.3,7.5c1.3,4.1,2.6,10,2.9,13.2c0.9,7.5-1.8,13-9.4,19.6
		c-9.6,8.3-28.5,20.2-32.1,20.2c-0.6,0,0.2-3.7,2-8.8c1.7-4.8,3.3-9.4,3.6-10.2c0.4-1.1,0.7-0.9,1.4,0.9c0.7,1.8,1.3,2.1,2.1,1.3
		s0.3-2.9-1.7-7.9c-1.5-3.7-2.9-7.3-3.2-7.9c-0.2-0.7,1.3-1.4,3.8-1.8c6.2-1,17.2-7.1,21.8-12.2c2.6-2.8,4.5-6,5.2-9.1L544.4,106.6z
		"/>
	<path id="path24" fill="#B22222" d="M537.5,115.1c-5.8,11.2-26.6,18.2-34.2,11.5l-2.8-2.4l5.7-0.1c3.1,0,8.1-0.5,11-1.1
		c5.9-1.2,15.7-6.1,18.4-9C538.2,111.1,539.2,111.7,537.5,115.1z"/>
	<path id="path26" fill="#000080" d="M486,184.1c4,2.2,3.8,2.4-1,1c-6.9-2-13.4,2.6-14.7,10.5c-0.7,4.4-1.9,5.2-4.2,3
		c-3.1-2.7-0.5-10.5,4.6-14.4C474.3,181.6,481.3,181.5,486,184.1z"/>
	<path id="path28" fill="#000080" d="M485.9,188.2c1.7,0.6,3.6,2,4.2,3.2c1.1,2,1.1,2-1.6-0.1c-3-2.4-6.5-2.8-9.5-1.2
		c-2.4,1.3-6.3,7.7-5.5,9c0.3,0.5,0.1,1-0.6,1c-1.7,0-0.4-6.8,1.8-9.2c1-1.1,2.7-2.4,3.8-2.9C481.3,186.9,482.2,186.9,485.9,188.2z"
		/>
	<path id="path30" fill="#D2B48C" d="M336.2,224.3c0.6,0.2,2.8,6,4.8,12.9c2,6.8,4.6,14.2,5.7,16.4c6.3,12,24.6,29.7,40.3,39
		c10.3,6.1,10,5.5,10,15.9c0,10,1.9,19.6,5,25.4c2.4,4.6,2.4,4.2,0.4-7.5c-0.9-5.2-1.3-9.7-1-10c0.3-0.4,2.4,0.3,4.5,1.5
		c2.2,1.2,9.2,3.5,15.8,5.2c7.5,1.8,12.3,3.6,13.3,4.7c0.8,1,2.9,2.9,4.7,4.1c3.6,2.6,18.6,20.4,23.2,27.8c1.8,2.7,4.5,9,6,14
		c1.6,4.9,3.6,10.4,4.5,12.2c0.9,1.7,1.6,4.1,1.6,5.4s0.6,4.8,1.4,7.7c1.1,4.3,1.1,7.3,0.3,15.8l-1.1,10.4l-2.6-0.6
		c-3.1-0.8-5-2.3-5-4c0-2.4-4.1-6.5-6.6-6.5c-1.7,0-2.7-0.9-3.7-3.3c-1.9-4.4-3.9-5.9-9.2-6.5c-3.9-0.4-4.5-0.8-4.5-2.7
		c0-4.2-3.1-6.4-12-8.8c-8-2.1-8.5-2.4-9-5.2c-0.4-2.3-1.5-3.5-4.9-5.1c-2.4-1.2-5-3-5.8-4c-0.7-1-3.2-2.7-5.5-3.9
		c-4.4-2.1-5.3-3.3-6.3-7.8c-0.8-3.8-3.6-6.4-8.7-7.7c-10.9-3-14.6-5-18.1-9.9c-3.1-4.3-4.1-4.9-10.8-6.9c-4.1-1.2-8.4-2.2-9.6-2.2
		c-2.2,0-10.3-8.2-10.3-10.6c0-0.7,1.6-4.5,3.5-8.6c2-4,3.8-9,4.1-11.1c0.4-2,1-3.7,1.4-3.7s2,2.8,3.6,6.2c2.6,5.6,2.9,7.3,2.8,16
		c0,5.4,0.4,9.8,0.8,9.8c0.5,0,2.1-2.6,3.6-5.8c2.3-4.8,2.7-7.1,2.7-14.2c0-7.4-0.6-10.2-4.4-21.5c-2.4-7.2-7.3-19.8-11.1-28
		c-3.7-8.3-7.4-17-8.3-19.5c-2-5.6-6.7-22.5-6.7-24C335,224.4,335.5,224.1,336.2,224.3z"/>
	<path id="path32" fill="#B22222" d="M498.5,236.2c3.3,8.1,14.9,30.9,19.6,38.6c6.3,10.3,11.3,20.5,16.8,34.4s7.9,24.5,8.8,38.9
		c0.7,11-0.5,29.3-1.8,28.5c-0.8-0.6-4.7-6.8-11.6-18.9c-1.8-3.2-5.1-8-7.3-10.6l-4-4.8l1.5-5.8c2.1-7.9,1.9-17.3-0.5-27.4
		c-2.3-9.6-6.9-22.9-10.1-29.2c-3.5-6.9-11.9-26.9-14.1-33.3c-1.8-5.6-1.9-11.9-0.1-14.8C496,231.3,497.3,233.3,498.5,236.2z"/>
	<path id="path34" fill="#B22222" d="M491,245.1c0.4,0,1,1.8,1.4,4.1s3.8,13.4,7.6,24.8c8.3,24.8,10.4,34.7,9.8,45.4
		c-0.3,4.3-0.9,8.2-1.4,8.7c-0.7,0.7-2.2,0.1-4.3-1.4c-1.8-1.4-5.5-3-8.2-3.6c-2.7-0.7-5.2-1.7-5.6-2.3c-0.4-0.7-0.8-5-0.8-9.7
		c-0.1-8.4-2-17-3.7-17c-0.5,0-0.9,4.8-0.8,10.7c0.1,6,0.1,11.5,0.1,12.5c-0.1,1.2-1.4,1.8-5.2,2.3c-4.4,0.6-5.4,0.4-7.4-1.5
		c-1.9-1.7-3-2-5.5-1.5l-3.3,0.7l0.7-3.6c1.2-6.6-6.2-15.6-12.9-15.6c-1.8,0-3.7-0.5-4-1.1c-1.4-2.1,9.2-15.5,23.1-29.4
		c7.8-7.8,15.4-16,16.9-18.3C489,247,490.6,245.1,491,245.1z"/>
	<path id="path36" fill="#1E90FF" d="M604.8,284.1c0.3,0-1.5,2.2-4.1,4.8c-2.6,2.7-4.5,5.1-4.1,5.4c0.3,0.4,2.6-0.1,5.2-0.9
		c4.2-1.5,4.8-1.5,7.5,0c1.6,1,3.4,1.7,4.1,1.7c2,0,6.6,4,6.6,5.7c0,0.8,0.9,2.6,1.9,3.9c1.1,1.3,2.2,4.7,2.6,7.4
		c0.7,5.1,0.1,6.9-5.3,18c-2.1,4.2-8.7,7.8-16,8.7c-4.5,0.5-5,0.8-4,2.1c1.5,1.8,11.7,1.1,17.3-1.2c3.4-1.5,3.6-1.4,3,0.3
		c-0.5,1.6,0,1.8,4.4,1.3c5.7-0.5,18.1,3.1,18.1,5.3c0,2-6.8,8.2-11.6,10.5c-2.8,1.4-6.1,2-11,2c-7.5,0-8.8-0.6-16.1-7.1
		c-2.3-2.1-5.4-4.1-6.8-4.5c-3.7-0.9-9.4,0-14.6,2.4l-4.4,2l8.7,0.1c8.7,0.1,8.8,0.1,15.3,4.6c3.6,2.4,9,5.2,11.9,6
		c4.9,1.4,5.7,1.4,11.4-0.4c3.4-1,8.1-3,10.5-4.4c5.3-3.2,13.7-12.1,18.7-20c5-7.8,6.5-6.1,3.5,4c-0.9,2.9-4.7,9.6-8.9,15.7
		c-4.1,5.8-7.2,10.6-6.9,10.6c1.8,0,7.4-5.5,10.4-10.1c1.8-2.9,3.5-4.7,3.7-4c1.1,3.3-9.7,14.5-17.9,18.6c-11.2,5.7-9.7,8,1.7,2.6
		c3.3-1.6,7.1-3.2,8.3-3.6c4.1-1.3,0.1,4.3-6.1,8.5c-8.2,5.5-14.7,7.4-24.5,7.5c-4.6,0-8.3,0.3-8.3,0.6c0,1.1,7.1,3.9,9.9,3.9
		c1.5,0,6.1-0.9,10.1-1.9c4.1-1.1,7.7-1.8,8-1.5c1,1-5,5.3-9.3,6.6c-2.3,0.7-9,1.3-14.9,1.3h-10.6l2.9,1.9c2,1.2,5.9,2.1,11.2,2.5
		c7.5,0.7,7.9,0.8,4.4,1.5c-3.7,0.8-11.3,0.4-16.7-0.9c-2.4-0.6-2.4-0.6,0.5,2c1.7,1.4,5,3.1,7.5,3.7l4.5,1.2l-3,0.8
		c-3,0.9-9.5,0.5-13-0.8c-1.7-0.6-1.7-0.4,0.5,2c1.3,1.4,4.4,3.3,7,4l4.5,1.4l-2.8,1.1c-1.6,0.6-5.1,1.1-7.8,1.1
		c-9.1,0-29.4-2.2-30.7-3.3c-0.8-0.6-2.1-2.8-2.9-4.9c-0.8-2.1-2.3-4.4-3.3-5.1c-4.3-3.1-7.3-13.2-5.8-19.9c0.5-2.2,0.5-4.5,0-5.2
		c-0.4-0.6-0.7-2.9-0.6-5.2c0.2-3.6,0.9-5.5,4.3-11.4c0.5-0.8,1.5-2.7,2.2-4.3c0.7-1.5,3.5-4.1,6.1-5.7c2.7-1.7,4.6-3.5,4.3-4.1
		c-0.4-0.5,0.5-1.9,1.9-3s3.7-4.4,5-7.2l2.5-5.1l-2.7-3.4c-5.6-7-5.6-7-3.5-14.7c1.4-5.1,2.3-6.9,3.4-6.7c0.9,0.1,2.6-0.9,3.9-2.3
		c1.7-1.8,2.1-3.1,1.7-5.4c-0.5-2.5-0.2-3.1,1.5-3.7c1.2-0.4,5.1-3.5,8.5-7C601.2,287,604.4,284.1,604.8,284.1z M591.5,308.7
		c-0.5,0.1-2.2,0.5-3.7,0.8c-4.3,1-3.3,2.6,1.5,2.6c6.3,0,8.1,1.7,7.2,6.8c-0.4,2.3-1.5,5.2-2.6,6.6c-2.6,3.3-2.4,3.8,1.4,3.4
		c3.2-0.3,3.2-0.4,4.1-7.1c0.6-5.1,0.5-7.5-0.4-9.2C597.8,310.3,593.6,308.1,591.5,308.7z"/>
	<path id="path38" fill="#ADFF2F" d="M408.6,302.4c6.1,2,6.4,2.3,6.4,5.3c0,1.7,0.3,4.6,0.6,6.3c0.5,2.4,0.3,3.1-0.9,3.1
		c-3,0-5.8-3.4-6.4-7.8c-0.7-5.1-2.3-5.6-2.3-0.7c0,4-1.2,4.5-3.4,1.3c-1.5-2.2-2.2-7.9-1-9C401.9,300.6,405,301.3,408.6,302.4z"/>
	<path id="path40" fill="#ADFF2F" d="M445.4,309.2c-1.2,5-1.4,7.3-0.6,8.1c0.8,0.8,1.7-1.1,3.3-6.7c1.3-4.2,2.9-7.9,3.6-8.2
		c0.8-0.3,2.8,0.7,4.4,2.3c2.6,2.5,2.9,3.4,2.4,6.5s-0.2,4.2,2.4,7.2c2.4,2.7,3.1,4.4,3.1,7.8c0,4.9,1.1,4.3,3-1.4
		c0.6-2,1.5-3.7,1.8-3.7c1.4,0.1,7.2,10,5.9,10c-3,0-11.7,13.1-11.7,17.7c0,2.3-1.7,1.4-5.4-2.7c-4.7-5.2-5.2-11.9-1.4-19.3
		c1.1-2.2,1.7-4.1,1.4-4.4c-1.4-1.4-3.3,1.1-5.4,7.1c-2.3,6.3-4.3,8.3-5.5,5.2c-0.3-0.8,0.3-4.7,1.4-8.7c2.8-10.8,2.2-12.3-1.6-4.5
		c-1.9,3.7-3.6,7-3.9,7.3c-1,1.1-4.9-2.1-6.1-5c-1.4-3.5-0.5-19.8,1.1-20.4c0.5-0.2,2-1,3.4-1.7C446.7,298.5,447.6,300,445.4,309.2z
		"/>
	<path id="path42" fill="#ADFF2F" d="M424.9,305.1c4.6,0,7.2,0.5,8,1.4c1.2,1.4,0.5,4.6-1,4.6c-0.5,0-0.9,2.3-0.9,5.1
		c0,6.5-1.6,5.5-2.5-1.6c-0.9-7.2-2.5-7.1-2.5,0.1c0,4.9-0.2,5.5-1.7,4.9c-1-0.3-2.9-0.9-4.3-1.1c-2.4-0.5-2.5-0.9-2.3-6.7
		c0.1-3.4,0.2-6.3,0.2-6.5C418,305.2,421.1,305.1,424.9,305.1z"/>
	<path id="path44" fill="#1E90FF" d="M685.1,316.1c1.6,0,1.9,0.7,1.9,5.2c0,6.1-1.6,12.5-5.4,21.9c-2.8,7-3.1,8.9-1.7,8.9
		c0.5,0,2.9-5.1,5.4-11.3c3.9-9.4,4.6-10.6,4.7-7.7c0,2-1.1,6.9-2.5,11c-2.8,8.5-2.9,9-1.6,9c0.5,0,2.1-2.4,3.5-5.3l2.6-5.2
		l-0.5,4.5c-0.3,2.5-1.9,7.1-3.5,10.4c-3.7,7.2-2.8,9.6,1.1,3.2c4.9-7.8,4.9-6.7,0.4,7.9c-2.4,7.9-1.8,8.4,2.1,1.9
		c1-1.7,1.3-1.5,1.9,1.8c0.9,4.9-1.9,13.9-5.4,17c-1.9,1.7-2.2,1.8-1,0.3c1.7-2.1,3.8-11.7,2.3-10.2c-0.5,0.5-1.7,2.9-2.6,5.5
		c-1.6,4.6-1.6,4.6-1.7,1.4c-0.1-3.4-2.1-3.7-2.1-0.3c0,1-0.8,2.5-1.8,3.4c-2.1,1.9-10.2,5-10.2,3.9c0-0.5,1.3-5.1,3-10.2
		c3.5-11.2,3.3-10,1.8-10c-0.7,0-2.5,3.7-3.9,8.3c-3.1,9.7-10.8,24-12.5,23.3c-0.7-0.3-2.1,1.7-3.4,4.7c-1.9,4.3-2.4,4.9-3,3.2
		c-0.7-1.9-0.7-1.9-1.4,0.3c-1,3.1-5.3,8-8.6,9.7c-2.3,1.2-14.7,4.5-17,4.5c-0.4,0,0.4-2.2,1.8-4.9c3.1-5.8,2.3-7.7-3.9-8.7
		l-3.8-0.6l8.8-9.5c4.9-5.2,9.9-11.4,11.2-13.8c1.2-2.3,3.3-4.9,4.5-5.6c3.6-2.2,8.4-9,8.4-11.8c0-1.5,1.8-6.4,4.1-11
		c3.6-7.4,4-8.9,3.4-13c-0.5-3.6-0.1-6,1.5-10.1c2.2-5.7,6.7-11.3,8.2-10.4c1.1,0.7,0.1,8.9-2.4,18.8c-1,4.3-1.7,8.3-1.5,8.9
		c0.7,2.2,4.7-8.6,5.7-15.3c1-7,6.1-18.9,9.5-22.4C682.4,316.8,684,316.1,685.1,316.1z"/>
	<path id="path46" fill="#6B8E23" d="M478.1,324.1h5c5.4,0,6.2,1,2.4,3c-3.1,1.7-3.3,3.5-0.2,2.6c5.8-1.7,11.4-1.8,14.3-0.3
		c3,1.6,8.1,6.4,7.3,7c-0.2,0.2-3.3,0.1-6.9-0.3s-6.7-0.5-7-0.3c-0.8,0.7,2.4,2.3,4.7,2.3c3.5,0,16.6,5,19.2,7.4
		c3.1,2.7,12.1,16.4,12.1,18.3c0,0.8,0.8,2.7,1.9,4.1c2.1,3,20.1,38.7,20.1,39.9c0,0.9-29.6,1.1-30.2,0.3c-0.3-0.3-3.5-5-7.3-10.5
		c-3.7-5.5-8.5-12-10.7-14.4c-2.1-2.4-4.3-6.1-5-8.3c-0.6-2.1-2.7-5.2-4.5-6.9l-3.4-2.9l2-2.6c2.3-2.9,1.9-4.4-2.3-8.3
		c-1.8-1.7-2.6-3.5-2.6-5.8c0-3.6-3.6-8.3-6.3-8.3c-1.1,0-1.3-1.1-0.9-4.9c0.2-2.7,0-6.3-0.6-8L478.1,324.1z"/>
	<path id="path48" fill="#ADFF2F" d="M340,341.3c13.2,22,16,26,16,22.8c0-0.6-2.2-5-5-9.8l-5-8.7l6.8-0.3c7.7-0.4,13.1,0.9,15.7,3.8
		c1.8,2,1.8,2-3.8,2c-4.8,0-5.7,0.3-5.7,1.8c0,2.1,5.9,12.2,10,17.2c4.5,5.6,4.6,2.7,0.1-4.5l-4.1-6.5h7.7
		c9.6,0.1,14.4,1.1,18.8,4.2l3.5,2.3l-3.9,0.3c-6.6,0.5-6.9,2.2-1.9,9.9c4.8,7.5,9.2,16.3,8,16.3c-2.9,0-15.3-6.1-17.5-8.5
		c-2.1-2.3-2.6-2.6-2.7-1.3c0,2.4-0.4,2.3-6.4-1.1c-6.6-3.8-9.5-6.6-11.2-10.8c-1.6-3.7-3.9-3.5-3,0.3c0.4,1.6,0.2,2.4-0.7,2.4
		c-2.6,0-5.7-4.1-10.2-13.5c-2.5-5.2-5.4-9.9-6.5-10.5c-1.6-0.9-1.3,0.4,2.1,7.6c2.2,4.8,3.7,8.9,3.5,9.2
		c-0.7,0.7-14.6-20.9-14.6-22.7c0-0.8,0.7-2.3,1.7-3.3C334.3,337,337.7,337.6,340,341.3z"/>
	<path id="path50" fill="#ADFF2F" d="M470.8,338.1c0.2,0,1.3,1.1,2.3,2.4c1.1,1.4,3.6,3,5.6,3.7c3.4,1.1,3.6,1.3,1.5,2
		c-2.5,1-3.1,4.9-0.6,4.9c1.6,0,8.4,6.8,8.4,8.5c0,0.6-1.8,2.9-4,5c-2.2,2.2-5,5.9-6.1,8.2c-1.1,2.4-2.4,4.3-2.9,4.3
		c-0.4,0-1.3-2.1-2-4.6c-0.7-2.6-2.8-6.8-4.7-9.5c-1.8-2.7-3.3-5.4-3.3-6s1.8-3.8,4-7.1c2.2-3.3,4-6.4,4-6.9c0-1.7-1.5-0.9-4.2,2.3
		l-2.8,3.3l2.2-5.3C469.4,340.5,470.6,338.1,470.8,338.1z"/>
	<path id="path52" fill="#006400" d="M324.8,355.4c0.8,1.6,2.5,3.2,3.8,3.7c1.4,0.6,2.7,1.7,3,2.5c0.4,0.9,2.5,2.5,4.8,3.7
		c2.2,1.1,6.4,3.8,9.3,6c2.8,2.2,7.5,4.8,10.3,5.9c2.9,1.1,8,3.9,11.4,6.2c3.7,2.6,10.8,5.9,17.2,8.2c6,2.1,12.2,4.9,13.8,6.2
		c1.5,1.3,4.5,3.1,6.5,3.9c1.9,0.8,4.5,2.3,5.6,3.4c1.1,1,4.9,3,8.5,4.4c3.5,1.5,7.6,3.7,9,5s3.9,2.7,5.5,3
		c3.1,0.7,9.5,4.6,24.3,14.5c10,6.7,9.3,6.3,16.1,8.9l5.3,2.1l1.9-2.2c4.5-5.2,8-10.8,8.6-13.9c0.3-1.8,1.7-5.5,3-8.1
		c1.7-3.4,2.2-5.7,1.8-7.7c-0.4-1.9,0.1-4.1,1.4-6.6c2.5-4.6,2.6-7.2,0.6-12.1c-1.9-4.4-1.9-8.7-0.1-10.2c1-0.9,2.2,0.1,5.7,4.4
		c4.9,6.2,14.9,22.9,14.9,25c0,0.8-5.9,9.6-13.2,19.7c-16.3,22.7-20.1,27.7-27.1,35.3l-5.5,6l-3.4-3.1c-1.8-1.7-4.1-3.4-5.1-3.8
		c-2.4-0.8-20.4,2.2-24,4.1c-1.6,0.8-4.2,3.4-5.9,5.8c-2,2.8-4.9,5.3-8.5,7c-2.9,1.5-5.8,3.5-6.3,4.4c-0.4,0.9-1,8-1.2,15.8
		l-0.3,14.2l3,3.1l3,3.2L411,534.4c-14.2,13.8-38.8,32.6-40.1,30.6c-0.5-0.8-2.3-5.4-4-10.2c-1.8-4.8-8.6-19.4-15.1-32.5l-12-23.7
		l0.5-6c0.3-3.3,1.2-9.4,2.2-13.5c1.2-5.7,1.6-11.2,1.3-23l-0.3-15.5l-3.8-6.5c-2-3.6-6.9-11.4-10.8-17.3c-4-5.9-7-11-6.7-11.2
		c0.3-0.3,3.6,1.7,7.4,4.4c6.5,4.5,13,10.8,18.2,17.5c1.2,1.6,2.5,2.6,2.9,2.2c1.2-1.2-2.5-6.7-15.3-22.6
		c-13.4-16.6-19.7-27.6-20.9-35.8c-0.8-5.7,0.7-12.3,3.7-16.5C320.6,351.4,323,351.6,324.8,355.4z"/>
	<path id="path54" fill="#6B8E23" d="M241.7,360.1c2.9,0,7.4,1.8,9.5,3.7c1.6,1.4,1.5,1.8-1.2,5.2c-4,4.9-5.8,9.7-7,18.3
		c-1.1,7.4-0.5,15.7,1,14.1c0.4-0.4,1.5-5.6,2.4-11.5c2.8-19.7,9.4-27.1,21.3-23.9c6.2,1.7,9,4.5,13.7,14
		c5.5,10.9,14.6,31.6,14.6,33c0,0.6,0.5,1.1,1.1,1.1c1.3,0,0.9-2.2-3.2-14.9c-1.7-5.2-4.8-13-7-17.4c-2.2-4.3-3.9-8.1-3.7-8.2
		c1-1,15.7,11.7,24.2,20.8c14.4,15.5,18,20.6,26.2,37c8.5,17.1,8.5,16.5,5.3,38.2c-2.4,16.9-3.8,50.2-2,49.1
		c0.6-0.4,1.1-3.4,1.1-7.2c0-3.5,0.4-6.4,0.9-6.4s1.7,2.1,2.7,4.7c3.2,9,6.8,16.8,12.1,26.5c6.2,11.2,10.9,22.7,11.9,28.5
		c0.6,3.9,0.5,4.2-3.7,7.1c-12.4,8.6-23.6,24.9-29,42.2c-1.2,4.1-2.8,7.9-3.4,8.5c-0.6,0.5-1.6,1.9-2.3,3c-1,1.9-1.1,1.8-2.3-1
		c-0.7-1.7-1.3-5.9-1.3-9.5c0-8.7,4.2-17.4,12.9-27c6.8-7.3,7.8-9.1,4.6-8.3c-3.4,0.9-14,12.9-16.9,19c-2.4,5.2-2.6,6.9-2.7,17.4
		c0,12.6,0.8,14.9,5.1,14.9c2.2,0,2.4,0.4,2.4,5c0,5.4,1.6,6.8,2.6,2.2c0.3-1.5,1.2-5.4,2-8.7c0.9-3.3,2.2-9.1,3-12.9
		c2.6-12.6,10.9-25.5,23.7-37.2c3.4-3.1,12.7-10,20.7-15.4c14.7-10,30.4-23.1,39.6-33.3l5.1-5.6l2.6,3.7c3.9,5.5,6.5,11.2,7.2,15.6
		c0.8,4.9,4.2,8.3,9.1,9.1c7.6,1.2,8.6,1.6,11.2,4.5c1.9,2,3.8,3,6.6,3.2c3.7,0.3,4,0.5,5.9,5.8l1.9,5.5l-17.7,27.5
		c-23.4,36.5-40.2,57.1-64,78.7c-19,17.2-26.4,21.5-37,21.5c-6.4,0-14.2-2.5-20.8-6.5c-7.4-4.5-21.9-22.9-31.6-40.2
		c-17.9-31.9-48.7-97.2-57.1-121c-2.3-6.6-5.5-15.2-7-19.1c-1.6-3.9-3.4-10-4-13.5s-2.5-11.8-4.1-18.4s-2.9-14.7-3-18
		s-0.4-7.1-0.8-8.5c-0.7-2.3-0.8-2.3-1.5,1.2c-0.4,2.1-0.4,7.2,0,11.3c0.4,4.1,0.4,7.5,0.1,7.5c-0.6,0-6-16.3-7.9-24
		c-0.8-3.5-1.3-11.3-1.2-21.5c0.1-14.5,0.4-17.1,3.1-27.7c3.9-14.7,10.4-27.4,18.1-35.7C237.4,362.4,240.4,360.1,241.7,360.1z
		 M281.7,457.7c-0.4,0.4-0.7,5.7-0.7,11.8c0,15.8-2.2,27.7-6.7,37.3c-2.8,5.8-4.3,7.8-5.7,7.8c-2,0-2.3-0.8-5-12.9
		c-0.5-2-1-2.6-1.8-1.8c-1.5,1.5,0.9,14.6,3.4,17.7c2.5,3.2,3.8,3.2,7-0.3c4.9-5.1,7.2-11.8,10.9-31.2c1.6-8.7,2-13.4,1.5-19.4
		C284.1,459.1,283.1,456.3,281.7,457.7z M286.8,462.1c-0.6,0-0.7,0.8-0.3,1.7c3.4,8.8,6.4,29.6,6.6,45.7c0,6.6,0.2,7.6,1.1,5.6
		c1.5-3.7,1.5-27.5-0.1-34.5c-0.7-3.3-2.4-8.8-3.8-12.3C288.9,464.9,287.3,462.1,286.8,462.1z"/>
	<path id="path56" fill="#ADFF2F" d="M485,367.1c0.3,0.1,1.9,1.3,3.6,2.8c2.6,2.3,3.1,3.3,2.8,6.7c-0.1,2.2-0.6,5.3-0.9,6.8
		c-0.5,1.8-0.1,5.1,1.1,8.9c1.7,5.8,1.7,6.2,0,11c-1.1,3-1.5,6.1-1.1,7.9c0.5,2.4,0.1,3.6-2.4,6.5c-2.7,3-3,4-2.5,7.3
		s0.3,4.1-2.1,5.9c-3.1,2.4-3.4,2.5-5.3,1.4c-0.9-0.7-1-2-0.1-6.6c1-4.8,1.9-6.3,5.7-9.7c5.2-4.5,5.1-6-0.2-2.8l-3.6,2.1v-6
		c0-4.4,0.5-6.6,2-8.5c1.1-1.4,2-2.9,2-3.3s-0.9,0.1-2,1.1c-2.4,2.2-2.6,1.3-0.4-2c1.6-2.4,1.5-2.5-0.5-2.5c-1.5,0-2.1-0.6-2.1-2.3
		c0-2.4,4.2-9,7.3-11.6c1.7-1.3,2.3-4.1,1-4.1c-0.4,0-2.9,1.9-5.6,4.2c-4.8,4-5,4.1-4.4,1.5c0.4-1.5,1-3.9,1.4-5.5
		c0.3-1.5,1.8-4.2,3.2-5.9C483.3,368.6,484.7,367.1,485,367.1z"/>
	<path id="path58" fill="#ADFF2F" d="M405.4,379.1c1.5,0,13,8.2,14.8,10.6c2.4,3,8.1,6,13.1,6.9c4.9,0.9,5.5,2.3,2.4,4.9l-2.6,2.1
		l1.9,5.2c1,2.9,1.5,5.3,1.2,5.3c-0.4,0-2.1-0.9-3.9-2c-2.6-1.5-3.6-3.2-5.2-8.7c-2.3-7.6-3.6-10.1-4.7-9c-0.4,0.4,0,3.1,0.9,5.9
		c0.9,2.9,1.4,5.4,1.2,5.6c-1.3,1.4-3.5-1.4-5.4-7c-4.1-11.3-4.3-11.8-5.7-11.8c-1.7,0-1.8-0.6,1.1,8c1.4,4,2.3,7.5,2.1,7.7
		c-0.7,0.8-4.5-1.7-5.5-3.5c-0.5-0.9-1.9-5.3-3.1-9.7c-1.2-4.3-2.4-8.5-2.7-9.2C405,379.7,405.1,379.1,405.4,379.1z"/>
	<path id="path60" fill="#D2B48C" d="M698,390.6c0.9,1.1,0,3.9-4.9,14.2c-3.4,7.3-7.3,17.5-9,23.8l-2.9,11l-8.5,8
		c-10.7,10-16.8,13.7-28.2,17c-5.2,1.5-9.9,3.5-11,4.7c-1.4,1.4-1.5,1.9-0.5,1.6c2.2-0.8,15.9-3.7,20.2-4.3
		c2.4-0.4,6.5-2.7,11.8-6.7c12.5-9.4,18.6-17.2,20.9-26.5c2.1-8.4,8.7-23.8,10.4-24.1c3-0.6,2,3.6-2.8,11.9
		c-2.4,4.2-5.8,11.2-7.5,15.4s-3.7,8.6-4.5,9.8c-0.8,1.2-2.1,4.1-2.9,6.5c-1.4,4-6.3,9.3-11,11.9c-1.1,0.6-9,4.4-17.4,8.3
		c-20.9,9.8-19.8,9.8-54.2,2.1c-15.1-3.3-34-7.9-42-10.1c-10.7-3-16.3-4-21.7-4c-7.4,0-9.8,1.2-6.8,3.4c1.6,1.2,1.4,1.8-3,7.2
		c-6.6,8.1-18.1,25.8-24.5,37.9c-2.9,5.5-6,10.6-6.8,11.2c-0.9,0.7-3.4,1.3-5.5,1.3c-3.6,0-4.5-0.6-10.1-6.6
		c-7.1-7.7-9.1-11.4-10.7-20.5l-1.2-6.6l15.8-18.9c8.7-10.4,18.2-22.6,21.1-27c7.9-12.2,18.9-25.5,23.1-28.1c3.2-2,5.2-2.3,13.2-2.3
		c8.6,0,10.2,0.3,19.5,4.1c8.4,3.3,11.9,4.2,21.1,5c19.7,1.7,27.1,1.4,36.3-1.5c9.4-3,11.2-3.2,11.2-1.2c0,1.9-9.9,11-14.8,13.5
		c-6.3,3.2-14.8,5.1-23.2,5.1s-15.5,2.7-20.1,7.6l-2.4,2.6l2.5-0.7c1.4-0.4,4.5-1.6,7-2.7c2.8-1.2,8.4-2.3,15-2.9
		c11.3-0.9,22.9-3.9,25-6.5c2.5-2.9,5.5-3.8,13-3.9c12.1-0.1,17.1-2.4,26.5-11.9c4.5-4.5,9.2-10.1,10.5-12.5
		c3.1-5.6,10.9-11.1,15.6-11.1c4.5,0,4.4,1.9-0.2,9.6c-2,3.2-5.7,10.2-8.2,15.4c-5.7,12.1-6.9,13.8-15.3,21
		c-7.8,6.7-9.8,7.4-25.2,8.9c-10.3,1-16.7,3-16.7,5.2c0,0.6,0.8,0.8,1.8,0.5c0.9-0.3,8.9-1.5,17.6-2.6c8.8-1.1,16.6-2.6,17.5-3.3
		c0.9-0.6,5.2-4.4,9.6-8.4c7.9-7.1,8.2-7.5,17.9-26.8c6.8-13.4,11-20.5,13.3-22.5C695.5,388.7,696.3,388.5,698,390.6z"/>
	<path id="path62" fill="#ADFF2F" d="M444,408.4c5.6,0.9,6,1.2,6,3.6c0,3.7,1.7,5.1,6.2,5.1c5.2,0,9.1,3.7,8.6,8.3
		c-0.2,2.6-0.7,3.2-2.7,3.2c-1.3,0-2.7-0.7-3.1-1.5s-1.3-2.7-2.1-4.3c-1.3-2.9-2.9-3.6-2.9-1.2c0,3.4-5.4-0.1-7.4-4.8
		c-0.3-0.9-0.7-0.8-1.5,0.3c-0.5,0.8-1.2,1.2-1.4,1c-1.2-1.4-5.7-9.1-5.7-9.8C438,407.8,440.7,407.9,444,408.4z"/>
	<path id="path64" fill="#DEB887" d="M708,435.7c3.2,19.4,2.4,26.4-4.6,39.9c-4.8,9.3-5.2,9.7-10.7,9.3l-4.7-0.3l6.1-10l6-10
		l-0.4-20.7c-0.3-15.3,0-21.5,0.9-23.8C703.3,413.8,704.8,416.9,708,435.7z"/>
	<path id="path66" fill="#D2B48C" d="M710.3,423.3c1.4,0.2,2.8,2.6,5.4,9.8c6.4,17.6,6.4,17.4,1.2,39.8c-2.4,10.3-3.5,11.5-9.8,11
		l-3.9-0.3l5-12l4.9-12l-0.5-10c-0.3-5.5-1.4-13.7-2.4-18.3C708.3,423.1,708.3,423,710.3,423.3z"/>
	<path id="path68" fill="#D2B48C" d="M694.9,431.6c1,0.5,2.1,11.7,2.3,22.1c0.1,6.7-0.2,7.6-5.3,17.4c-5.9,11.2-9.6,16-12.6,16
		c-1.1,0-7.5-1.5-14.4-3.4c-11.9-3.3-13.8-3.3-13.9-0.4c0,0.4,3.3,1.4,7.4,2.3s8.1,2.2,9,2.8c1.1,0.9,1.9,5.5,3.1,17.2
		c0.8,8.8,2.1,20.3,2.8,25.6c1.6,11.4,1.4,12.1-1.9,10.8c-3.4-1.2-7-1.1-9.3,0.2c-1.4,1-2.4,0.8-4.9-1.1c-2.3-1.7-3.9-2.1-6.6-1.7
		c-6.3,1-15.2-6.3-21.1-17.5l-2.9-5.6l2.3-13.9c1.2-7.6,2.4-14.5,2.7-15.4c0.2-0.9,9-5.5,20.7-10.9c11.1-5.1,21.2-10,22.5-10.8
		s3.2-3.3,4.3-5.4c2.9-5.6,3.5-4,0.8,2.1c-1.2,2.9-1.9,5.4-1.7,5.7c0.3,0.2,1.8-1.2,3.4-3.3c2.2-2.9,3-5.2,3.5-10.3
		c0.5-6.2,3.8-15,7.5-20.8C693.4,432.1,694.5,431.3,694.9,431.6z"/>
	<path id="path70" fill="#6B8E23" d="M538.3,475.1c3.4,16.7,1.2,28.8-7.5,40.4c-1.8,2.4-4.1,5.8-5,7.5c-1.9,3.5-3.8,4.1-3.8,1.1
		c0-4.3-2.8-8.7-7.1-11.2c-2.4-1.5-5.7-4-7.3-5.6l-2.8-3.1l2.3-3.3c1.3-1.8,6.7-9.2,12.1-16.5c5.4-7.2,9.8-13.6,9.8-14.2
		c0-0.5,1-1.7,2.3-2.6C535.3,464.8,536.4,466,538.3,475.1z"/>
	<path id="path72" fill="#6B8E23" d="M542.1,467.2l3.2,0.6c14.6,2.8,42.2,10.3,43.7,11.9c0.9,1.1,4.8,7.8,8.6,15l6.8,13l-6.8,8
		c-8.6,10-9.3,11.5-7.7,15.9c0.7,1.9,1.2,7.4,1.1,12.2c-0.1,4.9-0.1,9.4-0.1,10.1c0.1,1.1,5,3.8,10.6,5.8c1.7,0.6,1.6,0.8-1.2,1.4
		c-5.8,1.3-9.5,4.3-12.9,10.5c-1.9,3.3-3.4,6.6-3.4,7.2c0,2.6,2,1.2,3.9-2.6c1.9-3.5,9.4-11.1,11.2-11.1c0.4,0-1,3.4-3.2,7.6
		c-4.2,8.1-5.1,14.7-2.8,21.3c0.9,2.7,1.6,3.2,3.4,2.8c2.1-0.4,2.4,0.2,3.7,6.6c0.8,4.2,1.9,7.2,2.7,7.5c1.2,0.4,1.3-0.9,0.7-7.5
		c-0.8-9.6,0.7-24.6,3.2-32.8l1.8-6l2.4,4.3c2.7,4.8,6.3,7.2,10.7,7.2c1.7,0,5.5,1.9,9.6,4.7c5.5,3.8,7.9,4.8,12.6,5.4
		c4.2,0.5,7.6,1.7,11.8,4.3c7.4,4.6,11.7,5.3,17.9,3.2c2.6-0.9,4.9-1.6,5.2-1.6c0.8,0-1,45.7-2,50.5c-1.4,6.9-5.5,14.2-9.2,16.4
		c-3.9,2.4-16.6,4.5-22.3,3.7c-9.6-1.3-27.6-13.7-47.7-32.8c-15.4-14.7-26.9-28.3-51.9-61.4l-13.6-18.1l1-3.7
		c0.9-3.3,0.7-4.5-1.7-9.1c-1.8-3.8-2.5-6.3-2.1-8.3c0.3-1.5,3.6-8.4,7.4-15.2l6.8-12.5v-13.5c0-7.4-0.3-15.2-0.7-17.2L542.1,467.2z
		"/>
	<path id="path74" fill="#FFFF00" d="M464.7,472.2l4.5,3.1l-2,2.1c-1.9,1.8-2.5,1.9-6,0.9c-2.2-0.7-5.7-1.2-7.8-1.1
		c-3.7,0.1-3.6,0.2,2.8,2.3c3.8,1.1,6.8,2.4,6.8,2.8s-1.4,1.5-3.1,2.4l-3.1,1.6l2.2,2.3c3.6,3.8,2,5.9-3.6,5.1
		c-3.4-0.4-4.5-0.3-4.2,0.7c0.3,0.6,2.6,1.4,5.1,1.7c9.8,1.2,9.1,5.2-1.6,9c-9.7,3.4-22.3,11.8-20.5,13.5c0.3,0.3,4.7-2,9.9-5
		c12.6-7.4,19.9-9.3,20.7-5.4c0.2,1-0.6,1.9-2,2.3c-2,0.7-1.6,0.9,2.6,2.1c7.3,2,7.6,3.1,1.3,4.5c-3,0.6-7.6,2.5-10.3,4.1
		c-5.3,3.3-10.4,7.8-10.4,9c0,0.5,4.7-1.5,10.4-4.3c8.3-4,11.5-5,15.4-5c2.8,0,5.5,0.2,6,0.6c1.7,1-0.6,8.5-6.5,20.9
		c-3,6.5-5.3,12-5,12.3c0.9,0.9,6.7-7,9.6-13.1c1.5-3.3,3.4-8.4,4.1-11.3c0.6-2.8,1.4-5.2,1.6-5.2c0.3,0,0.9,1.1,1.4,2.5
		c1.2,3.1,2.8,3.2,3.2,0.2c0.5-3.9,3.2-2.4,5.9,3.3c1.4,3,3.8,11,5.4,17.7c1.6,6.8,3.2,12.3,3.7,12.3c2.5,0-0.2-16.6-4.7-29.3
		c-1.4-3.8-2.5-7-2.5-7.3c0-0.2,1.6-0.4,3.5-0.4c3.9,0,4.1-0.4,2-4c-1.3-2.4-1.2-2.6,1.8-3.7c3-1.1,3-1.2,1-1.8
		c-2.4-0.8-2.1-3.5,0.3-3.5c2.1,0,9.5,3.9,12.2,6.4l2.4,2.1l-2.3,0.5c-2.1,0.5-1.7,1.2,5.4,8.9c7.6,8.3,9.3,11.2,8.5,14.8
		c-0.3,1.2-1.4,0-3.5-4.2c-1.7-3.3-4.2-7.5-5.6-9.2c-2.4-3.2-12.7-12-12.7-10.9c0,0.4,3.2,4.6,7,9.3c5.8,7.1,7.5,10.2,9.5,16.6
		c1.4,4.3,2.6,9.2,2.8,10.9c0.2,2.6-0.2,3.1-3.3,4.1c-2.4,0.8-4,2.3-5.2,4.7c-3.2,6.4-13.1,9.2-15.3,4.2c-1.3-2.9-2.5-2.8-7,0.8
		s-4.5,3.6-9.6,0.9c-3.1-1.5-5-1.9-8.3-1.4l-4.3,0.7l-1.2-4.6c-1.3-5.1-4.1-7.6-8.6-7.6c-3.7,0-5.5-1.6-5.5-4.7c0-2.1-0.4-2.3-6-2.3
		c-8.7,0-11.5-1.7-13.4-8.4c-2.9-9.7-7.3-18.3-12.6-24.1c-4.9-5.5-5.2-6-4.7-10.1c0.7-6.3,2.9-9,10.7-12.9c3.9-1.9,7-3.9,7-4.4
		s-3.6,0.4-8,2s-8.3,2.9-8.5,2.9c-1.1,0-0.4-6.9,0.9-7.9c2.7-2.2,13.3-5.2,20.4-5.8c8.9-0.7,8.2-2.1-1.2-2.5l-6.9-0.3l2.7-3.2
		c3.3-3.9,9-5.7,15.8-5.1c3.6,0.4,4.8,0.2,4.8-0.8C459,468.5,459.6,468.7,464.7,472.2z"/>
	<path id="path76" fill="none" d="M596.7,481.1c0.4,0,7.4,1.2,15.5,2.7c16.8,3.2,15.5,1.9,13.5,13.8c-1.2,6.6-1.4,7-3.7,6.6
		c-3.7-0.7-7.1-0.6-10.6,0.2l-3.2,0.8l-6.1-12C598.7,486.5,596.3,481.1,596.7,481.1z"/>
	<path id="path78" fill="#FFFF00" d="M618,508.7c2.5,0.3,4.7,0.8,5,0.9c0.3,0.2,0.4,2.3,0.2,4.8c-0.4,4.4-0.5,4.5-4.4,5
		c-2.2,0.3-5.8,1.7-8,3.2c-4.5,3-4.5,4.4,0.1,2.1c4-2.1,13.4-2.1,15.5,0c2.4,2.3,2,5.1-0.8,5.8c-5.8,1.4-13.1,14-14.2,24.5
		c-0.5,5.1-0.5,5.1,4-4.8c1.1-2.4,4.6-7.3,7.9-10.8c3.3-3.4,5.5-6.3,5-6.3s-1.4,0.5-2.1,1.2c-0.6,0.6-1.4,0.9-1.8,0.6
		c-0.3-0.4,0.6-1.4,2.1-2.4c2.5-1.7,2.7-1.6,5.6,1.2c6.3,6,6.4,7.1,1.9,18.9c-2.2,5.8-4,11.2-4,12c0,3.8,2,0.6,5.9-9.6
		c4.3-11,5.9-13.1,9-11.2c2.9,1.8,8.2,11.7,10.9,20.5c1.5,4.9,2.9,8.8,3.3,8.8c1.3,0-1.2-12.2-4.1-20.1c-1.6-4.5-2.8-8.4-2.7-8.6
		c0.6-0.5,6.3,4.1,8.9,7.2c1.4,1.6,4.1,5.4,6,8.3c4.7,7.1,5.4,4.6,1.1-4.3c-1.8-3.8-3.3-7.5-3.3-8.1c0-2,4.9-2.6,8.2-0.9
		c3.8,1.9,3.9,1.9,3.2,0c-1.5-3.9,6,1,11.5,7.5c2.3,2.7,4.7,5,5.2,5c2,0-3.7-8.4-8.8-12.9c-5.8-5.1-6.3-6.1-3.2-6.1
		c3.4,0,17.3,5.1,18.7,6.8c2,2.7,1.4,3.3-1.5,1.5l-2.8-1.8l1.9,3c1,1.6,2.9,4.1,4.2,5.5c2.5,2.7,5.9,10,4.7,10
		c-0.5,0-2.3-2.4-4.2-5.3c-4.6-7-5.1-4.3-0.7,3.7c4.2,7.5,4.3,8.6,1.5,11.2c-2.1,1.9-2.1,1.8-3.9-0.4c-1-1.2-3.7-5.6-5.9-9.7
		c-2.3-4.1-4.6-7.5-5.1-7.5c-1.5,0-1.3,0.5,3,9.7c2.2,4.7,4,9.6,4,10.8c0,1.1-1.3,3.4-2.9,4.9c-2.7,2.6-3,2.7-3.9,0.9
		c-1-1.6-1.1-1.6-2.1,0.9c-0.9,2.4-1.6,2.8-5.3,2.8c-2.4,0-5.2,0.7-6.2,1.5c-1.1,0.8-3.5,1.5-5.4,1.5c-4.2,0-12.9-3.6-16.3-6.7
		c-2-1.8-3.7-2.3-7.8-2.3c-5.9,0-7.8-0.8-13.8-5.6c-2.6-2.2-5.2-3.4-7.2-3.4c-5.2,0-7.9-1.7-9.9-6.2c-1.1-2.4-3.5-5.8-5.5-7.7
		c-2.8-2.7-4.2-3.3-6.6-2.9c-3.1,0.5-3.1,0.4-3.1-4.3c0-2.6,0.5-5.1,1-5.4c0.6-0.4,2.5-3,4.4-5.8c1.8-2.9,4.7-6.5,6.5-8.1
		c4.1-3.9,3.9-5-0.6-3.1c-5.8,2.3-11.6,9.2-13.8,16.4c-1.2,4.1-2.2,5.8-2.8,5.2c-1.4-1.4,0.7-13.4,3.3-18.3c2.4-4.6,2.1-5.5-1-3.8
		c-5.3,2.8-3.1-1.7,4.9-9.9l5-5.1h6.5c3.7,0,6.6-0.4,6.6-1c0-0.6-0.4-1-0.8-1c-0.5,0-1.7-0.7-2.8-1.5
		C613.6,508.1,613.8,508.1,618,508.7z"/>
	<path id="path80" fill="#006400" d="M501.2,573.5c2.4,1.4,2.3,1.8-1.2,11c-10.3,26.8-15.2,63-13,96.5c0.6,9.2,1.5,19.5,2,22.7
		s0.7,6,0.5,6.2c-0.3,0.3-3.7-1.1-7.6-3.1c-3.9-2.1-8-3.7-9.2-3.7c-1.1,0-3.9-1.1-6.3-2.5c-3.1-1.8-5-2.3-7.3-1.9
		c-2.6,0.6-3.6,0-8-4.4c-5.3-5.3-7.5-6.1-15.6-5.9c-2.6,0-7.3-1.4-13.5-4c-7.1-3.1-11.4-4.3-17.3-4.8c-7-0.6-7.7-0.8-6.5-2.3
		c0.7-0.8,9.5-11,19.6-22.6c18.8-21.6,40.5-51.6,49.4-68.2c6.4-12.1,7.5-13.4,11.1-13.4c1.8,0,5.2,0.9,7.6,2
		c5.6,2.6,7.4,2.5,10.8-0.4C498.9,572.8,499.8,572.6,501.2,573.5z"/>
	<path id="path82" fill="#808000" d="M535.5,683.7c19.2,10.7,35.1,21.9,44.4,31.4c10.2,10.3,31.2,36.3,38.7,48
		c13.9,21.4,32.4,55.5,32.4,59.6c0,1,1.7,4.4,3.9,7.5c2.1,3,4.4,7.3,5.1,9.5c0.7,2.1,1.8,4.6,2.5,5.4c0.6,0.8,1.5,2.3,1.8,3.2
		c0.6,1.7-9.5,1.8-202.4,1.8h-203l1.2-2.3c1.6-2.9,10.1-17.9,22.8-40c5.7-9.8,10.1-18.1,9.8-18.3c-1.9-1.9-32.5,47.4-35,56.4
		l-1.1,4.2h-69.9h-69.9l0.5-3.8c0.2-2,1.2-6.4,2.2-9.7s2.1-7.8,2.4-10.1c0.4-2.2,1.7-5.6,2.8-7.5c1.2-1.9,2.8-5.8,3.7-8.7
		c1.5-5.1,4-9,20.1-31c17.6-24.1,41.6-50.1,59.9-64.8c7.2-5.7,13.4-10.4,13.8-10.4c0.5,0-2.4,3-6.4,6.7
		c-15.9,14.7-29.3,28.2-35.2,35.3c-8.4,10.2-9,11-8,11c0.4,0,8-7.2,16.8-15.9c21.3-21,55.8-48.2,68.3-53.7
		c17.6-7.8,34.3-13,34.3-10.7c0,0.5-2.6,2.6-5.7,4.8c-6.5,4.6-20.6,18.2-22.4,21.7c-1.1,2.2-1.1,2.2,0.7,0.7
		c19-16,29.4-23.6,36.7-26.9c5.1-2.4,6.3-2.4,7.1-0.4c0.4,1.1-0.9,2.2-5.2,4.1c-20.2,8.9-47.2,36.1-77.1,77.7
		c-9.8,13.6-11,15.6-9.3,15.6c1.1,0,8.8-9.3,23.2-28c16.9-21.9,36.6-43.5,47-51.5c6.4-4.9,21.9-13.5,24.4-13.5
		c0.9,0,2.2,1.3,2.9,2.9c1.5,3.6,15.2,14.4,22.7,18c4.6,2.2,6.9,2.6,14,2.6c7.5,0,9.3-0.4,15-3.1c3.6-1.7,10.5-6.5,15.5-10.7
		c5.8-4.8,10.1-7.7,12.2-8c6.5-1.1,21.8,2.3,29.9,6.6c2.7,1.4,2.8,1.6,0.9,2.3c-19.4,7-42.3,23.3-58.9,41.9
		c-10.6,11.9-20,24.4-19.1,25.3c0.4,0.4,1.7-0.7,2.8-2.3c3.3-4.6,33.5-34.4,40-39.5c3.2-2.5,7.9-6.2,10.5-8.2
		c6.7-5.4,17.7-10.5,28.7-13.3c12.9-3.4,15.7-3.3,18.9,0.6c1.4,1.7,2.6,3.6,2.6,4.2c0,0.7-2.8,2.7-6.3,4.4
		c-6.6,3.5-22.7,15.7-22.7,17.3c0,0.5,5.8-2.6,12.9-6.9c13.1-8,27.6-14,29.4-12.2c0.6,0.6-0.9,2.2-3.8,4.3
		c-20.2,13.9-33,26.7-48.8,48.6c-5.1,7-10.7,16.1-10.7,17.4c0,0.5,0.6,0.8,1.3,0.8c0.6,0,3.9-4.2,7.2-9.2
		c13.5-20.7,32.6-41.5,46.9-50.9c12.8-8.4,18.8-8.9,26.6-2.4c2.3,1.9,5,3.5,5.9,3.5c4.8,0,7.9,7.7,14.6,36.7
		c1.5,6.7,3.2,12,3.7,11.6c1.3-0.7,0.1-10.6-2.8-23.5c-1.3-5.9-2.4-11-2.4-11.4c0-0.5,2.4,1.6,5.4,4.5c8.8,8.7,7.6,4.1-1.8-6.6
		c-4.7-5.4-8.3-9.9-8.1-10.1c0.2-0.2,2.3,0.5,4.7,1.6c10.1,4.5,34,33.8,49.7,61c3.8,6.5,6.4,9.3,7.6,8c0.7-0.6-13.2-24.7-17.7-30.7
		c-10.5-14.1-27.2-34.2-30.3-36.6c-1.9-1.4-6.4-4-10-5.6c-3.6-1.7-6.7-3.4-6.9-3.7c-0.2-0.4-0.7-4.9-1.1-10l-0.7-9.4l11.9,0.4
		c16.5,0.4,19,1.8,38.8,20c17.2,15.8,29.6,30,44.1,50.3c11,15.3,15.9,21.3,16.9,20.3c0.9-0.9-9-16.6-17.6-27.9
		c-15.3-20-39.8-46.6-53.4-57.8c-3.9-3.2-3.5-3.5,2.1-1.4c0.7,0.2,1.5,0,1.8-0.5c1.5-2.5-23.5-8.1-36.1-8.2H491v-3.9
		c0-4.3,1-5.5,6.6-7.5C507.1,671.2,517.4,673.6,535.5,683.7z M304.3,703c-4.7,3.7-16.3,16.1-16.3,17.5c0,1.7,2.5-0.1,10.9-7.9
		c5.1-4.7,9.7-8.5,10.3-8.5c1.2,0-8.1,17.8-16.1,30.6c-3.5,5.6-13.7,20.4-22.7,33S254,791,254,791.6c0.1,2.5,13.6-13.7,25.6-30.6
		c16.4-23,23.1-33.3,29.4-45.4c4.9-9.3,5.6-11.7,4.4-14.9C312.4,698.1,309.5,698.8,304.3,703z M442.9,791.1
		c-2.6,0-13.2,27-17.8,45.4c-2.5,10.1-0.3,8.5,3.3-2.4c4-12.2,12.3-34.6,14-37.9c0.9-1.6,1.6-3.5,1.6-4.1
		C444,791.6,443.5,791.1,442.9,791.1z M165.9,804.1c-1.5,0-13.3,16.3-19.4,26.9c-2.9,5-3.4,6.5-2.4,7.2c0.7,0.4,1.4,0.7,1.5,0.6
		c0.9-1,20.8-32.5,21.1-33.5C167,804.7,166.6,804.1,165.9,804.1z M604.7,819.1c-0.5,0-0.7,0.8-0.4,1.7c1.1,3.5,9.4,23.4,10.1,24
		c0.3,0.3,0.6-0.9,0.6-2.8c0-2-1.9-7.4-4.7-13.2C607.8,823.5,605.2,819.1,604.7,819.1z M435.7,820.1c-1.7,0-10.1,27-8.8,28.3
		c0.5,0.5,1.1,0.5,1.4,0c0.7-1.1,8.7-26.4,8.7-27.4C437,820.5,436.4,820.1,435.7,820.1z"/>
	<path d="M332.4,4.1c2.4,2.2,4.6,4,5,4s2.4-1.4,4.5-3c5-4,9.6-4.7,13.8-2.1c1.8,1.1,3.5,3.2,3.9,4.7s0.2,8.8-0.4,16.3
		c-0.5,7.5-0.8,13.8-0.6,14c0.2,0.2,2-1,4.1-2.6C380.6,21.3,409.4,15.3,427,22c4.8,1.8,6.8,2,16.5,1.5c13.7-0.7,17,0.2,31.5,9
		c5.9,3.6,11.6,6.6,12.6,6.6c1.1,0,6.5-0.8,12-1.7c13.4-2.2,16.7-1.3,24.6,6.7c4.1,4.2,7,8.6,10.7,16.1c5.7,11.7,7.7,18.5,8.6,29.1
		c0.4,5.2,1.6,9.5,4,14.8c1.9,4.1,4.1,10.2,5,13.5c1.9,7.5,2,18.7,0.1,22.3c-5,9.4-33.6,30.2-45.8,33.2c-3.8,1-4.9,1.7-5.7,4.3
		c-1.4,3.9-1.4,3.7,0.9,3.7c2.7,0,2.5,1.4-0.5,3c-2.8,1.5-2.4,3,0.8,3c2.2,0.1,2.2,0.1,0.3,1.5c-1.1,0.8-3,1.5-4.2,1.5
		c-3.1,0-3.8,4.3-3.1,16.9c0.8,15.2,5.2,26.5,21.4,54.5c4.1,7.1,11.3,20.6,15.9,29.9c7.1,14.1,9.1,19.1,11.9,30.5
		c3.4,13.1,3.5,14.2,3.5,32.4c0,14.5-0.3,19.7-1.5,22.5c-0.8,1.9-1.5,4.5-1.5,5.6c0,3.6,14.3,30.8,16.8,32c3.9,1.8,3.6-0.1-0.8-6.4
		l-4.2-6.1l-0.9-12.6c-0.5-7-1.3-13.7-1.9-14.9c-1.3-3.2,7.4-17.3,14.8-23.9c3.2-2.9,7-7.5,8.6-10.3l2.8-5.2l-2.5-3.7
		c-3.3-4.7-4.3-7.4-5.2-13.9c-0.6-5-0.5-5.4,2.4-8.4c1.7-1.7,3.1-3.4,3.1-3.8c0-1.7,8.5-11.1,10-11.1c0.9,0,4.1-2.6,7.1-5.8
		c6.1-6.3,9.9-8.8,12.3-7.9c1.8,0.7,2.1,4.8,0.5,6.4c-0.8,0.8,0.4,1.6,4.2,2.8c6.8,2.3,13.1,8.7,15.4,15.6
		c2.6,7.8,1.7,17.5-2.3,23.9l-3.1,5l3.7,1.9c3.1,1.5,17.6,5.1,20.9,5.1c0.5,0,1.6-1.5,2.5-3.3s2.8-4.7,4.3-6.6
		c2.4-2.8,3.3-3.2,6-2.7s3.5,0.2,4.9-1.8c0.9-1.5,3.3-3,5.6-3.6c2.2-0.6,4-1.4,4-1.9s1.9-2.9,4.3-5.5c3.4-3.6,5-4.6,7.5-4.6
		c4.5,0,6.7,3.5,5.9,10c-0.4,3.6-0.2,5.2,0.9,6c0.8,0.7,1.4,3,1.4,5.4c0,2.3,0.7,5.2,1.6,6.5c1.3,1.8,1.6,4.6,1.3,14.9
		c-0.2,8.2,0.1,13.7,0.9,15.5c1.6,3.8,1.5,4.8-0.7,10.7c-1.8,4.7-1.8,5-0.2,5c1,0,2.6,0.9,3.6,2c1.8,2,1.8,2.3-0.8,9.7
		c-2.7,7.5-2.7,7.6-0.8,9c1.1,0.7,2.1,2.8,2.3,4.6c0.4,4.3,3,4.6,7.4,0.8c1.9-1.7,4-2.8,4.6-2.5c1.7,1.1,15.3,30.1,18.2,39.1
		l2.7,8.1l-2.4,4.9c-1.4,2.6-4.6,6.7-7.1,9.1c-3.5,3.3-4.6,5-4.6,7.3c0,1.7-0.7,4.3-1.5,5.9c-2.1,4-6.9,5.1-24,5.5
		c-17.8,0.5-19.9,1-20.3,5.6c-0.4,3.3,1.3,22.4,2.4,28.1c0.5,2.4,0.9,2.7,3.1,2.2c1.9-0.5,3.1,0,5.1,1.9c7.5,7.4,9.1,9,13.6,14.1
		c2.7,3,5.7,7.5,6.6,9.8c0.9,2.4,2.9,6.1,4.3,8.2c1.5,2.1,2.7,5.1,2.7,6.5c-0.1,4.1-3.4,10.5-6.9,13.2c-1.8,1.3-5,4.1-7.1,6.1
		c-2.8,2.7-4.8,3.8-6.9,3.8c-5.1,0-6,2.6-6.7,20.5c-1.3,35.3-6,50.1-17.6,55.9c-4.5,2.3-6.5,2.6-15.2,2.6c-5.6,0-11.7-0.5-13.6-1
		c-6.4-1.8-27.5-17.1-42-30.5c-11.4-10.5-17.9-17.7-33.4-37C552,585.4,541,571.2,538,567.1c-2.9-4.1-5.4-7.6-5.5-7.8
		s-1.6,1.1-3.3,2.8c-1.7,1.6-3.8,3-4.6,3c-1,0-1.9,1.2-2.3,3c-0.6,3.2-4.4,6-8.2,6c-1.2,0-3.4,1.2-5.1,2.7
		c-3.1,2.9-2.9,2.4-12.1,37.3c-1.1,4.1-2.4,13.1-2.9,20s-1.2,15.3-1.6,18.6l-0.6,6.2l5.3,1.2c6.2,1.4,10.1,3.3,14.4,6.7
		c1.6,1.3,8,4.5,14,7.1c12.1,5.3,23.7,12.2,40.7,24.3c14.2,10.2,16.8,12.6,34.7,33.4c19,22.1,28.6,36.7,42.7,65
		c6.3,12.6,12.3,24.2,13.2,25.6s3,4.5,4.5,6.9c1.6,2.3,3.5,6,4.3,8.1c0.7,2.2,2,5,2.9,6.2c0.8,1.2,1.5,3.2,1.5,4.4
		c0,1.8-0.6,2.3-2.5,2.3c-1.5,0-2.8-0.7-3.2-1.8c-0.3-0.9-1.2-2.4-1.8-3.2c-0.7-0.8-1.8-3.3-2.5-5.4c-0.7-2.2-3-6.5-5.1-9.5
		c-2.2-3.1-3.9-6.5-3.9-7.5c0-4.1-18.5-38.2-32.4-59.6c-7.5-11.7-28.5-37.7-38.7-48c-9.3-9.5-25.2-20.7-44.4-31.4s-30.1-12.9-40-8
		c-3.6,1.7-4,2.3-4.3,6.2l-0.3,4.2h9.3c12.7,0.1,37.7,5.7,36.2,8.2c-0.3,0.5-1.1,0.7-1.8,0.5c-5.6-2.1-6-1.8-2.1,1.4
		c13.6,11.2,38.1,37.8,53.4,57.8c8.6,11.3,18.5,27,17.6,27.9c-1,1-5.9-5-16.9-20.3c-14.5-20.3-26.9-34.5-44.1-50.3
		c-19.8-18.2-22.3-19.6-38.8-20l-11.9-0.4l0.7,9.4c0.4,5.1,0.9,9.6,1.1,10c0.2,0.3,3.3,2,6.9,3.7c3.6,1.6,8.1,4.2,10,5.6
		c3.1,2.4,19.8,22.5,30.3,36.6c4.5,6,18.4,30.1,17.7,30.7c-1.2,1.3-3.8-1.5-7.6-8c-15.7-27.2-39.6-56.5-49.7-61
		c-2.4-1.1-4.5-1.8-4.7-1.6s3.4,4.7,8.1,10.1c9.4,10.7,10.6,15.3,1.8,6.6c-3-2.9-5.4-5-5.4-4.5c0,0.4,1.1,5.5,2.4,11.4
		c2.9,12.9,4.1,22.8,2.8,23.5c-0.5,0.4-2.2-4.9-3.7-11.6c-6.7-29-9.8-36.7-14.6-36.7c-0.9,0-3.6-1.6-5.9-3.5
		c-7.8-6.5-13.8-6-26.6,2.4c-14.3,9.4-33.4,30.2-46.9,50.9c-3.3,5-6.6,9.2-7.2,9.2c-0.7,0-1.3-0.3-1.3-0.8c0-1.3,5.6-10.4,10.7-17.4
		c15.8-21.9,28.6-34.7,48.8-48.6c2.9-2.1,4.4-3.7,3.8-4.3c-1.8-1.8-16.3,4.2-29.4,12.2c-7.1,4.3-12.9,7.4-12.9,6.9
		c0-1.6,16.1-13.8,22.7-17.3c3.5-1.7,6.3-3.7,6.3-4.4c0-0.6-1.2-2.5-2.6-4.2c-3.2-3.9-6-4-18.9-0.6c-11,2.8-22,7.9-28.7,13.3
		c-2.6,2-7.3,5.7-10.5,8.2c-6.5,5.1-36.7,34.9-40,39.5c-1.1,1.6-2.4,2.7-2.8,2.3c-0.9-0.9,8.5-13.4,19.1-25.3
		c16.6-18.6,39.5-34.9,58.9-41.9c1.9-0.7,1.8-0.9-0.9-2.3c-8.1-4.3-23.4-7.7-29.9-6.6c-2.1,0.3-6.4,3.2-12.2,8
		c-5,4.2-11.9,9-15.5,10.7c-5.7,2.7-7.5,3.1-15,3.1c-7.1,0-9.4-0.4-14-2.6c-7.5-3.6-21.2-14.4-22.7-18c-0.7-1.6-2-2.9-2.9-2.9
		c-2.5,0-18,8.6-24.4,13.5c-10.4,8-30.1,29.6-47,51.5c-14.4,18.7-22.1,28-23.2,28c-1.7,0-0.5-2,9.3-15.6
		c29.9-41.6,56.9-68.8,77.1-77.7c4.3-1.9,5.6-3,5.2-4.1c-0.8-2-2-2-7.1,0.4c-7.3,3.3-17.7,10.9-36.7,26.9c-1.8,1.5-1.8,1.5-0.7-0.7
		c1.8-3.5,15.9-17.1,22.4-21.7c3.1-2.2,5.7-4.3,5.7-4.8c0-2.3-16.7,2.9-34.3,10.7c-12.5,5.5-47,32.7-68.3,53.7
		c-8.8,8.7-16.4,15.9-16.8,15.9c-1,0-0.4-0.8,8-11c5.9-7.1,19.3-20.6,35.2-35.3c4-3.7,6.9-6.7,6.4-6.7c-0.4,0-6.6,4.7-13.8,10.4
		c-18.3,14.7-42.3,40.7-59.9,64.8c-16.1,22-18.6,25.9-20.1,31c-0.9,2.9-2.5,6.8-3.7,8.7c-1.1,1.9-2.4,5.3-2.8,7.5
		c-0.3,2.3-1.4,6.8-2.4,10.1s-2,7.7-2.2,9.8c-0.5,3.8-0.6,3.8-4.6,3.5c-3.8-0.3-4.2-0.5-4.4-3.3c-0.1-1.7,0.2-5.5,0.8-8.5
		c0.5-3,1.4-8.2,1.9-11.5c1.4-9.2,3.5-14,8.5-19.2c2.5-2.7,7.4-9.1,11-14.3c17-25.2,54-65.3,77.1-83.7c8.8-6.9,11.9-8.7,22.2-12.7
		c6.5-2.6,15-6.5,18.8-8.8c9.3-5.6,24.5-12.8,30.8-14.4c2.8-0.8,9.3-1.4,14.4-1.4c5,0,9.2-0.2,9.2-0.4c0-0.3-5.2-10.3-11.6-22.3
		c-31.5-59.4-47.2-94.1-59.4-131.3c-3.2-9.6-6.4-17.8-7.1-18.1c-0.8-0.4-5.4-2.7-10.4-5c-10.9-5.3-21.7-14.9-25.9-23.3
		c-2.1-4.2-4.4-6.8-9.5-10.5c-9.3-6.9-15.3-14.8-20.3-26.5c-2.3-5.4-5.7-11.8-7.4-14.1c-5.1-6.6-12-18.8-13.7-24.1
		c-2.4-7.2-4-21.9-3.3-28.9c1-9.4,4.7-19.5,10-26.9l4.7-6.6l-5.4,0.6c-7.4,0.9-8.4-1-2-3.8c5.2-2.3,16.5-9.5,25.5-16.4
		c5.7-4.4,26-26.2,34.5-37c8.1-10.4,14.2-20.4,22.7-37.4c4.5-9.1,10.5-20,13.3-24.2c5.4-8.3,5.6-8.9,7.4-26.7
		c1.7-17.3,8.1-47.4,12.4-58.2c8.9-22.4,16.9-34.4,24.5-37c2.7-1,14-13.8,14-16c0-0.4-4.8-3.8-10.7-7.5c-12.7-8-21.3-15.7-21.3-18.9
		s3.5-7.2,7-8c2.9-0.6,3-0.9,3-6.1c0-9.9,2.9-12.8,13.2-12.9h4.8v-4.7c0-6.3,1.3-9.4,4.9-11.3c4-2,8.7-1.9,13.7,0.4l4.2,1.9l0.6-2.9
		c0.3-1.6,1.7-4.1,3-5.4C322.3-1.3,327.1-0.8,332.4,4.1z M322.2,5.3c-0.5,0.7-2.2,3.7-3.6,6.6l-2.7,5.3l-4.6-2.5
		c-5.4-3.1-10.2-3.3-13.4-0.7c-2.1,1.7-2.4,2.8-2.4,8.8v6.8l-7-0.3c-3.8-0.1-7.6,0.1-8.4,0.7c-1.2,0.8-1.6,6.1-0.8,12.5
		c0.1,1.3-0.9,2.2-3.7,3.2c-8.1,2.9-9.7,6.8-4.3,10.5l3.2,2.3l-2.2-2.5c-2.6-2.9-2.9-5.1-0.9-6.9c2.2-1.8,5.7-0.8,8,2.3
		c2.4,3.2,1.4,6-2.3,6.5c-1.7,0.3,0.8,2.3,10.3,8.3c6.9,4.3,12.9,7.9,13.3,7.9c0.3,0-2.6-3.3-6.5-7.4c-7.5-7.7-8.6-10-5.1-11.1
		c1.5-0.5,3.5,0.3,6.7,2.6c3.8,2.6,4.3,2.8,2.6,0.8c-3-3.4-4.4-6.4-4.4-9.3c0-4.4,2.8-3,12.1,6.1c4.9,4.8,8.9,8.2,8.9,7.7
		c0-0.5-3.2-4.6-7-9.2c-6.4-7.6-7-8.7-7-12.8V37l3.8,2.1c2,1.2,6.1,5.3,9.1,9.1s5.6,6.9,5.9,6.9c0.2,0-0.3-1-1.2-2.3
		c-0.9-1.2-2.3-3.6-3.2-5.2c-0.9-1.7-2.7-4.3-4-5.8c-3.9-4.7-2.5-11.5,2.2-10.5c0.9,0.2,3.7,4.1,6.3,8.7c6.1,11.2,7.8,11.4,2.4,0.4
		c-4.8-9.7-5.4-13.7-2.3-15.3c2.3-1.2,2.7-0.7,9.4,12.5c5.1,10.2,5.7,10.2,2.1,0c-2.6-7.3-3.2-13.9-1.5-15c2.7-1.7,5.6,2.4,8.3,11.3
		c1.5,5,3.2,9.4,3.8,9.8c0.9,0.5,1-0.2,0.6-2.2c-2.3-11-3-19.5-1.8-20.6c2.1-2.1,4.5,2.1,7.6,13.2c1.6,5.5,3.3,9.9,3.9,9.7
		c1.5-0.5,2.3-5.6,3.1-20.4c0.6-12.5,0.5-13.3-1.4-15.2c-2.7-2.7-5-2.7-2.6-0.1c1.5,1.7,1.7,2.7,0.9,5.7c-0.5,2-1.7,4.1-2.6,4.7
		c-2.6,1.6-5.8-1.8-5.8-6.2V8.8l-2.3,2.1c-1.3,1.2-2.9,2.2-3.7,2.2c-0.7,0-3.5-2-6.1-4.5C327,4.1,324.1,3.1,322.2,5.3z M395,26
		c-9.2,2.6-19.6,6.7-23.3,9.2c-8.7,6-16.7,12.4-16.7,13.5c0,2.1,9.1,9.5,15.3,12.5c13.7,6.4,29.3,7.3,53.4,3.1
		c5.7-1,9.9-1.4,9.4-0.9c-2,2-15.5,5.7-25,6.8c-12.5,1.4-19,0.8-30.2-2.7c-10.6-3.3-15.6-6.2-23.7-13.6l-6.3-6l-5.2,0.7
		c-6.3,0.9-13.2,4.2-17.1,8.4c-4.3,4.5-4.6,11.2-1.2,21.5c2.6,7.7,2.8,9.4,0.7,8.1c-1-0.5-4.1-9.9-5.6-16.8c-0.3-1.5-1-2.5-1.5-2.2
		c-1.3,0.8-3.7,9.1-6,20.6c-2.9,14.4-3.6,12.8-2.2-4.9c0.5-5.3,0.4-8.2-0.3-8.2c-2.3,0.1-10.9,7.5-15,13c-6.1,8.4-8.6,15.6-9.2,26.6
		c-0.3,5-0.2,9.4,0.3,9.7c0.5,0.3,1-1.8,1.2-4.6c0.3-5.4,0.9-7,2.1-6.2c0.5,0.2,0.6,5.7,0.4,12.2c-0.4,10.3-0.2,13.3,2.1,23.2
		c1.5,6.2,3.6,13.1,4.6,15.2c2.8,5.5,12.7,13.8,22.2,18.6c9,4.6,7.9,5.8-1.9,2.1c-17.7-6.6-27.6-19.5-30.4-39.8
		c-0.5-4.1-1.9-10.7-2.9-14.5c-1.1-3.9-2-9.4-2.2-12.3c-0.3-4.5-0.5-5-1.6-3.5c-1.7,2.3-5.7,15.2-7.3,23.3
		c-2.1,10.9-1.6,44.3,1,68.5c1.9,17.7,2.2,24.6,1.8,44.5c-0.4,20.3-0.7,24.7-2.7,32c-2.5,9.7-8.8,26-10,26c-0.4,0,1-6.6,3-14.8
		c6.6-25.5,7.3-31.8,6.6-55.6c-0.4-11.6-1.8-31.1-3.1-43.4c-3-26.6-3.1-36.9-0.6-55.8c2-15,3.6-19.8,10-29.9
		c2.2-3.3,4.2-7.1,4.6-8.5c0.7-2.2,0.3-2.1-3.5,1.5c-6.8,6.5-11.1,13.1-15.1,23.2c-4.2,10.5-9.3,31.8-10.8,45.8
		c-2.3,19.5-8.1,53.5-12.4,72.5c-0.9,3.6-2.1,9.1-2.7,12.3c-1.5,7.3-12.3,29.3-20.2,41.1c-13.8,20.7-37.2,44.6-43.5,44.6
		c-0.4,0,4.5-5.1,10.8-11.3c6.4-6.1,14.4-15,17.9-19.6c12.6-16.7,25.8-39.4,29.4-50.6c1.3-4.2,7.6-35.2,7.6-37.3
		c0-0.4-1.6,2.2-3.6,5.8c-22.5,40.7-31.3,52.9-55.6,77.3c-8.1,8.2-13.9,14.5-12.8,14.2c3.7-1.2,2,1.2-3.8,5.3
		c-9.7,6.8-19.5,18.5-22.9,27.4c-1.2,3.2-1.6,7.9-1.7,18.8c0,13.9,0.1,14.8,3.2,22.8c3.5,9.2,6.1,14.6,6.8,14
		c0.2-0.2-0.3-4.5-1.1-9.4c-1.7-10.5-1.8-12.4-0.6-12.4c0.9,0,1.7,3,4.4,18.5c1.6,8.9,10.4,29.5,16.2,38.1
		c4.2,6.1,11.5,12.4,11.5,9.9c0-0.9-1.1-6-2.5-11.4c-3.1-12.3-4.2-21.1-2.6-21.1c0.6,0,1.1,0.9,1.1,2.1c0,3,4.5,20,7.9,30.1
		c3.6,10.8,8.2,17.8,16.9,26c6.3,5.9,21.5,14.8,22.9,13.4c1.1-1.1-0.9-7.7-3.1-10.3c-5.4-6.5-10.8-20.7-12.7-33.5
		c-2.7-18.6,1.4-49.5,8.6-64.2c4.6-9.4,15.6-24.1,19.6-26.2c2.5-1.3,4.8-1.5,9.6-1.1c5.8,0.6,6.8,0.4,13-2.9
		c10.4-5.4,10.6-5.7,9.2-13.9c-2.7-15.8,0.7-31.7,10.5-48.2c15.2-25.8,17.2-31.4,18.2-52.9c0.4-7.4,1-13.4,1.4-13.4
		c3,0,0.8,28.2-3.1,41.5c-1.1,3.8-5.8,14.2-10.4,23C274,311,271,319.5,271,329.5c0,8.6,2.2,20.2,4.8,25.5c1,2,2.9,5.8,4.3,8.6
		c1.9,4,3.6,5.6,8.4,8.5c3.3,1.9,11.4,8.7,18,15.1s13.9,12.6,16.3,13.8c2.3,1.2,4.2,1.9,4.2,1.6c0-0.2-1.7-2.7-3.8-5.5
		c-6.4-8.5-12.3-21.2-12.9-28c-0.5-5.3-0.2-6.7,2.6-12.4c2.5-5.1,5.7-8.9,16.5-19.2c13-12.5,13.5-13.1,15.6-19.9
		c2.7-8.4,3.7-24.4,2.1-32.9c-1-5.4-0.9-7.7,0.4-6.5c0.2,0.3,1.8,5.7,3.4,12s4.7,15.2,7,19.8c3.9,8.1,4.1,8.3,4.1,4.7
		c0-8.9-3.9-20-17.9-50.4c-10.8-23.5-16.3-47.3-14.4-62c0.6-4.2,0.9-7.8,0.8-8s-2.6,2.9-5.5,6.8c-2.8,3.8-5.4,7-5.6,7
		c-1.1,0,3.7-10.2,6.9-14.5c4.5-6.1,4.1-5.6,10.3-10.4c7.1-5.4,19.6-21.1,16.8-21.1c-0.4,0-4.3,1.6-8.7,3.6c-6.5,3-8.8,3.5-12.6,3.2
		c-12.5-1.2-25.8-17-33.7-39.9c-2.8-8.4-2.7-7.9-1.4-7.9c1.6,0,4,5.6,4,9.4c0,2.1,0.9,4.5,2.3,6.3c1.2,1.5,4.7,6.5,7.6,11
		c4.2,6.6,6.7,9.2,12.1,12.8c9.8,6.8,12.5,6.9,24.6,0.9c8.8-4.4,18.4-11.9,18.4-14.4c0-0.4-4.6,1.7-10.2,4.7c-5.7,3-11.9,5.7-13.8,6
		c-2.9,0.4-1.7-0.5,6-4.9c10.5-5.8,19.4-12.4,25.5-18.7l3.9-4.1h-7.6c-4.2,0-8.9-0.5-10.3-1c-6.4-2.4-22.9-20.1-28-30.1
		c-3.1-5.9,0.7-2.7,7.3,6.3c7.4,10,11.3,13.8,19.8,19.5c5,3.3,5.8,3.5,10.6,3c2.9-0.4,9.1-2,13.8-3.5l8.5-2.9L379,121
		c-11.9-0.5-12.8-0.6-18.2-3.7c-3.1-1.8-7.9-5.3-10.6-7.8c-5.2-4.6-17.4-20.9-20.9-27.9c-2.2-4.3-6.6-17.6-6-18.2
		c0.9-0.8,3.7,3.9,7,12c4.4,10.6,13.3,23.1,21.9,30.8c10.9,9.6,9.9,9.3,29.3,9.7c24.1,0.6,31.7-1.7,47.2-14c7.7-6,12.7-8.3,22.5-9.9
		c6.1-1,8.5-1,11.7,0c2.3,0.6,4.1,1.5,4.1,1.9s-4.2,0.7-9.3,0.7c-7.9,0-9.8,0.4-13.6,2.5l-4.4,2.5l10.1,0.7
		c11.3,0.7,20.1,2.7,26.4,5.9l4.3,2.1l-4.7-4.9c-2.7-2.7-4.8-5.2-4.8-5.6s1.8,0.3,4.1,1.5c6.1,3.5,10.6,9,12.4,15.2
		c1.1,3.8,2.2,5.7,3.6,6.1c4.1,1.3,27.4-2.2,36-5.4c7.1-2.7,10.4-5.7,11.8-10.7c4.9-17.5-9.7-55.2-23.6-61
		c-9-3.8-32.4,0.5-60.8,11.2c-11.5,4.3-17.1,5.6-22.1,5.2c-4.4-0.3-4.8-0.2,30.6-12.4c9.1-3.1,16.7-5.8,16.9-6
		c1.7-1.6-17.8-11.4-22.5-11.4c-2.1,0-5.8-0.7-8.1-1.6c-4.1-1.6-5.1-1.6-14.6,0c-5.6,1-11,2-11.9,2.2c-3,0.9-2.1-2.5,1-3.8l2.7-1.1
		l-3-0.7C417.6,23.6,401.7,24.2,395,26z M435.4,106c-1.8,0.4-6.5,2.7-10.4,5c-4,2.3-10.7,5.1-14.9,6.2s-9.2,3-11.1,4.3
		c-2,1.3-6.1,3.5-9.2,5c-6.6,3.1-15.8,12.9-17.7,18.7c-0.6,1.9-2.7,5.1-4.7,7c-1.9,1.9-5.6,6.9-8.2,11.2
		c-3.1,5.3-7.8,10.8-14.3,17.2l-9.7,9.3l-1.2,7c-1.6,8.7-1,18.7,1.3,20.9c1.6,1.6,1.7,1.6,1.7-1c0-1.5,0.4-2.7,0.9-2.7
		c1.3,0,2.7,4.7,4.6,15.4c3.5,19.3,16,37.8,35.8,53c14.2,10.8,37.1,19.3,50.2,18.4c8-0.5,10.8-2.6,21.5-15.8
		c4.4-5.5,14.8-17.2,23-26c14-15,15.1-16.5,17-22.8c1.2-3.7,2.4-9.9,2.7-13.7c0.5-6.7-0.9-21-2.2-22.3c-0.3-0.4-2.5,0.3-4.8,1.5
		c-6.3,3.3-9,3.6-15,1.9c-7.3-2.1-7.6-2.1-9.1,1.5c-2.1,5-2.8,0.8-1.2-7.1c2.4-11.2,5.8-16,14.4-20.4c6.5-3.3,13.8-3.5,17.5-0.6
		c1.4,1.1,2.9,2,3.4,2c0.9,0,9.3-16.3,9.3-18c0-2.1-4.1-5-7-5c-1.7,0-4.8,0.9-7,2c-4.6,2.3-9,2.6-9,0.6c0-1.7,5.4-6.4,8.9-7.8
		c3.4-1.3,8.1-0.3,12.5,2.7c1.9,1.3,3.7,2.1,3.9,1.7c1.2-2.1,2.9-14.2,2.3-16.5c-0.8-3.2-9.1-9.8-17.9-14.1c-5-2.5-6.3-3.6-6.5-5.8
		c-0.4-3.5-8-8.4-17-11C460.9,105.7,440.7,104.6,435.4,106z M546.7,114.1l-2.3-7.5l-1.3,4.8c-0.7,3.1-2.6,6.3-5.2,9.1
		c-4.6,5.1-15.6,11.2-21.8,12.2c-2.5,0.4-4,1.1-3.8,1.8c0.3,0.6,1.7,4.2,3.2,7.9c2,5,2.5,7.1,1.7,7.9s-1.4,0.5-2.1-1.3
		c-0.7-1.8-1-2-1.4-0.9c-0.3,0.8-1.9,5.4-3.6,10.2c-1.8,5.1-2.6,8.8-2,8.8c3.6,0,22.5-11.9,32.1-20.2c7.6-6.6,10.3-12.1,9.4-19.6
		C549.3,124.1,548,118.2,546.7,114.1z M535.6,114c-2.7,2.9-12.5,7.8-18.4,9c-2.9,0.6-7.9,1.1-11,1.1l-5.7,0.1l2.8,2.4
		c7.6,6.7,28.4-0.3,34.2-11.5C539.2,111.7,538.2,111.1,535.6,114z M470.7,184.2c-5.1,3.9-7.7,11.7-4.6,14.4c2.3,2.2,3.5,1.4,4.2-3
		c1.3-7.9,7.8-12.5,14.7-10.5c4.8,1.4,5,1.2,1-1C481.3,181.5,474.3,181.6,470.7,184.2z M474.7,190.9c-2.2,2.4-3.5,9.2-1.8,9.2
		c0.7,0,0.9-0.5,0.6-1c-0.8-1.3,3.1-7.7,5.5-9c3-1.6,6.5-1.2,9.5,1.2c2.7,2.1,2.7,2.1,1.6,0.1c-0.6-1.2-2.5-2.6-4.2-3.2
		C481.1,186.5,477.9,187.3,474.7,190.9z M336.2,224.3c-1.7-0.5-1.5,0.7,1.4,11.1c3.5,12.7,4.7,16.1,12.4,33.2
		c3.8,8.2,8.7,20.8,11.1,28c3.8,11.3,4.4,14.1,4.4,21.5c0,7.1-0.4,9.4-2.7,14.2c-1.5,3.2-3.1,5.8-3.6,5.8c-0.4,0-0.8-4.4-0.8-9.8
		c0.1-8.7-0.2-10.4-2.8-16c-1.6-3.4-3.2-6.2-3.6-6.2s-1,1.7-1.4,3.7c-0.3,2.1-2.1,7.1-4.1,11.1c-1.9,4.1-3.5,7.9-3.5,8.6
		c0,2.4,8.1,10.6,10.3,10.6c1.2,0,5.5,1,9.6,2.2c6.7,2,7.7,2.6,10.8,6.9c3.5,4.9,7.2,6.9,18.1,9.9c5.1,1.3,7.9,3.9,8.7,7.7
		c1,4.5,1.9,5.7,6.3,7.8c2.3,1.2,4.8,2.9,5.5,3.9c0.8,1,3.4,2.8,5.8,4c3.4,1.6,4.5,2.8,4.9,5.1c0.5,2.8,1,3.1,9,5.2
		c8.9,2.4,12,4.6,12,8.8c0,1.9,0.6,2.3,4.5,2.7c5.3,0.6,7.3,2.1,9.2,6.5c1,2.4,2,3.3,3.7,3.3c2.5,0,6.6,4.1,6.6,6.5
		c0,1.7,1.9,3.2,5,4l2.6,0.6l1.1-10.4c0.8-8.5,0.8-11.5-0.3-15.8c-0.8-2.9-1.4-6.4-1.4-7.7c0-1.3-0.7-3.7-1.6-5.4
		c-0.9-1.8-2.9-7.3-4.5-12.2c-1.5-5-4.2-11.3-6-14c-4.6-7.4-19.6-25.2-23.2-27.8c-1.8-1.2-3.9-3.1-4.7-4.1c-1-1.1-5.8-2.9-13.3-4.7
		c-6.6-1.7-13.6-4-15.8-5.2c-2.1-1.2-4.2-1.9-4.5-1.5c-0.3,0.3,0.1,4.8,1,10c2,11.7,2,12.1-0.4,7.5c-3.1-5.8-5-15.4-5-25.4
		c0-10.4,0.3-9.8-10-15.9c-15.7-9.3-34-27-40.3-39c-1.1-2.2-3.7-9.6-5.7-16.4C339,230.3,336.8,224.5,336.2,224.3z M498.5,236.2
		c-2.4-5.7-3.1-5.7-4,0.5c-0.4,2.6,0,5.9,1.3,9.9c2.2,6.4,10.6,26.4,14.1,33.3c3.2,6.3,7.8,19.6,10.1,29.2
		c2.4,10.1,2.6,19.5,0.5,27.4l-1.5,5.8l4,4.8c2.2,2.6,5.5,7.4,7.3,10.6c6.9,12.1,10.8,18.3,11.6,18.9c1.3,0.8,2.5-17.5,1.8-28.5
		c-0.9-14.4-3.3-25-8.8-38.9s-10.5-24.1-16.8-34.4c-2.2-3.7-7.1-12.7-10.8-20C503.7,247.5,499.7,239.2,498.5,236.2z M491,245.1
		c-0.4,0-2,1.9-3.5,4.2s-9.1,10.5-16.9,18.3c-13.9,13.9-24.5,27.3-23.1,29.4c0.3,0.6,2.2,1.1,4,1.1c6.7,0,14.1,9,12.9,15.6l-0.7,3.6
		l3.3-0.7c2.5-0.5,3.6-0.2,5.5,1.5c2,1.9,3,2.1,7.4,1.5c3.8-0.5,5.1-1.1,5.2-2.3c0-1,0-6.5-0.1-12.5c-0.1-5.9,0.3-10.7,0.8-10.7
		c1.7,0,3.6,8.6,3.7,17c0,4.7,0.4,9,0.8,9.7c0.4,0.6,2.9,1.6,5.6,2.3c2.7,0.6,6.4,2.2,8.2,3.6c2.1,1.5,3.6,2.1,4.3,1.4
		c0.5-0.5,1.1-4.4,1.4-8.7c0.6-10.7-1.5-20.6-9.8-45.4c-3.8-11.4-7.2-22.5-7.6-24.8S491.4,245.1,491,245.1z M604.8,284.1
		c-0.4,0-3.6,2.9-7.1,6.4c-3.4,3.5-7.3,6.6-8.5,7c-1.7,0.6-2,1.2-1.5,3.7c0.4,2.3,0,3.6-1.7,5.4c-1.3,1.4-3,2.4-3.9,2.3
		c-1.1-0.2-2,1.6-3.4,6.7c-2.1,7.7-2.1,7.7,3.5,14.7l2.7,3.4l-2.5,5.1c-1.3,2.8-3.6,6.1-5,7.2s-2.3,2.5-1.9,3
		c0.3,0.6-1.6,2.4-4.3,4.1c-2.6,1.6-5.4,4.2-6.1,5.7c-0.7,1.6-1.7,3.5-2.2,4.3c-3.4,5.9-4.1,7.8-4.3,11.4c-0.1,2.3,0.2,4.6,0.6,5.2
		c0.5,0.7,0.5,3,0,5.2c-1.5,6.7,1.5,16.8,5.8,19.9c1,0.7,2.5,3,3.3,5.1s2.1,4.3,2.9,4.9c1.3,1.1,21.6,3.3,30.7,3.3
		c2.7,0,6.2-0.5,7.8-1.1l2.8-1.1l-4.5-1.4c-2.6-0.7-5.7-2.6-7-4c-2.2-2.4-2.2-2.6-0.5-2c3.5,1.3,10,1.7,13,0.8l3-0.8l-4.5-1.2
		c-2.5-0.6-5.8-2.3-7.5-3.7c-2.9-2.6-2.9-2.6-0.5-2c5.4,1.3,13,1.7,16.7,0.9c3.5-0.7,3.1-0.8-4.4-1.5c-5.3-0.4-9.2-1.3-11.2-2.5
		l-2.9-1.9h10.6c5.9,0,12.6-0.6,14.9-1.3c4.3-1.3,10.3-5.6,9.3-6.6c-0.3-0.3-3.9,0.4-8,1.5c-4,1-8.6,1.9-10.1,1.9
		c-2.8,0-9.9-2.8-9.9-3.9c0-0.3,3.7-0.6,8.3-0.6c9.8-0.1,16.3-2,24.5-7.5c6.2-4.2,10.2-9.8,6.1-8.5c-1.2,0.4-5,2-8.3,3.6
		c-11.4,5.4-12.9,3.1-1.7-2.6c8.2-4.1,19-15.3,17.9-18.6c-0.2-0.7-1.9,1.1-3.7,4c-3,4.6-8.6,10.1-10.4,10.1c-0.3,0,2.8-4.8,6.9-10.6
		c4.2-6.1,8-12.8,8.9-15.7c3-10.1,1.5-11.8-3.5-4c-5,7.9-13.4,16.8-18.7,20c-2.4,1.4-7.1,3.4-10.5,4.4c-5.7,1.8-6.5,1.8-11.4,0.4
		c-2.9-0.8-8.3-3.6-11.9-6c-6.5-4.5-6.6-4.5-15.3-4.6l-8.7-0.1l4.4-2c5.2-2.4,10.9-3.3,14.6-2.4c1.4,0.4,4.5,2.4,6.8,4.5
		c7.3,6.5,8.6,7.1,16.1,7.1c4.9,0,8.2-0.6,11-2c4.8-2.3,11.6-8.5,11.6-10.5c0-2.2-12.4-5.8-18.1-5.3c-4.4,0.5-4.9,0.3-4.4-1.3
		c0.6-1.7,0.4-1.8-3-0.3c-5.6,2.3-15.8,3-17.3,1.2c-1-1.3-0.5-1.6,4-2.1c7.3-0.9,13.9-4.5,16-8.7c5.4-11.1,6-12.9,5.3-18
		c-0.4-2.7-1.5-6.1-2.6-7.4c-1-1.3-1.9-3.1-1.9-3.9c0-1.7-4.6-5.7-6.6-5.7c-0.7,0-2.5-0.7-4.1-1.7c-2.7-1.5-3.3-1.5-7.5,0
		c-2.6,0.8-4.9,1.3-5.2,0.9c-0.4-0.3,1.5-2.7,4.1-5.4C603.3,286.3,605.1,284.1,604.8,284.1z M408.6,302.4c-3.6-1.1-6.7-1.8-7-1.5
		c-1.2,1.1-0.5,6.8,1,9c2.2,3.2,3.4,2.7,3.4-1.3c0-4.9,1.6-4.4,2.3,0.7c0.6,4.4,3.4,7.8,6.4,7.8c1.2,0,1.4-0.7,0.9-3.1
		c-0.3-1.7-0.6-4.6-0.6-6.3C415,304.7,414.7,304.4,408.6,302.4z M441,301.7c-1.4,0.7-2.9,1.5-3.4,1.7c-1.6,0.6-2.5,16.9-1.1,20.4
		c1.2,2.9,5.1,6.1,6.1,5c0.3-0.3,2-3.6,3.9-7.3c3.8-7.8,4.4-6.3,1.6,4.5c-1.1,4-1.7,7.9-1.4,8.7c1.2,3.1,3.2,1.1,5.5-5.2
		c2.1-6,4-8.5,5.4-7.1c0.3,0.3-0.3,2.2-1.4,4.4c-3.8,7.4-3.3,14.1,1.4,19.3c3.7,4.1,5.4,5,5.4,2.7c0-4.6,8.7-17.7,11.7-17.7
		c1.3,0-4.5-9.9-5.9-10c-0.3,0-1.2,1.7-1.8,3.7c-1.9,5.7-3,6.3-3,1.4c0-3.4-0.7-5.1-3.1-7.8c-2.6-3-2.9-4.1-2.4-7.2s0.2-4-2.4-6.5
		c-1.6-1.6-3.6-2.6-4.4-2.3c-0.7,0.3-2.3,4-3.6,8.2c-1.6,5.6-2.5,7.5-3.3,6.7s-0.6-3.1,0.6-8.1c1-3.9,1.4-7.5,1.1-8.1
		C445.7,299.8,444.1,300,441,301.7z M424.9,305.1c-3.8,0-6.9,0.1-7,0.2c0,0.2-0.1,3.1-0.2,6.5c-0.2,5.8-0.1,6.2,2.3,6.7
		c1.4,0.2,3.3,0.8,4.3,1.1c1.5,0.6,1.7,0,1.7-4.9c0-7.2,1.6-7.3,2.5-0.1c0.9,7.1,2.5,8.1,2.5,1.6c0-2.8,0.4-5.1,0.9-5.1
		c1.5,0,2.2-3.2,1-4.6C432.1,305.6,429.5,305.1,424.9,305.1z M685.1,316.1c-2.8,0-4.7,2.3-8.6,10.1c-2.2,4.3-3.9,9.4-4.5,13.9
		c-1,6.7-5,17.5-5.7,15.3c-0.2-0.6,0.5-4.6,1.5-8.9c2.5-9.9,3.5-18.1,2.4-18.8c-1.5-0.9-6,4.7-8.2,10.4c-1.6,4.1-2,6.5-1.5,10.1
		c0.6,4.1,0.2,5.6-3.4,13c-2.3,4.6-4.1,9.5-4.1,11c0,2.8-4.8,9.6-8.4,11.8c-1.2,0.7-3.3,3.3-4.5,5.6c-1.3,2.4-6.3,8.6-11.2,13.8
		l-8.8,9.5l3.8,0.6c6.2,1,7,2.9,3.9,8.7c-1.4,2.7-2.2,4.9-1.8,4.9c2.3,0,14.7-3.3,17-4.5c3.3-1.7,7.6-6.6,8.6-9.7
		c0.7-2.2,0.7-2.2,1.4-0.3c0.6,1.7,1.1,1.1,3-3.2c1.3-3,2.7-5,3.4-4.7c1.7,0.7,9.4-13.6,12.5-23.3c1.4-4.6,3.2-8.3,3.9-8.3
		c1.5,0,1.7-1.2-1.8,10c-1.7,5.1-3,9.7-3,10.2c0,1.1,8.1-2,10.2-3.9c1-0.9,1.8-2.4,1.8-3.4c0-3.4,2-3.1,2.1,0.3
		c0.1,3.2,0.1,3.2,1.7-1.4c0.9-2.6,2.1-5,2.6-5.5c1.5-1.5-0.6,8.1-2.3,10.2c-1.2,1.5-0.9,1.4,1-0.3c3.5-3.1,6.3-12.1,5.4-17
		c-0.6-3.3-0.9-3.5-1.9-1.8c-3.9,6.5-4.5,6-2.1-1.9c4.5-14.6,4.5-15.7-0.4-7.9c-3.9,6.4-4.8,4-1.1-3.2c1.6-3.3,3.2-7.9,3.5-10.4
		l0.5-4.5l-2.6,5.2c-1.4,2.9-3,5.3-3.5,5.3c-1.3,0-1.2-0.5,1.6-9c1.4-4.1,2.5-9,2.5-11c-0.1-2.9-0.8-1.7-4.7,7.7
		c-2.5,6.2-4.9,11.3-5.4,11.3c-1.4,0-1.1-1.9,1.7-8.9c3.8-9.4,5.4-15.8,5.4-21.9C687,316.8,686.7,316.1,685.1,316.1z M483.1,324.1
		h-5l1.1,3.1c0.6,1.7,0.8,5.3,0.6,8c-0.4,3.8-0.2,4.9,0.9,4.9c2.7,0,6.3,4.7,6.3,8.3c0,2.3,0.8,4.1,2.6,5.8c4.2,3.9,4.6,5.4,2.3,8.3
		l-2,2.6l3.4,2.9c1.8,1.7,3.9,4.8,4.5,6.9c0.7,2.2,2.9,5.9,5,8.3c2.2,2.4,7,8.9,10.7,14.4c3.8,5.5,7,10.2,7.3,10.5
		c0.6,0.8,30.2,0.6,30.2-0.3c0-1.2-18-36.9-20.1-39.9c-1.1-1.4-1.9-3.3-1.9-4.1c0-1.9-9-15.6-12.1-18.3c-2.6-2.4-15.7-7.4-19.2-7.4
		c-2.3,0-5.5-1.6-4.7-2.3c0.3-0.2,3.4-0.1,7,0.3s6.7,0.5,6.9,0.3c0.8-0.6-4.3-5.4-7.3-7c-2.9-1.5-8.5-1.4-14.3,0.3
		c-3.1,0.9-2.9-0.9,0.2-2.6c1.4-0.7,2.5-1.7,2.5-2.2C488,324.5,485.8,324.1,483.1,324.1z M335.7,338.1c-2.6,0-5.7,2.8-5.7,5.1
		c0,1.8,13.9,23.4,14.6,22.7c0.2-0.3-1.3-4.4-3.5-9.2c-3.4-7.2-3.7-8.5-2.1-7.6c1.1,0.6,4,5.3,6.5,10.5c4.5,9.4,7.6,13.5,10.2,13.5
		c0.9,0,1.1-0.8,0.7-2.4c-0.9-3.8,1.4-4,3-0.3c1.7,4.2,4.6,7,11.2,10.8c6,3.4,6.4,3.5,6.4,1.1c0.1-1.3,0.6-1,2.7,1.3
		c2.2,2.4,14.6,8.5,17.5,8.5c1.2,0-3.2-8.8-8-16.3c-5-7.7-4.7-9.4,1.9-9.9l3.9-0.3l-3.5-2.3c-4.4-3.1-9.2-4.1-18.8-4.2H365l4.1,6.5
		c4.5,7.2,4.4,10.1-0.1,4.5c-4.1-5-10-15.1-10-17.2c0-1.5,0.9-1.8,5.7-1.8c5.6,0,5.6,0,3.8-2c-2.6-2.9-8-4.2-15.7-3.8l-6.8,0.3
		l5,8.7c2.8,4.8,5,9.2,5,9.8c0,3.2-2.8-0.8-16-22.8C338.7,339.2,337.3,338.1,335.7,338.1z M470.8,338.1c-0.2,0-1.4,2.4-2.6,5.2
		l-2.2,5.3l2.8-3.3c2.7-3.2,4.2-4,4.2-2.3c0,0.5-1.8,3.6-4,6.9s-4,6.5-4,7.1s1.5,3.3,3.3,6c1.9,2.7,4,6.9,4.7,9.5
		c0.7,2.5,1.6,4.6,2,4.6c0.5,0,1.8-1.9,2.9-4.3c1.1-2.3,3.9-6,6.1-8.2c2.2-2.1,4-4.4,4-5c0-1.7-6.8-8.5-8.4-8.5
		c-2.5,0-1.9-3.9,0.6-4.9c2.1-0.7,1.9-0.9-1.5-2c-2-0.7-4.5-2.3-5.6-3.7C472.1,339.2,471,338.1,470.8,338.1z M321.8,352.3
		c-2.1-0.4-5.3,4.2-6.8,9.7c-2.9,10.9,2.4,22.7,20.4,45.1c12.8,15.9,16.5,21.4,15.3,22.6c-0.4,0.4-1.7-0.6-2.9-2.2
		c-5.2-6.7-11.7-13-18.2-17.5c-3.8-2.7-7.1-4.7-7.4-4.4c-0.3,0.2,2.7,5.3,6.7,11.2c3.9,5.9,8.8,13.7,10.8,17.3l3.8,6.5l0.3,15.5
		c0.3,11.8-0.1,17.3-1.3,23c-1,4.1-1.9,10.2-2.2,13.5l-0.5,6l12,23.7c6.5,13.1,13.3,27.7,15.1,32.5c1.7,4.8,3.5,9.4,4,10.2
		c1.3,2,25.9-16.8,40.1-30.6l11.5-11.1l-3-3.2l-3-3.1l0.3-14.2c0.2-7.8,0.8-14.9,1.2-15.8c0.5-0.9,3.4-2.9,6.3-4.4
		c3.6-1.7,6.5-4.2,8.5-7c1.7-2.4,4.3-5,5.9-5.8c3.6-1.9,21.6-4.9,24-4.1c1,0.4,3.3,2.1,5.1,3.8l3.4,3.1l5.5-6
		c7-7.6,10.8-12.6,27.1-35.3c7.3-10.1,13.2-18.9,13.2-19.7c0-2.1-10-18.8-14.9-25c-3.5-4.3-4.7-5.3-5.7-4.4
		c-1.8,1.5-1.8,5.8,0.1,10.2c2,4.9,1.9,7.5-0.6,12.1c-1.3,2.5-1.8,4.7-1.4,6.6c0.4,2-0.1,4.3-1.8,7.7c-1.3,2.6-2.7,6.3-3,8.1
		c-0.6,3.1-4.1,8.7-8.6,13.9l-1.9,2.2l-5.3-2.1c-6.8-2.6-6.1-2.2-16.1-8.9c-14.8-9.9-21.2-13.8-24.3-14.5c-1.6-0.3-4.1-1.7-5.5-3
		s-5.5-3.5-9-5c-3.6-1.4-7.4-3.4-8.5-4.4c-1.1-1.1-3.7-2.6-5.6-3.4c-2-0.8-5-2.6-6.5-3.9c-1.6-1.3-7.8-4.1-13.8-6.2
		c-6.4-2.3-13.5-5.6-17.2-8.2c-3.4-2.3-8.5-5.1-11.4-6.2c-2.8-1.1-7.5-3.7-10.3-5.9c-2.9-2.2-7.1-4.9-9.3-6
		c-2.3-1.2-4.4-2.8-4.8-3.7c-0.3-0.8-1.6-1.9-3-2.5c-1.3-0.5-3-2.1-3.8-3.7C324.1,353.9,322.7,352.5,321.8,352.3z M233.8,366.2
		c-7.7,8.3-14.2,21-18.1,35.7c-2.7,10.6-3,13.2-3.1,27.7c-0.1,10.2,0.4,18,1.2,21.5c1.9,7.7,7.3,24,7.9,24c0.3,0,0.3-3.4-0.1-7.5
		c-0.4-4.1-0.4-9.2,0-11.3c0.7-3.5,0.8-3.5,1.5-1.2c0.4,1.4,0.7,5.2,0.8,8.5s1.4,11.4,3,18s3.5,14.9,4.1,18.4s2.4,9.6,4,13.5
		c1.5,3.9,4.7,12.5,7,19.1c8.4,23.8,39.2,89.1,57.1,121c9.7,17.3,24.2,35.7,31.6,40.2c6.6,4,14.4,6.5,20.8,6.5
		c10.6,0,18-4.3,37-21.5c23.8-21.6,40.6-42.2,64-78.7l17.7-27.5l-1.9-5.5c-1.9-5.3-2.2-5.5-5.9-5.8c-2.8-0.2-4.7-1.2-6.6-3.2
		c-2.6-2.9-3.6-3.3-11.2-4.5c-4.9-0.8-8.3-4.2-9.1-9.1c-0.7-4.4-3.3-10.1-7.2-15.6l-2.6-3.7l-5.1,5.6c-9.2,10.2-24.9,23.3-39.6,33.3
		c-8,5.4-17.3,12.3-20.7,15.4c-12.8,11.7-21.1,24.6-23.7,37.2c-0.8,3.8-2.1,9.6-3,12.9c-0.8,3.3-1.7,7.2-2,8.7
		c-1,4.6-2.6,3.2-2.6-2.2c0-4.6-0.2-5-2.4-5c-4.3,0-5.1-2.3-5.1-14.9c0.1-10.5,0.3-12.2,2.7-17.4c2.9-6.1,13.5-18.1,16.9-19
		c3.2-0.8,2.2,1-4.6,8.3c-8.7,9.6-12.9,18.3-12.9,27c0,3.6,0.6,7.8,1.3,9.5c1.2,2.8,1.3,2.9,2.3,1c0.7-1.1,1.7-2.5,2.3-3
		c0.6-0.6,2.2-4.4,3.4-8.5c5.4-17.3,16.6-33.6,29-42.2c4.2-2.9,4.3-3.2,3.7-7.1c-1-5.8-5.7-17.3-11.9-28.5
		c-5.3-9.7-8.9-17.5-12.1-26.5c-1-2.6-2.2-4.7-2.7-4.7s-0.9,2.9-0.9,6.4c0,3.8-0.5,6.8-1.1,7.2c-1.8,1.1-0.4-32.2,2-49.1
		c3.2-21.7,3.2-21.1-5.3-38.2c-8.2-16.4-11.8-21.5-26.2-37c-8.5-9.1-23.2-21.8-24.2-20.8c-0.2,0.1,1.5,3.9,3.7,8.2
		c2.2,4.4,5.3,12.2,7,17.4c4.1,12.7,4.5,14.9,3.2,14.9c-0.6,0-1.1-0.5-1.1-1.1c0-1.4-9.1-22.1-14.6-33c-4.7-9.5-7.5-12.3-13.7-14
		c-11.9-3.2-18.5,4.2-21.3,23.9c-0.9,5.9-2,11.1-2.4,11.5c-1.5,1.6-2.1-6.7-1-14.1c1.2-8.6,3-13.4,7-18.3c2.7-3.4,2.8-3.8,1.2-5.2
		c-0.9-0.9-3-2-4.5-2.6C241.5,359.2,239.8,359.9,233.8,366.2z M485,367.1c-1.1,0-5.7,6.7-6.3,9.2c-0.4,1.6-1,4-1.4,5.5
		c-0.6,2.6-0.4,2.5,4.4-1.5c2.7-2.3,5.2-4.2,5.6-4.2c1.3,0,0.7,2.8-1,4.1c-3.1,2.6-7.3,9.2-7.3,11.6c0,1.7,0.6,2.3,2.1,2.3
		c2,0,2.1,0.1,0.5,2.5c-2.2,3.3-2,4.2,0.4,2c1.1-1,2-1.5,2-1.1s-0.9,1.9-2,3.3c-1.5,1.9-2,4.1-2,8.5v6l3.6-2.1
		c5.3-3.2,5.4-1.7,0.2,2.8c-3.8,3.4-4.7,4.9-5.7,9.7c-0.9,4.6-0.8,5.9,0.1,6.6c1.9,1.1,2.2,1,5.3-1.4c2.4-1.8,2.6-2.6,2.1-5.9
		s-0.2-4.3,2.5-7.3c2.5-2.9,2.9-4.1,2.4-6.5c-0.4-1.8,0-4.9,1.1-7.9c1.7-4.8,1.7-5.2,0-11c-1.2-3.8-1.6-7.1-1.1-8.9
		c0.3-1.5,0.8-4.6,0.9-6.8c0.3-3.4-0.2-4.4-2.8-6.7C486.9,368.4,485.3,367.2,485,367.1z M405.3,380.4c0.3,0.7,1.5,4.9,2.7,9.2
		c1.2,4.4,2.6,8.8,3.1,9.7c1,1.8,4.8,4.3,5.5,3.5c0.2-0.2-0.7-3.7-2.1-7.7c-2.9-8.6-2.8-8-1.1-8c1.4,0,1.6,0.5,5.7,11.8
		c1.9,5.6,4.1,8.4,5.4,7c0.2-0.2-0.3-2.7-1.2-5.6c-0.9-2.8-1.3-5.5-0.9-5.9c1.1-1.1,2.4,1.4,4.7,9c1.6,5.5,2.6,7.2,5.2,8.7
		c1.8,1.1,3.5,2,3.9,2c0.3,0-0.2-2.4-1.2-5.3l-1.9-5.2l2.6-2.1c3.1-2.6,2.5-4-2.4-4.9c-5-0.9-10.7-3.9-13.1-6.9
		c-1-1.4-4.7-4.3-8-6.6C405.7,378.8,404.5,378.4,405.3,380.4z M691.7,392.1c-2.3,2-6.5,9.1-13.3,22.5c-9.7,19.3-10,19.7-17.9,26.8
		c-4.4,4-8.7,7.8-9.6,8.4c-0.9,0.7-8.7,2.2-17.5,3.3c-8.7,1.1-16.7,2.3-17.6,2.6c-1,0.3-1.8,0.1-1.8-0.5c0-2.2,6.4-4.2,16.7-5.2
		c15.4-1.5,17.4-2.2,25.2-8.9c8.4-7.2,9.6-8.9,15.3-21c2.5-5.2,6.2-12.2,8.2-15.4c4.6-7.7,4.7-9.6,0.2-9.6
		c-4.7,0-12.5,5.5-15.6,11.1c-1.3,2.4-6,8-10.5,12.5c-9.4,9.5-14.4,11.8-26.5,11.9c-7.5,0.1-10.5,1-13,3.9c-2.1,2.6-13.7,5.6-25,6.5
		c-6.6,0.6-12.2,1.7-15,2.9c-2.5,1.1-5.6,2.3-7,2.7l-2.5,0.7l2.4-2.6c4.6-4.9,11.7-7.6,20.1-7.6s16.9-1.9,23.2-5.1
		c4.9-2.5,14.8-11.6,14.8-13.5c0-2-1.8-1.8-11.2,1.2c-9.2,2.9-16.6,3.2-36.3,1.5c-9.2-0.8-12.7-1.7-21.1-5
		c-9.3-3.8-10.9-4.1-19.5-4.1c-8,0-10,0.3-13.2,2.3c-4.2,2.6-15.2,15.9-23.1,28.1c-2.9,4.4-12.4,16.6-21.1,27l-15.8,18.9l1.2,6.6
		c1.6,9.1,3.6,12.8,10.7,20.5c5.6,6,6.5,6.6,10.1,6.6c2.1,0,4.6-0.6,5.5-1.3c0.8-0.6,3.9-5.7,6.8-11.2c6.4-12.1,17.9-29.8,24.5-37.9
		c4.4-5.4,4.6-6,3-7.2c-3-2.2-0.6-3.4,6.8-3.4c5.4,0,11,1,21.7,4c8,2.2,26.9,6.8,42,10.1c34.4,7.7,33.3,7.7,54.2-2.1
		c8.4-3.9,16.3-7.7,17.4-8.3c4.7-2.6,9.6-7.9,11-11.9c0.8-2.4,2.1-5.3,2.9-6.5c0.8-1.2,2.8-5.6,4.5-9.8s5.1-11.2,7.5-15.4
		c4.8-8.3,5.8-12.5,2.8-11.9c-1.7,0.3-8.3,15.7-10.4,24.1c-2.3,9.3-8.4,17.1-20.9,26.5c-5.3,4-9.4,6.3-11.8,6.7
		c-4.3,0.6-18,3.5-20.2,4.3c-1,0.3-0.9-0.2,0.5-1.6c1.1-1.2,5.8-3.2,11-4.7c11.4-3.3,17.5-7,28.2-17l8.5-8l2.9-11
		c1.7-6.3,5.6-16.5,9-23.8c4.9-10.3,5.8-13.1,4.9-14.2C696.3,388.5,695.5,388.7,691.7,392.1z M444,408.4c-3.3-0.5-6-0.6-6-0.1
		c0,0.7,4.5,8.4,5.7,9.8c0.2,0.2,0.9-0.2,1.4-1c0.8-1.1,1.2-1.2,1.5-0.3c2,4.7,7.4,8.2,7.4,4.8c0-2.4,1.6-1.7,2.9,1.2
		c0.8,1.6,1.7,3.5,2.1,4.3s1.8,1.5,3.1,1.5c2,0,2.5-0.6,2.7-3.2c0.5-4.6-3.4-8.3-8.6-8.3c-4.5,0-6.2-1.4-6.2-5.1
		C450,409.6,449.6,409.3,444,408.4z M700.6,420.1c-0.9,2.3-1.2,8.5-0.9,23.8l0.4,20.7l-6,10l-6.1,10l4.7,0.3c5.5,0.4,5.9,0,10.7-9.3
		c4.3-8.3,6.6-16.2,6.6-22.9c0-5.3-3.4-27.1-5.1-32.4C703.6,416.3,702.3,416.2,700.6,420.1z M710.3,423.3c-2-0.3-2-0.2-0.1,8
		c1,4.6,2.1,12.8,2.4,18.3l0.5,10l-4.9,12l-5,12l3.9,0.3c6.3,0.5,7.4-0.7,9.8-11c5.2-22.4,5.2-22.2-1.2-39.8
		C713.1,425.9,711.7,423.5,710.3,423.3z M694.9,431.6c-2.2-1.5-9.1,14.1-9.8,22.5c-0.5,5.1-1.3,7.4-3.5,10.3
		c-1.6,2.1-3.1,3.5-3.4,3.3c-0.2-0.3,0.5-2.8,1.7-5.7c2.7-6.1,2.1-7.7-0.8-2.1c-1.1,2.1-3,4.6-4.3,5.4s-11.4,5.7-22.5,10.8
		c-11.7,5.4-20.5,10-20.7,10.9c-0.3,0.9-1.5,7.8-2.7,15.4l-2.3,13.9l2.9,5.6c5.9,11.2,14.8,18.5,21.1,17.5c2.7-0.4,4.3,0,6.6,1.7
		c2.5,1.9,3.5,2.1,4.9,1.1c2.3-1.3,5.9-1.4,9.3-0.2c3.3,1.3,3.5,0.6,1.9-10.8c-0.7-5.3-2-16.8-2.8-25.6c-1.2-11.7-2-16.3-3.1-17.2
		c-0.9-0.6-4.9-1.9-9-2.8s-7.4-1.9-7.4-2.3c0.1-2.9,2-2.9,13.9,0.4c6.9,1.9,13.3,3.4,14.4,3.4c3,0,6.7-4.8,12.6-16
		c5.1-9.8,5.4-10.7,5.3-17.4c-0.1-3.9-0.4-10.4-0.8-14.4C696.1,435.3,695.4,431.8,694.9,431.6z M535,466.3c-1.8-0.3-6,2.5-6,3.9
		c0,0.6-4.4,7-9.8,14.2c-5.4,7.3-10.8,14.7-12.1,16.5l-2.3,3.3l2.8,3.1c1.6,1.6,4.9,4.1,7.3,5.6c4.3,2.5,7.1,6.9,7.1,11.2
		c0,3,1.9,2.4,3.8-1.1c0.9-1.7,3.2-5.1,5-7.5c8.7-11.6,10.9-23.7,7.5-40.4C537.1,469.4,536,466.5,535,466.3z M545.3,467.8l-3.2-0.6
		l0.7,3.7c0.4,2,0.7,9.8,0.7,17.2v13.5l-6.8,12.5c-3.8,6.8-7.1,13.7-7.4,15.2c-0.4,2,0.3,4.5,2.1,8.3c2.4,4.6,2.6,5.8,1.7,9.1
		l-1,3.7l13.6,18.1c25,33.1,36.5,46.7,51.9,61.4c20.1,19.1,38.1,31.5,47.7,32.8c5.7,0.8,18.4-1.3,22.3-3.7c3.7-2.2,7.8-9.5,9.2-16.4
		c1-4.8,2.8-50.5,2-50.5c-0.3,0-2.6,0.7-5.2,1.6c-6.2,2.1-10.5,1.4-17.9-3.2c-4.2-2.6-7.6-3.8-11.8-4.3c-4.7-0.6-7.1-1.6-12.6-5.4
		c-4.1-2.8-7.9-4.7-9.6-4.7c-4.4,0-8-2.4-10.7-7.2l-2.4-4.3l-1.8,6c-2.5,8.2-4,23.2-3.2,32.8c0.6,6.6,0.5,7.9-0.7,7.5
		c-0.8-0.3-1.9-3.3-2.7-7.5c-1.3-6.4-1.6-7-3.7-6.6c-1.8,0.4-2.5-0.1-3.4-2.8c-2.3-6.6-1.4-13.2,2.8-21.3c2.2-4.2,3.6-7.6,3.2-7.6
		c-1.8,0-9.3,7.6-11.2,11.1c-1.9,3.8-3.9,5.2-3.9,2.6c0-0.6,1.5-3.9,3.4-7.2c3.4-6.2,7.1-9.2,12.9-10.5c2.8-0.6,2.9-0.8,1.2-1.4
		c-5.6-2-10.5-4.7-10.6-5.8c0-0.7,0-5.2,0.1-10.1c0.1-4.8-0.4-10.3-1.1-12.2c-1.6-4.4-0.9-5.9,7.7-15.9l6.8-8l-6.8-13
		c-3.8-7.2-7.7-13.9-8.6-15c-1.2-1.2-8.2-3.4-21.1-6.6C557.2,470.5,547.1,468.1,545.3,467.8z M459,470.5c0,1-1.2,1.2-4.8,0.8
		c-6.8-0.6-12.5,1.2-15.8,5.1l-2.7,3.2l6.9,0.3c9.4,0.4,10.1,1.8,1.2,2.5c-7.1,0.6-17.7,3.6-20.4,5.8c-1.3,1-2,7.9-0.9,7.9
		c0.2,0,4.1-1.3,8.5-2.9s8-2.5,8-2s-3.1,2.5-7,4.4c-7.8,3.9-10,6.6-10.7,12.9c-0.5,4.1-0.2,4.6,4.7,10.1c5.3,5.8,9.7,14.4,12.6,24.1
		c1.9,6.7,4.7,8.4,13.4,8.4c5.6,0,6,0.2,6,2.3c0,3.1,1.8,4.7,5.5,4.7c4.5,0,7.3,2.5,8.6,7.6l1.2,4.6l4.3-0.7
		c3.3-0.5,5.2-0.1,8.3,1.4c5.1,2.7,5.1,2.7,9.6-0.9c4.5-3.6,5.7-3.7,7-0.8c2.2,5,12.1,2.2,15.3-4.2c1.2-2.4,2.8-3.9,5.2-4.7
		c3.1-1,3.5-1.5,3.3-4.1c-0.2-1.7-1.4-6.6-2.8-10.9c-2-6.4-3.7-9.5-9.5-16.6c-3.8-4.7-7-8.9-7-9.3c0-1.1,10.3,7.7,12.7,10.9
		c1.4,1.7,3.9,5.9,5.6,9.2c2.1,4.2,3.2,5.4,3.5,4.2c0.8-3.6-0.9-6.5-8.5-14.8c-7.1-7.7-7.5-8.4-5.4-8.9l2.3-0.5l-2.4-2.1
		c-2.7-2.5-10.1-6.4-12.2-6.4c-2.4,0-2.7,2.7-0.3,3.5c2,0.6,2,0.7-1,1.8s-3.1,1.3-1.8,3.7c2.1,3.6,1.9,4-2,4c-1.9,0-3.5,0.2-3.5,0.4
		c0,0.3,1.1,3.5,2.5,7.3c4.5,12.7,7.2,29.3,4.7,29.3c-0.5,0-2.1-5.5-3.7-12.3c-1.6-6.7-4-14.7-5.4-17.7c-2.7-5.7-5.4-7.2-5.9-3.3
		c-0.4,3-2,2.9-3.2-0.2c-0.5-1.4-1.1-2.5-1.4-2.5c-0.2,0-1,2.4-1.6,5.2c-0.7,2.9-2.6,8-4.1,11.3c-2.9,6.1-8.7,14-9.6,13.1
		c-0.3-0.3,2-5.8,5-12.3c5.9-12.4,8.2-19.9,6.5-20.9c-0.5-0.4-3.2-0.6-6-0.6c-3.9,0-7.1,1-15.4,5c-5.7,2.8-10.4,4.8-10.4,4.3
		c0-1.2,5.1-5.7,10.4-9c2.7-1.6,7.3-3.5,10.3-4.1c6.3-1.4,6-2.5-1.3-4.5c-4.2-1.2-4.6-1.4-2.6-2.1c1.4-0.4,2.2-1.3,2-2.3
		c-0.8-3.9-8.1-2-20.7,5.4c-5.2,3-9.6,5.3-9.9,5c-1.8-1.7,10.8-10.1,20.5-13.5c10.7-3.8,11.4-7.8,1.6-9c-2.5-0.3-4.8-1.1-5.1-1.7
		c-0.3-1,0.8-1.1,4.2-0.7c5.6,0.8,7.2-1.3,3.6-5.1l-2.2-2.3l3.1-1.6c1.7-0.9,3.1-2,3.1-2.4s-3-1.7-6.8-2.8c-6.4-2.1-6.5-2.2-2.8-2.3
		c2.1-0.1,5.6,0.4,7.8,1.1c3.5,1,4.1,0.9,6-0.9l2-2.1l-4.5-3.1C459.6,468.7,459,468.5,459,470.5z M596.7,481.1
		c-0.4,0,2,5.4,5.4,12.1l6.1,12l3.2-0.8c3.5-0.8,6.9-0.9,10.6-0.2c2.3,0.4,2.5,0,3.7-6.6c2-11.9,3.3-10.6-13.5-13.8
		C604.1,482.3,597.1,481.1,596.7,481.1z M618,508.7c-4.2-0.6-4.4-0.6-2.6,0.9c1.1,0.8,2.3,1.5,2.8,1.5c0.4,0,0.8,0.4,0.8,1
		c0,0.6-2.9,1-6.6,1h-6.5l-5,5.1c-8,8.2-10.2,12.7-4.9,9.9c3.1-1.7,3.4-0.8,1,3.8c-2.6,4.9-4.7,16.9-3.3,18.3
		c0.6,0.6,1.6-1.1,2.8-5.2c2.2-7.2,8-14.1,13.8-16.4c4.5-1.9,4.7-0.8,0.6,3.1c-1.8,1.6-4.7,5.2-6.5,8.1c-1.9,2.8-3.8,5.4-4.4,5.8
		c-0.5,0.3-1,2.8-1,5.4c0,4.7,0,4.8,3.1,4.3c2.4-0.4,3.8,0.2,6.6,2.9c2,1.9,4.4,5.3,5.5,7.7c2,4.5,4.7,6.2,9.9,6.2
		c2,0,4.6,1.2,7.2,3.4c6,4.8,7.9,5.6,13.8,5.6c4.1,0,5.8,0.5,7.8,2.3c3.4,3.1,12.1,6.7,16.3,6.7c1.9,0,4.3-0.7,5.4-1.5
		c1-0.8,3.8-1.5,6.2-1.5c3.7,0,4.4-0.4,5.3-2.8c1-2.5,1.1-2.5,2.1-0.9c0.9,1.8,1.2,1.7,3.9-0.9c1.6-1.5,2.9-3.8,2.9-4.9
		c0-1.2-1.8-6.1-4-10.8c-4.3-9.2-4.5-9.7-3-9.7c0.5,0,2.8,3.4,5.1,7.5c2.2,4.1,4.9,8.5,5.9,9.7c1.8,2.2,1.8,2.3,3.9,0.4
		c2.8-2.6,2.7-3.7-1.5-11.2c-4.4-8-3.9-10.7,0.7-3.7c1.9,2.9,3.7,5.3,4.2,5.3c1.2,0-2.2-7.3-4.7-10c-1.3-1.4-3.2-3.9-4.2-5.5l-1.9-3
		l2.8,1.8c2.9,1.8,3.5,1.2,1.5-1.5c-1.4-1.7-15.3-6.8-18.7-6.8c-3.1,0-2.6,1,3.2,6.1c5.1,4.5,10.8,12.9,8.8,12.9
		c-0.5,0-2.9-2.3-5.2-5c-5.5-6.5-13-11.4-11.5-7.5c0.7,1.9,0.6,1.9-3.2,0c-3.3-1.7-8.2-1.1-8.2,0.9c0,0.6,1.5,4.3,3.3,8.1
		c4.3,8.9,3.6,11.4-1.1,4.3c-1.9-2.9-4.6-6.7-6-8.3c-2.6-3.1-8.3-7.7-8.9-7.2c-0.1,0.2,1.1,4.1,2.7,8.6c2.9,7.9,5.4,20.1,4.1,20.1
		c-0.4,0-1.8-3.9-3.3-8.8c-2.7-8.8-8-18.7-10.9-20.5c-3.1-1.9-4.7,0.2-9,11.2c-3.9,10.2-5.9,13.4-5.9,9.6c0-0.8,1.8-6.2,4-12
		c4.5-11.8,4.4-12.9-1.9-18.9c-2.9-2.8-3.1-2.9-5.6-1.2c-1.5,1-2.4,2-2.1,2.4c0.4,0.3,1.2,0,1.8-0.6c0.7-0.7,1.6-1.2,2.1-1.2
		s-1.7,2.9-5,6.3c-3.3,3.5-6.8,8.4-7.9,10.8c-4.5,9.9-4.5,9.9-4,4.8c1.1-10.5,8.4-23.1,14.2-24.5c2.8-0.7,3.2-3.5,0.8-5.8
		c-2.1-2.1-11.5-2.1-15.5,0c-4.6,2.3-4.6,0.9-0.1-2.1c2.2-1.5,5.8-2.9,8-3.2c3.9-0.5,4-0.6,4.4-5c0.2-2.5,0.1-4.6-0.2-4.8
		C622.7,509.5,620.5,509,618,508.7z M501.2,573.5c-1.4-0.9-2.3-0.7-4.5,1.2c-3.4,2.9-5.2,3-10.8,0.4c-2.4-1.1-5.8-2-7.6-2
		c-3.6,0-4.7,1.3-11.1,13.4c-8.9,16.6-30.6,46.6-49.4,68.2c-10.1,11.6-18.9,21.8-19.6,22.6c-1.2,1.5-0.5,1.7,6.5,2.3
		c5.9,0.5,10.2,1.7,17.3,4.8c6.2,2.6,10.9,4,13.5,4c8.1-0.2,10.3,0.6,15.6,5.9c4.4,4.4,5.4,5,8,4.4c2.3-0.4,4.2,0.1,7.3,1.9
		c2.4,1.4,5.2,2.5,6.3,2.5c1.2,0,5.3,1.6,9.2,3.7c3.9,2,7.3,3.4,7.6,3.1c0.2-0.2,0-3-0.5-6.2s-1.4-13.5-2-22.7
		c-2.2-33.5,2.7-69.7,13-96.5c1.6-4.3,3-8.3,3-8.9S502.2,574.1,501.2,573.5z"/>
	<path d="M330.1,13.5c0.7,6.2-0.9,7.6-5.1,4.6c-2.5-1.7-3-2.8-3-6c0-2.7,0.6-4.2,1.8-4.9C326.7,5.5,329.4,8.2,330.1,13.5z"/>
	<path d="M306.9,15.7c4.1,5.2,1.9,9.8-3.7,7.8c-3.7-1.3-5.1-5.7-2.7-8.4S304.4,12.6,306.9,15.7z"/>
	<path d="M289.6,32.6c2.8,2.8,2.8,5.2,0.2,6.9c-4,2.5-10.9-3.4-8.7-7.6C282.5,29.3,286.7,29.7,289.6,32.6z"/>
	<path d="M268.5,250.6l0.3,6.2c0.5,11.3-6.7,40.6-15.2,61.8c-3.7,9.2-9.8,19.5-11.6,19.5c-1.4,0-1.3-0.4,1.9-6.8
		c12.4-24.6,20.4-49.5,23.8-74.7L268.5,250.6z"/>
	<path d="M194.6,331.3c-4.8,7.6-9.2,18.3-12.1,29c-2,7.7-7.4,42.7-7.5,48.7c-0.1,1.3-0.2,1.3-1.2-0.3c-0.7-1.3-0.9-6.1-0.5-14.5
		c1.2-25.2,10.3-54.1,20.3-64.8C198.1,324.6,198.5,325.3,194.6,331.3z"/>
	<path d="M407.6,135.2c3-0.1,38,12.2,39.9,14c1.8,1.8-1.8,3-7.6,2.6c-4.5-0.2-7.4-1.3-15.6-5.9c-12.8-7.2-16.7-8.3-23.9-6.8
		c-5.1,1.1-7.6,0.8-6.2-0.6c0.4-0.3,2.8-1.2,5.5-1.9C402.3,135.9,405.9,135.2,407.6,135.2z"/>
	<path d="M419.7,162.6c1.9,0.8,4.4,1.5,5.4,1.5c0.9,0,2.5,0.7,3.3,1.6c1.1,1.1,2.5,1.4,4.6,0.9c3.6-0.8,3.9,0.7,0.5,2.5
		c-3.3,1.8-3.2,3,0.4,3c4,0,4.9,1.8,1.4,2.6c-1.5,0.3-3.3,0.7-3.9,0.9s-3,3.7-5.3,7.9c-4.7,8.6-5.6,9.1-15.9,8.4
		c-11.4-0.8-18.8-6.3-19.9-14.6c-0.7-5.1,2-8.2,10.9-12.6C409,160.7,413.9,160.2,419.7,162.6z M402.7,169.2c-4.3,0.3-8.7,4.4-8.7,8
		c0,2.7,4.3,8.9,6.1,8.9c0.5,0,1.6-1.8,2.5-4c4-9.9,15.4-12.3,21.6-4.6l1.8,2.1v-2.2c0-2.8-4.4-4.9-14.8-6.9
		C407.1,169.7,403.3,169.1,402.7,169.2z M408.8,177.8c-3.9,4.5-5.1,10.3-2.2,10.3c1.3,0,1.5-0.7,1.2-3.1c-0.4-2.6,0-3.4,2.6-5.1
		c2.2-1.4,4.2-1.8,7.1-1.4c3.7,0.4,3.8,0.3,2.1-1C416.8,175.5,410.7,175.7,408.8,177.8z"/>
	<path d="M461.6,222.1c0.9,0,4.4,8.4,4.4,10.6c0,3.2-3.5,7.1-7.1,7.8c-5,1-5.3-0.3-0.8-3.6l4.2-3l-0.7-5.9
		C461.3,224.8,461.3,222.1,461.6,222.1z"/>
	<path d="M446.1,236.7c1.1,1.3,0.5,1.4-4.2,0.8c-6.4-0.8-7-1.1-4.6-2.9C439.4,233.1,444,234.2,446.1,236.7z"/>
	<path d="M407.9,241.5c3.6,3.5,6.8,4.5,17.5,5.4c6.5,0.6,11,1.7,15,3.5c6.2,2.9,8.6,3.3,8.6,1.7c0-1.9,4.7-2.9,8.4-1.9
		c2,0.5,3.6,1.2,3.6,1.5c0,0.2-1.6,1.9-3.6,3.6c-3.9,3.5-5.8,6.7-6.9,11.8c-0.9,4.4-3.9,7.7-9,10.1c-4.9,2.3-8.8,2.4-14.7,0.4
		c-5.7-2-9.9-6.1-14.5-14.2c-4.2-7.5-8.3-19.7-7.5-22.5C405.2,239.1,405.4,239.1,407.9,241.5z M411.9,256.6
		c3.9,10.3,12.3,18.1,20.9,19.2c5.7,0.8,11.8-2.7,14.3-8c2.8-6.3,2.4-7.6-1.3-4c-4.3,4-9.9,5-17,2.9c-5.5-1.6-9.4-4.6-14.2-10.9
		C410.8,250.8,409.8,251.1,411.9,256.6z M418.4,254.5c-1.1-0.4,0.1,1.4,2.7,4c4.8,5,8.7,6.5,16.7,6.6c2.9,0,4.4-0.5,4.9-1.5
		c0.3-0.9,0.3-1.8,0.1-2.1c-0.3-0.2-5.5-1.8-11.5-3.4C425.2,256.5,419.4,254.8,418.4,254.5z"/>
	<path d="M599,312.6c0.9,1.7,1,4.1,0.4,9.2c-0.9,6.7-0.9,6.8-4.1,7.1c-3.8,0.4-4-0.1-1.4-3.4c1.1-1.4,2.2-4.3,2.6-6.6
		c0.9-5.1-0.9-6.8-7.2-6.8c-4.8,0-5.8-1.6-1.5-2.6c1.5-0.3,3.2-0.7,3.7-0.8C593.6,308.1,597.8,310.3,599,312.6z"/>
	<path d="M283.1,486.1c-3.7,19.4-6,26.1-10.9,31.2c-3.2,3.5-4.5,3.5-7,0.3c-2.5-3.1-4.9-16.2-3.4-17.7c0.8-0.8,1.3-0.2,1.8,1.8
		c2.7,12.1,3,12.9,5,12.9c1.4,0,2.9-2,5.7-7.8c4.5-9.6,6.7-21.5,6.7-37.3c0-6.1,0.3-11.4,0.7-11.8
		C285,454.4,285.8,471.5,283.1,486.1z"/>
	<path d="M286.8,462.1c1.3,0,5.6,10.9,7.3,18.5c1.6,7,1.6,30.8,0.1,34.5c-0.9,2-1.1,1-1.1-5.6c-0.2-16.1-3.2-36.9-6.6-45.7
		C286.1,462.9,286.2,462.1,286.8,462.1z"/>
	<path d="M314,704.2c0,2.5-8.5,18.6-15.6,29.6c-16.7,25.8-44.2,61.8-44.4,57.8c0-0.6,7.4-11.3,16.4-23.9c9-12.6,19.2-27.4,22.7-33
		c8-12.8,17.3-30.6,16.1-30.6c-0.6,0-5.2,3.8-10.3,8.5c-8.4,7.8-10.9,9.6-10.9,7.9c0-1.4,11.6-13.8,16.3-17.5
		C311,697.6,314,698,314,704.2z"/>
	<path d="M292.7,789.5c0.3,0.2-4.1,8.5-9.8,18.3c-5.6,9.8-13.3,23.3-17.2,30.1c-6.6,11.7-8.7,14.2-8.7,10.4c0-4.3,17.8-35.4,29.2-51
		C289.5,792.7,292.4,789.2,292.7,789.5z"/>
	<path d="M442.9,791.1c1.5,0,1.4,1.6-0.5,5.1c-1.7,3.3-10,25.7-14,37.9c-1.4,4.1-3.1,8.1-3.9,8.9c-3.3,3.4,6.4-28.3,13.1-42.7
		C439.9,795.3,442.3,791.1,442.9,791.1z"/>
	<path d="M165.9,804.1c0.7,0,1.1,0.6,0.8,1.2c-0.3,1-20.2,32.5-21.1,33.5c-0.1,0.1-0.8-0.2-1.5-0.6c-1.6-1,2.5-8.4,13.3-23.8
		C161.3,808.7,165.1,804.1,165.9,804.1z"/>
	<path d="M604.7,819.1c1.7,0,10.3,19.3,10.3,22.9c0,1.9-0.3,3.1-0.6,2.8c-0.7-0.6-9-20.5-10.1-24C604,819.9,604.2,819.1,604.7,819.1
		z"/>
	<path d="M435.7,820.1c1.8,0,1.8,0.3-2.8,14.6c-4.7,14.6-4.8,14.9-6,13.7c-0.6-0.6,0.8-6.5,3.3-14.6
		C432.8,825.4,434.9,820.1,435.7,820.1z"/>
</g>
</svg>
