<?xml version="1.0" encoding="utf-8"?>
<!-- Generator: Adobe Illustrator 21.0.0, SVG Export Plug-In . SVG Version: 6.00 Build 0)  -->
<svg version="1.1" baseProfile="tiny"
	 id="svg82" inkscape:version="0.92.2 5c3e80d, 2017-08-06" sodipodi:docname="73 #23948.svg" xmlns:cc="http://creativecommons.org/ns#" xmlns:dc="http://purl.org/dc/elements/1.1/" xmlns:inkscape="http://www.inkscape.org/namespaces/inkscape" xmlns:rdf="http://www.w3.org/1999/02/22-rdf-syntax-ns#" xmlns:sodipodi="http://sodipodi.sourceforge.net/DTD/sodipodi-0.dtd" xmlns:svg="http://www.w3.org/2000/svg"
	 xmlns="http://www.w3.org/2000/svg" xmlns:xlink="http://www.w3.org/1999/xlink" x="0px" y="0px" viewBox="0 0 850 850"
	 xml:space="preserve">
<sodipodi:namedview  bordercolor="#666666" borderopacity="1" gridtolerance="10" guidetolerance="10" id="namedview84" inkscape:current-layer="svg82" inkscape:cx="634.97067" inkscape:cy="638.9697" inkscape:pageopacity="0" inkscape:pageshadow="2" inkscape:window-height="978" inkscape:window-maximized="1" inkscape:window-width="1920" inkscape:window-x="0" inkscape:window-y="1" inkscape:zoom="0.58897835" objecttolerance="10" pagecolor="#ffffff" showgrid="false">
	</sodipodi:namedview>
<g id="g80" transform="translate(0.000000,0.000000) scale(1.00000,1.00000)">
	<path id="path4" fill="none" d="M0,0l205.3,0.1c167,0.1,203.2,0.4,194.7,1.4c-13.2,1.5-15.4,2-26.6,5.6
		c-23,7.5-42.6,21.1-56.2,39.2C308.1,58.2,303.9,66,299.6,79c-4.3,12.7-5.4,20.6-3.6,25.9c1.1,3.4,0.8,5.9-2.9,24.2
		c-5.9,29.5-7.1,38-7.1,50.5s5,74.4,7.7,95.9c2.6,20.7,2.6,77.1,0,86.5c-6.2,21.6-18.3,33.3-31,29.9c-4.5-1.2-7.7-4.1-7.7-6.9
		c0-1.7,0.7-2,4.5-2c2.5,0,4.5-0.2,4.5-0.5c0-1.7-3.3-6.6-5.1-7.5c-5.6-3.1-10.7-0.7-14,6.5c-2.8,6-2.4,9.9,2,18.9
		c4.7,9.7,9.2,14.4,18.3,19.4c5.5,2.9,6.5,3.8,5.2,4.5c-1.6,0.9-12.6,0.3-17.1-0.9c-3.2-0.9-2.9,0.6,1.2,5.3
		c7.5,8.8,19.7,14.6,33.5,15.8c4.8,0.5,7.9,1.3,8.7,2.2c0.8,1,5.1,2,13,2.9c6.5,0.8,12.2,1.6,12.7,1.7c0.5,0.2-0.4,1.2-2,2.2
		c-2.5,1.7-4.5,2-13.4,1.9l-10.4-0.2l7.4,7.2c16.8,16,37.9,26.1,61.9,29.7c8.6,1.2,43,0.8,46.3-0.6c1.3-0.5,2,0.3,3.1,4.2
		c2.3,7.6,6.6,17.2,10,22.3c1.8,2.6,10.3,12.4,18.9,21.9c8.7,9.4,16.1,18.3,16.4,19.8c1.1,4.2-1.4,7.3-10.6,13.5
		c-4.7,3.1-10,7.4-11.9,9.5c-4.4,5-34.6,42.6-35.7,44.6c-1.2,2-31.6,22.9-38.8,26.6c-7.8,4.1-13.3,4.1-23.1,0
		c-4.4-1.8-8.2-2.8-9.4-2.4c-2.9,0.9-4.8,4.4-8.7,16.2c-3.1,9.2-3.7,12.5-4.2,22.9c-1.1,25.4,4.6,43.5,19.5,62.1
		c2.6,3.2,5,6.3,5.5,7c0.6,0.8-0.3,2.5-2.6,5.1l-3.5,3.9l7.3,7.6c4.9,5.2,8.3,7.9,10.3,8.3l3.1,0.6l-2.4,3.5
		c-4.9,7.3-2.5,24.2,5.3,37.1c8.1,13.3,16.2,20.2,26.7,22.8c4.1,1-32.6,1.2-191.1,1.3L0,850V425V0z"/>
	<path id="path6" fill="none" d="M645.3,0.1L850,0v425v425l-219.2-0.1c-194.2-0.1-218.4-0.2-211.3-1.5c13.2-2.4,15-3.1,19.4-7.9
		l4.1-4.4l1.4,3.2c0.7,1.7,2.5,4.3,4,5.7c3.6,3.3,9.7,3.5,38.8,1.7c24.6-1.6,26.6-2.1,28.5-7.4c0.6-1.5,1.8-4.9,2.7-7.5
		c1.4-3.9,2.4-5,6.2-6.8c3.5-1.6,5-3,6.4-6.3c3-6.8,6.3-20.3,5.7-22.9c-0.4-1.2-4.3-6.3-8.8-11.3c-9.2-10.2-14.5-20-22.4-41.9
		c-5.1-14.3-12.8-43.2-14.4-54.1c-2.4-16.8-2.3-21.6,0.4-43.5c3-24,5.7-35.9,11-48.7c5.7-13.6,6.9-18.7,5.7-24.7
		c-1.2-5.8-0.4-8.5,3.8-13.3c4.5-5.1,17.1-27,19.8-34.3c3.6-9.8,9.2-36.2,10.2-47.6c0.6-7.4,1.9-13.3,4.7-21.5l3.8-11.4l7-1.8
		c3.9-1,10.8-3.9,15.5-6.4c24.4-13.1,34-24.5,32.8-38.9c-0.6-7.6-1.9-8.5-5.8-4c-2.4,2.7-4,3.6-6.4,3.6c-3.9,0-10.3-3-13.9-6.5
		l-2.8-2.7l4.5-3.4c6.6-5.1,10.1-12.8,10.1-22.4c-0.1-5.7-0.6-8.5-2.2-11.6c-4.2-7.9-11-11.4-15.5-8c-2.4,1.8-2.3,2.1,1.7,4.5
		c5.6,3.3,4.3,8.6-2,8.4c-5.2-0.2-8.9-4.1-12.4-13.2c-4.8-12.6-5.6-18-5.6-38.1c0.1-19.7,0.4-23.8,6.5-79
		c9.9-89.6,10.3-109.1,2.9-131.4c-1.7-5-4.4-11.7-6.2-15c-6.2-11.6-19.4-23.3-31.8-28.1c-5.3-2.1-8.2-4.5-20.8-16.7
		C489.6,16.7,481.3,11,466.5,6c-4.9-1.7-12.7-3.7-17.5-4.5C441.8,0.4,470.8,0.2,645.3,0.1z"/>
	<path id="path8" fill="#9400D3" d="M420.5,12.5c18.4,0.4,29.8,2.2,44.2,7c19.1,6.4,34.5,16.1,38.9,24.6l1.3,2.7l-4.7,0.6
		c-2.6,0.3-8.4,0.9-12.8,1.2l-8.1,0.7l-4.1-6c-11.8-17.3-33-28-60.4-30.3C405.3,12.2,405.8,12.2,420.5,12.5z"/>
	<path id="path10" fill="#9400D3" d="M382.4,18.5c-0.7,1.9-0.7,1.9,14.1,0c9.2-1.1,13.9-1.2,20.2-0.5c18.1,2.3,33.5,8,42.5,15.9
		c2.5,2.2,6.5,7,8.9,10.7c4.1,6.3,4.2,6.8,2.5,7.8c-4.7,2.7-8.5,7-12.1,13.5c-2.1,3.9-4.7,7.9-5.7,8.8c-1.9,1.7-1.9,1.6-1.3-3.7
		l0.6-5.5l-10.6,11c-5.9,6-10.3,10.3-9.8,9.5c0.4-0.8,3.4-5.4,6.6-10.2c5.5-8.4,6.8-11.8,4.7-11.8c-0.5,0-4.7,3.4-9.2,7.6
		c-4.6,4.2-11.2,9.9-14.8,12.6c-8,6.1-24.3,14.1-33,16.2c-6.1,1.4-28.2,4.6-32.2,4.6c-4.3,0-1.1-11,8.2-27.8
		c3.4-6.2,6-11.5,5.7-11.9c-1-0.9-5.4,2.4-12.6,9.5c-4.7,4.6-8.3,9.5-11.6,15.6c-6.9,12.8-6.4,12.4-18.1,11.9
		c-5.5-0.2-12.7-0.6-16.1-0.9l-6.2-0.5l0.6-5.2c0.8-7.8,3.1-16.4,6-22.1c3.3-6.7,11.9-18.2,19.1-25.4c9.1-9.3,28.3-21.5,43.5-27.7
		C381.5,16.7,383.2,16.3,382.4,18.5z"/>
	<path id="path12" fill="#9400D3" d="M520.8,59.1c10.3,4.9,20.4,15.6,27.1,28.6c9.4,18.5,10.9,29.9,9.2,70.3
		c-1.4,31.5-2.7,47.6-5.2,65c-3.9,25.7-5,39.6-5.5,70c-0.7,33.7-0.2,38.5,4.6,48.9c3.4,7.2,12.2,19.6,15,21.1
		c4.9,2.6,13.5-0.2,17-5.6l2-2.9v3.8c0,2.1-0.6,5.2-1.4,7c-1.5,3.8-10.8,12.5-14.1,13.3c-3.8,0.9-8.1-2.2-12.1-8.6
		c-4.1-6.7-5.2-7.1-3.4-1.3c4.4,13.6,14,25.2,25.5,30.9c6.7,3.3,8,3.6,13.9,3.2l6.4-0.4l-1.9,3.8c-3.8,7.4-19.4,17.8-34.5,22.9
		c-12.6,4.3-15,3.8-9.9-2.3c6.2-7.4,3.9-14.4-6.4-19.4c-3-1.4-4.1-2.5-4.1-4.1c0-2.4-2.9-4.7-7.2-5.7c-2.1-0.5-2.8-1.2-2.8-3.1
		c0-2-1.4-3.2-8.5-7.1c-7.2-3.9-8.3-4.8-7-5.8s0.2-2.4-8-9.9c-5.2-4.9-9.5-9.5-9.5-10.2c0-0.8,0.9-1.9,2-2.5c2-1.1,1.7-1.5-4.5-8.4
		c-3.6-4-6.5-7.6-6.5-8c0-0.3,1.5-0.6,3.3-0.7c1.7-0.1,4.2-0.4,5.4-0.7c2.2-0.7,2-1-3.2-6.9c-3-3.3-5.5-6.3-5.5-6.6
		c0-0.3,0.9-0.7,1.9-1c1.9-0.5,1.9-0.7-0.5-9.8c-1.4-5.2-4.3-13.2-6.5-17.8c-3-6.5-3.5-8.2-2.2-7.6c5.6,2.3,6.3,1.7,4.3-4.2
		c-0.7-2-2.7-3.9-5.8-5.6c-4.2-2.4-4.4-2.7-2-2.7c1.5,0,4-1.1,5.5-2.5c2.7-2.5,2.8-2.5,0.8-4c-1-0.8-6.3-4-11.6-7.1
		c-8.2-4.6-9.8-5.9-10.3-8.5c-0.4-2.2-1.5-3.4-4.1-4.4c-1.9-0.8-4.4-1.5-5.5-1.5c-2.7,0-2.5-0.8,0.8-3.3c1.5-1.2,6.9-5.7,12-10
		l9.3-7.8l2.6,3.1c5.1,6.1,11.8,7.6,18.6,4.1l3.7-1.9l-0.7,2.7c-0.7,3.2-5.2,12.3-10.5,21.4c-2.2,3.8-3.8,7-3.5,7.3
		c0.2,0.2,2.9-2.2,5.9-5.4c8.5-8.9,11.9-16.8,15.8-36.2c1.2-5.7,2.3-10.6,2.5-10.8c1.1-1.1,1.6,29.7,0.5,37.8
		c-1.9,14.8-9.6,43.2-17.5,64.5c-0.6,1.5,0,1.3,2.4-1c2.3-2.3,4.6-6.9,8.7-18c12.9-34.3,14.9-46.8,12.3-76
		c-2.1-24.6-4.8-33.6-18.7-62.5c-19.5-40.6-29.6-63.9-33.2-76.6c-3.5-12.5-3.6-13.4-1.4-18c4.3-9,17.6-8.2,33.3,2
		c13.2,8.5,18.9,16.3,25.2,34.2c3.8,10.9,4.9,12.3,4.9,6.1c0-18.6-12.1-36.8-31.9-47.9c-6.9-3.8-7.9-4.7-6-5.1
		C498,52.2,511.1,54.5,520.8,59.1z"/>
	<path id="path14" fill="#D2B48C" d="M457.6,77.6c2.5,9.6,9.2,30.9,10.7,33.9l1.9,4l-4.8-4.7c-12-11.5-24.5-13.2-48.7-6.6
		c-9.1,2.4-13.4,5.6-14.3,10.5c-0.6,3-0.4,3.3,1.7,3.3c1.3,0,5.6-1.4,9.4-3.1c15.3-6.5,29.5-8.5,38.8-5.3c6,2,23,16.9,24.6,21.6
		c1.3,3.7,0.9,4.3-3.9,5.6c-1.9,0.5-4.4,1.3-5.5,1.7s0-1.1,2.5-3.4c5.6-5.1,3.8-6.2-4.4-2.6c-3.2,1.4-6,2.4-6.2,2.3
		c-0.1-0.2,1-2.5,2.7-5.1c1.6-2.6,2.6-4.7,2.3-4.7c-0.3,0-3.3,1.6-6.6,3.5c-3.3,2-6.3,3.4-6.5,3.1c-0.2-0.2,0.3-1.8,1.2-3.6
		c0.9-1.8,1.5-3.4,1.3-3.6s-2,0.9-3.9,2.5c-2.2,1.8-6.3,3.6-11.7,4.9c-19.3,4.9-33.1,17.1-44.1,38.9c-3.4,6.9-3.9,10.4-1.6,12.3
		c2.2,1.8,38.5,0.6,47.3-1.5c12.5-3,20.4-9,25.7-19.4c1.8-3.6,4.1-7.4,5.2-8.3c2-1.8,15.2-8.3,15.7-7.7c0.2,0.2,4.5,9.2,9.6,19.9
		c10.7,22.5,11.5,26.1,7.6,32c-3.1,4.7-4.6,4.9-8,1.5c-3.5-3.5-5.1-3.1-8.6,1.7c-4,5.5-4.7,8.5-2.5,10.2c1.5,1.1,1.4,1.6-1.7,5.7
		c-4.1,5.4-15.3,13.9-27.3,20.8c-15.4,8.8-37.6,16.6-56.5,19.8c-12.1,2.1-24.7,0.8-31.4-3.1c-9.6-5.6-36.1-36.9-42.9-50.6
		c-2.8-5.6-3.2-7.5-3.2-14c0.1-8,2.4-24,3.5-24c0.4,0,1.5,0.9,2.6,2.1c3.6,4,19.7,10.9,25.3,10.9c5.2,0,5.4-0.6,3.6-14.1
		c-1.8-13.7-4.2-20.4-10.1-27.5c-5.5-6.8-9-8.8-15.3-8.9c-5.4,0-5.6-0.1-8.4-4.3c-3.4-5-5.7-4.5-3.9,0.7c1.6,4.6,0.6,3.7-2.3-1.9
		c-3.3-6.5-3.2-9.5,0.5-13c5.8-5.4,12-4.6,21.7,2.9c3.6,2.8,7.1,5.1,7.8,5.1c0.6,0,2-0.9,3-2c1.4-1.6,1.6-2.3,0.7-3.2
		c-2.1-2.1-1.4-2.3,5.3-2c3.6,0.2,10.5-0.1,15.3-0.8c18.4-2.4,31.9-7.2,44.1-15.6l6.6-4.6l-7,7.2c-7.5,7.7-7,8.3,3,3.2
		c6.3-3.1,12.2-7.1,20.7-13.9c3.7-2.9,6.9-5.3,7.1-5.3s0.1,1.9-0.4,4.2c-1.1,5.8-1.1,9.8,0,9.8c0.5,0,3.5-4.1,6.7-9.2
		C454.8,80.8,457.5,77.1,457.6,77.6z M363,198.2c0,1.9,9,5.2,10.4,3.8c0.7-0.7,0.7-1.6,0-2.8C372,197,363,196.2,363,198.2z
		 M372.2,211.1c-9.2,0.3-14.6,2.6-17.1,7.3c-1.3,2.3-1.2,2.8,0.2,4.4c1.5,1.6,1.5,2.7,0.6,7.5c-0.9,4.9-0.7,6.3,1,10.2
		c2.1,4.8,6,7.8,12.6,9.6c8.8,2.4,17.9-3.9,22-15.4c3.2-8.6,3.1-9.9-0.2-11.9c-1.6-0.9-5.6-3.9-9.1-6.7
		C377.1,211.9,375.3,211,372.2,211.1z"/>
	<path id="path16" fill="#FF0000" d="M371.3,216.1c4.5-0.1,5.2,0.2,10,4.9c4.6,4.3,4.9,5,2.9,5c-1.2,0-3.9-0.7-5.9-1.5
		c-4.3-1.8-7.7-1.9-10.3-0.3c-1.7,1.1-2.4,0.8-4.9-1.6c-3.4-3.2-3.1-5.3,0.7-5.9C365.3,216.5,368.7,216.2,371.3,216.1z"/>
	<path id="path18" fill="#FF0000" d="M372.5,227.7c16.3,3,16,2.9,15.7,4.9c-0.9,5.6-7.4,10.6-14.4,11.1c-4.7,0.4-5.6,0.1-8.1-2.2
		c-3.1-3-4.7-6.4-4.7-10c0-2.5,0.8-2.9,7-3.8C369.4,227.5,371.4,227.5,372.5,227.7z"/>
	<path id="path20" fill="#9400D3" d="M348.6,92.2c0.1,0.2-0.4,2.8-1.2,5.8c-0.8,3-1.2,6.5-0.9,7.7c0.4,1.7,0.2,2.1-1,1.7
		c-2.2-0.9-3.6-3.9-2.8-6.1c0.4-1,1.8-3.5,3.1-5.6C347.2,93.7,348.4,92.1,348.6,92.2z"/>
	<path id="path22" fill="#9400D3" d="M308.8,115.7c0.2,6.3-0.1,8.8-1.4,10.8c-2.2,3.4-1.2,6.8,3.2,10.1c7.4,5.7,9.7,16.5,7.4,36.1
		c-1.4,12.2-0.9,18.9,4.1,59.3c1.7,13.9,4.1,28.4,5.5,33.5c2.1,7.4,2.6,12,3,26c0.3,9.3,0.2,20.5-0.3,24.7c-0.7,6.2-0.6,7.8,0.4,8.3
		c1.6,0.6,1.9,0,3.7-9c4.4-21.5,2.8-41.3-6.9-83.3c-1.4-6.3-2.5-11.8-2.3-12.4c0.2-0.5,3.2,2.6,6.6,7c7.6,9.6,22.6,24.3,30.4,29.7
		c3.2,2.2,5.8,4.3,5.8,4.7s-2.7,2.6-6,4.9s-5.9,4.7-5.7,5.3c0.2,0.7,4.2,1.2,10,1.4c5.3,0.1,9.7,0.6,9.7,1.1c0,1.3-4.3,4.7-8.5,6.9
		c-2.2,1.1-4.9,2.8-6,3.6c-1.9,1.6-2,1.6-0.1,3.1c1.8,1.3,1.8,1.4-0.5,1.9c-9.3,1.9-10.4,2.3-8.4,3c8.6,3.1,8.7,7.1,0.1,11.6
		c-2.7,1.4-4.7,2.9-4.5,3.5c0.1,0.5,2.2,2.4,4.7,4.1c2.4,1.8,4,3.4,3.5,3.7c-0.4,0.2-3.4,1-6.6,1.8c-3.2,0.7-6,1.6-6.3,2
		c-0.3,0.5,1.2,1.5,3.2,2.4c4.2,1.7,3.8,2.7-1.8,4.5c-5.2,1.6-5.4,2.4-0.8,4.5c2.2,1,4,2.2,4,2.8c0,0.5-2,7.2-4.5,14.9
		s-4.5,14.6-4.5,15.4s0.9,1.4,2,1.4c1.6,0,1.9,0.5,1.5,2.2c-0.3,1.3-1.3,6.2-2.3,10.9l-1.9,8.6l2.4,4.6c2.6,5.1,2.6,5.2,5.4,3.7
		c1.6-0.9,2.1-0.6,3.5,2.4c1.7,3.5,1.4,5.2-2.1,13.8c-0.6,1.5-0.2,1.8,1.9,1.8c2.4,0,2.6,0.3,2.6,4.6v4.5l2.9-2.1l3-2.1l1,3.6
		c0.6,2.3,0.6,5.7,0.1,9.3c-1,6.1-0.8,6.7,2.3,6.7c1.6,0,2.3,0.9,3,3.8l0.9,3.8l2.3-2.1l2.3-2.1l2.2,2.8c1.5,1.9,2,3.5,1.5,5.3
		c-0.3,1.4-0.9,5.4-1.2,9c-0.5,6.4-0.5,6.5,1.4,4.8c2.9-2.6,3.3-2.3,3.3,2.7c0,4.7,0.9,5.6,3,3c2-2.4,2.1-1.4,0.5,4.5
		c-0.8,3-1.5,5.8-1.5,6.2c0,1.4,3.5,0.8,6.8-1.2c4-2.5,3.9-2.5,4.6,0.6l0.7,2.5l4.1-3c2.3-1.7,4.5-3.1,4.9-3.1s1,1.2,1.3,2.6
		l0.7,2.6l3.4-2c3.5-2.1,4.5-2,4.5,0.9c0,3.8-23.6,5.1-42.7,2.4c-18.8-2.7-33.5-7-47.1-13.9c-11.2-5.7-11.3-6-4-7.5
		c3.5-0.7,9.3-2.9,13-4.8c11.8-6.2,22.8-19.9,22.8-28.5c0-2.7-1.2-2.2-5.1,1.8c-4.6,4.9-13.9,10.9-20,12.9
		c-5.4,1.8-15.9,3.5-15.9,2.6c0.1-0.3,2.8-2.6,6.1-5.1c6.9-5.1,16.5-15,19.3-19.9c1.7-3,1.2-2.8-5.7,2.7
		c-17.7,14-35.6,18.3-54.9,13.1c-4.3-1.2-7.8-2.4-7.8-2.8c0-0.3,2.4-1.2,5.3-1.9c15.3-3.5,29.4-14.6,36.2-28.6c2.1-4.2,3.5-8,3-8.4
		c-0.4-0.4-1-0.1-1.3,0.7c-0.2,0.7-2.3,4.1-4.6,7.5c-9.6,14-23.3,17.9-38.8,10.9c-8.6-3.8-14.9-11.7-17.2-21.6
		c-0.8-3.5-0.2-3.4,3.5,0.7c6.8,7.8,15.7,9.4,25.2,4.6c10.5-5.2,14.6-10.6,20.3-26.6c6-16.8,6.6-22.8,5.5-58
		c-0.6-17-1.7-36.1-2.5-42.4c-9.1-70-7.2-142,4.2-159C308.5,107.6,308.5,107.7,308.8,115.7z"/>
	<path id="path24" fill="#9400D3" d="M480.5,137.1l1.8,2.2c1,1.2,2.2,3,2.8,4.1c0.9,1.5,0.8,1.7-0.3,1c-0.7-0.5-3.8-0.7-6.8-0.6
		l-5.5,0.3l4-3.5L480.5,137.1z"/>
	<path id="path26" fill="#000080" d="M326.6,145.2c-0.8,8,0.6,12.9,5,17.8c4.6,5,10.8,8,16.7,8c4,0,4.7,0.3,4.7,2s-0.4,1.9-2.7,1.4
		c-6.1-1.5-13.1-4.5-17.1-7.5c-6.2-4.5-8.2-9.1-8.2-18.7c0-4.3,0.3-8.2,0.7-8.5C327.1,138.2,327.3,139.2,326.6,145.2z"/>
	<path id="path28" fill="#000080" d="M450.2,144c1.1,0,3.6,2.9,4.3,5.1c1,3.1-1.3,10.2-4.7,14.3c-4.3,5.3-10.1,7.9-17.4,8
		c-7.8,0.1-13.6-3.4-16.6-10c-2.8-6.4-1.9-7.2,2.2-1.7c2.2,3,5.3,5.7,8.3,7.2c4.5,2.2,5.2,2.3,10.4,1.1c3.7-0.8,6.7-2.3,9.2-4.5
		c3.6-3.3,3.6-3.4,3.6-11.4C449.5,147.6,449.8,144,450.2,144z"/>
	<path id="path30" fill="#000080" d="M460.1,146.5l1.5,2.9c3.6,6.6-2.9,19.1-12.7,24.1c-5.1,2.7-18.5,4.6-36.2,5.2l-16.8,0.6
		l0.7-2.9c0.9-4,2.5-6.8,7.7-14.1c4.4-6.2,5.7-6.9,5.7-2.8c0,3.3,5.4,11,9.6,13.6c3.2,2,5.2,2.4,11.4,2.4c4.1,0,9.4-0.6,11.8-1.3
		c9-2.7,17.1-13.7,17.2-23.2L460.1,146.5z"/>
	<path id="path32" fill="#000080" d="M334.5,158.8l3.8,2.2c3,1.8,4.9,2.1,8.8,1.8c4.3-0.4,4.9-0.3,4.9,1.3c0,2.2-3.8,3.4-7.5,2.5
		c-1.5-0.4-4.3-2.3-6.3-4.2L334.5,158.8z"/>
	<path id="path34" fill="#00FF00" d="M493,209c0,5-1,7.7-2.1,5.8c-1-1.5-1.2-6.9-0.3-9.2C491.6,202.9,493,204.9,493,209z"/>
	<path id="path36" fill="#9400D3" d="M505.3,205c0.6,0,0.7,2.2,0.3,5.2c-0.3,2.9-0.6,7.3-0.6,9.7v4.4l-3.5-3.9
		c-1.9-2.1-3.4-4.4-3.5-5.1c0-0.7,1.4-3.3,3.2-5.8C502.9,207,504.8,205,505.3,205z"/>
	<path id="path38" fill="#00FF00" d="M492.7,221.1c1.5-0.1,7.3,4.8,7.3,6.1c0,1.8-6.8,7.8-8.8,7.8c-2.7,0-8.2-4.7-8.2-6.9
		c0-2.1,2.5-4.6,6-6C490.4,221.6,492,221.1,492.7,221.1z"/>
	<path id="path40" fill="#D2B48C" d="M445.9,252.6c0.2,0.1-0.6,1.6-1.8,3.3c-6.3,8.8-7.9,19.6-4.1,27.1c2.1,4,4,5.2,4,2.5
		c0-2.2,1.7-1.8,3,0.6c1.5,2.8,0.7,4.5-3.2,6.9c-5.5,3.3-13.4,2.1-19.3-3.2c-2.7-2.3-4-4.8-6-11.2c-1.4-4.4-3.2-9.2-4.1-10.4
		c-0.9-1.3-1.3-2.7-0.8-3.2s7.9-3.5,16.4-6.8S445.7,252.4,445.9,252.6z"/>
	<path id="path42" fill="#00CED1" d="M452.4,256c1.6,0,1.8,0.2,0.7,0.9c-1,0.6,0.7,2,6,5.1c4.1,2.4,9.2,5.3,11.4,6.6l4,2.4h-4.7
		c-3.5,0-4.8,0.4-4.8,1.4c0,0.8,0.9,1.8,2.1,2.1c2.1,0.7,8.2,9.6,8.5,12.4c0.1,0.9,0.5,2.4,0.9,3.5c0.5,1.1,0.4,1.7-0.1,1.4
		c-0.5-0.2-4-1.9-7.9-3.7c-18.4-8.7-21.2-10.2-23.5-12.6c-3.2-3.4-2-5.3,4.4-7.5c5.2-1.7,5.1-3-0.1-3c-3.1,0-3.4-0.2-2.7-2.3
		c0.4-1.2,1.4-3.2,2.2-4.5C449.6,257,451.2,256,452.4,256z"/>
	<path id="path44" d="M402.2,263.1c2-0.1,4,0.3,4.3,0.9c0.7,1.2-1.9,1.2-5.5,0C398.8,263.3,398.9,263.2,402.2,263.1z"/>
	<path id="path46" fill="#00CED1" d="M394.3,264.2c0.9-0.1,1.7,0.2,1.7,0.7s3.8,4,8.5,7.7s8.5,7,8.5,7.4c0,0.3-0.5,1.1-1.1,1.7
		c-0.8,0.8,0,2.3,3,5.6c4,4.4,4.1,4.5,2.1,5.8c-2.1,1.4-2.1,1.4,1.4,9.1c2,4.2,3.6,8,3.6,8.3c0,0.4-2.1-0.5-4.6-2s-4.7-2.5-4.9-2.3
		c-0.1,0.1,2.1,5.5,5.1,11.8c5.6,11.7,5.9,13.4,3.9,21.2c-0.7,2.8,0.1,4,6.5,9l3.5,2.8h-5.3c-5.2,0-5.2,0-4.1,2.2
		c0.7,1.3,2.5,3.5,4.1,5c2.4,2.2,2.8,3.4,2.8,8c0,5.6,1.9,9.9,6.7,15l2.5,2.7l-3.7,1.5l-3.7,1.6l3.3,5.7c1.7,3.2,3.6,6.2,4.1,6.8
		c1.4,1.5,0.9,2.5-1.2,2.5c-3.3,0-3.4,2.7-0.5,6.2l2.8,3.3l-3.2,0.6c-1.8,0.4-3.8,1.5-4.6,2.5c-1.1,1.5-1.5,1.6-1.5,0.4
		c0-1-0.9-0.5-2.6,1.4l-2.5,2.9l-1.5-2.2c-1.7-2.4-4.1-2.7-7.9-0.9c-1.7,0.8-2.9,0.8-3.6,0.1c-0.5-0.5-1.4-5.9-1.9-11.9
		c-0.5-6.1-1.6-13-2.6-15.3c-1.4-3.6-1.5-4.9-0.5-7.7c1-2.7,0.9-3.9-0.4-7c-0.8-2-1.5-4.4-1.5-5.4c0-0.9-0.9-2.9-2-4.3s-2-3.1-2-3.8
		c0-0.7-1.4-2.8-3.1-4.5c-2.9-3-3.1-3.5-2-6.2c0.7-1.6,1.3-6.4,1.4-10.6c0.2-7.6,0.3-7.8,3.9-11.2c4.1-3.7,3-4.5-2.6-1.9
		c-4.5,2.2-5.8,4.9-6.7,14.2c-0.4,4.5-1.2,9.8-1.9,11.8c-1,2.9-1.6,3.5-4.1,3.5c-3.4,0-3.3-0.1-1.4,3.6c2,3.9,1.9,5.1-0.5,5.7
		c-1.2,0.3-2,1.4-2,2.7c0,1.8-0.3,2-1.4,1.1c-2.2-1.9-3,0.6-1.2,3.4c0.9,1.4,3.3,3.2,5.4,4c5.6,2.4,8.1,5.3,9.8,11.5
		c0.8,3,2.4,7.9,3.6,10.9c1.9,5,2,5.4,0.4,6.3c-1.5,0.8-1.1,1.4,2.7,4.3c3.6,2.8,4.4,3.9,4,5.8c-0.5,2.7,0.1,3.5,8.1,9.7
		c4.2,3.4,4.4,3.7,3.9,7.7s-0.3,4.6,3.6,8.4c2.2,2.3,4.1,4.5,4.1,4.9c0,1.5-3.8,4.1-8.2,5.5c-5.4,1.9-9.8,6.2-10.1,10
		c-0.2,2.4,0.7,3.5,4.1,5.2c0.6,0.2-4.1,5.3-5,5.3c-0.4,0-0.8-1.3-0.8-2.9v-3l-7.2,2.5c-3.9,1.3-7.5,2.4-7.9,2.4s-0.9-2.1-1.1-4.7
		c-0.3-4.1-0.7-5-3.5-6.8c-2.9-1.8-3.2-2.5-3.3-6.8c0-2.7-0.4-4.6-0.8-4.3c-0.5,0.3-2.8-3.9-5.2-9.2s-4.5-9.9-4.7-10.1
		c-0.2-0.3-1,0.4-1.8,1.5c-1.3,1.8-1.4,1.7-1.5-1.5c0-2.5-0.4-3.2-1.5-2.7c-1.2,0.4-1.5-0.4-1.5-3.8c0-3.3-0.6-4.9-2.6-7
		c-1.5-1.4-3.1-2.6-3.6-2.6c-0.4,0-0.5-1.2-0.2-2.7c0.5-1.9,0.2-3-1.1-3.9c-1.6-1.2-1.7-2.3-1.1-8.9l0.7-7.6l-2.6,0.7
		c-2.2,0.5-2.5,0.3-2.5-2.1s-0.3-2.6-2.5-2.1c-2.4,0.6-2.5,0.5-2.5-4.4c0-2.8,0.7-8.5,1.6-12.6c1.4-7.2,1.4-7.7-0.3-8.9
		c-1.6-1.2-1.6-1.8-0.4-7.6c0.7-3.5,2.3-9.5,3.6-13.4c1.6-4.8,2-7.5,1.4-8.7c-0.8-1.5-0.4-1.9,3.1-2.4c2.6-0.4,4.5-1.4,5.2-2.7
		c0.6-1.2,0.7-2.2,0.2-2.4c-3.8-1.4-3.8-2.2,0.9-7.6l4.6-5.5l-3.1-0.6c-1.7-0.3-4.2-0.6-5.7-0.6c-2.2,0-1.9-0.4,2.4-2.8
		c6.2-3.4,8-7.2,4.6-9.9l-2.3-1.8l6.2-3.5c5.5-3.1,5.9-3.6,4.1-4.4c-1.2-0.5-2.1-1.2-2-1.5c0-0.7,10.7-7.9,15.4-10.4
		c5-2.6,8.8-1.5,15.2,4.6c3.1,2.9,5.3,4.4,5.3,3.5c0-2.6-4.3-8.1-8.7-11.2c-3.7-2.5-5.3-3-12-3.3c-15.4-0.7-15.3-0.7-14.3-1.8
		c0.6-0.5,5.5-1.3,10.8-1.6C388.1,264.6,393.3,264.3,394.3,264.2z"/>
	<path id="path48" fill="#00CED1" d="M458.7,289.9l2.7,1.2c2.7,1.3,3.3,2.4,1.6,3.4c-2,1.2-0.9,6.3,2.7,12.1c2,3.2,4.9,8.3,6.6,11.2
		c3.1,5.7,3.1,5.2,1,19.5c-0.4,3,0,4.6,1.7,6.8c1.2,1.7,2.1,3.8,2.1,4.7s0,4-0.1,6.7c-0.1,2.8,0.3,7.1,1,9.5c1.2,4.7,4.9,12,6,12
		c1,0,7.1,6.2,6.6,6.7c-0.2,0.3-2.2-0.7-4.3-2.1l-3.8-2.6l-1.5,2c-1.6,2.1-1.7,2-4.8-2.4c-2.2-3.1-3.2-5.6-3.2-8.1
		c0-2.1-0.8-4.7-1.9-6.1c-1.9-2.4-1.9-2.7-0.3-7c1.4-3.8,1.5-4.8,0.3-7.7c-1.9-4.5-2.5-10.7-1.2-12c1.5-1.5,1.4-4.9-0.3-7.3
		c-0.8-1.1-2.2-4.9-3.1-8.5c-0.8-3.5-2.7-8.9-4-12c-1.4-3.1-2.7-8.7-3.1-12.8L458.7,289.9z"/>
	<path id="path50" fill="#7FFFD4" d="M453,293.4c0,0.6,2.5,9.3,5.6,19.1c3.2,9.9,5.8,19.6,5.9,21.5s0.6,10.9,1,20s1.1,17.9,1.6,19.6
		s2.5,4.5,4.3,6.2c3.8,3.5,5.6,8.9,3.5,10.3c-0.8,0.5-3.5,0.9-6,0.9c-7.2,0-16,2-20.8,4.6c-2.4,1.3-4.5,2.3-4.6,2.2
		c-1.2-1.9-4.5-8-4.5-8.3c0-0.2,1.2-0.5,2.8-0.7c2.1-0.2,2.8-0.9,3-3s-0.6-3.5-3.8-6.5c-5.6-5.1-7.2-8.5-7.5-15.8
		c-0.3-5.3-0.1-6.2,1.3-6.1s1.7-0.7,1.5-3.8c-0.4-5.3-3.1-9.5-7.7-11.9c-3.4-1.8-3.6-2.1-2-3c5.1-2.6,5.6-6.3,1.4-11
		c-3.3-3.9-3.6-5.3-1.5-8.1c1.2-1.6,1.2-2.2,0.2-2.8c-0.8-0.5-0.4-0.8,1.1-0.8c1.2,0,2.2-0.2,2.2-0.5s-1.8-4.2-4.1-8.7
		c-4.6-9.1-4.3-10.3,2.6-9.3c11,1.6,13.2,1.7,16.8,0.2c2-0.9,4.2-2.7,4.8-4.1C451.3,291.1,453,291,453,293.4z"/>
	<path id="path52" fill="#00CED1" d="M475.7,298.2c4.3,4.6,5.3,7,5.3,12.7c0,5.5,0.4,5.9,3,3.6c1.5-1.4,1.7-1,2.8,4.8
		c2.4,13.5,2.6,16.7,0.8,16.7c-4,0-0.6,13,4.7,17.9c2,1.8,2.5,3,2.1,4.8c-1,3.7,1.4,8,6.5,11.7c2.5,1.9,5.7,4.5,6.9,5.9l2.4,2.5
		l-2.7,1.8l-2.6,1.7l4.8,2.7c8.4,4.6,15.7,9.7,18.8,13c3.3,3.5,15.4,13.5,19.8,16.3c1.5,1,2.7,2.6,2.7,3.7c0,2.4-0.3,2.4-4.2,0.4
		c-4.1-2.1-7.4-1.3-15.4,3.7c-5.3,3.4-6.8,3.9-7.5,2.8c-0.5-0.8-0.9-2-0.9-2.7c0-1.6-1.1-1.5-3.5,0.2c-1.9,1.3-2.2,1-5-4.7
		c-2-4.1-6.2-9.5-13.8-17.4c-7.9-8.2-10.2-11.1-8.2-10.3c1.5,0.6,3,0.8,3.3,0.5s0-2.7-0.7-5.3c-0.8-3.2-2.6-6.1-5.7-9.3
		c-6-6.1-9.7-17.2-8.1-24.9c0.8-4.2,0.7-5.3-0.7-6.8c-2.4-2.7-3-7.5-1.6-13.1c1.1-4.5,0.9-5.8-1-11.8c-3-8.9-5.2-13.2-8.4-16.2
		c-3.2-3-3.2-3.8-0.3-6.2S472.1,294.5,475.7,298.2z"/>
	<path id="path54" fill="#1E90FF" d="M493.4,401.1l2.7,3.2l-2.2,2.3c-2.6,2.8-4.6,3.4-23.8,7.4c-7.9,1.7-14.7,3.3-15.2,3.6
		c-0.5,0.3-1.6,1.8-2.4,3.5c-1.5,2.8-1.7,2.9-9.5,2.9h-7.9l1-3c0.9-2.4,1.7-3,4.1-3c2.2,0,4-1,6.5-3.8c3.3-3.6,3.4-3.7,1.4-5
		c-1.7-1.2-1.8-1.7-0.9-3.5c0.6-1.2,1.4-2.9,1.8-3.7c0.8-1.6,3.7-2.5,17-5C482.9,393.8,487.9,394.5,493.4,401.1z"/>
	<path id="path56" fill="#1E90FF" d="M501.5,407.1l1.8,2.2c4.4,5.3,4.7,9.4,1.1,13.6c-3.2,3.8-3.8,3.9-5.4,0.2
		c-0.6-1.6-2-3.7-3.1-4.7c-2.8-2.6-2.3-4.9,1.9-8.2L501.5,407.1z"/>
	<path id="path58" fill="#D2B48C" d="M543.7,423.7c3.3,4.4,2.7,21.8-1,29.3c-1.6,3.3-3.6,5.3-7.7,7.7c-3,1.8-5.8,3.2-6.2,3.3
		c-1.5,0-2-5-0.8-8.4c1.6-4.9,0.4-6.3-2.7-3.5c-2,2-2.5,2.1-3.3,0.9c-2.2-3.5-1.1-7.6,3.8-13.2c2.6-3.1,6.3-7.7,8.2-10.4
		c1.9-2.7,4.6-5.4,6-6.1C542.1,422.2,542.7,422.3,543.7,423.7z"/>
	<path id="path60" fill="#1E90FF" d="M487,430.5c0,8.4-12.9,10.2-17,2.4c-1.6-2.8-0.3-5.7,3.3-8C479.7,421.1,487,424,487,430.5z"/>
	<path id="path62" fill="#0000CD" d="M511,424c0.3,0,3.2,2.4,6.4,5.3l6,5.3l-2.9,3.7c-2.5,3.4-2.9,3.6-4.5,2.2
		c-0.9-0.8-1.9-1.5-2.2-1.5c-1.1,0,2.4,13.4,4.8,18.5c2.4,5.3,6.7,10.4,12.1,14.5l3.2,2.5l-1,10.3c-1.8,19.4-5.4,30-18.5,54.9
		l-7.7,14.7l-1.7-8.5c-1-4.6-4.1-17.2-7-27.9c-10.9-40.2-12.1-45.5-11.7-48.6c0.4-2.5,2.3-7.5,4.5-11.7c0.2-0.4-0.3-0.7-1.1-0.7
		c-0.8,0-2.9,1.6-4.6,3.5c-2.6,2.9-3.1,4.4-3.1,8.4c0,6.9,2.4,19.8,7.5,40c7.6,30.5,13.3,64.1,12,71c-0.4,1.9-7.5,17.2-15.9,34
		c-14,28.2-27.1,57.2-33,73.1c-4.5,12.1-6.8,26.2-6.8,41.5c0,20.8,3.2,38,8.8,47.8c1.3,2.3,2.4,5.4,2.4,6.9v2.7l-3.6-1.5
		c-4.7-2-6.9-0.4-3.6,2.6c2.6,2.4,2.7,3.3,0.8,4.9c-1.1,1-2.2,0.9-4.8-0.5c-2.4-1.2-7.4-1.9-18.3-2.6c-34.7-1.9-53.9-9.2-72.3-27.1
		c-16.7-16.4-26.5-40.3-26.3-64.8c0-7.1,0.6-10.6,3.6-19.8c3.4-10.6,5.5-13.9,5.5-8.7c0,3.2,1.6,4.2,2.9,1.7c1-1.7,2.1-1.9,10.8-1.8
		c12,0.1,16.7-1.5,30.3-10.7c5.2-3.5,9.7-6.2,9.9-6c0.8,0.8-5.5,8.8-10.2,12.9c-2.7,2.3-7.5,5.5-10.8,7.1c-3.2,1.6-5.9,3.1-5.9,3.4
		c0,1.6,8.1-0.7,13.3-3.8c9.3-5.4,13.1-9.5,20.7-22.1c13.7-22.4,32.7-47.2,45.9-59.6c4.6-4.4,11.2-10.6,14.5-13.8
		c5.2-5,6.2-5.6,7.2-4.3c1.6,2.3,3.3,2,4-0.8c0.9-3.7-6.6-17.3-14.3-25.8c-7.9-8.8-13.2-15.6-20.8-26.8
		c-6.3-9.2-15.5-26.7-15.5-29.5c0-0.9,2.8-4.7,6.1-8.4c11.1-12.2,14.6-22.4,9.8-28.5c-1.1-1.4-1.9-2.6-1.7-2.6
		c18.4-1.7,26.3-1.8,28.9-0.5c3.6,1.9,7.7,1.9,12.1,0.1c1.9-0.8,6.4-2.2,10.1-3c3.7-0.9,8.5-2.5,10.7-3.6c3.7-1.9,7-6.2,7-9.2
		c0-0.6,1.7-2.9,3.7-5C508.7,425.7,510.7,424,511,424z M415.3,654c-3.6,0.2-8.5,8.2-6.3,10.4c1.6,1.5,7-4.6,7-7.9
		C416,655.1,415.7,654,415.3,654z M398.6,673.7c-4.3,3.3-4.7,3.8-3,4.6c1.2,0.5,3.1,0.4,4.6-0.2c3-1.1,6.3-5.5,5.3-7.1
		C404.6,669.5,403.9,669.7,398.6,673.7z"/>
	<path id="path64" fill="#1E90FF" d="M424.5,427.7l13.9,0.6c15.5,0.6,17.6,1.5,19.6,8.6c1.7,6.3,2.1,6.1-11.2,6.1
		c-13.4,0-18.3-0.9-21.6-4c-2.9-2.7-2.8-4.4,0.4-5.9c2.6-1.2,2.6-1.2,0.8-3.3L424.5,427.7z"/>
	<path id="path66" fill="#D2B48C" d="M431.1,455c1,0.6,1.9,2,1.9,3.1c0,3.7-8.3,17.9-10.4,17.9c-0.6,0-3-3.3-5.2-7.4l-4.2-7.5
		l5.1-3.5C423.5,453.9,427.5,453.1,431.1,455z"/>
	<path id="path68" fill="#4169E1" d="M485.6,625.3c0.2,0.1-1.1,6.8-2.8,14.7c-2.8,13.2-3.1,16.1-3.1,33.5l-0.1,19l4.7,17.5
		c6,22.8,11.5,39.3,16.6,50.5l4.2,9l-3.6-3.5c-5.3-5.1-14.7-19.5-17.8-27.3c-1.5-3.7-3.2-9.6-3.9-13.2c-1.7-9-3.2-8.3-2.4,1.2
		c1.9,21.1,15.8,43,40.3,63.4c4.6,3.9,8.8,8.2,9.3,9.5c0.8,1.9,0.3,4.1-1.7,9.2l-2.8,6.7l-0.6-5.2c-0.8-6.5-3.1-9.7-9.4-12.8
		c-13.3-6.6-41-5.4-56.7,2.5l-5.8,2.9l6.4-7.5c3.5-4.1,6.6-8.7,6.9-10.2s-0.3-5-1.3-7.7c-6.8-18.2-8.2-22.8-9.6-30.9
		c-2.4-13.3-1.4-26.6,3.1-44.1c5.6-22,13-42.6,21.7-60.8C481.7,632.5,485.4,625.1,485.6,625.3z"/>
	<path id="path70" fill="#8B008B" d="M376,784.7c0.2,6.4,5.4,20.8,9.2,25.3c4,4.7,10.8,9.2,16.6,11c7.7,2.4,25.2,2.7,34.9,0.7
		c4.1-0.9,6-1,5.6-0.3c-0.4,0.6-3.5,4.8-7,9.3l-6.3,8.1l-6.6,0.7c-3.5,0.4-12,0.5-18.7,0.3c-9.9-0.4-13-0.8-16.3-2.6
		c-11.1-5.7-22.4-25.8-22.4-39.8c0-3.9,2.8-9.9,5.8-12.2C372.5,783.9,376,783.6,376,784.7z"/>
	<path id="path72" fill="#9400D3" d="M387.4,788c8,2.7,15.1,3.9,31.1,5c9.9,0.7,14.4,1.5,15.4,2.5c1.4,1.3,0.5,1.5-7.5,1.5
		c-13.7,0-25.1,1.7-31.4,4.7c-3,1.5-5.9,2.7-6.3,2.7c-0.8,0.1-7.7-15.8-7.7-17.6C381,785.7,380.8,785.7,387.4,788z"/>
	<path id="path74" fill="#9400D3" d="M491.5,798.4c8.5,0.3,12.3,0.8,16.8,2.5c6.5,2.6,7.7,4.2,7.7,10.5c0,5.6,2,5.1-31.6,6.7
		c-18.7,0.8-26.1,0.8-29.2-0.1c-4.2-1.1-4.3-1.1-3.6-4.8c0.7-4,3.5-7.7,7.4-9.7c2.2-1.1,12.1-3.6,19-4.9
		C479.4,798.4,485.5,798.3,491.5,798.4z"/>
	<path id="path76" fill="#9400D3" d="M435.2,803c4.6,1.3,9.8,5.5,9.8,8c0,2.9-2.3,4-14.3,6.6l-11.4,2.6l-12.4-3.7
		c-13.2-3.9-15.1-4.8-14.2-7c0.5-1.6,9.5-5.2,15.8-6.5C414.4,801.8,430.9,801.9,435.2,803z"/>
	<path id="path78" fill="#8B008B" d="M507.8,822.2c5.3-0.2,6.2,0.1,6.2,1.5c0,2.9-3.7,8.2-7.2,10.3c-3.1,1.8-5.1,2-27.4,2
		c-17.7,0-24.4-0.3-25.6-1.3c-0.9-0.6-2.1-3.3-2.6-6l-1-4.7l3.7-0.1c2-0.1,13.5-0.5,25.6-0.8C491.6,822.7,504.3,822.3,507.8,822.2z"
		/>
	<path d="M448.1,1.5c23.4,3.5,37.1,10.9,58,31.3c12.6,12.2,15.5,14.6,20.8,16.7c12.4,4.8,25.6,16.5,31.8,28.1
		c4.5,8.3,8.9,22.3,10.4,32.4c2.3,16.4,0.6,44.1-7.1,114c-6.1,55.2-6.4,59.3-6.5,79c0,20.1,0.8,25.5,5.6,38.1
		c3.5,9.1,7.2,13,12.4,13.2c6.3,0.2,7.6-5.1,2-8.4c-4-2.4-4.1-2.7-1.7-4.5c4.5-3.4,11.3,0.1,15.5,8c1.6,3.1,2.1,5.9,2.2,11.6
		c0,9.6-3.5,17.3-10.1,22.4l-4.5,3.4l2.8,2.7c3.6,3.5,10,6.5,13.9,6.5c2.4,0,4-0.9,6.4-3.6c3.9-4.5,5.2-3.6,5.8,4
		c1.2,14.4-8.4,25.8-32.8,38.9c-4.7,2.5-11.6,5.4-15.5,6.4l-7,1.8l-3.8,11.4c-2.8,8.2-4.1,14.1-4.7,21.5c-1,11.4-6.6,37.8-10.2,47.6
		c-2.7,7.3-15.3,29.2-19.8,34.3c-4.2,4.8-5,7.5-3.8,13.3c1.2,6,0,11.1-5.7,24.7c-5.3,12.8-8,24.7-11,48.7
		c-2.7,21.9-2.8,26.7-0.4,43.5c1.6,10.9,9.3,39.8,14.4,54.1c7.9,21.9,13.2,31.7,22.4,41.9c4.5,5,8.4,10.1,8.8,11.3
		c0.6,2.6-2.7,16.1-5.7,22.9c-1.4,3.3-2.9,4.7-6.4,6.3c-3.8,1.8-4.8,2.9-6.2,6.8c-0.9,2.6-2.1,6-2.7,7.5c-1.9,5.3-3.9,5.8-28.5,7.4
		c-29.1,1.8-35.2,1.6-38.8-1.7c-1.5-1.4-3.3-3.9-4-5.7l-1.4-3.2l-4.3,4.6c-3.9,4.1-5.1,4.7-12.8,6.4c-4.6,1.1-13.2,2.2-19,2.6
		c-23.3,1.3-34.3-4.4-46.2-23.9c-7.8-12.9-10.2-29.8-5.3-37.1l2.4-3.5l-3.1-0.6c-2-0.4-5.4-3.1-10.3-8.3l-7.3-7.6l3.5-3.9
		c2.3-2.6,3.2-4.3,2.6-5.1c-0.5-0.7-2.9-3.8-5.5-7c-14.9-18.6-20.6-36.7-19.5-62.1c0.5-10.4,1.1-13.7,4.2-22.9
		c3.9-11.8,5.8-15.3,8.7-16.2c1.2-0.4,5,0.6,9.4,2.4c9.8,4.1,15.3,4.1,23.1,0c7.2-3.7,37.6-24.6,38.8-26.6
		c1.1-2,31.3-39.6,35.7-44.6c1.9-2.1,7.2-6.4,11.9-9.5c9.2-6.2,11.7-9.3,10.6-13.5c-0.3-1.5-7.7-10.4-16.4-19.8
		c-8.6-9.5-17.1-19.3-18.9-21.9c-3.4-5.1-7.7-14.7-10-22.3c-1.1-3.9-1.8-4.7-3.1-4.2c-3.3,1.4-37.7,1.8-46.3,0.6
		c-24-3.6-45.1-13.7-61.9-29.7l-7.4-7.2l10.4,0.2c8.9,0.1,10.9-0.2,13.4-1.9c1.6-1,2.5-2,2-2.2c-0.5-0.1-6.2-0.9-12.7-1.7
		c-7.9-0.9-12.2-1.9-13-2.9c-0.8-0.9-3.9-1.7-8.7-2.2c-13.8-1.2-26-7-33.5-15.8c-4.1-4.7-4.4-6.2-1.2-5.3c4.5,1.2,15.5,1.8,17.1,0.9
		c1.3-0.7,0.3-1.6-5.2-4.5c-9.1-5-13.6-9.7-18.3-19.4c-4.4-9-4.8-12.9-2-18.9c3.3-7.2,8.4-9.6,14-6.5c1.8,0.9,5.1,5.8,5.1,7.5
		c0,0.3-2,0.5-4.5,0.5c-3.8,0-4.5,0.3-4.5,2c0,2.8,3.2,5.7,7.7,6.9c12.7,3.4,24.8-8.3,31-29.9c2.6-9.4,2.6-65.8,0-86.5
		c-2.7-21.5-7.7-83.4-7.7-95.9s1.2-21,7.1-50.5c3.7-18.3,4-20.8,2.9-24.2c-1.8-5.3-0.7-13.2,3.6-25.9c4.3-13,8.5-20.8,17.6-32.7
		c13.6-18.1,33.2-31.7,56.2-39.2C384.6,3.5,386.8,3,400,1.5C414.8-0.3,436.7-0.3,448.1,1.5z M420.5,12.5c-14.7-0.3-15.2-0.3-5.7,0.5
		c27.4,2.3,48.6,13,60.4,30.3l4.1,6l8.1-0.7c4.4-0.3,10.2-0.9,12.8-1.2l4.7-0.6l-1.3-2.7c-2.6-4.9-12.2-12.9-20.5-17.1
		c-10.5-5.2-26-10.4-37.6-12.5C440.6,13.6,429.3,12.7,420.5,12.5z M372.3,20.5c-15.2,6.2-34.4,18.4-43.5,27.7
		c-7.2,7.2-15.8,18.7-19.1,25.4c-2.9,5.7-5.2,14.3-6,22.1l-0.6,5.2l6.2,0.5c3.4,0.3,10.6,0.7,16.1,0.9c11.7,0.5,11.2,0.9,18.1-11.9
		c3.3-6.1,6.9-11,11.6-15.6c7.2-7.1,11.6-10.4,12.6-9.5c0.3,0.4-2.3,5.7-5.7,11.9c-9.3,16.8-12.5,27.8-8.2,27.8
		c4,0,26.1-3.2,32.2-4.6c8.7-2.1,25-10.1,33-16.2c3.6-2.7,10.2-8.4,14.8-12.6c4.5-4.2,8.7-7.6,9.2-7.6c2.1,0,0.8,3.4-4.7,11.8
		c-3.2,4.8-6.2,9.4-6.6,10.2c-0.5,0.8,3.9-3.5,9.8-9.5l10.6-11l-0.6,5.5c-0.6,5.3-0.6,5.4,1.3,3.7c1-0.9,3.6-4.9,5.7-8.8
		c3.6-6.5,7.4-10.8,12.1-13.5c1.7-1,1.6-1.5-2.5-7.8c-2.4-3.7-6.4-8.5-8.9-10.7c-9-7.9-24.4-13.6-42.5-15.9
		c-6.3-0.7-11-0.6-20.2,0.5c-14.8,1.9-14.8,1.9-14.1,0C383.2,16.3,381.5,16.7,372.3,20.5z M490.1,53.7c-1.9,0.4-0.9,1.3,6,5.1
		c19.8,11.1,31.9,29.3,31.9,47.9c0,6.2-1.1,4.8-4.9-6.1c-6.3-17.9-12-25.7-25.2-34.2c-15.7-10.2-29-11-33.3-2
		c-2.2,4.6-2.1,5.5,1.4,18c3.6,12.7,13.7,36,33.2,76.6c13.9,28.9,16.6,37.9,18.7,62.5c2.6,29.2,0.6,41.7-12.3,76
		c-4.1,11.1-6.4,15.7-8.7,18c-2.4,2.3-3,2.5-2.4,1c7.9-21.3,15.6-49.7,17.5-64.5c1.1-8.1,0.6-38.9-0.5-37.8
		c-0.2,0.2-1.3,5.1-2.5,10.8c-3.9,19.4-7.3,27.3-15.8,36.2c-3,3.2-5.7,5.6-5.9,5.4c-0.3-0.3,1.3-3.5,3.5-7.3
		c5.3-9.1,9.8-18.2,10.5-21.4l0.7-2.7l-3.7,1.9c-6.8,3.5-13.5,2-18.6-4.1l-2.6-3.1l-9.3,7.8c-5.1,4.3-10.5,8.8-12,10
		c-3.3,2.5-3.5,3.3-0.8,3.3c1.1,0,3.6,0.7,5.5,1.5c2.6,1,3.7,2.2,4.1,4.4c0.5,2.6,2.1,3.9,10.3,8.5c5.3,3.1,10.6,6.3,11.6,7.1
		c2,1.5,1.9,1.5-0.8,4c-1.5,1.4-4,2.5-5.5,2.5c-2.4,0-2.2,0.3,2,2.7c3.1,1.7,5.1,3.6,5.8,5.6c2,5.9,1.3,6.5-4.3,4.2
		c-1.3-0.6-0.8,1.1,2.2,7.6c2.2,4.6,5.1,12.6,6.5,17.8c2.4,9.1,2.4,9.3,0.5,9.8c-1,0.3-1.9,0.7-1.9,1s2.5,3.3,5.5,6.6
		c5.2,5.9,5.4,6.2,3.2,6.9c-1.2,0.3-3.7,0.6-5.4,0.7c-1.8,0.1-3.3,0.4-3.3,0.7c0,0.4,2.9,4,6.5,8c6.2,6.9,6.5,7.3,4.5,8.4
		c-1.1,0.6-2,1.7-2,2.5c0,0.7,4.3,5.3,9.5,10.2c8.2,7.5,9.3,8.9,8,9.9s-0.2,1.9,7,5.8c7.1,3.9,8.5,5.1,8.5,7.1
		c0,1.9,0.7,2.6,2.8,3.1c4.3,1,7.2,3.3,7.2,5.7c0,1.6,1.1,2.7,4.1,4.1c10.3,5,12.6,12,6.4,19.4c-5.1,6.1-2.7,6.6,9.9,2.3
		c15.1-5.1,30.7-15.5,34.5-22.9l1.9-3.8l-6.4,0.4c-5.9,0.4-7.2,0.1-13.9-3.2c-11.5-5.7-21.1-17.3-25.5-30.9
		c-1.8-5.8-0.7-5.4,3.4,1.3c4,6.4,8.3,9.5,12.1,8.6c3.3-0.8,12.6-9.5,14.1-13.3c0.8-1.8,1.4-4.9,1.4-7v-3.8l-2,2.9
		c-3.5,5.4-12.1,8.2-17,5.6c-2.8-1.5-11.6-13.9-15-21.1c-4.8-10.4-5.3-15.2-4.6-48.9c0.5-30.4,1.6-44.3,5.5-70
		c2.5-17.4,3.8-33.5,5.2-65c1.7-40.4,0.2-51.8-9.2-70.3c-9.6-18.7-23.4-29.8-41.5-33.2C498.9,53,494.8,52.8,490.1,53.7z M457.6,77.6
		c-0.1-0.5-2.8,3.2-6,8.2c-3.2,5.1-6.2,9.2-6.7,9.2c-1.1,0-1.1-4,0-9.8c0.5-2.3,0.6-4.2,0.4-4.2s-3.4,2.4-7.1,5.3
		c-8.5,6.8-14.4,10.8-20.7,13.9c-10,5.1-10.5,4.5-3-3.2l7-7.2l-6.6,4.6c-12.2,8.4-25.7,13.2-44.1,15.6c-4.8,0.7-11.7,1-15.3,0.8
		c-6.7-0.3-7.4-0.1-5.3,2c0.9,0.9,0.7,1.6-0.7,3.2c-1,1.1-2.4,2-3,2c-0.7,0-4.2-2.3-7.8-5.1c-9.7-7.5-15.9-8.3-21.7-2.9
		c-3.7,3.5-3.8,6.5-0.5,13c2.9,5.6,3.9,6.5,2.3,1.9c-1.8-5.2,0.5-5.7,3.9-0.7c2.8,4.2,3,4.3,8.4,4.3c6.3,0.1,9.8,2.1,15.3,8.9
		c5.9,7.1,8.3,13.8,10.1,27.5c1.8,13.5,1.6,14.1-3.6,14.1c-5.6,0-21.7-6.9-25.3-10.9c-1.1-1.2-2.2-2.1-2.6-2.1c-1.1,0-3.4,16-3.5,24
		c0,6.5,0.4,8.4,3.2,14c6.8,13.7,33.3,45,42.9,50.6c6.7,3.9,19.3,5.2,31.4,3.1c18.9-3.2,41.1-11,56.5-19.8
		c12-6.9,23.2-15.4,27.3-20.8c3.1-4.1,3.2-4.6,1.7-5.7c-2.2-1.7-1.5-4.7,2.5-10.2c3.5-4.8,5.1-5.2,8.6-1.7c3.4,3.4,4.9,3.2,8-1.5
		c3.9-5.9,3.1-9.5-7.6-32c-5.1-10.7-9.4-19.7-9.6-19.9c-0.5-0.6-13.7,5.9-15.7,7.7c-1.1,0.9-3.4,4.7-5.2,8.3
		c-5.3,10.4-13.2,16.4-25.7,19.4c-8.8,2.1-45.1,3.3-47.3,1.5c-2.3-1.9-1.8-5.4,1.6-12.3c11-21.8,24.8-34,44.1-38.9
		c5.4-1.3,9.5-3.1,11.7-4.9c1.9-1.6,3.7-2.7,3.9-2.5c0.2,0.2-0.4,1.8-1.3,3.6c-0.9,1.8-1.4,3.4-1.2,3.6c0.2,0.3,3.2-1.1,6.5-3.1
		c3.3-1.9,6.3-3.5,6.6-3.5c0.3,0-0.7,2.1-2.3,4.7c-1.7,2.6-2.8,4.9-2.7,5.1c0.2,0.1,3-0.9,6.2-2.3c8.2-3.6,10-2.5,4.4,2.6
		c-2.5,2.3-3.6,3.8-2.5,3.4c1.1-0.4,3.6-1.2,5.5-1.7c4.8-1.3,5.2-1.9,3.9-5.6c-1.6-4.7-18.6-19.6-24.6-21.6
		c-9.3-3.2-23.5-1.2-38.8,5.3c-3.8,1.7-8.1,3.1-9.4,3.1c-2.1,0-2.3-0.3-1.7-3.3c0.9-4.9,5.2-8.1,14.3-10.5
		c24.2-6.6,36.7-4.9,48.7,6.6l4.8,4.7l-1.9-4c-1.1-2.2-3.9-10.5-6.2-18.5S457.8,78.1,457.6,77.6z M348.6,92.2
		c-0.4-0.3-5.1,6.9-5.9,9.1s0.6,5.2,2.8,6.1c1.2,0.4,1.4,0,1-1.7c-0.3-1.2,0.1-4.7,0.9-7.7C348.2,95,348.7,92.4,348.6,92.2z
		 M308.8,115.7c-0.3-8-0.3-8.1-2-5.7c-2.9,4.4-5.7,15.1-7.8,30.4c-4,28.9-2.5,81.5,3.6,128.6c0.8,6.3,1.9,25.4,2.5,42.4
		c1.1,35.2,0.5,41.2-5.5,58c-5.7,16-9.8,21.4-20.3,26.6c-9.5,4.8-18.4,3.2-25.2-4.6c-3.7-4.1-4.3-4.2-3.5-0.7
		c2.3,9.9,8.6,17.8,17.2,21.6c15.5,7,29.2,3.1,38.8-10.9c2.3-3.4,4.4-6.8,4.6-7.5c0.3-0.8,0.9-1.1,1.3-0.7c0.5,0.4-0.9,4.2-3,8.4
		c-6.8,14-20.9,25.1-36.2,28.6c-2.9,0.7-5.3,1.6-5.3,1.9c0,0.4,3.5,1.6,7.8,2.8c19.3,5.2,37.2,0.9,54.9-13.1
		c6.9-5.5,7.4-5.7,5.7-2.7c-2.8,4.9-12.4,14.8-19.3,19.9c-3.3,2.5-6,4.8-6.1,5.1c0,0.9,10.5-0.8,15.9-2.6c6.1-2,15.4-8,20-12.9
		c3.9-4,5.1-4.5,5.1-1.8c0,8.6-11,22.3-22.8,28.5c-3.7,1.9-9.5,4.1-13,4.8c-7.3,1.5-7.2,1.8,4,7.5c13.6,6.9,28.3,11.2,47.1,13.9
		c19.1,2.7,42.7,1.4,42.7-2.4c0-2.9-1-3-4.5-0.9l-3.4,2l-0.7-2.6c-0.3-1.4-0.9-2.6-1.3-2.6s-2.6,1.4-4.9,3.1l-4.1,3l-0.7-2.5
		c-0.7-3.1-0.6-3.1-4.6-0.6c-3.3,2-6.8,2.6-6.8,1.2c0-0.4,0.7-3.2,1.5-6.2c1.6-5.9,1.5-6.9-0.5-4.5c-2.1,2.6-3,1.7-3-3
		c0-5-0.4-5.3-3.3-2.7c-1.9,1.7-1.9,1.6-1.4-4.8c0.3-3.6,0.9-7.6,1.2-9c0.5-1.8,0-3.4-1.5-5.3l-2.2-2.8l-2.3,2.1l-2.3,2.1l-0.9-3.8
		c-0.7-2.9-1.4-3.8-3-3.8c-3.1,0-3.3-0.6-2.3-6.7c0.5-3.6,0.5-7-0.1-9.3l-1-3.6l-3,2.1l-2.9,2.1v-4.5c0-4.3-0.2-4.6-2.6-4.6
		c-2.1,0-2.5-0.3-1.9-1.8c3.5-8.6,3.8-10.3,2.1-13.8c-1.4-3-1.9-3.3-3.5-2.4c-2.8,1.5-2.8,1.4-5.4-3.7l-2.4-4.6l1.9-8.6
		c1-4.7,2-9.6,2.3-10.9c0.4-1.7,0.1-2.2-1.5-2.2c-1.1,0-2-0.6-2-1.4s2-7.7,4.5-15.4s4.5-14.4,4.5-14.9c0-0.6-1.8-1.8-4-2.8
		c-4.6-2.1-4.4-2.9,0.8-4.5c5.6-1.8,6-2.8,1.8-4.5c-2-0.9-3.5-1.9-3.2-2.4c0.3-0.4,3.1-1.3,6.3-2c3.2-0.8,6.2-1.6,6.6-1.8
		c0.5-0.3-1.1-1.9-3.5-3.7c-2.5-1.7-4.6-3.6-4.7-4.1c-0.2-0.6,1.8-2.1,4.5-3.5c5.6-3,7.4-5.2,5.8-7.7c-1.1-1.7-2.5-2.6-5.9-3.9
		c-2-0.7-0.9-1.1,8.4-3c2.3-0.5,2.3-0.6,0.5-1.9c-1.9-1.5-1.8-1.5,0.1-3.1c1.1-0.8,3.8-2.5,6-3.6c4.2-2.2,8.5-5.6,8.5-6.9
		c0-0.5-4.4-1-9.7-1.1c-5.8-0.2-9.8-0.7-10-1.4c-0.2-0.6,2.4-3,5.7-5.3s6-4.5,6-4.9s-2.6-2.5-5.8-4.7c-7.8-5.4-22.8-20.1-30.4-29.7
		c-3.4-4.4-6.4-7.5-6.6-7c-0.2,0.6,0.9,6.1,2.3,12.4c9.7,42,11.3,61.8,6.9,83.3c-1.8,9-2.1,9.6-3.7,9c-1-0.5-1.1-2.1-0.4-8.3
		c0.5-4.2,0.6-15.4,0.3-24.7c-0.4-14-0.9-18.6-3-26c-1.4-5.1-3.8-19.6-5.5-33.5c-5-40.4-5.5-47.1-4.1-59.3c2.3-19.6,0-30.4-7.4-36.1
		c-4.4-3.3-5.4-6.7-3.2-10.1C308.7,124.5,309,122,308.8,115.7z M482.3,139.3l-1.8-2.2l-4,3.5l-4,3.5l5.5-0.3c3-0.1,6.1,0.1,6.8,0.6
		c1.1,0.7,1.2,0.5,0.3-1C484.5,142.3,483.3,140.5,482.3,139.3z M326.8,139c-2.7,0-2.6,15.6,0.2,20.9c3.1,6.2,12.3,11.8,23.3,14.5
		c2.3,0.5,2.7,0.3,2.7-1.4s-0.7-2-4.7-2c-5.9,0-12.1-3-16.7-8c-4.4-4.9-5.8-9.8-5-17.8C327,141.8,327.1,139,326.8,139z M450.2,144
		c-0.4,0-0.7,3.6-0.7,8.1c0,8,0,8.1-3.6,11.4c-2.5,2.2-5.5,3.7-9.2,4.5c-5.2,1.2-5.9,1.1-10.4-1.1c-3-1.5-6.1-4.2-8.3-7.2
		c-4.1-5.5-5-4.7-2.2,1.7c3,6.6,8.8,10.1,16.6,10c10.4-0.1,18.9-6.4,21.6-15.9c1.3-4.6,0.8-7.6-1.6-10
		C451.5,144.7,450.6,144,450.2,144z M461.6,149.4l-1.5-2.9L460,151c-0.1,9.5-8.2,20.5-17.2,23.2c-2.4,0.7-7.7,1.3-11.8,1.3
		c-6.2,0-8.2-0.4-11.4-2.4c-4.2-2.6-9.6-10.3-9.6-13.6c0-4.1-1.3-3.4-5.7,2.8c-5.2,7.3-6.8,10.1-7.7,14.1l-0.7,2.9l16.8-0.6
		c17.7-0.6,31.1-2.5,36.2-5.2c6.7-3.4,12.3-10.8,13.6-17.7C463,153.4,462.7,151.3,461.6,149.4z M338.3,161l-3.8-2.2l3.7,3.6
		c2,1.9,4.8,3.8,6.3,4.2c3.7,0.9,7.5-0.3,7.5-2.5c0-1.6-0.6-1.7-4.9-1.3C343.2,163.1,341.3,162.8,338.3,161z M490.6,205.6
		c-0.9,2.3-0.7,7.7,0.3,9.2c1.1,1.9,2.1-0.8,2.1-5.8C493,204.9,491.6,202.9,490.6,205.6z M505.3,205c-1.2,0-7.3,8.7-7.3,10.3
		c0.1,0.7,1.6,3,3.5,5.1l3.5,3.9v-4.4c0-2.4,0.3-6.8,0.6-9.7C506,207.2,505.9,205,505.3,205z M489,222.1c-3.5,1.4-6,3.9-6,6
		c0,2.2,5.5,6.9,8.2,6.9c2,0,8.8-6,8.8-7.8c0-0.6-1.4-2.2-3.1-3.6C493.6,220.8,492.8,220.6,489,222.1z M445.9,252.6
		c-0.5-0.5-31.2,11.3-32.3,12.4c-0.5,0.5-0.1,1.9,0.8,3.2c0.9,1.2,2.7,6,4.1,10.4c2,6.4,3.3,8.9,6,11.2c5.9,5.3,13.8,6.5,19.3,3.2
		c3.9-2.4,4.7-4.1,3.2-6.9c-1.3-2.4-3-2.8-3-0.6c0,2.7-1.9,1.5-4-2.5c-3.8-7.5-2.2-18.3,4.1-27.1
		C445.3,254.2,446.1,252.7,445.9,252.6z M452.4,256c-2.2,0-4.5,2.7-5.8,6.7c-0.7,2.1-0.4,2.3,2.7,2.3c5.2,0,5.3,1.3,0.1,3
		c-6.4,2.2-7.6,4.1-4.4,7.5c2.3,2.4,5.1,3.9,23.5,12.6c3.9,1.8,7.4,3.5,7.9,3.7c0.5,0.3,0.6-0.3,0.1-1.4c-0.4-1.1-0.8-2.6-0.9-3.5
		c-0.3-2.8-6.4-11.7-8.5-12.4c-1.2-0.3-2.1-1.3-2.1-2.1c0-1,1.3-1.4,4.8-1.4h4.7l-4-2.4c-2.2-1.3-7.3-4.2-11.4-6.6
		c-5.3-3.1-7-4.5-6-5.1C454.2,256.2,454,256,452.4,256z M402.2,263.1c-3.3,0.1-3.4,0.2-1.2,0.9c3.6,1.2,6.2,1.2,5.5,0
		C406.2,263.4,404.2,263,402.2,263.1z M394.3,264.2c-1,0.1-6.2,0.4-11.5,0.7c-5.3,0.3-10.2,1.1-10.8,1.6c-1,1.1-1.1,1.1,14.3,1.8
		c6.7,0.3,8.3,0.8,12,3.3c4.4,3.1,8.7,8.6,8.7,11.2c0,0.9-2.2-0.6-5.3-3.5c-6.4-6.1-10.2-7.2-15.2-4.6c-4.7,2.5-15.4,9.7-15.4,10.4
		c-0.1,0.3,0.8,1,2,1.5c1.8,0.8,1.4,1.3-4.1,4.4l-6.2,3.5l2.3,1.8c3.4,2.7,1.6,6.5-4.6,9.9c-4.3,2.4-4.6,2.8-2.4,2.8
		c1.5,0,4,0.3,5.7,0.6l3.1,0.6l-4.6,5.5c-4.7,5.4-4.7,6.2-0.9,7.6c0.5,0.2,0.4,1.2-0.2,2.4c-0.7,1.3-2.6,2.3-5.2,2.7
		c-3.5,0.5-3.9,0.9-3.1,2.4c0.6,1.2,0.2,3.9-1.4,8.7c-1.3,3.9-2.9,9.9-3.6,13.4c-1.2,5.8-1.2,6.4,0.4,7.6c1.7,1.2,1.7,1.7,0.3,8.9
		c-0.9,4.1-1.6,9.8-1.6,12.6c0,4.9,0.1,5,2.5,4.4c2.2-0.5,2.5-0.3,2.5,2.1s0.3,2.6,2.5,2.1l2.6-0.7l-0.7,7.6
		c-0.6,6.6-0.5,7.7,1.1,8.9c1.3,0.9,1.6,2,1.1,3.9c-0.3,1.5-0.2,2.7,0.2,2.7c0.5,0,2.1,1.2,3.6,2.6c2,2.1,2.6,3.7,2.6,7
		c0,3.4,0.3,4.2,1.5,3.8c1.1-0.5,1.5,0.2,1.5,2.7c0.1,3.2,0.2,3.3,1.5,1.5c0.8-1.1,1.6-1.8,1.8-1.5c0.2,0.2,2.3,4.8,4.7,10.1
		s4.7,9.5,5.2,9.2c0.4-0.3,0.8,1.6,0.8,4.3c0.1,4.3,0.4,5,3.3,6.8c2.8,1.8,3.2,2.7,3.5,6.8c0.2,2.6,0.7,4.7,1.1,4.7s4-1.1,7.9-2.4
		l7.2-2.5v3c0,1.6,0.4,2.9,0.8,2.9c0.9,0,5.6-5.1,5-5.3c-3.4-1.7-4.3-2.8-4.1-5.2c0.3-3.8,4.7-8.1,10.1-10c4.4-1.4,8.2-4,8.2-5.5
		c0-0.4-1.9-2.6-4.1-4.9c-3.9-3.8-4.1-4.4-3.6-8.4s0.3-4.3-3.9-7.7c-8-6.2-8.6-7-8.1-9.7c0.4-1.9-0.4-3-4-5.8
		c-3.8-2.9-4.2-3.5-2.7-4.3c1.6-0.9,1.5-1.3-0.4-6.3c-1.2-3-2.8-7.9-3.6-10.9c-1.7-6.2-4.2-9.1-9.8-11.5c-2.1-0.8-4.5-2.6-5.4-4
		c-1.8-2.8-1-5.3,1.2-3.4c1.1,0.9,1.4,0.7,1.4-1.1c0-1.3,0.8-2.4,2-2.7c2.4-0.6,2.5-1.8,0.5-5.7c-1.9-3.7-2-3.6,1.4-3.6
		c2.5,0,3.1-0.6,4.1-3.5c0.7-2,1.5-7.3,1.9-11.8c0.9-9.3,2.2-12,6.7-14.2c5.6-2.6,6.7-1.8,2.6,1.9c-3.6,3.4-3.7,3.6-3.9,11.2
		c-0.1,4.2-0.7,9-1.4,10.6c-1.1,2.7-0.9,3.2,2,6.2c1.7,1.7,3.1,3.8,3.1,4.5s0.9,2.4,2,3.8s2,3.4,2,4.3c0,1,0.7,3.4,1.5,5.4
		c1.3,3.1,1.4,4.3,0.4,7c-1,2.8-0.9,4.1,0.5,7.7c1,2.3,2.1,9.2,2.6,15.3c0.5,6,1.4,11.4,1.9,11.9c0.7,0.7,1.9,0.7,3.6-0.1
		c3.8-1.8,6.2-1.5,7.9,0.9l1.5,2.2l2.5-2.9c1.7-1.9,2.6-2.4,2.6-1.4c0,1.2,0.4,1.1,1.5-0.4c0.8-1,2.8-2.1,4.6-2.5l3.2-0.6l-2.8-3.3
		c-2.9-3.5-2.8-6.2,0.5-6.2c2.1,0,2.6-1,1.2-2.5c-0.5-0.6-2.4-3.6-4.1-6.8l-3.3-5.7l3.7-1.6l3.7-1.5l-2.5-2.7
		c-4.8-5.1-6.7-9.4-6.7-15c0-4.6-0.4-5.8-2.8-8c-1.6-1.5-3.4-3.7-4.1-5c-1.1-2.2-1.1-2.2,4.1-2.2h5.3l-3.5-2.8c-6.4-5-7.2-6.2-6.5-9
		c2-7.8,1.7-9.5-3.9-21.2c-3-6.3-5.2-11.7-5.1-11.8c0.2-0.2,2.4,0.8,4.9,2.3s4.6,2.4,4.6,2c0-0.3-1.6-4.1-3.6-8.3
		c-3.5-7.7-3.5-7.7-1.4-9.1c2-1.3,1.9-1.4-2.1-5.8c-3-3.3-3.8-4.8-3-5.6c0.6-0.6,1.1-1.4,1.1-1.7c0-0.4-3.8-3.7-8.5-7.4
		c-4.7-3.7-8.5-7.2-8.5-7.7S395.2,264.1,394.3,264.2z M461.4,291.1l-2.7-1.2l0.7,7.2c0.4,4.1,1.7,9.7,3.1,12.8c1.3,3.1,3.2,8.5,4,12
		c0.9,3.6,2.3,7.4,3.1,8.5c1.7,2.4,1.8,5.8,0.3,7.3c-1.3,1.3-0.7,7.5,1.2,12c1.2,2.9,1.1,3.9-0.3,7.7c-1.6,4.3-1.6,4.6,0.3,7
		c1.1,1.4,1.9,4,1.9,6.1c0,2.5,1,5,3.2,8.1c3.1,4.4,3.2,4.5,4.8,2.4l1.5-2l3.8,2.6c2.1,1.4,4.1,2.4,4.3,2.1c0.5-0.5-5.6-6.7-6.6-6.7
		c-1.1,0-4.8-7.3-6-12c-0.7-2.4-1.1-6.7-1-9.5c0.1-2.7,0.1-5.8,0.1-6.7s-0.9-3-2.1-4.7c-1.7-2.2-2.1-3.8-1.7-6.8
		c2.1-14.3,2.1-13.8-1-19.5c-1.7-2.9-4.6-8-6.6-11.2c-3.6-5.8-4.7-10.9-2.7-12.1c0.6-0.3,1-1,1-1.4S462.8,291.8,461.4,291.1z
		 M450.1,293.6c-0.6,1.4-2.8,3.2-4.8,4.1c-3.6,1.5-5.8,1.4-16.8-0.2c-6.9-1-7.2,0.2-2.6,9.3c2.3,4.5,4.1,8.4,4.1,8.7
		c0,0.3-1,0.5-2.2,0.5c-1.5,0-1.9,0.3-1.1,0.8c1,0.6,1,1.2-0.2,2.8c-2.1,2.8-1.8,4.2,1.5,8.1c4.2,4.7,3.7,8.4-1.4,11
		c-1.6,0.9-1.4,1.2,2,3c4.6,2.4,7.3,6.6,7.7,11.9c0.2,3.1-0.1,3.9-1.5,3.8s-1.6,0.8-1.3,6.1c0.3,7.3,1.9,10.7,7.5,15.8
		c3.2,3,4,4.4,3.8,6.5s-0.9,2.8-3,3c-1.6,0.2-2.8,0.5-2.8,0.7c0,0.3,3.3,6.4,4.5,8.3c0.1,0.1,2.2-0.9,4.6-2.2
		c4.8-2.6,13.6-4.6,20.8-4.6c2.5,0,5.2-0.4,6-0.9c2.1-1.4,0.3-6.8-3.5-10.3c-1.8-1.7-3.8-4.5-4.3-6.2s-1.2-10.5-1.6-19.6
		s-0.9-18.1-1-20s-2.7-11.6-5.9-21.5c-3.1-9.8-5.6-18.5-5.6-19.1C453,291,451.3,291.1,450.1,293.6z M469.3,296.9
		c-2.9,2.4-2.9,3.2,0.3,6.2c3.2,3,5.4,7.3,8.4,16.2c1.9,6,2.1,7.3,1,11.8c-1.4,5.6-0.8,10.4,1.6,13.1c1.4,1.5,1.5,2.6,0.7,6.8
		c-1.6,7.7,2.1,18.8,8.1,24.9c3.1,3.2,4.9,6.1,5.7,9.3c0.7,2.6,1,5,0.7,5.3s-1.8,0.1-3.3-0.5c-2-0.8,0.3,2.1,8.2,10.3
		c7.6,7.9,11.8,13.3,13.8,17.4c2.8,5.7,3.1,6,5,4.7c2.4-1.7,3.5-1.8,3.5-0.2c0,0.7,0.4,1.9,0.9,2.7c0.7,1.1,2.2,0.6,7.5-2.8
		c8-5,11.3-5.8,15.4-3.7c3.9,2,4.2,2,4.2-0.4c0-1.1-1.2-2.7-2.7-3.7c-4.4-2.8-16.5-12.8-19.8-16.3c-3.1-3.3-10.4-8.4-18.8-13
		l-4.8-2.7l2.6-1.7l2.7-1.8l-2.4-2.5c-1.2-1.4-4.4-4-6.9-5.9c-5.1-3.7-7.5-8-6.5-11.7c0.4-1.8-0.1-3-2.1-4.8
		c-5.3-4.9-8.7-17.9-4.7-17.9c1.8,0,1.6-3.2-0.8-16.7c-1.1-5.8-1.3-6.2-2.8-4.8c-2.6,2.3-3,1.9-3-3.6c0-5.7-1-8.1-5.3-12.7
		C472.1,294.5,472.2,294.5,469.3,296.9z M466,397c-13.3,2.5-16.2,3.4-17,5c-0.4,0.8-1.2,2.5-1.8,3.7c-0.9,1.8-0.8,2.3,0.9,3.5
		c2,1.3,1.9,1.4-1.4,5c-2.5,2.8-4.3,3.8-6.5,3.8c-2.4,0-3.2,0.6-4.1,3l-1,3h7.9c7.8,0,8-0.1,9.5-2.9c0.8-1.7,1.9-3.2,2.4-3.5
		s7.3-1.9,15.2-3.6c19.2-4,21.2-4.6,23.8-7.4l2.2-2.3l-2.7-3.2c-1.4-1.7-3.9-3.8-5.5-4.6C484.3,394.6,477.9,394.7,466,397z
		 M503.3,409.3l-1.8-2.2l-3.7,3.1c-4.2,3.3-4.7,5.6-1.9,8.2c1.1,1,2.5,3.1,3.1,4.7c1.6,3.7,2.2,3.6,5.4-0.2c2.8-3.3,3.2-5.4,1.6-9.1
		C505.5,412.5,504.3,410.5,503.3,409.3z M543.7,423.7c-1.8-2.4-5.4-0.3-9.7,5.7c-1.9,2.7-5.6,7.3-8.2,10.4c-4.9,5.6-6,9.7-3.8,13.2
		c0.8,1.2,1.3,1.1,3.3-0.9c3.1-2.8,4.3-1.4,2.7,3.5c-1.2,3.4-0.7,8.4,0.8,8.4c0.4-0.1,3.2-1.5,6.2-3.3c4.1-2.4,6.1-4.4,7.7-7.7
		c2.5-5.1,3.9-16.3,2.9-23.2C545.2,427.3,544.4,424.5,543.7,423.7z M479.1,423c-3.4,0-8.7,3.3-9.6,5.9c-1.3,4.1,3.6,9.1,9.1,9.1
		c7.6,0,11.4-8.5,5.8-12.9C482.9,423.9,480.6,423,479.1,423z M511,424c-1.1,0-8,7.6-8,8.8c0,3-3.3,7.3-7,9.2
		c-2.2,1.1-7,2.7-10.7,3.6c-3.7,0.8-8.2,2.2-10.1,3c-4.4,1.8-8.5,1.8-12.1-0.1c-2.6-1.3-10.5-1.2-28.9,0.5c-0.2,0,0.6,1.2,1.7,2.6
		c4.8,6.1,1.3,16.3-9.8,28.5c-3.3,3.7-6.1,7.5-6.1,8.4c0,2.8,9.2,20.3,15.5,29.5c7.6,11.2,12.9,18,20.8,26.8
		c7.7,8.5,15.2,22.1,14.3,25.8c-0.7,2.8-2.4,3.1-4,0.8c-1-1.3-2-0.7-7.2,4.3c-3.3,3.2-9.9,9.4-14.5,13.8
		c-13.2,12.4-32.2,37.2-45.9,59.6c-7.6,12.6-11.4,16.7-20.7,22.1c-5.2,3.1-13.3,5.4-13.3,3.8c0-0.3,2.7-1.8,5.9-3.4
		c3.3-1.6,8.1-4.8,10.8-7.1c4.7-4.1,11-12.1,10.2-12.9c-0.2-0.2-4.7,2.5-9.9,6c-13.6,9.2-18.3,10.8-30.3,10.7
		c-8.7-0.1-9.8,0.1-10.8,1.8c-1.3,2.5-2.9,1.5-2.9-1.7c0-5.2-2.1-1.9-5.5,8.7c-3,9.2-3.6,12.7-3.6,19.8
		c-0.2,24.5,9.6,48.4,26.3,64.8c18.4,17.9,37.6,25.2,72.3,27.1c10.9,0.7,15.9,1.4,18.3,2.6c2.6,1.4,3.7,1.5,4.8,0.5
		c1.9-1.6,1.8-2.5-0.8-4.9c-3.3-3-1.1-4.6,3.6-2.6l3.6,1.5v-2.7c0-1.5-1.1-4.6-2.4-6.9c-5.6-9.8-8.8-27-8.8-47.8
		c0-15.3,2.3-29.4,6.8-41.5c5.9-15.9,19-44.9,33-73.1c8.4-16.8,15.5-32.1,15.9-34c1.3-6.9-4.4-40.5-12-71c-5.1-20.2-7.5-33.1-7.5-40
		c0-4,0.5-5.5,3.1-8.4c1.7-1.9,3.8-3.5,4.6-3.5c0.8,0,1.3,0.3,1.1,0.7c-2.2,4.2-4.1,9.2-4.5,11.7c-0.4,3.1,0.8,8.4,11.7,48.6
		c2.9,10.7,6,23.3,7,27.9l1.7,8.5l7.7-14.7c13.1-24.9,16.7-35.5,18.5-54.9l1-10.3l-3.2-2.5c-5.4-4.1-9.7-9.2-12.1-14.5
		c-2.4-5.1-5.9-18.5-4.8-18.5c0.3,0,1.3,0.7,2.2,1.5c1.6,1.4,2,1.2,4.5-2.2l2.9-3.7l-6-5.3C514.2,426.4,511.3,424,511,424z
		 M438.4,428.3l-13.9-0.6l1.9,2.1c1.8,2.1,1.8,2.1-0.8,3.3c-3.2,1.5-3.3,3.2-0.4,5.9c3.3,3.1,8.2,4,21.6,4c9.1,0,12.2-0.3,12.2-1.3
		c0-3.2-2.2-8.6-4.4-10.6C452.4,429,450.9,428.8,438.4,428.3z M418.3,457.6l-5.1,3.5l4.2,7.5c2.2,4.1,4.6,7.4,5.2,7.4
		c2.1,0,10.4-14.2,10.4-17.9c0-1.1-0.9-2.5-1.9-3.1C427.5,453.1,423.5,453.9,418.3,457.6z M485.6,625.3c-0.9-1-17.3,35.7-21.5,48.2
		c-11.8,35.1-15,54.6-11.7,73.1c1.4,8.1,2.8,12.7,9.6,30.9c1,2.7,1.6,6.2,1.3,7.7c-0.3,1.5-3.4,6.1-6.9,10.2l-6.4,7.5l5.8-2.9
		c15.7-7.9,43.4-9.1,56.7-2.5c6.3,3.1,8.6,6.3,9.4,12.8l0.6,5.2l2.8-6.7c2-5.1,2.5-7.3,1.7-9.2c-0.5-1.3-4.7-5.6-9.3-9.5
		c-24.5-20.4-38.4-42.3-40.3-63.4c-0.8-9.5,0.7-10.2,2.4-1.2c0.7,3.6,2.4,9.5,3.9,13.2c3.1,7.8,12.5,22.2,17.8,27.3l3.6,3.5l-4.2-9
		c-5.1-11.2-10.6-27.7-16.6-50.5l-4.7-17.5l0.1-19c0-17.4,0.3-20.3,3.1-33.5C484.5,632.1,485.8,625.4,485.6,625.3z M370.8,785.2
		c-3,2.3-5.8,8.3-5.8,12.2c0,14,11.3,34.1,22.4,39.8c3.3,1.8,6.4,2.2,16.3,2.6c6.7,0.2,15.2,0.1,18.7-0.3l6.6-0.7l6.3-8.1
		c3.5-4.5,6.6-8.7,7-9.3c0.4-0.7-1.5-0.6-5.6,0.3c-9.7,2-27.2,1.7-34.9-0.7c-5.8-1.8-12.6-6.3-16.6-11c-3.8-4.5-9-18.9-9.2-25.3
		C376,783.6,372.5,783.9,370.8,785.2z M381,786.8c0,1.8,6.9,17.7,7.7,17.6c0.4,0,3.3-1.2,6.3-2.7c6.3-3,17.7-4.7,31.4-4.7
		c8,0,8.9-0.2,7.5-1.5c-1-1-5.5-1.8-15.4-2.5c-16-1.1-23.1-2.3-31.1-5C380.8,785.7,381,785.7,381,786.8z M491.5,798.4
		c-11.7-0.3-12.2-0.2-23,2.3c-11.4,2.6-15.7,5.8-16.9,12.5c-0.7,3.7-0.6,3.7,3.6,4.8c3.1,0.9,10.5,0.9,29.2,0.1
		c33.6-1.6,31.6-1.1,31.6-6.7c0-6.3-1.2-7.9-7.7-10.5C503.8,799.2,500,798.7,491.5,798.4z M408.5,803c-6.3,1.3-15.3,4.9-15.8,6.5
		c-0.9,2.2,1,3.1,14.2,7l12.4,3.7l11.4-2.6c12-2.6,14.3-3.7,14.3-6.6c0-2.5-5.2-6.7-9.8-8C430.9,801.9,414.4,801.8,408.5,803z
		 M507.8,822.2c-7.8,0.2-49,1.5-53.9,1.7l-3.7,0.1l1,4.7c0.5,2.7,1.7,5.4,2.6,6c1.2,1,7.9,1.3,25.6,1.3c22.3,0,24.3-0.2,27.4-2
		c3.5-2.1,7.2-7.4,7.2-10.3C514,822.3,513.1,822,507.8,822.2z"/>
	<path d="M373.4,199.2c0.7,1.2,0.7,2.1,0,2.8c-1.4,1.4-10.4-1.9-10.4-3.8C363,196.2,372,197,373.4,199.2z"/>
	<path d="M382.2,216.1c3.5,2.8,7.5,5.8,9.1,6.7c3.3,2,3.4,3.3,0.2,11.9c-4.1,11.5-13.2,17.8-22,15.4c-10.7-2.9-15.4-9.8-13.6-19.8
		c0.9-4.8,0.9-5.9-0.6-7.5c-1.4-1.6-1.5-2.1-0.2-4.4c1.8-3.4,5.1-5.5,9.7-6.5C373.6,210.2,375.6,210.7,382.2,216.1z M371.3,216.1
		c-11.1,0.4-13,1.9-8.2,6.5c2.5,2.4,3.2,2.7,4.9,1.6c2.6-1.6,6-1.5,10.3,0.3c2,0.8,4.7,1.5,5.9,1.5c2,0,1.7-0.7-2.9-5
		C376.5,216.3,375.8,216,371.3,216.1z M372.5,227.7c-2-0.4-4.9-0.1-9.2,0.8c-4,0.9-2.7,8.2,2.4,13c2.5,2.3,3.4,2.6,8.1,2.2
		c5.5-0.4,9.2-2.4,12.3-6.8c3.7-5.1,3.1-6.1-4.6-7.5C377.7,228.6,373.6,227.9,372.5,227.7z"/>
	<path d="M416,656.5c0,3.3-5.4,9.4-7,7.9c-1.5-1.5,1-7.7,3.7-9.3S416,653.8,416,656.5z"/>
	<path d="M404.2,670c1.7,0,1.8,2.3,0.3,4.6c-2,3.1-6.2,4.8-8.9,3.7c-1.7-0.8-1.3-1.3,3-4.6C401.3,671.7,403.8,670,404.2,670z"/>
</g>
</svg>
