<?xml version="1.0" encoding="utf-8"?>
<!-- Generator: Adobe Illustrator 21.0.0, SVG Export Plug-In . SVG Version: 6.00 Build 0)  -->
<svg version="1.1" baseProfile="tiny"
	 id="svg46" inkscape:version="0.92.2 5c3e80d, 2017-08-06" sodipodi:docname="60 #13162.svg" xmlns:cc="http://creativecommons.org/ns#" xmlns:dc="http://purl.org/dc/elements/1.1/" xmlns:inkscape="http://www.inkscape.org/namespaces/inkscape" xmlns:rdf="http://www.w3.org/1999/02/22-rdf-syntax-ns#" xmlns:sodipodi="http://sodipodi.sourceforge.net/DTD/sodipodi-0.dtd" xmlns:svg="http://www.w3.org/2000/svg"
	 xmlns="http://www.w3.org/2000/svg" xmlns:xlink="http://www.w3.org/1999/xlink" x="0px" y="0px" viewBox="0 0 850 850"
	 xml:space="preserve">
<sodipodi:namedview  bordercolor="#666666" borderopacity="1" gridtolerance="10" guidetolerance="10" id="namedview48" inkscape:current-layer="svg46" inkscape:cx="1014.0824" inkscape:cy="1048.2352" inkscape:pageopacity="0" inkscape:pageshadow="2" inkscape:window-height="978" inkscape:window-maximized="1" inkscape:window-width="1920" inkscape:window-x="0" inkscape:window-y="1" inkscape:zoom="0.51036548" objecttolerance="10" pagecolor="#ffffff" showgrid="false">
	</sodipodi:namedview>
<g id="g44" transform="translate(0.000000,0.000000) scale(1.00000,1.00000)">
	<path id="path4" fill="none" d="M0,0l239.8,0.1c207.9,0,239,0.2,234.5,1.4c-6.3,1.7-15.8,6.4-23.4,11.6l-5.6,3.8l-3.4-3.5
		c-5.7-6-8.5-7.7-10.9-6.4c-1.8,1-2,2-2,11.9v10.9l-6.2-1.9c-9.2-2.8-9.1-2.8-6.3,4.8l2.5,6.8l-2.5,1.8c-2.9,2.2-3.3,6.1-0.9,9.5
		c1.9,2.8,2.1,2.6-4,5.1c-2.6,1.2-4.6,2.5-4.4,2.9c0.2,0.5,3.2,3.5,6.8,6.6c3.6,3.2,6.9,6.5,7.5,7.4c0.5,1,1,4.5,1.1,7.8
		c0.2,7.5,1.9,11.4,12.5,29.5c4.4,7.5,8.9,16,10,18.9c5.8,15.2,10.9,21.1,23.5,27.1c8.4,4.1,10.8,6.3,5.7,5.4
		c-1.6-0.3-6.4-1.2-10.8-2c-14.7-2.7-20-1.9-25.8,4.2c-3.8,4-9.4,17.9-11.7,29c-2.1,9.8-4.1,15.6-5.9,16.7c-1.5,1-1.4,4.7,0.4,8.9
		c1.9,4.5,1.9,13.7,0.1,18c-1.4,3.3-8.4,15.3-20.1,34.2c-24.3,39.3-30.6,49.1-37.1,57.7c-19,25.3-31.3,53.2-41.9,94.9
		c-7.9,31.3-12.8,45.4-22.7,65.3c-18.5,37-40.5,61.2-87.3,96c-8.2,6.2-25.3,18.6-38,27.6c-42.3,30.1-47.9,34.4-59.6,45.8
		c-17.5,16.9-28.2,33-34.2,51.7C76,720.8,75,727.7,75,741c0,20.3,4.2,30.5,17.7,42.8c12,10.9,15.2,12.6,24.3,12.9
		c28.4,1,38.6,1.9,41.9,3.7c1.9,1,8.6,6.9,14.8,13.2c9.4,9.3,12.1,11.4,15.1,11.9c2,0.3,6,1.7,8.7,3c15.3,7.5,48.7,16.8,71.5,20
		c8.2,1.1-10.1,1.3-129.7,1.4L0,850V425V0z"/>
	<path id="path6" fill="none" d="M672.3,0.1L850,0v425v425l-270.7-0.1c-149-0.1-269.4-0.4-267.8-0.6c10.3-1.3,21.5-4,33.3-7.9
		c10.9-3.6,15.7-4.6,25.1-5.4c19.2-1.6,18.8-1.6,23.5,3.4c5,5.5,8.8,7.2,19.7,8.6c9.1,1.2,25.6,0.9,28-0.5c0.7-0.5,6.8-1,13.4-1
		c6.6-0.1,12.7-0.5,13.6-0.8c0.8-0.4,9.6-0.2,19.5,0.4c9.8,0.7,22.8,1.3,28.8,1.3c9.4,0.1,11.3-0.1,13.4-1.8
		c2.4-1.9,2.8-1.9,8.2-0.5c4.9,1.3,6.2,1.3,10.3,0c4.2-1.3,4.8-1.3,6.5,0.2c1.1,1,2.2,1.3,2.8,0.8c0.5-0.5,6.1-0.1,13.3,0.9
		l12.4,1.9l12.3-3c6.8-1.6,13.4-2.9,14.8-2.9c1.4,0,2.7-0.4,3-0.9c0.4-0.5,3-1.2,5.9-1.6c13.3-1.7,21.5-6.5,44.5-26.1
		c5.6-4.9,9.6-7.5,12.5-8.2c2.3-0.6,8.3-3.4,13.2-6.2c11.5-6.4,16.8-8,27.4-8c4.7,0,11.5-0.5,15.1-1c3.7-0.5,10.8-1.4,15.9-2
		c14.3-1.6,20.2-4.8,22.2-12.3c3.2-11.9-10-35.6-23.4-42.1c-2.9-1.4-8-2.9-11.4-3.2c-3.5-0.4-6.3-1-6.3-1.3s3.4-3.1,7.6-6.1
		c22.4-16.1,27.1-20,31.4-25.9c11.2-15.3,7.8-24.8-12.2-34.5c-9-4.3-15.5-6.5-35.8-12.1c-17.7-4.8-31.1-12.6-42.6-24.7
		c-8.4-8.9-12.6-15.1-21-31.1c-13-25-20-44.8-34.3-97.2c-17.3-63.2-28-89.5-41.3-101.1c-2-1.8-4.1-4.1-4.7-5.3
		c-2.1-3.8-6.8-5.4-13.8-4.8c-8.5,0.8-11-0.4-13.9-6.9c-1.2-2.8-6.8-19.9-12.4-38c-10.2-32.8-10.2-32.9-9.7-41.4
		c0.4-8.1,0.8-9.4,8.6-26.4c6.8-14.8,9.1-18.9,13.7-24c12.1-13.2,13.8-18.9,11.1-37.9c-1-6.7-1.7-13.3-1.7-14.7s-1.1-4.8-2.4-7.7
		c-3-6.3-7.6-9.6-16.2-11.6c-7.8-1.8-10.1-3.1-12.4-7c-2.8-4.5-2.5-6.8,1.6-12.8c9.9-14.6,9.9-21.5-0.3-32.1l-4.5-4.6l3.5-4.7
		c10.9-14.3,10.4-32.3-1.4-51.3c-5.2-8.3-5.2-8,1-11.4c6.7-3.7,8.6-14.3,3.5-20.2c-1.6-1.9-7.3-8.6-12.6-14.9
		C507.1,7,502,2.4,497.5,1.1C495.7,0.5,568.1,0.1,672.3,0.1z"/>
	<path id="path8" fill="#4B0082" d="M500.9,10.9c4.7,3.7,24.2,26.3,25.4,29.3c0.4,1.2,0.5,3,0.1,4.2c-0.8,2.6-4.4,6.6-5.9,6.6
		c-0.7,0-3-2.2-5.3-4.9c-5-5.9-10.2-8.6-21.3-10.9l-8.4-1.8l-0.9-4c-0.5-2.1-1-4-1.1-4.2c-0.2-0.2-2.1,0.6-4.4,1.7
		c-2.2,1.2-4.4,2.1-4.9,2.1c-0.6,0-1.3-2.1-1.7-4.6c-1.3-8.8-1.4-8.9-7-5c-5.2,3.8-6.5,3.8-6.5,0.1c0-3.9,8.4-10.2,17.5-13.1
		C485.2,3.6,493.7,5.2,500.9,10.9z"/>
	<path id="path10" fill="#4B0082" d="M497.5,48.1c7.4,2.8,14.4,8.4,20,16.4c7.5,10.5,11.1,22.3,9.9,32.3l-0.6,5.2l-2-3.8
		c-1.3-2.8-3.4-4.7-6.9-6.7c-2.8-1.5-5.2-2.5-5.4-2.3c-1,1.1-3.5,8.4-3.5,10.4c0,2.7-1.2,3.1-3,0.9c-1-1.2-0.9-2.6,0.9-7.1
		c2.8-7.3,2.7-8-1.1-8.8c-1.7-0.3-5.4-2.4-8.2-4.5c-6.8-5.2-8.8-6.1-13-6.1c-4,0-4.2-0.4-2.1-4c2.7-4.6,2-5-5.7-2.8
		C466.9,70,461,73.1,457,77.7c-1.9,2.1-3.6,3.7-3.9,3.7c-0.4-0.1-2.5-0.5-4.8-0.9l-4.1-0.6l0.9,3.8c0.5,2.1,0.9,4.1,0.9,4.6
		c0,0.4-2.7-0.6-6-2.3c-3.3-1.6-6.2-3-6.4-3c-0.3,0-1.1,1.9-1.7,4.2l-1.2,4.3l-0.8-4c-1-5.5,0.6-11.1,3.8-13.2
		c1.8-1.2,4.9-1.8,9.2-1.9c3.6-0.1,7.1-0.2,7.8-0.3c0.7,0,3.1-2.1,5.3-4.5c2.3-2.5,5.8-5.1,7.9-5.9c3.3-1.4,16.7-3.4,26.5-4
		c6.2-0.3,6.9-2.8,2.1-7.7C488,45.3,489,44.9,497.5,48.1z"/>
	<path id="path12" fill="#4B0082" d="M480.5,49.2l3,1.6l-2.5,0.5c-1.4,0.3-5,1-8,1.6c-6.6,1.4-14.3,4.8-22.5,10.1
		c-4.7,3-7.4,4-12.3,4.6l-6.4,0.7l1.5-3c1.9-3.6,9.3-10.5,13.8-12.9c1.9-1,5.9-2.6,8.9-3.6C462.8,46.6,475.9,46.8,480.5,49.2z"/>
	<path id="path14" fill="#FFDEAD" d="M471.1,75c0.4,0,1.2,2,1.8,4.5c1.2,4.9,1.7,5.2,4.7,3c3.5-2.7,8.6-1.8,15,2.5
		c6.1,4.1,7.2,5.7,7.3,10.1c0.1,2.7,0,2.7-6.8,2.5c-6.4-0.1-7.2,0.1-10.1,2.9c-3,2.9-3.2,3.3-2.7,8.8c0.7,8,2.7,10.1,9,9.4
		c6.6-0.6,9.6-3.7,10.7-10.8c0.7-5.1,0.8-5.2,0.9-1.4c0.3,9.4,2.4,13.4,8.6,17.1c1.8,1,1.7,1.4-0.8,9.5c-4,12.9-9.2,19.7-16.3,21.5
		l-2.8,0.7l3.2-2.9c2.4-2.1,3.7-4.7,5.1-9.8l1.9-6.9l-7.6,0.7c-8.6,0.8-10.1,1.4-15.9,6.7l-4.2,3.8l4.5,3.2c2.4,1.8,4.4,3.4,4.4,3.5
		c0,1.1-16.3-6.9-20.6-10.1c-2.3-1.8-3.5-3.9-4.8-8.3c-2.1-7.5-2.1-7.2,1.5-6.2c1.8,0.5,4,0.5,5.4,0c2.5-0.9,7.5-7.5,7.5-9.8
		c0-0.7-3.4-2.9-7.6-4.8c-7.2-3.3-11.4-4.2-11.4-2.7c0,0.5-0.7,1.7-1.6,2.8c-1.3,1.7-1.6,1.8-2.4,0.5c-1.8-2.8-1.1-4.9,1.8-5.7
		c3.5-0.9,3.9-0.8,12.5,3.1c4,1.9,7.4,3.2,7.6,3c0.7-0.7-7.2-9.6-10.3-11.6c-2.4-1.5-4.3-1.8-8.6-1.4c-3,0.2-6.5,0.7-7.6,1.1
		c-1.9,0.6-2.4,0-3.8-4.1c-2.5-7.5-2.2-7.8,4.6-3.5c7.4,4.7,9.2,4.3,11.1-2.6c1-3.8,2-5.1,5.7-7.4c2.5-1.5,5.9-4.6,7.5-6.8
		C469.2,76.9,470.8,75,471.1,75z M480,91.2c-3.1,2.2-9.8,12.3-8.8,13.4c0.3,0.3,5.4-2.2,11.4-5.6c6-3.3,11.2-6,11.6-6
		c1.7,0,0.6-1.7-1.7-2.8C488.5,88.4,483.6,88.8,480,91.2z"/>
	<path id="path16" fill="#4B0082" d="M509,109c1.3,2,1.3,5.3,0,4.5c-0.5-0.3-1-1.8-1-3.3C508,108.1,508.2,107.8,509,109z"/>
	<path id="path18" fill="#4B0082" d="M521.9,131.5c2.8,2.7,5.1,5.3,5.1,5.7s-1.1,0.8-2.4,0.8c-1.6,0-2.7,0.7-3.1,2
		c-1,3.3-2.2,1.4-3-4.6c-0.4-3.2-0.9-6.4-1.2-7.3C517,127.2,519,128.7,521.9,131.5z"/>
	<path id="path20" d="M528.7,139.7c0.2,0.7,0.2,1.9,0,2.5c-0.3,0.7-0.5,0.2-0.5-1.2S528.4,139.1,528.7,139.7z"/>
	<path id="path22" fill="#FFDEAD" d="M513.1,144.1c0.7-0.1,4.9,22.5,4.9,26.6c0,2.2-0.7,3.7-2.2,4.7c-4.2,3-7.8,2-19.1-5.2
		l-10.7-6.7l5.1-1.2c6.9-1.5,11.9-5.1,17-12.2C510.5,146.8,512.8,144.1,513.1,144.1z"/>
	<path id="path24" fill="#FFDEAD" d="M490.4,184.7c10,9.2,11.8,11.7,10.9,15c-0.3,1.3,0,3.7,0.6,5.4c0.6,1.8,1,3.4,0.8,3.5
		c-0.1,0.2-3.1-1.6-6.5-4c-13.6-9.5-25.5-8.6-39.9,3.1c-2.9,2.4-5.5,4.3-5.7,4.3c-0.3,0-0.7-4.4-0.8-9.8c-0.3-9.6-0.3-9.7-2.8-9.7
		s-2.5,0.1-2.8,10.4l-0.3,10.3l-4.7-0.7c-9.4-1.4-9.5-1.6-5.7-21c3.4-16.9,6.9-23.7,13.5-26.4C456.4,161.4,473.5,169.1,490.4,184.7z
		"/>
	<path id="path26" fill="#008000" d="M499.1,179.6c4.4,3,9.1,5.4,10.5,5.4c3.1,0,7.3-2.1,9.8-4.9c1.1-1.2,2.3-2.1,2.8-2.1
		c1.1,0-4.6,8-7.8,11.1c-2.3,2.1-2.5,2.1-6.6,0.5c-2.6-0.9-7.7-4.8-12.8-9.6C485.8,171.2,486.7,171.1,499.1,179.6z"/>
	<path id="path28" fill="#FFDEAD" d="M548.7,191.9c1.7,2.5,2.3,4.8,2.3,9c0,3.1-0.4,6-0.8,6.6c-0.4,0.5-3.2,1.1-6.3,1.2
		c-3.9,0.1-8.4,1.2-14.7,3.8c-5.8,2.3-9.9,3.4-11.2,3l-2-0.6l2-2.6c1.6-2,2-4.1,2-9.6c0-8.3,2.7-14.9,6.8-17.2
		C533.2,182.1,544.4,185.3,548.7,191.9z"/>
	<path id="path30" fill="#008000" d="M513,204.6c0,3.9-1.2,4.4-3.4,1.2c-1.9-2.7-2-5-0.4-6.6C511.6,196.8,513,198.7,513,204.6z"/>
	<path id="path32" fill="#008000" d="M499,214.5c4.7,4.5,9.5,8.8,10.7,9.4c4.3,2.2,9.8,1.3,17.9-3c7.6-4,8-4.1,15.5-3.7
		c7.1,0.4,10.9,1.8,10.9,3.9c0,0.4-1.7,0.1-3.7-0.8c-6.2-2.5-12.9-1.4-21.4,3.7c-4.9,2.9-8.8,4.5-11.9,4.8c-4.2,0.4-5,0-12.7-5.6
		c-11.5-8.3-17.1-10.6-25.8-10.6c-5.9,0-8,0.5-13,3.1c-3.3,1.7-8.1,4.9-10.7,7.2c-2.5,2.3-4.9,4.1-5.2,4.1c-0.3,0,0-1.4,0.6-3.1
		c1.5-4.4,18.8-16.2,27.8-19C484.7,202.9,489.2,204.9,499,214.5z"/>
	<path id="path34" d="M510,215c0.6,0,1,0.4,1,1c0,0.5-0.4,1-1,1c-0.5,0-1-0.5-1-1C509,215.4,509.5,215,510,215z"/>
	<path id="path36" fill="#FFDEAD" d="M428.1,216.2c0.8,0.3,4,1.4,7.2,2.4c6.3,2,6,1.3,7.7,13.1c2.3,16.5,0.9,28.6-4.7,39.8
		c-5.7,11.2-12.3,16.8-25.4,21.6c-8.4,3.1-14.7,6-18.9,8.9c-1.4,0.9-4.3,2.7-6.4,4l-3.9,2.4l2.6-4.5c1.4-2.4,8.8-13.4,16.4-24.4
		c15.1-21.9,22.2-34.8,24.9-45.5c1.7-6.6,1.9-6.9,4.4-6.3c2,0.5,2.3,0.4,1.4-0.8c-0.6-0.8-2.3-3.6-3.9-6.3
		C427.8,217.6,427.3,215.9,428.1,216.2z"/>
	<path id="path38" fill="#556B2F" d="M481.7,219c4,0,10.2,3,15.8,7.5c14,11.3,17.7,11.8,32.1,4.4c8.3-4.2,10.5-5,13.7-4.6
		c4.3,0.6,8.7,4.1,8.7,6.9c0,2.3-10.4,19.2-14.6,23.8c-4,4.3-14.2,24.5-18.3,36.3c-1.7,4.8-4,13.1-5,18.4
		c-2.2,10.6-4.6,14.6-11.7,19.5c-7.3,4.9-5.7,5.8-33.2-18.8c-13.9-12.5-25.2-23-25.2-23.4s1.2-1.1,2.6-1.4c4.1-1.1,9.3-4.9,10.5-7.8
		c1.3-3.3,0.7-7.8-3.2-21.7c-5.7-20.6-3.4-25.5,16.5-35.2C474.8,220.7,479.9,219,481.7,219z M483.7,245c-3.6,0,13.7,9.7,21.7,12.2
		c5.7,1.7,8.5,2,17.1,1.6c5.7-0.3,11.1-1.1,12.1-1.7c1.1-0.6,1.6-1.1,1.1-1.1c-0.4,0-12-2.5-25.8-5.5S484.3,245,483.7,245z"/>
	<path id="path40" fill="#00FF00" d="M434.3,291c2.3,0,5.5,2.6,17.5,14.8c14.8,15,34.1,32.5,38.4,34.8c4.8,2.7,9.7,1.2,18.1-5.8
		c5.7-4.8,5-5.3,12.5,9.7c6.6,13.2,7.9,17.4,10.8,34c1.4,7.7,4,20.7,5.9,29c8.2,36.4,10,52.4,10,90.5c-0.1,20.8-0.7,36.1-2.4,56.5
		c-2.7,32.5-2.6,68.7,0.3,87.5c6.6,42.5,22.7,77.2,47,101.5c5.6,5.5,13.4,12.3,17.3,15c4,2.6,7.1,5,6.9,5.2
		c-0.2,0.2-3.6-0.1-7.5-0.8c-8.1-1.2-10.1-0.8-10.1,2c0,1.5,1.1,2.2,5.3,3.1c13.9,3,19.9,3.3,38.1,2.1c38.2-2.4,44.8-1.2,47,8.3
		l0.7,2.9l-4.2-3.7c-3.8-3.5-4.5-3.8-8.9-3.4c-6.3,0.6-10.7,3.9-28.4,20.8c-20.4,19.5-30.3,25.7-46.1,29.3
		c-12.3,2.8-14.8,2.8-70.4,0.6c-71.6-2.8-82.6-2.4-108.1,3.8c-20.8,5-40.9,1.8-66.6-10.7c-10.6-5.1-13.6-7.1-19.8-13.3
		c-11.4-11.2-14.8-20-16.6-42.2c-1.8-21.4,1.1-44.8,8.2-66c6.6-19.8,13.9-35.1,31.5-65.8c4.7-8.1,8.4-15,8.2-15.2
		c-0.2-0.1-2,0.4-3.9,1.3c-2.6,1.3-5.2,4.5-11.3,14.2c-25.4,40.7-39,79.4-40.4,115.2c-0.6,17.5,0.4,26.5,4.2,37.9
		c5.6,16.2,18.2,30.6,33.7,38.4c4.9,2.5,10.1,4.5,11.3,4.5c4.8,0,3.3,1.8-2.3,2.9c-3.2,0.6-11.9,3.1-19.3,5.5
		c-19.1,6.3-28.5,7.9-46.4,8c-16.6,0-30.1-1.8-48.5-6.4c-17.4-4.4-43.2-12.7-44.2-14.2c-1.3-1.8-0.2-21,1.8-30.5
		c4.3-21.1,11-35.6,29.1-63.3c6.6-10.2,12.6-19.6,13.2-21c1.8-3.8-16.3,15.2-22.3,23.4c-11,14.9-18.4,29.8-23.1,46.6
		c-2.8,10-5.5,25.5-5.5,31.9v4.5l-8.2-8c-7.3-7.1-16.5-13.5-26.3-18.5c-3.8-1.8-5.3-7.1-5.4-18.4c-0.2-21.2,11.3-43.4,34.2-66
		c12.5-12.4,21.6-18.9,50.2-36.5c15.7-9.6,26.9-18.3,38-29.6c11.3-11.3,26.6-30.9,30.6-39c2.7-5.5,7.3-20.3,6.5-21.1
		c-0.2-0.2-2.7,3.4-5.6,7.9c-18.7,29.3-22.7,34.4-37.1,48.3c-11.6,11.2-19.9,17.5-39.9,30c-38.1,24.1-57.1,41.1-70.1,62.6
		c-8.7,14.5-13.8,31.1-13.9,45v5.7l-3.7-0.9c-5.7-1.3-12.1-1.1-15.2,0.6c-1.6,0.8-5.2,4.1-8,7.4l-5.2,6l-5.1-1.9
		c-10-3.8-17.9-11.1-23.6-21.7c-5-9.5-6.5-17.1-5.9-30.3c1.1-25,12-47.9,33.1-69.8c9.7-10.1,20.4-18.4,45.1-35.2
		c36.4-24.7,80.1-58.2,97.9-74.9c9.3-8.7,23.9-26.3,32.5-39c18.5-27.5,29.2-53.1,39.5-95.1c10.5-43.1,25.2-75.1,43.2-93.9
		c13.3-14,21.8-19.8,45.1-30.7C425.3,293.9,432.7,291,434.3,291z M433,313c-1.9,0-21.7,14.2-29,20.8c-18.9,17.3-35.5,41.5-47.1,68.7
		c-9.2,21.8-17.3,46.7-20.4,62.8c-1.3,6.9-1.1,17.7,0.4,17.7c0.3,0,2.1-5.7,4-12.8c4.2-15.9,13.7-44.8,18.6-56.7
		c16.3-39.6,38.3-69.8,66.2-90.7c6.1-4.6,9-7.4,8.6-8.4C434,313.6,433.4,313,433,313z M491.8,345h-2.9H486v12.4
		c0,22-3.1,34.1-15.7,61.6c-21.2,46.2-33.3,68.8-50.2,94c-5.4,8-11.8,17.9-14.3,22c-4.3,7.2-9.3,18.8-8.5,19.7
		c1.2,1.1,21.6-26.8,34.5-47.4c22.2-35.1,51-94.7,56.8-117.3c2.7-10.1,4.1-25.9,3.6-37.8L491.8,345z M498,345
		c-0.3,0-1.1,0.5-1.7,1.1c-0.8,0.8-0.4,2.2,1.2,5.2c9.7,17.5,14.4,46.8,14.5,88.9c0,14,0.2,16.8,1.4,16.8c0.8,0,1.7-0.4,2-0.8
		c0.2-0.4,1-9.2,1.7-19.4c2.4-35-2.1-61-14.4-84.1C500.5,348.5,498.3,345,498,345z M506,489c-0.3,0-1.3,2.6-2.4,5.8
		c-1,3.1-5.2,14.5-9.4,25.2c-21.6,56.1-30.9,94.5-31.9,132.6c-0.5,18.6-0.1,24.4,3,37.9l1.1,5l0.7-4.5c0.4-2.5,0.8-12.4,0.8-22.1
		c0.1-28,2.9-49.5,10.1-77.9c5.1-19.8,7.2-26.5,21.4-66.2c6.4-17.9,11.6-33,11.6-33.6c0-0.5-1-1.2-2.2-1.6
		C507.5,489.3,506.3,489,506,489z M322.5,532.2c-1.7,5.4-5.2,25.5-4.6,26.1c0.5,0.5,1.7,0.7,2.7,0.5c1.5-0.2,2.5-3,5-13.5
		c1.7-7.3,2.9-13.5,2.6-13.8C327.2,530.5,322.9,531,322.5,532.2z M478.8,728.1c-1.6,0.4-4.8,2.4-4.8,2.9c0,0.6,9.9,21.9,10.6,22.8
		c0.2,0.3,4.1-1.5,5.2-2.3c0.1-0.1-2.3-5.4-5.3-11.8C481.5,733.2,478.9,728,478.8,728.1z"/>
	<path id="path42" fill="#008000" d="M543.1,386.6c4.4,7,7.7,10.2,13.4,13.1c7.6,3.9,11.3,7.1,15.4,13.2c2,3.1,4.5,5.7,5.6,5.9
		c1.1,0.2,2.9,1.1,3.9,2.1c1.8,1.5,1.9,1.5,1.3-0.2c-1.1-2.8,2.9-2.1,5.1,1c3.7,5.3,11.1,21,14.7,31.3c1.9,5.7,5.8,19.6,8.6,30.9
		c12.9,52.2,21.6,79.1,35.4,108.6c11.3,24.3,23.5,39.3,41.6,51.4c9.8,6.6,19.7,11,33,14.6c40.6,11.1,52.4,19.4,44.7,31.5l-2.3,3.5
		l-0.5-7c-0.3-3.9-1.1-8-1.8-9.2c-2.9-5.2-9.3-5.7-16.8-1.3c-5.4,3-9.1,7.6-29.7,36.7l-8.7,12.2l-7.1-2.4
		c-8.4-2.9-17.9-7.9-34.2-18.3c-8.2-5.1-12.2-7.1-12.9-6.4c-1.6,1.6-0.4,2.8,12.9,12.6c20.8,15.5,38.3,23.3,57.3,25.5
		c16.9,2,25.5,5.5,32.5,13.3c6.3,6.9,10.8,19.7,9.1,26.1c-0.5,2.1-6.4,6.3-7.4,5.3c-0.1-0.2,0.7-2.8,1.9-5.7
		c3.4-8.8,1.6-14.9-5.5-18.6c-4.8-2.5-17.7-1.3-24.5,2.1c-7.2,3.7-14.3,10.6-17.6,16.9c-1.4,2.9-3.4,6.2-4.4,7.4
		c-1.8,2.2-8.8,7.3-10,7.3c-0.3,0-0.5-3.5-0.3-7.8c0.3-6.8,0.1-8.1-2-11.1c-3.9-5.7-6.9-7.3-16.2-8.4c-6.6-0.8-10.6-0.8-16.9,0.2
		c-14,2.2-18,2.3-25.5,0.7c-13.6-2.8-24.7-10-39.4-25.5c-39.5-41.5-51.8-96.8-43.9-197.1c2.3-29.3,2.7-65,1.1-85.7
		c-1.5-17.1-5.5-41.7-9.6-58.6c-1.9-7.6-3.4-14.1-3.4-14.5C540,381.9,541.4,383.8,543.1,386.6z M561.5,413.5l-2.5-3l0.6,4
		c1,6.1,2.6,9.4,11.4,23.6c37.1,59.6,51.2,110,59,209.9c0.6,7.4,1.7,16.6,2.5,20.4s1.4,7.1,1.2,7.2c-0.1,0.1-3.6-3.8-7.7-8.6
		c-4.1-4.9-8-8.9-8.6-8.9c-0.6-0.1-1.8,0.7-2.7,1.7c-1.5,1.6-0.7,2.7,11.6,16.2c7.3,8,15.6,17.2,18.5,20.5c2.8,3.2,5.2,5.4,5.2,4.7
		s-2.3-7.4-5.1-15c-5.8-15.8-6-17.1-11.9-71.2c-5.6-51.6-8.8-69.3-17.2-96.4c-9.6-31-32.5-77.4-47.8-97.1
		C565.8,418.8,562.9,415.1,561.5,413.5z"/>
	<path d="M497,1c5,1.4,9.8,5.7,20.8,18.7c5.3,6.3,11,13,12.6,14.9c5.1,5.9,3.2,16.5-3.5,20.2c-6.2,3.4-6.2,3.1-1,11.4
		c11.8,19,12.3,37,1.4,51.3l-3.5,4.7l4.5,4.6c10.2,10.6,10.2,17.5,0.3,32.1c-4.1,6-4.4,8.3-1.6,12.8c2.3,3.9,4.6,5.2,12.4,7
		c8.6,2,13.2,5.3,16.2,11.6c1.3,2.9,2.4,6.3,2.4,7.7s0.7,8,1.7,14.7c2.7,19,1,24.7-11.1,37.9c-4.6,5.1-6.9,9.2-13.7,24
		c-7.8,17-8.2,18.3-8.6,26.4c-0.5,8.5-0.5,8.6,9.7,41.4c5.6,18.1,11.2,35.2,12.4,38c2.9,6.5,5.4,7.7,13.9,6.9c7-0.6,11.7,1,13.8,4.8
		c0.6,1.2,2.7,3.5,4.7,5.3c13.3,11.6,24,37.9,41.3,101.1c14.3,52.4,21.3,72.2,34.3,97.2c8.4,16,12.6,22.2,21,31.1
		c11.5,12.1,24.9,19.9,42.6,24.7c20.3,5.6,26.8,7.8,35.8,12.1c20,9.7,23.4,19.2,12.2,34.5c-4.3,5.9-9,9.8-31.4,25.9
		c-4.2,3-7.6,5.8-7.6,6.1s2.8,0.9,6.3,1.3c3.4,0.3,8.5,1.8,11.4,3.2c13.4,6.5,26.6,30.2,23.4,42.1c-2,7.5-7.9,10.7-22.2,12.3
		c-5.1,0.6-12.2,1.5-15.9,2c-3.6,0.5-10.4,1-15.1,1c-10.6,0-15.9,1.6-27.4,8c-4.9,2.8-10.9,5.6-13.2,6.2c-2.9,0.7-6.9,3.3-12.5,8.2
		c-23,19.6-31.2,24.4-44.5,26.1c-2.9,0.4-5.5,1.1-5.9,1.6c-0.3,0.5-1.6,0.9-3,0.9s-8,1.3-14.8,2.9l-12.3,3l-12.4-1.9
		c-7.2-1-12.8-1.4-13.3-0.9c-0.6,0.5-1.7,0.2-2.8-0.8c-1.7-1.5-2.3-1.5-6.5-0.2c-4.1,1.3-5.4,1.3-10.3,0c-5.4-1.4-5.8-1.4-8.2,0.5
		c-2.1,1.7-4,1.9-13.4,1.8c-6,0-19-0.6-28.8-1.3c-9.9-0.6-18.7-0.8-19.5-0.4c-0.9,0.3-7,0.7-13.6,0.8c-6.6,0-12.7,0.5-13.4,1
		c-2.4,1.4-18.9,1.7-28,0.5c-10.9-1.4-14.7-3.1-19.7-8.6c-4.7-5-4.3-5-23.5-3.4c-9.4,0.8-14.2,1.8-25.1,5.4c-21,7-28,8.1-51.8,8
		c-15.4,0-23-0.4-30.5-1.8c-20.9-3.8-52.4-12.9-64-18.6c-3.3-1.6-7.7-3.2-9.7-3.5c-3-0.5-5.7-2.6-15.1-11.9
		c-6.2-6.3-12.9-12.2-14.8-13.2c-3.3-1.8-13.5-2.7-41.9-3.7c-9.1-0.3-12.3-2-24.3-12.9C79.2,771.5,75,761.3,75,741
		c0-13.3,1-20.2,4.7-31.5c6-18.7,16.7-34.8,34.2-51.7c11.7-11.4,17.3-15.7,59.6-45.8c12.7-9,29.8-21.4,38-27.6
		c46.8-34.8,68.8-59,87.3-96c9.9-19.9,14.8-34,22.7-65.3c10.6-41.7,22.9-69.6,41.9-94.9c6.5-8.6,12.8-18.4,37.1-57.7
		c11.7-18.9,18.7-30.9,20.1-34.2c1.8-4.3,1.8-13.5-0.1-18c-1.8-4.2-1.9-7.9-0.4-8.9c1.8-1.1,3.8-6.9,5.9-16.7
		c2.3-11.1,7.9-25,11.7-29c5.8-6.1,11.1-6.9,25.8-4.2c4.4,0.8,9.2,1.7,10.8,2c5.1,0.9,2.7-1.3-5.7-5.4c-12.6-6-17.7-11.9-23.5-27.1
		c-1.1-2.9-5.6-11.4-10-18.9c-10.6-18.1-12.3-22-12.5-29.5c-0.1-3.3-0.6-6.8-1.1-7.8c-0.6-0.9-3.9-4.2-7.5-7.4
		c-3.6-3.1-6.6-6.1-6.8-6.6c-0.2-0.4,1.8-1.7,4.4-2.9c6.1-2.5,5.9-2.3,4-5.1c-2.4-3.4-2-7.3,0.9-9.5l2.5-1.8l-2.5-6.8
		c-2.8-7.6-2.9-7.6,6.3-4.8l6.2,1.9V18.9C429,9,429.2,8,431,7c2.4-1.3,5.2,0.4,10.9,6.4l3.4,3.5l5.6-3.8c7.6-5.2,17.1-9.9,23.4-11.6
		C480.4-0.1,492-0.4,497,1z M462.5,14.1c-3.3,2.9-4.7,7.1-2.7,8.3c0.5,0.3,3-1.1,5.7-3c5.6-3.9,5.7-3.8,7,5c0.4,2.5,1.1,4.6,1.7,4.6
		c0.5,0,2.7-0.9,4.9-2.1c2.3-1.1,4.2-1.9,4.4-1.7c0.1,0.2,0.6,2.1,1.1,4.2l0.9,4l8.4,1.8c11.1,2.3,16.3,5,21.3,10.9
		c2.3,2.7,4.6,4.9,5.3,4.9c1.5,0,5.1-4,5.9-6.6c1-3.4-0.3-5.5-11.2-18.2c-11.1-13.1-16.3-17.8-22-19.8C484,3.1,471.4,6.3,462.5,14.1
		z M492.5,50c4.8,4.9,4.1,7.4-2.1,7.7c-9.8,0.6-23.2,2.6-26.5,4c-2.1,0.8-5.6,3.4-7.9,5.9c-2.2,2.4-4.6,4.5-5.3,4.5
		c-0.7,0.1-4.2,0.2-7.8,0.3c-4.3,0.1-7.4,0.7-9.2,1.9c-3.2,2.1-4.8,7.7-3.8,13.2l0.8,4l1.2-4.3c0.6-2.3,1.4-4.2,1.7-4.2
		c0.2,0,3.1,1.4,6.4,3c3.3,1.7,6,2.7,6,2.3c0-0.5-0.4-2.5-0.9-4.6l-0.9-3.8l4.1,0.6c2.3,0.4,4.4,0.8,4.8,0.9c0.3,0,2-1.6,3.9-3.7
		c4-4.6,9.9-7.7,19.8-10.5c7.7-2.2,8.4-1.8,5.7,2.8c-2.1,3.6-1.9,4,2.1,4c4.2,0,6.2,0.9,13,6.1c2.8,2.1,6.5,4.2,8.2,4.5
		c3.8,0.8,3.9,1.5,1.1,8.8c-1.8,4.5-1.9,5.9-0.9,7.1c1.8,2.2,3,1.8,3-0.9c0-2,2.5-9.3,3.5-10.4c0.2-0.2,2.6,0.8,5.4,2.3
		c3.5,2,5.6,3.9,6.9,6.7l2,3.8l0.6-5.2c2.3-18.4-12.3-42.1-29.9-48.7C489,44.9,488,45.3,492.5,50z M469.5,47.3
		c-8.2-0.3-14.9,1.2-22.4,5.1c-4.5,2.4-11.9,9.3-13.8,12.9l-1.5,3l6.4-0.7c4.9-0.6,7.6-1.6,12.3-4.6c8.2-5.3,15.9-8.7,22.5-10.1
		c3-0.6,6.6-1.3,8-1.6l2.5-0.5l-3-1.6C478.7,48.3,474.3,47.5,469.5,47.3z M471.1,75c-0.3,0-1.9,1.9-3.6,4.1c-1.6,2.2-5,5.3-7.5,6.8
		c-3.7,2.3-4.7,3.6-5.7,7.4c-1.9,6.9-3.7,7.3-11.1,2.6c-6.8-4.3-7.1-4-4.6,3.5c1.4,4.1,1.9,4.7,3.8,4.1c1.1-0.4,4.6-0.9,7.6-1.1
		c4.3-0.4,6.2-0.1,8.6,1.4c3.1,2,11,10.9,10.3,11.6c-0.2,0.2-3.6-1.1-7.6-3c-8.6-3.9-9-4-12.5-3.1c-2.9,0.8-3.6,2.9-1.8,5.7
		c0.8,1.3,1.1,1.2,2.4-0.5c0.9-1.1,1.6-2.3,1.6-2.8c0-1.5,4.2-0.6,11.4,2.7c4.2,1.9,7.6,4.1,7.6,4.8c0,2.3-5,8.9-7.5,9.8
		c-1.4,0.5-3.6,0.5-5.4,0c-3.6-1-3.6-1.3-1.5,6.2c1.3,4.4,2.5,6.5,4.8,8.3c4.3,3.2,20.6,11.2,20.6,10.1c0-0.1-2-1.7-4.4-3.5
		l-4.5-3.2l4.2-3.8c5.8-5.3,7.3-5.9,15.9-6.7l7.6-0.7l-1.9,6.9c-1.4,5.1-2.7,7.7-5.1,9.8l-3.2,2.9l2.8-0.7
		c7.1-1.8,12.3-8.6,16.3-21.5c2.5-8.1,2.6-8.5,0.8-9.5c-6.2-3.7-8.3-7.7-8.6-17.1c-0.1-3.8-0.2-3.7-0.9,1.4
		c-1.1,7.1-4.1,10.2-10.7,10.8c-6.3,0.7-8.3-1.4-9-9.4c-0.5-5.5-0.3-5.9,2.7-8.8c2.9-2.8,3.7-3,10.1-2.9c6.8,0.2,6.9,0.2,6.8-2.5
		c-0.1-4.4-1.2-6-7.3-10.1c-6.4-4.3-11.5-5.2-15-2.5c-3,2.2-3.5,1.9-4.7-3C472.3,77,471.5,75,471.1,75z M509,109
		c-0.8-1.2-1-0.9-1,1.2c0,1.5,0.5,3,1,3.3c0.6,0.3,1-0.2,1-1.2S509.5,109.8,509,109z M521.9,131.5c-2.9-2.8-4.9-4.3-4.6-3.4
		c0.3,0.9,0.8,4.1,1.2,7.3c0.8,6,2,7.9,3,4.6c0.4-1.3,1.5-2,3.1-2c1.3,0,2.4-0.4,2.4-0.8C527,136.8,524.7,134.2,521.9,131.5z
		 M528.7,139.7c-0.3-0.6-0.5-0.1-0.5,1.3s0.2,1.9,0.5,1.2C528.9,141.6,528.9,140.4,528.7,139.7z M513.1,144.1c-0.3,0-2.6,2.7-5,6
		c-5.1,7.1-10.1,10.7-17,12.2l-5.1,1.2l10.7,6.7c11.3,7.2,14.9,8.2,19.1,5.2c2.8-1.9,2.8-4.6,0-19.7
		C514.6,149.3,513.4,144,513.1,144.1z M433.5,191.5c-3.8,19.4-3.7,19.6,5.7,21l4.7,0.7l0.3-10.3c0.3-10.3,0.3-10.4,2.8-10.4
		s2.5,0.1,2.8,9.7c0.1,5.4,0.5,9.8,0.8,9.8c0.2,0,2.8-1.9,5.7-4.3c14.4-11.7,26.3-12.6,39.9-3.1c3.4,2.4,6.4,4.2,6.5,4
		c0.2-0.1-0.2-1.7-0.8-3.5c-0.6-1.7-0.9-4.1-0.6-5.4c0.9-3.3-0.9-5.8-10.9-15c-9.9-9.1-19.8-15.6-28.7-18.7
		C445.4,160.3,438.5,166.5,433.5,191.5z M495,180c5.1,4.8,10.2,8.7,12.8,9.6c4.1,1.6,4.3,1.6,6.6-0.5c3.2-3.1,8.9-11.1,7.8-11.1
		c-0.5,0-1.7,0.9-2.8,2.1c-2.5,2.8-6.7,4.9-9.8,4.9c-1.4,0-6.1-2.4-10.5-5.4C486.7,171.1,485.8,171.2,495,180z M526.8,185.5
		c-4.1,2.3-6.8,8.9-6.8,17.2c0,5.5-0.4,7.6-2,9.6l-2,2.6l2,0.6c1.3,0.4,5.4-0.7,11.2-3c6.3-2.6,10.8-3.7,14.7-3.8
		c3.1-0.1,5.9-0.7,6.3-1.2c0.4-0.6,0.8-3.5,0.8-6.6c0-7-2.7-11.5-9-14.7C537,183.7,530.8,183.4,526.8,185.5z M511.1,198
		c-1.3,0-3.1,2.4-3.1,4c0,1.9,2.8,6,4.1,6c1,0,1.2-5.9,0.3-8.4C512.1,198.7,511.5,198,511.1,198z M481.5,204.1
		c-7.6,0.6-29.5,14.5-31.3,19.8c-0.6,1.7-0.9,3.1-0.6,3.1s2.7-1.8,5.2-4.1c2.6-2.3,7.4-5.5,10.7-7.2c5-2.6,7.1-3.1,13-3.1
		c8.7,0,14.3,2.3,25.8,10.6c7.7,5.6,8.5,6,12.7,5.6c3.1-0.3,7-1.9,11.9-4.8c8.5-5.1,15.2-6.2,21.4-3.7c2,0.9,3.7,1.2,3.7,0.8
		c0-2.1-3.8-3.5-10.9-3.9c-7.5-0.4-7.9-0.3-15.5,3.7c-8.1,4.3-13.6,5.2-17.9,3c-1.2-0.6-6-4.9-10.7-9.4c-6.1-5.9-9.6-8.6-12.5-9.4
		C484.3,204.5,482.1,204,481.5,204.1z M510,215c-0.5,0-1,0.4-1,1c0,0.5,0.5,1,1,1c0.6,0,1-0.5,1-1C511,215.4,510.6,215,510,215z
		 M428.1,216.2c-1.2-0.5,2.4,6.9,5.3,10.7c0.9,1.2,0.6,1.3-1.4,0.8c-2.5-0.6-2.7-0.3-4.4,6.3c-2.7,10.7-9.8,23.6-24.9,45.5
		c-7.6,11-15,22-16.4,24.4l-2.6,4.5l3.9-2.4c2.1-1.3,5-3.1,6.4-4c4.2-2.9,10.5-5.8,18.9-8.9c13.1-4.8,19.7-10.4,25.4-21.6
		c5.6-11.2,7-23.3,4.7-39.8c-1.7-11.8-1.4-11.1-7.7-13.1C432.1,217.6,428.9,216.5,428.1,216.2z M470.4,222.9
		c-19.9,9.7-22.2,14.6-16.5,35.2c3.9,13.9,4.5,18.4,3.2,21.7c-1.2,2.9-6.4,6.7-10.5,7.8c-1.4,0.3-2.6,1-2.6,1.4s11.3,10.9,25.2,23.4
		c27.5,24.6,25.9,23.7,33.2,18.8c7.1-4.9,9.5-8.9,11.7-19.5c1-5.3,3.3-13.6,5-18.4c4.1-11.8,14.3-32,18.3-36.3
		c4.2-4.6,14.6-21.5,14.6-23.8c0-2.8-4.4-6.3-8.7-6.9c-3.2-0.4-5.4,0.4-13.7,4.6c-14.4,7.4-18.1,6.9-32.1-4.4
		c-2.2-1.8-5.9-4.2-8.2-5.4C483.3,218.1,479.5,218.5,470.4,222.9z M434.3,291c-2.8,0-25.8,10.2-35.1,15.6c-15.7,9-32,25-40.9,40.2
		c-12.3,20.8-21.5,44.7-28.9,75.2c-10.3,42-21,67.6-39.5,95.1c-8.6,12.7-23.2,30.3-32.5,39c-17.8,16.7-61.5,50.2-97.9,74.9
		c-24.7,16.8-35.4,25.1-45.1,35.2c-21.1,21.9-32,44.8-33.1,69.8c-0.6,13.2,0.9,20.8,5.9,30.3c5.7,10.6,13.6,17.9,23.6,21.7l5.1,1.9
		l5.2-6c2.8-3.3,6.4-6.6,8-7.4c3.1-1.7,9.5-1.9,15.2-0.6l3.7,0.9v-5.7c0.1-13.9,5.2-30.5,13.9-45c13-21.5,32-38.5,70.1-62.6
		c20-12.5,28.3-18.8,39.9-30c14.4-13.9,18.4-19,37.1-48.3c2.9-4.5,5.4-8.1,5.6-7.9c0.8,0.8-3.8,15.6-6.5,21.1
		c-4,8.1-19.3,27.7-30.6,39c-11.1,11.3-22.3,20-38,29.6c-28.6,17.6-37.7,24.1-50.2,36.5c-22.9,22.6-34.4,44.8-34.2,66
		c0.1,11.3,1.6,16.6,5.4,18.4c9.8,5,19,11.4,26.3,18.5l8.2,8v-4.5c0-6.4,2.7-21.9,5.5-31.9c4.7-16.8,12.1-31.7,23.1-46.6
		c6-8.2,24.1-27.2,22.3-23.4c-0.6,1.4-6.6,10.8-13.2,21c-18.1,27.7-24.8,42.2-29.1,63.3c-2,9.5-3.1,28.7-1.8,30.5
		c1,1.5,26.8,9.8,44.2,14.2c18.4,4.6,31.9,6.4,48.5,6.4c17.9-0.1,27.3-1.7,46.4-8c7.4-2.4,16.1-4.9,19.3-5.5
		c5.6-1.1,7.1-2.9,2.3-2.9c-1.2,0-6.4-2-11.3-4.5c-15.5-7.8-28.1-22.2-33.7-38.4c-3.8-11.4-4.8-20.4-4.2-37.9
		c1.4-35.8,15-74.5,40.4-115.2c6.1-9.7,8.7-12.9,11.3-14.2c1.9-0.9,3.7-1.4,3.9-1.3c0.2,0.2-3.5,7.1-8.2,15.2
		c-17.6,30.7-24.9,46-31.5,65.8c-7.1,21.2-10,44.6-8.2,66c1.8,22.2,5.2,31,16.6,42.2c6.2,6.2,9.2,8.2,19.8,13.3
		c25.7,12.5,45.8,15.7,66.6,10.7c25.5-6.2,36.5-6.6,108.1-3.8c55.6,2.2,58.1,2.2,70.4-0.6c15.8-3.6,25.7-9.8,46.1-29.3
		c17.7-16.9,22.1-20.2,28.4-20.8c4.4-0.4,5.1-0.1,8.9,3.4l4.2,3.7l-0.7-2.9c-2.2-9.5-8.8-10.7-47-8.3c-18.2,1.2-24.2,0.9-38.1-2.1
		c-4.2-0.9-5.3-1.6-5.3-3.1c0-2.8,2-3.2,10.1-2c3.9,0.7,7.3,1,7.5,0.8s-2.9-2.6-6.9-5.2c-3.9-2.7-11.7-9.5-17.3-15
		c-24.3-24.3-40.4-59-47-101.5c-2.9-18.8-3-55-0.3-87.5c1.7-20.4,2.3-35.7,2.4-56.5c0-38.1-1.8-54.1-10-90.5
		c-1.9-8.3-4.5-21.3-5.9-29c-2.9-16.6-4.2-20.8-10.8-34c-7.5-15-6.8-14.5-12.5-9.7c-8.4,7-13.3,8.5-18.1,5.8
		c-4.3-2.3-23.6-19.8-38.4-34.8C439.8,293.6,436.6,291,434.3,291z M543.1,386.6c-1.7-2.8-3.1-4.7-3.1-4.4c0,0.4,1.5,6.9,3.4,14.5
		c4.1,16.9,8.1,41.5,9.6,58.6c1.6,20.7,1.2,56.4-1.1,85.7c-2.4,30.6-2.9,70.5-1,88c5.3,49.5,18.3,81.2,44.9,109.1
		c14.7,15.5,25.8,22.7,39.4,25.5c7.5,1.6,11.5,1.5,25.5-0.7c6.3-1,10.3-1,16.9-0.2c9.3,1.1,12.3,2.7,16.2,8.4c2.1,3,2.3,4.3,2,11.1
		c-0.2,4.3,0,7.8,0.3,7.8c1.2,0,8.2-5.1,10-7.3c1-1.2,3-4.5,4.4-7.4c3.3-6.3,10.4-13.2,17.6-16.9c6.8-3.4,19.7-4.6,24.5-2.1
		c7.1,3.7,8.9,9.8,5.5,18.6c-1.2,2.9-2,5.5-1.9,5.7c1,1,6.9-3.2,7.4-5.3c1.7-6.4-2.8-19.2-9.1-26.1c-7-7.8-15.6-11.3-32.5-13.3
		c-19-2.2-36.5-10-57.3-25.5c-13.3-9.8-14.5-11-12.9-12.6c0.7-0.7,4.7,1.3,12.9,6.4c16.3,10.4,25.8,15.4,34.2,18.3l7.1,2.4l8.7-12.2
		c20.6-29.1,24.3-33.7,29.7-36.7c7.5-4.4,13.9-3.9,16.8,1.3c0.7,1.2,1.5,5.3,1.8,9.2l0.5,7l2.3-3.5c1.2-1.9,2.2-4.9,2.2-6.7
		c0-8.5-13.7-15.7-46.9-24.8c-35.2-9.6-57.5-29.4-74.6-66c-13.8-29.5-22.5-56.4-35.4-108.6c-2.8-11.3-6.7-25.2-8.6-30.9
		c-3.6-10.3-11-26-14.7-31.3c-2.2-3.1-6.2-3.8-5.1-1c0.6,1.7,0.5,1.7-1.3,0.2c-1-1-2.8-1.9-3.9-2.1c-1.1-0.2-3.6-2.8-5.6-5.9
		c-4.1-6.1-7.8-9.3-15.4-13.2c-2.7-1.4-6.2-3.8-7.6-5.4C547.4,392.8,544.8,389.3,543.1,386.6z"/>
	<path d="M492.5,90.2c2.3,1.1,3.4,2.8,1.7,2.8c-0.4,0-5.6,2.7-11.6,6c-6,3.4-11.1,5.9-11.4,5.6c-1-1.1,5.7-11.2,8.8-13.4
		C483.6,88.8,488.5,88.4,492.5,90.2z"/>
	<path d="M509.9,250.5c13.8,3,25.4,5.5,25.8,5.5c0.5,0,0,0.5-1.1,1.1c-1,0.6-6.4,1.4-12.1,1.7c-8.6,0.4-11.4,0.1-17.1-1.6
		c-5.9-1.8-18.7-8.5-21.8-11.3C482,244.4,483.6,244.7,509.9,250.5z"/>
	<path d="M433,313c0.4,0,1,0.6,1.3,1.4c0.4,1-2.5,3.8-8.6,8.4c-27.9,20.9-49.9,51.1-66.2,90.7c-4.9,11.9-14.4,40.8-18.6,56.7
		c-1.9,7.1-3.7,12.8-4,12.8c-1.5,0-1.7-10.8-0.4-17.7c3.1-16.1,11.2-41,20.4-62.8c15.3-35.9,37.5-64.2,65.3-82.8
		C427.7,316,432.6,313,433,313z"/>
	<path d="M486,345h2.9h2.9l0.4,7.2c0.5,11.9-0.9,27.7-3.6,37.8c-5.8,22.6-34.6,82.2-56.8,117.3c-12.9,20.6-33.3,48.5-34.5,47.4
		c-0.8-0.9,4.2-12.5,8.5-19.7c2.5-4.1,8.9-14,14.3-22c16.9-25.2,29-47.8,50.2-94c12.6-27.5,15.7-39.6,15.7-61.6V345z"/>
	<path d="M498,345c1.1,0,8.8,15.2,11.4,22.5c7.2,20.1,9.6,41.3,7.7,69.3c-0.7,10.2-1.5,19-1.7,19.4c-0.3,0.4-1.2,0.8-2,0.8
		c-1.2,0-1.4-2.8-1.4-16.8c-0.1-42.1-4.8-71.4-14.5-88.9c-1.6-3-2-4.4-1.2-5.2C496.9,345.5,497.7,345,498,345z"/>
	<path d="M506,489c1.9,0,5,1.4,5,2.2c0,0.6-5.2,15.7-11.6,33.6c-14.2,39.7-16.3,46.4-21.4,66.2c-7.2,28.4-10,49.9-10.1,77.9
		c0,9.7-0.4,19.6-0.8,22.1l-0.7,4.5l-1.1-5c-3.1-13.5-3.5-19.3-3-37.9c1-38.1,10.3-76.5,31.9-132.6c4.2-10.7,8.4-22.1,9.4-25.2
		C504.7,491.6,505.7,489,506,489z"/>
	<path d="M328.2,531.5c0.3,0.3-0.9,6.5-2.6,13.8c-2.5,10.5-3.5,13.3-5,13.5c-1,0.2-2.2,0-2.7-0.5c-0.6-0.6,2.9-20.7,4.6-26.1
		C322.9,531,327.2,530.5,328.2,531.5z"/>
	<path d="M478.8,728.1c0.3-0.1,11.3,23.2,11,23.4c-1.1,0.8-5,2.6-5.2,2.3c-0.7-0.9-10.6-22.2-10.6-22.8c0-0.4,1-1.2,2.3-1.8
		C477.5,728.6,478.6,728.1,478.8,728.1z"/>
	<path d="M559,410.5l2.5,3c19.3,22.6,43,68.5,54.3,105.1c8.4,27.1,11.6,44.8,17.2,96.4c5.9,54.1,6.1,55.4,11.9,71.2
		c2.8,7.6,5.1,14.3,5.1,15s-2.4-1.5-5.2-4.7c-2.9-3.3-11.2-12.5-18.5-20.5c-12.3-13.5-13.1-14.6-11.6-16.2c0.9-1,2.1-1.8,2.7-1.7
		c0.6,0,4.5,4,8.6,8.9c4.1,4.8,7.6,8.7,7.7,8.6c0.2-0.1-0.4-3.4-1.2-7.2s-1.9-13-2.5-20.4c-7.8-99.9-21.9-150.3-59-209.9
		c-8.8-14.2-10.4-17.5-11.4-23.6L559,410.5z"/>
</g>
</svg>
