<?xml version="1.0" encoding="utf-8"?>
<!-- Generator: Adobe Illustrator 21.0.0, SVG Export Plug-In . SVG Version: 6.00 Build 0)  -->
<svg version="1.1"
	 id="svg88" inkscape:version="0.92.2 5c3e80d, 2017-08-06" sodipodi:docname="84.svg" xmlns:cc="http://creativecommons.org/ns#" xmlns:dc="http://purl.org/dc/elements/1.1/" xmlns:inkscape="http://www.inkscape.org/namespaces/inkscape" xmlns:rdf="http://www.w3.org/1999/02/22-rdf-syntax-ns#" xmlns:sodipodi="http://sodipodi.sourceforge.net/DTD/sodipodi-0.dtd" xmlns:svg="http://www.w3.org/2000/svg"
	 xmlns="http://www.w3.org/2000/svg" xmlns:xlink="http://www.w3.org/1999/xlink" x="0px" y="0px" viewBox="0 0 850 850"
	 style="enable-background:new 0 0 850 850;" xml:space="preserve">
<style type="text/css">
	.st0{fill:none;}
	.st1{fill:#FFA500;}
	.st2{fill:#FFFF00;}
	.st3{fill:#DEB887;}
	.st4{fill:#0000CD;}
	.st5{fill:#FF1493;}
	.st6{fill:#FF8C00;}
	.st7{fill:#7CFC00;}
	.st8{fill:#D2691E;}
	.st9{fill:#8A2BE2;}
	.st10{fill:#800000;}
	.st11{fill:#FF0000;}
	.st12{fill:#B22222;}
	.st13{fill:#006400;}
</style>
<sodipodi:namedview  bordercolor="#666666" borderopacity="1" gridtolerance="10" guidetolerance="10" id="namedview90" inkscape:current-layer="svg88" inkscape:cx="825.83876" inkscape:cy="567.56129" inkscape:pageopacity="0" inkscape:pageshadow="2" inkscape:window-height="978" inkscape:window-maximized="1" inkscape:window-width="1920" inkscape:window-x="0" inkscape:window-y="1" inkscape:zoom="0.58897835" objecttolerance="10" pagecolor="#ffffff" showgrid="false">
	</sodipodi:namedview>
<g id="g86" transform="translate(0.000000,0.000000) scale(1.00000,1.00000)">
	<path id="path4" class="st0" d="M0,0h425h425v425v425H425H0V425V0z M409.2,23.9c-13.5,13.3-19.2,28.4-17.8,47.3
		c0.7,10,1.9,8.5-10.4,12.7c-8.5,2.9-11.8,4.3-15.8,6.7c-22.5,12.9-36.7,31.9-47.7,63.4c-5.1,14.8-8.1,28.6-11.5,53
		c-4.4,32.6-6,43-7.3,47.4c-1.1,3.8-5.7,8-25.1,23c-2.8,2.2-10.3,8.1-16.6,13.1c-19,15.2-34.5,25-46.3,29.4
		c-7.4,2.7-10.7,4.4-17.9,9c-7.4,4.6-7.8,7.6-1.8,11c2.2,1.2,4,2.4,4,2.7c0,0.2-3.8,7.8-8.5,16.8c-4.7,9.1-8.5,17.2-8.5,18
		c0,2.1-4.1,19.7-8,34.1c-5,18.8-13.3,54.9-14.3,62c-0.2,1.6-1.6,8.2-3,14.5c-1.4,6.3-3.9,18.2-5.6,26.5c-2.9,14.2-4.6,23-10.6,56
		c-1.4,7.7-3,18.5-3.5,24c-0.5,5.5-1.4,13.1-1.9,17c-2.7,17.7-4.3,38-4.8,61.5c-0.6,24.6-0.5,25.7,1.5,29.7
		c3.8,7.4,5.8,8.2,23.3,8.8c22.5,0.9,45.5,4,48.2,6.5c0.5,0.4,1.2,7.2,1.6,15.1l0.7,14.4l5.5,7.5c13.1,17.6,28.3,27.9,55.4,37.5
		c7.4,2.6,8.8,3.6,18.5,13c6.3,6,12.5,11,15.5,12.5c11,5.2,14.5,8.8,14.5,14.5c0,1.4,1.3,3.9,2.8,5.6c2.5,2.8,3.3,3.1,6.4,2.5
		c1.9-0.3,5.8-2.4,8.7-4.5c5.6-4.2,7-4.6,25.1-6.1c6.3-0.5,14.8-1.8,18.8-3c4-1.1,8.9-2.3,10.9-2.6c2-0.3,4.6-0.9,5.8-1.4
		c3.7-1.4,14.6-3.8,26-5.7c9.3-1.5,15.1-1.7,37-1.4c59,1,66.1,0.8,77-1.8c13-3.2,26.4-8.6,36.2-14.6c10.6-6.6,29.6-22.8,37.9-32.2
		c15-17.2,23.2-23.2,37.2-27.8c10.2-3.3,21.7-12.8,25.7-21.2c0.9-1.9,2.1-6.7,2.7-10.7c2.4-18.3,7.8-27.7,20.3-36
		c13.1-8.8,19.3-19.3,18.2-31c-1.1-11.4-2.8-22.1-4.4-28.1c-0.9-3.3-1.6-8.9-1.7-12.5c-0.1-6.2,0.3-7.2,7.2-20.9
		c13.1-26.2,15.1-36.6,10.7-56.3c-4.1-18.6-9.4-40.5-11.7-48.3c-6-20.4-21.7-67.2-23.8-70.7c-0.5-1-1-2.3-1-3c0-0.6-1.4-4.8-3.1-9.2
		c-11.3-29.5-15-38.9-16.9-43.1c-12.6-27-14.8-33-15.4-41.5c-1-13.3-1.9-15.5-9.7-23.5c-3.8-3.9-6.9-7.5-6.9-7.8
		c0-0.4,1-0.7,2.3-0.7c1.2,0,2.9-0.5,3.7-1c1.3-0.9,0.9-1.6-2-4.3c-2.6-2.4-6.8-4.3-17-7.6c-28.2-9.1-40.7-14.6-59.7-25.9
		c-5.4-3.3-11.4-6.7-13.3-7.6c-9.4-4.4-26.2-13.9-28.2-16c-1.6-1.6-7-15-18.4-46.1c-5.1-13.8-7.7-19.6-11.5-25.8
		c-3.4-5.7-3.9-7.5-4.9-17c-1.1-10.1-1.1-10.8,1.2-16.8c2-5.4,3.8-7.8,13.3-17.2c6.1-6,12.7-12,14.7-13.3c3.9-2.5,6.8-6.9,6.8-10.4
		c0-4.8-6-11.9-13.2-15.6l-3.1-1.6l0.6-7.7l0.6-7.7l-2.8,0.4c-2.3,0.3-3.4-0.4-6.4-3.9c-2.1-2.3-3.7-4.5-3.7-4.9
		c0-1.6-6.4-4.2-9.2-3.6c-3.2,0.6-6.4-0.7-13.7-5.7c-2.4-1.6-7.4-4-11-5.3C440.2,4.7,423.7,9.5,409.2,23.9z"/>
	<path id="path6" class="st1" d="M467.7,18.3c9.1,5.3,10.5,7.8,1.7,3.2c-10.2-5.4-14.3-4.6-22.6,4.4c-6.6,7.2-10.4,8.3-15,4.4
		c-1.9-1.7-2.5-0.9-3.7,4.9c-0.9,4.4-6.1,19.4-13.6,39.3c-2.6,6.9-4.8,11.1-5.8,11.3c-0.8,0.2-4.4-1.4-7.9-3.5l-6.3-3.8l-0.3-9.8
		c-0.4-12.7,2.8-23.8,10-34.7c6.9-10.5,16.5-17.9,27.2-21.1C443.5,9.4,455.3,11.1,467.7,18.3z"/>
	<path id="path8" class="st2" d="M468.6,23.6c3.7,2.2,4.9,2.4,10.8,1.8l6.7-0.7l6.8,6.6l6.8,6.6l-1.3,3.8c-0.8,2.1-1.4,3.8-1.4,3.9
		c0,0-3-0.6-6.7-1.4c-4.6-0.9-10.5-1.2-18.3-0.9c-18.7,0.8-31.2,6.2-44.6,19.5c-4.3,4.2-7.5,6.9-7.1,6c0.3-0.9,1.1-3.6,1.7-6
		c0.7-2.4,2.2-7.5,3.5-11.3c1.2-3.9,3-9.5,4-12.6c1.7-5.6,1.8-5.6,4.5-4.6c3.9,1.5,10.1-1.4,14.2-6.5c1.6-2.1,4.7-4.7,6.7-5.8
		C459.1,19.7,462.6,20.1,468.6,23.6z"/>
	<path id="path10" class="st1" d="M489.8,47.2c4.5,0.8,8.9,2.6,14.1,5.8c6.6,3.9,7.8,5.1,9.1,8.7c2.1,6.1-0.1,10.2-7.5,14.4
		c-4.6,2.6-5.3,3.4-4.4,4.5c1,1.2,0.6,2.1-1.6,4.4c-3.2,3.4-6.1,4.1-5,1.2c0.4-0.9,1.3-3.9,2-6.5l1.3-4.9l-2.7,0.6
		c-4.3,1-16.1,1.3-15.5,0.4c0.3-0.4,1.1-0.8,1.9-0.8s1.6-0.4,1.9-0.8c0.3-0.5-2.7-0.2-6.7,0.5c-14.8,2.9-28.8-0.4-38.4-9.1
		c-4.4-3.9-5.3-3.8-5.3,0.6c0,4.8-2.6,9.5-8.4,15.3c-4.7,4.6-6.2,5.5-9.2,5.5h-3.5l1.8-3.1c2.9-4.9,13.4-17,20.2-23
		c7.5-6.6,18.5-11.7,28.6-13.1c3.8-0.5,7.2-1.2,7.4-1.4C470.8,45.5,483.6,46.1,489.8,47.2z"/>
	<path id="path12" class="st3" d="M437.9,69.4c0.9,0.8,4.1,2.6,7.1,4.2c4.6,2.4,6.8,2.9,15,3.1c5.2,0.2,12.4,1,16,1.8
		c5.6,1.3,7.3,1.3,12.3,0.1c3.1-0.7,5.9-1,6.2-0.7c0.6,1-2.3,6.4-4.2,7.8c-0.9,0.7-2.7,1.3-4,1.3s-2.3,0.4-2.3,1
		c0,0.5,1.3,0.7,3.1,0.3c5.4-1.1,2.9,2-3.2,3.9c-6.1,2-10.9,6.5-10.9,10.3c0,2.2,0.4,2.5,4,2.5c2.2,0,4,0.4,4,0.8
		c0,2.2-4,12.3-6.3,15.8c-1.4,2.1-6.7,8.1-12,13.1c-7.5,7.4-10,9.3-12.3,9.3c-4.3-0.1-11.6-5.9-18.7-15c-3.4-4.3-6.3-7.7-6.4-7.6
		c-0.2,0.1,1.1,2.9,2.7,6.1c1.7,3.2,3,5.9,3,6c0,0.1-2-0.1-4.4-0.5c-8.5-1.3-18.8-9.7-18.8-15.4c0-4.2,3.4-14,6.4-18
		c1.5-2.2,2.8-5.2,2.8-6.7c0-2.2,1-3.5,4.4-5.8c6.2-4.3,12.4-11.7,13.2-15.7C435.3,67.6,435.7,67.4,437.9,69.4z M446.6,81.3
		c-3.6,1.1-3.3,1.2,5.7,1.2c5.6,0,9.2-0.4,8.7-0.9C459.6,80.2,450.8,80,446.6,81.3z M443.7,93.4l-2.9,2.3l3.7,2.3
		c6.4,4,15.5,2.2,15.5-3c0-1,0.9-2.9,2-4.3l2-2.5l-2.3-0.6C456.2,86.1,450.1,88.1,443.7,93.4z M446.8,122c-2.6,0-2.8,0.2-2.2,2.7
		c2,8.5,8.4,14,13.3,11.4c1.9-1.1,9.6-10.9,9-11.5c-0.2-0.2-4.2-0.9-8.8-1.5S448.4,122,446.8,122z"/>
	<path id="path14" class="st4" d="M459,94.5c0,1.8-2.7,4.5-4.5,4.5c-1.1,0-0.9-0.8,0.6-3.5C457.1,92.1,459,91.6,459,94.5z"/>
	<path id="path16" class="st5" d="M455.5,127.1c3.5,0.2,4.2,0.5,3.4,1.5c-2.4,2.9-7.9,2.4-7.9-0.8C451,127.3,453,127,455.5,127.1z"
		/>
	<path id="path18" class="st5" d="M451,130.5c1,0.9,3.1,1.7,4.4,1.7c1.4,0,2.3,0.4,2,0.9c-1.1,1.9-8.4-1.1-8.4-3.4
		C449,129.2,449.9,129.5,451,130.5z"/>
	<path id="path20" class="st1" d="M396.8,83.2c-0.4,1.3-4,3.4-10.8,6.3c-25.5,11.1-44.8,42.3-62.5,100.8
		c-3.4,11.2-5.5,27.1-5.5,41.5c0,12.7,1,10.7-9.5,19.2c-3.5,2.9-5.1,3.6-5.3,2.6c-0.2-0.8,0.8-8.9,2.3-17.9c1.4-9.1,3-21,3.5-26.4
		c0.9-9.2,2.1-16.8,5-32.3c1.9-9.6,7.7-27.4,11.9-36.5c5.9-12.5,14-24.2,23.6-33.8c10.2-10.2,18.8-15.7,33-20.9
		C393,81.9,397.4,81.1,396.8,83.2z M352.5,111c-0.8,0-9.4,11-13.3,17c-6.4,10.2-15.2,30-13.2,30c0.6,0,1-0.6,1-1.4
		c0-3.7,11.5-24.6,21.7-39.5C351,113.8,352.7,111,352.5,111z"/>
	<path id="path22" class="st6" d="M399.4,86c0.6,0-1.4,2.1-4.4,4.7c-10,8.5-17.8,17.1-24.7,27.5c-9.6,14.3-14,25.3-17.2,42.3
		c-0.5,2.7-2.8,9.7-5.1,15.5c-2.3,5.8-4.4,11.4-4.7,12.5c-1.2,4.7-11.7,29.6-18.9,45c-4.5,9.7-4.8,9-4.1-10.5
		c0.3-10.8,1.1-16,3.6-26c2.9-11.4,7.9-26.5,12.9-39.5c2.8-7.3,13.7-28.9,18.5-36.9c6.9-11.3,25.2-28.6,30.4-28.6
		c0.4,0-0.9,1.7-2.8,3.7c-5.6,6-13.2,16.4-12.4,17.1c0.4,0.4,1.6-0.6,2.8-2.3c4.1-5.6,8.2-9.8,16.6-17.2
		C394.5,89.3,398.7,86,399.4,86z"/>
	<path id="path24" class="st1" d="M396.1,108.1c-4.8,9.6-10.1,20.7-11.7,24.7c-2.5,6.6-3.4,7.8-8.3,11.3c-3.1,2.2-9.1,6.4-13.3,9.5
		c-7.6,5.4-7.8,5.5-7.8,3c0-4.5,5.8-18.7,11.7-28.6c9.7-16.3,21.1-29.3,32.8-37.2C407.2,85.5,407,86.7,396.1,108.1z"/>
	<path id="path26" class="st7" d="M413.8,95.7c-1.7,6.2-8.8,5.1-8.8-1.3c0-1.2,1.2-3.2,2.6-4.3C411.9,86.7,415.4,89.9,413.8,95.7z"
		/>
	<path id="path28" class="st6" d="M404.8,101.2c4.2,3.3,4.2,5.8-0.3,15.2c-2.6,5.6-5.2,8.9-11,14.4c-7.8,7.5-10.1,8.8-8.6,4.9
		c4-10,9.8-21.8,14.7-30C402.7,100.6,403.4,100,404.8,101.2z"/>
	<path id="path30" class="st8" d="M478.8,121c0.1,0,0.2,2.3,0.2,5v5.1l-3-1.6l-3-1.6l2.7-3.4C477.3,122.6,478.6,121,478.8,121z"/>
	<path id="path32" class="st3" d="M403.2,127c0.4,0,1.2,0.8,1.7,1.8c1.7,3.1,11.3,9.2,17.7,11c4.3,1.4,6.9,1.6,9.5,0.9
		c3.1-0.7,4.5-0.4,8.8,1.7c5.7,3,12,3.4,15.5,1.1c1.3-0.9,4.5-4.2,7.1-7.5c2.7-3.3,5.3-6,6-6c2.2,0,4,5.1,3.8,10.9
		c-0.2,9.6-6.8,22.8-18.1,36.6c-4.5,5.3-6.6,7.1-9.2,7.6c-5.1,1.1-12.4-0.7-21.5-5.3c-8.5-4.3-10.6-5.8-25.3-17.8
		c-12.2-9.9-16.5-13.3-18.8-14.7c-1.9-1.1-1.9-1.2,0.1-2.6c1.1-0.8,6.5-5.1,12-9.6C398,130.7,402.8,127.1,403.2,127z"/>
	<path id="path34" class="st9" d="M476.3,133c1.9,0,7.2,5.8,9.6,10.5c3.1,6.1,10.1,22.7,10.1,23.9c0,0.6,0.6,2.3,1.4,3.8
		c0.8,1.4,1.9,4.3,2.6,6.5c0.7,2.1,2.5,7.2,4,11.3c6.9,18.4,9,24.3,9,25.5c0,0.7-2.1,1.8-4.7,2.5c-2.7,0.7-5.2,1.7-5.8,2.3
		c-0.7,0.7-0.3,0.7,1,0.2c3.4-1.3,15.1-1.8,17-0.8c1.5,0.9,1,1.4-3.5,3.9c-2.9,1.6-6,4-6.9,5.4c-1.5,2.3-1.3,2.2,2.9-0.7
		c3.8-2.8,5.4-3.3,11-3.4c7.4-0.2,8.4,0.2,38.5,17.2c16.9,9.5,27.6,14.6,39.3,18.4c6.2,2,12.4,3.8,13.8,4.1c1.5,0.3,4.3,1.2,6.3,2.1
		l3.6,1.6l-6,1.2c-3.3,0.6-9.3,2.4-13.4,4l-7.3,2.9l-12.7-3.1c-6.9-1.8-14.2-3.5-16.1-3.8c-1.9-0.4-6.6-1.6-10.5-2.7
		c-3.8-1.1-8.1-2.2-9.5-2.4c-1.4-0.3-5-1.3-8-2.3c-3-1.1-7.5-2.4-10-3.1c-2.5-0.6-9.5-3.6-15.7-6.6c-9.2-4.5-12.1-6.5-17-11.7
		c-3.2-3.5-7.7-9.7-10.1-13.9l-4.3-7.5l2.6-5.4c3.5-7.6,3.6-21.4,0.1-31.5c-1.2-3.8-2.6-9.4-3-12.5c-0.4-3.1-1.3-6.5-2-7.4
		c-1.1-1.5-1.3-0.7-1.2,5c0.1,6.2-0.1,6.9-2.6,8.7c-2.7,2.1-24.9,10.1-25.7,9.2c-0.2-0.2,0.2-1,1.1-1.7c2.1-1.7,11.9-16.9,15.5-24.2
		c3.4-6.7,5.3-14.3,5.3-21C475,134.5,475.4,133,476.3,133z"/>
	<path id="path36" class="st9" d="M397.5,163.9c11.5,9.3,17.6,13.4,26.1,17.6c14.3,7.1,20,8.4,28,6.2c12.6-3.4,16.1-4.5,20.4-6.6
		c2.5-1.2,5.2-2.4,6-2.6c0.8-0.2,2.4-0.7,3.5-1c1.8-0.5,2.3,0.3,4.3,6.8c4,13.5,2.6,22-5.8,34.2c-3.5,5.1-10.2,19.1-12,25
		c-0.8,2.8-1,7.9-0.5,16.5c1.5,28.6,1.6,27.5-3.7,36c-2.6,4.1-5.9,9.6-7.3,12.2c-1.3,2.6-2.9,4.9-3.5,5.3c-0.5,0.3-5.5-2.9-11.1-7.2
		s-11.2-8.6-12.5-9.6c-2.7-2.1-10.5-6.5-18.9-10.8c-12.2-6.1-11.4-5.2-10.8-11.8c0.7-7.5-1.5-12.5-12.9-29.3
		c-4.7-6.7-9.3-13.7-10.3-15.5l-1.8-3.1l6.1-5.7c7.2-6.6,8.5-9.7,1.5-3.6c-2.5,2.3-4.8,4-5,3.8c-0.2-0.3,1-3.9,2.7-8.1
		c1.7-4.3,2.9-8.3,2.7-8.9c-0.5-1.3-0.4-1.5-3.8,7.6c-1.1,3.2-4.3,8.6-7,12c-2.7,3.4-6.6,8.8-8.6,12c-2.1,3.3-6.3,9.3-9.3,13.5
		c-3,4.3-7.7,10.9-10.3,14.9c-7.5,11.1-20.4,23.4-31.3,29.8c-19.5,11.5-42.2,21.9-63.4,29.2c-5.8,2-14.2,5.1-18.7,7
		c-8,3.3-8.4,3.3-23.7,3.3c-8.6,0-15.6-0.4-15.6-0.9c0-1.1,12.1-7.1,22.5-11c7.5-2.9,19-9.5,31.7-18.3c5.7-4,10.1-7.4,34.3-26.8
		c16.5-13.3,24.9-19.3,33-24.1c4.2-2.4,6.1-2.9,12-2.9c7.2,0,13-1.8,7-2.1c-7.5-0.5-8.7-0.7-9.6-1.6c-0.6-0.6-0.1-2.2,1.3-4.4
		c2.6-3.9,7.7-14.8,10.7-22.9c8-21.7,14.6-38,18.3-45.5c4.5-8.9,11.8-18.4,16.3-21.1C375.9,146.9,377.1,147.4,397.5,163.9z
		 M405.5,232.7c-2-1-2-1-0.1,1.1c5.4,6.1,19,8.2,27.1,4.2c2.2-1.1,3.1-1.8,2-1.4c-5.3,1.6-9.8,1.5-18.1-0.6
		C411.5,234.8,406.6,233.3,405.5,232.7z M319.5,251.1c-2.5-0.9-2.7-0.8-1.1,0.2c1.1,0.6,3.5,2.5,5.4,4.2c2.8,2.3,3.3,2.5,2.4,0.9
		c-0.6-1.1-1.7-2.6-2.4-3.2C323,252.6,321.1,251.7,319.5,251.1z"/>
	<path id="path38" class="st0" d="M482.3,222c0.2,0,2.8,3.7,5.7,8.2c7.2,10.9,13.2,16.6,21.5,20.7c3.9,1.8,7.7,3.6,8.5,4
		c6.5,3.1,58.6,18.6,67.5,20.1c16.6,2.8,18.2,3.2,19.2,6c0.6,1.5,3.2,4.2,5.9,6c5.5,3.7,9.4,7,9.4,8c0,0.4-1.9,1.2-4.2,1.9
		c-5.2,1.6-10.1,4.7-21.4,13.8c-9.7,7.8-12.7,9.3-17.8,9.3c-6.9,0-26.3-8.6-44.1-19.6c-4.9-3.1-15.2-8.8-22.8-12.7
		c-15.8-8.2-15.7-8.1-20.8-24.2c-2.7-8.4-6.9-31.9-6.9-38.6C482,223.3,482.2,222,482.3,222z"/>
	<path id="path40" class="st6" d="M372,227c0.3,0,2.3,3.1,4.5,6.8l4,6.7l-0.3,19.4c-0.1,14.9-0.5,20-1.6,21.7
		c-1.3,1.9-15.3,10.4-17.3,10.4c-0.4,0-0.8-10.9-0.8-24.3v-24.2l5.5-8.3C369,230.7,371.7,227,372,227z"/>
	<path id="path42" class="st1" d="M479.1,227c0.3,0,0.9,3.9,1.2,8.7c0.7,11.4,3.9,27.1,7.2,35c3,7.4,3,7.9,0.8,8.7
		c-2.5,1-4.5-1.7-9.8-13.4c-8.5-19-8.6-19.7-2.8-32.7C477.3,229.9,478.8,227,479.1,227z"/>
	<path id="path44" class="st6" d="M384.8,247.6c0.4,0.6,2.8,4.2,5.4,8c9.9,14.8,8.6,24.1-3.4,24.8l-4.3,0.2l0.6-16
		c0.4-8.9,0.7-16.6,0.8-17.1C384,246.9,384.3,246.9,384.8,247.6z"/>
	<path id="path46" class="st6" d="M358.5,248c0.3,0,0.5,10.5,0.5,23.4v23.4l-5.2,5.1l-5.3,5l-0.6-3.7c-0.4-2-1-10.7-1.3-19.2
		c-0.8-17.3-1.1-16.2,7.2-27.9C356.1,250.7,358.3,248,358.5,248z"/>
	<path id="path48" class="st6" d="M470,253c0.6,0,1.5,1.2,2.1,2.7c0.6,1.6,2.2,5,3.4,7.8c2.8,5.9,2.3,7.2-1.1,3
		c-1.3-1.7-2.4-2.5-2.4-1.8c0,0.6,0.5,1.5,1.1,1.9c1.1,0.6,7.9,10.9,7.9,11.9c0,1.2-7.8,0.4-8.9-0.9c-0.6-0.8-1.4-6.3-1.7-12.2
		c-0.3-5.9-0.8-11.2-1-11.6C469.1,253.4,469.4,253,470,253z"/>
	<path id="path50" class="st1" d="M343.5,268.7l0.6,14.9c0.3,8.2,0.9,16.1,1.3,17.5c0.4,1.5,0.2,3.9-0.6,5.8
		c-1.1,2.8-22.4,26.8-23.9,27c-0.6,0.1-2.9-27.4-2.9-35.2c0-3.3,0.5-5.1,1.8-6.1c10.9-8.9,14.7-12.4,18.8-17.7L343.5,268.7z"/>
	<path id="path52" class="st3" d="M617.6,271.1c2.7-0.1,7.2,3.3,17.2,13.1c8.9,8.9,10.2,11.5,10.2,20.8c-0.1,5-0.2,5.3-1.5,3.6
		c-0.8-1.1-1.7-3.6-2.1-5.5c-0.9-5.4-2.5-10.1-3.4-10.1c-0.4,0-1.1,1.6-1.5,3.6c-0.3,2-0.9,3.3-1.3,3c-0.3-0.4-1.8-4.4-3.3-8.9
		c-2.9-8.6-3.9-8.2-1.5,0.6c0.8,2.9,1.7,7.7,2.1,10.7l0.6,5.4l-2-1.8c-1.2-1.1-3.1-4.6-4.3-7.9c-2.2-6.1-8.9-15.7-10.9-15.7
		c-0.6,0,0.6,2.1,2.7,4.7l3.9,4.8l-6.5-3.7c-6.4-3.5-11-8.5-11-11.8c0-1.2,1.6-2.2,5.3-3.2C613.1,271.9,616.4,271.2,617.6,271.1z"/>
	<path id="path54" class="st10" d="M392,282c0,0.5-1,1.6-2.2,2.3c-14.8,9.1-16.4,10.9-4.2,4.8c7.5-3.8,14.4-5.9,14.4-4.3
		c-0.1,0.8-3.1,2.9-20.3,14.5c-6.5,4.4-11.6,8.1-11.4,8.4c0.3,0.2,4.2-2,8.8-4.8c4.6-2.9,11.1-6.8,14.4-8.7c3.3-2,6.9-4.3,8-5.2
		c2.3-2,4.5-3.3,4.5-2.7c0,0.2-4.5,4.5-10,9.5c-5.5,5.1-9.6,9.2-9,9.2s5.4-3.6,10.7-8c5.9-4.8,10.6-8,12-8c1.3,0,2.3,0.1,2.3,0.3
		c0,0.1-2.8,3.2-6.2,6.8c-3.5,3.6-9,10.5-12.3,15.3c-8.7,12.7-9.2,13.6-4.9,8.6c2.1-2.5,5.9-6.8,8.4-9.5c2.5-2.8,7.5-8.4,11-12.5
		c3.5-4.1,6.4-7.5,6.4-7.4c0.1,0,1.6,0.6,3.5,1.2l3.3,1.2l-7.8,8.7c-10.9,12.1-11.8,13.2-11.2,13.8c0.3,0.3,4.9-4,10.3-9.5
		c5.4-5.5,10.5-10,11.4-10c0.8,0,2.2,0.7,3.2,1.6c1.7,1.6,1.6,1.9-2.5,5.8c-4.4,4.3-12.6,16.1-12.5,18c0,0.6,0.8,0,1.7-1.4
		c2.9-4.3,16.4-19,17.3-19c1.6,0,5.9,3.2,7,5.2c0.7,1.3,0.4,5.7-1,15.1c-1,7.3-2.4,19.9-3.1,28.2c-0.6,8.2-2,26.2-3,40
		c-2.3,28.8-2.4,30.8-1,30c0.6-0.3,1-4.3,1-8.8c0-4.5,0.9-16.5,2-26.7c1.1-10.2,2.2-21.9,2.5-26c1-13.2,5.8-50,6.6-50
		c2.8,0,3.3,5.5,3.7,43.5c0.5,43.6-0.1,56.2-5.8,122c-2.2,25.4-8.9,74-13.5,98.5c-9.6,50.5-12.9,67-16.6,83.1
		c-1.6,6.9-2.9,13.2-2.9,14s-1.3,7.2-3,14.4c-1.6,7.1-4.1,18.2-5.4,24.5c-1.4,6.3-4.1,18.7-6,27.5c-3.9,18.1-5,24.5-4.3,24.5
		c0.3,0,1.1-2.6,1.7-5.8c0.6-3.1,2.2-10.2,3.5-15.7c2.8-12,7.6-33.6,11.1-50c1.4-6.6,3.8-17.9,5.4-25c8.1-37.5,21.5-108.8,25-134
		c9-64.1,11.9-105.5,12-168.8c0-26.2,0.3-47.7,0.8-47.7c1.8,0,8.1,14.8,10.2,24c0.5,1.9,1.7,6.5,2.8,10.2c3,9.8,7.8,36.7,10.4,57.8
		c3.3,26.3,3.3,85.5,0,125.7c-2.3,27.8-2.5,31.9-1.8,31.2c0.4-0.4,2.9-24.3,4.7-44.4c1.7-20.2,1.4-91.3-0.4-106.5
		c-3.1-25-3.9-30.7-6.4-42.5c-1.4-6.6-2.9-14.1-3.3-16.6c-0.7-3.8-3.1-12.6-7-25.2c-0.5-1.5-0.7-2.7-0.4-2.7
		c1.3,0,16.5,38.7,18.4,47c0.4,1.9,1.9,7.3,3.3,12c3.3,11.5,6.4,25.4,8.2,37.5c0.8,5.5,2.1,14.3,2.9,19.5
		c6.1,39.5,11.4,203.7,8.8,269c-0.7,16.2-1.9,36.9-2.7,46c-0.8,9.1-1.5,16.6-1.5,16.8c0,0.2,0.4,0.1,0.9-0.2
		c1.1-0.7,2.8-20,4.3-50.6c3.1-61.9,0.1-196-5.7-257c-1.4-14.3-5-41.2-7.5-55.5c-4.5-25.5-15.4-59.4-27.4-84.7c-3-6.4-3.2-8.1-1-9.9
		c1.5-1.2,2.2-0.7,6.3,3.7c7.8,8.4,22.9,32.1,30.6,47.9c6.7,13.7,14.5,32.1,14.5,34.1c0,0.4,1.3,4.4,2.9,8.8
		c5.1,14.5,11.6,40.6,16,64.6c2.1,11.5,2.7,15.6,5.6,37c0.8,6.3,2,11.9,2.6,12.5c0.8,0.7,0.9,0.1,0.5-2c-0.3-1.7-1.5-10-2.6-18.5
		c-3.4-25.5-10.8-62.4-16.6-82c-3.2-10.9-9.2-28.9-10.4-31.5c-0.5-1.1-3-7-5.6-13c-8.3-19.8-18.5-37.3-32.1-54.7
		c-5-6.5-8.3-11.5-7.9-12.3c1.4-3.7,8.9,0.1,14.1,7.1c1.6,2.2,4,5.4,5.2,7l2.2,2.9l-1.7-4.5c-1-2.7-4.4-7.3-8.4-11.6
		c-3.8-3.9-6.8-7.6-6.8-8.3c0-2.3,2.8-0.8,10.8,5.9c4.6,3.9,8.8,7,9.5,7c0.7,0-1.3-2.2-4.3-4.8c-13.1-11.2-13.3-11.5-11.9-14.5
		c0.7-1.5,1.5-2.7,1.9-2.7c0.4,0,5.5,4.9,11.3,10.9c5.9,6,10.7,10.7,10.7,10.4c0-0.4-4.9-5.7-11-11.9c-12.6-12.9-13.8-15.5-5.9-12.4
		c2.9,1,6.3,2.9,7.7,4.2c2.8,2.6,16.3,20,29.6,38.1c11.5,15.7,27.8,31.9,36.9,36.9c3.8,2.1,6.7,3.3,6.5,2.7s-2.8-2.4-5.8-4.1
		c-14.1-7.8-22.9-17.4-40.7-44.3c-2.6-3.9-8.4-11.6-13-17.3l-8.4-10.3l4.3,2.2c6.2,3.1,11.6,6.7,17.3,11.4c5.9,4.9,8.1,6.3,7.1,4.6
		c-0.5-0.7-5.1-4.7-10.3-9.1c-9.4-7.7-24.5-16.3-31.2-17.6c-1.7-0.4-3.1-1.3-3.1-2c0-1.8,0.5-1.8,9.1,1c7.9,2.5,17.5,7.6,24.3,12.8
		c6.4,5,7.2,5.4,5.1,3c-3.9-4.7-16-12.7-23.7-15.8c-4.4-1.7-7.5-3.4-7-3.8c0.5-0.3,5.1,0.6,10.3,2c9.7,2.7,20.7,7.8,36.9,17.2
		c26.1,15.1,41.8,22.2,49.8,22.2c4.1,0,11-3.3,19.4-9.3c3.6-2.6,6.8-4.7,7.2-4.7c0.3,0,5-3,10.3-6.6l9.7-6.6l2.8,5.6
		c2.7,5.4,5.1,7.6,8.3,7.6c1.2,0,1.4-0.7,1-2.8c-0.6-2.6-0.5-2.6,3,1.2c1.9,2.2,4.1,5.1,4.9,6.5c10,19.5,19.8,40.8,25.1,54.6
		c1.4,3.8,4,10.4,5.6,14.5c5.3,13.7,9.6,25.4,11.9,32.5c1.3,3.8,3.5,10.6,5,15c3,8.9,7.5,23.3,11.5,37c1.4,4.9,3.9,13.3,5.6,18.5
		c1.6,5.2,2.9,10.2,2.9,11c0,0.8,1.4,6.2,3,12c2.7,9.3,3,12,3,23.8c0,12.5-0.2,14-3.4,23.5c-2.9,8.7-13,33.4-14.1,34.5
		c-0.2,0.2-1.1-3-2-7.2c-0.9-4.2-2.1-7.4-2.5-7.1c-0.4,0.3-0.7,1.3-0.5,2.3c0.2,0.9,1.5,8.7,3,17.2c1.4,8.5,3.8,21.5,5.2,28.8
		c4.5,23.6,3,28.8-12.1,40.6c-9,7-14.1,12.3-18.3,18.8l-2.7,4.3l-0.8-3.5c-0.4-1.9-1.2-36.6-1.8-77c-0.6-46.8-1.5-79.8-2.4-91
		c-0.8-9.6-2.2-26.3-3-37c-2.9-36.1-10.2-106.3-11.6-110.8l-0.8-2.7l-0.1,2.5c-0.1,1.4,1,12.6,2.4,25c4.2,38.4,7.5,71.9,8.6,86
		c0.5,7.4,1.4,18,1.9,23.5c2.4,25.7,3.1,51,3.3,128.6l0.2,83.5l-2.5,3.6c-2.9,4.3-14.1,11.9-26.5,17.9c-12.6,6.1-14.4,7.4-29,21.8
		c-18.6,18-39.5,34.5-52.3,41c-4.9,2.5-17.3,7.1-20.9,7.7c-1.3,0.3-7,1.6-12.6,2.9c-9.6,2.3-11.7,2.5-34.2,2.3
		c-37.2-0.3-54.3-0.3-62.5,0.1c-6.7,0.3-25.2,3.1-29,4.5c-0.8,0.3-3.2,0.8-5.3,1.1c-2.1,0.3-7.3,1.6-11.5,3c-4.2,1.3-9.3,2.7-11.2,3
		s-5.7,1-8.5,1.5c-13.3,2.4-19,2.2-40-1.4c-7.9-1.4-22.5-9.4-31.7-17.3c-8-7-19.8-20.6-23.4-27.1c-1.5-2.6-3.4-5.8-4.3-7.2
		c-0.9-1.4-2.5-5.1-3.6-8.2l-1.9-5.7l2.8-9.8c4.8-16.9,4.7-19.6-1.9-54.8c-1.9-9.9-4.6-24.5-6-32.5c-1.4-8-3.5-18.8-4.5-24
		c-1-5.2-2.3-12-2.9-15c-0.5-3-2.4-12.7-4.1-21.5c-1.7-8.8-4.2-21.9-5.6-29c-3.3-16.7-8-40-11-54c-1.2-6.1-2.6-12.6-2.9-14.5
		c-1.5-8.4-4.9-22.6-5.7-24c-0.7-1.2-0.8-1-0.4,0.5c0.3,1.1,1.6,8.1,3.1,15.5c1.4,7.4,3.9,20,5.5,28c1.5,8,3.3,17,3.8,20
		c1.1,5.7,2.4,12.4,7.2,37c1.6,8,4.3,21.9,6,31s4.2,21.9,5.5,28.5c1.3,6.6,3.7,19.4,5.4,28.5c1.8,9.1,4.1,21,5.3,26.5
		c2.6,12.8,4.7,25.9,4.2,26.4c-0.2,0.3-1.4-0.5-2.7-1.6c-3.4-3.1-9.6-6-16.8-7.7c-3.5-0.8-9.5-2.2-13.4-3
		c-8.1-1.9-11.3-3.9-13.7-8.7c-3.7-7.1-1.8-13.4,7.8-27.5c5.2-7.5,8.4-14.8,8.4-19.2c0-1.5-0.9-8.6-1.9-15.7
		C215.4,567.8,209.9,525.4,208,498c-0.6-8.5-2-24.1-3-34.5c-2.3-21.7-3.7-45.4-4.4-70c-0.4-14.7-0.2-16.5,0.9-13.8
		c1,2.3,1.9,3,3.2,2.7c1.3-0.3,2.6,0.7,4.3,3.3c5.3,8,34.5,37.3,37.2,37.3c0.7,0-0.9-1.9-3.7-4.2c-6.5-5.3-21-20-25.5-25.8
		c-3.9-4.9-3.7-4.9,6.8,2.7c4.1,2.9,13.8,8.5,21.6,12.3c22.7,11.1,47.1,16.6,73.1,16.4c15.3-0.1,38.3-4,36.2-6.1
		c-0.4-0.3-3.9,0.1-7.9,1c-13.9,3.1-16.4,3.3-33.8,3c-15.1-0.3-19.4-0.8-31.5-3.5c-14.6-3.2-29.6-8.6-40.3-14.4
		c-15.8-8.6-33.2-23.2-33.2-27.8c0.1-2.6,5.1-10.1,6.5-9.5c0.6,0.2,0.9,0.8,0.7,1.2c-0.3,0.9,15.8,8.7,32.3,15.5l11,4.6l14.5-0.1
		c13.3,0,15.1-0.2,21.5-2.7c3.9-1.5,7.7-2.8,8.5-3c2.8-0.7,18.8-9.7,20.2-11.3c1.6-2,1.6-2-12.1,5.1c-6.3,3.2-12.8,6-14.5,6.3
		c-1.7,0.3-3.8,0.8-4.6,1.3c-6.3,3.2-26,3.7-34.3,0.8l-3.8-1.3l11.6-3.9c8.8-2.8,13.8-5.2,20.3-9.6c10.5-7.1,16.5-12.8,44.2-42.3
		c27.6-29.4,36.5-36.7,51.4-42.3c3.9-1.5,7.5-3.1,8.1-3.5C390.7,280.7,392,280.8,392,282z M426,312.7c-2.8,4.9-5.8,9.9-6.6,11.3
		c-4.4,7.4-14.3,28.3-14.8,31.2c-0.6,3.1-0.5,3.1,0.5,0.8c0.6-1.4,2-4.5,3.1-7c5.4-12,12.1-24.8,18.1-34.3c2.2-3.3,4.3-7.1,4.8-8.4
		C432.7,302,431.2,304,426,312.7z M615.8,305c-0.2,0-3.3,3-6.8,6.6c-3.6,3.6-9.4,8.6-13,11.1c-9.8,7-24,17.6-24,17.9
		c0,0.9,19-11.4,24-15.5c7.4-6,15.7-14,18.1-17.4C615.2,306.2,616,305,615.8,305z M637.8,310c-0.5,0-0.7,0.3-0.5,0.7
		c1.9,3.1,11.9,30.6,14,38.3c8.8,32.5,15.5,60.8,20.7,87c0.5,2.5,1.8,9,2.9,14.5c2.9,14.4,6.9,36.8,8,45c0.6,3.8,1.7,10.2,2.5,14.1
		c0.8,3.8,2,11.7,2.6,17.5c1.3,13.1,3.7,28.9,4.4,29.7c1,0.9,0.8-1.5-1.4-17.8c-5.5-41.2-15.1-95.8-22-126c-1.6-6.9-4.3-18.6-6-26
		c-9.8-42.7-11.6-48.8-19.7-66.8C640.8,314.6,638.3,310,637.8,310z M627.8,328.8l-0.3-11.3l-0.8,15.5c-0.5,8.5-1.5,18.9-2.2,23
		c-2.7,14.8-2.7,15-1,10c0.8-2.5,2.2-9.3,3-15.2C627.4,344.7,627.9,335.2,627.8,328.8z M632,318c-0.5,0-1,0.4-1,1c0,0.5,0.5,1,1,1
		c0.6,0,1-0.5,1-1C633,318.4,632.6,318,632,318z M632.8,323c-0.8-1.2-0.9-1.2-0.4,0.2c1.3,4.1,3.8,18,4.6,25.3
		c0.5,4.4,1.6,14.1,2.6,21.5c0.9,7.4,1.9,25.4,2.3,40l0.8,26.5l0.1-28c0.2-32.8-1.4-50.1-6.9-75C634.8,328.5,633.4,323.8,632.8,323z
		 M598.9,353.7c-4.5,6.4-19.8,23.5-26.8,30.1c-3.7,3.5-4.5,4.6-2.3,3.2c6.6-4.4,15.2-13.3,23.5-24.3c4.6-6.2,8.7-11.8,9.1-12.5
		C604,347.4,602.1,349.3,598.9,353.7z M403.6,359.3c-0.2-0.2-0.9,1-1.6,2.7c-0.7,1.7-1,3.3-0.8,3.6c0.3,0.3,1.1-0.9,1.7-2.7
		S403.8,359.5,403.6,359.3z M399.4,370c-0.9,0-2.6,5.6-6.9,22c-7.8,29.6-9.6,39.8-19,103.6c-1.4,9.4-2.5,18.6-2.5,20.5
		c0,1.9-1.1,11.5-2.5,21.3c-2.7,19.7-2.8,20.8-1.6,18.6c0.5-0.8,1.6-7.1,2.5-14c3.1-23.3,7.5-58.5,8.1-64.5
		c0.4-3.3,1.5-11.2,2.6-17.5c1.1-6.3,2.4-14.7,2.9-18.6c1.2-9.1,11.9-55.2,15.9-68.2C399.4,371.5,399.7,370,399.4,370z M565.6,389
		c-0.3,0-0.8,0.4-1.1,1c-0.3,0.5-0.1,1,0.4,1c0.6,0,1.1-0.5,1.1-1C566,389.4,565.8,389,565.6,389z M209,391.5
		c-0.2,4.1,7.5,32.6,12.1,44.6c1.6,4.2,2.9,7.9,2.9,8.3c0,0.9,2.3,6,11.3,25.6c7.4,16,17.2,33.2,23.5,41
		c4.6,5.9,22.2,23.3,22.9,22.7c0.2-0.3-3.7-4.5-8.7-9.4c-14.2-13.6-29.3-38-41.4-66.8c-2.6-6.1-5.1-11.9-5.6-13
		c-1.5-3.3-7-19.6-8.6-25.5c-0.8-3-2.1-7.5-2.8-10c-0.8-2.5-1.7-6.2-2.1-8.2C211.9,397,209.1,389.6,209,391.5z M427.7,423.7
		c-0.2-1.2-0.4,0-0.4,2.8c0,2.7,0.2,3.8,0.4,2.2C427.9,427.2,427.9,425,427.7,423.7z M208.8,424c-0.6,0-0.8,0.6-0.5,1.4
		s1.3,5.4,2.2,10.2c0.9,4.9,2.5,13.4,3.6,18.9c1.1,5.5,2.6,13.6,3.4,18c0.7,4.4,2.3,12.5,3.5,18s2.5,12.6,3,15.7
		c1.4,9.2,3.2,17.2,4.3,18.3c1.1,1.1,0.8-1.3-2.1-15.5c-1.1-5.2-2.5-12.4-3.1-16c-0.7-3.6-2.1-10.8-3.1-16c-1.1-5.2-3-15.4-4.4-22.5
		c-1.3-7.2-3.2-16.9-4.1-21.8C210.5,427.9,209.3,424,208.8,424z M251.8,425.6c-2.1-1.3-2.9-1.4-2.1-0.5c0.6,0.8,2.6,2.3,4.5,3.3
		c2.1,1.3,2.9,1.4,2.1,0.5C255.7,428.1,253.7,426.6,251.8,425.6z M261,431.7c-1.6-1-3-1.5-3-1c0,0.4,1.4,1.6,3,2.5
		c1.7,0.9,3,1.4,3,1C264,433.8,262.7,432.6,261,431.7z M247.3,594c-0.3,0-0.2,0.8,0.2,1.7c0.4,1,2,5.6,3.5,10.3
		c4.5,13.7,15.3,41.4,22.4,57.5c4.4,9.8,19.9,40.6,20.7,41.1c1,0.6-1.9-5.8-6.7-15.1c-8.8-17-21.9-47.4-30.4-70.5
		c-2.3-6.3-5.3-14.5-6.7-18.3C248.9,597,247.6,594,247.3,594z M297.1,710.2c2.7,5.5,9,15.8,9.6,15.8c0.3,0-0.8-2.1-2.3-4.8
		c-1.5-2.6-4-7.1-5.6-10C295.3,705,294.1,704.2,297.1,710.2z M308.1,727.7c-1-0.9-1.1-0.8-0.5,0.6c0.3,1,0.9,1.5,1.2,1.2
		C309.1,729.2,308.8,728.4,308.1,727.7z M309.9,731c-0.5,0-0.7,0.4-0.4,1c0.3,0.5,0.8,1,1.1,1c0.2,0,0.4-0.5,0.4-1
		C311,731.4,310.5,731,309.9,731z"/>
	<path id="path56" class="st1" d="M314.5,296.4c1,0.3,3.3,22.8,3.4,34.1l0.1,6.1l-13.7,13.7c-7.6,7.5-16,15.1-18.8,16.9
		c-4.7,2.9-20.6,10.8-21.9,10.8c-1.7,0-0.1-2.8,4.8-8.3c2.9-3.4,7.4-9.8,9.9-14.2c6.3-11.1,13.8-30.3,15.2-39
		c1.1-7.4,4.3-11.6,12.5-16.2C310.1,298,314,296.3,314.5,296.4z"/>
	<path id="path58" class="st1" d="M293,310.4c0,14.8-16.6,48.8-31.1,63.7c-5,5.2-8.3,6.7-5.7,2.6c9.3-14.2,18.8-35.1,25.4-55.8
		c2.2-7,4.9-10.9,8.4-12.2C292.6,307.7,293,308,293,310.4z"/>
	<path id="path60" class="st0" d="M280.5,316.2c-2.7,9.3-11,29.8-16.5,40.9c-5.1,10.1-13.6,23.9-14.8,23.9c-0.4,0.1-8-3.4-16.8-7.7
		c-13.9-6.7-16.1-8.1-15.8-9.8c0.3-1.1,0.9-6.3,1.3-11.5c1.2-13.2,1.8-14.3,9.3-17.7c3.5-1.5,6.6-2.8,6.9-2.8c0.3,0,2.8-1,5.5-2.2
		c5.3-2.4,21-8.4,21.9-8.4c0.2,0,4-1.5,8.2-3.4C279.2,313.4,281.4,313.1,280.5,316.2z"/>
	<path id="path62" class="st3" d="M200.4,335h8.3c9.4,0,10.3,0.7,8.3,6.2c-0.6,1.8-1.5,6.7-1.9,10.8c-0.7,6.3-1.7,9.1-6.2,17.4
		c-4.9,9.4-5.3,9.8-6.2,7.3c-0.6-1.8-0.2-4.8,1.2-10c2.6-9.3,2.7-10.5,0.3-8.4c-1,1-2.5,1.7-3.3,1.7c-2.8,0-12,7.2-15.6,12.2
		c-2.1,2.8-3.9,4.6-4.1,3.9c-0.2-0.6,4-10.1,9.4-21.1L200.4,335z"/>
	<path id="path64" class="st10" d="M200.9,367l-3.1,4.5l0.6,19c1.2,36.2,2.6,59.1,5.6,89c1.6,16.5,3.4,36.1,4,43.5
		c1.5,20.7,7.5,67,13.1,101c1.7,10.2,3.2,19.8,3.5,21.4c0.3,2.2,0.1,2.7-1.1,2.2c-0.8-0.3-5.3-1-10-1.6c-14.6-1.8-32.2,1.6-46.1,9
		c-8.9,4.7-23.5,16.2-32.3,25.4l-6.4,6.7l0.7-16.3c0.8-19.1,3.2-53.5,4.6-66.3c2-17.5,12.7-75.8,19.1-104.1
		c1.6-7.2,2.9-13.8,2.9-14.8c0-0.9,1.3-7.4,2.9-14.4c1.6-7,4.1-18.3,5.6-25.2c7.3-34.2,12.5-51.1,20.4-66.4
		c5.2-10.1,6.1-11.2,11.5-14.8C205,359.2,205.9,359.7,200.9,367z"/>
	<path id="path66" class="st11" d="M212.9,654c0,2.4,0,2.4-1.4,0.6s-1.6-1.8-5.1-0.1c-2.3,1.1-4.9,1.5-7,1.2
		c-2.7-0.5-3.5-0.1-4.9,1.9c-1.6,2.6-4.4,3.1-7.6,1.4c-1.6-0.9-2.8-0.4-6.6,2.5c-4.6,3.5-5.6,3.8-10.3,3.6c-1.9-0.2-2.9,0.6-4.4,3.3
		c-2.8,5.3-5.9,7.7-10.8,8.3c-3.2,0.4-5.3,1.5-8.3,4.4c-3.9,3.7-9.2,6.5-10.3,5.4c-0.9-0.9,6.9-11.3,11.2-14.8
		c13.3-11,36-21.2,50.1-22.7C211.1,647.5,212.8,648.1,212.9,654z"/>
	<path id="path68" class="st11" d="M215,648.1l2.8,0.5c1.5,0.3,3.8,1.2,5.1,2.1c3.5,2.3,2.6,9.4-2,15.6c-1.9,2.5-5.6,8.1-8.4,12.4
		l-5,7.8l-0.3-8c-0.3-8.4,0.9-12.5,3.8-12.5c3.1,0,4-2.3,4-10.1V648.1z"/>
	<path id="path70" class="st11" d="M212.2,658.4c1.4,3.1,0.4,5.6-2.2,5.6c-1.3,0-2.4,1.1-3.4,3.5c-1.1,2.7-2.1,3.5-4,3.5
		s-2.7,0.8-3.6,3.4c-0.6,1.9-1.8,4-2.6,4.6c-1.2,1.1-1.4-0.1-1.4-8.3c0-10.8,0.9-12.7,6.3-12.8c1.8,0,4.1-0.4,5.2-0.9
		C209.8,655.6,211,655.9,212.2,658.4z"/>
	<path id="path72" class="st12" d="M188.9,661.1l3.1,1.1v8.1c0,9.9,1.3,15,4.4,17.4c1.3,1,3,3.2,3.9,4.9c0.9,1.7,2.3,3.7,3.3,4.5
		c0.9,0.7,2.7,3,4,5.1c2.3,3.6,8.2,8.7,10.6,9.2c1.2,0.2,8.2,2.1,12,3.2c2.9,0.9,4.8,3.4,4.8,6.5c0,1.6-0.2,2.9-0.5,2.9
		c-0.2,0-2.1-1.1-4.1-2.5c-2-1.4-4.2-2.5-4.9-2.5s-2.4-1-3.9-2.1c-1.7-1.3-4.3-2.2-6.9-2.3c-5.1-0.2-10.2-3.5-11.1-7.2
		c-0.6-2.1-1.2-2.5-3.6-2.2c-2.1,0.2-3.7-0.5-5.9-2.6c-2.9-2.8-3.2-2.8-8.3-1.8c-4.3,0.8-5.9,0.7-8.6-0.5c-2.6-1.3-3.8-1.3-5.8-0.4
		c-3.7,1.6-8.1,1.4-9.3-0.6c-0.8-1.5-1.2-1.6-3.4-0.4c-2.4,1.3-5.3,1.2-10.7-0.5c-2.3-0.7-2.4-0.6-1.1,1c2.5,3.1,4.9,3.8,8.5,2.6
		c2.6-0.8,3.9-0.7,6.4,0.6c2.6,1.3,3.8,1.3,6.7,0.4c1.9-0.6,3.7-1.6,4.1-2.1c0.4-0.6,1.3-0.4,2.4,0.6c3,2.7,7.1,3.4,11.3,1.7
		c3.7-1.4,3.9-1.4,6.6,1.2c1.5,1.4,3.5,2.6,4.4,2.6c1,0,4,2.1,6.7,4.6c4.1,3.8,5.8,4.7,9.7,5.2c2.7,0.2,6,1.3,7.5,2.3
		c1.4,1.1,3.6,1.9,4.8,1.9c1.5,0,2.5,0.9,3.3,3c0.7,1.8,1.9,3,2.9,3c1.3,0,1.8,0.8,1.8,3c0,2.3-0.5,3-1.9,3s-2.1,1-2.5,3.5
		c-0.8,4-4.3,6.8-7.8,6.3c-3.6-0.5-3.3-3.3,0.7-5.6c2.7-1.7,3.5-2.8,3.5-5c0-5.4-10.6-12.9-25-17.6c-7.9-2.7-10.4-3-34-4
		c-14.8-0.7-26.3-1.6-27.5-2.3c-1.1-0.6-3.1-2.3-4.4-3.7l-2.4-2.6h4.4c2.4,0,5.2-0.7,6.3-1.5c1.6-1.2,1.2-1.3-3.7-0.8
		c-3.7,0.4-5.7,0.2-6.2-0.7c-0.9-1.5,2.3-10,3.9-10c0.7,0,4.1-2.2,7.7-5c3.5-2.7,7.7-5.2,9.4-5.6c5.5-1.1,9.3-3.5,11.9-7.5
		c2.3-3.4,3.1-3.9,6.4-3.9c3.8,0,7.7-2,10-5.2C184.3,659.7,184.7,659.6,188.9,661.1z"/>
	<path id="path74" class="st11" d="M204.3,674.6c0.6,1,1.3,6.5,1.5,12.1c0.4,9.1,0.3,10.3-1.1,9.7c-1.6-0.6-3.7-5.4-3.7-8.5
		c0-1.4-0.7-1.9-2.5-1.9c-3.5,0-3.2-2.5,1.1-8.4C202.9,673.2,203.3,672.9,204.3,674.6z"/>
	<path id="path76" class="st12" d="M236.3,717h3.8c3.6,0,3.9,0.2,4.8,3.7c1.7,6.8,5.3,25.6,6.3,33.3c1,7.7,5.3,21.6,6.9,22.6
		c1.6,0.9,1,2.4-1,2.4c-2.4,0-6-4.4-6.8-8.2c-0.5-2.4-0.9-2.6-4.6-2.5c-3.7,0.2-4.2-0.1-5.1-2.8c-1.4-4-1.2-3.9-4.5-2.5
		c-5.9,2.4-9.5-1.6-7.3-8c1.3-3.4,1-3.6-2.3-1.4c-2.2,1.4-2.5,1.4-4.5-0.6c-1.4-1.4-2-3.1-1.8-4.8c0.2-2.2,0.9-2.8,3.6-3
		c2.7-0.3,3.8-1.2,5.9-4.6c1.4-2.3,3.5-4.7,4.7-5.2c1.9-0.8,2.1-1.7,2-9.7L236.3,717z"/>
	<path id="path78" class="st11" d="M202.9,718c1.7,0,15.2,7.8,17.9,10.3c4.5,4.2,2.3,6.3-8.9,8.3c-4.5,0.8-8.3,1.3-8.5,1.2
		c-0.1-0.2-0.5-4.7-0.9-10.1C202,720.7,202.1,718,202.9,718z"/>
	<path id="path80" class="st11" d="M250.9,721.9c5.4,2.8,7.5,7,6.8,13.5c-0.8,8.1-5.7,16.7-5.7,10.1c0-2.3-3.3-19.2-4.6-23.8
		C246.9,720,247.1,720,250.9,721.9z"/>
	<path id="path82" class="st11" d="M217.2,740.4c0.4,0.6,0.8,3.2,0.8,5.8c0,6.5,1.5,9.7,5,10.9c1.9,0.7,3.8,2.6,5.3,5.2
		c2,3.7,2.7,4.2,5.9,4.2c2.7,0,4.1,0.7,5.8,2.7c1.4,1.9,3.1,2.8,5,2.8c2.1,0,3.3,0.8,4.8,3.4c1.8,3.1,8.8,8.6,10.9,8.6
		c1,0,6.3,5.2,6.3,6.2c0,0.5-1.1,0.6-2.4,0.4c-3.5-0.6-27-12-30.7-14.8c-24.7-19-34.6-31.7-27.3-35.3
		C209.4,739.1,216.3,739,217.2,740.4z"/>
	<path id="path84" class="st13" d="M313.7,826l5.8,2c3.2,1.1,6.9,2,8.2,2c2.1,0,2.2,0.3,1.3,2c-0.6,1.2-3.1,3.1-5.6,4.2l-4.4,2.2
		l-2.1-2c-1.1-1.2-2.3-4-2.6-6.2L313.7,826z"/>
	<path d="M467.1,15.7c7.3,5,10.5,6.3,13.7,5.7c2.8-0.6,9.2,2,9.2,3.6c0,0.4,1.6,2.6,3.7,4.9c3,3.5,4.1,4.2,6.4,3.9l2.8-0.4l-0.6,7.7
		l-0.6,7.7l3.1,1.6C512,54.1,518,61.2,518,66c0,3.5-2.9,7.9-6.8,10.4c-2,1.3-8.6,7.3-14.7,13.3c-9.5,9.4-11.3,11.8-13.3,17.2
		c-2.3,6-2.3,6.7-1.2,16.8c1,9.5,1.5,11.3,4.9,17c3.8,6.2,6.4,12,11.5,25.8c11.4,31.1,16.8,44.5,18.4,46.1c2,2.1,18.8,11.6,28.2,16
		c1.9,0.9,7.9,4.3,13.3,7.6c19,11.3,31.5,16.8,59.7,25.9c10.2,3.3,14.4,5.2,17,7.6c2.9,2.7,3.3,3.4,2,4.3c-0.8,0.5-2.5,1-3.7,1
		c-1.3,0-2.3,0.3-2.3,0.7c0,0.3,3.1,3.9,6.9,7.8c7.8,8,8.7,10.2,9.7,23.5c0.6,8.5,2.8,14.5,15.4,41.5c1.9,4.2,5.6,13.6,16.9,43.1
		c1.7,4.4,3.1,8.6,3.1,9.2c0,0.7,0.5,2,1,3c2.1,3.5,17.8,50.3,23.8,70.7c2.3,7.8,7.6,29.7,11.7,48.3c4.4,19.7,2.4,30.1-10.7,56.3
		c-6.9,13.7-7.3,14.7-7.2,20.9c0.1,3.6,0.8,9.2,1.7,12.5c1.6,6,3.3,16.7,4.4,28.1c1.1,11.7-5.1,22.2-18.2,31
		c-12.5,8.3-17.9,17.7-20.3,36c-0.6,4-1.8,8.8-2.7,10.7c-4,8.4-15.5,17.9-25.7,21.2c-14,4.6-22.2,10.6-37.2,27.8
		c-8.3,9.4-27.3,25.6-37.9,32.2c-9.8,6-23.2,11.4-36.2,14.6c-10.9,2.6-18,2.8-77,1.8c-21.9-0.3-27.7-0.1-37,1.4
		c-11.4,1.9-22.3,4.3-26,5.7c-1.2,0.5-3.8,1.1-5.8,1.4c-2,0.3-6.9,1.5-10.9,2.6c-4,1.2-12.5,2.5-18.8,3c-18.1,1.5-19.5,1.9-25.1,6.1
		c-2.9,2.1-6.8,4.2-8.7,4.5c-3.1,0.6-3.9,0.3-6.4-2.5c-1.5-1.7-2.8-4.2-2.8-5.6c0-5.7-3.5-9.3-14.5-14.5c-3-1.5-9.2-6.5-15.5-12.5
		c-9.7-9.4-11.1-10.4-18.5-13c-27.1-9.6-42.3-19.9-55.4-37.5l-5.5-7.5l-0.7-14.4c-0.4-7.9-1.1-14.7-1.6-15.1
		c-2.7-2.5-25.7-5.6-48.2-6.5c-17.5-0.6-19.5-1.4-23.3-8.8c-2-4-2.1-5.1-1.5-29.7c0.5-23.5,2.1-43.8,4.8-61.5
		c0.5-3.9,1.4-11.5,1.9-17c0.5-5.5,2.1-16.3,3.5-24c6-33,7.7-41.8,10.6-56c1.7-8.3,4.2-20.2,5.6-26.5c1.4-6.3,2.8-12.9,3-14.5
		c1-7.1,9.3-43.2,14.3-62c3.9-14.4,8-32,8-34.1c0-0.8,3.8-8.9,8.5-18c4.7-9,8.5-16.6,8.5-16.8c0-0.3-1.8-1.5-4-2.7
		c-6-3.4-5.6-6.4,1.8-11c7.2-4.6,10.5-6.3,17.9-9c11.8-4.4,27.3-14.2,46.3-29.4c6.3-5,13.8-10.9,16.6-13.1c19.4-15,24-19.2,25.1-23
		c1.3-4.4,2.9-14.8,7.3-47.4c5.5-39.6,12.8-62.8,27.3-86.4c4.9-8,17.1-20.9,23.9-25.2c10.4-6.6,12.7-7.7,23.8-11.5
		c12.3-4.2,11.1-2.7,10.4-12.7c-1.4-18.9,4.3-34,17.8-47.3c8.2-8.1,13.8-11.6,23.8-14.4C443.6,6.4,457.1,8.9,467.1,15.7z M404.2,34
		c-7.2,10.9-10.4,22-10,34.7l0.3,9.8l6.3,3.8c3.5,2.1,7.1,3.7,7.9,3.5c1-0.2,3.2-4.4,5.8-11.3c7.5-19.9,12.7-34.9,13.6-39.3
		c1.2-5.8,1.8-6.6,3.7-4.9c4.6,3.9,8.4,2.8,15-4.4c8.3-9,12.4-9.8,22.6-4.4c3.6,1.9,6.3,2.9,6,2.2c-0.8-2.1-14.7-9.5-21-11.1
		C435.3,7.7,416.1,15.9,404.2,34z M461.5,20.7c-3.9-0.8-9.4,2.1-13.3,7.1c-4.1,5.1-10.3,8-14.2,6.5c-2.7-1-2.8-1-4.5,4.6
		c-1,3.1-2.8,8.7-4,12.6c-1.3,3.8-2.8,8.9-3.5,11.3c-0.6,2.4-1.4,5.1-1.7,6c-0.4,0.9,2.8-1.8,7.1-6c13.4-13.3,25.9-18.7,44.6-19.5
		c7.8-0.3,13.7,0,18.3,0.9c3.7,0.8,6.7,1.4,6.7,1.4c0-0.1,0.6-1.8,1.4-3.9l1.3-3.8l-6.8-6.6l-6.8-6.6l-6.7,0.7
		c-5.9,0.6-7.1,0.4-10.8-1.8C466.4,22.3,463.2,21,461.5,20.7z M469.9,46.4c-0.2,0.2-3.6,0.9-7.4,1.4c-10.1,1.4-21.1,6.5-28.6,13.1
		c-6.8,6-17.3,18.1-20.2,23l-1.8,3.1h3.5c3,0,4.5-0.9,9.2-5.5c5.8-5.8,8.4-10.5,8.4-15.3c0-4.4,0.9-4.5,5.3-0.6
		c9.6,8.7,23.6,12,38.4,9.1c4-0.7,7-1,6.7-0.5c-0.3,0.4-1.1,0.8-1.9,0.8s-1.6,0.4-1.9,0.8c-0.6,0.9,11.2,0.6,15.5-0.4l2.7-0.6
		l-1.3,4.9c-0.7,2.6-1.6,5.6-2,6.5c-1.1,2.9,1.8,2.2,5-1.2c2.2-2.3,2.6-3.2,1.6-4.4c-0.9-1.1-0.2-1.9,4.4-4.5
		c7.4-4.2,9.6-8.3,7.5-14.4c-1.3-3.6-2.5-4.8-9.1-8.7c-5.2-3.2-9.6-5-14.1-5.8C483.6,46.1,470.8,45.5,469.9,46.4z M434.6,71.4
		c-0.8,4-7,11.4-13.2,15.7c-3.4,2.3-4.4,3.6-4.4,5.8c0,1.5-1.3,4.5-2.8,6.7c-3,4-6.4,13.8-6.4,18c0,5.7,10.3,14.1,18.8,15.4
		c2.4,0.4,4.4,0.6,4.4,0.5c0-0.1-1.3-2.8-3-6c-1.6-3.2-2.9-6-2.7-6.1c0.1-0.1,3,3.3,6.4,7.6c7.1,9.1,14.4,14.9,18.7,15
		c2.3,0,4.8-1.9,12.3-9.3c5.3-5,10.6-11,12-13.1c2.3-3.5,6.3-13.6,6.3-15.8c0-0.4-1.8-0.8-4-0.8c-3.6,0-4-0.3-4-2.5
		c0-3.8,4.8-8.3,10.9-10.3c6.1-1.9,8.6-5,3.2-3.9c-1.8,0.4-3.1,0.2-3.1-0.3c0-0.6,1-1,2.3-1s3.1-0.6,4-1.3c1.9-1.4,4.8-6.8,4.2-7.8
		c-0.3-0.3-3.1,0-6.2,0.7c-5,1.2-6.7,1.2-12.3-0.1c-3.6-0.8-10.8-1.6-16-1.8c-8.2-0.2-10.4-0.7-15-3.1c-3-1.6-6.2-3.4-7.1-4.2
		C435.7,67.4,435.3,67.6,434.6,71.4z M382.5,85.8c-14.2,5.2-22.8,10.7-33,20.9c-9.6,9.6-17.7,21.3-23.6,33.8
		c-4.2,9.1-10,26.9-11.9,36.5c-2.9,15.5-4.1,23.1-5,32.3c-0.5,5.4-2.1,17.3-3.5,26.4c-1.5,9-2.5,17.1-2.3,17.9
		c0.2,1,1.8,0.3,5.3-2.6c10.5-8.5,9.5-6.5,9.5-19.2c0-20.8,2.4-33.3,11.7-60.8c15-44.4,33.9-71.8,56.3-81.5c6.8-2.9,10.4-5,10.8-6.3
		C397.4,81.1,393,81.9,382.5,85.8z M399.4,86c-2.6,0-20.6,17-26.1,24.5c-1.2,1.7-2.4,2.7-2.8,2.3c-0.8-0.7,6.8-11.1,12.4-17.1
		c1.9-2,3.2-3.7,2.8-3.7c-5.2,0-23.5,17.3-30.4,28.6c-4.8,8-15.7,29.6-18.5,36.9c-5,13-10,28.1-12.9,39.5c-2.5,10-3.3,15.2-3.6,26
		c-0.7,19.5-0.4,20.2,4.1,10.5c7.2-15.4,17.7-40.3,18.9-45c0.3-1.1,2.4-6.7,4.7-12.5c2.3-5.8,4.6-12.8,5.1-15.5
		c3.2-17,7.6-28,17.2-42.3c6.9-10.4,14.7-19,24.7-27.5C398,88.1,400,86,399.4,86z M399.5,90.8c-11.7,7.9-23.1,20.9-32.8,37.2
		c-5.9,9.9-11.7,24.1-11.7,28.6c0,2.5,0.2,2.4,7.8-3c4.2-3.1,10.2-7.3,13.3-9.5c4.9-3.5,5.8-4.7,8.3-11.3c1.6-4,6.9-15.1,11.7-24.7
		C401,98.5,405,90,405,89.3C405,87.4,404,87.7,399.5,90.8z M407.6,90.1c-4.6,3.6-2.5,10.8,2.7,9.5c2.9-0.7,5-5.9,3.6-8.7
		C412.5,88.2,410.3,88,407.6,90.1z M404.8,101.2c-1.4-1.2-2.1-0.6-5.2,4.5c-4.9,8.2-10.7,20-14.7,30c-1.5,3.9,0.8,2.6,8.6-4.9
		c5.8-5.5,8.4-8.8,11-14.4c3.4-7.2,4.2-10.9,2.7-12.9C406.8,102.9,405.7,101.9,404.8,101.2z M478.8,121c-0.2,0-1.5,1.6-3.1,3.5
		l-2.7,3.4l3,1.6l3,1.6V126C479,123.3,478.9,121,478.8,121z M403.2,127c-0.4,0.1-5.2,3.7-10.7,8.1c-5.5,4.5-10.9,8.8-12,9.6
		c-2,1.4-2,1.5-0.1,2.6c2.3,1.4,6.6,4.8,18.8,14.7c14.7,12,16.8,13.5,25.3,17.8c9.1,4.6,16.4,6.4,21.5,5.3c2.6-0.5,4.7-2.3,9.2-7.6
		c11.3-13.8,17.9-27,18.1-36.6c0.2-5.8-1.6-10.9-3.8-10.9c-0.7,0-3.3,2.7-6,6c-2.6,3.3-5.8,6.6-7.1,7.5c-3.5,2.3-9.8,1.9-15.5-1.1
		c-4.3-2.1-5.7-2.4-8.8-1.7c-2.6,0.7-5.2,0.5-9.5-0.9c-6.4-1.8-16-7.9-17.7-11C404.4,127.8,403.6,127,403.2,127z M475,137.5
		c0,6.7-1.9,14.3-5.3,21c-3.6,7.3-13.4,22.5-15.5,24.2c-0.9,0.7-1.3,1.5-1.1,1.7c0.8,0.9,23-7.1,25.7-9.2c2.5-1.8,2.7-2.5,2.6-8.7
		c-0.1-5.7,0.1-6.5,1.2-5c0.7,0.9,1.6,4.3,2,7.4c0.4,3.1,1.8,8.7,3,12.5c3.5,10.1,3.4,23.9-0.1,31.5l-2.6,5.4l4.3,7.5
		c2.4,4.2,6.9,10.4,10.1,13.9c4.9,5.2,7.8,7.2,17,11.7c6.2,3,13.2,6,15.7,6.6c2.5,0.7,7,2,10,3.1c3,1,6.6,2,8,2.3
		c1.4,0.2,5.7,1.3,9.5,2.4c3.9,1.1,8.6,2.3,10.5,2.7c1.9,0.3,9.2,2,16.1,3.8l12.7,3.1l7.3-2.9c4.1-1.6,10.1-3.4,13.4-4l6-1.2
		l-3.6-1.6c-2-0.9-4.8-1.8-6.3-2.1c-1.4-0.3-7.6-2.1-13.8-4.1c-11.7-3.8-22.4-8.9-39.3-18.4c-30.1-17-31.1-17.4-38.5-17.2
		c-5.6,0.1-7.2,0.6-11,3.4c-4.2,2.9-4.4,3-2.9,0.7c0.9-1.4,4-3.8,6.9-5.4c4.5-2.5,5-3,3.5-3.9c-1.9-1-13.6-0.5-17,0.8
		c-1.3,0.5-1.7,0.5-1-0.2c0.6-0.6,3.1-1.6,5.8-2.3c2.6-0.7,4.7-1.8,4.7-2.5c0-1.2-2.1-7.1-9-25.5c-1.5-4.1-3.3-9.2-4-11.3
		c-0.7-2.2-1.8-5.1-2.6-6.5c-0.8-1.5-1.4-3.2-1.4-3.8c0-1.2-7-17.8-10.1-23.9c-1.2-2.2-3.5-5.5-5.2-7.3
		C476.4,131.7,475,132,475,137.5z M374.8,149c-6.2,0-15.8,10-22.6,23.5c-3.7,7.5-10.3,23.8-18.3,45.5c-3,8.1-8.1,19-10.7,22.9
		c-1.4,2.2-1.9,3.8-1.3,4.4c0.9,0.9,2.1,1.1,9.6,1.6c6,0.3,0.2,2.1-7,2.1c-5.9,0-7.8,0.5-12,2.9c-8.1,4.8-16.5,10.8-33,24.1
		c-24.2,19.4-28.6,22.8-34.3,26.8c-12.7,8.8-24.2,15.4-31.7,18.3c-10.4,3.9-22.5,9.9-22.5,11c0,0.5,7,0.9,15.6,0.9
		c15.3,0,15.7,0,23.7-3.3c4.5-1.9,12.9-5,18.7-7c21.2-7.3,43.9-17.7,63.4-29.2c10.9-6.4,23.8-18.7,31.3-29.8
		c2.6-4,7.3-10.6,10.3-14.9c3-4.2,7.2-10.2,9.3-13.5c2-3.2,5.9-8.6,8.6-12c2.7-3.4,5.9-8.8,7-12c3.4-9.1,3.3-8.9,3.8-7.6
		c0.2,0.6-1,4.6-2.7,8.9c-1.7,4.2-2.9,7.8-2.7,8.1c0.2,0.2,2.5-1.5,5-3.8c7-6.1,5.7-3-1.5,3.6l-6.1,5.7l1.8,3.1
		c1,1.8,5.6,8.8,10.3,15.5c11.4,16.8,13.6,21.8,12.9,29.3c-0.6,6.6-1.4,5.7,10.8,11.8c8.4,4.3,16.2,8.7,18.9,10.8
		c1.3,1,6.9,5.3,12.5,9.6s10.6,7.5,11.1,7.2c0.6-0.4,2.2-2.7,3.5-5.3c1.4-2.6,4.7-8.1,7.3-12.2c5.3-8.5,5.2-7.4,3.7-36
		c-0.5-8.6-0.3-13.7,0.5-16.5c1.8-5.9,8.5-19.9,12-25c8.4-12.2,9.8-20.7,5.8-34.2c-2-6.5-2.5-7.3-4.3-6.8c-1.1,0.3-2.7,0.8-3.5,1
		c-0.8,0.2-3.5,1.4-6,2.6c-4.3,2.1-7.8,3.2-20.4,6.6c-8,2.2-13.7,0.9-28-6.2c-8.5-4.2-14.6-8.3-26.1-17.6
		c-8.2-6.6-16.2-12.7-17.7-13.5C378.3,149.6,376.1,149,374.8,149z M482.3,222c-1.8,0,3,30.4,6.6,41.5c5.1,16.1,5,16,20.8,24.2
		c7.6,3.9,17.9,9.6,22.8,12.7c17.8,11,37.2,19.6,44.1,19.6c5.1,0,8.1-1.5,17.8-9.3c11.3-9.1,16.2-12.2,21.4-13.8
		c2.3-0.7,4.2-1.5,4.2-1.9c0-1-3.9-4.3-9.4-8c-2.7-1.8-5.3-4.5-5.9-6c-1-2.8-2.6-3.2-19.2-6c-8.9-1.5-61-17-67.5-20.1
		c-0.8-0.4-4.6-2.2-8.5-4c-8.3-4.1-14.3-9.8-21.5-20.7C485.1,225.7,482.5,222,482.3,222z M372,227c-0.3,0-3,3.7-6,8.2l-5.5,8.3v24.2
		c0,13.4,0.4,24.3,0.8,24.3c2,0,16-8.5,17.3-10.4c1.1-1.7,1.5-6.8,1.6-21.7l0.3-19.4l-4-6.7C374.3,230.1,372.3,227,372,227z
		 M479.1,227c-0.8,0.1-5.9,11.5-7.1,16.1c-1.2,4.3-0.2,8,6.5,22.9c5.3,11.7,7.3,14.4,9.8,13.4c2.2-0.8,2.2-1.3-0.8-8.7
		c-3.3-7.9-6.5-23.6-7.2-35C480,230.9,479.4,227,479.1,227z M384.8,247.6c-1-1.4-0.9-2.2-1.7,17l-0.6,16l4.3-0.2
		c12-0.7,13.3-10,3.4-24.8C387.6,251.8,385.2,248.2,384.8,247.6z M358.5,248c-0.5,0-8.4,11.1-10.8,15.3c-1.6,2.9-1.7,4.9-1.1,18.7
		c0.3,8.5,0.9,17.2,1.3,19.2l0.6,3.7l5.3-5l5.2-5.1v-23.4C359,258.5,358.8,248,358.5,248z M470,253c-0.6,0-0.9,0.4-0.6,0.8
		c0.2,0.4,0.7,5.7,1,11.6c0.3,5.9,1.1,11.4,1.7,12.2c1.1,1.3,8.9,2.1,8.9,0.9c0-1-6.8-11.3-7.9-11.9c-0.6-0.4-1.1-1.3-1.1-1.9
		c0-0.7,1.1,0.1,2.4,1.8c3.4,4.2,3.9,2.9,1.1-3c-1.2-2.8-2.8-6.2-3.4-7.8C471.5,254.2,470.6,253,470,253z M344.1,283.6l-0.6-14.9
		l-4.9,6.2c-4.1,5.3-7.9,8.8-18.8,17.7c-1.3,1-1.8,2.8-1.8,6.1c0,7.8,2.3,35.3,2.9,35.2c1.5-0.2,22.8-24.2,23.9-27
		c0.8-1.9,1-4.3,0.6-5.8C345,299.7,344.4,291.8,344.1,283.6z M610.3,272.8c-3.7,1-5.3,2-5.3,3.2c0,3.3,4.6,8.3,11,11.8l6.5,3.7
		l-3.9-4.8c-2.1-2.6-3.3-4.7-2.7-4.7c2,0,8.7,9.6,10.9,15.7c1.2,3.3,3.1,6.8,4.3,7.9l2,1.8l-0.6-5.4c-0.4-3-1.3-7.8-2.1-10.7
		c-2.4-8.8-1.4-9.2,1.5-0.6c1.5,4.5,3,8.5,3.3,8.9c0.4,0.3,1-1,1.3-3c0.4-2,1.1-3.6,1.5-3.6c0.9,0,2.5,4.7,3.4,10.1
		c0.4,1.9,1.3,4.4,2.1,5.5c1.3,1.7,1.4,1.4,1.5-3.6c0-9.3-1.3-11.9-10.2-20.8c-4.6-4.5-9.8-9.3-11.7-10.7
		C619.2,270.7,617.7,270.6,610.3,272.8z M389.5,281.9c-0.6,0.4-4.2,2-8.1,3.5c-14.9,5.6-23.8,12.9-51.4,42.3
		c-27.7,29.5-33.7,35.2-44.2,42.3c-6.5,4.4-11.5,6.8-20.3,9.6l-11.6,3.9l3.8,1.3c8.3,2.9,28,2.4,34.3-0.8c0.8-0.5,2.9-1,4.6-1.3
		c1.7-0.3,8.2-3.1,14.5-6.3c13.7-7.1,13.7-7.1,12.1-5.1c-1.4,1.6-17.4,10.6-20.2,11.3c-0.8,0.2-4.6,1.5-8.5,3
		c-6.4,2.5-8.2,2.7-21.5,2.7l-14.5,0.1l-11-4.6c-16.5-6.8-32.6-14.6-32.3-15.5c0.2-0.4-0.1-1-0.7-1.2c-1.4-0.6-6.4,6.9-6.5,9.5
		c0,4.6,17.4,19.2,33.2,27.8c10.7,5.8,25.7,11.2,40.3,14.4c12.1,2.7,16.4,3.2,31.5,3.5c17.4,0.3,19.9,0.1,33.8-3
		c4-0.9,7.5-1.3,7.9-1c2.1,2.1-20.9,6-36.2,6.1c-26,0.2-50.4-5.3-73.1-16.4c-7.8-3.8-17.5-9.4-21.6-12.3c-10.5-7.6-10.7-7.6-6.8-2.7
		c4.5,5.8,19,20.5,25.5,25.8c2.8,2.3,4.4,4.2,3.7,4.2c-2.7,0-31.9-29.3-37.2-37.3c-1.7-2.6-3-3.6-4.3-3.3c-1.3,0.3-2.2-0.4-3.2-2.7
		c-1.1-2.7-1.3-0.9-0.9,13.8c0.7,24.6,2.1,48.3,4.4,70c1,10.4,2.4,26,3,34.5c1.9,27.4,7.4,69.8,18.1,140.5c1,7.1,1.9,14.2,1.9,15.7
		c0,4.4-3.2,11.7-8.4,19.2c-9.6,14.1-11.5,20.4-7.8,27.5c2.4,4.8,5.6,6.8,13.7,8.7c3.9,0.8,9.9,2.2,13.4,3
		c7.2,1.7,13.4,4.6,16.8,7.7c1.3,1.1,2.5,1.9,2.7,1.6c0.5-0.5-1.6-13.6-4.2-26.4c-1.2-5.5-3.5-17.4-5.3-26.5
		c-1.7-9.1-4.1-21.9-5.4-28.5c-1.3-6.6-3.8-19.4-5.5-28.5s-4.4-23-6-31c-4.8-24.6-6.1-31.3-7.2-37c-0.5-3-2.3-12-3.8-20
		c-1.6-8-4.1-20.6-5.5-28c-1.5-7.4-2.8-14.4-3.1-15.5c-0.4-1.5-0.3-1.7,0.4-0.5c0.8,1.4,4.2,15.6,5.7,24c0.3,1.9,1.7,8.4,2.9,14.5
		c3,14,7.7,37.3,11,54c1.4,7.1,3.9,20.2,5.6,29c1.7,8.8,3.6,18.5,4.1,21.5c0.6,3,1.9,9.8,2.9,15c1,5.2,3.1,16,4.5,24
		c1.4,8,4.1,22.6,6,32.5c6.6,35.2,6.7,37.9,1.9,54.8l-2.8,9.8l1.9,5.7c1.1,3.1,2.7,6.8,3.6,8.2c0.9,1.4,2.8,4.6,4.3,7.2
		c3.6,6.5,15.4,20.1,23.4,27.1c9.2,7.9,23.8,15.9,31.7,17.3c21,3.6,26.7,3.8,40,1.4c2.8-0.5,6.6-1.2,8.5-1.5s7-1.7,11.2-3
		c4.2-1.4,9.4-2.7,11.5-3c2.1-0.3,4.5-0.8,5.3-1.1c3.8-1.4,22.3-4.2,29-4.5c8.2-0.4,25.3-0.4,62.5-0.1c22.5,0.2,24.6,0,34.2-2.3
		c5.6-1.3,11.3-2.6,12.6-2.9c3.6-0.6,16-5.2,20.9-7.7c12.8-6.5,33.7-23,52.3-41c14.6-14.4,16.4-15.7,29-21.8
		c12.4-6,23.6-13.6,26.5-17.9l2.5-3.6l-0.2-83.5c-0.2-77.6-0.9-102.9-3.3-128.6c-0.5-5.5-1.4-16.1-1.9-23.5
		c-1.1-14.1-4.4-47.6-8.6-86c-1.4-12.4-2.5-23.6-2.4-25l0.1-2.5l0.8,2.7c1.4,4.5,8.7,74.7,11.6,110.8c0.8,10.7,2.2,27.4,3,37
		c0.9,11.2,1.8,44.2,2.4,91c0.6,40.4,1.4,75.1,1.8,77l0.8,3.5l2.7-4.3c4.2-6.5,9.3-11.8,18.3-18.8c15.1-11.8,16.6-17,12.1-40.6
		c-1.4-7.3-3.8-20.3-5.2-28.8c-1.5-8.5-2.8-16.3-3-17.2c-0.2-1,0.1-2,0.5-2.3c0.4-0.3,1.6,2.9,2.5,7.1c0.9,4.2,1.8,7.4,2,7.2
		c1.1-1.1,11.2-25.8,14.1-34.5c3.2-9.5,3.4-11,3.4-23.5c0-11.8-0.3-14.5-3-23.8c-1.6-5.8-3-11.2-3-12c0-0.8-1.3-5.8-2.9-11
		c-1.7-5.2-4.2-13.6-5.6-18.5c-4-13.7-8.5-28.1-11.5-37c-1.5-4.4-3.7-11.2-5-15c-2.3-7.1-6.6-18.8-11.9-32.5
		c-1.6-4.1-4.2-10.7-5.6-14.5c-5.3-13.8-15.1-35.1-25.1-54.6c-0.8-1.4-3-4.3-4.9-6.5c-3.5-3.8-3.6-3.8-3-1.2c0.4,2.1,0.2,2.8-1,2.8
		c-3.2,0-5.6-2.2-8.3-7.6l-2.8-5.6l-9.7,6.6c-5.3,3.6-10,6.6-10.3,6.6c-0.4,0-3.6,2.1-7.2,4.7c-8.4,6-15.3,9.3-19.4,9.3
		c-8,0-23.7-7.1-49.8-22.2c-16.2-9.4-27.2-14.5-36.9-17.2c-5.2-1.4-9.8-2.3-10.3-2c-0.5,0.4,2.6,2.1,7,3.8
		c7.7,3.1,19.8,11.1,23.7,15.8c2.1,2.4,1.3,2-5.1-3c-6.8-5.2-16.4-10.3-24.3-12.8c-8.6-2.8-9.1-2.8-9.1-1c0,0.7,1.4,1.6,3.1,2
		c6.7,1.3,21.8,9.9,31.2,17.6c5.2,4.4,9.8,8.4,10.3,9.1c1,1.7-1.2,0.3-7.1-4.6c-5.7-4.7-11.1-8.3-17.3-11.4l-4.3-2.2l8.4,10.3
		c4.6,5.7,10.4,13.4,13,17.3c17.8,26.9,26.6,36.5,40.7,44.3c3,1.7,5.6,3.5,5.8,4.1s-2.7-0.6-6.5-2.7c-9.1-5-25.4-21.2-36.9-36.9
		c-13.3-18.1-26.8-35.5-29.6-38.1c-1.4-1.3-4.8-3.2-7.7-4.2c-7.9-3.1-6.7-0.5,5.9,12.4c6.1,6.2,11,11.5,11,11.9
		c0,0.3-4.8-4.4-10.7-10.4c-5.8-6-10.9-10.9-11.3-10.9c-0.4,0-1.2,1.2-1.9,2.7c-1.4,3-1.2,3.3,11.9,14.5c3,2.6,5,4.8,4.3,4.8
		c-0.7,0-4.9-3.1-9.5-7c-8-6.7-10.8-8.2-10.8-5.9c0,0.7,3,4.4,6.8,8.3c4,4.3,7.4,8.9,8.4,11.6l1.7,4.5l-2.2-2.9
		c-1.2-1.6-3.6-4.8-5.2-7c-5.2-7-12.7-10.8-14.1-7.1c-0.4,0.8,2.9,5.8,7.9,12.3c13.6,17.4,23.8,34.9,32.1,54.7
		c2.6,6,5.1,11.9,5.6,13c1.2,2.6,7.2,20.6,10.4,31.5c5.8,19.6,13.2,56.5,16.6,82c1.1,8.5,2.3,16.8,2.6,18.5c0.4,2.1,0.3,2.7-0.5,2
		c-0.6-0.6-1.8-6.2-2.6-12.5c-2.9-21.4-3.5-25.5-5.6-37c-4.4-24-10.9-50.1-16-64.6c-1.6-4.4-2.9-8.4-2.9-8.8c0-2-7.8-20.4-14.5-34.1
		c-7.7-15.8-22.8-39.5-30.6-47.9c-4.1-4.4-4.8-4.9-6.3-3.7c-2.2,1.8-2,3.5,1,9.9c12,25.3,22.9,59.2,27.4,84.7
		c2.5,14.3,6.1,41.2,7.5,55.5c5.8,61,8.8,195.1,5.7,257c-1.5,30.6-3.2,49.9-4.3,50.6c-0.5,0.3-0.9,0.4-0.9,0.2
		c0-0.2,0.7-7.7,1.5-16.8c0.8-9.1,2-29.8,2.7-46c2.6-65.3-2.7-229.5-8.8-269c-0.8-5.2-2.1-14-2.9-19.5c-1.8-12.1-4.9-26-8.2-37.5
		c-1.4-4.7-2.9-10.1-3.3-12c-1.9-8.3-17.1-47-18.4-47c-0.3,0-0.1,1.2,0.4,2.7c3.9,12.6,6.3,21.4,7,25.2c0.4,2.5,1.9,10,3.3,16.6
		c2.5,11.8,3.3,17.5,6.4,42.5c1.8,15.2,2.1,86.3,0.4,106.5c-1.8,20.1-4.3,44-4.7,44.4c-0.7,0.7-0.5-3.4,1.8-31.2
		c3.3-40.2,3.3-99.4,0-125.7c-2.6-21.1-7.4-48-10.4-57.8c-1.1-3.7-2.3-8.3-2.8-10.2c-2.1-9.2-8.4-24-10.2-24
		c-0.5,0-0.8,21.5-0.8,47.7c-0.1,63.3-3,104.7-12,168.8c-3.5,25.2-16.9,96.5-25,134c-1.6,7.1-4,18.4-5.4,25
		c-3.5,16.4-8.3,38-11.1,50c-1.3,5.5-2.9,12.6-3.5,15.7c-0.6,3.2-1.4,5.8-1.7,5.8c-0.7,0,0.4-6.4,4.3-24.5c1.9-8.8,4.6-21.2,6-27.5
		c1.3-6.3,3.8-17.4,5.4-24.5c1.7-7.2,3-13.6,3-14.4s1.3-7.1,2.9-14c3.7-16.1,7-32.6,16.6-83.1c4.6-24.5,11.3-73.1,13.5-98.5
		c5.7-65.8,6.3-78.4,5.8-122c-0.4-38-0.9-43.5-3.7-43.5c-0.8,0-5.6,36.8-6.6,50c-0.3,4.1-1.4,15.8-2.5,26c-1.1,10.2-2,22.2-2,26.7
		c0,4.5-0.4,8.5-1,8.8c-1.4,0.8-1.3-1.2,1-30c1-13.8,2.4-31.8,3-40c0.7-8.3,2.1-20.9,3.1-28.2c1.4-9.4,1.7-13.8,1-15.1
		c-1.1-2-5.4-5.2-7-5.2c-0.9,0-14.4,14.7-17.3,19c-0.9,1.4-1.7,2-1.7,1.4c-0.1-1.9,8.1-13.7,12.5-18c4.1-3.9,4.2-4.2,2.5-5.8
		c-1-0.9-2.4-1.6-3.2-1.6c-0.9,0-6,4.5-11.4,10c-5.4,5.5-10,9.8-10.3,9.5c-0.6-0.6,0.3-1.7,11.2-13.8l7.8-8.7l-3.3-1.2
		c-1.9-0.6-3.4-1.2-3.5-1.2c0-0.1-2.9,3.3-6.4,7.4c-3.5,4.1-8.5,9.7-11,12.5c-2.5,2.7-6.3,7-8.4,9.5c-4.3,5-3.8,4.1,4.9-8.6
		c3.3-4.8,8.8-11.7,12.3-15.3c3.4-3.6,6.2-6.7,6.2-6.8c0-0.2-1-0.3-2.3-0.3c-1.4,0-6.1,3.2-12,8c-5.3,4.4-10.1,8-10.7,8
		s3.5-4.1,9-9.2c5.5-5,10-9.3,10-9.5c0-0.6-2.2,0.7-4.5,2.7c-1.1,0.9-4.7,3.2-8,5.2c-3.3,1.9-9.8,5.8-14.4,8.7
		c-4.6,2.8-8.5,5-8.8,4.8c-0.2-0.3,4.9-4,11.4-8.4c17.2-11.6,20.2-13.7,20.3-14.5c0-1.6-6.9,0.5-14.4,4.3c-4.3,2.2-8,3.8-8.2,3.6
		c-0.3-0.3,3.8-3.1,12.4-8.4c1.2-0.7,2.2-1.8,2.2-2.3C392,280.8,390.7,280.7,389.5,281.9z M314.5,296.4c-0.5-0.1-4.4,1.6-8.5,3.9
		c-8.2,4.6-11.4,8.8-12.5,16.2c-1.4,8.7-8.9,27.9-15.2,39c-2.5,4.4-7,10.8-9.9,14.2c-4.9,5.5-6.5,8.3-4.8,8.3
		c1.3,0,17.2-7.9,21.9-10.8c2.8-1.8,11.2-9.4,18.8-16.9l13.7-13.7l-0.1-6.1c0-3.3-0.6-12.3-1.2-19.9
		C316,302.9,315.1,296.5,314.5,296.4z M290,308.7c-3.5,1.3-6.2,5.2-8.4,12.2c-6.6,20.7-16.1,41.6-25.4,55.8
		c-2.6,4.1,0.7,2.6,5.7-2.6c14.5-14.9,31.1-48.9,31.1-63.7C293,308,292.6,307.7,290,308.7z M269.7,317.5c-4.2,1.9-8,3.4-8.2,3.4
		c-0.9,0-16.6,6-21.9,8.4c-2.7,1.2-5.2,2.2-5.5,2.2c-0.3,0-3.4,1.3-6.9,2.8c-7.5,3.4-8.1,4.5-9.3,17.7c-0.4,5.2-1,10.4-1.3,11.5
		c-0.3,1.7,1.9,3.1,15.8,9.8c8.8,4.3,16.4,7.8,16.8,7.7c1.2,0,9.7-13.8,14.8-23.9c5.5-11.1,13.8-31.6,16.5-40.9
		C281.4,313.1,279.2,313.4,269.7,317.5z M208.7,335h-8.3l-9.8,20c-5.4,11-9.6,20.5-9.4,21.1c0.2,0.7,2-1.1,4.1-3.9
		c3.6-5,12.8-12.2,15.6-12.2c0.8,0,2.3-0.7,3.3-1.7c2.4-2.1,2.3-0.9-0.3,8.4c-1.4,5.2-1.8,8.2-1.2,10c0.9,2.5,1.3,2.1,6.2-7.3
		c4.5-8.3,5.5-11.1,6.2-17.4c0.4-4.1,1.3-9,1.9-10.8c0.7-1.8,0.9-3.9,0.6-4.7C217.2,335.3,215.2,335,208.7,335z M196.4,364.8
		c-5.4,3.6-6.3,4.7-11.5,14.8c-7.9,15.3-13.1,32.2-20.4,66.4c-1.5,6.9-4,18.2-5.6,25.2c-1.6,7-2.9,13.5-2.9,14.4
		c0,1-1.3,7.6-2.9,14.8C146.7,528.7,136,587,134,604.5c-1.4,12.8-3.8,47.2-4.6,66.3l-0.7,16.3l6.4-6.7c8.8-9.2,23.4-20.7,32.3-25.4
		c13.9-7.4,31.5-10.8,46.1-9c4.7,0.6,9.2,1.3,10,1.6c1.2,0.5,1.4,0,1.1-2.2c-0.3-1.6-1.8-11.2-3.5-21.4c-5.6-34-11.6-80.3-13.1-101
		c-0.6-7.4-2.4-27-4-43.5c-3-29.9-4.4-52.8-5.6-89l-0.6-19l3.1-4.5c1.7-2.5,3.1-4.8,3.1-5.3C204,360.3,202.3,361,196.4,364.8z
		 M197.5,649c-14.1,1.5-36.8,11.7-50.1,22.7c-4.3,3.5-12.1,13.9-11.2,14.8c1.1,1.1,6.4-1.7,10.3-5.4c3-2.9,5.1-4,8.3-4.4
		c4.9-0.6,8-3,10.8-8.3c1.5-2.7,2.5-3.5,4.4-3.3c4.7,0.2,5.7-0.1,10.3-3.6c3.8-2.9,5-3.4,6.6-2.5c3.2,1.7,6,1.2,7.6-1.4
		c1.4-2,2.2-2.4,4.9-1.9c2.1,0.3,4.7-0.1,7-1.2c3.5-1.7,3.7-1.7,5.1,0.1s1.4,1.8,1.4-0.6c0-1.4-0.3-3.2-0.7-4
		C211.4,648.2,207.5,647.9,197.5,649z M217.8,648.6l-2.8-0.5v7.8c0,7.8-0.9,10.1-4,10.1c-2.9,0-4.1,4.1-3.8,12.5l0.3,8l5-7.8
		c2.8-4.3,6.5-9.9,8.4-12.4c4.6-6.2,5.5-13.3,2-15.6C221.6,649.8,219.3,648.9,217.8,648.6z M206.5,657c-1.1,0.5-3.4,0.9-5.2,0.9
		c-5.4,0.1-6.3,2-6.3,12.8c0,8.2,0.2,9.4,1.4,8.3c0.8-0.6,2-2.7,2.6-4.6c0.9-2.6,1.7-3.4,3.6-3.4s2.9-0.8,4-3.5
		c1-2.4,2.1-3.5,3.4-3.5c2.6,0,3.6-2.5,2.2-5.6C211,655.9,209.8,655.6,206.5,657z M182.8,661.8c-2.3,3.2-6.2,5.2-10,5.2
		c-3.3,0-4.1,0.5-6.4,3.9c-2.6,4-6.4,6.4-11.9,7.5c-1.7,0.4-5.9,2.9-9.4,5.6c-3.6,2.8-7,5-7.7,5c-1.6,0-4.8,8.5-3.9,10
		c0.5,0.9,2.5,1.1,6.2,0.7c4.9-0.5,5.3-0.4,3.7,0.8c-1.1,0.8-3.9,1.5-6.3,1.5h-4.4l2.4,2.6c1.3,1.4,3.3,3.1,4.4,3.7
		c1.2,0.7,12.7,1.6,27.5,2.3c23.6,1,26.1,1.3,34,4c14.4,4.7,25,12.2,25,17.6c0,2.2-0.8,3.3-3.5,5c-4,2.3-4.3,5.1-0.7,5.6
		c3.5,0.5,7-2.3,7.8-6.3c0.4-2.5,1.1-3.5,2.5-3.5s1.9-0.7,1.9-3c0-2.2-0.5-3-1.8-3c-1,0-2.2-1.2-2.9-3c-0.8-2.1-1.8-3-3.3-3
		c-1.2,0-3.4-0.8-4.8-1.9c-1.5-1-4.8-2.1-7.5-2.3c-3.9-0.5-5.6-1.4-9.7-5.2c-2.7-2.5-5.7-4.6-6.7-4.6c-0.9,0-2.9-1.2-4.4-2.6
		c-2.7-2.6-2.9-2.6-6.6-1.2c-4.2,1.7-8.3,1-11.3-1.7c-1.1-1-2-1.2-2.4-0.6c-0.4,0.5-2.2,1.5-4.1,2.1c-2.9,0.9-4.1,0.9-6.7-0.4
		c-2.5-1.3-3.8-1.4-6.4-0.6c-3.6,1.2-6,0.5-8.5-2.6c-1.3-1.6-1.2-1.7,1.1-1c5.4,1.7,8.3,1.8,10.7,0.5c2.2-1.2,2.6-1.1,3.4,0.4
		c1.2,2,5.6,2.2,9.3,0.6c2-0.9,3.2-0.9,5.8,0.4c2.7,1.2,4.3,1.3,8.6,0.5c5.1-1,5.4-1,8.3,1.8c2.2,2.1,3.8,2.8,5.9,2.6
		c2.4-0.3,3,0.1,3.6,2.2c0.9,3.7,6,7,11.1,7.2c2.6,0.1,5.2,1,6.9,2.3c1.5,1.1,3.2,2.1,3.9,2.1s2.9,1.1,4.9,2.5
		c2,1.4,3.9,2.5,4.1,2.5c0.3,0,0.5-1.3,0.5-2.9c0-3.1-1.9-5.6-4.8-6.5c-3.8-1.1-10.8-3-12-3.2c-2.4-0.5-8.3-5.6-10.6-9.2
		c-1.3-2.1-3.1-4.4-4-5.1c-1-0.8-2.4-2.8-3.3-4.5c-0.9-1.7-2.6-3.9-3.9-4.9c-3.1-2.4-4.4-7.5-4.4-17.4v-8.1l-3.1-1.1
		C184.7,659.6,184.3,659.7,182.8,661.8z M204.3,674.6c-1-1.7-1.4-1.4-4.7,3c-4.3,5.9-4.6,8.4-1.1,8.4c1.8,0,2.5,0.5,2.5,1.9
		c0,3.1,2.1,7.9,3.7,8.5c1.4,0.6,1.5-0.6,1.1-9.7C205.6,681.1,204.9,675.6,204.3,674.6z M240.1,717h-3.8l0.1,8.7
		c0.1,8-0.1,8.9-2,9.7c-1.2,0.5-3.3,2.9-4.7,5.2c-2.1,3.4-3.2,4.3-5.9,4.6c-2.7,0.2-3.4,0.8-3.6,3c-0.2,1.7,0.4,3.4,1.8,4.8
		c2,2,2.3,2,4.5,0.6c3.3-2.2,3.6-2,2.3,1.4c-2.2,6.4,1.4,10.4,7.3,8c3.3-1.4,3.1-1.5,4.5,2.5c0.9,2.7,1.4,3,5.1,2.8
		c3.7-0.1,4.1,0.1,4.6,2.5c0.8,3.8,4.4,8.2,6.8,8.2c2,0,2.6-1.5,1-2.4c-1.6-1-5.9-14.9-6.9-22.6c-1-7.7-4.6-26.5-6.3-33.3
		C244,717.2,243.7,717,240.1,717z M202.9,718c-0.8,0-0.9,2.7-0.4,9.7c0.4,5.4,0.8,9.9,0.9,10.1c0.2,0.1,4-0.4,8.5-1.2
		c15-2.6,14.8-5.8-0.6-14.5C207.3,719.8,203.5,718,202.9,718z M247.4,721.7c1.3,4.6,4.6,21.5,4.6,23.8c0,3.6,1.3,3.1,3.4-1.2
		c2.7-5.6,3.2-13.3,1.2-17.1C254.7,723.4,246.4,718.5,247.4,721.7z M206.6,740.5c-1.2,0.6-2.2,2-2.4,3.2
		c-0.6,4.1,8.6,15.3,20.5,24.8c11.2,8.9,12.1,9.5,24.8,15.6c12.5,6,17.5,7.7,17.5,6.1c0-1-5.3-6.2-6.3-6.2c-2.1,0-9.1-5.5-10.9-8.6
		c-1.5-2.6-2.7-3.4-4.8-3.4c-1.9,0-3.6-0.9-5-2.8c-1.7-2-3.1-2.7-5.8-2.7c-3.2,0-3.9-0.5-5.9-4.2c-1.5-2.6-3.4-4.5-5.3-5.2
		c-3.5-1.2-5-4.4-5-10.9c0-2.6-0.4-5.2-0.8-5.8C216.3,739,209.4,739.1,206.6,740.5z M319.5,828l-5.8-2l0.6,4.2
		c0.3,2.2,1.5,5,2.6,6.2l2.1,2l4.4-2.2c2.5-1.1,5-3,5.6-4.2c0.9-1.7,0.8-2-1.3-2C326.4,830,322.7,829.1,319.5,828z"/>
	<path d="M461,81.6c0.5,0.5-3.1,0.9-8.7,0.9c-9,0-9.3-0.1-5.7-1.2C450.8,80,459.6,80.2,461,81.6z"/>
	<path d="M461.7,87.6l2.3,0.6l-2,2.5c-1.1,1.4-2,3.3-2,4.3c0,5.2-9.1,7-15.5,3l-3.7-2.3l2.9-2.3c1.5-1.3,4.6-3.3,6.8-4.4
		C454.6,87,457.8,86.6,461.7,87.6z M455.1,95.5c-1.5,2.7-1.7,3.5-0.6,3.5c1.8,0,4.5-2.7,4.5-4.5C459,91.6,457.1,92.1,455.1,95.5z"/>
	<path d="M446.8,122c3.4,0,19.5,2.1,20.1,2.6c0.6,0.6-7.1,10.4-9,11.5c-4.9,2.6-11.3-2.9-13.3-11.4C444,122.2,444.2,122,446.8,122z
		 M455.5,127.1c-4.6-0.2-5.6,0.7-3,2.9c1.5,1.3,4.7,0.6,6.4-1.4C459.7,127.6,459,127.3,455.5,127.1z M451,130.5c-1.1-1-2-1.3-2-0.8
		c0,2.3,7.3,5.3,8.4,3.4c0.3-0.5-0.6-0.9-2-0.9C454.1,132.2,452,131.4,451,130.5z"/>
	<path d="M352.5,111c0.2,0-1.5,2.8-3.8,6.1C338.5,132,327,152.9,327,156.6c0,0.8-0.4,1.4-1,1.4c-1.1,0,0.6-4.9,5.4-15.5
		c4.4-9.4,10.3-19,16.4-26.3C350.2,113.4,352.3,111,352.5,111z"/>
	<path d="M405.5,232.7c1.1,0.6,6,2.1,10.9,3.3c8.3,2.1,12.8,2.2,18.1,0.6c1.1-0.4,0.2,0.3-2,1.4c-8.1,4-21.7,1.9-27.1-4.2
		C403.5,231.7,403.5,231.7,405.5,232.7z"/>
	<path d="M319.5,251.1c3.6,1.2,5.3,2.6,6.7,5.3c0.9,1.6,0.4,1.4-2.4-0.9c-1.9-1.7-4.3-3.6-5.4-4.2
		C316.8,250.3,317,250.2,319.5,251.1z"/>
	<path d="M431.5,304c0.9,0-1.5,4.9-5.2,10.7c-6,9.5-12.7,22.3-18.1,34.3c-1.1,2.5-2.5,5.6-3.1,7c-1,2.3-1.1,2.3-0.5-0.8
		c0.5-2.9,10.4-23.8,14.8-31.2c0.8-1.4,3.8-6.4,6.6-11.3C428.8,307.9,431.3,304,431.5,304z"/>
	<path d="M615.8,305c1.9,0-10.1,12.2-19.8,20.1c-5,4.1-24,16.4-24,15.5c0-0.3,14.2-10.9,24-17.9c3.6-2.5,9.4-7.5,13-11.1
		C612.5,308,615.6,305,615.8,305z"/>
	<path d="M637.8,310c1.1,0,9.4,18.2,13.1,29c2.8,8.1,5,17,12.1,48c1.7,7.4,4.4,19.1,6,26c6.9,30.2,16.5,84.8,22,126
		c2.2,16.3,2.4,18.7,1.4,17.8c-0.7-0.8-3.1-16.6-4.4-29.7c-0.6-5.8-1.8-13.7-2.6-17.5c-0.8-3.9-1.9-10.3-2.5-14.1
		c-1.1-8.2-5.1-30.6-8-45c-1.1-5.5-2.4-12-2.9-14.5c-5.2-26.2-11.9-54.5-20.7-87c-2.1-7.7-12.1-35.2-14-38.3
		C637.1,310.3,637.3,310,637.8,310z"/>
	<path d="M627.5,317.5l0.3,11.3c0.3,12-1.8,29.6-4.3,37.2c-1.7,5-1.7,4.8,1-10c0.7-4.1,1.7-14.5,2.2-23L627.5,317.5z"/>
	<path d="M632,318c0.6,0,1,0.4,1,1c0,0.5-0.4,1-1,1c-0.5,0-1-0.5-1-1C631,318.4,631.5,318,632,318z"/>
	<path d="M632.8,323c2.2,2.9,6.8,27.9,9.2,48.5c0.5,4.9,0.9,21.6,0.8,37l-0.1,28l-0.8-26.5c-0.4-14.6-1.4-32.6-2.3-40
		c-1-7.4-2.1-17.1-2.6-21.5c-0.8-7.3-3.3-21.2-4.6-25.3C631.9,321.8,632,321.8,632.8,323z"/>
	<path d="M602.7,349c0.7,0-0.9,2.4-9.4,13.7c-8.3,11-16.9,19.9-23.5,24.3c-2.2,1.4-1.4,0.3,2.3-3.2c7-6.6,22.3-23.7,26.8-30.1
		C600.8,351.1,602.5,349,602.7,349z"/>
	<path d="M403.6,359.3c0.2,0.2-0.1,1.8-0.7,3.6s-1.4,3-1.7,2.7c-0.2-0.3,0.1-1.9,0.8-3.6C402.7,360.3,403.4,359.1,403.6,359.3z"/>
	<path d="M398.9,373.2c-4,13-14.7,59.1-15.9,68.2c-0.5,3.9-1.8,12.3-2.9,18.6c-1.1,6.3-2.2,14.2-2.6,17.5c-0.6,6-5,41.2-8.1,64.5
		c-0.9,6.9-2,13.2-2.5,14c-1.2,2.2-1.1,1.1,1.6-18.6c1.4-9.8,2.5-19.4,2.5-21.3c0-3.2,1.3-12.8,8.1-58.1c1.6-11.3,4.4-27,6-35
		c3.2-15,10.9-45.4,12.8-50.3C399.4,368.9,400.1,369.3,398.9,373.2z"/>
	<path d="M565.6,389c0.2,0,0.4,0.4,0.4,1c0,0.5-0.5,1-1.1,1c-0.5,0-0.7-0.5-0.4-1C564.8,389.4,565.3,389,565.6,389z"/>
	<path d="M212.5,400.8c0.4,2,1.3,5.7,2.1,8.2c0.7,2.5,2,7,2.8,10c1.6,5.9,7.1,22.2,8.6,25.5c0.5,1.1,3,6.9,5.6,13
		c12.1,28.8,27.2,53.2,41.4,66.8c5,4.9,8.9,9.1,8.7,9.4c-0.7,0.6-18.3-16.8-22.9-22.7c-6.3-7.8-16.1-25-23.5-41
		c-9-19.6-11.3-24.7-11.3-25.6c0-0.4-1.3-4.1-2.9-8.3c-4.6-12-12.3-40.5-12.1-44.6C209.1,389.6,211.9,397,212.5,400.8z"/>
	<path d="M427.7,423.7c0.2,1.3,0.2,3.5,0,5c-0.2,1.6-0.4,0.5-0.4-2.2C427.3,423.7,427.5,422.5,427.7,423.7z"/>
	<path d="M208.8,424c0.9,0,1.9,4.4,6.8,30.5c1.4,7.1,3.3,17.3,4.4,22.5c1,5.2,2.4,12.4,3.1,16c0.6,3.6,2,10.8,3.1,16
		c2.9,14.2,3.2,16.6,2.1,15.5c-1.1-1.1-2.9-9.1-4.3-18.3c-0.5-3.1-1.8-10.2-3-15.7s-2.8-13.6-3.5-18c-0.8-4.4-2.3-12.5-3.4-18
		c-1.1-5.5-2.7-14-3.6-18.9c-0.9-4.8-1.9-9.4-2.2-10.2S208.2,424,208.8,424z"/>
	<path d="M251.8,425.6c1.9,1,3.9,2.5,4.5,3.3c0.8,0.9,0,0.8-2.1-0.5c-1.9-1-3.9-2.5-4.5-3.3C248.9,424.2,249.7,424.3,251.8,425.6z"
		/>
	<path d="M261,431.7c1.7,0.9,3,2.1,3,2.5c0,0.4-1.3-0.1-3-1c-1.6-0.9-3-2.1-3-2.5C258,430.2,259.4,430.7,261,431.7z"/>
	<path d="M247.3,594c0.3,0,1.6,3,3,6.7c1.4,3.8,4.4,12,6.7,18.3c8.5,23.1,21.6,53.5,30.4,70.5c4.8,9.3,7.7,15.7,6.7,15.1
		c-0.8-0.5-16.3-31.3-20.7-41.1c-7.1-16.1-17.9-43.8-22.4-57.5c-1.5-4.7-3.1-9.3-3.5-10.3C247.1,594.8,247,594,247.3,594z"/>
	<path d="M298.8,711.2c1.6,2.9,4.1,7.4,5.6,10c1.5,2.7,2.6,4.8,2.3,4.8c-0.6,0-6.9-10.3-9.6-15.8C294.1,704.2,295.3,705,298.8,711.2
		z"/>
	<path d="M308.1,727.7c0.7,0.7,1,1.5,0.7,1.8c-0.3,0.3-0.9-0.2-1.2-1.2C307,726.9,307.1,726.8,308.1,727.7z"/>
	<path d="M309.9,731c0.6,0,1.1,0.4,1.1,1c0,0.5-0.2,1-0.4,1c-0.3,0-0.8-0.5-1.1-1C309.2,731.4,309.4,731,309.9,731z"/>
</g>
</svg>
