<?xml version="1.0" encoding="UTF-8" standalone="no"?>
<svg
   xmlns:dc="http://purl.org/dc/elements/1.1/"
   xmlns:cc="http://creativecommons.org/ns#"
   xmlns:rdf="http://www.w3.org/1999/02/22-rdf-syntax-ns#"
   xmlns:svg="http://www.w3.org/2000/svg"
   xmlns="http://www.w3.org/2000/svg"
   xmlns:sodipodi="http://sodipodi.sourceforge.net/DTD/sodipodi-0.dtd"
   xmlns:inkscape="http://www.inkscape.org/namespaces/inkscape"
   version="1.0"
   width="850.000000pt"
   height="850.000000pt"
   viewBox="0 0 850.000000 850.000000"
   preserveAspectRatio="xMidYMid meet"
   id="svg92"
   sodipodi:docname="9.svg"
   inkscape:version="0.92.2 5c3e80d, 2017-08-06">
  <defs
     id="defs96" />
  <sodipodi:namedview
     pagecolor="#ffffff"
     bordercolor="#666666"
     borderopacity="1"
     objecttolerance="10"
     gridtolerance="10"
     guidetolerance="10"
     inkscape:pageopacity="0"
     inkscape:pageshadow="2"
     inkscape:window-width="1920"
     inkscape:window-height="978"
     id="namedview94"
     showgrid="false"
     inkscape:zoom="0.83294118"
     inkscape:cx="904.90939"
     inkscape:cy="583.14836"
     inkscape:window-x="0"
     inkscape:window-y="1"
     inkscape:window-maximized="1"
     inkscape:current-layer="svg92" />
  <metadata
     id="metadata2">
Created by potrace 1.14, written by Peter Selinger 2001-2017
<rdf:RDF>
  <cc:Work
     rdf:about="">
    <dc:format>image/svg+xml</dc:format>
    <dc:type
       rdf:resource="http://purl.org/dc/dcmitype/StillImage" />
  </cc:Work>
</rdf:RDF>
</metadata>
  <g
     transform="translate(0.000000,850.000000) scale(0.100000,-0.100000)"
     fill="#000000"
     stroke="none"
     id="g90">
    <path
       d="M1 5698 c1 -2462 2 -2794 15 -2733 19 94 107 268 191 380 68 91 196 223 483 500 86 83 162 162 169 177 14 26 11 31 -87 160 -167 219 -239 367 -263 541 -16 115 -5 191 75 517 125 513 119 583 -76 967 -54 106 -98 203 -98 217 0 80 150 70 354 -21 263 -119 482 -313 644 -568 96 -153 181 -393 213 -600 17 -113 20 -117 59 -64 81 112 160 336 160 456 0 50 -9 72 -107 261 -144 275 -165 324 -161 370 3 35 5 37 39 40 85 7 255 -95 399 -238 140 -139 237 -304 308 -520 188 -572 132 -1027 -158 -1274 -97 -83 -231 -136 -610 -240 -91 -25 -192 -56 -225 -69 l-59 -23 -139 -204 c-194 -287 -237 -378 -237 -503 l0 -60 73 6 c139 11 305 76 605 239 502 273 709 343 929 318 218 -25 338 -79 587 -269 66 -50 130 -91 141 -91 12 0 48 9 80 20 70 24 189 27 261 5 72 -21 138 -67 186 -129 45 -59 51 -58 62 8 4 21 18 49 32 63 13 13 24 33 24 43 0 25 -43 115 -75 159 -35 48 -49 103 -50 196 0 72 4 88 34 150 22 44 55 89 89 122 30 29 67 73 83 98 38 59 96 116 244 235 147 118 188 164 227 247 27 56 30 72 26 127 -10 120 -52 168 -230 268 -135 75 -188 121 -225 197 -24 47 -28 69 -28 136 0 70 4 87 30 134 41 75 114 125 259 177 25 9 78 52 145 117 82 79 123 111 181 139 224 109 410 62 644 -162 l101 -97 107 -6 c137 -7 221 -28 333 -82 152 -73 281 -198 368 -355 23 -42 73 -109 113 -151 78 -82 99 -117 135 -224 24 -69 24 -75 24 -505 1 -380 3 -445 19 -515 25 -112 38 -136 122 -214 113 -106 240 -165 509 -237 143 -38 290 -90 367 -131 131 -68 244 -195 298 -334 25 -65 70 -121 272 -334 26 -28 35 -30 121 -36 176 -11 299 -101 367 -267 19 -47 19 -14 19 3111 l1 3157 -4250 0 -4250 0 1 -2802z"
       id="path4"
       style="fill:none" />
    <path
       d="M480 6421 c0 -5 31 -43 69 -85 116 -127 177 -233 229 -396 53 -167 63 -265 72 -710 9 -429 11 -453 64 -699 71 -323 91 -462 79 -558 -5 -49 -4 -53 15 -53 25 0 49 42 105 186 110 281 148 629 104 979 -55 442 -260 890 -548 1200 -100 106 -189 171 -189 136z"
       id="path6"
       style="fill:#6666ff" />
    <path
       d="M595 6411 c-3 -5 16 -26 41 -47 105 -87 281 -324 377 -511 180 -350 271 -724 260 -1068 -11 -324 -59 -559 -154 -747 -34 -68 -34 -68 -9 -68 40 0 159 215 235 423 19 54 47 156 61 225 24 113 27 150 26 327 0 231 -14 322 -83 521 -132 384 -405 757 -674 919 -63 38 -71 40 -80 26z"
       id="path8"
       style="fill:#6666ff" />
    <path
       d="M477 6363 c-4 -6 39 -100 94 -209 128 -256 144 -313 136 -504 -4 -117 -12 -164 -56 -350 -29 -118 -59 -246 -68 -285 -23 -98 -22 -289 1 -380 25 -102 115 -276 197 -385 103 -137 119 -162 139 -226 25 -82 40 -81 40 3 0 80 -16 174 -71 431 -72 330 -70 307 -79 747 -10 532 -29 660 -125 863 -65 137 -193 319 -208 295z"
       id="path10"
       style="fill:#6666ff" />
    <path
       d="M944 6203 c254 -261 437 -613 513 -983 27 -133 25 -421 -4 -566 -32 -156 -86 -320 -149 -453 -75 -159 -58 -165 42 -16 101 154 181 354 221 560 12 65 17 140 17 265 0 205 -15 304 -75 485 -77 233 -190 415 -362 582 -102 99 -237 203 -265 203 -8 0 20 -35 62 -77z"
       id="path12"
       style="fill:#6666ff" />
    <path
       d="M1606 6271 c-9 -14 13 -73 57 -156 l42 -80 100 -50 c112 -55 214 -124 320 -214 38 -33 71 -58 73 -57 6 6 -96 171 -142 227 -78 99 -290 270 -388 313 -32 14 -59 22 -62 17z"
       id="path14"
       style="fill:#6699ff" />
    <path
       d="M1731 5983 c2 -5 60 -116 129 -247 120 -227 127 -239 174 -267 116 -72 212 -188 295 -358 58 -118 63 -126 56 -85 -2 16 -12 79 -20 141 -18 129 -85 369 -121 430 -30 53 -153 166 -269 248 -91 65 -251 155 -244 138z"
       id="path16"
       style="fill:#6699ff" />
    <path
       d="M4695 5881 c-51 -18 -122 -58 -205 -113 -48 -33 -120 -98 -120 -109 0 -3 44 -4 98 -1 119 5 229 -14 337 -59 88 -36 205 -111 250 -160 l30 -32 -65 37 c-203 115 -312 159 -446 177 -137 20 -309 -14 -424 -83 -152 -91 -183 -304 -62 -424 16 -16 72 -53 125 -83 134 -76 197 -127 231 -190 39 -73 45 -148 18 -237 -28 -90 -73 -147 -207 -262 -171 -147 -275 -242 -275 -253 0 -5 36 9 81 32 45 22 83 38 86 35 3 -2 -53 -43 -125 -90 -135 -89 -177 -131 -214 -213 -29 -64 -29 -190 -1 -254 l20 -44 10 71 c10 62 38 132 50 121 2 -2 -2 -28 -8 -58 -19 -87 -7 -216 27 -289 l29 -62 109 132 c115 138 161 177 239 204 59 20 97 20 170 1 77 -20 81 -20 120 15 l35 30 -39 76 c-67 134 -158 347 -174 409 -28 110 -15 209 40 296 86 137 86 136 71 364 -8 112 -7 128 19 232 15 62 31 115 36 119 28 17 -2 24 -99 24 -71 0 -112 -4 -120 -12 -17 -17 -15 -82 3 -126 9 -20 35 -56 57 -79 51 -52 46 -64 -9 -24 -51 37 -93 118 -93 179 l0 44 -36 -7 c-61 -11 -29 13 49 37 59 19 94 23 197 23 198 -1 270 -27 555 -197 285 -170 363 -198 489 -178 79 12 144 35 171 59 11 10 34 25 50 33 17 8 52 28 78 43 51 29 162 55 235 55 24 0 42 5 42 11 0 24 -77 136 -139 202 -112 118 -222 192 -359 241 -74 26 -256 55 -269 42 -4 -4 38 -52 92 -106 55 -55 94 -100 88 -100 -21 0 -155 115 -263 225 -172 175 -277 249 -396 279 -79 20 -127 20 -189 -3z m78 -197 c74 -19 152 -57 190 -92 43 -41 32 -44 -30 -9 -66 37 -139 67 -233 96 -62 18 -63 19 -26 20 21 1 65 -6 99 -15z"
       id="path18"
       style="fill:#ff6600" />
    <path
       d="M1876 5610 c-2 -8 -7 -40 -10 -71 -13 -127 -81 -288 -171 -407 l-55 -72 0 -92 1 -93 72 75 c80 83 134 160 185 263 38 77 72 171 72 198 0 28 -88 215 -94 199z"
       id="path20"
       style="fill:#666699" />
    <path
       d="M2026 5408 c30 -58 84 -211 120 -343 41 -146 49 -165 104 -237 23 -30 49 -82 62 -125 13 -40 26 -73 29 -73 15 0 42 171 37 232 -12 141 -123 352 -259 490 -90 93 -122 112 -93 56z"
       id="path22"
       style="fill:#6699ff" />
    <path
       d="M1974 5308 c-24 -76 -89 -203 -139 -273 -23 -33 -78 -94 -122 -135 l-80 -75 -27 -133 c-15 -73 -25 -136 -22 -139 11 -11 191 135 277 224 86 90 194 241 215 302 10 29 8 45 -11 105 -46 140 -59 176 -66 176 -4 0 -15 -24 -25 -52z"
       id="path24"
       style="fill:#666699" />
    <path
       d="M4591 5213 c-5 -10 -20 -55 -34 -100 l-25 -81 29 10 c39 13 91 -5 124 -43 26 -31 32 -49 16 -49 -4 0 -29 18 -54 40 -25 22 -50 40 -56 40 -7 0 -23 -11 -36 -25 -25 -24 -32 -72 -19 -122 7 -27 24 -31 24 -5 1 12 5 10 15 -9 20 -37 112 -69 99 -35 -7 17 21 12 50 -9 34 -26 80 -248 58 -281 -4 -6 -24 -14 -46 -17 -46 -7 -98 12 -138 50 -24 23 -28 34 -28 86 0 32 5 68 11 79 9 16 8 23 -2 29 -25 16 -34 3 -31 -43 5 -64 -13 -123 -59 -195 -83 -128 -98 -219 -55 -346 46 -138 174 -411 206 -439 29 -27 35 -28 134 -28 188 0 298 39 646 233 185 102 223 129 250 171 17 28 19 39 10 56 -14 26 -14 26 -100 -10 -65 -27 -150 -40 -150 -24 0 4 14 22 31 42 40 45 80 132 81 174 1 18 -4 66 -11 105 -19 111 -2 226 47 326 l39 78 -41 -8 c-114 -23 -236 4 -364 80 -31 19 -128 78 -215 130 -220 133 -380 188 -406 140z m757 -348 c58 -26 152 -110 152 -136 0 -5 -28 13 -62 40 -88 67 -120 82 -204 90 -77 7 -90 12 -79 31 13 21 124 7 193 -25z m-268 -147 c0 27 8 28 26 5 8 -11 13 -13 14 -5 0 7 8 4 20 -8 11 -11 30 -20 43 -20 60 0 143 -31 175 -65 17 -19 32 -40 32 -47 -1 -7 -9 -3 -19 10 -35 41 -32 23 10 -60 29 -57 39 -87 32 -96 -5 -8 -33 -28 -62 -43 -73 -39 -143 -40 -215 -2 -98 52 -98 53 -63 166 l24 73 -25 18 c-23 18 -52 72 -52 98 0 6 14 -1 30 -17 29 -28 30 -28 30 -7z m-330 -242 c0 -3 -29 -26 -64 -51 -69 -49 -84 -72 -67 -104 16 -30 13 -49 -4 -27 -16 21 -19 63 -7 83 10 15 124 102 135 103 4 0 7 -2 7 -4z m-205 -286 c3 -5 32 -17 63 -26 31 -9 111 -33 177 -54 66 -21 137 -42 158 -45 32 -6 36 -5 31 9 -9 22 12 20 37 -5 23 -23 21 -42 -7 -48 -10 -1 -44 -18 -74 -36 -120 -73 -223 -94 -288 -61 -46 24 -62 53 -62 116 0 30 -6 65 -13 76 -40 69 -47 84 -38 84 5 0 13 -4 16 -10z"
       id="path26"
       style="fill:#cccc99" />
    <path
       d="M5114 4595 c-22 -34 -43 -94 -44 -125 0 -22 10 -31 65 -58 81 -40 89 -40 43 -2 -58 48 -56 120 4 179 l32 31 -42 0 c-33 0 -45 -5 -58 -25z"
       id="path28"
       style="fill:#6600cc" />
    <path
       d="M5215 4582 c-37 -23 -52 -41 -55 -67 -5 -44 1 -63 26 -89 21 -20 37 -26 69 -26 37 0 48 5 74 35 33 37 35 44 25 69 -10 26 -24 18 -24 -14 0 -64 -85 -96 -130 -48 -21 23 -26 72 -11 97 8 13 12 13 27 0 15 -12 18 -11 32 9 8 12 23 22 33 22 26 0 24 16 -3 24 -31 8 -29 8 -63 -12z"
       id="path30"
       style="fill:#6600cc" />
    <path
       d="M4590 4146 c0 -17 244 -96 257 -83 2 3 -48 22 -112 42 -64 20 -122 38 -130 42 -8 3 -15 3 -15 -1z"
       id="path32"
       style="fill:#ff00cc" />
    <path
       d="M4601 4052 c-1 -47 3 -57 29 -84 29 -29 34 -30 98 -26 49 3 86 13 140 37 39 19 72 38 72 43 0 5 -12 2 -27 -5 -82 -42 -227 -48 -263 -11 -11 10 -26 37 -34 59 l-15 40 0 -53z"
       id="path34"
       style="fill:#ff00cc" />
    <path
       d="M4640 4062 c0 -27 22 -43 73 -53 43 -8 167 7 167 20 0 4 -42 15 -92 25 -51 10 -105 20 -120 23 -23 5 -28 2 -28 -15z"
       id="path36"
       style="fill:#ff9999" />
    <path
       d="M5998 5055 c-70 -14 -104 -29 -252 -113 -87 -50 -90 -52 -119 -118 -33 -77 -67 -225 -67 -299 0 -92 31 -176 99 -270 l36 -50 6 76 c7 79 30 144 82 227 43 67 65 60 117 -40 24 -46 61 -116 82 -156 21 -41 38 -87 38 -105 0 -18 -11 -81 -24 -141 l-24 -110 67 -70 c65 -68 131 -155 131 -173 0 -4 -47 41 -104 102 l-103 110 -16 -32 c-16 -30 -16 -32 15 -69 92 -115 205 -310 254 -442 40 -104 27 -93 -46 42 -78 143 -196 336 -232 378 l-23 27 -90 -50 c-190 -107 -180 -100 -159 -112 51 -27 129 -96 170 -151 26 -33 86 -140 134 -236 48 -96 101 -187 117 -201 15 -14 83 -63 151 -109 68 -45 147 -105 177 -132 112 -102 171 -233 182 -405 6 -86 8 -93 27 -94 484 -16 504 -19 638 -98 37 -21 90 -47 118 -56 62 -21 174 -23 250 -5 56 13 304 110 297 116 -2 2 -30 -1 -63 -6 -92 -15 -96 -10 -14 17 157 53 336 41 504 -32 44 -19 81 -33 82 -32 8 8 -97 131 -132 157 -89 65 -148 71 -425 44 -210 -20 -279 -16 -349 22 -73 39 -107 86 -188 255 -60 123 -79 153 -122 192 -59 53 -73 58 -390 137 -114 28 -212 58 -220 67 -13 14 -12 15 10 9 31 -8 204 -47 362 -80 228 -48 283 -94 394 -321 129 -262 178 -288 479 -250 66 8 121 15 123 15 2 0 -21 28 -50 62 -158 184 -223 235 -420 331 -62 30 -126 69 -143 86 l-30 32 57 -25 c31 -14 111 -52 177 -86 67 -33 121 -58 121 -55 0 15 -46 95 -82 143 -95 127 -276 234 -503 297 -392 109 -490 157 -632 309 -104 111 -175 234 -208 361 -26 104 -16 115 19 19 18 -50 49 -120 69 -155 41 -71 45 -64 26 51 -6 36 -14 245 -19 465 -6 333 -10 411 -25 465 -31 114 -77 188 -153 246 -50 38 -74 41 -184 19z"
       id="path38"
       style="fill:#ff6600" />
    <path
       d="M2072 4992 c-41 -76 -140 -200 -221 -274 -34 -32 -113 -94 -175 -139 -62 -44 -118 -91 -124 -102 -40 -82 -112 -241 -109 -243 4 -5 170 67 302 131 170 81 339 211 391 301 l26 45 -16 127 c-9 70 -22 147 -29 171 l-12 44 -33 -61z"
       id="path40"
       style="fill:#666699" />
    <path
       d="M2194 4722 c0 -91 -5 -144 -18 -187 -18 -61 -64 -160 -71 -153 -2 2 4 37 15 78 10 41 21 94 25 118 l7 43 -67 -66 c-127 -124 -251 -199 -491 -296 -187 -74 -189 -76 -234 -135 -44 -59 -74 -120 -62 -127 8 -5 208 53 467 135 208 65 308 113 385 184 74 69 160 196 160 237 0 47 -29 147 -62 214 -49 100 -53 97 -54 -45z"
       id="path42"
       style="fill:#666699" />
    <path
       d="M4605 4740 c-19 -36 -19 -97 0 -130 14 -25 14 -25 8 10 -3 19 -6 37 -5 40 0 28 5 42 27 74 23 34 23 36 5 36 -11 0 -26 -12 -35 -30z"
       id="path44"
       style="fill:#6600cc" />
    <path
       d="M4656 4717 c-34 -44 -35 -95 -3 -125 25 -24 76 -29 95 -10 20 20 13 27 -17 15 -34 -13 -55 -6 -75 25 -20 31 -11 71 15 63 19 -6 39 19 39 49 0 27 -28 18 -54 -17z"
       id="path46"
       style="fill:#6600cc" />
    <path
       d="M5810 4506 c-7 -14 -9 -33 -6 -43 4 -10 13 -57 21 -105 14 -95 7 -157 -25 -232 -28 -66 -42 -65 -18 1 16 46 21 82 21 168 0 124 -7 162 -28 145 -16 -13 -32 -81 -40 -174 -8 -89 -38 -158 -86 -200 -21 -18 -102 -70 -180 -116 -171 -101 -231 -148 -265 -206 -51 -86 -31 -136 211 -550 294 -502 384 -635 529 -780 138 -138 302 -228 441 -241 52 -4 64 -2 88 17 110 87 108 365 -4 533 -53 80 -150 157 -385 307 -126 80 -265 171 -309 204 -97 71 -206 181 -260 262 -21 32 -46 65 -54 72 -13 10 -10 16 19 42 19 16 100 66 180 111 252 144 240 130 293 319 47 167 47 165 36 205 -15 53 -26 42 -32 -34 -6 -70 -41 -208 -58 -225 -12 -14 -11 -2 6 57 37 130 37 260 -1 327 -14 24 -14 23 -7 -15 13 -74 8 -168 -12 -223 -30 -83 -44 -81 -22 4 19 71 20 84 8 204 -18 184 -31 221 -61 166z"
       id="path48"
       style="fill:#cccc66" />
    <path
       d="M5544 4263 c-15 -27 -33 -58 -40 -70 -22 -36 -17 -36 38 2 34 23 54 31 59 24 7 -13 29 -4 29 12 0 13 -43 79 -52 79 -4 0 -19 -21 -34 -47z"
       id="path50"
       style="fill:#ff3366" />
    <path
       d="M860 3970 c-13 -19 -141 -154 -285 -300 -143 -146 -286 -299 -317 -340 -180 -237 -244 -431 -204 -619 35 -164 101 -243 294 -348 36 -19 209 -60 314 -73 170 -21 1080 -1 1243 28 33 6 114 16 180 22 66 7 159 21 207 31 49 11 175 35 281 54 264 48 295 56 302 73 3 8 0 64 -6 125 -29 279 24 433 219 626 l95 95 -39 33 c-74 63 -246 175 -328 214 -197 92 -401 117 -588 71 -114 -28 -153 -45 -527 -229 -468 -230 -528 -255 -679 -284 -76 -14 -204 -7 -252 14 l-35 16 53 -6 52 -6 0 40 c0 56 15 129 40 196 20 53 75 140 284 446 42 62 75 115 72 118 -2 3 -28 -14 -57 -37 -79 -62 -140 -90 -198 -90 -59 0 -65 7 -84 102 l-13 62 -24 -34z"
       id="path52"
       style="fill:#6666cc" />
    <path
       d="M5100 3755 c-135 -50 -242 -69 -365 -62 l-113 6 -26 -34 c-14 -18 -26 -38 -26 -42 0 -5 16 -25 36 -44 20 -18 95 -119 167 -224 217 -317 419 -596 433 -602 7 -2 47 24 88 58 75 63 76 64 76 112 0 26 12 83 26 126 l26 79 -117 198 -118 198 -26 -30 c-14 -16 -43 -50 -65 -74 -37 -44 -38 -44 -32 -15 9 34 47 90 84 122 24 20 25 24 14 61 -17 56 -15 100 8 150 22 50 20 50 -70 17z"
       id="path54"
       style="fill:#cccc99" />
    <path
       d="M5544 3629 c-27 -17 -51 -33 -53 -35 -15 -14 131 -188 226 -269 84 -72 275 -205 293 -205 14 0 -133 286 -188 367 -62 91 -160 173 -206 173 -12 0 -44 -14 -72 -31z"
       id="path56"
       style="fill:#cccc99" />
    <path
       d="M4254 3626 c-51 -24 -116 -89 -278 -280 -73 -86 -76 -92 -76 -141 0 -136 110 -356 246 -492 76 -77 110 -84 137 -28 19 41 66 73 120 81 20 4 37 10 37 14 0 5 -35 41 -77 80 -70 64 -73 69 -36 49 57 -30 229 -206 420 -429 273 -320 372 -403 478 -403 63 0 210 62 322 135 82 54 286 245 280 262 -14 35 -182 256 -194 256 -24 0 -276 -81 -296 -95 -17 -12 -15 -15 23 -45 22 -17 40 -36 40 -42 0 -15 -116 79 -188 152 -88 89 -175 206 -392 530 -200 298 -276 387 -346 408 -69 20 -162 15 -220 -12z"
       id="path58"
       style="fill:#cccc66" />
    <path
       d="M3370 3356 c-30 -7 -68 -18 -84 -25 l-28 -11 88 -65 89 -64 13 42 c17 55 12 131 -8 134 -8 1 -40 -4 -70 -11z"
       id="path60"
       style="fill:#cc00ff" />
    <path
       d="M3484 3346 c-3 -7 -4 -37 -2 -67 l3 -53 46 2 c52 4 76 -14 32 -24 -15 -3 -44 -11 -63 -17 l-35 -10 35 -16 c55 -24 166 -20 218 7 l43 23 -20 28 c-37 51 -98 98 -155 120 -66 24 -95 27 -102 7z"
       id="path62"
       style="fill:#cc00ff" />
    <path
       d="M3872 3314 c-20 -13 -22 -24 -22 -95 0 -137 53 -297 140 -424 43 -63 149 -175 166 -175 31 0 21 24 -30 71 -150 137 -256 353 -256 523 0 59 3 67 25 82 14 9 22 20 19 25 -7 13 -16 11 -42 -7z"
       id="path64"
       style="fill:#cc00ff" />
    <path
       d="M3263 3168 l21 -121 57 64 c32 35 58 66 59 69 0 5 -144 110 -152 110 -3 0 4 -55 15 -122z"
       id="path66"
       style="fill:#cc00ff" />
    <path
       d="M3096 3197 c-45 -45 -94 -107 -110 -138 l-29 -55 36 -47 c34 -45 76 -153 78 -201 0 -11 4 -30 8 -40 6 -15 24 11 86 125 91 166 98 199 70 326 -23 110 -24 113 -42 113 -9 0 -53 -37 -97 -83z"
       id="path68"
       style="fill:#cc00ff" />
    <path
       d="M3744 3158 c-84 -39 -146 -45 -235 -22 l-71 18 -62 -65 c-41 -44 -91 -118 -153 -225 -106 -185 -194 -346 -191 -349 2 -2 57 4 123 12 97 13 141 13 230 4 139 -14 171 -23 435 -129 177 -71 227 -86 283 -90 l67 -4 0 31 c0 17 -12 65 -26 107 -21 61 -25 84 -18 112 9 34 7 36 -76 121 -123 125 -192 254 -226 424 -9 45 -17 82 -18 83 0 1 -29 -12 -62 -28z"
       id="path70"
       style="fill:#99cc99" />
    <path
       d="M5430 3054 c-16 -41 -33 -141 -27 -158 3 -7 21 -16 41 -20 41 -8 71 -41 80 -91 6 -31 10 -35 39 -35 66 0 65 7 -32 175 -89 157 -90 158 -101 129z"
       id="path72"
       style="fill:none" />
    <path
       d="M2916 2898 c-15 -65 -17 -100 -11 -242 4 -91 11 -166 15 -166 48 0 95 49 120 124 25 78 -14 253 -73 321 l-33 38 -18 -75z"
       id="path74"
       style="fill:#cc00ff" />
    <path
       d="M5318 2789 c-43 -33 -78 -63 -78 -68 0 -4 13 -20 30 -36 l29 -28 83 33 c46 18 89 37 96 43 19 15 14 61 -9 91 -32 40 -63 33 -151 -35z"
       id="path76"
       style="fill:#cc00ff" />
    <path
       d="M1 1373 l-1 -1373 4250 0 4250 0 0 1078 0 1078 -102 52 c-110 55 -205 82 -299 82 -47 0 -87 -12 -230 -69 -230 -91 -266 -101 -368 -101 -96 1 -146 17 -259 83 -115 68 -164 79 -382 88 -107 4 -213 10 -236 14 l-40 7 -13 -41 c-16 -56 -76 -116 -129 -130 -77 -21 -232 21 -356 96 -33 21 -98 73 -144 117 l-83 80 -77 -82 c-96 -102 -187 -169 -311 -232 -167 -83 -266 -99 -352 -54 -36 18 -168 125 -208 168 -31 33 -39 32 -76 -6 -51 -53 -162 -99 -252 -105 -131 -9 -261 31 -345 106 -42 37 -51 41 -100 41 -91 0 -177 25 -371 109 -104 45 -200 81 -214 81 -15 0 -45 -16 -72 -39 -97 -81 -119 -86 -397 -86 l-230 0 9 43 c5 24 7 45 5 47 -3 3 -94 -13 -438 -75 -255 -46 -348 -60 -412 -60 -32 0 -97 -7 -145 -15 -147 -24 -332 -35 -698 -41 -373 -7 -501 0 -675 37 -183 39 -245 68 -338 157 -78 75 -126 159 -147 256 -11 52 -14 -147 -14 -1311z"
       id="path78"
       style="fill:none" />
    <path
       d="M4380 2733 c-8 -3 -27 -17 -42 -31 -90 -83 51 -255 267 -326 48 -15 196 -38 203 -31 6 5 -309 375 -328 385 -20 11 -75 12 -100 3z"
       id="path80"
       style="fill:#cc00ff" />
    <path
       d="M4189 2591 c-62 -62 -27 -147 98 -243 146 -110 352 -136 494 -62 l54 29 -90 6 c-49 4 -112 12 -140 19 -131 34 -271 135 -315 229 -28 61 -56 67 -101 22z"
       id="path82"
       style="fill:#cc00ff" />
    <path
       d="M3260 2503 c0 -5 20 -29 45 -53 l45 -44 65 32 c36 17 65 36 65 41 0 5 -21 12 -47 15 -129 15 -173 17 -173 9z"
       id="path84"
       style="fill:#cc00ff" />
    <path
       d="M3087 2485 c-83 -14 -101 -24 -130 -74 l-18 -31 143 1 c79 0 162 4 186 7 42 7 42 7 26 30 -22 31 -93 82 -113 81 -9 -1 -51 -7 -94 -14z"
       id="path86"
       style="fill:#cc00ff" />
    <path
       d="M4207 2341 c10 -37 75 -102 132 -130 155 -78 335 -64 469 36 37 28 37 43 0 19 -144 -94 -401 -65 -562 63 -46 37 -46 37 -39 12z"
       id="path88"
       style="fill:#cc00ff" />
  </g>
</svg>
