<?xml version="1.0" standalone="no"?>
<!DOCTYPE svg PUBLIC "-//W3C//DTD SVG 20010904//EN"
 "http://www.w3.org/TR/2001/REC-SVG-20010904/DTD/svg10.dtd">
<svg version="1.0" xmlns="http://www.w3.org/2000/svg"
 width="1024.000000pt" height="1024.000000pt" viewBox="0 0 1024.000000 1024.000000"
 preserveAspectRatio="xMidYMid meet">
<metadata>
Created by potrace 1.14, written by Peter Selinger 2001-2017
</metadata>
<g transform="translate(0.000000,1024.000000) scale(0.100000,-0.100000)"
fill="#000000" stroke="none">
<path d="M5192 9848 c-21 -21 -13 -39 52 -106 76 -79 191 -247 207 -303 10
-30 10 -51 1 -90 -7 -28 -12 -61 -12 -74 0 -40 -21 -41 -55 -2 -33 38 -62 108
-110 262 -36 118 -50 145 -77 145 -20 0 -21 -3 -15 -77 13 -160 74 -341 135
-406 l27 -29 -30 7 c-16 4 -36 8 -42 11 -19 5 -53 -69 -53 -116 0 -22 7 -57
15 -77 17 -41 12 -53 -13 -35 -9 7 -28 18 -42 24 -14 6 -34 25 -45 42 -16 24
-30 32 -70 39 -28 5 -59 17 -71 28 -20 19 -21 19 -38 0 -10 -10 -33 -22 -51
-25 -38 -7 -65 -38 -65 -73 0 -19 -5 -23 -30 -23 -28 0 -30 3 -30 38 0 47 -44
142 -65 142 -9 0 -34 -9 -55 -20 -36 -18 -40 -19 -40 -4 0 9 16 38 35 64 69
93 118 248 131 408 6 77 6 82 -13 82 -25 0 -51 -56 -96 -205 -35 -113 -55
-159 -90 -207 -25 -34 -45 -36 -51 -5 -2 12 -10 48 -17 79 -10 50 -10 63 5
101 24 65 128 218 197 291 62 66 76 106 39 106 -12 0 -33 -6 -48 -14 -48 -25
-165 -158 -207 -235 l-40 -74 -3 55 c-2 37 4 77 18 117 24 72 25 85 6 100 -24
20 -52 -4 -87 -74 -26 -53 -32 -80 -37 -155 -5 -97 9 -186 40 -255 9 -22 18
-62 18 -90 0 -85 16 -121 87 -196 36 -38 64 -71 62 -72 -2 -2 -16 -8 -31 -15
-25 -10 -28 -9 -48 23 -24 39 -68 77 -81 70 -4 -3 -16 8 -25 25 -21 35 -30 37
-38 12 -6 -18 -9 -17 -56 6 -50 25 -194 50 -222 39 -12 -4 -14 -14 -8 -47 4
-23 3 -59 -3 -83 -8 -30 -7 -42 1 -45 7 -2 12 -25 12 -57 0 -52 12 -77 25 -55
4 6 19 -24 34 -67 49 -141 107 -210 226 -271 22 -11 48 -29 58 -40 17 -18 17
-23 4 -44 -23 -37 -29 -86 -11 -96 8 -5 24 -47 36 -98 35 -152 60 -186 154
-207 l59 -14 8 -84 c4 -46 14 -98 22 -116 8 -17 15 -39 15 -48 0 -9 12 -36 26
-60 28 -49 45 -175 23 -175 -26 0 -72 -46 -98 -99 -16 -31 -36 -63 -44 -70 -9
-7 -46 -17 -84 -22 -155 -22 -189 -30 -239 -54 -75 -37 -137 -96 -165 -157
-23 -52 -24 -60 -24 -308 1 -208 4 -266 18 -315 34 -125 59 -274 67 -405 10
-182 39 -324 91 -444 l41 -98 -30 -31 c-49 -52 -116 -164 -170 -285 -28 -62
-79 -163 -115 -225 -148 -258 -208 -401 -300 -722 -38 -133 -67 -255 -92 -389
-18 -96 -15 -106 33 -106 43 0 62 -18 62 -56 0 -95 83 -147 280 -174 41 -6
122 -27 179 -46 57 -20 133 -38 171 -41 l69 -6 10 -46 c30 -140 91 -556 91
-622 0 -24 -10 -91 -22 -149 -17 -86 -21 -138 -21 -285 1 -233 21 -335 173
-900 11 -38 22 -81 26 -95 3 -14 21 -75 40 -136 19 -60 37 -139 40 -175 4 -35
13 -75 21 -88 14 -22 13 -25 -16 -52 -29 -26 -31 -33 -31 -94 0 -59 -5 -74
-47 -153 -46 -84 -48 -90 -48 -174 0 -77 2 -89 24 -112 41 -43 104 -61 216
-60 79 0 111 5 153 22 l53 22 36 -27 c36 -27 39 -28 172 -28 150 0 170 6 201
58 30 49 26 127 -11 228 -24 66 -32 106 -36 189 -3 58 -10 114 -16 125 -6 11
-12 38 -13 60 -2 22 -6 74 -10 116 -7 82 -9 71 92 484 110 452 128 596 126
965 -2 318 1 356 58 655 22 116 43 227 45 247 7 46 20 49 181 46 102 -3 124 0
147 15 38 24 67 75 67 115 l0 32 93 -6 c101 -7 89 -11 198 76 18 15 48 23 105
29 98 11 149 32 169 71 55 106 -36 429 -206 733 -144 259 -306 478 -539 726
-74 79 -159 171 -189 203 l-54 59 16 47 c8 26 47 126 85 222 75 188 87 225 97
310 4 30 18 93 31 140 13 47 29 136 34 199 6 63 17 140 24 170 24 96 35 181
42 332 6 133 5 149 -14 192 -26 59 -85 102 -160 117 -31 7 -93 26 -136 44
l-80 32 -37 72 c-42 85 -70 117 -122 143 -35 18 -37 22 -32 54 3 19 8 52 11
73 11 74 37 152 50 152 9 0 14 12 14 36 0 21 6 42 15 48 12 9 13 17 3 48 -6
21 -9 39 -7 40 2 2 22 12 44 23 49 25 80 82 101 190 9 44 22 85 30 91 8 7 14
30 14 57 0 51 -16 67 -67 67 -77 1 -62 47 30 88 37 17 77 46 99 70 21 23 40
37 43 32 4 -6 13 -10 22 -10 13 0 15 9 11 44 -5 39 -3 43 14 38 17 -4 18 -1
12 46 -6 49 -5 51 15 45 20 -5 21 -3 16 23 -4 16 -8 35 -11 42 -2 6 6 60 17
120 45 230 44 217 28 258 -11 29 -22 40 -48 46 -20 6 -37 5 -45 -1 -8 -7 -16
-7 -22 -1 -7 7 -20 0 -39 -20 -16 -16 -36 -30 -45 -30 -9 0 -25 -9 -35 -20
-10 -11 -24 -20 -31 -20 -7 0 -22 -13 -33 -28 -11 -16 -38 -41 -60 -57 -23
-15 -50 -43 -62 -61 -15 -25 -28 -34 -47 -34 -26 0 -26 0 15 43 53 55 60 70
68 147 4 36 21 105 37 154 52 153 49 282 -8 402 -28 60 -59 81 -83 58 -13 -12
-13 -25 2 -101 9 -49 19 -113 22 -143 l6 -55 -42 77 c-63 119 -216 288 -259
288 -9 0 -21 -5 -28 -12z m113 -84 c84 -86 131 -153 177 -249 17 -36 35 -64
42 -62 18 6 13 162 -8 245 -10 40 -16 76 -12 79 10 10 38 -20 56 -62 47 -109
45 -257 -6 -392 -14 -36 -28 -96 -31 -132 -7 -77 -19 -104 -67 -150 l-36 -35
0 41 c0 30 -7 50 -25 71 -14 17 -25 35 -25 41 0 5 -13 25 -29 43 -58 67 -105
197 -132 366 -21 136 4 97 64 -101 41 -131 63 -180 105 -225 46 -49 71 -39 83
34 21 118 21 149 5 189 -28 65 -141 226 -200 285 -51 49 -72 90 -46 90 5 0 43
-34 85 -76z m-545 51 c0 -3 -26 -34 -58 -68 -102 -110 -210 -287 -213 -348 -1
-25 16 -127 26 -159 3 -10 13 -21 21 -24 53 -20 114 85 184 314 12 41 28 86
36 100 l13 25 1 -25 c0 -44 -38 -225 -63 -291 -12 -35 -44 -95 -70 -133 -48
-69 -55 -90 -37 -101 7 -4 5 -14 -5 -28 -8 -12 -15 -36 -15 -54 0 -18 -4 -33
-9 -33 -13 0 -102 101 -112 128 -5 13 -9 45 -9 72 0 31 -12 79 -32 132 -29 76
-32 93 -32 198 -1 99 3 122 23 167 23 53 56 91 67 80 4 -4 2 -19 -5 -34 -32
-80 -52 -255 -30 -268 13 -9 26 9 85 115 26 46 68 107 93 134 63 68 141 123
141 101z m1143 -599 c12 -17 1 -141 -22 -236 -12 -47 -21 -106 -21 -132 0 -40
-3 -46 -17 -41 -14 6 -15 0 -10 -43 3 -27 3 -43 0 -36 -7 19 -32 14 -28 -5 15
-73 15 -87 3 -75 -16 16 -28 15 -28 -3 0 -28 -62 -84 -125 -114 -34 -16 -74
-44 -88 -62 l-25 -32 -88 2 c-98 2 -201 -11 -313 -40 -132 -34 -149 -21 -40
30 74 34 160 105 184 152 11 21 20 25 40 22 14 -3 38 0 54 7 26 10 32 9 50 -9
29 -29 93 -46 133 -35 39 11 58 44 58 100 0 39 1 41 43 53 66 20 90 39 83 66
-4 17 0 27 19 39 13 9 30 26 36 38 24 44 59 194 59 250 0 55 -11 75 -23 44 -3
-8 -33 -29 -66 -46 -85 -45 -136 -92 -157 -145 -17 -40 -23 -45 -51 -45 -26 0
-33 5 -42 30 -5 17 -8 37 -4 46 8 22 185 174 202 174 8 0 25 10 38 22 45 42
123 55 146 24z m-578 -70 c37 -16 75 -67 75 -103 0 -27 -8 -32 -42 -26 -28 5
-47 36 -66 106 -12 42 -13 42 33 23z m-37 -85 c21 -50 21 -55 6 -72 -9 -10
-20 -16 -25 -13 -16 9 -30 84 -23 120 8 42 13 37 42 -35z m-615 -2 c-8 -29
-17 -60 -19 -66 -2 -7 -15 -13 -29 -13 -20 0 -25 5 -25 25 0 38 26 82 58 99
15 8 28 13 29 12 1 -1 -5 -27 -14 -57z m1148 -58 c-22 -98 -50 -156 -81 -166
-22 -7 -120 62 -120 85 0 21 32 70 68 105 42 41 146 96 150 80 2 -6 -6 -53
-17 -104z m-1082 78 c12 -35 15 -108 5 -133 -5 -13 -12 -10 -35 15 -31 33 -31
35 -3 132 8 26 21 21 33 -14z m-504 -15 c26 -7 63 -25 82 -40 l33 -25 9 23 c8
21 9 20 22 -15 13 -37 33 -49 42 -24 5 13 38 -21 62 -64 12 -23 12 -29 -1 -48
-22 -31 -42 -26 -84 22 -34 39 -165 121 -234 147 l-29 11 5 -44 c5 -46 79
-238 134 -349 36 -71 71 -104 142 -131 74 -29 105 -21 83 21 -4 9 -11 34 -14
55 -6 36 -5 37 21 31 15 -4 34 -12 42 -20 8 -7 27 -16 43 -19 15 -4 27 -10 27
-13 0 -19 -77 -114 -111 -138 l-40 -27 -28 30 c-16 17 -48 41 -72 53 -24 13
-60 34 -81 48 -67 44 -147 191 -149 274 -2 56 -7 63 -31 41 -20 -18 -20 -18
-13 50 4 37 3 67 -1 67 -5 0 -10 25 -10 56 l-2 56 53 -7 c28 -3 74 -13 100
-21z m815 -20 c30 -7 60 -21 67 -31 17 -23 16 -58 -1 -72 -12 -10 -17 -8 -26
8 -6 12 -18 21 -28 21 -9 0 -23 9 -30 20 -14 23 -43 26 -75 8 -12 -7 -37 -18
-55 -24 -28 -10 -34 -10 -39 3 -11 28 14 62 52 69 19 3 38 11 41 16 3 5 13 6
23 2 9 -3 41 -13 71 -20z m-689 -142 c21 -19 39 -37 39 -40 0 -4 -20 -15 -45
-25 -25 -11 -56 -33 -70 -49 -14 -17 -27 -29 -30 -27 -7 7 -83 204 -89 232
l-7 29 81 -44 c45 -23 99 -58 121 -76z m643 82 c22 -8 21 -81 -1 -106 -37 -41
-119 -9 -111 44 2 19 48 51 95 67 1 1 8 -2 17 -5z m384 -16 c2 -13 -3 -18 -17
-18 -25 0 -61 -37 -61 -63 0 -30 -25 -13 -28 19 -4 41 38 87 76 82 16 -2 28
-10 30 -20z m100 -4 c17 -5 15 -59 -3 -74 -12 -10 -16 -8 -24 13 -6 14 -16 29
-24 34 -7 4 -16 16 -20 25 -5 15 -1 16 26 12 18 -3 38 -7 45 -10z m-304 -10
c33 -32 7 -80 -37 -69 -30 8 -35 26 -12 45 8 7 15 19 15 26 0 19 15 18 34 -2z
m-464 -34 c54 -54 56 -82 3 -40 -14 11 -34 20 -44 20 -22 0 -89 31 -89 41 0 9
25 16 63 18 19 1 38 -10 67 -39z m116 15 c12 -8 27 -27 33 -43 7 -16 23 -34
37 -41 20 -9 23 -15 15 -29 -6 -12 -5 -28 5 -51 16 -37 8 -60 -28 -85 -38 -27
-48 -19 -27 21 23 45 24 65 3 109 -11 22 -28 38 -50 46 -43 15 -71 53 -53 74
15 18 39 18 65 -1z m249 -26 c16 -35 17 -42 4 -50 -33 -21 -66 -1 -50 29 6 11
11 30 11 41 0 33 15 24 35 -20z m173 -13 c5 -37 -10 -51 -36 -37 -19 10 -20
13 -5 41 18 37 37 34 41 -4z m166 18 c9 -8 16 -23 16 -33 0 -23 -38 -58 -71
-66 -24 -6 -27 -3 -33 30 -13 67 45 112 88 69z m-820 -14 c30 -11 35 -40 7
-40 -10 0 -30 -9 -45 -21 -22 -17 -27 -29 -26 -62 1 -63 -11 -117 -25 -117
-24 0 -36 27 -29 69 5 30 2 47 -10 66 -15 23 -15 25 5 37 11 7 27 28 34 46 15
35 40 41 89 22z m1047 -47 c75 -57 87 -79 39 -68 -61 13 -100 34 -100 54 0 10
-7 24 -15 31 -8 7 -15 16 -15 21 0 20 32 6 91 -38z m-928 -1 c36 -32 15 -86
-41 -102 -53 -14 -77 -13 -103 9 -20 16 -22 22 -12 43 7 16 23 27 42 31 16 4
35 15 40 26 12 22 44 19 74 -7z m829 11 c36 -32 18 -82 -48 -132 -53 -40 -67
-35 -29 11 24 28 27 38 22 79 -3 26 -3 50 0 53 11 11 36 6 55 -11z m-356 -18
c19 -14 19 -15 -4 -33 -13 -10 -29 -29 -35 -42 -9 -17 -22 -26 -43 -28 -25 -2
-37 4 -63 33 -17 20 -31 40 -31 45 0 6 18 10 40 10 22 0 45 6 52 15 17 19 59
19 84 0z m-362 -16 c21 -16 26 -29 26 -62 0 -23 -5 -49 -10 -57 -9 -13 -12
-12 -25 4 -8 11 -15 28 -15 38 0 11 -11 30 -25 44 -21 21 -23 29 -14 40 16 19
32 18 63 -7z m646 -23 c0 -33 -26 -63 -66 -76 -44 -15 -62 -3 -45 29 7 12 8
21 4 21 -4 0 11 12 35 26 23 14 42 30 42 36 0 7 6 6 15 -2 8 -7 15 -22 15 -34z
m-476 2 c7 -18 23 -43 35 -55 25 -26 13 -37 -29 -28 -33 7 -70 48 -70 77 0 15
19 30 47 37 2 1 9 -14 17 -31z m316 8 c5 -13 14 -27 19 -31 6 -3 8 -17 5 -31
-4 -14 -1 -31 6 -39 11 -13 7 -15 -24 -15 -31 0 -39 5 -61 40 -29 47 -32 75
-7 89 29 17 52 12 62 -13z m-880 -5 c5 -11 10 -22 10 -25 0 -2 -32 -6 -70 -8
-39 -2 -70 0 -70 4 0 13 72 45 107 47 7 1 17 -8 23 -18z m793 -116 c-5 -28 -1
-41 17 -60 29 -31 21 -53 -41 -109 -74 -67 -239 -140 -262 -117 -8 8 -6 11 7
11 34 0 157 73 191 113 44 51 65 114 65 196 1 65 1 66 15 34 8 -19 11 -47 8
-68z m414 79 c30 -9 53 -18 50 -20 -8 -8 -99 -22 -117 -17 -16 4 -17 9 -8 29
13 28 7 28 75 8z m-857 -40 c0 -18 -28 -44 -48 -44 -9 0 -26 -7 -36 -15 -37
-28 -86 -13 -86 26 0 12 12 19 45 24 26 3 57 17 73 30 25 22 28 23 40 8 6 -9
12 -22 12 -29z m-330 -8 c0 -38 -17 -49 -58 -40 -29 7 -92 45 -92 56 0 8 39
14 103 17 l47 1 0 -34z m727 -26 c-4 -33 -13 -75 -21 -93 -30 -72 -120 -137
-237 -171 -85 -25 -96 -15 -48 47 21 29 45 70 52 92 l13 39 39 -52 c22 -29 45
-52 52 -52 8 0 33 18 58 41 49 45 63 86 46 132 -10 25 -8 31 17 52 15 13 29
25 31 25 2 0 1 -27 -2 -60z m-821 -26 c19 -8 47 -14 64 -14 28 0 30 -3 30 -34
0 -19 4 -46 10 -60 8 -22 7 -26 -10 -26 -58 0 -129 59 -171 141 -16 32 -29 61
-29 65 0 3 17 -8 37 -26 20 -18 51 -39 69 -46z m232 25 c9 -64 60 -74 152 -30
l60 28 6 -24 c14 -56 -63 -83 -180 -62 -70 12 -86 25 -86 71 0 48 42 62 48 17z
m445 -51 c5 -27 4 -54 -3 -73 l-11 -29 -25 29 c-41 50 -56 84 -49 114 6 28 7
28 43 16 33 -12 38 -18 45 -57z m526 66 c25 -5 31 -11 31 -33 0 -41 -11 -71
-26 -71 -17 0 -68 86 -59 100 7 12 12 12 54 4z m-461 -17 c26 -30 25 -67 -2
-102 -15 -19 -30 -35 -34 -35 -6 0 -9 118 -4 143 3 11 29 8 40 -6z m225 -27
c11 0 34 7 53 16 40 19 45 17 33 -14 -11 -29 -69 -57 -102 -48 -37 9 -71 40
-64 59 5 15 9 15 34 2 15 -8 36 -15 46 -15z m167 -3 c0 -7 14 -29 31 -50 28
-35 29 -37 9 -37 -28 0 -82 23 -98 42 -16 20 -7 43 21 55 24 12 37 8 37 -10z
m-570 -19 c0 -36 -58 -148 -93 -182 -31 -29 -37 -31 -96 -28 l-63 4 29 18 c40
24 89 85 115 143 16 34 27 47 42 47 12 0 28 5 36 10 23 15 30 12 30 -12z
m-157 -89 c-35 -60 -114 -111 -193 -124 l-45 -8 38 42 c21 23 45 57 54 76 16
34 18 34 87 38 39 1 72 4 74 5 2 1 -5 -12 -15 -29z m165 -175 l114 -27 126 29
c146 33 317 39 435 15 66 -13 67 -14 67 -46 0 -18 -5 -35 -11 -37 -5 -2 -21
-51 -35 -108 -14 -58 -35 -121 -49 -142 -21 -31 -32 -38 -82 -48 -69 -15 -189
-8 -230 13 -38 20 -105 94 -120 132 -7 17 -17 49 -23 72 -15 61 -39 80 -90 73
-29 -4 -49 -33 -60 -86 -14 -67 -62 -139 -118 -179 -43 -29 -47 -30 -160 -30
-84 0 -125 4 -147 15 -39 19 -71 85 -92 186 -8 43 -22 87 -30 96 -21 24 -12
61 17 75 85 40 319 39 488 -3z m150 -106 c5 -7 17 -38 25 -68 33 -114 118
-202 209 -217 33 -5 38 -10 44 -40 3 -18 4 -47 0 -63 -3 -19 -1 -30 5 -30 8 0
10 21 7 60 l-4 60 28 0 c16 0 27 -4 24 -9 -4 -5 -11 -55 -17 -112 -5 -56 -16
-117 -23 -134 -14 -33 -76 -88 -94 -83 -6 2 -21 -12 -34 -31 -38 -55 -89 -76
-188 -76 -97 0 -141 18 -175 73 -11 17 -26 29 -32 27 -12 -4 -49 38 -72 83 -7
13 -14 69 -17 125 -5 134 -24 142 -24 10 0 -77 5 -108 21 -142 25 -57 127
-157 187 -184 66 -29 171 -28 230 2 59 30 190 137 214 175 l20 31 -6 -40 c-14
-87 -18 -233 -8 -283 6 -33 6 -55 0 -58 -5 -3 -30 -38 -55 -78 -25 -39 -85
-112 -133 -163 -59 -62 -97 -112 -117 -154 l-30 -62 -21 41 c-21 40 -176 252
-232 318 -26 31 -27 36 -34 204 -8 169 -9 175 -39 228 -17 32 -32 72 -33 94
-1 22 -4 42 -8 45 -3 4 -6 26 -6 50 0 24 -4 43 -10 43 -5 0 -10 13 -10 29 0
27 3 29 53 35 145 17 228 88 271 234 8 29 18 57 21 62 9 14 51 12 63 -2z m404
-312 c3 -16 0 -27 -10 -31 -10 -4 -12 -14 -8 -40 4 -19 3 -35 -1 -35 -5 0 -16
-23 -26 -51 -10 -28 -20 -49 -22 -47 -8 7 15 189 25 209 15 27 37 24 42 -5z
m-22 -466 c34 -24 76 -91 114 -183 16 -38 40 -85 53 -104 18 -26 21 -38 12
-43 -6 -5 -60 -15 -118 -24 -136 -22 -151 -35 -76 -70 19 -9 35 -21 35 -26 0
-5 -26 -18 -57 -30 -92 -34 -255 -121 -295 -158 -32 -29 -39 -32 -44 -18 -13
34 62 161 154 258 48 51 109 125 135 163 25 39 56 82 67 96 29 35 37 100 16
118 -14 12 -16 9 -16 -25 0 -54 -15 -75 -24 -34 -9 50 -7 100 5 100 6 0 24 -9
39 -20z m-701 -107 c-1 -78 -1 -78 -15 -44 -10 22 -19 30 -25 24 -17 -17 1
-61 45 -111 23 -26 69 -83 102 -127 33 -44 77 -102 98 -129 40 -53 74 -115 87
-158 l8 -28 -36 28 c-19 15 -90 54 -156 87 -66 33 -125 68 -131 77 -9 14 -3
25 28 57 21 22 36 46 33 53 -2 8 -47 24 -98 37 -52 13 -102 25 -112 28 -16 4
-15 9 12 56 16 29 39 78 51 109 22 59 70 118 96 118 11 0 14 -17 13 -77z
m-193 -148 c-15 -25 -31 -45 -36 -45 -6 0 -10 -6 -10 -14 0 -10 34 -22 111
-40 62 -15 116 -29 121 -32 4 -3 -7 -24 -27 -47 -19 -22 -35 -46 -35 -53 0
-16 37 -40 165 -105 l110 -55 7 -130 c5 -78 3 -200 -4 -309 -15 -218 -15 -295
-1 -585 7 -124 10 -227 7 -229 -6 -6 -194 27 -238 42 -35 12 -40 19 -51 60 -7
26 -19 55 -28 65 -22 24 -57 109 -57 137 0 13 -7 31 -16 40 -11 11 -14 25 -10
47 4 21 -1 48 -18 87 -14 31 -41 136 -61 235 -20 98 -44 201 -52 230 -8 28
-17 102 -20 163 l-5 113 44 52 c64 77 82 124 76 201 -3 35 -11 72 -18 84 -16
25 -61 53 -87 53 -17 0 -51 46 -41 55 2 2 43 8 93 15 49 6 92 13 94 16 2 2 6
2 9 -1 2 -2 -8 -25 -22 -50z m1240 -31 c18 -3 34 -9 34 -13 0 -4 -13 -20 -30
-36 -27 -25 -36 -28 -85 -26 l-56 2 -79 -80 c-48 -47 -80 -88 -80 -100 0 -11
-11 -28 -25 -37 -17 -11 -24 -23 -20 -34 4 -12 -3 -25 -23 -38 -34 -25 -67
-83 -59 -104 3 -9 29 -27 58 -42 60 -30 128 -34 173 -11 42 22 46 19 46 -29 0
-40 -31 -116 -47 -116 -3 0 -3 23 -1 50 5 47 4 51 -21 57 -36 10 -284 9 -300
-2 -11 -6 -13 -37 -7 -158 4 -82 9 -154 12 -158 3 -5 57 -9 121 -9 l116 0 -6
-41 c-7 -50 -10 -54 -35 -40 -12 6 -35 11 -51 11 -21 0 -42 10 -63 30 -36 35
-65 38 -101 10 -14 -11 -32 -20 -41 -20 -26 0 -65 -22 -71 -40 -3 -10 -19 -31
-35 -48 -27 -28 -29 -36 -24 -84 9 -97 15 -117 38 -145 13 -15 26 -39 29 -53
5 -19 21 -32 69 -53 35 -15 78 -27 96 -27 38 0 38 -1 14 -120 l-17 -85 -70
-12 c-38 -6 -87 -12 -107 -12 -44 -1 -42 -8 -38 144 1 52 -5 130 -15 185 -15
79 -16 119 -9 254 4 89 8 264 9 390 l0 228 44 39 c43 38 104 71 294 158 48 22
87 45 87 51 0 6 -13 19 -30 28 -16 9 -30 20 -30 24 0 3 33 11 73 18 105 17
147 29 147 43 0 7 -14 32 -30 56 -17 24 -30 48 -30 52 0 4 32 -5 71 -21 38
-16 86 -32 105 -36z m-1436 21 c17 -20 15 -21 -52 -28 -68 -7 -80 1 -36 25 41
21 72 23 88 3z m1 -55 c22 -12 27 -45 5 -37 -45 18 -83 17 -119 -2 -32 -16
-39 -17 -44 -5 -11 29 6 43 54 47 26 2 56 4 66 5 10 1 27 -3 38 -8z m1556 -12
c38 -43 43 -64 43 -200 0 -135 -7 -197 -34 -323 -8 -38 -24 -140 -35 -225 -22
-176 -45 -246 -102 -315 -47 -57 -41 -80 8 -33 l35 33 -7 -45 c-10 -63 -64
-200 -79 -200 -6 0 -29 -9 -51 -20 -22 -11 -50 -20 -63 -20 -37 0 -61 -18 -93
-68 -23 -36 -29 -57 -29 -99 0 -32 -6 -63 -16 -78 -16 -25 -16 -91 0 -127 8
-17 -4 -16 -99 11 -71 20 -70 17 -51 122 50 277 64 326 105 363 20 18 21 18
53 -9 41 -35 145 -85 176 -85 41 0 22 18 -47 45 -64 24 -161 86 -161 103 0 4
9 22 20 40 11 18 20 45 20 60 0 98 85 387 135 462 27 40 35 62 35 96 0 24 5
44 10 44 6 0 10 -8 10 -18 0 -11 9 -27 20 -37 19 -17 22 -16 96 41 54 41 82
70 95 99 28 63 32 107 16 148 -11 24 -13 46 -7 70 8 36 -7 94 -30 122 -7 8
-29 15 -49 15 l-36 1 30 24 c37 31 56 31 82 3z m-1434 -20 c20 -27 34 -114 23
-144 -10 -26 -30 -2 -45 55 -8 32 -21 55 -37 66 -13 8 -24 25 -24 36 0 31 57
22 83 -13z m-324 -58 c-42 -40 -47 -74 -18 -129 13 -25 34 -57 46 -71 65 -74
63 -72 106 -67 23 3 53 7 67 9 l25 3 0 -105 c0 -81 6 -130 27 -215 67 -265 77
-330 33 -212 -20 53 -33 66 -46 46 -9 -15 -8 -16 -29 26 -24 46 -75 59 -159
41 -36 -7 -69 -11 -73 -7 -16 14 -38 188 -44 343 -7 186 10 318 49 375 21 32
22 32 33 11 10 -19 8 -26 -17 -48z m117 19 c-31 -37 -33 -62 -6 -89 24 -24 43
-25 64 -4 28 28 12 64 -28 64 -20 1 -20 2 3 21 23 19 25 19 43 2 11 -10 26
-30 34 -45 13 -25 12 -28 -23 -57 -43 -35 -51 -36 -97 -17 -29 12 -34 20 -40
60 -4 25 -4 51 0 57 5 9 58 37 72 39 2 0 -8 -14 -22 -31z m147 -17 c11 -10 17
-30 17 -61 0 -58 -42 -111 -87 -111 -39 0 -103 19 -103 30 0 12 0 12 39 -1 28
-10 35 -8 76 22 24 19 47 42 50 51 3 9 -4 36 -15 58 -21 42 -15 45 23 12z
m1327 19 c0 -10 -91 -51 -114 -51 -26 0 -18 19 17 40 32 20 97 27 97 11z m139
-32 c13 -39 14 -69 1 -89 -8 -13 -11 -12 -24 5 -9 11 -16 33 -16 49 0 16 -7
38 -17 48 -15 17 -15 18 14 18 26 0 33 -5 42 -31z m-71 -1 c24 -24 14 -44 -23
-45 -35 -1 -42 8 -29 41 7 19 35 21 52 4z m-1618 -19 c0 -43 32 -129 53 -144
21 -15 21 -15 -8 -15 -39 0 -47 6 -75 57 -31 57 -21 118 23 122 4 1 7 -8 7
-20z m1528 -14 c-6 -14 -20 -25 -30 -25 -10 0 -35 -9 -55 -20 -52 -27 -65 -26
-61 8 3 24 8 28 53 33 28 4 61 12 75 17 14 6 26 11 27 11 2 1 -3 -10 -9 -24z
m-1408 1 c0 -8 -5 -18 -11 -22 -14 -8 -33 11 -25 25 10 16 36 13 36 -3z m1521
-53 c20 -23 17 -91 -5 -136 -25 -51 -92 -86 -131 -69 -27 13 -36 38 -8 28 45
-18 113 37 113 91 0 30 -29 63 -56 63 -13 0 -24 4 -24 8 0 33 87 45 111 15z
m-291 -88 c-5 -43 -12 -80 -14 -82 -2 -2 -16 13 -31 32 l-27 36 21 23 c12 12
21 28 21 35 0 7 5 22 11 33 21 39 29 4 19 -77z m154 73 c-3 -12 -13 -37 -21
-55 -11 -29 -16 -33 -28 -23 -21 17 -19 43 6 74 26 33 53 36 43 4z m-1224 -30
c0 -10 -4 -18 -9 -18 -5 0 -18 -16 -30 -35 -18 -31 -25 -35 -60 -35 -22 0 -51
-5 -65 -11 -25 -12 -76 -5 -76 9 0 13 63 35 108 38 46 2 73 20 100 66 17 29
32 22 32 -14z m1137 -48 c-9 -66 -8 -72 12 -93 22 -25 28 -47 11 -47 -5 0 -10
4 -10 10 0 5 -11 12 -25 16 -14 3 -30 14 -35 23 -8 16 1 126 11 135 3 2 28 17
45 26 0 0 -4 -32 -9 -70z m292 17 c16 -49 -8 -123 -56 -168 -58 -55 -111 -91
-123 -84 -5 3 -10 19 -10 35 0 30 28 59 88 92 36 19 72 84 72 128 0 40 16 38
29 -3z m-126 9 c7 -19 -12 -34 -51 -42 -34 -7 -40 2 -22 37 13 23 65 26 73 5z
m-123 -76 c0 -10 -4 -21 -9 -25 -12 -7 -25 31 -16 45 9 15 25 2 25 -20z m105
9 c-12 -18 -55 -30 -73 -20 -15 8 -15 10 -2 15 8 3 29 7 45 9 17 2 31 5 33 6
2 0 0 -4 -3 -10z m-266 -33 l22 -23 -38 -7 c-75 -12 -80 -9 -48 24 16 17 32
30 35 30 4 0 16 -11 29 -24z m-465 -49 c37 -63 52 -276 31 -438 -19 -144 -19
-303 0 -402 16 -86 21 -332 6 -341 -5 -3 -22 -3 -39 0 l-30 6 -6 142 c-4 77
-12 200 -18 272 -9 107 -9 157 3 265 8 74 14 225 14 337 0 111 3 202 7 202 4
0 19 -19 32 -43z m567 -17 l24 -20 -24 -20 c-30 -26 -92 -26 -147 -1 -51 23
-62 39 -32 45 13 3 32 7 43 9 55 12 114 6 136 -13z m107 1 c11 -6 11 -10 0
-18 -32 -24 -38 -24 -38 1 0 26 14 33 38 17z m-154 -121 c24 -9 26 -14 26 -71
0 -33 -10 -94 -22 -135 l-21 -74 -119 0 -118 0 0 94 c0 51 -3 114 -6 139 l-7
46 39 4 c81 8 204 7 228 -3z m-1207 -266 c18 -25 16 -38 -4 -28 -10 4 -39 9
-65 12 -26 2 -52 10 -59 18 -12 14 -10 15 31 27 25 7 84 -11 97 -29z m-157 -2
c0 -5 -9 -17 -20 -27 -20 -18 -20 -17 -20 8 0 20 5 27 20 27 11 0 20 -4 20 -8z
m152 -62 c27 -33 23 -50 -12 -50 -19 0 -30 5 -30 14 0 44 -75 61 -110 26 -24
-24 -30 -25 -30 -6 0 49 145 61 182 16z m68 -20 c27 -38 34 -88 18 -119 -17
-31 -33 -24 -33 14 -1 17 -4 42 -8 58 -22 86 -15 100 23 47z m-147 3 c4 -3 -3
-11 -15 -17 -11 -6 -26 -18 -31 -27 -14 -23 -1 -66 22 -72 26 -6 61 19 61 44
0 10 5 19 10 19 6 0 10 -13 10 -29 0 -37 -35 -61 -89 -61 -45 0 -47 2 -56 51
-5 30 -2 41 20 67 25 30 53 40 68 25z m1076 -7 c10 -12 7 -18 -18 -30 -16 -9
-43 -16 -58 -16 -15 0 -39 -9 -53 -20 -30 -23 -40 -25 -40 -6 0 21 39 46 71
46 14 0 34 9 44 20 21 24 38 25 54 6z m-1064 -46 c7 -23 -1 -40 -20 -40 -21 0
-27 17 -15 40 14 25 27 26 35 0z m1123 -28 l3 -34 -39 7 c-60 10 -129 -4 -163
-32 -16 -14 -32 -23 -35 -21 -18 19 70 88 114 88 15 1 38 7 52 15 40 24 64 15
68 -23z m90 6 c12 -11 16 -40 6 -50 -12 -13 -64 27 -64 50 0 20 4 22 23 16 12
-3 28 -11 35 -16z m-1118 -13 c0 -61 -49 -105 -118 -105 -48 0 -72 8 -72 24 0
7 18 10 55 8 50 -4 57 -1 85 26 16 17 30 40 30 51 0 12 5 21 10 21 6 0 10 -11
10 -25z m166 -216 c-4 -27 -1 -40 10 -50 12 -10 14 -23 10 -51 -5 -29 -3 -38
8 -38 8 0 19 -14 25 -30 5 -17 20 -44 31 -60 12 -16 27 -60 35 -97 18 -85 18
-83 -3 -83 -13 0 -21 13 -30 44 -13 51 -37 69 -111 85 -70 15 -115 2 -133 -39
-10 -23 -16 -27 -29 -19 -10 5 -33 9 -52 9 -28 0 -36 5 -45 28 -12 31 -27 83
-37 127 -6 28 -6 29 13 12 29 -26 34 -9 8 27 -28 37 -46 88 -46 128 l0 28 78
-4 c42 -2 90 -9 107 -16 36 -14 66 -40 60 -50 -9 -14 -102 -22 -139 -12 -44
13 -48 -1 -6 -18 38 -16 173 -9 195 10 15 12 14 15 -7 32 -50 41 -84 58 -116
58 l-33 0 25 23 c32 28 71 82 92 126 l16 35 40 -85 c31 -67 38 -91 34 -120z
m609 170 c-4 -11 -2 -33 3 -47 15 -39 23 -142 11 -142 -19 0 -39 69 -39 133 0
35 3 67 7 70 14 14 24 6 18 -14z m254 -17 c48 -35 37 -80 -19 -84 -32 -3 -35
0 -38 25 -2 16 -15 36 -32 49 -16 12 -27 25 -23 31 9 14 83 1 112 -21z m59 12
c27 -18 30 -73 7 -108 -9 -13 -18 -37 -21 -52 -6 -33 -31 -64 -51 -64 -15 0
-18 16 -4 24 4 3 11 21 14 40 3 19 15 44 26 55 25 25 27 51 6 91 -17 33 -10
38 23 14z m-198 -12 c0 -4 -9 -13 -20 -20 -30 -18 -28 -85 5 -117 31 -32 56
-31 93 0 38 32 42 31 42 -4 0 -20 -9 -37 -31 -55 -37 -31 -53 -32 -87 -6 -15
12 -38 29 -51 39 -35 26 -41 106 -11 144 19 24 60 38 60 19z m-895 -65 c-24
-38 -66 -54 -122 -48 -41 5 -48 10 -51 30 -3 22 -1 23 36 16 43 -7 121 19 138
46 7 11 9 11 12 -3 2 -9 -4 -28 -13 -41z m953 5 c-4 -21 -44 -28 -64 -12 -20
17 -18 29 9 39 28 11 59 -5 55 -27z m9 -56 c-5 -14 -69 -15 -74 -1 -2 6 15 11
37 11 26 1 39 -3 37 -10z m-114 -77 c12 -6 32 -20 44 -31 19 -18 30 -19 77
-14 61 8 70 0 36 -34 -27 -27 -54 -25 -127 10 -53 24 -63 33 -63 55 0 28 3 29
33 14z m522 -151 c-10 -26 -20 -34 -44 -36 -48 -5 -33 42 19 61 35 13 39 8 25
-25z m-95 -13 c0 -9 -15 -31 -34 -50 -36 -35 -40 -44 -51 -109 -5 -29 -9 -36
-16 -25 -35 55 28 197 89 199 6 0 12 -7 12 -15z m65 -55 c3 -5 -3 -10 -15 -10
-12 0 -35 -13 -51 -29 -33 -33 -38 -74 -12 -103 13 -15 15 -26 7 -56 -19 -77
-69 -24 -60 64 9 78 24 110 59 128 37 18 63 20 72 6z m-1160 -53 c38 -18 55
-40 55 -69 l0 -30 -32 27 c-22 19 -39 25 -57 22 -16 -3 -43 4 -70 17 l-44 23
24 16 c24 17 83 15 124 -6z m1128 -30 c-21 -56 -33 -60 -33 -13 0 25 7 39 22
50 12 9 23 14 25 12 2 -1 -5 -24 -14 -49z m-1349 -13 c26 -10 20 -44 -8 -44
-22 0 -36 16 -36 41 0 10 21 12 44 3z m127 -20 c18 -9 41 -13 58 -9 23 5 32
-1 69 -46 46 -56 53 -76 23 -59 -11 5 -31 10 -45 10 -16 0 -27 7 -31 21 -9 26
-68 52 -104 45 -16 -4 -34 0 -46 10 -20 15 -20 15 -1 30 25 18 40 18 77 -2z
m492 -34 c100 -9 268 -1 350 16 22 5 27 3 27 -13 0 -24 -58 -40 -202 -55 -165
-18 -393 12 -420 55 -4 7 -8 19 -8 29 0 15 6 14 73 -3 39 -11 120 -24 180 -29z
m612 -51 c4 -16 18 -38 33 -49 21 -17 24 -25 16 -38 -16 -25 -37 -25 -66 -2
-33 25 -44 71 -28 111 15 35 35 25 45 -22z m-1185 36 c0 -12 -38 -46 -42 -38
-19 34 -17 43 12 43 17 0 30 -2 30 -5z m292 -17 c9 -7 25 -34 36 -60 l20 -47
-33 -25 c-19 -14 -36 -26 -39 -26 -3 0 -6 31 -6 69 0 39 -4 73 -10 76 -14 9
-12 25 3 25 7 0 20 -6 29 -12z m-168 -14 c24 -24 20 -31 -25 -38 -22 -4 -51
-17 -63 -29 -22 -22 -24 -23 -35 -5 -17 28 -13 55 11 72 29 21 92 20 112 0z
m322 -37 c7 -7 -49 -37 -70 -37 -8 0 -18 10 -21 23 -17 59 -20 56 35 37 28 -9
53 -20 56 -23z m491 21 c-2 -7 -11 -12 -19 -10 -21 3 -29 -31 -33 -147 -4 -82
-8 -99 -31 -133 -15 -21 -32 -42 -37 -45 -13 -8 -46 33 -101 125 l-44 74 43
58 c44 56 46 57 105 64 34 4 71 11 83 16 31 12 39 12 34 -2z m-984 -30 c2 -7
30 -48 60 -90 49 -68 53 -78 35 -78 -18 0 -20 -4 -14 -39 9 -60 -8 -57 -42 7
-49 93 -82 188 -69 201 14 14 24 14 30 -1z m656 -42 c33 -57 33 -74 1 -94 -19
-11 -20 -10 -20 32 0 25 -4 47 -9 50 -9 6 -21 -49 -21 -100 0 -25 -8 -36 -40
-58 -43 -28 -44 -28 -54 31 -3 17 -17 55 -31 85 -16 33 -21 54 -15 56 6 2 23
15 38 28 20 17 39 23 74 24 46 0 47 -1 77 -54z m111 47 c0 -11 -52 -83 -59
-83 -4 0 -17 20 -29 45 l-22 45 55 0 c30 0 55 -3 55 -7z m-496 -19 c25 -25 21
-99 -6 -118 -36 -26 -48 -21 -35 14 10 25 8 36 -7 64 -10 19 -15 39 -12 45 10
16 42 13 60 -5z m-88 -9 c4 -8 0 -22 -7 -31 -11 -13 -14 -13 -27 0 -17 17 -9
46 13 46 9 0 18 -7 21 -15z m1189 -30 l37 -45 -17 -55 c-16 -48 -20 -54 -34
-43 -48 36 -49 38 -40 76 5 22 4 39 -2 42 -11 7 -1 70 12 70 4 0 24 -20 44
-45z m-184 -27 c49 -6 93 -14 99 -18 11 -7 1 -51 -36 -157 -24 -66 -29 -73
-53 -73 -48 1 -156 26 -196 45 l-40 20 -3 100 c-2 55 0 110 3 122 l5 23 66
-25 c37 -14 106 -30 155 -37z m-1071 26 c0 -22 46 -40 64 -25 17 15 36 7 36
-15 0 -19 -44 -64 -63 -64 -7 0 -28 20 -46 45 -27 38 -30 47 -19 64 13 21 28
19 28 -5z m-100 -152 l37 -73 -65 -80 c-36 -44 -69 -76 -73 -72 -15 15 -80
154 -85 182 -7 32 9 66 69 156 l41 59 20 -49 c11 -28 36 -83 56 -123z m436
117 c21 -42 44 -118 44 -150 0 -23 -11 -31 -102 -74 -57 -26 -121 -50 -143
-52 -40 -5 -40 -5 -87 63 -68 101 -68 101 -11 110 70 10 154 46 215 93 29 22
56 41 60 41 4 0 15 -14 24 -31z m1086 -142 c31 -38 31 -39 14 -73 l-16 -35
-70 57 c-39 31 -70 61 -70 67 0 6 7 31 17 55 l16 43 39 -38 c22 -21 53 -55 70
-76z m-758 -19 l58 -90 -68 -69 -69 -70 -23 28 c-13 15 -50 64 -83 107 l-60
80 28 23 c15 12 31 22 36 23 4 0 7 -27 7 -60 0 -85 17 -74 25 16 7 69 11 80
39 105 27 25 32 26 41 13 6 -9 36 -56 69 -106z m554 43 c12 -11 22 -25 22 -32
0 -15 -87 -178 -104 -197 -10 -10 -18 -11 -39 -1 -22 10 -26 17 -21 38 10 46
13 51 32 51 19 0 26 13 63 123 15 42 16 43 47 18z m118 -93 c46 -38 63 -58 60
-71 -6 -25 -99 -177 -108 -177 -4 0 -36 18 -72 41 l-64 40 56 109 c31 60 58
110 60 110 2 0 32 -24 68 -52z m-1312 -14 c20 -30 52 -64 71 -75 18 -11 36
-27 39 -36 6 -15 -19 -53 -34 -53 -14 0 -132 191 -126 205 3 8 7 15 9 15 2 0
21 -25 41 -56z m-266 -94 c12 -19 22 -42 22 -50 0 -13 -153 -190 -170 -198 -3
-1 -19 24 -34 56 l-28 58 43 74 c23 41 56 104 72 140 l29 64 23 -54 c12 -30
32 -71 43 -90z m1065 75 c-1 -31 -5 -60 -8 -63 -8 -8 -55 39 -55 56 0 19 43
72 55 68 6 -2 9 -29 8 -61z m-340 -55 l86 -109 -32 -27 -32 -27 -61 129 c-53
112 -64 144 -49 144 1 0 41 -49 88 -110z m1061 26 c59 -67 65 -77 60 -105 -4
-18 -10 -30 -15 -29 -4 2 -40 34 -79 72 l-72 70 16 33 c9 18 17 33 20 33 2 0
33 -33 70 -74z m-519 14 c38 0 41 -7 26 -56 -5 -16 -19 -65 -31 -109 -54 -199
-139 -425 -160 -425 -6 0 -30 44 -30 55 0 2 10 5 21 7 37 5 47 33 22 60 -11
13 -28 38 -38 57 -9 18 -28 44 -43 56 -23 20 -25 25 -14 51 19 44 59 222 67
291 l7 61 69 -24 c38 -13 84 -24 104 -24z m-1007 -57 l64 -96 -73 -73 c-41
-41 -76 -74 -79 -74 -3 0 -15 17 -27 38 l-22 39 28 89 c16 49 27 91 25 93 -8
9 -34 -36 -51 -86 -9 -29 -20 -53 -25 -53 -5 0 -16 15 -25 34 l-16 34 63 76
c34 42 65 76 69 76 3 0 35 -44 69 -97z m407 -30 c32 -71 67 -140 78 -156 26
-39 67 -57 144 -64 62 -6 71 -10 115 -51 26 -24 50 -54 54 -66 3 -11 18 -33
32 -48 22 -24 23 -28 9 -34 -38 -14 -64 5 -101 76 -21 38 -44 70 -52 70 -15 0
-19 -16 -5 -22 5 -1 23 -30 40 -63 17 -33 46 -81 65 -107 30 -41 46 -96 47
-153 1 -29 -21 -7 -54 54 -39 73 -120 171 -132 160 -8 -8 30 -124 51 -157 15
-22 15 -26 0 -40 -25 -25 -45 -6 -89 79 -37 71 -57 95 -57 67 0 -7 18 -46 40
-87 21 -41 37 -78 34 -83 -15 -24 -48 -3 -105 67 -34 41 -66 72 -71 69 -10 -6
-5 -14 64 -96 51 -60 58 -78 32 -78 -20 0 -175 149 -215 206 -15 23 -38 77
-50 120 -37 137 -70 227 -110 301 -44 81 -44 83 -25 83 7 0 51 18 97 39 46 22
89 40 94 40 6 1 37 -56 70 -126z m378 -27 c-10 -58 -45 -186 -52 -191 -7 -4
-117 112 -135 143 -5 8 15 38 55 82 l62 71 38 -37 c32 -31 37 -42 32 -68z
m726 -10 l54 -55 -41 -86 c-47 -98 -34 -97 -151 -13 -41 29 -74 58 -73 63 0 6
25 49 54 97 l52 86 26 -18 c14 -10 49 -43 79 -74z m-438 14 c10 -6 19 -14 19
-19 0 -11 -81 -123 -86 -118 -2 2 0 17 5 33 6 16 15 48 21 72 12 46 13 47 41
32z m-918 -33 c23 -36 69 -147 65 -159 -4 -12 -118 132 -118 148 0 11 21 34
31 34 4 0 14 -11 22 -23z m1568 -115 c28 -40 49 -77 47 -82 -2 -6 -43 29 -91
78 -85 86 -88 89 -77 118 l11 29 30 -35 c16 -19 52 -68 80 -108z m-1915 78
l26 -39 -16 -98 c-16 -94 -19 -100 -61 -143 -24 -24 -46 -42 -48 -40 -3 3 -28
40 -56 83 l-51 79 87 99 c47 54 88 99 89 99 2 0 16 -18 30 -40z m1387 -4 c31
-20 57 -41 57 -46 0 -12 -144 -227 -170 -254 -17 -18 -19 -17 -74 18 -31 20
-56 41 -55 48 3 57 148 284 175 274 6 -2 36 -20 67 -40z m-578 -38 l48 -53
-38 -3 c-50 -4 -81 4 -106 29 l-21 21 28 29 c15 16 31 29 35 29 4 0 28 -24 54
-52z m-458 -53 l71 -93 -93 -60 -94 -61 -34 47 c-18 26 -44 62 -56 80 l-23 33
68 73 c38 41 74 74 79 74 6 1 42 -41 82 -93z m1574 -168 c-16 -37 -35 -67 -41
-67 -5 0 -44 27 -85 60 -41 32 -83 63 -92 68 -15 9 -12 19 26 97 l43 88 90
-90 90 -90 -31 -66z m-2186 164 l25 -50 -31 -25 c-44 -37 -119 -80 -126 -72
-8 8 87 196 99 196 4 0 19 -22 33 -49z m1828 -29 c43 -30 81 -60 84 -68 5 -14
-60 -120 -135 -219 -25 -33 -47 -62 -48 -64 -2 -2 -27 16 -56 40 -30 24 -71
55 -91 69 -20 14 -37 28 -37 32 0 4 24 40 53 80 28 40 70 101 92 135 22 34 44
59 50 56 5 -4 45 -31 88 -61z m-1497 17 c16 -31 16 -32 -16 -63 l-32 -31 7 49
c7 49 14 76 21 76 2 0 11 -14 20 -31z m93 -136 l54 -77 -34 -26 c-18 -14 -61
-49 -96 -78 l-63 -54 -19 24 c-11 12 -15 25 -11 28 5 3 11 43 15 90 7 82 9 86
48 128 23 23 44 42 47 42 3 0 29 -35 59 -77z m-328 -15 l54 -81 -95 -89 c-52
-48 -99 -87 -105 -85 -20 7 -95 183 -95 224 0 5 21 20 48 32 26 12 63 35 82
51 19 16 40 30 46 30 6 0 36 -37 65 -82z m2240 -55 l51 -85 -18 -39 c-9 -22
-21 -42 -26 -45 -4 -3 -45 26 -91 63 l-83 69 39 84 40 84 18 -23 c11 -13 42
-61 70 -108z m-1621 52 c6 -31 27 -78 46 -106 l34 -51 -29 -37 c-16 -20 -40
-46 -53 -58 l-24 -23 -38 39 -38 39 8 88 c4 49 8 98 9 108 1 15 54 56 72 56 1
0 7 -25 13 -55z m1330 -23 c47 -36 87 -67 89 -68 9 -7 -82 -139 -188 -273
l-18 -24 -47 39 -46 38 0 99 0 99 52 83 c29 46 57 81 63 77 5 -3 48 -35 95
-70z m-1443 -62 l-13 -84 -38 53 c-21 29 -35 56 -30 60 18 17 88 60 91 57 2
-1 -3 -40 -10 -86z m-355 -2 l-4 -73 -29 35 c-15 19 -29 39 -29 44 0 11 50 66
59 66 3 0 4 -32 3 -72z m1211 41 c38 -25 45 -34 37 -47 -10 -19 -122 -154
-191 -230 -45 -49 -47 -51 -63 -33 -14 15 -15 23 -5 44 9 21 16 24 29 17 12
-6 23 -5 35 4 15 11 17 21 12 61 -6 44 -3 56 35 132 24 45 48 83 54 83 6 0 32
-14 57 -31z m-1608 -56 c9 -27 32 -78 51 -114 l33 -67 -49 -46 c-27 -25 -54
-46 -60 -46 -11 0 -61 104 -62 130 -1 14 61 190 67 190 1 0 10 -21 20 -47z
m694 -42 l51 -68 0 -80 0 -80 -45 -42 c-26 -23 -50 -41 -56 -39 -12 4 -189
209 -189 219 0 5 176 155 187 158 0 1 24 -30 52 -68z m-325 -25 c26 -33 45
-63 44 -66 -8 -17 -106 -99 -111 -93 -4 3 -7 20 -7 37 0 16 -7 56 -16 88 -17
58 -17 59 6 83 13 14 27 22 31 18 4 -5 28 -35 53 -67z m1337 53 c35 -25 36
-32 4 -189 -25 -123 -26 -126 -73 -172 l-47 -47 -82 67 -82 66 45 51 c25 27
80 94 122 147 42 53 79 97 80 97 2 1 17 -8 33 -20z m688 -65 c45 -36 81 -70
81 -74 0 -19 -214 -292 -227 -289 -4 1 -41 32 -81 70 l-73 68 80 104 c43 58
90 123 103 146 12 22 26 41 30 41 3 0 43 -30 87 -66z m-1038 -26 c27 -54 28
-60 15 -86 -15 -30 -85 -98 -130 -128 -16 -9 -39 -35 -52 -56 -28 -44 -39 -47
-55 -16 -9 16 -9 23 0 26 6 2 11 12 11 23 0 12 7 19 20 19 10 0 24 9 30 21 9
15 18 19 35 15 35 -9 53 26 30 60 -8 13 -21 24 -27 24 -20 0 26 29 47 30 28 1
55 24 55 46 0 10 -9 33 -20 49 -11 17 -20 36 -20 44 0 25 30 -10 61 -71z m602
-38 l-8 -32 -28 22 -27 22 32 45 33 46 3 -36 c2 -19 -1 -49 -5 -67z m-150 54
c26 -20 47 -40 47 -44 0 -9 -118 -144 -130 -148 -4 -2 -2 25 6 60 7 35 13 87
14 116 0 28 4 52 8 52 5 0 30 -16 55 -36z m-1549 4 c4 -13 9 -59 12 -103 6
-79 6 -80 -24 -108 l-29 -28 -30 38 c-16 21 -39 52 -51 69 l-22 32 63 61 c34
33 65 61 68 61 4 0 10 -10 13 -22z m2328 -40 c18 -35 40 -80 50 -101 l18 -38
-38 30 c-20 17 -53 44 -72 60 l-34 29 18 41 c11 23 21 41 22 41 2 0 18 -28 36
-62z m-1609 45 c4 -3 -11 -26 -33 -49 -29 -32 -40 -52 -40 -75 0 -31 0 -32
-20 -14 -11 10 -20 22 -20 28 0 10 91 116 101 116 3 1 9 -2 12 -6z m27 -48
c-28 -34 19 -107 87 -136 25 -10 54 -19 64 -19 11 0 18 -4 15 -8 -8 -14 -114
3 -134 21 -10 10 -31 40 -46 67 -22 40 -25 53 -16 70 6 11 18 20 27 20 12 0
13 -3 3 -15z m-190 -64 c0 -4 -11 -18 -25 -31 l-25 -23 0 59 1 59 24 -28 c14
-15 25 -32 25 -36z m299 -21 c13 -7 37 -9 57 -6 36 7 74 -10 74 -33 0 -19
-124 -6 -165 18 -34 20 -70 75 -59 92 5 9 17 1 38 -23 17 -20 42 -41 55 -48z
m-584 -47 c50 -59 91 -109 93 -112 1 -4 -41 -47 -94 -95 l-96 -89 -72 72 -72
72 10 74 c11 74 12 75 71 129 33 31 62 55 65 55 3 0 46 -48 95 -106z m1396 74
c29 -25 41 -48 58 -105 l22 -73 -79 -87 c-44 -48 -92 -98 -106 -111 l-25 -24
-46 37 -45 37 0 84 0 83 83 96 c45 52 87 95 92 95 6 0 26 -14 46 -32z m682
-71 c31 -28 57 -53 57 -57 0 -6 -202 -313 -217 -329 -2 -2 -44 36 -93 85 l-89
90 95 120 c53 66 105 135 116 153 l20 32 27 -22 c14 -13 52 -45 84 -72z
m-1638 39 c37 -62 79 -95 121 -95 19 0 34 -4 34 -10 0 -6 -26 -10 -59 -10 -54
0 -61 3 -86 32 -37 43 -59 93 -52 112 9 23 13 21 42 -29z m-1068 -127 c-56
-51 -71 -59 -63 -30 2 9 16 57 31 106 l26 88 29 -58 28 -59 -51 -47z m246 75
c29 -40 46 -72 42 -82 -6 -19 -92 -107 -99 -100 -2 2 -27 35 -55 73 l-52 70
53 53 c29 29 55 53 58 52 3 0 27 -30 53 -66z m787 -48 c0 -13 19 -45 43 -71
23 -27 48 -61 55 -76 14 -34 26 -35 46 -6 15 22 17 22 43 6 15 -9 29 -21 31
-26 2 -8 -56 -57 -195 -164 -8 -6 -42 21 -108 85 l-97 94 7 98 c7 95 8 98 43
130 l36 33 48 -41 c31 -26 48 -48 48 -62z m1120 16 c0 -4 -6 -16 -14 -27 -14
-18 -15 -18 -24 6 -5 14 -13 36 -17 49 l-7 24 31 -22 c17 -12 31 -26 31 -30z
m-686 33 c9 -3 16 -12 16 -19 0 -10 -96 -101 -182 -173 -15 -12 -23 -10 -67
14 -27 16 -52 35 -54 44 -3 8 -8 23 -12 34 -6 14 -4 17 10 15 10 -2 22 -20 29
-39 9 -29 16 -36 43 -38 28 -3 34 1 50 32 14 26 133 136 148 136 2 0 10 -3 19
-6z m131 -109 c33 -27 64 -53 69 -57 9 -7 -170 -187 -186 -188 -4 0 -46 30
-92 67 l-85 66 47 41 c26 22 72 64 102 93 46 43 57 50 70 39 8 -7 42 -34 75
-61z m-1225 42 c0 -30 -10 -40 -26 -26 -10 8 -11 15 -1 30 16 26 27 24 27 -4z
m460 -44 l0 -67 -35 34 -35 34 32 33 c18 18 33 33 35 33 2 0 3 -30 3 -67z
m280 27 c23 0 50 -46 50 -86 0 -26 -2 -25 -29 17 -17 24 -41 55 -55 68 -14 14
-26 28 -26 33 0 4 9 -1 20 -12 11 -11 29 -20 40 -20z m-989 -49 l57 -78 -72
-91 c-39 -50 -74 -91 -78 -91 -12 -1 -55 79 -83 152 l-25 68 32 27 c18 15 49
42 68 59 19 18 37 32 40 32 3 0 30 -35 61 -78z m2202 -75 c-3 -6 -29 -40 -57
-75 l-51 -65 -8 35 c-5 19 -24 74 -43 124 l-34 89 22 23 21 22 78 -70 c46 -42
76 -76 72 -83z m491 49 c14 -44 32 -109 41 -145 16 -71 20 -187 6 -209 -9 -14
-106 -51 -131 -49 -8 0 -51 38 -94 84 l-79 83 109 164 c60 90 112 161 115 158
4 -3 18 -42 33 -86z m-2468 4 c-3 -15 -19 -50 -37 -79 l-31 -51 -25 23 c-48
44 -47 52 8 113 50 54 52 55 71 38 14 -12 18 -26 14 -44z m1422 0 c-2 -48 -13
-57 -39 -33 -19 17 -19 18 8 46 15 15 28 28 30 28 2 0 3 -18 1 -41z m-980 -18
l42 -50 0 -110 c0 -62 4 -112 10 -116 6 -4 10 32 10 102 l0 108 87 -87 87 -87
-29 -23 c-17 -13 -62 -51 -101 -85 l-71 -62 -138 139 -139 139 95 90 c52 50
97 90 100 91 3 0 25 -22 47 -49z m1360 -48 c50 -152 50 -149 2 -215 -23 -32
-45 -58 -49 -58 -4 0 -18 12 -32 26 -13 14 -52 49 -86 77 -35 28 -63 55 -63
60 0 10 180 204 191 206 3 1 20 -43 37 -96z m-1638 -83 c0 -10 -101 -120 -110
-120 -5 0 -30 25 -56 56 l-48 56 39 74 40 74 67 -67 c38 -37 68 -70 68 -73z
m1226 83 c18 -16 34 -35 34 -43 0 -8 9 -43 20 -78 l20 -64 -63 -69 c-34 -38
-64 -69 -67 -69 -3 1 -45 39 -95 85 l-90 84 95 90 c52 50 99 90 103 91 4 0 24
-12 43 -27z m-1816 -17 c0 -6 20 -52 45 -101 l44 -88 -36 -59 c-27 -43 -41
-57 -52 -53 -9 4 -31 9 -48 12 -18 3 -33 6 -33 7 0 1 14 67 30 146 17 79 30
148 30 153 0 4 5 5 10 2 6 -3 10 -12 10 -19z m2517 -68 c46 -46 83 -86 83 -91
0 -4 -39 -66 -87 -137 -114 -169 -120 -171 -161 -36 -17 56 -34 124 -37 151
-6 49 -5 52 50 123 31 39 59 72 63 72 4 0 44 -37 89 -82z m-2207 36 c23 -27
30 -42 25 -58 -31 -97 -47 -256 -25 -256 6 0 10 20 10 44 0 51 15 140 31 179
l12 28 36 -42 c68 -79 67 -75 28 -122 -19 -23 -51 -69 -72 -101 l-38 -60 -58
62 c-32 34 -76 86 -99 116 l-42 56 73 94 c41 53 77 95 80 96 4 0 21 -16 39
-36z m1141 -35 c43 -34 79 -65 79 -68 0 -10 -177 -151 -190 -151 -5 0 -10 22
-10 49 0 26 -3 70 -7 97 -7 42 -9 31 -13 -70 l-5 -119 -77 73 c-43 39 -78 76
-78 81 0 11 198 169 212 169 5 0 45 -28 89 -61z m474 -3 c30 -24 30 -24 11
-45 -23 -25 -30 -20 -44 32 -12 43 -7 45 33 13z m-1093 -351 c-32 -33 -72 -76
-88 -95 l-30 -36 -47 86 c-26 47 -75 121 -107 165 -33 44 -60 84 -60 90 0 5
26 35 57 67 l58 58 137 -137 138 -138 -58 -60z m1247 222 c101 -87 99 -77 40
-163 -15 -22 -47 -79 -71 -127 l-43 -86 -113 125 -113 125 57 64 c31 36 60 63
64 60 4 -3 16 -36 25 -75 9 -38 21 -70 26 -70 15 0 9 62 -11 120 l-19 55 27
28 c14 15 29 26 33 25 5 -2 49 -38 98 -81z m-429 -39 c49 -45 90 -86 90 -90 0
-5 -24 -39 -53 -76 -30 -37 -68 -89 -86 -115 l-32 -48 -32 27 c-114 96 -198
183 -195 201 3 18 191 180 210 182 4 1 48 -36 98 -81z m640 5 c6 -32 20 -85
31 -117 10 -33 18 -61 16 -62 -2 -2 -33 27 -70 64 l-67 67 37 53 c20 28 38 52
39 52 1 0 8 -26 14 -57z m464 -94 c-2 -4 -18 -9 -35 -13 -17 -3 -54 -25 -82
-48 -47 -40 -55 -43 -108 -43 -32 0 -60 3 -64 7 -4 3 31 61 77 128 l83 122 67
-73 c36 -41 65 -76 62 -80z m-1547 59 l72 -73 -91 -92 c-50 -51 -94 -93 -97
-93 -4 0 -44 37 -89 83 l-83 83 96 82 c53 45 101 82 108 82 7 0 45 -33 84 -72z
m-1037 -24 c19 -23 57 -68 84 -98 46 -54 48 -57 36 -86 -11 -27 -17 -30 -56
-30 -60 0 -148 35 -179 71 -37 44 -33 90 12 168 37 62 38 63 53 40 8 -13 31
-42 50 -65z m416 -87 c65 -100 104 -176 104 -203 0 -22 -4 -24 -42 -24 -50 0
-130 20 -173 43 -16 8 -55 41 -85 71 l-54 56 18 32 c10 18 42 64 70 101 l51
69 33 -39 c19 -21 54 -69 78 -106z m1665 16 c118 -123 131 -154 83 -198 -26
-24 -32 -25 -165 -25 -77 0 -139 2 -139 5 0 24 145 275 159 275 4 0 32 -26 62
-57z m-348 -132 l84 -94 -125 -63 c-93 -47 -129 -61 -141 -54 -9 6 -43 34 -75
64 -71 65 -73 52 41 201 l75 97 28 -28 c16 -16 67 -71 113 -123z m-584 -68 l1
-63 -59 0 c-54 0 -62 3 -102 38 l-43 39 32 40 c17 23 60 67 94 99 l63 58 6
-75 c4 -41 7 -102 8 -136z m-270 -22 c-16 -20 -46 -57 -67 -83 -35 -45 -39
-46 -77 -41 -61 8 -102 31 -126 69 -11 19 -30 39 -40 45 -19 10 -19 12 10 47
16 20 57 68 92 105 l62 68 88 -87 88 -88 -30 -35z m435 61 l69 -65 -23 -44
c-19 -37 -36 -51 -92 -79 -66 -33 -98 -41 -111 -27 -4 3 3 13 14 21 21 14 21
20 15 121 -3 58 -9 128 -13 156 l-6 50 39 -34 c21 -19 70 -63 108 -99z m-1098
-9 c-5 -6 -86 16 -86 23 0 3 5 14 11 26 11 20 12 19 45 -13 18 -18 32 -34 30
-36z m768 -111 c-63 -46 -174 -90 -174 -67 0 4 26 38 57 75 l57 68 39 -31 c37
-29 38 -31 21 -45z m536 -72 c0 -12 -45 3 -102 31 -46 24 -46 24 -31 52 l14
28 60 -51 c32 -29 59 -56 59 -60z m-900 24 c28 -30 102 -49 186 -49 64 0 76 3
125 35 67 44 103 60 134 60 l25 0 0 -167 c0 -199 -19 -381 -55 -553 -15 -69
-29 -128 -31 -132 -2 -3 1 -8 8 -10 10 -4 13 -132 15 -569 2 -513 4 -578 24
-724 12 -94 29 -174 39 -195 20 -39 23 -58 21 -144 -1 -57 -1 -58 -19 -36 -10
13 -33 23 -58 27 -36 5 -45 1 -77 -26 l-36 -32 1 30 c1 17 -5 37 -11 45 -7 8
-17 48 -22 88 -5 40 -29 141 -54 223 -136 461 -211 795 -230 1037 -8 92 20
352 37 342 4 -3 8 -21 8 -40 0 -19 5 -34 10 -34 18 0 10 120 -23 370 -23 169
-47 318 -68 420 -24 119 -24 122 6 85 13 -16 33 -40 45 -51z m1179 -51 c-10
-59 -33 -175 -50 -258 -32 -150 -32 -151 -39 -545 -9 -469 -14 -511 -141
-1040 -33 -135 -66 -273 -74 -307 -19 -78 -19 -101 0 -175 14 -53 14 -62 0
-90 -19 -39 -19 -40 1 -36 10 2 19 -3 21 -9 8 -24 -31 -13 -52 13 -15 19 -33
27 -67 31 -43 5 -49 3 -82 -31 -20 -20 -45 -36 -56 -36 -18 0 -18 2 -3 46 9
27 13 60 10 81 -5 26 0 47 18 82 29 56 41 101 27 101 -6 0 -12 -6 -15 -12 -8
-24 -32 360 -43 693 -8 212 3 352 38 519 12 52 22 104 23 115 2 11 6 41 10 68
5 32 4 47 -4 47 -6 0 -11 -12 -12 -27 -1 -23 -3 -20 -15 17 -25 79 -34 255
-28 512 l7 246 37 21 c49 27 76 26 125 -4 30 -18 54 -24 95 -25 48 0 67 6 140
48 95 54 132 71 141 66 3 -2 -2 -52 -12 -111z m-643 73 c21 -16 14 -29 -23
-41 -20 -6 -23 -3 -23 24 0 34 15 39 46 17z m19 -100 c11 0 32 3 46 7 l27 7
-5 -278 c-5 -257 -4 -287 18 -407 28 -163 28 -159 -4 -345 -35 -200 -36 -429
-5 -878 21 -307 22 -325 5 -354 -10 -18 -17 -51 -17 -83 0 -29 -7 -72 -16 -96
-11 -34 -14 -66 -9 -134 6 -86 -3 -130 -22 -111 -4 4 -10 60 -13 124 -4 82
-11 126 -23 149 -9 18 -17 50 -17 73 0 22 -11 66 -24 98 -55 131 -68 348 -64
1042 4 580 5 586 31 740 15 85 27 193 27 240 0 47 3 116 7 153 5 57 8 67 22
61 9 -4 25 -7 36 -8z m-112 -2412 c11 -4 8 -12 -15 -35 -35 -35 -38 -35 -38
-8 0 12 -8 28 -17 35 -16 12 -14 13 19 14 20 0 43 -3 51 -6z m382 -14 c4 -6
-7 -24 -24 -40 -33 -34 -41 -37 -41 -15 0 8 -9 23 -20 32 -11 10 -20 21 -20
25 0 12 98 10 105 -2z m-552 -20 c-6 -22 -21 -35 -30 -26 -5 5 24 46 33 46 1
0 0 -9 -3 -20z m97 -14 c0 -8 -13 -17 -30 -21 -34 -7 -41 -25 -10 -25 11 0 20
-7 20 -15 0 -9 -9 -15 -25 -15 -14 0 -25 -4 -25 -10 0 -5 9 -10 20 -10 32 0
24 -30 -10 -36 -39 -8 -39 -24 1 -24 40 0 34 -24 -7 -28 -49 -6 -52 -22 -5
-22 38 0 42 -2 31 -15 -7 -9 -29 -15 -52 -15 -21 0 -54 -7 -73 -14 -41 -18
-42 -14 -10 39 39 63 55 102 55 133 0 31 17 51 65 76 37 20 55 20 55 2z m160
-75 c0 -44 7 -97 15 -121 14 -41 21 -110 10 -110 -3 0 -23 13 -45 29 -22 16
-56 32 -75 35 -19 4 -35 12 -35 18 0 6 11 8 30 5 37 -8 40 10 4 23 -14 6 -24
16 -21 23 5 13 11 13 40 2 27 -11 20 14 -8 27 -14 6 -25 17 -25 25 0 7 11 13
25 13 30 0 33 16 5 25 -27 9 -25 35 3 35 20 1 21 2 5 14 -31 23 -21 36 27 36
l45 0 0 -79z m198 67 c18 -18 14 -36 -8 -40 -26 -4 -26 -23 0 -22 32 1 23 -22
-12 -32 -17 -5 -33 -15 -35 -21 -3 -9 4 -10 26 -3 20 5 33 5 37 -2 8 -13 -14
-28 -43 -28 -13 0 -23 -4 -23 -10 0 -5 14 -10 30 -10 36 0 40 -17 5 -26 -35
-9 -31 -24 6 -24 46 0 31 -21 -31 -45 -57 -22 -90 -59 -90 -105 -1 -22 -2 -23
-11 -7 -13 23 -3 87 23 149 16 37 19 64 16 129 -3 79 -2 82 21 85 13 3 31 9
40 14 22 13 35 12 49 -2z m184 -98 c4 -53 14 -116 22 -140 21 -61 20 -64 -11
-42 -16 10 -48 26 -73 35 -30 10 -37 16 -22 16 28 1 30 31 2 31 -11 0 -20 7
-20 15 0 12 7 14 26 9 20 -5 25 -3 22 7 -3 8 -14 15 -26 17 -14 2 -22 11 -22
24 0 14 5 18 15 14 8 -3 22 -9 31 -13 12 -4 15 -2 12 8 -2 8 -19 18 -36 24
-39 11 -45 39 -7 29 16 -4 25 -2 25 6 0 6 -9 14 -20 17 -22 6 -27 28 -7 37 6
3 28 4 47 3 l35 -2 7 -95z m-506 59 c8 -14 -11 -33 -25 -25 -11 7 -4 36 9 36
5 0 12 -5 16 -11z m-6 -69 c0 -13 -5 -18 -15 -14 -8 4 -15 12 -15 20 0 8 7 14
15 14 8 0 15 -9 15 -20z m376 -27 c-10 -10 -19 5 -10 18 6 11 8 11 12 0 2 -7
1 -15 -2 -18z m-386 -28 c0 -8 -4 -15 -10 -15 -5 0 -10 7 -10 15 0 8 5 15 10
15 6 0 10 -7 10 -15z m400 -16 c0 -5 -7 -9 -15 -9 -8 0 -15 7 -15 15 0 9 6 12
15 9 8 -4 15 -10 15 -15z m-392 -73 c9 -2 32 -7 50 -11 18 -4 48 -22 68 -40
29 -28 35 -40 32 -67 -6 -67 -103 -100 -232 -79 -128 21 -182 67 -156 131 17
42 31 50 101 60 46 7 69 16 88 35 l26 26 3 -25 c2 -14 11 -27 20 -30z m392 19
c0 -16 25 -29 72 -39 15 -4 46 -23 68 -45 34 -32 40 -44 40 -79 0 -63 -33 -77
-180 -77 -146 0 -180 14 -180 75 0 72 19 94 114 129 15 6 30 20 33 31 6 23 33
27 33 5z m-491 -236 c92 -14 191 -4 225 22 21 17 25 17 30 3 10 -26 7 -30 -36
-50 -34 -15 -66 -19 -163 -19 -135 0 -173 13 -200 65 -21 41 -20 41 28 15 23
-13 76 -29 116 -36z m395 -30 c53 -15 196 -5 236 16 38 20 50 13 26 -14 -34
-37 -203 -54 -290 -30 -42 12 -86 49 -86 73 0 12 8 10 36 -9 20 -14 55 -30 78
-36z"/>
<path d="M4600 8381 c-100 -16 -128 -60 -110 -174 12 -80 32 -120 73 -151 24
-18 42 -21 125 -20 164 0 224 46 259 196 17 74 6 119 -35 138 -31 15 -244 22
-312 11z m230 -21 c-18 -12 -137 -12 -165 0 -13 6 15 9 80 9 68 1 95 -2 85 -9z
m-152 -26 l53 -7 -27 -28 c-15 -16 -36 -29 -45 -29 -10 0 -21 -4 -24 -10 -3
-5 -2 -10 3 -10 5 0 27 -18 50 -40 35 -35 47 -40 85 -40 41 0 45 -2 55 -32
l10 -33 1 36 c1 30 6 38 36 52 l35 17 -24 48 c-13 27 -32 55 -42 63 -16 13
-14 15 22 21 27 4 43 2 54 -8 23 -23 14 -97 -21 -171 -38 -80 -77 -102 -181
-103 l-68 0 0 40 c0 33 -3 40 -19 40 -17 0 -20 8 -23 53 -2 35 -7 51 -15 50
-9 -2 -13 14 -13 53 0 53 1 56 23 51 12 -3 46 -9 75 -13z m-122 -29 c3 -19 3
-46 0 -59 -8 -31 3 -59 19 -52 10 3 13 -8 12 -42 -2 -40 1 -47 18 -47 13 0 21
-8 23 -22 3 -17 -2 -23 -15 -23 -49 0 -88 60 -104 160 -8 49 -6 66 6 90 20 39
33 38 41 -5z m262 -1 c40 -28 18 -74 -35 -74 -14 0 -12 3 7 13 14 7 26 20 28
30 4 19 -30 37 -36 19 -2 -6 -10 -8 -19 -5 -13 5 -15 1 -9 -20 8 -33 -1 -36
-13 -4 -6 15 -4 27 7 40 19 21 41 22 70 1z m-84 -69 c29 -29 71 -33 104 -9 28
19 42 10 20 -13 -9 -9 -38 -18 -65 -20 -39 -4 -53 -1 -75 17 -27 21 -38 50
-18 50 5 0 20 -11 34 -25z"/>
<path d="M4661 8193 c-1 -26 39 -57 66 -50 14 3 11 7 -13 16 -17 7 -36 22 -42
34 l-11 22 0 -22z"/>
<path d="M5236 8380 c-71 -13 -93 -74 -64 -174 23 -78 64 -133 116 -153 66
-25 207 -25 246 0 43 29 78 115 80 198 1 62 -2 71 -26 95 -17 18 -43 30 -75
35 -60 10 -225 9 -277 -1z m247 -16 c45 -6 45 -6 36 -38 -5 -17 -9 -59 -9 -93
0 -50 -3 -63 -15 -63 -13 0 -14 -10 -9 -56 l7 -56 -96 3 c-77 3 -101 8 -124
24 -35 26 -84 122 -90 178 -7 60 8 84 60 95 50 12 176 15 240 6z m97 -43 c23
-43 5 -172 -31 -223 -27 -38 -36 -35 -41 11 -3 33 0 41 16 45 15 4 17 11 12
41 -10 52 3 145 20 145 7 0 18 -9 24 -19z"/>
<path d="M5288 8317 c-14 -12 -36 -41 -47 -64 l-21 -42 44 -21 c25 -11 66 -20
91 -20 41 0 52 5 87 40 23 22 45 40 50 40 5 0 6 5 3 10 -3 6 -13 10 -22 10 -9
0 -33 16 -54 35 -47 42 -91 46 -131 12z m93 -7 c23 -13 24 -29 4 -56 -15 -19
-15 -19 -12 1 1 11 -2 21 -7 22 -5 1 -12 7 -16 14 -11 17 -42 3 -38 -18 2 -10
14 -23 28 -30 19 -10 21 -13 7 -13 -53 0 -75 46 -35 74 26 19 42 20 69 6z m59
-64 c0 -8 -12 -24 -26 -35 -46 -36 -144 -21 -152 23 -4 18 -2 18 23 -2 36 -29
77 -28 112 3 32 28 43 31 43 11z"/>
<path d="M5476 8205 c-3 -9 -19 -21 -36 -26 -29 -11 -41 -29 -20 -29 12 0 70
28 70 34 0 3 3 11 6 20 3 9 2 16 -4 16 -5 0 -13 -7 -16 -15z"/>
<path d="M5290 8137 c0 -14 5 -29 10 -32 7 -4 8 3 4 22 -9 38 -14 42 -14 10z"/>
<path d="M5331 8110 c6 -16 15 -30 20 -30 12 0 11 4 -3 35 -16 35 -29 31 -17
-5z"/>
<path d="M5022 8093 c-1 -28 -6 -55 -12 -58 -5 -3 -10 -11 -10 -18 0 -7 6 -5
16 4 11 12 14 30 11 70 l-3 54 -2 -52z"/>
<path d="M5092 8080 c0 -30 3 -64 6 -75 11 -33 30 -60 37 -53 4 3 0 17 -9 30
-8 12 -19 52 -24 88 l-10 65 0 -55z"/>
<path d="M4931 8038 c-6 -7 -23 -29 -39 -48 -33 -41 -45 -67 -32 -75 5 -3 11
3 15 14 3 11 17 26 30 35 14 9 25 22 25 28 0 6 7 19 16 29 9 10 11 19 5 23 -5
4 -14 1 -20 -6z"/>
<path d="M5260 7951 c0 -6 10 -26 23 -42 17 -24 22 -44 22 -93 0 -61 -1 -64
-53 -124 -58 -66 -85 -76 -148 -52 -20 8 -37 7 -69 -6 -33 -12 -47 -13 -64 -5
-12 7 -21 16 -21 21 0 5 -18 19 -40 30 -42 22 -57 41 -60 80 -5 60 1 83 30
112 32 31 33 51 2 32 -33 -21 -62 -76 -62 -119 0 -45 30 -100 65 -119 11 -6
35 -24 54 -39 28 -24 39 -28 65 -22 34 8 90 9 148 4 49 -4 74 12 127 79 37 47
45 65 49 108 2 28 -1 67 -7 86 -12 36 -61 91 -61 69z"/>
<path d="M4971 7946 c55 -55 127 -83 144 -56 3 6 12 10 18 10 7 -1 1 -10 -12
-20 -27 -23 -68 -25 -95 -5 -11 8 -24 15 -29 15 -15 0 35 -36 60 -44 23 -7 60
8 103 44 l25 21 -25 -7 c-23 -6 -24 -6 -10 12 8 10 20 22 25 26 6 4 6 8 1 8
-4 0 -24 -14 -43 -31 -41 -35 -65 -34 -118 7 -26 20 -59 35 -44 20z"/>
<path d="M4940 7835 c-18 -21 -7 -87 20 -125 28 -39 56 -50 130 -50 48 0 64 5
89 25 40 35 68 107 53 140 -14 31 -43 32 -107 4 l-48 -21 -51 21 c-61 25 -70
26 -86 6z m80 -30 c14 -8 39 -14 55 -14 17 0 41 6 55 14 37 21 41 18 22 -15
-16 -27 -16 -31 1 -59 23 -40 2 -55 -25 -18 -26 35 -61 35 -86 0 -16 -21 -24
-25 -32 -17 -8 8 -9 14 -1 18 20 13 12 56 -15 81 -30 28 -14 33 26 10z m200
-5 c0 -13 -29 -70 -35 -70 -2 0 -9 9 -15 20 -8 15 -6 24 10 40 22 22 40 26 40
10z m-236 -29 c17 -18 15 -41 -3 -41 -7 0 -31 43 -31 55 0 11 18 3 34 -14z
m114 -63 c19 -19 14 -28 -13 -28 -24 0 -34 18 -18 33 9 10 17 9 31 -5z"/>
<path d="M5356 7554 c-16 -62 -14 -90 4 -79 4 3 11 24 15 48 3 23 8 54 11 70
11 56 -14 24 -30 -39z"/>
<path d="M5276 7498 c-10 -29 -45 -88 -77 -131 -45 -60 -59 -87 -59 -113 0
-19 5 -34 10 -34 6 0 10 10 10 23 0 22 20 56 88 151 44 62 77 156 54 156 -4 0
-16 -24 -26 -52z"/>
<path d="M4840 7535 c0 -13 42 -161 54 -189 14 -34 92 -103 103 -92 4 4 -14
26 -39 49 -26 24 -49 55 -53 72 -18 76 -48 165 -56 165 -5 0 -9 -2 -9 -5z"/>
<path d="M4948 7485 c-17 -17 57 -155 83 -155 5 0 -3 17 -19 38 -17 20 -36 56
-44 80 -7 24 -16 40 -20 37z"/>
<path d="M4507 6733 c-14 -13 -6 -99 12 -140 21 -44 19 -53 -11 -53 -16 0 -18
-6 -13 -47 4 -27 8 -60 9 -76 2 -15 10 -33 18 -40 9 -6 19 -33 22 -59 4 -25
14 -52 23 -59 24 -20 84 -42 123 -44 19 -1 47 -5 63 -10 38 -10 72 6 136 65
48 44 53 52 49 82 -3 20 1 42 10 56 12 18 12 27 2 52 -7 17 -10 43 -7 60 5 23
2 33 -16 45 -12 8 -30 15 -41 15 -12 0 -37 19 -56 42 -35 39 -39 42 -93 42
-46 1 -61 6 -84 27 -15 15 -38 32 -50 38 -24 12 -86 15 -96 4z m80 -24 c34
-13 73 -48 73 -66 0 -24 -22 -14 -71 32 -50 47 -50 53 -2 34z m-4 -58 c30 -27
34 -61 13 -100 l-13 -24 -18 26 c-17 27 -45 109 -45 135 0 16 11 10 63 -37z
m192 -15 c19 -8 35 -20 35 -25 0 -6 -1 -11 -2 -12 -24 -5 -181 -9 -176 -4 6 6
94 51 106 54 1 1 18 -6 37 -13z m-35 -69 c0 -7 -20 -23 -45 -35 -25 -12 -48
-29 -52 -38 -3 -8 -16 -20 -29 -25 -14 -5 -24 -17 -24 -29 0 -11 -4 -20 -10
-20 -18 0 -11 46 9 64 11 10 23 31 26 47 7 30 17 35 85 42 19 2 36 5 38 5 1 1
2 -4 2 -11z m115 -33 c5 -23 16 -48 23 -57 9 -11 11 -30 7 -61 -9 -56 -25 -71
-25 -22 0 47 -32 118 -66 145 -23 18 -26 24 -14 32 8 5 26 8 40 7 19 -2 26
-11 35 -44z m53 17 c8 -5 11 -17 7 -33 -4 -16 0 -38 9 -56 14 -26 14 -31 1
-42 -13 -11 -15 -7 -15 20 0 19 -6 41 -14 49 -20 24 -29 71 -14 71 7 0 19 -4
26 -9z m-345 -34 c3 -7 -1 -21 -9 -32 -8 -10 -14 -30 -14 -44 0 -37 -12 -17
-20 34 -7 43 -2 52 26 54 7 1 14 -5 17 -12z m232 -12 c14 -13 25 -33 25 -45 0
-31 -24 -82 -49 -104 -23 -21 -37 -17 -91 24 l-25 19 44 -15 c39 -13 46 -13
68 1 33 22 30 83 -5 96 -28 11 -66 -23 -59 -52 6 -22 3 -23 -24 -9 -12 7 -19
21 -19 40 0 23 7 32 38 48 51 27 69 26 97 -3z m-28 -65 c4 -21 -13 -44 -26
-36 -6 4 -11 18 -11 32 0 19 5 25 17 22 10 -2 19 -10 20 -18z m-127 -42 c0
-16 7 -29 18 -32 9 -3 30 -17 46 -31 16 -14 33 -25 37 -25 16 0 72 55 86 85
l14 30 -5 -34 c-4 -18 -6 -40 -6 -47 0 -17 -71 -54 -104 -54 -69 0 -116 42
-116 103 0 24 3 47 7 50 10 11 23 -14 23 -45z m-70 -13 c7 -8 20 -30 29 -47
11 -22 34 -41 69 -58 48 -23 52 -28 37 -40 -14 -11 -21 -11 -45 3 -15 9 -35
17 -43 17 -25 0 -47 29 -47 63 0 18 -7 43 -16 55 -17 25 -4 31 16 7z m340 -44
c0 -23 -11 -37 -62 -75 -67 -49 -74 -52 -98 -36 -13 9 -11 14 10 31 14 12 46
32 72 45 26 13 52 33 58 44 15 27 20 25 20 -9z"/>
<path d="M4840 5842 c0 -23 33 -110 49 -132 35 -44 32 -15 -5 64 -34 72 -44
87 -44 68z"/>
<path d="M4695 5791 c16 -31 33 -47 42 -38 6 7 -38 67 -49 67 -5 0 -2 -13 7
-29z"/>
<path d="M4796 5748 c18 -51 60 -98 88 -98 17 0 14 6 -20 43 -22 23 -46 54
-52 70 -19 44 -33 31 -16 -15z"/>
<path d="M5180 5800 c0 -52 25 -105 62 -133 43 -32 55 -15 18 26 -18 21 -43
63 -56 95 l-24 57 0 -45z"/>
<path d="M5250 5785 c0 -24 39 -78 40 -55 0 8 -9 29 -20 45 -16 25 -20 27 -20
10z"/>
<path d="M5706 6560 c-5 -41 -19 -103 -32 -137 -29 -77 -30 -99 -4 -57 26 40
52 163 48 223 -3 41 -4 39 -12 -29z"/>
<path d="M5813 6271 c-22 -47 -40 -88 -38 -89 6 -7 51 72 70 121 29 77 13 61
-32 -32z"/>
<path d="M5680 6085 c-10 -12 -10 -19 -2 -27 7 -7 12 -15 12 -19 0 -3 -41 -10
-91 -14 -75 -5 -90 -9 -85 -22 3 -8 6 -16 6 -19 0 -23 169 -60 222 -48 47 10
31 21 -39 27 -38 3 -86 11 -108 18 l-40 12 83 12 c90 14 102 19 84 37 -19 19
-14 36 16 46 27 10 27 10 -9 11 -22 1 -42 -5 -49 -14z"/>
<path d="M4353 6616 c6 -67 27 -160 34 -153 8 9 -21 217 -30 217 -6 0 -8 -25
-4 -64z"/>
<path d="M5034 6565 c-4 -9 -2 -21 4 -27 15 -15 44 -1 40 19 -4 23 -36 29 -44
8z"/>
<path d="M5014 6235 c-4 -9 -2 -21 4 -27 15 -15 44 -1 40 19 -4 23 -36 29 -44
8z"/>
<path d="M5041 5881 c-17 -11 -7 -41 13 -41 22 0 30 20 15 36 -9 8 -19 10 -28
5z"/>
<path d="M5328 6513 c2 -65 8 -112 15 -119 7 -6 55 -14 107 -17 64 -3 82 -2
55 4 -22 4 -59 8 -82 8 -72 1 -73 3 -73 100 0 47 -3 96 -6 109 -13 48 -19 17
-16 -85z"/>
<path d="M5400 6556 c0 -16 43 -99 47 -89 4 11 -33 93 -42 93 -3 0 -5 -2 -5
-4z"/>
<path d="M5444 6538 c10 -44 26 -81 32 -75 3 3 1 23 -6 44 -15 46 -36 71 -26
31z"/>
<path d="M4455 5880 c-16 -11 -50 -22 -75 -25 -69 -10 -79 -14 -56 -27 38 -21
176 28 176 63 0 13 -11 10 -45 -11z"/>
<path d="M4517 5841 c-10 -17 -41 -42 -75 -58 -100 -51 -105 -54 -94 -65 15
-15 123 37 160 75 30 32 51 77 35 77 -5 0 -16 -13 -26 -29z"/>
<path d="M4870 4885 c0 -14 37 -31 47 -22 8 9 -5 24 -27 30 -13 3 -20 0 -20
-8z"/>
<path d="M4840 4790 c0 -38 4 -59 10 -55 6 3 10 28 10 55 0 27 -4 52 -10 55
-6 4 -10 -17 -10 -55z"/>
<path d="M5113 4763 c-15 -6 -17 -59 -3 -68 6 -3 10 5 10 19 0 13 6 26 13 29
8 3 9 8 2 15 -5 5 -16 7 -22 5z"/>
<path d="M4980 4671 c0 -16 29 -33 52 -29 21 3 20 5 -11 21 -39 20 -41 20 -41
8z"/>
<path d="M4810 4652 c0 -19 40 -44 67 -41 15 1 36 -1 45 -5 9 -4 25 -6 35 -3
15 3 13 6 -8 15 -15 6 -30 17 -33 24 -5 10 -7 10 -12 1 -8 -17 -36 -16 -60 2
-22 16 -34 19 -34 7z"/>
<path d="M4515 3117 c-13 -31 37 -307 57 -307 12 0 10 32 -11 133 -11 50 -24
115 -29 142 -6 37 -11 45 -17 32z"/>
<path d="M4576 2986 c6 -65 36 -169 41 -146 2 8 -8 58 -22 110 -23 88 -24 91
-19 36z"/>
<path d="M4609 2592 c28 -53 101 -83 152 -62 39 17 32 22 -34 23 -42 2 -62 8
-91 31 -31 24 -36 25 -27 8z"/>
<path d="M4551 2205 c-1 -41 28 -225 50 -325 22 -95 22 -24 0 83 -12 56 -27
143 -35 192 -9 60 -14 77 -15 50z"/>
<path d="M4546 2005 c6 -88 30 -195 56 -258 28 -65 33 -54 7 14 -12 30 -32
113 -45 184 -19 104 -22 116 -18 60z"/>
<path d="M5509 2615 c-12 -19 -22 -168 -10 -161 5 4 13 21 16 39 8 39 2 136
-6 122z"/>
<path d="M5290 2544 c0 -11 5 -25 12 -32 15 -15 82 -16 109 -2 37 20 20 30
-37 24 -49 -6 -59 -4 -70 11 -13 18 -14 18 -14 -1z"/>
<path d="M5521 2433 c-7 -32 -15 -65 -17 -73 -3 -10 0 -8 10 4 15 19 31 95 24
116 -2 7 -9 -14 -17 -47z"/>
<path d="M5550 2423 c0 -27 -18 -173 -26 -213 -9 -46 7 -30 24 23 18 61 28
207 13 207 -6 0 -11 -8 -11 -17z"/>
</g>
</svg>
