<?xml version="1.0" encoding="UTF-8" standalone="no"?>
<svg
   xmlns:dc="http://purl.org/dc/elements/1.1/"
   xmlns:cc="http://creativecommons.org/ns#"
   xmlns:rdf="http://www.w3.org/1999/02/22-rdf-syntax-ns#"
   xmlns:svg="http://www.w3.org/2000/svg"
   xmlns="http://www.w3.org/2000/svg"
   xmlns:sodipodi="http://sodipodi.sourceforge.net/DTD/sodipodi-0.dtd"
   xmlns:inkscape="http://www.inkscape.org/namespaces/inkscape"
   version="1.0"
   width="850.000000pt"
   height="850.000000pt"
   viewBox="0 0 850.000000 850.000000"
   preserveAspectRatio="xMidYMid meet"
   id="svg198"
   sodipodi:docname="8.svg"
   inkscape:version="0.92.2 5c3e80d, 2017-08-06">
  <defs
     id="defs202" />
  <sodipodi:namedview
     pagecolor="#ffffff"
     bordercolor="#666666"
     borderopacity="1"
     objecttolerance="10"
     gridtolerance="10"
     guidetolerance="10"
     inkscape:pageopacity="0"
     inkscape:pageshadow="2"
     inkscape:window-width="1920"
     inkscape:window-height="978"
     id="namedview200"
     showgrid="false"
     inkscape:zoom="1.1779567"
     inkscape:cx="636.4204"
     inkscape:cy="-333.97353"
     inkscape:window-x="0"
     inkscape:window-y="1"
     inkscape:window-maximized="1"
     inkscape:current-layer="svg198" />
  <metadata
     id="metadata2">
Created by potrace 1.14, written by Peter Selinger 2001-2017
<rdf:RDF>
  <cc:Work
     rdf:about="">
    <dc:format>image/svg+xml</dc:format>
    <dc:type
       rdf:resource="http://purl.org/dc/dcmitype/StillImage" />
  </cc:Work>
</rdf:RDF>
</metadata>
  <g
     transform="translate(0.000000,850.000000) scale(0.100000,-0.100000)"
     fill="#000000"
     stroke="none"
     id="g196">
    <path
       d="M0 4250 l0 -4250 3007 0 c2786 0 3006 1 2984 16 -20 15 -23 22 -17 63 29 231 29 254 -14 548 -23 153 -46 334 -51 403 -11 136 -42 296 -90 460 -53 184 -291 904 -303 919 -41 52 -829 344 -1241 461 -82 23 -197 55 -255 72 -126 35 -236 91 -261 133 -33 53 -21 260 40 693 10 70 17 129 15 131 -2 2 -29 -11 -61 -29 -91 -49 -218 -99 -295 -115 -123 -26 -269 -14 -338 28 -32 19 -47 21 -170 18 -114 -2 -144 1 -195 18 -237 80 -250 86 -315 147 -40 37 -75 96 -94 156 -4 13 -13 16 -39 11 -49 -8 -190 22 -253 54 -97 49 -186 156 -235 282 -27 68 -32 216 -10 269 13 31 13 33 -29 78 -53 58 -70 99 -70 172 0 141 90 303 256 463 140 133 313 245 649 420 l180 93 -42 8 c-115 19 -173 95 -173 226 0 125 60 284 154 409 112 148 308 230 489 204 43 -6 83 -13 88 -17 24 -14 -6 -19 -78 -12 -78 7 -169 -2 -234 -23 -52 -18 -164 -95 -204 -141 -104 -122 -102 -260 5 -322 28 -17 51 -21 115 -20 120 1 229 43 385 147 254 169 429 343 505 502 35 73 73 212 78 279 l2 39 -72 13 c-54 9 -88 22 -135 52 -160 103 -182 141 -183 317 0 149 17 190 109 263 l27 20 -22 42 c-42 79 -9 184 72 229 37 21 74 26 103 15 23 -9 20 -21 -8 -28 -87 -22 -119 -146 -37 -146 35 0 103 35 153 79 l43 39 -33 30 c-17 16 -32 37 -32 45 0 17 41 27 106 27 24 0 44 2 44 4 0 3 -12 32 -26 65 -32 74 -27 96 19 87 17 -4 77 -10 132 -14 55 -4 110 -13 122 -20 37 -21 59 -14 124 38 39 31 80 54 113 63 28 8 67 19 86 25 24 7 -675 10 -2277 11 l-2313 1 0 -4250z"
       id="path4"
       style="fill:none" />
    <path
       d="M4678 8467 c2 -18 -1 -56 -6 -85 l-9 -52 71 3 c70 2 71 2 68 -23 -14 -118 -14 -160 0 -160 8 0 23 -9 33 -20 10 -11 22 -20 28 -20 5 0 27 -16 48 -35 22 -19 47 -35 57 -35 11 0 27 -9 37 -20 10 -11 24 -20 31 -20 7 0 26 -11 42 -25 16 -13 40 -29 53 -35 13 -6 40 -20 59 -31 19 -10 46 -19 59 -19 14 0 33 -8 43 -17 10 -9 33 -16 51 -16 17 1 47 2 66 3 19 1 41 -6 52 -16 14 -13 41 -17 119 -19 78 -2 105 -7 120 -20 18 -16 20 -16 49 1 29 17 31 17 51 -1 41 -37 20 -79 -40 -77 -23 1 -54 -5 -70 -13 -21 -11 -36 -12 -54 -5 -14 5 -32 7 -40 4 -8 -3 -38 6 -68 20 -40 19 -63 24 -94 19 -33 -4 -48 -1 -71 17 -17 12 -49 24 -73 27 -24 4 -59 17 -78 30 -19 12 -48 23 -64 23 -16 0 -45 7 -65 15 -19 8 -42 15 -51 15 -9 0 -27 10 -40 23 l-25 22 12 -23 c6 -12 24 -30 39 -39 40 -26 102 -91 102 -108 0 -16 30 -35 57 -35 10 0 35 -20 55 -44 23 -27 48 -46 67 -49 18 -4 32 -14 36 -27 11 -33 46 -60 81 -60 17 0 42 -8 55 -18 13 -10 47 -29 74 -42 28 -13 68 -40 91 -61 30 -27 48 -36 65 -32 32 6 79 -31 79 -61 0 -30 -30 -56 -63 -56 -18 0 -34 11 -52 34 -20 27 -35 35 -72 41 -65 10 -201 83 -219 117 -17 32 -66 61 -89 52 -10 -4 -29 8 -56 36 -22 23 -42 40 -44 38 -7 -6 165 -227 255 -327 174 -193 286 -271 454 -313 109 -27 184 -21 234 19 97 79 99 204 5 260 -59 34 -133 35 -200 2 -59 -30 -67 -60 -28 -108 32 -37 18 -41 -24 -5 -38 31 -50 84 -28 118 9 13 38 34 64 47 39 20 64 24 138 24 77 0 98 -4 146 -26 112 -53 179 -136 199 -247 13 -74 2 -145 -33 -207 -24 -43 -104 -103 -149 -112 -46 -9 -42 -21 14 -49 100 -51 223 -139 303 -219 93 -92 153 -196 204 -356 38 -120 51 -200 51 -310 0 -100 -11 -164 -52 -314 -47 -169 -96 -274 -164 -351 -33 -36 -79 -98 -102 -137 -24 -40 -59 -90 -77 -112 -17 -22 -56 -96 -85 -165 -93 -219 -191 -363 -346 -511 -118 -112 -198 -152 -374 -189 -71 -15 -85 -21 -84 -36 4 -69 96 -560 125 -661 20 -74 27 -92 147 -368 l69 -160 53 -29 c46 -25 55 -36 82 -95 28 -61 29 -70 20 -116 -10 -48 -9 -51 16 -73 15 -12 54 -36 87 -52 55 -26 65 -36 106 -107 77 -130 112 -226 116 -318 3 -54 0 -88 -9 -105 -26 -48 -47 -38 -171 84 l-117 116 6 -48 c21 -170 88 -622 109 -727 40 -198 87 -295 163 -334 71 -37 116 -111 128 -213 6 -51 3 -62 -39 -150 -27 -56 -56 -103 -72 -114 -27 -20 -27 -21 -16 -75 7 -31 9 -64 5 -75 -18 -47 -196 -302 -232 -331 -13 -11 226 -13 1201 -13 l1217 0 0 4250 0 4250 -1913 0 -1913 0 4 -33z"
       id="path6"
       style="fill:none" />
    <path
       d="M4545 8434 c-93 -28 -168 -84 -173 -129 -5 -39 6 -45 62 -33 41 8 58 7 112 -11 36 -12 66 -21 68 -21 2 0 6 39 10 88 4 48 10 97 13 110 6 26 10 26 -92 -4z"
       id="path8"
       style="fill:#1e90ff" />
    <path
       d="M4053 8278 l29 -66 43 18 c23 10 68 21 99 25 65 8 73 26 30 66 -24 22 -33 24 -128 24 l-103 0 30 -67z"
       id="path10"
       style="fill:#1e90ff" />
    <path
       d="M4415 8238 c-16 -5 -77 -10 -135 -11 -99 -2 -109 -4 -180 -39 -41 -20 -117 -69 -169 -109 -104 -79 -143 -99 -195 -99 -45 0 -77 28 -86 76 l-8 39 -1 -47 c-1 -39 3 -50 25 -67 14 -11 41 -23 60 -27 49 -9 42 -28 -20 -54 -30 -12 -72 -37 -94 -56 -41 -35 -82 -106 -81 -140 0 -17 1 -17 16 4 38 55 187 125 229 107 18 -7 18 -7 -1 -15 -11 -5 -46 -16 -77 -25 -104 -28 -159 -99 -159 -204 -1 -69 17 -115 61 -156 l32 -30 -9 30 c-17 62 -8 137 22 193 30 56 67 92 93 92 8 0 -2 -17 -27 -41 -63 -63 -89 -177 -57 -252 17 -41 74 -91 121 -107 45 -15 55 -7 27 23 -78 83 -83 274 -8 336 27 22 27 9 0 -46 -43 -87 -32 -181 32 -275 28 -40 68 -63 129 -73 l40 -6 -38 21 c-57 31 -90 90 -95 166 -6 90 5 148 33 178 l24 26 5 -32 c3 -18 7 -54 10 -80 6 -48 49 -148 64 -148 5 0 15 15 24 33 14 29 14 36 -4 77 -44 102 -41 217 6 263 31 32 65 84 58 91 -3 3 -16 6 -28 6 -32 0 -40 18 -10 26 33 8 82 -19 101 -56 9 -17 20 -28 24 -26 5 3 16 -22 26 -57 33 -118 65 -159 133 -169 43 -6 41 9 -6 63 -47 53 -59 74 -71 128 -11 51 -1 52 34 4 61 -83 139 -150 134 -115 -4 21 2 24 14 8 10 -13 20 -16 35 -12 27 9 27 14 1 45 -15 18 -23 21 -31 13 -7 -7 -16 -12 -20 -12 -13 0 -9 27 7 40 12 10 11 18 -11 61 -54 108 -145 174 -207 151 -40 -15 -49 -6 -17 20 30 24 79 18 131 -18 32 -22 40 -23 63 -13 20 10 35 10 66 0 32 -10 55 -30 117 -104 100 -122 114 -129 180 -102 l36 15 -33 23 c-19 12 -61 58 -94 102 -84 110 -142 145 -239 145 -23 0 -36 4 -32 10 11 18 118 11 160 -10 22 -11 43 -20 48 -20 15 0 57 105 57 145 0 48 -13 37 -30 -27 -11 -43 -53 -98 -65 -86 -3 3 6 25 19 49 36 66 41 104 17 128 -36 36 -116 49 -176 29z m-175 -147 c0 -5 -14 -14 -30 -21 -17 -7 -40 -26 -51 -41 -11 -16 -29 -29 -39 -29 -10 0 -20 -5 -22 -11 -3 -9 -9 -9 -25 0 -31 16 -58 14 -104 -10 l-40 -20 11 20 c17 33 67 54 109 46 33 -6 34 -5 16 8 -11 8 -29 16 -39 18 -29 6 -32 29 -4 29 28 0 88 -35 88 -52 0 -7 7 -2 16 11 29 41 114 80 114 52z"
       id="path12"
       style="fill:#ff8c00" />
    <path
       d="M4676 8118 c-4 -18 -19 -58 -35 -88 l-29 -55 30 -35 c28 -34 30 -34 44 -16 21 30 54 123 54 156 0 28 -29 70 -49 70 -5 0 -11 -15 -15 -32z"
       id="path14"
       style="fill:#00bfff" />
    <path
       d="M4756 8027 c-9 -32 -28 -78 -42 -103 -14 -25 -24 -50 -22 -55 2 -5 26 -20 55 -33 l51 -24 23 51 c27 65 31 150 7 174 -14 14 -18 14 -22 2 -2 -8 -12 -37 -21 -66 -15 -47 -60 -111 -71 -101 -2 3 7 25 20 49 27 48 51 130 44 151 -3 7 -13 -13 -22 -45z"
       id="path16"
       style="fill:#1e90ff" />
    <path
       d="M3657 7949 c7 -7 15 -10 18 -7 3 3 -2 9 -12 12 -14 6 -15 5 -6 -5z"
       id="path18"
       style="fill:none" />
    <path
       d="M4870 7932 c0 -16 -11 -50 -24 -75 l-23 -47 32 0 c32 0 85 37 85 60 0 15 -51 90 -61 90 -5 0 -9 -13 -9 -28z"
       id="path20"
       style="fill:#00bfff" />
    <path
       d="M4387 7914 c-7 -7 46 -94 70 -116 10 -9 36 -18 58 -20 22 -3 49 -9 59 -13 24 -11 -61 103 -100 134 -25 20 -74 28 -87 15z"
       id="path22"
       style="fill:#ff4500" />
    <path
       d="M4949 7824 c-20 -24 -64 -44 -101 -45 -18 -1 -25 -3 -16 -6 14 -3 12 -9 -14 -32 l-31 -28 158 -279 c87 -153 161 -283 165 -287 4 -5 26 1 49 12 47 24 49 12 -25 136 -90 151 -254 449 -254 462 0 31 21 3 115 -155 81 -136 231 -360 264 -394 7 -8 71 12 71 22 0 3 -41 57 -92 120 -132 166 -227 320 -198 320 6 0 48 -57 94 -127 85 -130 207 -287 238 -307 32 -20 32 4 0 42 -81 95 -181 227 -252 332 -151 226 -156 232 -171 214z"
       id="path24"
       style="fill:#ff8c00" />
    <path
       d="M4078 7783 c-24 -54 -21 -125 7 -185 16 -32 23 -36 68 -42 66 -9 75 2 44 56 -14 23 -37 82 -51 131 -15 48 -31 87 -37 87 -6 0 -19 -21 -31 -47z"
       id="path26"
       style="fill:#ff4500" />
    <path
       d="M4768 7788 c5 -5 16 -8 23 -6 8 3 3 7 -10 11 -17 4 -21 3 -13 -5z"
       id="path28"
       style="fill:none" />
    <path
       d="M4020 7655 c0 -62 30 -142 57 -152 25 -10 25 4 -1 54 -14 27 -30 70 -35 96 -12 69 -21 69 -21 2z"
       id="path30"
       style="fill:#ff4500" />
    <path
       d="M4704 7656 c-10 -8 -16 -18 -12 -22 4 -4 15 -1 24 7 16 13 17 11 11 -13 -6 -21 -4 -26 7 -22 9 4 14 -3 14 -21 0 -33 13 -48 35 -39 15 5 14 11 -10 55 -34 64 -45 72 -69 55z"
       id="path32"
       style="fill:#ffdab9" />
    <path
       d="M4466 7561 c-21 -15 -46 -41 -54 -57 -15 -28 -15 -28 -25 -7 -12 28 -45 26 -79 -6 -32 -28 -36 -44 -10 -39 9 1 18 -2 20 -7 2 -6 -22 -14 -54 -19 -54 -9 -120 -2 -168 19 -18 8 -18 7 -2 -17 25 -38 70 -54 117 -41 55 15 52 -9 -6 -42 -33 -20 -64 -28 -121 -32 -55 -4 -71 -9 -59 -15 9 -6 32 -7 51 -4 27 6 34 4 34 -9 0 -19 9 -19 34 0 34 26 173 17 162 -10 -3 -8 2 -16 10 -19 25 -10 6 -24 -42 -32 -35 -5 -50 -14 -71 -41 -24 -31 -28 -33 -39 -19 -6 9 -14 16 -18 16 -6 0 40 -69 92 -137 31 -42 110 -80 192 -93 110 -17 126 -14 174 30 47 43 129 157 165 228 14 28 33 48 53 56 23 10 26 15 14 19 -25 10 -20 46 9 57 32 12 32 28 0 40 -29 11 -39 43 -27 85 6 19 5 37 -2 50 -6 11 -12 21 -12 23 -4 9 -64 -36 -68 -50 -7 -29 -22 -21 -41 23 -17 36 -60 79 -81 79 -5 0 2 -7 15 -16 30 -21 61 -89 61 -135 0 -29 5 -38 23 -43 l22 -7 -22 -16 c-13 -8 -23 -22 -23 -30 0 -8 -6 -13 -12 -10 -7 2 -29 -4 -48 -15 -19 -10 -45 -18 -58 -18 -19 0 -22 4 -17 21 5 15 0 29 -18 47 -53 55 -71 137 -42 192 9 17 14 30 13 29 -2 0 -21 -13 -42 -28z m-107 -295 c8 -13 11 -29 7 -34 -3 -6 -2 -13 4 -17 5 -3 10 -13 10 -20 0 -12 -5 -12 -23 -4 -20 9 -24 18 -23 55 1 50 7 55 25 20z m177 -63 c-2 -10 -8 -47 -11 -83 -13 -121 -37 -129 -119 -38 -31 34 -56 65 -56 69 0 18 119 66 168 68 18 1 22 -3 18 -16z"
       id="path34"
       style="fill:#ffdab9" />
    <path
       d="M4438 7174 c-26 -8 -50 -19 -54 -25 -7 -12 73 -99 92 -99 16 0 23 20 30 86 8 61 7 61 -68 38z"
       id="path36"
       style="fill:#ff6347" />
    <path
       d="M4544 7524 c-4 -14 -2 -37 5 -50 25 -57 78 -32 60 28 -15 52 -54 65 -65 22z"
       id="path38"
       style="fill:#4169e1" />
    <path
       d="M4511 7493 c-1 -37 18 -85 31 -77 5 3 2 16 -6 28 -8 13 -16 36 -19 52 l-4 29 -2 -32z"
       id="path40"
       style="fill:#191970" />
    <path
       d="M3916 7460 c9 -48 29 -86 56 -104 38 -27 44 -18 11 17 -18 17 -41 52 -53 77 -20 43 -21 44 -14 10z"
       id="path42"
       style="fill:#ff4500" />
    <path
       d="M4641 7471 c-1 -14 -10 -34 -21 -46 -12 -13 -17 -28 -13 -43 8 -32 22 -27 39 15 12 28 13 44 6 67 -9 28 -10 29 -11 7z"
       id="path44"
       style="fill:#191970" />
    <path
       d="M3881 7464 c-1 -37 30 -111 56 -135 l27 -24 -24 33 c-12 19 -31 59 -41 90 -10 32 -18 48 -18 36z"
       id="path46"
       style="fill:#ff4500" />
    <path
       d="M4892 7330 c-6 -11 -12 -22 -12 -25 0 -11 20 6 30 26 14 25 -2 25 -18 -1z"
       id="path48"
       style="fill:#cd853f" />
    <path
       d="M6199 7215 c47 -54 58 -104 37 -171 -34 -107 -137 -172 -255 -161 -128 12 -299 96 -432 214 -40 35 -76 63 -81 63 -23 0 1 -27 95 -105 128 -108 235 -180 394 -263 117 -60 128 -64 173 -59 73 9 156 52 190 99 16 22 34 64 40 94 24 116 -19 213 -128 292 -59 42 -72 41 -33 -3z"
       id="path50"
       style="fill:#ff8c00" />
    <path
       d="M3920 7183 c-33 -171 -79 -291 -148 -388 -149 -210 -455 -447 -679 -526 -71 -26 -212 -36 -271 -20 -57 16 -107 62 -128 118 l-18 47 -13 -50 c-31 -120 -6 -256 53 -282 35 -17 135 -15 205 3 83 22 213 80 352 157 64 37 117 63 117 59 0 -31 -279 -186 -422 -235 -179 -61 -297 -37 -337 69 l-11 30 5 -35 c17 -114 148 -155 310 -97 39 13 112 43 164 66 52 22 98 41 103 41 25 0 -16 -27 -125 -82 -630 -315 -903 -478 -1074 -642 -150 -143 -237 -277 -249 -384 l-5 -47 24 57 c13 31 40 78 60 105 48 66 186 198 277 265 127 95 559 349 922 543 175 93 187 102 188 128 0 51 126 155 314 260 42 23 143 88 224 144 138 95 151 107 195 177 99 156 167 320 167 403 0 18 -9 38 -21 49 -24 22 -59 86 -59 109 0 8 -9 15 -20 15 -17 0 -20 -7 -20 -49 0 -69 -27 -214 -54 -293 -47 -134 -177 -308 -324 -434 -42 -36 -87 -73 -100 -82 -39 -26 -36 -5 4 30 161 137 287 285 351 411 42 84 82 233 90 340 6 73 5 77 -15 77 -17 0 -22 -10 -32 -57z"
       id="path52"
       style="fill:#ff8c00" />
    <path
       d="M4805 7210 c-34 -38 -34 -151 1 -258 25 -74 29 -103 29 -199 0 -102 2 -113 23 -135 12 -14 22 -37 22 -54 0 -39 25 -73 66 -90 52 -22 95 -17 165 19 61 31 64 34 71 77 10 56 2 63 -93 79 -70 11 -73 11 -111 -14 -29 -19 -38 -32 -36 -48 4 -25 62 -67 92 -66 17 0 15 3 -11 16 -31 15 -44 33 -25 33 20 0 102 -33 111 -44 8 -10 1 -16 -30 -26 -39 -13 -44 -13 -97 16 -64 33 -66 36 -82 124 -17 93 -14 170 8 199 21 29 141 81 186 81 24 1 36 8 51 32 11 17 83 76 160 130 77 54 141 102 143 107 6 18 -32 21 -94 6 -108 -25 -134 -41 -234 -145 -75 -78 -104 -101 -138 -111 -30 -9 -49 -10 -60 -3 -28 17 -63 99 -74 171 -5 37 -13 81 -16 97 l-7 28 -20 -22z"
       id="path54"
       style="fill:#e9967a" />
    <path
       d="M5401 7109 c-13 -11 -31 -24 -39 -28 -12 -7 6 -34 92 -132 186 -213 411 -434 591 -579 307 -248 389 -359 470 -640 59 -207 69 -421 25 -562 l-19 -63 34 40 c68 80 115 193 169 411 34 134 41 224 27 322 -30 208 -113 401 -219 513 -119 127 -169 160 -506 336 -240 125 -374 212 -508 327 -48 42 -89 76 -90 76 -2 -1 -14 -10 -27 -21z"
       id="path56"
       style="fill:#d2691e" />
    <path
       d="M4146 7023 c-10 -75 -39 -152 -98 -261 -66 -120 -67 -122 -35 -93 14 13 29 36 32 50 3 15 24 50 47 77 44 52 108 179 108 213 0 12 -7 21 -15 21 -9 0 -19 10 -24 22 -6 18 -9 12 -15 -29z"
       id="path58"
       style="fill:#ff4500" />
    <path
       d="M5375 6979 c352 -445 401 -502 581 -690 231 -241 376 -472 441 -705 26 -92 28 -112 27 -279 0 -145 -5 -200 -22 -282 -12 -55 -22 -105 -22 -110 1 -18 71 104 100 173 44 106 60 178 60 269 0 301 -105 602 -273 782 -34 36 -134 125 -222 196 -197 161 -373 331 -562 547 -154 175 -205 221 -108 99z"
       id="path60"
       style="fill:#ff4500" />
    <path
       d="M5254 7006 c-16 -14 -24 -26 -17 -26 22 0 74 -53 98 -99 26 -53 45 -145 43 -206 -2 -33 5 -50 39 -95 47 -63 296 -455 365 -575 223 -390 335 -780 313 -1090 -22 -309 -126 -579 -289 -752 -43 -46 -75 -83 -71 -83 4 0 35 15 69 33 84 44 245 207 325 328 110 165 191 354 238 549 36 152 43 396 15 530 -33 162 -133 370 -258 536 -32 43 -125 147 -205 231 -81 83 -178 191 -215 239 -210 265 -400 498 -410 501 -7 2 -25 -7 -40 -21z"
       id="path62"
       style="fill:#d2691e" />
    <path
       d="M4410 6900 c0 -11 5 -20 10 -20 6 0 10 9 10 20 0 11 -4 20 -10 20 -5 0 -10 -9 -10 -20z"
       id="path64"
       style="fill:none" />
    <path
       d="M4995 6861 c-64 -29 -85 -57 -85 -111 0 -38 9 -38 46 1 50 53 71 59 168 51 77 -7 87 -6 92 10 13 43 -41 78 -120 78 -23 -1 -68 -13 -101 -29z"
       id="path66"
       style="fill:#e9967a" />
    <path
       d="M4667 6831 c-21 -10 -50 -30 -65 -44 -38 -37 -58 -35 -31 3 13 16 20 32 17 35 -3 3 -26 -21 -51 -55 -34 -44 -48 -73 -52 -108 -4 -26 -9 -56 -11 -67 -3 -13 6 -6 28 20 18 22 75 84 127 138 52 53 91 97 85 96 -5 0 -26 -9 -47 -18z"
       id="path68"
       style="fill:#9932cc" />
    <path
       d="M4979 6732 c-28 -28 -49 -58 -49 -71 0 -22 14 -28 26 -10 17 29 64 36 142 23 42 -8 79 -10 83 -6 14 15 31 84 23 92 -5 4 -46 11 -92 15 l-83 6 -50 -49z"
       id="path70"
       style="fill:#e9967a" />
    <path
       d="M4145 6655 c-4 -48 -4 -123 -1 -168 10 -114 10 -114 -9 -195 -9 -41 -14 -76 -10 -80 7 -7 84 34 168 91 45 30 57 43 51 55 -17 39 -16 106 2 139 17 33 17 35 -4 78 -38 78 -102 139 -169 159 -20 6 -21 3 -28 -79z"
       id="path72"
       style="fill:#7b68ee" />
    <path
       d="M4721 6674 c-69 -18 -161 -67 -197 -105 -28 -29 -28 -29 -11 -64 30 -63 18 -132 -29 -171 -11 -9 4 -30 70 -104 46 -51 87 -93 92 -94 24 -4 57 188 34 196 -5 2 22 66 62 143 64 125 70 144 64 178 -8 41 -9 42 -85 21z"
       id="path74"
       style="fill:#7b68ee" />
    <path
       d="M3999 6613 c-13 -9 -91 -64 -174 -123 -82 -59 -195 -133 -250 -165 -215 -123 -342 -222 -317 -247 7 -7 28 4 62 31 60 47 117 74 189 90 74 16 115 -3 142 -64 24 -53 6 -59 204 68 l130 83 -1 80 c-1 43 -3 88 -5 99 -3 15 2 21 22 23 15 2 35 12 44 22 16 17 16 25 5 65 -15 55 -20 59 -51 38z"
       id="path76"
       style="fill:#e9967a" />
    <path
       d="M5382 6570 c12 -16 23 -30 25 -30 2 0 -4 14 -14 30 -9 17 -21 30 -25 30 -5 0 1 -13 14 -30z"
       id="path78"
       style="fill:#cd853f" />
    <path
       d="M4822 6570 c-5 -14 -24 -56 -41 -93 -33 -71 -33 -87 -1 -87 50 0 170 -24 170 -34 0 -6 -64 -74 -141 -152 l-141 -142 116 -27 c64 -14 123 -25 132 -23 14 3 213 367 214 391 0 4 -13 7 -30 7 -34 0 -106 16 -168 37 -45 16 -57 31 -83 103 -16 44 -17 44 -27 20z"
       id="path80"
       style="fill:#da70d6" />
    <path
       d="M5305 6525 l-37 -45 67 -157 c100 -237 165 -436 190 -585 l6 -37 114 2 c124 2 142 -4 127 -44 -5 -13 -13 -51 -17 -85 l-7 -60 41 -18 c22 -10 49 -28 61 -41 l20 -21 -60 -105 c-60 -105 -69 -134 -50 -169 18 -34 0 -68 -86 -159 -66 -71 -84 -97 -89 -128 -21 -138 -67 -290 -121 -399 l-57 -115 22 -107 c13 -59 24 -109 27 -111 7 -7 114 79 183 149 136 136 233 315 272 503 62 304 48 606 -42 871 -67 198 -282 583 -456 819 -36 48 -66 87 -68 87 -1 0 -19 -20 -40 -45z"
       id="path82"
       style="fill:#d2691e" />
    <path
       d="M5217 6456 c-16 -12 -14 -19 27 -92 86 -151 144 -353 168 -578 7 -64 16 -116 20 -116 3 0 18 4 32 10 21 7 26 16 26 42 0 48 -43 216 -89 348 -42 121 -147 380 -159 392 -4 4 -15 1 -25 -6z"
       id="path84"
       style="fill:#ff4500" />
    <path
       d="M4015 6340 c6 -59 65 -192 110 -245 l25 -30 -15 44 c-9 24 -20 50 -25 56 -6 7 -17 34 -25 61 -9 27 -29 76 -45 109 l-30 60 5 -55z"
       id="path86"
       style="fill:#9932cc" />
    <path
       d="M5144 6347 c-15 -31 -14 -36 16 -111 51 -131 70 -226 70 -364 l0 -122 55 36 c30 20 55 43 55 51 0 36 -44 226 -71 306 -31 94 -94 237 -104 237 -3 0 -12 -15 -21 -33z"
       id="path88"
       style="fill:#cd853f" />
    <path
       d="M4726 6346 c-3 -12 -6 -37 -6 -57 0 -20 -9 -62 -20 -94 -11 -32 -19 -60 -17 -61 2 -2 49 43 105 99 l103 103 -80 15 c-78 15 -80 15 -85 -5z"
       id="path90"
       style="fill:#9932cc" />
    <path
       d="M4291 6183 c-93 -153 -110 -175 -122 -167 -5 3 -9 -2 -9 -11 0 -14 3 -14 28 -1 16 8 66 46 113 85 50 42 93 71 107 71 12 0 41 -9 62 -20 22 -11 40 -18 40 -14 0 15 -82 179 -93 186 -30 19 -46 2 -126 -129z"
       id="path92"
       style="fill:#9932cc" />
    <path
       d="M5055 6183 c-102 -212 -95 -190 -85 -268 5 -39 12 -86 16 -105 l6 -35 15 30 c33 65 157 166 183 150 25 -15 3 102 -47 248 -15 42 -30 77 -34 77 -4 0 -29 -44 -54 -97z"
       id="path94"
       style="fill:#cd853f" />
    <path
       d="M4265 6251 c-16 -10 -51 -30 -77 -45 l-47 -26 15 -48 c9 -26 18 -53 20 -61 3 -9 18 8 40 43 36 60 86 156 82 156 -2 0 -16 -9 -33 -19z"
       id="path96"
       style="fill:#9932cc" />
    <path
       d="M3839 6157 c-139 -88 -155 -101 -151 -122 5 -30 106 -200 118 -200 16 1 103 137 162 252 54 107 56 112 42 140 l-15 29 -156 -99z"
       id="path98"
       style="fill:#ff4500" />
    <path
       d="M4500 6238 c0 -4 16 -44 36 -90 19 -46 38 -91 42 -101 6 -16 11 -14 39 15 l33 34 -75 74 c-41 41 -75 71 -75 68z"
       id="path100"
       style="fill:#9932cc" />
    <path
       d="M3472 6160 c-29 -10 -67 -28 -85 -39 -100 -62 -173 -198 -116 -216 11 -4 22 -5 23 -3 1 1 14 24 29 49 46 80 155 165 250 194 l42 13 -28 11 c-38 15 -53 14 -115 -9z"
       id="path102"
       style="fill:#00ff00" />
    <path
       d="M3983 6057 c-45 -88 -90 -161 -148 -242 -13 -19 -11 -26 28 -85 24 -36 57 -84 74 -108 l32 -43 14 23 c8 13 47 84 87 157 l73 135 -10 72 c-8 55 -19 86 -49 133 -22 33 -41 61 -44 61 -3 0 -28 -46 -57 -103z"
       id="path104"
       style="fill:#ff4500" />
    <path
       d="M4326 6064 c-43 -36 -97 -74 -119 -85 l-39 -21 6 -57 c9 -78 54 -320 63 -334 11 -19 149 -180 170 -199 18 -17 23 -15 113 45 161 107 215 137 342 192 81 35 122 58 119 67 -14 49 -31 144 -37 205 -4 40 -12 79 -18 87 -6 7 -53 21 -104 30 -52 9 -112 23 -135 31 -41 14 -42 14 -74 -17 -39 -38 -58 -32 -67 22 -6 40 -10 43 -71 71 -36 16 -66 29 -67 29 -2 0 -39 -30 -82 -66z"
       id="path106"
       style="fill:#da70d6" />
    <path
       d="M3514 6090 c-102 -51 -194 -157 -194 -224 0 -42 18 -39 38 6 10 24 42 65 71 91 50 47 159 107 194 107 18 0 21 8 11 34 -9 24 -54 19 -120 -14z"
       id="path108"
       style="fill:#00fa9a" />
    <path
       d="M3542 6009 c-69 -34 -157 -123 -167 -168 -7 -33 8 -71 29 -71 8 0 16 16 20 40 8 52 107 160 176 192 27 13 49 26 50 31 0 16 -50 5 -108 -24z"
       id="path110"
       style="fill:#00fa9a" />
    <path
       d="M2940 5867 c-466 -258 -681 -390 -836 -515 -221 -178 -341 -349 -318 -456 6 -28 49 -86 64 -86 3 0 13 15 22 33 28 59 165 232 256 323 261 263 487 439 887 689 121 76 223 142 227 149 10 14 10 26 1 26 -5 0 -141 -74 -303 -163z"
       id="path112"
       style="fill:#ff4500" />
    <path
       d="M5750 5991 c0 -6 4 -13 10 -16 6 -3 7 1 4 9 -7 18 -14 21 -14 7z"
       id="path114"
       style="fill:none" />
    <path
       d="M3613 5975 c-43 -18 -125 -96 -149 -140 l-19 -35 156 -156 156 -156 89 11 c149 20 143 11 71 105 -62 82 -150 213 -219 325 -20 34 -41 61 -45 61 -4 -1 -23 -7 -40 -15z"
       id="path116"
       style="fill:#e9967a" />
    <path
       d="M5816 5863 c142 -305 185 -562 149 -883 -37 -330 -110 -504 -294 -693 -36 -38 -97 -94 -135 -124 -67 -55 -68 -56 -63 -95 3 -22 8 -42 11 -45 3 -3 39 2 80 12 86 19 166 71 234 153 265 321 341 823 195 1286 -14 44 -41 119 -60 166 -38 91 -150 320 -157 320 -3 0 15 -43 40 -97z"
       id="path118"
       style="fill:#ff4500" />
    <path
       d="M2952 5777 c-314 -201 -409 -271 -592 -434 -210 -187 -380 -374 -445 -488 -16 -30 -16 -30 2 -5 148 200 283 322 654 588 107 76 280 194 384 261 105 68 210 137 235 154 25 17 46 31 47 32 5 3 -22 55 -27 54 -3 0 -119 -73 -258 -162z"
       id="path120"
       style="fill:#ff4500" />
    <path
       d="M5125 5892 c-55 -40 -81 -71 -100 -114 -33 -79 -7 -124 70 -120 50 2 75 -16 75 -53 0 -13 5 -27 11 -30 18 -12 23 4 8 32 -8 18 -15 79 -19 171 l-5 144 -40 -30z"
       id="path122"
       style="fill:#cd853f" />
    <path
       d="M3125 5778 c-77 -51 -219 -144 -315 -207 -96 -63 -244 -166 -329 -229 -362 -270 -531 -448 -606 -637 -55 -140 -18 -294 98 -409 29 -28 77 -63 108 -78 61 -30 165 -51 224 -46 l38 3 2 120 c3 145 30 245 105 398 93 186 224 363 460 622 134 148 382 393 425 421 33 21 32 38 -5 64 -16 12 -33 32 -36 46 -3 13 -11 24 -18 24 -6 0 -74 -42 -151 -92z"
       id="path124"
       style="fill:#d2691e" />
    <path
       d="M5285 5749 c-38 -27 -74 -54 -79 -59 -9 -9 18 -95 34 -105 5 -3 33 7 63 21 52 26 55 29 61 72 8 61 8 122 -1 121 -5 0 -39 -23 -78 -50z"
       id="path126"
       style="fill:#cd853f" />
    <path
       d="M3295 5661 c-252 -221 -589 -681 -723 -986 -17 -39 -43 -111 -57 -160 -23 -77 -26 -103 -22 -175 11 -183 79 -368 158 -432 62 -50 139 -71 271 -71 65 -1 120 2 124 5 3 4 -3 20 -15 36 -109 154 -122 486 -29 757 56 164 160 366 294 572 l72 112 -31 25 c-38 30 -29 42 43 52 40 6 56 17 140 101 l95 94 -80 75 c-109 101 -120 101 -240 -5z"
       id="path128"
       style="fill:#d2691e" />
    <path
       d="M5560 5674 c-57 -9 -111 -28 -215 -77 -77 -36 -123 -52 -152 -52 -24 0 -43 -3 -43 -6 0 -3 15 -12 33 -21 24 -12 38 -13 52 -6 11 7 112 11 251 12 l233 1 6 45 c4 25 10 57 15 72 5 14 6 29 3 32 -7 6 -141 6 -183 0z"
       id="path130"
       style="fill:#dda0dd" />
    <path
       d="M5006 5633 c-43 -11 -243 -105 -314 -148 -42 -25 -117 -75 -165 -110 -49 -36 -95 -65 -102 -65 -26 0 -225 236 -225 266 0 19 -19 18 -26 -1 -10 -25 16 -74 79 -152 61 -76 155 -163 176 -163 7 0 67 33 134 73 133 80 301 174 414 231 39 19 75 41 79 47 6 10 -13 30 -26 28 -3 -1 -13 -3 -24 -6z"
       id="path132"
       style="fill:#da70d6" />
    <path
       d="M3565 5499 c-53 -55 -64 -70 -45 -64 14 4 61 17 105 28 44 12 82 23 85 25 2 1 -14 21 -36 42 l-39 40 -70 -71z"
       id="path134"
       style="fill:#ff4500" />
    <path
       d="M4915 5502 c-135 -71 -338 -191 -415 -246 -46 -33 -54 -53 -20 -48 10 2 21 -2 25 -8 5 -8 12 -4 22 9 21 30 68 28 89 -4 13 -20 20 -23 30 -14 8 6 20 9 28 6 8 -3 18 4 24 19 13 28 56 41 77 24 12 -10 16 -9 21 5 8 19 -1 130 -12 159 -5 14 -3 17 7 14 13 -4 20 -26 36 -108 4 -22 6 -23 14 -7 6 9 21 17 34 17 30 0 71 38 67 61 -3 18 42 59 63 59 14 0 25 22 25 51 0 10 11 29 25 41 14 12 25 25 25 30 0 19 -43 3 -165 -60z"
       id="path136"
       style="fill:#dda0dd" />
    <path
       d="M5140 5488 c0 -32 -9 -42 -52 -63 -32 -14 -37 -21 -32 -40 7 -27 -25 -65 -53 -65 -26 -1 -56 -30 -68 -65 -6 -16 -21 -35 -33 -41 -20 -10 -21 -13 -7 -24 8 -7 15 -18 15 -24 0 -16 38 -49 72 -64 17 -7 30 -22 34 -39 4 -15 14 -33 22 -39 8 -6 13 -19 10 -30 -4 -24 -48 -32 -60 -10 -5 9 -19 16 -31 16 -29 0 -47 18 -47 46 0 27 -17 42 -55 46 l-29 3 -13 -104 c-8 -57 -12 -105 -10 -108 2 -2 51 12 109 32 140 47 286 65 352 43 l46 -15 0 51 c0 121 -63 276 -145 360 -56 58 -52 71 6 25 92 -73 157 -216 166 -370 5 -73 2 -92 -16 -133 -11 -27 -21 -51 -21 -54 0 -2 22 -2 50 0 86 8 173 60 275 163 111 112 124 134 101 169 -22 34 -155 147 -236 201 -37 24 -111 59 -170 80 -58 20 -120 45 -138 56 -41 24 -42 24 -42 -3z"
       id="path138"
       style="fill:#dda0dd" />
    <path
       d="M5330 5493 l-75 -4 70 -23 c122 -40 235 -109 346 -213 l47 -44 21 46 c11 26 37 74 57 106 20 33 33 67 30 75 -3 8 -27 25 -53 37 -42 19 -67 21 -208 23 -88 0 -194 -1 -235 -3z"
       id="path140"
       style="fill:#d8bfd8" />
    <path
       d="M3969 5485 c-3 -2 -66 -12 -140 -20 -83 -10 -191 -32 -284 -57 -82 -23 -152 -43 -154 -45 -3 -2 6 -11 20 -20 13 -9 47 -41 75 -71 l51 -54 89 45 c126 64 281 123 412 157 48 12 54 30 17 54 -23 15 -76 22 -86 11z"
       id="path142"
       style="fill:#dda0dd" />
    <path
       d="M3915 5351 c-77 -26 -187 -71 -245 -100 -112 -57 -222 -129 -215 -141 2 -4 45 -24 95 -45 51 -20 114 -53 142 -71 l50 -34 97 98 c53 54 144 136 203 181 l108 84 -25 19 c-14 11 -25 28 -25 39 0 28 -26 24 -185 -30z"
       id="path144"
       style="fill:#d8bfd8" />
    <path
       d="M4237 5353 c-18 -18 -5 -33 29 -33 30 0 37 -5 49 -32 15 -37 50 -64 61 -47 3 6 4 12 3 13 -2 2 -30 26 -62 54 -57 52 -68 58 -80 45z"
       id="path146"
       style="fill:#da70d6" />
    <path
       d="M3341 5227 c-83 -124 -132 -207 -207 -359 -97 -192 -141 -326 -161 -486 -15 -114 -15 -134 0 -239 25 -179 81 -284 175 -330 47 -23 73 -28 153 -31 83 -4 112 0 191 22 98 28 321 133 313 146 -3 5 -42 -11 -88 -35 -114 -60 -169 -77 -256 -77 -62 1 -84 6 -136 31 -170 84 -254 274 -242 550 4 103 12 148 41 251 61 217 137 385 247 547 37 55 45 72 34 77 -10 4 -31 -18 -64 -67z"
       id="path148"
       style="fill:#ff4500" />
    <path
       d="M4085 5234 c-117 -95 -280 -259 -326 -328 l-40 -60 53 -13 c68 -18 76 -23 195 -136 55 -52 113 -102 130 -110 77 -40 162 -29 212 28 42 48 39 68 -11 103 -66 45 -83 69 -82 111 1 41 61 173 117 260 29 45 33 58 24 80 -6 16 -18 27 -31 28 -69 5 -116 31 -116 64 0 15 -27 40 -42 39 -2 0 -39 -30 -83 -66z"
       id="path150"
       style="fill:#dda0dd" />
    <path
       d="M3378 5172 c-121 -186 -205 -392 -234 -573 -15 -90 -15 -121 -5 -228 19 -200 67 -321 157 -400 97 -85 251 -93 418 -21 l50 21 -52 52 c-31 31 -64 80 -84 122 -30 64 -33 80 -36 192 -6 166 27 373 88 547 11 33 20 60 20 62 0 9 -109 68 -173 93 -43 17 -90 39 -104 48 l-26 17 47 41 c25 23 46 47 46 53 0 19 -31 62 -44 62 -6 0 -37 -40 -68 -88z"
       id="path152"
       style="fill:#d2691e" />
    <path
       d="M2784 5132 c-218 -262 -339 -468 -390 -667 -45 -175 -22 -367 54 -456 33 -39 152 -109 152 -90 0 6 -5 13 -10 16 -21 13 -73 132 -97 224 -38 140 -37 275 1 391 55 167 179 400 308 580 96 134 92 134 -18 2z"
       id="path154"
       style="fill:#ff4500" />
    <path
       d="M4501 5151 c-7 -4 -23 -6 -35 -4 -13 3 -27 0 -30 -6 -4 -6 -16 -11 -26 -11 -13 0 -33 -23 -62 -72 -51 -88 -91 -169 -85 -174 2 -2 19 4 38 13 77 40 274 13 360 -48 17 -12 32 -19 34 -17 9 8 36 155 42 224 5 66 4 73 -15 83 -16 9 -26 8 -41 -1 -16 -10 -23 -9 -38 5 -18 15 -19 15 -31 -3 -16 -26 -66 -26 -84 -1 -9 12 -19 17 -27 12z"
       id="path156"
       style="fill:#dda0dd" />
    <path
       d="M4781 5142 c-6 -12 -11 -33 -11 -47 0 -15 -11 -91 -26 -169 -25 -143 -50 -213 -98 -275 -33 -44 -24 -51 65 -51 113 0 245 36 236 64 -2 6 -39 30 -82 52 -99 52 -108 65 -101 129 24 213 34 310 31 313 -2 2 -8 -5 -14 -16z"
       id="path158"
       style="fill:#d8bfd8" />
    <path
       d="M5074 4915 c-129 -23 -251 -67 -269 -95 -11 -18 24 -48 97 -87 38 -20 74 -45 79 -55 24 -45 -86 -105 -213 -115 -39 -3 -68 -11 -68 -17 0 -6 35 -92 79 -191 43 -99 129 -297 191 -440 62 -143 155 -357 207 -475 120 -272 147 -338 178 -450 27 -94 51 -163 158 -445 59 -156 254 -742 326 -980 44 -146 78 -289 91 -380 6 -44 13 -90 16 -103 l4 -22 58 29 c31 16 72 42 91 58 l34 29 -21 89 c-21 93 -72 416 -118 755 -46 344 -145 678 -301 1015 -95 206 -114 277 -198 745 -76 425 -232 1051 -281 1128 -17 25 -35 26 -140 7z"
       id="path160"
       style="fill:#9370db" />
    <path
       d="M4313 4865 c-68 -29 -65 -88 5 -124 53 -27 75 -55 66 -83 -13 -42 -47 -78 -98 -103 -78 -39 -150 -31 -240 25 -27 17 -49 30 -51 28 -3 -4 -95 -474 -124 -633 -37 -199 -91 -656 -91 -766 0 -97 2 -107 23 -126 50 -46 146 -83 383 -148 368 -99 966 -310 1238 -434 38 -18 70 -30 72 -28 2 2 -18 59 -45 127 l-48 123 -45 12 c-50 12 -69 25 -224 146 -364 285 -607 401 -887 424 -76 6 -87 10 -82 24 81 207 415 1233 415 1274 0 6 -25 72 -56 145 l-56 132 -61 0 c-34 -1 -77 -7 -94 -15z"
       id="path162"
       style="fill:#9370db" />
    <path
       d="M5537 4872 c-5 -7 -30 -23 -57 -37 -39 -20 -50 -31 -55 -57 -4 -18 -22 -70 -41 -115 l-35 -81 21 -84 c12 -45 23 -84 25 -86 5 -6 62 103 89 171 31 79 68 239 64 276 -2 18 -6 22 -11 13z"
       id="path164"
       style="fill:#ff4500" />
    <path
       d="M3691 4783 c-15 -14 -26 -48 -45 -143 -46 -234 -43 -373 11 -492 27 -60 95 -133 151 -162 31 -16 32 -16 32 5 0 12 -13 43 -30 69 -37 57 -63 133 -80 226 -17 98 -7 314 19 419 12 44 21 83 21 88 0 14 -58 7 -79 -10z"
       id="path166"
       style="fill:#ff4500" />
    <path
       d="M5370 4777 c0 -13 -9 -49 -19 -80 -11 -32 -16 -57 -12 -57 5 0 18 26 29 58 34 93 35 102 18 102 -10 0 -16 -9 -16 -23z"
       id="path168"
       style="fill:#ff4500" />
    <path
       d="M1860 4760 c-6 -11 -8 -20 -6 -20 3 0 10 9 16 20 6 11 8 20 6 20 -3 0 -10 -9 -16 -20z"
       id="path170" />
    <path
       d="M3792 4743 c-43 -147 -54 -346 -27 -481 15 -75 68 -202 84 -202 5 0 11 19 15 43 3 23 27 156 53 295 l47 253 -50 50 c-41 42 -91 79 -107 79 -2 0 -9 -17 -15 -37z"
       id="path172"
       style="fill:#d2691e" />
    <path
       d="M4577 4468 c-20 -62 -57 -185 -83 -273 -25 -88 -61 -208 -79 -267 -38 -123 -41 -117 57 -97 87 18 189 73 249 133 50 50 109 146 109 178 0 28 -188 433 -202 436 -11 2 -25 -28 -51 -110z"
       id="path174"
       style="fill:#d2691e" />
    <path
       d="M4835 4059 c-31 -69 -131 -164 -216 -205 -77 -36 -58 -38 35 -4 74 28 154 87 194 143 33 46 34 50 21 79 l-15 30 -19 -43z"
       id="path176"
       style="fill:#ff4500" />
    <path
       d="M4840 3941 c-64 -65 -150 -113 -233 -132 -79 -17 -54 -29 63 -29 96 0 205 12 272 31 l37 9 -38 85 c-21 47 -40 87 -42 88 -2 2 -29 -21 -59 -52z"
       id="path178"
       style="fill:#ff4500" />
    <path
       d="M4369 3744 c-6 -16 -30 -83 -54 -150 -25 -66 -54 -142 -65 -168 -26 -63 -26 -76 5 -76 14 0 61 -7 103 -15 249 -51 480 -173 792 -418 122 -96 214 -156 225 -145 10 10 -99 340 -159 479 -213 493 -224 514 -253 513 -15 0 -92 -7 -171 -14 -138 -14 -233 -9 -379 17 -29 5 -34 2 -44 -23z"
       id="path180"
       style="fill:none" />
    <path
       d="M5943 2448 c11 -31 37 -130 53 -207 16 -78 39 -121 63 -121 15 0 24 77 16 138 -12 105 -21 125 -75 165 -53 39 -65 45 -57 25z"
       id="path182"
       style="fill:#4b0082" />
    <path
       d="M6101 2323 c11 -68 11 -215 -1 -233 -7 -12 9 -34 73 -97 45 -46 87 -83 94 -83 25 0 21 99 -9 190 -37 117 -126 270 -156 270 -5 0 -5 -21 -1 -47z"
       id="path184"
       style="fill:#483d8b" />
    <path
       d="M6098 1113 c-19 -16 -63 -41 -97 -58 l-63 -30 5 -38 c3 -21 8 -41 11 -44 11 -12 84 17 128 51 60 46 81 80 73 117 -8 36 -13 36 -57 2z"
       id="path186"
       style="fill:#4b0082" />
    <path
       d="M6151 1021 c-26 -36 -103 -88 -152 -103 -34 -10 -37 -13 -33 -42 2 -17 9 -67 14 -111 19 -149 62 -412 70 -426 14 -22 59 9 95 66 73 116 82 143 96 281 16 173 8 254 -33 316 -16 27 -32 48 -33 48 -2 0 -13 -13 -24 -29z"
       id="path188"
       style="fill:#4b0082" />
    <path
       d="M6268 806 c-2 -74 -1 -133 2 -131 3 2 26 47 50 101 l44 97 -37 33 c-20 19 -41 34 -46 34 -6 0 -11 -57 -13 -134z"
       id="path190"
       style="fill:#4b0082" />
    <path
       d="M6332 729 l-42 -91 21 -29 c11 -16 22 -29 25 -29 2 0 18 28 35 62 26 51 30 69 25 106 -11 82 -19 80 -64 -19z"
       id="path192"
       style="fill:#483d8b" />
    <path
       d="M6228 490 c-8 -14 -32 -53 -53 -88 -39 -67 -70 -93 -109 -96 -31 -1 -33 -10 -42 -149 -6 -99 -6 -107 11 -107 23 0 81 63 150 160 91 130 98 154 72 255 l-13 50 -16 -25z"
       id="path194"
       style="fill:#483d8b" />
  </g>
</svg>
