<?xml version="1.0" standalone="no"?>
<!DOCTYPE svg PUBLIC "-//W3C//DTD SVG 20010904//EN"
 "http://www.w3.org/TR/2001/REC-SVG-20010904/DTD/svg10.dtd">
<svg version="1.0" xmlns="http://www.w3.org/2000/svg"
 width="850.000000pt" height="850.000000pt" viewBox="0 0 850.000000 850.000000"
 preserveAspectRatio="xMidYMid meet">
<metadata>
Created by potrace 1.14, written by Peter Selinger 2001-2017
</metadata>
<g transform="translate(0.000000,850.000000) scale(0.100000,-0.100000)"
fill="#000000" stroke="none">
<path d="M4815 8490 c-187 -16 -563 -134 -700 -221 -75 -47 -167 -153 -293
-337 -115 -169 -202 -322 -243 -427 -31 -80 -69 -249 -69 -307 0 -17 20 -92
44 -167 24 -75 58 -206 75 -291 42 -207 66 -254 180 -362 49 -46 120 -103 159
-128 l71 -45 1 -75 c0 -41 7 -106 15 -145 16 -79 100 -251 129 -267 16 -9 18
-7 13 7 -13 33 -48 177 -44 181 6 6 70 -92 102 -156 l27 -53 -34 -25 c-94 -71
-185 -193 -367 -490 -60 -97 -63 -104 -51 -133 7 -16 27 -41 44 -54 l31 -25
-47 -87 c-26 -49 -72 -138 -103 -200 -50 -100 -58 -113 -90 -123 -45 -15 -68
-49 -59 -84 6 -26 -9 -67 -77 -213 -36 -76 -27 -250 14 -268 12 -6 28 -22 35
-37 7 -16 22 -33 33 -38 26 -14 25 -50 -1 -50 -30 0 -79 -27 -120 -65 -33 -30
-79 -60 -172 -113 -23 -13 -55 -35 -72 -49 -17 -14 -58 -39 -91 -54 -33 -15
-85 -46 -115 -68 -30 -22 -84 -56 -120 -75 -162 -86 -212 -106 -268 -106 -20
0 -39 -8 -49 -20 -10 -11 -24 -20 -31 -20 -23 0 -102 -71 -102 -91 0 -11 -12
-29 -26 -42 -15 -12 -50 -46 -80 -74 -29 -29 -59 -53 -65 -53 -14 0 -54 -30
-132 -100 -34 -31 -77 -62 -95 -69 -17 -7 -32 -16 -32 -20 0 -3 -39 -46 -86
-96 -48 -49 -108 -123 -135 -162 -27 -40 -61 -80 -74 -89 -14 -9 -25 -23 -25
-30 0 -8 -31 -48 -70 -90 -38 -41 -70 -79 -70 -84 0 -5 -29 -45 -65 -89 -36
-44 -65 -87 -65 -97 0 -9 7 -41 16 -71 11 -39 23 -57 40 -65 13 -6 47 -43 76
-82 57 -79 155 -189 172 -195 6 -2 36 -30 66 -62 35 -37 64 -59 77 -59 44 0
47 -47 6 -88 -7 -7 -13 -20 -13 -27 0 -19 -49 -75 -66 -75 -8 0 -14 -8 -14
-18 0 -10 -9 -43 -20 -75 -21 -60 -18 -107 6 -107 9 0 14 -11 14 -29 0 -57 27
-99 80 -126 27 -14 64 -25 82 -25 18 0 58 -7 88 -15 78 -21 148 -19 195 5 33
17 45 18 67 9 16 -6 28 -15 28 -20 0 -4 21 -22 46 -40 40 -27 51 -30 88 -25
53 8 72 -9 62 -55 -7 -38 8 -99 32 -128 26 -32 189 -73 274 -69 53 2 70 -1 87
-16 17 -16 43 -19 175 -23 135 -5 158 -3 184 12 39 23 62 14 62 -25 0 -20 6
-33 18 -37 9 -3 24 -12 32 -19 8 -7 29 -14 45 -16 29 -3 30 -5 36 -67 6 -59
10 -68 47 -102 103 -97 293 -83 487 35 50 29 91 53 92 52 1 -1 -2 -58 -7 -126
-25 -340 -25 -340 -3 -340 23 0 21 -21 51 562 9 182 21 331 27 336 6 6 35 17
65 26 61 17 207 85 251 117 32 23 49 18 49 -13 0 -19 43 -66 90 -99 23 -15 24
-22 28 -163 5 -172 -10 -398 -42 -613 -22 -146 -22 -153 -5 -153 20 0 20 1 44
164 8 54 18 102 22 106 4 3 35 14 68 24 74 22 118 47 172 100 l43 40 27 -26
c66 -61 168 -91 221 -64 l30 16 11 -51 c6 -28 21 -109 33 -180 18 -111 24
-129 40 -129 23 0 22 5 -2 137 -11 59 -27 146 -36 193 -16 92 -120 581 -130
618 -8 27 -6 27 86 -2 108 -34 273 -51 356 -36 37 6 67 10 68 8 4 -4 64 -228
71 -261 5 -27 13 -79 50 -347 8 -63 20 -142 25 -175 5 -33 10 -77 10 -97 0
-32 3 -38 21 -38 21 0 21 3 15 73 -4 39 -21 162 -37 271 -16 109 -28 200 -26
202 1 2 20 -1 42 -6 60 -14 171 -12 210 4 36 15 55 42 55 76 0 17 4 20 18 15
96 -42 130 -48 257 -49 124 -1 133 0 188 28 61 29 97 72 97 114 0 20 5 22 58
22 80 0 150 23 199 64 34 30 45 34 75 30 19 -4 60 -1 91 6 69 14 117 61 117
114 l0 33 79 0 c58 1 89 7 118 22 46 23 53 36 53 93 0 28 7 49 25 70 30 35 30
41 4 97 -22 51 -66 108 -152 198 l-59 62 33 14 c77 32 213 140 272 216 60 77
137 204 137 225 0 32 -58 129 -154 256 -107 143 -466 504 -676 681 -291 245
-439 355 -686 514 -104 66 -172 119 -258 201 l-116 111 40 27 c58 38 189 165
207 200 41 79 37 112 -48 396 -84 284 -149 510 -149 522 0 5 15 28 34 51 37
46 67 101 85 159 11 34 27 46 150 122 220 134 231 139 337 142 l92 2 16 -36
c18 -39 38 -65 74 -96 21 -18 23 -18 42 -1 11 10 20 24 20 32 0 20 8 16 42
-23 32 -36 95 -74 122 -74 9 0 23 11 31 24 l16 25 36 -25 c36 -24 92 -44 126
-44 10 0 25 13 34 28 l16 28 45 -23 c57 -29 115 -30 142 -3 28 28 25 44 -11
74 l-30 26 28 25 c15 13 35 22 43 20 55 -15 90 -15 123 -1 56 23 49 44 -45
127 -152 134 -345 340 -379 404 -75 142 -165 235 -225 235 -12 0 -44 18 -70
40 -101 84 -285 150 -379 135 -78 -12 -81 -32 -26 -154 21 -47 46 -118 56
-158 29 -121 3 -230 -65 -275 -20 -14 -40 -38 -45 -56 -7 -20 -35 -51 -80 -88
-93 -74 -336 -235 -346 -228 -5 3 -34 38 -64 79 -136 180 -243 269 -359 299
-32 9 -61 18 -63 20 -3 2 3 26 12 53 13 37 17 80 16 188 l-1 141 65 28 c51 22
77 43 130 102 36 40 110 106 163 146 188 140 267 233 341 402 68 155 84 229
84 391 0 133 -1 146 -37 265 -21 69 -45 157 -53 195 -19 91 -63 195 -116 275
-42 64 -55 76 -201 178 -41 29 -130 98 -196 155 -226 190 -271 216 -425 248
-94 20 -206 22 -370 9z m392 -90 c106 -18 299 -127 434 -244 37 -32 116 -90
175 -130 83 -54 117 -84 142 -121 65 -100 101 -183 131 -300 16 -66 42 -163
57 -215 31 -114 42 -267 25 -366 -14 -81 -89 -275 -137 -356 -51 -84 -113
-148 -232 -240 -59 -45 -147 -121 -197 -169 -83 -80 -150 -127 -162 -115 -3 2
14 16 36 30 43 28 55 52 21 43 -31 -8 -24 9 10 23 45 19 97 82 114 141 22 73
20 103 -9 138 l-26 30 26 63 c36 89 58 179 47 190 -6 6 -16 -6 -26 -34 l-16
-43 4 90 c6 144 -19 441 -44 516 -39 116 -106 227 -125 208 -2 -2 16 -45 40
-94 24 -50 46 -101 50 -115 3 -14 -5 -2 -19 26 -40 86 -96 166 -167 240 -57
58 -86 79 -167 118 -65 31 -130 53 -191 65 -50 10 -95 22 -98 25 -12 11 40 56
96 84 47 22 69 27 141 27 75 0 92 -4 150 -32 36 -17 83 -48 105 -68 31 -28 41
-33 43 -21 9 43 -88 144 -173 181 -147 65 -284 50 -386 -42 -41 -37 -99 -140
-99 -175 0 -28 -18 -22 -68 23 -87 77 -191 114 -314 114 -67 0 -84 -5 -144
-35 -66 -34 -95 -62 -81 -76 4 -5 37 7 72 25 61 32 69 33 147 29 68 -4 94 -10
146 -37 62 -31 130 -90 152 -130 13 -25 12 -25 -28 -6 -88 44 -238 39 -341
-11 -94 -46 -239 -213 -288 -333 -8 -20 -39 -88 -69 -151 -107 -230 -120 -371
-53 -590 11 -39 25 -70 30 -70 5 0 9 39 9 88 l1 87 22 -66 c13 -37 41 -91 63
-120 22 -30 43 -59 47 -66 9 -15 -32 -183 -45 -183 -15 0 -169 119 -231 179
-32 31 -69 76 -82 101 -13 25 -37 114 -54 197 -32 152 -61 259 -100 365 -30
81 -26 145 14 294 26 92 53 161 96 244 76 146 257 417 313 468 108 99 372 219
636 287 122 32 431 39 577 15z m37 -448 c61 -28 56 -37 -9 -16 -65 23 -176 14
-248 -19 -50 -23 -77 -46 -131 -112 -39 -48 -42 -21 -5 41 61 102 127 135 259
131 61 -3 99 -10 134 -25z m-208 -217 c120 -32 200 -73 276 -144 76 -70 167
-207 207 -311 40 -104 50 -151 20 -92 -12 23 -25 42 -30 42 -7 0 -4 -43 6 -77
5 -17 -21 -35 -46 -31 -15 2 -27 16 -39 48 -22 55 -46 68 -36 19 10 -57 26
-192 23 -196 -2 -1 -13 47 -26 108 -25 130 -86 292 -140 376 -21 32 -70 88
-109 125 -57 54 -83 71 -128 84 -107 31 -180 -19 -193 -134 l-7 -57 -14 45
c-22 69 -19 153 5 180 42 47 93 50 231 15z m37 -112 c44 -30 43 -37 -1 -21
-59 23 -122 -24 -125 -92 -3 -48 20 -49 34 -1 18 61 39 76 86 61 61 -19 109
-56 153 -114 22 -31 40 -58 40 -62 0 -4 -21 12 -46 36 -55 50 -123 82 -167 78
-27 -2 -33 -8 -35 -30 -4 -31 9 -36 28 -13 18 22 40 19 96 -16 64 -40 141
-115 164 -159 48 -94 89 -314 88 -475 -1 -80 -1 -80 -16 -45 -8 19 -31 83 -52
141 -21 59 -46 122 -55 140 l-16 34 21 -27 c12 -16 26 -28 31 -28 5 0 9 12 9
28 1 24 2 25 14 10 31 -41 36 24 6 82 -22 44 -77 110 -91 110 -12 0 -11 -37 1
-45 20 -12 9 -21 -20 -17 -33 5 -40 -12 -17 -38 10 -12 9 -12 -6 -1 -24 19
-34 5 -17 -22 44 -68 74 -136 99 -224 33 -113 45 -183 32 -183 -25 0 -172 123
-214 179 -46 62 -127 218 -127 246 0 7 -4 16 -9 20 -24 14 -20 -24 12 -123 19
-59 47 -147 62 -197 15 -49 34 -103 42 -118 14 -27 13 -28 -5 -18 -46 24 -116
120 -167 226 -30 61 -56 124 -60 141 -4 19 1 14 12 -15 24 -58 43 -65 43 -15
0 30 3 35 12 26 22 -22 31 -12 24 29 -9 58 -22 78 -45 72 -10 -3 -22 0 -25 6
-4 5 -13 8 -21 4 -10 -3 -15 1 -15 12 0 9 -4 13 -10 10 -13 -8 -13 -405 0
-460 5 -22 7 -41 5 -43 -7 -7 -65 90 -76 128 -6 19 -12 96 -14 170 -1 74 -1
111 2 83 4 -58 14 -66 31 -29 28 62 26 174 -3 163 -11 -5 -12 2 -8 30 9 56
-16 37 -42 -32 -12 -33 -35 -87 -50 -120 -15 -33 -40 -109 -56 -170 l-29 -110
5 95 c5 103 18 161 58 257 14 34 23 64 20 66 -5 6 -58 -19 -94 -44 -30 -21
-39 -16 -39 19 0 24 0 24 -42 -9 l-41 -33 7 27 c12 50 -21 30 -58 -35 -20 -35
-36 -60 -36 -55 0 13 70 148 107 205 43 67 100 97 168 86 30 -4 45 -3 45 5 0
6 7 8 15 5 23 -9 18 14 -10 41 -28 29 -80 33 -124 10 -77 -39 -191 -222 -252
-404 -52 -153 -60 -407 -18 -546 21 -67 17 -87 -6 -32 -29 70 -46 152 -52 255
-3 56 -10 105 -14 108 -27 16 -23 -176 6 -289 10 -37 35 -102 56 -144 21 -42
37 -78 35 -80 -1 -2 -35 13 -75 33 -118 59 -197 156 -247 304 -29 86 -25 237
10 373 25 99 27 135 7 122 -5 -2 6 23 25 58 40 75 169 205 269 271 89 59 148
77 226 69 59 -6 74 2 46 26 -28 22 -75 23 -144 2 -82 -24 -163 -75 -270 -168
-82 -71 -82 -63 4 49 94 123 188 179 315 186 84 5 153 -11 218 -51 19 -12 38
-21 42 -19 4 1 11 -10 14 -26 15 -62 47 -123 62 -117 8 3 20 1 26 -4 9 -7 11
8 8 58 -3 47 0 77 11 96 14 28 14 27 9 -23 -4 -51 12 -137 29 -148 21 -13 26
9 13 53 -24 80 -10 168 29 182 29 11 83 -5 130 -36z m-419 -181 c2 -4 -13 -8
-35 -8 -21 -1 -36 2 -33 7 6 11 61 12 68 1z m-64 -294 c-83 -132 -99 -163
-130 -255 -29 -85 -33 -112 -34 -204 -1 -59 -4 -105 -8 -102 -21 12 -74 103
-94 162 -29 82 -30 134 -3 242 22 86 46 144 34 82 -5 -26 -3 -33 9 -33 8 0 18
5 21 10 3 6 18 10 32 10 15 0 35 7 45 17 17 15 18 14 18 -15 0 -18 4 -32 9
-32 5 0 35 40 67 89 62 94 91 118 34 29z m-619 -113 c-15 -55 -34 -154 -41
-220 -13 -112 -14 -117 -22 -75 -10 53 5 209 26 266 21 58 57 136 61 132 2 -2
-9 -48 -24 -103z m1596 83 c-3 -8 -6 -5 -6 6 -1 11 2 17 5 13 3 -3 4 -12 1
-19z m-843 -298 c27 -72 61 -122 111 -164 25 -21 48 -36 51 -33 3 2 -5 33 -17
68 -20 60 -43 299 -29 299 4 0 11 -15 18 -34 7 -18 37 -73 68 -122 41 -66 52
-89 42 -96 -18 -11 7 -27 32 -21 10 3 31 -5 47 -16 15 -12 43 -25 62 -31 35
-10 36 -7 15 44 -7 18 -3 19 53 14 58 -6 118 -30 176 -71 27 -18 28 -23 22
-66 -4 -25 -9 -48 -11 -50 -2 -2 -13 8 -24 22 -34 42 -134 87 -197 87 -59 0
-87 -10 -97 -36 -5 -13 -2 -15 21 -9 l28 7 -21 -24 c-31 -33 -54 -82 -45 -96
5 -8 18 1 40 28 17 22 36 40 41 40 4 0 -1 -24 -12 -52 -24 -63 -20 -129 11
-200 l20 -48 -25 0 c-16 0 -24 -5 -22 -12 8 -22 144 -22 188 0 l38 19 -10 -26
c-6 -14 -10 -41 -9 -59 1 -71 -25 -109 -123 -175 -101 -67 -250 -147 -277
-147 -30 0 -311 99 -386 135 -40 20 -81 47 -93 62 -24 31 -46 100 -55 178 -7
55 -7 57 14 50 25 -8 29 16 6 35 -21 17 -19 30 4 30 17 0 18 3 9 28 -9 23 -7
34 8 57 l19 29 6 -80 c3 -44 11 -89 17 -101 7 -12 12 -33 12 -46 0 -14 7 -28
16 -31 24 -9 103 -7 123 4 41 21 56 129 37 262 -7 43 -14 59 -27 63 -21 7 -26
25 -6 25 6 1 1 10 -12 20 -17 15 -38 20 -77 20 l-54 0 0 44 c0 25 4 48 10 51
5 3 31 8 58 12 47 5 49 4 62 -26 15 -37 30 -41 30 -7 0 13 7 27 16 30 14 5 14
7 0 22 -9 8 -16 21 -16 27 0 38 23 147 52 245 l33 112 6 -122 c4 -77 12 -140
23 -168z m816 283 c0 -5 4 -25 9 -46 8 -31 7 -37 -5 -33 -21 8 -74 -14 -76
-32 0 -10 0 -25 1 -36 1 -15 -1 -16 -13 -7 -9 8 -16 36 -18 76 -2 54 0 64 12
60 8 -2 29 2 45 10 36 16 45 18 45 8z m37 -35 c-3 -7 -5 -2 -5 12 0 14 2 19 5
13 2 -7 2 -19 0 -25z m-1022 -175 c0 -151 0 -151 -62 -152 -28 -1 -33 2 -33
23 0 41 78 266 92 266 2 0 3 -62 3 -137z m1005 55 c0 -21 19 -5 23 20 9 58 6
-148 -3 -238 -12 -118 -54 -316 -58 -277 -6 49 -21 29 -51 -69 -17 -52 -50
-133 -74 -178 -65 -123 -163 -248 -109 -139 10 21 25 61 32 88 7 28 32 100 55
160 49 128 88 309 89 412 1 118 -18 85 -37 -64 -16 -126 -54 -299 -63 -290 -2
2 7 53 20 113 14 66 26 164 30 248 5 97 11 143 21 153 12 11 16 11 25 -7 15
-29 30 -25 30 9 0 51 12 90 29 94 15 3 41 -18 41 -35z m-377 -335 c-13 -2 -35
-2 -50 0 -16 2 -5 4 22 4 28 0 40 -2 28 -4z m-670 -50 c-7 -2 -21 -2 -30 0
-10 3 -4 5 12 5 17 0 24 -2 18 -5z m737 -45 c26 -28 22 -49 -12 -66 -20 -9
-33 -10 -48 -2 -22 12 -36 51 -26 75 8 23 62 19 86 -7z m-692 -24 c12 -8 22
-21 22 -29 0 -13 -36 -45 -52 -45 -12 0 -38 31 -38 45 0 14 26 45 38 45 4 0
18 -7 30 -16z m1042 -54 c0 -45 -30 -108 -65 -140 -19 -17 -26 -20 -22 -9 3 9
15 49 27 90 34 115 40 126 50 109 6 -8 10 -31 10 -50z m-306 -83 c6 -31 3 -41
-18 -62 -26 -26 -67 -41 -90 -32 -24 9 -49 55 -52 94 -2 23 1 32 6 24 4 -8 13
-11 19 -7 6 4 9 2 6 -6 -6 -16 58 -53 74 -44 6 4 16 25 22 47 14 45 24 41 33
-14z m-1106 -142 c-1 -99 4 -168 16 -233 10 -51 16 -96 12 -99 -3 -3 -20 24
-37 61 -29 62 -32 78 -37 202 -3 92 -8 134 -16 131 -24 -8 -30 -199 -11 -352
l5 -40 -16 45 c-32 91 -29 353 5 443 l11 27 34 -22 35 -23 -1 -140z m412 92
c-18 -80 -83 -106 -112 -44 -15 32 -14 57 3 57 4 0 6 -6 3 -13 -3 -9 6 -12 35
-9 34 3 41 8 50 35 16 43 32 23 21 -26z m-383 -104 c-3 -10 -5 -2 -5 17 0 19
2 27 5 18 2 -10 2 -26 0 -35z m2335 17 c87 -27 248 -126 221 -137 -7 -2 -49
-27 -95 -55 -61 -37 -94 -51 -123 -52 -35 -1 -42 -5 -55 -33 -18 -39 -30 -42
-30 -9 0 28 -53 182 -81 238 -31 61 -27 68 40 68 32 0 88 -9 123 -20z m-2204
-125 c11 -27 23 -86 26 -130 4 -44 9 -93 13 -110 l6 -30 -22 27 c-36 45 -108
228 -114 290 l-5 57 38 -27 c26 -18 44 -43 58 -77z m-93 -125 c14 -80 27 -156
30 -170 l6 -25 -12 25 c-17 38 -59 279 -57 330 1 32 2 37 5 15 2 -16 15 -95
28 -175z m2677 29 c93 -97 169 -270 168 -383 0 -29 -3 -27 -33 29 -64 119
-151 220 -222 258 -52 28 -155 29 -205 3 -51 -26 -98 -75 -111 -113 -10 -32
-11 -33 -40 -18 -34 18 -36 28 -9 65 11 16 27 45 35 64 13 31 20 36 48 36 20
0 53 13 83 32 85 54 158 87 194 88 29 0 43 -9 92 -61z m-1600 -188 c-9 -41
-22 -76 -29 -78 -6 -2 -27 10 -46 26 -19 17 -39 31 -44 31 -15 0 -31 85 -21
105 9 15 11 15 24 -2 13 -17 16 -16 43 17 16 19 42 56 58 82 l28 46 3 -76 c1
-47 -5 -106 -16 -151z m-861 108 c20 -41 43 -80 52 -87 14 -12 17 -10 23 12 8
32 11 32 40 0 14 -14 29 -22 36 -18 8 5 9 2 5 -10 -4 -10 -7 -24 -7 -31 0 -7
-15 -15 -32 -18 -18 -3 -51 -12 -73 -21 -22 -8 -70 -15 -106 -16 l-66 0 -21
74 c-12 41 -22 77 -22 81 0 4 15 -13 33 -36 33 -44 116 -114 124 -105 2 2 -2
17 -10 33 -33 63 -51 229 -24 221 6 -2 28 -38 48 -79z m2372 -57 c81 -43 104
-76 268 -367 64 -114 99 -165 147 -213 35 -35 62 -66 59 -68 -16 -16 -58 -10
-116 18 -53 25 -94 59 -204 167 l-138 135 -44 -12 c-135 -36 -237 20 -266 146
-10 43 -10 57 5 95 32 84 121 143 200 132 22 -3 62 -18 89 -33z m-2169 20 c2
-4 -7 -12 -20 -19 -26 -12 -27 -12 -18 11 6 17 29 22 38 8z m489 -71 c7 -28 5
-37 -15 -58 -33 -36 -86 -60 -185 -87 -76 -20 -85 -24 -67 -34 39 -21 184 26
261 85 24 18 45 33 48 33 2 0 15 -11 29 -25 14 -14 37 -25 51 -25 14 0 25 -3
25 -7 0 -19 -83 -143 -119 -178 -38 -36 -52 -65 -33 -65 33 0 171 135 199 195
15 32 20 35 48 29 107 -23 202 -79 276 -163 65 -74 170 -214 166 -223 -4 -11
-539 -344 -614 -382 -129 -65 -196 -88 -258 -91 -35 -1 -63 2 -67 9 -4 6 -8
110 -8 231 0 143 -6 257 -16 325 -23 157 -30 383 -13 397 8 6 61 23 119 37 57
15 106 29 109 32 3 3 16 4 30 2 19 -2 27 -11 34 -37z m-416 -3 c88 -33 86 -31
80 -124 -5 -73 -10 -89 -46 -148 -58 -94 -103 -188 -226 -470 -60 -136 -115
-251 -123 -254 -18 -7 -107 36 -267 127 -180 103 -250 134 -280 127 -18 -5
-25 -2 -25 9 0 17 204 332 286 440 30 40 75 90 101 111 44 36 47 37 57 19 19
-34 119 -135 133 -135 19 0 18 2 -32 95 l-45 83 85 7 c60 5 92 13 109 26 32
25 41 24 64 -8 31 -43 173 -75 147 -33 -3 5 -22 12 -43 16 -67 12 -75 20 -68
71 10 73 9 72 93 41z m2479 -182 c36 -40 111 -113 165 -161 54 -48 96 -92 93
-97 -4 -6 -29 -8 -60 -5 -63 7 -257 95 -272 123 -5 11 -12 51 -16 89 -3 39 -9
87 -13 109 -6 36 -5 38 15 27 11 -6 51 -44 88 -85z m-695 -14 c10 -30 21 -87
25 -128 l7 -74 -52 0 -52 0 6 53 c7 64 -13 111 -65 145 -19 13 -35 29 -35 35
0 14 53 25 109 23 38 -1 40 -3 57 -54z m-147 -33 c28 -13 46 -55 46 -109 0
-44 -6 -49 -83 -80 -32 -12 -86 -41 -120 -63 -71 -46 -182 -115 -492 -305
-121 -74 -245 -151 -275 -172 -73 -49 -439 -270 -447 -270 -9 0 -83 72 -83 81
0 3 39 30 88 60 169 103 759 474 951 598 199 128 335 224 360 254 16 20 22 21
55 6z m-1538 -170 c7 -73 12 -135 9 -137 -2 -2 -16 5 -31 17 -27 21 -98 29
-108 12 -14 -21 -37 -164 -48 -290 l-12 -138 -45 -12 c-57 -15 -111 -70 -111
-112 0 -32 38 -79 65 -79 19 0 20 -16 0 -24 -8 -3 -21 -18 -27 -33 -7 -15 -24
-44 -37 -63 -14 -19 -26 -36 -27 -38 -1 -2 -35 6 -76 17 -40 11 -86 21 -103
23 -28 3 -30 5 -41 78 -17 115 -24 220 -14 220 5 0 51 -18 101 -40 51 -22 98
-40 105 -40 14 0 32 37 134 270 91 210 239 514 246 507 3 -3 12 -65 20 -138z
m1779 97 c50 -34 108 -41 167 -21 33 11 53 13 65 6 10 -5 69 -62 130 -126 154
-159 162 -203 26 -135 -40 20 -77 49 -108 85 -26 31 -51 53 -55 50 -5 -3 2
-27 15 -53 49 -98 41 -116 -31 -63 -49 35 -93 86 -111 129 -22 53 -36 40 -29
-27 8 -71 -4 -84 -37 -39 -36 49 -54 88 -62 138 -3 25 -9 53 -11 63 -7 23 -2
22 41 -7z m-1832 -237 c51 -26 67 -51 67 -101 l0 -48 -24 15 c-32 21 -81 34
-95 26 -13 -8 -28 -130 -30 -241 -2 -96 -19 -146 -59 -171 -18 -10 -32 -22
-32 -26 0 -5 -4 -14 -9 -21 -7 -12 -14 -11 -38 2 -41 20 -48 44 -25 76 22 29
52 45 107 57 37 7 40 11 38 38 -1 17 3 82 8 145 9 101 17 153 35 238 5 24 24
28 57 11z m5 -150 c50 -17 62 -48 69 -165 l6 -104 -36 15 c-26 11 -43 12 -61
5 -17 -6 -27 -6 -32 1 -10 17 9 259 21 259 1 0 16 -5 33 -11z m-868 -100 c0
-14 -16 -11 -29 5 -10 12 -8 13 8 9 12 -3 21 -9 21 -14z m1935 -214 c31 -110
86 -299 122 -420 77 -258 88 -314 68 -362 -29 -70 -233 -243 -287 -243 -41 0
-43 18 -10 86 54 109 65 156 60 267 -3 80 -8 112 -25 146 -13 25 -21 46 -19
48 2 2 29 -8 60 -23 30 -16 59 -24 63 -20 12 12 -47 55 -97 70 -44 13 -44 14
-19 24 14 6 44 16 67 23 23 7 47 18 53 26 19 22 -29 16 -101 -12 -35 -14 -71
-25 -80 -25 -22 0 -233 60 -242 68 -12 12 -90 283 -85 296 3 7 76 57 163 112
87 54 176 111 198 125 23 15 44 24 48 20 4 -3 32 -96 63 -206z m-1782 140
l114 -65 6 -108 c4 -59 10 -129 13 -157 l6 -50 -68 3 c-60 3 -84 -2 -189 -39
-66 -23 -147 -47 -179 -53 -34 -6 -61 -17 -64 -25 -4 -11 3 -13 28 -7 l33 6
-47 -50 c-26 -28 -59 -76 -74 -108 -23 -50 -27 -70 -27 -157 0 -91 3 -105 28
-154 16 -29 25 -56 22 -60 -4 -3 -23 12 -42 34 -94 107 -108 248 -38 405 13
30 27 72 30 92 5 32 14 43 58 71 29 19 57 45 63 58 51 108 208 429 211 429 1
0 54 -29 116 -65z m790 -166 c32 -34 56 -64 53 -67 -3 -2 -14 6 -25 19 -29 36
-37 15 -17 -49 13 -39 31 -69 57 -94 51 -49 80 -56 118 -29 16 12 33 21 39 21
5 0 13 -42 17 -92 12 -158 10 -170 -26 -239 -37 -69 -84 -109 -129 -109 -24 0
-142 48 -330 132 -77 35 -91 55 -106 150 -8 44 -11 85 -8 89 12 20 23 6 34
-46 11 -52 24 -74 37 -61 3 3 -1 39 -10 81 -17 77 -13 109 16 133 18 15 19 13
41 -55 18 -55 46 -90 46 -58 0 9 -10 50 -22 91 l-21 75 20 27 c33 44 47 39 63
-24 8 -32 21 -60 29 -62 15 -5 14 6 -10 117 l-13 63 27 24 c16 13 36 24 45 24
9 0 43 -28 75 -61z m480 -56 c5 -8 -32 -225 -39 -232 -5 -5 -122 18 -151 30
-17 6 -23 17 -23 41 0 18 4 38 8 44 8 12 183 124 194 124 4 0 9 -3 11 -7z
m-1242 -221 c-20 -21 -57 -78 -83 -128 -56 -106 -69 -174 -43 -224 9 -18 13
-36 8 -40 -29 -26 -241 -154 -256 -154 -13 -1 -28 16 -45 49 -36 68 -38 185
-4 260 51 112 105 163 217 204 66 25 214 70 231 70 6 1 -5 -16 -25 -37z m240
-1 c106 -23 129 -35 129 -66 0 -27 -17 -34 -26 -10 -6 15 -44 22 -44 7 0 -4
27 -54 60 -112 33 -58 60 -113 60 -122 0 -22 -38 -58 -61 -58 -11 0 -47 39
-91 100 -67 92 -98 120 -98 88 0 -7 34 -59 76 -116 43 -58 74 -109 71 -117 -3
-7 -16 -19 -28 -26 -21 -11 -29 -4 -118 90 -53 55 -100 101 -104 101 -24 0 3
-44 73 -121 44 -48 80 -92 80 -98 0 -6 -12 -14 -27 -17 -24 -6 -36 2 -112 82
-63 66 -87 84 -89 71 -2 -10 21 -45 59 -87 34 -39 60 -72 57 -75 -9 -9 -167
96 -187 124 -44 62 -15 174 78 300 53 71 56 73 137 79 11 1 58 -6 105 -17z
m1070 -81 c143 -33 269 -66 280 -73 48 -29 89 -141 89 -241 0 -116 -83 -299
-162 -359 -41 -32 -122 -67 -153 -67 -58 0 -606 412 -581 437 3 3 17 -2 31
-11 24 -16 27 -15 85 14 113 57 175 197 141 317 -8 28 -6 43 6 43 3 0 121 -27
264 -60z m-698 -226 c114 -47 118 -50 128 -86 7 -28 26 -51 72 -89 34 -29 63
-55 65 -58 1 -4 -12 -12 -30 -19 -40 -14 -145 -117 -129 -126 6 -4 30 10 53
32 112 100 128 103 219 33 53 -40 75 -66 129 -157 35 -60 81 -134 101 -164
112 -169 323 -581 393 -766 51 -138 104 -320 137 -474 30 -143 31 -135 -17
-131 -107 7 -338 -108 -848 -422 -195 -120 -312 -177 -365 -177 l-34 0 7 118
c4 64 11 459 16 877 10 826 17 976 50 1053 19 43 24 48 47 44 23 -4 24 -3 14
17 -7 11 -19 21 -28 21 -20 0 -53 -29 -53 -47 0 -18 -16 -17 -24 2 -3 8 -11
15 -19 15 -14 0 -127 -114 -218 -220 -148 -173 -450 -611 -551 -799 -28 -53
-77 -141 -108 -196 -32 -55 -92 -167 -135 -250 -121 -234 -233 -443 -277 -519
-40 -67 -41 -68 -77 -63 -59 7 -238 82 -356 148 -362 201 -484 280 -676 435
-36 30 -74 54 -83 54 -9 0 -16 6 -16 13 0 24 185 306 272 416 109 136 242 277
277 293 14 7 32 27 40 45 12 28 18 31 43 26 30 -6 68 18 68 42 0 15 59 69 121
112 24 17 204 129 399 250 195 121 390 241 432 267 77 48 78 48 124 37 28 -7
69 -9 102 -5 l55 7 -79 -70 c-211 -186 -433 -457 -603 -736 -49 -80 -59 -110
-32 -92 6 3 45 59 87 123 110 168 257 361 365 479 110 119 317 309 373 341
l39 23 -18 -28 c-55 -83 -77 -174 -45 -180 8 -2 47 24 85 59 78 69 211 158
236 158 10 0 35 -21 57 -47 30 -35 44 -45 52 -37 8 8 2 23 -22 55 -41 53 -76
68 -120 51 -28 -10 -35 -9 -52 7 -12 10 -37 27 -56 36 -19 10 -36 19 -38 20
-8 7 20 45 34 45 8 0 32 9 52 19 20 11 49 25 63 31 15 7 33 23 40 36 6 13 22
27 33 30 45 14 66 45 66 97 0 60 -6 60 163 -9z m-644 -145 c23 -18 39 -35 34
-40 -4 -4 -91 -60 -193 -122 -102 -63 -267 -166 -367 -228 -100 -63 -289 -179
-419 -259 -130 -80 -260 -166 -289 -192 -29 -27 -57 -48 -62 -48 -14 0 -59 51
-78 88 -22 45 -14 62 28 60 45 -2 99 28 507 284 184 116 391 245 460 288 69
42 168 104 220 138 52 34 100 62 106 62 5 0 29 -14 53 -31z m160 -75 c2 -2 -4
-16 -14 -30 -51 -78 -139 -123 -256 -131 -44 -3 -79 -2 -79 3 1 5 60 46 133
91 122 76 135 82 172 76 22 -3 42 -7 44 -9z m29 -68 c-2 0 -14 -10 -27 -21
-16 -13 -21 -15 -16 -5 16 29 27 40 37 34 5 -3 8 -7 6 -8z m92 -56 c0 -3 -14
-14 -30 -24 -17 -9 -64 -44 -105 -77 -41 -32 -75 -55 -75 -49 0 25 46 97 92
146 l50 53 34 -22 c18 -12 34 -24 34 -27z m1435 -115 c35 -24 578 -566 680
-680 116 -130 264 -326 363 -482 126 -196 297 -514 285 -527 -4 -3 -22 -6 -40
-6 -85 0 -342 -115 -588 -262 -313 -187 -514 -286 -667 -328 -61 -16 -157 -9
-193 14 -26 17 -27 21 -22 81 7 89 92 249 223 420 76 100 84 115 84 162 -1 79
-44 299 -91 462 -82 284 -288 711 -509 1052 -22 34 -38 64 -36 66 11 11 68
-33 141 -106 54 -55 87 -81 103 -81 32 0 36 20 12 75 -11 26 -19 49 -18 50 2
1 31 17 65 34 34 18 72 44 84 57 20 21 29 24 64 19 22 -4 49 -13 60 -20z
m-1177 -103 c7 -5 10 -15 7 -23 -16 -44 -26 -314 -35 -984 -5 -412 -14 -812
-20 -888 -11 -150 -7 -172 35 -183 27 -7 106 17 180 54 28 13 173 99 324 189
150 91 276 161 280 156 4 -4 22 -48 40 -98 92 -248 153 -391 175 -411 16 -14
50 -26 95 -34 62 -10 77 -9 143 9 134 38 219 76 450 205 l67 37 91 -135 c72
-109 95 -136 113 -136 60 0 352 127 483 210 49 31 68 38 82 31 41 -22 302
-316 327 -367 17 -37 7 -74 -20 -74 -22 0 -27 -18 -15 -55 16 -50 1 -71 -66
-91 -60 -17 -105 -14 -167 13 -47 20 -55 12 -34 -32 27 -57 22 -92 -15 -115
-17 -10 -48 -22 -69 -25 -52 -9 -205 19 -327 60 -57 19 -110 35 -117 35 -7 0
-22 -10 -32 -23 -47 -60 -122 -76 -254 -53 -136 24 -341 104 -432 168 -32 23
-57 18 -57 -11 0 -10 -7 -22 -16 -25 -21 -8 -103 11 -142 35 -42 24 -67 25
-57 2 24 -59 27 -72 21 -96 -8 -35 -46 -41 -190 -34 -78 4 -138 13 -201 32
-85 25 -244 96 -327 146 -45 27 -64 20 -84 -28 -33 -79 -119 -140 -182 -129
-54 8 -79 39 -96 119 -4 15 -11 27 -16 27 -5 0 -51 -25 -102 -56 -101 -62
-156 -84 -281 -114 -99 -24 -149 -25 -209 -4 -69 23 -83 44 -81 120 1 35 -2
66 -7 69 -4 3 -45 -19 -90 -49 -101 -68 -216 -117 -293 -124 -68 -6 -80 4 -71
56 8 39 6 39 -105 7 -89 -26 -179 -32 -212 -14 -11 5 -24 22 -30 36 -11 31
-24 29 -153 -17 -68 -25 -112 -33 -185 -37 -151 -8 -201 23 -180 113 12 54 11
57 -8 49 -57 -23 -265 -77 -326 -85 -108 -14 -252 -12 -290 4 -56 23 -71 48
-63 106 6 48 6 50 -18 50 -14 0 -27 4 -31 9 -18 30 78 194 191 328 l44 52 108
-54 c134 -67 239 -99 295 -92 53 7 66 22 182 212 49 80 92 148 97 151 4 3 26
-7 48 -21 81 -51 258 -134 364 -171 l107 -37 27 20 c31 22 124 186 390 688
216 409 304 555 480 802 117 165 293 395 299 390 3 -3 -92 -277 -148 -427 -50
-131 -181 -398 -271 -550 -46 -78 -63 -120 -48 -120 36 0 262 431 367 700 14
36 54 152 89 259 58 179 67 198 106 238 45 46 46 47 66 35z m1682 -290 c144
-99 452 -337 575 -447 230 -205 465 -429 546 -521 75 -85 249 -327 249 -345 0
-4 -9 -11 -21 -14 -12 -4 -91 -53 -178 -110 -255 -167 -467 -294 -611 -367
-131 -66 -278 -123 -289 -113 -13 13 147 153 349 305 179 134 260 218 260 269
0 30 -131 289 -228 452 -179 301 -380 556 -667 846 -154 156 -153 159 15 45z
m-3843 -241 c-7 -29 11 -50 55 -62 23 -6 51 -17 62 -24 21 -14 19 -17 -63
-102 -98 -104 -251 -306 -343 -453 -89 -143 -91 -148 -84 -184 8 -42 89 -182
178 -310 139 -198 254 -423 233 -456 -3 -5 -32 -10 -64 -10 -49 0 -78 9 -172
51 -227 100 -342 174 -601 382 -94 75 -150 127 -154 142 -11 46 161 278 407
548 129 140 516 496 543 497 4 0 6 -8 3 -19z m3418 -954 c28 -21 15 -52 -81
-183 -131 -179 -160 -231 -213 -378 -5 -14 -29 38 -84 185 -70 188 -75 205
-59 217 49 37 231 125 304 146 98 29 108 30 133 13z m1250 -137 c23 -9 25 -12
14 -32 -22 -44 -96 -111 -284 -258 -104 -82 -219 -176 -254 -209 -36 -33 -66
-59 -67 -58 -3 4 -131 202 -137 214 -5 8 47 42 150 101 232 131 354 189 491
232 31 10 58 19 59 19 1 1 13 -3 28 -9z m504 -113 c-58 -98 -191 -229 -297
-291 l-83 -50 -51 51 -50 50 48 29 c26 16 142 91 258 167 116 77 212 134 214
128 2 -7 -15 -44 -39 -84z m-2523 -909 c11 -13 15 -29 65 -258 74 -335 72
-321 53 -341 -35 -38 -133 -15 -206 50 -20 17 -41 31 -47 31 -6 0 -23 -14 -38
-31 -16 -17 -47 -42 -69 -55 -46 -27 -165 -76 -171 -70 -2 2 3 79 11 171 8 92
13 172 11 179 -2 6 -6 68 -10 137 l-6 126 41 12 c50 15 103 60 136 117 l26 43
97 -48 c53 -27 102 -55 107 -63z m-1256 46 c0 -51 33 -99 86 -124 37 -18 58
-21 119 -18 l75 3 0 -101 c0 -55 -3 -141 -6 -191 l-7 -90 -101 -61 c-98 -59
-215 -102 -278 -102 -58 0 -131 23 -162 50 -31 28 -31 30 -31 122 0 77 -3 92
-15 89 -8 -3 -34 -6 -58 -9 -61 -6 -76 10 -68 70 6 46 6 48 -18 48 -13 0 -68
-12 -122 -26 -76 -20 -111 -25 -154 -20 -65 8 -84 26 -75 73 3 17 1 34 -4 37
-5 4 -43 -3 -83 -14 -40 -11 -111 -24 -157 -27 -75 -6 -85 -4 -98 13 -11 15
-16 16 -22 6 -7 -12 -12 -12 -29 -1 -34 21 -45 61 -37 129 l7 60 62 -6 c75 -7
229 22 311 60 l56 25 11 -24 c6 -13 25 -30 42 -37 45 -19 170 -14 237 9 l56
19 9 -30 c13 -45 53 -61 120 -48 78 16 202 68 264 112 30 21 58 38 63 39 4 1
7 -15 7 -35z m2078 -13 c122 -85 436 -174 559 -157 53 7 119 40 133 66 10 19
13 19 108 -15 53 -19 118 -38 144 -41 52 -7 57 -13 31 -36 -37 -30 -81 -43
-173 -48 l-95 -5 -8 -40 c-12 -55 -19 -67 -56 -92 -80 -55 -239 -52 -405 5
-86 31 -103 29 -91 -8 10 -30 -4 -60 -32 -71 -38 -14 -162 -12 -207 3 l-39 13
-37 150 c-21 83 -45 170 -54 194 -15 40 -21 91 -12 91 2 0 23 -7 46 -15 62
-22 117 -20 132 5 16 25 23 25 56 1z"/>
<path d="M5860 7683 c0 -21 5 -72 11 -113 12 -91 14 -260 4 -351 l-7 -67 -62
5 c-59 5 -64 4 -99 -26 -20 -18 -41 -48 -48 -68 -15 -45 -7 -124 15 -158 23
-36 98 -68 136 -60 33 7 90 66 107 110 12 30 53 342 53 403 0 17 4 32 9 32 16
0 73 -72 93 -117 11 -24 23 -41 28 -38 15 9 23 153 12 210 -22 107 -95 216
-173 255 -61 31 -79 27 -79 -17z m85 -33 c66 -41 121 -139 135 -243 5 -34 8
-63 6 -65 -2 -2 -27 20 -54 47 -61 61 -92 67 -92 19 0 -53 -39 -391 -50 -430
-6 -20 -23 -50 -39 -67 -53 -56 -136 -33 -161 45 -35 104 61 205 151 159 31
-16 33 -16 45 0 7 9 16 43 21 74 10 70 10 301 1 404 -4 42 -5 77 -2 77 4 0 21
-9 39 -20z"/>
<path d="M4163 7336 c-58 -49 -138 -216 -111 -232 6 -4 16 -1 22 7 6 8 30 14
56 15 86 2 110 7 110 21 0 11 -17 13 -80 9 l-79 -4 25 49 c27 54 38 63 28 24
-4 -18 -2 -25 9 -25 8 0 18 7 21 16 4 11 13 14 30 10 16 -4 35 3 63 23 39 28
40 28 52 9 18 -28 -13 -98 -42 -98 -17 0 -19 -5 -14 -36 3 -20 8 -39 11 -42 7
-6 36 17 36 28 0 13 78 173 95 197 25 33 1 37 -35 6 -31 -25 -32 -26 -26 -5
10 29 4 28 -57 -13 -49 -34 -52 -34 -55 -14 -3 20 -4 20 -23 3 -29 -26 -33
-11 -9 35 23 46 15 52 -27 17z"/>
<path d="M5094 7160 l6 -40 -35 0 c-22 0 -38 6 -41 15 -7 17 -34 20 -34 4 0
-20 63 -141 76 -146 15 -6 74 24 74 37 0 18 19 10 55 -21 68 -60 58 -6 -22
117 -31 48 -55 74 -67 74 -16 0 -18 -5 -12 -40z"/>
<path d="M4784 6205 c-7 -29 13 -62 29 -46 11 11 0 71 -14 71 -5 0 -11 -11
-15 -25z"/>
<path d="M4817 6140 c-43 -8 -52 -14 -42 -30 10 -15 98 -8 120 10 32 27 0 35
-78 20z"/>
<path d="M6412 6221 c-17 -10 -3 -22 55 -44 23 -9 81 -41 129 -71 76 -47 90
-53 111 -43 12 5 23 15 23 22 0 31 -125 106 -215 130 -67 17 -84 18 -103 6z"/>
<path d="M6623 5830 c-113 -68 -63 -254 67 -252 112 2 176 130 109 216 -44 56
-118 72 -176 36z m34 -46 c1 -34 25 -56 58 -56 33 0 47 18 40 52 l-5 25 20
-24 c27 -32 27 -99 0 -134 -22 -28 -74 -43 -114 -33 -30 7 -66 63 -66 102 0
36 37 93 60 94 3 0 6 -12 7 -26z m61 4 c18 -18 15 -28 -8 -28 -13 0 -20 7 -20
20 0 23 10 26 28 8z"/>
<path d="M4840 3796 c0 -7 31 -39 69 -70 38 -31 88 -81 110 -111 40 -53 61
-68 61 -43 0 24 -56 91 -137 163 -84 76 -103 87 -103 61z"/>
<path d="M4797 3773 c-3 -5 3 -42 13 -83 23 -94 32 -166 19 -153 -5 5 -16 47
-25 93 -18 89 -28 111 -43 95 -13 -13 43 -222 65 -246 16 -17 19 -18 33 -5 13
13 13 28 2 112 -19 143 -45 219 -64 187z"/>
<path d="M2270 940 c0 -5 5 -10 10 -10 6 0 10 5 10 10 0 6 -4 10 -10 10 -5 0
-10 -4 -10 -10z"/>
</g>
</svg>
