<?xml version="1.0" standalone="no"?>
<!DOCTYPE svg PUBLIC "-//W3C//DTD SVG 20010904//EN"
 "http://www.w3.org/TR/2001/REC-SVG-20010904/DTD/svg10.dtd">
<svg version="1.0" xmlns="http://www.w3.org/2000/svg"
 width="850.000000pt" height="850.000000pt" viewBox="0 0 850.000000 850.000000"
 preserveAspectRatio="xMidYMid meet">
<metadata>
Created by potrace 1.14, written by Peter Selinger 2001-2017
</metadata>
<g transform="translate(0.000000,850.000000) scale(0.100000,-0.100000)"
fill="#000000" stroke="none">
<path d="M3434 5405 c-34 -8 -90 -25 -125 -39 -34 -15 -66 -26 -70 -26 -24 0
-137 -81 -183 -131 -94 -101 -140 -229 -139 -389 0 -102 19 -175 99 -380 49
-124 55 -205 22 -269 -36 -69 -60 -82 -133 -70 -54 10 -152 7 -230 -7 -16 -2
-58 -16 -93 -29 -79 -32 -96 -31 -173 4 -35 17 -121 41 -190 55 -114 24 -149
26 -359 26 l-232 0 -97 58 c-202 122 -324 110 -516 -50 -120 -100 -136 -118
-288 -335 -117 -168 -139 -199 -181 -250 -19 -23 -42 -63 -52 -89 l-18 -47 30
-54 c60 -113 169 -186 399 -268 55 -20 128 -47 162 -61 34 -13 66 -24 73 -24
7 0 8 -6 1 -19 -8 -14 -6 -23 9 -36 27 -24 52 -109 41 -138 -5 -12 -27 -60
-49 -107 -56 -118 -67 -164 -52 -233 9 -46 57 -140 79 -157 29 -21 177 -212
219 -281 75 -125 126 -143 271 -96 39 13 71 21 71 18 0 -3 -16 -49 -36 -101
-81 -218 -213 -688 -229 -821 -3 -24 -13 -75 -22 -114 l-16 -70 -14 34 c-13
31 -12 39 13 105 33 86 41 238 18 315 -11 36 -11 59 -3 104 15 83 4 152 -51
312 -26 77 -50 163 -55 190 -8 59 -19 68 -56 50 -48 -26 -62 -81 -60 -243 2
-158 -4 -170 -54 -111 -66 79 -82 162 -45 232 25 46 25 64 1 77 -24 12 -67
-21 -102 -76 -26 -42 -59 -163 -59 -213 0 -37 31 -192 45 -225 10 -22 10 -23
-85 31 -147 82 -301 115 -428 93 -116 -19 -112 -55 12 -107 107 -45 130 -64
165 -135 40 -80 40 -88 -6 -88 -21 0 -78 -11 -128 -25 -49 -14 -113 -25 -140
-25 -50 0 -75 -12 -75 -37 0 -16 163 -132 222 -157 27 -11 48 -22 48 -25 0 -4
-25 -23 -55 -44 -61 -42 -147 -64 -207 -53 -20 3 -55 20 -79 36 -53 36 -67 37
-75 6 -17 -70 111 -179 271 -229 70 -22 209 -31 269 -18 26 7 109 47 185 91
160 93 171 98 171 77 0 -32 23 -65 54 -80 30 -14 34 -21 39 -69 4 -35 13 -58
26 -69 37 -30 46 -136 13 -140 -20 -2 -65 -11 -142 -28 -83 -19 -215 -39 -255
-38 -11 0 -90 -5 -175 -12 -445 -34 -475 -40 -527 -95 -18 -19 -33 -44 -33
-55 0 -12 20 -59 44 -105 67 -126 67 -126 104 -126 l33 0 -56 104 c-30 57 -55
116 -55 130 0 49 24 55 295 65 152 6 277 16 319 26 37 8 112 20 165 25 53 6
150 24 217 40 141 35 144 34 274 -40 137 -79 239 -110 395 -121 72 -5 189 -17
260 -26 202 -27 569 -24 740 6 169 29 188 36 223 76 42 47 49 78 61 275 6 96
14 207 17 246 l6 72 122 7 c66 4 150 14 186 22 45 11 121 16 245 17 l180 1
110 39 c89 32 123 40 175 39 36 -1 140 -2 231 -2 120 0 198 -6 285 -20 65 -11
168 -27 227 -35 103 -13 110 -15 140 -48 37 -40 19 -37 397 -64 375 -27 370
-26 450 -9 136 30 138 30 226 -13 91 -45 111 -67 144 -162 37 -109 84 -183
161 -254 77 -71 139 -105 239 -129 94 -23 392 -86 480 -102 91 -17 298 -59
400 -81 84 -18 127 -40 136 -66 3 -11 15 -18 30 -18 31 0 30 3 -7 62 -20 31
-38 48 -51 48 -11 0 -54 9 -96 19 -43 11 -89 21 -104 23 -36 5 -48 18 -17 19
13 0 35 2 49 4 14 2 75 7 136 10 l110 8 35 -31 c19 -16 52 -60 74 -96 30 -50
45 -66 63 -66 26 0 27 3 5 38 -49 78 -146 192 -169 198 -13 3 -67 1 -118 -5
-137 -16 -433 -14 -546 4 -170 27 -444 86 -488 106 -24 10 -55 28 -69 39 -45
35 -115 102 -111 105 2 2 64 -12 138 -31 132 -35 140 -36 375 -41 132 -3 272
-1 312 4 80 10 273 -5 403 -31 75 -15 76 -15 250 21 241 49 229 48 265 29 18
-10 60 -51 94 -92 35 -41 82 -89 105 -108 37 -30 172 -116 182 -116 2 0 4 8 4
19 0 11 -25 35 -68 63 -38 26 -110 90 -162 147 -99 107 -170 161 -212 161 -15
0 -68 -11 -120 -24 -51 -14 -135 -32 -186 -42 -88 -16 -100 -16 -185 -1 -172
31 -222 33 -514 22 -121 -5 -203 -4 -203 1 0 5 71 37 158 70 141 55 169 63
272 73 300 30 535 88 842 208 89 34 146 51 160 48 13 -3 66 -37 118 -74 l95
-68 3 29 c2 17 1 35 -1 42 -8 19 -210 136 -235 136 -13 0 -48 -9 -79 -20 -34
-12 -61 -16 -66 -11 -16 16 -20 132 -8 210 10 65 46 171 58 171 2 0 13 -9 25
-20 43 -40 62 -26 123 93 33 65 119 167 140 167 17 0 26 -14 36 -54 5 -24 7
-15 8 36 1 64 0 68 -24 74 -54 13 -144 -73 -203 -194 -20 -42 -38 -79 -39 -81
-1 -2 -16 7 -32 19 -48 34 -71 24 -106 -45 -29 -59 -30 -63 -33 -236 l-3 -177
-110 -45 c-60 -24 -109 -43 -109 -41 0 2 16 40 36 85 45 102 55 172 47 324 -9
182 -63 334 -263 735 -99 199 -101 206 -95 255 23 169 130 454 247 658 29 51
58 100 63 109 6 10 54 93 109 184 266 449 280 589 96 955 -94 188 -158 269
-305 384 -121 94 -257 167 -390 208 -121 37 -316 28 -430 -20 -36 -15 -109
-61 -162 -100 -53 -40 -99 -73 -103 -73 -7 0 -80 61 -140 118 -46 43 -179 132
-255 170 -61 30 -231 86 -295 97 -19 3 -77 17 -129 30 -51 14 -107 27 -125 30
-17 3 -71 17 -121 30 -160 43 -242 53 -269 32 -17 -12 -17 -17 -5 -43 33 -68
282 -208 489 -274 58 -18 118 -38 133 -43 60 -21 151 -249 173 -437 18 -151
51 -491 53 -540 2 -67 32 -266 52 -343 38 -152 108 -319 172 -412 11 -16 190
-201 397 -410 207 -209 392 -400 412 -425 47 -59 98 -143 104 -172 31 -138 46
-259 47 -373 1 -115 -1 -137 -22 -189 -46 -115 -151 -196 -300 -232 -72 -17
-76 -17 -166 4 -118 26 -220 69 -338 140 -86 53 -149 96 -402 272 -115 80
-410 267 -472 298 -78 40 -191 65 -293 64 -157 -1 -394 -62 -521 -135 -27 -16
-43 -19 -52 -12 -8 6 -41 31 -75 56 -117 89 -241 110 -379 64 -125 -42 -215
-113 -323 -258 -19 -25 -41 -49 -49 -52 -7 -3 -54 11 -105 31 -94 37 -135 69
-217 166 l-40 47 48 15 c252 78 379 190 504 446 39 81 59 102 132 144 106 60
270 244 340 381 47 92 88 200 93 250 3 22 13 110 24 195 24 202 29 251 35 335
4 55 13 87 45 150 60 122 117 188 193 224 75 36 156 58 238 66 158 15 269 86
325 209 23 50 26 68 22 125 -7 81 -44 168 -97 227 -36 38 -54 80 -67 151 -2
12 -22 57 -44 100 -74 147 -244 283 -397 318 -68 16 -228 21 -237 7 -2 -4 23
-30 57 -57 154 -126 195 -182 204 -283 9 -100 -43 -172 -125 -172 -131 0 -250
87 -424 310 -37 47 -94 120 -127 162 -71 91 -157 162 -261 217 -92 48 -224 96
-304 111 -81 14 -298 11 -372 -5z m271 -55 c114 -17 243 -58 362 -116 132 -65
181 -109 329 -294 218 -274 369 -389 511 -390 89 0 148 37 184 115 46 99 9
233 -92 340 l-52 55 34 0 c74 0 226 -94 316 -195 141 -158 172 -355 78 -497
-30 -46 -31 -58 -5 -58 23 0 44 31 91 130 29 60 32 63 45 45 26 -36 54 -126
54 -176 0 -89 -50 -168 -135 -211 -21 -11 -100 -31 -174 -44 -197 -35 -293
-86 -382 -204 -104 -137 -142 -273 -163 -575 -13 -175 -18 -212 -45 -294 -49
-146 -164 -341 -281 -474 -41 -46 -126 -105 -136 -94 -3 3 2 53 10 112 9 59
19 175 22 259 8 207 24 291 74 381 42 77 39 105 -6 60 -33 -33 -68 -111 -93
-210 -20 -76 -24 -108 -36 -332 -15 -268 -125 -527 -290 -682 -72 -67 -210
-141 -303 -162 -51 -12 -54 -12 -94 17 -45 31 -54 45 -89 137 -12 32 -30 62
-40 68 -11 5 -40 7 -66 3 -48 -6 -49 -5 -153 73 -163 123 -288 184 -438 213
-53 11 -67 10 -110 -5 -61 -22 -90 -16 -142 31 -42 38 -48 61 -30 109 8 22 15
26 33 20 12 -3 60 -10 106 -16 98 -11 161 -2 306 40 217 63 252 71 312 71 86
0 184 -36 289 -106 48 -33 106 -71 128 -86 51 -34 132 -52 199 -43 84 11 200
76 183 104 -4 5 -32 -4 -68 -22 -54 -28 -70 -32 -142 -32 -93 1 -125 14 -240
100 -153 114 -299 160 -433 136 -34 -7 -124 -32 -200 -58 -117 -38 -153 -46
-238 -50 -119 -6 -183 13 -267 80 -90 70 -133 130 -59 82 54 -36 167 -75 220
-75 34 0 79 17 200 74 283 134 432 158 625 101 56 -17 106 -20 106 -6 0 5 -24
21 -52 35 -65 31 -213 51 -312 42 -99 -9 -159 -29 -351 -114 -210 -93 -240
-96 -360 -37 -98 49 -176 123 -212 202 -31 67 -44 208 -24 264 6 18 9 35 6 38
-3 2 -31 -8 -63 -24 -46 -23 -74 -29 -146 -33 -144 -7 -212 12 -476 138 -430
205 -697 259 -810 164 -25 -21 -30 -33 -30 -69 0 -52 14 -92 42 -122 39 -42
49 -27 22 33 -14 31 -23 58 -21 61 3 2 39 -28 81 -67 82 -76 159 -129 240
-165 49 -23 98 -54 84 -55 -21 -1 -211 76 -331 134 -145 70 -211 121 -251 196
l-18 35 78 112 c66 94 83 112 106 112 14 1 59 19 100 40 160 86 325 109 453
63 104 -38 129 -24 43 24 -86 47 -112 53 -211 50 -103 -5 -218 -40 -309 -96
-27 -17 -52 -29 -54 -27 -16 15 229 315 314 385 144 117 207 134 335 91 113
-38 171 -84 319 -254 179 -206 249 -258 363 -271 44 -6 55 -4 55 8 0 9 -26 23
-67 38 -104 35 -125 52 -250 198 -64 76 -120 139 -125 140 -4 2 -8 8 -8 14 0
16 374 3 480 -17 123 -22 129 -23 169 -36 92 -29 178 -86 281 -184 58 -55 128
-117 156 -138 90 -65 127 -128 168 -283 14 -55 26 -108 26 -117 0 -75 101
-217 155 -217 36 0 31 12 -25 59 -34 29 -52 53 -59 79 -16 65 -42 224 -37 229
12 12 146 -97 261 -212 151 -151 245 -209 356 -221 82 -8 205 17 234 47 l20
21 -75 -9 c-125 -14 -225 -7 -277 18 -28 13 -106 80 -192 162 -148 142 -241
215 -303 241 -39 17 -52 30 -63 65 -20 65 -67 121 -136 161 -49 29 -84 60
-122 108 -30 37 -75 86 -100 109 l-46 43 33 14 c109 45 250 48 408 6 107 -28
165 -49 426 -154 138 -55 211 -71 303 -63 127 11 220 72 287 189 18 30 32 68
32 84 l0 29 -27 -40 c-50 -76 -115 -145 -161 -172 -38 -22 -61 -28 -132 -31
-104 -5 -151 7 -335 85 -106 46 -204 83 -332 128 -8 3 2 26 30 65 40 59 42 65
41 133 0 59 -9 97 -48 207 -81 234 -97 331 -71 455 40 198 155 315 380 389
128 42 212 51 320 36z m1867 -444 c48 -11 88 -25 88 -30 0 -16 -137 0 -171 20
-37 22 -54 52 -23 40 11 -5 58 -18 106 -30z m263 -80 c149 -23 156 -32 34 -41
-58 -4 -121 -4 -140 0 -54 12 -109 36 -103 46 8 13 106 11 209 -5z m353 -91
c34 -8 84 -26 110 -39 l47 -25 -60 0 c-172 -1 -410 37 -430 70 -10 15 262 11
333 -6z m221 -126 c88 -31 163 -85 221 -162 8 -11 -26 1 -91 34 -57 28 -150
73 -206 100 -57 27 -103 51 -103 55 0 11 122 -8 179 -27z m961 -5 l55 -19
-150 -6 c-138 -6 -160 -10 -264 -44 -64 -22 -147 -59 -192 -86 -43 -26 -79
-43 -79 -39 0 13 109 105 166 140 29 17 79 43 111 56 53 23 68 24 178 20 79
-3 139 -10 175 -22z m-1243 -26 c31 -34 57 -90 102 -226 51 -152 57 -178 82
-365 11 -82 22 -153 24 -158 3 -4 0 -31 -5 -60 -6 -30 -11 -86 -11 -125 -1
-63 2 -74 23 -96 19 -18 26 -39 32 -90 10 -100 66 -269 130 -396 81 -157 211
-326 484 -621 175 -191 91 -125 -159 124 -338 338 -392 411 -472 645 -60 175
-87 328 -102 570 -24 374 -61 558 -159 783 -19 44 -3 52 31 15z m154 -44 c37
-19 43 -29 72 -139 15 -55 36 -134 48 -175 34 -120 35 -143 4 -218 -32 -77
-45 -95 -45 -65 0 12 -14 91 -31 175 -30 149 -66 279 -108 386 -12 29 -21 55
-21 58 0 7 51 -7 81 -22z m1171 -5 c116 -12 193 -42 263 -105 46 -41 55 -41
-115 -3 -84 18 -136 23 -260 23 -142 0 -166 -3 -283 -32 -146 -36 -287 -100
-412 -186 -44 -30 -81 -53 -84 -51 -17 17 104 126 234 211 122 79 226 119 365
139 111 17 167 17 292 4z m-997 -68 c97 -66 110 -175 34 -283 -26 -36 -30 -32
-54 72 -14 63 -35 142 -62 233 -4 16 -1 18 19 12 12 -4 41 -19 63 -34z m1213
-100 c159 -43 206 -75 284 -191 32 -47 58 -89 58 -93 0 -4 -26 9 -57 30 -106
68 -182 104 -286 135 -87 25 -124 31 -252 35 -85 3 -179 1 -217 -5 -71 -11
-271 -79 -353 -120 -48 -24 -362 -229 -396 -258 -23 -21 -28 -17 -20 14 17 59
52 111 111 166 68 62 239 185 310 221 36 18 204 73 305 99 11 2 103 4 205 2
174 -2 192 -4 308 -35z m-138 -132 c149 -18 300 -80 428 -175 83 -62 136 -135
157 -215 16 -57 19 -255 5 -299 -7 -23 -8 -24 -14 -5 -37 104 -103 183 -219
263 -140 96 -298 158 -462 180 -284 39 -495 15 -690 -77 -70 -33 -334 -220
-343 -242 -2 -5 -8 -9 -14 -9 -16 0 -2 83 21 128 28 53 79 98 222 194 203 136
380 217 554 253 76 16 245 18 355 4z m-290 -292 c0 -2 -29 -64 -64 -138 -121
-253 -163 -403 -175 -614 -6 -121 -9 -136 -19 -112 -7 15 -17 69 -22 118 -6
50 -19 149 -29 222 -11 73 -24 193 -30 267 -6 74 -14 153 -16 176 l-6 41 118
16 c158 23 243 31 243 24z m175 -17 c3 -5 -37 -96 -89 -202 -61 -126 -106
-234 -130 -313 -45 -148 -45 -147 -58 -272 -10 -85 -9 -138 6 -305 10 -112 26
-241 37 -287 37 -159 1 -96 -56 99 -27 94 -35 147 -45 285 -14 192 -8 399 14
492 14 57 90 258 156 413 15 36 30 73 33 83 5 14 18 17 66 17 33 0 63 -4 66
-10z m184 -46 c39 -9 71 -20 71 -25 0 -4 -43 -74 -96 -156 -215 -329 -321
-613 -331 -883 -4 -104 0 -152 22 -285 21 -128 66 -295 102 -382 2 -7 1 -13
-4 -13 -19 0 -144 397 -172 550 -17 91 -32 310 -26 369 13 110 47 287 72 366
27 87 198 455 217 467 18 12 68 9 145 -8z m-764 -21 c3 -10 10 -107 15 -215
14 -295 50 -493 124 -675 44 -110 59 -163 46 -163 -11 0 -94 127 -133 205 -81
162 -150 382 -167 530 -5 50 -14 115 -20 144 -5 30 -10 71 -10 92 0 38 2 40
63 68 75 35 73 35 82 14z m971 -74 c62 -38 84 -57 84 -72 0 -12 -44 -100 -97
-196 -161 -292 -172 -312 -220 -411 -116 -241 -147 -378 -145 -645 1 -224 19
-356 61 -454 31 -74 39 -103 22 -85 -14 14 -135 300 -159 374 -12 36 -24 83
-27 105 -3 22 -15 90 -28 150 -59 295 8 637 183 925 133 218 225 360 234 360
5 0 46 -23 92 -51z m-1151 -8 c3 -6 12 -77 20 -158 16 -156 17 -165 59 -310
61 -215 94 -285 225 -488 71 -109 98 -160 121 -234 17 -51 29 -96 26 -98 -4
-5 -296 424 -338 497 -45 79 -155 332 -178 408 -30 102 -50 214 -50 277 0 52
1 54 47 84 50 33 59 36 68 22z m1319 -112 c15 -12 40 -44 56 -73 25 -42 30
-62 30 -116 0 -64 -2 -69 -78 -200 -133 -228 -149 -257 -277 -515 -147 -297
-183 -403 -192 -568 -3 -59 -9 -104 -13 -100 -10 12 -39 186 -46 283 -13 174
31 415 112 613 52 127 138 299 187 372 47 72 133 224 157 279 12 25 25 46 29
46 5 0 20 -9 35 -21z m-1459 -119 c29 -180 133 -440 253 -637 91 -148 257
-389 385 -561 77 -102 27 -61 -113 94 -214 237 -450 531 -500 626 -64 119
-140 385 -140 486 0 34 79 131 90 110 4 -7 15 -60 25 -118z m-5525 -91 c99
-18 152 -33 157 -45 2 -6 -3 -59 -11 -117 -9 -57 -16 -109 -16 -115 0 -19
-152 65 -222 122 -56 47 -128 131 -128 150 0 3 15 10 33 15 33 10 93 7 187
-10z m276 -83 c27 -13 133 -64 237 -114 284 -138 440 -176 557 -135 30 11 63
23 73 28 15 6 17 -1 17 -88 0 -85 3 -100 30 -153 36 -70 70 -168 70 -205 0
-39 -55 -139 -97 -177 -20 -17 -34 -34 -32 -36 2 -2 14 -9 27 -15 23 -12 23
-13 5 -26 -10 -8 -27 -15 -38 -15 -11 0 -33 -9 -50 -20 -35 -23 -174 -177
-217 -240 -71 -104 -110 -130 -235 -155 -108 -22 -136 -11 -180 71 -18 32 -70
108 -117 169 -145 185 -159 210 -164 274 -4 49 1 70 33 144 l37 86 51 -36 c29
-20 56 -40 61 -45 6 -4 -10 -37 -39 -79 l-49 -71 24 -45 c13 -24 36 -51 52
-59 33 -17 34 -12 8 41 -26 55 -25 65 13 116 69 90 87 154 67 229 -7 25 -14
59 -17 75 -10 67 -34 189 -38 193 -5 5 -10 -8 -20 -51 -9 -43 -39 -32 -43 16
-4 43 -22 51 -22 10 0 -55 -15 -54 -49 3 -38 64 -33 80 30 90 37 6 78 37 62
47 -4 3 -34 1 -67 -4 -32 -6 -61 -8 -63 -5 -11 11 9 206 21 206 7 0 34 -11 62
-24z m1050 -987 c24 -6 44 -14 44 -18 0 -3 -43 -5 -96 -3 -59 2 -100 -1 -108
-8 -10 -7 -21 -7 -42 1 l-29 11 40 13 c51 16 134 18 191 4z m150 -54 c20 -14
43 -25 50 -25 22 0 16 -16 -26 -72 -49 -65 -100 -192 -109 -273 -4 -33 -15
-75 -24 -92 -17 -32 -20 -33 -80 -33 l-62 -1 28 -24 c39 -35 98 -34 125 0 11
14 22 25 25 25 3 0 13 -35 22 -77 9 -43 26 -116 37 -163 34 -144 47 -239 36
-276 -12 -47 -24 -43 -20 7 4 36 2 40 -14 37 -17 -3 -19 -15 -22 -121 -1 -64
-6 -117 -10 -117 -13 0 -86 52 -125 89 -53 50 -67 80 -67 149 0 47 -5 67 -30
106 -18 28 -43 52 -63 61 -17 7 -34 12 -35 10 -2 -2 9 -23 25 -47 38 -57 53
-93 53 -128 0 -24 -6 -32 -34 -44 -45 -19 -68 -55 -74 -116 -4 -40 0 -57 22
-94 44 -74 38 -107 -47 -297 -103 -229 -124 -260 -101 -147 20 96 17 309 -8
495 l-21 164 21 87 c11 48 24 118 28 156 7 75 20 95 81 127 22 12 36 31 48 65
39 110 76 174 124 214 27 23 57 57 67 76 11 19 34 44 52 54 51 31 49 35 -61
139 l-78 73 84 -7 c80 -7 85 -6 113 19 16 14 30 26 31 26 1 0 19 -11 39 -25z
m-313 -57 c58 -37 127 -96 127 -109 0 -9 -60 10 -111 36 -49 25 -139 94 -139
107 0 19 70 0 123 -34z m633 2 c43 -11 111 -36 149 -54 103 -50 387 -246 403
-279 7 -15 18 -54 23 -86 13 -74 -2 -126 -63 -221 -49 -75 -186 -222 -199
-214 -5 3 -9 100 -9 217 0 190 -2 210 -15 196 -29 -29 -36 -177 -29 -639 6
-472 -8 -767 -41 -846 -19 -46 -49 -57 -210 -80 -154 -21 -528 -24 -695 -5
-58 6 -143 14 -190 17 -47 3 -142 14 -212 24 -134 19 -147 24 -358 148 -63 37
-65 40 -72 86 -4 26 -18 65 -32 87 -29 44 -33 69 -11 69 27 0 16 28 -22 57
-53 40 -93 80 -93 92 0 6 11 13 25 17 28 7 108 -41 228 -134 31 -25 60 -43 63
-39 9 8 -21 59 -51 87 -50 47 -68 110 -45 165 l8 20 7 -20 c22 -63 32 -82 59
-113 17 -20 60 -48 96 -64 97 -44 126 -77 160 -186 8 -25 28 -56 47 -73 54
-46 121 -42 420 31 351 85 403 97 446 105 65 11 66 20 31 395 -14 149 -71 471
-110 625 -23 89 -44 223 -44 286 0 162 124 342 241 348 9 1 51 -8 95 -19z
m-718 -87 c34 -37 59 -69 57 -71 -7 -7 -164 121 -159 129 14 23 47 3 102 -58z
m-57 -51 c63 -48 98 -82 85 -82 -4 0 -36 14 -71 30 -60 28 -104 37 -117 25 -3
-3 1 -22 8 -43 18 -51 17 -178 -1 -233 -24 -70 -90 -128 -163 -144 -49 -10
-33 -30 23 -28 62 2 131 44 159 98 17 32 22 64 26 164 3 77 9 126 16 128 6 2
22 -5 35 -16 24 -19 24 -19 5 -40 -29 -32 -11 -37 39 -13 41 20 105 30 105 17
0 -3 -15 -25 -34 -49 -19 -25 -41 -66 -51 -93 -34 -99 -47 -116 -129 -159
-111 -58 -111 -59 -110 -162 1 -48 14 -154 29 -237 24 -132 27 -177 29 -380 1
-216 0 -235 -23 -305 -12 -41 -28 -78 -35 -82 -19 -13 -81 -9 -103 7 -13 9
-25 31 -28 53 -12 73 -36 121 -81 161 -30 26 -42 44 -38 55 7 18 -16 22 -32 6
-12 -12 -84 14 -84 29 0 5 9 47 20 93 10 46 22 99 25 118 3 19 19 82 34 140
16 58 41 149 56 202 14 54 28 107 30 118 8 42 78 269 107 350 39 104 60 150
103 215 17 28 40 62 49 78 9 15 25 27 35 27 10 0 47 -22 82 -48z m5407 -168
c73 -94 117 -137 136 -131 6 2 13 28 16 58 l6 54 78 -160 c174 -355 237 -608
196 -790 -29 -131 -82 -229 -140 -257 -41 -20 -156 -40 -365 -63 -221 -24
-247 -31 -400 -105 -229 -110 -214 -107 -352 -77 -65 14 -134 29 -153 32 -71
15 -160 80 -160 119 0 35 -34 120 -61 150 -31 36 -153 108 -201 120 -18 4 -48
-1 -85 -15 -83 -30 -211 -35 -405 -15 -157 15 -412 36 -450 36 -10 0 -23 11
-28 24 -9 24 -21 29 -114 50 -21 5 -27 11 -23 24 76 235 68 405 -28 594 -19
37 -31 69 -27 72 6 4 53 17 276 77 54 15 104 19 219 19 132 0 157 -3 223 -25
102 -34 316 -143 394 -201 128 -94 499 -335 665 -432 118 -68 274 -109 375
-97 259 30 413 173 439 410 12 99 1 234 -23 303 -8 22 -24 84 -36 138 -18 83
-34 133 -58 178 -3 5 0 7 6 5 5 -2 42 -45 80 -95z m-6120 -66 c1 -13 15 -70
32 -128 47 -160 58 -201 64 -255 9 -82 -3 -86 -73 -25 l-61 53 0 144 c0 135
13 233 30 233 4 0 8 -10 8 -22z m2357 -243 c93 -96 173 -175 177 -175 4 0 8 9
8 21 0 16 4 19 18 14 120 -50 264 -80 336 -71 28 4 96 16 151 27 l100 20 22
-26 c34 -39 56 -128 49 -189 -7 -51 -39 -159 -55 -184 -13 -22 -148 -45 -211
-37 -30 5 -89 8 -130 8 -66 0 -88 -5 -177 -41 l-101 -42 -181 0 c-141 0 -202
-4 -274 -19 -50 -11 -116 -23 -146 -26 -53 -7 -54 -7 -47 16 19 63 18 96 -4
147 -18 42 -20 57 -12 82 8 21 8 39 0 60 -10 30 -8 33 54 90 72 65 153 177
197 270 22 45 31 84 36 146 4 46 10 84 14 84 3 0 82 -79 176 -175z m-2585 25
c25 -49 71 -99 165 -181 156 -137 182 -193 165 -353 -14 -124 -19 -146 -36
-146 -18 0 -21 10 -27 83 -7 82 -45 139 -127 194 -115 78 -159 134 -179 231
-14 70 -14 188 1 254 l12 53 6 -55 c4 -31 13 -67 20 -80z m3495 105 c21 -4 55
-15 75 -25 l36 -19 -80 -85 c-96 -101 -121 -113 -182 -90 -37 14 -49 15 -74 4
-34 -14 -36 -18 -14 -35 14 -10 7 -14 -41 -28 -32 -9 -62 -14 -68 -10 -10 6
-3 136 11 188 12 42 86 86 171 101 64 12 84 12 166 -1z m185 -106 c0 -8 -122
-60 -128 -54 -2 2 13 24 34 49 39 44 39 44 67 28 15 -9 27 -19 27 -23z m76
-123 c36 -68 55 -118 62 -164 6 -37 14 -80 17 -97 l7 -30 -104 0 c-102 0 -107
-1 -228 -49 -14 -6 -15 3 -12 58 3 48 -1 81 -18 130 -13 40 -19 74 -15 88 8
25 44 68 56 68 24 0 159 74 159 87 0 33 27 1 76 -91z m-656 18 l0 -76 -46 7
c-80 12 -80 12 -17 80 32 34 59 63 61 64 1 0 2 -33 2 -75z m-3590 -74 c36 -5
88 -12 115 -15 56 -7 162 -54 280 -124 44 -26 103 -60 130 -76 70 -39 143 -95
162 -124 15 -23 35 -142 24 -140 -3 0 -24 28 -46 62 -41 63 -99 111 -147 123
-44 10 -35 -20 16 -55 24 -17 59 -48 78 -70 40 -47 87 -128 67 -115 -120 74
-119 74 -208 74 -109 0 -153 12 -202 57 -49 44 -80 97 -108 184 -13 38 -37 84
-57 107 -32 38 -140 102 -171 102 -7 0 -13 5 -13 10 0 12 -2 12 80 0z m1697
-332 c55 -46 121 -95 146 -110 26 -15 47 -32 47 -37 0 -5 -26 -12 -58 -16 -91
-10 -214 41 -256 108 -32 50 -27 137 7 137 8 0 59 -37 114 -82z m2580 56 c37
-7 44 -34 28 -109 -21 -101 -22 -102 -157 -82 -62 9 -135 19 -161 22 -59 8
-67 24 -34 73 19 29 38 42 93 62 122 44 157 49 231 34z m-4143 -55 c13 -7 30
-25 37 -42 12 -28 11 -32 -17 -54 -70 -58 -102 -75 -132 -68 -36 8 -182 92
-182 105 0 6 12 10 28 11 20 0 226 50 239 58 1 0 13 -4 27 -10z m153 -151 c29
-13 53 -26 53 -29 0 -4 -18 -19 -40 -34 -34 -24 -70 -64 -70 -80 0 -14 31 -1
99 44 85 56 150 77 203 67 45 -8 145 -73 151 -98 6 -23 3 -23 -32 3 -18 13
-44 21 -73 21 -48 1 -73 -10 -320 -140 -136 -72 -138 -72 -216 -72 -93 0 -168
18 -265 64 l-72 34 80 -1 c55 0 94 6 125 18 50 20 148 97 224 175 56 58 75 61
153 28z m1400 -44 c59 -22 78 -25 145 -20 62 4 79 2 89 -10 11 -14 10 -18 -6
-30 -52 -38 -145 -44 -210 -13 -43 20 -95 70 -95 90 0 12 1 12 77 -17z m-91
-72 c7 -10 50 -38 98 -62 125 -64 116 -75 -61 -75 -68 0 -123 1 -123 3 0 1 4
10 10 20 5 9 19 43 31 75 22 61 28 67 45 39z m387 -25 c8 -21 -4 -32 -48 -46
-43 -14 -129 -11 -89 3 12 4 43 18 70 31 59 28 61 28 67 12z m11 -99 c9 -36 7
-73 -6 -86 -6 -6 -54 -21 -107 -32 -86 -19 -284 -63 -414 -92 -26 -5 -50 -8
-52 -6 -2 2 10 33 28 68 44 86 75 103 165 87 82 -14 176 1 285 48 45 19 85 34
88 34 4 1 9 -9 13 -21z"/>
<path d="M4119 4456 c-111 -24 -186 -100 -290 -296 -34 -63 -75 -134 -91 -158
-32 -47 -91 -82 -137 -82 -36 0 -46 -13 -25 -31 24 -20 86 -15 133 11 44 25
105 112 176 250 72 141 107 181 205 231 69 35 185 32 310 -8 196 -63 294 -86
390 -91 74 -3 104 0 134 12 62 26 33 36 -110 39 -125 4 -133 5 -284 56 -134
46 -292 83 -340 80 -8 0 -40 -6 -71 -13z"/>
<path d="M972 3966 c-28 -9 -55 -26 -49 -32 2 -2 58 -6 124 -8 101 -4 135 -9
214 -36 97 -32 183 -75 280 -141 151 -101 279 -162 279 -131 0 8 -345 239
-396 265 -47 24 -153 62 -209 76 -63 15 -206 19 -243 7z"/>
<path d="M2655 3661 c-14 -23 -69 -74 -126 -117 -130 -98 -281 -233 -276 -247
6 -20 24 -17 52 9 16 15 59 46 97 70 160 103 246 176 287 244 44 74 12 113
-34 41z"/>
<path d="M2430 3120 c0 -24 62 -96 99 -114 24 -13 84 -24 169 -31 21 -2 161
-7 312 -10 292 -7 320 -11 435 -68 54 -27 179 -111 238 -160 49 -42 67 -43 51
-2 -13 34 -146 150 -219 190 -142 80 -229 94 -605 99 -189 2 -309 8 -334 16
-21 6 -60 32 -86 56 -53 50 -60 52 -60 24z"/>
<path d="M1710 3069 c0 -30 74 -99 147 -137 89 -47 113 -66 172 -139 48 -59
61 -65 61 -27 0 19 -20 47 -72 101 -74 76 -114 108 -223 175 -62 39 -85 46
-85 27z"/>
<path d="M1724 2925 c4 -14 2 -25 -4 -25 -5 0 -10 5 -10 10 0 6 -4 10 -10 10
-16 0 -11 -42 7 -62 16 -18 16 -22 -1 -66 -11 -26 -24 -72 -29 -104 -13 -70 1
-95 70 -129 63 -31 141 -31 201 -1 23 12 43 28 43 35 1 6 2 19 3 27 1 8 -4 27
-11 41 -7 15 -17 48 -23 74 -14 62 -41 99 -95 130 -24 14 -49 33 -56 41 -10
12 -14 12 -20 2 -6 -9 -14 -5 -29 15 -27 34 -44 35 -36 2z m46 -201 c0 -62 2
-68 34 -100 l34 -34 -27 0 c-73 0 -111 101 -69 183 17 34 28 16 28 -49z"/>
<path d="M1458 2453 c-3 -24 -7 -28 -35 -28 -18 0 -33 -5 -33 -11 0 -11 68
-44 89 -44 15 0 28 64 18 88 -14 31 -35 28 -39 -5z"/>
<path d="M1290 2359 c0 -7 17 -28 39 -48 27 -26 43 -52 54 -91 9 -31 27 -66
41 -79 35 -33 101 -39 152 -13 38 19 174 138 174 152 0 4 -16 15 -35 26 -34
18 -35 18 -48 0 -12 -16 -23 -18 -73 -13 -81 8 -105 14 -181 42 -83 32 -123
39 -123 24z m280 -134 c-26 -15 -68 -19 -94 -9 -35 14 -12 24 52 24 63 -1 66
-2 42 -15z m10 -50 c0 -13 -58 -26 -87 -20 -54 10 -37 25 27 25 33 0 60 -2 60
-5z"/>
</g>
</svg>
