<?xml version="1.0" standalone="no"?>
<!DOCTYPE svg PUBLIC "-//W3C//DTD SVG 20010904//EN"
 "http://www.w3.org/TR/2001/REC-SVG-20010904/DTD/svg10.dtd">
<svg version="1.0" xmlns="http://www.w3.org/2000/svg"
 width="1024.000000pt" height="1024.000000pt" viewBox="0 0 1024.000000 1024.000000"
 preserveAspectRatio="xMidYMid meet">
<metadata>
Created by potrace 1.14, written by Peter Selinger 2001-2017
</metadata>
<g transform="translate(0.000000,1024.000000) scale(0.100000,-0.100000)"
fill="#000000" stroke="none">
<path d="M2921 10139 c-386 -457 -906 -1212 -1311 -1899 -267 -453 -425 -757
-491 -942 -85 -238 -118 -530 -85 -746 37 -241 167 -520 333 -715 296 -345
789 -474 1401 -368 59 11 150 22 202 26 174 12 452 66 653 126 38 11 71 18 73
16 3 -3 -2 -67 -10 -143 -17 -157 -41 -453 -57 -714 -16 -268 -24 -1969 -10
-2203 26 -428 96 -787 197 -1016 27 -61 23 -71 -33 -71 -51 0 -420 -48 -627
-81 -199 -32 -205 -32 -206 14 0 9 -16 115 -36 233 -25 151 -32 220 -25 227 7
7 22 5 50 -8 30 -13 54 -16 98 -12 172 18 250 47 360 137 54 44 89 83 173 192
41 53 18 114 -81 215 -180 185 -449 273 -829 273 -230 0 -430 -44 -577 -126
-93 -52 -204 -144 -266 -221 -84 -104 -157 -261 -157 -338 0 -40 37 -75 80
-75 15 0 83 -17 151 -39 68 -21 145 -44 171 -50 59 -14 218 -14 289 -1 30 6
80 13 112 15 l57 4 0 -137 c0 -75 -5 -204 -12 -286 -11 -134 -14 -149 -33
-156 -11 -4 -93 -31 -182 -60 -188 -60 -390 -156 -477 -227 -115 -93 -146
-207 -80 -291 64 -81 256 -147 507 -177 296 -34 996 -36 2147 -5 212 5 763 14
1225 20 1273 14 1570 23 1925 56 459 42 710 123 760 244 21 50 8 129 -29 183
-103 151 -450 292 -946 387 -60 11 -121 23 -134 26 -24 5 -24 6 -18 92 5 61
19 124 47 212 22 69 40 133 40 142 0 10 -14 27 -30 40 -31 22 -35 40 -24 97 5
23 13 33 33 37 39 9 109 52 121 74 8 16 21 19 78 18 79 0 124 16 179 65 39 36
39 36 114 30 101 -7 153 8 207 62 34 34 52 44 90 50 69 10 138 43 172 82 17
18 30 38 30 42 0 5 29 9 64 10 122 1 227 64 277 168 l21 44 -41 49 c-22 27
-41 52 -41 56 0 4 10 18 21 31 l22 22 -39 48 c-233 288 -580 697 -678 801
l-59 62 21 44 c12 24 22 52 22 62 0 32 -54 135 -117 224 -68 96 -71 101 -345
554 -141 232 -198 336 -195 350 3 12 9 31 12 44 7 19 1 25 -44 43 -28 12 -51
25 -51 30 0 7 -152 133 -251 209 -34 25 -45 80 -17 80 11 0 26 13 36 29 l16
29 43 -38 c71 -62 163 -93 163 -56 0 24 16 27 85 15 66 -11 117 -7 145 11 13
9 11 13 -10 30 l-25 20 113 0 c157 0 222 31 160 74 -12 9 -19 18 -16 22 4 3
42 7 86 8 79 1 112 14 112 42 0 9 8 12 28 8 38 -8 136 11 189 37 33 16 42 25
38 39 -4 13 1 19 20 24 15 4 45 24 68 44 23 21 59 50 80 65 47 35 70 80 69
133 0 50 -19 88 -64 131 -41 39 -76 53 -135 53 -54 0 -163 -45 -163 -67 0 -11
5 -13 18 -8 39 17 119 17 150 1 59 -30 71 -102 26 -151 -23 -25 -30 -27 -78
-23 -107 9 -245 104 -284 196 l-21 49 35 87 c19 48 38 115 42 149 l7 62 83 5
c45 3 83 8 83 13 4 22 -15 136 -35 221 -13 53 -22 96 -19 96 2 0 22 -12 45
-26 23 -15 61 -29 83 -32 37 -4 44 -1 68 27 46 55 97 266 97 400 l0 80 -55 12
c-44 10 -55 16 -49 28 3 9 8 52 11 97 13 190 -55 361 -198 503 l-60 59 118 63
c344 183 532 329 654 511 23 35 57 81 76 102 47 57 127 217 168 338 100 301
130 767 69 1088 -24 126 -62 240 -81 240 -8 0 -13 -6 -10 -13 69 -179 91 -325
91 -597 1 -309 -32 -544 -104 -740 -27 -74 -96 -214 -85 -174 17 66 35 183 35
230 0 129 -49 272 -128 377 -136 180 -467 331 -862 392 -142 22 -518 31 -690
16 -723 -63 -1527 -307 -2566 -779 -647 -294 -1048 -510 -1464 -787 -332 -222
-587 -430 -812 -664 -388 -404 -557 -729 -558 -1072 0 -139 22 -235 79 -354
49 -101 92 -161 183 -253 121 -122 275 -215 448 -270 86 -27 123 -35 285 -60
94 -15 -162 -36 -354 -29 -247 9 -422 52 -596 146 -267 144 -477 410 -585 742
-51 154 -63 250 -57 444 11 367 92 582 460 1224 348 608 790 1282 1153 1758
109 142 299 377 357 441 20 21 20 22 1 22 -12 -1 -52 -40 -103 -101z m4562
-429 c356 -22 682 -105 889 -227 96 -57 211 -167 251 -241 l28 -52 -169 0
c-196 0 -316 -10 -532 -46 -784 -130 -1775 -515 -2414 -939 l-29 -19 5 188 c4
179 4 189 -14 194 -24 6 -26 2 78 184 186 327 361 590 486 731 l43 49 175 43
c357 87 625 126 1005 143 17 1 106 -3 198 -8z m-1494 -272 c-108 -128 -355
-516 -503 -789 l-46 -86 -100 -7 c-175 -12 -370 -50 -504 -98 -58 -21 -59 -21
-73 -2 -24 33 -63 172 -74 270 -13 106 -4 278 14 292 23 19 363 159 612 254
133 50 531 185 665 225 72 22 73 16 9 -59z m2664 -281 c26 -19 47 -112 47
-213 0 -184 -71 -366 -204 -524 l-28 -34 -66 12 c-219 40 -307 46 -637 46
-512 0 -864 -49 -1145 -159 -52 -20 -120 -41 -151 -46 -31 -4 -81 -17 -110
-28 -30 -11 -71 -23 -92 -27 -20 -3 -67 -26 -104 -49 l-66 -43 -41 15 c-59 21
-162 27 -227 14 -31 -7 -81 -27 -110 -46 -55 -34 -207 -115 -218 -115 -3 0 -5
42 -3 94 l3 95 107 69 c619 402 1582 773 2329 896 296 49 677 72 716 43z
m-3991 -299 c-4 -161 12 -261 57 -369 l28 -66 -61 -31 c-156 -81 -311 -209
-462 -384 l-49 -57 -50 19 c-147 58 -354 287 -414 461 -38 108 -58 87 234 234
257 130 691 334 710 335 6 0 9 -52 7 -142z m828 -381 c0 -127 -22 -532 -29
-540 -4 -4 -33 7 -65 24 -80 44 -146 59 -256 59 -118 0 -183 -16 -323 -81
-210 -96 -325 -197 -401 -353 -59 -120 -76 -186 -83 -331 -18 -366 152 -602
482 -670 44 -9 81 -18 83 -20 2 -2 -2 -46 -8 -98 -15 -114 -2 -280 31 -403 26
-96 25 -113 -5 -180 -54 -117 -150 -183 -281 -192 -61 -4 -74 -1 -97 17 -60
47 -43 138 33 187 50 31 41 52 -13 30 -46 -20 -96 -70 -119 -121 -26 -57 -25
-159 1 -203 40 -65 186 -106 282 -80 23 7 25 5 21 -12 -7 -27 10 -26 76 5 l53
25 -16 -25 c-9 -13 -16 -29 -16 -35 0 -27 106 6 161 50 l37 29 6 -25 c10 -39
92 -120 142 -141 37 -15 44 -22 44 -45 0 -29 17 -37 38 -16 6 6 14 9 17 6 3
-3 10 -65 15 -139 13 -170 46 -490 65 -637 l16 -112 -92 -117 c-224 -287 -322
-479 -292 -570 9 -26 2 -36 -130 -178 -272 -293 -542 -630 -595 -744 -22 -47
-23 -58 -13 -86 10 -30 9 -37 -24 -86 -41 -63 -52 -96 -38 -118 14 -23 84 -61
112 -61 14 0 39 -16 63 -41 54 -56 114 -81 193 -80 61 0 63 -1 89 -37 50 -72
132 -111 235 -112 57 0 67 -3 99 -31 56 -50 117 -73 192 -73 36 0 80 6 97 13
28 12 35 11 60 -7 57 -40 117 -64 176 -70 l62 -7 18 -79 c17 -74 17 -79 1 -91
-24 -17 -20 -73 9 -160 24 -69 24 -71 8 -130 -23 -83 -60 -141 -134 -212 -195
-188 -442 -264 -811 -250 -334 12 -606 93 -695 206 -46 58 -136 247 -179 377
-69 202 -107 404 -139 736 -15 150 -17 291 -15 1058 1 487 7 995 12 1130 36
863 155 1749 346 2590 49 217 147 599 164 644 30 79 251 316 380 408 229 162
544 255 908 267 l42 1 0 -63z m-1810 -37 c60 -186 279 -436 434 -495 45 -17
55 -28 37 -40 -11 -6 -21 -35 -52 -154 l-22 -84 -101 6 c-180 11 -402 62 -691
157 -208 70 -437 161 -438 175 -1 12 165 129 334 236 159 99 450 268 465 269
6 0 22 -31 34 -70z m4433 -31 c157 -14 317 -41 320 -54 3 -17 -195 -176 -300
-241 -54 -34 -157 -92 -228 -130 l-131 -68 -49 37 c-122 94 -278 137 -419 117
-91 -13 -163 -38 -226 -78 l-45 -28 -70 48 c-72 48 -168 90 -251 108 -25 6
-62 24 -82 40 -21 16 -48 38 -61 49 l-25 18 30 16 c134 69 458 136 804 166
143 12 593 12 733 0z m-1543 -234 l55 -34 -51 -1 c-61 0 -114 -9 -114 -20 0
-4 53 -9 118 -12 96 -4 133 -11 204 -35 192 -67 403 -254 514 -457 31 -58 34
-68 18 -62 -80 31 -145 48 -192 49 -53 2 -55 1 -64 -28 -6 -16 -12 -129 -15
-249 l-6 -219 -32 89 c-29 82 -71 174 -79 174 -1 0 17 -54 40 -119 66 -182 97
-345 97 -521 1 -141 -21 -300 -44 -324 -5 -5 -24 5 -46 25 -60 55 -103 77
-174 90 l-65 12 -2 92 c-2 105 -30 258 -73 387 -31 97 -89 241 -95 236 -1 -2
16 -62 38 -133 l42 -130 -12 -135 c-6 -74 -21 -164 -32 -200 -20 -66 -75 -169
-109 -204 -18 -18 -19 -18 -38 1 -16 16 -21 40 -26 121 -5 63 -20 152 -41 234
-39 151 -93 308 -107 308 -14 0 -11 -15 27 -128 35 -102 37 -113 38 -247 1
-138 -14 -235 -49 -318 -10 -23 -14 -26 -23 -14 -7 8 -18 32 -26 53 -7 21 -17
37 -22 34 -10 -6 -10 -15 0 -47 23 -72 -94 44 -148 146 -43 81 -91 219 -102
286 -4 30 -11 45 -21 45 -19 0 -13 -34 23 -154 14 -44 34 -112 45 -150 11 -38
31 -93 45 -121 13 -29 24 -55 24 -59 0 -12 -57 23 -88 54 -38 38 -46 38 -38 0
7 -37 1 -37 -55 -2 -72 46 -124 128 -155 247 -20 74 -28 256 -15 370 5 54 8
101 5 104 -2 3 -10 -1 -16 -7 -26 -26 -21 -364 8 -672 5 -53 5 -54 -11 -35
-32 38 -85 160 -110 257 -21 80 -25 115 -23 199 3 98 4 103 26 109 29 6 25 26
-5 22 -21 -2 -23 2 -24 40 l-1 43 -12 -48 c-8 -36 -18 -52 -43 -67 -30 -18
-93 -93 -93 -111 0 -4 24 17 54 47 30 30 59 54 64 54 5 0 7 -66 4 -164 -5
-165 9 -356 30 -417 10 -29 9 -34 -13 -50 -24 -18 -24 -18 -51 14 -37 43 -83
139 -103 212 -43 159 -27 445 41 714 18 74 32 137 29 139 -7 8 -66 -193 -92
-318 -23 -109 -27 -149 -27 -310 -1 -146 3 -198 17 -246 12 -45 14 -69 7 -90
-17 -52 -40 -253 -40 -351 0 -111 20 -247 29 -199 6 28 6 28 28 -17 33 -68 86
-122 145 -147 44 -19 64 -21 118 -17 l65 6 -25 -19 c-14 -11 -28 -20 -32 -20
-5 0 -8 -5 -8 -11 0 -8 19 -10 60 -6 33 3 60 2 60 -3 0 -4 -24 -18 -52 -31
-46 -21 -68 -24 -173 -24 -112 0 -124 2 -180 29 -71 35 -137 94 -172 153 -24
42 -43 55 -43 31 0 -7 9 -28 20 -46 16 -26 18 -37 9 -48 -13 -16 -116 -50
-125 -41 -3 3 7 23 24 44 16 21 35 53 41 72 21 66 9 219 -20 237 -7 4 -8 -10
-4 -42 9 -58 -2 -52 -38 21 -39 77 -57 152 -71 292 l-14 128 -1 -103 c-2 -168
47 -341 116 -414 22 -23 24 -31 18 -70 -10 -59 -39 -112 -75 -138 -39 -27 -31
-40 26 -40 43 0 90 16 125 42 14 10 25 5 65 -31 60 -53 106 -77 187 -97 41
-11 74 -27 99 -50 82 -73 263 -143 428 -164 123 -16 133 -19 93 -34 -18 -6
-44 -23 -58 -39 -17 -17 -36 -27 -54 -27 -40 0 -109 26 -147 55 -44 34 -57 32
-49 -5 4 -18 3 -30 -4 -30 -5 0 -19 14 -31 30 -12 17 -25 30 -29 30 -4 0 -13
-17 -19 -37 -7 -21 -23 -51 -36 -68 -27 -33 -25 -35 -46 48 -7 26 -17 50 -22
53 -19 12 -21 -8 -6 -56 19 -57 17 -59 -56 -34 -63 22 -121 77 -135 132 -7 23
-15 42 -20 42 -4 0 -13 -17 -19 -38 -12 -41 -86 -124 -89 -100 -1 7 -5 34 -8
61 -8 58 -25 62 -25 6 l0 -40 -52 28 c-57 31 -103 87 -118 145 -6 21 -13 38
-15 38 -3 0 -24 -20 -48 -43 -24 -24 -58 -49 -76 -55 -32 -11 -33 -11 -26 11
22 73 45 177 45 211 0 63 -20 30 -32 -53 -9 -64 -14 -74 -49 -106 -50 -45 -67
-45 -40 1 34 58 27 73 -16 32 -21 -21 -55 -44 -75 -53 -78 -32 -200 -10 -254
46 -26 27 -29 37 -29 97 0 41 6 77 15 92 l15 25 3 -39 c7 -83 66 -122 171
-114 120 9 230 85 285 200 l34 70 9 -73 c10 -74 10 -74 18 -32 5 29 11 40 21
36 20 -8 18 1 -21 81 -73 149 -105 393 -74 562 15 81 29 92 29 21 0 -31 5 -57
10 -57 13 0 12 -11 15 215 2 205 17 322 60 470 42 147 134 323 219 419 26 29
27 49 1 39 -21 -7 -19 1 11 61 71 143 181 237 364 315 104 45 177 61 269 61
80 0 107 13 55 26 -27 7 -156 -1 -190 -11 -10 -4 -5 2 11 11 39 23 170 31 241
15 30 -7 54 -16 54 -20 0 -4 -11 -18 -25 -31 -24 -23 -33 -50 -17 -50 5 0 21
14 38 31 36 39 142 119 157 119 6 0 1 -7 -11 -16 -12 -8 -22 -22 -22 -30 0
-16 16 -19 25 -4 13 21 103 75 160 97 88 32 130 30 195 -12z m974 -154 c82
-29 122 -55 275 -178 6 -5 -15 -83 -34 -129 l-14 -34 -48 36 c-101 78 -249
123 -356 110 -84 -11 -82 -21 3 -18 53 3 97 -1 136 -13 69 -20 175 -74 221
-113 l32 -27 -35 -48 c-19 -26 -41 -50 -49 -53 -7 -3 -31 14 -55 39 -22 25
-56 52 -75 61 -46 22 -128 37 -139 25 -6 -5 0 -9 15 -9 55 0 123 -33 172 -83
41 -42 46 -52 35 -63 -18 -19 -121 -54 -155 -54 -45 0 -102 48 -128 107 -33
74 -103 178 -163 244 -29 31 -52 59 -52 62 0 9 118 57 181 73 64 16 189 16
233 -2 13 -5 17 -4 13 3 -11 17 -91 33 -167 33 -82 0 -169 -20 -243 -56 -47
-22 -52 -23 -69 -8 -9 9 -15 21 -12 26 10 16 124 69 182 83 77 20 218 13 296
-14z m-2299 -35 c68 -14 175 -60 175 -74 0 -25 -27 -31 -69 -16 -185 63 -433
26 -613 -92 -45 -30 -83 -52 -85 -51 -2 2 3 21 10 43 16 43 44 63 187 129 156
72 267 89 395 61z m-2368 -32 c349 -156 761 -273 1071 -305 78 -8 121 -17 119
-23 -3 -6 -10 -37 -17 -69 -15 -66 -3 -60 -169 -77 -147 -14 -308 -42 -501
-87 -678 -156 -1208 -373 -1587 -650 -40 -29 -74 -53 -77 -53 -12 0 49 150
100 250 103 198 254 389 495 625 160 155 469 415 496 415 7 0 38 -12 70 -26z
m2440 -85 l42 -14 -34 -41 c-34 -41 -35 -42 -77 -32 -67 15 -216 12 -288 -7
-62 -16 -174 -66 -195 -87 -5 -5 8 -2 30 7 101 43 163 58 270 62 109 5 195 -7
195 -28 0 -5 -11 -31 -24 -57 -13 -26 -29 -66 -35 -88 -6 -22 -33 -79 -61
-125 -27 -46 -50 -87 -50 -90 0 -3 -22 -9 -49 -12 -61 -7 -113 -33 -184 -91
l-55 -44 -29 31 c-17 18 -40 46 -51 63 l-22 32 60 58 c82 80 168 137 243 164
97 34 108 41 57 34 -97 -14 -214 -75 -327 -171 l-53 -45 -11 28 c-26 68 -40
170 -34 237 7 66 9 70 49 99 57 42 174 97 254 119 54 15 93 18 202 15 77 -2
153 -9 177 -17z m2624 -173 c74 -112 108 -259 89 -386 -5 -36 -10 -69 -10 -73
0 -5 -13 -6 -30 -3 -16 3 -44 9 -60 12 l-30 6 28 36 c40 51 59 91 66 137 l6
40 -20 -45 c-48 -103 -125 -170 -197 -170 -38 0 -45 3 -54 27 -5 14 -17 32
-27 39 -9 7 -15 14 -12 16 3 2 28 21 57 41 64 46 110 98 134 151 29 64 22 76
-11 19 -34 -60 -106 -125 -181 -164 -48 -26 -54 -27 -80 -13 -15 7 -38 14 -51
14 -20 0 -88 54 -88 71 0 3 21 9 46 13 144 19 265 134 310 291 l19 67 29 -34
c15 -18 46 -59 67 -92z m-3317 44 c-26 -125 -14 -256 35 -364 44 -98 155 -212
274 -280 51 -29 52 -31 36 -122 l-11 -62 -56 25 c-199 88 -359 253 -416 431
-27 84 -36 69 -10 -19 25 -86 81 -183 146 -254 65 -71 215 -176 289 -202 l45
-16 -4 -56 c-2 -31 -8 -60 -12 -65 -12 -12 -134 28 -195 63 -117 67 -225 199
-280 340 -16 39 -30 70 -32 68 -8 -8 32 -118 69 -188 83 -162 224 -275 396
-319 37 -9 42 -14 42 -38 0 -16 -6 -40 -12 -55 -16 -33 -43 -34 -147 -7 -277
72 -421 270 -421 580 0 188 35 319 116 442 36 53 152 174 160 165 1 -1 -4 -31
-12 -67z m2576 -175 c88 -23 177 -73 245 -137 l64 -60 -20 -28 -21 -28 -44 33
c-51 39 -168 86 -277 111 -70 16 -78 20 -73 39 3 11 6 35 6 53 0 29 3 32 33
32 17 0 57 -7 87 -15z m-3180 -107 c0 -7 -9 -56 -21 -109 l-22 -96 -181 -90
c-459 -229 -863 -492 -1215 -791 -140 -119 -445 -405 -538 -505 -34 -37 -66
-67 -70 -67 -11 0 -101 93 -140 145 -121 160 -180 375 -155 572 7 52 16 103
22 113 12 22 158 131 274 204 448 281 1236 538 1906 621 138 17 140 17 140 3z
m3223 -58 c91 -29 168 -70 196 -104 11 -13 12 -24 3 -55 l-12 -38 -62 31 c-59
30 -68 31 -185 31 l-123 0 0 46 c0 25 3 66 6 91 l6 45 39 -8 c22 -5 81 -22
132 -39z m-2187 -101 c-13 -28 -34 -86 -47 -129 l-22 -79 -31 16 c-53 27 -116
73 -116 85 0 35 173 158 222 158 15 0 15 -5 -6 -51z m2466 -41 c-20 -54 -37
-120 -40 -156 -7 -95 -27 -74 -26 29 1 86 23 159 61 201 38 42 39 16 5 -74z
m110 65 c18 -10 34 -18 35 -18 1 -1 -12 -41 -28 -90 -17 -50 -33 -121 -36
-158 -6 -66 -7 -68 -29 -63 -65 17 -74 24 -74 63 0 65 70 283 91 283 4 0 22
-8 41 -17z m78 -106 c0 -67 -15 -160 -32 -195 -8 -16 -23 -28 -37 -30 -24 -4
-24 -3 -18 55 5 47 28 130 62 221 10 28 25 -2 25 -51z m-377 3 c72 -27 84 -42
89 -121 l5 -66 -124 -23 c-143 -26 -176 -22 -209 27 -26 39 -42 182 -22 195 7
4 57 8 110 8 73 0 111 -5 151 -20z m702 -23 l90 -23 3 -47 c2 -26 0 -47 -3
-47 -4 0 -20 9 -36 21 -34 24 -192 66 -284 75 -53 6 -65 10 -65 25 0 9 6 20
13 23 25 12 194 -5 282 -27z m-4075 -16 c-4 -15 -20 -88 -35 -162 l-28 -134
-92 -95 c-146 -151 -260 -305 -412 -555 -109 -179 -280 -516 -342 -672 -15
-37 -21 -39 -171 -48 -192 -13 -437 26 -601 94 -81 34 -207 105 -254 145 l-30
25 105 106 c449 456 859 779 1345 1061 124 72 496 263 512 264 8 0 9 -9 3 -29z
m3933 -47 c103 -20 178 -48 207 -79 l23 -25 -17 -77 c-9 -42 -18 -78 -20 -80
-2 -2 -19 12 -39 31 -36 34 -193 119 -279 151 -45 16 -47 19 -42 49 12 65 -3
62 167 30z m-17 -159 c66 -32 128 -71 153 -96 38 -36 42 -45 37 -72 -8 -38
-30 -73 -54 -86 -31 -16 -135 39 -201 107 -69 72 -115 153 -107 189 9 33 29
28 172 -42z m-676 -5 l67 0 -18 -86 c-32 -154 -54 -344 -43 -362 14 -22 186
-109 247 -124 61 -16 66 -8 67 92 1 98 24 387 31 394 3 3 11 -49 18 -117 14
-143 40 -305 53 -329 6 -13 21 -18 49 -18 25 0 42 -5 45 -14 10 -27 -35 -178
-81 -270 -57 -117 -57 -65 0 77 5 11 2 17 -7 17 -18 0 -43 -61 -60 -143 -10
-48 -10 -65 2 -100 23 -64 44 -56 50 20 4 55 14 84 23 72 2 -2 16 -25 31 -52
31 -55 101 -113 183 -154 45 -21 72 -28 120 -28 l61 0 -14 -27 c-16 -31 -18
-48 -5 -48 6 0 24 30 42 66 45 92 47 159 4 204 -16 17 -40 33 -52 36 -27 7
-31 24 -5 24 70 0 150 -59 173 -127 16 -50 -2 -104 -46 -140 -20 -15 -55 -44
-78 -64 -59 -51 -78 -59 -152 -66 -63 -6 -67 -5 -96 23 -17 16 -40 46 -52 67
-35 63 -52 45 -18 -21 33 -63 73 -94 131 -100 27 -2 50 -8 50 -12 0 -15 -59
-33 -127 -38 -109 -7 -239 37 -357 122 -51 36 -81 39 -49 4 30 -33 159 -104
234 -128 39 -13 68 -28 66 -34 -2 -7 -36 -12 -86 -12 -45 -1 -85 -4 -88 -8 -4
-3 -17 -6 -30 -6 -33 0 -29 -15 13 -47 l37 -27 -29 -13 c-44 -19 -142 -16
-190 6 -47 21 -78 59 -123 149 -28 56 -51 79 -51 52 0 -19 68 -147 97 -180
l28 -33 -34 6 c-55 11 -120 55 -154 103 -31 44 -47 55 -47 31 0 -36 83 -116
151 -146 24 -10 53 -28 63 -40 l19 -21 -47 0 c-26 0 -76 7 -112 16 -36 9 -67
14 -70 11 -3 -3 0 -15 6 -27 6 -12 9 -24 7 -27 -13 -12 -88 37 -144 94 -33 35
-64 63 -67 63 -2 0 -6 -21 -8 -47 -4 -58 -21 -65 -84 -34 -23 12 -66 25 -94
28 -28 3 -47 9 -43 14 4 4 46 21 91 38 99 36 190 85 261 141 28 22 61 40 73
40 31 0 117 42 149 72 51 48 109 165 109 220 0 38 -18 15 -39 -49 -56 -173
-181 -245 -368 -213 -74 12 -122 34 -93 43 73 23 115 44 154 78 25 23 46 47
46 55 0 23 -14 16 -55 -26 -39 -40 -76 -50 -119 -34 -31 12 -18 34 21 34 85 0
173 75 238 202 18 37 39 94 46 125 13 66 7 212 -12 258 -8 20 -11 79 -10 171
2 124 -14 290 -35 357 -5 14 1 13 32 -8 30 -21 49 -25 104 -25z m256 23 c-17
-44 -77 -367 -83 -445 -3 -49 -9 -88 -12 -88 -3 0 -20 9 -37 19 l-31 19 8 67
c5 38 25 150 45 251 39 196 35 188 98 193 13 1 16 -4 12 -16z m48 1 c12 -5 16
-20 16 -58 0 -63 -31 -509 -36 -515 -2 -2 -22 1 -44 8 l-40 12 0 72 c0 40 7
110 15 157 17 97 67 330 71 330 1 0 9 -3 18 -6z m-154 -16 c0 -7 -15 -92 -34
-188 -19 -96 -39 -199 -43 -229 l-8 -53 -23 18 -23 19 21 130 c43 277 55 315
97 315 7 0 13 -6 13 -12z m267 -20 c17 -21 73 -392 73 -480 0 -23 -4 -28 -24
-28 -22 0 -26 6 -35 53 -14 73 -29 183 -41 312 -6 61 -13 120 -16 133 -3 17 0
22 15 22 10 0 23 -6 28 -12z m82 -27 c24 -46 84 -383 79 -444 -3 -39 -5 -42
-33 -42 l-30 0 -7 108 c-4 59 -19 173 -32 254 -24 139 -23 161 1 163 2 0 11
-17 22 -39z m-1008 -213 c13 -111 6 -188 -17 -188 -8 0 -14 -8 -14 -17 0 -9
-6 -24 -14 -32 -13 -14 -7 -16 59 -18 116 -2 179 -25 239 -87 28 -29 65 -80
83 -114 17 -34 34 -58 37 -54 3 5 8 28 12 50 5 31 2 48 -10 67 -15 23 -15 30
-2 81 8 31 17 58 20 61 10 10 18 -91 14 -180 -3 -81 -8 -102 -39 -167 -60
-126 -142 -200 -219 -200 -69 0 -92 -41 -44 -79 l25 -20 -33 -9 c-26 -6 -33
-13 -33 -33 0 -32 51 -57 133 -65 34 -4 62 -10 62 -14 0 -12 -120 -87 -192
-119 -37 -17 -98 -39 -135 -49 -62 -17 -96 -42 -58 -42 11 0 15 -5 11 -16 -11
-27 14 -108 45 -147 26 -31 29 -41 18 -53 -9 -11 -20 -13 -38 -8 -14 4 -51 8
-81 9 -30 1 -95 5 -145 9 -74 7 -95 5 -120 -8 -37 -20 -49 -20 -64 -2 -10 12
-7 18 18 31 46 23 64 57 56 104 -7 44 -23 51 -124 51 -184 0 -424 71 -541 158
l-34 26 76 12 c42 7 102 24 133 38 51 23 56 28 53 53 -3 24 -7 28 -35 27 -28
-2 -31 1 -30 25 l2 26 -85 -3 c-79 -3 -88 -1 -137 27 -58 34 -83 71 -133 191
-35 84 -36 119 -4 325 20 126 26 139 48 97 9 -18 30 -47 46 -65 l29 -34 -25
-34 c-66 -88 -76 -133 -45 -207 l17 -43 12 49 c23 100 118 224 196 257 18 8
56 17 84 21 l51 6 -24 32 c-13 18 -26 52 -30 81 -3 28 -8 66 -11 85 -5 35 -5
35 25 -15 16 -27 46 -67 66 -87 46 -47 141 -94 159 -79 9 8 22 7 44 -5 44 -22
91 -34 96 -25 3 4 -6 24 -19 44 -37 54 -30 55 24 4 44 -41 117 -87 139 -87 27
0 82 202 82 297 0 29 4 43 9 38 11 -11 33 -204 29 -250 -2 -20 2 -30 12 -30 8
-1 23 -5 32 -9 21 -10 50 10 84 55 63 83 107 210 120 342 6 61 9 67 15 43 5
-17 13 -74 20 -128z m1138 9 c30 -103 61 -271 52 -280 -5 -5 -23 -7 -42 -5
l-33 3 -3 65 c-2 36 -12 117 -23 181 -27 155 -26 159 4 130 13 -13 32 -52 45
-94z m-3949 79 c0 -8 -9 -56 -19 -107 -39 -192 -128 -769 -147 -952 -5 -47
-12 -70 -23 -76 -74 -40 -621 -155 -621 -131 0 13 87 204 156 342 161 322 356
619 548 837 88 100 106 114 106 87z m1798 -288 l31 -56 -31 -6 c-18 -3 -35 -3
-40 2 -13 13 -38 141 -37 192 l0 45 23 -61 c12 -34 36 -86 54 -116z m1042
-1090 c38 -20 46 -29 51 -60 4 -28 19 -49 57 -86 34 -31 52 -56 52 -71 0 -15
-5 -21 -13 -18 -41 16 -180 57 -192 57 -10 0 -5 14 16 45 37 54 51 125 25 125
-11 0 -16 -9 -16 -33 0 -18 -6 -42 -14 -52 -14 -19 -15 -19 -36 0 -24 21 -50
74 -50 100 0 23 68 19 120 -7z m-1340 -8 c0 -5 16 -26 36 -46 39 -38 110 -74
149 -74 12 0 29 -10 37 -22 l14 -21 31 22 c17 13 40 41 53 63 l22 39 22 -20
c28 -26 52 -27 59 -2 5 19 6 19 53 -5 31 -16 64 -24 97 -24 l49 0 -31 -35
c-17 -20 -31 -40 -31 -44 0 -19 -137 -149 -177 -170 -52 -26 -113 -78 -113
-97 0 -7 7 -28 16 -47 l16 -33 -116 -180 c-63 -98 -126 -192 -139 -209 l-25
-29 -6 39 c-22 142 -76 698 -76 793 0 41 6 61 23 82 23 30 37 37 37 20z m860
-35 c0 -31 -5 -38 -36 -52 l-36 -18 -26 33 c-15 18 -30 32 -34 32 -17 0 -6
-28 32 -78 27 -35 36 -54 28 -57 -7 -2 -57 -20 -112 -40 -54 -19 -101 -35
-103 -35 -14 0 10 66 34 94 16 17 37 50 47 74 17 38 24 44 75 58 31 8 61 17
66 19 6 2 22 4 38 4 24 1 27 -2 27 -34z m106 -121 c19 -5 20 -12 20 -110 -1
-57 -4 -104 -8 -104 -13 0 -57 105 -63 152 -10 65 -1 76 51 62z m112 -20 c2
-1 -8 -10 -22 -19 -14 -10 -26 -22 -26 -27 0 -6 7 -5 15 2 9 7 17 11 18 9 1
-2 1 -39 -1 -82 -3 -74 -5 -78 -25 -75 -20 3 -22 10 -25 73 -2 39 0 85 3 103
5 29 9 32 33 26 15 -4 29 -8 30 -10z m96 -71 c-13 -43 -27 -88 -30 -100 -4
-16 -14 -23 -30 -23 -32 0 -35 11 -27 100 7 66 11 76 33 87 14 7 37 13 52 13
l26 0 -24 -77z m-291 48 c4 -17 -10 -24 -107 -56 -222 -74 -412 -159 -446
-200 -15 -18 -30 -11 -30 14 0 23 52 59 160 110 93 44 375 150 401 151 9 0 19
-9 22 -19z m458 -10 c62 -16 174 -58 392 -148 20 -9 37 -19 37 -23 0 -3 -13
-27 -30 -53 l-29 -47 -33 19 c-18 11 -69 35 -113 55 -44 19 -115 55 -158 80
-43 24 -104 54 -135 67 -70 27 -65 23 -57 48 8 26 30 27 126 2z m269 -50 c32
-26 14 -26 -43 -2 -37 16 -45 23 -40 40 6 23 8 22 83 -38z m-1075 -8 c-28 -20
-41 -16 -20 7 10 11 22 17 28 13 6 -4 3 -12 -8 -20z m360 -6 c0 -13 -20 -27
-70 -48 -169 -72 -410 -184 -441 -205 l-34 -23 -11 21 c-8 14 -8 27 -1 43 14
29 136 92 302 153 245 90 255 93 255 59z m381 -17 c36 -16 105 -52 153 -79 47
-26 118 -61 158 -75 92 -35 105 -49 72 -82 l-24 -24 -227 113 c-124 61 -227
115 -227 119 -2 11 18 58 24 58 3 0 35 -13 71 -30z m-346 -60 c12 -29 11 -31
-45 -82 -175 -160 -356 -278 -407 -265 -32 8 -111 108 -102 130 3 9 27 26 52
39 122 58 459 206 473 207 9 1 22 -12 29 -29z m483 -117 c106 -53 194 -99 197
-101 5 -4 -101 -102 -111 -102 -43 -1 -347 274 -336 303 8 22 13 20 250 -100z
m-456 -260 l-7 -328 -25 -22 c-15 -13 -39 -23 -57 -23 l-31 0 7 93 c4 50 21
197 37 326 25 204 32 238 51 258 12 13 24 23 26 23 3 0 2 -147 -1 -327z m158
235 c-3 -51 -8 -116 -11 -145 l-5 -51 -31 8 c-16 5 -44 6 -60 3 -29 -6 -31 -4
-25 18 4 13 7 77 7 142 l0 117 66 0 66 0 -7 -92z m63 49 c20 -21 24 -47 42
-237 11 -118 20 -253 20 -302 l0 -88 -39 0 c-23 0 -48 8 -62 19 l-23 18 12
279 c7 154 12 291 12 307 0 33 10 34 38 4z m598 -62 c8 -20 19 -95 25 -168 18
-240 23 -248 251 -431 153 -123 186 -155 241 -232 77 -107 117 -183 117 -222
0 -40 -69 -145 -90 -136 -36 17 -169 16 -226 -1 -55 -16 -129 -53 -122 -61 2
-2 33 9 68 23 52 21 83 26 150 27 114 1 133 -5 153 -51 43 -104 31 -124 -79
-128 -56 -2 -112 -14 -194 -40 -185 -59 -182 -59 -225 29 -19 38 -24 42 -86
57 -36 9 -72 20 -79 24 -21 13 -47 86 -54 150 -9 79 -114 871 -121 913 -3 17
-11 32 -17 32 -14 0 -9 -44 36 -370 19 -140 47 -345 61 -454 29 -227 44 -274
98 -299 19 -9 45 -17 57 -17 36 0 77 -28 88 -60 14 -39 56 -80 81 -80 17 0 20
-5 15 -27 -12 -70 37 -126 121 -139 24 -3 52 -15 61 -25 29 -32 49 -26 179 44
46 25 54 51 30 96 -25 49 8 40 42 -11 33 -49 51 -54 72 -17 30 54 -12 143 -75
155 l-34 6 32 17 c41 20 47 58 23 132 -18 53 -14 82 10 77 8 -2 78 -75 155
-163 129 -149 139 -163 140 -201 0 -57 19 -153 37 -189 8 -16 51 -67 96 -112
79 -80 80 -82 56 -92 -57 -25 -152 -43 -263 -48 l-119 -6 -16 -31 c-9 -17 -43
-58 -76 -92 -64 -64 -126 -95 -229 -115 -73 -14 -186 -11 -244 6 -58 17 -87 9
-127 -35 -27 -30 -122 -77 -192 -95 -74 -19 -220 -19 -303 1 -36 8 -89 28
-117 44 -75 43 -97 40 -174 -22 -20 -16 -67 -40 -105 -53 -154 -55 -362 -16
-471 87 -37 35 -48 35 -163 -8 -67 -25 -88 -28 -200 -28 -110 0 -135 4 -203
27 -82 28 -146 64 -186 103 -28 28 -51 30 -132 7 -51 -14 -71 -15 -137 -5 -90
14 -182 56 -240 109 l-41 38 107 250 c60 138 118 268 129 290 27 51 261 307
276 302 23 -7 57 -82 57 -124 0 -60 17 -91 56 -102 19 -5 43 -7 54 -4 33 9 25
-29 -15 -67 -22 -21 -35 -43 -35 -59 0 -35 42 -85 71 -87 13 0 38 -7 54 -14
78 -33 93 -38 132 -45 39 -6 45 -4 75 28 18 19 42 38 54 41 44 13 64 44 64 97
l0 50 34 -6 c37 -7 52 7 96 95 13 25 45 78 71 119 l49 74 0 141 c0 199 35 566
61 633 10 28 -6 40 -20 15 -28 -53 -58 -318 -67 -607 l-7 -180 -52 -85 c-29
-47 -64 -106 -79 -132 -15 -27 -31 -48 -35 -48 -5 0 -28 7 -52 16 -82 29 -194
46 -324 49 -71 2 -133 3 -136 4 -13 2 -29 54 -29 94 0 32 -9 57 -35 97 -39 62
-50 104 -41 154 8 43 191 237 311 331 165 129 201 188 216 353 6 56 16 120 24
142 13 36 112 200 121 200 2 0 21 -26 42 -58 51 -74 100 -122 126 -122 12 0
48 14 80 30 32 17 60 30 61 30 1 0 -7 -25 -17 -56 -34 -100 -51 -207 -52 -329
l-1 -120 37 -3 c20 -2 66 6 101 17 36 11 100 24 143 30 92 13 118 28 134 76 8
26 16 35 27 31 8 -3 33 -6 56 -6 34 0 44 -4 52 -22 15 -33 63 -44 218 -51 131
-6 139 -5 159 15 18 18 20 28 14 87 -5 59 -54 278 -72 325 -7 17 -5 17 24 2
58 -30 72 -23 188 92 60 59 113 109 117 110 4 1 15 -14 23 -33z m-916 -126
c-10 -79 -26 -218 -35 -309 -10 -91 -18 -165 -19 -166 0 -1 -16 -4 -33 -7
l-33 -6 0 52 c0 55 21 270 41 425 11 90 13 94 52 127 22 19 42 34 44 32 1 -2
-6 -68 -17 -148z m449 -94 c12 -93 24 -209 27 -257 l7 -88 -37 0 -36 0 0 54
c0 55 -24 376 -36 471 l-6 50 30 -30 c30 -29 31 -36 51 -200z m-568 -36 c-11
-96 -22 -218 -23 -272 l-3 -97 -40 -11 c-22 -6 -53 -12 -70 -13 l-30 -1 3 90
c4 116 25 239 58 337 22 68 32 83 71 113 26 20 48 33 50 31 2 -2 -5 -82 -16
-177z m644 111 c20 -45 73 -257 81 -326 4 -29 4 -64 0 -78 -6 -23 -11 -26 -50
-26 l-44 0 -7 78 c-3 42 -15 150 -26 239 -10 89 -19 167 -19 173 0 20 49 -25
65 -60z m624 -229 c94 -156 170 -285 169 -286 -2 -2 -48 33 -103 77 -213 170
-219 177 -235 291 -14 96 -20 221 -10 211 4 -5 85 -137 179 -293z m-925 166
c17 -12 18 -27 14 -146 -6 -151 -10 -160 -76 -144 l-37 9 -3 70 -3 70 37 0
c43 0 64 23 64 70 0 41 -21 57 -65 52 -38 -4 -46 5 -17 21 24 15 65 13 86 -2z
m-30 -60 c15 -24 -4 -52 -35 -52 -31 0 -40 42 -13 62 21 16 34 13 48 -10z
m-919 -200 c-23 -91 -66 -147 -190 -246 -60 -49 -140 -120 -177 -159 -38 -38
-68 -67 -68 -63 0 16 105 175 184 276 46 61 124 165 173 233 l88 122 3 -50 c2
-28 -4 -78 -13 -113z m2160 -957 c10 -11 29 -20 42 -20 36 0 73 -42 73 -84 0
-45 -13 -53 -31 -18 -30 61 -46 70 -94 52 l-27 -10 21 -34 c23 -37 28 -76 9
-76 -7 0 -24 21 -38 47 -25 46 -50 67 -50 41 0 -7 9 -24 20 -38 24 -30 26 -63
5 -80 -18 -15 -16 -17 -45 43 -13 26 -27 47 -31 47 -17 0 -17 -18 2 -46 21
-32 25 -69 8 -80 -7 -4 -38 22 -73 60 -55 59 -86 80 -86 59 0 -4 14 -22 32
-40 18 -18 26 -33 20 -33 -26 0 -81 29 -91 48 -12 23 -14 81 -3 98 4 7 45 23
92 38 170 51 217 56 245 26z m-2201 -41 c87 -17 96 -24 96 -68 0 -53 -7 -69
-41 -86 -38 -20 -42 -19 -35 10 4 14 3 25 -2 25 -16 0 -32 -24 -32 -48 0 -31
-17 -62 -35 -62 -18 0 -21 80 -4 112 16 29 0 37 -22 9 -12 -15 -19 -39 -19
-67 0 -46 -16 -58 -40 -29 -12 15 -10 85 4 118 6 12 4 17 -7 17 -18 0 -37 -50
-37 -98 0 -33 -1 -34 -22 -20 -26 18 -34 57 -18 88 6 12 9 25 5 28 -12 12 -45
-39 -45 -69 0 -35 -13 -37 -34 -7 -23 32 -20 46 19 89 19 22 35 49 35 60 0 21
2 22 92 15 50 -4 114 -12 142 -17z m2775 -274 c69 -83 156 -187 194 -233 64
-76 69 -85 59 -107 -7 -14 -15 -25 -19 -24 -5 0 -26 23 -48 51 -55 70 -69 77
-97 51 -54 -49 -128 -68 -309 -79 l-108 -7 -27 -38 c-62 -89 -158 -155 -271
-184 -73 -19 -210 -19 -292 0 l-65 16 -35 -34 c-145 -138 -390 -169 -645 -82
-98 33 -100 33 -125 16 -51 -36 -132 -72 -198 -87 -133 -31 -317 2 -447 81
l-59 36 -56 -25 c-90 -39 -140 -50 -246 -50 -146 0 -258 36 -390 128 -58 41
-62 42 -95 30 -19 -7 -69 -13 -111 -13 -114 -1 -231 38 -349 118 -55 37 -66
38 -74 6 -3 -13 -11 -36 -16 -50 -9 -25 -11 -25 -40 -10 -49 26 -100 75 -100
99 0 26 71 142 153 251 80 105 240 295 245 291 2 -3 -42 -111 -97 -242 l-101
-237 22 -25 c42 -43 134 -98 206 -121 72 -23 150 -25 279 -5 38 5 47 3 78 -25
50 -44 138 -86 222 -106 100 -24 282 -17 368 15 101 37 109 37 156 -4 24 -20
79 -50 123 -67 173 -67 372 -42 490 62 19 16 44 31 54 32 11 0 48 -13 83 -30
206 -101 490 -75 633 57 l46 43 47 -14 c61 -17 223 -17 293 0 119 30 234 107
281 190 l21 38 101 7 c56 4 133 14 171 22 71 15 156 47 156 60 0 4 -38 44 -85
88 -95 92 -122 141 -131 238 -6 75 -24 89 155 -127z m126 -285 c3 -5 -1 -10
-10 -10 -9 0 -13 5 -10 10 3 6 8 10 10 10 2 0 7 -4 10 -10z m47 -130 c-122
-109 -480 -263 -915 -396 -388 -118 -461 -130 -869 -145 -506 -19 -912 5
-1204 70 -487 110 -533 125 -822 270 -181 92 -178 89 -163 134 14 40 13 40 35
31 13 -5 12 -9 -6 -23 -26 -21 -19 -46 16 -62 31 -15 56 -5 56 20 0 18 3 19
25 9 23 -11 24 -12 9 -29 -20 -22 -12 -46 20 -60 36 -17 59 -5 53 27 -3 20 -1
24 12 19 9 -4 52 -15 97 -24 68 -14 79 -19 67 -30 -27 -25 7 -58 49 -48 32 8
45 37 23 53 -14 10 -13 12 7 18 37 9 51 7 45 -8 -9 -24 22 -56 54 -56 22 0 29
-5 29 -20 0 -24 41 -53 64 -44 39 15 6 73 -41 74 -16 0 -23 6 -23 20 0 12 -10
25 -25 32 -14 6 -25 15 -25 20 0 10 8 6 70 -38 116 -82 250 -125 395 -126 50
0 110 5 135 11 88 23 87 23 68 11 -24 -14 -23 -47 1 -55 10 -3 31 -1 45 5 35
13 33 51 -3 60 -21 5 -20 7 18 23 40 18 42 18 69 -2 15 -10 54 -31 86 -45 195
-86 397 -80 559 18 l58 35 87 -29 c146 -48 300 -63 423 -40 71 14 187 69 236
113 l39 36 80 -14 c240 -43 441 26 555 191 l30 44 77 0 c91 0 195 14 252 34
39 13 40 13 40 -10 0 -14 7 -27 15 -30 22 -9 65 23 65 49 1 20 5 18 36 -18
l36 -40 -40 -35z m-62 80 c-8 -5 -19 -10 -25 -10 -5 0 -3 5 5 10 8 5 20 10 25
10 6 0 3 -5 -5 -10z m164 -109 c43 -44 43 -55 -4 -119 -51 -71 -63 -71 -110
-2 -23 34 -40 65 -38 69 3 10 100 89 108 90 3 1 23 -17 44 -38z m-4096 -103
c70 -39 129 -73 132 -76 8 -6 -62 -133 -77 -139 -17 -7 -88 40 -109 72 -10 15
-26 25 -41 25 -30 0 -102 36 -109 55 -6 15 55 135 68 135 5 0 65 -32 136 -72z
m87 34 c-3 -3 -11 0 -18 7 -9 10 -8 11 6 5 10 -3 15 -9 12 -12z m3868 -58 c22
-30 36 -61 34 -68 -7 -18 -95 -38 -152 -35 -42 3 -47 0 -65 -28 -27 -46 -79
-81 -140 -95 -49 -11 -54 -11 -64 6 -6 10 -21 34 -34 54 -13 19 -20 38 -15 43
4 4 50 24 102 45 52 20 135 59 185 85 50 26 96 48 101 48 6 0 27 -24 48 -55z
m-5665 4 c35 -135 222 -216 349 -150 49 26 83 66 83 98 0 31 8 30 93 -10 104
-50 102 -47 78 -87 -56 -95 -46 -204 24 -275 29 -29 39 -44 30 -48 -27 -10
-174 -26 -340 -36 -789 -49 -1067 -78 -1223 -128 -96 -30 -115 -26 -120 30 -3
37 34 148 69 205 l21 34 19 -30 c77 -127 279 -70 279 78 0 57 -26 109 -68 136
-17 11 -31 23 -32 26 0 13 131 91 197 118 128 52 267 78 429 80 l102 1 10 -42z
m197 32 c111 -16 207 -43 213 -58 9 -25 -29 -80 -67 -98 -54 -26 -124 -30
-177 -9 -77 29 -144 101 -144 155 0 18 6 20 53 20 28 0 83 -5 122 -10z m1710
-30 c3 -5 2 -10 -4 -10 -5 0 -13 5 -16 10 -3 6 -2 10 4 10 5 0 13 -4 16 -10z
m385 -52 c0 -6 -6 -5 -15 2 -8 7 -15 14 -15 16 0 2 7 1 15 -2 8 -4 15 -11 15
-16z m-127 -5 c-7 -2 -19 -2 -25 0 -7 3 -2 5 12 5 14 0 19 -2 13 -5z m-196
-64 c48 -23 129 -57 178 -76 50 -19 92 -37 94 -38 2 -2 -13 -34 -34 -70 -36
-66 -36 -66 -73 -59 -70 11 -141 53 -179 105 l-37 48 -58 -6 c-32 -3 -58 -2
-58 3 -1 14 64 134 72 134 4 0 46 -19 95 -41z m-1236 -78 c77 -70 125 -150
110 -180 -15 -27 -63 -60 -99 -67 -60 -12 -139 59 -149 135 -10 75 28 171 68
171 3 0 35 -26 70 -59z m4489 13 l29 -46 -23 -37 c-35 -54 -100 -84 -184 -83
-95 1 -119 12 -132 63 -6 22 -9 43 -6 46 3 3 63 25 132 49 70 25 130 46 132
49 12 12 24 2 52 -41z m-2240 26 c0 -5 -8 -10 -17 -10 -15 0 -16 2 -3 10 19
12 20 12 20 0z m-3691 -55 c57 -49 63 -127 15 -185 -35 -41 -116 -55 -166 -29
-19 10 -48 65 -48 92 0 8 27 44 61 81 68 74 90 81 138 41z m3184 -79 c31 -7
31 -7 -4 -101 -30 -78 -28 -77 -88 -59 -33 9 -69 30 -96 55 -23 21 -50 39 -59
39 -21 0 -21 2 14 64 l30 53 88 -23 c48 -12 100 -25 115 -28z m2416 -13 l13
-58 -36 -31 c-47 -40 -110 -58 -174 -49 -48 6 -50 5 -72 -25 -13 -18 -41 -41
-64 -51 -42 -19 -121 -25 -144 -11 -6 5 -19 33 -26 63 -8 30 -17 61 -20 69 -5
12 11 19 81 35 49 10 160 40 248 66 88 26 165 47 170 48 6 1 16 -25 24 -56z
m-2229 -28 c62 -14 171 -35 243 -46 72 -11 133 -22 136 -24 2 -3 -2 -32 -9
-65 -14 -65 -24 -71 -66 -43 -23 15 -28 15 -60 0 -72 -35 -184 -17 -267 42
l-42 30 -58 -16 c-31 -9 -59 -14 -61 -12 -8 8 49 159 60 159 6 0 62 -11 124
-25z m1693 -112 c19 -65 15 -73 -47 -105 -51 -26 -117 -21 -186 15 l-50 26
-37 -24 c-57 -39 -63 -35 -63 44 l0 69 63 6 c34 3 103 9 152 14 164 16 150 20
168 -45z m-1130 32 l117 -7 0 -64 c0 -58 -2 -64 -20 -64 -12 0 -39 9 -60 20
l-40 20 -40 -20 c-24 -12 -59 -20 -91 -20 -48 0 -51 1 -45 23 3 12 10 46 17
75 8 42 14 52 27 48 10 -2 70 -8 135 -11z m721 -27 c3 -13 6 -44 6 -70 0 -44
-2 -48 -25 -48 -13 0 -49 9 -79 21 -53 19 -56 19 -88 2 -46 -24 -151 -24 -206
1 -39 18 -44 18 -79 3 -21 -9 -56 -19 -77 -23 -38 -7 -39 -6 -33 17 4 13 7 45
7 72 l0 47 284 0 284 0 6 -22z m-3174 -37 c0 -14 -140 -140 -185 -166 -22 -13
-58 -31 -80 -40 l-40 -16 55 48 c30 26 81 73 113 104 31 31 72 61 90 67 42 13
47 14 47 3z m-214 -106 c-123 -114 -225 -160 -300 -135 -36 12 -45 23 -26 35
15 9 50 81 50 102 -1 13 -6 9 -17 -12 -43 -82 -118 -122 -203 -109 l-35 6 2
61 c2 57 1 59 -8 27 -26 -87 -36 -100 -77 -100 -31 0 -50 9 -100 49 -34 27
-71 56 -84 65 -12 9 -20 17 -17 19 2 2 123 12 269 21 311 19 533 37 539 42 2
2 23 4 45 4 l41 -1 -79 -74z m2425 33 c63 -31 153 -35 203 -9 36 19 40 19 70
4 17 -9 61 -18 98 -21 65 -4 68 -6 68 -31 0 -14 3 -36 6 -48 5 -19 2 -23 -15
-23 -24 0 -96 -34 -106 -50 -3 -5 -24 -7 -48 -4 -32 5 -46 2 -56 -10 -12 -14
-17 -13 -49 12 -37 29 -91 34 -193 18 l-45 -7 -12 63 c-7 35 -15 72 -18 84 -4
15 1 23 18 31 31 16 28 16 79 -9z m1242 -41 c39 -1 70 6 105 22 43 20 53 21
91 11 l42 -11 -3 -47 c-3 -40 -6 -47 -23 -45 -51 6 -99 -10 -142 -50 -56 -52
-106 -57 -142 -14 -38 45 -78 61 -153 60 l-68 -1 0 39 c0 36 2 39 28 39 15 0
48 10 72 23 l45 22 46 -23 c30 -15 66 -24 102 -25z m-633 18 c61 -18 122 -13
176 12 30 15 36 15 81 -4 45 -18 48 -22 54 -64 6 -36 3 -47 -12 -59 -18 -15
-18 -18 6 -125 17 -75 25 -140 25 -204 l0 -94 -57 6 c-32 4 -128 12 -213 18
-85 7 -159 16 -164 20 -9 8 -6 50 20 286 6 47 4 54 -22 80 -21 21 -30 41 -34
80 -6 50 -5 53 19 62 28 11 40 10 121 -14z m-3834 -55 c103 -74 119 -88 111
-97 -16 -15 -180 -7 -242 12 -59 17 -255 103 -245 106 7 3 240 26 276 28 22 1
50 -12 100 -49z m-327 -35 c66 -29 138 -59 160 -66 22 -7 38 -15 36 -20 -12
-18 -173 -21 -255 -5 -108 22 -281 77 -274 87 6 10 64 27 149 45 33 6 61 12
62 13 1 1 56 -24 122 -54z m4638 -36 c42 -16 73 -48 99 -104 35 -73 31 -79
-26 -47 l-51 27 -19 -23 c-41 -50 -35 -157 10 -169 25 -7 25 -7 -1 -42 -12
-16 -19 -37 -17 -47 5 -26 48 -31 65 -8 9 13 16 15 24 7 8 -8 6 -18 -6 -37
-12 -18 -14 -30 -8 -39 21 -26 24 -69 7 -88 -33 -37 14 -69 50 -34 14 14 18
14 45 -6 16 -12 37 -19 45 -16 20 8 21 41 1 57 -12 10 -12 15 0 33 16 25 6 94
-16 107 -6 5 -9 15 -6 24 6 15 9 15 32 0 20 -13 28 -14 40 -4 12 10 13 17 1
44 -12 29 -12 34 4 44 35 22 31 142 -6 169 -27 20 -41 16 -83 -22 -23 -21 -42
-32 -46 -25 -3 5 -2 10 3 10 6 0 12 10 16 23 9 39 75 131 110 155 18 12 47 22
64 22 41 0 100 -24 108 -45 4 -8 -10 -68 -31 -133 -33 -103 -38 -137 -49 -286
l-11 -168 -35 -30 c-50 -42 -128 -62 -216 -55 -75 6 -190 33 -212 50 -11 8
-13 57 -10 231 2 182 0 233 -14 286 -33 128 -33 126 4 137 44 15 100 15 135 2z
m-596 -25 c10 -13 10 -43 -4 -172 -18 -172 -12 -238 32 -367 11 -33 21 -65 21
-72 0 -33 -159 -93 -248 -93 -111 0 -253 54 -285 109 -20 35 -37 140 -37 239
0 48 -7 92 -21 130 -54 150 -60 186 -31 200 9 5 56 13 103 17 70 5 93 4 117
-9 36 -19 75 -67 97 -119 l16 -38 -50 26 c-28 14 -59 25 -70 25 -30 0 -44 -35
-39 -96 5 -59 28 -94 62 -94 15 0 17 -3 8 -12 -19 -19 -14 -47 13 -71 23 -20
24 -25 14 -52 -10 -27 -9 -36 14 -73 22 -34 25 -46 17 -67 -6 -15 -8 -31 -4
-36 8 -14 36 -11 55 7 16 15 20 15 41 0 12 -9 28 -16 36 -16 21 0 26 30 7 50
-15 16 -16 25 -7 43 16 34 12 89 -10 113 -21 24 -15 54 11 54 25 0 31 9 21 34
-5 15 -2 28 11 45 27 32 26 120 0 152 l-20 24 -40 -22 c-45 -23 -49 -19 -30
38 22 66 89 119 150 119 21 0 42 -7 50 -16z m-3294 -279 c61 -366 60 -421 -13
-451 -58 -24 -189 -37 -250 -24 -100 21 -125 80 -105 245 6 55 15 184 18 287
l6 188 31 5 c51 8 116 12 195 11 l74 -1 44 -260z m3079 240 c4 -9 0 -29 -7
-47 l-13 -31 -14 31 c-13 25 -13 34 -2 47 16 19 29 19 36 0z m974 -22 c0 -5
-5 -15 -10 -23 -9 -13 -11 -13 -19 0 -5 8 -7 18 -5 22 6 10 34 11 34 1z m-67
-113 c25 -22 47 -40 50 -40 11 0 66 -58 60 -64 -3 -3 -16 6 -29 19 -37 40 -45
35 -98 -52 -21 -35 -42 -63 -47 -63 -14 0 -11 9 15 43 37 49 36 61 -4 67 -32
4 -35 8 -38 41 -4 43 13 89 31 89 8 0 35 -18 60 -40z m167 11 c5 -11 10 -35
10 -53 0 -39 -23 -78 -34 -60 -4 7 -3 12 3 12 6 0 13 16 17 36 9 47 -12 72
-46 54 -20 -11 -21 -10 -10 9 14 26 46 27 60 2z m-1134 -24 c28 -18 49 -37 47
-44 -2 -6 12 -22 31 -36 20 -13 33 -27 30 -30 -4 -4 -1 -15 7 -24 7 -10 -8 2
-33 25 -29 28 -48 40 -53 33 -3 -6 -11 -9 -16 -6 -5 4 -25 1 -44 -6 -25 -9
-38 -10 -46 -2 -7 7 -4 9 14 6 16 -3 33 3 53 20 25 22 27 27 14 42 -23 28 -71
48 -83 36 -16 -16 -27 -13 -21 4 9 24 45 17 100 -18z m155 6 c12 -32 0 -94
-20 -101 -10 -3 -11 0 -1 17 6 12 10 36 8 54 -3 27 -7 32 -28 30 -24 -3 -24
-2 -6 12 28 21 35 19 47 -12z m-184 -46 c-2 -7 -11 -13 -20 -15 -12 -3 -17 4
-17 23 0 23 2 25 21 15 11 -6 18 -17 16 -23z m1133 8 c0 -18 -4 -23 -15 -19
-25 10 -19 33 13 43 1 1 2 -10 2 -24z m-980 3 c0 -7 -5 -20 -10 -28 -7 -12
-12 -12 -21 -3 -9 9 -9 16 1 28 15 18 30 20 30 3z m916 -73 c16 -24 16 -27 -2
-40 -22 -16 -50 -19 -58 -6 -7 10 25 71 36 71 4 0 15 -11 24 -25z m-1035 -22
c-20 -37 -40 -59 -41 -44 0 8 10 25 22 38 26 27 32 29 19 6z m1105 -26 c14
-30 14 -31 -1 -12 -25 30 -39 59 -26 51 6 -4 18 -22 27 -39z m-1046 17 c11
-12 10 -18 -3 -31 -8 -9 -23 -13 -31 -10 -13 5 -14 11 -4 32 13 29 21 31 38 9z
m-327 -131 c3 -54 12 -116 20 -138 9 -22 18 -58 22 -80 18 -106 92 -144 280
-145 132 0 243 36 299 99 22 24 20 41 -23 165 -16 48 -33 108 -37 133 l-6 44
58 -5 c33 -4 113 -11 179 -16 66 -6 136 -13 155 -16 l35 -5 -4 -127 c-1 -70
-3 -139 -3 -154 -1 -40 17 -56 88 -78 133 -41 285 -35 383 15 88 44 93 60 76
218 -5 37 -3 57 4 57 19 0 314 -60 395 -81 414 -105 669 -243 707 -383 45
-166 -182 -270 -704 -321 -346 -34 -599 -41 -2342 -65 -407 -6 -909 -16 -1115
-22 -549 -16 -1562 -16 -1730 0 -381 37 -588 98 -643 190 -25 44 -22 107 8
158 69 117 304 241 651 343 90 27 90 27 97 -8 8 -40 52 -88 94 -102 50 -16
246 -7 295 14 56 24 78 67 78 154 0 81 -10 72 100 92 151 28 709 101 771 101
8 0 26 -19 39 -42 84 -152 136 -198 284 -248 308 -104 724 -116 996 -29 181
58 371 202 440 333 14 25 30 46 36 46 7 0 13 -36 17 -97z m344 63 c-15 -22
-14 -25 9 -46 31 -30 23 -39 -11 -12 -29 23 -50 20 -66 -10 -6 -11 -13 -17
-16 -15 -2 3 3 17 13 32 16 25 16 26 -2 41 -18 15 -17 15 9 9 17 -3 36 0 50
10 29 21 32 19 14 -9z m953 9 c-6 -8 -9 -19 -5 -25 3 -5 -2 -10 -11 -10 -10 0
-27 -8 -38 -17 -15 -13 -14 -10 4 12 25 29 51 54 59 55 2 0 -2 -7 -9 -15z m6
-76 c3 -6 1 -16 -4 -21 -13 -13 -45 8 -36 23 7 12 31 11 40 -2z m-950 -30 c12
-21 -14 -34 -40 -19 -20 10 -23 16 -15 32 8 14 14 16 29 8 10 -6 22 -15 26
-21z m971 -17 c-21 -23 -21 -30 0 -56 15 -18 14 -18 -8 2 -14 12 -30 22 -35
22 -5 0 -15 9 -22 20 -11 18 -10 19 13 8 21 -10 29 -9 43 5 22 23 29 22 9 -1z
m-1002 -38 c26 -17 33 -34 13 -34 -6 0 -20 -8 -32 -17 -19 -18 -19 -18 -3 6
15 23 15 26 0 43 -20 22 -10 23 22 2z m1183 -136 c-7 -20 -28 -36 -75 -60 -56
-28 -79 -33 -157 -36 -61 -3 -114 1 -161 12 -87 21 -115 38 -115 72 0 30 6 30
115 -1 73 -20 195 -24 255 -7 25 7 65 28 90 46 38 28 46 30 51 17 3 -9 2 -28
-3 -43z m-914 -29 c-29 -33 -116 -68 -191 -79 -79 -11 -200 0 -256 23 -38 16
-77 61 -77 87 0 16 7 15 68 -11 147 -61 275 -60 402 3 59 30 65 31 68 15 2
-10 -4 -27 -14 -38z"/>
<path d="M5765 7846 c-89 -44 -195 -125 -165 -126 9 0 42 20 75 45 33 25 90
61 128 80 62 34 78 45 60 45 -5 0 -49 -20 -98 -44z"/>
<path d="M6700 7151 c0 -6 8 -11 18 -11 41 0 124 -33 157 -62 20 -17 38 -29
40 -26 7 7 -56 68 -87 84 -39 20 -128 31 -128 15z"/>
<path d="M7558 6433 c-9 -10 -28 -43 -43 -73 -87 -174 -119 -367 -76 -467 13
-28 36 -63 52 -79 28 -27 29 -27 29 -6 0 28 3 28 48 -4 33 -23 32 -21 -8 15
-32 30 -46 37 -48 26 -6 -25 -17 -17 -42 27 -54 96 -34 249 59 458 28 62 49
115 48 117 -2 2 -11 -5 -19 -14z"/>
<path d="M6675 6433 c-48 -25 -66 -45 -91 -98 -75 -158 26 -335 189 -335 51 0
122 23 150 48 32 27 57 93 57 147 0 160 -183 303 -305 238z m129 -23 c38 -14
105 -79 128 -124 40 -79 22 -180 -42 -227 -35 -26 -119 -40 -164 -28 -42 12
-101 60 -121 99 -22 43 -28 101 -15 149 10 38 13 41 24 26 31 -42 101 15 99
81 -1 32 1 34 32 34 19 0 45 -4 59 -10z m-114 -33 c0 -20 -30 -57 -46 -57 -18
0 -18 20 2 48 16 24 44 30 44 9z"/>
<path d="M6705 6315 c-50 -49 -17 -145 50 -145 38 0 75 42 75 85 0 43 -37 85
-75 85 -14 0 -37 -11 -50 -25z"/>
<path d="M5674 6366 c-138 -60 -153 -327 -21 -389 23 -11 61 -17 108 -17 124
0 189 57 189 168 0 166 -148 293 -276 238z m136 -31 c63 -32 114 -124 114
-206 1 -91 -44 -135 -149 -146 -70 -7 -119 10 -153 55 -25 32 -27 43 -27 123
0 95 7 114 31 81 8 -12 24 -22 35 -22 11 0 17 -5 14 -10 -10 -16 15 -79 35
-90 44 -24 91 -5 110 45 18 47 -9 99 -59 110 -19 4 -29 15 -37 40 -8 25 -8 36
0 39 14 5 55 -4 86 -19z m-110 -28 c0 -33 -23 -62 -44 -54 -31 12 -11 77 24
77 14 0 20 -7 20 -23z"/>
<path d="M6272 5958 c2 -18 7 -33 12 -33 5 0 10 15 11 33 2 22 -2 32 -12 32
-10 0 -13 -9 -11 -32z"/>
<path d="M6368 5745 c-32 -18 -62 -21 -100 -10 -33 8 -38 -9 -9 -25 31 -16 83
-12 119 10 51 31 42 53 -10 25z"/>
<path d="M6354 4139 c-43 -12 -102 -75 -115 -123 -18 -66 -4 -121 44 -171 88
-91 213 -81 283 22 94 141 -46 321 -212 272z m137 -41 c75 -42 101 -151 51
-217 -31 -43 -81 -71 -125 -71 -54 0 -120 39 -141 84 -17 36 -20 98 -6 131 8
19 9 19 9 -3 2 -42 19 -62 56 -62 44 0 75 38 75 91 0 28 -6 42 -22 53 -22 16
-21 16 21 16 26 0 59 -9 82 -22z m-106 -61 c-15 -60 -75 -75 -75 -18 0 39 46
79 67 58 9 -9 12 -23 8 -40z"/>
<path d="M6354 3469 c-45 -13 -100 -73 -114 -125 -23 -81 16 -166 93 -203 56
-27 102 -27 157 2 195 98 75 387 -136 326z m134 -39 c130 -80 74 -280 -79
-280 -105 0 -178 110 -137 207 l12 28 4 -30 c5 -40 19 -55 51 -55 29 0 63 24
80 57 15 30 14 53 -6 75 -15 17 -15 18 13 18 16 0 44 -9 62 -20z m-90 -41 c4
-31 -28 -62 -60 -57 -32 4 -34 33 -3 63 31 32 59 29 63 -6z"/>
<path d="M8203 2810 c-27 -11 -31 -48 -7 -57 30 -11 69 10 69 37 0 28 -24 36
-62 20z m34 -26 c-3 -3 -12 -4 -19 -1 -8 3 -5 6 6 6 11 1 17 -2 13 -5z"/>
<path d="M8072 2791 c-8 -5 -12 -17 -10 -27 4 -25 69 -32 88 -10 26 32 -38 63
-78 37z m45 -27 c-3 -3 -12 -4 -19 -1 -8 3 -5 6 6 6 11 1 17 -2 13 -5z"/>
<path d="M7953 2783 c-44 -9 -35 -63 11 -63 12 0 31 6 42 14 15 12 17 18 8 33
-12 19 -26 23 -61 16z m30 -30 c-7 -2 -19 -2 -25 0 -7 3 -2 5 12 5 14 0 19 -2
13 -5z"/>
<path d="M7872 2694 c-29 -20 -26 -58 4 -62 28 -4 56 24 52 52 -4 27 -27 31
-56 10z m33 -24 c-3 -5 -11 -10 -16 -10 -6 0 -7 5 -4 10 3 6 11 10 16 10 6 0
7 -4 4 -10z"/>
<path d="M7774 2606 c-27 -23 -28 -26 -12 -42 14 -15 21 -15 48 -4 25 10 30
18 28 39 -4 35 -29 38 -64 7z m41 -16 c-3 -5 -14 -10 -23 -10 -15 0 -15 2 -2
10 20 13 33 13 25 0z"/>
<path d="M4702 2592 c-6 -2 -12 -14 -12 -28 0 -17 7 -25 24 -30 40 -10 61 -1
61 26 0 19 -7 26 -30 30 -17 4 -36 5 -43 2z m43 -32 c8 -13 -5 -13 -25 0 -13
8 -13 10 2 10 9 0 20 -4 23 -10z"/>
<path d="M7244 2545 c-27 -27 -28 -42 -1 -59 12 -8 22 -5 42 14 30 28 32 46 5
60 -17 9 -25 6 -46 -15z m36 -14 c0 -5 -7 -12 -16 -15 -14 -5 -15 -4 -4 9 14
17 20 19 20 6z"/>
<path d="M7653 2560 c-27 -11 -31 -48 -7 -57 30 -11 69 10 69 37 0 28 -24 36
-62 20z m34 -26 c-3 -3 -12 -4 -19 -1 -8 3 -5 6 6 6 11 1 17 -2 13 -5z"/>
<path d="M7355 2533 c-7 -20 27 -53 55 -53 43 0 48 53 7 64 -37 10 -55 7 -62
-11z m62 -19 c-3 -3 -12 -4 -19 -1 -8 3 -5 6 6 6 11 1 17 -2 13 -5z"/>
<path d="M7513 2534 c-18 -8 -16 -51 3 -58 24 -9 69 16 69 39 0 15 -7 20 -30
22 -16 1 -36 0 -42 -3z m47 -24 c0 -5 -10 -10 -22 -9 -22 0 -22 1 -3 9 11 5
21 9 23 9 1 1 2 -3 2 -9z"/>
<path d="M5126 2474 c-11 -28 40 -69 72 -57 22 9 14 49 -13 61 -35 16 -52 15
-59 -4z m59 -32 c-3 -3 -11 0 -18 7 -9 10 -8 11 6 5 10 -3 15 -9 12 -12z"/>
<path d="M6447 2466 c-44 -40 -10 -75 44 -46 23 13 25 55 3 64 -21 8 -18 9
-47 -18z m38 -16 c-3 -5 -11 -10 -16 -10 -6 0 -7 5 -4 10 3 6 11 10 16 10 6 0
7 -4 4 -10z"/>
<path d="M7148 2476 c-10 -7 -18 -23 -18 -35 0 -16 6 -21 28 -21 34 0 65 30
56 54 -7 19 -42 21 -66 2z m42 -20 c0 -2 -7 -6 -15 -10 -8 -3 -15 -1 -15 4 0
6 7 10 15 10 8 0 15 -2 15 -4z"/>
<path d="M5781 2447 c-16 -16 -14 -32 7 -50 40 -37 93 -7 58 32 -22 24 -51 32
-65 18z m39 -32 c11 -13 10 -14 -4 -9 -9 3 -16 10 -16 15 0 13 6 11 20 -6z"/>
<path d="M5254 2435 c-12 -30 4 -46 43 -43 28 2 39 8 41 22 2 10 -2 22 -10 27
-22 14 -68 10 -74 -6z m56 -21 c0 -2 -7 -4 -15 -4 -8 0 -15 4 -15 10 0 5 7 7
15 4 8 -4 15 -8 15 -10z"/>
<path d="M6544 2435 c-9 -23 3 -44 32 -55 48 -19 74 25 32 54 -28 20 -57 20
-64 1z m51 -25 c3 -5 2 -10 -4 -10 -5 0 -13 5 -16 10 -3 6 -2 10 4 10 5 0 13
-4 16 -10z"/>
<path d="M5386 2425 c-19 -20 -10 -44 19 -51 27 -7 65 11 65 29 0 35 -56 50
-84 22z m47 -22 c-7 -2 -19 -2 -25 0 -7 3 -2 5 12 5 14 0 19 -2 13 -5z"/>
<path d="M5524 2426 c-12 -31 4 -47 43 -44 33 3 38 6 38 28 0 22 -5 25 -38 28
-26 2 -39 -1 -43 -12z m56 -16 c0 -5 -8 -10 -17 -10 -15 0 -16 2 -3 10 19 12
20 12 20 0z"/>
<path d="M7053 2430 c-27 -11 -31 -48 -7 -57 30 -11 69 10 69 37 0 28 -24 36
-62 20z m34 -26 c-3 -3 -12 -4 -19 -1 -8 3 -5 6 6 6 11 1 17 -2 13 -5z"/>
<path d="M6342 2410 c-29 -12 -39 -38 -20 -56 11 -12 20 -12 47 -3 27 9 32 16
29 38 -3 28 -21 35 -56 21z m28 -30 c-20 -13 -33 -13 -25 0 3 6 14 10 23 10
15 0 15 -2 2 -10z"/>
<path d="M5913 2395 c-23 -18 -8 -45 32 -58 23 -8 31 -6 42 8 11 16 10 21 -3
36 -21 24 -50 29 -71 14z m47 -25 c13 -8 13 -10 -2 -10 -9 0 -20 5 -23 10 -8
13 5 13 25 0z"/>
<path d="M6953 2402 c-48 -8 -56 -62 -9 -62 39 0 56 11 56 35 0 25 -13 33 -47
27z m12 -32 c-3 -5 -11 -10 -16 -10 -6 0 -7 5 -4 10 3 6 11 10 16 10 6 0 7 -4
4 -10z"/>
<path d="M6664 2386 c-10 -25 2 -43 32 -50 35 -9 64 16 48 42 -15 23 -72 29
-80 8z m56 -22 c0 -2 -7 -4 -15 -4 -8 0 -15 4 -15 10 0 5 7 7 15 4 8 -4 15 -8
15 -10z"/>
<path d="M6794 2376 c-12 -31 4 -46 46 -46 39 0 41 1 38 28 -3 23 -8 27 -41
30 -26 2 -39 -1 -43 -12z m59 -23 c-7 -2 -19 -2 -25 0 -7 3 -2 5 12 5 14 0 19
-2 13 -5z"/>
<path d="M6203 2370 c-27 -11 -31 -48 -7 -57 30 -11 69 10 69 37 0 28 -24 36
-62 20z m34 -26 c-3 -3 -12 -4 -19 -1 -8 3 -5 6 6 6 11 1 17 -2 13 -5z"/>
<path d="M6037 2358 c-9 -26 13 -48 49 -48 38 0 54 21 34 45 -15 18 -77 20
-83 3z m58 -26 c-3 -3 -11 0 -18 7 -9 10 -8 11 6 5 10 -3 15 -9 12 -12z"/>
<path d="M6812 1718 c-13 -13 -16 -47 -6 -72 8 -22 56 -20 84 2 l22 18 -36 32
c-41 35 -47 37 -64 20z m58 -47 c0 -8 -23 -21 -36 -21 -2 0 -4 11 -4 25 0 23
2 24 20 15 11 -6 20 -15 20 -19z"/>
<path d="M3122 10148 c6 -122 33 -191 104 -267 238 -257 693 -74 762 308 7 40
6 51 -4 51 -7 0 -17 -22 -24 -54 -30 -148 -141 -291 -275 -357 -66 -32 -75
-34 -175 -34 -93 0 -112 3 -161 26 -133 63 -219 215 -207 365 4 43 2 54 -10
54 -12 0 -14 -16 -10 -92z"/>
<path d="M5090 10210 c-12 -17 -33 -58 -48 -93 -23 -55 -26 -75 -27 -177 0
-109 2 -119 32 -182 42 -89 101 -151 179 -189 304 -145 691 155 661 511 -7 81
-34 160 -54 160 -11 0 -13 -5 -8 -17 41 -98 46 -215 15 -315 -40 -131 -146
-253 -270 -312 -60 -29 -73 -31 -170 -31 -123 0 -169 16 -245 86 -138 127
-158 345 -49 532 23 39 29 57 19 57 -7 0 -23 -14 -35 -30z"/>
<path d="M7646 10208 c29 -164 95 -257 224 -321 59 -29 72 -32 160 -31 115 0
181 22 273 88 88 62 156 153 192 257 25 71 -7 44 -47 -39 -63 -131 -158 -219
-286 -263 -82 -29 -206 -24 -283 13 -105 48 -188 162 -204 279 -4 32 -12 49
-21 49 -10 0 -12 -9 -8 -32z"/>
<path d="M2555 9239 c-222 -77 -379 -323 -346 -546 27 -185 145 -312 317 -344
96 -18 220 11 315 72 62 40 153 138 183 198 105 207 66 450 -92 566 -102 74
-254 96 -377 54z m264 -24 c96 -33 176 -112 212 -205 114 -300 -150 -661 -466
-637 -97 7 -169 42 -234 112 -152 168 -128 441 56 617 127 120 290 163 432
113z"/>
</g>
</svg>
