<?xml version="1.0" standalone="no"?>
<!DOCTYPE svg PUBLIC "-//W3C//DTD SVG 20010904//EN"
 "http://www.w3.org/TR/2001/REC-SVG-20010904/DTD/svg10.dtd">
<svg version="1.0" xmlns="http://www.w3.org/2000/svg"
 width="850.000000pt" height="850.000000pt" viewBox="0 0 850.000000 850.000000"
 preserveAspectRatio="xMidYMid meet">
<metadata>
Created by potrace 1.14, written by Peter Selinger 2001-2017
</metadata>
<g transform="translate(0.000000,850.000000) scale(0.100000,-0.100000)"
fill="#000000" stroke="none">
<path d="M4360 8448 c-11 -18 -22 -37 -24 -43 -2 -5 -20 5 -39 24 l-36 34 -39
-25 c-153 -102 -251 -217 -338 -396 l-65 -133 -32 23 -32 23 35 5 c34 5 35 7
33 45 -4 55 -41 153 -67 170 -11 8 -35 15 -53 15 -84 0 -263 -54 -347 -105
l-57 -34 -44 34 c-125 95 -425 64 -700 -72 -151 -74 -195 -102 -195 -123 0 -8
12 -35 26 -60 l26 -45 -28 -20 c-129 -93 -284 -212 -306 -236 -37 -39 -36 -76
5 -135 l34 -48 -82 -103 c-45 -56 -98 -127 -119 -157 -43 -63 -42 -72 27 -143
l40 -42 -31 -70 c-18 -39 -29 -76 -27 -83 3 -7 28 -26 55 -43 28 -16 50 -33
50 -38 0 -6 -13 -32 -30 -59 -16 -26 -30 -54 -30 -61 0 -16 67 -98 107 -131
18 -15 35 -35 38 -45 3 -10 -12 -63 -34 -117 -22 -54 -46 -123 -55 -153 l-16
-55 44 -40 c24 -23 76 -59 116 -81 l72 -40 -7 -151 c-5 -127 -4 -154 9 -166
17 -17 188 -88 211 -88 8 0 15 9 15 20 0 22 34 28 46 9 3 -6 6 -59 5 -117 -1
-59 3 -113 7 -120 11 -16 187 -82 219 -82 21 0 42 34 29 47 -15 16 21 33 68
33 l52 0 -1 -77 0 -78 65 3 c148 6 164 12 165 60 0 26 3 27 64 34 86 10 91 12
91 50 1 53 17 13 25 -62 13 -114 56 -208 115 -250 41 -30 54 -16 25 26 -13 19
-26 54 -29 77 -11 82 -13 197 -5 197 5 0 9 -14 9 -30 0 -42 27 -103 42 -97 8
2 12 17 10 38 -4 41 6 99 17 99 4 0 17 -17 28 -37 12 -21 38 -54 58 -73 63
-60 67 -77 44 -156 -34 -119 -49 -295 -42 -487 l6 -173 -87 -79 c-47 -43 -86
-84 -86 -90 0 -7 9 -20 20 -30 11 -10 20 -30 20 -44 0 -14 4 -31 8 -37 12 -18
89 -54 117 -54 15 0 28 -7 32 -17 17 -44 -54 -456 -100 -578 -8 -22 -27 -72
-42 -112 -29 -79 -27 -77 -130 -93 -106 -16 -281 -66 -467 -131 l-167 -59
-184 0 c-102 0 -249 -7 -328 -15 -135 -14 -405 -66 -439 -84 -16 -9 -19 -39
-7 -82 7 -26 5 -27 -85 -52 -50 -15 -96 -31 -101 -36 -12 -12 41 -136 102
-238 39 -67 46 -84 35 -93 -10 -9 -10 -17 -2 -38 25 -59 108 -163 221 -279 93
-95 117 -126 113 -141 -8 -24 67 -115 154 -187 55 -46 225 -158 252 -167 7 -3
7 -10 -2 -25 -7 -11 -10 -27 -7 -36 14 -37 180 -107 384 -163 56 -15 62 -19
57 -39 -6 -23 9 -41 40 -46 12 -3 -23 -25 -95 -61 -275 -138 -415 -228 -619
-399 -121 -102 -248 -234 -344 -359 -93 -120 -266 -420 -266 -460 0 -6 7 -10
15 -10 8 0 38 46 71 111 217 423 547 751 1028 1018 187 104 346 165 346 134 0
-5 -58 -36 -128 -69 -129 -62 -329 -190 -457 -292 -171 -136 -385 -376 -498
-560 -55 -88 -187 -327 -187 -337 0 -3 9 -5 19 -5 15 0 33 26 73 102 95 182
150 266 281 428 135 169 222 254 377 371 157 118 267 187 434 271 l158 79 79
-7 c43 -3 79 -8 79 -9 0 -1 -25 -56 -56 -121 -95 -200 -224 -495 -253 -579
-39 -108 -101 -346 -101 -383 0 -40 71 -118 123 -136 41 -14 101 -7 319 37 65
14 120 22 123 19 3 -3 5 -20 5 -39 0 -27 4 -33 20 -33 19 0 20 4 15 48 l-7 47
129 49 c70 27 142 56 160 63 18 8 45 16 60 17 15 2 52 13 82 25 35 14 64 20
82 16 l28 -6 3 -127 c3 -115 5 -127 22 -130 18 -4 19 2 14 113 -5 115 -5 117
16 110 11 -3 38 -9 58 -12 34 -5 38 -3 44 21 6 24 10 26 62 26 52 0 58 2 97
43 40 42 44 44 116 50 41 3 93 12 115 20 40 15 46 14 135 -14 191 -60 296 -81
419 -82 126 -1 192 13 229 46 29 27 51 77 51 116 0 27 2 29 27 22 22 -6 29
-17 43 -66 20 -76 32 -97 83 -152 43 -47 102 -83 136 -83 45 0 137 44 184 89
70 65 97 126 97 223 0 134 -25 224 -130 463 -55 126 -93 230 -124 346 -17 62
-51 117 -81 133 -11 5 -32 18 -47 28 -15 10 -36 18 -47 18 -11 0 -33 11 -49
24 -16 14 -50 29 -77 33 -27 5 -50 13 -52 18 -2 6 20 21 47 34 28 13 97 50
153 82 56 32 113 59 126 59 45 0 136 -68 485 -363 45 -38 101 -82 124 -99 l44
-30 31 29 c52 47 63 54 134 78 41 13 69 29 71 38 5 24 -333 269 -585 423 -79
48 -143 91 -143 94 0 4 28 29 63 56 91 71 197 175 197 194 0 9 -5 21 -11 27
-9 9 12 37 77 110 49 54 91 99 95 101 6 3 239 -84 483 -181 l79 -31 41 22 c23
12 60 40 84 61 41 37 42 41 42 100 l0 61 -42 20 c-42 18 -237 71 -464 125
l-112 27 57 79 c81 113 123 197 110 220 -5 10 -21 22 -34 25 -14 3 -25 10 -25
14 0 7 163 297 173 306 2 2 65 -6 140 -19 96 -17 139 -21 146 -14 16 16 14
142 -1 154 -7 6 -62 16 -121 23 l-108 13 6 26 c85 337 98 652 35 854 -11 33
-18 63 -16 64 7 7 136 -30 136 -39 0 -5 10 -8 22 -6 19 3 24 13 34 83 7 44 18
98 25 120 7 22 13 78 13 125 l1 85 -35 -2 c-21 -1 -108 22 -219 59 -165 55
-186 64 -200 91 -50 92 -110 164 -269 321 -192 189 -247 237 -332 284 -113 63
-311 113 -507 129 -46 3 -83 7 -83 8 0 1 9 27 19 57 10 30 32 113 47 184 28
124 29 139 29 401 0 150 2 273 5 273 3 0 13 -19 23 -43 9 -23 46 -89 82 -146
l65 -104 -6 -63 c-8 -73 6 -86 25 -23 l12 40 109 -105 c113 -109 156 -143 167
-132 4 3 -8 25 -26 49 -58 76 -168 241 -188 282 -19 36 -21 65 -26 320 -4 211
-10 313 -26 415 -32 211 -75 388 -132 544 -16 43 -28 81 -26 83 6 5 154 -334
183 -419 37 -110 94 -343 100 -412 7 -81 13 -106 24 -106 20 0 22 97 6 239
-38 323 -185 771 -328 998 -72 113 -195 259 -319 377 -140 133 -139 132 -200
117 l-50 -13 -44 41 c-25 23 -51 41 -58 41 -39 0 -107 -126 -147 -274 l-17
-61 -13 40 c-24 74 -69 153 -125 219 -76 89 -89 96 -115 54z m120 -121 c57
-80 108 -197 115 -264 l6 -48 -21 48 c-22 53 -83 147 -124 190 -14 16 -26 40
-26 55 -1 55 -28 -7 -59 -136 -60 -247 -75 -478 -46 -692 7 -58 16 -125 19
-150 l6 -45 -15 50 c-34 115 -48 263 -42 445 4 96 13 208 20 248 8 40 10 75 6
78 -13 7 -26 -33 -34 -102 -4 -32 -20 -117 -35 -189 -40 -185 -54 -350 -48
-587 5 -213 0 -224 -29 -59 -21 119 -23 436 -5 566 27 186 101 436 180 608 41
87 41 88 63 70 11 -10 43 -49 69 -86z m399 8 c187 -194 302 -442 376 -811 30
-147 36 -198 40 -346 3 -150 3 -159 -5 -70 -38 451 -225 904 -489 1185 -36 38
-54 48 -45 24 2 -7 -11 -40 -30 -72 -20 -31 -50 -98 -67 -147 -18 -48 -33 -87
-35 -85 -2 2 10 57 27 123 41 162 98 284 134 284 7 0 49 -38 94 -85z m-586 47
c25 -26 26 -31 16 -60 -9 -26 -17 -32 -39 -32 -50 0 -277 -237 -412 -430 -13
-18 -11 -5 8 50 52 148 126 269 226 367 71 70 148 132 164 132 5 1 22 -12 37
-27z m718 -54 c93 -68 144 -116 242 -233 125 -149 174 -224 247 -379 54 -114
197 -513 187 -523 -3 -2 -13 17 -23 44 -68 186 -165 391 -254 533 -71 116
-173 261 -199 284 -42 38 -32 6 23 -72 102 -145 169 -299 245 -558 71 -244
125 -554 135 -780 5 -118 4 -113 -20 76 -24 195 -86 435 -165 645 -52 136
-101 245 -110 245 -16 0 -10 -24 27 -110 20 -47 42 -105 50 -130 21 -65 38
-329 29 -436 l-8 -89 -19 60 c-16 51 -18 68 -9 114 24 122 8 224 -50 308 -21
30 -33 66 -44 130 -58 334 -175 631 -320 808 -45 55 -61 82 -52 87 22 14 43 8
88 -24z m-150 -151 c171 -229 266 -428 346 -720 4 -16 -1 -17 -50 -11 -46 5
-64 2 -112 -20 l-57 -26 -19 23 c-16 19 -18 40 -19 165 0 146 -12 233 -51 357
-10 35 -27 73 -38 86 l-18 22 -29 -20 c-39 -28 -120 -128 -166 -203 -33 -55
-87 -188 -104 -255 -13 -51 21 -24 71 57 48 78 187 228 210 228 7 0 16 -43 23
-117 7 -65 15 -141 18 -170 l7 -52 -49 26 c-43 22 -58 24 -119 20 -80 -6 -157
-32 -209 -72 -36 -27 -37 -27 -93 -14 l-58 14 1 225 c0 215 2 232 33 375 18
82 35 152 37 155 6 5 46 -41 84 -98 15 -24 47 -88 71 -143 23 -55 45 -97 49
-92 4 4 20 44 35 88 30 87 115 275 124 275 3 0 40 -46 82 -103z m-595 56 c-24
-46 -116 -165 -199 -258 -186 -211 -331 -442 -384 -615 -19 -60 -22 -66 -17
-30 8 60 65 233 109 327 76 164 289 441 436 567 53 45 76 49 55 9z m-499 -157
c12 -38 21 -72 18 -74 -2 -3 -73 -11 -157 -19 -182 -16 -205 -20 -190 -35 7
-7 41 -7 111 1 114 12 124 10 212 -49 70 -48 70 -41 1 -200 -72 -168 -93 -229
-112 -328 -10 -52 -20 -95 -22 -97 -2 -2 -32 -8 -68 -14 -90 -15 -211 -52
-217 -67 -4 -11 33 -175 63 -281 5 -19 -4 -29 -65 -67 -66 -43 -98 -57 -88
-38 2 4 -2 59 -9 122 -7 63 -13 190 -14 283 0 151 -7 195 -24 151 -3 -9 -6
-49 -6 -89 0 -53 -6 -90 -21 -127 -12 -29 -45 -124 -73 -210 l-51 -156 -73 33
c-69 33 -72 35 -66 62 10 42 67 198 103 282 33 77 36 91 23 91 -21 0 -99 -183
-141 -330 l-21 -74 22 -23 c21 -23 21 -26 10 -150 -7 -70 -16 -131 -21 -136
-12 -12 -192 34 -198 50 -13 33 114 398 193 555 26 51 29 68 14 68 -23 0 -186
-392 -221 -532 -12 -48 -19 -94 -15 -103 6 -17 10 -19 73 -35 l42 -10 -26 -58
c-94 -211 -221 -593 -242 -727 -10 -65 -10 -71 9 -87 11 -9 25 -18 30 -20 6
-2 5 -20 -2 -46 -10 -40 -13 -43 -37 -37 -50 12 -51 15 -58 283 -6 226 -5 252
9 247 20 -8 65 49 74 91 8 40 -14 57 -77 61 -63 4 -75 -14 -55 -84 10 -33 18
-140 24 -338 5 -159 8 -291 7 -293 -2 -1 -38 13 -81 32 l-79 35 2 138 c2 213
29 397 94 663 26 102 27 114 14 120 -12 6 -73 -223 -110 -416 -14 -77 -30
-147 -35 -154 -7 -11 -26 -2 -93 43 -47 32 -87 64 -90 71 -5 14 45 168 83 253
l19 44 26 -17 c39 -25 47 -10 84 156 18 80 41 183 52 230 11 47 27 121 35 164
13 75 17 83 59 121 25 23 45 49 45 58 0 24 -43 49 -94 54 -38 5 -46 2 -56 -17
-17 -32 -7 -120 15 -136 19 -14 23 8 -67 -394 -47 -208 -47 -210 -58 -210 -12
0 -169 149 -181 171 -7 14 14 60 101 222 60 111 110 210 110 218 -1 24 -37
-27 -95 -135 -79 -148 -71 -141 -127 -106 -56 35 -58 23 29 178 35 62 63 115
63 117 0 18 -25 -3 -53 -45 l-33 -49 -48 48 -47 48 57 79 c47 66 80 107 166
208 4 6 17 4 32 -4 24 -12 31 -7 195 151 149 142 190 189 165 189 -3 0 -79
-72 -169 -160 -89 -88 -167 -160 -172 -160 -20 0 -113 122 -113 150 0 12 342
270 358 270 6 0 19 -11 28 -25 9 -14 23 -25 31 -25 8 0 76 37 151 83 75 45
168 96 205 111 37 16 66 34 64 40 -3 6 -10 10 -16 8 -35 -8 -210 -97 -295
-150 -54 -34 -102 -62 -106 -62 -4 0 -27 32 -51 71 -32 53 -40 75 -33 87 18
28 176 110 293 152 79 27 153 45 231 56 174 23 248 5 330 -80 24 -25 47 -46
51 -46 4 0 7 12 6 27 -2 25 6 31 93 75 103 52 196 77 274 75 l49 -2 24 -69z
m438 -57 c-14 -51 -38 -115 -51 -142 -66 -130 -141 -371 -170 -544 -15 -92
-15 -281 1 -403 l5 -35 -10 30 c-6 17 -17 84 -26 150 -42 311 35 647 218 957
29 48 54 86 56 83 2 -2 -8 -45 -23 -96z m669 -87 c13 -42 30 -111 37 -152 14
-81 14 -301 1 -390 -7 -47 -9 -33 -15 100 -7 160 -46 451 -66 489 -12 22 -6
45 9 36 5 -3 20 -40 34 -83z m-254 53 c0 -8 -2 -15 -4 -15 -2 0 -6 7 -10 15
-3 8 -1 15 4 15 6 0 10 -7 10 -15z m-538 -62 c-66 -131 -112 -268 -140 -418
l-17 -90 -55 -38 -55 -38 -3 25 c-4 29 22 176 44 255 9 30 32 79 51 110 36 56
190 251 199 251 2 0 -9 -26 -24 -57z m732 35 c13 -52 7 -66 -52 -112 -32 -24
-78 -71 -102 -103 -60 -79 -63 -82 -51 -51 27 72 82 163 148 246 39 48 48 51
57 20z m-671 -235 c-7 -49 -15 -123 -19 -165 l-6 -77 -34 -11 c-20 -7 -37 -10
-39 -8 -13 12 92 348 108 348 2 0 -3 -39 -10 -87z m677 -203 c22 -11 44 -29
50 -39 20 -38 12 -235 -15 -369 -28 -135 -28 -171 -1 -107 25 60 52 170 72
295 18 108 19 111 35 89 l17 -23 60 27 c85 38 173 32 186 -12 35 -116 60 -536
35 -583 -28 -54 -162 -199 -241 -262 -45 -36 -112 -82 -150 -101 l-69 -37 -55
43 c-128 99 -277 294 -327 427 -26 72 -62 251 -55 273 2 7 34 -49 71 -125 37
-76 71 -135 76 -131 6 3 2 24 -10 53 -35 79 -109 311 -109 338 0 37 54 134 99
178 81 79 242 111 331 66z m-1198 -415 c-2 -88 0 -135 7 -135 13 0 18 24 26
120 3 41 10 92 16 113 l10 38 117 -3 117 -3 3 -45 c1 -25 9 -96 18 -159 8 -62
14 -114 12 -116 -2 -1 -118 -5 -258 -8 l-255 -5 -33 132 c-18 72 -32 136 -32
142 0 16 162 58 240 63 13 1 15 -19 12 -134z m477 102 l45 -12 27 -130 c15
-71 31 -141 35 -154 l7 -24 -98 6 c-54 4 -100 8 -102 11 -7 6 -18 208 -15 264
3 49 4 52 30 51 15 0 47 -6 71 -12z m210 -60 c23 -11 27 -20 34 -82 4 -39 16
-101 28 -139 11 -37 19 -69 17 -71 -2 -1 -32 5 -68 14 -64 16 -65 17 -72 56
-4 22 -11 86 -16 143 l-8 104 29 -6 c16 -3 41 -12 56 -19z m1225 -282 c13 -66
27 -139 31 -162 9 -59 21 -273 15 -273 -6 0 -42 95 -97 255 l-34 100 11 136
c6 75 9 161 6 190 -5 48 -3 45 19 -36 14 -49 36 -144 49 -210z m-2343 -61
c-26 -88 -30 -94 -94 -154 -111 -103 -210 -273 -192 -329 7 -24 63 -51 104
-51 30 0 32 -2 26 -32 -3 -18 -17 -109 -31 -203 -25 -164 -36 -200 -75 -257
-11 -14 -19 -31 -19 -37 0 -25 21 -8 52 44 18 30 36 55 40 55 3 0 63 -21 132
-46 131 -48 136 -52 98 -96 -8 -9 -17 -44 -21 -78 -4 -34 -13 -65 -20 -69 -6
-4 -14 -31 -18 -59 -3 -29 -9 -52 -13 -52 -15 0 -269 84 -368 121 -57 22 -139
57 -183 79 -71 36 -79 43 -79 69 0 34 73 293 125 441 33 93 140 358 149 367 1
2 24 -3 49 -11 34 -10 49 -11 55 -2 5 6 14 61 21 121 6 61 14 124 17 142 l5
32 55 -24 c31 -14 60 -23 64 -20 4 2 34 87 66 187 l59 182 11 -114 c11 -112
11 -117 -15 -206z m2235 -71 c32 -102 87 -242 143 -363 11 -25 21 -61 21 -80
l-1 -35 -35 55 c-52 80 -136 250 -178 360 -20 52 -43 108 -51 123 -14 26 -13
32 12 80 l26 52 14 -40 c8 -22 30 -91 49 -152z m-70 -103 c19 -80 30 -457 18
-597 l-8 -98 -7 155 c-3 85 -12 191 -18 235 -21 137 -52 279 -62 286 -7 4 -4
35 7 89 l18 83 19 -44 c10 -24 25 -73 33 -109z m-96 95 c0 -15 -6 -25 -14 -25
-16 0 -18 -22 -37 -313 -16 -245 2 -781 30 -907 5 -23 6 -38 1 -34 -15 15 -61
214 -81 349 -21 140 -44 553 -35 622 3 24 3 49 0 58 -41 107 -24 -493 21 -756
9 -50 14 -93 12 -96 -7 -6 -71 163 -91 239 -16 60 -17 83 -7 219 6 84 9 155 6
158 -10 10 -25 -23 -25 -56 0 -81 -43 -347 -69 -433 -16 -52 -59 -160 -95
-240 -67 -146 -106 -211 -66 -110 108 271 170 587 170 873 0 107 -17 135 -22
35 l-3 -63 -18 70 c-10 39 -20 79 -23 90 -3 16 11 31 67 70 67 46 269 247 269
266 0 5 2 9 5 9 3 0 5 -11 5 -25z m46 -370 c8 -91 -11 -301 -41 -438 -13 -60
-26 -111 -29 -114 -3 -4 -6 117 -6 268 0 269 12 487 27 512 9 14 39 -127 49
-228z m-1259 153 c-3 -8 -6 -5 -6 6 -1 11 2 17 5 13 3 -3 4 -12 1 -19z m199
-65 c-4 -49 -9 -121 -12 -160 -8 -90 8 -98 32 -15 9 31 21 62 26 67 7 7 8 3 5
-10 -3 -11 -9 -38 -13 -60 -6 -34 -5 -38 7 -28 8 6 23 36 33 65 19 52 36 82
36 61 0 -5 -5 -24 -11 -42 -16 -46 -3 -97 37 -140 22 -25 32 -45 28 -55 -8
-20 5 -20 34 0 20 14 22 14 22 0 0 -20 14 -20 30 -1 7 8 18 15 26 15 7 0 23
10 35 23 13 13 20 16 17 7 -3 -8 -17 -52 -32 -98 -16 -46 -43 -106 -62 -134
-19 -28 -33 -55 -32 -60 5 -14 46 21 88 74 45 56 47 53 23 -35 -11 -43 -27
-74 -52 -99 -19 -21 -38 -38 -41 -38 -4 0 -21 57 -39 128 -40 158 -49 178 -81
174 -34 -4 -40 -17 -40 -102 0 -71 -1 -73 -16 -52 -15 22 -20 23 -117 17 -117
-8 -147 -21 -147 -64 0 -40 58 -121 102 -144 48 -24 87 -16 130 26 31 31 31
31 25 7 -3 -14 -9 -42 -13 -63 -7 -44 -49 -77 -96 -77 -73 0 -399 192 -390
230 2 7 -11 27 -28 45 -20 20 -43 66 -65 128 -19 53 -33 97 -30 97 3 0 14 -18
25 -40 25 -49 45 -44 24 6 -8 20 -13 38 -10 41 8 9 76 -71 71 -84 -5 -16 11
-27 20 -13 10 15 35 12 35 -5 0 -22 16 -18 34 9 8 14 28 31 43 38 26 12 28 18
31 81 2 51 0 67 -11 67 -7 0 -18 -5 -24 -11 -8 -8 -15 -4 -26 11 -23 33 -11
50 35 50 35 0 39 2 33 20 -4 12 -2 20 6 20 9 0 8 4 -1 15 -7 8 -10 21 -7 29 3
7 0 19 -6 25 -8 8 -8 14 1 23 16 16 22 7 42 -64 9 -34 22 -64 28 -66 15 -5 15
10 -3 83 -17 73 -18 75 -5 75 6 0 10 -5 10 -11 0 -6 14 -40 30 -74 25 -52 28
-68 20 -90 -12 -33 -13 -65 -1 -65 9 0 38 87 75 220 l16 55 -6 -59 c-3 -32
-13 -84 -21 -115 -24 -88 -26 -101 -15 -101 18 0 52 89 74 195 20 94 38 135
61 135 6 0 7 -34 3 -87z m515 -63 c16 -32 23 -243 11 -295 -10 -40 -10 -40
-11 23 -1 34 -5 62 -10 62 -15 0 -18 -20 -20 -142 -4 -183 -62 -403 -157 -588
-32 -63 -102 -170 -91 -140 3 8 20 51 37 95 36 91 94 282 105 343 9 56 -11 56
-25 0 -31 -120 -85 -267 -94 -256 -2 1 16 64 41 138 48 148 133 482 133 523 0
25 -13 36 -23 20 -2 -5 -2 -2 0 6 48 188 53 215 44 224 -6 6 -15 -10 -26 -49
-54 -194 -104 -334 -119 -334 -6 0 72 258 86 282 7 13 11 47 9 80 -1 31 0 66
4 77 6 20 8 19 50 -12 24 -17 49 -43 56 -57z m-1396 -132 c8 -37 48 -119 77
-158 19 -26 19 -27 -9 -138 -31 -128 -41 -131 -73 -23 -27 92 -43 224 -35 293
8 65 29 79 40 26z m-135 -22 c0 -129 64 -306 137 -381 19 -20 31 -41 28 -49
-3 -9 -7 -24 -10 -33 -5 -13 -14 -9 -48 25 -49 49 -64 52 -73 16 -4 -14 -12
-23 -18 -21 -6 2 -58 21 -116 42 -58 20 -109 41 -113 45 -7 6 39 379 48 388
12 12 20 -13 23 -65 4 -81 34 -193 51 -193 4 0 5 54 3 120 -3 65 -2 126 1 135
4 10 20 15 47 15 l40 0 0 -44z m1416 -128 c-17 -112 -89 -349 -102 -335 -2 1
10 45 26 96 16 52 34 121 40 155 12 69 29 126 37 126 3 0 2 -19 -1 -42z m-367
-193 c39 -37 -35 -155 -97 -155 -39 0 -89 42 -113 95 -23 50 -14 61 61 73 66
10 130 4 149 -13z m-665 -260 c29 -6 40 -16 65 -59 32 -58 103 -126 109 -107
2 7 -3 20 -11 29 -21 25 -69 122 -60 123 48 6 233 -43 233 -62 0 -4 -29 -52
-63 -106 -76 -117 -187 -300 -187 -308 0 -3 -7 -17 -17 -31 l-16 -25 -42 110
c-24 60 -52 122 -64 137 -19 24 -21 40 -21 148 0 134 6 170 26 162 7 -3 28 -8
48 -11z m-952 -60 l65 -30 6 -159 c4 -88 5 -161 4 -163 -2 -1 -41 10 -88 25
l-84 29 -3 113 c-3 110 12 224 27 218 5 -2 37 -16 73 -33z m1448 -20 c0 -3
-16 -37 -35 -76 l-36 -70 -41 30 c-23 17 -46 28 -51 24 -10 -6 4 -20 60 -61
l25 -18 -16 -53 c-21 -71 -28 -195 -19 -321 8 -100 7 -107 -15 -142 -14 -21
-32 -40 -42 -43 -32 -10 -61 -135 -40 -174 14 -26 72 -43 135 -39 l50 3 12 50
c16 71 15 116 -2 129 -23 17 -22 91 1 123 11 16 36 50 55 78 18 27 60 83 92
125 51 65 62 74 87 72 42 -5 67 13 81 55 16 52 53 123 78 153 l21 25 -16 -40
c-62 -154 -147 -271 -242 -332 -29 -19 -50 -38 -47 -43 12 -19 54 9 151 103
l104 100 0 -60 c0 -63 29 -248 54 -343 36 -136 80 -238 156 -357 13 -19 11
-32 -18 -117 -18 -52 -32 -108 -32 -125 0 -17 -4 -31 -9 -31 -11 0 -161 84
-419 234 l-202 118 -53 -22 c-111 -47 -214 -102 -262 -140 -28 -22 -53 -36
-59 -30 -4 4 -6 118 -4 252 5 219 8 252 31 339 30 114 47 149 178 366 116 193
154 249 171 256 17 7 118 8 118 2z m-1180 -79 c85 -29 154 -56 153 -59 -2 -4
-3 -65 -3 -135 l0 -129 -76 -9 c-60 -8 -77 -7 -81 3 -3 7 3 78 12 158 10 80
14 149 11 153 -12 11 -26 -21 -27 -63 -2 -100 -7 -106 -86 -103 l-68 3 -7 100
c-4 55 -9 110 -11 123 -4 18 -1 22 12 16 9 -3 86 -30 171 -58z m1196 -26 c-4
-35 -3 -60 2 -60 11 0 22 34 22 68 0 18 6 22 35 24 19 1 43 2 52 2 14 1 20
-14 30 -74 l12 -75 -27 -21 c-30 -25 -25 -42 7 -24 18 9 22 7 31 -15 14 -37
15 -35 -42 -106 -28 -35 -85 -112 -127 -172 -45 -64 -79 -103 -84 -98 -16 16
-21 266 -8 355 17 109 24 120 56 81 18 -22 24 -26 25 -13 0 9 -11 29 -23 44
l-24 28 25 58 c33 75 46 75 38 -2z m1426 -14 c112 -21 218 -60 347 -126 119
-61 284 -175 321 -222 29 -38 162 -250 158 -253 -2 -2 -39 5 -83 16 -44 10
-118 24 -165 30 -93 13 -153 32 -339 111 l-124 53 -4 40 c-8 94 -5 92 -122 75
-57 -8 -67 -7 -110 15 -25 13 -54 26 -63 29 -24 7 -53 68 -76 158 -14 54 -16
80 -9 87 14 14 169 6 269 -13z m-354 2 c13 -16 83 -190 78 -195 -1 -2 -65 38
-142 89 -76 51 -132 94 -124 95 8 2 49 7 90 12 41 5 78 9 81 10 4 0 11 -5 17
-11z m-463 -15 c-4 -10 -18 -65 -32 -123 -26 -107 -39 -145 -70 -192 -19 -30
-10 -52 10 -24 11 15 15 -3 25 -121 7 -80 24 -189 42 -261 50 -205 38 -217
-37 -38 -96 227 -123 335 -137 551 -6 83 -5 93 17 129 l24 39 7 -52 c10 -78
22 -101 50 -101 31 0 41 14 56 80 23 107 31 130 41 130 7 0 8 -7 4 -17z m199
-23 c31 -10 69 -28 84 -38 15 -11 92 -59 172 -107 80 -48 147 -89 149 -91 3
-3 -6 -12 -18 -20 -18 -13 -22 -23 -17 -45 4 -23 -6 -50 -51 -130 -31 -56 -62
-103 -69 -106 -7 -3 -38 5 -69 16 -31 12 -97 28 -146 37 -82 14 -94 14 -149
-2 -33 -9 -60 -21 -60 -26 0 -9 29 -8 70 3 18 5 19 9 -28 -148 -20 -68 -39
-123 -43 -123 -7 0 -23 73 -49 223 -24 145 -26 276 -5 318 17 32 165 259 169
259 2 0 28 -9 60 -20z m690 -331 c9 -8 -20 -99 -31 -99 -3 0 -30 19 -59 43
-49 39 -68 67 -44 67 6 0 10 6 10 14 0 12 8 12 58 -1 31 -9 61 -20 66 -24z
m-184 -7 c0 -4 -131 -255 -136 -261 -3 -3 -79 26 -93 36 -4 2 103 197 121 220
8 10 108 14 108 5z m113 -100 c15 -16 17 -29 12 -66 -4 -25 -9 -46 -10 -46 -6
0 -120 121 -123 131 -2 5 4 21 13 35 l16 25 37 -29 c20 -17 45 -39 55 -50z
m178 14 c144 -66 276 -109 423 -137 184 -36 314 -71 559 -152 l188 -62 -4 -55
c-2 -30 -11 -80 -19 -110 -9 -30 -19 -74 -23 -97 -4 -24 -10 -43 -15 -43 -4 0
-86 20 -182 45 -185 47 -380 110 -518 167 -102 42 -126 50 -390 124 -113 31
-209 60 -214 65 -13 11 2 76 23 97 9 9 22 40 29 68 11 51 47 124 62 124 4 0
40 -15 81 -34z m-253 -85 l52 -59 -16 -53 -16 -54 -54 60 c-30 33 -57 70 -60
81 -6 22 20 84 35 84 4 0 31 -27 59 -59z m-437 -26 c31 -8 103 -38 159 -67 94
-47 106 -57 138 -108 44 -69 71 -100 90 -100 18 0 41 29 42 51 0 8 6 23 13 32
11 16 21 15 137 -19 69 -20 193 -55 275 -78 83 -24 182 -57 221 -74 65 -29
351 -127 434 -148 35 -10 35 -10 63 -119 25 -99 28 -129 30 -295 2 -147 -2
-202 -16 -270 -16 -73 -73 -258 -83 -269 -13 -14 -416 107 -584 176 -217 89
-753 384 -844 464 -55 49 -225 264 -296 376 l-52 83 45 137 c25 76 53 164 62
196 l16 58 47 -6 c26 -4 72 -13 103 -20z m373 -84 l46 -60 -16 -40 c-9 -23
-19 -41 -23 -41 -3 0 -26 32 -49 71 -41 65 -43 72 -32 100 7 16 16 29 20 29 4
0 28 -27 54 -59z m-1315 -344 c32 -19 55 -41 57 -52 2 -11 37 -80 79 -152 41
-73 75 -134 75 -136 0 -5 -125 1 -190 9 l-44 6 49 42 49 43 -18 44 c-22 55
-93 188 -114 212 -38 43 -28 8 29 -104 68 -134 68 -133 -12 -143 -27 -4 -56
-9 -64 -12 -17 -7 -19 44 -8 208 l6 97 26 -14 c14 -8 50 -30 80 -48z m-194
-59 c-29 -62 -59 -131 -66 -153 -7 -22 -14 -42 -16 -44 -3 -6 -103 30 -103 38
0 30 206 270 232 271 4 0 -17 -51 -47 -112z m-92 5 c-120 -139 -123 -145 -123
-238 l0 -84 -47 16 c-27 9 -50 17 -52 19 -6 6 86 142 146 216 34 41 53 74 49
83 -3 9 5 20 22 29 52 29 54 16 5 -41z m141 -82 c-8 -140 -5 -155 30 -141 26
9 36 -2 36 -40 0 -28 31 -40 105 -40 60 0 66 -2 75 -24 12 -32 33 -43 122 -61
42 -9 82 -24 94 -36 14 -13 53 -27 106 -37 l83 -17 6 -95 c6 -96 16 -130 108
-379 17 -47 30 -86 28 -87 -2 -2 -32 38 -67 89 -72 102 -217 257 -241 257 -9
0 -35 -14 -58 -31 -40 -29 -43 -33 -39 -72 2 -23 19 -106 38 -184 19 -78 31
-145 28 -148 -11 -11 -268 -8 -382 4 -163 18 -486 84 -486 100 0 3 12 44 25
91 41 140 76 337 82 471 l6 127 26 -9 c31 -12 41 -1 68 73 16 45 20 49 43 43
14 -3 31 -7 39 -8 9 -1 22 23 37 68 23 68 84 205 92 205 2 0 0 -54 -4 -119z
m-187 92 c-3 -5 -51 -69 -106 -143 -102 -137 -120 -177 -89 -208 7 -7 9 -12 6
-12 -13 0 -98 42 -98 48 0 10 103 139 147 184 19 20 33 42 31 50 -3 8 18 28
51 50 58 39 65 43 58 31z m539 -76 c160 -91 174 -100 174 -111 0 -10 172 -227
195 -246 31 -26 16 -32 -57 -25 -40 4 -77 11 -83 16 -5 6 -4 9 4 9 27 0 3 47
-93 188 -86 125 -116 160 -116 134 0 -4 43 -70 95 -147 52 -77 95 -143 95
-146 0 -7 -231 39 -239 47 -2 2 5 4 17 4 11 0 28 7 36 16 14 14 12 22 -19 83
-19 38 -59 110 -89 160 -30 50 -53 91 -52 91 2 0 61 -33 132 -73z m454 6 c79
-100 200 -221 295 -297 50 -41 134 -114 186 -161 107 -99 374 -282 512 -352
165 -83 508 -208 670 -243 31 -7 57 -16 57 -20 0 -15 -113 -216 -134 -237 -21
-22 -22 -22 -116 -7 -60 10 -214 18 -415 23 l-320 7 -125 38 c-69 22 -128 42
-132 45 -4 4 -32 76 -62 161 -127 363 -199 545 -220 553 -20 8 -135 -25 -140
-40 -10 -25 -26 -232 -27 -343 l0 -105 -16 40 c-69 181 -125 368 -130 433 l-6
72 26 0 c14 0 37 4 52 10 20 8 24 14 20 33 -5 17 1 28 24 45 17 12 31 31 31
42 0 10 -30 45 -71 82 -67 60 -71 64 -66 99 6 46 48 179 56 179 3 -1 26 -26
51 -57z m1914 -6 c29 -43 67 -227 72 -352 5 -98 1 -150 -20 -288 -14 -92 -35
-201 -47 -242 l-22 -75 -36 6 c-20 4 -37 8 -39 9 -2 2 11 45 28 98 57 176 64
224 64 447 0 198 -4 236 -40 393 -8 35 18 38 40 4z m-3115 -97 c-67 -74 -89
-89 -95 -64 -3 10 145 143 159 144 5 0 -24 -36 -64 -80z m1025 -61 c28 -18 77
-54 109 -82 l58 -50 -22 -24 c-13 -13 -26 -22 -30 -21 -11 4 -180 208 -172
208 3 0 29 -14 57 -31z m868 -371 c131 -76 423 -220 523 -258 160 -60 305
-105 460 -145 146 -37 227 -53 410 -80 29 -5 30 -7 27 -50 -4 -40 -6 -44 -26
-40 -11 2 -80 16 -151 29 -139 27 -442 111 -615 171 -140 48 -400 177 -530
262 -97 63 -280 201 -280 210 0 5 47 -20 182 -99z m-512 4 c0 -4 -5 -13 -10
-18 -10 -10 -56 -240 -81 -402 -6 -40 -14 -71 -16 -68 -7 6 -2 318 5 400 7 68
8 70 42 82 42 15 60 17 60 6z m202 -530 c27 -79 48 -145 46 -148 -2 -2 -17 0
-33 5 -28 7 -32 14 -57 107 -29 108 -90 269 -139 366 -27 53 -30 67 -24 112 4
28 10 55 12 59 6 9 116 -274 195 -501z m-626 326 c39 -40 99 -111 134 -158 35
-47 83 -108 107 -136 24 -28 43 -54 43 -58 0 -17 -61 38 -128 116 -40 45 -102
108 -137 137 -55 47 -65 61 -71 96 -6 46 -19 73 -30 63 -20 -21 81 -413 195
-759 109 -328 108 -324 82 -338 -11 -6 -24 -11 -30 -11 -10 0 -74 158 -117
290 -50 153 -178 643 -197 753 -3 21 2 33 25 52 16 14 35 25 42 25 7 0 44 -33
82 -72z m494 -213 c43 -115 73 -215 67 -221 -2 -3 -40 13 -85 34 -44 22 -90
42 -101 45 -28 7 -27 36 6 211 l27 141 24 -55 c13 -30 41 -100 62 -155z m-390
-5 c41 -46 57 -71 48 -74 -41 -14 -122 -25 -129 -19 -3 5 -18 56 -31 115 l-25
107 38 -30 c20 -16 65 -61 99 -99z m-670 -126 c149 -19 228 -24 334 -22 l140
3 18 -74 c10 -41 16 -77 13 -79 -3 -3 -91 -5 -197 -5 -286 -1 -460 25 -666
100 -115 42 -114 41 -78 127 l14 34 114 -29 c62 -16 201 -41 308 -55z m790 0
c27 -23 31 -32 28 -67 l-3 -40 -85 -23 c-47 -13 -88 -20 -91 -16 -7 8 -41 143
-37 147 6 5 103 23 130 24 15 1 39 -10 58 -25z m1862 -12 c3 -4 -25 -62 -62
-128 -109 -194 -115 -202 -143 -197 -23 5 -24 8 -19 46 3 26 32 88 74 161 37
66 68 124 68 129 0 10 70 0 82 -11z m-2995 -97 c129 -46 152 -51 368 -81 122
-18 417 -25 466 -11 25 6 27 5 59 -101 18 -59 59 -180 93 -269 66 -177 65
-177 132 -149 40 17 42 25 49 211 2 72 8 141 14 155 8 21 12 11 32 -75 88
-393 167 -627 248 -732 29 -39 120 -101 256 -173 91 -49 97 -54 80 -67 -35
-26 -332 -203 -341 -203 -4 0 -20 21 -34 48 -14 26 -106 196 -204 377 -174
323 -215 390 -215 352 0 -14 378 -719 426 -795 14 -21 13 -23 -13 -33 -146
-55 -555 -144 -717 -156 l-89 -6 8 99 c13 155 13 965 1 961 -8 -3 -13 -166
-17 -501 -3 -284 -9 -500 -15 -505 -10 -10 -210 -36 -398 -52 -96 -8 -159 -8
-250 1 -66 6 -126 13 -133 15 -33 10 143 448 338 838 65 129 77 175 29 107
-60 -84 -317 -654 -375 -829 l-17 -53 -62 6 c-92 11 -288 52 -401 85 -179 53
-245 75 -245 82 0 20 406 387 624 564 134 109 161 135 138 135 -10 0 -300
-230 -402 -319 -36 -31 -131 -118 -212 -194 l-148 -138 -114 59 c-106 55 -283
171 -365 240 l-34 28 79 50 c43 28 117 71 164 97 88 47 507 235 572 256 44 14
71 41 42 41 -61 -1 -677 -288 -796 -371 -14 -11 -31 -19 -38 -19 -31 0 -310
286 -310 318 0 11 299 109 475 156 72 19 191 46 265 61 l135 26 210 126 c116
69 220 132 233 140 34 21 16 36 -21 17 -18 -9 -124 -72 -237 -139 -146 -88
-218 -125 -250 -130 -78 -12 -311 -65 -405 -92 -80 -22 -319 -97 -350 -110
-18 -6 -165 326 -165 372 0 16 50 30 232 65 164 31 389 50 601 50 128 0 129 0
270 49 78 28 169 58 202 67 84 24 366 92 387 93 9 1 75 -19 145 -44z m1505
-208 c51 -40 129 -100 173 -132 89 -64 73 -64 -55 0 -133 66 -221 98 -233 86
-7 -7 1 -15 28 -27 21 -8 84 -36 139 -61 56 -24 218 -89 361 -143 143 -54 312
-118 375 -142 63 -25 123 -48 133 -51 15 -6 -3 -30 -106 -144 -69 -76 -146
-158 -171 -182 l-45 -44 -88 50 c-48 28 -164 90 -256 138 -130 67 -190 106
-263 167 -51 43 -98 87 -104 98 -30 56 -130 356 -154 463 -36 155 -19 169 90
72 45 -40 124 -107 176 -148z m-133 179 c32 -18 125 -80 207 -137 248 -174
266 -183 472 -243 481 -141 711 -204 897 -246 209 -48 294 -77 327 -112 30
-33 37 -72 13 -82 -8 -3 -15 -16 -15 -30 0 -17 -10 -31 -35 -46 l-34 -21 -138
51 c-76 28 -174 64 -218 81 -44 18 -282 110 -529 205 -247 96 -468 185 -490
198 -95 56 -526 393 -526 412 0 9 14 3 69 -30z m380 -70 c109 -35 119 -36 421
-40 274 -4 570 -30 570 -51 0 -6 -37 -76 -83 -156 l-83 -144 -64 3 c-147 8
-520 108 -665 180 -50 25 -365 231 -420 276 l-30 24 135 -33 c74 -17 173 -44
219 -59z m-615 22 c-9 -29 -27 -91 -41 -138 l-26 -85 -33 100 c-19 54 -34 107
-34 116 0 12 20 22 73 36 39 11 73 21 74 22 1 0 -5 -23 -13 -51z m131 -253
c16 -49 56 -164 90 -255 125 -331 155 -372 363 -478 77 -40 196 -96 265 -126
141 -61 389 -212 666 -406 98 -69 193 -137 212 -151 l33 -26 -87 -41 c-48 -22
-87 -45 -87 -51 0 -19 -21 -12 -64 21 -67 52 -276 227 -341 286 -86 78 -177
137 -365 237 -328 174 -405 219 -446 261 -83 83 -157 277 -245 644 -28 118
-54 229 -58 245 -4 17 -5 37 -3 45 3 8 13 -14 22 -50 9 -36 30 -105 45 -155z
m1568 59 c26 -8 47 -19 47 -25 0 -17 -31 -71 -92 -161 -72 -106 -79 -112 -118
-103 -23 5 -30 12 -30 30 0 15 -7 25 -21 28 -21 6 -21 6 -2 34 11 15 34 55 53
88 64 116 80 137 98 130 9 -4 38 -13 65 -21z m-4631 -201 c22 -49 51 -112 64
-141 l23 -53 -24 -9 c-14 -5 -25 -17 -25 -25 0 -31 61 -104 187 -224 99 -94
124 -124 115 -133 -7 -7 -12 -17 -12 -24 0 -13 187 -157 280 -216 30 -20 97
-56 148 -82 50 -25 92 -50 92 -54 0 -4 -5 -13 -10 -18 -17 -17 5 -29 125 -69
138 -46 361 -102 462 -116 43 -6 92 -13 110 -15 25 -4 32 -10 35 -31 5 -40 38
-46 278 -47 200 -1 460 19 513 39 12 5 17 2 17 -9 0 -36 40 -39 216 -17 93 12
202 30 242 40 82 22 77 25 86 -61 7 -68 10 -65 -120 -103 -86 -25 -266 -56
-408 -71 -64 -6 -69 -5 -62 11 4 10 9 46 13 79 4 49 3 59 -7 49 -7 -7 -16 -29
-19 -49 l-6 -37 -95 -19 c-153 -29 -440 -51 -440 -34 0 2 9 25 20 51 24 57 27
93 6 76 -8 -7 -17 -24 -21 -39 -13 -51 -16 -52 -194 -52 -114 0 -207 6 -296
20 -182 27 -205 32 -205 39 0 4 20 35 45 69 43 60 56 92 35 92 -5 0 -10 -3
-10 -7 0 -5 -18 -28 -39 -52 l-38 -44 -64 17 c-156 44 -322 107 -350 132 -18
16 -17 19 31 74 48 55 61 80 41 80 -5 0 -23 -17 -40 -37 l-30 -37 -53 29
c-103 55 -242 160 -323 244 l-39 41 39 40 c44 45 42 59 -5 33 l-32 -18 -120
125 c-107 111 -218 249 -218 271 0 4 20 17 45 28 25 11 45 25 45 32 0 6 -6 9
-12 6 -56 -20 -56 -20 -93 38 -42 65 -115 213 -115 232 0 7 6 13 13 14 6 0 39
6 72 14 33 7 66 14 73 14 7 1 32 -38 54 -86z m3470 -374 c122 -60 448 -242
448 -249 0 -3 -27 -20 -59 -37 l-59 -33 -128 60 c-299 139 -336 169 -415 337
-27 58 -49 107 -49 110 0 2 36 -28 80 -66 55 -49 112 -86 182 -122z m876 119
c28 -12 52 -24 52 -27 0 -3 -44 -52 -98 -109 l-97 -104 -60 27 c-33 15 -62 28
-64 30 -2 2 39 52 90 110 66 75 98 104 109 99 8 -3 39 -15 68 -26z m-199 -243
c46 -19 86 -37 90 -41 7 -7 -97 -104 -198 -181 l-73 -57 -64 34 c-35 19 -64
37 -64 41 0 3 27 18 59 32 70 30 77 39 50 63 -20 18 -19 18 43 81 34 35 65 63
68 63 3 0 43 -16 89 -35z m-401 -378 c39 -20 72 -41 72 -45 0 -4 -28 -23 -62
-42 -155 -87 -254 -140 -265 -140 -7 0 -30 28 -52 63 -31 48 -37 65 -28 74 7
6 61 41 120 77 74 44 114 63 125 58 9 -4 50 -24 90 -45z m-335 -170 c64 -100
64 -92 1 -126 -66 -36 -446 -163 -455 -153 -4 4 -9 38 -11 76 l-3 69 160 46
c133 38 161 50 163 66 3 19 74 72 99 74 7 1 28 -23 46 -52z m120 -154 c31 -33
37 -46 42 -100 7 -75 19 -112 79 -231 68 -135 79 -190 73 -347 -5 -145 -20
-200 -68 -259 -24 -28 -37 -36 -58 -34 -14 2 -27 10 -28 18 -1 8 -5 45 -8 83
-4 37 -10 67 -15 67 -4 0 -10 -57 -12 -127 -6 -209 -26 -228 -243 -228 -131 0
-149 3 -277 38 -76 21 -154 45 -174 53 l-37 16 96 54 c87 50 116 74 87 74 -6
0 -53 -25 -106 -55 -138 -80 -207 -106 -296 -114 -42 -4 -79 -9 -81 -11 -1 -3
-11 -17 -20 -32 -19 -30 -70 -49 -111 -41 -23 5 -26 10 -26 43 0 30 5 40 20
45 16 5 20 15 20 54 0 65 -27 152 -54 176 -12 11 -36 43 -53 71 -17 28 -63 84
-102 125 -39 40 -71 77 -71 83 1 6 11 24 24 40 22 26 28 28 68 22 110 -18 133
-19 122 -6 -7 6 -43 19 -80 29 l-69 17 55 32 c81 48 296 156 370 187 66 29
164 56 350 99 137 32 434 135 485 169 22 14 45 26 50 26 6 1 27 -16 48 -36z
m93 -11 c30 -24 41 -48 54 -122 6 -35 18 -76 25 -90 20 -39 92 -100 116 -100
20 0 21 4 16 53 -3 28 -14 78 -24 110 -21 59 -14 77 11 30 7 -16 26 -68 40
-118 34 -115 82 -247 112 -307 31 -61 31 -72 0 -28 -13 19 -68 76 -122 125
-77 71 -115 116 -177 210 -69 106 -77 124 -73 155 4 25 0 45 -14 68 -18 29
-18 32 -2 32 9 0 27 -8 38 -18z m-1316 -226 c0 -18 -41 -77 -210 -306 -75
-102 -156 -214 -180 -250 -74 -111 -189 -259 -256 -330 -35 -37 -64 -73 -64
-79 0 -21 64 36 136 120 38 46 79 94 91 108 22 26 22 26 37 6 33 -41 96 -181
98 -218 l3 -38 -105 -45 c-127 -54 -267 -99 -335 -108 -27 -4 -108 -18 -178
-33 -108 -21 -132 -23 -157 -13 -40 17 -100 80 -100 105 1 60 92 370 145 490
31 72 80 182 107 245 28 63 77 168 110 233 l59 119 117 -4 c93 -2 120 -6 132
-19 13 -15 33 -16 195 -8 99 5 207 16 240 23 83 18 115 19 115 2z m1385 -83
c21 -31 58 -79 83 -107 44 -48 43 -48 -15 8 -50 48 -126 156 -110 156 2 0 21
-26 42 -57z m198 -257 c45 -50 92 -154 121 -262 14 -55 26 -111 26 -123 0 -20
-3 -19 -52 17 -69 51 -92 86 -124 190 -14 47 -47 129 -74 182 -74 147 -73 152
6 85 38 -31 82 -71 97 -89z m68 -23 c12 -19 19 -36 16 -39 -3 -3 -11 5 -18 18
-7 12 -40 52 -73 88 l-61 64 57 -48 c32 -27 67 -64 79 -83z m-131 -150 c46
-136 62 -159 147 -220 57 -40 68 -45 85 -34 18 11 19 10 13 -11 -12 -39 -35
-79 -48 -83 -7 -2 -38 -5 -69 -8 l-57 -4 -24 46 c-14 25 -39 95 -56 154 -17
60 -38 122 -46 137 -10 20 -15 58 -15 117 l1 88 15 -35 c9 -19 33 -86 54 -147z
m-1692 94 c23 -23 42 -47 42 -53 0 -5 -39 -29 -87 -52 -83 -39 -89 -41 -105
-24 -16 16 -14 21 39 95 31 42 59 77 63 77 3 0 25 -19 48 -43z m1942 -159 c11
-40 23 -109 27 -154 5 -67 2 -87 -14 -125 -38 -84 -105 -141 -201 -170 -37
-11 -47 -10 -77 4 -19 9 -35 20 -35 25 0 12 61 67 90 82 13 7 58 16 99 20 84
9 97 19 120 88 12 36 12 53 -3 128 -9 47 -30 127 -47 177 -42 129 -43 129 -10
60 16 -34 39 -95 51 -135z m-76 112 c5 -17 4 -20 -2 -10 -5 8 -13 26 -16 40
-5 17 -4 20 2 10 5 -8 13 -26 16 -40z m-1747 -91 c18 -30 32 -58 30 -62 -2 -7
-190 -77 -207 -77 -3 0 -18 25 -33 56 l-27 55 92 44 c51 25 97 43 103 42 5 -2
24 -28 42 -58z m-232 -100 l36 -69 -46 7 c-38 5 -51 2 -74 -15 l-29 -21 -25
36 -26 36 31 46 c54 80 58 84 79 65 9 -8 34 -47 54 -85z m1825 -176 c27 -50
27 -53 8 -59 -11 -3 -34 -19 -53 -35 l-33 -30 -25 33 c-13 18 -29 54 -35 79
-7 26 -14 54 -18 63 -5 12 0 16 19 16 20 0 28 9 46 49 11 27 21 58 22 68 0 10
9 -16 20 -57 11 -41 33 -98 49 -127z m-1511 164 c18 -46 28 -147 17 -156 -6
-5 -60 -4 -123 2 -111 10 -113 11 -113 35 0 14 -7 34 -17 44 -9 10 -14 20 -12
22 9 7 205 73 222 75 10 0 21 -9 26 -22z m-290 -88 c34 -12 37 -19 20 -52 -21
-40 -52 -67 -77 -67 -22 0 -24 3 -18 32 5 27 2 36 -16 50 -23 18 -23 19 -4 33
23 18 52 19 95 4z m69 -163 c-3 -21 -46 -50 -90 -60 -24 -6 -28 -3 -36 26 -11
39 -7 48 18 48 19 0 79 62 81 83 1 7 7 -8 15 -33 8 -25 13 -54 12 -64z m137
66 l60 -7 0 -60 c0 -58 -1 -60 -25 -58 -14 1 -50 11 -81 22 -53 20 -57 24 -68
66 -6 24 -11 46 -11 49 0 3 15 3 33 0 17 -3 59 -8 92 -12z"/>
<path d="M2586 7651 c-15 -16 -17 -30 -11 -85 4 -37 11 -69 16 -72 28 -17 144
80 137 114 -2 10 -18 22 -36 28 -17 5 -37 15 -44 22 -18 18 -42 15 -62 -7z"/>
<path d="M4077 6054 c-8 -8 1 -24 14 -24 5 0 9 7 9 15 0 15 -12 20 -23 9z"/>
<path d="M3185 5983 c-36 -6 -55 -20 -55 -42 0 -24 65 -85 84 -78 21 8 43 84
30 105 -12 19 -19 20 -59 15z"/>
<path d="M3908 3700 c-12 -29 -19 -130 -8 -130 6 0 13 6 16 14 7 19 0 134 -8
116z"/>
</g>
</svg>
