<?xml version="1.0" standalone="no"?>
<!DOCTYPE svg PUBLIC "-//W3C//DTD SVG 20010904//EN"
 "http://www.w3.org/TR/2001/REC-SVG-20010904/DTD/svg10.dtd">
<svg version="1.0" xmlns="http://www.w3.org/2000/svg"
 width="850.000000pt" height="850.000000pt" viewBox="0 0 850.000000 850.000000"
 preserveAspectRatio="xMidYMid meet">
<metadata>
Created by potrace 1.14, written by Peter Selinger 2001-2017
</metadata>
<g transform="translate(0.000000,850.000000) scale(0.100000,-0.100000)"
fill="#000000" stroke="none">
<path d="M4962 8484 c-59 -41 -63 -114 -10 -159 44 -37 91 -34 134 9 36 36 42
67 22 111 -23 50 -101 71 -146 39z"/>
<path d="M6045 8266 c-233 -83 -540 -301 -806 -573 -149 -153 -344 -394 -389
-483 -22 -43 -34 -50 -115 -69 -66 -15 -142 -53 -207 -102 -56 -42 -100 -49
-106 -16 -7 33 75 182 121 223 98 87 267 164 357 164 62 0 65 14 6 29 -63 16
-145 14 -229 -5 -105 -24 -170 -56 -232 -115 -74 -70 -112 -152 -130 -281 l-6
-47 -53 -6 c-86 -11 -123 14 -187 127 -184 330 -444 625 -750 853 -126 94
-332 211 -433 247 -131 45 -241 35 -303 -27 -31 -31 -33 -38 -33 -100 0 -120
85 -333 206 -518 171 -262 360 -460 599 -627 161 -113 156 -108 143 -130 -17
-27 -2 -37 22 -15 20 18 23 17 113 -25 50 -24 96 -47 101 -51 4 -4 -30 -56
-77 -116 -96 -122 -202 -295 -281 -458 -71 -145 -162 -365 -186 -451 -41 -142
-36 -273 16 -375 38 -75 137 -200 252 -316 108 -110 190 -173 291 -224 45 -23
52 -29 36 -35 -56 -19 -153 -68 -197 -100 -99 -73 -279 -312 -428 -569 -163
-280 -575 -954 -715 -1170 -117 -180 -345 -567 -345 -585 0 -21 61 -103 133
-177 28 -29 49 -54 46 -56 -20 -19 -211 -88 -265 -97 -144 -24 -217 -44 -267
-75 -48 -28 -52 -34 -50 -65 1 -28 -7 -45 -38 -82 -21 -26 -39 -51 -39 -57 0
-18 53 -51 84 -51 l31 -1 -38 -30 c-20 -17 -37 -37 -37 -45 0 -20 59 -54 95
-54 17 0 91 25 165 56 194 80 270 108 276 101 3 -3 -19 -35 -50 -71 -68 -81
-86 -114 -86 -163 0 -53 11 -66 58 -66 57 0 94 26 179 127 42 49 105 109 142
135 92 64 144 119 160 169 8 24 18 45 22 48 5 3 37 -5 71 -16 35 -12 86 -24
114 -27 l52 -6 -23 -46 c-34 -69 -60 -186 -60 -271 0 -115 28 -166 175 -314
101 -103 124 -132 153 -196 41 -89 68 -116 162 -163 168 -84 268 -120 326
-120 l57 1 7 -65 c5 -52 12 -71 33 -92 22 -22 27 -38 33 -106 7 -86 37 -359
45 -412 3 -20 11 -33 19 -33 11 0 13 10 10 43 -13 110 -46 490 -42 493 2 2 37
-3 78 -11 41 -9 133 -18 204 -21 110 -5 146 -3 234 15 57 12 105 20 107 18 2
-2 4 -82 4 -178 0 -96 3 -216 7 -266 5 -84 8 -93 26 -93 20 0 20 4 12 242 -4
134 -8 257 -9 273 -1 24 3 31 23 33 13 2 28 -1 34 -7 12 -12 12 -285 1 -449
-5 -78 -4 -92 9 -92 21 0 25 32 27 205 1 82 3 193 5 245 l3 95 34 -5 c18 -3
121 -5 228 -5 149 1 215 5 278 19 46 10 86 15 89 12 6 -5 -21 -407 -33 -513
-6 -43 -4 -53 8 -53 12 0 19 47 36 253 12 138 22 266 22 283 0 18 8 38 20 49
12 11 20 31 20 51 l0 32 58 -5 c54 -5 63 -2 172 54 63 32 162 88 219 123 86
54 107 72 124 107 17 34 32 48 81 72 62 30 124 94 203 209 32 47 63 141 63
193 0 46 -60 260 -96 343 -19 44 -33 80 -31 82 1 1 32 19 70 39 48 26 67 43
67 57 0 47 -138 431 -288 802 -53 132 -55 139 -36 149 53 30 96 97 253 407
143 281 301 673 301 747 0 39 -35 71 -115 104 -56 23 -57 24 -51 59 15 92 27
113 127 217 54 56 108 117 119 135 26 43 26 84 0 98 -17 9 -35 -2 -124 -75
-58 -47 -108 -85 -111 -85 -2 0 25 59 60 131 55 112 65 139 65 185 0 44 -4 55
-21 64 -33 18 -58 -7 -143 -149 -75 -126 -104 -165 -93 -125 9 29 45 213 52
265 10 66 -9 127 -43 140 -60 23 -83 -17 -153 -266 l-33 -119 -23 134 c-12 73
-28 147 -34 163 -18 43 -74 61 -103 32 -13 -14 -15 -50 -13 -248 2 -235 -9
-337 -37 -337 -6 0 -38 20 -71 45 -33 25 -73 49 -90 55 -23 7 -40 28 -70 81
-65 115 -178 205 -282 225 -42 8 -42 18 -1 35 135 56 344 248 460 424 90 135
108 174 115 238 8 78 -10 140 -89 317 -39 85 -90 209 -113 275 -129 359 -228
551 -345 665 l-48 47 61 29 c174 83 384 239 511 382 223 250 329 400 449 632
97 188 117 246 117 342 0 60 -3 71 -28 99 -44 49 -108 50 -237 5z m194 -11
c40 -20 44 -46 25 -171 l-5 -32 -28 29 c-38 37 -90 38 -195 4 -103 -34 -159
-63 -306 -160 -100 -66 -151 -109 -250 -211 -164 -169 -332 -390 -404 -533
-14 -27 -29 -52 -34 -55 -5 -3 -30 1 -57 9 -26 8 -65 15 -87 15 -21 0 -38 4
-38 9 0 12 89 144 180 266 149 201 426 460 665 622 142 97 285 172 372 196
105 30 125 32 162 12z m-3377 -70 c70 -20 233 -104 335 -173 185 -125 384
-299 525 -462 90 -103 258 -344 333 -474 l28 -49 -63 6 c-35 4 -84 7 -109 7
l-46 0 -91 138 c-222 333 -504 594 -815 754 -113 58 -250 108 -299 108 -18 0
-37 -8 -47 -20 -23 -26 -33 -10 -33 57 0 116 108 158 282 108z m3349 -124 c40
-32 31 -80 -41 -220 -64 -125 -148 -260 -228 -366 -71 -93 -245 -295 -298
-346 -118 -113 -327 -253 -454 -305 l-62 -25 -69 41 c-37 22 -70 44 -72 48 -5
7 60 182 72 194 4 4 31 -8 60 -28 29 -20 55 -33 58 -30 9 9 -16 33 -63 61 -24
14 -44 28 -44 30 0 7 99 175 131 223 80 117 267 337 357 417 256 229 568 375
653 306z m-3415 -86 c111 -40 172 -71 283 -142 184 -118 382 -294 512 -454 77
-95 239 -325 239 -340 0 -4 -24 -15 -52 -25 -84 -27 -147 -62 -198 -110 -26
-24 -50 -44 -54 -44 -12 0 -182 118 -261 181 -252 203 -494 510 -607 770 -51
120 -58 159 -29 188 25 25 33 24 167 -24z m1949 -574 c-142 -51 -267 -157
-326 -276 -31 -64 -34 -77 -34 -160 0 -74 5 -104 29 -167 15 -43 31 -78 36
-78 4 0 5 32 2 70 -3 51 0 82 12 114 35 93 188 194 326 216 107 17 120 10 32
-16 -46 -13 -96 -31 -111 -39 -59 -30 -132 -97 -161 -148 -46 -80 -82 -197
-78 -254 4 -50 12 -43 22 18 13 75 95 161 180 189 86 28 210 -13 312 -103 49
-43 119 -137 153 -205 21 -41 21 -45 5 -63 -13 -14 -15 -28 -9 -66 6 -40 5
-45 -8 -35 -18 15 -28 5 -21 -24 5 -19 1 -23 -27 -29 -23 -5 -34 -3 -40 7 -5
8 -17 26 -28 39 -17 21 -22 22 -40 12 -11 -7 -23 -13 -25 -13 -3 0 -19 26 -36
58 -40 75 -112 158 -159 181 -83 42 -165 34 -218 -21 -34 -35 -67 -101 -56
-112 14 -13 25 -4 39 32 21 49 60 90 96 97 30 7 128 -12 128 -24 0 -3 -18 -5
-41 -3 -51 5 -122 -21 -149 -55 -40 -51 -14 -69 55 -36 33 16 39 16 108 0 110
-27 170 -65 202 -131 28 -57 85 -314 84 -376 0 -28 -3 -22 -14 28 -17 77 -56
165 -95 214 -30 36 -38 54 -21 44 4 -3 16 3 26 14 17 19 18 22 2 55 -25 51
-107 98 -107 60 0 -19 -3 -19 -42 5 -43 26 -62 27 -48 1 15 -30 13 -46 -4 -32
-11 10 -16 8 -21 -8 -9 -29 -46 -27 -75 4 -27 29 -43 24 -34 -11 6 -24 -9 -34
-21 -14 -18 29 -55 -22 -55 -76 0 -11 -10 -24 -22 -29 -20 -9 -25 -25 -40
-120 -18 -112 -24 -312 -12 -362 7 -27 7 -28 -13 -10 -32 28 -71 108 -88 178
-26 110 -16 206 20 193 16 -6 28 30 45 140 12 73 9 86 -14 67 -11 -9 -17 -8
-29 4 -22 21 -34 19 -54 -11 l-17 -27 -12 34 -12 34 -13 -33 c-10 -24 -19 -32
-34 -30 -21 3 -22 14 -10 61 9 36 -5 34 -30 -3 -13 -19 -26 -28 -36 -25 -10 4
-23 -4 -33 -20 -22 -33 -76 -175 -76 -198 0 -31 26 -3 46 49 17 45 28 54 37
32 4 -10 8 -9 16 2 7 11 13 12 21 4 8 -8 2 -37 -19 -102 -41 -127 -64 -235
-59 -282 2 -22 0 -40 -4 -40 -4 0 -21 29 -39 65 -31 64 -32 68 -27 168 5 83
12 118 38 185 33 85 35 114 5 68 -30 -45 -66 -169 -75 -256 -5 -47 -17 -110
-27 -140 l-18 -55 -3 99 c-3 109 20 222 63 309 14 26 22 53 20 60 -2 6 12 44
33 82 47 88 67 99 189 99 51 1 93 4 93 8 0 3 -14 18 -31 32 -23 20 -42 26 -76
26 -39 0 -44 2 -33 15 26 31 96 15 154 -35 20 -18 36 -27 36 -20 0 26 -24 53
-63 70 -34 15 -38 20 -24 26 28 11 63 -11 104 -65 38 -50 53 -61 53 -40 0 24
-44 82 -83 110 -48 35 -100 38 -156 9 -45 -22 -133 -117 -164 -175 l-21 -40
-10 38 c-5 20 -15 37 -23 37 -17 0 -17 -4 12 74 16 43 21 66 13 66 -6 0 -37
-27 -67 -60 -44 -47 -61 -58 -77 -54 -16 4 -20 11 -16 27 4 20 2 19 -27 -8
-38 -35 -111 -176 -111 -213 0 -24 0 -25 20 -7 19 18 20 17 20 -3 0 -28 15
-28 35 1 17 22 17 22 11 -13 -15 -95 -18 -160 -8 -160 6 0 32 39 58 88 54 99
55 101 61 85 2 -7 11 -9 19 -6 8 3 14 1 15 -3 0 -5 2 -20 3 -33 2 -13 -8 -58
-22 -100 -20 -64 -24 -97 -25 -211 -1 -136 9 -201 49 -303 11 -30 12 -38 2
-35 -21 7 -67 107 -85 186 -10 39 -21 72 -26 72 -9 0 -3 -76 10 -130 6 -22 5
-24 -10 -11 -15 12 -17 10 -17 -13 0 -15 7 -43 15 -63 36 -86 -38 -49 -83 41
-36 72 -62 191 -62 285 0 63 -3 82 -11 74 -8 -8 -10 -51 -7 -133 3 -100 2
-119 -8 -105 -59 81 -30 405 50 563 28 56 30 62 18 62 -16 0 -56 -85 -88 -185
l-33 -100 0 75 c-2 148 43 252 170 404 84 100 179 181 270 230 69 38 159 38
229 0 75 -41 119 -101 176 -239 7 -18 8 -17 12 7 2 15 -6 48 -17 74 -12 26
-21 55 -21 65 0 10 -9 36 -20 57 -26 50 -52 185 -45 231 23 139 100 257 199
306 67 33 171 63 216 64 34 0 34 -1 -15 -18z m262 -297 l22 -6 -25 -67 c-14
-36 -30 -81 -37 -99 -9 -29 -14 -32 -36 -26 -38 10 -45 10 -51 1 -3 -4 21 -19
54 -32 58 -24 165 -90 239 -147 39 -32 136 -161 186 -250 32 -58 127 -288 189
-463 21 -60 72 -184 113 -275 70 -155 74 -169 74 -235 -1 -83 -13 -109 -122
-266 -141 -203 -252 -305 -428 -392 -61 -30 -111 -54 -113 -52 -1 1 3 45 10
97 l12 96 61 30 c116 57 292 217 352 320 24 40 28 57 27 117 -1 80 -26 152
-147 435 -50 119 -77 194 -82 235 -33 275 -173 575 -319 685 -146 110 -297
128 -407 48 l-41 -30 27 51 c43 78 54 86 114 71 28 -6 55 -9 62 -5 6 4 24 36
40 71 30 66 29 65 124 87 30 7 77 7 102 1z m-1116 -181 l20 -47 -67 -60 c-37
-34 -72 -64 -78 -67 -9 -5 -189 71 -205 86 -6 7 52 55 91 75 41 22 161 58 196
59 18 1 27 -9 43 -46z m149 33 c41 -8 86 -18 100 -24 24 -9 22 -10 -18 -17
-24 -4 -81 -25 -125 -48 -67 -33 -100 -59 -182 -141 l-100 -101 61 75 c86 105
144 155 203 177 28 10 51 22 51 26 0 10 -43 5 -72 -7 -13 -6 -22 2 -38 33
l-20 41 32 0 c18 -1 67 -7 108 -14z m288 -36 c5 -22 7 -40 3 -40 -3 1 -23 16
-44 34 -38 34 -37 44 9 45 17 1 24 -8 32 -39z m-648 -352 c-55 -72 -96 -159
-116 -243 -16 -71 -15 -97 8 -240 l11 -70 -66 -130 c-95 -186 -132 -305 -132
-420 0 -108 18 -148 104 -238 66 -70 146 -127 255 -182 l78 -40 24 -90 c13
-49 26 -101 30 -114 7 -23 6 -24 -37 -17 -63 10 -139 49 -222 116 -134 107
-331 329 -384 434 -52 101 -48 253 10 421 92 265 301 664 429 818 53 63 58 60
8 -5z m246 -98 c-5 -31 -3 -40 8 -40 23 0 26 -14 14 -48 -13 -35 -37 -49 -49
-31 -5 8 -22 -10 -48 -52 -22 -35 -42 -68 -45 -74 -2 -5 -6 -8 -8 -5 -3 3 -1
33 5 68 11 67 4 89 -19 58 -12 -16 -16 -17 -31 -5 -10 7 -20 14 -21 15 -2 2 8
25 24 53 26 48 44 65 44 40 0 -8 5 -8 15 1 11 9 19 9 28 2 10 -8 20 -3 40 24
37 46 51 44 43 -6z m864 -105 c6 -8 9 -19 6 -24 -4 -6 -1 -19 6 -30 15 -25 4
-38 -17 -21 -13 11 -25 11 -65 1 -27 -7 -54 -10 -60 -6 -6 4 -16 2 -23 -4 -8
-6 -18 -6 -27 -1 -8 6 -25 10 -37 10 -14 0 -23 6 -23 16 0 9 7 14 18 12 9 -2
22 3 28 11 10 12 15 13 27 3 10 -9 17 -10 22 -2 3 5 15 10 25 10 10 0 20 6 23
13 3 9 8 9 21 -2 16 -13 30 -9 32 10 3 17 4 19 18 19 7 0 19 -7 26 -15z m405
-42 c5 -21 2 -32 -14 -44 -14 -12 -21 -29 -21 -53 0 -44 -9 -45 -35 -3 -16 25
-27 32 -53 32 -17 1 -32 -4 -32 -10 -1 -20 -30 29 -30 50 0 19 6 22 53 23 29
1 67 8 83 17 39 20 41 19 49 -12z m-378 -89 c32 -26 47 -33 52 -25 10 15 67
-102 87 -178 7 -30 14 -83 14 -117 0 -62 -18 -164 -29 -164 -3 0 -16 33 -29
74 -13 40 -41 102 -63 137 -21 35 -46 85 -55 111 -15 46 -39 76 -51 65 -3 -4
3 -28 15 -54 23 -54 38 -127 47 -223 l6 -65 -39 95 c-21 52 -65 147 -99 210
-33 63 -62 122 -65 130 -3 8 -9 12 -13 8 -8 -8 60 -351 76 -380 21 -40 -1 -28
-39 21 -40 51 -94 173 -107 242 -6 31 -4 37 14 42 17 4 21 13 21 46 0 48 17
60 57 42 16 -8 30 -8 35 -3 6 6 20 4 37 -6 26 -15 29 -14 51 6 13 12 26 22 28
22 3 0 25 -16 49 -36z m419 7 c18 15 36 -74 41 -216 4 -94 1 -145 -16 -235
-20 -112 -65 -240 -84 -240 -5 0 -6 8 -2 18 21 52 56 215 65 304 11 114 0 282
-19 301 -10 9 -11 -13 -5 -99 9 -142 -2 -270 -21 -254 -11 9 -15 2 -20 -37
-12 -99 -48 -230 -82 -298 -52 -105 -143 -252 -143 -232 0 3 16 62 35 133 19
70 35 143 35 161 0 19 13 65 29 102 54 127 87 353 60 416 -12 28 -13 22 -20
-80 -3 -60 -12 -139 -19 -175 -11 -63 -34 -130 -44 -130 -3 0 -4 82 -3 183 1
100 -2 206 -6 236 -7 49 -7 53 10 47 34 -14 38 -11 35 28 -3 32 -1 38 13 32 9
-3 21 -6 26 -6 13 0 49 -76 58 -123 l8 -42 11 28 c7 16 12 57 12 92 0 73 8
101 23 86 7 -7 14 -7 23 0z m-748 -181 c1 -93 -2 -119 -9 -100 -14 34 -24 211
-14 246 l8 29 7 -25 c5 -14 8 -81 8 -150z m-229 17 c-15 -62 -31 -143 -34
-181 l-7 -70 -25 55 c-14 29 -29 81 -34 114 -9 64 -2 182 12 191 5 3 9 -3 9
-14 0 -31 11 -33 33 -6 14 18 22 22 27 13 6 -9 12 -6 21 9 27 43 26 -2 -2
-111z m281 -89 c12 -32 37 -80 55 -107 20 -28 30 -53 25 -56 -19 -12 -10 -26
12 -19 22 6 22 6 5 -19 -35 -54 -14 -78 23 -27 12 17 28 30 37 30 8 0 13 -3
11 -7 -35 -67 -40 -91 -35 -153 9 -100 11 -104 48 -117 65 -23 177 -8 165 22
-2 7 2 32 10 55 23 66 10 147 -29 183 -16 15 -27 30 -25 33 11 10 62 -44 73
-77 7 -19 18 -34 25 -34 25 0 33 -52 16 -102 -26 -77 -17 -109 17 -60 14 19
16 19 16 4 1 -29 -50 -250 -65 -278 -13 -26 -127 -110 -199 -147 -72 -36 -228
-93 -259 -94 -34 -1 -184 60 -311 125 -120 62 -158 104 -189 207 -43 144 -43
143 -15 135 22 -6 41 -17 151 -79 37 -21 70 -14 34 8 -67 40 -103 78 -147 155
-53 94 -53 110 2 170 36 40 44 36 24 -12 -19 -46 -19 -137 0 -182 8 -21 25
-39 40 -45 31 -12 135 -13 152 -2 7 4 15 44 19 90 8 101 -11 164 -58 188 -16
8 -28 18 -25 21 9 8 77 -29 88 -48 16 -30 32 -23 26 11 -5 23 -3 30 9 30 13 0
13 2 0 22 -22 31 -21 88 0 88 13 0 14 3 4 15 -9 11 -10 31 -4 72 l8 58 6 -56
c9 -76 36 -156 69 -204 30 -45 94 -92 99 -75 2 6 -1 53 -7 105 -13 112 -14
225 -2 225 4 0 11 -29 13 -64 6 -76 40 -149 84 -182 17 -13 34 -24 37 -24 3 0
-7 38 -22 83 -16 46 -32 108 -36 138 -3 30 -8 63 -11 74 l-4 20 10 -20 c5 -11
19 -46 30 -77z m896 -293 c25 -66 52 -137 60 -158 39 -103 4 -190 -135 -328
-82 -81 -228 -189 -256 -189 -15 0 -25 53 -13 73 4 8 29 18 54 22 26 4 59 11
73 16 44 17 4 28 -50 14 -27 -7 -49 -12 -49 -10 0 1 14 32 30 68 32 67 43 121
59 267 6 61 19 110 45 172 29 69 39 109 47 195 6 59 13 115 16 123 5 18 57
-97 119 -265z m-1847 184 c6 -37 20 -87 31 -113 19 -41 20 -53 10 -106 -18
-99 -17 -277 3 -340 20 -67 67 -141 102 -160 36 -19 39 -9 10 45 -14 26 -25
55 -25 64 1 9 8 3 17 -14 8 -16 29 -44 46 -62 23 -25 32 -46 38 -90 4 -32 6
-60 3 -63 -11 -10 -191 91 -249 140 -184 156 -208 284 -102 550 35 87 99 221
103 217 2 -1 8 -32 13 -68z m1418 14 c-3 -10 -5 -2 -5 17 0 19 2 27 5 18 2
-10 2 -26 0 -35z m-198 -137 c13 -15 5 -24 -46 -50 l-33 -17 0 30 c0 44 53 69
79 37z m-671 -22 c2 -16 -7 -28 -31 -43 -19 -11 -37 -21 -41 -21 -11 0 -6 66
6 78 20 20 62 11 66 -14z m-456 -198 c-11 -126 -7 -193 15 -271 3 -14 2 -17
-5 -10 -36 35 -53 220 -36 384 6 55 9 61 22 47 13 -12 13 -33 4 -150z m1186
80 c-3 -30 -10 -62 -17 -70 -18 -22 -104 -22 -125 0 -20 19 -20 23 1 46 15 17
15 18 -1 18 -11 0 -16 6 -14 18 5 24 32 22 36 -3 6 -30 31 -53 52 -48 16 4 26
21 44 76 3 9 11 17 17 17 8 0 10 -17 7 -54z m-678 -58 c-6 -21 -16 -38 -23
-39 -43 -3 -94 5 -107 17 -12 12 -12 16 2 30 15 16 18 16 33 0 15 -15 20 -15
39 -3 11 7 30 31 41 53 l20 39 3 -30 c2 -16 -1 -47 -8 -67z m-439 41 c27 -55
42 -102 39 -124 -8 -64 0 -186 15 -228 21 -63 13 -70 -19 -15 -62 106 -70 135
-74 277 -4 110 -2 133 9 129 8 -2 21 -20 30 -39z m87 -56 c15 -9 29 -18 30
-19 8 -5 -10 -64 -19 -64 -9 0 -49 72 -49 90 0 14 6 13 38 -7z m63 -169 c-26
-145 -8 -469 33 -583 20 -54 20 -74 1 -41 -36 62 -66 186 -80 332 -13 141 -13
156 5 256 11 59 22 118 24 132 7 38 7 38 18 0 7 -24 7 -54 -1 -96z m1273 54
c-8 -69 -34 -181 -45 -192 -15 -16 1 178 18 212 24 47 35 39 27 -20z m-1339
-81 c-10 -90 -23 -65 -24 43 -1 71 0 73 15 52 13 -19 15 -37 9 -95z m1266 -26
c-16 -91 -26 -104 -40 -55 -16 59 -14 79 16 115 34 40 39 27 24 -60z m-1161
-67 c3 -57 2 -104 -1 -104 -3 0 -11 12 -18 26 -12 27 -5 201 8 188 3 -3 8 -52
11 -110z m1110 -76 c21 -174 5 -347 -44 -453 -13 -30 -27 -55 -29 -55 -3 0 5
33 18 73 32 99 49 300 35 409 -5 45 -10 98 -9 118 0 31 1 32 9 12 5 -12 14
-59 20 -104z m-50 52 c0 -24 -20 -70 -31 -70 -4 0 -4 13 1 29 4 16 6 32 3 35
-7 7 6 26 18 26 5 0 9 -9 9 -20z m-79 -58 c-17 -22 -37 -45 -46 -52 -13 -10
-15 -9 -15 6 0 26 12 42 46 64 45 28 49 24 15 -18z m182 -41 c-2 -3 -8 0 -14
6 -7 7 -9 22 -4 40 l9 28 6 -35 c3 -19 5 -37 3 -39z m-100 -21 c-4 -4 -33 -15
-63 -25 -30 -10 -77 -29 -103 -42 -35 -17 -61 -23 -95 -21 -63 4 -69 29 -13
58 40 20 41 20 41 1 0 -31 18 -34 36 -6 18 28 34 33 34 10 0 -27 28 -15 64 28
l36 42 -7 -34 c-6 -32 -5 -33 16 -22 11 7 29 24 39 39 l17 26 3 -23 c2 -13 0
-27 -5 -31z m-993 -2 c0 -5 -9 -4 -20 2 -11 6 -20 18 -20 27 0 14 2 14 20 -2
11 -10 20 -22 20 -27z m-24 -28 c24 0 176 -49 189 -62 6 -5 -42 -8 -120 -6
l-130 3 -3 55 -3 55 24 -23 c13 -12 32 -22 43 -22z m1024 -39 c0 -22 -3 -42
-7 -44 -5 -2 -48 -1 -98 3 -86 6 -89 7 -60 19 42 19 148 60 158 60 4 1 7 -17
7 -38z m-340 -11 c0 -4 -12 -11 -27 -15 -14 -3 -46 -20 -69 -37 -40 -28 -47
-30 -101 -24 -57 6 -173 52 -173 68 0 12 11 10 76 -13 72 -25 135 -21 220 13
57 24 74 26 74 8z m-344 -55 c22 -5 124 -91 124 -105 0 -4 -20 -13 -44 -19
-24 -6 -49 -17 -56 -26 -7 -8 -22 -15 -34 -15 -37 0 -86 -39 -107 -83 -11 -23
-29 -54 -40 -68 -12 -16 -25 -52 -30 -90 -23 -161 -23 -155 5 -204 15 -25 39
-53 54 -62 15 -10 41 -33 57 -51 21 -24 46 -38 85 -48 37 -9 61 -22 74 -39 26
-36 68 -55 119 -55 l44 0 7 -92 c13 -198 18 -709 8 -883 -27 -454 -119 -847
-287 -1227 -72 -164 -135 -216 -291 -240 -114 -18 -343 2 -584 51 -297 61
-552 135 -558 162 -7 37 270 804 406 1125 33 77 104 250 157 385 53 134 151
379 216 543 108 272 132 344 94 293 -7 -10 -37 -79 -66 -153 -29 -73 -54 -132
-57 -130 -4 4 8 145 24 304 5 43 3 62 -4 62 -7 0 -14 -10 -17 -22 -11 -52 -25
-224 -25 -313 l0 -95 -99 -247 c-55 -137 -154 -381 -221 -543 -152 -369 -309
-785 -391 -1043 -63 -193 -64 -197 -89 -191 -66 14 -318 118 -366 150 -57 38
-231 214 -277 282 l-29 40 73 124 c40 68 184 299 320 515 236 373 455 731 679
1112 113 192 316 470 383 525 46 38 237 132 286 142 24 5 32 1 47 -22 40 -65
129 -141 155 -132 6 2 -3 19 -21 38 -17 19 -40 51 -50 71 l-19 37 72 11 c95
15 179 40 171 52 -3 6 -13 8 -21 5 -25 -10 -225 -37 -230 -32 -9 8 -43 158
-43 186 l0 25 187 -3 c104 -1 198 -4 209 -7z m582 -1 c51 -4 94 -10 96 -13 2
-3 -2 -44 -10 -91 -7 -47 -14 -87 -14 -89 0 -8 -151 13 -205 30 -68 21 -85 23
-85 9 0 -14 125 -50 195 -56 33 -3 65 -7 72 -9 16 -5 -14 -95 -51 -153 -30
-48 -31 -52 -12 -52 22 0 112 103 135 155 12 27 27 53 34 57 22 14 60 8 132
-19 116 -44 173 -88 233 -177 l53 -79 -21 -22 c-45 -48 -20 -104 85 -185 30
-23 55 -48 55 -55 0 -7 -20 -23 -44 -35 -53 -25 -55 -31 -91 -224 -14 -77 -27
-141 -28 -143 -2 -1 -20 41 -40 95 -33 91 -36 106 -40 243 -4 130 -17 202 -34
186 -3 -3 1 -56 7 -117 14 -134 4 -158 -29 -65 -21 60 -41 85 -41 51 0 -14 68
-199 153 -416 25 -63 75 -191 111 -285 36 -93 110 -282 166 -420 246 -608 439
-1133 425 -1155 -28 -45 -547 -184 -860 -231 -102 -15 -200 -23 -305 -23 -143
-1 -159 1 -207 23 -87 39 -135 104 -203 277 -17 42 -42 114 -55 159 l-23 82
43 160 c24 89 49 196 55 239 6 44 20 129 30 189 10 61 21 173 25 250 10 220 7
892 -4 977 l-10 78 89 86 c50 48 90 92 90 98 0 6 11 34 25 61 13 28 25 64 25
81 0 20 6 34 16 38 14 5 16 16 11 59 -7 69 -39 121 -93 153 -24 14 -44 33 -44
42 -1 39 -81 99 -115 86 -15 -6 -95 23 -95 34 0 19 49 76 88 102 46 31 49 32
132 26 47 -3 127 -9 178 -12z m1194 -18 c11 -27 -10 -226 -37 -343 -15 -63
-13 -73 14 -73 24 0 35 15 121 155 104 169 120 185 120 120 0 -23 -22 -79 -65
-165 -111 -222 -78 -245 113 -81 68 58 87 67 75 33 -8 -21 -78 -105 -164 -197
-64 -68 -67 -74 -99 -182 -28 -96 -39 -121 -79 -167 l-46 -55 -70 0 c-75 -1
-188 23 -194 41 -2 6 -30 36 -63 67 -33 31 -71 77 -83 102 -13 25 -42 61 -65
80 -97 81 -112 97 -108 126 5 47 37 41 143 -27 109 -71 114 -71 142 14 14 42
17 91 18 291 0 233 1 240 20 240 29 0 41 -33 65 -185 24 -144 32 -170 55 -170
21 0 29 20 79 191 56 193 62 209 81 209 8 0 20 -11 27 -24z m-1551 -156 c50
-33 61 -37 53 -15 -8 19 9 19 46 0 32 -16 45 -44 35 -75 -5 -16 -2 -20 17 -20
62 0 134 -91 126 -158 l-4 -27 -13 27 c-13 25 -39 44 -48 34 -2 -2 5 -21 16
-42 25 -47 29 -119 6 -110 -12 4 -15 -3 -15 -32 -1 -38 -29 -105 -30 -69 0 31
-16 18 -40 -32 -52 -111 -171 -175 -236 -126 -18 13 -17 14 18 15 43 0 68 8
68 22 0 5 -21 9 -47 8 -98 -5 -121 5 -63 27 17 6 30 17 30 23 0 7 -7 10 -15 7
-8 -4 -41 -12 -74 -18 -61 -13 -61 -13 -92 17 -47 45 -59 75 -59 154 0 39 -4
70 -10 70 -14 0 -23 -43 -18 -95 4 -52 -7 -54 -34 -5 -35 66 -23 124 40 192
31 34 21 50 -11 20 -29 -27 -40 -19 -24 16 17 41 48 72 81 80 36 10 36 28 0
25 -34 -3 -30 11 11 43 32 24 42 26 90 21 55 -6 74 5 33 19 -21 6 -21 7 -3 20
10 8 42 14 70 14 41 0 61 -6 96 -30z m1100 -655 c13 -20 41 -47 62 -62 20 -14
35 -28 33 -30 -8 -8 -73 28 -114 63 -46 39 -52 41 -52 15 0 -25 89 -85 165
-111 144 -50 274 -61 416 -34 102 19 154 42 154 68 0 26 -21 32 -27 8 -4 -14
-27 -24 -93 -41 -48 -12 -89 -20 -92 -17 -2 2 9 19 25 37 16 19 37 49 46 67 9
17 22 32 29 32 23 0 137 -59 143 -75 10 -24 -81 -284 -168 -480 -141 -319
-339 -675 -376 -675 -7 0 -37 71 -206 500 -146 371 -137 339 -120 440 8 47 25
132 37 190 21 102 23 106 57 122 48 24 54 23 81 -17z m-1129 -2199 c60 -150
147 -251 241 -277 62 -18 272 -15 432 5 198 25 500 90 682 146 36 11 73 20 83
20 42 0 145 -331 141 -455 -2 -81 -113 -251 -204 -313 -92 -63 -93 -63 -37 49
49 97 56 120 29 104 -13 -9 -100 -189 -119 -248 -14 -44 -38 -63 -180 -147
-145 -86 -255 -140 -284 -140 -19 0 -203 64 -214 75 -2 2 32 22 75 45 102 56
147 93 271 222 149 155 282 252 282 206 0 -24 -47 -113 -85 -163 -21 -27 -72
-87 -113 -133 -41 -45 -72 -85 -69 -88 10 -10 25 5 134 128 147 168 201 288
133 296 -43 5 -136 -65 -306 -229 -145 -141 -173 -163 -314 -248 -160 -98
-201 -112 -268 -94 -17 4 -33 13 -35 18 -1 6 36 30 83 55 63 33 79 45 63 48
-23 3 -117 -42 -222 -108 -36 -22 -74 -40 -86 -40 -28 0 -137 54 -160 80 -17
18 -18 37 -16 178 1 121 -3 181 -18 262 -31 168 -34 232 -17 437 18 220 20
289 7 298 -11 6 -17 -41 -32 -280 -15 -242 -13 -328 11 -453 21 -106 33 -323
23 -395 -6 -44 -51 -83 -130 -113 l-46 -18 -111 37 c-131 44 -176 54 -176 39
0 -11 4 -12 80 -33 l45 -12 -99 -19 c-120 -23 -134 -19 -216 61 -79 78 -95
113 -115 266 -27 212 -55 316 -107 398 -23 36 -36 47 -52 45 -46 -7 -57 -82
-32 -224 23 -130 86 -323 86 -263 0 7 -14 68 -31 134 -32 125 -47 253 -35 300
7 26 8 26 25 11 48 -44 111 -265 127 -442 7 -88 33 -160 70 -195 13 -12 24
-27 24 -32 0 -5 -49 -7 -112 -5 l-113 3 -150 70 c-82 38 -162 81 -176 96 -40
42 -88 142 -135 277 -45 130 -50 140 -60 129 -4 -4 5 -43 20 -88 15 -45 25
-83 23 -85 -2 -2 -43 37 -91 86 -58 60 -96 110 -113 147 -24 51 -25 63 -20
157 4 85 10 115 41 190 19 49 39 93 43 97 5 5 70 -12 146 -36 76 -24 156 -46
178 -50 21 -4 41 -10 43 -14 2 -3 -7 -51 -20 -106 -28 -110 -44 -305 -26 -305
10 0 13 21 27 165 7 77 39 213 54 228 8 8 35 6 103 -7 178 -34 284 -47 454
-53 158 -5 177 -4 245 16 63 19 82 31 126 76 59 60 131 199 184 354 l33 95 23
-80 c13 -43 38 -115 55 -158z m-2145 73 c56 -49 165 -109 197 -109 22 0 20
-26 -8 -85 -26 -56 -62 -92 -153 -155 -35 -23 -97 -83 -139 -132 -106 -124
-184 -160 -184 -84 0 36 19 70 89 157 53 65 62 93 35 103 -31 12 -55 5 -226
-69 -95 -41 -192 -77 -214 -81 -42 -6 -90 9 -79 26 7 11 180 116 287 174 48
26 90 52 94 57 16 26 -13 16 -114 -40 -184 -102 -243 -117 -297 -77 -18 13
-16 15 26 37 24 13 116 50 203 84 88 33 161 65 163 72 5 15 -15 9 -191 -56
-76 -29 -140 -50 -143 -48 -2 3 26 23 62 46 50 32 88 47 157 62 51 10 93 19
95 19 2 0 3 5 3 11 0 8 -15 9 -47 4 -101 -14 -143 -27 -198 -61 -54 -32 -75
-36 -75 -13 0 15 117 67 174 78 28 5 83 14 121 20 68 10 167 45 250 89 22 12
43 21 47 22 4 0 33 -23 65 -51z m2756 -1305 c56 -17 57 -18 57 -55 0 -26 -6
-41 -17 -47 -10 -6 -74 -20 -143 -33 -144 -26 -387 -30 -500 -7 l-65 13 -9 68
c-5 37 -6 70 -4 72 3 3 39 -13 82 -35 42 -22 87 -40 99 -40 12 0 45 12 73 27
l52 27 73 -22 74 -23 75 40 c41 22 80 38 85 37 6 -2 36 -12 68 -22z m-705 -56
l-3 -73 -55 -19 c-66 -22 -293 -40 -400 -31 -121 9 -247 35 -263 53 -8 10 -17
41 -21 70 l-7 52 48 0 c37 0 59 -7 93 -30 55 -37 97 -38 222 -9 l89 21 61 -23
c58 -22 61 -22 114 -5 30 9 66 28 82 41 15 13 31 25 35 25 4 0 7 -33 5 -72z"/>
<path d="M4430 5470 c0 -16 5 -30 10 -30 6 0 10 14 10 30 0 17 -4 30 -10 30
-5 0 -10 -13 -10 -30z"/>
<path d="M4405 5373 c-16 -2 -34 -8 -38 -12 -14 -14 12 -90 44 -126 36 -41 58
-44 93 -12 29 26 63 124 49 138 -12 12 -105 19 -148 12z m125 -38 c0 -28 -33
-96 -51 -106 -14 -7 -23 -5 -40 12 -20 20 -49 78 -49 99 0 6 29 10 70 10 55 0
70 -3 70 -15z"/>
<path d="M5790 4351 c0 -5 16 -18 36 -27 46 -22 82 -77 90 -136 4 -28 11 -45
16 -41 16 9 1 101 -23 139 -20 33 -49 54 -96 68 -14 4 -23 3 -23 -3z"/>
<path d="M3005 1708 c2 -13 9 -52 15 -88 20 -117 72 -314 96 -361 26 -53 119
-139 148 -139 14 0 -2 20 -57 73 -70 66 -77 77 -96 142 -25 88 -81 347 -81
374 0 12 -6 21 -15 21 -11 0 -14 -7 -10 -22z"/>
<path d="M5592 1496 c-155 -241 -196 -281 -220 -218 -6 15 -27 89 -47 165 -39
149 -53 189 -67 185 -12 -4 -11 -11 12 -88 11 -36 33 -117 50 -180 17 -63 36
-120 42 -127 38 -46 110 25 247 240 85 135 102 167 84 167 -5 0 -50 -65 -101
-144z"/>
<path d="M3766 1588 c-16 -60 -1 -408 21 -496 6 -27 29 -24 26 4 -25 184 -34
328 -27 403 4 47 8 90 9 95 1 20 -23 15 -29 -6z"/>
<path d="M5774 7046 c-67 -29 -94 -108 -60 -175 43 -81 179 -82 221 -1 32 61
14 128 -44 167 -38 26 -72 28 -117 9z"/>
<path d="M2660 6751 c-16 -31 -12 -69 11 -84 37 -27 89 2 89 48 0 48 -78 76
-100 36z"/>
<path d="M2544 6600 c-11 -4 -33 -22 -47 -40 -30 -35 -36 -97 -13 -138 46 -83
187 -81 222 3 18 44 18 79 -2 120 -25 53 -101 79 -160 55z"/>
<path d="M3068 6043 c-40 -9 -26 -73 16 -73 28 0 49 22 44 46 -3 19 -34 32
-60 27z"/>
<path d="M6743 4991 c-35 -22 -48 -50 -38 -83 21 -69 104 -93 144 -42 27 35
27 77 -1 108 -32 35 -66 41 -105 17z"/>
<path d="M6691 3004 c-27 -35 -24 -61 11 -87 35 -26 75 -15 97 25 14 25 14 29
-5 55 -30 40 -75 43 -103 7z"/>
<path d="M6363 2850 c-48 -19 -58 -95 -18 -135 33 -34 84 -34 119 1 69 70 -8
171 -101 134z"/>
</g>
</svg>
