<?xml version="1.0" encoding="UTF-8" standalone="no"?>
<svg
   xmlns:dc="http://purl.org/dc/elements/1.1/"
   xmlns:cc="http://creativecommons.org/ns#"
   xmlns:rdf="http://www.w3.org/1999/02/22-rdf-syntax-ns#"
   xmlns:svg="http://www.w3.org/2000/svg"
   xmlns="http://www.w3.org/2000/svg"
   xmlns:sodipodi="http://sodipodi.sourceforge.net/DTD/sodipodi-0.dtd"
   xmlns:inkscape="http://www.inkscape.org/namespaces/inkscape"
   version="1.0"
   width="850.000000pt"
   height="850.000000pt"
   viewBox="0 0 850.000000 850.000000"
   preserveAspectRatio="xMidYMid meet"
   id="svg100"
   sodipodi:docname="42.svg"
   inkscape:version="0.92.2 5c3e80d, 2017-08-06">
  <defs
     id="defs104" />
  <sodipodi:namedview
     pagecolor="#ffffff"
     bordercolor="#666666"
     borderopacity="1"
     objecttolerance="10"
     gridtolerance="10"
     guidetolerance="10"
     inkscape:pageopacity="0"
     inkscape:pageshadow="2"
     inkscape:window-width="1920"
     inkscape:window-height="978"
     id="namedview102"
     showgrid="false"
     inkscape:zoom="0.58897835"
     inkscape:cx="421.87845"
     inkscape:cy="655.84829"
     inkscape:window-x="0"
     inkscape:window-y="1"
     inkscape:window-maximized="1"
     inkscape:current-layer="svg100" />
  <metadata
     id="metadata2">
Created by potrace 1.14, written by Peter Selinger 2001-2017
<rdf:RDF>
  <cc:Work
     rdf:about="">
    <dc:format>image/svg+xml</dc:format>
    <dc:type
       rdf:resource="http://purl.org/dc/dcmitype/StillImage" />
  </cc:Work>
</rdf:RDF>
</metadata>
  <g
     transform="translate(0.000000,850.000000) scale(0.100000,-0.100000)"
     fill="#000000"
     stroke="none"
     id="g98">
    <path
       d="M0 4250 l0 -4250 4250 0 4250 0 0 4250 0 4250 -2507 0 -2506 0 20 -22 c29 -32 72 -142 79 -203 7 -58 -6 -115 -45 -197 -32 -65 -27 -71 39 -51 52 15 197 40 285 48 67 6 102 15 160 41 34 16 68 19 235 20 107 0 235 6 284 13 131 18 287 -5 372 -55 57 -33 132 -131 157 -203 43 -129 29 -305 -32 -381 -39 -49 -119 -90 -199 -101 -40 -6 -72 -16 -79 -25 -17 -23 2 -69 51 -119 33 -35 57 -48 126 -70 76 -24 101 -27 225 -27 136 0 143 1 238 36 94 34 140 61 219 126 34 28 37 29 42 12 8 -25 -6 -62 -44 -117 -29 -42 -39 -72 -21 -61 12 8 157 -19 243 -45 120 -35 182 -73 271 -163 83 -83 115 -136 138 -226 8 -35 28 -62 89 -125 180 -186 312 -479 296 -660 -7 -83 -37 -193 -66 -241 -25 -44 -26 -84 0 -127 66 -111 67 -290 2 -397 l-21 -33 -6 29 c-22 108 -31 129 -56 141 -67 32 -211 -48 -349 -195 -49 -52 -112 -110 -141 -129 -29 -19 -66 -45 -82 -59 -29 -24 -29 -25 -8 -31 11 -3 21 -11 21 -18 0 -8 -41 -51 -90 -97 -88 -81 -208 -160 -262 -173 -41 -10 -43 -23 -8 -43 110 -60 285 -200 411 -328 75 -77 144 -152 155 -169 10 -16 36 -54 57 -83 71 -97 237 -409 237 -444 0 -5 9 -29 20 -53 11 -24 26 -68 34 -97 7 -29 23 -84 34 -123 28 -93 59 -297 72 -475 22 -307 -24 -541 -181 -905 -162 -379 -301 -606 -499 -818 -168 -180 -461 -383 -705 -489 -87 -38 -258 -99 -290 -104 -11 -1 -63 -12 -115 -23 -104 -23 -193 -29 -520 -35 -188 -4 -227 -7 -310 -29 -116 -30 -240 -47 -385 -54 -142 -7 -392 25 -488 61 -37 14 -67 23 -67 20 0 -8 -184 88 -255 134 -89 57 -317 286 -376 377 -104 161 -129 209 -179 350 -97 270 -117 606 -54 885 32 140 92 283 169 400 49 75 164 200 184 200 16 0 9 -108 -25 -343 -31 -215 -32 -369 -3 -509 11 -57 29 -148 38 -204 19 -111 31 -133 88 -172 49 -34 279 -152 294 -152 7 0 20 -6 28 -14 9 -8 39 -23 67 -35 43 -16 342 -184 489 -274 81 -49 144 -81 149 -76 3 3 -5 39 -18 80 -80 249 -86 390 -30 669 24 122 83 300 148 450 71 162 129 326 151 425 27 124 15 341 -31 542 -18 78 -18 73 9 73 79 0 320 -108 442 -199 302 -224 495 -587 495 -931 0 -79 -19 -229 -35 -275 -44 -125 -100 -244 -170 -360 -74 -122 -146 -267 -163 -324 -23 -82 -21 -251 4 -316 27 -68 49 -69 182 -11 179 77 312 167 452 306 64 63 191 219 211 258 7 15 21 38 30 52 33 49 87 206 110 320 56 279 1 591 -149 840 -57 94 -308 389 -538 632 -108 113 -215 262 -266 368 -46 96 -88 204 -88 225 0 37 -33 127 -57 156 -14 16 -53 44 -87 61 -112 55 -180 141 -205 256 -17 82 -13 141 14 207 30 71 29 65 9 65 -9 0 -62 13 -118 29 -55 15 -123 34 -151 40 -48 12 -83 25 -155 59 -19 9 -72 54 -118 99 -82 83 -82 83 -134 83 -28 0 -81 5 -116 11 -80 14 -112 41 -112 94 0 29 -5 39 -30 53 -21 12 -35 31 -46 64 -8 26 -21 51 -27 55 -7 4 -55 17 -108 29 -67 16 -137 42 -235 89 -167 81 -255 137 -317 204 -26 28 -47 46 -47 40 0 -5 20 -40 45 -76 24 -37 43 -69 41 -71 -2 -2 -30 10 -62 26 -83 42 -207 170 -256 263 -42 80 -84 215 -94 299 -6 54 -8 56 -120 165 -131 127 -143 151 -114 231 65 186 215 380 604 784 154 160 186 200 186 236 0 12 -9 57 -20 100 -10 44 -24 111 -31 150 l-12 71 45 99 c25 55 51 117 58 139 42 131 64 169 157 266 l91 96 20 -26 19 -25 31 43 c26 36 32 53 32 98 0 29 3 53 8 53 4 0 30 -19 59 -42 63 -53 151 -160 159 -196 11 -43 14 -44 42 -10 14 18 47 56 73 85 46 52 139 199 139 221 0 9 -421 12 -1725 12 l-1725 0 0 -4250z m2049 1094 c25 -20 31 -34 31 -64 0 -72 -59 -113 -124 -86 -47 20 -70 57 -62 100 14 73 96 100 155 50z m344 -385 c49 -13 113 -77 126 -126 41 -148 -37 -281 -181 -308 -50 -9 -139 18 -182 56 -80 70 -101 190 -52 287 49 98 148 129 289 91z m405 -318 c46 -24 97 -77 111 -114 48 -127 -84 -296 -199 -256 -21 8 -67 10 -131 5 -98 -6 -99 -6 -128 21 -17 16 -33 40 -37 55 -6 28 6 44 74 95 18 14 37 43 48 74 21 56 71 114 118 135 37 17 93 11 144 -15z m-183 -736 c101 -27 142 -51 220 -130 62 -64 77 -86 96 -143 78 -232 -53 -495 -274 -554 -76 -19 -171 -23 -227 -8 -19 5 -51 13 -70 18 -48 12 -121 63 -170 119 -47 54 -105 168 -116 228 -9 51 -17 61 -75 91 -67 34 -99 83 -99 154 0 47 5 63 31 98 17 24 44 49 60 57 39 21 125 18 175 -4 l41 -19 49 29 c117 69 249 92 359 64z"
       id="path4"
       style="fill:none" />
    <path
       d="M1951 5324 c-38 -32 -40 -65 -5 -93 35 -28 52 -26 86 6 32 31 36 63 11 85 -34 30 -59 30 -92 2z"
       id="path6"
       style="fill:#20b2aa" />
    <path
       d="M2230 4934 c-67 -31 -88 -49 -106 -93 -17 -40 -18 -128 -3 -168 13 -34 55 -80 91 -99 16 -8 57 -14 101 -14 61 0 79 4 101 21 64 51 104 155 85 223 -20 73 -121 155 -189 156 -14 0 -50 -12 -80 -26z m176 -63 c38 -23 67 -81 58 -116 -10 -39 -21 -38 -29 2 -10 53 -29 87 -59 102 -14 8 -23 18 -20 23 8 12 15 10 50 -11z m-170 -96 c12 -8 27 -28 34 -45 12 -28 11 -33 -10 -55 -32 -34 -63 -32 -94 6 -31 37 -32 49 -5 83 23 29 45 33 75 11z"
       id="path8"
       style="fill:#00ff7f" />
    <path
       d="M2186 4744 c-6 -17 19 -54 36 -54 18 0 20 31 3 50 -22 24 -31 25 -39 4z"
       id="path10"
       style="fill:#20b2aa" />
    <path
       d="M2605 4567 c-30 -29 -55 -61 -55 -70 0 -9 18 -36 40 -58 41 -42 57 -77 47 -103 -12 -29 93 -47 150 -25 45 17 72 49 90 105 15 49 15 55 -1 98 -26 67 -85 106 -161 106 -53 0 -57 -2 -110 -53z m205 -26 c38 -37 46 -71 26 -108 l-15 -28 -1 38 c0 45 -21 90 -52 111 -19 14 -20 16 -4 16 9 0 30 -13 46 -29z"
       id="path12"
       style="fill:#7fffd4" />
    <path
       d="M2464 4384 c-16 -24 -16 -29 -3 -53 10 -18 24 -27 48 -29 49 -5 55 8 29 59 -28 53 -50 60 -74 23z"
       id="path14"
       style="fill:#20b2aa" />
    <path
       d="M2405 3881 c-45 -8 -135 -52 -154 -75 -9 -10 -11 -28 -7 -48 19 -97 18 -124 -3 -166 -15 -30 -36 -50 -71 -70 -28 -15 -53 -35 -56 -46 -9 -28 16 -134 44 -184 37 -65 87 -109 181 -155 81 -40 89 -42 192 -45 102 -4 112 -2 166 25 75 37 143 105 185 184 32 62 33 68 33 179 0 109 -2 118 -32 181 -84 172 -267 256 -478 220z m389 -258 c7 -16 19 -59 25 -98 13 -85 -3 -175 -40 -229 -39 -58 -49 -49 -16 15 21 41 32 79 35 119 4 53 -10 166 -24 205 -10 26 5 16 20 -12z m-340 -287 c102 -43 101 -181 -2 -181 -49 0 -114 41 -131 83 -16 38 1 80 39 99 32 16 53 16 94 -1z"
       id="path16"
       style="fill:#7fffd4" />
    <path
       d="M2365 3300 c-23 -26 -19 -67 9 -85 38 -25 90 -30 109 -10 25 24 21 48 -13 80 -34 33 -82 40 -105 15z"
       id="path18"
       style="fill:#00ff7f" />
    <path
       d="M1989 3808 c-34 -21 -59 -72 -59 -120 0 -65 75 -157 114 -142 20 8 116 200 116 232 0 42 -118 62 -171 30z m45 -179 c-15 -17 -18 -17 -50 9 l-33 26 22 24 22 24 27 -33 c26 -30 26 -34 12 -50z"
       id="path20"
       style="fill:#00ff7f" />
    <path
       d="M2163 3703 c-26 -37 -43 -88 -43 -129 0 -29 3 -32 23 -29 27 5 65 47 73 82 8 31 -6 95 -22 100 -7 2 -21 -9 -31 -24z"
       id="path22"
       style="fill:#00ff7f" />
    <path
       d="M3454 8413 c-17 -21 -55 -73 -85 -117 -30 -43 -73 -105 -95 -137 -82 -119 -98 -197 -22 -106 22 26 45 47 50 47 5 0 -2 -14 -17 -31 -54 -66 -93 -169 -63 -169 12 0 130 34 181 53 36 13 67 54 109 142 28 62 32 80 32 155 0 88 -12 138 -42 178 l-18 23 -30 -38z"
       id="path24"
       style="fill:#ffa500" />
    <path
       d="M3006 8362 c-4 -13 -5 -41 -1 -62 9 -51 -7 -99 -52 -157 -31 -40 -37 -57 -41 -113 -5 -72 5 -100 54 -154 20 -23 30 -27 43 -19 9 5 18 21 20 34 3 22 -13 138 -25 182 -4 11 0 17 10 17 11 0 16 -10 16 -34 0 -38 17 -95 35 -114 9 -10 21 -11 45 -5 32 8 34 13 52 83 10 41 18 86 18 100 0 43 -55 144 -112 205 -52 56 -56 58 -62 37z"
       id="path26"
       style="fill:#ffa500" />
    <path
       d="M2903 8204 c-24 -26 -43 -51 -43 -55 0 -5 -11 -9 -25 -9 -23 0 -24 2 -15 21 34 62 -34 11 -95 -72 -35 -47 -87 -173 -99 -242 -4 -20 -21 -53 -38 -72 l-30 -35 12 -133 c6 -72 20 -166 31 -209 24 -96 24 -92 -8 -107 -15 -7 -60 -47 -99 -89 -285 -308 -452 -513 -580 -712 -95 -146 -109 -192 -79 -249 15 -29 149 -151 166 -151 5 0 9 36 9 80 0 131 39 277 111 420 57 111 200 258 344 353 55 36 133 99 172 139 l73 73 -60 29 c-33 16 -60 33 -60 38 0 4 16 8 35 8 70 0 158 119 171 230 l5 45 -18 -28 c-10 -15 -22 -26 -27 -24 -5 2 -23 28 -40 58 -29 51 -31 60 -31 159 1 124 13 153 101 252 60 67 93 127 94 169 0 15 12 37 31 55 31 29 59 74 59 94 0 22 -25 8 -67 -36z"
       id="path28"
       style="fill:#dda0dd" />
    <path
       d="M4120 8110 c-25 -6 -56 -14 -70 -20 -14 -6 -35 -12 -46 -14 -12 -3 -68 -27 -125 -55 l-104 -51 36 34 37 34 -25 7 c-46 11 -176 -21 -233 -58 -59 -39 -91 -43 -57 -8 14 15 10 14 -51 -13 -23 -11 -41 -24 -39 -30 3 -10 38 -22 92 -31 17 -3 45 -11 64 -17 46 -14 164 -5 197 16 14 10 28 15 31 12 17 -17 -117 -162 -190 -206 -50 -29 -205 -78 -287 -90 -36 -5 -87 -15 -115 -22 l-50 -13 -8 -55 c-17 -123 -110 -252 -223 -312 -55 -28 -149 -59 -157 -51 -7 6 -61 -22 -77 -42 -20 -24 -9 -26 51 -11 30 8 55 13 57 11 2 -1 -14 -12 -35 -23 -479 -254 -678 -473 -729 -801 -50 -314 14 -587 178 -766 33 -36 63 -65 68 -65 4 0 -9 53 -30 118 -40 124 -78 376 -56 369 6 -2 12 -17 14 -33 3 -31 35 -154 57 -219 24 -72 77 -156 134 -215 65 -66 213 -166 292 -198 30 -12 68 -27 84 -34 17 -6 37 -13 45 -14 8 -1 51 -12 94 -23 92 -24 159 -27 175 -7 6 8 14 37 18 66 8 67 50 114 97 107 17 -2 39 0 48 5 22 11 51 68 66 128 34 139 28 146 -81 86 -47 -25 -88 -43 -91 -38 -2 4 20 21 51 36 59 32 163 128 186 173 21 40 47 152 47 199 0 43 -36 201 -49 218 -5 6 -18 36 -29 68 -12 31 -30 76 -41 100 -24 51 -37 85 -102 273 -39 112 -56 147 -86 177 -20 21 -40 38 -44 38 -7 0 -85 -101 -149 -195 -39 -56 -80 -136 -80 -154 0 -7 -4 -10 -9 -6 -13 7 17 94 57 164 32 59 88 131 195 253 38 43 67 78 64 78 -11 0 -145 -65 -182 -89 -22 -14 -66 -47 -99 -75 -32 -27 -54 -41 -48 -30 20 37 136 130 207 167 39 19 115 57 170 82 170 80 179 85 220 108 75 43 98 61 126 101 16 21 29 42 29 46 0 4 -26 10 -59 13 -32 4 -71 12 -87 18 -28 12 -28 13 29 19 84 11 195 69 277 146 88 84 102 63 18 -30 -33 -36 -56 -66 -53 -66 4 0 38 23 77 51 73 53 98 66 98 53 0 -5 -43 -38 -95 -73 -93 -63 -118 -89 -54 -57 18 9 36 16 41 16 4 0 63 24 131 52 142 61 211 106 352 229 56 49 105 89 109 89 4 0 -11 -21 -34 -47 -45 -52 -100 -139 -100 -162 0 -7 27 12 60 42 104 96 243 148 390 144 71 -2 90 -6 118 -25 35 -26 42 -43 14 -35 -14 3 -23 -6 -37 -36 -21 -48 -29 -55 -81 -77 l-39 -16 53 54 c28 29 52 61 52 70 0 41 -129 50 -230 15 -73 -25 -72 -23 -50 -131 15 -75 6 -172 -26 -291 -13 -49 -24 -102 -24 -117 0 -17 -7 -29 -19 -33 -11 -3 -27 -22 -38 -43 -15 -32 -18 -62 -18 -207 0 -204 6 -187 -153 -409 l-33 -47 48 -20 c145 -61 221 -108 480 -295 192 -140 620 -520 650 -579 9 -16 18 -62 21 -102 5 -77 -9 -138 -69 -301 -34 -92 -34 -107 -2 -89 41 23 168 112 207 144 48 40 70 41 92 7 16 -23 16 -28 2 -57 -9 -18 -35 -53 -58 -79 -23 -27 -40 -52 -38 -58 2 -6 30 7 63 28 172 111 204 130 248 147 35 13 63 16 108 12 33 -3 63 -8 66 -11 4 -3 2 -31 -4 -61 -5 -30 -7 -55 -4 -55 19 0 74 67 124 151 50 86 112 158 124 145 2 -2 -9 -23 -26 -47 -39 -54 -39 -63 2 -39 17 10 78 43 135 72 l103 52 -73 38 c-59 30 -68 37 -45 38 40 0 33 12 -18 33 -25 11 -45 23 -45 28 0 21 71 -4 131 -48 47 -33 129 -143 129 -172 0 -9 5 -23 10 -31 14 -23 40 49 40 113 0 110 -56 222 -169 340 -68 70 -54 75 23 7 31 -27 60 -50 64 -50 4 0 20 36 36 81 26 73 29 91 27 202 -2 129 -3 139 -31 232 -46 152 -124 279 -255 414 -128 132 -331 269 -425 286 -14 3 -50 12 -80 20 -33 9 -99 15 -167 15 -115 0 -150 13 -69 25 55 9 209 -1 256 -16 98 -31 240 -94 354 -158 l39 -22 -6 31 c-9 45 -108 171 -171 219 -63 47 -183 108 -229 115 -53 9 -208 26 -262 29 l-50 2 41 22 c49 26 104 86 104 113 0 25 -5 25 -33 -1 -39 -36 -181 -100 -267 -119 -168 -38 -408 -15 -502 49 -50 34 -92 90 -103 139 -10 47 -38 58 -82 32 -24 -14 -39 -18 -46 -11 -21 21 98 60 216 71 139 13 179 34 223 112 27 50 29 60 28 158 -2 277 -143 405 -444 404 -122 0 -163 -10 -335 -82 -116 -48 -124 -47 -41 9 69 46 77 53 58 60 -36 14 -135 18 -182 9z m-926 -1702 c2 -7 16 -67 31 -133 15 -66 30 -126 33 -132 2 -7 -3 -13 -11 -13 -8 0 -17 12 -20 28 -4 15 -15 70 -27 122 -11 52 -22 105 -26 118 -4 13 -2 22 5 22 6 0 13 -6 15 -12z"
       id="path30"
       style="fill:#dc143c" />
    <path
       d="M2840 7950 c-11 -11 -20 -24 -20 -28 0 -5 -17 -27 -38 -49 -56 -59 -76 -106 -67 -162 4 -25 6 -63 6 -84 -2 -40 31 -127 48 -127 6 0 36 34 67 76 31 42 76 90 100 107 55 39 62 77 14 77 -22 0 -43 -12 -75 -41 -52 -48 -70 -45 -32 4 27 36 81 67 116 67 12 0 21 4 21 8 0 18 -33 74 -47 79 -7 3 -23 23 -33 44 -26 49 -35 54 -60 29z"
       id="path32"
       style="fill:#ffa500" />
    <path
       d="M3061 7884 c-34 -29 -55 -103 -39 -139 6 -14 14 -25 18 -25 4 0 37 29 73 64 76 72 89 110 40 119 -45 9 -64 5 -92 -19z"
       id="path34"
       style="fill:#ffff00" />
    <path
       d="M3339 7900 c-36 -10 -69 -29 -69 -40 0 -5 15 -10 33 -12 38 -5 34 -7 -88 -45 -107 -33 -112 -44 -63 -122 l33 -52 73 6 c41 2 101 12 135 21 34 9 72 18 84 20 62 12 283 146 283 172 0 4 -25 5 -55 4 -35 -3 -100 6 -173 22 -152 33 -162 34 -193 26z"
       id="path36"
       style="fill:#ffa500" />
    <path
       d="M3068 7683 c-15 -18 -73 -135 -103 -208 l-16 -40 5 58 c3 36 17 84 35 124 17 36 31 67 31 68 0 9 -63 -16 -88 -33 -31 -22 -49 -59 -117 -238 -44 -117 -74 -162 -117 -177 -10 -4 -18 -13 -18 -21 0 -28 144 -33 199 -7 9 5 34 17 55 27 67 32 134 101 172 175 31 62 34 77 34 152 0 70 -3 89 -21 111 -24 31 -31 32 -51 9z"
       id="path38"
       style="fill:#ffa500" />
    <path
       d="M4399 7612 c-79 -51 -150 -146 -183 -244 -7 -24 -26 -23 -26 1 0 11 5 54 11 96 6 42 8 79 6 82 -8 7 -57 -26 -102 -68 -39 -38 -111 -65 -355 -137 -45 -13 -68 -29 -126 -87 -39 -38 -92 -89 -117 -112 -25 -22 -49 -53 -53 -67 -3 -15 -2 -65 3 -111 6 -58 5 -85 -2 -85 -5 0 -46 31 -90 70 -44 38 -83 70 -86 70 -17 0 -16 -33 2 -100 26 -97 19 -123 -10 -38 -12 37 -26 70 -30 72 -12 8 -67 -32 -81 -60 -17 -30 -9 -45 41 -86 24 -19 57 -32 106 -42 39 -7 75 -16 81 -20 7 -4 45 -58 87 -120 113 -171 246 -283 362 -305 37 -7 47 -5 85 21 72 49 101 61 158 69 50 7 60 13 105 61 69 74 139 175 155 222 13 41 7 223 -8 237 -6 6 -132 -8 -140 -16 -2 -2 4 -19 13 -38 9 -21 15 -52 13 -78 -3 -38 -7 -44 -37 -56 l-34 -14 27 31 c32 38 32 57 5 121 -14 32 -19 59 -15 79 5 30 148 304 168 325 6 6 8 -4 6 -30 -2 -33 0 -40 17 -43 11 -2 25 -10 32 -19 19 -24 49 1 68 57 24 71 18 93 -27 104 -55 14 -46 26 18 26 53 0 56 1 51 23 -3 12 -13 67 -22 122 -10 55 -21 103 -24 108 -4 4 -27 -6 -52 -21z m-421 -318 c42 -6 43 -7 27 -30 -21 -33 -20 -34 28 -35 43 -1 42 -3 -4 -13 -22 -5 -27 -14 -43 -83 -25 -104 -39 -130 -77 -138 -80 -18 -162 19 -213 94 -38 57 -32 71 64 156 l75 67 50 -6 c27 -4 69 -9 93 -12z m-125 -631 c16 -15 39 -18 136 -18 90 0 125 -4 155 -18 l40 -18 -37 -26 c-21 -15 -38 -37 -42 -54 -10 -46 -60 -89 -102 -89 -93 0 -191 116 -193 228 0 17 20 15 43 -5z"
       id="path40"
       style="fill:#d8bfd8" />
    <path
       d="M3815 7212 c25 -59 26 -120 2 -149 -6 -9 -6 -13 2 -13 6 0 21 20 32 44 20 40 21 46 7 86 -9 27 -21 44 -32 46 -13 2 -16 -2 -11 -14z"
       id="path42"
       style="fill:#0000cd" />
    <path
       d="M3870 7211 c5 -11 10 -43 10 -72 0 -40 -6 -60 -25 -84 l-24 -33 34 -6 c19 -4 43 -2 54 3 33 18 54 148 31 192 -8 14 -21 19 -51 19 -36 0 -39 -2 -29 -19z"
       id="path44"
       style="fill:#0000cd" />
    <path
       d="M3870 6606 c0 -28 63 -87 100 -95 51 -11 88 5 110 49 l19 38 -92 5 c-51 3 -102 8 -114 12 -18 6 -23 3 -23 -9z"
       id="path46"
       style="fill:#ff0000" />
    <path
       d="M4307 7134 c-6 -7 0 -80 10 -124 6 -25 6 -25 13 5 12 50 11 102 -3 114 -8 6 -17 8 -20 5z"
       id="path48"
       style="fill:#0000cd" />
    <path
       d="M3365 7067 c-22 -12 -40 -28 -40 -34 0 -10 91 -113 101 -113 9 0 -1 163 -11 167 -5 1 -28 -8 -50 -20z"
       id="path50"
       style="fill:#ff0000" />
    <path
       d="M4280 7055 c0 -22 -9 -55 -20 -72 -11 -18 -15 -33 -10 -33 16 0 50 62 50 90 0 14 -5 32 -10 40 -7 11 -10 5 -10 -25z"
       id="path52"
       style="fill:#0000cd" />
    <path
       d="M3304 6703 c3 -10 10 -56 16 -103 14 -105 42 -217 76 -292 71 -163 88 -228 89 -339 l0 -105 -47 -96 c-34 -66 -48 -107 -48 -135 0 -83 -29 -196 -61 -240 l-30 -43 33 -41 c59 -74 112 -127 134 -134 21 -6 22 -4 20 154 -1 108 3 164 10 171 9 9 12 -13 11 -87 0 -61 4 -107 12 -122 l13 -23 25 38 c70 106 156 164 244 164 33 0 60 -6 77 -19 15 -10 45 -21 67 -25 74 -13 104 -27 139 -67 41 -45 59 -47 137 -20 83 28 134 57 180 101 l42 40 -7 79 c-12 151 -34 181 -185 252 -57 27 -102 52 -99 54 6 6 183 -62 252 -96 22 -12 146 -92 274 -178 129 -86 261 -173 295 -194 81 -50 85 -55 46 -54 -31 2 -34 0 -41 -38 -12 -64 -12 -351 1 -465 16 -144 33 -192 84 -235 79 -68 175 -71 362 -11 44 14 84 26 89 26 23 0 178 77 233 117 58 40 121 108 112 118 -3 2 -36 -14 -74 -37 -98 -57 -143 -74 -320 -123 -27 -8 -67 -16 -87 -19 -21 -2 -42 -7 -48 -11 -5 -3 -10 -2 -10 4 0 13 118 48 219 66 37 6 86 29 96 45 3 5 13 10 20 10 22 0 154 88 208 138 50 47 93 109 83 119 -3 3 -36 -19 -73 -49 -99 -81 -233 -178 -245 -178 -20 0 -1 20 54 57 58 39 255 192 283 219 39 39 5 42 -44 3 -38 -30 -279 -187 -323 -210 -24 -12 -39 -15 -43 -8 -4 6 -5 11 -4 13 2 1 60 35 129 76 120 72 200 132 200 151 0 22 -322 -162 -395 -225 -22 -19 -41 -33 -42 -32 -2 2 11 36 28 77 21 50 47 90 80 124 46 47 58 73 43 88 -14 13 -121 -57 -253 -165 -70 -57 -102 -108 -124 -198 -8 -29 -19 -56 -26 -58 -6 -2 -11 0 -11 3 0 4 27 87 59 184 93 274 112 355 114 476 l2 104 -120 122 c-118 120 -347 311 -574 481 -262 197 -408 270 -543 274 -71 2 -81 -1 -122 -27 -48 -32 -137 -136 -180 -211 -16 -27 -32 -48 -37 -48 -13 0 -12 1 21 72 16 34 30 69 30 75 0 7 -12 20 -27 30 -16 10 -32 21 -38 26 -5 4 -40 30 -77 57 -96 71 -164 143 -219 229 -70 111 -88 130 -132 137 -34 5 -38 3 -33 -13z"
       id="path54"
       style="fill:#dda0dd" />
    <path
       d="M4460 5663 c1 -91 51 -364 82 -443 36 -93 36 -93 61 -77 56 36 160 45 264 24 l61 -13 6 29 c3 16 6 65 6 108 l0 78 -52 39 c-29 21 -84 58 -123 82 -38 24 -81 52 -95 62 -23 17 -170 115 -197 132 -9 5 -13 -1 -13 -21z"
       id="path56"
       style="fill:#8b0000" />
    <path
       d="M3725 5422 c-91 -43 -156 -125 -190 -239 l-14 -45 57 4 c115 8 239 94 291 201 27 56 19 84 -28 97 -49 14 -48 14 -116 -18z"
       id="path58"
       style="fill:#00ff7f" />
    <path
       d="M4430 5435 c-40 -48 -212 -137 -268 -137 -32 -1 -49 -34 -23 -47 23 -13 59 -3 155 43 73 35 156 111 156 142 0 18 -5 18 -20 -1z"
       id="path60"
       style="fill:#008000" />
    <path
       d="M3930 5357 c-9 -7 -37 -40 -64 -75 -48 -61 -125 -120 -188 -146 -18 -7 -58 -14 -88 -15 -30 -2 -57 -4 -59 -6 -2 -2 -1 -15 3 -29 8 -32 59 -49 146 -49 124 0 245 51 334 142 45 46 49 54 49 97 0 39 -4 51 -27 71 -30 25 -81 30 -106 10z"
       id="path62"
       style="fill:#00ff7f" />
    <path
       d="M4396 5325 c-56 -42 -114 -73 -177 -91 -57 -17 -73 -37 -100 -124 -31 -101 -88 -200 -136 -236 -66 -50 -139 -58 -287 -30 -16 3 -61 26 -99 51 -66 44 -70 46 -88 29 -30 -27 -23 -51 34 -111 98 -105 203 -156 377 -183 210 -32 329 -123 366 -280 16 -68 52 -123 96 -146 16 -9 87 -33 156 -55 70 -21 148 -46 173 -54 26 -8 48 -15 50 -15 2 0 3 34 1 75 -4 76 21 215 53 297 18 47 57 298 53 341 -3 28 -11 35 -74 68 -40 20 -88 49 -108 65 -80 63 -166 210 -208 357 -13 42 -26 77 -30 77 -3 0 -27 -16 -52 -35z"
       id="path64"
       style="fill:#4b0082" />
    <path
       d="M3191 5321 c-30 -41 -26 -71 14 -119 61 -71 216 -131 258 -100 17 13 8 24 -106 131 -69 64 -130 117 -135 117 -6 0 -20 -13 -31 -29z"
       id="path66"
       style="fill:#00ff7f" />
    <path
       d="M3130 5168 c-25 -28 -27 -89 -2 -111 44 -40 232 -54 301 -23 50 23 44 36 -18 36 -52 0 -147 41 -212 92 -20 15 -39 28 -43 28 -3 0 -14 -10 -26 -22z"
       id="path68"
       style="fill:#00ff7f" />
    <path
       d="M4047 5161 c-37 -36 -123 -88 -198 -118 -71 -29 -183 -40 -249 -25 -24 6 -47 9 -49 6 -12 -12 69 -77 121 -96 32 -11 58 -23 58 -25 0 -3 -24 -2 -52 2 -47 7 -51 6 -40 -8 18 -22 98 -47 148 -47 52 0 132 25 164 52 l25 20 -25 -7 c-14 -4 -68 -8 -120 -10 -91 -3 -92 -3 -25 5 117 13 200 58 259 140 43 60 49 81 35 114 -15 31 -16 31 -52 -3z"
       id="path70"
       style="fill:#00ff7f" />
    <path
       d="M4640 5112 c-19 -9 -36 -24 -38 -34 -2 -9 23 -41 60 -77 60 -59 97 -79 84 -45 -3 9 -9 27 -13 41 -8 36 11 22 27 -19 12 -31 87 -118 101 -118 4 0 3 19 -2 42 -15 62 -5 80 15 31 10 -24 21 -43 25 -43 11 0 43 173 36 192 -9 23 -77 48 -130 48 -38 0 -46 -4 -59 -27 l-15 -28 -1 28 c0 23 -4 27 -27 27 -16 0 -44 -8 -63 -18z"
       id="path72"
       style="fill:#8b0000" />
    <path
       d="M3425 5010 c-39 -10 -105 -19 -149 -19 l-78 -1 7 -27 c13 -57 36 -68 138 -68 100 0 131 11 162 59 15 23 12 77 -4 75 -3 0 -37 -9 -76 -19z"
       id="path74"
       style="fill:#00ff7f" />
    <path
       d="M4907 4803 c-4 -3 -7 -28 -7 -55 0 -26 -12 -102 -26 -169 -14 -67 -22 -125 -18 -129 12 -11 146 36 161 57 22 29 14 71 -22 124 -27 40 -35 61 -35 96 0 64 -27 103 -53 76z"
       id="path76"
       style="fill:#008000" />
    <path
       d="M5335 4529 c-91 -32 -134 -36 -195 -14 -24 8 -50 13 -59 10 -20 -7 -122 -163 -182 -280 -32 -63 -52 -118 -65 -182 l-18 -93 -217 0 -217 0 8 -32 c36 -146 135 -362 234 -511 70 -105 218 -277 341 -397 43 -41 119 -124 169 -185 165 -196 251 -363 320 -620 22 -79 32 -334 18 -445 -18 -144 -86 -314 -189 -474 -54 -84 -293 -325 -381 -384 -165 -112 -369 -195 -546 -222 -44 -6 -85 -14 -93 -17 -21 -8 -6 -20 34 -28 71 -12 213 -60 213 -71 0 -6 -43 -30 -95 -55 -52 -24 -94 -47 -95 -50 0 -3 12 -4 28 -2 15 1 108 5 207 7 137 3 203 9 275 26 52 12 107 24 121 26 15 2 63 17 108 33 44 16 81 28 81 26 0 -8 210 94 282 136 165 97 273 182 433 343 197 198 276 309 408 576 59 119 75 153 126 280 179 442 215 855 112 1280 -30 125 -83 289 -116 365 -37 84 -137 281 -159 315 -13 19 -40 61 -61 93 -124 193 -394 441 -607 557 -52 28 -124 25 -223 -11z"
       id="path78"
       style="fill:#4b0082" />
    <path
       d="M4086 4473 c-8 -27 -20 -75 -25 -107 -13 -68 -4 -86 40 -86 35 0 36 -6 7 -29 -20 -17 -20 -21 -9 -49 7 -17 34 -50 60 -72 74 -66 70 -64 96 -40 57 54 57 127 0 173 -19 15 -35 35 -35 43 0 8 -8 27 -17 42 -13 22 -8 19 26 -13 39 -36 42 -37 36 -15 -22 72 -69 152 -103 175 -20 14 -42 25 -49 25 -6 0 -18 -21 -27 -47z"
       id="path80"
       style="fill:#008000" />
    <path
       d="M4925 4445 c-44 -20 -69 -44 -101 -95 -23 -37 -28 -59 -32 -125 -2 -45 -2 -90 0 -100 3 -13 33 37 91 152 48 95 87 175 87 178 0 8 -13 5 -45 -10z"
       id="path82"
       style="fill:#008000" />
    <path
       d="M4366 4137 c-17 -13 -18 -18 -7 -65 7 -28 19 -56 26 -62 17 -14 330 -15 366 -2 23 9 22 10 -21 32 -69 35 -260 103 -305 107 -25 3 -47 -1 -59 -10z"
       id="path84"
       style="fill:#008000" />
    <path
       d="M4291 4092 c-13 -25 -14 -52 -2 -52 5 0 17 -3 26 -7 15 -5 16 -1 10 28 -10 45 -21 56 -34 31z"
       id="path86"
       style="fill:#008000" />
    <path
       d="M3887 3204 c-2 -2 8 -45 22 -96 23 -86 25 -110 26 -308 0 -209 -1 -217 -29 -305 -15 -49 -39 -115 -53 -145 -50 -109 -71 -157 -107 -245 -21 -49 -46 -110 -57 -135 -79 -184 -112 -403 -92 -618 15 -164 71 -322 149 -418 36 -44 156 -114 196 -114 13 0 28 -4 33 -9 16 -15 169 -91 173 -86 3 2 -3 17 -13 32 l-18 28 24 -21 c29 -26 82 -54 103 -54 9 0 33 7 55 16 l39 15 -25 72 c-51 146 -50 398 1 558 28 85 75 193 82 186 3 -2 -6 -35 -20 -73 -36 -100 -75 -272 -82 -361 -7 -87 6 -193 37 -295 25 -80 37 -93 73 -77 31 14 32 26 6 99 -14 40 -19 82 -20 153 0 89 3 106 36 190 33 86 88 195 184 362 160 279 198 478 145 741 -19 90 -80 273 -97 289 -8 7 -9 5 -5 -7 16 -46 28 -191 22 -263 -15 -175 -94 -410 -202 -600 -36 -63 -36 -50 1 50 13 33 28 76 35 95 7 19 33 91 57 160 81 226 99 357 68 508 -27 136 -120 297 -212 371 -23 18 -42 31 -42 28 0 -2 16 -52 35 -110 33 -99 35 -114 35 -234 0 -79 -6 -147 -14 -178 -16 -55 -100 -274 -122 -317 -17 -32 -83 -210 -94 -253 -4 -16 -17 -57 -29 -90 -33 -96 -77 -252 -102 -365 -20 -87 -24 -133 -24 -267 0 -89 -2 -159 -5 -156 -11 11 -17 206 -10 318 14 203 77 423 230 795 114 279 138 359 147 491 5 72 1 104 -22 200 -15 62 -35 130 -45 149 -30 59 -120 135 -220 185 l-93 47 6 -31 c4 -17 15 -50 26 -73 23 -51 47 -135 69 -237 15 -71 15 -77 -7 -175 -13 -55 -25 -103 -27 -105 -11 -12 -10 14 4 117 19 135 9 228 -34 336 -27 67 -111 207 -134 221 -12 8 -58 14 -63 9z m93 -1025 c-23 -57 -50 -124 -62 -149 -29 -64 -93 -254 -109 -323 -7 -32 -16 -60 -21 -63 -5 -3 -7 5 -4 18 39 190 71 297 126 413 81 173 102 216 106 212 2 -2 -14 -51 -36 -108z m-188 -842 c3 -39 1 -56 -6 -54 -6 2 -12 34 -13 73 -3 83 12 68 19 -19z m85 -362 c8 -42 -9 -22 -35 42 -32 75 -28 113 4 43 14 -30 28 -68 31 -85z"
       id="path88"
       style="fill:#8a2be2" />
    <path
       d="M2433 2640 c-57 -70 -93 -127 -140 -225 -13 -27 -27 -57 -32 -66 -5 -9 -25 -61 -44 -116 -35 -101 -59 -263 -39 -263 5 0 24 44 41 98 45 135 119 282 190 376 33 44 65 93 71 110 15 46 28 156 18 156 -4 0 -34 -32 -65 -70z"
       id="path90"
       style="fill:#7b68ee" />
    <path
       d="M2404 2383 c-49 -77 -55 -88 -86 -148 -118 -231 -138 -303 -138 -504 1 -84 6 -171 14 -206 23 -103 58 -219 76 -255 18 -35 18 -34 18 140 1 97 6 198 12 225 22 98 53 191 92 274 23 47 44 110 49 145 10 71 24 406 17 406 -3 0 -27 -35 -54 -77z"
       id="path92"
       style="fill:#8a2be2" />
    <path
       d="M2431 1932 c-78 -147 -139 -421 -126 -567 15 -161 76 -341 154 -450 53 -75 163 -187 171 -174 4 6 22 -10 43 -39 42 -57 133 -135 192 -164 22 -11 47 -26 55 -33 8 -7 33 -18 55 -25 22 -7 45 -16 50 -20 10 -8 81 -29 125 -37 14 -2 50 -11 80 -19 30 -8 110 -19 177 -26 133 -13 310 -2 448 27 39 9 88 17 110 20 77 10 307 82 433 136 42 18 49 39 13 39 -9 0 -54 11 -99 24 -44 13 -82 20 -84 15 -4 -13 -119 13 -233 54 -104 37 -295 122 -710 317 -44 20 -91 41 -105 45 -14 4 -29 11 -35 15 -5 4 -61 31 -124 59 -122 55 -296 149 -348 189 -33 24 -33 24 -33 3 0 -21 28 -114 77 -257 24 -71 25 -72 83 -98 33 -15 83 -35 112 -46 29 -10 98 -35 153 -55 55 -20 114 -40 130 -44 17 -5 63 -20 103 -34 39 -15 73 -26 75 -25 1 1 47 -10 102 -25 153 -41 302 -75 382 -86 97 -15 175 -32 170 -37 -3 -3 -47 2 -98 12 -52 9 -110 18 -129 20 -170 21 -701 172 -982 280 -26 10 -50 15 -53 12 -3 -3 16 -52 43 -109 27 -57 54 -118 61 -135 24 -61 67 -90 186 -122 61 -16 175 -42 255 -58 129 -25 166 -28 333 -27 122 0 187 -3 187 -10 0 -7 -79 -8 -242 -4 -211 5 -259 10 -363 33 -66 14 -144 30 -174 35 -30 6 -58 12 -62 15 -5 3 -6 -2 -2 -12 18 -48 -75 40 -136 129 -45 65 -128 263 -161 382 -22 81 -108 309 -118 313 -23 7 -28 -304 -6 -362 3 -9 2 -16 -3 -16 -14 0 -43 129 -43 191 0 30 5 98 12 151 14 114 4 215 -43 424 -16 73 -29 143 -29 157 0 33 -16 43 -29 19z m178 -1092 c11 -35 18 -66 16 -68 -5 -6 -46 89 -52 123 -10 52 14 16 36 -55z"
       id="path94"
       style="fill:#7b68ee" />
    <path
       d="M2580 1502 c0 -4 7 -31 15 -58 17 -58 42 -84 105 -113 25 -12 72 -36 105 -54 155 -86 349 -185 500 -256 203 -96 258 -121 375 -171 41 -18 98 -42 125 -55 147 -65 195 -85 245 -99 30 -9 78 -22 105 -31 l50 -15 -29 25 c-17 13 -40 26 -53 30 -41 10 -226 105 -373 192 -47 27 -103 60 -125 73 -22 13 -56 33 -75 45 -19 12 -89 53 -155 90 -66 38 -149 86 -185 107 -36 20 -84 46 -107 57 -24 11 -43 25 -43 31 0 6 -4 8 -10 5 -5 -3 -10 -2 -10 3 0 5 -19 15 -42 22 -24 7 -55 21 -70 31 -14 11 -29 19 -33 19 -3 0 -32 13 -65 29 -32 16 -69 32 -82 36 -12 4 -45 17 -73 30 -66 30 -95 38 -95 27z"
       id="path96"
       style="fill:#8a2be2" />
  </g>
</svg>
