<?xml version="1.0" encoding="UTF-8" standalone="no"?>
<svg
   xmlns:dc="http://purl.org/dc/elements/1.1/"
   xmlns:cc="http://creativecommons.org/ns#"
   xmlns:rdf="http://www.w3.org/1999/02/22-rdf-syntax-ns#"
   xmlns:svg="http://www.w3.org/2000/svg"
   xmlns="http://www.w3.org/2000/svg"
   xmlns:sodipodi="http://sodipodi.sourceforge.net/DTD/sodipodi-0.dtd"
   xmlns:inkscape="http://www.inkscape.org/namespaces/inkscape"
   version="1.0"
   width="850.000000pt"
   height="850.000000pt"
   viewBox="0 0 850.000000 850.000000"
   preserveAspectRatio="xMidYMid meet"
   id="svg138"
   sodipodi:docname="10 #15364.svg"
   inkscape:version="0.92.2 5c3e80d, 2017-08-06">
  <defs
     id="defs142" />
  <sodipodi:namedview
     pagecolor="#ffffff"
     bordercolor="#666666"
     borderopacity="1"
     objecttolerance="10"
     gridtolerance="10"
     guidetolerance="10"
     inkscape:pageopacity="0"
     inkscape:pageshadow="2"
     inkscape:window-width="1920"
     inkscape:window-height="978"
     id="namedview140"
     showgrid="false"
     inkscape:zoom="0.41647059"
     inkscape:cx="725.69311"
     inkscape:cy="727.80293"
     inkscape:window-x="0"
     inkscape:window-y="1"
     inkscape:window-maximized="1"
     inkscape:current-layer="svg138" />
  <metadata
     id="metadata2">
Created by potrace 1.14, written by Peter Selinger 2001-2017
<rdf:RDF>
  <cc:Work
     rdf:about="">
    <dc:format>image/svg+xml</dc:format>
    <dc:type
       rdf:resource="http://purl.org/dc/dcmitype/StillImage" />
  </cc:Work>
</rdf:RDF>
</metadata>
  <g
     transform="translate(0.000000,850.000000) scale(0.100000,-0.100000)"
     fill="#000000"
     stroke="none"
     id="g136">
    <path
       d="M0 4250 l0 -4250 2768 1 c2728 1 2765 1 2637 20 -153 21 -448 39 -660 39 -82 0 -188 5 -235 10 -47 6 -199 15 -338 20 -139 6 -261 14 -271 20 -42 22 -65 92 -39 118 15 15 26 16 -170 -10 -112 -14 -225 -22 -342 -22 l-175 -1 -79 33 c-47 19 -143 46 -230 63 -130 26 -155 34 -181 58 -28 27 -37 29 -142 35 -140 9 -207 28 -250 71 -39 39 -43 83 -13 132 14 23 20 56 23 116 3 76 7 89 42 146 31 49 39 74 44 129 9 99 17 108 176 217 116 80 209 123 298 139 43 7 80 15 82 18 11 11 20 96 14 132 -5 29 -18 50 -47 78 -51 48 -64 71 -56 102 4 16 -5 53 -25 105 -79 206 -76 411 9 618 23 55 30 87 30 137 0 86 21 111 84 102 41 -7 43 -6 102 56 34 35 67 74 75 88 11 19 15 87 19 290 3 183 9 272 17 286 23 40 77 77 192 131 185 86 285 148 338 208 100 112 198 171 369 224 55 17 109 40 119 51 14 15 19 48 27 154 5 75 8 162 6 195 l-3 61 -390 -206 c-668 -352 -751 -403 -964 -594 -165 -147 -381 -411 -447 -546 -88 -181 -99 -356 -43 -664 30 -169 33 -202 33 -380 0 -179 -2 -203 -27 -292 -50 -189 -123 -316 -251 -444 -147 -146 -281 -218 -524 -280 -115 -29 -151 -43 -227 -89 -198 -119 -327 -163 -507 -172 -185 -9 -358 28 -476 103 -73 47 -182 152 -182 176 0 10 1 18 3 18 1 0 27 -7 57 -15 145 -39 264 -6 493 139 317 200 615 488 809 782 153 231 393 671 422 774 8 30 34 122 57 204 90 327 255 778 389 1066 183 396 362 655 645 935 215 213 354 307 555 376 87 29 109 33 255 38 l160 6 42 64 c87 132 148 171 283 180 l85 6 13 120 14 120 -29 20 c-15 11 -51 43 -79 71 -108 107 -113 258 -13 425 22 37 51 104 65 150 36 116 74 178 155 251 88 80 107 124 85 202 -24 87 -26 132 -12 208 49 253 173 431 417 599 122 84 158 123 175 194 30 126 149 245 245 245 81 0 215 -59 317 -139 69 -55 136 -87 235 -112 123 -30 208 -75 230 -120 16 -33 16 -39 2 -79 -26 -73 -92 -146 -211 -236 -62 -46 -116 -89 -120 -96 -12 -19 -6 -165 7 -191 7 -12 36 -48 66 -79 93 -99 113 -178 73 -293 -11 -32 -20 -66 -20 -76 0 -24 50 -40 150 -46 97 -6 171 6 246 41 43 20 59 36 98 95 77 120 172 165 334 159 117 -4 183 -30 263 -104 48 -46 86 -100 76 -110 -3 -3 -32 6 -66 20 -33 13 -61 22 -60 18 0 -4 28 -25 62 -47 111 -72 175 -194 217 -415 22 -117 24 -140 11 -140 -5 0 -42 43 -82 95 -39 52 -73 95 -75 95 -1 0 17 -37 41 -82 63 -120 88 -224 89 -378 1 -143 -10 -201 -61 -310 -30 -64 -52 -92 -153 -190 -121 -119 -160 -175 -160 -232 1 -42 29 -105 69 -150 37 -43 38 -48 8 -48 -73 0 -198 106 -245 208 -37 82 -35 131 11 223 58 118 46 174 -49 237 -161 107 -277 46 -457 -242 -72 -115 -129 -176 -201 -214 -47 -25 -60 -27 -161 -27 -98 1 -117 4 -174 29 -36 15 -100 52 -144 82 -109 74 -123 73 -187 -13 -28 -38 -54 -84 -60 -103 -5 -19 -23 -159 -40 -310 -17 -151 -40 -353 -51 -449 -20 -169 -20 -174 -2 -191 23 -22 106 -50 149 -50 61 0 138 -22 218 -62 77 -39 87 -41 348 -76 218 -29 275 -34 299 -25 43 16 90 6 114 -25 16 -22 20 -41 18 -103 -2 -93 -25 -158 -85 -236 -72 -93 -180 -264 -200 -316 -39 -102 -18 -138 120 -204 81 -38 109 -58 176 -127 103 -103 181 -216 173 -248 -4 -13 -60 -77 -127 -143 -66 -66 -120 -125 -120 -132 0 -7 12 -34 26 -60 28 -53 28 -101 -1 -134 -16 -16 -14 -23 28 -101 56 -103 92 -207 108 -316 16 -115 5 -152 -58 -189 l-47 -27 31 -8 c35 -9 56 -45 74 -126 l12 -51 123 44 124 43 19 -24 c35 -45 44 -91 37 -188 -3 -50 -9 -104 -13 -120 -5 -24 -3 -27 13 -23 11 3 60 9 109 12 81 6 93 5 115 -13 20 -16 25 -31 28 -83 5 -87 -11 -140 -57 -188 -44 -46 -71 -109 -52 -121 7 -4 88 -22 182 -41 l170 -34 41 24 c149 86 468 -31 718 -262 41 -38 90 -78 108 -89 28 -18 32 -25 32 -63 l0 -42 -69 -32 c-86 -39 -146 -52 -436 -91 -126 -17 -336 -46 -465 -65 -129 -18 -350 -48 -490 -64 -140 -17 -304 -37 -365 -45 -98 -12 8 -14 968 -15 l1077 -1 0 4250 0 4250 -1355 0 c-1337 0 -1356 0 -1345 -19 17 -32 12 -69 -12 -85 -29 -21 -51 -20 -77 2 -24 18 -29 44 -17 80 l7 22 -2850 0 -2851 0 0 -4250z m5265 4189 c17 -19 44 -62 58 -97 25 -59 26 -65 12 -98 -20 -49 -46 -55 -143 -34 -92 19 -124 41 -143 97 -43 131 120 231 216 132z m291 -64 c9 -35 -1 -54 -33 -66 -25 -9 -31 -7 -56 21 -26 29 -26 32 -12 59 8 16 20 31 27 34 22 7 67 -22 74 -48z m411 -257 c21 -20 22 -23 6 -40 -23 -26 -51 -22 -65 8 -11 22 -10 28 7 40 24 18 25 18 52 -8z m-1263 -124 c39 -28 69 -97 61 -136 -10 -44 -40 -85 -76 -103 -16 -9 -65 -21 -109 -27 -78 -11 -81 -10 -105 12 -35 33 -32 79 13 170 29 58 45 79 72 93 43 22 106 18 144 -9z m-336 -607 c29 -27 28 -41 -7 -66 -37 -26 -63 -27 -86 -1 -24 26 -11 69 25 87 26 13 33 11 68 -20z m-433 -63 c43 -20 64 -52 71 -106 10 -79 -57 -158 -133 -158 -47 0 -110 34 -129 71 -20 40 -20 113 1 145 38 59 122 80 190 48z m110 -269 c40 -39 32 -96 -17 -121 -59 -30 -122 7 -122 73 0 69 88 100 139 48z m186 -131 c13 -8 -3 -44 -20 -44 -9 0 -26 -3 -38 -6 -21 -6 -23 -3 -23 31 l0 37 37 -7 c21 -4 41 -9 44 -11z m-266 -98 c44 -19 75 -69 75 -121 0 -32 -11 -57 -50 -118 -43 -64 -56 -77 -84 -83 -19 -3 -43 -1 -54 5 -35 19 -90 177 -78 226 9 34 62 93 89 98 44 9 68 7 102 -7z m-815 -196 c20 -5 51 -26 70 -45 34 -35 35 -39 35 -110 0 -72 -1 -76 -36 -111 -80 -79 -210 -60 -258 40 -24 49 -26 84 -7 129 18 42 55 75 103 92 47 17 49 17 93 5z m174 -512 c41 -38 42 -63 3 -92 -58 -44 -117 -25 -117 38 0 36 7 48 35 64 30 17 51 14 79 -10z m3233 -939 c17 -11 54 -26 82 -35 31 -9 57 -24 66 -38 43 -66 37 -148 -14 -199 -24 -25 -40 -31 -85 -35 -54 -4 -57 -3 -95 35 -24 24 -44 55 -51 82 -6 24 -20 60 -31 80 -23 44 -24 69 -3 99 31 45 69 48 131 11z m408 -184 c29 -28 30 -36 11 -74 -24 -46 -40 -54 -81 -41 -57 19 -71 67 -34 114 27 34 71 35 104 1z m-839 -64 l24 -19 -26 -21 c-33 -26 -46 -26 -69 -1 -17 19 -17 21 0 40 23 25 40 25 71 1z m385 -171 c24 -13 49 -61 49 -95 0 -34 -25 -82 -49 -95 -32 -16 -86 -12 -114 10 -33 26 -51 79 -38 112 23 60 101 95 152 68z m335 -91 c18 -20 18 -21 -1 -35 -25 -18 -49 -18 -65 1 -10 13 -10 19 5 35 23 25 37 25 61 -1z m-61 -285 l34 -26 -33 -29 c-42 -36 -55 -36 -89 -1 l-27 29 24 26 c31 34 48 34 91 1z m-5159 -1579 c49 -20 87 -78 88 -133 1 -40 -6 -56 -44 -111 -25 -35 -57 -73 -71 -84 -24 -17 -31 -18 -64 -7 -77 25 -145 118 -145 198 0 47 4 57 38 93 60 64 117 77 198 44z m-207 -399 c10 -12 9 -20 -3 -45 -26 -49 -66 -51 -109 -3 -21 23 -12 50 25 76 18 13 25 13 48 1 14 -7 32 -20 39 -29z m-219 -161 c35 -35 33 -90 -4 -121 -38 -33 -80 -31 -117 5 -31 32 -36 62 -15 100 30 54 89 61 136 16z m245 -161 c32 -21 32 -47 -1 -64 -28 -15 -49 -8 -68 24 -9 14 -6 21 13 37 28 23 26 23 56 3z"
       id="path4"
       style="fill:#99ccff" />
    <path
       d="M5153 8433 c-28 -5 -73 -58 -73 -84 0 -35 28 -76 59 -87 28 -10 31 -8 71 44 53 71 55 76 28 101 -26 24 -53 32 -85 26z"
       id="path6"
       style="fill:#ccccff" />
    <path
       d="M4590 7973 c-28 -10 -60 -46 -60 -67 0 -11 23 -43 51 -72 57 -57 84 -61 119 -16 58 74 -22 187 -110 155z"
       id="path8"
       style="fill:#99ffff" />
    <path
       d="M3799 7271 c-38 -39 -39 -87 -3 -130 22 -27 33 -31 73 -31 36 0 52 5 69 23 30 33 36 70 17 110 -30 63 -107 77 -156 28z"
       id="path10"
       style="fill:#99ffff" />
    <path
       d="M3880 6793 c-49 -18 -78 -74 -56 -108 14 -21 80 -45 125 -45 29 0 51 27 51 61 0 43 -17 69 -55 85 -37 15 -42 15 -65 7z"
       id="path12"
       style="fill:#ccccff" />
    <path
       d="M3033 6570 c-37 -22 -60 -82 -49 -126 9 -35 57 -80 93 -87 72 -14 143 49 143 125 0 32 -7 47 -34 74 -28 28 -41 34 -77 34 -26 0 -57 -8 -76 -20z"
       id="path14"
       style="fill:#99ffff" />
    <path
       d="M6547 5067 c-52 -49 -54 -56 -30 -95 34 -55 76 -67 132 -37 58 29 62 122 8 160 -35 24 -59 18 -110 -28z"
       id="path16"
       style="fill:#ccccff" />
    <path
       d="M6422 4714 c-42 -29 -21 -114 27 -114 24 0 71 45 71 67 0 24 -10 37 -37 52 -28 14 -34 14 -61 -5z"
       id="path18"
       style="fill:#ccccff" />
    <path
       d="M1493 2771 c-49 -31 -67 -64 -60 -113 3 -22 12 -47 20 -56 14 -13 19 -12 45 7 36 25 74 27 113 4 28 -16 29 -16 44 2 29 40 22 91 -19 133 -42 43 -97 52 -143 23z"
       id="path20"
       style="fill:#ccccff" />
    <path
       d="M5397 8069 l-53 -54 -88 -265 c-48 -146 -89 -267 -91 -269 -2 -1 -8 0 -13 3 -5 3 3 52 18 113 15 59 30 121 34 136 6 27 4 26 -84 -33 -216 -145 -336 -300 -396 -511 -23 -80 -26 -100 -19 -172 4 -45 8 -117 8 -159 l1 -77 79 55 c43 31 81 53 84 50 11 -11 -90 -96 -179 -148 -101 -61 -166 -118 -134 -118 16 0 17 -2 5 -19 -52 -72 -99 -145 -99 -153 0 -6 25 13 55 40 65 60 124 84 285 118 139 30 279 67 311 84 36 19 69 51 86 85 15 29 15 30 -3 13 -36 -32 -94 -49 -189 -55 -80 -5 -95 -4 -95 9 0 11 24 18 103 27 146 17 167 22 167 36 0 7 9 32 20 56 31 69 27 153 -10 224 -17 32 -29 59 -28 60 2 1 22 9 46 18 75 30 118 64 309 243 302 284 342 312 473 340 71 14 107 10 154 -21 26 -17 31 -39 20 -82 -10 -36 -21 -27 -28 22 -9 59 -30 58 -47 -2 -7 -26 -28 -64 -47 -85 -34 -37 -99 -84 -107 -76 -2 2 18 31 45 64 45 55 83 144 69 159 -5 4 -223 -89 -238 -101 -3 -3 95 -201 105 -213 4 -5 129 97 205 167 73 67 122 141 117 179 -5 45 -66 79 -206 113 -144 35 -182 53 -254 117 -70 62 -205 125 -280 131 l-57 4 -54 -53z m373 -107 c0 -8 -253 -154 -277 -160 -33 -9 13 48 68 84 32 21 57 39 55 41 -2 2 -29 -6 -60 -17 -37 -14 -78 -41 -116 -77 -60 -55 -73 -56 -46 -5 35 66 126 119 226 132 79 10 150 11 150 2z m-760 -800 c0 -9 -200 -122 -214 -122 -16 0 31 62 65 86 53 36 149 59 149 36z"
       id="path22"
       style="stroke:#ff3300;fill:#660099" />
    <path
       d="M5687 7503 c-45 -43 -129 -123 -188 -178 -58 -56 -141 -123 -185 -150 -43 -27 -80 -50 -82 -51 -2 -1 10 -45 27 -98 33 -101 37 -149 21 -205 -5 -19 -8 -36 -6 -38 2 -2 31 3 65 12 58 15 81 14 81 -3 0 -17 -69 -47 -123 -53 -53 -6 -127 -45 -127 -68 0 -4 34 -13 75 -20 41 -7 75 -15 75 -18 0 -3 -7 -11 -15 -17 -26 -18 1 -64 94 -167 113 -123 132 -182 92 -296 -10 -29 -16 -55 -14 -57 2 -2 20 0 39 4 42 10 43 0 3 -34 -36 -31 -45 -32 -84 -7 l-30 18 -61 -62 c-77 -79 -166 -125 -255 -132 -59 -5 -63 -4 -43 10 11 9 33 19 47 22 15 4 27 11 27 17 0 5 -5 6 -10 3 -6 -3 -38 -6 -73 -6 -35 0 -68 -4 -75 -8 -7 -4 -15 -37 -19 -74 -5 -56 -3 -68 11 -73 27 -10 58 3 137 56 80 54 114 61 190 39 50 -16 139 -95 170 -153 13 -25 29 -46 34 -46 6 0 31 20 57 45 47 45 61 76 71 158 7 53 15 57 23 10 5 -36 9 -39 31 -35 51 10 146 176 147 259 1 60 -18 86 -119 157 -87 61 -82 60 -101 24 -15 -29 -18 -31 -24 -13 -5 13 9 53 43 124 47 99 49 105 32 118 -11 7 -25 13 -32 13 -7 0 -13 5 -13 10 0 7 62 10 174 9 107 0 181 3 194 10 21 11 42 59 42 95 0 12 14 64 30 116 34 107 45 177 36 214 -7 29 -55 87 -97 117 l-28 20 -30 -33 -29 -33 31 -13 c64 -27 89 -68 71 -116 -9 -23 -24 -20 -24 5 0 34 -19 58 -63 80 -83 42 -117 90 -117 164 0 55 16 88 64 134 39 38 45 65 20 92 -16 17 -18 17 -51 -8 l-35 -27 4 30 c2 21 11 33 35 44 18 8 33 18 33 22 0 14 -71 118 -80 118 -6 0 -47 -35 -93 -77z m-77 -221 c0 -4 -21 -18 -47 -32 -78 -41 -139 -108 -159 -176 -16 -56 -18 -58 -25 -30 -20 72 32 175 106 213 54 28 125 43 125 25z m2 -109 c12 -10 18 -30 18 -56 0 -26 10 -59 30 -94 17 -29 30 -58 30 -65 0 -30 -125 -88 -187 -88 -37 0 -66 36 -59 74 29 149 37 174 57 169 16 -4 19 0 19 26 0 28 3 31 24 25 16 -4 25 -1 29 10 8 20 16 20 39 -1z m281 -237 c3 -9 15 -12 31 -9 42 8 32 -23 -14 -47 l-40 -20 0 45 c0 43 12 60 23 31z m122 -147 c-8 -112 -18 -135 -62 -149 -46 -16 -85 -5 -180 48 -85 48 -101 68 -60 76 12 3 50 10 83 16 36 7 94 30 140 56 44 24 81 44 83 44 2 0 0 -41 -4 -91z"
       id="path24"
       style="fill:#cc9999" />
    <path
       d="M5501 7006 c-6 -7 -14 -33 -17 -58 l-6 -46 53 10 c52 9 99 31 99 46 0 7 -99 62 -111 62 -4 0 -12 -6 -18 -14z"
       id="path26"
       style="fill:#6600ff" />
    <path
       d="M5834 7166 c-17 -44 20 -91 54 -70 29 19 25 40 -13 63 -29 17 -37 18 -41 7z"
       id="path28"
       style="fill:#6600ff" />
    <path
       d="M6804 6946 c-104 -25 -173 -82 -220 -179 -69 -143 -191 -229 -371 -261 -51 -9 -43 21 10 34 122 30 230 90 257 141 10 18 10 18 -33 0 -103 -44 -255 -47 -353 -6 -40 16 -47 9 -59 -62 -14 -89 -65 -116 -215 -112 -60 2 -94 -2 -104 -10 -17 -14 -86 -136 -86 -151 0 -6 25 -21 55 -35 31 -13 70 -34 87 -46 45 -32 88 -106 88 -151 0 -46 -34 -139 -64 -176 -60 -71 -77 -163 -42 -229 43 -85 0 -207 -99 -279 -41 -30 -29 -46 76 -106 111 -64 172 -82 268 -76 62 4 88 11 139 38 79 42 130 98 211 233 64 105 119 173 176 215 l30 23 -75 -3 c-90 -4 -149 -31 -255 -118 -102 -84 -155 -106 -221 -94 -49 9 -42 20 18 28 67 9 111 28 172 75 28 21 71 49 96 61 25 13 59 35 77 51 63 54 214 63 356 19 77 -24 139 -68 182 -129 40 -58 38 -104 -9 -196 -42 -82 -46 -136 -15 -204 21 -47 84 -131 98 -131 5 0 6 32 3 70 -7 107 9 139 147 284 179 188 216 273 215 486 0 124 -3 143 -32 230 -49 149 -117 239 -230 305 -29 17 -52 34 -52 39 0 15 105 -1 155 -23 25 -11 73 -46 106 -78 l61 -58 -6 45 c-28 177 -113 301 -251 366 -88 42 -173 51 -268 31 -68 -14 -68 -14 -49 6 41 41 244 78 317 58 21 -6 40 -9 42 -7 10 10 -96 59 -164 76 -87 23 -98 23 -169 6z m-1029 -561 c101 -148 286 -252 506 -287 43 -7 76 -15 73 -19 -10 -18 -103 -19 -174 -4 -186 41 -379 181 -438 318 -12 27 -15 47 -9 47 2 0 21 -25 42 -55z m223 -100 c68 -34 181 -53 387 -64 99 -6 207 -18 240 -26 106 -27 237 -98 307 -168 72 -71 141 -188 121 -208 -9 -9 -24 9 -66 72 -67 105 -128 161 -221 205 -87 42 -169 57 -436 84 -113 12 -224 25 -248 31 -93 20 -187 83 -226 149 l-19 33 57 -42 c31 -23 78 -53 104 -66z"
       id="path30"
       style="stroke:#ff3300;fill:#660099" />
    <path
       d="M4885 6589 c-172 -47 -234 -68 -285 -99 -150 -89 -251 -250 -253 -405 -1 -54 3 -79 20 -110 26 -48 68 -90 106 -104 32 -12 30 -17 51 91 8 42 18 88 22 102 6 26 6 26 -57 26 l-64 1 23 19 c36 30 89 36 147 15 27 -9 115 -49 193 -87 196 -95 262 -100 374 -29 52 33 103 110 113 173 9 51 22 48 30 -6 11 -69 -2 -104 -57 -159 -27 -27 -47 -51 -44 -54 8 -8 91 53 121 89 41 48 85 147 92 206 9 82 -31 144 -124 191 -48 24 -56 41 -19 41 l25 0 -20 49 c-18 42 -29 53 -80 80 -33 17 -67 31 -77 30 -9 0 -116 -27 -237 -60z m-117 -289 c23 -10 42 -20 42 -22 0 -2 -51 -3 -112 -3 -79 0 -123 -5 -146 -15 -33 -15 -33 -15 50 -16 64 -1 106 -8 183 -33 55 -18 135 -37 178 -43 79 -11 92 -20 58 -38 -36 -18 -95 -10 -226 31 -145 45 -238 54 -290 26 -31 -16 -80 -64 -107 -105 -10 -15 -18 -19 -23 -12 -12 20 6 67 36 96 17 16 35 39 40 51 10 26 72 69 126 89 55 19 140 17 191 -6z"
       id="path32"
       style="stroke:#ff3300;fill:#660099" />
    <path
       d="M4580 6053 c-11 -43 -60 -404 -90 -663 -21 -192 -34 -240 -104 -377 -76 -153 -96 -237 -107 -463 -17 -352 -35 -564 -50 -595 -18 -38 -99 -78 -197 -99 -86 -18 -149 -51 -217 -112 -52 -48 -47 -46 70 28 55 34 173 83 182 75 1 -2 -31 -25 -72 -51 -68 -43 -125 -100 -112 -112 2 -3 25 9 50 26 67 45 121 61 227 67 102 6 120 14 147 66 31 61 256 799 299 979 24 105 60 230 80 277 79 188 140 396 194 660 21 104 28 156 21 168 -9 17 -277 163 -299 163 -6 0 -16 -17 -22 -37z"
       id="path34"
       style="fill:#cc9999" />
    <path
       d="M5140 5822 c-31 -25 -22 -46 48 -119 88 -92 231 -154 248 -109 3 8 -1 39 -10 69 -18 62 -78 136 -130 161 -47 22 -128 21 -156 -2z"
       id="path36"
       style="fill:#ff3300" />
    <path
       d="M5631 5762 c-22 -33 -56 -69 -74 -81 -33 -20 -87 -87 -87 -107 0 -6 -15 -35 -34 -66 -27 -46 -31 -58 -19 -62 21 -8 23 -8 23 9 0 12 6 14 28 8 15 -4 54 -7 88 -7 65 0 124 27 144 65 10 17 8 17 -25 -2 -46 -27 -99 -39 -133 -30 -25 7 -24 8 22 20 66 16 120 45 138 74 18 27 40 98 33 106 -3 2 -19 -8 -35 -24 -16 -16 -32 -26 -35 -23 -3 3 4 25 15 49 23 52 26 102 6 118 -12 10 -22 1 -55 -47z m7 -154 c-20 -32 -76 -58 -122 -58 -49 0 -43 6 47 46 88 39 93 40 75 12z"
       id="path38"
       style="fill:#ff3300" />
    <path
       d="M5050 5764 c-21 -18 -30 -35 -30 -55 0 -76 181 -191 301 -193 87 -1 93 16 17 44 -87 31 -160 89 -194 154 -38 74 -55 82 -94 50z"
       id="path40"
       style="fill:#ff3300" />
    <path
       d="M4975 5637 c-18 -92 85 -177 225 -185 71 -4 145 10 110 21 -200 61 -189 56 -261 127 l-68 69 -6 -32z"
       id="path42"
       style="fill:#ff3300" />
    <path
       d="M4907 5653 c-3 -5 -35 -109 -72 -232 -36 -123 -84 -269 -105 -325 -38 -96 -125 -425 -116 -434 12 -12 626 440 724 533 64 60 142 153 142 168 0 15 -77 57 -104 57 -16 0 -52 -13 -80 -29 -65 -36 -110 -44 -174 -30 -108 23 -164 93 -184 230 -9 63 -19 82 -31 62z"
       id="path44"
       style="fill:#cc9999" />
    <path
       d="M4347 5509 c-62 -10 -125 -47 -175 -104 -46 -52 -69 -104 -49 -110 20 -6 178 -25 214 -25 40 0 42 15 13 90 -22 55 -25 80 -11 80 5 0 26 -43 46 -95 l37 -95 -30 -32 c-17 -17 -38 -45 -46 -63 -15 -31 -40 -174 -32 -182 2 -2 34 49 70 113 l67 117 5 142 c4 149 2 157 -41 167 -11 2 -41 1 -68 -3z"
       id="path46"
       style="fill:#99ffff" />
    <path
       d="M3722 5240 c-94 -22 -239 -87 -331 -149 -219 -149 -468 -407 -640 -664 -220 -330 -346 -606 -556 -1219 -108 -315 -126 -371 -123 -387 2 -8 28 27 58 78 52 89 75 111 117 111 16 0 16 -18 -3 -132 -8 -52 20 -52 43 0 65 140 188 344 276 457 242 310 516 502 1241 872 219 111 391 205 405 220 22 25 23 33 19 123 -4 95 -4 97 -60 195 -91 162 -110 226 -116 383 l-4 132 -122 -1 c-79 0 -150 -7 -204 -19z"
       id="path48"
       style="fill:#cc99ff" />
    <path
       d="M4102 5244 c-14 -10 -17 -27 -16 -86 2 -106 28 -209 83 -323 75 -155 75 -155 96 -46 12 62 16 112 12 154 -8 79 6 177 32 228 32 61 29 69 -31 70 -29 0 -77 4 -106 8 -37 5 -58 4 -70 -5z"
       id="path50"
       style="fill:#99ffff" />
    <path
       d="M5310 5109 c-30 -28 -77 -65 -105 -84 -104 -69 -115 -105 -92 -291 9 -71 29 -245 44 -386 l28 -258 75 -1 c41 -1 113 -1 161 1 47 1 105 -3 129 -10 24 -6 59 -9 78 -5 l35 6 -20 21 c-15 14 -41 22 -94 28 -41 5 -114 23 -163 41 -130 47 -127 32 -90 389 8 80 31 245 50 368 18 123 34 225 34 228 0 12 -20 -2 -70 -47z"
       id="path52"
       style="fill:#cc9999" />
    <path
       d="M5028 4886 c-14 -19 -16 -37 -11 -99 7 -94 -11 -151 -71 -215 -55 -60 -120 -91 -219 -103 -196 -25 -178 -18 -198 -74 -15 -42 -122 -379 -144 -454 -7 -23 -6 -23 31 -17 55 10 328 70 543 118 l184 42 -7 93 c-3 52 -20 207 -36 346 -16 138 -32 282 -36 320 -3 37 -9 67 -13 67 -3 0 -14 -11 -23 -24z"
       id="path54"
       style="fill:#99ccff" />
    <path
       d="M4938 4827 l-27 -12 34 -37 35 -38 0 34 c0 19 3 41 6 50 7 19 -10 20 -48 3z"
       id="path56"
       style="fill:#99ffff" />
    <path
       d="M4850 4772 c-29 -13 -100 -65 -100 -73 0 -4 23 -36 50 -70 28 -34 50 -66 50 -71 0 -15 57 23 78 51 10 14 24 41 32 59 13 32 12 34 -26 73 -37 38 -54 44 -84 31z"
       id="path58"
       style="fill:#99ffff" />
    <path
       d="M4658 4648 c-37 -21 -88 -99 -88 -133 0 -16 9 -17 103 -11 56 4 105 10 108 14 23 24 17 52 -18 100 -21 29 -45 52 -53 52 -8 0 -32 -10 -52 -22z"
       id="path60"
       style="fill:#99ffff" />
    <path
       d="M5095 4043 c-124 -26 -414 -92 -548 -124 -143 -35 -170 -44 -185 -66 -65 -94 -117 -123 -221 -123 -70 0 -123 -15 -172 -47 -27 -18 -118 -51 -146 -53 -1 0 2 14 7 30 5 17 7 30 5 30 -3 0 -77 -43 -165 -95 -187 -111 -256 -146 -365 -190 -116 -46 -112 -37 -122 -378 l-8 -278 -62 -57 c-65 -60 -83 -87 -83 -123 0 -36 -37 -84 -85 -109 -64 -33 -74 -48 -103 -157 -21 -79 -26 -120 -26 -213 1 -103 4 -128 36 -234 20 -65 41 -123 47 -129 5 -5 36 -9 68 -8 72 2 138 -29 170 -79 61 -96 77 -105 196 -112 l77 -5 0 39 c0 65 -36 90 -164 115 -131 26 -186 56 -215 116 -36 74 -28 122 35 214 24 35 25 44 20 108 -9 102 7 114 34 28 26 -80 23 -104 -19 -157 -56 -71 -64 -144 -20 -200 31 -39 65 -53 189 -77 82 -16 120 -29 141 -46 28 -24 49 -76 49 -123 0 -14 16 -50 35 -80 19 -30 46 -92 60 -138 22 -69 33 -90 67 -120 89 -81 96 -91 108 -150 21 -107 23 -108 135 -128 39 -7 85 -16 104 -20 32 -7 33 -6 22 14 -6 12 -36 39 -65 61 -71 52 -91 95 -89 188 1 49 -2 75 -12 83 -10 9 -17 1 -31 -35 l-17 -46 -24 23 c-40 37 -46 55 -28 82 15 22 14 27 -7 67 -17 33 -22 58 -21 97 5 89 5 110 3 158 -1 31 6 62 24 98 14 29 26 58 26 65 0 6 -20 33 -44 59 -72 78 -80 108 -49 201 13 42 14 58 4 90 -13 44 -2 87 24 97 31 12 89 -8 120 -40 16 -18 50 -69 75 -114 25 -45 48 -82 52 -82 4 0 14 -13 23 -30 14 -27 21 -30 61 -30 39 0 131 18 182 35 8 3 -1 26 -29 72 -63 102 -80 147 -99 261 -20 113 -15 159 22 199 20 21 20 23 3 90 -27 109 -29 139 -10 186 20 51 38 72 87 103 65 41 70 58 57 165 l-11 93 29 23 c21 17 38 23 68 21 37 -3 41 -6 52 -40 23 -70 53 -240 53 -298 0 -62 9 -76 68 -101 17 -8 32 -16 32 -19 0 -46 -36 -173 -60 -210 -40 -62 -60 -113 -60 -152 0 -42 42 -106 75 -114 14 -3 25 -13 25 -22 0 -23 -82 -141 -98 -142 -34 0 -53 -117 -28 -175 l12 -30 41 70 c23 39 55 84 73 100 32 31 46 33 164 23 26 -3 31 1 39 28 7 25 3 44 -22 102 -38 87 -40 147 -7 217 13 28 38 64 57 79 19 16 64 56 101 90 37 33 81 72 98 85 18 14 46 46 62 73 18 29 36 47 43 44 20 -7 25 19 15 76 -9 47 -8 55 19 102 31 56 59 76 107 76 43 0 58 -20 38 -48 -29 -41 -54 -134 -54 -199 0 -37 17 -141 40 -248 22 -102 40 -196 40 -209 0 -47 18 -36 85 52 l67 87 -8 50 c-4 28 -7 86 -8 130 0 86 13 123 77 213 49 67 56 58 59 -74 l3 -116 32 44 c18 23 44 57 58 74 19 23 29 53 40 118 19 121 17 118 189 241 81 58 106 69 106 46 0 -4 -49 -46 -108 -94 -60 -48 -114 -97 -120 -110 -6 -12 -18 -53 -26 -92 -8 -38 -33 -113 -56 -165 -60 -134 -79 -190 -80 -227 0 -51 13 -39 38 35 36 100 118 305 146 360 13 26 43 71 65 99 44 56 237 206 253 197 5 -4 -42 -59 -104 -123 -63 -64 -131 -136 -150 -161 -36 -45 -98 -163 -98 -187 0 -7 -41 -115 -90 -239 l-91 -226 55 -58 c96 -100 109 -223 35 -329 -20 -28 -32 -61 -36 -93 l-6 -50 89 66 c92 70 119 90 167 126 34 27 36 68 6 136 -20 43 -21 53 -10 93 16 60 47 108 80 125 24 13 136 42 362 95 56 13 96 17 115 12 34 -9 24 -13 -69 -31 -75 -15 -72 -30 6 -30 68 0 57 -23 -14 -31 -126 -14 -237 -77 -316 -181 -48 -61 -51 -78 -24 -116 36 -52 61 -111 50 -118 -6 -3 -16 -1 -22 5 -15 15 -27 14 -27 -3 0 -7 -16 -45 -35 -83 -42 -84 -108 -149 -196 -194 -35 -17 -97 -54 -137 -81 -75 -51 -140 -83 -149 -74 -3 2 10 23 28 46 31 39 32 41 15 58 -16 16 -19 15 -47 -16 -16 -18 -29 -41 -29 -51 0 -55 -116 -131 -201 -131 -25 0 -74 -3 -109 -7 l-63 -6 54 -28 c30 -15 62 -28 71 -29 10 0 129 40 266 90 136 49 258 90 271 90 13 0 71 14 130 30 185 53 283 97 344 153 27 25 50 36 85 41 226 32 282 59 282 136 0 81 -58 279 -111 378 -47 90 -49 94 -34 122 26 51 20 101 -20 148 l-35 41 97 94 c54 51 115 109 137 128 65 59 54 85 -107 256 -74 78 -138 124 -206 148 -64 22 -96 50 -121 101 -21 46 -21 48 -5 92 12 29 14 46 7 51 -6 3 31 65 90 146 55 77 120 174 146 215 l47 75 3 104 c4 98 3 103 -15 96 -49 -21 -170 -17 -302 9 -74 15 -136 25 -138 23 -2 -2 17 -12 42 -21 25 -10 45 -24 45 -31 0 -12 -8 -12 -47 0 -27 8 -69 15 -94 15 -38 0 -50 -5 -75 -31 -47 -49 -80 -64 -254 -112 -202 -57 -235 -64 -328 -72 -164 -14 -448 -102 -602 -188 -247 -136 -813 -498 -880 -562 -52 -49 -334 -263 -465 -352 -33 -23 -76 -44 -95 -47 -31 -6 -33 -5 -16 6 10 7 62 41 114 76 53 35 177 128 277 206 100 79 201 156 226 171 24 15 78 56 119 90 91 76 351 248 515 341 148 83 308 160 440 209 55 20 104 40 108 44 4 5 -15 11 -44 14 -28 4 -57 11 -65 18 -10 8 -27 5 -71 -11 -140 -54 -341 -89 -331 -59 3 9 58 25 153 46 82 18 166 41 187 52 31 15 46 17 83 9 24 -5 82 -8 127 -5 96 4 349 56 426 86 29 12 68 21 87 21 19 0 66 5 104 12 52 9 76 9 94 1 21 -10 28 -8 48 13 l24 25 -90 -7 c-50 -3 -120 -10 -158 -13 -58 -6 -102 0 -87 12 3 2 74 14 158 28 l154 24 -344 1 c-189 1 -352 0 -363 -3z m1085 -123 c0 -25 -68 -41 -360 -85 -226 -33 -320 -56 -515 -122 -200 -69 -345 -138 -600 -287 -110 -64 -254 -143 -320 -175 -66 -33 -209 -102 -319 -155 -209 -101 -285 -148 -588 -359 l-187 -130 23 -18 c31 -25 60 -92 52 -123 -8 -34 -49 -59 -100 -62 -56 -2 -53 0 -64 -32 -10 -29 -1 -58 22 -75 13 -9 76 1 94 15 21 18 26 0 8 -27 -34 -52 -108 -56 -146 -8 -11 14 -20 34 -20 45 0 18 -2 18 -31 -6 -17 -14 -36 -26 -42 -26 -19 0 -44 21 -31 26 6 2 39 23 75 47 69 46 80 67 58 119 -10 24 -17 29 -36 25 -56 -11 -14 27 192 173 88 63 204 147 258 188 174 131 284 193 592 332 162 73 239 114 407 216 141 86 276 158 411 220 271 125 430 172 712 214 121 18 261 43 310 55 100 25 145 30 145 15z m-2075 -269 c7 -12 -142 -124 -155 -116 -19 12 -9 24 62 74 75 53 83 57 93 42z m-211 -147 c-101 -42 -399 -153 -401 -150 -6 6 88 63 142 87 75 33 196 68 235 68 19 0 30 -3 24 -5z m2136 -164 c0 -5 -3 -10 -7 -10 -5 0 -66 -7 -137 -15 -113 -13 -134 -18 -176 -45 -113 -72 -168 -212 -126 -315 19 -44 5 -45 -26 -2 -34 47 -32 144 5 212 72 134 167 184 355 185 68 0 112 -4 112 -10z m-2970 -864 c0 -15 -33 -106 -38 -106 -27 1 -32 18 -17 59 19 56 23 61 40 54 8 -3 15 -6 15 -7z m-77 -126 c69 -60 70 -117 1 -146 -30 -13 -38 -13 -65 1 -36 19 -54 54 -45 88 7 28 52 87 67 87 4 0 24 -13 42 -30z m351 -164 c35 -14 69 -55 79 -93 8 -34 -5 -28 -45 21 -20 24 -46 46 -57 49 -26 6 -26 2 -1 -23 12 -12 20 -33 20 -55 0 -44 -10 -44 -30 -2 -11 23 -23 33 -42 35 -16 2 -28 -1 -28 -7 0 -6 3 -11 8 -11 16 -1 44 -29 38 -39 -9 -14 -74 26 -81 50 -8 26 9 46 45 54 16 3 34 13 41 21 14 17 12 17 53 0z m274 -242 c14 -40 9 -141 -7 -157 -5 -5 -11 25 -15 65 -4 40 -10 88 -13 107 -8 48 18 37 35 -15z m49 -221 c7 -19 11 -49 8 -70 -3 -21 -7 -54 -9 -73 -2 -19 -9 -36 -16 -38 -10 -4 -12 8 -7 54 5 52 -1 107 -20 169 -5 18 -4 19 12 5 10 -8 24 -30 32 -47z"
       id="path62"
       style="fill:#666633" />
    <path
       d="M4276 3117 c-17 -12 -17 -16 4 -77 31 -92 53 -235 46 -300 -11 -103 -71 -285 -123 -378 l-24 -42 21 -46 c11 -26 20 -53 20 -61 0 -19 100 -333 105 -333 3 0 2 19 -1 43 -9 65 11 120 66 184 50 56 50 57 31 77 -33 37 -54 89 -58 151 -5 58 -2 65 61 193 36 73 66 137 66 142 0 6 -20 19 -44 31 -52 24 -55 30 -67 129 -5 41 -18 125 -30 187 -22 119 -31 131 -73 100z"
       id="path64"
       style="fill:#669900" />
    <path
       d="M5132 2973 c-7 -3 -24 -27 -37 -53 -20 -40 -23 -54 -15 -75 16 -41 12 -66 -16 -107 -29 -41 -29 -46 1 -159 17 -65 17 -67 -4 -114 -21 -47 -21 -47 -46 -31 -24 16 -26 16 -50 -8 -22 -22 -25 -34 -25 -93 0 -96 -15 -174 -45 -242 -25 -55 -31 -60 -82 -80 -68 -26 -80 -26 -145 -1 -83 31 -111 27 -161 -23 -64 -63 -73 -105 -69 -321 3 -207 0 -216 -73 -216 -58 0 -69 -15 -60 -90 l7 -60 41 35 c29 25 50 35 75 35 19 0 62 13 96 29 55 26 74 30 187 34 91 3 136 1 165 -9 21 -8 59 -14 83 -14 44 0 44 0 26 -20 -10 -11 -15 -23 -11 -27 9 -9 273 27 312 42 17 7 49 34 70 61 43 54 81 91 142 145 41 35 42 37 42 100 1 88 12 131 54 199 20 32 36 71 36 87 0 34 -45 131 -94 205 -20 29 -36 61 -36 70 0 10 -7 18 -15 18 -21 0 -19 -45 6 -122 11 -34 23 -102 26 -150 5 -76 2 -98 -22 -175 -15 -48 -32 -92 -37 -98 -8 -7 -9 -4 -4 10 20 55 36 147 36 206 0 70 -28 197 -55 249 l-16 31 -32 -18 c-45 -27 -47 -70 -8 -163 61 -142 36 -242 -79 -320 -56 -38 -64 -49 -72 -105 -6 -38 -23 -20 -26 28 -3 42 0 51 26 75 16 15 44 36 63 47 79 48 93 144 40 277 -44 108 -41 143 19 212 41 47 21 46 -38 -1 -64 -51 -72 -62 -72 -102 0 -49 -40 -131 -92 -186 -23 -26 -98 -89 -165 -141 -84 -65 -120 -99 -117 -109 7 -17 -14 -32 206 138 154 117 189 140 187 120 0 -5 -38 -42 -84 -82 -47 -41 -83 -76 -82 -78 2 -1 30 9 63 22 93 39 123 31 39 -10 -71 -34 -154 -97 -284 -214 -97 -87 -92 -52 8 52 25 26 40 47 33 47 -7 0 -75 -47 -152 -104 -77 -57 -140 -101 -140 -98 0 14 134 220 213 329 157 216 184 260 210 345 39 122 48 219 45 468 -3 212 -2 227 18 268 20 40 17 48 -14 35z m194 -1422 c-22 -22 -60 -49 -86 -60 -49 -21 -130 -38 -130 -27 0 7 230 125 245 125 5 1 -8 -17 -29 -38z"
       id="path66"
       style="fill:#669900" />
    <path
       d="M4251 2868 c-12 -16 -41 -38 -62 -49 -76 -38 -96 -110 -60 -211 37 -101 36 -112 -5 -153 l-37 -37 6 -72 c3 -39 13 -96 24 -126 19 -57 123 -253 130 -246 2 2 -12 46 -32 97 -20 52 -41 119 -46 149 -6 30 -12 70 -16 87 -4 24 2 44 20 75 29 50 91 234 112 334 29 139 14 211 -34 152z"
       id="path68"
       style="fill:#669900" />
    <path
       d="M2108 2717 c-13 -14 -43 -71 -67 -128 -41 -96 -44 -109 -42 -186 1 -55 -3 -94 -13 -115 -8 -18 -22 -60 -31 -93 -21 -80 -62 -183 -85 -215 -10 -14 -27 -50 -38 -80 -19 -56 -237 -402 -339 -540 -82 -111 -275 -297 -384 -369 -123 -83 -209 -126 -354 -177 l-120 -42 44 -12 c67 -18 140 -15 198 9 84 33 253 121 318 164 318 213 651 660 773 1037 52 158 182 753 168 767 -3 3 -15 -6 -28 -20z"
       id="path70"
       style="stroke:#cc66ff;fill:#cc66cc" />
    <path
       d="M2236 2662 c-16 -26 -36 -213 -36 -337 -1 -252 -40 -430 -133 -601 -24 -45 -52 -101 -61 -125 -73 -184 -231 -400 -406 -554 l-55 -48 48 5 c73 8 184 68 264 142 160 148 292 406 350 685 24 114 27 154 32 426 6 271 7 291 16 210 6 -49 10 -187 9 -305 -1 -241 -13 -320 -79 -525 -64 -193 -135 -326 -249 -460 l-51 -59 39 22 c21 13 58 39 82 59 50 40 184 195 184 211 0 6 9 28 19 49 11 21 39 109 62 196 40 147 59 190 59 133 0 -31 15 -42 25 -18 17 39 17 287 1 402 -22 149 -24 154 -42 139 -9 -7 -18 -8 -23 -3 -4 5 -14 86 -20 179 -12 158 -20 201 -35 177z"
       id="path72"
       style="stroke:#cc66ff;fill:#cc66cc" />
    <path
       d="M4965 2630 c-16 -17 -33 -30 -38 -30 -5 0 -52 -40 -104 -90 -135 -126 -158 -190 -113 -317 11 -32 20 -75 21 -98 1 -69 6 -75 61 -58 39 11 51 20 68 52 25 50 43 163 35 224 -11 79 42 167 102 167 12 0 25 -4 28 -10 12 -19 25 -10 25 18 0 24 -41 156 -52 167 -2 3 -17 -9 -33 -25z"
       id="path74"
       style="fill:#669900" />
    <path
       d="M1867 2328 c-14 -24 -62 -108 -107 -188 -260 -457 -529 -751 -929 -1019 -219 -146 -345 -197 -468 -189 -35 2 -63 1 -63 -3 0 -11 69 -21 149 -20 211 1 508 147 740 363 145 136 319 357 404 514 29 54 70 122 91 149 53 68 230 435 211 435 -2 0 -15 -19 -28 -42z"
       id="path76"
       style="fill:#cc66cc" />
    <path
       d="M1915 2308 c-100 -223 -212 -434 -285 -536 -19 -27 -59 -85 -89 -128 -193 -281 -329 -424 -546 -569 -175 -118 -333 -184 -488 -206 -48 -7 -87 -15 -87 -19 0 -4 18 -15 40 -25 83 -37 261 0 455 94 269 132 434 286 650 606 37 55 78 120 91 145 13 25 46 79 73 121 27 42 54 93 60 114 5 20 16 45 24 54 16 18 56 110 98 224 26 71 49 187 37 187 -3 0 -18 -28 -33 -62z"
       id="path78"
       style="fill:#cc99ff" />
    <path
       d="M2065 2183 c-90 -351 -251 -673 -458 -920 -133 -158 -309 -308 -499 -425 -54 -33 -98 -61 -98 -63 0 -12 162 44 246 85 230 113 454 309 570 500 21 36 44 70 51 75 21 18 101 188 133 282 46 139 100 431 100 544 0 58 -17 27 -45 -78z"
       id="path80"
       style="fill:#cc99ff;stroke:#cc66ff" />
    <path
       d="M6004 2246 c-151 -53 -180 -83 -153 -159 8 -23 19 -41 24 -39 16 5 226 215 223 223 -2 4 -44 -8 -94 -25z"
       id="path82"
       style="fill:#66cc33" />
    <path
       d="M3693 2164 c-3 -9 -1 -25 5 -35 17 -26 15 -64 -4 -101 -42 -82 -39 -102 28 -176 22 -24 46 -59 54 -78 14 -34 14 -37 -17 -90 -31 -55 -31 -57 -19 -113 10 -50 10 -62 -4 -89 -32 -62 -23 -86 64 -173 l81 -79 -7 -65 c-8 -78 2 -96 80 -154 62 -46 86 -90 86 -160 0 -58 -12 -65 -39 -20 -29 48 -55 60 -139 66 -121 9 -131 17 -167 146 -13 48 -27 69 -79 122 -56 55 -67 74 -91 144 -48 145 -82 174 -223 190 -96 10 -118 22 -171 94 -67 91 -133 117 -206 79 l-39 -20 52 -52 c60 -60 66 -78 59 -166 -12 -160 48 -238 208 -269 85 -16 134 -46 160 -95 8 -16 24 -69 36 -118 39 -173 60 -186 284 -187 148 0 163 -2 196 -22 20 -13 43 -23 52 -23 8 0 76 -36 150 -80 124 -75 136 -80 161 -69 14 7 26 16 26 21 0 5 -18 40 -40 76 -36 62 -39 71 -33 122 4 45 0 72 -26 148 -17 51 -31 104 -31 117 0 13 15 42 33 64 17 22 54 67 80 100 l48 61 -18 27 c-28 42 -22 153 15 309 40 163 41 202 6 243 -43 52 -88 58 -209 31 l-104 -23 -42 21 c-49 25 -59 21 -59 -18 0 -39 -12 -44 -46 -18 -64 48 -94 82 -94 108 0 39 26 70 61 70 22 0 29 5 29 19 0 27 -40 82 -79 108 -40 27 -59 29 -68 7z m388 -494 c69 -35 97 -78 79 -125 -14 -37 -100 -184 -112 -191 -14 -9 -92 82 -124 146 -21 40 -28 70 -28 112 -1 106 54 123 185 58z m-1029 -27 c27 -24 48 -67 48 -98 0 -47 -31 -27 -59 38 -12 27 -27 47 -36 47 -12 0 -14 -4 -5 -19 12 -24 13 -31 1 -31 -17 0 -53 60 -47 77 8 20 70 12 98 -14z m180 -251 c31 -20 58 -54 83 -101 l17 -34 -49 7 c-26 4 -67 9 -91 13 -24 3 -49 12 -57 20 -21 20 -30 80 -15 98 17 20 79 19 112 -3z m174 -250 c24 -55 20 -62 -29 -43 -56 21 -76 74 -34 91 33 13 38 9 63 -48z m632 -2 c18 -11 37 -32 42 -46 13 -32 13 -134 1 -134 -12 0 -31 56 -31 90 0 33 -32 76 -48 66 -19 -11 -14 -40 13 -80 29 -43 30 -46 11 -46 -8 0 -28 16 -46 37 -27 30 -31 42 -27 70 6 38 23 63 41 63 6 0 26 -9 44 -20z m-405 -111 c33 -35 34 -64 7 -153 -22 -70 -38 -90 -47 -58 -3 12 -16 22 -33 26 -20 4 -36 18 -53 48 -51 88 -42 147 26 167 43 12 67 5 100 -30z"
       id="path84"
       style="fill:#66ff00" />
    <path
       d="M3514 1005 c-13 -32 8 -89 44 -124 l37 -34 12 54 c14 62 8 95 -17 109 -28 15 -70 12 -76 -5z"
       id="path86"
       style="fill:#666633" />
    <path
       d="M5890 1963 c0 -34 -5 -46 -32 -67 -18 -14 -42 -34 -53 -45 -11 -10 -66 -52 -122 -95 -84 -63 -104 -82 -112 -112 -6 -20 -20 -47 -31 -59 -34 -36 -7 -39 52 -6 29 16 77 36 106 46 60 19 143 90 191 162 26 39 31 56 31 107 -1 34 -7 72 -15 86 -14 25 -14 25 -15 -17z"
       id="path88"
       style="fill:#66cc33" />
    <path
       d="M6201 1606 c-24 -24 -66 -47 -151 -80 -66 -25 -124 -46 -129 -46 -6 0 -11 -6 -11 -14 0 -21 152 15 253 60 102 45 107 50 107 85 0 40 -27 38 -69 -5z"
       id="path90"
       style="fill:#666633" />
    <path
       d="M6445 1618 c-33 -18 -35 -30 -14 -69 12 -19 19 -46 17 -59 -3 -21 -7 -18 -38 28 -19 28 -37 52 -41 52 -11 0 -89 -62 -89 -72 0 -6 12 -8 30 -5 55 12 40 -11 -36 -53 -69 -38 -234 -180 -234 -201 0 -5 37 18 83 51 94 67 130 66 51 -2 -77 -67 -205 -191 -215 -210 -8 -15 -6 -15 19 -2 16 7 37 23 47 34 21 23 101 54 165 65 25 4 57 14 72 21 27 14 31 22 43 99 11 64 32 95 82 117 24 11 47 18 49 15 3 -3 -13 -19 -36 -37 -51 -40 -62 -60 -66 -123 -5 -65 -21 -88 -88 -126 -64 -35 -86 -64 -93 -119 -5 -39 -7 -40 -89 -76 -93 -41 -94 -41 -94 -23 0 6 34 27 75 46 65 29 75 37 75 60 1 14 7 37 15 51 34 59 0 54 -103 -15 -76 -51 -82 -58 -82 -90 0 -18 4 -45 10 -60 8 -21 13 -24 28 -16 10 5 49 17 86 25 90 21 122 41 145 92 18 38 72 94 90 94 21 0 61 51 61 78 0 72 29 131 100 202 57 56 70 75 70 100 0 41 -24 86 -50 93 -17 4 -20 11 -15 26 7 23 -1 26 -30 9z"
       id="path92"
       style="fill:#66cc33" />
    <path
       d="M6796 1512 c-10 -12 -37 -23 -59 -27 -79 -12 -136 -36 -157 -65 -11 -15 -20 -31 -20 -34 0 -3 42 -7 93 -8 l92 -3 9 -62 c8 -55 6 -65 -14 -100 -13 -21 -47 -61 -77 -89 -39 -37 -53 -57 -53 -78 0 -17 -4 -25 -11 -20 -20 12 -1 76 32 111 18 18 30 35 27 38 -3 3 -37 9 -75 12 -77 6 -79 5 -106 -67 l-17 -44 27 -23 c26 -20 26 -22 7 -23 -57 -1 -130 -33 -171 -76 -24 -24 -43 -49 -43 -54 0 -6 37 -10 88 -10 66 0 103 6 154 24 85 29 96 38 126 106 13 30 48 81 78 112 30 31 55 65 56 75 0 10 2 46 2 79 1 53 6 68 34 107 36 51 40 85 14 117 -17 22 -17 22 -36 2z"
       id="path94"
       style="fill:#66cc00" />
    <path
       d="M5915 1410 c-167 -44 -278 -87 -498 -192 -70 -34 -130 -58 -134 -54 -5 4 1 14 12 22 45 34 220 127 315 168 55 24 104 46 107 50 15 15 -53 4 -115 -18 -169 -61 -363 -136 -402 -156 -19 -9 -15 -75 6 -107 18 -29 36 -29 159 1 55 13 141 31 190 40 203 37 326 95 453 213 81 75 74 77 -93 33z"
       id="path96"
       style="fill:#666633" />
    <path
       d="M4665 1391 c-82 -5 -109 -12 -150 -34 -27 -15 -62 -27 -77 -27 -28 0 -98 -52 -98 -73 0 -6 -23 -32 -51 -58 l-52 -48 5 -73 6 -73 -21 48 c-11 26 -24 47 -27 47 -8 0 -30 -46 -30 -64 0 -7 39 -73 86 -147 48 -74 113 -182 146 -241 43 -78 72 -118 108 -148 l50 -42 52 12 c29 6 78 18 108 25 30 7 80 19 110 26 70 15 260 92 370 150 83 43 85 45 84 79 -2 74 -44 265 -64 290 -31 37 -60 102 -60 132 0 38 -18 74 -44 86 -11 6 -51 24 -88 40 -37 17 -89 45 -115 63 -53 37 -85 41 -248 30z m19 -227 c-9 -76 -19 -146 -22 -154 -12 -32 -21 116 -11 173 10 55 38 131 46 123 2 -2 -4 -66 -13 -142z m-170 50 c9 -68 7 -144 -3 -144 -16 0 -31 61 -31 126 0 47 4 64 14 64 8 0 16 -17 20 -46z m436 36 c0 -10 -138 -282 -167 -328 -8 -12 -18 -20 -23 -17 -11 7 31 130 71 205 54 101 119 177 119 140z m158 -233 c-2 -7 -41 -46 -88 -87 -47 -40 -97 -85 -112 -99 -17 -15 -28 -19 -28 -12 0 19 196 211 215 211 9 0 15 -6 13 -13z m58 -232 c2 -5 -53 -47 -122 -93 -94 -62 -129 -81 -138 -72 -8 8 -6 15 10 28 12 9 42 34 67 55 54 45 147 98 166 94 8 -1 16 -6 17 -12z"
       id="path98"
       style="fill:#9999ff" />
    <path
       d="M6005 1323 c-117 -107 -293 -175 -589 -228 -77 -13 -140 -26 -141 -27 -4 -4 21 -167 26 -171 3 -3 536 29 547 32 1 1 2 16 2 35 0 30 3 33 24 29 20 -4 24 0 29 35 4 23 39 92 86 170 82 135 97 167 84 175 -4 3 -35 -20 -68 -50z"
       id="path100"
       style="fill:#663333" />
    <path
       d="M6471 1324 c-29 -33 -47 -67 -61 -115 -18 -59 -30 -78 -88 -138 -37 -38 -78 -84 -92 -102 -13 -17 -39 -41 -57 -52 -45 -26 -37 -31 18 -12 50 18 102 64 119 106 8 18 22 30 40 34 58 13 100 86 100 179 l1 51 20 -24 c11 -13 21 -22 22 -20 9 12 33 139 26 139 -4 0 -26 -21 -48 -46z"
       id="path102"
       style="fill:#66cc33" />
    <path
       d="M6605 1341 c-27 -12 -42 -30 -50 -63 -7 -26 -3 -29 59 -60 l66 -32 29 28 c25 24 28 33 24 69 -3 23 -9 45 -12 49 -11 12 -94 19 -116 9z"
       id="path104"
       style="fill:#66cc33" />
    <path
       d="M2820 1287 c-85 -25 -132 -51 -205 -112 -28 -23 -74 -53 -103 -65 -34 -15 -58 -33 -67 -51 -25 -47 -17 -79 11 -42 7 10 16 15 20 10 4 -4 -10 -44 -31 -90 -55 -120 -85 -204 -95 -269 -5 -32 -18 -70 -29 -84 -27 -35 -28 -95 -2 -111 18 -11 20 -7 31 54 16 92 32 134 79 206 22 35 41 73 41 84 0 12 6 28 13 35 37 37 151 183 191 247 43 66 53 75 111 102 36 16 96 34 135 41 74 13 86 26 48 52 -30 21 -58 19 -148 -7z"
       id="path106"
       style="fill:#666600" />
    <path
       d="M2879 1196 c-48 -12 -98 -30 -112 -39 -14 -9 -46 -48 -71 -87 -25 -39 -77 -109 -116 -157 -38 -48 -70 -91 -70 -96 0 -5 -23 -57 -51 -115 -72 -151 -81 -176 -77 -214 3 -28 7 -33 31 -36 16 -2 36 3 45 11 10 8 64 22 122 32 58 10 108 19 113 22 4 2 -20 30 -52 61 -75 72 -81 95 -47 171 14 32 26 74 26 92 0 45 58 132 97 146 15 6 51 18 78 28 102 36 183 56 287 69 59 8 115 19 125 25 17 10 17 10 -3 11 -40 0 -112 32 -152 66 -47 40 -58 40 -173 10z"
       id="path108"
       style="fill:#666600" />
    <path
       d="M7047 1153 c17 -43 13 -102 -11 -138 -16 -24 -83 -65 -106 -65 -20 0 -5 23 26 40 37 21 64 67 67 115 2 37 0 39 -38 50 -90 26 -102 26 -136 -3 l-33 -27 68 -20 c37 -11 68 -25 69 -30 1 -6 -31 -8 -78 -6 -70 2 -84 0 -105 -18 l-25 -21 27 -22 c15 -13 37 -30 49 -39 13 -9 19 -20 15 -27 -5 -9 -13 -8 -29 3 -33 23 -84 19 -112 -10 -32 -31 -31 -39 5 -85 38 -48 38 -65 -2 -91 -42 -26 -99 -21 -170 14 -48 24 -54 25 -80 11 -35 -18 -35 -27 0 -54 24 -20 34 -21 92 -15 36 4 99 8 140 9 72 1 75 2 78 26 5 36 29 59 71 66 53 10 69 20 154 103 92 89 109 118 109 181 0 68 -9 90 -37 90 -24 0 -24 0 -8 -37z"
       id="path110"
       style="fill:#66cc00" />
    <path
       d="M3150 1058 c-47 -11 -141 -32 -210 -48 -228 -52 -221 -50 -256 -102 -22 -33 -33 -63 -38 -106 -4 -38 -15 -70 -28 -87 -29 -37 -20 -51 97 -156 88 -79 104 -89 130 -85 17 3 75 8 130 12 81 5 108 3 139 -10 21 -9 42 -13 48 -10 5 3 30 38 55 78 48 75 139 176 159 176 7 0 22 14 35 31 l21 30 -25 47 c-14 26 -37 86 -51 133 -14 48 -32 92 -40 98 -24 20 -78 20 -166 -1z m-339 -498 c43 -34 79 -63 79 -66 0 -8 -55 9 -102 32 -28 14 -54 36 -63 54 -30 59 -13 55 86 -20z"
       id="path112"
       style="fill:#663300" />
    <path
       d="M5888 890 c-1 -27 -2 -58 -2 -67 -1 -27 32 -28 44 -1 9 18 7 33 -10 71 -11 26 -23 47 -25 47 -3 0 -6 -22 -7 -50z"
       id="path114"
       style="fill:#663333" />
    <path
       d="M5565 871 c-250 -15 -260 -17 -257 -36 2 -11 8 -25 14 -32 5 -7 7 -16 4 -22 -3 -5 -2 -20 3 -34 8 -21 4 -29 -27 -59 -56 -52 -109 -82 -210 -119 -50 -19 -92 -37 -92 -41 0 -4 17 -8 38 -10 23 -2 -54 -19 -208 -47 -135 -24 -252 -50 -261 -57 -31 -28 -153 -5 -224 42 -26 17 -26 18 -7 25 25 9 81 -5 145 -38 57 -28 73 -23 31 9 -16 12 -52 44 -80 70 -45 42 -55 47 -83 42 -17 -4 -31 -10 -31 -15 0 -5 -6 -9 -14 -9 -7 0 -25 -9 -39 -20 -14 -11 -32 -20 -41 -20 -8 0 -29 -8 -46 -19 -42 -25 -240 -212 -240 -226 0 -41 257 -53 746 -36 298 10 301 10 384 40 45 17 144 42 219 56 158 30 226 58 275 112 22 25 51 44 78 52 24 7 132 48 240 91 245 98 328 115 421 89 31 -8 38 -14 35 -32 -2 -14 6 -30 21 -43 34 -29 22 -50 -45 -81 -47 -21 -78 -27 -192 -33 -207 -13 -474 -71 -545 -119 -33 -23 -75 -36 -197 -61 -85 -17 -157 -33 -159 -35 -31 -31 461 4 644 46 28 6 55 15 60 19 19 13 134 33 162 27 54 -10 419 73 586 134 44 15 113 47 154 69 62 33 89 42 149 47 41 3 74 10 74 15 0 4 -14 21 -32 36 -35 32 -35 60 2 99 27 30 26 33 -18 33 -30 0 -55 -12 -116 -54 -92 -64 -147 -80 -266 -80 -97 1 -155 19 -207 64 -19 17 -64 46 -101 65 -37 18 -80 43 -97 54 -56 38 -193 22 -252 -29 -36 -32 -73 -39 -92 -16 -6 7 -14 34 -17 60 -4 25 -12 45 -18 45 -6 -1 -128 -9 -271 -18z m35 -110 c47 -25 48 -44 5 -71 -37 -23 -117 -30 -165 -15 -28 9 -25 41 6 70 41 38 102 44 154 16z m-109 -238 c39 -9 68 -21 66 -27 -2 -6 -24 -24 -49 -39 -73 -45 -321 -76 -334 -42 -19 49 105 123 210 124 21 1 69 -7 107 -16z"
       id="path116"
       style="fill:#666666" />
    <path
       d="M5274 481 c-70 -32 -67 -45 7 -38 72 8 169 35 169 48 0 17 -133 9 -176 -10z"
       id="path118"
       style="fill:#666699" />
    <path
       d="M6510 871 c-25 -14 -207 -22 -237 -10 l-27 10 19 -21 c35 -38 52 -42 128 -30 84 14 122 27 138 46 13 15 2 18 -21 5z"
       id="path120"
       style="fill:#99cc00" />
    <path
       d="M6551 838 l-33 -21 23 -12 c13 -7 49 -16 80 -19 45 -6 58 -4 70 10 12 14 10 19 -14 40 -35 30 -80 30 -126 2z"
       id="path122"
       style="fill:#99cc00" />
    <path
       d="M4227 783 c6 -52 34 -127 60 -155 15 -17 83 -26 83 -12 0 12 -132 214 -140 214 -4 0 -5 -21 -3 -47z"
       id="path124"
       style="fill:#666633" />
    <path
       d="M7494 761 c-17 -4 -45 -18 -62 -31 l-32 -24 -145 28 c-79 16 -155 26 -168 22 -34 -8 -62 -53 -46 -72 6 -8 18 -14 25 -14 7 0 21 -11 30 -25 13 -21 15 -31 6 -50 -12 -26 -25 -31 -110 -39 -29 -3 -90 -22 -135 -41 -294 -130 -569 -205 -755 -205 -45 0 -84 -6 -102 -15 -28 -15 -559 -75 -660 -75 -25 0 -50 -4 -56 -10 -6 -6 -22 -6 -44 1 -89 27 -104 28 -190 9 -153 -33 -262 -43 -392 -36 -157 9 -177 9 -274 -5 -124 -18 -355 -7 -424 21 -51 20 -55 20 -67 4 -17 -23 -1 -50 34 -58 99 -21 1440 -9 1658 15 118 13 180 14 376 4 163 -8 320 4 704 55 121 16 281 33 355 38 116 9 169 19 383 76 137 36 250 66 253 66 2 0 4 -6 4 -14 0 -9 -32 -23 -87 -40 -49 -14 -151 -47 -228 -73 -138 -45 -143 -46 -315 -54 -128 -5 -217 -15 -330 -37 -207 -40 -207 -40 -740 -52 -460 -11 -679 -23 -708 -39 -10 -6 6 -11 49 -16 35 -3 108 -13 162 -20 176 -26 370 -38 512 -32 163 7 669 57 935 92 102 14 322 41 490 60 356 42 430 54 645 101 151 34 215 55 215 72 0 12 -145 135 -250 212 -115 85 -196 128 -315 168 -104 35 -157 44 -201 33z m31 -331 c8 -13 -216 -83 -228 -71 -6 6 33 23 99 45 123 40 121 39 129 26z m-635 -145 c0 -8 -3 -15 -7 -16 -267 -24 -373 -25 -352 -4 6 5 255 32 322 34 27 1 37 -3 37 -14z"
       id="path126"
       style="fill:#663333" />
    <path
       d="M3438 730 c-9 -17 -23 -30 -31 -30 -32 0 -181 -183 -201 -247 -4 -12 -27 -33 -52 -48 -44 -26 -104 -95 -104 -120 0 -7 8 -16 18 -20 40 -15 157 -35 210 -35 48 0 455 38 598 56 33 4 53 16 97 59 31 29 63 67 71 84 10 18 35 40 59 52 62 32 80 49 65 66 -24 30 -73 46 -142 47 l-70 1 -29 43 c-48 72 -60 76 -241 82 -124 5 -168 10 -193 23 -18 9 -33 17 -35 17 -2 0 -11 -14 -20 -30z m-85 -301 c22 -6 62 -33 100 -68 34 -32 71 -63 82 -69 18 -10 17 -11 -11 -12 -34 0 -61 17 -141 92 -28 26 -59 48 -67 48 -8 0 -18 5 -21 10 -8 13 10 13 58 -1z"
       id="path128"
       style="fill:#666666" />
    <path
       d="M6112 614 c-29 -7 -72 -25 -95 -38 -23 -13 -69 -31 -102 -41 -98 -27 -145 -47 -145 -62 0 -9 7 -12 18 -9 64 19 206 38 312 43 115 4 220 24 220 42 0 4 -17 24 -38 44 -43 42 -77 46 -170 21z"
       id="path130"
       style="fill:#666699" />
    <path
       d="M2655 475 c-5 -2 -30 -9 -54 -15 -62 -16 -40 -28 56 -31 90 -3 117 7 93 36 -11 14 -68 20 -95 10z"
       id="path132"
       style="fill:#666600" />
    <path
       d="M2940 450 c-30 -5 -75 -11 -99 -14 -49 -7 -146 -55 -134 -67 13 -12 264 -51 290 -44 14 3 41 23 62 44 20 21 46 43 56 49 25 13 17 21 -32 33 -43 10 -65 10 -143 -1z"
       id="path134"
       style="fill:#666600" />
  </g>
</svg>
