<?xml version="1.0" encoding="UTF-8" standalone="no"?>
<svg
   xmlns:dc="http://purl.org/dc/elements/1.1/"
   xmlns:cc="http://creativecommons.org/ns#"
   xmlns:rdf="http://www.w3.org/1999/02/22-rdf-syntax-ns#"
   xmlns:svg="http://www.w3.org/2000/svg"
   xmlns="http://www.w3.org/2000/svg"
   xmlns:sodipodi="http://sodipodi.sourceforge.net/DTD/sodipodi-0.dtd"
   xmlns:inkscape="http://www.inkscape.org/namespaces/inkscape"
   version="1.0"
   width="850.000000pt"
   height="850.000000pt"
   viewBox="0 0 850.000000 850.000000"
   preserveAspectRatio="xMidYMid meet"
   id="svg152"
   sodipodi:docname="15.svg"
   inkscape:version="0.92.2 5c3e80d, 2017-08-06">
  <defs
     id="defs156" />
  <sodipodi:namedview
     pagecolor="#ffffff"
     bordercolor="#666666"
     borderopacity="1"
     objecttolerance="10"
     gridtolerance="10"
     guidetolerance="10"
     inkscape:pageopacity="0"
     inkscape:pageshadow="2"
     inkscape:window-width="1920"
     inkscape:window-height="978"
     id="namedview154"
     showgrid="false"
     inkscape:zoom="0.58897835"
     inkscape:cx="585.03817"
     inkscape:cy="570.75205"
     inkscape:window-x="0"
     inkscape:window-y="1"
     inkscape:window-maximized="1"
     inkscape:current-layer="svg152" />
  <metadata
     id="metadata2">
Created by potrace 1.14, written by Peter Selinger 2001-2017
<rdf:RDF>
  <cc:Work
     rdf:about="">
    <dc:format>image/svg+xml</dc:format>
    <dc:type
       rdf:resource="http://purl.org/dc/dcmitype/StillImage" />
  </cc:Work>
</rdf:RDF>
</metadata>
  <g
     transform="translate(0.000000,850.000000) scale(0.100000,-0.100000)"
     fill="#000000"
     stroke="none"
     id="g150">
    <path
       d="M0 4250 l0 -4250 1353 1 c1063 1 1333 4 1261 13 -84 10 -124 26 -124 47 0 22 77 90 139 123 l68 36 110 212 c124 239 129 253 212 573 125 482 173 690 174 754 l2 65 -179 132 c-232 172 -216 156 -216 207 0 41 -3 45 -87 117 -48 41 -98 88 -112 104 -14 15 -49 54 -78 85 -57 62 -92 129 -93 176 0 40 44 129 117 240 88 133 146 200 341 404 97 100 181 190 186 198 5 9 4 25 -3 40 -10 21 -8 30 6 52 9 14 16 33 15 42 -3 18 50 66 184 167 45 34 89 74 99 89 11 16 21 60 26 112 5 47 20 138 34 201 14 63 40 185 59 270 36 163 37 210 5 210 -25 0 -24 5 12 140 43 158 43 159 20 220 -32 83 -25 147 19 195 10 11 28 57 39 102 33 134 68 180 157 206 43 13 56 13 89 1 45 -15 42 -16 47 15 3 22 -3 25 -127 56 -71 18 -167 49 -212 69 l-82 35 6 -63 c7 -74 -7 -107 -107 -266 -69 -111 -73 -134 -30 -215 36 -68 37 -96 9 -195 -11 -41 -21 -94 -21 -118 -2 -86 64 -98 70 -13 5 64 21 53 62 -41 20 -46 17 -86 -8 -102 -5 -3 -13 -21 -16 -41 -12 -62 -79 -84 -143 -46 -17 11 -44 41 -59 67 -38 65 -36 116 10 226 20 48 36 93 36 101 0 8 -20 31 -45 51 -43 36 -45 39 -39 77 5 28 2 44 -8 57 -32 36 -25 75 21 116 12 11 21 23 21 27 0 4 13 29 29 56 160 270 164 305 55 441 -29 37 -61 81 -69 99 -20 40 -19 111 1 159 20 49 31 179 15 188 -6 4 -11 1 -11 -8 0 -23 -30 -47 -51 -41 -18 6 -19 0 -19 -70 0 -76 -1 -78 -50 -152 -66 -98 -66 -120 0 -189 60 -63 64 -93 20 -126 -16 -12 -30 -25 -30 -30 0 -12 34 -9 49 5 21 18 3 -12 -22 -40 -25 -28 -37 -29 -71 -2 -36 28 -34 69 5 113 29 34 30 36 14 63 -9 15 -27 43 -40 62 -14 19 -25 48 -25 65 0 31 6 45 70 159 29 53 32 64 26 114 -8 70 -41 149 -78 188 -41 42 -76 120 -90 195 -14 83 1 206 42 334 17 51 30 102 30 114 l0 21 -55 -19 c-212 -73 -425 -252 -553 -465 -51 -85 -66 -105 -80 -105 -26 0 -19 26 33 126 58 111 110 176 285 353 86 88 105 102 210 153 63 31 153 69 198 85 69 23 106 45 208 121 l123 93 -16 26 c-16 24 -20 25 -92 20 -42 -2 -116 0 -165 5 -195 20 -418 -40 -552 -149 -42 -33 -64 -41 -64 -23 0 21 164 181 214 209 91 52 397 131 507 131 27 0 49 4 49 8 0 5 -28 22 -62 39 -73 36 -192 61 -331 70 -108 7 -109 16 -3 34 97 16 221 -6 369 -66 15 -6 17 0 17 54 0 55 3 62 27 78 39 26 191 24 305 -5 81 -20 89 -20 132 -6 25 9 46 19 46 24 0 4 24 32 53 63 53 55 137 105 212 126 35 10 43 8 68 -9 l27 -21 0 86 c0 48 5 105 11 128 13 52 58 119 82 123 18 2 117 73 117 84 0 3 25 21 55 39 30 18 55 35 55 37 0 2 -1001 4 -2225 4 l-2225 0 0 -4250z"
       id="path4"
       style="fill:none" />
    <path
       d="M4475 8489 c4 -5 0 -18 -8 -27 -8 -9 -32 -57 -55 -107 -28 -62 -58 -109 -96 -150 -135 -146 -136 -148 -136 -231 0 -73 1 -74 21 -64 24 13 41 4 19 -10 -12 -8 -11 -10 5 -10 19 -1 19 -2 -2 -17 -13 -8 -23 -22 -23 -29 0 -18 1 -18 51 11 48 27 64 31 53 14 -4 -8 0 -8 15 0 17 10 21 9 21 -5 0 -10 5 -14 14 -11 8 3 33 11 55 17 23 6 60 22 83 35 24 13 69 38 102 54 32 17 64 35 71 41 49 41 265 118 330 118 17 0 93 5 169 12 110 10 167 11 270 1 133 -12 242 -33 258 -49 5 -5 -58 -11 -155 -15 -179 -7 -343 -32 -482 -72 -119 -34 -311 -118 -307 -133 1 -7 -19 -22 -45 -32 -27 -11 -61 -26 -78 -34 l-30 -13 103 -52 c192 -96 365 -192 404 -222 21 -17 68 -70 104 -119 67 -91 78 -100 122 -100 77 0 206 -118 266 -242 50 -106 64 -155 75 -260 13 -135 45 -188 111 -188 74 0 105 62 68 137 -16 33 -2 40 30 16 30 -22 48 -77 38 -116 -10 -43 -54 -86 -94 -93 -79 -13 -79 -10 -8 -84 85 -88 120 -160 118 -246 -1 -85 -33 -147 -138 -264 -213 -239 -282 -350 -291 -473 -16 -198 133 -353 234 -243 18 20 35 36 38 36 14 0 3 -119 -15 -157 -19 -42 -19 -43 0 -43 25 0 82 60 105 110 21 46 32 50 41 15 9 -36 -3 -99 -26 -146 -80 -157 -238 -201 -367 -102 -43 33 -46 33 -59 16 -55 -68 -71 -181 -35 -252 28 -55 91 -106 160 -131 60 -22 73 -34 49 -43 -7 -2 10 -16 38 -30 66 -33 144 -119 167 -183 21 -61 22 -163 1 -212 -15 -34 -17 -35 -27 -18 -38 61 -110 167 -113 164 -1 -2 6 -30 17 -62 24 -74 24 -155 -1 -226 -11 -30 -19 -79 -20 -107 0 -29 -7 -70 -16 -92 -13 -33 -14 -49 -5 -93 6 -29 38 -208 70 -398 33 -190 69 -397 80 -460 11 -63 41 -234 66 -380 25 -146 84 -479 130 -740 151 -850 176 -1003 168 -1010 -4 -4 -237 -83 -518 -175 -280 -92 -606 -198 -723 -237 -118 -38 -222 -68 -231 -65 -36 9 -477 336 -489 362 -7 14 -26 105 -42 203 -17 97 -32 182 -34 187 -2 6 -10 -13 -19 -42 -21 -71 -35 -93 -56 -93 -25 0 -46 26 -76 95 -73 168 -107 216 -209 289 -66 47 -123 109 -170 185 -15 24 -31 39 -35 35 -16 -18 -178 -341 -210 -419 -55 -131 -81 -233 -79 -300 1 -34 -6 -86 -16 -120 -13 -46 -16 -76 -10 -130 10 -90 8 -105 -22 -194 -14 -41 -29 -110 -32 -154 -7 -83 -21 -107 -56 -94 -13 5 -16 23 -16 106 0 55 -3 106 -6 115 -21 56 -153 -38 -180 -129 -16 -56 -28 -73 -64 -98 -23 -16 136 -17 2793 -17 l2817 0 0 4250 0 4250 -2016 0 c-1420 0 -2013 -3 -2009 -11z m245 -154 l35 -13 -42 -7 c-38 -7 -56 -18 -145 -93 -16 -13 -18 -13 -18 1 0 10 18 35 40 57 l39 39 -29 -6 c-40 -7 -38 4 3 22 39 17 71 17 117 0z"
       id="path6"
       style="fill:none" />
    <path
       d="M4335 8375 c-132 -98 -151 -120 -170 -187 -9 -35 -15 -81 -13 -102 l3 -40 45 60 c25 32 55 75 68 94 13 19 39 51 57 70 18 19 43 58 55 85 12 28 24 53 27 58 10 17 -16 3 -72 -38z"
       id="path8"
       style="fill:#008080" />
    <path
       d="M5070 8099 c-30 -5 -87 -25 -127 -43 -73 -35 -96 -37 -67 -4 38 41 -120 -30 -281 -127 -82 -50 -164 -87 -175 -80 -4 3 -27 -2 -51 -10 -24 -9 -54 -15 -65 -13 -12 2 -31 -6 -43 -16 -15 -14 -21 -15 -21 -6 0 10 -3 11 -11 3 -40 -40 73 -41 192 -2 35 11 161 67 279 124 284 137 350 158 560 178 19 2 -3 4 -50 4 -47 0 -110 -3 -140 -8z"
       id="path10"
       style="fill:#008080" />
    <path
       d="M5164 8065 c-125 -19 -214 -50 -409 -142 -233 -110 -359 -161 -432 -173 -99 -18 -103 -19 -103 -40 0 -26 29 -40 87 -40 49 0 159 28 116 29 -46 2 -20 21 102 80 69 33 125 64 125 69 0 13 198 104 316 145 56 19 145 45 200 57 54 11 100 23 103 26 6 6 -11 4 -105 -11z"
       id="path12"
       style="fill:#008080" />
    <path
       d="M4019 7995 c-104 -38 -229 -136 -229 -179 0 -48 15 -47 63 4 43 46 67 61 67 43 0 -4 -18 -26 -40 -48 -22 -23 -44 -56 -50 -74 -8 -29 -7 -31 10 -26 18 6 18 4 8 -26 -13 -37 -4 -47 72 -82 52 -23 176 -34 230 -20 l35 10 -1 84 c0 58 -8 105 -23 154 -32 96 -78 177 -101 174 -3 0 -21 -6 -41 -14z"
       id="path14"
       style="fill:#008080" />
    <path
       d="M3355 7816 c-5 -2 -23 -7 -39 -11 l-29 -6 7 -64 c8 -75 38 -181 71 -245 35 -68 83 -130 102 -130 52 0 156 96 223 206 33 54 33 57 15 70 -11 8 -44 14 -82 14 -35 0 -63 4 -63 10 0 6 18 10 39 10 92 0 34 32 -81 46 -32 4 -58 11 -58 17 0 14 124 2 179 -17 l43 -16 -7 38 c-4 20 -8 38 -8 38 -20 17 -286 50 -312 40z"
       id="path16"
       style="fill:#008080" />
    <path
       d="M3703 7775 c-3 -10 2 -42 11 -72 20 -62 55 -89 82 -62 13 14 12 23 -8 80 -20 56 -27 64 -51 67 -18 2 -29 -2 -34 -13z"
       id="path18"
       style="fill:#7fff00" />
    <path
       d="M4528 7731 c22 -13 -29 -46 -103 -66 l-65 -18 99 -47 c172 -83 310 -190 436 -341 122 -145 105 -135 220 -133 130 3 174 -21 175 -96 1 -30 6 -37 35 -51 19 -9 35 -13 35 -9 0 27 -60 183 -106 279 -49 100 -66 125 -142 201 -85 86 -92 90 -266 175 -99 48 -198 93 -219 101 -43 15 -121 19 -99 5z"
       id="path20"
       style="fill:#4b0082" />
    <path
       d="M4215 7597 c-19 -29 -26 -33 -90 -39 -78 -8 -162 2 -220 26 l-38 16 5 -50 c3 -28 7 -53 10 -55 2 -3 31 0 64 6 95 18 283 6 387 -25 161 -48 314 -139 460 -275 41 -38 88 -76 104 -84 39 -20 83 -29 83 -18 0 16 -93 134 -170 214 -94 100 -201 180 -315 239 -102 52 -139 64 -210 71 -47 5 -51 3 -70 -26z"
       id="path22"
       style="fill:#008080" />
    <path
       d="M3757 7540 c-13 -75 -13 -100 -3 -97 16 5 28 77 18 106 -9 26 -10 26 -15 -9z"
       id="path24"
       style="fill:#2e8b57" />
    <path
       d="M3037 7529 c-74 -11 -167 -40 -250 -78 -75 -33 -89 -48 -26 -26 23 8 106 26 186 39 112 20 150 23 174 14 17 -6 53 -8 80 -5 32 4 49 2 49 -5 0 -7 15 -9 41 -5 50 7 54 10 38 35 -13 21 -25 23 -189 36 -25 2 -71 0 -103 -5z"
       id="path26"
       style="fill:#008080" />
    <path
       d="M3682 7488 c-36 -46 -39 -58 -17 -58 21 0 19 -12 -6 -45 -16 -20 -19 -29 -10 -35 9 -5 3 -15 -20 -34 -66 -56 -105 -68 -249 -78 -74 -6 -136 -14 -138 -19 -2 -5 -9 -9 -15 -9 -6 0 -29 -9 -51 -20 -23 -10 -75 -31 -118 -44 -157 -52 -358 -167 -358 -207 0 -14 5 -12 62 25 118 74 246 119 453 156 309 57 411 103 464 213 28 56 57 197 41 197 -3 0 -20 -19 -38 -42z"
       id="path28"
       style="fill:#008080" />
    <path
       d="M4010 7481 c-48 -10 -73 -25 -103 -61 -30 -35 -37 -37 -37 -11 0 11 10 27 22 35 29 21 19 28 -24 16 -41 -12 -63 -34 -72 -75 -9 -36 -76 -159 -83 -151 -3 2 0 28 6 56 16 72 13 81 -8 34 -23 -51 -76 -103 -138 -136 -45 -24 -244 -79 -342 -94 -35 -6 -45 -12 -52 -34 -6 -15 -24 -33 -43 -43 -37 -17 -111 -121 -140 -197 -37 -94 -30 -264 14 -349 l17 -35 5 150 c5 130 9 158 33 224 25 69 56 125 41 75 -31 -107 -48 -212 -48 -295 0 -96 21 -209 47 -261 25 -47 95 -90 95 -58 0 5 -4 8 -9 5 -17 -11 -39 41 -51 120 -19 123 -13 395 9 408 3 2 6 -78 7 -177 0 -140 4 -193 17 -227 l16 -45 -7 70 c-17 174 2 365 44 446 25 49 27 26 4 -48 -27 -87 -37 -273 -21 -396 15 -108 19 -120 40 -111 99 41 132 47 254 52 l127 4 0 84 c0 68 3 84 15 84 12 0 15 -18 15 -100 l0 -100 -74 0 -74 0 29 -29 c34 -35 40 -65 7 -34 -41 37 -53 38 -17 1 23 -23 40 -53 48 -84 7 -27 22 -77 33 -111 l19 -62 50 -10 c66 -15 79 -14 100 5 27 25 89 43 145 44 l51 0 17 44 c10 25 36 61 59 82 23 21 34 35 24 31 -22 -8 -32 9 -9 18 15 6 15 8 -4 15 -13 5 -28 26 -38 52 -63 172 -65 175 -65 138 -1 -20 5 -60 13 -90 8 -30 12 -58 8 -61 -11 -10 -136 -19 -149 -11 -18 11 -33 116 -34 231 -1 103 -1 105 -15 72 -18 -39 -23 -161 -11 -241 l8 -55 -26 25 c-41 39 -73 118 -90 225 -17 107 -15 137 16 254 22 82 96 234 110 225 5 -3 -5 -32 -21 -64 -93 -183 -112 -390 -50 -525 l18 -40 1 65 c1 73 22 164 44 189 8 9 20 34 26 56 47 157 83 205 50 68 -30 -126 -42 -277 -30 -373 6 -46 13 -85 15 -87 2 -3 29 -2 59 2 l55 7 -10 30 c-15 41 6 383 23 394 5 3 9 -46 9 -108 0 -123 14 -195 56 -289 29 -64 37 -69 134 -69 61 0 104 -7 157 -24 l21 -7 -18 60 c-46 147 -50 376 -10 555 11 49 22 91 25 94 13 13 13 -8 0 -68 -7 -36 -19 -119 -26 -185 -10 -106 -10 -130 5 -205 33 -164 97 -258 193 -286 30 -9 57 -13 60 -10 10 10 -28 99 -63 148 -50 71 -74 124 -90 197 -15 74 -19 251 -5 235 5 -5 16 -69 25 -142 9 -73 23 -150 31 -169 9 -20 46 -82 84 -137 37 -56 74 -118 80 -139 15 -44 30 -54 91 -59 l45 -3 8 75 c5 41 6 154 3 250 -3 104 -2 169 3 160 14 -23 31 -161 31 -245 0 -65 2 -74 20 -80 30 -9 66 18 74 56 9 49 7 59 -12 59 -40 0 -54 33 -59 142 -5 95 -4 105 17 131 12 15 31 27 43 27 19 0 18 4 -15 33 -27 23 -40 45 -48 77 -14 65 -13 85 3 71 23 -19 46 18 45 70 0 25 6 55 13 67 13 21 8 27 -76 113 -50 50 -117 111 -149 137 -69 53 -203 132 -226 132 -8 0 -52 -48 -98 -106 -46 -58 -86 -103 -89 -101 -9 10 57 123 104 176 25 28 44 54 42 56 -2 2 -16 6 -31 10 -23 6 -37 -3 -112 -76 -48 -45 -89 -80 -91 -77 -8 7 64 96 109 136 21 18 37 35 35 36 -6 5 -150 25 -214 30 -33 3 -76 1 -95 -3z m-640 -396 c-10 -12 -10 -15 0 -15 10 0 9 -4 -1 -16 -9 -11 -23 -14 -46 -11 -18 3 -50 -1 -73 -10 -44 -18 -60 -12 -39 13 16 20 54 35 97 39 18 1 35 5 39 9 3 3 13 6 21 6 12 0 12 -3 2 -15z"
       id="path30"
       style="fill:#4b0082" />
    <path
       d="M5304 7249 c-6 -11 36 -60 70 -80 l31 -19 -27 0 c-16 0 -28 -2 -28 -5 0 -3 12 -44 27 -92 21 -71 26 -112 29 -212 l2 -125 96 -90 c115 -110 150 -174 167 -309 21 -160 -10 -283 -125 -497 -98 -183 -116 -228 -116 -292 0 -56 14 -96 24 -68 2 8 7 29 11 45 3 17 26 71 51 121 43 88 77 133 269 354 93 108 119 159 118 237 0 50 -7 77 -31 126 -28 57 -95 137 -106 126 -3 -3 4 -38 14 -79 20 -77 25 -190 10 -225 -6 -13 -9 10 -9 69 -1 49 -6 106 -12 125 -36 112 -44 128 -106 190 -38 38 -60 67 -54 71 7 4 1 26 -18 61 -33 60 -64 166 -54 182 3 6 16 -19 27 -54 22 -67 72 -157 116 -211 21 -24 34 -31 75 -34 44 -3 46 -2 16 5 -90 24 -118 70 -132 222 -7 78 -18 121 -44 186 -47 111 -71 148 -143 215 -50 45 -68 57 -102 60 -23 2 -43 1 -46 -3z"
       id="path32"
       style="fill:#4b0082" />
    <path
       d="M5020 7074 c-14 -12 -35 -24 -47 -28 -40 -13 -65 -55 -58 -99 6 -31 2 -45 -19 -77 -32 -49 -32 -64 -1 -95 17 -18 35 -25 63 -25 35 0 41 -3 47 -27 12 -48 22 -53 109 -53 92 0 126 13 140 53 12 32 3 51 -36 80 -22 16 -29 17 -49 7 -33 -18 -39 -29 -39 -72 0 -21 -4 -38 -10 -38 -5 0 -10 18 -10 40 0 36 -3 41 -36 55 -65 27 -71 50 -48 168 5 26 7 27 18 11 20 -26 42 -10 50 35 8 54 29 55 24 1 -3 -36 -1 -40 23 -45 39 -9 61 -38 66 -89 4 -34 11 -46 30 -55 54 -25 88 -1 99 71 7 42 -12 64 -61 74 -30 5 -33 9 -25 24 14 27 12 63 -4 86 -12 16 -27 19 -107 19 -80 0 -97 -3 -119 -21z"
       id="path34"
       style="fill:#66cdaa" />
    <path
       d="M5080 6931 c-62 -17 -42 -111 23 -111 65 0 95 53 53 95 -26 26 -34 28 -76 16z"
       id="path36"
       style="fill:#ffff00" />
    <path
       d="M5367 6863 c-5 -18 -24 -46 -43 -62 -26 -24 -34 -38 -34 -65 0 -19 -4 -38 -10 -41 -21 -13 -8 -20 30 -17 39 4 40 6 56 57 8 30 14 78 12 107 -3 49 -4 51 -11 21z"
       id="path38"
       style="fill:#4b0082" />
    <path
       d="M4946 6706 c7 -19 38 -22 32 -3 -3 6 -12 13 -21 15 -12 2 -15 -1 -11 -12z"
       id="path40"
       style="fill:none" />
    <path
       d="M4879 6643 c-17 -20 -17 -135 0 -177 10 -26 13 -27 29 -14 28 25 78 47 132 59 27 6 50 15 50 19 0 17 -39 30 -89 30 -28 0 -51 4 -51 10 0 13 63 23 100 15 50 -11 34 15 -30 48 -61 31 -121 35 -141 10z"
       id="path42"
       style="fill:#66cdaa" />
    <path
       d="M5430 6596 c0 -66 0 -67 53 -125 81 -91 106 -130 123 -189 18 -59 14 -136 -6 -155 -10 -10 -11 -4 -7 27 14 93 -37 223 -114 287 -26 21 -51 39 -56 39 -4 0 -13 -10 -18 -22 -6 -13 -20 -24 -32 -26 -32 -5 -29 -28 16 -122 76 -157 67 -241 -57 -500 -41 -87 -46 -144 -23 -300 11 -73 24 -116 58 -186 47 -99 79 -231 70 -296 -3 -21 -3 -38 0 -38 2 0 15 24 29 53 30 67 39 131 25 182 -7 26 -7 41 -1 45 14 8 -11 76 -57 160 -32 60 -35 70 -30 126 5 65 12 82 140 324 77 147 95 204 104 322 13 179 -42 308 -179 428 l-38 32 0 -66z"
       id="path44"
       style="fill:#663399" />
    <path
       d="M5239 6634 c-26 -8 -50 -21 -53 -30 -5 -14 2 -15 64 -9 60 6 70 5 70 -9 0 -13 -11 -16 -54 -16 -35 0 -58 -5 -66 -15 -10 -12 -10 -15 1 -16 16 0 157 -24 179 -30 12 -3 16 10 18 69 l3 72 -58 -1 c-32 0 -79 -7 -104 -15z"
       id="path46"
       style="fill:#66cdaa" />
    <path
       d="M5861 6606 l-24 -31 28 27 c16 15 27 29 24 31 -2 3 -15 -10 -28 -27z"
       id="path48"
       style="fill:none" />
    <path
       d="M4995 6468 c-58 -22 -78 -38 -49 -38 20 0 124 45 124 55 0 9 -23 4 -75 -17z"
       id="path50"
       style="fill:#2e8b57" />
    <path
       d="M5161 6455 c-1 -11 8 -83 19 -160 11 -77 22 -159 26 -182 3 -24 7 -43 9 -43 2 0 27 5 55 11 46 10 50 13 44 32 -31 98 -93 258 -93 240 -1 -39 -18 -25 -25 20 -9 52 -34 112 -35 82z"
       id="path52"
       style="fill:#66cdaa" />
    <path
       d="M5120 6417 c0 -20 4 -38 9 -42 6 -3 7 10 4 32 -8 50 -13 55 -13 10z"
       id="path54"
       style="fill:#66cdaa" />
    <path
       d="M5127 6280 c-11 -111 -56 -380 -68 -402 -9 -16 -4 -18 43 -17 29 0 61 4 72 8 17 7 16 8 -8 24 l-26 17 -2 228 c-3 191 -4 214 -11 142z"
       id="path56"
       style="fill:#66cdaa" />
    <path
       d="M5304 6322 l-21 -26 34 -103 c19 -57 33 -110 30 -117 -3 -8 -19 -17 -36 -21 -30 -6 -30 -8 -24 -50 5 -42 4 -45 -26 -62 -20 -12 -31 -26 -31 -41 0 -32 -18 -62 -36 -62 -16 0 -16 -12 2 -67 3 -10 -10 -1 -29 21 -57 64 -84 41 -86 -76 -1 -39 8 -80 28 -135 47 -131 63 -212 58 -299 -17 -273 -26 -352 -47 -409 -18 -49 -20 -72 -15 -130 3 -38 7 -91 9 -116 6 -101 95 -244 255 -407 77 -79 109 -120 138 -178 46 -94 51 -164 15 -213 -28 -39 -10 -40 28 -3 35 36 46 88 33 161 -6 31 -9 58 -7 60 8 9 44 -87 44 -119 0 -75 -55 -147 -122 -164 -42 -10 -93 -60 -106 -104 -19 -63 -14 -125 18 -224 17 -51 30 -102 30 -115 0 -25 11 -29 40 -13 28 15 32 54 11 117 -28 82 -43 166 -36 196 9 34 51 70 107 91 63 23 91 63 96 137 5 69 -10 143 -43 213 -29 61 -30 66 -12 66 7 0 25 -34 41 -75 16 -42 32 -78 37 -80 12 -8 22 80 17 149 -6 71 -42 149 -91 198 -18 18 -78 57 -132 87 -152 82 -201 118 -239 175 -96 145 -92 301 14 670 54 188 53 272 -8 409 -11 26 -17 47 -13 47 5 0 12 -8 15 -17 6 -15 8 -15 16 -3 6 8 10 25 10 37 0 12 20 61 45 108 103 195 121 331 59 452 -16 31 -33 58 -39 59 -5 1 -19 -9 -31 -24z"
       id="path58"
       style="fill:#663399" />
    <path
       d="M3375 6329 c-94 -21 -85 -10 -85 -104 l0 -85 28 6 c33 8 50 21 64 48 9 18 7 18 -17 -4 l-27 -25 7 48 c6 39 5 47 -9 47 -9 0 -16 5 -16 10 0 6 11 10 25 10 14 0 25 4 25 9 0 5 24 19 53 30 44 17 47 20 22 19 -16 0 -48 -4 -70 -9z"
       id="path60"
       style="fill:#f4a460" />
    <path
       d="M4370 6274 c0 -2 6 -20 14 -38 19 -45 52 -66 101 -65 l40 1 -35 11 c-19 6 -54 30 -77 54 -24 23 -43 40 -43 37z"
       id="path62"
       style="fill:#f4a460" />
    <path
       d="M4556 6153 c-4 -4 -28 -10 -54 -13 l-47 -5 23 -21 c12 -12 50 -29 83 -39 58 -18 98 -44 48 -32 -13 3 -44 9 -68 13 -39 6 -43 5 -39 -12 2 -14 19 -23 66 -33 39 -9 62 -20 62 -28 0 -9 -7 -12 -17 -9 -10 2 -38 7 -63 11 -49 7 -45 -1 21 -38 43 -24 32 -31 -21 -12 -24 8 -44 14 -44 13 -1 -2 -14 -29 -30 -61 -28 -55 -68 -95 -131 -131 l-30 -17 50 7 c28 3 64 12 80 19 49 20 152 103 185 148 31 43 76 169 66 185 -5 9 -62 26 -77 24 -4 -1 -15 8 -24 18 -19 21 -28 24 -39 13z"
       id="path64"
       style="fill:#f4a460" />
    <path
       d="M4063 6135 c-12 -9 -31 -29 -43 -45 l-21 -30 23 0 c18 0 29 10 46 45 12 25 21 45 19 45 -1 0 -12 -7 -24 -15z"
       id="path66"
       style="fill:#f4a460" />
    <path
       d="M4880 6126 c0 -9 7 -12 20 -9 31 8 34 23 6 23 -16 0 -26 -6 -26 -14z"
       id="path68"
       style="fill:none" />
    <path
       d="M3326 6079 c-35 -41 -35 -96 -1 -133 45 -49 121 -68 180 -46 35 13 75 58 74 84 0 17 -3 15 -16 -11 -15 -31 -41 -47 -96 -64 -34 -10 -77 4 -77 25 0 10 6 13 15 10 19 -8 19 5 -1 27 -8 9 -21 45 -27 78 -6 34 -15 61 -18 61 -4 0 -19 -14 -33 -31z"
       id="path70"
       style="fill:#f4a460" />
    <path
       d="M4893 6023 c-29 -4 -32 -7 -38 -54 -8 -57 -33 -70 -27 -14 3 27 0 35 -11 35 -8 0 -22 3 -30 6 -11 4 -27 -16 -56 -68 -47 -87 -143 -183 -218 -222 -45 -22 -140 -44 -260 -59 -40 -4 -43 7 -5 22 23 10 20 11 -25 7 -107 -10 -212 -82 -249 -171 l-16 -40 44 48 c24 26 50 47 56 47 17 0 16 -2 -28 -50 -47 -51 -83 -138 -77 -189 3 -32 5 -33 12 -13 4 12 11 22 16 22 12 0 11 -7 -6 -64 -19 -64 -18 -140 3 -195 20 -51 42 -66 42 -27 0 49 17 26 24 -31 8 -71 37 -133 86 -184 33 -35 42 -39 87 -39 40 0 54 5 73 25 l23 25 -51 0 c-93 0 -143 69 -158 220 -11 119 35 213 143 288 65 45 114 60 407 128 86 20 121 33 167 64 64 44 104 90 114 133 4 15 11 27 16 27 39 0 -63 -244 -123 -295 -36 -30 -19 -30 -333 -10 -88 5 -85 4 65 -41 131 -39 220 -40 279 -1 26 17 50 45 63 72 20 40 38 58 38 38 0 -40 -26 -87 -66 -119 -43 -35 -81 -90 -71 -101 3 -2 8 5 12 16 3 12 11 21 16 21 25 0 -41 -132 -111 -224 l-50 -67 65 -129 c63 -126 73 -138 109 -124 14 5 14 9 -2 37 -25 46 -24 329 2 442 10 44 21 83 24 87 4 4 7 -68 7 -160 0 -202 18 -278 85 -352 l40 -45 25 30 c14 17 25 38 25 47 0 9 6 21 14 25 30 18 50 78 54 168 l4 90 -51 96 c-58 110 -81 188 -81 271 0 61 17 158 28 158 4 0 6 -49 4 -108 -5 -131 12 -208 65 -295 l37 -61 8 30 c14 49 11 186 -6 249 -8 33 -28 94 -42 135 -23 62 -27 91 -26 163 1 78 -1 88 -16 85 -13 -2 -22 -27 -37 -100 -22 -105 -42 -145 -31 -63 23 187 20 229 -15 240 -20 7 -21 12 -15 66 4 44 3 59 -7 57 -6 0 -26 -3 -44 -5z m-143 -261 c0 -4 -20 -27 -44 -51 -31 -31 -46 -39 -51 -30 -5 8 7 26 36 50 44 38 59 46 59 31z m-265 -160 c-6 -4 -32 -14 -60 -20 -157 -39 -279 -133 -345 -267 -23 -47 -44 -84 -46 -83 -6 7 17 91 35 126 24 47 121 140 186 178 60 35 169 73 210 74 16 0 25 -4 20 -8z"
       id="path72"
       style="fill:#663399" />
    <path
       d="M3912 5999 c-79 -6 -112 -25 -112 -66 0 -84 132 -183 244 -183 l29 0 -23 25 c-27 28 -13 32 31 10 45 -24 55 -8 18 29 -38 37 -56 75 -65 144 -6 46 -9 51 -29 49 -12 -1 -54 -5 -93 -8z"
       id="path74"
       style="fill:#f4a460" />
    <path
       d="M3250 5981 c0 -30 42 -101 84 -139 127 -117 357 -205 593 -227 70 -7 72 -6 138 34 72 43 127 56 206 49 27 -3 49 -4 49 -2 0 2 -13 10 -30 19 -38 20 -117 19 -166 -1 -51 -21 -162 -15 -224 13 -77 35 -150 126 -150 186 0 34 -32 59 -82 64 -42 5 -44 4 -76 -42 -42 -60 -105 -90 -170 -81 -69 9 -122 44 -149 96 -12 25 -23 39 -23 31z m427 -242 c37 -16 61 -20 107 -16 53 5 56 4 37 -10 -51 -35 -137 -25 -181 22 -29 30 -25 31 37 4z"
       id="path76"
       style="fill:#f4a460" />
    <path
       d="M3400 5721 c21 -40 11 -103 -27 -171 -20 -36 -53 -99 -74 -141 -20 -42 -56 -96 -78 -120 -22 -24 -41 -48 -41 -52 0 -4 10 -21 21 -37 17 -22 20 -36 15 -63 -6 -32 -3 -38 34 -67 34 -27 40 -37 40 -71 0 -21 -13 -72 -30 -114 -16 -42 -30 -94 -30 -116 0 -46 30 -111 62 -133 44 -31 120 -11 105 28 -3 8 5 24 19 37 29 28 35 62 6 36 -34 -31 -101 -14 -121 30 -16 34 -14 115 5 187 25 92 22 152 -11 215 -38 76 -31 110 44 224 77 119 101 171 101 230 0 51 -22 117 -40 117 -7 0 -8 -6 0 -19z"
       id="path78"
       style="fill:#663399" />
    <path
       d="M3725 5496 c-43 -19 -82 -68 -100 -128 -17 -59 -19 -78 -6 -78 9 0 75 98 84 124 3 6 7 9 9 6 3 -3 -1 -27 -9 -54 -10 -35 -30 -64 -75 -109 -33 -34 -64 -72 -69 -85 -13 -34 -10 -103 5 -131 13 -23 15 -22 61 65 89 166 105 199 121 251 8 28 14 74 12 102 l-3 49 -30 -12z"
       id="path80"
       style="fill:#0000cd" />
    <path
       d="M4302 5354 c-56 -28 -120 -93 -148 -150 -24 -49 -26 -62 -22 -137 4 -80 34 -167 58 -167 5 0 14 19 20 43 6 23 18 64 27 91 15 46 14 49 -7 78 -12 16 -19 32 -16 36 9 8 63 -46 75 -77 17 -43 108 -376 142 -521 17 -74 36 -141 42 -149 18 -22 169 -9 235 19 83 36 111 105 85 209 -21 83 -336 723 -361 733 -31 12 -96 8 -130 -8z"
       id="path82"
       style="fill:#f4a460" />
    <path
       d="M5303 5321 c-6 -28 -25 -81 -42 -119 -17 -38 -28 -77 -25 -89 3 -11 -1 -41 -10 -67 -9 -26 -16 -56 -16 -67 0 -21 1 -20 20 2 24 30 24 25 0 -63 -12 -43 -20 -103 -20 -149 0 -65 5 -85 31 -137 38 -77 74 -107 223 -184 154 -80 240 -148 301 -237 27 -39 51 -71 53 -71 2 0 2 37 0 83 -5 91 -19 126 -75 188 -51 57 -105 85 -217 114 -113 29 -148 45 -194 89 -98 91 -100 226 -8 425 50 108 62 155 47 191 l-10 25 0 -30 c-1 -32 -42 -128 -60 -139 -6 -4 -4 12 5 41 42 138 46 166 29 206 -8 20 -16 37 -18 37 -1 0 -8 -22 -14 -49z"
       id="path84"
       style="fill:#4b0082" />
    <path
       d="M4500 5334 c0 -12 84 -190 98 -206 36 -43 157 54 187 150 6 21 4 22 -62 22 -38 0 -101 9 -141 20 -79 22 -82 23 -82 14z"
       id="path86"
       style="fill:#0000cd" />
    <path
       d="M5520 5176 c0 -95 11 -104 119 -98 39 2 111 67 111 100 0 19 -2 20 -27 6 -56 -29 -130 -11 -171 41 -11 14 -23 25 -26 25 -3 0 -6 -33 -6 -74z"
       id="path88"
       style="fill:#663399" />
    <path
       d="M4754 5186 c-22 -24 -60 -58 -86 -76 -41 -27 -46 -34 -38 -50 6 -10 14 -21 18 -24 15 -9 73 59 131 157 30 49 22 47 -25 -7z"
       id="path90"
       style="fill:#0000ff" />
    <path
       d="M3677 5077 c-74 -157 -83 -206 -50 -289 49 -126 68 -110 83 72 6 74 20 178 31 232 34 173 25 171 -64 -15z"
       id="path92"
       style="fill:#0000cd" />
    <path
       d="M3911 5131 c-42 -78 -59 -169 -45 -240 7 -36 10 -36 118 -20 l75 11 -12 27 c-6 14 -26 45 -44 69 -17 24 -39 64 -48 90 -34 95 -30 90 -44 63z"
       id="path94"
       style="fill:#0000cd" />
    <path
       d="M5382 5106 c-7 -17 -26 -60 -42 -97 -48 -109 -63 -181 -51 -240 14 -64 31 -96 73 -136 37 -36 111 -72 147 -73 22 0 20 3 -15 29 -120 88 -144 164 -108 341 8 42 14 105 12 141 -3 62 -4 63 -16 35z"
       id="path96"
       style="fill:#663399" />
    <path
       d="M5853 5102 c-28 -38 -74 -58 -173 -75 -82 -14 -107 -14 -82 2 7 4 -8 13 -39 22 -47 15 -51 15 -59 -2 -18 -34 -10 -56 29 -84 71 -48 144 -53 223 -14 40 21 74 60 108 127 25 52 22 63 -7 24z"
       id="path98"
       style="fill:#663399" />
    <path
       d="M4030 4847 c-26 -13 -51 -17 -98 -15 l-63 4 5 -45 c10 -82 35 -530 41 -751 8 -279 14 -319 80 -516 108 -323 185 -664 200 -881 4 -57 10 -103 14 -103 9 0 181 29 208 35 19 4 21 9 14 28 -5 13 -5 44 0 73 5 27 15 127 22 222 8 95 17 175 20 178 24 24 22 -42 -8 -353 l-6 -63 83 0 c99 0 117 10 153 80 31 61 31 84 0 211 -13 56 -31 164 -40 238 -8 75 -17 151 -20 169 -4 23 -2 32 8 32 11 0 19 -37 32 -155 10 -85 22 -155 26 -155 4 0 28 38 54 85 l46 85 -55 54 c-78 79 -138 215 -148 341 -2 30 1 40 12 40 11 0 16 -13 18 -47 2 -27 7 -48 11 -48 10 0 2 91 -8 103 -4 4 -49 19 -100 32 -50 14 -104 31 -120 40 -34 17 -81 70 -81 91 0 9 -4 13 -9 10 -5 -3 -12 -51 -16 -106 -7 -91 -16 -122 -32 -106 -6 6 16 240 39 415 l12 93 -27 24 c-34 29 -57 31 -57 4 0 -31 -68 -228 -107 -307 -19 -39 -44 -80 -56 -90 -15 -13 -19 -14 -14 -3 109 270 150 389 145 426 -3 23 -9 17 -46 -50 -44 -77 -67 -99 -52 -48 4 15 27 66 50 114 l42 87 -21 33 c-49 77 -56 101 -55 186 0 45 0 82 -1 82 -1 0 -35 -50 -75 -110 -40 -61 -75 -108 -78 -106 -2 3 20 49 49 103 29 54 70 130 91 168 20 39 38 75 38 82 0 7 -19 34 -42 60 l-43 48 -35 -18z m314 -1524 c4 -192 8 -384 9 -427 1 -52 -2 -80 -9 -83 -13 -4 -20 123 -30 580 -5 240 -4 277 9 277 13 0 16 -51 21 -347z m203 265 c-8 -18 -35 -83 -61 -144 -50 -119 -69 -153 -79 -138 -9 15 125 314 140 314 11 0 11 -6 0 -32z m37 -341 c-6 -310 -13 -427 -26 -427 -10 0 -1 655 9 673 17 30 22 -32 17 -246z m-317 207 c-4 -21 -14 -89 -23 -153 -16 -110 -26 -142 -40 -129 -5 6 31 276 41 306 2 6 10 12 16 12 8 0 10 -12 6 -36z"
       id="path100"
       style="fill:#6495ed" />
    <path
       d="M4296 4709 c-74 -82 -79 -98 -73 -208 5 -100 43 -251 64 -258 7 -3 13 21 17 74 10 125 26 205 50 252 21 41 22 46 9 114 -7 39 -15 72 -17 74 -2 2 -25 -20 -50 -48z"
       id="path102"
       style="fill:#0000cd" />
    <path
       d="M3580 4612 c-18 -68 -30 -143 -30 -188 0 -35 5 -46 23 -56 25 -14 145 -16 230 -4 l59 8 -4 129 c-2 102 -6 132 -18 139 -24 16 -31 12 -28 -17 3 -24 0 -28 -19 -25 -18 3 -23 -3 -29 -32 -7 -42 -31 -48 -40 -9 l-7 26 -19 -26 c-26 -35 -34 -34 -49 7 -8 21 -17 32 -26 29 -9 -4 -13 4 -13 26 0 43 -17 39 -30 -7z"
       id="path104"
       style="fill:#4169e1" />
    <path
       d="M5080 4566 c0 -7 7 -26 15 -42 10 -20 11 -32 4 -41 -13 -15 5 -131 27 -179 8 -17 46 -56 84 -88 77 -63 113 -116 130 -191 18 -79 6 -112 -58 -172 -31 -28 -53 -55 -49 -59 4 -4 20 4 35 18 36 34 65 49 137 68 72 20 88 43 79 110 -10 70 -34 106 -153 233 -122 128 -177 206 -213 298 -22 56 -38 75 -38 45z"
       id="path106"
       style="fill:#4b0082" />
    <path
       d="M4367 4523 c-9 -22 -21 -94 -27 -170 -10 -119 -9 -135 6 -158 13 -20 15 -38 10 -85 -6 -52 -3 -68 25 -135 43 -105 100 -186 146 -211 41 -23 132 -48 141 -39 13 12 -21 111 -52 154 -76 105 -126 239 -144 392 -5 41 -19 94 -31 116 -11 23 -29 72 -39 108 l-18 67 -17 -39z"
       id="path108"
       style="fill:#0000ff" />
    <path
       d="M3548 4265 c-3 -71 3 -93 16 -60 7 20 22 19 46 -5 16 -16 18 -25 10 -40 -13 -24 -37 -26 -62 -3 -17 15 -18 14 -18 -19 0 -19 -6 -55 -14 -81 l-14 -46 78 -45 c89 -52 220 -154 244 -191 11 -17 -40 12 -158 91 -98 65 -181 114 -189 111 -8 -3 -17 -20 -21 -38 -7 -39 -46 -76 -213 -206 -68 -52 -123 -101 -123 -109 0 -22 47 -94 94 -142 104 -110 252 -179 422 -196 57 -6 287 7 360 20 l32 6 -31 96 c-17 54 -33 99 -34 101 -1 2 -35 -8 -74 -23 -39 -15 -74 -25 -76 -22 -3 2 15 17 39 31 23 15 54 34 66 42 27 17 27 24 -11 123 -23 60 -25 83 -31 320 -4 140 -10 277 -13 303 l-6 48 -129 -2 c-125 -2 -128 -2 -112 -20 14 -15 14 -21 4 -34 -29 -35 -76 -3 -52 35 9 14 8 19 -4 24 -9 3 -17 6 -19 6 -2 0 -5 -34 -7 -75z m272 10 c0 -6 -10 -21 -23 -33 l-23 -22 -17 30 c-17 28 -17 29 5 49 20 19 23 20 40 4 10 -9 18 -21 18 -28z m9 -79 c38 -40 2 -81 -53 -60 -21 8 -20 43 1 66 21 23 25 23 52 -6z m-261 -332 c41 -15 72 -33 72 -40 0 -11 -12 -9 -52 7 -29 12 -65 26 -80 31 -16 6 -28 14 -28 19 0 13 8 12 88 -17z m0 -325 c163 -32 203 -49 115 -49 -87 0 -313 59 -313 81 0 6 8 8 18 5 9 -3 90 -19 180 -37z m179 -95 c-25 -25 -282 -54 -326 -37 -18 7 18 14 150 29 96 11 176 19 178 17 2 -2 2 -6 -2 -9z"
       id="path110"
       style="fill:#4169e1" />
    <path
       d="M4505 4243 c13 -97 36 -170 81 -261 26 -51 49 -91 51 -88 13 13 -23 154 -68 269 -53 133 -75 161 -64 80z"
       id="path112"
       style="fill:#0000cd" />
    <path
       d="M4785 4045 c-33 -19 -59 -40 -57 -46 5 -21 214 -343 230 -356 37 -28 252 -3 265 31 7 18 -165 51 -191 37 -31 -16 -37 -13 -18 8 26 29 55 32 137 17 77 -15 89 -14 89 9 0 9 -19 16 -57 20 -193 23 -220 45 -288 238 -15 42 -33 77 -39 77 -6 0 -38 -16 -71 -35z"
       id="path114"
       style="fill:#f4a460" />
    <path
       d="M4340 3941 c0 -49 36 -117 74 -141 47 -28 51 -25 21 15 -15 19 -42 62 -61 97 -33 62 -34 62 -34 29z"
       id="path116"
       style="fill:#0000cd" />
    <path
       d="M5495 3906 c-16 -24 -37 -37 -100 -58 -44 -15 -86 -35 -93 -45 -42 -54 -55 -149 -28 -202 8 -15 30 -46 49 -68 l33 -41 0 82 c-1 97 11 124 95 212 57 60 74 93 67 132 -3 17 -6 15 -23 -12z"
       id="path118"
       style="fill:#4b0082" />
    <path
       d="M5492 3633 c-18 -33 -14 -82 13 -163 34 -100 33 -139 -4 -174 -50 -48 -150 -35 -172 22 -12 30 -4 42 27 42 20 0 24 5 24 33 0 25 -13 47 -60 101 -33 38 -65 84 -72 103 -14 38 -16 38 -83 17 -29 -9 -115 -19 -208 -24 -86 -5 -191 -14 -233 -21 l-76 -12 6 -29 c11 -58 60 -141 117 -203 33 -34 59 -69 59 -77 0 -8 -27 -63 -60 -124 -33 -60 -58 -116 -55 -124 3 -8 14 -55 24 -104 l19 -88 -39 -76 c-22 -42 -47 -81 -57 -87 -9 -5 -51 -12 -92 -15 -71 -5 -75 -6 -78 -30 -5 -35 -18 -48 -55 -55 -104 -21 -108 -24 -102 -58 68 -391 297 -1688 301 -1706 5 -25 1 -24 91 -4 23 5 27 -2 39 -70 l6 -37 -55 -25 -55 -25 8 -38 c4 -20 11 -54 14 -75 6 -30 11 -37 30 -37 32 0 84 -37 121 -86 16 -22 39 -52 50 -66 l20 -26 562 186 562 186 6 45 c12 98 17 112 50 156 19 25 35 54 35 65 0 11 -60 363 -134 782 -74 420 -160 909 -191 1088 -31 179 -71 404 -89 500 l-32 175 -36 6 c-71 11 -113 55 -126 130 -8 41 -9 43 -20 22z"
       id="path120"
       style="fill:#5f9ea0" />
    <path
       d="M3100 3546 c0 -27 102 -146 171 -200 39 -31 113 -77 165 -103 118 -58 169 -62 424 -31 148 18 185 26 185 38 0 16 15 16 -330 9 -152 -3 -164 -2 -240 23 -126 43 -236 120 -315 223 -42 55 -60 67 -60 41z"
       id="path122"
       style="fill:#228b22" />
    <path
       d="M2965 3329 c-69 -67 -125 -128 -125 -135 0 -29 123 -176 187 -224 38 -27 73 -50 78 -50 6 0 87 61 179 137 l169 136 -38 21 c-88 49 -184 119 -240 175 -33 33 -66 61 -73 61 -7 0 -69 -55 -137 -121z"
       id="path124"
       style="fill:#ffa500" />
    <path
       d="M3820 3178 c-74 -10 -149 -21 -166 -24 -30 -4 -54 -35 -54 -68 0 -30 390 -150 421 -130 41 25 70 192 39 228 -16 20 -66 19 -240 -6z"
       id="path126"
       style="fill:#ffa500" />
    <path
       d="M3453 3148 c-23 -13 -115 -85 -203 -161 -115 -98 -160 -143 -156 -154 4 -10 2 -13 -8 -10 -7 3 -36 -15 -64 -39 l-51 -45 31 -47 c61 -91 266 -358 296 -385 20 -19 21 -18 32 25 6 23 20 74 31 112 12 37 18 79 15 91 -4 14 0 27 9 35 8 6 19 28 25 48 7 20 25 71 40 112 34 92 133 420 128 425 -2 2 -22 7 -43 10 -31 5 -49 1 -82 -17z"
       id="path128"
       style="fill:none" />
    <path
       d="M2641 2970 c-93 -116 -155 -217 -171 -277 -13 -53 0 -112 38 -163 32 -44 227 -238 308 -307 l61 -52 6 152 c4 84 13 188 22 232 24 128 24 128 -42 158 -32 14 -69 28 -83 32 l-25 8 23 8 c16 6 41 3 80 -10 l57 -20 44 37 44 36 -28 21 c-76 54 -153 126 -194 182 -25 34 -49 62 -53 62 -5 1 -44 -44 -87 -99z"
       id="path130"
       style="fill:#ffa500" />
    <path
       d="M3572 3014 c-12 -25 -11 -26 65 -60 71 -33 214 -84 233 -84 8 0 33 61 27 67 -7 6 -288 103 -301 103 -7 0 -18 -11 -24 -26z"
       id="path132"
       style="fill:#ffa500" />
    <path
       d="M4060 2954 c-77 -121 -170 -311 -170 -347 0 -19 11 -94 25 -168 13 -74 54 -305 90 -514 64 -371 66 -381 95 -405 32 -28 98 -65 104 -59 3 2 -4 54 -15 114 -158 893 -162 915 -178 915 -3 0 -7 27 -9 59 -2 54 0 61 24 80 54 42 124 17 124 -45 0 -19 5 -43 12 -53 9 -15 8 -24 -5 -45 -16 -24 -14 -43 58 -458 41 -238 91 -520 110 -626 19 -106 35 -204 35 -218 0 -14 11 -35 25 -48 14 -13 25 -29 25 -37 0 -7 14 -27 31 -45 51 -53 16 -94 -82 -94 -45 0 -64 25 -54 70 5 22 0 38 -19 66 -19 28 -29 65 -42 157 l-18 120 -64 29 c-35 16 -65 28 -67 26 -7 -10 34 -198 48 -218 12 -17 17 -44 17 -86 0 -100 20 -227 40 -249 24 -28 34 -85 15 -85 -8 0 -13 -6 -11 -13 3 -6 7 -24 10 -39 3 -15 15 -30 26 -33 28 -9 67 -71 75 -120 4 -22 9 -48 11 -57 3 -10 53 -52 112 -94 l106 -77 16 24 c19 30 48 60 79 79 23 15 23 16 10 85 -12 60 -18 72 -41 83 -43 20 -69 61 -66 101 3 34 5 36 36 33 17 -2 32 0 32 4 0 3 -32 185 -70 403 -39 218 -86 484 -105 591 -94 537 -113 635 -136 723 l-10 37 -53 -6 c-65 -8 -61 -17 -76 166 -12 138 -33 279 -48 320 -8 21 -12 17 -52 -46z"
       id="path134"
       style="fill:#2f4f4f" />
    <path
       d="M3507 2819 c-25 -78 -44 -145 -42 -149 12 -19 281 -88 347 -90 23 0 145 238 126 244 -7 3 -56 16 -108 31 -80 22 -125 39 -266 101 -7 3 -29 -49 -57 -137z"
       id="path136"
       style="fill:#ffa500" />
    <path
       d="M3006 2599 c-27 -79 -46 -450 -26 -498 7 -17 47 -60 89 -94 42 -35 84 -72 94 -82 23 -22 32 -14 55 55 10 30 24 56 30 58 18 6 15 -13 -13 -90 -25 -71 -19 -86 16 -37 13 17 23 68 35 180 l17 155 -113 150 c-133 175 -177 224 -184 203z"
       id="path138"
       style="fill:#ffa500" />
    <path
       d="M3848 2540 c-35 -79 -102 -249 -120 -305 -24 -74 -19 -127 16 -164 14 -15 26 -35 26 -44 0 -9 -18 -81 -40 -159 -23 -79 -38 -153 -35 -165 3 -12 15 -27 28 -34 12 -6 32 -22 44 -36 20 -25 23 -25 67 -14 58 14 107 3 164 -39 23 -17 42 -25 42 -19 0 6 -25 152 -55 323 -30 171 -70 397 -89 501 l-33 190 -15 -35z"
       id="path140"
       style="fill:none" />
    <path
       d="M3405 2500 c-2 -4 -18 -60 -35 -124 -27 -103 -87 -503 -77 -513 3 -2 59 31 127 73 135 84 173 102 233 112 l40 7 -2 80 c-1 68 4 95 33 180 19 55 33 102 30 105 -10 10 -345 87 -349 80z"
       id="path142"
       style="fill:#ffa500" />
    <path
       d="M4063 2484 c-3 -9 2 -57 11 -108 9 -50 55 -307 101 -571 108 -612 121 -675 137 -691 7 -7 19 -10 25 -6 10 6 6 45 -17 167 -30 166 -137 779 -186 1063 -24 141 -30 162 -46 162 -10 0 -21 -7 -25 -16z"
       id="path144"
       style="fill:#00ff00" />
    <path
       d="M3600 1961 c-54 -21 -148 -80 -211 -132 -54 -45 -98 -124 -129 -229 -25 -85 -33 -98 -63 -102 -16 -2 -24 -13 -30 -42 -12 -47 -6 -51 88 -66 38 -6 84 -14 100 -19 28 -7 25 -9 -28 -16 -52 -7 -107 0 -160 21 -12 4 -19 -6 -31 -48 -8 -29 -46 -170 -85 -314 -82 -305 -115 -400 -176 -509 -57 -101 -145 -275 -145 -286 0 -5 15 -9 34 -9 59 0 49 -17 -12 -23 -69 -6 -144 -41 -191 -91 l-34 -35 29 -12 c16 -6 85 -13 154 -16 163 -6 183 3 216 97 29 83 62 112 205 181 l111 54 -7 97 c-5 76 -3 109 10 157 10 33 15 75 13 93 -8 52 88 320 181 506 81 161 104 215 205 487 48 127 86 246 86 269 0 13 -87 4 -130 -13z m-360 -1269 c0 -4 -45 -22 -99 -40 -56 -19 -115 -46 -136 -62 -42 -33 -68 -39 -63 -13 4 24 111 79 198 102 84 22 100 24 100 13z m-70 -121 c0 -12 -29 -18 -119 -27 -61 -6 -73 -4 -69 7 7 20 188 40 188 20z"
       id="path146"
       style="fill:#556b2f" />
    <path
       d="M3660 1628 c-6 -24 -18 -65 -26 -92 -8 -27 -14 -59 -14 -70 0 -38 102 -157 205 -241 106 -87 107 -88 204 -292 19 -40 38 -70 42 -67 14 8 48 131 55 197 8 78 -9 122 -64 166 -49 40 -67 80 -88 201 -21 118 -27 135 -58 155 -22 14 -33 15 -83 5 -56 -12 -57 -12 -78 14 -23 29 -35 25 -35 -9 0 -12 -7 -30 -15 -41 -13 -17 -14 -14 -15 43 0 75 -15 90 -30 31z m145 -158 c15 -47 30 -91 33 -97 2 -7 -3 -13 -12 -13 -11 0 -24 28 -45 96 -17 53 -28 101 -25 106 10 16 20 -3 49 -92z"
       id="path148"
       style="fill:#556b2f" />
  </g>
</svg>
