<?xml version="1.0" standalone="no"?>
<!DOCTYPE svg PUBLIC "-//W3C//DTD SVG 20010904//EN"
 "http://www.w3.org/TR/2001/REC-SVG-20010904/DTD/svg10.dtd">
<svg version="1.0" xmlns="http://www.w3.org/2000/svg"
 width="850.000000pt" height="850.000000pt" viewBox="0 0 850.000000 850.000000"
 preserveAspectRatio="xMidYMid meet">
<metadata>
Created by potrace 1.14, written by Peter Selinger 2001-2017
</metadata>
<g transform="translate(0.000000,850.000000) scale(0.100000,-0.100000)"
fill="#000000" stroke="none">
<path d="M3925 8482 c-93 -25 -235 -97 -235 -121 0 -5 51 -11 113 -14 99 -5
255 -35 296 -57 7 -4 -24 -7 -70 -7 -97 0 -192 -28 -299 -88 -108 -60 -178
-140 -370 -416 -126 -181 -237 -279 -316 -279 -101 0 -217 70 -255 155 -22 48
-24 133 -5 179 7 18 28 49 46 69 38 44 26 55 -40 37 -56 -15 -125 -84 -140
-142 -19 -69 -23 -76 -27 -52 -2 11 2 40 10 62 8 23 10 42 5 42 -17 0 -107
-91 -139 -141 -45 -71 -69 -157 -69 -251 0 -43 -5 -88 -10 -98 -14 -27 3 -129
32 -187 13 -25 43 -63 68 -85 l45 -40 -135 6 c-144 7 -372 48 -510 92 -106 34
-300 33 -300 -1 0 -22 79 -53 178 -71 82 -15 147 -43 132 -57 -3 -3 -58 -10
-123 -16 -78 -8 -151 -22 -213 -42 -85 -27 -96 -33 -108 -62 -13 -30 -12 -33
10 -54 24 -22 29 -23 174 -16 146 6 240 -5 240 -28 0 -5 -3 -9 -7 -9 -67 -2
-318 -97 -337 -128 -25 -40 138 -43 250 -5 67 23 96 27 196 27 98 1 120 -2
134 -16 17 -16 15 -20 -33 -71 -48 -51 -73 -102 -73 -152 0 -28 37 -85 55 -85
8 0 28 27 45 60 37 73 87 125 160 167 66 37 87 59 121 126 27 55 64 83 126 98
48 10 59 2 35 -25 -29 -32 -113 -161 -166 -253 -122 -216 -277 -689 -320 -974
-41 -270 -45 -764 -10 -1229 20 -271 15 -657 -10 -756 -21 -86 -133 -316 -209
-432 -135 -205 -347 -448 -585 -670 -207 -194 -324 -363 -361 -521 -40 -172
-37 -307 10 -496 70 -277 289 -535 572 -673 137 -67 235 -72 220 -10 -3 13
-107 125 -230 249 -216 218 -223 227 -213 253 22 59 82 129 295 346 282 286
421 472 530 712 22 48 42 88 45 88 3 0 6 -69 7 -153 3 -163 34 -380 78 -553
70 -266 237 -670 351 -846 99 -154 182 -239 218 -225 10 4 16 31 20 84 16 203
61 411 171 783 92 310 117 489 97 682 -27 256 -93 400 -386 848 -214 327 -313
539 -323 695 -7 102 53 475 117 725 53 204 177 545 217 597 17 21 49 74 71
118 22 44 58 103 80 130 23 28 54 73 69 102 30 57 213 271 315 369 140 136
292 247 430 315 l66 32 69 -62 c89 -83 180 -147 233 -166 80 -28 181 -12 244
39 l30 23 40 -60 c23 -33 63 -85 89 -114 47 -51 77 -117 77 -167 0 -12 14 -50
30 -85 47 -98 120 -163 274 -241 119 -61 132 -65 200 -67 67 -2 79 -5 136 -42
135 -88 284 -93 402 -14 69 46 101 86 108 137 4 31 11 44 34 56 23 12 30 12
33 2 3 -7 24 -41 47 -75 51 -76 65 -79 215 -43 58 14 140 32 181 41 140 29
266 109 311 197 11 22 24 77 30 125 11 96 29 139 64 155 14 6 25 15 25 20 0 5
11 13 25 18 14 5 25 13 25 18 0 5 44 54 98 108 58 58 111 122 128 154 34 64
31 62 278 115 183 40 264 73 337 142 88 82 111 162 68 232 l-20 34 -64 -7
c-105 -11 -140 13 -279 187 -112 140 -186 194 -296 218 -43 9 -53 16 -69 47
-40 77 -104 112 -205 112 -36 0 -76 -4 -91 -10 -23 -9 -33 -5 -78 29 -60 45
-165 92 -254 115 -98 26 -201 30 -381 16 l-168 -13 -64 33 c-139 69 -297 212
-382 345 -25 39 -92 167 -150 285 -58 118 -126 243 -152 277 -139 184 -313
273 -505 258 -119 -9 -188 -9 -316 -2 -90 6 -123 4 -180 -11z m635 -42 c137
-45 264 -143 349 -269 23 -33 88 -154 145 -268 181 -360 234 -423 466 -554
l95 -53 -35 -9 c-19 -4 -105 -9 -190 -10 -169 -2 -209 5 -357 62 -94 37 -189
98 -260 166 -63 61 -71 44 -10 -22 90 -99 257 -184 427 -219 77 -15 110 -16
396 -4 383 16 524 11 658 -24 105 -28 252 -94 239 -107 -4 -4 -67 -29 -138
-55 -108 -38 -146 -47 -222 -51 -51 -3 -93 -10 -93 -14 0 -5 39 -9 86 -9 77 0
103 6 256 56 183 60 258 73 325 55 42 -11 123 -66 130 -87 3 -8 -29 -13 -94
-16 -122 -6 -192 -29 -413 -136 -165 -79 -232 -105 -302 -118 -42 -7 -52 -24
-15 -24 52 0 151 35 307 110 288 137 446 174 576 135 74 -22 173 -97 313 -239
l125 -125 -105 6 c-114 6 -192 -8 -271 -48 -57 -29 -35 -35 28 -9 72 31 160
35 299 14 135 -20 148 -21 226 -10 66 9 76 -2 59 -65 -34 -127 -177 -217 -460
-288 -69 -18 -133 -35 -143 -38 -15 -4 -18 0 -15 18 3 21 12 25 78 36 95 16
188 62 237 116 46 52 56 59 77 51 25 -10 19 -40 -15 -69 -36 -30 -32 -46 6
-21 96 63 43 137 -87 120 -29 -4 -120 -27 -203 -51 -288 -84 -339 -89 -501
-48 -103 26 -214 65 -214 76 0 3 35 -2 78 -13 50 -12 98 -18 137 -15 67 5 205
44 205 58 0 5 -10 7 -22 4 -13 -2 -54 -12 -92 -20 -38 -8 -71 -13 -74 -10 -3
2 66 39 154 81 176 85 170 82 162 90 -4 3 -66 -22 -140 -56 -236 -110 -245
-113 -310 -106 -31 3 -106 21 -165 40 -59 20 -135 38 -168 41 l-60 6 71 -29
c112 -45 317 -163 305 -175 -21 -21 -181 -12 -291 17 -189 48 -309 124 -435
272 l-50 59 63 -55 c133 -117 206 -152 345 -166 83 -8 93 11 10 21 -57 7 -184
51 -233 81 l-25 15 30 -5 c194 -36 262 -15 519 161 111 76 203 113 278 113 23
0 37 4 33 10 -9 15 -85 12 -146 -6 -72 -22 -131 -52 -273 -142 -153 -97 -209
-115 -341 -109 -118 4 -136 12 -277 116 -53 39 -101 71 -107 71 -20 0 -11 -15
18 -33 17 -10 72 -70 124 -135 52 -64 109 -130 126 -146 17 -17 31 -33 31 -37
0 -4 -21 0 -47 8 -28 9 -86 16 -138 16 -86 1 -95 -1 -216 -51 -109 -45 -135
-52 -195 -52 -64 -1 -68 -2 -49 -16 34 -26 125 -13 245 37 82 33 121 44 178
47 89 5 265 -15 289 -34 16 -12 8 -13 -63 -14 -118 0 -180 -15 -343 -80 -169
-69 -225 -78 -329 -56 -221 46 -392 240 -462 523 -10 43 -38 168 -60 278 -65
314 -118 452 -213 553 -29 30 -69 63 -90 74 -94 47 -284 61 -452 32 -49 -8
-229 -49 -399 -90 -169 -41 -310 -73 -313 -71 -2 3 11 14 29 25 54 34 129 118
251 283 124 166 230 275 328 334 135 83 308 121 431 96 31 -7 96 -32 144 -57
48 -24 89 -42 91 -40 10 9 -86 70 -175 113 -165 78 -322 122 -442 124 l-45 0
43 19 c123 55 350 64 515 21 110 -29 246 -98 352 -180 49 -38 92 -67 94 -65
10 10 -109 118 -179 163 -88 57 -193 111 -215 111 -8 0 -15 5 -15 11 0 18 134
5 210 -21z m-1817 -597 c-18 -40 -26 -74 -26 -113 0 -134 123 -248 287 -265
67 -7 105 0 466 85 290 69 421 90 550 90 238 0 348 -56 435 -222 52 -98 71
-161 106 -342 43 -224 75 -362 98 -421 66 -171 132 -272 233 -356 151 -125
309 -159 489 -103 138 42 124 46 124 -40 0 -66 -3 -78 -25 -101 -46 -49 -139
-82 -184 -66 -15 6 -3 19 68 71 47 35 86 68 86 72 0 12 -36 -8 -96 -52 -27
-21 -75 -51 -105 -66 -48 -25 -64 -29 -144 -29 -81 0 -97 3 -158 32 -110 52
-214 166 -290 318 -13 28 -55 138 -92 245 -37 107 -87 236 -111 287 -155 326
-436 586 -699 648 -87 21 -191 19 -269 -5 -36 -12 -66 -25 -66 -30 0 -13 -5
-13 82 6 52 11 96 14 152 9 134 -11 129 -21 -14 -29 -294 -16 -460 -87 -736
-314 -68 -56 -73 -59 -157 -71 -131 -20 -150 -18 -190 12 -38 29 -92 127 -101
187 -6 30 -5 33 6 16 51 -74 73 -100 110 -126 53 -38 64 -29 14 12 -82 67
-122 173 -114 303 6 89 29 155 87 245 l35 55 8 -80 c8 -92 26 -150 69 -216 63
-98 181 -179 262 -179 55 0 45 14 -19 28 -31 6 -78 25 -104 42 -84 54 -150
180 -150 284 0 98 60 228 107 236 1 0 -10 -26 -24 -57z m1117 -423 c30 -6 79
-22 109 -36 l56 -26 -73 -23 c-87 -27 -139 -60 -183 -115 l-32 -40 -102 0
c-120 0 -362 -22 -568 -51 -81 -11 -153 -19 -159 -17 -26 9 248 186 356 230
182 74 438 108 596 78z m314 -202 c57 -57 108 -114 115 -127 13 -23 12 -23
-27 -16 -27 4 -56 0 -96 -14 l-58 -20 -39 25 c-33 21 -41 33 -56 84 -10 37
-30 76 -51 101 -19 22 -32 42 -30 45 6 6 85 21 117 23 17 1 50 -26 125 -101z
m-247 40 c27 -30 63 -102 63 -127 0 -18 -6 -17 -105 17 -58 20 -105 40 -105
44 0 7 110 87 121 87 3 1 15 -9 26 -21z m-1995 -154 c128 -40 318 -71 488 -80
99 -5 159 0 435 35 176 23 374 49 440 57 167 21 445 29 520 15 33 -6 92 -26
131 -45 67 -32 415 -244 480 -293 38 -28 40 -33 99 -238 76 -262 169 -424 302
-526 110 -84 259 -120 353 -84 49 19 50 19 131 9 48 -5 63 -3 107 20 28 14 61
40 74 56 27 37 37 37 71 2 23 -24 27 -37 27 -85 0 -73 16 -74 25 -2 7 52 6 57
-25 91 -41 47 -50 73 -50 141 0 63 18 93 57 93 20 0 23 -5 23 -38 0 -26 -6
-41 -20 -50 -20 -12 -26 -45 -14 -76 10 -27 22 -18 20 16 -2 52 28 49 61 -6
15 -25 35 -46 45 -46 9 0 23 -2 30 -5 11 -5 14 8 14 62 -1 120 53 193 141 193
15 0 57 -10 93 -22 52 -17 98 -22 233 -26 116 -3 176 -1 196 8 24 10 40 8 97
-10 86 -27 219 -30 317 -6 38 9 71 16 74 16 12 0 -9 -87 -33 -140 -14 -30 -43
-78 -65 -106 l-40 -53 -28 31 c-32 36 -108 51 -129 25 -11 -13 -4 -16 45 -22
70 -8 97 -28 82 -59 -20 -39 -123 -136 -144 -136 -17 1 -16 3 8 16 35 19 30
28 -7 15 -20 -8 -26 -7 -26 3 0 7 -14 19 -31 26 -18 8 -28 18 -25 26 8 21 -5
17 -36 -13 -15 -14 -51 -42 -80 -63 -66 -46 -84 -77 -98 -170 -15 -99 -24
-119 -60 -132 -41 -14 -39 -32 3 -24 17 3 42 17 55 32 19 21 22 37 22 100 0
78 5 84 43 60 12 -8 39 -18 59 -21 31 -6 41 -3 63 19 21 21 24 30 15 40 -15
20 -85 14 -109 -9 -19 -16 -21 -16 -21 -1 0 25 59 57 100 54 28 -2 36 -8 38
-25 4 -30 16 -29 31 3 6 15 14 24 17 22 2 -3 -7 -25 -20 -49 -14 -24 -30 -74
-36 -110 -20 -114 -87 -202 -195 -257 -23 -11 -127 -42 -232 -68 -182 -45
-193 -46 -217 -31 -30 20 -200 329 -222 405 -8 28 -20 52 -25 52 -12 0 -12 -3
12 -82 11 -39 18 -72 16 -75 -3 -2 -58 -8 -123 -12 -66 -4 -128 -13 -139 -19
-16 -11 9 -12 135 -10 l155 3 30 -56 c36 -69 35 -71 -77 -127 -109 -54 -145
-62 -325 -69 -136 -5 -153 -4 -159 11 -3 9 2 28 11 43 17 25 17 26 -1 18 -56
-24 -81 -18 -126 26 -24 24 -87 105 -140 180 -107 150 -145 189 -187 189 -16
0 -40 9 -54 20 -14 11 -36 20 -49 20 -32 0 -58 54 -58 119 0 51 16 111 30 111
5 0 30 -19 57 -42 26 -23 75 -59 107 -80 68 -44 184 -84 199 -69 7 7 2 13 -14
19 -132 51 -182 88 -392 290 -215 206 -403 376 -542 488 -172 138 -142 126
-333 129 -142 2 -213 9 -477 50 -274 42 -330 48 -480 49 -194 1 -216 -5 -263
-76 -45 -67 -103 -128 -159 -164 -66 -45 -110 -94 -140 -161 -14 -29 -26 -53
-29 -53 -2 0 -9 12 -14 26 -18 48 -1 94 57 156 62 64 65 88 20 122 -24 18 -46
22 -133 24 -91 3 -115 1 -187 -23 -86 -28 -220 -46 -202 -27 15 15 133 62 196
77 31 8 83 26 115 41 l59 27 -35 7 c-19 4 -53 15 -75 25 -35 15 -60 17 -195
11 -92 -3 -161 -2 -170 3 -13 9 -13 11 0 15 49 16 200 36 279 36 93 0 181 15
181 31 0 5 -39 7 -87 4 -49 -3 -124 -8 -168 -10 -44 -3 -96 -9 -115 -14 -72
-19 -90 -21 -90 -12 0 13 202 59 290 66 97 8 190 33 190 52 0 10 -4 11 -19 3
-16 -8 -26 -5 -49 15 -40 34 -83 50 -170 66 -40 7 -75 16 -78 21 -3 4 24 8 60
8 46 0 96 -10 178 -36z m2384 -62 c16 -10 126 -213 120 -220 -3 -2 -20 8 -38
24 -19 16 -82 61 -141 99 -58 39 -107 74 -107 78 0 21 138 38 166 19z m-1505
-242 c85 -12 255 -37 379 -56 124 -19 268 -38 320 -42 l95 -7 37 -180 c26
-127 37 -202 35 -254 -1 -66 1 -75 22 -92 13 -11 22 -21 20 -23 -2 -1 -38 -21
-80 -43 -185 -99 -322 -195 -429 -303 -299 -299 -534 -673 -669 -1065 -105
-302 -153 -532 -211 -995 -12 -90 -23 -166 -25 -168 -2 -2 -6 23 -10 55 -18
167 -58 300 -92 311 -14 4 -35 -38 -57 -113 -14 -48 -14 -44 -9 90 3 77 0 232
-6 345 -20 354 -25 810 -12 985 19 244 78 572 138 760 26 84 109 305 148 395
69 161 223 420 249 420 2 0 73 -9 157 -20z m1010 -98 c21 -18 22 -21 9 -66 -7
-25 -16 -48 -20 -51 -4 -2 -25 25 -48 60 -26 41 -36 66 -29 69 27 10 66 5 88
-12z m-112 -21 c15 -16 42 -56 60 -90 l32 -61 -15 -126 c-9 -69 -24 -144 -34
-167 l-19 -43 33 4 c18 2 40 -1 50 -6 15 -9 12 -12 -23 -22 -34 -10 -44 -10
-65 4 -23 15 -24 20 -20 98 3 72 -2 104 -37 244 -23 89 -41 166 -41 172 0 9
17 17 43 21 5 0 21 -12 36 -28z m376 -212 c105 -92 236 -214 293 -272 l103
-104 -17 -58 c-16 -57 -15 -137 2 -205 13 -48 -22 0 -77 105 -67 131 -131 234
-163 264 -33 31 -34 15 -1 -29 32 -44 32 -46 -7 -20 -77 50 -97 55 -223 53
-106 -2 -215 10 -215 24 0 3 6 31 14 62 8 31 24 123 36 206 12 82 24 153 27
158 6 10 5 11 228 -184z m3185 -78 c0 -14 -78 -75 -127 -100 -50 -25 -170 -54
-190 -47 -8 4 -13 16 -11 28 3 20 24 31 148 75 146 53 180 61 180 44z m-1500
-94 c0 -1 -9 -20 -20 -42 -11 -22 -20 -49 -20 -60 0 -23 -22 -75 -31 -75 -8 0
-19 38 -19 69 0 19 -3 21 -14 12 -11 -9 -15 -5 -18 26 -6 48 -1 61 25 66 27 5
97 8 97 4z m-1685 -179 c60 -64 94 -125 95 -167 0 -22 -2 -23 -58 -19 -31 2
-77 14 -102 26 -55 26 -225 159 -225 175 0 22 76 35 133 24 45 -10 55 -9 69 6
10 9 20 17 24 17 4 0 33 -28 64 -62z m75 26 c74 -34 119 -70 136 -110 21 -50
18 -57 -29 -76 -58 -25 -64 -23 -72 20 -9 51 -46 111 -94 155 -23 20 -41 40
-41 43 0 8 36 -4 100 -32z m366 -95 c3 -6 1 -29 -6 -50 -12 -34 -15 -38 -27
-26 -10 10 -12 25 -8 51 7 35 27 47 41 25z m16 -306 c-12 -36 -49 59 -58 147
-5 55 -5 55 29 -40 18 -52 31 -101 29 -107z m1978 117 c0 -13 -11 -13 -30 0
-12 8 -11 10 8 10 12 0 22 -4 22 -10z m-3 -42 c20 -16 16 -42 -4 -33 -56 24
-124 11 -144 -26 -5 -11 -14 -19 -20 -19 -17 0 0 18 54 61 51 41 80 45 114 17z
m-1890 -80 c4 -7 8 -47 9 -88 1 -85 26 -163 75 -230 45 -62 29 -59 -31 7 -92
100 -142 242 -106 298 18 27 40 32 53 13z m120 -70 c22 -24 68 -81 101 -128
83 -119 138 -177 200 -217 29 -19 51 -40 49 -46 -7 -21 -104 -20 -169 2 -150
51 -268 208 -268 357 0 87 25 96 87 32z m913 -364 c0 -23 -63 -80 -120 -109
-96 -49 -232 -49 -334 -1 -111 52 -108 54 69 54 167 -1 231 9 327 51 54 24 58
25 58 5z m-3463 -1644 c-8 -287 -42 -469 -132 -701 -118 -304 -192 -407 -654
-920 -129 -144 -273 -338 -326 -439 -41 -80 -44 -84 -53 -60 -6 14 -24 58 -41
99 -37 87 -38 113 -10 183 46 116 104 185 444 523 341 339 398 406 502 583
148 250 259 628 264 897 1 38 4 59 6 45 3 -14 3 -108 0 -210z m53 76 c10 -68
11 -120 1 -253 -30 -417 -77 -627 -208 -918 -103 -228 -179 -330 -478 -635
-138 -141 -252 -266 -284 -314 -54 -79 -100 -188 -101 -238 0 -16 -5 -28 -10
-28 -16 0 -100 120 -100 144 1 85 207 372 465 646 146 156 322 369 391 476
186 284 294 680 294 1075 0 80 4 138 9 135 5 -3 15 -44 21 -90z m-105 -138
c-35 -177 -67 -290 -122 -423 -59 -145 -98 -216 -197 -355 -80 -113 -254 -296
-566 -595 -129 -123 -208 -222 -272 -340 -43 -79 -43 -80 -46 -45 -5 48 15
143 42 204 42 95 144 212 397 457 282 274 368 370 481 544 137 208 213 386
279 645 34 135 37 73 4 -92z m225 57 c0 -8 13 -56 30 -107 38 -121 138 -320
241 -483 259 -410 318 -528 370 -740 23 -92 36 -365 22 -430 l-9 -40 -24 70
c-30 91 -88 207 -194 385 -195 327 -313 604 -400 935 -31 116 -58 229 -62 252
-8 51 4 173 17 173 5 0 9 -7 9 -15z m-21 -267 c53 -242 84 -346 152 -519 83
-211 153 -351 304 -608 116 -198 176 -329 196 -429 13 -61 12 -67 -25 -210
-22 -81 -44 -168 -49 -194 -6 -27 -14 -48 -18 -48 -8 0 -10 5 -46 104 -13 37
-75 170 -137 295 -170 344 -276 644 -396 1121 l-42 165 6 175 c7 188 13 250
25 250 4 0 18 -46 30 -102z m-93 -270 c-45 -430 -125 -673 -326 -994 -103
-165 -188 -267 -475 -572 -92 -97 -152 -170 -173 -210 -18 -34 -37 -62 -42
-62 -19 0 -40 33 -40 65 0 59 39 162 91 240 31 46 140 167 282 313 373 382
441 486 573 873 62 183 89 307 105 479 11 131 20 172 26 134 2 -12 -7 -131
-21 -266z m72 -303 c89 -376 211 -716 377 -1050 123 -248 185 -395 185 -440 0
-21 -34 -178 -61 -279 l-11 -39 -19 33 c-39 64 -217 428 -268 547 -125 292
-208 616 -286 1110 -8 48 27 304 40 291 2 -2 21 -79 43 -173z m-63 -373 c44
-292 109 -534 210 -782 88 -217 118 -279 234 -495 l103 -190 -7 -134 c-8 -157
-10 -164 -36 -150 -79 42 -294 473 -416 834 -137 407 -212 894 -159 1045 3 8
10 35 17 60 l12 45 8 -30 c4 -16 19 -108 34 -203z m-1299 -827 c13 -46 45
-117 74 -164 27 -47 49 -85 47 -87 -1 -1 -23 13 -49 32 -61 44 -87 95 -98 197
-22 187 -21 177 -9 137 6 -19 22 -71 35 -115z m139 -285 c22 -13 99 -84 170
-158 122 -126 128 -134 95 -127 -67 14 -237 103 -264 137 -23 31 -116 210
-116 224 0 3 17 -7 38 -24 20 -16 55 -39 77 -52z m136 -260 c35 -16 94 -37
130 -46 54 -13 77 -26 125 -68 32 -29 54 -55 48 -58 -15 -9 -145 21 -199 46
-55 26 -123 81 -155 127 -12 16 -19 29 -17 29 3 0 33 -13 68 -30z m264 -190
c39 -5 78 -12 86 -15 21 -8 113 -115 100 -115 -39 0 -208 82 -286 138 -19 14
-19 14 5 8 14 -3 57 -10 95 -16z"/>
<path d="M3990 8099 c-124 -17 -315 -105 -422 -193 -58 -48 -119 -116 -104
-116 3 0 47 34 97 75 201 163 442 243 628 206 157 -31 269 -101 473 -297 140
-135 199 -184 221 -184 5 0 -31 37 -80 83 -48 45 -121 117 -162 160 -169 177
-327 257 -526 269 -38 3 -95 1 -125 -3z"/>
<path d="M4305 7850 c3 -5 14 -10 24 -10 41 0 188 -86 343 -202 213 -158 300
-210 424 -254 103 -37 258 -74 309 -74 44 1 13 15 -63 29 -80 15 -276 83 -351
120 -74 38 -208 127 -351 233 -139 102 -188 131 -259 152 -63 18 -85 20 -76 6z"/>
<path d="M4700 7184 c0 -5 9 -33 20 -62 17 -44 20 -76 20 -201 0 -241 23 -312
128 -393 150 -114 372 -119 465 -9 17 21 27 44 27 64 0 32 -54 245 -65 255
-11 12 -4 -57 15 -136 32 -135 25 -164 -53 -204 -88 -44 -228 -34 -341 25
-118 62 -146 135 -146 373 0 140 -3 171 -20 218 -19 48 -50 93 -50 70z"/>
<path d="M5560 7084 c-122 -33 -232 -106 -260 -174 -22 -53 -5 -53 36 1 84
114 238 168 482 169 48 0 82 4 82 10 0 16 -275 11 -340 -6z"/>
<path d="M5985 6244 c-27 -9 -54 -20 -59 -25 -19 -17 2 -19 54 -3 36 11 81 15
135 12 70 -3 92 -8 159 -41 43 -22 80 -36 83 -33 12 12 -29 44 -89 71 -78 35
-206 44 -283 19z"/>
<path d="M6012 6114 c-64 -17 -92 -31 -92 -46 0 -6 -7 -19 -16 -29 -14 -16
-14 -21 4 -61 22 -51 76 -101 127 -118 46 -15 68 -2 115 73 32 52 37 56 65 51
l30 -5 -25 20 -25 21 30 1 30 1 -29 12 c-27 12 -28 14 -10 24 16 10 13 11 -21
12 l-40 0 25 21 25 21 -26 -6 c-15 -3 -46 1 -69 9 -23 8 -43 15 -44 14 0 0
-25 -7 -54 -15z m108 -72 c23 -11 36 -25 38 -41 5 -36 -13 -46 -31 -17 -31 47
-127 43 -162 -7 -12 -17 -17 -18 -30 -7 -25 20 -19 57 13 74 38 21 129 20 172
-2z m-18 -64 c16 -13 22 -29 19 -55 -1 -16 -21 -17 -21 -1 0 17 -31 48 -47 48
-8 0 -30 -12 -49 -26 -33 -25 -34 -25 -34 -6 0 43 92 70 132 40z"/>
<path d="M5880 5549 c0 -158 31 -214 119 -214 37 0 57 7 90 30 61 42 82 53
116 61 l30 6 -25 11 c-169 70 -285 145 -275 178 5 16 1 19 -24 19 l-31 0 0
-91z m163 -73 c26 -21 46 -41 43 -43 -9 -9 -93 46 -110 71 -32 50 -25 47 67
-28z m-85 -3 c9 -21 24 -38 32 -38 9 0 16 -11 18 -27 4 -33 -6 -35 -41 -8 -22
17 -47 72 -47 103 0 21 23 2 38 -30z m28 -103 c7 0 16 -5 20 -11 10 -17 -46
-2 -68 18 -28 25 -21 37 8 14 15 -12 33 -21 40 -21z"/>
<path d="M6115 5599 c-11 -17 0 -20 21 -4 17 13 17 14 2 15 -9 0 -20 -5 -23
-11z"/>
<path d="M6150 5562 c0 -12 19 -26 26 -19 2 2 -2 10 -11 17 -9 8 -15 8 -15 2z"/>
<path d="M5200 5543 c0 -23 67 -84 99 -90 25 -4 32 -3 27 5 -4 7 -14 12 -22
12 -8 0 -35 19 -59 41 -25 23 -45 37 -45 32z"/>
<path d="M1537 6515 c-13 -14 -27 -36 -29 -48 -16 -87 72 -128 138 -62 30 30
33 94 6 118 -28 26 -85 22 -115 -8z m101 -7 c7 -7 12 -23 12 -36 0 -26 -50
-82 -74 -82 -22 0 -46 28 -46 56 0 51 76 94 108 62z"/>
<path d="M2056 6188 c-31 -44 -13 -98 34 -98 50 0 91 75 58 108 -21 21 -75 15
-92 -10z m80 -13 c10 -24 -24 -67 -49 -63 -25 3 -35 41 -17 64 16 19 59 18 66
-1z"/>
<path d="M1594 6159 c-40 -11 -90 -67 -103 -115 -8 -28 -7 -45 4 -71 13 -31
18 -34 52 -31 35 3 42 9 90 83 29 44 53 87 53 96 0 33 -47 52 -96 38z m66 -24
c11 -13 8 -23 -19 -58 -17 -23 -40 -59 -51 -79 -11 -21 -26 -38 -32 -38 -19 0
-48 32 -48 52 0 33 40 98 73 118 39 24 60 25 77 5z"/>
<path d="M1954 5765 c-80 -34 -194 -189 -194 -265 0 -62 76 -107 138 -81 34
14 102 106 124 168 9 26 17 71 18 99 0 74 -30 103 -86 79z m57 -36 c15 -30 -5
-130 -38 -189 -51 -89 -95 -120 -144 -100 -74 31 -53 124 54 235 76 79 107 92
128 54z"/>
<path d="M1095 5111 c-158 -95 -128 -322 44 -339 67 -6 95 2 140 43 90 82 74
242 -30 295 -48 25 -115 26 -154 1z m145 -20 c67 -35 98 -135 65 -206 -29 -61
-69 -88 -132 -93 -48 -3 -64 0 -93 20 -96 64 -86 204 19 275 41 28 94 30 141
4z"/>
<path d="M1210 4487 c-19 -13 -47 -31 -62 -41 -34 -20 -68 -84 -68 -126 0 -46
47 -90 97 -90 46 0 97 29 122 70 13 23 17 47 15 98 -3 85 -1 78 -20 96 -21 22
-43 20 -84 -7z m74 -19 c23 -32 9 -41 -26 -17 -23 17 -27 24 -16 30 20 13 25
11 42 -13z m-14 -55 c0 -25 -54 -12 -58 14 -3 21 -1 22 27 12 17 -6 31 -18 31
-26z m-59 -21 c6 -8 26 -12 48 -10 33 3 36 1 39 -25 4 -33 -49 -92 -92 -103
-41 -10 -85 13 -94 50 -12 45 -4 73 31 108 29 29 31 29 44 12 7 -11 17 -25 24
-32z"/>
<path d="M1389 4060 c-46 -24 -116 -101 -140 -153 -35 -78 -20 -175 33 -209
61 -40 123 -27 175 36 31 38 93 223 93 278 0 60 -88 87 -161 48z m128 -22 c19
-16 16 -46 -16 -139 -41 -123 -65 -164 -105 -183 -47 -22 -69 -20 -104 9 -38
32 -47 72 -32 136 31 127 188 235 257 177z"/>
<path d="M1082 818 c-6 -6 -12 -19 -12 -27 0 -13 2 -13 16 1 9 9 15 21 13 27
-3 9 -8 8 -17 -1z"/>
<path d="M1937 595 c-73 -41 -101 -208 -53 -311 32 -69 78 -118 138 -148 78
-39 157 -31 219 21 39 33 79 116 79 164 0 94 -76 206 -173 254 -68 33 -170 42
-210 20z m182 -36 c95 -41 152 -107 172 -198 15 -70 -2 -125 -56 -178 -41 -41
-45 -43 -103 -43 -33 0 -72 4 -86 10 -38 14 -104 78 -134 129 -24 40 -27 57
-27 131 0 68 4 92 20 120 36 61 115 71 214 29z"/>
<path d="M1113 578 c-30 -34 -35 -56 -18 -87 24 -48 63 -54 100 -16 34 33 33
77 -1 104 -34 27 -56 26 -81 -1z m68 -8 c36 -20 16 -90 -26 -90 -33 0 -58 36
-43 64 19 36 37 43 69 26z"/>
<path d="M1635 539 c-51 -29 -60 -85 -20 -124 67 -68 179 30 118 104 -22 25
-71 35 -98 20z m58 -20 c42 -23 48 -53 17 -87 -26 -27 -54 -28 -80 -2 -26 26
-25 54 2 80 25 23 31 24 61 9z"/>
<path d="M3056 489 c-30 -35 -32 -49 -11 -88 40 -79 144 -51 145 40 0 76 -85
107 -134 48z m104 -21 c13 -25 13 -31 0 -55 -21 -38 -71 -44 -94 -11 -22 30
-20 54 5 79 28 28 69 22 89 -13z"/>
<path d="M2369 171 c-56 -56 -28 -141 47 -141 44 0 84 39 84 82 0 35 -48 88
-80 88 -12 0 -35 -13 -51 -29z m96 -21 c8 -16 15 -35 15 -41 0 -20 -42 -59
-63 -59 -53 0 -76 72 -35 110 32 29 64 26 83 -10z"/>
<path d="M2764 191 c-60 -26 -73 -113 -25 -162 62 -61 161 -19 161 70 0 71
-72 119 -136 92z m77 -24 c25 -19 38 -52 32 -78 -8 -35 -43 -69 -70 -69 -34 0
-73 43 -73 80 0 58 69 100 111 67z"/>
</g>
</svg>
