<?xml version="1.0" encoding="UTF-8" standalone="no"?>
<svg
   xmlns:dc="http://purl.org/dc/elements/1.1/"
   xmlns:cc="http://creativecommons.org/ns#"
   xmlns:rdf="http://www.w3.org/1999/02/22-rdf-syntax-ns#"
   xmlns:svg="http://www.w3.org/2000/svg"
   xmlns="http://www.w3.org/2000/svg"
   xmlns:sodipodi="http://sodipodi.sourceforge.net/DTD/sodipodi-0.dtd"
   xmlns:inkscape="http://www.inkscape.org/namespaces/inkscape"
   version="1.0"
   width="850.000000pt"
   height="850.000000pt"
   viewBox="0 0 850.000000 850.000000"
   preserveAspectRatio="xMidYMid meet"
   id="svg214"
   sodipodi:docname="12.svg"
   inkscape:version="0.92.2 5c3e80d, 2017-08-06">
  <defs
     id="defs218" />
  <sodipodi:namedview
     pagecolor="#ffffff"
     bordercolor="#666666"
     borderopacity="1"
     objecttolerance="10"
     gridtolerance="10"
     guidetolerance="10"
     inkscape:pageopacity="0"
     inkscape:pageshadow="2"
     inkscape:window-width="1920"
     inkscape:window-height="978"
     id="namedview216"
     showgrid="false"
     inkscape:zoom="0.83294118"
     inkscape:cx="560.83553"
     inkscape:cy="639.53265"
     inkscape:window-x="0"
     inkscape:window-y="1"
     inkscape:window-maximized="1"
     inkscape:current-layer="svg214" />
  <metadata
     id="metadata2">
Created by potrace 1.14, written by Peter Selinger 2001-2017
<rdf:RDF>
  <cc:Work
     rdf:about="">
    <dc:format>image/svg+xml</dc:format>
    <dc:type
       rdf:resource="http://purl.org/dc/dcmitype/StillImage" />
  </cc:Work>
</rdf:RDF>
</metadata>
  <g
     transform="translate(0.000000,850.000000) scale(0.100000,-0.100000)"
     fill="#000000"
     stroke="none"
     id="g212">
    <path
       d="M0 4250 l0 -4250 2693 0 c2346 1 2689 3 2666 15 -27 15 -49 60 -49 99 0 50 75 125 142 141 l28 7 -5 -48 -5 -49 20 40 c15 31 20 61 20 132 0 50 4 103 10 117 11 29 57 55 150 84 134 42 183 68 207 109 12 21 25 57 29 81 12 79 47 112 174 166 112 47 208 96 226 117 12 14 24 45 28 72 10 79 43 134 141 238 156 164 195 283 146 432 -26 76 -139 252 -161 251 -9 -1 -55 -30 -104 -65 -136 -99 -293 -190 -396 -231 -114 -44 -240 -84 -295 -92 -22 -4 -89 -16 -149 -26 -61 -11 -178 -24 -260 -30 -184 -11 -416 -37 -467 -50 -26 -7 -51 -26 -83 -63 -44 -51 -45 -52 -77 -40 -30 12 -35 11 -59 -11 -42 -41 -76 -49 -134 -32 -68 20 -92 39 -106 84 -7 20 -15 40 -19 43 -6 7 -178 -13 -266 -31 -27 -5 -68 -12 -90 -16 -22 -3 -80 -16 -130 -29 -49 -13 -108 -26 -130 -29 -22 -3 -85 -17 -140 -30 -238 -58 -322 -77 -350 -82 -16 -3 -66 -14 -110 -26 -44 -11 -105 -24 -135 -28 -30 -5 -109 -20 -176 -34 -66 -14 -129 -25 -140 -24 -10 0 -84 -9 -164 -20 -191 -28 -481 -45 -600 -37 -213 16 -313 79 -529 334 -53 63 -119 143 -148 178 l-52 65 -27 -27 c-36 -36 -28 -82 27 -147 22 -27 38 -52 35 -56 -4 -3 -28 -6 -54 -6 -68 0 -131 45 -168 119 -37 77 -31 130 26 225 l43 71 -18 80 c-14 68 -15 94 -6 177 6 53 18 120 26 147 9 29 20 122 25 220 20 357 37 424 159 634 76 130 77 152 21 391 -19 83 -22 124 -22 330 0 208 3 254 27 400 61 377 103 557 177 755 25 67 207 445 237 495 6 8 46 83 89 165 44 83 148 276 232 430 142 260 153 284 154 335 2 62 14 90 50 114 41 26 59 72 60 153 l1 72 -86 83 c-74 71 -194 229 -212 280 -2 7 -7 11 -10 7 -6 -5 1 -33 48 -189 13 -41 21 -77 19 -79 -8 -9 -76 53 -117 107 -59 76 -92 143 -119 244 -32 117 -32 336 0 453 55 206 188 395 375 536 123 92 229 138 362 154 37 5 86 21 130 44 93 48 143 69 185 76 19 4 53 10 75 15 22 4 -620 8 -1427 9 l-1468 1 0 -4250z"
       id="path4"
       style="fill:none" />
    <path
       d="M3110 8493 c51 -7 116 -27 150 -45 35 -17 37 -17 75 3 31 16 54 20 106 17 56 -3 73 -9 122 -41 134 -89 262 -237 336 -389 48 -100 88 -209 106 -286 7 -31 21 -86 30 -122 9 -36 30 -119 47 -185 50 -200 89 -346 115 -430 25 -83 137 -317 176 -370 104 -142 139 -184 202 -244 120 -114 311 -258 625 -474 302 -207 319 -218 470 -331 311 -231 630 -574 771 -826 14 -25 30 -54 37 -65 80 -142 163 -393 192 -580 14 -97 39 -382 47 -548 3 -76 10 -140 14 -142 4 -3 26 11 48 29 23 19 83 65 134 101 51 36 139 101 197 145 58 43 155 115 215 160 61 44 137 101 170 125 55 42 87 46 52 7 -29 -33 -108 -224 -142 -343 -28 -99 -137 -426 -155 -464 -5 -11 -32 -77 -59 -147 -28 -70 -91 -206 -141 -303 -64 -125 -90 -187 -90 -212 0 -33 15 -143 56 -408 8 -55 25 -145 36 -200 12 -55 22 -140 23 -190 1 -56 8 -110 19 -142 15 -43 17 -76 14 -185 -5 -144 -26 -228 -82 -316 -14 -23 -26 -45 -26 -48 0 -4 -16 -27 -36 -51 -20 -24 -51 -79 -68 -121 -45 -108 -78 -157 -161 -238 -76 -74 -149 -116 -280 -160 -65 -22 -82 -29 -144 -58 -13 -6 -38 -32 -55 -59 -35 -53 -102 -93 -173 -102 -57 -7 -79 -16 -153 -64 -35 -23 -82 -46 -104 -52 -23 -6 -61 -20 -86 -32 -25 -11 -101 -40 -170 -63 l-125 -43 1528 -1 1527 0 0 4250 0 4250 -2707 -1 c-1490 -1 -2697 -3 -2683 -6z"
       id="path6"
       style="fill:none" />
    <path
       d="M2960 8434 c-52 -7 -122 -16 -155 -19 -60 -7 -106 -22 -138 -47 -17 -13 -8 -19 98 -73 124 -63 144 -86 30 -35 -80 36 -187 53 -280 46 -111 -9 -278 -97 -404 -212 -75 -68 -180 -189 -201 -230 -8 -16 -23 -42 -33 -57 -20 -29 -48 -98 -74 -182 -12 -38 -14 -83 -11 -200 4 -137 7 -158 37 -247 55 -160 57 -158 64 68 5 182 9 208 36 305 17 58 40 123 51 145 22 45 27 37 5 -9 -43 -94 -57 -293 -29 -413 29 -127 135 -308 239 -407 46 -45 210 -137 244 -137 18 0 -18 60 -88 148 -78 98 -106 158 -125 275 -18 106 -16 165 15 307 16 77 61 200 74 200 2 0 0 -10 -5 -22 -5 -13 -22 -66 -37 -118 -25 -85 -28 -111 -28 -240 0 -137 2 -149 29 -215 42 -101 103 -181 123 -161 2 2 -1 33 -8 67 -40 211 15 465 137 636 48 68 75 81 32 16 -49 -74 -80 -139 -114 -241 -34 -104 -40 -137 -26 -145 4 -3 23 -8 43 -11 34 -5 38 -3 49 27 47 128 134 275 230 384 25 29 48 53 53 53 7 0 -78 -124 -114 -165 -58 -67 -162 -305 -133 -305 18 0 136 81 188 129 115 105 170 175 226 285 34 69 57 103 63 97 6 -6 2 -21 -11 -43 -25 -42 -146 -277 -156 -303 -14 -37 53 36 127 139 78 108 161 267 192 364 11 34 24 62 29 62 4 0 5 -7 2 -16 -22 -56 -27 -103 -15 -125 22 -43 264 -320 289 -332 9 -5 31 -36 48 -70 31 -60 44 -81 104 -177 l29 -45 -7 40 c-3 22 -15 74 -26 115 -28 102 -49 203 -43 208 2 3 7 -1 9 -9 16 -48 51 -176 66 -244 10 -44 23 -92 29 -107 11 -30 55 -48 73 -30 14 14 17 287 5 345 -5 23 -5 37 1 33 8 -5 24 -88 36 -186 2 -19 0 -75 -5 -124 -5 -49 -8 -91 -6 -93 7 -6 64 112 77 158 17 66 9 389 -12 444 -8 22 -18 54 -22 70 -7 30 -7 30 9 7 30 -41 65 -207 65 -308 0 -96 -28 -267 -55 -330 -20 -47 -20 -46 18 -39 29 5 34 2 56 -32 30 -47 38 -118 21 -188 -14 -60 -13 -65 67 -235 83 -178 116 -240 138 -264 22 -23 136 -82 197 -102 12 -4 46 -24 74 -44 92 -69 167 -161 190 -235 26 -85 56 -138 106 -192 62 -65 345 -298 682 -561 176 -137 233 -190 300 -279 68 -89 138 -223 171 -323 10 -30 21 -59 25 -65 10 -13 80 -265 80 -288 0 -10 12 -73 26 -140 37 -179 56 -379 48 -519 -4 -74 -3 -118 3 -118 5 0 69 56 141 125 140 133 166 150 207 135 22 -9 25 -15 25 -63 0 -37 -6 -62 -18 -78 -10 -13 -40 -54 -65 -90 l-47 -67 62 25 c35 14 68 29 73 32 6 4 53 25 105 46 52 21 101 43 108 48 15 12 16 157 2 277 -25 207 -86 460 -140 585 -58 132 -149 297 -200 365 -15 19 -52 69 -84 111 -85 115 -393 418 -525 518 -112 85 -198 146 -396 280 -111 75 -200 137 -351 244 -530 375 -702 608 -874 1182 -16 56 -30 110 -30 120 0 11 -13 67 -30 125 -16 58 -29 114 -30 125 0 53 -100 366 -146 455 -68 135 -194 268 -317 336 -44 24 -79 29 -154 25 -7 -1 -28 -15 -48 -32 l-35 -31 -44 39 c-73 64 -114 71 -286 47z"
       id="path8"
       style="fill:#ff3300" />
    <path
       d="M3156 7764 c-15 -40 -165 -266 -233 -351 -65 -82 -193 -203 -215 -203 -4 0 15 32 43 71 51 71 59 98 18 61 -12 -12 -59 -47 -105 -79 -46 -32 -83 -61 -84 -66 0 -4 12 -13 28 -19 15 -7 51 -27 80 -46 75 -49 94 -90 100 -219 4 -91 2 -105 -17 -137 -35 -57 -142 -100 -195 -80 -13 5 -14 9 -5 20 6 8 18 14 27 14 13 0 13 2 -1 18 -28 30 -66 124 -73 179 -5 43 -9 51 -20 43 -22 -19 -26 -65 -9 -105 18 -44 15 -51 -13 -36 -48 26 -43 6 33 -128 36 -62 65 -116 65 -120 0 -4 19 -26 43 -48 38 -38 133 -89 181 -99 11 -2 42 -13 70 -23 170 -67 211 -81 239 -81 37 0 80 26 192 119 44 37 112 93 152 125 78 63 143 129 143 148 0 6 11 26 26 45 28 37 70 45 81 16 17 -48 51 -43 115 16 60 55 87 114 91 200 2 47 -1 55 -26 77 -15 13 -37 24 -47 24 -42 0 -99 -80 -134 -187 -10 -29 -22 -53 -27 -53 -5 0 -9 36 -9 81 l0 81 -25 -6 c-23 -6 -24 -4 -19 22 6 29 -18 92 -35 92 -11 0 -21 -75 -21 -153 0 -58 1 -60 19 -43 15 13 21 14 27 5 12 -19 -72 -86 -125 -99 -25 -7 -75 -12 -111 -11 -58 1 -68 4 -87 28 -41 51 -68 158 -66 265 l1 98 -51 -45 c-29 -25 -56 -44 -62 -42 -5 2 -11 16 -13 31 -6 49 107 131 198 143 39 6 176 -24 245 -53 19 -8 37 -14 40 -14 23 0 -44 105 -129 204 -33 39 -74 88 -90 109 -40 55 -186 221 -195 225 -5 2 -11 -5 -15 -14z m-36 -1124 c0 -19 -30 -84 -48 -103 -61 -67 -161 -63 -228 10 -32 34 -31 53 4 54 15 0 72 11 127 23 114 27 145 30 145 16z"
       id="path10"
       style="fill:#ccccff" />
    <path
       d="M3059 6616 c-2 -3 -22 -7 -44 -9 -22 -3 -68 -10 -103 -17 -54 -11 -61 -15 -50 -28 20 -23 73 -42 119 -42 33 0 47 6 75 34 35 35 45 66 21 66 -8 0 -16 -2 -18 -4z"
       id="path12"
       style="fill:#ff3366" />
    <path
       d="M3331 7216 c-21 -26 -5 -45 64 -78 63 -29 67 -30 85 -13 33 30 26 62 -17 81 -58 25 -116 29 -132 10z"
       id="path14"
       style="fill:#660033" />
    <path
       d="M2410 7135 c0 -47 2 -85 4 -85 5 0 66 129 66 140 0 7 -45 30 -60 30 -6 0 -10 -38 -10 -85z"
       id="path16"
       style="fill:#ff0033" />
    <path
       d="M2499 7149 c-11 -11 -19 -23 -16 -25 8 -8 32 6 45 26 16 27 -2 26 -29 -1z"
       id="path18"
       style="fill:#ff0033" />
    <path
       d="M2605 7098 c-27 -21 -33 -56 -13 -76 13 -13 85 -16 112 -6 22 8 20 57 -1 76 -29 25 -71 28 -98 6z"
       id="path20"
       style="fill:#660033" />
    <path
       d="M2444 7049 c-26 -33 -34 -58 -25 -81 l10 -23 0 24 c1 14 8 32 17 42 9 10 14 25 12 35 -2 14 -5 15 -14 3z"
       id="path22"
       style="fill:#ff0033" />
    <path
       d="M3310 7031 c0 -5 -9 -13 -20 -16 -29 -9 -35 -48 -14 -84 24 -41 38 -40 29 2 -4 17 -9 42 -12 55 -3 12 -1 22 6 22 6 0 11 -7 11 -15 0 -9 11 -26 23 -39 23 -23 23 -24 6 -47 -25 -33 -24 -39 11 -39 27 0 30 3 30 30 0 20 5 30 15 30 10 0 15 -11 15 -35 0 -29 4 -35 20 -35 26 0 81 28 97 49 13 17 18 71 6 71 -4 0 -18 -10 -31 -22 -23 -21 -25 -22 -17 -3 13 33 18 65 10 65 -4 0 -28 -18 -54 -39 -40 -33 -49 -37 -64 -26 -9 7 -17 18 -17 26 -1 15 -34 59 -44 59 -3 0 -6 -4 -6 -9z"
       id="path24"
       style="fill:#660099" />
    <path
       d="M2702 6876 c-22 -44 -27 -72 -16 -100 15 -40 84 12 84 64 0 37 -12 39 -30 5 -21 -40 -31 -29 -15 16 17 47 18 59 7 59 -5 0 -18 -20 -30 -44z"
       id="path26"
       style="fill:#660099" />
    <path
       d="M3821 6739 c-67 -43 -91 -64 -87 -75 3 -9 6 -24 6 -35 0 -11 27 -49 60 -84 33 -35 60 -69 60 -74 0 -13 53 -41 76 -41 12 0 15 6 12 25 -6 30 3 32 20 4 25 -39 142 -77 142 -46 0 14 -174 365 -188 379 -4 4 -49 -20 -101 -53z"
       id="path28"
       style="fill:#ff0000" />
    <path
       d="M2295 6694 c-4 -16 -11 -45 -16 -64 -5 -19 -9 -43 -9 -54 0 -21 -9 -26 100 57 l62 47 -36 15 c-21 9 -50 18 -66 22 -26 5 -30 2 -35 -23z"
       id="path30"
       style="fill:#ff0033" />
    <path
       d="M3641 6588 c-41 -123 -49 -170 -32 -197 15 -24 41 -5 41 31 0 45 15 68 23 36 4 -12 7 -33 7 -45 0 -36 20 -27 21 10 0 17 4 41 9 52 7 17 9 16 9 -10 2 -43 21 -11 21 34 0 35 -38 190 -50 204 -4 5 -26 -47 -49 -115z"
       id="path32"
       style="fill:#ff0033" />
    <path
       d="M3589 6624 c-13 -14 -93 -82 -176 -151 -84 -69 -153 -126 -153 -128 0 -2 16 -26 35 -54 53 -80 59 -163 12 -196 -31 -21 -38 -19 -27 11 19 48 11 106 -20 162 -17 28 -35 52 -40 52 -21 0 -44 -68 -48 -141 -5 -83 -3 -87 52 -99 l31 -7 -37 -8 c-21 -4 -38 -11 -38 -15 0 -11 90 -43 122 -43 52 0 245 147 357 273 35 39 60 74 57 78 -4 3 -25 5 -46 3 -107 -7 -116 36 -51 249 13 42 13 40 3 40 -5 0 -19 -12 -33 -26z"
       id="path34"
       style="fill:#ccccff" />
    <path
       d="M2430 6616 c0 -2 34 -27 75 -55 41 -28 75 -48 75 -46 0 17 -55 84 -76 94 -24 10 -74 16 -74 7z"
       id="path36"
       style="fill:#ccccff" />
    <path
       d="M2363 6563 c-28 -11 -9 -36 83 -109 105 -83 98 -69 78 -163 -5 -22 -1 -32 17 -45 42 -29 46 -22 42 62 -8 147 -45 211 -140 245 -53 18 -60 19 -80 10z"
       id="path38"
       style="fill:#ccccff" />
    <path
       d="M2205 6484 c-29 -31 -31 -48 -10 -97 25 -59 18 -140 -21 -267 -32 -102 -37 -131 -41 -254 -5 -134 1 -196 28 -283 14 -43 33 -42 102 6 30 22 72 47 92 57 19 9 40 25 45 34 5 10 21 21 35 24 31 8 40 39 31 109 -8 74 18 123 95 179 88 63 135 102 166 139 l27 32 -76 -7 c-76 -7 -76 -7 -125 28 -27 19 -63 53 -81 75 -35 44 -55 51 -70 25 -8 -15 -15 -11 -47 24 -20 23 -53 52 -73 64 -56 35 -17 34 66 -2 73 -31 126 -38 137 -19 10 15 -75 91 -144 127 -72 39 -104 40 -136 6z"
       id="path40"
       style="fill:#ccccff" />
    <path
       d="M3780 6496 c0 -3 5 -17 10 -31 12 -31 5 -46 -54 -125 -92 -124 -162 -190 -329 -310 -41 -30 -73 -58 -71 -62 9 -14 79 23 124 66 25 23 74 66 110 95 100 81 190 172 211 213 10 20 23 39 28 42 16 10 24 85 11 101 -11 14 -40 21 -40 11z"
       id="path42"
       style="fill:#cc0099" />
    <path
       d="M2594 6458 c4 -18 16 -84 28 -147 19 -100 23 -111 35 -95 36 49 -13 274 -60 274 -5 0 -7 -14 -3 -32z"
       id="path44"
       style="fill:#ccccff" />
    <path
       d="M2705 6318 c4 -57 9 -105 11 -106 5 -7 24 73 24 106 0 33 -24 102 -35 102 -4 0 -3 -46 0 -102z"
       id="path46"
       style="fill:#ccccff" />
    <path
       d="M3862 6388 c-12 -6 -45 -41 -72 -77 -27 -36 -67 -84 -89 -105 -22 -22 -38 -43 -35 -48 3 -4 52 -8 110 -8 63 0 104 -4 104 -10 0 -6 -45 -10 -115 -10 -80 0 -126 -4 -148 -15 -62 -28 -301 -219 -319 -254 -26 -51 -31 -54 -92 -47 -49 7 -60 12 -84 43 -22 30 -27 46 -26 92 1 31 4 68 8 82 6 20 2 32 -18 56 -23 27 -24 32 -11 43 10 9 15 31 15 73 l0 60 -77 -7 c-107 -9 -166 -30 -203 -72 -16 -19 -30 -40 -30 -46 0 -6 -19 -40 -42 -76 -40 -61 -42 -69 -55 -190 -34 -313 -51 -407 -89 -501 l-37 -92 13 -92 c6 -51 25 -157 41 -235 44 -218 36 -319 -31 -377 l-23 -20 8 25 c4 14 10 84 12 157 4 109 1 147 -15 220 -12 48 -26 126 -32 173 -12 93 -38 244 -46 273 -5 15 -25 -1 -102 -81 -70 -71 -112 -106 -150 -123 -59 -27 -57 -22 -67 -171 -3 -47 -10 -101 -15 -120 -27 -91 -3 -213 61 -318 87 -143 177 -232 247 -246 30 -6 39 -2 79 37 25 24 71 80 104 124 32 44 71 98 88 120 65 88 167 265 199 345 8 19 20 51 27 70 23 57 19 107 -9 125 -30 20 -65 100 -72 163 -8 66 29 176 96 286 77 126 90 204 45 270 l-25 36 30 -15 c37 -19 45 -35 61 -115 14 -74 23 -87 62 -94 36 -6 125 -82 170 -144 19 -26 58 -91 86 -144 69 -129 75 -129 174 -5 149 184 244 257 335 257 79 0 221 -54 293 -111 44 -35 56 -37 35 -7 -9 12 -16 29 -16 38 0 23 -73 137 -116 181 -23 24 -32 39 -24 39 8 0 47 -33 85 -74 54 -57 83 -100 128 -188 61 -122 78 -138 140 -138 44 0 108 19 130 38 13 11 16 24 11 48 -5 30 -2 35 34 61 58 40 67 61 54 125 -6 29 -20 98 -32 153 -11 55 -32 132 -47 170 -53 137 -165 248 -300 298 -62 23 -265 80 -278 79 -2 -1 -23 5 -46 13 -48 17 -65 18 -97 3z"
       id="path48"
       style="fill:#ccccff" />
    <path
       d="M2790 6345 c0 -44 1 -45 23 -34 12 7 33 20 46 30 l23 19 -23 8 c-71 27 -69 27 -69 -23z"
       id="path50"
       style="fill:#ff0033" />
    <path
       d="M2059 6138 c-51 -95 -126 -234 -167 -308 -41 -74 -87 -157 -102 -185 -14 -27 -52 -93 -82 -146 -71 -122 -182 -343 -210 -417 -11 -31 -24 -61 -28 -67 -15 -20 -79 -263 -100 -380 -32 -176 -34 -168 105 -735 31 -127 43 -301 26 -380 -7 -34 -30 -83 -60 -130 -27 -41 -75 -115 -107 -165 -32 -49 -82 -136 -111 -192 -45 -87 -50 -103 -34 -103 10 0 26 9 37 21 10 11 28 26 39 31 11 6 -14 -25 -56 -69 -58 -61 -78 -89 -84 -119 -7 -36 -23 -295 -19 -302 1 -2 24 26 52 61 53 68 135 137 212 178 101 54 159 104 206 177 19 29 34 55 34 58 0 2 22 39 50 82 45 70 59 102 45 102 -3 0 -24 -12 -46 -26 -23 -14 -43 -24 -45 -21 -2 2 9 20 25 40 34 43 46 113 35 205 -9 81 -17 92 -44 61 -12 -13 -19 -18 -15 -11 15 29 -15 9 -40 -28 -15 -22 -30 -39 -32 -37 -6 7 18 61 41 92 42 56 49 110 42 303 -34 936 -33 972 40 1235 27 98 152 397 165 397 16 0 15 -5 -80 -260 -84 -228 -114 -425 -115 -755 -1 -209 2 -256 22 -366 12 -70 34 -155 47 -190 14 -34 25 -67 25 -72 0 -13 174 -366 180 -365 3 0 43 40 89 89 l84 88 -10 48 c-6 26 -22 78 -36 116 -14 37 -24 67 -22 67 6 0 55 -105 55 -118 0 -18 34 -72 46 -72 16 0 44 34 44 54 0 10 -9 29 -20 43 -11 14 -20 35 -20 47 0 16 8 9 30 -26 17 -27 33 -48 37 -48 4 0 31 23 60 52 46 45 51 55 46 82 -6 30 -6 31 14 13 19 -17 21 -16 46 9 24 24 27 34 27 98 1 76 22 186 61 305 l24 73 -22 17 c-12 9 -54 39 -94 66 -59 41 -83 66 -130 138 -73 111 -95 156 -116 241 -16 65 -16 75 0 170 21 123 23 286 4 286 -22 0 -87 74 -97 111 -13 44 -13 110 0 144 9 23 6 32 -15 56 -22 27 -24 36 -18 92 6 63 27 101 63 112 28 9 41 52 34 114 -5 43 0 80 19 156 68 268 78 318 69 327 -6 6 -43 -53 -103 -164z"
       id="path52"
       style="fill:#ff3300" />
    <path
       d="M3123 6233 c-18 -45 -13 -131 11 -165 15 -21 16 -15 16 90 0 61 -2 112 -6 112 -3 0 -12 -17 -21 -37z"
       id="path54"
       style="fill:#ff0033" />
    <path
       d="M2591 5957 c-64 -50 -69 -60 -37 -75 21 -9 24 -19 31 -89 12 -143 10 -167 -20 -225 -40 -76 -46 -106 -34 -152 l11 -41 18 40 c27 62 49 176 60 309 6 66 15 155 20 196 4 41 8 76 7 77 -1 0 -26 -18 -56 -40z"
       id="path56"
       style="fill:#ff3300" />
    <path
       d="M3196 5975 c5 -22 2 -28 -25 -38 -17 -6 -31 -17 -31 -24 0 -7 7 -10 15 -6 13 5 14 2 4 -21 -18 -38 -4 -43 25 -10 l25 29 -6 -37 c-5 -31 -3 -38 11 -38 10 0 16 9 16 24 0 14 5 28 10 31 6 3 10 -3 10 -14 0 -12 3 -21 8 -21 4 0 5 29 2 66 -6 66 -17 84 -53 84 -14 0 -16 -5 -11 -25z"
       id="path58"
       style="fill:#cc0099" />
    <path
       d="M4731 5768 c34 -64 74 -114 184 -233 67 -71 168 -184 225 -249 77 -87 132 -139 205 -192 55 -40 133 -96 174 -126 92 -67 261 -242 324 -336 27 -40 50 -72 52 -72 6 0 -42 137 -66 190 -108 237 -188 329 -470 538 -86 64 -279 217 -503 400 -69 56 -128 102 -131 102 -3 0 0 -10 6 -22z"
       id="path60"
       style="fill:#ff6600" />
    <path
       d="M4700 5720 c0 -34 27 -87 44 -87 20 0 21 -1 -9 57 -28 55 -35 61 -35 30z"
       id="path62"
       style="fill:#ff3333" />
    <path
       d="M2421 5671 c-17 -11 -7 -41 12 -41 19 0 40 26 32 40 -8 12 -25 13 -44 1z"
       id="path64"
       style="fill:#cc33ff" />
    <path
       d="M3040 5658 c-91 -63 -165 -291 -129 -399 11 -32 46 -79 58 -79 3 0 5 41 3 91 -4 109 12 114 22 7 8 -88 31 -165 59 -196 20 -21 73 -42 111 -42 21 0 21 0 -22 113 -17 42 -26 77 -20 77 5 0 16 -17 24 -37 25 -64 38 -85 70 -120 37 -39 82 -44 120 -14 l23 18 -23 22 c-21 20 -57 111 -55 142 0 8 15 -15 32 -51 36 -72 74 -103 104 -84 19 12 19 18 7 144 -7 71 -10 79 -83 190 -42 63 -92 136 -111 162 -58 78 -127 98 -190 56z"
       id="path66"
       style="fill:#cc0099" />
    <path
       d="M2013 5648 c-26 -34 -24 -38 16 -38 37 0 41 2 41 25 0 20 -5 25 -24 25 -13 0 -28 -6 -33 -12z"
       id="path68"
       style="fill:#cc33ff" />
    <path
       d="M3860 5633 c-40 -17 -131 -87 -181 -139 -137 -146 -176 -261 -123 -365 24 -49 136 -131 148 -110 3 5 1 34 -5 64 -11 55 -4 187 9 187 4 0 7 -44 7 -97 0 -83 4 -105 23 -140 32 -61 63 -78 140 -78 59 0 66 2 92 31 33 38 69 130 77 197 3 26 10 50 15 54 6 3 8 -6 4 -23 -3 -16 -11 -62 -16 -103 -6 -41 -13 -84 -16 -97 -6 -22 -3 -24 32 -24 50 0 95 28 125 76 20 34 24 55 29 159 5 119 5 120 19 78 10 -29 12 -66 8 -118 -3 -48 -2 -75 5 -75 5 0 25 15 44 34 44 44 47 104 9 156 -14 19 -25 41 -25 50 0 9 -7 39 -16 66 -36 107 -192 214 -323 220 -36 2 -73 1 -81 -3z"
       id="path70"
       style="fill:#cc0099" />
    <path
       d="M2345 5610 c-15 -16 -15 -22 -5 -35 16 -19 20 -19 48 3 l24 18 -25 17 c-23 15 -26 15 -42 -3z"
       id="path72"
       style="fill:#cc33ff" />
    <path
       d="M4786 5590 c3 -14 13 -37 20 -52 13 -24 12 -33 -1 -65 l-16 -37 75 -75 c76 -78 121 -142 173 -246 54 -108 93 -255 93 -352 0 -47 10 -78 66 -202 37 -80 74 -162 84 -181 17 -33 32 -67 115 -243 21 -43 42 -76 49 -74 7 2 12 57 14 170 1 92 6 167 11 167 5 0 8 -100 7 -222 -1 -155 2 -222 10 -225 19 -6 38 235 31 393 -4 109 -12 164 -36 256 -17 64 -35 125 -40 135 -5 10 -23 45 -39 78 -37 75 -70 135 -86 155 -7 8 -31 45 -54 81 -22 36 -86 123 -142 193 -123 154 -344 383 -334 346z"
       id="path74"
       style="fill:#ff3333" />
    <path
       d="M2380 5544 c-41 -25 -106 -65 -145 -88 l-70 -42 3 -60 c2 -32 5 -60 7 -62 9 -10 67 33 115 86 86 95 182 212 173 211 -4 0 -42 -20 -83 -45z"
       id="path76"
       style="fill:#ccccff" />
    <path
       d="M2008 5555 c-9 -20 -9 -28 1 -38 10 -9 17 -7 32 12 22 27 21 44 -4 49 -10 2 -21 -7 -29 -23z"
       id="path78"
       style="fill:#cc33ff" />
    <path
       d="M2252 5558 c-16 -16 -15 -33 3 -48 12 -10 21 -10 45 0 l31 13 -22 23 c-25 27 -39 30 -57 12z"
       id="path80"
       style="fill:#cc33ff" />
    <path
       d="M2070 5515 c-12 -22 -12 -28 3 -42 13 -13 19 -14 31 -3 21 17 20 33 -2 53 -18 16 -19 16 -32 -8z"
       id="path82"
       style="fill:#cc33ff" />
    <path
       d="M2170 5509 c-12 -22 -7 -49 9 -49 5 0 19 8 31 18 l22 18 -25 17 c-25 16 -27 16 -37 -4z"
       id="path84"
       style="fill:#cc33ff" />
    <path
       d="M2446 5521 c-8 -12 13 -49 32 -56 15 -5 25 16 20 42 -4 20 -42 30 -52 14z"
       id="path86"
       style="fill:#cc33ff" />
    <path
       d="M4613 5515 c-3 -9 2 -24 12 -35 16 -17 16 -21 1 -35 -23 -23 -122 -65 -170 -71 -38 -6 -81 2 -128 21 -14 6 -18 2 -18 -18 0 -76 69 -118 164 -99 69 14 110 32 162 70 65 47 94 131 58 166 -20 21 -73 21 -81 1z"
       id="path88"
       style="fill:#cc0099" />
    <path
       d="M2375 5460 c-18 -19 -18 -21 0 -40 34 -37 95 -4 69 38 -16 25 -47 26 -69 2z"
       id="path90"
       style="fill:#cc33ff" />
    <path
       d="M2015 5419 c-7 -10 31 -59 46 -59 14 0 21 41 9 55 -15 18 -46 20 -55 4z"
       id="path92"
       style="fill:#cc33ff" />
    <path
       d="M4678 5368 c-72 -73 -152 -112 -260 -130 -18 -3 -11 -26 57 -173 78 -168 157 -360 195 -475 75 -227 114 -297 310 -553 334 -439 357 -472 545 -807 82 -145 106 -170 185 -191 83 -21 187 31 217 110 11 30 10 33 -13 42 -14 5 -32 9 -40 9 -8 0 -14 5 -14 10 0 6 19 10 43 10 23 0 58 8 77 18 42 21 100 95 100 128 0 20 -5 24 -29 24 -22 0 -48 -16 -96 -56 -53 -45 -69 -54 -76 -43 -5 8 -9 17 -9 20 0 3 -21 4 -47 2 -62 -5 -49 8 42 42 39 15 90 38 114 52 54 32 112 34 149 6 15 -11 28 -27 30 -36 5 -25 -45 -95 -86 -121 -44 -28 -92 -81 -92 -102 0 -8 -12 -32 -26 -54 -15 -22 -24 -43 -21 -46 13 -14 106 -5 162 14 105 36 187 43 310 27 137 -18 228 -20 223 -3 -10 29 -178 88 -251 88 -21 0 -65 -9 -98 -20 -34 -12 -63 -19 -65 -17 -2 2 5 15 15 29 29 36 82 47 281 57 96 6 183 13 192 16 21 8 32 36 17 45 -18 12 -148 23 -259 23 -103 0 -106 -1 -170 -37 -36 -21 -76 -48 -91 -62 -50 -48 -69 -18 -20 32 16 17 74 54 128 83 54 29 105 57 113 62 8 5 40 22 71 38 65 35 139 113 139 147 0 30 -12 30 -80 -2 -30 -14 -109 -48 -174 -75 -66 -27 -135 -61 -153 -75 -27 -20 -37 -23 -48 -14 -12 10 5 35 94 145 78 95 110 144 115 170 4 20 5 40 2 43 -9 8 -88 -58 -218 -179 -125 -117 -151 -133 -262 -155 -39 -7 -99 -22 -133 -33 -34 -10 -64 -16 -67 -13 -3 3 -6 16 -6 29 0 12 -96 215 -214 450 -118 236 -224 451 -234 478 -44 111 -153 324 -197 385 -160 217 -187 268 -235 445 -33 126 -69 237 -79 245 -3 3 -32 -21 -63 -52z"
       id="path94"
       style="fill:#ccccff" />
    <path
       d="M2323 5364 c-3 -8 1 -22 8 -29 12 -12 18 -11 37 5 22 18 22 19 3 29 -27 15 -41 14 -48 -5z"
       id="path96"
       style="fill:#cc33ff" />
    <path
       d="M2036 5331 c-15 -16 -15 -20 -1 -31 12 -10 20 -9 41 5 24 16 25 17 7 30 -24 19 -27 18 -47 -4z"
       id="path98"
       style="fill:#cc33ff" />
    <path
       d="M2252 5298 c-16 -16 -15 -33 2 -47 10 -9 19 -7 37 8 20 16 21 21 10 35 -16 19 -33 20 -49 4z"
       id="path100"
       style="fill:#cc33ff" />
    <path
       d="M4879 5294 c30 -61 73 -209 82 -279 12 -97 25 -124 89 -195 l49 -55 1 33 c0 53 -38 208 -69 276 -15 34 -44 87 -64 117 -40 61 -104 135 -88 103z"
       id="path102"
       style="fill:#ff0000" />
    <path
       d="M3452 5278 c-20 -20 -15 -76 7 -88 27 -14 28 -14 40 21 20 58 -11 103 -47 67z"
       id="path104"
       style="fill:#cc33ff" />
    <path
       d="M4847 5250 c3 -19 16 -65 29 -101 13 -37 24 -73 24 -80 1 -8 7 -27 16 -44 14 -30 14 -30 10 21 -6 70 -31 151 -61 199 l-25 40 7 -35z"
       id="path106"
       style="fill:#ff0033" />
    <path
       d="M2080 5255 c-14 -17 -5 -35 19 -35 26 0 44 23 29 38 -16 16 -33 15 -48 -3z"
       id="path108"
       style="fill:#cc33ff" />
    <path
       d="M4263 5090 c-113 -104 -153 -127 -243 -136 -132 -15 -222 -10 -270 12 -25 12 -62 28 -83 35 -51 18 -113 72 -138 120 -10 21 -26 39 -33 39 -7 0 -33 -25 -56 -56 -40 -53 -41 -58 -29 -82 21 -41 85 -101 184 -174 50 -37 97 -73 105 -80 8 -7 28 -23 43 -35 71 -55 132 -178 109 -220 -8 -14 -12 -9 -22 28 -35 128 -81 147 -160 64 -32 -33 -35 -41 -35 -98 1 -64 11 -94 76 -233 l33 -72 55 35 c30 19 64 37 75 39 125 26 159 28 253 14 54 -7 159 -14 233 -14 124 -1 139 1 185 23 72 36 125 87 125 121 0 30 -52 206 -76 257 -8 18 -21 50 -28 70 -8 21 -25 64 -40 95 -14 31 -26 60 -26 64 0 4 -9 25 -19 48 -11 23 -38 83 -62 134 -23 50 -46 92 -51 92 -4 0 -52 -41 -105 -90z"
       id="path110"
       style="fill:#ccccff" />
    <path
       d="M3009 5032 c-12 -20 -44 -80 -71 -132 -28 -52 -80 -151 -116 -219 -72 -137 -73 -135 38 -74 89 50 238 199 273 275 15 32 30 71 33 86 6 28 2 31 -64 65 l-71 36 -22 -37z"
       id="path112"
       style="fill:#ff3333" />
    <path
       d="M5332 5018 c83 -127 180 -336 194 -417 3 -20 12 -70 21 -111 19 -94 20 -302 3 -441 -20 -165 -13 -208 49 -330 30 -57 67 -126 82 -154 16 -27 31 -54 33 -60 8 -17 23 15 59 120 66 193 80 278 85 507 4 199 3 211 -24 315 -54 217 -170 371 -387 516 -63 42 -118 77 -122 77 -4 0 -1 -10 7 -22z"
       id="path114"
       style="fill:#ff0000" />
    <path
       d="M3214 5009 c-6 -8 -34 -63 -64 -123 -62 -127 -152 -232 -235 -273 -309 -156 -505 -415 -505 -667 0 -86 6 -100 30 -71 9 10 11 32 6 68 -13 113 36 257 117 347 53 58 80 75 44 26 -104 -136 -140 -224 -135 -335 l3 -71 58 45 c61 49 97 96 97 131 0 51 34 126 87 196 103 132 206 251 318 368 125 129 157 177 180 268 18 69 18 115 -1 91z"
       id="path116"
       style="fill:#ff6600" />
    <path
       d="M3283 5010 c-20 -8 -23 -17 -23 -61 0 -81 -53 -182 -158 -302 -153 -175 -202 -256 -215 -354 -3 -25 -1 -43 5 -43 14 0 204 126 281 188 37 29 80 72 95 94 15 23 30 46 34 52 23 33 67 147 72 189 4 26 12 47 18 47 6 0 8 -10 5 -22 -6 -32 -44 -169 -53 -193 -5 -13 -4 -17 3 -10 5 6 20 38 33 73 22 61 40 87 40 59 0 -8 -11 -39 -24 -68 -27 -63 -41 -119 -29 -119 5 0 55 47 112 104 l104 105 -74 86 c-41 48 -88 106 -106 130 -41 55 -68 66 -120 45z"
       id="path118"
       style="fill:#ff3333" />
    <path
       d="M3634 4708 c-100 -24 -189 -135 -201 -251 -10 -95 21 -180 116 -320 45 -65 51 -115 18 -145 -16 -15 -34 -22 -49 -20 -22 3 -22 4 9 21 40 21 48 48 28 87 -13 26 -21 30 -55 30 -73 0 -113 -64 -96 -155 9 -48 54 -76 116 -73 38 2 52 9 94 47 l49 46 -7 -71 c-7 -76 3 -117 33 -130 80 -33 159 -16 216 47 33 36 36 46 31 78 -7 48 -47 83 -84 75 -47 -11 -54 -23 -47 -73 l7 -46 -21 19 c-26 24 -27 50 0 92 28 46 62 67 146 93 117 35 181 39 331 24 152 -16 267 -11 312 12 16 9 32 15 35 15 31 -2 145 105 145 137 0 19 -48 93 -61 93 -5 0 -34 -16 -64 -36 -129 -82 -249 -102 -420 -69 -134 25 -214 28 -288 11 -86 -20 -118 -37 -179 -93 l-48 -46 0 49 c0 39 -11 71 -54 159 -85 173 -84 233 5 331 68 75 66 82 -17 62z"
       id="path120"
       style="fill:#cc0099" />
    <path
       d="M3270 4436 c-293 -186 -479 -325 -762 -571 -246 -214 -613 -583 -724 -728 -104 -137 -131 -182 -225 -377 -99 -205 -109 -226 -290 -645 -54 -122 -76 -255 -60 -349 6 -38 20 -88 30 -111 19 -42 267 -324 343 -390 24 -20 72 -51 108 -68 60 -29 74 -32 191 -35 161 -5 504 13 634 33 55 9 120 18 145 20 52 5 115 17 215 40 38 9 85 18 105 21 19 2 82 16 140 30 58 14 159 38 225 54 66 16 170 42 230 56 61 15 121 28 135 30 14 1 63 11 110 22 95 22 171 37 182 34 4 -1 30 3 57 8 109 21 329 48 387 49 87 1 105 10 121 62 24 75 39 175 31 205 -4 16 -3 45 2 64 13 48 -7 76 -62 85 -63 11 -272 82 -390 134 -27 11 -48 18 -48 15 0 -2 -13 2 -30 11 -16 8 -62 27 -102 41 -40 14 -77 30 -83 35 -5 5 -27 9 -49 9 -31 0 -95 -27 -286 -121 -135 -67 -310 -153 -390 -192 -269 -130 -305 -149 -322 -164 -9 -8 -19 -36 -23 -62 -11 -79 -55 -135 -149 -189 l-38 -23 55 62 c52 57 115 164 104 175 -3 3 -31 -12 -63 -32 -67 -43 -184 -83 -249 -86 -63 -2 -66 8 -8 25 50 15 189 83 418 206 72 39 162 85 200 103 124 57 678 338 743 376 151 89 214 132 407 278 115 87 428 412 553 574 202 263 277 461 252 663 -10 79 -20 96 -156 275 l-90 119 -32 -37 c-46 -55 -134 -109 -214 -132 -57 -16 -88 -19 -167 -14 -274 16 -358 18 -398 7 -24 -7 -43 -17 -43 -24 0 -6 10 -35 21 -63 28 -67 21 -109 -28 -159 -48 -49 -105 -75 -170 -75 -44 0 -58 5 -86 30 -19 16 -46 47 -61 69 l-27 39 -58 -5 c-95 -9 -157 37 -168 124 -8 68 9 111 62 163 l44 43 -24 46 c-29 58 -52 138 -61 214 -3 32 -11 57 -18 57 -6 0 -49 -24 -96 -54z"
       id="path122"
       style="fill:#666699" />
    <path
       d="M5864 4445 c23 -152 26 -279 12 -445 -15 -180 -36 -270 -92 -401 -28 -67 -41 -143 -26 -153 12 -7 78 31 103 60 28 33 117 270 130 347 10 60 10 90 0 149 -26 155 -76 355 -103 413 -20 43 -27 51 -24 30z"
       id="path124"
       style="fill:#ff0000" />
    <path
       d="M1310 4432 c0 -25 27 -240 36 -279 3 -18 4 -33 1 -33 -3 0 -13 34 -22 75 -18 80 -31 95 -39 43 -3 -18 -11 -67 -18 -108 -25 -152 -12 -547 24 -700 17 -74 40 -131 52 -127 21 7 93 122 121 191 37 94 37 176 2 326 -15 63 -39 167 -53 230 -14 63 -37 160 -50 215 -13 55 -26 119 -30 143 -6 41 -24 59 -24 24z"
       id="path126"
       style="fill:#ff6600" />
    <path
       d="M2796 4323 c-25 -32 -59 -83 -75 -113 -29 -56 -49 -130 -34 -130 15 0 134 112 147 139 17 33 30 161 17 161 -5 0 -30 -26 -55 -57z"
       id="path128"
       style="fill:#ff0033" />
    <path
       d="M7319 3802 c-144 -100 -294 -204 -389 -271 -47 -33 -111 -86 -143 -119 l-58 -58 22 -28 c17 -22 20 -34 14 -64 -11 -52 -10 -86 3 -177 17 -115 53 -214 118 -325 15 -25 35 -60 44 -78 l18 -33 23 37 c54 87 178 357 223 484 15 41 36 98 46 125 21 55 77 223 138 415 22 69 43 133 47 143 11 27 -3 20 -106 -51z"
       id="path130"
       style="fill:#cc99ff" />
    <path
       d="M5090 3733 c0 -107 -29 -221 -86 -341 -29 -62 -65 -127 -80 -145 -25 -29 -26 -36 -22 -107 6 -99 52 -191 135 -272 69 -67 143 -95 221 -83 26 4 50 9 53 11 4 2 -8 32 -26 66 -61 116 -94 277 -76 373 l9 50 1 -52 c3 -137 34 -265 88 -364 22 -41 66 -80 77 -68 2 2 -14 47 -35 100 -52 130 -63 212 -55 440 l6 185 -49 70 c-27 38 -68 97 -92 132 -54 79 -69 80 -69 5z"
       id="path132"
       style="fill:#ff0000" />
    <path
       d="M5981 3728 c-5 -18 -30 -78 -55 -133 -25 -55 -42 -103 -38 -107 4 -3 28 -2 55 4 55 13 53 8 62 161 6 108 -4 140 -24 75z"
       id="path134"
       style="fill:#ff0033" />
    <path
       d="M1670 3697 c0 -91 69 -497 85 -497 13 0 105 109 105 124 0 10 -43 104 -95 209 -62 124 -95 181 -95 164z"
       id="path136"
       style="fill:#ff3333" />
    <path
       d="M6595 3442 c-33 -26 -70 -55 -83 -64 l-23 -16 23 -5 c13 -3 50 -9 83 -12 48 -6 63 -4 73 8 15 18 12 129 -3 134 -6 2 -38 -18 -70 -45z"
       id="path138"
       style="fill:#ff0033" />
    <path
       d="M5316 3463 c-13 -47 -17 -256 -6 -329 31 -211 109 -364 187 -364 13 0 23 3 21 8 -35 69 -78 165 -88 192 -16 47 -40 239 -40 325 0 53 -6 83 -24 121 -27 58 -42 72 -50 47z"
       id="path140"
       style="fill:#ff0000" />
    <path
       d="M5430 3218 c0 -95 23 -205 57 -272 44 -87 110 -171 167 -213 33 -25 62 -40 64 -34 2 6 -3 34 -11 63 -20 70 -32 168 -18 148 14 -20 21 -10 24 36 2 36 -1 40 -45 64 -69 38 -82 53 -155 177 -37 63 -70 116 -75 119 -4 3 -8 -37 -8 -88z"
       id="path142"
       style="fill:#ff3333" />
    <path
       d="M6606 3182 c-2 -4 11 -21 30 -36 29 -23 35 -33 32 -59 -2 -26 -11 -36 -40 -50 -21 -10 -38 -22 -38 -26 0 -4 45 -51 100 -104 55 -52 100 -95 100 -94 0 8 -33 154 -56 242 -15 61 -29 116 -30 123 -4 13 -90 17 -98 4z"
       id="path144"
       style="fill:#ff0033" />
    <path
       d="M4560 2823 c-151 -157 -288 -301 -304 -320 l-29 -35 49 25 c27 13 59 28 71 31 13 4 64 30 115 59 83 45 100 51 160 53 57 3 76 -1 125 -26 32 -16 78 -46 101 -66 24 -20 44 -35 46 -33 1 2 23 40 47 83 40 72 49 81 97 104 67 30 99 26 230 -29 l95 -41 62 32 c63 32 118 40 185 25 16 -4 30 -3 30 2 0 27 -171 50 -388 54 -140 2 -173 16 -267 114 -56 58 -79 91 -104 150 -17 41 -31 81 -31 90 0 8 -3 15 -7 15 -5 0 -132 -129 -283 -287z"
       id="path146"
       style="fill:#ff3333" />
    <path
       d="M6154 3039 c-28 -11 -59 -27 -67 -37 -15 -17 -15 -22 3 -72 11 -30 20 -56 20 -57 0 -1 -7 0 -16 4 -14 5 -15 3 -4 -18 7 -13 30 -49 50 -79 57 -85 57 -89 0 -35 -44 42 -51 46 -45 25 17 -58 52 -107 142 -201 52 -55 92 -103 89 -106 -3 -4 -17 4 -31 17 l-25 23 0 -28 c0 -47 30 -156 62 -223 23 -48 51 -84 126 -155 357 -342 504 -567 541 -834 12 -77 17 -85 32 -47 10 26 8 62 -6 149 -4 22 -1 19 11 -13 46 -124 45 86 -2 358 -16 94 -41 253 -54 345 -18 133 -68 207 -234 343 -37 31 -63 58 -57 60 12 4 101 -68 194 -157 l57 -55 0 34 c0 19 -5 71 -11 115 -27 206 -64 274 -215 405 -54 47 -132 117 -174 157 -69 65 -81 73 -143 87 -91 21 -180 20 -243 -5z m863 -1631 c-3 -8 -6 -5 -6 6 -1 11 2 17 5 13 3 -3 4 -12 1 -19z"
       id="path148"
       style="fill:#ff3300" />
    <path
       d="M5870 2953 c0 -84 20 -142 79 -229 46 -67 119 -128 168 -140 38 -10 38 2 0 48 -52 63 -77 135 -84 244 -4 67 -10 98 -22 108 -14 12 -102 36 -131 36 -6 0 -10 -30 -10 -67z"
       id="path150"
       style="fill:#ff0000" />
    <path
       d="M5734 2973 c3 -10 8 -40 11 -68 8 -56 34 -155 45 -170 4 -5 13 -27 20 -48 11 -36 117 -155 140 -158 16 -2 23 -4 72 -18 57 -16 178 -7 178 14 0 7 -15 16 -32 19 -56 10 -155 63 -195 103 -60 60 -99 137 -124 246 l-22 97 -49 0 c-42 0 -49 -3 -44 -17z"
       id="path152"
       style="fill:#ff0000" />
    <path
       d="M5731 2799 c-1 -40 27 -124 49 -144 20 -18 15 -2 -43 155 -3 9 -6 5 -6 -11z"
       id="path154"
       style="fill:#ff0033" />
    <path
       d="M1460 2762 c-205 -113 -306 -212 -341 -335 -11 -40 5 -25 41 39 37 67 99 135 146 163 48 28 42 12 -11 -32 -39 -33 -105 -115 -105 -131 0 -10 210 156 240 190 31 35 85 123 79 128 -2 1 -24 -9 -49 -22z"
       id="path156"
       style="fill:#ff3333" />
    <path
       d="M5048 2650 c-37 -20 -81 -82 -93 -130 -7 -30 -162 -214 -169 -201 -3 4 15 34 39 67 25 32 45 62 45 66 0 12 -95 90 -135 111 -41 21 -114 28 -170 15 -16 -3 -68 -28 -115 -55 -104 -60 -173 -86 -269 -104 -62 -11 -90 -23 -160 -68 -47 -31 -98 -62 -113 -70 -22 -11 -25 -17 -17 -28 6 -7 19 -13 28 -13 9 0 48 -13 86 -29 138 -57 210 -85 226 -88 8 -1 28 -9 43 -17 25 -13 29 -12 49 6 12 11 59 44 103 73 93 62 151 76 269 66 60 -5 77 -11 111 -38 22 -17 49 -49 60 -70 10 -21 31 -50 47 -64 29 -29 34 -57 16 -91 -6 -11 -9 -22 -6 -24 2 -2 34 5 71 16 98 31 123 23 209 -66 73 -76 106 -94 208 -113 l44 -8 -47 -7 c-80 -14 -144 13 -232 94 -42 39 -84 71 -93 71 -93 7 -127 -10 -152 -75 -11 -29 -23 -70 -27 -92 -11 -58 -32 -103 -74 -160 -22 -29 -37 -54 -35 -56 3 -2 39 -1 82 3 86 9 441 38 543 45 36 3 108 14 160 26 52 11 113 24 135 28 57 12 245 79 273 97 13 8 32 16 43 18 11 2 32 13 47 23 15 11 45 29 67 40 22 11 96 61 163 112 l124 91 -49 52 c-76 81 -118 159 -144 268 l-23 96 -40 -4 c-106 -9 -146 -25 -283 -112 -126 -81 -177 -111 -182 -106 -2 3 -2 6 0 8 2 2 42 27 89 57 47 29 116 73 153 97 l68 44 -143 70 c-207 103 -230 111 -321 111 -64 0 -87 -5 -130 -26 -74 -37 -135 -93 -213 -196 -37 -50 -69 -89 -71 -87 -13 14 128 211 170 239 27 17 -115 97 -183 104 -33 3 -55 -1 -82 -16z"
       id="path158"
       style="fill:#cc99ff" />
    <path
       d="M1328 2542 c-40 -37 -109 -98 -152 -137 -43 -38 -85 -84 -92 -102 -17 -41 -18 -80 -1 -86 8 -3 6 -11 -8 -27 -17 -20 -17 -22 -3 -17 15 5 15 3 -2 -26 -17 -28 -28 -107 -15 -107 2 0 44 29 93 65 86 64 89 66 122 147 18 46 53 128 77 183 70 156 73 164 64 170 -5 3 -42 -25 -83 -63z"
       id="path160"
       style="fill:#ff6600" />
    <path
       d="M4612 2228 c-7 -7 -8 -17 -1 -30 12 -22 32 -23 49 -3 23 28 -21 60 -48 33z"
       id="path162"
       style="fill:#cc33ff" />
    <path
       d="M4717 2213 c-10 -9 -8 -35 2 -52 8 -12 13 -11 29 10 15 17 17 28 10 37 -11 13 -31 16 -41 5z"
       id="path164"
       style="fill:#cc33ff" />
    <path
       d="M4618 2153 c-25 -6 -22 -19 11 -42 16 -11 36 -38 44 -60 21 -51 62 -83 101 -79 28 3 31 6 30 34 -4 92 -102 169 -186 147z"
       id="path166"
       style="fill:#ccccff" />
    <path
       d="M4789 2144 c-9 -11 -10 -20 -2 -32 14 -23 34 -26 58 -8 19 14 19 15 1 35 -23 25 -39 27 -57 5z"
       id="path168"
       style="fill:#cc33ff" />
    <path
       d="M4415 2130 c-15 -16 -15 -22 -5 -35 17 -20 33 -19 54 3 15 18 15 20 -2 35 -23 21 -25 21 -47 -3z"
       id="path170"
       style="fill:#cc33ff" />
    <path
       d="M4494 2115 c-4 -8 2 -27 11 -42 l18 -26 18 24 c29 37 25 59 -11 59 -18 0 -33 -6 -36 -15z"
       id="path172"
       style="fill:#cc33ff" />
    <path
       d="M4585 2080 c-17 -19 -17 -21 0 -40 23 -26 29 -25 45 5 11 20 11 27 0 40 -16 20 -23 19 -45 -5z"
       id="path174"
       style="fill:#cc33ff" />
    <path
       d="M1123 2025 c-29 -31 -43 -54 -43 -72 0 -30 -2 -32 69 55 62 75 43 88 -26 17z"
       id="path176"
       style="fill:#ff3333" />
    <path
       d="M4845 2040 c-33 -37 18 -67 60 -36 19 14 19 15 1 35 -24 26 -38 26 -61 1z"
       id="path178"
       style="fill:#cc33ff" />
    <path
       d="M4630 1985 c-12 -22 -11 -27 5 -45 19 -20 19 -20 38 -1 19 19 19 20 1 45 -24 32 -27 32 -44 1z"
       id="path180"
       style="fill:#cc33ff" />
    <path
       d="M4860 1945 c-16 -19 -9 -49 14 -53 30 -6 42 14 26 43 -15 29 -23 31 -40 10z"
       id="path182"
       style="fill:#cc33ff" />
    <path
       d="M4706 1921 c-3 -4 -1 -54 4 -111 9 -108 7 -125 -16 -134 -14 -5 -20 -66 -6 -66 4 0 17 22 30 48 13 26 34 67 47 92 47 88 67 150 54 166 -13 15 -104 20 -113 5z"
       id="path184"
       style="fill:#ccccff" />
    <path
       d="M6600 1910 c0 -8 11 -36 24 -61 53 -99 70 -237 41 -334 -22 -73 -88 -177 -143 -226 -87 -80 -96 -98 -103 -212 -3 -56 -14 -145 -23 -197 -47 -259 -56 -293 -72 -278 -4 4 1 23 10 42 14 29 15 55 10 165 -4 72 -11 131 -15 131 -4 0 -19 -4 -32 -9 -25 -10 -57 -73 -57 -111 0 -37 -20 -20 -21 18 l-1 37 -13 -30 -14 -30 -1 29 c0 23 -3 27 -17 21 -10 -4 -40 -16 -68 -27 -103 -40 -114 -48 -124 -87 -10 -40 -41 -363 -41 -429 0 -47 -9 -45 95 -22 28 6 52 10 55 9 15 -6 92 47 140 96 30 31 76 70 102 86 26 17 61 49 78 72 34 47 40 41 9 -10 -26 -42 -15 -58 15 -21 25 32 33 34 38 13 2 -12 20 -7 87 27 149 76 239 178 295 336 42 118 46 316 10 476 -5 19 -3 27 3 23 6 -4 14 -28 18 -54 3 -27 17 -91 30 -143 13 -52 25 -108 27 -125 4 -42 21 -34 36 17 15 53 9 119 -24 251 -30 121 -79 226 -157 340 -67 98 -196 240 -197 217z"
       id="path186"
       style="fill:#ff3300" />
    <path
       d="M1111 1848 c-23 -17 -61 -58 -82 -91 -32 -49 -39 -69 -39 -109 0 -93 44 -126 46 -35 2 69 21 112 78 176 25 28 46 61 46 71 0 24 4 25 -49 -12z"
       id="path188"
       style="fill:#ff3333" />
    <path
       d="M4625 1870 c-9 -15 4 -47 22 -54 9 -4 24 1 35 10 17 16 17 18 2 36 -19 20 -49 24 -59 8z"
       id="path190"
       style="fill:#cc33ff" />
    <path
       d="M4823 1835 c-3 -9 2 -24 12 -35 13 -15 22 -17 36 -9 24 12 24 28 2 45 -24 18 -42 17 -50 -1z"
       id="path192"
       style="fill:#cc33ff" />
    <path
       d="M4626 1758 c-20 -28 -20 -52 -1 -68 12 -10 20 -9 40 4 30 19 32 46 7 69 -24 22 -28 21 -46 -5z"
       id="path194"
       style="fill:#cc33ff" />
    <path
       d="M4794 1735 c-7 -17 12 -45 30 -45 6 0 20 8 31 16 20 15 20 15 1 30 -26 18 -55 18 -62 -1z"
       id="path196"
       style="fill:#cc33ff" />
    <path
       d="M4740 1655 c-12 -22 -11 -27 5 -45 18 -20 19 -20 38 -2 18 19 18 21 2 46 -21 32 -28 33 -45 1z"
       id="path198"
       style="fill:#cc33ff" />
    <path
       d="M4595 1630 c-17 -19 -17 -21 0 -40 22 -25 37 -25 59 -2 15 18 15 20 -1 34 -32 27 -40 28 -58 8z"
       id="path200"
       style="fill:#cc33ff" />
    <path
       d="M4690 1555 c-14 -17 -7 -45 12 -45 7 0 22 8 33 16 20 15 20 15 1 30 -25 18 -31 18 -46 -1z"
       id="path202"
       style="fill:#cc33ff" />
    <path
       d="M4560 1525 l-23 -25 23 -25 c22 -23 25 -24 42 -8 22 20 22 32 0 61 l-18 23 -24 -26z"
       id="path204"
       style="fill:#cc33ff" />
    <path
       d="M4372 1484 c-25 -17 -27 -33 -9 -58 12 -16 15 -14 29 23 18 46 12 57 -20 35z"
       id="path206"
       style="fill:#cc33ff" />
    <path
       d="M4492 1429 c5 -34 34 -47 55 -26 16 16 16 18 -2 32 -30 22 -57 19 -53 -6z"
       id="path208"
       style="fill:#cc33ff" />
    <path
       d="M5896 571 c-6 -10 -169 -80 -200 -87 -37 -7 -111 -38 -128 -52 -15 -13 -18 -33 -18 -122 0 -125 -11 -164 -49 -179 -23 -10 -36 -8 -76 9 -50 21 -58 20 -69 -16 -17 -56 85 -95 155 -59 18 10 59 42 90 72 40 38 56 48 52 34 -7 -26 -7 -26 118 5 140 34 144 39 152 185 9 156 -3 249 -27 210z"
       id="path210"
       style="fill:#ff3300" />
  </g>
</svg>
