<?xml version="1.0" encoding="UTF-8" standalone="no"?>
<svg
   xmlns:dc="http://purl.org/dc/elements/1.1/"
   xmlns:cc="http://creativecommons.org/ns#"
   xmlns:rdf="http://www.w3.org/1999/02/22-rdf-syntax-ns#"
   xmlns:svg="http://www.w3.org/2000/svg"
   xmlns="http://www.w3.org/2000/svg"
   xmlns:sodipodi="http://sodipodi.sourceforge.net/DTD/sodipodi-0.dtd"
   xmlns:inkscape="http://www.inkscape.org/namespaces/inkscape"
   version="1.0"
   width="850.000000pt"
   height="850.000000pt"
   viewBox="0 0 850.000000 850.000000"
   preserveAspectRatio="xMidYMid meet"
   id="svg2"
   inkscape:version="0.91 r13725"
   sodipodi:docname="Animal_kingdom_20170421_259.svg">
  <defs
     id="defs400" />
  <sodipodi:namedview
     pagecolor="#ffffff"
     bordercolor="#666666"
     borderopacity="1"
     objecttolerance="10"
     gridtolerance="10"
     guidetolerance="10"
     inkscape:pageopacity="0"
     inkscape:pageshadow="2"
     inkscape:window-width="1920"
     inkscape:window-height="980"
     id="namedview398"
     showgrid="false"
     inkscape:zoom="0.44423529"
     inkscape:cx="486.4229"
     inkscape:cy="656.70983"
     inkscape:window-x="0"
     inkscape:window-y="1"
     inkscape:window-maximized="1"
     inkscape:current-layer="svg2" />
  <metadata
     id="metadata4">
Created by potrace 1.14, written by Peter Selinger 2001-2017
<rdf:RDF>
  <cc:Work
     rdf:about="">
    <dc:format>image/svg+xml</dc:format>
    <dc:type
       rdf:resource="http://purl.org/dc/dcmitype/StillImage" />
  </cc:Work>
</rdf:RDF>
</metadata>
  <g
     transform="translate(0.000000,850.000000) scale(0.100000,-0.100000)"
     fill="#000000"
     stroke="none"
     id="g6">
    <path
       d="M0 4250 l0 -4250 4250 0 4250 0 0 4250 0 4250 -4250 0 -4250 0 0 -4250z m2410 3776 c63 -14 131 -30 150 -36 49 -14 50 -14 47 27 -2 33 1 38 21 41 26 4 122 -47 208 -111 123 -91 260 -249 346 -398 22 -39 46 -73 53 -75 7 -3 46 1 86 8 l74 13 -3 91 c-5 118 3 127 85 85 32 -16 97 -54 146 -85 l87 -55 138 -6 c166 -7 257 -26 340 -68 l64 -32 65 31 c95 46 169 62 333 70 l145 7 68 44 c120 77 226 128 239 115 10 -10 15 -145 6 -181 -4 -19 136 -45 162 -31 10 5 36 41 59 80 102 171 246 328 384 418 142 92 195 103 184 37 -7 -40 -7 -40 59 -21 250 73 493 83 605 26 50 -26 56 -38 31 -63 l-21 -21 97 -100 c187 -193 245 -288 246 -405 1 -65 1 -66 -29 -71 l-29 -5 -12 -105 c-17 -152 -42 -290 -70 -387 -26 -91 -38 -118 -62 -145 -19 -22 -26 -22 -46 -2 -20 19 -20 17 -36 -93 l-12 -82 40 -46 c174 -197 413 -691 496 -1021 48 -194 45 -214 -29 -195 -26 7 -65 21 -86 31 -21 11 -41 20 -44 20 -3 0 10 -29 30 -65 79 -144 143 -389 165 -635 6 -63 12 -137 15 -165 8 -84 14 -184 21 -320 3 -71 7 -143 9 -160 2 -16 7 -111 11 -209 l7 -179 -52 5 c-33 3 -82 20 -131 44 l-79 40 5 -26 c3 -14 11 -41 16 -60 6 -19 12 -156 14 -305 3 -274 -4 -371 -41 -573 -34 -186 -125 -432 -159 -432 -18 0 -52 46 -61 83 -12 47 -22 39 -51 -41 -66 -187 -117 -289 -250 -502 -42 -69 -97 -159 -121 -199 -50 -88 -66 -106 -87 -98 -20 8 -73 93 -81 130 -4 15 -10 27 -13 27 -4 -1 -32 -38 -62 -83 -76 -113 -187 -242 -321 -373 -220 -214 -546 -480 -565 -461 -3 3 -7 25 -8 49 -4 78 -6 88 -16 88 -5 0 -42 -30 -82 -66 -161 -147 -414 -276 -751 -383 -115 -37 -111 -37 -332 42 -157 57 -318 128 -420 186 -70 40 -205 143 -254 195 -19 20 -38 36 -41 36 -4 0 -8 -30 -9 -67 -1 -38 -6 -72 -11 -77 -13 -13 -66 26 -240 170 -156 130 -279 239 -349 313 -168 174 -229 247 -301 354 l-52 79 -30 -59 c-35 -69 -70 -108 -92 -100 -8 3 -25 25 -37 49 -12 24 -70 120 -128 213 -133 214 -217 380 -262 517 -18 59 -37 108 -40 108 -4 0 -10 -15 -13 -33 -3 -18 -20 -48 -36 -67 -29 -34 -30 -35 -46 -15 -46 58 -117 267 -149 447 -54 295 -58 656 -10 903 8 39 7 39 -11 24 -47 -41 -212 -98 -237 -82 -8 5 -3 222 8 313 1 14 5 86 9 160 8 156 15 274 21 345 2 28 7 86 10 130 22 291 81 544 166 704 22 40 38 75 37 76 -2 2 -28 -7 -58 -20 -30 -12 -72 -25 -92 -29 l-37 -7 5 68 c22 271 281 862 495 1127 l65 81 -13 84 c-7 47 -15 86 -17 89 -2 2 -14 -1 -25 -8 -27 -14 -37 -8 -61 40 -45 88 -92 312 -116 551 l-7 67 -31 -2 -31 -1 1 55 c2 117 70 233 235 401 101 103 109 113 94 129 -27 30 -18 49 33 71 26 11 65 25 87 29 68 15 251 4 375 -24z"
       id="path8"
       style="fill:none" />
    <path
       d="M2040 7999 c-68 -12 -82 -24 -52 -45 12 -8 22 -19 22 -24 0 -4 -42 -44 -94 -89 -51 -44 -118 -111 -149 -148 -55 -68 -119 -183 -131 -235 -6 -26 -4 -28 23 -28 33 0 34 -2 46 -115 16 -148 32 -260 46 -330 11 -50 58 -206 66 -215 2 -2 15 9 28 25 24 29 25 29 40 11 8 -11 17 -33 20 -50 2 -17 12 -75 21 -129 l16 -98 -39 -46 c-139 -166 -269 -395 -398 -703 -58 -137 -145 -434 -132 -447 3 -2 36 9 74 26 38 17 88 33 111 37 59 9 64 -12 18 -75 -118 -165 -198 -447 -221 -776 -3 -49 -8 -110 -10 -135 -2 -25 -7 -99 -10 -165 -4 -66 -8 -142 -10 -170 -2 -27 -6 -111 -10 -185 -3 -74 -8 -159 -11 -188 l-5 -53 28 7 c55 12 118 49 175 101 87 80 102 71 73 -41 -46 -175 -64 -446 -45 -680 18 -218 77 -497 134 -631 22 -50 29 -40 50 75 26 135 54 145 81 27 40 -180 126 -380 252 -587 212 -349 194 -323 209 -302 15 22 44 125 44 158 0 12 6 27 13 33 18 15 33 -2 88 -103 111 -199 397 -492 791 -809 56 -46 63 -40 63 60 0 39 3 75 7 79 5 4 54 -40 110 -97 177 -179 331 -265 743 -414 55 -20 114 -37 132 -37 61 0 358 109 541 199 126 62 208 121 334 242 58 55 111 101 117 101 7 0 11 -28 11 -79 0 -44 4 -82 9 -86 20 -12 312 236 507 430 184 184 291 317 369 462 27 50 49 71 59 54 3 -4 9 -34 15 -67 9 -62 38 -134 53 -134 5 0 21 21 36 46 15 25 69 114 121 197 52 84 121 204 152 267 54 107 129 307 129 343 0 31 42 127 55 127 13 0 23 -35 46 -157 6 -35 15 -63 19 -63 20 0 79 191 116 372 31 156 41 267 43 508 2 208 -7 299 -45 449 -16 65 -22 107 -16 113 6 6 33 -12 73 -47 59 -52 131 -94 188 -110 l23 -7 -6 143 c-12 267 -33 628 -41 699 -2 19 -7 64 -10 100 -17 190 -60 402 -106 522 -35 89 -40 99 -107 200 -26 38 -41 71 -37 78 11 17 74 5 158 -31 38 -16 72 -27 75 -24 10 10 -18 134 -58 254 -114 345 -321 738 -473 898 -39 41 -40 43 -29 80 6 21 15 74 21 118 16 133 39 165 76 109 9 -14 21 -22 25 -18 31 33 82 278 112 539 l13 110 29 3 c25 3 28 6 22 33 -22 113 -150 277 -336 432 l-45 37 24 21 c31 25 21 35 -53 48 -114 21 -212 10 -464 -49 -68 -16 -130 -26 -138 -23 -8 3 -14 19 -14 39 l0 34 -52 -32 c-159 -95 -318 -268 -430 -466 -48 -85 -55 -93 -78 -89 -14 3 -61 11 -104 18 -90 15 -78 23 -144 -88 -54 -92 -125 -167 -290 -309 -189 -164 -240 -212 -259 -247 -20 -39 -13 -42 28 -11 88 66 222 116 348 129 52 5 88 19 215 85 258 133 465 225 479 211 7 -7 11 -38 11 -75 -2 -69 -24 -122 -74 -180 -17 -18 -30 -36 -30 -38 0 -2 35 0 78 4 195 19 426 -36 639 -153 153 -84 353 -230 353 -259 0 -20 -36 -38 -93 -46 -23 -3 -48 -7 -55 -10 -7 -2 16 -29 55 -62 163 -141 335 -357 492 -620 83 -139 113 -201 107 -218 -12 -31 -141 -8 -298 52 -26 10 -49 16 -52 13 -11 -10 114 -405 166 -523 52 -120 138 -233 215 -283 31 -21 29 -39 -11 -79 -31 -31 -39 -34 -93 -34 -43 0 -73 7 -106 24 -58 29 -58 30 -16 -124 56 -207 140 -444 199 -559 12 -24 28 -62 36 -83 12 -35 12 -40 -3 -45 -28 -11 -139 24 -207 66 l-65 39 4 -26 c3 -15 23 -124 45 -242 75 -405 74 -396 74 -660 0 -250 -9 -330 -38 -330 -19 0 -81 70 -107 122 -13 24 -42 97 -65 163 -41 114 -43 118 -44 75 -7 -245 -72 -510 -240 -980 -86 -240 -92 -250 -129 -216 -26 24 -79 143 -91 205 -5 29 -11 104 -12 167 -1 63 -5 111 -8 107 -4 -5 -26 -78 -50 -163 -100 -362 -133 -459 -211 -611 -47 -92 -92 -150 -105 -136 -10 9 -39 173 -54 295 -7 56 -15 102 -19 102 -4 0 -13 -51 -20 -112 -40 -352 -87 -470 -252 -640 -56 -58 -93 -88 -107 -88 -26 0 -26 3 -6 105 20 102 20 216 -1 385 -9 74 -16 173 -17 218 0 46 -4 80 -8 75 -5 -4 -20 -52 -35 -106 -126 -476 -371 -770 -830 -999 -153 -76 -183 -86 -192 -61 -10 26 23 226 58 348 72 253 185 423 357 536 61 40 263 129 352 154 77 22 260 146 260 176 0 5 -29 9 -64 9 -98 0 -167 31 -246 110 -67 66 -126 168 -137 237 -5 29 -3 33 16 33 12 0 68 -14 124 -32 80 -25 121 -31 192 -32 81 -1 96 2 150 29 33 17 60 34 60 39 0 4 -25 18 -55 30 -128 49 -237 127 -225 158 10 25 77 55 150 67 39 6 135 15 215 21 149 11 253 24 290 38 18 7 12 11 -38 34 -65 30 -134 91 -126 111 3 8 46 26 97 41 234 70 396 186 509 365 l22 34 -76 -7 c-79 -8 -148 0 -148 16 0 5 47 69 104 141 130 166 195 265 256 392 83 173 115 311 120 520 2 76 -13 63 -29 -25 -55 -296 -191 -680 -240 -680 -21 0 -45 43 -71 130 -10 31 -20 49 -23 40 -3 -8 -26 -80 -52 -160 -50 -157 -124 -320 -188 -415 -48 -71 -178 -208 -225 -237 -18 -11 -38 -18 -45 -15 -7 3 -22 47 -32 98 -27 128 -28 331 -2 409 28 82 66 156 105 201 19 22 33 42 31 44 -2 2 -18 -3 -36 -10 -19 -8 -42 -31 -59 -62 -137 -235 -312 -385 -501 -429 -80 -19 -266 -21 -368 -4 -78 12 -342 97 -351 112 -17 27 119 142 230 197 142 70 261 98 576 136 228 28 328 46 382 68 l33 14 -79 12 c-186 27 -295 128 -296 272 0 81 44 199 74 199 7 0 36 -27 65 -59 74 -82 152 -123 246 -129 62 -4 80 -1 150 27 43 18 106 52 140 76 57 40 157 150 183 201 11 21 7 20 -61 -9 -64 -27 -83 -31 -172 -31 -89 -1 -107 2 -161 27 -67 31 -160 117 -151 139 3 9 46 22 110 35 177 36 299 96 394 195 40 42 113 145 113 160 0 4 -23 -6 -51 -22 -92 -55 -162 -73 -269 -68 -117 5 -185 34 -254 108 -49 52 -106 159 -106 198 0 27 19 28 104 5 42 -12 100 -17 186 -17 119 -1 128 1 185 29 159 79 272 269 292 493 l6 67 -24 -22 c-13 -12 -47 -32 -74 -45 -43 -19 -67 -23 -162 -23 -94 0 -115 3 -130 18 -17 16 -13 21 79 107 179 167 249 329 219 507 -17 99 -22 103 -61 43 -36 -56 -111 -118 -174 -144 -74 -31 -80 -22 -60 89 20 112 20 229 -1 300 -42 147 -130 221 -330 279 -49 14 -90 24 -92 22 -3 -2 12 -26 33 -53 42 -55 67 -109 89 -192 17 -67 20 -187 5 -196 -6 -4 -53 34 -105 84 -177 169 -353 261 -525 276 -41 3 -90 8 -108 11 -28 4 -39 -1 -85 -44 -28 -27 -77 -67 -109 -89 l-56 -39 55 -33 c78 -47 119 -90 153 -163 l30 -63 -20 -17 c-44 -36 -127 -58 -220 -58 -84 0 -90 -1 -90 -21 0 -30 123 -566 132 -575 3 -2 8 55 11 128 9 208 45 308 146 408 65 64 105 80 207 80 58 0 77 -5 120 -30 28 -16 63 -43 78 -61 30 -35 66 -101 66 -121 1 -35 15 -38 73 -18 174 61 332 -18 377 -190 15 -57 15 -203 -1 -278 -33 -164 -164 -340 -324 -437 -179 -108 -254 -186 -300 -309 -35 -93 -44 -227 -21 -306 73 -249 78 -476 16 -600 -44 -86 -145 -181 -239 -222 -23 -11 -80 -26 -125 -33 -57 -9 -97 -23 -132 -44 -177 -109 -403 -130 -590 -55 -37 15 -91 40 -118 56 -33 20 -77 34 -130 43 -92 15 -138 31 -198 73 -75 52 -129 115 -167 192 -34 72 -36 81 -40 197 -3 133 7 210 45 341 28 97 32 226 10 307 -36 135 -133 249 -300 350 -135 82 -231 184 -291 309 -118 247 -73 519 100 608 50 26 153 28 209 4 59 -25 83 -21 91 13 8 39 63 123 102 155 17 14 47 33 67 41 46 20 150 19 209 -1 57 -19 138 -97 172 -165 37 -73 65 -201 67 -317 2 -56 5 -102 8 -102 11 0 130 510 130 556 0 21 -6 22 -102 26 -84 4 -114 10 -160 31 -69 31 -72 46 -29 122 33 58 97 120 158 155 l43 23 -48 33 c-27 17 -73 55 -104 83 l-56 51 -75 0 c-203 0 -389 -87 -597 -280 -51 -47 -97 -85 -104 -85 -7 0 -11 28 -10 85 1 107 29 196 90 285 24 35 44 66 44 69 0 2 -41 -6 -91 -20 -284 -76 -386 -245 -335 -553 10 -57 15 -109 12 -117 -20 -52 -199 63 -252 162 -10 19 -22 34 -26 34 -15 0 -30 -119 -25 -200 9 -151 61 -246 216 -397 90 -87 95 -94 79 -110 -13 -12 -40 -18 -102 -21 -101 -5 -162 8 -230 49 -26 17 -50 28 -53 26 -8 -9 16 -152 38 -217 46 -143 142 -268 243 -318 90 -45 273 -53 390 -17 27 8 60 15 74 15 23 0 24 -3 19 -35 -10 -59 -51 -137 -98 -186 -132 -135 -331 -149 -526 -38 l-55 32 18 -34 c27 -54 101 -145 147 -182 95 -78 187 -117 347 -151 126 -26 134 -37 68 -99 -119 -113 -294 -137 -461 -62 l-56 24 22 -37 c12 -20 60 -76 107 -123 88 -89 163 -134 265 -160 116 -29 240 15 335 118 31 35 64 63 72 63 15 0 26 -17 53 -85 21 -51 22 -159 2 -207 -39 -93 -142 -159 -285 -182 l-77 -12 50 -16 c64 -22 123 -32 375 -63 358 -45 508 -88 658 -189 78 -52 142 -111 142 -131 0 -16 -113 -63 -245 -101 -94 -27 -111 -29 -285 -29 -181 0 -186 1 -255 29 -93 39 -166 86 -238 154 -67 65 -151 173 -191 248 -19 34 -39 56 -62 68 -19 9 -37 16 -40 16 -2 0 13 -24 35 -53 85 -112 121 -229 121 -392 0 -108 -29 -288 -49 -308 -5 -5 -19 -6 -32 -2 -33 11 -191 176 -242 253 -67 100 -140 261 -194 425 -26 81 -50 147 -53 147 -3 0 -13 -26 -23 -59 -22 -71 -53 -124 -70 -118 -41 13 -152 323 -213 595 -22 95 -43 172 -47 172 -9 0 -1 -171 13 -271 28 -194 168 -466 365 -703 83 -100 103 -132 92 -143 -4 -3 -52 -6 -107 -6 -55 1 -100 -2 -100 -6 0 -17 66 -105 119 -159 105 -107 223 -174 415 -232 43 -13 81 -31 84 -39 7 -19 -58 -74 -127 -107 -46 -22 -52 -28 -37 -36 25 -14 119 -26 301 -38 88 -6 187 -16 220 -21 63 -11 135 -50 135 -73 0 -35 -125 -118 -233 -155 -27 -9 -49 -21 -49 -26 -1 -6 25 -23 58 -40 53 -26 68 -29 154 -29 78 1 112 6 193 32 53 18 109 32 123 32 23 0 25 -3 20 -27 -17 -73 -81 -180 -146 -244 -81 -80 -146 -109 -245 -109 -36 0 -65 -3 -64 -7 0 -5 29 -33 64 -64 65 -57 121 -85 310 -154 183 -67 338 -164 408 -257 82 -108 153 -256 192 -400 29 -106 67 -326 59 -339 -12 -19 -58 -6 -171 48 -216 103 -343 191 -488 337 -186 187 -289 381 -380 720 -9 32 -18 57 -19 55 -2 -2 -6 -47 -10 -99 -4 -52 -11 -122 -16 -155 -10 -65 -6 -426 5 -487 6 -33 5 -38 -11 -38 -41 0 -190 158 -247 261 -53 95 -86 222 -112 434 -9 71 -18 131 -20 133 -6 6 -12 -24 -36 -188 -25 -163 -32 -190 -53 -190 -56 0 -184 307 -291 700 -56 205 -58 210 -65 210 -3 0 -7 -59 -8 -131 -1 -146 -15 -208 -64 -301 -29 -55 -61 -80 -78 -61 -16 18 -165 441 -218 618 -60 203 -87 328 -98 451 -4 43 -8 86 -10 94 -1 8 -3 29 -4 45 -1 22 -10 5 -34 -65 -45 -133 -80 -202 -131 -257 -49 -54 -60 -52 -76 13 -14 57 -19 384 -8 489 12 108 51 345 85 510 40 197 41 205 37 205 -2 0 -19 -11 -36 -24 -73 -54 -224 -103 -247 -80 -6 6 9 49 41 119 58 127 115 274 154 395 35 112 86 312 81 318 -3 2 -22 -8 -43 -22 -47 -32 -143 -37 -183 -9 -29 20 -60 53 -60 64 0 4 31 35 69 69 125 110 187 238 302 623 22 76 38 141 35 144 -3 4 -36 -5 -73 -20 -101 -38 -176 -57 -227 -57 -41 0 -46 2 -46 23 0 28 114 230 214 379 108 162 187 257 324 390 66 64 118 119 114 122 -3 3 -19 6 -36 6 -41 1 -116 35 -116 54 0 17 117 106 248 189 130 81 283 152 411 188 96 28 120 31 258 31 l152 1 -26 31 c-47 55 -73 125 -73 194 0 42 4 64 13 68 7 2 62 -18 122 -46 61 -29 150 -70 200 -93 49 -23 138 -68 197 -99 93 -50 119 -59 190 -68 126 -15 221 -50 325 -121 52 -36 57 -36 39 -1 -17 31 -93 106 -216 211 -200 172 -335 321 -373 414 -18 41 -34 45 -124 28 -123 -24 -105 -32 -169 77 -124 211 -266 363 -425 456 l-46 26 -6 -30 c-8 -40 -26 -39 -223 5 -170 39 -311 51 -404 34z m225 -73 c121 -44 231 -111 320 -198 38 -37 70 -68 71 -68 1 0 4 20 7 45 4 25 14 59 22 75 23 45 75 100 94 100 18 0 72 -76 101 -143 47 -106 51 -304 11 -472 -26 -107 -29 -206 -7 -256 8 -20 12 -39 9 -43 -22 -22 -106 11 -167 64 -50 44 -71 100 -96 245 -25 153 -46 197 -123 254 -73 54 -138 76 -222 76 -59 0 -79 -5 -124 -30 -60 -33 -88 -65 -97 -110 -5 -28 3 -39 99 -135 74 -75 112 -122 133 -165 27 -56 29 -68 29 -179 0 -98 -3 -120 -16 -129 -12 -8 -24 -5 -49 13 -48 34 -163 174 -207 251 -21 38 -40 69 -43 69 -3 0 -14 -36 -24 -81 -24 -102 -73 -179 -113 -179 -47 0 -76 301 -48 483 l8 47 -32 0 c-30 0 -91 24 -91 36 0 21 48 88 97 136 73 72 134 99 236 106 42 2 77 7 77 11 0 3 -8 29 -19 56 -20 53 -34 139 -24 149 16 16 101 3 188 -28z m4165 -13 c0 -28 -11 -74 -25 -108 -14 -33 -25 -61 -25 -61 0 -1 35 -4 78 -6 91 -4 166 -35 232 -94 48 -43 100 -119 100 -144 0 -21 -41 -40 -85 -40 -34 0 -34 -1 -27 -32 4 -18 7 -112 7 -208 0 -253 -30 -337 -95 -268 -30 33 -59 99 -73 166 -7 34 -15 64 -19 67 -4 4 -16 -10 -26 -32 -55 -105 -206 -283 -254 -299 -36 -11 -43 11 -42 124 0 162 32 224 190 377 39 39 74 77 77 86 15 46 -53 120 -139 150 -69 24 -131 21 -216 -11 -129 -49 -186 -125 -207 -275 -16 -109 -48 -213 -77 -252 -40 -53 -142 -104 -179 -90 -13 5 -13 11 0 48 21 59 19 112 -10 252 -29 136 -35 321 -15 398 13 49 74 175 98 202 23 26 39 21 82 -25 41 -44 60 -89 60 -145 0 -18 3 -33 6 -33 4 0 43 35 88 78 46 42 117 97 159 121 98 55 228 101 290 101 l47 0 0 -47z m-4069 -429 c67 -33 124 -96 165 -181 28 -58 36 -88 41 -157 6 -84 5 -86 -16 -86 -48 0 -97 40 -319 259 l-152 150 32 17 c18 9 44 21 58 25 41 13 140 0 191 -27z m3960 26 c29 -6 64 -17 77 -26 l23 -15 -178 -178 c-182 -182 -243 -231 -288 -231 -22 0 -25 4 -25 39 0 164 100 335 232 396 59 28 81 30 159 15z m-3025 -159 c18 -16 73 -50 123 -76 136 -70 175 -114 206 -230 14 -56 8 -105 -15 -105 -5 0 -32 17 -59 38 -27 20 -87 53 -132 72 -98 42 -162 97 -178 155 -21 76 -11 175 17 175 2 0 19 -13 38 -29z m1972 -52 c5 -135 -25 -176 -185 -250 -49 -22 -112 -57 -141 -77 -63 -43 -76 -35 -67 43 13 115 76 190 218 263 36 18 84 48 108 67 24 19 49 33 54 32 6 -2 11 -37 13 -78z m-2412 -831 c-1 -57 1 -170 2 -253 3 -131 1 -157 -17 -208 -28 -81 -106 -187 -137 -187 -19 0 -21 17 -24 140 -1 63 -5 149 -10 190 -15 143 -8 219 25 279 31 56 118 141 146 141 13 0 15 -15 15 -102z m2851 81 c47 -30 110 -112 124 -162 10 -38 6 -280 -6 -342 -2 -11 -4 -66 -4 -122 -1 -80 -4 -103 -15 -103 -17 0 -89 78 -111 120 -48 92 -49 103 -50 372 0 285 -2 276 62 237z m-1972 -60 c14 -21 -6 -60 -58 -112 -57 -59 -110 -84 -287 -138 -113 -35 -208 -77 -230 -104 -7 -9 -26 -23 -42 -31 -26 -13 -29 -13 -35 2 -7 20 28 122 64 183 72 123 144 166 308 182 61 6 139 14 175 19 94 11 98 11 105 -1z m1227 -9 c213 -18 284 -42 342 -114 53 -67 126 -213 126 -253 0 -21 -36 -15 -67 11 -47 39 -141 82 -268 122 -154 48 -221 81 -273 138 -68 74 -78 124 -21 112 15 -3 88 -10 161 -16z m-2544 -1099 c224 -95 298 -136 380 -216 79 -78 84 -95 29 -115 -18 -6 -75 -14 -128 -17 -88 -5 -101 -4 -150 19 -99 45 -212 171 -280 311 -21 42 -21 77 -1 77 5 0 73 -27 150 -59z m3836 27 c-24 -80 -122 -226 -188 -283 -29 -24 -79 -57 -111 -71 -54 -25 -65 -26 -154 -21 -108 7 -161 21 -161 44 0 26 67 100 135 148 97 69 399 204 458 205 25 0 27 -3 21 -22z m-3052 -776 c25 -13 66 -41 90 -63 l43 -41 -26 -22 c-73 -63 -363 -89 -513 -46 -102 29 -203 71 -222 91 -14 16 -14 18 5 29 17 9 144 37 331 73 14 3 75 4 135 3 92 -1 118 -5 157 -24z m2448 9 c138 -23 244 -47 271 -62 29 -15 10 -34 -70 -70 -193 -88 -485 -95 -639 -15 -18 9 -32 23 -32 30 0 24 96 102 147 119 65 22 184 21 323 -2z m-1362 -1334 c36 -38 121 -188 152 -268 18 -48 32 -105 36 -155 4 -44 8 -80 9 -82 2 -2 27 9 57 24 72 38 214 45 298 16 l55 -19 3 -46 c4 -56 -37 -182 -77 -241 -29 -42 -103 -115 -134 -132 -15 -8 -8 -19 46 -74 93 -95 118 -154 125 -289 l5 -108 -36 -6 c-81 -13 -244 23 -312 68 l-35 24 6 -127 c7 -152 -9 -249 -56 -344 -54 -108 -140 -208 -180 -208 -40 0 -145 142 -196 265 -28 68 -29 76 -29 237 0 93 -1 168 -2 168 -1 0 -17 -9 -35 -20 -80 -47 -265 -82 -322 -60 l-28 10 6 93 c6 80 12 103 46 174 36 73 118 173 142 173 18 0 4 17 -41 49 -100 71 -173 208 -175 325 l-1 69 50 18 c70 25 193 24 265 -2 30 -11 62 -22 71 -25 13 -5 17 8 22 79 8 122 57 231 169 385 42 57 63 64 96 29z m-1160 -173 c272 -164 329 -221 436 -431 55 -107 87 -198 79 -218 -8 -22 -27 -19 -149 20 -368 119 -538 308 -529 588 2 79 11 117 26 117 6 0 68 -34 137 -76z m2402 57 c15 -30 12 -210 -5 -267 -19 -65 -85 -166 -144 -222 -82 -78 -239 -159 -405 -208 -125 -38 -132 -33 -100 63 70 210 200 385 369 495 126 82 250 156 262 157 7 1 17 -8 23 -18z"
       id="path10"
       style="fill:#9933cc" />
    <path
       d="M2130 7878 c12 -52 21 -70 57 -120 19 -26 31 -53 27 -59 -4 -8 -27 -10 -68 -6 -128 13 -243 -29 -324 -117 -60 -65 -56 -80 15 -51 69 29 74 20 47 -87 -29 -111 -22 -436 9 -425 17 5 45 107 59 211 6 50 15 95 19 100 13 14 35 -10 70 -77 49 -95 135 -221 190 -279 l50 -53 -3 90 c-4 124 -25 162 -162 298 l-108 108 4 44 c10 84 70 150 172 185 67 24 125 25 197 4 126 -38 222 -109 258 -195 12 -27 31 -104 42 -170 10 -66 28 -137 39 -158 17 -34 78 -97 85 -89 3 3 7 38 21 153 3 28 14 93 25 147 27 135 25 255 -5 340 -29 83 -58 133 -76 133 -7 0 -24 -20 -38 -45 -22 -41 -23 -52 -17 -128 3 -46 8 -89 10 -95 3 -7 0 -19 -5 -27 -12 -17 -15 -14 -105 105 -91 121 -248 228 -399 274 -92 28 -96 28 -86 -11z"
       id="path12"
       style="fill:#6699ff" />
    <path
       d="M6305 7895 c-170 -46 -349 -176 -450 -325 -62 -92 -94 -92 -74 -1 23 106 -1 223 -49 239 -16 5 -66 -104 -88 -188 -20 -80 -15 -173 21 -348 14 -68 25 -150 25 -183 0 -32 4 -59 9 -59 5 0 27 20 49 44 45 49 65 103 81 227 14 100 45 182 87 229 61 67 212 130 313 130 88 0 210 -70 247 -141 27 -54 10 -143 -33 -167 -9 -6 -50 -43 -90 -83 -97 -97 -125 -155 -130 -269 l-4 -85 58 60 c60 62 123 152 186 266 42 76 64 100 76 80 5 -7 11 -49 14 -94 6 -85 41 -217 57 -217 11 0 17 22 29 110 13 92 5 225 -19 326 -11 47 -20 87 -20 90 0 8 46 4 56 -5 13 -13 74 -24 74 -14 0 18 -84 105 -126 129 -53 31 -180 55 -251 47 -69 -8 -76 9 -30 74 29 40 57 106 57 136 0 10 -16 8 -75 -8z"
       id="path14"
       style="fill:#6699ff" />
    <path
       d="M2220 7460 c0 -5 6 -10 14 -10 8 0 18 5 21 10 3 6 -3 10 -14 10 -12 0 -21 -4 -21 -10z"
       id="path16"
       style="fill:none" />
    <path
       d="M2303 7443 c-21 -8 -15 -22 17 -38 19 -10 40 -13 53 -9 20 6 20 7 -8 30 -30 24 -40 27 -62 17z"
       id="path18"
       style="fill:#666699" />
    <path
       d="M2260 7387 c0 -17 38 -67 51 -67 16 0 10 36 -8 52 -30 26 -43 30 -43 15z"
       id="path20"
       style="fill:#666699" />
    <path
       d="M2395 7360 c-7 -12 30 -50 50 -50 19 0 19 10 -1 38 -16 23 -39 29 -49 12z"
       id="path22"
       style="fill:#666699" />
    <path
       d="M2350 7297 c0 -25 26 -67 41 -67 16 0 10 56 -9 73 -25 23 -32 21 -32 -6z"
       id="path24"
       style="fill:#666699" />
    <path
       d="M2460 7274 c0 -12 42 -75 47 -70 10 9 -19 76 -33 76 -8 0 -14 -3 -14 -6z"
       id="path26"
       style="fill:#666699" />
    <path
       d="M2430 7219 c0 -24 54 -89 65 -78 4 5 -35 70 -56 94 -5 5 -9 -1 -9 -16z"
       id="path28"
       style="fill:#666699" />
    <path
       d="M6250 7460 c0 -5 5 -10 10 -10 6 0 10 5 10 10 0 6 -4 10 -10 10 -5 0 -10 -4 -10 -10z"
       id="path30"
       style="fill:none" />
    <path
       d="M6155 7434 c-44 -22 -50 -31 -26 -39 23 -7 83 23 78 39 -5 16 -21 17 -52 0z"
       id="path32"
       style="fill:#666699" />
    <path
       d="M6193 7370 c-20 -18 -22 -60 -3 -60 8 0 50 62 50 74 0 13 -27 5 -47 -14z"
       id="path34"
       style="fill:#666699" />
    <path
       d="M6057 7340 c-14 -24 -15 -30 -4 -30 17 0 59 44 50 53 -13 14 -29 6 -46 -23z"
       id="path36"
       style="fill:#666699" />
    <path
       d="M6116 7298 c-16 -23 -21 -60 -9 -71 11 -12 51 53 46 73 -7 26 -18 25 -37 -2z"
       id="path38"
       style="fill:#666699" />
    <path
       d="M6014 7256 c-9 -15 -14 -29 -12 -32 3 -2 13 7 22 22 10 14 15 28 13 31 -3 2 -13 -7 -23 -21z"
       id="path40"
       style="fill:#666699" />
    <path
       d="M6032 7194 c-13 -26 -21 -48 -19 -50 10 -10 57 48 57 71 0 37 -12 30 -38 -21z"
       id="path42"
       style="fill:#666699" />
    <path
       d="M3284 7248 c11 -70 38 -94 168 -157 65 -31 121 -55 123 -53 7 8 -25 76 -48 100 -28 30 -103 79 -186 120 l-64 32 7 -42z"
       id="path44"
       style="fill:#ff00ff" />
    <path
       d="M5115 7233 c-55 -30 -111 -65 -124 -76 -24 -22 -60 -91 -61 -115 0 -7 49 12 119 47 116 59 171 103 171 139 0 9 3 27 6 40 4 12 2 22 -2 21 -5 0 -54 -25 -109 -56z"
       id="path46"
       style="fill:#ff00ff" />
    <path
       d="M2751 6425 c-16 -25 -32 -66 -36 -91 -6 -40 1 -182 11 -237 2 -10 4 -54 5 -97 3 -91 12 -92 50 -7 22 48 24 65 24 217 0 188 -5 260 -17 260 -5 0 -21 -20 -37 -45z"
       id="path48"
       style="fill:#99cc99" />
    <path
       d="M5707 6449 c-13 -73 -18 -306 -8 -367 9 -59 47 -152 61 -152 8 0 30 272 30 360 0 67 -19 120 -58 169 l-19 24 -6 -34z"
       id="path50"
       style="fill:#0099ff" />
    <path
       d="M3502 6429 c-113 -8 -158 -20 -214 -55 -48 -31 -140 -164 -113 -164 3 0 27 11 53 24 26 13 100 40 165 59 64 20 136 45 160 55 45 20 107 68 107 83 0 10 -8 10 -158 -2z"
       id="path52"
       style="fill:#996600" />
    <path
       d="M4854 6429 c-17 -28 78 -79 244 -130 70 -22 151 -51 181 -65 30 -13 56 -22 59 -20 8 9 -66 112 -102 144 -45 40 -119 62 -226 68 -47 3 -100 7 -117 9 -18 2 -35 -1 -39 -6z"
       id="path54"
       style="fill:#996600" />
    <path
       d="M2330 5352 c0 -18 139 -190 178 -219 58 -44 137 -66 205 -58 71 9 85 18 67 40 -34 41 -139 111 -233 155 -120 56 -217 93 -217 82z"
       id="path56"
       style="fill:#99ff99" />
    <path
       d="M6105 5334 c-33 -14 -82 -34 -110 -45 -70 -29 -195 -104 -246 -150 -51 -45 -46 -53 37 -64 95 -12 180 23 264 108 51 52 128 162 119 172 -3 2 -31 -7 -64 -21z"
       id="path58"
       style="fill:#66ccff" />
    <path
       d="M2851 4590 c-79 -16 -146 -32 -149 -35 -10 -10 18 -23 103 -46 124 -35 313 -30 420 11 26 10 27 11 11 29 -28 31 -112 61 -179 66 -43 3 -105 -4 -206 -25z"
       id="path60"
       style="fill:#66ff66" />
    <path
       d="M5366 4600 c-63 -23 -121 -60 -109 -71 5 -3 38 -14 74 -24 93 -24 314 -17 411 14 37 12 70 26 72 30 6 9 -237 58 -331 66 -43 4 -73 0 -117 -15z"
       id="path62"
       style="fill:#66ffcc" />
    <path
       d="M4202 3203 c-51 -75 -100 -174 -119 -237 -18 -59 -19 -149 -4 -189 15 -39 14 -87 -2 -87 -7 0 -35 18 -62 41 -63 52 -105 69 -186 76 -62 5 -163 -10 -173 -26 -8 -12 16 -104 39 -156 29 -66 103 -147 171 -185 29 -17 54 -37 54 -44 0 -7 -18 -26 -41 -41 -66 -46 -136 -130 -158 -190 -12 -31 -24 -87 -27 -126 l-7 -71 64 6 c35 4 96 17 134 28 62 19 78 29 133 87 82 85 91 78 69 -61 -9 -57 -19 -125 -22 -153 -7 -62 9 -177 35 -253 21 -58 93 -174 131 -208 21 -19 21 -19 68 32 59 64 104 149 126 239 20 80 16 246 -8 372 -12 60 -12 74 -1 83 10 9 27 -3 76 -53 53 -53 74 -67 128 -85 77 -24 153 -36 180 -27 25 8 26 39 2 131 -24 89 -85 181 -157 234 -29 22 -56 44 -60 49 -3 6 26 31 64 56 38 25 84 62 102 83 43 48 88 148 95 209 l6 49 -39 12 c-56 17 -154 15 -210 -4 -26 -9 -74 -36 -106 -61 -65 -50 -94 -52 -82 -5 25 90 9 222 -41 335 -36 82 -108 197 -124 197 -5 0 -27 -26 -48 -57z m80 -90 c43 -49 88 -178 89 -259 2 -79 3 -77 -33 -69 -42 9 -134 9 -174 0 -28 -6 -32 -4 -36 20 -11 58 37 225 88 303 17 26 45 29 66 5z m-302 -421 c54 -32 65 -42 63 -62 -2 -22 -16 -109 -29 -177 -6 -29 -23 -29 -89 2 -69 33 -125 90 -167 170 -26 52 -31 68 -22 82 29 46 151 38 244 -15z m347 31 c40 -23 77 -68 105 -129 19 -42 22 -66 23 -174 0 -116 -2 -129 -28 -185 -70 -149 -177 -185 -272 -91 -111 111 -126 364 -30 512 51 79 132 106 202 67z m423 -3 c28 -15 25 -43 -12 -112 -48 -90 -156 -173 -216 -166 -25 3 -28 8 -34 60 -4 31 -14 73 -23 94 -11 27 -12 40 -4 50 14 18 111 73 147 85 33 10 114 4 142 -11z m-729 -455 c16 -44 26 -87 23 -97 -8 -28 -93 -99 -149 -124 -41 -19 -67 -24 -107 -22 -52 3 -53 4 -56 36 -7 68 75 193 173 264 64 47 82 38 116 -57z m552 74 c46 -24 128 -102 154 -146 30 -52 55 -136 46 -158 -3 -11 -21 -15 -59 -15 -82 0 -174 50 -247 136 -17 20 -16 24 13 92 16 39 30 78 30 86 0 19 32 21 63 5z m-384 -280 c45 -27 81 -27 126 1 56 35 60 24 60 -164 l0 -163 -38 -74 c-55 -107 -72 -127 -94 -113 -26 16 -93 136 -109 197 -24 91 -14 337 14 337 4 0 22 -9 41 -21z"
       id="path64"
       style="fill:#ff99ff" />
    <path
       d="M4211 2980 c-17 -43 -31 -91 -31 -105 0 -24 2 -25 69 -25 39 0 72 3 74 8 12 20 -54 202 -73 202 -5 0 -22 -36 -39 -80z"
       id="path66"
       style="fill:#ffff00" />
    <path
       d="M3790 2680 c0 -50 121 -180 167 -180 5 0 14 28 21 63 11 58 11 63 -9 79 -41 34 -179 63 -179 38z"
       id="path68"
       style="fill:#ffff00" />
    <path
       d="M4186 2649 c-66 -77 -89 -200 -62 -327 8 -40 25 -89 37 -109 24 -38 73 -73 103 -73 33 0 80 45 111 106 27 55 30 67 30 169 0 95 -3 117 -24 163 -30 67 -80 112 -126 112 -27 0 -40 -8 -69 -41z"
       id="path70"
       style="fill:#ffff33" />
    <path
       d="M4585 2666 c-70 -32 -74 -40 -55 -113 l16 -62 34 20 c54 32 90 70 116 121 20 40 21 47 8 52 -30 11 -69 6 -119 -18z"
       id="path72"
       style="fill:#ffff00" />
    <path
       d="M3884 2238 c-48 -45 -104 -131 -104 -159 0 -16 59 -10 98 10 20 11 56 35 78 55 l42 36 -22 55 c-11 30 -25 55 -29 55 -5 0 -33 -23 -63 -52z"
       id="path74"
       style="fill:#ffff00" />
    <path
       d="M4530 2239 l-22 -51 38 -39 c65 -67 174 -105 174 -61 0 31 -58 118 -106 161 -26 22 -50 41 -54 41 -4 0 -17 -23 -30 -51z"
       id="path76"
       style="fill:#ffff00" />
    <path
       d="M4167 1972 c-14 -68 1 -177 35 -262 19 -46 39 -85 46 -88 7 -2 25 24 44 65 28 61 32 80 36 186 l4 118 -53 -3 c-30 -1 -66 1 -80 6 -23 7 -27 4 -32 -22z"
       id="path78"
       style="fill:#ffff00" />
    <path
       d="M3072 3090 c14 -22 60 -44 79 -38 7 2 -8 16 -34 31 -54 32 -61 33 -45 7z"
       id="path80"
       style="fill:#99cc33" />
    <path
       d="M3012 3063 c-1 -21 1 -51 4 -67 6 -28 7 -29 20 -11 18 24 18 75 0 98 -19 25 -23 22 -24 -20z"
       id="path82"
       style="fill:#99cc33" />
    <path
       d="M3130 3013 c0 -4 17 -27 38 -50 l37 -42 49 9 c27 6 52 13 55 16 9 9 -50 53 -79 58 -76 14 -100 16 -100 9z"
       id="path84"
       style="fill:#99cc33" />
    <path
       d="M3067 2969 c-29 -69 -28 -73 9 -132 19 -31 39 -57 43 -57 12 0 41 81 41 110 0 14 -17 44 -39 70 l-39 44 -15 -35z"
       id="path86"
       style="fill:#99cc33" />
    <path
       d="M3282 2902 l-53 -17 38 -38 c39 -37 39 -37 101 -31 34 4 62 10 62 14 0 13 -72 90 -83 89 -7 -1 -36 -8 -65 -17z"
       id="path88"
       style="fill:#99cc33" />
    <path
       d="M3172 2803 l-22 -58 37 -32 c21 -18 43 -32 50 -33 6 0 16 23 22 52 11 50 10 53 -17 87 -15 19 -32 36 -38 38 -5 2 -19 -23 -32 -54z"
       id="path90"
       style="fill:#99cc33" />
    <path
       d="M3366 2781 l-29 -6 43 -39 c36 -32 47 -37 73 -32 45 9 49 17 27 54 -21 34 -44 38 -114 23z"
       id="path92"
       style="fill:#99cc33" />
    <path
       d="M3293 2734 c-3 -9 -6 -32 -7 -52 -1 -32 3 -37 47 -59 27 -14 51 -22 54 -19 3 3 6 20 5 37 0 23 -12 43 -38 70 -42 43 -52 47 -61 23z"
       id="path94"
       style="fill:#99cc33" />
    <path
       d="M3482 2671 c-10 -6 -3 -17 29 -45 23 -20 44 -34 46 -33 1 2 -5 22 -14 45 -16 41 -33 51 -61 33z"
       id="path96"
       style="fill:#99cc33" />
    <path
       d="M3432 2603 c2 -22 12 -29 57 -45 30 -10 56 -16 58 -14 5 5 -97 86 -109 86 -5 0 -8 -12 -6 -27z"
       id="path98"
       style="fill:#99cc33" />
    <path
       d="M5385 3079 c-50 -30 -50 -31 -15 -25 33 6 80 40 69 50 -2 3 -27 -9 -54 -25z"
       id="path100"
       style="fill:#00cc99" />
    <path
       d="M5465 3077 c-16 -31 -17 -40 -6 -76 6 -23 16 -41 20 -41 11 0 20 109 12 133 -6 16 -10 13 -26 -16z"
       id="path102"
       style="fill:#00cc99" />
    <path
       d="M5296 3009 c-42 -10 -106 -45 -106 -59 0 -9 50 -20 91 -20 19 0 39 11 63 38 20 20 36 40 36 45 0 9 -34 8 -84 -4z"
       id="path104"
       style="fill:#00cc99" />
    <path
       d="M5372 2948 l-40 -52 20 -55 c11 -31 22 -58 24 -60 7 -8 36 23 60 66 25 42 26 43 9 93 -9 27 -20 52 -25 55 -4 2 -26 -19 -48 -47z"
       id="path106"
       style="fill:#00cc99" />
    <path
       d="M5113 2878 c-18 -19 -33 -39 -33 -45 0 -5 21 -13 46 -17 50 -7 84 6 122 47 27 28 22 32 -55 42 -45 6 -50 5 -80 -27z"
       id="path108"
       style="fill:#00cc99" />
    <path
       d="M5267 2822 c-21 -21 -36 -45 -33 -53 3 -8 10 -33 16 -57 l11 -43 39 28 c22 15 42 34 44 41 4 10 -27 109 -38 119 -1 2 -19 -15 -39 -35z"
       id="path110"
       style="fill:#00cc99" />
    <path
       d="M5021 2755 l-21 -36 26 -9 c42 -16 58 -12 98 29 l37 38 -38 6 c-69 12 -80 9 -102 -28z"
       id="path112"
       style="fill:#00cc99" />
    <path
       d="M5150 2712 c-33 -32 -40 -46 -40 -76 0 -34 2 -37 23 -30 12 3 39 15 60 26 33 16 36 22 31 46 -10 39 -23 72 -28 72 -3 0 -23 -17 -46 -38z"
       id="path114"
       style="fill:#00cc99" />
    <path
       d="M4977 2673 c-14 -24 -35 -83 -29 -83 4 0 25 16 47 35 33 29 37 36 25 45 -18 12 -37 13 -43 3z"
       id="path116"
       style="fill:#00cc99" />
    <path
       d="M5008 2593 c-32 -25 -56 -48 -55 -50 4 -4 116 32 124 40 3 3 1 17 -3 31 l-9 26 -57 -47z"
       id="path118"
       style="fill:#00cc99" />
    <path
       d="M3444 7563 c10 -72 29 -117 56 -129 35 -16 110 -28 110 -17 0 5 -39 49 -86 99 l-85 89 5 -42z"
       id="path120"
       style="fill:#cc0033" />
    <path
       d="M4984 7525 c-68 -75 -89 -103 -82 -110 2 -2 30 2 63 8 58 12 60 13 76 57 22 61 32 120 20 120 -5 0 -40 -34 -77 -75z"
       id="path122"
       style="fill:#cc0033" />
    <path
       d="M3560 7564 c0 -3 25 -34 57 -69 51 -59 57 -63 69 -47 7 9 14 20 14 23 0 3 -31 27 -70 53 -38 25 -70 44 -70 40z"
       id="path124"
       style="fill:#cc0033" />
    <path
       d="M4879 7525 c-35 -24 -64 -49 -63 -55 1 -5 2 -17 3 -26 0 -9 4 -14 9 -12 15 6 125 128 120 133 -2 3 -33 -15 -69 -40z"
       id="path126"
       style="fill:#cc0033" />
    <path
       d="M3780 7484 c0 -2 29 -35 64 -72 86 -90 101 -110 137 -182 40 -80 59 -173 59 -287 0 -51 4 -93 9 -93 4 0 11 35 14 78 11 138 69 301 140 394 l37 48 -23 14 c-56 37 -145 69 -225 81 -99 15 -212 25 -212 19z"
       id="path128"
       style="fill:#9966ff" />
    <path
       d="M4510 7466 c-36 -7 -83 -18 -105 -25 -48 -16 -135 -63 -135 -73 0 -4 18 -31 40 -60 70 -92 130 -278 131 -405 1 -55 13 -71 21 -28 3 14 6 67 7 118 4 163 57 279 194 420 l65 67 -76 -1 c-42 -1 -106 -7 -142 -13z"
       id="path130"
       style="fill:#9966ff" />
    <path
       d="M3721 7437 c-19 -19 -12 -51 20 -95 17 -23 32 -42 33 -42 1 0 12 13 24 29 26 36 22 49 -27 89 -29 23 -41 28 -50 19z"
       id="path132"
       style="fill:#cc0033" />
    <path
       d="M4729 7413 l-43 -41 19 -36 c11 -20 22 -36 25 -36 10 1 70 89 70 103 0 7 -6 22 -14 32 -12 17 -16 16 -57 -22z"
       id="path134"
       style="fill:#cc0033" />
    <path
       d="M3510 7383 c0 -6 19 -36 42 -67 l41 -56 69 0 c37 0 68 2 68 5 0 3 -15 26 -32 50 -34 46 -57 57 -145 71 -27 4 -43 3 -43 -3z"
       id="path136"
       style="fill:#cc0033" />
    <path
       d="M4905 7378 c-22 -6 -48 -16 -58 -23 -27 -19 -68 -78 -60 -86 5 -4 31 -9 60 -10 40 -2 57 2 74 17 22 19 79 98 79 108 0 9 -50 5 -95 -6z"
       id="path138"
       style="fill:#cc0033" />
    <path
       d="M3824 7307 c-18 -38 -18 -39 4 -80 12 -23 31 -53 42 -67 17 -21 21 -23 30 -10 17 26 23 81 11 103 -7 12 -25 38 -41 57 l-28 35 -18 -38z"
       id="path140"
       style="fill:#cc0033" />
    <path
       d="M4620 7293 c-17 -21 -33 -47 -36 -58 -5 -21 21 -95 34 -95 4 0 25 28 46 61 l39 61 -18 34 c-10 19 -22 34 -26 34 -4 0 -22 -17 -39 -37z"
       id="path142"
       style="fill:#cc0033" />
    <path
       d="M4213 7248 c-42 -70 -63 -120 -80 -193 -16 -73 -25 -314 -14 -372 5 -28 4 -48 -3 -58 -9 -13 -23 -4 -91 55 -50 45 -110 86 -160 110 -83 41 -214 75 -229 60 -19 -19 56 -176 113 -236 51 -54 114 -100 179 -133 34 -17 62 -38 62 -46 0 -8 -35 -32 -81 -55 -82 -42 -149 -100 -182 -158 l-18 -31 36 -15 c68 -29 128 -34 230 -19 53 8 99 13 101 10 2 -2 11 -30 19 -61 22 -85 60 -159 111 -216 l46 -50 39 42 c52 58 107 164 121 233 l11 57 36 -6 c108 -17 209 -18 264 -2 31 9 59 21 62 27 9 13 -37 80 -85 123 -20 18 -71 49 -114 70 -46 21 -76 41 -74 49 3 6 38 30 79 52 134 72 257 223 276 338 l6 38 -39 -7 c-139 -25 -257 -83 -358 -175 -36 -33 -71 -59 -78 -57 -12 4 -14 144 -3 198 7 32 -19 219 -40 285 -17 57 -86 187 -101 192 -5 2 -24 -20 -41 -49z m95 -139 c66 -156 69 -291 8 -415 -54 -108 -75 -107 -135 10 -31 60 -33 72 -33 158 0 66 7 113 22 163 60 193 84 208 138 84z m-515 -325 c43 -14 106 -45 140 -68 69 -46 136 -133 140 -181 2 -30 1 -30 -48 -30 -77 1 -154 42 -240 127 -71 72 -122 149 -110 168 10 15 34 12 118 -16z m1037 10 c0 -28 -54 -107 -116 -171 -71 -72 -151 -114 -231 -121 -52 -4 -53 -4 -53 22 0 35 23 78 67 127 52 58 113 97 201 129 88 33 132 38 132 14z m-476 -252 c71 -39 99 -94 94 -184 -3 -57 -8 -73 -34 -105 -70 -86 -173 -105 -268 -49 -84 49 -118 162 -77 251 50 108 177 147 285 87z m258 -213 c77 -45 142 -103 136 -121 -10 -29 -170 -34 -270 -7 -36 9 -50 31 -29 44 5 3 17 29 26 58 9 28 18 58 21 65 5 18 35 8 116 -39z m-586 -13 c7 -27 17 -53 23 -59 21 -21 12 -45 -20 -56 -40 -14 -208 -26 -243 -17 -15 4 -26 13 -26 23 0 42 177 166 229 160 21 -2 27 -10 37 -51z m251 -166 l82 0 -6 -47 c-6 -58 -56 -184 -83 -208 -10 -9 -24 -14 -31 -10 -15 10 -63 116 -84 188 -20 68 -15 92 18 83 12 -3 59 -6 104 -6z"
       id="path144"
       style="fill:#ff33ff" />
    <path
       d="M4230 7044 c-44 -118 -46 -230 -4 -318 20 -41 33 -42 52 -3 34 69 36 196 6 302 -23 82 -29 84 -54 19z"
       id="path146"
       style="fill:#ff9900" />
    <path
       d="M3760 6732 c0 -5 28 -36 63 -69 55 -53 110 -87 177 -108 20 -6 21 -5 10 16 -23 43 -101 108 -165 138 -68 32 -85 37 -85 23z"
       id="path148"
       style="fill:#ff9900" />
    <path
       d="M4652 6705 c-69 -35 -168 -127 -157 -145 9 -15 90 19 136 58 65 54 124 122 107 122 -9 0 -47 -16 -86 -35z"
       id="path150"
       style="fill:#ff9900" />
    <path
       d="M4206 6515 c-44 -15 -63 -31 -81 -65 -42 -81 -18 -173 54 -209 92 -47 192 -3 221 99 29 102 -90 210 -194 175z"
       id="path152"
       style="fill:#993300" />
    <path
       d="M4521 6278 c-6 -17 -9 -33 -7 -35 2 -2 37 -7 77 -10 68 -6 73 -5 61 10 -14 17 -98 67 -112 67 -5 0 -13 -14 -19 -32z"
       id="path154"
       style="fill:#ff9900" />
    <path
       d="M3898 6273 c-32 -21 -58 -40 -58 -44 0 -8 98 1 129 13 15 5 21 13 17 24 -3 9 -6 22 -6 30 0 22 -21 17 -82 -23z"
       id="path156"
       style="fill:#ff9900" />
    <path
       d="M4212 6091 c-10 -6 -8 -19 10 -64 13 -32 26 -57 29 -57 9 0 57 114 52 123 -6 10 -75 9 -91 -2z"
       id="path158"
       style="fill:#ff9900" />
    <path
       d="M3673 7232 c-18 -2 -33 -7 -33 -11 0 -3 22 -28 48 -54 43 -43 52 -47 95 -47 26 0 47 3 47 6 0 5 -61 94 -64 94 -1 0 -15 3 -31 8 -17 4 -45 6 -62 4z"
       id="path160"
       style="fill:#cc0033" />
    <path
       d="M4733 7208 c-32 -35 -54 -74 -46 -81 12 -13 69 -7 93 10 42 27 90 76 84 85 -3 4 -29 8 -58 8 -42 0 -57 -5 -73 -22z"
       id="path162"
       style="fill:#cc0033" />
    <path
       d="M3940 7166 c0 -2 -6 -19 -14 -37 -14 -33 -13 -36 26 -99 l40 -65 -6 64 c-7 72 -25 141 -38 141 -4 0 -8 -2 -8 -4z"
       id="path164"
       style="fill:#cc0033" />
    <path
       d="M4536 7119 c-20 -75 -29 -149 -18 -149 5 0 12 8 15 18 4 9 17 36 31 60 20 35 23 49 15 75 -15 54 -27 53 -43 -4z"
       id="path166"
       style="fill:#cc0033" />
    <path
       d="M2996 7083 c13 -54 37 -89 112 -160 92 -88 93 -109 5 -87 -32 8 -95 19 -141 26 -162 23 -367 -21 -572 -124 -92 -47 -280 -162 -280 -172 0 -2 37 8 83 24 103 34 184 54 313 79 56 10 137 34 180 54 132 57 246 80 431 85 118 3 189 0 264 -12 56 -9 104 -15 106 -12 4 3 -38 29 -304 184 -59 34 -127 80 -151 102 -24 22 -45 40 -48 40 -2 0 -1 -12 2 -27z"
       id="path168"
       style="fill:#33ff66" />
    <path
       d="M3050 7106 c0 -9 129 -91 260 -166 80 -46 176 -105 213 -132 38 -27 70 -48 73 -46 2 2 -2 21 -8 42 -15 49 -65 86 -223 165 -103 51 -302 141 -312 141 -2 0 -3 -2 -3 -4z"
       id="path170"
       style="fill:#33ff66" />
    <path
       d="M5400 7093 c-189 -87 -421 -208 -446 -232 -28 -27 -62 -111 -46 -111 3 0 20 13 37 28 32 31 141 99 325 205 151 87 236 158 130 110z"
       id="path172"
       style="fill:#0066ff" />
    <path
       d="M5473 7077 c-49 -41 -144 -102 -268 -172 -149 -85 -198 -115 -192 -121 2 -2 51 3 108 12 78 12 143 15 269 11 186 -6 268 -22 429 -88 57 -23 140 -47 208 -59 97 -18 281 -68 347 -96 95 -38 -201 143 -327 201 -222 102 -447 128 -635 74 -49 -14 -69 -16 -79 -7 -11 8 3 28 70 97 50 52 89 103 99 129 19 48 12 52 -29 19z"
       id="path174"
       style="fill:#0066ff" />
    <path
       d="M3825 7044 c28 -25 63 -55 79 -67 l29 -21 -24 43 c-38 68 -64 91 -101 91 l-33 -1 50 -45z"
       id="path176"
       style="fill:#cc0033" />
    <path
       d="M4633 7053 c-41 -54 -65 -93 -56 -93 5 0 40 29 78 65 l70 64 -32 1 c-25 0 -37 -8 -60 -37z"
       id="path178"
       style="fill:#cc0033" />
    <path
       d="M2940 6745 c-169 -38 -294 -90 -341 -142 -35 -38 -83 -119 -99 -168 -22 -66 -18 -190 9 -263 13 -34 27 -64 30 -67 4 -2 6 40 5 93 -4 181 34 292 130 379 85 76 202 124 379 154 117 19 118 10 18 -106 -40 -46 -71 -95 -92 -143 -17 -41 -29 -76 -27 -77 2 -2 25 25 52 61 27 36 74 86 105 111 67 54 194 116 274 134 31 7 57 15 57 19 0 15 -60 21 -245 25 -143 4 -206 1 -255 -10z"
       id="path180"
       style="fill:#33ff66" />
    <path
       d="M5123 6748 c-35 -5 -63 -13 -63 -17 0 -4 29 -13 65 -20 147 -29 313 -143 393 -268 36 -57 46 -54 23 7 -27 70 -61 125 -125 200 -30 35 -52 68 -50 72 3 4 29 8 57 8 131 -1 332 -76 420 -159 44 -40 96 -142 112 -216 12 -61 13 -179 0 -232 -3 -13 -1 -23 4 -23 11 0 48 94 62 161 27 126 -70 338 -180 394 -64 32 -190 72 -285 90 -88 17 -332 18 -433 3z"
       id="path182"
       style="fill:#0099ff" />
    <path
       d="M3395 6680 c-115 -31 -231 -96 -305 -170 -36 -36 -74 -81 -84 -100 l-20 -34 30 22 c96 74 178 128 244 162 95 48 227 90 288 91 26 1 61 4 77 8 l30 6 -25 18 c-33 23 -143 22 -235 -3z"
       id="path184"
       style="fill:#33ff66" />
    <path
       d="M4883 6690 c-13 -5 -23 -14 -23 -19 0 -15 28 -21 92 -21 133 0 348 -97 510 -231 26 -22 49 -39 53 -39 14 0 -65 97 -122 150 -75 68 -179 123 -287 150 -82 21 -185 25 -223 10z"
       id="path186"
       style="fill:#0066ff" />
    <path
       d="M2360 6600 c-58 -15 -145 -43 -195 -61 l-90 -34 72 -6 c121 -11 122 -25 11 -112 -101 -79 -242 -223 -328 -336 -97 -128 -281 -421 -265 -421 9 0 251 175 330 239 119 95 149 133 213 264 33 67 79 150 101 185 41 63 205 235 271 285 34 25 34 26 10 26 -14 0 -72 -13 -130 -29z"
       id="path188"
       style="fill:#33ff99" />
    <path
       d="M6025 6604 c176 -149 273 -270 362 -451 52 -107 66 -127 153 -213 66 -66 139 -125 240 -192 79 -53 146 -95 148 -93 3 2 -30 60 -71 128 -174 283 -389 531 -550 632 -26 17 -46 37 -44 45 4 23 47 40 107 40 65 1 56 9 -50 47 -67 25 -289 83 -312 83 -7 0 1 -12 17 -26z"
       id="path190"
       style="fill:#0099ff" />
    <path
       d="M2406 6468 c-109 -110 -189 -221 -251 -352 -34 -73 -37 -85 -33 -146 10 -142 136 -308 299 -394 l74 -40 -67 74 c-116 127 -171 264 -167 415 3 115 48 265 79 265 5 0 25 -31 44 -68 32 -64 118 -172 136 -172 5 0 -8 35 -28 78 -36 74 -37 81 -37 188 0 106 1 113 36 182 19 40 32 72 27 72 -5 0 -55 -46 -112 -102z"
       id="path192"
       style="fill:#33ff99" />
    <path
       d="M6003 6524 c38 -77 48 -118 49 -202 1 -97 -7 -132 -44 -206 -16 -32 -28 -60 -25 -62 11 -11 101 94 131 155 20 38 40 72 45 75 18 11 50 -45 66 -117 23 -102 22 -236 -4 -317 -26 -84 -82 -176 -151 -253 l-55 -61 63 35 c157 86 267 216 298 355 14 64 15 83 4 118 -46 154 -230 407 -368 505 l-34 24 25 -49z"
       id="path194"
       style="fill:#0099ff" />
    <path
       d="M4030 6077 c0 -32 -50 -271 -90 -427 -79 -314 -189 -621 -370 -1035 -122 -278 -160 -434 -157 -635 2 -105 5 -120 31 -175 36 -72 133 -172 197 -203 84 -41 149 -49 241 -30 148 31 248 102 263 186 10 62 0 79 -68 113 -82 41 -196 127 -240 181 -91 113 -107 201 -73 426 21 138 70 281 168 487 44 93 95 204 113 245 74 172 113 362 113 551 0 87 -2 100 -25 134 -30 44 -83 158 -83 179 0 8 -4 18 -10 21 -6 3 -10 -4 -10 -18z m-520 -1922 c0 -8 -7 -15 -15 -15 -8 0 -15 7 -15 15 0 8 7 15 15 15 8 0 15 -7 15 -15z m-32 -112 c5 -17 -26 -29 -40 -15 -6 6 -7 15 -3 22 9 14 37 9 43 -7z m117 -4 c0 -7 -8 -15 -17 -17 -18 -3 -25 18 -11 32 10 10 28 1 28 -15z m111 -104 c-5 -14 -9 -15 -21 -5 -12 10 -13 16 -4 27 15 18 34 1 25 -22z m-166 -31 c0 -9 -7 -14 -17 -12 -25 5 -28 28 -4 28 12 0 21 -6 21 -16z m315 -24 c0 -8 -8 -16 -17 -18 -13 -2 -18 3 -18 18 0 15 5 20 18 18 9 -2 17 -10 17 -18z m-205 -76 c0 -9 -7 -14 -17 -12 -25 5 -28 28 -4 28 12 0 21 -6 21 -16z m140 -84 c0 -11 -6 -20 -13 -20 -19 0 -27 10 -20 26 8 21 33 17 33 -6z"
       id="path196"
       style="fill:#cc6666" />
    <path
       d="M4445 6047 c-10 -32 -38 -90 -63 -128 l-44 -69 6 -121 c13 -270 50 -391 239 -790 122 -258 146 -340 173 -606 12 -115 -25 -211 -119 -311 -51 -53 -150 -124 -220 -157 -51 -24 -70 -54 -62 -98 11 -55 39 -93 100 -132 111 -71 267 -89 380 -45 45 18 77 41 135 99 64 64 80 87 99 141 66 192 19 436 -164 850 -191 431 -326 853 -413 1285 l-28 140 -19 -58z m583 -1889 c-7 -19 -38 -22 -38 -4 0 10 9 16 21 16 12 0 19 -5 17 -12z m-88 -113 c10 -12 9 -16 -5 -21 -19 -8 -40 9 -31 25 10 15 21 14 36 -4z m125 -6 c0 -7 -8 -15 -17 -17 -18 -3 -25 18 -11 32 10 10 28 1 28 -15z m-237 -96 c-2 -10 -10 -18 -18 -18 -8 0 -16 8 -18 18 -2 12 3 17 18 17 15 0 20 -5 18 -17z m177 -32 c3 -5 1 -13 -5 -16 -15 -9 -43 3 -35 15 8 13 32 13 40 1z m-317 -34 c2 -12 -3 -17 -17 -17 -15 0 -21 6 -21 21 0 25 33 22 38 -4z m202 -72 c0 -8 -6 -15 -14 -15 -17 0 -28 14 -19 24 12 12 33 6 33 -9z m-145 -85 c0 -22 -29 -18 -33 3 -3 14 1 18 15 15 10 -2 18 -10 18 -18z"
       id="path198"
       style="fill:#cc6666" />
    <path
       d="M3423 6062 c-79 -32 -133 -102 -154 -202 -6 -27 -15 -52 -20 -56 -5 -3 -44 9 -87 27 -93 39 -158 43 -217 12 -44 -24 -88 -75 -110 -128 -19 -45 -29 -159 -21 -229 9 -71 38 -101 149 -156 132 -65 217 -83 387 -83 126 0 158 3 243 26 129 36 173 58 181 94 3 15 9 98 12 184 6 127 4 170 -10 232 -31 140 -105 240 -204 277 -63 24 -94 24 -149 2z m90 -363 c51 -14 111 -78 137 -145 24 -65 19 -77 -49 -120 -39 -24 -59 -29 -132 -32 -73 -3 -92 -1 -128 17 -52 27 -118 85 -137 122 -13 27 -12 30 17 63 76 87 189 124 292 95z"
       id="path200"
       style="fill:#ff0000" />
    <path
       d="M3383 5669 c-89 -27 -90 -170 -2 -217 14 -8 46 -11 78 -9 46 3 59 9 82 35 94 105 -14 235 -158 191z m90 -51 c32 -17 46 -39 47 -72 0 -42 -26 -66 -70 -66 -44 0 -68 23 -77 73 -9 59 45 95 100 65z"
       id="path202"
       style="fill:#cc9900" />
    <path
       d="M3436 5558 c-35 -36 -24 -58 21 -42 31 10 42 44 21 61 -10 8 -20 3 -42 -19z"
       id="path204"
       style="fill:#cc9900" />
    <path
       d="M3253 5588 l-22 -24 23 -29 c14 -17 26 -28 28 -25 2 3 1 27 -2 53 l-5 49 -22 -24z"
       id="path206"
       style="fill:#cc9900" />
    <path
       d="M3607 5522 c-2 -9 -8 -25 -12 -36 -7 -16 -6 -17 13 -7 12 7 22 20 22 31 0 25 -16 34 -23 12z"
       id="path208"
       style="fill:#cc9900" />
    <path
       d="M4940 6065 c-93 -29 -168 -125 -206 -265 -23 -82 -24 -338 -3 -414 12 -44 19 -52 59 -72 143 -69 411 -91 583 -46 155 41 300 120 314 172 15 52 9 203 -10 257 -57 162 -185 208 -353 126 -55 -27 -57 -27 -70 -8 -8 10 -14 28 -14 40 0 36 -60 144 -94 170 -36 28 -108 55 -140 54 -11 0 -41 -7 -66 -14z m246 -388 c52 -26 124 -97 124 -121 0 -19 -109 -119 -153 -139 -85 -41 -192 -28 -275 33 -48 34 -51 53 -23 115 24 54 66 102 110 126 50 27 147 21 217 -14z"
       id="path210"
       style="fill:#ff0000" />
    <path
       d="M5003 5669 c-34 -10 -70 -48 -79 -85 -9 -35 32 -111 69 -130 39 -21 101 -20 133 1 36 23 64 74 64 116 0 81 -87 127 -187 98z m123 -74 c7 -30 -1 -82 -17 -102 -18 -20 -86 -16 -109 7 -26 26 -26 70 0 98 16 17 32 22 70 22 45 0 50 -2 56 -25z"
       id="path212"
       style="fill:#cc9900" />
    <path
       d="M5021 5572 c-22 -41 20 -84 55 -57 18 13 18 15 -12 46 -31 31 -32 31 -43 11z"
       id="path214"
       style="fill:#ff6600" />
    <path
       d="M5222 5553 l-2 -58 29 35 30 35 -21 23 c-12 12 -24 22 -28 22 -3 0 -7 -26 -8 -57z"
       id="path216"
       style="fill:#cc9900" />
    <path
       d="M4880 5519 c0 -15 7 -32 15 -39 23 -19 24 -9 4 30 -17 34 -18 34 -19 9z"
       id="path218"
       style="fill:#cc9900" />
    <path
       d="M2004 5919 c-18 -21 -276 -216 -380 -288 -27 -19 -44 -36 -37 -38 6 -2 66 16 133 41 128 48 170 56 170 31 0 -21 -127 -439 -157 -515 -58 -148 -156 -314 -200 -339 -32 -17 -8 -20 27 -3 80 38 243 220 317 352 40 70 48 104 68 270 24 201 45 336 66 424 10 44 17 81 15 83 -1 2 -11 -7 -22 -18z"
       id="path220"
       style="fill:#33cc99" />
    <path
       d="M6492 5868 c10 -40 27 -138 39 -218 52 -375 59 -415 85 -468 35 -71 127 -193 204 -270 64 -63 149 -126 158 -117 3 2 -12 23 -32 45 -83 92 -139 203 -209 415 -55 166 -127 400 -127 413 0 16 47 14 90 -3 108 -42 213 -76 227 -73 10 2 -6 18 -43 43 -160 108 -236 164 -316 232 -48 40 -89 73 -91 73 -2 0 5 -33 15 -72z"
       id="path222"
       style="fill:#0099ff" />
    <path
       d="M2076 5908 c-34 -111 -55 -250 -62 -413 -8 -160 -6 -165 83 -286 160 -220 327 -350 487 -380 72 -13 137 -1 224 43 67 33 82 52 30 37 -49 -14 -207 -11 -268 5 -160 42 -294 183 -353 371 -27 87 -47 207 -47 286 0 67 18 72 74 21 60 -55 117 -83 185 -89 l56 -5 -84 49 c-143 82 -245 193 -291 316 -22 59 -28 66 -34 45z"
       id="path224"
       style="fill:#33ff99" />
    <path
       d="M6406 5895 c-33 -133 -171 -285 -324 -360 -34 -16 -62 -33 -62 -37 0 -9 65 1 120 18 25 8 72 37 105 64 86 72 90 70 86 -50 -6 -206 -77 -386 -198 -502 -65 -61 -110 -87 -192 -112 -60 -17 -211 -21 -273 -7 -54 13 -38 -5 35 -40 97 -46 157 -54 241 -34 163 39 294 146 483 400 l75 100 -6 120 c-7 152 -21 266 -47 378 -21 90 -32 106 -43 62z"
       id="path226"
       style="fill:#3399ff" />
    <path
       d="M4210 5730 c-2 -228 -51 -397 -225 -775 -102 -221 -166 -385 -152 -385 3 0 36 31 73 68 49 49 92 80 148 108 79 39 81 39 195 39 102 0 123 -4 177 -27 77 -32 161 -93 205 -149 18 -23 34 -38 36 -32 7 19 -61 192 -154 393 -135 291 -170 386 -197 540 -14 82 -25 193 -26 255 0 29 -2 30 -40 30 l-40 0 0 -65z"
       id="path228"
       style="fill:#cc9966" />
    <path
       d="M2880 5284 c43 -70 81 -124 89 -124 10 0 76 69 70 74 -3 3 -148 74 -173 85 -5 2 1 -14 14 -35z"
       id="path230"
       style="fill:#cc9966" />
    <path
       d="M5558 5279 c-42 -21 -80 -44 -83 -50 -4 -6 6 -25 23 -42 31 -31 31 -31 53 -12 20 19 93 135 87 140 -2 2 -38 -14 -80 -36z"
       id="path232"
       style="fill:#cc9966" />
    <path
       d="M3691 5248 c-37 -20 -47 -32 -67 -81 -13 -32 -39 -81 -59 -108 -19 -27 -35 -51 -35 -53 0 -5 54 8 121 30 l47 15 22 92 c12 51 24 100 27 110 6 22 -4 22 -56 -5z"
       id="path234"
       style="fill:#cc9966" />
    <path
       d="M4760 5263 c0 -5 10 -54 22 -110 l21 -103 53 -15 c29 -8 68 -18 85 -22 28 -5 30 -4 21 13 -6 10 -22 34 -35 52 -14 18 -35 59 -47 91 -18 50 -27 60 -66 79 -49 24 -54 25 -54 15z"
       id="path236"
       style="fill:#cc9966" />
    <path
       d="M2016 5205 c10 -117 26 -241 45 -345 22 -122 49 -170 157 -279 81 -83 168 -140 271 -180 84 -33 236 -64 279 -59 31 5 22 9 -53 27 -75 18 -202 84 -272 141 -70 57 -138 146 -183 241 -49 104 -37 141 30 92 102 -73 140 -95 199 -113 126 -40 264 -19 342 52 37 33 96 108 86 108 -3 0 -27 -13 -54 -30 -112 -69 -229 -86 -344 -50 -157 49 -301 174 -486 425 l-22 30 5 -60z"
       id="path238"
       style="fill:#33cc99" />
    <path
       d="M6440 5193 c-56 -83 -197 -233 -269 -286 -29 -22 -88 -56 -130 -76 -71 -33 -83 -36 -171 -36 -87 0 -101 3 -168 34 -39 19 -77 40 -83 47 -22 26 -30 14 -12 -17 27 -46 89 -98 150 -126 49 -23 65 -25 146 -21 77 3 103 9 157 34 36 17 86 47 111 66 93 71 117 72 98 3 -25 -90 -98 -205 -184 -288 -55 -53 -160 -112 -255 -143 -127 -41 -131 -43 -89 -43 60 -1 197 28 276 60 149 59 303 185 382 312 24 39 44 122 65 262 15 104 31 285 25 285 -2 0 -24 -30 -49 -67z"
       id="path240"
       style="fill:#3399ff" />
    <path
       d="M3053 5166 l-42 -54 22 -19 c34 -31 100 -73 115 -73 17 0 152 136 152 154 0 10 -23 17 -82 26 -46 6 -92 13 -103 15 -15 3 -31 -10 -62 -49z"
       id="path242"
       style="fill:#cc9966" />
    <path
       d="M3568 5214 c-3 -2 -42 -9 -88 -14 -111 -13 -114 -14 -149 -68 -16 -26 -48 -65 -71 -87 -50 -49 -43 -53 87 -54 l92 -1 51 61 c55 66 105 155 91 163 -4 3 -10 3 -13 0z"
       id="path244"
       style="fill:#cc9966" />
    <path
       d="M4920 5209 c0 -25 54 -112 101 -163 l53 -58 97 4 c54 1 101 6 105 10 3 4 -15 29 -41 55 -26 26 -58 67 -71 89 -24 41 -25 42 -98 49 -40 3 -89 10 -109 15 -22 5 -37 4 -37 -1z"
       id="path246"
       style="fill:#cc9966" />
    <path
       d="M5345 5210 c-16 -4 -56 -11 -87 -15 -32 -3 -58 -11 -58 -16 0 -15 147 -159 162 -159 7 0 41 21 76 47 l63 47 -28 27 c-15 14 -38 38 -50 53 -24 28 -31 29 -78 16z"
       id="path248"
       style="fill:#cc9966" />
    <path
       d="M6530 5113 c0 -70 -43 -322 -80 -463 -32 -126 -76 -258 -120 -363 -28 -65 -29 -73 -31 -245 -1 -97 -5 -210 -10 -251 -6 -40 -8 -76 -5 -78 13 -13 103 321 152 562 32 160 38 179 56 183 32 6 56 -115 56 -288 0 -120 -10 -186 -49 -308 -55 -172 -163 -366 -297 -535 -30 -38 -52 -70 -50 -73 15 -14 260 225 337 330 56 75 67 104 88 227 15 88 18 165 18 509 0 360 -3 428 -24 615 -23 204 -41 283 -41 178z"
       id="path250"
       style="fill:#66ffff" />
    <path
       d="M1957 5105 c-36 -225 -52 -485 -51 -835 1 -315 15 -480 50 -582 20 -59 124 -190 244 -308 85 -83 187 -162 154 -119 -6 8 -33 43 -61 79 -166 218 -255 390 -309 600 -24 94 -26 113 -22 273 4 179 18 247 52 247 17 0 27 -30 50 -157 39 -211 148 -614 162 -600 2 2 -1 37 -7 78 -6 41 -13 157 -15 259 -2 163 -6 192 -24 235 -76 177 -139 410 -185 680 -27 158 -33 183 -38 150z"
       id="path252"
       style="fill:#33cc99" />
    <path
       d="M1875 5088 c-93 -141 -228 -276 -320 -320 -48 -22 -55 -28 -35 -30 70 -4 101 9 172 71 25 23 51 41 57 41 46 0 -61 -417 -189 -732 -27 -67 -48 -123 -47 -124 4 -4 111 127 165 201 27 39 77 120 110 182 59 110 60 113 66 215 4 57 9 117 11 133 2 17 9 80 15 140 6 61 14 144 19 185 4 41 7 76 6 78 -1 1 -15 -17 -30 -40z"
       id="path254"
       style="fill:#33cc99" />
    <path
       d="M6604 5073 c21 -170 37 -334 42 -438 5 -98 11 -131 32 -180 55 -126 179 -315 280 -425 l41 -45 -40 95 c-88 210 -168 467 -204 662 -22 121 -8 138 60 68 50 -51 91 -70 152 -69 l48 0 -40 16 c-93 38 -206 141 -306 279 -34 46 -63 84 -66 84 -2 0 -2 -21 1 -47z"
       id="path256"
       style="fill:#00ccff" />
    <path
       d="M3565 4963 c-33 -7 -113 -16 -178 -20 l-119 -6 31 -24 c71 -56 161 -215 180 -317 l8 -41 15 35 c44 98 123 282 144 333 l23 57 -22 -1 c-12 -1 -49 -8 -82 -16z"
       id="path258"
       style="fill:#ff6666" />
    <path
       d="M4840 4969 c0 -8 11 -36 23 -64 13 -27 52 -116 87 -197 59 -139 80 -168 80 -113 0 31 43 146 72 194 12 20 47 62 77 94 l54 57 -79 0 c-70 0 -182 14 -281 36 -25 5 -33 3 -33 -7z"
       id="path260"
       style="fill:#ff6666" />
    <path
       d="M4162 4719 c-160 -31 -336 -230 -350 -394 -4 -58 -3 -63 23 -83 33 -26 42 -22 105 44 79 82 153 94 205 32 23 -27 25 -37 19 -72 -14 -83 -7 -144 21 -192 20 -35 24 -49 15 -57 -8 -9 -16 -6 -30 13 -19 25 -50 113 -50 144 0 19 1 19 -43 1 -57 -24 -114 -19 -182 15 -35 17 -61 25 -63 19 -6 -15 45 -89 95 -137 46 -44 121 -95 194 -132 73 -38 89 -61 89 -129 0 -33 -4 -71 -10 -85 l-10 -26 61 0 c53 0 60 2 55 18 -24 81 -17 151 17 183 12 11 50 34 85 51 34 17 93 56 130 87 70 60 151 163 132 169 -6 2 -37 -8 -69 -22 -66 -29 -125 -33 -177 -11 -26 11 -36 11 -38 2 -2 -7 -8 -34 -15 -60 -13 -56 -37 -97 -57 -97 -19 0 -18 13 9 62 18 36 22 59 22 138 1 52 4 102 8 111 11 21 61 49 90 49 29 0 89 -38 140 -91 102 -105 152 19 73 181 -38 79 -150 197 -221 232 -86 44 -178 56 -273 37z"
       id="path262"
       style="fill:#cc9966" />
    <path
       d="M2110 4627 c0 -18 107 -314 132 -364 60 -122 297 -346 445 -419 72 -35 76 -36 172 -32 87 3 102 6 137 30 78 54 174 160 174 191 0 5 -24 -12 -52 -38 -145 -127 -304 -146 -483 -59 -124 60 -231 166 -310 308 -62 111 -46 135 51 77 98 -59 154 -75 259 -75 74 0 98 4 133 22 23 12 42 27 42 32 0 6 -30 10 -68 10 -114 0 -280 51 -399 121 -31 19 -96 72 -145 118 -48 46 -88 81 -88 78z"
       id="path264"
       style="fill:#66ff66" />
    <path
       d="M6319 4559 c-158 -158 -313 -227 -574 -255 l-60 -6 50 -26 c44 -23 62 -27 147 -27 96 0 96 1 201 53 123 61 142 64 132 25 -14 -61 -92 -179 -166 -253 -132 -134 -244 -186 -394 -184 -79 1 -97 5 -150 31 -33 17 -82 50 -108 73 -26 23 -51 40 -54 36 -9 -9 44 -80 91 -124 143 -132 290 -131 486 1 134 90 305 274 352 377 33 72 121 329 116 339 -2 3 -33 -24 -69 -60z"
       id="path266"
       style="fill:#00ccff" />
    <path
       d="M1811 4343 c-35 -70 -107 -177 -183 -272 -37 -47 -66 -87 -63 -89 6 -6 53 31 124 97 30 28 61 51 68 51 20 0 16 -48 -22 -245 -80 -415 -104 -577 -111 -753 -5 -127 -4 -172 5 -172 6 0 11 8 11 19 0 45 95 320 175 506 92 213 86 185 65 326 -21 143 -29 260 -30 447 0 72 -3 132 -7 132 -5 0 -19 -22 -32 -47z"
       id="path268"
       style="fill:#66ff99" />
    <path
       d="M6660 4338 c-2 -192 -16 -407 -36 -546 l-16 -112 62 -148 c92 -215 122 -294 159 -417 49 -164 50 -164 49 -15 -1 182 -11 271 -53 495 -67 362 -83 450 -88 488 -8 61 15 58 86 -10 67 -65 114 -99 123 -90 3 3 -12 25 -34 49 -62 68 -160 205 -204 285 -22 40 -42 73 -44 73 -2 0 -4 -24 -4 -52z"
       id="path270"
       style="fill:#00ccff" />
    <path
       d="M4014 4307 c-26 -15 -94 -91 -94 -105 0 -23 74 -33 124 -18 60 18 86 41 86 77 0 49 -66 75 -116 46z"
       id="path272"
       style="fill:#666666" />
    <path
       d="M4393 4305 c-72 -52 49 -152 150 -124 20 5 37 16 37 24 0 7 -19 34 -42 60 -50 54 -105 69 -145 40z"
       id="path274"
       style="fill:#666666" />
    <path
       d="M2234 4005 c5 -131 30 -326 45 -353 8 -14 33 64 47 143 8 45 21 75 33 75 12 0 24 -35 66 -188 82 -299 171 -485 309 -644 26 -31 61 -66 78 -78 l31 -23 -8 49 c-10 71 -60 195 -162 399 -102 205 -108 219 -123 298 -10 49 -20 67 -66 116 -87 93 -165 201 -214 294 -14 26 -29 47 -33 47 -4 0 -5 -61 -3 -135z"
       id="path276"
       style="fill:#66ff66" />
    <path
       d="M6232 4085 c-29 -61 -112 -175 -196 -271 -66 -76 -72 -87 -89 -160 -12 -57 -46 -137 -127 -298 -103 -207 -174 -395 -156 -413 10 -10 121 104 174 176 86 120 178 331 237 541 52 183 60 205 75 205 17 0 23 -17 46 -137 9 -49 20 -88 24 -88 26 0 66 469 41 484 -4 3 -17 -15 -29 -39z"
       id="path278"
       style="fill:#66ffff" />
    <path
       d="M6085 3995 c-156 -145 -285 -215 -410 -222 -120 -7 -177 17 -279 119 -43 43 -80 78 -82 78 -2 0 -4 -18 -4 -40 0 -117 95 -206 245 -230 80 -13 251 3 303 27 40 19 135 112 213 209 56 69 95 124 87 124 -2 0 -35 -29 -73 -65z"
       id="path280"
       style="fill:#33ccff" />
    <path
       d="M2397 3983 c60 -87 210 -239 254 -257 19 -8 77 -19 130 -26 188 -22 337 27 388 128 22 45 34 106 26 133 -6 19 -10 16 -43 -23 -64 -75 -105 -109 -170 -140 -59 -28 -69 -30 -150 -26 -72 4 -98 10 -148 35 -98 49 -164 95 -247 171 -42 40 -79 72 -82 72 -2 0 17 -30 42 -67z"
       id="path282"
       style="fill:#66ff66" />
    <path
       d="M2580 3696 c0 -31 45 -137 144 -341 57 -115 111 -236 121 -267 11 -32 23 -58 27 -58 9 0 12 91 8 210 -5 162 -91 308 -258 438 -30 23 -42 28 -42 18z"
       id="path284"
       style="fill:#33cc33" />
    <path
       d="M5817 3619 c-137 -127 -186 -233 -192 -419 -4 -103 6 -191 18 -160 4 8 18 47 32 85 14 39 64 146 112 240 83 165 101 206 129 293 19 62 3 55 -99 -39z"
       id="path286"
       style="fill:#66ffff" />
    <path
       d="M1900 3597 c0 -1 -21 -49 -46 -107 -107 -247 -175 -453 -199 -600 -6 -41 -5 -43 8 -25 17 23 62 133 102 247 31 90 78 161 103 156 15 -3 18 -24 23 -163 9 -249 39 -386 168 -765 100 -296 101 -300 112 -300 4 0 6 21 4 48 -2 26 -7 81 -10 122 -4 41 -15 136 -26 210 -25 169 -27 412 -5 484 15 48 15 49 -19 116 -63 126 -146 355 -181 502 -11 43 -22 78 -26 78 -5 0 -8 -1 -8 -3z"
       id="path288"
       style="fill:#66ff99" />
    <path
       d="M4053 3563 c-73 -20 -133 -39 -133 -43 0 -11 134 -69 198 -85 71 -19 189 -19 267 0 67 15 195 71 195 84 0 14 -243 73 -320 77 -63 3 -97 -2 -207 -33z"
       id="path290"
       style="fill:#cc9966" />
    <path
       d="M6580 3548 c-26 -108 -119 -377 -169 -484 l-51 -110 15 -70 c19 -88 19 -214 0 -379 -35 -302 -48 -472 -35 -458 11 11 99 259 153 433 85 268 112 406 117 580 1 52 4 109 5 125 2 17 4 42 4 58 1 20 6 27 20 27 11 0 28 -12 39 -27 23 -33 69 -138 89 -208 19 -62 72 -175 82 -175 17 0 -26 175 -82 335 -56 164 -159 405 -171 405 -2 0 -10 -24 -16 -52z"
       id="path292"
       style="fill:#66ffff" />
    <path
       d="M1973 3565 c71 -253 125 -401 203 -556 63 -126 259 -253 432 -279 128 -20 126 -10 -8 56 -69 34 -149 80 -178 103 -91 72 -242 282 -242 336 0 19 14 18 110 -9 72 -21 81 -16 31 17 -74 49 -196 163 -266 249 -88 107 -88 107 -82 83z"
       id="path294"
       style="fill:#66ff99" />
    <path
       d="M6482 3518 c-45 -61 -190 -202 -275 -268 -31 -25 -53 -46 -48 -48 5 -2 42 8 83 22 41 15 76 22 81 17 12 -12 -23 -88 -77 -170 -85 -128 -237 -250 -385 -309 -39 -16 -75 -32 -79 -37 -4 -4 25 -5 64 -2 143 11 306 88 413 195 75 75 177 302 247 550 14 52 24 96 21 99 -3 2 -23 -19 -45 -49z"
       id="path296"
       style="fill:#33ccff" />
    <path
       d="M5474 3502 l-91 -45 5 -66 c2 -36 7 -68 9 -71 3 -3 23 15 44 40 48 54 134 178 128 184 -2 2 -45 -17 -95 -42z"
       id="path298"
       style="fill:#66cc99" />
    <path
       d="M2940 3531 c0 -13 112 -161 144 -190 24 -23 26 -23 26 -5 0 10 3 42 6 70 l6 51 -81 41 c-84 43 -101 49 -101 33z"
       id="path300"
       style="fill:#66ff00" />
    <path
       d="M3127 3513 c19 -15 73 -17 73 -4 0 5 -20 11 -45 13 -39 3 -43 1 -28 -9z"
       id="path302"
       style="fill:#66ff00" />
    <path
       d="M5343 3523 c-44 -4 -58 -18 -25 -25 22 -5 72 11 72 23 0 5 -1 8 -2 7 -2 -1 -22 -3 -45 -5z"
       id="path304"
       style="fill:#66cc99" />
    <path
       d="M5195 3505 c-5 -2 -32 -6 -58 -10 -41 -5 -46 -9 -36 -21 7 -9 26 -22 42 -30 26 -14 34 -14 83 2 30 9 54 20 54 24 0 5 -67 42 -73 39 -1 0 -6 -2 -12 -4z"
       id="path306"
       style="fill:#66cc99" />
    <path
       d="M3245 3486 l-30 -13 39 -17 c70 -29 84 -30 121 -5 19 13 35 27 35 30 0 20 -122 24 -165 5z"
       id="path308"
       style="fill:#66ff00" />
    <path
       d="M3431 3450 c-47 -35 -46 -41 15 -58 68 -20 97 -15 140 22 l39 34 -40 10 c-97 26 -107 25 -154 -8z"
       id="path310"
       style="fill:#66ff00" />
    <path
       d="M4950 3468 c-25 -5 -49 -13 -53 -17 -13 -13 61 -71 89 -71 14 0 51 7 81 16 l54 16 -38 33 c-40 36 -58 39 -133 23z"
       id="path312"
       style="fill:#66cc99" />
    <path
       d="M3626 3401 c-44 -45 -46 -43 66 -61 59 -11 70 -10 97 6 17 10 30 23 28 29 -3 8 -128 63 -147 65 -3 0 -23 -18 -44 -39z"
       id="path314"
       style="fill:#66ff00" />
    <path
       d="M4756 3412 c-37 -15 -69 -31 -70 -36 0 -6 14 -18 31 -29 30 -17 39 -18 102 -6 99 17 103 22 56 63 -22 19 -42 35 -45 35 -3 0 -36 -12 -74 -27z"
       id="path316"
       style="fill:#66cc99" />
    <path
       d="M3156 3414 c-3 -9 -6 -43 -6 -77 l0 -62 43 -26 c47 -30 123 -69 133 -69 3 0 3 12 -1 28 -4 15 -10 60 -14 101 l-6 73 -64 24 c-75 28 -77 29 -85 8z"
       id="path318"
       style="fill:#66ff00" />
    <path
       d="M5265 3409 c-27 -11 -53 -23 -56 -27 -4 -4 -9 -34 -13 -67 -3 -33 -9 -77 -12 -98 l-7 -38 39 16 c21 9 60 30 86 47 l48 30 0 79 c0 91 -1 92 -85 58z"
       id="path320"
       style="fill:#66cc99" />
    <path
       d="M3343 3306 c3 -34 13 -81 22 -103 18 -45 25 -48 137 -58 86 -8 97 1 65 56 -14 24 -30 61 -37 81 -10 35 -16 39 -68 54 -31 8 -70 20 -86 25 -16 5 -31 9 -34 9 -3 0 -2 -29 1 -64z"
       id="path322"
       style="fill:#66ff00" />
    <path
       d="M5070 3344 l-76 -24 -37 -82 c-20 -46 -37 -87 -37 -92 0 -9 131 -1 178 11 12 3 30 19 38 35 17 34 32 179 18 177 -5 -1 -43 -12 -84 -25z"
       id="path324"
       style="fill:#66cc99" />
    <path
       d="M3841 3341 l-23 -18 58 -11 c74 -15 83 -15 59 4 -49 38 -69 43 -94 25z"
       id="path326"
       style="fill:#66ff00" />
    <path
       d="M4589 3329 c-48 -31 -39 -35 41 -18 50 11 55 20 21 38 -13 7 -28 3 -62 -20z"
       id="path328"
       style="fill:#66cc99" />
    <path
       d="M3560 3298 c1 -21 64 -131 81 -142 12 -6 39 -6 88 3 81 15 86 24 47 82 -23 33 -31 37 -108 53 -100 19 -108 20 -108 4z"
       id="path330"
       style="fill:#66ff00" />
    <path
       d="M4828 3293 c-76 -14 -78 -16 -104 -60 -16 -28 -22 -49 -17 -54 13 -13 137 -33 157 -26 18 7 88 142 79 151 -8 8 -24 7 -115 -11z"
       id="path332"
       style="fill:#66cc99" />
    <path
       d="M3810 3256 c0 -8 10 -27 23 -41 l22 -26 55 17 c30 9 59 19 63 24 5 4 -24 15 -63 24 -89 20 -100 20 -100 2z"
       id="path334"
       style="fill:#66ff00" />
    <path
       d="M4591 3253 c-35 -8 -59 -18 -55 -23 9 -8 102 -40 116 -40 9 0 48 59 48 73 0 10 -36 7 -109 -10z"
       id="path336"
       style="fill:#66cc99" />
    <path
       d="M2163 2878 c-18 -29 -11 -292 12 -463 14 -93 25 -210 26 -260 2 -127 11 -144 33 -62 25 93 33 169 25 262 -3 44 -5 118 -5 165 1 69 4 85 17 88 30 6 56 -69 209 -598 39 -134 55 -180 98 -283 20 -50 35 -58 28 -15 -8 48 -15 129 -21 248 -15 277 -25 380 -41 412 -8 15 -36 53 -62 85 -88 107 -168 217 -236 326 -37 59 -69 107 -71 107 -2 0 -7 -6 -12 -12z"
       id="path338"
       style="fill:#66ff66" />
    <path
       d="M6285 2823 c-57 -96 -173 -258 -254 -355 -79 -94 -87 -115 -96 -273 -3 -55 -8 -127 -10 -160 -2 -33 -7 -100 -10 -150 -3 -49 -8 -117 -11 -150 -4 -40 -3 -57 4 -50 22 22 107 276 167 500 38 139 93 310 122 373 17 38 29 52 41 50 15 -3 17 -23 13 -218 -3 -178 0 -226 14 -280 24 -95 35 -97 36 -5 0 44 2 87 3 95 2 8 6 47 10 85 4 39 13 115 21 170 20 141 27 320 14 383 -6 28 -13 52 -17 52 -4 0 -25 -30 -47 -67z"
       id="path340"
       style="fill:#33ccff" />
    <path
       d="M2281 2818 c44 -83 272 -375 297 -382 9 -2 141 -7 292 -11 265 -6 410 2 410 25 0 13 -80 28 -185 35 -222 14 -332 28 -407 51 -77 24 -140 65 -125 80 4 4 36 11 72 15 35 5 86 18 112 31 l48 23 -115 7 c-70 4 -140 14 -178 26 -61 20 -195 92 -207 112 -13 20 -26 10 -14 -12z"
       id="path342"
       style="fill:#66ff66" />
    <path
       d="M6189 2814 c-44 -33 -140 -82 -198 -101 -25 -8 -98 -18 -161 -22 l-115 -6 43 -23 c26 -14 70 -25 115 -30 57 -6 72 -11 75 -25 3 -13 -11 -24 -51 -42 -82 -36 -159 -53 -289 -65 -377 -33 -388 -34 -388 -50 0 -21 170 -31 437 -24 l276 7 31 35 c99 112 275 357 264 367 -2 3 -20 -7 -39 -21z"
       id="path344"
       style="fill:#3399ff" />
    <path
       d="M2626 2391 c-12 -19 322 -323 382 -348 39 -16 138 -11 242 14 67 16 230 88 230 102 0 4 -30 1 -67 -7 -130 -27 -258 0 -359 77 -71 54 -67 69 31 96 44 12 101 33 127 46 l47 24 -314 2 c-173 1 -317 -1 -319 -6z"
       id="path346"
       style="fill:#33cc33" />
    <path
       d="M5307 2367 c30 -16 87 -37 127 -47 42 -10 72 -23 74 -32 8 -40 -148 -126 -252 -139 -71 -9 -175 -1 -221 17 -17 7 -18 5 -8 -7 21 -26 166 -89 244 -105 41 -9 108 -17 149 -17 65 -2 80 2 110 23 82 58 360 315 360 332 0 4 -144 7 -320 5 l-319 -2 56 -28z"
       id="path348"
       style="fill:#66ffff" />
    <path
       d="M2596 2298 c3 -18 8 -39 10 -46 2 -7 6 -92 9 -190 8 -240 28 -432 44 -432 10 0 43 276 47 380 2 67 6 86 18 88 34 7 73 -130 106 -380 11 -84 29 -187 41 -228 25 -90 88 -214 135 -267 l35 -38 -19 40 c-31 67 -53 161 -61 268 -5 56 -7 104 -6 107 9 18 15 359 6 381 -5 15 -45 57 -88 94 -43 37 -121 110 -174 161 -53 52 -99 94 -102 94 -4 0 -4 -15 -1 -32z"
       id="path350"
       style="fill:#33cc33" />
    <path
       d="M5793 2221 c-56 -54 -137 -127 -179 -162 l-77 -64 7 -185 c10 -250 10 -286 2 -354 -9 -65 -46 -196 -71 -247 l-16 -34 31 35 c98 111 161 281 185 505 11 96 52 298 69 338 10 26 21 37 35 37 18 0 21 -6 22 -52 1 -137 35 -422 49 -413 9 6 28 184 35 340 7 154 15 270 21 318 3 20 1 37 -3 37 -4 -1 -54 -45 -110 -99z"
       id="path352"
       style="fill:#66ffff" />
    <path
       d="M3496 2129 c-88 -62 -207 -104 -335 -120 -55 -7 -101 -16 -101 -19 0 -4 19 -17 42 -30 33 -19 62 -25 128 -28 76 -4 91 -1 142 23 64 30 144 109 178 174 12 24 20 44 18 45 -2 2 -34 -19 -72 -45z"
       id="path354"
       style="fill:#33cc33" />
    <path
       d="M4957 2128 c38 -70 115 -146 180 -175 86 -40 202 -32 283 19 l35 22 -105 13 c-58 7 -139 25 -180 39 -70 25 -199 99 -214 123 -4 6 -12 11 -17 11 -6 0 2 -23 18 -52z"
       id="path356"
       style="fill:#66ffff" />
    <path
       d="M3009 1933 c0 -15 -2 -35 -4 -44 -10 -54 -15 -377 -6 -450 8 -75 51 -212 70 -223 3 -2 7 51 7 117 1 67 9 176 18 242 19 140 20 215 5 270 -13 47 -42 91 -70 105 -17 9 -19 7 -20 -17z"
       id="path358"
       style="fill:#33cc33" />
    <path
       d="M5446 1919 c-24 -29 -37 -56 -42 -87 -8 -52 1 -238 16 -327 5 -33 10 -114 10 -179 0 -71 4 -116 9 -110 5 5 21 43 37 84 27 74 28 79 30 315 2 252 -2 345 -16 345 -5 0 -24 -19 -44 -41z"
       id="path360"
       style="fill:#66ffff" />
    <path
       d="M3250 1722 c0 -6 18 -65 40 -129 22 -65 40 -119 40 -120 0 -2 4 -3 9 -3 5 0 21 23 35 51 25 51 25 52 6 78 -30 42 -130 136 -130 123z"
       id="path362"
       style="fill:#66cc66" />
    <path
       d="M5185 1663 c-33 -36 -64 -72 -68 -80 -9 -16 32 -107 47 -105 18 2 105 253 88 252 -4 -1 -34 -31 -67 -67z"
       id="path364"
       style="fill:#66ff99" />
    <path
       d="M3420 1635 c17 -19 34 -25 63 -25 22 0 37 3 34 6 -6 6 -104 43 -116 44 -3 0 6 -11 19 -25z"
       id="path366"
       style="fill:#66cc66" />
    <path
       d="M5043 1641 c-57 -22 -63 -31 -22 -31 35 0 79 23 79 41 0 12 -6 11 -57 -10z"
       id="path368"
       style="fill:#66ff99" />
    <path
       d="M3545 1583 c-62 -8 -61 -11 16 -89 74 -75 74 -75 117 -69 70 10 144 35 140 47 -6 16 -177 105 -213 111 -16 2 -43 2 -60 0z"
       id="path370"
       style="fill:#66cc66" />
    <path
       d="M4862 1570 c-50 -18 -167 -84 -177 -100 -6 -9 27 -20 123 -41 l52 -11 58 50 c31 28 68 61 81 75 l24 26 -24 5 c-60 12 -93 11 -137 -4z"
       id="path372"
       style="fill:#66ff99" />
    <path
       d="M3391 1484 l-33 -64 41 -76 c23 -42 50 -87 61 -101 l19 -24 55 74 c31 41 56 79 56 85 0 13 -105 127 -140 152 l-26 18 -33 -64z"
       id="path374"
       style="fill:#66cc66" />
    <path
       d="M4988 1462 l-82 -80 59 -81 c48 -66 61 -79 71 -69 7 7 35 52 63 100 l50 87 -30 55 c-17 31 -35 58 -40 62 -5 3 -47 -30 -91 -74z"
       id="path376"
       style="fill:#66ff99" />
    <path
       d="M4595 1388 c-52 -58 -105 -131 -105 -146 0 -10 71 -22 134 -22 39 0 47 6 125 84 l83 83 -79 20 c-43 11 -85 24 -94 27 -12 5 -30 -8 -64 -46z"
       id="path378"
       style="fill:#66ff99" />
    <path
       d="M3746 1408 l-79 -21 74 -69 c96 -90 123 -102 211 -93 37 4 68 9 68 12 0 11 -72 112 -108 151 -45 48 -52 49 -166 20z"
       id="path380"
       style="fill:#66cc66" />
    <path
       d="M3610 1339 c-7 -13 -35 -52 -62 -87 l-49 -63 45 -54 c69 -80 141 -138 154 -122 29 36 83 160 78 180 -3 12 -39 55 -80 96 -73 73 -74 73 -86 50z"
       id="path382"
       style="fill:#66cc66" />
    <path
       d="M4803 1284 c-54 -56 -73 -82 -73 -102 0 -28 71 -174 87 -179 10 -4 183 170 183 184 0 5 -25 42 -55 82 -30 40 -55 77 -55 82 0 19 -17 6 -87 -67z"
       id="path384"
       style="fill:#66ff99" />
    <path
       d="M3893 1193 c-19 -4 -10 -18 80 -126 56 -67 117 -146 136 -175 18 -29 35 -51 38 -49 12 12 -65 276 -95 330 -15 25 -21 27 -77 26 -33 -1 -70 -4 -82 -6z"
       id="path386"
       style="fill:#66cc66" />
    <path
       d="M4436 1132 c-41 -105 -46 -130 -31 -136 26 -10 96 40 161 114 63 71 65 75 42 81 -13 4 -50 7 -84 8 l-61 1 -27 -68z"
       id="path388"
       style="fill:#66ff99" />
    <path
       d="M3766 1064 c-26 -53 -46 -97 -44 -99 51 -38 126 -89 173 -117 64 -38 239 -128 250 -128 11 0 -54 110 -115 195 -63 86 -199 245 -210 245 -4 0 -29 -43 -54 -96z"
       id="path390"
       style="fill:#66cc66" />
    <path
       d="M4634 1108 c-104 -109 -110 -127 -69 -216 23 -50 26 -52 47 -41 43 23 168 110 168 117 1 11 -84 191 -90 192 -3 0 -28 -24 -56 -52z"
       id="path392"
       style="fill:#66ff99" />
    <path
       d="M4403 963 c-22 -4 -26 -14 -46 -100 -9 -38 6 -26 46 37 38 62 42 71 30 69 -5 -1 -18 -4 -30 -6z"
       id="path394"
       style="fill:#66ff99" />
    <path
       d="M4462 898 c-50 -67 -106 -167 -99 -174 8 -9 192 91 190 102 -1 5 -13 35 -27 68 l-24 58 -40 -54z"
       id="path396"
       style="fill:#66ff99" />
  </g>
</svg>
