<?xml version="1.0" encoding="UTF-8" standalone="no"?>
<svg
   xmlns:dc="http://purl.org/dc/elements/1.1/"
   xmlns:cc="http://creativecommons.org/ns#"
   xmlns:rdf="http://www.w3.org/1999/02/22-rdf-syntax-ns#"
   xmlns:svg="http://www.w3.org/2000/svg"
   xmlns="http://www.w3.org/2000/svg"
   xmlns:sodipodi="http://sodipodi.sourceforge.net/DTD/sodipodi-0.dtd"
   xmlns:inkscape="http://www.inkscape.org/namespaces/inkscape"
   version="1.0"
   width="1024.000000pt"
   height="1024.000000pt"
   viewBox="0 0 1024.000000 1024.000000"
   preserveAspectRatio="xMidYMid meet"
   id="svg2"
   inkscape:version="0.91 r13725"
   sodipodi:docname="UNADJUSTEDNONRAW_thumb_85a.svg">
  <defs
     id="defs244" />
  <sodipodi:namedview
     pagecolor="#ffffff"
     bordercolor="#666666"
     borderopacity="1"
     objecttolerance="10"
     gridtolerance="10"
     guidetolerance="10"
     inkscape:pageopacity="0"
     inkscape:pageshadow="2"
     inkscape:window-width="1440"
     inkscape:window-height="816"
     id="namedview242"
     showgrid="false"
     inkscape:zoom="0.4609375"
     inkscape:cx="640"
     inkscape:cy="640"
     inkscape:window-x="0"
     inkscape:window-y="1"
     inkscape:window-maximized="1"
     inkscape:current-layer="svg2" />
  <metadata
     id="metadata4">
Created by potrace 1.14, written by Peter Selinger 2001-2017
<rdf:RDF>
  <cc:Work
     rdf:about="">
    <dc:format>image/svg+xml</dc:format>
    <dc:type
       rdf:resource="http://purl.org/dc/dcmitype/StillImage" />
  </cc:Work>
</rdf:RDF>
</metadata>
  <g
     transform="translate(0.000000,1024.000000) scale(0.100000,-0.100000)"
     fill="#000000"
     stroke="none"
     id="g6">
    <path
       d="M0 5120 l0 -5120 859 0 858 0 48 121 c58 146 123 260 219 388 120 160 189 264 204 306 7 22 34 114 58 204 32 118 42 166 33 171 -6 4 -44 15 -85 25 -81 19 -62 24 -193 -47 -127 -70 -367 -51 -555 44 -164 83 -256 171 -280 270 -6 26 10 78 24 78 4 0 10 -18 14 -39 11 -74 121 -184 208 -210 22 -7 80 -15 130 -18 l89 -6 45 44 c24 24 44 48 44 54 -1 5 -20 23 -45 38 -111 70 -204 185 -246 302 -29 82 -37 236 -16 288 20 47 37 48 37 0 0 -52 28 -159 57 -217 34 -67 113 -148 177 -182 l53 -28 54 35 c51 33 58 34 148 34 92 0 94 1 102 25 4 14 35 116 70 227 34 111 59 208 56 215 -3 10 -199 106 -318 156 -4 2 -22 -23 -40 -55 -36 -63 -48 -55 -26 19 8 25 12 50 8 56 -3 5 -34 23 -67 40 -87 44 -204 135 -309 241 -49 50 -93 91 -98 91 -11 0 87 -141 142 -204 25 -28 52 -60 60 -71 15 -19 15 -19 -4 -5 -44 32 -171 139 -190 160 -11 12 -29 27 -39 32 -19 10 -18 9 2 -23 49 -78 143 -187 231 -270 52 -49 91 -89 87 -89 -10 0 -179 114 -246 165 -70 54 -177 167 -257 270 -74 97 -243 275 -260 275 -7 0 2 -24 21 -57 59 -106 158 -278 178 -310 38 -64 1 -32 -63 55 -65 85 -147 207 -318 472 -46 72 -86 129 -88 127 -2 -3 57 -297 82 -402 8 -34 -44 83 -106 236 -120 299 -132 391 -104 814 15 235 21 285 48 385 29 111 30 123 35 382 5 304 -7 376 -29 182 l-14 -119 -5 250 -5 250 -42 -96 c-50 -112 -68 -190 -81 -352 -12 -147 -32 -181 -32 -55 0 344 136 881 282 1113 40 62 109 155 161 215 57 66 122 208 151 330 14 58 38 160 54 228 17 67 28 122 26 122 -1 0 -23 -29 -49 -64 -54 -76 -80 -133 -100 -218 l-15 -63 5 120 c3 66 8 148 11 183 4 37 2 62 -3 62 -6 0 -36 -69 -68 -152 -32 -84 -62 -157 -67 -163 -7 -7 -8 28 -5 100 4 98 10 124 51 242 66 192 123 315 216 469 45 74 80 137 78 139 -9 10 -164 -116 -262 -212 l-109 -108 33 60 c74 135 157 243 290 376 117 118 157 150 300 244 127 84 303 208 369 262 2 1 2 5 -1 8 -3 3 -31 -5 -62 -19 -31 -14 -56 -22 -55 -18 0 4 34 36 75 71 41 35 72 66 70 68 -13 13 -244 -122 -391 -228 -113 -82 -126 -89 -95 -55 38 43 398 328 553 439 75 54 137 100 137 103 0 12 -347 -175 -465 -251 -62 -40 -2 16 170 160 176 147 332 267 448 345 36 25 67 47 67 50 1 18 -305 -19 -415 -49 -38 -11 -71 -18 -72 -17 -4 3 179 85 257 116 30 12 119 37 198 56 181 43 304 83 295 97 -4 6 -50 8 -127 4 -129 -6 -287 -41 -415 -91 -36 -14 -66 -24 -68 -22 -7 7 256 135 348 170 161 59 251 75 484 86 226 11 350 28 485 67 94 27 250 100 295 139 l30 25 -105 -5 c-85 -3 -289 -38 -372 -62 -10 -3 -18 -1 -18 3 0 5 24 17 53 28 82 29 120 46 115 51 -3 2 -121 -20 -264 -50 -142 -30 -261 -53 -263 -51 -5 6 530 272 617 307 179 71 358 123 581 167 118 24 316 28 480 10 56 -6 106 -9 113 -6 21 7 -160 93 -257 122 -50 15 -92 29 -94 31 -15 13 21 11 138 -10 l133 -24 -37 38 c-69 70 -164 109 -330 136 -49 8 -49 8 40 15 107 8 313 -5 422 -26 102 -20 288 -45 327 -44 26 0 21 4 -29 21 -48 17 -56 23 -40 29 51 20 168 7 470 -50 337 -65 405 -76 405 -68 0 3 -65 27 -145 54 -80 26 -145 51 -145 55 0 12 15 10 201 -27 96 -20 180 -34 187 -33 8 2 -63 48 -157 103 -93 54 -168 102 -165 106 2 4 36 13 74 20 54 9 82 10 120 1 83 -19 234 -80 459 -183 118 -55 216 -98 218 -96 1 2 -37 55 -87 118 -49 63 -90 117 -90 122 0 28 91 -19 175 -89 144 -122 291 -224 323 -224 15 0 -15 56 -98 180 -31 47 -60 92 -65 100 -10 19 35 -22 218 -199 82 -78 151 -140 154 -138 3 3 -9 89 -27 191 -17 102 -30 193 -27 203 5 24 8 15 41 -122 33 -140 102 -282 193 -395 38 -46 73 -85 79 -87 8 -3 5 20 -7 64 -30 106 -41 250 -29 393 15 186 25 208 33 74 8 -121 34 -241 69 -318 l23 -50 5 167 c5 177 19 219 33 100 9 -81 38 -207 66 -283 25 -70 25 -60 1 144 -18 148 -20 191 -7 175 8 -9 137 -380 177 -507 23 -74 43 -132 45 -130 2 1 31 66 65 143 91 207 88 211 56 -92 -7 -62 -11 -113 -9 -113 2 0 10 14 17 31 13 30 13 28 19 -46 4 -42 14 -104 22 -138 30 -119 88 -296 96 -292 4 3 10 33 14 67 10 84 20 108 45 108 57 0 183 -101 253 -204 112 -165 103 -309 -23 -384 -98 -57 -94 -50 -60 -143 16 -45 55 -122 86 -173 104 -166 115 -191 115 -250 0 -70 -20 -109 -73 -138 -42 -23 -102 -99 -114 -144 -3 -12 11 -59 35 -116 23 -53 41 -106 41 -119 0 -18 -25 -47 -90 -107 l-90 -83 5 -82 6 -82 -117 -150 c-64 -82 -145 -193 -179 -246 -74 -110 -147 -188 -229 -243 -54 -36 -60 -38 -72 -22 -10 15 -13 7 -16 -49 -1 -37 -1 -68 1 -70 2 -2 21 8 42 22 22 14 42 23 46 19 9 -9 -22 -62 -65 -110 -63 -71 -74 -122 -47 -228 32 -123 -16 -174 -300 -316 -177 -89 -259 -141 -243 -157 10 -10 371 -136 446 -155 104 -26 207 -38 402 -45 l165 -6 59 44 c52 37 62 49 73 92 7 28 13 61 13 75 0 14 8 40 18 57 20 38 168 144 238 171 l48 19 37 184 c20 101 44 220 53 264 10 44 62 294 117 555 182 866 370 1691 391 1718 28 34 118 -18 118 -68 0 -12 -36 -171 -79 -353 -44 -183 -141 -587 -215 -899 -75 -312 -180 -753 -235 -980 -55 -227 -101 -433 -103 -458 l-3 -45 102 3 c92 3 103 2 122 -17 24 -24 28 -83 7 -100 -10 -8 -13 -23 -9 -45 3 -20 -1 -45 -11 -64 -9 -17 -16 -45 -16 -63 0 -17 -9 -48 -19 -68 -11 -20 -30 -59 -41 -88 -27 -64 -37 -73 -136 -122 -114 -56 -112 -54 -130 -155 -8 -48 -13 -91 -9 -94 8 -8 53 37 218 221 140 157 299 304 436 402 187 135 504 189 788 134 124 -24 131 -27 278 -141 61 -46 145 -108 188 -137 42 -28 77 -53 77 -56 0 -4 -42 8 -81 23 -15 6 -57 31 -93 56 -114 78 -218 96 -426 73 l-125 -14 143 -2 c78 0 142 -5 142 -9 0 -4 -89 -25 -197 -46 -275 -52 -319 -64 -394 -103 -62 -32 -215 -150 -206 -159 2 -2 49 12 105 30 62 21 104 31 108 25 3 -6 4 -11 3 -12 -2 -1 -31 -15 -64 -31 -39 -19 -87 -57 -137 -107 -65 -66 -85 -94 -132 -191 -80 -163 -100 -245 -100 -393 0 -109 4 -129 33 -217 19 -54 37 -96 41 -93 4 2 10 23 14 46 11 68 52 156 121 260 36 54 69 101 74 103 5 3 -6 -29 -25 -72 -56 -130 -69 -193 -69 -332 1 -142 13 -196 77 -328 39 -80 68 -119 53 -71 -34 107 -71 349 -53 349 3 0 13 -33 23 -72 24 -101 64 -185 128 -270 97 -129 94 -130 93 24 -1 133 22 448 33 448 3 0 7 -46 8 -103 3 -202 38 -345 167 -686 58 -154 94 -235 116 -260 53 -62 121 -170 147 -234 60 -147 65 -189 73 -522 6 -305 7 -311 35 -398 36 -111 49 -97 50 56 0 104 1 107 17 87 25 -31 37 -80 50 -213 11 -111 3 -272 -19 -392 -9 -46 9 -20 42 60 27 68 54 113 41 70 -45 -155 -86 -329 -132 -555 -62 -309 -91 -405 -170 -569 -30 -63 -52 -116 -49 -119 9 -9 246 232 285 290 21 31 50 89 66 128 15 38 29 69 31 67 2 -2 -6 -35 -18 -73 -31 -102 -100 -227 -194 -350 -46 -60 -81 -111 -78 -114 3 -3 49 42 103 100 55 57 101 102 104 100 2 -3 -65 -95 -150 -205 -85 -110 -154 -203 -154 -207 0 -5 182 -8 405 -8 l405 0 0 5120 0 5120 -5120 0 -5120 0 0 -5120z"
       id="path8"
       style="fill:#191970" />
    <path
       d="M5460 10005 c0 -2 86 -65 190 -140 164 -118 209 -155 184 -155 -3 0 -60 16 -126 35 -67 19 -123 33 -125 31 -2 -2 28 -17 67 -35 79 -35 85 -53 13 -39 -50 9 -492 92 -713 133 -116 21 -159 25 -114 9 53 -19 184 -84 184 -92 0 -5 -51 -1 -112 9 -258 40 -718 109 -728 109 -10 0 36 -37 228 -186 40 -31 70 -59 68 -61 -3 -3 -21 0 -41 7 -54 18 -52 7 5 -30 27 -18 50 -36 50 -41 0 -5 -19 -6 -42 -4 -150 17 -374 35 -443 35 -141 0 -338 -43 -620 -135 l-140 -45 75 5 c233 15 278 17 283 8 3 -5 -53 -17 -126 -27 -127 -17 -294 -62 -330 -88 -14 -11 21 -13 195 -11 212 3 233 0 147 -16 l-44 -8 63 -8 c38 -5 62 -12 59 -19 -5 -18 -216 -154 -312 -201 -99 -48 -232 -89 -340 -105 -38 -5 -144 -10 -234 -10 -150 0 -348 -16 -337 -27 2 -3 55 -11 118 -20 62 -8 115 -16 117 -19 18 -18 -146 -87 -303 -126 -66 -17 -124 -34 -128 -37 -4 -3 35 -4 87 -3 56 3 95 0 95 -6 0 -5 -94 -67 -210 -138 -115 -71 -210 -132 -210 -137 0 -8 25 2 147 55 40 17 76 29 79 25 11 -11 -166 -197 -233 -246 -34 -25 -60 -47 -58 -49 2 -3 35 8 72 23 155 62 168 67 153 52 -8 -8 -82 -68 -165 -133 -144 -115 -149 -119 -117 -122 17 -2 32 -7 32 -12 0 -8 -123 -113 -205 -177 -22 -17 -103 -70 -180 -118 -77 -48 -174 -113 -215 -143 -96 -71 -231 -184 -226 -189 2 -3 66 34 141 82 75 47 141 85 147 83 6 -2 -26 -43 -70 -91 -86 -92 -179 -225 -257 -367 -55 -99 -137 -280 -127 -280 4 1 47 50 95 110 48 61 92 110 96 110 4 0 -15 -46 -44 -103 -47 -95 -83 -209 -73 -237 2 -6 32 30 68 81 69 97 224 268 234 258 4 -3 -23 -80 -60 -170 -82 -203 -129 -339 -201 -584 -30 -104 -60 -199 -65 -210 -6 -11 -30 -40 -53 -65 -82 -86 -185 -235 -244 -355 -57 -112 -126 -303 -116 -314 6 -6 2 -11 65 84 69 104 182 256 187 251 2 -2 -23 -66 -55 -142 -63 -149 -86 -221 -80 -250 2 -13 10 -7 31 25 16 24 31 41 33 38 3 -2 -7 -57 -22 -121 -14 -65 -23 -120 -21 -123 3 -3 22 26 41 63 19 38 35 66 36 62 0 -4 -6 -37 -14 -75 -35 -164 -90 -553 -79 -553 1 0 25 44 52 97 28 54 50 94 50 90 1 -5 -19 -63 -43 -130 -76 -209 -128 -419 -157 -637 -18 -132 -18 -477 1 -620 l15 -115 5 130 5 130 38 -115 c65 -194 192 -439 206 -397 8 22 88 -59 339 -343 99 -113 206 -230 237 -260 l57 -55 -80 110 c-79 108 -212 319 -212 336 0 24 26 0 112 -102 51 -61 104 -124 118 -140 48 -56 39 -28 -21 63 -34 53 -56 94 -49 96 19 7 89 -48 210 -163 127 -122 170 -155 276 -208 l71 -36 49 87 c131 234 290 382 495 461 46 18 94 37 107 42 31 12 52 66 52 133 0 49 -4 59 -40 101 -54 62 -67 109 -47 169 9 25 30 66 47 91 17 25 28 50 25 55 -10 16 -72 28 -235 45 -201 21 -217 26 -229 73 -22 76 20 191 96 267 57 58 111 85 179 92 30 3 54 9 54 13 0 12 -44 47 -115 90 -38 24 -81 53 -95 65 -28 25 -187 78 -232 78 -16 0 -39 -10 -54 -24 -23 -20 -25 -21 -16 -4 5 11 33 88 62 170 51 149 84 220 123 262 18 21 21 21 32 6 10 -14 24 20 86 205 40 121 76 219 80 216 11 -7 28 -93 35 -182 3 -46 8 -81 11 -78 2 2 17 46 32 97 16 51 33 95 39 97 6 2 13 -20 17 -52 4 -31 11 -56 16 -56 5 0 9 5 9 10 0 6 11 91 25 188 14 97 36 280 49 405 14 126 27 231 30 235 12 11 13 -5 5 -87 -5 -47 -7 -86 -5 -88 2 -2 14 29 26 69 34 116 219 449 207 375 -5 -32 -6 -33 56 50 41 54 108 117 172 163 11 8 -14 -22 -56 -65 -41 -44 -90 -101 -108 -127 -49 -72 -108 -203 -133 -295 -13 -46 -27 -83 -31 -83 -5 0 -6 8 -3 18 2 9 8 49 12 87 8 85 -3 78 -40 -25 -47 -135 -57 -222 -63 -532 -3 -159 -9 -288 -13 -288 -4 0 -13 46 -20 103 -7 56 -16 108 -20 115 -3 7 -31 -79 -61 -192 -54 -206 -78 -255 -80 -163 -3 112 -15 94 -61 -93 l-46 -185 -1 203 c0 111 -5 202 -9 202 -5 0 -51 -102 -103 -227 -92 -222 -94 -226 -97 -180 -6 90 -35 42 -52 -86 -7 -53 -7 -85 0 -97 6 -12 41 -28 93 -44 87 -26 197 -56 208 -56 4 0 4 47 2 104 -5 93 -3 109 16 149 26 53 84 97 138 104 44 6 91 -14 288 -121 66 -36 128 -65 138 -66 25 0 21 29 -13 80 -60 91 -50 133 46 197 l55 36 -46 47 c-55 56 -58 88 -15 147 36 49 117 93 171 93 55 0 64 18 36 71 -15 28 -47 62 -91 95 -87 66 -106 95 -106 160 0 40 7 62 36 110 95 158 176 195 349 160 39 -8 84 -16 100 -18 l30 -3 -4 92 c-4 109 8 151 54 191 45 40 95 55 168 50 53 -4 85 -16 225 -87 93 -46 171 -79 181 -76 9 2 54 43 101 90 l84 84 -24 123 c-50 261 -80 346 -149 420 -22 25 -64 56 -93 70 -30 15 -61 35 -71 46 -9 10 -38 93 -62 183 -85 304 -101 352 -137 385 -18 17 -85 71 -148 120 -132 102 -287 254 -377 369 -35 44 -124 170 -198 279 -147 217 -154 236 -112 294 12 17 101 100 197 184 96 84 247 223 335 308 160 155 226 211 340 284 33 22 101 69 150 106 50 37 115 81 145 98 70 39 240 101 260 94 8 -3 33 -20 55 -37 106 -86 196 -129 305 -146 58 -9 90 -7 180 7 l109 17 96 -36 c108 -41 128 -43 199 -22 27 8 69 15 92 15 73 0 292 -98 443 -198 66 -44 87 -63 101 -96 25 -57 53 -325 48 -466 -2 -98 -1 -115 12 -113 8 1 64 9 123 17 135 20 180 20 246 0 98 -29 167 -114 205 -253 22 -78 19 -82 -84 -106 -97 -23 -388 -118 -439 -144 -22 -12 -42 -25 -46 -30 -8 -13 34 -219 52 -254 10 -20 38 -39 99 -67 157 -73 196 -112 320 -328 l59 -103 7 63 c3 35 12 92 18 128 13 72 6 176 -15 248 -8 26 -37 81 -65 121 -42 61 -50 81 -48 110 l3 36 22 -45 c45 -89 93 -141 153 -163 113 -41 242 -138 261 -195 14 -43 6 -32 218 -281 90 -106 175 -198 188 -204 19 -8 48 -7 125 6 56 10 108 21 116 26 22 12 -36 72 -109 111 -88 46 -109 108 -73 213 20 59 28 65 110 82 75 16 94 9 94 -30 0 -60 106 -86 171 -42 33 22 34 26 42 107 11 112 27 128 27 27 0 -45 4 -77 10 -77 21 0 170 153 170 174 0 11 -12 45 -25 75 -35 75 -47 131 -35 171 l9 33 -24 -23 c-27 -26 -32 -49 -13 -68 9 -9 -3 -12 -56 -12 -65 0 -67 -1 -60 -22 6 -21 6 -22 -17 -7 -37 24 -59 77 -59 142 l0 58 43 19 c61 27 185 50 266 50 62 0 72 3 82 21 25 48 6 107 -85 257 -99 162 -117 207 -146 366 -12 61 -24 119 -27 130 -10 34 17 6 43 -45 13 -28 32 -53 41 -56 24 -9 80 26 97 61 63 132 32 232 -115 379 -75 73 -109 92 -125 66 -4 -7 -10 -56 -14 -110 -3 -54 -9 -102 -13 -105 -3 -4 -18 1 -33 11 -36 23 -87 139 -114 258 -12 53 -24 97 -26 97 -3 0 -9 -11 -14 -25 -5 -14 -14 -25 -19 -25 -14 0 -21 37 -28 148 -3 56 -10 102 -15 102 -4 0 -8 -46 -9 -102 0 -57 -4 -121 -8 -143 l-7 -40 -22 67 c-11 37 -33 122 -47 190 -31 148 -63 280 -70 286 -8 9 -6 -46 10 -208 8 -85 11 -158 6 -163 -4 -4 -39 73 -76 173 -37 99 -70 179 -72 176 -2 -2 11 -54 30 -115 19 -61 34 -111 32 -111 -5 0 -96 139 -136 207 -21 37 -39 65 -39 61 0 -4 21 -55 46 -114 57 -134 87 -214 82 -219 -2 -2 -46 43 -98 100 -52 57 -96 102 -99 100 -2 -2 11 -26 28 -53 38 -59 40 -74 5 -41 -14 13 -28 23 -30 21 -3 -2 -33 32 -66 75 -70 90 -138 165 -188 208 l-34 30 28 -48 c15 -27 25 -51 22 -54 -3 -3 -24 10 -48 30 -84 68 -289 182 -287 159 0 -4 34 -36 75 -72 41 -36 70 -66 64 -68 -5 -2 -29 12 -52 32 -55 47 -107 72 -217 102 -107 29 -197 67 -379 158 -73 36 -167 80 -210 97 -42 17 -98 40 -124 50 -27 10 -48 17 -48 14z m948 -727 c5 -7 10 -47 10 -88 1 -49 10 -103 26 -156 31 -105 50 -224 42 -267 -7 -36 -21 -47 -62 -47 l-23 0 24 46 c30 57 31 74 6 172 -11 43 -29 126 -40 186 -12 59 -24 112 -27 117 -9 16 -103 -43 -170 -107 -85 -81 -135 -184 -141 -287 -5 -67 -3 -75 26 -118 17 -26 56 -64 86 -84 58 -40 64 -59 15 -45 -71 20 -132 79 -168 163 -29 68 0 200 67 306 44 69 124 139 207 184 73 38 105 45 122 25z m670 -215 c135 -80 345 -300 330 -345 -3 -8 -91 91 -195 221 -1 2 -6 1 -10 -2 -3 -4 6 -38 20 -76 14 -38 23 -72 19 -75 -11 -12 -53 -6 -129 19 l-78 24 53 -50 c75 -73 73 -77 -36 -58 -59 11 -66 10 -75 -7 -10 -17 -11 -17 -18 1 -19 48 2 54 109 28 46 -11 19 16 -78 76 -55 35 -98 67 -95 71 3 5 27 3 53 -5 183 -54 257 -74 260 -70 2 2 -4 27 -13 56 -18 54 -92 138 -175 202 -52 39 -15 33 58 -10z m-744 -195 c-7 -104 -9 -116 -20 -105 -9 9 7 207 17 207 5 0 6 -46 3 -102z m341 -258 c4 -6 -34 -10 -107 -11 -92 -1 -107 -3 -78 -11 56 -15 55 -25 -2 -43 -68 -23 -73 -26 -57 -36 9 -6 -5 -9 -38 -9 -28 0 -54 4 -57 9 -3 4 30 19 74 31 44 13 80 27 80 32 0 8 -122 3 -195 -7 -28 -4 -29 -4 -11 10 11 8 25 15 30 16 6 0 38 6 71 14 71 16 281 20 290 5z m-491 -185 c43 -14 99 -25 133 -26 51 -1 54 -2 28 -10 -34 -10 -101 -3 -159 18 -22 7 -41 11 -43 9 -2 -2 19 -18 46 -35 56 -36 77 -58 67 -69 -9 -9 -216 -19 -216 -11 0 4 27 12 60 19 33 7 63 16 65 21 3 4 -33 38 -79 75 -46 38 -82 72 -80 76 3 4 27 -3 54 -17 27 -14 83 -36 124 -50z m1319 -655 c16 -67 21 -100 13 -100 -6 0 -19 35 -29 78 -9 42 -20 87 -23 100 -4 12 -2 22 4 22 5 0 21 -45 35 -100z m-721 65 c85 -8 174 -22 198 -30 24 -8 80 -40 126 -71 83 -55 224 -124 256 -124 10 0 41 9 69 20 86 32 87 3 2 -47 -29 -17 -51 -23 -68 -19 -16 4 -60 -8 -132 -36 l-108 -43 100 -5 100 -5 -80 -10 c-103 -13 -202 -11 -251 5 -35 12 -385 257 -399 280 -9 15 1 12 46 -10 42 -22 79 -15 79 15 0 18 -27 45 -45 45 -16 0 -75 49 -59 50 6 0 80 -7 166 -15z m806 -62 c14 -91 15 -109 5 -99 -10 9 -31 176 -23 176 4 0 12 -35 18 -77z m-1263 -202 c7 -34 11 -61 8 -61 -12 0 -43 93 -38 111 9 29 15 19 30 -50z m-41 -66 c36 -54 60 -104 53 -112 -3 -2 -22 22 -42 54 -21 32 -52 78 -68 101 l-29 44 25 -17 c15 -9 42 -41 61 -70z m1096 -53 c0 -11 -148 -57 -157 -49 -9 10 -6 11 72 34 84 25 85 25 85 15z m-742 -61 c43 -22 125 -91 118 -98 -5 -6 -176 103 -176 112 0 10 22 5 58 -14z m-3419 -356 c1 -136 -11 -308 -21 -291 -7 12 -5 323 2 426 4 50 19 -54 19 -135z m85 -221 c9 -72 7 -234 -5 -320 -15 -107 -52 -223 -104 -321 -40 -76 -122 -194 -145 -208 -5 -3 22 56 60 132 42 82 78 170 90 215 10 43 28 90 39 105 28 39 55 230 49 351 -5 96 5 125 16 46z m171 -34 c-25 -139 -19 -264 23 -472 21 -104 35 -188 30 -188 -4 0 -8 5 -8 11 0 6 -21 77 -46 157 l-47 146 -17 -45 c-9 -24 -29 -77 -45 -117 -15 -40 -29 -71 -32 -68 -4 4 27 127 68 269 11 37 24 65 30 62 5 -4 9 31 9 89 0 93 13 183 32 219 16 31 17 16 3 -63z m-292 -41 c18 -33 22 -76 8 -98 -6 -10 -11 -6 -18 15 -9 28 -10 27 -32 -39 -13 -38 -26 -66 -28 -63 -7 7 38 216 46 216 3 0 14 -14 24 -31z m-1411 -2106 c-15 -138 -32 -190 -32 -99 0 85 31 260 44 245 1 -2 -4 -68 -12 -146z m-752 -1469 c166 -92 350 -211 415 -270 l40 -36 -40 23 c-22 13 -73 45 -113 72 -69 46 -128 76 -181 92 l-24 7 23 -36 c12 -21 21 -39 18 -41 -3 -3 -81 66 -251 222 -32 29 -55 53 -50 53 4 0 78 -39 163 -86z"
       id="path10"
       style="fill:#cd853f" />
    <path
       d="M6770 7761 c0 -16 61 -61 81 -61 17 0 54 14 68 26 2 2 -4 13 -14 24 -14 16 -31 20 -77 20 -32 0 -58 -4 -58 -9z"
       id="path12"
       style="fill:#ff8c00" />
    <path
       d="M7010 7701 c0 -21 -2 -40 -4 -42 -3 -3 -43 -2 -89 2 -66 5 -96 13 -134 34 -45 26 -83 29 -83 8 0 -8 120 -90 232 -160 64 -40 114 -43 196 -10 31 13 78 29 105 36 26 8 47 17 47 20 0 4 -24 19 -52 33 -29 15 -90 47 -135 72 l-83 45 0 -38z"
       id="path14"
       style="fill:#191970" />
    <path
       d="M4181 9134 l-54 -24 39 -42 c22 -24 61 -79 87 -124 55 -95 61 -100 151 -148 63 -33 76 -36 150 -36 85 1 87 13 4 23 -48 7 -180 67 -194 88 -5 8 -2 11 7 7 133 -49 149 -51 262 -39 60 7 197 17 305 21 142 6 210 13 245 25 83 30 57 37 -115 29 -121 -5 -159 -4 -154 4 4 7 26 12 49 13 23 1 53 4 66 8 31 8 14 23 -52 45 -58 20 -79 20 -184 1 -73 -13 -93 -13 -168 0 -133 23 -224 64 -314 140 -24 19 -50 35 -59 34 -10 0 -41 -11 -71 -25z"
       id="path16"
       style="fill:#ffdead" />
    <path
       d="M3864 8953 c-298 -208 -308 -215 -534 -443 -113 -113 -258 -250 -323 -304 -65 -54 -121 -104 -124 -112 -7 -20 26 -84 118 -225 230 -351 459 -595 709 -755 114 -72 369 -264 381 -285 19 -37 -13 -19 -152 88 -76 58 -141 104 -143 102 -3 -3 17 -87 44 -188 81 -300 75 -287 118 -312 20 -12 67 -52 105 -88 37 -36 71 -64 75 -63 4 2 35 -105 69 -238 33 -133 63 -243 65 -246 3 -2 56 8 119 22 156 36 231 36 291 1 28 -16 52 -40 62 -61 16 -33 15 -41 -4 -135 -32 -160 -31 -163 73 -176 52 -7 57 -6 57 11 0 32 38 83 85 116 27 19 45 40 45 51 0 25 -48 194 -101 357 -49 147 -103 265 -226 490 -99 181 -109 204 -91 198 6 -2 47 -67 90 -144 43 -76 78 -132 78 -122 0 9 -20 94 -44 190 -24 95 -47 191 -51 213 -11 66 -35 104 -82 132 -24 14 -46 23 -49 20 -5 -4 -71 -318 -141 -669 -15 -76 -31 -138 -35 -138 -4 0 -8 7 -8 17 0 16 55 283 125 601 19 90 35 176 35 192 0 19 -14 44 -42 77 -60 70 -83 127 -128 332 -23 101 -53 209 -68 240 l-27 56 -58 -1 c-79 -2 -190 -56 -247 -121 -22 -26 -39 -53 -38 -60 2 -7 41 -47 88 -87 75 -66 86 -73 97 -59 17 22 19 18 38 -52 16 -64 19 -223 6 -290 -7 -31 -9 -16 -10 70 0 61 -5 125 -10 143 -12 39 -108 133 -419 407 -183 162 -218 196 -229 231 -15 45 -36 57 -84 47 -15 -3 -64 2 -108 11 -136 28 -138 36 -5 29 135 -6 136 -6 227 66 47 37 91 94 219 280 134 194 164 245 178 298 20 74 40 99 95 123 22 9 69 41 105 70 36 28 77 58 93 66 16 9 27 23 27 35 0 20 -79 112 -110 129 -12 7 -69 -28 -226 -137z m-513 -789 c22 -9 38 -18 36 -21 -8 -7 -157 30 -157 40 0 12 68 2 121 -19z m994 -1572 c-20 -158 -41 -296 -46 -307 -13 -28 -2 193 17 320 18 131 58 315 62 292 2 -9 -13 -147 -33 -305z"
       id="path18"
       style="fill:#ba55d3" />
    <path
       d="M5296 8968 c-23 -85 -35 -93 -181 -128 -49 -12 -97 -26 -105 -30 -16 -7 -60 -78 -60 -96 0 -6 33 -26 72 -44 40 -17 83 -43 95 -56 16 -18 33 -24 62 -24 48 0 241 -66 367 -125 96 -45 177 -96 259 -164 29 -24 53 -37 58 -32 5 5 4 77 -3 173 -23 308 -34 323 -362 466 -154 68 -196 80 -202 60z"
       id="path20"
       style="fill:#7b68ee" />
    <path
       d="M4163 8870 c-44 -19 -93 -61 -93 -79 0 -16 129 -32 230 -29 l95 3 -61 37 c-33 21 -66 49 -72 63 -14 30 -41 32 -99 5z"
       id="path22"
       style="fill:#7b68ee" />
    <path
       d="M4713 8811 c-58 -10 -61 -16 -22 -41 36 -21 77 -34 146 -45 40 -6 42 -5 69 35 23 34 25 43 13 51 -16 10 -143 10 -206 0z"
       id="path24"
       style="fill:#7b68ee" />
    <path
       d="M3945 8740 c-18 -20 -20 -36 -20 -139 1 -135 17 -208 74 -326 47 -99 102 -169 187 -239 62 -51 200 -133 210 -124 2 2 -2 43 -8 90 -11 84 -11 87 16 141 35 73 120 150 225 206 45 23 80 45 78 48 -3 2 -64 24 -136 47 -72 24 -128 46 -125 49 3 3 17 2 30 -3 14 -6 86 -26 162 -45 105 -28 170 -38 278 -45 206 -14 351 -48 487 -116 26 -14 47 -22 47 -20 0 2 -29 25 -65 51 -106 75 -189 150 -244 218 -40 51 -63 70 -112 91 -145 66 -248 83 -589 96 -135 6 -274 15 -310 20 -151 24 -163 24 -185 0z"
       id="path26"
       style="fill:#6a5acd" />
    <path
       d="M3868 8553 c-9 -10 -78 -108 -153 -218 -76 -110 -162 -226 -191 -257 -30 -31 -54 -65 -54 -75 0 -38 59 -111 200 -245 79 -76 147 -138 152 -138 4 0 41 28 81 61 39 34 99 75 132 90 104 50 215 60 246 23 6 -8 15 -14 18 -14 9 0 71 87 71 99 0 5 -14 14 -31 21 -54 23 -150 90 -212 148 -116 110 -189 251 -225 435 -16 83 -18 88 -34 70z"
       id="path28"
       style="fill:#a0522d" />
    <path
       d="M5247 8481 c45 -43 162 -137 260 -209 98 -72 211 -157 250 -191 40 -34 75 -61 77 -61 2 0 7 33 11 74 9 89 -9 135 -64 172 -20 13 -67 48 -104 78 -125 98 -321 185 -472 210 l-40 6 82 -79z"
       id="path30"
       style="fill:#7b68ee" />
    <path
       d="M4775 8346 c-45 -20 -82 -65 -110 -134 -32 -78 -31 -102 1 -133 l26 -24 -44 -5 -43 -5 -3 -45 c-1 -25 2 -52 8 -60 8 -12 16 -8 45 25 60 70 38 20 -30 -66 -36 -45 -65 -86 -65 -90 0 -4 14 -19 32 -33 18 -14 29 -28 25 -32 -4 -4 -13 -2 -19 4 -22 22 -37 12 -49 -30 -9 -35 -7 -74 12 -215 12 -95 26 -178 29 -184 13 -20 92 -27 240 -22 143 6 171 -1 88 -22 l-40 -10 113 -133 c62 -72 115 -132 119 -132 3 0 35 39 70 87 36 48 83 108 104 133 53 61 86 134 86 191 0 47 27 219 36 228 2 2 10 -3 17 -12 11 -16 14 -16 44 3 52 31 87 94 87 154 0 137 -113 174 -139 45 -5 -27 -14 -50 -20 -50 -5 0 -14 24 -20 54 -12 60 -33 98 -67 122 -117 81 -160 120 -230 209 -107 136 -144 175 -174 186 -35 14 -93 12 -129 -4z m280 -227 c28 -12 20 -14 -103 -27 -131 -15 -166 -12 -127 11 63 37 164 44 230 16z m-68 -175 c80 7 88 -1 30 -30 -44 -23 -143 -22 -187 2 l-35 19 26 3 c15 2 35 12 45 23 17 19 17 19 32 -2 14 -20 21 -21 89 -15z m-277 -159 c7 -9 10 -18 7 -21 -7 -8 -87 17 -87 28 0 14 67 9 80 -7z m228 -170 c9 -8 -29 -50 -73 -80 -87 -59 -208 -80 -252 -43 -7 6 -13 28 -13 49 0 21 -4 49 -9 62 -6 14 -8 27 -6 28 4 5 348 -12 353 -16z m382 -106 c-23 -42 -162 -156 -149 -122 5 12 146 143 154 143 3 0 1 -9 -5 -21z"
       id="path32"
       style="fill:#d2b48c" />
    <path
       d="M4648 7589 c-19 -12 -2 -32 38 -45 l39 -12 -54 -1 c-53 -1 -54 -1 -36 -21 24 -27 87 -26 145 2 l45 22 -45 6 c-25 4 -35 8 -23 8 27 2 73 23 73 33 0 9 -168 16 -182 8z"
       id="path34"
       style="fill:#ff0000" />
    <path
       d="M4995 8323 c225 -300 253 -321 485 -353 119 -17 162 -43 189 -115 12 -32 25 -100 30 -160 11 -123 38 -193 99 -252 41 -40 117 -81 128 -70 12 12 -113 549 -143 615 -25 53 -36 39 -28 -35 9 -91 -3 -76 -14 18 -12 91 -17 96 -203 195 -226 120 -362 170 -512 189 l-60 7 29 -39z m710 -399 c18 -42 57 -196 51 -201 -2 -2 -16 36 -31 84 -15 48 -40 117 -56 152 -16 35 -29 66 -29 70 0 12 49 -67 65 -105z"
       id="path36"
       style="fill:#c71585" />
    <path
       d="M4604 8294 c-76 -45 -128 -96 -165 -159 -34 -58 -36 -94 -9 -153 l19 -42 -60 -118 c-64 -123 -83 -205 -61 -262 8 -22 10 -17 16 36 4 33 12 67 18 75 7 10 8 6 4 -16 -4 -16 -9 -70 -13 -118 -7 -109 13 -192 68 -277 43 -66 81 -95 139 -104 48 -7 63 -26 21 -26 -32 0 -49 -16 -33 -32 33 -33 200 -30 234 4 22 22 26 129 6 145 -7 6 -49 13 -94 16 -96 7 -129 20 -143 56 -23 61 -34 362 -18 483 7 55 6 58 -20 71 l-26 14 36 7 c41 8 42 10 51 115 4 42 21 102 50 175 25 61 48 119 51 129 10 25 -4 21 -71 -19z"
       id="path38"
       style="fill:#c71585" />
    <path
       d="M6025 8104 c-120 -28 -143 -50 -125 -116 8 -25 24 -42 67 -70 142 -91 266 -126 378 -108 87 14 115 28 115 56 0 39 -37 126 -72 168 -49 60 -115 86 -218 85 -47 0 -112 -7 -145 -15z"
       id="path40"
       style="fill:#7b68ee" />
    <path
       d="M5366 7941 c21 -36 19 -36 64 -12 l35 19 -40 7 c-22 4 -48 9 -59 12 -18 5 -18 4 0 -26z"
       id="path42"
       style="fill:#db7093" />
    <path
       d="M5530 7936 c0 -2 12 -25 27 -51 22 -40 27 -63 29 -132 2 -69 8 -92 29 -128 22 -39 64 -80 72 -71 2 1 -4 40 -13 87 -44 235 -56 267 -114 287 -16 6 -30 10 -30 8z"
       id="path44"
       style="fill:#db7093" />
    <path
       d="M5870 7905 c0 -31 33 -220 40 -228 6 -6 235 75 248 88 3 2 -244 138 -280 153 -4 2 -8 -4 -8 -13z"
       id="path46"
       style="fill:#6a5acd" />
    <path
       d="M7866 7648 c-13 -23 -30 -78 -23 -78 2 0 23 23 46 50 41 49 42 50 17 50 -16 0 -31 -9 -40 -22z"
       id="path48"
       style="fill:#191970" />
    <path
       d="M5495 7609 c-77 -63 -83 -78 -56 -122 27 -45 27 -77 -4 -167 -14 -40 -25 -84 -25 -96 0 -29 78 -132 140 -184 111 -93 209 -132 239 -96 9 11 1 20 -46 46 -134 76 -214 188 -229 320 -8 82 3 74 17 -11 19 -117 74 -188 223 -288 l68 -45 74 38 c40 22 91 58 114 81 l41 42 -116 12 c-210 21 -260 42 -325 136 -43 62 -32 68 16 10 69 -83 98 -94 285 -107 90 -6 186 -8 214 -4 l50 8 -24 19 c-13 11 -89 54 -170 96 -230 120 -285 165 -375 306 -20 31 -40 57 -44 56 -4 0 -34 -23 -67 -50z m128 -158 c43 -35 75 -66 73 -68 -13 -13 -166 111 -188 151 -12 23 -14 24 115 -83z"
       id="path50"
       style="fill:#c71585" />
    <path
       d="M7750 7623 c-36 -7 -55 -24 -38 -34 23 -15 64 -10 81 9 10 10 14 22 10 25 -7 7 -12 7 -53 0z"
       id="path52"
       style="fill:#ff8c00" />
    <path
       d="M7624 7545 c-15 -39 63 -92 116 -78 32 8 23 31 -20 53 -72 37 -90 41 -96 25z"
       id="path54"
       style="fill:#191970" />
    <path
       d="M5309 7218 c-135 -151 -185 -229 -214 -335 l-13 -48 -1 58 c-1 32 -8 74 -16 95 -15 34 -219 252 -237 252 -5 0 -8 -26 -8 -57 0 -32 -5 -78 -11 -102 -12 -52 -6 -60 68 -100 46 -25 57 -49 19 -43 -10 1 -63 20 -117 41 -55 21 -101 35 -104 31 -6 -10 30 -192 67 -335 17 -66 69 -230 115 -365 111 -321 169 -495 183 -547 l11 -43 49 0 c60 0 61 1 143 140 74 125 177 264 282 379 62 67 75 87 70 105 -4 11 -9 55 -12 96 -4 69 -2 78 21 110 80 109 79 109 79 171 0 90 -8 95 -188 119 -83 11 -165 23 -183 26 -58 9 -23 24 59 24 43 0 79 4 79 8 0 4 -20 27 -44 51 -29 29 -50 42 -60 38 -25 -10 -21 73 9 188 14 54 24 102 23 107 -2 5 -33 -24 -69 -64z"
       id="path56"
       style="fill:#8b008b" />
    <path
       d="M6530 7220 c-24 -15 -52 -406 -32 -438 6 -9 27 9 72 63 66 78 86 92 76 50 -4 -14 -9 -46 -13 -72 -5 -40 -4 -46 10 -40 22 8 22 1 -3 -119 -17 -80 -18 -103 -9 -121 7 -13 16 -23 21 -23 5 0 36 18 68 40 32 22 61 36 64 32 3 -5 -2 -54 -10 -108 -15 -91 -14 -103 0 -138 16 -37 17 -38 38 -22 13 9 36 23 52 32 l28 16 -7 -89 c-6 -77 -5 -91 10 -103 15 -13 20 -11 46 18 16 18 32 32 35 32 4 0 4 -28 0 -63 -5 -48 -3 -67 10 -85 21 -31 62 -29 74 4 25 65 5 131 -64 215 -62 75 -75 114 -76 226 0 60 -3 72 -17 75 -16 3 -18 15 -15 109 4 100 -6 166 -28 199 -9 12 -20 4 -66 -45 l-56 -60 5 152 c5 134 3 155 -12 174 l-17 21 -24 -36 c-27 -39 -49 -52 -55 -33 -2 6 -6 36 -9 66 -3 29 -11 59 -17 67 -13 16 -57 18 -79 4z"
       id="path58"
       style="fill:#cd5c5c" />
    <path
       d="M5396 7158 c-22 -83 11 -164 88 -215 62 -42 86 -44 60 -5 -10 15 -45 74 -77 132 -33 58 -61 106 -62 108 -1 1 -5 -8 -9 -20z"
       id="path60"
       style="fill:#db7093" />
    <path
       d="M6144 7114 c-16 -9 -42 -28 -59 -43 -16 -16 -79 -61 -139 -101 l-109 -73 29 -21 c189 -136 203 -268 53 -497 -61 -93 -64 -75 41 -237 l71 -110 77 30 c69 26 134 43 245 62 45 8 50 -9 5 -18 -18 -3 -43 -13 -56 -22 -22 -15 -24 -21 -18 -69 11 -95 9 -95 115 13 53 54 109 107 124 118 72 49 65 265 -15 477 -32 83 -170 321 -247 424 -56 75 -77 87 -117 67z"
       id="path62"
       style="fill:#c71585" />
    <path
       d="M7341 7077 c-35 -18 -62 -58 -68 -103 -8 -66 8 -89 109 -154 125 -81 137 -80 220 8 34 38 76 77 92 87 25 17 28 23 23 62 -2 24 -7 47 -11 50 -3 3 -27 -4 -54 -15 -107 -46 -177 -33 -215 41 -21 40 -50 48 -96 24z m77 -124 c49 -72 75 -123 68 -131 -3 -3 -7 -3 -9 -1 -2 2 -24 33 -49 70 -61 87 -73 96 -88 70 -13 -25 -26 -27 -34 -5 -9 22 21 54 50 54 17 0 34 -15 62 -57z"
       id="path64"
       style="fill:#deb887" />
    <path
       d="M6787 7038 c-3 -18 -9 -55 -12 -83 l-6 -50 31 35 c44 50 48 76 18 107 l-25 25 -6 -34z"
       id="path66"
       style="fill:#b0c4de" />
    <path
       d="M5490 7049 c0 -8 31 -44 70 -80 57 -54 80 -69 128 -83 104 -29 172 -94 172 -165 0 -27 -7 -34 -81 -73 -97 -51 -154 -110 -167 -173 -18 -84 -6 -102 140 -202 133 -91 178 -184 186 -378 2 -66 0 -136 -6 -155 -9 -32 -10 -30 -11 33 -1 37 -5 67 -11 67 -5 0 -10 -7 -10 -15 0 -26 -37 -90 -84 -149 -43 -52 -45 -58 -60 -167 -24 -170 -19 -248 10 -170 9 21 33 40 105 77 68 36 98 58 113 83 55 94 74 323 36 442 -20 65 -38 100 -129 249 -89 147 -110 233 -75 306 22 47 26 39 13 -27 -8 -40 -8 -62 0 -83 l11 -28 46 58 c83 107 114 191 100 269 -11 59 -114 148 -226 194 -80 34 -168 89 -222 139 -27 25 -48 38 -48 31z"
       id="path68"
       style="fill:#c71585" />
    <path
       d="M6925 6847 c-11 -84 -4 -99 23 -56 27 45 28 71 3 93 -19 17 -20 16 -26 -37z"
       id="path70"
       style="fill:#b0c4de" />
    <path
       d="M5720 6755 c0 -59 4 -95 10 -95 17 0 85 37 99 54 19 23 -2 69 -48 106 -57 47 -61 43 -61 -65z"
       id="path72"
       style="fill:#db7093" />
    <path
       d="M6562 6793 c-10 -16 -22 -36 -25 -45 -6 -18 11 -83 20 -74 10 10 40 146 33 146 -5 0 -17 -12 -28 -27z"
       id="path74"
       style="fill:#b0c4de" />
    <path
       d="M6976 6747 c-50 -85 -57 -204 -20 -325 18 -57 91 -149 106 -134 5 5 8 42 6 83 l-3 74 -16 -29 -16 -29 -18 52 c-18 56 -16 125 9 247 13 59 7 104 -13 104 -6 0 -21 -19 -35 -43z"
       id="path76"
       style="fill:#b0c4de" />
    <path
       d="M7514 6715 c-59 -26 -70 -38 -50 -54 18 -15 53 -1 85 32 35 39 22 47 -35 22z"
       id="path78"
       style="fill:#b0c4de" />
    <path
       d="M7055 6664 c-9 -31 -14 -58 -12 -60 7 -7 57 63 57 79 0 8 -6 20 -14 26 -12 10 -17 2 -31 -45z"
       id="path80"
       style="fill:#b0c4de" />
    <path
       d="M6586 6668 c-18 -25 -21 -74 -6 -83 9 -6 13 6 24 73 6 38 3 40 -18 10z"
       id="path82"
       style="fill:#b0c4de" />
    <path
       d="M7097 6592 c-20 -26 -38 -61 -42 -77 l-7 -30 32 33 c17 19 33 32 36 30 2 -3 -1 -66 -7 -142 -6 -76 -9 -140 -6 -142 3 -3 16 -2 31 2 24 6 26 10 26 60 0 39 4 54 14 54 8 0 26 36 46 94 18 52 36 100 41 107 20 34 13 -7 -24 -134 -22 -75 -37 -140 -32 -145 4 -4 9 -2 12 3 2 6 42 80 88 165 46 85 81 158 77 161 -10 10 -175 -20 -184 -34 -4 -6 -10 -45 -13 -87 -11 -129 -23 -136 -24 -13 -1 161 -8 171 -64 95z"
       id="path84"
       style="fill:#b0c4de" />
    <path
       d="M7402 6618 c-21 -27 -132 -258 -123 -258 16 0 66 67 115 155 27 47 52 82 58 79 6 -4 14 0 19 7 16 26 -48 42 -69 17z"
       id="path86"
       style="fill:#b0c4de" />
    <path
       d="M6724 6515 c-44 -35 -59 -75 -44 -119 11 -34 32 -47 44 -27 7 11 37 163 33 167 -1 2 -16 -8 -33 -21z"
       id="path88"
       style="fill:#b0c4de" />
    <path
       d="M6607 6435 c11 -85 8 -349 -5 -418 -12 -61 -9 -82 13 -91 11 -4 13 2 9 24 -6 30 13 130 24 130 4 0 7 -30 8 -66 0 -59 6 -75 53 -167 41 -77 55 -115 59 -159 2 -32 8 -58 13 -58 15 0 31 73 25 114 l-6 41 20 -24 c37 -43 22 -124 -36 -200 -19 -24 -32 -46 -29 -49 2 -3 29 8 60 23 71 34 117 100 144 205 17 66 20 72 26 47 4 -15 4 -51 1 -78 -9 -63 8 -58 28 9 l15 47 1 -55 1 -55 34 37 c40 43 44 74 19 134 -13 31 -14 48 -5 91 18 89 -2 102 -89 58 -27 -14 -51 -21 -53 -17 -3 4 -17 48 -31 97 -38 127 -35 120 -48 107 -24 -24 -40 -10 -75 67 -32 72 -38 80 -66 83 -27 3 -32 10 -58 78 -16 41 -36 81 -45 90 -14 14 -15 10 -7 -45z"
       id="path90"
       style="fill:#a0522d" />
    <path
       d="M6828 6299 c-21 -12 -22 -35 -3 -69 11 -21 15 -22 20 -9 3 9 5 33 3 52 -3 31 -5 34 -20 26z"
       id="path92"
       style="fill:#b0c4de" />
    <path
       d="M5566 6220 c-82 -86 -197 -236 -281 -366 -83 -129 -81 -117 -30 -159 l45 -37 51 17 c110 37 239 16 319 -52 43 -38 39 -40 109 65 57 85 78 134 91 215 24 152 -36 290 -159 369 -25 15 -50 28 -57 28 -6 0 -46 -36 -88 -80z"
       id="path94"
       style="fill:#8b008b" />
    <path
       d="M7096 6183 c-3 -16 -2 -41 3 -58 8 -26 9 -23 10 28 1 62 -4 73 -13 30z"
       id="path96"
       style="fill:#b0c4de" />
    <path
       d="M6937 6153 c-11 -10 -8 -63 3 -63 6 0 10 16 10 35 0 36 -2 40 -13 28z"
       id="path98"
       style="fill:#b0c4de" />
    <path
       d="M6520 6087 c-85 -69 -200 -226 -200 -272 0 -52 40 -213 71 -287 16 -37 29 -83 29 -102 0 -35 1 -36 36 -36 36 0 36 1 30 33 -3 17 -9 71 -12 118 -6 79 -4 94 24 180 41 124 79 279 88 357 4 34 5 62 3 62 -2 0 -33 -24 -69 -53z m20 -94 c-13 -26 -42 -106 -65 -176 -23 -70 -45 -131 -49 -134 -11 -12 -6 43 10 98 16 57 115 272 122 265 2 -2 -6 -26 -18 -53z"
       id="path100"
       style="fill:#a0522d" />
    <path
       d="M6142 6040 c-94 -40 -95 -42 -77 -125 21 -102 19 -226 -6 -321 -12 -43 -27 -107 -35 -140 l-13 -61 70 -234 c41 -139 76 -239 86 -246 21 -16 25 -17 366 -58 323 -39 480 -44 647 -19 58 9 206 21 330 27 l225 12 3 26 c3 23 -10 84 -50 234 l-10 40 -29 -34 -29 -35 -122 3 c-351 7 -440 24 -792 158 -210 79 -239 86 -283 68 -39 -16 -86 -86 -110 -162 -9 -29 -21 -53 -26 -53 -18 0 0 75 47 193 25 65 46 127 46 137 0 10 -16 49 -35 87 -28 55 -39 97 -60 223 -49 302 -51 310 -68 309 -7 -1 -40 -13 -75 -29z"
       id="path102"
       style="fill:#ba55d3" />
    <path
       d="M6953 6053 c-15 -5 -17 -49 -4 -57 5 -3 28 1 51 9 23 8 57 15 75 15 18 0 39 7 46 17 12 15 12 16 -6 9 -43 -18 -110 -19 -124 -2 -14 17 -18 18 -38 9z"
       id="path104"
       style="fill:#a0522d" />
    <path
       d="M4400 5864 c-198 -52 -340 -198 -340 -349 0 -38 5 -66 13 -73 6 -5 34 -13 62 -17 53 -7 125 -33 125 -44 0 -7 -166 15 -232 31 -32 7 -54 30 -169 173 -128 161 -165 196 -222 209 -68 16 -168 -44 -187 -112 -9 -35 -6 -65 26 -279 4 -24 8 -43 10 -43 1 0 41 9 89 21 48 11 94 19 103 17 16 -4 -189 -78 -213 -78 -6 0 -46 30 -90 66 -98 81 -141 104 -200 104 -83 0 -150 -50 -199 -147 -47 -95 -30 -156 69 -244 87 -77 115 -120 115 -174 0 -21 8 -30 46 -46 25 -11 61 -23 80 -26 34 -6 39 -2 110 73 110 116 175 197 241 304 51 82 65 98 112 122 47 25 64 28 144 28 133 0 263 -19 293 -42 47 -37 57 -72 50 -172 l-7 -91 117 175 c64 96 126 185 137 197 19 22 73 45 130 58 l29 6 -36 39 c-19 22 -38 51 -42 65 -16 63 26 138 102 185 19 12 34 26 34 31 0 5 -15 18 -32 29 -27 16 -50 20 -123 19 -49 0 -115 -7 -145 -15z"
       id="path106"
       style="fill:#dda0dd" />
    <path
       d="M6539 5768 c-41 -139 -50 -260 -24 -337 9 -28 20 -51 23 -51 7 0 148 150 171 183 24 34 32 94 19 145 -9 35 -26 61 -73 109 -33 35 -66 63 -72 63 -6 0 -25 -51 -44 -112z"
       id="path108"
       style="fill:#cd853f" />
    <path
       d="M4662 5745 c-29 -21 -52 -66 -52 -103 0 -28 33 -82 50 -82 9 0 34 159 28 184 -3 15 -5 15 -26 1z"
       id="path110"
       style="fill:#8b008b" />
    <path
       d="M3822 5692 c13 -32 193 -251 200 -244 5 5 8 42 6 83 l-3 74 -95 47 c-97 48 -114 54 -108 40z"
       id="path112"
       style="fill:#8b008b" />
    <path
       d="M5080 5666 c-46 -12 -120 -52 -120 -64 0 -4 9 -13 20 -20 17 -10 20 -23 20 -85 0 -50 -3 -67 -10 -57 -5 8 -10 28 -10 44 0 18 -4 27 -12 23 -7 -2 -44 -15 -83 -27 -38 -13 -74 -26 -78 -30 -5 -4 11 -21 34 -38 87 -64 198 -181 209 -220 9 -32 25 -181 33 -296 l2 -39 51 79 c55 85 166 210 217 246 29 20 30 20 17 3 -8 -11 -39 -47 -68 -80 -79 -88 -144 -190 -186 -291 -42 -99 -88 -261 -77 -268 3 -3 52 46 107 107 97 107 105 114 183 146 158 65 331 187 331 232 0 21 -33 48 -89 73 -23 11 -41 26 -41 35 0 9 25 37 55 64 78 68 117 152 118 250 0 102 -21 142 -96 181 -109 56 -234 46 -323 -25 -54 -42 -68 -39 -62 15 5 42 4 44 -25 50 -41 8 -64 7 -117 -8z m440 -560 c0 -4 -130 -101 -200 -149 -8 -6 8 13 35 42 52 55 129 111 152 111 7 0 13 -2 13 -4z"
       id="path114"
       style="fill:#dda0dd" />
    <path
       d="M7931 5493 c-109 -65 -129 -88 -156 -178 -13 -44 -30 -98 -39 -120 -20 -51 -20 -83 0 -159 24 -95 35 -106 98 -106 31 0 58 5 64 13 5 6 22 91 37 187 25 164 29 177 56 203 37 34 89 38 89 6 0 -42 24 -101 54 -132 l31 -32 6 75 c3 41 2 91 -4 110 -10 38 -133 170 -158 170 -8 0 -43 -17 -78 -37z"
       id="path116"
       style="fill:#ffdead" />
    <path
       d="M8180 5476 l-34 -12 40 -43 40 -43 49 29 c57 33 71 66 33 77 -35 9 -89 6 -128 -8z"
       id="path118"
       style="fill:#ffdead" />
    <path
       d="M3351 5463 c5 -12 84 -83 93 -83 3 0 6 11 6 24 0 26 -23 56 -43 56 -7 0 -23 3 -36 7 -14 3 -22 2 -20 -4z"
       id="path120"
       style="fill:#8b008b" />
    <path
       d="M4583 5463 c-12 -2 -35 -16 -51 -31 -29 -28 -244 -373 -325 -524 -60 -109 -99 -159 -256 -322 -244 -253 -319 -364 -411 -611 -98 -261 -219 -490 -426 -802 -46 -70 -82 -128 -80 -131 7 -7 69 30 141 83 85 63 82 62 219 80 82 11 118 20 141 37 297 215 656 497 735 578 230 232 337 451 386 790 17 123 35 187 64 235 21 34 78 91 84 84 3 -2 -13 -49 -35 -104 -28 -69 -42 -122 -46 -169 l-6 -69 32 23 c115 81 241 346 241 504 0 135 -142 291 -309 340 -55 16 -59 17 -98 9z"
       id="path122"
       style="fill:#d2b48c" />
    <path
       d="M5900 5389 c-65 -46 -89 -76 -90 -107 0 -31 22 -71 55 -102 66 -60 84 -179 44 -285 -25 -68 -42 -85 -83 -85 -34 0 -56 15 -56 37 0 10 6 10 25 -3 23 -15 27 -15 49 -1 36 24 59 95 54 166 -5 75 -30 112 -130 199 l-73 63 -57 -61 c-32 -33 -58 -64 -57 -68 0 -4 27 -26 60 -49 32 -24 59 -50 59 -59 0 -9 -16 -51 -35 -94 -40 -89 -44 -133 -19 -243 26 -116 58 -170 172 -286 96 -100 102 -104 102 -76 0 44 51 143 103 200 47 53 139 111 158 100 6 -4 20 2 32 13 32 29 107 76 112 70 3 -2 -31 -33 -74 -68 -72 -58 -151 -144 -151 -165 0 -5 16 10 36 34 37 42 131 110 236 170 65 36 98 73 98 107 0 20 -5 24 -32 24 -18 0 -87 5 -153 10 -92 8 -123 14 -136 28 -24 25 -81 184 -127 358 -23 84 -47 166 -54 182 l-13 31 -55 -40z"
       id="path124"
       style="fill:#8b008b" />
    <path
       d="M8255 5373 c-31 -7 -45 -33 -45 -80 0 -48 1 -49 40 -27 29 18 60 62 60 87 0 12 -25 31 -33 26 -1 -1 -11 -3 -22 -6z"
       id="path126"
       style="fill:#ffdead" />
    <path
       d="M9116 5344 c-354 -48 -433 -82 -550 -238 -33 -44 -62 -74 -64 -68 -5 17 90 151 162 227 102 108 52 73 -80 -57 -116 -113 -151 -141 -104 -81 11 14 20 30 20 36 0 13 -201 -197 -319 -333 -46 -52 -116 -126 -156 -165 l-72 -70 -22 -140 c-33 -218 -171 -1227 -171 -1252 0 -12 24 -49 56 -85 30 -35 84 -106 119 -159 63 -93 149 -262 143 -280 -2 -5 -30 39 -62 98 -33 59 -61 102 -63 96 -7 -19 96 -213 163 -308 34 -49 97 -133 139 -185 131 -164 167 -263 179 -490 6 -113 5 -114 -11 -80 -9 19 -28 60 -43 90 -26 55 -101 163 -108 156 -2 -2 10 -30 26 -62 82 -163 83 -323 3 -483 -17 -32 -42 -73 -57 -91 -16 -18 -39 -54 -51 -79 l-24 -46 6 45 c4 25 9 54 12 65 l5 20 -14 -20 c-8 -11 -25 -47 -38 -80 -18 -45 -40 -75 -89 -122 -77 -74 -73 -34 -37 -428 35 -369 52 -512 76 -647 11 -61 20 -115 20 -120 0 -4 245 -8 545 -8 l544 0 78 73 c43 39 107 99 143 131 73 67 68 65 -42 -12 -43 -29 -78 -51 -78 -48 0 3 20 33 44 68 59 85 107 184 151 309 39 112 119 428 110 437 -3 3 -5 -2 -5 -11 0 -9 -5 -19 -11 -23 -7 -4 -9 0 -5 12 3 11 17 100 31 199 14 99 37 236 51 303 14 71 24 148 22 180 l-3 57 -21 -60 -21 -60 -12 75 c-7 41 -38 147 -68 235 -30 88 -59 176 -65 195 -9 32 -11 33 -18 14 -5 -12 -12 -42 -15 -68 -7 -45 -25 -74 -25 -40 0 9 -16 133 -35 277 -20 143 -34 262 -32 264 2 2 35 -80 72 -182 44 -120 71 -183 78 -176 17 17 2 336 -21 421 -15 55 -20 67 -21 43 -1 -34 -10 -46 -27 -35 -6 4 -39 59 -74 122 -35 63 -96 167 -135 231 -78 125 -109 179 -103 184 2 2 43 -59 92 -136 49 -77 90 -138 93 -136 2 3 -49 149 -113 326 -64 177 -119 319 -121 317 -3 -2 7 -46 22 -96 25 -87 46 -147 94 -267 11 -29 19 -53 16 -53 -2 0 -27 45 -55 99 -28 55 -70 128 -92 163 -53 83 -181 243 -185 232 -2 -5 17 -91 41 -191 23 -101 40 -183 37 -183 -4 0 -58 83 -120 185 -63 102 -116 184 -118 182 -7 -8 28 -92 78 -188 29 -54 87 -145 129 -201 74 -99 166 -195 176 -185 3 3 -14 64 -37 136 -23 73 -39 135 -36 138 9 9 31 -50 71 -188 42 -142 53 -199 40 -199 -9 0 -113 119 -249 285 -74 89 -143 205 -184 305 -16 41 -30 66 -31 55 -1 -12 -16 10 -38 53 -32 63 -49 83 -127 146 -82 66 -144 135 -145 161 0 6 19 -12 42 -39 47 -55 161 -143 166 -128 1 5 -20 67 -49 138 -104 259 -150 426 -148 533 l1 46 12 -50 12 -50 13 45 c33 123 118 373 149 437 64 132 204 276 338 345 55 28 61 34 41 39 -18 5 -7 13 63 47 90 44 208 79 303 89 66 7 74 18 20 27 -53 8 -112 6 -227 -10z m-1186 -1872 c14 -20 101 -115 195 -211 177 -181 203 -218 66 -93 -45 40 -81 71 -81 67 0 -3 8 -18 17 -33 l17 -27 -28 25 c-31 27 -139 156 -174 207 -28 39 -55 103 -45 103 5 0 19 -17 33 -38z m284 -766 c32 -44 69 -94 83 -113 14 -18 21 -33 17 -33 -5 0 -23 20 -41 43 -18 23 -51 62 -73 87 l-41 45 66 -128 c37 -71 65 -131 62 -133 -9 -9 -99 146 -147 254 -97 216 -130 358 -42 177 33 -66 85 -156 116 -199z m760 180 c42 -44 108 -167 120 -221 l6 -30 -15 28 c-23 40 -28 33 -21 -30 6 -53 4 -50 -18 33 -27 103 -62 177 -107 229 -45 51 -13 43 35 -9z m103 -348 c-3 -8 -6 -5 -6 6 -1 11 2 17 5 13 3 -3 4 -12 1 -19z m-495 -558 c8 -81 8 -136 1 -185 l-10 -70 -2 90 c-1 50 -5 108 -10 130 -5 22 -12 83 -15 135 -5 93 -5 94 9 55 9 -22 21 -91 27 -155z m-41 -342 c-9 -33 -9 -33 -10 13 -1 25 2 88 7 140 l7 94 3 -107 c1 -59 -2 -122 -7 -140z m793 110 c-2 -18 -11 -91 -19 -163 -9 -71 -18 -132 -22 -135 -3 -3 -3 15 0 40 4 25 9 97 13 160 3 63 8 118 11 123 11 19 21 4 17 -25z m-909 -304 c-8 -69 -49 -240 -74 -314 -19 -56 -76 -183 -65 -145 48 165 73 268 61 255 -2 -3 -35 -88 -72 -190 -73 -199 -72 -196 -80 -188 -9 9 137 392 157 411 10 10 18 25 18 35 0 21 51 192 58 192 2 0 1 -25 -3 -56z m980 -377 c-37 -131 -128 -324 -208 -440 -53 -76 -61 -65 -10 15 85 134 102 169 179 383 48 130 71 155 39 42z"
       id="path128"
       style="fill:#cd853f" />
    <path
       d="M3840 5341 c-81 -27 -137 -80 -230 -221 -91 -138 -156 -216 -326 -390 -236 -243 -350 -393 -451 -595 -108 -214 -134 -327 -280 -1174 l-6 -34 38 6 c20 3 68 25 106 48 58 35 76 41 107 37 l38 -6 103 205 c114 226 196 354 357 559 200 256 230 300 282 405 42 87 71 128 171 244 131 152 178 220 333 480 111 188 133 238 125 294 -7 56 -32 87 -92 117 -44 21 -72 27 -152 30 -54 2 -109 0 -123 -5z"
       id="path130"
       style="fill:#d2b48c" />
    <path
       d="M8019 5321 c-24 -19 -24 -19 -4 -41 19 -21 19 -21 -14 -47 l-32 -26 30 -31 c16 -17 31 -44 33 -61 4 -39 52 -67 121 -69 50 -1 53 0 69 34 9 19 19 54 23 78 6 38 5 42 -14 42 -15 0 -23 -9 -29 -32 -24 -95 -142 13 -142 130 0 40 -12 47 -41 23z"
       id="path132"
       style="fill:#ffdead" />
    <path
       d="M5007 4971 c-29 -105 -119 -272 -184 -342 -14 -15 -42 -34 -63 -44 -47 -21 -48 -23 -104 -250 -25 -99 -52 -197 -61 -219 -9 -21 -15 -40 -13 -42 2 -1 22 1 44 6 46 11 96 0 125 -25 16 -16 19 -12 43 72 15 48 61 169 103 268 109 256 134 339 140 460 3 55 1 118 -4 139 l-9 40 -17 -63z"
       id="path134"
       style="fill:#ba55d3" />
    <path
       d="M4148 4928 c-79 -133 -86 -151 -43 -103 37 40 113 181 103 190 -3 3 -30 -36 -60 -87z"
       id="path136"
       style="fill:#ba55d3" />
    <path
       d="M8035 4999 c-10 -29 -1 -33 30 -13 20 13 23 19 13 25 -22 14 -36 10 -43 -12z"
       id="path138"
       style="fill:#ffe4b5" />
    <path
       d="M5501 4854 c-51 -31 -91 -58 -88 -60 2 -2 32 -8 66 -12 l62 -9 30 65 c16 36 28 67 26 68 -2 2 -45 -22 -96 -52z"
       id="path140"
       style="fill:#8b008b" />
    <path
       d="M3031 4879 c-42 -9 -79 -36 -108 -79 -43 -62 -34 -71 107 -116 41 -13 81 -24 89 -24 20 0 183 152 173 162 -7 7 -128 42 -207 60 -11 2 -35 1 -54 -3z"
       id="path142"
       style="fill:#dda0dd" />
    <path
       d="M7770 4860 c-21 -21 -33 -22 -355 -40 -104 -6 -239 -18 -299 -27 -86 -12 -152 -15 -302 -10 -218 7 -202 16 -150 -83 16 -30 50 -86 76 -125 76 -112 120 -207 158 -342 21 -74 15 -96 -12 -45 -32 59 -13 7 64 -168 44 -101 78 -185 75 -188 -6 -7 -6 -7 -39 48 -24 39 -27 41 -21 15 55 -240 64 -361 41 -565 -19 -162 -50 -326 -71 -374 -12 -28 -13 -20 -14 102 -1 72 -5 132 -10 132 -5 0 -30 -34 -56 -76 -26 -41 -48 -74 -50 -72 -1 2 1 32 6 67 5 35 7 66 5 68 -2 2 -58 -66 -126 -152 -67 -85 -124 -155 -126 -155 -4 0 5 23 61 163 15 37 26 70 23 72 -9 10 -248 -155 -248 -171 0 -9 16 -58 37 -108 39 -98 115 -387 138 -528 7 -48 19 -163 25 -255 6 -92 15 -178 20 -190 17 -41 178 -135 338 -197 83 -32 149 -62 147 -66 -3 -4 -16 -5 -30 -2 -36 6 -30 -8 18 -45 l42 -32 17 33 c9 18 54 116 99 217 l82 183 -16 81 c-24 113 -22 197 8 300 63 216 83 249 185 300 38 19 74 44 80 56 10 18 41 270 56 464 l6 70 -53 80 c-83 126 -117 210 -135 327 -8 57 -24 140 -34 186 -26 107 -26 108 10 214 67 199 167 361 327 529 93 98 102 110 108 155 4 27 11 73 16 103 5 30 9 58 9 63 0 4 -25 8 -55 8 -41 0 -60 -5 -75 -20z"
       id="path144"
       style="fill:#191970" />
    <path
       d="M6512 4779 c-34 -62 -66 -91 -152 -134 -101 -51 -188 -126 -242 -209 -67 -103 -69 -157 -11 -218 71 -75 211 -54 266 40 27 46 35 153 13 171 -15 12 -22 12 -51 -2 -30 -14 -35 -22 -35 -52 0 -32 2 -35 31 -35 24 0 30 -4 27 -17 -5 -29 -62 -29 -82 -1 -40 57 3 153 80 178 46 15 104 -2 150 -45 35 -33 36 -37 32 -89 -9 -111 -105 -208 -238 -242 -51 -13 -84 -15 -155 -9 -49 5 -106 9 -125 9 l-35 1 -11 -105 c-12 -119 -29 -195 -56 -258 -10 -24 -18 -50 -18 -57 0 -8 37 -60 83 -117 107 -134 184 -249 292 -433 48 -82 89 -152 90 -153 3 -4 84 45 268 161 27 17 60 48 74 69 27 39 48 51 39 21 -16 -57 -37 -146 -34 -149 2 -2 33 55 68 126 35 71 67 127 72 124 4 -3 8 -36 8 -74 0 -38 4 -71 9 -74 4 -3 17 10 27 29 10 19 21 35 25 35 3 0 12 -12 19 -27 l14 -28 7 50 c4 28 11 118 15 200 8 176 2 220 -62 455 -51 184 -78 264 -121 360 -17 36 -45 110 -63 165 -45 139 -148 346 -178 357 -19 6 -26 3 -40 -23z"
       id="path146"
       style="fill:#d2691e" />
    <path
       d="M5326 4734 c-77 -25 -79 -27 -220 -167 -79 -78 -154 -160 -169 -182 -54 -84 -158 -462 -143 -521 l7 -26 92 4 c160 8 221 51 176 125 -24 39 -54 61 -113 84 -35 13 -41 19 -39 42 1 15 21 57 45 93 l43 66 44 -6 c99 -13 220 79 245 187 6 26 5 27 -21 21 -63 -15 -170 -56 -232 -89 -55 -30 -61 -32 -36 -11 96 82 314 154 357 118 8 -6 27 -43 42 -81 49 -125 76 -141 166 -100 57 26 100 66 100 95 0 13 -14 46 -32 73 -31 50 -31 52 -18 104 10 46 10 58 -3 83 -20 38 -52 67 -104 93 -54 27 -90 26 -187 -5z"
       id="path148"
       style="fill:#dda0dd" />
    <path
       d="M3045 4626 c-86 -27 -195 -100 -195 -131 0 -19 42 -115 50 -115 9 0 178 223 187 245 3 8 4 15 2 14 -2 0 -22 -6 -44 -13z"
       id="path150"
       style="fill:#dda0dd" />
    <path
       d="M6118 4584 c-59 -51 -105 -100 -149 -158 -24 -32 -29 -48 -29 -95 0 -54 29 -140 47 -141 4 -1 27 -5 51 -9 23 -5 42 -7 42 -5 0 2 -11 20 -25 40 -35 51 -39 76 -26 141 15 78 49 148 104 216 26 31 45 57 42 57 -2 0 -28 -21 -57 -46z"
       id="path152"
       style="fill:#cd853f" />
    <path
       d="M7767 4488 c-74 -72 -161 -201 -217 -321 -58 -126 -72 -174 -78 -269 -4 -71 0 -100 18 -160 13 -40 29 -93 36 -117 12 -38 12 -42 -1 -37 -19 7 -19 1 5 -68 29 -87 119 -231 133 -216 3 3 14 70 26 150 11 80 50 350 86 600 36 250 67 465 70 478 8 35 -8 26 -78 -40z"
       id="path154"
       style="fill:#a0522d" />
    <path
       d="M5679 4456 c39 -67 39 -86 -1 -131 -72 -83 -182 -103 -288 -52 -75 36 -102 34 -183 -15 -48 -29 -83 -42 -118 -46 -46 -4 -53 -9 -95 -60 l-45 -55 38 -17 c61 -28 133 -114 133 -160 0 -43 -25 -65 -117 -106 -48 -21 -98 -44 -110 -52 -22 -14 -22 -14 -3 -49 10 -19 16 -41 13 -49 -3 -7 -30 -23 -61 -34 -253 -93 -269 -103 -326 -202 -15 -27 -33 -48 -39 -48 -7 0 -29 12 -48 26 -42 32 -65 41 -154 65 -86 23 -214 25 -254 4 -38 -19 -82 -72 -75 -90 8 -19 5 -20 48 20 48 45 101 59 197 52 118 -9 212 -55 270 -132 l26 -34 43 77 c24 42 45 71 47 65 5 -15 -66 -173 -90 -200 -25 -28 -61 -40 -160 -52 -43 -5 -81 -11 -83 -14 -3 -3 9 -31 26 -63 30 -56 32 -64 28 -143 l-5 -84 31 35 c17 19 42 47 55 63 22 26 25 27 37 11 17 -24 7 -50 -57 -142 -61 -87 -60 -102 5 -162 79 -73 160 -65 209 20 33 56 98 244 91 262 -3 8 -25 19 -48 26 -125 35 -135 131 -20 180 36 16 42 23 48 59 16 104 165 171 287 130 70 -24 88 -69 49 -119 -26 -33 -25 -48 1 -24 31 28 139 25 198 -5 l43 -22 -23 42 c-31 54 -122 137 -179 161 -30 13 -78 22 -142 25 -56 3 -98 10 -98 16 0 6 46 8 130 4 124 -5 134 -4 187 19 99 44 177 58 323 57 197 0 229 -20 145 -89 -25 -20 -45 -40 -45 -45 0 -12 90 -23 101 -12 6 6 6 19 0 36 -10 25 -5 32 63 100 176 177 255 369 244 598 -7 134 -30 180 -159 309 -54 55 -104 100 -110 100 -6 0 3 -24 20 -54z"
       id="path156"
       style="fill:#f4a460" />
    <path
       d="M2415 4456 c-76 -33 -109 -127 -85 -243 21 -101 46 -130 128 -148 96 -20 184 -183 152 -280 -9 -28 -17 -35 -36 -35 -39 0 -59 15 -88 65 -35 58 -65 77 -124 78 -92 1 -224 -97 -256 -190 -19 -56 -21 -107 -3 -121 9 -7 55 3 162 38 212 70 255 66 236 -19 -11 -53 -6 -77 30 -123 16 -20 29 -42 29 -48 0 -6 -18 -30 -40 -54 -69 -74 -71 -136 -7 -195 32 -29 29 -36 57 139 58 363 134 661 206 802 14 27 24 51 22 53 -2 2 -32 -9 -68 -25 -83 -37 -124 -39 -146 -5 -14 21 -15 32 -5 69 29 118 4 213 -64 242 -42 17 -61 17 -100 0z"
       id="path158"
       style="fill:#dda0dd" />
    <path
       d="M6425 4452 c17 -41 16 -109 -3 -169 -21 -67 -19 -73 15 -45 60 48 82 145 43 194 -24 31 -65 46 -55 20z"
       id="path160"
       style="fill:#cd853f" />
    <path
       d="M5327 4383 c-10 -26 -14 -50 -10 -54 8 -7 85 -30 89 -26 4 4 -48 127 -55 127 -4 0 -14 -21 -24 -47z"
       id="path162"
       style="fill:#8b008b" />
    <path
       d="M2630 4286 c0 -133 5 -138 91 -93 94 50 129 71 129 79 0 7 -201 118 -214 118 -3 0 -6 -47 -6 -104z"
       id="path164"
       style="fill:#8b008b" />
    <path
       d="M2320 4072 c1 -4 35 -34 76 -67 41 -33 93 -75 115 -92 64 -52 73 -43 38 32 -12 25 -33 54 -48 64 -29 20 -181 73 -181 63z"
       id="path166"
       style="fill:#8b008b" />
    <path
       d="M4578 4023 c-84 -39 -100 -63 -44 -63 36 0 86 -32 86 -56 0 -8 -9 -14 -21 -14 -36 0 -103 -21 -129 -40 -23 -18 -24 -19 -7 -38 28 -30 20 -39 -39 -47 -78 -9 -160 -39 -224 -82 -54 -35 -180 -150 -180 -163 0 -3 40 -4 88 -2 105 5 168 -10 286 -69 43 -22 80 -38 82 -37 1 2 21 41 43 87 45 94 53 154 26 218 -20 48 -19 80 4 92 31 17 43 -10 55 -122 6 -57 15 -101 21 -100 39 7 245 90 245 99 0 13 -37 47 -67 63 -12 6 -42 11 -67 11 l-45 0 6 33 c3 17 18 55 34 83 34 61 36 82 9 133 -32 63 -55 65 -162 14z"
       id="path168"
       style="fill:#dda0dd" />
    <path
       d="M3384 3817 c-134 -158 -258 -345 -354 -537 -47 -94 -120 -255 -120 -266 0 -2 8 -4 18 -4 27 0 48 26 175 220 128 197 211 342 290 510 85 180 84 186 -9 77z"
       id="path170"
       style="fill:#ba55d3" />
    <path
       d="M2322 3598 c-51 -17 -90 -33 -88 -36 3 -2 53 -10 111 -16 105 -12 106 -12 111 10 10 38 1 69 -21 71 -11 1 -62 -12 -113 -29z"
       id="path172"
       style="fill:#8b008b" />
    <path
       d="M5765 3523 c-57 -67 -79 -101 -91 -142 l-16 -53 -79 4 -80 3 -43 48 c-48 51 -83 60 -124 31 -34 -24 -28 -51 18 -74 23 -12 44 -28 47 -36 3 -8 -14 -47 -38 -87 -39 -65 -43 -79 -45 -145 -2 -39 -6 -77 -9 -82 -3 -6 -26 -10 -50 -10 -38 0 -53 8 -126 65 -45 36 -91 65 -102 65 -19 0 -114 -43 -131 -60 -5 -5 18 -22 51 -39 76 -38 123 -77 123 -102 0 -11 -19 -40 -42 -65 l-42 -45 -60 6 c-59 6 -62 5 -110 -32 -27 -21 -60 -58 -74 -83 -20 -39 -23 -56 -20 -122 5 -116 15 -119 99 -29 38 41 69 78 69 82 0 4 -22 24 -50 44 -44 32 -62 55 -44 55 17 0 126 -74 136 -93 6 -12 12 -68 12 -127 l1 -105 55 -109 c54 -107 55 -111 58 -205 3 -89 1 -100 -25 -151 -22 -43 -38 -60 -73 -78 -55 -28 -100 -25 -171 12 -27 14 -56 23 -64 20 -18 -7 -57 -125 -59 -175 -1 -35 6 -46 65 -106 36 -38 82 -87 102 -111 l37 -42 0 50 c0 39 3 50 16 50 14 0 15 -15 12 -111 -4 -128 -11 -139 -88 -139 -93 0 -181 -77 -164 -144 14 -59 76 -58 229 0 78 30 96 41 102 61 8 35 -13 231 -36 328 -26 111 -32 150 -24 141 4 -4 24 -75 46 -159 44 -172 60 -363 35 -403 -7 -11 -32 -49 -55 -83 -101 -150 -103 -291 -4 -291 21 0 56 7 77 16 21 9 64 16 96 17 48 0 66 -5 109 -32 28 -17 52 -30 54 -29 7 11 27 156 36 267 8 95 8 251 0 568 -13 536 -14 563 -1 563 6 0 10 -29 10 -67 0 -38 9 -225 20 -418 29 -519 26 -644 -22 -904 -20 -108 -23 -116 -62 -156 -32 -33 -52 -45 -94 -54 -29 -6 -59 -11 -67 -11 -33 0 -22 -21 23 -44 26 -13 54 -32 62 -41 21 -25 -15 -65 -72 -80 -54 -13 -74 -27 -94 -66 -29 -58 -9 -115 79 -226 39 -48 46 -52 84 -53 34 0 46 5 58 24 15 22 15 42 -3 233 -17 196 -18 223 -8 212 12 -11 47 -219 58 -336 l11 -133 83 0 83 0 5 43 c3 23 10 89 16 147 18 166 56 340 120 545 32 105 80 262 105 350 45 152 46 160 28 173 -17 13 -17 14 2 28 38 28 50 14 49 -56 -2 -53 -20 -119 -98 -355 -100 -304 -142 -463 -176 -680 -11 -72 -23 -145 -26 -163 l-5 -32 136 0 c74 0 135 3 135 8 0 4 9 61 19 127 26 160 27 177 61 644 26 363 29 425 16 410 -2 -2 -33 -101 -71 -219 -37 -118 -69 -217 -71 -219 -24 -25 5 82 182 669 118 389 128 419 132 382 4 -41 -18 -142 -63 -287 -51 -162 -54 -192 -65 -520 -5 -165 -12 -354 -15 -420 l-6 -120 31 35 c38 43 144 202 192 290 91 164 179 404 218 595 13 61 27 114 32 120 5 5 6 -3 4 -20 -3 -17 -7 -55 -10 -85 -3 -30 -21 -118 -40 -195 -19 -77 -33 -141 -31 -143 6 -6 116 37 144 57 35 25 61 79 96 197 41 141 54 251 61 519 7 270 -2 407 -37 579 -52 251 -177 534 -373 846 -121 194 -259 360 -298 360 -9 0 -51 -39 -93 -87z m97 -63 c22 -45 53 -221 68 -381 16 -167 8 -553 -15 -736 -10 -79 -22 -143 -27 -143 -6 0 -6 68 -1 173 14 305 10 668 -11 792 -31 193 -55 274 -87 298 -34 24 -23 39 26 35 23 -2 34 -11 47 -38z m-136 -244 c-13 -65 -20 -114 -16 -109 4 4 22 46 40 91 35 89 51 105 78 77 16 -16 16 -17 -5 -11 -20 6 -25 -4 -77 -163 -156 -474 -225 -976 -170 -1243 4 -19 12 -28 25 -28 57 0 154 73 192 144 19 37 22 39 25 17 5 -34 -47 -129 -90 -164 -44 -36 -130 -49 -161 -25 -29 21 -47 120 -47 254 0 184 29 379 106 724 24 107 55 265 69 351 23 148 40 217 50 207 3 -3 -6 -58 -19 -122z m304 -257 c24 -132 46 -330 65 -584 18 -235 50 -522 69 -617 7 -38 9 -68 5 -68 -19 0 -50 197 -74 465 -24 276 -78 795 -91 880 -13 84 8 22 26 -76z m-872 -61 c91 -191 129 -759 78 -1168 -28 -220 -58 -405 -67 -414 -15 -16 -10 64 17 304 35 310 43 664 19 850 -18 146 -67 424 -80 453 -16 38 14 15 33 -25z m1009 -360 c-3 -8 -6 -5 -6 6 -1 11 2 17 5 13 3 -3 4 -12 1 -19z m10 -40 c-3 -8 -6 -5 -6 6 -1 11 2 17 5 13 3 -3 4 -12 1 -19z m64 -378 c6 -74 9 -189 6 -255 -6 -119 -36 -269 -58 -290 -9 -7 -10 -3 -5 15 45 177 53 490 17 725 -11 77 -20 147 -20 155 3 41 50 -232 60 -350z m-757 -544 c10 -43 26 -101 37 -127 20 -54 13 -65 -13 -21 -44 74 -81 398 -62 547 8 63 9 50 15 -125 4 -126 12 -223 23 -274z"
       id="path174"
       style="fill:#dda0dd" />
    <path
       d="M8671 3590 c0 -8 4 -24 9 -35 5 -13 9 -14 9 -5 0 8 -4 24 -9 35 -5 13 -9 14 -9 5z"
       id="path176" />
    <path
       d="M5198 3464 c-32 -7 -77 -23 -100 -35 l-43 -22 25 -16 c53 -34 127 -112 161 -170 l36 -61 42 62 c38 56 41 64 25 73 -43 25 -74 59 -74 79 0 28 19 46 85 79 l50 26 -75 0 c-41 -1 -101 -7 -132 -15z"
       id="path178"
       style="fill:#ba55d3" />
    <path
       d="M5498 3466 c-60 -14 -63 -18 -35 -44 l23 -22 37 31 c20 17 37 35 37 40 0 10 1 10 -62 -5z"
       id="path180"
       style="fill:#ba55d3" />
    <path
       d="M4109 3408 c-21 -5 -60 -29 -89 -54 -43 -37 -55 -42 -71 -33 -18 9 -53 57 -62 84 -2 5 -66 -29 -143 -75 -161 -96 -149 -88 -141 -97 4 -3 62 8 129 26 68 17 136 31 151 31 16 0 81 -22 144 -50 82 -35 120 -47 132 -40 32 17 183 178 173 184 -19 12 -127 36 -157 35 -16 -1 -46 -5 -66 -11z"
       id="path182"
       style="fill:#dda0dd" />
    <path
       d="M4318 3289 c-98 -88 -95 -90 65 -52 37 8 70 19 73 24 11 18 -46 91 -69 89 -1 0 -32 -28 -69 -61z"
       id="path184"
       style="fill:#8b008b" />
    <path
       d="M4733 3309 c-45 -22 -56 -41 -58 -103 -1 -25 -8 -43 -20 -52 -19 -14 -18 -16 7 -67 35 -72 40 -104 29 -178 -6 -35 -13 -111 -16 -169 l-6 -105 22 40 c77 143 111 170 210 163 57 -4 60 -3 95 33 l36 37 -83 40 c-46 22 -93 47 -104 55 -20 15 -20 16 10 48 17 17 68 50 114 71 l83 40 29 -35 c32 -39 98 -94 118 -99 8 -2 18 16 26 46 l13 49 -43 46 c-41 43 -46 45 -108 49 -62 4 -67 3 -97 -27 -18 -17 -36 -31 -41 -31 -18 0 -37 32 -44 76 -13 90 -81 118 -172 73z"
       id="path186"
       style="fill:#8b008b" />
    <path
       d="M3839 3226 c-9 -9 -264 -57 -384 -71 -137 -17 -146 -20 -258 -98 -88 -61 -182 -89 -320 -95 -93 -4 -123 -9 -140 -22 -21 -18 -21 -18 38 -25 89 -10 92 -11 64 -41 -26 -28 -70 -54 -90 -54 -7 0 0 13 15 29 34 36 24 41 -80 41 -220 0 -406 -87 -611 -286 -91 -88 -111 -127 -35 -70 111 84 245 153 387 200 83 27 254 60 263 51 12 -12 -17 -24 -93 -40 -44 -10 -84 -20 -88 -22 -20 -12 32 -45 104 -68 162 -51 252 -51 329 -1 19 12 66 35 104 50 75 30 205 44 345 38 l75 -4 -175 -114 c-95 -63 -229 -142 -295 -175 -67 -33 -128 -68 -136 -77 -8 -9 -50 -77 -94 -151 -89 -152 -144 -214 -258 -290 -88 -60 -225 -186 -257 -237 -11 -19 -80 -77 -157 -133 -209 -152 -336 -254 -340 -274 -3 -14 4 -17 39 -17 24 0 80 5 124 12 116 17 143 1 45 -25 -65 -18 -103 -21 -285 -20 l-210 1 60 -28 c95 -44 203 -64 308 -57 79 5 96 10 141 38 142 90 158 98 179 90 26 -10 119 13 167 41 19 11 66 53 103 93 75 82 170 149 264 189 107 45 245 94 335 120 98 28 128 42 208 96 70 47 119 72 132 68 15 -5 -210 -188 -231 -188 -63 0 -388 -115 -516 -183 -37 -20 -93 -66 -150 -123 -50 -50 -106 -99 -125 -109 -45 -23 -31 -29 105 -44 61 -7 119 -15 131 -17 15 -4 54 26 160 121 174 159 209 185 248 185 17 1 56 9 86 20 30 11 70 19 89 20 18 0 55 11 83 25 56 28 58 29 58 16 0 -10 -180 -99 -306 -150 -91 -38 -163 -88 -290 -206 l-87 -80 -109 3 c-77 2 -108 0 -103 -8 6 -10 170 -94 232 -119 29 -12 35 -10 82 22 28 19 104 83 169 144 148 139 199 177 261 198 37 12 61 29 89 62 20 25 53 64 73 86 20 23 39 50 42 60 4 9 15 20 24 24 67 23 454 210 578 278 288 158 380 215 421 259 74 80 145 243 159 364 l7 62 -69 0 c-80 1 -97 9 -155 74 -37 43 -43 56 -42 92 1 39 -2 43 -30 51 l-31 9 -2 99 c-2 55 -5 110 -8 122 -8 34 -266 173 -321 173 -22 0 -43 -2 -45 -4z m-19 -1190 c0 -3 -24 -11 -52 -20 -29 -8 -97 -29 -150 -45 -100 -30 -118 -28 -51 5 80 38 253 79 253 60z"
       id="path188"
       style="fill:#f4a460" />
    <path
       d="M4566 3101 c-24 -27 -8 -54 42 -69 55 -17 55 -17 27 38 -27 54 -42 61 -69 31z"
       id="path190"
       style="fill:#ba55d3" />
    <path
       d="M7750 3108 c-1 -2 -11 -106 -24 -233 -16 -160 -20 -234 -13 -246 5 -9 25 -24 43 -34 66 -35 77 -56 85 -162 4 -54 11 -182 15 -284 6 -163 5 -195 -11 -252 l-18 -66 61 -158 c72 -189 92 -261 100 -370 l7 -83 33 20 c18 11 41 34 52 52 33 55 99 267 130 418 15 78 30 144 33 146 2 3 8 -39 11 -93 4 -54 11 -123 15 -153 8 -54 8 -55 20 -26 6 16 17 60 23 98 20 114 -1 189 -121 430 -55 112 -103 221 -107 243 -5 36 -2 33 34 -38 46 -89 105 -161 193 -238 61 -53 62 -53 55 -24 -4 17 -33 84 -65 150 -43 89 -87 159 -171 270 -182 241 -220 308 -264 467 -10 33 -32 77 -56 106 -35 45 -59 69 -60 60z"
       id="path192"
       style="fill:#191970" />
    <path
       d="M3184 2664 c-8 -20 -13 -38 -11 -41 6 -6 107 60 107 70 0 4 -18 7 -41 7 -37 0 -41 -3 -55 -36z"
       id="path194"
       style="fill:#ba55d3" />
    <path
       d="M3075 2675 c-22 -7 -71 -29 -110 -49 -38 -20 -88 -39 -110 -42 -81 -11 -85 -13 -131 -84 -25 -39 -52 -87 -61 -108 -29 -69 -132 -366 -129 -370 14 -13 62 45 136 163 156 250 131 223 263 291 65 33 129 72 142 85 22 23 62 130 47 128 -4 -1 -25 -7 -47 -14z"
       id="path196"
       style="fill:#deb887" />
    <path
       d="M2335 2656 c-175 -67 -322 -171 -435 -306 l-42 -50 54 -24 c29 -13 104 -46 165 -74 l113 -51 16 57 c24 88 34 111 85 194 44 72 129 249 129 269 0 14 -20 10 -85 -15z"
       id="path198"
       style="fill:#d2691e" />
    <path
       d="M2420 2548 c-29 -51 -75 -133 -103 -181 -40 -70 -64 -134 -119 -315 -88 -289 -121 -412 -114 -419 10 -10 71 43 226 196 l152 149 74 214 c41 117 93 252 116 301 23 48 39 89 37 91 -5 5 -197 56 -209 56 -5 0 -32 -42 -60 -92z"
       id="path200"
       style="fill:#deb887" />
    <path
       d="M4589 2528 c-17 -57 -34 -109 -37 -116 -2 -7 25 5 60 28 l65 40 -20 75 c-11 41 -23 75 -28 75 -4 0 -22 -46 -40 -102z"
       id="path202"
       style="fill:#ba55d3" />
    <path
       d="M7574 2586 c-46 -20 -69 -57 -105 -164 -37 -110 -51 -104 -19 9 11 40 20 80 20 88 0 58 -87 -149 -110 -262 -16 -79 -17 -207 -2 -234 7 -13 19 -23 27 -23 8 0 60 18 116 41 97 39 127 43 170 25 25 -11 32 60 24 233 -4 80 -5 144 -2 141 4 -3 11 -89 17 -190 15 -254 21 -278 45 -158 l13 63 1 -76 c1 -59 5 -82 20 -100 l19 -23 9 34 c6 23 5 103 -3 230 -7 107 -13 215 -13 239 -1 38 -7 49 -39 80 -36 35 -97 61 -138 61 -11 -1 -33 -7 -50 -14z"
       id="path204"
       style="fill:#4682b4" />
    <path
       d="M4862 2527 c-30 -32 -42 -78 -42 -158 0 -70 -15 -104 -42 -94 -17 7 -28 35 -28 73 0 35 -43 72 -82 72 -27 0 -43 -9 -75 -42 -40 -41 -73 -101 -73 -132 0 -29 30 -46 81 -46 65 0 109 -19 146 -64 l30 -37 73 110 c67 102 72 113 65 148 -4 21 -9 73 -12 116 -2 42 -8 77 -12 77 -4 0 -17 -11 -29 -23z"
       id="path206"
       style="fill:#ee82ee" />
    <path
       d="M4850 2115 c-77 -132 -99 -179 -91 -189 23 -27 120 -68 147 -62 100 26 149 239 83 370 -13 26 -26 49 -30 52 -4 2 -53 -75 -109 -171z"
       id="path208"
       style="fill:#ee82ee" />
    <path
       d="M4530 2139 c-183 -50 -302 -106 -505 -239 -77 -50 -242 -142 -367 -205 -221 -110 -288 -148 -288 -164 0 -10 168 -106 212 -120 28 -9 72 -7 234 14 109 13 350 39 534 55 319 30 380 40 380 67 0 4 -21 29 -47 55 -63 64 -68 113 -24 249 17 53 31 101 31 107 0 13 -47 6 -97 -15 -43 -17 -49 -31 -18 -39 42 -10 28 -24 -24 -24 -65 0 -86 -9 -207 -86 -55 -35 -105 -64 -110 -64 -16 0 130 141 171 165 38 22 274 115 293 115 5 0 17 9 26 19 17 18 17 21 0 56 -9 20 -29 42 -45 50 -31 17 -96 18 -149 4z"
       id="path210"
       style="fill:#a0522d" />
    <path
       d="M7537 2032 c-38 -13 -65 -28 -60 -32 4 -4 60 -13 123 -19 63 -7 123 -15 134 -18 33 -9 7 17 -57 58 -33 21 -63 38 -66 38 -3 -1 -37 -13 -74 -27z"
       id="path212"
       style="fill:#4682b4" />
    <path
       d="M7475 1950 c3 -5 18 -10 33 -10 22 0 170 -47 235 -75 14 -6 17 -2 17 21 0 42 -10 52 -60 63 -59 14 -233 14 -225 1z"
       id="path214"
       style="fill:#4682b4" />
    <path
       d="M7392 1903 c-20 -8 -119 -182 -176 -310 -117 -262 -217 -642 -215 -813 l1 -65 13 50 c7 28 25 106 40 175 14 69 31 130 37 135 7 7 8 4 5 -10 -4 -11 -19 -103 -36 -205 -32 -199 -47 -380 -32 -380 11 0 10 -4 77 309 68 322 143 596 144 531 0 -8 -16 -76 -34 -151 -38 -150 -71 -352 -86 -534 -13 -155 -12 -457 1 -515 20 -87 30 -120 38 -120 4 0 11 102 14 228 8 252 25 429 62 632 28 150 44 214 52 207 2 -3 -5 -52 -16 -109 -45 -223 -55 -342 -56 -618 0 -276 6 -340 30 -340 13 0 15 44 17 293 1 290 1 291 8 112 7 -171 20 -285 41 -367 9 -34 13 -38 43 -38 l33 0 -5 388 c-4 392 -2 445 44 1092 9 118 19 219 24 224 10 10 7 -50 -16 -374 -35 -492 -41 -750 -27 -1143 l6 -187 44 0 c23 0 43 3 43 8 0 4 -7 52 -14 107 -12 86 -26 231 -40 430 -2 32 0 43 5 30 4 -11 20 -132 34 -270 15 -137 31 -263 35 -280 5 -17 9 226 9 539 1 313 3 567 6 564 3 -3 10 -243 15 -534 6 -291 13 -544 16 -562 4 -29 8 -32 39 -32 41 0 41 0 20 120 -15 87 -37 341 -30 348 4 5 7 -15 29 -183 9 -66 26 -156 38 -200 l23 -80 188 -3 c103 -1 187 0 187 3 0 3 -15 105 -34 228 -44 282 -60 420 -91 797 -27 341 -39 427 -66 517 -22 72 -49 137 -54 132 -1 -2 7 -125 20 -274 12 -148 21 -272 19 -274 -9 -10 -13 17 -39 244 -30 275 -45 349 -82 417 -33 61 -63 83 -139 103 -55 14 -184 19 -212 8z"
       id="path216"
       style="fill:#00008b" />
    <path
       d="M1460 1759 c0 -24 48 -119 86 -171 59 -80 194 -175 231 -161 10 4 69 40 131 82 128 84 130 96 22 96 -61 0 -73 -3 -114 -32 -26 -18 -56 -33 -68 -33 -52 0 -197 108 -260 194 -15 21 -28 33 -28 25z"
       id="path218"
       style="fill:#ffe4c4" />
    <path
       d="M6606 1728 c-3 -24 -11 -99 -16 -168 -14 -173 -28 -261 -56 -360 -49 -173 -68 -191 -202 -198 l-83 -5 -54 -107 c-64 -128 -163 -300 -270 -470 -89 -141 -111 -193 -131 -300 -23 -131 -35 -120 121 -120 74 0 135 2 135 5 0 3 -20 46 -45 95 -49 97 -50 100 -36 100 5 0 31 -38 58 -85 40 -70 51 -83 68 -79 13 3 28 -2 39 -15 19 -21 27 -21 504 -21 383 0 483 3 479 13 -3 6 -24 59 -47 117 -23 58 -48 125 -56 150 -17 58 -39 219 -59 439 -15 159 -15 180 -1 251 24 115 68 263 109 365 21 49 37 96 37 105 0 20 -117 102 -270 190 -69 39 -141 84 -160 99 -58 45 -58 45 -64 -1z"
       id="path220"
       style="fill:#cd853f" />
    <path
       d="M4723 1423 c-24 -53 -41 -98 -39 -100 7 -7 162 21 174 32 11 10 6 26 -26 86 -21 41 -45 75 -53 76 -9 2 -29 -31 -56 -94z"
       id="path222"
       style="fill:#ee82ee" />
    <path
       d="M3289 1431 c-27 -45 -36 -52 -97 -72 -88 -29 -108 -43 -302 -204 -91 -75 -180 -144 -199 -152 -32 -14 -37 -13 -109 22 -41 19 -115 58 -163 85 -49 28 -90 50 -93 50 -2 0 -14 -41 -26 -92 -17 -66 -20 -93 -12 -96 22 -7 12 -37 -47 -142 -59 -107 -119 -202 -280 -440 -50 -74 -91 -138 -91 -144 0 -5 46 40 103 99 93 99 206 195 228 195 5 0 -16 -51 -47 -112 -48 -98 -52 -108 -25 -78 16 19 30 38 31 43 0 4 7 7 16 7 21 0 17 -12 -77 -217 -44 -95 -79 -174 -79 -177 0 -4 347 -6 770 -6 l770 0 -5 23 c-36 161 -40 209 -40 449 0 136 -3 244 -6 240 -4 -4 -26 -71 -49 -149 -24 -79 -45 -143 -47 -143 -20 0 60 269 128 435 45 110 99 210 85 160 -58 -216 -79 -318 -88 -422 -8 -84 -8 -130 -1 -145 9 -20 11 -15 17 36 8 64 32 153 44 160 4 2 8 -42 8 -98 1 -55 14 -170 28 -256 14 -85 26 -178 26 -206 0 -86 -2 -84 121 -84 l108 0 4 53 3 52 2 -52 c1 -29 6 -53 11 -53 5 0 17 32 26 71 17 70 91 236 101 227 3 -3 -2 -69 -10 -146 -9 -78 -16 -144 -16 -147 0 -3 39 -4 87 -3 l87 3 12 40 c15 53 56 134 84 165 25 29 26 35 -26 -109 -19 -52 -32 -96 -30 -98 4 -5 71 73 141 164 41 53 61 67 51 35 -12 -36 -44 -192 -40 -192 2 0 48 91 101 201 54 111 99 196 101 189 3 -7 -1 -46 -8 -87 -6 -41 -10 -77 -7 -79 2 -3 27 36 56 85 l51 89 25 283 c13 156 27 301 29 321 4 37 3 38 -49 62 -59 27 -85 63 -85 116 0 17 20 84 45 147 25 64 43 118 41 121 -3 2 -108 -5 -233 -17 -125 -11 -298 -25 -383 -31 -171 -12 -251 -23 -324 -47 -77 -25 -129 -14 -268 56 -68 33 -129 61 -136 61 -7 0 -26 -22 -43 -49z m784 -138 c-50 -130 -104 -319 -134 -468 -43 -212 -44 -211 -29 34 10 164 20 249 42 348 17 78 27 55 13 -29 -15 -91 -28 -235 -20 -227 3 4 16 51 30 105 23 96 57 190 96 267 30 58 31 44 2 -30z m9 -287 c20 19 21 19 15 -1 -3 -11 -20 -72 -38 -135 -17 -63 -35 -119 -41 -125 -6 -7 -8 -1 -4 15 24 109 36 210 38 314 l2 121 3 -104 4 -103 21 18z m293 80 c-18 -41 -43 -93 -55 -116 -30 -58 -18 -62 15 -5 15 25 29 44 31 42 2 -2 -28 -83 -67 -181 -40 -97 -73 -175 -74 -174 -5 5 41 200 65 280 12 40 31 91 42 113 22 42 68 115 74 115 1 0 -12 -33 -31 -74z m180 -193 c-25 -87 -142 -350 -151 -341 -2 2 23 85 56 183 32 99 59 169 60 155 1 -21 5 -17 22 23 27 63 34 53 13 -20z m-634 -539 c-9 -38 -9 -38 -10 -7 -1 33 10 74 16 57 2 -6 -1 -28 -6 -50z"
       id="path224"
       style="fill:#f4a460" />
    <path
       d="M4893 1118 c-68 -31 -72 -40 -57 -117 6 -31 7 -31 66 55 32 48 57 88 56 89 -2 1 -31 -11 -65 -27z"
       id="path226"
       style="fill:#ee82ee" />
    <path
       d="M4767 900 c-37 -164 -65 -434 -74 -713 l-6 -187 46 0 46 0 3 52 4 53 8 -53 9 -52 134 0 134 0 -29 43 c-85 123 -119 231 -127 397 l-4 105 18 -115 c22 -136 30 -170 42 -170 5 0 11 11 15 24 8 35 54 74 103 89 24 6 43 17 44 22 0 6 -25 27 -56 48 -36 24 -57 45 -57 57 0 24 7 28 77 41 139 26 183 91 110 164 -50 50 -88 53 -196 16 -95 -33 -119 -32 -153 5 -16 19 -48 118 -65 204 l-9 45 -17 -75z"
       id="path228"
       style="fill:#ee82ee" />
    <path
       d="M3567 353 c-10 -101 -8 -177 5 -270 11 -76 14 -83 35 -83 27 0 27 -20 3 220 -11 107 -20 196 -20 198 0 1 -4 2 -9 2 -4 0 -11 -30 -14 -67z"
       id="path230"
       style="fill:#a0522d" />
    <path
       d="M1964 268 c-92 -94 -156 -174 -185 -230 l-19 -38 94 0 95 0 39 53 c44 60 55 77 49 77 -3 0 -22 -25 -42 -55 -21 -30 -42 -55 -46 -55 -8 0 19 80 85 254 14 37 26 70 26 72 0 15 -26 -6 -96 -78z"
       id="path232"
       style="fill:#191970" />
    <path
       d="M4463 125 c-35 -63 -63 -117 -63 -120 0 -3 14 -5 30 -5 20 0 33 6 37 17 3 10 18 45 33 78 26 57 46 145 32 145 -4 0 -35 -52 -69 -115z"
       id="path234"
       style="fill:#a0522d" />
    <path
       d="M3956 72 c-19 -71 -20 -72 -2 -72 9 0 16 19 20 61 4 34 5 63 3 65 -2 3 -12 -22 -21 -54z"
       id="path236"
       style="fill:#a0522d" />
    <path
       d="M4325 78 c-62 -79 -61 -78 -16 -78 38 0 41 2 50 38 28 111 25 115 -34 40z"
       id="path238"
       style="fill:#a0522d" />
    <path
       d="M4637 53 c-2 -10 -8 -26 -12 -35 -5 -14 -2 -18 14 -18 17 0 21 6 21 35 0 37 -14 48 -23 18z"
       id="path240"
       style="fill:none" />
  </g>
</svg>
