<?xml version="1.0" standalone="no"?>
<!DOCTYPE svg PUBLIC "-//W3C//DTD SVG 20010904//EN"
 "http://www.w3.org/TR/2001/REC-SVG-20010904/DTD/svg10.dtd">
<svg version="1.0" xmlns="http://www.w3.org/2000/svg"
 width="850.000000pt" height="850.000000pt" viewBox="0 0 850.000000 850.000000"
 preserveAspectRatio="xMidYMid meet">
<metadata>
Created by potrace 1.14, written by Peter Selinger 2001-2017
</metadata>
<g transform="translate(0.000000,850.000000) scale(0.100000,-0.100000)"
fill="#000000" stroke="none">
<path d="M2635 8401 c-110 -31 -183 -78 -285 -180 -106 -107 -168 -211 -190
-317 -18 -84 -8 -205 23 -292 14 -41 23 -81 20 -90 -4 -10 -24 -37 -45 -61
-150 -172 -277 -473 -308 -727 -23 -189 30 -399 137 -547 69 -94 101 -284 153
-917 40 -496 50 -912 30 -1250 -17 -282 -37 -371 -101 -461 -22 -30 -50 -70
-63 -90 -46 -68 -61 -72 -261 -78 l-180 -6 -3 -42 c-3 -46 -1 -45 -99 -64 -34
-6 -71 -20 -82 -31 -23 -21 -23 -23 -11 -53 5 -14 1 -31 -13 -54 l-20 -34 41
-39 c23 -21 42 -41 42 -44 0 -3 -10 -18 -22 -34 -21 -29 -21 -30 -2 -51 40
-45 70 -52 184 -44 131 8 140 3 140 -83 0 -48 5 -65 33 -107 28 -42 38 -50 61
-48 60 4 117 69 160 181 35 90 88 157 165 209 36 24 69 43 74 43 11 0 6 -33
-44 -284 -63 -315 -70 -640 -19 -911 46 -242 200 -881 237 -984 32 -89 33 -88
63 100 23 144 63 274 115 379 59 118 245 382 245 349 0 -8 -23 -70 -51 -139
-140 -341 -235 -673 -240 -837 -3 -65 9 -79 105 -132 108 -59 111 -64 111
-187 0 -85 3 -106 18 -121 15 -15 22 -16 49 -5 17 6 34 9 38 7 28 -17 37 -200
14 -297 -6 -27 -5 -28 38 -28 39 0 46 4 58 28 7 15 16 95 21 182 12 236 13
231 -21 281 -37 55 -38 92 -4 190 14 41 26 96 27 122 2 50 -11 69 -69 103 -17
10 -16 20 30 197 27 103 53 187 57 187 5 0 9 -6 9 -14 0 -16 12 -153 56 -630
33 -360 30 -441 -15 -546 -18 -41 -35 -81 -38 -87 -3 -8 2 -13 11 -13 20 0 58
78 81 165 19 73 19 150 0 425 -20 289 -20 283 4 270 34 -18 68 -12 90 16 12
15 21 33 21 40 0 8 2 14 4 14 3 0 315 -185 451 -267 17 -10 38 -35 48 -56 17
-35 18 -50 8 -195 -19 -284 -23 -412 -13 -412 11 0 16 38 42 380 25 319 76
906 91 1045 14 131 19 136 136 142 88 5 90 5 121 -23 39 -36 258 -415 361
-624 42 -85 98 -213 125 -285 59 -159 143 -324 241 -470 97 -144 117 -168 139
-164 16 4 14 9 -14 44 -58 73 -196 279 -210 315 -28 70 -18 125 50 271 35 74
66 138 70 142 4 5 30 1 57 -9 64 -23 96 -14 132 37 17 22 31 45 33 50 2 6 41
-12 88 -40 157 -92 152 -86 206 -217 160 -385 252 -589 267 -592 15 -3 15 0 3
35 -8 21 -46 110 -86 198 -222 492 -290 745 -395 1474 -32 222 -33 247 -20
268 8 12 28 25 43 29 82 18 242 77 242 89 0 8 -22 57 -50 109 -51 98 -59 131
-37 157 6 9 64 54 127 102 63 47 131 99 150 116 l35 30 -40 33 c-21 18 -48 41
-60 50 -20 16 -20 17 11 50 36 39 45 60 34 78 -5 8 -68 48 -142 90 -147 84
-181 120 -214 225 -17 54 -17 55 19 247 21 106 37 214 37 241 0 90 -59 110
-187 62 -134 -51 -230 -114 -355 -234 -27 -25 -48 -43 -48 -40 0 2 11 39 25
80 34 106 77 198 129 279 51 79 54 80 226 105 156 24 172 28 191 55 16 23 16
44 8 280 -5 140 -7 269 -4 287 6 34 119 148 281 284 101 84 156 146 196 220
16 32 38 65 48 74 17 16 19 15 28 -2 24 -43 345 -908 371 -996 5 -18 27 -90
49 -162 210 -675 268 -1310 187 -2020 -19 -164 -66 -433 -101 -590 -34 -146
-30 -213 14 -286 32 -50 32 -51 8 -35 -58 37 -96 13 -115 -75 -12 -55 -2 -101
31 -137 13 -14 119 -106 237 -206 273 -231 278 -235 266 -235 -5 -1 -93 65
-195 144 -230 181 -276 212 -321 220 -36 7 -36 7 -48 -39 -6 -24 -11 -54 -11
-65 0 -37 59 -88 198 -172 188 -113 242 -149 242 -161 0 -6 -11 -7 -27 -3 -43
12 -167 23 -175 16 -10 -9 25 -101 57 -149 28 -42 34 -74 21 -104 -7 -16 0
-18 82 -18 104 0 102 -2 102 94 0 50 4 67 20 81 17 15 24 16 46 7 42 -20 88
-15 113 12 13 13 38 27 56 30 61 12 89 58 124 203 101 419 115 942 56 2168
-30 611 -53 747 -248 1435 -31 107 -83 292 -116 411 -71 253 -134 445 -203
619 -48 121 -75 185 -179 433 -68 159 -67 187 5 224 17 9 60 37 96 63 36 26
88 59 115 73 93 47 175 156 175 232 0 22 -10 50 -25 73 -30 44 -32 95 -5 139
11 19 68 65 139 113 67 44 128 91 137 105 48 73 18 165 -54 165 -50 -1 -92
-22 -267 -134 -82 -53 -157 -96 -165 -96 -25 0 -40 21 -40 56 0 40 43 122 120
229 80 111 104 165 97 223 -5 44 -28 86 -58 105 -40 25 -63 1 -282 -290 -119
-159 -229 -301 -245 -316 l-30 -29 -7 99 c-13 188 -75 497 -130 654 -21 59
-19 92 10 149 40 78 73 188 85 283 29 213 -58 463 -214 621 -75 76 -156 126
-261 161 -74 25 -89 27 -200 22 -227 -9 -352 -82 -514 -297 -35 -47 -67 -89
-71 -93 -4 -5 -54 15 -111 43 -141 71 -254 99 -454 110 -88 5 -185 14 -215 20
-93 19 -321 14 -453 -9 -158 -28 -182 -27 -210 5 -93 107 -201 175 -333 208
-86 22 -299 20 -379 -3z m360 -38 c67 -15 138 -45 179 -76 18 -13 17 -14 -15
-20 -19 -3 -89 -9 -156 -13 -68 -3 -120 -10 -118 -14 3 -4 46 -8 96 -9 50 -1
134 -6 187 -11 79 -8 104 -15 140 -39 l44 -29 -46 -27 c-77 -45 -160 -66 -296
-74 l-125 -7 85 -9 85 -10 -96 -53 c-105 -57 -119 -61 -119 -34 0 43 -64 115
-154 174 -57 36 -63 38 -143 38 l-84 0 17 32 c9 17 37 53 62 80 113 121 241
149 457 101z m2597 -36 c145 -53 258 -158 334 -312 75 -152 92 -303 55 -483
-50 -238 -194 -407 -407 -476 -57 -19 -154 -36 -154 -28 0 3 26 33 58 66 111
116 161 235 169 398 9 169 -24 290 -112 413 -135 190 -364 247 -569 143 -21
-11 -61 -40 -88 -65 -26 -26 -51 -44 -53 -41 -3 3 11 38 32 79 54 108 162 213
275 268 48 23 115 48 150 56 90 21 225 13 310 -18z m-1609 -158 c239 -15 425
-42 543 -80 191 -61 234 -90 234 -154 -1 -51 -35 -208 -47 -212 -6 -2 -64 10
-129 26 -68 17 -123 26 -128 21 -7 -7 124 -53 216 -75 41 -10 57 -35 67 -111
6 -39 20 -92 32 -120 34 -74 30 -154 -11 -242 -52 -113 -31 -119 23 -7 l48 99
34 -39 c18 -22 36 -50 40 -63 4 -16 -17 -74 -68 -190 -140 -317 -138 -340 4
-52 50 102 93 187 95 189 6 6 168 -106 196 -136 23 -25 23 -27 20 -231 -1
-114 -5 -245 -8 -290 -6 -78 -5 -84 13 -80 17 3 19 23 28 270 6 147 13 269 16
273 4 3 14 -12 23 -35 12 -30 16 -74 16 -168 0 -70 5 -134 10 -142 7 -10 10 9
11 65 2 151 9 147 73 -40 106 -315 147 -450 153 -497 7 -55 -15 -124 -80 -253
-60 -120 -183 -295 -207 -295 -4 0 -10 20 -13 45 -12 81 -60 151 -120 174 -16
6 -50 11 -76 11 -75 0 -106 -26 -188 -156 -9 -15 -12 9 -12 124 l-1 143 49 52
c62 66 125 164 148 230 13 38 18 82 18 162 0 101 -2 115 -29 168 -30 62 -45
70 -27 15 32 -98 32 -211 1 -326 -17 -67 -106 -189 -170 -236 -59 -44 -130
-71 -168 -64 -19 3 -8 19 78 118 136 156 180 243 188 368 6 107 -13 138 -20
34 -11 -136 -71 -254 -188 -372 -75 -75 -177 -140 -219 -140 -27 0 -101 66
-101 90 0 20 4 22 105 45 38 9 88 27 110 40 114 66 205 232 205 373 0 31 -2
53 -5 50 -3 -3 -15 -42 -25 -87 -50 -208 -172 -330 -342 -339 -59 -4 -75 0
-130 26 -35 17 -74 40 -88 52 l-25 20 34 30 c19 16 54 36 79 45 165 56 246
173 266 385 3 30 2 71 -3 90 -7 33 -8 30 -20 -40 -20 -127 -33 -173 -62 -231
-33 -67 -72 -102 -156 -141 -71 -34 -223 -63 -223 -43 0 6 22 55 49 109 85
166 109 262 96 382 -7 72 -25 87 -25 22 0 -79 -30 -232 -56 -286 -39 -79 -119
-130 -236 -147 l-46 -7 20 78 c29 110 28 283 -1 375 -38 119 -112 213 -205
261 -61 32 -198 37 -252 10 -44 -23 -94 -72 -117 -117 l-16 -30 0 30 c-1 119
90 315 223 478 26 32 45 61 42 64 -12 12 -80 -53 -134 -126 -68 -92 -135 -229
-160 -329 l-19 -73 -26 38 c-36 51 -75 73 -133 73 -110 0 -205 -107 -240 -269
-20 -97 -17 -219 10 -356 13 -66 22 -122 20 -124 -8 -9 -96 84 -129 134 -17
28 -35 64 -39 80 -13 58 -79 265 -83 261 -9 -8 29 -219 47 -269 11 -29 49 -96
85 -148 62 -92 64 -94 45 -113 -25 -25 -59 -15 -111 31 -87 79 -134 178 -164
345 -22 127 -40 141 -33 27 8 -125 38 -213 105 -306 30 -43 82 -127 114 -187
66 -122 65 -131 -10 -121 -138 17 -294 194 -336 381 -21 93 -25 104 -34 104
-24 0 26 -231 64 -296 14 -24 55 -69 91 -101 35 -32 74 -73 86 -92 24 -38 80
-261 66 -261 -5 0 -44 17 -86 37 -153 75 -271 227 -306 395 -36 178 -33 172
-35 79 -2 -156 47 -276 164 -399 61 -65 84 -81 181 -128 61 -29 114 -61 118
-69 3 -9 6 -30 6 -46 l0 -29 -70 0 c-80 0 -138 22 -249 94 -278 179 -385 489
-300 861 12 50 39 148 60 219 21 72 37 132 34 134 -7 7 -82 -160 -104 -232
-32 -102 -43 -181 -50 -336 l-6 -145 -22 41 c-59 110 -87 324 -64 485 16 108
59 237 126 371 71 144 115 208 210 306 92 97 191 165 360 250 66 33 163 85
215 117 258 154 626 302 815 328 60 8 191 7 358 -4z m-1320 -87 c63 -31 121
-91 140 -145 10 -27 -9 -54 -53 -77 l-39 -20 -21 35 c-54 87 -160 144 -267
145 -62 0 -80 -4 -138 -35 -62 -32 -66 -33 -59 -12 28 90 147 149 291 144 67
-3 92 -9 146 -35z m2618 -58 c74 -22 129 -56 182 -113 190 -203 180 -566 -20
-766 -68 -68 -89 -72 -35 -7 170 203 161 520 -21 705 -78 79 -150 111 -263
115 -108 4 -165 -15 -252 -86 -68 -55 -52 -24 25 49 66 63 100 83 175 103 71
20 143 19 209 0z m-2735 -62 c51 -26 126 -109 122 -135 -2 -13 -65 -54 -206
-133 -112 -63 -208 -114 -214 -114 -5 0 -19 21 -31 48 -53 118 -4 285 101 342
50 27 168 23 228 -8z m2698 -96 c104 -51 193 -172 216 -296 12 -65 -2 -188
-30 -262 -52 -136 -153 -228 -251 -228 -84 0 -249 140 -318 270 -95 178 -95
316 1 425 106 121 251 155 382 91z m720 -853 c31 -117 56 -217 56 -222 0 -5
-15 -12 -34 -15 -50 -9 -82 -39 -94 -88 -102 -394 -132 -534 -132 -622 0 -105
-14 -143 -78 -219 l-41 -48 -60 188 c-33 103 -114 363 -181 577 -67 213 -123
393 -126 400 -3 8 17 10 70 8 181 -8 353 57 485 183 42 40 77 73 77 72 1 -1
27 -98 58 -214z m-2363 66 c27 -12 49 -24 49 -28 0 -3 -23 -19 -51 -34 -60
-33 -60 -43 1 -22 55 19 78 19 117 -2 31 -18 109 -110 100 -119 -2 -3 -60 -3
-128 -2 l-124 3 72 40 c69 38 88 55 61 55 -6 0 -71 -31 -144 -70 -87 -45 -136
-65 -140 -58 -4 6 21 38 58 74 36 35 63 64 59 64 -3 0 -37 -26 -76 -57 -74
-59 -124 -93 -139 -93 -15 0 1 105 22 146 11 22 33 51 49 66 65 62 130 73 214
37z m-452 -15 c17 -14 35 -42 41 -62 24 -86 38 -168 31 -175 -10 -10 -165 59
-217 98 -23 16 -50 35 -59 40 -17 11 -17 12 0 38 21 33 47 34 111 7 26 -11 49
-19 51 -16 2 2 -17 18 -43 35 l-47 31 34 14 c48 21 63 20 98 -10z m3520 -81
c19 -54 6 -99 -52 -182 -167 -240 -160 -228 -165 -289 -5 -71 7 -84 77 -84 55
1 84 13 186 82 121 81 210 130 236 130 55 0 66 -58 22 -111 -42 -50 -256 -186
-321 -205 -80 -23 -108 -39 -170 -98 -54 -50 -132 -158 -132 -181 0 -24 35
-56 75 -69 33 -12 41 -20 47 -48 4 -18 10 -46 14 -61 5 -22 1 -34 -19 -55 -26
-27 -39 -34 -160 -92 -88 -41 -157 -112 -300 -311 -251 -350 -289 -399 -314
-405 -38 -10 -146 49 -217 120 -34 33 -84 96 -111 139 -47 77 -48 79 -33 110
9 18 103 135 209 260 255 301 248 290 260 420 10 114 19 163 79 422 60 253 58
249 101 253 22 2 40 -2 48 -12 7 -8 14 -60 17 -123 5 -105 26 -193 45 -193 38
0 85 53 265 293 210 281 260 339 284 335 8 -2 21 -22 29 -45z m-3696 -144 c40
-6 108 -19 152 -30 96 -23 178 -24 305 -4 115 18 346 31 385 21 24 -6 26 -9
14 -21 -21 -21 -519 -256 -555 -262 -27 -4 -50 10 -204 126 -166 125 -223 181
-185 181 9 0 49 -5 88 -11z m12 -209 c55 -42 121 -91 147 -108 55 -38 68 -70
44 -107 -9 -13 -16 -31 -16 -40 0 -8 -7 -15 -16 -15 -25 0 -226 111 -256 141
-27 26 -28 32 -28 124 0 74 3 95 13 89 6 -4 57 -42 112 -84z m869 48 c23 -88
-8 -156 -94 -202 -57 -31 -358 -156 -376 -156 -5 0 -19 19 -31 43 l-21 42 5
-47 c5 -40 2 -48 -16 -58 -24 -12 -75 -1 -118 26 -31 19 -29 36 2 28 25 -6 25
-5 19 35 l-7 41 47 0 c38 0 46 3 46 19 0 12 14 23 43 35 23 9 139 61 257 115
118 55 220 100 226 100 7 1 14 -9 18 -21z m-59 -298 c-13 -36 -13 -42 0 -46
10 -4 15 -20 15 -44 0 -80 15 -86 97 -39 47 27 60 30 101 24 26 -3 65 -7 87
-7 40 -1 40 -1 37 -37 -5 -50 19 -77 98 -110 68 -29 92 -53 73 -72 -8 -8 -24
-4 -59 14 -87 44 -179 67 -269 67 -74 0 -87 -3 -112 -24 l-28 -24 -3 -149 c-2
-88 0 -144 6 -138 5 6 23 45 41 87 35 82 51 102 90 111 22 5 121 -10 121 -18
0 -2 -22 -26 -49 -54 -61 -63 -106 -139 -126 -216 -23 -89 -18 -244 10 -323 4
-10 13 -7 36 12 38 32 43 32 57 1 16 -34 16 -32 -15 -61 -16 -14 -33 -40 -39
-57 -11 -32 -12 -32 -70 -29 -71 3 -61 -5 52 -44 65 -23 97 -28 181 -28 118
-1 131 5 199 95 50 65 284 409 284 416 0 3 -34 52 -75 108 -41 57 -75 106 -75
109 0 3 65 6 145 6 l145 0 2 -202 c3 -226 11 -247 52 -146 102 251 244 313
324 140 49 -107 39 -224 -31 -355 -52 -99 -162 -177 -249 -177 -10 0 -48 -28
-85 -62 -125 -113 -307 -216 -551 -312 -123 -48 -339 -111 -435 -126 -95 -16
-243 -8 -312 15 -103 35 -523 256 -592 312 -71 57 -100 132 -118 303 -14 132
-52 369 -105 654 -11 61 -20 111 -20 113 0 2 35 3 79 3 96 0 109 10 85 66 -31
73 -34 93 -16 98 86 24 133 27 186 10 65 -21 86 -15 86 25 l0 29 70 -36 c125
-64 225 -57 385 25 80 41 278 129 297 132 4 1 1 -17 -7 -39z m2889 -132 c14
-40 -9 -103 -57 -155 -52 -56 -104 -83 -160 -83 -51 0 -72 18 -63 52 11 41
110 152 166 186 65 39 100 39 114 0z m44 -130 c26 -26 13 -74 -35 -138 -53
-71 -94 -100 -139 -100 -76 0 -69 62 14 118 31 22 75 60 97 85 45 51 46 52 63
35z m-1143 -327 l6 -48 -82 -99 c-178 -213 -470 -494 -514 -494 -17 0 1 31 34
58 72 58 129 162 155 284 4 15 31 55 61 89 80 89 136 178 212 334 l66 137 28
-107 c15 -59 30 -128 34 -154z m-1435 130 c0 -10 -13 -45 -29 -77 -16 -33 -34
-77 -40 -99 -15 -55 -14 -155 3 -202 9 -26 12 -62 9 -104 -6 -78 4 -91 75 -94
l47 -2 8 -52 c12 -72 -2 -86 -87 -86 -53 0 -68 4 -99 28 -20 15 -37 32 -37 37
0 5 14 23 31 40 28 28 31 35 25 73 -10 60 -31 80 -77 72 l-37 -6 -7 54 c-22
174 97 431 203 436 6 1 12 -8 12 -18z m119 -65 c45 -49 51 -60 51 -99 0 -51
-32 -182 -55 -226 -8 -17 -26 -38 -39 -47 -22 -14 -27 -14 -55 1 -49 25 -65
67 -65 165 0 71 5 95 27 143 25 56 65 115 78 116 3 1 29 -23 58 -53z m-1933
-102 c137 -95 209 -151 208 -162 -1 -10 -13 -57 -26 -107 -14 -49 -51 -182
-83 -295 -31 -113 -70 -250 -85 -305 -15 -55 -42 -152 -60 -215 -18 -63 -35
-127 -38 -142 -7 -43 -17 -33 -20 20 -2 44 -17 237 -77 977 -14 171 -27 325
-29 343 -3 17 -3 32 -1 32 1 0 97 -66 211 -146z m4129 -586 c108 -271 199
-499 202 -505 16 -40 -44 11 -251 215 -283 277 -406 411 -406 444 0 38 222
338 251 338 3 0 95 -222 204 -492z m-3787 459 c13 -15 52 -371 52 -475 l0 -76
-45 44 c-53 52 -65 47 -73 -28 -6 -64 11 -115 49 -147 37 -30 72 -32 135 -5
26 11 48 19 50 18 3 -4 -15 -221 -26 -296 -10 -76 -43 -147 -108 -233 -27 -35
-99 -138 -160 -229 -79 -118 -129 -181 -175 -222 -35 -31 -88 -93 -118 -137
-30 -44 -56 -80 -59 -81 -8 0 -1 348 10 450 11 114 53 280 153 615 24 83 47
159 50 170 3 11 37 135 75 275 39 140 75 274 81 297 7 23 18 49 27 58 19 18
68 20 82 2z m3642 -693 c25 -31 102 -110 172 -176 171 -161 224 -247 268 -438
6 -30 34 -139 61 -241 27 -103 49 -192 49 -200 0 -7 -30 19 -66 59 -125 137
-437 365 -538 392 -32 9 -63 27 -86 50 -37 37 -49 64 -119 256 -22 61 -74 190
-115 287 -42 97 -76 188 -76 201 0 22 18 54 71 125 l22 30 156 -145 c86 -79
176 -169 201 -200z m-1132 279 c-3 -13 22 -83 55 -152 41 -87 133 -179 214
-217 35 -16 63 -34 63 -40 0 -6 -26 -35 -57 -65 -122 -115 -495 -445 -516
-456 -28 -15 -58 1 -113 59 -73 77 -82 104 -110 300 -14 99 -22 188 -19 199 6
18 459 379 477 379 4 0 7 -3 6 -7z m-239 -127 c-44 -43 -322 -263 -474 -376
-234 -172 -393 -278 -525 -349 -52 -28 -117 -68 -145 -89 -34 -26 -47 -31 -42
-19 4 11 10 29 13 42 l6 24 -53 -14 c-29 -8 -55 -13 -57 -11 -2 2 41 38 96 79
54 41 150 123 213 182 161 150 210 184 348 244 67 29 145 70 173 91 66 50 207
121 328 165 85 30 131 42 119 31z m-1509 -426 c168 -41 162 -38 156 -68 -3
-15 -8 -78 -12 -141 -8 -149 8 -140 25 13 8 64 19 123 27 133 12 17 13 16 14
-7 0 -54 48 -91 140 -111 l50 -11 -62 -50 c-99 -79 -147 -110 -195 -124 -39
-12 -49 -12 -76 2 -40 20 -95 71 -112 104 -18 35 -52 165 -59 228 -8 61 -13
59 104 32z m-491 -26 c50 -64 51 -124 2 -247 -16 -41 -37 -109 -46 -152 -20
-100 -26 -110 -80 -134 -41 -18 -45 -23 -45 -54 0 -19 16 -107 36 -197 34
-155 35 -165 20 -196 -8 -19 -34 -45 -56 -60 -38 -25 -43 -26 -82 -15 -68 21
-146 108 -207 231 -28 58 -51 114 -51 125 0 12 68 122 151 245 83 124 189 282
236 353 48 70 90 127 94 127 4 0 17 -12 28 -26z m1441 -55 c0 -40 61 -204 102
-274 82 -139 213 -235 371 -271 78 -18 79 -19 73 -47 -16 -81 -70 -162 -175
-268 -152 -152 -311 -249 -511 -314 -99 -32 -232 -38 -288 -14 l-33 14 58 48
c72 60 271 284 279 315 11 42 -5 68 -91 142 -47 40 -85 81 -85 90 0 9 19 43
42 76 70 99 101 171 102 236 1 72 -16 92 -79 93 -24 0 -41 3 -37 7 16 15 258
187 265 187 4 1 7 -8 7 -20z m-1249 -86 c35 -25 97 -73 136 -105 l73 -59 -25
-37 c-56 -85 -53 -156 11 -343 19 -55 34 -103 34 -107 0 -4 -71 -2 -157 5 -87
6 -172 12 -189 12 -77 2 -86 51 -28 167 38 78 39 81 39 189 -1 61 -5 149 -9
196 -14 141 11 159 115 82z m2117 -283 c5 -289 15 -268 -148 -300 -63 -12
-125 -24 -137 -27 -16 -4 -23 -1 -23 10 0 10 26 22 83 37 130 34 147 40 161
63 10 16 16 81 20 227 4 113 9 218 13 234 5 27 6 28 16 10 8 -12 13 -106 15
-254z m-68 29 c-5 -79 -10 -158 -10 -175 0 -53 -26 -73 -127 -98 -51 -13 -93
-21 -93 -17 0 3 29 42 65 86 36 44 71 98 79 120 7 22 20 63 29 91 21 64 57
147 63 142 2 -3 0 -70 -6 -149z m-992 119 c29 -24 1 -117 -65 -214 -70 -103
-91 -158 -163 -431 -12 -45 -28 -87 -36 -94 -25 -20 -60 -1 -153 87 -95 89
-131 142 -131 191 0 43 56 132 92 148 29 11 30 13 11 19 -12 4 -24 14 -27 23
-18 45 95 178 193 227 43 21 143 51 201 59 30 5 60 -2 78 -15z m2097 -72 c49
-25 139 -82 199 -127 114 -85 388 -345 411 -390 24 -44 84 -269 109 -404 30
-158 41 -258 61 -525 8 -113 17 -236 21 -275 3 -43 2 -66 -4 -60 -5 6 -46 98
-92 205 -250 586 -365 799 -577 1068 -47 59 -100 136 -118 172 -29 58 -135
348 -135 371 0 18 36 8 125 -35z m-2850 -110 c11 -2 58 -8 105 -11 49 -4 91
-12 99 -20 8 -7 16 -35 18 -62 5 -45 2 -53 -35 -99 -59 -75 -147 -147 -170
-140 -14 5 -28 35 -51 110 -18 57 -35 121 -38 142 -6 51 11 97 35 90 9 -2 26
-7 37 -10z m-455 -61 c0 -3 -16 -45 -36 -95 -69 -173 -59 -185 166 -200 85 -5
180 -13 210 -16 l55 -6 -38 -33 c-58 -51 -161 -100 -308 -149 -74 -25 -135
-44 -136 -43 -2 3 -30 135 -69 330 -32 160 -34 153 66 191 64 25 90 31 90 21z
m1184 -248 c66 -63 70 -84 25 -148 -80 -111 -304 -310 -430 -383 l-47 -27 -32
68 c-95 202 -132 433 -69 433 5 0 58 -46 117 -101 111 -106 155 -139 184 -139
31 0 56 50 83 163 14 62 33 138 42 169 l16 58 27 -20 c16 -11 54 -44 84 -73z
m2254 -152 c144 -194 205 -294 315 -515 126 -251 299 -657 328 -765 26 -99 35
-291 38 -810 l1 -370 -102 205 c-107 213 -198 363 -374 615 -58 82 -108 165
-114 185 -5 19 -14 172 -20 340 -16 479 -30 593 -121 990 -27 118 -51 223 -53
233 -8 35 12 14 102 -108z m-4142 48 c24 -96 119 -256 198 -333 25 -24 46 -47
46 -51 0 -3 -84 -64 -187 -135 -102 -71 -206 -145 -231 -165 -63 -53 -149
-171 -193 -266 -28 -61 -46 -88 -71 -103 -18 -11 -38 -20 -44 -20 -21 0 -44
70 -44 134 0 48 -5 70 -19 87 -19 23 -23 24 -152 21 -111 -2 -135 0 -150 14
-18 16 -17 17 6 36 13 10 41 25 62 32 l38 13 -35 15 c-19 8 -56 23 -82 34 -27
10 -48 24 -48 31 0 7 26 20 58 29 31 10 61 21 65 25 5 4 -18 16 -50 26 l-58
20 43 22 c24 12 78 26 124 32 46 6 85 12 87 15 3 2 -10 19 -28 38 -25 26 -30
36 -19 42 7 5 93 9 191 9 l179 0 71 102 c40 56 106 152 147 212 41 61 78 110
82 111 4 0 11 -12 14 -27z m1288 -130 c15 -71 29 -139 32 -152 5 -22 2 -22
-71 18 -42 22 -89 41 -105 41 -16 0 -61 -16 -101 -35 -117 -56 -194 -48 -267
27 l-33 35 78 36 c43 19 127 58 187 86 87 41 115 50 141 45 21 -4 43 0 61 10
16 8 34 15 40 16 6 0 23 -57 38 -127z m1676 27 c27 -27 26 -56 -15 -265 -19
-99 -35 -194 -35 -211 0 -44 16 -87 71 -184 26 -47 51 -102 55 -123 l6 -38
-73 34 c-214 99 -227 107 -250 164 -26 65 -68 103 -114 103 -46 0 -86 36 -126
114 -33 63 -33 65 -17 98 39 83 170 205 279 263 129 68 185 79 219 45z m-2382
-137 c33 -106 42 -184 42 -381 0 -218 4 -210 -135 -260 -134 -49 -179 -73
-183 -99 -2 -15 19 -56 62 -119 36 -53 66 -97 66 -99 0 -1 -30 -28 -67 -60
-84 -71 -88 -77 -68 -114 22 -43 19 -87 -14 -184 -16 -48 -26 -87 -22 -87 4 0
27 47 51 105 25 58 47 105 50 105 3 0 38 -31 78 -68 l72 -67 22 -155 c12 -85
18 -167 15 -182 -4 -15 -32 -55 -63 -90 -74 -84 -185 -251 -240 -359 -55 -111
-87 -207 -110 -329 l-18 -95 -23 73 c-50 160 -53 332 -6 492 22 75 33 121 57
235 6 29 6 29 -5 5 -14 -33 -96 -315 -104 -362 -4 -21 -10 -38 -14 -38 -11 0
-111 415 -111 463 0 106 59 327 174 651 31 87 56 161 56 164 0 25 -31 -45
-108 -243 -84 -217 -111 -303 -127 -402 -31 -196 -49 320 -20 567 8 69 24 162
34 206 11 45 25 119 31 165 12 97 23 142 45 175 8 13 96 78 195 144 122 82
195 138 227 175 25 30 48 53 50 52 1 -2 -17 -55 -41 -118 -24 -63 -46 -125
-50 -139 -14 -50 65 98 115 218 29 67 55 122 59 122 3 0 16 -30 28 -67z m1830
11 c-48 -104 -21 -242 68 -351 20 -24 35 -46 33 -47 -2 -2 -53 -25 -114 -50
-233 -99 -462 -230 -808 -461 -193 -129 -232 -148 -263 -127 -32 20 -445 470
-450 489 -3 12 3 50 15 85 41 128 50 237 25 323 -4 18 7 26 93 62 54 23 106
45 115 48 21 8 182 -66 219 -101 14 -14 32 -42 38 -62 7 -20 19 -46 27 -56 13
-19 15 -19 61 8 120 68 130 71 178 58 145 -39 302 2 631 162 82 40 150 72 152
71 1 -1 -8 -24 -20 -51z m-1666 -22 c18 -16 54 -42 79 -59 52 -36 67 -70 76
-178 7 -88 -5 -114 -87 -193 -32 -32 -67 -73 -78 -92 -12 -23 -27 -36 -44 -38
l-25 -3 0 113 c1 62 -5 188 -12 279 -8 92 -11 174 -8 183 10 26 62 20 99 -12z
m1910 -429 c24 -28 27 -47 12 -81 -15 -38 20 -20 -464 -230 -190 -82 -448
-196 -575 -252 -126 -57 -248 -105 -270 -107 -31 -3 -47 1 -71 19 -56 41 -438
364 -461 389 -47 51 -55 126 -23 197 22 48 35 55 27 14 -3 -17 2 -44 12 -67
24 -51 461 -500 495 -509 14 -3 37 -1 52 4 15 6 162 95 328 199 437 274 480
297 726 399 114 47 185 55 212 25z m399 -309 l272 -158 -39 -33 c-21 -19 -88
-70 -149 -114 -78 -56 -117 -79 -134 -77 -19 2 -67 60 -213 253 -103 137 -188
250 -188 252 0 1 11 10 25 19 34 22 83 32 122 23 18 -4 155 -78 304 -165z
m-2294 89 l30 -67 -148 -98 c-82 -54 -157 -98 -167 -98 -22 0 -148 168 -135
180 4 5 85 37 178 73 202 76 198 75 206 76 4 1 20 -29 36 -66z m1894 -99 c117
-134 217 -267 306 -408 95 -150 146 -247 136 -257 -9 -8 -155 -44 -354 -87
-109 -23 -129 -25 -143 -13 -9 8 -41 66 -71 129 -67 141 -167 310 -281 472
-46 68 -83 124 -82 125 2 1 30 11 63 23 33 12 107 42 165 66 58 25 121 45 141
45 33 1 42 -6 120 -95z m-1771 -36 c18 -13 52 -45 75 -73 l43 -50 -177 -232
c-97 -127 -178 -232 -181 -232 -9 -1 -325 271 -325 279 0 7 210 165 315 237
74 50 161 93 190 93 15 0 42 -10 60 -22z m1246 -36 c42 -29 225 -304 310 -466
56 -107 159 -354 151 -362 -2 -2 -43 -10 -92 -18 -50 -8 -169 -28 -265 -45
-107 -18 -181 -26 -191 -21 -14 8 -53 113 -236 630 -24 69 -45 129 -46 134 -2
9 327 156 348 156 6 0 15 -4 21 -8z m-1030 -153 c74 -59 73 -53 45 -209 -62
-342 -114 -590 -126 -590 -28 0 -216 102 -290 157 -97 72 -107 84 -103 118 3
27 386 574 402 575 4 0 37 -23 72 -51z m667 -121 c70 -156 237 -646 237 -694
0 -37 -21 -58 -79 -79 -76 -27 -161 -34 -504 -46 -364 -12 -367 -11 -367 39 0
27 104 597 142 775 l10 49 32 -30 c74 -70 120 -70 270 -1 156 73 190 87 202
88 6 1 32 -45 57 -101z m2524 -303 c123 -145 273 -400 436 -735 l99 -205 -6
-165 c-6 -183 -16 -272 -52 -467 -23 -127 -49 -213 -63 -213 -3 0 -26 26 -51
58 -46 59 -386 468 -484 582 -104 121 -110 153 -67 380 17 91 36 199 41 240 6
41 21 145 34 230 14 85 27 193 31 240 7 98 15 135 25 123 3 -4 29 -35 57 -68z
m-1482 -157 c3 -13 14 -79 24 -148 20 -128 32 -204 106 -660 24 -146 42 -266
41 -267 -2 -2 -54 30 -176 110 -41 27 -76 45 -78 39 -1 -5 -13 -29 -25 -53
l-22 -44 -68 0 -69 0 -86 -187 c-48 -104 -90 -188 -93 -188 -4 0 -10 12 -14
28 -10 41 -77 204 -132 322 -57 121 -136 266 -271 498 -52 90 -91 167 -86 171
5 4 32 16 59 26 31 11 66 34 90 60 52 56 65 62 187 86 199 39 393 91 406 107
6 9 12 32 12 52 l0 37 83 15 c111 21 106 21 112 -4z m-1947 -177 l152 -83 0
-58 c0 -46 4 -61 18 -68 9 -5 125 -12 256 -16 132 -4 242 -9 244 -11 3 -2 -7
-105 -22 -227 -14 -123 -34 -294 -44 -380 -10 -87 -21 -160 -24 -164 -4 -3
-113 56 -245 132 -131 76 -255 147 -276 158 l-38 21 -27 -33 -27 -33 -27 28
c-14 15 -31 46 -37 68 -14 55 -121 738 -121 772 0 8 10 6 33 -6 17 -10 101
-55 185 -100z m-258 -280 c0 -9 -14 -45 -31 -81 -55 -115 -88 -206 -129 -357
-68 -246 -102 -358 -111 -367 -14 -16 -58 11 -65 39 -11 46 65 373 131 564 41
117 88 223 117 264 l22 30 33 -38 c18 -21 33 -45 33 -54z m54 -149 c8 -13 -47
-259 -114 -518 -35 -131 -64 -240 -66 -242 -4 -6 -48 19 -71 41 -13 11 -23 31
-23 43 0 32 93 375 120 444 12 30 39 89 62 130 52 98 77 126 92 102z m3432
-424 c123 -92 441 -435 552 -595 29 -41 28 -63 -1 -63 -36 0 -598 491 -637
557 -21 35 -21 38 -5 80 19 50 45 56 91 21z m-3446 -140 c0 -31 -117 -406
-132 -425 -37 -46 -40 25 -8 159 56 231 70 272 98 295 30 25 42 17 42 -29z
m3389 -149 c36 -21 206 -152 414 -316 111 -89 147 -133 95 -118 -28 8 -379
218 -475 283 -49 34 -75 60 -92 93 -39 74 -12 101 58 58z m-3394 -214 c23 -77
29 -173 15 -255 -18 -106 -25 -112 -25 -17 0 64 -6 100 -28 164 -27 77 -28 86
-17 140 11 53 13 56 26 38 8 -11 21 -42 29 -70z m3680 -204 c35 -19 75 -92 75
-136 0 -43 -25 -75 -58 -75 -25 0 -33 11 -84 114 -39 77 -53 116 -45 119 19 8
79 -4 112 -22z"/>
<path d="M3008 6106 c-71 -30 -131 -72 -184 -128 -55 -58 -84 -102 -84 -127 0
-22 85 -201 96 -201 3 0 2 37 -2 83 -7 91 -2 110 53 179 l30 36 -1 -196 c-1
-214 6 -275 29 -265 9 3 23 -5 34 -18 16 -20 17 -25 4 -38 -11 -11 -14 -28
-10 -63 l6 -47 -56 24 c-30 14 -58 25 -60 25 -14 0 25 -34 65 -57 36 -21 60
-27 139 -31 92 -5 95 -4 89 15 -4 11 0 78 8 149 15 137 27 335 28 474 1 96
-18 158 -60 190 -32 25 -54 25 -124 -4z m108 -121 c23 -23 25 -32 20 -73 -3
-26 -8 -103 -11 -172 -10 -196 -28 -238 -68 -158 -31 63 -51 364 -27 409 15
27 56 24 86 -6z m-111 -269 c17 -170 14 -186 -30 -186 -21 0 -24 6 -31 66 -10
94 1 239 22 304 l19 55 2 -40 c2 -22 10 -111 18 -199z"/>
<path d="M4954 5605 c-4 -9 -4 -47 0 -85 6 -64 -5 -120 -24 -120 -3 0 -15 -7
-26 -16 -18 -15 -17 -15 16 -10 52 9 60 27 60 137 0 91 -12 132 -26 94z"/>
<path d="M4872 5287 c-27 -29 -27 -39 -2 -62 21 -19 51 -15 84 10 19 15 19 16
-9 45 -35 36 -45 37 -73 7z"/>
<path d="M3293 5042 c-10 -6 -4 -35 26 -123 47 -140 65 -177 96 -191 60 -27
105 24 146 165 22 77 22 78 3 97 -13 14 -54 26 -129 40 -123 23 -125 23 -142
12z m144 -45 c34 -7 63 -16 64 -21 1 -9 -133 -98 -139 -92 -2 2 -12 31 -22 65
l-18 61 26 -1 c15 0 55 -6 89 -12z m98 -95 c-51 -143 -78 -167 -127 -113 -31
35 -32 39 -15 62 17 22 140 99 149 93 4 -2 1 -21 -7 -42z"/>
<path d="M2662 4813 c-5 -10 -40 -90 -77 -178 -37 -88 -103 -243 -146 -344
-44 -101 -77 -186 -75 -188 8 -8 119 206 185 356 67 151 161 448 113 354z"/>
<path d="M2601 3094 c-29 -69 -50 -128 -48 -130 2 -2 27 53 55 123 29 69 50
128 48 130 -2 2 -27 -53 -55 -123z"/>
<path d="M2532 2925 c-17 -37 -14 -45 4 -12 9 16 14 31 11 33 -2 2 -9 -7 -15
-21z"/>
<path d="M2507 2033 c-8 -32 -14 -59 -12 -61 2 -2 11 21 20 53 9 31 15 58 13
61 -3 2 -12 -22 -21 -53z"/>
<path d="M2461 1894 c-11 -37 -19 -70 -16 -72 2 -2 13 27 24 64 11 37 19 70
16 72 -2 2 -13 -27 -24 -64z"/>
</g>
</svg>
