<?xml version="1.0" standalone="no"?>
<!DOCTYPE svg PUBLIC "-//W3C//DTD SVG 20010904//EN"
 "http://www.w3.org/TR/2001/REC-SVG-20010904/DTD/svg10.dtd">
<svg version="1.0" xmlns="http://www.w3.org/2000/svg"
 width="1024.000000pt" height="1024.000000pt" viewBox="0 0 1024.000000 1024.000000"
 preserveAspectRatio="xMidYMid meet">
<metadata>
Created by potrace 1.14, written by Peter Selinger 2001-2017
</metadata>
<g transform="translate(0.000000,1024.000000) scale(0.100000,-0.100000)"
fill="#000000" stroke="none">
<path d="M3722 9958 c-68 -106 -144 -172 -262 -231 -84 -42 -119 -67 -183
-129 -47 -46 -90 -79 -107 -83 -20 -4 -55 2 -105 20 -159 54 -289 55 -555 3
-134 -26 -169 -29 -255 -24 -55 3 -117 9 -137 12 l-37 6 6 -98 c7 -121 -12
-203 -98 -434 -73 -195 -86 -266 -69 -366 16 -95 12 -102 -123 -183 -58 -35
-156 -104 -217 -153 -127 -101 -198 -144 -266 -161 -26 -7 -49 -17 -51 -23 -2
-6 12 -30 31 -53 19 -23 49 -66 66 -97 35 -60 30 -84 -16 -84 -39 0 -120 -35
-175 -76 -61 -45 -147 -150 -218 -267 -83 -138 -144 -178 -294 -194 -35 -4
-61 -11 -64 -19 -3 -8 13 -35 35 -61 79 -95 171 -241 228 -358 49 -102 68
-130 128 -190 85 -84 184 -137 307 -164 57 -12 85 -22 87 -33 2 -8 -34 -55
-78 -104 -225 -246 -293 -450 -245 -739 20 -123 19 -137 -15 -215 -36 -83 -37
-94 -5 -125 18 -19 35 -25 68 -25 60 0 111 -20 241 -92 169 -94 254 -134 348
-162 125 -39 133 -47 173 -176 9 -30 54 -136 100 -236 98 -210 111 -253 100
-332 -18 -141 -7 -158 63 -99 58 49 123 58 367 55 l200 -3 48 28 48 28 42 -43
c23 -24 63 -59 87 -79 l44 -36 -14 -42 c-20 -63 -72 -117 -130 -136 -68 -22
-75 -39 -56 -128 24 -112 36 -210 45 -369 5 -80 11 -150 14 -156 4 -5 -12 -32
-33 -61 -47 -62 -64 -115 -95 -297 -31 -181 -50 -217 -140 -271 -112 -67 -111
-95 11 -194 107 -87 146 -137 188 -239 87 -210 208 -286 439 -279 94 3 111 2
120 -13 9 -13 3 -25 -27 -58 -49 -54 -66 -97 -66 -162 0 -65 15 -97 120 -268
104 -168 124 -227 110 -317 -6 -36 -8 -73 -5 -83 7 -21 47 -36 122 -44 80 -8
230 -62 318 -115 121 -72 185 -94 285 -95 61 -1 100 4 140 19 75 26 99 19 100
-30 0 -39 60 -146 112 -201 73 -77 173 -141 308 -197 143 -60 205 -103 230
-163 17 -40 23 -44 54 -44 23 0 49 11 82 35 78 56 139 82 302 124 157 42 188
54 260 103 83 57 162 195 162 285 0 18 6 48 14 66 14 32 125 147 142 147 5 0
19 -15 31 -34 32 -50 101 -79 198 -84 105 -5 183 14 344 83 165 71 194 75 294
40 72 -25 80 -25 102 -11 31 20 38 59 25 138 -9 60 -8 73 19 162 16 53 35 104
43 113 15 19 154 85 290 138 54 21 113 51 133 67 49 41 47 71 -11 143 -63 77
-79 124 -115 340 -30 184 -30 186 -12 218 11 18 39 45 64 62 76 51 134 118
176 207 50 104 67 167 92 339 24 168 43 225 137 411 42 85 74 161 74 178 0 41
-29 56 -120 64 -84 7 -130 31 -174 89 -43 56 -31 106 46 198 71 84 45 126 -71
115 -209 -19 -226 -19 -267 2 -65 33 -127 94 -126 125 0 66 45 74 107 19 53
-46 117 -71 139 -53 8 7 18 31 21 54 4 23 22 82 41 130 19 49 37 116 41 150 7
53 11 62 29 65 19 3 25 -6 43 -61 37 -110 127 -229 203 -268 21 -11 82 -28
136 -39 145 -30 218 -59 273 -107 82 -74 108 -58 195 120 126 259 125 378 -8
715 -52 131 -47 139 59 89 165 -76 289 -89 453 -48 52 13 117 21 168 21 90 0
144 16 161 48 27 51 5 106 -81 198 -53 56 -55 59 -128 192 -64 117 -72 156
-32 169 80 26 122 57 176 127 70 94 105 120 202 153 83 28 124 59 124 93 0 11
-19 42 -43 68 -24 26 -65 79 -92 117 -27 39 -80 102 -117 142 -89 95 -89 102
6 207 138 152 248 332 306 501 27 77 26 110 -5 140 -27 28 -74 32 -163 15 -36
-6 -105 -5 -229 5 -98 8 -226 15 -284 15 -92 0 -108 3 -127 20 -26 25 -28 57
-7 137 23 87 19 193 -11 303 -24 87 -34 223 -34 445 0 21 -29 45 -56 45 -13 0
-72 -20 -131 -43 -135 -54 -130 -54 -344 -82 -199 -27 -240 -42 -326 -119 -58
-52 -92 -58 -126 -23 -31 30 -103 173 -133 259 -13 40 -30 75 -37 80 -28 18
-60 7 -96 -32 l-37 -41 -62 56 c-60 55 -65 64 -86 155 -6 31 -41 70 -61 70
-26 0 -52 -36 -69 -92 -21 -74 -45 -101 -127 -144 -48 -25 -86 -55 -117 -92
l-47 -54 -75 4 c-105 6 -165 34 -186 87 -17 43 -41 53 -64 27 -6 -8 -16 -48
-22 -88 -5 -40 -19 -88 -30 -106 l-20 -32 -76 6 c-56 5 -94 2 -141 -10 l-64
-16 -28 32 c-16 18 -28 39 -29 47 0 8 26 38 58 66 32 29 70 75 84 102 56 102
77 252 58 423 -30 283 -26 316 52 392 44 42 46 48 32 62 -10 11 -34 16 -69 16
-81 0 -201 28 -295 70 -157 69 -259 93 -405 94 -109 0 -180 -14 -263 -52 -40
-18 -64 -23 -93 -19 -52 7 -62 17 -106 99 -20 38 -63 99 -96 135 -33 36 -79
96 -103 134 -44 67 -122 221 -142 278 -6 17 -16 31 -23 31 -6 0 -29 -20 -51
-45 -51 -57 -96 -81 -216 -111 -133 -34 -138 -33 -134 14 3 34 -1 42 -33 70
-45 40 -136 86 -290 147 -216 85 -295 136 -336 217 -11 21 -25 38 -33 38 -7 0
-31 -28 -54 -62z m89 -114 c21 -26 88 -55 184 -81 245 -65 395 -148 395 -220
0 -41 -22 -56 -118 -81 -212 -56 -327 -162 -376 -347 -23 -91 -60 -110 -147
-80 -24 9 -94 27 -155 40 -131 27 -177 49 -229 106 -45 50 -106 177 -113 236
-10 94 79 196 235 269 100 46 217 118 247 152 22 26 58 28 77 6z m-834 -330
c74 -19 143 -62 186 -116 40 -50 46 -112 17 -193 -29 -83 -116 -226 -189 -310
-102 -117 -164 -265 -196 -468 -4 -27 -13 -41 -31 -49 -28 -13 -44 -6 -159 67
-72 46 -200 98 -270 109 -22 4 -94 10 -159 15 l-119 8 -32 35 c-24 26 -35 49
-40 87 -13 95 0 147 113 441 22 58 46 137 52 175 7 39 14 80 16 93 6 32 51 48
154 56 47 4 148 20 225 36 169 34 328 40 432 14z m1889 -22 c47 -24 89 -69
135 -142 19 -30 65 -91 102 -134 78 -91 96 -122 128 -226 20 -64 24 -95 23
-205 -1 -111 -5 -143 -27 -218 -46 -151 -119 -275 -244 -415 -72 -81 -109
-100 -152 -83 -39 17 -51 49 -51 139 0 97 -14 122 -69 122 -20 0 -59 -7 -85
-16 -46 -16 -51 -15 -159 10 -62 15 -122 29 -134 31 -35 8 -60 43 -68 93 -22
155 -84 280 -190 387 -45 44 -95 92 -113 106 -27 23 -32 33 -32 72 0 97 62
232 138 298 55 48 148 87 284 119 68 16 179 43 248 59 140 34 205 34 266 3z
m-1526 -357 c63 -56 93 -69 249 -106 161 -39 262 -79 353 -138 123 -81 199
-178 242 -310 36 -111 39 -134 22 -174 -17 -41 -31 -50 -123 -78 -99 -30 -161
-68 -205 -122 -38 -49 -78 -154 -78 -206 0 -15 -6 -35 -14 -46 -12 -16 -18
-17 -59 -7 -106 27 -277 10 -428 -43 -91 -31 -114 -31 -220 1 -79 24 -90 30
-123 74 -82 108 -121 246 -113 400 11 192 74 353 200 508 41 51 94 130 118
174 24 44 52 89 62 99 28 31 62 23 117 -26z m2576 -126 c40 -10 108 -36 152
-58 44 -21 116 -46 159 -56 107 -25 111 -30 82 -99 l-23 -56 25 -123 c34 -173
35 -402 1 -496 -57 -157 -161 -231 -265 -187 -20 8 -66 53 -119 117 -123 149
-189 197 -296 220 -101 21 -253 -22 -374 -106 -47 -33 -77 -65 -119 -127 -78
-118 -169 -182 -229 -163 -25 8 -53 60 -46 83 4 9 47 57 96 106 213 211 315
406 344 660 15 128 27 156 91 215 85 79 175 103 345 94 58 -3 137 -14 176 -24z
m-3596 -504 c135 -28 295 -112 430 -226 41 -34 48 -45 63 -111 18 -76 80 -199
116 -232 16 -14 21 -32 22 -70 0 -28 4 -77 8 -108 9 -77 -6 -131 -58 -206 -43
-61 -45 -62 -68 -47 -12 8 -33 22 -45 30 -84 53 -261 91 -356 76 -149 -24
-223 -76 -325 -228 -36 -54 -81 -115 -101 -137 -36 -39 -36 -39 -99 -33 -167
14 -325 138 -388 306 -12 33 -27 110 -35 186 -10 93 -22 154 -45 220 -53 149
-42 169 180 342 154 120 220 165 297 200 112 51 270 66 404 38z m2150 -226
c66 -14 112 -19 151 -14 80 8 100 -10 110 -101 10 -90 37 -160 106 -274 68
-112 83 -160 83 -260 0 -90 -20 -167 -61 -232 -34 -53 -106 -123 -138 -133
-36 -11 -93 24 -119 75 -58 112 -113 149 -218 150 -51 0 -68 -5 -104 -29 -24
-16 -48 -27 -54 -24 -6 2 -46 49 -88 103 -60 77 -89 105 -127 125 -61 30 -87
57 -102 104 -7 20 -25 57 -41 83 -29 47 -29 48 -18 125 27 177 95 263 240 303
120 33 220 33 380 -1z m1218 -84 c68 -31 156 -115 242 -231 77 -102 114 -137
165 -154 40 -13 40 -13 20 -48 -8 -15 -35 -112 -60 -217 -83 -346 -123 -443
-226 -547 -51 -51 -87 -78 -150 -108 -149 -71 -304 -97 -414 -69 -28 7 -66 30
-107 65 -87 74 -202 129 -344 164 -64 16 -121 35 -126 42 -12 19 -10 62 5 80
6 8 32 29 57 46 102 68 168 156 202 265 17 57 19 84 15 165 -4 53 -9 111 -13
129 -6 30 -4 33 45 58 70 35 123 84 170 160 48 75 73 100 147 144 136 83 271
103 372 56z m1608 -51 c7 -38 55 -93 128 -148 l38 -28 -73 -75 c-41 -41 -99
-92 -129 -113 -224 -153 -276 -389 -185 -833 20 -99 43 -197 51 -219 21 -61
19 -90 -8 -86 -18 3 -25 17 -44 94 -12 51 -27 101 -33 112 -6 12 -39 133 -74
269 l-62 248 0 180 c0 189 10 246 56 337 26 51 85 107 139 131 69 30 95 52
135 112 20 30 40 55 45 55 5 0 12 -16 16 -36z m317 -197 c9 -29 52 -110 96
-181 106 -171 115 -208 108 -408 -7 -184 -27 -280 -95 -450 -49 -123 -76 -201
-107 -311 -12 -46 -23 -62 -48 -77 -50 -31 -109 -26 -175 14 -32 19 -77 40
-101 47 -76 22 -110 97 -160 351 -70 357 -68 485 8 637 39 77 71 114 156 177
38 29 117 98 175 153 58 55 110 100 116 101 6 0 18 -24 27 -53z m1091 -23 c12
-12 16 -37 16 -107 0 -96 21 -263 39 -310 6 -15 15 -56 21 -91 29 -180 -66
-375 -201 -415 -165 -48 -413 -206 -604 -384 l-71 -65 -54 14 c-30 8 -62 14
-71 14 -10 0 -31 14 -48 31 -46 46 -42 86 25 249 80 194 104 307 111 511 4
113 2 177 -6 200 -13 39 -8 49 74 138 70 74 135 108 230 116 181 16 365 57
441 99 38 20 78 20 98 0z m-4982 -26 c80 -26 138 -101 138 -176 l0 -39 -70 -7
c-38 -3 -100 -3 -137 0 -125 11 -178 -19 -230 -133 -30 -65 -39 -139 -24 -186
7 -20 10 -45 7 -55 -8 -25 -104 -50 -213 -55 -93 -4 -127 -21 -178 -91 -59
-79 -140 -55 -171 50 -26 91 -7 159 91 314 70 112 88 161 81 225 -3 28 -3 61
1 74 6 23 7 23 108 16 81 -5 109 -4 138 9 156 65 357 88 459 54z m2955 1 c24
-12 80 -26 123 -31 89 -12 97 -20 80 -78 -6 -19 -15 -87 -21 -150 -6 -63 -15
-120 -21 -127 -30 -37 -92 9 -160 117 -19 30 -53 74 -76 96 -48 46 -50 54 -22
79 11 10 22 34 26 54 11 71 9 70 71 40z m-5289 -86 c13 -13 25 -46 37 -108 38
-204 77 -290 174 -385 68 -66 119 -97 226 -136 50 -18 60 -26 60 -45 0 -28
-79 -91 -136 -108 -35 -11 -59 -34 -59 -60 0 -26 55 -71 117 -96 76 -29 93
-46 93 -87 0 -45 -25 -83 -77 -116 -61 -39 -132 -60 -262 -77 -218 -29 -408
26 -541 156 -39 40 -68 85 -125 198 -40 80 -90 178 -111 216 -35 67 -36 72
-23 100 8 18 34 41 61 55 71 39 89 60 190 222 116 188 184 252 293 279 48 11
62 10 83 -8z m5107 -72 c48 -22 121 -99 192 -203 43 -64 59 -79 97 -93 51 -20
53 -24 31 -86 -9 -24 -22 -89 -30 -145 -18 -131 -45 -200 -95 -249 -33 -32
-48 -40 -79 -40 -47 0 -70 19 -110 90 -37 66 -115 143 -179 178 -58 31 -158
57 -225 57 -32 0 -49 5 -53 14 -3 8 16 99 42 202 56 221 69 242 167 273 81 26
188 27 242 2z m-2495 -128 c16 -10 76 -77 134 -150 58 -72 119 -139 135 -149
17 -10 35 -31 41 -47 31 -91 -22 -177 -109 -177 -25 0 -32 5 -37 28 -11 54
-24 71 -66 93 -24 12 -70 42 -103 67 -87 65 -118 76 -171 62 -41 -12 -45 -11
-81 17 -46 36 -77 53 -97 53 -8 0 -45 -25 -83 -55 -37 -30 -71 -55 -76 -55 -4
0 -16 15 -27 33 -30 48 -26 119 9 192 47 99 47 99 240 106 207 7 256 4 291
-18z m-1392 -58 c65 -15 161 -60 199 -91 l22 -19 -19 -55 c-21 -61 -25 -145
-9 -203 16 -58 62 -103 130 -128 88 -32 94 -48 85 -225 -7 -165 2 -206 64
-299 22 -33 40 -71 40 -83 0 -16 -22 -46 -63 -89 l-64 -65 -149 -11 c-291 -21
-352 -11 -474 83 -131 101 -296 247 -323 287 -15 23 -36 76 -46 118 -22 87
-37 107 -102 141 -77 38 -73 53 26 117 42 27 56 45 92 115 23 46 59 107 81
135 22 29 56 79 76 113 81 140 251 202 434 159z m1873 -139 c38 -26 90 -113
109 -185 6 -24 20 -93 30 -152 12 -75 26 -123 45 -154 35 -60 31 -95 -14 -117
-54 -27 -81 -59 -171 -204 -89 -144 -128 -181 -210 -204 -104 -29 -169 4 -170
86 0 32 8 51 34 85 90 118 136 239 136 357 0 81 -1 78 68 207 21 40 28 127 12
165 -7 17 -26 38 -41 46 -32 16 -35 23 -16 46 39 51 131 62 188 24z m-759 -86
c16 -17 28 -36 26 -42 -3 -7 -26 -24 -53 -37 -73 -38 -149 -113 -175 -172 -27
-64 -29 -144 -4 -222 17 -55 17 -57 -1 -77 -13 -14 -29 -20 -49 -18 -44 4 -69
55 -112 232 -49 204 -41 236 59 236 52 0 120 33 185 91 54 47 83 49 124 9z
m3161 -46 c43 -195 93 -387 123 -472 26 -73 34 -106 26 -114 -20 -20 -40 1
-52 55 -14 71 -67 179 -119 244 -47 60 -49 74 -26 223 8 52 15 99 15 103 0 5
6 7 12 5 7 -3 16 -22 21 -44z m-2970 -4 c21 -11 63 -41 93 -65 30 -25 59 -45
65 -45 5 0 19 -19 29 -42 49 -109 1 -267 -97 -317 -32 -16 -90 -14 -97 4 -9
25 11 63 43 80 43 22 61 54 68 119 5 52 3 60 -30 110 -20 30 -58 69 -84 87
-54 37 -63 47 -63 72 0 23 26 22 73 -3z m-73 -86 c84 -56 144 -141 129 -181
-13 -36 -50 -29 -111 20 -93 76 -109 80 -168 41 -41 -27 -80 -26 -80 3 0 22
58 92 94 114 38 23 103 24 136 3z m-633 -14 c49 -29 64 -60 105 -218 49 -187
71 -225 149 -260 46 -21 65 -36 82 -66 29 -52 62 -75 138 -96 l64 -17 6 -54
c10 -96 -24 -157 -101 -180 -55 -17 -101 -4 -167 45 -76 57 -88 62 -153 71
-30 4 -67 13 -81 21 -38 19 -119 112 -154 175 l-29 54 -1 245 -2 245 28 27
c33 33 71 36 116 8z m3096 -33 c126 -62 207 -207 243 -437 21 -136 44 -211
106 -342 28 -59 48 -114 45 -122 -4 -9 -27 -25 -52 -37 -32 -15 -60 -41 -92
-83 -139 -185 -319 -327 -493 -391 -99 -36 -245 -45 -340 -21 -83 21 -216 85
-295 141 -73 52 -173 152 -197 197 -23 42 -22 67 1 153 41 151 55 240 56 370
1 72 5 137 9 147 10 22 49 35 126 43 120 12 232 48 344 113 75 44 186 158 226
233 35 67 42 69 178 64 64 -2 94 -8 135 -28z m-2574 -126 c15 -10 41 -81 41
-113 0 -27 -35 -22 -69 10 -40 37 -47 66 -22 91 23 23 30 25 50 12z m1101 -22
c183 -50 332 -153 381 -261 21 -47 24 -68 24 -178 -1 -249 -114 -608 -230
-732 -50 -52 -233 -141 -360 -175 -137 -36 -310 -39 -370 -6 -51 27 -89 69
-104 112 -28 84 -5 142 93 236 40 39 81 86 91 105 22 43 22 103 1 154 -29 69
-22 92 43 155 35 35 84 101 122 165 82 138 109 170 156 184 46 14 103 66 103
95 0 11 -20 42 -45 68 -47 50 -53 67 -33 87 17 17 42 15 128 -9z m-996 -8 c10
-11 33 -27 52 -36 l34 -16 -29 -25 c-37 -30 -63 -21 -80 27 -22 63 -10 87 23
50z m5478 -1 c57 -7 112 -7 162 0 122 17 139 -7 92 -132 -85 -228 -270 -466
-439 -566 -132 -79 -339 -146 -533 -173 -116 -16 -327 -17 -381 -1 -61 18 -58
45 17 156 61 90 75 137 48 164 -7 7 -44 12 -92 12 -69 0 -88 5 -131 28 -44 24
-50 31 -53 63 -3 35 1 40 84 109 202 166 426 292 592 331 115 28 422 32 634 9z
m-5702 -12 c5 -13 12 -41 15 -63 5 -32 18 -51 67 -96 54 -51 59 -59 49 -78
-15 -26 -46 -27 -88 -1 -52 31 -91 105 -100 188 -7 64 36 101 57 50z m606 0
c12 -20 6 -107 -12 -161 -43 -134 -126 -239 -200 -253 -21 -4 -98 -2 -170 4
-188 15 -244 43 -244 122 l0 31 31 -22 c43 -30 109 -31 141 -3 39 37 68 46
159 54 71 5 96 12 129 34 50 33 87 87 102 154 11 43 16 52 35 52 12 0 25 -5
29 -12z m2624 -33 c84 -122 118 -251 86 -320 -9 -19 -19 -35 -22 -35 -3 0 -26
23 -51 50 -51 57 -108 94 -197 126 -97 35 -101 67 -14 108 29 14 73 46 98 71
24 25 50 45 57 45 6 0 26 -20 43 -45z m-2987 -115 c17 -27 17 -31 2 -36 -20
-8 -55 23 -55 48 0 29 34 21 53 -12z m2848 -141 c75 -37 147 -102 169 -152 14
-31 15 -47 8 -90 -20 -105 4 -214 60 -273 39 -42 45 -62 25 -96 -38 -66 -95
-87 -234 -88 -182 -1 -212 21 -138 97 58 58 95 81 149 89 87 13 88 33 5 164
-71 113 -122 222 -136 292 -20 97 -5 106 92 57z m380 -94 c33 -14 100 -36 148
-49 106 -29 120 -35 159 -80 45 -51 59 -104 38 -144 -20 -39 -55 -57 -124 -65
-29 -3 -69 -15 -90 -26 -20 -11 -59 -22 -87 -25 -27 -3 -68 -8 -91 -12 -37 -5
-43 -3 -67 26 -37 43 -50 102 -43 185 8 98 31 170 63 194 14 12 27 21 30 21 2
0 31 -11 64 -25z m-5050 -43 c24 -16 51 -37 59 -46 8 -10 39 -34 70 -53 125
-80 190 -155 192 -223 1 -27 -11 -43 -74 -104 -41 -40 -89 -93 -107 -119 -47
-69 -110 -216 -128 -300 -17 -81 -14 -232 8 -356 l14 -74 -40 -31 c-21 -17
-64 -55 -94 -84 -69 -66 -79 -72 -131 -72 -102 0 -409 143 -516 241 -23 20
-55 44 -72 53 -45 23 -72 63 -72 106 0 20 -10 72 -21 116 -17 61 -21 110 -22
214 -1 199 30 296 142 449 53 70 88 102 233 209 21 14 45 22 73 22 63 0 201
26 280 53 99 34 150 34 206 -1z m5797 -33 c26 -6 96 -34 156 -62 78 -36 126
-52 170 -56 55 -5 61 -8 64 -30 3 -15 -12 -46 -41 -90 -53 -76 -67 -110 -67
-155 0 -17 -12 -55 -26 -84 -67 -135 -223 -190 -378 -132 -77 29 -101 54 -115
119 -14 69 -42 107 -89 122 -20 6 -40 17 -44 23 -16 24 -6 81 26 150 77 167
191 231 344 195z m-3838 -12 c28 -10 41 -24 65 -70 35 -67 42 -73 115 -88 63
-13 82 -26 122 -88 34 -54 37 -109 8 -156 -24 -40 -139 -135 -240 -201 -65
-42 -225 -117 -344 -161 -22 -8 -55 -27 -73 -44 -19 -16 -36 -29 -38 -29 -18
0 -54 27 -72 54 -26 41 -97 76 -206 104 -93 24 -155 62 -231 142 -69 73 -111
156 -102 205 10 53 89 150 142 176 41 19 55 21 131 15 102 -9 116 -13 172 -60
105 -88 214 -96 298 -23 44 39 63 82 63 144 0 75 18 93 93 92 34 0 78 -5 97
-12z m5279 -344 c71 -75 164 -196 206 -268 27 -46 15 -64 -62 -91 -92 -32
-128 -59 -193 -144 -77 -102 -106 -122 -176 -124 l-54 -1 -77 80 c-88 91 -135
121 -260 169 -81 32 -338 99 -476 126 -80 16 -90 38 -51 112 26 47 32 53 59
50 137 -12 289 -13 373 -2 190 23 391 78 509 139 95 49 115 44 202 -46z
m-6418 57 c47 -13 81 -52 108 -124 29 -79 80 -146 160 -210 79 -64 128 -90
199 -105 72 -15 126 -44 156 -84 23 -29 26 -44 26 -108 -1 -320 -237 -552
-640 -626 -71 -13 -150 -17 -310 -18 l-215 0 -48 28 c-87 51 -147 175 -182
375 -56 314 -16 475 163 664 158 166 250 204 517 217 17 0 46 -4 66 -9z m4519
-10 c23 0 40 -34 39 -78 -1 -61 -11 -93 -31 -106 -13 -8 -21 -5 -37 15 -11 14
-39 31 -63 38 -24 7 -46 18 -50 25 -10 15 -10 58 1 75 10 15 99 42 119 35 8
-2 17 -4 22 -4z m-218 -67 c10 -9 18 -22 18 -30 0 -7 7 -24 16 -37 14 -23 14
-25 -5 -31 -31 -9 -71 -63 -71 -94 0 -16 9 -40 20 -54 25 -32 25 -37 -1 -37
-13 0 -48 27 -90 70 l-68 70 35 57 c57 96 104 124 146 86z m379 -83 c12 -25
18 -74 22 -167 l5 -133 -42 0 c-22 0 -80 -7 -129 -16 -99 -18 -133 -14 -148
20 -16 34 2 61 61 91 52 27 80 57 80 90 0 20 71 133 93 147 22 14 42 3 58 -32z
m-2248 -153 c205 -208 389 -286 642 -272 115 7 121 6 154 -17 48 -32 68 -64
86 -133 27 -102 22 -196 -14 -303 -17 -51 -31 -105 -31 -119 0 -42 -26 -63
-80 -63 -40 0 -61 -9 -136 -56 -201 -126 -271 -155 -373 -155 -81 0 -157 27
-232 84 -60 45 -126 117 -140 153 -4 12 -5 78 -2 146 8 173 -20 268 -125 426
-63 95 -46 158 59 217 52 30 54 32 62 85 13 87 17 100 28 100 5 0 51 -42 102
-93z m2011 64 c41 -23 42 -37 4 -61 -43 -26 -86 -26 -115 2 -29 27 -29 52 0
73 25 18 65 13 111 -14z m-597 -27 c46 -7 54 -28 31 -81 -34 -77 -34 -134 2
-297 42 -191 40 -211 -39 -374 -147 -299 -300 -465 -527 -568 -125 -57 -574
-184 -606 -172 -12 5 -17 30 -23 110 -10 147 1 168 101 194 72 18 156 59 257
122 95 61 126 68 211 46 61 -15 68 -15 91 0 28 19 32 43 10 72 -19 25 -19 73
1 154 39 161 35 284 -12 408 -49 127 -45 144 56 212 34 23 94 70 135 106 40
35 84 68 97 73 21 9 142 6 215 -5z m261 0 c18 -8 46 -35 63 -58 32 -45 51 -58
117 -75 34 -10 42 -17 56 -55 17 -45 59 -76 103 -76 43 0 53 -43 32 -139 -20
-93 -63 -125 -219 -160 -52 -12 -133 -39 -180 -61 -93 -43 -110 -41 -110 14 0
39 -23 158 -51 267 -39 153 -10 275 80 336 40 27 66 29 109 7z m748 -85 c64
-17 91 -20 158 -14 170 16 325 11 441 -14 157 -33 327 -86 421 -131 105 -51
179 -129 256 -272 123 -228 142 -259 189 -315 89 -107 96 -138 36 -166 -18 -8
-61 -18 -97 -22 -36 -4 -102 -16 -148 -26 -201 -46 -329 -14 -587 146 -293
181 -384 254 -430 345 -39 77 -104 161 -211 270 -113 117 -134 144 -134 177 0
16 17 43 27 43 1 0 37 -9 79 -21z m-3652 -50 c13 -6 32 -30 42 -52 28 -62 104
-132 171 -158 111 -43 332 -23 496 46 50 21 116 19 150 -4 56 -36 164 -228
193 -341 19 -74 13 -150 -21 -258 -41 -129 -103 -217 -249 -351 -53 -49 -116
-151 -116 -188 0 -7 -9 -17 -21 -24 -18 -9 -32 -5 -88 24 -83 43 -88 44 -273
62 -237 24 -356 61 -457 143 -107 87 -137 191 -128 441 6 174 27 354 52 456
22 87 57 132 140 177 79 43 76 42 109 27z m3568 -127 c62 -25 192 -171 267
-300 68 -117 86 -193 86 -367 -1 -163 -9 -214 -60 -370 -18 -55 -35 -132 -40
-170 -7 -69 -25 -105 -52 -105 -7 0 -41 28 -76 63 -55 55 -73 66 -156 96 -171
62 -287 157 -351 287 -47 96 -62 180 -58 324 3 112 6 129 28 166 14 23 50 61
80 85 66 53 100 114 100 180 0 58 33 110 78 125 35 11 109 4 154 -14z m-3866
-27 c4 -8 -3 -79 -15 -157 -81 -549 -38 -752 185 -879 71 -41 96 -70 97 -116
3 -111 -155 -281 -337 -363 -51 -23 -264 -90 -342 -107 -29 -7 -99 26 -152 70
-23 19 -90 61 -149 93 -124 67 -186 124 -231 217 -60 122 -62 238 -6 349 51
100 98 137 259 203 273 111 426 273 471 501 18 88 31 109 74 118 16 3 46 23
67 46 39 41 69 51 79 25z m3370 -351 c7 -8 9 -60 6 -146 -6 -214 30 -335 146
-486 55 -73 57 -76 60 -148 6 -114 -49 -269 -142 -398 -91 -128 -342 -346
-397 -346 -28 0 -50 36 -59 98 -10 71 -11 74 -110 222 -163 245 -180 289 -179
460 1 175 6 195 74 276 33 39 95 130 138 202 81 137 120 175 206 203 20 6 55
23 79 37 85 49 152 59 178 26z m1036 -180 c62 -42 125 -88 140 -101 47 -44
112 -184 179 -387 43 -129 50 -256 19 -357 -28 -94 -93 -223 -122 -243 -32
-23 -50 -20 -121 19 -41 22 -107 45 -191 65 -149 36 -179 47 -223 84 -33 28
-103 127 -103 146 0 7 14 0 31 -14 35 -30 41 -31 77 -12 49 25 62 49 76 142 8
49 30 141 49 204 56 185 73 336 54 473 -7 48 -6 57 7 57 9 0 66 -34 128 -76z
m-6079 44 c15 -13 48 -93 61 -151 4 -17 -2 -54 -14 -94 -34 -110 -10 -127 96
-73 l59 31 175 -7 c220 -9 211 -2 228 -167 7 -64 23 -152 37 -195 31 -97 31
-124 1 -159 -24 -28 -25 -28 -148 -28 -158 0 -426 13 -438 20 -6 4 -10 21 -10
38 0 19 -33 103 -81 207 -130 278 -149 328 -149 389 0 123 114 241 183 189z
m3114 -281 c43 -24 102 -87 108 -117 13 -61 -3 -90 -124 -215 -119 -122 -168
-186 -235 -307 -21 -38 -45 -69 -54 -70 -37 -3 -69 5 -102 25 -32 20 -52 22
-260 27 -207 5 -229 8 -271 28 -52 26 -129 96 -159 144 -26 43 -26 99 0 123
18 16 27 17 107 6 49 -6 136 -15 196 -21 122 -11 150 -22 224 -91 85 -80 118
-65 148 66 21 89 40 120 122 195 36 33 90 90 119 127 30 37 64 73 76 80 29 16
77 16 105 0z m278 -145 c6 -4 11 -64 12 -146 3 -210 12 -217 231 -161 196 49
199 48 161 -26 -25 -51 -35 -128 -20 -157 14 -27 58 -29 121 -7 75 27 101 18
115 -36 8 -34 -19 -64 -49 -54 -12 4 -37 9 -57 12 -69 9 -140 -82 -175 -223
-20 -80 -37 -104 -74 -104 -21 0 -40 17 -95 85 -73 92 -140 153 -220 204 -49
31 -202 84 -279 96 -47 8 -86 44 -86 82 0 42 59 122 167 226 54 52 105 112
118 138 30 58 97 95 130 71z m919 -129 c-4 -38 -7 -105 -6 -150 2 -48 -2 -91
-8 -103 -21 -39 -71 -52 -178 -44 -74 4 -115 2 -172 -11 -131 -30 -130 -30
-130 -7 0 12 9 46 21 76 28 77 95 134 210 180 48 19 120 55 161 80 40 25 81
45 92 46 17 0 18 -5 10 -67z m1109 -114 c44 -38 47 -44 47 -87 0 -26 -12 -78
-26 -117 -15 -38 -34 -98 -42 -132 -9 -35 -20 -63 -25 -63 -18 0 -93 59 -104
81 -22 47 -22 61 2 137 13 42 29 106 34 141 15 95 40 103 114 40z m-3401 -196
c21 -19 24 -80 5 -103 -7 -9 -49 -37 -95 -63 -45 -26 -151 -94 -235 -150 -113
-76 -169 -108 -215 -121 -35 -9 -66 -24 -69 -33 -3 -8 4 -36 17 -62 20 -41 23
-64 26 -206 2 -88 1 -168 -2 -178 -8 -24 -63 -47 -112 -47 -85 0 -212 -53
-282 -119 l-42 -39 -41 14 c-77 27 -137 76 -168 135 -14 29 -21 75 -29 205 -6
93 -15 187 -20 209 -13 53 -13 151 0 175 6 11 30 33 55 50 25 17 57 52 71 78
56 97 78 103 164 44 58 -39 66 -52 102 -147 30 -78 55 -85 92 -26 31 49 31 49
182 99 198 66 315 130 437 241 57 51 73 61 104 61 20 0 45 -7 55 -17z m2354
-20 c10 -16 39 -62 66 -104 68 -107 65 -138 -15 -165 -70 -23 -132 -67 -162
-115 -14 -21 -29 -39 -35 -39 -5 0 -30 32 -55 71 -36 55 -55 74 -86 87 -40 17
-40 17 -33 57 4 22 8 74 8 115 l1 75 90 0 c71 1 100 5 135 22 59 28 67 28 86
-4z m-2052 -103 c57 -13 87 -39 121 -105 23 -46 39 -63 70 -77 93 -44 112 -57
143 -103 70 -102 24 -213 -111 -270 -53 -22 -99 -19 -170 12 -155 66 -340 4
-411 -139 -22 -44 -26 -65 -26 -137 0 -48 9 -135 20 -195 11 -60 20 -128 20
-151 0 -73 -54 -105 -176 -105 -51 0 -68 5 -107 31 -142 94 -192 264 -185 638
3 174 4 178 30 218 42 63 458 340 573 381 37 13 157 15 209 2z m392 -40 c40
-22 81 -40 91 -40 10 0 35 19 55 42 l37 43 83 -1 c220 -3 420 -117 574 -326
45 -62 56 -98 28 -98 -8 0 -72 51 -140 113 -69 61 -142 122 -162 135 -37 23
-45 24 -140 6 -29 -6 -38 -2 -67 26 -30 30 -38 32 -75 26 -22 -3 -75 -18 -118
-32 -70 -24 -88 -26 -187 -22 -165 8 -215 37 -200 117 11 58 21 64 89 57 42
-4 80 -17 132 -46z m1243 -46 c40 -33 51 -77 51 -203 0 -128 11 -154 110 -265
82 -92 85 -108 45 -221 -45 -127 -31 -209 66 -392 36 -68 59 -124 59 -143 0
-48 -26 -93 -85 -149 -69 -66 -92 -66 -177 -6 -35 25 -100 64 -145 87 -45 23
-85 49 -88 57 -3 8 -8 114 -10 234 -4 148 -10 241 -21 286 -49 212 -48 302 6
508 55 213 110 273 189 207z m-913 -95 c34 -37 52 -42 119 -28 60 12 64 11 96
-11 50 -35 191 -162 295 -267 50 -51 96 -93 101 -93 5 0 15 -12 22 -26 35 -77
-80 -62 -159 21 -42 44 -93 71 -159 86 -28 6 -66 23 -86 39 -78 62 -218 95
-334 79 -96 -14 -140 6 -204 89 -26 33 -47 63 -47 66 0 3 28 6 63 6 41 1 91
11 147 29 104 36 122 37 146 10z m1542 -66 c12 -23 25 -66 28 -95 9 -86 22
-115 54 -127 38 -13 76 8 210 114 178 141 174 138 237 143 50 3 66 -1 114 -26
84 -46 125 -54 205 -42 118 18 184 23 184 14 0 -5 -20 -33 -44 -63 -49 -60
-64 -100 -96 -276 -31 -163 -105 -428 -139 -496 -15 -31 -54 -91 -86 -135
-127 -173 -262 -274 -366 -274 l-48 0 -12 43 c-13 52 -50 102 -89 122 -46 24
-192 55 -281 60 -92 6 -128 24 -150 77 -14 34 -16 22 68 333 20 72 24 107 21
175 -5 92 -19 128 -83 208 -43 54 -51 83 -36 132 27 91 139 163 246 157 36 -2
42 -6 63 -44z m-460 -10 c10 -16 41 -70 67 -121 26 -51 69 -123 96 -159 91
-126 87 -214 -27 -552 -15 -46 -74 103 -74 189 0 26 11 77 25 114 14 38 25 88
25 115 0 42 -6 56 -39 98 -21 26 -53 62 -71 78 -51 48 -70 95 -70 173 0 93 29
120 68 65z m-1013 -177 c109 -29 185 -89 185 -147 0 -54 -31 -63 -230 -69
-172 -6 -176 -7 -235 -37 -33 -17 -103 -63 -155 -102 -52 -40 -118 -83 -147
-97 -88 -43 -171 -45 -193 -3 -15 27 1 45 52 61 50 15 88 54 128 132 47 89 83
122 195 179 181 91 287 114 400 83z m299 -130 c18 -7 43 -26 55 -42 20 -25 22
-36 16 -79 -3 -27 -8 -68 -11 -90 -13 -106 -24 -109 -81 -22 -52 80 -56 94
-48 178 8 76 12 79 69 55z m-1079 -20 c28 -12 65 -36 84 -51 30 -26 33 -33 28
-67 -7 -51 -19 -64 -77 -83 -88 -29 -110 -90 -53 -147 56 -56 162 -47 276 23
26 16 49 29 51 29 1 0 -10 -25 -26 -56 -33 -67 -36 -114 -7 -161 20 -32 20
-35 4 -59 -15 -23 -21 -25 -63 -19 -62 8 -102 -7 -102 -38 0 -29 35 -62 130
-122 89 -56 164 -126 191 -177 24 -47 26 -168 3 -249 -20 -70 -70 -133 -121
-150 -20 -6 -62 -9 -97 -7 -103 9 -178 58 -261 173 -47 64 -219 237 -279 280
-71 51 -76 67 -37 115 60 75 63 115 26 331 -32 183 -32 239 -1 304 62 132 207
189 331 131z m3350 -71 c22 -8 62 -14 88 -15 34 0 49 -5 54 -16 3 -9 -25 -78
-70 -167 -94 -189 -115 -250 -133 -398 -28 -224 -76 -359 -161 -450 -84 -91
-138 -100 -232 -39 -34 22 -90 55 -124 73 -59 30 -68 32 -169 32 -73 0 -108 4
-108 11 0 24 51 61 101 72 109 25 239 127 349 274 99 131 146 239 199 463 27
111 38 133 76 157 36 22 76 23 130 3z m-2449 -67 c92 -48 164 -149 164 -231 0
-28 -41 -67 -71 -67 -10 0 -49 28 -86 62 -38 33 -93 72 -123 86 -30 14 -71 38
-90 53 -44 34 -97 49 -180 49 l-65 0 35 22 c72 44 137 58 255 55 96 -3 116 -6
161 -29z m446 -11 c44 -56 51 -102 56 -353 5 -296 5 -297 -120 -412 -46 -42
-132 -125 -193 -183 -147 -143 -191 -163 -250 -117 -35 28 -32 50 33 205 87
206 103 294 67 386 -24 64 -12 90 58 121 98 43 171 157 184 286 7 71 17 88 56
98 41 11 87 -2 109 -31z m-708 -113 c29 -11 17 -42 -35 -86 -61 -53 -79 -84
-79 -141 0 -55 -18 -80 -58 -79 -62 2 -162 75 -162 120 0 60 80 150 159 178
37 14 148 18 175 8z m-1557 -64 c41 -25 57 -50 81 -127 27 -86 60 -139 126
-201 82 -77 130 -96 233 -89 l83 5 -20 -25 c-42 -53 -26 -86 80 -165 36 -27
46 -41 48 -69 4 -47 -18 -65 -96 -78 -169 -27 -302 -147 -302 -273 0 -52 37
-131 93 -201 47 -57 57 -80 57 -122 0 -68 -50 -128 -116 -141 -42 -8 -123 11
-189 44 -76 37 -139 89 -197 161 -169 210 -249 281 -333 296 -68 12 -80 37
-50 108 19 45 31 129 45 317 21 263 52 380 123 457 49 53 92 80 165 104 75 24
129 24 169 -1z m1731 -60 c40 -28 79 -62 88 -76 16 -23 16 -29 -1 -83 -14 -46
-15 -66 -7 -92 16 -51 19 -119 5 -119 -18 0 -67 76 -75 115 -5 23 -23 59 -40
80 -35 42 -112 95 -140 95 -26 0 -43 37 -29 64 17 30 71 66 102 66 15 0 56
-21 97 -50z m-2298 -1 c96 -76 110 -122 86 -283 -9 -61 -23 -174 -31 -251 -15
-157 -30 -211 -86 -306 -22 -36 -39 -72 -39 -81 0 -28 37 -49 106 -59 76 -12
144 -44 198 -94 39 -36 44 -55 20 -79 -21 -22 -79 -20 -157 4 -95 29 -156 88
-208 199 -22 47 -48 101 -57 120 -22 46 -104 135 -158 172 -65 44 -71 95 -14
119 47 20 107 92 124 150 9 29 25 107 35 174 23 138 42 201 73 233 30 32 49
29 108 -18z m2215 -190 c50 -56 45 -88 -16 -104 -33 -8 -92 20 -133 64 l-30
31 20 27 c40 54 100 47 159 -18z m-225 -49 c5 0 30 -18 55 -40 75 -65 97 -73
180 -65 70 6 72 6 90 -21 9 -15 20 -44 22 -66 5 -35 2 -42 -35 -77 -76 -73
-212 -103 -278 -62 -18 11 -40 32 -50 46 -46 67 -114 130 -211 196 -57 39
-102 73 -100 75 3 3 33 0 68 -6 92 -14 138 -12 184 9 22 11 46 17 53 15 8 -2
17 -4 22 -4z m1784 -146 c118 -30 166 -82 166 -182 0 -77 -25 -141 -100 -256
-97 -151 -113 -196 -113 -324 0 -115 8 -105 -91 -116 -98 -12 -159 -50 -318
-201 -214 -203 -336 -232 -454 -111 -85 87 -131 243 -89 303 9 13 57 44 108
70 113 58 202 139 242 221 34 67 46 194 25 257 -25 76 -89 126 -202 159 -46
13 -59 21 -64 41 -7 30 17 72 49 84 34 13 103 -13 168 -63 104 -81 169 -102
222 -75 12 7 58 47 103 89 120 115 205 141 348 104z m-1476 -241 c2 -13 -8
-53 -23 -89 -23 -57 -25 -70 -15 -100 16 -47 61 -74 123 -74 67 0 97 18 222
139 61 59 130 117 156 129 79 38 194 26 269 -29 34 -26 90 -129 90 -166 0 -65
-62 -148 -140 -188 -75 -37 -152 -51 -373 -65 -184 -11 -229 -22 -273 -67 -19
-18 -39 -33 -47 -33 -7 0 -48 18 -91 40 -104 54 -141 53 -328 -5 -168 -53
-217 -56 -255 -19 -21 21 -25 32 -20 66 3 22 16 51 28 64 19 21 32 24 87 24
84 0 133 15 182 58 50 42 77 94 95 179 18 87 40 109 114 116 32 4 81 15 107
26 61 25 88 23 92 -6z m1924 -108 c156 -63 189 -121 228 -392 30 -210 53 -277
128 -371 18 -23 32 -50 30 -59 -2 -12 -65 -45 -198 -104 -219 -96 -316 -144
-393 -193 -69 -44 -129 -64 -231 -75 -104 -12 -231 0 -308 29 -69 26 -154 99
-179 155 -24 51 -24 119 0 170 24 54 176 196 245 230 30 15 83 30 118 35 110
14 112 16 113 160 0 79 5 106 27 158 37 89 146 248 183 266 49 25 164 21 237
-9z m-2932 -5 c60 -9 68 -13 105 -57 22 -26 69 -77 103 -112 58 -58 63 -67 57
-95 -25 -119 -15 -182 38 -242 62 -72 150 -95 327 -88 94 4 126 2 175 -14 l60
-18 -1 -88 c-1 -78 -4 -93 -35 -153 -41 -82 -93 -124 -187 -154 -78 -24 -195
-29 -232 -9 -14 7 -43 28 -65 47 -52 44 -142 71 -290 87 -66 6 -125 15 -131
19 -6 3 -14 36 -16 72 -7 83 -32 125 -184 308 -171 207 -194 266 -135 359 72
114 227 166 411 138z m1648 -362 c6 -34 -245 -136 -467 -190 -117 -29 -303
-31 -380 -4 -47 16 -73 18 -190 13 -96 -5 -146 -3 -171 6 -39 14 -54 47 -21
47 11 0 84 20 161 45 77 25 156 45 176 45 51 0 101 -24 155 -75 27 -25 51 -45
54 -45 16 0 50 25 82 61 56 62 80 70 237 80 178 10 258 18 293 29 40 12 67 8
71 -12z m-225 -269 c15 -124 99 -254 192 -299 36 -18 90 -27 162 -30 15 0 63
-93 88 -168 10 -32 17 -84 17 -128 0 -98 -30 -162 -113 -239 -71 -65 -155
-110 -331 -175 -89 -33 -146 -62 -189 -94 -33 -25 -65 -46 -69 -46 -5 0 -30
18 -55 40 -25 22 -48 40 -51 40 -26 0 -222 34 -264 46 -158 45 -315 166 -380
293 -27 54 -37 145 -21 194 14 40 69 95 104 101 12 2 48 9 80 14 93 18 172 59
227 118 50 55 71 104 90 203 19 102 48 126 181 146 52 8 137 27 189 44 120 37
131 32 143 -60z m-2180 -2 c115 -83 164 -101 277 -101 81 -1 102 3 145 24 73
36 120 32 162 -14 29 -31 33 -43 33 -89 0 -71 16 -116 43 -121 12 -3 67 -8
122 -11 165 -10 262 -44 328 -113 26 -27 28 -33 18 -68 -5 -22 -13 -66 -17
-99 -6 -54 -12 -65 -59 -116 -28 -31 -60 -74 -70 -95 -10 -22 -32 -52 -49 -67
-119 -108 -298 -107 -471 2 -64 41 -141 76 -230 105 -27 9 -72 27 -99 41 -27
14 -57 25 -66 25 -15 0 -18 13 -22 83 -5 93 -21 130 -145 339 -101 169 -115
241 -58 302 37 40 72 35 158 -27z m2682 -354 c85 -128 211 -220 334 -243 126
-23 310 -8 412 36 55 23 61 23 89 9 34 -18 37 -27 44 -150 7 -114 1 -126 -51
-101 -21 10 -70 21 -109 24 -69 4 -76 3 -200 -51 -193 -82 -227 -91 -329 -92
-78 0 -96 3 -133 25 -45 25 -82 74 -82 106 0 11 7 37 15 59 31 87 13 228 -45
354 -36 76 -36 81 -6 81 17 0 33 -15 61 -57z m-1487 -517 c15 -8 41 -29 57
-46 48 -51 130 -109 211 -147 57 -27 107 -41 212 -58 75 -13 145 -26 154 -30
9 -4 22 -22 29 -42 22 -69 83 -68 158 2 59 55 142 95 199 95 37 0 50 -6 78
-34 29 -29 34 -41 34 -79 0 -29 -7 -53 -19 -69 -33 -42 -135 -88 -274 -123
-142 -36 -154 -40 -237 -78 -129 -59 -134 -60 -145 -40 -31 55 -94 99 -206
142 -181 69 -245 107 -330 191 -59 59 -81 89 -97 133 -27 72 -27 80 0 128 35
62 114 87 176 55z"/>
<path d="M7079 8981 c-63 -63 -23 -161 65 -161 95 0 135 105 64 165 -42 35
-91 34 -129 -4z m97 -29 c31 -21 22 -75 -14 -84 -45 -12 -78 25 -61 70 8 22
51 31 75 14z"/>
<path d="M6721 8832 c-50 -25 -76 -65 -75 -116 2 -100 104 -157 195 -110 45
23 73 91 60 142 -12 43 -42 75 -84 91 -39 15 -57 14 -96 -7z m110 -61 c36 -36
37 -73 4 -106 -44 -45 -125 -27 -139 31 -21 83 74 136 135 75z"/>
<path d="M6973 8581 c-41 -26 -63 -69 -63 -122 0 -35 6 -48 39 -80 35 -35 44
-39 89 -39 43 0 57 5 86 31 63 55 66 137 7 193 -40 39 -112 46 -158 17z m123
-54 c57 -49 20 -137 -58 -137 -78 0 -110 85 -52 138 32 29 76 28 110 -1z"/>
<path d="M1963 3860 c-53 -27 -88 -93 -79 -148 16 -102 129 -157 217 -106 159
93 26 337 -138 254z m132 -65 c36 -35 35 -97 -1 -130 -29 -27 -89 -34 -123
-15 -46 24 -51 125 -8 155 35 24 103 20 132 -10z"/>
<path d="M8813 3630 c-46 -28 -67 -65 -67 -119 0 -143 195 -195 260 -69 65
126 -73 261 -193 188z m116 -45 c16 -8 34 -28 41 -45 24 -57 -26 -120 -95
-120 -38 0 -85 50 -85 90 0 22 9 41 29 61 33 32 67 37 110 14z"/>
<path d="M8325 3588 c-63 -35 -88 -92 -65 -149 19 -45 56 -69 107 -69 38 0 50
5 79 34 26 26 34 42 34 70 0 55 -23 91 -70 110 -47 19 -58 19 -85 4z m79 -59
c44 -35 31 -101 -24 -114 -36 -9 -80 27 -80 65 0 29 38 70 65 70 7 0 24 -9 39
-21z"/>
<path d="M2312 3470 c-71 -44 -79 -144 -16 -200 29 -25 43 -30 85 -30 44 0 55
4 84 33 19 19 36 48 40 69 14 74 -48 148 -125 148 -19 0 -50 -9 -68 -20z m127
-56 c27 -35 26 -66 -2 -100 -17 -20 -33 -27 -57 -27 -24 0 -40 7 -57 27 -28
34 -29 65 -2 100 16 20 29 26 59 26 30 0 43 -6 59 -26z"/>
<path d="M1757 3415 c-135 -47 -154 -229 -32 -300 85 -50 192 -18 235 71 25
50 25 87 1 139 -22 49 -48 73 -98 91 -47 16 -59 16 -106 -1z m104 -50 c94 -49
88 -187 -10 -216 -48 -14 -80 -7 -120 27 -59 49 -48 141 21 184 40 24 69 25
109 5z"/>
<path d="M8533 3251 c-66 -41 -87 -112 -55 -185 26 -57 70 -86 132 -86 141 0
201 161 96 259 -37 35 -127 41 -173 12z m148 -60 c39 -40 40 -89 1 -132 -67
-75 -186 -12 -167 88 13 73 111 99 166 44z"/>
</g>
</svg>
