<?xml version="1.0" standalone="no"?>
<!DOCTYPE svg PUBLIC "-//W3C//DTD SVG 20010904//EN"
 "http://www.w3.org/TR/2001/REC-SVG-20010904/DTD/svg10.dtd">
<svg version="1.0" xmlns="http://www.w3.org/2000/svg"
 width="850.000000pt" height="850.000000pt" viewBox="0 0 850.000000 850.000000"
 preserveAspectRatio="xMidYMid meet">
<metadata>
Created by potrace 1.14, written by Peter Selinger 2001-2017
</metadata>
<g transform="translate(0.000000,850.000000) scale(0.100000,-0.100000)"
fill="#000000" stroke="none">
<path d="M1568 7121 c-1 -5 -41 -11 -88 -13 -64 -4 -99 -11 -142 -31 -31 -15
-61 -27 -66 -27 -12 0 -53 -45 -47 -52 3 -2 -25 -31 -61 -62 -126 -112 -162
-214 -135 -390 30 -192 33 -243 16 -275 -9 -18 -31 -39 -50 -48 -34 -16 -36
-16 -60 7 -27 26 -29 25 -39 -7 -9 -27 31 -73 63 -73 41 0 51 -11 51 -54 0
-39 -13 -66 -32 -66 -14 0 -8 29 8 38 21 12 10 49 -17 57 -42 14 -79 -23 -79
-79 0 -32 40 -88 75 -106 28 -14 30 -17 21 -53 -13 -49 3 -107 48 -184 34 -56
34 -58 13 -61 -29 -4 -47 -29 -47 -65 0 -35 51 -87 86 -87 17 0 28 -10 40 -35
16 -35 50 -65 88 -79 18 -6 18 -8 2 -25 -42 -46 -38 -146 8 -213 l22 -33 -20
-45 c-13 -30 -20 -70 -22 -120 -1 -41 -9 -101 -18 -132 -15 -52 -16 -64 -3
-113 12 -47 12 -57 0 -67 -23 -19 -51 -80 -58 -129 -8 -56 5 -109 41 -160 l26
-38 -17 -73 c-30 -134 -70 -196 -119 -184 -34 8 -48 37 -37 73 22 68 22 83 2
83 -22 0 -84 -66 -76 -81 4 -5 1 -9 -5 -9 -6 0 -22 -11 -35 -25 -20 -19 -25
-34 -25 -77 0 -63 24 -109 72 -138 42 -25 65 -25 124 0 38 17 44 17 34 5 -8
-9 -31 -25 -51 -36 -45 -22 -57 -38 -38 -50 23 -14 57 -10 99 11 25 13 41 16
45 10 7 -12 -43 -285 -81 -436 -13 -55 -27 -113 -30 -130 -8 -46 -33 -129 -53
-178 -57 -132 -245 -246 -382 -231 -70 7 -89 0 -89 -34 0 -20 -7 -29 -30 -38
-16 -6 -33 -19 -36 -28 -8 -19 21 -44 50 -45 19 0 19 -1 -2 -20 -29 -27 -28
-48 3 -62 21 -9 40 -7 113 17 48 16 107 37 131 47 59 25 74 18 25 -12 -76 -48
-102 -98 -63 -123 23 -14 70 7 134 58 60 49 124 93 183 125 37 21 44 22 57 9
8 -8 17 -28 19 -44 11 -96 61 -170 107 -163 31 4 35 39 14 110 -10 33 -18 104
-21 185 -5 158 2 186 103 387 80 159 136 299 191 471 47 150 43 129 77 395 14
113 37 255 52 315 14 61 27 121 30 135 2 13 17 56 32 95 21 51 33 70 47 70 21
0 30 -16 79 -145 48 -124 68 -156 151 -243 38 -40 89 -98 113 -129 23 -31 80
-91 126 -133 100 -90 137 -156 179 -315 90 -342 128 -424 255 -550 237 -235
569 -287 938 -146 132 50 198 86 356 192 116 79 191 124 248 152 3 1 32 -32
65 -75 114 -152 270 -281 449 -370 44 -22 163 -69 265 -103 102 -35 205 -72
229 -82 72 -31 165 -103 219 -170 27 -35 75 -90 107 -123 31 -33 111 -127 178
-210 67 -82 126 -154 132 -160 7 -5 59 -66 116 -134 154 -184 310 -308 559
-446 121 -67 253 -114 323 -115 15 0 27 -4 27 -10 0 -6 30 -10 70 -10 39 0 70
4 70 9 0 4 33 11 73 15 91 8 136 15 162 22 271 77 507 204 655 353 63 64 66
69 94 169 21 77 26 106 17 115 -14 14 -28 0 -35 -36 -11 -62 -91 -129 -218
-183 -68 -28 -95 -35 -122 -30 -45 9 -56 24 -47 66 6 30 3 39 -21 62 -32 30
-30 45 11 73 l30 19 -39 33 c-46 39 -54 60 -40 98 8 21 6 32 -9 53 -46 66 -38
103 27 136 53 27 125 93 117 106 -3 5 -27 6 -54 3 -62 -7 -113 10 -163 55 -51
46 -68 80 -68 137 0 42 -5 51 -51 100 -28 30 -60 57 -70 60 -29 9 -24 17 29
47 69 39 188 143 202 178 8 19 10 49 5 89 -7 59 -6 62 24 92 30 29 35 31 81
25 60 -8 75 9 26 29 -33 14 -57 42 -62 74 -2 7 -14 26 -28 40 -34 35 -35 97
-2 166 27 58 43 74 115 114 l53 28 -23 17 c-13 9 -42 16 -64 17 -60 1 -81 10
-124 52 -34 33 -38 42 -38 86 0 32 7 63 21 87 25 45 98 104 129 104 15 0 29
13 44 39 17 29 34 43 65 54 76 26 142 38 178 31 l35 -7 -24 26 c-31 34 -138
84 -221 104 -50 12 -94 14 -190 9 -371 -19 -498 -74 -745 -328 -130 -133 -192
-215 -385 -508 -200 -304 -218 -321 -361 -360 -59 -16 -99 -19 -185 -17 -98 3
-117 6 -189 37 -152 64 -300 172 -417 301 -40 45 -149 165 -243 266 -189 205
-212 237 -220 303 -4 25 -8 57 -11 71 -9 48 -242 307 -339 376 -27 20 -126
111 -220 204 -111 109 -193 181 -236 206 -78 47 -274 194 -344 259 -58 53
-295 246 -434 353 -53 40 -118 92 -146 116 -48 40 -124 90 -229 150 -47 27
-53 27 -145 22 -60 -4 -128 -15 -180 -31 -86 -26 -164 -33 -190 -17 -18 12
-10 32 52 135 39 65 41 73 41 150 2 174 -5 221 -42 303 -38 82 -40 102 -27
224 10 94 0 116 -90 214 -36 39 -70 86 -76 105 -16 47 -64 116 -95 137 -14 9
-34 33 -44 54 -29 57 -80 65 -80 13 0 -32 -15 -31 -97 7 -101 46 -161 69 -183
69 -11 0 -20 5 -20 10 0 12 -27 13 -32 1z m-93 -71 c-14 -15 -19 -35 -18 -73
l1 -52 -29 64 c-16 35 -26 67 -23 72 3 5 24 9 46 9 41 0 41 0 23 -20z m145 14
c0 -3 -16 -19 -36 -36 -19 -17 -44 -49 -55 -70 -23 -45 -39 -42 -39 8 0 44 14
70 45 86 23 12 85 21 85 12z m105 -34 l20 -8 -20 -7 c-62 -23 -104 -46 -133
-74 -38 -36 -44 -38 -35 -13 14 39 48 75 87 93 45 21 52 21 81 9z m-345 -20
c23 -23 27 -55 6 -47 -8 3 -32 11 -55 18 -58 17 -54 46 7 48 12 1 31 -8 42
-19z m583 -50 c8 0 20 -7 27 -15 11 -13 8 -14 -21 -9 -19 3 -50 10 -69 15 -53
13 -199 -14 -255 -47 -56 -33 -72 -22 -26 17 51 42 120 62 217 61 51 0 86 4
90 10 5 7 10 3 15 -10 5 -12 15 -22 22 -22z m-604 -21 c17 -6 31 -14 31 -19 0
-4 -21 -13 -46 -20 -65 -18 -154 -80 -192 -134 -18 -24 -46 -73 -63 -108 l-31
-63 5 66 c13 186 161 325 296 278z m500 -23 c-25 -7 -58 -22 -74 -34 -32 -25
-44 -27 -80 -10 -32 15 -32 24 3 31 15 4 45 10 67 15 22 6 60 10 85 10 l45 1
-46 -13z m145 -40 c44 -18 58 -40 19 -29 -94 26 -218 -10 -244 -72 -7 -18 -8
-17 -8 6 -1 33 33 77 73 95 41 17 118 18 160 0z m-519 -5 c26 -5 18 -9 -51
-24 -124 -27 -189 -80 -255 -210 -44 -85 -63 -170 -55 -247 7 -77 -5 -128 -40
-169 -35 -42 -83 -56 -128 -37 -20 8 -36 20 -36 27 0 8 6 6 18 -4 23 -21 45
-21 98 -1 53 20 57 34 59 234 1 144 3 159 27 210 40 87 82 135 149 175 84 49
142 62 214 46z m198 -32 c29 -16 37 -28 37 -64 l0 -30 -20 32 c-11 18 -29 38
-40 45 -38 24 -18 38 23 17z m-153 -33 c-77 -17 -106 -35 -173 -105 -88 -92
-136 -220 -119 -313 6 -29 6 -65 0 -90 -5 -24 -13 -77 -17 -118 -8 -80 -10
-79 -37 15 -65 234 13 507 170 587 61 31 84 36 161 36 l70 0 -55 -12z m539
-22 c39 -19 71 -39 71 -44 0 -4 -34 9 -76 31 -41 21 -87 39 -102 39 -32 0
-101 -30 -125 -54 -16 -16 -17 -16 -17 3 0 30 63 60 126 61 39 0 68 -8 123
-36z m-403 -15 c3 -6 -5 -3 -20 6 -14 10 -26 19 -26 22 0 7 39 -17 46 -28z
m388 -19 c74 -35 229 -210 187 -210 -6 0 -11 5 -11 11 0 24 -64 90 -122 125
-49 30 -73 38 -128 42 -42 3 -75 0 -89 -8 -28 -15 -39 -6 -20 16 37 45 119 55
183 24z m-525 -14 c-47 -32 -98 -130 -148 -287 -6 -19 -11 -46 -11 -58 0 -12
-11 -46 -24 -74 -35 -78 -40 -113 -16 -137 11 -11 32 -20 46 -20 19 0 25 -5
22 -17 -4 -25 -40 -28 -67 -6 -18 15 -25 36 -35 113 -21 153 3 294 64 379 26
35 120 109 160 124 37 14 42 5 9 -17z m111 -15 c0 -5 -10 -16 -23 -24 -13 -8
-47 -61 -77 -116 -47 -90 -104 -161 -117 -147 -8 7 26 102 63 183 23 48 44 78
66 92 33 21 88 29 88 12z m163 -10 c33 -14 57 -37 95 -88 28 -37 67 -77 87
-88 69 -37 113 -115 65 -115 -36 0 -24 -38 19 -60 l39 -19 7 -98 c15 -188 -24
-334 -114 -435 -53 -60 -89 -71 -205 -66 -125 5 -203 41 -296 138 -62 63 -115
144 -105 160 2 4 23 12 47 19 137 40 153 47 182 90 35 48 31 56 -40 76 -36 10
-42 13 -22 14 46 2 43 21 -4 21 -54 0 -170 -39 -164 -56 3 -7 -2 -10 -15 -7
-26 7 -24 17 12 47 35 30 52 35 129 38 41 2 55 7 55 18 0 10 -12 16 -40 18
-56 5 -98 -5 -139 -33 -43 -29 -45 -24 -10 22 17 23 55 48 111 74 47 23 101
57 121 77 37 37 85 141 98 212 4 19 14 41 22 48 19 15 12 16 65 -7z m257 -41
c30 -16 69 -43 86 -62 34 -35 84 -127 84 -153 0 -23 -34 -18 -60 9 -12 14 -37
28 -54 32 -39 9 -67 27 -119 79 -56 56 -73 77 -79 103 -11 40 53 37 142 -8z
m-406 -89 c-25 -64 -87 -127 -167 -168 -38 -19 -71 -32 -74 -29 -3 2 10 12 29
21 59 30 96 75 129 157 20 50 42 88 63 105 l31 26 3 -33 c2 -18 -4 -54 -14
-79z m506 -156 c12 -19 25 -35 28 -35 7 0 41 -77 46 -102 2 -7 8 -33 15 -58
17 -57 7 -294 -15 -361 -15 -47 -48 -88 -61 -76 -3 4 6 32 22 62 24 48 28 70
32 168 5 109 4 114 -26 180 -17 38 -31 80 -31 93 0 14 -7 38 -15 54 -13 25
-22 30 -50 30 l-35 0 28 40 c15 21 30 39 34 40 3 0 16 -16 28 -35z m-866 -301
c9 -13 20 -24 24 -25 4 0 20 -3 36 -5 20 -4 36 1 53 18 23 21 25 22 21 3 -8
-45 -100 -60 -135 -22 -26 27 -47 101 -37 130 6 18 9 13 15 -26 4 -27 15 -59
23 -73z m885 49 c22 -55 30 -167 15 -224 -18 -69 -34 -99 -52 -99 -13 0 -14
15 -9 98 4 54 12 113 18 130 6 18 9 52 7 77 -4 51 4 58 21 18z m-569 7 c0 -5
-4 -10 -10 -10 -5 0 -10 5 -10 10 0 6 5 10 10 10 6 0 10 -4 10 -10z m711 -2
c1 -7 0 -65 -1 -128 -2 -132 -19 -202 -63 -255 -32 -39 -48 -41 -23 -3 24 36
58 186 51 219 -11 48 5 179 21 179 8 0 14 -6 15 -12z m-1184 -4 c16 -4 25 -19
35 -57 7 -29 13 -56 13 -62 0 -5 4 -16 8 -23 5 -7 6 -21 2 -32 -3 -10 -1 -29
6 -41 6 -12 -18 7 -55 43 -36 36 -66 70 -66 76 0 20 24 102 30 102 3 0 15 -3
27 -6z m88 -84 c3 -5 1 -10 -4 -10 -6 0 -11 5 -11 10 0 6 2 10 4 10 3 0 8 -4
11 -10z m-280 -20 c-9 -27 2 -58 25 -70 14 -8 25 -4 49 16 34 28 51 25 51 -11
0 -46 -81 -54 -127 -12 -31 28 -32 97 -1 97 5 0 6 -9 3 -20z m403 -43 c7 -5
12 -32 12 -61 1 -28 7 -62 15 -76 26 -46 18 -126 -22 -237 -54 -147 -59 -140
-26 37 19 102 13 201 -16 285 -12 32 -21 62 -21 66 0 9 41 -1 58 -14z m-89
-26 c11 -21 28 -69 37 -106 16 -63 16 -73 -1 -169 -29 -168 -31 -172 -40 -82
-4 43 -5 110 -1 150 5 66 -2 152 -19 219 -10 39 1 33 24 -12z m-118 -41 c44
-24 74 -138 84 -320 4 -63 13 -130 20 -147 17 -41 1 -44 -20 -3 -9 18 -15 56
-15 100 l0 71 -60 64 c-66 71 -70 84 -49 188 13 62 12 61 40 47z m-80 -57
c-24 -86 -13 -124 55 -188 43 -41 64 -90 64 -151 0 -17 13 -58 30 -90 16 -32
27 -60 25 -62 -2 -2 -13 2 -25 8 -26 14 -60 68 -60 96 0 30 -11 36 -31 18 -24
-21 -67 -11 -78 19 -11 29 -6 33 14 13 36 -35 71 -7 62 50 -3 20 -25 66 -49
102 -38 58 -43 73 -43 122 0 37 6 65 18 84 24 36 31 28 18 -21z m168 -41 c-1
-33 -2 -34 -9 -12 -12 36 -12 62 0 55 6 -3 10 -23 9 -43z m213 -77 c-1 -69
-31 -180 -78 -290 l-13 -30 -1 36 c0 20 19 92 41 159 36 106 41 131 36 179 -5
43 -3 52 5 37 6 -10 10 -52 10 -91z m671 33 c31 -68 70 -114 116 -137 72 -36
101 -34 301 19 137 36 228 20 336 -58 201 -145 431 -325 588 -460 248 -215
339 -288 427 -343 115 -71 227 -166 328 -279 41 -45 115 -113 165 -151 50 -38
104 -86 119 -106 42 -57 163 -266 197 -339 29 -64 29 -65 8 -62 -14 2 -33 23
-54 58 -18 30 -69 93 -114 140 -64 67 -83 81 -90 70 -19 -30 -11 -77 20 -115
29 -37 40 -75 21 -75 -5 0 -30 23 -54 51 -33 38 -56 81 -87 159 -22 59 -49
115 -59 124 -10 9 -101 58 -202 109 -220 110 -316 173 -477 312 -67 57 -131
109 -143 115 -11 7 -131 93 -266 193 -134 100 -263 194 -286 208 -56 36 -97
44 -122 24 -20 -15 -20 -15 0 -21 19 -5 71 -101 61 -112 -3 -2 -42 -8 -87 -13
-130 -15 -185 -45 -312 -168 l-108 -106 -142 -5 c-130 -5 -147 -8 -200 -34
-32 -15 -85 -53 -118 -83 l-60 -56 -32 29 c-17 16 -34 30 -36 31 -2 1 4 14 13
29 17 25 17 26 0 22 -46 -8 -137 -243 -183 -468 -6 -30 -16 -111 -21 -179 -12
-144 -49 -337 -90 -467 -39 -122 -138 -370 -199 -497 -96 -197 -110 -307 -65
-499 18 -82 22 -114 14 -122 -20 -20 -57 37 -76 119 -29 123 -61 124 -216 7
-156 -119 -161 -122 -185 -122 -13 0 -23 3 -23 8 1 4 41 41 90 82 90 75 98 84
81 94 -8 5 -124 -35 -243 -84 -47 -20 -108 -27 -108 -12 0 4 19 14 43 23 23 9
80 31 127 49 79 31 130 60 103 60 -7 0 -47 -14 -90 -31 -83 -32 -178 -47 -203
-30 -22 15 -13 18 77 31 92 12 162 33 146 43 -5 3 -37 2 -71 -3 -44 -8 -68 -7
-89 2 -25 11 -18 13 72 18 82 4 110 10 155 32 64 32 172 121 205 170 28 40
116 415 160 683 9 55 18 111 21 124 3 12 32 50 64 84 74 75 94 128 88 230 -4
63 -2 76 18 102 27 36 48 109 40 140 -4 17 3 28 37 52 24 16 52 48 62 69 26
54 32 144 12 184 -16 30 -15 33 10 72 40 60 44 149 9 200 -22 33 -24 42 -14
69 15 44 3 109 -36 194 l-34 74 31 20 c18 10 61 29 97 41 78 27 138 60 171 96
21 22 24 35 22 87 -1 38 -10 81 -22 110 -12 27 -21 51 -21 53 0 2 35 4 78 4
53 0 90 6 117 19 38 17 145 122 145 142 0 25 21 3 43 -43z m-610 -105 c-12
-87 -38 -162 -84 -241 -50 -87 -48 -57 6 83 24 61 48 149 60 219 5 28 9 36 17
28 9 -9 9 -33 1 -89z m70 21 c-1 -17 6 -37 18 -50 41 -44 -10 -161 -131 -294
-62 -68 -64 -55 -6 32 35 52 46 80 54 134 18 113 45 215 56 211 6 -2 10 -17 9
-33z m94 -26 c5 -7 9 -44 9 -83 -1 -69 -2 -71 -57 -145 -31 -41 -71 -83 -89
-94 -37 -21 -37 -20 34 77 54 75 76 136 76 209 0 48 9 59 27 36z m-590 -120
c-3 -7 -5 -2 -5 12 0 14 2 19 5 13 2 -7 2 -19 0 -25z m661 -46 c4 -51 1 -62
-19 -85 -22 -24 -99 -63 -99 -50 0 3 19 35 41 71 23 36 44 83 47 104 7 56 25
32 30 -40z m-397 -188 c8 -4 10 -172 3 -196 -4 -13 -16 -18 -39 -18 -40 0 -71
33 -81 86 -8 45 0 76 32 113 21 25 31 30 52 25 15 -4 30 -8 33 -10z m107 -132
c2 -11 10 -26 18 -32 8 -7 14 -22 14 -33 0 -11 7 -28 16 -38 14 -15 14 -23 4
-56 -14 -42 -37 -73 -55 -73 -6 0 -23 6 -38 13 -39 18 -50 60 -33 125 8 30 12
61 9 69 -4 10 3 23 18 34 29 22 43 20 47 -9z m1494 -27 c54 -43 256 -190 401
-292 98 -69 182 -135 294 -235 147 -131 380 -272 555 -338 95 -35 92 -46 -14
-53 -51 -3 -185 -24 -298 -47 -343 -69 -405 -70 -535 -6 -201 99 -324 296
-362 576 -18 140 -54 259 -105 356 -21 40 -38 75 -38 78 0 20 53 -1 102 -39z
m-52 -137 c31 -69 73 -262 66 -301 -9 -50 -80 -125 -142 -153 -29 -13 -103
-40 -166 -60 -145 -47 -166 -58 -267 -142 -111 -93 -170 -122 -244 -122 -32 0
-70 6 -85 14 -62 32 -190 198 -214 277 -15 51 1 88 61 141 86 77 190 108 361
108 102 0 130 14 188 92 93 126 208 185 365 187 l58 1 19 -42z m-1500 -90 c65
-49 78 -68 44 -68 -9 0 -35 -16 -58 -34 -37 -31 -44 -34 -65 -23 -31 16 -59
55 -67 92 -7 36 26 85 57 85 11 0 51 -23 89 -52z m141 -124 c-5 -19 -22 -51
-36 -70 -25 -32 -30 -35 -76 -33 -65 3 -65 26 0 76 27 21 55 48 62 60 14 26
41 34 52 16 4 -7 4 -29 -2 -49z m-260 -36 c9 -18 22 -53 29 -78 15 -56 30 -90
50 -114 14 -18 14 -19 -5 -11 -11 4 -29 7 -39 7 -53 -2 -86 52 -86 143 0 55
14 100 28 91 4 -2 14 -19 23 -38z m1712 -167 c12 -96 115 -261 233 -376 36
-35 115 -79 179 -100 19 -6 19 -7 -4 -26 -14 -12 -39 -19 -63 -19 -27 0 -38
-4 -36 -12 7 -19 61 -21 103 -4 51 22 53 20 20 -14 -35 -37 -80 -48 -104 -26
-17 16 -19 14 -25 -25 -10 -61 -52 -99 -110 -99 -47 0 -55 -7 -34 -28 15 -15
57 -16 92 -2 23 8 26 7 26 -13 -1 -29 -18 -50 -57 -70 -42 -22 -41 -22 -49 18
-7 38 -24 48 -24 14 0 -36 -31 -89 -61 -104 -15 -8 -49 -15 -74 -15 l-46 0 6
-34 c5 -23 1 -48 -13 -78 -18 -42 -30 -51 -94 -72 -11 -3 -15 -11 -12 -21 4
-9 -1 -36 -10 -60 -29 -74 -99 -102 -178 -70 -13 5 -18 2 -18 -9 0 -21 -30
-96 -39 -96 -20 0 -87 187 -150 415 -39 139 -81 213 -186 325 -52 56 -112 123
-134 149 l-41 48 63 5 c85 7 136 33 257 129 97 78 110 85 229 125 179 60 210
75 271 132 30 28 60 51 66 52 6 0 14 -17 17 -39z m-1495 2 c25 -35 6 -119 -38
-163 l-21 -21 -19 24 c-11 13 -34 27 -52 31 l-33 6 36 33 c26 24 38 45 43 76
6 43 7 43 39 37 18 -3 38 -14 45 -23z m-185 -184 c67 -89 79 -129 48 -155 -12
-10 -21 -25 -22 -34 0 -9 -4 -7 -9 7 -6 15 -15 20 -28 16 -25 -6 -100 59 -119
104 -7 18 -13 56 -13 86 0 51 2 55 38 78 l37 24 6 -25 c3 -15 31 -60 62 -101z
m6357 -215 c45 -8 93 -20 108 -26 l27 -11 -30 -8 c-16 -4 -57 -15 -89 -23 -36
-9 -71 -26 -90 -44 -20 -18 -63 -39 -119 -57 -112 -35 -211 -95 -367 -220
-154 -124 -314 -282 -450 -445 -238 -285 -415 -424 -605 -476 -27 -8 -64 -14
-82 -14 -31 0 -32 1 -21 30 6 17 8 44 5 59 -6 27 -4 29 76 55 97 33 145 64
187 120 17 22 109 159 204 303 241 365 312 449 498 589 141 106 239 149 398
177 63 11 274 6 350 -9z m-3374 -20 c4 -15 1 -39 -8 -56 l-14 -31 -25 52 c-14
28 -24 53 -21 56 3 3 18 5 33 5 22 0 30 -6 35 -26z m-166 -8 c0 -14 -11 -37
-24 -53 -22 -26 -23 -31 -10 -53 23 -42 16 -79 -28 -156 -53 -93 -65 -99 -64
-29 0 31 -5 60 -13 69 -8 9 -12 18 -10 19 2 2 19 13 36 26 40 27 57 80 42 133
-5 21 -15 40 -21 44 -16 10 17 22 60 23 27 1 32 -2 32 -23z m-2842 -18 c5 -18
8 -62 5 -97 -4 -73 -44 -159 -95 -207 l-30 -29 16 32 c18 36 12 63 -14 63 -10
0 -41 -16 -70 -35 -60 -40 -87 -43 -124 -14 -35 28 -33 43 4 24 38 -20 86 -19
94 1 10 26 7 32 -21 39 -33 8 -63 33 -63 51 0 10 9 8 33 -6 25 -15 47 -19 85
-16 61 4 74 13 102 71 12 24 26 45 31 47 5 2 11 15 13 29 1 13 6 30 10 37 4 7
5 19 2 27 -3 8 -1 15 4 15 5 0 13 -15 18 -32z m2926 10 c9 -12 16 -42 16 -65
0 -35 -6 -48 -35 -77 -28 -29 -35 -43 -35 -75 0 -42 -38 -101 -66 -101 -17 0
-5 35 31 88 29 42 32 80 9 124 -15 28 -14 31 5 52 11 11 24 33 30 49 13 33 25
34 45 5z m-206 -18 c20 -38 10 -120 -18 -142 -12 -10 -25 -18 -29 -18 -4 0
-18 22 -30 49 l-23 48 21 47 c17 39 25 47 43 44 12 -2 28 -14 36 -28z m-178
-38 c0 -27 -31 -72 -50 -72 -8 0 -23 54 -22 77 1 8 34 20 60 22 7 1 12 -11 12
-27z m866 -79 c25 -57 14 -60 -16 -4 -17 30 -38 64 -48 75 -9 12 -2 8 17 -9
18 -16 40 -44 47 -62z m-1078 49 c17 -23 15 -87 -5 -125 l-17 -32 -6 41 c-7
48 -30 87 -65 110 -14 9 -25 20 -25 24 0 14 105 -2 118 -18z m744 -24 c11 -36
10 -42 -7 -54 -27 -20 -34 -18 -52 21 -16 34 -16 36 7 60 28 30 36 26 52 -27z
m-644 30 c27 -27 7 -101 -36 -134 -12 -9 -12 -15 2 -42 17 -34 21 -87 7 -96
-5 -3 -14 8 -21 24 -20 49 -30 45 -23 -9 5 -48 4 -52 -30 -86 -28 -28 -43 -36
-64 -33 -25 3 -29 9 -37 51 -9 45 -8 49 20 78 16 17 45 39 65 49 60 31 84 117
54 193 -6 14 -2 17 22 17 16 0 34 -5 41 -12z m820 -62 c29 -30 52 -56 52 -59
0 -9 -30 -16 -45 -11 -13 5 -75 102 -75 118 0 16 21 1 68 -48z m-1001 4 c17
-21 16 -95 -2 -130 -21 -40 -53 -60 -97 -60 -21 0 -38 2 -38 5 0 2 9 19 20 37
11 18 20 50 20 71 0 39 11 69 38 99 16 19 31 13 59 -22z m349 5 c9 -35 -3 -73
-31 -101 -37 -37 -55 -32 -55 18 0 34 6 49 32 75 38 40 46 41 54 8z m386 -9
c6 -33 -14 -78 -46 -103 -23 -18 -24 -24 -16 -54 6 -19 8 -46 4 -61 -7 -35
-67 -88 -99 -88 -21 0 -25 5 -25 28 0 48 12 71 46 92 37 24 58 74 48 115 -6
24 -1 32 32 61 47 40 50 41 56 10z m3216 -33 c-38 -75 -59 -129 -69 -180 l-13
-63 33 -34 c31 -32 70 -56 116 -71 17 -6 15 -9 -15 -20 -19 -8 -44 -14 -56
-14 -11 -1 -56 -19 -100 -41 -76 -39 -161 -101 -498 -370 -185 -147 -353 -266
-451 -320 -100 -54 -441 -170 -501 -170 -24 0 -34 23 -34 81 l0 36 66 7 c234
24 406 148 788 569 248 274 345 363 528 490 100 69 220 127 206 100z m-4098
-35 c0 -21 -9 -41 -27 -60 -47 -49 -71 -33 -51 34 13 48 23 58 56 58 18 0 22
-5 22 -32z m370 -23 c0 -51 -4 -54 -31 -22 -23 28 -23 36 -1 53 27 21 32 17
32 -31z m668 23 c7 -7 12 -32 12 -56 0 -37 -6 -50 -35 -79 -29 -29 -35 -42
-35 -79 0 -58 -17 -91 -53 -104 -16 -5 -33 -10 -36 -10 -3 0 -6 32 -6 70 0 52
3 70 14 70 7 0 29 16 48 35 32 32 35 39 31 82 -3 27 -8 56 -12 66 -7 14 -3 17
26 17 19 0 39 -5 46 -12z m-97 -35 c12 -32 -1 -76 -33 -110 -29 -31 -44 -29
-57 8 -16 47 -14 67 9 74 11 4 28 17 36 31 21 31 32 30 45 -3z m-375 -9 c10
-40 -19 -92 -62 -110 -42 -18 -50 -13 -59 39 -7 35 -6 37 20 37 16 0 36 11 53
29 34 36 40 37 48 5z m683 -26 c14 -40 5 -49 -51 -55 -33 -4 -49 -1 -68 15
-21 17 -23 23 -13 45 10 22 18 25 66 26 53 0 56 -1 66 -31z m-853 -42 c11 -45
-36 -106 -82 -106 -15 0 -13 5 10 28 14 16 31 45 37 65 11 42 26 48 35 13z
m752 -45 c24 -29 15 -80 -22 -117 -47 -47 -62 -44 -81 18 -21 72 -19 79 23
110 38 27 49 26 80 -11z m-1107 12 c45 -16 49 -20 49 -50 0 -36 -42 -90 -73
-95 -16 -3 -19 5 -20 49 -2 36 -9 61 -25 82 l-23 31 22 0 c12 0 43 -8 70 -17z
m1301 1 c31 -16 31 -17 12 -31 -19 -14 -106 -14 -121 0 -9 9 39 46 60 47 10 0
32 -7 49 -16z m-662 -9 c0 -25 -27 -72 -45 -79 -30 -11 -35 -6 -35 29 0 27 6
37 28 49 35 20 52 20 52 1z m-740 -24 c22 -43 0 -144 -35 -157 -21 -9 -21 -8
-29 62 -6 52 -4 64 14 87 25 32 36 34 50 8z m1280 -9 c34 -28 40 -117 10 -154
-13 -17 -31 -28 -46 -28 -21 0 -24 -4 -24 -41 0 -22 -5 -49 -10 -60 -23 -42
-107 -63 -145 -35 -18 13 -18 14 2 20 32 10 66 53 72 93 5 31 11 38 39 45 49
13 75 59 68 126 -5 57 0 62 34 34z m-660 -25 c0 -21 -8 -41 -20 -52 -25 -23
-31 -17 -37 40 -6 45 -6 45 26 45 29 0 31 -3 31 -33z m907 -63 c-10 -11 -67
17 -78 38 -6 11 -8 27 -4 36 5 13 14 8 47 -26 23 -23 39 -44 35 -48z m-1017
37 c0 -32 -6 -44 -35 -70 -55 -48 -95 -37 -95 26 0 30 3 33 29 33 18 0 42 10
58 25 38 33 43 31 43 -14z m400 -7 c0 -49 -15 -73 -57 -90 -32 -14 -37 -14
-54 2 -35 32 -24 57 32 77 27 10 53 25 56 33 10 26 23 14 23 -22z m510 -43
c-9 -35 -40 -71 -60 -71 -4 0 -6 29 -6 65 1 64 1 64 31 67 39 4 48 -13 35 -61z
m-1530 13 c0 -54 -14 -84 -40 -84 -15 0 -20 10 -25 54 -8 65 -3 76 36 76 28 0
29 -2 29 -46z m450 -14 c0 -17 -11 -40 -31 -61 -34 -36 -41 -33 -53 26 -6 27
-2 32 31 52 44 25 53 22 53 -17z m406 -22 c-4 -29 -11 -80 -15 -113 -8 -63
-18 -95 -30 -95 -4 0 -18 11 -30 24 l-22 23 25 38 c27 39 33 83 16 115 -8 15
-4 22 18 39 40 30 45 26 38 -31z m-528 2 c39 -75 -37 -183 -110 -155 -9 4 -13
23 -11 62 1 54 4 60 40 90 43 38 62 38 81 3z m-412 -4 c7 -30 -21 -92 -51
-112 -27 -18 -95 -30 -95 -18 0 5 7 29 15 53 9 24 13 51 10 61 -4 13 3 19 37
27 68 16 77 15 84 -11z m862 -9 c19 -39 8 -88 -26 -122 l-27 -27 -5 44 c-3 25
-14 57 -24 72 -9 15 -16 29 -14 30 58 43 77 44 96 3z m882 3 c27 0 44 -9 82
-47 26 -26 48 -50 48 -53 0 -18 -63 5 -78 29 -9 14 -17 28 -19 30 -1 2 -23 -2
-47 -9 -50 -14 -96 -7 -96 15 0 7 4 25 10 39 9 24 11 25 37 11 15 -8 44 -15
63 -15z m-440 1 c17 -32 12 -59 -17 -91 -56 -62 -143 -44 -143 30 0 29 2 30
43 30 33 0 49 6 67 25 28 30 36 31 50 6z m-1054 -26 c15 -61 -29 -123 -92
-132 -37 -5 -42 -3 -47 18 -15 56 -9 67 56 102 77 43 75 42 83 12z m500 -30
c12 -19 15 -41 12 -85 -4 -56 -3 -59 13 -44 37 33 83 -17 81 -87 -1 -53 -25
-67 -37 -21 -13 53 -42 72 -111 72 l-63 0 19 43 c24 51 25 77 5 103 -19 25
-19 32 3 37 41 11 62 6 78 -18z m-141 -12 c32 -36 33 -90 3 -128 l-22 -28 32
-26 c53 -45 64 -110 25 -153 -21 -24 -33 -23 -33 4 0 12 -17 37 -38 57 l-38
37 18 29 c28 46 23 95 -13 145 l-32 44 29 23 c37 29 40 29 69 -4z m495 -7 c0
-42 -34 -88 -64 -84 -11 2 -22 10 -24 18 -3 16 63 100 79 100 5 0 9 -15 9 -34z
m-90 14 c0 -13 -38 -32 -51 -25 -14 10 9 35 32 35 11 0 19 -4 19 -10z m3390 0
c0 -19 -43 -126 -61 -152 -24 -33 -24 -73 -1 -90 24 -17 60 -80 54 -96 -2 -6
-14 -12 -26 -12 -38 0 -137 -56 -225 -127 -308 -250 -512 -354 -811 -414 -123
-24 -298 -35 -396 -24 l-69 8 65 18 c160 46 211 64 297 104 147 69 296 175
573 405 210 175 369 287 491 345 101 47 109 50 109 35z m-4344 -35 c24 -36 14
-110 -19 -143 l-25 -25 -26 52 c-28 54 -28 56 12 109 29 39 37 40 58 7z m1578
1 c10 -37 6 -76 -9 -106 -22 -43 -35 -37 -35 14 0 80 -23 105 -35 37 -11 -65
-68 -108 -127 -96 -33 8 -33 6 -8 55 11 22 20 50 20 64 0 36 37 52 119 52 62
1 70 -1 75 -20z m140 8 c3 -9 6 -34 6 -56 0 -30 -7 -46 -29 -69 -16 -16 -40
-29 -53 -29 -22 0 -23 3 -22 72 l1 72 34 12 c46 17 56 17 63 -2z m-1290 -43
c24 -26 32 -96 16 -126 -16 -29 -30 -23 -30 12 0 15 -13 38 -35 60 -34 34 -35
37 -19 54 22 24 46 24 68 0z m499 -37 c6 -21 4 -41 -7 -67 -18 -44 -30 -46
-53 -11 -16 25 -16 28 8 70 27 49 40 51 52 8z m-1147 -44 c-7 -46 -54 -91
-103 -99 -38 -7 -38 -7 -35 -49 5 -61 -14 -110 -52 -133 -40 -24 -67 -24 -100
2 -43 34 -47 51 -27 105 18 47 20 49 55 46 51 -5 101 14 131 50 21 25 26 40
24 77 l-3 45 44 12 c56 14 74 -2 66 -56z m1309 20 c-7 -22 -32 -50 -45 -50 -5
0 -12 9 -15 21 -9 29 44 88 58 64 4 -8 5 -24 2 -35z m785 25 l24 -26 -27 -27
c-20 -20 -37 -27 -67 -27 -52 0 -62 12 -54 63 l7 42 47 0 c37 0 51 -5 70 -25z
m-1977 -26 c23 -29 23 -106 -2 -138 -10 -14 -23 -21 -30 -17 -25 16 -51 86
-51 137 l0 52 33 -7 c17 -3 40 -16 50 -27z m1274 4 c7 -17 -13 -33 -39 -33
-13 0 -18 8 -18 29 0 25 3 28 26 23 14 -2 28 -11 31 -19z m-920 -34 c15 -29
16 -69 3 -103 l-10 -26 -49 27 c-33 19 -52 37 -60 58 -17 47 -14 53 27 74 42
22 67 14 89 -30z m96 13 c25 -22 21 -32 -11 -32 -21 0 -32 7 -40 24 -6 13 -8
26 -5 29 7 8 34 -3 56 -21z m-264 -38 c15 -33 14 -96 -2 -118 -12 -16 -15 -15
-51 13 -21 17 -49 31 -62 31 -35 0 -29 12 17 38 22 13 45 34 51 47 12 28 31
24 47 -11z m907 12 c8 -32 -2 -46 -31 -46 -25 0 -25 0 -8 35 20 41 30 44 39
11z m994 -65 c0 -13 -30 -14 -63 -2 -33 13 -44 47 -22 71 16 18 18 17 51 -20
19 -20 34 -43 34 -49z m-660 35 c0 -28 -39 -72 -76 -86 -17 -7 -38 -7 -60 -1
l-34 9 0 -36 -1 -37 -30 35 -29 35 26 7 c32 8 62 34 80 70 13 25 20 28 69 28
51 0 55 -2 55 -24z m430 -43 c0 -49 -24 -89 -61 -102 -43 -15 -42 -16 -36 29
6 46 -1 82 -14 74 -5 -3 -9 -17 -9 -30 0 -39 -51 -84 -93 -84 l-35 0 14 47 c8
25 14 58 14 74 0 33 18 41 79 33 31 -4 58 -1 81 9 31 13 36 13 48 -1 6 -9 12
-31 12 -49z m-1057 37 c33 -26 42 -71 27 -126 -7 -24 -15 -44 -17 -44 -3 0
-17 7 -32 16 -26 15 -27 19 -26 95 0 86 5 92 48 59z m-338 -2 c72 -33 73 -171
2 -197 -13 -5 -38 -3 -63 6 -56 19 -66 60 -29 109 14 18 25 35 25 38 0 16 21
56 29 56 6 0 22 -5 36 -12z m500 -12 c27 -41 -13 -89 -44 -53 -8 10 -7 22 1
45 15 38 22 40 43 8z m276 4 c-13 -11 -35 -20 -50 -20 l-26 1 24 19 c13 11 35
20 50 20 l26 -1 -24 -19z m743 -2 c37 -53 -1 -138 -61 -138 -46 0 -55 11 -42
49 6 18 9 47 6 66 -5 33 -4 34 31 38 20 2 40 4 44 5 4 1 14 -8 22 -20z m-449
-12 c11 0 32 4 48 8 26 8 27 7 27 -29 0 -27 -8 -44 -31 -67 -29 -29 -33 -30
-88 -25 l-59 6 -6 -37 c-7 -46 -31 -82 -56 -82 -22 0 -80 67 -80 92 0 15 9 18
51 18 45 0 55 4 85 34 24 24 34 43 34 65 0 29 2 31 28 24 15 -4 36 -7 47 -7z
m-1612 -22 c12 -62 -42 -144 -95 -144 -31 0 -44 18 -49 69 -3 29 -1 35 19 38
30 4 75 28 91 47 19 23 28 20 34 -10z m381 -66 c11 -44 1 -100 -23 -130 -17
-20 -21 -21 -44 -9 -37 20 -53 63 -37 100 6 16 20 37 31 47 10 9 19 26 19 37
0 18 2 18 23 5 12 -9 26 -31 31 -50z m1824 40 c32 -32 -8 -104 -63 -113 -50
-9 -60 5 -45 62 7 26 15 51 17 56 7 12 78 8 91 -5z m-2020 -12 c35 -19 62 -66
62 -108 0 -46 -40 -95 -85 -104 -30 -5 -30 -5 -30 34 0 23 -12 60 -28 93 l-29
54 27 22 c29 26 50 28 83 9z m806 -15 c6 -9 -44 -35 -52 -27 -7 8 19 36 34 36
7 0 15 -4 18 -9z m-315 -27 c22 -28 29 -84 10 -84 -5 0 -25 12 -43 26 -33 27
-33 27 -17 55 20 35 24 36 50 3z m1590 -46 c-17 -11 -33 -17 -35 -15 -2 2 1
20 7 41 l11 38 24 -23 24 -22 -31 -19z m-2188 0 c35 -57 9 -143 -51 -168 -47
-19 -61 -10 -80 53 l-18 58 26 10 c33 13 72 48 72 66 0 25 30 13 51 -19z
m1867 10 c20 -20 14 -74 -11 -104 -23 -26 -76 -38 -93 -21 -3 3 -6 30 -7 59 0
52 1 53 34 65 44 15 62 16 77 1z m-1107 -24 c19 -23 0 -34 -62 -34 -62 0 -71
7 -41 32 32 28 80 29 103 2z m837 14 c24 -24 14 -68 -23 -105 -33 -33 -39 -35
-84 -31 -42 4 -48 3 -43 -11 3 -11 -3 -9 -20 7 l-25 23 28 30 c15 16 30 43 34
59 6 26 9 28 40 23 18 -3 41 0 51 6 24 13 28 13 42 -1z m138 -13 c3 -8 1 -30
-6 -50 -12 -36 -51 -65 -88 -65 -18 0 -18 3 -8 51 11 46 16 53 46 64 47 17 50
17 56 0z m527 1 c25 -19 21 -27 -8 -14 -14 6 -25 15 -25 20 0 12 12 9 33 -6z
m-249 -28 c21 -59 -44 -128 -101 -107 -22 8 -22 9 -8 50 9 23 13 50 10 60 -5
13 1 19 22 22 52 8 67 3 77 -25z m-2215 2 c27 -14 44 -64 37 -105 -4 -19 -11
-35 -17 -35 -5 0 -41 16 -80 36 l-71 35 41 21 c23 11 46 29 52 39 11 22 14 22
38 9z m2435 -12 c32 -45 12 -119 -34 -131 -27 -7 -33 6 -18 37 8 20 9 35 0 63
-6 20 -9 40 -6 45 10 16 43 8 58 -14z m2118 -1 c-27 -29 -27 -32 -2 -64 33
-43 26 -71 -32 -128 -88 -84 -285 -193 -452 -250 -39 -13 -111 -37 -160 -54
-114 -39 -213 -57 -403 -72 -118 -9 -170 -9 -230 0 -81 12 -233 59 -233 71 0
4 28 1 63 -7 117 -26 297 -28 436 -4 306 52 572 177 811 382 123 105 266 194
202 126z m-3816 3 c18 0 54 -40 54 -59 0 -17 -29 -35 -69 -43 -14 -3 -54 95
-43 107 4 3 16 4 27 1 11 -3 25 -6 31 -6z m1620 -14 c13 -54 -28 -106 -84
-106 l-35 0 7 57 c8 64 15 73 68 73 32 0 39 -4 44 -24z m-1730 -20 c44 -44 47
-91 8 -107 -24 -9 -31 -6 -59 25 -17 19 -44 38 -58 41 -33 9 -33 12 0 47 36
37 67 36 109 -6z m1928 10 c44 -18 51 -32 32 -61 -13 -19 -25 -25 -55 -25 -38
0 -38 1 -44 42 -8 63 3 71 67 44z m-2128 -63 c7 -39 -11 -89 -37 -103 -10 -6
-38 -10 -62 -10 -42 0 -45 2 -51 31 -10 51 -8 58 27 73 18 7 44 27 58 44 22
27 26 28 41 14 10 -8 20 -30 24 -49z m430 42 c-10 -8 -23 -12 -29 -8 -11 7 12
23 33 23 12 -1 11 -4 -4 -15z m1805 -35 c26 -14 24 -27 -5 -34 -38 -9 -58 2
-43 25 14 22 21 23 48 9z m-2158 -21 c25 -14 57 -51 51 -60 -5 -8 -95 -31
-101 -26 -5 5 17 97 24 97 2 0 14 -5 26 -11z m1461 -5 c11 -30 6 -72 -12 -95
-19 -23 -53 -28 -104 -16 -24 6 -26 10 -21 45 7 46 11 50 59 67 52 19 71 18
78 -1z m142 -19 c34 -52 -14 -129 -77 -123 -32 3 -34 5 -32 37 3 63 13 100 31
104 41 11 62 6 78 -18z m-1863 -12 c10 -54 -10 -64 -88 -42 l-40 12 40 14 c22
7 47 20 55 28 20 21 27 19 33 -12z m1560 20 c2 -5 0 -23 -5 -41 -7 -28 -12
-32 -31 -26 -36 10 -70 35 -61 44 5 5 25 13 44 18 46 13 48 13 53 5z m435 -62
c4 -38 -43 -91 -80 -91 -22 0 -24 -4 -20 -30 4 -28 2 -30 -31 -30 -36 0 -64
21 -52 40 3 5 12 10 19 10 7 0 25 11 40 25 21 19 26 33 26 69 0 39 3 45 28 54
37 13 66 -6 70 -47z m494 34 c-5 -28 -37 -55 -64 -55 -17 0 -37 42 -22 47 5 2
20 10 34 17 41 23 58 20 52 -9z m-238 -1 c17 -44 -11 -106 -53 -117 -28 -7
-37 4 -44 50 -5 41 -4 43 31 61 47 25 58 26 66 6z m104 4 c21 -21 14 -73 -13
-102 -27 -30 -61 -31 -59 -3 0 9 1 35 2 57 2 32 7 43 25 50 30 12 31 12 45 -2z
m221 -3 c22 -7 22 -8 7 -17 -12 -7 -24 -5 -42 6 -13 9 -24 19 -24 22 0 5 6 4
59 -11z m-459 -61 c0 -41 -29 -74 -65 -74 -32 0 -37 13 -27 70 7 39 11 46 37
51 39 7 55 -6 55 -47z m678 4 c3 -29 -2 -43 -22 -63 -31 -31 -56 -33 -56 -4 0
12 -7 37 -17 56 -20 43 -8 55 52 51 38 -3 40 -4 43 -40z m-231 -25 c19 -57
-16 -113 -72 -113 -31 0 -35 3 -36 28 0 15 -2 37 -5 49 -2 15 7 30 32 52 40
36 65 31 81 -16z m105 30 c27 -24 24 -78 -7 -108 -48 -49 -75 -24 -75 68 0 49
46 72 82 40z m-252 -81 c0 -49 -34 -85 -76 -80 -23 2 -30 9 -32 31 -2 19 1 27
12 27 9 0 30 13 48 30 18 16 36 30 41 30 4 0 7 -17 7 -38z m-672 12 c36 -25
25 -33 -23 -15 -34 12 -41 17 -27 23 25 10 25 10 50 -8z m282 -76 c0 -16 -6
-31 -14 -34 -21 -8 -86 23 -86 40 0 9 -1 19 -2 24 -2 4 13 12 32 18 43 15 70
-4 70 -48z m238 24 c4 -39 -34 -82 -74 -82 -22 0 -25 3 -20 23 3 12 6 34 6 48
0 21 7 28 33 36 44 15 52 11 55 -25z m-120 -10 c2 -21 -3 -37 -17 -51 -26 -26
-61 -28 -61 -3 0 9 -3 26 -6 37 -4 16 2 25 28 37 43 22 52 18 56 -20z m576 -8
c39 -39 7 -132 -52 -149 -20 -6 -22 -4 -17 17 4 13 0 43 -8 66 -17 49 -11 56
60 81 1 1 9 -6 17 -15z m-253 -50 c15 -42 -6 -93 -46 -109 -17 -8 -42 -11 -55
-8 -20 5 -22 3 -15 -13 13 -32 18 -63 11 -80 -6 -17 -18 -10 -90 50 l-29 24
34 15 c44 18 57 34 61 77 3 30 7 35 36 41 19 4 39 12 45 18 18 18 37 12 48
-15z m131 9 c34 -31 17 -116 -28 -133 -14 -6 -35 -8 -48 -4 -20 5 -22 11 -20
71 1 55 5 68 20 74 31 12 56 10 76 -8z m-306 -68 c-10 -39 -76 -47 -76 -9 0 8
6 14 14 14 8 0 24 9 37 19 26 21 34 13 25 -24z m1832 -17 c58 -38 63 -44 78
-97 8 -31 19 -66 24 -77 13 -33 68 -92 118 -126 36 -25 42 -33 30 -43 -20 -20
-108 -43 -217 -56 -328 -41 -1074 118 -1323 281 -58 38 -45 41 32 9 103 -44
245 -56 449 -41 209 16 351 54 621 166 48 20 94 33 105 29 11 -3 48 -23 83
-45z m-1963 22 c8 -13 -5 -13 -25 0 -13 8 -13 10 2 10 9 0 20 -4 23 -10z m515
-89 c31 -59 -14 -141 -77 -141 -32 0 -35 2 -29 23 4 12 9 38 13 57 11 65 70
104 93 61z m-150 -7 c41 -17 48 -31 30 -64 -18 -33 -118 -47 -136 -19 -10 18
-24 9 -24 -16 0 -14 -5 -25 -11 -25 -8 0 -9 12 -4 38 5 20 7 47 7 59 -1 16 7
23 36 31 52 14 57 14 102 -4z m297 -83 c42 -29 151 -82 244 -119 137 -55 528
-140 748 -163 109 -11 397 -7 463 7 26 6 26 5 21 -36 -5 -36 0 -54 37 -124 25
-48 41 -89 37 -98 -26 -68 -600 11 -948 131 -238 82 -535 232 -647 328 -61 52
-73 77 -65 128 l6 36 36 -34 c20 -19 50 -44 68 -56z m4 -158 c77 -58 351 -196
489 -246 322 -117 588 -173 882 -184 l147 -6 12 -29 c6 -16 22 -37 35 -47 31
-24 30 -26 -6 -41 -74 -31 -534 38 -845 126 -370 105 -636 241 -830 425 l-80
77 25 20 25 20 40 -32 c22 -18 70 -56 106 -83z m-291 98 c0 -17 -52 -51 -76
-51 -20 0 -24 5 -24 30 0 29 1 30 50 30 28 0 50 -4 50 -9z m153 -126 c192
-180 339 -265 632 -363 410 -137 677 -195 948 -209 104 -5 133 -10 150 -25 22
-18 22 -18 3 -33 -11 -8 -56 -26 -100 -39 -346 -103 -668 -105 -960 -6 -188
63 -409 195 -565 336 -49 45 -246 276 -306 360 -7 10 -1 21 25 43 19 17 43 30
53 31 10 0 64 -43 120 -95z m412 -588 c394 -227 858 -257 1330 -85 61 22 144
51 185 64 68 21 167 86 178 115 2 5 8 9 13 9 18 0 -41 -98 -87 -145 -26 -25
-86 -73 -133 -104 -299 -202 -659 -286 -941 -222 -134 31 -368 155 -545 289
-68 52 -235 211 -235 224 0 5 35 -15 78 -45 42 -29 113 -74 157 -100z"/>
<path d="M1831 6474 c-46 -19 -93 -94 -60 -94 6 0 29 16 50 35 49 44 77 51
136 31 54 -19 63 -19 63 -6 0 36 -128 60 -189 34z"/>
<path d="M1872 6400 c-18 -4 -42 -16 -52 -25 -25 -23 -27 -47 -2 -38 16 6 16
5 0 -13 -10 -11 -20 -37 -23 -57 l-6 -37 78 0 79 0 51 49 c47 45 49 50 37 73
-20 39 -99 62 -162 48z m110 -82 c-7 -7 -12 -8 -12 -2 0 14 12 26 19 19 2 -3
-1 -11 -7 -17z m-32 -23 c0 -19 -48 -31 -63 -16 -9 10 -6 11 14 6 19 -5 28 -2
32 9 8 20 17 21 17 1z m-96 -11 c9 -23 8 -24 -14 -24 -11 0 -20 2 -20 4 0 12
13 36 20 36 4 0 11 -7 14 -16z"/>
<path d="M1833 6063 c-15 -5 -18 -33 -4 -33 8 0 25 30 19 35 -2 1 -9 0 -15 -2z"/>
<path d="M1755 6030 c-3 -5 -4 -10 -1 -10 2 0 11 -3 20 -6 11 -4 16 -1 16 10
0 18 -25 22 -35 6z"/>
<path d="M1960 6010 c-8 -5 -38 -10 -65 -10 -42 0 -59 -6 -104 -37 -29 -21
-63 -43 -73 -50 -20 -11 -20 -11 3 -24 13 -6 26 -15 29 -19 3 -4 19 -15 37
-24 96 -49 200 24 191 135 -2 31 -6 37 -18 29z m-54 -49 c-10 -10 -37 -24 -60
-30 -24 -6 -52 -14 -62 -18 -16 -6 -17 -5 -6 9 18 23 92 58 121 58 23 0 23 -1
7 -19z m15 -73 c-24 -21 -41 -28 -74 -28 -23 0 -49 5 -57 10 -11 7 -1 10 34
10 42 0 52 4 85 38 32 32 36 35 39 17 3 -12 -8 -30 -27 -47z"/>
</g>
</svg>
