<?xml version="1.0" encoding="UTF-8" standalone="no"?>
<svg
   xmlns:dc="http://purl.org/dc/elements/1.1/"
   xmlns:cc="http://creativecommons.org/ns#"
   xmlns:rdf="http://www.w3.org/1999/02/22-rdf-syntax-ns#"
   xmlns:svg="http://www.w3.org/2000/svg"
   xmlns="http://www.w3.org/2000/svg"
   xmlns:xlink="http://www.w3.org/1999/xlink"
   xmlns:sodipodi="http://sodipodi.sourceforge.net/DTD/sodipodi-0.dtd"
   xmlns:inkscape="http://www.inkscape.org/namespaces/inkscape"
   version="1.0"
   width="850.000000pt"
   height="850.000000pt"
   viewBox="0 0 850.000000 850.000000"
   preserveAspectRatio="xMidYMid meet"
   id="svg2"
   inkscape:version="0.91 r13725"
   sodipodi:docname="Animal_kingdom_20170420_171.svg">
  <defs
     id="defs300" />
  <sodipodi:namedview
     pagecolor="#ffffff"
     bordercolor="#666666"
     borderopacity="1"
     objecttolerance="10"
     gridtolerance="10"
     guidetolerance="10"
     inkscape:pageopacity="0"
     inkscape:pageshadow="2"
     inkscape:window-width="1920"
     inkscape:window-height="980"
     id="namedview298"
     showgrid="false"
     inkscape:zoom="0.62824358"
     inkscape:cx="531.33096"
     inkscape:cy="507.1858"
     inkscape:window-x="0"
     inkscape:window-y="1"
     inkscape:window-maximized="1"
     inkscape:current-layer="svg2" />
  <metadata
     id="metadata4">
Created by potrace 1.14, written by Peter Selinger 2001-2017
<rdf:RDF>
  <cc:Work
     rdf:about="">
    <dc:format>image/svg+xml</dc:format>
    <dc:type
       rdf:resource="http://purl.org/dc/dcmitype/StillImage" />
  </cc:Work>
</rdf:RDF>
</metadata>
  <g
     transform="translate(0.000000,850.000000) scale(0.100000,-0.100000)"
     fill="#000000"
     stroke="none"
     id="g6">
    <path
       d="M87 8413 c-4 -3 -7 -84 -7 -180 l0 -174 96 3 96 3 53 140 c29 77 55 157 59 178 l7 37 -149 0 c-82 0 -152 -3 -155 -7z"
       id="path8"
       style="fill:#0066cc" />
    <path
       d="M445 8408 c-2 -7 -10 -35 -19 -63 -8 -27 -17 -58 -21 -67 -6 -16 1 -18 72 -18 197 0 354 -121 421 -325 71 -214 -12 -428 -196 -513 -75 -34 -202 -42 -287 -17 -86 24 -169 88 -210 160 -9 14 -22 -18 -68 -161 l-57 -179 0 -208 c0 -167 3 -214 15 -238 25 -47 209 -129 400 -178 118 -30 340 -53 538 -56 l208 -2 98 111 c54 61 141 157 193 214 53 56 101 116 108 132 7 18 20 30 31 30 22 0 49 -37 49 -67 0 -48 17 -19 43 75 28 101 67 282 67 311 0 14 -16 16 -132 16 -127 0 -136 1 -187 28 -75 40 -145 108 -170 168 -61 141 -20 371 87 490 80 90 207 155 346 180 77 13 77 13 43 115 -27 79 -52 93 -52 29 0 -40 0 -40 -41 -43 -22 -2 -53 2 -69 8 l-28 11 33 34 34 35 -31 0 c-17 0 -59 -9 -94 -20 -243 -74 -529 -78 -779 -9 -87 24 -230 37 -230 21 0 -6 4 -13 10 -17 17 -11 -1 -33 -41 -49 -22 -9 -45 -14 -50 -11 -5 4 -9 24 -9 46 0 37 -16 54 -25 27z m735 -945 c0 -4 -22 -30 -49 -58 -48 -49 -49 -52 -53 -122 -5 -67 -4 -72 19 -82 35 -16 56 -14 76 9 9 11 23 20 31 20 28 0 28 -22 0 -52 -28 -29 -30 -30 -101 -24 -42 4 -99 2 -137 -5 -57 -11 -68 -10 -90 5 -28 18 -34 44 -14 64 19 19 48 15 48 -8 0 -27 43 -44 71 -29 27 14 39 50 39 117 l0 57 -55 43 c-86 67 -80 72 87 72 70 0 128 -3 128 -7z m-957 -67 c3 -7 28 -24 56 -37 66 -29 69 -54 6 -47 -66 8 -137 61 -119 89 8 14 51 11 57 -5z"
       id="path10"
       style="fill:#0066cc" />
    <path
       d="M969 8408 c17 -18 447 -18 476 -1 16 10 -30 12 -234 13 -204 0 -252 -2 -242 -12z"
       id="path12"
       style="fill:#006699" />
    <path
       d="M1864 8404 c3 -8 15 -50 27 -92 48 -175 62 -220 91 -290 27 -66 33 -73 52 -66 11 4 40 6 64 5 23 -1 95 13 160 29 84 22 144 31 212 33 l95 2 -4 -30 c-4 -35 -43 -135 -101 -260 -45 -97 -90 -196 -90 -200 0 -1 102 -4 227 -8 204 -5 229 -3 240 11 7 10 55 75 106 146 50 70 98 136 105 146 12 16 8 32 -27 114 l-40 96 25 19 c33 26 103 34 255 29 l123 -3 77 140 c43 77 81 152 84 168 l7 27 -847 0 c-765 0 -847 -2 -841 -16z m1488 -34 c21 -6 50 -22 65 -35 26 -22 26 -24 9 -31 -11 -4 -35 1 -62 15 -65 31 -71 28 -84 -34 -16 -77 -65 -112 -125 -89 -20 8 -45 56 -45 89 0 30 -4 31 -30 5 -23 -23 -50 -26 -50 -6 0 20 67 73 115 91 44 16 142 14 207 -5z m-906 -55 c48 -20 45 -39 -6 -31 -39 6 -39 6 -46 -30 -9 -51 -49 -94 -85 -94 -36 0 -76 36 -84 77 -13 56 -11 55 -74 23 -64 -32 -87 -37 -75 -19 9 15 142 76 191 89 47 11 133 4 179 -15z m375 -198 c55 -36 49 -92 -9 -99 -20 -2 -28 -10 -30 -27 -6 -42 8 -88 38 -126 17 -21 30 -42 30 -46 0 -14 -44 -10 -66 5 -17 13 -23 12 -52 -10 -18 -14 -40 -24 -49 -22 -14 3 -10 11 21 45 l38 42 -12 58 c-14 68 -24 83 -57 83 -31 0 -38 21 -19 59 32 61 108 78 167 38z"
       id="path14"
       style="fill:#00cc00" />
    <path
       d="M3167 8343 c-19 -18 6 -113 29 -113 18 0 34 40 34 86 0 31 -3 34 -28 34 -16 0 -32 -3 -35 -7z"
       id="path16"
       style="fill:#66ccff" />
    <path
       d="M2283 8314 c-18 -8 -16 -37 4 -79 29 -60 47 -42 56 55 2 20 -3 25 -23 27 -14 1 -31 -1 -37 -3z"
       id="path18"
       style="fill:#66ccff" />
    <path
       d="M2722 8094 c-31 -21 -28 -31 14 -44 31 -11 38 -10 53 5 15 15 14 18 -8 36 -28 23 -31 23 -59 3z"
       id="path20"
       style="fill:#ccccff" />
    <path
       d="M3618 8403 c-20 -23 -148 -266 -148 -281 0 -7 7 -12 16 -12 12 0 15 -6 10 -22 -3 -13 -6 -43 -6 -68 0 -37 -10 -62 -54 -135 -39 -66 -50 -91 -39 -93 16 -4 11 -61 -14 -150 -10 -35 -12 -71 -8 -105 11 -92 66 -400 82 -465 15 -62 16 -62 47 -57 24 5 39 0 65 -19 30 -22 45 -26 108 -26 102 0 105 6 91 167 -11 124 -6 153 25 153 11 0 313 -139 352 -163 14 -8 131 -14 370 -18 193 -4 417 -12 498 -19 l148 -11 72 35 c40 19 98 46 130 60 31 13 57 31 57 38 0 7 -7 35 -15 62 -8 27 -14 76 -13 110 1 41 -6 82 -21 125 -53 154 -74 261 -76 402 -3 128 -5 139 -33 195 -34 67 -50 157 -33 178 12 14 7 35 -26 103 -15 32 -17 33 -79 33 -50 0 -64 -3 -64 -15 0 -8 9 -20 20 -27 26 -17 25 -35 -1 -43 -14 -5 -31 0 -52 16 -17 13 -39 22 -49 22 -16 -2 -23 8 -19 30 2 10 -14 9 -43 -4 -20 -10 -28 -9 -41 5 -15 15 -64 16 -533 14 -464 -3 -523 -5 -579 -21 -35 -10 -82 -17 -105 -15 l-43 4 35 16 c33 16 34 17 9 18 -14 0 -33 -8 -41 -17z m1199 -295 c29 -27 30 -76 2 -112 -19 -24 -19 -26 -2 -26 10 1 29 7 43 15 56 32 72 -1 18 -36 -50 -31 -152 -24 -202 14 -45 35 -55 69 -31 113 33 62 123 78 172 32z m-890 -10 c43 -40 20 -114 -47 -148 -41 -21 -170 -29 -170 -11 0 13 46 22 78 15 l27 -7 -21 24 c-29 33 -35 54 -23 87 20 58 111 82 156 40z m517 -197 c28 -30 30 -61 4 -61 -7 0 -30 -16 -50 -36 -32 -30 -38 -42 -38 -78 0 -49 13 -66 52 -66 15 0 28 -4 28 -10 0 -18 -43 -32 -80 -26 -21 3 -52 1 -70 -5 -35 -13 -80 3 -80 27 0 18 38 28 55 14 11 -9 16 -4 24 27 16 58 15 63 -40 113 l-50 46 22 28 c30 38 73 55 140 56 48 0 59 -4 83 -29z m104 -123 c-5 -15 -58 -24 -58 -10 0 15 12 22 38 22 14 0 22 -5 20 -12z m-438 -13 c-13 -16 -40 -20 -40 -7 0 14 12 22 33 22 16 0 17 -3 7 -15z m98 -17 c-5 -15 -58 -24 -58 -10 0 15 12 22 38 22 14 0 22 -5 20 -12z m241 -29 c-18 -11 -39 -11 -39 0 0 11 31 20 44 13 4 -2 2 -8 -5 -13z m-323 -34 c-23 -17 -36 -19 -36 -6 0 11 18 19 40 20 11 0 10 -3 -4 -14z m412 -17 c-5 -15 -58 -24 -58 -10 0 15 12 22 38 22 14 0 22 -5 20 -12z"
       id="path22"
       style="fill:#6666cc" />
    <path
       d="M5260 8416 c0 -3 13 -33 29 -68 29 -61 29 -63 11 -80 -29 -27 -18 -88 33 -176 42 -73 44 -78 31 -109 -20 -46 -18 -90 4 -97 29 -9 193 -36 219 -36 13 0 42 10 63 22 38 22 40 22 69 5 16 -9 43 -17 59 -17 77 0 412 106 412 130 0 4 -6 10 -14 13 -7 3 -19 28 -26 55 -15 66 2 158 41 215 16 23 29 45 29 49 0 4 -16 14 -35 22 -20 9 -43 29 -53 46 l-17 30 -197 0 -198 0 0 -166 0 -166 35 -58 c19 -32 35 -60 35 -64 0 -17 -41 -3 -57 19 -10 14 -25 36 -34 48 l-17 21 -44 -48 c-26 -29 -50 -47 -58 -44 -10 3 2 23 43 65 l57 60 0 166 0 167 -210 0 c-115 0 -210 -2 -210 -4z"
       id="path24"
       style="fill:#6600ff" />
    <path
       d="M6170 8412 c0 -12 57 -52 72 -52 7 0 29 14 48 30 l35 29 -77 1 c-43 0 -78 -4 -78 -8z"
       id="path26"
       style="fill:#666600" />
    <path
       d="M6350 8409 c0 -6 -25 -39 -57 -72 -94 -102 -123 -199 -84 -280 30 -61 58 -72 121 -47 27 11 51 16 54 11 3 -4 -10 -21 -28 -38 -26 -23 -36 -41 -41 -77 -20 -128 40 -196 172 -196 63 0 126 24 157 59 29 32 53 26 75 -17 47 -92 166 -172 255 -172 47 0 53 3 98 51 27 29 54 49 61 46 8 -3 23 -32 35 -65 25 -67 69 -116 119 -133 79 -26 184 21 249 111 41 56 66 63 83 22 20 -49 133 -121 189 -122 82 -1 182 112 182 204 0 55 30 65 82 30 33 -23 52 -28 104 -29 35 -1 64 2 64 7 0 4 -25 24 -56 45 -51 34 -54 38 -38 50 28 20 49 16 98 -22 26 -19 51 -35 56 -35 16 0 40 57 40 95 0 50 -28 105 -62 124 -15 9 -26 21 -24 26 3 12 56 12 104 0 41 -10 41 -1 -3 72 -37 62 -100 210 -130 306 l-18 58 -221 -5 c-122 -2 -230 -5 -241 -5 -11 0 -59 2 -108 5 -83 5 -89 4 -118 -20 -36 -30 -46 -32 -77 -10 -18 13 -29 13 -57 4 -39 -13 -75 -6 -75 16 0 11 -22 14 -115 14 -93 0 -115 -3 -115 -14 0 -16 -34 -31 -49 -21 -6 3 -8 12 -4 20 4 13 -40 15 -336 15 -244 0 -341 -3 -341 -11z"
       id="path28"
       style="fill:#cc6600" />
    <path
       d="M8268 8414 c-9 -9 67 -207 119 -308 l30 -59 6 63 c4 35 7 119 7 186 l0 124 -78 0 c-43 0 -81 -3 -84 -6z"
       id="path30"
       style="fill:#cc6600" />
    <path
       d="M404 8211 c-12 -5 -30 -29 -41 -53 -41 -87 -133 -414 -133 -473 0 -66 88 -184 171 -230 49 -27 63 -30 144 -30 81 0 95 3 144 30 29 16 70 48 90 71 156 178 69 548 -156 659 -62 30 -177 44 -219 26z m264 -115 c67 -34 88 -96 50 -141 -62 -71 -203 3 -183 96 12 54 75 75 133 45z"
       id="path32"
       style="fill:#cc6633" />
    <path
       d="M1755 8205 c-125 -34 -169 -57 -236 -124 -102 -102 -154 -236 -147 -375 6 -120 78 -229 186 -282 50 -25 204 -32 253 -11 33 13 36 19 53 93 10 43 34 128 53 188 l35 109 -16 61 c-8 34 -27 111 -41 171 -43 185 -43 185 -68 184 -12 0 -44 -6 -72 -14z m-97 -147 c28 -28 0 -93 -54 -129 -38 -25 -72 -24 -101 3 -39 36 -26 84 30 118 36 22 107 26 125 8z"
       id="path34"
       style="fill:#cc6633" />
    <path
       d="M3132 8003 c47 -47 49 -48 105 -45 l58 3 15 -63 c10 -42 20 -63 30 -63 14 0 90 137 90 162 0 8 -12 10 -36 6 -33 -6 -36 -4 -32 18 l3 24 -140 3 -140 2 47 -47z"
       id="path36"
       style="fill:#66ccff" />
    <path
       d="M87 8034 c-4 -4 -7 -25 -7 -46 0 -37 1 -38 36 -38 41 0 41 9 -7 -124 -28 -76 -29 -88 -29 -245 0 -96 4 -161 9 -155 7 8 64 200 152 513 11 40 17 77 12 81 -11 10 -158 22 -166 14z"
       id="path38"
       style="fill:#0066cc" />
    <path
       d="M2410 7993 c-47 -8 -264 -64 -276 -71 -8 -5 0 -25 27 -66 21 -32 40 -64 42 -70 5 -16 69 31 165 123 77 73 93 93 75 90 -5 -1 -19 -4 -33 -6z"
       id="path40"
       style="fill:#66ccff" />
    <path
       d="M3061 7993 c2 -4 12 -29 23 -56 21 -52 22 -53 50 -32 19 15 19 16 -10 46 -29 31 -69 58 -63 42z"
       id="path42"
       style="fill:#66ccff" />
    <path
       d="M2392 7877 c-54 -51 -112 -103 -130 -116 -39 -28 -38 -45 9 -127 45 -80 55 -84 78 -33 10 24 34 78 54 119 33 72 80 180 98 228 16 41 -11 24 -109 -71z"
       id="path44"
       style="fill:#66ccff" />
    <path
       d="M5641 7824 c-39 -49 -45 -98 -46 -329 0 -198 9 -454 20 -560 3 -22 10 -94 16 -160 33 -361 108 -588 242 -732 33 -35 63 -63 68 -63 5 0 9 27 9 60 0 51 3 60 18 60 10 0 88 -41 172 -92 85 -50 171 -100 190 -111 l36 -20 40 26 c22 15 78 36 124 48 47 12 86 23 88 24 3 3 -58 105 -62 105 -2 0 -23 -29 -47 -65 -40 -59 -65 -82 -76 -71 -5 5 84 143 98 152 5 3 9 130 9 292 l0 287 -55 48 c-80 70 -76 77 50 77 58 0 105 -3 105 -7 0 -3 -12 -31 -27 -62 -25 -51 -29 -70 -35 -206 -3 -82 -7 -205 -7 -273 l-1 -123 33 -47 c17 -25 39 -59 48 -76 l16 -29 129 2 c71 1 164 -3 208 -9 92 -12 92 -11 180 91 59 70 140 222 176 332 l22 67 -33 93 c-32 89 -33 97 -34 252 0 150 2 165 27 233 36 98 79 171 139 236 l49 53 -6 79 c-4 44 -10 83 -14 87 -4 4 -23 -1 -42 -13 -51 -30 -135 -43 -194 -30 -61 14 -106 48 -140 105 -25 43 -26 44 -49 29 -46 -30 -85 -33 -289 -22 -192 11 -211 10 -362 -12 -99 -14 -206 -23 -284 -23 -185 0 -228 23 -353 188 -75 100 -107 135 -123 135 -7 0 -22 -12 -33 -26z m99 -246 c29 -59 47 -105 42 -110 -5 -5 -40 -8 -78 -6 l-69 3 -3 34 c-3 33 14 157 24 173 15 24 38 -2 84 -94z m1214 -190 c24 -39 -82 -128 -153 -128 -66 0 -77 21 -33 62 29 28 151 90 166 85 5 -2 14 -10 20 -19z m-720 -23 c90 -27 110 -66 49 -92 -80 -33 -213 0 -221 55 -7 48 77 66 172 37z m1068 -348 c-6 -7 -9 -23 -5 -35 8 -33 -41 -108 -87 -132 -52 -27 -86 -25 -116 5 -34 35 -29 67 14 80 38 11 39 16 9 51 l-23 27 -143 -9 c-79 -5 -145 -6 -147 -2 -8 12 155 24 365 26 117 2 141 0 133 -11z m-969 -22 c1 -5 -8 -11 -20 -13 -27 -4 -27 -3 -9 -37 29 -56 -24 -148 -92 -161 -46 -9 -108 11 -128 41 -20 31 -12 52 26 68 l30 13 -28 32 -27 33 -123 -11 c-113 -11 -164 -9 -149 6 3 3 84 14 179 24 184 19 337 21 341 5z m927 -367 c13 -25 13 -31 0 -55 -18 -32 -71 -50 -114 -39 -41 10 -32 29 10 21 38 -7 74 13 74 41 0 19 -41 44 -73 44 -40 0 -87 -49 -87 -90 0 -38 24 -86 49 -100 49 -26 89 -4 159 84 17 21 32 12 25 -15 -9 -35 -70 -87 -114 -99 -81 -22 -159 33 -159 111 0 88 53 131 155 126 53 -2 61 -5 75 -29z m-1240 -20 c79 -40 76 -111 -6 -138 -68 -23 -147 24 -128 75 11 27 41 17 47 -14 8 -37 39 -56 67 -41 55 29 38 82 -32 100 -72 20 -132 -12 -144 -77 -9 -50 2 -80 43 -108 30 -20 50 -25 98 -25 79 0 118 23 137 82 8 24 22 44 31 46 27 5 21 -40 -13 -86 -64 -89 -238 -97 -310 -15 -57 64 -31 161 53 202 54 27 102 27 157 -1z"
       id="path46"
       style="fill:#ffccff" />
    <path
       d="M5677 7586 c-4 -9 -7 -33 -7 -52 0 -28 4 -35 25 -40 14 -4 28 -4 31 -1 3 3 -5 29 -18 59 -19 41 -26 49 -31 34z"
       id="path48"
       style="fill:#cc9999" />
    <path
       d="M6836 7347 c-41 -23 -65 -51 -54 -63 13 -12 76 6 102 31 54 50 22 72 -48 32z"
       id="path50"
       style="fill:#cc9999" />
    <path
       d="M6119 7338 c-23 -9 -24 -10 -5 -24 18 -13 156 -21 156 -9 0 22 -114 46 -151 33z"
       id="path52"
       style="fill:#cc9999" />
    <path
       d="M8194 7571 c-131 -24 -252 -65 -315 -107 -28 -19 -57 -34 -65 -34 -8 0 -53 16 -101 35 -48 19 -88 35 -90 35 -1 0 0 -33 3 -72 l6 -73 -51 -38 c-46 -36 -115 -126 -154 -202 -41 -82 -61 -178 -61 -295 0 -132 17 -211 67 -310 39 -79 144 -192 222 -239 61 -37 218 -100 250 -101 17 0 27 21 63 128 91 267 161 449 192 500 14 22 27 32 45 32 14 0 25 -5 25 -12 0 -7 11 -23 24 -37 32 -34 93 -147 133 -246 26 -65 32 -74 33 -49 0 17 3 58 6 91 l6 60 -37 22 -38 22 38 32 38 31 -8 315 c-4 174 -8 363 -9 421 l-1 105 -60 2 c-33 1 -105 -7 -161 -16z m-475 -137 c25 -32 26 -52 5 -82 -11 -16 -24 -22 -42 -20 -23 3 -27 8 -30 39 -4 43 13 89 32 89 8 0 24 -12 35 -26z m161 -419 c16 -9 36 -29 45 -45 17 -34 20 -102 4 -132 -13 -25 -84 -58 -124 -58 -51 0 -113 35 -131 74 -16 33 -16 36 7 83 39 77 130 113 199 78z"
       id="path54"
       style="fill:#cc66ff" />
    <path
       d="M7763 6965 c-26 -18 -44 -67 -32 -86 7 -11 9 -11 9 3 0 24 50 79 69 76 12 -2 15 -12 13 -38 -2 -20 2 -48 7 -63 9 -23 14 -26 30 -18 10 6 21 19 23 29 7 24 -16 92 -34 103 -20 13 -62 10 -85 -6z"
       id="path56"
       style="fill:#cc3300" />
    <path
       d="M3824 7178 c3 -24 9 -77 12 -119 6 -72 5 -77 -15 -84 -24 -7 -166 -165 -217 -243 -76 -113 -141 -270 -185 -443 -32 -128 -36 -526 -5 -557 3 -2 64 50 137 117 77 72 138 121 148 119 23 -4 191 -495 203 -595 2 -14 72 -92 177 -198 l175 -175 405 0 c405 0 406 1 464 24 100 41 169 88 252 171 99 99 165 209 216 360 67 198 82 291 83 535 1 211 0 218 -32 355 -45 186 -52 205 -129 332 l-66 108 2 143 c1 78 -1 142 -5 142 -4 0 -64 -28 -133 -61 l-126 -62 -90 12 c-49 7 -270 16 -490 21 -220 5 -425 11 -455 14 -53 4 -163 46 -268 102 -25 13 -49 24 -55 24 -5 0 -7 -18 -3 -42z m117 -87 c22 -21 39 -43 39 -48 0 -11 -79 -63 -96 -63 -15 0 -24 33 -24 91 0 73 23 79 81 20z m1485 -63 c-9 -65 -21 -88 -47 -88 -26 0 -79 27 -79 41 0 19 90 99 111 99 20 0 21 -3 15 -52z m-1309 -232 c27 -24 27 -26 13 -53 -9 -15 -32 -37 -52 -48 -30 -16 -40 -17 -62 -7 -40 18 -53 55 -32 87 32 49 90 58 133 21z m1082 -22 c12 -15 21 -36 21 -48 0 -85 -159 -115 -168 -32 -5 45 6 74 36 90 44 24 87 20 111 -10z m-1259 -192 c0 -13 -30 -37 -70 -57 -19 -10 -68 -40 -108 -67 -68 -46 -110 -57 -100 -25 6 17 91 80 163 122 56 32 115 46 115 27z m754 -11 c3 -5 -17 -37 -44 -71 -28 -34 -50 -70 -50 -79 0 -19 37 -101 45 -101 3 0 17 7 30 16 25 17 45 12 45 -11 0 -42 -83 -61 -128 -29 -21 14 -26 14 -66 -1 -38 -15 -48 -15 -72 -3 -16 7 -30 21 -32 30 -5 24 35 34 57 14 27 -25 39 -19 52 24 10 34 9 46 -6 80 -10 22 -35 58 -55 80 -32 35 -35 42 -21 50 20 12 238 13 245 1z m656 -24 c0 -7 -18 -21 -39 -31 -22 -9 -74 -42 -116 -72 -69 -51 -105 -63 -105 -35 0 12 143 121 180 138 35 16 80 16 80 0z m-1430 -55 c0 -5 -10 -13 -22 -19 -13 -6 -50 -31 -83 -55 -60 -46 -105 -67 -105 -51 0 21 167 129 203 132 4 1 7 -3 7 -7z m1445 -2 c11 -17 -12 -37 -90 -80 -72 -40 -121 -52 -113 -28 4 12 175 117 190 118 4 0 10 -5 13 -10z m-1342 -21 c-18 -18 -177 -109 -190 -109 -22 0 -14 14 20 35 108 66 144 85 162 85 13 0 16 -3 8 -11z m1450 -35 c10 -10 -32 -39 -127 -89 -82 -43 -136 -57 -136 -35 0 13 213 122 251 129 3 1 9 -2 12 -5z"
       id="path58"
       style="fill:#0066cc" />
    <path
       d="M1635 6925 c-22 -24 -85 -93 -140 -153 -55 -60 -133 -145 -172 -190 l-73 -80 -57 15 c-49 13 -87 13 -276 2 -233 -13 -419 -9 -559 12 -67 10 -92 10 -113 1 -36 -17 -63 3 -106 78 -19 33 -39 68 -46 78 -10 13 -12 -52 -13 -317 l0 -335 33 31 c39 38 75 53 128 53 70 0 145 -53 183 -127 20 -40 21 -135 2 -171 -19 -36 -83 -96 -126 -117 -49 -25 -129 -23 -175 4 -20 11 -38 21 -41 21 -2 0 -4 -195 -4 -434 l0 -435 77 -51 c277 -181 628 -187 921 -15 69 40 238 196 282 261 29 41 29 41 13 90 -8 27 -15 81 -16 119 -1 66 4 81 85 275 91 219 117 284 143 368 21 65 40 75 71 37 l22 -28 6 54 c30 290 29 895 -2 978 -7 19 -11 17 -47 -24z m31 -110 c9 -19 9 -33 -2 -62 -7 -22 -13 -81 -14 -138 0 -55 -4 -106 -9 -114 -8 -12 -24 -13 -110 -2 -56 7 -101 15 -101 17 0 3 33 59 73 125 68 114 130 199 145 199 4 0 12 -11 18 -25z m-411 -714 c22 -10 51 -30 64 -45 14 -14 33 -26 43 -26 21 0 24 -18 4 -26 -8 -3 -13 -20 -13 -43 0 -61 -30 -134 -71 -174 -100 -97 -271 -114 -322 -32 -41 67 -16 207 52 289 59 72 160 95 243 57z m-530 -371 c14 -6 5 -9 -35 -9 -40 0 -49 3 -35 9 11 5 27 9 35 9 8 0 24 -4 35 -9z m90 -80 c-3 -6 -48 -10 -100 -10 -52 0 -97 4 -100 10 -4 6 32 10 100 10 68 0 104 -4 100 -10z m15 -118 c0 -5 -14 -21 -31 -38 -17 -16 -42 -48 -56 -72 -23 -39 -25 -51 -21 -120 4 -78 38 -173 75 -214 11 -13 13 -22 6 -29 -17 -17 -42 1 -70 50 -15 25 -28 48 -29 50 -2 2 -25 -15 -52 -38 -26 -23 -57 -41 -67 -41 -15 0 -3 16 43 63 l63 64 -10 97 c-9 87 -13 101 -41 133 -34 38 -53 79 -44 94 7 11 234 12 234 1z"
       id="path60"
       style="fill:#6666cc" />
    <path
       d="M1115 6086 c-16 -7 -39 -23 -49 -35 l-19 -21 116 0 c65 0 117 4 117 9 0 15 -66 52 -102 57 -18 2 -46 -2 -63 -10z"
       id="path62"
       style="fill:#3399ff" />
    <path
       d="M1105 6003 c-83 -5 -92 -10 -109 -53 -33 -83 -11 -190 44 -220 44 -24 124 -2 191 51 46 36 66 79 74 156 l7 60 -32 7 c-32 6 -74 6 -175 -1z m34 -107 c27 -32 -27 -64 -57 -34 -10 10 -8 16 10 30 28 21 32 22 47 4z"
       id="path64"
       style="fill:#3399ff" />
    <path
       d="M652 5522 c-23 -7 -23 -7 13 -49 l36 -42 36 40 c30 33 34 42 22 50 -16 10 -72 10 -107 1z"
       id="path66"
       style="fill:#ff9999" />
    <path
       d="M6490 6772 c0 -10 55 -52 68 -52 8 0 32 42 32 55 0 3 -22 5 -50 5 -27 0 -50 -4 -50 -8z"
       id="path68"
       style="fill:#cc9999" />
    <path
       d="M8182 6743 c-5 -10 -58 -156 -118 -325 l-109 -308 -49 0 -48 0 5 -62 c4 -35 9 -110 13 -168 3 -58 8 -118 10 -135 2 -16 4 -195 4 -397 l0 -368 58 -37 c80 -52 287 -155 351 -176 29 -9 71 -17 92 -17 l39 0 0 389 c0 214 -3 403 -6 420 l-7 32 -18 -31 c-28 -45 -56 -40 -69 13 -16 64 -45 132 -57 130 -5 -1 -55 -5 -109 -9 -71 -5 -107 -3 -123 6 -13 6 -20 14 -17 18 4 3 91 7 194 9 103 2 193 6 200 8 9 3 12 70 12 288 l0 284 -45 104 c-96 219 -165 349 -186 349 -4 0 -12 -8 -17 -17z m71 -267 c30 -60 83 -243 93 -317 l7 -49 -157 0 c-150 0 -156 1 -156 20 0 12 20 82 45 156 86 256 118 293 168 190z"
       id="path70"
       style="fill:#669900" />
    <path
       d="M8159 6353 c-65 -187 -68 -201 -52 -207 8 -3 54 -6 103 -6 l88 0 -23 78 c-53 183 -68 232 -75 232 -4 0 -22 -44 -41 -97z"
       id="path72"
       style="fill:#003333" />
    <path
       d="M2154 6701 c-43 -26 -76 -98 -82 -180 -5 -82 10 -140 47 -180 26 -27 35 -31 83 -30 60 1 98 11 80 23 -18 11 -14 71 6 95 9 12 37 27 62 34 l45 13 -3 45 c-9 148 -134 243 -238 180z"
       id="path74"
       style="fill:#00ccff" />
    <path
       d="M2809 6696 c-41 -24 -80 -107 -80 -171 0 -30 2 -59 6 -65 3 -5 26 -10 49 -10 54 0 69 -16 64 -72 -2 -37 0 -43 17 -46 11 -1 34 6 52 17 79 49 117 196 71 275 -13 22 -35 48 -49 58 -34 26 -97 32 -130 14z"
       id="path76"
       style="fill:#00ccff" />
    <path
       d="M2533 6193 c-16 -6 33 -73 52 -73 15 0 67 65 58 74 -7 7 -92 7 -110 -1z"
       id="path78"
       style="fill:#ccccff" />
    <path
       d="M7640 6114 c-14 -10 -78 -69 -142 -132 l-117 -114 -48 7 c-26 4 -97 21 -158 38 l-110 32 -250 0 c-283 0 -316 -6 -402 -74 l-48 -38 -180 108 c-99 60 -183 109 -186 109 -3 0 -9 -39 -13 -86 -3 -48 -14 -118 -22 -157 -14 -60 -23 -77 -61 -116 -167 -169 -254 -473 -240 -841 4 -113 10 -159 27 -206 24 -70 110 -226 128 -232 7 -2 16 8 22 23 8 20 16 26 36 23 20 -2 30 -14 49 -62 29 -72 97 -161 150 -198 98 -67 360 -149 543 -169 68 -7 187 -10 327 -6 211 5 226 7 359 42 77 19 153 44 169 54 16 10 83 72 148 136 l119 118 -6 151 c-3 83 -10 155 -14 160 -15 16 -114 -23 -164 -64 -52 -43 -73 -51 -57 -21 17 31 104 80 174 97 l67 17 0 51 c0 28 9 88 20 134 11 46 20 94 20 108 0 13 5 24 10 24 6 0 19 9 30 20 20 20 20 32 19 308 0 158 -5 317 -9 353 -15 116 -124 407 -155 416 -6 2 -22 -4 -35 -13z m64 -156 c20 -91 26 -139 21 -148 -13 -21 -133 -7 -142 16 -5 13 41 96 75 137 21 24 41 21 46 -5z m-1594 -98 c23 -39 39 -74 36 -79 -7 -10 -86 -31 -120 -31 -22 0 -24 3 -20 33 6 38 11 93 13 125 1 16 7 22 26 22 19 0 32 -13 65 -70z m1429 -235 c74 -35 161 -126 206 -219 35 -71 37 -80 33 -148 -12 -175 -160 -337 -338 -369 -156 -28 -288 10 -380 107 -77 82 -95 128 -94 249 0 95 2 104 36 170 52 101 139 179 241 215 37 14 80 19 147 20 81 0 103 -4 149 -25z m-1120 -60 c84 -44 153 -110 189 -180 31 -61 34 -154 7 -234 -67 -203 -291 -336 -483 -287 -77 19 -126 50 -182 113 -63 70 -82 120 -82 213 0 142 25 219 99 301 76 84 173 121 299 115 71 -3 91 -9 153 -41z m439 -661 c23 -3 42 -10 42 -15 0 -17 -41 -93 -64 -117 -18 -20 -21 -36 -21 -98 1 -62 4 -78 22 -95 17 -18 24 -19 42 -9 12 6 27 9 34 7 25 -8 -55 -39 -87 -33 -19 3 -38 0 -50 -9 -11 -8 -34 -15 -51 -15 -31 0 -75 24 -75 41 0 14 32 10 54 -6 47 -36 62 -10 71 122 l7 89 -56 49 c-103 90 -68 114 132 89z m732 -123 c0 -5 -15 -13 -32 -16 -57 -13 -132 -51 -162 -84 -28 -29 -56 -41 -56 -23 0 11 50 57 79 72 26 13 151 59 164 60 4 0 7 -4 7 -9z m90 -26 c-7 -8 -19 -15 -28 -15 -23 0 -122 -58 -166 -98 -25 -22 -41 -31 -44 -23 -9 27 69 86 168 127 67 28 88 31 70 9z m-1450 -3 c0 -5 -31 -26 -68 -46 -38 -21 -92 -55 -121 -77 -52 -39 -71 -47 -71 -29 0 12 98 78 184 124 73 39 76 40 76 28z m-150 -12 c0 -5 -23 -21 -51 -35 -27 -14 -64 -39 -81 -55 -34 -32 -48 -37 -48 -17 0 22 51 64 110 91 61 29 70 31 70 16z m220 -28 c0 -4 -42 -26 -92 -50 -86 -39 -168 -98 -168 -120 0 -14 -32 -24 -42 -14 -12 12 60 84 119 119 89 53 183 86 183 65z"
       id="path80"
       style="fill:#ff6600" />
    <path
       d="M7249 5616 c-128 -46 -207 -148 -230 -298 -17 -108 -1 -197 52 -278 63 -98 153 -144 272 -138 l62 3 1 36 c1 46 7 54 55 85 51 32 59 52 30 75 -15 13 -31 16 -56 12 -30 -5 -35 -3 -35 13 0 11 -5 51 -10 89 -4 39 -12 126 -16 195 -4 69 -8 134 -9 145 -1 11 -3 32 -4 48 -1 24 -4 27 -38 27 -21 -1 -54 -7 -74 -14z"
       id="path82"
       style="fill:#00cc00" />
    <path
       d="M7506 5405 c-10 -27 -7 -83 6 -91 14 -9 38 23 38 51 0 12 -8 30 -19 39 -17 15 -19 15 -25 1z"
       id="path84"
       style="fill:#66cc00" />
    <path
       d="M7574 5285 c-8 -21 2 -45 19 -45 20 0 40 27 33 45 -7 19 -45 20 -52 0z"
       id="path86"
       style="fill:#66cc00" />
    <path
       d="M6082 5559 c-147 -73 -225 -311 -154 -472 39 -88 146 -182 235 -208 24 -7 29 -5 37 17 6 14 10 47 10 74 l0 49 53 3 c52 3 52 3 50 36 -2 47 -20 65 -60 59 -29 -5 -33 -3 -34 16 0 12 -2 29 -3 37 -2 8 -7 80 -11 160 -4 80 -10 168 -14 195 -6 47 -8 50 -36 52 -16 1 -49 -7 -73 -18z"
       id="path88"
       style="fill:#00cc00" />
    <path
       d="M6350 5361 c-15 -28 -12 -67 5 -81 13 -10 19 -10 35 5 24 22 26 58 4 79 -20 21 -31 20 -44 -3z"
       id="path90"
       style="fill:#66cc00" />
    <path
       d="M6396 5227 c-17 -12 -17 -14 2 -37 l19 -24 12 23 c13 23 9 51 -7 51 -4 0 -16 -6 -26 -13z"
       id="path92"
       style="fill:#66cc00" />
    <path
       d="M174 6081 c-35 -22 -66 -60 -58 -73 12 -19 247 -3 241 16 -6 20 -99 76 -126 76 -14 0 -40 -9 -57 -19z"
       id="path94"
       style="fill:#3399ff" />
    <path
       d="M103 5962 c-40 -25 -16 -182 33 -221 76 -59 210 -16 249 81 16 42 23 118 11 137 -8 13 -273 15 -293 3z m185 -90 c3 -22 -30 -48 -48 -37 -16 10 -11 43 8 54 23 14 36 9 40 -17z"
       id="path96"
       style="fill:#3399ff" />
    <path
       d="M3555 5807 c-61 -56 -153 -144 -205 -196 -110 -108 -128 -119 -210 -128 l-60 -6 0 -46 c0 -117 -111 -243 -235 -267 -21 -4 -72 -25 -113 -47 -56 -30 -88 -41 -135 -44 -58 -5 -65 -3 -102 27 -35 28 -45 31 -82 25 -73 -11 -123 34 -123 109 0 22 21 107 35 139 6 15 -1 17 -81 17 -49 0 -114 3 -144 6 l-55 6 -165 167 c-91 91 -184 195 -207 230 -35 52 -44 60 -49 45 -20 -55 -119 -303 -160 -399 -63 -147 -64 -186 -5 -350 24 -66 55 -158 69 -205 30 -100 31 -100 43 -77 6 9 29 27 52 38 23 12 65 41 92 64 83 70 121 85 222 85 76 0 96 -4 148 -29 65 -31 205 -127 205 -140 0 -16 -142 -126 -210 -162 -37 -19 -60 -24 -125 -24 -94 0 -131 16 -230 100 l-64 54 -17 -76 c-28 -127 -24 -221 15 -333 88 -254 196 -379 431 -503 98 -52 246 -108 323 -122 28 -6 36 -3 50 17 60 85 118 163 152 204 38 45 40 50 40 118 0 96 -16 394 -24 438 0 4 -29 39 -62 79 -47 54 -59 73 -50 82 14 14 263 14 298 1 21 -9 18 -13 -48 -89 l-71 -80 7 -140 c3 -77 6 -189 6 -249 0 -114 6 -136 46 -174 52 -48 0 -69 -57 -23 -33 26 -40 28 -50 15 -11 -12 -5 -35 31 -124 l44 -110 96 0 c176 0 338 40 364 91 25 46 67 167 94 269 34 123 50 128 79 28 12 -40 24 -90 28 -111 3 -20 10 -39 14 -42 18 -11 128 152 204 303 l36 72 -2 542 -3 541 -85 30 c-47 17 -87 31 -89 33 -9 7 45 77 91 119 44 39 57 46 87 43 37 -3 45 -16 65 -109 5 -22 114 -124 124 -115 4 4 -149 468 -157 478 -3 3 -56 -39 -116 -95z m-1859 -237 c50 -84 68 -138 54 -155 -26 -31 -222 -79 -242 -60 -6 7 51 176 75 222 18 35 44 54 66 50 8 -1 29 -27 47 -57z m1719 -549 c34 -16 92 -58 132 -95 l72 -67 -37 -40 c-46 -51 -93 -75 -189 -100 -96 -24 -176 -24 -228 0 -48 22 -175 120 -175 136 0 17 120 130 174 164 44 27 59 31 120 31 57 0 83 -6 131 -29z"
       id="path98"
       style="fill:#cc66cc" />
    <path
       d="M1602 5488 c-32 -94 -32 -104 -2 -100 44 7 90 30 90 47 0 20 -48 115 -58 115 -5 0 -18 -28 -30 -62z"
       id="path100"
       style="fill:#993366" />
    <path
       d="M3215 5005 c-40 -18 -84 -52 -127 -100 l-37 -41 57 -46 c66 -52 112 -78 142 -78 20 0 20 3 14 133 -3 72 -9 135 -13 139 -3 4 -19 1 -36 -7z"
       id="path102"
       style="fill:#00ccff" />
    <path
       d="M3321 4913 c2 -144 7 -163 35 -163 36 0 133 39 154 63 11 11 20 29 20 39 0 33 -153 158 -193 158 -16 0 -18 -9 -16 -97z"
       id="path104"
       style="fill:#00ccff" />
    <path
       d="M2480 5849 c0 -5 5 -7 10 -4 6 3 10 8 10 11 0 2 -4 4 -10 4 -5 0 -10 -5 -10 -11z"
       id="path106" />
    <path
       d="M3572 5560 l-43 -50 33 -14 c77 -32 78 -31 78 12 0 47 -10 102 -19 102 -3 0 -25 -23 -49 -50z"
       id="path108"
       style="fill:#993366" />
    <path
       d="M2977 5464 c-3 -3 -135 -20 -294 -38 l-288 -31 -22 -45 c-37 -72 -27 -150 22 -172 33 -15 42 -5 50 52 10 76 94 133 114 78 5 -13 7 -30 5 -38 -1 -8 -3 -20 -3 -27 -1 -6 -12 -25 -26 -41 -30 -36 -25 -56 18 -79 54 -28 116 -18 174 27 l23 18 -28 18 c-38 25 -51 45 -52 79 0 54 24 75 84 75 38 0 61 -6 77 -19 22 -17 23 -22 13 -57 -6 -22 -15 -47 -19 -56 -6 -15 -2 -18 19 -18 81 0 176 124 176 228 0 36 -25 63 -43 46z"
       id="path110"
       style="fill:#993366" />
    <path
       d="M5634 5387 c-96 -100 -286 -320 -322 -373 -31 -47 -42 -55 -63 -49 -21 7 -30 -58 -29 -209 3 -275 1 -316 -15 -323 -9 -3 -18 -4 -20 -1 -11 10 -14 68 -14 296 l-1 242 -50 0 -50 0 -2 -262 -3 -263 -27 -3 -28 -3 -1 223 c0 123 -1 241 -2 263 l-2 40 -65 0 -65 0 -2 -245 c-1 -135 -5 -255 -8 -267 -4 -16 -13 -23 -30 -23 l-25 0 0 270 0 270 -75 0 -75 0 -1 -237 c0 -131 -2 -251 -4 -267 -5 -36 -19 -51 -39 -43 -14 6 -16 40 -16 277 l0 270 -80 0 -80 0 0 -265 0 -265 -25 0 c-19 0 -25 5 -25 23 -1 12 -1 132 -1 266 l1 244 -93 -6 -92 -5 -242 239 c-133 131 -246 239 -252 239 -7 0 -11 -351 -11 -1085 l0 -1085 292 2 292 3 22 80 c12 44 30 110 40 147 10 37 16 69 13 72 -2 2 -42 7 -89 10 -47 3 -87 5 -90 6 -3 0 2 5 10 10 8 5 52 10 98 10 l83 0 15 35 c26 63 21 75 -35 75 -28 0 -52 4 -56 9 -9 16 30 31 80 31 40 0 47 3 55 26 6 14 10 27 10 30 0 2 -37 4 -82 5 -204 2 -220 32 -21 37 l122 4 11 57 c43 216 68 223 153 43 30 -64 63 -137 73 -162 29 -77 36 -71 32 30 -3 86 -7 103 -40 171 -25 52 -45 78 -59 82 -12 3 -19 12 -17 19 4 10 43 14 161 16 86 1 157 -1 157 -5 0 -5 -10 -19 -21 -33 -11 -14 -42 -57 -69 -97 l-50 -72 0 -158 0 -159 61 -74 c33 -41 65 -78 71 -81 17 -11 1 -39 -21 -39 -11 0 -37 15 -58 32 -28 25 -35 28 -29 13 4 -11 15 -55 24 -97 l17 -78 85 0 c93 0 155 13 167 35 7 12 27 11 128 -8 95 -16 162 -21 320 -21 l200 -1 -3 570 -4 570 -39 76 c-45 89 -74 189 -92 315 l-13 89 -50 6 c-84 11 -116 39 -78 70 8 7 34 46 56 87 23 41 57 90 75 109 29 28 40 53 65 145 16 62 34 120 40 131 21 40 -2 24 -78 -56z m-1776 -219 c25 -21 124 -191 125 -216 2 -22 -4 -28 -33 -38 -20 -7 -69 -14 -109 -16 l-74 -3 2 116 c2 118 5 151 17 170 7 12 51 4 72 -13z m397 -797 c6 -3 -8 -8 -30 -11 -29 -4 -39 -9 -36 -20 14 -54 21 -121 16 -157 -5 -37 -10 -43 -46 -57 -62 -25 -79 -22 -79 17 0 78 -9 198 -16 208 -4 8 -32 10 -81 7 -79 -5 -86 6 -12 22 46 9 266 3 284 -9z m1305 -26 c0 -8 -8 -19 -19 -24 -14 -8 -20 -25 -23 -75 -4 -74 -41 -141 -83 -152 -14 -4 -27 -5 -29 -3 -4 5 -15 141 -16 192 l0 37 -90 0 c-71 0 -90 3 -90 14 0 22 15 24 188 25 136 1 162 -1 162 -14z m-244 -536 c8 -13 -44 -19 -183 -19 -83 0 -143 4 -143 9 0 6 19 12 43 14 66 7 278 4 283 -4z m-108 -111 c-3 -9 -46 -14 -149 -18 -79 -3 -146 -4 -149 -2 -3 2 4 10 14 18 27 19 290 21 284 2z m108 -159 c13 -22 -23 -29 -153 -29 -126 0 -153 6 -138 30 9 14 282 13 291 -1z"
       id="path112"
       style="fill:#ccff00" />
    <path
       d="M3829 5039 c0 -35 -3 -76 -5 -91 -4 -22 -1 -28 14 -28 42 0 82 13 82 27 0 15 -42 93 -72 132 -18 24 -18 24 -19 -40z"
       id="path114"
       style="fill:#996600" />
    <path
       d="M2720 5281 c0 -19 36 -71 50 -71 12 0 19 53 9 72 -13 25 -59 24 -59 -1z"
       id="path116"
       style="fill:#993366" />
    <path
       d="M5563 5023 c-21 -32 -38 -62 -38 -66 0 -12 64 -37 70 -28 7 12 17 151 11 151 -3 0 -22 -26 -43 -57z"
       id="path118"
       style="fill:#996600" />
    <path
       d="M1842 4963 c-44 -15 -132 -94 -132 -118 0 -19 117 -122 168 -146 39 -19 80 -20 68 -1 -3 5 -8 55 -11 113 -6 106 -21 170 -40 168 -5 0 -29 -7 -53 -16z"
       id="path120"
       style="fill:#00ccff" />
    <path
       d="M1979 4949 c4 -13 12 -69 15 -123 7 -94 17 -136 34 -136 12 0 102 58 150 97 l43 35 -33 29 c-58 50 -153 108 -186 115 -31 6 -32 5 -23 -17z"
       id="path122"
       style="fill:#00ccff" />
    <path
       d="M7798 4908 c-22 -71 -16 -1155 6 -1288 2 -14 7 -52 11 -85 23 -211 68 -413 120 -535 63 -150 174 -314 264 -389 l52 -44 81 12 c45 6 84 14 87 17 3 3 6 22 6 43 0 30 -8 46 -33 72 -17 18 -32 41 -32 51 0 26 37 23 46 -4 7 -21 8 -20 16 12 8 34 8 200 0 200 -2 0 -17 -11 -34 -25 -29 -24 -48 -32 -48 -19 0 4 21 29 46 56 l47 50 -5 473 c-4 374 -7 477 -18 490 -10 12 -10 19 -2 27 9 9 12 104 12 335 l0 322 -42 11 c-155 40 -372 136 -507 225 -29 19 -54 35 -56 35 -3 0 -10 -19 -17 -42z m107 -90 c36 -31 75 -94 75 -122 0 -22 -87 -66 -131 -66 l-39 0 0 94 c0 73 4 98 16 110 23 23 39 20 79 -16z m379 -465 c37 -7 15 -23 -33 -23 l-33 0 5 -60 c4 -53 3 -60 -14 -60 -24 0 -45 70 -29 99 5 11 7 22 3 24 -5 3 -56 8 -115 12 -63 4 -108 11 -108 17 0 10 262 3 324 -9z m-73 -553 c10 -6 19 -20 19 -30 0 -16 -7 -20 -35 -20 -39 0 -55 21 -35 45 15 18 25 19 51 5z m163 -216 c9 -23 -21 -66 -42 -62 -21 4 -28 44 -12 64 17 19 46 18 54 -2z m-178 -183 c-4 -5 0 -11 6 -14 24 -8 -7 -42 -38 -42 -32 0 -44 26 -24 50 13 16 65 21 56 6z"
       id="path124"
       style="fill:#990000" />
    <path
       d="M1531 4728 c-103 -108 -190 -180 -247 -204 -25 -11 -34 -20 -30 -30 17 -46 17 -66 -4 -109 -26 -53 -65 -84 -117 -92 -44 -7 -63 -19 -63 -40 0 -30 -34 -86 -64 -104 -39 -24 -122 -25 -155 -3 -22 16 -24 15 -53 -20 -16 -20 -43 -43 -58 -51 -70 -36 -176 -2 -245 77 -75 87 -135 246 -135 359 0 37 -3 41 -38 55 -57 23 -132 64 -183 101 -26 18 -49 33 -53 33 -3 0 -6 -194 -6 -430 l0 -430 26 -10 c14 -6 82 -10 152 -10 218 0 236 -10 158 -86 -61 -58 -126 -79 -244 -78 l-92 1 0 -428 0 -428 73 -61 c90 -77 157 -108 273 -127 l91 -16 44 49 c24 26 73 79 109 117 36 38 64 74 62 80 -2 6 -12 24 -24 39 l-20 29 -53 -51 c-50 -46 -75 -61 -75 -42 0 4 25 33 55 66 l55 58 0 246 0 245 -40 43 c-62 68 -57 74 59 74 55 0 102 -4 105 -8 3 -5 -15 -28 -39 -52 l-45 -44 0 -251 1 -250 28 -38 29 -37 102 107 c57 59 109 123 117 140 31 76 73 27 123 -146 25 -86 33 -123 55 -263 3 -21 10 -38 15 -38 5 0 36 25 68 55 102 94 161 241 222 545 50 254 57 329 75 755 10 248 16 361 20 405 19 188 28 260 45 323 10 40 17 73 16 73 0 1 -43 -43 -95 -98z m-1 -155 c-1 -26 -30 -196 -34 -201 -8 -7 -86 25 -116 48 l-25 19 21 28 c44 60 155 135 154 106z m-145 -762 c48 -10 43 -37 -18 -96 -60 -59 -100 -75 -185 -75 -87 0 -165 45 -192 111 -22 52 -6 58 154 62 77 1 157 3 176 4 19 0 48 -2 65 -6z"
       id="path126"
       style="fill:#ffccff" />
    <path
       d="M1437 4492 c-33 -35 -34 -45 -3 -66 29 -19 31 -16 40 47 8 54 0 58 -37 19z"
       id="path128"
       style="fill:#cc9999" />
    <path
       d="M1042 3790 c-22 -9 -22 -11 -8 -39 61 -116 249 -119 324 -5 32 49 15 58 -103 49 l-94 -7 6 -44 c5 -40 4 -44 -15 -44 -16 0 -22 9 -27 40 -9 53 -35 69 -83 50z"
       id="path130"
       style="fill:#cc9900" />
    <path
       d="M2590 4693 c0 -3 17 -26 38 -51 20 -25 40 -50 43 -55 6 -8 79 62 87 84 2 4 -16 10 -40 13 -97 12 -128 14 -128 9z"
       id="path132"
       style="fill:#cccccc" />
    <path
       d="M7675 4250 c-27 -27 -46 -50 -42 -50 12 0 96 72 101 87 10 25 -10 13 -59 -37z"
       id="path134" />
    <path
       d="M5889 4253 c-1 -10 -2 -34 -4 -53 -1 -19 -6 -103 -9 -187 -4 -83 -8 -160 -10 -170 -2 -10 -7 -63 -11 -118 -4 -55 -9 -107 -10 -115 -2 -9 -6 -60 -10 -115 -3 -55 -8 -113 -10 -130 -2 -16 -6 -70 -10 -120 -4 -49 -8 -100 -10 -112 -2 -11 -7 -71 -10 -132 l-7 -111 253 0 c140 0 271 -3 292 -7 86 -14 0 -21 -262 -23 -151 0 -278 -3 -281 -6 -3 -3 -7 -44 -9 -90 l-3 -84 105 0 c58 0 108 4 111 8 3 5 -4 26 -15 47 -26 49 -19 65 29 65 60 0 138 -27 215 -76 39 -24 81 -44 92 -44 11 0 26 -9 32 -20 23 -35 248 -95 518 -136 119 -18 586 -29 755 -17 l115 8 0 65 0 65 -282 3 c-262 2 -338 10 -245 26 20 3 148 6 285 6 l247 0 0 78 0 79 -282 7 c-156 4 -285 9 -287 12 -15 15 42 19 290 22 l279 3 0 675 c0 371 -3 674 -6 674 -3 0 -34 -20 -68 -45 -35 -25 -68 -45 -73 -45 -19 0 -110 -106 -228 -265 -140 -188 -243 -321 -302 -390 -24 -27 -43 -55 -43 -63 0 -23 -43 -29 -255 -36 l-210 -7 -32 33 c-48 51 -131 187 -228 373 -65 127 -105 191 -158 253 -68 81 -163 173 -219 214 -27 18 -28 18 -29 1z m152 -419 c20 -76 52 -202 73 -278 20 -77 33 -143 29 -146 -4 -4 -70 -10 -145 -14 l-138 -7 0 38 c0 49 22 179 54 318 13 61 28 132 31 158 8 49 28 81 49 74 6 -2 27 -66 47 -143z m1629 99 c3 -103 -1 -465 -6 -490 -3 -18 -12 -37 -19 -43 -18 -15 -280 -19 -295 -4 -13 13 89 216 212 422 74 122 107 158 108 115z m-1262 -759 c16 -5 22 -14 22 -34 0 -35 -26 -99 -53 -127 -50 -55 -117 -2 -117 93 0 31 -2 34 -31 34 -17 0 -74 -7 -125 -16 -102 -17 -138 -14 -113 11 29 28 345 58 417 39z m1202 -43 c0 -69 -41 -121 -95 -121 -39 0 -55 20 -55 69 0 61 5 59 -186 53 -120 -3 -174 -2 -174 6 0 18 26 20 273 21 l237 1 0 -29z m-730 -179 c0 -11 -87 -114 -105 -124 -11 -7 -15 -25 -15 -71 0 -73 2 -76 57 -110 53 -33 58 -43 33 -57 -17 -9 -31 -5 -79 21 l-59 33 -58 -27 c-32 -14 -61 -23 -64 -21 -7 8 48 51 82 65 27 11 28 14 28 90 0 44 -3 79 -7 79 -5 0 -32 23 -61 51 -76 73 -67 79 109 79 77 0 139 -3 139 -8z"
       id="path136"
       style="fill:#6699ff" />
    <path
       d="M5976 3753 c-12 -42 -45 -222 -48 -263 l-3 -45 78 -3 c42 -2 77 1 77 5 0 13 -88 315 -93 320 -3 2 -8 -4 -11 -14z"
       id="path138"
       style="fill:#666699" />
    <path
       d="M7577 3741 c-51 -78 -159 -300 -151 -312 9 -16 154 -4 171 14 10 10 13 53 11 178 l-3 164 -28 -44z"
       id="path140"
       style="fill:#666699" />
    <path
       d="M6326 3142 c-14 -14 -3 -92 13 -92 7 0 31 66 31 82 0 8 -38 17 -44 10z"
       id="path142"
       style="fill:#ff6633" />
    <path
       d="M7519 3133 c-2 -17 3 -69 9 -77 7 -13 20 22 21 57 1 18 -4 27 -14 27 -8 0 -15 -3 -16 -7z"
       id="path144"
       style="fill:#ff6633" />
    <path
       d="M3310 4056 c0 -31 -74 -204 -180 -421 -173 -354 -230 -494 -230 -562 0 -19 9 -89 20 -156 11 -67 36 -225 55 -352 41 -270 53 -302 170 -437 85 -98 170 -161 242 -180 35 -9 168 -12 510 -12 412 1 465 3 487 18 14 9 65 62 113 119 49 57 101 114 117 127 l29 24 18 -23 18 -22 19 38 c77 151 129 382 147 650 l6 92 -68 45 -68 46 -148 0 c-123 0 -149 3 -153 15 -8 20 162 453 188 480 15 16 20 17 27 6 10 -16 50 -196 58 -263 l6 -48 46 0 c72 0 76 7 61 82 -41 202 -138 479 -236 670 l-28 53 -9 -40 c-5 -22 -33 -121 -62 -220 -29 -99 -78 -274 -109 -390 -31 -115 -61 -228 -67 -249 l-11 -39 -166 7 c-264 10 -413 23 -463 41 -43 15 -49 21 -74 78 -52 116 -132 372 -190 605 -32 127 -62 232 -67 232 -4 0 -8 -6 -8 -14z m-36 -425 c3 -4 21 -101 41 -214 19 -114 40 -218 45 -232 6 -15 10 -28 10 -29 0 -19 -292 -8 -312 12 -6 6 -2 22 11 43 11 19 36 79 56 134 20 55 50 136 67 180 36 97 65 134 82 106z m370 -755 c18 -8 41 -24 49 -37 15 -21 15 -24 0 -41 -24 -27 -116 -24 -198 7 -37 13 -104 30 -151 37 -46 7 -84 15 -84 19 0 28 323 41 384 15z m689 -26 c66 -25 97 -49 75 -60 -19 -11 -362 -20 -377 -10 -32 19 13 66 89 91 40 13 150 2 213 -21z m-880 -149 c81 -10 150 -21 153 -24 9 -9 -22 -59 -66 -110 -55 -62 -126 -98 -207 -105 -53 -4 -70 -1 -116 22 -65 31 -135 104 -172 176 -22 43 -24 55 -13 62 18 13 242 2 421 -21z m1114 -40 c78 -4 137 -11 144 -18 9 -9 0 -28 -34 -80 -55 -83 -66 -93 -141 -132 -47 -25 -70 -31 -120 -31 -79 0 -129 30 -214 128 -118 137 -115 142 87 141 80 0 205 -4 278 -8z m-644 -174 c54 -23 61 -40 27 -66 -17 -12 -42 -40 -57 -63 -25 -37 -28 -51 -28 -125 0 -77 2 -87 23 -104 22 -17 26 -17 54 -3 35 18 52 9 23 -12 -31 -23 -66 -28 -99 -16 -22 9 -38 9 -62 0 -37 -13 -84 -4 -84 17 0 18 23 19 50 3 35 -22 45 2 45 115 l0 102 -43 61 c-23 34 -42 65 -42 69 0 33 130 48 193 22z"
       id="path146"
       style="fill:#ff66ff" />
    <path
       d="M3189 3422 c-26 -75 -55 -158 -65 -184 -10 -26 -15 -50 -11 -54 4 -4 52 -9 108 -12 97 -5 102 -4 95 14 -7 17 -48 236 -63 337 -3 20 -8 37 -12 37 -3 0 -27 -62 -52 -138z"
       id="path148"
       style="fill:#cc6699" />
    <path
       d="M3425 2873 c-24 -4 -11 -11 75 -39 109 -36 155 -40 155 -14 0 34 -142 67 -230 53z"
       id="path150"
       style="fill:#cc6699" />
    <path
       d="M4075 2820 l-20 -23 128 6 c121 5 148 9 135 23 -3 3 -55 8 -114 11 -104 5 -110 5 -129 -17z"
       id="path152"
       style="fill:#cc6699" />
    <path
       d="M3067 2713 c-4 -6 14 -39 38 -75 122 -176 296 -196 415 -46 55 70 53 78 -20 78 l-59 0 -10 -38 c-13 -48 -45 -82 -75 -82 -28 0 -34 12 -42 85 l-7 54 -49 10 c-78 17 -185 25 -191 14z"
       id="path154"
       style="fill:#ccff66" />
    <path
       d="M4173 2642 c-7 -5 13 -37 62 -98 58 -71 82 -94 117 -107 111 -43 216 6 297 137 15 24 20 41 14 47 -5 5 -60 8 -124 7 l-114 -3 -12 -48 c-15 -61 -28 -77 -64 -77 -34 0 -48 26 -57 103 l-5 47 -51 0 c-28 0 -56 -4 -63 -8z"
       id="path156"
       style="fill:#ccff66" />
    <path
       d="M3798 2473 c-10 -2 -18 -7 -18 -10 0 -6 60 -103 64 -103 1 0 19 20 39 45 38 45 38 45 15 54 -35 13 -81 19 -100 14z"
       id="path158"
       style="fill:#cc6699" />
    <path
       d="M1722 3880 c-19 -42 -47 -152 -117 -455 -15 -66 -38 -158 -51 -205 -13 -47 -46 -170 -75 -275 -49 -183 -102 -346 -169 -525 -60 -160 -101 -285 -129 -395 -33 -127 -37 -111 67 -225 l60 -65 66 33 c37 17 75 32 86 32 10 0 49 -21 86 -46 59 -40 77 -47 131 -52 47 -3 68 -1 87 11 13 9 71 69 128 134 154 176 271 293 292 293 35 0 169 -172 227 -293 20 -41 27 -48 46 -43 13 3 33 9 46 12 17 4 44 -12 116 -66 67 -49 97 -67 102 -58 9 17 49 182 49 203 0 17 118 259 166 341 l25 43 -15 103 c-9 57 -27 182 -41 278 -68 471 -130 753 -226 1027 -54 155 -77 205 -89 198 -14 -9 -74 -104 -110 -175 -46 -92 -54 -94 -309 -98 -214 -3 -215 -3 -234 20 -16 19 -147 216 -184 274 -10 17 -13 15 -31 -26z m58 -112 c0 -2 11 -34 25 -73 36 -101 36 -100 -46 -114 -38 -7 -73 -10 -77 -7 -8 9 16 121 35 162 12 24 23 34 40 34 13 0 23 -1 23 -2z m840 -78 c0 -89 0 -89 -71 -67 -36 11 -39 15 -34 37 4 14 18 44 31 68 19 31 31 42 49 42 24 0 25 -2 25 -80z m-27 -583 c31 -12 57 -26 57 -30 0 -5 -15 -24 -34 -43 -33 -33 -37 -34 -108 -34 -73 0 -172 22 -183 40 -11 17 13 47 52 65 81 39 117 39 216 2z m-696 -17 c56 -25 54 -44 -11 -87 -84 -57 -152 -64 -246 -27 -22 9 -40 21 -40 28 1 25 85 98 125 109 35 10 127 -3 172 -23z m323 -237 c0 -3 -23 -40 -51 -82 l-52 -75 5 -171 c5 -185 7 -192 69 -266 28 -35 35 -49 26 -58 -20 -20 -35 -12 -83 47 -27 31 -49 58 -50 60 -1 2 -21 -17 -43 -41 -41 -44 -95 -76 -108 -63 -4 4 13 26 37 49 24 23 56 62 72 87 29 45 29 45 27 204 -1 145 -3 162 -23 195 -38 62 -47 89 -33 98 24 15 207 30 207 16z m430 -158 c0 -12 -28 -35 -44 -35 -3 0 -6 11 -6 25 0 20 5 25 25 25 15 0 25 -6 25 -15z m-1072 -57 c-5 -15 -48 -24 -48 -10 0 14 12 22 33 22 10 0 17 -5 15 -12z m755 -23 c-3 -13 -53 -20 -53 -7 0 15 13 23 35 20 11 -2 19 -7 18 -13z m-469 -14 c3 -4 -1 -17 -9 -27 -13 -18 -15 -18 -31 -2 -9 9 -13 21 -10 27 8 13 43 15 50 2z m626 -101 c0 -23 -26 -38 -41 -23 -14 14 0 43 22 43 12 0 19 -7 19 -20z m-775 1 c8 -15 -35 -35 -47 -23 -6 6 -7 15 -4 21 9 14 43 14 51 2z m153 -84 c3 -12 -3 -17 -22 -17 -25 0 -35 18 -19 34 12 12 38 2 41 -17z m461 -6 c16 -28 -13 -51 -36 -28 -18 18 -11 47 11 47 9 0 20 -9 25 -19z m309 -24 c3 -15 -2 -18 -25 -15 -17 2 -29 10 -31 21 -3 15 2 18 25 15 17 -2 29 -10 31 -21z m-1088 -36 c0 -6 -5 -13 -10 -16 -15 -9 -43 3 -35 15 8 13 45 13 45 1z"
       id="path160"
       style="fill:#ff3300" />
    <path
       d="M2496 3068 c-9 -36 -8 -38 28 -38 47 0 64 23 34 44 -32 22 -55 20 -62 -6z"
       id="path162"
       style="fill:#66ccff" />
    <path
       d="M2397 3073 c-13 -12 -7 -23 13 -23 13 0 18 5 14 15 -7 16 -17 19 -27 8z"
       id="path164"
       style="fill:#66ccff" />
    <path
       d="M1697 3053 c-20 -14 -37 -30 -37 -34 0 -8 55 -29 76 -29 15 0 20 75 6 84 -5 3 -25 -7 -45 -21z"
       id="path166"
       style="fill:#66ccff" />
    <path
       d="M1826 3054 c-17 -44 7 -60 38 -25 17 19 17 20 -3 30 -26 14 -28 14 -35 -5z"
       id="path168"
       style="fill:#66ccff" />
    <path
       d="M87 3804 c-4 -4 -7 -26 -7 -49 0 -36 4 -44 28 -54 82 -39 207 -19 278 44 49 42 38 57 -37 53 l-54 -3 -5 -40 c-7 -57 -34 -55 -38 3 l-3 42 -64 0 c-35 0 -70 2 -77 5 -8 3 -17 2 -21 -1z"
       id="path170"
       style="fill:#cc9900" />
    <path
       d="M649 3512 c21 -39 36 -43 69 -18 18 12 29 26 25 29 -3 4 -28 7 -55 7 -44 0 -48 -2 -39 -18z"
       id="path172"
       style="fill:#cc99cc" />
    <path
       d="M4597 3454 c-17 -29 -128 -328 -130 -351 l-2 -28 98 -3 c53 -1 97 1 97 6 0 5 -22 21 -49 35 -85 47 -92 77 -21 98 22 7 44 17 50 24 6 7 4 45 -6 105 -15 94 -27 130 -37 114z"
       id="path174"
       style="fill:#cc6699" />
    <path
       d="M5163 3217 c4 -23 18 -116 31 -207 14 -91 32 -244 40 -340 9 -96 18 -193 20 -215 3 -22 8 -76 12 -120 3 -44 8 -87 9 -95 2 -8 6 -55 9 -105 4 -49 9 -117 11 -150 6 -74 13 -190 20 -315 8 -140 14 -197 31 -277 18 -84 20 -85 111 -52 100 37 340 156 414 205 81 53 183 167 237 264 36 63 37 69 40 182 4 116 -3 179 -35 319 l-16 71 -20 -21 -21 -21 23 -24 c30 -32 26 -80 -6 -84 -20 -3 -23 1 -23 27 0 28 -3 30 -47 37 l-47 7 -46 -53 c-34 -38 -52 -52 -64 -47 -14 6 -16 21 -14 117 3 127 0 132 -71 128 l-45 -3 3 94 3 95 -40 -35 c-54 -46 -129 -99 -141 -99 -16 0 -32 63 -42 175 -6 61 -12 121 -14 135 -3 14 -8 73 -11 133 -6 96 -5 107 10 107 53 0 168 -78 206 -139 14 -22 28 -41 33 -41 4 0 7 21 7 48 0 26 3 80 7 119 l6 73 -47 20 c-112 48 -340 106 -490 124 l-49 6 6 -43z m492 -1223 c56 -28 119 -85 141 -126 19 -37 18 -123 -3 -183 -24 -65 -111 -155 -176 -180 -36 -13 -51 -15 -59 -7 -13 13 -25 463 -14 507 6 23 10 26 34 20 15 -4 50 -18 77 -31z"
       id="path176"
       style="fill:#990099" />
    <path
       d="M5567 1963 c-4 -3 -7 -17 -7 -30 0 -22 4 -23 65 -23 36 0 65 4 65 9 0 8 -90 51 -108 51 -5 0 -12 -3 -15 -7z"
       id="path178"
       style="fill:#ffcc00" />
    <path
       d="M5599 1753 c-28 -7 -40 -123 -19 -178 l10 -26 32 18 c68 38 171 166 151 187 -7 7 -148 6 -174 -1z"
       id="path180"
       style="fill:#ffcc00" />
    <path
       d="M5065 3225 c-22 -7 -117 -20 -211 -29 -93 -9 -183 -20 -199 -24 -29 -8 -28 -10 75 -77 171 -111 363 -231 397 -249 42 -21 53 -20 53 4 0 35 -74 103 -167 154 -185 102 -207 122 -164 146 11 5 40 10 65 10 53 0 188 19 204 29 11 7 5 52 -7 50 -3 -1 -24 -7 -46 -14z"
       id="path182"
       style="fill:#990099" />
    <path
       d="M5015 3116 l-79 -11 79 -47 c44 -26 95 -57 114 -70 l34 -22 -7 59 c-11 92 -15 105 -40 104 -11 -1 -57 -7 -101 -13z"
       id="path184"
       style="fill:#cc6666" />
    <path
       d="M1003 3066 c-4 -8 -69 -79 -144 -157 -75 -79 -168 -182 -208 -229 -131 -155 -167 -168 -383 -146 -86 9 -163 16 -172 16 -14 0 -16 -56 -16 -602 l1 -603 37 40 c56 59 142 164 179 218 33 47 61 59 81 35 5 -7 24 -67 42 -132 36 -137 54 -186 70 -186 33 0 69 33 86 77 9 27 48 129 86 228 85 220 111 295 106 300 -2 2 -24 -1 -48 -6 -25 -6 -94 -9 -155 -7 -98 4 -117 8 -175 35 -36 17 -78 43 -95 57 l-30 26 45 41 c110 102 287 141 455 102 39 -8 89 -16 112 -17 45 -2 57 -10 143 -98 25 -27 50 -48 56 -48 34 0 55 563 28 750 -13 89 -77 320 -89 320 -2 0 -8 -6 -12 -14z m44 -371 c42 -118 40 -242 -4 -233 -14 2 -18 15 -19 61 -1 31 -5 74 -9 95 l-7 37 -20 -40 c-28 -55 -75 -103 -110 -110 -42 -10 -44 -1 -4 23 41 24 62 61 76 134 21 105 18 100 48 96 23 -3 30 -12 49 -63z m-852 -810 c0 -22 -31 -33 -48 -16 -7 7 -6 15 3 26 17 21 45 15 45 -10z m3 -147 c15 -15 -3 -38 -29 -38 -24 0 -33 18 -19 35 15 18 32 19 48 3z"
       id="path186"
       style="fill:#9900ff" />
    <path
       d="M5510 2960 c0 -29 1 -30 50 -30 28 0 50 5 50 10 0 9 -80 50 -96 50 -2 0 -4 -13 -4 -30z"
       id="path188"
       style="fill:#ffcc00" />
    <path
       d="M5547 2789 c-16 -10 -18 -20 -13 -78 4 -36 9 -83 12 -103 6 -37 6 -37 32 -24 15 8 46 31 69 51 45 39 70 97 59 141 -6 22 -11 24 -74 24 -37 0 -75 -5 -85 -11z"
       id="path190"
       style="fill:#ffcc00" />
    <path
       d="M5800 2641 c-24 -7 -25 -11 -28 -89 l-4 -82 151 0 c114 0 151 3 151 13 0 22 -38 138 -50 153 -9 10 -35 14 -104 13 -50 -1 -102 -4 -116 -8z"
       id="path192"
       style="fill:#6699ff" />
    <path
       d="M5870 2441 c0 -5 18 -24 41 -42 38 -30 43 -31 78 -20 50 14 68 35 51 56 -9 11 -33 15 -91 15 -44 0 -79 -4 -79 -9z"
       id="path194"
       style="fill:#cc6666" />
    <path
       d="M6265 2388 c13 -46 24 -49 84 -26 25 10 25 10 -29 38 -30 16 -58 29 -61 30 -4 0 -1 -19 6 -42z"
       id="path196"
       style="fill:#66ffff" />
    <path
       d="M5870 2330 c0 -46 5 -49 30 -17 17 20 17 24 3 40 -25 26 -33 21 -33 -23z"
       id="path198"
       style="fill:#cc6666" />
    <path
       d="M8380 2335 c-26 -28 -26 -30 13 -39 26 -6 27 -5 27 29 0 42 -8 44 -40 10z"
       id="path200"
       style="fill:#66ffff" />
    <path
       d="M5005 2136 c-162 -164 -287 -429 -387 -821 -54 -216 -67 -325 -63 -560 3 -234 16 -311 81 -513 36 -111 51 -134 77 -114 6 5 24 12 39 16 15 3 58 32 95 64 130 110 243 193 261 190 11 -2 19 -16 23 -41 3 -22 15 -44 26 -52 15 -10 21 -26 21 -53 1 -37 54 -158 77 -174 5 -4 101 -8 213 -8 159 0 204 3 208 13 10 28 -18 68 -91 128 -41 34 -75 65 -75 69 0 4 24 18 53 30 72 32 207 39 256 13 62 -32 63 -48 6 -101 -28 -26 -63 -57 -78 -70 -21 -17 -27 -30 -25 -50 l3 -27 195 0 195 0 2 42 c2 59 41 126 141 240 47 54 92 106 100 115 13 16 11 16 -24 6 -22 -6 -75 -11 -120 -11 -75 0 -87 3 -178 46 -87 42 -97 49 -85 63 17 21 100 57 169 75 62 15 232 18 331 6 l67 -8 35 58 c41 67 93 213 102 288 8 59 17 51 -155 125 -52 22 -100 44 -107 48 -6 4 -71 47 -144 96 -154 102 -159 105 -159 79 0 -11 -7 -43 -15 -71 -19 -62 -23 -63 -129 -27 -174 59 -410 49 -516 -22 -39 -26 -63 -29 -78 -10 -11 14 -106 408 -184 764 -37 170 -57 243 -66 243 -8 0 -51 -38 -97 -84z m16 -208 c3 -22 1 -60 -10 -173 -25 -262 -24 -412 5 -531 5 -21 1 -22 -115 -29 -67 -4 -124 -11 -127 -16 -3 -5 -12 -9 -21 -9 -14 0 -15 14 -10 113 7 141 38 298 82 404 36 89 114 214 148 238 26 18 47 19 48 3z m81 -1258 c110 -18 288 -74 288 -90 0 -4 -64 -27 -142 -51 -133 -41 -151 -44 -258 -44 -96 0 -122 3 -161 21 -53 25 -121 82 -113 95 11 18 108 61 168 74 82 18 87 18 218 -5z"
       id="path202"
       style="fill:#00ffff" />
    <path
       d="M4942 1833 c-83 -130 -136 -290 -152 -461 -5 -59 -10 -110 -10 -114 0 -4 7 -14 16 -22 11 -11 35 -16 83 -16 85 0 96 10 81 71 -9 41 -5 365 5 419 9 44 18 170 12 170 -3 0 -19 -21 -35 -47z"
       id="path204"
       style="fill:#009999" />
    <path
       d="M5055 604 c12 -98 17 -102 105 -83 l50 11 0 48 0 48 -47 11 c-27 5 -63 13 -82 17 l-34 6 8 -58z"
       id="path206"
       style="fill:#ccff00" />
    <path
       d="M2941 2148 c-53 -97 -99 -196 -110 -233 -6 -22 -22 -87 -36 -145 -34 -136 -79 -283 -171 -559 -85 -252 -109 -307 -155 -345 -30 -26 -31 -27 -15 -51 9 -14 65 -74 124 -134 73 -74 116 -110 137 -114 17 -4 103 -10 192 -13 161 -7 162 -7 216 19 39 20 80 56 151 131 56 61 126 125 166 151 39 26 75 55 80 66 8 13 21 19 46 19 19 0 49 7 65 16 36 18 27 36 -27 56 -39 14 -41 19 -16 40 72 64 217 65 292 2 39 -33 38 -50 -4 -58 -39 -7 -59 -27 -81 -79 -21 -51 -19 -100 6 -128 l20 -24 -6 23 c-6 19 -3 22 23 22 36 0 48 -23 25 -46 -13 -12 -30 -15 -69 -12 -47 4 -53 2 -63 -19 -21 -45 -50 -179 -56 -259 l-7 -81 28 -7 c34 -9 72 -35 142 -98 45 -42 58 -48 95 -48 116 0 412 77 537 139 l55 27 -3 60 c-1 32 -3 174 -4 314 -1 221 1 268 19 352 11 54 16 98 12 98 -4 0 -10 -9 -14 -20 -8 -27 -53 -60 -80 -60 -36 0 -49 27 -55 114 l-5 81 -200 -3 c-144 -2 -195 0 -183 8 10 6 118 13 265 16 136 3 265 10 286 16 38 9 39 10 32 49 -6 33 -2 46 24 86 17 25 45 82 63 127 40 99 43 189 9 276 -12 30 -31 90 -42 133 -12 42 -26 77 -33 77 -6 0 -42 -37 -80 -82 -38 -46 -83 -94 -100 -108 l-30 -25 -526 0 -525 1 -59 23 c-33 13 -85 47 -120 77 -79 69 -205 174 -209 174 -2 0 -14 -19 -26 -42z m71 -78 c16 -22 58 -124 58 -141 0 -9 -125 -18 -159 -10 l-29 6 25 65 c13 36 29 75 34 88 12 30 45 26 71 -8z m1628 -115 l0 -75 -67 0 c-80 0 -100 9 -85 37 18 34 110 113 132 113 18 0 20 -6 20 -75z m-1655 -560 c55 -8 180 -18 278 -21 173 -7 219 -17 136 -30 -39 -7 -43 -11 -66 -63 -64 -145 -139 -150 -135 -8 3 82 0 87 -78 87 -112 0 -300 26 -300 40 0 14 47 12 165 -5z m975 -435 c0 -6 -7 -13 -15 -16 -20 -8 -48 3 -40 16 8 13 55 13 55 0z m-62 -62 c-7 -19 -38 -22 -38 -4 0 10 9 16 21 16 12 0 19 -5 17 -12z m67 -58 c-3 -5 -15 -10 -26 -10 -10 0 -19 5 -19 10 0 6 12 10 26 10 14 0 23 -4 19 -10z"
       id="path208"
       style="fill:#339900" />
    <path
       d="M2957 1989 c-17 -40 -8 -54 27 -45 23 6 25 8 14 34 -19 45 -26 46 -41 11z"
       id="path210"
       style="fill:#006633" />
    <path
       d="M4560 1943 c-13 -17 -17 -30 -11 -36 18 -18 41 1 41 33 0 37 -3 37 -30 3z"
       id="path212"
       style="fill:#006633" />
    <path
       d="M3256 1334 c-9 -25 -7 -119 3 -108 13 14 41 106 35 115 -9 14 -31 10 -38 -7z"
       id="path214"
       style="fill:#0033ff" />
    <path
       d="M565 2159 c-33 -4 -78 -15 -100 -24 -42 -18 -135 -82 -135 -93 1 -13 112 -72 156 -83 66 -17 229 -7 279 17 32 16 41 27 52 64 18 59 11 85 -9 39 -48 -109 -159 -86 -144 30 6 45 5 49 -16 53 -13 2 -50 0 -83 -3z"
       id="path216"
       style="fill:#66ccff" />
    <path
       d="M719 2127 c-7 -16 -7 -31 1 -52 11 -29 12 -29 26 -11 8 11 14 32 14 47 0 35 -27 46 -41 16z"
       id="path218"
       style="fill:#66ccff" />
    <path
       d="M6827 2088 c18 -51 12 -156 -11 -212 -9 -22 -11 -36 -4 -36 20 0 189 60 239 85 27 14 49 31 46 38 -12 38 -184 148 -254 162 l-31 6 15 -43z"
       id="path220"
       style="fill:#66ccff" />
    <path
       d="M6576 2080 c-70 -34 -142 -101 -157 -148 -9 -28 -8 -36 6 -52 27 -30 102 -51 199 -57 85 -6 89 -5 81 13 -25 60 -36 125 -32 197 3 73 3 77 -17 77 -12 -1 -47 -14 -80 -30z"
       id="path222"
       style="fill:#66ccff" />
    <path
       d="M874 2043 c-9 -32 -59 -166 -111 -298 -156 -393 -185 -506 -185 -725 -1 -338 123 -681 325 -904 l44 -49 299 8 c340 8 332 6 454 105 35 27 69 50 76 50 7 0 19 -10 26 -22 l12 -23 6 25 c4 14 8 95 9 180 1 118 -3 180 -18 260 -22 116 -48 210 -62 225 -15 15 -10 33 9 40 12 3 50 -12 103 -41 152 -84 200 -121 312 -243 27 -29 64 -59 83 -67 36 -15 121 -19 141 -6 13 8 63 140 63 165 0 7 -18 31 -40 52 -22 21 -40 44 -40 50 0 5 17 26 39 46 21 21 51 63 66 95 l27 58 -5 180 c-4 159 -8 195 -35 301 -52 202 -136 389 -221 495 -49 60 -70 79 -88 80 -11 0 -95 -93 -301 -332 -37 -42 -76 -80 -87 -83 -12 -3 -67 -1 -124 4 -57 6 -151 11 -210 11 -150 0 -167 7 -243 93 -34 39 -65 74 -68 77 -3 3 -34 39 -69 80 -84 98 -153 170 -163 170 -4 0 -15 -26 -24 -57z m101 -154 c47 -74 95 -165 95 -181 0 -11 -14 -18 -47 -23 -25 -4 -92 -20 -147 -36 -56 -16 -104 -29 -108 -29 -16 0 -7 35 28 114 63 142 78 167 104 181 38 21 48 18 75 -26z m1242 -10 c17 -35 48 -213 40 -233 -5 -13 -21 -16 -84 -15 -89 0 -170 12 -183 25 -21 21 104 198 164 235 37 23 47 21 63 -12z m-1035 -606 c15 -17 58 -145 58 -172 0 -15 -46 -14 -125 4 -98 23 -196 2 -262 -55 -19 -17 -38 -30 -43 -30 -17 0 -19 17 -4 39 23 32 95 65 187 85 20 5 27 12 27 31 0 36 18 78 43 97 29 23 99 24 119 1z m836 -22 c7 -4 24 -34 37 -66 l23 -58 74 -23 c86 -27 164 -86 138 -104 -21 -14 -23 -14 -76 23 -88 60 -147 71 -276 52 -51 -7 -94 -12 -97 -10 -2 2 6 25 18 50 11 24 21 49 21 54 0 5 12 24 27 41 37 44 81 60 111 41z m-355 -309 c56 -25 69 -48 40 -71 -12 -9 -44 -44 -72 -78 -75 -91 -109 -84 -216 42 -55 64 -53 72 30 112 61 29 145 27 218 -5z m-83 -372 c0 -94 1 -100 24 -115 22 -15 26 -14 57 4 38 23 63 27 57 9 -9 -26 -72 -49 -122 -44 -26 3 -68 0 -92 -6 -37 -10 -49 -9 -79 5 -19 9 -35 23 -35 32 0 20 48 20 71 -1 41 -37 59 4 59 131 0 39 3 75 7 78 3 4 17 7 30 7 23 0 23 -2 23 -100z"
       id="path224"
       style="fill:#ccffff" />
    <path
       d="M877 1789 c-21 -45 -40 -92 -43 -104 l-5 -22 78 20 c43 10 82 23 86 27 8 7 -36 105 -65 143 -12 17 -17 10 -51 -64z"
       id="path226"
       style="fill:#66ff99" />
    <path
       d="M2118 1803 c-46 -64 -81 -123 -76 -128 6 -6 152 -23 157 -19 8 7 -31 194 -39 194 -5 0 -24 -21 -42 -47z"
       id="path228"
       style="fill:#66ff99" />
    <path
       d="M1096 1252 c-3 -5 -8 -28 -12 -51 -8 -48 2 -61 49 -61 27 0 28 2 22 33 -14 63 -44 104 -59 79z"
       id="path230"
       style="fill:#ccff00" />
    <path
       d="M1945 1186 c-9 -13 -17 -37 -18 -52 -2 -27 1 -29 28 -26 47 6 56 21 38 65 -18 43 -27 46 -48 13z"
       id="path232"
       style="fill:#ccff00" />
    <path
       d="M1473 920 c-13 -5 -23 -16 -23 -23 0 -21 110 -134 116 -119 3 7 26 37 50 66 l44 54 -47 16 c-51 18 -106 20 -140 6z"
       id="path234"
       style="fill:#ff9966" />
    <path
       d="M7794 2032 c-74 -37 -144 -85 -144 -101 0 -4 22 -24 50 -45 54 -41 166 -85 217 -86 l32 0 -19 34 c-31 51 -33 151 -5 219 12 30 -43 21 -131 -21z"
       id="path236"
       style="fill:#00cc00" />
    <path
       d="M8066 1978 c2 -52 -2 -98 -11 -123 -8 -21 -12 -41 -10 -44 13 -13 255 100 255 119 0 7 -190 116 -218 124 -17 6 -18 0 -16 -76z"
       id="path238"
       style="fill:#00cc00" />
    <path
       d="M7315 1836 c-16 -7 -40 -25 -53 -39 l-24 -25 46 -42 c40 -37 46 -48 46 -82 0 -21 -6 -51 -14 -66 -25 -49 -29 -72 -12 -72 8 0 21 9 30 21 l14 21 30 -22 c18 -14 37 -20 47 -16 14 5 12 11 -14 45 -46 58 -44 109 9 168 49 56 50 77 8 103 -38 23 -71 25 -113 6z m76 -26 c26 -14 24 -42 -5 -69 l-23 -22 -32 26 c-32 27 -41 59 -18 68 21 9 58 7 78 -3z"
       id="path240"
       style="fill:#ccff99" />
    <path
       d="M6910 1655 c-59 -12 -162 -46 -281 -96 -69 -28 -198 -67 -247 -75 -23 -4 -45 -11 -48 -15 -7 -11 0 -11 72 2 79 14 194 51 334 109 63 26 148 53 188 60 39 6 72 16 72 21 0 11 -8 11 -90 -6z"
       id="path242"
       style="fill:#66ffff" />
    <path
       d="M7858 1654 c-48 -14 -5 -22 125 -22 78 0 207 -8 286 -17 99 -11 147 -13 154 -6 7 7 6 12 -4 15 -50 18 -519 42 -561 30z"
       id="path244"
       style="fill:#66ffff" />
    <path
       d="M254 1480 c-43 -52 -100 -118 -126 -146 l-48 -51 0 -110 0 -110 66 -12 c126 -23 207 -84 261 -196 43 -89 45 -157 7 -233 -53 -107 -146 -170 -307 -206 l-27 -6 0 -170 0 -170 156 0 155 0 16 38 c9 20 17 56 17 80 1 61 29 66 102 18 74 -49 104 -61 104 -39 0 17 -58 358 -65 383 -2 8 -22 121 -44 250 -22 129 -51 280 -65 335 -19 78 -102 376 -119 429 -2 6 -39 -33 -83 -84z m81 -83 c3 -12 5 -56 3 -97 l-3 -75 -30 1 c-16 1 -46 7 -65 14 -19 7 -41 15 -48 17 -10 2 -7 15 13 51 56 97 118 139 130 89z m156 -897 c28 -16 23 -30 -12 -30 -36 0 -72 17 -64 31 8 12 51 12 76 -1z m-38 -72 c21 -11 22 -27 2 -34 -16 -7 -82 13 -90 27 -18 29 38 34 88 7z m-75 -54 c52 -34 -12 -47 -67 -13 -27 16 -31 23 -20 30 17 11 55 3 87 -17z"
       id="path246"
       style="fill:#6633ff" />
    <path
       d="M267 1315 c-4 -8 -2 -17 3 -20 6 -4 10 3 10 14 0 25 -6 27 -13 6z"
       id="path248" />
    <path
       d="M6900 1509 c-90 -49 -137 -82 -124 -86 9 -3 205 105 221 121 19 19 -32 0 -97 -35z"
       id="path250"
       style="fill:#66ffff" />
    <path
       d="M7837 1523 c-14 -13 -6 -21 31 -27 21 -3 85 -20 143 -37 161 -48 210 -58 240 -52 35 7 28 23 -10 23 -15 0 -60 11 -99 25 -175 61 -287 86 -305 68z"
       id="path252"
       style="fill:#66ffff" />
    <path
       d="M6727 1348 c-3 -18 -6 -80 -6 -138 -3 -306 -56 -446 -256 -670 -162 -181 -242 -276 -262 -310 -27 -45 -46 -115 -37 -142 6 -20 6 -20 605 -16 418 2 602 7 610 15 6 6 13 38 16 71 5 56 4 61 -18 72 -38 20 -69 52 -69 72 0 22 39 48 71 47 13 0 48 2 76 6 50 7 53 7 62 -19 13 -34 5 -54 -37 -93 -33 -31 -34 -36 -30 -88 3 -31 10 -61 17 -68 10 -10 53 -11 281 -7 19 1 114 -2 210 -6 96 -3 189 -2 207 2 l31 9 -51 110 c-27 61 -50 124 -50 140 1 17 29 107 64 200 66 179 65 173 59 358 -2 87 16 256 36 333 8 31 13 58 12 59 -5 4 -171 -109 -260 -176 l-81 -60 -96 6 c-53 4 -253 10 -445 13 l-348 7 -61 70 c-65 74 -228 235 -238 235 -4 0 -9 -15 -12 -32z m132 -219 c23 -34 40 -67 37 -74 -2 -7 -18 -15 -35 -18 -20 -4 -35 -16 -43 -32 -16 -35 -55 -34 -64 1 -9 34 1 136 15 163 20 36 45 25 90 -40z m1311 -29 c0 -31 -16 -109 -31 -147 -11 -28 -35 -29 -74 -3 -16 11 -42 20 -57 20 -15 0 -29 4 -32 9 -3 5 24 36 62 68 103 92 132 103 132 53z m-958 -137 c-61 -78 -66 -114 -26 -163 53 -62 104 -69 118 -15 6 25 45 43 65 30 6 -3 11 -22 11 -41 0 -51 31 -78 83 -70 94 15 174 123 122 166 -20 16 -19 36 1 44 52 20 94 -13 94 -74 0 -32 -7 -47 -38 -79 -46 -48 -150 -99 -218 -107 -42 -5 -55 -2 -87 20 -21 15 -52 26 -70 26 -86 0 -170 57 -182 123 -14 72 61 177 126 177 l31 0 -30 -37z m-192 -408 c10 -27 3 -82 -13 -102 -14 -18 -64 -16 -71 3 -14 38 0 98 28 116 22 15 47 7 56 -17z m841 -6 c21 -40 -14 -129 -51 -129 -20 0 -50 41 -50 69 0 63 75 108 101 60z m-81 -334 c-13 -16 -50 -21 -50 -7 0 15 13 22 38 22 21 0 22 -2 12 -15z m-703 -22 c5 -13 -32 -27 -47 -18 -8 5 -7 11 1 21 14 17 40 15 46 -3z m551 -35 c-3 -7 -20 -14 -39 -16 -32 -2 -33 -1 -15 13 24 18 59 20 54 3z m-418 -22 c0 -18 -31 -29 -44 -16 -8 8 -7 14 4 20 22 14 40 12 40 -4z"
       id="path254"
       style="fill:#0066cc" />
    <path
       d="M6800 1089 c0 -25 18 -45 30 -33 7 7 5 16 -10 29 -15 14 -20 15 -20 4z"
       id="path256"
       style="fill:none" />
    <path
       d="M8082 1037 c-26 -27 -28 -37 -7 -37 14 0 41 48 32 56 -2 2 -13 -6 -25 -19z"
       id="path258"
       style="fill:none" />
    <path
       d="M6581 1302 c-40 -31 -68 -58 -62 -60 19 -6 151 89 151 109 0 16 -14 9 -89 -49z"
       id="path260"
       style="fill:#66ffff" />
    <path
       d="M4460 1324 c-17 -45 -10 -124 11 -124 11 0 47 79 56 120 5 28 4 30 -26 30 -25 0 -34 -6 -41 -26z"
       id="path262"
       style="fill:#0033ff" />
    <path
       d="M8376 985 c-21 -60 -57 -157 -79 -215 -102 -269 -147 -401 -147 -434 0 -27 90 -236 102 -236 5 0 48 21 95 47 l86 46 -6 160 c-3 87 -8 161 -10 164 -3 2 -35 -8 -72 -22 -36 -15 -69 -25 -71 -22 -3 2 11 34 31 69 19 36 35 71 35 78 0 8 20 64 44 125 l44 110 -7 120 -6 120 -39 -110z"
       id="path264"
       style="fill:#ff3333" />
    <path
       d="M3668 1069 c-16 -6 -28 -14 -28 -17 0 -14 99 -62 128 -62 16 0 40 8 53 19 l23 19 -40 20 c-51 26 -102 34 -136 21z"
       id="path266"
       style="fill:#669966" />
    <path
       d="M80 920 l0 -93 39 -42 c54 -59 88 -130 101 -211 6 -38 12 -70 14 -71 2 -2 23 12 48 32 87 66 112 160 73 280 -31 96 -127 174 -234 191 l-41 7 0 -93z"
       id="path268"
       style="fill:#66cc33" />
    <path
       d="M3664 926 c-143 -56 -204 -98 -339 -239 -55 -57 -120 -117 -144 -133 l-44 -29 -376 -7 c-207 -4 -407 -10 -445 -14 -88 -8 -117 6 -183 90 -26 33 -63 78 -81 98 -34 37 -158 120 -200 133 -20 6 -23 4 -18 -12 3 -10 15 -81 27 -158 24 -165 26 -351 5 -474 -8 -47 -13 -88 -11 -91 10 -16 347 -21 1006 -14 l707 7 12 41 c19 62 25 163 11 180 -10 12 -9 20 4 40 17 25 16 26 -9 37 -33 15 -33 25 2 43 25 13 28 22 39 98 9 65 78 303 120 416 7 17 -13 14 -83 -12z m-39 -196 c4 -6 2 -17 -5 -24 -6 -8 -20 -67 -31 -133 -25 -145 -47 -187 -79 -149 -15 19 -83 43 -142 51 -27 3 -48 10 -48 15 0 28 180 193 255 233 36 19 42 20 50 7z m-1608 -147 c126 -123 153 -183 81 -183 -42 0 -112 -35 -132 -65 -15 -23 -56 -35 -56 -17 -5 148 -11 246 -18 278 -10 44 -1 74 22 74 7 0 53 -39 103 -87z"
       id="path270"
       style="fill:#6666cc" />
    <path
       d="M3458 592 c-37 -38 -68 -73 -68 -79 0 -14 119 -28 130 -17 13 14 28 164 16 164 -5 0 -40 -31 -78 -68z"
       id="path272"
       style="fill:#333366" />
    <path
       d="M1953 556 c4 -10 7 -49 7 -88 0 -62 2 -70 18 -65 66 22 92 33 92 38 0 12 -65 88 -94 111 -25 19 -29 20 -23 4z"
       id="path274"
       style="fill:#333366" />
    <path
       d="M8386 620 c-15 -45 -26 -83 -24 -86 3 -2 19 1 36 7 31 11 32 13 31 67 -1 99 -12 102 -43 12z"
       id="path276"
       style="fill:#ff3333" />
    <path
       d="M6141 627 c-12 -16 -5 -95 11 -114 6 -8 34 -13 65 -13 l55 0 -5 60 c-4 34 -9 65 -12 70 -9 15 -101 12 -114 -3z"
       id="path278"
       style="fill:#ccff00" />
    <path
       d="M3672 306 c-6 -14 -13 -51 -17 -83 -5 -56 -5 -57 10 -30 12 20 23 27 45 27 30 0 49 -21 91 -105 13 -27 21 -31 74 -36 81 -9 544 -9 575 0 35 10 8 24 -30 16 -30 -7 -35 -1 -31 32 1 8 -14 2 -35 -12 -40 -27 -79 -32 -119 -13 -19 9 -28 9 -37 0 -8 -8 -50 -12 -118 -12 l-107 0 -134 120 c-74 65 -139 119 -145 120 -6 0 -16 -11 -22 -24z"
       id="path280"
       style="fill:#990066" />
    <path
       d="M7441 309 c-24 -20 -50 -24 -67 -11 -5 4 1 -3 14 -15 30 -30 58 -29 78 3 22 33 6 49 -25 23z"
       id="path282"
       style="fill:#669999" />
    <path
       d="M4988 263 c-42 -32 -106 -85 -142 -117 -73 -64 -73 -76 0 -76 36 0 45 5 70 38 47 62 116 132 130 132 34 0 49 -115 18 -141 -24 -20 6 -31 66 -23 l50 7 -30 52 c-17 29 -30 61 -30 71 0 18 -33 89 -49 107 -4 4 -42 -18 -83 -50z"
       id="path284"
       style="fill:#990066" />
    <path
       d="M5608 303 c-21 -8 -38 -18 -38 -22 0 -4 12 -18 28 -31 15 -13 44 -38 65 -57 20 -18 40 -33 45 -33 17 0 112 93 112 110 0 43 -138 64 -212 33z"
       id="path286"
       style="fill:#66cc99" />
    <path
       d="M470 134 c-13 -33 -13 -54 0 -54 6 0 10 4 10 9 0 21 41 22 66 2 28 -22 104 -30 104 -11 0 6 -6 10 -12 10 -7 0 -44 16 -81 35 -38 19 -70 35 -73 35 -2 0 -9 -12 -14 -26z"
       id="path288"
       style="fill:#3333cc" />
    <path
       d="M1715 128 c-22 -16 -47 -33 -55 -38 -27 -15 -3 -21 59 -14 65 7 73 17 48 60 -12 21 -12 21 -52 -8z"
       id="path290"
       style="fill:#66ffcc" />
    <path
       d="M4997 137 c-14 -21 -13 -24 4 -35 17 -11 19 -9 19 23 0 41 -3 43 -23 12z"
       id="path292"
       style="fill:none" />
    <path
       d="M8358 124 c-32 -20 -58 -40 -58 -45 0 -6 27 -9 63 -7 l62 3 3 34 c2 18 0 37 -5 42 -4 4 -34 -8 -65 -27z"
       id="path294"
       style="fill:#ff3333" />
    <path
       d="M3700 131 c0 -11 -3 -26 -6 -35 -5 -12 0 -16 20 -16 29 0 31 7 14 45 -13 30 -28 33 -28 6z"
       id="path296"
       style="fill:#990066" />
    <use
       id="use3628"
       xlink:href="#path72"
       x="0"
       y="0"
       width="100%"
       height="100%"
       transform="translate(6731.152,-4029.1605)" />
  </g>
</svg>
