<?xml version="1.0" encoding="UTF-8" standalone="no"?>
<svg
   xmlns:dc="http://purl.org/dc/elements/1.1/"
   xmlns:cc="http://creativecommons.org/ns#"
   xmlns:rdf="http://www.w3.org/1999/02/22-rdf-syntax-ns#"
   xmlns:svg="http://www.w3.org/2000/svg"
   xmlns="http://www.w3.org/2000/svg"
   xmlns:sodipodi="http://sodipodi.sourceforge.net/DTD/sodipodi-0.dtd"
   xmlns:inkscape="http://www.inkscape.org/namespaces/inkscape"
   version="1.0"
   width="850.000000pt"
   height="850.000000pt"
   viewBox="0 0 850.000000 850.000000"
   preserveAspectRatio="xMidYMid meet"
   id="svg2"
   inkscape:version="0.91 r13725"
   sodipodi:docname="Heart_love_2018916_15.svg">
  <defs
     id="defs634" />
  <sodipodi:namedview
     pagecolor="#ffffff"
     bordercolor="#666666"
     borderopacity="1"
     objecttolerance="10"
     gridtolerance="10"
     guidetolerance="10"
     inkscape:pageopacity="0"
     inkscape:pageshadow="2"
     inkscape:window-width="1920"
     inkscape:window-height="974"
     id="namedview632"
     showgrid="false"
     inkscape:zoom="1.2564872"
     inkscape:cx="556.69773"
     inkscape:cy="489.28774"
     inkscape:window-x="0"
     inkscape:window-y="1"
     inkscape:window-maximized="1"
     inkscape:current-layer="svg2" />
  <metadata
     id="metadata4">
Created by potrace 1.14, written by Peter Selinger 2001-2017
<rdf:RDF>
  <cc:Work
     rdf:about="">
    <dc:format>image/svg+xml</dc:format>
    <dc:type
       rdf:resource="http://purl.org/dc/dcmitype/StillImage" />
  </cc:Work>
</rdf:RDF>
</metadata>
  <g
     transform="translate(0.000000,850.000000) scale(0.100000,-0.100000)"
     fill="#000000"
     stroke="none"
     id="g6">
    <path
       d="M0 4250 l0 -4250 4250 0 4250 0 0 4250 0 4250 -4250 0 -4250 0 0 -4250z m6200 2678 c64 -29 152 -105 169 -145 8 -19 26 -34 59 -47 65 -27 125 -86 152 -149 12 -28 23 -53 24 -54 1 -1 31 7 66 18 94 30 264 37 366 14 224 -48 383 -200 417 -399 11 -65 12 -66 42 -66 46 0 143 -27 203 -57 111 -56 208 -189 216 -298 2 -27 22 -95 44 -150 69 -172 125 -390 153 -595 20 -142 17 -470 -5 -605 -54 -334 -151 -574 -295 -728 -86 -93 -104 -121 -96 -146 8 -28 -76 -189 -144 -273 -34 -42 -90 -100 -124 -129 -74 -62 -225 -163 -321 -213 -42 -23 -79 -51 -96 -74 -52 -73 -246 -237 -455 -387 l-80 -57 -57 63 c-57 63 -62 65 -58 21 6 -76 -184 -231 -345 -282 -22 -7 -78 -32 -125 -55 -108 -54 -422 -179 -602 -239 -249 -84 -416 -114 -469 -86 -28 15 -24 32 19 81 22 24 37 49 35 56 -8 21 26 71 77 114 33 28 50 50 50 65 0 13 13 39 30 57 27 32 29 37 19 67 -8 23 -9 42 -1 66 5 19 9 34 7 34 -1 0 -28 -40 -59 -90 -32 -49 -95 -140 -142 -202 l-85 -113 3 -97 c3 -79 7 -101 23 -118 20 -22 20 -22 0 -36 -32 -24 -152 9 -180 49 -13 19 -15 19 -62 -23 -103 -90 -252 -160 -348 -162 -66 -2 -103 19 -196 109 -51 49 -79 70 -84 63 -13 -21 -88 -50 -130 -50 -64 0 -72 10 -46 62 11 24 21 56 21 70 l0 25 -122 6 c-152 8 -274 29 -368 63 -40 14 -75 22 -79 17 -15 -23 -59 -43 -92 -43 -62 0 -69 7 -69 61 0 32 -5 52 -16 61 -9 7 -28 24 -43 38 -14 14 -48 39 -76 54 -132 76 -287 229 -358 354 -12 22 -46 61 -74 87 l-53 46 16 -37 c18 -44 14 -102 -10 -139 -40 -61 -160 -84 -234 -46 -61 31 -85 64 -90 124 -4 48 -1 57 30 97 18 25 49 53 68 62 31 16 32 18 11 18 -13 0 -38 -9 -55 -20 -84 -51 -263 -65 -399 -31 -198 51 -363 161 -636 426 -140 135 -217 237 -284 374 -28 58 -76 140 -107 182 -133 180 -220 407 -291 756 -28 138 -32 182 -35 343 -2 171 -5 190 -28 253 -31 82 -32 111 -5 138 15 15 29 20 49 15 26 -5 30 -2 40 29 8 25 8 49 -1 95 -21 106 4 270 44 292 44 23 188 -16 267 -72 l30 -21 -19 43 c-48 113 -59 278 -27 398 21 76 74 186 121 250 144 197 434 341 684 342 96 0 152 -12 222 -48 l47 -23 27 52 c96 185 286 333 490 384 104 25 305 23 409 -5 199 -54 377 -185 471 -347 8 -14 10 -9 10 24 0 62 36 93 114 99 54 4 62 2 85 -21 15 -15 26 -38 26 -52 0 -25 1 -25 22 -11 37 26 68 20 109 -24 46 -48 58 -95 35 -141 -20 -41 -21 -39 13 -39 49 0 145 -35 204 -74 58 -38 102 -86 130 -142 9 -17 32 -43 51 -58 37 -28 79 -93 90 -138 5 -24 9 -26 40 -21 22 3 46 -1 67 -11 17 -9 33 -16 34 -16 2 0 5 14 9 31 9 47 66 99 109 99 46 0 85 -32 93 -76 l6 -35 27 23 c56 51 109 73 206 86 l59 7 -38 25 c-88 60 -124 173 -71 225 28 28 37 30 100 13 24 -7 47 -9 51 -5 4 4 -1 26 -10 50 -21 57 -20 89 4 120 33 41 71 43 145 8 74 -34 99 -32 91 8 -16 85 -16 107 1 141 19 37 66 60 108 52 12 -2 46 -23 75 -47 30 -24 57 -42 62 -39 4 3 8 38 8 79 0 88 12 105 73 105 37 0 47 -6 98 -59 l57 -58 18 38 c19 43 93 118 142 143 17 9 33 25 37 36 9 28 61 77 106 101 110 55 260 63 359 17z"
       id="path8"
       style="fill:none" />
    <path
       d="M5917 6916 c-50 -14 -107 -53 -140 -98 -27 -36 -10 -62 59 -87 86 -33 131 -41 234 -41 97 0 198 18 250 45 35 18 31 40 -17 90 -85 88 -251 127 -386 91z"
       id="path10"
       style="fill:#cc66ff" />
    <path
       d="M2493 6808 c-17 -21 -22 -83 -12 -129 14 -60 50 -104 103 -124 39 -15 50 -16 87 -4 54 18 84 57 84 110 0 77 -95 129 -145 79 -38 -38 -15 -98 33 -86 26 6 38 26 17 26 -13 0 -13 27 0 35 15 9 40 -13 40 -35 0 -26 -33 -50 -68 -50 -22 0 -36 8 -51 29 -26 36 -26 64 -1 119 l19 42 -48 0 c-27 0 -53 -6 -58 -12z"
       id="path12"
       style="fill:#ff3333" />
    <path
       d="M2612 6794 c-12 -24 -11 -25 10 -18 56 19 108 0 138 -49 53 -86 -17 -207 -119 -207 -39 0 -120 36 -128 56 -11 30 -18 11 -18 -54 0 -59 -4 -76 -30 -117 -35 -56 -85 -86 -156 -93 -58 -5 -125 17 -159 53 -46 49 -34 166 19 195 60 32 141 -8 141 -68 0 -33 -22 -57 -45 -48 -8 3 -15 1 -15 -4 0 -21 71 -10 95 14 55 55 40 139 -33 190 -35 25 -55 31 -111 34 l-69 4 -76 -72 c-94 -90 -141 -160 -180 -270 -29 -80 -31 -94 -31 -235 0 -115 4 -167 19 -225 22 -86 78 -224 105 -259 18 -24 19 -24 82 -10 67 15 281 19 335 7 29 -6 32 -4 37 20 9 46 50 96 97 120 54 27 92 28 149 2 52 -24 48 -24 54 0 3 11 -2 25 -10 32 -23 19 -12 93 28 173 42 87 130 178 219 227 72 40 258 108 296 108 13 0 24 3 24 7 0 3 -18 43 -39 87 -110 224 -321 377 -582 420 -31 6 -37 3 -47 -20z m405 -266 c10 -14 43 -125 43 -147 0 -7 -6 -11 -12 -9 -7 3 -20 30 -28 61 -8 30 -18 56 -22 56 -40 4 -45 -1 -63 -59 -10 -34 -22 -63 -27 -66 -19 -12 -17 26 6 91 20 59 27 70 45 68 11 -2 21 2 21 7 0 14 26 12 37 -2z m-327 -185 c24 -31 23 -76 -2 -81 -25 -5 -58 34 -58 66 0 50 27 57 60 15z m-52 -122 c24 -80 6 -121 -56 -121 -25 0 -42 8 -68 34 -19 19 -34 43 -34 55 0 24 3 25 30 9 16 -10 25 -10 47 4 16 9 32 25 38 37 15 32 31 25 43 -18z m-228 19 c21 -11 42 -64 34 -85 -4 -8 -14 -15 -24 -15 -35 0 -72 69 -50 95 15 18 16 18 40 5z m-299 -80 c61 -53 41 -62 -29 -13 l-58 41 -13 -28 c-11 -25 -9 -35 13 -79 16 -30 22 -52 16 -56 -6 -3 -14 -4 -18 -1 -12 7 -60 106 -68 139 -5 23 -3 27 15 27 16 0 21 6 21 26 l0 25 39 -21 c21 -12 58 -39 82 -60z"
       id="path14"
       style="fill:#9966ff" />
    <path
       d="M2566 6176 l-38 -24 27 -18 c34 -23 59 -9 63 35 4 37 -1 38 -52 7z"
       id="path16"
       style="fill:#ff3333" />
    <path
       d="M2378 6793 c-62 -16 -72 -27 -35 -37 12 -3 42 -22 65 -41 l42 -37 0 41 c0 22 4 51 10 65 11 31 4 32 -82 9z"
       id="path18"
       style="fill:#ff3333" />
    <path
       d="M5705 6746 c-41 -18 -92 -77 -104 -123 -18 -63 -13 -202 8 -249 60 -132 255 -191 609 -182 246 6 257 12 308 154 57 155 34 275 -65 341 -45 30 -59 30 -53 -3 18 -93 -109 -123 -240 -55 -43 22 -75 31 -108 31 -59 0 -203 27 -250 46 -19 8 -44 23 -55 34 -18 16 -24 17 -50 6z m195 -216 c11 -20 -1 -60 -18 -60 -14 0 -32 23 -32 40 0 17 18 40 32 40 4 0 12 -9 18 -20z m394 -3 c8 -12 8 -22 0 -34 -16 -25 -38 -22 -42 5 -7 50 18 67 42 29z m-154 -28 c0 -5 -15 -17 -34 -26 -32 -15 -37 -15 -60 1 -30 19 -36 42 -8 31 36 -15 48 -15 67 -1 20 14 35 13 35 -5z m-326 -112 c9 -13 6 -27 -13 -62 -13 -25 -29 -45 -35 -45 -15 0 -71 59 -79 82 -7 21 17 42 42 35 10 -2 25 -1 32 4 19 12 40 7 53 -14z m581 -17 c4 -6 13 -5 25 3 16 9 23 9 36 -5 22 -22 11 -52 -33 -85 l-35 -27 -19 23 c-26 32 -34 68 -19 86 14 17 36 20 45 5z"
       id="path20"
       style="fill:#cc66ff" />
    <path
       d="M5705 6380 c-7 -12 40 -80 55 -80 12 0 40 53 40 75 0 20 -27 19 -38 -2 -9 -16 -11 -16 -27 0 -19 20 -22 20 -30 7z"
       id="path22"
       style="fill:#cc3333" />
    <path
       d="M6360 6344 c0 -13 16 -51 26 -63 7 -8 64 52 64 66 0 21 -31 15 -37 -7 -3 -11 -9 -20 -14 -20 -5 0 -9 9 -9 20 0 11 -7 20 -15 20 -8 0 -15 -7 -15 -16z"
       id="path24"
       style="fill:#cc3333" />
    <path
       d="M2223 6733 c-42 -21 -42 -28 3 -31 124 -9 213 -147 154 -240 -39 -62 -124 -76 -156 -26 -19 28 -4 64 27 64 16 0 19 -4 14 -20 -8 -24 13 -28 22 -4 9 24 -14 63 -42 70 -57 14 -105 -27 -105 -89 0 -35 40 -89 80 -109 113 -57 243 22 257 155 10 96 -42 179 -144 231 -40 20 -68 19 -110 -1z"
       id="path26"
       style="fill:#ff3333" />
    <path
       d="M6267 6690 c-43 -15 -80 -30 -83 -33 -7 -6 100 -47 125 -47 26 0 71 38 71 60 0 28 -11 50 -24 49 -6 -1 -46 -14 -89 -29z"
       id="path28"
       style="fill:#cc3333" />
    <path
       d="M5346 6668 c-12 -16 -14 -36 -9 -80 10 -94 -34 -117 -104 -54 -71 63 -100 69 -139 31 -24 -24 -24 -29 -18 -100 8 -85 -1 -105 -47 -105 -15 0 -49 11 -75 25 -56 30 -85 32 -107 7 -21 -24 -21 -52 0 -112 15 -42 15 -50 3 -65 -14 -17 -20 -17 -117 1 -26 5 -34 2 -48 -19 -23 -36 -11 -69 51 -136 58 -63 102 -88 209 -121 38 -12 95 -38 127 -59 l57 -39 6 42 c10 61 40 122 69 141 45 30 89 10 132 -61 10 -15 14 -17 25 -6 18 17 81 15 105 -3 10 -8 21 -14 24 -15 3 0 6 102 7 228 1 142 7 256 15 303 12 66 12 79 -1 100 -36 58 -108 119 -140 119 -5 0 -17 -10 -25 -22z m58 -294 c20 -19 21 -53 2 -60 -32 -12 -78 38 -61 66 9 15 42 12 59 -6z m-124 -125 c0 -6 -7 -26 -16 -44 -18 -39 -60 -60 -104 -50 -35 8 -36 32 0 27 43 -7 68 7 81 43 12 32 39 49 39 24z m-248 -126 c22 -20 23 -36 3 -53 -29 -24 -85 36 -58 63 11 12 36 8 55 -10z"
       id="path30"
       style="fill:#6633ff" />
    <path
       d="M3301 6538 c-20 -18 -23 -27 -17 -71 3 -29 22 -83 44 -126 l39 -76 45 2 c66 2 152 29 187 59 44 37 40 84 -12 142 -30 32 -61 28 -94 -13 -15 -19 -31 -35 -35 -35 -4 0 -7 25 -6 56 2 68 -13 84 -82 84 -33 0 -53 -6 -69 -22z"
       id="path32"
       style="fill:#ff0066" />
    <path
       d="M6750 6543 c-40 -7 -43 -19 -14 -42 31 -25 70 -22 92 6 29 39 4 50 -78 36z"
       id="path34"
       style="fill:#cc3366" />
    <path
       d="M6860 6544 c0 -36 65 -73 99 -54 12 6 21 15 21 20 0 4 3 15 6 24 5 14 -4 16 -60 16 -36 0 -66 -3 -66 -6z"
       id="path36"
       style="fill:#cc3366" />
    <path
       d="M7010 6525 c0 -23 37 -55 63 -55 27 1 61 25 53 38 -5 9 -82 32 -105 32 -6 0 -11 -7 -11 -15z"
       id="path38"
       style="fill:#cc3366" />
    <path
       d="M6653 6516 c-43 -15 -45 -19 -36 -55 7 -28 10 -30 33 -18 30 15 59 63 45 75 -6 6 -22 5 -42 -2z"
       id="path40"
       style="fill:#cc3366" />
    <path
       d="M5534 6445 c-5 -33 -9 -179 -9 -325 0 -242 2 -268 18 -294 17 -26 20 -27 34 -13 25 25 43 139 50 312 l6 160 -27 39 c-14 21 -31 57 -36 80 -27 107 -26 107 -36 41z"
       id="path42"
       style="fill:#cc66cc" />
    <path
       d="M6840 6486 c-16 -20 -73 -31 -95 -18 -13 7 -23 3 -41 -15 -13 -13 -36 -26 -51 -29 l-28 -6 1 -156 0 -156 39 -4 c121 -12 192 -105 236 -307 11 -55 27 -115 35 -134 8 -18 14 -37 14 -42 0 -11 -263 -143 -302 -153 -26 -6 -28 -10 -28 -62 l0 -56 28 6 c15 4 79 10 143 13 l117 5 6 29 c3 16 15 38 26 49 14 14 20 33 20 68 0 90 29 241 62 320 25 61 45 91 97 143 75 75 145 108 249 116 61 6 62 6 62 35 0 45 -38 147 -76 204 -50 75 -192 185 -202 156 -5 -17 -56 -42 -84 -42 -13 0 -34 7 -46 16 -19 13 -28 14 -52 4 -33 -14 -76 -7 -101 16 -14 13 -18 13 -29 0z m18 -88 c22 -21 24 -22 33 -5 6 9 21 17 34 17 26 0 65 -31 65 -51 0 -25 -35 -81 -71 -114 -47 -42 -56 -39 -118 31 -30 35 -41 55 -41 80 0 61 53 84 98 42z m308 -8 c8 -8 19 -7 37 1 22 10 31 9 52 -5 35 -23 34 -77 -2 -129 -36 -52 -58 -63 -89 -42 -36 23 -77 92 -77 127 0 45 51 76 79 48z m-77 -156 c2 -2 -3 -21 -10 -41 -12 -32 -20 -38 -44 -39 -38 -2 -55 12 -55 42 0 17 -6 24 -20 24 -19 0 -26 11 -15 21 5 5 138 -1 144 -7z"
       id="path44"
       style="fill:#cc3399" />
    <path
       d="M6791 6376 c-16 -20 0 -54 46 -99 l39 -37 31 32 c44 47 57 76 42 94 -16 20 -37 17 -44 -6 -9 -27 -27 -25 -55 5 -27 28 -42 31 -59 11z"
       id="path46"
       style="fill:#cc3300" />
    <path
       d="M7114 6355 c-7 -16 35 -93 61 -115 15 -12 19 -11 37 10 34 43 51 90 37 106 -18 21 -34 17 -48 -13 l-13 -28 -20 28 c-22 30 -45 35 -54 12z"
       id="path48"
       style="fill:#cc3300" />
    <path
       d="M7000 6195 c0 -8 5 -15 10 -15 6 0 10 7 10 15 0 8 -4 15 -10 15 -5 0 -10 -7 -10 -15z"
       id="path50"
       style="fill:none" />
    <path
       d="M7040 6189 c0 -11 5 -17 10 -14 6 3 10 13 10 21 0 8 -4 14 -10 14 -5 0 -10 -9 -10 -21z"
       id="path52"
       style="fill:none" />
    <path
       d="M6567 6395 c-12 -60 -28 -107 -48 -140 -37 -60 -49 -125 -49 -272 0 -126 18 -193 51 -193 17 0 16 4 -7 51 -49 97 -32 203 40 244 17 10 34 23 38 29 10 14 9 265 0 326 l-7 45 -18 -90z"
       id="path54"
       style="fill:#cc66cc" />
    <path
       d="M1477 6420 c-268 -48 -508 -212 -616 -419 -101 -194 -102 -420 -3 -590 l25 -44 29 58 c33 64 32 77 -8 97 -35 17 -31 34 6 30 38 -4 70 28 70 69 0 32 -38 78 -105 125 -42 30 -24 41 33 21 64 -23 89 -22 108 8 23 35 11 83 -32 134 -20 23 -34 44 -31 47 3 3 22 -6 44 -20 50 -33 86 -41 115 -25 52 27 50 57 -9 120 -25 27 -43 52 -40 56 4 3 25 -7 48 -23 51 -35 117 -40 146 -11 25 24 22 91 -6 145 -12 24 -21 46 -19 48 2 2 40 -21 83 -51 43 -30 82 -55 86 -55 4 0 14 7 22 15 13 13 14 22 2 72 -8 32 -17 66 -20 76 -14 34 14 16 37 -25 39 -71 126 -112 157 -74 7 8 17 43 23 78 14 79 24 91 33 39 9 -52 43 -103 77 -115 32 -11 78 14 78 43 0 10 7 37 15 60 14 40 13 42 -10 57 -76 50 -229 74 -338 54z"
       id="path56"
       style="fill:#ff9900" />
    <path
       d="M3290 6321 c0 -5 5 -13 10 -16 6 -3 10 -2 10 4 0 5 -4 13 -10 16 -5 3 -10 2 -10 -4z"
       id="path58" />
    <path
       d="M3201 6264 c-25 -9 -56 -23 -70 -32 -103 -64 -201 -186 -201 -248 0 -41 15 -49 68 -39 30 6 58 28 152 124 63 65 134 131 156 147 33 24 40 34 32 47 -12 22 -76 22 -137 1z"
       id="path60"
       style="fill:#cc66ff" />
    <path
       d="M3620 6257 c109 -45 197 -123 239 -212 30 -64 105 -82 125 -30 15 40 -63 147 -146 201 -56 36 -151 64 -215 64 l-58 0 55 -23z"
       id="path62"
       style="fill:#cc66ff" />
    <path
       d="M1635 6232 c-16 -63 -78 -81 -143 -42 -40 25 -40 25 -35 -2 11 -61 -58 -80 -125 -35 l-40 26 5 -39 c10 -74 -35 -130 -104 -130 -27 0 -28 -2 -25 -39 3 -33 -1 -45 -23 -67 -23 -23 -33 -26 -70 -21 -40 4 -43 3 -35 -14 6 -10 10 -34 10 -54 0 -43 -36 -85 -75 -85 -14 0 -25 -4 -25 -10 0 -5 4 -10 10 -10 16 0 40 -56 40 -93 0 -32 -25 -70 -52 -79 -11 -4 -11 -8 0 -20 11 -14 17 -12 50 18 44 40 108 76 195 109 54 20 67 22 76 11 10 -12 49 -171 66 -268 5 -33 10 -38 32 -38 42 0 115 54 217 161 119 123 202 232 227 298 18 47 18 55 4 121 -8 39 -15 113 -15 165 l0 93 -40 -5 c-37 -5 -44 -2 -79 35 l-39 41 -7 -27z m47 -369 c23 -20 23 -52 1 -60 -10 -4 -24 3 -39 20 -38 44 -5 79 38 40z m-54 -172 c3 -36 -1 -46 -31 -76 -29 -29 -42 -35 -77 -35 -50 0 -51 21 -1 25 50 4 84 43 83 95 -1 55 22 48 26 -9z m-218 -106 c15 -18 9 -49 -11 -53 -24 -4 -64 32 -56 51 8 21 50 22 67 2z"
       id="path64"
       style="fill:#ff9900" />
    <path
       d="M3493 6253 c-28 -5 -30 -19 -5 -27 28 -9 119 -102 162 -167 22 -31 55 -66 73 -78 64 -40 136 -18 122 37 -29 117 -239 257 -352 235z"
       id="path66"
       style="fill:#cc66ff" />
    <path
       d="M5657 6128 c-7 -142 -28 -293 -46 -326 -12 -23 -45 -37 -62 -27 -6 4 -19 26 -29 49 l-17 41 -8 -69 c-10 -93 -1 -243 18 -288 20 -47 58 -73 86 -59 59 32 111 348 111 675 0 92 -3 111 -17 122 -10 7 -21 14 -24 14 -3 0 -9 -60 -12 -132z"
       id="path68"
       style="fill:#cc66cc" />
    <path
       d="M3350 6173 c-67 -179 -61 -316 16 -351 39 -18 62 -14 80 13 23 35 14 188 -18 305 -29 108 -47 115 -78 33z"
       id="path70"
       style="fill:#cc66ff" />
    <path
       d="M3430 6225 c0 -3 13 -59 30 -125 42 -171 73 -224 137 -236 109 -20 90 132 -32 264 -46 50 -135 114 -135 97z"
       id="path72"
       style="fill:#cc66ff" />
    <path
       d="M2969 6170 c-113 -69 -152 -109 -205 -214 -51 -102 -56 -141 -20 -157 20 -10 32 -7 67 12 56 31 112 103 103 133 -19 60 23 153 104 228 24 22 42 42 39 44 -2 2 -42 -19 -88 -46z"
       id="path74"
       style="fill:#cc66ff" />
    <path
       d="M5740 6145 c0 -44 -3 -97 -6 -117 -4 -23 -3 -38 3 -38 13 0 24 212 12 225 -5 5 -9 -22 -9 -70z"
       id="path76"
       style="fill:#cc99cc" />
    <path
       d="M3279 6163 c-30 -26 -80 -77 -112 -112 -56 -62 -58 -66 -55 -114 2 -41 8 -54 30 -70 26 -19 28 -19 53 -3 34 22 62 68 81 136 9 30 26 89 39 130 13 41 22 76 21 78 -2 1 -27 -19 -57 -45z"
       id="path78"
       style="fill:#cc66ff" />
    <path
       d="M5776 6132 c-10 -119 -8 -152 8 -152 22 0 23 6 31 116 7 95 6 101 -12 106 -19 5 -21 -1 -27 -70z"
       id="path80"
       style="fill:#cc99cc" />
    <path
       d="M5870 6179 c0 -19 54 -69 86 -79 53 -18 136 -8 178 21 20 13 36 27 36 32 0 4 -30 7 -67 8 -38 0 -105 6 -150 13 -46 6 -83 9 -83 5z"
       id="path82"
       style="fill:#cc33ff" />
    <path
       d="M6395 6177 c-22 -6 -43 -15 -46 -20 -17 -24 -34 -209 -34 -362 1 -182 13 -243 65 -315 38 -54 129 -87 158 -58 20 20 14 26 -30 33 -101 17 -155 72 -165 168 -4 39 -1 62 11 86 18 34 69 71 100 71 14 0 17 5 11 23 -20 67 -24 101 -24 187 0 52 4 119 8 148 8 57 10 56 -54 39z"
       id="path84"
       style="fill:#cc66cc" />
    <path
       d="M5840 6140 c0 -14 -3 -55 -7 -92 -6 -65 -5 -68 16 -68 20 0 21 5 21 73 0 49 -5 80 -15 93 -14 18 -14 18 -15 -6z"
       id="path86"
       style="fill:#cc99cc" />
    <path
       d="M6199 6143 c-9 -10 -15 -48 -18 -100 -3 -77 -2 -83 17 -83 16 0 20 9 26 61 13 128 6 160 -25 122z"
       id="path88"
       style="fill:#cc99cc" />
    <path
       d="M6255 6148 c-9 -31 -12 -189 -3 -194 19 -12 27 12 34 109 6 87 5 97 -10 97 -9 0 -18 -6 -21 -12z"
       id="path90"
       style="fill:#cc99cc" />
    <path
       d="M6144 6092 c-15 -9 -25 -120 -12 -128 20 -12 29 14 26 74 -2 42 -7 59 -14 54z"
       id="path92"
       style="fill:#cc99cc" />
    <path
       d="M5890 6037 c0 -40 4 -56 15 -61 20 -7 27 11 23 65 -2 32 -8 45 -20 47 -15 3 -18 -5 -18 -51z"
       id="path94"
       style="fill:#cc99cc" />
    <path
       d="M6580 6062 c-75 -37 -87 -127 -30 -229 17 -29 30 -57 30 -63 0 -5 -25 -10 -55 -10 -112 0 -162 -47 -152 -144 4 -41 11 -55 40 -82 87 -80 190 -71 389 34 86 45 108 61 108 78 0 31 -44 199 -70 268 -37 97 -122 166 -205 166 -11 0 -36 -8 -55 -18z"
       id="path96"
       style="fill:#cc0000" />
    <path
       d="M5957 6064 c-4 -4 -7 -27 -7 -51 0 -37 3 -43 21 -43 18 0 20 5 17 47 -3 44 -15 62 -31 47z"
       id="path98"
       style="fill:#cc99cc" />
    <path
       d="M6075 6058 c-2 -7 -5 -30 -7 -50 -3 -29 0 -38 14 -41 15 -4 18 1 18 33 0 21 3 45 6 54 4 11 1 16 -10 16 -9 0 -18 -6 -21 -12z"
       id="path100"
       style="fill:#cc99cc" />
    <path
       d="M7283 6056 c-88 -28 -170 -101 -218 -197 -73 -142 -103 -399 -58 -484 28 -52 89 -107 152 -140 28 -14 51 -23 51 -21 0 3 -20 19 -44 35 -41 29 -43 33 -49 91 -3 33 0 73 6 89 9 24 6 35 -22 84 -18 31 -27 58 -22 61 5 4 43 -2 83 -13 91 -24 170 -35 197 -26 16 5 20 12 15 31 -4 16 -1 25 7 28 8 2 33 9 57 15 31 9 46 19 52 37 9 22 14 24 43 19 19 -4 53 -1 77 5 36 10 41 14 27 21 -27 16 -20 28 21 34 20 4 54 13 74 22 31 13 36 19 26 30 -7 8 -7 17 -2 23 5 5 33 -6 67 -27 31 -20 59 -34 61 -32 2 2 -5 32 -15 66 -35 113 -150 213 -284 248 -72 18 -243 19 -302 1z"
       id="path102"
       style="fill:#cc9900" />
    <path
       d="M6010 6015 c0 -53 24 -63 34 -14 10 50 7 59 -14 59 -17 0 -20 -7 -20 -45z"
       id="path104"
       style="fill:#cc99cc" />
    <path
       d="M4004 6002 c-8 -11 -3 -30 20 -71 17 -31 38 -83 47 -116 10 -33 18 -52 18 -42 1 10 8 31 16 48 19 36 8 87 -29 138 -37 50 -60 63 -72 43z"
       id="path106"
       style="fill:#cc66ff" />
    <path
       d="M5206 5991 c-21 -23 -46 -103 -46 -147 0 -20 12 -53 30 -81 27 -43 36 -49 83 -60 29 -6 61 -14 73 -18 45 -14 128 88 136 165 9 93 -87 130 -137 53 -23 -34 -40 -24 -37 20 3 28 -2 42 -22 62 -30 30 -57 32 -80 6z"
       id="path108"
       style="fill:#cc0000" />
    <path
       d="M3858 5968 c-3 -7 5 -25 18 -40 23 -29 43 -77 68 -168 19 -69 54 -107 84 -91 12 6 24 20 27 32 12 38 -5 125 -39 195 -32 67 -33 69 -72 70 -21 1 -49 4 -60 8 -15 5 -23 3 -26 -6z"
       id="path110"
       style="fill:#cc66ff" />
    <path
       d="M3048 5943 c-20 -14 -52 -25 -70 -26 -27 -1 -40 -9 -65 -43 -18 -23 -37 -63 -44 -88 -10 -39 -9 -50 5 -71 30 -46 70 -26 135 68 40 59 84 152 79 171 -2 10 -12 7 -40 -11z"
       id="path112"
       style="fill:#cc66ff" />
    <path
       d="M5727 5873 c-4 -48 -4 -89 -1 -92 6 -6 543 -26 548 -20 2 2 6 40 7 84 l4 80 -185 11 c-102 7 -226 15 -276 18 l-91 5 -6 -86z"
       id="path114"
       style="fill:#6699cc" />
    <path
       d="M3691 5918 c-1 -37 -28 -78 -51 -78 -5 0 -10 -6 -10 -14 0 -11 8 -10 36 5 27 13 42 16 55 8 26 -13 25 4 -5 66 l-24 50 -1 -37z"
       id="path116"
       style="fill:#66ffff" />
    <path
       d="M3747 5890 c13 -34 31 -96 40 -138 19 -90 48 -128 92 -117 35 9 41 21 41 81 0 62 -22 139 -53 185 -19 29 -29 34 -62 34 -22 0 -50 4 -61 8 -22 8 -22 8 3 -53z"
       id="path118"
       style="fill:#cc66ff" />
    <path
       d="M4336 5909 c-17 -20 -26 -43 -26 -65 0 -44 -18 -51 -61 -25 -46 28 -75 26 -110 -8 -90 -90 57 -223 166 -151 17 11 46 25 66 30 31 9 38 17 62 75 15 36 27 80 27 98 0 78 -74 106 -124 46z"
       id="path120"
       style="fill:#cc0000" />
    <path
       d="M4643 5921 c-89 -30 -152 -90 -193 -184 -18 -40 -30 -52 -79 -77 -70 -35 -134 -104 -155 -167 -21 -60 -20 -64 7 -53 12 5 38 11 58 15 20 3 46 16 59 30 32 35 45 31 59 -15 10 -34 17 -41 51 -51 22 -7 40 -18 40 -25 0 -7 -16 -26 -35 -41 -35 -27 -35 -29 -29 -80 3 -29 2 -53 -2 -53 -5 0 -27 11 -49 25 -40 24 -92 31 -128 16 -17 -6 -16 -11 15 -51 50 -67 153 -116 287 -136 147 -23 423 -15 536 15 227 60 355 190 355 359 0 113 -63 194 -175 227 -42 13 -62 28 -117 88 -133 147 -345 214 -505 158z m1 -283 c21 -30 20 -61 -3 -89 -16 -20 -21 -21 -35 -10 -9 8 -16 28 -16 47 0 27 -4 34 -19 34 -11 0 -27 3 -36 7 -14 5 -12 8 11 19 46 20 81 17 98 -8z m410 11 c30 -14 25 -29 -10 -29 -19 0 -24 -5 -24 -26 0 -29 -16 -64 -30 -64 -18 0 -40 32 -40 58 0 60 46 87 104 61z m216 -149 c30 -38 35 -40 86 -40 65 0 70 -15 25 -75 -27 -37 -28 -39 -12 -66 23 -40 6 -55 -48 -42 -39 10 -40 10 -71 -28 -49 -62 -79 -48 -80 38 0 28 -4 32 -42 45 -36 11 -43 17 -43 38 0 20 10 30 45 48 34 17 48 31 58 60 7 20 14 43 17 50 8 23 33 12 65 -28z m-390 15 c0 -20 -36 -55 -56 -55 -23 0 -74 32 -74 47 0 17 12 16 36 -2 27 -20 51 -18 64 5 13 24 30 26 30 5z"
       id="path122"
       style="fill:#ffccff" />
    <path
       d="M5213 5463 c-7 -32 -16 -42 -56 -60 -26 -13 -47 -27 -47 -32 0 -10 34 -21 68 -21 20 0 22 -5 22 -55 0 -30 4 -55 8 -55 5 0 19 18 31 40 16 29 28 39 39 36 10 -3 30 -8 46 -12 l28 -7 -17 26 c-17 26 -16 27 14 66 17 21 31 42 31 46 0 4 -20 5 -46 2 -42 -4 -47 -2 -72 29 -15 19 -30 34 -34 34 -3 0 -10 -17 -15 -37z"
       id="path124"
       style="fill:#cc6699" />
    <path
       d="M3253 5880 c-19 -50 -20 -58 -6 -84 22 -43 3 -104 -38 -119 -51 -20 -29 -72 28 -65 22 2 33 13 50 46 29 57 40 148 23 176 -8 12 -19 39 -25 61 l-12 39 -20 -54z"
       id="path126"
       style="fill:#66ffff" />
    <path
       d="M3484 5823 c2 -54 10 -114 16 -133 47 -130 131 -64 114 88 -6 47 -10 54 -38 66 -18 7 -44 27 -58 45 -15 17 -29 31 -32 31 -3 0 -4 -44 -2 -97z"
       id="path128"
       style="fill:#cc66ff" />
    <path
       d="M3062 5826 c-37 -66 -44 -94 -31 -139 16 -60 60 -69 100 -21 10 13 11 18 2 21 -7 2 -17 20 -23 39 -10 29 -9 41 7 73 l19 38 -23 21 -22 20 -29 -52z"
       id="path130"
       style="fill:#cc66ff" />
    <path
       d="M1830 5780 c-7 -17 -30 -55 -51 -85 -38 -54 -38 -55 -14 -55 29 0 47 -28 34 -53 -7 -11 -7 -17 0 -17 5 0 16 -7 24 -15 14 -13 22 -12 76 8 l61 23 -21 20 c-11 11 -37 62 -58 113 l-38 92 -13 -31z"
       id="path132"
       style="fill:#ff3399" />
    <path
       d="M3444 5799 c-4 -7 -24 -9 -55 -6 l-49 6 0 -60 c0 -74 21 -119 55 -119 35 0 52 33 59 118 6 71 4 83 -10 61z"
       id="path134"
       style="fill:#cc66ff" />
    <path
       d="M2810 5785 c-14 -8 -33 -14 -43 -15 -30 0 -40 -45 -17 -83 25 -40 27 -141 5 -194 -18 -43 -19 -65 -3 -81 15 -15 44 1 62 36 8 15 25 72 39 126 22 85 23 101 11 113 -18 19 -28 57 -22 88 6 29 2 30 -32 10z"
       id="path136"
       style="fill:#cc66ff" />
    <path
       d="M2519 5726 c-20 -14 -41 -40 -48 -58 -26 -69 -36 -83 -62 -80 -121 14 -264 13 -340 -2 -245 -50 -493 -227 -594 -427 l-25 -48 -29 15 c-37 18 -107 20 -154 5 -72 -24 -115 -109 -96 -187 16 -63 61 -100 139 -117 118 -25 146 -58 226 -269 101 -265 172 -389 288 -503 67 -66 77 -72 171 -103 59 -19 127 -50 164 -75 35 -23 81 -52 102 -65 37 -22 80 -65 109 -111 15 -22 15 -21 12 23 -3 34 2 56 18 83 20 33 22 51 21 148 -1 60 -4 144 -7 186 l-6 76 -90 -39 c-49 -21 -93 -36 -99 -33 -18 12 -8 24 29 36 20 6 65 25 100 42 l62 30 -22 24 -23 24 25 19 c19 14 22 22 14 30 -14 14 -177 40 -246 40 -37 0 -48 4 -48 16 0 13 12 15 93 8 50 -4 118 -12 149 -19 l57 -11 5 60 c3 34 8 107 11 163 6 110 25 199 51 238 24 36 76 49 194 48 116 0 160 -15 212 -70 66 -69 75 -153 53 -498 -9 -143 -14 -284 -10 -312 l6 -53 150 0 c82 0 149 3 149 8 0 4 -9 44 -20 88 -10 45 -39 180 -64 301 -78 375 -122 526 -211 710 -58 122 -91 174 -172 274 -57 72 -64 99 -37 150 22 43 20 131 -4 177 -41 80 -132 106 -203 58z m129 -79 c12 -13 24 -37 28 -54 8 -38 -12 -103 -32 -103 -17 0 -154 68 -154 76 0 12 24 51 48 77 33 35 80 36 110 4z m-71 -273 c43 -27 57 -61 55 -135 -2 -136 -66 -306 -124 -330 -67 -28 -269 45 -348 126 -67 68 -65 140 4 204 34 32 124 41 161 17 13 -9 26 -16 28 -16 3 0 7 21 10 46 6 54 38 92 88 104 42 10 96 3 126 -16z m-583 -258 c41 -17 74 -58 82 -103 16 -86 -51 -322 -104 -364 -23 -18 -36 -20 -84 -15 -129 13 -281 95 -318 172 -57 117 76 240 194 179 37 -20 36 -20 36 19 0 59 72 124 138 126 12 0 37 -6 56 -14z m-612 -58 c14 -11 15 -22 5 -88 -12 -73 -13 -75 -42 -78 -39 -4 -99 35 -103 67 -5 31 16 78 42 96 25 18 77 19 98 3z m904 -256 c6 -4 16 -17 23 -30 30 -56 -59 -102 -94 -48 -31 48 24 109 71 78z"
       id="path138"
       style="fill:#6666ff" />
    <path
       d="M2546 5619 c-14 -17 -26 -35 -26 -40 0 -5 27 -22 60 -38 l61 -30 10 27 c19 49 -13 112 -57 112 -13 0 -33 -13 -48 -31z"
       id="path140"
       style="fill:#cc99ff" />
    <path
       d="M2414 5347 c-22 -19 -28 -34 -32 -80 -2 -31 -8 -57 -12 -57 -4 0 -27 9 -51 20 -101 46 -179 3 -179 -97 0 -88 120 -173 288 -204 45 -9 58 -8 79 6 50 33 102 195 103 318 0 51 -4 62 -29 88 -25 25 -37 29 -85 29 -43 0 -61 -5 -82 -23z m96 -107 c11 -11 20 -33 20 -48 0 -38 -25 -120 -49 -159 l-20 -31 -57 15 c-124 32 -173 77 -140 127 20 32 56 41 98 27 34 -12 48 -3 48 32 0 23 35 57 60 57 11 0 29 -9 40 -20z"
       id="path142"
       style="fill:#ff6600" />
    <path
       d="M2447 5223 c-8 -10 -18 -35 -22 -55 -8 -43 -9 -44 -58 -23 -47 19 -53 19 -77 -5 -16 -16 -18 -25 -11 -39 11 -20 87 -56 142 -66 35 -7 36 -6 57 43 32 73 38 125 17 145 -21 21 -28 21 -48 0z"
       id="path144"
       style="fill:#ff3300" />
    <path
       d="M1870 5087 c-27 -14 -49 -63 -49 -114 -1 -39 -5 -39 -62 -13 -64 28 -105 26 -139 -9 -82 -81 -35 -184 114 -251 72 -32 168 -54 201 -46 52 13 113 179 117 319 2 67 0 71 -30 98 -26 23 -42 29 -80 29 -26 0 -58 -6 -72 -13z m79 -113 c21 -15 23 -23 19 -73 -2 -31 -16 -81 -30 -113 -26 -56 -28 -58 -60 -51 -55 10 -133 42 -156 63 -26 24 -29 72 -7 90 18 15 57 17 103 6 29 -7 32 -6 32 17 0 30 36 77 59 77 9 0 27 -7 40 -16z"
       id="path146"
       style="fill:#ff6600" />
    <path
       d="M1890 4950 c-11 -11 -20 -31 -20 -44 0 -13 -3 -31 -6 -40 -5 -14 -9 -14 -36 0 -16 8 -46 14 -66 12 -48 -4 -56 -36 -16 -67 25 -20 111 -51 141 -51 19 0 53 79 60 139 5 43 3 50 -16 60 -17 9 -24 8 -41 -9z"
       id="path148"
       style="fill:#ff3300" />
    <path
       d="M1291 5031 c-33 -33 -38 -71 -11 -93 22 -18 67 -34 75 -26 2 2 5 33 7 68 3 64 3 65 -24 68 -17 2 -34 -4 -47 -17z"
       id="path150"
       style="fill:#cc99ff" />
    <path
       d="M2236 4763 c-4 -9 0 -23 9 -32 13 -14 17 -14 30 0 19 19 10 49 -15 49 -10 0 -21 -8 -24 -17z"
       id="path152"
       style="fill:#cc99ff" />
    <path
       d="M5736 5719 c-3 -17 -6 -62 -6 -100 0 -67 1 -69 25 -69 l25 0 0 100 c0 91 -2 100 -19 100 -13 0 -20 -10 -25 -31z"
       id="path154"
       style="fill:#cc99cc" />
    <path
       d="M5807 5744 c-4 -4 -7 -49 -7 -100 0 -86 1 -92 22 -97 12 -3 25 -4 30 -1 11 7 10 194 -1 194 -5 0 -16 2 -23 5 -8 3 -17 2 -21 -1z"
       id="path156"
       style="fill:#cc99cc" />
    <path
       d="M7775 5734 c-11 -8 -36 -19 -56 -24 -23 -6 -39 -18 -42 -30 -6 -25 -45 -40 -104 -40 -33 0 -49 -5 -61 -20 -10 -12 -35 -27 -57 -34 -27 -10 -41 -21 -43 -35 -8 -52 -84 -60 -223 -25 -31 8 -59 14 -62 14 -3 0 4 -21 15 -47 16 -36 19 -53 12 -73 -6 -14 -8 -48 -6 -77 4 -50 6 -53 56 -88 63 -43 111 -104 159 -200 43 -87 63 -153 83 -275 18 -110 38 -158 71 -171 47 -18 106 30 119 97 9 47 24 43 24 -6 0 -51 22 -105 48 -119 62 -33 136 7 147 78 16 96 19 98 30 18 8 -63 41 -100 84 -99 51 1 101 59 101 116 0 14 4 27 10 31 5 3 11 -21 13 -57 2 -35 3 20 1 122 -2 163 -11 256 -30 340 -5 20 -12 6 -38 -70 -69 -205 -129 -288 -177 -244 -18 16 -19 16 -19 -10 0 -19 -7 -30 -25 -38 -23 -10 -42 -4 -178 64 -100 50 -164 89 -187 113 l-35 37 35 -7 c48 -10 133 -54 241 -125 50 -33 94 -60 98 -60 3 0 11 11 17 23 9 21 2 33 -68 117 -43 52 -78 98 -78 102 0 21 25 1 91 -74 39 -46 76 -87 81 -93 6 -6 7 0 3 16 -9 36 14 218 31 249 l13 25 0 -30 c1 -16 -6 -73 -14 -125 -19 -124 -19 -137 4 -150 45 -23 59 -1 140 217 l53 142 -35 125 c-20 68 -56 175 -81 238 -25 63 -46 118 -46 123 0 6 -19 19 -43 29 -23 11 -44 21 -47 23 -3 1 -14 -4 -25 -13z m-176 -148 c17 -21 7 -46 -19 -46 -23 0 -46 40 -36 65 6 18 32 9 55 -19z m-43 -200 c-7 -28 -51 -56 -88 -56 -33 0 -73 29 -59 43 8 8 14 8 23 -1 15 -15 53 -15 80 -1 14 8 18 17 14 33 -7 30 4 40 22 22 9 -9 12 -24 8 -40z m-251 8 c19 -19 16 -59 -4 -59 -19 0 -55 50 -47 64 10 16 32 14 51 -5z"
       id="path158"
       style="fill:#cc9900" />
    <path
       d="M5880 5640 l0 -100 25 0 25 0 0 100 0 100 -25 0 -25 0 0 -100z"
       id="path160"
       style="fill:#cc99cc" />
    <path
       d="M5950 5640 l0 -100 25 0 25 0 0 100 0 100 -25 0 -25 0 0 -100z"
       id="path162"
       style="fill:#cc99cc" />
    <path
       d="M6020 5635 c0 -98 1 -105 20 -105 19 0 20 7 20 105 0 98 -1 105 -20 105 -19 0 -20 -7 -20 -105z"
       id="path164"
       style="fill:#cc99cc" />
    <path
       d="M6080 5635 c0 -98 1 -105 20 -105 19 0 20 7 20 105 0 98 -1 105 -20 105 -19 0 -20 -7 -20 -105z"
       id="path166"
       style="fill:#cc99cc" />
    <path
       d="M6146 5733 c-3 -4 -6 -51 -6 -105 l0 -98 30 0 c28 0 30 2 30 38 0 20 -3 66 -6 102 -5 53 -10 66 -24 67 -10 1 -21 -1 -24 -4z"
       id="path168"
       style="fill:#cc99cc" />
    <path
       d="M6222 5631 c3 -102 4 -106 26 -109 23 -3 23 -3 20 104 -3 104 -4 107 -26 109 -22 2 -23 1 -20 -104z"
       id="path170"
       style="fill:#cc99cc" />
    <path
       d="M5428 5694 l-38 -34 30 -47 c17 -26 35 -63 40 -83 16 -58 12 -151 -10 -197 -10 -24 -17 -43 -15 -43 2 0 25 18 51 41 71 61 92 69 115 40 18 -22 23 -23 58 -12 21 6 47 11 58 11 25 0 57 -35 50 -54 -7 -17 20 -26 81 -26 l42 0 0 85 0 84 57 17 c79 23 255 15 338 -15 54 -19 146 -75 217 -133 27 -21 29 -21 62 -5 33 15 34 17 33 71 -2 57 -11 72 -22 36 -4 -11 -17 -28 -31 -36 -47 -31 -152 11 -190 76 -18 30 -19 30 -106 30 -91 0 -466 17 -530 24 -35 4 -38 2 -57 -38 -21 -43 -64 -76 -99 -76 -26 0 -59 41 -72 89 -5 21 -13 80 -17 133 l-8 97 -37 -35z"
       id="path172"
       style="fill:#6699cc" />
    <path
       d="M2965 5694 c-16 -13 -38 -24 -47 -24 -17 0 -24 -17 -47 -120 -16 -69 -13 -152 5 -178 21 -30 61 -26 87 9 27 37 81 238 67 254 -5 7 -16 28 -23 48 l-12 35 -30 -24z"
       id="path174"
       style="fill:#cc66ff" />
    <path
       d="M3748 5689 c-10 -11 -31 -19 -48 -19 -30 0 -30 0 -14 -25 18 -27 55 -33 73 -12 14 18 26 77 15 76 -5 0 -17 -9 -26 -20z"
       id="path176"
       style="fill:#cc66ff" />
    <path
       d="M3470 5678 c0 -31 -22 -66 -46 -77 -23 -10 -24 -15 -24 -103 1 -69 5 -98 16 -113 16 -20 16 -20 37 10 12 16 37 45 55 63 27 26 34 42 39 86 5 48 3 55 -15 60 -11 4 -29 26 -41 49 -11 23 -20 34 -21 25z"
       id="path178"
       style="fill:#cc66ff" />
    <path
       d="M3630 5672 c0 -13 -13 -37 -30 -54 -30 -29 -35 -52 -24 -95 5 -18 14 -23 39 -23 21 0 45 -9 65 -26 17 -15 32 -25 34 -23 2 2 7 37 11 77 7 69 6 72 -14 72 -14 0 -28 11 -39 31 -9 17 -22 38 -29 47 -11 15 -12 15 -13 -6z"
       id="path180"
       style="fill:#cc66ff" />
    <path
       d="M3931 5648 c-15 -38 -15 -135 0 -192 6 -21 21 -49 34 -62 60 -60 105 -6 105 126 0 120 -5 132 -45 124 -26 -4 -38 -1 -54 15 -12 12 -22 21 -24 21 -1 0 -9 -15 -16 -32z"
       id="path182"
       style="fill:#cc66ff" />
    <path
       d="M4085 5638 c4 -24 9 -81 11 -128 5 -90 24 -135 59 -135 14 0 18 10 21 50 5 60 20 109 45 151 l19 31 -32 7 c-18 4 -49 20 -70 36 -52 42 -62 39 -53 -12z"
       id="path184"
       style="fill:#cc66ff" />
    <path
       d="M3310 5647 c0 -18 -42 -57 -62 -57 -17 0 -33 -44 -23 -60 4 -6 14 -10 24 -10 10 0 37 -14 60 -30 46 -33 44 -35 60 47 10 49 9 54 -14 77 -14 14 -25 30 -25 36 0 5 -4 10 -10 10 -5 0 -10 -6 -10 -13z"
       id="path186"
       style="fill:#cc66ff" />
    <path
       d="M5694 5612 c-6 -29 -7 -55 -3 -58 14 -8 21 19 17 67 l-3 44 -11 -53z"
       id="path188"
       style="fill:#cc99cc" />
    <path
       d="M3121 5630 c-13 -11 -32 -20 -42 -20 -25 0 -49 -80 -56 -187 -5 -78 -5 -82 20 -107 17 -16 37 -26 56 -26 l30 0 -6 49 c-8 66 3 114 33 150 13 16 29 44 35 61 10 27 8 34 -10 54 -11 12 -21 28 -21 34 0 17 -11 14 -39 -8z"
       id="path190"
       style="fill:#cc66ff" />
    <path
       d="M3772 5616 c-20 -21 -21 -28 -12 -83 11 -67 34 -139 51 -160 6 -7 21 -13 33 -13 42 0 62 66 51 176 -7 72 -7 74 -34 74 -14 0 -36 6 -47 14 -18 13 -22 12 -42 -8z"
       id="path192"
       style="fill:#cc66ff" />
    <path
       d="M1182 5612 c-40 -15 -43 -19 -38 -45 6 -30 -7 -64 -33 -84 -20 -15 -76 -17 -102 -2 -17 8 -24 7 -35 -8 -21 -25 -51 -92 -59 -130 -6 -32 -6 -33 23 -27 53 11 89 -46 62 -97 -9 -15 -7 -19 7 -20 10 0 39 -4 66 -8 55 -9 63 5 17 31 -54 31 -52 104 3 139 35 22 79 19 107 -6 9 -8 30 -15 46 -15 17 0 35 -5 41 -11 12 -12 33 -4 33 12 0 5 -18 16 -40 25 -73 29 -89 107 -35 164 20 21 23 32 18 63 -6 42 -15 44 -81 19z"
       id="path194"
       style="fill:#ff3399" />
    <path
       d="M1710 5590 c-19 -19 -27 -40 -15 -40 13 0 62 30 74 44 12 14 10 16 -13 16 -14 0 -35 -9 -46 -20z"
       id="path196"
       style="fill:#9900ff" />
    <path
       d="M6292 5571 c2 -27 8 -46 17 -49 10 -3 11 3 6 29 -12 58 -25 69 -23 20z"
       id="path198"
       style="fill:#cc99cc" />
    <path
       d="M1059 5549 c-24 -18 -46 -34 -49 -36 -8 -8 25 -23 51 -23 32 0 59 28 59 63 0 34 -7 34 -61 -4z"
       id="path200"
       style="fill:#990066" />
    <path
       d="M1642 5527 c-17 -17 -20 -27 -12 -32 16 -10 43 18 38 40 -3 14 -6 13 -26 -8z"
       id="path202"
       style="fill:#9900ff" />
    <path
       d="M1730 5533 c-33 -14 -34 -16 -15 -29 26 -19 38 -18 69 7 21 17 25 24 14 30 -17 11 -26 10 -68 -8z"
       id="path204"
       style="fill:#9900ff" />
    <path
       d="M1259 5514 c-24 -28 -30 -51 -19 -79 9 -22 56 -62 64 -54 3 2 -3 37 -12 78 -16 69 -18 72 -33 55z"
       id="path206"
       style="fill:#990066" />
    <path
       d="M3204 5490 c-64 -24 -74 -134 -22 -231 34 -64 118 -150 211 -213 54 -37 59 -39 84 -25 83 43 211 198 233 281 23 85 -24 168 -97 168 -47 0 -99 -30 -121 -71 -9 -17 -25 -42 -36 -55 l-18 -25 -72 76 c-74 79 -126 109 -162 95z"
       id="path208"
       style="fill:#ff3300" />
    <path
       d="M537 5483 c-12 -12 -8 -18 24 -32 19 -8 37 -27 45 -48 25 -58 -2 -106 -68 -123 -37 -11 -44 -22 -32 -54 4 -11 13 -14 30 -10 17 4 29 -1 47 -20 l23 -25 22 22 c13 12 32 34 43 50 22 29 63 36 100 17 14 -8 19 -7 19 3 0 18 32 47 53 47 21 0 21 9 2 34 -12 16 -18 17 -27 8 -39 -39 -128 17 -128 81 0 33 -3 35 -44 46 -50 12 -99 14 -109 4z"
       id="path210"
       style="fill:#ff3399" />
    <path
       d="M1561 5444 c-32 -36 -36 -59 -11 -59 15 0 45 40 55 73 9 32 -9 27 -44 -14z"
       id="path212"
       style="fill:#9900ff" />
    <path
       d="M1680 5472 c0 -14 11 -21 26 -15 8 3 11 9 8 14 -7 11 -34 12 -34 1z"
       id="path214" />
    <path
       d="M4342 5450 c-12 -10 -40 -21 -63 -25 l-40 -7 17 -25 c11 -18 14 -37 10 -63 l-6 -38 39 5 c27 4 46 0 62 -11 34 -23 41 -20 34 18 -6 30 -3 36 26 57 l33 23 -32 13 c-19 8 -37 25 -44 42 -13 30 -13 30 -36 11z"
       id="path216"
       style="fill:#cc6699" />
    <path
       d="M6043 5463 c4 -3 30 -14 58 -24 61 -22 177 -92 239 -146 81 -69 74 -67 119 -36 22 15 40 30 40 33 0 3 -21 22 -47 43 -74 59 -196 116 -277 127 -82 11 -141 13 -132 3z"
       id="path218"
       style="fill:#ff66cc" />
    <path
       d="M1630 5429 c0 -27 2 -30 15 -19 8 7 15 21 15 31 0 11 -7 19 -15 19 -10 0 -15 -10 -15 -31z"
       id="path220"
       style="fill:#9900ff" />
    <path
       d="M514 5439 c-3 -6 -9 -40 -12 -75 -5 -62 -4 -64 19 -64 64 0 94 74 47 117 -34 29 -46 35 -54 22z"
       id="path222"
       style="fill:#990066" />
    <path
       d="M714 5423 c8 -35 43 -65 69 -61 35 5 30 26 -14 57 -52 38 -63 39 -55 4z"
       id="path224"
       style="fill:#990066" />
    <path
       d="M3747 5430 c-3 -14 -5 -48 -4 -76 0 -28 -5 -65 -12 -82 -11 -26 -11 -35 -1 -47 28 -34 66 -10 95 59 l16 38 -30 27 c-17 14 -37 44 -45 66 -13 37 -14 38 -19 15z"
       id="path226"
       style="fill:#cc99cc" />
    <path
       d="M2827 5423 c-5 -12 -17 -25 -28 -28 -20 -7 -26 -30 -9 -40 21 -13 109 -153 158 -251 l51 -101 68 -22 c78 -25 246 -61 253 -54 3 3 -3 10 -13 17 -23 17 -22 35 3 44 17 6 -3 30 -141 167 -103 103 -162 170 -165 188 -6 25 -24 39 -24 17 0 -5 -14 -17 -31 -26 -55 -28 -101 7 -111 86 -4 25 -4 25 -11 3z"
       id="path228"
       style="fill:#990066" />
    <path
       d="M5920 5354 c0 -149 38 -257 122 -349 74 -81 188 -130 188 -81 0 25 88 190 124 233 20 22 36 45 35 50 0 4 -27 31 -61 58 -139 115 -233 162 -345 172 l-63 6 0 -89z"
       id="path230"
       style="fill:#ff66cc" />
    <path
       d="M6946 5414 c-12 -30 -6 -53 15 -59 28 -9 29 -6 16 38 -13 40 -21 46 -31 21z"
       id="path232"
       style="fill:#ff66cc" />
    <path
       d="M3910 5403 c0 -12 -8 -31 -18 -43 -11 -14 -17 -33 -14 -47 4 -21 9 -24 31 -18 30 7 71 32 71 43 -1 4 -16 25 -35 46 -29 33 -35 36 -35 19z"
       id="path234"
       style="fill:#cc99cc" />
    <path
       d="M4200 5388 c0 -46 10 -98 20 -98 3 0 11 15 17 33 8 28 6 38 -14 67 l-23 34 0 -36z"
       id="path236"
       style="fill:#cc6699" />
    <path
       d="M4070 5391 c-10 -20 -8 -27 13 -50 14 -14 32 -40 41 -58 13 -26 70 -73 88 -73 3 0 -3 24 -13 53 -10 28 -18 60 -19 70 0 11 -8 17 -23 17 -26 0 -50 16 -65 44 -9 18 -10 18 -22 -3z"
       id="path238"
       style="fill:#cc99cc" />
    <path
       d="M1485 5380 c-4 -6 -25 -23 -48 -37 l-42 -27 35 -7 c19 -4 42 -17 51 -28 17 -21 18 -21 72 36 58 61 66 76 24 48 -20 -13 -30 -14 -46 -5 -12 6 -21 15 -21 20 0 13 -17 13 -25 0z"
       id="path240"
       style="fill:#ff3399" />
    <path
       d="M5490 5299 c-41 -32 -78 -59 -81 -59 -3 0 -28 -20 -55 -46 -57 -53 -181 -117 -274 -141 -94 -25 -482 -24 -590 1 -86 19 -174 57 -210 90 -14 12 -46 30 -72 40 -45 17 -77 46 -141 130 -32 41 -43 45 -52 15 -4 -13 -30 -31 -71 -49 -35 -16 -64 -32 -64 -36 0 -4 7 -15 16 -25 12 -14 13 -22 4 -39 -9 -18 -8 -25 5 -40 10 -11 14 -26 11 -38 -5 -15 0 -22 24 -32 64 -27 108 -68 140 -133 29 -60 34 -65 71 -70 21 -3 60 -15 86 -28 60 -29 172 -138 207 -204 15 -28 24 -41 20 -30 -3 11 -9 52 -11 91 -12 156 80 226 268 205 55 -6 109 -19 137 -32 90 -44 157 -138 197 -277 l21 -72 63 134 c93 199 135 240 242 239 l56 -1 24 57 c14 35 43 76 76 109 50 50 139 102 176 102 11 0 17 8 17 25 0 14 5 34 12 45 10 15 9 23 -7 40 -14 16 -16 23 -7 32 25 25 14 41 -23 34 -19 -3 -50 -9 -69 -12 -28 -5 -37 -2 -48 15 -7 12 -15 21 -18 20 -3 0 -39 -27 -80 -60z"
       id="path242"
       style="fill:#ff0099" />
    <path
       d="M1090 5330 c-11 -11 -20 -29 -20 -40 0 -21 36 -64 48 -58 65 32 94 76 70 106 -16 19 -75 15 -98 -8z"
       id="path244"
       style="fill:#990066" />
    <path
       d="M6727 5340 c-193 -34 -345 -147 -427 -316 -16 -33 -36 -88 -44 -121 l-14 -60 70 -12 c145 -24 183 -67 176 -197 -3 -61 -7 -77 -28 -99 -37 -39 -78 -53 -185 -61 -100 -7 -125 -18 -125 -54 0 -27 24 -36 114 -44 89 -7 140 -28 170 -69 17 -24 21 -43 21 -115 0 -101 -14 -143 -59 -175 -27 -19 -44 -22 -129 -22 -92 0 -100 -2 -118 -24 -25 -30 -24 -67 1 -81 11 -6 70 -13 132 -16 114 -5 166 -19 204 -54 l20 -20 -4 58 c-5 71 14 324 28 373 6 20 21 53 34 72 14 20 36 67 50 106 29 81 81 188 104 214 8 9 22 17 32 17 24 0 85 -68 115 -129 l27 -54 52 7 c28 3 112 6 187 6 l135 0 12 59 c15 85 46 151 70 151 11 0 34 -17 52 -37 l31 -38 -6 99 c-8 121 -34 228 -81 326 -46 98 -77 137 -114 145 -25 6 -116 61 -197 120 -49 37 -216 61 -306 45z m3 -159 c13 -26 13 -33 -4 -56 -12 -16 -16 -17 -30 -6 -19 16 -21 52 -4 69 17 17 26 15 38 -7z m229 -3 c10 -27 -1 -63 -19 -63 -20 0 -34 30 -26 58 8 33 34 35 45 5z m-69 -58 c0 -22 -36 -50 -65 -50 -29 0 -65 28 -65 51 0 25 12 24 28 -1 18 -29 60 -26 74 5 12 27 28 24 28 -5z"
       id="path246"
       style="fill:#cc66ff" />
    <path
       d="M1329 5295 l-22 -36 -27 33 c-25 29 -29 31 -45 18 -13 -11 -15 -23 -11 -52 7 -42 5 -44 -23 -26 -15 9 -23 9 -35 -1 -28 -23 -19 -49 22 -66 31 -13 44 -14 79 -4 41 11 121 9 154 -5 24 -11 56 66 41 99 -13 28 -43 33 -62 10 -17 -20 -30 -10 -30 25 0 43 -17 46 -41 5z"
       id="path248"
       style="fill:#ff3399" />
    <path
       d="M924 5266 c-8 -31 -8 -31 -44 -5 -51 38 -79 6 -39 -45 17 -21 29 -26 64 -26 36 0 48 5 61 24 21 34 15 70 -13 74 -17 3 -24 -3 -29 -22z"
       id="path250"
       style="fill:#990066" />
    <path
       d="M3832 5246 c-13 -24 -33 -48 -45 -53 -40 -19 -213 -143 -247 -178 l-33 -34 36 6 c29 4 37 2 37 -10 0 -8 -7 -17 -15 -21 -8 -3 -15 -12 -15 -21 0 -12 7 -15 33 -10 135 23 229 35 238 30 16 -11 -1 -25 -29 -25 -29 0 -60 -15 -51 -24 3 -3 21 -1 40 5 51 16 197 13 247 -5 23 -8 42 -14 42 -12 0 11 -53 96 -66 107 -9 7 -39 22 -67 34 -47 18 -52 24 -60 60 -12 55 -19 113 -19 158 0 20 -1 37 -2 37 0 0 -11 -20 -24 -44z"
       id="path252"
       style="fill:#990066" />
    <path
       d="M3110 5262 c0 -4 61 -68 135 -142 106 -106 135 -130 135 -112 0 12 -4 22 -9 22 -17 0 -170 151 -198 195 -16 25 -36 45 -45 45 -10 0 -18 -3 -18 -8z"
       id="path254"
       style="fill:#cc99cc" />
    <path
       d="M5805 5257 c-8 -27 -13 -207 -5 -207 5 0 15 -3 24 -6 14 -5 16 8 16 104 0 90 -3 111 -15 116 -9 3 -17 0 -20 -7z"
       id="path256"
       style="fill:#cc99cc" />
    <path
       d="M5860 5151 c0 -105 1 -111 20 -111 20 0 21 5 18 107 -3 93 -5 108 -20 111 -16 3 -18 -7 -18 -107z"
       id="path258"
       style="fill:#cc99cc" />
    <path
       d="M688 5233 c-16 -15 -16 -18 7 -39 16 -15 25 -34 25 -53 l0 -30 41 27 c34 22 39 30 34 52 -12 52 -74 77 -107 43z"
       id="path260"
       style="fill:#990066" />
    <path
       d="M5767 5213 c-4 -3 -7 -18 -7 -31 0 -14 -7 -33 -15 -42 -9 -10 -19 -34 -22 -54 -5 -33 -4 -36 19 -36 24 0 25 3 32 81 7 81 5 95 -7 82z"
       id="path262"
       style="fill:#cc99cc" />
    <path
       d="M3681 5179 c-26 -35 -17 -37 23 -6 23 19 26 25 14 30 -10 3 -23 -5 -37 -24z"
       id="path264"
       style="fill:#cc99cc" />
    <path
       d="M527 5172 c-9 -10 -17 -30 -17 -43 0 -44 -27 -70 -68 -67 -33 3 -37 0 -40 -22 -2 -14 9 -56 23 -93 23 -61 25 -81 25 -217 0 -82 7 -198 15 -258 42 -303 166 -669 279 -827 40 -56 41 -55 21 35 -20 87 -29 281 -17 354 10 59 9 60 -29 116 -84 124 -124 301 -117 524 3 121 6 136 34 196 17 36 47 86 67 113 21 26 37 49 37 51 0 2 -13 6 -29 9 -34 7 -44 28 -31 63 23 60 -2 94 -43 56 -32 -30 -45 -30 -60 -3 -16 32 -30 36 -50 13z"
       id="path266"
       style="fill:#996600" />
    <path
       d="M820 5180 c0 -5 5 -10 11 -10 5 0 7 5 4 10 -3 6 -8 10 -11 10 -2 0 -4 -4 -4 -10z"
       id="path268"
       style="fill:none" />
    <path
       d="M870 5154 c-57 -15 -140 -59 -140 -73 0 -5 9 -11 20 -14 32 -8 24 -37 -34 -117 -81 -111 -90 -147 -83 -353 4 -135 10 -188 26 -245 22 -76 61 -160 91 -199 l17 -22 18 39 c10 22 38 58 62 81 45 42 45 43 39 93 -19 160 -19 192 -2 228 21 44 67 68 129 68 86 0 144 -69 135 -163 -4 -37 -3 -38 27 -31 46 10 80 7 114 -11 67 -34 109 -147 81 -215 -23 -55 -56 -64 -227 -61 l-152 2 -17 -26 c-32 -48 3 -105 78 -126 43 -12 595 -15 607 -3 14 14 -166 599 -214 694 -32 63 -50 76 -129 94 -86 20 -118 43 -150 108 -39 78 -31 150 22 210 13 16 12 18 -10 27 -84 32 -220 38 -308 15z m264 -283 c10 -11 16 -30 14 -43 -4 -32 -38 -30 -57 4 -13 22 -13 29 -2 42 17 21 24 20 45 -3z m-124 -66 c17 -9 30 -22 30 -30 0 -19 -10 -19 -34 0 -24 18 -60 19 -74 3 -6 -7 -12 -26 -14 -43 -4 -39 -22 -39 -26 1 -4 39 30 84 64 84 14 0 38 -7 54 -15z m-254 -23 c23 -15 35 -51 24 -72 -13 -24 -18 -25 -42 -3 -25 22 -24 84 1 83 3 0 11 -4 17 -8z m229 -52 c0 -22 -29 -18 -33 3 -3 14 1 18 15 15 10 -2 18 -10 18 -18z m68 -6 c12 -12 -23 -64 -47 -70 -34 -8 -69 -1 -74 15 -4 11 2 13 27 8 24 -5 36 -2 51 13 11 11 20 25 20 30 0 11 13 13 23 4z"
       id="path270"
       style="fill:#9933ff" />
    <path
       d="M5920 5085 c0 -33 4 -45 15 -45 16 0 19 28 9 68 -10 37 -24 25 -24 -23z"
       id="path272"
       style="fill:#cc99cc" />
    <path
       d="M5670 5106 c0 -8 -3 -21 -6 -30 -4 -12 0 -16 15 -16 17 0 21 6 21 30 0 20 -5 30 -15 30 -8 0 -15 -6 -15 -14z"
       id="path274"
       style="fill:#cc99cc" />
    <path
       d="M5622 5098 c-17 -17 -15 -38 3 -38 9 0 15 9 15 25 0 29 -1 30 -18 13z"
       id="path276"
       style="fill:#cc99cc" />
    <path
       d="M5524 5007 c-29 -45 -63 -124 -56 -131 3 -3 17 -6 31 -6 42 0 126 -45 157 -84 16 -19 34 -53 40 -73 l12 -38 10 27 c6 15 28 45 48 68 54 60 113 74 296 75 98 0 148 4 148 11 0 6 -24 20 -53 32 -30 13 -79 45 -109 72 -52 47 -60 50 -110 50 -29 0 -120 7 -203 15 -196 19 -187 20 -211 -18z"
       id="path278"
       style="fill:#cc6666" />
    <path
       d="M3396 4890 c-10 -151 5 -219 56 -254 32 -23 35 -21 59 32 45 98 64 232 34 232 -9 0 -20 11 -25 25 -5 14 -16 25 -24 25 -7 0 -17 7 -20 16 -3 8 -10 13 -14 10 -5 -3 -18 1 -28 9 -10 8 -22 15 -25 15 -3 0 -9 -49 -13 -110z"
       id="path280"
       style="fill:#cc6666" />
    <path
       d="M3064 4809 c49 -148 50 -150 67 -128 23 31 39 87 48 170 l7 69 -40 11 c-23 6 -57 14 -76 20 -19 5 -40 9 -45 9 -6 0 12 -68 39 -151z"
       id="path282"
       style="fill:#cc6666" />
    <path
       d="M3348 4933 c-3 -28 -4 -28 -70 -26 l-67 1 -7 -55 c-15 -121 16 -225 68 -231 20 -2 31 4 44 23 21 33 49 148 59 243 6 61 5 72 -8 72 -10 0 -17 -11 -19 -27z"
       id="path284"
       style="fill:#cc6666" />
    <path
       d="M3645 4906 l-60 -11 -5 -52 c-3 -29 -4 -53 -2 -53 2 0 12 10 22 23 10 12 41 36 69 52 28 17 51 36 51 43 0 6 -3 12 -7 11 -5 -1 -35 -6 -68 -13z"
       id="path286"
       style="fill:#cc6666" />
    <path
       d="M3797 4889 c-100 -23 -196 -98 -241 -187 -55 -109 -89 -296 -89 -497 -1 -347 86 -585 244 -665 22 -12 78 -27 122 -34 l82 -13 87 51 c58 34 87 57 87 69 1 31 -50 72 -126 101 -120 46 -154 115 -87 174 22 19 36 23 77 20 48 -3 51 -1 58 24 7 27 7 27 -36 21 -125 -17 -206 56 -223 200 -15 130 16 224 100 303 42 39 52 44 95 44 81 0 149 -59 173 -150 19 -69 17 -237 -3 -282 l-16 -38 25 0 c30 0 71 -38 80 -76 4 -16 2 -59 -4 -96 -7 -38 -12 -84 -12 -102 0 -41 37 -89 79 -104 28 -10 30 -9 45 30 55 137 96 368 96 543 0 236 -56 391 -190 526 -125 126 -271 174 -423 138z"
       id="path288"
       style="fill:#ff0000" />
    <path
       d="M4584 4869 c-70 -20 -121 -117 -108 -207 17 -121 290 -778 415 -1001 47 -83 27 -71 -34 21 -112 169 -205 365 -303 643 -48 136 -53 144 -46 90 12 -100 7 -453 -7 -535 -7 -41 -24 -113 -38 -159 -13 -46 -22 -85 -21 -87 2 -1 41 -8 88 -14 47 -6 121 -20 165 -31 141 -34 218 -21 250 41 8 16 20 64 26 107 17 123 50 163 123 149 47 -9 70 -43 64 -94 l-6 -38 62 4 c33 2 82 10 107 18 38 12 49 21 67 59 12 25 22 48 22 51 0 3 -27 -9 -60 -27 -39 -22 -63 -43 -71 -61 -6 -16 -14 -27 -16 -24 -3 3 72 192 167 421 148 359 172 424 172 471 1 79 -42 136 -137 180 -61 29 -104 30 -154 5 -65 -33 -101 -96 -222 -379 -45 -107 -70 -135 -95 -110 -7 7 -29 75 -49 151 -49 193 -99 281 -191 338 -38 23 -119 32 -170 18z"
       id="path290"
       style="fill:#ff0000" />
    <path
       d="M2575 4863 c-75 -16 -95 -45 -115 -165 -16 -94 -24 -438 -15 -649 l7 -185 28 4 c38 6 81 -20 115 -67 l28 -41 35 22 c46 28 112 30 149 2 63 -47 66 -109 7 -171 -19 -19 -34 -37 -34 -39 0 -2 15 3 33 11 98 41 315 58 441 34 43 -8 62 -7 70 1 15 15 21 195 7 241 -19 63 -50 71 -280 73 -289 2 -280 -9 -257 311 9 121 16 297 16 390 0 192 -4 207 -68 225 -37 10 -128 12 -167 3z"
       id="path292"
       style="fill:#ff0000" />
    <path
       d="M4794 4855 c21 -16 32 -13 21 4 -3 6 -14 11 -23 11 -15 -1 -15 -2 2 -15z"
       id="path294"
       style="fill:none" />
    <path
       d="M4835 4839 c-4 -5 1 -19 11 -30 17 -19 19 -19 31 -3 10 14 10 19 -5 30 -21 16 -29 17 -37 3z"
       id="path296"
       style="fill:#ff66ff" />
    <path
       d="M4184 4825 c11 -8 22 -12 25 -9 6 6 -19 24 -34 24 -5 -1 -1 -7 9 -15z"
       id="path298"
       style="fill:none" />
    <path
       d="M5576 4809 c12 -13 27 -35 34 -48 11 -22 13 -22 22 -7 12 21 -3 41 -46 63 l-31 16 21 -24z"
       id="path300"
       style="fill:#ff66ff" />
    <path
       d="M5982 4819 c-142 -13 -186 -35 -224 -107 -50 -92 -53 -131 -51 -616 2 -247 4 -450 5 -452 2 -1 30 4 63 12 168 39 358 0 490 -101 30 -23 51 -33 53 -26 2 6 15 25 28 40 52 62 66 128 38 186 -22 47 -66 65 -161 65 -126 1 -193 42 -193 121 0 75 67 116 170 106 42 -5 62 -2 78 9 27 19 52 101 52 171 0 46 -3 55 -26 70 -15 9 -67 23 -116 29 -68 10 -97 19 -122 38 -57 43 -55 104 6 149 21 16 49 22 130 26 57 4 113 12 125 19 43 24 54 125 22 195 -20 45 -57 56 -244 71 -22 2 -77 0 -123 -5z"
       id="path302"
       style="fill:#ff0000" />
    <path
       d="M2840 4783 c1 -36 1 -37 16 -18 17 22 15 46 -3 53 -9 2 -13 -8 -13 -35z"
       id="path304"
       style="fill:#ff66ff" />
    <path
       d="M4226 4801 c-3 -4 3 -16 13 -25 17 -16 19 -16 25 0 9 24 -25 46 -38 25z"
       id="path306"
       style="fill:#ff66ff" />
    <path
       d="M4890 4791 c-8 -16 -7 -27 3 -48 l15 -27 15 31 c15 29 15 32 -3 48 -17 16 -19 16 -30 -4z"
       id="path308"
       style="fill:#ff66ff" />
    <path
       d="M6372 4773 c16 -38 16 -37 33 -23 21 17 19 25 -10 38 -35 16 -36 16 -23 -15z"
       id="path310"
       style="fill:#ff66ff" />
    <path
       d="M2862 4741 c-15 -26 -22 -53 -20 -73 l3 -33 33 47 c36 52 37 57 19 82 -11 16 -15 13 -35 -23z"
       id="path312"
       style="fill:#ff66ff" />
    <path
       d="M4278 4762 c-5 -17 12 -52 24 -52 12 0 17 45 6 57 -15 18 -25 16 -30 -5z"
       id="path314"
       style="fill:#ff66ff" />
    <path
       d="M4931 4725 c-10 -28 -10 -39 2 -60 l13 -26 18 39 c15 34 16 42 5 61 -18 28 -23 27 -38 -14z"
       id="path316"
       style="fill:#ff66ff" />
    <path
       d="M6411 4731 c-18 -25 -26 -91 -10 -91 12 0 59 57 59 72 0 23 -11 48 -20 48 -5 0 -18 -13 -29 -29z"
       id="path318"
       style="fill:#ff66ff" />
    <path
       d="M5643 4738 c-12 -14 -22 -98 -13 -98 4 0 16 10 29 21 17 16 21 28 16 48 -9 35 -20 45 -32 29z"
       id="path320"
       style="fill:#ff66ff" />
    <path
       d="M4324 4716 c-4 -16 -1 -39 6 -54 l13 -27 14 34 c13 31 13 36 -6 54 l-20 20 -7 -27z"
       id="path322"
       style="fill:#ff66ff" />
    <path
       d="M3170 4708 c0 -6 -11 -26 -25 -44 l-26 -34 35 -161 c19 -88 37 -163 39 -165 10 -10 39 11 55 40 13 25 17 53 15 140 -2 97 -4 110 -22 123 -25 17 -51 64 -51 93 0 11 -4 20 -10 20 -5 0 -10 -5 -10 -12z"
       id="path324"
       style="fill:#cc6666" />
    <path
       d="M3365 4705 c-20 -59 -30 -78 -57 -98 l-29 -23 11 -88 c23 -185 78 -248 129 -149 23 45 41 137 41 206 0 41 -4 52 -26 70 -15 11 -35 39 -45 61 -15 34 -19 38 -24 21z"
       id="path326"
       style="fill:#cc6666" />
    <path
       d="M2876 4646 c-30 -42 -37 -61 -34 -90 l3 -36 38 46 c30 38 37 55 37 90 0 24 -2 44 -4 44 -2 0 -20 -24 -40 -54z"
       id="path328"
       style="fill:#ff66ff" />
    <path
       d="M4972 4654 c-18 -35 -19 -47 -11 -78 5 -20 12 -36 14 -36 2 0 13 21 24 46 18 40 19 49 7 77 l-13 32 -21 -41z"
       id="path330"
       style="fill:#ff66ff" />
    <path
       d="M4371 4649 c-9 -29 -9 -42 3 -70 10 -23 16 -29 19 -19 26 79 26 79 8 102 l-18 22 -12 -35z"
       id="path332"
       style="fill:#ff66ff" />
    <path
       d="M6412 4618 c-24 -27 -41 -52 -38 -55 2 -3 25 7 50 22 38 22 46 32 46 56 0 16 -3 29 -7 28 -5 0 -27 -23 -51 -51z"
       id="path334"
       style="fill:#ff66ff" />
    <path
       d="M7622 4632 c-12 -17 -31 -34 -42 -37 -17 -5 -20 -15 -20 -64 0 -79 30 -125 84 -129 45 -4 71 15 97 73 24 52 24 75 0 75 -29 0 -80 47 -89 83 l-8 31 -22 -32z"
       id="path336"
       style="fill:#cc6633" />
    <path
       d="M5643 4623 c-29 -26 -62 -98 -50 -109 3 -3 23 6 45 21 27 18 42 36 46 57 13 67 6 72 -41 31z"
       id="path338"
       style="fill:#ff66ff" />
    <path
       d="M7321 4585 c-12 -37 -21 -78 -21 -91 0 -41 24 -26 40 24 21 66 42 66 79 0 34 -61 48 -78 62 -78 19 0 -105 200 -128 207 -7 3 -20 -23 -32 -62z"
       id="path340"
       style="fill:#66cc99" />
    <path
       d="M7450 4605 c0 -21 12 -57 30 -88 l29 -51 16 36 c21 53 20 88 -4 88 -11 0 -28 11 -39 25 -26 33 -32 32 -32 -10z"
       id="path342"
       style="fill:#cc6633" />
    <path
       d="M7860 4617 c0 -15 -37 -51 -62 -60 -21 -7 -33 -82 -20 -117 12 -32 40 -57 73 -65 49 -12 102 54 124 153 6 30 5 32 -20 32 -26 0 -75 39 -75 60 0 5 -4 10 -10 10 -5 0 -10 -6 -10 -13z"
       id="path344"
       style="fill:#cc6633" />
    <path
       d="M949 4606 c-44 -25 -51 -56 -43 -196 l7 -126 -42 -48 c-49 -57 -70 -94 -87 -161 -19 -69 -18 -71 15 -36 16 17 54 43 85 57 31 14 56 32 56 39 0 7 12 23 28 35 26 21 33 22 169 16 147 -7 172 -3 200 33 17 23 16 96 -2 132 -33 63 -128 89 -196 53 -30 -15 -31 -15 -24 6 12 37 7 107 -9 139 -30 57 -106 85 -157 57z"
       id="path346"
       style="fill:#996600" />
    <path
       d="M8026 4576 c-38 -39 -38 -39 -33 -103 5 -68 25 -103 59 -103 23 0 26 6 36 107 6 67 5 87 -7 110 l-16 28 -39 -39z"
       id="path348"
       style="fill:#cc6633" />
    <path
       d="M6724 4585 c-15 -23 -94 -199 -94 -210 0 -3 12 1 28 9 20 10 34 32 52 82 14 37 30 68 35 68 6 1 24 -20 40 -46 31 -49 40 -54 63 -39 16 10 1 44 -50 119 -33 48 -51 52 -74 17z"
       id="path350"
       style="fill:#66cc99" />
    <path
       d="M4411 4560 c-10 -35 -8 -79 7 -104 3 -5 13 12 23 37 15 37 16 52 8 77 -14 40 -23 38 -38 -10z"
       id="path352"
       style="fill:#ff66ff" />
    <path
       d="M5002 4550 c-17 -40 -19 -56 -10 -86 l10 -36 22 49 c22 47 25 106 6 118 -4 3 -17 -18 -28 -45z"
       id="path354"
       style="fill:#ff66ff" />
    <path
       d="M2881 4539 c-30 -37 -51 -89 -50 -129 0 -8 19 6 43 32 36 39 45 56 48 93 2 25 1 45 -2 45 -3 0 -20 -19 -39 -41z"
       id="path356"
       style="fill:#ff66ff" />
    <path
       d="M6380 4540 c-40 -25 -57 -40 -45 -40 32 1 102 37 115 59 15 29 5 26 -70 -19z"
       id="path358"
       style="fill:#ff66ff" />
    <path
       d="M7360 4525 c-6 -16 -12 -35 -15 -42 -4 -12 25 -23 63 -23 21 0 22 1 8 28 -8 15 -21 36 -29 47 -15 20 -16 19 -27 -10z"
       id="path360"
       style="fill:#66cc99" />
    <path
       d="M5619 4503 c-39 -22 -49 -35 -62 -75 -8 -26 -12 -48 -9 -48 4 0 30 13 58 29 44 26 51 35 61 75 6 25 7 46 4 46 -3 0 -27 -13 -52 -27z"
       id="path362"
       style="fill:#ff66ff" />
    <path
       d="M6091 4489 c-47 -28 -34 -32 30 -8 66 25 70 29 33 29 -16 0 -44 -9 -63 -21z"
       id="path364"
       style="fill:#ff66ff" />
    <path
       d="M6220 4500 c0 -5 14 -7 33 -3 45 8 47 13 4 13 -20 0 -37 -4 -37 -10z"
       id="path366"
       style="fill:#ff66ff" />
    <path
       d="M6726 4463 c-9 -25 -14 -48 -13 -50 4 -3 68 17 76 23 6 5 -32 74 -40 74 -4 0 -14 -21 -23 -47z"
       id="path368"
       style="fill:#66cc99" />
    <path
       d="M4447 4459 c-18 -48 -20 -70 -10 -108 6 -23 6 -23 24 10 19 35 23 90 10 123 -6 15 -10 11 -24 -25z"
       id="path370"
       style="fill:#ff66ff" />
    <path
       d="M5031 4451 c-12 -22 -21 -46 -21 -53 1 -7 12 9 26 35 14 27 23 51 20 54 -2 3 -14 -13 -25 -36z"
       id="path372"
       style="fill:none" />
    <path
       d="M7529 4466 c-13 -27 -12 -30 26 -62 22 -18 42 -29 44 -23 1 6 -4 16 -13 22 -9 7 -23 30 -30 52 l-14 40 -13 -29z"
       id="path374"
       style="fill:#ff66cc" />
    <path
       d="M3901 4459 c-18 -11 -31 -22 -28 -25 6 -7 63 22 72 36 10 16 -7 12 -44 -11z"
       id="path376"
       style="fill:#ff66ff" />
    <path
       d="M3944 4434 c-47 -50 -68 -126 -69 -249 0 -87 3 -106 25 -150 24 -48 27 -50 65 -49 51 1 90 26 118 78 30 55 32 226 4 298 -17 45 -75 108 -99 108 -6 0 -26 -16 -44 -36z"
       id="path378"
       style="fill:#cc6666" />
    <path
       d="M6092 4450 c-45 -20 -51 -30 -28 -49 20 -17 54 2 67 36 5 14 8 27 7 29 -2 1 -22 -6 -46 -16z"
       id="path380"
       style="fill:#ff66ff" />
    <path
       d="M2872 4413 c-30 -37 -40 -59 -45 -98 l-5 -50 49 55 c41 47 48 61 49 98 0 23 -2 42 -4 42 -2 0 -22 -21 -44 -47z"
       id="path382"
       style="fill:#ff66ff" />
    <path
       d="M6975 4440 c-219 -25 -364 -90 -405 -184 -30 -67 -43 -211 -37 -406 10 -267 18 -358 33 -364 8 -3 64 -13 126 -22 229 -33 678 -6 909 57 105 28 112 41 117 202 7 207 -31 438 -90 549 -70 132 -154 167 -408 173 -91 2 -201 0 -245 -5z m-27 -284 c25 -51 -15 -108 -53 -76 -20 17 -19 75 1 95 21 20 36 15 52 -19z m372 1 c29 -51 -23 -117 -57 -71 -18 25 -16 64 4 86 20 23 34 19 53 -15z m-256 -102 c26 -19 70 -19 86 0 14 17 40 20 40 6 0 -19 -54 -51 -85 -51 -34 0 -89 35 -80 51 8 12 17 11 39 -6z m282 -147 c25 -47 24 -126 0 -144 -11 -8 -30 -14 -43 -14 -30 0 -29 -14 2 -28 14 -6 25 -17 25 -23 0 -15 -70 -99 -83 -99 -5 0 -29 16 -53 35 -23 19 -46 35 -51 35 -5 0 -22 -14 -39 -31 -16 -17 -41 -40 -56 -50 l-28 -20 -25 57 c-14 32 -23 64 -20 72 4 11 -1 13 -19 8 -16 -4 -30 0 -40 10 -31 30 -10 175 27 182 8 2 33 -6 55 -17 34 -17 44 -18 71 -8 25 9 36 9 53 -2 18 -11 22 -11 30 3 5 9 22 16 38 16 16 0 46 11 66 25 49 33 70 32 90 -7z"
       id="path384"
       style="fill:#66ffff" />
    <path
       d="M7271 3891 c-20 -15 -25 -29 -26 -70 -2 -47 0 -51 21 -51 47 0 74 18 74 48 0 39 -19 92 -33 92 -7 0 -23 -9 -36 -19z"
       id="path386"
       style="fill:#cccc66" />
    <path
       d="M6936 3833 c-6 -40 -8 -103 -3 -103 10 0 103 34 110 40 15 13 -11 57 -46 79 -47 29 -53 27 -61 -16z"
       id="path388"
       style="fill:#cccc66" />
    <path
       d="M7170 3851 c-5 -11 -10 -27 -10 -35 0 -26 -24 -18 -43 15 -14 26 -20 29 -32 19 -24 -20 -17 -54 20 -96 l35 -39 40 42 c44 47 52 86 20 103 -15 8 -21 6 -30 -9z"
       id="path390"
       style="fill:#cc3300" />
    <path
       d="M7033 3718 c-30 -32 -31 -34 -18 -65 8 -18 18 -33 22 -33 5 0 25 17 45 38 l37 37 -24 28 c-13 15 -26 27 -28 27 -1 0 -17 -15 -34 -32z"
       id="path392"
       style="fill:#cccc66" />
    <path
       d="M7186 3717 c-19 -20 -19 -21 20 -54 l39 -34 22 28 c13 15 23 31 23 35 0 8 -64 48 -76 47 -5 0 -18 -10 -28 -22z"
       id="path394"
       style="fill:#cccc66" />
    <path
       d="M7736 4428 c-19 -29 -56 -48 -91 -48 -34 0 -32 -13 15 -114 43 -90 56 -100 101 -76 24 13 57 77 65 127 5 34 3 41 -18 55 -14 9 -32 31 -40 48 l-16 33 -16 -25z"
       id="path396"
       style="fill:#cc6633" />
    <path
       d="M7957 4423 c-20 -38 -53 -63 -84 -63 -21 0 -23 -5 -23 -52 0 -105 31 -158 92 -158 38 0 95 53 107 98 24 93 24 102 3 102 -29 0 -60 31 -70 70 l-9 35 -16 -32z"
       id="path398"
       style="fill:#cc6633" />
    <path
       d="M3853 4400 c-27 -16 -63 -65 -63 -84 0 -13 89 61 99 82 13 27 5 28 -36 2z"
       id="path400"
       style="fill:#ff66ff" />
    <path
       d="M5585 4382 c-48 -26 -69 -54 -90 -120 -7 -23 -6 -23 53 7 55 28 62 35 77 81 9 28 15 53 13 55 -2 2 -26 -8 -53 -23z"
       id="path402"
       style="fill:#ff66ff" />
    <path
       d="M5646 4340 c-82 -241 -365 -773 -451 -848 -56 -50 -158 -68 -203 -36 -33 23 -27 7 18 -44 22 -25 55 -75 72 -111 18 -36 33 -67 34 -69 1 -1 17 13 36 32 20 20 49 37 70 41 35 7 36 7 22 33 -45 87 26 203 127 206 35 1 37 3 33 26 -6 32 32 108 69 134 40 29 121 28 170 -3 l37 -23 -1 154 c-1 84 -5 245 -8 358 l-6 205 -19 -55z"
       id="path404"
       style="fill:#cc6666" />
    <path
       d="M6106 4381 c-6 -9 25 -21 53 -21 11 0 9 4 -5 15 -22 17 -40 19 -48 6z"
       id="path406"
       style="fill:#ff66ff" />
    <path
       d="M3271 4340 c-5 -17 -25 -39 -44 -50 l-34 -20 15 -77 c18 -101 46 -174 77 -203 53 -50 78 1 78 160 l0 115 -31 32 c-18 17 -32 38 -32 47 0 28 -18 26 -29 -4z"
       id="path408"
       style="fill:#cc6666" />
    <path
       d="M4463 4330 c-23 -38 -33 -130 -15 -130 5 0 19 21 31 48 17 37 20 55 14 84 l-8 37 -22 -39z"
       id="path410"
       style="fill:#ff66ff" />
    <path
       d="M6230 4350 c8 -5 29 -9 45 -9 26 0 27 2 10 9 -11 5 -31 9 -45 9 -20 1 -22 -1 -10 -9z"
       id="path412"
       style="fill:#ff66ff" />
    <path
       d="M6320 4340 c-11 -7 -9 -13 11 -28 17 -15 28 -17 37 -10 6 6 12 14 12 18 0 13 -47 28 -60 20z"
       id="path414"
       style="fill:#ff66ff" />
    <path
       d="M3810 4302 c-28 -28 -40 -47 -40 -68 l0 -28 44 43 c40 39 66 91 45 91 -4 0 -26 -17 -49 -38z"
       id="path416"
       style="fill:#ff66ff" />
    <path
       d="M2863 4287 c-33 -38 -42 -57 -45 -95 -3 -26 -4 -48 -2 -50 1 -2 23 22 48 52 43 49 47 59 44 97 l-3 43 -42 -47z"
       id="path418"
       style="fill:#ff66ff" />
    <path
       d="M3411 4296 c-23 -24 -24 -30 -19 -134 5 -102 24 -172 46 -172 7 0 6 273 -1 318 -1 9 -10 5 -26 -12z"
       id="path420"
       style="fill:#cc6666" />
    <path
       d="M6382 4287 c-12 -13 -22 -36 -22 -51 l0 -27 35 28 c39 32 40 33 22 57 -12 16 -14 16 -35 -7z"
       id="path422"
       style="fill:#ff66ff" />
    <path
       d="M1624 4265 c4 -11 22 -75 39 -142 l32 -123 40 -1 c22 0 63 -4 90 -9 28 -4 52 -6 53 -5 2 2 -13 13 -35 23 -53 28 -102 82 -169 187 -31 50 -54 81 -50 70z"
       id="path424"
       style="fill:#990066" />
    <path
       d="M5529 4240 c-44 -22 -59 -37 -74 -69 -10 -23 -16 -44 -13 -46 3 -3 27 3 54 12 42 16 52 25 72 67 13 27 22 52 20 56 -2 5 -28 -5 -59 -20z"
       id="path426"
       style="fill:#ff66ff" />
    <path
       d="M3807 4221 c-27 -29 -34 -45 -30 -62 6 -22 8 -21 40 16 18 21 33 49 33 62 0 12 -2 23 -4 23 -2 0 -20 -18 -39 -39z"
       id="path428"
       style="fill:#ff66ff" />
    <path
       d="M7808 4220 c-9 -17 -34 -40 -54 -52 l-37 -22 7 -85 c5 -71 10 -89 27 -104 21 -17 23 -17 53 1 57 33 142 182 104 182 -22 0 -57 42 -64 78 -8 40 -14 40 -36 2z"
       id="path430"
       style="fill:#cc6633" />
    <path
       d="M4469 4195 c-27 -52 -49 -162 -30 -150 6 3 22 26 36 50 21 35 25 54 23 97 l-3 53 -26 -50z"
       id="path432"
       style="fill:#ff66ff" />
    <path
       d="M6386 4206 c-24 -22 -36 -42 -36 -59 l0 -27 45 32 c35 25 45 38 45 60 0 36 -11 35 -54 -6z"
       id="path434"
       style="fill:#ff66ff" />
    <path
       d="M2856 4157 c-35 -41 -46 -62 -46 -88 l0 -33 44 43 c35 34 45 52 48 85 3 22 4 42 3 44 -2 2 -23 -21 -49 -51z"
       id="path436"
       style="fill:#ff66ff" />
    <path
       d="M3815 4144 c-21 -27 -25 -41 -20 -62 l7 -27 24 30 c14 18 24 43 24 63 0 17 -2 32 -4 32 -2 0 -16 -16 -31 -36z"
       id="path438"
       style="fill:#ff66ff" />
    <path
       d="M7984 4145 c-52 -26 -78 -83 -79 -172 0 -89 18 -102 48 -32 28 62 81 219 76 222 -2 2 -22 -7 -45 -18z"
       id="path440"
       style="fill:#cc6633" />
    <path
       d="M6387 4125 c-26 -20 -52 -45 -57 -56 -6 -11 -26 -29 -43 -39 -51 -32 -18 -22 63 18 65 32 76 41 83 71 4 18 6 35 4 37 -2 2 -25 -12 -50 -31z"
       id="path442"
       style="fill:#ff66ff" />
    <path
       d="M5470 4111 c-37 -15 -49 -26 -68 -65 -13 -27 -22 -50 -19 -52 2 -2 26 6 54 18 41 17 54 29 72 65 30 62 32 61 -39 34z"
       id="path444"
       style="fill:#ff66ff" />
    <path
       d="M896 4068 c-35 -55 -26 -123 15 -116 11 2 18 7 17 13 -2 5 -11 8 -20 7 -12 -2 -18 3 -18 17 0 29 45 29 60 0 9 -16 8 -26 -5 -45 -35 -54 -90 -12 -89 68 l1 51 -38 -40 c-30 -33 -39 -51 -44 -97 -8 -62 4 -89 38 -84 27 4 45 34 30 49 -8 8 -11 6 -10 -7 1 -13 -5 -19 -18 -19 -31 0 -28 49 3 53 49 7 70 -48 32 -83 -13 -11 -30 -16 -50 -13 -26 4 -30 2 -30 -19 0 -31 28 -168 42 -201 10 -26 11 -24 23 33 28 131 63 205 140 299 l43 53 -34 27 c-19 15 -37 38 -40 51 -8 31 -29 32 -48 3z"
       id="path446"
       style="fill:#ff9966" />
    <path
       d="M2852 4047 c-40 -41 -42 -44 -25 -59 17 -15 20 -15 46 6 24 19 28 29 25 60 l-3 37 -43 -44z"
       id="path448"
       style="fill:#ff66ff" />
    <path
       d="M3831 4063 c-10 -21 -9 -29 3 -41 12 -13 15 -12 25 5 10 20 5 63 -9 63 -4 0 -12 -12 -19 -27z"
       id="path450"
       style="fill:#ff66ff" />
    <path
       d="M4459 4042 c-23 -32 -39 -68 -47 -107 -7 -32 -10 -60 -8 -62 2 -3 22 19 44 49 31 42 41 65 47 111 3 31 5 57 3 57 -2 0 -19 -22 -39 -48z"
       id="path452"
       style="fill:#ff66ff" />
    <path
       d="M6360 4035 c-16 -9 -19 -14 -9 -15 8 0 24 7 35 15 24 18 7 19 -26 0z"
       id="path454"
       style="fill:#ff66ff" />
    <path
       d="M3375 4009 c-19 -63 -65 -76 -110 -32 l-27 28 3 -25 c4 -22 12 -27 68 -38 67 -13 114 -39 133 -75 25 -48 28 -222 4 -287 -4 -11 17 -28 76 -60 45 -25 114 -76 155 -114 l74 -69 65 64 c35 35 64 66 64 70 0 4 -24 9 -54 11 -169 14 -307 166 -352 388 -14 69 -23 91 -37 96 -10 3 -27 19 -37 36 l-18 30 -7 -23z"
       id="path456"
       style="fill:#cc6666" />
    <path
       d="M3865 4010 c-4 -7 -1 -16 6 -21 23 -14 32 -10 18 9 -7 9 -14 18 -15 20 -1 2 -5 -2 -9 -8z"
       id="path458"
       style="fill:#ff66ff" />
    <path
       d="M6110 4013 c-20 -8 -50 -34 -50 -45 0 -9 43 11 75 36 21 16 7 21 -25 9z"
       id="path460"
       style="fill:#ff66ff" />
    <path
       d="M5413 3985 c-44 -20 -57 -33 -78 -75 -14 -27 -22 -50 -18 -50 5 1 32 15 62 33 38 23 62 46 77 75 12 23 19 42 16 41 -4 0 -30 -11 -59 -24z"
       id="path462"
       style="fill:#ff66ff" />
    <path
       d="M7843 3970 c-31 -29 -51 -40 -74 -40 l-32 0 7 -46 c3 -26 6 -73 6 -106 0 -43 4 -60 15 -64 32 -13 61 7 104 71 l44 65 -14 42 c-7 23 -14 59 -14 80 0 21 0 38 0 38 0 0 -19 -18 -42 -40z"
       id="path464"
       style="fill:#cc6633" />
    <path
       d="M4077 3989 c-23 -13 -47 -68 -47 -105 0 -21 -3 -25 -17 -18 -10 4 -37 9 -60 12 -32 3 -46 -1 -62 -17 -44 -44 -12 -90 80 -117 70 -21 105 -46 130 -96 28 -54 19 -80 -33 -104 -59 -26 -177 -104 -228 -150 -98 -89 -179 -225 -227 -381 -24 -81 -27 -102 -27 -263 -1 -133 3 -195 17 -260 60 -282 204 -552 405 -762 121 -126 165 -153 234 -145 72 9 218 83 314 161 128 103 210 202 412 498 l120 177 -20 40 c-23 46 -18 85 14 127 19 23 20 28 7 38 -28 21 -49 60 -49 91 0 31 33 95 48 95 5 0 -2 22 -16 50 -18 37 -23 58 -18 84 8 41 49 94 83 107 l23 8 -25 37 c-14 21 -25 51 -25 70 0 25 -21 67 -80 161 -44 70 -80 134 -80 144 0 9 12 30 28 46 27 29 64 46 174 78 75 23 116 49 124 80 12 50 -30 66 -120 46 l-38 -9 6 48 c8 56 -5 96 -33 105 -47 15 -72 -22 -90 -133 -13 -78 -45 -139 -90 -169 -45 -31 -111 -30 -243 2 -60 15 -161 30 -242 36 -153 11 -194 24 -241 81 -25 29 -27 37 -21 88 19 163 19 174 -4 203 -22 28 -52 34 -83 16z m53 -618 c17 -33 12 -86 -10 -106 -19 -17 -21 -17 -40 0 -36 33 -21 125 20 125 11 0 24 -9 30 -19z m300 -95 c0 -27 16 -43 45 -46 42 -5 55 1 61 25 3 14 10 25 15 25 15 0 10 -48 -7 -64 -20 -20 -83 -21 -111 -1 -32 23 -42 85 -12 85 5 0 9 -11 9 -24z m500 -17 c16 -29 3 -75 -28 -100 l-27 -20 -17 21 c-21 26 -15 64 15 98 25 27 43 28 57 1z m-952 -47 c13 -13 29 -18 49 -15 19 3 36 -1 46 -12 36 -36 12 -90 -66 -146 -32 -23 -43 -27 -54 -17 -25 20 -65 110 -66 146 -2 56 53 82 91 44z m495 -164 c12 -6 27 -17 32 -23 6 -7 22 -15 36 -19 28 -6 57 -56 44 -76 -13 -20 16 -70 40 -70 27 0 55 -30 59 -61 1 -13 10 -36 20 -51 16 -24 16 -33 5 -82 -18 -83 -39 -110 -119 -151 -39 -21 -69 -39 -67 -41 2 -2 26 0 55 5 28 4 54 6 57 3 14 -14 0 -21 -62 -31 -146 -25 -174 -33 -161 -48 9 -11 9 -16 -1 -23 -21 -12 -8 -24 104 -95 99 -63 122 -85 92 -85 -20 0 -223 135 -236 156 -16 29 -14 -41 4 -120 19 -82 13 -100 -32 -93 -19 3 -45 1 -58 -5 -19 -8 -29 -7 -48 5 -16 11 -28 12 -41 5 -47 -26 -59 19 -24 92 11 25 21 68 22 95 l1 51 -79 -23 c-111 -33 -160 -40 -154 -23 2 8 48 25 103 39 97 26 98 26 100 59 3 35 -20 58 -150 152 -33 24 -62 45 -64 47 -3 2 0 8 5 13 9 9 76 -34 163 -104 8 -6 4 9 -9 34 -12 25 -29 49 -36 53 -9 5 -14 26 -14 57 0 27 -5 61 -10 76 -8 21 -7 32 5 51 9 13 13 29 9 35 -13 20 -6 70 13 90 12 13 27 18 45 16 21 -4 32 1 44 19 21 33 84 29 99 -4 14 -32 25 -29 25 7 0 37 38 65 78 57 16 -3 35 0 46 9 24 17 31 17 59 2z m428 -14 c17 -15 19 -15 34 0 34 34 85 14 85 -34 0 -37 -77 -140 -105 -140 -14 0 -79 67 -94 97 -33 65 28 124 80 77z"
       id="path466"
       style="fill:#3300ff" />
    <path
       d="M3920 3185 c-7 -8 -9 -23 -5 -37 14 -43 45 -98 57 -98 21 0 99 87 92 104 -7 18 -49 22 -59 6 -11 -18 -33 -10 -39 15 -7 28 -27 33 -46 10z"
       id="path468"
       style="fill:#ff3300" />
    <path
       d="M4411 3009 c-16 -17 -22 -19 -39 -8 -10 7 -27 9 -37 6 -14 -6 -16 -16 -12 -58 7 -65 17 -76 51 -54 31 21 70 9 80 -23 5 -14 13 -18 30 -15 15 3 31 -2 43 -14 11 -11 25 -17 31 -15 20 6 14 50 -9 62 -19 11 -20 13 -4 30 11 12 14 26 10 40 -6 19 -12 21 -41 15 -31 -5 -34 -4 -34 18 0 22 -16 37 -40 37 -5 0 -18 -9 -29 -21z"
       id="path470"
       style="fill:#cc66ff" />
    <path
       d="M4193 2968 c-6 -7 -13 -21 -16 -31 -5 -14 -14 -17 -40 -12 -56 11 -80 -47 -29 -70 29 -13 28 -21 -5 -37 -14 -7 -28 -18 -30 -24 -6 -17 25 -44 42 -38 8 4 22 3 30 0 12 -4 13 -10 6 -25 -8 -14 -7 -22 5 -32 21 -17 42 -3 67 44 10 20 23 37 28 37 5 0 7 11 3 24 -8 34 2 61 31 76 29 15 24 30 -11 30 -19 0 -24 5 -24 25 0 14 -8 29 -19 35 -25 13 -27 13 -38 -2z"
       id="path472"
       style="fill:#cc66ff" />
    <path
       d="M4380 2856 c-11 -30 -17 -32 -41 -10 -20 18 -54 12 -63 -11 -3 -8 4 -24 15 -34 19 -18 19 -48 0 -36 -5 2 -16 -1 -26 -9 -26 -19 -5 -55 29 -49 22 5 25 2 23 -23 -3 -41 30 -45 60 -8 l23 29 19 -24 c15 -19 24 -22 46 -17 28 7 29 12 10 74 -6 18 -4 22 14 22 14 0 23 8 27 24 9 38 -3 48 -46 41 -37 -6 -39 -5 -42 22 -4 37 -35 43 -48 9z"
       id="path474"
       style="fill:#ff0000" />
    <path
       d="M4588 2817 c-21 -12 -42 -34 -47 -49 -6 -16 -15 -28 -21 -28 -7 0 -9 -12 -4 -34 5 -28 2 -38 -15 -52 -25 -22 -28 -69 -5 -78 31 -12 44 -6 44 19 0 29 11 31 45 9 34 -22 59 -3 50 38 -5 23 -3 28 12 28 43 0 58 49 23 73 -15 11 -19 21 -15 39 4 16 0 29 -12 40 -17 15 -21 15 -55 -5z"
       id="path476"
       style="fill:#cc66ff" />
    <path
       d="M4086 2706 c-8 -33 0 -51 29 -64 19 -9 24 -8 29 5 4 9 0 23 -9 33 -8 9 -15 24 -15 33 0 26 -27 20 -34 -7z"
       id="path478"
       style="fill:#ff3300" />
    <path
       d="M4223 2671 c-3 -12 -13 -21 -23 -21 -10 0 -23 -7 -31 -16 -16 -20 -1 -48 29 -52 15 -2 22 -12 24 -34 4 -43 30 -58 57 -33 23 20 23 20 40 -12 19 -38 71 -24 71 19 0 21 1 21 33 9 36 -14 54 1 39 34 -7 14 -12 34 -12 43 0 9 -12 23 -27 29 -22 11 -29 10 -43 -2 -30 -27 -85 -10 -101 32 -2 6 -14 14 -27 18 -19 5 -25 3 -29 -14z"
       id="path480"
       style="fill:#cc66ff" />
    <path
       d="M4150 2565 c0 -3 15 -35 34 -72 19 -38 37 -78 41 -90 5 -19 13 -23 50 -23 51 0 95 17 95 37 0 8 19 22 43 32 23 11 51 26 62 35 19 15 19 15 -15 16 -23 0 -41 -7 -52 -20 -25 -29 -64 -35 -93 -16 -15 10 -35 14 -48 11 -28 -7 -77 28 -77 55 0 11 -9 24 -20 30 -11 6 -20 8 -20 5z"
       id="path482"
       style="fill:#66cc66" />
    <path
       d="M4560 2560 c0 -12 27 -12 55 0 16 7 13 9 -17 9 -21 1 -38 -3 -38 -9z"
       id="path484"
       style="fill:none" />
    <path
       d="M4500 2530 c0 -5 7 -7 15 -4 8 4 15 8 15 10 0 2 -7 4 -15 4 -8 0 -15 -4 -15 -10z"
       id="path486"
       style="fill:none" />
    <path
       d="M4253 2352 c-21 -2 -33 -9 -33 -18 0 -12 11 -14 52 -12 28 2 53 8 55 14 4 13 -28 20 -74 16z"
       id="path488"
       style="fill:#66cc66" />
    <path
       d="M4225 2280 c-15 -17 -57 -110 -50 -110 3 0 14 5 25 12 16 10 23 9 40 -7 18 -16 24 -17 41 -6 13 7 33 10 51 6 34 -8 34 -14 7 88 -10 37 -11 38 -55 35 -25 -2 -52 -10 -59 -18z"
       id="path490"
       style="fill:#66cc66" />
    <path
       d="M4853 3023 c-25 -9 -13 -53 24 -94 l38 -41 37 42 c37 41 49 82 28 95 -5 3 -21 -5 -34 -19 -29 -32 -32 -32 -59 -2 -12 13 -28 22 -34 19z"
       id="path492"
       style="fill:#ff3300" />
    <path
       d="M2887 3983 c-12 -11 -8 -23 8 -23 8 0 15 7 15 15 0 16 -12 20 -23 8z"
       id="path494"
       style="fill:#ff66ff" />
    <path
       d="M1013 3940 c-79 -78 -139 -205 -163 -348 l-12 -73 39 -82 c22 -45 53 -104 70 -130 l30 -49 6 124 c4 85 12 144 27 193 38 121 65 164 193 308 38 43 68 79 66 81 -2 2 -53 6 -112 8 l-108 4 -36 -36z"
       id="path496"
       style="fill:#ff6666" />
    <path
       d="M1423 3973 l-112 -4 -70 -77 c-39 -42 -71 -82 -71 -88 0 -23 39 -47 65 -40 27 7 35 26 10 26 -9 0 -15 9 -15 21 0 15 5 20 23 17 26 -4 36 -50 16 -74 -18 -21 -75 -18 -100 7 -26 26 -32 21 -83 -65 -43 -71 -49 -133 -16 -166 24 -24 34 -25 54 -4 18 17 20 30 7 38 -5 3 -8 -2 -7 -12 1 -11 -6 -17 -19 -17 -25 0 -27 33 -2 49 41 26 74 -37 38 -73 -30 -30 -65 -27 -94 10 l-24 31 -12 -76 c-6 -42 -11 -101 -11 -131 0 -46 4 -56 26 -74 15 -12 32 -21 39 -21 18 0 48 37 40 49 -11 19 -23 12 -18 -9 4 -14 0 -20 -10 -20 -21 0 -30 16 -22 39 8 27 35 34 56 15 27 -24 24 -49 -8 -74 -26 -20 -46 -22 -85 -5 -37 15 2 -50 77 -130 l74 -80 1 52 c0 76 28 276 50 365 45 182 166 357 350 507 l25 20 -30 -1 c-16 -1 -80 -4 -142 -5z"
       id="path498"
       style="fill:#ff66cc" />
    <path
       d="M1580 3938 c-245 -186 -380 -456 -380 -763 0 -172 2 -177 79 -240 36 -30 84 -68 106 -84 l40 -29 1 196 c1 182 3 205 28 297 31 115 94 254 157 346 50 74 183 215 239 254 22 15 37 31 35 35 -3 5 -40 11 -83 14 -42 4 -97 8 -122 11 -40 3 -51 0 -100 -37z"
       id="path500"
       style="fill:#ff6666" />
    <path
       d="M6088 3954 c-31 -16 -35 -31 -15 -59 19 -25 34 -12 39 35 2 22 3 40 3 40 0 -1 -12 -8 -27 -16z"
       id="path502"
       style="fill:#ff66ff" />
    <path
       d="M1898 3923 c-16 -10 -28 -20 -28 -24 0 -3 20 -16 45 -28 55 -27 102 -25 123 7 14 21 13 23 -22 37 -59 25 -89 27 -118 8z"
       id="path504"
       style="fill:#ff9966" />
    <path
       d="M4430 3872 c-24 -31 -52 -77 -61 -102 -9 -25 -20 -54 -24 -65 -4 -11 20 7 54 40 33 33 63 66 66 75 11 34 22 110 16 109 -3 0 -26 -26 -51 -57z"
       id="path506"
       style="fill:#ff66ff" />
    <path
       d="M3366 3884 c-9 -23 -7 -54 2 -54 5 0 17 9 27 20 15 16 15 22 5 35 -16 19 -26 19 -34 -1z"
       id="path508"
       style="fill:#ff66ff" />
    <path
       d="M2070 3875 c0 -26 -46 -47 -93 -44 l-44 4 5 -42 c4 -37 1 -46 -27 -74 -29 -29 -36 -31 -80 -27 l-49 5 19 -31 c28 -46 25 -92 -10 -127 -17 -16 -40 -29 -54 -29 -25 0 -25 -1 -10 -31 21 -42 10 -91 -28 -123 -17 -14 -39 -26 -50 -26 -19 0 -19 -2 -5 -22 9 -13 16 -43 16 -71 0 -42 -5 -54 -34 -83 -19 -19 -41 -34 -50 -34 -9 0 -16 -4 -16 -10 0 -5 4 -10 10 -10 16 0 40 -56 40 -94 0 -25 -8 -43 -31 -65 l-30 -31 26 -22 c15 -14 28 -38 31 -59 5 -29 1 -41 -21 -65 l-26 -29 7 30 c17 66 11 97 -21 116 -16 9 -45 20 -64 24 -33 7 -33 7 -27 -24 3 -17 9 -44 12 -61 4 -23 20 -39 77 -74 200 -125 385 -165 527 -116 l55 20 -67 -5 c-38 -2 -70 0 -73 5 -9 15 8 18 140 30 199 17 228 21 216 33 -16 16 -13 24 12 31 22 6 22 7 -8 31 -16 14 -78 46 -137 72 -101 44 -129 63 -92 63 8 0 54 -16 100 -36 49 -22 89 -33 94 -28 4 5 18 42 30 83 14 46 31 82 47 97 24 22 25 26 13 50 -12 22 -12 29 4 58 17 33 17 34 -9 86 -22 43 -26 63 -24 122 2 67 1 70 -26 84 -26 13 -30 13 -37 -1 -11 -19 -42 -19 -76 -1 -15 7 -43 20 -63 29 -20 8 -63 41 -97 72 -87 80 -121 161 -92 216 18 33 30 21 24 -24 -8 -57 17 -106 88 -173 48 -46 98 -82 98 -70 0 2 -9 23 -20 47 -23 51 -25 69 -7 69 7 0 20 -22 30 -48 21 -61 53 -102 78 -102 23 0 23 5 5 58 -14 38 -12 52 4 52 4 0 13 -13 20 -30 25 -61 92 -103 106 -66 3 8 1 38 -5 68 -26 141 -96 249 -177 270 -29 8 -44 18 -44 28 0 10 -21 28 -49 43 -56 31 -61 32 -61 12z m240 -548 c0 -37 -74 -66 -122 -48 -44 17 -34 33 15 26 35 -5 47 -3 67 14 29 24 40 26 40 8z"
       id="path510"
       style="fill:#ff9900" />
    <path
       d="M1777 3821 l-61 -59 44 -22 c80 -41 160 -23 160 35 0 25 -54 105 -71 105 -6 0 -38 -26 -72 -59z"
       id="path512"
       style="fill:#ff9966" />
    <path
       d="M6110 3871 c0 -9 34 -21 60 -20 8 0 0 6 -19 14 -39 18 -41 18 -41 6z"
       id="path514"
       style="fill:#ff66ff" />
    <path
       d="M3392 3820 c-12 -16 -22 -44 -22 -62 l0 -33 34 35 c28 28 34 41 29 63 -7 34 -14 34 -41 -3z"
       id="path516"
       style="fill:#ff66ff" />
    <path
       d="M6348 3830 c28 -17 37 -19 49 -8 13 11 13 13 -4 19 -10 4 -31 8 -48 8 l-30 1 33 -20z"
       id="path518"
       style="fill:#ff66ff" />
    <path
       d="M2457 3829 c-25 -15 -47 -63 -47 -104 0 -66 102 -225 144 -225 29 0 160 64 206 100 73 58 84 127 25 166 -31 20 -75 13 -127 -21 -46 -30 -55 -31 -63 -4 -4 12 -23 39 -42 60 -36 40 -63 47 -96 28z"
       id="path520"
       style="fill:#ff3300" />
    <path
       d="M6415 3816 c-16 -11 -16 -16 -4 -49 7 -20 15 -37 19 -37 3 0 18 12 33 26 24 21 27 27 16 40 -22 27 -45 34 -64 20z"
       id="path522"
       style="fill:#ff66ff" />
    <path
       d="M3404 3732 c-28 -33 -50 -92 -35 -92 3 0 21 13 39 28 29 24 33 33 30 64 l-3 37 -31 -37z"
       id="path524"
       style="fill:#ff66ff" />
    <path
       d="M4381 3706 c-63 -64 -64 -65 -39 -71 54 -14 70 -4 90 55 10 30 17 61 16 68 -2 7 -32 -16 -67 -52z"
       id="path526"
       style="fill:#ff66ff" />
    <path
       d="M5303 3752 c-21 -7 -21 -8 -5 -29 l17 -23 17 30 c18 31 14 34 -29 22z"
       id="path528"
       style="fill:#ff66ff" />
    <path
       d="M6463 3733 c-22 -19 -34 -41 -39 -67 l-7 -39 44 26 c46 27 56 47 42 85 l-9 22 -31 -27z"
       id="path530"
       style="fill:#ff66ff" />
    <path
       d="M1650 3675 c-30 -41 -56 -78 -58 -83 -4 -13 100 -52 139 -52 40 0 69 24 69 57 0 19 -71 136 -89 147 -4 3 -31 -29 -61 -69z"
       id="path532"
       style="fill:#ff9966" />
    <path
       d="M5483 3680 c-37 -22 -54 -69 -42 -114 14 -49 24 -51 76 -18 26 17 75 43 107 58 l59 27 -24 19 c-62 50 -124 60 -176 28z"
       id="path534"
       style="fill:#66ccff" />
    <path
       d="M7750 3680 c0 -18 3 -19 20 -8 14 9 16 14 7 20 -20 13 -27 9 -27 -12z"
       id="path536"
       style="fill:none" />
    <path
       d="M3393 3637 c-23 -17 -42 -35 -43 -38 0 -4 12 -10 27 -14 21 -5 32 -2 45 15 14 18 26 71 16 70 -2 0 -22 -15 -45 -33z"
       id="path538"
       style="fill:#ff66ff" />
    <path
       d="M6445 3625 c-35 -22 -100 -93 -92 -101 9 -9 112 34 123 51 17 26 28 75 18 75 -5 0 -27 -12 -49 -25z"
       id="path540"
       style="fill:#ff66ff" />
    <path
       d="M5742 3620 c-247 -65 -428 -267 -510 -568 -25 -94 -26 -107 -28 -407 -3 -468 -17 -506 -263 -719 -50 -44 -91 -83 -91 -88 0 -34 188 -1 431 78 227 73 758 293 881 365 70 41 198 156 198 178 0 12 -21 23 -164 81 -94 39 -101 50 -110 195 -8 126 -9 576 -1 598 10 25 65 45 171 62 54 9 100 18 103 20 2 2 -25 33 -60 68 -68 68 -154 117 -249 142 -77 21 -219 18 -308 -5z m302 -265 c-4 -9 -14 -20 -24 -25 -14 -7 -17 -18 -13 -52 4 -34 0 -49 -17 -70 -12 -16 -29 -28 -39 -28 -31 0 -56 38 -56 85 0 55 25 85 69 83 18 -1 41 4 52 10 26 16 34 15 28 -3z"
       id="path542"
       style="fill:#ccccff" />
    <path
       d="M2415 3593 c13 -48 22 -128 17 -143 -3 -8 -11 -22 -17 -30 -7 -8 -15 -40 -18 -70 -6 -46 -2 -64 18 -108 24 -53 25 -53 66 -50 41 3 42 4 59 59 9 30 26 73 38 95 11 21 23 55 27 75 3 21 12 42 20 49 26 22 16 29 -20 14 -61 -25 -80 -19 -127 40 -24 29 -49 62 -56 72 -12 18 -12 18 -7 -3z"
       id="path544"
       style="fill:#ff6699" />
    <path
       d="M2882 3580 c-146 -39 -252 -116 -252 -185 0 -62 59 -94 138 -76 55 12 54 -1 -2 -55 l-44 -42 24 -11 c35 -16 124 -14 174 4 23 8 44 15 47 15 2 0 -8 -15 -22 -34 -53 -69 -48 -131 14 -177 58 -43 72 -107 33 -151 -19 -23 -75 -23 -93 -2 -12 15 -14 13 -20 -10 -11 -39 9 -96 46 -133 40 -40 86 -43 183 -13 119 37 169 23 222 -63 17 -29 42 -60 53 -67 33 -20 87 -30 132 -23 l40 5 1 182 c0 168 2 187 27 269 29 95 72 186 120 256 l31 45 -71 65 c-110 103 -218 160 -380 201 -104 27 -298 27 -401 0z"
       id="path546"
       style="fill:#ff6600" />
    <path
       d="M5213 3585 c-18 -8 -33 -18 -33 -23 0 -4 -16 -27 -36 -50 -43 -50 -31 -54 26 -9 34 26 92 98 78 97 -1 -1 -18 -7 -35 -15z"
       id="path548"
       style="fill:#ff66ff" />
    <path
       d="M6507 3583 c-13 -35 -83 -100 -117 -108 l-31 -7 26 -33 c16 -22 25 -47 25 -69 0 -24 5 -36 14 -36 7 0 26 -10 41 -22 l28 -22 23 30 c27 32 27 37 10 184 -8 72 -14 98 -19 83z"
       id="path550"
       style="fill:#cc6666" />
    <path
       d="M1546 3499 c-52 -111 -52 -110 24 -132 74 -22 108 -15 135 27 14 21 15 31 5 61 -11 33 -36 58 -102 100 l-28 17 -34 -73z"
       id="path552"
       style="fill:#ff9966" />
    <path
       d="M5081 3549 c-14 -5 -40 -19 -58 -30 -27 -17 -31 -24 -22 -35 20 -24 57 -16 99 22 22 20 40 40 40 45 0 12 -28 10 -59 -2z"
       id="path554"
       style="fill:#ff66ff" />
    <path
       d="M6382 3513 c-24 -8 -41 -17 -38 -20 8 -9 64 8 77 23 6 8 10 14 8 13 -2 0 -23 -7 -47 -16z"
       id="path556"
       style="fill:#ff66ff" />
    <path
       d="M5322 3503 c-59 -29 -80 -105 -45 -164 10 -16 20 -29 23 -29 3 0 15 17 27 38 12 21 42 63 67 94 l46 56 -32 11 c-40 14 -47 14 -86 -6z"
       id="path558"
       style="fill:#66ccff" />
    <path
       d="M7555 3484 c-145 -34 -299 -54 -472 -61 l-152 -6 47 -43 c107 -95 158 -274 118 -407 -8 -26 -11 -47 -8 -47 3 0 39 19 81 41 211 115 392 285 471 443 42 82 48 107 28 105 -7 -1 -58 -12 -113 -25z"
       id="path560"
       style="fill:#66ffff" />
    <path
       d="M6562 3410 c2 -42 8 -49 27 -27 6 8 30 22 53 33 l42 19 -40 7 c-81 14 -85 12 -82 -32z"
       id="path562"
       style="fill:#ff3333" />
    <path
       d="M6672 3400 c-59 -27 -105 -64 -137 -110 -15 -22 -32 -40 -38 -40 -6 0 -23 12 -39 27 -18 18 -39 26 -60 26 -36 0 -273 -49 -290 -59 -12 -7 -5 -468 8 -531 5 -27 14 -34 73 -58 147 -62 201 -96 254 -162 28 -35 53 -63 57 -63 13 0 211 148 315 235 131 110 191 173 231 240 27 47 29 56 29 160 0 99 -3 115 -27 165 -63 127 -151 190 -267 190 -43 0 -81 -7 -109 -20z m275 -166 c23 -23 25 -31 21 -85 -5 -66 -34 -109 -75 -109 -31 0 -39 23 -23 71 10 30 11 48 2 76 -21 69 24 98 75 47z"
       id="path564"
       style="fill:#ff0000" />
    <path
       d="M6899 3232 c-1 -4 -3 -34 -4 -67 -1 -33 -5 -70 -9 -82 -13 -36 21 -29 44 10 21 34 26 87 10 116 -10 20 -39 35 -41 23z"
       id="path566"
       style="fill:#ff3333" />
    <path
       d="M6278 3372 c-23 -3 -28 -8 -28 -33 0 -22 5 -29 19 -29 34 0 51 12 51 35 0 28 -6 32 -42 27z"
       id="path568"
       style="fill:#ff3333" />
    <path
       d="M6338 3374 c-12 -11 5 -45 21 -42 24 5 27 48 3 48 -10 0 -21 -3 -24 -6z"
       id="path570"
       style="fill:#ff3333" />
    <path
       d="M1470 3275 c-12 -52 -20 -101 -17 -109 7 -19 66 -30 112 -22 68 13 100 105 55 154 -18 19 -109 72 -124 72 -2 0 -14 -43 -26 -95z"
       id="path572"
       style="fill:#ff9966" />
    <path
       d="M6183 3354 c-7 -3 -13 -19 -13 -36 0 -27 3 -30 23 -24 12 3 28 6 35 6 9 0 12 10 10 28 -3 27 -26 38 -55 26z"
       id="path574"
       style="fill:#ff3333" />
    <path
       d="M2581 3285 c-12 -31 -21 -61 -21 -68 0 -32 -31 -57 -70 -57 l-40 0 16 -40 c15 -38 15 -41 -6 -75 l-22 -35 25 0 c31 0 47 -34 48 -103 1 -77 7 -86 79 -112 101 -35 140 -53 140 -64 0 -16 -10 -14 -107 23 -106 40 -187 60 -209 52 -12 -4 -15 -14 -11 -34 3 -16 0 -33 -9 -43 -13 -14 -9 -23 29 -75 59 -80 149 -159 225 -196 84 -41 81 -69 -3 -34 -19 8 -35 13 -35 10 0 -15 95 -127 156 -184 63 -59 161 -132 197 -146 11 -4 16 7 20 45 7 62 49 186 93 272 35 70 141 210 174 231 26 17 25 35 -2 44 -36 11 -78 6 -142 -16 -69 -24 -117 -25 -154 -6 -57 30 -102 101 -102 163 0 44 6 55 37 72 29 15 30 14 36 -9 10 -37 67 -18 67 22 0 10 -22 43 -50 73 -55 60 -65 88 -56 143 l5 37 -62 -4 c-66 -3 -112 13 -134 49 -11 16 -7 21 25 41 l37 23 -47 6 c-29 4 -57 15 -71 28 -13 12 -26 22 -29 22 -4 0 -16 -25 -27 -55z m71 -92 c3 -37 4 -38 46 -41 53 -4 52 -26 -1 -30 -47 -4 -77 24 -77 73 0 50 28 48 32 -2z"
       id="path576"
       style="fill:#ff6666" />
    <path
       d="M6123 3333 c-7 -2 -13 -16 -13 -29 0 -17 6 -24 20 -24 16 0 20 7 20 30 0 30 -4 33 -27 23z"
       id="path578"
       style="fill:#ff3333" />
    <path
       d="M5213 3269 c-76 -22 -97 -111 -41 -175 l32 -36 33 94 c49 136 48 128 27 127 -11 0 -33 -5 -51 -10z"
       id="path580"
       style="fill:#66ccff" />
    <path
       d="M1446 3118 c-8 -30 -8 -117 0 -158 7 -32 8 -32 51 -27 83 9 119 77 71 130 -13 14 -44 37 -69 51 l-47 26 -6 -22z"
       id="path582"
       style="fill:#ff9966" />
    <path
       d="M2420 3108 c0 -19 18 -43 25 -36 9 9 -4 48 -16 48 -5 0 -9 -6 -9 -12z"
       id="path584"
       style="fill:#ff6699" />
    <path
       d="M5144 3016 c-71 -31 -84 -98 -30 -152 19 -19 38 -34 43 -34 6 0 15 38 22 85 6 47 14 92 17 100 7 19 -11 19 -52 1z"
       id="path586"
       style="fill:#66ccff" />
    <path
       d="M2395 3000 c-4 -6 -19 -49 -34 -96 -28 -85 -28 -85 -8 -99 18 -13 22 -12 32 8 9 19 18 22 59 19 l48 -2 -7 67 c-8 79 -10 83 -36 83 -11 0 -22 7 -25 15 -7 17 -20 19 -29 5z"
       id="path588"
       style="fill:#ff6699" />
    <path
       d="M5104 2776 c-35 -35 -42 -63 -24 -97 10 -19 59 -49 80 -49 6 0 10 34 10 90 0 104 -9 113 -66 56z"
       id="path590"
       style="fill:#66ccff" />
    <path
       d="M2310 2670 l-45 -7 40 -2 c22 0 53 -8 69 -16 28 -15 28 -15 14 7 -18 26 -20 27 -78 18z"
       id="path592"
       style="fill:#ccccff" />
    <path
       d="M3249 2613 c-95 -101 -150 -190 -197 -318 -43 -116 -56 -185 -41 -221 11 -28 12 -27 24 41 31 167 106 309 227 427 54 53 57 59 46 83 -6 14 -14 25 -18 25 -3 0 -22 -17 -41 -37z"
       id="path594"
       style="fill:#cc99cc" />
    <path
       d="M6129 2623 c9 -32 26 -40 35 -16 5 11 1 22 -10 30 -27 19 -33 16 -25 -14z"
       id="path596"
       style="fill:#ff3333" />
    <path
       d="M2204 2594 c-55 -58 -41 -129 32 -160 65 -27 137 11 118 63 -12 36 -47 47 -75 25 -19 -16 -20 -19 -5 -31 14 -12 16 -12 10 4 -5 13 -2 16 12 13 28 -5 25 -42 -4 -46 -48 -7 -71 48 -34 81 21 19 64 22 91 7 28 -14 44 -61 32 -93 -17 -43 -53 -60 -118 -55 -48 4 -61 10 -85 37 -15 17 -28 25 -28 18 0 -15 45 -59 77 -76 31 -16 119 -14 153 4 62 32 78 101 40 175 -25 49 -64 70 -131 70 -46 0 -55 -4 -85 -36z"
       id="path598"
       style="fill:#ccccff" />
    <path
       d="M6180 2600 c-9 -17 -7 -22 16 -30 21 -8 29 -8 36 2 12 20 10 26 -11 38 -26 14 -29 13 -41 -10z"
       id="path600"
       style="fill:#ff3333" />
    <path
       d="M5120 2581 c-57 -56 -48 -119 20 -154 l35 -17 3 57 c4 71 -6 143 -19 143 -6 0 -23 -13 -39 -29z"
       id="path602"
       style="fill:#66ccff" />
    <path
       d="M6251 2571 c-8 -15 -5 -20 16 -30 21 -10 28 -9 34 1 13 20 11 26 -10 38 -26 13 -29 13 -40 -9z"
       id="path604"
       style="fill:#ff3333" />
    <path
       d="M3300 2541 c-34 -28 -34 -28 -13 -40 12 -6 39 -15 59 -19 21 -4 39 -13 42 -20 6 -19 -47 -14 -97 8 -24 11 -44 20 -46 20 -1 0 -15 -18 -31 -41 -30 -44 -31 -43 29 -75 28 -15 36 -34 15 -34 -7 0 -28 9 -46 20 -18 11 -36 20 -40 20 -4 0 -18 -19 -30 -41 l-24 -41 22 -23 c11 -12 37 -31 56 -41 18 -10 34 -22 34 -26 0 -18 -40 -6 -79 23 -24 17 -44 29 -45 27 -2 -2 -8 -18 -15 -37 -10 -32 -9 -38 24 -85 32 -47 46 -96 28 -96 -5 0 -19 21 -33 47 -14 25 -29 44 -35 42 -10 -4 -10 -63 1 -161 5 -52 8 -57 34 -63 48 -11 109 35 110 81 0 32 36 71 72 78 63 12 78 30 78 92 0 69 10 89 60 114 53 27 63 48 48 104 l-12 45 43 46 c23 25 41 51 39 57 -3 7 -26 11 -64 9 -43 -1 -70 4 -99 19 -21 11 -42 20 -45 20 -3 0 -21 -13 -40 -29z"
       id="path606"
       style="fill:#ff66cc" />
    <path
       d="M6320 2545 c-12 -14 -11 -18 1 -26 19 -12 26 -11 35 2 3 6 0 17 -8 25 -13 13 -16 13 -28 -1z"
       id="path608"
       style="fill:#ff3333" />
    <path
       d="M3553 2472 l-22 -30 26 -7 c33 -8 38 -2 27 36 l-9 31 -22 -30z"
       id="path610"
       style="fill:#cc99cc" />
    <path
       d="M3506 2421 c-3 -4 -2 -33 1 -65 7 -65 21 -76 93 -76 l38 0 -20 63 c-10 34 -22 65 -26 68 -11 10 -81 18 -86 10z"
       id="path612"
       style="fill:#cc99cc" />
    <path
       d="M5089 2378 c-12 -23 -12 -23 10 -4 23 21 26 26 11 26 -5 0 -15 -10 -21 -22z"
       id="path614"
       style="fill:none" />
    <path
       d="M5140 2373 c-38 -26 -49 -45 -50 -80 0 -34 33 -79 49 -68 15 8 46 165 33 165 -4 0 -19 -8 -32 -17z"
       id="path616"
       style="fill:#66ccff" />
    <path
       d="M3450 2251 c-61 -37 -63 -57 -8 -72 107 -29 253 -48 246 -31 -1 4 -12 30 -22 59 l-19 50 -56 6 c-31 3 -65 8 -76 11 -12 3 -39 -7 -65 -23z"
       id="path618"
       style="fill:#cc99cc" />
    <path
       d="M5070 2170 c-21 -21 -27 -74 -10 -85 9 -6 70 79 70 97 0 16 -40 8 -60 -12z"
       id="path620"
       style="fill:#66ccff" />
    <path
       d="M3400 2132 c0 -23 -6 -45 -15 -52 -8 -7 -15 -16 -15 -20 0 -24 352 -61 374 -39 4 3 -5 27 -19 52 -25 44 -28 46 -83 52 -52 6 -164 27 -219 41 -21 6 -23 3 -23 -34z"
       id="path622"
       style="fill:#cc99cc" />
    <path
       d="M4981 2043 c-28 -14 -67 -70 -56 -81 4 -5 111 74 120 88 10 15 -26 12 -64 -7z"
       id="path624"
       style="fill:#66ccff" />
    <path
       d="M3304 2038 c-37 -9 -51 -24 -56 -58 -3 -22 3 -27 59 -47 99 -35 208 -54 351 -60 l132 -6 0 49 c-1 77 -9 82 -131 82 -104 0 -194 12 -279 36 -29 8 -56 10 -76 4z"
       id="path626"
       style="fill:#cc99cc" />
    <path
       d="M3820 1863 c0 -27 -6 -72 -14 -101 l-13 -52 31 0 c40 0 101 31 100 50 -1 8 -24 46 -52 83 l-52 68 0 -48z"
       id="path628"
       style="fill:#6699cc" />
    <path
       d="M4693 1841 c-50 -54 -52 -58 -37 -79 8 -12 38 -28 66 -37 67 -19 71 -19 58 6 -7 11 -14 54 -17 95 -3 41 -9 73 -12 73 -3 -1 -30 -27 -58 -58z"
       id="path630"
       style="fill:#6699cc" />
  </g>
</svg>
