<?xml version="1.0" standalone="no"?>
<!DOCTYPE svg PUBLIC "-//W3C//DTD SVG 20010904//EN"
 "http://www.w3.org/TR/2001/REC-SVG-20010904/DTD/svg10.dtd">
<svg version="1.0" xmlns="http://www.w3.org/2000/svg"
 width="850.000000pt" height="850.000000pt" viewBox="0 0 850.000000 850.000000"
 preserveAspectRatio="xMidYMid meet">
<metadata>
Created by potrace 1.14, written by Peter Selinger 2001-2017
</metadata>
<g transform="translate(0.000000,850.000000) scale(0.100000,-0.100000)"
fill="#000000" stroke="none">
<path d="M3115 7939 c-1030 -55 -1802 -208 -2285 -455 -179 -92 -289 -192
-331 -303 -18 -47 -21 -78 -20 -196 0 -136 8 -339 16 -420 2 -22 7 -71 10
-110 96 -1048 442 -2211 974 -3274 50 -100 91 -185 91 -190 0 -5 -28 -19 -62
-31 -670 -240 -990 -468 -1149 -820 -34 -75 -34 -76 -34 -225 l0 -150 41 -91
c89 -200 222 -344 457 -501 237 -156 644 -321 1043 -422 413 -104 720 -151
1254 -192 212 -17 856 -17 1070 -1 1207 92 2141 401 2559 847 300 322 303 696
7 1013 -171 183 -532 388 -928 527 l-107 37 39 72 c37 69 41 72 97 90 32 10
105 35 163 54 551 183 1125 633 1572 1232 293 393 513 815 576 1105 23 109 23
326 -1 413 -57 208 -200 377 -402 477 -147 72 -224 89 -400 88 -133 0 -160 -3
-238 -27 -92 -27 -223 -89 -294 -137 -23 -16 -46 -29 -51 -29 -5 0 -5 24 -1
55 4 31 10 99 14 153 4 53 8 108 11 122 2 14 4 134 5 267 l0 241 -30 54 c-65
114 -174 202 -365 294 -431 206 -990 330 -1821 404 -388 35 -1110 49 -1480 29z
m900 -87 c-11 -43 -11 -44 3 -49 7 -3 18 10 27 30 14 35 43 51 65 37 9 -6 9
-13 1 -28 -19 -36 8 -37 38 -2 35 43 67 39 63 -8 -4 -37 22 -46 33 -12 10 30
45 49 83 43 35 -6 38 -15 17 -53 -17 -30 -19 -60 -5 -60 6 0 25 22 42 50 32
52 54 66 89 55 14 -5 18 -12 13 -23 -12 -30 -17 -72 -7 -72 13 0 37 29 51 63
13 31 36 35 51 10 8 -15 12 -16 22 -5 14 13 81 17 92 5 4 -3 -4 -21 -18 -39
-26 -33 -33 -64 -15 -64 9 0 36 27 78 79 22 28 59 23 47 -7 -4 -9 -9 -23 -12
-29 -10 -26 26 -12 50 18 21 27 27 30 60 24 43 -8 43 -10 17 -50 -11 -16 -20
-39 -20 -49 0 -17 5 -15 35 14 19 19 37 42 41 52 8 26 64 25 71 -2 6 -24 29
-26 41 -4 7 13 17 15 46 10 21 -4 36 -10 34 -14 -2 -4 -10 -19 -17 -35 -22
-43 -3 -45 32 -3 32 37 33 38 82 31 28 -4 60 -12 73 -16 l23 -9 -26 -45 c-25
-42 -26 -65 -4 -65 5 0 21 25 36 55 27 55 36 61 81 49 29 -8 28 -16 -8 -66
-22 -30 -27 -45 -19 -52 8 -8 22 2 50 34 21 25 39 48 39 53 0 10 68 9 74 -2 3
-5 -2 -29 -11 -55 -9 -25 -14 -49 -10 -53 10 -9 55 44 63 75 6 22 21 25 61 14
22 -7 21 -8 -18 -70 -65 -102 -24 -100 44 1 21 32 41 57 45 57 5 0 16 -6 26
-13 17 -13 17 -15 2 -45 -9 -17 -16 -38 -16 -47 0 -26 23 -12 42 25 9 18 21
37 26 42 9 9 116 -13 130 -26 3 -4 -8 -26 -26 -51 -31 -44 -29 -65 6 -46 10 5
30 26 43 45 24 36 34 41 63 30 13 -5 15 -14 10 -40 -8 -43 10 -45 31 -4 14 27
18 29 38 19 12 -7 23 -13 25 -14 2 -2 -6 -21 -17 -44 -22 -42 -27 -71 -13 -71
13 0 37 30 56 68 14 27 21 32 39 26 32 -10 32 -10 6 -58 -36 -68 -5 -77 40
-11 27 40 39 43 72 17 l22 -19 -24 -44 c-14 -24 -32 -54 -39 -66 -18 -27 -9
-39 17 -22 15 9 62 71 89 117 2 2 12 1 24 -3 17 -6 20 -12 15 -36 -7 -33 -6
-34 30 -17 57 26 51 -25 -11 -108 -28 -36 -29 -44 -10 -44 20 0 76 59 92 98
l14 32 30 -22 c34 -25 36 -31 15 -48 -8 -7 -15 -19 -15 -26 0 -22 27 -16 44 8
l16 22 29 -34 c32 -39 32 -36 -20 -142 -12 -26 -20 -51 -16 -54 10 -10 51 30
73 72 10 18 22 34 25 34 9 0 29 -57 29 -80 0 -22 -44 -62 -113 -100 -31 -17
-55 -36 -52 -41 5 -8 80 17 127 42 11 6 22 9 24 6 11 -10 -43 -59 -96 -88 -65
-34 -77 -54 -30 -47 24 4 28 2 18 -10 -7 -7 -31 -27 -54 -43 l-42 -29 -17 42
c-11 29 -13 44 -6 46 6 2 19 11 28 20 16 16 14 17 -27 22 -50 6 -77 34 -47 51
28 16 20 29 -19 29 -28 0 -57 14 -121 57 -84 57 -84 58 -62 73 89 58 84 87 -7
39 l-57 -31 -106 42 c-135 55 -242 91 -410 141 -74 21 -137 41 -139 44 -3 2 7
20 21 38 14 19 29 46 33 61 9 38 -19 34 -48 -6 -49 -71 -75 -85 -126 -72 -21
6 -19 10 35 60 42 38 53 53 40 54 -20 0 -60 -25 -113 -70 l-31 -27 -84 15
c-46 8 -86 16 -88 18 -2 2 4 13 14 24 28 31 8 37 -41 11 l-44 -24 -178 22
c-226 27 -460 49 -604 56 -62 3 -128 8 -146 11 l-33 5 21 29 c19 27 27 60 14
60 -4 0 -25 -21 -47 -46 l-40 -46 -83 4 c-87 3 -104 9 -86 31 6 7 15 25 21 40
17 44 -11 34 -48 -18 l-32 -45 -176 0 -175 0 7 23 c14 44 17 77 8 77 -6 0 -22
-22 -36 -49 -26 -46 -29 -48 -79 -55 -29 -3 -89 -6 -132 -6 l-80 0 27 28 c15
15 27 33 27 40 0 22 -25 12 -69 -29 l-45 -40 -144 -10 c-843 -56 -1471 -183
-1855 -375 -148 -74 -298 -192 -343 -269 -11 -20 -12 -19 -38 4 -14 14 -38 49
-51 78 -27 56 -45 68 -45 31 1 -33 35 -105 70 -145 28 -31 39 -63 23 -63 -3 0
-31 19 -60 42 -60 46 -111 104 -138 158 -20 39 -25 135 -8 165 9 16 13 10 27
-38 26 -91 40 -84 31 16 -6 79 -5 90 15 122 26 41 61 68 81 61 8 -3 22 8 34
27 11 17 47 48 80 68 l60 36 5 -41 5 -41 15 25 c9 14 22 39 30 55 9 18 33 39
60 52 58 29 80 29 73 3 -8 -31 11 -24 44 18 23 29 46 43 88 56 31 10 58 17 60
15 2 -2 -3 -30 -12 -63 -10 -41 -12 -61 -4 -69 10 -10 22 12 68 124 12 31 21
39 61 49 26 7 55 14 65 17 19 5 23 -7 6 -24 -6 -6 -9 -18 -7 -27 2 -13 16 -4
58 34 48 44 55 48 58 30 4 -26 8 -26 49 11 19 16 37 28 39 26 2 -2 -3 -25 -12
-51 -28 -82 4 -75 41 9 22 48 27 53 69 64 25 6 54 11 65 11 20 0 19 -2 -5 -51
-32 -63 -22 -76 20 -25 65 80 87 101 93 89 6 -17 23 -16 42 1 9 8 29 18 45 22
l29 7 -27 -39 c-47 -69 -27 -74 42 -10 26 24 57 49 70 55 28 15 52 8 52 -14 0
-22 17 -18 35 9 11 17 29 26 61 31 25 3 48 4 51 2 2 -3 -3 -19 -11 -36 -33
-62 -2 -74 32 -12 12 21 29 44 37 51 13 11 144 32 154 24 1 -1 -4 -13 -13 -26
-17 -23 -22 -68 -8 -68 4 0 16 16 26 35 10 19 27 42 36 50 16 15 148 41 157
31 2 -2 -2 -15 -8 -30 -19 -41 -2 -43 39 -4 28 27 49 38 85 43 48 7 48 7 41
-19 -8 -32 2 -33 35 -2 18 17 43 26 85 31 55 6 58 5 51 -12 -14 -34 -17 -63
-7 -63 6 0 25 20 42 45 l31 45 63 0 c34 0 66 -3 69 -6 3 -4 0 -16 -8 -28 -30
-42 -9 -50 27 -12 32 34 69 46 145 46 l65 0 -16 -25 c-17 -26 -21 -55 -8 -55
4 0 26 18 47 40 36 37 43 40 93 40 l53 0 -17 -30 c-27 -45 -8 -48 34 -7 31 31
45 37 79 37 l41 0 -11 -35 c-19 -62 10 -59 42 3 l19 37 92 -3 92 -3 -7 -27z
m-685 -411 c0 -32 13 -32 32 0 26 43 44 32 40 -25 -2 -26 1 -46 7 -46 12 0 30
30 34 57 1 10 7 24 11 32 8 12 11 11 21 -2 9 -12 10 -33 3 -71 -12 -83 -25
-110 -46 -101 -33 15 -130 17 -168 5 -47 -16 -134 -68 -134 -81 0 -20 58 -31
159 -32 l104 -1 -34 -29 c-54 -46 -92 -67 -122 -67 -69 0 -143 -59 -183 -145
-32 -69 -31 -85 6 -85 43 0 129 35 171 69 19 16 49 56 67 88 28 53 116 153
125 142 2 -2 19 -51 38 -109 23 -72 39 -105 49 -105 25 0 72 107 77 179 6 64
5 66 -30 101 -19 19 -42 35 -51 35 -18 0 -20 15 -6 56 12 36 18 78 19 127 l1
37 60 0 c55 0 61 -2 74 -28 32 -62 72 -68 43 -7 l-17 35 65 0 c45 0 66 -4 72
-14 14 -25 73 -86 83 -86 17 0 11 20 -15 54 l-25 33 37 7 c79 13 93 8 150 -45
62 -59 89 -57 41 3 l-32 41 153 -7 c162 -7 473 -34 480 -42 8 -7 -32 -33 -79
-50 -25 -10 -52 -23 -60 -31 -12 -11 -8 -13 30 -13 55 0 127 31 156 66 20 24
25 25 76 19 30 -4 61 -11 69 -16 22 -15 -50 -72 -133 -106 -87 -35 -104 -59
-34 -50 64 9 139 49 188 102 48 51 84 61 74 20 -8 -31 6 -32 41 -5 26 20 63
27 63 12 0 -5 -16 -27 -36 -50 -19 -23 -34 -49 -32 -58 2 -12 20 -2 71 40 62
50 97 68 97 49 0 -3 -7 -14 -16 -24 -31 -34 -9 -40 39 -10 26 17 47 28 47 25
0 -3 -27 -39 -59 -80 -153 -189 -299 -541 -346 -829 -8 -52 -15 -97 -15 -100
0 -3 -16 -5 -35 -5 l-35 0 0 65 c0 38 -4 65 -10 65 -14 0 -30 -44 -33 -94 -4
-61 -34 -61 -92 -2 -26 27 -57 49 -75 52 -29 6 -42 24 -17 24 23 0 142 61 183
95 91 74 98 181 18 244 -32 25 -57 26 -94 4 -68 -40 -64 -133 6 -133 31 0 31
17 -1 32 -31 14 -31 19 0 52 47 50 98 20 98 -59 0 -56 -32 -105 -94 -145 -40
-26 -147 -70 -171 -70 -4 0 4 19 19 42 23 34 28 53 28 104 0 56 -3 66 -30 95
-37 39 -82 59 -135 59 -44 0 -104 -21 -132 -47 -22 -20 -22 -19 2 45 11 29 20
76 20 105 0 70 -25 110 -84 132 -43 17 -49 17 -90 1 -62 -24 -82 -76 -51 -135
17 -34 33 -41 86 -41 32 0 42 5 51 24 11 26 5 56 -12 56 -6 0 -16 -11 -22 -25
-14 -31 -25 -31 -55 -3 -28 26 -29 52 -3 78 36 36 110 19 136 -31 26 -52 11
-138 -46 -249 l-22 -44 -19 35 c-21 43 -80 96 -125 115 -46 19 -167 18 -205
-2 -17 -8 -43 -35 -58 -60 -25 -39 -30 -42 -42 -28 -14 17 -69 48 -69 38 0 -3
20 -28 44 -55 31 -34 45 -60 48 -86 3 -21 4 -40 2 -42 -1 -1 -18 8 -36 22 -71
53 -154 87 -215 87 -95 0 -166 -47 -173 -115 -6 -51 2 -78 29 -106 54 -54 141
-31 141 37 0 42 -26 47 -41 7 -6 -15 -15 -31 -21 -34 -21 -13 -51 5 -65 38
-12 31 -12 38 4 71 43 89 158 86 308 -9 70 -44 72 -59 9 -59 -18 0 -56 -12
-85 -28 -59 -31 -99 -90 -99 -149 l0 -33 -54 0 c-29 0 -74 3 -100 6 -46 7 -48
8 -76 70 -16 35 -34 64 -39 64 -15 0 -14 -13 9 -72 11 -29 20 -54 20 -55 0 -2
-24 -3 -54 -3 -54 0 -54 0 -60 35 -6 32 -36 62 -49 49 -3 -3 -1 -19 4 -36 11
-41 5 -48 -42 -48 -33 0 -39 3 -39 22 0 37 -39 106 -86 150 -99 95 -179 123
-344 122 -92 -1 -127 -5 -175 -23 -78 -28 -155 -80 -196 -131 -35 -43 -82 -57
-72 -21 7 27 -14 35 -29 11 -16 -24 -47 -26 -153 -5 -56 10 -81 20 -95 37 -16
20 -19 20 -20 6 0 -10 -6 -18 -12 -18 -19 0 -312 61 -317 66 -3 2 8 18 24 34
l29 30 -27 0 c-14 0 -38 -12 -54 -26 -20 -19 -33 -24 -53 -19 -14 4 -26 8 -28
10 -2 2 17 22 42 45 25 24 46 46 46 51 0 21 -35 5 -79 -36 -42 -39 -53 -45
-78 -39 -45 11 -46 14 -7 57 48 53 28 61 -33 13 -25 -20 -52 -36 -58 -36 -6 0
-38 11 -71 24 -32 12 -68 26 -79 30 -16 6 -10 11 35 30 186 75 316 256 374
519 8 35 32 35 41 0 5 -21 8 -24 16 -12 5 7 9 24 9 35 0 12 6 24 14 27 10 4
25 -17 49 -66 l36 -72 -29 -30 c-48 -52 -62 -90 -62 -179 -1 -119 28 -159 70
-98 35 49 56 96 67 150 l11 53 53 -61 53 -61 -17 -39 c-23 -51 -16 -118 19
-192 29 -61 48 -72 67 -37 14 27 14 155 0 191 -11 30 -9 30 56 -3 20 -10 45
-19 55 -19 9 0 29 -16 43 -34 16 -21 45 -42 73 -53 56 -21 174 -25 194 -5 20
20 -10 62 -72 100 -53 32 -58 33 -129 28 -61 -5 -81 -3 -120 15 -44 20 -45 22
-21 29 76 22 169 97 154 122 -10 16 -166 2 -206 -18 -18 -9 -41 -24 -52 -33
-17 -15 -21 -13 -72 42 -30 32 -54 62 -54 67 0 6 31 10 68 10 63 0 74 3 129
39 62 40 82 66 63 85 -7 7 -56 11 -123 11 -98 0 -117 -3 -150 -22 -21 -13 -42
-23 -46 -23 -8 0 -51 94 -51 111 0 12 47 11 55 -1 10 -17 25 -11 25 9 0 12 10
21 27 26 21 5 31 1 50 -22 l24 -28 -5 32 c-6 36 -5 38 45 47 31 5 37 3 49 -19
14 -27 47 -36 36 -10 -3 8 -9 22 -12 30 -15 36 38 11 97 -46 71 -68 182 -127
289 -154 50 -13 100 -16 235 -13 164 3 173 4 246 35 89 36 171 87 225 139 58
55 26 52 -60 -6 -96 -65 -167 -96 -275 -122 -170 -40 -366 -19 -504 54 -54 29
-175 124 -176 139 -1 4 15 10 35 14 28 5 41 2 58 -13 11 -11 31 -25 44 -31 29
-16 31 8 1 35 -19 17 -19 19 -2 25 36 15 82 9 124 -16 43 -24 89 -33 89 -17 0
5 -16 17 -35 28 -19 10 -35 21 -35 24 0 9 499 70 571 70 21 0 21 -1 6 -18 -38
-42 -5 -43 60 -2 53 34 87 38 102 13 9 -17 11 -17 29 1 24 21 102 35 102 18 0
-6 -20 -34 -45 -62 -48 -54 -56 -74 -28 -68 15 3 84 80 108 122 7 12 19 17 37
14 l27 -3 -44 -69 c-44 -68 -54 -96 -36 -96 14 0 55 52 90 114 21 36 39 56 54
58 29 5 37 1 37 -21z m2030 -128 c0 -5 -14 -26 -30 -47 -54 -72 -32 -77 40
-10 33 31 55 44 66 40 14 -5 13 -11 -10 -40 -50 -66 -25 -76 40 -16 24 22 50
40 58 40 26 0 29 -21 7 -44 -23 -24 -28 -46 -11 -46 6 0 21 11 33 23 30 33 60
47 77 37 10 -6 5 -18 -23 -51 -38 -43 -47 -69 -25 -69 7 0 36 23 65 52 l52 52
57 -18 56 -18 -39 -41 c-125 -131 -207 -351 -238 -637 -8 -77 -19 -100 -46
-100 -19 0 -20 4 -13 80 5 69 4 80 -9 80 -19 0 -24 -17 -32 -100 -3 -35 -9
-67 -13 -71 -4 -4 -24 -10 -44 -13 -36 -6 -37 -6 -40 25 -4 42 -25 49 -34 12
-9 -39 -23 -53 -50 -53 -17 0 -23 6 -26 28 -4 34 -32 36 -36 2 -5 -34 -20 -50
-48 -50 -23 0 -24 3 -24 70 0 79 -14 91 -30 28 -6 -24 -14 -56 -18 -73 -5 -19
-17 -33 -34 -39 -41 -15 -58 -2 -58 44 0 69 -24 47 -32 -30 -2 -20 -9 -26 -34
-28 l-31 -3 14 88 c17 108 63 284 102 391 56 150 128 276 248 430 49 63 70 82
89 82 13 0 24 -3 24 -7z m-1950 -61 c0 -5 -16 -16 -35 -25 -38 -18 -175 -24
-175 -8 0 17 84 39 148 40 34 1 62 -3 62 -7z m111 -61 c20 -16 24 -28 24 -79
0 -36 -5 -66 -14 -76 -19 -23 -26 -10 -47 81 -21 93 -11 113 37 74z m-2079
-49 c-10 -93 -81 -230 -163 -312 -58 -58 -112 -96 -196 -139 -68 -34 -99 -38
-128 -17 -18 13 -18 14 3 20 30 10 30 41 0 32 -62 -18 -84 -18 -108 2 -31 25
-20 40 46 62 56 18 58 36 4 32 -28 -2 -40 1 -40 9 0 25 146 154 226 202 45 26
85 47 88 47 4 0 4 -16 0 -35 -9 -51 13 -45 36 10 12 28 32 52 52 65 44 26 58
25 58 -5 0 -32 18 -32 26 0 8 32 51 67 78 63 17 -2 20 -9 18 -36z m4448 27 c0
-6 -16 -33 -35 -59 -64 -87 -40 -96 38 -14 46 48 56 55 79 49 l27 -7 -34 -50
c-33 -47 -44 -78 -28 -78 3 0 27 23 54 52 46 50 48 51 79 38 22 -9 29 -17 25
-29 -4 -9 -9 -22 -12 -28 -9 -22 24 -14 40 10 14 20 17 20 31 7 14 -14 13 -20
-15 -60 -66 -98 -127 -251 -150 -373 -16 -91 -23 -100 -69 -93 -29 4 -39 2
-44 -9 -6 -17 -32 -28 -83 -38 l-33 -6 0 65 c0 48 -3 65 -12 62 -12 -4 -17
-19 -35 -103 -6 -31 -13 -41 -30 -43 -21 -3 -23 1 -23 42 0 25 -4 46 -8 46
-11 0 -32 -46 -32 -70 0 -20 -25 -50 -42 -50 -16 0 -3 150 22 262 35 156 121
328 220 441 40 45 70 60 70 36z m-3983 -35 c56 -15 -48 -67 -135 -68 -75 0
-96 14 -57 40 42 27 141 42 192 28z m1363 -104 c0 -18 -83 -101 -120 -120 -56
-28 -80 -33 -80 -18 0 26 59 108 92 128 34 21 108 27 108 10z m-1620 -48 c0
-65 -42 -178 -61 -167 -20 13 -10 114 16 166 29 56 45 56 45 1z m4609 21 c29
-25 31 -31 22 -56 -6 -16 -11 -37 -11 -48 0 -32 33 -19 45 18 10 31 12 32 33
17 18 -12 22 -25 22 -65 0 -52 15 -66 26 -24 3 14 10 25 14 25 12 0 52 -110
46 -126 -6 -15 -42 -39 -73 -48 -19 -6 -22 -3 -25 26 -4 46 -22 41 -26 -7 -4
-46 -14 -61 -45 -68 -12 -2 -30 -8 -39 -12 -16 -6 -18 -1 -18 45 0 68 -20 63
-38 -11 -13 -53 -32 -79 -60 -79 -10 0 -13 11 -10 42 2 25 -2 43 -9 45 -12 4
-22 -19 -28 -69 -5 -36 -3 -33 -32 -42 -29 -9 -29 3 -3 105 31 123 138 359
163 359 7 0 28 -12 46 -27z m-4216 -69 c18 -18 -82 -64 -139 -64 -69 0 -27 36
66 56 70 16 66 15 73 8z m-1274 -271 c47 -46 89 -83 93 -83 13 0 9 24 -7 47
-12 17 8 11 113 -34 438 -189 943 -292 1837 -375 197 -18 1460 -18 1675 0 714
61 1188 144 1600 282 66 22 126 40 133 40 8 0 25 -27 40 -60 14 -33 30 -60 36
-60 17 0 12 51 -9 98 l-19 43 34 16 c19 9 37 14 41 11 11 -11 53 -148 68 -222
24 -113 21 -280 -5 -361 -49 -148 -193 -231 -278 -160 -61 52 -87 197 -46 259
39 59 119 64 144 10 23 -51 4 -111 -38 -120 -52 -11 -54 -13 -41 -29 7 -8 25
-15 41 -15 99 0 123 177 29 225 -62 32 -133 10 -173 -55 -33 -53 -31 -158 5
-230 38 -77 82 -105 164 -105 53 0 69 5 106 30 107 76 153 190 152 380 0 137
-20 244 -65 344 -16 35 -29 66 -29 68 0 8 72 34 78 28 4 -3 16 -29 27 -57 35
-86 61 -71 30 17 -21 59 -19 68 25 93 51 29 56 28 63 -8 10 -48 31 -37 24 12
-6 41 -4 43 55 98 34 30 65 57 70 59 10 3 9 -10 -22 -374 -15 -175 -21 -213
-35 -225 -9 -8 -11 -29 -8 -69 4 -38 -3 -113 -17 -205 -21 -135 -31 -166 -43
-133 -12 35 -22 -19 -28 -156 -3 -84 -12 -165 -18 -182 l-13 -30 -15 30 c-50
97 -144 131 -234 84 -50 -25 -84 -94 -93 -184 -3 -33 -5 -61 -6 -62 0 -1 -16
8 -36 22 -67 45 -173 45 -251 -1 -87 -51 -121 -136 -88 -224 28 -77 28 -78 6
-85 -24 -7 -141 -112 -141 -126 0 -18 20 -8 95 46 43 30 82 55 87 55 6 0 33
-20 60 -45 28 -25 54 -45 59 -45 5 0 9 -4 9 -8 0 -5 -24 -14 -52 -21 -70 -18
-159 -72 -194 -119 -26 -33 -29 -45 -29 -108 0 -62 4 -76 29 -112 64 -93 181
-107 316 -38 40 20 72 36 73 36 1 0 2 -44 2 -98 l0 -97 -90 -5 c-114 -6 -98
-23 30 -30 84 -5 90 -7 104 -31 13 -23 13 -33 1 -68 -7 -23 -14 -41 -14 -41
-1 0 -23 12 -51 26 -45 23 -60 25 -152 23 -101 -3 -101 -2 -137 29 -20 17 -51
40 -69 49 -64 36 -277 15 -277 -26 0 -13 57 -59 100 -81 21 -11 68 -22 104
-26 l66 -7 -53 -56 c-29 -31 -64 -75 -76 -97 -22 -40 -25 -42 -82 -47 -72 -6
-134 -40 -182 -100 -38 -46 -80 -126 -91 -171 l-7 -29 69 5 c114 8 231 72 277
152 13 23 28 67 34 100 12 67 34 106 88 157 38 37 153 107 153 94 0 -4 -10
-20 -21 -37 -45 -63 -62 -183 -36 -257 7 -19 18 -36 25 -39 21 -7 111 94 139
154 24 52 28 119 12 174 -3 11 3 14 21 12 45 -5 109 -24 119 -36 6 -7 -13 -67
-53 -171 -68 -171 -58 -159 -143 -182 -14 -5 -28 -14 -31 -22 -3 -10 5 -12 37
-9 40 3 42 3 36 -21 -3 -13 -24 -65 -45 -115 l-39 -91 -73 -25 c-101 -35 -163
-73 -233 -144 -149 -151 -202 -361 -139 -550 l27 -79 -24 -44 c-13 -24 -26
-43 -29 -43 -3 1 -17 19 -33 41 -15 22 -32 37 -38 33 -15 -9 -2 -53 26 -86
l24 -28 -22 -34 c-16 -24 -26 -31 -34 -24 -19 15 -30 2 -26 -29 3 -19 -2 -37
-15 -53 l-20 -24 -60 119 c-81 162 -107 226 -141 347 -44 155 -46 179 -21 229
30 59 30 151 0 214 -32 66 -97 145 -119 145 -26 0 -33 -35 -33 -164 0 -115 10
-144 63 -194 29 -27 33 -40 51 -148 26 -159 75 -301 159 -463 64 -125 78 -171
48 -171 -5 0 -27 29 -50 65 -22 36 -45 63 -50 60 -10 -7 2 -40 41 -115 24 -47
26 -58 15 -73 -12 -16 -14 -15 -30 9 -24 37 -41 17 -25 -30 12 -38 10 -44 -33
-99 -20 -24 -37 -21 -37 6 -1 74 -121 217 -222 262 -217 97 -448 -62 -355
-245 40 -80 118 -110 190 -75 67 33 95 110 57 158 -41 52 -130 28 -130 -35 0
-26 21 -22 45 8 24 31 59 27 68 -7 7 -25 -54 -96 -88 -105 -45 -11 -110 40
-126 99 -21 77 34 162 120 188 85 25 221 -18 312 -99 46 -41 92 -125 105 -191
6 -26 4 -31 -14 -31 -11 0 -30 9 -43 19 -15 12 -29 16 -39 11 -8 -4 -49 -11
-90 -14 -100 -10 -181 -29 -273 -65 l-77 -31 -38 42 c-54 57 -75 46 -28 -15
20 -26 32 -47 27 -47 -5 0 -53 -30 -107 -67 -89 -60 -106 -67 -165 -74 -37 -4
-85 -17 -108 -28 -44 -23 -56 -47 -18 -37 71 18 128 28 133 23 4 -4 -6 -21
-22 -40 -16 -18 -43 -54 -61 -79 -21 -31 -46 -53 -75 -66 -25 -11 -62 -37 -83
-58 -36 -37 -85 -124 -85 -151 0 -9 -19 -13 -60 -13 -67 0 -67 0 -45 74 15 50
8 79 -13 53 -7 -8 -20 -40 -30 -73 -17 -57 -19 -59 -57 -64 -22 -3 -66 -3 -97
-2 -63 4 -64 5 -70 97 l-3 40 77 6 c86 7 126 27 179 86 37 43 73 118 63 134
-15 25 -182 -20 -267 -72 l-49 -29 7 52 c9 65 63 238 74 238 5 0 28 -9 52 -20
54 -24 91 -25 153 -4 77 26 186 137 186 190 0 15 -8 16 -57 11 -32 -4 -103
-15 -157 -26 -55 -11 -102 -19 -104 -16 -2 2 45 54 106 115 122 122 149 167
164 273 18 115 -9 115 -128 -3 -81 -80 -104 -126 -104 -211 0 -61 -2 -67 -45
-119 -25 -30 -48 -56 -53 -58 -4 -1 -17 27 -30 63 -31 90 -80 190 -103 210
-10 10 -25 15 -35 11 -14 -5 -16 -20 -12 -105 3 -85 8 -106 33 -156 22 -43 40
-63 68 -78 28 -14 36 -24 31 -36 -4 -9 -21 -55 -38 -103 -17 -49 -33 -88 -36
-88 -4 0 -12 16 -18 35 -30 82 -161 219 -192 200 -26 -16 21 -192 69 -265 16
-25 52 -62 80 -82 l50 -37 0 -104 c0 -58 3 -111 7 -120 3 -10 -2 -18 -16 -22
-25 -8 -110 2 -111 13 -1 7 -3 21 -14 80 -8 44 -26 82 -38 82 -9 0 -4 -86 10
-138 5 -21 3 -23 -22 -20 -34 4 -35 5 -75 143 -58 201 -136 352 -238 459 -108
114 -257 204 -417 250 -78 23 -109 27 -233 27 -79 0 -168 -5 -199 -12 -54 -12
-55 -12 -78 17 -14 16 -24 34 -25 41 0 14 45 28 140 44 36 6 69 15 74 20 29
26 -146 21 -212 -7 -20 -8 -38 -11 -41 -7 -47 64 -61 97 -61 139 0 40 2 45 18
38 36 -16 120 -16 156 1 45 21 126 108 126 135 0 18 -6 20 -72 20 -40 0 -93
-5 -117 -11 -50 -11 -57 -8 -42 19 39 72 146 168 244 217 55 28 73 32 93 25
14 -6 38 -10 53 -10 40 0 126 46 162 88 41 47 75 120 61 134 -17 17 -189 -9
-229 -33 -44 -27 -83 -76 -83 -103 0 -25 -20 -46 -63 -64 -37 -16 -37 -16 -26
20 11 41 12 121 0 114 -4 -3 -16 -34 -25 -68 -26 -98 -35 -114 -76 -147 -21
-17 -41 -31 -44 -31 -3 0 -6 21 -6 48 0 64 -18 184 -29 195 -12 12 -54 -52
-86 -130 -33 -81 -33 -147 -2 -193 l24 -34 -33 -80 c-19 -45 -34 -91 -34 -103
0 -32 -17 -29 -34 6 -12 22 -13 37 -6 62 13 43 13 99 1 99 -5 0 -15 -17 -22
-37 -6 -21 -14 -42 -16 -46 -3 -5 -52 74 -109 175 -110 192 -113 204 -39 174
46 -20 55 -20 55 -1 0 21 -52 45 -97 45 -32 0 -42 5 -56 29 -9 16 -17 32 -17
35 0 3 20 6 44 6 49 0 76 7 76 21 0 5 -31 9 -70 9 l-70 0 -20 40 -21 41 52 -7
c71 -10 62 14 -16 42 -51 18 -97 56 -84 69 3 2 24 -1 47 -7 91 -23 208 47 236
140 32 110 -12 214 -122 287 -23 15 -42 31 -42 36 0 20 204 33 263 16 44 -12
105 -74 117 -119 22 -79 -10 -168 -60 -168 -26 0 -52 42 -48 77 3 28 7 30 63
21 30 -5 25 23 -7 41 -53 30 -119 -22 -104 -82 3 -15 22 -42 41 -61 25 -25 35
-44 35 -66 0 -40 12 -38 33 4 20 44 50 62 67 41 9 -10 10 -34 5 -80 -4 -45 -3
-65 4 -65 21 0 33 54 27 120 -3 36 -5 97 -5 136 1 162 -86 244 -258 244 -40 0
-73 2 -73 5 0 3 18 28 39 55 99 125 94 244 -16 327 -29 22 -45 27 -96 26 -34
0 -79 -7 -100 -16 -21 -9 -37 -13 -35 -9 2 4 20 37 41 74 106 186 114 348 23
443 -51 54 -98 66 -152 39 -56 -28 -77 -64 -82 -138 -4 -55 -1 -67 17 -85 27
-27 80 -27 115 0 22 17 27 28 24 58 -4 49 -35 57 -40 9 -6 -61 -79 -71 -94
-13 -8 33 0 64 29 106 20 30 28 34 64 33 25 0 52 -9 73 -24 39 -28 80 -111 80
-163 0 -48 -42 -174 -75 -227 -14 -22 -25 -43 -25 -47 0 -5 -9 -19 -19 -32
l-18 -24 -7 49 c-10 68 -40 126 -88 169 -51 46 -95 65 -153 65 l-45 0 0 45 c0
38 -3 45 -20 45 -16 0 -20 -7 -20 -37 -1 -50 -18 -85 -57 -117 -37 -31 -43
-26 -49 52 -7 83 -13 102 -28 102 -14 0 -27 26 -47 98 -10 33 -10 57 0 112 14
76 20 85 56 76 22 -6 23 -11 22 -63 -2 -70 14 -86 25 -24 10 58 21 68 87 87
31 9 74 27 96 41 42 26 98 93 109 131 7 22 6 22 -71 22 -44 0 -105 -5 -137
-11 -32 -6 -60 -8 -63 -6 -5 6 138 117 227 177 36 24 89 63 119 87 29 24 84
61 121 83 114 66 182 160 184 255 1 70 -18 69 -132 -6 -131 -86 -161 -136
-127 -220 4 -11 -12 -32 -55 -69 -33 -29 -62 -51 -65 -49 -2 2 3 29 11 59 22
79 9 200 -21 200 -30 0 -149 -167 -166 -233 -10 -41 -9 -52 9 -87 l20 -40 -80
-66 c-43 -36 -93 -84 -110 -107 -39 -54 -88 -156 -88 -184 0 -46 -17 -21 -34
50 -16 72 -16 73 5 125 25 61 17 80 -16 38 -24 -30 -28 -28 -39 17 -5 22 1 42
24 84 17 30 30 59 28 64 -2 5 -19 -4 -39 -21 l-37 -29 -11 42 c-29 111 -31
131 -12 152 21 23 41 59 41 74 0 22 -26 10 -44 -20 -22 -38 -29 -30 -45 53 -9
50 -8 63 10 104 14 31 18 49 11 56 -7 7 -14 3 -21 -11 -17 -31 -28 -26 -35 17
-51 299 -113 768 -103 778 2 3 19 -16 38 -41 19 -25 42 -57 52 -70 10 -14 23
-25 28 -25 28 0 -11 77 -82 162 -48 58 -49 60 -49 129 l0 70 26 -20 c15 -11
31 -18 36 -15 9 6 4 15 -44 72 -19 22 -28 44 -28 68 l0 35 67 -58 c37 -32 106
-95 152 -140z m1064 120 c28 -54 32 -153 7 -153 -13 0 -43 127 -36 154 8 33
12 33 29 -1z m384 -49 c43 -33 42 -44 -4 -44 -62 0 -108 11 -134 31 -24 19
-24 19 -4 35 28 22 99 11 142 -22z m1768 -13 c23 -10 53 -32 68 -50 28 -34 57
-116 57 -164 0 -24 -4 -28 -22 -25 -16 2 -24 12 -28 32 -7 40 -30 46 -30 8 0
-59 -37 -61 -55 -4 -10 35 -30 20 -28 -21 2 -24 -3 -37 -14 -41 -9 -4 -16 -5
-17 -4 -8 20 -25 43 -35 46 -9 3 -12 -6 -9 -34 2 -33 0 -39 -16 -39 -25 0 -92
112 -100 168 -19 125 93 188 229 128z m441 -32 c16 -8 37 -31 47 -51 16 -32
16 -42 6 -78 -7 -23 -29 -60 -49 -83 -55 -63 -150 -105 -150 -67 0 5 19 27 43
49 34 33 38 41 22 41 -11 0 -38 -11 -60 -25 -22 -13 -48 -25 -59 -25 -17 0
-17 1 -2 25 9 13 16 29 16 35 0 19 -28 10 -44 -15 -17 -26 -46 -34 -46 -12 0
20 49 119 76 154 51 67 127 87 200 52z m-1676 -178 c105 -40 181 -115 195
-193 7 -36 6 -38 -18 -38 -39 0 -55 9 -78 46 -11 19 -25 34 -30 34 -13 0 -11
-34 3 -48 6 -6 9 -15 5 -18 -7 -7 -458 34 -466 42 -2 2 8 15 22 28 29 27 32
32 18 40 -5 3 -28 -10 -51 -29 -40 -33 -46 -35 -89 -29 -59 8 -63 11 -50 35
28 53 174 133 279 153 58 11 206 -2 260 -23z m1035 -100 c47 -27 39 -46 -17
-42 -57 3 -63 -12 -13 -33 43 -18 45 -36 4 -36 -26 0 -31 -3 -26 -20 5 -19 0
-20 -109 -20 l-114 0 0 31 c0 60 56 123 125 140 41 11 114 1 150 -20z m353 19
c61 -14 120 -57 144 -103 26 -51 11 -71 -30 -40 -28 20 -29 21 -40 2 -11 -17
-25 -19 -147 -19 -111 0 -137 3 -141 15 -5 13 -10 12 -31 -5 -31 -24 -63 -26
-63 -3 0 9 11 36 25 60 47 80 168 119 283 93z m3515 -27 c74 -30 185 -91 235
-131 l23 -18 -21 -47 c-14 -31 -20 -62 -18 -90 3 -40 4 -41 14 -17 6 14 18 45
25 69 8 25 19 46 25 48 6 2 23 -14 38 -35 24 -36 26 -43 17 -83 -14 -58 -14
-116 0 -124 16 -11 20 -1 26 65 4 37 10 59 17 57 38 -13 112 -337 77 -337 -5
0 -23 23 -41 51 -19 31 -35 48 -41 42 -16 -16 10 -79 51 -126 l40 -45 -12 -64
c-12 -57 -15 -63 -35 -60 -27 4 -30 -10 -6 -33 14 -15 15 -23 3 -67 -31 -121
-143 -374 -242 -548 -177 -307 -397 -591 -682 -876 -187 -186 -289 -275 -469
-408 l-119 -88 -43 23 c-52 28 -72 17 -32 -16 15 -13 27 -26 27 -28 0 -13
-128 -80 -160 -84 -27 -4 -37 -9 -33 -19 5 -13 -49 -42 -202 -106 -111 -47
-265 -98 -265 -88 0 5 15 42 34 83 31 68 38 76 72 87 69 21 94 32 94 42 0 7
-20 9 -50 6 -58 -6 -58 -10 -9 99 23 51 33 63 56 68 68 14 103 27 103 37 0 7
-18 9 -55 5 -54 -5 -56 -5 -49 16 17 56 33 74 71 80 21 4 47 13 58 21 19 14
17 15 -29 16 -48 0 -48 0 -41 27 10 40 22 51 69 64 178 47 446 236 756 533
345 330 594 682 660 931 25 97 28 246 6 319 -30 100 -122 199 -228 246 -144
63 -371 42 -583 -55 -43 -19 -79 -34 -81 -32 -11 10 20 85 46 112 31 32 29 52
-4 39 -20 -7 -20 -14 3 129 14 89 23 121 37 133 110 87 256 162 376 194 62 17
98 20 243 17 162 -4 174 -5 248 -34z m-3118 -42 c41 -18 72 -47 62 -57 -5 -6
-170 -23 -221 -24 -34 0 -25 16 12 22 35 5 27 23 -13 26 -50 4 -43 17 18 35
69 20 94 20 142 -2z m2787 -521 c100 -37 181 -116 214 -207 19 -55 17 -176 -6
-262 -36 -141 -167 -369 -324 -567 -152 -191 -487 -511 -714 -682 -100 -75
-314 -190 -320 -172 -2 6 1 23 6 38 6 15 23 59 37 97 101 265 190 533 293 885
38 128 133 521 158 648 l18 93 45 28 c86 52 252 110 356 125 62 9 183 -4 237
-24z m-5662 -128 c0 -34 -52 -122 -89 -151 -56 -44 -90 -58 -101 -41 -9 15 -3
64 12 93 9 18 152 117 169 117 5 0 9 -8 9 -18z m-360 -197 c0 -31 -6 -70 -14
-89 -15 -35 -73 -106 -87 -106 -19 0 -26 65 -11 105 17 45 87 145 102 145 6 0
10 -25 10 -55z m5185 15 c30 -30 30 -32 33 -150 3 -104 2 -120 -12 -120 -12 0
-16 10 -16 40 0 45 -10 51 -32 18 -22 -33 -41 -14 -33 34 6 35 5 39 -11 36
-13 -2 -22 -17 -28 -46 -10 -43 -36 -59 -36 -22 0 11 -7 20 -15 20 -9 0 -15
-9 -15 -25 0 -25 -44 -64 -57 -51 -3 3 -8 42 -11 86 -5 94 14 159 56 189 57
40 131 36 177 -9z m-377 -176 c44 -18 88 -58 109 -97 13 -26 13 -31 -3 -48
-17 -19 -17 -19 -28 2 -13 26 -42 46 -52 36 -4 -4 2 -24 14 -46 19 -33 20 -40
8 -56 -13 -18 -15 -18 -50 13 -35 30 -76 43 -76 23 0 -5 20 -28 45 -52 56 -53
59 -72 10 -63 -42 7 -44 -1 -9 -37 19 -20 24 -32 18 -53 -5 -21 -10 -25 -28
-20 -67 20 -163 115 -192 189 -14 38 -15 51 -4 89 14 52 60 100 115 120 52 19
78 19 123 0z m341 -105 c60 -21 65 -79 7 -79 -32 0 -76 -23 -76 -41 0 -5 21
-9 46 -9 l46 0 -7 -36 c-13 -72 -22 -84 -59 -84 -44 0 -86 -46 -86 -95 0 -26
8 -40 36 -63 l35 -29 -15 -37 c-14 -33 -17 -35 -41 -26 -33 12 -75 13 -75 1 0
-5 20 -18 45 -30 25 -12 45 -26 45 -31 0 -40 -100 1 -159 65 -64 69 -77 153
-41 266 33 105 111 194 197 225 47 16 62 17 102 3z m-5189 -148 c0 -20 -53
-71 -96 -92 -34 -16 -66 -22 -119 -23 -40 -1 -77 2 -81 7 -10 9 33 55 71 75
62 33 225 56 225 33z m5165 -141 c7 -12 -12 -79 -27 -95 -15 -16 -40 26 -33
55 9 38 46 62 60 40z m-327 -87 c2 -16 -5 -26 -33 -39 -63 -30 -62 -66 1 -39
33 14 40 14 52 1 21 -21 10 -41 -48 -82 -84 -60 -57 -78 30 -19 29 19 56 35
60 35 4 0 15 -11 24 -25 16 -24 15 -25 -45 -75 -90 -75 -132 -94 -210 -94 -58
0 -70 3 -100 28 -45 37 -58 63 -59 109 0 91 76 173 193 205 91 26 131 25 135
-5z m172 -235 c0 -5 -5 -18 -10 -29 -16 -29 -2 -44 21 -23 10 9 19 23 19 31 0
7 5 13 10 13 6 0 10 -10 10 -22 -1 -34 -75 -241 -88 -246 -16 -5 -36 74 -36
143 0 73 34 158 58 149 9 -3 16 -10 16 -16z m-4975 -146 c55 -38 90 -109 90
-187 0 -71 -20 -127 -44 -123 -17 4 -20 39 -6 71 13 31 -24 20 -43 -13 -25
-44 -46 -35 -50 23 -5 73 -41 56 -42 -20 0 -35 -26 -27 -45 13 -22 46 -43 32
-26 -17 12 -34 1 -59 -16 -37 -19 25 -83 221 -78 239 7 21 67 68 103 80 43 13
114 0 157 -29z m4488 -218 c48 -32 37 -44 -39 -44 -54 0 -122 20 -164 48 l-25
16 30 8 c59 14 155 0 198 -28z m-4119 -28 c71 -30 100 -105 71 -182 -28 -73
-186 -217 -210 -192 -4 4 -9 24 -12 45 -5 37 -3 39 31 51 20 7 36 20 36 28 0
16 -5 17 -47 5 -21 -6 -35 -5 -42 2 -17 17 -14 24 18 37 30 12 47 35 32 45 -5
3 -25 -2 -45 -10 -19 -8 -38 -15 -41 -15 -13 0 -2 27 22 52 34 35 23 47 -24
24 -56 -27 -62 -5 -13 44 72 72 152 96 224 66z m4315 -82 c18 -41 3 -107 -40
-174 -21 -33 -43 -60 -48 -60 -25 0 -24 127 2 175 14 27 61 85 68 85 3 0 11
-12 18 -26z m-4685 -4 c14 -5 46 -28 70 -51 145 -133 162 -366 35 -474 -17
-14 -35 -25 -40 -25 -17 0 -9 27 16 50 32 30 17 49 -19 25 -15 -10 -28 -16
-30 -14 -8 9 -166 390 -166 402 0 4 11 7 24 7 32 0 57 10 51 20 -3 5 -25 12
-50 15 -47 8 -65 28 -37 44 22 13 113 14 146 1z m4323 -236 c-8 -50 -52 -110
-101 -139 -48 -28 -174 -71 -182 -62 -10 10 15 69 51 123 47 68 125 109 214
113 22 1 23 -2 18 -35z m-4047 -147 c95 -59 126 -97 144 -170 16 -66 -35 -155
-109 -188 -84 -38 -157 -12 -199 73 -45 90 -30 102 45 38 26 -22 50 -40 53
-40 15 0 3 25 -30 66 -30 36 -34 47 -24 59 17 20 36 19 77 -6 48 -30 65 -11
23 25 -17 14 -38 26 -46 26 -18 0 -18 24 -1 39 10 8 19 7 33 -4 22 -17 54 -20
54 -5 0 9 -48 43 -72 52 -8 4 2 58 11 58 3 0 22 -11 41 -23z m4295 -337 c-14
-27 -34 -55 -46 -63 -14 -10 -19 -22 -15 -34 4 -13 -22 -74 -75 -179 -45 -87
-87 -169 -93 -181 -15 -31 -26 -29 -27 7 -2 51 -4 55 -19 55 -12 0 -16 -19
-20 -95 -4 -71 -10 -103 -24 -124 -16 -25 -20 -27 -28 -13 -15 27 -26 147 -23
236 3 75 8 94 44 166 45 91 112 167 193 218 55 36 137 69 150 60 4 -2 -3 -26
-17 -53z m-847 -22 c16 -24 34 -58 40 -77 16 -44 15 -120 -1 -149 l-13 -23
-22 23 c-37 41 -52 92 -52 183 0 47 4 85 10 85 5 0 22 -19 38 -42z m-2438
-228 c0 -21 -29 -65 -62 -97 -56 -54 -115 -67 -156 -35 l-23 18 23 34 c32 48
115 86 191 89 15 1 27 -4 27 -9z m-548 -147 c7 -129 2 -184 -22 -207 -19 -18
-40 23 -40 76 0 49 35 158 51 158 5 0 10 -12 11 -27z m-397 -163 c30 -48 30
-48 3 -52 -34 -5 -28 -21 11 -34 31 -10 81 -57 81 -76 0 -5 -9 -8 -20 -8 -32
0 -23 -17 16 -30 38 -13 74 -59 74 -97 0 -12 7 -26 15 -31 15 -8 37 -38 208
-277 l69 -95 -36 -49 c-97 -132 -113 -245 -51 -368 59 -119 185 -223 393 -327
79 -40 92 -50 87 -66 -7 -22 6 -26 33 -9 14 9 32 8 76 -5 l57 -17 -21 -32
c-32 -49 -44 -76 -36 -85 8 -7 48 33 76 77 15 23 18 23 73 11 31 -6 59 -15 61
-19 3 -4 -11 -31 -30 -60 -20 -29 -33 -56 -29 -59 7 -7 59 46 85 87 14 21 20
23 59 16 48 -8 61 -27 37 -54 -9 -10 -16 -23 -16 -29 0 -22 19 -12 50 26 l31
39 55 -8 c31 -4 58 -10 61 -13 3 -2 -2 -15 -11 -28 -33 -47 -8 -54 31 -8 21
26 32 30 72 30 26 0 50 -3 54 -6 3 -3 -4 -26 -16 -50 -38 -79 0 -67 45 15 18
33 51 41 89 20 15 -7 24 -7 34 1 18 15 75 3 92 -19 11 -15 13 -14 26 3 12 17
24 18 124 14 97 -4 116 -8 156 -31 25 -15 48 -27 51 -27 15 0 4 29 -16 43 -22
14 -20 15 44 22 100 11 152 0 197 -41 60 -53 84 -43 35 16 -15 17 -24 33 -21
37 3 3 45 10 93 16 86 10 87 10 108 -14 35 -40 64 -61 76 -54 6 4 -1 20 -20
43 -16 20 -28 38 -26 40 3 2 23 8 45 13 35 8 48 6 89 -15 175 -90 329 -310
366 -523 5 -31 3 -33 -31 -39 -30 -6 -39 -3 -54 17 -10 13 -19 22 -20 19 0 -3
-2 -13 -4 -23 -2 -11 -5 -21 -8 -23 -6 -6 -225 -34 -268 -34 -32 0 -39 4 -47
28 -10 27 -10 27 -26 -21 -4 -14 -14 -17 -38 -15 -27 2 -34 8 -36 28 -5 30
-21 52 -33 44 -5 -3 -6 -23 -4 -44 5 -40 5 -40 -30 -40 -19 0 -38 -1 -42 -2
-4 -2 -12 14 -18 34 -17 62 -26 58 -37 -17 -3 -18 -14 -21 -98 -28 -114 -9
-745 -5 -755 5 -4 4 5 18 21 32 16 13 37 38 47 54 32 56 -1 46 -74 -22 l-71
-66 -76 7 c-43 3 -78 7 -79 8 -2 1 17 16 42 33 78 55 43 76 -36 22 -50 -34
-59 -36 -59 -15 0 9 -13 42 -30 74 l-29 59 39 26 c65 43 48 64 -21 27 l-36
-19 -38 46 c-36 42 -38 46 -21 56 71 42 73 73 2 39 l-43 -21 -31 25 c-18 13
-32 28 -32 32 0 4 20 21 45 39 25 17 45 38 45 47 0 22 -13 19 -55 -15 -46 -37
-76 -45 -104 -30 -16 8 -20 17 -15 36 6 24 5 25 -28 19 -44 -8 -128 29 -109
48 25 25 -2 38 -37 16 -12 -7 -31 -5 -71 9 l-54 18 41 34 c23 18 42 39 42 47
0 19 -7 17 -68 -23 l-54 -37 -242 -1 c-200 -1 -252 -5 -306 -20 -150 -42 -280
-126 -325 -210 -11 -20 -22 -36 -26 -36 -32 0 -310 125 -444 199 -135 76 -153
92 -147 131 5 35 -22 43 -31 9 -7 -25 -22 -18 -82 34 -37 32 -39 36 -27 62 7
16 16 57 19 93 8 89 -15 81 -40 -13 -10 -38 -20 -71 -23 -74 -3 -3 -25 16 -51
41 l-46 46 16 59 c20 69 21 83 6 83 -5 0 -19 -20 -30 -45 -11 -25 -23 -45 -27
-45 -18 0 -42 62 -42 109 0 28 -4 51 -10 51 -5 0 -10 -6 -10 -14 0 -39 -20
-19 -39 36 -45 139 -49 248 -10 248 18 0 18 3 6 33 -11 25 -11 42 -2 77 10 41
14 45 38 42 29 -3 36 15 15 36 -9 9 -7 21 7 52 10 22 21 40 24 40 4 0 17 -18
31 -40 29 -46 56 -56 40 -14 -6 14 -17 36 -25 47 -21 30 -19 52 9 84 l25 28
34 -33 c19 -19 43 -32 52 -30 14 2 9 12 -24 49 l-40 46 30 22 30 22 65 -63
c56 -54 103 -116 92 -121 -2 -1 -18 -13 -36 -25 l-34 -24 -24 23 c-31 29 -38
21 -19 -25 13 -31 14 -47 4 -96 -14 -72 -5 -130 19 -130 38 0 132 128 132 180
0 39 16 20 43 -52 50 -134 53 -160 30 -207 -14 -28 -19 -54 -16 -79 9 -80 68
-217 93 -217 22 0 52 98 53 171 0 52 -5 70 -35 125 -20 35 -50 107 -68 159
-18 52 -35 101 -37 107 -4 9 5 8 32 -3 53 -22 163 -29 209 -14 29 9 36 16 34
33 -4 25 -114 102 -170 119 -24 7 -38 18 -42 33 -7 29 -88 103 -94 86 -2 -7
10 -27 27 -45 17 -18 31 -37 31 -43 0 -6 -21 -17 -46 -26 -43 -14 -47 -14 -63
3 -9 10 -47 49 -85 88 -75 78 -76 86 -13 118 27 15 31 14 51 -5 21 -20 46 -28
46 -15 0 3 -9 19 -21 36 -12 16 -20 31 -18 32 19 17 211 125 302 171 l116 59
38 -27 c60 -42 91 -30 36 13 -23 17 -25 23 -13 31 34 21 58 20 95 -5 21 -14
47 -26 59 -26 19 1 18 4 -11 30 -18 16 -33 32 -33 35 0 3 19 14 43 24 41 18
43 18 84 -2 49 -24 70 -15 34 14 -27 22 -27 22 14 37 43 15 42 16 70 -28z
m4080 -10 c-44 -46 -23 -56 31 -15 34 26 68 32 79 15 8 -13 -13 -46 -67 -111
-21 -25 -38 -48 -38 -52 0 -33 103 59 126 113 l17 39 41 -16 c23 -9 43 -18 45
-19 2 -2 -4 -22 -13 -45 -9 -23 -14 -44 -11 -48 4 -3 23 13 43 36 l37 42 63
-30 c34 -17 66 -39 72 -48 6 -13 17 -17 33 -14 14 3 39 -3 56 -12 31 -15 32
-18 25 -61 -5 -37 -4 -44 10 -44 9 0 17 6 17 13 1 6 2 19 3 27 2 26 32 22 84
-10 l51 -31 -21 -45 c-11 -25 -17 -48 -14 -51 8 -8 36 17 36 31 0 7 6 20 13
31 13 17 16 17 61 -14 43 -30 46 -35 33 -49 -38 -44 -63 -129 -34 -120 6 3 25
28 42 56 16 29 32 52 35 52 3 -1 22 -15 43 -33 l38 -33 -16 -37 c-8 -20 -15
-43 -15 -52 0 -27 21 -16 36 20 8 19 18 35 22 35 11 0 67 -60 81 -86 8 -16 7
-34 -3 -70 -25 -88 -38 -235 -22 -251 13 -13 19 9 32 104 17 121 24 153 32
153 4 0 22 -29 41 -63 34 -63 34 -65 23 -122 -7 -32 -12 -67 -12 -77 0 -28 20
-21 31 12 18 52 29 23 29 -78 0 -95 -10 -142 -23 -108 -4 9 -12 16 -18 16 -8
0 -10 -20 -5 -70 7 -70 7 -71 -23 -99 -17 -16 -31 -38 -31 -49 0 -12 -10 -33
-23 -48 l-23 -27 -22 37 c-39 65 -59 33 -23 -35 l20 -36 -40 -42 c-22 -22 -44
-41 -49 -41 -6 0 -23 18 -38 40 -45 66 -58 44 -20 -34 l21 -45 -33 -28 c-69
-58 -67 -58 -95 -13 -28 44 -61 56 -50 18 4 -13 13 -33 21 -45 21 -34 17 -48
-20 -66 l-35 -16 -21 34 c-12 19 -28 35 -36 35 -18 0 -17 -2 1 -47 9 -20 14
-42 11 -49 -6 -16 -185 -111 -317 -170 -114 -50 -475 -174 -507 -174 -11 0
-22 7 -26 15 -8 22 -26 19 -26 -4 0 -11 -5 -23 -11 -27 -22 -13 -147 -41 -157
-35 -5 3 -15 24 -21 46 -12 44 -56 115 -71 115 -16 0 -11 -25 20 -98 17 -39
30 -73 30 -75 0 -7 -86 -27 -118 -27 -21 0 -32 7 -40 26 -15 32 -35 21 -27
-16 l6 -27 -95 -18 c-52 -9 -103 -15 -113 -13 -12 2 -21 20 -30 67 -37 182
-186 394 -335 479 -27 15 -48 30 -48 33 0 3 29 11 64 18 l63 13 72 -36 c55
-28 71 -33 71 -21 0 9 -20 28 -45 43 -24 15 -45 30 -45 34 0 3 24 11 53 18 50
11 54 10 120 -24 47 -25 67 -31 67 -21 0 15 -42 51 -71 60 -31 10 -22 21 36
43 48 19 62 20 109 10 55 -11 92 -6 82 11 -3 5 -22 12 -41 15 -66 13 -6 49
114 70 77 14 161 50 161 69 0 10 -13 8 -97 -16 -29 -8 -53 -14 -53 -13 0 1 29
33 65 72 86 91 119 157 123 251 5 83 -7 126 -55 206 -19 32 -33 64 -30 71 8
21 136 37 199 26 78 -14 138 -32 138 -40 0 -4 -13 -24 -30 -45 -37 -47 -44
-83 -38 -202 4 -71 10 -99 22 -111 16 -16 21 -13 78 47 70 74 88 111 88 180 0
27 3 52 8 55 13 8 102 -107 137 -179 46 -92 54 -133 29 -140 -49 -15 -144 -69
-171 -98 -47 -48 -80 -118 -94 -197 -11 -61 -10 -73 2 -81 14 -10 129 -6 164
6 17 5 21 1 23 -20 5 -62 92 -170 130 -163 20 4 72 102 72 135 0 28 3 28 57 2
35 -17 57 -20 104 -17 32 2 65 10 71 16 19 19 -7 123 -52 218 -50 104 -111
166 -189 192 l-56 19 -30 84 c-17 46 -43 102 -58 123 -14 22 -25 41 -23 43 2
2 15 -1 30 -7 41 -15 150 -12 196 6 49 20 87 66 67 83 -51 42 -253 52 -329 16
l-37 -18 -48 31 c-26 17 -79 46 -118 63 -67 32 -69 33 -40 39 46 10 127 55
156 87 35 38 59 75 59 90 0 18 -65 17 -153 -3 -119 -27 -170 -62 -202 -137
-14 -33 -19 -37 -53 -37 -20 0 -52 -4 -70 -9 -17 -5 -32 -7 -32 -3 1 4 24 38
52 76 42 57 60 73 109 95 64 28 72 48 19 43 l-33 -4 34 49 c21 28 55 59 83 74
81 44 104 84 35 60 -18 -6 -33 -10 -35 -9 -8 9 73 111 102 129 36 22 44 39 19
39 -18 0 -19 5 -1 33 7 12 25 43 40 69 25 45 28 47 51 36 l25 -11 -25 -27z
m-3551 -146 c25 -10 19 -21 -30 -59 -37 -27 -56 -35 -90 -35 -23 0 -49 3 -58
6 -46 18 14 69 95 83 30 5 57 9 61 10 3 0 13 -2 22 -5z m1752 -231 c-11 -60
-56 -140 -103 -183 -23 -22 -48 -40 -54 -40 -19 0 -2 88 26 136 25 42 109 124
128 124 5 0 7 -15 3 -37z m1773 -131 c-28 -45 -122 -91 -217 -107 -42 -7 -43
-6 -33 13 19 36 72 72 129 88 31 8 62 17 67 19 6 2 22 4 38 4 23 1 26 -1 16
-17z m-2139 -193 c17 -44 30 -83 30 -87 0 -12 -62 54 -76 81 -8 15 -17 58 -20
95 l-5 67 21 -38 c11 -20 34 -73 50 -118z m-1072 121 c250 -33 527 -247 636
-493 28 -64 90 -253 100 -305 l6 -33 -38 7 c-45 8 -56 16 -72 54 -18 44 -43
40 -34 -5 l6 -34 -67 19 c-37 11 -69 21 -70 22 -1 2 -7 17 -14 35 -13 33 -38
60 -46 51 -3 -3 0 -19 6 -37 6 -18 9 -34 7 -36 -5 -6 -146 45 -215 77 -149 68
-263 185 -263 269 l0 32 93 -7 c89 -7 91 -7 74 11 -14 14 -37 19 -107 21 l-89
4 -56 65 c-30 35 -55 69 -55 74 0 5 20 14 45 20 70 18 56 33 -24 26 l-69 -6
-61 76 c-34 42 -59 78 -57 81 5 4 166 17 256 20 19 1 68 -3 108 -8z m-1422
-49 c102 -54 96 -77 -17 -61 -96 14 -179 65 -136 84 24 11 115 -3 153 -23z
m-232 -68 c-4 -21 -11 -49 -16 -63 -12 -31 -56 -90 -68 -90 -10 0 -1 88 12
115 14 26 59 75 70 75 5 0 6 -17 2 -37z m1349 -87 c15 -19 27 -39 27 -43 0 -4
-16 -34 -35 -66 -40 -66 -40 -67 -20 -67 8 0 29 20 47 45 18 24 38 44 44 45 6
0 21 -11 33 -24 l22 -24 -30 -54 c-17 -30 -31 -60 -31 -66 0 -24 21 -11 52 33
18 25 37 45 44 45 19 0 25 -63 10 -113 -7 -25 -11 -48 -8 -51 11 -11 21 -6 27
14 3 11 10 20 15 20 17 0 60 -74 66 -112 7 -42 11 -45 29 -21 11 15 16 14 54
-16 22 -18 41 -41 41 -52 0 -21 16 -26 22 -7 5 14 97 -29 103 -47 2 -5 6 -23
9 -38 7 -30 26 -28 26 4 0 25 34 25 60 -1 11 -11 20 -29 20 -40 0 -11 7 -20
15 -20 8 0 15 9 15 20 0 20 15 25 44 14 8 -3 20 -21 26 -40 13 -38 33 -41 38
-5 3 19 8 22 30 16 28 -7 42 -21 42 -42 0 -24 20 -23 30 1 13 36 37 32 61 -9
22 -36 39 -38 39 -4 0 22 -5 21 83 9 37 -6 78 -17 91 -26 16 -10 26 -12 31 -5
3 6 37 11 74 11 53 0 74 -4 94 -20 30 -24 37 -25 37 -4 0 13 13 15 93 11 50
-2 105 -8 121 -12 19 -5 27 -4 23 2 -9 15 27 23 106 23 54 0 74 -4 94 -20 34
-27 46 -25 41 4 -6 28 0 30 92 41 48 6 58 4 74 -14 21 -23 56 -28 56 -8 0 7
-5 18 -12 25 -15 15 -15 15 63 33 63 15 68 15 90 -2 13 -10 30 -19 37 -19 15
0 16 22 1 37 -12 12 12 25 93 52 34 11 41 10 64 -8 15 -12 33 -21 40 -21 19 0
18 24 -1 40 -23 19 -19 26 32 50 37 18 51 20 70 11 32 -14 53 -3 28 15 -17 13
-17 14 6 34 35 29 61 33 94 16 37 -20 45 -20 45 -1 0 8 -14 22 -31 31 l-31 16
37 38 c32 33 41 37 62 29 65 -24 86 2 24 29 l-39 17 15 37 c15 37 15 37 64 31
33 -4 49 -2 49 5 0 14 -33 32 -59 32 -30 0 -26 11 22 57 40 39 43 41 67 28 32
-18 40 -18 40 -1 0 7 -10 20 -22 28 l-22 15 39 46 c22 26 42 47 45 47 8 0 67
-100 75 -128 6 -21 4 -22 -19 -16 -37 9 -34 -16 4 -44 32 -24 36 -44 20 -86
l-9 -26 -27 25 c-28 26 -62 41 -71 31 -3 -3 13 -26 36 -51 22 -24 41 -48 41
-53 0 -4 -13 -23 -29 -42 l-28 -34 -32 27 c-61 51 -84 27 -29 -30 17 -18 30
-34 27 -36 -2 -1 -21 -15 -42 -31 -21 -15 -43 -25 -50 -21 -7 3 -23 12 -37 20
-30 17 -40 2 -16 -24 24 -26 20 -35 -24 -60 -38 -21 -40 -21 -65 -5 -31 20
-57 6 -36 -20 10 -12 8 -17 -11 -29 -41 -26 -99 -40 -111 -28 -16 16 -27 13
-27 -8 0 -25 -125 -70 -143 -52 -17 17 -37 13 -37 -9 0 -14 -9 -21 -37 -25
-21 -4 -54 -11 -72 -16 -27 -6 -39 -5 -51 6 -23 21 -43 19 -35 -4 4 -15 -1
-20 -27 -24 -95 -17 -127 -18 -148 -7 -18 9 -24 9 -33 -5 -9 -11 -36 -17 -100
-22 -82 -6 -89 -5 -112 17 -23 21 -30 20 -26 -4 4 -19 -27 -26 -117 -26 -73 0
-94 3 -98 15 -4 8 -12 15 -19 15 -7 0 -15 -7 -19 -15 -4 -12 -25 -15 -95 -15
l-89 0 -11 31 c-12 34 -31 31 -31 -5 0 -21 -3 -22 -62 -18 -40 2 -73 10 -90
22 -21 16 -28 17 -37 6 -14 -17 -77 -12 -261 24 -119 23 -403 102 -419 116 -2
2 1 15 7 29 16 34 -3 43 -34 14 l-24 -23 -45 22 c-41 20 -44 24 -33 41 17 28
3 37 -27 17 -25 -17 -28 -16 -70 9 -57 33 -61 42 -36 69 43 46 16 64 -30 20
l-27 -26 -33 30 -32 29 22 32 c17 24 21 35 12 44 -8 8 -18 4 -39 -16 l-28 -27
-21 37 c-19 34 -20 40 -7 57 22 31 18 47 -11 40 -25 -6 -25 -5 -25 53 0 51 4
63 26 83 18 18 23 31 19 47 -5 21 28 83 44 83 3 0 18 -16 34 -34z m1766 17
c-80 -107 -188 -146 -266 -97 -36 23 -27 41 31 63 61 22 176 49 220 50 25 1
27 -1 15 -16z m1028 6 c35 -6 63 -14 63 -18 0 -4 -23 -32 -50 -63 -45 -50 -56
-57 -102 -65 -58 -9 -70 -26 -22 -31 32 -3 32 -3 22 -45 -12 -55 -24 -67 -67
-67 -50 0 -71 -14 -43 -29 11 -6 32 -11 47 -11 46 0 -83 -104 -200 -161 -98
-47 -253 -104 -261 -96 -3 2 16 32 41 66 47 64 54 81 31 81 -18 0 -70 -60 -95
-108 -11 -21 -25 -43 -33 -49 -17 -14 -98 -36 -105 -29 -5 4 12 57 35 108 2 5
-3 8 -11 8 -19 0 -43 -37 -57 -88 -9 -35 -15 -42 -35 -42 -32 0 -32 17 0 118
45 144 146 261 315 366 135 84 270 136 397 155 32 5 60 9 62 10 2 0 33 -4 68
-10z m683 -90 c0 -33 -8 -57 -28 -90 -32 -48 -69 -85 -78 -77 -3 3 -8 37 -11
75 -6 75 13 137 52 177 18 18 20 18 42 -10 16 -21 23 -42 23 -75z m369 72 c38
-10 35 -26 -8 -46 -43 -19 -76 -17 -166 12 -60 19 -64 21 -45 33 17 11 182 12
219 1z m-2580 -246 c43 -102 41 -119 -8 -71 -43 42 -89 135 -97 194 l-5 37 40
-43 c22 -24 53 -75 70 -117z m-2419 -44 c13 -50 4 -124 -13 -118 -35 11 -68
141 -47 185 l12 26 18 -24 c10 -14 24 -45 30 -69z m2756 -79 c-23 -45 -81 -90
-138 -107 -59 -17 -108 -20 -108 -5 0 22 74 90 113 105 45 17 140 42 145 39 2
-1 -3 -15 -12 -32z m2222 -21 c73 -38 121 -107 177 -256 14 -37 23 -71 20 -76
-10 -15 -71 -21 -112 -10 -22 6 -53 23 -68 37 -15 14 -31 22 -36 17 -4 -4 -15
-41 -23 -82 -9 -41 -20 -79 -26 -85 -18 -18 -61 14 -88 64 -20 37 -23 54 -18
98 5 40 3 52 -8 52 -7 0 -19 -6 -25 -14 -18 -21 -97 -48 -133 -44 -30 3 -33 6
-31 33 4 53 44 144 85 189 76 87 201 120 286 77z m-1923 -155 c-7 -43 -17 -82
-22 -86 -14 -13 -113 -18 -113 -6 0 27 64 119 102 146 23 17 43 29 44 27 2 -1
-3 -38 -11 -81z m-1895 -345 c136 -10 250 -44 404 -125 155 -80 272 -200 342
-351 19 -40 34 -77 34 -81 0 -7 -111 3 -136 13 -8 3 -22 19 -30 35 -18 35 -32
30 -26 -10 l4 -30 -44 9 c-23 4 -49 8 -55 9 -7 0 -20 15 -29 33 -18 35 -63 87
-76 87 -14 0 -8 -20 18 -60 15 -22 24 -43 21 -47 -12 -12 -399 57 -659 118
-146 34 -158 38 -158 51 0 12 99 58 127 58 28 0 53 10 53 21 0 12 -67 11 -115
-2 -22 -6 -59 -24 -82 -40 l-43 -30 -75 22 c-41 12 -75 26 -75 30 0 4 26 30
57 58 31 28 54 53 51 57 -13 12 -47 -8 -95 -56 -48 -48 -51 -49 -86 -39 -22 6
-37 16 -37 25 0 8 23 40 52 70 97 103 305 180 493 182 28 0 102 -3 165 -7z"/>
<path d="M3333 7813 c-35 -37 -48 -73 -27 -73 17 0 67 75 62 92 -3 9 -15 2
-35 -19z"/>
<path d="M3895 7793 c-26 -40 -34 -88 -12 -81 15 6 57 78 57 101 0 28 -17 20
-45 -20z"/>
<path d="M3525 7783 c-29 -43 -31 -53 -11 -53 15 0 56 58 56 79 0 22 -20 10
-45 -26z"/>
<path d="M4045 7667 c-29 -50 -30 -57 -11 -57 19 0 56 52 56 79 0 33 -17 25
-45 -22z"/>
<path d="M3361 7646 c-24 -38 -27 -56 -8 -56 16 0 57 53 57 75 0 26 -28 16
-49 -19z"/>
<path d="M4251 7621 c-50 -63 -37 -85 18 -29 29 30 42 68 22 68 -5 0 -23 -18
-40 -39z"/>
<path d="M5312 7520 c-45 -40 -50 -70 -9 -49 32 17 77 61 77 76 0 23 -24 14
-68 -27z"/>
<path d="M1143 7463 c-18 -43 -23 -96 -9 -101 9 -3 46 98 46 126 0 25 -22 11
-37 -25z"/>
<path d="M961 7368 c-5 -13 -12 -42 -16 -65 -5 -35 -4 -43 9 -43 15 0 19 10
31 82 6 42 -11 61 -24 26z"/>
<path d="M805 7308 c-10 -25 -1 -91 13 -96 15 -4 17 75 2 98 -8 12 -10 12 -15
-2z"/>
<path d="M6361 7286 c-19 -20 -28 -36 -22 -40 10 -7 81 50 81 65 0 19 -28 8
-59 -25z"/>
<path d="M707 7193 c-15 -14 6 -113 23 -113 11 0 13 62 4 98 -6 22 -15 27 -27
15z"/>
<path d="M874 7175 c-11 -29 15 -95 37 -95 12 0 11 41 -2 79 -12 33 -26 40
-35 16z"/>
<path d="M6477 7144 c-49 -38 -66 -64 -41 -64 16 0 104 77 104 91 0 16 -16 9
-63 -27z"/>
<path d="M6537 7093 c-34 -24 -49 -53 -29 -53 11 0 88 55 97 69 12 21 -31 11
-68 -16z"/>
<path d="M815 7080 c-8 -13 13 -90 25 -90 11 0 13 43 4 78 -7 23 -19 29 -29
12z"/>
<path d="M2939 7358 c-45 -35 -60 -58 -37 -58 20 0 98 62 98 77 0 20 -15 16
-61 -19z"/>
<path d="M2708 7358 c-43 -11 -52 -38 -13 -38 30 0 85 26 85 40 0 12 -22 11
-72 -2z"/>
<path d="M4270 7346 c0 -18 51 -36 101 -36 46 0 61 17 22 25 -15 4 -47 10 -70
16 -53 12 -53 12 -53 -5z"/>
<path d="M2520 7323 c-82 -7 -71 -24 14 -21 52 2 81 7 84 16 4 12 -4 13 -98 5z"/>
<path d="M3750 7310 c0 -16 91 -110 106 -110 25 0 14 22 -35 71 -46 47 -71 60
-71 39z"/>
<path d="M3970 7312 c0 -18 50 -54 95 -68 60 -18 108 -19 103 -1 -4 10 -35 23
-180 72 -10 4 -18 2 -18 -3z"/>
<path d="M2180 7262 c0 -11 78 -52 98 -52 28 0 19 21 -15 35 -54 23 -83 29
-83 17z"/>
<path d="M2755 7250 c-54 -14 -86 -30 -80 -40 9 -15 39 -12 100 11 81 30 67
52 -20 29z"/>
<path d="M4410 7233 c-125 -4 -143 -8 -116 -29 24 -17 246 -20 277 -4 34 19
23 40 -18 38 -21 -1 -85 -4 -143 -5z"/>
<path d="M4843 7210 c-37 -22 -43 -40 -14 -40 23 0 73 39 66 51 -9 13 -16 11
-52 -11z"/>
<path d="M5047 7196 c-31 -29 -59 -82 -55 -104 2 -11 18 3 51 46 26 34 47 67
47 72 0 16 -16 11 -43 -14z"/>
<path d="M2410 7201 c0 -18 116 -30 154 -15 38 14 10 24 -69 24 -47 0 -85 -4
-85 -9z"/>
<path d="M2999 7170 c-28 -25 -38 -39 -28 -40 23 0 83 43 87 63 5 27 -12 20
-59 -23z"/>
<path d="M3962 7159 c5 -19 86 -58 133 -66 86 -14 -5 47 -109 73 -22 5 -28 4
-24 -7z"/>
<path d="M4890 7108 c-47 -65 -67 -153 -27 -120 18 15 77 128 77 147 0 26 -19
16 -50 -27z"/>
<path d="M4665 7123 c-65 -15 -115 -36 -115 -49 0 -17 12 -17 82 -3 72 14 109
30 105 43 -4 12 -40 17 -72 9z"/>
<path d="M2070 7081 c0 -14 52 -49 84 -57 22 -5 28 -4 24 7 -11 33 -108 77
-108 50z"/>
<path d="M4249 7076 c13 -16 130 -31 161 -21 17 5 19 10 9 21 -8 10 -35 14
-96 14 -72 0 -84 -2 -74 -14z"/>
<path d="M1487 7020 c-9 -38 -11 -62 -5 -66 19 -12 41 25 46 75 4 41 2 51 -10
51 -11 0 -21 -20 -31 -60z"/>
<path d="M2773 7063 c-24 -8 -43 -19 -43 -24 0 -17 84 -9 118 11 17 11 32 22
32 25 0 10 -66 3 -107 -12z"/>
<path d="M2240 7011 c0 -17 45 -31 103 -31 45 0 49 2 37 14 -19 19 -140 33
-140 17z"/>
<path d="M2565 7013 c-11 -2 -30 -6 -42 -9 -43 -9 -23 -24 31 -24 59 0 106 13
106 30 0 10 -55 12 -95 3z"/>
<path d="M4932 6957 c-19 -20 -52 -95 -52 -118 0 -5 7 -9 15 -9 15 0 57 75 69
123 8 33 -3 35 -32 4z"/>
<path d="M4811 6862 c-17 -32 -24 -99 -12 -106 13 -8 37 42 43 88 4 34 -16 46
-31 18z"/>
<path d="M1439 6824 c-27 -32 -53 -83 -46 -90 16 -17 71 62 65 93 -3 13 -5 12
-19 -3z"/>
<path d="M3420 6744 c0 -12 10 -14 52 -12 74 4 77 28 4 28 -44 0 -56 -3 -56
-16z"/>
<path d="M3261 6694 c-30 -25 -41 -54 -21 -54 16 0 110 61 110 71 0 19 -60 8
-89 -17z"/>
<path d="M2537 6664 c-17 -18 -4 -25 41 -22 26 2 47 8 47 13 0 12 -77 19 -88
9z"/>
<path d="M1570 6651 c0 -13 27 -21 71 -21 40 0 52 13 23 24 -24 9 -94 7 -94
-3z"/>
<path d="M2366 6628 c-50 -29 -61 -54 -20 -44 41 10 97 39 98 51 2 19 -39 15
-78 -7z"/>
<path d="M2735 6634 c29 -22 117 -46 128 -35 17 17 -54 51 -103 51 -42 -1 -44
-2 -25 -16z"/>
<path d="M3166 6584 c-9 -23 -7 -67 4 -84 13 -21 18 -12 26 48 5 43 4 52 -9
52 -8 0 -18 -7 -21 -16z"/>
<path d="M1720 6572 c0 -12 60 -82 71 -82 18 0 8 28 -20 59 -28 29 -51 40 -51
23z"/>
<path d="M2930 6549 c0 -5 16 -31 35 -57 19 -26 40 -56 48 -66 21 -30 38 -12
25 25 -19 54 -108 135 -108 98z"/>
<path d="M1580 6541 c0 -11 62 -51 79 -51 24 0 9 29 -23 44 -38 18 -56 20 -56
7z"/>
<path d="M2180 6504 c-35 -32 -44 -54 -21 -54 15 0 91 72 85 81 -9 16 -23 10
-64 -27z"/>
<path d="M5193 7108 c-36 -40 -57 -99 -35 -98 9 1 68 79 78 103 9 25 -18 22
-43 -5z"/>
<path d="M5308 7103 c-52 -57 -96 -153 -69 -153 12 0 111 148 111 166 0 21
-14 17 -42 -13z"/>
<path d="M5438 7073 c-50 -54 -83 -123 -58 -123 10 0 110 129 110 143 0 16
-28 5 -52 -20z"/>
<path d="M5596 7037 c-42 -55 -69 -152 -36 -132 9 5 80 148 80 159 0 16 -22 2
-44 -27z"/>
<path d="M5476 6975 c-50 -65 -84 -162 -53 -153 13 4 96 155 97 176 0 22 -17
13 -44 -23z"/>
<path d="M5075 6900 c-16 -31 -20 -70 -7 -70 7 0 52 82 52 95 0 3 -7 5 -15 5
-8 0 -21 -13 -30 -30z"/>
<path d="M5313 6887 c-41 -44 -69 -127 -44 -127 9 0 61 86 74 122 10 27 -8 30
-30 5z"/>
<path d="M5171 6823 c-39 -79 -60 -246 -21 -172 16 30 60 169 60 192 0 29 -19
19 -39 -20z"/>
<path d="M5514 6802 c-9 -6 -44 -119 -44 -142 0 -23 28 -7 43 25 32 67 33 138
1 117z"/>
<path d="M5362 6728 c-18 -23 -53 -113 -55 -143 -1 -20 3 -30 12 -30 14 0 69
131 70 168 1 20 -12 22 -27 5z"/>
<path d="M5017 6703 c-9 -15 -30 -134 -24 -139 12 -13 26 8 37 58 6 29 14 61
17 71 4 17 -21 25 -30 10z"/>
<path d="M5247 6648 c-21 -46 -32 -124 -18 -133 15 -9 41 53 48 116 7 57 -7
65 -30 17z"/>
<path d="M1258 6978 c-22 -33 -31 -68 -19 -68 10 0 61 68 61 82 0 17 -28 7
-42 -14z"/>
<path d="M1074 6921 c-34 -21 -59 -49 -51 -57 7 -8 59 20 80 44 25 27 7 35
-29 13z"/>
<path d="M1093 6805 c-60 -40 -72 -55 -45 -55 24 0 114 68 107 81 -8 12 -3 14
-62 -26z"/>
<path d="M5758 6963 c-29 -31 -68 -104 -68 -128 0 -34 27 -11 68 59 41 72 50
96 34 96 -5 0 -20 -12 -34 -27z"/>
<path d="M5998 6953 c-29 -32 -41 -60 -29 -67 13 -8 71 64 71 88 0 14 -18 4
-42 -21z"/>
<path d="M5837 6878 c-40 -53 -58 -95 -64 -151 -6 -46 -5 -51 9 -39 8 7 23 34
33 60 10 26 29 69 42 96 31 60 17 84 -20 34z"/>
<path d="M5898 6753 c-24 -55 -35 -123 -20 -123 11 0 44 81 57 138 10 49 -13
40 -37 -15z"/>
<path d="M5665 6726 c-24 -37 -32 -106 -12 -106 17 0 25 17 36 78 10 50 -1 63
-24 28z"/>
<path d="M6159 6843 c-17 -43 -23 -93 -12 -93 10 0 53 89 53 109 0 23 -31 10
-41 -16z"/>
<path d="M670 6594 c0 -4 15 -27 34 -53 18 -25 41 -61 50 -78 16 -32 46 -45
46 -20 -1 24 -38 93 -68 125 -26 28 -62 43 -62 26z"/>
<path d="M6635 6484 c7 -83 10 -94 26 -94 10 0 11 102 0 139 -4 14 -13 27 -20
29 -11 4 -12 -11 -6 -74z"/>
<path d="M6523 6393 c11 -83 26 -123 47 -123 16 0 17 4 9 38 -22 82 -41 132
-51 132 -7 0 -9 -17 -5 -47z"/>
<path d="M977 6383 c-6 -9 58 -172 73 -187 24 -24 19 28 -10 97 -31 74 -53
106 -63 90z"/>
<path d="M6294 6319 c-7 -12 4 -200 12 -208 15 -15 28 41 26 109 -3 86 -19
129 -38 99z"/>
<path d="M848 6295 c-5 -5 38 -165 47 -173 2 -2 8 -1 14 3 18 10 12 57 -13
111 -23 50 -38 68 -48 59z"/>
<path d="M730 6220 c0 -6 7 -40 16 -76 16 -61 35 -80 42 -41 6 30 -27 127 -43
127 -8 0 -15 -5 -15 -10z"/>
<path d="M6585 6110 c-6 -10 2 -108 11 -122 19 -30 35 73 18 116 -7 18 -20 21
-29 6z"/>
<path d="M916 6012 c-3 -6 -7 -37 -7 -69 -1 -87 0 -103 10 -103 15 0 24 39 23
97 0 53 -14 94 -26 75z"/>
<path d="M765 5938 c-13 -39 -22 -124 -14 -132 13 -14 39 56 39 104 0 38 -16
55 -25 28z"/>
<path d="M1046 5939 c-3 -8 -7 -59 -10 -114 -2 -55 -8 -112 -11 -127 -11 -41
19 -37 36 5 18 41 19 221 2 238 -10 10 -13 9 -17 -2z"/>
<path d="M6513 5932 c-18 -11 -111 -156 -106 -165 13 -22 100 74 122 135 10
29 3 42 -16 30z"/>
<path d="M850 5678 c-38 -67 -39 -94 -4 -70 16 10 54 83 54 104 0 32 -19 19
-50 -34z"/>
<path d="M936 5479 c-44 -77 -57 -119 -37 -119 19 0 101 145 101 180 0 38 -19
20 -64 -61z"/>
<path d="M980 5282 c-25 -24 -40 -48 -40 -63 0 -21 6 -18 55 31 30 30 55 58
55 62 0 19 -32 5 -70 -30z"/>
<path d="M1238 4933 c-50 -55 -92 -141 -79 -162 9 -13 121 150 121 175 0 21
-14 17 -42 -13z"/>
<path d="M5617 4838 c-35 -47 -59 -97 -52 -109 11 -16 34 9 66 73 16 31 29 60
29 63 0 15 -22 1 -43 -27z"/>
<path d="M5566 4624 c-15 -38 36 -144 70 -144 17 0 19 21 3 37 -6 6 -19 35
-28 64 -19 56 -34 71 -45 43z"/>
<path d="M5720 4440 c0 -28 107 -86 146 -78 25 4 21 21 -7 34 -108 52 -139 62
-139 44z"/>
<path d="M5760 3719 c-64 -29 -114 -69 -102 -81 14 -14 182 67 182 87 0 20
-27 18 -80 -6z"/>
<path d="M5500 3518 c-50 -52 -75 -97 -62 -110 9 -9 132 123 132 143 0 21 -32
6 -70 -33z"/>
<path d="M1763 3367 c-74 -62 -84 -92 -24 -67 56 23 144 134 103 129 -4 0 -40
-28 -79 -62z"/>
<path d="M2158 3404 c-5 -4 29 -121 39 -134 2 -2 8 2 14 10 11 18 2 65 -19
103 -16 27 -24 32 -34 21z"/>
<path d="M1863 3288 c-21 -18 -50 -40 -64 -49 -27 -19 -21 -34 10 -24 27 8
121 83 121 95 0 19 -29 10 -67 -22z"/>
<path d="M5341 3258 c-28 -65 -36 -118 -16 -118 8 0 15 1 15 3 0 1 11 34 25
72 29 83 29 85 9 85 -8 0 -23 -19 -33 -42z"/>
<path d="M5147 3097 c-13 -35 27 -205 48 -200 14 4 14 27 -4 122 -15 79 -32
109 -44 78z"/>
<path d="M4940 3033 c0 -34 26 -121 41 -139 35 -42 38 14 6 100 -24 66 -47 85
-47 39z"/>
<path d="M1839 3015 c-8 -22 -19 -35 -29 -33 -8 1 -16 0 -17 -4 -3 -13 52
-128 61 -128 5 0 6 23 3 50 -4 32 -1 65 8 91 15 40 13 59 -5 59 -5 0 -14 -16
-21 -35z"/>
<path d="M5314 3018 c-13 -21 -6 -123 12 -167 22 -56 38 -53 30 7 -3 26 -9 75
-13 110 -6 60 -14 75 -29 50z"/>
<path d="M5230 2773 c0 -36 54 -123 75 -123 20 0 14 24 -24 94 -31 59 -51 70
-51 29z"/>
<path d="M5024 2731 c3 -21 19 -69 36 -105 28 -64 50 -85 50 -48 0 25 -47 161
-61 178 -21 26 -32 15 -25 -25z"/>
<path d="M4792 2588 c4 -12 118 -47 156 -48 37 0 21 23 -29 42 -52 20 -133 24
-127 6z"/>
<path d="M4594 2556 c-27 -13 -67 -38 -88 -56 -52 -46 -32 -60 31 -21 28 17
53 31 57 31 17 0 86 52 81 60 -9 14 -24 12 -81 -14z"/>
<path d="M5010 2506 c0 -12 101 -116 113 -116 19 0 3 35 -33 74 -41 44 -80 65
-80 42z"/>
<path d="M2360 2436 c0 -15 89 -36 152 -36 49 0 48 14 -2 34 -51 20 -150 22
-150 2z"/>
<path d="M4421 2376 c-16 -19 -25 -117 -12 -136 15 -21 20 -11 30 66 10 70 4
96 -18 70z"/>
<path d="M4755 2370 c-3 -5 0 -10 8 -10 8 0 35 -11 60 -25 55 -29 70 -18 26
19 -31 26 -82 35 -94 16z"/>
<path d="M2702 2358 c6 -17 175 -104 184 -95 12 11 -24 43 -85 76 -61 32 -106
41 -99 19z"/>
<path d="M4900 2262 c0 -21 29 -52 48 -52 17 0 15 21 -4 48 -18 27 -44 29 -44
4z"/>
<path d="M2990 2176 c0 -17 127 -160 146 -164 8 -2 14 1 14 6 0 17 -62 101
-100 136 -42 38 -60 45 -60 22z"/>
<path d="M3210 1869 c0 -18 60 -119 71 -119 15 0 10 33 -15 80 -21 42 -56 66
-56 39z"/>
<path d="M3933 1765 c-44 -37 -89 -102 -79 -112 5 -6 105 82 133 117 35 43 -2
39 -54 -5z"/>
<path d="M2488 6433 c-43 -11 -4 -33 60 -33 21 0 32 5 32 14 0 23 -44 32 -92
19z"/>
<path d="M2650 6410 c0 -15 42 -39 81 -47 31 -6 33 -5 20 11 -28 34 -101 60
-101 36z"/>
<path d="M3978 6354 c-45 -19 -49 -34 -8 -34 37 0 82 20 77 34 -6 17 -28 17
-69 0z"/>
<path d="M4125 6344 c25 -18 64 -29 73 -19 12 11 -30 35 -62 35 -30 -1 -30 -1
-11 -16z"/>
<path d="M6883 6000 c-26 -11 -43 -26 -43 -36 0 -12 5 -15 23 -9 12 4 51 15
86 24 36 9 66 22 69 29 6 19 -87 14 -135 -8z"/>
<path d="M7116 6011 c-9 -14 20 -21 90 -21 50 0 64 3 64 15 0 12 -15 15 -74
15 -41 0 -77 -4 -80 -9z"/>
<path d="M7330 5998 c0 -14 128 -61 141 -52 19 11 7 26 -33 44 -49 22 -108 26
-108 8z"/>
<path d="M7870 5975 c-6 -14 -10 -41 -10 -58 1 -43 35 -117 55 -117 8 0 15 1
15 3 0 1 -7 24 -15 51 -8 27 -15 68 -15 92 0 51 -16 66 -30 29z"/>
<path d="M7547 5924 c-7 -8 70 -124 83 -124 29 0 8 59 -35 103 -28 28 -37 32
-48 21z"/>
<path d="M7660 5714 c0 -3 6 -26 14 -52 8 -26 22 -73 31 -104 8 -32 20 -58 25
-58 15 0 11 99 -4 143 -14 39 -42 77 -58 77 -4 0 -8 -3 -8 -6z"/>
<path d="M7936 5701 c-9 -14 29 -78 55 -91 16 -9 19 -7 19 10 0 27 -64 98 -74
81z"/>
<path d="M7695 5398 c-13 -35 -54 -183 -51 -185 10 -10 35 13 50 45 22 46 34
152 17 152 -6 0 -14 -6 -16 -12z"/>
<path d="M7512 5008 c-41 -62 -82 -135 -82 -147 0 -22 28 -10 52 22 32 40 78
131 78 152 0 27 -18 16 -48 -27z"/>
<path d="M7297 4678 c-18 -24 -50 -70 -71 -103 -32 -52 -34 -60 -19 -64 11 -2
29 10 46 30 29 36 107 160 107 172 0 20 -33 2 -63 -35z"/>
<path d="M7077 4421 c-40 -44 -61 -80 -53 -88 9 -9 65 32 91 67 49 67 19 84
-38 21z"/>
<path d="M6841 4200 c-75 -64 -87 -78 -76 -88 19 -19 175 105 175 139 0 22
-35 4 -99 -51z"/>
<path d="M6575 3976 c-61 -55 -68 -78 -18 -57 32 13 113 85 113 101 0 24 -39
6 -95 -44z"/>
<path d="M6333 3834 c-49 -29 -57 -50 -15 -39 37 9 85 38 84 50 -2 19 -27 15
-69 -11z"/>
<path d="M6235 3631 c-8 -14 3 -18 73 -25 69 -8 90 -2 71 20 -13 16 -134 20
-144 5z"/>
<path d="M6140 3468 l-25 -10 30 -14 c34 -15 95 -18 95 -5 0 27 -63 45 -100
29z"/>
<path d="M6288 5109 c-18 -10 -52 -62 -63 -96 -10 -36 19 -29 44 10 11 17 28
42 37 55 20 26 8 46 -18 31z"/>
<path d="M6207 4923 c-12 -12 -7 -69 8 -89 13 -18 14 -16 15 26 0 46 -11 76
-23 63z"/>
<path d="M1302 4052 c33 -46 74 -92 81 -92 19 0 4 42 -27 74 -36 38 -79 53
-54 18z"/>
<path d="M1415 3850 c-10 -16 4 -102 16 -95 11 8 12 75 0 94 -6 10 -10 10 -16
1z"/>
<path d="M5666 3253 c-55 -86 -39 -121 17 -37 20 30 37 59 37 64 0 23 -32 7
-54 -27z"/>
<path d="M1506 2732 c-6 -10 40 -36 87 -47 17 -5 27 -3 27 4 0 26 -101 64
-114 43z"/>
<path d="M1380 2677 c0 -26 79 -77 120 -77 37 0 21 17 -50 54 -49 26 -70 33
-70 23z"/>
<path d="M1617 2584 c-15 -15 8 -24 64 -24 44 0 60 3 57 13 -5 13 -109 23
-121 11z"/>
<path d="M624 2018 c37 -96 38 -98 47 -98 16 0 9 42 -17 101 -37 83 -62 80
-30 -3z"/>
<path d="M500 2022 c0 -35 32 -112 46 -112 17 0 17 7 3 51 -23 71 -49 104 -49
61z"/>
<path d="M437 1828 c7 -50 8 -52 22 -43 14 8 14 41 1 66 -18 32 -28 21 -23
-23z"/>
<path d="M551 1781 c2 -63 10 -87 27 -77 17 11 0 136 -18 136 -6 0 -10 -25 -9
-59z"/>
<path d="M680 1761 c0 -68 14 -116 31 -105 12 7 7 111 -6 147 -14 35 -25 16
-25 -42z"/>
<path d="M820 1705 c0 -30 5 -55 10 -55 9 0 12 14 12 60 0 40 -2 50 -12 50 -5
0 -10 -25 -10 -55z"/>
<path d="M840 1474 c0 -73 24 -70 28 4 2 42 0 52 -12 52 -13 0 -16 -12 -16
-56z"/>
<path d="M4470 1165 c0 -8 78 -113 89 -119 18 -11 20 10 4 42 -21 44 -93 103
-93 77z"/>
<path d="M4000 1150 c0 -13 89 -110 101 -110 17 0 9 29 -17 60 -29 34 -84 67
-84 50z"/>
<path d="M3356 1099 c-33 -79 -30 -115 5 -66 22 30 30 69 19 87 -7 11 -12 7
-24 -21z"/>
<path d="M3491 1083 c-14 -48 -14 -63 0 -63 11 0 39 60 39 85 0 31 -29 14 -39
-22z"/>
<path d="M2975 1070 c-27 -28 -28 -30 -7 -30 11 0 28 10 36 22 33 46 13 52
-29 8z"/>
<path d="M3919 1083 c22 -38 110 -128 117 -120 12 12 -25 74 -63 108 -38 33
-70 40 -54 12z"/>
<path d="M4184 1074 c15 -39 90 -144 103 -144 24 0 -11 72 -66 133 -27 30 -47
36 -37 11z"/>
<path d="M4420 1074 c0 -24 76 -144 90 -144 23 0 -30 109 -70 145 -19 17 -20
17 -20 -1z"/>
<path d="M3092 983 c-23 -22 -32 -38 -25 -40 14 -5 79 41 87 63 10 27 -26 14
-62 -23z"/>
<path d="M3436 928 c-26 -42 -50 -98 -43 -104 16 -16 77 72 77 111 0 22 -17
18 -34 -7z"/>
<path d="M4632 933 c20 -44 66 -113 76 -113 16 0 15 3 -8 55 -11 25 -29 49
-39 55 -23 12 -34 13 -29 3z"/>
<path d="M3260 898 c-73 -76 -107 -157 -39 -92 30 28 89 107 89 118 0 15 -22
3 -50 -26z"/>
<path d="M4170 906 c0 -16 41 -96 50 -96 16 0 12 32 -10 68 -16 27 -40 43 -40
28z"/>
<path d="M4060 890 c0 -23 51 -121 60 -115 15 9 12 35 -10 83 -17 37 -50 59
-50 32z"/>
<path d="M4310 848 c0 -29 37 -91 50 -83 5 3 3 25 -5 53 -8 26 -15 48 -15 50
0 1 -7 2 -15 2 -9 0 -15 -9 -15 -22z"/>
<path d="M4545 813 c13 -71 45 -101 45 -43 0 38 -20 80 -38 80 -11 0 -13 -8
-7 -37z"/>
<path d="M5820 2644 c-41 -38 -56 -73 -22 -55 23 13 82 71 82 82 0 18 -21 8
-60 -27z"/>
<path d="M6077 2609 c-24 -48 -27 -69 -8 -69 9 0 46 65 56 98 13 43 -21 23
-48 -29z"/>
<path d="M5619 2518 c-68 -35 -86 -58 -47 -58 27 0 130 59 136 78 6 20 -21 14
-89 -20z"/>
<path d="M5945 2432 c-60 -58 -71 -72 -53 -72 21 0 90 56 106 86 20 37 -6 31
-53 -14z"/>
<path d="M6186 2388 c-21 -56 -24 -90 -9 -95 12 -4 43 82 43 119 0 32 -18 19
-34 -24z"/>
<path d="M6355 2388 c-27 -81 -31 -128 -11 -128 17 0 23 17 30 82 5 44 -8 77
-19 46z"/>
<path d="M5756 2272 c-70 -38 -93 -62 -59 -62 28 0 138 65 141 83 5 24 -4 21
-82 -21z"/>
<path d="M6450 2238 c-6 -18 -14 -62 -17 -97 -5 -52 -4 -63 8 -59 24 8 53 188
30 188 -5 0 -14 -15 -21 -32z"/>
<path d="M6600 2180 c-14 -26 -18 -173 -5 -180 11 -5 32 98 34 163 1 40 -12
48 -29 17z"/>
<path d="M6179 2160 c-5 -43 4 -146 12 -154 21 -22 28 10 18 79 -9 65 -27 109
-30 75z"/>
<path d="M6327 2143 c-4 -3 -7 -39 -7 -80 0 -58 3 -73 15 -73 12 0 15 16 15
80 0 73 -6 91 -23 73z"/>
<path d="M5340 2127 c0 -14 83 -167 91 -167 31 0 -39 162 -73 168 -10 2 -18 1
-18 -1z"/>
<path d="M6440 1923 c0 -57 20 -107 36 -91 11 12 -9 141 -23 146 -10 3 -13
-13 -13 -55z"/>
<path d="M5721 1850 c-14 -63 -14 -80 -1 -80 15 0 31 38 33 82 3 60 -19 59
-32 -2z"/>
<path d="M6327 1883 c-10 -10 -8 -88 3 -117 5 -14 17 -26 26 -26 14 0 16 8 10
61 -10 83 -19 103 -39 82z"/>
<path d="M6617 1883 c-14 -13 -6 -89 13 -130 22 -49 45 -58 37 -15 -29 154
-32 164 -50 145z"/>
<path d="M5413 1869 c-15 -19 -64 -141 -58 -147 22 -23 78 78 73 132 -2 24 -5
27 -15 15z"/>
<path d="M6185 1871 c-7 -12 22 -157 37 -184 6 -12 13 -16 19 -10 8 8 -1 73
-26 181 -6 23 -20 29 -30 13z"/>
<path d="M6760 1791 c0 -35 19 -91 31 -91 12 0 11 50 -2 89 -14 39 -29 40 -29
2z"/>
<path d="M5631 1688 c-62 -60 -79 -104 -32 -78 22 11 81 86 81 102 0 16 -16 8
-49 -24z"/>
<path d="M6480 1693 c1 -38 36 -113 53 -113 12 0 13 8 6 41 -19 82 -59 131
-59 72z"/>
<path d="M6376 1621 c-16 -25 30 -161 54 -161 14 0 12 28 -6 91 -17 59 -37 88
-48 70z"/>
<path d="M6251 1531 c-19 -35 32 -161 56 -137 4 4 1 26 -6 49 -7 23 -15 54
-18 70 -7 35 -19 43 -32 18z"/>
<path d="M5422 1509 c-64 -32 -83 -56 -34 -44 38 9 105 47 110 63 6 18 -9 15
-76 -19z"/>
<path d="M5115 1421 c-3 -5 4 -13 15 -16 27 -9 120 4 120 16 0 12 -127 12
-135 0z"/>
<path d="M4976 1362 c-3 -5 9 -16 27 -23 17 -7 56 -28 85 -46 61 -38 77 -42
62 -13 -25 47 -157 109 -174 82z"/>
<path d="M5601 1274 c-24 -41 -26 -54 -8 -54 12 0 57 67 57 84 0 19 -31 1 -49
-30z"/>
<path d="M5680 1264 c-14 -36 -12 -64 4 -64 18 0 22 6 30 53 6 30 4 37 -9 37
-8 0 -20 -12 -25 -26z"/>
<path d="M6024 1267 c-3 -10 -3 -33 0 -53 9 -48 32 -39 29 12 -3 44 -19 66
-29 41z"/>
<path d="M6115 1260 c-9 -15 23 -80 40 -80 12 0 14 6 9 28 -13 54 -34 77 -49
52z"/>
<path d="M6217 1263 c-9 -9 12 -33 29 -33 17 0 18 12 2 28 -14 14 -22 15 -31
5z"/>
<path d="M5757 1233 c-12 -11 -7 -50 7 -62 11 -10 16 -8 21 8 11 36 -9 74 -28
54z"/>
<path d="M5210 1221 c0 -15 91 -111 106 -111 20 0 17 11 -11 50 -34 47 -95 86
-95 61z"/>
<path d="M5020 1199 c0 -11 35 -58 94 -126 24 -28 36 -29 36 -5 0 17 -78 117
-104 134 -16 11 -26 10 -26 -3z"/>
<path d="M4800 1191 c0 -16 118 -136 126 -128 10 10 -11 44 -59 96 -35 38 -67
53 -67 32z"/>
<path d="M5380 1040 c0 -17 37 -85 54 -99 27 -22 20 29 -9 72 -25 36 -45 48
-45 27z"/>
<path d="M4980 977 c0 -22 59 -99 71 -92 12 8 -29 83 -53 96 -13 7 -18 6 -18
-4z"/>
<path d="M2462 2110 c2 -7 26 -21 52 -32 27 -10 68 -28 92 -38 51 -24 64 -25
64 -5 0 8 -27 28 -60 45 -67 34 -156 52 -148 30z"/>
<path d="M2771 1953 c53 -72 119 -123 119 -93 0 18 -96 110 -114 110 -16 0
-17 -2 -5 -17z"/>
<path d="M2680 1852 c0 -4 28 -36 63 -70 68 -67 98 -81 73 -34 -28 54 -136
137 -136 104z"/>
<path d="M2940 1773 c0 -20 79 -138 91 -138 23 0 11 44 -24 94 -30 42 -67 66
-67 44z"/>
<path d="M4628 1950 c-64 -19 -135 -82 -75 -66 12 3 54 13 92 22 86 19 115 30
115 44 0 12 -93 12 -132 0z"/>
<path d="M4356 1788 c-47 -40 -72 -81 -61 -98 5 -8 145 125 145 136 0 2 -8 4
-19 4 -10 0 -39 -19 -65 -42z"/>
<path d="M4630 1794 c-51 -16 -115 -65 -109 -83 5 -14 173 68 172 84 -2 15
-14 15 -63 -1z"/>
<path d="M2088 1134 c-5 -4 -8 -11 -8 -15 0 -10 132 -31 171 -27 l34 4 -35 16
c-41 19 -151 34 -162 22z"/>
<path d="M1860 1098 c-19 -5 -41 -16 -49 -23 -28 -28 -20 -27 147 10 13 3 20
10 17 15 -8 12 -69 11 -115 -2z"/>
<path d="M2367 1053 c-4 -3 28 -26 70 -49 75 -42 113 -54 113 -35 0 13 -71 59
-119 76 -49 17 -55 18 -64 8z"/>
<path d="M2060 942 c0 -4 33 -14 72 -21 40 -7 78 -16 85 -18 7 -3 13 1 13 9 0
9 -17 20 -39 26 -43 14 -131 16 -131 4z"/>
<path d="M2340 892 c0 -10 85 -52 105 -52 27 0 4 28 -36 44 -43 18 -69 20 -69
8z"/>
<path d="M2620 892 c0 -12 77 -92 89 -92 21 0 11 27 -26 63 -33 34 -63 48 -63
29z"/>
</g>
</svg>
