<?xml version="1.0" encoding="UTF-8" standalone="no"?>
<svg
   xmlns:dc="http://purl.org/dc/elements/1.1/"
   xmlns:cc="http://creativecommons.org/ns#"
   xmlns:rdf="http://www.w3.org/1999/02/22-rdf-syntax-ns#"
   xmlns:svg="http://www.w3.org/2000/svg"
   xmlns="http://www.w3.org/2000/svg"
   xmlns:sodipodi="http://sodipodi.sourceforge.net/DTD/sodipodi-0.dtd"
   xmlns:inkscape="http://www.inkscape.org/namespaces/inkscape"
   version="1.0"
   width="1024.000000pt"
   height="1024.000000pt"
   viewBox="0 0 1024.000000 1024.000000"
   preserveAspectRatio="xMidYMid meet"
   id="svg2"
   inkscape:version="0.91 r13725"
   sodipodi:docname="UNADJUSTEDNONRAW_thumb_94a.svg">
  <defs
     id="defs140" />
  <sodipodi:namedview
     pagecolor="#ffffff"
     bordercolor="#666666"
     borderopacity="1"
     objecttolerance="10"
     gridtolerance="10"
     guidetolerance="10"
     inkscape:pageopacity="0"
     inkscape:pageshadow="2"
     inkscape:window-width="1440"
     inkscape:window-height="818"
     id="namedview138"
     showgrid="false"
     inkscape:zoom="0.4625"
     inkscape:cx="640"
     inkscape:cy="640"
     inkscape:window-x="0"
     inkscape:window-y="1"
     inkscape:window-maximized="1"
     inkscape:current-layer="svg2" />
  <metadata
     id="metadata4">
Created by potrace 1.14, written by Peter Selinger 2001-2017
<rdf:RDF>
  <cc:Work
     rdf:about="">
    <dc:format>image/svg+xml</dc:format>
    <dc:type
       rdf:resource="http://purl.org/dc/dcmitype/StillImage" />
  </cc:Work>
</rdf:RDF>
</metadata>
  <g
     transform="translate(0.000000,1024.000000) scale(0.100000,-0.100000)"
     fill="#000000"
     stroke="none"
     id="g6">
    <path
       d="M0 5120 l0 -5120 1625 0 c894 0 1625 3 1625 6 0 8 -256 513 -279 550 -11 18 -57 56 -103 86 -184 121 -305 269 -369 457 -11 30 -30 116 -44 190 -14 75 -34 170 -46 211 -25 96 -104 256 -165 340 -80 108 -170 262 -297 505 -278 534 -610 1102 -866 1483 -214 319 -220 331 -243 480 -29 183 49 451 182 632 89 121 203 216 390 327 122 73 156 82 379 98 290 22 392 44 611 130 232 91 260 95 385 66 48 -12 89 -20 91 -18 2 2 -8 25 -22 52 -33 64 -29 106 26 283 26 81 40 144 37 160 -3 15 -23 78 -46 141 -22 62 -43 139 -46 170 -4 31 -9 63 -12 71 -3 9 -27 -29 -60 -94 -30 -59 -52 -110 -50 -113 3 -2 19 3 36 12 46 23 37 2 -18 -44 -52 -44 -78 -51 -88 -25 -8 22 55 201 89 251 29 43 58 113 58 140 0 26 -55 35 -230 36 -145 2 -180 5 -207 19 -102 56 -106 161 -12 346 87 173 333 486 533 680 93 90 109 112 83 112 -28 0 -119 74 -152 123 -46 70 -65 149 -65 273 0 239 65 489 183 706 67 124 396 582 474 661 79 80 188 155 287 196 39 16 188 62 331 101 509 140 533 148 696 226 197 94 307 124 459 124 185 0 350 -58 520 -184 127 -94 207 -144 390 -241 280 -149 587 -350 698 -458 155 -150 351 -447 465 -702 190 -428 286 -819 366 -1495 12 -96 24 -194 27 -217 3 -23 10 -46 17 -51 7 -6 122 -54 257 -107 396 -157 470 -209 470 -334 0 -57 -36 -166 -108 -327 -114 -255 -173 -462 -191 -677 -8 -98 -8 -112 10 -237 29 -203 150 -278 502 -315 152 -16 180 -23 191 -50 15 -39 -87 -241 -194 -385 -95 -128 -221 -336 -214 -355 3 -8 31 -33 62 -56 109 -81 172 -141 229 -217 88 -118 89 -118 284 -190 192 -71 327 -129 379 -162 62 -40 126 -108 145 -154 29 -68 16 -104 -122 -337 -69 -118 -147 -250 -173 -294 -94 -160 -120 -263 -82 -327 20 -35 142 -115 230 -152 70 -29 211 -66 257 -66 59 -1 60 -16 4 -44 -66 -32 -135 -34 -238 -6 -132 37 -205 88 -292 204 -92 121 -112 166 -117 266 -4 84 -3 89 66 300 39 118 74 232 78 253 15 86 -37 172 -155 255 -71 50 -67 57 -51 -96 16 -149 -8 -304 -71 -458 -11 -29 -10 -40 20 -115 50 -125 66 -233 51 -338 -6 -46 -18 -97 -26 -113 -21 -40 -9 -69 52 -127 85 -81 99 -115 99 -248 0 -61 2 -114 5 -116 17 -16 320 -160 510 -242 348 -150 463 -214 633 -355 47 -38 88 -70 91 -70 3 0 6 2077 6 4615 l0 4615 -5120 0 -5120 0 0 -5120z"
       id="path8"
       style="fill:none" />
    <path
       d="M5065 10104 c-221 -36 -438 -149 -610 -319 -71 -70 -205 -228 -205 -241 0 -3 12 3 28 14 141 100 418 182 616 182 95 0 263 -26 360 -57 321 -100 589 -402 721 -810 34 -103 49 -171 130 -593 50 -255 125 -548 202 -784 75 -231 118 -343 244 -643 158 -377 234 -586 291 -803 35 -136 47 -290 28 -368 -48 -200 -292 -274 -586 -178 -61 20 -118 36 -126 36 -20 0 -28 -30 -28 -105 0 -152 70 -290 290 -575 135 -174 214 -298 247 -385 15 -41 31 -75 35 -75 3 0 19 25 34 56 22 46 27 70 27 129 0 104 -33 167 -178 335 -144 169 -190 252 -183 335 4 44 11 62 34 86 83 88 289 105 647 55 230 -33 247 -31 283 22 28 41 54 182 54 294 0 163 -42 313 -195 692 -182 451 -305 719 -450 981 -64 116 -105 236 -168 495 -26 102 -80 325 -122 495 -166 678 -227 847 -396 1101 -101 151 -312 362 -463 463 -131 87 -179 112 -271 140 -69 22 -226 35 -290 25z"
       id="path10"
       style="fill:#ff9933" />
    <path
       d="M4165 9791 c-511 -144 -569 -169 -723 -316 -119 -114 -204 -230 -285 -393 -56 -112 -62 -131 -65 -197 -4 -72 -3 -77 41 -159 112 -210 214 -338 305 -385 52 -27 145 -51 194 -51 37 0 108 27 108 41 0 3 -20 12 -45 18 -110 28 -161 132 -159 321 3 218 100 429 276 600 35 34 124 108 199 166 178 136 460 425 412 423 -10 0 -126 -31 -258 -68z"
       id="path12"
       style="fill:#ff9933" />
    <path
       d="M5996 9688 c5 -7 30 -40 58 -73 122 -148 243 -372 319 -590 44 -128 66 -217 167 -650 81 -348 147 -607 176 -686 15 -41 139 -321 277 -624 383 -844 392 -863 438 -1050 25 -99 32 -148 36 -280 5 -141 3 -170 -15 -243 -37 -147 -74 -176 -222 -175 -63 0 -137 10 -220 28 -333 71 -570 27 -570 -106 0 -54 33 -106 175 -279 143 -174 179 -233 195 -317 17 -91 -6 -173 -87 -316 -24 -43 -43 -80 -41 -82 2 -1 39 -21 83 -43 157 -78 312 -122 430 -122 77 0 191 -33 205 -60 30 -56 -7 -197 -77 -292 -171 -231 -286 -418 -409 -663 -65 -128 -88 -187 -97 -238 -18 -106 -25 -102 207 -102 196 0 198 0 217 -24 25 -31 24 -49 -8 -96 -57 -86 -119 -149 -231 -232 -64 -48 -132 -100 -150 -115 -32 -27 -72 -38 -72 -19 0 5 33 81 74 168 40 87 72 160 70 162 -1 2 -40 -2 -85 -8 -219 -29 -285 -1 -308 134 -21 119 -16 136 182 645 132 341 129 331 118 349 -5 7 -51 24 -102 37 -195 50 -304 107 -409 212 -73 74 -111 130 -188 277 l-63 120 6 -230 c13 -498 30 -791 61 -1000 52 -357 184 -737 332 -957 63 -93 114 -155 265 -320 64 -70 137 -155 162 -189 133 -180 186 -342 186 -564 1 -233 -62 -467 -181 -675 -20 -36 -78 -137 -128 -224 -51 -88 -92 -163 -92 -168 0 -4 444 -7 986 -6 l986 3 44 72 c63 104 149 266 138 262 -5 -2 -71 -34 -146 -71 -160 -78 -221 -98 -298 -98 -144 0 -256 92 -296 242 -18 70 -18 225 1 299 9 32 78 231 154 442 77 211 143 400 146 420 9 47 3 49 -177 81 -230 40 -329 85 -432 197 -91 98 -135 214 -173 452 -16 98 -18 176 -16 627 2 504 6 620 23 620 4 0 10 -258 13 -572 5 -606 10 -684 58 -858 42 -155 135 -279 258 -344 81 -43 141 -59 319 -86 148 -22 169 -30 178 -66 7 -27 -2 -54 -192 -614 l-118 -345 0 -95 c0 -190 67 -304 199 -341 51 -15 143 0 217 34 l53 24 -50 7 c-191 27 -315 113 -315 218 0 39 31 132 70 209 28 55 147 232 364 544 93 132 179 261 192 288 33 63 74 220 74 280 0 95 -51 157 -187 226 -101 50 -186 76 -353 107 -167 30 -228 48 -299 85 -139 71 -205 179 -246 398 -34 184 -14 171 50 -34 53 -168 76 -216 134 -268 78 -70 129 -87 411 -131 85 -14 186 -35 223 -46 78 -24 85 -22 119 44 29 56 35 178 14 268 -31 134 -73 198 -241 363 -165 164 -241 266 -320 430 -86 178 -153 432 -285 1075 -44 217 -85 408 -90 424 -6 16 -33 51 -61 77 -73 71 -94 123 -93 234 0 76 5 100 29 155 23 53 28 79 28 140 0 41 -46 395 -101 785 -56 391 -113 798 -127 905 -79 597 -122 805 -234 1140 -114 338 -269 635 -472 901 -68 89 -186 187 -386 322 -124 83 -438 267 -457 267 -4 0 -4 -6 0 -12z m1668 -8316 c3 -5 -17 -58 -44 -118 -58 -132 -105 -285 -126 -412 -53 -332 -25 -584 68 -610 48 -13 131 1 268 48 148 49 180 55 180 32 0 -52 -138 -219 -210 -254 -19 -9 -36 -15 -38 -13 -2 2 13 24 32 50 71 92 39 111 -122 72 -150 -36 -173 -39 -229 -27 -71 16 -118 53 -150 119 -24 49 -28 70 -31 166 -6 177 42 364 143 566 33 64 201 342 228 377 11 14 24 16 31 4z"
       id="path14"
       style="fill:#ff9933" />
    <path
       d="M7481 1037 c-21 -26 -79 -165 -114 -273 -46 -143 -63 -278 -48 -380 20 -134 59 -183 155 -192 l51 -5 -37 41 c-50 55 -59 93 -65 267 -6 163 7 277 51 460 13 52 22 95 21 95 -1 0 -7 -6 -14 -13z"
       id="path16"
       style="fill:#ffcc00" />
    <path
       d="M7893 243 c-37 -19 -38 -22 -20 -48 17 -22 29 -16 56 30 23 39 15 43 -36 18z"
       id="path18"
       style="fill:#ffcc66" />
    <path
       d="M4830 9684 c-260 -31 -440 -93 -564 -198 -125 -104 -236 -289 -282 -471 -28 -109 -42 -296 -27 -353 l8 -34 32 76 c65 155 175 277 305 340 94 45 152 58 263 58 199 -1 379 -99 582 -316 145 -157 257 -350 376 -651 108 -273 193 -558 267 -895 40 -181 56 -225 86 -237 21 -8 17 -23 -6 -23 -15 0 -20 -7 -20 -29 0 -22 14 -45 55 -89 30 -33 55 -62 55 -65 0 -4 -18 0 -39 8 -22 7 -41 11 -44 9 -3 -3 -3 -91 -1 -197 3 -106 9 -421 14 -702 6 -280 15 -571 21 -645 27 -359 124 -729 269 -1025 126 -259 315 -423 510 -442 31 -3 64 -13 75 -23 11 -10 33 -20 48 -24 16 -4 40 -18 54 -32 34 -34 28 -65 -43 -247 -230 -586 -244 -626 -244 -725 0 -123 46 -159 183 -142 131 16 194 14 206 -9 13 -24 -7 -105 -48 -196 -16 -36 -27 -65 -24 -65 15 0 264 247 277 275 28 59 33 57 -174 53 l-189 -3 -28 28 c-25 25 -28 34 -27 95 1 77 24 140 130 348 89 176 198 355 315 518 105 148 130 193 149 274 12 51 11 55 -9 75 -19 19 -37 22 -159 28 -188 9 -342 56 -495 150 l-49 30 -51 -39 c-61 -46 -89 -62 -112 -62 -11 0 9 25 51 64 l69 64 -87 90 c-97 101 -143 166 -216 310 -136 266 -226 565 -273 904 -19 136 -22 215 -26 713 -4 379 -1 688 8 955 18 513 18 1131 1 1265 -32 242 -87 427 -183 616 -156 306 -372 490 -664 564 -88 22 -254 37 -325 29z"
       id="path20"
       style="fill:#ff9933" />
    <path
       d="M3992 9351 c-62 -48 -133 -107 -158 -132 -103 -100 -194 -261 -234 -418 -44 -169 -12 -337 73 -390 70 -43 189 -16 244 56 l26 34 -16 87 c-21 110 -22 280 -1 380 24 118 49 185 124 335 39 75 66 137 62 136 -4 0 -58 -40 -120 -88z"
       id="path22"
       style="fill:#ffcc00" />
    <path
       d="M4399 9028 c-97 -34 -173 -84 -249 -164 -72 -76 -135 -187 -147 -257 l-6 -38 84 57 c170 116 309 163 504 171 182 7 342 -26 523 -107 60 -28 62 -28 51 -7 -22 41 -206 214 -282 265 -113 75 -171 94 -302 99 -95 3 -119 1 -176 -19z"
       id="path24"
       style="fill:#ffcc00" />
    <path
       d="M3030 8959 c-56 -92 -133 -257 -171 -369 -34 -103 -42 -139 -43 -205 -1 -72 3 -88 32 -147 59 -121 164 -188 293 -188 93 0 213 55 258 118 l21 30 -62 36 c-168 94 -277 237 -307 400 -13 69 -14 229 -1 301 4 28 6 52 4 54 -1 2 -12 -12 -24 -30z"
       id="path26"
       style="fill:#ffcc00" />
    <path
       d="M4518 8740 c-54 -9 -238 -50 -238 -53 0 -1 57 -2 128 -3 115 0 135 -3 219 -32 311 -106 585 -314 826 -624 50 -65 92 -116 94 -114 8 7 -70 201 -120 301 -94 189 -242 377 -332 422 -55 28 -186 71 -267 88 -88 19 -239 26 -310 15z"
       id="path28"
       style="fill:#ff9933" />
    <path
       d="M3114 8620 c4 -19 23 -68 43 -109 64 -129 193 -241 278 -240 l30 0 -41 22 c-111 59 -198 150 -274 288 -35 61 -41 68 -36 39z"
       id="path30"
       style="fill:#ffcc00" />
    <path
       d="M4235 8625 c-81 -14 -128 -33 -170 -68 l-29 -24 94 4 c175 9 420 -53 574 -145 108 -65 212 -176 262 -282 36 -73 42 -80 68 -80 37 0 248 19 295 26 l34 5 -99 101 c-360 364 -711 522 -1029 463z"
       id="path32"
       style="fill:#ff9933" />
    <path
       d="M4034 8490 c-17 -6 -62 -42 -100 -81 -119 -122 -223 -179 -369 -200 -83 -13 -99 -24 -152 -107 -84 -131 -134 -274 -158 -452 -18 -133 -18 -267 0 -495 10 -126 13 -249 9 -410 -5 -190 -4 -247 10 -325 23 -130 64 -246 142 -401 86 -173 135 -298 190 -494 25 -88 65 -200 88 -250 105 -221 325 -442 601 -605 50 -29 144 -87 210 -128 65 -41 144 -86 174 -100 53 -24 59 -25 200 -18 157 7 223 20 306 61 207 101 535 429 640 640 l25 50 -7 651 -6 651 -91 6 c-50 3 -174 21 -276 42 -120 24 -197 34 -220 30 -19 -3 -48 -7 -65 -8 -28 -2 -30 1 -33 35 -5 56 20 93 146 216 l116 113 -79 -7 c-101 -8 -92 9 16 32 77 17 346 23 410 9 32 -7 32 -7 25 26 -3 18 -8 35 -11 37 -2 3 -82 -3 -176 -12 -206 -20 -230 -14 -112 26 38 13 98 22 171 25 125 6 118 1 101 85 -16 74 -20 77 -92 71 -150 -11 -226 -33 -361 -106 -38 -21 -63 -27 -110 -27 -61 0 -146 29 -146 49 0 15 88 128 114 145 27 17 406 76 494 76 28 0 52 4 52 9 0 16 -58 206 -79 258 -59 150 -184 356 -226 375 -18 8 -74 8 -212 1 -116 -7 -195 -7 -206 -2 -9 6 -29 33 -43 62 -141 277 -415 441 -759 453 -66 2 -134 -1 -151 -6z m-99 -987 c139 -34 369 -142 474 -222 37 -28 64 -81 55 -106 -12 -30 -50 -36 -131 -19 -152 31 -318 105 -480 215 -112 76 -147 73 -396 -33 -65 -28 -121 -47 -125 -43 -13 13 128 120 223 167 131 66 234 77 380 41z m-127 -329 c58 -19 69 -35 20 -28 -247 32 -256 30 -415 -83 -31 -21 -29 -2 2 36 78 92 244 124 393 75z m247 -134 c77 -24 216 -89 255 -119 32 -25 21 -37 -17 -18 -74 38 -78 32 -24 -38 81 -106 121 -203 107 -260 l-6 -25 -98 6 c-56 4 -129 1 -172 -5 -41 -6 -161 -14 -266 -18 l-191 -6 -59 27 c-32 15 -81 49 -109 75 -27 27 -69 61 -92 75 -24 15 -43 34 -43 44 0 10 34 51 75 92 41 41 75 78 75 82 0 4 -25 -4 -55 -18 -83 -36 -98 -30 -48 21 40 39 129 81 209 99 105 24 365 16 459 -14z m645 -147 c14 -39 20 -74 18 -112 l-3 -56 -37 126 c-21 70 -38 131 -38 135 1 21 41 -41 60 -93z m0 -498 c0 -33 -14 -166 -30 -295 -37 -288 -37 -326 -8 -357 28 -30 41 -29 133 8 55 22 107 34 179 41 55 5 107 14 114 20 16 14 15 46 -4 124 -18 71 -14 86 16 59 59 -53 78 -163 35 -209 -35 -38 -69 -48 -170 -50 -70 -1 -98 -6 -123 -21 -104 -62 -119 -65 -177 -41 -49 21 -75 68 -75 136 0 59 49 425 86 639 9 52 24 18 24 -54z m-548 -897 c78 -27 108 -32 188 -32 64 0 114 6 154 18 79 24 163 18 233 -18 55 -27 104 -33 147 -16 58 22 185 30 297 18 86 -9 135 -8 225 2 90 10 117 11 127 1 16 -16 -7 -31 -53 -31 -48 0 -57 -8 -90 -78 -57 -121 -169 -203 -325 -238 -113 -25 -365 -26 -455 -1 -142 38 -247 109 -320 217 -35 51 -50 63 -127 102 -48 23 -94 53 -101 66 -19 29 -12 28 100 -10z m-14 -199 c24 -9 31 -39 8 -39 -23 0 -76 34 -76 48 0 13 12 12 68 -9z"
       id="path34"
       style="fill:#ffdb9d" />
    <path
       d="M3691 7476 l-75 -23 75 1 75 1 180 -91 c147 -75 269 -123 420 -169 19 -5 35 11 28 28 -14 37 -289 175 -471 235 -128 43 -147 45 -232 18z"
       id="path36"
       style="fill:#330033" />
    <path
       d="M3800 6964 c-52 -8 -100 -25 -100 -36 0 -7 14 -9 38 -5 20 3 82 11 137 19 76 9 93 14 70 19 -33 7 -105 8 -145 3z"
       id="path38"
       style="fill:#3300ff" />
    <path
       d="M3570 6892 c-57 -33 -65 -42 -68 -70 -4 -41 34 -109 81 -145 39 -29 115 -63 124 -54 3 3 -4 19 -16 36 -37 51 -53 112 -53 194 -1 42 -1 77 -2 77 -1 0 -30 -17 -66 -38z"
       id="path40"
       style="fill:#ccffff" />
    <path
       d="M3877 6882 c-27 -29 -22 -98 8 -127 13 -14 34 -25 47 -25 34 0 87 36 94 64 17 67 -104 138 -149 88z"
       id="path42"
       style="fill:#3300ff" />
    <path
       d="M4032 6893 c23 -47 32 -63 37 -63 11 0 41 57 34 64 -9 9 -75 8 -71 -1z"
       id="path44"
       style="fill:#3300ff" />
    <path
       d="M3733 6883 c-40 -8 -45 -25 -29 -97 9 -37 25 -84 36 -106 25 -49 46 -53 116 -24 l37 16 -25 21 c-39 33 -52 66 -51 135 l0 62 -31 -1 c-17 -1 -41 -4 -53 -6z"
       id="path46"
       style="fill:#330099" />
    <path
       d="M4095 6796 c-42 -57 -77 -89 -136 -128 -43 -29 -77 -53 -76 -54 3 -3 154 14 183 21 29 6 71 89 83 165 6 35 9 66 7 68 -2 2 -30 -31 -61 -72z"
       id="path48"
       style="fill:#330099" />
    <path
       d="M4173 6748 c-11 -51 -19 -95 -17 -97 3 -3 45 -7 94 -9 l90 -4 -39 70 c-50 91 -79 132 -95 132 -7 0 -20 -37 -33 -92z"
       id="path50"
       style="fill:#ccffff" />
    <path
       d="M4540 5453 c-50 -9 -40 -21 47 -57 131 -55 200 -69 323 -63 84 3 118 10 172 31 160 66 104 77 -242 50 -64 -5 -87 -2 -154 20 -77 25 -96 28 -146 19z"
       id="path52"
       style="fill:#cc3300" />
    <path
       d="M4317 5374 c32 -45 123 -128 173 -157 66 -38 154 -54 335 -61 232 -8 313 15 427 122 52 49 94 109 84 120 -4 3 -100 -24 -213 -62 -203 -67 -208 -69 -289 -63 -69 4 -97 11 -172 46 -93 43 -176 64 -296 77 l-69 7 20 -29z"
       id="path54"
       style="fill:#cc3300" />
    <path
       d="M2785 8108 c9 -148 61 -245 163 -306 42 -24 57 -27 137 -27 125 0 133 6 179 139 20 58 36 110 36 115 0 6 -19 3 -42 -6 -30 -11 -77 -17 -153 -17 -101 -1 -114 1 -160 26 -47 24 -106 79 -148 138 -18 25 -18 24 -12 -62z"
       id="path56"
       style="fill:#ffcc00" />
    <path
       d="M6067 7713 c-3 -258 -11 -652 -17 -876 -9 -316 -9 -499 0 -805 15 -510 19 -538 50 -462 21 52 39 54 123 15 105 -49 177 -65 282 -65 148 0 242 36 287 108 21 34 23 49 23 167 0 118 -4 144 -38 279 -48 187 -111 369 -194 561 -251 577 -354 879 -458 1339 -25 110 -47 201 -49 203 -2 2 -6 -207 -9 -464z"
       id="path58"
       style="fill:#ffcc00" />
    <path
       d="M3025 7706 c-55 -24 -312 -307 -468 -514 -167 -223 -237 -358 -237 -457 0 -68 42 -93 179 -102 82 -6 83 -6 72 15 -19 35 -13 103 13 149 30 53 185 256 261 343 107 122 212 303 199 342 -3 12 14 57 45 117 28 55 51 104 51 110 0 15 -78 13 -115 -3z"
       id="path60"
       style="fill:#ffcc00" />
    <path
       d="M3183 7590 c-6 -14 -36 -83 -66 -155 -30 -71 -77 -182 -105 -246 -65 -150 -98 -250 -121 -374 -28 -143 -35 -282 -21 -405 18 -159 62 -336 81 -325 5 3 8 72 8 153 -1 191 13 255 141 634 l100 298 -2 222 c-2 178 -5 218 -15 198z"
       id="path62"
       style="fill:#ffcc00" />
    <path
       d="M5415 7274 c-99 -8 -192 -19 -206 -25 -15 -6 -45 -33 -68 -61 -49 -61 -44 -68 44 -68 49 0 75 7 135 36 101 49 154 64 290 83 87 13 115 20 115 31 0 21 -84 22 -310 4z"
       id="path64"
       style="fill:#330033" />
    <path
       d="M2793 7002 c-147 -198 -183 -255 -183 -293 0 -44 28 -59 111 -59 41 0 80 4 86 8 7 4 24 68 37 142 22 116 70 306 91 363 18 46 -21 1 -142 -161z"
       id="path66"
       style="fill:#ffcc00" />
    <path
       d="M3204 7045 c-40 -72 -123 -344 -157 -515 -30 -146 -44 -275 -30 -267 19 12 125 269 148 360 25 101 58 353 53 407 -3 32 -4 33 -14 15z"
       id="path68"
       style="fill:#ffcc00" />
    <path
       d="M5480 6844 l0 -29 117 3 c180 5 202 16 63 31 -63 7 -130 15 -147 18 -31 5 -33 3 -33 -23z"
       id="path70"
       style="fill:#330099" />
    <path
       d="M5357 6794 c-54 -42 -114 -126 -123 -171 l-6 -32 35 10 c25 7 55 5 106 -6 106 -22 107 -22 79 23 -19 31 -23 50 -23 124 0 57 -4 88 -11 88 -6 0 -31 -16 -57 -36z"
       id="path72"
       style="fill:#ccffff" />
    <path
       d="M5500 6771 c-35 -10 -38 -63 -9 -131 29 -68 45 -75 113 -49 31 11 56 23 56 27 0 3 -10 16 -22 29 -15 16 -24 41 -28 76 l-5 52 -40 2 c-22 1 -51 -2 -65 -6z"
       id="path74"
       style="fill:#330099" />
    <path
       d="M5646 6761 c-32 -35 13 -119 57 -105 35 10 65 46 72 87 l7 37 -59 0 c-46 0 -64 -4 -77 -19z"
       id="path76"
       style="fill:#3300ff" />
    <path
       d="M7645 6693 c12 -119 16 -139 35 -170 24 -40 185 -169 333 -267 107 -71 172 -128 195 -171 10 -18 14 -14 38 40 75 168 87 225 60 288 -28 68 -78 97 -401 232 -296 124 -267 118 -260 48z"
       id="path78"
       style="fill:#ffcc00" />
    <path
       d="M5728 6611 c-48 -31 -87 -59 -87 -63 -1 -7 168 -23 175 -15 3 2 4 34 2 70 l-3 65 -87 -57z"
       id="path80"
       style="fill:#330099" />
    <path
       d="M7670 6433 c0 -28 138 -1004 142 -1008 2 -3 82 120 177 273 117 186 175 289 178 313 5 32 0 42 -36 82 -23 24 -99 83 -169 130 -128 86 -272 201 -272 218 0 5 -4 9 -10 9 -5 0 -10 -8 -10 -17z"
       id="path82"
       style="fill:#ffcc00" />
    <path
       d="M3091 6303 c-196 -527 -224 -623 -199 -677 21 -48 35 -38 62 47 112 363 192 678 184 729 -2 10 -23 -34 -47 -99z"
       id="path84"
       style="fill:#ffcc00" />
    <path
       d="M3171 6258 c-99 -535 -126 -742 -119 -934 3 -97 8 -128 26 -169 33 -71 57 -93 234 -211 169 -113 194 -139 207 -222 l8 -47 12 29 c22 55 25 111 6 150 -13 28 -42 53 -119 103 -234 155 -282 261 -280 628 1 194 7 251 60 547 26 148 27 197 1 232 -11 15 -16 1 -36 -106z"
       id="path86"
       style="fill:#ffcc00" />
    <path
       d="M3255 6155 l-8 -67 44 -44 c24 -25 45 -40 47 -35 3 10 -57 192 -69 205 -4 4 -10 -22 -14 -59z"
       id="path88"
       style="fill:#ffcc00" />
    <path
       d="M3237 6023 c-19 -31 -54 -400 -39 -414 8 -8 191 48 209 63 16 13 8 70 -18 146 -26 78 -138 228 -152 205z"
       id="path90"
       style="fill:#ffcc00" />
    <path
       d="M3026 5809 c-3 -8 -16 -67 -29 -131 -19 -92 -22 -118 -12 -118 16 0 22 27 40 158 11 90 12 124 1 91z"
       id="path92"
       style="fill:#ffcc00" />
    <path
       d="M3467 5745 c4 -22 8 -56 8 -75 l0 -34 -129 -36 c-90 -25 -133 -42 -142 -56 -17 -27 -1 -200 26 -279 25 -73 78 -152 128 -191 20 -16 74 -54 120 -83 114 -74 136 -113 130 -219 -7 -98 -34 -168 -109 -282 -32 -50 -73 -118 -90 -151 -43 -86 -99 -259 -99 -307 0 -65 35 -95 250 -212 170 -93 240 -142 240 -170 0 -5 -17 -2 -37 7 -52 21 -180 59 -228 67 -22 3 -97 10 -166 15 -179 12 -209 33 -209 148 0 108 47 237 139 380 97 152 178 366 167 447 -6 54 -42 87 -233 217 -215 147 -211 139 -230 381 -7 100 -16 184 -18 187 -10 10 -187 -19 -229 -37 -60 -27 -121 -93 -144 -155 -11 -29 -32 -131 -47 -227 -30 -195 -31 -168 15 -565 16 -137 36 -324 45 -415 9 -91 27 -262 40 -380 13 -118 29 -287 34 -375 13 -208 27 -701 23 -836 -5 -230 46 -443 167 -691 244 -501 609 -842 1096 -1023 145 -54 239 -76 330 -76 49 0 222 21 450 56 204 31 449 67 545 80 191 27 376 32 491 14 39 -6 72 -9 74 -7 3 2 -29 32 -70 66 -232 194 -360 437 -396 752 -17 150 -8 253 92 1134 27 241 48 440 46 442 -9 9 -130 -41 -243 -101 -120 -63 -154 -76 -154 -55 0 37 136 126 266 175 66 25 126 54 135 65 9 10 20 45 24 77 7 61 174 1106 225 1417 17 99 29 181 27 183 -2 1 -30 -34 -62 -80 -78 -109 -267 -296 -385 -379 -141 -101 -278 -167 -370 -180 -99 -14 -304 -5 -352 16 -47 20 -484 293 -608 379 -52 36 -96 64 -98 62 -2 -2 16 -37 41 -78 25 -40 77 -137 116 -215 74 -148 84 -191 59 -247 -16 -35 -28 -31 -28 8 0 45 -26 130 -61 199 -16 31 -106 187 -201 345 -236 397 -289 511 -372 812 -29 103 -51 153 -39 86z m768 -1875 c90 -153 155 -232 254 -310 114 -90 169 -120 236 -127 54 -6 55 -6 38 -25 -15 -17 -26 -19 -68 -13 -84 11 -169 59 -263 149 -105 101 -159 175 -221 307 -89 189 -81 195 24 19z m-1249 72 c6 -4 36 -45 66 -92 59 -91 114 -147 176 -179 22 -11 221 -72 443 -135 525 -150 556 -162 631 -244 70 -79 100 -198 53 -216 -31 -12 -45 4 -39 44 9 55 -25 119 -89 171 -83 67 -67 61 -577 204 -129 36 -287 86 -351 110 -63 25 -127 45 -141 45 -22 0 -37 18 -101 118 -98 151 -120 207 -71 174z m1300 -1302 c181 -186 336 -477 409 -767 42 -168 67 -331 60 -385 -4 -27 -9 -47 -12 -44 -3 3 -16 61 -29 129 -91 484 -236 807 -502 1120 -9 10 -10 17 -4 17 6 0 41 -31 78 -70z m981 -732 c-120 -144 -188 -239 -289 -405 -45 -73 -83 -131 -86 -128 -8 8 29 109 65 175 88 159 250 371 337 439 76 60 66 30 -27 -81z m-607 -760 c-17 -51 -45 -118 -62 -148 -40 -71 -113 -165 -146 -186 -25 -16 -23 -13 188 388 49 94 60 65 20 -54z"
       id="path94"
       style="fill:#ffdb9d" />
    <path
       d="M8001 5612 c-97 -150 -152 -256 -192 -367 -27 -75 -32 -105 -33 -181 -1 -90 -1 -91 35 -135 74 -90 156 -115 449 -139 194 -15 220 -27 220 -97 -1 -47 -35 -108 -181 -320 -77 -113 -152 -230 -167 -261 -62 -137 -30 -221 109 -281 90 -39 87 -40 73 31 -30 139 -7 227 91 363 94 128 237 334 262 375 24 39 65 140 58 140 -22 0 -406 62 -439 71 -103 28 -197 105 -237 193 -54 122 -51 336 7 599 15 65 25 119 23 121 -2 2 -37 -48 -78 -112z"
       id="path96"
       style="fill:#ffcc00" />
    <path
       d="M2560 5512 c-41 -20 -100 -128 -126 -232 -24 -95 -14 -312 26 -555 63 -385 82 -534 90 -713 5 -101 28 -365 50 -588 41 -404 41 -406 22 -437 -17 -28 -20 -60 -25 -272 -8 -297 -21 -421 -84 -805 -12 -77 -17 -166 -17 -335 0 -257 13 -356 64 -477 26 -64 117 -204 126 -195 3 2 -9 31 -25 64 -45 90 -54 140 -48 256 6 114 13 139 126 421 80 199 79 180 26 321 -65 174 -75 250 -85 655 -16 588 -28 796 -64 1131 -61 551 -109 1150 -103 1279 9 198 64 341 170 442 l61 58 -75 0 c-51 0 -85 -6 -109 -18z"
       id="path98"
       style="fill:#cc6699" />
    <path
       d="M2295 5399 c-226 -55 -361 -78 -515 -89 -85 -6 -177 -18 -205 -25 -57 -16 -207 -102 -306 -176 -233 -173 -379 -448 -379 -717 0 -161 37 -243 254 -561 62 -91 151 -227 198 -301 82 -130 278 -458 278 -464 0 -2 24 -46 53 -97 29 -52 75 -134 101 -184 27 -49 61 -112 76 -140 15 -27 85 -160 155 -295 76 -146 173 -314 240 -415 62 -93 127 -198 146 -232 18 -35 36 -63 40 -63 3 0 9 42 12 93 3 50 20 191 37 311 52 373 63 517 64 831 0 199 -3 303 -11 330 -17 56 -104 193 -163 258 -27 30 -72 69 -99 88 -58 39 -64 54 -19 45 68 -13 174 -103 248 -209 29 -40 50 -62 53 -54 9 24 -26 629 -49 847 -16 156 -50 392 -84 585 -30 170 -38 431 -16 548 9 48 19 94 22 102 7 18 16 19 -131 -16z"
       id="path100"
       style="fill:#ffdb9d" />
    <path
       d="M6225 4968 c90 -284 179 -449 324 -601 81 -84 91 -85 91 -10 0 81 -36 146 -242 434 -109 153 -201 279 -203 279 -2 0 12 -46 30 -102z"
       id="path102"
       style="fill:#ffcc00" />
    <path
       d="M5857 4939 c-3 -13 -38 -229 -76 -479 -174 -1129 -243 -1682 -303 -2401 -20 -243 -21 -290 -10 -385 36 -328 174 -556 471 -783 206 -157 318 -283 396 -446 57 -119 79 -214 80 -342 l0 -103 92 0 92 0 16 53 c59 206 149 516 170 587 36 117 44 260 21 363 -44 196 -138 306 -396 462 -267 161 -368 278 -443 510 -79 243 -78 466 8 1430 74 826 76 871 50 1032 -8 50 -27 122 -41 160 -14 37 -44 127 -66 198 -21 72 -43 139 -47 150 -7 18 -8 18 -14 -6z"
       id="path104"
       style="fill:#ffcc00" />
    <path
       d="M7930 4763 c0 -5 9 -51 21 -103 11 -52 29 -142 40 -200 24 -122 40 -164 77 -203 57 -61 50 -66 189 145 69 106 137 215 149 243 34 73 27 77 -153 87 -82 5 -182 15 -224 23 -87 17 -99 18 -99 8z"
       id="path106"
       style="fill:#ffcc00" />
    <path
       d="M8051 4184 c0 -10 4 -28 8 -39 8 -19 8 -19 19 1 9 18 8 25 -8 39 -19 17 -20 17 -19 -1z"
       id="path108"
       style="fill:none" />
    <path
       d="M3231 4028 c-27 -80 -37 -168 -22 -196 6 -12 28 -26 49 -31 44 -11 222 -26 222 -18 0 3 -30 24 -67 47 -124 77 -154 118 -154 206 0 30 -2 54 -4 54 -2 0 -13 -28 -24 -62z"
       id="path110"
       style="fill:#ffcc00" />
    <path
       d="M8360 3909 c0 -61 25 -105 99 -178 l75 -74 -39 7 c-22 3 -108 40 -192 82 -84 41 -156 75 -160 74 -12 -1 -4 -54 28 -176 73 -281 194 -512 365 -693 87 -93 199 -185 213 -176 18 10 62 166 71 249 17 142 -17 339 -85 491 -34 77 -103 179 -167 246 -58 60 -187 169 -200 169 -4 0 -8 -10 -8 -21z"
       id="path112"
       style="fill:#ffcc00" />
    <path
       d="M8785 3543 c4 -10 16 -41 26 -70 31 -80 58 -113 143 -169 100 -67 124 -90 147 -139 38 -83 24 -175 -70 -467 -52 -162 -59 -205 -40 -270 13 -48 25 -48 34 -1 12 63 58 152 169 327 59 93 134 219 167 281 65 123 73 165 39 208 -27 34 -189 142 -260 174 -60 27 -350 143 -358 143 -2 0 -1 -8 3 -17z"
       id="path114"
       style="fill:#ffcc00" />
    <path
       d="M6041 3515 c-5 -35 -53 -498 -66 -630 -29 -309 -15 -651 35 -850 11 -44 41 -123 66 -175 39 -78 62 -109 128 -175 52 -51 112 -98 166 -129 294 -171 412 -288 471 -468 21 -65 24 -91 24 -228 -1 -143 -3 -164 -32 -270 -27 -97 -79 -251 -122 -362 -18 -48 -3 -31 56 59 122 187 200 369 240 553 27 129 25 368 -5 473 -49 171 -76 209 -465 655 -266 305 -430 797 -486 1462 -5 52 -9 91 -10 85z"
       id="path116"
       style="fill:#ffcc00" />
    <path
       d="M2837 1735 c-22 -73 -93 -428 -109 -546 -13 -103 -3 -171 41 -264 25 -54 92 -146 111 -153 4 -1 10 50 13 115 4 79 18 177 42 293 33 153 37 188 33 276 -4 86 -9 110 -35 165 -17 35 -44 80 -61 99 -27 31 -30 33 -35 15z"
       id="path118"
       style="fill:#cc66cc" />
    <path
       d="M9065 1539 c39 -41 116 -122 172 -180 180 -189 228 -288 228 -474 0 -103 -2 -114 -33 -178 -73 -156 -275 -284 -434 -275 -60 3 -58 5 -117 -135 -16 -37 -59 -116 -95 -177 -36 -60 -66 -112 -66 -115 0 -3 342 -5 760 -5 l760 0 0 459 0 459 -82 77 c-168 155 -363 265 -758 425 -202 82 -293 125 -378 177 -15 9 5 -17 43 -58z"
       id="path120"
       style="fill:#ffcc66" />
    <path
       d="M8935 1559 c-8 -25 -160 -250 -367 -545 -86 -122 -171 -248 -190 -280 -127 -220 -100 -318 102 -370 79 -20 208 -15 290 13 52 17 57 21 87 83 77 154 103 297 103 558 0 140 3 182 13 182 18 0 76 -92 116 -185 30 -69 35 -93 39 -181 5 -115 -8 -175 -64 -285 l-34 -68 53 16 c171 51 271 143 318 294 50 161 6 287 -169 489 -105 122 -273 300 -282 300 -5 0 -12 -9 -15 -21z"
       id="path122"
       style="fill:#ffcc00" />
    <path
       d="M3020 1466 c0 -4 7 -35 15 -67 24 -90 44 -250 51 -394 7 -162 19 -225 54 -295 71 -139 137 -179 351 -211 263 -39 382 -31 769 50 117 25 169 31 271 31 163 0 240 -20 429 -109 454 -216 625 -276 858 -301 211 -23 282 35 290 235 6 156 -39 306 -105 353 -54 37 -144 55 -158 31 -5 -6 -16 -4 -33 7 -19 13 -56 18 -156 21 -142 5 -418 -25 -946 -104 -381 -57 -534 -50 -760 34 -354 132 -664 371 -907 698 -12 17 -23 26 -23 21z"
       id="path124"
       style="fill:#cc6699" />
    <path
       d="M2696 1399 c-29 -99 -48 -245 -31 -227 7 7 54 272 50 277 -2 2 -11 -21 -19 -50z"
       id="path126"
       style="fill:#cc6699" />
    <path
       d="M2997 1290 c-6 -24 -39 -296 -52 -430 -12 -116 26 -200 108 -241 42 -22 97 -41 97 -34 0 2 -13 23 -29 47 -67 99 -77 147 -91 413 -6 116 -14 224 -19 240 l-8 30 -6 -25z"
       id="path128"
       style="fill:#cc66cc" />
    <path
       d="M9007 904 c-3 -87 -12 -195 -21 -239 -8 -44 -18 -96 -21 -115 l-7 -35 36 37 c50 52 80 155 80 273 0 91 -20 182 -47 219 -12 17 -15 0 -20 -140z"
       id="path130"
       style="fill:#ffcc66" />
    <path
       d="M6143 605 c39 -131 33 -270 -16 -367 -23 -46 -29 -68 -20 -68 17 0 222 48 233 55 11 7 -16 107 -50 181 -31 70 -96 169 -130 199 l-23 20 6 -20z"
       id="path132"
       style="fill:#cc66cc" />
    <path
       d="M3040 547 c0 -2 25 -50 55 -108 31 -57 94 -179 140 -271 l85 -168 605 0 605 0 -16 38 c-63 143 -126 310 -145 382 -11 47 -25 89 -29 93 -4 5 -50 -5 -101 -21 -315 -101 -736 -92 -1082 23 -104 35 -117 38 -117 32z m1183 -218 c25 -7 37 -16 37 -28 0 -16 -9 -17 -102 -13 -84 3 -125 -1 -223 -22 -136 -29 -135 -29 -135 -17 0 19 102 50 220 66 109 14 133 18 160 24 3 0 22 -4 43 -10z"
       id="path134"
       style="fill:#663399" />
    <path
       d="M4405 520 c-15 -24 66 -269 134 -404 l56 -111 883 -3 882 -2 0 80 c0 57 -4 80 -12 80 -7 0 -56 -9 -108 -20 -123 -27 -373 -37 -494 -21 -218 29 -426 102 -704 247 -187 98 -267 130 -370 150 -84 16 -258 19 -267 4z"
       id="path136"
       style="fill:#663399" />
  </g>
</svg>
