<?xml version="1.0" encoding="UTF-8" standalone="no"?>
<svg
   xmlns:dc="http://purl.org/dc/elements/1.1/"
   xmlns:cc="http://creativecommons.org/ns#"
   xmlns:rdf="http://www.w3.org/1999/02/22-rdf-syntax-ns#"
   xmlns:svg="http://www.w3.org/2000/svg"
   xmlns="http://www.w3.org/2000/svg"
   xmlns:sodipodi="http://sodipodi.sourceforge.net/DTD/sodipodi-0.dtd"
   xmlns:inkscape="http://www.inkscape.org/namespaces/inkscape"
   version="1.0"
   width="850.000000pt"
   height="850.000000pt"
   viewBox="0 0 850.000000 850.000000"
   preserveAspectRatio="xMidYMid meet"
   id="svg112"
   sodipodi:docname="65 #17805.svg"
   inkscape:version="0.92.2 5c3e80d, 2017-08-06">
  <defs
     id="defs116" />
  <sodipodi:namedview
     pagecolor="#ffffff"
     bordercolor="#666666"
     borderopacity="1"
     objecttolerance="10"
     gridtolerance="10"
     guidetolerance="10"
     inkscape:pageopacity="0"
     inkscape:pageshadow="2"
     inkscape:window-width="1920"
     inkscape:window-height="978"
     id="namedview114"
     showgrid="false"
     inkscape:zoom="0.58897835"
     inkscape:cx="578.05835"
     inkscape:cy="598.45331"
     inkscape:window-x="0"
     inkscape:window-y="1"
     inkscape:window-maximized="1"
     inkscape:current-layer="svg112" />
  <metadata
     id="metadata2">
Created by potrace 1.14, written by Peter Selinger 2001-2017
<rdf:RDF>
  <cc:Work
     rdf:about="">
    <dc:format>image/svg+xml</dc:format>
    <dc:type
       rdf:resource="http://purl.org/dc/dcmitype/StillImage" />
  </cc:Work>
</rdf:RDF>
</metadata>
  <g
     transform="translate(0.000000,850.000000) scale(0.100000,-0.100000)"
     fill="#000000"
     stroke="none"
     id="g110">
    <path
       d="M0 4250 l0 -4250 1973 0 1973 0 -4 198 c-5 215 -10 240 -62 267 -38 20 -80 20 -80 0 0 -27 -41 -32 -200 -23 -129 7 -159 11 -181 28 -23 16 -32 17 -65 8 -61 -16 -189 -5 -273 26 -97 34 -121 50 -121 81 0 14 27 132 61 262 67 261 68 279 25 376 -37 85 -62 89 -169 29 -90 -51 -193 -83 -270 -83 -60 0 -79 5 -144 36 -86 43 -85 48 11 100 31 17 56 33 56 36 0 3 -21 12 -47 20 -27 8 -47 19 -45 24 1 6 45 27 98 48 154 61 219 111 298 230 99 149 236 449 319 697 55 164 157 488 157 500 0 6 -13 29 -29 49 -64 81 -76 118 -76 226 0 84 5 114 29 185 38 113 302 634 343 677 28 30 30 38 22 66 -14 48 -11 57 14 57 35 0 65 26 92 80 35 70 81 111 166 151 219 102 207 94 179 109 -15 9 -73 17 -145 21 -66 3 -128 9 -137 13 -13 6 -18 4 -18 -8 0 -12 -10 -16 -40 -16 -55 0 -106 28 -163 89 l-48 51 -67 -68 c-50 -51 -81 -74 -122 -89 -64 -24 -77 -20 -35 10 53 39 114 98 121 119 8 27 -38 75 -85 88 -20 5 -67 10 -106 10 l-69 0 21 -21 c15 -16 38 -22 87 -26 36 -3 66 -9 66 -12 0 -14 -97 -41 -146 -41 -83 0 -139 25 -215 97 -39 37 -77 84 -90 111 -12 26 -23 48 -25 50 -1 2 -30 -4 -63 -14 -34 -9 -64 -15 -66 -12 -3 3 10 16 30 29 19 13 35 26 35 29 -1 3 -30 25 -65 49 -71 47 -145 136 -180 216 -12 28 -27 61 -33 75 -10 23 -11 21 -11 -20 0 -25 4 -70 8 -100 5 -30 6 -61 4 -67 -9 -23 -32 -14 -39 15 -4 15 -24 79 -45 142 -21 63 -43 156 -50 205 -11 87 -7 260 7 300 5 15 4 17 -5 9 -30 -28 -63 -157 -70 -278 l-7 -121 -26 55 c-55 120 -61 237 -17 370 38 117 90 204 244 410 93 125 131 204 156 325 25 121 24 166 -5 223 -30 60 -56 146 -56 188 0 25 -14 49 -63 107 -76 92 -120 165 -149 243 -45 126 -29 399 26 436 20 14 261 8 357 -8 118 -20 319 -86 380 -124 57 -37 92 -39 107 -5 8 18 22 26 50 31 l39 6 6 77 c9 104 39 206 97 329 82 171 148 253 334 410 14 12 33 22 42 22 24 0 185 -168 223 -233 53 -90 82 -181 88 -279 8 -119 12 -122 134 -107 232 28 513 -28 719 -146 227 -129 458 -360 590 -591 96 -168 160 -354 160 -468 0 -241 68 -398 269 -626 162 -182 219 -293 206 -393 l-7 -49 -18 40 c-22 48 -91 143 -100 137 -4 -2 -1 -35 6 -72 21 -106 18 -122 -39 -239 -30 -60 -57 -129 -61 -153 -11 -70 -64 -157 -149 -248 -91 -95 -164 -137 -270 -155 -47 -8 -73 -18 -88 -34 -12 -13 -20 -27 -16 -30 3 -4 54 -15 112 -25 121 -22 171 -44 212 -92 15 -19 41 -37 56 -41 20 -5 33 -17 44 -44 16 -39 41 -72 54 -72 4 0 13 25 20 55 10 44 16 55 28 49 9 -3 33 -8 54 -11 20 -3 37 -9 37 -14 0 -4 19 -17 43 -27 58 -26 67 -41 78 -123 8 -68 23 -106 85 -219 28 -51 30 -86 9 -137 -17 -39 -240 -394 -373 -593 -177 -263 -341 -465 -456 -562 -154 -129 -176 -143 -226 -143 -59 0 -92 22 -215 145 -75 74 -96 90 -125 92 -29 3 -35 0 -38 -19 -7 -45 21 -104 114 -248 263 -405 493 -865 803 -1606 61 -147 111 -279 111 -293 0 -53 -156 -184 -273 -228 -63 -24 -171 -24 -245 1 -81 27 -152 37 -152 21 0 -22 -49 -79 -83 -97 -76 -39 -165 -33 -225 15 -62 49 -87 62 -121 62 -79 0 -137 -76 -148 -194 -3 -35 -2 -138 2 -229 l7 -167 1929 0 1929 0 0 4250 0 4250 -4250 0 -4250 0 0 -4250z"
       id="path4"
       style="fill:none" />
    <path
       d="M3764 8342 c-31 -25 -183 -199 -231 -262 -97 -129 -164 -319 -166 -475 -1 -82 2 -96 32 -162 l33 -72 38 47 c95 119 170 170 170 116 0 -23 -63 -131 -68 -116 -2 7 8 33 22 58 30 54 30 54 13 54 -15 0 -120 -105 -136 -137 -17 -33 -13 -62 14 -109 31 -52 127 -118 193 -133 72 -15 428 -34 502 -26 90 10 168 41 213 85 42 42 43 52 22 134 -19 71 -38 113 -82 183 -36 59 -189 233 -204 233 -5 0 -15 -15 -23 -32 -12 -30 -13 -26 -8 57 5 106 -12 183 -64 292 -39 82 -132 204 -191 251 -47 37 -51 38 -79 14z"
       id="path6"
       style="fill:#4169e1" />
    <path
       d="M4257 7744 c-56 -17 -59 -8 35 -115 l58 -67 173 -4 c197 -6 216 -11 407 -106 63 -31 129 -63 146 -70 58 -24 207 -157 244 -219 19 -32 60 -98 92 -146 32 -49 65 -114 74 -145 9 -31 23 -76 31 -99 29 -83 -15 -85 -97 -5 -46 46 -70 81 -110 166 -44 92 -63 120 -128 185 -80 80 -269 219 -359 265 -72 36 -157 54 -292 62 -101 6 -114 5 -108 -8 3 -9 11 -52 17 -96 14 -95 3 -125 -62 -172 -58 -43 -122 -58 -278 -69 -227 -16 -367 4 -547 80 -32 13 -34 12 -77 -30 -39 -38 -49 -43 -80 -39 -38 4 -46 -4 -46 -49 0 -87 -83 -385 -146 -522 -42 -92 -107 -179 -138 -187 -32 -8 -94 21 -207 95 -68 45 -95 58 -105 50 -20 -16 -72 -149 -94 -241 -27 -106 -36 -298 -21 -398 17 -108 70 -257 139 -395 140 -276 155 -431 56 -561 -38 -49 -31 -51 34 -10 52 32 90 83 108 142 29 96 15 203 -60 451 -68 228 -79 302 -73 468 3 83 13 165 22 200 18 66 41 112 30 60 -4 -16 -14 -61 -22 -100 -18 -85 -20 -294 -4 -385 7 -36 34 -138 61 -227 56 -184 80 -292 80 -355 0 -56 -25 -153 -50 -194 -27 -42 -25 -62 9 -116 33 -52 78 -89 142 -117 46 -21 159 -39 159 -27 0 4 -22 45 -50 92 -63 107 -100 180 -100 196 1 7 20 -24 43 -70 53 -105 123 -192 190 -237 l52 -35 3 38 c4 54 -25 122 -106 244 -38 58 -86 145 -106 194 -134 320 -163 715 -75 1032 37 135 37 134 47 128 5 -3 0 -31 -10 -62 -31 -90 -57 -231 -64 -339 -8 -113 5 -339 16 -290 10 43 16 20 34 -130 27 -230 88 -415 175 -529 46 -62 67 -102 92 -174 33 -95 22 -168 -35 -231 -20 -22 -20 -23 -1 -13 94 49 138 225 101 403 -8 36 -28 104 -44 150 -58 163 -67 226 -67 439 1 159 5 217 23 315 29 153 121 587 127 600 3 6 3 -21 1 -60 -3 -38 -25 -157 -51 -262 -25 -106 -48 -223 -51 -260 l-6 -68 69 70 c115 118 200 267 247 431 38 133 48 213 49 382 0 83 1 152 2 152 1 0 12 -30 25 -67 31 -95 112 -249 169 -325 103 -136 239 -236 394 -289 75 -26 255 -64 264 -56 2 2 -27 38 -65 80 -122 137 -208 305 -282 550 -22 72 -38 132 -37 133 1 2 47 -84 102 -189 55 -106 126 -231 158 -279 57 -86 200 -248 210 -238 3 3 -15 41 -40 85 -25 44 -78 139 -119 211 -71 125 -128 256 -122 276 2 5 18 -27 36 -71 61 -149 166 -290 294 -395 101 -83 206 -144 358 -206 69 -29 150 -69 180 -89 l55 -38 27 -99 c38 -139 52 -241 45 -353 -5 -95 5 -99 18 -7 7 44 25 65 25 28 0 -115 -89 -358 -179 -492 -43 -63 -39 -45 14 60 25 50 57 136 72 193 24 90 27 121 28 267 0 139 -3 173 -19 214 -18 48 -20 49 -29 25 -10 -22 -11 -154 -4 -444 3 -119 -14 -151 -148 -290 -95 -97 -105 -112 -104 -144 0 -44 14 -129 21 -137 15 -15 54 10 69 44 l17 37 7 -33 c7 -28 12 -33 34 -30 24 3 27 8 32 58 8 74 30 139 96 278 151 320 228 724 203 1061 -9 111 -31 242 -65 381 -5 20 -4 22 4 9 19 -29 61 -211 77 -333 28 -210 5 -500 -57 -726 -68 -246 -102 -340 -160 -440 -48 -82 -79 -171 -79 -227 l0 -44 63 43 c123 83 198 182 243 322 16 50 22 59 17 31 -20 -138 -108 -271 -239 -361 -55 -38 -66 -54 -38 -54 38 0 91 40 185 138 242 256 262 352 169 817 -39 196 -50 269 -49 340 2 143 15 156 21 20 5 -127 3 -117 95 -345 l38 -95 0 -160 c0 -155 -1 -163 -33 -254 -41 -119 -94 -208 -172 -293 l-62 -68 32 0 c45 0 181 82 232 139 56 64 97 150 104 217 3 30 9 67 15 80 5 14 7 64 4 112 l-5 87 26 -79 c25 -76 26 -78 45 -60 35 32 79 134 79 184 0 51 -33 156 -74 238 -14 28 -23 52 -19 51 5 0 50 -48 101 -105 94 -107 108 -111 77 -24 -25 72 -84 158 -171 251 -88 95 -138 162 -197 269 -56 102 -75 174 -92 343 -17 170 -34 234 -100 374 -78 166 -175 300 -317 440 -187 185 -433 332 -643 384 -111 27 -313 35 -378 13z m631 -1131 c34 -51 95 -132 136 -180 132 -158 475 -481 484 -455 6 19 -55 237 -97 344 -71 180 -195 382 -352 573 -22 28 -7 14 35 -30 206 -216 367 -528 421 -819 23 -121 20 -124 -45 -72 -30 24 -58 40 -61 35 -7 -13 -588 576 -646 655 -46 63 -67 96 -59 96 2 0 56 -63 121 -141 64 -77 119 -138 122 -136 2 3 -27 54 -66 113 -68 102 -162 281 -176 334 -3 14 22 -31 57 -100 35 -69 91 -166 126 -217z"
       id="path8"
       style="fill:#8b0000" />
    <path
       d="M2424 7640 c-47 -15 -59 -54 -59 -195 0 -98 4 -134 23 -195 30 -95 78 -183 139 -250 l48 -53 17 69 17 69 -5 -100 c-9 -180 24 -274 138 -392 124 -128 280 -235 318 -217 35 17 100 109 136 194 66 158 146 519 124 560 -18 33 -91 89 -138 104 -65 23 -157 20 -212 -5 l-45 -21 39 -14 c53 -19 56 -24 15 -24 -20 0 -44 6 -55 14 -19 15 -19 15 1 34 29 28 99 52 171 59 l62 6 -4 96 c-3 77 -7 98 -21 109 -64 48 -246 116 -371 137 -109 19 -298 27 -338 15z"
       id="path10"
       style="fill:#4169e1" />
    <path
       d="M4390 7525 c0 -23 31 -34 131 -45 252 -28 292 -41 445 -142 60 -40 121 -79 137 -88 50 -28 116 -85 112 -97 -4 -12 25 -43 41 -43 5 0 41 -56 79 -126 75 -135 100 -168 110 -141 7 18 -22 79 -75 157 -20 30 -52 82 -71 115 -35 63 -129 165 -152 165 -7 0 -23 14 -36 30 -12 17 -26 28 -32 25 -15 -10 -49 5 -49 21 0 8 -8 14 -19 14 -10 0 -24 7 -31 15 -7 8 -17 15 -22 15 -6 0 -50 23 -100 50 -49 28 -92 48 -97 46 -4 -3 -25 3 -46 14 -30 15 -42 17 -52 8 -10 -8 -17 -8 -21 -1 -12 18 -50 24 -71 11 -15 -9 -26 -9 -43 -1 -35 17 -138 15 -138 -2z"
       id="path12"
       style="fill:#a52a2a" />
    <path
       d="M3265 7504 c-15 -15 -17 -32 -13 -113 6 -108 27 -171 64 -196 33 -21 115 -31 142 -16 34 18 27 54 -27 144 -26 45 -61 107 -77 137 -32 60 -59 74 -89 44z"
       id="path14"
       style="fill:#0000ff" />
    <path
       d="M3192 7435 c-25 -55 -8 -147 34 -186 l27 -24 -6 25 c-3 14 -11 63 -18 110 -14 97 -21 111 -37 75z"
       id="path16"
       style="fill:#0000ff" />
    <path
       d="M3821 6492 c-2 -296 -102 -505 -340 -707 l-89 -76 -6 -137 c-10 -199 3 -302 58 -466 25 -75 54 -148 63 -162 35 -54 339 -180 545 -226 139 -31 454 -33 588 -4 149 32 284 87 390 159 101 69 254 235 285 311 16 38 19 137 8 274 l-6 82 -35 0 c-31 0 -34 -2 -28 -25 16 -65 17 -117 2 -198 -20 -106 -42 -163 -78 -205 -26 -31 -29 -32 -106 -32 -104 0 -156 26 -191 93 -72 141 -7 471 109 552 38 26 52 30 111 30 60 0 72 -4 113 -32 26 -18 53 -33 61 -33 8 0 15 -4 15 -8 0 -20 -25 -29 -68 -25 l-47 4 33 -30 c35 -34 81 -41 101 -17 16 19 53 214 45 238 -8 27 -137 109 -215 137 -138 50 -287 136 -399 230 l-55 46 29 -50 c69 -119 141 -195 186 -195 13 0 19 -4 14 -11 -12 -21 -74 -1 -138 45 -160 114 -275 251 -410 489 -15 26 -29 47 -31 47 -9 0 45 -132 85 -208 42 -80 123 -195 200 -284 l45 -51 -80 6 c-99 8 -228 40 -313 78 -144 65 -287 199 -380 356 -28 49 -56 95 -61 103 -7 10 -10 -22 -10 -98z m327 -535 c53 -18 66 -27 77 -54 14 -32 14 -32 -18 -38 -22 -4 -62 4 -127 26 -85 28 -104 31 -178 26 -114 -7 -210 -53 -304 -148 -38 -37 -68 -74 -68 -82 0 -22 82 -51 122 -43 43 9 72 35 57 53 -9 10 -7 13 7 13 11 0 55 12 99 26 105 35 219 38 285 8 51 -23 110 -70 110 -87 0 -6 -12 1 -27 16 -51 48 -119 71 -211 70 -47 -1 -89 -6 -95 -12 -8 -8 -1 -11 27 -11 52 0 149 -26 207 -56 128 -64 187 -195 177 -391 -5 -100 -26 -157 -79 -218 -49 -56 -99 -73 -251 -90 -73 -7 -142 -17 -153 -21 -16 -6 -18 -5 -7 7 21 22 14 27 -48 34 -33 4 -63 11 -66 16 -3 5 2 9 10 9 28 0 17 15 -25 32 -22 10 -38 22 -35 27 4 5 -7 31 -23 57 -47 73 -63 133 -59 219 l3 75 -35 1 -35 0 40 15 c41 15 65 37 65 61 0 9 -16 13 -54 13 -30 0 -58 5 -61 10 -4 6 17 10 56 10 58 0 64 2 95 36 19 19 34 39 34 43 0 5 -38 18 -85 31 -47 13 -85 25 -85 27 0 13 65 94 107 134 162 154 380 216 551 156z m1005 -31 c45 -16 103 -59 118 -87 7 -14 -6 -7 -41 20 -58 46 -109 60 -154 41 -52 -21 -96 -25 -96 -7 0 43 95 60 173 33z m-553 -1008 c-32 -14 -177 -14 -210 0 -19 8 4 11 105 11 103 0 125 -3 105 -11z m-54 -103 c-26 -19 -80 -19 -96 0 -11 13 -4 15 51 15 58 -1 62 -2 45 -15z"
       id="path18"
       style="fill:#ffdab9" />
    <path
       d="M4122 5598 c105 -128 121 -261 51 -403 -52 -107 -148 -166 -294 -181 -70 -7 -73 -8 -44 -19 31 -12 158 -5 199 11 14 5 17 4 12 -4 -22 -36 113 18 151 59 69 76 94 255 55 386 -24 76 -51 119 -107 163 -54 43 -63 37 -23 -12z"
       id="path20"
       style="fill:#6495ed" />
    <path
       d="M4114 5540 c3 -14 11 -63 17 -110 7 -47 15 -89 20 -94 30 -33 -7 -96 -57 -96 -12 0 -27 -7 -34 -15 -27 -32 -74 -58 -119 -66 -46 -9 -191 -77 -191 -90 0 -15 65 -32 118 -32 135 2 274 100 307 217 28 96 3 248 -47 292 -21 19 -21 19 -14 -6z"
       id="path22"
       style="fill:#7b68ee" />
    <path
       d="M3747 5391 c-4 -18 15 -42 66 -80 21 -16 40 -4 63 41 12 23 13 33 3 44 -13 16 -55 19 -64 4 -4 -7 -12 -7 -25 0 -27 15 -37 12 -43 -9z"
       id="path24"
       style="fill:#add8e6" />
    <path
       d="M4047 5353 c-25 -24 13 -93 51 -93 42 1 47 16 19 59 -25 38 -53 51 -70 34z"
       id="path26"
       style="fill:#add8e6" />
    <path
       d="M3670 5328 c-36 -20 -52 -56 -46 -110 9 -90 53 -136 114 -122 52 13 82 35 103 77 12 23 28 50 37 60 14 16 13 17 -13 17 -23 0 -26 3 -17 12 16 16 15 29 -2 22 -8 -3 -33 6 -55 21 -52 32 -89 39 -121 23z"
       id="path28"
       style="fill:#6495ed" />
    <path
       d="M2684 6553 c-60 -252 -80 -298 -213 -473 -109 -143 -189 -290 -216 -395 -8 -32 -15 -94 -15 -137 0 -78 16 -178 28 -178 4 0 7 33 8 73 1 93 23 165 90 300 56 111 77 135 49 58 -61 -175 -56 -449 13 -630 6 -18 11 25 15 143 3 93 8 170 11 173 3 3 12 0 20 -6 11 -10 15 -34 14 -99 -1 -57 5 -108 16 -147 22 -73 68 -165 74 -147 2 7 -1 55 -7 107 -15 130 -12 179 5 70 24 -152 92 -263 195 -315 47 -24 64 -21 80 14 11 23 7 29 -48 80 -32 30 -71 77 -86 104 -32 59 -62 171 -71 262 -8 84 -2 69 24 -60 27 -135 66 -216 138 -287 l56 -55 9 28 c12 43 1 161 -23 228 -11 33 -49 117 -85 188 -134 264 -161 365 -152 583 6 155 25 242 82 385 37 93 43 128 23 148 -18 18 -27 15 -34 -15z"
       id="path30"
       style="fill:#a52a2a" />
    <path
       d="M3791 6535 c-3 -144 -61 -350 -142 -505 -43 -83 -45 -91 -19 -60 44 51 127 224 145 303 21 91 34 243 25 276 -7 23 -8 22 -9 -14z"
       id="path32"
       style="fill:#a52a2a" />
    <path
       d="M5715 5735 c13 -106 58 -402 63 -415 8 -22 21 56 21 130 1 88 -22 190 -59 264 -30 61 -30 61 -25 21z"
       id="path34"
       style="fill:#a52a2a" />
    <path
       d="M5120 5625 c0 -3 12 -23 26 -44 52 -79 68 -193 40 -296 -29 -111 -67 -150 -154 -161 -49 -6 -53 -8 -32 -16 28 -10 102 5 138 29 23 14 24 14 17 -7 -11 -35 12 -15 35 30 43 84 66 286 41 353 -16 42 -111 138 -111 112z"
       id="path36"
       style="fill:#6495ed" />
    <path
       d="M5003 5483 c-32 -6 -29 -30 7 -48 16 -8 31 -15 34 -15 3 0 26 57 26 66 0 5 -37 3 -67 -3z"
       id="path38"
       style="fill:#add8e6" />
    <path
       d="M4910 5420 c-17 -17 -20 -33 -20 -104 0 -97 11 -116 66 -116 41 0 84 37 84 73 0 13 7 32 15 43 19 25 19 34 -1 34 -11 0 -15 6 -11 20 4 16 -4 26 -37 45 -52 30 -70 31 -96 5z"
       id="path40"
       style="fill:#6495ed" />
    <path
       d="M5120 5415 c-12 -15 -7 -65 8 -65 4 0 13 9 20 20 10 17 10 24 -1 41 -13 17 -16 18 -27 4z"
       id="path42"
       style="fill:#add8e6" />
    <path
       d="M5100 5289 c-76 -85 -95 -98 -157 -108 l-48 -7 32 -17 c18 -9 54 -17 81 -17 63 0 110 30 139 90 24 51 40 130 25 130 -5 0 -37 -32 -72 -71z"
       id="path44"
       style="fill:#7b68ee" />
    <path
       d="M2893 4883 c-40 -16 38 -156 108 -193 13 -7 30 -21 36 -31 18 -24 93 -51 133 -47 l33 3 -49 32 c-72 46 -166 134 -205 192 -19 28 -36 50 -39 50 -3 0 -11 -3 -17 -6z"
       id="path46"
       style="fill:#a52a2a" />
    <path
       d="M3510 4761 l0 -129 33 -48 c33 -49 78 -79 137 -90 l35 -7 -56 61 c-68 73 -89 127 -89 229 0 60 -4 77 -20 93 -11 11 -24 20 -30 20 -6 0 -10 -50 -10 -129z"
       id="path48"
       style="fill:#a52a2a" />
    <path
       d="M5019 4836 c-20 -18 -31 -45 -44 -101 -11 -52 -26 -88 -49 -118 -18 -23 -35 -53 -38 -65 -6 -21 -3 -22 46 -22 58 0 96 20 96 51 0 11 14 45 30 76 17 31 30 70 30 87 0 26 -33 116 -42 116 -2 0 -15 -11 -29 -24z"
       id="path50"
       style="fill:#a52a2a" />
    <path
       d="M3599 4818 c-17 -31 -14 -110 5 -151 47 -97 147 -167 242 -167 29 0 55 4 58 9 3 4 -6 19 -21 32 -36 34 -101 135 -115 181 -14 46 -27 58 -100 91 l-58 26 -11 -21z"
       id="path52"
       style="fill:#8b0000" />
    <path
       d="M4880 4765 c-69 -37 -216 -82 -313 -96 -82 -11 -86 -13 -92 -40 -4 -16 -1 -38 6 -51 7 -13 12 -28 11 -34 -3 -14 53 -62 86 -75 32 -12 49 -6 96 36 22 19 50 35 62 35 42 0 135 42 169 76 38 38 58 96 49 143 -8 37 -15 38 -74 6z"
       id="path54"
       style="fill:none" />
    <path
       d="M3794 4728 c18 -91 122 -212 203 -236 98 -29 138 -8 157 86 17 81 11 89 -84 102 -41 6 -119 26 -173 45 -54 19 -101 35 -104 35 -3 0 -3 -15 1 -32z"
       id="path56"
       style="fill:#8b0000" />
    <path
       d="M5240 4706 c-115 -24 -180 -64 -166 -102 7 -19 22 -17 111 18 53 20 77 23 200 22 144 -1 145 -1 337 -63 19 -7 32 -5 45 5 17 13 16 16 -22 48 -78 68 -345 105 -505 72z"
       id="path58"
       style="fill:#778899" />
    <path
       d="M5237 4614 c-66 -16 -109 -40 -86 -48 40 -15 215 -36 297 -36 98 0 231 16 245 30 11 10 -82 45 -158 59 -80 15 -227 12 -298 -5z"
       id="path60"
       style="fill:#ff8c00" />
    <path
       d="M4183 4559 c-38 -67 -79 -106 -163 -157 -77 -47 -80 -55 -50 -173 31 -123 39 -147 55 -153 30 -11 622 38 636 53 7 7 -6 219 -15 247 -3 11 -34 33 -69 49 -48 23 -69 40 -92 77 -38 59 -119 100 -211 106 l-61 4 -30 -53z"
       id="path62"
       style="fill:#ffdab9" />
    <path
       d="M5717 4545 c-104 -39 -331 -43 -552 -11 -49 7 -91 13 -92 12 -1 0 16 -53 38 -116 45 -131 65 -156 154 -189 81 -30 184 -37 269 -17 82 20 114 41 154 103 30 46 82 185 82 217 0 19 -3 19 -53 1z m6 -39 c17 -13 16 -15 -11 -35 -26 -18 -31 -19 -42 -6 -10 13 -9 19 5 35 21 23 24 24 48 6z m-549 -11 c11 -8 18 -16 15 -18 -2 -1 -12 -9 -22 -16 -15 -12 -20 -11 -37 4 -15 14 -17 21 -9 32 14 17 29 16 53 -2z m456 -26 c0 -13 -31 -39 -46 -39 -23 0 -28 28 -9 56 16 25 17 25 36 8 10 -9 19 -21 19 -25z m-345 11 c20 -22 20 -22 -14 -40 -19 -10 -26 -9 -39 4 -14 14 -14 17 3 36 23 25 27 25 50 0z m118 -4 c24 -19 21 -33 -11 -50 -50 -26 -86 16 -40 48 27 19 28 19 51 2z m118 -6 c26 -14 24 -26 -7 -46 -23 -16 -26 -16 -41 -1 -15 15 -15 18 2 37 21 23 20 23 46 10z"
       id="path64"
       style="fill:#778899" />
    <path
       d="M6050 4500 c116 -107 134 -114 109 -43 -8 24 -22 35 -62 51 -91 35 -93 35 -47 -8z"
       id="path66"
       style="fill:#778899" />
    <path
       d="M4738 4515 c-54 -20 -131 -76 -121 -86 5 -5 42 -20 82 -34 106 -36 156 -68 187 -120 23 -39 30 -45 60 -45 24 0 34 -4 34 -16 0 -9 7 -28 15 -42 8 -15 53 -108 101 -207 47 -99 111 -222 141 -272 30 -51 65 -125 77 -164 l22 -71 79 93 c43 52 144 158 224 237 80 78 139 142 131 142 -8 1 -1 8 15 17 75 39 151 152 140 209 -8 45 -41 105 -72 130 -23 18 -33 20 -67 12 -101 -22 -115 -29 -154 -73 -35 -40 -45 -45 -106 -56 -103 -17 -259 -8 -323 20 -42 19 -52 28 -51 45 1 12 -24 84 -57 159 l-59 138 -30 -8 c-36 -9 -133 -9 -191 0 -25 4 -54 1 -77 -8z"
       id="path68"
       style="fill:none" />
    <path
       d="M5790 4473 c0 -4 12 -21 28 -37 l27 -31 -31 28 c-36 32 -44 34 -44 6 0 -34 19 -60 104 -144 49 -49 94 -105 113 -141 l31 -59 -76 -61 c-214 -171 -437 -398 -566 -577 -67 -93 -138 -235 -158 -317 -13 -51 -16 -55 -51 -62 -29 -6 -180 -78 -195 -93 -2 -2 6 -21 16 -42 41 -80 174 -173 247 -173 52 1 107 34 203 125 166 157 503 615 721 979 131 219 131 220 33 416 -76 154 -77 154 -209 162 -57 3 -70 1 -61 -9 14 -18 8 -17 -67 12 -36 13 -65 21 -65 18z"
       id="path70"
       style="fill:#d2b48c" />
    <path
       d="M5736 4376 c-3 -13 -9 -32 -12 -41 -6 -16 -5 -16 24 -1 28 14 29 18 19 41 -15 31 -23 32 -31 1z"
       id="path72"
       style="fill:#778899" />
    <path
       d="M4671 4335 c1 -27 4 -77 8 -110 l7 -60 8 38 c10 45 2 138 -13 164 -8 14 -10 7 -10 -32z"
       id="path74" />
    <path
       d="M4710 4260 c0 -63 4 -111 10 -115 12 -8 129 30 156 50 19 13 18 15 -5 60 -27 51 -60 78 -120 100 l-41 14 0 -109z"
       id="path76"
       style="fill:#ffdab9" />
    <path
       d="M3914 4293 c11 -88 38 -213 48 -213 12 0 10 23 -12 144 -11 60 -20 113 -20 118 0 4 -5 8 -11 8 -8 0 -9 -18 -5 -57z"
       id="path78" />
    <path
       d="M3840 4313 c-49 -32 -92 -79 -116 -125 -27 -53 -29 -71 -11 -86 12 -10 214 -39 221 -31 2 2 -7 60 -20 129 -13 69 -23 126 -24 128 -1 8 -29 0 -50 -15z"
       id="path80"
       style="fill:#ffdab9" />
    <path
       d="M4920 4197 c-33 -30 -188 -78 -315 -97 -222 -33 -362 -43 -605 -43 -243 0 -255 1 -364 48 -18 8 -19 5 -13 -38 6 -44 4 -50 -27 -85 -40 -45 -218 -388 -280 -538 -58 -143 -90 -282 -82 -353 7 -62 39 -142 67 -167 23 -21 23 -20 0 49 -11 32 -17 57 -12 57 4 0 15 -22 25 -50 31 -85 40 -63 34 83 -3 72 -3 138 -1 145 7 17 40 15 47 -4 9 -24 7 -28 -9 -14 -9 7 -18 10 -21 7 -3 -3 -3 -55 1 -117 8 -122 25 -160 71 -160 21 0 24 4 25 43 1 23 5 56 9 72 7 26 8 23 9 -21 2 -78 29 -142 44 -101 3 9 9 7 24 -5 26 -23 31 -23 78 9 34 23 36 27 20 33 -18 6 -17 7 3 12 30 8 28 -13 -4 -51 l-26 -31 40 0 c29 0 49 7 71 25 47 40 102 121 108 160 3 19 9 35 14 35 4 0 11 9 14 20 11 35 23 22 15 -18 -6 -36 -67 -143 -89 -156 -6 -4 -16 -17 -22 -28 -22 -41 73 26 108 76 43 63 50 108 65 421 18 377 17 461 -4 513 -10 23 -14 42 -9 42 5 0 14 -12 19 -27 6 -16 22 -59 36 -96 24 -62 25 -68 8 -63 -17 6 -19 -14 -36 -369 -10 -207 -17 -377 -15 -379 7 -5 333 -57 364 -57 17 0 70 2 119 5 73 5 94 10 113 28 18 17 23 18 23 6 0 -12 14 -10 83 14 45 16 91 38 103 49 11 10 23 16 27 13 10 -10 60 34 84 74 25 41 28 90 13 207 -5 39 -14 153 -20 255 -14 217 -27 281 -77 361 -45 74 -38 87 11 20 72 -98 79 -124 87 -351 4 -113 15 -253 24 -312 20 -134 12 -171 -51 -238 l-45 -48 53 -31 c38 -21 54 -26 56 -17 2 8 12 11 27 8 30 -5 164 56 200 92 17 17 25 36 25 61 0 19 5 35 10 35 6 0 10 -11 10 -25 0 -44 16 -27 36 38 20 64 25 166 11 226 -4 19 -4 31 0 27 5 -4 15 -37 24 -74 l16 -67 17 37 c32 72 24 102 -89 341 -58 122 -121 249 -140 282 -19 33 -51 95 -72 138 -21 42 -40 77 -43 77 -3 0 -12 -6 -20 -13z m-335 -166 c-4 -7 -51 -11 -122 -11 -64 0 -113 3 -109 7 6 6 225 21 235 16 1 -1 0 -6 -4 -12z m-798 -12 c40 -7 70 -15 68 -19 -2 -4 -28 -3 -56 1 -29 5 -56 6 -61 2 -12 -7 -58 17 -58 29 0 5 8 7 18 4 9 -2 49 -10 89 -17z m341 -26 c-26 -2 -71 -2 -100 0 -29 2 -8 3 47 3 55 0 79 -1 53 -3z m-461 -41 c-20 -20 -45 -55 -56 -77 -11 -22 -20 -34 -21 -27 0 24 39 89 70 116 46 38 50 32 7 -12z m593 -164 c0 -24 3 -61 6 -83 5 -32 4 -38 -6 -28 -17 15 -27 153 -11 153 6 0 11 -18 11 -42z m830 -182 c27 -80 45 -146 42 -146 -7 0 -102 275 -102 295 0 22 14 -13 60 -149z m110 -38 c23 -92 3 -70 -38 44 -23 63 -42 119 -42 124 2 19 69 -124 80 -168z m-1305 90 c-2 -7 -36 -143 -75 -303 -86 -352 -90 -368 -96 -362 -7 7 159 677 168 677 4 0 5 -6 3 -12z m1149 -193 c1 -86 -3 -137 -11 -150 -10 -16 -12 13 -12 155 0 136 3 169 11 150 6 -14 12 -83 12 -155z m-1475 -85 c5 -24 8 -46 6 -48 -10 -10 -36 64 -45 127 -14 96 1 128 16 36 7 -38 17 -90 23 -115z m1221 40 c-8 -60 -18 -110 -23 -110 -5 0 -6 12 -3 28 2 15 10 67 17 115 6 48 14 86 16 83 3 -3 0 -55 -7 -116z m-1334 -147 c-50 -222 -54 -238 -61 -231 -3 2 15 94 40 204 57 255 55 247 61 241 3 -3 -15 -99 -40 -214z m686 -60 c21 -20 38 -42 38 -47 0 -5 -16 5 -35 24 -37 36 -42 30 -26 -28 5 -17 6 -32 2 -32 -7 0 -31 87 -31 111 0 17 14 9 52 -28z"
       id="path82"
       style="fill:#228b22" />
    <path
       d="M5936 4105 c-26 -61 -20 -74 15 -38 30 29 31 32 16 53 l-16 23 -15 -38z"
       id="path84"
       style="fill:#778899" />
    <path
       d="M4754 3046 c-11 -8 -48 -26 -83 -40 -162 -66 -359 -77 -551 -32 -191 45 -184 45 -230 -4 -53 -57 -76 -106 -59 -126 39 -47 239 -117 381 -135 158 -19 374 9 481 62 62 32 135 87 142 109 6 17 -37 156 -53 172 -4 4 -17 2 -28 -6z"
       id="path86"
       style="fill:#556b2f" />
    <path
       d="M3363 2875 c-26 -18 -44 -65 -129 -337 -107 -345 -196 -561 -325 -789 -103 -181 -188 -259 -358 -329 -45 -19 -81 -37 -81 -42 0 -4 32 -5 70 -2 39 4 70 5 70 2 0 -3 -25 -23 -56 -44 -62 -43 -57 -54 13 -30 53 18 63 19 63 7 0 -4 -43 -18 -95 -31 -52 -13 -95 -26 -95 -30 0 -4 15 -15 33 -25 33 -17 36 -17 93 2 32 12 67 24 77 28 9 4 17 3 17 -3 0 -6 -21 -18 -47 -28 -77 -28 -76 -37 3 -30 94 8 152 27 232 75 37 22 79 43 93 46 44 11 85 -18 118 -83 16 -31 38 -68 48 -81 l20 -24 7 74 c3 41 13 157 20 259 18 236 33 278 207 591 139 249 246 462 275 544 9 28 19 93 22 147 5 112 22 97 -138 123 -52 8 -104 17 -116 20 -11 2 -30 -2 -41 -10z"
       id="path88"
       style="fill:#d2b48c" />
    <path
       d="M3748 2872 c-34 -15 -38 -22 -43 -62 -13 -102 -28 -169 -56 -240 -27 -71 -147 -303 -308 -595 -39 -71 -85 -164 -102 -205 -39 -93 -71 -245 -67 -319 l3 -56 14 40 c29 87 442 1043 543 1257 56 120 81 199 62 197 -5 0 -26 -8 -46 -17z"
       id="path90"
       style="fill:none" />
    <path
       d="M4832 2828 c-7 -7 -12 -16 -12 -21 0 -5 69 -136 154 -290 216 -397 258 -484 333 -686 37 -102 107 -360 100 -367 -2 -3 -12 24 -22 58 -86 315 -213 618 -383 918 -67 119 -211 350 -217 350 -4 0 -75 -40 -84 -47 -2 -1 3 -11 11 -20 31 -37 31 -47 -1 -20 -36 30 -53 33 -69 14 -8 -9 1 -49 33 -150 23 -75 40 -139 36 -142 -4 -2 -20 37 -35 87 -49 164 -96 232 -58 85 61 -241 88 -519 72 -742 -6 -78 -15 -161 -20 -185 -9 -43 -9 -43 -5 15 29 357 7 629 -72 913 -28 102 -30 103 -106 81 -36 -10 -38 -12 -32 -40 8 -35 -2 -38 -15 -4 -6 15 -17 25 -30 25 -20 0 -20 -5 -20 -319 0 -203 -4 -322 -10 -326 -7 -4 -10 105 -10 320 l0 326 -42 -3 -43 -3 -67 -330 c-36 -181 -67 -316 -67 -298 -1 45 33 241 79 446 22 98 40 182 40 187 0 4 -27 11 -60 15 -55 6 -62 5 -80 -17 l-20 -23 9 27 c8 20 7 28 -5 32 -46 18 -50 11 -88 -139 -20 -79 -36 -161 -36 -180 0 -22 -4 -34 -10 -30 -5 3 -10 18 -10 33 0 21 50 227 76 314 4 12 -7 22 -42 37 -81 36 -84 34 -162 -109 -155 -286 -297 -671 -413 -1125 -53 -204 -57 -193 -8 20 92 394 202 699 380 1053 58 116 104 212 100 211 -52 -6 -143 -143 -290 -439 -256 -513 -461 -1027 -461 -1154 0 -49 -6 -67 -35 -114 -23 -38 -45 -97 -65 -177 -31 -122 -64 -294 -58 -301 3 -3 370 65 374 70 1 0 18 129 38 286 38 291 88 601 106 655 l10 30 -5 -35 c-2 -19 -20 -150 -40 -290 -100 -722 -96 -684 -72 -693 7 -2 79 -1 160 2 109 4 150 10 156 20 5 7 12 54 15 105 30 395 79 927 92 985 15 72 8 -35 -36 -509 -26 -289 -47 -526 -46 -527 2 -2 43 0 92 5 l89 7 2 65 c6 163 26 479 33 520 l7 45 2 -45 c0 -25 -6 -177 -14 -339 -8 -162 -12 -297 -9 -300 9 -10 469 -13 505 -4 18 5 42 21 53 37 24 31 24 39 17 619 -2 175 -1 321 3 324 3 4 6 -34 7 -83 3 -399 17 -796 28 -803 11 -7 281 -24 287 -18 2 1 -10 137 -26 302 -17 165 -29 314 -29 330 2 75 18 -36 44 -312 l28 -292 31 24 c17 13 54 28 81 32 l50 9 -3 44 c-4 65 -57 413 -98 644 -38 213 -42 285 -6 115 37 -176 142 -831 142 -885 0 -2 47 -4 105 -4 111 0 175 15 229 53 28 20 28 22 22 87 -5 52 -60 362 -81 454 -2 10 0 15 4 10 7 -7 71 -326 97 -477 10 -58 38 -87 85 -87 43 0 179 28 179 37 0 3 -11 31 -25 62 -33 76 -187 569 -182 584 2 7 37 -89 76 -213 40 -124 81 -253 92 -287 22 -68 19 -66 133 -79 48 -5 58 -4 54 7 -11 26 -149 342 -256 584 -110 249 -362 757 -496 1000 -70 126 -233 374 -246 375 -4 0 -11 -5 -18 -12z m112 -350 c95 -165 171 -330 200 -439 39 -142 18 -165 -73 -83 -68 61 -57 70 13 10 30 -26 57 -43 60 -38 8 13 -19 129 -48 207 -15 38 -72 156 -127 262 -55 106 -98 193 -95 193 2 0 34 -51 70 -112z m213 -1670 c-2 -24 -4 -5 -4 42 0 47 2 66 4 43 2 -24 2 -62 0 -85z m-1722 -50 c-4 -40 -12 -82 -16 -93 -9 -20 -4 64 8 133 10 59 15 33 8 -40z"
       id="path92"
       style="fill:#228b22" />
    <path
       d="M5740 835 c0 -41 -8 -47 -100 -73 -60 -18 -82 -20 -110 -12 -53 15 -90 12 -166 -14 -38 -13 -99 -26 -137 -30 -61 -7 -67 -10 -67 -30 0 -21 10 -24 176 -55 101 -19 188 -30 203 -26 70 17 300 156 320 193 5 10 7 23 3 29 -10 15 -51 35 -89 44 -32 7 -33 6 -33 -26z"
       id="path94"
       style="fill:#8fbc8f" />
    <path
       d="M4912 750 c-67 -48 -76 -83 -42 -149 13 -27 33 -46 63 -60 86 -42 225 -17 219 39 -11 110 -14 120 -36 120 -51 0 -95 21 -108 50 -17 39 -43 39 -96 0z"
       id="path96"
       style="fill:#8fbc8f" />
    <path
       d="M4577 703 c-19 -18 5 -192 33 -242 5 -10 16 11 34 66 26 85 35 150 22 171 -8 13 -78 17 -89 5z"
       id="path98"
       style="fill:#8fbc8f" />
    <path
       d="M4711 678 c-27 -73 -30 -69 51 -62 40 4 74 8 76 9 2 2 0 19 -3 39 l-7 36 -54 0 c-47 0 -56 -3 -63 -22z"
       id="path100"
       style="fill:#8fbc8f" />
    <path
       d="M3780 660 c-17 -17 -20 -31 -18 -82 l3 -61 75 -24 c109 -33 107 -34 112 40 8 99 -28 147 -109 147 -30 0 -49 -6 -63 -20z"
       id="path102"
       style="fill:#8fbc8f" />
    <path
       d="M4475 632 c-36 -10 -114 -16 -271 -19 l-222 -5 -6 -51 c-23 -169 -27 -376 -10 -515 l5 -42 320 0 319 0 0 115 c0 64 -5 159 -11 213 -16 145 -54 324 -68 321 -3 -1 -28 -8 -56 -17z"
       id="path104"
       style="fill:#deb887" />
    <path
       d="M3251 614 c-19 -8 -79 -20 -133 -26 -54 -6 -98 -15 -98 -19 0 -4 38 -21 86 -38 101 -37 197 -42 254 -13 48 23 53 62 12 91 -35 25 -73 26 -121 5z"
       id="path106"
       style="fill:#8fbc8f" />
    <path
       d="M3563 591 c-69 -4 -127 -11 -133 -17 -6 -6 -10 -29 -8 -50 4 -47 12 -50 194 -60 l135 -7 -7 64 c-8 77 -9 80 -37 77 -12 -1 -77 -4 -144 -7z"
       id="path108"
       style="fill:#8fbc8f" />
  </g>
</svg>
