<?xml version="1.0" standalone="no"?>
<!DOCTYPE svg PUBLIC "-//W3C//DTD SVG 20010904//EN"
 "http://www.w3.org/TR/2001/REC-SVG-20010904/DTD/svg10.dtd">
<svg version="1.0" xmlns="http://www.w3.org/2000/svg"
 width="850.000000pt" height="850.000000pt" viewBox="0 0 850.000000 850.000000"
 preserveAspectRatio="xMidYMid meet">
<metadata>
Created by potrace 1.14, written by Peter Selinger 2001-2017
</metadata>
<g transform="translate(0.000000,850.000000) scale(0.100000,-0.100000)"
fill="#000000" stroke="none">
<path d="M2688 8113 c-7 -282 -32 -364 -237 -768 -129 -253 -182 -381 -231
-555 -55 -201 -64 -431 -19 -544 12 -28 28 -69 36 -91 24 -65 109 -192 177
-263 50 -53 158 -142 171 -142 4 0 19 -9 35 -20 15 -10 64 -38 109 -61 44 -23
81 -46 81 -51 0 -4 -17 -16 -37 -24 -21 -9 -56 -25 -78 -34 -22 -10 -110 -50
-195 -88 -165 -73 -265 -124 -525 -265 -88 -48 -250 -128 -360 -177 -110 -50
-213 -97 -230 -105 -52 -26 -178 -63 -237 -70 -35 -4 -121 -1 -222 10 -214 22
-224 18 -141 -61 33 -31 98 -82 145 -113 81 -54 225 -131 246 -131 6 0 38 -11
73 -24 34 -14 74 -27 89 -30 15 -2 74 -14 132 -27 142 -30 330 -31 490 -1 63
11 138 23 165 26 94 11 408 102 523 153 28 12 52 21 52 18 0 -4 217 105 279
141 18 10 93 54 165 97 72 44 149 89 171 102 22 13 67 40 100 60 33 20 110 60
170 90 288 141 347 154 505 110 52 -14 111 -30 130 -35 105 -27 293 -147 411
-262 135 -133 217 -272 269 -459 35 -129 31 -140 -80 -210 -30 -18 -102 -79
-160 -135 -114 -109 -186 -161 -298 -217 -194 -96 -311 -222 -300 -322 8 -66
37 -114 124 -201 72 -74 94 -89 208 -144 86 -43 124 -66 118 -74 -104 -138
-97 -131 -161 -149 -122 -34 -217 -17 -397 72 -158 78 -300 110 -411 92 -158
-25 -250 -69 -342 -163 -90 -92 -130 -196 -131 -342 0 -140 44 -260 124 -334
75 -69 138 -53 242 65 65 72 130 113 182 113 43 0 78 -53 97 -149 17 -80 7
-184 -23 -231 -29 -46 -106 -122 -152 -148 -41 -25 -54 -27 -150 -27 -124 0
-192 21 -385 115 -142 69 -212 90 -320 97 -68 5 -88 2 -131 -16 -106 -46 -174
-158 -174 -285 0 -57 31 -187 59 -251 10 -22 25 -57 35 -79 45 -103 30 -177
-47 -232 l-52 -38 -105 1 c-58 1 -117 6 -132 12 -25 10 -28 8 -28 -12 0 -14
24 -45 69 -87 57 -54 80 -69 138 -88 38 -12 77 -22 86 -22 25 0 21 -19 -5 -25
-13 -3 -48 -6 -78 -7 l-55 -3 37 -23 c62 -39 130 -46 243 -25 33 6 62 10 63 8
2 -2 -26 -31 -62 -65 -36 -35 -63 -67 -60 -71 8 -14 95 -11 145 4 25 8 70 30
101 50 48 30 62 46 90 104 l33 68 3 220 c2 134 8 225 14 232 19 24 99 15 166
-18 108 -53 190 -140 382 -408 50 -71 109 -145 206 -258 78 -91 311 -237 413
-258 9 -2 43 -11 76 -20 160 -42 353 -6 502 96 23 16 46 29 51 29 5 0 12 -41
16 -92 12 -153 34 -302 53 -353 12 -33 30 -57 53 -73 33 -22 42 -24 126 -18
50 3 113 10 140 17 27 6 59 12 70 13 12 2 59 16 105 31 252 86 525 232 884
475 39 26 86 55 105 65 19 10 37 21 40 25 11 15 170 91 202 96 27 5 41 1 65
-20 42 -35 152 -97 183 -102 14 -3 41 -10 60 -16 19 -7 76 -12 125 -13 118 0
182 21 230 77 42 50 48 78 43 200 -6 143 -60 253 -190 386 l-62 62 43 0 c23 0
51 5 62 10 30 17 21 80 -13 86 -20 3 -152 56 -162 65 -5 4 14 22 43 40 67 42
69 66 4 67 -41 1 -75 15 -62 25 2 2 60 49 129 103 317 251 374 314 633 704
116 174 134 208 169 313 28 81 31 106 32 212 1 177 -33 260 -139 341 -43 34
-53 37 -116 38 -38 0 -69 2 -69 4 0 2 25 14 55 28 41 17 73 24 123 24 37 0 74
5 82 10 13 8 13 13 0 37 -36 64 -181 101 -274 70 -25 -9 -46 -12 -46 -7 0 5
20 23 45 41 52 37 60 63 18 53 -82 -20 -119 -36 -168 -74 -86 -66 -109 -99
-242 -340 -99 -179 -105 -187 -139 -200 -29 -11 -109 28 -162 79 -45 44 -126
162 -167 242 -95 190 -265 380 -410 458 -22 12 -47 25 -55 31 -8 5 -49 23 -90
40 -129 52 -120 43 -156 162 -39 131 -96 239 -281 533 -83 131 -333 373 -544
526 -57 41 -422 229 -445 229 -8 0 -47 11 -88 25 -40 14 -91 27 -112 31 -22 3
-68 14 -104 24 -36 10 -83 22 -105 26 -22 4 -76 22 -120 40 -44 19 -85 34 -91
34 -20 0 -162 59 -254 105 -244 123 -430 256 -605 434 -95 97 -250 299 -280
365 -8 17 -21 42 -29 56 -64 103 -126 299 -133 415 l-5 90 38 55 c40 58 121
223 135 274 64 234 61 211 56 376 -4 139 -7 163 -32 230 -44 120 -136 250
-176 250 -15 0 -18 -19 -21 -187z m109 18 c3 -14 -2 -44 -12 -70 -10 -25 -26
-70 -36 -98 -41 -120 -45 -88 -22 187 l6 74 29 -34 c16 -19 32 -46 35 -59z
m53 -149 c0 -31 -48 -141 -108 -245 -40 -70 -146 -211 -149 -200 -2 5 17 56
42 114 26 57 53 122 61 143 8 22 19 45 24 51 5 6 16 29 24 51 8 21 29 71 47
109 l32 70 13 -30 c7 -16 13 -45 14 -63z m18 -233 c-4 -121 -6 -129 -34 -166
-34 -47 -454 -480 -454 -469 0 14 102 210 119 231 10 11 35 45 56 75 21 30 70
96 109 145 76 96 146 204 146 227 0 7 12 38 27 68 33 70 37 56 31 -111z m-48
-291 c-36 -118 -128 -269 -323 -529 -149 -199 -217 -306 -247 -388 -37 -100
-39 -102 -39 -24 -1 88 29 247 70 371 l31 94 261 279 c143 154 262 277 265
275 2 -3 -6 -38 -18 -78z m-145 -572 c44 -189 100 -305 237 -489 125 -169 224
-267 458 -451 69 -54 238 -160 326 -204 90 -45 229 -102 249 -102 20 0 149
-60 142 -66 -19 -19 -273 39 -384 88 -24 10 -45 18 -49 18 -18 0 -205 103
-300 165 -343 225 -566 504 -682 850 -34 101 -57 264 -46 322 l8 38 7 -30 c4
-16 19 -79 34 -139z m-36 -191 c44 -136 57 -167 98 -241 86 -157 155 -249 292
-384 161 -160 312 -272 514 -380 31 -16 57 -32 57 -33 0 -8 -161 15 -205 30
-133 44 -312 168 -465 322 -107 109 -290 334 -290 358 0 5 -10 25 -23 44 -27
40 -97 230 -97 264 0 14 -9 49 -21 80 -26 69 -20 96 33 159 l41 48 18 -88 c10
-49 32 -129 48 -179z m-179 56 c0 -42 65 -232 114 -335 71 -147 199 -322 311
-425 72 -65 248 -196 317 -235 29 -16 74 -41 101 -56 l47 -27 -54 -12 c-42 -9
-65 -9 -98 -1 -53 14 -179 83 -223 121 -18 16 -59 42 -91 59 -116 61 -312 262
-396 407 -25 43 -66 129 -92 191 -38 93 -46 124 -46 175 0 66 9 86 63 144 34
36 47 35 47 -6z m-62 -411 c23 -47 48 -94 55 -105 86 -139 263 -321 397 -409
129 -85 214 -138 253 -158 37 -19 33 -20 -62 -37 -84 -14 -141 -1 -256 56
-179 90 -326 212 -439 367 -88 119 -106 167 -106 280 0 76 5 106 26 161 45
121 44 120 69 20 12 -50 40 -128 63 -175z m1247 -729 l110 -17 -245 -8 c-196
-6 -269 -12 -365 -31 -66 -13 -138 -26 -160 -29 -22 -3 -67 -13 -100 -22 -33
-9 -81 -22 -107 -30 -127 -35 -336 -132 -508 -236 -41 -25 -93 -55 -115 -67
-22 -12 -56 -31 -75 -42 -433 -257 -708 -376 -957 -413 -62 -10 -123 -14 -135
-11 -59 18 -107 47 -148 90 l-45 47 60 -6 c200 -19 235 -18 421 8 17 3 57 14
90 26 32 11 73 26 89 32 37 13 328 163 553 286 168 91 462 235 462 226 0 -2
17 4 38 15 39 20 222 90 250 96 10 2 48 13 85 25 38 12 92 25 120 31 29 5 99
17 157 28 138 26 372 26 525 2z m241 -60 c79 -12 191 -44 217 -63 14 -11 -6
-12 -115 -7 -358 18 -625 4 -788 -41 -41 -11 -88 -23 -105 -26 -34 -7 -273
-85 -320 -104 -51 -22 -187 -90 -255 -129 -218 -124 -309 -177 -340 -196 -19
-12 -60 -37 -90 -54 -30 -18 -86 -52 -125 -76 -38 -24 -96 -58 -127 -74 -31
-17 -65 -35 -75 -40 -10 -5 -84 -33 -164 -61 -193 -67 -343 -104 -392 -96 -40
7 -183 74 -174 82 3 3 20 7 38 9 97 12 351 77 398 101 14 8 32 14 40 14 36 0
387 194 676 373 156 97 386 197 630 275 201 64 266 82 312 87 252 27 346 35
453 36 69 0 145 4 170 8 25 4 50 4 56 -1 6 -4 42 -12 80 -17z m335 -30 c30 0
111 -13 181 -29 488 -114 973 -464 1229 -887 87 -144 89 -148 110 -195 11 -25
26 -56 33 -70 33 -62 104 -260 93 -260 -2 0 -28 4 -58 10 -30 5 -72 12 -93 14
-24 3 -51 16 -70 33 -17 16 -56 51 -86 79 -30 27 -106 78 -168 112 -108 59
-118 63 -210 72 -59 6 -119 6 -152 1 -30 -5 -58 -7 -62 -4 -5 2 -8 17 -8 32 0
16 -16 77 -35 137 -102 312 -276 523 -541 655 -67 33 -148 69 -180 79 l-59 18
92 1 c99 1 123 6 123 26 0 23 -114 119 -177 150 -60 29 -87 54 -39 35 13 -5
48 -9 77 -9z m-194 -65 c264 -44 266 -40 -27 -47 -218 -4 -283 -9 -365 -27
-55 -11 -113 -23 -130 -26 -58 -10 -231 -58 -300 -84 -108 -39 -412 -184 -491
-233 -40 -24 -111 -70 -159 -102 -101 -67 -401 -238 -472 -268 -26 -11 -62
-27 -78 -35 -17 -8 -41 -16 -54 -19 -12 -2 -47 -13 -77 -24 -29 -11 -64 -22
-76 -25 -13 -2 -52 -12 -88 -22 -44 -12 -101 -18 -175 -18 -115 -1 -239 19
-214 34 7 5 16 7 20 5 9 -6 193 52 274 87 81 35 220 100 285 133 115 59 157
81 180 96 14 9 66 40 115 71 50 30 151 93 225 139 74 46 167 98 205 116 72 32
211 86 232 89 6 1 42 14 79 29 37 15 79 29 93 31 14 3 50 14 79 24 46 17 289
71 377 83 81 11 460 6 542 -7z m93 -65 c0 -14 -27 -20 -163 -36 -53 -6 -209
-57 -302 -100 -77 -35 -275 -143 -285 -155 -3 -4 -30 -20 -60 -37 -30 -16
-100 -56 -154 -88 -55 -31 -118 -68 -140 -81 -80 -46 -444 -224 -458 -224 -8
0 -18 -4 -24 -10 -18 -18 -208 -84 -274 -95 -19 -3 -93 -17 -165 -30 -131 -25
-385 -40 -385 -22 0 4 4 6 9 3 4 -3 48 6 97 20 49 14 97 28 107 30 82 15 325
135 467 228 19 13 87 56 150 96 63 41 135 87 160 103 46 29 365 189 375 187 3
-1 27 10 53 24 49 26 171 72 232 87 74 17 308 59 365 64 33 3 87 10 120 16 50
9 107 15 258 28 9 0 17 -3 17 -8z m1163 -1043 c120 -51 272 -167 348 -265 52
-66 86 -171 106 -323 16 -127 64 -290 97 -332 43 -55 47 -29 12 75 -33 98 -73
263 -90 374 -8 50 -24 110 -35 132 -12 22 -21 43 -21 47 0 15 134 -7 221 -36
96 -33 235 -98 309 -145 106 -67 233 -224 328 -405 87 -165 158 -248 265 -309
31 -18 57 -36 57 -39 0 -4 -21 -26 -47 -50 -39 -35 -43 -42 -23 -36 14 3 48
24 77 45 56 42 108 116 234 334 74 129 171 245 247 297 51 35 49 30 -30 -63
-41 -48 -58 -79 -44 -79 1 0 33 20 70 44 66 44 69 44 152 44 83 0 160 -13 178
-29 6 -5 -13 -9 -45 -9 -142 0 -249 -67 -273 -172 -9 -38 7 -35 35 6 l23 34
84 -2 c74 -2 88 -6 118 -29 72 -58 114 -149 114 -248 -1 -190 -73 -426 -161
-529 -28 -32 -30 -33 -25 -10 3 14 10 70 16 125 12 101 4 186 -21 253 -18 46
-27 5 -12 -51 37 -137 -34 -402 -162 -608 -56 -89 -169 -212 -292 -317 -70
-59 -158 -134 -197 -168 -87 -75 -123 -94 -191 -101 -50 -5 -54 -4 -71 23
-115 189 -192 282 -257 315 -21 11 -75 24 -120 30 -171 21 -203 27 -234 46
l-33 20 53 76 c28 42 57 77 62 77 6 0 27 -11 47 -25 51 -35 132 -54 190 -45
58 8 154 55 267 129 108 72 181 115 298 177 51 27 93 52 93 57 0 27 -154 -35
-264 -108 -46 -30 -87 -55 -92 -55 -4 0 -21 -10 -38 -23 -17 -13 -80 -48 -140
-77 -126 -63 -196 -74 -271 -46 -58 23 -72 40 -53 68 13 20 23 21 149 22 130
1 137 3 214 36 128 55 227 130 405 305 215 211 262 243 337 229 58 -11 69 -80
38 -251 -4 -21 -2 -33 5 -33 20 0 39 65 46 157 l7 89 -32 37 c-58 65 -123 68
-199 10 -20 -15 -114 -102 -209 -194 -181 -176 -316 -277 -438 -329 -51 -21
-75 -25 -157 -25 -53 1 -100 4 -104 7 -3 4 6 32 22 63 l27 57 -22 66 c-12 37
-21 77 -21 90 0 44 -30 94 -105 174 -41 45 -75 84 -75 88 0 4 41 10 91 14 49
4 111 15 137 25 l47 19 -145 -1 c-182 0 -234 10 -362 72 -109 53 -309 159
-368 194 -19 12 -35 20 -35 17 0 -3 -25 7 -55 22 -30 15 -103 50 -162 77 -98
46 -109 54 -129 93 -29 58 -96 144 -151 194 -55 50 -134 98 -148 89 -16 -10 1
-27 68 -72 68 -45 92 -69 144 -148 51 -76 92 -159 128 -260 41 -117 69 -177
93 -203 23 -25 31 -52 15 -52 -6 0 -81 69 -167 153 -219 215 -307 284 -451
357 -145 73 -219 85 -315 49 -78 -29 -104 -83 -70 -149 14 -28 64 -74 72 -66
2 2 -8 29 -22 61 -28 65 -32 100 -11 108 10 4 25 -12 47 -51 47 -85 149 -180
241 -225 42 -21 87 -40 100 -42 12 -3 40 -12 61 -21 38 -17 40 -21 62 -118 5
-24 4 -27 -7 -19 -7 6 -62 37 -123 69 -120 63 -201 107 -261 140 -88 49 -165
116 -204 176 -35 53 -40 68 -40 120 0 54 3 61 41 103 36 39 197 158 231 170 7
2 27 10 43 17 17 6 68 26 114 42 47 17 87 37 89 45 4 11 -2 12 -24 7 -24 -5
-8 14 87 107 99 97 129 120 210 160 52 26 114 52 139 57 68 14 183 3 243 -22z
m-868 -694 c98 -14 317 -152 331 -209 6 -24 -10 -90 -29 -112 -15 -20 -34 -16
-131 31 -154 74 -247 159 -286 261 -14 37 -4 47 39 41 20 -4 54 -9 76 -12z
m920 -296 c66 -33 127 -66 135 -73 32 -26 249 -143 315 -170 39 -16 74 -32 78
-35 9 -8 40 -190 34 -196 -2 -2 -10 8 -17 24 -26 50 -51 82 -66 82 -20 0 -18
-11 14 -61 35 -55 144 -236 157 -263 6 -11 16 -21 23 -24 14 -4 17 29 3 44
-11 12 -66 183 -80 252 -6 29 -11 72 -11 95 0 36 2 39 15 27 8 -8 27 -58 44
-110 52 -169 115 -328 124 -314 7 12 -34 199 -60 271 -4 13 -3 15 5 8 11 -10
72 -169 95 -247 6 -21 17 -38 24 -38 17 0 19 -10 -32 200 -8 30 -12 56 -10 58
2 2 13 -16 25 -40 25 -50 50 -169 50 -237 0 -43 -4 -51 -46 -91 -73 -71 -157
-181 -197 -258 -47 -90 -50 -145 -11 -192 73 -86 167 -162 314 -255 61 -39
349 -205 355 -205 5 0 178 -116 289 -194 116 -82 186 -176 211 -281 46 -199
-10 -281 -198 -292 -97 -6 -222 20 -294 62 -102 60 -275 256 -528 598 -44 59
-111 150 -150 202 -38 51 -109 147 -157 212 -49 65 -100 133 -115 152 -51 63
-38 106 87 278 74 102 102 151 121 215 19 59 19 62 0 137 -22 88 -78 252 -90
264 -12 12 -22 -51 -15 -92 4 -20 23 -70 43 -111 62 -130 53 -180 -71 -372
-30 -45 -74 -117 -99 -157 -45 -76 -76 -104 -189 -174 -30 -19 -78 -48 -105
-65 -29 -19 -68 -34 -93 -36 -37 -4 -48 0 -79 27 -56 49 -320 354 -349 404
-44 75 -42 128 6 273 52 154 59 168 60 114 0 -41 1 -42 53 -62 28 -11 69 -26
90 -32 20 -6 37 -15 37 -20 0 -4 -16 -28 -36 -51 -44 -53 -57 -85 -50 -123 7
-34 33 -66 52 -66 10 0 8 9 -6 33 -11 17 -20 40 -20 49 0 9 23 45 51 80 58 71
74 99 83 145 8 37 -16 135 -49 197 -19 36 -29 42 -86 60 -41 13 -57 21 -44 24
36 7 38 21 4 26 -78 12 -119 14 -119 5 0 -5 -5 -9 -12 -9 -6 0 -9 3 -6 6 4 3
0 21 -8 39 -8 19 -14 46 -14 59 0 33 38 43 96 28 66 -18 69 -18 69 -2 0 23
-64 60 -104 60 -20 0 -51 -9 -68 -20 l-33 -20 0 73 c0 39 -3 96 -6 125 -5 37
-3 52 5 52 7 0 93 -75 193 -166 99 -91 195 -172 214 -180 22 -9 52 -12 93 -8
73 8 93 19 69 38 -16 12 -14 14 17 23 19 6 76 10 127 9 86 -1 98 -4 151 -35
32 -18 60 -31 63 -28 10 10 -41 50 -100 78 -107 51 -207 48 -267 -8 -25 -23
-28 -24 -56 -9 -52 26 -117 128 -156 243 -14 40 -22 74 -20 77 6 5 21 -2 228
-106z m-1415 -242 c255 -108 334 -124 443 -91 26 8 47 13 47 11 0 -2 -6 -19
-14 -37 -39 -94 -140 -173 -267 -210 -92 -26 -108 -50 -26 -38 61 8 72 12 154
51 35 16 79 48 102 73 35 38 114 186 159 298 14 34 53 36 97 7 17 -12 54 -32
82 -46 59 -28 93 -65 93 -100 0 -13 12 -54 28 -91 36 -91 37 -175 1 -253 -15
-30 -34 -87 -43 -127 -33 -135 8 -226 173 -385 97 -94 150 -163 135 -177 -8
-8 -82 -49 -174 -97 -56 -29 -112 -88 -144 -153 -37 -74 -33 -40 -66 -556 -11
-176 -22 -333 -25 -350 -4 -23 -18 -38 -63 -66 -85 -54 -111 -66 -203 -90
-180 -46 -418 1 -599 120 -155 102 -196 146 -347 372 -150 224 -191 279 -257
345 -76 75 -159 118 -252 131 -25 3 -47 10 -50 15 -12 19 60 79 114 94 74 22
114 10 307 -89 114 -59 163 -90 172 -108 7 -13 24 -67 39 -119 15 -52 32 -104
37 -115 6 -11 10 -25 9 -31 -5 -24 183 -120 323 -165 132 -43 277 -50 372 -18
117 39 219 136 258 248 27 79 20 152 -51 515 -18 87 -24 143 -19 172 6 42 48
158 65 179 20 25 49 85 41 85 -15 0 -70 -68 -94 -118 -34 -67 -59 -167 -59
-231 0 -59 31 -199 62 -285 50 -137 44 -273 -16 -383 -62 -112 -127 -143 -304
-146 -182 -3 -228 7 -423 93 -55 25 -105 53 -113 66 -8 12 -25 59 -38 105 -12
47 -28 94 -34 106 -7 12 -12 30 -12 41 0 24 -28 49 -120 103 -214 127 -312
166 -379 154 -94 -18 -181 -89 -201 -167 -6 -21 -14 -133 -19 -250 -9 -247
-19 -283 -99 -360 -44 -42 -122 -96 -122 -84 0 3 23 48 50 101 28 53 50 98 50
100 0 12 -25 2 -58 -24 -40 -31 -96 -55 -154 -65 -52 -9 -42 9 28 54 l56 35
-104 11 c-128 14 -171 26 -229 63 -72 45 -70 52 8 45 106 -9 201 34 259 117
22 33 27 50 27 97 -1 60 -10 95 -68 262 -73 208 -47 337 80 402 85 44 225 32
370 -30 50 -22 131 -57 180 -79 208 -91 334 -105 448 -50 155 76 250 260 218
420 -15 75 -60 171 -106 224 -39 46 -124 80 -170 69 -34 -9 -28 -15 57 -52 65
-28 82 -41 55 -41 -35 0 -121 -57 -205 -137 -86 -81 -96 -88 -124 -82 -42 8
-60 26 -96 94 -47 88 -65 172 -59 272 13 214 118 335 367 424 8 3 69 4 135 2
l120 -3 185 -77z m1336 -3 c-8 -8 -36 5 -36 17 0 7 6 7 21 0 11 -7 18 -14 15
-17z m-288 -203 c-35 -53 -48 -61 -48 -31 0 33 18 69 37 74 40 11 42 5 11 -43z
m59 -177 c24 -16 27 -16 56 0 33 20 41 18 31 -7 -4 -11 -18 -16 -49 -16 -70 0
-124 58 -109 117 6 24 8 22 26 -26 11 -30 30 -59 45 -68z m1123 -581 c47 -11
104 -23 127 -26 90 -11 167 -75 243 -200 23 -39 56 -87 73 -108 29 -37 30 -39
12 -58 -42 -46 -138 -46 -180 0 -10 11 -22 20 -27 20 -9 0 -371 242 -401 268
-9 8 -22 32 -29 53 -9 32 -8 42 5 62 18 27 15 28 177 -11z m-483 -129 c124
-163 162 -219 163 -233 0 -26 -22 -40 -64 -40 -59 0 -80 -17 -33 -25 36 -7 83
-3 122 10 17 5 30 -7 78 -77 32 -46 80 -114 108 -153 27 -38 49 -74 49 -80 0
-6 -12 -27 -26 -46 -14 -19 -29 -41 -34 -49 -13 -23 -38 5 -51 56 -6 24 -15
44 -19 44 -16 0 -18 -14 -5 -51 16 -43 9 -48 -26 -21 -13 10 -60 34 -104 53
-73 31 -89 34 -175 33 -126 0 -181 -26 -280 -130 -38 -41 -70 -80 -70 -87 0
-7 -7 -23 -16 -36 -13 -18 -18 -20 -25 -10 -12 20 -11 97 3 178 11 65 8 94 -9
78 -13 -13 -42 -215 -53 -372 -7 -88 -17 -171 -24 -185 -6 -14 -33 -36 -61
-50 -50 -25 -162 -126 -152 -136 3 -3 29 12 59 33 29 21 71 49 92 61 46 27
204 79 279 92 29 5 84 18 123 29 39 11 89 22 110 25 21 4 79 17 129 30 49 14
112 27 138 31 26 3 73 15 105 27 31 11 70 22 86 24 16 2 43 12 60 23 17 10 62
31 100 46 l70 27 63 -65 c35 -36 63 -72 63 -80 0 -16 -51 -47 -235 -141 -60
-31 -150 -82 -200 -112 -124 -78 -204 -127 -224 -139 -9 -5 -55 -34 -103 -63
-48 -30 -102 -62 -120 -72 -62 -33 -203 -102 -213 -104 -5 -1 -37 -12 -70 -25
-60 -23 -351 -81 -405 -81 -42 0 -80 20 -96 51 -59 115 -69 742 -19 1212 16
150 32 207 77 268 24 32 169 134 236 167 43 20 38 22 136 -35 32 -19 70 -16
136 11 33 13 67 23 77 21 10 -2 21 -4 24 -4 3 -1 23 -15 44 -31 26 -21 42 -27
49 -20 7 7 -2 22 -27 48 l-37 38 37 35 c37 35 92 79 99 79 2 0 29 -34 61 -77z
m1173 -254 c95 -20 54 -41 -90 -44 -63 -1 -108 -7 -134 -18 -72 -31 -74 -12
-3 25 91 46 143 55 227 37z m-80 -79 c0 -5 -5 -10 -11 -10 -5 0 -26 -11 -45
-24 -33 -22 -36 -23 -69 -8 -19 9 -35 19 -35 23 0 7 92 25 138 28 12 0 22 -3
22 -9z m32 -51 c-23 -3 -48 -11 -54 -17 -13 -13 15 -16 134 -17 64 0 75 -14
25 -32 -62 -22 -113 -16 -167 21 l-50 35 57 11 c32 6 63 13 68 14 6 2 15 1 20
-3 6 -3 -9 -8 -33 -12z m-1022 -239 c9 -5 29 -11 43 -14 52 -9 187 -126 187
-162 0 -16 -73 -53 -118 -59 -15 -2 -47 -8 -72 -15 -129 -32 -410 68 -410 146
0 34 74 82 171 109 56 15 166 13 199 -5z m380 -50 c13 -18 19 -37 15 -49 -6
-20 -78 -61 -106 -61 -19 0 -39 20 -39 39 0 15 86 101 101 101 4 0 17 -13 29
-30z m-656 -178 c108 -51 168 -66 276 -66 85 0 115 4 159 21 53 22 53 22 35 1
-22 -24 -120 -75 -160 -83 -71 -15 -197 -17 -256 -5 -114 24 -228 97 -228 146
0 12 11 36 25 53 l26 30 40 -38 c21 -22 59 -48 83 -59z m726 69 c0 -35 -157
-90 -175 -61 -9 15 5 30 36 35 13 3 47 14 74 24 63 25 65 25 65 2z m40 -49 c0
-25 -65 -61 -140 -78 -48 -12 -56 -11 -73 4 -18 16 -17 17 41 23 37 4 80 16
109 32 53 28 63 31 63 19z m-855 -132 c67 -40 147 -64 217 -65 32 0 58 -3 58
-6 0 -6 -53 -23 -104 -34 -63 -13 -202 37 -237 85 -10 14 -21 38 -25 55 l-7
30 24 -18 c13 -9 47 -31 74 -47z m-126 -44 c12 -14 62 -106 58 -106 -1 0 -23
-7 -49 -15 l-48 -14 0 74 c0 57 3 75 14 75 7 0 19 -6 25 -14z"/>
<path d="M4853 4133 c-35 -7 -27 -23 10 -23 17 0 78 -9 135 -19 145 -26 132
-1 -18 34 -65 15 -85 16 -127 8z"/>
<path d="M4920 4050 c0 -4 10 -12 23 -18 12 -7 29 -16 37 -22 76 -48 232 -131
238 -125 12 12 -78 83 -160 125 -71 37 -138 57 -138 40z"/>
<path d="M5495 3830 c-8 -13 164 -274 260 -395 40 -49 102 -118 138 -152 37
-34 67 -65 67 -68 0 -7 -103 50 -172 97 -70 46 -81 48 -42 7 39 -42 129 -102
206 -139 53 -25 220 -70 260 -70 21 0 -13 25 -62 45 -151 63 -320 227 -482
468 -26 38 -65 91 -87 117 -22 27 -46 60 -52 74 -13 27 -24 33 -34 16z"/>
<path d="M6410 3237 c0 -34 140 -197 169 -197 20 0 11 15 -67 104 -67 78 -102
110 -102 93z"/>
<path d="M7121 2514 c-34 -178 -108 -320 -232 -444 -53 -53 -203 -170 -219
-170 -5 0 -12 -5 -16 -11 -4 -7 0 -9 14 -5 11 4 30 9 41 11 40 8 146 80 206
141 74 75 176 224 206 301 14 36 24 88 27 136 5 99 -11 124 -27 41z"/>
<path d="M5470 3021 c0 -35 -4 -36 -52 -16 -14 5 -18 2 -18 -14 0 -25 -3 -26
-36 -5 -18 12 -28 14 -36 6 -8 -8 2 -17 36 -33 l46 -23 0 -123 0 -122 33 -18
c67 -36 234 -15 301 38 43 34 34 65 -39 148 -44 50 -63 80 -60 92 4 12 -5 23
-28 38 -42 25 -67 27 -67 4 0 -12 -11 -6 -40 22 l-40 39 0 -33z m15 -131 c-17
-33 -21 -165 -5 -175 6 -3 10 -10 10 -16 0 -13 -34 -11 -48 3 -15 15 -16 129
-1 181 8 30 15 37 35 37 24 0 24 -1 9 -30z m65 6 c0 -2 -7 -23 -15 -46 -20
-58 -19 -64 16 -105 38 -43 61 -44 122 -5 48 30 63 26 27 -8 -23 -21 -84 -42
-124 -42 -73 0 -109 131 -54 197 10 12 28 18 28 9z"/>
<path d="M5420 2319 c-46 -14 -105 -21 -203 -24 -76 -2 -141 -6 -144 -8 -10
-10 36 -96 60 -112 80 -52 166 -18 341 137 36 32 33 32 -54 7z m-105 -94 c-16
-13 -51 -29 -78 -36 -45 -10 -50 -10 -73 12 -13 12 -24 26 -24 30 0 7 49 12
165 17 l40 1 -30 -24z"/>
<path d="M4645 2522 c-55 -58 -151 -147 -212 -199 -119 -99 -166 -144 -215
-205 -28 -36 -25 -56 3 -22 7 9 52 46 99 82 209 162 274 219 340 295 39 45 75
97 80 116 5 19 8 36 7 36 -1 1 -47 -45 -102 -103z"/>
</g>
</svg>
