<?xml version="1.0" standalone="no"?>
<!DOCTYPE svg PUBLIC "-//W3C//DTD SVG 20010904//EN"
 "http://www.w3.org/TR/2001/REC-SVG-20010904/DTD/svg10.dtd">
<svg version="1.0" xmlns="http://www.w3.org/2000/svg"
 width="850.000000pt" height="850.000000pt" viewBox="0 0 850.000000 850.000000"
 preserveAspectRatio="xMidYMid meet">
<metadata>
Created by potrace 1.14, written by Peter Selinger 2001-2017
</metadata>
<g transform="translate(0.000000,850.000000) scale(0.100000,-0.100000)"
fill="#000000" stroke="none">
<path d="M5236 8485 c-167 -43 -378 -219 -508 -425 -67 -105 -106 -196 -172
-403 -141 -438 -201 -558 -443 -881 -220 -293 -342 -417 -698 -710 -565 -466
-720 -615 -897 -862 -144 -201 -210 -309 -247 -402 -41 -101 -53 -123 -71
-133 -8 -4 -50 -24 -93 -44 -56 -26 -99 -56 -150 -105 -70 -66 -76 -69 -171
-95 l-98 -27 -79 85 c-124 134 -451 413 -470 401 -5 -3 -9 -13 -9 -23 0 -30
105 -352 153 -468 62 -149 94 -278 107 -426 18 -227 25 -238 322 -514 43 -39
78 -77 78 -83 0 -6 -26 -54 -58 -108 -80 -132 -94 -171 -99 -277 -10 -171 36
-281 163 -385 172 -142 172 -143 195 -255 37 -181 119 -335 249 -466 36 -36
151 -132 255 -214 260 -203 363 -293 456 -396 80 -90 92 -116 69 -158 -13 -25
-81 -51 -134 -51 -24 0 -155 20 -292 45 -371 67 -520 78 -732 54 -199 -22
-478 -115 -470 -157 3 -15 27 -18 218 -22 l215 -5 -61 -42 c-81 -55 -168 -136
-204 -188 -25 -36 -27 -45 -16 -55 11 -9 33 -3 100 24 209 87 419 128 656 128
111 1 156 -4 255 -26 294 -66 478 -96 681 -111 114 -8 250 -22 302 -31 185
-32 365 -2 503 82 31 19 67 34 79 34 13 0 57 -20 99 -44 289 -166 605 -291
1141 -452 272 -82 338 -106 520 -194 149 -73 174 -81 255 -91 110 -14 274 -7
375 16 41 9 122 39 180 68 92 45 116 62 195 142 129 129 189 243 221 415 16
92 19 655 4 900 -24 380 -77 711 -156 979 -96 328 -96 332 22 211 90 -93 101
-89 54 22 -45 105 -83 161 -177 259 l-82 87 6 98 c14 245 -43 551 -157 844
-48 123 -48 124 -19 90 41 -47 194 -276 252 -375 66 -115 170 -336 206 -439
62 -177 111 -405 111 -523 1 -55 1 -57 15 -33 46 82 47 437 1 670 -89 465
-399 1063 -851 1644 -46 60 -83 112 -80 114 7 7 216 -107 315 -173 314 -209
546 -513 627 -824 21 -79 25 -121 27 -241 0 -80 -3 -187 -8 -237 -6 -65 -6
-93 2 -93 28 0 99 133 128 241 31 118 15 557 -25 675 -69 203 -173 347 -348
478 -100 75 -207 132 -403 216 -377 161 -543 296 -628 507 -26 66 -27 74 -26
258 0 181 2 195 32 308 37 138 70 221 198 494 107 228 154 363 179 508 22 126
22 325 1 422 -36 168 -168 424 -273 530 -88 88 -165 124 -386 179 -211 52
-334 63 -431 39z m237 -50 c123 -26 208 -89 258 -192 11 -24 24 -43 28 -43 21
0 17 19 -20 92 -22 44 -38 83 -35 86 10 9 138 -30 200 -61 81 -40 149 -112
225 -241 156 -264 198 -467 151 -741 -26 -153 -73 -290 -160 -473 -136 -282
-237 -552 -260 -695 -16 -95 -8 -313 13 -379 8 -27 12 -48 8 -48 -19 0 -82 66
-102 107 -21 43 -24 66 -27 215 -9 347 40 555 217 926 82 173 140 314 206 501
14 42 29 109 32 152 6 84 -10 197 -33 226 -13 16 -14 -2 -9 -137 5 -128 3
-152 -7 -136 -7 10 -26 40 -43 65 -55 84 -108 95 -253 50 -35 -10 -68 -16 -73
-13 -5 3 -9 19 -9 35 0 53 -26 98 -66 115 -49 20 -79 12 -171 -48 -85 -55
-191 -158 -300 -290 -61 -73 -79 -89 -115 -99 -57 -15 -61 -18 -43 -35 23 -23
18 -58 -16 -125 -70 -140 -129 -366 -163 -634 -9 -66 -25 -167 -36 -225 -37
-195 -54 -392 -54 -650 0 -485 66 -732 324 -1210 250 -463 537 -795 895 -1037
34 -23 152 -93 263 -157 215 -123 374 -223 458 -287 69 -53 224 -239 199 -239
-8 0 -48 30 -215 160 -213 167 -310 233 -430 295 -62 31 -113 55 -115 53 -2
-2 55 -58 127 -123 184 -167 203 -179 118 -75 -56 69 -57 75 -10 49 61 -35
164 -131 216 -204 160 -225 199 -538 94 -760 l-28 -60 5 160 c3 95 1 193 -6
240 -11 77 -58 241 -67 232 -3 -2 4 -55 16 -117 11 -63 20 -116 20 -119 0 -3
-23 37 -51 89 -74 139 -111 182 -364 419 -315 295 -524 501 -604 596 -279 327
-624 851 -792 1198 -137 286 -199 534 -215 867 -14 284 59 865 155 1235 16 61
31 134 35 164 3 30 16 75 29 100 14 25 28 71 32 101 5 39 22 79 57 139 l49 84
-43 44 c-24 25 -56 51 -72 60 -59 31 -133 -16 -178 -114 -27 -57 -30 -72 -26
-141 3 -64 10 -91 42 -158 l38 -81 -36 -76 c-20 -41 -36 -80 -36 -86 0 -6 9
-29 21 -51 27 -52 26 -118 -4 -231 -22 -83 -24 -86 -43 -72 -10 9 -47 28 -80
44 -155 74 -349 7 -414 -143 -13 -31 -38 -142 -60 -278 -24 -137 -52 -267 -73
-332 -32 -97 -33 -108 -17 -108 10 0 23 -13 30 -31 11 -25 10 -66 -4 -232 -30
-350 -64 -630 -81 -677 -18 -50 -68 -429 -85 -645 -6 -77 -13 -159 -16 -182
l-5 -43 -74 0 c-89 0 -96 7 -121 119 -23 103 -50 157 -106 214 -91 92 -244
137 -365 109 -41 -9 -42 -9 -45 17 l-3 26 -22 -35 -23 -35 0 33 0 34 -41 -52
c-44 -56 -92 -90 -126 -90 -13 0 -39 -19 -66 -50 -25 -28 -48 -47 -50 -43 -2
5 -10 26 -17 48 -32 102 -103 200 -176 246 l-34 20 15 36 c21 50 19 56 -10 28
-46 -47 -60 -23 -25 45 34 66 22 69 -20 5 -28 -41 -46 -59 -58 -57 -16 3 -181
48 -210 57 -42 14 142 337 327 575 147 190 191 233 695 684 61 55 197 168 301
251 284 228 433 392 655 722 156 231 174 269 304 650 91 266 137 375 197 468
53 81 189 245 243 293 62 55 167 100 291 126 42 8 102 5 168 -9z m248 -634
c20 -16 24 -30 29 -104 l5 -85 74 44 c90 52 144 63 195 39 72 -34 127 -149
106 -222 -13 -48 -103 -258 -119 -277 -6 -7 -29 -16 -51 -20 -22 -3 -64 -11
-92 -17 l-52 -12 39 -33 c22 -18 37 -35 34 -39 -4 -3 -28 4 -54 15 l-48 20
-33 -25 c-57 -44 -55 -88 8 -143 l29 -27 67 62 c37 34 69 57 71 52 2 -6 -15
-48 -38 -94 -83 -169 -200 -258 -445 -341 -79 -27 -144 -31 -185 -10 -56 29
-271 272 -271 306 0 21 94 300 115 341 9 16 34 38 56 49 l40 21 52 -25 c29
-14 68 -28 87 -31 31 -6 37 -3 53 24 22 37 28 38 75 6 48 -33 56 -32 37 5 -21
40 -62 64 -165 97 -47 15 -89 30 -94 34 -8 7 19 49 107 167 39 51 185 177 257
221 43 26 81 27 111 2z m-806 -236 c32 -31 31 -47 -5 -120 -16 -33 -30 -72
-30 -86 0 -35 -25 -114 -45 -145 l-17 -26 -24 34 c-57 77 -67 197 -23 282 45
89 96 110 144 61z m464 -232 c3 -2 -2 -11 -11 -19 -13 -13 -20 -14 -39 -3 -33
17 -79 56 -73 62 4 4 111 -31 123 -40z m-549 -200 c0 -17 -66 -193 -72 -193
-15 0 -19 50 -7 87 20 61 79 141 79 106z m940 -135 c16 -10 24 -10 41 0 24 15
42 6 19 -9 -20 -13 -82 -7 -88 9 -5 15 3 15 28 0z m-722 -283 c34 -38 57 -72
51 -74 -23 -7 -83 12 -105 34 -18 19 -24 35 -24 70 0 26 4 45 9 43 4 -1 36
-34 69 -73z m752 -12 c-1 -19 -98 -434 -102 -439 -3 -3 -23 5 -44 18 -30 18
-57 23 -131 26 l-93 4 -56 60 c-57 62 -90 106 -83 112 2 2 56 22 119 45 l115
41 57 -62 c31 -35 58 -60 60 -58 3 3 12 41 22 84 17 72 23 84 68 128 46 45 68
58 68 41z m-1203 -88 c90 -45 90 -44 64 -273 -38 -345 -53 -467 -57 -471 -2
-2 -10 2 -19 9 -19 16 -19 46 0 100 8 23 15 57 15 74 0 42 -20 110 -29 100 -4
-5 -15 -56 -25 -114 -9 -58 -22 -109 -27 -115 -7 -7 -36 4 -89 33 -89 48 -124
52 -180 20 l-39 -23 -26 25 c-15 14 -31 32 -35 41 -10 18 22 271 50 403 30
135 67 179 181 211 71 20 148 13 216 -20z m479 -8 c102 -28 121 -36 147 -65
39 -43 30 -142 -13 -142 -18 0 -150 29 -232 51 -47 12 -53 31 -38 120 10 58
15 70 29 66 9 -3 57 -16 107 -30z m564 -34 c0 -35 -14 -73 -23 -63 -2 3 -11
16 -20 30 -16 23 -16 25 5 47 30 32 38 29 38 -14z m-551 -193 c58 -12 107 -23
110 -26 3 -3 22 -33 41 -67 l36 -62 43 4 c52 3 61 -6 61 -71 0 -46 -1 -48 -29
-48 -41 0 -200 107 -293 198 -43 42 -78 79 -78 84 0 10 -13 11 109 -12z m59
-188 c34 -29 62 -58 62 -63 0 -6 -23 2 -50 17 -67 37 -206 166 -196 182 8 13
30 -3 184 -136z m-222 107 c3 -6 66 -55 139 -109 143 -106 177 -142 201 -214
21 -62 50 -80 115 -74 78 8 81 13 87 192 l5 156 51 0 c58 0 120 -26 154 -63
26 -27 35 -82 46 -257 l6 -95 -20 40 c-11 22 -20 46 -20 53 0 6 -7 12 -16 12
-13 0 -15 -10 -12 -57 l3 -58 -43 -23 c-23 -13 -77 -61 -119 -108 -43 -46 -83
-84 -89 -84 -17 0 -54 48 -54 69 0 32 -78 176 -121 225 -24 27 -70 67 -102 87
-73 48 -129 57 -198 35 -28 -10 -54 -15 -56 -12 -8 8 20 296 28 296 4 0 11 -5
15 -11z m474 -280 l34 -51 -23 -19 c-29 -24 -62 -24 -90 -1 l-22 17 28 52 c15
29 30 53 33 53 3 0 21 -23 40 -51z m-293 -50 c164 -79 281 -338 232 -514 -13
-46 -73 -111 -113 -121 -37 -9 -41 -2 -20 38 9 18 23 56 30 83 15 54 19 195 6
180 -5 -6 -19 -55 -31 -110 -37 -162 -66 -209 -140 -234 -36 -12 -101 -15
-101 -5 0 3 13 34 30 68 38 80 60 173 60 255 0 35 -2 62 -5 60 -2 -3 -13 -52
-25 -110 -20 -107 -63 -210 -100 -244 -11 -10 -22 -16 -24 -14 -10 9 -25 213
-32 409 -6 183 -5 209 10 239 35 67 112 74 223 20z m-947 -16 c-1 -37 -27
-115 -41 -124 -23 -14 -26 -11 -32 29 -3 20 -8 45 -12 54 -9 22 28 58 60 58
17 0 25 -5 25 -17z m203 -1 c9 -10 20 -33 23 -50 7 -36 11 -37 38 -17 24 18
75 19 97 2 21 -16 39 -51 39 -76 0 -36 -26 -38 -118 -9 -48 15 -106 32 -129
38 -42 10 -43 12 -43 51 0 22 5 49 10 60 14 24 61 25 83 1z m2 -153 c69 -18
93 -30 98 -51 3 -11 -26 -174 -64 -363 l-69 -344 0 -198 c0 -213 -1 -216 -73
-523 -20 -85 -53 -229 -72 -320 -19 -91 -53 -248 -76 -350 -29 -132 -41 -211
-42 -275 -2 -88 -3 -92 -52 -178 -47 -85 -52 -90 -120 -125 -48 -25 -96 -62
-152 -119 l-83 -83 0 38 c0 85 49 167 141 236 33 25 57 46 51 46 -5 0 -122
-58 -260 -130 -138 -71 -258 -130 -266 -130 -24 0 -29 20 -10 41 10 11 89 72
176 136 87 63 158 119 158 123 0 39 -74 2 -250 -127 -153 -111 -164 -122 -162
-170 2 -41 -12 -63 -39 -63 -31 0 -23 42 22 109 22 33 108 125 190 203 82 78
147 143 145 145 -6 6 -132 -72 -194 -120 -65 -49 -139 -131 -193 -211 -29 -43
-40 -54 -45 -42 -12 31 130 210 202 256 25 15 57 45 73 67 43 59 84 89 210
154 64 33 136 71 160 84 24 14 54 25 67 25 51 0 54 6 54 105 0 51 9 157 19
236 11 79 22 180 26 224 10 123 44 469 56 570 6 50 23 146 39 215 39 169 54
299 89 767 10 147 15 153 125 153 45 0 99 -5 121 -11z m1436 -30 c44 -19 49
-26 95 -122 38 -79 49 -114 52 -163 5 -71 -17 -151 -49 -180 -21 -19 -21 -18
-15 16 3 19 8 68 11 108 6 65 4 72 -12 72 -16 0 -18 -10 -19 -78 -1 -83 -16
-129 -57 -177 -41 -50 -86 -69 -140 -61 l-46 7 44 55 c25 30 53 71 64 92 24
47 35 116 23 137 -7 13 -14 3 -32 -47 -55 -150 -94 -198 -159 -198 -47 0 -79
23 -102 74 -24 53 -24 103 0 157 14 31 18 56 14 85 -3 27 0 51 10 71 22 41
125 135 178 162 48 23 64 22 140 -10z m-362 -214 c18 -18 8 -56 -20 -73 -28
-18 -39 -3 -39 56 0 40 2 43 23 37 12 -4 28 -13 36 -20z m625 -86 c143 -126
212 -165 489 -275 173 -69 219 -91 322 -158 155 -101 266 -223 348 -384 42
-81 96 -256 84 -269 -3 -3 -26 35 -50 84 -65 128 -155 258 -235 337 -105 104
-113 99 -23 -13 147 -185 220 -308 273 -461 31 -91 32 -101 33 -252 0 -99 -4
-161 -11 -168 -7 -7 -11 5 -12 42 -9 251 -68 444 -190 628 -91 137 -354 396
-505 499 -51 35 -286 156 -397 205 -69 31 -161 110 -188 161 -16 33 -33 95
-25 95 3 0 42 -32 87 -71z m-1480 -22 c36 -47 61 -108 90 -219 28 -110 45
-149 180 -436 53 -112 96 -207 96 -211 0 -4 -82 -11 -182 -15 -101 -3 -198 -9
-215 -12 l-33 -6 81 168 c45 93 83 183 86 200 6 36 -10 69 -101 218 -90 144
-138 243 -134 274 2 19 15 33 43 49 53 30 59 29 89 -10z m824 -78 c27 -89 45
-120 93 -154 25 -19 52 -35 58 -35 29 0 -5 -115 -69 -239 -46 -88 -41 -140 25
-245 83 -133 91 -227 33 -358 l-30 -67 -77 58 c-42 31 -97 69 -123 84 -75 43
-114 100 -224 322 -108 221 -159 354 -170 447 l-6 55 83 12 c46 7 123 21 170
32 82 19 88 23 144 79 33 33 64 59 70 57 5 -2 16 -23 23 -48z m582 2 c0 -4 28
-30 63 -56 94 -73 124 -104 172 -175 24 -36 87 -119 140 -185 190 -238 428
-620 555 -889 87 -183 169 -407 209 -571 33 -137 58 -365 40 -365 -5 0 -9 8
-9 19 0 10 -18 70 -39 132 -118 341 -271 611 -580 1026 -125 168 -152 197
-164 176 -3 -5 29 -78 70 -163 161 -333 233 -545 268 -793 14 -100 21 -366 9
-354 -5 5 -103 514 -104 540 0 4 -7 7 -15 7 -17 0 -18 14 31 -229 19 -91 32
-167 29 -169 -2 -3 -20 30 -39 71 -19 42 -55 108 -80 146 -74 114 -322 453
-364 496 -68 71 -127 187 -176 350 -58 190 -107 289 -195 391 -38 44 -77 96
-87 115 -23 44 -31 193 -12 228 13 24 172 131 196 131 6 0 12 -5 12 -11 0 -19
88 -235 130 -321 45 -90 120 -211 127 -204 2 2 -29 71 -70 152 -86 172 -143
311 -153 371 -7 44 12 143 27 143 5 0 9 -4 9 -9z m-1516 -151 c25 -40 41 -78
46 -112 4 -29 8 -43 9 -30 0 12 5 22 10 22 10 0 101 -151 101 -168 0 -13 -192
-413 -197 -409 -1 2 6 53 17 113 11 60 20 114 19 119 0 27 -28 -49 -44 -120
-24 -109 -50 -177 -80 -205 -30 -28 -30 -26 -4 70 16 59 22 124 29 300 8 205
36 480 49 480 4 0 23 -27 45 -60z m1181 -185 c-8 -110 -1 -132 82 -242 79
-104 116 -164 157 -253 37 -81 80 -213 74 -229 -1 -6 -31 11 -65 36 -53 39
-69 58 -100 121 -40 81 -71 108 -136 118 -35 6 -41 12 -94 106 -73 129 -73
144 -4 313 64 157 59 149 78 134 12 -11 13 -29 8 -104z m-4218 -467 l223 -223
11 -195 c13 -220 8 -340 -14 -374 -20 -29 -69 -50 -101 -42 -32 8 -86 53 -97
83 -4 12 -13 83 -19 155 -13 167 -35 252 -116 455 -116 292 -139 363 -115 363
4 0 106 -100 228 -222z m958 27 c90 -24 182 -74 246 -133 144 -133 170 -226
235 -847 22 -218 34 -282 47 -264 10 12 -17 332 -43 522 -38 280 -38 287 3
333 41 48 161 127 235 155 101 38 169 45 248 26 167 -42 242 -142 285 -381
l13 -68 82 6 c96 8 120 -4 110 -58 -3 -17 -10 -76 -16 -131 -5 -55 -15 -112
-21 -128 -19 -45 -255 -177 -389 -217 -88 -27 -124 -56 -145 -120 -22 -67 -63
-128 -146 -214 -48 -51 -71 -84 -71 -100 0 -32 58 -133 88 -153 34 -22 55 -14
254 93 97 52 182 94 188 94 9 0 11 -14 6 -49 -8 -60 0 -95 26 -121 26 -26 58
-14 125 49 27 26 96 82 153 125 168 126 199 183 212 379 5 73 17 165 27 206
l18 75 36 -50 c57 -78 66 -103 73 -209 7 -97 48 -280 81 -360 9 -22 39 -89 67
-149 39 -82 49 -113 41 -125 -17 -27 -148 -123 -239 -175 -149 -85 -495 -222
-746 -296 l-77 -23 -51 56 c-63 69 -115 91 -199 85 -59 -4 -59 -4 -50 20 5 13
9 30 9 38 0 31 -19 11 -45 -48 -16 -36 -50 -87 -80 -119 -58 -61 -109 -136
-152 -223 -15 -31 -30 -56 -34 -56 -5 0 -52 42 -215 192 -25 23 -33 26 -42 16
-8 -10 4 -26 53 -68 36 -29 63 -56 60 -58 -2 -2 -81 36 -177 84 -198 101 -591
358 -676 441 -32 32 -65 79 -85 120 -30 64 -32 74 -32 183 0 103 3 122 28 180
16 37 88 150 167 260 210 292 270 427 270 607 0 149 -26 223 -124 354 -74 98
-74 105 11 171 103 79 232 105 358 73z m3340 -89 c39 -39 46 -173 15 -263 -12
-33 -109 -115 -139 -117 -8 0 -24 16 -36 36 l-20 38 24 62 c13 35 36 109 50
166 25 99 27 102 54 102 16 0 38 -10 52 -24z m-726 -31 c17 -16 42 -56 55 -87
l26 -58 -183 0 c-191 0 -347 -17 -414 -45 -21 -9 -55 -32 -75 -52 -21 -20 -41
-34 -44 -30 -12 12 -20 91 -13 124 10 48 50 95 108 126 81 45 155 56 343 54
l168 -2 29 -30z m-3067 -112 c99 -90 158 -226 158 -367 0 -161 -79 -339 -236
-533 l-42 -52 -141 131 c-77 71 -141 131 -141 133 0 1 21 10 48 20 62 23 108
58 128 98 14 26 16 52 11 147 -3 63 -11 156 -18 205 -15 111 -7 155 33 201 38
43 59 53 115 53 36 1 50 -5 85 -36z m3474 -79 c50 -41 124 -130 124 -149 0 -6
9 -20 21 -31 17 -15 19 -25 13 -54 -4 -19 -7 -43 -6 -52 0 -10 -1 -18 -2 -18
-5 0 -266 357 -266 364 0 13 72 -25 116 -60z m723 -269 c112 -139 190 -248
283 -395 71 -112 230 -401 224 -408 -5 -5 -501 268 -590 325 -105 68 -213 153
-280 221 l-59 61 66 72 c98 105 109 168 47 260 -34 51 -36 74 -14 150 l16 54
105 -110 c58 -60 149 -164 202 -230z m-1099 250 c116 -31 119 -33 271 -244
324 -448 421 -556 854 -945 121 -109 242 -221 268 -250 156 -167 237 -352 237
-545 0 -98 -16 -164 -60 -253 -21 -43 -34 -78 -28 -78 46 0 145 105 193 205
104 215 103 493 0 683 -37 67 -33 78 14 35 23 -22 36 -53 64 -153 99 -354 154
-643 193 -1005 34 -322 27 -998 -12 -1149 -29 -112 -72 -184 -164 -276 -47
-47 -111 -100 -142 -119 -179 -104 -403 -143 -612 -106 -61 11 -114 31 -230
89 -167 82 -276 123 -599 221 -544 165 -900 319 -1227 532 -46 30 -185 116
-309 190 -124 74 -250 155 -281 178 -65 51 -342 330 -359 362 -6 13 -9 34 -5
48 4 14 1 67 -6 118 -13 94 -3 177 21 177 6 0 30 -13 54 -30 122 -84 347 -186
616 -278 271 -93 421 -114 777 -105 250 7 389 -4 597 -48 162 -33 248 -59 275
-84 34 -31 43 -77 31 -168 -5 -45 -13 -119 -17 -165 -6 -72 -5 -82 10 -82 9 0
16 6 16 13 1 30 29 219 33 223 3 3 15 -39 27 -93 61 -278 110 -405 190 -496
36 -41 85 -77 105 -77 3 0 -17 30 -46 67 -95 126 -152 268 -194 484 -40 207
-72 272 -244 493 -51 66 -136 181 -189 255 -53 75 -166 231 -251 346 -312 422
-428 621 -510 870 -55 168 -72 259 -78 418 -7 166 8 309 48 465 59 226 58 225
279 273 108 22 312 25 390 4z m746 -138 c70 -61 -2 -227 -99 -227 -34 0 -45
17 -53 81 -6 50 -4 56 22 85 16 18 39 44 51 58 27 32 44 33 79 3z m-867 -1993
c227 -322 412 -587 410 -589 -2 -2 -58 8 -123 21 -66 13 -161 30 -211 38 -51
7 -104 21 -119 31 -15 10 -46 55 -73 107 -66 129 -118 167 -355 264 -150 61
-237 107 -329 175 -87 65 -120 112 -126 178 -4 41 -1 49 24 72 15 15 65 43
110 62 104 45 227 118 301 178 31 27 62 48 67 48 6 0 196 -263 424 -585z
m-2789 119 c87 -167 95 -181 107 -169 4 4 -21 63 -56 132 -35 68 -60 128 -56
132 11 11 43 -35 87 -123 41 -80 87 -149 95 -141 2 2 -16 45 -41 95 -25 50
-46 95 -46 101 0 5 24 -4 52 -21 29 -17 134 -72 233 -121 99 -49 195 -99 214
-110 44 -28 61 -71 62 -160 0 -40 5 -95 10 -123 6 -27 13 -67 16 -88 4 -32 19
-50 95 -120 107 -98 116 -104 190 -112 51 -6 59 -11 76 -39 22 -37 69 -62 139
-75 37 -7 56 -19 90 -55 24 -24 43 -54 43 -65 0 -54 -115 -129 -230 -151 -56
-11 -180 -14 -180 -4 0 3 11 22 25 42 57 83 23 147 -167 319 -79 71 -249 222
-378 335 -354 309 -407 372 -451 541 -17 66 -25 137 -15 137 2 0 41 -71 86
-157z m1061 131 c11 -14 10 -19 -10 -35 -30 -24 -38 -24 -51 2 -22 39 32 68
61 33z m749 -32 c0 -68 40 -144 102 -192 75 -60 217 -136 391 -211 164 -70
234 -116 296 -192 32 -40 61 -95 61 -117 0 -6 -47 -10 -129 -10 l-129 0 -51
34 c-69 47 -140 72 -274 97 -160 31 -262 63 -337 106 -77 45 -248 211 -274
266 -49 106 -28 141 115 192 l96 34 5 -78 c6 -96 37 -166 102 -230 25 -25 48
-43 50 -40 3 3 -15 36 -40 73 -82 122 -101 194 -72 263 11 26 12 23 18 -47 3
-41 15 -93 25 -115 29 -61 113 -136 201 -182 90 -46 291 -119 301 -109 12 11
-10 23 -115 61 -56 20 -129 54 -162 74 -81 48 -183 142 -204 184 -26 57 -17
187 14 187 5 0 10 -22 10 -48z m-664 6 c9 -31 -12 -45 -35 -24 -16 14 -18 23
-11 37 12 22 37 15 46 -13z m-191 -28 c4 -12 1 -28 -6 -36 -10 -13 -14 -12
-31 2 -17 16 -17 18 -2 36 22 23 31 23 39 -2z m255 -50 c-22 -14 -44 -8 -48
14 -6 29 20 38 43 15 17 -17 18 -21 5 -29z m-92 4 c12 -8 22 -18 22 -22 0 -5
-33 -28 -74 -51 -51 -29 -84 -41 -103 -39 -40 4 -43 41 -6 80 52 56 105 66
161 32z m-218 -29 c11 -13 10 -18 -6 -30 -24 -18 -29 -18 -44 0 -10 12 -10 18
0 30 16 19 34 19 50 0z m366 -16 c19 -21 18 -21 -5 -40 -13 -10 -27 -19 -31
-19 -17 0 -31 29 -24 54 8 32 34 34 60 5z m147 -28 c12 -99 94 -214 207 -291
30 -20 116 -74 190 -119 131 -80 190 -125 190 -144 0 -12 -84 0 -195 28 -91
23 -281 91 -390 140 -33 15 -71 31 -85 37 l-25 9 28 17 c27 17 54 73 43 91 -4
5 -11 46 -16 90 -6 44 -17 96 -25 115 -20 47 -19 55 8 66 51 20 64 14 70 -39z
m-584 -67 c-17 -18 -25 -21 -36 -13 -17 15 -16 24 3 43 12 12 20 14 36 5 20
-11 20 -11 -3 -35z m491 15 c22 -39 -32 -68 -61 -33 -11 14 -10 19 10 35 30
24 38 24 51 -2z m-421 -43 c8 -43 6 -52 -15 -83 -29 -43 -38 -101 -32 -205 l5
-81 -28 34 c-33 39 -69 128 -69 167 1 15 9 41 18 57 31 54 105 165 109 162 2
-2 7 -25 12 -51z m277 9 c19 -28 3 -49 -30 -41 -32 8 -43 30 -26 52 17 19 39
15 56 -11z m-166 -15 c0 -11 -9 -24 -20 -30 -40 -21 -56 18 -18 44 25 18 38
13 38 -14z m-240 -35 c10 -13 10 -19 -5 -35 -10 -11 -22 -20 -26 -20 -14 0
-21 41 -9 55 16 19 24 19 40 0z m568 -39 c-2 -26 -7 -31 -28 -31 -31 0 -40 38
-14 66 23 26 46 7 42 -35z m-88 14 c0 -24 -6 -33 -26 -40 -14 -6 -30 -8 -35
-4 -26 15 8 74 43 74 13 0 18 -8 18 -30z m-128 -14 c19 -14 53 -86 42 -86 -12
0 -144 85 -144 92 0 13 84 8 102 -6z m-165 -27 c9 -9 6 -17 -13 -32 -34 -26
-57 -8 -29 23 21 23 27 24 42 9z m-228 -41 c12 -19 11 -23 -4 -35 -32 -22 -61
17 -33 45 17 17 21 15 37 -10z m515 -4 c19 -19 20 -26 4 -42 -18 -18 -36 -15
-48 9 -9 15 -8 24 1 35 15 18 24 18 43 -2z m-312 -58 c17 -12 17 -14 0 -30
-22 -19 -34 -20 -50 -4 -7 7 -8 17 -1 30 11 21 27 23 51 4z m-203 -35 c8 -14
6 -22 -8 -35 -22 -20 -27 -20 -35 0 -7 17 10 54 24 54 5 0 14 -8 19 -19z m217
-73 c4 -6 -1 -17 -11 -25 -24 -17 -34 -17 -42 3 -10 26 38 47 53 22z m-100
-115 c35 -52 60 -110 52 -118 -2 -3 -20 9 -40 25 -40 33 -73 94 -82 155 l-7
40 21 -25 c11 -14 36 -49 56 -77z m-111 57 c0 -29 -32 -41 -41 -16 -9 24 4 48
23 44 12 -2 18 -12 18 -28z m218 -50 c6 -24 -6 -34 -33 -25 -25 8 -26 31 -3
44 21 11 29 7 36 -19z m1243 -3 c61 -22 104 -46 104 -57 0 -6 -41 -10 -97 -10
l-96 0 -39 40 c-21 23 -38 44 -38 48 0 12 119 -4 166 -21z m-1430 -32 c4 -8 0
-22 -7 -31 -11 -13 -14 -13 -27 0 -17 17 -9 46 13 46 9 0 18 -7 21 -15z m212
-83 c-4 -38 -39 -37 -52 1 -8 22 -7 30 4 37 23 14 52 -8 48 -38z m-154 13 c8
-22 -4 -45 -24 -45 -20 0 -36 33 -25 50 9 15 42 12 49 -5z m90 -88 c8 -12 7
-20 -2 -29 -16 -16 -47 13 -38 37 7 19 25 16 40 -8z m130 0 c8 -12 7 -20 -2
-29 -16 -16 -47 13 -38 37 7 19 25 16 40 -8z m86 -68 c9 -15 8 -24 -1 -35 -10
-12 -49 -20 -49 -10 0 2 -3 11 -6 19 -5 14 20 47 36 47 5 0 14 -9 20 -21z
m340 -313 c55 -36 100 -70 100 -76 0 -6 -24 -35 -53 -64 -107 -108 -324 -153
-584 -122 -102 11 -94 -8 10 -25 107 -17 288 -17 357 0 81 20 185 78 252 140
58 53 60 54 89 40 l29 -14 -44 -75 c-41 -71 -48 -77 -117 -112 -94 -46 -153
-58 -287 -58 -230 0 -453 38 -942 160 -245 61 -365 86 -540 110 -124 18 -227
33 -229 36 -6 6 18 12 139 30 84 13 171 18 320 17 223 0 365 -17 640 -74 193
-40 308 -47 441 -25 159 27 227 64 271 149 12 25 24 37 33 33 8 -3 59 -34 115
-70z m359 -213 c53 -31 98 -57 100 -59 11 -10 -46 -54 -98 -78 -88 -39 -177
-58 -276 -59 -137 -2 -142 7 -43 76 51 35 104 83 136 123 37 46 58 64 69 60 9
-4 59 -32 112 -63z m-1751 32 c30 -9 52 -18 50 -20 -3 -3 -528 -95 -542 -95
-4 0 2 13 14 30 27 38 90 75 160 95 70 19 243 14 318 -10z"/>
<path d="M5824 7621 c7 -10 147 -93 151 -89 1 2 5 12 9 23 5 18 -4 24 -67 48
-75 28 -102 34 -93 18z"/>
<path d="M5473 7393 c20 -21 37 -46 37 -54 0 -17 33 -50 67 -68 31 -16 34 -14
22 16 -23 60 -85 122 -139 138 -23 7 -22 4 13 -32z"/>
<path d="M5163 7254 c-7 -19 -10 -18 74 -43 40 -12 79 -24 88 -27 10 -4 15 0
15 12 0 26 -168 80 -177 58z"/>
<path d="M5266 6864 c-9 -24 -7 -34 6 -34 6 0 21 -8 32 -18 31 -28 96 -50 157
-53 45 -3 54 0 57 15 5 25 -14 44 -30 28 -28 -28 -121 -4 -174 44 -42 39 -40
39 -48 18z"/>
</g>
</svg>
