<?xml version="1.0" standalone="no"?>
<!DOCTYPE svg PUBLIC "-//W3C//DTD SVG 20010904//EN"
 "http://www.w3.org/TR/2001/REC-SVG-20010904/DTD/svg10.dtd">
<svg version="1.0" xmlns="http://www.w3.org/2000/svg"
 width="850.000000pt" height="850.000000pt" viewBox="0 0 850.000000 850.000000"
 preserveAspectRatio="xMidYMid meet">
<metadata>
Created by potrace 1.14, written by Peter Selinger 2001-2017
</metadata>
<g transform="translate(0.000000,850.000000) scale(0.100000,-0.100000)"
fill="#000000" stroke="none">
<path d="M1663 8475 c-121 -26 -156 -40 -191 -78 -37 -39 -39 -114 -6 -200 4
-12 -10 -23 -58 -45 -111 -50 -155 -130 -128 -231 19 -71 177 -296 274 -388
l86 -83 -131 0 c-125 0 -131 -1 -154 -25 -14 -13 -25 -29 -25 -34 0 -50 74
-133 182 -201 l79 -52 -26 -31 c-157 -194 -202 -302 -212 -513 -5 -107 -3
-130 17 -195 12 -40 32 -94 45 -119 12 -25 30 -70 40 -100 39 -121 100 -200
209 -269 36 -22 80 -62 104 -94 24 -30 77 -83 119 -118 42 -35 93 -85 113
-111 37 -46 38 -49 50 -179 17 -176 8 -401 -18 -486 -21 -67 -14 -101 20 -88
29 11 97 195 126 342 l17 86 45 -59 c24 -32 69 -85 98 -118 l55 -59 -7 -94
c-4 -52 -14 -124 -21 -160 -8 -37 -12 -70 -9 -75 21 -33 70 30 117 152 16 41
32 79 37 83 11 13 163 -68 179 -95 52 -86 124 -166 185 -203 36 -22 65 -42 66
-45 0 -4 -27 -12 -59 -18 -178 -37 -370 -190 -465 -371 -65 -125 -81 -197 -80
-366 0 -137 2 -157 28 -230 30 -87 70 -162 122 -231 l33 -43 -30 -50 c-28 -45
-30 -53 -20 -82 6 -18 10 -33 9 -34 -2 -1 -37 -8 -78 -15 -134 -23 -145 -38
-97 -130 16 -33 28 -62 26 -64 -2 -2 -35 -19 -74 -38 -43 -21 -71 -41 -73 -52
-3 -12 14 -37 46 -70 27 -28 70 -80 95 -116 83 -119 121 -140 250 -140 96 0
128 16 154 78 11 26 18 32 31 27 39 -16 108 -17 146 -1 21 9 55 16 75 16 l36
0 28 -91 c15 -50 26 -93 24 -95 -2 -2 -32 -7 -67 -11 -48 -5 -70 -12 -92 -32
-69 -62 -37 -216 94 -456 39 -71 75 -136 80 -145 8 -12 -3 -28 -46 -71 -61
-61 -68 -86 -40 -141 l16 -30 -46 -47 c-53 -54 -58 -80 -26 -163 27 -73 26
-88 -19 -171 -21 -40 -69 -130 -106 -202 -37 -71 -107 -197 -155 -280 -305
-525 -308 -533 -327 -677 l-6 -48 69 1 c38 0 63 3 56 6 -20 8 -42 59 -42 96 0
64 22 106 307 597 152 262 302 543 310 582 3 15 -4 58 -16 97 -11 38 -21 74
-21 81 0 6 27 43 60 81 33 38 74 94 90 123 32 56 49 66 146 81 42 6 144 -8
192 -27 l27 -10 -42 -13 c-23 -7 -96 -34 -162 -60 -123 -49 -164 -76 -144 -96
8 -8 43 1 125 34 127 51 258 90 258 77 0 -29 -74 -276 -85 -282 -7 -4 -18 -22
-26 -40 -7 -17 -101 -120 -209 -227 -184 -184 -336 -365 -383 -458 -15 -28
-15 -32 -1 -37 9 -3 17 -6 19 -6 2 0 25 30 51 67 26 37 75 99 108 137 69 82
378 398 383 392 6 -5 -63 -529 -98 -752 l-33 -204 -32 -19 c-45 -27 -85 -91
-92 -146 -2 -25 -10 -49 -16 -53 -6 -4 -49 -10 -96 -13 -74 -5 -66 -6 61 -7
140 -2 146 -1 167 21 12 13 22 31 22 41 0 10 14 35 32 55 82 94 313 347 403
439 95 99 231 212 254 212 6 0 58 -18 116 -40 58 -22 111 -40 119 -40 7 0 50
48 95 108 45 59 106 139 136 177 31 39 81 113 112 165 31 52 61 104 68 116 7
11 60 43 117 71 117 57 497 207 505 199 20 -20 -60 -702 -103 -869 -64 -255
-125 -447 -184 -585 -16 -37 -20 -56 -13 -63 19 -19 49 7 72 61 12 27 24 50
28 50 3 0 48 -21 100 -47 79 -41 95 -46 103 -33 13 19 -8 36 -108 91 -42 23
-78 43 -79 43 -1 1 12 39 28 85 16 45 41 129 55 184 15 56 30 107 33 114 4 7
53 -8 155 -48 82 -33 150 -58 152 -56 11 10 -132 101 -203 129 -93 37 -90 33
-70 133 l12 60 125 31 c69 17 126 30 128 29 1 -1 -4 -15 -12 -31 -74 -152 -82
-209 -36 -256 30 -29 33 -30 95 -23 l65 7 0 -34 c0 -56 -19 -106 -52 -133
l-31 -26 -28 27 c-58 55 -129 21 -158 -75 -26 -87 -9 -154 44 -177 31 -13 35
-18 35 -52 0 -46 15 -65 41 -52 22 13 33 59 20 93 -6 14 -28 38 -51 52 -36 23
-40 29 -40 66 0 40 33 119 49 119 5 0 18 -11 28 -25 10 -14 31 -26 48 -29 17
-2 107 -31 201 -64 194 -69 238 -81 436 -121 141 -29 285 -46 343 -42 62 4
224 76 360 159 44 27 125 75 180 106 55 32 115 69 134 82 19 13 42 24 53 24
26 0 45 44 27 66 -7 9 -60 40 -118 69 l-106 53 -48 98 c-103 209 -253 397
-584 734 -94 96 -176 188 -182 203 -6 16 -11 44 -11 63 0 19 -7 48 -15 63 -22
44 -100 69 -161 52 -38 -11 -40 -10 -74 27 -143 159 -203 233 -226 279 -39 76
-54 86 -132 91 -66 4 -68 5 -113 56 -26 28 -85 82 -132 120 l-86 69 -36 151
c-20 83 -38 160 -40 172 -3 14 6 30 26 50 72 67 87 156 39 223 l-31 42 31 42
c41 56 38 78 -15 134 l-46 47 41 124 c22 67 45 154 52 193 9 58 14 69 27 63 9
-4 45 -15 80 -25 35 -10 65 -20 66 -21 1 -2 48 -65 104 -140 56 -76 135 -181
176 -233 l75 -96 -16 -37 c-42 -95 -84 -231 -84 -273 0 -70 28 -102 152 -173
l107 -61 1 -52 c0 -70 28 -93 110 -93 l58 0 75 -122 c97 -159 302 -543 368
-689 28 -63 120 -255 205 -427 141 -287 159 -318 212 -372 45 -45 71 -62 112
-74 29 -9 61 -23 71 -32 14 -13 33 -15 82 -12 53 3 83 13 182 63 65 33 135 76
154 95 57 56 81 143 93 339 10 155 9 169 -11 240 -11 42 -27 106 -36 144 -8
37 -23 84 -34 105 -10 20 -31 77 -46 126 -16 50 -42 107 -60 130 -17 23 -48
73 -68 112 -21 38 -57 92 -82 120 -24 28 -51 69 -60 90 -9 21 -31 50 -50 64
-32 23 -146 149 -319 354 -38 44 -81 109 -96 142 -18 39 -41 72 -64 89 -32 24
-36 32 -36 74 0 29 -8 59 -21 80 -20 33 -20 40 -10 146 23 235 8 487 -32 549
-33 50 -92 57 -182 21 -13 -5 -8 5 17 31 66 69 81 140 57 256 -14 62 -12 64
104 114 69 29 72 32 75 67 2 20 -5 53 -15 74 -20 43 -185 219 -214 228 -10 3
-36 -3 -59 -14 -41 -20 -42 -20 -73 0 -18 10 -40 19 -49 19 -14 0 -18 9 -18
44 0 70 -31 99 -136 126 -36 9 -52 23 -114 100 -123 155 -229 258 -379 371
-158 119 -246 163 -406 204 -176 45 -352 40 -480 -15 -43 -19 -47 -19 -40 -3
62 151 90 269 101 427 l7 94 49 -60 c81 -97 151 -200 176 -258 38 -87 64 -140
71 -140 3 0 12 4 20 9 11 7 13 31 8 117 -6 126 -37 243 -97 372 -31 65 -36 82
-22 77 87 -37 215 -77 283 -89 121 -22 239 -31 239 -18 0 16 -57 60 -114 89
-62 31 -215 137 -296 204 -56 46 -60 53 -60 92 0 70 -51 255 -105 381 -9 21
95 -48 238 -156 68 -52 157 -146 157 -167 0 -14 41 -51 55 -51 34 0 -1 135
-62 240 -94 163 -330 391 -510 492 -30 17 -52 32 -49 35 7 8 368 -67 443 -92
148 -50 278 -124 426 -242 105 -85 147 -113 169 -113 15 0 28 4 28 9 0 6 -24
36 -53 68 -29 32 -78 90 -109 128 -140 174 -325 326 -551 454 -32 18 -56 35
-54 37 13 14 273 -120 322 -166 19 -18 66 -40 85 -40 25 0 -24 71 -90 128
-186 163 -467 315 -690 373 l-45 12 65 12 c165 32 290 84 290 122 0 12 -13 13
-72 6 -40 -4 -154 -7 -253 -6 l-180 3 -30 37 c-72 93 -271 252 -434 348 -304
178 -778 243 -1146 158 -103 -24 -144 -21 -442 35 -342 64 -404 72 -578 71
-107 0 -166 -6 -252 -24z m1969 -144 c304 -66 531 -187 756 -405 34 -33 62
-63 62 -67 0 -15 -477 111 -740 195 -398 128 -790 260 -790 266 0 4 48 15 108
23 155 23 472 16 604 -12z m-747 -61 c120 -47 896 -301 1100 -359 216 -62 496
-123 595 -128 82 -5 97 -8 70 -14 -94 -20 -259 -20 -475 1 -416 40 -520 49
-644 56 l-123 7 -109 102 c-137 128 -276 232 -421 313 -62 34 -108 62 -103 62
6 0 55 -18 110 -40z m-413 -65 c153 -17 193 -29 373 -115 119 -56 375 -204
375 -217 0 -9 -52 7 -155 49 -55 22 -136 51 -179 64 -126 38 -377 84 -525 95
-139 11 -365 9 -377 -4 -4 -4 1 -13 11 -21 13 -9 72 -15 199 -19 203 -7 423
-38 606 -86 181 -46 234 -69 540 -231 41 -22 82 -40 92 -40 10 0 59 -40 110
-89 l93 -89 -45 -6 c-275 -35 -330 -48 -330 -76 0 -25 19 -25 126 -5 44 8 124
19 179 24 l100 9 30 -36 c107 -130 154 -140 80 -17 -20 32 -34 59 -33 61 8 7
233 36 308 40 201 9 625 -48 837 -112 299 -90 444 -167 582 -308 l64 -65 -84
44 c-47 24 -126 58 -176 74 -118 40 -398 95 -588 116 -82 9 -178 20 -211 25
-169 27 -461 40 -747 34 -542 -12 -909 22 -1173 107 -66 21 -127 39 -134 39
-27 0 42 -58 98 -83 70 -31 323 -83 475 -98 62 -6 373 -14 692 -19 515 -7 595
-10 710 -28 201 -33 339 -88 508 -205 143 -99 333 -280 381 -365 5 -8 -36 19
-90 59 -117 87 -286 192 -372 231 -89 41 -331 122 -437 146 -134 31 -310 52
-448 52 -71 1 -147 7 -182 15 -92 22 -197 19 -295 -9 -126 -36 -140 -38 -325
-27 -326 18 -795 91 -942 147 -54 20 -89 16 -85 -9 3 -16 -8 -13 -65 19 -37
21 -72 44 -76 51 -5 7 -34 26 -66 42 -99 51 -233 147 -304 218 -66 67 -190
233 -227 304 -33 63 -30 126 6 162 58 59 341 141 534 155 185 14 418 13 562
-3z m1218 -449 c269 -21 759 -73 902 -96 65 -11 151 -29 191 -41 75 -22 260
-99 253 -106 -2 -2 -43 8 -92 22 -149 43 -258 56 -482 56 -209 0 -315 -10
-542 -51 -58 -11 -132 -22 -165 -25 l-60 -7 -85 98 c-47 54 -100 116 -119 137
-26 30 -30 38 -15 33 10 -3 107 -12 214 -20z m-2010 -380 c92 -11 130 -21 193
-50 42 -19 77 -40 77 -45 0 -21 363 -220 540 -297 47 -20 177 -67 290 -105
113 -38 199 -69 191 -69 -39 0 -666 138 -801 177 -235 68 -262 78 -445 168
-157 78 -312 179 -322 212 -8 24 120 28 277 9z m778 -231 c152 -29 507 -75
627 -81 l121 -7 -61 -61 c-34 -34 -75 -79 -91 -100 l-30 -39 -235 78 c-129 43
-290 104 -359 137 -116 55 -124 60 -106 74 25 18 35 18 134 -1z m1536 -77 c8
-13 22 -49 32 -82 l18 -58 -34 -29 c-19 -16 -48 -39 -65 -51 l-30 -21 33 35
c29 31 31 36 17 48 -12 10 -21 8 -51 -16 -86 -68 -103 -72 -53 -11 29 35 31
57 7 57 -6 0 -27 -15 -48 -34 l-38 -34 -53 14 c-29 8 -70 14 -90 14 -54 0
-158 -36 -204 -70 -73 -54 -76 -55 -170 -35 -47 10 -85 22 -85 27 0 21 128
142 199 188 55 36 88 51 125 55 93 11 270 22 373 24 96 1 103 0 117 -21z m200
-4 c53 -7 53 -7 67 -166 10 -123 1 -257 -32 -457 -16 -94 -59 -260 -73 -278 0
-1 -1 112 -1 250 0 218 -3 268 -22 372 -21 110 -51 231 -69 279 -7 17 -3 18
39 12 26 -3 67 -9 91 -12z m216 -61 c103 -40 183 -82 203 -104 11 -14 17 -38
17 -72 l0 -51 -25 34 c-57 77 -170 122 -245 96 l-39 -13 -6 46 c-4 25 -9 59
-12 74 -6 33 -6 33 107 -10z m-2536 18 c3 -4 -4 -55 -16 -112 -19 -92 -22
-132 -20 -354 2 -342 22 -569 67 -735 8 -30 13 -55 11 -57 -1 -2 -30 25 -63
59 -67 70 -92 126 -123 268 -29 133 -41 250 -41 419 -1 182 13 254 70 375 50
108 98 165 115 137z m136 -44 l43 -12 -2 -90 c-1 -49 -5 -93 -7 -97 -7 -11 14
-524 26 -649 30 -297 106 -571 220 -799 62 -125 97 -176 165 -249 27 -30 41
-49 30 -43 -65 35 -235 248 -296 374 -112 227 -166 368 -213 560 -46 189 -63
291 -81 490 -15 176 -11 253 21 440 15 83 20 97 34 93 10 -3 36 -11 60 -18z
m242 -72 c73 -19 257 -59 408 -90 151 -30 283 -58 293 -61 9 -3 17 -15 17 -28
0 -51 44 -60 102 -20 36 25 40 26 138 19 l100 -7 -20 -28 c-34 -48 -50 -96
-43 -131 l6 -32 19 24 c16 21 16 18 -3 -28 -22 -54 -20 -108 4 -101 7 3 26 25
42 49 17 25 45 65 64 88 l35 44 12 -62 c7 -34 20 -75 28 -92 14 -29 14 -30
-27 -70 l-42 -40 50 27 50 27 40 -25 c93 -60 194 -64 248 -9 31 31 32 33 32
124 0 104 -18 152 -82 218 l-35 37 41 7 c44 7 107 0 131 -15 11 -7 16 -38 20
-127 3 -65 2 -120 -3 -121 -4 -2 -26 -33 -48 -68 -51 -80 -85 -101 -196 -120
-121 -20 -122 -21 -115 -46 5 -20 10 -20 86 -15 111 8 175 29 218 72 35 35 35
35 71 20 l37 -15 0 29 c0 18 -7 34 -17 40 -15 8 -11 10 20 11 20 0 37 5 37 10
0 15 -38 50 -55 50 -20 0 -19 20 1 34 16 12 33 73 34 122 0 26 6 33 45 52 45
22 49 30 45 82 -3 39 -8 41 -51 20 -21 -11 -39 -18 -39 -15 0 9 93 115 101
115 12 0 40 -183 50 -326 16 -236 -18 -521 -77 -656 -18 -40 -14 -68 10 -68
15 0 101 160 162 299 30 70 32 72 38 44 14 -61 -42 -236 -121 -383 -77 -143
-162 -257 -273 -369 -132 -132 -201 -175 -273 -173 -87 2 -436 78 -588 127
-267 87 -331 137 -427 333 -62 128 -104 180 -203 253 -38 29 -69 55 -69 60 0
4 15 11 34 14 29 6 42 1 96 -39 35 -26 68 -45 74 -43 24 8 14 36 -35 100 -43
56 -50 71 -44 95 6 28 69 112 83 112 4 0 5 -24 4 -54 -5 -74 20 -153 63 -203
41 -48 110 -79 152 -68 23 5 26 4 15 -7 -8 -8 -37 -13 -75 -13 -73 0 -107 -14
-83 -34 11 -9 13 -19 5 -37 -13 -36 -13 -36 25 -20 34 14 35 14 44 -12 l8 -26
24 32 c14 18 43 41 65 51 59 26 105 69 105 97 0 13 -6 24 -12 24 -9 0 -13 20
-13 68 -1 52 -7 80 -28 126 -19 41 -24 63 -17 70 20 20 9 47 -32 87 -55 52
-88 69 -151 79 -104 16 -231 -24 -274 -86 -10 -15 -29 -37 -41 -50 -17 -16
-22 -29 -17 -44 6 -20 6 -20 -28 -4 -20 9 -42 14 -51 11 -15 -6 -15 -9 0 -32
9 -14 27 -28 39 -31 13 -3 31 -14 41 -25 17 -18 16 -19 -22 -18 -21 0 -55 5
-74 12 -30 10 -36 18 -42 52 -17 99 57 227 161 280 76 38 148 48 239 34 126
-19 166 5 105 64 -36 34 -83 53 -166 67 -97 17 -163 -4 -231 -74 -28 -29 -64
-76 -81 -104 -16 -28 -33 -52 -37 -52 -10 0 -10 413 -2 488 4 28 8 52 10 52 2
0 64 -16 136 -35z m2238 -75 c60 -31 92 -86 98 -170 5 -79 -6 -133 -49 -229
l-31 -69 -66 6 c-37 2 -79 11 -94 18 -15 8 -36 14 -46 14 -19 0 -19 3 -6 68 8
37 16 123 19 192 4 69 8 134 10 146 9 45 99 58 165 24z m318 -85 c82 -76 173
-207 202 -289 10 -31 16 -56 12 -56 -13 0 -176 171 -241 253 -58 72 -81 117
-81 160 0 25 22 12 108 -68z m-1433 -62 c-17 -16 -40 -41 -53 -58 -20 -25 -21
-26 -11 -5 21 45 60 90 77 90 12 0 9 -7 -13 -27z m1428 -155 c116 -130 327
-315 465 -406 29 -19 51 -37 49 -39 -6 -6 -172 45 -231 71 -104 46 -258 157
-416 300 -39 35 -40 38 -31 74 6 20 12 59 15 85 8 69 15 74 45 36 14 -19 61
-73 104 -121z m-53 -218 c139 -117 174 -158 228 -265 45 -91 105 -255 93 -255
-4 0 -12 10 -18 23 -38 81 -340 412 -433 472 -33 21 -60 43 -60 47 0 5 12 32
26 60 21 42 28 49 35 35 6 -9 63 -62 129 -117z m-407 0 c29 -33 42 -37 51 -15
7 18 47 20 64 3 25 -25 12 -58 -48 -120 l-59 -62 -22 20 c-27 23 -69 111 -69
142 0 34 18 62 39 62 11 0 31 -13 44 -30z m-1954 -20 c-47 -42 -75 -54 -43
-19 17 19 73 59 83 59 2 0 -16 -18 -40 -40z m2203 -51 c26 -17 75 -61 108 -97
l60 -65 0 -101 c0 -99 -18 -256 -29 -256 -3 0 -14 41 -24 92 -21 109 -93 285
-147 361 -27 38 -37 60 -33 75 3 12 8 22 11 22 3 0 27 -14 54 -31z m-251 -182
c16 -5 70 -134 68 -165 0 -10 -5 -6 -11 11 -6 16 -17 27 -29 27 -24 0 -24 6 5
-121 34 -152 40 -217 26 -314 -11 -81 -13 -85 -37 -85 -24 0 -25 2 -18 37 10
55 7 243 -5 299 -6 27 -20 77 -31 112 -16 49 -25 62 -41 62 -15 0 -18 5 -14
17 4 9 14 44 22 79 14 53 19 61 33 54 9 -5 23 -11 32 -13z m-78 -219 c27 -89
40 -198 34 -303 -6 -115 -12 -135 -38 -135 -10 0 -19 3 -19 6 0 3 -11 53 -24
112 -13 59 -27 138 -31 175 -7 62 -5 74 21 132 16 36 32 65 35 65 3 0 13 -24
22 -52z m-1843 -128 c30 -136 46 -183 109 -310 40 -82 46 -98 25 -75 -49 57
-143 205 -163 260 -27 72 -44 179 -35 228 6 38 7 39 24 21 9 -11 27 -66 40
-124z m1734 -175 c14 -66 36 -155 49 -197 l25 -76 -92 -90 c-92 -91 -181 -154
-293 -211 l-62 -31 -6 38 c-3 20 -17 84 -32 141 l-26 104 29 21 c92 65 257
248 338 374 22 35 42 60 43 55 1 -4 13 -62 27 -128z m-1553 -77 c19 -6 59 -28
91 -48 31 -20 71 -43 88 -50 30 -12 32 -16 26 -49 -4 -20 -9 -81 -13 -135 -5
-88 -8 -97 -20 -80 -39 53 -213 354 -213 370 0 6 3 5 41 -8z m2649 -44 c126
-34 234 -88 349 -170 126 -91 245 -206 347 -334 79 -98 165 -242 153 -254 -9
-9 -300 -65 -394 -76 -177 -20 -444 -7 -564 26 -21 6 -22 5 -12 -14 16 -31 38
-40 136 -57 206 -36 528 -12 783 57 124 34 125 34 92 106 -21 46 -21 46 32 32
41 -12 48 -29 47 -117 -1 -67 5 -84 57 -160 48 -70 57 -118 27 -145 -87 -76
-329 -128 -600 -128 -239 0 -545 57 -756 141 -168 67 -276 127 -348 195 -37
34 -85 72 -107 83 -29 15 -44 30 -48 49 -4 15 -16 37 -26 49 -42 45 -34 201
16 324 139 345 449 495 816 393z m-677 -69 c-43 -41 -79 -75 -80 -75 -1 0 19
31 45 70 34 51 52 69 65 66 10 -3 23 4 30 15 7 11 13 15 15 9 2 -6 -32 -44
-75 -85z m-191 -39 c6 -54 46 -125 59 -104 20 31 6 -7 -25 -69 -18 -38 -43
-98 -55 -135 -20 -59 -31 -75 -109 -150 -88 -84 -239 -196 -322 -238 -85 -43
-181 -70 -249 -70 -66 0 -166 21 -183 38 -9 9 18 92 31 92 4 0 16 -7 28 -15
17 -12 23 -12 32 -1 19 22 4 41 -79 101 -70 49 -78 59 -70 76 10 18 12 18 36
3 41 -27 190 -14 290 26 100 39 219 107 312 177 89 68 221 207 253 268 13 25
29 45 35 45 6 0 14 -20 16 -44z m-1402 -14 c81 -24 94 -31 91 -48 -15 -80 16
-247 63 -346 14 -29 24 -53 22 -55 -1 -1 -34 30 -74 69 -76 76 -122 152 -164
273 -22 63 -41 135 -35 135 1 0 45 -13 97 -28z m300 -77 c17 -3 38 -25 65 -68
25 -38 64 -80 103 -109 l62 -47 -36 -29 c-39 -32 -54 -32 -127 3 -56 26 -150
118 -176 171 -14 27 -35 65 -47 85 l-22 36 76 -18 c42 -11 88 -21 102 -24z
m-518 -171 c23 -18 29 -34 42 -115 9 -52 22 -115 30 -141 8 -27 11 -48 8 -48
-14 1 -102 128 -125 181 -28 62 -67 183 -67 206 0 10 15 2 43 -23 23 -22 54
-49 69 -60z m128 34 c94 -188 241 -331 395 -383 17 -5 18 -8 4 -15 -48 -27
-248 -90 -278 -88 -33 3 -35 5 -78 112 -24 60 -50 146 -57 190 -17 97 -30 246
-22 246 3 0 19 -28 36 -62z m823 -116 c6 -50 5 -53 -19 -62 -14 -6 -58 -15
-97 -20 -40 -6 -87 -13 -106 -16 -32 -5 -32 -5 -18 15 35 51 217 167 228 147
4 -6 9 -35 12 -64z m-435 -34 c23 -16 56 -34 73 -40 23 -8 29 -15 25 -29 -3
-11 -9 -28 -12 -39 -5 -16 4 -32 40 -66 l48 -45 -51 4 c-46 4 -55 9 -109 63
-60 61 -116 159 -128 224 l-7 35 39 -39 c21 -21 58 -51 82 -68z m877 -275
c-20 -26 -57 -61 -83 -77 -185 -117 -257 -170 -329 -238 -77 -74 -84 -78 -127
-78 -25 0 -48 -4 -51 -10 -3 -5 -15 -10 -26 -10 -17 0 -19 7 -19 59 0 33 -4
62 -9 66 -11 6 -55 144 -49 151 3 2 22 -3 44 -12 22 -10 79 -19 130 -22 76 -4
105 -1 165 18 90 27 201 83 305 155 43 30 80 52 82 50 2 -2 -13 -25 -33 -52z
m231 -123 c-3 -59 -17 -170 -31 -247 l-25 -140 74 -154 c84 -173 103 -244 113
-420 l6 -109 -94 44 c-125 59 -367 140 -504 167 -60 13 -113 27 -117 32 -6 10
-103 -17 -124 -34 -17 -14 -121 -40 -179 -45 -183 -17 -205 -17 -205 3 0 16
-8 20 -41 21 -22 1 -49 7 -60 12 -11 6 -23 8 -28 5 -5 -3 -35 2 -67 10 -32 8
-86 15 -120 15 -35 0 -74 6 -90 15 -19 10 -58 15 -111 15 -46 0 -83 4 -83 9 0
5 11 18 24 28 26 21 79 129 73 147 -5 13 48 120 79 158 12 15 25 43 28 63 7
35 30 84 74 155 12 19 22 45 22 58 0 12 1 22 3 22 1 0 29 -14 61 -30 32 -17
64 -30 71 -30 7 0 26 -7 43 -15 17 -9 56 -20 86 -25 30 -5 65 -15 78 -23 38
-24 158 -40 260 -35 l94 5 79 80 c82 81 241 195 355 254 92 46 243 107 254
101 5 -3 6 -52 2 -112z m-1149 -1 c35 -6 68 -18 74 -25 6 -8 20 -14 30 -14 11
0 29 -10 41 -22 13 -13 29 -22 35 -20 18 4 58 -92 67 -156 6 -49 5 -53 -11
-48 -10 3 -36 8 -58 12 -22 4 -50 13 -61 21 -12 7 -47 18 -78 23 -32 5 -85 20
-119 33 -34 13 -70 27 -79 30 -10 4 -18 12 -18 20 0 16 -51 67 -67 67 -14 0
-33 -54 -33 -95 0 -18 -11 -49 -25 -69 -14 -20 -25 -42 -25 -47 0 -6 -9 -22
-19 -35 -11 -14 -22 -44 -26 -67 -4 -23 -15 -51 -26 -62 -29 -32 -137 -254
-125 -258 14 -5 -51 -74 -86 -93 -16 -8 -28 -21 -28 -29 0 -12 22 -15 130 -15
92 0 139 -4 158 -14 15 -7 65 -16 112 -19 47 -2 108 -10 137 -17 51 -11 52
-12 47 -43 -3 -18 -13 -52 -21 -76 -11 -31 -13 -46 -5 -49 13 -4 -4 -60 -25
-80 -7 -7 -13 -18 -13 -23 0 -5 -9 -28 -19 -52 -16 -35 -32 -99 -36 -142 -1
-20 -140 -7 -221 20 -110 37 -179 82 -266 174 -186 194 -243 465 -153 724 34
100 80 171 165 258 78 80 169 135 275 166 74 23 267 50 290 42 11 -4 48 -13
82 -20z m1310 -36 c9 -14 17 -58 20 -122 5 -88 9 -103 29 -122 l24 -22 0 95 0
96 98 -50 c53 -28 100 -54 103 -57 4 -3 9 -32 11 -64 4 -50 3 -57 -11 -51 -52
23 -129 44 -157 44 -33 0 -66 -29 -79 -71 -14 -43 -111 -11 -158 52 -19 26
-19 30 -4 120 9 52 19 122 23 156 l6 62 40 -22 c22 -12 47 -32 55 -44z m2010
-16 c109 -114 110 -117 12 -163 -119 -56 -120 -57 -104 -214 7 -66 5 -81 -13
-117 -28 -55 -73 -85 -134 -91 l-49 -5 7 52 c5 42 3 55 -11 71 -10 11 -24 20
-31 20 -8 0 -26 15 -41 32 -16 18 -41 45 -57 60 -25 25 -26 28 -8 28 11 0 56
-7 99 -15 102 -20 113 -19 113 4 0 21 -10 26 -75 37 -61 10 -61 14 -3 41 56
26 118 78 118 100 0 9 15 13 44 13 57 0 76 8 76 31 0 16 -8 19 -54 19 l-53 0
-27 51 c-15 29 -25 53 -24 54 58 46 103 75 117 75 10 0 54 -37 98 -83z m-1550
-233 l103 -37 -19 -31 c-25 -40 -71 -198 -71 -242 0 -28 -5 -36 -27 -45 -57
-23 -165 27 -198 91 -14 28 -14 29 30 64 53 44 68 86 63 174 -2 37 1 62 7 62
6 0 56 -16 112 -36z m464 -111 c4 -5 14 -68 22 -141 13 -115 18 -137 41 -166
14 -19 26 -37 26 -41 0 -13 -72 -35 -118 -35 -47 0 -133 21 -161 39 -12 8 -13
20 -2 83 7 40 26 112 42 161 35 106 35 112 5 92 -24 -16 -69 -105 -81 -160
-13 -59 -15 -61 -31 -29 -16 33 -50 54 -87 54 -43 0 -48 12 -32 66 9 27 22 60
30 74 13 23 14 21 12 -42 -1 -71 3 -84 27 -75 9 4 17 27 21 64 3 32 8 69 11
84 l5 25 131 -23 c73 -12 135 -26 139 -30z m-750 36 c19 -9 20 -17 13 -88 -8
-97 4 -138 56 -185 47 -42 156 -79 206 -70 47 9 84 46 84 84 0 25 4 30 23 30
39 0 67 -27 67 -66 0 -19 7 -51 15 -71 8 -19 15 -49 15 -65 0 -49 -83 -355
-104 -385 -1 -1 -26 7 -56 17 -66 23 -96 25 -103 6 -4 -9 21 -26 76 -54 84
-41 167 -96 167 -110 0 -4 -10 -20 -23 -36 l-23 -29 -125 32 c-68 17 -158 35
-199 39 l-75 7 62 23 c34 13 65 27 68 32 13 20 -31 70 -128 146 -170 134 -154
112 -172 251 -18 141 -45 223 -121 367 -61 115 -68 143 -26 103 48 -46 136
-70 187 -51 9 4 25 24 36 45 20 41 42 49 80 28z m1386 -88 c18 -14 33 -29 33
-33 0 -3 -12 -10 -27 -16 -16 -5 -51 -28 -80 -50 l-52 -41 -15 52 c-9 28 -22
73 -30 99 l-15 47 37 3 c41 4 97 -19 149 -61z m-499 29 c11 -12 38 -57 60
-100 l40 -80 -29 0 c-51 0 -97 -26 -112 -62 -13 -32 -14 -28 -21 77 -4 61 -10
127 -13 148 -5 36 -5 37 25 37 19 0 39 -8 50 -20z m291 -72 c17 -50 40 -101
51 -113 18 -19 20 -29 13 -70 -10 -60 -45 -90 -103 -89 -52 2 -70 18 -70 63 0
20 -7 46 -15 57 -8 12 -12 24 -9 27 6 6 -59 146 -89 190 l-18 27 104 0 105 0
31 -92z m294 -181 c48 -34 67 -41 107 -41 28 -1 50 -1 50 -2 0 -3 -140 -94
-145 -94 -5 0 -95 175 -95 185 0 8 12 1 83 -48z m-93 -86 l54 -111 -61 -63
c-76 -78 -138 -155 -204 -255 -29 -42 -55 -80 -59 -85 -3 -4 -27 19 -52 50
-25 32 -78 101 -119 153 -69 88 -169 227 -169 234 0 2 17 6 38 10 54 8 95 54
102 114 5 45 7 47 38 50 43 4 62 -12 62 -55 0 -26 8 -43 34 -69 30 -30 40 -34
85 -34 95 0 163 52 175 135 4 25 10 43 14 41 4 -2 32 -54 62 -115z m487 12
c13 -32 12 -33 -12 -33 -114 0 -423 -295 -609 -582 -65 -100 -119 -213 -143
-299 l-16 -59 -25 22 c-42 40 -44 50 -16 145 50 174 184 381 364 562 126 127
237 210 339 252 82 35 101 33 118 -8z m13 -98 c9 -11 11 -70 8 -242 -3 -126
-8 -235 -12 -244 -6 -14 -14 -15 -48 -8 -87 20 -161 -14 -259 -118 -75 -80
-148 -186 -189 -275 -37 -82 -41 -112 -15 -115 16 -2 27 12 55 75 19 42 56
109 82 147 53 80 181 209 224 225 35 14 159 4 172 -13 5 -7 12 -39 15 -72 5
-52 10 -64 39 -88 18 -15 37 -31 41 -35 5 -4 23 -35 40 -70 28 -55 239 -313
456 -556 71 -80 152 -205 201 -313 22 -47 40 -90 40 -95 0 -5 9 -28 21 -51 12
-23 41 -96 66 -162 43 -116 45 -124 50 -262 l6 -143 -42 -129 c-42 -128 -43
-130 -89 -160 -26 -16 -71 -48 -101 -70 -69 -51 -102 -58 -193 -36 -87 21
-148 54 -182 98 -22 29 -109 202 -421 843 -122 250 -257 500 -357 659 l-63
100 -68 3 c-45 2 -70 7 -73 16 -3 8 4 63 15 122 24 122 25 144 11 144 -20 0
-59 -55 -65 -92 -4 -21 -9 -38 -11 -38 -16 0 -86 44 -91 56 -17 44 65 232 170
389 129 193 371 439 491 500 58 29 60 30 76 10z m-2946 -121 c-8 -20 -14 -46
-12 -58 2 -20 -12 -46 -54 -98 -10 -11 -18 -29 -18 -38 0 -10 -6 -23 -14 -29
-22 -19 -24 -100 -11 -507 4 -149 5 -279 2 -289 -6 -15 -11 -13 -45 13 -20 17
-81 71 -136 121 -54 50 -106 93 -116 96 -9 3 -64 -6 -121 -20 -96 -23 -149
-31 -149 -21 0 8 99 266 110 286 6 11 19 20 29 20 16 0 19 13 24 113 5 92 11
123 31 167 14 30 26 65 26 76 0 12 9 32 19 46 11 13 21 42 23 64 l3 39 115 7
c63 3 149 16 190 26 41 11 85 21 97 21 21 1 22 0 7 -35z m143 -58 c43 -19 79
-40 82 -48 7 -22 82 -131 130 -187 25 -30 79 -81 120 -113 65 -52 76 -58 89
-45 13 13 2 27 -88 114 -84 80 -180 196 -180 216 0 3 35 -6 78 -19 128 -41
357 -82 476 -86 60 -2 76 16 76 84 0 26 2 48 6 48 21 0 204 -154 193 -164 -2
-2 -69 -27 -149 -56 -177 -64 -238 -94 -250 -123 -9 -20 -61 -258 -91 -416
l-12 -65 -44 50 c-67 75 -372 440 -435 519 -65 83 -80 111 -103 189 -14 48
-15 66 -6 97 7 22 16 39 21 39 5 0 44 -15 87 -34z m-19 -357 l90 -106 -82 -33
c-44 -18 -103 -46 -130 -62 -26 -16 -49 -28 -51 -26 -8 12 -21 304 -13 309 6
4 7 15 4 26 -4 12 3 41 15 69 l21 49 28 -60 c15 -33 67 -107 118 -166z m-1156
90 c28 -22 69 -49 90 -60 21 -11 38 -23 38 -28 0 -17 -61 -71 -80 -71 -24 0
-130 115 -130 141 0 21 17 59 26 59 2 0 28 -18 56 -41z m2323 -104 c157 -29
235 -82 235 -160 0 -40 -27 -80 -44 -66 -34 28 -285 61 -461 61 -49 -1 -126
-7 -170 -15 -118 -22 -115 -23 -103 28 28 126 37 138 126 164 61 17 295 10
417 -12z m-2092 -38 c7 -23 2 -52 -24 -138 l-33 -109 -22 27 c-19 24 -29 28
-68 27 -26 0 -45 2 -44 5 2 3 36 55 76 114 77 114 97 127 115 74z m122 -98
c22 6 40 9 42 7 2 -2 -14 -48 -35 -102 -22 -54 -47 -120 -56 -145 -11 -32 -24
-49 -39 -53 -43 -11 -95 -6 -118 13 l-23 19 24 35 c14 20 34 38 45 39 16 2 26
23 49 99 28 91 31 96 52 87 14 -6 34 -6 59 1z m-341 -21 c-4 -7 -28 -38 -54
-68 -111 -131 -124 -178 -67 -235 25 -25 45 -34 85 -40 82 -11 63 -35 -28 -35
-88 0 -131 28 -202 135 -23 33 -54 74 -70 91 l-29 31 113 42 c62 22 142 52
178 65 78 29 83 30 74 14z m1330 -59 c32 -38 56 -73 52 -76 -3 -3 -42 -21 -88
-39 -91 -38 -222 -110 -280 -156 l-38 -30 0 119 0 118 68 42 c53 33 194 91
223 93 3 0 31 -32 63 -71z m1013 -32 c46 -7 87 -17 92 -22 4 -6 23 -73 40
-150 17 -77 41 -175 52 -217 21 -76 22 -79 83 -122 33 -24 92 -76 131 -115 54
-56 65 -71 49 -71 -29 0 -318 -72 -457 -115 -116 -35 -328 -113 -415 -153 -39
-17 -47 -18 -72 -6 -128 64 -337 20 -449 -95 -26 -27 -53 -62 -60 -79 -12 -28
-14 -29 -52 -21 -93 21 -240 -29 -305 -104 -23 -26 -35 -34 -31 -22 73 259 97
355 97 387 0 49 -19 102 -101 288 -62 138 -67 156 -54 169 13 13 19 13 36 3
27 -17 28 -15 38 47 10 61 21 75 110 135 108 72 352 183 364 165 30 -43 214
-229 227 -229 23 0 24 4 55 174 13 76 26 140 28 142 1 2 39 10 82 18 93 18
375 14 512 -7z m-2251 -52 c3 -8 -6 -29 -20 -46 -21 -25 -25 -38 -20 -64 3
-18 2 -35 -3 -38 -4 -3 -33 -1 -63 4 -80 13 -100 49 -57 102 37 46 151 75 163
42z m702 -293 l53 -48 -18 -32 c-10 -18 -23 -32 -29 -32 -22 0 -63 41 -74 76
-12 34 -7 84 8 84 4 -1 31 -22 60 -48z m-267 -162 c35 -11 138 -57 228 -103
l165 -82 27 -70 c15 -38 26 -71 25 -71 0 -1 -55 25 -121 57 -214 105 -420 153
-494 116 l-30 -15 -11 52 c-17 76 -11 119 20 127 48 13 129 9 191 -11z m44
-214 c73 -19 217 -81 322 -138 70 -37 93 -55 93 -70 0 -18 -9 -59 -41 -180
l-9 -37 -43 19 c-99 44 -266 50 -344 14 -20 -10 -54 -42 -78 -75 -24 -32 -45
-55 -49 -52 -15 15 -2 38 47 87 84 85 149 165 142 176 -11 17 -33 11 -69 -20
l-34 -30 -20 32 c-10 18 -45 83 -77 145 -71 136 -69 143 39 143 39 0 94 -6
121 -14z m2403 -15 c7 -4 24 -30 36 -57 13 -27 73 -105 134 -174 69 -78 106
-127 99 -131 -7 -4 -77 -23 -157 -44 -254 -66 -660 -210 -968 -343 -72 -31
-92 -36 -87 -24 17 44 35 143 35 192 0 99 -37 195 -103 268 -13 13 -17 26 -11
31 14 13 196 85 318 126 105 34 440 122 556 144 30 6 64 13 75 15 35 7 60 6
73 -3z m-1181 -276 c67 -20 144 -89 180 -162 52 -108 33 -275 -52 -443 -49
-97 -161 -263 -253 -373 -45 -54 -87 -107 -92 -118 -6 -10 -17 -19 -25 -19
-24 0 -254 97 -312 132 -80 48 -183 162 -226 250 -46 96 -70 196 -62 258 9 64
54 157 96 197 65 62 178 88 259 59 24 -8 45 -14 46 -13 1 1 12 22 24 47 31 62
75 115 115 140 92 57 205 74 302 45z m1667 -137 c9 -13 16 -43 16 -71 l0 -49
193 -197 c327 -334 484 -529 590 -738 l65 -128 64 -28 c34 -15 73 -35 86 -45
l23 -18 -43 -30 c-24 -17 -79 -50 -123 -74 -44 -24 -120 -68 -168 -97 -126
-76 -191 -107 -279 -133 -73 -21 -83 -22 -170 -11 -132 18 -221 37 -393 83
-140 37 -360 104 -378 115 -5 3 1 15 12 27 52 56 70 187 30 227 -18 18 -30 20
-92 17 l-72 -3 -3 35 c-2 25 4 47 21 70 l23 35 99 0 c82 0 106 4 133 20 53 32
75 77 80 165 5 87 -11 132 -69 188 -29 28 -108 62 -145 62 -6 0 -22 8 -34 18
-39 31 -20 74 75 172 45 47 88 95 94 107 29 57 -1 137 -65 175 -19 11 -33 22
-30 25 2 2 80 24 172 49 92 25 170 47 173 49 2 3 26 5 52 5 38 0 51 -5 63 -22z
m-499 -137 c108 -49 112 -104 14 -190 -51 -45 -62 -51 -75 -40 -18 15 -102 18
-186 6 l-58 -7 0 64 c0 121 -2 117 118 158 59 20 110 37 115 37 4 1 37 -12 72
-28z m-2061 -335 c22 -94 98 -236 165 -309 31 -33 89 -82 129 -108 l73 -46
-48 -36 c-50 -37 -161 -149 -392 -395 -73 -79 -135 -141 -137 -139 -2 2 1 28
6 58 10 51 61 400 96 649 30 222 55 355 70 378 9 13 17 22 19 20 2 -2 11 -34
19 -72z m1989 68 c3 -3 -3 -20 -13 -37 -10 -18 -22 -48 -25 -69 l-7 -36 -32
13 c-18 8 -63 19 -99 25 -63 11 -67 14 -67 39 0 40 13 52 66 60 59 10 168 13
177 5z m-45 -194 c59 -22 126 -44 148 -50 81 -20 124 -77 124 -165 0 -54 -22
-113 -46 -122 -13 -5 -28 5 -53 34 -20 22 -46 46 -58 52 -36 18 -101 12 -235
-23 -79 -20 -128 -29 -128 -22 0 6 9 81 20 166 11 85 20 161 20 169 0 22 87 6
208 -39z"/>
<path d="M1814 8030 c-45 -10 -92 -41 -147 -97 -68 -71 -84 -141 -48 -218 31
-66 46 -82 65 -66 14 12 14 17 -4 51 -20 39 -25 70 -22 123 4 55 142 166 209
167 12 0 34 5 50 11 22 8 25 12 13 18 -25 14 -83 19 -116 11z"/>
<path d="M1838 7706 c-103 -28 -120 -65 -74 -161 27 -57 54 -84 145 -145 45
-31 68 -41 78 -34 26 16 18 28 -49 74 -91 61 -115 86 -134 136 -13 33 -14 47
-5 58 14 17 107 36 175 36 148 0 819 -136 987 -200 67 -25 89 -26 89 -2 0 45
-464 166 -847 222 -225 32 -293 35 -365 16z"/>
<path d="M2887 5973 c-4 -3 -4 -30 -1 -59 5 -39 3 -58 -10 -75 -25 -37 -20
-57 22 -78 61 -31 106 -36 141 -15 l31 19 -61 31 -62 31 -1 62 c-1 50 -5 66
-20 77 -22 16 -30 17 -39 7z"/>
<path d="M3369 5856 c-53 -36 -223 -122 -299 -151 -37 -14 -75 -34 -85 -45
-16 -18 -15 -19 22 -26 24 -4 79 -36 155 -91 195 -139 287 -169 345 -110 24
24 28 36 31 101 5 85 -22 209 -64 294 -30 60 -49 66 -105 28z m80 -112 c28
-69 41 -217 22 -253 -24 -43 -92 -25 -215 58 -64 44 -76 56 -82 87 -4 20 -2
40 3 45 17 17 227 127 238 124 6 -1 21 -28 34 -61z"/>
<path d="M6190 4441 c-33 -19 -201 -61 -305 -76 -193 -30 -561 -16 -702 26
-62 19 -76 20 -83 9 -14 -22 7 -38 76 -60 138 -42 535 -57 726 -26 99 15 323
78 341 95 4 4 5 15 1 24 -7 18 -30 22 -54 8z"/>
<path d="M4240 5064 c-74 -74 -187 -178 -250 -229 -63 -51 -131 -109 -150
-129 l-35 -37 44 16 c61 21 102 48 206 135 196 162 335 311 335 356 0 13 -3
24 -8 24 -4 0 -68 -61 -142 -136z"/>
<path d="M6502 3050 c-49 -20 -184 -134 -257 -217 -110 -125 -140 -170 -125
-188 17 -21 33 -19 108 14 64 28 100 35 311 61 46 5 86 12 88 14 2 2 1 11 -3
20 -5 12 -19 16 -59 16 -87 0 -252 -20 -296 -35 -23 -9 -44 -14 -46 -12 -10
11 190 205 256 249 42 28 77 52 79 53 1 1 0 10 -4 19 -7 18 -18 19 -52 6z"/>
<path d="M3896 2085 c-14 -15 -14 -19 0 -47 14 -27 14 -31 0 -47 -32 -35 -9
-119 28 -105 8 3 23 26 33 52 23 56 15 107 -21 142 -22 19 -25 20 -40 5z"/>
<path d="M4196 1766 c-53 -20 -143 -83 -175 -123 -26 -32 -26 -33 -92 -27 -53
5 -74 3 -110 -13 -105 -47 -162 -136 -163 -253 -1 -159 141 -326 376 -441 86
-42 94 -38 192 84 114 144 162 217 211 320 63 133 82 212 68 292 -14 79 -31
105 -94 140 -62 34 -154 43 -213 21z m149 -59 c75 -29 95 -63 95 -158 0 -136
-114 -354 -283 -543 l-53 -59 -94 49 c-180 93 -290 229 -290 358 1 85 26 138
87 176 41 27 55 31 98 27 28 -3 62 -8 76 -12 22 -6 33 2 85 55 98 102 195 139
279 107z"/>
</g>
</svg>
