<?xml version="1.0" encoding="UTF-8" standalone="no"?>
<svg
   xmlns:dc="http://purl.org/dc/elements/1.1/"
   xmlns:cc="http://creativecommons.org/ns#"
   xmlns:rdf="http://www.w3.org/1999/02/22-rdf-syntax-ns#"
   xmlns:svg="http://www.w3.org/2000/svg"
   xmlns="http://www.w3.org/2000/svg"
   xmlns:sodipodi="http://sodipodi.sourceforge.net/DTD/sodipodi-0.dtd"
   xmlns:inkscape="http://www.inkscape.org/namespaces/inkscape"
   version="1.0"
   width="850.000000pt"
   height="850.000000pt"
   viewBox="0 0 850.000000 850.000000"
   preserveAspectRatio="xMidYMid meet"
   id="svg198"
   sodipodi:docname="0.svg"
   inkscape:version="0.92.2 5c3e80d, 2017-08-06">
  <defs
     id="defs202" />
  <sodipodi:namedview
     pagecolor="#ffffff"
     bordercolor="#666666"
     borderopacity="1"
     objecttolerance="10"
     gridtolerance="10"
     guidetolerance="10"
     inkscape:pageopacity="0"
     inkscape:pageshadow="2"
     inkscape:window-width="1920"
     inkscape:window-height="978"
     id="namedview200"
     showgrid="false"
     inkscape:zoom="0.41647059"
     inkscape:cx="625.59306"
     inkscape:cy="758.89947"
     inkscape:window-x="0"
     inkscape:window-y="1"
     inkscape:window-maximized="1"
     inkscape:current-layer="svg198" />
  <metadata
     id="metadata2">
Created by potrace 1.14, written by Peter Selinger 2001-2017
<rdf:RDF>
  <cc:Work
     rdf:about="">
    <dc:format>image/svg+xml</dc:format>
    <dc:type
       rdf:resource="http://purl.org/dc/dcmitype/StillImage" />
  </cc:Work>
</rdf:RDF>
</metadata>
  <g
     transform="translate(0.000000,850.000000) scale(0.100000,-0.100000)"
     fill="#000000"
     stroke="none"
     id="g196">
    <path
       d="M0 4250 l0 -4250 1953 1 c1630 0 1945 3 1910 14 -139 43 -240 160 -250 290 -4 48 1 79 26 156 17 53 31 102 31 108 0 7 -10 35 -22 63 l-21 50 -41 -7 c-114 -19 -104 -21 -150 28 -52 53 -76 118 -76 202 0 70 18 105 56 105 27 0 40 13 93 90 23 35 45 56 60 58 24 4 61 -23 61 -43 0 -7 6 -18 14 -24 18 -15 46 -2 94 43 50 46 54 64 30 142 -28 95 -21 147 37 259 53 104 88 211 111 345 14 81 16 145 10 442 l-6 348 -38 67 c-30 52 -43 67 -58 65 -10 -2 -53 -6 -94 -9 -63 -4 -90 -12 -164 -49 -48 -24 -97 -44 -108 -44 -23 0 -78 52 -78 74 0 8 -30 29 -72 50 -40 19 -83 44 -95 55 l-22 21 -71 -50 c-139 -95 -271 -90 -371 17 -63 65 -74 96 -74 203 0 89 3 101 38 179 21 47 47 98 59 114 l21 29 -23 44 c-27 54 -22 77 26 135 35 42 35 43 16 58 -35 29 -45 58 -31 99 25 79 87 132 153 132 47 0 78 29 70 67 -11 61 73 129 174 141 34 4 50 0 72 -17 36 -26 38 -26 66 0 15 14 41 22 83 26 39 4 60 10 58 17 -2 6 -41 25 -88 42 -111 40 -207 90 -299 155 -98 69 -260 226 -260 252 0 21 1 21 105 -7 32 -9 95 -16 138 -16 l79 0 -83 88 c-139 147 -225 281 -267 420 -27 87 -15 112 35 72 36 -28 128 -60 173 -60 l40 0 0 131 c0 109 12 211 26 228 2 2 33 -24 68 -58 96 -91 181 -123 233 -86 24 17 35 50 53 162 11 68 10 74 -9 99 -12 15 -21 40 -21 56 0 17 -9 43 -21 59 -47 66 -144 342 -188 537 -32 138 -28 141 183 173 l129 19 76 78 c42 44 88 87 103 96 l27 18 -46 31 c-66 44 -88 87 -87 162 2 62 33 153 60 176 15 13 20 -4 27 -89 3 -32 12 -64 24 -80 25 -34 86 -68 138 -77 l40 -7 -31 33 c-44 47 -54 71 -54 122 0 66 62 149 91 120 8 -8 8 -16 0 -31 -14 -26 -14 -77 -1 -102 9 -17 76 -47 86 -38 2 3 -7 28 -21 57 -40 83 -58 174 -58 299 -1 61 -2 112 -4 112 -13 0 -66 -141 -75 -197 -14 -90 -19 -105 -37 -94 -22 14 -25 114 -7 200 26 123 90 242 184 344 52 54 48 59 -13 17 -57 -39 -101 -94 -122 -150 -22 -59 -30 -68 -48 -49 -21 21 -5 104 34 175 23 43 26 54 14 54 -12 0 -14 7 -10 28 3 15 9 45 12 67 l7 40 -37 -43 c-20 -23 -45 -47 -56 -52 -16 -9 -19 -7 -19 12 0 21 45 81 134 178 18 19 50 68 71 108 43 83 122 162 200 199 l50 25 -48 -5 c-34 -3 -64 -15 -101 -41 -29 -20 -56 -36 -59 -36 -19 0 -3 40 28 70 23 22 33 40 30 51 -10 30 51 86 144 131 47 24 112 60 144 81 32 22 78 47 104 57 l46 17 -51 7 c-101 13 -70 44 55 55 48 5 -928 9 -2169 10 l-2258 1 0 -4250z"
       id="path4"
       style="fill:none" />
    <path
       d="M4825 8476 c53 -25 80 -50 112 -103 l20 -33 24 26 c63 67 164 83 254 40 27 -14 92 -43 143 -65 130 -56 192 -101 237 -172 13 -20 51 -68 85 -108 39 -44 60 -77 56 -86 -3 -9 3 -37 13 -63 30 -75 55 -202 43 -214 -15 -15 -29 -3 -53 43 -24 48 -86 112 -131 135 -29 15 -25 8 30 -50 109 -117 162 -257 162 -426 0 -132 -21 -158 -53 -65 -13 37 -15 25 -18 -165 -4 -169 -7 -209 -21 -228 -22 -32 -32 -14 -39 73 -4 51 -6 26 -8 -90 -1 -168 -10 -206 -36 -171 -8 11 -15 36 -15 56 0 36 -36 179 -48 192 -4 4 -7 -37 -8 -90 0 -82 -4 -106 -26 -152 -33 -73 -112 -160 -144 -160 -31 0 -31 20 2 51 40 37 54 73 54 138 0 110 -10 101 -66 -55 -30 -82 -54 -155 -54 -162 0 -7 20 -22 44 -34 40 -19 50 -20 85 -10 48 15 96 67 112 124 16 57 27 68 45 44 18 -25 9 -84 -22 -152 -23 -48 -121 -154 -154 -166 -11 -4 4 -25 55 -79 80 -85 94 -94 153 -104 24 -4 55 -17 70 -30 25 -22 25 -23 10 -48 -15 -21 -87 -58 -182 -91 -13 -4 -16 -11 -11 -24 16 -36 18 -74 4 -83 -8 -5 -41 -9 -75 -8 -33 1 -65 -1 -71 -4 -15 -10 -68 -160 -57 -164 5 -2 24 -12 42 -23 44 -27 42 -48 -19 -173 -53 -110 -64 -155 -78 -337 -4 -53 -14 -105 -22 -118 -20 -33 -195 -171 -227 -179 -15 -3 -44 0 -69 9 -24 9 -43 14 -43 13 0 -2 22 -63 49 -137 26 -73 51 -145 54 -159 14 -57 37 -72 113 -72 57 -1 77 3 108 22 57 36 64 21 44 -97 -9 -53 -20 -105 -23 -115 -9 -21 11 -22 84 -3 65 17 73 6 47 -68 -57 -161 -185 -283 -345 -330 -30 -9 -72 -16 -93 -16 -21 0 -38 -4 -38 -8 0 -4 27 -27 61 -51 56 -40 60 -45 45 -59 -13 -13 -39 -16 -133 -17 -65 0 -145 4 -179 8 l-61 8 -55 -143 c-31 -79 -91 -240 -134 -358 -73 -204 -77 -220 -82 -317 l-4 -103 50 0 c65 0 102 -14 102 -38 0 -11 -19 -62 -42 -113 -23 -52 -40 -98 -39 -104 8 -46 9 -699 1 -775 -6 -52 -13 -136 -17 -185 -5 -87 -4 -94 27 -164 36 -84 37 -123 1 -191 -22 -42 -28 -90 -12 -90 5 0 23 12 41 26 22 19 38 25 58 21 14 -3 39 2 55 10 25 13 31 13 53 -1 27 -19 36 -45 32 -100 -3 -35 0 -40 27 -49 48 -16 55 -26 55 -80 0 -71 -18 -122 -60 -170 -20 -23 -55 -70 -78 -104 -56 -83 -87 -106 -130 -98 -28 5 -39 1 -68 -24 -19 -17 -41 -31 -49 -31 -8 0 -26 15 -40 34 -29 38 -55 38 -55 1 0 -13 9 -76 20 -140 24 -142 26 -264 4 -328 -30 -88 -122 -169 -239 -209 -48 -17 52 -17 2183 -18 l2232 0 0 4250 0 4250 -1862 0 -1863 0 50 -24z"
       id="path6"
       style="fill:none" />
    <path
       d="M4606 8427 c89 -43 148 -96 181 -161 l25 -51 -56 62 c-36 39 -77 72 -111 89 -50 24 -63 26 -143 22 -74 -3 -97 -9 -155 -38 -87 -42 -93 -53 -25 -43 29 4 87 8 129 7 63 -1 88 -7 140 -31 80 -37 124 -74 150 -124 25 -50 12 -50 -24 1 -33 46 -99 94 -159 116 -40 14 -173 22 -184 11 -3 -2 25 -15 61 -28 36 -12 65 -26 65 -29 0 -4 -48 4 -107 17 -117 27 -171 26 -238 -3 l-40 -18 69 -8 c191 -23 353 -99 426 -200 17 -22 28 -43 26 -46 -3 -2 -27 18 -53 45 -27 27 -66 62 -88 76 -49 32 -163 57 -253 56 l-67 -1 74 -14 c132 -24 181 -35 181 -42 0 -4 -27 -5 -59 -4 -32 2 -96 -3 -141 -12 -167 -31 -280 -112 -314 -223 -7 -21 -4 -20 76 12 46 19 117 39 158 46 87 13 218 6 280 -16 55 -19 66 -11 14 11 -44 18 -120 31 -238 40 -62 5 -76 8 -61 16 28 16 201 3 268 -21 32 -11 83 -34 112 -51 l54 -31 51 22 c38 16 52 28 55 48 3 14 10 40 15 57 16 48 13 57 -35 104 -30 29 -42 47 -35 54 7 7 27 -9 60 -46 48 -54 52 -56 88 -51 20 3 46 14 58 24 25 24 52 24 77 2 18 -17 20 -17 35 4 10 11 29 44 44 72 25 46 116 131 140 131 6 0 -17 -26 -49 -57 -33 -32 -70 -77 -81 -100 l-22 -42 39 -30 c26 -21 41 -42 45 -65 7 -39 21 -52 96 -91 46 -24 67 -29 135 -30 81 -1 174 -24 194 -49 8 -9 -11 -8 -72 5 -45 10 -96 19 -114 19 -57 0 -44 -17 25 -34 145 -37 351 -148 382 -207 15 -26 10 -24 -80 41 -100 72 -101 70 -14 -17 45 -45 100 -109 123 -143 l41 -62 0 40 c0 54 -35 164 -73 232 -36 64 -117 153 -167 185 -85 53 -200 69 -293 41 -26 -8 -47 -10 -47 -5 0 4 38 20 85 35 72 22 99 26 168 22 94 -5 185 -40 250 -98 21 -18 40 -31 42 -28 2 2 0 21 -6 43 -23 84 -168 182 -302 205 -66 12 -90 10 -207 -16 -20 -4 -22 -3 -9 5 27 17 209 61 254 61 23 0 62 -7 85 -15 63 -22 62 -9 -2 20 -117 54 -260 58 -361 12 -32 -14 -57 -23 -57 -19 0 4 38 32 86 61 92 59 147 72 217 53 20 -6 37 -7 37 -3 0 4 -26 22 -57 41 -50 31 -67 35 -138 38 -98 4 -172 -20 -248 -82 -40 -32 -56 -54 -68 -91 -27 -79 -39 -69 -39 34 0 50 -4 91 -8 91 -5 0 -19 25 -31 55 -20 48 -86 124 -97 112 -3 -2 11 -28 30 -57 44 -67 71 -165 61 -217 l-8 -38 -7 50 c-10 67 -32 109 -91 165 -56 54 -138 97 -200 105 -44 6 -43 6 27 -28z"
       id="path8"
       style="fill:#ff0000" />
    <path
       d="M4899 7966 c-16 -8 -32 -10 -40 -5 -23 14 -89 11 -95 -5 -7 -19 21 -71 48 -90 34 -24 133 -21 158 4 25 25 36 68 23 89 -13 21 -61 25 -94 7z"
       id="path10"
       style="fill:#000080" />
    <path
       d="M5056 7877 c-11 -28 -11 -34 2 -50 16 -18 85 -41 161 -52 l44 -7 -19 24 c-25 34 -92 83 -137 102 l-37 15 -14 -32z"
       id="path12"
       style="fill:#000080" />
    <path
       d="M4065 7871 c-73 -21 -150 -55 -159 -70 -5 -8 0 -8 21 0 15 6 71 27 123 46 129 47 137 60 15 24z"
       id="path14" />
    <path
       d="M4163 7877 c5 -13 -4 -19 -36 -28 -97 -25 -182 -101 -237 -209 -17 -34 -28 -61 -23 -59 4 2 47 25 94 51 86 48 158 78 187 78 27 0 1 -16 -98 -59 -52 -23 -108 -53 -125 -66 l-30 -26 53 26 c72 35 227 89 347 120 117 30 145 41 145 55 0 6 -42 10 -110 10 -113 0 -140 11 -72 29 48 14 88 14 152 0 43 -9 55 -8 77 6 21 14 23 19 12 30 -29 28 -115 48 -228 53 -102 4 -113 3 -108 -11z"
       id="path16"
       style="fill:#8b0000" />
    <path
       d="M4603 7841 c-34 -16 -82 -48 -108 -72 -45 -41 -105 -130 -105 -156 0 -6 81 39 179 99 l180 111 -17 23 c-22 31 -53 29 -129 -5z"
       id="path18"
       style="fill:#000080" />
    <path
       d="M4863 7820 c-58 -12 -172 -61 -251 -108 -190 -113 -342 -328 -387 -545 -9 -43 -18 -86 -21 -95 -5 -14 -3 -14 10 2 24 29 28 15 11 -34 -8 -24 -14 -44 -13 -46 3 -3 161 271 167 290 2 6 -13 -10 -34 -36 -21 -27 -42 -48 -46 -48 -11 0 -12 27 -1 32 4 2 60 67 126 146 65 79 121 141 123 138 3 -2 -22 -44 -55 -93 -32 -48 -68 -106 -79 -128 -56 -110 -94 -289 -92 -430 l1 -90 14 75 c18 98 46 176 101 278 25 46 43 85 41 87 -2 3 -28 -41 -58 -96 -59 -108 -76 -117 -37 -21 24 58 208 355 228 368 20 12 21 -5 1 -33 -35 -51 -100 -193 -87 -193 2 0 17 24 34 53 60 104 157 195 299 278 79 46 133 55 62 10 -49 -31 -87 -70 -116 -116 -13 -21 1 -12 47 31 81 77 152 114 243 125 91 12 96 7 97 -95 l1 -81 21 68 c11 37 24 67 28 67 11 0 26 -56 39 -150 17 -126 20 -133 37 -86 7 22 16 71 20 110 l6 70 28 -119 c15 -66 28 -127 28 -134 1 -26 -18 3 -34 50 l-15 44 5 -55 c13 -140 16 -260 7 -313 -5 -32 -6 -55 -1 -50 17 18 40 125 51 238 10 101 13 114 20 80 4 -22 7 -67 8 -100 1 -33 4 -78 9 -100 7 -40 7 -40 13 -10 53 251 22 440 -91 567 -23 26 -40 52 -39 59 5 20 -99 69 -146 69 -27 0 -65 12 -111 35 -76 38 -144 49 -212 35z"
       id="path20"
       style="fill:#800000" />
    <path
       d="M5300 7771 c0 -5 47 -55 104 -112 116 -117 159 -179 210 -300 19 -46 51 -118 71 -159 l35 -75 -4 105 c-11 247 -115 428 -297 519 -59 30 -119 41 -119 22z"
       id="path22"
       style="fill:#8b0000" />
    <path
       d="M4275 7681 c-170 -48 -365 -214 -445 -378 -16 -35 -30 -65 -30 -69 0 -3 19 18 42 48 101 129 205 228 276 260 73 33 69 14 -8 -31 -84 -50 -141 -104 -170 -160 -31 -61 -50 -147 -50 -224 0 -59 2 -68 14 -58 13 11 14 4 9 -42 -3 -30 -2 -72 2 -94 8 -38 8 -38 20 32 16 94 45 156 121 267 35 50 64 96 64 102 0 18 -80 -68 -127 -136 -26 -38 -48 -66 -51 -63 -7 7 56 115 95 163 19 23 78 78 131 121 120 97 163 144 202 221 l30 60 -32 -1 c-18 0 -60 -8 -93 -18z"
       id="path24"
       style="fill:#8b0000" />
    <path
       d="M5050 7591 c-38 -12 -111 -51 -149 -80 -36 -27 -111 -116 -111 -132 0 -5 13 -15 30 -24 27 -14 67 -71 57 -81 -2 -3 -16 0 -30 5 -38 15 -165 11 -219 -6 -27 -8 -58 -27 -72 -43 -25 -30 -52 -97 -43 -106 3 -3 31 6 63 20 33 14 53 25 46 26 -7 0 -29 -7 -49 -15 -43 -18 -53 -14 -20 8 60 39 146 44 210 10 36 -18 30 -27 -8 -13 l-28 11 32 -30 c37 -34 43 -62 9 -37 -35 25 -85 46 -111 46 -30 0 -65 -24 -49 -34 7 -4 12 -18 12 -32 0 -15 6 -24 15 -24 11 0 15 11 15 35 0 43 20 54 56 31 51 -34 57 -128 8 -146 -24 -9 -24 -11 -9 -39 8 -17 15 -34 15 -39 0 -10 -149 -27 -157 -18 -3 3 7 17 21 33 31 33 33 43 8 43 -29 0 -42 21 -42 69 0 28 6 52 18 64 16 19 16 20 -3 9 -12 -6 -27 -22 -34 -36 -12 -22 -11 -32 7 -81 12 -30 19 -55 17 -55 -16 0 -74 47 -70 57 2 7 -6 15 -17 19 -20 6 -21 7 -4 19 17 13 16 14 -5 25 -19 11 -25 10 -36 -6 -7 -10 -13 -22 -13 -28 0 -22 105 -255 137 -303 18 -28 54 -70 79 -92 58 -54 234 -141 285 -141 94 0 285 144 343 259 15 29 36 99 47 155 11 55 22 109 25 119 4 12 0 17 -17 17 -18 0 -19 -2 -9 -15 10 -12 10 -15 -3 -15 -10 0 -14 -6 -11 -15 7 -16 -13 -20 -34 -7 -10 7 -10 15 -2 36 5 15 10 38 10 50 0 27 -32 71 -63 87 -20 11 -20 11 1 -16 29 -36 28 -74 -3 -119 -14 -20 -25 -46 -25 -56 0 -15 7 -20 25 -20 28 0 34 -15 9 -24 -9 -3 -38 -6 -66 -6 l-50 0 4 35 c3 28 0 35 -17 37 -18 3 -20 10 -19 63 0 33 -4 63 -8 66 -5 3 8 22 27 42 28 29 32 37 18 37 -17 1 -17 2 1 15 25 19 79 19 116 0 l29 -15 12 41 c16 50 4 62 -59 56 -30 -3 -53 -13 -73 -33 -33 -31 -52 -25 -23 7 l19 22 -32 -6 c-43 -8 -42 2 3 32 50 35 75 90 81 182 5 68 4 78 -13 87 -30 15 -77 21 -104 13z m62 -787 c5 -5 -71 -152 -108 -209 -20 -31 -63 -55 -97 -55 -30 0 -73 32 -92 70 -18 34 -55 187 -47 195 7 7 337 7 344 -1z"
       id="path26"
       style="fill:#d2b48c" />
    <path
       d="M4800 6747 c0 -47 32 -131 61 -160 24 -23 35 -28 57 -22 74 18 125 123 92 186 -10 17 -22 19 -110 19 -98 0 -100 0 -100 -23z"
       id="path28"
       style="fill:#e9967a" />
    <path
       d="M5465 7528 c14 -31 32 -85 39 -120 13 -62 113 -278 129 -278 13 0 -3 100 -30 180 -32 96 -77 180 -125 233 l-38 42 25 -57z"
       id="path30"
       style="fill:#0000cd" />
    <path
       d="M4321 7514 c-113 -90 -212 -226 -256 -353 -19 -54 -13 -65 11 -20 9 18 52 70 95 115 44 46 79 89 79 98 0 8 34 60 75 115 41 56 73 101 71 101 -3 0 -36 -25 -75 -56z"
       id="path32"
       style="fill:#0000cd" />
    <path
       d="M5523 7224 c3 -39 16 -72 52 -133 26 -45 50 -80 52 -77 10 10 -18 99 -52 165 -52 100 -57 105 -52 45z"
       id="path34"
       style="fill:#0000cd" />
    <path
       d="M4168 7222 c-55 -61 -58 -113 -15 -237 l14 -39 22 141 c28 179 27 188 -21 135z"
       id="path36"
       style="fill:#0000cd" />
    <path
       d="M5287 7214 c-22 -30 -19 -53 8 -68 11 -6 22 -12 25 -14 2 -2 -2 -7 -10 -12 -11 -7 -8 -10 13 -10 25 0 27 3 27 43 0 39 -21 87 -38 87 -4 0 -15 -12 -25 -26z"
       id="path38"
       style="fill:#a52a2a" />
    <path
       d="M5096 7141 c-3 -5 2 -23 10 -41 20 -39 39 -26 29 19 -6 29 -27 41 -39 22z"
       id="path40"
       style="fill:#4b0082" />
    <path
       d="M5492 7095 c-20 -90 -24 -139 -12 -185 7 -25 15 -70 19 -100 l6 -55 15 50 c20 68 20 257 -1 305 l-16 35 -11 -50z"
       id="path42"
       style="fill:#0000cd" />
    <path
       d="M4276 7057 c-20 -34 -53 -115 -74 -179 -35 -112 -52 -143 -52 -98 0 20 -3 19 -43 -8 -66 -46 -116 -58 -182 -43 -30 7 -69 24 -85 38 -24 20 -30 22 -30 8 0 -20 41 -58 86 -80 56 -26 99 -29 150 -10 67 25 66 10 -1 -21 -146 -67 -341 -32 -420 76 l-25 34 0 -46 c0 -51 24 -89 72 -114 28 -14 31 -14 43 3 13 17 16 17 68 -11 l54 -30 99 27 c117 31 153 19 41 -14 -43 -12 -74 -26 -70 -32 7 -12 75 -3 168 24 l75 22 0 44 c0 52 14 83 37 83 9 0 40 -21 69 -46 78 -66 87 -52 50 76 -20 70 -20 127 0 252 9 55 14 102 12 104 -3 2 -21 -24 -42 -59z"
       id="path44"
       style="fill:#800000" />
    <path
       d="M5162 7079 c1 -12 9 -24 16 -27 9 -3 13 3 10 19 -1 12 -9 24 -16 27 -9 3 -13 -3 -10 -19z"
       id="path46"
       style="fill:#4b0082" />
    <path
       d="M4680 7065 c0 -14 8 -29 20 -35 23 -12 25 -3 8 35 -14 32 -28 32 -28 0z"
       id="path48"
       style="fill:#4b0082" />
    <path
       d="M4079 7075 c-4 -5 -12 -35 -19 -65 -31 -135 -78 -149 -66 -20 l6 55 -15 -50 c-22 -76 -17 -166 14 -214 14 -22 60 -5 102 38 l37 37 -23 95 c-12 53 -25 104 -27 115 -2 10 -6 15 -9 9z"
       id="path50"
       style="fill:#0000cd" />
    <path
       d="M4578 7025 c-3 -14 -2 -25 2 -25 14 0 32 29 25 40 -11 17 -22 11 -27 -15z"
       id="path52"
       style="fill:#4b0082" />
    <path
       d="M4179 6673 c-16 -42 -2 -106 49 -227 25 -61 41 -111 36 -113 -36 -12 -79 -41 -82 -54 -2 -10 22 -36 61 -68 36 -28 68 -51 71 -51 3 0 6 24 6 54 0 30 5 67 10 82 9 23 15 26 40 20 36 -7 36 -13 5 134 l-23 115 -54 48 c-29 26 -65 57 -80 68 l-28 20 -11 -28z"
       id="path54"
       style="fill:#00bfff" />
    <path
       d="M3730 6594 c0 -4 18 -38 40 -76 22 -39 38 -73 35 -78 -3 -4 -25 -11 -50 -14 -25 -4 -45 -13 -45 -19 0 -7 35 -31 78 -54 42 -23 86 -48 97 -57 20 -14 19 -15 -12 -46 -18 -18 -30 -36 -27 -41 6 -10 60 -25 127 -34 52 -7 54 -12 21 -77 -19 -37 -18 -38 19 -31 28 5 87 29 87 36 0 1 -47 49 -103 107 -109 111 -170 203 -183 275 -9 52 -29 92 -53 105 -23 12 -31 13 -31 4z"
       id="path56"
       style="fill:#66cdaa" />
    <path
       d="M4536 6548 c17 -89 75 -168 155 -209 l41 -20 -7 23 c-22 68 -100 171 -166 219 l-29 20 6 -33z"
       id="path58"
       style="fill:#40e0d0" />
    <path
       d="M4020 6538 c-83 -17 -100 -18 -135 -6 -22 7 -42 12 -45 10 -11 -6 4 -70 27 -117 71 -141 193 -263 309 -309 74 -30 91 -31 119 -10 20 15 20 16 -3 32 -89 65 -120 94 -132 121 -14 36 -6 52 41 77 l28 14 -30 83 c-34 93 -54 127 -72 126 -6 0 -55 -10 -107 -21z"
       id="path60"
       style="fill:#00bfff" />
    <path
       d="M4650 6540 c0 -11 26 -62 57 -112 l57 -93 8 40 c11 51 19 58 52 45 21 -8 32 -7 48 4 19 14 13 18 -101 75 -108 55 -121 59 -121 41z"
       id="path62"
       style="fill:#008b8b" />
    <path
       d="M5124 6541 c-60 -37 -130 -155 -102 -172 24 -15 37 -9 54 24 21 40 59 92 98 135 l30 32 -25 0 c-13 0 -38 -9 -55 -19z"
       id="path64"
       style="fill:#008b8b" />
    <path
       d="M4390 6498 c0 -43 16 -100 46 -168 23 -51 34 -61 147 -138 67 -45 127 -82 133 -82 7 0 26 13 43 29 25 23 31 37 31 70 0 22 -6 45 -12 51 -22 18 -158 99 -158 93 0 -3 14 -23 31 -44 41 -53 21 -50 -28 4 -45 49 -85 115 -102 168 -10 31 -17 37 -49 43 -74 12 -82 9 -82 -26z"
       id="path66"
       style="fill:#008b8b" />
    <path
       d="M5245 6505 c-52 -14 -95 -31 -102 -41 -7 -10 -13 -41 -13 -69 0 -29 -5 -66 -11 -83 -8 -25 -7 -42 6 -82 l17 -51 60 3 c79 4 95 24 55 66 l-28 29 40 63 c36 56 81 156 81 180 0 12 3 13 -105 -15z"
       id="path68"
       style="fill:#008b8b" />
    <path
       d="M5521 6514 c-12 -9 -52 -20 -88 -24 -87 -11 -111 -45 -53 -75 33 -17 47 -13 107 32 32 24 68 71 61 79 -2 2 -14 -4 -27 -12z"
       id="path70"
       style="fill:#66cdaa" />
    <path
       d="M4960 6453 c-85 -50 -102 -73 -80 -114 10 -18 13 -18 40 -4 31 16 67 59 94 113 21 40 8 42 -54 5z"
       id="path72"
       style="fill:#008b8b" />
    <path
       d="M4804 6345 c4 -38 10 -78 12 -87 7 -22 43 -23 51 -2 9 24 -24 118 -48 140 l-22 19 7 -70z"
       id="path74"
       style="fill:#ffdab9" />
    <path
       d="M5306 6350 l-37 -63 26 -27 c14 -14 25 -29 25 -34 0 -4 -15 -27 -34 -52 -26 -34 -36 -58 -41 -105 -4 -33 -5 -62 -3 -65 7 -6 106 29 168 61 68 34 137 83 144 102 3 8 -17 37 -49 71 -30 31 -78 83 -108 116 l-53 58 -38 -62z"
       id="path76"
       style="fill:#00bfff" />
    <path
       d="M3640 6309 c-41 -42 -53 -42 -24 -1 9 13 14 25 13 26 -2 2 -35 0 -74 -5 -38 -4 -115 -13 -170 -18 -129 -13 -179 -30 -184 -62 -11 -79 142 -541 199 -599 24 -24 28 -35 23 -63 -5 -31 -1 -38 36 -67 44 -36 53 -55 21 -45 -11 3 -20 3 -20 -2 0 -4 -7 -50 -15 -102 -12 -70 -13 -97 -4 -107 13 -16 57 -18 93 -4 22 8 25 16 28 62 3 51 4 53 34 56 30 3 32 6 37 54 7 52 29 88 55 88 7 0 30 -16 49 -35 29 -29 38 -33 58 -25 33 13 51 4 65 -31 11 -26 37 -49 54 -49 18 0 0 47 -44 113 -27 42 -57 91 -66 109 -9 18 -31 45 -49 60 -27 23 -42 53 -85 178 -29 83 -56 153 -60 155 -4 3 -25 -5 -47 -17 -39 -21 -41 -21 -85 -5 -51 20 -112 69 -159 128 -49 62 -27 57 38 -9 63 -64 126 -102 170 -102 26 1 27 2 9 15 -30 23 -10 32 56 24 35 -3 89 -9 120 -13 l57 -6 -19 33 c-11 18 -25 68 -33 112 -8 50 -16 73 -20 61 -4 -9 -11 -15 -17 -11 -6 4 5 34 25 76 l35 69 -30 0 c-22 0 -41 -11 -70 -41z"
       id="path78"
       style="fill:#008b8b" />
    <path
       d="M4986 6319 c-55 -27 -86 -58 -86 -87 l0 -25 25 23 c15 14 43 26 68 29 34 5 43 10 45 28 2 12 0 29 -5 37 -7 12 -14 11 -47 -5z"
       id="path80"
       style="fill:#ffdab9" />
    <path
       d="M4348 6233 c-3 -27 2 -110 10 -185 13 -115 13 -150 3 -220 -18 -113 -14 -134 23 -130 44 5 239 80 252 98 7 8 9 24 7 35 -6 21 -15 21 -75 3 -34 -10 -18 15 17 27 19 7 35 19 35 26 0 21 -38 53 -62 53 -17 0 -19 -3 -9 -9 7 -5 12 -14 10 -20 -5 -12 -69 35 -69 51 0 7 18 9 50 5 l51 -6 -6 33 c-4 20 -1 47 9 71 9 21 15 39 14 40 -2 0 -58 40 -126 88 -67 48 -124 87 -126 87 -2 0 -6 -21 -8 -47z"
       id="path82"
       style="fill:#3cb371" />
    <path
       d="M4420 6266 c0 -3 46 -36 103 -74 121 -81 127 -85 127 -78 0 3 -46 36 -102 74 -122 81 -128 85 -128 78z"
       id="path84"
       style="fill:#008b8b" />
    <path
       d="M4936 6214 c-23 -24 -26 -35 -26 -95 0 -38 4 -69 10 -69 5 0 19 31 30 70 21 71 38 90 81 90 18 0 19 2 9 15 -20 24 -74 19 -104 -11z"
       id="path86"
       style="fill:#ffdab9" />
    <path
       d="M4817 6213 c-21 -20 9 -237 39 -285 14 -23 124 64 124 98 0 21 -38 17 -57 -6 -10 -11 -21 -20 -25 -20 -5 0 -8 35 -8 79 0 117 -7 141 -40 141 -14 0 -30 -3 -33 -7z"
       id="path88"
       style="fill:#ffdab9" />
    <path
       d="M4984 6153 c-9 -20 -16 -48 -17 -62 -2 -22 3 -26 31 -29 36 -4 44 13 10 24 -20 6 -20 8 11 18 50 16 62 42 32 67 -34 28 -50 24 -67 -18z"
       id="path90"
       style="fill:#ffdab9" />
    <path
       d="M5574 6143 c-42 -24 -98 -73 -91 -79 10 -10 120 16 175 41 63 29 61 44 -10 52 -30 3 -53 -1 -74 -14z"
       id="path92"
       style="fill:#66cdaa" />
    <path
       d="M4632 6074 c-30 -21 -28 -49 10 -177 29 -93 36 -107 53 -105 19 3 20 9 17 133 -2 72 -6 138 -8 148 -7 21 -42 22 -72 1z"
       id="path94"
       style="fill:#3cb371" />
    <path
       d="M4730 6022 c0 -40 35 -124 78 -189 l14 -23 27 21 c60 47 130 87 184 108 l59 21 -4 -55 c-1 -30 0 -55 4 -55 10 0 73 81 92 118 30 59 10 59 -23 0 -18 -32 -35 -58 -38 -58 -2 0 -1 20 3 45 5 36 3 46 -10 51 -18 7 -240 -97 -273 -128 -13 -12 -24 -20 -26 -17 -2 2 -18 45 -37 94 -39 109 -50 123 -50 67z"
       id="path96"
       style="fill:#add8e6" />
    <path
       d="M5371 6019 c-25 -11 -40 -23 -35 -28 28 -26 184 -60 184 -41 0 20 -33 61 -61 76 -34 17 -34 17 -88 -7z"
       id="path98"
       style="fill:#66cdaa" />
    <path
       d="M3968 5980 c-26 -36 -41 -37 -193 -11 -60 10 -111 18 -113 16 -2 -1 7 -29 18 -61 12 -33 26 -75 32 -94 18 -62 57 -129 88 -152 17 -12 30 -30 30 -40 0 -9 13 -32 28 -50 16 -18 41 -57 57 -85 15 -29 31 -53 34 -52 3 0 20 19 36 41 46 64 79 83 135 82 47 0 49 1 44 23 -4 13 -1 58 6 101 11 71 10 86 -11 182 -27 119 -37 130 -121 130 -41 0 -50 -4 -70 -30z"
       id="path100"
       style="fill:#778899" />
    <path
       d="M4206 5995 c-16 -12 -18 -23 -12 -77 3 -34 13 -87 22 -118 14 -51 14 -60 0 -94 -24 -56 -15 -66 63 -66 36 0 84 6 106 12 l40 13 -42 3 c-64 5 -66 12 -52 153 l13 122 -40 33 c-42 36 -68 41 -98 19z"
       id="path102"
       style="fill:#66cdaa" />
    <path
       d="M5221 5954 c-28 -35 -27 -40 10 -48 46 -9 99 -7 99 3 0 18 -52 71 -70 71 -10 0 -28 -12 -39 -26z"
       id="path104"
       style="fill:#3cb371" />
    <path
       d="M5340 5943 c0 -5 4 -14 9 -21 7 -11 9 -11 14 1 3 8 3 18 0 21 -9 8 -23 7 -23 -1z"
       id="path106"
       style="fill:none" />
    <path
       d="M5025 5912 c-63 -27 -98 -48 -153 -91 -28 -23 -53 -41 -56 -41 -2 0 -21 30 -41 66 -20 36 -38 64 -40 62 -7 -7 23 -133 40 -174 13 -29 18 -80 21 -199 11 -352 26 -424 114 -519 49 -53 94 -72 134 -56 35 13 172 124 193 156 11 17 15 45 14 92 -1 70 27 221 54 285 9 21 13 43 9 48 -3 6 -26 19 -50 29 -46 20 -62 46 -21 35 l22 -6 -24 20 c-30 27 -108 29 -118 5 -3 -9 1 -81 10 -161 14 -127 19 -147 41 -174 32 -37 40 -68 32 -114 -11 -59 -29 -54 -21 7 6 44 4 57 -10 68 -14 12 -18 12 -25 0 -5 -8 -12 -11 -16 -8 -3 4 -16 101 -27 215 -11 114 -21 210 -23 212 -2 2 -15 -10 -29 -25 l-26 -29 26 52 c14 29 25 61 25 72 0 10 13 44 29 75 17 31 28 56 26 56 -3 0 -18 -19 -35 -41 -36 -50 -46 -37 -36 47 3 30 5 54 4 53 -2 0 -21 -8 -43 -17z"
       id="path108"
       style="fill:#008b8b" />
    <path
       d="M5157 5846 l-26 -41 22 -3 c12 -2 29 -10 38 -18 14 -13 18 -13 29 1 15 18 28 19 61 1 26 -13 26 -12 43 33 21 59 21 58 -12 53 -15 -2 -51 0 -78 6 l-51 9 -26 -41z"
       id="path110"
       style="fill:#3cb371" />
    <path
       d="M5127 5763 c-4 -3 -7 -22 -7 -42 1 -32 2 -34 14 -18 18 24 24 21 18 -8 -4 -21 -1 -25 20 -25 14 0 39 -5 56 -11 22 -7 36 -7 51 1 23 12 28 1 9 -18 -14 -14 16 -52 42 -52 21 0 34 27 17 34 -8 3 -3 11 12 24 31 25 20 42 -27 43 -20 1 -48 4 -61 8 l-24 7 29 19 29 19 -29 11 c-24 10 -34 9 -58 -4 -27 -15 -30 -15 -42 2 -13 17 -37 22 -49 10z"
       id="path112"
       style="fill:#3cb371" />
    <path
       d="M4578 5731 c-56 -22 -100 -51 -155 -105 -49 -46 -52 -56 -19 -56 35 0 88 -41 115 -89 18 -34 26 -40 32 -28 12 20 109 279 109 289 0 13 -31 9 -82 -11z"
       id="path114"
       style="fill:#66cdaa" />
    <path
       d="M4702 5588 c-18 -88 -30 -164 -27 -167 3 -3 26 6 50 19 l45 25 -4 120 c-3 100 -14 165 -29 165 -2 0 -18 -73 -35 -162z"
       id="path116"
       style="fill:#66cdaa" />
    <path
       d="M4295 5613 c-22 -2 -50 -5 -61 -8 -27 -6 -54 -62 -54 -112 0 -43 33 -123 51 -123 6 0 62 30 125 67 130 77 135 93 28 93 -39 0 -64 4 -64 11 0 6 12 26 26 45 23 30 24 34 8 32 -11 -1 -37 -3 -59 -5z"
       id="path118"
       style="fill:#6a5acd" />
    <path
       d="M4080 5533 c-52 -19 -104 -109 -80 -138 26 -31 100 -9 139 41 46 59 8 121 -59 97z"
       id="path120"
       style="fill:#6a5acd" />
    <path
       d="M4573 5438 l-31 -63 -23 48 c-22 45 -26 48 -54 43 -34 -7 -152 -75 -192 -112 l-28 -24 40 -36 c39 -35 42 -36 99 -30 66 7 113 -10 145 -50 24 -30 169 -90 183 -76 11 11 25 272 14 272 -4 0 -27 -14 -52 -30 -24 -17 -44 -27 -44 -23 1 4 7 35 15 68 11 46 11 61 2 67 -28 18 -44 6 -74 -54z"
       id="path122"
       style="fill:#6a5acd" />
    <path
       d="M4084 5372 l-72 -37 18 -45 c11 -25 19 -60 19 -78 1 -40 44 -127 102 -206 l44 -58 8 62 c10 78 39 149 78 186 16 15 29 31 29 34 0 4 -24 31 -53 61 -29 30 -64 68 -77 86 l-25 32 -71 -37z"
       id="path124"
       style="fill:#6a5acd" />
    <path
       d="M3073 5205 c9 -210 62 -364 179 -519 139 -185 431 -336 649 -336 175 0 380 115 416 234 l11 36 -54 -49 c-60 -55 -125 -84 -230 -102 -181 -31 -355 24 -521 165 -163 137 -225 264 -227 458 0 90 -3 108 -16 108 -30 1 -105 42 -158 87 l-55 47 6 -129z"
       id="path126"
       style="fill:#8a2be2" />
    <path
       d="M3336 5197 c-17 -12 -18 -26 -14 -128 4 -90 10 -125 28 -169 119 -277 447 -466 705 -406 140 33 226 90 271 177 30 60 30 65 -1 85 -24 15 -27 15 -44 0 -19 -18 -41 -21 -41 -7 0 5 12 18 27 29 l27 20 -83 95 -82 96 -75 -61 c-41 -34 -78 -58 -82 -54 -4 4 4 17 18 29 14 12 47 40 74 63 l48 41 -16 30 c-20 39 -63 58 -101 43 -15 -6 -30 -8 -32 -6 -11 10 10 26 42 32 38 7 40 10 25 48 -8 22 -16 26 -47 26 -76 0 -83 -6 -84 -69 0 -31 -4 -64 -8 -74 -8 -22 -95 -56 -171 -67 -30 -4 -71 -13 -90 -19 -65 -21 -114 -14 -161 22 -84 64 -105 127 -38 113 26 -5 30 -3 25 10 -25 64 -16 77 34 49 34 -19 40 -18 40 5 0 18 -7 20 -60 20 -47 0 -64 4 -80 20 -24 24 -30 24 -54 7z"
       id="path128"
       style="fill:#9400d3" />
    <path
       d="M3560 5165 c0 -2 -7 -30 -15 -61 -11 -42 -12 -61 -4 -71 14 -16 51 -17 68 0 11 10 11 8 1 -9 -15 -25 -7 -54 14 -54 8 0 28 12 45 26 17 14 31 21 31 15 0 -23 51 -24 81 -1 17 12 37 19 44 16 8 -3 24 3 36 13 19 15 21 23 15 64 -4 26 -11 47 -15 47 -4 0 -16 -18 -26 -40 -10 -22 -22 -40 -27 -40 -4 0 -8 -6 -8 -14 0 -19 -39 -27 -64 -14 -12 6 -51 37 -88 69 -58 52 -88 70 -88 54z"
       id="path130"
       style="fill:#add8e6" />
    <path
       d="M4368 5153 c-94 -59 -94 -236 1 -327 l29 -28 74 55 c89 67 168 149 168 174 0 36 -29 63 -66 63 -20 0 -44 -4 -54 -10 -16 -8 -20 -5 -30 25 -20 61 -69 80 -122 48z"
       id="path132"
       style="fill:#ff00ff" />
    <path
       d="M4743 5119 c-31 -9 -33 -12 -33 -57 0 -53 -12 -75 -79 -144 -25 -27 -42 -48 -38 -48 22 0 176 85 200 110 29 33 37 93 17 131 -12 21 -19 22 -67 8z"
       id="path134"
       style="fill:#6a5acd" />
    <path
       d="M2820 5036 c0 -27 61 -146 119 -233 70 -105 198 -238 293 -306 130 -93 293 -151 407 -145 l56 3 -70 27 c-161 63 -325 189 -420 322 -50 71 -112 195 -121 243 -8 42 -22 49 -107 56 -37 4 -88 15 -112 26 -34 15 -45 17 -45 7z"
       id="path136"
       style="fill:#7b68ee" />
    <path
       d="M4814 4950 c-12 -5 -24 -12 -27 -17 -3 -4 8 -41 24 -82 17 -40 27 -76 24 -79 -8 -8 -12 -2 -47 76 l-33 72 -33 -31 c-17 -16 -37 -27 -43 -24 -5 4 -23 1 -40 -5 -26 -11 -29 -17 -29 -61 0 -33 -4 -49 -13 -49 -8 0 -11 14 -8 46 3 44 2 46 -20 39 -49 -15 -79 -36 -116 -80 -20 -25 -45 -48 -55 -51 -24 -7 -24 -95 -2 -176 32 -112 141 -198 289 -228 148 -30 340 39 381 137 21 50 17 75 -16 103 -24 20 -43 60 -95 205 -41 112 -73 187 -86 198 -24 19 -25 19 -55 7z"
       id="path138"
       style="fill:#9400d3" />
    <path
       d="M4345 4596 c-4 -15 -5 -59 -2 -97 15 -177 147 -313 345 -355 85 -17 139 -17 225 1 189 40 309 153 348 328 6 31 10 59 7 62 -3 3 -39 0 -81 -7 -67 -10 -77 -14 -77 -32 -1 -37 -36 -100 -77 -137 -83 -75 -252 -108 -380 -75 -169 43 -268 141 -291 287 -8 50 -9 52 -17 25z"
       id="path140"
       style="fill:#8a2be2" />
    <path
       d="M2901 4491 c1 -9 132 -122 204 -176 83 -62 221 -128 340 -161 89 -26 116 -29 245 -29 132 0 151 3 218 27 83 31 127 55 191 106 42 34 131 145 131 163 0 5 -24 -4 -52 -20 -118 -66 -160 -74 -413 -75 -218 -1 -234 0 -300 23 -74 25 -179 76 -230 110 -26 18 -46 21 -145 21 -63 0 -132 4 -152 9 -21 5 -38 6 -37 2z"
       id="path142"
       style="fill:#7b68ee" />
    <path
       d="M4245 4398 c-54 -101 -57 -122 -29 -210 31 -97 168 -208 330 -267 95 -35 266 -63 354 -59 l65 3 -95 71 c-52 39 -119 84 -147 99 -71 38 -279 196 -314 239 -33 39 -99 172 -99 198 0 35 -16 17 -65 -74z"
       id="path144"
       style="fill:#7b68ee" />
    <path
       d="M5275 4321 c-32 -5 -51 -17 -95 -64 -98 -105 -231 -151 -418 -145 -56 2 -102 0 -102 -4 0 -3 26 -23 58 -43 82 -51 148 -68 247 -63 68 4 95 10 159 41 111 53 209 161 241 265 7 24 -4 26 -90 13z"
       id="path146"
       style="fill:#7b68ee" />
    <path
       d="M4115 4238 c-46 -43 -46 -44 -59 -136 -7 -51 -10 -94 -7 -96 3 -2 20 1 38 6 27 7 35 17 53 66 20 52 40 202 27 202 -3 0 -26 -19 -52 -42z"
       id="path148"
       style="fill:#87cefa" />
    <path
       d="M3920 4134 c-98 -31 -224 -46 -332 -38 l-88 7 0 -132 c0 -72 2 -131 4 -131 2 0 28 11 59 25 83 36 205 50 308 36 46 -7 93 -15 105 -17 19 -5 22 2 38 118 10 68 20 131 23 141 6 23 -23 21 -117 -9z"
       id="path150"
       style="fill:#ba55d3" />
    <path
       d="M4166 4063 c-9 -49 -25 -126 -35 -173 -10 -47 -17 -88 -15 -92 2 -3 23 -9 47 -13 23 -4 122 -22 221 -42 98 -19 182 -31 186 -26 8 9 61 146 57 148 -1 1 -27 10 -57 19 -108 35 -217 96 -289 162 -39 36 -73 74 -76 84 -12 38 -23 19 -39 -67z"
       id="path152"
       style="fill:#ba55d3" />
    <path
       d="M3338 4015 c-26 -30 -63 -32 -98 -5 -32 25 -57 25 -122 -1 -81 -31 -86 -40 -60 -94 26 -53 26 -57 10 -53 -15 3 -68 -30 -68 -43 0 -10 49 -24 70 -20 8 1 26 13 40 25 14 13 47 35 73 50 35 20 49 35 54 57 7 35 23 39 23 4 l0 -25 93 6 c50 3 98 7 105 10 16 5 16 86 0 102 -7 7 -31 12 -55 12 -34 0 -48 -6 -65 -25z"
       id="path154"
       style="fill:#4169e1" />
    <path
       d="M4061 3961 c-13 -8 -57 -212 -121 -561 l-19 -105 24 -25 c40 -42 40 -68 0 -143 -38 -71 -38 -83 -10 -214 4 -16 47 -43 70 -43 1 0 5 107 8 238 8 271 26 474 62 687 14 82 25 155 25 162 0 15 -18 17 -39 4z"
       id="path156"
       style="fill:#87cefa" />
    <path
       d="M3310 3889 c-171 -29 -301 -167 -346 -366 -29 -132 -6 -246 56 -278 40 -21 40 -20 40 28 0 109 57 340 92 372 12 11 12 9 -25 -115 -31 -105 -51 -265 -42 -331 4 -27 17 -63 29 -81 21 -32 200 -188 240 -210 17 -9 18 -7 14 40 -4 39 -13 60 -36 87 -65 73 -90 157 -59 199 7 9 41 27 76 39 63 22 63 22 85 82 12 33 32 76 44 95 23 37 29 70 12 70 -5 0 -39 -11 -76 -25 -82 -31 -184 -102 -221 -155 -15 -22 -32 -40 -36 -40 -18 0 32 66 90 119 57 53 108 81 217 121 29 10 29 11 24 81 -3 38 -8 72 -10 75 -3 2 -49 -5 -103 -16 -88 -19 -119 -21 -102 -4 10 11 180 45 195 39 13 -5 14 8 9 80 -2 48 -6 88 -8 89 -11 10 -111 13 -159 5z"
       id="path158"
       style="fill:#87cefa" />
    <path
       d="M3716 3879 c-79 -9 -177 -43 -201 -69 -16 -17 -16 -29 -1 -164 9 -81 16 -173 16 -206 0 -71 -25 -202 -47 -244 -10 -20 -14 -49 -11 -92 3 -52 10 -72 40 -116 121 -175 270 -83 341 212 56 228 139 642 131 650 -8 7 -189 43 -197 39 -1 -1 -33 -5 -71 -10z"
       id="path160"
       style="fill:#dda0dd" />
    <path
       d="M2861 3785 c-30 -26 -57 -87 -47 -104 4 -5 20 -12 36 -16 28 -6 30 -9 25 -39 -6 -32 -6 -32 29 -28 51 6 44 -4 -16 -23 -67 -22 -88 -41 -88 -78 0 -23 31 -97 58 -137 2 -3 16 9 31 26 27 30 60 137 76 245 6 42 5 47 -17 54 -21 7 -19 9 14 12 25 3 44 13 58 30 27 35 26 40 -20 63 -54 28 -101 26 -139 -5z"
       id="path162"
       style="fill:#4169e1" />
    <path
       d="M4111 3743 c-27 -53 -60 -451 -61 -732 l0 -174 59 56 c33 32 66 57 75 57 17 0 48 -37 66 -80 15 -36 20 -37 64 -8 l33 22 -1 110 c0 106 2 117 43 236 24 69 70 196 104 283 33 86 58 159 56 162 -12 11 -196 58 -279 70 -124 19 -147 19 -159 -2z"
       id="path164"
       style="fill:#dda0dd" />
    <path
       d="M3471 3382 c-11 -21 -23 -55 -26 -76 -4 -21 -13 -39 -19 -41 -6 -2 -37 -11 -69 -20 -79 -22 -90 -45 -52 -117 15 -29 41 -70 57 -90 25 -32 31 -51 39 -130 11 -105 24 -154 44 -162 22 -8 77 11 130 46 42 27 61 32 118 35 75 3 141 27 175 64 28 29 29 91 3 142 -10 20 -15 39 -11 42 21 13 70 101 70 125 0 24 -25 60 -34 49 -1 -2 -8 -31 -14 -64 -12 -61 -76 -201 -110 -242 -135 -157 -308 -43 -347 230 -7 46 0 58 22 36 7 -7 15 7 26 48 19 67 32 163 23 163 -3 0 -14 -17 -25 -38z"
       id="path166"
       style="fill:#6495ed" />
    <path
       d="M2887 3347 c-51 -63 -49 -96 8 -111 49 -14 71 -50 55 -91 -16 -42 -12 -63 15 -81 23 -15 25 -15 50 13 43 47 57 80 45 103 -13 24 -43 26 -65 4 -23 -23 -31 -9 -12 20 15 22 15 25 1 37 -23 19 -47 70 -53 113 l-6 39 -38 -46z"
       id="path168"
       style="fill:#4169e1" />
    <path
       d="M2799 3329 c-45 -63 -69 -139 -69 -219 0 -123 48 -195 165 -251 70 -34 95 -35 151 -10 41 19 124 86 124 101 0 4 -13 10 -29 13 -24 5 -32 14 -40 44 -6 21 -11 53 -11 71 0 17 -2 32 -5 32 -2 0 -23 -20 -46 -45 -48 -52 -66 -55 -100 -19 -21 22 -24 34 -22 90 l2 64 -40 6 c-51 8 -62 29 -53 100 3 30 4 54 1 54 -3 0 -16 -14 -28 -31z"
       id="path170"
       style="fill:#0000ff" />
    <path
       d="M4120 2865 c-35 -36 -68 -65 -73 -65 -5 0 -22 10 -39 21 -16 12 -50 24 -74 27 -42 4 -44 4 -44 -23 0 -33 25 -87 50 -110 18 -16 21 -16 49 5 46 32 90 36 145 11 45 -20 49 -20 79 -4 44 23 107 20 157 -6 29 -15 46 -19 54 -12 17 14 62 100 70 133 5 23 2 27 -23 33 -43 9 -118 -14 -168 -52 -25 -19 -47 -33 -49 -31 -2 2 -17 34 -34 71 -17 37 -31 67 -33 67 -1 0 -32 -29 -67 -65z"
       id="path172"
       style="fill:#8a2be2" />
    <path
       d="M3987 2680 l-40 -41 6 -77 c4 -42 20 -123 36 -180 28 -102 27 -146 -2 -74 -15 36 -16 32 -16 -108 1 -80 4 -251 8 -380 7 -236 -1 -329 -14 -164 -8 95 -22 183 -24 147 -2 -43 -53 -186 -102 -286 -58 -117 -58 -130 -16 -292 14 -52 20 -92 14 -94 -5 -2 -13 2 -17 10 -6 9 -16 4 -36 -20 -15 -18 -50 -46 -79 -62 -83 -47 -98 -108 -42 -164 19 -19 46 -37 61 -41 61 -15 172 45 230 124 69 96 136 256 136 329 0 12 4 24 9 27 5 3 11 -44 13 -107 3 -97 8 -120 32 -175 32 -69 76 -114 129 -131 29 -10 43 -8 88 9 126 50 179 104 179 182 0 45 -12 60 -57 73 -27 8 -43 20 -58 47 l-20 36 -45 -79 c-40 -70 -60 -94 -60 -71 0 4 25 52 56 107 31 55 65 116 75 135 25 45 25 120 -1 170 -31 61 -39 112 -29 197 27 237 37 432 28 533 -5 58 -7 151 -3 207 8 123 1 163 -32 203 -39 46 -89 55 -162 30 l-60 -21 -34 21 c-18 11 -50 20 -72 20 -32 0 -45 -7 -79 -40z m358 4 c26 -10 47 -62 40 -96 -16 -70 -57 -140 -124 -210 -38 -40 -71 -71 -73 -68 -42 52 -129 172 -141 195 -26 52 -31 99 -13 134 21 39 57 49 111 30 37 -14 45 -13 80 3 41 18 91 23 120 12z m-48 -475 c-19 -84 -58 -265 -87 -401 -46 -213 -56 -248 -72 -248 -10 0 -18 1 -18 3 0 1 7 37 15 80 17 92 20 296 4 400 -12 85 -47 275 -55 300 -12 38 25 14 67 -44 l44 -61 65 69 c36 38 66 66 68 63 1 -3 -13 -76 -31 -161z m4 -431 c-46 -173 -89 -270 -169 -381 -51 -71 -49 -51 2 33 55 88 102 200 145 340 42 137 41 134 47 127 3 -3 -8 -56 -25 -119z"
       id="path174"
       style="fill:#6495ed" />
    <path
       d="M4226 2595 l-37 -25 -30 20 c-47 34 -89 8 -70 -43 5 -12 34 -49 64 -82 53 -59 55 -60 75 -42 25 23 82 129 82 154 0 21 -18 43 -36 43 -6 0 -28 -11 -48 -25z"
       id="path176"
       style="fill:#8a2be2" />
    <path
       d="M4240 2248 l-45 -51 -29 42 c-16 23 -30 40 -32 38 -2 -1 6 -57 16 -122 11 -66 23 -172 27 -235 l8 -115 23 110 c13 61 36 171 52 245 15 74 27 136 26 137 -1 1 -22 -21 -46 -49z"
       id="path178"
       style="fill:#8a2be2" />
    <path
       d="M4602 1251 c-21 -37 -26 -38 -40 -6 -13 29 -31 25 -66 -14 l-19 -21 47 0 47 0 -7 -70 -7 -70 37 0 c20 0 36 -4 36 -10 0 -5 -17 -10 -38 -10 -31 0 -41 -5 -50 -24 l-11 -24 79 5 79 6 3 -39 3 -39 17 30 c24 45 38 131 24 151 -10 13 -19 13 -60 4 -32 -7 -53 -7 -59 -1 -7 7 -1 12 17 17 26 6 27 8 24 73 -2 53 -6 66 -21 69 -11 2 -23 -8 -35 -27z"
       id="path180"
       style="fill:#4169e1" />
    <path
       d="M4084 1062 c10 -119 26 -165 59 -176 52 -19 51 3 -4 130 -28 65 -54 121 -56 124 -3 3 -2 -32 1 -78z"
       id="path182"
       style="fill:#4169e1" />
    <path
       d="M3539 1078 c-43 -60 -62 -99 -52 -108 4 -4 29 -15 56 -25 26 -10 47 -22 47 -26 0 -14 -10 -11 -94 23 -77 32 -78 32 -93 13 -34 -46 24 -220 80 -239 22 -8 31 -6 49 11 13 11 58 38 101 60 69 34 77 41 63 52 -16 13 -62 12 -126 -4 -15 -3 -7 4 18 17 35 18 42 26 36 43 -13 41 -16 93 -5 113 9 17 7 30 -11 67 -12 25 -26 45 -30 45 -4 0 -22 -19 -39 -42z"
       id="path184"
       style="fill:#4169e1" />
    <path
       d="M4030 1058 c-61 -142 -62 -144 -69 -125 -5 13 -23 -7 -80 -88 -41 -57 -78 -102 -83 -99 -9 6 -7 11 34 72 16 23 26 42 22 42 -3 0 -51 -21 -105 -47 -74 -34 -98 -50 -95 -62 2 -9 10 -40 17 -70 8 -29 19 -56 27 -58 27 -11 59 14 66 50 8 41 21 48 71 40 30 -5 41 -1 66 23 26 25 29 34 24 65 -6 34 -4 38 42 71 49 35 49 36 71 133 13 54 21 99 19 102 -2 2 -15 -20 -27 -49z"
       id="path186"
       style="fill:#4169e1" />
    <path
       d="M4532 971 c-34 -10 -66 -21 -69 -25 -4 -3 9 -22 27 -41 42 -43 21 -46 -27 -4 -27 23 -38 28 -47 19 -8 -9 1 -23 37 -56 27 -24 46 -48 42 -53 -3 -6 0 -20 7 -33 7 -13 14 -24 15 -26 0 -2 15 3 31 12 21 11 43 41 76 105 25 49 46 96 46 105 0 22 -56 20 -138 -3z"
       id="path188"
       style="fill:#4169e1" />
    <path
       d="M4051 928 c-6 -19 -23 -50 -37 -69 -14 -19 -33 -52 -43 -74 -28 -60 -61 -86 -123 -93 -45 -6 -53 -10 -56 -29 -2 -12 -17 -34 -34 -48 -30 -25 -88 -154 -88 -196 0 -54 94 -153 188 -197 50 -24 69 -27 162 -27 99 0 109 2 178 34 40 19 80 44 88 55 21 30 18 162 -7 296 -20 106 -25 119 -62 160 -21 25 -48 62 -58 82 -11 21 -28 42 -40 48 -11 7 -29 30 -39 52 l-18 40 -11 -34z"
       id="path190"
       style="fill:#0000ff" />
    <path
       d="M4227 838 c3 -46 8 -86 12 -90 3 -4 28 0 54 10 l48 17 29 -35 c27 -33 29 -34 48 -17 10 10 27 33 37 51 18 32 18 35 1 61 -36 56 -115 79 -138 42 -7 -12 -13 -10 -75 30 l-21 14 5 -83z"
       id="path192"
       style="fill:#4169e1" />
    <path
       d="M3654 304 c14 -104 76 -186 175 -233 47 -22 70 -26 141 -26 91 1 145 18 223 72 36 25 95 108 85 119 -3 2 -31 -9 -63 -25 -83 -42 -174 -57 -257 -42 -97 17 -129 33 -215 111 -43 38 -82 70 -87 70 -5 0 -6 -21 -2 -46z"
       id="path194"
       style="fill:#000080" />
  </g>
</svg>
