<?xml version="1.0" standalone="no"?>
<!DOCTYPE svg PUBLIC "-//W3C//DTD SVG 20010904//EN"
 "http://www.w3.org/TR/2001/REC-SVG-20010904/DTD/svg10.dtd">
<svg version="1.0" xmlns="http://www.w3.org/2000/svg"
 width="850.000000pt" height="850.000000pt" viewBox="0 0 850.000000 850.000000"
 preserveAspectRatio="xMidYMid meet">
<metadata>
Created by potrace 1.14, written by Peter Selinger 2001-2017
</metadata>
<g transform="translate(0.000000,850.000000) scale(0.100000,-0.100000)"
fill="#000000" stroke="none">
<path d="M3946 8484 c-55 -17 -82 -33 -144 -82 -49 -39 -47 -65 2 -27 109 83
308 77 434 -15 44 -32 95 -125 107 -194 l7 -40 -41 37 c-23 20 -55 39 -76 43
-51 9 -144 -1 -180 -20 -18 -9 -55 -16 -90 -16 -123 0 -294 -58 -413 -138 -82
-56 -206 -175 -257 -246 -41 -58 -79 -142 -104 -231 -9 -32 -25 -50 -81 -93
-118 -90 -221 -123 -281 -92 -36 20 -14 107 46 178 51 61 7 51 -54 -11 -55
-58 -54 -163 3 -216 35 -33 137 -31 230 4 61 23 68 24 63 8 -3 -10 -19 -56
-36 -103 -62 -171 -24 -348 100 -472 l49 -49 -69 -96 c-95 -132 -120 -223 -91
-323 6 -19 15 -71 20 -115 5 -44 19 -106 31 -138 12 -32 20 -59 18 -62 -3 -2
-76 -7 -165 -11 -196 -8 -205 -5 -349 121 -131 114 -131 114 -194 79 -32 -17
-54 -36 -57 -50 -3 -13 -12 -28 -20 -35 -8 -6 -14 -20 -14 -29 0 -10 -16 -32
-35 -48 l-35 -29 14 -44 c8 -24 18 -57 23 -74 11 -39 24 -38 43 2 14 30 19 33
61 33 41 0 51 -5 105 -54 91 -82 103 -86 251 -86 121 0 373 -13 510 -26 l61
-5 7 -52 c4 -29 15 -87 26 -130 11 -43 17 -82 14 -87 -3 -5 -38 -27 -78 -49
-39 -22 -99 -61 -132 -86 -105 -80 -185 -112 -307 -125 -260 -26 -430 -103
-598 -269 -124 -123 -235 -325 -273 -496 -43 -192 -52 -743 -13 -782 12 -13
13 4 3 81 -9 67 -8 90 7 150 51 197 121 328 266 495 152 174 319 276 619 376
89 30 167 55 171 55 28 0 10 -132 -28 -205 -9 -16 -16 -55 -17 -85 -2 -86 -17
-204 -27 -217 -6 -7 -45 -33 -89 -58 -85 -49 -99 -66 -99 -117 0 -31 -9 -40
-145 -142 -227 -169 -578 -488 -656 -595 -51 -71 -52 -117 -5 -240 51 -131 72
-168 115 -196 36 -24 53 -27 247 -40 468 -33 660 -59 1015 -140 167 -38 390
-94 419 -106 14 -5 54 -50 89 -99 36 -50 121 -148 191 -218 228 -231 459 -494
651 -740 104 -134 189 -253 189 -263 0 -11 -13 -74 -30 -139 -16 -65 -30 -128
-30 -139 0 -14 24 -33 88 -70 48 -28 92 -51 99 -51 6 0 32 24 58 52 l47 53 -4
-45 c-3 -25 -11 -66 -18 -93 -13 -43 -12 -51 3 -80 10 -17 35 -51 57 -74 36
-40 40 -42 70 -32 17 6 32 10 33 8 17 -26 79 -203 84 -235 3 -24 -2 -85 -12
-139 -23 -132 -18 -214 20 -290 29 -57 32 -60 71 -63 35 -3 46 2 86 38 93 81
158 214 158 323 0 27 -12 95 -26 149 l-27 98 27 21 c37 29 55 69 62 137 6 57
6 58 -43 122 -38 52 -62 72 -112 96 -46 23 -67 40 -76 61 -7 17 -20 33 -29 36
-12 5 -16 21 -16 69 0 41 -7 78 -20 106 -21 45 -180 284 -228 342 -29 34 -30
35 -67 22 -20 -8 -38 -12 -39 -10 -2 1 -35 60 -74 130 -133 238 -254 422 -372
568 -18 22 -19 30 -9 58 6 17 14 32 19 32 4 0 53 -48 109 -106 90 -93 108
-118 147 -202 25 -53 54 -107 66 -119 24 -26 119 -66 145 -61 47 9 55 179 15
321 -11 37 -16 67 -11 67 4 0 58 -17 121 -39 114 -39 348 -149 408 -191 l32
-23 -6 84 c-4 46 -11 175 -16 287 -11 234 -25 308 -81 452 -22 58 -56 148 -75
200 l-34 95 1 205 c1 209 -3 249 -43 370 -28 88 -60 149 -130 251 -105 155
-234 286 -328 334 -25 12 -119 48 -210 80 -91 31 -172 61 -180 66 -10 5 11 9
56 9 76 0 156 -19 207 -51 48 -29 52 -24 21 29 -47 80 -98 144 -167 209 -94
87 -145 120 -276 175 -64 27 -122 52 -128 55 -23 10 -13 20 25 27 55 9 134 49
181 91 23 21 43 36 45 34 11 -12 -41 -116 -75 -150 -22 -22 -35 -39 -30 -39
24 0 166 53 202 76 23 14 45 22 49 17 5 -4 61 -102 125 -217 104 -187 125
-219 208 -307 120 -127 377 -355 544 -481 124 -94 131 -101 122 -124 -14 -38
-11 -50 15 -81 l24 -27 54 17 55 17 67 -35 c78 -40 127 -44 247 -20 41 8 139
22 219 30 151 16 186 29 161 59 -7 8 -35 20 -63 27 l-52 12 37 29 c33 27 37
35 37 76 -1 61 -15 121 -33 139 -12 13 -19 12 -52 -1 -20 -9 -48 -13 -61 -10
-17 5 -36 -2 -64 -21 -55 -38 -103 -53 -203 -61 -84 -6 -87 -6 -87 14 0 45
-62 68 -112 41 -18 -10 -29 -2 -95 62 -41 41 -168 179 -281 308 -114 129 -233
255 -265 280 -48 37 -67 61 -99 124 l-39 79 99 102 c155 160 197 270 197 521
-1 114 -5 156 -23 223 -24 89 -86 232 -124 285 l-23 32 42 -33 c182 -143 285
-345 287 -562 1 -118 -18 -186 -79 -275 -25 -36 -45 -68 -45 -72 0 -12 51 40
102 104 41 52 55 82 84 175 19 62 45 162 56 221 20 98 21 117 10 195 -15 101
-57 200 -121 279 -39 48 -201 179 -336 270 -79 53 -188 151 -231 206 -34 43
-38 57 -70 222 -15 79 -15 119 2 383 6 81 9 92 23 86 9 -3 38 -15 65 -26 137
-54 198 -99 232 -173 37 -79 30 -142 -24 -198 -35 -37 -74 -57 -112 -57 -40 0
-38 -16 4 -30 67 -22 167 47 182 126 3 19 4 69 2 110 -4 59 -12 89 -42 149
-42 85 -80 120 -214 199 -44 26 -84 52 -89 59 -5 7 -19 62 -31 122 -51 262
-219 463 -450 541 l-62 21 24 16 c71 47 201 47 287 1 47 -26 129 -111 129
-135 0 -5 4 -9 9 -9 14 0 -5 66 -33 114 -77 131 -258 174 -393 94 l-33 -20 0
59 c0 109 -66 200 -189 260 -68 34 -189 41 -265 17z m261 -37 c109 -56 161
-125 169 -226 l5 -56 -24 61 c-30 78 -58 117 -112 154 -64 44 -141 71 -225 78
-65 5 -70 7 -40 13 71 15 172 4 227 -24z m46 -271 c18 -7 40 -22 50 -34 18
-20 18 -20 -20 -7 -81 29 -210 13 -287 -35 -45 -29 -46 -29 -31 -6 18 27 87
75 124 86 42 13 129 11 164 -4z m-310 -83 c-41 -54 -76 -128 -70 -146 2 -7 13
7 25 29 37 73 115 124 216 143 77 14 159 4 201 -25 18 -12 60 -28 92 -34 268
-56 460 -285 509 -610 7 -43 6 -44 -12 -29 -102 84 -124 99 -124 89 0 -24 70
-79 217 -170 166 -103 193 -126 234 -189 36 -56 38 -73 3 -32 -34 40 -117 90
-239 141 -55 23 -126 56 -159 72 -32 16 -61 27 -64 24 -3 -3 -3 -7 -1 -9 2 -2
35 -23 72 -47 l68 -43 -6 -51 c-4 -28 -7 -135 -8 -238 -1 -102 -6 -180 -10
-172 -14 24 -47 166 -47 200 0 18 -4 36 -10 39 -15 9 -12 -62 5 -143 34 -164
110 -325 189 -406 28 -28 132 -112 231 -186 291 -217 366 -305 402 -473 13
-61 13 -87 3 -172 -16 -130 -29 -161 -29 -73 -1 114 -18 84 -24 -45 -4 -67
-12 -147 -19 -177 -13 -54 -13 -53 -13 75 0 144 -18 223 -77 340 -52 102 -88
143 -258 289 -91 77 -184 160 -207 183 -23 23 -45 38 -48 34 -2 -5 43 -57 102
-117 121 -124 170 -193 212 -303 57 -149 65 -193 66 -366 0 -140 -3 -169 -23
-235 -27 -84 -75 -180 -103 -206 -18 -16 -18 -15 1 38 24 70 34 146 22 177 -7
21 -10 14 -16 -43 -4 -37 -15 -90 -26 -118 -22 -58 -80 -158 -92 -158 -5 0 -5
8 1 18 5 9 17 52 26 96 31 140 5 298 -90 542 -72 184 -92 224 -207 425 -46 80
-92 171 -102 202 -20 65 -38 76 -29 20 8 -55 37 -115 162 -332 73 -127 120
-223 137 -275 35 -111 51 -265 37 -358 -9 -68 -48 -178 -62 -178 -3 0 -32 63
-64 140 -62 151 -106 302 -137 475 -15 81 -30 131 -60 190 -39 79 -74 116
-205 219 -16 13 -39 39 -49 56 -16 27 -10 24 30 -18 51 -52 96 -72 166 -72 27
0 40 5 48 20 14 26 5 40 -24 40 -42 0 -126 31 -153 56 l-28 25 40 -25 c22 -14
47 -26 57 -26 19 0 58 45 58 69 0 47 -70 111 -121 111 -19 0 -11 11 45 67 75
75 141 196 170 309 14 53 23 255 12 243 -2 -2 -9 -45 -15 -94 -15 -126 -35
-196 -86 -300 -53 -112 -100 -157 -249 -245 -135 -80 -212 -150 -251 -226 -16
-31 -31 -52 -33 -46 -9 29 -17 7 -18 -45 0 -68 -28 -189 -52 -225 -17 -25 -17
-25 -18 51 -1 58 -9 95 -31 157 -42 112 -56 197 -43 265 20 103 111 218 191
239 21 6 83 15 139 20 80 8 115 16 167 41 164 78 283 271 283 457 0 58 -37
214 -56 238 -15 18 -15 18 -10 -6 30 -127 39 -218 28 -299 -24 -180 -129 -325
-274 -377 -41 -15 -318 -57 -325 -50 -2 2 54 41 124 86 167 107 220 154 266
231 40 68 80 183 92 263 11 80 -11 45 -35 -56 -13 -51 -34 -116 -47 -145 -25
-55 -101 -146 -137 -165 -14 -8 -9 2 15 29 20 22 42 56 48 74 49 153 56 529 9
529 -6 0 -7 -7 -3 -17 5 -10 9 -65 11 -123 l3 -105 -23 110 c-38 172 -73 266
-122 324 -39 47 -47 37 -13 -18 34 -55 104 -267 125 -381 7 -41 13 -106 14
-143 l0 -68 -91 68 c-101 75 -202 164 -195 171 9 8 104 -29 161 -64 70 -41 85
-35 30 12 -49 42 -136 89 -191 103 -50 13 -54 18 -86 101 -45 113 -51 166 -34
267 9 48 16 94 16 101 0 21 -47 13 -77 -12 -39 -33 -24 -42 18 -10 33 24 34
24 37 4 9 -59 -104 -363 -172 -459 -38 -55 -131 -161 -141 -161 -2 0 12 27 31
61 71 121 113 225 133 333 14 74 -2 53 -33 -45 -17 -50 -55 -144 -86 -208
l-57 -116 -20 45 c-15 35 -17 46 -6 48 18 5 17 8 -12 46 -23 31 -25 41 -25
145 0 115 15 195 60 325 22 66 24 80 11 71 -25 -15 -72 -172 -86 -285 -13
-104 -28 -170 -38 -170 -1 0 -28 9 -60 20 -31 11 -68 20 -82 20 -14 0 -25 3
-25 8 0 15 90 165 126 208 20 25 34 47 31 50 -11 11 -107 -111 -143 -181 -36
-71 -42 -76 -81 -87 -52 -13 -56 -28 -8 -28 39 0 41 -6 20 -65 -8 -22 -15 -55
-15 -72 0 -31 -1 -32 -32 -27 l-33 6 34 -29 33 -30 -28 -21 -29 -21 28 -1 c25
0 27 -3 27 -40 0 -44 52 -164 102 -237 16 -24 26 -43 23 -43 -22 0 -125 83
-172 139 -141 166 -159 334 -59 546 75 159 169 266 315 361 24 15 38 30 32 32
-15 5 -107 -49 -158 -93 -54 -46 -155 -180 -193 -256 -26 -50 -39 -63 -97 -97
-77 -45 -126 -62 -165 -59 -16 1 -28 3 -28 3 0 1 24 13 53 28 61 29 179 127
250 206 49 54 57 82 12 40 -27 -25 -32 -21 -14 11 6 11 8 25 6 32 -2 7 -14 -6
-26 -28 -29 -54 -17 -7 17 65 33 70 191 234 284 296 120 80 285 142 380 143
l48 1 -37 -47z m115 -719 l29 -90 -61 -12 c-34 -6 -71 -14 -84 -18 l-23 -7 22
54 c11 30 33 84 47 121 16 40 29 62 34 55 4 -7 20 -53 36 -103z m-860 -15 c-8
-20 -13 -83 -13 -155 0 -115 1 -123 31 -180 16 -32 69 -112 117 -176 123 -166
183 -262 144 -229 -8 6 -45 22 -83 37 -181 67 -285 186 -315 357 -14 82 -3
151 42 266 37 94 110 170 77 80z m295 -25 c29 -15 54 -28 57 -31 9 -8 -45 -43
-68 -43 -13 0 -36 -7 -52 -15 -17 -9 -30 -12 -30 -8 0 13 33 123 37 123 2 0
27 -12 56 -26z m134 -71 c19 -17 73 -152 73 -181 0 -7 -14 -31 -31 -55 l-32
-42 6 38 c3 21 2 49 -3 62 -12 31 -69 94 -105 117 -17 10 -23 18 -14 18 8 0
34 -16 58 -36 52 -45 67 -37 21 11 -34 35 -33 49 2 18 10 -9 21 -13 25 -9 4 4
-7 18 -25 32 -18 14 -32 30 -32 35 0 15 37 10 57 -8z m293 -258 c6 -27 14 -61
17 -74 l6 -25 -29 21 c-38 28 -148 124 -152 133 -1 4 28 45 65 90 l68 84 7
-90 c4 -49 12 -111 18 -139z m285 134 c63 -63 72 -76 44 -59 -40 23 -174 69
-201 70 -10 0 -18 7 -18 15 0 11 -11 15 -40 15 -45 0 -56 -19 -12 -21 l27 -2
-28 -4 c-40 -6 -22 -23 26 -24 l42 -1 -50 -12 c-50 -11 -64 -28 -46 -55 7 -11
15 -11 41 -2 18 6 46 11 63 11 l30 0 -26 -26 c-54 -54 -43 -169 21 -225 31
-28 41 -31 80 -26 66 7 93 39 102 119 5 54 8 59 14 35 5 -15 4 -50 -1 -78 -6
-27 -7 -49 -2 -49 9 0 43 47 52 73 6 16 14 18 47 12 56 -9 51 10 -6 24 -55 14
-57 40 -5 54 30 7 37 5 63 -21 28 -28 29 -31 18 -72 -15 -55 -108 -151 -165
-171 l-40 -14 39 -5 39 -5 -77 -49 c-112 -70 -244 -196 -180 -172 28 11 3 -13
-39 -38 -86 -49 -86 -49 -268 72 -90 60 -176 122 -190 138 -31 34 -64 84 -55
84 17 0 94 -36 114 -53 24 -22 28 -17 12 14 -8 14 -7 27 5 48 17 34 18 41 7
41 -5 0 -17 -16 -28 -35 l-18 -35 -44 43 c-54 52 -67 76 -104 195 -30 97 -31
128 -2 185 10 18 22 27 39 27 30 0 29 2 9 -39 -31 -61 -6 -164 48 -204 23 -17
31 -19 53 -9 14 6 31 24 38 39 13 30 47 64 84 84 20 11 27 8 65 -27 44 -40
201 -154 212 -154 4 0 0 12 -8 28 -39 75 -74 285 -54 325 7 14 23 17 101 17
l92 0 80 -81z m-668 -63 c-14 -60 -3 -96 28 -96 13 0 29 8 34 18 10 16 10 16
11 -1 0 -24 -18 -57 -31 -57 -5 0 -21 11 -34 25 -20 19 -25 34 -25 74 0 52 7
81 20 81 4 0 3 -20 -3 -44z m62 2 c11 -28 -5 -50 -19 -28 -13 20 -13 50 0 50
6 0 15 -10 19 -22z m597 6 c18 -14 18 -14 -6 -3 -31 14 -36 19 -24 19 6 0 19
-7 30 -16z m-51 -44 c8 -12 -13 -51 -37 -68 -22 -16 -23 -50 -1 -74 23 -26 61
-23 74 6 6 13 20 27 31 29 17 5 18 2 13 -26 -8 -37 -47 -77 -76 -77 -52 0 -89
51 -89 120 0 33 6 48 29 71 31 30 46 36 56 19z m70 -55 c0 -21 -5 -31 -19 -33
-22 -5 -36 13 -36 46 0 20 4 23 28 20 23 -2 27 -8 27 -33z m-59 -46 c7 -12
-15 -31 -28 -23 -4 3 -8 12 -8 20 0 17 26 19 36 3z m-665 -236 c31 -64 80
-110 182 -172 48 -29 89 -56 91 -60 3 -4 -9 -21 -26 -37 -24 -23 -29 -25 -23
-9 15 38 17 65 6 65 -6 0 -13 -11 -17 -24 -10 -41 -54 -70 -214 -145 -168 -78
-240 -124 -270 -173 -32 -53 -39 -178 -9 -178 5 0 7 17 4 38 -3 20 -2 51 3 67
7 24 9 17 10 -40 0 -38 8 -90 16 -115 l16 -45 -40 44 c-22 23 -52 68 -67 100
-25 50 -28 67 -28 156 0 85 3 106 23 142 33 63 139 171 201 206 30 17 61 43
70 59 9 15 20 28 25 28 16 0 75 -70 87 -105 13 -34 29 -47 29 -22 0 6 -23 64
-50 126 -45 105 -57 141 -46 141 2 0 14 -21 27 -47z m-81 -88 c0 -16 -46 -56
-105 -93 -27 -17 -64 -46 -81 -64 -35 -36 -98 -132 -116 -175 l-11 -28 -8 45
c-10 59 -1 145 21 195 9 22 44 77 78 122 l61 82 81 -37 c44 -20 80 -41 80 -47z
m428 -198 l21 -23 -120 -123 c-66 -68 -122 -121 -125 -119 -2 3 4 25 14 49 11
24 27 66 37 94 22 59 98 145 130 145 12 0 31 -10 43 -23z m-167 -55 c-11 -16
-36 -72 -55 -125 -33 -93 -64 -144 -119 -196 -15 -13 -32 -21 -40 -18 -28 11
-62 99 -62 162 l0 60 55 25 c30 13 96 45 145 71 50 25 91 47 93 47 2 1 -6 -11
-17 -26z m319 19 c0 -5 -30 -32 -68 -59 -37 -28 -138 -122 -224 -210 l-157
-160 -11 34 c-8 22 -16 32 -23 27 -7 -4 71 74 172 173 178 173 185 179 233
185 27 4 52 10 55 13 9 9 23 7 23 -3z m426 -138 c-23 -68 -77 -136 -149 -189
-71 -53 -97 -68 -97 -57 0 4 20 21 44 36 70 44 172 159 193 216 9 28 19 48 21
46 2 -2 -3 -25 -12 -52z m-26 32 c0 -38 -138 -205 -169 -205 -28 0 -31 10 -15
43 36 69 184 199 184 162z m-410 -185 c7 -25 18 -57 26 -71 7 -15 11 -29 7
-32 -6 -7 -57 26 -86 55 -10 10 -26 18 -37 18 -28 0 -34 36 -15 86 19 51 26
54 45 19 7 -14 17 -25 22 -25 10 0 9 7 -6 50 -11 30 -11 38 3 56 15 21 16 19
22 -45 4 -36 12 -86 19 -111z m-624 74 c-6 -43 -6 -82 0 -115 8 -39 8 -49 -4
-54 -47 -18 -87 7 -98 61 -9 45 25 124 65 151 19 13 37 23 41 23 3 0 2 -30 -4
-66z m1125 -6 c27 -39 38 -63 30 -66 -23 -8 -127 -65 -171 -95 -25 -17 -109
-93 -187 -171 -103 -101 -146 -137 -154 -129 -8 8 -7 37 1 105 16 128 35 157
47 71 3 -25 -2 -59 -16 -97 -11 -33 -19 -61 -17 -63 1 -2 22 16 45 39 42 43
91 131 91 165 0 27 17 45 78 83 45 28 59 32 97 27 48 -5 61 7 19 17 l-26 7 37
40 c19 22 45 60 57 84 12 25 23 45 25 45 1 0 21 -28 44 -62z m-672 2 c-10 -21
-19 -47 -19 -58 0 -31 -22 -49 -100 -81 l-75 -31 105 105 c58 58 105 105 106
105 1 0 -6 -18 -17 -40z m-1289 -17 c14 -9 67 -52 119 -95 132 -111 131 -111
340 -105 l174 6 91 -86 c50 -48 93 -93 95 -101 3 -13 -17 -14 -145 -8 -82 3
-201 11 -264 17 -63 6 -152 8 -196 4 -101 -8 -136 7 -213 90 -49 54 -54 57
-89 51 l-37 -5 30 14 c17 8 41 23 55 34 34 27 4 29 -42 2 -22 -13 -44 -17 -66
-14 l-34 6 61 38 c34 21 61 43 61 48 0 17 60 34 103 27 39 -5 40 -5 23 9 -23
17 -63 19 -100 5 -27 -10 -34 -2 -14 18 15 15 4 26 -17 19 -8 -4 -15 -16 -15
-27 0 -12 -5 -31 -12 -43 -11 -21 -11 -21 -19 -2 -17 45 -10 75 24 95 39 24
55 25 87 3z m906 -114 c13 -15 13 -17 -2 -23 -27 -10 -44 15 -49 75 l-5 54 20
-45 c12 -25 28 -52 36 -61z m1244 -59 c0 -3 -29 -20 -65 -38 -116 -60 -321
-275 -444 -465 l-44 -68 -49 127 -49 128 138 139 c156 156 203 194 318 254
l80 42 58 -57 c31 -31 57 -59 57 -62z m-816 85 c3 -8 16 -15 30 -15 16 0 27
-7 31 -20 3 -11 13 -20 21 -20 7 0 27 -12 44 -27 29 -27 30 -30 19 -68 -6 -22
-18 -74 -25 -115 l-14 -75 5 90 c3 50 8 104 11 122 5 28 2 34 -27 52 -37 23
-50 17 -75 -31 -17 -33 -2 -38 20 -6 l16 22 0 -22 c0 -29 16 -28 25 1 15 46
18 -24 4 -127 -14 -112 -10 -108 -124 -126 -38 -6 -110 -25 -158 -42 -49 -16
-90 -28 -92 -26 -9 9 -7 290 2 299 6 6 38 17 72 24 62 15 154 56 166 75 10 17
-10 11 -74 -20 -33 -17 -75 -33 -93 -36 -19 -3 16 18 82 50 63 30 118 55 121
55 4 1 9 -6 13 -14z m-324 -161 c5 -38 10 -126 10 -196 0 -71 2 -128 5 -128 2
0 35 16 72 35 48 25 104 43 188 60 172 35 166 36 199 -32 15 -32 44 -116 65
-188 45 -155 49 -159 160 -151 41 3 87 13 104 21 17 8 32 13 34 11 7 -6 -93
-159 -118 -182 -12 -10 -32 -39 -44 -64 -13 -25 -34 -52 -48 -59 -16 -9 -23
-19 -20 -29 5 -12 1 -14 -17 -9 -16 4 -31 0 -42 -10 -23 -21 -23 -32 1 -26 10
3 22 0 26 -7 5 -8 14 -5 29 9 31 29 61 18 75 -29 18 -61 41 -228 42 -310 1
-53 3 -68 9 -50 13 40 10 179 -4 255 -8 39 -13 71 -11 73 2 2 25 -7 52 -21 26
-13 85 -39 131 -57 96 -38 175 -87 249 -154 56 -51 158 -174 151 -182 -3 -2
-22 3 -44 13 -29 12 -66 16 -149 15 l-110 -1 -83 45 c-99 54 -132 53 -47 -1
103 -67 256 -140 365 -174 243 -77 367 -171 520 -396 63 -93 102 -172 135
-275 27 -81 29 -96 33 -320 2 -149 0 -231 -6 -225 -15 16 -146 225 -177 282
-15 29 -32 50 -36 47 -15 -9 72 -166 172 -316 90 -133 149 -258 188 -398 32
-117 39 -164 45 -320 4 -80 9 -192 12 -249 l6 -104 -34 21 c-171 103 -448 206
-658 243 -242 43 -527 117 -615 159 -93 45 -248 156 -341 247 -79 76 -212 244
-264 334 -78 132 -248 505 -288 629 -38 119 -93 437 -108 620 -9 115 24 328
83 530 24 85 58 208 74 272 31 127 49 288 31 288 -5 0 -13 -17 -17 -38 -8 -51
-25 -77 -25 -39 0 15 -7 30 -15 33 -8 4 -15 17 -15 31 0 16 -4 23 -13 20 -9
-3 -13 9 -12 46 0 27 -5 52 -11 54 -6 2 -9 -11 -7 -34 l3 -38 -15 33 c-27 58
-47 224 -36 292 11 67 30 98 92 155 50 45 54 41 69 -61z m-104 64 c-39 -55
-64 -95 -70 -116 -10 -32 -25 -24 -63 32 -49 71 -45 82 30 94 34 5 75 10 91
11 28 1 28 0 12 -21z m1293 -57 c32 -44 40 -75 61 -214 11 -70 30 -161 42
-200 34 -114 181 -465 260 -620 71 -140 74 -144 198 -267 70 -69 187 -195 261
-280 191 -220 256 -288 319 -328 30 -19 57 -36 59 -38 8 -7 -42 -74 -80 -109
l-40 -36 -28 18 c-60 40 -321 243 -420 328 -59 49 -171 153 -251 232 l-145
142 -109 198 c-97 177 -187 333 -379 661 -64 110 -95 142 -135 142 -29 0 -72
-35 -72 -58 0 -12 6 -10 23 6 26 24 48 27 79 11 20 -11 20 -12 -8 -36 -23 -20
-25 -24 -9 -20 11 3 28 8 39 12 14 6 17 4 15 -11 -3 -13 -23 -26 -69 -41 -74
-25 -138 -29 -164 -10 -16 12 -14 18 30 82 97 143 239 309 326 379 114 92 162
106 197 57z m397 -521 c25 -94 25 -303 0 -390 -10 -36 -22 -68 -26 -73 -3 -4
-23 30 -43 77 l-36 84 29 53 c34 64 55 191 47 282 -6 72 4 60 29 -33z m-1702
34 c9 -3 16 -17 16 -30 0 -16 6 -24 18 -24 9 0 23 -9 30 -20 10 -17 5 -34 -44
-127 -100 -194 -156 -279 -206 -315 -16 -11 -155 -62 -307 -113 -293 -98 -330
-113 -426 -178 -228 -153 -407 -374 -492 -607 l-23 -65 5 155 c5 190 26 315
72 440 72 195 175 338 325 453 136 105 283 156 528 187 73 9 106 19 143 41 26
15 47 26 47 23 0 -13 -66 -95 -88 -110 -33 -22 -21 -29 17 -10 16 9 56 52 87
96 57 80 106 120 201 169 38 19 42 19 46 3 3 -13 6 -11 17 11 7 15 14 27 16
27 1 0 9 -3 18 -6z m1075 -117 c65 -111 75 -152 47 -206 -33 -63 -128 -122
-231 -144 -55 -11 -58 -11 -76 12 -35 43 -21 93 51 176 48 55 116 170 125 211
9 41 14 54 19 54 2 0 31 -46 65 -103z m-1034 -222 c-20 -77 -47 -174 -60 -215
-14 -41 -34 -120 -45 -174 -19 -97 -40 -141 -58 -121 -5 6 -15 33 -22 60 -18
68 -15 66 -62 49 l-41 -14 6 74 7 74 -33 -9 c-17 -5 -41 -9 -52 -9 -33 0 3 25
64 45 29 10 71 34 93 53 45 41 134 172 193 285 24 46 41 69 43 59 2 -10 -13
-81 -33 -157z m1176 -21 c30 -52 37 -69 27 -76 -38 -25 -96 -57 -116 -63 l-23
-7 20 41 c12 22 26 72 33 110 7 39 14 69 16 66 2 -2 22 -34 43 -71z m-1311
-675 c0 -78 55 -460 81 -566 11 -46 38 -126 60 -179 40 -95 40 -96 21 -110
-11 -8 -50 -39 -86 -70 -63 -54 -65 -55 -89 -39 -30 20 -37 35 -132 295 -40
109 -101 253 -127 297 -27 46 -132 164 -161 179 -20 11 -19 12 14 29 19 10 81
48 139 84 126 79 262 151 272 145 5 -3 8 -32 8 -65z m-356 -300 c26 -29 67
-93 91 -143 53 -107 156 -398 147 -413 -8 -12 -310 -204 -410 -261 -37 -21
-115 -57 -174 -81 -119 -48 -191 -89 -208 -120 -14 -27 0 -27 34 0 15 12 104
57 199 100 95 44 199 96 232 117 54 33 66 37 119 35 83 -4 242 -44 376 -96
106 -41 359 -152 364 -159 2 -2 36 -48 77 -103 40 -55 120 -148 176 -206 57
-58 103 -113 103 -122 0 -10 -2 -17 -4 -17 -2 0 -121 30 -263 66 -142 37 -283
72 -313 79 -123 29 -478 103 -515 108 -22 3 -92 13 -155 21 -118 16 -300 30
-520 41 -145 8 -194 18 -224 48 -20 21 -109 208 -127 270 -24 84 52 170 490
550 124 107 431 337 451 337 4 0 29 -23 54 -51z m3491 -46 c3 -10 9 -45 12
-79 l6 -61 -47 -32 c-25 -18 -46 -29 -46 -26 0 17 35 55 51 55 11 0 19 2 19 4
0 13 -23 66 -29 66 -5 0 -34 -23 -67 -52 -47 -42 -58 -57 -56 -77 4 -32 11
-39 20 -24 6 9 29 8 94 -5 148 -30 136 -43 -49 -53 -76 -4 -181 -16 -233 -28
-52 -11 -107 -21 -121 -21 -22 0 -131 48 -148 65 -2 3 9 19 25 37 16 18 44 56
62 84 l32 51 75 7 c78 7 236 50 315 85 57 25 76 26 85 4z m-2070 -1673 c11 -4
51 -10 89 -14 105 -11 124 -22 203 -128 89 -118 117 -162 271 -423 68 -115
139 -229 158 -251 l34 -42 -19 -55 c-24 -69 -35 -90 -78 -150 l-35 -47 -82
113 c-219 304 -475 608 -773 918 -51 53 -93 98 -93 101 0 3 48 8 106 12 103 7
144 17 144 36 0 5 5 21 11 37 11 27 12 27 28 -36 12 -45 22 -66 36 -71z m699
-72 c29 -46 46 -131 46 -233 0 -61 -4 -105 -11 -112 -26 -26 -149 36 -149 76
0 9 -14 61 -30 115 -17 55 -30 101 -30 103 0 1 31 3 68 3 38 0 71 3 74 6 4 3
2 19 -2 35 -11 36 12 41 34 7z m66 -720 c0 -30 -1 -31 -16 -16 -9 9 -14 24
-11 32 11 27 27 17 27 -16z m153 -171 c112 -167 126 -203 112 -286 -6 -37 -5
-42 18 -50 15 -6 29 -23 36 -43 9 -28 18 -36 55 -46 43 -11 45 -13 52 -58 4
-26 3 -83 -2 -128 -4 -45 -9 -144 -9 -221 -1 -129 -13 -213 -36 -239 -4 -4
-28 6 -53 23 -45 31 -45 31 -56 10 -7 -11 -14 -46 -17 -77 l-6 -57 -17 40
c-17 41 -18 59 -6 165 7 60 5 73 -33 179 -23 63 -41 122 -41 132 0 10 20 49
44 86 36 56 86 155 86 169 0 2 -4 4 -10 4 -5 0 -22 -24 -36 -52 -30 -60 -109
-176 -133 -195 -27 -23 -47 -14 -89 44 l-43 58 29 7 c36 10 86 92 126 210 l30
85 -38 52 c-21 28 -44 51 -51 51 -7 0 -23 -27 -35 -61 -38 -100 -127 -229
-159 -229 -25 0 -161 82 -161 97 0 8 4 12 9 9 14 -9 41 19 142 144 99 124 129
178 156 282 10 37 20 64 24 60 4 -4 54 -78 112 -165z m-349 -115 c14 -21 26
-43 26 -49 0 -6 -16 -30 -36 -54 -19 -23 -42 -51 -49 -63 -8 -11 -17 -17 -20
-15 -4 4 46 219 51 219 1 0 13 -17 28 -38z m295 -88 c12 -15 21 -34 21 -42 0
-21 -61 -182 -69 -182 -3 0 -18 20 -33 45 l-27 44 36 81 c20 44 40 80 44 80 4
0 17 -12 28 -26z m-71 -238 c9 -20 7 -27 -19 -52 -32 -30 -35 -23 -17 37 13
45 21 48 36 15z m474 -73 c36 -47 43 -63 41 -97 -1 -23 -6 -54 -13 -70 l-11
-29 -34 33 c-33 32 -34 36 -33 104 1 39 -1 81 -6 94 -13 39 12 24 56 -35z m-8
-202 c17 -19 17 -20 -3 -31 -19 -10 -21 -8 -21 20 0 35 1 36 24 11z m-10 -191
c33 -122 33 -153 -6 -253 -26 -68 -42 -93 -97 -149 -42 -43 -75 -68 -88 -68
-50 0 -97 108 -91 210 l3 55 23 -68 c13 -37 27 -67 32 -67 4 0 10 42 12 94 1
52 6 97 9 101 4 3 28 -9 54 -27 46 -32 47 -33 61 -13 28 38 39 101 40 225 1
149 4 172 14 105 5 -27 20 -93 34 -145z"/>
<path d="M3483 6913 c-23 -9 -14 -24 11 -17 21 5 23 3 19 -23 -4 -25 -3 -26
10 -11 9 11 17 14 23 8 7 -7 21 -6 42 1 40 14 42 27 2 21 -18 -2 -40 2 -55 12
-25 17 -32 18 -52 9z"/>
<path d="M4029 6797 c7 -9 40 -25 73 -35 48 -15 69 -17 104 -9 39 9 43 12 30
25 -11 12 -20 12 -49 1 -29 -10 -42 -10 -83 5 -90 31 -91 32 -75 13z"/>
<path d="M3710 6601 c0 -20 94 -109 123 -117 21 -5 36 -1 55 13 48 35 39 46
-60 77 -51 16 -99 31 -105 34 -7 2 -13 -1 -13 -7z"/>
<path d="M2562 5929 c51 -61 65 -69 115 -68 l38 0 -40 15 c-22 8 -59 34 -82
59 -61 64 -86 59 -31 -6z"/>
<path d="M3830 6033 c0 -12 5 -25 11 -28 7 -5 2 -16 -12 -31 -12 -13 -19 -27
-15 -31 8 -9 76 60 76 77 0 5 -8 10 -18 10 -10 0 -23 5 -30 12 -9 9 -12 7 -12
-9z"/>
<path d="M3580 5245 c0 -29 23 -64 47 -70 14 -3 28 -4 31 -1 3 3 12 -3 19 -14
10 -14 21 -19 33 -15 13 4 22 -1 29 -14 6 -11 19 -18 29 -16 26 5 155 89 143
93 -8 3 -72 -23 -112 -45 -4 -2 -4 9 -2 24 l4 28 -21 -27 c-17 -22 -27 -27
-48 -22 -15 4 -34 16 -44 27 -14 18 -20 19 -42 9 -28 -12 -30 -10 -40 31 -7
28 -26 38 -26 12z"/>
<path d="M3835 5120 c-19 -21 -13 -42 7 -22 17 17 25 15 31 -9 6 -22 25 -23
70 -4 12 5 17 2 17 -10 0 -27 25 -11 28 18 4 31 -18 36 -63 15 -22 -10 -28 -9
-41 10 -19 27 -26 27 -49 2z"/>
<path d="M4124 5125 c-10 -8 -35 -19 -55 -25 -21 -6 -40 -17 -43 -25 -5 -15
15 -21 28 -8 3 4 22 12 41 19 25 8 35 8 38 0 3 -7 11 -3 21 9 31 40 11 61 -30
30z"/>
<path d="M3539 5114 c-8 -10 -9 -18 -3 -22 6 -4 14 -16 18 -27 6 -17 9 -18 16
-5 9 17 2 70 -10 70 -4 0 -13 -7 -21 -16z"/>
<path d="M3597 5074 c-9 -9 26 -44 45 -44 10 0 18 -7 18 -15 0 -8 5 -15 10
-15 11 0 12 6 4 38 -4 13 -14 22 -25 22 -11 0 -19 5 -19 10 0 11 -23 14 -33 4z"/>
<path d="M3728 5009 c-26 -15 -22 -30 6 -23 18 4 25 1 29 -15 6 -24 25 -27 53
-7 23 17 10 35 -14 20 -13 -9 -19 -7 -27 9 -12 25 -25 29 -47 16z"/>
<path d="M3880 4965 c0 -2 8 -18 18 -34 17 -28 20 -29 35 -14 15 15 18 15 35
0 23 -21 36 -21 53 0 12 15 12 16 -6 9 -14 -5 -24 -1 -37 16 -15 21 -19 22
-39 9 -19 -11 -23 -11 -31 3 -8 15 -28 23 -28 11z"/>
<path d="M3761 4888 c-1 -21 4 -38 9 -38 11 0 11 14 0 50 -7 22 -8 21 -9 -12z"/>
<path d="M3790 4899 c0 -15 9 -37 20 -50 26 -32 26 -6 0 41 -19 34 -19 34 -20
9z"/>
<path d="M3356 5334 c-13 -34 -7 -44 20 -34 26 10 26 10 20 -25 -9 -47 10 -46
23 2 12 42 8 53 -20 53 -10 0 -19 5 -19 10 0 16 -17 12 -24 -6z"/>
</g>
</svg>
