<?xml version="1.0" encoding="UTF-8" standalone="no"?>
<svg
   xmlns:dc="http://purl.org/dc/elements/1.1/"
   xmlns:cc="http://creativecommons.org/ns#"
   xmlns:rdf="http://www.w3.org/1999/02/22-rdf-syntax-ns#"
   xmlns:svg="http://www.w3.org/2000/svg"
   xmlns="http://www.w3.org/2000/svg"
   xmlns:sodipodi="http://sodipodi.sourceforge.net/DTD/sodipodi-0.dtd"
   xmlns:inkscape="http://www.inkscape.org/namespaces/inkscape"
   version="1.0"
   width="850.000000pt"
   height="850.000000pt"
   viewBox="0 0 850.000000 850.000000"
   preserveAspectRatio="xMidYMid meet"
   id="svg170"
   sodipodi:docname="34.svg"
   inkscape:version="0.92.2 5c3e80d, 2017-08-06">
  <defs
     id="defs174" />
  <sodipodi:namedview
     pagecolor="#ffffff"
     bordercolor="#666666"
     borderopacity="1"
     objecttolerance="10"
     gridtolerance="10"
     guidetolerance="10"
     inkscape:pageopacity="0"
     inkscape:pageshadow="2"
     inkscape:window-width="1920"
     inkscape:window-height="978"
     id="namedview172"
     showgrid="false"
     inkscape:zoom="0.58897835"
     inkscape:cx="646.4025"
     inkscape:cy="729.838"
     inkscape:window-x="0"
     inkscape:window-y="1"
     inkscape:window-maximized="1"
     inkscape:current-layer="svg170" />
  <metadata
     id="metadata2">
Created by potrace 1.14, written by Peter Selinger 2001-2017
<rdf:RDF>
  <cc:Work
     rdf:about="">
    <dc:format>image/svg+xml</dc:format>
    <dc:type
       rdf:resource="http://purl.org/dc/dcmitype/StillImage" />
  </cc:Work>
</rdf:RDF>
</metadata>
  <g
     transform="translate(0.000000,850.000000) scale(0.100000,-0.100000)"
     fill="#000000"
     stroke="none"
     id="g168">
    <path
       d="M0 4250 l0 -4250 2366 0 2367 0 -49 26 c-63 33 -143 95 -191 147 -52 56 -156 204 -187 264 -36 72 -75 223 -91 358 -16 123 -49 302 -85 460 -12 50 -21 109 -20 131 1 31 -6 49 -25 73 l-27 31 16 67 c18 81 16 84 -69 106 -120 30 -303 80 -420 114 -66 19 -144 42 -173 51 -43 12 -60 13 -86 4 -46 -17 -74 -15 -112 9 -26 16 -38 18 -53 10 -28 -16 -48 -14 -79 8 -20 14 -66 24 -167 36 -237 28 -364 61 -554 142 l-84 36 -142 -12 c-160 -14 -265 -5 -344 30 -138 60 -163 146 -68 237 65 62 274 179 405 226 94 33 144 33 256 -3 164 -52 249 -51 239 3 -3 15 0 33 7 41 20 24 153 97 188 102 37 6 37 7 18 88 -8 33 -22 119 -31 191 -15 120 -15 134 -1 169 9 21 15 39 14 40 -2 2 -28 8 -58 14 -104 22 -289 133 -276 166 2 7 -14 28 -37 46 -73 58 -147 131 -147 145 0 19 24 18 63 -2 24 -12 8 8 -59 77 -156 160 -242 295 -279 436 -16 60 -20 113 -8 113 3 0 15 -8 26 -17 19 -17 20 -17 14 0 -19 51 -47 182 -58 265 -20 161 17 460 53 424 6 -6 15 -67 20 -139 7 -122 26 -263 33 -263 2 0 4 60 3 133 -2 148 14 251 61 389 39 114 96 223 125 236 13 6 36 32 51 59 48 83 75 105 75 60 0 -42 12 -37 46 20 71 117 228 283 268 283 25 0 19 -26 -30 -145 -84 -203 -123 -315 -143 -413 -33 -161 -33 -159 -11 -165 17 -4 20 -14 20 -66 0 -34 3 -61 6 -61 3 0 72 61 152 136 81 75 173 154 205 176 32 22 61 46 64 54 3 8 -9 27 -27 44 -30 28 -32 34 -26 77 3 25 6 61 6 81 0 26 8 42 34 66 53 50 57 63 45 162 -14 107 -6 241 16 306 9 27 37 70 62 98 l45 50 -11 63 c-23 133 -11 289 35 477 l27 105 -25 150 c-23 136 -25 176 -11 161 3 -3 14 -60 24 -128 27 -183 98 -417 173 -573 147 -306 300 -500 581 -733 199 -165 235 -206 235 -272 1 -33 1 -34 16 -15 51 67 -63 242 -365 560 -199 208 -351 419 -447 621 -59 122 -108 276 -102 321 3 22 7 15 17 -31 32 -143 129 -354 237 -516 104 -156 131 -189 312 -384 166 -178 291 -328 322 -386 25 -47 25 -28 -1 40 -45 118 -116 235 -296 485 -294 410 -338 484 -403 672 -22 63 -40 120 -40 126 0 26 19 -14 55 -113 67 -185 110 -260 324 -559 81 -113 176 -249 211 -301 63 -94 190 -258 190 -245 0 16 -84 146 -267 413 -404 589 -422 621 -499 857 -25 77 -50 142 -55 143 -5 2 -9 10 -9 18 0 8 -4 14 -10 14 -5 0 -10 -11 -10 -25 0 -14 -4 -25 -9 -25 -14 0 -101 70 -101 82 0 6 -3 9 -6 6 -3 -4 2 -27 11 -53 8 -26 13 -50 11 -53 -11 -10 -90 54 -120 97 -57 80 -56 80 -50 44 4 -21 3 -33 -5 -33 -14 0 -56 64 -73 110 l-13 35 -5 -55 -5 -55 -25 40 c-23 37 -25 49 -24 160 0 96 4 132 21 180 l22 60 -26 33 c-14 19 -22 40 -19 49 4 8 1 22 -5 29 -6 8 -8 21 -5 30 4 11 -16 51 -56 112 -98 152 -162 329 -133 368 11 16 22 15 171 -14 88 -18 218 -36 289 -42 72 -6 139 -12 150 -15 12 -2 32 3 46 13 14 9 60 40 103 69 87 58 196 104 324 134 73 18 101 20 172 13 47 -5 141 -7 210 -6 117 2 213 -12 291 -42 13 -6 213 135 324 229 l30 25 -2427 0 -2428 0 0 -4250z"
       id="path4"
       style="fill:#9370db" />
    <path
       d="M4893 8482 c64 -71 120 -383 97 -538 -8 -50 -8 -79 -2 -87 7 -8 5 -25 -5 -52 -20 -55 -16 -110 11 -154 44 -68 103 -194 169 -358 36 -89 79 -188 94 -220 l28 -58 100 -32 c55 -17 156 -48 225 -68 398 -116 627 -205 744 -289 69 -49 158 -141 183 -190 17 -32 34 -96 27 -96 -3 0 -31 29 -64 63 -61 66 -146 128 -260 190 -83 46 -249 101 -520 173 -118 31 -245 64 -281 74 l-67 17 17 -38 c12 -26 57 -72 142 -145 151 -129 271 -213 448 -311 276 -154 359 -213 415 -296 19 -29 75 -89 124 -134 50 -46 113 -113 141 -150 65 -87 148 -252 162 -325 11 -54 7 -108 -9 -108 -4 0 -20 24 -36 53 -63 114 -158 245 -226 312 l-72 70 54 -80 c88 -131 139 -284 149 -445 5 -89 -15 -114 -27 -32 -16 108 -150 354 -267 491 -62 72 -143 141 -252 213 -91 61 -185 113 -185 103 0 -3 24 -40 53 -83 48 -69 66 -99 134 -222 128 -231 217 -545 230 -806 8 -165 -12 -220 -38 -104 -14 63 -23 74 -32 39 -3 -12 -10 -18 -16 -15 -7 5 -5 19 5 45 14 36 13 41 -16 122 -60 163 -193 382 -323 532 -173 199 -189 212 -333 281 -73 35 -152 78 -177 95 -25 17 -50 31 -55 31 -16 0 -24 -94 -13 -138 15 -56 52 -85 237 -187 337 -186 432 -267 571 -490 57 -91 85 -153 96 -212 10 -53 -6 -38 -26 23 -26 83 -75 150 -192 262 -123 119 -172 152 -98 66 106 -124 220 -318 248 -424 7 -28 9 -52 4 -55 -4 -3 -22 14 -39 37 -46 63 -156 156 -251 212 -46 27 -148 92 -227 143 -79 51 -145 93 -147 93 -2 0 12 -25 30 -56 44 -73 72 -157 86 -261 12 -81 7 -112 -11 -83 -8 12 -10 11 -10 -5 0 -12 5 -26 11 -32 13 -13 3 -93 -12 -93 -5 0 -9 25 -9 55 0 103 -48 273 -101 360 -17 28 -28 39 -24 25 4 -14 15 -54 26 -90 29 -104 24 -278 -12 -365 -12 -29 -12 -28 -26 47 -7 43 -22 102 -33 132 -21 56 -98 182 -106 174 -2 -3 0 -33 4 -67 5 -34 6 -64 2 -66 -3 -2 -14 10 -24 26 -17 29 -126 122 -134 114 -2 -2 4 -15 14 -29 9 -15 14 -29 11 -32 -3 -3 -28 7 -57 21 -29 14 -53 25 -55 23 -2 -2 4 -31 13 -65 16 -59 16 -63 -3 -83 -11 -12 -33 -29 -50 -38 -28 -15 -29 -16 -8 -21 30 -8 224 -176 373 -323 120 -118 128 -129 204 -268 43 -80 103 -182 133 -227 55 -82 61 -107 27 -120 -29 -11 -81 25 -129 91 -27 36 -52 63 -57 60 -4 -3 -8 -52 -8 -109 0 -93 -2 -105 -19 -115 -28 -14 -45 -5 -71 43 l-24 41 -19 -46 c-10 -26 -25 -49 -33 -52 -21 -8 -43 3 -50 27 -3 12 -17 34 -31 48 l-24 26 17 74 c25 112 27 136 14 144 -9 5 -10 1 -5 -14 14 -46 -48 -69 -91 -33 -12 9 -35 46 -52 82 -33 70 -120 203 -192 293 -46 57 -60 67 -60 44 0 -8 -23 -87 -50 -178 -74 -240 -80 -276 -80 -471 0 -146 2 -174 17 -190 15 -17 15 -28 4 -109 -10 -79 -9 -101 6 -171 11 -52 22 -82 32 -86 9 -2 32 -22 51 -43 27 -28 65 -50 160 -89 69 -28 153 -65 188 -80 l62 -29 0 -70 0 -70 71 -55 c39 -31 75 -56 80 -56 5 0 20 -18 34 -40 39 -62 63 -73 120 -58 47 13 47 12 71 -17 13 -17 65 -109 115 -207 50 -97 131 -238 181 -315 50 -76 107 -172 127 -213 36 -74 36 -77 36 -201 l0 -127 -39 -57 c-46 -65 -156 -156 -236 -194 -47 -22 -68 -25 -150 -25 -52 0 -142 8 -200 17 -58 9 -170 24 -250 33 -168 18 -388 60 -577 109 -73 19 -140 35 -148 35 -21 0 -18 -30 5 -60 15 -19 20 -41 20 -88 0 -51 8 -81 46 -170 171 -399 272 -669 298 -800 22 -107 35 -309 24 -351 -13 -44 -57 -86 -105 -99 -26 -7 556 -10 1790 -11 l1827 -1 0 4250 0 4250 -1812 0 c-1738 0 -1810 -1 -1795 -18z"
       id="path6"
       style="fill:#9370db" />
    <path
       d="M4759 8394 c-57 -47 -149 -116 -204 -153 -96 -66 -179 -143 -204 -189 -10 -18 -8 -24 14 -38 29 -19 146 -156 204 -239 23 -32 41 -56 42 -54 1 2 3 26 5 54 3 28 21 85 44 135 88 192 123 279 146 354 27 87 34 101 34 67 0 -43 -33 -137 -111 -315 -56 -127 -80 -195 -83 -232 -3 -29 -10 -61 -18 -73 -10 -17 -10 -26 1 -53 7 -18 33 -96 57 -173 24 -77 46 -146 49 -154 9 -24 96 79 90 106 -4 15 5 36 27 65 47 62 98 203 83 228 -3 5 3 26 13 47 15 31 19 67 21 193 1 85 -3 195 -9 244 -11 89 -59 234 -83 255 -10 8 -39 -11 -118 -75z"
       id="path8"
       style="fill:#dda0dd" />
    <path
       d="M3864 8266 c-218 -41 -378 -127 -520 -279 -80 -86 -177 -249 -114 -192 11 10 23 16 26 13 3 -3 -29 -37 -71 -74 -88 -79 -158 -178 -193 -273 -27 -74 -40 -224 -25 -281 9 -33 10 -31 16 36 9 89 49 249 76 300 28 54 26 22 -5 -67 -35 -101 -42 -209 -19 -283 10 -30 23 -60 29 -65 13 -11 13 12 -5 144 -12 92 4 200 42 282 28 63 36 41 9 -28 -42 -105 -36 -299 12 -393 28 -54 64 -101 93 -120 l24 -16 -14 43 c-79 249 -78 244 -72 330 6 81 48 240 67 252 14 9 12 -1 -10 -73 -49 -155 -45 -284 10 -397 32 -66 100 -150 100 -124 0 17 -26 114 -40 144 -12 28 -21 187 -14 235 12 72 23 42 21 -52 -4 -178 26 -199 37 -26 9 142 23 233 41 267 17 31 19 10 5 -39 -14 -46 -14 -237 0 -289 7 -26 17 -41 26 -41 14 0 15 12 9 88 -8 102 20 303 39 281 2 -2 -3 -44 -11 -94 -13 -85 -12 -198 3 -253 5 -16 13 -22 28 -20 24 3 24 1 11 224 -5 86 -4 133 2 137 7 4 12 -37 16 -116 6 -136 25 -209 64 -244 25 -24 53 -30 53 -13 0 6 -12 63 -26 126 -18 76 -23 119 -17 125 7 7 16 -19 26 -77 17 -94 69 -217 75 -177 2 11 -6 49 -18 84 -29 91 -40 175 -31 241 11 86 21 82 20 -8 -2 -153 33 -264 105 -333 36 -35 44 -35 26 -1 -10 18 -80 350 -80 377 0 7 4 13 8 13 4 0 13 -30 19 -67 21 -134 81 -249 162 -310 42 -32 71 -42 71 -24 0 5 -9 12 -19 16 -11 3 -19 15 -19 28 0 12 -3 33 -7 46 -7 19 -5 22 6 16 8 -5 5 1 -5 13 -30 34 -106 239 -106 285 0 23 19 -9 29 -49 31 -121 121 -285 146 -264 10 8 4 38 -31 143 -59 179 -60 249 0 82 53 -152 82 -200 113 -188 19 8 17 18 -22 76 -31 47 -85 172 -85 197 0 26 19 5 30 -34 11 -41 74 -161 104 -199 12 -15 22 -18 55 -12 23 4 43 10 46 14 2 4 -13 52 -34 107 -38 97 -60 194 -44 194 4 0 16 -31 25 -70 23 -95 79 -225 98 -225 18 0 19 -4 -24 115 -35 99 -56 193 -39 175 6 -5 18 -39 28 -75 23 -87 87 -222 92 -195 3 17 -21 112 -73 288 -3 9 -1 17 4 17 8 0 47 -116 88 -263 19 -71 40 -72 36 -1 -2 27 -19 96 -38 153 -19 57 -32 106 -29 109 15 15 95 -225 95 -284 0 -13 8 -28 18 -33 13 -8 14 -13 5 -19 -9 -5 -11 -24 -6 -60 6 -53 6 -53 37 -47 l31 6 -23 -20 -23 -20 33 -3 33 -4 -25 -11 c-21 -9 -22 -12 -8 -18 20 -8 33 -37 15 -33 -6 1 -22 -1 -33 -5 -20 -7 -21 -13 -17 -75 7 -112 52 -372 81 -462 31 -101 118 -275 192 -386 30 -44 107 -132 174 -199 123 -122 397 -382 396 -377 -2 30 -113 189 -254 366 -156 196 -253 341 -325 489 -78 160 -128 297 -157 432 -14 61 -27 120 -29 133 -3 12 -1 22 4 22 5 0 23 -62 41 -137 76 -324 219 -599 490 -938 147 -183 187 -242 245 -350 26 -49 61 -114 76 -143 16 -29 31 -68 35 -87 11 -60 24 -39 24 38 0 160 -75 343 -244 594 -51 76 -140 209 -199 295 -124 185 -207 330 -243 424 -25 66 -28 116 -4 59 81 -191 163 -329 388 -657 165 -240 236 -361 262 -443 20 -60 23 -27 5 50 -22 97 -73 193 -180 340 -234 323 -333 505 -419 770 -28 88 -105 366 -112 403 -14 80 14 10 61 -148 137 -469 212 -629 450 -961 122 -171 117 -148 -26 102 -133 232 -202 372 -263 541 -43 119 -66 193 -186 598 -84 284 -114 348 -229 484 -70 83 -150 148 -207 166 -19 7 -34 16 -34 21 0 12 11 11 60 -6 42 -15 43 -14 58 7 9 13 45 53 80 89 35 37 60 69 55 72 -4 3 -46 13 -93 22 -100 20 -193 15 -272 -15 -55 -21 -76 -18 -44 6 11 7 18 16 15 18 -13 12 -153 13 -215 2z"
       id="path10"
       style="fill:#6a5acd" />
    <path
       d="M2756 8122 c-8 -13 20 -121 48 -183 29 -66 96 -178 138 -232 22 -27 27 -41 20 -50 -7 -8 -6 -18 3 -30 7 -10 11 -26 8 -35 -2 -9 2 -25 10 -36 13 -17 17 -14 59 45 25 35 66 87 90 114 25 28 55 70 68 95 29 57 72 121 123 183 21 26 37 47 35 47 -35 0 -412 55 -478 70 -100 22 -116 24 -124 12z"
       id="path12"
       style="fill:#dda0dd" />
    <path
       d="M4947 7663 c-4 -3 -7 -18 -7 -33 0 -14 -20 -59 -45 -99 -31 -50 -43 -80 -39 -94 3 -16 -5 -31 -31 -57 -19 -18 -35 -38 -35 -44 0 -5 -10 -20 -21 -32 -30 -31 -20 -60 42 -128 67 -73 154 -138 243 -180 76 -36 408 -145 591 -194 61 -16 164 -44 230 -61 311 -83 461 -155 609 -291 51 -46 56 -50 36 -20 -42 61 -133 151 -193 192 -124 84 -322 160 -687 263 -406 114 -658 218 -761 315 -61 57 -60 81 1 26 71 -64 271 -178 286 -163 3 2 -39 65 -92 138 -106 145 -187 270 -179 277 6 6 3 10 55 -68 110 -164 273 -380 287 -380 8 0 13 6 10 13 -75 190 -191 455 -233 530 -30 53 -56 97 -58 97 -1 0 -6 -3 -9 -7z"
       id="path14"
       style="fill:#8a2be2" />
    <path
       d="M3766 7255 c7 -41 34 -117 47 -133 5 -7 7 -15 4 -18 -8 -8 -44 13 -88 53 -21 19 -39 33 -39 30 0 -2 7 -24 15 -47 18 -50 15 -58 -10 -30 -16 18 -45 28 -45 15 0 -13 40 -68 59 -81 24 -17 28 -44 7 -44 -10 0 -13 -15 -12 -57 l1 -56 -70 -18 c-75 -19 -114 -23 -139 -13 -30 12 -17 27 18 21 46 -7 50 0 21 37 -13 17 -30 53 -36 79 -14 49 -23 56 -54 34 -30 -23 -15 -111 52 -287 l58 -155 198 -100 c240 -121 249 -122 378 -54 105 57 246 164 281 214 l27 40 -18 75 c-10 41 -21 105 -25 141 l-7 66 -42 -8 c-45 -9 -220 -11 -199 -2 17 7 15 17 -12 58 -14 20 -27 49 -31 65 l-7 30 -28 -20 c-28 -20 -29 -20 -39 -2 -7 13 -7 22 1 30 9 9 2 21 -25 47 -51 50 -77 48 -37 -2 26 -33 25 -43 -2 -43 -50 0 -136 64 -190 140 l-18 25 6 -30z m49 -475 c17 -32 6 -40 -19 -14 -17 17 -20 27 -9 37 10 10 11 9 28 -23z m198 -114 c-23 -32 -65 -56 -95 -56 -13 0 -39 13 -58 29 l-35 29 35 6 c71 12 86 13 128 15 l43 1 -18 -24z"
       id="path16"
       style="fill:#dda0dd" />
    <path
       d="M3922 6662 c-37 -3 -42 -6 -31 -18 15 -18 39 -17 63 1 25 19 21 21 -32 17z"
       id="path18"
       style="fill:#dc143c" />
    <path
       d="M3920 7240 c0 -5 5 -10 11 -10 5 0 7 5 4 10 -3 6 -8 10 -11 10 -2 0 -4 -4 -4 -10z"
       id="path20"
       style="fill:none" />
    <path
       d="M4780 7174 c0 -5 18 -68 38 -139 41 -140 64 -182 181 -328 80 -98 163 -175 314 -288 125 -94 351 -223 477 -272 36 -14 128 -50 205 -80 276 -107 421 -193 561 -332 72 -71 111 -124 223 -300 l32 -50 -7 50 c-28 208 -261 508 -478 614 -45 22 -211 83 -370 136 -158 52 -322 111 -362 130 -90 41 -268 158 -384 252 -100 81 -258 254 -302 331 -45 79 -27 74 26 -8 68 -105 268 -300 410 -400 218 -153 264 -174 664 -304 128 -42 264 -91 303 -111 39 -19 72 -35 75 -35 17 0 -66 86 -124 128 -107 80 -347 212 -451 249 -176 63 -330 154 -481 285 -24 21 -41 41 -37 44 3 3 36 -20 73 -51 88 -75 215 -158 306 -199 109 -50 130 -53 68 -10 -93 64 -270 212 -375 314 -91 89 -106 100 -170 120 -154 50 -310 141 -381 224 -19 22 -34 35 -34 30z"
       id="path22"
       style="fill:#6a5acd" />
    <path
       d="M4272 7148 c-7 -7 -12 -21 -12 -31 0 -17 5 -19 32 -13 39 8 53 20 45 40 -7 19 -48 21 -65 4z"
       id="path24"
       style="fill:#191970" />
    <path
       d="M4310 7069 c0 -5 5 -7 10 -4 6 3 10 8 10 11 0 2 -4 4 -10 4 -5 0 -10 -5 -10 -11z"
       id="path26"
       style="fill:none" />
    <path
       d="M4180 7055 c0 -12 24 -55 32 -55 11 0 10 17 -2 41 -9 17 -30 27 -30 14z"
       id="path28"
       style="fill:#191970" />
    <path
       d="M3614 7025 c-7 -18 3 -35 22 -35 20 0 30 30 13 41 -20 12 -29 11 -35 -6z"
       id="path30"
       style="fill:#191970" />
    <path
       d="M4266 7019 c-40 -31 -35 -53 12 -46 37 6 77 41 66 58 -9 16 -50 10 -78 -12z"
       id="path32"
       style="fill:#191970" />
    <path
       d="M3648 6919 c-26 -15 -22 -27 7 -21 14 2 25 11 25 18 0 16 -8 17 -32 3z"
       id="path34"
       style="fill:#191970" />
    <path
       d="M5330 6862 c0 -5 10 -17 21 -28 22 -19 22 -19 10 3 -12 24 -31 39 -31 25z"
       id="path36"
       style="fill:#6a5acd" />
    <path
       d="M4990 6678 c0 -10 97 -224 136 -298 21 -40 46 -73 64 -84 76 -44 136 -130 169 -244 19 -63 28 -77 64 -103 45 -33 259 -141 266 -134 2 3 -60 66 -138 141 -220 212 -341 366 -434 549 -38 76 -125 195 -127 173z"
       id="path38"
       style="fill:#ff69b4" />
    <path
       d="M4410 6598 c-19 -16 -30 -32 -24 -34 41 -17 49 -33 49 -95 0 -47 4 -64 17 -72 9 -6 19 -9 22 -7 2 3 -4 43 -14 90 -22 97 -25 144 -10 120 5 -8 10 -10 10 -5 0 31 -17 32 -50 3z"
       id="path40"
       style="fill:#ee82ee" />
    <path
       d="M3208 6615 c-4 -6 -17 -62 -30 -125 -31 -156 -34 -409 -4 -437 18 -17 18 -17 12 12 -22 110 -16 234 20 413 15 71 16 158 2 137z"
       id="path42"
       style="fill:#8a2be2" />
    <path
       d="M4461 6577 c-3 -31 36 -161 62 -204 45 -76 51 -55 10 35 -20 42 -44 100 -54 127 -10 28 -18 46 -18 42z"
       id="path44"
       style="fill:#ee82ee" />
    <path
       d="M4268 6490 c-49 -34 -88 -63 -88 -64 0 -8 108 23 138 38 36 19 45 34 40 66 -3 19 -11 15 -90 -40z"
       id="path46"
       style="fill:#dda0dd" />
    <path
       d="M5120 6542 c1 -19 76 -144 151 -249 65 -91 136 -169 316 -348 300 -299 407 -420 516 -585 105 -161 163 -276 213 -425 20 -60 39 -112 41 -115 12 -11 -9 132 -32 218 -66 247 -152 369 -596 852 -217 236 -251 277 -338 404 -46 68 -80 103 -165 171 -58 46 -106 81 -106 77z"
       id="path48"
       style="fill:#ff69b4" />
    <path
       d="M3590 6535 c0 -7 51 -85 56 -85 2 0 4 13 4 28 0 20 -8 32 -30 45 -16 10 -30 16 -30 12z"
       id="path50"
       style="fill:#ee82ee" />
    <path
       d="M4380 6511 c0 -15 -8 -35 -18 -44 -31 -28 -105 -55 -172 -63 -36 -4 -89 -15 -119 -25 -69 -24 -98 -24 -156 1 -55 24 -56 24 -49 7 5 -14 65 -40 99 -43 11 -1 40 -5 65 -9 55 -9 202 8 277 32 46 14 59 24 79 58 27 47 32 100 9 109 -11 4 -15 -2 -15 -23z"
       id="path52"
       style="fill:#4169e1" />
    <path
       d="M3664 6485 c-10 -25 4 -77 33 -117 14 -21 27 -37 29 -35 2 1 -2 35 -8 75 -8 54 -15 75 -29 83 -15 7 -21 6 -25 -6z"
       id="path54"
       style="fill:#ee82ee" />
    <path
       d="M3209 6413 c-17 -87 -18 -317 -2 -334 9 -9 23 -8 62 2 28 7 51 16 51 21 0 4 -11 36 -24 71 -26 70 -56 202 -56 251 0 65 -17 59 -31 -11z"
       id="path56"
       style="fill:#8a2be2" />
    <path
       d="M3264 6404 c8 -101 48 -232 107 -352 28 -57 53 -102 56 -99 2 3 -6 25 -18 49 -35 69 -99 257 -89 263 5 3 12 -5 16 -17 19 -65 83 -216 131 -313 78 -155 154 -265 258 -370 118 -120 189 -169 85 -59 -95 99 -172 215 -247 369 -32 66 -93 179 -136 251 -43 73 -98 181 -123 240 l-45 109 5 -71z"
       id="path58"
       style="fill:#8a2be2" />
    <path
       d="M3730 6459 c1 -38 28 -177 39 -198 25 -46 33 -8 19 89 -11 77 -17 95 -35 108 -19 12 -23 12 -23 1z"
       id="path60"
       style="fill:#ee82ee" />
    <path
       d="M3802 6400 c0 -14 2 -19 5 -12 2 6 2 18 0 25 -3 6 -5 1 -5 -13z"
       id="path62"
       style="fill:none" />
    <path
       d="M4369 6376 c-26 -24 -54 -38 -95 -48 -75 -17 -329 -17 -346 0 -25 25 -38 13 -38 -34 l0 -45 65 -30 c72 -32 103 -35 239 -18 164 21 253 87 233 172 -5 20 -12 37 -15 37 -4 0 -23 -16 -43 -34z"
       id="path64"
       style="fill:#dda0dd" />
    <path
       d="M3810 6332 c0 -23 4 -42 9 -42 6 0 7 17 4 38 -8 51 -13 53 -13 4z"
       id="path66"
       style="fill:#ee82ee" />
    <path
       d="M4465 6351 c3 -11 1 -22 -5 -26 -6 -4 -22 -24 -35 -45 -40 -63 -113 -92 -270 -106 -130 -12 -130 -12 -190 14 -67 29 -95 49 -95 69 0 19 -15 16 -44 -9 -30 -27 -27 -33 34 -75 79 -54 225 -80 262 -46 16 14 23 15 58 3 33 -11 56 -11 116 -2 99 16 155 49 199 118 43 67 44 89 5 109 -38 20 -43 19 -35 -4z"
       id="path68"
       style="fill:#4169e1" />
    <path
       d="M5407 6299 c35 -61 183 -237 339 -404 218 -234 321 -349 377 -423 66 -85 149 -228 178 -304 34 -92 34 -49 0 85 -57 218 -130 388 -264 609 -108 179 -108 180 -390 333 -136 74 -250 135 -253 135 -3 0 3 -14 13 -31z"
       id="path70"
       style="fill:#8a2be2" />
    <path
       d="M4534 6267 c-16 -19 -37 -48 -46 -66 -10 -17 -25 -34 -35 -38 -10 -3 -25 -12 -33 -19 -22 -19 -137 -49 -198 -53 l-23 -1 20 -29 c22 -31 28 -99 11 -130 -5 -10 -23 -24 -40 -31 -28 -11 -34 -11 -58 7 -49 36 -56 65 -40 158 3 18 -5 20 -70 27 -42 4 -93 17 -122 31 -28 13 -50 22 -50 20 0 -3 44 -66 98 -142 53 -75 122 -175 152 -223 30 -48 59 -87 64 -88 4 0 47 24 95 54 104 66 233 115 310 118 44 1 67 -4 108 -25 28 -15 54 -31 58 -37 11 -18 27 -11 22 10 -3 12 0 20 7 20 7 0 -20 65 -61 148 -40 81 -84 185 -97 232 -13 46 -28 86 -33 87 -6 2 -23 -12 -39 -30z"
       id="path72"
       style="fill:#dda0dd" />
    <path
       d="M5160 6264 c0 -3 9 -18 20 -34 23 -33 101 -196 124 -261 9 -25 23 -54 32 -65 14 -17 15 -11 11 71 -4 107 -32 172 -105 248 -39 40 -82 62 -82 41z"
       id="path74"
       style="fill:#ff69b4" />
    <path
       d="M4625 6208 c4 -13 23 -61 42 -107 98 -240 205 -392 353 -504 82 -62 94 -60 26 4 -88 82 -140 156 -216 309 -53 106 -191 320 -207 320 -2 0 -1 -10 2 -22z"
       id="path76"
       style="fill:#ee82ee" />
    <path
       d="M4121 6067 c-32 -39 -20 -120 20 -132 47 -15 73 59 40 113 -22 34 -42 40 -60 19z"
       id="path78"
       style="fill:#ffd700" />
    <path
       d="M3259 6051 c-166 -65 -227 -176 -216 -393 7 -137 12 -147 57 -110 36 29 83 50 110 50 8 0 39 5 69 11 81 17 152 14 197 -8 l39 -19 3 26 c6 45 22 50 22 7 l0 -38 31 46 31 47 -56 83 c-31 45 -74 105 -96 132 -22 28 -56 80 -76 118 -39 74 -44 76 -115 48z"
       id="path80"
       style="fill:#dda0dd" />
    <path
       d="M6058 6003 c123 -71 197 -128 298 -228 94 -93 148 -169 229 -318 26 -49 49 -86 52 -84 14 14 -80 204 -153 309 -30 43 -54 80 -54 84 0 9 95 -111 121 -153 12 -19 24 -32 26 -29 11 10 -76 142 -136 207 -78 86 -161 139 -321 205 -71 30 -133 54 -137 54 -4 0 30 -21 75 -47z"
       id="path82"
       style="fill:#8a2be2" />
    <path
       d="M4500 5830 c-8 -5 -40 -17 -70 -26 -70 -20 -113 -42 -180 -93 -30 -22 -58 -42 -64 -44 -5 -2 -6 -8 -3 -15 5 -8 22 -4 55 12 120 60 213 95 275 105 63 11 71 10 130 -14 75 -29 83 -30 91 -9 9 23 -7 39 -67 69 -53 26 -138 34 -167 15z"
       id="path84"
       style="fill:#008000" />
    <path
       d="M4540 5733 c0 -10 9 -67 20 -128 43 -239 43 -231 16 -335 -14 -52 -23 -96 -21 -98 10 -11 30 18 62 86 29 64 32 79 23 105 -7 21 -7 34 0 42 8 10 2 26 -20 61 -39 63 -38 98 6 186 34 68 35 72 18 85 -10 7 -37 13 -61 13 -34 0 -43 -4 -43 -17z"
       id="path86"
       style="fill:#008000" />
    <path
       d="M4394 5711 c-40 -15 -88 -38 -107 -50 -19 -11 -41 -21 -49 -21 -33 0 -37 -21 -12 -74 13 -28 24 -67 24 -86 l-1 -35 -16 30 c-20 37 -65 97 -69 92 -2 -2 8 -32 23 -67 14 -36 30 -100 34 -142 5 -42 17 -99 27 -125 l18 -48 134 0 135 0 22 85 c15 57 21 100 17 130 -6 49 -52 294 -60 323 -7 24 -37 21 -120 -12z"
       id="path88"
       style="fill:#008000" />
    <path
       d="M4966 5731 c-9 -14 74 -108 146 -167 38 -30 68 -59 68 -64 0 -14 -99 30 -160 71 -30 20 -82 65 -115 98 -37 39 -68 61 -82 61 -24 0 -93 -64 -93 -87 0 -8 -5 -11 -10 -8 -7 4 -7 12 0 25 5 10 10 23 10 29 0 13 -39 14 -57 3 -18 -11 -63 -118 -63 -150 0 -40 35 -92 62 -92 25 0 83 39 59 40 -8 0 -23 -7 -33 -17 -15 -13 -18 -14 -18 -2 0 40 50 50 90 19 37 -29 68 -25 88 10 9 17 25 30 36 30 18 0 18 -1 3 -18 -10 -10 -17 -21 -17 -24 0 -12 64 -18 76 -7 11 9 14 7 14 -9 0 -11 12 -30 27 -42 24 -18 35 -20 90 -14 42 4 63 3 63 -4 0 -6 -12 -12 -26 -14 l-26 -3 32 -43 c27 -38 34 -43 60 -37 16 3 31 2 35 -4 3 -6 0 -11 -8 -11 -18 0 -27 -21 -27 -61 0 -24 4 -29 24 -29 32 0 43 18 21 34 -15 11 -12 14 25 31 23 10 48 28 56 39 16 24 19 142 4 166 -6 10 -10 11 -10 3 0 -30 -19 -9 -25 28 -6 33 -20 53 -78 109 -40 38 -79 69 -87 69 -9 0 -1 -11 19 -29 19 -16 32 -33 28 -36 -3 -4 -37 21 -76 55 -65 58 -110 77 -125 52z"
       id="path90"
       style="fill:#008000" />
    <path
       d="M5400 5697 c0 -31 10 -39 170 -132 74 -43 169 -98 211 -123 102 -59 198 -132 293 -222 76 -72 78 -73 46 -27 -105 148 -238 255 -505 407 -99 56 -184 106 -189 111 -17 15 -26 10 -26 -14z"
       id="path92"
       style="fill:#ff69b4" />
    <path
       d="M5403 5609 c3 -19 9 -68 13 -109 7 -70 9 -76 53 -123 56 -60 179 -147 371 -262 163 -97 233 -148 302 -218 l48 -48 -30 66 c-71 159 -184 320 -306 435 -62 59 -118 98 -259 179 -99 57 -184 106 -189 109 -5 3 -6 -10 -3 -29z"
       id="path94"
       style="fill:#ff69b4" />
    <path
       d="M3778 5613 c-10 -2 -18 -10 -18 -16 0 -7 52 -63 115 -124 63 -62 115 -115 115 -118 0 -12 -123 58 -185 105 -37 28 -69 49 -71 47 -9 -8 50 -186 77 -232 60 -104 43 -97 229 -96 90 1 165 3 167 4 1 2 0 13 -4 25 l-5 22 -31 -22 c-29 -21 -30 -21 -22 -2 17 39 17 92 0 128 -18 37 -84 99 -233 219 -79 64 -94 71 -134 60z"
       id="path96"
       style="fill:#008000" />
    <path
       d="M2649 5543 c-129 -135 -207 -253 -257 -393 -44 -119 -72 -215 -72 -242 0 -32 -11 -68 -20 -68 -14 0 57 295 85 350 16 32 29 130 17 130 -18 0 -81 -137 -125 -275 -50 -155 -75 -262 -78 -343 -3 -56 -19 -85 -19 -33 0 62 51 300 85 400 20 57 34 109 32 115 -11 33 -112 -203 -150 -352 -19 -76 -21 -110 -20 -277 2 -138 6 -204 17 -240 19 -62 20 -78 1 -44 -33 61 -75 236 -92 382 -22 190 -33 162 -36 -93 -1 -163 0 -183 26 -285 41 -157 88 -248 206 -395 96 -119 126 -165 80 -124 -30 27 -143 172 -228 292 -40 56 -74 102 -76 102 -9 0 31 -124 60 -188 70 -151 193 -300 348 -422 52 -41 93 -78 91 -81 -2 -4 -42 14 -90 38 -47 25 -88 43 -90 40 -8 -8 122 -121 182 -157 32 -19 94 -47 138 -61 100 -33 115 -56 19 -29 -37 10 -88 26 -112 34 -59 22 -62 20 -17 -10 66 -45 186 -95 240 -101 l51 -5 120 173 c66 95 124 180 129 190 5 11 2 26 -10 44 -15 23 -19 25 -24 10 -7 -21 -74 71 -138 190 -39 74 -42 77 -37 40 7 -55 -142 242 -180 359 -15 47 -37 94 -49 105 l-21 20 -2 -42 c-2 -46 -45 -161 -71 -190 -11 -13 -25 -17 -43 -13 -20 4 -33 -1 -50 -20 -13 -14 -32 -24 -44 -22 -19 3 -20 12 -25 150 l-5 148 -34 -65 c-18 -36 -45 -74 -59 -85 -30 -24 -75 -26 -93 -4 -11 14 1 43 86 213 92 181 106 202 178 275 l77 79 0 60 c0 52 -2 58 -15 47 -25 -21 -28 -6 -17 87 14 114 67 288 148 484 35 85 64 158 64 162 0 18 -22 2 -81 -60z m-339 -764 c0 -21 -4 -39 -10 -39 -5 0 -10 21 -10 46 0 27 4 43 10 39 6 -3 10 -24 10 -46z"
       id="path98"
       style="fill:#dda0dd" />
    <path
       d="M3627 5532 l-38 -39 30 -30 c44 -44 47 -73 21 -164 -12 -43 -19 -82 -16 -88 4 -6 2 -20 -4 -31 -11 -20 -9 -20 107 -14 65 4 119 8 121 9 2 2 -15 31 -38 66 -37 57 -64 131 -102 274 -8 28 -20 51 -29 53 -8 1 -31 -15 -52 -36z"
       id="path100"
       style="fill:#008000" />
    <path
       d="M3263 5531 c-24 -11 -47 -31 -55 -48 -8 -18 -22 -29 -38 -31 l-25 -3 25 20 25 21 -38 0 c-46 0 -97 -44 -97 -84 0 -24 -23 -56 -41 -56 -13 0 -11 9 6 26 8 9 15 20 15 25 0 16 -29 10 -50 -11 -15 -15 -20 -34 -21 -82 -2 -83 -1 -90 21 -112 20 -21 104 -34 114 -18 3 6 -6 20 -20 31 -37 29 -23 38 19 12 19 -11 42 -21 51 -21 20 0 89 64 79 73 -14 15 -53 7 -53 -10 0 -13 -3 -14 -11 -6 -18 18 -2 43 27 43 14 0 37 -9 51 -20 49 -38 173 -18 188 32 9 27 23 38 50 38 18 0 17 -3 -7 -23 -30 -23 -27 -36 9 -56 29 -15 52 -14 86 3 24 13 27 13 28 -2 0 -9 9 8 20 38 13 34 18 67 14 87 -7 38 -52 78 -70 63 -9 -8 -16 -3 -25 19 -15 38 -63 58 -123 53 -25 -3 -16 -25 13 -32 20 -5 21 -7 7 -18 -12 -11 -22 -6 -62 28 -25 22 -52 40 -58 40 -7 0 -31 -9 -54 -19z"
       id="path102"
       style="fill:#008000" />
    <path
       d="M4736 5452 c-3 -5 -21 -17 -41 -26 -22 -11 -35 -24 -35 -36 0 -24 1 -24 47 -5 20 8 66 15 104 15 60 0 80 -5 140 -36 80 -40 161 -110 179 -155 17 -40 34 -32 38 19 3 36 -3 48 -39 94 -31 40 -50 55 -78 61 -20 4 -54 22 -76 40 -39 31 -62 36 -145 27 -14 -2 -39 1 -56 5 -18 4 -34 3 -38 -3z"
       id="path104"
       style="fill:#008000" />
    <path
       d="M5350 5358 c0 -24 -8 -46 -24 -65 l-24 -27 57 -63 c64 -71 111 -144 148 -230 l24 -58 -5 78 c-6 83 -42 204 -82 276 -13 24 -22 47 -18 50 9 9 89 -84 124 -144 35 -61 80 -183 80 -217 0 -13 5 -30 11 -38 17 -25 0 76 -27 158 -13 40 -34 93 -47 117 -23 45 -127 184 -138 185 -4 0 -12 -27 -18 -60 -7 -33 -16 -60 -20 -60 -5 0 -12 24 -15 53 -9 67 -26 97 -26 45z"
       id="path106"
       style="fill:#ee82ee" />
    <path
       d="M4715 5362 c-35 -16 -43 -27 -76 -103 -28 -66 -33 -85 -22 -87 8 -2 12 -9 10 -15 -2 -7 -23 -11 -53 -10 -307 13 -756 7 -974 -12 -70 -6 -80 -9 -74 -24 4 -9 14 -46 22 -83 13 -57 13 -76 2 -125 -7 -32 -12 -60 -12 -63 1 -5 0 -5 237 -55 182 -38 226 -43 673 -86 316 -30 323 -30 355 -12 42 24 145 180 282 426 34 62 36 70 25 97 -17 42 -85 94 -175 135 -89 40 -156 45 -220 17z"
       id="path108"
       style="fill:#dda0dd" />
    <path
       d="M5281 5230 c0 -16 21 -49 60 -95 33 -38 76 -96 94 -127 36 -61 75 -173 75 -216 0 -14 3 -22 7 -18 11 10 4 74 -13 136 -26 90 -90 201 -159 276 -57 61 -64 66 -64 44z"
       id="path110"
       style="fill:#ee82ee" />
    <path
       d="M5172 5170 l-23 -19 40 -21 c22 -11 65 -40 96 -65 55 -45 55 -45 49 -18 -23 106 -50 143 -102 143 -21 -1 -47 -9 -60 -20z"
       id="path112"
       style="fill:#ee82ee" />
    <path
       d="M3080 5140 c-36 -3 -60 -8 -53 -13 13 -8 50 -164 56 -241 4 -38 1 -52 -14 -67 -10 -10 -19 -21 -19 -23 0 -2 93 -2 206 0 181 3 209 5 226 21 59 54 69 176 21 272 l-28 56 -165 0 c-91 1 -194 -2 -230 -5z"
       id="path114"
       style="fill:#c71585" />
    <path
       d="M2965 5081 c-41 -19 -66 -39 -266 -221 -63 -58 -145 -131 -182 -163 -48 -41 -82 -83 -117 -144 -57 -96 -170 -317 -170 -333 0 -17 56 -11 72 8 32 35 96 181 133 300 21 67 42 122 47 122 12 0 11 -9 -27 -126 -34 -106 -35 -114 -34 -269 0 -144 1 -157 14 -135 l14 25 1 -24 c0 -13 -8 -30 -17 -38 -14 -11 -14 -13 -3 -10 8 2 26 19 39 38 22 32 23 39 16 129 -12 150 -11 180 12 265 13 44 26 94 29 110 6 23 8 26 12 11 2 -11 -6 -66 -19 -123 -22 -98 -22 -109 -11 -245 7 -78 15 -144 17 -146 7 -8 34 18 41 40 3 11 0 26 -9 36 -9 10 -20 57 -28 119 l-12 101 39 91 c21 50 42 91 46 91 11 0 12 4 -28 -96 l-37 -89 12 -82 c6 -46 14 -90 17 -98 17 -44 40 13 48 124 9 122 63 194 214 286 136 83 233 199 231 278 -1 54 -31 179 -44 183 -5 2 -28 -5 -50 -15z m-415 -921 c0 -11 -4 -20 -10 -20 -5 0 -10 9 -10 20 0 11 5 20 10 20 6 0 10 -9 10 -20z"
       id="path116"
       style="fill:#c71585" />
    <path
       d="M4915 4789 c-22 -39 -57 -87 -79 -106 l-39 -36 -81 7 c-45 3 -110 9 -145 13 l-64 6 7 -44 c3 -24 2 -59 -3 -77 -9 -30 -8 -33 7 -27 48 18 150 34 265 40 125 7 128 8 141 34 21 40 38 139 34 204 l-3 57 -40 -71z"
       id="path118"
       style="fill:#ff1493" />
    <path
       d="M4989 4858 c-1 -2 -3 -25 -5 -53 -2 -27 -9 -82 -15 -122 l-12 -71 44 -53 c101 -120 141 -158 212 -194 94 -49 112 -67 153 -147 38 -74 40 -94 20 -153 -7 -22 -16 -55 -20 -74 -5 -29 -4 -32 9 -21 12 10 15 9 16 -6 1 -28 79 136 79 166 0 14 -7 50 -15 80 -17 64 -19 110 -5 110 6 0 10 -1 10 -2 1 -2 7 -39 15 -83 21 -115 20 -123 -30 -233 -26 -56 -43 -107 -39 -116 9 -22 23 -20 17 3 -3 10 0 22 6 25 7 5 11 -2 11 -15 0 -35 12 -15 48 84 54 148 56 157 38 227 -16 60 -22 129 -10 118 11 -11 44 -153 44 -188 0 -19 -9 -55 -20 -79 -11 -24 -20 -61 -20 -83 0 -50 25 -100 48 -96 15 3 17 22 20 155 2 127 -1 163 -18 225 -22 79 -25 108 -11 93 5 -6 19 -48 31 -95 12 -47 30 -105 41 -130 27 -61 94 -147 128 -164 34 -18 50 -9 21 11 -24 17 -27 38 -4 29 12 -5 10 2 -8 26 -44 60 -107 166 -157 265 -37 72 -70 120 -127 181 -97 105 -355 336 -397 355 -32 15 -96 31 -98 25z"
       id="path120"
       style="fill:#c71585" />
    <path
       d="M3495 4793 c-24 -13 -56 -16 -167 -14 -85 2 -138 -1 -138 -7 0 -21 179 -381 199 -401 17 -17 33 -21 91 -21 137 0 367 37 560 91 102 28 210 58 240 66 30 8 92 26 138 39 l83 26 -7 46 c-4 26 -8 49 -10 51 -2 2 -25 5 -51 8 -217 20 -589 69 -683 89 -63 14 -127 23 -142 20 -17 -3 -28 0 -32 9 -7 19 -43 18 -81 -2z"
       id="path122"
       style="fill:#dda0dd" />
    <path
       d="M3002 4743 c-11 -16 -27 -42 -36 -60 -9 -18 -53 -72 -99 -121 -65 -69 -88 -102 -105 -149 -12 -33 -31 -68 -42 -78 -26 -23 -25 -31 6 -123 22 -63 108 -256 120 -271 2 -2 10 2 19 9 13 11 17 7 31 -26 60 -147 125 -254 154 -254 10 0 28 -12 40 -27 21 -27 22 -27 36 -9 18 25 18 47 -1 116 -27 102 -22 128 41 204 116 141 284 357 284 367 0 5 -10 9 -23 9 -12 0 -32 7 -44 15 -11 8 -66 107 -121 220 l-101 205 -70 0 c-65 0 -71 -2 -89 -27z"
       id="path124"
       style="fill:#9370db" />
    <path
       d="M2819 4606 c-84 -55 -100 -71 -127 -121 -39 -72 -48 -114 -29 -140 13 -17 17 -18 32 -5 10 8 33 48 51 88 23 50 54 95 97 140 116 124 113 128 -24 38z"
       id="path126"
       style="fill:#ff1493" />
    <path
       d="M4924 4560 c-6 -6 -67 -15 -135 -19 -68 -5 -163 -17 -211 -27 -74 -15 -93 -16 -122 -6 -29 11 -45 10 -91 -2 -32 -8 -59 -17 -62 -19 -2 -3 3 -22 12 -43 36 -84 48 -200 49 -466 1 -141 4 -259 7 -262 9 -9 424 -10 438 -2 8 5 11 57 10 179 -3 195 4 235 77 462 60 188 68 245 28 205z"
       id="path128"
       style="fill:#dda0dd" />
    <path
       d="M4470 4530 c0 -5 5 -10 10 -10 6 0 10 5 10 10 0 6 -4 10 -10 10 -5 0 -10 -4 -10 -10z"
       id="path130"
       style="fill:none" />
    <path
       d="M4145 4446 c-60 -17 -114 -34 -120 -38 -6 -4 -10 -141 -10 -380 1 -410 -2 -382 90 -993 20 -132 42 -289 50 -350 24 -174 75 -449 159 -860 51 -246 49 -235 37 -235 -5 0 -12 15 -16 32 -3 18 -15 76 -26 128 -83 404 -143 727 -169 910 -17 118 -44 303 -60 410 -84 560 -84 564 -85 957 0 199 -2 364 -5 367 -3 2 -55 -6 -115 -20 -61 -13 -172 -29 -249 -36 l-138 -12 -61 -80 c-34 -45 -109 -139 -167 -210 -58 -70 -111 -137 -119 -148 -12 -17 -12 -33 3 -121 24 -137 78 -321 118 -402 20 -42 47 -79 73 -100 38 -31 217 -136 222 -131 2 1 -2 67 -8 146 -9 108 -9 185 0 307 l12 162 -31 60 c-21 42 -30 75 -30 108 0 66 31 306 42 318 11 13 10 -19 -7 -160 -8 -66 -15 -140 -15 -163 0 -43 25 -112 40 -112 10 0 28 102 36 208 3 45 10 82 14 82 4 0 6 -28 4 -62 l-5 -63 36 69 c20 37 39 66 41 63 3 -3 -10 -41 -30 -86 -46 -105 -62 -165 -78 -286 -17 -140 -14 -486 7 -606 28 -167 100 -398 179 -577 19 -44 59 -149 90 -233 30 -85 102 -282 160 -438 93 -249 104 -286 92 -300 -30 -33 -30 -69 -1 -107 21 -28 26 -43 22 -69 -4 -26 0 -38 19 -56 24 -22 34 -46 14 -34 -16 10 -12 -36 20 -192 16 -82 37 -206 46 -278 39 -311 115 -477 309 -671 102 -102 185 -147 266 -142 l54 3 3 91 c3 107 5 103 -126 379 -49 105 -142 316 -207 470 l-117 280 12 51 c10 39 10 56 1 72 -11 20 -20 22 -106 22 -51 0 -100 3 -109 6 -38 15 -9 23 87 26 l102 3 3 33 c2 19 -4 44 -13 59 -20 30 -11 44 12 20 9 -9 20 -37 23 -61 l5 -45 43 19 c53 24 55 7 2 -20 -40 -20 -47 -30 -32 -44 4 -4 7 -47 7 -94 l1 -87 102 -247 c56 -136 152 -352 213 -480 l112 -233 6 -108 6 -107 36 24 c20 14 41 38 46 53 11 32 0 244 -17 331 -27 135 -110 364 -240 662 -39 91 -77 180 -83 198 -5 17 -17 32 -25 32 -11 0 -12 14 -7 76 7 69 6 77 -15 99 -19 20 -22 32 -18 75 4 40 1 56 -14 76 -13 15 -26 23 -37 19 -15 -4 -19 16 -39 182 -42 366 -59 626 -72 1138 -10 381 -19 497 -60 787 -7 46 -6 105 2 187 10 103 10 138 -5 249 -18 141 -51 263 -70 261 -7 -1 -61 -15 -122 -33z m380 -2841 c-31 -25 -114 -59 -123 -50 -7 7 -5 9 63 43 73 38 102 41 60 7z m-185 -44 c0 -19 -156 -29 -210 -13 -16 4 14 9 85 13 61 3 113 6 118 7 4 1 7 -2 7 -7z"
       id="path132"
       style="fill:#008080" />
    <path
       d="M5170 4355 c0 -3 12 -24 26 -47 15 -23 38 -71 53 -107 20 -51 32 -68 54 -75 44 -16 49 1 24 79 -12 39 -26 76 -30 83 -9 13 -127 76 -127 67z"
       id="path134"
       style="fill:#ff1493" />
    <path
       d="M4374 3662 c2 -15 8 -54 11 -87 10 -98 9 -96 68 -89 121 14 279 42 287 50 5 5 10 40 12 78 l3 69 -193 3 -193 3 5 -27z"
       id="path136"
       style="fill:#00ced1" />
    <path
       d="M4787 3683 c-3 -5 -6 -39 -8 -78 -4 -65 -2 -70 17 -73 29 -4 41 15 48 81 7 55 6 57 -19 67 -31 12 -33 12 -38 3z"
       id="path138"
       style="fill:#00ced1" />
    <path
       d="M3081 3492 c-34 -75 -80 -189 -101 -253 -37 -111 -80 -296 -80 -344 0 -29 108 -174 164 -220 61 -50 105 -65 186 -65 108 0 380 45 419 69 11 7 7 29 -22 122 -20 63 -46 156 -58 206 l-21 93 -116 69 c-176 104 -207 144 -269 345 -18 60 -34 111 -36 112 -1 1 -31 -59 -66 -134z"
       id="path140"
       style="fill:#20b2aa" />
    <path
       d="M4782 3423 l3 -88 29 -3 c40 -5 46 6 36 63 -5 28 -12 65 -15 83 -5 26 -11 32 -31 32 -25 0 -25 0 -22 -87z"
       id="path142"
       style="fill:#00ced1" />
    <path
       d="M4555 3479 c-77 -11 -143 -23 -147 -27 -6 -6 9 -452 15 -458 1 -1 33 24 71 57 39 32 74 59 80 59 6 0 -26 -37 -71 -82 l-82 -83 11 -285 c9 -252 18 -336 31 -289 43 155 180 406 292 536 50 59 131 94 314 139 l153 38 -38 19 c-60 31 -214 86 -274 98 -46 10 -62 9 -100 -6 -70 -26 -80 -28 -80 -18 0 5 23 19 52 31 83 35 48 37 -59 2 -120 -39 -135 -47 -207 -105 -71 -59 -87 -50 -20 10 61 57 96 75 207 111 81 26 121 54 103 71 -3 3 -63 -6 -133 -20 -71 -14 -132 -22 -137 -17 -7 7 141 46 204 52 15 2 24 9 23 18 -1 8 -4 50 -8 93 -8 91 13 85 -200 56z"
       id="path144"
       style="fill:#66cdaa" />
    <path
       d="M2923 3284 c-72 -107 -103 -164 -103 -184 0 -30 49 -174 57 -166 2 2 17 59 33 127 26 113 88 307 112 352 5 10 8 20 6 22 -2 2 -49 -66 -105 -151z"
       id="path146"
       style="fill:#66cdaa" />
    <path
       d="M5060 3025 c-111 -30 -214 -70 -249 -94 -15 -11 -45 -42 -67 -68 l-39 -48 51 45 c49 43 66 54 144 87 19 8 44 20 55 26 25 13 139 47 183 54 35 6 55 23 25 22 -10 0 -56 -11 -103 -24z"
       id="path148"
       style="fill:#00ced1" />
    <path
       d="M5245 3020 c-4 -6 -21 -10 -38 -10 -36 1 -82 -7 -112 -20 -11 -5 -35 -11 -52 -14 -18 -3 -52 -14 -75 -25 -24 -10 -68 -30 -98 -44 -32 -14 -88 -53 -131 -93 -60 -55 -87 -90 -133 -172 -50 -89 -58 -109 -53 -139 4 -20 2 -43 -2 -52 -5 -9 -10 -36 -12 -61 -3 -34 -1 -45 10 -45 10 0 18 21 26 70 14 83 67 193 124 259 22 25 42 54 45 63 9 28 118 119 167 142 86 38 105 45 169 63 119 35 145 40 203 40 31 0 57 3 57 7 0 8 -65 41 -80 41 -5 0 -12 -5 -15 -10z"
       id="path150"
       style="fill:#66cdaa" />
    <path
       d="M2820 2986 c0 -23 54 -262 62 -273 5 -7 38 -21 72 -33 35 -11 83 -33 107 -49 52 -33 144 -130 185 -195 26 -42 32 -46 57 -42 23 5 36 -2 72 -35 40 -37 51 -42 122 -51 80 -10 290 -2 312 11 11 7 6 61 -6 61 -3 0 -25 -14 -49 -32 -24 -17 -47 -28 -51 -24 -5 4 -1 13 8 19 8 7 30 25 48 40 l33 28 -48 125 c-43 112 -50 125 -69 119 -11 -3 -85 -19 -164 -36 -185 -37 -322 -40 -389 -8 -86 42 -178 150 -259 304 -23 44 -43 76 -43 71z"
       id="path152"
       style="fill:#66cdaa" />
    <path
       d="M5163 2941 c-45 -10 -89 -24 -97 -30 -8 -7 -20 -10 -26 -6 -5 3 -22 -1 -37 -9 -16 -8 -54 -27 -85 -41 -32 -15 -58 -30 -58 -33 -1 -4 -21 -23 -46 -42 -25 -19 -52 -48 -61 -65 -9 -16 -30 -48 -48 -70 -48 -60 -83 -135 -104 -225 -21 -90 -23 -86 58 -118 66 -27 71 -27 71 -1 0 30 84 212 122 266 31 42 102 101 141 116 9 3 17 11 17 17 0 5 7 10 15 10 8 0 23 9 33 20 9 11 35 29 57 39 57 27 200 68 262 76 29 4 55 10 57 14 3 4 -20 27 -51 50 -66 53 -102 58 -220 32z"
       id="path154"
       style="fill:#20b2aa" />
    <path
       d="M5340 2815 c-112 -26 -245 -77 -263 -101 -10 -13 -23 -24 -28 -24 -5 0 -31 -15 -57 -32 -26 -18 -57 -38 -67 -44 -57 -31 -187 -291 -169 -337 12 -32 31 -18 38 29 10 74 70 177 142 243 128 117 400 241 529 241 56 0 70 11 36 30 -25 13 -92 11 -161 -5z"
       id="path156"
       style="fill:#20b2aa" />
    <path
       d="M5341 2744 c-25 -8 -49 -18 -55 -24 -5 -5 -20 -10 -32 -10 -12 0 -27 -7 -34 -15 -7 -8 -18 -15 -24 -15 -17 0 -147 -68 -186 -98 -71 -54 -137 -129 -165 -187 -28 -60 -46 -155 -28 -155 5 0 25 33 44 72 46 97 139 192 237 241 40 19 165 66 279 102 l207 67 -25 19 c-30 23 -150 25 -218 3z"
       id="path158"
       style="fill:#20b2aa" />
    <path
       d="M5643 2712 l-53 -15 47 -86 c59 -110 96 -165 260 -387 214 -293 238 -345 231 -498 -3 -59 -10 -103 -22 -126 l-17 -35 36 40 c54 59 71 129 57 229 -14 98 -43 162 -137 301 -41 61 -110 178 -153 260 -102 191 -184 335 -191 334 -3 -1 -30 -8 -58 -17z"
       id="path160"
       style="fill:#20b2aa" />
    <path
       d="M5370 2631 c-328 -109 -415 -173 -513 -380 -40 -85 -40 -100 2 -101 23 0 247 -78 340 -118 90 -38 97 -57 9 -24 -29 11 -62 24 -73 28 -11 4 23 -24 75 -61 52 -38 97 -70 99 -72 2 -1 1 -6 -3 -10 -3 -4 -60 30 -126 76 -127 86 -243 148 -248 131 -3 -9 46 -101 110 -207 11 -18 16 -33 11 -33 -5 0 -41 53 -81 119 -40 65 -78 124 -85 129 -7 6 -31 17 -53 24 -39 14 -44 24 -29 61 6 14 -6 24 -71 53 -102 48 -174 72 -236 80 l-51 7 7 -104 c7 -103 43 -433 52 -477 2 -12 20 -40 39 -61 19 -21 38 -48 43 -61 8 -20 28 -29 153 -62 199 -53 421 -93 709 -129 309 -39 388 -41 453 -12 139 64 198 150 205 302 7 150 -17 199 -238 496 -143 190 -218 306 -264 403 -19 38 -36 62 -45 61 -9 0 -95 -27 -191 -58z"
       id="path162"
       style="fill:#008080" />
    <path
       d="M2733 2634 c-46 -26 -83 -50 -83 -53 0 -3 9 -12 21 -19 18 -11 26 -10 66 13 24 15 48 24 51 20 9 -9 -21 -30 -98 -68 -89 -44 -166 -43 -305 2 -112 37 -153 38 -261 2 -122 -39 -337 -164 -394 -228 -52 -59 -54 -96 -7 -140 67 -63 138 -83 307 -83 147 0 200 7 200 26 0 8 -9 14 -20 14 -11 0 -20 5 -20 11 0 15 69 2 142 -28 93 -37 334 -112 418 -128 87 -18 240 -34 240 -25 0 3 -7 16 -16 28 -27 38 -7 37 27 -2 43 -50 84 -77 103 -70 23 9 20 29 -6 41 -22 10 -22 11 -4 18 14 6 30 -3 68 -43 52 -54 68 -61 86 -39 9 10 5 23 -14 51 -14 21 -23 40 -20 44 4 3 14 -5 23 -18 50 -71 61 -77 272 -141 228 -68 543 -151 550 -144 2 3 -10 42 -27 88 -17 45 -60 163 -97 262 -98 268 -99 271 -121 266 -35 -7 -369 -2 -403 6 -23 6 -35 15 -37 28 -3 21 -30 45 -51 45 -30 0 -97 -44 -163 -107 -39 -36 -73 -63 -76 -60 -7 7 122 140 151 155 20 10 20 11 -2 56 -12 24 -52 77 -89 115 -82 88 -184 143 -272 148 -53 4 -63 1 -139 -43z m531 -406 c-33 -35 -68 -80 -79 -100 -21 -42 -40 -51 -30 -15 13 40 44 83 95 131 72 68 83 56 14 -16z m-1468 -85 c32 -15 67 -18 189 -17 135 1 146 0 110 -12 -91 -29 -301 -10 -335 31 -16 19 -11 19 36 -2z"
       id="path164"
       style="fill:#008080" />
    <path
       d="M2380 2057 c0 -10 160 -67 253 -92 104 -27 285 -56 343 -54 22 1 -12 8 -74 15 -63 8 -150 23 -195 34 -71 18 -278 81 -314 96 -7 3 -13 3 -13 1z"
       id="path166" />
  </g>
</svg>
