<?xml version="1.0" standalone="no"?>
<!DOCTYPE svg PUBLIC "-//W3C//DTD SVG 20010904//EN"
 "http://www.w3.org/TR/2001/REC-SVG-20010904/DTD/svg10.dtd">
<svg version="1.0" xmlns="http://www.w3.org/2000/svg"
 width="1024.000000pt" height="1024.000000pt" viewBox="0 0 1024.000000 1024.000000"
 preserveAspectRatio="xMidYMid meet">
<metadata>
Created by potrace 1.14, written by Peter Selinger 2001-2017
</metadata>
<g transform="translate(0.000000,1024.000000) scale(0.100000,-0.100000)"
fill="#000000" stroke="none">
<path d="M2987 10009 c-17 -10 -47 -59 -47 -78 0 -6 16 -29 36 -50 23 -26 37
-53 40 -78 10 -71 15 -85 42 -110 15 -13 38 -45 52 -70 41 -76 65 -88 180 -88
l98 -1 173 -104 c216 -130 304 -195 399 -296 88 -93 97 -107 279 -409 76 -126
179 -297 230 -380 135 -221 155 -284 231 -719 26 -147 29 -184 20 -207 -18
-42 -55 -61 -129 -66 -72 -6 -137 -35 -339 -156 -180 -107 -210 -152 -223
-332 -4 -60 -8 -156 -8 -212 -1 -56 -6 -114 -13 -128 -8 -18 -49 -44 -152 -97
-256 -129 -360 -200 -492 -334 -94 -94 -174 -210 -235 -339 -38 -79 -55 -101
-142 -185 -137 -132 -184 -207 -330 -536 -165 -369 -172 -393 -172 -564 0
-125 3 -142 33 -231 17 -53 32 -103 32 -112 0 -9 -25 -35 -56 -58 -118 -87
-188 -178 -231 -300 -21 -60 -27 -98 -31 -197 -7 -179 23 -301 106 -432 45
-73 81 -110 175 -182 110 -85 111 -86 103 -222 -9 -134 -3 -162 35 -181 15 -8
34 -27 41 -42 8 -16 38 -41 73 -61 73 -41 100 -65 130 -117 24 -41 67 -213
130 -515 75 -361 175 -730 219 -803 36 -63 62 -80 286 -194 171 -87 267 -126
361 -147 15 -3 46 -22 70 -42 64 -53 119 -77 278 -123 171 -49 192 -52 571
-91 162 -17 331 -35 375 -40 114 -14 242 -12 307 5 30 8 98 34 150 59 120 57
196 76 295 75 89 -1 236 33 326 75 31 15 100 62 154 104 54 43 150 116 213
163 172 127 266 241 314 377 23 64 71 128 132 174 90 68 81 25 158 723 25 226
48 427 50 449 3 24 15 50 34 70 16 17 35 46 42 64 15 38 42 56 85 54 57 -2 59
2 56 165 -3 168 -8 155 93 223 79 53 161 145 205 230 56 107 74 190 69 315 -8
163 -60 284 -178 409 -50 53 -274 236 -343 281 l-27 17 40 39 c67 65 85 110
85 214 0 115 -16 150 -77 169 -15 4 -13 14 19 88 44 101 51 150 29 214 -8 27
-20 81 -26 120 -14 105 -32 137 -138 248 -54 57 -112 129 -132 164 -81 146
-104 166 -203 175 -130 12 -180 48 -281 201 -99 150 -120 166 -276 222 -17 6
-18 4 163 162 85 73 109 100 118 132 15 51 7 68 -180 355 -404 620 -506 784
-659 1066 -213 392 -404 679 -451 679 -34 0 -129 -79 -170 -141 -41 -62 -73
-152 -256 -734 -32 -99 -61 -184 -65 -188 -10 -11 -30 57 -70 234 -58 257
-120 439 -202 589 -50 92 -224 350 -400 592 -171 237 -244 308 -464 454 -95
62 -197 136 -226 163 -56 52 -110 140 -123 201 -12 56 -43 108 -73 124 -25 13
-260 67 -287 66 -5 0 -18 -5 -28 -11z m172 -50 c69 -17 132 -36 139 -42 22
-18 40 -59 47 -110 7 -48 7 -48 -44 -98 -56 -54 -86 -61 -129 -30 -15 10 -43
24 -63 30 -41 13 -54 37 -62 110 -4 27 -15 53 -30 70 -13 14 -27 33 -30 42 -6
19 18 59 35 59 6 0 68 -14 137 -31z m292 -347 c27 -20 73 -55 102 -77 29 -23
106 -76 172 -120 157 -103 301 -247 461 -461 189 -251 292 -411 383 -593 65
-129 101 -234 167 -488 59 -229 114 -404 146 -466 11 -22 17 -41 15 -44 -13
-12 -48 44 -83 133 l-39 99 -3 -56 c-2 -41 4 -74 23 -124 14 -37 25 -69 25
-71 0 -2 -15 -4 -34 -4 l-34 0 1 123 c0 92 -6 158 -27 272 -67 368 -87 416
-353 830 -49 77 -139 223 -199 324 -170 287 -233 345 -644 595 -136 83 -182
106 -210 106 -20 0 -41 -5 -46 -10 -14 -14 -89 3 -115 26 -10 9 -19 25 -19 35
0 17 2 17 37 3 50 -21 93 -11 145 35 l43 39 18 -34 c10 -19 40 -51 68 -72z
m2001 -1109 c47 -71 150 -243 228 -383 168 -299 245 -426 588 -969 264 -419
332 -534 332 -563 0 -41 -31 -73 -157 -163 -74 -53 -140 -98 -147 -101 -7 -3
-26 10 -41 28 -118 144 -318 249 -505 264 -44 4 -80 8 -80 9 0 46 -35 316 -46
355 -42 148 -142 235 -363 314 -53 19 -99 28 -157 30 -56 2 -90 8 -107 19 -57
37 -107 133 -107 204 0 47 250 823 292 906 31 61 147 177 178 177 4 0 46 -57
92 -127z m-728 -1208 c109 -8 216 -31 309 -67 42 -16 82 -28 89 -26 6 2 -12
21 -40 42 -29 21 -52 40 -52 43 0 3 39 3 88 0 162 -11 298 -73 403 -184 68
-73 82 -110 100 -265 31 -267 -39 -616 -161 -803 -58 -88 -83 -115 -109 -115
-10 0 -52 22 -93 49 -99 66 -160 85 -246 78 -81 -6 -137 -29 -218 -90 -33 -26
-73 -51 -88 -57 -107 -40 -293 36 -436 180 -147 147 -201 270 -219 501 -11
135 -3 297 19 378 15 57 65 128 115 164 25 17 112 67 193 109 144 76 148 78
207 73 33 -2 96 -7 139 -10z m1079 -724 c16 -6 16 -9 -7 -30 l-24 -23 -16 31
c-16 30 -16 31 6 30 13 0 31 -4 41 -8z m-74 -51 c39 -90 46 -165 25 -242 -7
-25 -65 -23 -98 3 -21 17 -26 29 -26 66 0 76 45 223 69 223 5 0 18 -23 30 -50z
m259 -19 c155 -79 268 -201 292 -317 9 -40 9 -59 1 -67 -8 -8 -11 -8 -11 1 0
20 -81 102 -120 122 -19 10 -61 23 -93 30 -75 15 -116 2 -173 -57 l-43 -45
-40 29 c-40 29 -41 30 -21 48 32 29 43 78 31 136 -16 75 -14 110 11 136 32 34
76 29 166 -16z m-1981 -123 c11 -13 64 -99 117 -192 l96 -169 -32 6 c-18 4
-87 18 -153 32 -130 27 -186 30 -254 14 -105 -24 -218 -105 -260 -186 -30 -60
-44 -156 -37 -258 17 -222 85 -367 240 -512 l76 -71 -66 -8 c-270 -28 -435 76
-495 316 -30 118 -23 304 15 435 74 248 161 345 497 548 86 52 124 65 190 66
35 1 50 -4 66 -21z m2122 -156 c66 -33 111 -86 118 -139 6 -49 -6 -59 -120
-103 -103 -40 -104 -40 -207 103 -52 72 -53 84 -16 126 51 57 128 62 225 13z
m-417 -14 c108 -64 175 -136 233 -248 42 -82 49 -92 58 -74 7 18 20 22 74 27
51 4 87 16 171 57 144 70 140 65 166 183 7 29 31 36 67 17 19 -11 120 -155
153 -217 31 -62 15 -127 -45 -177 -17 -15 -29 -29 -26 -32 14 -15 75 13 119
54 l49 46 90 -29 c50 -16 92 -33 95 -37 8 -13 -94 -37 -202 -48 -115 -12 -246
-4 -475 29 -74 10 -160 22 -191 26 -31 3 -61 12 -67 19 -6 7 -16 37 -21 67
-13 69 -48 121 -104 154 -62 36 -103 41 -144 15 -49 -30 -56 -60 -37 -148 19
-83 17 -86 -43 -98 -49 -10 -156 34 -160 65 -8 53 5 55 72 7 36 -25 67 -46 70
-46 3 0 6 11 6 24 0 19 -13 33 -57 60 -31 20 -61 37 -67 39 -6 2 5 43 27 98
20 52 46 120 57 152 26 70 35 71 132 15z m660 -73 c-26 -67 -41 -72 -34 -11 4
33 33 76 51 76 5 0 -2 -29 -17 -65z m-2340 -115 c78 -24 133 -75 218 -200 63
-92 122 -154 185 -192 22 -14 155 -77 295 -140 197 -90 278 -121 355 -139 55
-12 178 -53 273 -91 224 -89 290 -103 447 -93 209 14 241 11 348 -23 111 -37
230 -43 326 -17 30 8 89 19 130 26 42 6 92 19 112 29 34 18 81 65 105 106 10
17 14 16 53 -18 39 -33 168 -95 177 -85 3 2 -3 20 -11 40 -8 21 -15 66 -15
106 0 38 -5 82 -11 98 -6 15 -11 42 -11 59 0 35 57 154 74 154 26 0 233 -236
259 -295 44 -101 32 -196 -32 -257 -30 -29 -62 -45 -146 -72 -213 -68 -387
-88 -553 -61 -243 40 -295 36 -830 -60 -85 -16 -211 -30 -305 -34 -140 -7
-168 -11 -222 -35 -97 -41 -143 -37 -265 25 -127 65 -189 73 -322 39 -164 -41
-218 -19 -393 157 -86 86 -144 136 -175 151 -26 12 -52 22 -56 22 -5 0 -27 16
-49 35 -61 52 -78 105 -78 240 0 101 2 115 29 168 31 64 65 91 125 101 51 8
65 26 58 78 -6 48 -32 86 -75 111 -36 21 -54 22 -218 10 -106 -8 -127 -12
-162 -35 -49 -33 -78 -79 -91 -144 -11 -54 0 -143 12 -94 3 14 9 43 12 65 9
54 39 109 72 133 39 27 91 39 210 46 113 8 148 -2 179 -49 26 -41 15 -65 -49
-103 -116 -67 -144 -142 -128 -333 14 -164 32 -196 148 -254 108 -55 178 -110
252 -201 111 -134 199 -169 350 -139 152 31 231 20 366 -48 86 -43 158 -47
254 -13 53 19 93 26 140 25 l66 -1 -60 -28 c-92 -44 -185 -63 -268 -57 -552
41 -605 50 -732 123 -131 76 -382 245 -495 334 -160 126 -311 283 -351 366
-30 61 -34 78 -34 149 1 96 22 150 86 220 97 105 266 143 421 95z m1800 -3
c46 -27 85 -79 99 -130 14 -52 6 -72 -22 -56 -13 7 -55 10 -108 8 l-86 -4 -17
35 c-27 56 -23 106 11 141 36 35 72 37 123 6z m-702 -22 c14 -7 69 -51 123
-97 55 -45 120 -96 145 -113 44 -29 50 -30 146 -28 130 3 406 -12 671 -37 234
-22 429 -25 573 -9 82 9 106 16 155 46 56 34 59 34 73 17 35 -47 -9 -88 -140
-130 -143 -45 -400 -42 -626 8 -52 11 -129 23 -172 25 -86 6 -447 -33 -463
-49 -7 -7 3 -8 30 -4 243 34 373 32 499 -8 128 -42 185 -48 451 -44 l250 3 83
43 c46 23 87 40 93 37 25 -16 -103 -206 -242 -359 l-54 -58 -130 -29 c-160
-35 -258 -37 -374 -8 -106 27 -164 51 -136 56 55 10 167 48 220 75 71 35 157
89 152 95 -3 2 -74 -25 -158 -60 -85 -35 -171 -70 -193 -77 -54 -17 -126 -8
-188 25 -158 82 -196 76 -53 -9 52 -31 96 -60 99 -65 13 -20 -249 -38 -323
-22 -30 6 -134 45 -232 86 -128 54 -199 78 -251 85 -40 6 -100 19 -133 30 -78
25 -195 78 -195 88 0 5 100 46 222 92 122 45 237 89 256 97 l35 15 -94 55
c-187 109 -230 121 -312 85 -68 -30 -61 -46 16 -40 34 3 87 1 119 -3 61 -10
214 -77 201 -89 -11 -10 -258 -115 -313 -133 -85 -28 -131 -38 -149 -32 -21 6
-102 122 -130 186 -23 52 -18 67 42 107 70 48 240 145 277 159 38 14 89 9 130
-12z m-690 -113 c101 -50 119 -63 147 -105 31 -47 60 -124 50 -134 -3 -2 -19
3 -37 12 -43 22 -47 13 -14 -31 l28 -37 -24 8 c-73 21 -218 133 -259 198 -22
36 -45 123 -36 138 10 15 25 10 145 -49z m-1218 -99 c-25 -74 -27 -89 -27
-273 l0 -195 32 -65 c40 -81 139 -191 196 -219 66 -32 138 -42 312 -45 210 -3
241 -13 345 -112 69 -66 150 -118 217 -138 12 -4 52 -30 90 -58 131 -98 273
-141 468 -142 134 -1 109 -9 329 109 109 58 212 94 421 146 303 75 343 80 718
86 194 3 337 2 337 -4 0 -4 -34 -37 -75 -72 -119 -101 -117 -97 -59 -123 66
-29 213 -36 305 -14 73 17 185 63 176 72 -3 3 -55 -2 -117 -11 -61 -10 -113
-15 -117 -12 -3 3 21 41 53 84 66 87 61 84 239 122 98 21 265 91 309 129 18
16 19 16 12 -27 -10 -64 -29 -94 -118 -187 l-81 -84 39 0 c22 1 50 7 64 15 36
20 57 18 63 -7 8 -28 -20 -74 -58 -98 -16 -10 -117 -50 -222 -89 -135 -50
-207 -71 -239 -71 -25 0 -150 16 -278 35 -127 20 -262 38 -301 41 -92 8 -190
-14 -297 -64 -137 -65 -212 -74 -391 -46 -77 13 -167 16 -372 16 -376 -1 -491
17 -686 107 -47 21 -130 53 -185 70 -113 35 -165 68 -219 138 -46 61 -105 101
-158 107 -23 3 -101 8 -174 11 -255 10 -369 49 -482 162 -110 111 -181 273
-181 413 0 70 20 157 54 234 23 51 73 136 80 136 2 0 -8 -35 -22 -77z m-162
-310 l0 -88 -19 31 c-11 18 -25 35 -31 39 -17 10 -86 -70 -121 -141 -66 -133
-62 -460 7 -678 89 -280 275 -470 558 -572 97 -34 203 -54 395 -74 77 -7 126
-19 187 -43 82 -33 234 -124 234 -141 0 -4 -15 -6 -32 -2 -18 3 -193 26 -388
51 -195 25 -382 52 -415 61 -187 50 -341 165 -458 341 -228 347 -290 760 -155
1028 12 22 34 60 51 84 35 52 165 191 178 191 5 0 9 -39 9 -87z m3925 -33 c10
-19 15 -57 15 -110 0 -94 -11 -101 -66 -46 -49 49 -46 103 9 164 11 12 22 22
23 22 2 0 10 -13 19 -30z m-3938 -85 c72 -83 74 -93 47 -194 -17 -60 -24 -112
-24 -173 l0 -88 -44 0 c-63 0 -81 -26 -97 -140 -7 -50 -16 -90 -20 -90 -9 0
-27 121 -39 253 -10 121 0 271 24 352 15 48 77 135 96 135 5 0 30 -25 57 -55z
m682 -69 c152 -137 540 -407 686 -477 112 -54 209 -76 392 -89 87 -6 196 -15
243 -20 47 -6 89 -10 95 -10 28 0 -22 -24 -86 -41 -92 -24 -286 -26 -395 -3
-180 37 -345 113 -534 246 -63 45 -155 108 -205 141 -114 76 -230 192 -283
283 -23 38 -42 74 -42 79 0 5 15 -5 33 -21 17 -17 61 -56 96 -88z m-505 -200
l56 -68 -27 -32 c-14 -17 -32 -45 -40 -63 -17 -42 -17 -134 1 -201 14 -53 14
-54 -5 -36 -77 70 -124 350 -79 469 13 33 9 36 94 -69z m189 -151 c63 -31 124
-52 192 -66 297 -61 390 -93 533 -187 96 -62 407 -181 620 -236 l122 -32 -47
-36 c-141 -108 -293 -168 -428 -171 -98 -2 -366 27 -493 55 -256 54 -458 152
-580 282 -88 93 -121 201 -101 326 12 79 31 110 65 110 14 0 67 -20 117 -45z
m-773 -179 c-61 -152 -76 -311 -44 -476 8 -45 13 -85 10 -88 -13 -12 -56 109
-67 190 -21 146 8 295 90 453 l36 70 3 -36 c2 -22 -9 -64 -28 -113z m4194 112
c-28 -54 -106 -123 -159 -141 -52 -18 -115 -23 -115 -8 0 22 99 96 182 136 50
25 95 45 100 45 5 0 1 -14 -8 -32z m-3784 12 c11 -6 35 -44 54 -84 47 -102
102 -180 182 -257 84 -80 132 -113 251 -172 351 -176 900 -244 1114 -137 24
12 95 56 157 98 l114 77 126 -3 c82 -2 166 3 237 13 116 18 183 15 310 -11 78
-17 224 -19 270 -5 17 5 64 22 105 39 41 16 109 37 150 47 97 23 287 23 390 2
87 -19 310 -88 310 -96 0 -3 -80 -40 -178 -81 l-177 -75 -153 -3 c-84 -2 -150
-7 -147 -12 9 -15 145 -32 223 -28 83 4 87 6 342 122 100 45 145 71 145 82 0
12 78 54 258 140 142 68 263 124 268 124 15 0 10 -52 -10 -96 -10 -22 -37 -56
-60 -76 -69 -59 -268 -198 -306 -214 -20 -8 -86 -21 -148 -29 -150 -20 -242
-47 -348 -101 -150 -77 -308 -83 -499 -21 -101 34 -243 54 -503 72 -383 27
-454 21 -647 -52 -73 -27 -115 -37 -183 -41 -49 -3 -85 -8 -80 -12 4 -4 47
-15 95 -25 124 -25 245 -17 363 24 131 46 247 61 484 61 112 0 202 -2 199 -5
-2 -3 -60 -16 -128 -30 -68 -14 -126 -27 -128 -30 -13 -12 11 -11 123 6 201
30 318 24 427 -23 57 -25 58 -19 -19 -140 -31 -49 -54 -91 -51 -94 3 -2 33 34
67 80 34 47 72 92 84 101 27 19 61 19 76 1 10 -12 53 -286 46 -294 -2 -2 -44
-6 -94 -9 -50 -3 -88 -10 -85 -14 9 -15 186 -10 249 6 91 23 214 88 260 136
35 37 36 39 10 22 -75 -51 -298 -144 -311 -130 -7 7 -33 214 -34 265 0 29 3
32 31 32 60 0 168 32 226 67 93 56 145 81 209 97 90 23 367 76 372 71 3 -2 -3
-23 -13 -47 -41 -104 -145 -196 -279 -249 -71 -28 -71 -28 -30 -29 59 0 135
25 195 65 28 20 53 34 55 32 2 -2 -9 -22 -24 -43 -42 -57 -346 -236 -501 -295
-206 -78 -450 -99 -676 -59 -151 27 -343 25 -430 -5 -66 -23 -310 -31 -472
-16 -169 15 -310 44 -473 97 -137 44 -176 64 -126 64 30 0 34 17 9 37 -37 29
-291 152 -356 172 -37 11 -125 28 -195 37 -229 29 -363 75 -516 178 -239 160
-344 338 -316 537 18 128 52 170 110 139z m-340 -162 c53 -144 164 -418 197
-483 88 -176 229 -290 424 -345 40 -11 222 -45 405 -75 394 -65 459 -79 652
-145 273 -91 485 -136 700 -147 67 -3 122 -10 122 -14 0 -12 -236 -86 -331
-104 -175 -33 -336 -14 -498 60 -106 48 -187 67 -268 63 -68 -3 -69 -8 -3 -25
33 -9 29 -11 -65 -29 -72 -14 -141 -19 -250 -18 -131 0 -162 3 -249 27 -247
68 -559 275 -763 509 -126 143 -166 255 -167 463 0 85 5 139 18 184 17 62 45
141 51 141 1 0 13 -28 25 -62z m4671 -399 c226 -156 363 -308 409 -455 65
-211 10 -436 -141 -585 -79 -78 -199 -160 -272 -186 -37 -13 -72 -40 -137
-103 -47 -47 -114 -101 -149 -120 -34 -19 -90 -58 -124 -86 -114 -95 -113 -94
-417 -83 l-125 4 -150 -61 c-82 -34 -181 -69 -220 -79 -80 -20 -235 -25 -397
-11 -58 5 -117 6 -131 2 -14 -3 -45 -22 -68 -42 -87 -73 -96 -75 -391 -72
l-263 3 -119 -33 c-134 -36 -228 -42 -297 -16 -75 28 -121 33 -214 23 -152
-16 -395 17 -550 76 -103 39 -246 117 -234 129 3 4 280 36 305 36 2 0 4 5 4
10 0 6 -71 10 -192 10 -232 0 -269 7 -513 94 -335 120 -401 156 -538 292 -97
96 -139 177 -167 322 -56 292 11 501 209 646 75 55 98 51 164 -31 112 -141
284 -284 462 -386 133 -76 365 -184 445 -207 90 -26 315 -37 430 -22 41 6 118
16 170 23 l96 13 164 -39 c149 -36 177 -39 295 -39 153 1 176 6 556 114 156
44 313 85 349 90 36 5 145 10 242 10 196 0 349 17 508 55 89 22 141 45 343
148 138 70 258 139 285 162 71 62 202 272 261 418 6 15 17 27 24 27 7 0 47
-23 88 -51z m55 -1373 c13 -50 24 -92 24 -93 0 -2 -15 -3 -32 -3 -55 0 -79
-20 -98 -77 -24 -73 -34 -83 -85 -81 -52 3 -88 -19 -114 -70 -35 -67 -89 -108
-280 -209 -33 -17 -61 -23 -110 -23 -74 0 -139 -26 -202 -80 -27 -24 -51 -33
-99 -40 -41 -6 -70 -16 -85 -30 -21 -19 -27 -20 -62 -10 -29 9 -49 9 -81 1
-44 -12 -112 -64 -112 -85 0 -32 -36 -46 -122 -48 -78 -3 -89 -1 -120 22 -45
33 -92 32 -147 -5 l-45 -30 -445 0 c-434 0 -448 -1 -518 -23 -111 -34 -146
-29 -205 26 -20 19 -55 32 -130 49 -118 26 -150 28 -212 11 -41 -11 -61 -8
-225 31 l-180 42 -50 -18 c-50 -17 -50 -17 -133 9 -46 15 -105 30 -133 34 -56
7 -196 49 -238 70 -15 8 -35 31 -45 52 l-17 36 -195 56 c-224 63 -214 54 -180
170 28 94 23 136 -8 65 -38 -87 -47 -100 -68 -97 -10 2 -21 6 -23 8 -5 5 40
198 49 207 4 5 52 -14 106 -42 55 -29 178 -80 274 -115 96 -36 225 -85 285
-111 123 -52 308 -117 396 -140 105 -27 281 -46 414 -44 111 1 138 -2 185 -19
34 -13 79 -21 118 -22 l62 0 -15 -36 c-16 -39 -21 -134 -6 -134 4 0 11 21 14
46 8 73 60 129 129 140 90 15 120 -20 93 -111 -9 -31 -13 -60 -10 -64 4 -3 18
7 31 22 30 35 32 92 4 146 l-19 39 92 8 c108 9 466 9 495 0 11 -4 27 -25 36
-51 16 -41 84 -115 106 -115 5 0 -8 28 -31 62 -66 103 -64 125 11 167 31 17
64 26 118 29 79 5 92 -1 92 -44 0 -35 50 -121 86 -149 19 -15 37 -25 39 -23 3
2 -13 27 -34 56 -34 45 -79 147 -70 157 2 2 20 6 40 10 29 5 41 2 63 -17 22
-19 30 -39 44 -110 9 -49 20 -88 24 -88 18 0 20 58 5 128 -9 42 -15 77 -13 80
6 6 149 42 168 42 14 0 15 -5 8 -31 -6 -22 -5 -41 4 -63 16 -38 31 -51 82 -71
l39 -16 -52 49 c-58 54 -66 82 -31 106 50 35 86 11 137 -91 12 -24 26 -43 31
-43 11 0 4 19 -39 110 -17 36 -31 70 -31 75 0 6 61 31 135 57 l135 46 16 -36
c8 -20 22 -45 32 -55 24 -27 132 -100 139 -94 5 6 -131 139 -148 145 -5 2 -9
8 -9 13 0 25 229 -1 252 -28 7 -9 16 -41 19 -72 6 -61 12 -55 29 30 11 55 12
57 49 63 57 9 103 45 131 102 36 73 46 82 109 100 115 34 187 87 269 202 53
75 53 75 88 -62z m-186 -345 c0 -18 -91 -700 -125 -941 -17 -115 -49 -196 -92
-230 -14 -11 -28 -20 -32 -20 -3 0 -3 44 0 97 10 161 0 147 -62 -94 -27 -103
-56 -206 -66 -228 -31 -69 -97 -148 -184 -220 -46 -39 -135 -114 -198 -168
-63 -54 -127 -105 -142 -113 l-28 -14 -30 62 c-30 59 -31 66 -26 157 l4 96
-19 -90 c-25 -115 -25 -143 0 -180 26 -39 25 -51 -4 -70 -55 -36 -158 -56
-326 -63 l-165 -7 -115 -57 c-65 -32 -146 -63 -187 -72 -82 -18 -251 -21 -351
-6 -126 19 -504 60 -552 60 -59 0 -100 30 -123 89 -16 38 -33 58 -43 48 -3 -3
2 -28 10 -56 l15 -52 -37 7 c-184 32 -319 77 -378 127 -36 31 -89 127 -99 180
-11 57 -25 44 -25 -24 l0 -61 -42 7 c-187 32 -351 118 -494 259 l-72 71 -57
235 c-120 496 -215 878 -239 958 l-24 84 36 -7 c82 -14 112 -27 153 -65 54
-49 107 -66 261 -85 68 -8 128 -21 142 -30 38 -25 53 -69 81 -235 49 -292 76
-415 117 -535 45 -133 59 -155 98 -155 37 0 50 18 57 79 8 70 -11 66 -32 -6
l-17 -58 -24 30 c-51 62 -126 366 -199 796 -3 22 2 29 33 43 60 29 128 31 248
6 137 -28 192 -48 216 -80 24 -32 88 -289 122 -487 40 -233 48 -356 35 -520
-12 -137 -8 -197 10 -163 21 38 44 244 38 338 -12 218 -100 653 -158 789 -22
51 -17 63 34 90 35 18 72 14 173 -16 l71 -21 7 -46 c3 -26 6 -129 6 -230 0
-144 4 -206 21 -291 47 -249 175 -797 191 -823 6 -10 8 15 5 70 -4 61 -18 129
-50 240 -105 361 -137 563 -137 856 l0 195 44 -37 44 -37 -21 -41 c-42 -78
-25 -333 44 -681 16 -82 35 -154 41 -160 13 -13 4 80 -18 180 -39 175 -55 291
-60 435 -6 151 -5 157 19 211 l26 57 73 22 c128 39 208 52 283 46 39 -3 129 0
200 7 72 8 133 11 137 8 4 -4 -2 -143 -14 -310 -19 -269 -20 -312 -8 -384 8
-48 16 -212 20 -392 7 -308 17 -402 42 -377 8 8 6 31 -7 79 -15 60 -17 123
-16 543 1 498 7 690 22 752 15 58 48 78 134 78 40 0 93 -3 119 -6 l46 -7 0
-173 c0 -109 4 -174 10 -174 6 0 10 24 11 53 0 28 4 105 8 169 6 105 9 120 31
144 33 35 72 54 110 54 47 0 55 -29 36 -123 -17 -81 -21 -238 -6 -202 5 11 9
44 9 73 1 29 6 74 12 99 15 57 47 78 135 87 81 8 99 15 153 60 23 20 47 36 52
36 5 0 9 -48 9 -107 0 -130 16 -172 84 -228 53 -43 76 -80 76 -122 0 -16 -11
-80 -24 -143 -13 -63 -22 -119 -18 -124 7 -12 13 9 47 162 32 139 28 156 -54
235 -81 79 -87 96 -74 224 12 111 22 133 59 133 12 0 44 11 70 25 26 14 60 25
76 25 37 0 83 23 132 67 69 62 159 88 221 64 19 -8 20 -18 21 -177 1 -93 8
-207 15 -254 l14 -85 6 214 c8 246 13 285 38 327 23 38 167 118 157 88 -36
-118 -66 -314 -65 -422 0 -99 10 -75 39 98 40 246 57 303 112 386 27 40 57 78
66 84 28 16 52 12 52 -9z"/>
<path d="M3017 9963 c-9 -15 12 -51 33 -58 29 -9 34 -2 23 32 -9 27 -45 44
-56 26z"/>
<path d="M3183 9898 c-33 -36 -43 -64 -42 -110 l1 -43 19 57 c13 37 33 68 55
88 33 28 33 30 11 30 -13 0 -33 -10 -44 -22z"/>
<path d="M5207 8280 c-3 -8 -22 -69 -41 -135 -20 -66 -60 -203 -91 -303 -30
-101 -55 -190 -55 -198 0 -24 17 -16 29 14 26 65 171 599 168 617 -3 16 -5 17
-10 5z"/>
<path d="M5560 7460 c-13 -13 -20 -33 -20 -57 1 -42 13 -64 47 -81 28 -16 106
-15 121 0 7 7 12 36 12 65 0 71 -21 93 -90 93 -37 0 -55 -5 -70 -20z m122 -17
c27 -24 24 -81 -5 -94 -31 -14 -92 10 -100 40 -13 52 63 92 105 54z"/>
<path d="M6013 7139 c-70 -20 -98 -108 -47 -148 41 -33 108 -29 145 8 16 16
29 39 29 51 0 37 -28 77 -61 89 -18 6 -32 11 -33 10 -1 0 -15 -5 -33 -10z m71
-30 c52 -41 22 -109 -47 -109 -43 0 -67 17 -67 48 0 35 9 47 45 66 38 20 37
20 69 -5z"/>
<path d="M5759 6881 c-58 -58 -23 -141 60 -141 32 0 44 5 56 24 21 32 11 87
-22 121 -33 33 -58 32 -94 -4z m85 -40 l28 -29 -25 -17 c-51 -33 -102 -1 -79
49 15 34 42 33 76 -3z"/>
<path d="M4711 7202 c-10 -7 2 -12 40 -17 100 -12 218 -44 279 -75 58 -29 128
-89 163 -140 l18 -25 -6 30 c-14 71 -127 163 -250 204 -75 25 -221 38 -244 23z"/>
<path d="M5283 7202 c-18 -11 -32 -57 -26 -83 18 -74 92 -79 128 -9 20 39 19
56 -7 80 -22 20 -72 27 -95 12z m77 -62 c0 -9 -9 -25 -20 -35 -19 -17 -21 -17
-40 0 -24 22 -25 38 -4 71 l17 25 23 -22 c13 -13 24 -30 24 -39z"/>
<path d="M4174 6945 c-79 -79 -93 -243 -33 -370 24 -49 56 -92 63 -84 3 3 8
75 12 160 3 85 10 182 15 217 16 101 -5 129 -57 77z m32 -37 c-3 -13 -10 -94
-17 -181 -7 -87 -16 -154 -20 -150 -5 5 -16 37 -25 72 -20 78 -13 153 21 229
24 52 49 71 41 30z"/>
<path d="M4150 5324 c157 -160 484 -315 659 -313 l66 1 -65 14 c-215 46 -409
139 -624 298 -42 31 -79 56 -83 56 -4 0 17 -25 47 -56z"/>
<path d="M5608 4729 c-27 -15 -24 -83 4 -103 31 -22 91 -20 111 2 23 25 21 68
-3 92 -22 22 -82 27 -112 9z m92 -45 c0 -11 -33 -54 -42 -54 -13 0 -47 41 -48
57 0 23 33 32 62 17 15 -8 28 -17 28 -20z"/>
<path d="M5430 3758 c-54 -12 -316 -16 -415 -6 -51 5 -60 4 -33 -3 127 -30
375 -28 481 6 49 15 31 17 -33 3z"/>
<path d="M7636 3948 c4 -7 20 -30 35 -51 95 -131 72 -354 -44 -438 -241 -174
-272 -191 -472 -251 -195 -58 -465 -148 -505 -169 -19 -9 -67 -49 -106 -87
-88 -86 -142 -118 -230 -137 -88 -19 -145 -19 -269 1 -174 27 -183 28 -162 11
10 -9 55 -26 100 -38 68 -20 106 -24 227 -24 139 0 148 1 207 29 60 27 127 87
167 148 46 70 182 130 466 204 258 68 447 159 576 277 153 140 187 348 78 475
-36 42 -85 79 -68 50z"/>
<path d="M2514 3330 c26 -136 104 -270 180 -309 l47 -24 77 18 c147 34 145 35
252 -38 213 -144 314 -171 546 -147 190 20 214 18 244 -18 26 -32 40 -64 59
-139 15 -57 60 -92 160 -127 81 -28 85 -29 115 -12 29 16 33 15 68 -3 76 -38
296 -36 393 5 50 21 58 44 53 145 -4 70 -2 96 12 127 19 43 67 72 119 72 29 0
34 -5 56 -52 14 -29 25 -58 25 -64 0 -25 43 -64 82 -75 l41 -11 -6 -72 c-7
-91 1 -106 57 -106 50 0 99 30 80 50 -9 8 -21 7 -49 -4 -21 -9 -41 -16 -46
-16 -5 0 -9 32 -9 71 0 84 -11 109 -48 109 -43 0 -69 25 -86 84 -32 110 -96
147 -180 106 -72 -34 -86 -67 -86 -197 0 -85 -3 -113 -15 -123 -18 -15 -124
-28 -254 -32 -97 -3 -100 -2 -128 25 -33 31 -52 33 -94 12 -34 -18 -82 -9
-160 31 -44 22 -48 27 -68 94 -25 81 -66 133 -118 151 -23 7 -66 9 -122 5
-248 -18 -259 -18 -333 -2 -89 20 -179 61 -265 121 -35 25 -77 52 -93 60 -37
19 -125 19 -180 0 -23 -8 -62 -15 -86 -15 -70 0 -110 44 -179 198 -32 70 -60
129 -62 132 -3 3 -2 -11 1 -30z"/>
<path d="M3275 2516 c-30 -14 -117 -96 -101 -96 8 0 127 81 151 102 14 13 -16
9 -50 -6z"/>
<path d="M3402 2464 c-40 -20 -78 -67 -88 -109 -7 -28 -3 -26 47 27 58 61 103
78 156 61 40 -14 40 -42 -2 -91 -53 -61 -38 -77 19 -21 52 52 61 93 26 124
-29 26 -115 31 -158 9z"/>
<path d="M3745 2348 c-20 -18 -39 -48 -44 -65 -6 -18 -9 -33 -7 -33 1 0 25 22
52 48 30 29 64 51 83 55 41 9 31 27 -15 27 -25 0 -44 -9 -69 -32z"/>
<path d="M5146 1864 c2 -10 24 -104 49 -209 43 -188 60 -204 30 -29 -16 88
-59 231 -75 248 -5 5 -7 1 -4 -10z"/>
<path d="M6837 1625 c-6 -133 -5 -156 9 -142 11 11 16 231 7 256 -7 18 -11
-12 -16 -114z"/>
<path d="M5820 1536 c0 -16 12 -148 26 -294 30 -298 27 -352 -21 -469 -28 -71
-29 -73 -14 -73 14 0 54 90 74 165 20 78 19 139 -4 266 -11 57 -27 176 -36
264 -16 152 -25 201 -25 141z"/>
<path d="M5644 1283 c18 -119 28 -291 23 -392 -5 -125 -22 -186 -80 -289 -16
-29 -26 -59 -23 -68 5 -13 10 -13 36 6 42 30 77 94 100 185 33 127 28 193 -37
563 -8 45 -26 41 -19 -5z"/>
<path d="M4792 1070 c0 -203 1 -212 15 -170 16 51 13 301 -5 355 -8 22 -10
-28 -10 -185z"/>
</g>
</svg>
