<?xml version="1.0" encoding="UTF-8" standalone="no"?>
<svg
   xmlns:dc="http://purl.org/dc/elements/1.1/"
   xmlns:cc="http://creativecommons.org/ns#"
   xmlns:rdf="http://www.w3.org/1999/02/22-rdf-syntax-ns#"
   xmlns:svg="http://www.w3.org/2000/svg"
   xmlns="http://www.w3.org/2000/svg"
   xmlns:sodipodi="http://sodipodi.sourceforge.net/DTD/sodipodi-0.dtd"
   xmlns:inkscape="http://www.inkscape.org/namespaces/inkscape"
   version="1.0"
   width="850.000000pt"
   height="850.000000pt"
   viewBox="0 0 850.000000 850.000000"
   preserveAspectRatio="xMidYMid meet"
   id="svg146"
   sodipodi:docname="52.svg"
   inkscape:version="0.92.2 5c3e80d, 2017-08-06">
  <defs
     id="defs150" />
  <sodipodi:namedview
     pagecolor="#ffffff"
     bordercolor="#666666"
     borderopacity="1"
     objecttolerance="10"
     gridtolerance="10"
     guidetolerance="10"
     inkscape:pageopacity="0"
     inkscape:pageshadow="2"
     inkscape:window-width="1920"
     inkscape:window-height="978"
     id="namedview148"
     showgrid="false"
     inkscape:zoom="0.41647059"
     inkscape:cx="497.75224"
     inkscape:cy="425.45276"
     inkscape:window-x="0"
     inkscape:window-y="1"
     inkscape:window-maximized="1"
     inkscape:current-layer="svg146" />
  <metadata
     id="metadata2">
Created by potrace 1.14, written by Peter Selinger 2001-2017
<rdf:RDF>
  <cc:Work
     rdf:about="">
    <dc:format>image/svg+xml</dc:format>
    <dc:type
       rdf:resource="http://purl.org/dc/dcmitype/StillImage" />
  </cc:Work>
</rdf:RDF>
</metadata>
  <g
     transform="translate(0.000000,850.000000) scale(0.100000,-0.100000)"
     fill="#000000"
     stroke="none"
     id="g144">
    <path
       d="M0 4250 l0 -4250 2043 0 2043 0 12 188 c7 103 15 209 19 236 l5 50 -28 -19 c-145 -96 -257 -138 -364 -139 -87 -1 -144 18 -192 63 -37 34 -41 43 -47 102 -6 62 -7 64 -36 67 -16 2 -37 9 -45 16 -8 7 -23 16 -32 19 -12 4 -18 17 -18 37 0 39 -23 48 -62 25 -26 -15 -49 -17 -184 -12 -132 4 -158 7 -175 23 -17 15 -34 18 -87 16 -85 -4 -248 37 -274 69 -24 29 -39 90 -32 128 10 46 -9 63 -62 55 -37 -5 -48 -2 -88 25 -25 18 -46 36 -46 40 0 5 -12 14 -28 20 -22 9 -34 8 -67 -9 -47 -24 -117 -26 -195 -5 -30 8 -70 15 -88 15 -18 0 -55 11 -82 25 -53 27 -80 69 -80 126 0 18 -5 29 -14 29 -24 0 -27 47 -6 107 11 32 20 65 20 75 0 10 6 18 14 18 17 0 66 56 66 75 0 7 6 20 13 27 41 41 38 88 -6 88 -13 0 -42 22 -77 59 -30 32 -60 60 -66 62 -17 6 -115 116 -172 195 -29 39 -63 76 -76 82 -17 8 -29 26 -40 65 -9 30 -16 62 -16 71 0 10 29 53 65 97 36 44 65 84 65 89 0 5 31 43 70 84 39 42 70 82 70 90 0 7 11 21 25 30 13 9 47 49 74 89 27 39 87 113 135 162 47 50 86 93 86 96 0 4 15 13 33 20 17 7 60 38 94 69 78 70 118 100 132 100 6 0 36 24 65 52 30 29 65 63 80 75 14 13 26 31 26 42 0 20 79 91 102 91 7 0 21 9 31 20 10 12 29 20 49 20 56 0 106 20 268 106 36 19 90 53 120 75 30 22 82 53 115 68 33 15 74 40 91 54 17 14 49 36 72 49 93 53 139 83 172 113 41 38 90 65 120 65 26 0 27 36 1 50 -11 5 -26 22 -33 38 -7 15 -23 31 -35 37 -41 18 -50 192 -14 268 68 146 83 187 77 213 -9 35 14 69 59 84 32 10 40 23 90 123 31 62 77 151 103 200 l47 87 -31 25 c-17 13 -37 38 -44 54 -12 29 -9 36 51 133 182 297 273 419 367 490 l34 25 -27 53 c-32 64 -96 162 -102 156 -4 -4 31 -148 44 -181 5 -14 3 -16 -13 -7 -29 16 -113 188 -129 267 -8 39 -15 104 -15 145 l-1 75 -71 45 c-39 25 -110 82 -159 128 -114 108 -138 155 -180 362 -17 85 -51 216 -75 291 -24 75 -44 150 -44 167 0 58 38 227 69 307 61 157 260 475 406 645 83 97 149 141 305 203 137 54 398 125 507 136 43 5 -1019 9 -2359 10 l-2438 1 0 -4250z m2290 -3310 c0 -5 -4 -10 -10 -10 -5 0 -10 5 -10 10 0 6 5 10 10 10 6 0 10 -4 10 -10z"
       id="path4"
       style="fill:none" />
    <path
       d="M5190 8480 c149 -31 195 -59 420 -247 66 -57 155 -126 196 -155 146 -102 159 -114 201 -178 53 -80 97 -184 116 -275 8 -38 32 -126 53 -195 36 -119 37 -132 37 -265 0 -162 -16 -236 -84 -391 -74 -169 -153 -262 -341 -402 -53 -40 -127 -106 -163 -146 -53 -59 -79 -80 -130 -102 l-65 -28 1 -141 c1 -108 -3 -151 -16 -188 -9 -27 -15 -51 -12 -53 2 -2 31 -11 63 -20 116 -30 223 -119 359 -299 30 -41 59 -76 64 -79 10 -7 253 154 346 228 45 37 73 68 80 88 5 18 25 42 45 56 68 45 94 154 65 275 -10 40 -35 111 -56 158 -22 48 -39 96 -39 107 0 97 290 41 444 -88 26 -22 58 -40 70 -40 60 0 150 -93 225 -235 34 -64 227 -270 379 -404 94 -83 101 -104 45 -127 -33 -14 -68 -14 -123 1 -8 2 -28 -7 -43 -20 l-28 -25 30 -26 c36 -30 39 -46 11 -74 -27 -27 -85 -26 -142 3 l-45 23 -16 -28 c-9 -15 -24 -28 -34 -28 -34 0 -90 20 -126 44 l-36 25 -16 -25 c-8 -13 -22 -24 -31 -24 -27 0 -90 38 -122 74 -34 39 -42 43 -42 23 0 -8 -9 -22 -20 -32 -19 -17 -21 -17 -42 1 -36 31 -56 57 -74 96 l-16 36 -92 -2 c-106 -3 -117 -8 -337 -142 -123 -76 -139 -88 -150 -122 -18 -58 -48 -113 -85 -159 -19 -23 -34 -46 -34 -51 0 -12 65 -238 149 -522 85 -284 89 -317 48 -396 -18 -35 -149 -162 -207 -200 l-40 -27 116 -111 c86 -82 154 -135 258 -201 247 -159 395 -269 686 -514 210 -177 569 -538 676 -681 96 -127 154 -224 154 -256 0 -21 -77 -148 -137 -225 -59 -76 -195 -184 -272 -216 l-33 -14 59 -62 c86 -90 130 -147 152 -198 26 -56 26 -62 -4 -97 -18 -21 -25 -42 -25 -70 0 -57 -7 -70 -53 -93 -29 -15 -60 -21 -118 -22 l-79 0 0 -33 c0 -53 -48 -100 -117 -114 -31 -7 -72 -10 -91 -6 -30 4 -41 0 -75 -30 -49 -41 -119 -64 -199 -64 -53 0 -58 -2 -58 -22 0 -42 -36 -85 -97 -114 -55 -28 -64 -29 -188 -28 -127 1 -161 7 -257 49 -14 5 -18 2 -18 -15 0 -34 -19 -61 -55 -76 -39 -16 -150 -18 -210 -4 -22 5 -41 8 -42 6 -2 -2 10 -93 26 -202 16 -109 33 -232 37 -271 l7 -73 1313 0 1314 0 0 4250 0 4250 -1697 -1 c-1665 0 -1696 -1 -1613 -19z"
       id="path6"
       style="fill:none" />
    <path
       d="M4800 8410 c-253 -19 -658 -176 -806 -312 -56 -51 -237 -322 -313 -468 -43 -83 -70 -152 -96 -244 -40 -149 -44 -213 -14 -294 39 -106 68 -213 100 -365 17 -83 41 -172 54 -197 13 -25 50 -70 82 -101 62 -60 216 -179 231 -179 13 0 54 168 45 183 -4 7 -25 36 -47 66 -22 29 -50 83 -63 120 l-22 66 -1 -87 c0 -49 -4 -88 -9 -88 -5 0 -19 31 -30 70 -67 219 -54 360 53 590 30 63 61 131 69 151 49 120 194 287 288 333 103 50 253 55 341 11 40 -19 41 -19 28 6 -22 40 -90 99 -152 130 -52 27 -78 33 -146 37 -78 4 -86 3 -147 -29 -35 -18 -68 -30 -72 -25 -14 14 15 42 81 76 60 30 77 35 144 35 123 0 227 -37 314 -114 50 -45 68 -51 68 -23 0 35 58 138 99 175 102 92 239 107 386 42 85 -37 182 -138 173 -181 -2 -12 -12 -7 -43 21 -22 20 -69 51 -105 68 -58 28 -75 32 -150 32 -72 0 -94 -5 -141 -27 -56 -28 -108 -73 -96 -84 3 -3 48 -15 98 -25 61 -12 126 -34 191 -65 81 -39 110 -60 167 -118 71 -74 127 -154 167 -240 14 -28 22 -40 19 -26 -4 14 -26 65 -50 115 -24 49 -42 92 -40 94 19 19 86 -92 125 -208 25 -75 50 -372 44 -516 l-4 -90 16 43 c10 28 20 40 26 34 11 -11 -11 -101 -47 -190 l-26 -63 26 -30 c29 -35 31 -65 9 -138 -17 -59 -69 -122 -114 -141 -34 -14 -41 -31 -10 -23 34 9 22 -15 -21 -43 -22 -14 -39 -28 -36 -30 12 -12 79 35 162 115 50 48 138 124 197 169 119 92 181 156 232 240 48 81 123 275 137 356 17 99 6 252 -25 366 -15 52 -41 149 -57 215 -30 117 -66 200 -131 300 -25 37 -59 67 -142 121 -59 40 -138 98 -175 130 -135 117 -328 226 -434 244 -80 13 -290 18 -407 10z m1139 -710 c78 -39 151 -148 173 -255 11 -57 3 -201 -12 -210 -5 -3 -17 14 -28 38 -20 45 -77 117 -93 117 -5 0 -9 -15 -9 -32 0 -61 -41 -373 -53 -403 -17 -44 -74 -103 -107 -110 -38 -8 -113 24 -136 60 -22 34 -30 113 -15 158 7 20 28 50 48 68 35 30 40 31 99 26 l62 -5 7 67 c10 91 8 260 -4 351 -17 121 -15 150 9 150 12 0 38 -9 59 -20z"
       id="path8"
       style="fill:#cd5c5c" />
    <path
       d="M5908 7593 c9 -103 9 -334 -1 -404 -5 -31 -14 -65 -21 -74 -12 -16 -14 -16 -45 0 -90 46 -186 -55 -151 -159 25 -78 108 -101 161 -45 16 17 33 47 39 67 11 39 50 377 50 430 0 48 31 42 92 -19 27 -27 52 -49 54 -47 2 2 -1 31 -6 65 -14 104 -69 202 -135 243 -18 11 -35 20 -39 20 -3 0 -2 -35 2 -77z"
       id="path10"
       style="fill:#7fff00" />
    <path
       d="M4986 7965 c-59 -22 -97 -56 -135 -119 -37 -62 -34 -89 5 -41 54 66 81 89 131 112 72 33 183 42 248 19 65 -21 70 -12 9 16 -63 28 -200 35 -258 13z"
       id="path12"
       style="fill:#ffa500" />
    <path
       d="M4845 7751 c-11 -5 -29 -19 -40 -31 -24 -27 -27 -111 -5 -180 l14 -45 7 57 c13 115 86 165 193 134 45 -13 71 -30 128 -84 39 -37 88 -93 109 -125 54 -84 115 -246 140 -376 13 -61 24 -109 26 -108 3 4 -13 139 -23 196 -10 49 14 36 36 -19 12 -32 24 -46 39 -48 25 -4 51 14 46 31 -10 34 -13 77 -6 77 5 0 18 -19 30 -42 30 -59 20 -12 -20 92 -40 104 -131 241 -207 311 -76 71 -156 112 -276 144 -100 26 -155 30 -191 16z"
       id="path14"
       style="fill:#ff8c00" />
    <path
       d="M4943 7659 c-39 -14 -53 -102 -29 -182 13 -44 8 -66 -13 -53 -17 11 -33 97 -29 148 5 50 5 51 -9 23 -11 -19 -14 -49 -11 -96 3 -50 1 -65 -8 -58 -6 5 -18 7 -26 4 -15 -6 -47 55 -62 117 -3 16 -10 27 -14 26 -4 -2 -23 7 -42 19 -65 40 -134 56 -218 51 -127 -7 -221 -63 -315 -186 -86 -112 -86 -120 -4 -49 107 93 188 144 270 168 69 21 116 20 144 -2 28 -24 13 -32 -46 -26 -78 8 -137 -10 -226 -69 -100 -66 -229 -196 -269 -271 -19 -35 -30 -60 -25 -58 20 13 18 -23 -7 -122 -35 -136 -39 -287 -10 -373 50 -148 129 -245 247 -304 40 -20 74 -35 75 -33 2 2 -14 38 -35 80 -21 42 -46 107 -56 144 -29 113 -33 305 -6 289 4 -3 11 -52 14 -108 6 -103 23 -185 52 -255 23 -55 27 -35 6 32 -24 79 -34 247 -21 365 22 216 176 526 291 585 44 23 96 19 124 -10 28 -27 33 -50 10 -41 -8 3 -15 1 -15 -5 0 -8 -15 -9 -45 -5 -68 11 -125 -19 -168 -86 -37 -57 -107 -192 -107 -205 0 -5 16 20 36 55 37 65 70 85 58 35 l-7 -27 41 33 c42 33 42 33 42 9 0 -35 9 -40 39 -19 36 25 89 50 94 44 3 -2 -6 -32 -20 -66 -40 -96 -53 -154 -58 -257 l-5 -95 29 110 c16 61 41 137 56 170 15 33 38 87 50 120 26 69 51 88 42 32 -4 -28 -3 -35 8 -30 29 11 31 -101 3 -163 -17 -37 -27 -29 -31 29 -3 28 -3 -9 -2 -83 2 -74 8 -151 14 -170 11 -38 69 -135 76 -128 2 2 0 21 -5 43 -13 55 -13 452 0 460 6 3 10 -1 10 -10 0 -11 5 -15 15 -12 8 4 17 1 21 -4 3 -6 15 -9 25 -6 23 6 36 -14 45 -72 7 -41 -2 -51 -24 -29 -9 9 -12 4 -12 -26 0 -50 -19 -43 -43 15 -11 29 -16 34 -12 15 4 -17 30 -80 60 -141 51 -106 121 -202 167 -226 18 -10 19 -9 5 18 -8 15 -27 69 -42 118 -15 50 -43 138 -62 197 -32 99 -36 137 -12 123 5 -4 9 -13 9 -20 0 -28 81 -184 127 -246 42 -56 189 -179 214 -179 13 0 1 70 -32 183 -25 88 -55 156 -99 224 -17 27 -7 41 17 22 15 -11 16 -11 6 1 -23 26 -16 43 17 38 29 -4 40 5 20 17 -12 8 -13 45 -1 45 14 0 69 -66 91 -110 30 -58 25 -123 -6 -82 -12 15 -13 14 -14 -10 0 -16 -4 -28 -9 -28 -5 0 -19 12 -31 28 l-21 27 16 -34 c9 -18 34 -81 55 -140 21 -58 44 -122 52 -141 15 -35 15 -35 16 45 1 161 -40 381 -88 475 -23 44 -100 119 -164 159 -56 35 -78 38 -96 16 -19 -23 -32 -18 -28 13 2 22 8 28 35 30 44 4 112 -28 167 -78 25 -24 46 -40 46 -36 0 4 -18 31 -40 62 -44 58 -92 95 -153 114 -47 15 -68 0 -86 -61 -14 -48 -37 -47 -34 1 3 68 66 115 125 92 44 -16 45 -9 1 21 -47 31 -101 47 -130 36z m-753 -340 c-24 -46 -20 -61 9 -35 19 17 20 17 23 -3 3 -20 6 -20 55 14 61 41 67 42 57 13 -6 -21 -5 -20 26 5 36 31 60 27 35 -6 -17 -24 -95 -184 -95 -197 0 -11 -29 -34 -36 -28 -3 3 -8 22 -11 42 -5 31 -3 36 14 36 29 0 60 70 42 98 -12 19 -13 19 -52 -9 -28 -20 -47 -27 -63 -23 -17 4 -26 1 -30 -10 -3 -9 -13 -16 -21 -16 -11 0 -13 7 -9 25 10 39 -1 30 -28 -24 l-25 -49 79 4 c63 4 80 2 80 -9 0 -14 -24 -19 -110 -21 -26 -1 -50 -7 -56 -15 -6 -8 -16 -11 -22 -7 -27 16 53 183 111 232 42 35 50 29 27 -17z m983 -193 c80 -123 90 -177 22 -117 -36 31 -55 39 -55 21 0 -13 -59 -43 -74 -37 -13 5 -76 126 -76 146 0 16 27 13 34 -4 3 -9 19 -15 41 -15 l35 0 -6 40 c-6 35 -4 40 12 40 12 0 36 -26 67 -74z"
       id="path16"
       style="fill:#ff8c00" />
    <path
       d="M4586 7441 c-3 -5 12 -8 33 -7 22 0 37 4 35 8 -7 11 -62 10 -68 -1z"
       id="path18"
       style="fill:#ffa500" />
    <path
       d="M4556 7119 c-32 -49 -62 -89 -67 -89 -5 0 -9 14 -9 32 0 29 -1 30 -18 15 -10 -10 -30 -17 -45 -17 -14 0 -29 -4 -32 -10 -3 -5 -13 -10 -21 -10 -12 0 -14 7 -9 33 12 62 -12 4 -34 -82 -27 -108 -26 -160 3 -242 20 -59 73 -150 94 -162 4 -3 7 43 8 102 1 92 5 119 34 204 31 92 47 123 130 255 57 89 28 65 -34 -29z"
       id="path20"
       style="fill:#ffa500" />
    <path
       d="M3970 7093 c-53 -117 -79 -264 -62 -353 8 -42 9 -37 22 75 7 66 26 165 41 220 15 55 26 101 24 103 -2 2 -13 -18 -25 -45z"
       id="path22"
       style="fill:#ffa500" />
    <path
       d="M5561 7124 c0 -11 3 -14 6 -6 3 7 2 16 -1 19 -3 4 -6 -2 -5 -13z"
       id="path24"
       style="fill:none" />
    <path
       d="M4662 6998 c-29 -98 -52 -207 -52 -245 0 -6 7 -19 16 -27 14 -15 14 -17 0 -22 -9 -3 -16 -17 -16 -30 0 -34 -15 -30 -30 7 -13 30 -15 31 -62 26 -27 -4 -53 -9 -58 -12 -6 -3 -10 -26 -10 -51 l0 -44 54 0 c39 0 60 -5 77 -20 13 -10 18 -19 12 -20 -20 0 -15 -18 6 -25 13 -4 20 -20 27 -63 19 -133 4 -241 -37 -262 -20 -11 -99 -13 -123 -4 -9 3 -16 17 -16 31 0 13 -5 34 -12 46 -6 12 -14 57 -17 101 l-6 80 -19 -29 c-15 -23 -17 -34 -8 -57 9 -25 8 -28 -9 -28 -23 0 -25 -13 -4 -30 23 -19 19 -43 -6 -35 -21 7 -21 5 -14 -50 9 -78 31 -147 55 -178 12 -15 53 -42 93 -62 75 -36 356 -135 386 -135 27 0 176 80 277 147 98 66 124 104 123 175 -1 18 3 45 9 59 l10 26 -38 -19 c-44 -22 -180 -22 -188 0 -2 7 6 12 22 12 l25 0 -20 48 c-31 71 -35 137 -11 200 11 28 16 52 12 52 -5 0 -24 -18 -41 -40 -22 -27 -35 -36 -40 -28 -9 14 14 63 45 96 l21 24 -28 -7 c-23 -6 -26 -4 -21 9 10 26 38 36 97 36 63 0 163 -45 197 -87 11 -14 22 -24 24 -22 2 2 7 25 11 50 6 43 5 48 -22 66 -58 41 -118 65 -176 71 -56 5 -60 4 -53 -14 21 -51 20 -54 -15 -44 -19 6 -47 19 -62 31 -16 11 -37 19 -47 16 -25 -6 -50 10 -32 21 10 7 -1 30 -42 96 -31 49 -61 104 -68 122 -7 19 -14 34 -18 34 -14 0 9 -239 29 -299 12 -35 20 -66 17 -68 -9 -10 -98 72 -122 112 -44 76 -57 126 -63 253 l-6 122 -33 -112z m153 -799 c8 -37 -6 -57 -25 -35 -13 17 -6 66 9 66 5 0 12 -14 16 -31z m89 -58 c10 -16 -24 -34 -73 -39 -45 -4 -74 9 -57 25 16 16 122 27 130 14z"
       id="path26"
       style="fill:#f4a460" />
    <path
       d="M5495 7095 c-16 -8 -37 -12 -45 -10 -12 4 -14 -6 -12 -60 2 -40 9 -68 18 -76 12 -9 14 -8 13 7 -1 11 -1 26 -1 36 2 18 55 40 76 32 12 -4 13 2 5 33 -5 21 -9 41 -9 46 0 10 -9 8 -45 -8z"
       id="path28"
       style="fill:#ffa500" />
    <path
       d="M5572 7080 c0 -14 2 -19 5 -12 2 6 2 18 0 25 -3 6 -5 1 -5 -13z"
       id="path30"
       style="fill:none" />
    <path
       d="M4525 6977 c-30 -69 -65 -183 -65 -213 0 -21 5 -24 33 -23 62 1 62 1 62 152 0 75 -1 137 -3 137 -2 0 -14 -24 -27 -53z"
       id="path32"
       style="fill:#ffa500" />
    <path
       d="M5519 6983 c-17 -4 -29 -43 -29 -94 0 -34 -15 -38 -30 -9 -9 18 -13 18 -25 7 -10 -10 -16 -56 -21 -153 -4 -84 -16 -182 -30 -248 -13 -60 -22 -111 -20 -113 9 -9 47 164 63 290 19 149 38 182 37 64 -1 -103 -40 -284 -89 -412 -23 -60 -48 -132 -55 -160 -7 -27 -22 -67 -32 -88 -54 -109 44 16 109 139 24 45 57 126 74 178 30 98 45 118 51 69 4 -39 46 159 58 277 9 90 12 296 3 238 -4 -25 -23 -41 -23 -20 0 17 -26 38 -41 35z"
       id="path34"
       style="fill:#ff8c00" />
    <path
       d="M5133 6613 c15 -2 37 -2 50 0 12 2 0 4 -28 4 -27 0 -38 -2 -22 -4z"
       id="path36"
       style="fill:none" />
    <path
       d="M4483 6563 c9 -2 23 -2 30 0 6 3 -1 5 -18 5 -16 0 -22 -2 -12 -5z"
       id="path38"
       style="fill:none" />
    <path
       d="M5164 6525 c-10 -24 4 -63 26 -75 24 -13 73 6 78 30 8 42 -90 84 -104 45z"
       id="path40"
       style="fill:#87ceeb" />
    <path
       d="M4506 6494 c-9 -8 -16 -22 -16 -29 0 -14 26 -45 38 -45 16 0 52 32 52 45 0 13 -36 45 -52 45 -3 0 -14 -7 -22 -16z"
       id="path42"
       style="fill:#87ceeb" />
    <path
       d="M5572 6479 c-6 -13 -20 -58 -32 -98 -12 -41 -24 -81 -27 -90 -12 -32 50 34 68 74 20 43 24 101 9 125 -7 12 -11 10 -18 -11z"
       id="path44"
       style="fill:#f4a460" />
    <path
       d="M5261 6371 c-6 -22 -16 -43 -22 -47 -16 -9 -80 28 -74 44 3 8 0 10 -6 6 -6 -4 -15 -1 -19 7 -5 8 -8 -1 -6 -24 3 -39 28 -85 52 -94 23 -9 64 6 90 32 21 21 24 31 18 62 -9 55 -19 59 -33 14z"
       id="path46"
       style="fill:#191970" />
    <path
       d="M4109 6373 c-34 -90 -37 -352 -5 -443 l16 -45 -5 40 c-19 153 -13 344 11 352 8 3 13 -39 16 -131 5 -124 8 -140 37 -202 17 -37 34 -64 37 -61 4 3 -2 48 -12 99 -12 65 -17 134 -16 233 l1 140 -35 23 -34 22 -11 -27z"
       id="path48"
       style="fill:#ffa500" />
    <path
       d="M4579 6333 c-9 -27 -16 -32 -50 -35 -29 -3 -38 0 -35 9 3 7 1 13 -3 13 -17 0 -18 -25 -3 -57 29 -62 94 -36 112 44 11 49 -5 69 -21 26z"
       id="path50"
       style="fill:#191970" />
    <path
       d="M4212 6220 c0 -19 2 -27 5 -17 2 9 2 25 0 35 -3 9 -5 1 -5 -18z"
       id="path52"
       style="fill:none" />
    <path
       d="M6370 6225 c0 -9 8 -32 19 -53 28 -56 81 -210 81 -238 0 -33 12 -30 30 9 13 28 20 32 55 33 29 1 62 15 123 52 46 28 88 53 95 55 27 11 -134 110 -221 137 -80 25 -182 27 -182 5z m145 -10 c90 -24 215 -99 215 -130 0 -7 -11 -17 -23 -22 -21 -10 -35 -4 -111 43 -48 30 -106 62 -129 71 -58 22 -72 34 -55 44 19 12 36 11 103 -6z"
       id="path54"
       style="fill:#ff8c00" />
    <path
       d="M4257 6142 c6 -62 78 -245 114 -290 l22 -27 -6 30 c-4 17 -9 66 -13 110 -8 106 -35 172 -84 207 l-38 27 5 -57z"
       id="path56"
       style="fill:#ff8c00" />
    <path
       d="M4222 6130 c-2 -51 40 -292 57 -330 l12 -25 -6 25 c-6 29 -52 300 -58 345 -3 22 -4 17 -5 -15z"
       id="path58"
       style="fill:#ff8c00" />
    <path
       d="M6750 6031 c-30 -15 -77 -42 -104 -59 -30 -19 -63 -32 -83 -32 -28 0 -35 -5 -48 -36 -8 -19 -24 -48 -35 -64 -27 -37 -25 -47 9 -65 29 -15 30 -14 40 18 13 38 60 87 111 113 50 26 153 25 205 -3 71 -38 158 -139 222 -258 30 -56 33 -58 33 -29 1 113 -75 286 -168 383 -68 72 -95 77 -182 32z"
       id="path60"
       style="fill:#00ff00" />
    <path
       d="M5317 5992 c-16 -26 -42 -63 -58 -82 -27 -33 -30 -34 -43 -17 -13 17 -15 17 -24 2 -10 -20 6 -105 21 -105 5 0 25 -14 44 -31 19 -16 40 -28 46 -26 20 6 47 146 45 229 l-3 76 -28 -46z"
       id="path62"
       style="fill:#ff8c00" />
    <path
       d="M4410 5956 c0 -56 18 -142 37 -179 8 -16 12 -31 10 -33 -8 -9 -91 61 -124 105 -18 23 -33 40 -33 36 0 -4 10 -40 22 -81 l21 -74 66 0 c36 1 84 8 106 16 22 9 55 18 73 21 17 3 32 11 32 18 0 7 3 21 7 31 4 12 3 15 -5 10 -7 -4 -22 4 -36 18 -29 32 -32 32 -40 0 -6 -22 -9 -24 -23 -12 -9 7 -32 46 -52 87 -44 90 -61 101 -61 37z"
       id="path64"
       style="fill:#ff8c00" />
    <path
       d="M6676 5886 c-52 -19 -102 -70 -122 -123 -15 -38 -15 -52 -5 -95 29 -126 131 -182 266 -146 l44 12 138 -135 c110 -108 151 -142 204 -167 58 -28 100 -34 116 -18 3 2 -24 33 -59 68 -48 48 -83 99 -147 213 -164 291 -187 324 -268 367 -63 34 -117 42 -167 24z m74 -51 c127 -66 84 -255 -60 -257 -130 -2 -180 184 -67 252 38 24 87 26 127 5z"
       id="path66"
       style="fill:#006400" />
    <path
       d="M6634 5802 c-22 -15 -44 -58 -44 -86 0 -39 36 -95 66 -102 40 -10 92 5 114 33 27 35 27 102 0 134 l-20 24 5 -25 c7 -34 -7 -52 -40 -52 -33 0 -57 22 -58 56 -2 27 -5 30 -23 18z"
       id="path68"
       style="fill:#00ff00" />
    <path
       d="M6690 5780 c0 -13 7 -20 20 -20 23 0 26 10 8 28 -18 18 -28 15 -28 -8z"
       id="path70"
       style="fill:#191970" />
    <path
       d="M4636 5874 c-9 -23 -8 -23 18 -11 25 12 26 27 1 27 -7 0 -16 -7 -19 -16z"
       id="path72"
       style="fill:#cd853f" />
    <path
       d="M5099 5846 c-3 -3 -52 -17 -109 -32 -58 -14 -111 -31 -119 -37 -17 -14 -10 -240 13 -397 10 -68 16 -182 16 -325 0 -121 4 -225 8 -231 4 -7 32 -10 67 -9 62 3 129 26 258 91 75 38 610 371 614 382 4 9 -101 149 -166 223 -74 84 -169 140 -276 163 -28 6 -33 3 -48 -29 -28 -60 -166 -195 -199 -195 -19 0 -5 29 33 65 36 35 119 159 119 178 0 4 -11 7 -25 7 -14 0 -37 11 -51 25 -14 14 -27 25 -29 25 -3 0 -24 -15 -48 -33 -77 -59 -222 -106 -261 -85 -18 10 -9 14 67 34 99 27 152 51 185 87 20 21 22 30 15 58 -7 26 -15 35 -34 37 -14 2 -27 1 -30 -2z"
       id="path74"
       style="fill:#8b0000" />
    <path
       d="M4666 5821 c-4 -5 -9 -30 -12 -54 -7 -51 1 -59 68 -71 21 -4 40 -11 43 -16 14 -23 -8 -26 -66 -10 -43 11 -67 24 -81 43 -23 32 -32 33 -64 8 -17 -13 -49 -21 -109 -26 l-85 -7 45 -83 c50 -93 51 -95 32 -95 -14 0 -114 101 -133 135 -10 18 -13 17 -57 -19 -26 -21 -71 -71 -101 -111 -82 -108 -286 -423 -286 -440 0 -11 7 -14 25 -9 30 7 100 -24 280 -127 160 -91 249 -134 267 -127 8 3 63 118 123 254 123 282 168 376 226 470 36 59 41 75 46 148 6 93 8 91 -80 124 -66 25 -73 26 -81 13z"
       id="path76"
       style="fill:#8b0000" />
    <path
       d="M7123 5684 c4 -22 10 -70 13 -109 4 -38 11 -78 16 -89 15 -28 209 -116 272 -123 31 -3 56 -1 60 5 3 5 -39 49 -93 97 -54 48 -129 121 -165 161 -37 41 -77 79 -88 85 -20 11 -21 9 -15 -27z"
       id="path78"
       style="fill:#32cd32" />
    <path
       d="M6400 5661 c-19 -3 -35 -11 -35 -18 0 -6 16 -22 35 -35 52 -34 72 -81 65 -145 l-6 -53 52 0 52 0 -7 74 c-4 41 -15 98 -25 128 -17 51 -19 53 -57 54 -21 1 -55 -1 -74 -5z"
       id="path80"
       style="fill:#32cd32" />
    <path
       d="M6329 5573 c-25 -30 -161 -126 -360 -254 -192 -124 -782 -495 -951 -598 -49 -30 -88 -57 -88 -60 0 -9 74 -81 83 -81 8 0 374 221 447 270 30 21 154 98 275 172 310 190 421 259 492 305 34 22 88 51 120 63 77 31 83 36 83 80 0 54 -18 96 -46 109 -33 15 -39 14 -55 -6z"
       id="path82"
       style="fill:#778899" />
    <path
       d="M4734 5374 c-48 -98 -117 -249 -154 -334 -102 -233 -120 -270 -134 -270 -7 0 -54 18 -105 40 -50 22 -96 40 -101 40 -10 0 -3 -105 14 -220 11 -73 13 -75 41 -78 17 -2 63 -12 103 -23 41 -11 75 -19 76 -17 1 2 13 19 27 38 13 19 30 48 37 63 6 15 19 30 27 33 20 8 19 24 0 24 -27 0 -65 47 -65 79 0 42 54 97 111 112 l45 12 12 138 c11 126 34 269 48 290 10 17 81 9 108 -12 15 -12 29 -19 31 -17 6 6 -21 268 -29 275 -3 3 -44 -75 -92 -173z"
       id="path84"
       style="fill:#cd5c5c" />
    <path
       d="M6584 5513 c2 -10 8 -38 11 -63 8 -50 26 -89 62 -138 33 -45 45 -32 37 39 -7 67 7 80 29 27 18 -43 62 -94 111 -129 72 -53 80 -35 31 63 -13 26 -20 50 -15 53 4 3 29 -19 55 -50 31 -36 68 -65 108 -85 136 -68 128 -24 -26 135 -61 64 -120 121 -130 126 -12 7 -32 5 -65 -6 -59 -20 -117 -13 -167 21 -43 29 -48 30 -41 7z"
       id="path86"
       style="fill:#32cd32" />
    <path
       d="M4736 5258 c-18 -85 -26 -137 -35 -238 -5 -63 -9 -128 -8 -145 2 -27 -1 -31 -38 -38 -55 -12 -85 -28 -107 -57 -23 -32 -16 -56 25 -76 24 -13 31 -14 38 -2 5 7 9 16 9 21 0 4 14 16 32 26 40 25 57 75 59 171 2 111 17 233 30 241 14 8 63 -5 95 -26 l24 -15 0 48 c0 38 -5 53 -22 69 -52 47 -95 55 -102 21z"
       id="path88"
       style="fill:#7fff00" />
    <path
       d="M4757 5108 c-10 -40 -20 -226 -13 -237 5 -7 15 -7 32 -1 18 7 35 6 61 -5 l36 -15 -6 104 c-7 117 -19 148 -69 165 -17 6 -32 11 -33 11 -2 0 -5 -10 -8 -22z"
       id="path90"
       style="fill:#db7093" />
    <path
       d="M3901 5024 c13 -16 29 -19 29 -5 0 5 -9 11 -21 14 -16 4 -18 3 -8 -9z"
       id="path92"
       style="fill:none" />
    <path
       d="M5754 4991 c-22 -14 -111 -71 -198 -125 -87 -55 -160 -105 -163 -112 -5 -13 73 -284 85 -296 9 -8 220 -68 242 -68 9 0 45 11 80 25 72 28 120 34 101 12 -6 -8 -30 -19 -53 -26 -23 -7 -53 -17 -67 -23 -25 -10 -25 -11 19 -24 50 -15 109 -58 97 -70 -4 -4 -33 4 -63 20 -31 15 -58 25 -60 23 -2 -2 6 -23 19 -48 17 -34 22 -66 25 -146 5 -111 -6 -158 -60 -267 -33 -68 -31 -86 10 -86 54 0 258 173 287 243 20 48 9 104 -68 362 -36 121 -91 310 -122 420 -31 110 -59 203 -63 206 -4 4 -25 -5 -48 -20z"
       id="path94"
       style="fill:#cd5c5c" />
    <path
       d="M3866 4808 c-54 -112 -103 -214 -110 -227 -6 -13 -34 -39 -63 -58 -44 -28 -53 -39 -58 -71 -3 -20 -17 -62 -30 -92 -70 -157 -56 -298 38 -405 19 -22 38 -37 42 -34 3 4 -6 31 -22 60 -25 49 -28 63 -28 154 0 87 4 107 27 157 15 32 48 80 74 108 l47 50 -33 -6 c-25 -6 -32 -4 -28 7 3 8 30 19 64 25 32 6 113 30 179 53 105 37 129 42 189 39 l68 -3 -6 50 c-3 28 -9 98 -13 157 l-6 108 -114 65 c-62 36 -115 65 -116 65 -2 0 -47 -91 -101 -202z"
       id="path96"
       style="fill:#cd5c5c" />
    <path
       d="M4753 4816 l-27 -24 13 -63 c24 -111 25 -122 10 -117 -8 2 -21 30 -29 62 -16 63 -30 68 -63 24 l-20 -27 21 -75 c12 -41 22 -82 22 -91 0 -32 -28 3 -46 58 -22 68 -23 70 -41 55 -29 -24 -33 -56 -16 -133 9 -42 13 -78 10 -81 -13 -13 -26 9 -37 61 -11 52 -22 66 -34 46 -3 -4 0 -45 8 -89 15 -95 29 -115 106 -150 188 -84 306 -132 330 -132 45 0 92 40 129 109 36 69 38 81 26 239 -4 50 -12 92 -17 92 -6 0 -23 -9 -39 -21 -38 -27 -67 -20 -118 29 -26 25 -44 55 -57 94 -20 64 -12 85 17 49 11 -13 22 -21 25 -19 9 9 -110 128 -128 128 -9 0 -29 -11 -45 -24z"
       id="path98"
       style="fill:#f4a460" />
    <path
       d="M5245 4673 c-49 -30 -93 -61 -97 -67 -4 -6 -8 -26 -8 -44 0 -24 6 -35 23 -41 29 -12 146 -35 151 -30 7 7 44 224 39 232 -7 12 -15 9 -108 -50z"
       id="path100"
       style="fill:#cd5c5c" />
    <path
       d="M4045 4515 c-236 -70 -293 -110 -357 -250 -34 -75 -32 -192 4 -260 17 -33 32 -50 45 -49 15 0 227 128 256 154 5 4 1 22 -8 40 -26 50 -13 118 43 224 26 50 63 107 83 128 20 21 31 38 25 37 -6 0 -47 -11 -91 -24z"
       id="path102"
       style="fill:#dc143c" />
    <path
       d="M4193 4513 c-26 -3 -42 -17 -84 -74 -93 -126 -122 -238 -78 -300 20 -28 178 -133 187 -124 3 3 -23 36 -57 75 -38 42 -61 77 -59 87 2 13 26 -5 89 -71 76 -80 88 -88 112 -82 15 3 27 11 27 17 0 6 -36 50 -80 98 -70 77 -97 121 -73 121 4 0 51 -46 104 -101 89 -94 97 -101 118 -90 12 7 25 19 28 26 3 8 -28 59 -71 117 -42 57 -76 109 -76 116 0 32 31 4 98 -88 44 -61 80 -100 91 -100 23 0 61 36 61 58 0 9 -27 64 -60 122 -33 58 -60 108 -60 112 0 15 38 8 44 -7 9 -24 26 -17 26 10 0 31 -23 43 -129 66 -84 19 -95 20 -158 12z"
       id="path104"
       style="fill:#f4a460" />
    <path
       d="M5148 4474 c-4 -3 -2 -20 3 -37 34 -120 -28 -260 -141 -317 -58 -29 -61 -30 -85 -14 -14 9 -28 14 -31 11 -12 -12 68 -84 224 -200 234 -174 329 -237 357 -237 31 0 112 35 153 67 79 60 162 243 162 359 0 100 -41 212 -89 241 -11 7 -137 40 -280 73 -288 66 -266 62 -273 54z"
       id="path106"
       style="fill:#dc143c" />
    <path
       d="M4560 4203 c0 -52 -21 -83 -66 -97 -11 -3 -27 -17 -33 -30 -7 -13 -25 -29 -40 -36 -14 -6 -43 -20 -63 -31 -20 -10 -44 -19 -52 -19 -14 0 -42 -38 -34 -45 2 -1 19 -10 38 -20 19 -9 44 -26 56 -36 17 -16 24 -17 52 -7 44 17 79 2 120 -51 24 -32 30 -47 22 -55 -8 -8 -22 2 -52 37 -22 26 -47 47 -57 47 -25 0 -158 -89 -236 -158 -38 -35 -77 -61 -85 -59 -32 6 -10 97 45 180 l18 28 -39 -23 c-56 -32 -263 -222 -373 -341 -108 -118 -255 -311 -365 -479 -42 -64 -81 -120 -87 -123 -27 -18 -17 12 32 92 170 279 392 550 603 736 l79 70 -55 -7 c-33 -4 -74 -2 -102 5 -46 11 -47 11 -124 -37 -42 -26 -237 -146 -432 -267 -195 -121 -375 -233 -399 -250 -62 -43 -121 -97 -121 -112 0 -24 -38 -48 -68 -42 -25 5 -31 2 -43 -26 -8 -18 -26 -38 -40 -45 -35 -16 -168 -157 -277 -293 -87 -110 -272 -392 -272 -416 0 -7 7 -13 16 -13 9 0 47 -24 83 -54 192 -155 314 -234 676 -435 118 -66 297 -141 356 -148 36 -5 37 -4 77 63 44 76 156 285 277 519 43 83 103 195 135 250 31 55 80 143 108 196 101 188 403 626 551 799 91 106 204 220 218 220 8 0 16 -7 19 -15 8 -19 24 -20 24 -2 0 18 33 47 53 47 9 0 21 -10 28 -21 10 -20 9 -21 -14 -17 -23 4 -28 -1 -47 -44 -33 -77 -40 -227 -50 -1053 -5 -418 -12 -813 -16 -877 l-7 -118 34 0 c53 0 170 57 365 177 510 314 741 429 848 422 48 -4 47 -12 17 131 -33 154 -86 336 -137 474 -70 185 -281 597 -393 766 -20 30 -66 104 -101 164 -54 91 -76 117 -129 157 -91 70 -107 67 -219 -33 -23 -22 -47 -36 -53 -32 -16 9 89 112 129 126 18 7 31 15 30 19 -2 3 -31 29 -65 58 -46 38 -65 61 -72 89 -10 36 -14 39 -128 86 -169 69 -163 69 -163 9z m383 -468 c81 -72 137 -139 137 -163 0 -25 -21 -10 -61 43 -22 30 -72 80 -110 111 -62 51 -86 84 -59 84 5 0 47 -34 93 -75z m-109 -4 c8 -27 20 -92 27 -145 11 -84 11 -99 -2 -112 -14 -13 -17 -12 -33 5 -22 24 -78 233 -65 246 15 16 25 -6 43 -95 9 -46 20 -88 25 -93 13 -13 4 59 -19 153 -10 41 -16 78 -13 83 11 18 23 4 37 -42z"
       id="path108"
       style="fill:#00bfff" />
    <path
       d="M3920 4018 c-52 -34 -151 -96 -220 -138 -69 -43 -276 -172 -460 -288 -408 -256 -462 -286 -507 -284 -42 2 -50 -15 -28 -60 19 -37 64 -88 78 -88 5 0 33 21 62 48 29 26 159 112 289 192 130 80 319 196 419 259 100 62 265 165 367 228 102 62 189 118 193 122 9 9 -69 71 -87 71 -6 0 -54 -28 -106 -62z"
       id="path110"
       style="fill:#778899" />
    <path
       d="M4023 3907 c-73 -45 -132 -86 -133 -91 0 -5 35 -6 79 -3 117 8 205 53 256 131 10 14 16 28 14 30 -2 2 -22 6 -44 9 -37 6 -50 0 -172 -76z"
       id="path112"
       style="fill:#dc143c" />
    <path
       d="M4243 3907 c-24 -31 -25 -41 -2 -22 13 11 25 21 27 21 2 1 -1 5 -6 8 -5 3 -14 0 -19 -7z"
       id="path114"
       style="fill:none" />
    <path
       d="M4242 3846 c-46 -49 -92 -121 -92 -146 0 -6 34 17 75 49 41 33 88 68 105 77 16 10 30 21 30 24 0 3 -16 15 -34 27 l-34 22 -50 -53z"
       id="path116"
       style="fill:#4169e1" />
    <path
       d="M5671 3736 c-12 -13 -50 -39 -84 -57 -34 -17 -63 -33 -65 -34 -1 -1 7 -24 18 -50 24 -55 20 -75 -12 -75 -16 0 -49 26 -103 81 -73 73 -130 117 -141 106 -2 -2 14 -32 36 -66 221 -341 427 -768 509 -1052 47 -163 90 -383 91 -462 0 -47 -8 -62 -84 -162 -77 -100 -100 -135 -166 -258 -43 -81 -53 -110 -57 -162 -5 -60 -4 -64 22 -81 36 -23 132 -30 193 -14 153 42 354 141 667 328 246 147 503 262 588 262 18 0 36 3 40 6 12 13 -159 331 -285 527 -99 156 -247 352 -363 482 -102 114 -645 656 -680 680 -11 7 -38 16 -60 20 -35 5 -44 2 -64 -19z"
       id="path118"
       style="fill:#00bfff" />
    <path
       d="M4552 3597 c-39 -40 -48 -59 -106 -238 -35 -107 -75 -223 -89 -259 -105 -269 -331 -700 -367 -700 -15 0 2 42 48 120 90 152 221 419 271 550 56 150 151 424 148 427 -6 5 -182 -225 -299 -390 -176 -247 -264 -393 -480 -802 -266 -502 -359 -666 -390 -688 l-27 -20 -107 37 c-106 37 -283 120 -364 171 -22 14 -44 24 -48 21 -5 -3 -48 -71 -97 -151 -116 -190 -129 -205 -182 -212 -56 -7 -161 25 -295 92 l-108 54 -44 -52 c-113 -134 -209 -298 -191 -328 4 -5 17 -9 31 -9 24 0 24 -2 18 -50 -8 -58 7 -83 63 -106 38 -16 182 -18 290 -4 61 8 269 62 326 85 19 8 20 5 8 -49 -21 -90 29 -121 180 -113 73 4 117 12 185 37 129 46 142 48 153 17 6 -14 19 -31 30 -36 33 -18 123 -12 212 14 111 32 113 32 105 -7 -9 -52 3 -62 71 -56 77 7 192 56 293 124 45 30 86 52 90 49 5 -3 8 -34 7 -69 -2 -76 12 -97 81 -120 60 -21 110 -20 209 4 125 30 180 52 281 114 51 31 97 56 102 56 5 0 12 -12 16 -27 17 -80 42 -111 96 -119 63 -11 149 50 182 129 20 48 39 55 84 28 83 -50 242 -121 327 -146 63 -19 123 -28 201 -32 144 -7 182 -1 190 34 6 24 3 37 -21 96 -10 23 15 22 57 -2 39 -24 121 -43 142 -35 9 3 16 15 16 25 0 29 25 34 57 11 91 -64 296 -144 432 -168 132 -23 207 -7 254 53 10 13 25 23 32 23 7 0 60 -16 117 -35 122 -41 275 -69 327 -60 21 3 52 15 69 25 37 23 42 58 15 115 -21 44 -13 52 34 32 62 -27 107 -30 167 -13 67 20 82 41 66 91 -12 37 -7 55 15 55 27 0 37 37 20 74 -25 51 -286 345 -327 367 -14 7 -33 0 -82 -31 -131 -83 -423 -210 -483 -210 -18 0 -41 27 -113 136 l-91 135 -67 -37 c-231 -129 -316 -167 -450 -205 -66 -18 -81 -19 -143 -9 -45 8 -79 20 -95 34 -22 20 -83 163 -175 411 -18 50 -36 94 -40 98 -4 5 -130 -65 -280 -156 -151 -90 -296 -176 -324 -189 -74 -37 -153 -61 -180 -54 -42 11 -46 33 -35 183 6 76 15 476 20 888 9 670 19 940 35 984 5 13 -10 30 -25 31 -3 0 -25 -19 -48 -43z"
       id="path120"
       style="fill:#6a5acd" />
    <path
       d="M6285 3297 c287 -290 488 -545 667 -846 97 -163 228 -422 228 -452 0 -51 -81 -135 -260 -269 -202 -152 -362 -292 -349 -305 11 -10 158 47 289 113 144 73 356 200 611 367 87 57 166 106 178 110 12 3 21 10 21 14 0 18 -174 260 -249 345 -81 92 -316 316 -546 521 -174 154 -557 444 -705 533 -20 12 29 -44 115 -131z"
       id="path122"
       style="fill:#00bfff" />
    <path
       d="M2250 2950 c-267 -232 -515 -504 -681 -748 -55 -80 -70 -109 -65 -127 4 -15 60 -67 154 -142 259 -208 374 -282 601 -382 94 -42 123 -51 172 -51 32 0 61 5 64 10 21 33 -94 258 -233 456 -89 128 -170 268 -178 310 -7 36 -5 41 84 184 92 147 245 349 343 453 82 85 84 88 63 102 -11 7 -39 18 -62 24 -44 12 -62 33 -55 62 3 11 1 19 -3 19 -5 -1 -97 -77 -204 -170z"
       id="path124"
       style="fill:#00bfff" />
    <path
       d="M5742 2134 c-73 -21 -255 -109 -304 -146 -16 -12 -11 -29 59 -217 55 -147 79 -199 84 -185 53 147 82 199 213 378 96 131 109 162 81 183 -25 17 -35 16 -133 -13z"
       id="path126"
       style="fill:#4682b4" />
    <path
       d="M7038 2000 c-137 -43 -259 -101 -491 -232 -103 -59 -155 -93 -150 -101 6 -12 134 -210 137 -214 1 -1 31 25 67 58 35 33 150 127 254 209 188 147 262 214 284 258 11 20 9 23 -14 32 -15 6 -27 10 -28 9 -1 0 -28 -9 -59 -19z"
       id="path128"
       style="fill:#4682b4" />
    <path
       d="M7454 1853 c-116 -76 -232 -151 -258 -167 l-48 -29 50 -50 51 -51 83 50 c106 62 239 193 297 291 24 40 41 77 39 84 -2 6 -98 -51 -214 -128z"
       id="path130"
       style="fill:#4682b4" />
    <path
       d="M4876 1056 c-33 -57 -86 -102 -136 -117 l-41 -12 6 -126 c4 -69 8 -131 10 -137 2 -7 -3 -87 -11 -179 -8 -92 -13 -169 -11 -171 6 -6 125 43 171 70 22 13 53 38 69 55 15 17 32 31 38 31 6 0 27 -14 47 -31 73 -65 171 -88 206 -50 19 20 21 6 -53 341 -50 229 -54 245 -65 258 -5 8 -54 36 -107 63 l-97 48 -26 -43z"
       id="path132"
       style="fill:#9370db" />
    <path
       d="M3780 1030 c-62 -44 -186 -96 -264 -112 -67 -13 -107 3 -120 48 l-9 30 -56 -19 c-67 -23 -192 -28 -237 -9 -17 7 -36 24 -42 37 l-11 24 -56 -25 c-82 -38 -236 -67 -311 -60 l-62 6 -7 -60 c-8 -68 3 -108 37 -129 17 -11 22 -11 29 1 6 10 11 9 22 -6 13 -17 23 -19 98 -13 46 3 117 16 157 27 40 11 78 18 83 14 5 -3 7 -20 4 -37 -9 -47 10 -65 75 -73 43 -5 78 0 154 20 54 14 109 26 122 26 24 0 24 -2 18 -48 -8 -60 7 -76 68 -70 24 3 50 6 58 9 12 3 15 -12 15 -89 0 -92 0 -94 31 -122 31 -27 104 -50 162 -50 63 0 180 43 278 102 l101 61 7 90 c3 50 6 136 6 191 l0 101 -75 -3 c-61 -3 -82 0 -119 18 -53 25 -86 73 -86 124 0 20 -3 36 -7 35 -5 -1 -33 -18 -63 -39z"
       id="path134"
       style="fill:#9370db" />
    <path
       d="M4505 1044 c-34 -27 -197 -104 -255 -121 -30 -8 -59 -19 -65 -25 -6 -5 -18 -154 -27 -336 -9 -180 -20 -380 -24 -445 l-7 -117 239 2 238 3 22 150 c32 214 47 441 42 611 -4 141 -5 147 -29 165 -69 51 -79 63 -87 91 -10 38 -20 43 -47 22z"
       id="path136"
       style="fill:#2f4f4f" />
    <path
       d="M5872 1020 c-15 -25 -70 -27 -132 -5 -23 8 -44 15 -46 15 -9 0 -3 -51 12 -91 9 -24 33 -111 54 -194 l37 -150 39 -13 c45 -15 169 -17 207 -3 28 11 42 41 32 71 -12 37 5 39 91 8 166 -57 325 -60 405 -5 37 25 44 37 56 92 l8 40 95 5 c92 5 136 18 173 48 26 23 21 29 -31 36 -26 3 -91 22 -144 41 -95 34 -98 34 -108 15 -14 -26 -80 -59 -133 -66 -123 -17 -437 72 -559 157 -33 24 -40 24 -56 -1z"
       id="path138"
       style="fill:#9370db" />
    <path
       d="M5164 948 c11 -38 106 -486 126 -593 10 -55 29 -157 41 -227 l23 -128 238 0 238 0 0 38 c0 20 -5 64 -10 97 -5 33 -17 112 -25 175 -37 268 -45 320 -50 347 -7 33 -67 257 -71 261 -1 2 -31 -2 -68 -8 -83 -15 -248 2 -356 36 -92 29 -94 29 -86 2z"
       id="path140"
       style="fill:#2f4f4f" />
    <path
       d="M4930 395 c-45 -46 -100 -78 -175 -101 -33 -10 -64 -21 -68 -24 -4 -4 -14 -52 -22 -106 -8 -54 -17 -114 -20 -131 l-6 -33 336 0 c265 0 335 3 335 13 0 15 -48 290 -56 324 -6 22 -7 22 -37 7 -20 -11 -43 -14 -69 -10 -48 8 -126 46 -152 75 -11 12 -22 21 -26 21 -3 0 -22 -16 -40 -35z"
       id="path142"
       style="fill:none" />
  </g>
</svg>
