<?xml version="1.0" standalone="no"?>
<!DOCTYPE svg PUBLIC "-//W3C//DTD SVG 20010904//EN"
 "http://www.w3.org/TR/2001/REC-SVG-20010904/DTD/svg10.dtd">
<svg version="1.0" xmlns="http://www.w3.org/2000/svg"
 width="850.000000pt" height="850.000000pt" viewBox="0 0 850.000000 850.000000"
 preserveAspectRatio="xMidYMid meet">
<metadata>
Created by potrace 1.14, written by Peter Selinger 2001-2017
</metadata>
<g transform="translate(0.000000,850.000000) scale(0.100000,-0.100000)"
fill="#000000" stroke="none">
<path d="M2605 8439 c-45 -40 -99 -149 -115 -233 -7 -36 -17 -66 -24 -66 -6 0
-33 7 -61 16 -154 48 -407 74 -545 57 l-65 -8 1 -51 c1 -36 17 -89 53 -179 28
-70 51 -137 51 -149 0 -15 -17 -35 -52 -61 -128 -97 -263 -244 -354 -387 -137
-213 -297 -624 -355 -908 -19 -96 -20 -124 -14 -320 9 -304 -17 -461 -106
-618 -52 -91 -187 -219 -304 -287 -374 -217 -524 -414 -525 -685 0 -232 99
-413 310 -567 109 -80 170 -154 170 -206 0 -65 -57 -138 -119 -152 -42 -9
-112 24 -146 69 -24 32 -27 42 -23 96 4 51 9 65 36 93 33 34 39 47 22 47 -22
0 -99 -83 -131 -142 l-34 -63 1 -170 0 -170 36 -60 c43 -71 111 -144 168 -180
l42 -26 -7 -82 c-14 -170 62 -304 241 -422 70 -46 122 -64 210 -72 l72 -6 6
-42 c10 -61 56 -128 111 -161 45 -26 46 -28 40 -63 -4 -20 -10 -40 -14 -44 -4
-4 -28 1 -53 12 -110 47 -212 50 -331 10 -177 -60 -265 -186 -283 -409 -15
-179 61 -375 208 -536 l50 -54 -164 -188 c-381 -439 -464 -536 -483 -559 -19
-23 -21 -24 -57 -9 -42 18 -49 27 -59 76 -6 29 -7 26 -6 -19 l2 -55 65 -26
c36 -15 65 -30 65 -34 0 -4 -22 -19 -50 -34 l-50 -27 -3 -78 c-2 -64 -6 -78
-17 -73 -9 3 -15 -1 -15 -10 0 -20 30 -30 41 -13 5 8 9 46 9 86 l0 71 65 37
c36 20 65 39 65 42 0 3 -6 11 -14 17 -12 9 4 33 92 132 59 66 203 229 320 361
117 133 219 246 227 253 11 9 25 6 67 -18 29 -16 78 -38 108 -48 69 -22 197
-22 259 0 24 9 46 14 49 11 3 -3 18 -36 32 -74 58 -149 164 -270 287 -331 35
-17 63 -35 63 -39 0 -5 -7 -28 -15 -52 -9 -24 -39 -125 -66 -224 -28 -99 -53
-187 -56 -195 -4 -8 -11 13 -17 47 -6 34 -14 65 -18 69 -4 3 -42 -14 -85 -40
-86 -51 -94 -52 -188 -31 -100 23 -102 18 -49 -109 l36 -86 -26 -45 c-32 -55
-15 -60 28 -8 l29 35 -40 99 c-22 54 -35 99 -29 99 6 0 45 -7 88 -17 l77 -16
70 48 c39 27 74 46 77 43 3 -4 8 -35 11 -70 7 -93 17 -111 89 -158 35 -23 64
-45 64 -50 0 -5 -15 -17 -32 -27 -23 -12 -28 -18 -17 -20 14 -3 89 33 89 42 0
2 -30 27 -66 55 l-67 52 6 62 c7 74 64 301 104 411 l28 80 40 -5 c22 -3 79 -5
127 -5 73 0 85 -2 78 -15 -4 -8 -3 -66 3 -127 l10 -113 -59 -62 c-64 -67 -104
-120 -104 -136 0 -6 55 -20 121 -33 l121 -22 27 -43 c14 -23 38 -65 53 -93 16
-29 35 -51 44 -51 14 0 13 5 -5 32 -12 18 -33 56 -46 83 -39 83 -44 85 -165
110 -61 12 -113 25 -117 28 -3 4 21 36 53 72 106 119 99 99 86 222 -6 60 -7
112 -2 117 4 4 48 -10 98 -33 49 -22 98 -41 109 -41 11 0 70 27 131 60 110 59
132 68 132 53 -1 -24 -30 -163 -40 -191 -16 -44 -7 -74 37 -114 20 -18 59 -54
86 -79 l50 -45 -60 -22 c-33 -12 -84 -26 -114 -32 -75 -14 -97 -34 -146 -131
-48 -95 -46 -89 -33 -89 5 0 25 30 44 67 51 103 57 108 190 147 65 19 123 39
129 45 13 13 -30 67 -109 136 -50 44 -63 61 -59 78 2 12 16 74 30 138 30 138
29 129 9 129 -16 0 -202 -90 -239 -116 -29 -21 -42 -18 -149 30 -91 41 -97 45
-70 52 37 8 128 58 176 97 47 38 111 129 139 198 30 75 38 219 15 285 -9 26
-16 51 -16 56 0 18 71 7 106 -17 48 -33 95 -40 158 -25 49 11 53 11 111 -20
55 -29 65 -31 120 -25 33 3 69 9 81 11 20 5 21 1 27 -173 12 -316 48 -533 128
-776 l49 -148 -30 -30 c-31 -31 -46 -83 -35 -118 10 -33 32 -26 27 9 -10 66
19 110 73 110 57 0 93 -68 65 -121 -8 -15 -7 -19 4 -19 22 0 37 54 24 92 -12
39 -51 78 -78 78 -10 0 -21 4 -24 9 -7 10 -61 195 -100 341 -44 166 -82 556
-69 725 6 70 8 76 27 73 17 -2 22 -12 28 -58 7 -60 13 -487 7 -534 -3 -25 0
-31 20 -36 21 -5 27 -18 52 -120 29 -122 90 -293 96 -273 2 6 -19 91 -46 187
-28 96 -51 186 -51 200 0 17 16 42 46 73 60 60 102 149 165 346 46 143 53 157
74 157 17 0 30 -12 50 -47 51 -88 96 -123 157 -123 l34 0 98 -218 c54 -119
106 -226 116 -236 44 -45 85 23 84 139 0 64 -8 102 -37 190 -20 60 -37 113
-37 118 0 4 41 -26 92 -68 51 -41 100 -75 110 -75 43 0 48 82 9 173 l-20 47
29 0 c16 0 132 -16 259 -35 126 -19 234 -35 240 -35 6 0 38 -24 70 -54 70 -64
117 -81 201 -71 46 5 62 3 91 -13 65 -39 116 -46 186 -27 l63 17 47 -32 c46
-31 51 -32 126 -27 59 4 77 2 77 -8 0 -28 93 -197 166 -301 165 -237 343 -379
574 -457 279 -95 593 -15 707 180 67 114 84 276 44 405 -21 65 -99 195 -140
232 -20 18 -19 18 16 68 113 156 124 411 25 577 -114 193 -288 302 -530 331
-170 21 -302 -7 -481 -101 -52 -27 -97 -46 -101 -42 -3 5 -14 39 -23 76 -15
56 -16 72 -5 91 55 97 71 137 62 146 -6 6 -40 13 -76 17 -37 3 -70 8 -75 12
-5 3 -30 34 -57 69 -26 34 -54 62 -61 62 -8 0 -32 -35 -52 -77 -35 -73 -41
-79 -80 -90 -24 -7 -62 -19 -85 -25 -67 -20 -63 -45 14 -101 88 -64 100 -76
94 -94 -3 -8 -9 -53 -12 -99 -8 -104 -1 -107 89 -34 34 27 69 50 77 50 9 0 46
-10 83 -23 l66 -22 -35 -38 c-27 -28 -43 -37 -69 -37 -52 0 -79 -40 -72 -107
3 -29 4 -53 2 -53 -2 0 -34 32 -72 71 -100 105 -298 267 -434 356 -65 43 -118
80 -118 83 0 3 32 20 70 38 107 52 214 138 297 241 41 50 77 93 82 96 4 2 75
12 156 20 163 17 354 52 354 66 0 12 3 12 -126 -10 -130 -23 -343 -45 -351
-37 -3 3 25 57 62 120 63 106 72 115 109 126 100 30 692 20 712 -11 3 -5 -6
-49 -20 -99 -24 -81 -31 -120 -23 -120 10 0 168 50 204 65 l42 17 83 -50 c46
-28 105 -61 131 -73 48 -23 49 -23 63 -5 8 11 14 38 14 60 0 69 3 69 130 30
447 -140 850 -364 1175 -651 177 -157 337 -359 454 -574 l41 -74 0 38 c0 46
-22 92 -112 225 -265 396 -682 720 -1223 953 -55 23 -185 72 -290 109 l-189
65 -12 40 -11 40 83 86 c46 48 84 94 84 102 0 23 -24 33 -129 53 -76 15 -95
22 -101 39 -4 11 -15 44 -24 73 -17 51 -65 142 -76 142 -3 -1 -27 -31 -55 -68
-27 -36 -63 -81 -79 -99 l-28 -33 -118 0 c-66 0 -121 -4 -124 -9 -3 -5 23 -59
59 -120 36 -62 65 -113 65 -115 0 -2 -271 30 -277 33 -1 1 14 31 33 67 21 40
34 80 34 103 0 33 6 42 68 92 86 71 123 136 130 229 3 53 0 76 -16 113 -12 26
-25 47 -30 47 -5 0 -9 -24 -9 -54 0 -89 -55 -156 -126 -156 -46 0 -87 41 -87
85 0 61 35 95 162 158 180 89 255 170 293 312 43 168 -19 356 -143 431 l-52
31 47 18 c55 21 134 92 169 150 50 87 66 152 66 270 -1 165 -37 290 -124 423
l-41 64 13 51 c8 29 15 81 15 117 1 36 5 104 10 151 7 79 6 91 -14 133 -68
139 -228 215 -455 216 -154 0 -251 -33 -436 -150 -41 -26 -119 -74 -172 -107
-196 -121 -348 -143 -500 -71 l-72 34 50 29 c155 90 248 183 309 308 58 119
85 232 95 387 5 88 15 146 31 195 19 55 24 90 23 165 -2 194 -64 341 -208 484
-49 49 -82 86 -73 83 9 -3 35 -11 59 -17 69 -19 138 -59 196 -113 73 -70 104
-125 105 -187 1 -59 12 -57 21 4 16 104 -45 274 -129 361 -53 54 -150 103
-224 112 l-51 6 41 44 c90 98 114 230 73 398 -14 57 -76 168 -121 216 -25 27
-48 47 -50 45 -2 -2 7 -27 21 -54 32 -63 46 -149 34 -210 -22 -120 -120 -246
-215 -276 -20 -6 -24 -2 -39 50 -35 123 5 332 90 460 20 30 34 60 30 66 -7 11
-252 6 -375 -8 l-57 -7 19 79 c31 129 22 191 -35 244 -78 71 -400 12 -577
-106 -81 -53 -153 -130 -193 -205 -16 -30 -34 -57 -39 -61 -6 -3 -28 1 -51 9
-23 8 -76 23 -118 33 -43 10 -82 21 -88 25 -5 3 -27 32 -49 63 -120 178 -263
277 -479 336 l-93 25 -34 -30z m193 -69 c126 -52 192 -94 269 -169 66 -66 151
-187 195 -276 36 -71 122 -304 115 -311 -9 -9 -89 16 -155 49 -110 54 -192
150 -233 271 l-18 51 0 -40 c-1 -44 37 -129 85 -190 43 -54 129 -107 235 -144
51 -19 100 -39 108 -45 10 -7 12 -26 8 -67 -8 -86 -50 -159 -93 -159 -12 0
-84 33 -161 74 -185 100 -269 128 -405 134 -137 6 -221 -17 -291 -79 -26 -22
-47 -48 -47 -57 0 -11 11 -5 38 20 55 55 121 80 222 86 156 9 278 -26 484
-137 l109 -59 -31 -16 c-55 -28 -154 -47 -287 -53 -198 -9 -361 18 -485 80
-78 38 -82 51 -49 159 24 83 54 144 145 304 35 61 64 116 64 123 0 22 -15 10
-42 -31 l-26 -41 -8 49 c-4 27 -8 112 -8 189 -1 155 10 203 65 290 29 46 31
47 67 40 20 -4 79 -24 130 -45z m1501 -47 c38 -31 43 -88 20 -220 -11 -65 -27
-158 -35 -208 -8 -49 -17 -100 -20 -113 -4 -19 -1 -23 13 -18 16 5 21 -6 37
-76 10 -45 22 -140 27 -212 9 -139 3 -168 -38 -180 -201 -58 -413 -80 -535
-56 -93 18 -191 51 -182 60 5 5 74 39 154 76 153 71 257 104 325 104 64 0 151
-27 210 -65 62 -39 72 -32 21 13 -56 49 -138 75 -236 75 -98 0 -141 -14 -339
-112 -68 -34 -126 -60 -128 -58 -1 2 8 31 22 65 16 38 25 81 25 114 0 29 4 58
8 65 13 21 62 33 135 33 54 0 68 3 59 12 -16 16 -119 13 -170 -6 l-42 -15 -21
41 -21 41 21 26 c41 50 80 125 92 174 10 42 9 51 -5 65 -13 13 -18 14 -28 3
-11 -10 -10 -12 2 -9 41 9 -12 -152 -68 -205 l-29 -28 -36 45 c-21 24 -37 50
-37 56 0 28 102 219 140 263 124 142 307 229 535 255 44 5 85 10 91 11 7 0 22
-7 33 -16z m-2184 -172 c66 -10 171 -27 232 -36 62 -10 117 -23 121 -29 14
-18 52 -275 44 -294 -6 -14 -59 -109 -68 -121 -2 -2 -38 13 -80 33 -83 39 -84
40 -84 28 0 -4 32 -25 70 -46 39 -20 70 -41 70 -46 0 -4 -13 -39 -29 -76 -34
-79 -46 -134 -37 -168 15 -59 153 -146 275 -171 36 -8 117 -17 179 -21 62 -4
109 -10 105 -14 -4 -4 -33 -16 -63 -25 -124 -41 -384 -151 -519 -221 -79 -41
-145 -74 -146 -74 -1 0 -5 21 -9 47 -8 59 -41 115 -133 228 -120 146 -132 205
-91 458 30 190 22 234 -72 420 -38 76 -70 140 -70 142 0 12 198 3 305 -14z
m2585 -145 c0 -2 -16 -30 -35 -62 -20 -33 -47 -96 -62 -142 -36 -115 -29 -222
22 -375 40 -121 65 -265 65 -376 0 -63 -2 -72 -16 -67 -28 11 -85 16 -279 26
-217 11 -363 35 -501 85 -90 32 -230 102 -221 111 2 2 35 -3 73 -12 53 -12
104 -15 214 -12 162 5 262 30 353 88 71 45 80 75 72 226 l-7 123 46 53 c61 70
59 85 -4 23 -27 -27 -51 -47 -54 -44 -13 13 -48 143 -53 194 -6 63 13 131 39
140 7 3 83 9 168 13 85 5 161 10 168 11 6 0 12 -1 12 -3z m-1295 -47 c84 -27
89 -31 81 -70 -10 -54 -19 -61 -77 -63 l-53 -1 -32 75 c-18 41 -33 78 -33 83
-1 9 34 2 114 -24z m1571 -159 c15 -42 19 -83 19 -175 0 -103 -4 -127 -23
-170 -30 -65 -85 -122 -147 -151 -48 -23 -105 -32 -105 -16 0 4 -9 37 -19 75
l-20 67 53 25 c68 32 149 118 183 192 21 47 27 74 27 140 1 45 4 79 7 75 4 -4
15 -32 25 -62z m-1532 -10 c30 -11 153 -190 162 -236 7 -39 -18 -132 -51 -184
-29 -46 -70 -64 -135 -58 -60 6 -68 12 -48 35 46 52 62 106 62 208 1 59 -3
101 -9 102 -5 1 -9 -5 -7 -13 6 -27 -9 -14 -24 22 -18 42 -34 121 -26 129 8 8
48 6 76 -5z m-1531 -82 c-2 -18 -13 -89 -25 -158 -24 -144 -21 -220 12 -298
l23 -53 -36 -77 c-60 -128 -78 -210 -84 -367 -4 -125 -2 -154 22 -268 14 -71
29 -135 32 -143 8 -22 -62 -47 -120 -41 -51 4 -88 26 -121 71 -34 45 -29 143
11 229 37 78 28 88 -18 20 -42 -60 -69 -133 -69 -184 0 -22 -7 -53 -14 -68 -8
-15 -20 -49 -27 -74 -10 -43 -9 -51 14 -95 14 -26 32 -71 40 -99 9 -28 21 -61
27 -73 10 -18 5 -27 -35 -73 -25 -29 -58 -77 -73 -107 -23 -47 -27 -67 -26
-135 1 -97 23 -153 87 -222 45 -48 77 -101 77 -125 0 -7 -50 -63 -110 -123
-61 -60 -109 -114 -107 -119 2 -5 -40 -48 -93 -96 -154 -141 -192 -187 -259
-322 -74 -148 -91 -219 -72 -310 7 -33 24 -78 38 -99 14 -22 24 -40 22 -42 -2
-1 -16 -13 -31 -26 -27 -24 -28 -24 -49 -5 -50 45 -64 91 -64 214 0 109 2 119
32 182 45 96 85 150 187 256 49 51 87 94 84 97 -8 8 -156 -134 -202 -194 -154
-200 -178 -420 -61 -559 28 -33 33 -72 10 -72 -22 0 -81 56 -99 95 -45 95 -41
232 10 344 13 29 24 58 24 65 -1 21 -43 -38 -74 -104 -28 -60 -31 -73 -30
-170 0 -97 2 -109 29 -159 16 -30 51 -71 76 -93 44 -37 47 -42 51 -101 9 -112
64 -182 169 -217 l49 -17 -97 -56 c-54 -30 -107 -67 -118 -81 -27 -36 -33
-183 -11 -285 18 -85 15 -93 -55 -148 -66 -52 -141 -76 -224 -71 -121 8 -208
72 -277 203 -45 88 -63 173 -55 270 7 73 34 165 36 119 1 -12 17 -41 35 -66
57 -74 140 -96 221 -59 106 48 146 187 82 282 -12 19 -71 72 -129 119 -59 47
-107 88 -108 93 0 12 240 -151 284 -192 78 -73 106 -182 67 -260 -25 -48 -91
-108 -149 -133 -36 -16 -59 -19 -114 -16 -70 5 -92 -5 -37 -17 63 -14 137 -7
187 19 62 31 129 106 143 160 17 64 6 150 -28 204 -27 44 -131 132 -191 163
-103 52 -241 178 -281 257 -32 62 -52 133 -61 211 -19 175 34 311 181 465 94
99 159 148 354 266 253 155 355 250 430 404 63 128 79 218 80 440 0 111 -4
181 -10 183 -6 2 -9 -52 -7 -154 2 -92 -1 -190 -8 -233 -14 -86 -57 -211 -96
-279 -34 -57 -128 -157 -191 -201 l-48 -33 26 29 c48 54 93 128 136 227 81
184 96 298 79 602 -8 142 -7 155 17 255 50 204 187 565 293 770 55 106 145
236 236 342 45 52 160 148 177 148 4 0 6 -15 4 -32z m1541 -442 c55 -2 61 -5
94 -41 155 -176 197 -391 122 -615 -46 -137 -152 -270 -253 -319 -89 -43 -227
-61 -227 -30 0 5 3 8 8 7 7 -2 75 10 105 18 39 12 13 19 -53 16 -105 -6 -115
3 -42 38 34 16 62 34 62 39 0 6 -15 4 -34 -6 -30 -14 -41 -14 -80 -3 -25 7
-46 16 -46 20 0 5 16 18 36 30 43 27 38 38 -6 15 -39 -20 -110 -46 -110 -40 0
3 15 25 34 49 60 79 71 123 71 286 0 131 -3 153 -28 230 -15 47 -42 113 -61
148 l-34 62 52 23 c28 12 96 40 151 62 96 40 101 41 140 27 22 -7 67 -15 99
-16z m123 -26 c32 -38 123 -108 188 -144 75 -42 197 -84 325 -114 107 -24 132
-26 367 -27 170 0 256 4 263 11 6 6 14 55 18 108 l7 97 65 -33 c83 -42 203
-159 258 -253 78 -132 117 -310 98 -440 -8 -53 -17 -50 -36 10 -13 43 -116
278 -157 359 -25 49 -122 161 -131 151 -3 -2 20 -37 51 -77 55 -73 82 -117 75
-123 -2 -2 -47 37 -101 87 -54 50 -101 88 -104 84 -4 -3 34 -48 84 -99 101
-104 142 -160 183 -251 102 -224 100 -502 -6 -726 -63 -134 -231 -272 -424
-348 -107 -42 -168 -53 -268 -47 -73 5 -83 3 -62 -7 14 -6 27 -13 29 -15 2 -1
-15 -20 -38 -40 -53 -48 -64 -94 -31 -135 12 -16 35 -30 55 -34 42 -8 44 -16
9 -39 -54 -35 -164 -13 -164 34 0 59 83 226 153 306 l34 40 107 6 c94 6 115
11 183 43 65 31 92 53 180 144 152 157 191 222 212 353 24 143 6 162 -26 27
-32 -133 -74 -208 -168 -304 -108 -110 -169 -139 -285 -139 -72 0 -92 4 -127
24 -24 14 -43 27 -43 31 0 3 26 10 59 17 75 14 174 62 232 113 41 35 119 137
119 155 0 3 -42 -31 -92 -76 -129 -114 -260 -171 -321 -140 -12 6 -34 15 -49
21 -46 16 -35 38 23 46 59 8 48 24 -17 24 -23 0 -47 6 -53 14 -9 11 1 19 53
44 35 17 80 45 100 62 115 102 162 416 91 625 -14 44 -43 107 -62 140 -47 77
-53 86 -64 79 -5 -3 9 -40 30 -83 71 -139 88 -271 56 -410 -35 -146 -162 -314
-277 -365 -145 -64 -355 -60 -460 9 -49 32 -63 13 -20 -26 18 -16 32 -31 32
-34 0 -3 -28 -5 -62 -5 -45 0 -78 7 -114 24 -67 31 -72 42 -24 50 48 8 115 45
102 58 -5 5 -20 5 -36 -2 -15 -5 -55 -10 -90 -10 -55 0 -68 4 -112 35 -27 19
-60 35 -74 35 -14 1 -38 7 -55 15 -29 13 -27 13 43 14 46 1 71 5 67 11 -3 6
-21 10 -40 10 -51 0 -51 17 0 25 25 3 81 24 124 46 128 64 207 165 268 342 25
72 28 96 28 204 0 138 6 142 54 39 149 -315 -38 -696 -341 -696 -56 0 -77 -13
-40 -24 33 -11 184 22 247 53 149 73 242 256 233 459 -3 80 -2 82 12 50 10
-23 14 -70 15 -153 0 -110 -2 -125 -27 -178 -54 -114 -139 -190 -254 -227 -56
-18 -57 -19 -22 -19 45 -1 75 11 149 61 144 95 214 248 189 412 -23 152 -77
262 -189 380 -53 57 -183 208 -224 262 -27 35 -10 29 20 -6z m1433 4 c82 -32
174 -98 208 -149 18 -27 32 -52 32 -56 0 -4 -21 13 -47 37 -102 93 -223 139
-370 138 -92 -1 -103 1 -103 17 0 40 190 49 280 13z m-3040 -104 c0 -4 -15
-31 -34 -59 -79 -117 -91 -250 -42 -451 31 -124 36 -202 17 -239 -18 -32 -25
-19 -47 79 -15 67 -19 124 -19 270 1 176 2 189 29 270 16 47 37 102 48 123 16
32 22 36 34 27 8 -7 14 -16 14 -20z m1043 -65 c74 -236 66 -457 -21 -604 -20
-35 -48 -69 -62 -77 -34 -18 -304 -124 -308 -120 -1 2 13 36 33 77 31 66 35
82 35 157 0 126 -57 279 -149 402 -23 30 -41 57 -41 60 0 3 80 36 178 74 97
39 204 82 237 97 33 15 63 24 67 20 3 -3 17 -42 31 -86z m-912 -100 c23 -40
29 -62 29 -112 0 -35 3 -63 8 -63 4 0 76 34 161 75 84 41 160 75 167 75 18 0
68 -89 96 -170 20 -55 23 -85 23 -200 -1 -133 -1 -136 -34 -200 -19 -36 -42
-71 -52 -78 -11 -7 -19 -19 -19 -27 0 -23 -56 -56 -84 -49 -21 5 -24 3 -19
-14 3 -14 -2 -24 -17 -32 -12 -6 -19 -14 -17 -17 3 -2 19 3 36 11 35 19 107
21 117 4 4 -6 -3 -20 -17 -31 -21 -17 -24 -17 -27 -4 -3 13 -6 13 -23 -4 -14
-14 -33 -19 -73 -19 -59 0 -90 -19 -34 -21 18 -1 44 -4 58 -8 l25 -7 -42 -40
c-96 -91 -116 -107 -157 -125 -69 -30 -184 -43 -268 -30 -167 25 -264 75 -311
159 -16 29 -27 55 -24 58 3 4 29 -2 58 -11 97 -33 193 -4 267 80 73 83 90 186
51 306 -39 122 -59 231 -59 334 0 105 12 168 49 250 l23 50 40 -45 c22 -25 53
-67 69 -95z m1010 -150 c18 -113 -1 -259 -44 -341 -18 -34 -74 -90 -82 -82 -3
3 8 29 25 58 48 82 59 114 70 223 8 72 8 129 1 192 -6 50 -10 95 -10 100 2 21
30 -83 40 -150z m-477 -159 c36 -111 42 -180 21 -252 -21 -74 -59 -134 -85
-134 -33 0 -32 18 6 102 35 78 38 89 38 183 1 55 -3 120 -7 145 -11 61 -3 49
27 -44z m-997 -355 c67 -56 158 -64 228 -21 16 10 44 40 60 66 l30 48 3 -42
c7 -95 -50 -191 -140 -236 -119 -59 -238 -11 -274 109 -14 51 -14 59 3 115
l17 60 18 -34 c10 -19 35 -48 55 -65z m1323 49 c-8 -6 -53 -22 -100 -36 -122
-37 -126 -38 -115 -26 6 5 46 21 90 35 112 36 152 44 125 27z m1519 -106 c-16
-65 -62 -163 -92 -196 -13 -14 -40 -34 -58 -44 -38 -20 -119 -35 -119 -23 0 5
31 31 69 59 70 51 152 148 187 222 23 49 28 42 13 -18z m-1434 -43 c17 -9 41
-38 55 -64 14 -26 29 -47 33 -47 4 0 24 11 45 25 24 16 38 21 43 14 5 -8 8 -8
13 0 10 16 60 14 102 -4 19 -8 63 -41 98 -74 100 -97 221 -140 299 -107 35 14
44 14 108 -1 38 -9 69 -19 69 -22 0 -3 -18 -19 -40 -35 -55 -41 -35 -57 22
-18 86 59 167 64 221 13 40 -36 56 -70 63 -135 4 -31 10 -56 14 -56 4 0 15 18
25 40 10 22 20 40 22 40 14 0 82 -42 102 -64 l24 -25 -84 -89 c-103 -108 -149
-189 -201 -352 -72 -223 -97 -282 -139 -330 l-40 -44 -102 -13 c-56 -7 -118
-12 -139 -13 l-36 0 31 58 c17 31 57 82 90 112 188 176 216 208 232 265 25 86
5 106 -62 65 -40 -24 -41 -20 -4 34 70 102 126 234 139 334 11 77 7 107 -15
134 -34 39 -117 27 -188 -28 -43 -32 -117 -150 -146 -230 -46 -126 -24 -294
43 -325 l30 -15 -38 -25 c-22 -14 -52 -34 -67 -44 l-28 -18 21 57 c33 88 17
90 -24 2 -24 -52 -50 -91 -75 -112 -21 -18 -65 -73 -99 -121 -107 -157 -201
-272 -227 -279 -29 -7 -53 0 -265 83 -190 75 -249 105 -342 180 -97 77 -165
162 -276 345 l-23 36 58 27 c32 14 69 36 82 48 35 32 61 96 60 147 l-1 45 -8
-35 c-10 -41 -33 -60 -75 -60 -101 0 -130 204 -43 297 29 31 36 29 44 -12 11
-58 21 -49 26 23 7 89 40 153 123 236 80 80 176 130 290 150 87 16 114 14 160
-13z m-1364 -277 c47 -35 116 -70 167 -83 23 -7 40 -16 37 -21 -3 -5 -29 -17
-58 -26 -39 -14 -46 -19 -29 -22 12 -2 47 8 78 22 86 40 47 4 -66 -59 -106
-59 -168 -113 -199 -172 -28 -53 -25 -20 4 52 29 70 28 65 15 65 -21 0 -60
-103 -60 -160 l-1 -55 -29 34 c-94 110 -72 302 45 410 24 23 48 41 53 41 4 0
24 -12 43 -26z m563 -144 c-65 -139 -24 -100 50 47 18 37 34 55 52 59 14 4 28
4 31 0 3 -3 -15 -55 -40 -115 -66 -156 -63 -219 15 -280 30 -24 96 -28 117 -8
11 10 11 8 2 -11 -15 -28 -76 -68 -118 -77 -53 -11 -108 11 -151 60 -53 60
-67 113 -58 222 10 124 29 159 101 197 27 14 30 14 33 1 2 -9 -13 -52 -34 -95z
m-128 43 c-4 -5 -26 -12 -49 -18 -59 -14 -80 -56 -73 -145 4 -61 33 -157 43
-146 3 2 -2 36 -11 75 -23 102 -21 141 10 174 34 37 61 33 54 -8 -14 -82 -3
-155 34 -229 33 -68 65 -104 138 -158 23 -18 22 -18 -29 -12 -64 8 -69 -1 -10
-17 51 -13 102 -50 122 -89 23 -44 20 -48 -29 -39 -65 12 -103 31 -173 83
-106 80 -152 156 -193 314 -18 73 -19 83 -5 128 21 70 28 77 82 85 70 9 97 10
89 2z m1872 -111 c3 -61 2 -62 -23 -62 -28 0 -29 7 -19 84 5 36 11 46 23 44
12 -2 17 -18 19 -66z m-2083 -159 c-4 -234 2 -269 52 -320 l34 -33 -26 0 c-64
0 -149 71 -186 155 -26 59 -36 172 -20 230 15 57 65 132 103 155 18 11 36 20
40 20 3 0 5 -93 3 -207z m4176 149 c36 -11 79 -27 96 -35 85 -44 146 -149 141
-242 l-3 -56 -39 51 c-54 71 -159 143 -259 177 -72 25 -96 28 -197 28 -134 -1
-179 -14 -460 -135 -91 -40 -172 -74 -180 -77 -8 -3 62 41 155 97 325 195 400
223 575 216 62 -3 132 -13 171 -24z m-2246 -102 c-10 -66 -66 -133 -95 -115
-20 12 -11 97 15 141 44 74 92 59 80 -26z m-2129 13 c-66 -100 -76 -229 -22
-297 27 -34 36 -7 10 32 -22 31 -25 46 -22 92 3 33 15 77 31 110 15 30 25 44
22 30 -34 -158 -28 -200 41 -303 21 -30 31 -54 27 -65 -4 -9 -31 -62 -61 -117
-31 -55 -79 -149 -108 -210 -96 -199 -93 -344 7 -487 25 -34 24 -38 -6 -38
-32 0 -264 -42 -418 -76 -64 -14 -128 -23 -141 -20 -17 4 -33 23 -52 61 -24
51 -26 63 -22 138 6 94 44 203 105 304 45 74 147 194 185 217 43 26 286 265
320 314 28 41 30 47 19 82 -25 85 -7 160 57 231 51 57 65 58 28 2z m2258 -15
c-14 -65 -59 -108 -47 -45 10 54 22 77 39 77 12 0 14 -6 8 -32z m2021 -15 c85
-21 168 -68 231 -132 71 -70 94 -116 94 -183 l-1 -53 -30 70 c-44 103 -53 117
-98 152 -79 62 -234 103 -384 103 -151 -1 -261 -31 -512 -142 -241 -107 -381
-126 -559 -74 -77 23 -66 31 15 11 167 -39 311 -11 582 114 103 48 278 118
328 131 111 31 218 32 334 3z m-2110 -121 c-10 -26 -20 -63 -21 -82 -1 -19 -2
-40 -3 -47 0 -7 -10 -17 -21 -23 -19 -10 -20 -9 -14 31 4 24 13 54 21 68 7 14
13 42 13 62 0 39 18 65 34 49 7 -7 4 -26 -9 -58z m2080 17 c148 -59 242 -139
295 -252 17 -34 30 -68 30 -74 0 -7 -30 9 -67 36 -247 179 -550 238 -903 175
-19 -4 -32 -4 -29 0 9 9 136 58 279 107 112 39 118 40 225 36 85 -4 123 -10
170 -28z m-3973 -66 c40 -60 85 -102 177 -172 80 -60 80 -79 -1 -37 -27 14
-64 26 -81 26 -44 0 -111 72 -132 141 -17 59 -21 152 -5 111 6 -13 24 -44 42
-69z m2762 7 c95 -47 170 -64 251 -57 48 5 55 4 35 -5 -14 -6 -73 -13 -131
-15 -81 -4 -119 -2 -165 12 -63 18 -154 63 -154 76 0 8 49 26 75 28 6 1 46
-17 89 -39z m-190 -39 c147 -112 293 -135 581 -91 314 47 368 52 495 47 150
-6 280 -37 402 -95 182 -86 294 -203 371 -390 30 -73 31 -84 31 -207 0 -125
-1 -133 -32 -205 -40 -92 -89 -160 -144 -200 -41 -30 -74 -42 -50 -18 27 27 9
29 -20 2 l-32 -29 28 38 c41 56 26 55 -31 -3 -50 -50 -83 -64 -83 -35 0 8 -14
57 -31 107 -23 69 -32 121 -38 203 -9 139 -22 168 -126 271 -60 60 -100 90
-156 117 -142 70 -153 71 -554 73 -301 1 -370 4 -420 18 -90 25 -115 37 -115
55 0 9 -17 25 -37 36 -29 15 -172 117 -212 151 -2 2 1 16 8 30 13 30 7 44 -11
26 -20 -20 -28 -14 -48 34 -38 88 -25 103 94 104 77 0 81 -1 130 -39z m-622
-113 c-17 -45 -79 -111 -213 -230 -59 -51 -84 -83 -110 -135 -28 -57 -40 -70
-69 -79 -19 -6 -36 -16 -38 -23 -5 -15 76 -14 231 4 115 13 143 13 265 0 75
-9 190 -18 255 -22 64 -3 117 -10 117 -14 0 -14 -64 -46 -125 -64 -43 -12 -94
-17 -180 -16 -66 0 -177 -6 -246 -15 -113 -13 -131 -13 -170 0 -51 18 -59 19
-59 8 0 -10 126 -71 225 -107 90 -34 129 -61 297 -208 l140 -122 -45 -3 c-68
-5 -143 29 -238 108 -77 65 -147 100 -196 100 -19 0 -91 37 -130 68 -26 19
-33 21 -33 9 0 -9 34 -42 76 -74 129 -98 177 -138 181 -149 2 -6 -28 -38 -67
-72 l-72 -60 -69 30 c-38 17 -69 34 -69 39 0 4 7 15 17 24 13 14 28 16 72 11
52 -6 54 -5 37 9 -23 17 -98 20 -127 4 -11 -5 -57 -44 -102 -85 -109 -100
-184 -148 -290 -186 -48 -17 -85 -33 -82 -36 3 -3 36 -5 73 -4 l67 1 34 -74
c18 -41 31 -80 28 -88 -3 -8 -22 -27 -41 -42 -32 -24 -41 -26 -83 -20 -93 13
-286 65 -303 80 -43 39 -113 332 -96 400 9 36 32 57 238 226 225 184 326 288
435 450 50 74 104 146 119 160 31 28 344 239 356 239 3 0 -1 -19 -10 -42z
m-2042 -87 c30 -11 67 -24 82 -29 l26 -11 -21 -78 c-17 -62 -21 -108 -21 -223
-1 -143 -1 -146 33 -223 22 -51 49 -94 80 -125 44 -45 123 -92 156 -92 21 0
19 -13 -5 -35 -10 -9 -24 -32 -30 -50 -11 -34 -58 -65 -97 -65 -10 0 -61 15
-113 34 -52 19 -128 45 -169 56 -81 23 -116 52 -152 122 -68 133 -63 304 13
470 40 86 146 268 156 268 4 0 32 -9 62 -19z m426 -13 c-57 -194 -39 -324 60
-444 l35 -43 -31 -61 c-17 -34 -37 -63 -44 -66 -8 -3 -29 1 -47 9 -87 36 -145
124 -174 262 -9 44 -18 81 -21 84 -2 2 -4 -27 -4 -66 0 -151 71 -292 173 -344
36 -19 38 -22 24 -42 -24 -36 -41 -41 -90 -27 -70 19 -121 69 -167 163 -29 58
-44 105 -52 162 -11 80 -10 101 29 333 6 35 53 82 83 82 9 0 34 -7 53 -15 51
-21 79 -19 118 9 45 32 63 33 55 4z m86 -13 c9 -19 8 -38 0 -76 -23 -98 -6
-245 34 -307 16 -25 10 -62 -10 -62 -20 0 -63 51 -85 101 -28 63 -41 166 -31
238 16 111 64 167 92 106z m2055 -44 c32 -21 74 -56 91 -77 92 -111 139 -305
116 -478 -4 -25 -10 -46 -13 -46 -4 0 -13 17 -20 38 -19 52 -54 96 -106 132
-66 45 -102 41 -205 -22 -103 -62 -202 -139 -224 -173 -19 -29 -14 -31 -96 39
-34 28 -34 28 -18 57 20 33 10 38 -17 9 -25 -27 -28 -26 -54 20 l-22 40 60 0
c49 0 61 -3 61 -16 0 -14 2 -14 22 0 15 11 45 16 90 16 87 0 161 16 219 47 53
28 91 85 72 104 -9 9 -82 18 -247 28 -9 1 -2 73 10 104 3 9 1 17 -5 17 -5 0
-15 -19 -21 -42 -23 -88 -14 -81 -93 -74 -39 4 -73 9 -75 11 -3 2 17 38 43 78
48 74 49 74 189 150 78 42 150 77 162 77 11 0 48 -17 81 -39z m-1979 -53 c34
-46 40 -62 45 -121 4 -37 15 -88 27 -114 11 -25 20 -50 20 -55 0 -12 -49 -1
-68 15 -37 31 -82 160 -82 237 0 43 8 90 16 90 2 0 21 -24 42 -52z m2269 -94
c56 -13 124 -15 398 -12 368 3 390 1 531 -67 134 -65 251 -221 262 -350 2 -30
2 -55 -1 -55 -4 0 -35 15 -69 34 -61 33 -149 63 -253 86 -31 7 -155 11 -333
11 -221 -1 -297 2 -349 14 -76 18 -179 69 -198 99 -7 12 -20 56 -29 100 -8 43
-24 96 -34 117 -23 46 -22 46 75 23z m-2152 -25 c46 -33 52 -42 66 -99 17 -71
-17 -105 -59 -59 -26 27 -73 189 -56 189 3 0 25 -14 49 -31z m430 -221 c91
-34 162 -65 157 -69 -4 -4 -54 -45 -110 -93 -121 -100 -136 -104 -247 -58 -85
35 -109 64 -108 130 1 82 54 151 116 152 15 0 101 -28 192 -62z m-367 3 c8 -1
12 -18 12 -51 0 -58 -18 -74 -50 -45 -15 13 -20 14 -20 5 0 -42 156 -147 269
-181 23 -7 41 -15 40 -18 0 -3 -27 -28 -60 -56 -32 -27 -68 -65 -80 -82 -28
-44 -34 -123 -16 -208 8 -38 12 -73 8 -77 -3 -4 -29 3 -57 16 -36 17 -54 32
-63 55 -12 28 -18 31 -58 31 -79 0 -138 38 -145 93 -3 27 -6 29 -61 32 -55 3
-147 43 -147 64 0 4 20 29 43 55 24 26 65 84 92 129 73 125 146 235 158 241 7
2 37 3 67 1 30 -2 61 -4 68 -4z m1815 -44 c65 -28 137 -132 150 -218 9 -59 -1
-63 -77 -35 -107 38 -148 89 -150 184 0 42 4 57 19 68 23 17 19 17 58 1z m307
-16 c97 -60 123 -65 395 -71 l250 -5 -172 -24 c-222 -31 -304 -27 -429 23 -92
38 -104 47 -104 84 0 28 3 28 60 -7z m-408 -66 c-7 -100 53 -177 153 -201 50
-12 100 -41 132 -78 60 -68 105 -243 84 -324 -19 -68 -41 -77 -201 -78 -110
-1 -146 -5 -194 -23 -80 -28 -130 -63 -163 -112 l-27 -41 -16 32 c-25 48 -30
25 -8 -38 16 -47 18 -63 9 -88 -15 -41 -14 -81 4 -140 13 -44 13 -60 -7 -179
-16 -100 -25 -134 -40 -147 -11 -10 -23 -18 -27 -18 -4 0 -15 48 -24 108 -9
59 -28 148 -42 197 -51 176 -95 244 -190 292 -27 14 -51 26 -52 27 -1 1 10 31
24 66 33 82 37 182 9 253 l-18 49 66 63 c36 35 66 72 66 82 0 11 -16 34 -35
53 -55 53 -41 56 25 4 63 -49 86 -92 74 -138 -9 -39 4 -92 32 -125 13 -16 23
-33 22 -38 -4 -16 13 -83 24 -89 8 -5 9 9 5 49 -6 49 -4 60 18 93 14 20 25 49
24 63 -1 25 -13 5 -53 -84 -7 -15 -35 25 -46 66 -6 20 -7 51 -4 69 8 36 8 36
109 -1 53 -19 67 -20 119 -11 32 6 61 13 64 16 15 16 -18 60 -98 130 -49 44
-90 83 -90 88 0 23 233 205 265 207 6 1 9 -21 7 -54z m-488 20 c19 -30 18 -30
-50 -8 -60 18 -62 33 -5 33 30 0 42 -6 55 -25z m-1602 -72 c38 -15 47 -27 28
-38 -19 -12 -99 46 -122 90 -8 15 -3 12 22 -9 18 -15 51 -34 72 -43z m2660
-33 c79 -15 192 -12 354 10 82 11 203 23 269 27 140 7 203 -6 281 -60 216
-148 233 -496 32 -643 -27 -20 -51 -35 -52 -33 -2 2 2 33 10 69 31 141 -30
296 -137 351 -78 39 -177 57 -474 84 -176 17 -236 28 -366 71 -73 24 -79 28
-113 81 -32 49 -46 100 -31 115 3 3 44 -10 91 -29 47 -19 109 -38 136 -43z
m-198 -153 c74 -169 79 -189 65 -274 -6 -40 -15 -73 -18 -73 -3 0 -6 44 -6 98
-1 89 -3 102 -32 157 -32 61 -60 97 -88 113 -15 8 -15 12 0 50 10 23 20 42 24
42 3 0 28 -51 55 -113z m312 -102 c59 -59 84 -120 84 -206 0 -59 -13 -109 -28
-109 -5 0 -16 17 -26 37 -32 67 -176 245 -221 273 -21 13 -40 38 -54 69 -11
28 -21 52 -21 54 0 3 48 -11 108 -31 94 -32 113 -42 158 -87z m-3215 31 c52
-13 136 -38 187 -56 90 -32 92 -33 92 -64 0 -18 5 -37 11 -43 8 -8 -14 -14
-76 -23 -114 -16 -249 -9 -295 15 l-35 18 25 9 c14 5 61 9 105 8 95 -2 108 -1
75 10 -65 21 -228 3 -237 -25 -4 -13 73 -52 130 -65 30 -7 93 -5 214 6 183 17
216 15 232 -15 9 -17 1 -23 -72 -58 -76 -37 -198 -120 -213 -145 -8 -13 -7
-12 88 49 68 44 204 113 223 113 5 0 29 -13 53 -29 l43 -28 -123 -49 c-178
-70 -385 -201 -483 -304 -46 -48 -40 -84 40 -234 37 -70 64 -130 61 -133 -18
-18 -200 65 -284 131 -65 51 -98 99 -117 173 -18 65 -14 98 21 222 28 98 30
159 7 227 -35 104 -116 183 -228 221 -27 9 -43 19 -35 21 8 2 87 18 175 36
202 42 290 44 416 12z m3369 -14 c69 -33 116 -165 99 -276 -10 -62 -29 -97
-87 -158 -39 -41 -45 -41 -67 2 -14 27 -13 32 7 72 18 33 23 60 23 113 0 83
-34 162 -99 233 l-41 45 65 -8 c36 -4 81 -14 100 -23z m183 -2 c155 -23 256
-122 274 -270 4 -38 1 -58 -17 -95 -37 -77 -131 -120 -194 -90 -32 15 -86 79
-86 101 0 6 14 29 31 52 32 44 27 58 -8 20 -89 -98 -71 -234 39 -287 59 -28
165 -29 222 -2 42 20 169 61 189 61 33 0 -55 -60 -169 -115 -103 -51 -141 -75
-172 -110 -22 -25 -42 -45 -46 -45 -10 0 -36 59 -36 84 0 33 -25 56 -61 56
-59 0 -108 29 -139 83 l-29 51 44 47 c120 129 136 278 45 423 l-30 46 38 0
c20 0 68 -5 105 -10z m-3130 -40 c25 -11 67 -22 93 -24 44 -4 48 -7 71 -49 30
-53 56 -67 126 -67 50 0 53 -2 71 -35 21 -38 49 -60 91 -71 20 -5 24 -11 19
-23 -17 -37 -15 -114 5 -199 12 -49 21 -100 21 -112 0 -19 -2 -21 -16 -9 -8 7
-27 35 -40 61 -15 30 -38 57 -60 70 -21 12 -36 30 -40 47 -3 14 -7 36 -10 49
-7 33 -91 91 -134 92 -41 0 -63 13 -142 86 -36 33 -76 58 -108 69 -77 26 -95
80 -37 115 39 24 35 24 90 0z m3373 -52 c53 -49 83 -111 100 -208 13 -75 9
-124 -14 -165 -16 -30 -64 -72 -95 -84 -38 -14 -129 -14 -164 1 -27 11 -27 11
25 19 92 12 169 81 198 176 28 91 0 176 -90 271 -57 62 -30 55 40 -10z m46 31
c79 -41 125 -113 135 -212 7 -77 -10 -164 -39 -194 -31 -33 -39 -28 -22 12 18
44 18 111 -1 199 -17 80 -50 141 -100 185 -41 36 -32 40 27 10z m-4418 -20
c57 -21 190 -125 180 -141 -3 -4 -24 -9 -47 -10 -40 -1 -40 -1 -7 -5 75 -8 79
-10 96 -70 19 -66 15 -108 -23 -246 -21 -78 -35 -108 -64 -140 l-36 -42 -8 45
c-23 137 -77 203 -195 241 -135 42 -170 84 -170 204 0 89 15 141 48 172 25 24
32 25 99 19 39 -3 96 -15 127 -27z m2374 -13 c38 -19 77 -34 87 -33 62 6 75
-274 16 -327 -17 -15 -25 -15 -100 6 l-83 22 -35 70 c-42 85 -78 126 -111 126
-13 0 -22 4 -20 8 3 8 170 162 176 162 1 0 33 -15 70 -34z m1328 -134 c51 -75
103 -157 116 -182 14 -25 40 -72 58 -105 18 -33 41 -71 52 -84 10 -13 17 -26
15 -28 -2 -2 -87 -7 -188 -11 -209 -10 -232 -17 -322 -100 -27 -26 -48 -42
-46 -37 2 6 26 52 52 104 83 160 137 361 137 506 0 112 15 104 126 -63z m1233
103 c77 -39 146 -160 157 -274 11 -107 -42 -267 -111 -334 -51 -49 -62 -47
-25 5 17 23 37 64 45 91 19 65 19 209 0 273 -21 72 -87 169 -140 206 -25 18
-45 35 -45 40 0 14 89 9 119 -7z m-39 -92 c18 -20 47 -67 64 -103 26 -56 31
-79 34 -165 3 -85 0 -109 -19 -159 -26 -71 -95 -144 -154 -165 -201 -69 -304
-172 -274 -275 21 -74 125 -130 178 -97 10 6 -3 14 -42 25 -93 27 -120 87 -75
167 24 44 43 53 28 13 -25 -64 5 -135 67 -160 30 -13 44 -14 80 -3 24 6 46 16
49 20 3 5 13 9 23 9 10 0 23 12 30 26 18 41 25 20 10 -33 -25 -92 -143 -182
-267 -205 -51 -10 -68 -8 -130 11 -91 27 -107 47 -116 143 -7 76 -34 146 -87
229 -68 107 -25 181 186 321 76 51 115 83 126 106 9 18 36 54 61 80 24 26 59
68 77 95 19 26 38 47 42 47 13 0 39 -99 39 -146 0 -23 -9 -71 -20 -107 -16
-53 -31 -76 -73 -117 -28 -29 -71 -65 -94 -81 -37 -26 -55 -49 -38 -49 13 0
86 52 136 98 64 58 102 123 125 211 20 79 12 144 -27 218 -16 30 -29 68 -29
84 0 29 0 29 29 15 15 -8 43 -32 61 -53z m-2756 -54 c14 -20 12 -26 -14 -73
-16 -28 -33 -52 -37 -53 -5 -2 -20 26 -35 62 -24 59 -25 66 -10 75 31 17 80
12 96 -11z m1352 -104 c-20 -52 -73 -174 -117 -271 -45 -96 -79 -177 -76 -180
8 -8 164 314 204 421 46 123 34 46 -16 -101 -58 -174 -182 -384 -226 -384 -38
0 -45 173 -11 285 19 61 70 124 130 159 54 31 111 97 127 143 6 19 13 32 16
29 3 -2 -11 -48 -31 -101z m-1947 -9 c1 -5 -8 -1 -19 9 -19 18 -20 17 -20 -1
0 -35 27 -60 107 -96 73 -34 110 -43 451 -115 l72 -15 0 -105 0 -104 -107 4
c-121 4 -222 25 -327 67 -98 39 -145 68 -150 94 -2 11 -16 77 -30 146 -28 131
-30 157 -19 186 5 14 10 10 24 -22 10 -21 18 -43 18 -48z m680 -37 c52 -99 53
-102 41 -143 -13 -46 -67 -136 -81 -136 -5 0 -9 27 -9 60 0 62 -13 80 -57 80
-10 0 -35 5 -56 11 l-38 10 33 40 c47 58 98 141 98 162 0 34 16 15 69 -84z
m-968 61 c63 -33 64 -40 30 -265 -17 -110 -33 -222 -37 -250 -3 -27 -10 -56
-13 -63 -5 -8 -35 23 -86 89 -44 56 -90 109 -104 118 -19 12 -50 16 -131 16
-82 0 -131 7 -227 30 -68 16 -123 32 -123 35 0 10 188 138 268 184 91 52 154
78 251 106 86 24 123 24 172 0z m2139 -35 c0 -2 -48 -36 -107 -76 -117 -77
-188 -140 -234 -206 -49 -70 -32 -72 31 -3 l59 65 -6 -37 c-7 -45 9 -111 42
-181 14 -28 25 -52 25 -53 0 -1 -22 -4 -48 -8 -27 -3 -57 -13 -68 -21 -10 -8
-22 -15 -26 -15 -21 -1 -128 104 -148 145 -20 42 -22 57 -17 136 4 50 13 102
21 117 28 54 94 100 181 128 37 12 295 20 295 9z m811 -95 c10 0 21 -4 24 -10
7 -11 -18 -13 -61 -4 -31 6 -56 33 -69 74 -7 21 -2 19 40 -18 26 -23 56 -42
66 -42z m-1749 -51 l140 -72 28 -61 c64 -143 145 -436 124 -455 -5 -4 -45 -27
-89 -51 -100 -53 -110 -62 -131 -116 -16 -43 -16 -134 1 -190 5 -17 -10 -32
-88 -92 -111 -84 -126 -109 -107 -177 l13 -45 -50 -53 c-63 -67 -68 -76 -141
-282 -33 -93 -64 -178 -68 -189 -6 -16 -14 -18 -58 -12 -129 15 -260 65 -281
107 -8 15 -30 103 -50 195 -19 92 -38 170 -41 173 -13 12 5 -215 20 -264 8
-27 14 -50 13 -51 -8 -8 -361 86 -375 100 -16 16 -45 136 -33 136 3 0 27 -7
53 -17 l47 -17 -21 -28 c-30 -43 -13 -47 24 -6 42 44 134 230 151 304 l13 56
29 -37 c17 -20 62 -55 100 -78 80 -47 216 -179 259 -251 15 -26 25 -50 22 -53
-9 -9 -70 6 -104 27 -24 15 -43 41 -68 95 -19 40 -34 78 -34 84 0 6 -4 11 -10
11 -13 0 -13 4 6 -61 23 -77 54 -128 89 -147 38 -19 122 -42 157 -42 l27 0
-31 48 c-110 164 -193 253 -278 297 -59 30 -61 33 -172 220 -158 267 -181 314
-181 359 0 57 89 399 119 458 24 47 37 57 48 39 3 -5 31 -26 61 -46 61 -40 60
-32 23 -133 -12 -32 -38 -71 -68 -102 -50 -51 -45 -69 8 -26 30 26 82 116 102
179 13 41 25 45 73 23 18 -8 49 -17 69 -21 l38 -6 -2 -132 c-1 -101 3 -146 16
-192 23 -79 56 -155 67 -155 12 0 12 1 -11 54 -43 97 -61 255 -39 356 l11 50
126 -6 c70 -3 133 -7 140 -10 7 -2 12 -20 12 -45 0 -34 -7 -49 -40 -86 -22
-25 -40 -52 -40 -59 0 -35 165 -176 243 -209 47 -20 64 -47 72 -118 6 -50 19
-77 30 -66 2 2 -4 41 -13 86 -17 82 -17 83 -67 115 -46 31 -51 38 -66 98 -15
56 -24 71 -68 110 l-52 46 17 32 c14 29 14 42 4 98 -14 73 -5 110 33 133 20
13 26 9 114 -85 51 -54 93 -95 93 -91 0 16 -44 72 -112 142 l-67 71 20 33 20
32 92 -7 c110 -8 109 7 -1 21 -74 10 -77 11 -74 35 5 52 13 90 18 90 3 0 69
-32 146 -71z m-2464 -3 c69 -79 92 -221 44 -269 l-22 -21 -42 21 c-24 11 -72
47 -108 80 -36 33 -82 71 -103 85 l-38 26 103 55 c57 31 110 56 119 57 10 0
30 -15 47 -34z m1376 18 c9 -8 32 -44 51 -79 l36 -64 -22 -42 c-56 -111 -112
-309 -124 -446 -7 -68 -9 -73 -29 -69 -148 31 -236 55 -236 67 0 5 39 29 88
55 48 27 92 55 99 63 6 9 17 45 23 81 6 36 22 128 36 205 48 269 46 262 78
229z m1853 -117 c-11 -53 -24 -97 -28 -97 -12 0 -16 73 -7 115 8 33 45 91 54
82 1 -1 -7 -46 -19 -100z m-3473 -31 c18 -7 69 -48 114 -90 130 -122 159 -123
249 -14 l57 70 19 -56 c19 -56 18 -56 -2 -82 -27 -34 -18 -44 12 -16 l23 22
16 -28 c9 -15 35 -83 58 -152 35 -105 41 -134 38 -185 -7 -96 7 -124 16 -32 4
42 11 77 15 77 11 0 323 -273 354 -310 20 -23 27 -40 23 -56 -8 -31 9 -73 47
-113 31 -33 31 -34 7 -27 -14 3 -88 20 -165 36 -197 42 -211 47 -257 88 -61
54 -81 108 -74 191 7 75 -4 107 -45 130 -22 12 -32 12 -85 -5 -77 -25 -193
-25 -255 -1 -119 46 -212 238 -226 465 -7 114 -5 116 61 88z m4339 -5 c10 -7
17 -22 17 -33 0 -24 32 -86 75 -146 40 -57 106 -188 140 -278 l25 -66 -19 -44
c-33 -74 -141 -222 -238 -327 -51 -55 -91 -103 -88 -105 2 -3 40 27 84 67 43
39 82 71 85 71 18 0 -141 -265 -235 -391 -69 -93 -130 -147 -239 -212 -111
-65 -222 -111 -305 -126 -104 -19 -109 -18 -206 66 -49 42 -89 81 -89 86 0 4
12 24 27 43 l26 35 54 -53 c29 -29 53 -47 53 -41 0 6 -7 16 -15 23 -27 22 -78
91 -72 96 10 11 122 -18 142 -36 30 -28 74 -42 109 -35 54 11 359 109 349 112
-6 2 -77 -12 -159 -31 -175 -41 -222 -50 -248 -48 -11 0 -38 19 -60 40 -23 22
-51 45 -63 51 -17 8 -73 91 -73 107 0 9 130 3 159 -7 45 -16 52 -2 8 16 -21 9
-67 15 -111 15 -73 0 -74 1 -95 33 l-20 32 77 5 c92 7 150 32 222 97 67 60 57
67 -13 10 -66 -54 -149 -87 -218 -87 -61 0 -97 18 -132 63 -23 30 -25 39 -17
68 12 41 5 51 -11 15 -15 -32 -16 -32 -54 -1 -27 22 -30 30 -29 82 1 83 26
147 89 233 l56 75 -58 -60 c-73 -76 -104 -138 -111 -221 -2 -35 -6 -64 -7 -64
-1 0 -33 11 -71 25 -38 14 -70 25 -70 25 -1 0 2 17 7 38 17 72 6 154 -25 197
-21 29 -32 10 -12 -19 12 -19 16 -49 16 -115 0 -49 -3 -92 -7 -94 -5 -3 -45
-2 -90 1 l-83 5 0 61 c0 73 24 131 69 169 18 14 104 63 192 108 131 67 173 94
234 151 41 38 87 73 102 77 16 5 135 -2 283 -15 324 -29 439 -31 470 -6 34 28
19 56 -46 88 -84 41 -179 44 -288 10 -47 -14 -88 -31 -92 -37 -4 -7 0 -9 12
-5 102 30 177 46 220 46 63 0 141 -24 180 -55 l29 -23 -43 -13 c-37 -11 -83
-9 -313 11 l-270 24 83 84 c114 115 146 132 261 142 149 13 421 8 440 -9z
m-3446 -26 c48 -14 120 -28 160 -32 40 -3 73 -8 73 -10 0 -4 -157 -188 -205
-241 -10 -11 -24 7 -73 96 -68 123 -87 178 -70 199 14 17 14 17 115 -12z
m3671 -12 c-20 -21 -46 -58 -58 -82 -16 -33 -24 -41 -31 -30 -16 26 -9 40 45
95 61 60 101 76 44 17z m-3276 -60 c21 -20 38 -46 38 -56 0 -17 -5 -18 -35
-13 -43 8 -46 -1 -4 -16 22 -7 29 -15 24 -27 -30 -78 -53 -258 -36 -289 14
-26 147 -71 233 -79 60 -6 75 -16 96 -65 l12 -28 -51 0 c-83 0 -245 38 -382
89 -70 27 -126 43 -124 37 5 -14 168 -78 283 -111 49 -14 133 -28 188 -33 l98
-7 39 -64 c22 -36 39 -70 39 -77 0 -23 -130 -66 -231 -75 -112 -11 -250 1
-299 25 -37 17 -258 207 -450 386 -96 89 -119 117 -139 164 -13 31 -21 60 -18
63 3 3 30 -9 60 -26 67 -38 179 -81 213 -81 44 0 77 26 174 137 177 203 201
216 272 146z m1962 -135 c33 -29 38 -38 32 -61 -5 -21 -23 -35 -77 -63 -39
-19 -73 -33 -75 -31 -2 2 3 51 11 108 8 57 15 108 15 112 0 10 39 -17 94 -65z
m-1834 -24 c27 -41 47 -81 44 -87 -4 -11 -36 -29 -165 -95 -3 -1 8 56 25 128
17 71 34 130 39 130 4 0 30 -34 57 -76z m1014 -96 c48 -39 96 -138 67 -138
-17 0 -141 122 -141 139 0 41 24 40 74 -1z m-2469 -65 c51 -98 162 -182 259
-198 45 -7 41 -14 -31 -50 -58 -29 -166 -55 -229 -55 -47 0 -132 23 -188 52
-44 23 -98 77 -89 91 3 5 -3 24 -13 42 -21 39 -20 40 23 49 29 7 34 4 74 -49
50 -67 62 -66 19 1 -19 30 -26 52 -21 57 16 16 155 97 166 97 6 0 19 -17 30
-37z m-348 -85 c5 -7 15 -33 22 -58 25 -86 145 -171 275 -193 119 -20 258 21
367 108 76 61 198 85 234 45 15 -16 16 -30 10 -94 -4 -45 -12 -80 -21 -87 -21
-17 -18 -105 7 -177 21 -63 35 -84 23 -35 -7 27 -6 26 24 -9 36 -41 41 -53 13
-39 -14 8 -22 7 -31 -4 -21 -26 -85 -19 -121 13 -26 23 -33 38 -37 80 -2 30 1
64 8 82 19 45 4 48 -38 8 -54 -52 -128 -96 -201 -118 -160 -50 -319 -2 -462
140 -99 98 -148 201 -149 313 0 35 1 37 34 37 18 0 38 -6 43 -12z m5902 -47
c11 -27 21 -53 21 -56 0 -3 9 -28 21 -55 23 -54 40 -63 134 -75 28 -4 64 -12
80 -19 l30 -13 -84 -82 -83 -82 6 -52 c16 -128 19 -217 6 -217 -7 0 -63 29
-125 65 -61 36 -119 65 -129 65 -9 0 -58 -16 -107 -35 -50 -19 -95 -35 -100
-35 -12 0 -5 33 28 136 29 93 27 114 -18 170 -32 40 -79 126 -79 144 0 6 42
10 114 10 l115 0 68 90 c37 49 71 89 74 90 4 0 16 -22 28 -49z m-877 -98 c20
-24 29 -53 21 -66 -4 -7 -8 -18 -8 -27 -1 -8 -5 -26 -9 -39 -6 -16 -5 -21 3
-17 16 10 14 -6 -5 -32 -8 -12 -19 -20 -24 -17 -4 3 -13 -2 -20 -10 -11 -13
-45 -27 -102 -39 -19 -4 -28 -2 -28 7 0 38 127 257 149 257 4 0 15 -8 23 -17z
m311 -75 c-8 -46 -43 -108 -73 -129 -28 -20 -39 -22 -134 -20 l-68 1 30 35
c29 33 52 89 52 128 0 15 11 17 100 17 l100 0 -7 -32z m-4344 -203 c48 -32
100 -50 191 -65 41 -6 80 -18 86 -26 10 -12 13 -12 24 1 7 8 27 15 45 15 l32
0 -8 -42 c-4 -24 -8 -51 -9 -60 0 -30 58 -84 122 -114 55 -24 75 -28 153 -27
58 0 106 6 134 17 43 16 46 16 63 -2 18 -18 16 -19 -79 -30 -54 -6 -136 -23
-182 -38 l-83 -27 -35 42 c-41 49 -135 118 -215 157 -59 29 -72 43 -40 45 9 1
-12 5 -48 9 -77 7 -164 54 -195 103 -43 66 -55 93 -55 123 0 50 12 48 38 -6
15 -32 38 -60 61 -75z m462 85 c10 -6 19 -19 19 -29 0 -29 123 -62 256 -68
124 -6 227 11 323 53 29 13 57 24 62 24 4 0 20 -21 35 -46 l27 -46 -17 -59
c-24 -87 -112 -259 -133 -259 -22 0 -253 127 -374 205 -109 71 -239 188 -239
216 0 21 12 24 41 9z m1989 -38 c36 -12 87 -35 112 -52 58 -38 141 -139 206
-250 53 -89 53 -90 13 -140 l-20 -25 6 41 c9 72 -48 105 -117 69 -83 -43 -18
-161 70 -128 36 14 34 9 -29 -65 l-45 -54 -22 44 c-12 24 -36 79 -53 123 -36
93 -95 173 -172 232 -90 69 -144 93 -208 93 -57 -1 -121 -11 -155 -25 -37 -16
-1 26 85 96 l84 69 90 -4 c54 -2 116 -12 155 -24z m-2718 -57 c-3 -25 4 -49
27 -89 l30 -54 -43 -26 c-24 -14 -64 -48 -90 -77 -52 -58 -61 -58 -119 -4 -42
38 -71 97 -62 124 3 10 27 24 59 34 53 17 161 82 186 112 17 20 17 20 12 -20z
m2590 -140 c69 -38 145 -111 179 -169 16 -28 29 -56 29 -61 0 -6 -32 -28 -70
-49 l-70 -38 -21 24 -20 23 4 -25 c3 -14 12 -52 21 -85 41 -151 -3 -505 -99
-784 -14 -41 -25 -81 -25 -89 0 -8 22 -38 49 -67 27 -28 58 -70 70 -94 20 -37
44 -131 36 -139 -6 -6 -250 220 -263 243 -9 19 -10 50 -2 135 9 112 6 144 -14
137 -12 -4 -19 -48 -30 -188 -6 -82 -6 -87 20 -125 15 -21 33 -59 41 -84 90
-293 102 -364 72 -423 l-15 -27 -41 97 c-23 54 -65 150 -92 213 -34 79 -64
175 -97 308 -41 172 -71 249 -88 232 -3 -3 1 -30 8 -60 7 -30 24 -102 36 -160
12 -57 25 -110 27 -117 3 -7 -7 -18 -21 -24 -24 -11 -30 -9 -62 22 -42 40 -80
117 -123 250 -32 97 -54 139 -66 128 -3 -4 1 -34 9 -67 24 -91 23 -100 -22
-192 -23 -47 -58 -139 -77 -205 -46 -153 -83 -232 -136 -290 -72 -78 -80 -76
-48 13 15 43 37 123 49 177 53 249 109 430 250 810 43 116 101 280 130 365 60
177 69 196 111 245 39 44 199 172 230 183 26 10 53 1 131 -43z m-1652 -65 l85
-49 -30 -11 c-18 -7 -62 -10 -106 -8 -60 4 -86 10 -123 32 -50 29 -59 46 -23
46 12 0 40 9 62 19 22 11 42 20 45 20 3 0 43 -22 90 -49z m-598 21 c164 -42
310 -148 388 -280 55 -94 91 -218 92 -312 0 -83 -8 -107 -58 -159 -80 -84
-103 -221 -50 -300 31 -47 73 -76 135 -92 38 -10 46 -17 64 -56 16 -38 19 -60
14 -126 -16 -250 -186 -416 -426 -416 -120 0 -198 26 -294 99 -96 71 -195 235
-218 356 -16 90 -18 92 -37 54 -23 -46 -61 -62 -159 -67 -151 -8 -264 45 -398
189 -113 121 -175 282 -177 454 -1 191 93 327 268 385 89 30 215 25 288 -11
54 -26 61 -34 76 -94 10 -43 35 -84 44 -74 3 3 -1 38 -10 79 -24 118 7 213 95
293 102 92 214 116 363 78z m2656 -146 c7 -14 12 -32 12 -40 0 -17 -27 -45
-45 -45 -21 0 -45 29 -45 55 0 52 58 74 78 30z m-1834 -51 c3 -9 6 -24 6 -33
0 -10 11 -38 23 -64 l24 -46 -46 -30 c-55 -36 -183 -163 -247 -246 -25 -33
-49 -63 -52 -67 -4 -4 -5 29 -4 72 5 89 -16 200 -54 294 -13 33 -23 60 -21 62
9 9 183 56 232 63 98 14 132 13 139 -5z m2988 -133 c49 -72 65 -81 156 -81 41
0 40 -10 -7 -88 l-38 -62 19 -81 c11 -45 18 -83 16 -85 -2 -2 -40 8 -83 21
-44 14 -83 25 -88 25 -4 0 -26 -17 -50 -39 -23 -21 -53 -44 -66 -50 -23 -13
-23 -12 -18 26 3 21 9 64 12 95 l6 57 -80 58 c-44 32 -81 61 -81 64 0 3 36 14
79 23 44 10 85 25 93 34 8 9 27 47 42 85 16 37 31 67 35 67 3 -1 27 -32 53
-69z m-1308 34 c8 -8 18 -25 21 -36 4 -12 16 -37 27 -56 l21 -34 28 27 c31 29
30 30 105 -32 108 -87 201 -112 334 -90 59 10 91 -3 233 -98 130 -87 289 -213
401 -319 89 -84 89 -85 47 -198 l-21 -56 -39 10 c-29 8 -53 7 -93 -2 -53 -13
-56 -13 -97 14 -50 33 -122 43 -186 25 -39 -11 -48 -10 -63 2 -72 63 -214 67
-277 8 -20 -19 -24 -19 -210 9 -105 16 -248 37 -318 46 -76 11 -131 23 -133
30 -3 7 6 53 20 102 41 145 58 268 60 415 0 76 4 138 8 138 3 0 38 -34 77 -76
82 -89 171 -220 266 -389 111 -199 141 -225 133 -116 -6 66 -52 189 -105 280
-41 70 -226 271 -238 259 -4 -4 32 -50 81 -101 92 -97 150 -183 202 -303 29
-66 56 -174 43 -174 -3 0 -39 62 -80 138 -131 242 -230 379 -353 491 -27 24
-48 50 -48 57 0 12 44 29 100 38 14 2 28 4 32 5 4 0 13 -6 22 -14z m-1472 -85
c40 -10 105 -24 143 -31 90 -15 97 -19 140 -84 l36 -54 -40 -83 c-21 -46 -47
-109 -57 -140 -10 -32 -21 -58 -25 -58 -3 0 -26 7 -49 15 -52 19 -103 18 -155
0 -39 -14 -41 -14 -70 14 -16 16 -40 34 -52 40 -31 16 -106 14 -152 -5 -39
-15 -40 -15 -80 14 -23 16 -57 33 -76 36 -33 6 -34 9 -23 29 16 30 244 263
292 298 46 34 71 36 168 9z m596 -215 c6 -5 -92 -309 -108 -334 -11 -20 -180
7 -180 28 0 81 58 315 82 331 9 7 197 -16 206 -25z m-283 -101 c-8 -38 -17
-100 -21 -137 -7 -69 -23 -92 -46 -69 -17 17 7 134 44 215 17 37 33 66 34 64
2 -2 -3 -35 -11 -73z m3295 60 c36 -8 106 -35 157 -59 147 -71 250 -181 303
-320 59 -157 -1 -405 -123 -512 -20 -18 -37 -34 -37 -37 0 -3 15 -2 33 0 27 5
37 0 64 -28 91 -95 140 -238 130 -384 -10 -172 -106 -281 -307 -350 -77 -26
-282 -27 -360 -1 -96 32 -240 108 -321 169 -243 183 -446 510 -465 750 -5 67
-2 84 39 214 57 180 59 182 107 190 53 9 84 43 77 86 -3 18 -7 42 -11 53 -8
29 88 106 201 162 156 76 362 103 513 67z m-4003 -149 c23 -14 43 -29 43 -32
0 -4 -12 -25 -27 -47 -25 -36 -28 -48 -28 -129 0 -84 -1 -89 -25 -102 -43 -23
-127 3 -187 58 -41 38 -43 42 -43 99 0 72 27 130 73 158 48 30 138 27 194 -5z
m223 -16 c47 -11 90 -43 90 -67 0 -8 -8 -29 -19 -46 -10 -17 -22 -41 -26 -53
-12 -41 9 -23 43 36 39 68 78 91 153 91 58 0 99 -18 123 -55 23 -36 62 -50
179 -65 54 -8 97 -18 97 -24 0 -6 -11 -45 -24 -86 -17 -54 -29 -76 -42 -78
-11 -1 -62 4 -114 11 -94 14 -94 14 -112 -8 -25 -32 -103 -50 -154 -36 -55 15
-99 44 -120 80 -22 37 -39 41 -30 6 8 -32 -16 -45 -86 -45 -59 0 -119 28 -150
70 -60 82 -12 230 87 265 48 17 49 17 105 4z m3040 -74 c17 -20 16 -64 -1 -80
-29 -27 -57 -27 -84 -1 -29 29 -32 58 -9 80 20 20 78 21 94 1z m-1487 -235
c134 -21 474 -70 489 -70 4 0 1 -15 -8 -32 -11 -20 -17 -56 -17 -92 l0 -58
-41 6 c-513 72 -554 80 -592 117 -32 31 -32 31 -17 68 9 20 19 46 24 59 10 27
9 27 162 2z m710 -31 c23 -6 51 -17 61 -24 18 -14 18 -16 -9 -76 -24 -55 -27
-71 -23 -136 5 -73 5 -75 -21 -85 -39 -15 -107 -4 -151 26 -120 80 -98 263 35
295 55 12 60 12 108 0z m-1694 -45 c6 -6 -69 -347 -79 -357 -10 -11 -20 121
-20 260 l0 114 48 -7 c26 -3 49 -8 51 -10z m1987 0 c57 -27 61 -38 28 -97 -25
-45 -29 -63 -29 -132 l0 -80 -43 -14 c-38 -12 -48 -11 -90 5 -91 34 -125 99
-103 198 15 68 34 94 85 117 51 23 107 24 152 3z m238 -34 c26 -9 26 -10 20
-97 -4 -53 -2 -110 5 -144 6 -30 9 -63 6 -71 -14 -35 -121 -29 -174 9 -36 26
-71 99 -71 146 0 101 124 192 214 157z"/>
<path d="M3140 6553 c0 -9 130 -35 138 -27 2 1 -6 7 -17 14 -29 15 -121 25
-121 13z"/>
<path d="M4160 6225 c0 -3 32 -21 70 -40 67 -34 89 -35 53 -3 -31 28 -123 60
-123 43z"/>
<path d="M2893 6545 c-83 -15 -170 -42 -179 -56 -3 -6 4 -8 18 -4 12 2 72 16
131 30 60 14 118 25 128 25 11 0 17 5 14 10 -8 12 -21 12 -112 -5z"/>
<path d="M2824 6151 c-62 -15 -124 -53 -172 -106 -122 -133 -140 -273 -60
-478 10 -26 12 -27 29 -11 18 16 19 16 19 -4 0 -28 8 -28 37 0 13 12 23 16 23
10 0 -6 -4 -14 -10 -17 -6 -4 -5 -12 2 -24 8 -13 8 -27 -1 -51 -6 -19 -8 -37
-4 -41 19 -16 143 -48 198 -50 51 -2 60 0 57 14 -1 9 4 29 12 45 8 15 25 71
38 123 45 183 26 497 -34 574 -15 20 -28 25 -61 24 -23 -1 -56 -4 -73 -8z
m104 -161 c8 -25 16 -106 19 -180 4 -131 4 -134 -12 -100 -9 19 -21 43 -26 52
-16 31 -10 81 13 105 l21 23 -21 0 c-17 0 -24 11 -37 58 -9 31 -19 65 -21 75
-5 15 -1 18 22 15 24 -2 30 -10 42 -48z m-164 -158 c25 -50 26 -106 2 -148
-11 -20 -26 -39 -32 -41 -6 -2 -26 8 -43 22 -28 24 -31 32 -31 84 0 61 17 97
54 111 26 10 33 6 50 -28z m133 -204 c-1 -7 8 -17 21 -23 22 -10 28 -25 15
-38 -12 -12 -12 -61 -1 -75 9 -10 4 -20 -20 -45 -27 -27 -32 -29 -32 -13 0 11
8 28 18 39 16 18 16 19 -8 16 -23 -4 -25 -1 -22 34 2 30 0 37 -10 31 -7 -4 -5
1 4 12 15 17 16 23 4 40 -7 10 -17 29 -21 42 -7 23 -7 23 24 8 17 -9 30 -22
28 -28z m-92 -33 c-1 -14 -10 -34 -20 -45 -10 -11 -14 -20 -9 -20 5 0 9 -20 9
-45 0 -25 -1 -45 -2 -45 -4 0 -43 83 -43 91 0 12 53 89 61 89 4 0 6 -11 4 -25z"/>
<path d="M3636 5530 c-23 -58 -21 -147 5 -189 26 -42 31 -37 17 19 -5 25 -8
82 -5 128 3 45 4 82 2 82 -2 0 -10 -18 -19 -40z"/>
<path d="M3285 5116 c-18 -13 -14 -16 49 -35 97 -30 100 -26 15 23 -40 23 -48
24 -64 12z"/>
<path d="M5880 5253 c0 -4 40 -30 87 -58 50 -28 116 -78 155 -116 116 -113
158 -237 158 -463 0 -43 5 -95 11 -115 9 -31 7 -48 -14 -111 -14 -41 -24 -77
-22 -78 11 -11 56 107 66 170 13 86 6 236 -16 323 -45 176 -162 321 -332 408
-51 26 -93 44 -93 40z"/>
<path d="M4330 4080 c-91 -24 -214 -84 -241 -118 -30 -38 -15 -38 38 1 69 50
141 84 230 108 43 12 80 23 82 25 10 9 -39 2 -109 -16z"/>
<path d="M3231 3654 c-24 -20 -31 -34 -31 -62 1 -85 89 -119 140 -55 24 30 25
54 6 92 -13 24 -52 51 -76 51 -5 0 -22 -12 -39 -26z m83 -26 c9 -12 16 -33 16
-45 0 -23 -32 -63 -50 -63 -38 0 -67 89 -38 118 19 19 55 14 72 -10z"/>
<path d="M2740 3381 c-12 -24 -14 -94 -1 -71 10 19 24 90 17 90 -3 0 -10 -9
-16 -19z"/>
<path d="M1536 2230 c-17 -10 -40 -36 -53 -57 -34 -56 -30 -109 14 -212 58
-134 48 -202 -33 -217 -64 -12 -95 2 -204 97 -125 108 -172 132 -255 133 -109
0 -165 -48 -185 -157 -28 -151 65 -317 202 -363 36 -12 71 -15 119 -12 77 6
127 32 189 99 67 71 155 61 203 -23 21 -36 26 -60 30 -148 6 -123 25 -189 76
-256 53 -70 109 -106 174 -112 131 -11 213 98 185 248 -16 88 -52 148 -139
231 -73 70 -79 78 -79 116 0 31 9 53 35 89 19 27 44 62 55 79 45 68 51 224 12
301 -68 133 -257 223 -346 164z m161 -50 c100 -50 100 -48 -32 -134 -64 -42
-121 -73 -127 -70 -17 11 -38 71 -38 109 0 69 49 124 111 125 14 0 53 -14 86
-30z m131 -122 c15 -19 42 -117 42 -154 0 -52 -28 -116 -70 -159 -46 -48 -60
-80 -60 -143 0 -60 30 -111 95 -160 26 -20 57 -49 68 -64 20 -26 20 -28 2 -75
-43 -113 -115 -253 -130 -253 -28 0 -101 78 -135 144 -29 58 -33 76 -39 183
-6 105 -10 123 -34 161 -35 54 -80 82 -134 82 -58 0 -84 -12 -156 -70 -34 -28
-78 -55 -99 -62 -33 -10 -108 -4 -108 8 0 15 64 82 129 137 117 98 117 98 164
81 53 -19 94 -17 144 6 62 28 85 70 77 142 -7 65 -14 56 136 152 96 61 94 60
108 44z m-749 -134 c41 -12 68 -30 124 -85 64 -62 70 -70 55 -82 -9 -7 -71
-62 -138 -122 -67 -61 -126 -112 -131 -114 -6 -1 -27 15 -49 37 -75 79 -102
220 -60 307 34 71 98 90 199 59z m877 -680 c10 -52 -1 -123 -23 -153 -23 -29
-89 -59 -102 -45 -9 10 95 234 109 234 5 0 12 -16 16 -36z"/>
<path d="M4992 1624 c-32 -22 -43 -55 -31 -98 18 -65 107 -88 154 -41 76 75
-35 201 -123 139z m99 -17 c9 -7 21 -22 28 -35 16 -30 -4 -73 -42 -86 -76 -27
-137 62 -81 119 18 18 73 19 95 2z"/>
<path d="M2687 2005 c-12 -42 -18 -48 -72 -73 l-59 -28 46 -32 c42 -29 47 -36
53 -82 7 -53 14 -60 36 -34 26 31 68 46 101 35 43 -15 51 -6 45 53 -5 43 -2
57 18 91 14 22 25 43 25 48 0 4 -20 7 -45 7 -35 0 -51 6 -78 30 -19 17 -40 30
-46 30 -6 0 -16 -20 -24 -45z m79 -20 c26 -14 53 -25 61 -25 11 0 11 -5 -2
-30 -8 -16 -15 -47 -15 -69 0 -38 -1 -39 -33 -38 -20 0 -46 -8 -65 -22 l-32
-22 0 32 c0 23 -9 40 -34 64 l-35 32 39 12 c34 10 41 17 50 51 6 22 13 40 15
40 2 0 25 -11 51 -25z"/>
<path d="M6082 1609 c-111 -19 -256 -99 -327 -181 -70 -82 -125 -232 -125
-343 0 -40 12 -75 58 -176 70 -149 101 -197 186 -282 181 -181 373 -270 541
-252 157 16 248 150 201 293 -24 71 -68 116 -170 170 -104 55 -125 82 -110
139 8 33 21 46 99 99 112 77 145 129 145 230 0 112 -57 196 -174 255 -99 52
-207 67 -324 48z m180 -50 c29 -6 86 -27 125 -46 87 -40 138 -99 149 -169 15
-100 -26 -175 -126 -234 -109 -64 -138 -121 -102 -202 21 -49 32 -59 132 -117
79 -47 126 -104 136 -166 21 -140 -73 -216 -250 -202 -130 10 -239 67 -380
198 -133 124 -224 271 -260 420 -14 62 -13 134 4 144 14 9 348 -456 419 -582
14 -27 25 -8 10 19 -32 61 -321 490 -367 545 -29 34 -52 67 -52 73 0 33 65
133 120 183 126 117 291 168 442 136z"/>
<path d="M2879 1503 c-18 -21 -18 -98 -1 -115 11 -11 13 -5 7 32 -4 25 -2 57
4 73 12 31 9 34 -10 10z"/>
<path d="M6640 4068 c-25 -9 -59 -17 -77 -17 -41 -1 -48 -14 -33 -61 11 -34
10 -42 -9 -73 -11 -18 -18 -37 -14 -40 3 -4 24 -7 46 -7 30 0 46 -6 63 -25 32
-34 42 -32 64 17 12 27 30 47 51 57 18 9 34 21 35 26 2 6 -14 22 -36 37 -32
22 -39 34 -42 65 l-3 39 -45 -18z m57 -98 l25 -20 -30 -25 c-16 -14 -33 -37
-37 -52 l-6 -26 -25 26 c-16 18 -35 27 -55 27 -27 0 -29 2 -18 21 6 12 9 39 6
60 -6 43 4 49 39 24 19 -13 23 -12 45 18 l24 32 3 -32 c2 -20 13 -40 29 -53z"/>
<path d="M6253 2338 l-43 -31 -49 26 c-27 15 -53 27 -57 27 -5 0 -8 -24 -6
-52 3 -60 2 -62 -55 -107 -24 -18 -43 -36 -43 -41 0 -4 21 -13 48 -20 77 -19
91 -28 109 -67 27 -57 47 -54 84 11 27 49 35 56 62 57 18 1 43 4 56 8 24 6 24
7 -18 55 -32 36 -41 54 -36 70 3 12 9 38 12 59 7 47 -6 48 -64 5z m32 -44
l-14 -46 35 -38 c37 -41 33 -50 -27 -50 -26 0 -33 -7 -56 -55 l-27 -55 -19 35
c-21 41 -70 75 -109 75 -16 0 -28 5 -28 10 0 6 4 10 8 10 4 0 24 15 44 33 34
31 36 36 31 77 l-6 44 46 -28 c50 -29 65 -27 101 13 30 33 36 25 21 -25z"/>
<path d="M922 906 c-36 -48 -45 -54 -88 -60 -26 -3 -59 -6 -75 -6 -47 0 -43
-20 14 -71 l56 -49 -6 -90 c-7 -101 -2 -107 53 -65 42 32 53 31 110 -5 26 -16
51 -27 57 -23 5 3 7 32 4 68 -2 35 -2 67 2 72 3 5 28 21 54 37 27 15 47 32 45
38 -2 5 -30 24 -62 41 -58 31 -60 33 -79 100 -11 37 -26 67 -32 67 -7 0 -31
-24 -53 -54z m68 -36 c12 -52 47 -89 98 -105 32 -9 27 -20 -20 -47 l-43 -24 2
-66 2 -67 -32 20 c-18 11 -41 26 -53 34 -18 14 -23 12 -55 -15 -18 -16 -38
-29 -42 -30 -4 0 -5 37 -2 83 l6 82 -46 35 c-25 19 -45 38 -45 42 0 5 28 8 61
8 59 0 63 1 100 42 22 24 39 46 39 50 0 5 4 8 9 8 5 0 14 -23 21 -50z"/>
<path d="M3382 917 c-6 -7 -14 -38 -18 -69 -4 -31 -9 -60 -13 -66 -3 -6 -32
-21 -63 -35 -32 -14 -58 -31 -58 -37 0 -5 29 -25 65 -42 36 -18 67 -39 69 -48
2 -8 10 -44 17 -78 6 -35 18 -66 24 -68 7 -3 34 18 61 46 l49 51 45 -10 c48
-11 110 -14 110 -6 0 3 -11 32 -25 65 -26 62 -31 118 -15 185 14 60 -3 73 -69
51 -27 -9 -56 -16 -63 -16 -7 0 -33 20 -59 46 -37 37 -48 42 -57 31z m64 -68
l42 -41 62 21 63 21 -7 -38 c-20 -112 -19 -127 9 -181 14 -29 25 -55 23 -56
-2 -2 -21 0 -43 5 -78 18 -97 14 -137 -32 -20 -24 -39 -40 -42 -37 -3 3 -12
34 -19 70 l-12 64 -58 30 c-31 17 -57 32 -57 36 0 3 22 13 49 23 55 20 56 21
66 99 4 32 10 57 13 57 4 0 25 -19 48 -41z"/>
<path d="M3916 603 c-29 -44 -50 -99 -76 -197 -11 -38 -25 -75 -32 -82 -7 -7
-69 -30 -138 -50 -155 -46 -164 -53 -125 -95 17 -17 73 -60 126 -94 53 -35
100 -68 103 -74 10 -16 26 -13 26 4 0 9 -51 49 -114 90 -115 76 -143 100 -129
108 9 5 205 62 244 71 30 7 37 21 73 146 33 116 56 170 71 170 21 0 80 -75
121 -153 20 -40 39 -74 41 -76 2 -3 66 -12 143 -22 77 -10 144 -20 150 -24 13
-8 -36 -78 -113 -161 l-58 -63 26 -46 c31 -52 51 -69 40 -34 -4 13 -13 34 -21
46 -13 21 -10 29 66 123 91 115 101 132 91 148 -9 15 -80 28 -198 37 -106 9
-98 3 -171 126 -29 48 -67 98 -87 113 l-34 27 -25 -38z"/>
<path d="M4697 633 c-4 -3 -7 -45 -7 -93 l0 -87 -60 -48 c-34 -26 -59 -52 -57
-59 2 -6 28 -17 58 -24 117 -27 111 -23 159 -102 25 -41 52 -75 60 -75 8 0 27
24 41 53 33 69 43 77 110 91 31 6 65 18 75 25 18 13 16 17 -35 70 l-53 57 7
52 c3 29 8 64 11 80 8 39 -18 45 -80 18 -79 -35 -79 -35 -146 8 -66 43 -72 45
-83 34z m86 -63 c30 -22 62 -40 70 -40 8 0 40 14 71 30 31 17 56 27 56 23 -1
-5 -5 -39 -10 -78 l-9 -70 51 -52 51 -51 -39 -11 c-22 -6 -48 -11 -59 -11 -34
0 -62 -27 -89 -85 -14 -30 -27 -55 -30 -55 -3 0 -19 26 -35 58 -33 66 -54 87
-96 96 -99 23 -107 27 -94 42 7 9 33 29 57 46 l45 31 -7 83 c-4 48 -3 84 2 84
5 0 34 -18 65 -40z"/>
<path d="M4455 195 c-59 -58 -12 -165 73 -165 23 0 45 6 52 15 14 17 3 19 -33
6 -54 -21 -119 47 -98 102 15 39 37 50 87 43 41 -5 45 -4 34 9 -20 25 -87 19
-115 -10z"/>
</g>
</svg>
