<?xml version="1.0" standalone="no"?>
<!DOCTYPE svg PUBLIC "-//W3C//DTD SVG 20010904//EN"
 "http://www.w3.org/TR/2001/REC-SVG-20010904/DTD/svg10.dtd">
<svg version="1.0" xmlns="http://www.w3.org/2000/svg"
 width="850.000000pt" height="850.000000pt" viewBox="0 0 850.000000 850.000000"
 preserveAspectRatio="xMidYMid meet">
<metadata>
Created by potrace 1.14, written by Peter Selinger 2001-2017
</metadata>
<g transform="translate(0.000000,850.000000) scale(0.100000,-0.100000)"
fill="#000000" stroke="none">
<path d="M4578 8483 c-28 -32 -48 -82 -51 -123 -1 -22 -3 -40 -5 -40 -2 0 -15
14 -29 30 -32 38 -43 38 -43 -1 l0 -30 -29 20 c-38 27 -81 44 -81 31 0 -6 16
-42 35 -80 19 -38 35 -72 35 -75 0 -17 -64 42 -77 71 -9 18 -21 30 -26 27 -9
-6 -4 -74 9 -107 6 -16 3 -17 -24 -12 -17 4 -50 2 -74 -5 -23 -6 -113 -13
-198 -14 -122 -1 -173 -6 -240 -23 -47 -12 -104 -22 -127 -22 -23 0 -65 -5
-94 -11 -64 -14 -69 -8 -69 87 0 85 31 156 91 207 46 40 49 50 12 41 -95 -22
-212 -119 -232 -190 -14 -48 -14 -154 -1 -188 9 -23 5 -27 -53 -62 -34 -20
-73 -47 -86 -58 l-24 -21 7 30 c4 17 18 44 32 62 31 40 30 45 -3 37 -34 -9
-69 -29 -106 -63 l-29 -26 6 25 c3 14 8 43 11 65 l7 40 -26 -24 c-14 -14 -34
-42 -43 -62 l-16 -38 -41 33 c-47 38 -85 60 -93 53 -2 -3 5 -23 16 -46 12 -22
21 -42 21 -45 0 -3 -17 2 -37 11 -48 20 -145 44 -153 37 -3 -3 15 -23 40 -45
34 -30 39 -37 20 -31 -84 29 -96 23 -59 -30 l22 -30 -22 6 c-11 3 -30 9 -41
12 -23 6 -26 -6 -7 -25 8 -9 0 -8 -27 3 -22 9 -41 14 -43 12 -7 -7 23 -60 46
-80 12 -11 21 -22 21 -26 0 -4 -22 -10 -50 -14 -33 -4 -48 -11 -45 -19 3 -7
-14 -23 -37 -36 -126 -70 -202 -156 -274 -306 -54 -112 -91 -262 -105 -422
-15 -164 -5 -185 30 -63 27 96 65 190 76 190 9 0 -6 -52 -22 -77 -22 -34 -34
-124 -38 -292 -5 -172 1 -197 58 -231 55 -34 64 -28 59 40 -2 32 -1 72 3 87 6
24 10 15 31 -63 25 -97 67 -212 110 -297 47 -94 154 -230 169 -215 3 2 -13 47
-35 99 -39 90 -106 316 -97 325 2 2 28 -44 58 -103 30 -59 70 -128 90 -153 85
-104 130 -139 96 -73 -26 50 -77 203 -67 203 5 0 21 5 35 10 l27 10 -26 21
c-61 48 -85 164 -66 330 10 89 50 283 62 294 1 2 3 -81 3 -183 0 -202 13 -268
72 -387 46 -91 157 -228 128 -157 -36 87 -66 183 -79 248 -20 106 -28 197 -18
190 5 -3 12 -33 16 -68 12 -120 89 -366 167 -536 22 -46 39 -88 39 -94 0 -5
-19 4 -42 21 -23 17 -50 31 -61 31 -28 0 -101 -56 -137 -106 -24 -35 -37 -44
-60 -44 -23 0 -35 -9 -60 -45 -17 -25 -36 -43 -41 -39 -6 3 -30 -15 -54 -40
-24 -26 -51 -46 -63 -46 -22 0 -73 -75 -113 -165 -20 -46 -21 -58 -15 -314 4
-146 11 -286 17 -311 6 -28 28 -70 57 -107 419 -549 734 -944 827 -1039 38
-39 110 -97 158 -129 82 -53 88 -59 82 -84 -19 -69 -22 -91 -15 -91 5 0 11 4
15 10 3 5 19 19 36 31 28 20 30 20 21 3 -29 -53 -121 -114 -172 -114 -11 0
-20 -4 -20 -9 0 -11 25 -21 51 -21 42 0 15 -19 -51 -36 -38 -10 -70 -22 -70
-25 0 -4 14 -10 30 -14 34 -8 38 -20 11 -34 -24 -13 -64 -95 -58 -118 4 -13
-9 -30 -43 -58 -27 -22 -49 -44 -49 -48 -1 -4 16 -5 37 -2 l37 5 -35 -17 c-21
-10 -58 -17 -92 -17 -54 0 -57 -2 -52 -22 5 -19 0 -22 -61 -28 -63 -6 -116
-26 -157 -59 -30 -24 -20 -30 40 -23 l57 7 -50 -25 c-28 -14 -73 -49 -100 -77
-47 -48 -48 -51 -22 -47 38 7 34 0 -10 -19 -21 -8 -54 -28 -74 -44 l-37 -29
-25 20 c-14 11 -28 20 -31 20 -14 0 -4 -50 15 -74 l20 -26 -33 6 c-18 4 -48
15 -67 26 -18 10 -35 17 -38 14 -7 -7 27 -79 48 -102 l20 -21 -61 -23 c-79
-30 -140 -71 -164 -110 l-18 -32 66 4 c36 1 66 1 66 -2 0 -3 -53 -23 -117 -45
-123 -43 -153 -65 -87 -65 30 0 35 -3 26 -12 -9 -9 -44 -13 -102 -13 -50 0
-90 -4 -90 -9 0 -4 16 -24 35 -43 20 -20 34 -36 33 -37 -2 -1 -35 -12 -75 -24
-42 -14 -94 -40 -128 -65 l-58 -42 38 -3 38 -3 -49 -29 c-27 -15 -58 -38 -69
-50 l-20 -22 50 7 c28 3 61 8 75 11 31 7 28 3 -47 -45 -61 -39 -105 -87 -118
-128 -5 -19 -3 -23 17 -23 18 0 9 -9 -37 -39 -66 -42 -96 -71 -119 -116 -19
-37 -15 -41 21 -20 27 17 27 17 -2 -6 -46 -35 -115 -110 -115 -125 0 -11 11
-9 50 6 73 29 61 14 -17 -21 -44 -21 -84 -31 -120 -32 -82 -2 -70 -19 32 -48
l60 -17 -30 -12 c-44 -18 -119 -24 -144 -11 -13 7 -21 8 -21 2 0 -18 59 -78
90 -91 16 -7 30 -15 29 -19 0 -3 -28 -24 -62 -46 -60 -39 -106 -89 -95 -101 4
-3 27 -2 52 4 25 5 46 8 46 7 0 -2 -28 -23 -63 -48 -100 -72 -185 -172 -163
-194 3 -3 24 6 46 21 46 30 47 29 20 -16 -27 -44 -27 -71 0 -63 17 5 15 -2
-16 -57 -19 -35 -49 -77 -65 -94 -35 -37 -29 -47 16 -28 47 19 47 19 20 -28
-14 -24 -25 -51 -25 -61 0 -16 2 -17 31 -1 35 18 34 14 -18 -54 -37 -48 -42
-68 -16 -57 11 3 5 -7 -14 -27 -30 -31 -63 -93 -63 -119 0 -8 11 -9 31 -5 17
3 29 2 27 -2 -32 -61 -49 -109 -55 -149 l-6 -48 46 38 c52 42 54 40 32 -24
-16 -44 -13 -75 6 -64 5 4 26 39 45 78 19 40 39 76 44 81 29 29 -22 36 -71 10
-17 -8 -33 -13 -36 -10 -7 7 51 97 77 121 34 30 24 38 -37 30 l-58 -7 20 22
c10 11 50 44 87 72 90 66 89 80 -6 51 -24 -7 -17 6 51 83 29 34 53 66 53 73 0
7 -21 1 -51 -15 -28 -14 -53 -23 -56 -21 -8 8 58 77 106 110 56 39 38 47 -40
18 -29 -11 -55 -19 -57 -17 -7 8 51 92 96 138 25 26 43 50 39 54 -3 4 -25 -1
-48 -10 -23 -9 -44 -15 -46 -12 -2 2 25 26 61 54 36 27 63 52 60 54 -7 7 -90
-9 -115 -23 -11 -6 -22 -9 -25 -7 -4 4 131 106 204 153 60 39 54 48 -25 41
-62 -6 -66 -5 -49 9 11 8 59 35 107 60 49 25 91 50 94 55 4 6 -21 9 -63 8
-113 -2 -117 13 -15 51 93 35 153 67 153 81 0 5 -33 7 -72 4 l-73 -5 80 43
c130 71 189 113 179 129 -2 4 -28 1 -57 -8 -100 -30 -107 -32 -103 -24 3 4 53
39 110 77 58 38 106 72 106 77 0 10 -38 9 -78 -2 -96 -28 56 62 161 95 31 10
57 21 57 26 0 4 -39 8 -87 8 l-88 1 47 43 c26 24 93 67 148 95 55 29 100 55
100 58 0 3 -42 3 -92 -1 l-93 -6 100 35 c141 49 134 45 105 57 -14 5 -52 7
-85 4 l-60 -5 48 23 c26 13 94 34 152 46 58 13 105 27 105 31 0 4 -24 10 -52
14 -75 10 -92 22 -43 30 57 9 166 44 193 61 32 21 28 38 -7 31 -64 -13 -36 9
51 40 139 50 146 53 126 64 -9 5 -50 12 -92 16 -41 3 -73 10 -70 15 10 16 99
56 187 82 48 15 85 31 83 35 -3 5 -24 11 -47 14 -23 3 -48 12 -56 19 -11 12
-4 13 49 10 35 -2 76 2 93 8 32 13 33 12 -30 36 -15 5 -5 9 35 14 56 7 113 30
126 51 5 9 -7 10 -45 5 -35 -5 -51 -3 -46 3 9 16 132 51 176 51 72 0 37 35
-46 47 -38 5 -43 8 -33 20 23 28 94 57 176 72 46 9 84 21 85 26 1 6 -32 15
-73 20 -103 15 -53 25 86 17 113 -5 138 7 56 28 l-47 12 75 27 c86 30 182 82
188 101 4 10 -8 11 -54 6 l-59 -6 44 37 c25 21 56 48 70 60 35 29 23 36 -29
18 -55 -20 -63 -19 -50 4 5 11 38 37 72 57 54 33 59 39 40 44 -19 4 -14 9 32
33 30 16 63 38 73 49 18 21 18 21 -20 14 l-39 -7 44 43 c43 43 138 162 138
173 0 3 -31 -11 -70 -30 -38 -19 -70 -31 -70 -26 0 6 31 56 70 113 67 99 86
146 32 80 -15 -18 -29 -32 -33 -32 -3 0 9 30 27 67 33 70 50 133 35 133 -4 0
-14 -12 -22 -27 -13 -27 -14 -26 -17 40 -2 41 3 90 12 120 8 28 13 54 10 57
-3 3 -19 -11 -36 -30 l-30 -35 5 53 c3 40 1 52 -9 48 -8 -3 -3 15 12 47 14 31
24 70 24 97 l-1 45 -13 -30 c-15 -34 -83 -101 -73 -72 12 34 29 148 23 154 -3
4 -13 -2 -22 -13 -14 -18 -15 -17 -11 21 2 22 1 49 -3 60 -6 17 -12 12 -36
-35 l-29 -55 -5 75 -5 75 -21 -28 c-12 -15 -25 -27 -28 -27 -16 0 -3 90 19
139 14 30 23 56 20 59 -3 3 -22 -10 -41 -29 l-37 -34 7 75 c5 72 5 74 -12 54
-9 -11 -24 -30 -32 -43 -14 -20 -15 -13 -13 85 1 59 0 111 -4 117 -3 5 -21
-14 -39 -44 l-34 -53 0 39 c0 22 7 69 15 104 9 35 13 66 10 69 -9 9 -34 -19
-65 -72 -28 -49 -30 -50 -30 -21 0 17 11 54 25 84 14 30 23 56 21 58 -2 3 -16
-3 -30 -12 l-26 -17 20 43 c24 54 27 104 5 96 -12 -5 -11 3 5 43 22 56 12 65
-20 19 -36 -50 -35 -25 3 51 19 38 33 70 30 70 -11 0 -51 -25 -75 -48 -53 -49
-24 12 35 75 33 35 32 52 -3 33 -38 -20 -33 -3 10 31 40 32 41 36 38 81 -3 49
5 65 15 28 8 -32 27 -23 27 13 1 29 2 30 14 15 17 -23 26 -23 26 1 0 52 10 52
78 -3 114 -91 236 -165 250 -151 3 3 -23 36 -59 73 -36 37 -86 92 -112 124
l-47 56 24 51 23 51 112 -86 113 -86 -33 -34 c-18 -19 -35 -34 -37 -34 -3 0
-2 24 1 53 6 47 5 50 -8 33 -8 -11 -15 -37 -15 -57 0 -66 19 -87 46 -51 12 15
13 8 14 -48 1 -68 17 -131 36 -137 6 -2 23 15 39 37 15 22 29 39 31 37 2 -2
-3 -27 -11 -57 -18 -66 -19 -116 -4 -159 13 -37 15 -38 39 -9 16 20 16 15 -3
-69 -16 -71 -18 -97 -10 -115 11 -23 11 -23 23 10 18 48 22 34 9 -32 -14 -69
-3 -91 32 -60 l21 19 -5 -30 c-7 -34 -10 -81 -8 -139 1 -32 3 -37 15 -26 13
10 15 7 13 -17 -2 -26 1 -28 36 -31 20 -2 37 -7 37 -11 0 -5 -19 -21 -42 -37
l-41 -29 51 -15 c64 -20 70 -26 35 -35 l-28 -7 40 -17 c22 -9 56 -25 75 -35
l35 -20 -25 -7 c-14 -4 -37 -7 -52 -8 -16 -1 -28 -5 -28 -9 0 -5 30 -33 68
-63 64 -51 66 -54 40 -57 -37 -4 -35 -16 7 -42 33 -20 75 -65 75 -79 0 -4 -18
-5 -40 -3 -22 2 -40 1 -40 -2 0 -3 32 -27 70 -52 39 -26 70 -49 70 -52 0 -2
-18 -2 -41 2 l-41 7 21 -30 c12 -16 37 -39 56 -51 43 -27 44 -31 3 -19 -52 14
-52 12 -6 -43 61 -74 101 -129 96 -133 -2 -3 -21 1 -41 7 -46 14 -57 5 -29
-25 19 -20 42 -67 42 -87 0 -4 -20 -2 -45 6 -25 7 -45 11 -45 7 0 -3 14 -23
31 -45 48 -60 97 -189 72 -188 -5 0 -17 7 -27 15 -11 8 -29 15 -40 15 -19 0
-19 0 2 -22 22 -25 72 -125 72 -147 0 -9 -11 -5 -34 13 -19 14 -37 22 -40 18
-2 -4 6 -37 18 -73 13 -35 27 -73 31 -84 4 -11 -11 -1 -36 25 l-42 45 7 -40
c4 -22 18 -67 31 -99 l24 -59 -37 36 -37 37 3 -74 c3 -50 -1 -93 -13 -132
l-17 -59 -20 53 c-11 28 -24 52 -29 52 -5 0 -9 -1 -9 -2 -16 -113 -57 -254
-59 -201 -1 30 -22 74 -32 67 -5 -3 -9 -17 -9 -31 0 -38 -39 -178 -56 -200
-12 -17 -13 -16 -14 7 0 14 -4 32 -10 40 -10 16 -12 12 -24 -40 -3 -14 -21
-50 -40 -80 l-35 -55 -1 37 c0 55 -16 54 -34 -3 -22 -67 -65 -155 -82 -170
-12 -10 -14 -3 -14 42 0 74 -14 95 -33 49 -66 -160 -80 -191 -83 -187 -3 2 0
17 6 32 14 38 5 43 -26 14 -43 -39 -82 -108 -95 -166 -13 -56 -29 -55 -29 3 0
16 -7 39 -15 50 -13 17 -14 15 -15 -36 0 -39 -8 -70 -27 -109 l-28 -54 -7 48
c-11 78 -22 73 -57 -23 -20 -56 -45 -104 -66 -128 l-34 -39 -1 38 c0 20 -2 37
-5 37 -13 0 -68 -71 -94 -122 l-29 -58 -7 42 c-7 39 -8 41 -22 22 -11 -15 -14
-39 -10 -107 l5 -89 -37 36 c-20 20 -40 36 -43 36 -11 0 13 -74 33 -102 33
-46 21 -51 -36 -12 l-38 25 6 -68 c3 -38 1 -76 -4 -84 -6 -10 -9 -8 -9 11 0
29 -27 73 -39 65 -5 -2 -23 -52 -42 -111 -32 -104 -46 -116 -48 -41 -1 15 -5
27 -10 27 -13 0 -31 -77 -40 -170 -8 -87 -14 -84 -26 13 -4 27 -9 47 -12 44
-9 -9 -42 -152 -49 -210 -6 -53 -8 -56 -21 -37 -8 11 -20 37 -27 57 l-13 38
-14 -40 c-8 -23 -14 -78 -14 -127 0 -49 -2 -88 -5 -88 -2 0 -21 17 -42 37 -33
32 -38 34 -38 17 0 -27 29 -126 41 -138 32 -34 -15 -34 -63 -1 -20 14 -39 25
-42 25 -4 0 13 -81 30 -145 4 -15 -2 -11 -23 13 -15 18 -32 32 -37 32 -4 0 -5
-20 -2 -45 4 -24 4 -60 0 -80 l-7 -36 -38 57 c-40 61 -43 61 -53 -14 -4 -24
-14 -60 -22 -80 l-16 -37 -10 28 c-17 47 -28 30 -29 -45 l0 -73 -27 55 -27 55
-5 -100 -5 -100 -19 43 c-18 40 -36 55 -36 30 0 -6 5 -40 11 -74 7 -41 8 -73
1 -91 l-9 -28 -7 32 c-4 17 -13 37 -21 43 -14 12 -17 7 -30 -60 -10 -51 -19
-59 -25 -25 -3 17 -9 30 -15 30 -14 0 -44 -109 -47 -170 -3 -59 -14 -63 -24
-10 -13 70 -25 47 -22 -42 l3 -88 35 0 35 0 5 55 c3 38 17 78 45 130 l39 75 6
-40 6 -40 22 35 c12 19 27 50 33 67 6 18 16 33 24 33 7 0 16 17 20 37 4 20 18
50 31 66 14 17 28 43 31 59 4 22 10 27 24 23 15 -5 19 -1 19 15 0 27 31 153
40 163 8 9 40 -63 40 -88 0 -8 4 -15 10 -15 16 0 40 55 48 112 l7 52 22 -34
c19 -30 23 -32 29 -16 4 9 4 49 1 87 l-6 69 54 -6 c29 -4 66 -3 81 0 l27 7
-34 23 c-31 21 -79 86 -64 86 3 0 23 -9 45 -20 22 -11 49 -20 60 -20 20 0 20
1 -4 33 -29 38 -47 108 -39 149 l6 29 26 -24 c24 -23 63 -47 75 -47 3 0 0 13
-5 29 -6 16 -9 55 -7 87 3 57 4 58 16 30 16 -36 51 -86 61 -86 4 0 5 38 3 84
-2 47 -1 105 2 131 l7 46 19 -23 c10 -13 20 -21 22 -18 2 3 17 52 34 110 l29
105 3 -57 c2 -32 7 -58 12 -58 18 0 61 89 67 139 3 28 11 51 17 51 6 0 38 -5
71 -10 69 -11 93 0 48 23 -16 9 -35 23 -42 31 -12 14 -8 15 35 10 l49 -7 -27
29 c-15 16 -29 43 -33 59 -6 27 -5 28 8 12 13 -16 15 -14 21 25 8 55 35 136
47 143 5 4 5 -5 -1 -20 -6 -15 -10 -31 -10 -36 0 -19 62 26 106 75 34 39 42
44 37 25 -9 -38 89 62 123 125 15 28 28 53 30 55 1 1 19 -9 39 -24 19 -15 38
-26 40 -23 2 2 0 21 -6 41 -8 29 -6 51 7 97 21 74 34 85 34 28 0 -46 17 -89
38 -96 8 -2 12 11 12 46 0 46 48 191 72 217 10 11 -15 -63 -32 -94 -30 -57 59
14 117 93 25 33 49 60 52 59 4 -1 25 25 47 57 42 64 42 64 63 51 17 -11 22 4
-194 -576 -54 -143 -139 -376 -190 -517 l-92 -257 -275 -503 c-459 -839 -423
-768 -394 -768 14 0 42 49 276 480 64 118 186 340 269 493 106 193 165 312
192 390 22 62 48 135 59 162 10 28 37 102 60 165 23 63 85 230 137 370 52 140
115 310 139 378 58 163 58 163 94 156 23 -5 39 1 72 25 57 42 70 41 62 -7 -7
-46 6 -60 67 -68 45 -6 89 7 134 41 19 13 23 13 43 0 19 -14 20 -19 10 -41
-11 -24 -9 -29 20 -55 39 -35 79 -37 116 -8 29 23 69 22 74 -2 6 -31 -346
-715 -557 -1084 -107 -186 -154 -275 -229 -435 -42 -90 -144 -270 -471 -830
-63 -109 -71 -130 -47 -130 8 0 61 81 119 182 58 101 156 271 218 378 61 107
181 329 265 493 84 164 161 310 172 325 48 70 171 297 331 612 216 424 193
385 219 371 31 -17 114 -14 141 5 38 27 44 5 22 -76 -12 -41 -18 -76 -15 -79
3 -3 24 14 45 38 21 24 39 41 39 39 0 -3 -9 -50 -20 -105 -14 -67 -18 -107
-12 -124 9 -23 10 -23 31 16 l21 40 -2 -122 c-3 -109 -5 -125 -26 -153 -29
-38 -21 -50 17 -27 16 9 32 17 35 17 3 0 6 -37 6 -82 0 -83 14 -158 29 -158 5
0 15 16 22 36 13 35 14 32 15 -72 1 -60 6 -120 11 -134 10 -24 11 -23 41 35
36 70 37 68 16 -50 -17 -100 -37 -151 -66 -166 -10 -5 -16 -14 -13 -19 5 -8
36 -2 76 14 14 6 15 1 6 -41 -10 -49 -3 -123 12 -123 4 0 13 17 19 39 7 21 18
44 25 50 11 8 13 -9 13 -97 -1 -77 3 -117 15 -142 l16 -35 20 45 21 45 -5 -81
c-6 -81 2 -154 15 -154 4 1 23 21 42 46 l35 44 6 -92 c6 -100 28 -186 57 -231
l19 -28 6 38 c4 21 7 55 7 75 0 52 16 56 23 5 9 -60 46 -177 57 -177 5 0 18
12 27 27 18 27 18 25 23 -117 l5 -145 50 62 c46 57 50 61 53 38 3 -25 -20
-165 -34 -199 -6 -16 -5 -17 16 -6 13 7 43 31 67 53 l45 41 -7 -81 c-5 -58 -4
-82 4 -88 7 -4 14 -5 16 -3 6 6 32 293 27 302 -2 4 -18 -16 -34 -45 -33 -62
-84 -118 -75 -84 11 42 29 275 23 292 -6 14 -16 -1 -45 -62 -21 -44 -46 -89
-54 -100 -15 -19 -16 -14 -18 70 -1 50 -4 117 -8 150 l-6 60 -31 -53 c-18 -30
-34 -50 -37 -45 -13 22 -37 145 -39 200 -2 35 -6 63 -9 63 -17 0 -52 -54 -63
-96 l-13 -49 -12 59 c-12 54 -9 187 6 241 3 13 -13 2 -49 -33 -29 -28 -57 -52
-61 -52 -23 0 12 190 52 283 36 83 -25 44 -78 -51 -19 -34 -39 -58 -44 -55
-13 8 -1 141 18 213 18 68 18 70 0 70 -8 0 -27 -16 -42 -35 -15 -19 -31 -35
-35 -35 -4 0 4 26 16 58 13 31 26 71 30 87 7 29 6 29 -34 -15 -35 -39 -39 -42
-35 -20 2 14 12 70 21 124 9 54 22 117 30 139 17 48 17 47 2 47 -7 -1 -33 -28
-58 -61 l-45 -61 -3 60 c-2 51 8 120 33 222 6 23 4 23 -27 -10 -18 -19 -44
-48 -56 -65 l-23 -30 5 71 c2 39 16 106 30 148 14 42 26 81 26 86 0 23 -18 7
-35 -30 -10 -22 -26 -47 -37 -57 -19 -17 -19 -15 -15 107 3 99 9 138 28 187
33 90 15 98 -43 20 -17 -23 -28 -33 -25 -22 27 92 47 172 47 184 0 9 -15 1
-38 -22 -73 -71 -65 -45 42 138 42 71 76 134 76 139 0 6 -24 -13 -53 -42 -54
-53 -75 -66 -59 -34 12 21 45 222 39 229 -3 2 -24 -13 -48 -34 -39 -35 -41
-36 -35 -13 17 58 69 150 121 213 l56 68 -38 -16 c-21 -9 -50 -25 -65 -36 -20
-14 -28 -16 -28 -6 0 23 69 130 112 174 48 49 45 65 -7 33 -20 -12 -38 -21
-40 -18 -2 2 23 40 55 86 63 87 62 90 -15 72 -22 -5 -41 -7 -43 -5 -3 2 7 24
22 49 29 50 99 109 152 128 19 7 34 15 34 19 0 10 -39 19 -85 19 -52 0 -34 13
58 40 72 22 87 40 35 40 -35 0 -66 14 -52 22 11 7 70 24 107 32 44 10 31 23
-30 31 -53 6 -56 8 -38 21 11 8 45 22 75 31 l55 16 -25 16 c-14 9 -41 31 -60
48 l-35 32 45 1 c81 1 120 21 63 33 -16 4 -46 17 -68 31 l-40 24 40 7 c22 4
56 16 75 25 l35 18 -40 7 c-69 12 -73 15 -35 35 19 10 53 37 75 59 l39 41 -42
0 c-25 0 -42 5 -42 11 0 27 43 77 80 94 22 10 37 22 34 26 -6 11 -47 2 -89
-19 -27 -13 -25 -9 18 35 26 27 47 51 47 54 0 3 -30 3 -67 2 l-68 -4 55 30
c30 16 64 38 74 50 l19 21 -44 0 -44 1 40 21 c47 24 125 85 125 98 0 5 -14 11
-30 15 -25 6 -29 9 -19 21 6 8 18 14 25 14 30 0 12 18 -28 27 l-43 10 58 27
c31 15 57 32 57 37 0 5 -21 9 -46 9 l-46 0 71 56 c39 30 71 59 71 65 0 13 -2
13 -70 -26 -35 -20 -65 -33 -68 -30 -3 3 20 31 51 63 31 32 57 60 57 62 0 3
-24 3 -52 1 l-53 -3 25 26 c13 15 44 39 67 54 24 15 43 31 43 35 0 5 -25 7
-55 5 -30 -1 -55 0 -55 3 0 3 27 14 60 24 34 10 63 22 66 27 3 5 -15 27 -40
49 -25 23 -46 45 -46 49 0 5 25 -4 56 -21 31 -16 59 -27 63 -24 3 3 -12 22
-32 42 -43 40 -43 52 0 29 45 -23 62 -3 20 23 -47 29 -55 51 -19 51 26 0 52
15 52 31 0 4 -15 10 -32 13 -18 4 -44 15 -58 26 l-25 20 71 0 c42 0 77 5 88
13 16 12 12 14 -33 25 -28 6 -62 19 -75 27 l-23 16 71 71 c39 39 66 73 61 75
-6 2 -37 -6 -70 -17 -32 -11 -60 -18 -63 -16 -2 3 24 37 58 76 62 69 74 98 28
66 -39 -28 -39 -18 2 61 22 42 38 78 36 80 -8 9 -46 -8 -76 -34 -51 -42 -30 9
29 70 l36 38 -60 -6 c-59 -6 -60 -6 -34 11 31 20 52 51 44 64 -3 6 -33 -4 -68
-21 -69 -35 -69 -36 22 70 46 53 51 62 30 56 -13 -3 -46 -20 -74 -37 l-50 -30
35 37 c19 20 47 44 63 53 15 9 27 20 27 25 0 9 -83 3 -155 -10 l-30 -6 28 30
c16 17 46 39 68 48 48 22 50 32 6 27 -25 -3 -41 2 -61 20 l-28 23 45 -3 c45
-4 87 10 87 28 0 6 -16 10 -36 10 -45 0 -88 30 -114 78 -12 23 -19 30 -20 19
0 -27 26 -72 57 -96 l28 -22 -25 7 c-14 3 -35 16 -47 27 -35 31 -39 12 -9 -34
15 -23 24 -45 19 -49 -4 -5 -64 -15 -133 -24 -69 -9 -140 -20 -157 -25 l-33
-10 0 50 c0 48 1 49 55 85 30 21 53 40 49 43 -3 3 -31 15 -62 26 -54 19 -58
22 -76 74 -15 42 -17 57 -8 72 7 10 12 24 12 30 0 6 19 34 42 62 24 29 43 53
44 55 1 2 20 -8 43 -22 22 -14 43 -26 47 -26 3 0 4 18 2 41 -4 42 -1 43 42 25
13 -5 15 1 12 33 -2 21 2 51 11 66 l14 28 7 -53 c5 -40 12 -53 26 -57 15 -4
18 -11 14 -29 -4 -15 -2 -24 5 -24 6 0 11 4 11 10 0 12 68 80 80 80 6 0 6 -10
-1 -26 -5 -15 -8 -28 -6 -30 2 -2 27 19 55 46 75 72 94 65 47 -17 -32 -53 -15
-58 38 -9 l37 34 0 -37 1 -36 57 62 c46 50 104 93 125 93 2 0 2 -25 -1 -55 -3
-31 0 -55 5 -55 5 0 24 20 42 45 18 25 34 45 35 45 2 0 1 -20 -2 -45 -2 -25
-1 -45 4 -45 5 0 29 12 53 25 24 14 45 24 47 23 1 -2 -10 -23 -27 -47 -37 -56
-39 -80 -6 -58 24 15 136 41 145 33 2 -2 -16 -13 -41 -24 -63 -28 -68 -42 -13
-42 56 0 65 -13 20 -29 -41 -15 -44 -27 -6 -34 15 -3 54 -16 87 -28 64 -24 64
-25 -18 -43 -35 -8 -26 -26 14 -26 22 0 42 -12 77 -46 37 -36 42 -45 25 -41
-46 10 -32 -14 37 -64 38 -28 70 -53 70 -54 0 -2 -19 -1 -42 3 l-43 5 64 -69
c67 -72 131 -164 131 -186 0 -8 -8 -4 -18 8 -21 26 -71 59 -78 52 -3 -3 9 -26
25 -50 41 -61 71 -132 78 -187 l6 -46 -47 43 c-26 24 -50 42 -52 39 -8 -8 68
-178 102 -228 24 -36 29 -49 18 -49 -20 0 -54 18 -81 43 -42 38 -36 8 13 -63
27 -39 55 -80 63 -91 l15 -21 -35 21 c-19 11 -37 21 -41 21 -4 0 1 -22 11 -48
24 -61 36 -135 24 -156 -7 -12 -15 -1 -37 49 -30 70 -52 87 -42 33 3 -18 9
-98 12 -178 l6 -145 -41 58 c-23 31 -44 57 -47 57 -18 0 34 -150 63 -182 9
-10 11 -18 6 -18 -6 0 -16 7 -23 15 -30 36 -26 9 10 -67 21 -46 42 -101 46
-123 l6 -40 -30 42 c-37 49 -78 77 -69 47 31 -107 39 -153 33 -178 l-7 -29
-27 26 -27 26 0 -124 c0 -145 -11 -171 -44 -106 -12 22 -24 41 -27 41 -11 0 9
-286 22 -318 12 -30 12 -32 -6 -22 -10 5 -24 26 -31 45 -7 19 -17 35 -22 35
-16 0 1 -119 29 -203 14 -43 23 -81 20 -84 -8 -8 -55 36 -67 62 -22 47 0 -133
24 -202 14 -40 21 -73 16 -73 -5 0 -24 20 -42 46 -37 52 -46 44 -23 -23 17
-49 20 -100 10 -152 -9 -41 -18 -39 -32 8 -11 36 -37 69 -47 60 -6 -7 54 -282
70 -317 18 -39 10 -40 -40 -7 -20 15 -40 24 -43 21 -3 -3 15 -36 40 -73 85
-129 82 -123 66 -123 -9 0 -32 11 -53 25 -20 15 -40 24 -43 20 -3 -3 26 -52
65 -109 68 -100 112 -190 100 -202 -3 -3 -31 16 -63 42 -33 26 -60 42 -62 35
-8 -25 87 -197 144 -260 47 -51 53 -62 34 -56 -14 4 -35 13 -47 21 -46 29 -22
-9 61 -95 74 -77 106 -124 93 -137 -2 -2 -16 5 -31 17 -43 34 -48 17 -10 -36
45 -64 58 -87 89 -171 l25 -69 -28 30 c-15 17 -40 46 -55 64 -15 18 -30 32
-32 29 -19 -19 79 -225 141 -295 l46 -53 -42 0 -41 0 108 -115 c96 -103 153
-176 153 -197 0 -5 -30 8 -66 27 -58 31 -104 44 -104 30 0 -3 33 -36 73 -75
40 -38 85 -91 99 -117 23 -42 82 -213 73 -213 -2 0 -27 11 -57 25 -74 35 -86
32 -47 -13 56 -64 149 -140 214 -174 35 -18 61 -36 59 -40 -3 -4 -23 -8 -45
-8 -21 0 -39 -3 -39 -7 0 -5 31 -25 69 -46 37 -21 81 -50 97 -63 29 -25 29
-25 4 -21 -14 3 -33 2 -42 -1 -15 -6 -13 -13 18 -52 32 -40 74 -111 74 -124 0
-3 -17 2 -37 11 -53 22 -93 33 -93 25 0 -4 27 -38 61 -77 63 -73 134 -173 127
-180 -2 -3 -34 5 -71 17 -36 12 -70 19 -74 15 -4 -4 14 -29 39 -55 51 -53 150
-183 144 -189 -2 -2 -26 7 -54 21 -56 28 -139 52 -149 42 -4 -3 7 -21 24 -39
36 -37 135 -179 129 -184 -2 -2 -27 10 -55 27 -28 18 -55 30 -61 28 -5 -1 17
-41 50 -88 34 -47 70 -102 82 -122 12 -20 27 -39 35 -42 24 -10 13 28 -27 92
-22 34 -40 64 -40 66 0 2 23 -4 50 -15 71 -27 76 -24 37 24 -48 59 -138 197
-129 197 4 0 45 -21 91 -45 45 -25 87 -45 93 -45 20 0 -119 224 -152 245 -5 3
-10 10 -10 16 0 5 25 -5 55 -22 31 -17 58 -29 62 -26 11 12 -33 103 -82 172
-73 102 -74 104 -26 65 l44 -34 -7 43 c-7 48 -36 109 -73 159 -29 39 -26 39
37 7 27 -14 54 -25 60 -25 31 0 -69 115 -142 162 -26 17 -48 35 -48 38 0 4 16
10 35 13 20 3 53 16 73 29 l37 23 -77 7 c-55 5 -93 15 -135 37 -59 30 -126 76
-74 50 22 -10 23 -10 16 7 -5 11 -29 81 -55 157 -31 89 -58 152 -79 177 -40
50 -39 57 2 26 32 -25 57 -33 57 -20 0 3 -20 48 -45 99 -39 81 -55 102 -132
175 l-88 82 68 -4 c37 -1 67 0 67 4 0 4 -17 16 -37 27 -21 11 -59 41 -84 68
-48 49 -115 154 -89 138 8 -5 30 -19 49 -32 47 -32 56 -29 31 11 -26 43 -78
196 -73 214 11 30 -38 153 -82 207 l-45 55 36 0 c19 0 45 5 57 11 19 11 17 13
-30 31 -30 11 -68 36 -92 61 -46 47 -123 158 -115 166 2 3 22 -12 43 -33 45
-44 56 -37 46 32 -10 69 -41 144 -80 195 -19 25 -35 47 -35 49 0 2 26 1 57 0
l58 -4 -41 44 c-41 43 -84 101 -84 112 0 3 24 6 52 6 l53 0 -38 31 c-67 55
-82 123 -48 219 11 30 22 77 26 103 6 39 10 47 24 42 35 -15 83 -26 88 -21 3
3 -8 21 -25 40 -40 46 -99 206 -75 206 4 0 32 -9 61 -20 28 -11 52 -16 52 -10
0 5 -11 26 -25 46 -21 32 -65 149 -65 175 0 4 22 5 49 2 28 -3 58 -2 68 1 15
6 12 11 -20 27 -50 26 -67 68 -67 161 l1 73 22 -27 c13 -16 26 -28 30 -28 4 0
7 28 8 63 0 34 4 80 8 102 l8 40 57 -118 c71 -149 129 -295 146 -372 7 -33 17
-64 21 -69 14 -16 24 90 23 259 -1 184 -15 268 -85 503 -17 57 -29 105 -27
107 2 3 50 -57 106 -133 93 -124 121 -170 178 -297 l19 -40 3 58 c9 171 -95
477 -242 711 l-56 89 12 58 c8 42 9 70 1 103 -6 25 -8 46 -6 46 3 0 36 -14 75
-31 38 -17 72 -28 76 -25 3 3 -5 17 -17 30 l-23 24 69 6 c153 14 328 54 311
72 -3 3 -61 6 -129 8 -116 3 -300 34 -256 44 25 5 21 18 -12 32 -33 13 -70 50
-100 100 -26 43 -27 59 -3 37 10 -10 22 -17 27 -17 9 0 1 136 -9 161 -7 15 6
18 101 24 59 3 128 10 153 15 49 10 146 48 139 55 -3 2 -59 9 -124 14 -173 14
-305 64 -305 116 0 12 127 57 295 103 81 22 545 204 590 231 16 11 41 22 55
26 14 4 66 27 115 50 124 58 138 63 235 75 47 6 128 20 180 30 52 10 136 21
185 25 138 9 409 36 418 42 4 2 7 13 7 24 0 15 -5 19 -17 15 -38 -11 -175 -26
-328 -36 -88 -6 -221 -22 -295 -35 -74 -13 -166 -29 -205 -35 -46 -7 -111 -30
-188 -66 -66 -30 -124 -54 -131 -54 -7 0 -38 -15 -69 -34 -32 -19 -148 -70
-260 -114 -199 -78 -276 -105 -511 -177 l-119 -37 -39 39 c-22 21 -44 45 -49
54 -8 15 -3 15 42 -2 88 -34 78 -11 -31 73 -38 28 -67 55 -64 60 3 4 18 8 35
8 37 0 38 16 2 23 -16 3 -37 12 -47 20 -17 13 -2 20 169 76 104 34 209 73 234
85 76 39 606 206 651 206 10 0 21 4 24 9 3 5 27 12 53 15 27 4 102 18 168 31
195 39 379 63 755 100 30 3 80 8 110 11 96 9 110 14 110 36 0 16 -5 19 -23 15
-12 -4 -92 -13 -177 -21 -419 -41 -970 -124 -1026 -154 -11 -5 -93 -31 -184
-57 -232 -65 -338 -101 -468 -156 -148 -63 -424 -151 -436 -139 -5 5 1 11 18
16 14 3 26 10 26 15 0 13 -69 55 -115 70 l-40 14 44 5 c41 5 43 6 25 22 -11 9
-32 23 -49 32 l-29 15 70 33 69 33 -39 3 c-22 2 -75 2 -118 0 -43 -2 -78 -1
-78 0 0 2 16 22 35 45 19 22 35 44 35 48 0 9 -71 -7 -117 -26 -20 -8 -39 -15
-43 -15 -4 0 1 29 12 66 11 36 17 68 14 72 -4 3 -29 -18 -56 -48 l-49 -55 16
43 c18 47 12 63 -14 40 -10 -8 -38 -26 -63 -39 -25 -14 -57 -33 -71 -42 l-27
-18 20 58 c38 112 35 297 -9 483 -6 25 -6 25 16 6 11 -11 21 -29 21 -40 1 -39
38 -105 72 -126 30 -18 128 -29 128 -15 0 3 -9 18 -19 33 -11 15 -25 53 -31
84 -9 43 -19 63 -41 83 -17 14 -35 25 -40 25 -5 0 -9 14 -9 30 0 47 -26 98
-75 151 -25 27 -45 50 -45 53 0 3 16 -2 36 -10 51 -21 160 -29 212 -15 23 7
42 15 42 20 0 5 -21 11 -46 15 -123 16 -289 135 -583 419 -85 82 -176 161
-203 176 -26 15 -82 36 -124 46 -67 17 -75 22 -70 40 3 11 9 37 12 58 7 37 7
37 -20 27 -51 -19 -71 -32 -120 -79 -33 -31 -46 -40 -43 -26 3 11 9 43 12 70
4 28 9 59 12 70 11 39 -45 -25 -77 -87 -24 -50 -30 -56 -38 -41 -17 32 -34
135 -29 170 6 37 -2 42 -25 16z m44 -242 l35 -75 12 62 c7 34 16 62 20 62 4 0
9 -21 10 -47 2 -63 15 -74 37 -32 27 54 56 89 90 110 17 10 34 19 36 19 3 0
-3 -24 -12 -53 -10 -29 -21 -73 -25 -97 l-7 -45 23 21 c24 22 62 44 75 44 3 0
-10 -18 -31 -41 -20 -22 -35 -42 -33 -45 2 -2 26 8 53 21 26 14 58 25 69 25
17 -1 9 -11 -37 -53 -31 -29 -57 -55 -57 -59 0 -5 35 -8 78 -9 l77 -1 -57 -25
c-32 -15 -58 -29 -58 -33 0 -3 26 -11 58 -18 31 -7 80 -23 107 -36 l50 -24
-45 -1 c-50 -1 -90 -10 -90 -20 0 -3 20 -17 45 -30 49 -26 135 -97 135 -111 0
-5 -30 0 -67 11 -37 10 -68 17 -70 16 -1 -2 18 -23 42 -47 51 -50 56 -64 19
-50 -32 13 -34 12 -34 -1 0 -7 17 -32 37 -57 26 -31 30 -41 15 -33 -11 6 -29
22 -40 36 -41 52 -31 4 13 -60 25 -37 45 -70 45 -72 0 -2 -25 10 -55 27 l-55
32 18 -49 c11 -26 22 -66 26 -88 6 -36 5 -38 -8 -22 -14 18 -15 18 -24 0 -10
-17 -11 -17 -17 2 -42 134 -118 278 -215 407 -124 166 -211 230 -395 294 -44
15 -86 32 -92 37 -23 17 -14 29 17 22 33 -7 35 -4 20 26 -13 24 -10 24 51 -2
27 -12 52 -19 55 -16 3 3 -11 37 -30 76 -20 39 -34 71 -31 71 3 0 26 -19 52
-42 l46 -43 -7 40 -7 40 31 -37 c17 -21 35 -38 39 -38 4 0 6 37 4 83 -3 81 -3
81 11 42 7 -22 29 -74 48 -114z m-1184 52 c-28 -53 -29 -64 -25 -136 4 -53 12
-88 26 -113 27 -45 26 -48 -3 -29 -52 34 -75 178 -40 248 13 25 62 87 69 87 1
0 -11 -26 -27 -57z m18 -60 c-7 -53 11 -139 44 -203 23 -46 11 -54 -18 -12
-45 63 -64 166 -41 231 16 45 22 38 15 -16z m1563 -17 l23 -13 -23 -6 c-13 -4
-37 -7 -54 -7 l-30 1 24 19 c27 23 29 23 60 6z m84 -48 c18 -12 95 -84 173
-159 155 -150 347 -308 437 -359 32 -18 56 -34 54 -37 -7 -6 -121 34 -175 61
-97 49 -119 65 -197 140 -44 43 -94 84 -111 92 -17 7 -45 27 -63 43 -18 17
-38 31 -44 31 -6 0 -28 12 -50 27 -33 23 -36 28 -20 34 30 11 -29 29 -108 32
-38 1 -69 4 -68 7 1 8 123 109 132 109 5 1 23 -9 40 -21z m-890 -44 c225 -36
409 -127 519 -256 182 -213 301 -482 315 -708 6 -113 -4 -164 -35 -168 -24 -4
-23 -6 -42 128 -52 360 -252 659 -537 804 -30 15 -54 22 -58 16 -3 -5 20 -22
52 -39 272 -137 473 -441 524 -794 19 -132 14 -383 -10 -526 -28 -162 -30
-164 -106 -156 -33 4 -61 8 -63 9 -1 2 7 73 18 157 11 85 23 175 27 202 3 26
11 47 17 47 11 0 4 227 -9 293 -42 203 -114 396 -187 500 -38 54 -28 19 31
-104 82 -171 141 -368 141 -470 0 -24 -2 -25 -37 -20 -37 6 -38 8 -41 51 -4
79 -22 183 -43 255 -24 81 -98 245 -110 245 -13 0 -11 -6 15 -58 58 -115 116
-340 116 -449 0 -34 0 -34 -37 -27 -21 3 -41 9 -44 13 -4 3 -9 30 -12 58 -6
50 -5 53 18 59 35 9 31 27 -3 19 -27 -5 -29 -3 -45 48 -21 68 -21 70 4 57 41
-22 43 -3 2 23 -43 27 -50 38 -154 247 -49 98 -129 200 -156 200 -9 0 4 -20
34 -54 60 -65 114 -166 142 -265 l20 -73 -37 6 c-20 3 -63 9 -95 13 l-58 6
-60 121 c-61 123 -125 226 -141 226 -14 0 -9 -15 18 -51 54 -71 124 -235 124
-289 0 -11 -18 -21 -52 -32 -29 -9 -54 -15 -54 -15 -1 1 -23 45 -49 97 -88
177 -164 294 -180 278 -3 -3 10 -28 29 -55 54 -76 113 -201 133 -281 l17 -72
-29 -30 -29 -30 -44 83 c-55 104 -133 220 -151 225 -8 3 -3 -12 13 -39 51 -82
88 -174 107 -264 23 -112 25 -175 4 -175 -8 0 -15 -4 -15 -9 0 -5 7 -11 15
-15 30 -11 10 -270 -31 -414 -24 -83 -71 -185 -60 -132 38 188 32 478 -14 704
-16 82 -34 154 -40 160 -20 20 -22 -4 -5 -61 17 -56 56 -285 50 -291 -11 -12
-135 200 -135 231 0 8 -7 20 -15 27 -44 36 9 -92 100 -240 49 -80 58 -104 62
-155 l5 -60 -76 75 c-110 107 -178 216 -265 424 -23 55 -24 16 -1 -46 51 -141
185 -380 274 -488 66 -81 63 -82 -32 -7 -76 60 -188 202 -238 301 -78 153
-106 253 -128 459 -15 137 -26 175 -26 86 0 -74 18 -401 26 -470 l6 -57 -46
-15 -46 -16 -10 39 c-14 52 -29 173 -30 235 0 35 -3 46 -11 38 -7 -7 -7 -50 0
-149 7 -77 13 -148 16 -160 3 -13 -10 -39 -35 -73 -22 -29 -40 -60 -40 -70 -1
-14 -3 -14 -15 3 -29 38 -66 175 -83 304 -9 72 -20 132 -24 132 -11 0 -10 -47
2 -155 11 -95 24 -145 59 -234 12 -30 29 -86 37 -125 8 -39 17 -78 19 -87 4
-10 -4 -20 -20 -27 -14 -6 -25 -16 -25 -22 0 -7 6 -8 19 0 31 16 37 13 50 -28
17 -51 12 -70 -26 -99 l-32 -25 -24 49 c-37 74 -77 190 -93 271 -21 113 -18
338 6 462 21 100 21 118 2 106 -18 -11 -46 -229 -46 -356 0 -322 101 -564 323
-772 66 -62 101 -113 101 -147 0 -3 -44 -6 -99 -6 l-98 -1 -61 116 c-105 200
-175 427 -194 630 -12 134 -15 147 -29 133 -6 -6 -2 -66 14 -179 19 -131 40
-221 92 -399 37 -126 78 -257 92 -290 l25 -59 -38 -33 -39 -33 -46 97 c-108
226 -179 547 -179 807 0 97 27 255 60 352 10 29 15 56 10 59 -13 8 -58 -130
-91 -285 -38 -179 -49 -396 -26 -525 8 -44 13 -82 11 -83 -5 -7 -43 128 -55
195 -17 100 -5 314 25 443 44 191 141 415 252 582 57 85 187 207 270 254 60
33 66 35 82 21 36 -33 192 -84 192 -63 0 4 -20 26 -45 49 -45 44 -56 71 -32
80 6 2 46 10 87 16 41 7 122 21 180 32 58 10 119 20 135 23 45 6 184 -3 288
-20z m885 -128 c20 -19 34 -37 30 -41 -8 -8 -60 18 -78 40 -12 14 -15 15 -20
2 -3 -9 -12 -12 -25 -7 -18 6 -17 8 10 23 40 22 40 22 83 -17z m-1923 -6 c-3
-5 -7 -25 -8 -43 -2 -26 -19 -52 -64 -103 -80 -92 -112 -141 -177 -270 -53
-108 -127 -296 -141 -364 -6 -27 -9 -31 -14 -17 -6 17 -8 17 -25 -2 -36 -40
-36 -21 0 44 20 36 34 68 31 72 -7 6 -58 -28 -101 -66 l-28 -26 7 24 c9 29 61
119 83 144 19 22 7 35 -18 19 -26 -16 -31 -15 -23 4 5 13 2 15 -15 9 -36 -11
-25 10 38 73 33 33 60 63 60 65 0 3 -21 -1 -47 -9 -25 -8 -48 -12 -51 -10 -8
9 60 96 85 110 l27 14 -32 6 c-17 4 -52 4 -78 0 -59 -9 -52 8 11 26 25 7 45
16 45 20 0 4 -12 13 -27 20 l-28 13 25 7 c14 4 41 5 60 3 l35 -5 -30 25 c-16
14 -41 34 -55 45 l-25 21 38 -10 c45 -12 126 -7 90 6 -36 12 -27 25 17 25 50
0 51 13 3 34 l-38 16 42 -6 c57 -8 70 2 42 32 -30 32 -6 32 37 -1 18 -14 35
-25 38 -25 3 0 6 18 6 41 l0 40 44 -35 43 -36 11 32 c10 32 10 32 11 6 2 -41
14 -41 56 2 38 39 52 50 40 30z m2038 -69 c19 -22 41 -49 47 -61 12 -22 11
-23 -43 -18 -49 4 -116 32 -104 44 2 3 25 -3 51 -11 57 -20 96 -16 53 5 -24
12 -57 55 -57 75 0 15 21 1 53 -34z m-108 -61 c18 -19 43 -33 67 -36 24 -4 43
-15 53 -30 8 -13 29 -31 47 -40 17 -9 71 -56 119 -105 48 -49 91 -89 97 -89 5
0 31 -30 56 -67 79 -118 129 -366 106 -531 -7 -48 -15 -93 -19 -100 -4 -7 -19
32 -34 85 -28 101 -141 343 -216 462 -22 35 -48 84 -57 110 -26 73 -75 164
-97 182 -16 13 -17 18 -6 22 15 6 -46 70 -126 134 -22 18 -35 32 -29 33 5 0
23 -14 39 -30z m212 -2 c19 -22 63 -94 63 -104 0 -2 -7 -4 -15 -4 -8 0 -14 4
-12 9 1 5 -17 35 -41 65 -26 34 -38 56 -29 56 7 0 23 -10 34 -22z m-22 -56 c6
-4 17 -15 25 -25 14 -18 13 -18 -25 -2 -53 21 -66 35 -34 35 13 0 29 -4 34 -8z
m131 -50 c18 -26 46 -73 63 -104 30 -54 48 -75 56 -66 2 2 -12 28 -30 58 -33
54 -30 81 5 44 15 -17 64 -144 55 -144 -8 0 -126 73 -131 81 -3 5 4 9 15 9 36
0 23 14 -41 45 -67 32 -86 55 -46 55 16 0 29 -9 38 -24 12 -24 40 -43 40 -28
0 4 -16 33 -35 65 -41 69 -33 76 11 9z m-2751 -32 c3 -5 -21 -23 -55 -40 -84
-42 -79 -54 21 -45 92 8 99 -3 24 -35 -23 -10 -57 -37 -75 -59 -18 -22 -42
-43 -52 -47 -11 -3 -34 -29 -52 -57 -19 -29 -44 -61 -56 -72 -43 -38 -138
-164 -165 -220 -15 -30 -29 -54 -31 -53 -6 6 27 143 52 215 46 134 130 263
211 328 36 29 151 94 165 95 4 0 10 -4 13 -10z m2557 -61 c10 -13 21 -42 25
-64 6 -39 5 -39 -13 -24 -10 9 -38 26 -61 38 -46 23 -55 32 -23 24 12 -3 20 0
20 7 0 10 3 10 15 0 22 -18 31 -4 12 18 -10 10 -17 22 -17 26 0 14 24 0 42
-25z m386 -84 c11 -14 23 -46 27 -71 3 -26 9 -53 12 -60 8 -22 -83 34 -102 62
-16 25 -16 26 6 19 13 -4 29 -14 37 -22 23 -23 24 -9 3 46 -22 55 -15 66 17
26z m-2973 -35 c-21 -22 -36 -42 -34 -45 3 -2 21 0 40 5 84 24 48 -7 -52 -45
-37 -15 -73 -33 -79 -41 -18 -21 5 -18 60 7 l44 20 -24 -26 c-32 -34 -120 -80
-120 -63 1 22 36 92 53 107 13 10 17 10 17 1 0 -10 3 -10 15 0 8 7 15 19 15
26 0 17 75 94 92 94 7 0 -5 -18 -27 -40z m2602 -5 c15 -19 34 -35 41 -35 6 0
12 -9 12 -21 0 -18 -2 -19 -20 -6 -18 12 -80 85 -80 93 0 14 24 -2 47 -31z
m53 -1 c0 -8 -4 -14 -10 -14 -5 0 -10 9 -10 21 0 11 5 17 10 14 6 -3 10 -13
10 -21z m-107 -14 c43 -37 51 -76 51 -230 0 -95 -4 -128 -24 -190 l-24 -75 -7
130 c-7 131 -16 185 -43 262 l-15 42 31 -6 32 -6 -27 46 c-15 25 -27 48 -27
51 0 14 22 4 53 -24z m515 -100 c3 -34 0 -60 -5 -60 -5 0 -27 16 -49 35 -28
26 -32 33 -14 24 14 -7 31 -19 38 -28 11 -14 12 -9 7 29 -3 25 -9 56 -12 70
-5 24 -5 24 13 8 12 -12 19 -37 22 -78z m-3117 -87 c-9 -27 -22 -57 -28 -68
-5 -11 -13 -45 -17 -75 -3 -30 -11 -77 -16 -105 -18 -92 -30 -253 -21 -277 10
-26 3 -78 -10 -78 -15 0 -24 95 -23 245 1 162 25 287 62 329 10 12 26 33 35
49 27 42 36 32 18 -20z m-131 -18 c-24 -28 -4 -26 35 5 37 29 55 34 40 10 -10
-15 -86 -70 -98 -70 -5 0 -6 15 -2 37 9 48 15 57 28 44 7 -7 6 -15 -3 -26z
m2674 -27 c4 -29 9 -69 12 -88 5 -34 5 -34 -24 17 -27 46 -28 55 -18 87 6 20
14 36 17 36 4 0 9 -24 13 -52z m246 5 c0 -75 -13 -83 -49 -33 -38 52 -43 90
-6 45 14 -16 25 -36 25 -42 0 -7 4 -13 10 -13 6 0 7 18 3 45 -4 31 -2 45 6 45
7 0 11 -19 11 -47z m403 32 c14 -13 42 -113 34 -121 -1 -2 -11 12 -22 31 -18
36 -35 46 -35 22 0 -7 7 -22 15 -33 23 -31 17 -40 -10 -14 -26 25 -50 92 -41
116 7 18 41 18 59 -1z m-343 -130 c29 -109 29 -362 1 -380 -4 -2 -6 33 -4 78
6 153 5 192 -4 262 -6 39 -15 83 -21 98 -15 35 -15 44 -2 31 5 -5 19 -46 30
-89z m-3044 13 c-19 -27 -20 -22 -4 23 8 23 13 28 16 17 2 -10 -4 -28 -12 -40z
m70 15 c-8 -16 -30 -44 -50 -62 -33 -32 -36 -33 -36 -13 0 12 18 38 43 61 49
48 63 52 43 14z m2914 -65 c0 -5 6 -8 14 -8 14 0 11 -36 -4 -45 -7 -5 -70 105
-70 121 1 11 59 -58 60 -68z m-245 -47 c19 -38 25 -66 25 -113 l1 -63 20 24
c22 27 23 26 54 -26 l22 -36 -27 -79 c-15 -44 -30 -81 -32 -83 -2 -2 -16 -1
-31 3 -27 7 -28 9 -31 93 -3 85 -18 132 -50 158 -13 11 -16 36 -16 125 l0 111
20 -32 c11 -18 31 -55 45 -82z m275 78 c0 -11 -4 -17 -10 -14 -5 3 -10 15 -10
26 0 11 5 17 10 14 6 -3 10 -15 10 -26z m-104 -54 c-2 -16 5 -59 16 -95 21
-66 21 -66 1 -104 l-20 -38 -31 49 c-18 27 -32 56 -32 64 0 8 10 54 22 102 20
77 24 85 36 70 7 -10 11 -31 8 -48z m-2845 -21 c-29 -155 17 -618 79 -798 11
-33 18 -61 16 -63 -7 -7 -77 148 -107 235 -37 110 -70 269 -75 366 -2 44 -6
81 -8 84 -3 2 6 21 19 41 14 19 25 47 25 61 0 14 7 34 15 44 8 11 15 25 15 32
0 20 20 67 26 61 3 -3 1 -31 -5 -63z m266 -26 c-52 -130 -87 -304 -87 -427 0
-43 -1 -44 -17 -28 -15 15 -15 23 -4 81 10 49 10 69 1 86 -6 12 -8 29 -5 38 4
9 9 64 11 122 4 81 9 111 23 130 18 25 92 73 99 65 3 -2 -7 -32 -21 -67z
m1669 31 c158 -74 274 -250 259 -391 -8 -73 9 -76 25 -5 22 93 32 88 26 -14
-6 -85 -29 -201 -51 -251 -4 -11 -3 -18 3 -18 8 0 38 46 101 155 13 22 11 -1
-11 -133 -10 -61 -12 -64 -97 -143 -122 -115 -371 -314 -431 -344 l-51 -26
-157 36 c-208 47 -454 117 -487 139 -23 15 -80 114 -71 123 2 2 30 -11 62 -30
47 -26 60 -39 64 -62 5 -28 6 -29 17 -10 11 19 12 19 31 2 18 -17 19 -16 31
25 7 24 15 51 17 61 10 33 -15 17 -26 -18 -11 -34 -30 -48 -30 -22 1 22 42
102 47 89 3 -8 11 -5 23 11 10 13 37 32 59 42 38 17 54 35 31 35 -6 0 -10 29
-10 68 0 60 -8 99 -51 265 -12 47 -29 48 -29 2 0 -30 -3 -35 -23 -35 -35 0
-178 55 -188 72 -12 21 8 86 31 98 38 20 90 12 121 -20 17 -17 36 -27 44 -23
21 8 19 21 -12 62 -25 34 -24 34 23 -9 27 -25 75 -66 107 -90 56 -42 59 -45
53 -79 -21 -125 -36 -244 -32 -248 10 -10 67 82 98 158 24 61 36 79 52 79 18
0 18 1 3 18 -19 21 -22 48 -7 57 5 3 54 -15 108 -40 55 -25 104 -45 111 -45
21 0 11 15 -26 40 -65 43 -171 149 -175 175 -3 14 -3 25 -1 25 2 0 35 -16 74
-36 39 -19 75 -34 80 -32 5 2 -24 43 -66 92 -60 72 -75 96 -75 123 0 45 24 42
49 -4 6 -13 16 -23 22 -23 6 0 31 23 56 50 86 96 153 108 279 49z m-1792 -61
c-15 -32 -31 -58 -36 -58 -16 0 -7 34 25 92 41 75 50 48 11 -34z m-244 66 c0
-8 -5 -24 -11 -35 -22 -41 -3 -37 34 7 22 28 37 40 37 30 0 -16 -66 -96 -80
-96 -13 0 -17 43 -8 78 9 33 28 44 28 16z m210 -16 c0 -7 -5 -20 -10 -28 -8
-12 -10 -9 -10 13 0 15 5 27 10 27 6 0 10 -6 10 -12z m3001 -221 c-35 -44 -90
-101 -95 -96 -4 3 0 35 9 70 8 35 15 107 15 159 l1 95 39 -108 c26 -70 37
-112 31 -120z m-3216 88 c-21 -31 -41 -58 -46 -61 -12 -7 -22 61 -15 92 5 19
10 24 17 17 8 -8 7 -18 -1 -33 -21 -40 1 -35 37 8 49 59 55 44 8 -23z m234
-40 c-12 -25 -26 -45 -31 -45 -12 0 -28 46 -28 83 0 41 17 23 22 -23 l4 -35
25 54 c18 41 25 49 27 33 2 -12 -7 -42 -19 -67z m2217 73 c5 -7 7 -41 4 -76
l-5 -62 -35 17 c-33 17 -35 21 -38 76 l-3 57 34 0 c19 0 38 -6 43 -12z m-1256
-18 c10 0 30 -16 44 -35 l27 -35 -37 25 c-20 14 -54 30 -75 35 -47 13 -52 25
-8 16 17 -3 39 -6 49 -6z m1525 -40 c15 -16 20 -41 23 -109 4 -79 2 -95 -21
-143 -13 -29 -31 -62 -39 -72 -15 -19 -15 -19 -35 1 -19 19 -19 20 4 53 28 42
28 46 3 95 -23 46 -26 107 -6 124 12 10 17 8 25 -8 6 -11 11 -31 11 -45 0 -33
10 -57 21 -50 14 8 10 72 -6 104 -11 21 -23 30 -40 30 -24 0 -33 18 -18 33 14
14 61 6 78 -13z m335 -79 c0 -64 -4 -83 -21 -105 -29 -37 -39 -32 -23 12 15
42 18 106 5 98 -4 -3 -12 -20 -16 -38 -7 -30 -8 -31 -12 -9 -11 55 18 121 53
121 11 0 14 -17 14 -79z m-1854 33 c49 -29 56 -39 19 -30 -14 4 -41 0 -60 -8
-66 -28 -82 -121 -45 -265 17 -66 54 -166 66 -180 3 -3 21 11 40 30 l36 34 -5
-68 c-4 -63 -3 -68 22 -87 l26 -20 -39 6 c-29 5 -37 4 -32 -5 4 -7 2 -19 -5
-27 -17 -21 -3 -30 16 -10 23 23 36 10 23 -22 -19 -43 -25 -46 -58 -22 -78 56
-256 302 -243 336 9 23 17 16 46 -40 27 -52 82 -114 92 -105 2 3 -13 41 -36
85 -66 130 -74 280 -18 370 38 62 83 70 155 28z m-1232 -54 c-15 -27 -33 -50
-41 -50 -18 0 -17 3 24 67 43 68 56 55 17 -17z m-46 8 c-6 -18 -13 -27 -16
-20 -6 19 7 64 18 57 5 -3 4 -19 -2 -37z m307 -28 c-19 -64 -28 -72 -45 -40
-7 14 -7 20 0 20 6 0 20 20 32 45 29 60 35 49 13 -25z m2108 30 l-7 -25 -6 25
c-8 28 -2 46 11 33 5 -5 5 -20 2 -33z m-2153 -12 c-1 -28 -2 -30 -11 -15 -6
10 -8 25 -5 33 9 24 16 16 16 -18z m2252 -52 c-2 -54 -46 -189 -73 -226 -9
-12 -9 -11 -4 5 4 11 10 84 13 162 l4 142 32 -13 c30 -13 31 -15 28 -70z m787
-10 c-9 -8 -10 -3 -5 23 3 18 7 41 8 50 1 9 3 -1 5 -23 3 -22 -1 -43 -8 -50z
m-3271 -38 c7 -7 12 -38 11 -77 -1 -37 -3 -57 -6 -46 -2 11 -6 30 -9 43 -9 43
-21 13 -16 -40 3 -42 2 -51 -8 -41 -16 14 -24 91 -16 137 7 37 23 45 44 24z
m2997 -26 c-15 -16 -16 -15 -4 12 7 15 15 23 17 16 3 -7 -3 -19 -13 -28z
m-2762 -137 c5 -26 4 -25 -13 10 -11 22 -19 49 -19 60 1 15 4 13 13 -10 7 -16
16 -43 19 -60z m723 -60 c-11 -19 -22 -35 -26 -35 -9 0 -60 76 -60 89 0 5 15
21 33 35 l32 26 20 -40 c19 -40 19 -41 1 -75z m-658 87 c15 -10 84 -182 73
-182 -5 0 -21 28 -36 63 -19 42 -30 56 -33 44 -2 -10 8 -42 22 -70 14 -28 23
-53 21 -55 -10 -10 -64 58 -74 94 -23 82 -11 130 27 106z m728 -149 c20 -32
64 -92 98 -133 64 -78 62 -81 -19 -17 -79 64 -155 140 -155 156 0 13 27 51 37
51 2 0 20 -26 39 -57z m403 12 c21 -77 -31 -143 -93 -119 -11 4 -16 19 -16 48
0 39 3 43 34 54 19 7 38 22 41 32 10 30 23 24 34 -15z m1247 -40 c9 -39 0 -30
-15 15 -6 19 -7 30 -2 25 5 -6 13 -23 17 -40z m27 -89 l32 -13 -27 -13 c-24
-11 -28 -19 -28 -53 l0 -40 -23 21 c-13 12 -35 22 -50 22 -15 0 -27 2 -27 3 0
14 42 123 52 135 11 12 14 10 25 -17 8 -19 25 -36 46 -45z m-187 -31 c3 -11
-4 -41 -15 -65 -28 -61 -27 -72 4 -64 l26 6 -20 -53 c-41 -107 -184 -330 -256
-399 -36 -35 -36 -35 33 110 81 168 165 385 159 409 -3 10 -11 0 -23 -29 -29
-72 -123 -260 -129 -260 -3 0 1 15 9 33 68 156 107 254 126 321 l24 78 28 -33
c15 -19 30 -43 34 -54z m14 34 c15 -28 5 -23 -15 7 -9 15 -12 23 -6 20 6 -4
16 -16 21 -27z m260 -7 c0 -5 -18 -18 -40 -31 -39 -22 -40 -24 -40 -77 0 -30
-4 -54 -8 -54 -4 0 -26 14 -49 30 -33 24 -46 28 -65 22 -42 -16 -78 -23 -78
-15 0 5 23 14 52 21 49 11 54 11 88 -13 20 -14 39 -25 43 -25 4 0 7 20 7 44 0
41 3 47 43 75 48 34 47 34 47 23z m-468 -153 l17 -51 -54 -117 c-29 -64 -71
-148 -94 -186 -22 -38 -38 -72 -35 -75 6 -5 73 65 111 115 20 26 19 22 -5 -30
-37 -78 -76 -152 -103 -194 l-23 -34 25 13 c40 22 148 131 202 205 70 97 70
97 64 42 -4 -44 -10 -54 -60 -98 -33 -29 -60 -63 -67 -84 -19 -56 -5 -64 20
-12 12 26 39 60 59 77 l38 29 -7 -42 c-4 -23 -28 -86 -53 -141 -26 -54 -47
-104 -47 -110 0 -14 -50 -63 -98 -95 -35 -25 -130 -39 -177 -27 -41 10 -59 64
-52 156 4 41 11 90 17 107 l12 33 32 -25 c32 -25 56 -32 56 -17 -1 4 -19 20
-41 35 l-41 28 7 52 c10 74 24 94 25 35 0 -27 5 -48 10 -48 6 0 10 22 10 48 0
36 -10 70 -40 132 -23 46 -37 86 -33 90 4 5 55 45 113 91 58 45 122 97 143
116 20 18 41 33 45 33 5 0 16 -23 24 -51z m325 -1 c40 -28 41 -33 6 -52 -16
-8 -44 -30 -62 -50 -37 -38 -68 -46 -77 -21 -7 17 33 126 50 137 20 14 49 8
83 -14z m414 -34 c-64 -70 -67 -87 -9 -65 13 4 42 11 66 15 l43 6 -30 -37
c-32 -40 -66 -112 -57 -120 3 -3 24 11 46 31 59 53 58 44 -1 -24 -29 -33 -50
-63 -47 -66 3 -3 23 2 43 10 46 20 65 21 40 2 -18 -13 -18 -14 3 -25 11 -6 33
-11 47 -11 l26 0 -20 -29 c-11 -15 -25 -40 -30 -54 -7 -18 -36 -39 -100 -72
-88 -46 -168 -115 -156 -136 4 -5 15 1 26 13 l19 23 -6 -60 c-10 -117 -15
-144 -30 -156 -18 -15 -31 -4 -36 31 -3 23 -7 25 -64 28 -61 3 -62 2 -72 -28
-11 -31 -18 -35 -46 -24 -11 4 -14 13 -10 29 8 31 -2 35 -68 23 -48 -8 -58
-14 -66 -36 -9 -25 -10 -26 -17 -7 -4 11 -17 27 -27 36 -11 8 -21 28 -21 42
-2 30 -18 35 -37 12 -18 -22 -44 -20 -35 3 4 9 14 37 22 62 9 25 20 49 24 55
5 5 9 17 9 26 0 10 5 21 11 25 8 5 10 -1 5 -19 -6 -25 -5 -26 28 -20 19 3 36
1 40 -6 12 -19 26 -12 26 14 0 13 9 33 21 43 l20 20 -26 6 c-15 4 -30 17 -36
34 l-11 27 -19 -24 c-23 -28 -39 -19 -20 11 8 13 14 65 17 140 l3 118 57 50
c46 40 74 55 138 75 67 20 274 58 350 64 13 1 4 -14 -33 -55z m-1961 8 c94
-47 106 -165 29 -274 l-22 -31 -19 52 c-24 63 -111 160 -167 186 -23 10 -41
21 -41 26 0 6 61 39 100 52 31 11 86 6 120 -11z m149 -96 c15 -8 53 -48 83
-88 59 -77 70 -91 152 -177 77 -81 30 -48 -105 74 -123 111 -151 143 -163 183
-9 26 -4 27 33 8z m-353 -25 c59 -34 109 -88 135 -145 30 -65 25 -84 -23 -106
-50 -23 -78 -25 -78 -7 0 8 -14 35 -31 61 -30 44 -30 48 -14 60 23 17 16 28
-45 67 -28 18 -50 36 -50 41 0 16 32 58 44 58 6 0 34 -13 62 -29z m-126 -48
c90 -62 96 -68 70 -71 -16 -2 -47 6 -69 18 -44 22 -51 18 -24 -12 25 -28 -2
-23 -65 13 -58 33 -71 33 -51 0 7 -11 11 -23 8 -26 -11 -11 -109 18 -109 32 0
22 97 113 120 113 12 0 66 -30 120 -67z m808 -13 c134 -33 257 -60 275 -60 18
0 47 9 65 20 41 25 46 25 60 -4 9 -21 6 -28 -20 -55 -36 -37 -96 -55 -158 -47
-55 7 -148 -8 -213 -36 l-48 -21 -40 39 c-44 42 -189 217 -189 227 0 4 6 4 13
2 6 -2 121 -32 255 -65z m2682 -10 c47 -12 92 -25 100 -28 23 -9 -118 -18
-184 -12 -49 4 -61 9 -74 30 l-16 25 27 -24 27 -24 0 32 c0 27 3 32 18 28 9
-2 55 -14 102 -27z m-3002 -25 c28 -39 86 -108 222 -268 39 -46 38 -45 -80 32
-96 63 -220 166 -220 184 0 17 32 97 39 97 3 -1 21 -21 39 -45z m-693 -43 l59
-17 49 -93 c27 -51 46 -96 43 -99 -4 -4 -26 13 -51 37 -46 45 -77 49 -35 5 13
-14 19 -25 13 -25 -6 0 -23 18 -39 41 -38 55 -61 69 -114 69 -26 0 -55 6 -65
14 -18 13 -18 14 4 50 26 42 42 44 136 18z m292 -41 c28 -38 51 -87 45 -97
-12 -17 -572 -484 -580 -484 -5 0 -16 16 -25 35 -9 18 -29 42 -44 51 -15 10
-30 19 -32 21 -3 2 33 41 79 88 83 83 84 84 111 69 40 -20 64 -18 96 10 l28
24 -25 27 -25 27 42 -21 c62 -31 123 -27 123 8 0 10 -21 39 -46 65 -55 58 -51
72 7 22 48 -41 103 -56 125 -34 12 12 9 25 -25 95 l-39 80 21 22 c19 19 29 20
87 14 41 -4 69 -12 77 -22z m1103 -30 c0 -6 -4 -13 -10 -16 -5 -3 -10 -14 -10
-23 0 -9 -5 -24 -10 -32 -8 -13 -11 -12 -24 5 -10 14 -17 17 -27 9 -8 -6 -26
-14 -41 -18 -32 -7 -36 -22 -9 -31 13 -4 17 -12 13 -27 -4 -18 -2 -20 22 -14
35 9 40 -7 22 -75 -8 -29 -15 -43 -15 -30 -1 18 -5 21 -18 15 -10 -4 -32 -8
-49 -8 -30 0 -31 -1 -21 -23 8 -17 7 -27 -1 -35 -18 -18 -14 -37 6 -31 10 2
26 -5 37 -17 l19 -21 14 23 13 23 -5 -25 c-3 -14 -6 -51 -6 -82 0 -51 -2 -58
-20 -58 -11 0 -25 9 -32 20 -17 27 -24 25 -31 -9 -4 -18 -14 -30 -27 -34 -12
-3 -20 -9 -17 -14 2 -4 1 -16 -2 -26 -6 -16 -14 -8 -46 39 -40 61 -62 60 -26
-1 l20 -35 -39 -27 c-40 -26 -40 -26 -24 -52 9 -14 27 -38 41 -52 l24 -26 -13
-109 c-11 -104 -13 -110 -45 -137 l-33 -29 0 44 c0 25 9 71 20 103 11 33 19
63 18 67 -2 5 -20 -6 -41 -23 -43 -36 -46 -28 -21 58 9 30 13 57 10 60 -3 4
-17 -4 -31 -17 l-25 -23 0 21 c0 13 12 55 26 95 43 119 43 116 -8 75 l-46 -37
-6 29 c-8 44 9 121 44 190 36 72 24 78 -37 18 l-43 -42 0 31 c0 35 19 133 26
133 2 0 49 -22 104 -50 104 -52 115 -56 105 -40 -5 8 -143 117 -179 142 -7 5
-5 13 6 24 16 17 20 17 65 -4 53 -23 93 -36 93 -29 0 3 -25 22 -55 42 -30 21
-55 41 -55 45 0 3 31 16 68 28 51 16 94 22 168 22 67 1 107 5 124 15 30 17 40
18 40 6z m-1532 -25 c55 -29 80 -50 152 -128 45 -49 50 -58 32 -58 -12 0 -37
14 -56 30 -34 30 -61 26 -30 -4 33 -34 -5 -14 -53 27 -28 24 -78 53 -112 66
-64 23 -66 27 -28 69 26 28 37 28 95 -2z m702 -39 c0 -5 -4 -5 -10 -2 -5 3
-10 14 -10 23 0 15 2 15 10 2 5 -8 10 -19 10 -23z m14 -88 c57 -72 45 -68 -49
15 -63 55 -66 60 -49 73 16 12 21 11 34 -6 8 -11 37 -48 64 -82z m2102 53
c-15 -29 -64 -76 -88 -85 -27 -9 -1 -15 35 -8 20 5 37 6 37 2 0 -4 -22 -29
-50 -56 -53 -53 -60 -65 -32 -60 9 2 39 6 66 9 l50 6 -29 -30 c-15 -16 -43
-34 -62 -41 -18 -6 -33 -14 -33 -18 0 -3 24 -21 52 -39 l53 -32 -36 0 c-20 0
-47 8 -59 18 -19 16 -109 215 -113 252 -1 9 23 28 58 47 63 34 80 40 70 23 -3
-5 -2 -10 4 -10 5 0 13 5 17 11 8 13 67 50 72 45 2 -2 -3 -18 -12 -34z m-2907
-17 c75 -37 165 -127 135 -133 -9 -2 -28 8 -43 22 -15 14 -30 26 -34 26 -15 0
-6 -22 19 -45 38 -35 23 -31 -54 15 -36 22 -71 39 -77 37 -16 -6 -40 -55 -31
-64 5 -4 10 -3 13 2 14 37 21 39 63 20 l41 -19 -100 -100 c-69 -69 -101 -109
-101 -124 0 -29 86 -122 112 -122 11 0 37 13 58 30 l38 30 7 -46 c7 -52 24
-94 37 -94 11 0 10 17 -7 80 -8 30 -15 60 -15 67 0 11 227 208 347 301 47 36
61 42 103 42 63 0 73 -17 29 -49 -19 -14 -70 -61 -114 -105 -63 -64 -92 -103
-135 -185 -67 -125 -96 -162 -166 -203 -57 -34 -70 -54 -30 -44 20 5 29 -2 61
-52 44 -66 255 -285 400 -414 78 -70 238 -190 358 -270 7 -4 6 -17 -3 -37 -17
-41 -8 -48 29 -22 19 14 32 18 36 11 7 -11 -31 -77 -68 -117 -29 -32 -15 -39
26 -14 19 11 37 21 40 21 3 0 7 -26 9 -57 l3 -58 17 30 c17 29 17 27 11 -84
-5 -86 -3 -112 5 -107 8 4 12 0 12 -10 0 -10 -25 -42 -56 -72 l-57 -55 42 6
41 5 -17 -30 c-25 -42 -36 -44 -86 -15 -162 95 -263 208 -752 842 -115 149
-228 295 -253 325 -73 90 -74 93 -84 396 -8 251 -7 274 10 310 48 105 84 164
97 164 9 0 46 -16 84 -35z m2705 -147 c61 -158 104 -285 109 -326 l5 -42 -30
22 -31 22 7 -27 c12 -51 25 -74 55 -104 25 -25 28 -32 15 -37 -17 -6 -54 -8
-54 -3 0 2 -11 59 -24 126 -23 113 -24 125 -10 164 l15 41 -34 31 c-48 42 -94
174 -70 198 13 14 19 6 47 -65z m-2173 -55 c-21 -21 -42 -50 -44 -63 -3 -14
-11 -50 -17 -81 -7 -32 -9 -70 -6 -85 l8 -29 18 23 c22 27 34 29 20 3 -13 -26
-13 -108 1 -116 6 -4 8 -14 5 -22 -4 -11 -1 -13 15 -8 18 6 19 5 10 -13 -6
-11 -27 -34 -47 -50 -40 -34 -33 -48 21 -38 l34 7 -11 -38 c-10 -37 -5 -114
11 -156 8 -20 11 -17 34 33 25 55 25 55 26 20 0 -19 -6 -53 -14 -75 -8 -21
-12 -41 -10 -43 5 -5 58 32 75 53 40 48 40 -27 0 -106 -16 -33 -26 -59 -21
-59 5 0 27 7 50 15 l41 14 0 -40 c0 -43 16 -83 29 -75 8 5 23 -115 15 -123 -2
-2 -37 21 -77 52 -118 90 -358 322 -456 441 l-90 108 52 52 c30 30 72 89 101
141 72 132 129 208 199 265 70 56 90 51 28 -7z m3487 -20 c63 -11 42 -23 -40
-23 -46 0 -93 -3 -104 -6 -15 -4 -29 3 -48 23 -58 61 -55 63 57 36 56 -13 117
-27 135 -30z m-1676 -80 c3 -25 9 -29 51 -37 52 -9 55 -14 30 -44 -21 -23
-162 -47 -218 -36 -28 5 -35 11 -35 29 0 13 -5 25 -11 27 -6 2 -8 14 -4 31 10
39 40 32 40 -8 0 -23 5 -31 22 -33 15 -2 20 -8 16 -19 -4 -10 -2 -14 7 -11 22
7 45 78 32 99 -13 20 -4 27 40 28 22 1 27 -4 30 -26z m193 -3 c0 -26 33 -50
72 -50 20 0 21 -3 11 -25 -6 -13 -23 -28 -37 -33 -24 -8 -141 -5 -141 5 0 2 7
20 15 40 17 41 19 73 5 73 -5 0 -10 5 -10 11 0 6 17 9 43 7 37 -3 42 -6 42
-28z m160 13 c42 -20 45 -45 12 -94 -41 -61 -91 -49 -60 15 14 30 15 41 5 57
-11 17 -9 39 3 39 2 0 20 -8 40 -17z m-545 -104 c0 -25 -5 -28 -50 -38 -66
-14 -70 -14 -70 5 0 11 -5 14 -17 9 -60 -25 -68 -14 -27 35 24 28 28 30 44 15
20 -18 66 -6 76 20 6 14 9 14 25 -1 11 -9 19 -30 19 -45z m-670 1 c23 -12 15
-50 -11 -50 -23 0 -32 15 -24 40 7 23 10 24 35 10z m192 -42 c3 -18 8 -41 12
-50 11 -24 -31 -46 -50 -26 -19 18 -53 91 -47 100 2 5 21 8 42 8 36 0 39 -2
43 -32z m208 23 c0 -5 -9 -13 -20 -16 -11 -4 -27 -17 -36 -30 -19 -29 -61 -40
-97 -26 -27 10 -37 31 -16 31 6 0 24 11 41 25 23 19 41 25 79 25 27 0 49 -4
49 -9z m-350 -24 c0 -6 11 -33 25 -60 20 -37 22 -47 11 -47 -9 0 -22 14 -31
30 -19 38 -38 40 -24 4 12 -32 13 -31 -32 -39 -32 -6 -41 -3 -70 24 l-34 30
28 1 c15 0 39 7 52 16 16 10 34 14 50 10 28 -7 30 -4 15 25 -7 13 -7 19 0 19
5 0 10 -6 10 -13z m1210 -111 l22 -110 -29 -25 c-17 -14 -33 -34 -37 -45 -7
-19 -7 -19 57 1 26 8 20 -17 -13 -57 -42 -48 -40 -64 7 -55 l37 7 -37 -46
c-21 -25 -44 -61 -52 -81 -9 -21 -22 -35 -33 -35 -37 -1 22 -30 62 -31 l41 -1
-49 -17 c-61 -21 -67 -36 -24 -55 32 -14 33 -14 6 -15 -14 -1 -40 7 -56 16
-30 17 -30 18 -26 88 3 38 11 95 19 125 8 30 17 102 20 160 3 58 7 140 10 184
3 56 9 84 21 97 10 11 21 16 24 12 4 -5 17 -57 30 -117z m-1310 88 c0 -8 -4
-12 -10 -9 -5 3 -10 13 -10 21 0 8 5 12 10 9 6 -3 10 -13 10 -21z m973 -14
l67 -30 -17 -34 -16 -34 -66 30 c-36 16 -67 30 -68 32 -5 4 21 66 28 66 3 0
36 -14 72 -30z m-1053 -7 c0 -9 14 -32 32 -50 30 -31 30 -33 10 -33 -32 0 -70
20 -87 46 -14 21 -13 24 7 39 29 19 38 19 38 -2z m2406 -43 c26 0 153 -221
212 -371 29 -72 76 -248 69 -255 -2 -2 -29 33 -60 79 -31 45 -92 127 -136 182
-79 97 -80 100 -58 112 21 12 21 12 -11 19 -35 7 -92 64 -92 92 1 13 7 10 25
-13 14 -16 25 -25 26 -20 0 6 0 55 0 110 1 55 3 92 6 83 2 -10 11 -18 19 -18z
m-1392 -40 l66 -30 -25 -49 -25 -50 -61 27 c-34 14 -64 32 -66 40 -6 14 26 92
37 92 4 0 37 -14 74 -30z m-297 -12 c27 -13 50 -24 52 -25 9 -5 -22 -63 -34
-63 -11 0 -125 47 -133 55 -2 2 -1 13 3 26 6 17 9 19 16 8 8 -12 11 -11 20 4
13 22 19 22 76 -5z m-52 -87 c72 -33 71 -31 30 -111 -15 -29 -16 -30 -48 -16
-64 27 -107 50 -107 57 0 17 42 99 51 99 5 0 39 -13 74 -29z m575 -1 c40 -20
40 -21 40 -80 0 -33 -2 -60 -5 -60 -2 0 -33 14 -68 31 l-64 32 20 48 c12 27
25 49 29 49 5 0 27 -9 48 -20z m-286 -21 c36 -17 66 -33 66 -35 0 -3 -7 -18
-15 -34 l-15 -29 -67 30 c-37 17 -69 32 -71 34 -4 4 26 65 32 65 2 0 34 -14
70 -31z m-590 -119 c9 -9 -30 -100 -44 -100 -7 0 -142 59 -148 65 -2 2 8 26
22 54 l26 50 67 -30 c38 -17 72 -34 77 -39z m550 30 c36 -17 66 -33 66 -35 0
-8 -50 -105 -54 -105 -2 0 -33 13 -69 30 l-66 30 16 37 c18 45 32 73 37 73 2
0 33 -14 70 -30z m-298 -26 c51 -23 53 -25 44 -50 -6 -15 -13 -30 -15 -35 -5
-8 -122 36 -139 51 -5 5 -4 22 4 40 14 34 16 34 106 -6z m1768 -54 c5 -20 3
-19 -8 5 -7 17 -16 41 -20 55 -5 20 -3 19 8 -5 7 -16 16 -41 20 -55z m-2379
-84 c7 -16 5 -17 -16 -11 -13 3 -32 9 -41 11 -23 7 -23 11 4 70 l21 49 12 -50
c7 -27 16 -58 20 -69z m557 51 l66 -32 -23 -52 -24 -52 -70 31 c-39 17 -71 34
-71 38 0 15 41 100 48 100 4 -1 37 -15 74 -33z m604 2 c38 -16 70 -32 72 -34
2 -2 -7 -29 -21 -59 l-26 -55 -73 33 c-40 19 -72 38 -71 42 3 18 42 104 47
104 2 0 35 -14 72 -31z m-930 -10 c38 -17 71 -33 73 -35 6 -6 -21 -64 -30 -64
-10 0 -132 51 -142 61 -7 6 17 69 27 69 2 0 34 -14 72 -31z m619 -14 c33 -15
61 -28 63 -30 8 -7 -23 -55 -36 -55 -16 0 -132 50 -132 57 0 13 32 63 38 60 4
-3 34 -17 67 -32z m1589 -145 c42 -161 78 -401 74 -491 l-3 -64 -23 71 c-13
40 -61 149 -107 243 -46 94 -80 171 -75 171 18 0 34 108 23 155 -6 25 -9 45
-7 45 2 0 16 -18 30 -40 15 -22 30 -37 35 -34 5 3 9 24 9 46 0 23 2 39 4 37 2
-2 20 -65 40 -139z m-1577 33 c8 -3 5 -18 -9 -51 -11 -26 -24 -51 -28 -55 -4
-5 -37 6 -74 25 l-66 33 25 53 24 52 58 -26 c32 -14 63 -28 70 -31z m-747 -98
c0 -14 -3 -25 -6 -25 -16 0 -76 44 -66 48 24 8 11 24 -39 46 l-51 22 31 27 32
27 50 -60 c30 -37 49 -69 49 -85z m215 73 c14 -6 24 -16 21 -22 -33 -84 -40
-96 -55 -96 -10 0 -26 6 -36 14 -19 14 -19 15 5 65 26 56 27 56 65 39z m120
-54 c38 -15 65 -32 65 -40 0 -12 -34 -90 -45 -102 -6 -7 -135 59 -135 70 0 17
37 98 44 98 3 0 35 -12 71 -26z m871 -41 c49 -31 52 -39 27 -59 -23 -17 -33
-17 -33 0 0 16 -69 80 -77 72 -3 -3 0 -13 7 -21 10 -12 10 -19 2 -27 -7 -7
-12 -22 -12 -34 0 -13 -10 -30 -22 -38 -29 -21 -38 -20 -38 3 0 25 -38 71 -59
71 -15 0 -18 -9 -17 -51 1 -46 -2 -52 -23 -61 -32 -12 -49 -4 -53 22 -3 25
-72 70 -85 56 -4 -5 -2 -11 5 -13 17 -7 15 -23 -4 -23 -12 0 -14 -7 -9 -31 8
-36 -4 -49 -47 -49 -21 0 -28 5 -28 20 0 11 7 20 16 20 13 0 12 5 -6 30 -17
23 -19 34 -10 50 9 17 21 20 79 20 49 0 72 -4 81 -15 7 -8 22 -15 34 -15 20 0
20 1 -4 20 l-25 19 27 10 c14 5 42 13 61 16 30 6 38 3 65 -26 17 -18 34 -30
38 -26 4 4 0 15 -9 25 -21 23 -21 32 1 48 27 21 71 16 118 -13z m-1134 -24
c24 -18 28 -26 23 -49 -4 -19 0 -38 11 -55 14 -22 15 -29 4 -50 -7 -14 -17
-25 -20 -25 -4 0 -25 21 -45 46 l-38 46 13 54 c7 30 15 54 18 54 2 0 17 -9 34
-21z m488 -33 l24 -14 -39 -11 c-46 -12 -50 -10 -35 18 13 24 17 25 50 7z
m468 -38 c7 -7 12 -21 12 -31 0 -15 5 -18 23 -14 72 17 74 17 45 5 -16 -7 -28
-15 -28 -19 0 -4 12 -9 28 -11 19 -2 27 -9 27 -22 0 -14 -15 -24 -53 -39 -65
-25 -53 -37 36 -37 34 0 62 -3 62 -6 0 -4 -27 -35 -60 -71 -73 -77 -82 -107
-22 -65 51 35 53 35 42 7 -6 -15 -15 -35 -20 -46 -10 -17 -7 -19 26 -19 l37 0
-23 -25 c-30 -32 -82 -49 -131 -42 -22 3 -39 1 -39 -4 0 -12 39 -36 73 -44 53
-13 42 -28 -17 -23 -31 3 -56 1 -56 -4 0 -4 14 -20 30 -35 34 -30 37 -41 13
-50 -10 -4 -20 -10 -23 -14 -3 -4 -75 -58 -159 -119 -175 -125 -144 -118 -331
-73 -86 21 -257 76 -267 87 -2 1 4 54 13 117 20 142 14 237 -22 352 -31 98
-28 107 33 107 23 0 33 -5 38 -20 19 -60 125 -37 125 27 0 16 8 27 26 33 30
12 44 6 44 -19 0 -26 20 -41 54 -41 43 1 81 31 73 59 -4 17 0 24 19 32 45 16
62 11 66 -18 3 -25 7 -28 37 -25 19 1 46 8 60 15 21 10 26 19 23 45 -2 26 2
32 17 32 12 0 25 -11 33 -27 16 -34 58 -42 95 -18 20 14 24 22 19 46 -6 31 2
37 22 17z m-348 -13 c15 -18 15 -19 -30 -31 -30 -9 -35 -14 -36 -42 -1 -39 -2
-40 -42 -48 -34 -7 -33 -8 -47 78 -5 35 -4 38 22 44 15 3 33 7 38 9 28 9 84 3
95 -10z m-180 -33 c0 -12 -14 -22 -42 -32 -36 -13 -44 -20 -46 -45 -2 -16 -9
-33 -15 -37 -20 -13 -57 -9 -57 6 0 23 -29 46 -57 46 -20 0 -23 3 -14 14 13
15 98 42 107 33 11 -10 -6 -26 -21 -20 -11 4 -13 1 -9 -11 4 -10 15 -16 28
-14 18 3 21 9 19 41 l-2 37 54 0 c46 0 55 -3 55 -18z m-277 -247 c22 -70 35
-219 20 -228 -9 -6 -63 62 -63 78 0 3 12 10 26 15 36 14 27 39 -20 55 -60 21
-64 32 -17 46 22 7 41 15 41 19 0 3 -21 16 -46 28 -39 19 -44 25 -33 38 7 9
25 14 43 12 28 -3 32 -8 49 -63z m821 -367 c19 -27 14 -33 -13 -18 -20 10 -21
8 -21 -29 0 -26 -5 -41 -16 -45 -25 -9 -14 -50 15 -54 22 -4 22 -5 -14 -25
-47 -27 -54 -44 -24 -55 24 -9 19 -16 -22 -25 -21 -5 -28 -2 -39 17 -7 14 -10
36 -6 50 7 29 -1 32 -39 14 -21 -9 -31 -9 -46 0 -29 18 -37 15 -31 -14 3 -16
-3 -36 -17 -54 -27 -37 -26 -40 4 -40 15 0 32 -11 46 -29 15 -20 27 -27 42
-24 12 3 -39 -36 -113 -86 -74 -49 -136 -88 -138 -86 -11 11 32 56 58 62 35 7
37 14 10 38 -16 15 -19 26 -14 53 6 32 5 34 -12 27 -24 -11 -64 -11 -86 -1
-15 7 -18 3 -18 -26 0 -22 -7 -42 -20 -53 -26 -23 -25 -35 0 -35 24 0 70 -42
70 -64 0 -16 -96 -56 -135 -56 -27 0 -65 42 -65 72 0 33 27 74 77 116 62 51
534 392 544 392 4 0 15 -10 23 -22z m-724 -104 c41 -15 76 -29 78 -30 2 -1 -4
-14 -13 -28 -13 -20 -26 -26 -52 -26 -19 0 -33 -3 -31 -7 2 -5 10 -20 17 -35
11 -22 11 -33 2 -57 -12 -28 -14 -29 -44 -16 -27 11 -33 21 -43 67 -6 29 -16
70 -23 90 -15 45 -6 82 17 74 10 -2 51 -17 92 -32z m228 -69 c57 -13 105 -25
108 -27 3 -4 -99 -84 -173 -136 -32 -22 -33 -22 -93 -5 -65 20 -74 29 -34 39
19 5 31 1 46 -14 l21 -21 34 56 c18 30 33 57 33 59 0 2 -9 4 -19 4 -21 0 -61
44 -61 67 0 10 6 13 18 8 9 -3 64 -17 120 -30z m-127 -86 c-11 -19 -20 -24
-42 -21 -21 3 -28 10 -31 33 -3 18 0 29 8 29 6 0 17 6 23 14 10 12 15 11 34
-7 20 -20 21 -24 8 -48z m463 32 c3 -19 -1 -31 -17 -43 -19 -15 -22 -15 -44 0
-13 10 -20 23 -17 32 4 8 7 20 7 26 0 5 15 10 33 10 27 0 33 -4 38 -25z m-242
-161 c5 -18 2 -29 -12 -42 -18 -17 -22 -17 -44 -3 -21 14 -23 19 -14 43 14 37
60 39 70 2z m147 -136 c4 -3 -19 -64 -24 -64 -2 0 -34 14 -71 30 l-68 31 39
24 39 23 41 -20 c22 -11 42 -22 44 -24z m-107 -55 c37 -18 68 -36 68 -41 0
-19 -41 -88 -53 -88 -6 0 -44 14 -83 31 l-72 32 20 48 c12 29 27 49 36 49 8 0
46 -14 84 -31z m-328 -9 c36 -16 66 -32 66 -35 0 -3 -7 -19 -15 -36 -12 -23
-19 -27 -33 -20 -9 5 -43 21 -75 35 l-58 25 16 31 c8 16 19 30 24 30 5 0 39
-13 75 -30z m-40 -89 l65 -30 -21 -50 c-11 -28 -25 -51 -29 -51 -5 0 -40 14
-78 31 l-70 31 17 34 c8 19 19 34 24 34 4 0 8 7 8 15 0 21 9 19 84 -14z m300
-26 c42 -19 76 -37 76 -40 0 -12 -24 -55 -31 -55 -11 0 -132 52 -146 63 -10 7
-9 15 3 38 8 16 16 29 19 29 2 0 38 -16 79 -35z m-31 -90 c37 -15 67 -31 67
-36 0 -9 -38 -89 -46 -98 -4 -5 -133 48 -151 62 -16 12 32 111 50 104 7 -3 42
-17 80 -32z m-265 -40 c2 -2 -4 -17 -13 -35 -18 -35 -21 -35 -110 6 l-54 25
16 34 16 33 71 -30 c39 -17 72 -32 74 -33z m-55 -82 c21 -7 22 -4 -8 -63 l-25
-49 -70 32 c-38 17 -70 36 -70 41 0 6 9 30 20 54 l19 42 58 -26 c32 -14 66
-28 76 -31z m250 -3 c39 -17 73 -33 75 -35 2 -2 -4 -17 -12 -34 -18 -34 -13
-34 -119 13 l-58 25 16 31 c8 16 18 30 21 30 3 0 37 -14 77 -30z m-35 -91 l70
-31 -23 -50 c-12 -27 -27 -49 -31 -49 -5 0 -41 14 -81 31 l-72 32 25 49 c13
27 28 49 33 49 5 0 40 -14 79 -31z m-543 -20 c4 -6 -2 -21 -14 -33 -39 -42
-18 -51 25 -11 30 28 95 49 124 40 19 -6 60 -51 60 -65 0 -4 -13 -13 -30 -20
-16 -7 -30 -16 -30 -21 0 -19 22 -19 49 0 37 27 38 27 33 -9 -3 -18 0 -30 7
-30 6 0 11 9 11 20 0 32 44 70 80 70 42 0 67 -15 85 -50 8 -16 24 -32 36 -35
17 -6 20 -13 16 -35 -8 -39 4 -46 19 -10 18 41 42 49 66 20 18 -22 18 -22 -29
-56 -26 -18 -53 -45 -60 -59 -16 -30 -26 -31 -64 -5 -25 18 -27 24 -17 45 9
20 8 29 -7 45 -10 11 -26 22 -36 25 -28 9 -23 19 16 41 21 11 31 22 26 27 -15
15 -94 -35 -120 -76 -22 -34 -28 -37 -70 -37 -64 0 -76 10 -63 49 10 28 9 34
-9 49 -11 9 -34 22 -52 28 l-32 11 38 19 c35 17 49 34 27 34 -16 0 -86 -37
-104 -56 -12 -11 -15 -25 -10 -50 5 -29 3 -34 -13 -34 -11 0 -28 6 -39 14 -18
14 -18 16 18 90 37 74 50 87 63 65z m686 -219 c10 -6 19 -16 19 -22 0 -19 -32
-48 -52 -48 -10 0 -18 -4 -18 -10 0 -15 43 -12 66 4 13 10 25 11 35 5 8 -5 33
-9 56 -9 l43 0 -22 -45 c-23 -48 -32 -52 -61 -31 -15 12 -16 18 -7 35 9 17 8
21 -4 21 -9 0 -25 -18 -36 -39 -22 -44 -46 -56 -90 -46 -42 9 -53 27 -42 69
11 38 -1 57 -47 74 -24 8 -24 8 10 30 37 24 116 30 150 12z"/>
<path d="M4268 7095 c-34 -19 -66 -70 -73 -120 -6 -38 33 -220 64 -298 l11
-29 56 32 c31 17 58 30 60 28 2 -2 -9 -41 -23 -86 -26 -79 -26 -82 -8 -102 18
-19 18 -20 -1 -21 -10 0 0 -6 24 -14 24 -7 53 -22 64 -32 20 -18 21 -18 14 5
-9 28 0 28 49 -3 52 -32 64 -31 34 1 l-24 27 30 -6 c17 -3 38 -9 48 -12 9 -4
17 -3 17 3 0 6 -9 14 -20 17 -27 8 -25 19 5 39 36 23 31 40 -6 21 l-31 -16 24
31 c18 25 24 47 26 109 2 43 -1 103 -7 133 -14 65 -65 178 -82 178 -7 0 -8 -7
-4 -17 16 -39 17 -64 0 -89 -20 -31 -27 -30 -177 33 l-108 45 0 37 c0 77 62
114 145 86 58 -20 69 -13 24 14 -39 24 -93 26 -131 6z m286 -362 c22 -44 28
-87 16 -119 -27 -71 -100 -107 -165 -80 -38 16 -41 26 -24 75 9 25 17 31 39
31 44 0 90 44 90 86 0 42 23 46 44 7z"/>
<path d="M4524 6648 c-4 -5 0 -14 7 -19 20 -13 29 -11 29 5 0 18 -27 29 -36
14z"/>
<path d="M4404 6574 c3 -9 6 -18 6 -20 0 -2 7 -4 16 -4 11 0 14 5 10 16 -3 9
-6 18 -6 20 0 2 -7 4 -16 4 -11 0 -14 -5 -10 -16z"/>
<path d="M4398 6413 c-23 -26 -41 -64 -34 -71 8 -7 17 3 45 51 23 38 16 51
-11 20z"/>
<path d="M4444 6394 c-13 -32 -13 -56 1 -43 13 14 34 79 25 79 -6 0 -18 -16
-26 -36z"/>
<path d="M3860 6408 c0 -18 27 -44 37 -34 4 4 -3 16 -15 29 -18 17 -22 18 -22
5z"/>
<path d="M4010 6349 c-58 -22 -111 -42 -118 -44 -14 -5 147 -253 191 -293 26
-25 88 -44 104 -33 43 27 49 167 13 271 -31 88 -58 140 -73 140 -6 -1 -59 -19
-117 -41z m156 -86 c69 -195 41 -312 -58 -241 -27 19 -173 227 -180 257 -2 9
161 85 193 90 4 1 24 -47 45 -106z"/>
<path d="M3711 6252 c-13 -25 -14 -59 -2 -66 9 -6 25 73 17 81 -2 3 -9 -4 -15
-15z"/>
<path d="M2660 5025 c-19 -14 -42 -25 -51 -25 -10 0 -21 -4 -24 -10 -10 -15
42 -12 75 5 28 15 59 55 42 55 -4 0 -23 -11 -42 -25z"/>
<path d="M5777 119 c-27 -45 -47 -93 -47 -110 0 -19 21 -8 39 22 l19 32 4 -29
c2 -16 8 -29 13 -29 13 0 19 120 7 142 -8 13 -14 8 -35 -28z"/>
</g>
</svg>
