<?xml version="1.0" encoding="UTF-8" standalone="no"?>
<svg
   xmlns:dc="http://purl.org/dc/elements/1.1/"
   xmlns:cc="http://creativecommons.org/ns#"
   xmlns:rdf="http://www.w3.org/1999/02/22-rdf-syntax-ns#"
   xmlns:svg="http://www.w3.org/2000/svg"
   xmlns="http://www.w3.org/2000/svg"
   xmlns:sodipodi="http://sodipodi.sourceforge.net/DTD/sodipodi-0.dtd"
   xmlns:inkscape="http://www.inkscape.org/namespaces/inkscape"
   version="1.0"
   width="850.000000pt"
   height="850.000000pt"
   viewBox="0 0 850.000000 850.000000"
   preserveAspectRatio="xMidYMid meet"
   id="svg90"
   sodipodi:docname="46 #36940.svg"
   inkscape:version="0.92.2 5c3e80d, 2017-08-06">
  <defs
     id="defs94" />
  <sodipodi:namedview
     pagecolor="#ffffff"
     bordercolor="#666666"
     borderopacity="1"
     objecttolerance="10"
     gridtolerance="10"
     guidetolerance="10"
     inkscape:pageopacity="0"
     inkscape:pageshadow="2"
     inkscape:window-width="1920"
     inkscape:window-height="978"
     id="namedview92"
     showgrid="false"
     inkscape:zoom="0.41647059"
     inkscape:cx="699.06802"
     inkscape:cy="532.66105"
     inkscape:window-x="0"
     inkscape:window-y="1"
     inkscape:window-maximized="1"
     inkscape:current-layer="svg90" />
  <metadata
     id="metadata2">
Created by potrace 1.14, written by Peter Selinger 2001-2017
<rdf:RDF>
  <cc:Work
     rdf:about="">
    <dc:format>image/svg+xml</dc:format>
    <dc:type
       rdf:resource="http://purl.org/dc/dcmitype/StillImage" />
  </cc:Work>
</rdf:RDF>
</metadata>
  <g
     transform="translate(0.000000,850.000000) scale(0.100000,-0.100000)"
     fill="#000000"
     stroke="none"
     id="g88">
    <path
       d="M0 4250 l0 -4250 4250 0 4250 0 0 4250 0 4250 -2080 0 c-1147 0 -2080 -4 -2080 -9 0 -4 29 -15 65 -24 36 -9 80 -23 98 -31 18 -8 47 -19 65 -25 18 -5 45 -18 60 -28 15 -11 40 -25 56 -33 49 -25 134 -108 170 -169 49 -79 93 -218 105 -331 14 -118 60 -306 95 -384 33 -74 138 -179 222 -221 76 -37 189 -120 236 -173 95 -105 128 -191 128 -330 0 -52 7 -142 15 -201 37 -256 75 -295 415 -427 52 -20 114 -45 137 -55 23 -11 46 -19 50 -19 12 0 208 -85 293 -128 114 -57 213 -159 276 -287 29 -58 58 -134 68 -180 10 -44 27 -102 38 -130 29 -71 37 -125 37 -245 0 -100 -3 -139 -28 -310 -19 -126 -80 -237 -203 -367 -114 -122 -222 -278 -250 -362 -43 -130 -44 -198 -3 -533 2 -16 15 -59 30 -98 15 -38 27 -73 27 -77 0 -4 8 -24 18 -43 27 -53 92 -212 95 -235 2 -11 8 -40 14 -65 24 -104 4 -246 -50 -354 -44 -85 -83 -141 -160 -224 -37 -40 -112 -126 -166 -190 -54 -64 -117 -139 -141 -167 -24 -27 -60 -81 -79 -119 -49 -98 -49 -162 1 -275 20 -45 40 -87 46 -94 74 -93 137 -147 172 -147 11 0 44 16 74 36 79 52 151 176 115 199 -5 3 -12 -4 -16 -15 -4 -13 -15 -20 -30 -20 -29 0 -41 32 -32 87 11 65 60 99 121 82 79 -22 134 -107 123 -189 -10 -79 -59 -192 -101 -234 l-39 -39 -111 6 c-61 3 -127 12 -146 19 -80 30 -169 87 -228 146 -34 34 -64 62 -67 62 -2 0 -12 -15 -21 -32 -72 -143 -137 -202 -250 -231 -69 -18 -220 -37 -291 -37 -28 0 -78 -3 -112 -6 -54 -6 -64 -10 -76 -34 -8 -15 -16 -38 -19 -51 -2 -13 -15 -55 -29 -94 -13 -38 -34 -98 -45 -131 l-20 -62 44 -43 c61 -60 74 -114 52 -220 -12 -58 -88 -108 -163 -109 -52 0 -83 22 -91 65 -3 20 -10 37 -14 40 -4 2 -29 -23 -56 -58 -92 -116 -194 -211 -274 -253 -111 -58 -187 -84 -305 -103 -237 -37 -229 -37 -345 4 -71 25 -196 77 -238 98 -89 46 -161 77 -177 77 -10 0 -43 11 -74 24 -201 85 -360 104 -511 61 -225 -63 -479 -115 -560 -115 -118 1 -269 46 -375 112 -202 127 -324 290 -343 463 -5 47 -6 207 -1 384 11 387 2 432 -107 573 -24 31 -44 63 -44 72 0 32 65 18 162 -32 188 -99 303 -180 437 -308 60 -57 113 -104 119 -104 6 0 26 28 45 63 41 72 68 100 119 122 105 43 311 -12 394 -106 12 -13 38 -69 59 -124 57 -150 147 -298 295 -485 48 -61 66 -61 173 1 108 62 146 68 198 28 26 -21 39 -43 58 -100 45 -140 85 -230 111 -248 85 -59 249 -100 295 -73 17 9 18 20 16 151 -1 23 -15 41 -72 90 -65 57 -73 61 -120 61 l-49 0 1 -47 c0 -27 4 -69 8 -94 4 -25 5 -54 1 -64 -6 -16 -7 -16 -23 -1 -9 10 -18 32 -19 49 -4 68 -6 93 -9 132 -6 74 9 121 52 160 34 30 46 35 91 35 40 0 65 -8 117 -36 36 -20 75 -44 86 -54 26 -22 98 -50 130 -50 35 0 53 41 65 152 18 158 34 184 125 203 l54 10 -60 70 c-94 110 -169 221 -215 320 -53 114 -55 124 -61 328 l-5 168 -26 -38 c-46 -68 -175 -225 -258 -313 -144 -152 -172 -211 -161 -338 7 -90 11 -103 41 -151 30 -46 56 -56 124 -47 33 4 56 15 79 38 45 44 50 79 19 163 -14 38 -23 72 -20 77 7 11 54 -15 82 -44 24 -27 33 -67 35 -165 2 -148 -122 -251 -279 -229 -52 7 -138 48 -177 85 -36 33 -107 152 -119 200 -44 168 -45 235 -8 382 20 75 56 169 81 209 5 8 12 22 16 30 3 8 21 48 40 89 18 41 32 76 30 77 -2 2 -35 -5 -73 -16 -80 -23 -137 -25 -215 -6 -125 29 -195 99 -214 216 -20 118 8 231 72 293 96 91 223 15 223 -133 0 -62 -13 -64 -30 -5 -19 69 -78 88 -125 40 -34 -33 -32 -73 7 -131 83 -122 201 -123 314 -3 45 48 52 63 63 120 13 67 3 166 -22 214 -54 104 -170 198 -343 274 -326 144 -354 171 -405 386 -30 128 -30 218 0 310 13 39 24 77 26 86 13 64 115 308 144 343 12 14 33 75 60 174 15 55 20 99 18 175 -2 97 -4 106 -44 188 -23 47 -70 127 -104 179 -34 51 -73 114 -86 139 -13 25 -27 53 -33 61 -17 26 -67 142 -100 230 -17 47 -42 114 -56 150 -28 75 -30 83 -46 206 -8 68 -8 110 0 165 19 118 22 131 48 188 13 29 24 61 24 70 0 26 110 238 175 336 65 98 229 270 338 355 72 55 209 210 251 283 30 51 84 186 91 227 3 17 16 70 29 118 29 106 53 263 66 437 5 72 12 144 15 160 10 52 75 135 142 179 39 26 62 48 62 60 3 72 105 177 207 212 30 10 54 22 54 26 0 4 -927 8 -2060 8 l-2060 0 0 -4250z"
       id="path4"
       style="fill:none" />
    <path
       d="M4146 8459 c-143 -35 -266 -148 -266 -244 0 -21 -6 -27 -32 -32 -47 -9 -111 -79 -138 -149 -19 -48 -24 -89 -31 -226 -4 -93 -10 -176 -13 -185 -3 -10 -8 -42 -10 -71 -10 -100 -86 -355 -127 -422 -15 -25 -30 -63 -26 -66 2 -2 53 44 113 104 114 113 198 224 240 318 24 55 24 56 4 61 -20 5 -20 7 -4 24 16 18 15 19 -7 27 l-23 9 27 18 c21 14 27 25 27 54 0 48 -6 53 -42 35 -42 -22 -49 -7 -11 24 38 33 53 61 53 102 0 39 27 92 79 155 22 27 43 62 47 79 16 81 93 156 158 156 14 0 47 -10 72 -22 38 -17 51 -31 70 -72 28 -60 29 -100 9 -216 -17 -96 -20 -186 -6 -195 10 -5 27 95 22 129 -2 11 2 17 11 14 8 -3 15 -27 18 -64 3 -32 9 -65 13 -72 13 -20 25 -5 19 24 -3 15 1 64 8 111 16 98 5 167 -35 219 -16 21 -21 35 -14 39 16 10 45 -21 74 -78 20 -41 25 -66 25 -128 l0 -77 52 -13 c79 -18 149 -53 185 -91 32 -33 56 -81 46 -91 -2 -3 -43 19 -89 49 -77 50 -169 94 -195 94 -13 0 -1 -42 15 -52 6 -4 23 -8 38 -8 40 0 132 -44 152 -71 9 -13 16 -34 16 -46 0 -20 4 -22 26 -17 20 5 33 0 57 -23 40 -37 83 -64 90 -56 4 3 -9 24 -27 47 -41 50 -68 103 -102 197 -33 91 -18 114 19 29 25 -58 47 -79 47 -42 -2 74 -46 231 -94 336 -27 57 -32 75 -19 65 30 -24 41 -41 78 -128 62 -142 79 -239 55 -321 -8 -30 -6 -39 15 -70 42 -60 122 -137 154 -148 17 -6 31 -9 31 -8 0 2 -7 21 -16 41 -8 21 -19 61 -24 89 -15 90 -59 329 -70 382 -16 75 -71 182 -124 241 -76 84 -187 142 -386 204 -110 34 -179 42 -234 28z"
       id="path6"
       style="fill:#c71585" />
    <path
       d="M4095 8168 c-30 -23 -64 -90 -65 -125 0 -18 4 -20 27 -14 20 5 37 24 60 64 44 79 49 97 25 97 -11 0 -32 -10 -47 -22z"
       id="path8"
       style="fill:#ff1493" />
    <path
       d="M4211 8106 c-23 -30 -41 -59 -41 -65 0 -19 40 2 59 33 11 17 26 39 33 48 9 13 10 20 1 29 -8 8 -22 -3 -52 -45z"
       id="path10"
       style="fill:#ff1493" />
    <path
       d="M3998 7990 c-17 -11 -61 -76 -64 -97 -1 -6 -7 -28 -14 -48 -15 -45 -10 -51 27 -32 49 26 104 37 125 26 27 -15 16 -24 -49 -39 -89 -21 -144 -70 -127 -114 4 -12 17 -9 67 15 74 35 101 36 147 7 l35 -23 -32 -3 c-31 -3 -32 -4 -19 -25 21 -33 29 -90 18 -130 -8 -27 -7 -40 4 -56 18 -24 11 -27 -99 -37 -42 -3 -80 -11 -83 -16 -14 -22 9 -81 44 -116 55 -55 252 -182 282 -182 14 0 84 31 155 68 121 64 132 72 157 118 46 82 79 175 68 193 -7 13 -10 11 -19 -12 -6 -16 -11 -36 -11 -46 0 -49 -78 -57 -162 -17 -39 19 -48 27 -35 32 15 5 15 8 2 27 -19 27 -19 70 -1 106 14 27 14 29 -19 61 -41 40 -51 35 -35 -15 7 -20 9 -39 6 -42 -3 -3 -24 12 -46 34 l-40 41 -1 113 c0 63 0 135 1 160 1 46 1 46 -37 52 -59 10 -226 8 -245 -3z m349 -663 c13 -6 22 -14 21 -19 -2 -5 -26 -25 -53 -46 -28 -21 -50 -43 -50 -50 0 -7 -3 -12 -7 -12 -5 0 -15 0 -22 0 -8 0 -21 11 -28 24 -7 14 -28 43 -46 65 -33 40 -33 40 -10 45 13 3 32 7 43 10 29 6 124 -4 152 -17z"
       id="path12"
       style="fill:#b0e0e6" />
    <path
       d="M4199 7301 c27 -25 83 -28 101 -6 11 13 7 15 -23 15 -19 0 -50 3 -68 6 l-34 5 24 -20z"
       id="path14"
       style="fill:#ff69b4" />
    <path
       d="M3980 7660 c-39 -39 -24 -47 46 -25 38 12 60 -78 28 -123 -30 -44 -91 -18 -105 46 l-7 27 -1 -26 c-1 -35 39 -93 67 -97 15 -2 34 8 57 31 41 41 45 78 15 136 -28 55 -65 66 -100 31z"
       id="path16"
       style="fill:#0000cd" />
    <path
       d="M4494 7631 c-50 -30 -70 -111 -36 -148 9 -10 14 -14 10 -8 -23 36 -2 132 27 121 8 -3 32 -10 53 -16 22 -5 43 -17 46 -26 8 -20 -9 -54 -42 -81 -15 -13 -22 -23 -16 -23 23 0 74 70 74 100 0 41 -18 76 -47 89 -31 14 -33 14 -69 -8z"
       id="path18"
       style="fill:#0000cd" />
    <path
       d="M4690 7548 c0 -22 50 -76 80 -86 16 -6 30 -8 30 -4 0 12 -89 102 -100 102 -5 0 -10 -5 -10 -12z"
       id="path20"
       style="fill:#ff1493" />
    <path
       d="M4890 7448 c50 -14 58 -25 26 -38 -42 -16 -75 -12 -148 17 -38 14 -71 24 -74 20 -3 -3 3 -36 15 -74 11 -37 34 -117 51 -178 47 -163 58 -191 100 -244 45 -57 74 -79 154 -117 54 -25 178 -136 246 -219 66 -80 122 -187 162 -305 26 -80 28 -82 23 -35 -25 251 -139 494 -324 688 -93 97 -74 101 25 6 142 -138 231 -276 283 -439 38 -121 41 -141 49 -335 l7 -161 61 -74 c69 -84 120 -160 209 -309 40 -67 68 -103 85 -109 14 -5 88 -30 165 -55 166 -54 303 -103 327 -117 10 -5 23 -10 30 -10 28 0 210 -80 262 -115 71 -47 163 -146 189 -204 16 -37 20 -69 21 -156 1 -60 -1 -126 -3 -145 -6 -46 -68 -201 -88 -220 -14 -13 -15 -13 -9 5 4 11 23 81 43 155 30 115 34 147 31 215 -7 131 -63 227 -178 305 -33 22 -62 40 -65 40 -3 0 -35 14 -70 30 -35 17 -70 30 -78 30 -7 0 -17 4 -22 9 -6 5 -48 23 -95 39 -47 17 -132 49 -190 72 -58 23 -118 45 -135 50 -16 4 -49 15 -72 24 -29 10 -43 11 -43 4 0 -17 49 -99 80 -133 14 -16 61 -78 103 -136 106 -148 277 -311 375 -357 65 -31 75 -40 94 -80 41 -90 56 -152 47 -185 -4 -18 -10 -54 -13 -81 -7 -83 -20 -86 -128 -37 -51 24 -113 60 -138 80 -25 21 -65 49 -90 64 -78 45 -128 95 -160 160 -57 116 -69 133 -249 362 -61 77 -151 193 -202 258 -50 65 -117 148 -149 184 -32 36 -80 98 -107 137 -26 39 -50 73 -53 76 -11 10 -118 186 -140 230 -13 25 -26 47 -29 50 -4 3 -27 40 -51 83 -24 42 -46 77 -50 77 -3 0 -11 -14 -17 -30 -8 -21 -20 -32 -41 -36 -35 -7 -42 -32 -42 -152 0 -80 10 -107 68 -184 l35 -47 67 6 c92 8 105 -1 130 -90 30 -102 33 -109 114 -221 41 -56 100 -153 133 -216 55 -105 127 -277 138 -325 2 -11 15 -58 28 -105 34 -118 76 -313 82 -385 3 -33 17 -127 31 -210 31 -178 29 -334 -6 -530 -11 -66 -23 -139 -25 -162 -4 -40 -50 -275 -62 -318 -3 -13 -2 -17 5 -10 8 9 106 272 117 315 2 8 13 42 25 75 12 33 23 67 25 76 2 9 15 52 28 96 14 44 28 99 32 124 3 24 12 69 20 99 14 54 24 128 45 306 5 50 10 175 10 278 0 115 4 186 10 186 20 0 25 -60 24 -275 0 -193 -4 -238 -27 -368 -15 -82 -27 -163 -27 -181 0 -18 -13 -75 -30 -126 -16 -51 -30 -97 -30 -102 0 -5 -11 -37 -24 -71 -34 -87 -134 -405 -141 -447 -3 -19 -10 -51 -15 -70 -12 -44 -12 -133 0 -185 5 -22 11 -62 14 -89 6 -46 38 -182 72 -306 71 -253 85 -313 90 -390 4 -70 2 -92 -14 -125 l-19 -40 -6 105 c-12 185 -24 242 -92 445 -32 92 -71 280 -81 380 l-8 80 -8 -85 c-5 -47 -10 -164 -11 -260 -2 -185 5 -236 49 -365 41 -121 67 -262 60 -335 -18 -197 -106 -373 -234 -469 -82 -62 -202 -125 -214 -113 -11 11 -13 9 107 80 39 23 93 65 122 94 53 54 121 164 129 207 3 13 9 31 13 40 19 36 33 157 28 230 -6 80 -29 185 -52 236 -42 93 -81 349 -71 464 4 45 11 94 16 110 4 17 11 61 14 98 5 59 4 63 -5 28 -26 -107 -50 -215 -54 -246 -3 -19 -16 -85 -30 -146 -14 -62 -25 -124 -25 -138 0 -15 -11 -88 -24 -164 -16 -90 -26 -194 -30 -306 -3 -93 -12 -201 -21 -240 -29 -135 -98 -205 -245 -250 -107 -33 -183 -84 -232 -155 -42 -61 -46 -76 -20 -65 9 4 148 11 307 16 194 6 312 13 355 23 36 9 82 15 103 16 60 0 101 26 168 104 63 74 87 113 95 149 2 12 -3 78 -12 147 -9 72 -14 165 -12 220 4 81 10 109 42 189 43 105 44 143 5 247 -11 29 -22 64 -24 76 -3 13 -16 52 -30 88 -15 36 -29 76 -31 90 -3 14 -16 55 -30 91 -13 36 -26 74 -28 85 -2 10 -11 47 -20 80 -9 34 -16 93 -16 131 0 122 70 313 161 438 24 33 61 85 83 117 21 31 67 91 103 134 72 86 83 104 89 142 7 42 45 153 67 197 11 22 63 100 116 173 147 203 164 229 188 274 27 53 53 112 69 158 l12 35 1 -50 c1 -80 -37 -146 -222 -385 -116 -150 -186 -307 -222 -498 -4 -17 -7 -76 -7 -130 0 -82 5 -112 33 -196 17 -54 54 -139 81 -189 28 -51 52 -99 53 -107 2 -8 13 -33 24 -56 38 -77 74 -242 68 -314 -8 -106 -31 -141 -193 -301 -183 -180 -275 -293 -304 -370 -36 -101 -44 -172 -31 -277 20 -151 63 -252 136 -322 l37 -35 -13 30 c-7 17 -21 41 -30 55 -41 62 -81 164 -81 209 1 69 55 216 109 295 26 38 126 156 223 261 191 209 252 299 295 429 42 130 28 251 -46 399 -16 31 -27 57 -24 57 3 0 -4 19 -16 42 -12 23 -37 87 -56 142 -52 151 -77 409 -53 537 6 30 13 66 15 80 18 99 121 260 264 411 67 71 131 149 145 177 44 86 87 272 95 411 10 170 7 204 -29 277 -36 72 -143 185 -283 298 -82 66 -99 85 -78 85 17 0 169 -118 244 -190 41 -38 77 -70 80 -70 7 0 -3 30 -37 123 -35 92 -51 122 -102 188 -54 70 -125 123 -239 178 -49 24 -106 51 -125 61 -19 10 -82 37 -140 60 -58 23 -118 48 -135 56 -29 12 -127 48 -225 82 -103 35 -220 150 -235 229 -2 15 -9 51 -14 80 -6 28 -15 120 -21 205 -15 213 -21 241 -69 308 -67 94 -136 151 -294 244 -112 65 -161 110 -197 181 -29 55 -45 63 -130 63 -53 0 -54 0 -20 -10z m303 -327 c66 -46 201 -190 240 -256 39 -67 85 -166 91 -199 4 -23 40 -141 82 -271 63 -194 131 -327 237 -468 53 -70 116 -124 198 -169 70 -39 89 -52 89 -60 0 -16 -34 -7 -108 30 -132 64 -273 217 -362 392 -32 63 -80 182 -80 200 0 8 -11 50 -25 92 -13 42 -26 87 -29 100 -7 39 -65 178 -123 296 -52 105 -65 122 -165 221 -59 60 -108 111 -108 115 0 13 23 5 63 -23z m1346 -1572 c89 -45 204 -160 252 -254 35 -68 81 -215 94 -302 5 -34 4 -43 -8 -43 -12 0 -43 85 -53 147 -4 23 -26 85 -40 111 -8 15 -14 32 -14 38 0 16 -65 111 -104 153 -82 88 -208 154 -321 167 -31 4 -58 11 -62 17 -4 7 27 8 92 4 84 -5 108 -10 164 -38z m-41 -383 c42 -27 55 -41 105 -112 62 -90 130 -330 113 -398 -11 -44 -21 -21 -45 98 -34 172 -112 326 -198 391 -18 15 -31 31 -28 36 8 13 11 12 53 -15z m-679 -3466 c-14 -62 -79 -169 -130 -216 -46 -41 -120 -85 -201 -117 -70 -28 -178 -46 -178 -31 0 5 35 20 78 33 210 63 379 218 424 388 18 68 24 17 7 -57z"
       id="path22"
       style="fill:#c71585" />
    <path
       d="M3725 7249 c-132 -155 -395 -417 -465 -464 -152 -101 -283 -238 -377 -395 -86 -144 -180 -348 -205 -445 -29 -118 -32 -284 -4 -365 10 -30 19 -62 21 -70 5 -24 61 -170 90 -235 46 -103 148 -299 169 -325 38 -47 129 -215 151 -279 57 -167 20 -397 -99 -621 -38 -70 -113 -275 -131 -354 -12 -54 -6 -205 10 -267 31 -120 78 -185 176 -243 33 -20 65 -36 70 -36 20 0 317 -151 360 -184 26 -19 68 -66 94 -106 26 -39 49 -69 51 -67 6 5 -37 139 -59 182 -57 112 -103 164 -351 389 -53 49 -116 114 -139 145 -42 57 -87 163 -87 206 0 26 26 101 43 123 18 23 19 4 2 -29 -25 -48 -16 -141 21 -210 30 -56 131 -161 339 -354 65 -60 133 -132 150 -160 35 -54 92 -181 100 -224 28 -136 28 -175 0 -318 -14 -75 -115 -196 -190 -227 -137 -58 -305 56 -305 207 0 55 34 108 78 123 34 11 33 24 -1 24 -22 0 -93 -69 -94 -91 -1 -8 -8 -39 -16 -70 -19 -69 -9 -135 31 -199 33 -54 75 -84 147 -105 71 -20 119 -19 196 6 116 37 153 75 231 239 81 170 91 201 91 280 0 116 -37 188 -226 445 -201 273 -317 494 -346 665 -19 106 -31 230 -31 314 0 44 -2 77 -4 75 -3 -3 -10 -35 -16 -73 -10 -63 -51 -179 -70 -200 -5 -4 -5 9 0 30 5 22 11 59 14 84 3 25 15 88 26 140 38 181 21 359 -53 585 -72 218 -120 383 -129 448 -23 164 12 409 83 577 53 126 186 337 280 444 45 52 139 181 139 192 0 4 9 17 19 28 25 27 181 330 219 426 55 135 96 245 99 265 2 10 11 31 20 45 26 39 28 4 4 -69 -12 -33 -21 -65 -21 -72 0 -18 -128 -312 -188 -433 -80 -163 -162 -292 -290 -460 -158 -206 -231 -336 -271 -479 -59 -208 -67 -398 -25 -562 14 -55 28 -111 30 -125 3 -14 16 -59 30 -102 14 -42 27 -88 30 -103 2 -14 15 -60 29 -103 13 -42 27 -95 30 -117 16 -114 17 -119 26 -102 5 8 10 27 11 41 1 14 6 26 11 26 5 0 6 -71 1 -167 -9 -195 -9 -171 1 -343 5 -88 16 -166 32 -225 13 -49 26 -101 29 -115 16 -76 157 -305 349 -565 122 -166 139 -195 180 -300 6 -15 12 -3 22 50 11 55 12 86 4 145 -6 41 -16 122 -21 180 -6 58 -13 112 -15 120 -2 8 -6 37 -10 65 -3 27 -17 83 -30 125 -12 41 -40 131 -61 200 -36 120 -52 161 -115 298 -16 34 -29 64 -29 67 0 2 -10 28 -23 57 -30 67 -79 213 -83 243 -1 13 -14 64 -28 114 -14 49 -28 109 -31 133 -3 24 -10 70 -15 103 -34 219 -44 383 -23 361 6 -5 8 -25 37 -281 8 -71 24 -159 35 -195 11 -35 23 -80 26 -100 3 -19 9 -46 14 -60 5 -14 17 -52 26 -85 34 -121 79 -243 136 -367 33 -69 59 -129 59 -132 0 -3 11 -30 25 -60 14 -30 25 -59 25 -65 0 -6 11 -43 24 -83 13 -40 27 -91 31 -113 3 -22 15 -71 26 -108 33 -111 49 -241 56 -439 6 -209 1 -250 -62 -428 -39 -111 -75 -188 -173 -363 -40 -70 -72 -130 -72 -132 0 -3 -11 -29 -25 -57 -14 -29 -29 -66 -34 -83 -5 -16 -33 -91 -61 -165 -49 -127 -52 -139 -46 -200 8 -77 52 -221 83 -270 45 -71 57 -83 116 -121 55 -36 66 -39 129 -39 76 0 108 12 151 57 23 25 54 93 42 93 -2 0 -17 -12 -32 -26 -98 -92 -214 -81 -284 28 -32 49 -34 58 -37 156 -7 168 2 186 203 407 212 234 277 332 322 491 26 93 28 109 27 277 -1 97 2 177 6 177 4 0 9 -35 11 -77 8 -197 2 -313 -28 -503 -29 -177 -27 -234 11 -412 30 -141 75 -235 180 -373 97 -128 115 -149 123 -142 3 4 1 114 -5 244 -8 173 -16 264 -32 333 -12 52 -26 122 -31 155 -6 33 -19 89 -29 125 -10 36 -21 79 -24 95 -6 33 -43 169 -87 315 -16 53 -29 102 -29 109 0 7 -11 52 -25 100 -14 48 -27 103 -30 122 -2 19 -16 82 -30 141 -14 59 -25 119 -25 133 0 13 -10 64 -21 112 -12 48 -22 96 -22 106 -1 9 -5 17 -10 17 -5 0 -7 -10 -4 -22 32 -133 40 -439 14 -536 -9 -35 -17 -75 -17 -89 0 -30 -43 -156 -81 -240 -16 -33 -29 -65 -29 -70 0 -4 -7 -21 -16 -38 -18 -34 -56 -136 -116 -310 -72 -211 -77 -221 -93 -196 -13 22 12 101 100 321 68 167 79 193 129 315 26 61 48 119 51 130 2 11 12 56 21 100 25 115 26 495 2 615 -10 47 -20 103 -23 125 -7 41 -38 157 -83 305 -15 47 -27 92 -28 100 -2 23 -84 271 -100 301 -7 15 -15 37 -18 50 -2 13 -14 53 -27 89 -20 57 -23 90 -26 270 -4 204 3 283 34 405 8 33 16 65 17 70 8 48 53 174 61 172 15 -6 8 -61 -24 -172 -38 -136 -52 -227 -58 -381 -8 -200 22 -357 111 -579 35 -85 120 -369 146 -483 7 -29 14 -51 16 -49 3 2 0 26 -6 51 -6 26 -12 66 -14 89 -3 23 -13 92 -24 152 -25 135 -32 181 -37 231 -1 22 -10 93 -20 159 -29 200 -9 398 57 575 11 30 22 64 24 75 11 61 119 276 216 433 18 29 19 36 6 74 -9 28 -20 43 -33 45 -11 1 -45 7 -75 11 -30 5 -75 14 -100 21 -25 7 -72 19 -105 28 -33 8 -84 25 -112 39 -29 13 -59 21 -67 18 -8 -3 -17 -1 -21 5 -3 6 -21 11 -39 11 -51 0 -70 20 -64 67 5 35 -1 50 -53 134 -55 90 -57 95 -42 118 14 22 14 25 -1 33 -49 27 -69 55 -68 93 2 63 14 68 119 62 l93 -5 0 59 c0 32 -1 61 -2 63 -4 6 34 46 42 46 8 0 44 -79 71 -157 10 -29 47 -91 83 -138 36 -48 66 -95 66 -107 0 -35 31 -128 43 -129 57 -5 327 -3 327 2 0 8 -101 96 -140 122 -15 11 -44 17 -78 17 -60 0 -119 26 -140 61 -23 37 -63 151 -71 201 -5 26 -5 68 -1 93 6 41 4 50 -23 83 -36 46 -65 101 -82 160 -18 57 -29 173 -21 205 15 61 140 136 306 182 76 21 104 35 139 66 l44 39 -13 46 c-14 49 -20 55 -165 153 -83 56 -90 59 -97 41 -9 -25 -30 -26 -51 -2 -13 14 -16 29 -11 65 6 43 -5 78 -25 77 -3 -1 -60 -64 -126 -141z m-145 -338 c0 -5 -28 -28 -62 -52 -35 -23 -113 -82 -175 -132 -140 -112 -224 -214 -353 -427 -80 -133 -120 -379 -120 -747 0 -208 11 -289 54 -391 27 -64 17 -83 -20 -37 -23 29 -27 42 -66 205 -60 255 4 806 119 1021 104 196 328 418 536 534 63 35 87 42 87 26z m-310 -1750 c0 -191 9 -333 30 -471 6 -36 12 -90 15 -120 2 -30 16 -101 30 -157 14 -56 25 -108 25 -116 0 -8 11 -48 25 -88 14 -41 27 -83 30 -94 4 -18 90 -206 202 -445 59 -125 85 -183 87 -195 2 -5 12 -42 24 -81 12 -40 26 -105 32 -146 5 -41 14 -94 19 -119 7 -29 7 -47 0 -54 -11 -11 -31 13 -23 27 3 4 -7 58 -21 120 -15 62 -28 123 -30 135 -6 42 -74 209 -122 298 -26 50 -53 104 -59 120 -7 17 -45 104 -86 195 -41 91 -77 174 -80 185 -3 11 -15 54 -27 96 -11 43 -22 92 -25 110 -2 19 -16 95 -30 169 -14 74 -30 209 -36 300 -11 186 -14 513 -3 523 19 20 23 -10 23 -192z"
       id="path24"
       style="fill:#c71585" />
    <path
       d="M4664 7337 c-3 -10 -3 -34 0 -55 16 -94 15 -111 -6 -118 -28 -9 -38 5 -45 65 l-6 53 -24 -31 c-14 -17 -31 -31 -38 -31 -8 0 -26 -10 -41 -23 -24 -21 -26 -28 -20 -70 8 -52 33 -77 79 -77 32 0 77 -39 77 -68 0 -31 22 -42 87 -42 60 0 63 1 63 24 0 13 -13 66 -30 117 -16 52 -30 98 -30 104 0 17 -43 150 -51 159 -5 5 -11 2 -15 -7z"
       id="path26"
       style="fill:#800080" />
    <path
       d="M4375 7135 c-27 -13 -72 -34 -98 -46 -41 -18 -48 -25 -42 -43 3 -11 15 -56 26 -99 19 -72 19 -80 5 -102 -24 -36 -36 -31 -36 16 0 34 -3 40 -16 35 -9 -3 -27 -9 -40 -12 -14 -4 -29 -15 -35 -26 -15 -28 30 -122 68 -142 33 -16 59 -44 50 -52 -3 -3 -20 2 -37 11 l-32 17 18 -32 c52 -88 101 -102 162 -45 28 26 34 37 24 43 -10 7 -2 16 30 35 54 32 73 53 138 151 54 82 55 95 4 96 -49 0 -102 80 -111 166 -3 30 -11 54 -17 53 -6 0 -33 -11 -61 -24z"
       id="path28"
       style="fill:#b0e0e6" />
    <path
       d="M4510 7032 c0 -19 53 -62 76 -62 36 0 29 12 -26 43 -28 16 -50 24 -50 19z"
       id="path30"
       style="fill:#c71585" />
    <path
       d="M4190 6945 l-23 -25 30 0 c27 0 30 3 25 25 -2 14 -5 25 -6 25 -2 0 -13 -11 -26 -25z"
       id="path32"
       style="fill:#c71585" />
    <path
       d="M4605 6838 c-21 -34 -40 -67 -43 -72 -2 -4 10 -5 27 -2 17 3 45 9 62 12 58 11 26 -17 -56 -49 -63 -25 -92 -43 -138 -89 -36 -35 -57 -64 -54 -72 3 -8 9 -31 12 -50 6 -31 4 -37 -17 -46 -13 -6 -31 -24 -40 -41 -16 -27 -22 -29 -72 -29 -49 0 -57 3 -76 30 -12 17 -27 30 -35 30 -41 0 -30 109 13 121 22 7 -73 136 -118 159 -51 26 -51 34 0 26 l39 -6 -6 52 c-3 29 -9 57 -14 62 -8 9 -144 -43 -244 -94 -70 -35 -83 -72 -67 -192 13 -107 64 -223 97 -223 31 0 66 61 59 104 l-6 36 25 -35 c20 -29 44 -43 118 -73 124 -49 187 -97 213 -162 11 -27 20 -51 21 -53 1 -1 9 0 17 3 9 4 13 15 11 28 -6 32 33 145 64 186 62 81 203 108 307 57 63 -31 99 -70 133 -142 20 -45 26 -51 48 -46 40 7 48 25 32 74 -8 24 -12 59 -10 80 4 32 2 38 -24 52 l-28 15 32 1 c38 0 56 -16 82 -76 18 -41 23 -44 48 -38 56 12 62 15 68 35 4 11 22 40 41 64 19 25 34 49 34 54 0 18 -90 214 -107 233 -10 11 -47 35 -83 54 -36 19 -78 44 -93 57 -24 19 -43 22 -131 25 l-102 4 -39 -64z"
       id="path34"
       style="fill:#b0e0e6" />
    <path
       d="M5132 6692 c50 -123 62 -142 84 -142 39 0 36 15 -19 83 -45 57 -76 85 -65 59z"
       id="path36"
       style="fill:#ff1493" />
    <path
       d="M5170 6483 c0 -4 11 -21 25 -38 l25 -30 -2 35 c-2 28 -8 36 -25 38 -13 2 -23 0 -23 -5z"
       id="path38"
       style="fill:#7cfc00" />
    <path
       d="M5283 6453 c-13 -9 -23 -20 -23 -25 0 -5 25 -44 55 -87 30 -44 65 -102 77 -130 11 -28 23 -50 25 -47 17 17 -69 269 -101 295 -7 5 -19 3 -33 -6z"
       id="path40"
       style="fill:#ff1493" />
    <path
       d="M4503 6424 c-133 -64 -169 -212 -83 -347 26 -42 65 -75 76 -64 2 2 -3 23 -11 47 -17 48 -20 96 -6 104 9 6 19 -23 28 -79 12 -74 70 -120 103 -80 13 16 9 55 -19 168 -7 29 -6 37 5 37 7 0 16 -12 20 -27 3 -16 15 -61 26 -100 18 -62 24 -73 42 -73 39 0 46 19 46 117 0 55 4 93 10 93 6 0 10 -12 11 -27 0 -16 6 -50 12 -77 l12 -49 36 51 c34 49 36 55 28 101 -11 72 -35 115 -89 164 -47 42 -111 67 -168 67 -15 -1 -50 -12 -79 -26z"
       id="path42"
       style="fill:#0000ff" />
    <path
       d="M5127 6434 c-3 -3 -2 -17 4 -31 12 -33 12 -33 -11 -33 -12 0 -35 -7 -52 -16 -17 -9 -49 -16 -70 -16 -26 1 -38 -3 -35 -11 11 -30 164 11 203 54 16 18 16 20 -1 39 -19 21 -28 24 -38 14z"
       id="path44"
       style="fill:#7cfc00" />
    <path
       d="M3928 6368 c-46 -61 -51 -77 -44 -155 6 -75 43 -180 72 -204 16 -13 18 -5 5 19 -13 26 -21 82 -12 82 4 0 20 -27 35 -60 15 -33 37 -67 49 -74 29 -18 77 -29 77 -17 0 5 -13 48 -30 94 -33 95 -34 97 -20 97 5 0 27 -38 48 -84 22 -46 45 -87 51 -91 19 -11 56 3 90 34 28 27 31 34 31 93 -1 97 -36 160 -123 218 -58 39 -159 81 -193 80 -7 0 -23 -15 -36 -32z"
       id="path46"
       style="fill:#0000ff" />
    <path
       d="M5195 6360 c-21 -22 -46 -40 -54 -40 -11 0 -90 -40 -109 -55 -4 -3 57 -104 73 -121 5 -7 37 -55 70 -108 144 -232 214 -326 411 -556 112 -131 394 -507 394 -525 0 -4 17 -32 39 -63 21 -32 55 -82 74 -112 24 -37 61 -73 113 -110 42 -30 91 -68 110 -83 18 -15 35 -24 38 -19 3 5 -31 41 -74 81 -44 40 -80 76 -80 80 0 18 119 -10 182 -43 38 -20 68 -33 68 -29 0 3 -11 21 -26 40 -22 29 -23 33 -7 33 11 0 23 12 30 30 8 21 16 28 27 24 9 -3 16 -2 16 3 0 8 -30 25 -138 76 -32 15 -228 194 -283 258 -25 30 -59 74 -74 99 -16 25 -43 63 -60 85 -65 83 -240 344 -281 420 -31 58 -138 210 -189 270 -28 33 -57 76 -64 95 -54 136 -114 255 -145 288 l-22 22 -39 -40z"
       id="path48"
       style="fill:#b0e0e6" />
    <path
       d="M3676 6237 c-15 -55 3 -106 54 -157 25 -25 25 -37 0 -77 -20 -34 -78 -76 -120 -88 -20 -6 -14 4 34 54 32 34 56 64 53 68 -9 8 -157 -98 -157 -113 0 -15 29 -46 39 -42 3 2 24 12 46 22 22 10 67 31 99 47 65 30 83 28 97 -7 13 -36 -7 -68 -57 -92 -59 -29 -59 -51 -1 -45 56 7 74 -12 61 -64 -7 -29 -18 -41 -52 -58 l-43 -22 79 -36 c43 -20 90 -37 105 -37 25 0 27 3 27 45 0 29 -9 64 -26 98 -17 33 -29 75 -32 117 -5 59 -10 71 -54 129 -57 74 -113 181 -123 234 -9 45 -21 55 -29 24z"
       id="path50"
       style="fill:#b0e0e6" />
    <path
       d="M4835 6105 c-75 -110 -123 -135 -258 -135 -97 0 -137 17 -178 77 -41 59 -67 56 -86 -9 -15 -52 -59 -96 -104 -105 -25 -5 -42 -23 -21 -23 4 0 40 -30 80 -68 65 -60 74 -73 87 -127 8 -32 15 -89 15 -125 0 -79 11 -97 84 -139 68 -38 123 -85 142 -123 l15 -29 31 43 c17 24 70 81 118 128 77 76 230 272 230 297 0 5 -16 25 -36 44 -20 18 -47 56 -61 83 -23 46 -25 58 -21 158 2 59 3 108 2 108 0 0 -18 -25 -39 -55z m-137 -216 c29 -6 59 -20 73 -35 l23 -24 -35 6 c-52 10 -139 44 -139 55 0 12 18 11 78 -2z"
       id="path52"
       style="fill:#b0e0e6" />
    <path
       d="M3720 5895 c-25 -13 -62 -29 -82 -35 -42 -12 -46 -25 -22 -72 14 -27 19 -29 47 -24 46 9 53 22 22 39 l-28 14 56 41 c85 64 89 81 7 37z"
       id="path54"
       style="fill:#b0e0e6" />
    <path
       d="M3717 5750 c-27 -10 -60 -26 -74 -35 -23 -15 -24 -19 -10 -32 13 -13 20 -12 59 11 44 25 100 77 82 75 -5 0 -31 -9 -57 -19z"
       id="path56"
       style="fill:#87cefa" />
    <path
       d="M5061 5748 c-14 -7 -35 -33 -49 -58 -39 -71 -122 -168 -228 -265 -109 -101 -144 -158 -144 -238 0 -60 21 -102 61 -123 61 -31 119 8 119 80 0 76 -49 84 -87 13 -12 -23 -18 -27 -21 -15 -7 34 26 86 83 129 172 132 244 210 299 324 13 28 38 60 55 73 35 26 39 42 13 65 -25 23 -72 30 -101 15z"
       id="path58"
       style="fill:#0000ff" />
    <path
       d="M3960 5735 c-14 -16 -10 -71 9 -117 7 -20 21 -30 53 -38 24 -7 58 -18 76 -26 18 -8 50 -17 71 -20 37 -6 39 -5 65 40 15 26 45 58 66 71 37 23 39 27 29 52 -20 53 -21 53 -194 53 -133 0 -165 -3 -175 -15z"
       id="path60"
       style="fill:#b0e0e6" />
    <path
       d="M5136 5589 c-37 -92 -140 -207 -277 -309 l-47 -35 34 -38 c25 -27 34 -46 34 -73 0 -42 -22 -87 -52 -108 -33 -24 -125 -21 -167 5 l-33 20 -23 -21 c-29 -27 -91 -36 -139 -20 -70 23 -95 99 -59 176 l18 36 -90 84 c-50 46 -92 84 -96 84 -3 0 -15 -21 -26 -47 -12 -27 -39 -82 -61 -123 -53 -100 -102 -204 -102 -216 0 -6 -11 -38 -24 -73 -14 -34 -27 -76 -30 -94 -3 -18 -17 -72 -32 -121 -37 -129 -37 -300 0 -481 14 -71 28 -150 30 -175 3 -25 16 -102 30 -172 14 -70 26 -139 26 -153 0 -14 11 -73 25 -132 14 -58 28 -126 31 -151 3 -25 16 -90 29 -146 13 -55 26 -121 30 -146 3 -25 17 -87 31 -138 13 -51 26 -107 28 -125 5 -33 38 -163 81 -317 13 -47 27 -99 29 -116 3 -17 15 -60 25 -95 39 -129 90 -359 118 -529 38 -239 38 -410 -1 -595 -15 -71 -29 -147 -31 -167 -3 -21 -12 -62 -19 -90 -45 -166 -76 -235 -149 -335 -37 -49 -58 -67 -114 -95 -67 -33 -68 -33 -213 -33 l-145 0 -90 45 c-77 39 -95 52 -125 97 -19 29 -37 52 -40 53 -3 0 -16 -26 -29 -58 -16 -41 -25 -85 -28 -154 l-6 -97 47 -21 c26 -11 66 -20 89 -20 42 0 107 -19 107 -31 0 -9 123 -69 215 -105 92 -36 206 -43 307 -19 113 26 246 73 321 113 86 45 215 170 315 307 40 55 90 122 112 150 22 27 36 52 32 56 -4 3 -47 16 -97 29 -106 26 -136 40 -164 76 -56 71 -49 152 24 259 23 33 52 81 65 107 47 96 132 169 230 197 61 18 185 76 195 90 4 7 9 29 11 49 2 20 14 91 28 157 14 66 27 145 30 175 3 30 16 118 30 195 14 77 28 166 31 199 3 32 14 99 25 150 11 50 22 111 25 136 3 25 16 95 30 155 13 61 26 128 29 150 3 22 16 93 31 158 14 65 28 137 30 160 3 23 16 94 29 157 43 205 78 461 78 563 0 56 -11 166 -26 255 -14 87 -32 202 -40 257 -21 147 -45 260 -73 350 -14 44 -27 91 -30 105 -2 13 -8 29 -12 35 -4 5 -18 37 -31 70 -46 119 -154 322 -232 438 -44 64 -83 117 -88 117 -4 0 -15 -19 -24 -41z m-112 -621 c-19 -70 -60 -212 -94 -323 -31 -102 -78 -277 -85 -315 -2 -14 -15 -70 -29 -125 -49 -197 -86 -374 -86 -412 0 -21 -12 -92 -26 -158 -20 -94 -27 -158 -30 -295 -5 -190 -9 -220 -25 -220 -14 0 -5 451 9 520 6 25 13 69 16 99 3 29 12 79 20 110 8 31 19 88 26 126 7 39 23 117 37 175 13 58 29 125 34 149 5 24 18 75 30 114 11 39 22 82 24 96 4 26 91 297 141 439 14 39 32 72 39 72 10 0 10 -10 -1 -52z"
       id="path62"
       style="fill:#2f4f4f" />
    <path
       d="M4299 5588 c-29 -40 -31 -97 -4 -148 10 -19 67 -83 127 -141 59 -58 108 -112 108 -120 -1 -36 -16 -37 -39 -3 l-25 35 -12 -23 c-20 -36 -17 -95 6 -118 24 -24 82 -27 104 -4 21 20 21 113 0 183 -16 54 -48 91 -170 197 -47 41 -48 43 -52 108 -2 36 -7 66 -11 66 -4 0 -18 -15 -32 -32z"
       id="path64"
       style="fill:#0000ff" />
    <path
       d="M6093 3639 c-102 -119 -177 -239 -229 -370 -48 -119 -63 -204 -52 -299 10 -89 54 -273 83 -345 53 -134 85 -234 96 -304 l11 -74 181 184 c100 101 196 208 214 238 29 48 33 63 33 126 0 104 -42 230 -145 435 -51 103 -74 159 -80 203 -2 12 -12 59 -21 104 -15 66 -16 91 -8 133 6 28 7 53 3 56 -4 2 -43 -36 -86 -87z"
       id="path66"
       style="fill:#800080" />
    <path
       d="M5376 1941 c-10 -44 -19 -95 -22 -115 -2 -20 -11 -64 -19 -98 -18 -76 -18 -85 -4 -71 18 18 58 188 65 278 4 47 5 85 2 85 -3 0 -13 -36 -22 -79z"
       id="path68"
       style="fill:#ff1493" />
    <path
       d="M1600 1895 c0 -4 9 -20 20 -35 92 -130 118 -320 85 -635 -25 -247 -20 -308 42 -433 42 -85 134 -188 231 -260 81 -60 146 -93 232 -118 130 -37 390 -17 574 46 33 11 66 20 75 20 9 0 51 11 94 25 94 30 160 31 258 5 41 -11 98 -25 128 -30 29 -5 64 -16 76 -24 l22 -15 6 92 c5 95 41 208 74 232 11 9 12 16 3 40 -6 17 -12 54 -12 83 -1 44 -5 56 -26 72 -13 11 -35 20 -48 20 -22 0 -204 -89 -204 -100 0 -3 30 -22 65 -44 36 -21 68 -43 71 -48 12 -19 -8 -22 -34 -6 -15 9 -53 31 -85 49 -148 83 -371 385 -448 606 -10 29 -29 68 -42 88 -25 37 -83 85 -102 85 -6 0 -28 9 -48 19 -21 11 -65 22 -98 26 -53 6 -66 4 -114 -20 -58 -28 -95 -68 -114 -124 -19 -59 -13 -92 32 -152 23 -31 74 -102 114 -157 86 -119 172 -200 310 -292 108 -73 206 -122 315 -160 37 -13 65 -27 62 -32 -7 -10 -22 -6 -129 34 -159 59 -306 150 -443 273 -54 49 -203 231 -301 370 -79 110 -238 259 -372 348 -121 80 -269 163 -269 152z m367 -613 c12 -7 33 -44 105 -177 20 -38 70 -98 138 -166 98 -99 113 -109 230 -167 69 -34 133 -62 143 -62 29 0 98 -32 94 -44 -5 -14 -22 -11 -147 29 -160 51 -228 93 -350 215 -98 97 -109 114 -164 225 -32 66 -63 128 -68 138 -9 18 -1 22 19 9z"
       id="path70"
       style="fill:#2f4f4f" />
    <path
       d="M6506 1693 c35 -51 38 -76 19 -125 -24 -64 -65 -119 -117 -158 -26 -18 -44 -38 -41 -43 8 -14 111 -1 139 18 35 23 82 122 89 192 10 88 -26 152 -87 153 l-27 0 25 -37z"
       id="path72"
       style="fill:#ff1493" />
    <path
       d="M4992 1235 c-55 -46 -67 -157 -26 -237 21 -42 73 -108 84 -108 8 0 21 29 26 60 2 8 10 30 18 50 42 97 87 233 79 240 -4 4 -40 11 -79 15 -67 6 -72 5 -102 -20z"
       id="path74"
       style="fill:#ff1493" />
    <path
       d="M4921 1242 c-76 -12 -151 -108 -151 -194 0 -71 70 -128 174 -143 l49 -8 -20 29 c-61 89 -75 171 -44 258 11 33 20 60 18 61 -1 0 -13 -1 -26 -3z"
       id="path76"
       style="fill:#ff1493" />
    <path
       d="M4323 1194 c-22 -34 -42 -142 -43 -230 0 -63 -5 -81 -40 -152 -25 -49 -63 -104 -95 -138 -45 -46 -55 -63 -55 -90 l0 -34 38 15 c31 13 96 73 137 126 17 23 74 123 74 132 0 4 9 31 20 60 10 30 33 112 51 183 17 71 33 135 35 142 3 8 -11 12 -50 12 -48 0 -57 -3 -72 -26z"
       id="path78"
       style="fill:#ff1493" />
    <path
       d="M3806 991 c-26 -10 -3 -25 25 -16 33 11 209 -111 209 -145 0 -28 47 -60 89 -60 33 0 38 4 64 49 15 27 27 51 27 54 0 3 -30 6 -67 9 -56 3 -76 9 -113 34 -106 73 -179 97 -234 75z"
       id="path80"
       style="fill:#ff1493" />
    <path
       d="M3833 925 c2 -5 12 -10 22 -10 10 0 20 5 22 10 2 6 -8 10 -22 10 -14 0 -23 -4 -22 -10z"
       id="path82" />
    <path
       d="M5104 785 c21 -48 21 -157 1 -195 -17 -33 -48 -45 -97 -38 -28 5 -29 4 -13 -9 38 -27 91 -8 144 52 40 46 41 93 3 166 -33 63 -62 82 -38 24z"
       id="path84"
       style="fill:#ff1493" />
    <path
       d="M5032 798 c-7 -7 -12 -16 -12 -21 0 -4 -14 -29 -32 -55 -19 -29 -24 -40 -11 -29 29 25 34 12 15 -39 -15 -40 -15 -46 -2 -54 27 -17 69 -11 81 11 19 36 13 134 -11 178 -13 25 -12 25 -28 9z"
       id="path86"
       style="fill:#ff1493" />
  </g>
</svg>
