<?xml version="1.0" encoding="UTF-8" standalone="no"?>
<svg
   xmlns:dc="http://purl.org/dc/elements/1.1/"
   xmlns:cc="http://creativecommons.org/ns#"
   xmlns:rdf="http://www.w3.org/1999/02/22-rdf-syntax-ns#"
   xmlns:svg="http://www.w3.org/2000/svg"
   xmlns="http://www.w3.org/2000/svg"
   xmlns:sodipodi="http://sodipodi.sourceforge.net/DTD/sodipodi-0.dtd"
   xmlns:inkscape="http://www.inkscape.org/namespaces/inkscape"
   version="1.0"
   width="850.000000pt"
   height="850.000000pt"
   viewBox="0 0 850.000000 850.000000"
   preserveAspectRatio="xMidYMid meet"
   id="svg94"
   sodipodi:docname="51.svg"
   inkscape:version="0.92.2 5c3e80d, 2017-08-06">
  <defs
     id="defs98" />
  <sodipodi:namedview
     pagecolor="#ffffff"
     bordercolor="#666666"
     borderopacity="1"
     objecttolerance="10"
     gridtolerance="10"
     guidetolerance="10"
     inkscape:pageopacity="0"
     inkscape:pageshadow="2"
     inkscape:window-width="1920"
     inkscape:window-height="978"
     id="namedview96"
     showgrid="false"
     inkscape:zoom="0.83294118"
     inkscape:cx="525.10802"
     inkscape:cy="796.62852"
     inkscape:window-x="0"
     inkscape:window-y="1"
     inkscape:window-maximized="1"
     inkscape:current-layer="svg94" />
  <metadata
     id="metadata2">
Created by potrace 1.14, written by Peter Selinger 2001-2017
<rdf:RDF>
  <cc:Work
     rdf:about="">
    <dc:format>image/svg+xml</dc:format>
    <dc:type
       rdf:resource="http://purl.org/dc/dcmitype/StillImage" />
  </cc:Work>
</rdf:RDF>
</metadata>
  <g
     transform="translate(0.000000,850.000000) scale(0.100000,-0.100000)"
     fill="#000000"
     stroke="none"
     id="g92">
    <path
       d="M0 4250 l0 -4250 1615 0 1616 0 -5 58 c-3 31 -8 201 -11 376 -4 264 -8 323 -20 340 -60 83 -67 97 -72 155 -7 74 -14 76 -108 27 -109 -57 -188 -128 -279 -249 -100 -134 -134 -192 -180 -314 -42 -107 -43 -129 -16 -208 21 -61 25 -95 12 -95 -21 0 -175 105 -204 139 -52 61 -176 281 -235 418 l-55 125 -5 147 c-10 270 22 520 119 906 112 449 158 596 317 1012 45 117 81 223 81 236 0 14 20 78 45 143 24 65 41 121 37 125 -4 4 -49 34 -99 67 -105 68 -179 97 -229 89 -18 -3 -36 -1 -40 4 -12 20 57 138 114 196 61 62 254 207 389 292 87 55 101 73 181 221 73 136 252 615 303 810 24 94 29 126 24 180 -4 41 0 102 10 165 8 55 18 166 22 246 5 131 4 153 -16 217 -20 67 -20 74 -6 134 8 35 15 90 15 124 0 100 18 117 185 184 139 55 140 55 148 93 15 64 1 104 -56 160 -63 61 -159 108 -284 139 -51 13 -93 28 -93 34 0 17 69 85 146 144 38 29 130 82 204 118 74 36 137 67 139 69 2 1 -3 45 -12 95 -9 51 -14 110 -11 131 4 23 1 53 -9 80 -9 26 -17 90 -20 166 -4 116 -3 127 22 185 50 118 107 183 216 248 28 17 43 28 34 25 -119 -38 -315 7 -371 85 -29 42 -36 125 -14 182 21 55 103 133 176 169 69 34 128 44 310 56 100 7 162 16 200 30 l55 20 -2142 0 -2143 1 0 -4250z"
       id="path4"
       style="fill:none" />
    <path
       d="M4320 8486 c0 -8 -6 -16 -12 -18 -7 -3 12 -8 42 -11 30 -4 111 -23 180 -42 69 -20 154 -38 190 -41 36 -3 71 -8 79 -10 24 -8 -7 -32 -52 -39 -23 -4 -46 -10 -51 -13 -8 -5 187 -66 251 -78 23 -5 52 1 100 21 91 36 164 42 227 18 65 -24 71 -43 14 -43 -47 0 -106 -24 -180 -72 l-48 -30 48 -24 c68 -34 170 -130 154 -146 -9 -9 -27 -4 -80 20 -72 34 -126 39 -237 23 -56 -8 -48 -13 52 -32 71 -13 104 -32 87 -49 -15 -16 -134 -47 -206 -55 -58 -6 -161 10 -263 42 -12 4 4 -19 41 -59 72 -77 163 -211 198 -291 27 -59 109 -315 146 -454 12 -45 37 -105 54 -134 32 -50 38 -53 190 -124 87 -40 162 -77 169 -84 8 -8 6 -17 -9 -35 -10 -13 -44 -55 -75 -93 -81 -99 -199 -254 -199 -262 0 -4 12 -8 28 -9 36 -3 91 -21 119 -40 l23 -14 -15 36 c-34 82 -2 178 62 184 24 2 35 -3 51 -26 42 -59 142 -263 142 -290 0 -15 6 -35 13 -43 12 -16 109 -79 120 -79 4 0 31 25 60 55 61 63 92 70 148 32 49 -32 50 -75 6 -177 -27 -62 -32 -82 -22 -90 9 -7 21 -7 39 0 45 17 66 12 102 -24 43 -43 44 -79 5 -178 -24 -60 -32 -98 -40 -213 -19 -241 -38 -333 -127 -622 -46 -149 -90 -287 -98 -307 -39 -93 -164 -175 -246 -162 -47 7 -150 59 -179 90 -24 25 -189 338 -222 420 -25 62 -66 301 -74 435 -3 57 -9 118 -12 134 l-6 30 -15 -29 c-8 -16 -47 -87 -88 -159 -40 -71 -88 -164 -106 -205 -30 -71 -32 -81 -31 -190 1 -63 9 -156 18 -206 l18 -91 -31 -89 c-17 -49 -40 -116 -52 -148 -21 -57 -21 -61 -6 -165 9 -58 25 -137 37 -176 26 -86 51 -207 73 -344 9 -57 30 -142 47 -190 17 -47 34 -106 39 -131 4 -25 18 -70 29 -100 12 -30 53 -161 92 -290 39 -129 97 -316 129 -415 32 -99 71 -220 85 -270 81 -271 236 -521 446 -720 77 -73 282 -230 333 -255 45 -23 107 -85 101 -102 -3 -8 -39 -42 -80 -77 -83 -70 -155 -159 -180 -224 l-17 -44 36 -71 c49 -96 48 -126 -1 -80 -26 24 -30 11 -9 -31 15 -28 15 -28 148 -35 149 -7 221 -22 338 -67 105 -40 105 -59 0 -59 -116 0 -205 -22 -414 -101 -115 -44 -211 -81 -213 -83 -5 -5 61 -239 87 -310 l21 -56 1330 0 1329 0 0 4250 0 4250 -2090 0 c-1796 0 -2090 -2 -2090 -14z"
       id="path6"
       style="fill:none" />
    <path
       d="M4130 8420 c-30 -5 -94 -8 -141 -9 -108 -1 -177 -14 -247 -46 -82 -38 -132 -82 -160 -143 -42 -93 -18 -163 72 -209 77 -40 187 -43 344 -9 67 14 124 26 127 26 3 0 5 16 5 35 0 43 21 56 106 63 56 4 63 3 74 -17 6 -12 10 -34 8 -49 -3 -26 1 -28 107 -64 158 -53 339 -98 397 -98 57 0 188 20 188 29 0 3 -46 16 -102 28 -146 32 -157 55 -34 68 34 3 93 11 131 16 56 8 80 7 120 -5 l50 -15 -25 19 c-41 32 -127 60 -185 60 -42 0 -55 4 -55 15 0 15 14 19 83 29 21 3 70 25 109 50 40 26 77 46 85 46 7 0 13 5 13 10 0 17 -79 0 -152 -31 -36 -16 -76 -29 -87 -29 -12 0 -56 13 -99 30 -42 16 -120 40 -172 54 -109 28 -170 52 -170 66 0 13 32 13 67 -1 15 -6 44 -7 63 -3 l35 7 -55 12 c-30 7 -111 27 -179 45 -115 30 -128 32 -174 20 -36 -9 -52 -9 -60 -1 -6 6 -16 10 -21 10 -6 -1 -36 -5 -66 -9z"
       id="path8"
       style="fill:#660099" />
    <path
       d="M4173 8083 c-7 -2 -13 -16 -13 -29 0 -21 4 -24 38 -24 61 0 82 10 82 36 0 22 -4 24 -47 23 -27 0 -54 -3 -60 -6z"
       id="path10"
       style="fill:#6633cc" />
    <path
       d="M4128 7989 c-161 -24 -334 -144 -402 -282 -24 -48 -25 -52 -9 -59 36 -14 48 -6 73 44 41 85 78 130 103 126 25 -3 125 -147 184 -263 94 -186 240 -440 304 -525 39 -52 107 -146 151 -207 44 -62 81 -113 84 -113 9 0 -35 78 -90 160 -58 86 -62 95 -47 104 10 7 152 -206 202 -304 l34 -65 3 60 c3 51 -12 168 -34 278 -4 20 -2 27 10 27 9 0 16 -3 16 -7 0 -5 9 -62 20 -128 28 -173 24 -264 -12 -287 -8 -4 -9 -13 -2 -29 10 -22 12 -19 38 33 19 40 29 78 33 132 5 66 8 74 21 64 15 -13 14 -59 -4 -178 -9 -60 9 -43 30 28 12 42 14 82 10 180 -6 148 -28 265 -89 497 -25 92 -45 169 -45 171 0 13 29 1 33 -13 31 -107 82 -306 97 -378 l18 -90 1 85 c1 125 -14 232 -48 344 -33 104 -37 126 -22 126 13 0 65 -140 85 -227 12 -55 16 -132 18 -325 1 -149 4 -219 7 -169 6 89 19 109 41 64 24 -51 21 -8 -4 52 -13 33 -23 61 -21 63 2 2 13 -1 24 -8 21 -11 31 3 11 15 -11 7 -14 45 -3 45 4 0 17 -9 29 -21 18 -17 12 12 -48 213 -83 280 -108 341 -184 454 -173 261 -352 352 -616 313z m21 -164 c67 -23 107 -61 190 -179 121 -172 201 -294 201 -306 0 -32 -20 -7 -246 316 -51 73 -93 110 -153 137 -36 16 -56 18 -117 12 -63 -6 -74 -4 -74 8 0 27 134 35 199 12z m342 -188 c118 -157 191 -342 254 -642 12 -60 21 -113 18 -117 -12 -21 -22 -1 -37 70 -73 341 -149 532 -277 699 -32 42 -56 80 -53 85 8 13 29 -7 95 -95z m-222 -255 c24 -42 79 -141 123 -219 44 -78 78 -149 76 -159 -7 -37 -258 394 -258 443 0 28 17 10 59 -65z m395 -254 c15 -36 21 -60 15 -64 -13 -8 -11 -10 -42 60 -15 32 -24 63 -21 68 9 14 19 0 48 -64z"
       id="path12"
       style="fill:#660099" />
    <path
       d="M3866 7765 c-46 -70 -76 -127 -71 -136 12 -18 45 -10 45 11 0 25 25 77 52 106 16 18 17 23 5 33 -12 9 -18 6 -31 -14z"
       id="path14"
       style="fill:#6633cc" />
    <path
       d="M3891 7693 c-34 -68 -35 -80 -6 -85 23 -5 25 -2 25 31 0 21 7 46 15 57 19 25 19 34 0 34 -8 0 -23 -17 -34 -37z"
       id="path16"
       style="fill:#6633cc" />
    <path
       d="M3942 7675 c-19 -41 -14 -50 9 -21 14 18 18 31 12 37 -6 6 -14 0 -21 -16z"
       id="path18"
       style="fill:#6633cc" />
    <path
       d="M3688 7533 c2 -48 9 -93 14 -100 11 -14 93 -63 104 -63 4 0 -6 15 -22 33 -47 49 -76 95 -72 114 2 11 25 -12 70 -70 l67 -88 0 71 c0 113 -2 110 103 110 67 0 89 3 86 13 -3 8 -38 14 -104 18 -54 4 -124 14 -154 23 -30 8 -64 18 -76 21 -20 6 -20 4 -16 -82z"
       id="path20"
       style="fill:#ccff00" />
    <path
       d="M3885 7512 c-11 -12 -4 -20 13 -15 10 2 24 -2 31 -10 10 -13 8 -16 -8 -22 -12 -3 -25 -3 -31 0 -6 4 -10 -5 -10 -21 0 -23 2 -25 16 -13 13 10 17 10 25 -2 13 -21 5 -34 -20 -33 -14 0 -21 -5 -21 -18 0 -12 7 -17 23 -15 16 1 22 -3 22 -18 0 -14 -6 -19 -20 -18 -20 1 -20 1 -1 -13 24 -17 266 -21 266 -4 0 22 -88 86 -110 81 -8 -1 -19 -9 -23 -17 -14 -25 -34 -16 -34 16 0 24 5 30 27 35 34 7 58 52 38 71 -13 12 -173 26 -183 16z"
       id="path22"
       style="fill:#ccff00" />
    <path
       d="M3694 7389 c4 -13 14 -44 21 -69 l12 -45 99 -17 c111 -19 378 -25 372 -8 -2 6 -62 12 -146 15 -145 4 -192 16 -192 48 0 6 -26 20 -58 29 -31 9 -70 29 -86 45 l-29 27 7 -25z"
       id="path24"
       style="fill:#99cc00" />
    <path
       d="M3787 7163 c14 -191 66 -318 173 -422 85 -82 171 -136 214 -133 51 4 166 68 249 138 l77 66 -34 47 c-34 46 -35 46 -105 52 -101 8 -157 54 -168 137 -5 34 -8 40 -19 31 -11 -9 -14 -8 -14 5 0 25 27 73 51 90 29 20 18 51 -14 42 -12 -3 -66 -9 -120 -13 -58 -3 -93 -9 -85 -14 7 -5 30 -9 51 -9 20 0 37 -4 37 -10 0 -16 -35 -29 -61 -24 -22 6 -22 5 5 -14 34 -24 50 -48 41 -62 -4 -6 -13 -5 -25 2 -15 10 -22 10 -32 0 -16 -16 -71 -15 -111 2 -40 16 -97 80 -97 108 0 18 4 20 33 14 l32 -6 -25 20 c-48 38 -58 28 -53 -47z m307 -319 c20 -8 21 -34 2 -34 -17 0 -38 24 -29 33 8 8 8 8 27 1z m101 -14 c7 -11 -42 -33 -55 -25 -5 3 -7 12 -3 20 6 17 49 20 58 5z m151 -49 c-9 -14 -70 -40 -137 -57 -59 -15 -66 -15 -116 2 -97 33 -89 44 33 45 60 0 127 4 149 8 56 12 77 12 71 2z m-143 -103 c-21 -24 -85 -24 -106 0 -15 16 -12 17 53 17 65 0 68 -1 53 -17z"
       id="path26"
       style="fill:#cccc99" />
    <path
       d="M4236 7152 c-16 -26 -17 -99 -2 -135 17 -43 77 -76 134 -77 l33 0 -21 30 c-17 24 -28 30 -60 30 -30 0 -43 6 -59 26 -25 32 -26 52 -5 83 15 20 15 25 1 38 -9 9 -17 11 -21 5z"
       id="path28"
       style="fill:#66cc00" />
    <path
       d="M3590 6934 c-116 -62 -234 -140 -271 -180 l-24 -26 30 5 c92 18 113 18 156 1 58 -23 141 -76 206 -131 51 -43 132 -153 152 -206 13 -34 37 -35 104 -1 74 37 87 51 87 94 0 30 -6 42 -37 66 -60 48 -67 49 -40 8 15 -21 25 -40 23 -42 -10 -9 -78 32 -133 82 -91 83 -132 188 -133 344 0 23 -3 42 -7 42 -5 0 -55 -25 -113 -56z"
       id="path30"
       style="fill:#6699cc" />
    <path
       d="M3742 6930 c2 -34 9 -65 15 -68 5 -4 22 -45 37 -92 30 -91 53 -135 87 -166 18 -16 15 -7 -13 51 -19 39 -38 84 -42 100 -4 17 -9 38 -12 48 -3 9 -2 17 3 17 4 0 19 -26 33 -58 23 -53 95 -143 130 -162 13 -7 15 -2 12 29 -3 31 -15 49 -65 98 -58 57 -98 119 -131 205 -8 20 -24 42 -36 48 -22 12 -23 11 -18 -50z"
       id="path32"
       style="fill:#99ff99" />
    <path
       d="M4976 6893 c4 -16 10 -38 15 -50 14 -39 22 -143 11 -143 -6 0 -24 28 -40 62 l-29 61 -6 -74 c-8 -97 -23 -146 -53 -174 -13 -12 -24 -26 -24 -30 0 -13 -50 -75 -61 -75 -5 0 -9 12 -9 27 l0 27 -31 -34 -32 -34 -15 22 c-13 20 -16 21 -26 6 -11 -14 -17 -8 -51 40 -41 61 -54 66 -36 15 6 -18 9 -34 7 -36 -2 -2 -18 9 -36 24 -25 21 -30 23 -22 8 22 -42 70 -76 131 -93 l62 -18 319 160 c175 88 317 162 315 164 -13 13 -374 172 -390 172 -3 0 -2 -12 1 -27z"
       id="path34"
       style="fill:#6699cc" />
    <path
       d="M4510 6737 c0 -55 18 -134 32 -143 6 -4 7 2 3 15 -7 24 11 81 26 81 5 0 9 -9 9 -20 0 -23 22 -69 54 -115 l21 -30 6 30 c12 57 10 85 -8 92 -10 3 -46 35 -80 72 l-62 66 -1 -48z"
       id="path36"
       style="fill:#99ff99" />
    <path
       d="M4410 6693 c-70 -58 -139 -95 -213 -114 -44 -11 -51 -10 -97 14 l-50 26 6 -87 c4 -48 11 -89 15 -92 4 -3 11 -25 15 -48 8 -50 -11 -59 -27 -13 -12 34 -20 33 -98 -12 l-44 -25 71 -21 c69 -21 102 -46 102 -78 0 -20 -24 -15 -37 6 -7 11 -43 29 -83 42 -38 13 -70 27 -70 31 0 4 -7 8 -15 8 -19 0 -18 -16 8 -120 l22 -84 60 -13 c72 -15 194 -16 252 -3 28 7 80 38 149 89 59 43 153 105 210 137 57 32 104 61 104 65 0 4 -17 10 -37 14 -50 9 -97 39 -130 82 -23 30 -28 51 -37 142 l-11 107 -65 -53z m30 -78 c0 -9 -9 -41 -20 -73 -17 -47 -37 -74 -122 -159 l-101 -101 49 10 c67 13 264 56 292 64 15 4 22 2 22 -8 0 -20 -75 -43 -239 -73 -146 -26 -177 -36 -197 -63 -8 -11 -13 -12 -18 -3 -10 15 20 61 38 61 8 0 22 12 31 28 10 15 56 64 102 109 77 76 108 122 136 206 8 21 27 23 27 2z m-451 -401 c33 -28 39 -44 17 -44 -17 0 -76 48 -76 61 0 17 28 9 59 -17z m372 6 c5 0 9 -4 9 -10 0 -5 -10 -10 -23 -10 -12 0 -47 -16 -77 -35 -50 -32 -55 -34 -72 -18 -19 17 -16 33 7 33 7 0 37 11 67 25 29 14 59 23 66 20 8 -3 18 -5 23 -5z"
       id="path38"
       style="fill:#cccc99" />
    <path
       d="M3341 6703 c-8 -3 16 -15 55 -28 137 -43 243 -116 278 -189 26 -56 16 -209 -13 -191 -5 3 -25 -4 -43 -15 -18 -10 -76 -35 -128 -54 -116 -44 -132 -58 -137 -128 -2 -29 -8 -89 -15 -134 -9 -70 -8 -88 7 -134 15 -45 17 -78 12 -234 -3 -103 -12 -220 -22 -273 l-17 -92 26 -88 c29 -99 30 -103 16 -103 -5 0 -16 15 -23 33 l-14 32 -13 -60 c-19 -91 -53 -196 -152 -465 -94 -254 -150 -378 -224 -492 -45 -71 -47 -72 -294 -244 -165 -115 -210 -153 -265 -226 -54 -72 -57 -88 -12 -88 46 -1 131 -38 220 -98 43 -29 81 -52 85 -52 4 0 37 62 72 138 72 152 219 414 284 507 59 82 155 267 210 401 57 140 89 250 127 435 l29 147 -30 118 c-20 77 -27 121 -21 127 13 13 25 -18 43 -104 l13 -63 8 40 c5 21 10 192 11 379 2 187 6 372 10 410 12 112 27 175 44 175 11 0 13 -8 8 -32 -20 -113 -28 -258 -30 -579 -4 -392 -6 -418 -67 -694 -36 -160 -60 -244 -96 -330 -57 -136 -164 -346 -225 -440 -138 -213 -280 -482 -353 -665 -58 -146 -116 -321 -119 -358 -2 -18 -6 -35 -10 -39 -3 -3 -6 -30 -6 -59 0 -56 -15 -79 -28 -43 -7 17 -22 -17 -76 -166 -36 -103 -65 -189 -63 -191 2 -2 18 1 36 7 63 22 171 -33 244 -123 54 -68 50 -202 -8 -267 -32 -35 -33 -39 -24 -82 17 -72 -6 -146 -68 -219 -53 -64 -152 -87 -230 -55 -31 13 -45 14 -85 4 -36 -10 -50 -10 -61 -1 -12 10 -18 -4 -36 -90 -80 -389 -106 -663 -81 -849 15 -109 174 -428 277 -557 30 -37 132 -116 140 -109 1 2 -5 25 -13 52 -23 72 -22 227 0 290 149 414 331 805 631 1360 201 370 272 521 318 675 l32 105 -1 287 c0 158 -3 290 -7 294 -3 3 -21 -11 -39 -32 -69 -81 -150 -145 -165 -130 -3 2 35 44 85 93 112 111 128 134 111 165 -6 13 -13 24 -14 26 -1 1 -16 -5 -34 -14 -41 -20 -140 -15 -192 9 -36 18 -36 18 -112 -17 -97 -44 -117 -50 -117 -36 0 6 38 29 84 51 l83 40 -19 37 c-22 42 -19 119 7 158 14 21 13 25 -16 54 -28 28 -31 36 -26 73 8 56 67 114 127 123 l42 7 -7 44 c-19 127 89 235 207 205 23 -6 44 -10 45 -8 2 2 16 76 32 164 l28 162 -38 0 c-48 0 -84 14 -93 35 -5 14 -3 16 11 9 10 -4 43 -8 73 -9 l55 0 49 199 49 198 -56 52 c-77 72 -153 196 -119 196 4 0 16 -17 27 -37 21 -40 141 -173 156 -173 5 0 9 7 9 16 0 9 27 115 61 235 106 387 120 459 126 664 14 496 -77 729 -353 895 -46 27 -69 35 -118 37 -34 1 -67 0 -75 -4z"
       id="path40"
       style="fill:#9999ff" />
    <path
       d="M5145 6596 c-180 -87 -578 -307 -690 -382 -116 -77 -338 -267 -396 -338 -27 -33 -70 -100 -95 -148 -37 -72 -49 -111 -70 -220 -14 -73 -57 -254 -97 -402 -81 -306 -83 -277 22 -317 88 -32 170 -35 300 -9 154 31 165 13 16 -26 -46 -12 -105 -18 -170 -18 -99 0 -120 5 -240 60 -8 3 -109 -365 -102 -373 2 -1 56 10 121 23 191 41 256 69 474 211 62 40 117 73 123 73 27 0 -4 -26 -133 -113 -197 -132 -304 -178 -495 -211 -48 -9 -90 -19 -93 -23 -6 -7 -41 -187 -66 -341 -3 -21 1 -43 12 -61 l17 -29 24 28 c33 40 118 80 168 80 80 0 163 -75 200 -179 20 -58 19 -94 -5 -141 -11 -22 -20 -41 -20 -43 0 -3 16 -7 37 -10 20 -4 54 -20 75 -38 22 -17 41 -29 43 -28 2 2 15 30 29 62 52 118 179 311 285 434 24 29 47 51 49 48 6 -6 -54 -102 -108 -170 -63 -79 -104 -145 -179 -289 l-63 -118 21 -55 c12 -30 21 -64 21 -74 0 -72 -84 -123 -220 -134 -49 -4 -91 -12 -100 -20 -25 -23 -101 -53 -151 -60 -30 -5 -68 -1 -108 9 -35 9 -67 16 -71 16 -5 0 -7 -77 -4 -177 3 -98 9 -333 14 -523 6 -190 17 -399 25 -465 54 -422 180 -793 359 -1060 22 -33 108 -148 192 -256 145 -186 156 -197 221 -231 120 -63 167 -73 358 -73 187 0 194 1 540 85 242 59 331 76 498 94 71 8 130 16 133 18 2 3 -2 22 -9 44 -8 21 -17 60 -21 86 -7 47 -8 48 -69 75 -146 64 -399 196 -482 251 -248 163 -504 406 -683 647 -45 61 -91 110 -116 126 -79 50 -129 127 -145 225 -5 33 -28 97 -50 144 -101 214 -179 465 -188 608 -5 74 -4 82 12 82 14 0 16 -6 11 -30 -14 -73 30 -236 144 -522 55 -139 80 -181 80 -132 0 48 92 157 144 170 24 6 24 7 10 46 -19 54 -17 95 6 145 26 58 70 84 135 81 l49 -3 29 58 c33 65 80 107 123 107 40 0 89 -32 105 -68 11 -25 18 -29 50 -28 27 0 45 -6 65 -24 16 -14 25 -19 22 -10 -23 65 -75 236 -109 357 -22 80 -69 232 -104 337 -52 153 -66 211 -74 291 -6 61 -25 156 -51 245 -22 80 -44 179 -47 220 -6 75 -6 75 -20 42 -16 -38 -36 -34 -27 6 4 15 33 101 65 192 56 158 66 207 52 258 -5 20 -10 23 -37 18 -20 -4 -39 -1 -54 9 -16 12 -27 13 -41 5 -53 -28 -149 -1 -181 52 -36 59 -23 170 27 229 24 28 27 41 28 104 0 63 3 76 29 109 32 42 94 75 141 76 39 0 90 -32 114 -70 l18 -30 102 184 c55 101 101 189 101 195 0 6 -17 22 -38 36 -29 19 -63 28 -143 39 -58 7 -115 19 -126 27 -45 27 -71 116 -40 136 11 7 48 10 179 14 34 2 67 -7 115 -28 38 -17 85 -33 106 -36 36 -6 38 -4 67 46 17 29 35 70 41 92 10 34 9 45 -8 75 -11 19 -23 47 -27 62 -8 35 -92 101 -183 145 -40 19 -83 48 -97 64 -31 36 -43 93 -26 114 19 23 96 18 180 -10 40 -14 74 -24 75 -22 13 26 76 114 140 197 90 116 100 130 88 129 -4 0 -75 -33 -158 -73z m-684 -966 c27 -15 24 -24 -11 -37 -32 -12 -54 2 -29 18 8 5 12 9 9 9 -7 0 -140 -37 -165 -46 -20 -7 -20 -7 -1 15 35 39 154 64 197 41z m59 -83 c0 -35 -48 -175 -82 -239 -37 -70 -151 -195 -217 -237 -49 -32 -174 -74 -185 -63 -13 13 -4 20 40 31 170 43 328 213 396 427 32 101 48 128 48 81z m194 -885 c10 -16 -41 -139 -81 -197 -68 -96 -224 -300 -234 -303 -34 -13 42 109 188 301 29 38 64 100 78 138 25 65 37 80 49 61z"
       id="path42"
       style="fill:#9999ff" />
    <path
       d="M5317 6471 c-26 -44 -21 -82 21 -163 60 -114 76 -183 62 -276 -6 -42 -14 -85 -16 -95 -7 -24 -27 -16 -29 11 -1 12 -12 35 -26 50 -13 15 -27 31 -30 36 -4 4 -30 1 -57 -8 l-49 -17 4 -43 c6 -54 -9 -104 -55 -174 l-34 -55 -54 6 c-31 3 -83 19 -119 37 -63 31 -66 31 -160 24 -91 -6 -95 -8 -95 -30 0 -42 31 -61 111 -69 41 -3 92 -11 114 -16 58 -15 138 -72 164 -120 28 -49 76 -106 103 -120 14 -8 164 -39 188 -39 2 0 -6 7 -18 16 -24 16 -49 59 -64 108 -9 32 -38 308 -33 314 2 2 34 -15 72 -38 86 -52 203 -108 316 -150 48 -19 87 -36 87 -40 0 -4 -25 -24 -56 -45 -30 -21 -68 -57 -84 -79 -50 -72 -76 -90 -138 -96 l-57 -5 55 -32 c69 -41 98 -47 149 -33 59 15 120 67 160 133 l34 58 -22 38 c-11 22 -21 46 -21 54 0 27 99 229 110 222 5 -3 10 -11 10 -16 0 -11 -29 -78 -62 -143 l-20 -39 30 22 c69 49 130 2 91 -71 -8 -16 -8 -19 1 -13 17 11 110 205 110 231 0 12 -10 34 -22 49 -19 24 -26 27 -62 21 -82 -11 -147 -25 -182 -38 -30 -10 -39 -10 -62 3 -15 8 -31 25 -37 37 -6 13 -19 22 -31 22 -29 0 -72 51 -78 93 -3 18 -12 82 -21 142 -12 88 -23 127 -55 193 -46 96 -96 172 -113 172 -7 0 -20 -13 -30 -29z m653 -738 c0 -20 -14 -16 -39 11 -31 33 -17 55 15 25 13 -12 24 -28 24 -36z"
       id="path44"
       style="fill:#cccccc" />
    <path
       d="M4850 6333 c0 -35 63 -95 118 -111 23 -7 71 -35 107 -62 35 -28 69 -50 75 -50 5 0 10 -7 10 -15 0 -13 7 -12 40 5 l41 21 -46 59 c-69 89 -108 117 -215 150 -118 38 -130 38 -130 3z"
       id="path46"
       style="fill:#cccccc" />
    <path
       d="M5143 6313 c9 -11 17 -22 17 -26 0 -12 119 -162 138 -174 10 -6 22 -24 25 -40 3 -15 12 -37 20 -47 13 -17 15 -15 24 31 7 37 6 62 -5 102 l-15 53 -39 -5 c-48 -6 -59 9 -19 26 l31 13 -22 21 c-33 30 -80 51 -129 59 -43 7 -44 7 -26 -13z"
       id="path48"
       style="fill:#ccccff" />
    <path
       d="M5750 6123 c-23 -27 -51 -65 -62 -87 l-20 -38 23 16 c31 21 82 20 102 -2 10 -10 17 -34 17 -52 0 -21 4 -30 9 -24 14 13 71 161 71 182 0 18 -56 52 -84 52 -8 0 -33 -21 -56 -47z"
       id="path50"
       style="fill:#cccccc" />
    <path
       d="M5554 6093 c3 -16 8 -51 11 -80 7 -52 37 -96 54 -77 8 8 31 92 31 112 0 8 -85 72 -96 72 -3 0 -3 -12 0 -27z"
       id="path52"
       style="fill:#ccccff" />
    <path
       d="M3910 6072 c0 -28 20 -33 140 -39 97 -5 107 -4 130 16 l25 21 -60 -6 c-55 -5 -136 3 -207 21 -24 6 -28 4 -28 -13z"
       id="path54"
       style="fill:#99ff99" />
    <path
       d="M5293 5660 c5 -97 34 -179 75 -210 32 -26 92 -26 124 -1 24 19 108 123 108 133 0 3 -20 8 -45 11 -25 4 -58 13 -74 22 -33 17 -34 16 -46 -87 -5 -42 -11 -58 -23 -58 -12 0 -14 10 -9 63 4 34 9 71 13 83 4 16 -4 26 -38 48 -24 15 -54 40 -66 54 l-24 27 5 -85z"
       id="path56"
       style="fill:#ccccff" />
    <path
       d="M5782 5590 c12 -35 40 -54 69 -45 18 6 15 10 -23 41 -53 42 -60 42 -46 4z"
       id="path58"
       style="fill:#ccccff" />
    <path
       d="M5906 5544 c-15 -14 -41 -27 -56 -31 -25 -4 -29 -11 -39 -63 -18 -91 -78 -199 -129 -235 -41 -28 -49 -30 -140 -30 -84 0 -105 4 -155 27 -77 36 -140 89 -177 149 -16 27 -34 49 -40 49 -5 0 -28 16 -50 36 -22 20 -42 35 -45 33 -2 -3 -7 -52 -10 -109 -12 -189 41 -416 133 -581 27 -47 61 -115 76 -151 16 -37 41 -82 57 -101 35 -43 139 -97 186 -97 71 0 155 57 193 130 10 19 54 154 99 300 64 206 86 295 101 400 19 140 35 300 29 300 -2 0 -17 -12 -33 -26z"
       id="path60"
       style="fill:#6666ff" />
    <path
       d="M5737 5384 c-15 -18 -56 -47 -89 -63 -96 -49 -153 -41 -269 36 -23 15 -58 26 -94 30 -55 6 -57 5 -47 -14 15 -28 94 -98 132 -118 46 -24 166 -47 208 -40 64 11 88 25 125 74 33 43 73 120 65 126 -2 1 -16 -13 -31 -31z"
       id="path62"
       style="fill:#ccccff" />
    <path
       d="M4627 5265 c-52 -18 -85 -51 -98 -96 -20 -65 7 -119 60 -119 53 0 71 56 26 80 -30 16 -32 30 -5 30 27 0 70 -43 70 -70 0 -12 -14 -35 -30 -52 -27 -26 -35 -29 -68 -24 -78 13 -75 14 -104 -43 -16 -30 -28 -71 -28 -90 0 -102 115 -156 188 -89 39 38 22 92 -24 74 -15 -6 -15 -8 0 -25 25 -27 0 -39 -26 -13 -40 39 10 94 67 72 39 -15 50 -49 31 -95 -21 -49 -21 -47 17 -43 29 3 32 6 31 33 -7 139 -4 215 11 265 37 121 26 178 -40 206 -19 8 -36 14 -37 14 -2 -1 -20 -7 -41 -15z"
       id="path64"
       style="fill:#990000" />
    <path
       d="M3356 4019 c-14 -11 -33 -34 -41 -49 -28 -53 -14 -232 20 -260 10 -8 24 -7 51 5 44 18 54 30 54 66 0 57 -59 66 -75 11 -10 -35 -20 -41 -29 -16 -9 24 4 63 24 74 55 29 110 -5 110 -69 0 -48 -28 -86 -76 -101 -56 -19 -79 -7 -109 55 -14 30 -30 55 -36 55 -26 0 -90 -44 -105 -71 -21 -42 -11 -76 31 -101 36 -21 45 -38 21 -38 -13 0 -26 -25 -41 -78 -7 -23 20 -112 33 -112 3 0 39 17 79 38 47 23 71 42 68 50 -9 24 41 63 78 60 18 -1 38 1 44 5 6 4 13 44 17 89 4 46 14 150 23 232 15 143 15 150 -2 163 -29 21 -108 17 -139 -8z"
       id="path66"
       style="fill:#990000" />
    <path
       d="M3736 4023 c-62 -16 -138 -89 -140 -133 -1 -44 -29 -35 -37 13 -6 38 -19 62 -19 36 0 -8 -9 -93 -19 -189 -11 -96 -18 -176 -18 -177 1 -1 33 25 71 58 39 32 73 59 78 59 22 0 1 -25 -71 -87 l-79 -68 -7 -99 c-4 -60 -3 -102 3 -108 6 -6 46 45 112 144 120 179 108 163 116 155 9 -9 -62 -135 -132 -233 l-64 -89 28 -12 c35 -15 139 -16 183 -2 47 16 95 54 130 102 35 48 36 58 6 93 -19 21 -29 26 -50 20 -34 -8 -53 -41 -36 -62 18 -22 36 -17 43 12 9 36 29 17 24 -22 -2 -24 -8 -29 -34 -32 -25 -2 -37 3 -53 24 -29 37 -26 58 10 88 41 35 83 34 120 -3 35 -36 39 -86 9 -124 -11 -14 -20 -27 -20 -29 0 -2 34 -1 74 3 58 4 84 12 115 32 38 25 41 31 40 70 0 23 -4 51 -8 61 -7 18 -8 18 -14 3 -12 -32 -28 -18 -21 18 8 45 -11 75 -65 100 -37 16 -47 17 -89 6 -78 -21 -131 -24 -149 -10 -26 22 -53 90 -53 136 0 33 7 50 31 78 38 42 69 45 98 9 27 -34 27 -65 1 -95 l-21 -24 6 41 c5 31 2 45 -11 58 -21 22 -35 17 -57 -22 -36 -61 4 -162 63 -162 63 0 137 103 123 172 -8 45 -46 118 -75 145 -25 24 -89 54 -110 52 -7 -1 -22 -4 -32 -6z"
       id="path68"
       style="fill:#990000" />
    <path
       d="M3378 3460 c-26 -16 -72 -42 -103 -58 -54 -29 -56 -31 -35 -42 39 -21 123 -24 158 -6 37 19 64 66 60 104 -4 36 -24 36 -80 2z"
       id="path70"
       style="fill:#993300" />
    <path
       d="M4776 2830 c-38 -34 -70 -102 -61 -131 7 -21 -6 -24 -36 -8 -28 15 -92 14 -118 -2 -27 -17 -61 -79 -61 -112 0 -14 7 -44 15 -68 42 -118 147 -176 205 -114 36 38 33 90 -8 126 -68 61 -136 15 -81 -55 11 -14 16 -26 11 -26 -24 0 -44 14 -58 42 -18 36 -3 74 38 98 26 14 31 13 74 -10 82 -43 106 -115 61 -181 -50 -74 -134 -73 -208 3 -31 33 -42 38 -65 32 -61 -15 -134 -126 -134 -202 0 -24 148 -269 176 -293 18 -15 99 -5 131 17 30 19 63 72 63 100 0 12 -9 33 -21 48 -24 30 -72 35 -107 10 -43 -30 -19 -84 38 -84 12 0 18 -4 15 -10 -3 -5 -21 -10 -40 -10 -43 0 -79 41 -70 80 11 43 39 63 99 68 51 4 57 2 86 -26 46 -47 39 -125 -18 -185 l-26 -27 21 -28 c41 -56 78 -72 167 -72 89 0 129 14 204 69 66 49 84 84 79 156 -7 95 -56 175 -107 175 -39 0 -76 -33 -96 -86 -17 -44 -17 -46 3 -72 14 -19 31 -28 56 -30 32 -3 38 1 52 29 10 19 15 43 11 60 -6 33 8 39 24 10 18 -35 11 -71 -19 -102 -56 -55 -148 -30 -167 46 -9 37 21 109 62 144 67 59 115 51 168 -29 l30 -44 23 50 c29 63 29 80 -7 205 -68 240 -86 288 -126 329 -51 52 -94 56 -94 10 0 -72 -96 -108 -139 -54 -25 31 -27 57 -6 74 15 13 19 8 15 -23 -4 -39 50 -63 78 -35 29 29 5 121 -40 152 -33 23 -53 20 -92 -14z"
       id="path72"
       style="fill:#990000" />
    <path
       d="M3443 2440 c-37 -114 -104 -263 -183 -410 l-57 -105 -7 -240 c-4 -132 -14 -339 -22 -460 -22 -343 -23 -330 34 -407 27 -36 60 -93 75 -126 31 -69 45 -77 120 -67 85 12 173 43 323 115 149 73 176 95 194 162 11 37 9 42 -43 121 -29 45 -62 97 -72 115 -11 17 -22 32 -25 32 -3 0 -21 -24 -40 -52 -62 -91 -175 -173 -295 -212 -63 -20 -145 -35 -145 -27 0 12 54 38 115 56 33 9 86 30 117 47 70 37 228 194 228 226 0 6 -24 66 -54 134 -72 165 -100 258 -146 478 -46 221 -57 309 -70 539 -5 95 -11 175 -12 176 -2 1 -17 -41 -35 -95z"
       id="path74"
       style="fill:#6666ff" />
    <path
       d="M2401 2443 c-29 -29 -58 -106 -105 -283 -101 -380 -98 -367 -62 -376 43 -11 58 7 59 72 2 68 24 110 62 120 30 8 71 -17 87 -52 23 -49 -30 -102 -88 -88 -27 7 -23 24 5 24 30 0 63 32 55 53 -8 23 -38 39 -58 31 -17 -6 -36 -63 -36 -106 0 -63 132 -87 204 -38 68 47 116 153 100 220 l-9 35 -53 -3 c-61 -4 -92 11 -122 61 -43 69 -7 157 64 157 26 0 66 -41 66 -68 l0 -27 -25 28 c-49 52 -101 24 -88 -46 6 -32 56 -77 86 -77 35 0 101 38 119 67 21 36 32 112 23 154 -10 42 -78 115 -137 145 -64 33 -110 32 -147 -3z"
       id="path76"
       style="fill:#990000" />
    <path
       d="M5226 2197 c-3 -13 -16 -39 -30 -59 -22 -32 -23 -40 -13 -82 15 -67 -2 -115 -65 -177 -75 -75 -134 -99 -245 -100 -67 -1 -99 3 -127 16 -37 18 -86 71 -86 94 0 8 -15 10 -52 5 -29 -4 -54 -8 -56 -9 -1 -1 33 -49 77 -106 92 -120 410 -439 521 -522 124 -92 244 -163 463 -273 200 -101 207 -104 200 -77 -4 15 -8 60 -7 98 1 170 129 300 253 257 57 -20 51 -16 -179 139 -149 99 -190 137 -328 294 -133 153 -185 232 -259 398 -30 67 -56 123 -58 125 -1 2 -5 -8 -9 -21z"
       id="path78"
       style="fill:#9999ff" />
    <path
       d="M2983 1508 c-214 -415 -239 -469 -362 -786 -102 -263 -148 -415 -77 -259 51 115 179 300 267 387 84 83 158 131 252 165 l62 23 7 63 c3 35 11 181 18 324 6 143 14 295 17 338 3 45 2 77 -4 77 -5 0 -86 -150 -180 -332z"
       id="path80"
       style="fill:#99ccff" />
    <path
       d="M5965 1225 c-70 -25 -125 -119 -125 -214 l0 -36 34 51 c19 28 71 85 115 126 75 69 80 76 59 82 -31 8 -37 7 -83 -9z"
       id="path82"
       style="fill:#99ccff" />
    <path
       d="M3950 882 c0 -34 -56 -96 -117 -132 l-61 -35 -6 -65 c-4 -36 -16 -123 -27 -195 -12 -72 -29 -203 -38 -292 l-17 -163 783 0 c431 0 783 2 783 4 0 2 -14 36 -31 77 -17 41 -41 103 -53 139 -22 64 -23 65 -67 74 -128 25 -426 106 -499 136 -25 10 -81 26 -125 35 -104 23 -205 74 -261 133 -25 26 -91 104 -147 175 -56 70 -105 127 -109 127 -5 0 -8 -8 -8 -18z"
       id="path84"
       style="fill:none" />
    <path
       d="M3636 658 c-107 -46 -191 -68 -267 -68 -57 0 -76 11 -108 65 -10 16 -11 -26 -7 -200 3 -121 6 -273 6 -337 l0 -118 195 0 c158 0 195 3 195 14 0 48 35 336 56 464 14 84 24 168 22 186 l-3 32 -89 -38z"
       id="path86"
       style="fill:#669999" />
    <path
       d="M5735 633 c-75 -7 -330 -55 -525 -99 -302 -69 -369 -82 -460 -90 l-85 -7 215 -55 215 -55 170 -1 c152 -1 181 2 275 26 117 29 239 70 440 148 143 55 237 79 310 80 61 1 38 12 -76 39 -77 18 -119 21 -265 19 -96 -1 -192 -3 -214 -5z"
       id="path88"
       style="fill:#99ccff" />
    <path
       d="M5646 344 c-74 -27 -243 -53 -357 -56 l-116 -3 44 -105 c25 -58 51 -122 60 -142 l15 -38 254 0 c147 0 254 4 254 9 0 5 -8 29 -19 53 -10 24 -33 97 -51 163 -18 66 -35 123 -39 126 -3 4 -23 1 -45 -7z"
       id="path90"
       style="fill:#669999" />
  </g>
</svg>
