<?xml version="1.0" standalone="no"?>
<!DOCTYPE svg PUBLIC "-//W3C//DTD SVG 20010904//EN"
 "http://www.w3.org/TR/2001/REC-SVG-20010904/DTD/svg10.dtd">
<svg version="1.0" xmlns="http://www.w3.org/2000/svg"
 width="850.000000pt" height="850.000000pt" viewBox="0 0 850.000000 850.000000"
 preserveAspectRatio="xMidYMid meet">
<metadata>
Created by potrace 1.14, written by Peter Selinger 2001-2017
</metadata>
<g transform="translate(0.000000,850.000000) scale(0.100000,-0.100000)"
fill="#000000" stroke="none">
<path d="M4995 8489 c-92 -13 -239 -65 -355 -126 -123 -64 -176 -101 -261
-180 -153 -143 -164 -157 -214 -260 l-49 -102 -25 19 c-15 10 -56 32 -92 49
-59 28 -73 31 -125 25 -71 -7 -153 -31 -176 -51 -24 -21 -41 -117 -35 -190 l6
-61 -56 -27 c-100 -50 -163 -131 -163 -212 0 -86 99 -210 203 -253 31 -13 57
-29 57 -35 0 -6 -11 -49 -25 -96 -44 -151 -49 -188 -31 -207 14 -16 13 -25 -9
-97 -19 -60 -23 -87 -16 -107 7 -20 4 -40 -15 -85 -40 -98 -31 -126 67 -218
121 -111 176 -109 310 10 34 30 65 55 70 55 5 0 20 17 34 39 18 26 40 44 70
55 24 10 49 24 56 32 10 12 20 -1 62 -78 87 -164 156 -258 283 -386 106 -108
125 -123 150 -120 40 4 35 25 -38 164 -33 62 -57 114 -54 114 36 0 146 -36
166 -55 41 -38 114 -80 210 -120 87 -36 91 -40 85 -64 -11 -43 -35 -87 -60
-111 l-23 -22 -21 21 c-25 25 -77 28 -107 7 -18 -13 -31 -12 -107 4 -48 11
-107 28 -130 38 -64 29 -141 46 -170 39 -14 -4 -61 -42 -106 -86 -77 -76 -84
-86 -172 -267 l-92 -187 -115 -121 c-152 -160 -207 -230 -288 -361 -171 -282
-415 -587 -553 -693 -78 -60 -278 -196 -499 -337 -68 -43 -135 -93 -149 -112
-31 -40 -60 -130 -69 -214 -8 -76 -7 -75 -175 -220 -106 -91 -128 -115 -136
-147 -6 -24 -59 -104 -142 -215 -166 -222 -176 -242 -177 -372 -1 -60 -8 -126
-19 -165 -13 -50 -16 -83 -11 -148 5 -53 1 -154 -10 -274 -20 -227 -11 -377
31 -538 15 -56 26 -102 24 -104 -2 -2 -58 -42 -124 -91 -66 -48 -133 -99 -149
-114 -93 -85 -139 -252 -102 -373 7 -25 48 -110 92 -189 106 -196 181 -344
233 -466 l44 -103 682 0 c565 0 689 2 723 14 68 24 443 328 635 515 64 63 119
112 122 109 24 -23 152 -578 143 -618 -3 -13 52 -15 407 -15 l410 0 6 490 c3
270 7 493 8 496 0 3 40 9 89 13 48 3 130 15 182 26 97 20 126 37 117 72 -5 17
11 28 41 28 12 0 41 -49 99 -167 45 -93 134 -258 198 -368 64 -110 155 -272
202 -360 48 -88 97 -177 110 -197 l23 -38 440 0 c273 0 441 4 445 10 3 5 -1
22 -8 37 -14 27 -101 327 -186 638 -22 83 -79 271 -126 420 -47 148 -85 276
-85 285 0 8 22 29 48 46 48 32 49 32 73 13 35 -27 49 -24 125 30 109 76 189
163 234 254 49 98 52 144 13 186 -25 26 -286 197 -353 231 -103 52 -397 231
-426 259 -76 74 -139 192 -274 511 -45 107 -111 263 -146 345 -75 178 -85 219
-87 345 -1 88 2 104 42 220 23 69 88 219 144 334 l102 209 7 -59 c3 -32 15
-142 27 -244 11 -102 25 -247 30 -322 12 -179 31 -222 140 -329 133 -128 241
-163 314 -100 39 35 190 242 218 300 10 22 39 120 63 218 51 208 60 233 111
293 117 140 125 171 92 375 l-24 150 24 100 c14 55 26 138 28 185 2 47 13 128
25 180 43 190 44 420 2 558 -15 47 -25 62 -60 85 -75 50 -146 70 -252 69 -80
-1 -98 2 -115 18 -24 23 -87 50 -115 50 -11 0 -29 -9 -41 -21 -17 -17 -20 -28
-14 -68 l6 -48 -103 -14 c-57 -7 -149 -14 -205 -14 -89 0 -105 3 -132 23 -18
13 -45 22 -66 22 -29 0 -39 6 -55 32 -10 17 -24 54 -31 82 -16 67 -33 100 -63
120 -30 19 -42 56 -28 83 6 10 47 63 91 118 87 107 131 183 131 226 0 20 14
38 55 73 52 45 55 46 60 24 11 -42 22 -172 21 -231 0 -31 3 -57 7 -57 44 0 90
112 133 321 23 116 27 156 26 294 -1 117 2 172 13 205 l15 45 117 -1 c70 -1
148 -8 191 -17 97 -22 103 -22 146 12 23 18 60 35 94 42 105 21 152 103 152
265 0 97 -11 127 -57 155 -18 12 -33 29 -33 39 0 44 -24 69 -108 113 -68 36
-88 51 -94 73 -4 15 -26 46 -48 70 l-42 42 36 54 c21 30 41 78 48 109 10 49 9
60 -8 94 -32 66 -61 80 -173 83 l-98 4 5 46 c5 61 -13 128 -45 159 -24 24 -29
25 -111 20 -100 -6 -175 -31 -242 -83 -43 -33 -105 -103 -112 -126 -2 -6 -33
10 -68 37 -131 96 -273 150 -473 179 -111 17 -293 19 -392 5z m405 -59 c186
-30 381 -134 537 -287 l65 -64 -7 -108 c-6 -97 -5 -112 13 -147 21 -41 70 -91
135 -139 21 -16 47 -46 58 -68 41 -79 68 -295 54 -424 l-7 -68 -52 155 c-29
86 -73 198 -99 250 -51 104 -128 210 -153 210 -17 0 -17 0 37 -80 61 -90 116
-215 174 -392 58 -178 75 -274 75 -424 0 -90 -27 -279 -52 -359 -10 -34 -12
-37 -15 -15 -32 265 -108 485 -274 795 -44 83 -85 170 -90 195 -5 25 -16 83
-24 130 -16 87 -84 250 -105 250 -15 0 -12 -16 10 -60 49 -95 86 -321 71 -430
l-7 -55 -18 60 c-10 33 -40 103 -68 155 -27 52 -59 126 -70 165 -24 87 -76
186 -129 248 -62 72 -68 43 -9 -45 27 -41 61 -105 75 -141 30 -80 65 -268 65
-349 0 -55 -1 -58 -25 -58 -20 0 -30 13 -65 83 -22 45 -70 123 -108 172 -40
53 -79 120 -96 163 -16 39 -35 72 -43 72 -18 0 -17 -5 12 -91 58 -168 72 -392
35 -528 -25 -87 -40 -119 -82 -166 -27 -31 -35 -35 -62 -29 -115 25 -343 200
-421 324 -39 61 -73 169 -86 269 -13 100 -24 135 -40 125 -24 -15 17 -259 57
-335 7 -15 27 -89 43 -164 l29 -137 -34 -14 c-46 -19 -48 -19 -76 24 -73 110
-110 223 -127 388 -10 101 -16 118 -31 94 -14 -22 -12 -93 5 -190 8 -47 15
-123 15 -170 0 -47 5 -114 10 -150 22 -144 22 -144 6 -165 -16 -20 -17 -19
-51 20 -64 73 -133 283 -136 415 0 25 -4 56 -8 70 -7 24 -8 24 -18 5 -13 -25
1 -192 23 -277 19 -74 66 -180 98 -222 19 -26 24 -49 30 -130 11 -142 71 -493
99 -573 13 -37 33 -92 45 -120 12 -29 20 -53 17 -53 -11 0 -148 174 -199 253
-143 219 -265 568 -311 892 -19 127 -15 356 6 381 5 6 16 45 25 85 18 88 93
275 133 333 92 132 347 313 531 376 168 58 280 79 415 79 72 1 159 -4 195 -9z
m948 -23 c16 -19 24 -106 15 -156 l-8 -44 -85 -20 c-71 -16 -92 -18 -128 -8
-59 16 -80 14 -117 -9 -29 -18 -34 -18 -45 -5 -36 43 44 162 143 212 78 39
204 56 225 30z m264 -233 c39 -11 35 -101 -7 -184 -14 -27 -48 -72 -75 -100
-36 -36 -50 -56 -45 -68 14 -46 -61 -174 -110 -186 -55 -14 -209 59 -283 133
-47 48 -62 88 -62 164 0 99 12 123 81 158 143 72 396 114 501 83z m8 -343 l34
-28 -13 -109 c-7 -60 -24 -147 -37 -192 -26 -88 -113 -283 -141 -314 -18 -20
-68 -23 -124 -8 l-36 10 -6 113 c-3 61 -15 157 -26 211 -12 55 -19 101 -17
103 2 3 28 -3 57 -11 68 -20 107 -9 148 43 35 45 74 138 66 159 -7 18 22 52
44 52 9 0 32 -13 51 -29z m-2624 -7 c92 -48 108 -75 79 -130 -8 -16 -15 -36
-15 -45 0 -14 -19 -17 -132 -22 -73 -3 -145 -9 -159 -12 -23 -6 -28 -3 -38 26
-16 46 -14 131 4 156 10 15 31 24 63 29 26 4 56 10 67 15 37 15 82 9 131 -17z
m2769 -139 c86 -48 89 -53 82 -133 -6 -71 -105 -375 -131 -400 -11 -11 -28
-11 -107 3 -51 8 -94 17 -96 18 -1 2 17 42 41 90 49 98 100 250 116 347 15 90
19 110 27 110 3 0 34 -16 68 -35z m-2736 -96 c22 -8 30 -16 27 -28 -16 -59
-16 -252 0 -372 21 -151 17 -165 -53 -210 -56 -35 -87 -34 -141 7 -39 30 -92
109 -92 137 0 12 -17 26 -56 43 -90 40 -142 80 -174 137 -44 77 -41 114 14
165 64 59 131 90 256 118 71 15 178 17 219 3z m2906 -82 c16 -12 17 -24 12
-93 -3 -43 -13 -104 -24 -134 -19 -58 -36 -72 -102 -84 -29 -5 -33 -3 -28 12
3 9 24 83 48 165 44 154 52 164 94 134z m-1033 -341 c27 -54 47 -104 44 -111
-2 -7 -16 -15 -31 -19 -20 -5 -30 -1 -45 16 -18 23 -18 23 6 49 31 33 21 43
-19 19 -31 -18 -33 -18 -92 2 -127 43 -253 0 -306 -105 -15 -29 -18 -49 -13
-83 9 -61 30 -57 39 6 10 74 20 68 20 -13 1 -54 7 -86 25 -126 23 -51 24 -53
57 -48 38 7 45 -10 8 -19 -30 -8 -31 -15 -4 -32 20 -13 20 -14 2 -27 -17 -14
-17 -14 7 -16 76 -6 188 20 219 49 10 9 26 22 37 29 18 11 18 12 -4 12 -21 1
-22 4 -16 36 8 44 -21 179 -48 224 -25 40 -73 71 -111 71 l-29 0 26 -31 c30
-36 32 -55 9 -81 -22 -25 -56 -23 -89 5 -30 26 -29 53 5 96 15 20 27 24 74 24
66 0 115 -26 158 -86 26 -36 29 -48 29 -114 0 -86 18 -97 36 -22 8 33 16 45
32 47 21 3 22 0 22 -85 0 -138 -18 -312 -40 -383 -12 -40 -39 -94 -70 -138
-69 -98 -221 -255 -304 -313 -58 -41 -77 -49 -113 -49 -103 0 -372 73 -499
135 -62 30 -102 73 -264 283 -142 185 -160 214 -160 259 0 33 0 33 49 33 34 0
51 -4 55 -15 8 -23 -1 -38 -40 -64 -45 -31 -30 -50 18 -21 l35 20 16 -24 c15
-22 14 -25 -8 -46 -31 -29 -22 -44 14 -26 25 13 30 13 57 -9 16 -13 32 -21 37
-18 4 2 -11 38 -33 80 -51 97 -53 140 -8 207 43 66 79 86 148 85 30 -1 45 -4
33 -6 -28 -5 -29 -11 -1 -40 24 -26 29 -80 7 -94 -25 -16 -68 -10 -89 13 -30
32 -26 66 10 86 35 20 38 32 10 32 -54 0 -120 -71 -120 -129 0 -36 41 -152 61
-172 18 -18 22 -18 49 -4 56 29 81 13 35 -23 -27 -21 -33 -47 -12 -55 10 -4
10 -7 0 -18 -23 -24 -15 -37 21 -35 34 3 179 70 197 92 5 6 10 38 11 70 2 74
-30 161 -81 217 l-36 40 32 -16 c44 -23 48 -21 24 12 -32 44 -114 81 -181 81
-87 0 -147 -45 -206 -155 -12 -21 -93 -50 -105 -37 -9 10 -22 142 -14 142 3 0
21 -11 38 -24 35 -27 87 -44 87 -29 0 6 -9 36 -20 68 -27 80 -26 89 21 124
l42 30 45 -35 c25 -18 49 -34 53 -34 17 0 9 -20 -8 -21 -38 -2 46 -17 125 -23
92 -6 110 7 36 26 -42 12 -49 18 -75 70 -16 32 -29 60 -29 63 0 3 20 5 45 5
52 0 64 26 18 35 -90 19 -85 14 -110 104 l-22 85 86 -88 c134 -135 266 -215
357 -216 32 0 45 7 73 36 36 39 63 86 82 146 7 21 26 49 43 63 31 26 128 79
133 73 1 -2 10 -26 19 -55 20 -60 13 -84 -33 -108 -37 -19 -81 -71 -81 -96 0
-27 16 -23 35 9 17 27 54 58 110 91 24 14 36 34 55 90 l25 72 35 -3 c34 -3 35
-5 45 -57 6 -30 16 -56 22 -58 7 -3 20 13 29 36 9 24 23 41 32 41 12 0 13 3 4
12 -13 13 -17 70 -5 81 7 8 35 -39 105 -177z m-2113 -156 c39 -54 99 -90 148
-90 51 0 76 11 119 52 l31 29 23 -93 c12 -51 42 -149 67 -218 43 -123 43 -125
25 -149 -10 -14 -30 -34 -45 -45 l-27 -20 -52 25 c-74 34 -159 99 -261 198
-124 120 -124 120 -92 237 14 53 25 98 25 100 0 13 19 0 39 -26z m2161 -26 c0
-41 -2 -45 -22 -42 -33 4 -36 43 -6 68 13 11 24 19 26 20 1 0 2 -21 2 -46z
m-171 -60 c26 -69 26 -97 1 -149 -22 -45 -53 -65 -100 -65 -33 0 -35 3 -20 30
14 27 -14 52 -53 48 -27 -3 -31 1 -44 37 -8 22 -12 62 -11 88 l3 49 26 -21
c20 -15 28 -32 32 -68 4 -35 12 -53 32 -70 66 -57 115 4 86 107 -8 26 8 82 20
74 4 -2 17 -29 28 -60z m-1782 -419 l81 -49 -19 -28 c-46 -65 -90 -73 -172
-32 -95 48 -161 112 -191 186 -12 29 -12 40 6 96 l19 63 97 -93 c55 -52 133
-115 179 -143z m980 183 c21 -42 27 -67 28 -121 0 -60 -3 -71 -24 -88 -24 -19
-121 -28 -121 -11 0 13 41 47 72 60 37 15 43 48 20 102 -13 28 -18 57 -15 78
3 17 7 32 9 32 2 0 16 -24 31 -52z m-1225 -241 c36 -35 90 -74 120 -87 29 -13
55 -26 58 -28 6 -4 -48 -48 -81 -67 -24 -13 -31 -12 -77 11 -56 28 -108 81
-118 120 -5 19 19 114 29 114 1 0 32 -28 69 -63z m1941 -469 c-3 -64 -11 -113
-21 -128 -8 -14 -50 -56 -93 -95 -59 -52 -86 -84 -106 -127 -15 -32 -30 -58
-34 -58 -5 0 -13 19 -19 43 -17 67 -28 82 -107 144 -40 32 -76 67 -78 78 -2
11 -6 39 -10 63 -5 38 -3 43 12 38 70 -20 187 -36 219 -30 35 6 148 89 203
148 14 14 28 26 32 26 5 0 5 -46 2 -102z m82 -51 c28 -71 29 -124 1 -230 -24
-95 -102 -277 -124 -291 -12 -7 -14 0 -56 173 l-26 105 68 70 c37 39 78 85 90
103 23 33 29 68 12 78 -5 3 -10 15 -10 25 0 32 27 12 45 -33z m-585 -17 c0 -5
-7 -10 -15 -10 -21 0 -19 -8 15 -67 16 -28 52 -71 80 -94 33 -28 49 -49 46
-59 -15 -47 -85 -229 -96 -250 -13 -23 -13 -23 -41 31 -39 76 -60 150 -69 253
-9 87 -8 91 21 148 16 32 36 58 44 58 8 0 15 -4 15 -10z m1364 -105 c19 -19
41 -53 47 -75 10 -34 10 -46 -6 -80 -17 -39 -18 -44 -2 -94 9 -29 17 -60 17
-70 0 -9 22 -63 48 -119 40 -84 57 -109 92 -135 24 -18 50 -32 57 -32 17 0 17
-2 -12 -82 -27 -74 -31 -118 -15 -149 19 -34 28 -20 27 39 -1 50 5 71 46 157
39 80 45 101 35 111 -20 18 -51 25 -68 14 -13 -9 -12 -12 4 -25 34 -26 -8 -30
-49 -5 -36 22 -55 47 -55 73 0 16 64 46 153 72 55 16 71 30 44 41 -8 3 -60
-12 -116 -32 -56 -20 -104 -34 -106 -32 -2 2 -13 24 -24 48 -13 30 -17 49 -11
61 14 25 74 45 178 59 97 13 121 25 77 36 -40 10 -123 -1 -202 -28 l-72 -24
-11 27 c-33 78 9 97 211 98 l137 1 6 -32 c3 -18 8 -94 12 -168 10 -192 -10
-309 -88 -517 -16 -44 -24 -53 -44 -53 -38 0 -86 24 -118 58 -37 39 -125 273
-138 367 -21 157 -40 250 -73 364 -50 171 -46 192 19 126z m-2086 -5 c29 -47
213 -115 371 -135 58 -8 113 -15 122 -15 13 0 18 -15 23 -77 8 -93 28 -169 63
-238 30 -59 70 -115 83 -115 5 0 38 48 72 107 l63 107 9 -63 c9 -59 8 -63 -18
-89 -30 -32 -35 -85 -11 -116 8 -11 15 -28 15 -38 0 -10 -29 -76 -64 -147 -69
-138 -380 -697 -402 -720 -11 -12 -22 -11 -78 3 -81 20 -167 60 -193 89 -20
22 -20 25 -2 277 40 579 41 588 28 745 -6 83 -16 161 -22 175 l-10 25 -7 -25
c-3 -14 -2 -121 3 -239 5 -117 6 -230 2 -250 l-7 -36 -20 55 c-36 106 -58 243
-58 367 0 107 11 215 27 268 6 19 5 20 -15 2 -33 -30 -45 -130 -39 -318 5
-175 21 -258 71 -377 20 -47 26 -78 26 -136 0 -87 17 -63 -249 -352 -344 -376
-450 -518 -670 -904 -46 -80 -95 -158 -109 -173 -59 -63 -368 -279 -524 -366
-61 -35 -114 -40 -235 -25 -52 6 -55 5 -129 -45 l-75 -51 -37 19 c-79 40 -182
182 -182 252 0 19 16 39 69 82 42 34 75 55 84 51 19 -7 39 54 62 181 29 163
29 163 200 255 109 59 323 199 421 276 45 34 118 102 164 151 112 120 324 404
488 655 54 82 273 351 280 343 2 -2 -35 -74 -83 -161 -49 -90 -82 -161 -77
-166 15 -15 64 68 236 397 168 320 236 436 284 488 31 32 34 33 50 7z m2373
-46 c65 -15 129 -46 129 -62 0 -4 -29 -4 -65 2 -41 6 -100 6 -161 0 l-96 -9 6
33 c3 19 10 40 16 47 13 16 70 12 171 -11z m-1735 -342 c36 -71 45 -98 38
-110 -26 -40 -44 -13 -95 137 -24 71 -29 100 -28 180 l1 96 18 -105 c15 -83
28 -124 66 -198z m-17 194 c12 -52 39 -126 61 -170 21 -42 35 -76 31 -76 -14
0 -80 143 -95 205 -18 77 -28 135 -23 135 3 0 14 -42 26 -94z m1379 58 c12 -8
31 -32 41 -52 24 -48 61 -277 61 -378 0 -122 -21 -358 -33 -366 -6 -3 -27 -9
-46 -13 -20 -4 -57 -16 -83 -27 -64 -27 -78 -64 -78 -205 0 -147 -31 -253
-131 -449 -42 -84 -82 -168 -89 -189 -7 -20 -14 -34 -17 -31 -6 5 -49 354 -59
478 l-7 87 76 158 c112 233 287 757 287 858 0 67 -31 -8 -105 -255 -98 -327
-144 -441 -323 -799 -133 -266 -151 -296 -177 -304 -39 -11 -350 -22 -407 -13
l-44 7 37 177 c42 195 62 346 80 587 12 155 13 161 41 194 27 30 29 39 23 77
-6 40 -3 48 30 91 20 26 39 60 42 75 3 16 8 28 12 28 3 0 19 -31 34 -69 39
-96 67 -136 97 -136 19 0 30 12 56 64 37 73 78 197 95 291 7 36 13 66 14 67 1
2 33 -4 71 -11 163 -33 403 -28 445 10 10 9 19 28 19 41 0 27 8 29 38 7z
m-683 -88 c-26 -91 -72 -197 -99 -231 -30 -39 -17 7 28 94 24 48 54 119 66
159 12 40 24 71 26 69 2 -2 -7 -43 -21 -91z m-460 -26 c3 -5 1 -10 -4 -10 -6
0 -11 5 -11 10 0 6 2 10 4 10 3 0 8 -4 11 -10z m176 -43 c67 -45 72 -94 18
-181 l-31 -49 -42 42 c-45 44 -62 49 -92 26 -10 -8 -24 -15 -30 -15 -16 0 -27
111 -15 143 22 57 129 76 192 34z m-74 -229 c42 -60 56 -103 37 -119 -34 -28
-119 -77 -126 -72 -19 11 -69 127 -64 147 4 17 97 86 117 86 3 0 19 -19 36
-42z m-53 -223 c21 9 40 14 43 11 9 -8 -28 -385 -52 -540 -13 -83 -36 -203
-51 -266 -25 -107 -30 -118 -68 -155 -36 -35 -212 -135 -287 -164 l-26 -9 -43
173 -42 173 141 246 c77 135 170 305 207 377 36 73 73 143 81 156 l16 24 22
-21 c21 -19 24 -20 59 -5z m1289 -52 c14 -69 128 -153 205 -153 46 0 74 17 67
40 -3 10 0 22 6 26 14 9 6 -75 -11 -106 -22 -41 -122 -34 -190 12 -61 42 -93
92 -98 153 -5 57 11 78 21 28z m-122 -246 l-23 -74 20 -44 c11 -24 33 -63 50
-85 53 -72 176 -114 244 -83 23 10 28 17 65 89 l17 35 7 -60 c4 -33 7 -100 8
-150 1 -97 0 -100 -70 -186 -67 -82 -87 -129 -133 -319 -59 -238 -85 -293
-212 -427 -68 -73 -103 -103 -119 -103 -33 0 -174 107 -228 175 -64 78 -72
112 -59 265 12 141 25 182 101 315 28 49 67 131 88 184 l38 96 3 -53 c2 -36 7
-52 15 -49 9 3 14 67 18 228 3 123 9 234 13 245 4 12 17 27 29 33 28 15 141
49 146 44 3 -2 -6 -36 -18 -76z m101 23 c36 -50 116 -91 190 -97 58 -6 60 -7
54 -32 -4 -14 -12 -52 -18 -83 -12 -54 -14 -57 -50 -66 -86 -22 -178 27 -229
122 l-32 59 23 74 c13 40 26 70 30 66 3 -5 18 -24 32 -43z m-2188 -265 c-37
-438 -46 -525 -60 -586 -24 -104 -197 -391 -459 -759 -209 -294 -211 -297
-347 -600 -61 -137 -82 -174 -96 -172 -65 10 -96 1 -207 -57 -62 -34 -118 -61
-123 -61 -18 0 -243 187 -372 309 -154 145 -216 190 -299 217 l-65 21 117 87
117 87 94 -7 c64 -4 105 -3 131 6 94 31 505 293 597 381 37 35 77 89 114 154
180 316 409 654 554 814 109 121 312 333 315 329 2 -2 -3 -75 -11 -163z m114
-234 c31 -16 84 -37 117 -47 33 -10 64 -21 69 -25 5 -4 -18 -63 -50 -131 -64
-136 -68 -159 -47 -313 6 -44 17 -126 23 -182 7 -55 16 -107 21 -114 6 -11 43
4 161 63 84 42 188 100 230 127 l77 51 59 153 c33 83 67 177 76 208 l16 56
177 -5 c100 -2 202 0 233 6 30 6 56 9 58 8 1 -2 -27 -63 -63 -137 -35 -73 -74
-160 -85 -194 -31 -87 -36 -192 -16 -295 25 -124 38 -160 159 -435 60 -137
136 -312 168 -389 74 -173 142 -304 248 -474 72 -115 97 -144 104 -121 1 3
-28 59 -66 124 -37 65 -66 119 -65 120 6 5 537 -300 538 -308 0 -5 -26 -38
-57 -74 -64 -71 -154 -144 -221 -176 l-43 -21 -190 189 c-180 179 -340 353
-403 438 -24 32 -56 50 -56 31 0 -26 178 -232 382 -441 93 -94 168 -175 168
-180 0 -5 -33 -25 -74 -45 l-73 -36 -120 171 c-145 206 -413 663 -438 745 -9
30 -31 22 -27 -9 3 -23 74 -158 210 -399 62 -108 212 -340 308 -476 24 -34 44
-66 44 -72 0 -6 -19 -17 -42 -26 -24 -9 -74 -27 -111 -41 -116 -42 -325 -78
-467 -79 l-124 -1 -48 150 c-74 230 -155 518 -199 708 -41 178 -59 226 -52
135 9 -101 177 -752 234 -907 11 -30 16 -57 12 -61 -10 -9 -133 -33 -139 -27
-9 8 -84 349 -114 513 -41 223 -56 345 -70 544 -13 186 -16 210 -30 210 -23 0
-6 -263 35 -555 26 -179 49 -297 114 -585 22 -96 36 -178 32 -182 -4 -5 -40
-11 -81 -14 -63 -5 -111 0 -295 35 -121 22 -253 46 -294 54 l-74 13 2 89 c7
340 37 713 77 963 14 89 13 112 -6 112 -32 0 -87 -504 -99 -900 l-6 -205 -77
-2 c-54 -1 -78 2 -78 10 0 6 16 113 36 237 37 239 118 612 183 847 45 162 51
195 35 200 -17 6 -39 -57 -88 -259 -97 -398 -125 -535 -189 -948 -27 -169 -11
-158 -162 -109 -111 37 -282 118 -393 187 -92 57 -272 188 -272 198 0 4 29 58
66 121 107 186 198 367 279 553 93 212 149 309 296 510 268 368 408 609 444
765 14 60 45 307 45 363 0 12 2 22 5 22 3 0 31 -13 63 -29z m297 -233 c23 -90
43 -149 52 -152 20 -8 146 46 234 100 119 74 112 72 91 17 -13 -37 -28 -55
-64 -79 -45 -30 -179 -84 -244 -98 l-31 -7 -52 172 c-36 117 -50 180 -46 198
9 37 16 20 60 -151z m-77 25 c7 -27 29 -99 48 -160 30 -97 38 -114 59 -119 31
-8 121 19 223 66 45 21 82 37 82 36 0 -1 -15 -38 -34 -82 l-35 -79 -103 -63
c-164 -102 -288 -165 -293 -150 -2 7 -13 83 -25 168 -11 85 -23 168 -25 185
-4 21 8 63 37 137 23 60 45 108 48 108 3 0 11 -21 18 -47z m-2619 -1039 c7
-19 32 -59 56 -88 l43 -53 -24 -31 c-14 -17 -65 -63 -114 -101 -49 -39 -95
-81 -101 -93 -7 -13 -32 -88 -55 -167 -26 -87 -51 -153 -64 -165 -24 -24 -23
-30 -10 124 11 123 46 312 63 345 19 37 180 265 186 265 4 0 13 -16 20 -36z
m326 -298 c67 -31 151 -100 475 -391 151 -136 296 -266 323 -288 26 -22 47
-43 47 -47 0 -7 -86 -167 -96 -179 -2 -2 -32 23 -66 56 -35 33 -119 109 -188
169 -183 159 -316 295 -403 412 -42 56 -74 102 -71 102 3 0 44 -12 91 -26 57
-17 88 -23 95 -16 14 14 -9 25 -148 67 -118 36 -246 54 -297 41 -14 -3 -39
-18 -57 -32 -17 -15 -32 -25 -34 -23 -2 2 25 27 60 54 73 58 87 89 23 53 -23
-13 -75 -51 -117 -85 -80 -67 -109 -79 -98 -40 3 12 6 29 6 37 1 30 19 43 74
51 36 5 89 25 153 58 113 58 152 63 228 27z m59 -495 c108 -123 196 -227 196
-231 0 -5 -46 -36 -102 -71 -115 -69 -225 -144 -341 -231 -43 -32 -82 -58 -87
-58 -11 0 -96 154 -127 231 -44 110 -105 339 -93 353 5 8 39 27 73 44 35 18
71 40 81 51 10 11 30 23 45 26 15 3 54 33 86 65 33 33 62 56 66 52 4 -4 95
-108 203 -231z m-698 131 c-8 -75 4 -99 44 -89 21 6 22 3 40 -88 19 -96 107
-351 153 -443 27 -54 71 -119 124 -181 85 -99 151 -188 365 -496 175 -250 638
-957 638 -973 0 -4 -22 -22 -50 -41 -48 -32 -52 -34 -115 -27 -35 4 -72 9 -81
13 -14 5 -482 703 -664 990 -41 65 -126 190 -188 278 -63 88 -121 175 -129
193 -18 43 -66 245 -92 387 -11 61 -32 165 -46 233 -14 68 -25 148 -25 179 0
52 17 133 28 133 2 0 2 -31 -2 -68z m1201 -424 c32 -28 82 -73 111 -101 l53
-49 -36 -60 -36 -60 27 -35 c20 -27 24 -37 14 -43 -15 -9 -301 -219 -487 -358
-69 -51 -126 -92 -128 -90 -1 2 -42 62 -90 133 -49 72 -106 151 -127 177 l-38
46 167 125 c288 214 498 367 505 367 4 0 34 -23 65 -52z m3724 33 c22 -18 23
-21 9 -47 -40 -77 -252 -264 -300 -264 -9 0 -29 13 -44 28 l-27 29 68 39 c43
25 103 74 163 136 52 53 98 97 101 97 4 1 17 -8 30 -18z m-3339 -109 c201
-149 416 -264 615 -328 110 -35 113 -37 113 -66 0 -39 -17 -43 -107 -23 -175
39 -385 148 -671 348 -87 61 -86 59 -66 101 10 20 19 36 21 36 2 0 45 -31 95
-68z m3471 9 c34 -31 34 -53 1 -120 -30 -59 -181 -219 -233 -245 l-34 -18 -69
70 -70 69 54 30 c86 49 155 109 221 193 69 87 57 86 130 21z m-3509 -130 c143
-101 241 -160 396 -237 111 -56 157 -72 318 -114 l42 -11 -6 -97 c-4 -53 -10
-100 -13 -105 -4 -4 -52 2 -106 13 -199 41 -401 124 -551 226 -91 62 -225 176
-259 219 l-26 35 42 75 c24 41 45 75 47 75 2 0 54 -35 116 -79z m2780 -166
c15 -25 27 -47 25 -49 -15 -11 -149 -57 -221 -75 -111 -28 -324 -59 -459 -67
l-105 -7 -13 43 c-7 23 -11 43 -9 45 2 1 70 8 152 14 212 16 398 58 540 121
23 10 46 19 51 19 6 1 23 -19 39 -44z m-2888 -56 l52 -52 -324 -248 c-179
-137 -327 -249 -329 -249 -3 0 -25 30 -49 67 l-45 66 102 84 c115 95 514 383
531 383 6 0 34 -23 62 -51z m1369 -58 c320 -63 345 -66 427 -55 50 7 75 7 80
1 10 -17 20 -78 13 -86 -4 -3 -88 -6 -188 -5 -181 0 -183 1 -380 47 -108 26
-200 47 -202 47 -3 0 -5 22 -5 50 0 49 1 49 28 45 15 -3 117 -23 227 -44z
m1638 -52 c32 -45 57 -82 55 -84 -2 -1 -41 -23 -88 -48 -101 -54 -245 -101
-353 -116 -96 -13 -357 -14 -390 -2 -19 7 -32 29 -56 91 -17 45 -31 83 -31 85
0 6 56 13 210 25 171 13 343 48 472 94 51 18 100 34 108 34 8 1 41 -35 73 -79z
m-2850 -12 c34 -24 83 -55 108 -70 60 -34 110 -91 243 -275 134 -188 150 -217
133 -247 -23 -41 -233 -228 -546 -484 -117 -97 -167 -132 -177 -125 -15 10
-494 730 -494 743 0 4 35 33 78 64 42 30 187 141 322 246 135 105 251 191 258
191 7 0 41 -19 75 -43z m3193 -792 c80 -280 148 -523 151 -539 l6 -28 -294 3
c-162 2 -328 0 -369 -5 l-75 -8 -74 133 c-41 74 -111 197 -157 275 -116 199
-282 492 -343 608 -41 76 -50 101 -40 107 9 5 21 1 34 -10 13 -12 43 -21 84
-25 82 -8 388 11 467 29 73 17 374 153 374 169 0 6 -7 22 -16 35 -14 19 -14
25 -3 32 21 13 92 -202 255 -776z m-4607 752 c8 -11 -8 -28 -77 -79 -109 -82
-182 -159 -182 -192 0 -139 349 -807 514 -984 56 -59 66 -82 32 -69 -16 6
-131 156 -181 237 -42 67 -216 383 -309 560 -75 144 -81 159 -80 215 0 64 31
142 72 178 14 13 174 131 198 146 1 1 7 -5 13 -12z m2587 -33 c169 -41 298
-56 458 -53 l120 2 28 -84 c16 -46 26 -89 24 -95 -2 -6 -45 -19 -95 -29 -132
-25 -218 -18 -466 43 -115 28 -227 54 -247 57 l-38 6 0 100 0 100 38 -6 c20
-4 100 -22 178 -41z m-2394 -250 c84 -130 276 -421 426 -647 150 -225 271
-410 270 -411 -9 -3 -432 14 -473 19 -43 6 -58 15 -103 58 -64 61 -209 276
-277 408 -26 52 -69 130 -95 174 -46 77 -85 164 -135 305 -28 77 -31 98 -21
125 10 27 225 205 247 205 4 0 76 -106 161 -236z m2088 122 c45 -9 55 -15 60
-36 5 -22 13 -26 65 -32 49 -5 419 -94 420 -101 0 -1 -1 -219 -3 -484 l-4
-481 -61 -12 c-35 -6 -182 -12 -337 -13 l-275 -2 -87 350 c-93 371 -180 778
-168 783 4 2 53 -6 108 -18 55 -11 112 -20 127 -20 24 0 25 2 19 34 -11 59 -7
60 136 32z m-2775 -516 c20 -41 87 -165 148 -275 99 -179 177 -340 177 -366 0
-23 -17 -4 -34 39 -39 97 -190 396 -258 509 -69 115 -99 185 -97 227 0 13 6 5
13 -19 7 -22 30 -74 51 -115z m505 -320 c63 -115 109 -185 172 -264 26 -32 45
-63 42 -67 -6 -10 -154 -12 -178 -3 -9 3 -56 65 -104 138 -95 141 -122 187
-122 209 0 17 122 100 131 89 4 -4 30 -50 59 -102z m-204 -32 c24 -54 120
-202 163 -250 18 -21 30 -42 26 -48 -3 -5 -29 -10 -56 -10 l-50 0 -27 63 c-14
34 -49 108 -78 164 -51 99 -51 101 -30 111 31 16 31 15 52 -30z"/>
<path d="M5415 6423 c-33 -15 -100 -36 -150 -48 -89 -21 -90 -22 -87 -50 5
-39 23 -72 72 -128 58 -66 89 -80 154 -72 28 4 62 14 74 22 58 37 81 176 42
261 -10 23 -25 42 -32 41 -7 0 -40 -12 -73 -26z m83 -38 c16 -36 15 -129 -2
-170 -15 -34 -76 -75 -113 -75 -20 0 -91 44 -110 68 -16 19 -17 68 -3 108 9
25 23 33 98 61 108 39 116 39 130 8z"/>
<path d="M3580 4099 c-74 -45 -270 -151 -435 -236 -165 -86 -304 -160 -310
-165 -52 -49 360 148 625 299 183 105 258 153 264 170 3 7 2 13 -2 13 -4 -1
-68 -37 -142 -81z"/>
<path d="M2457 3344 c-26 -27 28 -160 87 -212 52 -45 64 -40 23 11 -40 49 -63
92 -86 160 -9 26 -20 45 -24 41z"/>
<path d="M6451 5263 c-32 -94 -124 -276 -209 -415 -40 -64 -72 -119 -72 -122
0 -3 6 -6 13 -6 31 0 249 387 298 529 22 64 24 81 6 81 -6 0 -23 -30 -36 -67z"/>
<path d="M3213 1166 c-58 -27 -133 -92 -162 -140 -19 -31 -61 -145 -61 -167 0
-14 109 -124 130 -131 8 -3 37 1 64 8 27 7 61 10 76 7 38 -7 96 43 86 75 -4
11 -16 24 -28 27 -19 7 -18 8 8 24 28 17 30 17 50 -5 26 -27 52 -23 84 11 31
33 26 126 -10 172 -10 13 -18 41 -18 65 -1 60 -26 78 -106 78 -43 0 -76 -7
-113 -24z m-48 -286 c22 -11 46 -20 54 -20 8 0 12 -3 8 -6 -3 -3 -29 -3 -56 1
-41 6 -51 11 -51 26 0 23 -3 23 45 -1z"/>
</g>
</svg>
