<?xml version="1.0" encoding="UTF-8" standalone="no"?>
<svg
   xmlns:dc="http://purl.org/dc/elements/1.1/"
   xmlns:cc="http://creativecommons.org/ns#"
   xmlns:rdf="http://www.w3.org/1999/02/22-rdf-syntax-ns#"
   xmlns:svg="http://www.w3.org/2000/svg"
   xmlns="http://www.w3.org/2000/svg"
   xmlns:sodipodi="http://sodipodi.sourceforge.net/DTD/sodipodi-0.dtd"
   xmlns:inkscape="http://www.inkscape.org/namespaces/inkscape"
   version="1.0"
   width="850.000000pt"
   height="850.000000pt"
   viewBox="0 0 850.000000 850.000000"
   preserveAspectRatio="xMidYMid meet"
   id="svg62"
   sodipodi:docname="18.svg"
   inkscape:version="0.92.2 5c3e80d, 2017-08-06">
  <defs
     id="defs66" />
  <sodipodi:namedview
     pagecolor="#ffffff"
     bordercolor="#666666"
     borderopacity="1"
     objecttolerance="10"
     gridtolerance="10"
     guidetolerance="10"
     inkscape:pageopacity="0"
     inkscape:pageshadow="2"
     inkscape:window-width="1920"
     inkscape:window-height="978"
     id="namedview64"
     showgrid="false"
     inkscape:zoom="0.40032123"
     inkscape:cx="299.91086"
     inkscape:cy="561.88462"
     inkscape:window-x="0"
     inkscape:window-y="1"
     inkscape:window-maximized="1"
     inkscape:current-layer="svg62" />
  <metadata
     id="metadata2">
Created by potrace 1.14, written by Peter Selinger 2001-2017
<rdf:RDF>
  <cc:Work
     rdf:about="">
    <dc:format>image/svg+xml</dc:format>
    <dc:type
       rdf:resource="http://purl.org/dc/dcmitype/StillImage" />
  </cc:Work>
</rdf:RDF>
</metadata>
  <g
     transform="translate(0.000000,850.000000) scale(0.100000,-0.100000)"
     fill="#000000"
     stroke="none"
     id="g60">
    <path
       d="M0 8060 l0 -440 67 78 c37 42 77 84 88 93 25 21 57 86 82 163 15 49 30 71 89 130 93 92 161 149 203 171 18 9 53 34 76 56 24 22 60 49 82 62 80 45 203 120 203 123 0 2 -200 4 -445 4 l-445 0 0 -440z"
       id="path4"
       style="fill:none" />
    <path
       d="M1051 8462 c-116 -79 -186 -122 -201 -122 -8 0 -51 -27 -94 -60 -44 -33 -83 -60 -87 -60 -3 0 -9 -19 -13 -42 -8 -49 -57 -108 -90 -108 -12 -1 -32 -14 -46 -31 -14 -17 -75 -71 -135 -119 -61 -49 -119 -104 -130 -122 -10 -18 -47 -61 -81 -96 -33 -34 -73 -85 -88 -112 -24 -44 -27 -58 -24 -132 2 -51 7 -81 13 -78 6 3 26 42 47 88 77 173 199 326 384 478 89 73 109 85 136 82 31 -3 30 -5 -94 -116 -259 -231 -360 -362 -424 -549 -43 -126 -58 -247 -51 -393 6 -104 27 -202 46 -214 4 -3 31 50 59 118 94 220 206 404 336 551 53 60 76 77 76 57 0 -5 -39 -60 -86 -123 -158 -210 -244 -374 -290 -558 -48 -188 -40 -337 23 -452 29 -54 143 -169 167 -169 25 0 40 32 136 290 83 223 133 330 147 317 2 -3 -27 -92 -65 -199 -38 -106 -80 -236 -92 -288 -33 -143 -29 -311 10 -415 6 -15 13 -26 15 -23 3 2 12 65 20 139 9 74 19 145 22 159 9 40 55 151 60 146 3 -2 -5 -49 -16 -105 -45 -218 -21 -393 73 -525 51 -72 182 -183 261 -221 54 -27 160 -53 171 -43 3 4 -32 114 -79 245 -83 228 -88 252 -56 253 4 0 33 -70 65 -157 62 -169 91 -216 169 -275 63 -48 182 -98 233 -98 l39 0 -9 58 c-23 149 -65 209 -196 277 -205 106 -325 248 -404 475 -30 89 -32 104 -33 230 0 119 3 140 22 180 l22 45 -6 -90 c-6 -97 8 -234 32 -330 41 -157 152 -315 285 -405 60 -41 220 -124 226 -117 2 2 -32 53 -77 113 -93 125 -109 153 -138 248 -27 89 -71 449 -71 586 0 168 50 289 173 417 69 72 97 75 37 3 -137 -164 -196 -370 -171 -598 25 -222 73 -335 195 -456 44 -44 82 -74 84 -68 2 6 -10 44 -27 85 -63 158 -66 276 -16 580 63 378 104 500 244 712 62 94 228 259 326 324 147 96 325 170 325 133 0 -4 -44 -28 -98 -53 -222 -106 -439 -292 -550 -471 -205 -333 -243 -770 -90 -1048 47 -85 54 -90 116 -90 58 0 132 -18 132 -31 0 -5 -37 -9 -82 -11 l-83 -3 65 -66 c62 -62 137 -113 187 -125 l23 -6 -16 43 c-32 92 -46 185 -46 309 0 211 33 324 192 643 103 206 158 348 195 497 22 91 127 302 161 325 19 12 25 13 21 4 -3 -8 -29 -66 -58 -129 -191 -423 -229 -815 -113 -1170 50 -150 58 -150 48 0 -15 206 -8 411 15 527 55 269 187 505 359 644 58 47 80 59 109 59 49 0 87 -44 114 -132 l22 -70 43 79 c23 43 53 87 66 99 33 29 76 46 84 33 7 -11 15 -118 34 -419 13 -218 28 -290 84 -404 40 -83 145 -240 154 -231 2 2 -1 19 -7 37 -29 92 -41 216 -41 444 0 146 4 234 10 234 12 0 17 -25 25 -125 13 -174 57 -360 112 -470 31 -62 102 -161 138 -195 24 -22 21 -13 -23 75 -28 55 -60 131 -71 170 -22 70 -39 185 -28 185 3 0 14 -24 23 -52 9 -29 58 -134 108 -233 112 -222 103 -215 294 -215 80 0 132 4 132 10 0 5 -16 49 -36 97 -80 193 -120 344 -112 428 3 35 15 4 90 -219 48 -142 95 -270 103 -283 21 -31 73 -63 105 -63 36 0 93 -17 115 -35 21 -17 20 -17 -123 1 l-43 5 20 -38 c91 -180 374 -396 497 -381 24 3 17 15 -160 262 -102 142 -186 262 -186 267 0 4 4 10 9 13 13 9 72 -61 196 -234 126 -175 168 -227 196 -235 11 -4 59 7 111 25 74 26 103 31 157 28 64 -3 66 -2 80 26 30 64 -23 323 -100 486 -45 94 -80 147 -181 268 -38 45 -66 82 -63 82 3 0 23 -9 45 -20 75 -38 220 -247 280 -401 48 -124 62 -208 64 -369 l1 -145 46 -70 c25 -38 58 -93 73 -122 16 -28 35 -54 42 -57 50 -19 281 115 458 267 54 46 112 92 128 102 29 17 30 17 20 -2 -18 -33 -204 -205 -296 -275 -49 -36 -132 -88 -185 -115 -53 -26 -98 -49 -100 -51 -3 -1 1 -8 7 -14 28 -28 218 37 329 114 27 18 84 66 128 107 81 76 104 81 62 14 -56 -89 -186 -182 -389 -278 -55 -26 -99 -53 -102 -63 -2 -9 -7 -48 -11 -87 -13 -149 -43 -213 -153 -327 -36 -38 -60 -68 -54 -68 22 0 168 62 282 120 253 129 269 110 25 -30 -142 -82 -251 -133 -345 -160 -60 -18 -83 -31 -115 -64 -22 -22 -54 -48 -72 -58 -57 -30 -67 -64 -65 -228 2 -153 8 -227 21 -249 15 -23 46 -3 136 87 236 234 631 756 750 989 122 240 188 558 188 903 0 266 -24 450 -105 814 -80 359 -167 541 -349 731 -75 78 -80 85 -55 85 19 0 56 -25 129 -86 56 -47 129 -102 162 -121 158 -92 275 -200 365 -338 68 -105 200 -377 238 -490 31 -94 57 -211 66 -305 4 -30 15 -271 26 -535 44 -1071 55 -1264 81 -1413 46 -275 119 -494 275 -834 87 -191 248 -570 273 -645 48 -143 50 -281 6 -462 -65 -267 -165 -490 -288 -643 l-49 -60 23 -24 22 -24 49 63 c167 215 284 452 322 654 35 187 30 293 -28 703 -13 91 -22 167 -20 169 7 8 46 -95 64 -169 30 -119 42 -242 42 -425 0 -328 -65 -607 -223 -966 -38 -85 -69 -165 -69 -178 0 -12 17 -53 38 -89 l37 -67 6 95 c10 164 39 207 260 385 292 235 369 318 445 478 125 265 117 661 -21 1008 -35 87 -255 522 -450 889 -216 405 -242 473 -252 655 -10 195 23 315 166 605 103 207 155 349 193 520 19 91 23 134 23 320 0 209 -1 220 -37 400 -65 318 -103 455 -157 565 -63 130 -130 224 -244 341 -50 52 -95 102 -100 110 -12 21 -65 69 -110 99 -53 35 -168 95 -182 95 -7 0 -23 9 -37 19 -13 11 -44 24 -68 31 -25 7 -50 16 -56 21 -6 5 -36 18 -67 28 -30 11 -66 26 -79 35 -13 9 -53 19 -87 22 -38 4 -65 12 -68 21 -4 11 -415 13 -2492 12 l-2486 0 -54 -37z m4133 -472 c30 -76 49 -218 42 -322 -11 -174 -20 -158 -55 98 -18 132 -34 245 -36 252 -3 7 4 12 14 12 13 0 24 -13 35 -40z m-185 -166 c-13 -123 -95 -300 -191 -416 -39 -47 -104 -95 -115 -85 -3 4 17 34 44 69 117 149 153 216 219 396 50 139 55 143 43 36z m85 -826 c71 -71 134 -173 176 -281 30 -76 49 -177 34 -177 -5 0 -24 39 -43 88 -59 152 -113 245 -229 400 -41 54 -4 36 62 -30z m830 -190 c-14 -48 -129 -263 -186 -351 -99 -152 -228 -305 -228 -272 0 5 81 134 323 518 76 120 107 155 91 105z m-740 -141 c42 -57 68 -119 73 -179 4 -35 2 -58 -4 -58 -8 0 -131 246 -152 303 -7 18 58 -33 83 -66z m266 -1598 c-71 -60 -228 -110 -339 -108 -36 0 -59 3 -51 7 21 9 393 120 405 121 6 0 -1 -9 -15 -20z"
       id="path6"
       style="fill:#8b0000" />
    <path
       d="M6275 8491 c6 -5 33 -16 61 -25 28 -9 68 -25 90 -36 21 -11 46 -20 55 -20 9 0 27 -8 40 -19 13 -10 42 -24 64 -31 22 -7 51 -21 64 -31 13 -11 28 -19 33 -19 6 0 30 -13 55 -30 24 -16 47 -30 51 -30 20 0 274 -302 340 -403 60 -93 135 -252 171 -364 118 -366 157 -869 91 -1178 -10 -49 -35 -162 -54 -250 -19 -88 -38 -180 -41 -205 l-7 -44 83 75 c46 41 147 129 224 194 161 136 345 318 427 421 179 225 294 458 356 719 24 100 26 129 27 315 0 213 -6 260 -56 430 -21 73 -48 105 -139 163 -30 19 -82 55 -114 81 -33 25 -80 56 -105 67 -25 12 -53 27 -61 34 -14 12 -98 55 -170 89 -51 23 -144 55 -235 79 -77 20 -105 21 -670 24 -346 2 -585 0 -580 -6z"
       id="path8"
       style="fill:#a52a2a" />
    <path
       d="M7700 8481 c30 -10 64 -22 75 -28 124 -62 172 -88 185 -99 8 -7 27 -15 41 -19 14 -3 58 -30 96 -59 39 -29 109 -78 156 -109 130 -86 136 -96 180 -299 21 -95 44 -218 51 -273 13 -93 14 -64 15 403 l1 502 -427 -1 c-424 0 -427 0 -373 -18z"
       id="path10"
       style="fill:none" />
    <path
       d="M5740 7739 c0 -11 11 -41 24 -67 73 -144 164 -403 216 -611 65 -263 85 -446 77 -706 -9 -273 -39 -468 -103 -664 -68 -208 -129 -298 -547 -816 l-235 -290 42 -8 c22 -5 51 -11 64 -13 20 -4 62 -56 62 -77 0 -4 -19 2 -42 14 -60 31 -104 39 -140 27 l-29 -10 48 -28 c170 -97 244 -330 142 -453 -16 -19 -49 -45 -73 -56 l-44 -22 69 -155 c150 -340 230 -444 522 -677 328 -262 415 -379 430 -577 7 -96 47 -140 47 -52 0 68 -71 342 -115 447 -94 223 -157 442 -189 662 -32 214 -55 663 -41 807 6 66 9 76 26 76 18 0 19 -10 19 -247 0 -557 53 -857 222 -1262 75 -181 107 -305 115 -443 4 -80 10 -111 22 -122 26 -23 392 -276 400 -276 4 0 31 33 60 73 107 147 226 440 267 655 19 104 15 266 -10 357 -19 68 -175 437 -277 656 -165 352 -257 646 -294 934 -16 130 -36 503 -60 1130 -30 784 -37 855 -111 1066 -47 136 -155 346 -252 488 -83 124 -160 193 -262 238 -49 21 -50 21 -50 2z"
       id="path12"
       style="fill:#8b0000" />
    <path
       d="M2676 7393 c-58 -17 -133 -87 -169 -159 -38 -76 -85 -215 -109 -327 -18 -85 -22 -134 -22 -287 0 -214 16 -311 84 -501 23 -62 39 -120 37 -128 -2 -9 -20 17 -41 58 -21 41 -60 102 -87 135 -117 144 -168 303 -176 551 l-6 159 -40 -44 c-47 -53 -124 -209 -166 -336 -75 -232 -64 -428 37 -616 20 -37 33 -70 29 -74 -3 -4 -35 1 -71 10 -36 9 -68 16 -71 16 -3 0 8 -27 25 -60 34 -67 36 -80 15 -80 -20 0 -20 -61 1 -205 9 -60 18 -136 20 -169 3 -51 28 -230 36 -266 3 -14 -208 -107 -219 -97 -3 3 5 22 17 41 l21 36 -49 122 c-90 223 -107 291 -117 479 -4 63 -9 121 -11 129 -11 33 -24 -17 -24 -95 0 -103 -6 -111 -55 -91 -20 9 -41 16 -46 16 -4 0 12 -57 38 -127 117 -327 153 -484 173 -764 16 -216 54 -335 146 -459 79 -104 244 -261 419 -397 94 -73 208 -166 255 -208 150 -135 296 -187 458 -164 77 11 462 126 477 143 6 6 33 11 60 12 85 1 149 26 465 181 285 140 306 150 398 212 47 31 95 63 108 71 26 17 57 76 72 140 16 67 29 226 53 627 l20 362 -31 118 c-56 212 -181 636 -195 662 -12 24 -47 59 -119 121 l-28 25 27 -54 c16 -33 22 -52 13 -49 -60 25 -271 110 -303 123 l-40 17 29 -30 c27 -29 28 -52 3 -52 -7 0 -55 34 -107 76 -52 42 -109 87 -127 101 l-32 25 -41 -33 c-22 -18 -40 -35 -40 -39 0 -14 67 -92 96 -111 37 -24 70 -24 119 1 21 11 40 18 41 17 2 -2 1 -13 -2 -24 -4 -16 -21 -27 -58 -39 -28 -9 -53 -18 -54 -20 -2 -1 4 -39 13 -83 l18 -80 49 -12 c32 -9 48 -18 46 -27 -2 -11 -21 -14 -73 -14 l-69 0 -11 48 c-16 67 -37 104 -87 152 -50 47 -138 116 -138 107 0 -3 10 -43 23 -88 19 -70 22 -107 22 -252 0 -160 -2 -174 -28 -250 -16 -44 -46 -110 -68 -147 -21 -36 -39 -69 -39 -71 0 -3 30 2 67 9 36 8 68 13 70 11 2 -2 -30 -23 -69 -47 -70 -42 -76 -44 -156 -44 -91 -1 -93 -2 -158 -92 l-22 -29 9 45 c13 71 13 70 -35 70 -25 0 -47 4 -50 9 -8 12 72 31 131 31 75 1 124 16 157 50 l31 31 -42 35 c-33 27 -47 48 -59 90 -16 58 -13 80 18 132 l20 33 24 -22 c13 -12 24 -19 24 -15 0 20 30 -20 55 -71 15 -32 30 -52 35 -47 21 22 43 174 43 294 1 185 -40 337 -108 400 -33 31 -95 38 -255 28 -168 -11 -184 -28 -196 -220 -13 -196 31 -385 130 -558 29 -52 51 -97 49 -100 -12 -12 -88 91 -129 174 -72 147 -87 220 -88 428 -1 97 -3 174 -7 170 -3 -4 -18 -24 -33 -45 -35 -48 -64 -61 -111 -53 -30 6 -36 11 -32 26 4 17 -2 19 -57 22 l-61 3 30 16 c17 9 48 20 70 24 43 7 61 18 76 46 8 15 0 23 -46 51 -30 18 -53 38 -51 44 2 5 -51 -4 -118 -22 -124 -34 -161 -40 -170 -26 -2 4 19 33 47 64 l52 56 260 33 c183 22 319 33 461 37 l202 4 -98 138 c-161 229 -214 351 -250 579 -11 67 -25 132 -31 142 -13 26 -47 24 -113 -5 l-55 -24 -37 44 c-70 86 -135 112 -218 87z m555 -1206 c57 -38 96 -131 115 -270 27 -203 4 -295 -77 -317 -90 -25 -149 12 -188 115 -59 156 -67 351 -19 444 27 51 114 65 169 28z m-1136 -1107 c40 -80 32 -133 -30 -193 l-36 -35 65 -104 c49 -78 62 -106 54 -116 -9 -10 -30 5 -100 75 -78 77 -88 92 -88 123 0 30 5 38 41 58 61 35 81 74 76 147 -3 33 -8 68 -12 78 -15 37 6 14 30 -33z m730 -597 c6 -18 -20 -45 -77 -81 -16 -9 -28 -21 -28 -27 0 -6 -13 -29 -29 -51 -17 -22 -42 -63 -56 -92 -16 -31 -33 -52 -42 -52 -16 0 -44 16 -143 83 -37 26 -57 32 -115 34 -103 5 -117 10 -113 36 3 21 8 22 99 22 95 0 98 -1 150 -36 51 -35 93 -59 102 -59 6 0 77 106 96 142 17 35 102 98 131 98 10 0 21 -8 25 -17z"
       id="path14"
       style="fill:#f5deb3" />
    <path
       d="M3115 6140 c-26 -27 -28 -35 -26 -102 2 -90 18 -259 30 -311 12 -50 45 -85 88 -93 49 -9 79 15 98 80 15 50 15 66 0 181 -18 135 -40 203 -83 248 -34 36 -70 35 -107 -3z"
       id="path16"
       style="fill:#00008b" />
    <path
       d="M1 3668 l-1 -3668 235 0 235 0 0 43 c0 24 4 47 9 53 5 5 12 83 14 174 3 91 7 179 10 195 11 74 19 113 32 150 8 22 38 137 69 255 66 260 101 361 172 505 87 176 187 305 361 465 70 65 70 65 77 129 9 98 56 218 121 317 45 66 113 141 294 317 439 430 596 592 673 693 91 122 118 187 118 286 0 119 -7 128 -291 368 -137 117 -274 240 -305 273 -98 109 -153 257 -154 412 -1 222 -36 499 -78 612 -14 38 -24 50 -52 60 -19 7 -96 35 -170 62 -74 28 -136 49 -138 47 -9 -10 31 -67 70 -100 47 -41 170 -106 199 -106 11 0 19 -4 19 -10 0 -16 -109 -12 -145 6 -18 8 -60 40 -94 70 -55 50 -70 58 -153 80 -123 33 -221 81 -313 154 -41 33 -75 64 -75 68 -1 4 -17 25 -36 47 l-36 40 20 -51 c25 -66 69 -130 150 -215 35 -38 61 -69 58 -69 -4 0 -24 9 -44 19 -61 31 -127 111 -182 221 -28 56 -74 139 -102 184 -72 113 -99 186 -105 277 l-6 77 -49 22 c-161 73 -253 219 -265 420 -4 77 -10 102 -29 130 -82 123 -106 255 -81 450 14 107 14 126 2 140 -8 8 -18 27 -24 40 -6 17 -10 -1213 -10 -3642z"
       id="path18"
       style="fill:none" />
    <path
       d="M8490 7203 c0 -46 -37 -183 -70 -263 -91 -221 -248 -416 -530 -658 -492 -424 -535 -469 -609 -650 -71 -172 -77 -305 -19 -422 83 -169 286 -278 423 -226 54 21 113 85 152 165 57 116 40 290 -38 383 -21 26 -39 49 -39 53 0 3 23 -6 50 -21 146 -79 218 -251 175 -414 -9 -36 -19 -101 -22 -145 -13 -208 -133 -300 -388 -299 -131 0 -192 16 -314 80 -46 24 -85 43 -86 42 -12 -12 265 -539 602 -1148 88 -159 128 -315 127 -495 -1 -145 -27 -278 -82 -413 -57 -140 -86 -175 -390 -481 -313 -316 -332 -340 -353 -456 -15 -80 1 -177 53 -320 97 -268 104 -312 113 -668 6 -198 4 -261 -5 -272 -7 -9 -16 -32 -21 -53 -12 -57 -38 -122 -60 -151 -11 -14 -35 -47 -54 -72 -49 -67 -167 -152 -235 -168 -30 -8 -73 -22 -95 -32 -22 -10 -51 -19 -65 -19 -15 0 -30 -4 -36 -10 -5 -5 -45 -17 -89 -26 -44 -9 -89 -23 -100 -30 -17 -12 131 -14 998 -14 l1017 0 0 3615 c0 1988 -2 3615 -5 3615 -3 0 -5 -12 -5 -27z m-915 -6311 c119 -61 153 -194 88 -347 l-30 -70 -126 -3 c-70 -1 -127 0 -127 4 0 3 23 34 50 69 80 101 105 174 81 238 -5 14 -30 48 -55 76 -25 29 -46 54 -46 58 0 13 128 -6 165 -25z"
       id="path20"
       style="fill:none" />
    <path
       d="M1456 6393 c-14 -91 3 -245 34 -304 10 -18 12 -18 55 3 25 12 45 25 45 29 0 9 -118 301 -124 306 -2 2 -6 -13 -10 -34z"
       id="path22"
       style="fill:#b8860b" />
    <path
       d="M2946 6319 c-43 -22 -80 -38 -83 -35 -2 2 1 14 7 27 11 19 10 21 -3 16 -9 -3 -32 -9 -51 -13 -20 -3 -36 -9 -36 -13 0 -4 22 -18 49 -30 l49 -23 76 51 c42 28 76 54 76 56 0 7 4 8 -84 -36z"
       id="path24"
       style="fill:#b8860b" />
    <path
       d="M4923 6031 c-103 -35 -172 -98 -191 -176 -11 -42 -37 -624 -28 -632 2 -3 48 -15 101 -28 110 -26 134 -43 142 -103 5 -38 1 -47 -37 -98 -27 -36 -56 -62 -83 -74 l-42 -19 38 0 c21 -1 52 5 71 13 18 7 110 92 205 187 209 210 235 252 235 384 0 103 -27 193 -105 346 -66 129 -120 190 -185 208 -51 14 -59 14 -121 -8z m170 -115 c66 -27 144 -148 172 -268 14 -60 22 -328 10 -316 -3 3 -19 86 -36 184 -43 260 -91 350 -196 370 -50 9 -98 -13 -147 -67 -82 -92 -123 -169 -101 -191 3 -3 24 -1 48 5 95 21 183 -36 244 -161 51 -102 52 -157 6 -204 -37 -37 -50 -34 -28 8 35 68 6 169 -74 256 -44 48 -59 58 -86 58 -18 0 -43 -8 -54 -18 l-22 -17 30 -65 c27 -58 30 -70 20 -103 -9 -35 -85 -124 -96 -113 -2 2 9 31 26 65 43 83 41 108 -14 172 -46 54 -69 107 -58 137 22 60 159 234 207 263 36 22 103 25 149 5z"
       id="path26"
       style="fill:#f5deb3" />
    <path
       d="M7237 5918 c-150 -357 -170 -427 -170 -623 -1 -133 1 -145 32 -237 39 -114 76 -157 180 -211 176 -92 401 -95 533 -7 57 38 71 67 97 205 33 177 39 247 24 299 -18 62 -32 66 -20 6 26 -132 -78 -342 -198 -400 -114 -55 -302 5 -426 138 -77 81 -114 152 -136 258 -20 100 -10 177 46 324 34 90 105 369 97 378 -2 1 -29 -57 -59 -130z"
       id="path28"
       style="fill:#a52a2a" />
    <path
       d="M1700 5794 c-7 -17 -7 -73 0 -162 16 -219 34 -294 101 -428 45 -93 62 -111 104 -116 26 -3 30 1 39 31 8 28 7 36 -11 50 -31 24 -40 49 -47 134 l-7 77 31 0 c32 0 32 0 25 43 -8 49 -48 213 -76 309 -17 58 -23 67 -51 77 -17 6 -46 11 -65 11 -27 0 -35 -5 -43 -26z m149 -93 c6 -14 24 -76 40 -137 l29 -111 -35 -61 c-19 -34 -38 -62 -42 -62 -4 0 -21 24 -38 53 -32 53 -46 106 -63 237 -9 71 -8 77 16 113 l24 37 30 -21 c16 -12 33 -34 39 -48z"
       id="path30"
       style="fill:#00008b" />
    <path
       d="M4690 4907 c-1 -100 -31 -683 -40 -760 -32 -270 -96 -522 -200 -790 -13 -31 -21 -60 -18 -63 6 -5 358 33 390 42 20 6 26 20 44 114 19 100 18 173 -8 440 -15 164 -22 318 -24 565 -2 187 -3 348 -4 358 0 22 -75 98 -112 115 -27 11 -28 11 -28 -21z"
       id="path32"
       style="fill:#8b0000" />
    <path
       d="M4992 4395 c-53 -16 -80 -39 -98 -82 -28 -66 -18 -171 66 -733 37 -244 30 -234 191 -243 145 -7 273 -32 324 -62 64 -37 81 -81 95 -248 17 -196 40 -361 53 -374 7 -6 63 -19 125 -27 134 -20 261 -55 342 -96 l59 -30 16 45 c21 54 16 79 -35 165 -61 104 -112 153 -289 281 -225 163 -260 194 -340 307 -230 322 -339 588 -382 926 -11 89 -22 167 -24 174 -6 15 -48 14 -103 -3z"
       id="path34"
       style="fill:#8b0000" />
    <path
       d="M4470 4024 c-25 -18 -76 -53 -115 -76 -38 -23 -88 -58 -110 -79 -45 -42 -76 -59 -155 -84 -30 -10 -102 -40 -160 -67 -158 -75 -292 -129 -310 -123 -8 2 -44 -4 -79 -14 -58 -16 -67 -22 -85 -57 -16 -29 -21 -56 -20 -104 2 -57 38 -297 47 -306 1 -2 99 13 217 33 166 27 219 40 233 54 10 11 28 19 40 19 12 0 33 7 45 16 12 8 22 10 22 5 0 -24 100 -3 160 35 20 12 59 25 88 29 29 4 54 11 58 16 3 5 14 9 25 9 15 0 27 15 46 58 30 69 126 401 141 492 14 83 21 150 16 150 -2 0 -52 -81 -110 -180 -92 -155 -124 -200 -124 -174 0 3 33 70 74 148 82 154 119 236 108 235 -4 0 -27 -16 -52 -35z m-173 -296 c-3 -8 -6 -5 -6 6 -1 11 2 17 5 13 3 -3 4 -12 1 -19z"
       id="path36"
       style="fill:#f5deb3" />
    <path
       d="M2486 3576 c-34 -117 -128 -352 -198 -494 -106 -213 -216 -378 -381 -566 -44 -50 -109 -136 -144 -191 -36 -55 -78 -119 -94 -142 -16 -24 -25 -43 -20 -43 4 0 34 9 66 20 32 11 86 24 119 30 117 18 372 49 496 60 230 20 326 44 493 123 85 40 109 55 114 75 12 50 -6 181 -34 245 -36 84 -36 132 2 181 66 87 112 109 375 181 76 20 101 32 124 57 28 31 29 33 23 112 -7 97 -36 194 -76 258 l-30 47 -73 -25 c-303 -103 -509 -79 -685 81 l-59 53 -18 -62z"
       id="path38"
       style="fill:#8b0000" />
    <path
       d="M4840 3294 c-132 -13 -356 -46 -366 -55 -7 -6 -25 -9 -40 -7 -31 3 -35 -1 -152 -170 -47 -67 -134 -161 -331 -354 -314 -309 -501 -511 -477 -516 27 -6 295 64 564 147 342 105 406 124 542 160 276 73 562 125 755 137 116 7 161 18 175 44 12 23 12 296 1 399 -11 87 -28 116 -97 153 -88 48 -153 59 -349 63 -99 1 -200 1 -225 -1z"
       id="path40"
       style="fill:#87ceeb" />
    <path
       d="M4285 3233 c-11 -2 -58 -17 -105 -33 -47 -16 -110 -32 -140 -35 -53 -6 -56 -8 -94 -61 -42 -62 -54 -65 -31 -11 19 46 19 47 -6 47 -36 0 -705 -152 -819 -186 -65 -19 -123 -72 -138 -127 -8 -28 -7 -53 5 -104 10 -45 18 -149 22 -305 4 -158 10 -241 18 -249 8 -8 51 -8 175 1 l163 11 27 32 c33 38 34 29 8 -48 -11 -32 -20 -71 -20 -87 0 -23 11 -8 50 69 74 144 159 242 433 501 136 129 274 263 307 300 60 65 200 264 200 283 0 9 -20 10 -55 2z"
       id="path42"
       style="fill:#87ceeb" />
    <path
       d="M1859 2766 c-213 -204 -408 -396 -434 -426 -63 -75 -141 -235 -160 -332 -43 -218 16 -443 156 -593 80 -85 145 -117 254 -123 84 -5 464 26 479 39 17 16 -70 22 -193 13 -183 -12 -229 -10 -289 16 -69 30 -133 101 -155 172 -54 170 -37 371 43 528 57 112 266 418 493 720 68 92 208 343 196 354 -2 2 -178 -163 -390 -368z"
       id="path44"
       style="fill:#8b0000" />
    <path
       d="M5255 2584 c-308 -35 -453 -67 -997 -218 -167 -46 -406 -112 -533 -146 -126 -33 -242 -66 -257 -71 -21 -9 -31 -24 -47 -77 -36 -119 -51 -196 -51 -265 0 -80 16 -123 58 -159 38 -32 165 -82 245 -97 206 -38 309 -193 311 -468 1 -62 3 -113 6 -112 3 0 67 83 144 185 227 303 632 822 723 926 258 297 467 431 773 496 34 7 -1 10 -150 9 -107 0 -208 -2 -225 -3z"
       id="path46"
       style="fill:#191970" />
    <path
       d="M5604 2509 c-192 -32 -396 -138 -564 -294 -166 -153 -256 -268 -922 -1180 -262 -359 -298 -414 -298 -452 0 -12 -4 -24 -9 -27 -18 -11 -51 -97 -51 -131 0 -20 -7 -46 -15 -58 -8 -12 -19 -67 -25 -122 -6 -55 -18 -115 -26 -133 -8 -18 -14 -51 -14 -72 l0 -40 1278 0 c1233 0 1280 1 1332 19 30 11 73 23 95 27 22 4 50 15 63 24 12 10 57 25 100 34 42 9 89 23 104 31 14 8 38 15 53 15 14 0 38 6 53 14 15 8 52 21 83 29 82 21 178 95 235 180 75 113 107 271 121 587 9 216 -27 366 -147 607 -114 231 -233 397 -392 548 -214 203 -482 348 -726 390 -91 16 -245 18 -328 4z"
       id="path48"
       style="fill:#4682b4" />
    <path
       d="M2785 2287 c-113 -46 -223 -124 -345 -247 -186 -186 -313 -406 -344 -600 -6 -35 -6 -36 40 -48 103 -28 154 -122 154 -282 0 -72 -4 -95 -23 -131 -37 -69 -75 -85 -220 -92 -151 -7 -212 -26 -242 -77 -18 -31 -20 -49 -18 -163 l3 -127 -29 0 c-50 0 -80 18 -110 65 l-28 45 -36 -51 c-20 -28 -60 -71 -89 -96 -29 -25 -59 -54 -65 -63 -7 -10 -43 -42 -80 -72 -38 -29 -93 -78 -123 -109 -52 -53 -129 -168 -144 -216 l-7 -23 1235 0 1236 0 0 30 c0 16 6 47 14 67 8 21 17 56 20 78 10 71 24 129 40 172 9 23 19 60 22 83 l7 40 -421 0 -421 0 54 51 55 52 157 18 c87 10 183 19 213 19 271 2 493 183 508 413 6 100 -14 166 -78 250 -28 37 -55 67 -61 67 -5 0 -28 17 -52 38 -23 21 -58 48 -78 60 -62 38 -147 136 -185 215 -61 129 -64 186 -23 400 11 56 7 93 -8 84 -14 -9 -452 -29 -479 -23 -39 10 -12 36 37 36 36 0 39 2 40 28 0 15 4 53 8 85 l7 57 -30 0 c-17 0 -67 -15 -111 -33z m440 -315 c-6 -5 -73 -35 -150 -67 -122 -51 -150 -59 -221 -63 -72 -4 -89 -1 -138 21 -71 33 -74 52 -3 25 73 -28 139 -20 322 42 138 46 213 62 190 42z m34 -76 c9 -11 -15 -33 -121 -113 -231 -173 -282 -202 -355 -203 -57 0 -94 33 -123 110 -22 59 -20 95 4 56 52 -87 103 -108 186 -77 71 27 236 124 320 189 36 28 68 51 71 51 4 1 12 -5 18 -13z"
       id="path50"
       style="fill:#191970" />
    <path
       d="M2295 2204 c-389 -49 -560 -76 -597 -95 -114 -58 -176 -206 -166 -399 9 -164 60 -269 152 -311 51 -23 103 -24 239 -2 l107 17 11 40 c24 98 43 148 99 261 69 140 157 260 293 401 53 56 97 104 97 108 0 9 -23 7 -235 -20z"
       id="path52"
       style="fill:#4682b4" />
    <path
       d="M1134 1749 c-143 -91 -306 -322 -384 -544 -17 -49 -46 -166 -65 -260 -19 -93 -43 -197 -55 -230 -12 -33 -28 -98 -37 -145 -8 -47 -19 -105 -23 -130 -5 -25 -9 -113 -9 -196 -1 -116 -4 -155 -16 -170 -8 -10 -15 -31 -15 -46 l0 -28 195 0 c222 0 211 -4 288 99 22 29 60 77 86 106 25 28 58 65 72 81 14 16 56 56 93 89 36 33 69 69 72 81 3 11 19 28 35 38 16 9 36 34 44 53 9 21 65 85 134 152 131 128 308 356 366 472 19 38 35 71 35 74 0 4 -62 3 -137 -1 -112 -5 -150 -3 -202 10 -91 23 -154 61 -219 131 -68 72 -118 164 -162 298 -17 53 -35 97 -39 97 -4 0 -29 -14 -57 -31z"
       id="path54"
       style="fill:#4682b4" />
    <path
       d="M3506 1522 c-7 -12 59 -74 119 -111 60 -38 189 -178 210 -228 51 -122 12 -280 -105 -428 -27 -33 -60 -71 -74 -84 -36 -34 -33 -40 17 -29 66 14 124 46 161 89 43 51 93 177 108 275 35 222 -77 443 -253 503 -63 21 -173 29 -183 13z"
       id="path56"
       style="fill:#8b0000" />
    <path
       d="M2014 1273 c-27 -13 -42 -39 -104 -177 -40 -88 -74 -166 -76 -171 -5 -12 125 -4 249 15 118 18 147 53 149 178 0 53 -4 88 -15 109 -29 56 -136 80 -203 46z"
       id="path58"
       style="fill:#191970" />
  </g>
</svg>
