<?xml version="1.0" standalone="no"?>
<!DOCTYPE svg PUBLIC "-//W3C//DTD SVG 20010904//EN"
 "http://www.w3.org/TR/2001/REC-SVG-20010904/DTD/svg10.dtd">
<svg version="1.0" xmlns="http://www.w3.org/2000/svg"
 width="850.000000pt" height="850.000000pt" viewBox="0 0 850.000000 850.000000"
 preserveAspectRatio="xMidYMid meet">
<metadata>
Created by potrace 1.14, written by Peter Selinger 2001-2017
</metadata>
<g transform="translate(0.000000,850.000000) scale(0.100000,-0.100000)"
fill="#000000" stroke="none">
<path d="M4605 7784 c-5 -2 -65 -7 -133 -12 -67 -5 -127 -13 -132 -18 -5 -5
-14 -52 -20 -104 -7 -52 -14 -104 -16 -115 -2 -12 -29 -34 -65 -55 -161 -92
-259 -309 -259 -575 0 -70 0 -71 -118 -149 -175 -117 -238 -231 -211 -379 9
-54 9 -62 -9 -79 -16 -16 -34 -20 -93 -20 -41 0 -88 -6 -106 -13 -34 -14 -63
-59 -63 -98 0 -19 -13 -32 -57 -60 -32 -19 -69 -47 -82 -61 -21 -22 -33 -26
-82 -26 -108 0 -259 -39 -288 -74 -30 -36 75 -178 184 -251 29 -19 55 -42 59
-51 15 -39 5 -150 -18 -207 l-24 -59 24 6 c28 7 29 4 8 -29 -26 -41 -8 -51 52
-28 7 2 9 -7 6 -27 -5 -35 -9 -34 65 -15 31 8 70 15 85 15 l28 0 -36 -47 c-54
-74 -67 -85 -138 -123 l-66 -34 -113 22 c-126 24 -333 30 -446 12 -166 -27
-349 -113 -473 -221 -65 -56 -115 -126 -101 -140 6 -6 -1 -30 -19 -69 -35 -72
-61 -191 -55 -243 3 -22 15 -49 26 -61 12 -12 21 -27 21 -32 0 -16 72 -34 92
-23 10 6 38 52 62 103 56 121 110 199 183 267 55 50 147 107 201 124 20 6 22
4 13 -12 -5 -10 -12 -25 -14 -34 -3 -9 -21 -19 -44 -23 -68 -11 -69 -13 -54
-118 35 -251 71 -322 202 -399 112 -65 197 -170 230 -284 39 -137 71 -182 203
-293 95 -80 114 -91 181 -106 l50 -11 2 -55 c4 -74 32 -405 39 -457 6 -40 5
-42 -36 -68 -64 -40 -90 -73 -90 -111 0 -47 27 -235 47 -322 18 -83 10 -116
-32 -132 -15 -6 -25 -17 -25 -30 0 -31 26 -87 45 -97 16 -9 16 -18 1 -133 -28
-212 -28 -275 -7 -590 25 -359 26 -465 6 -500 -18 -31 -19 -73 -3 -116 9 -26
7 -47 -11 -120 -13 -49 -26 -143 -31 -210 -6 -93 -15 -141 -38 -210 -43 -125
-54 -181 -47 -238 10 -68 43 -101 135 -132 138 -48 277 -43 383 14 79 42 92
65 105 181 7 56 12 127 12 159 0 31 5 73 10 92 6 19 13 71 16 115 5 69 2 91
-21 164 -22 68 -25 89 -16 108 16 35 14 57 -10 87 -21 26 -21 34 -20 439 2
398 15 637 41 742 5 22 10 66 10 98 0 55 2 61 40 98 35 35 40 45 35 72 -5 25
6 58 44 145 62 140 101 260 101 314 0 38 -5 46 -66 103 l-66 61 21 163 c12 89
21 164 21 167 0 8 233 -8 251 -17 11 -5 28 -61 53 -175 l38 -166 -47 -48 c-54
-55 -58 -77 -31 -192 22 -94 48 -159 106 -258 27 -48 50 -100 50 -114 0 -15 9
-40 21 -55 16 -22 24 -56 34 -147 8 -79 34 -204 78 -374 73 -284 157 -654 157
-689 0 -13 -9 -34 -20 -48 -26 -34 -25 -45 8 -101 25 -44 27 -57 33 -197 5
-149 6 -151 54 -280 26 -72 55 -138 64 -147 14 -16 28 -17 106 -10 l90 7 -3
59 -3 59 36 -6 c23 -4 62 -27 112 -66 41 -34 83 -61 92 -61 231 5 497 29 549
51 56 22 67 165 18 214 -14 14 -70 37 -142 60 -65 21 -139 48 -164 60 -25 13
-97 76 -163 142 -113 114 -117 120 -107 147 14 39 14 39 -30 92 -43 53 -89
166 -120 299 -10 44 -42 242 -70 440 -47 327 -64 411 -104 506 -5 12 4 28 28
53 41 40 44 59 16 101 -26 39 -26 42 11 231 l32 162 -19 38 c-16 32 -33 46
-99 80 l-80 40 -9 108 c-9 106 -9 107 16 134 42 46 58 75 58 108 0 38 5 42 92
78 43 18 91 49 135 88 37 33 98 83 135 112 123 94 257 211 263 229 5 12 -1 27
-17 44 l-23 25 23 18 c12 10 22 27 22 38 0 24 -175 166 -237 193 l-42 18 50
75 c71 108 86 153 48 143 -16 -4 -19 -2 -13 11 4 9 7 28 8 41 1 21 -5 27 -37
34 -37 9 -37 10 -31 46 4 20 44 113 90 207 48 97 84 183 84 200 0 23 13 42 56
84 54 53 55 57 50 97 -5 39 -3 45 44 96 28 30 50 63 50 73 0 11 -11 32 -25 48
-14 16 -25 30 -25 32 0 1 9 42 21 91 18 73 20 104 14 187 -4 55 -9 105 -12
113 -3 8 2 13 15 13 16 0 20 -8 24 -54 8 -92 40 -129 165 -188 l105 -51 -4
-42 c-7 -59 -47 -140 -101 -205 -52 -62 -49 -80 11 -62 92 28 192 114 239 206
l20 39 6 -49 c12 -89 -13 -151 -73 -189 -45 -28 -49 -40 -20 -55 28 -15 129 4
192 36 61 31 106 76 142 144 16 30 30 56 31 58 1 1 27 -7 56 -19 72 -28 153
-23 182 12 l19 24 -43 12 c-58 17 -99 64 -99 115 0 32 6 42 52 80 175 144 223
224 222 374 0 111 -35 204 -130 346 -41 61 -74 112 -74 115 0 3 16 38 35 79
79 166 92 350 34 485 -22 51 -22 51 -5 143 25 127 32 295 14 319 -32 43 -313
80 -440 59 -49 -8 -62 -6 -88 9 -49 30 -112 42 -163 31 -41 -8 -48 -7 -88 20
-42 29 -48 30 -119 24 -65 -5 -78 -10 -106 -37 -27 -27 -37 -30 -80 -27 -30 2
-49 8 -50 16 -1 6 -2 16 -3 21 0 4 -74 14 -163 20 -141 11 -251 28 -195 30 33
2 17 19 -24 26 -22 4 -43 13 -46 21 -3 8 -13 14 -22 14 -9 0 -57 13 -106 29
-81 25 -153 36 -180 25z m150 -59 c68 -16 155 -52 155 -64 0 -14 77 -41 117
-41 23 0 33 -4 27 -9 -8 -9 -138 -66 -175 -78 -9 -2 -63 18 -120 46 -108 52
-247 89 -294 77 -20 -5 -25 -13 -25 -37 l0 -31 19 23 19 24 83 -17 c68 -14
269 -97 269 -110 0 -2 -30 -35 -67 -73 -38 -39 -115 -139 -173 -222 -58 -84
-109 -151 -115 -150 -22 7 -75 104 -102 186 -25 78 -28 99 -28 226 0 189 9
253 38 258 61 10 317 5 372 -8z m460 -127 c11 -4 47 -23 80 -41 53 -28 60 -36
63 -65 4 -39 -21 -82 -47 -82 -10 0 -36 7 -57 16 -24 10 -54 14 -81 11 -47 -5
-63 6 -63 41 0 18 -4 23 -16 18 -14 -6 -15 1 -9 51 4 32 9 61 11 65 6 9 90 -1
119 -14z m473 -14 c23 -27 28 -59 12 -84 -5 -8 -10 -11 -10 -6 0 5 -10 0 -22
-11 -29 -27 -38 -28 -117 -18 -100 13 -128 55 -71 110 53 50 167 55 208 9z
m-638 -74 c0 -47 3 -60 15 -60 9 0 18 -7 21 -15 3 -8 22 -24 41 -36 31 -19 35
-20 46 -5 11 15 17 15 70 1 32 -8 65 -15 73 -15 28 0 74 56 74 89 0 40 19 40
58 1 21 -21 40 -30 63 -30 17 0 48 -5 69 -11 30 -9 43 -8 67 4 19 10 33 13 40
6 6 -6 17 5 32 31 l22 40 29 -20 c36 -25 143 -146 202 -226 239 -328 261 -765
52 -1027 -26 -32 -48 -57 -50 -55 -1 2 10 31 26 64 16 33 34 94 41 135 6 41
19 108 29 149 28 112 33 169 21 235 -18 95 -31 89 -24 -11 4 -64 1 -109 -11
-159 -17 -72 -90 -230 -127 -275 l-21 -25 7 30 c4 17 11 68 15 115 5 47 16
117 26 155 23 97 22 238 -4 345 -29 121 -80 250 -99 250 -10 0 -13 -5 -8 -17
66 -162 95 -292 95 -433 0 -184 -23 -151 -60 85 -12 71 -25 134 -30 139 -7 7
-10 -32 -10 -108 l0 -117 -42 25 c-39 23 -45 31 -59 89 -10 35 -22 116 -28
181 -16 179 -30 179 -31 0 0 -151 -6 -214 -20 -214 -9 0 -47 179 -59 283 -5
43 -11 81 -14 83 -10 11 -19 -79 -12 -129 19 -148 87 -393 136 -489 31 -60 5
-36 -52 49 -106 157 -158 317 -184 573 -10 88 -24 111 -25 39 0 -41 -5 -63
-19 -80 l-20 -24 -16 38 c-9 21 -21 37 -28 34 -21 -6 -75 -148 -95 -247 -14
-70 -21 -90 -27 -76 -12 28 10 162 40 249 26 77 30 97 17 97 -11 0 -53 -110
-87 -229 -28 -100 -32 -106 -57 -109 -26 -3 -28 -1 -28 33 0 60 30 185 65 274
30 76 31 82 11 60 -22 -23 -71 -145 -119 -294 -24 -75 -19 -72 -131 -99 l-29
-7 6 63 c4 35 18 101 32 147 16 50 23 87 17 93 -14 14 -39 -54 -73 -197 -23
-99 -35 -134 -52 -147 -12 -10 -25 -18 -29 -18 -5 0 -8 49 -8 108 0 164 42
302 122 404 15 20 24 39 19 42 -15 10 -82 -73 -112 -139 -49 -108 -60 -173
-59 -329 1 -77 -3 -172 -10 -210 -7 -37 -10 -104 -8 -147 3 -44 3 -79 2 -79
-9 0 -44 82 -63 146 -24 78 -30 159 -18 252 5 38 4 62 -2 62 -11 0 -31 -54
-31 -85 0 -34 -123 -136 -230 -190 -31 -16 -28 -11 26 44 73 72 118 137 178
258 48 98 61 133 49 133 -4 0 -30 -42 -57 -93 -69 -131 -126 -213 -196 -282
l-60 -59 0 45 c0 123 69 274 234 508 142 203 189 258 261 306 49 32 156 83
178 85 4 0 7 -27 7 -60z m844 50 c38 -14 32 -24 -28 -44 -54 -19 -54 -19 -90
3 -20 13 -36 26 -36 31 0 18 114 26 154 10z m-474 -20 c0 -5 -7 -10 -16 -10
-8 0 -12 5 -9 10 3 6 10 10 16 10 5 0 9 -4 9 -10z m915 -26 c44 -9 91 -23 104
-31 23 -15 23 -18 16 -107 -13 -176 -64 -362 -131 -476 -41 -70 -111 -160
-124 -160 -6 0 -10 19 -10 43 0 120 -74 318 -173 465 -16 24 -27 45 -25 47 17
16 248 78 307 82 55 5 69 8 55 16 -35 20 -119 9 -249 -31 -148 -47 -129 -51
-217 51 -28 32 -48 60 -46 63 11 10 146 44 213 53 82 11 168 6 280 -15z
m-1995 -264 c15 -56 62 -151 94 -193 l24 -31 -35 -70 c-53 -106 -73 -172 -80
-264 l-6 -83 -64 -36 c-35 -19 -62 -37 -59 -40 2 -3 29 0 60 7 31 6 60 9 64 6
5 -3 24 -44 41 -91 l32 -85 -26 -67 c-18 -43 -29 -94 -32 -144 l-6 -77 -32 5
c-26 4 -39 -1 -68 -27 -46 -40 -95 -139 -104 -208 -3 -28 -11 -52 -17 -52 -23
0 -55 31 -85 85 -35 62 -39 101 -14 148 12 23 18 66 21 148 4 107 3 118 -16
137 -17 17 -26 19 -66 11 -25 -4 -58 -15 -73 -23 -42 -21 -174 -58 -181 -51
-4 4 -7 44 -7 89 0 77 3 88 42 167 50 101 117 182 208 252 148 114 171 135
192 173 13 21 23 50 23 63 0 22 -4 19 -29 -20 -29 -45 -117 -136 -125 -128 -2
2 0 58 4 124 14 218 91 377 225 467 l60 40 11 -94 c6 -51 17 -113 24 -138z
m1086 -168 c27 3 27 2 65 -142 53 -204 50 -279 -16 -419 -20 -41 -33 -76 -31
-79 3 -2 29 16 58 40 65 56 89 68 125 67 24 -1 22 -2 -11 -10 -41 -10 -106
-53 -106 -70 0 -6 6 -7 13 -3 8 5 7 2 -2 -9 -25 -31 -4 -30 63 3 78 39 123 37
168 -7 46 -44 62 -137 33 -198 l-14 -30 7 30 c11 47 5 120 -13 155 -27 53
-114 76 -173 46 -63 -33 -100 -172 -70 -261 12 -36 17 -40 63 -51 106 -23 115
-24 115 -11 1 21 67 90 73 75 3 -9 9 -8 22 7 l17 20 -8 -20 c-4 -11 -19 -62
-35 -114 -32 -108 -60 -143 -145 -185 -96 -47 -197 -69 -320 -70 l-112 -1 -93
48 c-52 26 -121 67 -154 90 -58 42 -60 44 -61 90 -2 59 -26 97 -59 97 -20 0
-27 -6 -31 -30 -8 -35 -21 -37 -73 -10 -70 35 -119 104 -120 170 -1 33 36 113
48 105 6 -3 2 -19 -9 -38 -23 -38 -25 -75 -6 -120 20 -47 49 -69 103 -74 l48
-6 -27 30 c-28 29 -35 66 -19 92 8 12 12 13 25 1 30 -24 31 0 3 53 -30 59 -55
126 -34 93 6 -10 38 -52 70 -92 59 -77 84 -94 67 -48 -28 72 5 176 70 223 l35
25 -31 -34 c-47 -52 -56 -76 -56 -148 0 -52 6 -76 30 -121 l29 -56 94 -2 94
-3 24 48 c32 62 41 185 17 233 -18 36 -16 48 4 24 14 -17 35 -21 24 -4 -3 6
-1 15 5 19 9 5 9 13 0 34 -11 23 -10 29 1 36 12 7 11 12 -3 28 -18 20 -21 55
-10 142 l7 55 12 -69 c18 -96 62 -182 127 -251 l57 -60 -40 81 c-58 118 -73
195 -67 334 3 73 13 142 27 189 27 94 26 94 55 75 13 -9 36 -14 51 -12z m1035
-121 c16 -75 6 -219 -21 -306 -21 -68 -58 -145 -69 -145 -10 0 -41 84 -49 131
-9 55 -28 49 -25 -8 2 -54 40 -139 102 -222 60 -82 87 -134 106 -208 44 -168
-16 -385 -145 -527 -55 -61 -60 -70 -60 -112 0 -52 19 -94 55 -122 14 -11 25
-23 25 -26 0 -11 -51 -6 -87 9 -59 25 -71 41 -78 106 -10 83 -25 84 -25 1 0
-93 -22 -152 -81 -216 -51 -56 -117 -94 -178 -103 l-36 -6 53 56 c81 87 112
175 79 222 -12 16 -15 12 -20 -38 -8 -77 -26 -109 -27 -46 0 53 -37 182 -49
175 -5 -3 -11 -23 -14 -43 -7 -43 -38 -104 -74 -147 -26 -31 -103 -96 -115
-96 -3 0 10 32 30 71 32 61 37 83 41 152 3 82 -11 157 -31 157 -7 0 -8 -16 -3
-46 6 -45 6 -46 -17 -39 -85 26 -135 95 -147 206 l-7 71 30 18 c87 51 106 66
130 105 15 23 40 52 56 63 36 27 76 95 85 146 l6 39 21 -21 21 -20 -32 -40
c-28 -36 -39 -62 -26 -62 3 0 23 11 45 25 22 14 41 25 44 25 2 0 9 -22 16 -50
13 -55 8 -105 -21 -189 -11 -30 -17 -56 -15 -58 9 -10 47 60 61 113 17 66 19
121 6 178 -9 36 -7 42 31 89 82 104 128 231 143 392 7 79 7 79 65 143 57 62
125 178 150 256 12 36 14 38 26 21 7 -10 18 -43 25 -74z m-1412 -143 c0 -18
-6 -73 -12 -123 -11 -79 -14 -90 -32 -90 -16 0 -25 14 -42 65 -12 36 -23 83
-25 105 -3 40 -3 40 47 57 66 23 65 23 64 -14z m123 -40 c-1 -40 -5 -84 -9
-98 l-5 -25 -9 24 c-5 13 -13 57 -17 97 l-8 74 26 0 c26 0 26 0 22 -72z m547
30 c1 -5 -3 -8 -9 -8 -5 0 -10 12 -9 28 0 24 1 25 9 7 5 -11 9 -23 9 -27z
m-457 -68 c4 -79 3 -82 -8 -45 -15 47 -18 154 -5 140 5 -6 11 -48 13 -95z
m-333 -44 c11 -41 24 -81 27 -89 5 -15 -62 -65 -73 -54 -8 9 8 217 16 217 5 0
18 -33 30 -74z m802 14 c21 -178 18 -184 -26 -52 -28 86 -27 116 2 110 14 -2
20 -17 24 -58z m69 18 c17 -12 30 -31 30 -42 0 -22 -48 -132 -54 -125 -5 6
-15 189 -10 189 3 0 18 -10 34 -22z m-1132 -119 c7 -63 18 -138 26 -166 27
-108 -46 11 -94 151 l-28 85 31 25 c18 14 37 24 42 22 6 -1 16 -54 23 -117z
m917 67 c16 -34 16 -35 -17 -80 -18 -25 -36 -45 -39 -46 -3 0 3 36 14 80 11
44 21 80 23 80 2 0 10 -15 19 -34z m282 -93 c-6 -81 -23 -153 -35 -153 -4 0
-17 16 -30 35 l-22 35 40 80 c22 44 43 80 47 80 3 0 3 -35 0 -77z m-1287 -26
c12 -38 20 -69 19 -70 -22 -13 -70 -23 -75 -16 -8 13 17 172 26 162 4 -4 18
-39 30 -76z m-78 26 c-9 -62 -9 -153 1 -228 l8 -59 -24 22 c-14 13 -36 44 -50
70 -31 58 -65 174 -52 179 6 2 33 17 60 33 28 16 53 30 57 30 4 0 4 -21 0 -47z
m1136 9 c2 -7 -5 -12 -17 -12 -14 0 -19 5 -14 15 6 17 25 15 31 -3z m272 -47
c-14 -36 -22 -28 -14 14 4 19 10 29 16 23 5 -5 4 -20 -2 -37z m-823 7 c7 -4
-14 -8 -46 -7 -33 0 -54 3 -48 7 16 10 79 10 94 0z m21 -58 c23 -15 58 -81 48
-91 -3 -3 -17 8 -30 24 -14 17 -49 40 -77 53 -39 16 -49 24 -38 31 18 12 66 3
97 -17z m785 -88 c-5 -33 -7 -36 -21 -22 -13 13 -13 18 2 41 10 15 19 25 21
23 3 -2 2 -21 -2 -42z m-807 9 c31 -48 -3 -145 -51 -145 -34 0 -65 44 -65 91
0 35 3 39 25 39 14 0 30 9 37 20 17 27 34 25 54 -5z m-501 -46 c-26 -49 -16
-113 29 -183 32 -51 36 -63 27 -83 -15 -34 -34 -38 -112 -23 -64 12 -70 12
-90 -5 -56 -52 -74 63 -26 168 14 32 31 57 36 57 6 0 31 -14 56 -32 24 -17 47
-30 49 -27 3 3 -1 32 -9 64 -8 33 -14 63 -15 67 0 8 62 37 68 33 2 -2 -4 -18
-13 -36z m1053 9 c-2 -15 -10 -23 -23 -23 -13 0 -21 8 -23 23 -3 18 1 22 23
22 22 0 26 -4 23 -22z m361 -45 c-10 -38 -19 -71 -19 -75 0 -15 -19 -8 -29 10
-7 13 -1 31 26 75 19 31 36 57 38 57 2 0 -5 -30 -16 -67z m-305 21 c13 -34 6
-90 -14 -112 -40 -43 -80 -19 -80 47 0 35 15 42 23 10 7 -25 35 -23 51 4 8 13
8 20 -3 26 -14 9 -9 41 8 41 5 0 12 -7 15 -16z m171 -4 c3 -5 2 -10 -4 -10 -5
0 -13 5 -16 10 -3 6 -2 10 4 10 5 0 13 -4 16 -10z m-1848 -175 c-3 -68 -12
-119 -27 -160 l-22 -60 43 -78 c31 -57 53 -84 81 -101 l38 -22 -40 -23 c-56
-31 -54 -54 5 -49 25 2 45 2 45 1 0 -2 -23 -15 -52 -29 -46 -23 -50 -28 -35
-39 15 -11 11 -16 -36 -47 -28 -19 -103 -71 -165 -116 -155 -112 -185 -120
-448 -124 l-201 -3 14 32 c18 45 18 46 -27 23 -43 -22 -47 -19 -25 20 19 34
19 40 -6 40 -17 0 -20 5 -16 23 4 12 9 41 13 63 5 35 9 41 26 36 11 -3 28 -23
38 -46 20 -48 76 -106 101 -106 27 0 87 39 94 61 10 31 -14 115 -45 158 -45
62 -111 72 -142 21 -7 -11 -23 -20 -35 -20 -25 0 -29 -10 -11 -28 9 -9 8 -12
-4 -12 -23 0 -28 21 -28 109 0 73 19 171 40 211 10 19 11 19 43 0 17 -10 55
-22 84 -26 l52 -6 -35 71 c-19 40 -34 79 -32 88 6 33 24 20 50 -36 19 -40 41
-67 72 -89 24 -18 47 -32 49 -32 3 0 3 34 0 76 -6 82 -1 94 44 94 20 0 22 -5
21 -45 -3 -51 4 -60 49 -68 32 -6 34 -5 63 53 30 60 30 60 58 46 15 -8 37 -28
50 -45 29 -40 69 -43 78 -6 4 15 1 32 -6 40 -23 28 -4 26 41 -5 24 -16 49 -30
56 -30 22 0 56 135 50 197 -3 30 -8 57 -10 59 -2 2 -18 -1 -36 -7 -24 -8 -35
-8 -46 1 -23 19 -18 27 28 44 102 37 111 28 104 -109z m1596 25 c25 -14 30
-13 57 2 34 19 40 10 11 -16 -15 -13 -28 -16 -57 -10 -22 3 -44 11 -51 16 -16
13 -26 63 -17 90 6 20 9 17 18 -22 8 -32 19 -49 39 -60z m245 1 c1 -27 -9 -54
-29 -86 -17 -26 -32 -45 -35 -42 -6 6 49 167 57 167 4 0 7 -18 7 -39z m-1013
-81 c6 -19 -11 -270 -20 -297 -7 -21 3 -15 66 37 33 28 64 50 69 50 5 0 14 -9
20 -19 9 -17 4 -24 -35 -51 -25 -17 -45 -35 -45 -40 0 -15 7 -13 69 22 57 32
91 33 91 4 0 -8 -25 -28 -56 -46 -38 -21 -53 -35 -46 -42 6 -6 27 -1 62 17 29
14 58 24 66 21 21 -8 17 -70 -6 -97 l-21 -24 7 35 c6 32 5 33 -10 21 -34 -28
-38 -49 -25 -120 6 -38 9 -85 5 -105 -5 -27 -55 -100 -170 -254 -90 -119 -177
-230 -194 -245 l-30 -29 -40 54 c-40 52 -62 96 -62 122 0 7 70 93 155 190 85
98 155 185 155 196 0 10 -14 76 -31 146 -38 153 -41 240 -16 377 19 96 30 116
42 77z m1724 -107 c1 -82 -20 -152 -64 -209 -34 -44 -40 -40 -15 12 29 58 60
189 61 258 1 86 17 34 18 -61z m-3149 65 c21 -35 29 -138 10 -138 -13 0 -56
66 -71 109 -11 30 -10 36 6 48 27 19 33 17 55 -19z m1337 -13 c24 -17 21 -60
-3 -51 -25 10 -26 -41 -5 -166 11 -67 19 -123 17 -125 -1 -2 -22 7 -47 19 -24
11 -63 23 -85 26 -52 6 -65 -12 -93 -119 l-19 -74 -1 145 c-2 134 -13 269 -27
312 -3 10 -13 18 -21 18 -9 0 -14 2 -11 5 2 3 26 2 51 -1 l47 -7 -6 -36 c-4
-28 -1 -42 16 -64 19 -24 28 -28 63 -25 30 2 45 10 60 31 19 24 20 31 8 63
-10 27 -10 38 -1 49 16 19 30 19 57 0z m-411 -13 c6 -4 19 -31 28 -59 10 -29
22 -53 27 -53 6 0 8 8 5 18 -23 79 -17 88 39 54 l30 -18 11 -220 c6 -120 9
-221 7 -224 -2 -3 -12 5 -21 18 -16 21 -42 103 -108 342 -34 121 -39 130 -72
130 -21 0 -24 2 -12 10 18 11 51 13 66 2z m-1146 -69 c0 -5 -8 -18 -18 -30
-13 -18 -31 -24 -82 -29 -62 -7 -120 -26 -120 -42 0 -21 46 -76 90 -108 30
-21 50 -44 50 -55 0 -25 -4 -24 -57 12 -85 59 -175 172 -158 199 19 31 296 80
295 53z m1167 -198 c28 -96 50 -175 49 -175 0 0 -23 11 -50 25 -26 13 -75 30
-108 36 l-60 12 4 76 c5 85 30 146 74 180 15 12 30 21 33 21 4 0 30 -79 58
-175z m1205 2 c3 -34 13 -77 22 -95 22 -43 -1 -33 -33 13 -29 42 -41 132 -20
145 21 14 26 4 31 -63z m-362 29 c52 -12 55 -14 58 -47 2 -19 1 -66 -3 -105
l-6 -70 -85 0 c-46 1 -84 3 -84 4 0 2 8 16 18 30 28 41 42 89 42 148 0 30 1
54 3 54 1 -1 27 -7 57 -14z m211 -16 c27 -15 24 -27 -21 -116 -47 -94 -85
-143 -98 -129 -5 6 -7 63 -4 133 l4 122 50 0 c27 0 58 -5 69 -10z m-711 -91
c35 -17 68 -36 72 -42 13 -20 9 -52 -13 -104 -19 -47 -22 -50 -56 -49 -21 1
-38 -4 -40 -11 -3 -8 5 -13 21 -13 37 0 39 -13 13 -76 -26 -66 -48 -77 -139
-72 -64 4 -77 21 -61 75 21 67 64 216 79 271 18 63 30 66 124 21z m725 -162
c-9 -45 -20 -86 -25 -91 -7 -7 -80 39 -80 52 0 2 26 45 58 94 55 87 57 89 60
58 2 -18 -4 -69 -13 -113z m-1161 88 c47 -12 133 -60 210 -116 5 -4 3 -35 -4
-73 -16 -84 -8 -113 32 -130 20 -9 32 -21 33 -35 2 -25 -17 -28 -36 -5 -40 48
-205 139 -228 125 -8 -5 19 -25 71 -55 46 -25 100 -61 122 -79 l38 -32 -58
-46 c-81 -63 -102 -73 -156 -70 -53 2 -65 -14 -18 -24 16 -4 32 -10 35 -15 10
-17 -18 -60 -56 -85 -43 -28 -46 -40 -28 -111 18 -70 33 -67 26 5 -5 55 -3 63
16 76 31 21 37 19 37 -14 0 -48 46 -181 85 -245 19 -32 35 -62 35 -66 0 -12
-77 -21 -103 -11 -30 11 -102 93 -130 146 -19 36 -22 63 -28 295 -5 198 -10
267 -23 308 -15 47 -15 54 -1 74 19 28 19 71 0 108 -11 22 -12 30 -2 33 8 3 6
10 -8 20 -19 15 -19 16 10 22 17 4 35 8 40 10 19 6 31 5 89 -10z m965 -79 c60
-21 60 -32 -4 -153 -80 -153 -118 -203 -153 -203 -30 0 -117 51 -125 75 -3 7
11 37 31 67 38 54 70 70 96 49 10 -9 15 -8 20 5 8 21 -1 34 -25 34 -16 0 -19
7 -18 38 2 59 13 86 39 93 39 11 102 9 139 -5z m-1109 -37 c0 -10 -8 -34 -17
-54 -16 -33 -16 -38 0 -88 13 -41 18 -108 23 -283 3 -126 10 -251 16 -277 6
-26 25 -70 44 -97 l34 -49 -103 -93 c-250 -226 -317 -279 -336 -268 -85 45
-258 388 -287 566 -6 41 -6 41 30 48 43 8 65 38 73 96 5 36 9 40 33 40 15 0
40 10 55 22 23 18 30 19 33 8 3 -8 16 -25 29 -38 27 -26 63 -24 96 6 16 14 63
105 81 157 6 16 9 17 16 5 6 -10 12 -11 18 -5 5 6 37 85 72 178 51 136 65 165
76 156 8 -6 14 -20 14 -30z m1241 -86 c24 -21 54 -49 65 -63 l22 -25 -41 -46
-42 -46 -27 31 c-36 41 -38 14 -3 -54 14 -27 25 -54 25 -60 0 -5 -25 -37 -55
-70 -39 -42 -55 -68 -55 -87 0 -16 -13 -55 -29 -88 -40 -82 -93 -174 -87 -150
17 70 17 85 3 85 -11 0 -22 -41 -46 -159 -32 -167 -65 -269 -88 -278 -28 -11
-148 28 -224 72 l-77 46 14 27 c8 15 14 34 14 42 0 8 30 77 67 153 48 98 72
137 84 137 11 0 32 24 54 60 33 54 116 140 136 140 9 0 92 133 170 272 30 54
59 98 65 98 6 0 30 -17 55 -37z m-1394 -111 c9 -38 -20 -57 -94 -61 -6 -1 -18
-8 -26 -16 -12 -12 -22 -12 -46 -4 -29 10 -30 12 -15 34 8 13 29 29 46 36 27
11 29 14 14 25 -15 11 -14 14 10 33 l27 21 39 -22 c22 -13 41 -32 45 -46z
m-509 -37 c1 -1 -4 -18 -11 -39 l-13 -37 -32 47 -33 46 43 -7 c24 -4 44 -8 46
-10z m-68 -77 c25 -45 30 -64 30 -122 l0 -68 -27 7 c-62 15 -142 25 -212 25
l-74 0 19 21 c22 24 86 59 109 59 8 0 34 29 57 65 24 35 49 65 55 65 7 0 26
-24 43 -52z m1523 -15 c4 -21 17 -58 29 -83 l23 -45 -39 -65 c-21 -36 -40 -67
-42 -69 -9 -10 -109 26 -130 47 -30 30 -30 40 1 75 27 30 35 33 35 13 0 -17
27 -28 51 -21 37 12 31 75 -7 75 -8 0 -14 3 -14 6 0 11 75 112 81 108 4 -2 9
-21 12 -41z m-373 17 c0 -5 -10 -14 -21 -21 -19 -9 -21 -17 -15 -55 15 -111
134 -254 211 -254 26 0 17 16 -21 33 l-35 17 21 30 c12 17 23 30 25 30 9 0 45
-79 45 -97 0 -34 -55 -303 -62 -303 -4 0 -19 11 -35 24 l-27 24 57 110 c32 61
53 113 48 116 -12 8 -16 2 -106 -156 l-78 -137 -29 20 c-65 46 -144 180 -174
292 -15 57 -18 165 -6 185 10 15 183 150 195 151 4 1 7 -3 7 -9z m-995 -20
c-2 -4 -18 -10 -35 -13 -42 -9 -37 -23 18 -49 l47 -23 -3 -50 c-2 -27 -9 -61
-15 -75 -22 -46 -88 -34 -108 18 -9 23 -7 30 11 44 12 10 38 18 56 18 31 0 34
2 24 19 -5 11 -30 26 -53 33 -43 13 -44 13 -35 46 5 19 18 36 30 41 24 9 70 2
63 -9z m-547 -106 c39 -10 72 -21 72 -25 0 -4 -24 -13 -52 -19 -73 -15 -80
-21 -86 -78 l-4 -49 -82 -7 c-44 -3 -124 -6 -176 -6 -112 0 -188 -17 -286 -65
-133 -65 -263 -213 -344 -393 -30 -66 -34 -71 -50 -57 -9 8 -19 12 -23 9 -3
-3 -9 10 -13 30 -5 31 -8 35 -22 24 -13 -11 -14 -4 -10 64 4 69 11 90 66 202
34 69 62 130 62 135 0 17 141 121 210 156 77 39 211 82 295 95 98 14 359 6
443 -16z m346 -78 c82 -20 104 -45 123 -141 8 -43 11 -81 6 -85 -4 -4 -44 -13
-88 -19 -104 -16 -155 -29 -155 -41 0 -5 12 -7 28 -5 86 15 162 25 198 25 38
0 43 -3 54 -32 7 -18 24 -59 38 -90 l25 -58 -51 -61 c-54 -66 -106 -153 -100
-169 2 -6 39 37 82 95 l80 104 24 -42 c63 -108 106 -167 141 -191 20 -14 42
-26 48 -26 6 0 51 33 100 74 120 101 119 102 116 -139 -2 -102 1 -185 6 -185
15 0 31 110 31 214 l1 101 24 -29 c27 -34 16 -39 133 61 40 35 76 63 80 63 4
0 16 -15 28 -33 l21 -32 -54 -145 c-30 -79 -53 -155 -51 -169 2 -18 21 21 62
127 32 83 62 152 65 152 3 0 14 -15 24 -32 16 -28 20 -31 30 -17 7 8 24 30 38
48 l25 32 19 -41 c14 -31 22 -39 37 -34 11 3 18 0 18 -8 0 -29 -136 -390 -150
-398 -20 -11 -281 -24 -314 -16 -14 3 -38 25 -55 49 -36 53 -98 87 -215 121
-120 35 -139 34 -173 -9 -15 -19 -32 -35 -37 -35 -16 0 -160 92 -223 141 -77
62 -103 111 -103 198 0 76 -12 101 -98 205 -63 75 -107 106 -150 106 -11 0
-24 6 -30 13 -6 6 -18 83 -28 169 -19 179 -18 185 49 191 104 9 266 6 321 -7z
m-434 -130 c0 -2 -40 -33 -89 -70 -80 -59 -160 -140 -149 -151 2 -2 60 40 129
95 68 54 127 99 130 100 4 0 12 -39 19 -87 15 -114 26 -142 59 -149 75 -17 91
-27 150 -99 l61 -74 -88 -28 c-65 -20 -108 -27 -170 -28 -81 0 -82 -1 -61 -17
31 -26 90 -22 214 12 60 17 114 29 122 26 9 -4 13 -27 13 -78 1 -96 21 -140
98 -207 l62 -53 -33 -26 c-61 -49 -146 -135 -141 -144 9 -15 18 -9 104 67 47
41 91 75 98 75 8 0 51 -20 96 -45 90 -49 95 -48 129 8 11 17 26 27 42 27 40 0
185 -51 194 -69 9 -17 40 -226 44 -300 1 -25 8 -46 15 -49 18 -6 15 121 -6
246 -10 56 -15 102 -11 102 4 0 28 -24 54 -54 47 -55 101 -86 151 -86 22 0 25
-4 21 -22 -15 -59 -29 -160 -23 -165 11 -12 19 6 41 99 l22 93 88 7 c49 5 90
6 92 4 3 -2 -9 -35 -25 -73 -37 -85 -82 -226 -82 -258 0 -20 -6 -25 -43 -30
-24 -4 -126 -5 -227 -3 -216 4 -239 11 -338 101 -71 65 -82 68 -247 65 -119
-3 -121 -3 -180 30 -60 32 -225 152 -278 201 -37 34 -71 101 -92 181 -9 35
-27 84 -40 109 -27 54 -114 140 -171 169 -107 55 -159 175 -159 366 l0 110 70
22 c111 35 335 68 335 50z m-440 -188 c0 -81 26 -186 65 -264 32 -66 41 -75
103 -112 113 -67 184 -158 207 -262 16 -76 64 -161 123 -218 71 -70 189 -152
279 -195 67 -31 70 -32 196 -29 143 3 147 2 224 -68 28 -26 73 -58 100 -71 47
-23 55 -24 290 -24 134 0 243 -3 243 -6 0 -4 3 -21 6 -38 l7 -31 -89 0 c-204
1 -492 38 -579 75 -16 7 -61 33 -98 59 -80 54 -134 70 -277 86 -58 6 -120 19
-137 28 -49 25 -214 173 -247 220 -16 23 -35 70 -43 104 -30 130 -135 271
-244 329 -122 65 -174 166 -204 396 -6 49 -5 54 17 62 50 21 58 15 58 -41z
m1842 -92 c12 -3 34 -7 47 -8 19 -3 30 -19 62 -97 l39 -94 -26 -39 c-15 -21
-27 -38 -28 -38 -1 0 -26 36 -55 80 -30 44 -56 80 -59 80 -2 0 -41 -33 -86
-73 -44 -40 -86 -77 -93 -80 -12 -7 -93 91 -93 112 0 5 50 54 112 110 l111
101 23 -25 c12 -13 33 -26 46 -29z m416 -104 c132 -87 229 -110 371 -89 l53 8
-74 -108 c-41 -59 -86 -114 -99 -121 -17 -9 -51 -12 -111 -9 -74 4 -98 10
-160 40 -40 19 -89 48 -108 65 l-35 30 17 53 c16 49 22 72 42 162 4 15 8 27
11 27 2 0 44 -26 93 -58z m-6 -322 c18 -6 41 -15 50 -18 14 -6 4 -33 -72 -192
-60 -123 -89 -197 -90 -221 0 -19 16 -82 35 -139 39 -116 38 -113 26 -106 -4
3 -9 -21 -9 -53 0 -32 -7 -74 -16 -92 -14 -34 -14 -34 -15 43 -1 42 -5 79 -10
82 -5 4 -12 -33 -16 -81 -10 -122 -20 -142 -28 -55 -3 39 -13 83 -21 99 -14
26 -15 20 -16 -104 0 -141 -13 -177 -23 -68 -4 36 -15 85 -25 108 -21 46 -98
147 -113 147 -5 0 -9 -33 -9 -72 0 -65 -11 -111 -23 -98 -11 12 -37 193 -31
213 3 12 47 123 96 247 50 124 106 268 124 320 19 52 36 100 39 107 3 8 22 1
59 -21 31 -18 70 -39 88 -46z m401 9 c61 -31 197 -132 197 -147 0 -20 -238
-221 -305 -257 -40 -22 -95 -61 -123 -87 -50 -47 -104 -79 -173 -103 -35 -13
-38 -12 -43 8 -3 12 -14 52 -25 88 l-19 66 30 69 c35 80 64 124 81 124 7 0 24
-20 39 -45 33 -55 66 -76 126 -81 41 -4 44 -3 22 7 -74 33 -93 46 -119 86
l-29 44 99 99 c54 55 102 100 107 100 5 0 21 14 37 30 16 17 30 30 32 30 2 0
32 -14 66 -31z m183 -250 c19 -21 19 -21 -21 -52 -21 -18 -74 -62 -117 -99
-44 -37 -100 -82 -126 -100 -26 -17 -68 -53 -94 -80 -52 -54 -212 -138 -228
-122 -5 5 -12 23 -16 40 -6 30 -4 31 67 59 49 20 92 47 129 81 30 28 84 66
120 85 37 20 103 71 158 122 51 48 96 87 101 87 4 0 16 -9 27 -21z m-1884
-395 c28 -7 81 -34 118 -59 71 -49 139 -78 208 -90 52 -8 51 2 17 -252 -29
-213 -58 -329 -89 -357 -32 -28 -152 -86 -179 -86 -27 0 -134 61 -159 91 -13
15 -18 39 -18 83 0 33 -11 196 -25 361 -14 165 -25 308 -25 318 0 17 6 18 50
12 28 -4 74 -13 102 -21z m1275 -146 c-3 -7 -5 -2 -5 12 0 14 2 19 5 13 2 -7
2 -19 0 -25z m-227 -35 c0 -26 22 -143 31 -165 16 -39 35 -41 74 -7 l34 30 5
-23 c8 -37 46 -351 46 -377 0 -23 -2 -24 -52 -18 -29 3 -109 23 -178 45 -69
22 -137 43 -152 46 -15 4 -32 14 -37 24 -8 15 -111 423 -111 440 0 3 41 2 92
-2 64 -5 95 -12 103 -22 9 -13 15 -12 45 10 33 23 100 35 100 19z m226 -361
c31 -21 44 -134 20 -168 -18 -23 -20 -18 -35 77 -16 99 -14 111 15 91z m-811
-121 c7 -35 -16 -106 -97 -299 -42 -99 -58 -150 -54 -167 8 -31 -28 -60 -103
-81 -52 -16 -60 -16 -156 5 -105 22 -221 55 -243 69 -11 7 -10 16 4 45 16 34
16 39 0 89 -9 29 -24 98 -32 153 -8 55 -17 119 -20 142 -5 30 -2 49 8 65 15
23 84 66 91 58 3 -3 7 -35 10 -72 l5 -68 -29 23 c-15 12 -28 32 -28 45 -1 25
-13 29 -30 8 -18 -22 -3 -43 80 -110 85 -68 173 -116 211 -116 58 0 307 149
344 205 28 42 8 40 -46 -5 -28 -23 -53 -40 -56 -38 -4 4 18 105 32 146 7 22
101 -63 109 -97z m896 72 l41 -37 -5 -61 c-4 -33 -22 -131 -40 -217 -19 -87
-32 -158 -29 -158 3 0 10 7 16 16 10 14 14 12 26 -10 12 -23 11 -28 -6 -47
-23 -27 -98 -60 -185 -83 -47 -13 -92 -17 -162 -15 -117 5 -149 22 -158 87 -3
22 -17 56 -33 76 -38 51 -81 146 -111 250 -32 113 -32 128 6 171 35 39 48 41
60 7 7 -18 5 -22 -12 -22 -26 0 -20 -24 7 -28 10 -2 102 -28 203 -58 198 -58
268 -67 311 -37 41 28 49 45 50 102 0 43 -5 60 -22 78 -35 37 -2 26 43 -14z
m-47 -640 c-10 -7 -43 -23 -73 -35 -48 -19 -75 -22 -184 -23 -116 0 -130 2
-143 20 -8 10 -14 27 -14 36 0 15 5 16 32 8 82 -23 241 -5 342 40 l41 18 9
-25 c7 -20 5 -28 -10 -39z m-1290 1 c50 -11 106 -15 153 -12 70 5 74 4 71 -16
-5 -35 -44 -48 -138 -43 -47 2 -113 12 -147 22 -59 17 -63 19 -63 47 0 27 3
30 23 24 12 -3 58 -13 101 -22z m1331 -57 c7 -18 37 -192 65 -387 56 -386 72
-470 126 -631 24 -75 45 -119 70 -148 27 -31 35 -47 30 -65 -5 -22 -10 -24
-46 -19 -47 7 -82 -12 -105 -57 -18 -35 -7 -40 21 -9 35 38 114 66 114 40 0
-5 11 -23 25 -39 l25 -30 -42 -24 c-67 -36 -70 -61 -18 -149 81 -139 101 -177
92 -183 -5 -3 -40 4 -78 15 -53 16 -110 22 -246 27 -114 5 -181 11 -189 19 -6
6 -15 31 -20 55 -12 62 -11 228 1 228 18 0 11 22 -25 76 -40 61 -42 74 -15 99
11 10 20 29 20 42 0 39 -97 464 -170 743 -38 146 -72 289 -76 318 l-7 52 100
-6 c108 -7 210 9 288 46 22 10 41 19 43 19 2 1 9 -14 17 -32z m-1340 -32 c93
-17 146 -19 194 -5 19 5 36 8 38 6 2 -2 -3 -35 -11 -73 -9 -39 -20 -119 -25
-179 -8 -87 -19 -552 -21 -884 l-1 -55 -21 48 c-11 26 -27 47 -34 47 -8 0 -14
-3 -14 -6 0 -20 50 -117 81 -157 21 -27 35 -55 32 -63 -4 -11 -9 -12 -19 -3
-22 18 -18 -7 16 -111 36 -109 37 -132 9 -195 -15 -33 -20 -60 -16 -87 5 -34
3 -37 -10 -26 -43 35 -66 93 -79 198 -8 58 -19 115 -26 127 -20 39 -120 55
-200 33 -47 -13 -74 -48 -94 -119 -38 -139 -55 -191 -62 -191 -16 0 13 225 40
318 21 71 21 75 4 122 -17 47 -17 49 4 96 22 47 22 51 11 243 -6 108 -16 254
-22 325 -13 147 -7 424 11 538 l12 77 62 -4 c33 -2 97 -11 141 -20z m1780
-1416 c44 -44 96 -91 116 -104 20 -13 100 -44 178 -70 155 -51 164 -58 159
-128 l-3 -42 -60 -12 c-86 -17 -265 -33 -375 -33 l-96 0 -52 39 c-87 66 -147
83 -306 90 -88 4 -141 10 -143 17 -2 7 12 10 44 8 26 -2 104 -5 173 -8 89 -3
144 -10 190 -25 77 -24 90 -25 115 -8 25 19 17 42 -60 172 -35 61 -65 113 -65
117 0 10 80 68 94 68 6 0 47 -36 91 -81z m-1720 -10 c9 -9 21 -59 30 -129 15
-117 20 -129 86 -212 70 -90 73 -159 9 -232 -75 -85 -280 -118 -412 -67 -15 5
-45 27 -67 47 -31 28 -41 44 -41 68 0 45 42 153 89 232 23 37 41 74 41 81 0 7
14 56 31 109 27 85 34 97 62 110 41 18 151 14 172 -7z m1320 -286 c47 -4 62
-9 46 -13 -23 -5 -25 -9 -22 -63 l2 -57 -69 0 -69 0 -27 63 c-14 34 -26 65
-26 70 0 9 72 9 165 0z m188 -34 c12 -7 42 -28 67 -48 l44 -36 136 -6 135 -5
-146 -2 -146 -2 -24 26 c-13 15 -42 40 -63 55 -40 30 -41 38 -3 18z m637 -59
c-9 -4 -45 -11 -80 -14 l-65 -5 65 13 c84 17 101 19 80 6z m-167 -27 c-13 -2
-35 -2 -50 0 -16 2 -5 4 22 4 28 0 40 -2 28 -4z m-2273 -262 c103 -44 257 -35
373 23 77 39 92 27 32 -30 -72 -67 -196 -95 -318 -69 -143 30 -185 58 -202
135 l-7 35 38 -37 c22 -20 59 -46 84 -57z"/>
<path d="M5193 6128 c-31 -15 -63 -86 -63 -140 0 -60 34 -112 75 -116 l30 -2
-26 22 c-34 30 -49 59 -49 97 0 44 29 109 51 116 11 4 62 1 115 -6 l96 -13 -4
-47 c-7 -65 -41 -107 -125 -152 -63 -34 -65 -36 -36 -37 91 -1 181 89 199 197
8 53 -7 63 -114 79 -104 16 -120 16 -149 2z"/>
<path d="M5010 6385 c-10 -12 -9 -20 4 -40 9 -14 19 -25 21 -25 2 0 12 11 21
25 13 20 14 28 4 40 -7 8 -18 15 -25 15 -7 0 -18 -7 -25 -15z"/>
<path d="M3878 5861 c-10 -16 -20 -18 -64 -14 -49 5 -55 3 -83 -25 -27 -26
-31 -38 -31 -84 0 -61 45 -152 80 -163 34 -11 99 5 130 32 27 22 30 31 30 80
0 30 -5 63 -10 74 -9 15 -6 26 11 51 21 29 21 31 3 26 -10 -3 -27 -9 -38 -13
-16 -7 -17 -6 -7 13 22 40 3 61 -21 23z m-83 -88 c0 -22 5 -29 23 -31 28 -4
55 16 48 35 -10 24 10 13 27 -16 34 -59 13 -131 -40 -131 -24 0 -31 14 -13 25
17 11 0 25 -30 25 -34 0 -43 19 -34 77 7 48 20 58 19 16z"/>
<path d="M3496 5584 c-28 -28 -12 -57 29 -52 39 4 56 34 31 54 -25 18 -41 18
-60 -2z"/>
<path d="M3639 5534 c-9 -11 -23 -14 -49 -10 -29 4 -41 0 -70 -24 -30 -25 -32
-30 -15 -30 12 0 41 -20 65 -45 24 -25 52 -45 62 -45 24 0 33 40 18 84 -8 26
-8 40 0 56 14 27 7 36 -11 14z"/>
<path d="M3945 5166 c-12 -61 27 -226 53 -226 9 0 -30 246 -41 256 -3 4 -9
-10 -12 -30z"/>
<path d="M4670 1188 c0 -12 109 -87 169 -118 38 -19 117 -18 138 3 16 16 14
17 -45 17 -68 0 -86 7 -184 70 -65 43 -78 47 -78 28z"/>
<path d="M3328 948 c-70 -19 -43 -30 55 -23 58 4 102 3 120 -4 41 -16 34 7 -8
25 -39 16 -111 17 -167 2z"/>
<path d="M3281 499 c-71 -14 -60 -19 41 -19 80 0 165 -9 204 -22 5 -2 10 2 12
7 5 16 -97 44 -158 43 -30 0 -75 -4 -99 -9z"/>
</g>
</svg>
