<?xml version="1.0" standalone="no"?>
<!DOCTYPE svg PUBLIC "-//W3C//DTD SVG 20010904//EN"
 "http://www.w3.org/TR/2001/REC-SVG-20010904/DTD/svg10.dtd">
<svg version="1.0" xmlns="http://www.w3.org/2000/svg"
 width="850.000000pt" height="850.000000pt" viewBox="0 0 850.000000 850.000000"
 preserveAspectRatio="xMidYMid meet">
<metadata>
Created by potrace 1.14, written by Peter Selinger 2001-2017
</metadata>
<g transform="translate(0.000000,850.000000) scale(0.100000,-0.100000)"
fill="#000000" stroke="none">
<path d="M4684 8455 c-45 -44 -68 -82 -79 -132 -4 -19 -19 -41 -36 -53 -17
-13 -33 -37 -40 -61 -10 -30 -16 -38 -28 -33 -9 4 -56 20 -106 36 -76 25 -112
31 -226 35 -122 5 -145 3 -210 -16 -71 -21 -211 -93 -329 -169 -111 -71 -239
-212 -298 -329 -90 -175 -111 -521 -51 -837 27 -145 43 -162 34 -36 -8 100 9
308 26 325 5 5 9 -3 9 -22 0 -92 55 -270 117 -382 40 -73 161 -204 222 -241
47 -29 51 -40 16 -40 -57 0 -133 -47 -160 -101 -27 -51 -55 -229 -89 -579 -35
-342 -38 -361 -81 -510 -25 -85 -70 -243 -100 -350 -30 -107 -78 -276 -106
-375 -46 -160 -52 -191 -53 -280 0 -55 5 -144 12 -197 6 -54 12 -162 12 -242
0 -164 7 -196 44 -196 28 0 40 17 51 75 l8 40 9 -50 c15 -90 17 -95 40 -95 44
0 87 39 103 93 8 28 15 58 15 66 0 12 10 16 33 16 30 0 32 2 35 40 6 66 -7
102 -54 157 l-45 53 6 85 c6 76 4 92 -19 154 -14 37 -26 77 -26 88 0 21 23 88
120 348 34 91 89 244 122 340 34 96 65 179 69 184 14 15 -2 -146 -23 -229 -11
-44 -42 -147 -70 -230 l-51 -150 0 -130 c0 -71 1 -220 4 -330 3 -155 1 -207
-10 -233 -10 -24 -11 -39 -3 -55 6 -12 13 -76 16 -142 4 -66 11 -138 16 -160
7 -28 6 -49 -2 -68 -9 -23 -8 -34 5 -56 26 -44 74 -468 108 -956 15 -213 6
-478 -17 -513 -13 -19 -13 -29 -4 -52 9 -21 8 -65 -5 -191 -27 -282 -73 -514
-130 -657 -20 -51 -34 -100 -31 -108 8 -20 83 -53 140 -60 l45 -7 -16 -38 c-8
-22 -13 -45 -10 -53 8 -20 83 -39 129 -33 21 3 38 3 38 1 0 -8 -153 -290 -173
-319 -12 -16 -83 -92 -159 -167 -191 -189 -187 -204 46 -195 109 4 166 12 250
34 l109 28 17 50 c28 83 57 131 115 192 l54 58 -6 -122 -6 -123 46 0 c45 0 47
1 47 29 0 69 42 275 62 302 l21 28 -23 93 c-12 51 -26 106 -31 122 -6 20 -4
34 6 49 9 12 12 31 8 50 -5 27 -4 29 13 22 10 -4 51 -10 89 -12 61 -5 73 -2
98 17 21 16 26 27 21 46 -11 45 14 25 47 -37 18 -33 41 -65 52 -71 19 -10 68
-7 98 6 12 5 18 -6 31 -61 9 -37 33 -114 52 -171 20 -57 54 -169 77 -250 22
-81 51 -163 63 -183 44 -66 282 -229 335 -229 12 0 30 9 41 20 17 17 20 33 20
102 -1 189 -7 207 -145 460 -94 170 -131 249 -145 305 -11 41 -17 79 -14 84
12 20 54 7 115 -36 35 -25 68 -45 72 -45 4 0 6 15 3 33 -3 17 -19 131 -35 252
-17 121 -44 319 -61 440 -166 1215 -162 1170 -200 2205 -9 263 -15 312 -77
668 -11 69 -13 96 -4 105 17 17 13 45 -9 57 -11 6 -20 21 -20 34 0 51 -42 183
-70 223 -21 28 -30 53 -30 80 -1 21 -7 49 -15 63 -12 20 -13 63 -9 230 3 113
10 217 16 233 8 20 7 31 -2 42 -12 14 -5 55 9 55 4 0 15 -78 25 -172 16 -165
20 -183 83 -375 l67 -201 -18 -34 c-17 -31 -17 -36 -3 -71 12 -28 22 -37 40
-37 27 0 30 -5 87 -160 l28 -76 -24 -23 c-29 -28 -30 -37 -5 -78 15 -23 28
-32 52 -35 27 -3 34 -9 46 -43 12 -32 12 -54 3 -111 -6 -39 -8 -103 -4 -145 6
-72 5 -76 -27 -128 -28 -44 -34 -64 -34 -110 0 -49 3 -57 23 -66 12 -5 22 -19
22 -30 1 -11 15 -47 33 -80 26 -48 37 -60 57 -60 22 0 28 8 46 65 21 63 26 65
38 9 6 -27 46 -52 69 -43 11 4 15 54 20 227 9 286 -2 417 -47 570 -33 110 -34
121 -20 143 17 26 11 79 -10 91 -8 5 -13 27 -12 58 1 47 -1 50 -33 66 -35 16
-35 17 -108 270 -84 290 -104 408 -128 744 -8 121 -17 232 -20 248 -2 15 -1
27 3 26 4 0 36 -17 72 -37 86 -50 97 -73 76 -157 -22 -87 -21 -152 4 -192 21
-36 85 -73 125 -73 29 0 34 16 7 24 -27 9 -61 48 -71 83 -11 39 16 123 68 206
21 34 42 72 45 84 11 36 -18 87 -97 170 -41 43 -80 89 -87 103 -8 14 -14 57
-14 101 0 63 5 86 32 142 37 80 72 131 143 212 75 85 102 150 103 245 1 47 -6
98 -18 136 -22 72 -14 117 23 122 29 5 20 37 -20 75 l-30 28 21 29 c12 17 16
31 10 35 -15 9 -12 25 4 25 25 0 46 30 46 66 0 32 2 34 35 34 44 0 55 23 62
126 3 57 1 75 -12 88 -26 26 -63 31 -85 11 -19 -17 -20 -17 -20 -1 0 9 10 30
21 46 14 18 20 37 16 50 -4 15 4 35 24 64 23 31 30 49 27 75 -3 24 1 40 14 53
13 13 16 26 12 46 -10 42 -27 56 -53 43 -15 -9 -25 -8 -41 1 -16 10 -28 9 -65
-4 l-45 -17 -1 32 c-3 205 -3 202 -25 205 -17 2 -23 12 -28 42 -7 42 -23 60
-36 39 -5 -7 -25 -13 -46 -13 -33 -1 -42 -6 -67 -43 -25 -38 -33 -43 -68 -43
-36 0 -39 2 -39 28 0 37 -23 68 -57 77 -38 9 -53 23 -53 51 0 35 -11 33 -56
-11z m35 -127 c2 -72 21 -70 21 1 0 64 3 67 46 51 25 -10 26 -12 10 -29 -18
-20 -23 -141 -6 -141 6 0 10 11 10 25 0 14 5 25 11 25 7 0 9 -9 5 -22 -3 -13
-6 -31 -6 -40 0 -10 -10 -22 -22 -29 -18 -10 -24 -8 -38 11 l-17 23 -36 -39
c-20 -21 -37 -47 -37 -56 0 -25 -12 -23 -63 12 -44 29 -45 31 -36 67 9 42 31
63 66 63 20 0 23 -5 23 -39 0 -22 4 -42 9 -46 13 -7 25 77 17 117 -19 91 -19
95 5 119 l23 23 7 -24 c4 -14 7 -46 8 -72z m346 -12 c-4 -22 -7 -61 -7 -85 1
-29 -10 -71 -30 -120 -30 -70 -32 -74 -39 -48 -10 37 -29 59 -46 53 -11 -4
-11 -1 -3 14 10 18 7 20 -19 20 -16 0 -31 6 -35 15 -3 8 -15 15 -26 15 -16 0
-20 6 -20 35 0 48 36 73 80 55 34 -14 35 -16 15 -36 -8 -9 -15 -20 -15 -25 0
-19 20 -7 55 34 31 36 35 47 30 75 -8 43 -2 50 36 44 31 -5 31 -5 24 -46z
m-792 -111 c90 -16 211 -57 298 -100 115 -59 199 -183 237 -353 21 -92 35
-232 24 -232 -22 1 -45 37 -71 111 -17 46 -44 109 -61 141 -32 59 -99 128
-125 128 -22 0 -18 -18 4 -25 28 -8 76 -67 107 -128 30 -57 66 -158 60 -164
-2 -2 -28 15 -57 39 -31 25 -89 95 -143 170 -49 70 -92 126 -94 124 -2 -2 10
-31 27 -64 35 -69 129 -190 190 -245 87 -78 307 -207 354 -207 9 0 17 -5 17
-10 0 -6 -10 -8 -22 -6 -13 3 -42 7 -66 11 -70 9 -241 106 -352 200 -99 83
-201 228 -215 308 -4 20 -12 37 -17 37 -16 0 -2 -84 21 -128 21 -41 144 -189
197 -238 42 -39 44 -55 6 -48 -15 3 -51 1 -80 -4 l-52 -9 -43 51 c-73 86 -127
162 -162 227 -19 35 -35 56 -39 50 -8 -12 56 -136 136 -264 27 -44 48 -80 46
-81 -13 -10 -70 -28 -74 -24 -2 3 -29 38 -60 79 -50 67 -94 168 -94 218 0 33
-22 93 -30 85 -19 -19 66 -335 134 -499 l17 -40 -36 40 c-19 22 -58 87 -87
144 -48 98 -52 112 -71 252 -11 82 -24 149 -29 149 -14 0 -9 -58 22 -253 17
-106 42 -226 59 -275 16 -48 28 -88 26 -90 -7 -8 -107 171 -135 242 -40 98
-78 282 -86 414 -7 106 -24 141 -24 50 0 -49 -3 -55 -35 -81 -65 -52 -118
-135 -171 -271 -43 -108 -56 -132 -74 -134 -21 -4 -22 -1 -16 42 4 27 3 46 -2
46 -16 0 -22 -28 -29 -136 -6 -97 -7 -104 -27 -104 -19 0 -18 -2 8 -23 30 -24
29 -46 -2 -48 -13 0 -12 -2 5 -9 13 -5 24 -21 28 -42 12 -62 38 -133 62 -172
14 -21 19 -35 13 -31 -24 15 -89 128 -112 193 -21 60 -23 85 -23 245 0 97 -3
177 -7 177 -13 0 -20 -192 -16 -416 5 -228 5 -229 41 -351 37 -124 71 -203
111 -258 41 -55 41 -60 -1 -27 -128 101 -215 236 -270 417 -25 84 -27 103 -27
280 -1 182 1 194 28 280 56 174 44 196 -17 33 -40 -107 -66 -214 -94 -388
l-18 -115 -3 140 c-5 221 33 402 110 533 47 79 169 204 256 263 98 65 305 167
362 178 71 14 170 12 263 -4z m840 -39 c17 -13 24 -61 9 -69 -4 -3 -20 -3 -35
0 -25 5 -27 8 -21 37 11 51 16 55 47 32z m-376 -42 c-5 -30 -2 -30 35 1 17 15
42 25 60 25 33 0 33 -9 7 -77 l-11 -28 -19 38 c-11 20 -22 37 -24 37 -12 0
-40 -57 -45 -93 l-5 -40 -27 39 c-34 48 -35 80 -7 111 26 26 43 20 36 -13z
m163 -8 c0 -8 -9 -24 -21 -37 l-20 -24 7 25 c10 39 34 64 34 36z m-98 -151
c-12 -15 -18 -33 -15 -41 7 -20 12 -18 23 11 10 26 55 54 67 42 3 -4 -3 -17
-14 -30 -26 -27 -43 -61 -43 -81 0 -28 16 -17 28 19 14 36 68 89 83 79 12 -7
12 -61 -1 -84 -5 -10 -21 -21 -35 -24 -45 -11 -27 -25 25 -19 28 3 50 2 50 -3
0 -22 -60 -74 -84 -74 -14 0 -26 -4 -26 -10 0 -10 14 -14 40 -10 8 1 -1 -12
-19 -29 -18 -17 -34 -31 -35 -31 -1 0 -3 13 -4 29 -3 37 -38 152 -64 209 -14
33 -17 55 -13 90 11 77 15 81 37 30 l20 -47 -20 -26z m528 88 c0 -7 -6 -13
-13 -13 -7 0 -29 -16 -48 -36 -18 -20 -53 -49 -76 -65 -51 -35 -57 -57 -10
-33 l32 17 -25 -27 c-13 -15 -39 -36 -57 -47 -32 -20 -43 -39 -24 -39 5 0 32
18 61 41 28 22 53 39 54 37 24 -27 33 -82 16 -93 -5 -3 -43 -3 -85 1 -72 7
-74 8 -69 30 4 17 1 26 -10 30 -12 5 -16 20 -16 65 0 32 1 59 3 60 1 0 38 6
82 12 75 11 81 14 93 42 12 26 19 30 53 30 25 0 39 -4 39 -12z m-479 -30 c-8
-15 -10 -15 -11 -2 0 17 10 32 18 25 2 -3 -1 -13 -7 -23z m189 -32 c0 -27 -27
-51 -56 -51 -20 0 -24 5 -24 28 0 37 6 42 47 42 26 0 33 -4 33 -19z m264 -17
c9 -23 8 -24 -12 -24 -26 0 -34 11 -21 27 15 17 26 17 33 -3z m-1356 -189 c31
-230 138 -457 296 -623 70 -74 106 -93 46 -25 -41 46 -103 176 -124 260 -9 34
-19 70 -22 80 -4 10 14 -16 39 -57 24 -41 72 -101 106 -132 l61 -58 0 -58 c0
-32 6 -65 13 -74 23 -31 167 -58 167 -32 0 8 6 11 16 7 13 -5 12 1 -5 35 -26
51 -26 52 -1 52 15 0 20 7 22 28 3 43 -2 104 -12 139 -8 32 -8 32 15 17 50
-33 55 -53 30 -122 -26 -72 -15 -83 17 -17 23 47 41 54 46 17 5 -32 -57 -276
-79 -311 -10 -17 -42 -42 -71 -57 -29 -15 -109 -60 -177 -102 -68 -41 -133
-74 -145 -74 -11 0 -79 27 -151 60 -268 123 -265 121 -296 170 -16 25 -29 49
-29 53 0 4 19 -3 43 -16 53 -29 101 -39 124 -26 20 11 15 13 -37 25 -42 9
-115 73 -144 125 -21 40 -26 62 -26 119 0 39 4 74 10 77 5 3 23 -22 40 -56 17
-33 34 -59 37 -56 3 3 -5 36 -17 73 l-22 66 36 37 37 36 -8 -40 c-4 -22 -8
-67 -8 -100 0 -55 2 -60 23 -63 27 -4 28 -16 5 -40 -24 -24 -28 -52 -8 -52 9
0 14 -4 11 -9 -8 -12 58 -7 122 9 49 13 53 16 63 54 6 23 9 77 6 124 -4 69 -2
82 10 82 13 0 13 2 2 17 -12 15 -12 16 4 10 24 -9 21 5 -8 37 -22 24 -47 32
-85 27 -8 -1 -50 -3 -93 -4 -72 -2 -82 0 -110 24 -48 40 -30 52 68 47 72 -4
93 -10 165 -46 89 -44 115 -46 65 -6 -48 39 -133 67 -215 71 -41 2 -80 6 -87
8 -29 9 97 270 163 339 56 57 56 58 72 -69z m1112 45 c0 -10 -26 -20 -52 -20
-20 0 -20 1 -4 19 16 18 56 19 56 1z m-37 -40 c12 0 29 -5 37 -10 13 -9 9 -15
-20 -40 -41 -35 -56 -37 -63 -9 -4 16 -10 19 -28 14 l-23 -7 25 30 c13 17 30
29 37 26 8 -2 23 -4 35 -4z m166 -27 c11 -10 24 -32 27 -49 l6 -31 -74 -11
c-74 -12 -178 -12 -178 -1 0 4 12 9 28 12 15 3 47 26 72 51 49 51 83 59 119
29z m-239 -72 c0 -31 -22 -61 -44 -61 -7 0 -21 -9 -31 -20 -20 -22 -9 -26 29
-9 19 9 32 9 56 -1 16 -7 30 -16 30 -20 0 -18 -44 -44 -85 -50 l-45 -7 -2 36
c-3 77 3 96 37 129 43 40 55 40 55 3z m378 -19 c4 -38 3 -38 -100 -47 -44 -4
-78 -11 -78 -17 0 -7 29 -9 90 -4 95 7 100 4 84 -38 -8 -21 -128 -22 -164 -1
-33 19 -54 19 -46 0 4 -11 -2 -15 -24 -15 -41 0 -43 11 -7 53 28 32 42 39 107
52 50 10 80 22 90 35 22 29 44 20 48 -18z m-575 -215 c26 -15 40 -32 47 -57
17 -63 30 -174 30 -265 0 -90 -31 -303 -55 -380 -13 -40 -13 -40 -7 20 12 105
6 277 -13 383 -15 84 -16 105 -5 112 10 6 7 11 -9 19 -28 15 -27 29 4 41 32
12 32 24 0 18 -32 -6 -38 3 -25 36 8 22 7 26 -10 26 -13 0 -22 9 -25 28 -4 15
-14 40 -22 57 l-17 29 35 -22 c19 -13 51 -33 72 -45z m447 35 c0 -15 -2 -15
-10 -2 -13 20 -13 33 0 25 6 -3 10 -14 10 -23z m-289 -2 c13 -10 20 -19 16
-20 -11 0 -67 29 -67 35 0 12 30 3 51 -15z m-273 -2 c18 -18 15 -23 -28 -53
l-39 -27 -46 37 c-25 21 -45 41 -45 46 0 14 144 11 158 -3z m-199 -42 c13 -14
18 -26 12 -30 -5 -4 -13 -1 -16 4 -4 6 -19 9 -34 5 -19 -4 -32 -1 -41 9 -10
13 -9 17 11 25 36 15 44 13 68 -13z m225 -22 c10 -26 7 -32 -25 -43 -45 -16
-55 -3 -23 30 32 33 39 35 48 13z m-329 -19 c0 -11 -6 -25 -15 -32 -13 -11
-13 -12 2 -13 11 0 15 -5 12 -15 -4 -8 -1 -15 5 -15 6 0 11 -12 11 -26 0 -21
-3 -24 -13 -16 -22 19 -60 109 -53 127 9 24 51 16 51 -10z m-387 -62 c23 -5
28 -27 13 -52 -9 -13 -74 -30 -123 -31 -26 0 -28 3 -28 43 0 24 3 47 8 51 7 7
81 1 130 -11z m572 5 c0 -7 3 -31 7 -52 l6 -39 -60 6 c-82 9 -93 14 -93 48 0
29 4 32 70 42 51 8 70 7 70 -5z m606 -28 c24 -22 50 -40 58 -40 20 0 25 -22 9
-38 -7 -7 -13 -22 -13 -31 0 -10 -7 -25 -16 -32 -13 -11 -18 -10 -32 8 -10 11
-41 33 -70 49 -61 32 -92 66 -92 100 0 22 4 24 56 24 52 0 60 -3 100 -40z
m-140 -61 c10 -12 36 -30 57 -40 37 -19 37 -20 22 -48 -20 -40 -38 -44 -81
-14 -35 23 -41 24 -75 13 -42 -14 -59 -8 -59 21 0 16 5 19 19 14 22 -7 41 19
41 54 0 29 50 29 76 0z m-1016 -84 c0 -51 -36 -85 -90 -85 -46 0 -59 17 -42
55 10 22 13 23 42 12 30 -11 33 -10 58 20 15 17 28 32 30 32 1 1 2 -15 2 -34z
m771 -81 l12 -92 -37 -113 c-19 -63 -41 -121 -47 -129 -8 -12 -9 -11 -5 5 26
96 51 284 57 420 2 37 4 25 20 -91z m-1171 50 c8 -40 16 -54 25 -50 12 4 55
-49 55 -68 0 -19 -42 -1 -69 29 -27 31 -31 43 -31 90 0 30 2 55 4 55 3 0 10
-25 16 -56z m835 29 c21 -26 26 -27 55 -16 29 11 32 10 42 -12 16 -36 4 -55
-37 -55 -51 0 -73 15 -85 58 -17 62 -12 67 25 25z m715 -13 c6 -11 19 -20 29
-20 27 0 46 -77 46 -180 0 -102 -12 -128 -110 -245 -113 -135 -165 -249 -165
-356 0 -84 23 -134 100 -214 78 -81 100 -112 100 -139 0 -11 -21 -55 -47 -99
-26 -44 -55 -103 -65 -131 -18 -50 -18 -50 -12 -11 3 22 19 71 35 110 47 112
39 139 -59 201 -169 107 -206 206 -146 396 36 113 54 146 124 225 85 96 120
196 120 348 0 72 14 135 31 135 4 0 13 -9 19 -20z m-148 -30 c18 -11 44 -20
57 -20 24 0 24 -1 18 -79 -9 -113 -34 -214 -66 -262 -24 -35 -159 -154 -249
-218 l-27 -19 37 76 c45 92 98 304 106 420 5 81 21 120 43 107 22 -14 2 -201
-28 -258 -17 -33 -10 -48 12 -26 21 21 45 140 45 227 0 40 4 72 10 72 5 0 24
-9 42 -20z m-372 -313 c-8 -53 -84 -181 -138 -232 -45 -43 -71 -42 -86 3 -6
18 -17 37 -24 41 -9 5 -12 24 -10 52 l3 44 101 55 c56 30 112 62 125 71 33 23
37 17 29 -34z m-704 -52 c65 -31 122 -61 126 -68 15 -24 7 -56 -22 -85 -16
-17 -30 -37 -30 -45 0 -10 -23 -23 -62 -36 l-61 -21 -34 21 c-31 19 -103 98
-103 113 0 3 8 6 18 6 10 0 23 5 30 12 15 15 16 80 1 95 -11 11 -2 63 11 63 5
0 61 -25 126 -55z m834 -65 c-31 -134 -52 -183 -94 -220 -58 -51 -80 -102 -80
-185 1 -61 6 -83 44 -165 48 -109 54 -156 24 -197 -12 -15 -84 -68 -162 -118
-77 -49 -151 -99 -163 -110 -12 -11 -19 -14 -15 -8 4 7 51 49 105 92 74 60
102 90 115 121 35 89 20 131 -89 235 -66 63 -85 89 -95 123 -24 90 0 133 142
261 80 73 114 98 120 89 6 -10 16 -4 36 22 64 81 124 151 127 148 2 -2 -5 -42
-15 -88z m-606 -26 c62 -28 90 -27 137 7 15 10 30 19 33 19 3 0 6 -22 6 -50 0
-27 6 -67 14 -87 36 -97 24 -154 -41 -195 -45 -27 -46 -51 -2 -28 17 10 19 7
19 -34 l0 -44 -180 -2 -180 -1 0 25 c0 14 5 28 10 31 6 3 10 15 10 26 0 15 7
19 38 19 21 0 47 -7 58 -15 22 -17 44 -19 44 -5 0 12 -53 40 -77 40 -41 1 -45
14 -22 74 11 32 32 76 45 99 17 30 24 58 24 95 0 28 2 52 4 52 2 0 29 -12 60
-26z m696 -145 c-56 -145 -58 -255 -6 -343 31 -53 56 -75 136 -124 71 -43 96
-78 85 -120 l-7 -27 -11 30 c-15 45 -34 62 -121 108 -148 76 -185 129 -186
255 0 109 37 215 93 264 23 20 43 35 44 34 1 -1 -11 -36 -27 -77z m-870 -31
c0 -2 -6 -23 -14 -48 l-14 -45 -48 3 c-45 2 -48 1 -30 -13 11 -8 28 -15 38
-15 22 0 22 -3 3 -67 -12 -39 -23 -57 -49 -72 -18 -12 -52 -41 -75 -66 l-41
-45 0 55 c0 78 -16 68 -23 -14 -4 -49 -15 -89 -39 -138 -56 -117 -50 -224 21
-326 17 -25 27 -48 23 -52 -4 -4 -8 -26 -8 -48 -4 -103 -96 -413 -202 -677
-16 -41 -43 -113 -60 -160 -17 -47 -53 -147 -81 -224 -28 -76 -51 -145 -51
-153 0 -8 12 -44 26 -79 27 -68 32 -115 20 -199 -7 -50 -6 -52 42 -115 34 -44
52 -79 57 -107 4 -26 3 -43 -3 -43 -5 0 -31 43 -58 95 -26 52 -52 95 -56 95
-12 0 -10 -7 17 -95 25 -81 31 -172 15 -210 -5 -11 -9 -18 -9 -15 -29 194 -44
342 -45 442 -1 69 -5 130 -9 134 -16 16 -25 -13 -17 -56 4 -25 4 -67 0 -95 -4
-28 -4 -70 0 -95 5 -25 9 -58 10 -73 0 -46 -34 -17 -49 42 -7 28 -17 51 -22
51 -5 0 -9 -44 -9 -98 0 -123 -10 -252 -20 -252 -5 0 -11 71 -15 158 -3 86
-13 219 -20 294 -15 151 -12 187 29 333 93 333 172 614 215 762 51 176 74 309
86 488 15 235 64 574 90 624 29 56 101 90 194 92 31 0 79 7 106 14 51 13 75
17 75 13z m721 -58 c18 -10 19 -18 13 -93 -4 -45 -10 -86 -14 -92 -4 -5 -15
-35 -25 -65 l-18 -55 -26 55 c-35 75 -34 151 3 214 28 49 35 52 67 36z m-348
-230 c17 -29 17 -30 0 -30 -11 0 -25 6 -31 12 -10 10 -14 8 -19 -10 -3 -13
-11 -21 -18 -18 -18 6 -27 -5 -15 -18 6 -9 -3 -12 -34 -12 -38 0 -42 3 -38 20
4 15 1 18 -11 13 -11 -4 -17 -1 -17 8 0 17 -16 20 -24 6 -3 -5 -15 -7 -26 -4
-11 3 -17 9 -14 14 12 20 -8 30 -27 13 -17 -16 -19 -16 -19 -1 0 10 -7 17 -16
17 -10 0 -14 -6 -10 -15 3 -8 1 -15 -4 -15 -6 0 -10 5 -10 10 0 6 -4 10 -10
10 -5 0 -10 -6 -10 -14 0 -7 -11 -16 -25 -18 -14 -3 -25 -1 -25 3 0 5 -4 9
-10 9 -5 0 -10 -9 -10 -21 0 -16 -4 -19 -21 -14 -18 6 -20 4 -14 -14 5 -16 3
-20 -9 -15 -11 4 -16 0 -16 -15 0 -12 -4 -21 -9 -21 -5 0 -8 8 -7 18 0 10 -5
16 -14 15 -26 -4 -17 45 13 75 26 25 35 27 140 33 61 3 164 6 227 7 l116 2 17
-30z m434 -101 c29 -33 30 -38 42 -204 27 -369 50 -557 80 -665 16 -58 45
-163 65 -235 20 -71 43 -152 52 -178 9 -27 14 -51 11 -54 -7 -7 -78 18 -98 34
-8 7 -26 13 -40 13 -54 1 -74 34 -142 240 -69 207 -79 252 -98 476 l-13 142
28 61 c38 84 43 152 21 272 -17 94 -17 101 0 164 l17 66 23 -49 c12 -26 36
-64 52 -83z m-542 1 c3 -5 -1 -10 -10 -10 -9 0 -13 5 -10 10 3 6 8 10 10 10 2
0 7 -4 10 -10z m265 -192 c-1 -20 -28 -49 -128 -132 -55 -46 -101 -94 -112
-116 -35 -69 -23 -192 25 -247 31 -37 41 -25 15 19 -34 58 -36 117 -8 180 29
62 60 88 198 170 52 31 112 70 134 87 61 48 70 28 36 -80 -11 -35 -42 -98 -70
-139 -52 -78 -58 -98 -38 -118 9 -9 9 -15 0 -24 -8 -8 -12 -57 -12 -154 0
-136 -9 -240 -31 -349 -9 -46 -12 -51 -36 -50 -33 0 -52 -27 -34 -49 8 -9 21
-16 31 -16 16 0 17 -5 5 -62 -22 -105 -28 -171 -17 -164 6 3 13 24 17 47 6 33
11 39 27 37 28 -4 47 26 31 50 -6 9 -17 16 -23 14 -9 -2 -10 8 -5 35 4 21 13
71 20 111 7 40 15 75 18 78 2 3 10 -9 17 -26 10 -25 9 -64 -9 -228 -24 -220
-25 -242 -12 -242 9 0 13 28 32 223 7 70 16 127 19 127 26 0 88 -225 76 -275
-3 -11 -23 -38 -45 -60 -22 -22 -40 -43 -41 -47 0 -5 -8 -16 -17 -27 -10 -10
-29 -31 -43 -47 -14 -16 -37 -39 -50 -51 -14 -12 -30 -28 -36 -35 -17 -19 -82
-78 -86 -78 -3 0 13 80 33 178 40 187 44 212 31 212 -5 0 -21 -55 -36 -122
-15 -68 -36 -164 -47 -214 l-20 -92 -52 -33 c-29 -19 -56 -35 -62 -38 -5 -2
-18 -10 -27 -19 -24 -20 -24 -20 18 121 98 329 134 461 129 466 -11 10 -21
-19 -84 -232 -127 -431 -111 -389 -161 -416 -25 -13 -56 -31 -70 -39 -14 -9
-26 -15 -28 -13 -1 1 -16 -6 -32 -16 -19 -11 -33 -14 -39 -8 -4 6 -18 66 -30
135 -53 295 -73 396 -83 405 -14 14 -6 -45 43 -324 44 -249 44 -250 -8 -251
-12 0 -24 -4 -28 -9 -3 -6 -13 -10 -23 -11 -9 0 -47 -2 -85 -4 -37 -2 -78 -1
-92 2 l-25 7 -6 275 c-4 151 -7 299 -7 327 0 37 16 102 53 218 30 90 56 163
58 160 3 -2 6 -24 9 -47 6 -60 41 -200 53 -212 15 -15 13 8 -12 120 -25 119
-27 229 -6 474 8 96 13 192 10 213 -3 25 2 46 13 63 14 21 15 31 6 51 -8 17
-8 28 0 41 9 14 4 29 -25 77 -35 60 -61 144 -48 156 19 17 406 42 720 47 84 2
112 -1 112 -10z m419 -1230 c13 -10 33 -18 45 -18 12 0 27 -5 34 -12 6 -6 25
-11 42 -10 22 0 30 -4 30 -16 -1 -20 -23 -52 -36 -52 -5 0 -27 -18 -48 -40
-22 -22 -43 -37 -46 -33 -7 8 -80 198 -80 208 0 8 34 -7 59 -27z m-239 -343
c-6 -146 -11 -200 -25 -236 l-18 -45 -24 24 c-29 29 -59 26 -86 -9 -17 -24
-18 -30 -5 -55 11 -24 20 -29 51 -29 29 0 37 -4 34 -15 -5 -14 -120 -344 -172
-490 -16 -46 -28 -66 -42 -68 -10 -2 -50 -32 -87 -68 -38 -36 -70 -63 -72 -61
-2 2 12 59 31 128 82 292 96 345 149 559 30 124 58 249 62 279 6 49 13 60 75
126 38 40 69 77 69 83 0 5 7 12 15 16 8 3 15 11 15 17 0 9 33 42 36 36 0 -1
-3 -87 -6 -192z m469 33 c26 -95 32 -142 41 -297 5 -101 8 -187 5 -191 -2 -4
-5 -62 -6 -129 -1 -106 -3 -120 -16 -109 -12 10 -14 40 -11 175 2 99 -1 162
-6 160 -6 -2 -20 -49 -32 -106 -23 -109 -40 -146 -32 -69 3 26 2 50 -3 55 -5
5 -4 40 2 78 6 38 9 85 6 104 -26 170 -33 195 -46 187 -5 -3 0 -54 11 -113 18
-100 18 -113 4 -203 -17 -107 -43 -210 -57 -224 -15 -16 -10 36 11 131 11 48
23 98 25 111 11 48 -13 18 -54 -69 -23 -50 -45 -88 -48 -86 -12 13 11 89 38
123 33 41 31 34 29 170 -1 56 4 120 10 142 11 34 10 47 -9 96 -26 69 -27 95
-3 103 9 4 27 16 39 27 48 45 58 53 64 50 4 -2 21 -54 38 -116z m-695 -115
c-41 -182 -121 -512 -142 -590 -26 -95 -29 -102 -44 -87 -22 22 -50 11 -46
-18 2 -17 10 -23 28 -23 l26 0 -37 -138 c-24 -90 -43 -143 -55 -153 -33 -25
-143 -75 -179 -81 -50 -8 -75 2 -131 54 -42 40 -53 56 -58 93 -14 89 -76 512
-76 516 0 2 -5 4 -11 4 -8 0 -10 -19 -5 -62 8 -75 52 -365 65 -425 4 -24 5
-43 0 -43 -17 0 -99 113 -103 143 -3 18 -13 84 -21 147 -19 137 -23 152 -35
130 -4 -8 0 -67 10 -134 l17 -118 -33 38 c-18 22 -35 55 -38 74 -11 74 -28
292 -22 297 3 3 40 5 81 4 74 -2 179 14 201 31 21 15 43 -3 50 -40 11 -65 65
-273 105 -407 64 -214 76 -249 87 -253 12 -4 7 18 -62 252 -46 157 -116 429
-116 452 0 6 17 19 38 28 20 9 51 25 67 36 35 23 69 39 73 35 3 -3 -26 -146
-52 -257 -8 -34 -10 -60 -5 -64 11 -6 25 28 34 82 4 22 18 86 31 144 27 114
42 138 109 172 22 11 50 30 63 41 17 16 22 17 22 5 0 -8 -23 -129 -50 -269
-80 -409 -105 -578 -80 -553 5 5 14 45 20 89 10 76 21 133 105 574 32 168 37
185 62 204 16 12 44 36 63 54 40 37 50 40 44 16z m260 -273 l18 -95 -57 -230
c-31 -126 -78 -320 -105 -430 -48 -193 -90 -411 -90 -467 0 -29 14 -73 119
-382 61 -178 95 -340 147 -701 15 -106 101 -584 134 -745 21 -102 81 -236 199
-446 70 -122 70 -124 0 -164 -38 -22 -56 -25 -136 -25 -69 0 -96 4 -108 15 -8
9 -38 93 -65 189 -28 95 -61 198 -75 230 -13 31 -31 100 -41 152 -24 135 -65
288 -208 784 -204 703 -226 785 -226 839 1 66 66 388 126 620 16 62 111 346
214 636 34 96 75 215 92 264 35 102 35 102 62 -44z m-1409 -87 c4 -14 2 -23
-4 -23 -6 0 -11 6 -11 14 0 8 -3 23 -6 33 -5 12 -4 15 3 8 6 -5 14 -20 18 -32z
m1489 -573 c10 -321 23 -522 46 -705 33 -257 79 -607 105 -790 14 -93 39 -276
56 -405 17 -129 39 -288 48 -352 9 -66 13 -118 8 -118 -5 0 -22 11 -39 25 -23
19 -41 25 -79 25 -42 0 -49 3 -53 23 -11 50 -66 357 -76 422 -6 39 -22 131
-35 205 -13 74 -38 223 -55 330 -35 222 -65 332 -150 561 -65 174 -69 204 -50
342 9 62 202 885 217 927 14 38 50 -274 57 -490z m280 348 c-33 -109 -55 -79
-29 39 l17 77 15 -28 c14 -26 13 -35 -3 -88z m-1429 -302 c15 -22 30 -63 35
-95 15 -96 39 -283 45 -356 9 -104 15 -139 25 -129 7 8 -15 269 -38 442 l-9
64 54 -56 55 -55 24 -138 c34 -197 81 -419 94 -444 21 -39 22 -11 1 73 -24 96
-91 478 -84 478 3 0 18 -11 34 -24 56 -48 132 -44 242 11 27 13 51 23 53 21 1
-2 -6 -58 -16 -123 -28 -168 -53 -466 -47 -551 l5 -71 -46 -54 -47 -53 -7 40
c-4 21 -7 105 -7 186 -1 86 -5 149 -11 153 -12 7 -11 26 -13 -219 l-2 -199
-75 -65 c-41 -35 -103 -88 -137 -118 -34 -30 -65 -54 -70 -54 -4 0 -7 84 -5
187 5 277 -21 640 -83 1152 -6 50 -6 50 30 -3z m709 -125 c-16 -57 -18 -59
-31 -41 -18 26 -45 25 -68 0 -38 -42 23 -96 64 -57 12 10 13 8 7 -8 -9 -23
-106 -454 -106 -467 0 -5 -7 -2 -16 6 -19 20 -23 20 -47 -1 -19 -18 -20 -17
-13 52 17 179 58 432 73 455 19 28 53 59 68 60 6 0 25 16 44 35 19 19 36 33
38 31 2 -2 -4 -31 -13 -65z m-164 -628 c16 4 19 1 16 -16 -3 -12 -8 -39 -11
-60 -3 -21 -14 -46 -24 -56 -10 -10 -21 -25 -23 -32 -13 -36 -19 9 -13 91 6
76 9 89 21 79 8 -6 23 -9 34 -6z m34 -370 c32 -324 76 -715 108 -978 39 -327
39 -297 2 -308 -24 -7 -55 -2 -139 22 -59 17 -123 31 -142 31 -32 0 -34 2 -29
28 20 99 26 290 17 505 -6 128 -13 330 -17 449 l-6 218 28 28 c53 53 139 154
142 168 10 41 19 -4 36 -163z m39 -25 c93 -332 161 -574 177 -623 43 -139 112
-379 145 -505 l34 -134 -21 -23 c-47 -50 -81 -37 -124 49 -25 50 -53 72 -78
62 -19 -7 -18 -14 -61 391 -42 396 -83 758 -91 803 -8 49 3 38 19 -20z m-254
-500 c10 -355 10 -492 1 -588 -6 -69 -14 -135 -17 -147 -8 -34 34 -69 100 -84
62 -13 63 -25 4 -56 -38 -19 -81 -11 -131 27 -22 17 -44 30 -49 30 -5 0 -46
-16 -90 -36 -69 -32 -85 -35 -116 -28 -41 11 -41 8 -8 119 14 44 27 98 31 120
36 251 50 359 66 524 11 107 20 200 20 208 0 11 6 10 31 -2 28 -15 33 -15 55
0 21 13 25 23 22 53 -2 30 -8 38 -31 46 -20 8 -34 7 -49 -3 -21 -13 -21 -12
-15 40 4 30 7 66 7 80 0 16 13 40 32 60 35 36 109 99 119 99 3 0 11 -208 18
-462z m-197 270 c-28 -362 -85 -831 -120 -988 -8 -33 -10 -35 -48 -32 -44 3
-103 18 -122 30 -10 7 -6 27 17 93 62 174 102 373 131 654 l19 190 38 32 c21
18 43 33 49 33 7 0 14 7 18 15 11 30 21 14 18 -27z m320 -1019 c10 -5 18 -21
18 -34 0 -22 -3 -24 -32 -18 -39 7 -84 28 -94 44 -17 28 60 34 108 8z m-162
-140 c40 -28 51 -30 98 -26 28 3 52 4 52 1 0 -18 -77 -152 -107 -185 -20 -22
-46 -61 -58 -88 -43 -92 -126 -161 -194 -161 -25 0 -116 32 -130 45 -2 3 7 22
21 42 14 21 62 110 108 198 116 220 128 230 210 174z m175 -68 c-7 -31 -103
-176 -111 -168 -3 3 15 33 39 68 24 35 50 81 57 102 14 44 25 43 15 -2z m35
-113 c0 -16 -83 -68 -110 -68 -5 0 11 29 37 65 46 64 47 65 60 43 7 -13 12
-31 13 -40z m-40 -72 c0 -2 -29 -23 -64 -46 -89 -57 -152 -128 -192 -215 -19
-40 -34 -79 -34 -85 0 -16 -35 -27 -187 -56 -109 -21 -153 -25 -212 -20 -41 3
-77 8 -80 11 -6 6 122 138 190 195 l46 39 49 -25 c67 -35 154 -31 212 9 45 32
93 95 113 150 14 41 18 42 64 26 25 -9 37 -9 61 4 32 18 34 19 34 13z m-15
-160 c-11 -74 -24 -138 -28 -142 -4 -4 -7 47 -7 114 0 118 0 121 26 141 15 12
27 21 28 21 1 0 -7 -60 -19 -134z m1055 -207 c11 -100 7 -174 -10 -184 -36
-22 -366 222 -338 250 2 2 22 0 44 -6 78 -22 213 11 260 62 18 20 18 20 25 0
5 -11 13 -66 19 -122z"/>
<path d="M4160 7005 c0 -22 4 -34 10 -30 6 3 10 17 10 30 0 13 -4 27 -10 30
-6 4 -10 -8 -10 -30z"/>
<path d="M4090 6873 c0 -14 133 -19 164 -7 35 13 12 19 -74 19 -65 0 -90 -3
-90 -12z"/>
<path d="M4473 5719 c-27 -10 -30 -41 -7 -63 29 -29 64 -12 64 31 0 28 -28 43
-57 32z"/>
<path d="M4385 5480 c-8 -26 6 -43 31 -38 13 2 19 12 19 28 0 34 -40 41 -50
10z"/>
<path d="M4370 5403 c-25 -18 -26 -55 -2 -76 26 -24 59 -21 77 7 33 50 -25
104 -75 69z"/>
<path d="M4403 5234 c-8 -22 10 -49 32 -49 10 0 22 7 28 16 15 24 1 49 -28 49
-15 0 -28 -7 -32 -16z"/>
<path d="M4196 4751 c-33 -36 18 -83 52 -49 18 18 14 46 -7 58 -25 13 -25 13
-45 -9z"/>
<path d="M3850 4685 c0 -86 91 -521 121 -576 19 -37 19 -14 -1 57 -22 74 -71
319 -91 449 -12 82 -29 123 -29 70z"/>
<path d="M4440 4605 c-20 -25 -8 -50 25 -50 24 0 31 5 33 24 6 37 -34 55 -58
26z"/>
<path d="M4440 3875 c-26 -32 13 -81 48 -59 34 22 22 74 -18 74 -10 0 -23 -7
-30 -15z"/>
<path d="M4322 3618 c-25 -25 -6 -68 30 -68 9 0 22 9 28 20 22 40 -26 80 -58
48z"/>
<path d="M4076 3788 c-13 -19 -14 -25 -2 -43 26 -39 76 -26 76 19 0 46 -48 62
-74 24z"/>
<path d="M3975 2884 c-19 -20 -16 -43 8 -58 34 -22 73 27 47 59 -16 19 -35 19
-55 -1z"/>
<path d="M3796 2514 c-7 -19 10 -44 29 -44 7 0 18 7 25 15 10 12 10 18 0 30
-16 20 -46 19 -54 -1z"/>
<path d="M3870 2439 c-15 -27 5 -51 39 -47 19 2 27 10 29 27 6 41 -48 57 -68
20z"/>
<path d="M3722 2308 c-7 -7 -12 -24 -12 -38 0 -53 57 -69 86 -25 15 23 15 27
0 50 -18 27 -54 33 -74 13z"/>
<path d="M4077 1698 c-34 -19 -9 -76 27 -62 19 7 22 60 3 67 -7 3 -21 1 -30
-5z"/>
<path d="M4118 1409 c-39 -22 -12 -84 33 -77 32 5 45 31 31 62 -12 27 -35 32
-64 15z"/>
<path d="M3911 2086 c-21 -25 -4 -58 27 -54 23 2 27 8 27 33 0 23 -5 31 -21
33 -11 2 -26 -4 -33 -12z"/>
<path d="M3836 1598 c-18 -25 -7 -53 24 -63 28 -9 50 11 50 45 0 43 -48 55
-74 18z"/>
<path d="M3881 1216 c-34 -41 21 -94 59 -56 15 15 17 25 11 42 -10 27 -52 36
-70 14z"/>
<path d="M3637 1412 c-34 -37 -15 -82 33 -82 49 0 68 51 32 83 -24 22 -45 21
-65 -1z"/>
</g>
</svg>
