<?xml version="1.0" encoding="UTF-8" standalone="no"?>
<svg
   xmlns:dc="http://purl.org/dc/elements/1.1/"
   xmlns:cc="http://creativecommons.org/ns#"
   xmlns:rdf="http://www.w3.org/1999/02/22-rdf-syntax-ns#"
   xmlns:svg="http://www.w3.org/2000/svg"
   xmlns="http://www.w3.org/2000/svg"
   xmlns:sodipodi="http://sodipodi.sourceforge.net/DTD/sodipodi-0.dtd"
   xmlns:inkscape="http://www.inkscape.org/namespaces/inkscape"
   version="1.0"
   width="1024.000000pt"
   height="1024.000000pt"
   viewBox="0 0 1024.000000 1024.000000"
   preserveAspectRatio="xMidYMid meet"
   id="svg2"
   inkscape:version="0.91 r13725"
   sodipodi:docname="UNADJUSTEDNONRAW_thumb_9c8.svg">
  <defs
     id="defs76" />
  <sodipodi:namedview
     pagecolor="#ffffff"
     bordercolor="#666666"
     borderopacity="1"
     objecttolerance="10"
     gridtolerance="10"
     guidetolerance="10"
     inkscape:pageopacity="0"
     inkscape:pageshadow="2"
     inkscape:window-width="1440"
     inkscape:window-height="817"
     id="namedview74"
     showgrid="false"
     inkscape:zoom="0.46171875"
     inkscape:cx="640"
     inkscape:cy="640"
     inkscape:window-x="0"
     inkscape:window-y="1"
     inkscape:window-maximized="1"
     inkscape:current-layer="svg2" />
  <metadata
     id="metadata4">
Created by potrace 1.14, written by Peter Selinger 2001-2017
<rdf:RDF>
  <cc:Work
     rdf:about="">
    <dc:format>image/svg+xml</dc:format>
    <dc:type
       rdf:resource="http://purl.org/dc/dcmitype/StillImage" />
  </cc:Work>
</rdf:RDF>
</metadata>
  <g
     transform="translate(0.000000,1024.000000) scale(0.100000,-0.100000)"
     fill="#000000"
     stroke="none"
     id="g6">
    <path
       d="M0 8329 l0 -1911 98 94 c149 142 289 227 435 264 36 9 93 36 137 64 186 118 376 180 550 180 44 0 82 10 156 39 147 59 242 75 394 68 69 -4 143 -11 165 -17 54 -13 342 -13 350 0 4 6 -23 51 -60 100 l-66 89 -73 -50 c-40 -27 -99 -58 -132 -69 -73 -26 -208 -44 -231 -32 -19 11 -11 17 63 48 106 43 160 107 239 284 46 104 47 107 50 225 3 134 22 238 65 358 16 45 27 83 26 85 -4 4 -71 -102 -119 -188 -70 -126 -122 -289 -142 -443 -4 -29 -10 -45 -17 -41 -23 14 -49 97 -60 193 -19 167 15 364 92 528 41 90 16 84 -86 -20 -95 -96 -164 -197 -218 -320 -22 -48 -44 -86 -50 -84 -22 7 -39 63 -39 126 0 81 45 223 106 334 126 230 339 462 566 617 l64 44 -86 22 c-145 39 -272 115 -367 221 -48 54 -100 138 -100 163 0 6 30 -14 66 -45 119 -101 235 -147 419 -166 159 -17 369 17 418 66 9 9 16 52 20 122 7 124 33 233 80 342 49 113 100 185 211 297 157 158 257 212 406 221 60 4 103 1 148 -11 35 -9 71 -16 80 -16 16 0 39 28 87 103 l17 27 -1831 0 -1831 0 0 -1911z"
       id="path8"
       style="fill:none" />
    <path
       d="M3692 10188 c-22 -29 -51 -72 -66 -95 -14 -24 -31 -43 -36 -43 -5 0 -29 10 -52 22 -90 48 -274 29 -402 -40 -106 -57 -260 -227 -339 -372 -62 -113 -117 -313 -117 -424 l0 -38 25 16 c22 15 25 15 25 1 0 -9 -6 -30 -14 -49 -12 -28 -26 -38 -112 -73 -55 -23 -123 -46 -152 -52 -74 -15 -229 -14 -346 4 -118 18 -109 17 -101 5 20 -32 195 -95 313 -114 l77 -13 -49 -29 c-27 -16 -92 -61 -145 -100 -288 -213 -519 -515 -590 -773 -23 -84 -23 -84 48 21 64 93 200 226 301 295 92 62 145 90 134 71 -4 -7 -23 -37 -42 -67 -109 -171 -181 -435 -170 -621 l3 -55 43 125 c76 220 149 349 299 529 39 47 76 80 114 100 30 17 94 66 141 110 47 44 97 85 110 90 17 6 49 3 109 -11 70 -17 108 -19 224 -15 149 4 253 27 375 83 52 23 120 78 120 96 0 4 -29 26 -65 49 -124 78 -204 200 -246 374 -28 118 -23 305 11 405 37 107 105 244 143 287 41 44 148 106 175 101 12 -3 3 -11 -28 -27 -88 -45 -151 -127 -210 -273 -94 -236 -77 -477 49 -686 25 -42 51 -77 56 -79 6 -2 10 38 11 105 1 77 7 129 23 187 22 80 94 238 130 285 35 45 34 12 -2 -72 -107 -251 -126 -430 -59 -572 18 -38 32 -80 32 -94 0 -56 -155 -161 -295 -198 -33 -8 -123 -19 -200 -22 -133 -7 -144 -9 -215 -43 -41 -20 -111 -62 -155 -93 -157 -113 -262 -235 -339 -397 -61 -127 -87 -229 -93 -366 -5 -101 -3 -121 20 -195 16 -51 45 -112 76 -158 53 -80 150 -190 168 -190 6 0 -3 37 -20 88 -29 82 -31 96 -32 232 0 168 15 231 92 384 91 181 176 286 269 334 82 42 244 86 244 67 0 -14 -30 -62 -49 -79 -30 -27 -77 -149 -96 -251 -28 -144 -12 -292 47 -457 11 -32 24 -58 27 -58 4 0 12 54 19 120 14 138 34 200 92 276 56 74 103 103 180 112 l63 7 27 103 c52 200 179 404 327 524 143 116 306 209 329 186 2 -3 -18 -17 -46 -32 -69 -37 -203 -138 -273 -205 -65 -62 -139 -158 -185 -241 -35 -62 -84 -188 -80 -202 2 -5 21 15 42 46 47 68 172 189 253 244 119 81 293 154 293 124 0 -5 -39 -28 -87 -51 -114 -55 -214 -126 -305 -214 -89 -86 -118 -149 -118 -251 0 -78 31 -201 67 -269 36 -68 149 -181 246 -246 42 -28 77 -49 77 -46 0 3 -25 35 -55 72 -181 220 -226 503 -114 713 17 32 48 75 71 96 l40 39 -8 -55 c-11 -81 -6 -140 22 -232 54 -182 143 -325 287 -465 85 -83 230 -193 212 -162 -5 8 -26 40 -48 73 -62 92 -134 253 -158 351 -26 109 -29 275 -5 381 16 76 61 203 76 218 23 23 21 -13 -10 -164 -34 -170 -35 -210 -4 -276 40 -85 195 -206 324 -253 72 -25 171 -53 176 -49 2 2 -30 33 -72 68 -76 67 -174 178 -174 199 0 17 7 14 287 -110 314 -140 461 -224 616 -352 l48 -40 -24 64 c-52 137 -160 332 -268 481 -27 37 -49 70 -49 73 0 28 290 -213 450 -375 105 -105 278 -307 343 -399 9 -14 19 -22 23 -19 3 3 -35 85 -85 180 -80 155 -110 231 -82 214 5 -3 84 -125 176 -270 92 -146 183 -284 204 -308 88 -101 144 -207 231 -434 33 -84 68 -170 80 -191 l20 -38 -6 415 c-4 274 -3 412 4 405 16 -16 33 -137 39 -284 3 -75 9 -144 13 -154 5 -15 19 3 66 79 32 55 84 133 115 174 79 106 199 217 199 184 0 -3 -18 -31 -40 -61 -22 -31 -38 -58 -36 -61 13 -13 110 81 186 180 110 143 244 137 375 -17 90 -106 147 -216 200 -388 15 -48 29 -86 31 -84 2 2 49 158 104 347 99 341 129 419 117 313 -3 -29 -2 -53 2 -53 20 0 36 212 35 455 0 206 -4 275 -23 395 -36 237 -75 401 -93 397 -7 -1 -27 55 -49 135 -62 224 -129 359 -254 515 -76 95 -211 211 -296 254 -164 82 -371 77 -547 -16 -37 -19 -103 -66 -147 -105 -74 -65 -105 -83 -105 -61 0 19 68 98 125 144 119 96 268 149 420 150 80 0 120 -7 233 -39 19 -6 21 -4 14 15 -15 42 -96 142 -146 180 -186 144 -486 170 -747 66 -103 -42 -109 -42 -79 -10 52 56 228 107 413 120 68 5 97 11 97 20 0 26 -99 162 -151 208 l-54 47 -941 0 -941 0 -115 -112 c-98 -96 -121 -125 -156 -197 -23 -46 -42 -91 -42 -100 0 -10 -7 -26 -16 -37 -14 -18 -15 -14 -11 42 5 101 43 166 205 354 l44 50 -325 0 -325 0 -40 -52z m668 -563 c53 -19 110 -61 110 -81 0 -13 -6 -12 -33 5 -127 78 -385 60 -576 -39 -44 -23 -96 -57 -118 -75 l-38 -34 65 25 c237 95 464 119 614 66 107 -39 93 -45 -69 -31 -223 20 -385 -11 -595 -114 -126 -62 -181 -112 -198 -179 -7 -26 -12 -56 -12 -67 0 -12 -4 -21 -10 -21 -5 0 -10 20 -10 45 0 35 -3 43 -15 39 -26 -10 -17 7 47 90 134 177 255 276 406 335 67 25 102 34 222 55 44 8 165 -3 210 -19z m-24 -300 c231 -76 508 -254 530 -340 10 -41 -3 -41 -41 -2 -49 51 -64 57 -368 167 -147 54 -271 100 -274 104 -20 19 23 13 175 -28 94 -25 177 -46 184 -46 23 1 -123 78 -237 126 -60 26 -117 51 -125 56 -27 16 50 -2 156 -37z m802 15 c235 -30 461 -138 635 -305 52 -49 76 -83 103 -139 37 -80 40 -97 23 -127 -9 -18 -16 -14 -87 52 -149 137 -334 243 -539 309 -54 17 -100 34 -103 37 -3 3 22 2 55 -2 127 -14 316 -94 499 -209 49 -31 90 -55 92 -53 2 2 -18 29 -44 60 -135 163 -400 300 -662 343 -107 18 -272 14 -377 -9 -35 -8 -63 -12 -63 -11 0 2 14 11 31 20 79 40 267 55 437 34z m822 -1250 c45 -36 100 -116 250 -362 108 -178 137 -217 125 -165 -21 90 -64 321 -60 325 8 9 54 -104 74 -185 47 -184 81 -480 67 -577 -4 -26 -9 -46 -11 -44 -2 2 -13 61 -23 130 -23 149 -27 158 -197 463 -133 239 -164 291 -234 388 -23 31 -39 57 -35 57 3 0 23 -13 44 -30z"
       id="path10"
       style="fill:#003333" />
    <path
       d="M6451 10223 c8 -10 38 -45 68 -78 49 -54 101 -142 101 -172 0 -7 33 -22 73 -34 207 -61 331 -175 401 -370 13 -37 29 -55 84 -95 190 -139 342 -351 416 -579 40 -125 184 -647 196 -713 15 -87 16 -537 1 -652 -15 -117 -55 -280 -81 -334 -11 -23 -35 -59 -53 -82 -36 -44 -41 -62 -133 -463 -24 -106 -55 -224 -69 -262 -27 -75 -49 -252 -43 -354 l3 -60 100 -5 c55 -3 107 -9 116 -15 10 -5 38 -38 63 -71 45 -60 100 -109 259 -230 194 -147 254 -178 469 -239 294 -84 566 -141 948 -200 523 -79 826 -126 848 -131 l22 -4 0 2580 0 2580 -1901 0 c-1809 0 -1901 -1 -1888 -17z"
       id="path12"
       style="fill:none" />
    <path
       d="M2521 8514 c-89 -90 -175 -200 -225 -287 -25 -42 -17 -36 80 62 108 108 216 188 314 232 28 12 50 25 50 28 0 4 -24 15 -52 25 -29 10 -59 21 -66 24 -8 3 -50 -32 -101 -84z"
       id="path14"
       style="fill:#336600" />
    <path
       d="M2753 8095 c-164 -81 -233 -176 -253 -344 -24 -197 27 -387 146 -542 43 -57 159 -169 173 -169 5 0 27 20 50 45 50 54 52 79 12 149 -77 138 -131 331 -131 470 0 123 34 266 90 379 20 39 24 57 15 57 -7 0 -53 -20 -102 -45z"
       id="path16"
       style="fill:#336600" />
    <path
       d="M3678 8115 c-65 -122 -64 -316 2 -470 57 -132 177 -265 337 -372 63 -42 116 -80 119 -84 12 -20 -23 -17 -111 12 -406 130 -619 341 -644 639 l-7 85 -17 -54 c-48 -154 -44 -333 14 -560 34 -137 35 -139 10 -117 -30 28 -101 199 -118 286 l-16 79 -23 -16 c-34 -22 -113 -129 -139 -188 -39 -86 -65 -194 -55 -221 6 -14 40 -62 76 -107 36 -45 61 -83 56 -85 -20 -6 -76 30 -130 85 l-54 54 -46 -38 c-25 -22 -47 -43 -49 -49 -1 -5 29 -31 67 -59 60 -43 67 -52 53 -62 -14 -11 -1 -27 94 -120 61 -59 129 -134 151 -165 58 -80 147 -245 254 -470 l92 -193 -1 -95 c0 -52 -6 -189 -12 -305 -15 -269 -11 -681 7 -712 17 -30 69 -30 212 -3 136 26 156 25 185 -5 44 -43 35 -50 -69 -50 -52 0 -99 -4 -105 -10 -6 -7 30 -52 109 -135 l118 -125 41 39 40 39 81 -31 c45 -18 86 -32 93 -32 6 0 27 11 46 24 29 20 61 28 161 41 185 23 271 42 409 91 121 43 171 53 171 35 0 -5 -26 -40 -57 -77 -221 -259 -355 -382 -483 -443 -68 -32 -85 -36 -177 -39 -57 -3 -103 -7 -103 -9 0 -5 158 -371 215 -498 41 -93 118 -160 210 -184 71 -18 318 -43 383 -38 145 11 231 83 732 612 151 160 354 371 450 471 256 263 347 393 415 593 47 139 58 236 51 445 -5 153 -3 205 10 278 12 64 19 87 27 79 35 -35 79 4 112 100 15 42 50 89 66 89 18 0 238 106 296 142 177 111 243 288 197 528 -53 280 -237 554 -371 555 -63 0 -115 -43 -194 -160 -37 -55 -80 -118 -96 -140 l-28 -40 -5 33 -5 32 -72 -47 c-84 -56 -85 -58 -188 -232 l-79 -134 -6 -223 c-4 -152 -9 -227 -17 -235 -15 -15 -14 -18 -104 256 -87 263 -143 377 -255 528 l-89 119 -3 -45 c-2 -25 -9 -50 -17 -57 -17 -14 -47 24 -109 145 -50 97 -148 233 -263 367 -86 99 -373 384 -351 348 8 -14 37 -58 63 -98 98 -153 174 -348 160 -412 l-7 -30 -96 79 c-175 142 -379 267 -589 360 -164 73 -168 71 -41 -25 65 -49 118 -95 118 -103 0 -22 -206 -8 -295 19 -113 35 -218 96 -300 172 -84 78 -89 75 -59 -30 34 -118 104 -233 246 -403 48 -59 88 -110 88 -113 0 -13 -62 -5 -116 15 -31 12 -95 47 -142 79 -278 186 -467 474 -500 762 l-8 63 -16 -30z m1503 -985 c10 -6 19 -14 19 -19 0 -9 1 -9 -210 -45 -80 -14 -164 -32 -188 -40 -50 -18 -383 -193 -559 -294 -167 -96 -416 -257 -470 -304 -56 -48 -73 -40 -73 34 0 71 21 108 114 195 66 63 118 98 264 181 263 150 360 199 427 217 88 24 498 83 583 84 40 1 82 -4 93 -9z m1936 -51 c50 -24 113 -105 141 -183 72 -192 -2 -406 -175 -517 -98 -61 -79 -19 54 123 74 79 97 134 97 228 0 129 -74 290 -147 321 -25 11 -33 8 -80 -25 -29 -20 -70 -51 -91 -70 l-39 -33 111 -37 c146 -49 152 -56 152 -185 0 -75 -4 -104 -19 -131 -23 -45 -91 -97 -136 -106 -46 -8 -105 3 -105 21 0 15 14 20 82 30 100 13 152 78 152 188 0 63 -2 72 -27 93 -23 19 -197 84 -227 84 -10 0 -90 -113 -90 -127 0 -5 16 -17 36 -28 48 -26 95 -96 102 -151 3 -26 1 -44 -6 -44 -10 0 -42 59 -42 78 0 22 -64 95 -96 108 -19 8 -34 19 -34 25 0 6 17 43 37 83 60 115 228 274 292 276 8 0 34 -9 58 -21z m-1797 -428 c0 -6 -28 -29 -62 -53 l-61 -43 49 -6 49 -5 -95 -46 -95 -47 92 0 c83 -1 118 -10 95 -25 -5 -3 -63 -10 -128 -16 -65 -6 -147 -13 -181 -16 -35 -3 -63 -9 -63 -13 0 -4 34 -18 75 -31 125 -39 90 -52 -65 -25 -47 8 -116 15 -155 15 -70 0 -475 -60 -548 -80 -22 -7 -41 -9 -45 -6 -12 12 57 82 108 109 41 21 66 27 119 27 136 1 375 28 426 48 28 11 147 66 265 121 118 55 216 101 218 101 1 0 2 -4 2 -9z m-390 -72 c-66 -16 -230 -40 -375 -54 -41 -4 -46 -3 -25 6 72 30 300 67 410 67 l65 0 -75 -19z m-550 -124 c-19 -19 -41 -35 -49 -35 -10 0 2 16 29 39 54 47 67 44 20 -4z m2414 -55 c-26 -50 -27 -62 -8 -127 8 -28 -11 -31 -38 -6 -35 31 -13 122 40 163 13 11 26 20 28 20 3 0 -8 -23 -22 -50z m-2902 -73 c60 -41 65 -57 21 -57 -35 0 -90 36 -108 70 -32 62 -17 60 87 -13z m352 -1396 c12 -19 -33 -43 -71 -39 -50 7 -113 -18 -113 -43 0 -20 -28 -25 -63 -11 -16 7 -15 10 10 34 43 42 111 68 175 68 31 0 59 -4 62 -9z"
       id="path18"
       style="fill:#ffcc99" />
    <path
       d="M4625 7034 c-106 -19 -179 -40 -238 -70 -48 -25 -454 -274 -557 -342 -59 -40 -94 -93 -88 -136 3 -24 11 -20 155 83 205 147 402 266 623 379 166 84 203 104 189 101 -2 0 -40 -7 -84 -15z"
       id="path20"
       style="fill:#003366" />
    <path
       d="M3155 7811 c-123 -56 -204 -206 -205 -374 0 -41 14 -26 62 66 33 64 63 103 136 175 83 83 93 97 90 124 -2 17 -7 33 -13 34 -5 2 -37 -10 -70 -25z"
       id="path22"
       style="fill:#336600" />
    <path
       d="M3167 7641 c-93 -101 -177 -265 -177 -344 1 -27 7 -19 46 62 43 88 104 164 182 223 18 14 22 28 22 68 0 27 -4 50 -9 50 -5 0 -34 -27 -64 -59z"
       id="path24"
       style="fill:#336600" />
    <path
       d="M2421 7585 c-18 -71 -25 -165 -16 -231 6 -53 11 -63 54 -104 26 -25 82 -74 124 -109 l78 -63 -57 83 c-90 132 -138 254 -150 381 -9 88 -19 100 -33 43z"
       id="path26"
       style="fill:#336600" />
    <path
       d="M2058 7430 c-19 -41 -56 -106 -82 -144 -25 -38 -44 -71 -42 -73 7 -8 125 57 161 88 41 36 44 63 16 149 l-18 55 -35 -75z"
       id="path28"
       style="fill:#336600" />
    <path
       d="M2457 7163 c10 -30 35 -53 57 -53 17 0 16 4 -14 35 -37 38 -53 45 -43 18z"
       id="path30" />
    <path
       d="M1521 7060 c-40 -11 -161 -63 -269 -115 -107 -52 -201 -95 -208 -95 -29 0 -11 17 72 69 47 29 83 55 80 58 -10 10 -234 -40 -311 -69 -87 -34 -134 -59 -228 -119 -33 -21 -66 -39 -74 -39 -34 0 -224 -84 -297 -131 -87 -55 -198 -157 -252 -230 l-34 -47 0 -1406 0 -1406 28 -7 c15 -4 79 -7 142 -7 97 0 126 5 188 26 40 15 80 35 90 45 9 11 44 28 77 37 105 31 184 95 232 191 35 68 45 115 53 245 4 69 13 153 20 188 32 150 -43 350 -194 517 -42 46 -45 48 -46 25 0 -14 -4 -31 -9 -39 -7 -11 -13 -8 -27 14 -13 21 -18 48 -18 114 -1 72 5 103 33 190 21 64 47 121 69 149 l34 45 -12 63 c-23 122 8 202 125 322 63 64 87 82 108 82 35 0 120 78 173 157 55 83 75 151 85 293 9 136 46 330 62 330 6 0 7 -25 4 -67 -4 -38 -10 -154 -13 -260 -6 -181 -8 -193 -29 -211 -12 -11 -45 -57 -73 -103 -58 -94 -69 -108 -130 -161 -33 -30 -50 -38 -80 -38 -44 0 -57 -12 -119 -105 -64 -97 -76 -155 -51 -249 l12 -45 -41 -40 c-51 -51 -90 -153 -106 -273 l-11 -87 95 -93 c103 -102 147 -168 186 -279 37 -107 41 -208 13 -300 -18 -59 -21 -88 -16 -140 10 -111 43 -190 134 -327 60 -90 70 -91 71 -9 1 20 5 37 11 37 5 0 12 -17 15 -37 17 -105 28 -144 54 -199 29 -60 87 -137 124 -163 19 -14 20 -13 14 16 -3 17 -9 42 -13 57 -10 40 8 31 41 -22 39 -62 102 -130 137 -148 31 -16 121 -36 116 -25 -2 3 -18 35 -36 70 -30 56 -72 191 -72 228 0 32 18 8 34 -46 29 -97 70 -174 116 -214 90 -82 158 -90 423 -51 28 4 37 2 37 -8 0 -21 -66 -54 -134 -68 -66 -13 -119 -8 -219 22 -56 17 -83 19 -145 14 -80 -7 -87 -5 -187 51 -11 6 -50 25 -87 42 -75 35 -127 87 -172 172 -16 30 -63 106 -105 169 -42 63 -96 154 -121 202 l-46 87 -27 -72 c-49 -131 -128 -212 -256 -262 -83 -32 -169 -84 -177 -107 -9 -30 14 -56 96 -105 44 -26 80 -52 80 -56 0 -10 -82 -4 -118 8 -20 7 -25 1 -47 -49 -101 -228 -95 -462 16 -629 35 -53 118 -118 145 -115 11 1 57 -16 104 -39 47 -22 110 -47 140 -54 80 -20 304 -17 409 5 l83 18 32 -31 c35 -34 169 -89 306 -126 134 -35 264 -49 398 -41 181 11 190 10 161 -19 -22 -22 -109 -35 -238 -35 -200 0 -346 36 -543 136 -60 30 -121 54 -137 54 -17 0 -60 -7 -98 -16 -113 -27 -296 -14 -458 30 -71 20 -140 36 -152 36 -27 0 -27 9 -13 -206 18 -264 50 -402 162 -693 214 -559 337 -939 408 -1260 43 -195 11 -125 -114 249 -193 577 -403 1172 -462 1307 l-16 38 -19 -80 c-42 -181 -74 -674 -50 -762 6 -23 29 -65 51 -94 22 -30 40 -57 40 -61 0 -5 -20 -8 -45 -8 l-45 0 0 -172 c0 -98 7 -214 15 -266 16 -109 39 -146 116 -194 69 -42 71 -61 16 -158 l-46 -80 688 0 688 0 94 63 c79 53 173 100 260 130 9 3 20 18 23 34 19 78 157 224 328 346 203 145 489 285 488 240 0 -5 -51 -35 -112 -68 -204 -110 -367 -228 -531 -385 -82 -78 -111 -120 -122 -183 -4 -21 -10 -36 -14 -35 -62 33 -56 33 -123 -10 -35 -23 -92 -62 -127 -87 l-65 -45 966 0 965 0 128 152 c70 84 163 207 207 272 185 276 327 650 359 947 6 57 16 108 20 114 15 15 10 -186 -6 -281 -36 -206 -146 -502 -262 -708 -85 -150 -177 -277 -329 -453 l-37 -43 520 0 520 0 28 39 c15 22 78 88 141 146 102 94 134 114 134 85 0 -4 -52 -66 -116 -137 l-116 -128 272 -3 c150 -1 275 -1 276 1 6 6 -64 352 -91 454 -58 211 -125 384 -239 611 -102 203 -201 372 -237 402 -30 25 -31 27 -24 96 6 58 3 86 -19 169 -32 124 -133 330 -214 437 -54 73 -218 263 -351 408 l-59 65 -28 -23 c-34 -27 -99 -59 -134 -66 -15 -3 -42 -28 -67 -60 -64 -83 -149 -135 -266 -160 -15 -4 -44 -21 -65 -40 -51 -45 -89 -56 -199 -56 -83 0 -101 -3 -158 -30 -114 -54 -176 -62 -395 -57 -250 6 -396 35 -601 122 -87 37 -229 121 -229 136 0 15 17 11 78 -20 289 -146 606 -210 897 -181 168 16 285 57 285 99 0 10 8 29 19 42 l18 23 27 -47 c25 -41 32 -47 62 -47 35 0 121 25 141 42 10 8 7 14 -10 28 -22 18 -22 18 28 25 98 13 151 26 202 49 56 27 138 103 165 154 12 22 24 32 41 32 43 0 88 22 98 47 12 31 -5 68 -66 145 -85 106 -172 147 -368 172 -70 8 -138 21 -150 27 -97 50 -137 122 -137 247 0 45 -2 82 -5 82 -2 0 -38 -13 -78 -29 -48 -19 -89 -29 -118 -28 -31 1 -60 -6 -94 -24 -324 -170 -412 -204 -555 -216 -57 -5 -75 -2 -114 16 -25 13 -55 36 -67 52 -24 34 -18 51 9 26 30 -27 89 -47 139 -47 104 0 304 68 493 167 75 39 126 59 179 68 100 19 172 56 246 129 100 99 181 232 225 369 17 53 25 65 35 57 15 -13 18 -2 36 119 15 109 6 291 -21 400 -28 115 -68 184 -154 270 l-74 73 -63 2 c-71 2 -109 21 -128 63 -17 37 -30 152 -31 265 0 151 8 143 -230 227 -123 44 -149 50 -171 41 -23 -10 -33 -7 -75 19 -57 37 -89 38 -169 10 -70 -25 -108 -20 -181 22 -35 20 -66 29 -95 29 l-44 1 24 19 c32 27 65 25 146 -10 80 -34 105 -36 165 -15 61 21 115 19 169 -9 26 -13 73 -26 104 -30 32 -4 96 -18 142 -31 51 -14 87 -19 91 -13 14 23 -9 59 -62 94 -69 46 -60 68 15 35 27 -11 58 -21 69 -21 23 0 57 35 71 74 7 17 17 26 25 23 10 -4 15 16 19 91 12 176 8 275 -12 333 -34 100 -258 532 -322 622 -107 150 -243 276 -398 367 -50 29 -185 88 -239 105 -22 6 -23 5 -12 -14 25 -48 -20 -54 -106 -14 -58 27 -64 28 -314 35 -140 3 -273 11 -295 17 -66 17 -231 12 -314 -9z m869 -1192 c155 -40 259 -148 259 -268 l0 -35 -22 37 c-26 45 -37 48 -37 10 0 -110 -89 -227 -195 -258 -110 -31 -241 -7 -313 60 -62 55 -83 166 -48 249 20 45 12 46 -41 8 -90 -65 -114 -132 -72 -200 11 -18 18 -36 15 -38 -13 -13 -59 11 -77 40 -23 37 -21 114 5 164 25 50 98 121 160 158 33 19 53 35 45 35 -28 0 -135 -58 -181 -99 -25 -22 -49 -41 -52 -41 -30 0 42 83 109 125 130 83 270 100 445 53z m385 -152 c91 -59 134 -77 199 -85 l61 -7 -32 -17 c-57 -31 -100 -23 -198 36 -86 53 -137 107 -100 107 9 0 40 -16 70 -34z m-1845 -212 c-23 -58 -39 -108 -37 -111 3 -2 20 22 38 53 18 32 34 53 36 48 3 -10 -219 -590 -231 -601 -11 -11 -19 6 -18 35 1 43 77 347 107 432 47 128 134 288 143 261 2 -6 -15 -59 -38 -117z m2200 -386 c89 -45 114 -53 165 -54 33 -1 70 -2 82 -3 30 -1 80 -46 105 -95 18 -32 22 -58 22 -121 -1 -130 -58 -246 -150 -305 -58 -37 -111 -45 -177 -29 -29 7 -59 12 -67 10 -15 -2 -69 -60 -70 -73 -1 -22 200 -96 318 -119 37 -7 62 -17 62 -24 0 -45 -168 -23 -285 37 -33 17 -76 39 -95 49 -33 17 -40 17 -125 3 -111 -20 -234 -14 -326 15 -59 19 -121 63 -107 76 3 3 43 -5 89 -18 114 -33 202 -41 296 -27 86 13 117 26 151 63 l23 24 -42 17 c-128 51 -227 162 -249 280 -25 134 23 244 139 318 69 43 113 39 241 -24z m-570 -2057 c0 -15 -73 -39 -153 -50 -77 -11 -167 -5 -167 10 0 9 60 27 130 39 64 11 190 12 190 1z m96 -18 c-13 -13 -201 -121 -205 -118 -6 6 24 43 54 67 39 31 178 77 151 51z m-1296 -1700 c53 -83 106 -148 180 -223 134 -135 201 -181 272 -188 43 -4 61 -12 92 -40 41 -36 139 -85 241 -120 124 -42 242 -38 349 12 28 13 128 81 221 151 187 140 230 165 290 165 51 0 68 -11 68 -44 0 -35 -7 -40 -31 -27 -52 28 -83 15 -217 -87 -70 -53 -153 -116 -184 -139 -31 -24 -92 -57 -136 -74 -71 -29 -91 -32 -180 -32 -127 0 -223 29 -356 110 -71 42 -111 59 -163 69 -86 17 -146 55 -263 167 -106 102 -171 187 -228 301 -43 85 -54 117 -37 116 4 -1 41 -53 82 -117z"
       id="path32"
       style="fill:#ccccff" />
    <path
       d="M2237 5759 c-37 -4 -82 -16 -100 -26 -60 -35 -98 -138 -76 -202 13 -36 3 -38 149 23 87 36 104 47 101 62 -7 35 -6 109 2 132 5 12 5 21 0 21 -4 -1 -38 -5 -76 -10z"
       id="path34"
       style="fill:#0000cc" />
    <path
       d="M2385 5758 c-31 -18 -44 -40 -45 -76 0 -71 99 -111 148 -59 31 32 27 62 -10 101 -38 40 -65 50 -93 34z"
       id="path36"
       style="fill:#0000cc" />
    <path
       d="M2263 5536 c-60 -15 -145 -56 -150 -73 -2 -6 17 -24 42 -38 56 -33 152 -44 220 -25 50 14 123 74 127 105 6 40 -128 58 -239 31z"
       id="path38"
       style="fill:#0000cc" />
    <path
       d="M2924 5116 c-16 -7 -46 -32 -66 -55 -119 -139 -55 -359 127 -441 86 -39 196 -63 261 -58 119 10 207 138 207 303 0 65 -16 107 -52 139 -21 19 -37 21 -131 14 -37 -2 -55 3 -103 32 -139 85 -177 95 -243 66z m187 -72 c23 -21 25 -71 2 -96 -28 -31 -128 -15 -162 26 -51 62 98 126 160 70z m139 -143 c0 -16 -38 -23 -60 -11 -29 16 -25 20 20 20 22 0 40 -4 40 -9z"
       id="path40"
       style="fill:#ffcccc" />
    <path
       d="M2999 5021 c-24 -20 -24 -20 -4 -35 11 -8 35 -16 53 -16 43 0 54 26 23 52 -29 23 -43 23 -72 -1z"
       id="path42"
       style="fill:#ff9999" />
    <path
       d="M7147 6106 c-114 -62 -210 -116 -214 -120 -9 -9 88 -108 152 -155 56 -42 176 -114 181 -108 2 1 -4 29 -12 61 -8 32 -14 62 -12 66 2 5 36 -17 76 -49 76 -61 169 -117 179 -108 3 3 -17 43 -45 89 -98 163 -96 157 -93 306 1 72 1 132 -1 132 -2 0 -96 -51 -211 -114z"
       id="path44"
       style="fill:#003300" />
    <path
       d="M6879 5891 c-15 -20 -42 -45 -62 -54 -20 -10 -39 -23 -44 -30 -4 -6 -10 -131 -14 -277 -9 -332 -29 -433 -125 -626 -65 -130 -134 -217 -377 -473 -296 -312 -577 -615 -577 -621 0 -3 46 -12 103 -19 142 -17 326 -56 438 -92 111 -35 282 -116 274 -129 -3 -5 -51 7 -107 26 -56 18 -104 32 -106 29 -9 -8 51 -86 97 -127 26 -22 96 -64 156 -93 179 -86 197 -113 45 -70 -50 15 -94 24 -97 21 -3 -3 61 -155 142 -338 81 -183 229 -515 327 -738 98 -223 193 -430 210 -460 17 -30 70 -109 117 -175 48 -66 159 -223 246 -350 189 -275 254 -362 358 -477 198 -222 592 -500 730 -515 42 -5 49 -3 72 23 36 42 434 682 441 710 7 27 -98 305 -128 340 -13 14 -45 25 -111 38 -51 9 -98 21 -105 25 -9 5 -13 106 -16 392 -3 211 -8 408 -12 437 l-7 52 -225 0 -226 0 -134 -46 c-73 -25 -136 -44 -139 -40 -22 21 91 94 199 127 54 17 82 18 289 12 l229 -6 0 33 c0 54 -68 569 -100 755 -132 769 -424 1516 -867 2218 -94 149 -153 209 -225 232 -29 10 -84 35 -122 56 -38 22 -71 37 -73 35 -3 -3 2 -19 11 -37 20 -41 14 -49 -29 -39 -78 17 -254 137 -356 242 -37 37 -68 68 -70 68 -2 -1 -16 -18 -30 -39z m-280 -1771 c-15 -283 -29 -517 -30 -520 -7 -19 -17 119 -18 240 -2 284 45 830 69 803 4 -4 -6 -240 -21 -523z m1420 259 c58 -133 66 -723 16 -1115 -19 -152 -46 -306 -52 -300 -3 3 2 58 11 123 67 495 72 1020 12 1253 -13 50 -20 90 -16 90 4 0 17 -23 29 -51z m-1130 -1169 c102 -77 194 -178 280 -305 77 -115 114 -204 109 -261 l-4 -39 -36 77 c-71 150 -164 277 -346 476 -57 61 -99 112 -93 112 5 0 46 -27 90 -60z m-17 -305 c0 -102 -14 -154 -36 -136 -14 12 -14 42 1 221 l6 75 14 -35 c9 -21 15 -68 15 -125z m295 -496 c116 -41 181 -75 276 -143 67 -48 85 -56 123 -56 50 0 55 -10 19 -45 -33 -34 -62 -31 -115 11 -77 61 -188 126 -299 174 -133 57 -145 65 -137 79 11 17 38 13 133 -20z"
       id="path46"
       style="fill:#ffcc99" />
    <path
       d="M7430 5905 c0 -10 112 -166 116 -162 3 2 -1 27 -7 56 -6 28 -9 57 -6 64 5 13 5 12 91 -143 29 -52 103 -172 164 -267 444 -684 736 -1394 886 -2158 46 -235 98 -639 132 -1030 13 -148 15 -257 11 -492 -4 -231 -3 -304 7 -312 7 -6 49 -13 94 -17 69 -6 84 -10 106 -33 36 -38 103 -169 141 -274 21 -59 41 -98 56 -109 14 -10 101 -34 199 -54 242 -50 245 -51 246 -94 1 -26 25 -73 96 -185 52 -82 111 -180 131 -217 44 -79 217 -454 217 -468 0 -6 29 -10 65 -10 l65 0 0 201 0 201 -114 212 c-370 688 -466 875 -466 914 0 50 -13 72 343 -568 121 -217 223 -402 228 -410 5 -8 9 793 9 1781 l0 1796 -277 108 c-559 217 -708 276 -717 286 -6 5 21 9 73 9 48 0 80 -4 76 -9 -3 -5 5 -13 17 -17 13 -4 194 -73 403 -154 209 -81 390 -151 403 -154 l22 -7 0 415 0 416 -22 5 c-30 7 -386 64 -753 121 -471 72 -588 97 -923 190 -90 26 -165 44 -167 42 -3 -2 28 -21 68 -43 117 -62 206 -123 270 -183 113 -107 331 -397 414 -552 85 -158 745 -1632 853 -1905 60 -151 128 -363 182 -564 33 -122 42 -173 42 -236 -1 -136 -56 -239 -158 -293 l-51 -27 -530 3 c-520 3 -531 3 -549 -17 -17 -19 -17 -20 13 -36 41 -20 40 -36 -1 -28 -64 12 -75 42 -34 90 l24 28 459 -3 c576 -4 626 2 710 90 90 94 87 172 -24 548 -122 416 -242 719 -546 1375 -68 149 -163 358 -210 465 -164 375 -212 467 -350 675 -110 165 -193 270 -275 346 -71 66 -95 81 -291 189 -199 109 -393 244 -553 383 -47 41 -85 67 -100 67 -32 0 -41 8 -73 65 -52 91 -57 95 -152 95 -46 0 -83 -2 -83 -5z m1940 -3225 c145 -423 301 -730 421 -831 56 -48 60 -59 23 -59 -34 0 -132 93 -183 175 -106 167 -190 370 -275 662 -66 229 -58 262 14 53z m-109 -290 c-18 -329 -65 -660 -93 -660 -7 0 -9 25 -4 78 15 175 76 790 82 832 l7 45 10 -40 c7 -27 6 -108 -2 -255z"
       id="path48"
       style="fill:#999999" />
    <path
       d="M3478 5398 c-21 -12 -38 -25 -38 -28 0 -8 72 -31 78 -26 2 2 2 20 0 40 l-3 35 -37 -21z"
       id="path50"
       style="fill:#0000cc" />
    <path
       d="M4696 4525 c-97 -33 -179 -67 -210 -88 -28 -19 -62 -40 -75 -47 -29 -15 -117 -18 -187 -7 l-52 9 -4 -30 c-6 -41 14 -117 38 -143 35 -39 75 -53 154 -53 91 0 151 24 273 113 102 74 165 139 211 215 38 63 44 87 24 85 -7 0 -84 -25 -172 -54z"
       id="path52"
       style="fill:#cc9999" />
    <path
       d="M4448 4531 c-52 -6 -61 -10 -90 -45 -27 -34 -35 -37 -64 -33 -19 3 -60 17 -91 31 -80 35 -81 35 -103 0 l-20 -31 95 -13 c99 -12 143 -9 230 16 51 15 207 73 214 80 6 6 -102 2 -171 -5z"
       id="path54"
       style="fill:#cc9999" />
    <path
       d="M4034 4318 c3 -35 8 -128 12 -208 9 -209 -6 -256 -154 -495 -30 -49 -84 -126 -119 -169 -70 -88 -88 -136 -79 -210 14 -126 124 -216 263 -216 31 0 94 -9 142 -21 156 -38 268 -5 371 110 l58 65 104 1 c92 0 110 3 163 28 68 32 165 125 143 138 -7 4 -65 14 -128 24 -185 27 -279 71 -339 159 -17 24 -77 154 -135 288 -121 284 -159 362 -229 475 -67 108 -81 114 -73 31z"
       id="path56"
       style="fill:#999999" />
    <path
       d="M5598 3733 c-18 -15 -79 -71 -135 -124 -179 -171 -247 -216 -370 -245 -37 -9 -74 -20 -81 -26 -7 -6 -28 -44 -46 -84 -52 -111 -121 -212 -200 -289 -76 -75 -132 -108 -146 -86 -11 19 -74 -40 -99 -92 -43 -91 -47 -81 101 -229 73 -73 178 -189 233 -257 l100 -124 170 -62 c94 -34 185 -70 202 -79 18 -9 34 -16 36 -16 2 0 7 62 11 138 26 511 126 1017 287 1448 27 74 47 139 44 144 -13 20 -73 10 -107 -17z m-300 -486 c-16 -118 -80 -287 -109 -287 -19 0 -8 47 78 330 23 76 27 82 34 57 4 -15 3 -60 -3 -100z"
       id="path58"
       style="fill:#999999" />
    <path
       d="M5745 3726 c-41 -41 -159 -439 -215 -726 -53 -268 -86 -565 -94 -860 l-6 -175 24 75 c14 41 34 108 46 149 35 121 90 156 176 115 19 -9 42 -29 51 -45 21 -35 23 -36 54 -3 20 21 24 35 22 77 -2 29 5 83 14 120 19 85 14 137 -28 259 -51 149 -48 211 29 546 34 150 62 276 62 280 0 4 5 0 10 -10 7 -11 -6 -95 -45 -286 -34 -165 -55 -295 -55 -335 0 -106 37 -247 82 -310 l21 -29 -22 -155 c-19 -128 -20 -157 -9 -170 11 -14 32 -15 163 -8 218 12 275 11 313 -9 17 -9 32 -14 32 -10 0 3 -80 94 -177 201 -232 256 -245 271 -235 277 13 8 309 -286 382 -379 280 -356 434 -734 494 -1215 24 -193 76 -915 76 -1062 0 -35 2 -38 29 -38 l30 0 -5 178 c-17 638 -70 1097 -204 1763 -113 562 -310 1255 -421 1483 -49 100 -114 201 -143 219 -12 9 -106 34 -207 56 -101 23 -192 43 -203 45 -10 3 -28 -5 -41 -18z"
       id="path60"
       style="fill:#999999" />
    <path
       d="M0 1744 l0 -1744 244 0 244 0 48 77 c60 97 61 113 9 131 -78 26 -102 73 -131 263 -17 110 -14 314 6 412 8 40 6 62 -12 125 -49 174 -16 509 86 890 25 92 25 96 16 317 -5 124 -14 233 -19 244 -6 10 -38 46 -71 79 -109 109 -159 258 -146 432 8 114 30 200 71 287 19 39 35 78 35 87 0 9 -10 40 -22 69 l-22 54 -130 -1 c-72 0 -148 5 -168 11 l-38 11 0 -1744z"
       id="path62"
       style="fill:none" />
    <path
       d="M6415 3375 c4 -11 44 -132 90 -270 142 -427 239 -787 325 -1215 111 -547 160 -972 182 -1562 l12 -328 548 0 c350 0 548 4 548 10 0 5 -88 148 -197 317 -596 934 -677 1094 -1265 2509 -117 281 -221 522 -231 535 -15 20 -17 20 -12 4z"
       id="path64"
       style="fill:#999999" />
    <path
       d="M4795 3148 c-40 -15 -70 -18 -153 -15 l-103 4 -16 -39 c-29 -71 -109 -126 -232 -158 l-44 -12 98 -98 98 -99 36 72 c40 79 99 132 180 163 25 9 56 26 69 37 43 39 143 167 130 166 -7 -1 -35 -10 -63 -21z"
       id="path66"
       style="fill:#999999" />
    <path
       d="M5578 2255 c-55 -30 -93 -185 -92 -374 l1 -135 -32 36 c-20 21 -40 59 -50 93 -9 32 -26 66 -38 77 -26 22 -356 172 -363 165 -3 -3 21 -63 54 -134 86 -186 122 -311 122 -424 0 -42 25 -93 139 -279 218 -356 388 -818 432 -1177 l13 -103 548 0 548 0 0 25 c0 55 -51 800 -66 955 -34 363 -116 656 -274 970 -56 112 -104 171 -183 223 l-52 34 -195 -9 c-140 -6 -207 -5 -237 3 -37 10 -45 9 -71 -10 -41 -29 -57 -27 -83 12 -28 40 -59 67 -79 66 -8 0 -27 -6 -42 -14z"
       id="path68"
       style="fill:#999999" />
    <path
       d="M7230 1662 c0 -24 208 -425 339 -655 131 -229 276 -463 445 -720 108 -163 154 -207 243 -233 64 -19 133 -8 198 31 41 24 152 131 144 139 -2 2 -35 20 -74 39 -209 106 -417 259 -611 452 -168 167 -213 226 -414 540 -238 374 -270 421 -270 407z"
       id="path70"
       style="fill:#999999" />
    <path
       d="M9182 969 c-27 -10 -69 -69 -457 -641 -84 -124 -200 -256 -270 -306 l-30 -22 264 3 264 2 211 417 c116 230 215 418 219 418 20 0 -14 -80 -188 -447 l-183 -388 300 -3 c166 -1 303 0 305 2 2 2 -1 39 -7 83 -16 119 -24 337 -15 438 8 86 9 88 16 45 7 -38 20 -164 56 -513 l6 -57 188 0 c104 0 189 2 189 5 0 2 -23 57 -51 122 -138 319 -363 703 -436 746 -66 38 -346 109 -381 96z"
       id="path72"
       style="fill:#999999" />
  </g>
</svg>
