<?xml version="1.0" standalone="no"?>
<!DOCTYPE svg PUBLIC "-//W3C//DTD SVG 20010904//EN"
 "http://www.w3.org/TR/2001/REC-SVG-20010904/DTD/svg10.dtd">
<svg version="1.0" xmlns="http://www.w3.org/2000/svg"
 width="850.000000pt" height="850.000000pt" viewBox="0 0 850.000000 850.000000"
 preserveAspectRatio="xMidYMid meet">
<metadata>
Created by potrace 1.14, written by Peter Selinger 2001-2017
</metadata>
<g transform="translate(0.000000,850.000000) scale(0.100000,-0.100000)"
fill="#000000" stroke="none">
<path d="M6225 6674 c-192 -31 -364 -133 -421 -250 -23 -47 -26 -63 -22 -117
12 -138 112 -292 206 -317 125 -33 302 120 302 263 0 36 15 27 36 -21 56 -127
-22 -290 -176 -367 -84 -42 -148 -55 -268 -55 l-97 0 -53 69 c-107 140 -341
344 -497 434 -203 116 -351 157 -592 165 -359 11 -646 -54 -763 -171 -104
-104 -154 -230 -155 -387 0 -116 19 -176 73 -233 98 -104 263 -113 370 -21 65
55 86 103 86 199 1 74 -1 84 -32 130 -19 28 -50 61 -69 74 -53 34 -32 45 65
33 162 -20 288 -118 332 -258 27 -88 25 -150 -5 -241 -57 -169 -173 -275 -373
-342 l-92 -31 -83 20 c-45 11 -103 20 -128 20 l-46 0 -6 68 c-22 234 -288 441
-672 523 -99 22 -379 16 -505 -10 -146 -31 -284 -73 -391 -120 -50 -23 -95
-41 -99 -41 -12 0 -30 75 -30 126 0 82 17 122 79 185 56 58 104 81 81 40 -30
-58 10 -132 83 -152 70 -19 139 15 187 93 27 44 27 146 1 204 -66 146 -273
218 -528 183 -453 -60 -839 -370 -954 -764 -19 -65 -23 -101 -22 -190 1 -60 3
-121 5 -134 3 -22 -2 -24 -107 -46 -173 -36 -275 -77 -410 -164 -224 -146
-358 -403 -342 -657 10 -143 58 -233 150 -279 66 -32 118 -32 185 1 108 54
143 181 76 277 -17 23 -48 52 -69 64 l-40 23 55 0 c103 0 197 -65 243 -169 41
-93 14 -224 -66 -322 -169 -203 -226 -298 -268 -437 -17 -60 -21 -91 -17 -180
3 -96 7 -111 31 -150 42 -64 77 -82 167 -82 86 0 145 22 198 73 50 48 44 119
-19 198 -16 20 -25 40 -20 43 17 11 58 -12 81 -44 36 -51 36 -92 -3 -218 -28
-93 -44 -127 -88 -188 -132 -181 -163 -318 -108 -482 32 -95 99 -162 162 -162
35 0 50 21 37 54 -29 77 7 197 76 255 46 37 111 50 269 52 129 2 130 2 181
-29 110 -68 134 -74 278 -72 124 2 135 1 217 -29 58 -21 114 -33 174 -37 l88
-7 60 -54 c72 -64 165 -118 250 -145 47 -15 82 -19 145 -16 l82 4 63 -53 c104
-88 197 -123 333 -123 70 0 84 -3 100 -21 27 -30 100 -65 185 -89 79 -21 270
-44 298 -35 11 3 36 -8 66 -31 26 -20 75 -46 109 -57 71 -23 250 -34 313 -19
34 8 45 7 55 -5 24 -30 95 -71 148 -87 63 -19 253 -22 315 -5 22 6 66 22 98
36 54 24 58 25 76 9 65 -59 235 -73 422 -35 178 36 269 78 394 179 113 91 108
89 261 101 102 7 178 20 293 50 85 21 164 39 177 39 12 0 57 -18 100 -41 86
-46 182 -84 247 -99 295 -66 563 -71 713 -15 209 78 378 242 463 448 31 75 32
84 32 215 0 141 -6 175 -49 259 -24 46 -74 98 -117 121 -20 10 -66 17 -141 20
-98 4 -115 2 -152 -17 -116 -59 -190 -198 -162 -303 17 -59 61 -98 114 -98 51
0 104 31 119 70 13 35 22 37 38 9 16 -30 3 -81 -29 -112 -67 -64 -216 -94
-314 -63 -51 17 -118 55 -118 67 0 3 32 48 70 100 39 51 86 121 104 154 59
106 125 296 147 423 32 188 32 506 0 660 -8 39 -7 44 20 66 71 60 196 68 301
19 70 -33 92 -56 103 -113 l7 -35 -23 20 c-13 11 -34 30 -48 42 -87 78 -246
-7 -267 -142 -12 -84 63 -185 164 -219 93 -32 189 -18 319 47 212 107 316 377
240 623 -66 215 -135 333 -271 469 -136 136 -250 206 -416 260 -76 25 -104 28
-268 33 -162 4 -182 6 -178 21 51 174 80 377 79 561 0 152 -2 174 -30 280
-101 377 -341 633 -673 716 -57 15 -253 26 -305 18z m74 -43 c43 -43 41 -165
-3 -232 -24 -36 -31 -40 -54 -34 -73 19 -125 17 -174 -6 -56 -26 -69 -22 -105
31 -23 33 -31 107 -17 144 6 16 72 61 79 54 2 -2 -1 -20 -7 -40 -24 -80 30
-167 95 -154 57 12 157 112 157 157 0 54 -95 78 -157 39 -74 -45 -44 -159 34
-129 59 22 82 68 45 88 -19 10 -52 -3 -52 -21 0 -6 6 -6 15 2 13 10 18 11 28
1 9 -10 7 -17 -12 -32 -60 -49 -112 11 -56 66 27 28 80 33 110 11 19 -13 19
-15 0 -56 -23 -50 -86 -100 -126 -100 -67 0 -80 113 -21 173 52 52 185 74 221
38z m244 -6 c33 -9 55 -20 50 -24 -4 -4 -31 -24 -59 -44 -28 -20 -63 -53 -77
-74 -49 -71 -58 -183 -21 -255 23 -44 82 -105 124 -129 l38 -22 -19 -41 c-10
-22 -19 -62 -19 -88 l0 -48 -58 0 c-214 0 -391 -147 -442 -369 -25 -106 8
-235 93 -368 84 -131 132 -160 251 -150 185 16 362 131 429 279 24 51 23 189
-2 243 -26 57 -75 101 -156 140 -135 64 -281 73 -350 21 -68 -52 -115 -191
-115 -341 0 -118 64 -169 212 -170 86 0 87 0 123 35 83 80 111 215 63 301 -28
50 -93 84 -145 76 -82 -14 -152 -91 -161 -177 -4 -44 -1 -51 31 -86 30 -33 41
-39 75 -39 30 0 48 7 67 25 79 74 72 180 -11 180 -41 0 -74 -32 -74 -72 0 -15
5 -28 10 -28 6 0 10 9 10 21 0 59 64 83 95 35 14 -22 14 -27 -1 -65 -32 -80
-103 -104 -155 -52 -68 69 -13 199 98 231 36 11 46 10 79 -6 58 -29 78 -64 82
-142 3 -61 1 -72 -30 -122 -18 -30 -49 -65 -68 -78 -31 -21 -44 -23 -105 -20
-127 8 -175 54 -175 168 1 143 48 269 119 317 50 34 142 32 254 -6 166 -56
228 -129 229 -266 0 -143 -89 -259 -254 -334 -79 -36 -182 -56 -246 -46 -39 6
-55 15 -93 55 -54 55 -106 140 -139 226 -30 78 -31 195 -2 276 95 263 404 369
632 217 102 -69 174 -185 200 -324 55 -297 -70 -490 -349 -536 -99 -17 -224 6
-339 62 -66 32 -102 57 -156 113 -86 87 -111 135 -127 244 -18 130 2 223 75
335 48 75 64 91 134 132 174 101 247 276 176 419 -14 28 -34 58 -46 67 -20 16
-20 16 16 63 20 26 36 57 37 69 0 12 1 42 3 67 1 26 -5 64 -16 89 l-18 44 82
-5 c46 -3 109 -13 141 -23z m165 -64 c137 -69 268 -200 357 -357 54 -95 57
-112 9 -55 -36 42 -102 82 -159 95 -38 9 -45 21 -45 72 0 112 -154 191 -267
138 -41 -20 -62 -49 -75 -106 -19 -84 44 -170 136 -185 33 -5 40 -2 75 35 82
86 61 202 -37 202 -74 0 -119 -94 -70 -147 37 -39 89 -25 114 30 l15 32 -5
-39 c-7 -51 -49 -96 -89 -96 -36 0 -91 40 -113 82 -41 79 31 188 123 188 42 0
129 -44 150 -76 36 -55 8 -181 -55 -247 -69 -72 -181 -51 -274 52 -97 108 -86
224 31 334 41 38 95 73 119 77 1 0 29 -13 60 -29z m-793 -115 c5 -38 15 -58
48 -93 35 -38 41 -50 38 -84 -1 -32 4 -45 28 -69 16 -17 39 -30 50 -30 25 0
28 18 4 27 -48 17 -66 60 -43 104 27 49 136 66 183 28 15 -11 32 -37 38 -58
10 -33 8 -45 -9 -84 -25 -56 -101 -139 -147 -161 -41 -20 -107 -21 -143 -2
-58 30 -118 119 -146 215 -30 101 -17 164 47 237 25 28 43 42 44 33 1 -8 5
-36 8 -63z m-1360 -36 c-42 -43 -55 -50 -87 -50 -21 0 -38 2 -38 5 0 2 10 25
22 50 l22 45 65 0 65 0 -49 -50z m210 37 c1 -1 0 -37 -3 -80 -4 -74 -5 -77
-26 -71 -41 13 -47 24 -41 79 5 34 3 55 -4 59 -26 17 -10 28 31 22 23 -4 43
-8 43 -9z m-360 -7 c-3 -5 -10 -10 -16 -10 -5 0 -9 5 -9 10 0 6 7 10 16 10 8
0 12 -4 9 -10z m30 -12 c-9 -29 -44 -68 -62 -68 -14 0 -33 39 -33 66 0 21 17
17 23 -6 7 -28 35 -25 49 5 14 31 32 33 23 3z m-113 -32 c10 -45 10 -44 -29
-52 -27 -5 -32 -2 -51 35 -12 23 -22 43 -22 46 0 5 50 13 75 11 14 -1 21 -11
27 -40z m353 11 c7 -20 -10 -80 -23 -85 -9 -3 -12 7 -10 32 1 19 -1 38 -5 42
-3 3 -27 -6 -52 -20 -25 -15 -45 -23 -45 -18 0 11 61 68 80 74 18 6 49 -8 55
-25z m133 -13 c-1 -76 39 -79 83 -7 13 20 25 31 27 25 2 -7 -9 -33 -25 -60
-71 -115 -134 -81 -107 57 10 47 23 37 22 -15z m72 17 c-26 -44 -41 -56 -49
-42 -5 8 -7 20 -5 28 2 7 6 19 8 27 3 9 14 12 30 9 20 -4 24 -9 16 -22z m126
-17 c32 -8 30 -16 -7 -33 -17 -7 -50 -38 -73 -67 -42 -55 -51 -60 -75 -45 -12
8 -8 15 17 36 17 15 44 49 59 76 18 31 33 47 41 44 8 -3 25 -8 38 -11z m-881
-11 c-5 -10 -13 -37 -20 -61 -7 -29 -21 -50 -41 -62 -40 -27 -45 -25 -40 13 3
17 5 48 5 68 1 32 5 37 34 47 52 16 70 15 62 -5z m89 -5 c18 -26 21 -48 6 -48
-5 0 -10 7 -10 15 0 30 -40 16 -62 -22 -29 -48 -35 -26 -9 32 23 51 50 59 75
23z m403 -23 c-4 -8 -14 -15 -23 -15 -16 0 -16 2 1 20 20 22 31 20 22 -5z
m2129 4 c19 -22 19 -22 -3 -10 -31 16 -41 14 -53 -10 -9 -16 -8 -20 2 -18 44
6 50 -12 16 -48 -25 -27 -41 -29 -62 -7 -23 23 -19 61 9 89 30 31 66 32 91 4z
m-4468 -14 c38 -6 42 -9 36 -28 -3 -12 -14 -35 -25 -52 l-18 -30 -45 48 c-54
55 -60 81 -18 73 15 -3 46 -8 70 -11z m1728 -10 c13 -53 -19 -135 -54 -135
-19 0 -72 48 -72 66 0 9 11 11 35 7 44 -7 65 10 65 53 0 40 17 45 26 9z
m-1916 10 c0 -2 -11 -12 -24 -20 -19 -13 -29 -14 -46 -5 -11 6 -18 15 -15 21
6 9 85 13 85 4z m76 -21 c17 -24 16 -26 -7 -50 l-24 -24 -33 20 c-17 11 -32
23 -32 27 0 9 61 53 72 53 4 0 15 -12 24 -26z m2912 1 c17 -22 19 -31 10 -63
-13 -47 -32 -85 -52 -101 -27 -22 -30 11 -6 57 43 82 8 104 -63 42 -26 -23
-51 -40 -57 -38 -13 4 54 87 88 110 37 24 57 22 80 -7z m141 -31 c2 -2 -15
-25 -38 -53 -23 -27 -50 -70 -62 -95 -13 -30 -24 -44 -32 -40 -35 20 -35 25 0
82 30 50 34 63 30 109 l-4 52 51 -26 c28 -14 53 -27 55 -29z m-1034 27 c-3 -6
-11 -11 -17 -11 -6 0 -6 6 2 15 14 17 26 13 15 -4z m-2235 -21 c0 -35 -4 -36
-61 -11 l-43 19 35 10 c60 18 69 15 69 -18z m2008 13 c-3 -19 -48 -32 -48 -14
0 10 28 30 43 31 5 0 7 -8 5 -17z m440 -25 c3 -37 2 -38 -30 -38 -39 0 -58 15
-58 45 0 30 9 36 50 33 33 -3 35 -5 38 -40z m97 32 c3 -5 1 -28 -5 -50 -9 -33
-15 -40 -35 -40 -14 0 -25 3 -26 8 0 4 -2 26 -5 50 l-6 42 35 0 c20 0 39 -4
42 -10z m79 -11 c6 -5 5 -23 -2 -46 -15 -51 -34 -75 -50 -64 -10 6 -12 23 -6
70 6 57 8 61 28 55 11 -3 25 -10 30 -15z m-2494 -53 c87 -58 200 -145 200
-154 0 -9 -81 -52 -98 -52 -7 0 -46 23 -87 50 -79 54 -87 57 -80 38 2 -7 6
-60 9 -118 3 -58 13 -165 22 -238 18 -148 18 -148 -44 -184 l-30 -18 -7 115
c-9 139 -2 595 9 613 4 7 13 9 19 5 6 -4 46 -29 87 -57z m330 49 c31 -16 40
-35 18 -35 -18 1 -76 50 -60 50 7 0 26 -7 42 -15z m1881 -21 c11 -32 13 -30
-28 -39 -29 -6 -34 -4 -43 21 -12 31 -1 44 38 44 15 0 26 -8 33 -26z m367 1
c11 -10 9 -22 -10 -71 -24 -59 -40 -72 -68 -55 -12 8 -12 17 3 64 9 29 17 62
17 71 0 13 5 16 23 11 12 -4 28 -13 35 -20z m-2285 -10 c27 -26 35 -45 18 -45
-12 0 -61 47 -61 60 0 16 13 12 43 -15z m-572 -117 c0 -135 4 -219 14 -316 3
-30 2 -52 -2 -50 -5 2 -55 26 -113 55 -124 60 -161 76 -255 110 -134 49 -125
38 -74 84 71 64 178 138 264 181 74 38 140 66 158 67 4 1 7 -59 8 -131z m141
46 c-2 -21 -5 -40 -6 -42 -2 -1 -29 7 -61 19 -49 18 -56 24 -51 43 3 11 6 31
6 43 l0 21 58 -22 57 -23 -3 -39z m2253 66 c8 -27 -1 -40 -29 -40 -22 0 -54
25 -45 35 6 5 51 23 61 24 4 1 9 -8 13 -19z m572 -11 c23 -8 23 -9 6 -46 -22
-49 -83 -143 -92 -143 -4 0 -17 11 -29 23 l-22 24 29 64 c16 35 31 72 35 82 6
19 14 18 73 -4z m-2542 -9 c17 -19 17 -22 3 -36 -14 -15 -18 -14 -42 1 -31 20
-32 30 -8 44 24 14 26 14 47 -9z m300 -63 c46 -92 22 -204 -54 -254 -103 -69
-240 39 -156 123 30 30 58 26 93 -12 30 -34 28 -52 -10 -91 -30 -31 -31 -33
-10 -33 34 0 72 43 72 81 0 40 -56 99 -94 99 -14 0 -26 3 -26 6 0 3 28 41 62
84 72 90 76 90 123 -3z m2699 32 c-66 -99 -26 -133 76 -64 78 53 95 43 30 -17
-69 -64 -107 -88 -142 -88 -29 0 -68 31 -68 53 0 26 111 167 131 167 4 0 -8
-23 -27 -51z m-2873 10 l29 -31 -32 -40 c-31 -40 -32 -40 -40 -17 -17 44 -11
119 9 119 3 0 18 -14 34 -31z m2669 22 c0 -6 -11 -23 -24 -38 -20 -22 -27 -25
-37 -16 -10 10 -8 18 11 38 24 25 50 33 50 16z m-911 -14 c13 -16 -4 -37 -30
-37 -27 0 -33 20 -13 35 24 18 29 18 43 2z m1209 -3 c23 -16 23 -17 5 -36 -23
-26 -91 -60 -103 -53 -17 10 -11 23 26 65 41 46 42 46 72 24z m-1426 -24 c18
-16 38 -30 45 -30 17 0 16 -15 -2 -30 -12 -10 -20 -8 -41 9 -15 12 -35 21 -45
21 -26 0 -30 14 -13 38 8 12 17 22 19 22 2 0 19 -13 37 -30z m1008 -25 c0 -32
-129 -195 -154 -195 -6 0 -19 13 -28 28 -17 28 -16 30 8 66 14 21 39 64 55 97
l29 59 45 -22 c25 -12 45 -27 45 -33z m-396 -9 c192 -107 302 -308 311 -566 8
-220 -63 -444 -227 -718 -28 -46 -54 -80 -57 -75 -4 4 -52 63 -105 131 -101
126 -185 206 -259 244 l-42 21 52 18 c168 57 309 168 370 292 62 123 67 282
12 389 -47 91 -146 169 -258 202 -111 32 -273 14 -328 -37 -13 -11 -25 -18
-28 -15 -11 11 79 81 140 109 84 40 132 49 251 45 96 -2 104 -5 168 -40z
m2474 15 c109 -57 164 -181 130 -295 -17 -56 -91 -131 -143 -145 -107 -28
-205 45 -205 154 0 91 70 165 164 173 62 5 90 -7 116 -51 49 -80 -2 -187 -88
-187 -39 0 -82 40 -82 77 0 32 51 83 84 83 52 0 75 -60 36 -95 -26 -24 -48 -8
-31 23 16 30 14 34 -10 22 -25 -14 -22 -48 7 -67 19 -12 25 -11 53 12 38 32
39 54 5 94 -57 68 -164 17 -164 -78 0 -20 10 -40 32 -61 29 -29 36 -32 80 -28
116 12 163 146 84 241 -36 44 -136 56 -201 24 -71 -34 -123 -133 -111 -209 6
-36 5 -40 -11 -33 -10 4 -45 18 -78 30 -67 25 -75 41 -55 114 14 53 30 67 87
76 78 11 119 39 155 101 31 56 31 56 70 50 22 -4 56 -15 76 -25z m-4708 0 c5
-11 10 -28 10 -37 0 -15 -3 -14 -24 5 -14 13 -22 29 -19 37 7 20 20 17 33 -5z
m1770 -1 c0 -12 -28 -25 -36 -17 -9 9 6 27 22 27 8 0 14 -5 14 -10z m932 -38
c17 -14 16 -18 -14 -75 -23 -42 -51 -75 -99 -113 -36 -30 -69 -54 -72 -54 -4
0 -12 11 -20 26 -13 24 -10 28 55 96 38 39 78 88 89 110 20 39 26 40 61 10z
m-3072 -7 c33 -12 35 -15 33 -55 -1 -23 -4 -44 -6 -46 -7 -7 -91 26 -99 39 -4
7 -8 29 -8 50 0 42 -4 42 80 12z m1981 -2 c33 -20 39 -38 9 -28 -47 15 -81
-41 -40 -67 25 -16 26 -28 2 -28 -22 0 -57 36 -67 68 -9 30 18 72 46 72 12 0
34 -8 50 -17z m78 -29 c-31 -33 -36 -23 -8 16 13 17 25 26 27 20 2 -6 -6 -22
-19 -36z m1507 4 l46 -42 -67 -13 c-63 -11 -123 -37 -202 -84 l-31 -20 -20 29
-20 28 49 18 c28 10 77 41 112 71 34 30 68 54 75 54 7 1 33 -18 58 -41z m-396
-36 l42 -37 -58 -61 c-61 -63 -146 -129 -202 -158 l-33 -17 -15 37 c-8 20 -14
37 -12 38 105 74 198 167 213 216 9 28 16 26 65 -18z m-1176 10 c9 -15 -12
-35 -29 -28 -14 5 -15 9 -5 21 14 17 26 19 34 7z m215 -26 c21 -14 55 -44 75
-68 l37 -43 -57 -6 c-48 -6 -63 -12 -86 -38 -53 -59 -30 -118 61 -161 28 -13
51 -27 51 -31 0 -30 -140 -99 -200 -99 -36 0 -38 9 -5 34 32 24 71 126 53 137
-7 5 -19 9 -26 9 -25 0 -74 43 -88 77 -26 60 4 130 79 184 49 35 57 36 106 5z
m-1950 -63 c-19 -22 -34 -15 -57 26 -12 21 -22 42 -22 45 0 4 20 -7 45 -25 35
-25 42 -35 34 -46z m1688 -7 c18 -6 39 -34 31 -41 -2 -1 -34 -5 -71 -8 -59 -4
-67 -3 -63 12 2 9 8 36 11 59 l7 44 32 -30 c17 -16 41 -33 53 -36z m-1912 -24
c3 -19 3 -38 -2 -42 -4 -4 -29 -1 -55 7 -48 14 -48 15 -48 57 0 23 3 45 6 49
3 3 25 -4 49 -15 35 -17 45 -28 50 -56z m3617 48 c25 -25 29 -36 24 -61 -16
-82 -75 -144 -192 -202 l-51 -26 -12 27 c-11 24 -10 29 11 45 115 88 133 105
136 129 3 21 -2 26 -27 31 -32 7 -124 -14 -171 -38 -31 -16 -50 -5 -31 19 17
20 110 68 170 87 82 26 108 24 143 -11z m-3442 -45 c8 -15 8 -29 0 -49 -6 -16
-13 -27 -15 -24 -2 2 -11 35 -19 73 -14 69 -14 69 4 45 11 -14 24 -34 30 -45z
m3078 -34 l22 -39 -82 -53 c-89 -57 -279 -143 -290 -131 -3 4 -8 20 -10 36 -3
27 3 33 72 75 41 25 109 78 150 117 75 72 75 72 96 53 11 -10 30 -37 42 -58z
m-3109 -80 c13 -69 29 -138 38 -154 12 -25 13 -31 1 -38 -26 -17 -37 -8 -42
34 -2 23 -10 87 -16 142 -6 55 -13 114 -16 130 -4 20 -3 27 4 20 5 -5 19 -66
31 -134z m5096 69 c9 -39 15 -80 11 -93 -7 -29 -87 -111 -141 -145 -22 -14
-59 -31 -82 -38 l-42 -13 -31 37 c-16 20 -30 40 -30 43 0 4 18 5 40 2 78 -11
180 49 220 128 11 21 23 63 26 93 4 31 8 56 9 56 2 0 11 -32 20 -70z m-5834
40 c19 -11 18 -13 -13 -57 -42 -58 -73 -82 -98 -76 -11 3 -20 7 -20 10 0 12
98 133 108 133 2 0 12 -5 23 -10z m4379 -125 c0 -6 -17 -19 -37 -30 -102 -54
-239 -174 -265 -231 -6 -13 -14 -24 -17 -24 -6 0 -38 85 -48 126 -4 18 8 29
74 67 44 25 95 63 113 83 38 44 70 110 63 133 -2 9 23 -13 56 -49 34 -35 61
-69 61 -75z m-4291 94 c17 -6 31 -14 31 -19 0 -13 -70 -99 -89 -110 -19 -10
-81 4 -81 18 0 10 92 122 100 122 4 0 21 -5 39 -11z m4011 -14 c0 -14 -113
-105 -130 -105 -12 0 -50 50 -50 66 0 17 95 53 143 53 26 1 37 -3 37 -14z
m-3505 -37 c3 -3 3 -23 -1 -46 l-6 -40 -41 18 c-32 14 -44 27 -50 51 -14 53
-5 60 47 40 25 -9 48 -19 51 -23z m1925 27 c7 -8 10 -25 6 -37 -6 -24 -82
-108 -97 -108 -17 0 -9 23 22 57 42 48 37 78 -14 78 -20 0 -37 3 -37 7 0 21
102 24 120 3z m362 -3 c15 -15 0 -32 -27 -32 -28 0 -57 -26 -53 -48 2 -9 21
-26 43 -39 31 -17 36 -23 23 -28 -23 -9 -79 10 -106 36 -31 28 -29 74 6 105
22 21 34 25 66 21 21 -3 43 -10 48 -15z m-2681 -13 c19 -7 36 -13 38 -15 4 -4
-77 -112 -90 -120 -10 -6 -89 16 -89 25 0 11 90 121 99 121 4 0 23 -5 42 -11z
m2253 -17 c6 -11 -21 -52 -35 -52 -10 0 -13 43 -2 53 9 10 31 9 37 -1z m1451
-32 l15 -29 -62 -50 c-73 -58 -266 -159 -320 -168 l-38 -6 0 46 0 45 53 18
c63 21 251 116 292 149 39 31 42 31 60 -5z m-3602 4 c18 -9 33 -18 35 -19 1
-1 -11 -32 -28 -68 l-30 -67 -51 20 c-28 10 -54 21 -57 25 -3 3 6 18 20 33 13
15 35 42 47 60 26 37 23 37 64 16z m2262 -11 c11 -15 10 -22 -6 -45 -11 -15
-25 -50 -32 -78 -6 -27 -14 -50 -17 -50 -3 0 -21 16 -39 36 l-34 35 52 49 c28
27 51 54 51 60 0 15 11 12 25 -7z m325 -8 c0 -28 -24 -34 -55 -12 -24 18 -11
37 26 37 24 0 29 -4 29 -25z m-1435 6 c8 -15 -13 -23 -38 -15 -21 7 -21 7 -2
15 27 10 33 10 40 0z m220 -117 c64 -70 133 -150 154 -178 49 -67 115 -186
103 -186 -5 0 -56 55 -114 123 -57 67 -155 177 -217 245 l-112 122 34 0 c32 0
45 -11 152 -126z m-10 116 c-3 -5 -19 -10 -36 -10 -16 0 -29 5 -29 10 0 6 16
10 36 10 21 0 33 -4 29 -10z m96 -5 c69 -25 140 -76 170 -123 55 -87 107 -223
118 -308 15 -124 3 -144 -26 -43 -39 136 -148 315 -266 437 -28 28 -49 52 -45
52 3 0 25 -7 49 -15z m-322 -54 c73 -55 176 -160 293 -299 69 -81 75 -92 55
-92 -17 0 -65 41 -168 143 -148 148 -266 239 -331 259 -63 19 -44 33 46 37 32
1 50 -8 105 -48z m-1287 -54 c53 -20 135 -52 183 -72 47 -20 126 -51 175 -69
l90 -32 -39 -38 c-47 -46 -31 -49 -250 50 -90 41 -165 73 -168 71 -2 -3 26
-67 63 -143 36 -77 79 -169 94 -205 l27 -65 -19 -38 c-11 -21 -23 -34 -28 -30
-5 5 -36 59 -71 119 -34 61 -70 124 -79 140 -32 56 -136 230 -188 312 -29 46
-52 85 -52 87 0 5 96 -28 262 -87z m265 65 c20 -16 20 -21 10 -77 -6 -33 -11
-61 -12 -63 -3 -4 -115 39 -115 44 0 3 13 31 30 63 31 63 43 67 87 33z m1293
18 c0 -5 -16 -10 -35 -10 -19 0 -35 5 -35 10 0 6 16 10 35 10 19 0 35 -4 35
-10z m215 -11 c16 -16 -39 -9 -60 7 -19 15 -18 16 15 9 19 -4 39 -11 45 -16z
m2489 5 c4 -9 5 -18 4 -18 -61 -32 -198 -162 -198 -188 0 -7 7 -24 16 -36 22
-32 75 -29 189 13 l96 35 15 -36 c15 -35 12 -54 -7 -54 -6 0 -45 -15 -87 -34
-119 -51 -208 -71 -259 -57 -61 17 -103 55 -103 95 0 58 83 150 214 237 94 63
110 69 120 43z m-4570 -63 c-7 -65 -18 -76 -35 -37 -9 20 -7 31 12 65 12 22
24 39 26 37 3 -2 1 -31 -3 -65z m709 48 c23 -12 43 -22 44 -23 1 -1 5 -31 8
-66 3 -36 8 -75 11 -87 2 -13 1 -23 -4 -23 -14 0 -102 142 -102 165 0 13 -3
30 -6 39 -8 21 -1 20 49 -5z m937 11 c0 -5 -9 -10 -20 -10 -11 0 -20 5 -20 10
0 6 9 10 20 10 11 0 20 -4 20 -10z m-257 -10 c43 0 9 -17 -67 -33 -46 -9 -118
-28 -160 -42 -84 -27 -117 -32 -99 -14 18 18 267 99 288 94 11 -3 28 -5 38 -5z
m1350 -35 c-8 -61 15 -70 63 -24 39 38 43 32 12 -22 -39 -69 -118 -84 -118
-22 0 24 36 113 46 113 2 0 1 -20 -3 -45z m2113 -17 c-54 -78 -84 -137 -94
-185 l-9 -38 -23 55 c-13 30 -41 87 -61 127 -44 84 -45 82 69 84 42 1 91 5
107 9 54 14 55 11 11 -52z m-4803 23 c18 -30 23 -128 8 -165 -7 -17 -9 -16
-24 8 -14 21 -17 44 -15 106 2 44 5 80 8 80 3 0 13 -13 23 -29z m1857 14 c10
-12 7 -15 -13 -20 -32 -8 -59 -3 -64 12 -4 10 13 17 53 22 6 0 17 -6 24 -14z
m2203 -27 c20 -51 16 -57 -85 -124 -104 -69 -249 -124 -331 -124 -37 0 -38 1
-34 32 3 30 9 34 83 63 130 51 232 108 302 167 18 15 36 28 41 28 4 0 15 -19
24 -42z m1913 -138 c-19 -355 -91 -601 -220 -755 l-32 -38 -59 19 c-47 14 -93
19 -210 19 -165 0 -212 -10 -299 -65 -26 -17 -49 -30 -51 -30 -3 0 -5 12 -5
28 0 47 -21 106 -51 144 -16 20 -29 39 -29 41 0 2 33 -8 73 -22 96 -33 260
-36 352 -6 80 26 171 89 211 148 57 83 76 148 75 267 0 94 -5 126 -37 238 -5
19 -3 22 22 22 38 0 152 70 205 125 l44 46 8 -38 c5 -21 6 -85 3 -143z m-4328
152 c3 -9 -2 -13 -14 -10 -9 1 -19 9 -22 16 -3 9 2 13 14 10 9 -1 19 -9 22
-16z m422 -7 c0 -28 -15 -34 -24 -9 -10 25 -7 34 9 34 9 0 15 -9 15 -25z m680
12 c0 -8 -9 -22 -20 -32 -17 -16 -20 -16 -20 -2 0 26 11 47 26 47 8 0 14 -6
14 -13z m-594 -75 c-3 -2 -18 -1 -34 3 -34 7 -46 27 -36 59 6 19 9 18 40 -18
19 -22 32 -41 30 -44z m2417 31 c16 -26 30 -58 30 -72 2 -22 -6 -28 -83 -57
-91 -35 -129 -41 -148 -22 -21 21 -13 46 23 83 42 41 134 115 143 115 4 0 20
-22 35 -47z m-3944 -45 c22 -43 37 -78 33 -78 -5 0 -32 7 -60 15 l-51 16 5 42
c8 66 14 89 23 85 5 -2 27 -38 50 -80z m818 67 c20 -8 34 -17 32 -19 -2 -2
-58 -18 -124 -36 -121 -32 -183 -35 -247 -11 -21 8 -19 10 22 21 51 15 248 58
268 59 7 1 29 -6 49 -14z m755 -6 l42 -21 -24 -18 c-24 -18 -24 -18 -47 15
-36 53 -32 55 29 24z m-516 -26 c-7 -7 -26 7 -26 19 0 6 6 6 15 -2 9 -7 13
-15 11 -17z m212 15 c18 -18 15 -25 -14 -32 -18 -5 -32 -2 -46 11 -18 16 -18
18 -1 24 28 11 48 10 61 -3z m382 -37 c0 -10 -67 -50 -74 -44 -10 11 45 62 60
56 8 -3 14 -8 14 -12z m-747 -3 c19 -10 13 -13 -58 -33 -44 -12 -90 -27 -102
-33 -16 -9 -30 -9 -55 0 -68 22 -63 26 87 62 75 18 101 19 128 4z m-1541 -125
c46 -71 95 -145 108 -167 l23 -39 -34 6 c-19 4 -80 12 -136 19 l-103 12 0 71
c0 85 34 225 54 225 2 0 42 -57 88 -127z m93 67 c23 -45 24 -53 14 -107 -6
-32 -12 -59 -13 -61 -2 -1 -15 16 -30 39 -26 38 -27 45 -21 115 4 40 11 71 16
68 5 -3 20 -27 34 -54z m1640 49 c11 -17 -1 -21 -15 -4 -8 9 -8 15 -2 15 6 0
14 -5 17 -11z m214 -20 c-19 -12 -56 -11 -64 1 -10 15 37 29 59 18 15 -8 16
-12 5 -19z m-809 -5 c232 -52 487 -189 539 -291 18 -36 -1 -28 -91 37 -106 76
-249 150 -358 185 -66 20 -114 28 -212 32 -71 3 -128 9 -128 13 0 5 19 18 43
29 46 24 80 23 207 -5z m1030 10 c0 -11 -25 -54 -31 -54 -10 0 -40 56 -34 62
5 5 65 -2 65 -8z m170 -1 c0 -10 -83 -63 -99 -63 -20 0 -12 17 20 44 28 24 79
36 79 19z m1788 -45 l20 -53 -20 -22 c-34 -37 -151 -92 -239 -113 -105 -24
-261 -42 -272 -31 -5 5 -5 25 -2 45 7 33 10 36 40 36 98 0 283 72 385 148 30
23 57 42 61 42 3 0 15 -24 27 -52z m-2511 10 c41 -29 42 -38 1 -38 -18 0 -60
-7 -93 -14 -50 -12 -64 -12 -92 -1 -18 8 -33 18 -33 23 0 11 124 50 159 51 14
1 40 -9 58 -21z m163 3 c16 -30 12 -36 -10 -16 -21 19 -26 35 -10 35 5 0 14
-9 20 -19z m207 -8 c6 -17 -35 -27 -53 -12 -12 10 -12 14 -2 21 17 11 50 6 55
-9z m219 -30 c6 -29 4 -31 -15 -26 -30 8 -35 21 -20 49 15 28 26 21 35 -23z
m174 39 c0 -7 -122 -72 -135 -72 -3 0 -5 5 -5 10 0 6 5 10 10 10 6 0 31 13 58
30 47 29 72 37 72 22z m-1405 -57 c25 -57 -16 -125 -75 -125 -89 0 -138 92
-65 120 40 15 63 12 75 -11 9 -16 8 -25 -6 -40 -13 -14 -21 -16 -28 -9 -8 8
-6 15 7 24 22 17 22 26 -1 26 -11 0 -27 -9 -38 -21 -19 -21 -18 -21 4 -39 19
-15 28 -17 52 -8 52 17 52 89 1 96 -33 5 -14 22 25 22 30 0 37 -5 49 -35z
m1443 25 c-5 -15 -170 -92 -166 -78 4 13 141 88 160 88 5 0 8 -4 6 -10z
m-1363 -24 c-36 -21 -41 -21 -52 -8 -22 27 -15 32 40 32 l52 0 -40 -24z m-246
-9 c-13 -13 -29 -32 -35 -42 -7 -12 -15 -16 -24 -10 -10 6 -4 16 26 42 44 37
69 45 33 10z m1023 6 c10 -9 18 -23 18 -31 0 -12 -6 -10 -25 8 -38 35 -31 58
7 23z m186 5 c19 -19 14 -28 -18 -28 -16 0 -30 2 -30 4 0 2 -3 11 -6 20 -5 12
0 16 18 16 13 0 29 -5 36 -12z m-1495 -77 c83 -40 98 -53 78 -66 -14 -8 -55
13 -148 73 -122 80 -111 78 70 -7z m679 29 c32 -31 38 -44 33 -62 -17 -55 -66
-83 -115 -67 -53 19 -68 77 -26 105 46 30 106 -3 80 -43 -13 -21 -30 -15 -27
10 2 9 -2 17 -7 17 -13 0 -28 -32 -23 -47 8 -22 61 -15 73 8 16 29 -5 77 -36
85 -63 16 -118 -47 -94 -106 15 -37 37 -50 84 -50 51 0 83 18 101 57 14 29 15
39 4 65 -7 17 -22 39 -33 49 -24 23 -14 24 47 3 52 -17 55 -26 31 -82 -20 -49
-69 -99 -111 -113 -64 -21 -147 18 -173 82 -12 27 -11 36 4 63 22 42 62 65
110 66 32 0 45 -7 78 -40z m497 16 l23 -24 -55 -12 c-82 -17 -90 -16 -131 9
-42 27 -41 31 11 41 81 16 128 12 152 -14z m746 4 c0 -15 -193 -102 -200 -90
-7 12 18 29 102 72 77 39 98 43 98 18z m-2257 -69 l26 -44 -28 -23 c-32 -28
-39 -29 -55 -10 -9 10 -10 36 -5 87 8 81 8 80 62 -10z m2002 43 c-15 -17 -30
-9 -30 17 0 17 3 18 21 9 16 -9 18 -14 9 -26z m-1667 -88 l47 -28 -17 -30
c-42 -70 -44 -69 -119 44 -38 57 -71 107 -73 112 -2 5 23 -9 55 -31 33 -22 80
-52 107 -67z m-108 -26 c65 -99 72 -115 63 -136 -10 -22 -28 -24 -28 -3 0 7
-77 175 -112 244 -21 40 5 4 77 -105z m1642 104 c7 -21 -35 -23 -54 -2 -17 19
-17 20 16 16 19 -2 36 -8 38 -14z m458 -27 c31 -55 32 -77 0 -107 l-25 -23 0
49 c-1 27 -3 66 -6 87 -3 20 -3 37 0 37 3 0 17 -20 31 -43z m-1160 23 c-3 -5
-10 -10 -16 -10 -5 0 -9 5 -9 10 0 6 7 10 16 10 8 0 12 -4 9 -10z m540 -10
c14 -16 15 -20 4 -20 -16 0 -39 19 -39 32 0 14 16 9 35 -12z m565 -14 c0 -19
-14 -29 -77 -59 -43 -20 -91 -41 -106 -47 -27 -10 -28 -9 -25 17 2 17 12 32
28 40 83 43 166 79 173 76 4 -2 7 -14 7 -27z m1706 10 c11 -44 0 -70 -43 -102
-82 -63 -351 -129 -492 -122 l-57 3 14 47 c15 53 -5 46 188 67 107 11 235 51
307 96 64 40 75 42 83 11z m-1946 -18 l-1 -33 -13 25 c-14 25 -13 40 5 40 5 0
9 -15 9 -32z m-1428 -11 c65 -50 79 -117 23 -117 -22 0 -25 4 -25 35 0 64 -58
101 -113 74 -17 -8 -16 -5 6 15 37 34 57 33 109 -7z m664 -2 c92 -52 106 -81
67 -142 -34 -52 -139 -68 -184 -27 -26 23 -26 87 1 114 40 40 102 39 133 -2
17 -22 18 -32 10 -51 -6 -13 -21 -27 -32 -30 -28 -7 -64 23 -56 46 10 24 25
21 25 -4 0 -28 44 -22 48 7 4 31 -23 50 -53 36 -33 -15 -43 -57 -20 -82 50
-55 131 22 95 90 -13 24 -64 41 -101 33 -38 -7 -89 -65 -89 -102 0 -65 84
-114 155 -91 43 14 95 67 102 103 7 34 27 30 31 -6 4 -34 -29 -89 -64 -108
-41 -21 -110 -14 -194 19 -71 28 -75 31 -71 58 7 62 85 174 120 174 8 0 42
-16 77 -35z m309 15 c22 -24 23 -23 -42 -44 -51 -17 -52 -17 -83 5 -16 13 -30
26 -30 29 0 8 73 27 111 29 14 0 34 -8 44 -19z m2937 -60 c9 -41 17 -88 18
-103 l0 -28 -33 25 c-39 30 -132 56 -200 56 -27 0 -97 -7 -154 -16 -58 -8
-107 -13 -109 -11 -3 2 -7 28 -11 56 l-6 52 35 -21 c78 -46 169 -36 319 35 40
19 85 34 99 32 22 -2 26 -10 42 -77z m-2622 56 c0 -2 3 -11 6 -20 7 -19 -26
-22 -44 -4 -19 19 -14 28 13 28 14 0 25 -2 25 -4z m-1090 -37 c0 -12 16 -37
35 -56 20 -20 34 -37 33 -39 -2 -1 -28 1 -58 4 -55 7 -55 7 -58 43 -2 24 3 42
13 53 22 22 35 20 35 -5z m950 6 c7 -8 8 -15 2 -15 -5 0 -15 7 -22 15 -7 8 -8
15 -2 15 5 0 15 -7 22 -15z m-1180 -27 c30 -55 -18 -81 -137 -76 l-66 3 45 49
c43 48 44 48 44 21 -1 -15 6 -32 16 -38 24 -16 68 6 68 33 0 17 -5 21 -27 18
-14 -2 -28 -8 -30 -15 -3 -7 3 -9 16 -6 12 3 21 1 21 -6 0 -15 -33 -14 -48 1
-9 9 -8 16 5 30 25 28 73 20 93 -14z m1445 12 c3 -5 1 -10 -4 -10 -6 0 -11 5
-11 10 0 6 2 10 4 10 3 0 8 -4 11 -10z m-1287 -28 c4 -25 -13 -52 -33 -52 -8
0 -14 16 -17 40 -3 39 -2 41 22 38 17 -2 26 -10 28 -26z m906 9 c16 -18 15
-19 -30 -35 -61 -21 -77 -20 -98 3 -18 19 -17 20 30 35 65 20 78 19 98 -3z
m644 -8 c3 -23 -34 -39 -156 -66 -69 -16 -93 -5 -40 17 18 8 65 28 103 45 78
34 89 34 93 4z m-358 8 c0 -19 -22 -23 -38 -7 -15 15 -14 16 11 16 15 0 27 -4
27 -9z m-1849 -58 c17 -32 43 -78 57 -103 l25 -45 -49 43 c-27 23 -68 57 -91
75 -23 18 -42 34 -42 37 -1 4 60 50 65 50 1 0 17 -26 35 -57z m1714 47 c3 -5
1 -10 -4 -10 -6 0 -11 5 -11 10 0 6 2 10 4 10 3 0 8 -4 11 -10z m2215 -81 c0
-30 -6 -62 -12 -71 -7 -9 -51 -28 -98 -43 -69 -22 -111 -28 -221 -32 -137 -6
-275 2 -297 16 -10 6 -10 14 -2 33 11 24 17 25 115 31 170 11 296 40 405 94
59 30 98 44 102 38 4 -5 8 -35 8 -66z m-1973 34 c-3 -10 -5 -4 -5 12 0 17 2
24 5 18 2 -7 2 -21 0 -30z m353 -48 c0 -177 -94 -327 -250 -399 -83 -38 -154
-51 -215 -37 -54 12 -115 44 -115 61 0 17 22 11 47 -12 34 -32 95 -28 149 11
32 22 53 29 87 29 70 -2 130 57 149 146 8 36 15 46 39 55 48 17 79 55 79 99 0
21 -6 47 -14 57 -12 17 -11 23 7 47 11 15 24 25 29 22 4 -3 8 -38 8 -79z
m-450 41 c-1 -21 -1 -21 -15 -2 -19 25 -19 37 0 30 8 -4 15 -16 15 -28z
m-2221 10 c17 -20 10 -91 -9 -91 -15 0 -44 81 -34 96 8 14 30 11 43 -5z m99
-49 c3 -44 1 -47 -20 -47 -35 0 -48 18 -48 66 l0 41 33 -6 c30 -6 32 -10 35
-54z m1865 46 c3 -5 8 -34 11 -66 l7 -58 -48 3 -48 3 1 40 c1 22 2 48 3 57 1
21 63 39 74 21z m107 -58 c0 -59 -2 -65 -21 -65 -43 0 -55 16 -58 74 l-2 56
40 0 41 0 0 -65z m-1883 44 c25 -8 32 -17 35 -45 2 -19 1 -37 -3 -40 -4 -2
-28 -1 -53 2 l-46 7 0 43 c0 49 10 53 67 33z m1143 -9 c0 -23 -12 -25 -43 -8
l-22 12 25 7 c38 11 40 10 40 -11z m410 5 c10 -12 8 -18 -11 -35 -26 -21 -51
-28 -31 -8 7 7 12 22 12 35 0 26 12 30 30 8z m400 -1 c22 -9 40 -21 40 -28 0
-22 -30 -54 -60 -64 -26 -9 -30 -8 -31 6 0 9 -2 33 -3 52 -2 34 1 50 9 50 3 0
23 -7 45 -16z m420 4 c-1 -34 -7 -37 -208 -83 -20 -5 -23 -2 -20 16 3 19 18
26 103 50 117 32 125 33 125 17z m2161 -12 c126 -54 132 -159 13 -212 -75 -33
-151 -44 -306 -44 -130 0 -138 1 -138 19 0 27 4 29 110 43 112 14 183 53 188
101 3 24 -2 30 -44 49 -39 17 -60 20 -113 15 -36 -4 -76 -9 -88 -13 -19 -5
-23 -2 -23 14 0 16 8 23 33 27 143 27 307 27 368 1z m-2855 -55 c-2 -23 -6
-44 -9 -48 -14 -14 -35 8 -41 44 -5 32 -2 41 16 56 28 23 39 7 34 -52z m-476
-11 c211 -84 207 -82 193 -87 -7 -2 -53 7 -102 21 -331 96 -660 118 -861 60
l-25 -8 26 35 c25 32 31 34 100 40 41 4 173 5 294 4 l220 -3 155 -62z m1224 0
c1 -34 -4 -46 -27 -66 -16 -13 -37 -24 -48 -24 -19 0 -19 1 -3 38 9 20 23 57
31 80 14 39 17 42 31 29 8 -8 15 -34 16 -57z m-2276 4 c35 -31 61 -58 59 -60
-7 -7 -140 45 -149 58 -4 7 -8 23 -8 36 0 37 30 26 98 -34z m1455 6 c7 -31 0
-60 -13 -60 -10 0 -23 67 -15 80 11 18 22 10 28 -20z m508 -7 c-10 -17 -10
-16 -11 3 0 23 13 41 18 25 2 -6 -1 -18 -7 -28z m-77 11 c9 -8 21 -24 26 -35
9 -15 8 -18 -7 -12 -26 9 -53 34 -53 50 0 18 15 17 34 -3z m309 -22 c-6 -26
-43 -37 -150 -47 -50 -4 -73 -3 -73 5 0 6 10 14 23 19 20 8 199 48 204 46 1 0
0 -11 -4 -23z m2016 4 c45 -41 -28 -88 -164 -105 -44 -5 -81 -8 -83 -6 -2 2 1
28 8 59 11 54 12 55 53 65 65 15 162 8 186 -13z m-3759 2 c0 -7 -12 -26 -26
-42 l-26 -29 -25 27 c-14 15 -23 29 -22 31 2 1 24 7 49 13 25 5 46 10 48 11 1
1 2 -5 2 -11z m92 6 c4 -3 -34 -42 -84 -86 l-89 -80 -24 22 c-28 27 -80 99
-74 104 2 2 14 6 25 10 17 5 31 -3 61 -35 l39 -41 30 33 c63 69 74 79 92 79
10 0 21 -3 24 -6z m155 -39 c23 -25 44 -45 46 -45 2 0 19 14 37 30 23 21 44
30 67 30 18 0 33 -3 33 -8 0 -4 -35 -31 -77 -60 l-78 -53 -62 65 c-35 35 -63
69 -63 75 0 6 12 11 27 11 18 0 40 -14 70 -45z m708 14 c8 -35 3 -42 -40 -57
-16 -5 -48 -18 -70 -27 l-40 -17 65 66 c35 36 68 66 71 66 4 0 10 -14 14 -31z
m-647 15 c27 -8 28 -16 3 -31 -16 -10 -22 -8 -42 13 -21 22 -21 24 -3 24 10 0
29 -3 42 -6z m-126 -71 c32 -32 58 -61 58 -65 0 -4 -11 -8 -26 -8 -16 0 -37
13 -59 38 -39 42 -27 44 -130 -25 -43 -29 -95 -47 -69 -25 5 5 41 39 81 75 40
37 76 67 80 67 4 0 33 -26 65 -57z m1754 5 c-9 -64 -14 -72 -32 -57 -10 8 -13
22 -9 43 12 56 16 66 32 66 13 0 14 -9 9 -52z m123 36 c4 -4 -28 -107 -39
-125 -4 -6 -18 -5 -38 2 -34 12 -36 17 -26 93 l7 47 46 -7 c25 -4 48 -8 50
-10z m-2804 -159 c0 -91 -1 -165 -2 -165 -20 0 -115 46 -122 58 -7 15 -9 107
-3 230 l2 42 63 0 62 0 0 -165z m168 159 c20 -4 37 -12 37 -20 0 -7 -14 -47
-31 -90 -24 -59 -32 -98 -36 -170 -4 -64 -10 -94 -18 -94 -27 0 -80 47 -86 75
-9 39 -11 269 -3 289 7 17 66 21 137 10z m1129 -45 c25 -45 35 -47 72 -18 23
18 33 20 59 12 l32 -10 -67 -31 c-36 -17 -72 -33 -78 -34 -10 -3 -80 105 -80
124 0 20 43 -10 62 -43z m284 36 c-11 -8 -22 -12 -25 -9 -6 6 19 24 34 24 6
-1 1 -7 -9 -15z m-1731 -12 c-3 -10 -6 -71 -6 -135 0 -105 -1 -118 -17 -118
-40 0 -64 15 -87 54 -29 49 -58 167 -45 180 10 10 104 34 139 35 18 1 22 -3
16 -16z m1395 -54 c29 -56 29 -59 10 -59 -13 0 -26 12 -37 35 -20 42 -28 43
-84 10 -82 -47 -88 -28 -9 29 41 30 78 52 82 50 5 -3 22 -32 38 -65z m953 46
c23 -15 27 -24 27 -65 0 -107 -111 -178 -141 -90 -14 38 -49 40 -77 5 -26 -33
-32 -32 -32 10 0 65 41 132 95 156 29 13 97 5 128 -16z m696 -2 c14 -9 19 -18
13 -22 -6 -3 -23 -31 -38 -61 -15 -30 -28 -57 -30 -59 -2 -2 -14 4 -28 12
l-25 17 20 67 c10 37 19 69 19 71 0 6 45 -10 69 -25z m-2290 -66 c37 -41 33
-61 -10 -55 -33 4 -74 79 -64 116 l7 27 17 -25 c9 -14 31 -42 50 -63z m761 66
c5 -4 -20 -23 -32 -23 -4 0 -12 9 -18 20 -10 19 -9 20 17 14 15 -4 30 -9 33
-11z m640 8 c0 -5 -7 -14 -16 -21 -18 -15 -44 -74 -44 -100 0 -15 -15 -18
-112 -24 -126 -8 -304 -33 -330 -47 -23 -12 -23 -5 3 48 16 33 33 50 68 67
101 51 239 84 354 85 42 1 77 -3 77 -8z m2224 -43 c-4 -29 -10 -59 -13 -66 -5
-8 -42 -13 -121 -15 -78 -2 -133 -9 -172 -22 -54 -17 -61 -17 -170 -1 -115 18
-188 33 -188 41 0 2 8 20 17 40 12 26 21 34 32 29 9 -4 95 -9 191 -11 150 -4
188 -2 265 16 50 11 102 25 115 30 47 19 51 15 44 -41z m711 -86 c26 -23 52
-42 56 -42 5 0 9 -5 9 -10 0 -7 -7 -7 -20 0 -12 6 -59 12 -106 13 l-85 2 6 50
c3 27 8 67 11 87 l6 38 37 -48 c21 -26 60 -67 86 -90z m-4610 99 l65 -30 -43
-103 c-24 -57 -54 -139 -66 -183 -13 -44 -27 -84 -32 -89 -5 -5 -28 7 -55 29
l-47 39 6 86 c9 119 63 280 94 280 7 0 43 -13 78 -29z m2125 11 c0 -21 -42
-44 -100 -53 -75 -12 -90 -8 -90 25 0 19 6 26 28 29 52 8 162 7 162 -1z
m-2795 -29 c10 -51 37 -138 51 -165 13 -26 13 -28 -8 -32 -64 -14 -74 -11
-101 32 -25 38 -44 89 -49 131 -2 19 4 26 42 42 59 24 59 24 65 -8z m3321 -4
c19 -11 34 -23 34 -26 0 -12 -93 -113 -104 -113 -7 0 -21 7 -32 15 -19 14 -18
16 15 80 19 36 39 65 44 65 5 0 25 -9 43 -21z m-2103 -13 c16 -23 16 -24 -31
-29 -26 -3 -49 -4 -51 -2 -4 5 51 54 60 55 4 0 14 -11 22 -24z m637 4 c0 -15
-128 -70 -163 -70 -43 0 -26 13 63 49 81 32 100 36 100 21z m-990 -24 c0 -7 9
-22 21 -35 12 -12 19 -23 18 -25 -2 -1 -26 -11 -54 -22 -27 -10 -54 -21 -59
-23 -12 -5 3 38 31 87 22 39 43 48 43 18z m4229 -103 c-11 -43 -34 -106 -50
-141 l-28 -62 -79 79 c-59 60 -96 88 -147 113 -38 17 -65 33 -59 34 5 2 57 8
116 14 128 13 198 32 235 65 l28 24 3 -24 c2 -13 -7 -59 -19 -102z m-3559 102
c0 -10 -10 -15 -30 -15 -47 0 -35 27 13 29 9 1 17 -6 17 -14z m-1661 -45 c7
-27 26 -69 42 -92 l28 -43 -27 -12 c-60 -27 -79 -11 -108 96 l-18 64 23 18
c35 29 46 23 60 -31z m895 35 c3 -8 -7 -50 -23 -93 -38 -102 -70 -243 -72
-314 -1 -32 -5 -58 -8 -58 -3 0 -16 18 -28 40 l-21 40 19 83 c30 122 102 317
119 317 4 0 10 -7 14 -15z m1974 3 c-2 -6 -21 -25 -41 -41 -30 -25 -41 -28
-71 -23 -29 6 -36 11 -36 31 0 21 6 25 48 30 26 3 54 8 62 9 32 7 42 6 38 -6z
m46 -25 c-9 -21 -18 -43 -20 -49 -7 -17 -59 -52 -87 -59 -47 -12 -37 13 31 79
78 76 100 85 76 29z m296 -28 c225 -113 327 -197 435 -360 111 -166 152 -300
142 -460 -9 -139 -64 -312 -120 -381 -60 -72 -191 -112 -309 -93 -87 14 -91
25 -13 32 112 11 199 63 252 155 23 38 27 59 31 146 9 208 -72 395 -237 548
-82 76 -161 120 -327 182 -65 24 -132 50 -148 56 l-30 11 40 31 c57 46 112
107 137 150 11 21 24 38 29 38 5 0 58 -25 118 -55z m348 14 c19 -17 32 -31 30
-33 -1 -1 -28 -23 -59 -49 l-55 -46 -37 25 -37 25 36 45 c60 73 74 77 122 33z
m-1907 7 c131 -19 247 -54 261 -79 9 -18 8 -19 -13 -13 -157 44 -195 49 -379
50 -243 0 -505 -34 -625 -80 -18 -7 -18 -6 -6 9 15 19 92 57 166 82 128 43
410 57 596 31z m283 -26 c-17 -16 -23 -17 -49 -6 l-30 13 45 15 c49 16 64 7
34 -22z m-2034 -7 c0 -16 13 -56 30 -91 l29 -63 -34 -16 c-33 -16 -36 -15 -56
3 -36 32 -74 121 -60 141 12 17 64 53 77 53 9 0 14 -11 14 -27z m4280 -4 c63
-12 117 -24 119 -25 7 -6 -33 -45 -61 -60 -20 -11 -39 -12 -75 -5 -150 29
-174 35 -179 43 -3 4 4 24 17 44 17 27 26 34 43 30 11 -3 73 -15 136 -27z
m-1660 -7 c0 -10 7 -28 16 -40 20 -28 14 -35 -27 -34 -49 1 -58 32 -21 75 19
22 32 22 32 -1z m4096 -56 c44 -47 82 -99 102 -139 85 -178 125 -480 87 -652
-21 -94 -36 -106 -28 -22 10 115 -28 263 -120 459 -58 124 -124 223 -193 288
-44 42 -53 56 -48 75 10 42 41 65 87 65 39 0 47 -5 113 -74z m158 58 c29 -11
112 -171 137 -264 27 -100 10 -408 -31 -552 -11 -38 -44 -87 -54 -78 -3 3 1
39 8 80 43 247 -45 611 -184 763 -27 30 -50 58 -50 62 0 8 149 -1 174 -11z
m-2041 -10 c107 -24 199 -76 288 -164 41 -41 88 -95 103 -119 l28 -44 -21 -20
c-11 -12 -22 -19 -24 -16 -1 2 -16 30 -31 62 -37 74 -117 147 -215 196 -122
61 -174 75 -276 74 -183 -2 -319 -74 -393 -207 -14 -26 -20 -32 -16 -16 9 35
50 104 86 146 92 104 287 149 471 108z m-2358 -101 c-36 -119 -77 -247 -81
-251 -1 -2 -11 5 -21 15 -11 10 -66 57 -124 105 -57 47 -126 106 -152 131
l-48 44 46 18 46 17 57 -54 c31 -30 70 -63 86 -73 29 -19 29 -19 48 5 11 14
33 51 49 82 28 54 30 57 71 60 24 2 44 0 46 -4 2 -4 -9 -47 -23 -95z m372 91
c2 -7 -17 -19 -43 -28 -71 -24 -83 -20 -44 14 35 30 80 37 87 14z m4208 -25
c85 -32 104 -53 116 -129 16 -93 4 -257 -25 -366 -29 -108 -91 -268 -118 -306
-22 -32 -55 -39 -43 -10 27 63 45 143 50 219 11 163 12 188 3 303 -7 100 -12
123 -43 188 -19 40 -44 86 -55 102 -11 15 -20 30 -20 33 0 8 73 -11 135 -34z
m-5590 -59 c-13 -45 -25 -83 -26 -85 -2 -2 -15 -5 -29 -7 -22 -3 -25 0 -22 26
2 16 11 54 21 85 13 43 22 57 41 62 14 3 28 4 31 3 4 -2 -4 -40 -16 -84z m100
63 c-3 -16 -16 -53 -28 -83 -17 -41 -28 -56 -45 -58 -12 -2 -22 -1 -22 3 0 6
29 131 36 153 2 6 18 12 35 12 29 0 31 -2 24 -27z m85 23 c0 -3 -12 -37 -26
-76 -24 -64 -55 -102 -67 -83 -6 10 32 134 45 151 10 11 48 18 48 8z m86 -13
c-43 -117 -52 -134 -73 -139 -40 -10 -43 4 -17 73 33 86 30 83 66 83 24 0 29
-3 24 -17z m644 6 c0 -15 -48 -95 -65 -109 -12 -10 -26 -3 -75 36 -33 27 -60
52 -60 57 0 4 21 7 48 8 26 0 65 4 87 8 57 12 65 12 65 0z m1364 -26 c20 -21
36 -40 36 -43 0 -3 -27 -22 -59 -43 l-58 -37 -33 30 c-17 16 -30 34 -28 40 2
8 95 87 105 89 1 1 18 -16 37 -36z m1814 10 c92 -37 142 -110 142 -204 0 -40
-9 -70 -45 -141 -25 -50 -45 -96 -45 -103 0 -25 -167 -102 -196 -91 -10 4 -44
66 -44 81 0 1 38 4 84 7 72 4 89 8 119 31 100 76 106 263 11 346 -109 96 -264
5 -264 -155 0 -56 25 -119 55 -138 32 -21 89 -20 121 1 55 36 87 157 55 215
-13 26 -49 48 -77 48 -72 0 -135 -149 -84 -200 26 -26 53 -25 86 4 23 19 28
32 28 72 1 46 -1 49 -26 52 -36 4 -38 -20 -3 -36 20 -9 23 -15 16 -34 -13 -35
-58 -65 -79 -52 -43 27 -15 133 43 164 33 18 54 7 78 -43 18 -35 18 -40 2 -87
-29 -88 -107 -127 -152 -77 -33 36 -43 63 -43 114 0 97 91 185 172 168 63 -14
118 -101 118 -188 0 -46 -30 -115 -64 -147 -23 -21 -39 -25 -99 -28 -45 -2
-81 2 -95 10 -13 7 -45 53 -72 103 l-47 90 27 50 c16 27 38 78 50 113 19 53
27 64 54 72 39 11 126 3 174 -17z m-4158 14 c0 -2 -6 -26 -14 -53 -8 -27 -19
-68 -25 -90 -9 -32 -17 -43 -36 -46 -14 -3 -25 -4 -25 -3 0 1 5 26 10 55 18
95 30 128 48 133 22 6 42 8 42 4z m416 -14 c-2 -10 -12 -44 -20 -75 -15 -53
-19 -58 -45 -58 -15 0 -30 3 -34 6 -4 5 11 58 38 132 2 6 18 12 35 12 25 0 30
-4 26 -17z m-522 -90 c-19 -83 -36 -113 -66 -113 -20 0 -23 17 -9 70 6 19 15
54 21 78 7 29 18 46 33 51 36 14 40 -3 21 -86z m585 88 c12 -8 13 -16 2 -53
-7 -24 -19 -53 -27 -65 -18 -28 -58 -32 -50 -5 37 133 44 143 75 123z m-1985
-42 c7 -20 25 -52 41 -73 15 -20 26 -38 24 -40 -61 -47 -80 -57 -98 -51 -22 7
-81 81 -81 102 0 18 80 105 93 100 5 -1 15 -19 21 -38z m1336 38 c0 -2 -6 -23
-14 -48 -8 -24 -20 -70 -26 -102 -9 -46 -17 -61 -36 -69 -13 -6 -26 -9 -29 -6
-6 6 30 182 41 199 8 14 64 36 64 26z m714 -16 c8 -13 -41 -121 -55 -121 -6 0
-9 8 -6 18 3 9 11 38 18 65 12 44 30 59 43 38z m591 -20 c16 -32 154 -204 167
-209 19 -8 6 -22 -20 -22 -19 0 -40 12 -67 40 -21 22 -43 40 -47 40 -5 0 -20
-27 -34 -59 -22 -49 -33 -64 -67 -80 -23 -11 -43 -19 -45 -17 -4 4 89 336 94
336 2 0 10 -13 19 -29z m-1399 2 c-3 -10 -14 -60 -25 -112 -18 -89 -29 -111
-59 -111 -15 0 -14 10 19 145 11 43 25 83 32 87 22 14 39 9 33 -9z m1679 7
c-11 -18 -86 -51 -108 -48 -14 2 -22 10 -22 23 0 17 7 20 57 20 32 1 61 4 64
8 11 10 16 8 9 -3z m1326 -9 c36 -10 89 -22 117 -26 l52 -7 -27 -46 c-33 -58
-39 -62 -78 -55 -52 10 -185 54 -185 61 0 11 44 92 50 92 3 0 35 -8 71 -19z
m662 4 c77 -20 208 -87 259 -133 47 -42 118 -146 118 -173 0 -20 -54 -54 -129
-80 -30 -11 -55 -19 -57 -19 -1 0 -12 26 -24 58 -46 121 -131 231 -212 274
-35 18 -60 22 -138 22 -90 1 -100 -1 -165 -34 -111 -55 -153 -134 -115 -216
23 -53 54 -77 95 -78 41 -1 44 -9 10 -24 -46 -21 -75 -14 -116 27 -37 36 -39
42 -39 97 0 36 8 75 19 99 24 52 93 117 157 149 89 44 235 58 337 31z m-2813
-29 c0 -46 -16 -86 -34 -86 -24 0 -25 12 -3 68 23 60 37 67 37 18z m123 -46
c45 -44 116 -106 159 -137 43 -31 76 -58 75 -60 -2 -1 -53 21 -113 51 -60 29
-134 61 -164 71 -30 10 -58 20 -62 24 -8 7 12 131 20 131 2 0 41 -36 85 -80z
m-1043 68 c0 -2 -9 -30 -19 -63 -10 -33 -22 -86 -26 -118 -5 -41 -13 -60 -26
-68 -17 -8 -19 -6 -19 18 0 43 28 190 40 213 6 11 20 20 30 20 11 0 20 -1 20
-2z m-782 -58 c-31 -37 -36 -40 -89 -40 -61 0 -82 -14 -94 -62 -8 -32 -59 -55
-81 -37 -23 19 -16 59 15 88 34 32 92 56 182 76 103 22 105 21 67 -25z m691
-30 c-10 -38 -21 -97 -25 -130 -5 -42 -11 -60 -21 -60 -19 0 -9 79 24 183 30
96 46 102 22 7z m5595 -3 c80 -82 117 -140 181 -283 61 -136 95 -254 101 -349
6 -97 -5 -86 -36 34 -38 150 -150 343 -249 432 -30 27 -82 63 -116 81 l-62 32
43 53 c24 30 44 58 44 63 0 24 28 5 94 -63z m-6130 52 l39 -11 -36 -29 c-46
-38 -55 -74 -28 -110 14 -18 17 -30 10 -35 -18 -11 -97 26 -124 57 -29 35 -32
65 -7 95 35 44 75 53 146 33z m3391 -39 c15 -22 26 -41 24 -43 -2 -1 -30 -15
-61 -31 l-58 -28 -20 23 c-45 52 -44 55 17 93 31 19 59 33 63 31 4 -2 19 -22
35 -45z m3399 21 c23 -16 59 -48 79 -70 34 -38 37 -46 37 -102 0 -82 -23 -165
-75 -277 -81 -170 -161 -272 -214 -272 -20 0 -20 2 -7 23 23 35 76 173 108
282 33 113 48 299 30 393 -5 28 -7 52 -5 52 2 0 23 -13 47 -29z m-6577 -60
c46 -26 46 -27 8 -64 -32 -31 -40 -34 -62 -26 -13 5 -53 9 -87 9 -51 0 -66 4
-82 21 -17 19 -17 23 -3 47 8 15 29 37 48 49 l33 22 63 -24 c35 -13 72 -28 82
-34z m2007 30 c45 -21 59 -23 140 -17 50 3 106 9 124 12 17 3 32 2 32 -3 0 -8
-202 -113 -219 -113 -5 0 -39 34 -77 77 -38 42 -64 74 -59 72 6 -3 32 -15 59
-28z m2087 -7 c26 -13 66 -45 89 -71 41 -46 120 -195 120 -226 0 -13 -39 -27
-75 -27 -7 0 -17 29 -24 70 -15 80 -49 135 -108 171 -33 21 -50 24 -128 24
-99 -1 -151 -14 -195 -51 -34 -29 -48 -83 -31 -120 12 -28 4 -32 -16 -6 -48
59 -47 122 4 182 71 85 249 111 364 54z m-4929 -71 l32 -33 -34 -35 c-19 -19
-40 -35 -48 -35 -19 0 -84 71 -78 86 3 7 17 32 32 55 l27 43 19 -25 c10 -13
33 -39 50 -56z m4361 17 c46 -9 57 -15 57 -31 0 -35 -19 -59 -46 -59 -25 0
-209 46 -226 56 -13 8 -9 26 11 61 l20 31 63 -23 c35 -12 89 -28 121 -35z
m-3937 32 c6 -4 19 -22 28 -40 l17 -32 -43 -41 c-40 -38 -45 -40 -67 -27 -14
7 -34 28 -44 46 -16 27 -18 38 -8 58 16 36 85 57 117 36z m1468 0 c3 -5 -1
-62 -9 -128 -19 -167 -14 -291 13 -343 12 -23 20 -41 17 -41 -3 0 -33 12 -69
26 l-64 27 -5 136 c-6 163 -17 203 -68 255 -38 37 -41 38 -91 34 -43 -5 -57
-11 -84 -41 -44 -48 -56 -99 -53 -230 l3 -111 -62 -12 c-34 -7 -67 -16 -74
-20 -7 -5 -1 6 14 24 15 18 30 49 34 68 7 38 -1 211 -12 255 -5 22 -2 27 18
32 12 2 61 15 108 27 143 37 371 62 384 42z m74 -1 c14 -9 11 -109 -9 -251
-14 -107 -12 -155 11 -175 27 -24 57 -14 107 37 58 60 108 147 140 245 24 73
30 83 51 83 21 0 23 -3 17 -27 -11 -48 -131 -286 -168 -334 -46 -59 -115 -97
-154 -84 -46 16 -67 73 -67 185 0 84 18 283 29 318 5 14 24 16 43 3z m1263 -1
c10 -6 28 -28 39 -50 26 -52 33 -54 77 -30 37 21 39 21 78 4 l40 -17 -30 -8
c-16 -5 -59 -12 -95 -15 l-65 -6 -37 59 c-48 75 -49 85 -7 63z m-3058 -35 c-4
-26 -1 -41 12 -55 15 -16 15 -22 5 -35 -7 -8 -19 -15 -26 -15 -8 0 -34 -18
-58 -40 -48 -44 -57 -47 -80 -24 -23 23 -20 48 11 85 22 25 131 119 140 119 1
0 -1 -16 -4 -35z m1906 19 c1 -1 -9 -52 -23 -112 -14 -59 -26 -118 -26 -129 0
-31 10 -53 25 -53 29 0 105 131 149 254 3 10 8 17 11 14 9 -9 -39 -146 -77
-220 -47 -90 -99 -148 -133 -148 -24 0 -25 2 -25 73 0 70 16 269 26 315 4 21
9 23 37 17 18 -4 34 -9 36 -11z m4151 9 c0 -5 -9 -19 -19 -32 -17 -23 -19 -23
-44 -6 -30 19 -34 31 -14 38 19 8 77 8 77 0z m94 -2 c3 -4 -12 -27 -33 -50
-30 -33 -45 -41 -72 -41 -36 0 -123 20 -174 40 l-30 12 43 15 43 15 39 -36
c22 -20 46 -36 53 -36 7 0 27 20 45 45 23 33 38 45 56 45 14 0 27 -4 30 -9z
m-3130 -26 c9 -14 23 -36 32 -50 16 -24 16 -25 -10 -25 -18 0 -37 11 -56 31
l-28 32 -32 -23 c-21 -15 -51 -24 -84 -27 l-51 -3 90 45 c50 24 97 44 106 44
9 1 24 -10 33 -24z m3245 -60 c40 -56 28 -58 -29 -5 l-44 40 -21 -20 c-21 -20
-45 -27 -45 -12 0 4 14 24 31 45 l31 38 23 -21 c12 -11 37 -41 54 -65z m-4260
60 c14 -14 -69 -193 -106 -227 l-25 -23 6 25 c3 14 15 66 26 116 27 127 27
127 63 120 17 -3 33 -9 36 -11z m1907 -27 c8 -16 14 -31 12 -33 -11 -9 -105
-55 -113 -55 -16 0 -49 60 -39 70 17 16 108 58 116 54 5 -3 15 -19 24 -36z
m2369 28 c23 -10 41 -28 56 -58 34 -68 37 -71 69 -48 16 11 36 20 45 20 17 0
105 -58 105 -70 0 -5 -58 0 -167 16 -26 4 -45 20 -93 79 -34 41 -59 75 -55 75
3 0 21 -6 40 -14z m-3131 -2 c21 -8 20 -20 -1 -28 -9 -4 -20 -1 -25 6 -16 26
-7 35 26 22z m-2350 -76 c25 -29 46 -56 46 -59 0 -4 -17 -10 -37 -14 -21 -3
-57 -15 -79 -25 -45 -19 -55 -17 -74 19 -17 33 -5 80 32 118 37 39 47 35 112
-39z m709 35 c35 -32 56 -95 67 -209 14 -150 14 -154 -10 -154 -11 0 -20 3
-21 8 0 4 -3 36 -5 72 -9 129 -54 250 -94 250 -33 0 -70 -111 -71 -220 -1 -31
-5 -63 -10 -71 -34 -56 -54 150 -23 243 24 72 67 112 112 104 19 -3 44 -13 55
-23z m3237 -3 c53 -27 86 -87 104 -188 l6 -33 -52 3 -51 3 -12 48 c-25 97
-104 161 -189 154 -40 -4 -55 -11 -78 -36 -17 -19 -28 -43 -28 -61 0 -37 -17
-39 -26 -4 -15 59 26 106 113 130 61 17 163 10 213 -16z m-2120 -39 c0 -10
-69 -25 -77 -18 -2 3 3 22 12 43 l16 39 25 -28 c13 -15 24 -32 24 -36z m3779
13 c-16 -20 -24 -18 -37 11 -17 36 -16 37 19 20 25 -13 28 -19 18 -31z m1035
-16 c64 -74 80 -110 73 -173 -9 -92 -68 -184 -171 -273 -87 -74 -161 -116
-191 -108 -25 6 -25 6 26 69 28 34 79 119 114 190 51 102 67 146 80 222 10 52
15 101 11 110 -11 30 13 14 58 -37z m-5196 -3 c127 -65 216 -137 355 -282 l38
-40 -83 -68 c-222 -182 -373 -387 -340 -460 20 -43 69 -67 127 -59 85 10 204
55 353 131 79 40 148 71 152 68 13 -8 38 -91 55 -179 26 -138 14 -339 -21
-353 -24 -9 -27 3 -9 38 13 25 16 49 13 101 -8 103 -40 139 -146 164 -112 27
-244 12 -402 -45 -46 -17 -87 -27 -91 -23 -4 4 -14 30 -23 57 -9 28 -31 81
-50 118 l-33 69 77 91 c262 313 308 431 206 526 -39 36 -125 40 -186 9 -52
-27 -173 -161 -252 -280 -28 -43 -52 -78 -54 -78 -1 0 -26 16 -55 35 -30 19
-57 35 -61 35 -5 0 -8 4 -8 9 0 5 19 11 41 15 59 9 132 87 185 196 53 109 104
225 104 239 0 19 19 13 108 -34z m722 35 c0 -5 -9 -10 -21 -10 -11 0 -17 5
-14 10 3 6 13 10 21 10 8 0 14 -4 14 -10z m2989 -20 c45 -18 45 -18 21 -28
-17 -6 -39 -5 -70 4 -25 8 -48 14 -52 14 -5 0 -8 -24 -8 -52 0 -88 -16 -89
-27 -1 -6 43 -8 82 -5 86 6 12 86 -1 141 -23z m-5823 -11 c16 -17 41 -37 56
-45 30 -15 63 -68 53 -84 -3 -6 -20 -10 -36 -10 -17 0 -42 -6 -58 -14 -25 -13
-30 -13 -60 11 -64 50 -73 120 -19 157 30 21 30 21 64 -15z m474 10 c22 -8 25
-15 22 -44 -3 -22 2 -45 12 -60 11 -16 12 -25 5 -25 -6 0 -27 -16 -45 -36
l-34 -35 -44 30 c-79 55 -108 106 -82 146 27 40 96 50 166 24z m580 -16 c6
-21 14 -76 16 -123 6 -100 -10 -143 -68 -174 -31 -17 -39 -18 -66 -7 -42 17
-66 60 -86 148 -19 84 -20 103 -6 103 6 0 10 -8 10 -18 0 -34 31 -110 55 -136
30 -32 49 -33 80 -1 23 22 25 31 25 128 0 57 3 107 7 110 13 14 22 6 33 -30z
m2915 8 c55 -13 105 -25 112 -27 13 -3 29 -82 18 -92 -4 -4 -46 -7 -93 -7
l-87 0 -37 70 c-41 76 -44 88 -25 83 6 -2 57 -14 112 -27z m1685 2 c1 -16 3
-45 6 -66 10 -67 -2 -98 -62 -160 -30 -31 -59 -57 -63 -57 -5 0 -11 14 -13 31
-4 29 0 34 59 71 l63 40 -30 53 -30 53 26 31 c32 38 44 39 44 4z m-6068 -16
c18 -19 39 -36 47 -38 12 -4 11 -10 -4 -32 -21 -33 -31 -34 -78 -2 l-37 26 15
36 c8 19 15 37 15 39 0 9 10 2 42 -29z m660 12 c18 -8 29 -21 33 -42 4 -18 16
-47 26 -65 10 -18 19 -35 19 -38 0 -2 -15 -4 -33 -4 -18 0 -43 -7 -55 -16 -20
-14 -24 -14 -52 6 -58 41 -89 112 -65 149 18 30 66 34 127 10z m745 -101 c-5
-84 -21 -116 -51 -105 -29 12 -81 167 -55 167 5 0 9 -11 9 -24 0 -42 18 -76
40 -76 24 0 27 6 34 85 3 33 6 62 6 65 0 3 6 -3 12 -14 6 -11 8 -49 5 -98z
m2204 64 c6 -29 4 -33 -10 -28 -97 33 -121 42 -121 48 0 7 59 16 100 14 19 -1
26 -8 31 -34z m629 19 c5 -11 10 -24 10 -28 0 -8 -102 -63 -115 -63 -2 0 -11
13 -19 29 l-15 29 57 25 c70 31 69 31 82 8z m-2880 -35 c0 -25 -4 -47 -9 -50
-10 -6 -24 71 -16 85 14 22 25 6 25 -35z m1929 25 c32 -18 18 -26 -72 -40
l-78 -12 -34 28 c-18 15 -34 32 -34 37 -1 13 190 1 218 -13z m427 -33 c87 -68
93 -83 29 -74 -55 7 -82 27 -101 73 -29 69 -17 69 72 1z m1176 20 c60 -69 15
-208 -78 -238 -46 -15 -125 -4 -166 24 -41 27 -85 107 -93 166 l-6 45 15 -38
c25 -67 76 -107 137 -107 23 0 42 10 72 40 l40 41 -22 22 c-17 19 -19 26 -8
39 32 41 77 43 109 6z m-3131 -22 c25 -58 45 -198 30 -223 -9 -16 -11 -16 -12
7 -2 14 -3 36 -4 50 -2 14 -3 39 -4 56 0 16 -7 39 -15 50 -25 33 -45 0 -52
-86 -4 -41 -10 -79 -15 -84 -21 -23 -3 186 21 249 14 36 29 31 51 -19z m1302
13 c100 -66 215 -231 232 -332 6 -36 4 -38 -29 -52 -44 -19 -46 -19 -46 2 0
73 -181 281 -298 342 -35 18 -61 36 -58 39 7 6 110 30 137 31 8 1 37 -13 62
-30z m403 -14 c83 -32 89 -38 117 -133 14 -48 27 -107 29 -132 l3 -45 -62 -3
-61 -3 -7 43 c-12 72 -43 142 -100 228 -30 45 -55 83 -55 85 0 5 71 -16 136
-40z m3055 25 c163 -55 272 -186 329 -394 20 -70 21 -98 18 -250 -5 -192 -20
-263 -98 -450 -180 -433 -426 -785 -685 -982 -52 -40 -256 -166 -260 -162 -2
2 18 38 45 80 145 224 239 509 248 750 l4 126 42 30 c55 40 249 237 331 337
117 142 194 340 195 500 0 66 -24 156 -57 218 -37 66 -133 154 -179 163 -62
11 -170 -3 -231 -30 -35 -17 -51 -21 -43 -11 16 19 112 74 148 85 49 15 132
10 193 -10z m-337 4 c13 -5 14 -9 5 -20 -16 -20 -29 -17 -29 6 0 22 1 23 24
14z m-5888 -22 c1 -7 2 -17 3 -22 0 -6 21 -33 46 -59 29 -31 43 -54 39 -64 -5
-14 -9 -14 -39 -1 -19 8 -45 14 -58 14 -35 0 -77 37 -77 66 0 46 82 108 86 66z
m5285 -31 l18 -40 -47 -31 c-88 -58 -279 -99 -409 -87 -125 12 -140 47 -20 47
45 0 111 5 146 11 79 12 192 64 246 112 22 19 42 33 44 31 2 -2 12 -22 22 -43z
m-5506 -31 c-21 -41 -25 -61 -21 -89 10 -57 9 -76 -6 -107 -16 -36 -42 -38
-47 -4 -7 52 40 196 82 248 21 27 17 2 -8 -48z m2782 34 c24 -9 43 -20 43 -23
0 -4 -23 -17 -51 -29 l-51 -21 -29 21 c-38 29 -43 47 -16 58 33 13 57 12 104
-6z m3150 -10 c17 -27 17 -27 -17 -55 -39 -33 -50 -36 -50 -14 0 23 31 95 41
95 5 0 16 -12 26 -26z m-4870 8 c8 -5 -4 -30 -38 -82 -27 -41 -52 -83 -55 -92
-8 -28 -32 -21 -54 15 -24 39 -25 59 -4 102 22 47 113 81 151 57z m91 -28 c1
-14 14 -61 28 -105 25 -80 47 -107 103 -124 22 -7 21 -8 -19 -31 -44 -25 -60
-24 -60 3 0 24 -48 101 -70 113 -10 5 -34 10 -54 10 -53 0 -88 -57 -88 -144 0
-51 18 -90 61 -130 26 -25 31 -37 31 -78 l0 -49 -35 27 c-30 23 -41 26 -76 20
l-42 -7 7 83 c9 111 31 199 73 282 33 66 120 172 132 161 3 -3 7 -17 9 -31z
m2117 17 c0 -8 -26 -20 -70 -31 -69 -18 -70 -18 -92 3 -13 11 -21 22 -18 25
22 23 180 26 180 3z m945 -26 c32 -74 31 -77 -25 -91 -68 -18 -73 -18 -88 14
-34 65 -33 70 25 97 29 14 57 25 61 25 4 0 16 -20 27 -45z m2501 29 c79 -18
79 -16 40 -105 l-19 -44 -12 27 c-11 23 -10 31 3 52 19 29 12 37 -50 55 -23 6
-45 16 -48 21 -8 14 5 13 86 -6z m-6782 -42 c3 -1 -3 -18 -12 -37 -17 -35 -17
-35 -46 -20 -34 17 -45 42 -35 79 l6 25 42 -22 c22 -12 43 -23 45 -25z m4967
3 c20 -49 18 -118 -4 -138 -57 -52 -238 -89 -438 -90 -133 -1 -154 6 -154 52
l0 26 118 -1 c79 -1 135 -7 172 -18 147 -46 279 33 280 167 0 46 7 47 26 2z
m1506 6 c29 -11 52 -37 40 -45 -5 -3 -26 4 -48 14 -21 11 -44 20 -52 20 -21 0
-53 20 -47 29 5 9 62 -1 107 -18z m-6300 1 c4 -4 10 -19 13 -34 6 -24 4 -28
-14 -28 -12 0 -39 -9 -60 -20 -21 -10 -41 -16 -45 -13 -12 12 -6 55 12 85 15
26 21 29 52 23 19 -4 38 -10 42 -13z m6161 -4 c21 -11 21 -11 2 -19 -11 -4
-39 -8 -62 -8 -51 -1 -90 -15 -122 -44 -16 -14 -22 -17 -19 -7 7 22 80 71 119
80 49 11 58 11 82 -2z m566 -65 c-16 -19 -28 -40 -26 -46 2 -7 37 -30 77 -52
71 -38 75 -43 97 -100 13 -32 23 -61 23 -63 0 -2 -35 28 -77 68 -42 39 -97 86
-122 102 -25 17 -47 32 -49 33 -1 1 12 32 29 69 l31 67 24 -22 23 -22 -30 -34z
m-5949 16 c0 -35 6 -60 20 -78 l19 -28 -30 -22 c-39 -29 -57 -24 -80 19 -28
51 -24 92 10 129 44 47 61 42 61 -20z m2010 40 c13 -9 13 -12 -4 -22 -10 -7
-37 -24 -59 -39 l-41 -27 -24 26 c-13 14 -22 27 -20 29 2 2 24 12 48 23 50 23
78 26 100 10z m673 -18 c52 -36 149 -122 144 -128 -3 -2 -21 6 -41 18 -20 11
-57 26 -83 33 -43 11 -47 15 -59 56 -8 25 -14 46 -14 48 0 7 16 -1 53 -27z
m-964 -9 c14 -10 32 -35 40 -55 12 -32 11 -43 -3 -89 -31 -95 -124 -232 -245
-360 -51 -55 -66 -66 -78 -57 -8 7 -12 18 -9 25 3 7 48 69 100 137 108 141
142 200 151 262 8 51 -10 99 -40 103 -11 1 -34 -6 -51 -17 -34 -21 -183 -184
-246 -269 -27 -36 -43 -51 -50 -44 -14 14 0 38 97 167 88 117 151 182 200 209
37 20 98 15 134 -12z m715 6 c23 -32 21 -35 -31 -41 -27 -3 -62 -9 -79 -12
-26 -6 -33 -3 -48 20 -20 31 -18 35 26 45 67 16 116 12 132 -12z m1136 7 c0
-9 9 -33 20 -54 23 -46 20 -48 -63 -56 -84 -9 -109 3 -128 61 l-16 49 71 6
c39 3 81 6 94 7 14 1 22 -4 22 -13z m2250 11 c0 -11 -19 -15 -25 -6 -3 5 1 10
9 10 9 0 16 -2 16 -4z m-6191 -35 c17 -9 21 -18 17 -34 -3 -12 -6 -39 -6 -59
0 -28 -9 -48 -37 -82 -42 -49 -53 -55 -53 -27 0 21 -39 83 -82 128 -30 31 -30
33 -14 57 9 14 29 28 44 32 15 3 32 7 37 8 15 4 67 -9 94 -23z m1159 -56 c-2
-30 -7 -56 -13 -58 -13 -3 -18 47 -10 102 10 63 27 30 23 -44z m2066 37 c3
-20 4 -38 2 -40 -5 -4 -75 70 -76 78 0 4 15 4 34 2 30 -3 34 -8 40 -40z m4050
-9 c26 -56 26 -60 13 -105 -29 -94 -155 -231 -253 -274 -54 -24 -56 -24 -85
-7 -16 10 -29 20 -29 24 0 3 24 22 54 42 79 53 187 166 220 231 16 31 31 76
34 101 2 25 8 45 11 45 4 0 20 -26 35 -57z m-2233 10 c11 -34 10 -38 -11 -55
-12 -10 -29 -18 -37 -18 -20 0 -73 29 -73 40 0 11 80 69 97 70 6 0 17 -17 24
-37z m-4832 13 c15 -8 33 -22 40 -30 12 -14 10 -16 -9 -16 -14 0 -38 -16 -59
-37 -34 -36 -38 -38 -93 -35 -56 3 -58 4 -58 30 1 36 22 72 51 88 32 18 93 17
128 0z m5667 -5 c37 -23 67 -107 44 -121 -10 -6 -18 0 -29 21 -8 17 -37 50
-65 75 l-51 44 35 0 c19 0 49 -9 66 -19z m-3413 -22 l31 -31 -70 -33 -69 -33
-27 29 c-16 16 -28 33 -28 37 0 12 91 61 113 62 10 0 33 -14 50 -31z m831 -38
c43 -70 44 -80 11 -73 -39 7 -65 47 -65 99 0 54 8 50 54 -26z m-3937 34 c30
-18 32 -23 27 -55 -9 -49 -26 -65 -53 -51 -18 10 -21 21 -21 72 0 33 3 59 8
57 4 -2 22 -12 39 -23z m6632 -3 c28 -40 61 -127 61 -163 0 -39 -13 -30 -40
26 -12 25 -26 45 -31 45 -16 0 -41 71 -35 96 8 31 20 30 45 -4z m405 -19 c15
-25 24 -48 22 -50 -5 -5 -86 35 -86 42 0 12 24 55 31 55 4 0 19 -21 33 -47z
m-911 4 c-3 -21 1 -46 11 -65 9 -17 16 -34 16 -38 0 -8 -69 2 -106 16 l-27 11
53 54 c30 30 55 55 57 55 1 0 -1 -15 -4 -33z m206 17 c13 -9 29 -32 37 -50 12
-29 12 -38 0 -66 -19 -42 -34 -60 -69 -82 -34 -23 -44 -15 -87 60 -29 51 -30
56 -15 83 19 37 62 71 89 71 12 0 32 -7 45 -16z m122 -31 c47 -43 69 -89 69
-147 0 -102 -65 -201 -164 -249 -106 -52 -353 -94 -466 -79 l-55 7 -2 55 c-3
63 -25 180 -54 289 -11 40 -18 75 -17 76 9 7 166 55 181 55 10 0 17 -8 17 -20
0 -53 80 -159 143 -189 97 -47 242 -8 282 76 18 37 23 96 12 136 -10 37 5 35
54 -10z m-2962 -4 c16 -46 16 -46 -36 -53 -27 -3 -60 -9 -75 -12 -24 -5 -29
-2 -43 31 -8 21 -13 40 -10 43 7 8 75 20 117 21 32 1 37 -3 47 -30z m-3209
-17 c53 -43 72 -87 66 -150 -2 -29 -10 -60 -17 -69 -11 -12 -16 -8 -36 31 -13
25 -27 46 -32 46 -4 0 -18 -9 -31 -20 -47 -40 -92 -16 -106 58 -7 38 19 117
44 132 25 15 72 3 112 -28z m2375 14 c24 -37 8 -86 -63 -196 -57 -87 -174
-230 -183 -224 -20 12 -6 41 66 137 42 55 87 120 101 144 25 41 27 73 4 73
-12 0 -163 -148 -213 -210 -20 -25 -36 -40 -37 -33 0 12 105 147 171 219 49
54 117 114 129 114 5 0 17 -11 25 -24z m1725 -2 c22 -58 17 -64 -60 -64 l-70
0 0 29 c0 34 10 42 60 52 57 11 60 10 70 -17z m1156 11 c9 -22 -22 -64 -51
-71 -28 -7 -75 18 -75 40 0 13 30 27 85 39 34 8 35 7 41 -8z m-337 -32 c10 -3
6 -12 -14 -33 -37 -38 -91 -42 -104 -7 -5 12 -7 28 -5 35 13 42 10 41 61 24
26 -8 54 -17 62 -19z m-4294 6 c4 -12 23 -39 42 -60 29 -32 34 -43 28 -69 -4
-16 -8 -30 -10 -30 -2 0 -20 10 -40 21 -25 15 -45 20 -66 15 -25 -5 -31 -2
-39 20 -11 28 -5 68 16 102 19 29 60 30 69 1z m2871 -16 c23 -13 50 -33 60
-45 19 -21 19 -21 -6 -14 -14 5 -47 13 -75 20 -64 14 -75 22 -75 52 0 22 3 24
28 18 15 -4 45 -17 68 -31z m1602 6 c1 -9 -7 -27 -18 -42 -27 -34 -80 -37
-111 -6 -35 35 -21 53 46 60 74 7 79 6 83 -12z m-4122 -14 c25 -25 63 -99 64
-122 0 -24 -25 -13 -40 18 -8 17 -28 38 -43 47 -27 16 -29 16 -42 -1 -15 -20
-8 -64 19 -115 23 -45 16 -58 -17 -32 -52 41 -70 105 -46 167 25 66 63 80 105
38z m1919 -1 c14 -15 25 -32 25 -38 0 -6 -30 -22 -67 -36 -37 -14 -71 -26 -74
-28 -8 -3 -53 67 -47 73 9 9 114 55 126 55 7 0 24 -12 37 -26z m2543 1 c25
-55 -28 -85 -97 -55 l-41 19 -6 -25 c-13 -53 -89 -72 -137 -34 -32 25 -34 25
-41 -4 -8 -33 -64 -52 -109 -37 -17 6 -44 23 -58 37 -27 26 -27 26 -47 6 -32
-32 -79 -38 -111 -14 -32 23 -36 59 -6 53 50 -10 116 -5 125 9 8 12 13 13 27
2 37 -26 79 -40 105 -35 27 5 63 33 70 54 3 9 13 6 34 -9 36 -26 72 -20 111
16 24 23 35 26 79 23 30 -1 55 2 58 8 12 19 32 12 44 -14z m-4652 -65 c-7 -25
-16 -65 -19 -90 -3 -25 -6 -46 -6 -47 -1 -2 -12 -3 -26 -3 -24 0 -25 3 -25 58
0 59 17 98 56 126 28 21 35 6 20 -44z m5876 33 c67 -53 188 -178 188 -193 0
-14 -73 -103 -141 -174 l-29 -30 0 46 c0 40 5 50 38 80 20 19 46 44 56 56 19
22 19 23 0 40 -16 14 -104 84 -111 87 -9 4 -51 115 -44 115 5 0 24 -12 43 -27z
m-1932 -4 c-27 -50 -86 -95 -146 -111 -99 -28 -204 -39 -314 -36 l-105 3 0 45
0 45 71 -3 c144 -7 399 28 463 63 36 20 43 18 31 -6z m-4238 -1 c8 -7 20 -28
26 -46 11 -31 10 -36 -25 -101 -1 -2 -14 6 -30 16 -40 29 -73 34 -118 18 -21
-8 -41 -12 -43 -10 -2 2 6 25 18 50 33 69 127 108 172 73z m1138 -27 c52 -17
137 -52 189 -78 78 -37 109 -59 170 -122 42 -42 100 -111 129 -153 114 -167
193 -388 137 -388 -16 0 -27 31 -55 150 -32 138 -86 236 -185 335 -129 130
-199 169 -392 221 -86 23 -111 25 -203 20 -103 -5 -224 -32 -281 -62 -87 -45
-137 -120 -148 -223 l-7 -66 -17 32 c-68 128 64 280 308 354 94 29 233 21 355
-20z m1595 23 c9 -9 14 -21 12 -28 -6 -18 -54 -37 -99 -39 -37 -2 -42 1 -49
25 -8 31 -2 37 45 49 51 12 74 10 91 -7z m3115 -16 c32 -53 34 -83 9 -128 -14
-24 -30 -40 -41 -40 -11 0 -28 -5 -39 -10 -22 -12 -22 -10 -10 22 4 13 11 54
15 92 9 100 31 121 66 64z m1370 -45 c13 -43 24 -95 24 -117 1 -33 -6 -44 -43
-77 -66 -59 -162 -102 -235 -107 l-61 -4 -18 36 c-21 46 -22 42 11 49 69 14
226 165 270 259 9 21 19 38 22 38 3 0 16 -35 30 -77z m-4082 19 c17 -26 38
-64 47 -85 23 -55 -2 -60 -57 -12 l-43 38 9 53 c6 30 11 54 12 54 1 0 16 -21
32 -48z m-110 12 c21 -9 32 -20 32 -33 0 -25 2 -25 -68 -5 -66 19 -77 27 -68
49 7 18 42 15 104 -11z m180 -18 c4 -34 -9 -33 -31 3 -22 38 -22 42 6 32 14
-5 23 -18 25 -35z m2209 -1 c12 -8 27 -24 33 -35 13 -24 -3 -26 -60 -10 -41
11 -130 65 -130 79 0 12 129 -16 157 -34z m-6157 11 c19 -50 16 -61 -13 -64
-23 -3 -30 2 -42 32 -21 49 -19 56 15 56 23 0 33 -6 40 -24z m4368 -3 c3 -19
-3 -23 -42 -28 -66 -10 -96 0 -96 31 0 24 1 25 68 22 60 -3 67 -5 70 -25z
m-1390 -3 c1 -9 -42 -54 -100 -105 -224 -196 -267 -247 -254 -301 4 -14 18
-30 32 -36 23 -11 40 -4 167 60 78 39 173 90 211 113 l70 42 18 -23 c10 -12
18 -25 18 -29 -1 -21 -292 -172 -398 -205 -106 -33 -164 -34 -192 -3 -48 50 2
139 175 313 162 163 244 220 253 174z m-1746 -42 c19 -27 19 -31 5 -45 -14
-14 -17 -12 -36 25 -26 51 -29 81 -6 62 9 -7 25 -26 37 -42z m1292 40 c-51
-85 -170 -238 -185 -238 -16 0 -10 31 13 63 22 31 168 187 175 187 2 0 1 -6
-3 -12z m683 -23 c14 -29 14 -37 3 -50 -16 -20 -83 -55 -104 -55 -13 0 -72 87
-64 95 6 6 123 44 136 45 7 0 20 -16 29 -35z m2459 24 c30 11 38 11 45 0 12
-19 47 -182 54 -250 l6 -55 -38 -21 c-48 -26 -147 -51 -238 -59 -171 -15 -491
89 -625 205 l-44 38 30 16 c17 9 54 37 82 63 l53 46 43 -23 c43 -22 44 -22 89
-5 44 16 46 16 79 -4 40 -24 134 -28 164 -5 13 10 34 12 70 8 52 -5 97 9 123
40 9 12 18 13 41 4 22 -9 38 -8 66 2z m-5591 -29 c8 -16 25 -39 37 -50 24 -22
12 -26 -25 -9 -13 6 -32 26 -41 45 -20 42 -20 44 -1 44 8 0 21 -13 30 -30z
m832 -35 c20 -20 33 -38 31 -41 -3 -3 -44 -11 -92 -17 l-86 -13 0 24 c0 32 52
82 85 82 18 0 39 -12 62 -35z m796 -17 c-2 -64 -55 -218 -75 -218 -14 0 -26
44 -17 61 4 9 11 56 15 105 4 49 12 92 18 97 6 4 22 6 36 5 23 -3 25 -7 23
-50z m82 5 c-8 -54 -81 -213 -119 -258 -24 -28 -25 -29 -26 -8 0 12 4 25 10
28 26 16 80 183 80 249 0 34 2 36 31 36 l31 0 -7 -47z m1944 17 c65 -24 115
-61 156 -119 50 -71 37 -169 -33 -243 -34 -37 -42 -35 -30 6 32 104 -51 206
-190 232 -128 25 -276 -21 -389 -120 l-51 -46 -36 86 c-20 47 -36 89 -36 93 0
29 219 103 400 135 45 8 152 -5 209 -24z m275 -140 c1 -58 -4 -113 -10 -123
-8 -14 -9 3 -6 66 3 59 0 100 -12 140 -20 68 -10 110 13 57 10 -23 15 -70 15
-140z m-2400 98 c-9 -125 -20 -153 -42 -110 -12 21 -24 150 -17 163 4 5 19 9
35 9 l29 0 -5 -62z m288 41 c15 -8 16 -13 3 -50 -31 -86 -83 -167 -159 -246
-43 -46 -83 -83 -87 -83 -13 0 6 41 70 152 50 87 69 132 97 236 4 13 41 8 76
-9z m1118 13 c0 -4 -45 -43 -100 -87 -102 -80 -200 -175 -200 -194 0 -35 132
12 272 97 86 52 108 61 108 42 0 -18 -262 -168 -367 -211 -66 -26 -88 -16 -71
33 13 36 153 179 261 266 75 59 97 72 97 54z m-1495 -34 c19 -105 -4 -129 -35
-38 -11 30 -19 56 -20 57 0 1 28 9 42 12 4 0 10 -14 13 -31z m2857 -8 c-5 -46
-19 -53 -93 -48 -40 3 -44 6 -47 31 -6 51 2 57 75 57 l69 0 -4 -40z m2299 -19
c-1 -54 -42 -204 -68 -254 -9 -18 -31 -57 -51 -87 l-34 -54 -14 26 c-13 25
-12 29 21 65 59 63 85 127 85 204 0 71 11 112 37 142 22 23 26 16 24 -42z
m-6421 -17 c0 -52 -36 -68 -138 -65 l-33 1 24 31 c13 16 46 43 73 59 57 32 74
26 74 -26z m455 16 l28 -29 -71 -34 c-39 -19 -85 -45 -102 -57 -17 -12 -33
-20 -35 -18 -9 9 28 125 47 145 37 39 92 36 133 -7z m6264 -3 l33 -27 -29 -34
c-15 -19 -31 -35 -34 -35 -3 -1 -9 23 -13 53 -3 30 -9 62 -13 72 -8 21 8 13
56 -29z m-6911 5 c33 -27 33 -28 14 -45 -18 -17 -21 -16 -56 16 -20 18 -36 39
-36 45 0 21 44 12 78 -16z m1396 6 c9 -36 7 -68 -5 -68 -6 0 -24 14 -41 30
-25 25 -28 33 -18 45 19 23 57 19 64 -7z m526 2 c0 -46 -98 -211 -172 -291
-43 -47 -162 -139 -179 -139 -25 0 0 33 95 125 96 94 107 110 157 213 45 93
58 112 77 112 15 0 22 -6 22 -20z m1080 -34 c0 -25 -301 -199 -316 -183 -12
11 17 37 151 138 130 98 130 99 148 78 9 -12 17 -26 17 -33z m1770 36 c0 -9
-130 -58 -190 -72 -51 -11 -172 -12 -210 -1 -33 9 -39 39 -8 45 13 3 91 7 173
10 83 3 166 10 185 15 47 12 50 12 50 3z m-2783 -22 c37 -22 36 -25 -11 -118
-47 -94 -157 -221 -246 -286 -59 -44 -157 -94 -199 -102 -31 -7 -33 -6 -22 14
6 12 42 41 80 66 94 61 205 167 258 249 46 71 93 163 93 185 0 17 10 15 47 -8z
m-673 -16 c9 -25 7 -34 -8 -34 -19 0 -29 17 -22 35 7 20 22 19 30 -1z m786
-62 c0 -2 -21 -41 -47 -85 -55 -93 -200 -251 -281 -304 -69 -46 -176 -83 -260
-88 -64 -5 -66 -5 -37 9 17 9 39 15 50 16 11 0 49 14 84 30 172 82 326 239
408 417 l24 53 30 -22 c16 -12 29 -24 29 -26z m1797 -13 l3 -54 -18 50 c-19
52 -18 69 1 62 7 -2 13 -28 14 -58z m-3051 36 c-114 -17 -169 -31 -217 -55
-42 -22 -74 -26 -63 -9 9 15 79 45 145 63 30 8 92 14 139 14 l85 -1 -89 -12z
m424 -11 c0 -16 -16 -19 -25 -4 -8 13 4 32 16 25 5 -4 9 -13 9 -21z m3030 22
c0 -1 -5 -17 -11 -35 -9 -26 -16 -31 -44 -31 -58 0 -83 15 -78 44 5 25 9 26
69 26 35 0 64 -2 64 -4z m450 -6 c0 -11 -53 -40 -74 -40 -30 0 -27 21 6 35 39
17 68 19 68 5z m1770 -15 c26 -32 -7 -133 -68 -205 -24 -28 -36 -34 -70 -35
-47 -1 -46 -2 -31 27 23 43 27 76 13 103 -16 30 -12 39 30 75 60 51 103 63
126 35z m-5582 -22 c2 -9 -11 -13 -45 -13 -76 -1 -170 -25 -223 -58 -46 -29
-49 -29 -65 -12 -15 16 -13 19 32 38 48 20 137 47 183 55 46 8 113 2 118 -10z
m469 -19 c28 -21 53 -73 53 -109 0 -32 -25 -90 -52 -121 -45 -52 -83 -68 -159
-68 -53 0 -74 5 -110 26 -61 36 -105 83 -85 91 8 3 29 25 45 47 l30 42 19 -32
c11 -17 22 -53 26 -79 8 -59 32 -84 77 -79 41 4 66 38 75 102 l7 49 -46 -7
c-40 -6 -47 -5 -57 15 -24 44 9 111 75 148 26 14 62 6 102 -25z m3397 21 c11
-8 18 -16 15 -17 -2 -2 -19 -14 -37 -26 -32 -22 -34 -23 -58 -7 -28 18 -27 20
13 46 34 22 43 22 67 4z m2269 -12 c6 -34 -11 -68 -57 -112 -20 -19 -36 -40
-36 -46 0 -6 28 -62 62 -125 60 -110 63 -118 66 -195 l4 -80 -62 120 c-34 66
-86 157 -116 203 l-55 82 83 90 c46 49 88 89 94 90 7 0 14 -12 17 -27z m-5607
-4 c52 -32 86 -98 92 -178 2 -38 1 -71 -4 -74 -5 -3 -26 10 -45 28 -35 32 -36
35 -27 72 13 48 -2 110 -37 147 -29 31 -24 33 21 5z m2982 5 c18 -4 21 -8 13
-22 -13 -25 -4 -81 18 -112 24 -34 78 -60 124 -60 26 0 37 -4 37 -15 0 -8 13
-29 29 -47 23 -26 36 -32 67 -31 31 1 46 -6 77 -34 37 -33 42 -35 105 -31 46
2 67 -1 70 -10 8 -24 63 -44 116 -41 39 2 59 -2 86 -19 49 -31 78 -37 116 -23
28 10 38 10 56 -3 28 -20 80 -20 117 -2 24 13 31 13 48 1 11 -8 43 -15 71 -17
l51 -3 -49 -103 c-27 -57 -59 -116 -70 -133 l-21 -29 -129 0 c-204 0 -608 76
-845 160 -89 32 -259 125 -324 179 l-35 29 61 120 c34 67 69 153 79 192 l19
71 45 -6 c25 -3 55 -8 68 -11z m192 -1 c14 -9 37 -27 52 -41 26 -24 27 -27 12
-44 -24 -26 -75 -32 -117 -14 -42 17 -47 38 -22 86 17 34 39 38 75 13z m-2470
-34 c29 -54 -206 -307 -355 -381 -45 -23 -135 -45 -135 -34 0 3 27 19 59 36
119 64 248 197 342 352 36 59 44 66 60 58 10 -6 23 -20 29 -31z m1420 25 l54
-16 -60 -28 c-65 -32 -108 -72 -147 -139 -14 -24 -58 -72 -99 -105 -40 -34
-89 -83 -108 -109 l-35 -47 -12 92 c-7 51 -19 112 -27 135 l-15 42 54 53 c114
115 264 161 395 122z m948 -12 c-26 -69 30 -121 118 -107 39 5 42 4 48 -19 9
-38 49 -60 96 -53 37 5 42 3 56 -25 25 -48 101 -72 145 -45 18 10 23 9 26 -1
16 -45 86 -72 134 -52 26 11 32 10 53 -9 24 -22 88 -29 116 -11 10 6 24 3 46
-11 40 -25 75 -24 107 1 25 20 28 20 52 4 31 -20 84 -12 110 16 27 30 38 24
32 -16 -10 -63 -31 -84 -82 -84 -32 0 -51 6 -65 20 -23 23 -36 25 -47 6 -11
-18 -47 -36 -73 -36 -12 0 -35 14 -51 32 l-30 31 -15 -21 c-27 -39 -103 -23
-132 27 l-17 30 -33 -21 c-46 -28 -97 -16 -127 28 -20 29 -23 31 -46 18 -56
-31 -129 -8 -148 46 -10 29 -10 29 -43 16 -46 -20 -83 0 -99 53 l-12 39 -58
-1 c-53 -2 -62 1 -90 29 -23 24 -31 40 -31 68 0 41 25 76 53 76 15 0 16 -4 7
-28z m3380 -34 c-13 -58 -31 -84 -85 -118 -62 -39 -136 -55 -188 -41 -56 16
-64 22 -58 53 5 24 10 27 62 34 75 9 147 37 207 79 65 47 74 46 62 -7z m-6978
12 c11 -11 20 -28 20 -37 0 -10 13 -46 29 -80 28 -59 29 -64 17 -110 -41 -154
-125 -233 -250 -233 -83 0 -166 82 -166 166 0 54 34 117 88 162 86 72 128 85
182 57 34 -18 90 -108 90 -145 0 -61 -87 -140 -154 -140 -51 0 -75 15 -92 57
-19 44 -11 84 26 123 52 56 122 28 124 -50 1 -51 -21 -73 -54 -52 -26 16 -35
15 -21 -2 22 -26 52 -26 78 0 21 21 24 32 20 61 -7 44 -52 93 -84 93 -42 0
-80 -28 -103 -75 -28 -57 -21 -106 20 -147 56 -55 175 -30 235 50 15 20 20 42
20 83 -1 98 -74 179 -161 179 -31 0 -54 -9 -99 -41 -44 -31 -60 -37 -66 -27
-16 24 -9 38 30 62 97 61 233 84 271 46z m3307 -1 c19 -7 21 -12 13 -40 -5
-17 -12 -34 -15 -37 -4 -5 -105 37 -105 44 0 2 4 14 10 28 8 22 13 25 42 19
18 -3 43 -10 55 -14z m618 9 c30 -14 31 -18 4 -52 l-20 -26 -41 21 -41 21 29
24 c34 27 35 28 69 12z m-4264 -80 c25 -49 24 -58 -11 -125 -36 -67 -43 -73
-92 -73 -47 0 -49 13 -6 25 39 12 78 66 78 107 0 17 -10 39 -25 53 -63 64
-166 -8 -125 -86 14 -25 62 -25 85 1 22 25 13 70 -15 70 -28 0 -35 -18 -15
-40 16 -18 16 -20 1 -26 -22 -8 -48 14 -44 39 4 27 49 60 71 51 10 -3 24 -19
33 -35 21 -41 -2 -94 -50 -114 -46 -20 -78 -7 -100 39 -16 34 -16 38 -1 64 9
15 46 51 83 79 l66 53 24 -23 c13 -12 33 -39 43 -59z m470 61 c25 -25 19 -52
-22 -94 -33 -33 -40 -17 -9 22 24 31 25 37 4 57 -10 10 -24 14 -40 10 -23 -6
-32 5 -17 19 14 14 64 6 84 -14z m1163 -50 c14 -17 26 -38 26 -47 0 -41 -134
-196 -231 -268 -39 -28 -55 -34 -95 -33 -27 1 -60 4 -74 8 -23 6 -22 9 31 44
78 52 205 179 259 259 25 37 48 68 52 68 3 0 18 -14 32 -31z m1480 9 c32 -45
8 -131 -46 -171 -22 -17 -30 -18 -42 -8 -17 15 -36 7 -36 -15 0 -23 -20 -5
-36 31 -40 96 105 243 160 163z m1259 6 c18 -9 34 -18 36 -20 3 -2 -8 -17 -24
-34 l-28 -29 -41 21 c-54 27 -53 24 -26 53 28 29 40 31 83 9z m1377 -5 c15
-27 -16 -91 -68 -142 l-39 -38 -38 25 c-29 20 -50 26 -91 26 l-54 0 0 40 c0
35 3 40 28 46 15 3 70 18 122 34 118 34 127 35 140 9z m-5326 2 c3 -5 -1 -14
-8 -20 -16 -13 -32 2 -21 19 8 12 22 13 29 1z m3779 -21 c26 -17 47 -34 47
-39 0 -17 -67 -33 -89 -21 -27 14 -44 46 -36 70 8 27 21 25 78 -10z m2291 -11
c4 -23 9 -83 12 -133 l6 -91 -27 45 c-15 25 -40 67 -57 94 l-29 49 37 39 c21
21 41 38 45 38 3 0 9 -19 13 -41z m-2909 -1 c51 -25 53 -34 24 -97 l-20 -45
-41 41 c-41 42 -41 42 -29 82 6 23 14 41 16 41 3 0 25 -10 50 -22z m3300 -49
c39 -43 41 -51 21 -68 -11 -9 -22 -6 -51 14 -22 14 -52 25 -71 25 -37 0 -89
-38 -107 -79 -11 -26 -11 -25 -15 13 -6 70 26 117 94 141 49 17 83 5 129 -46z
m-2382 35 c51 -17 56 -27 28 -63 l-18 -24 -54 18 c-72 23 -77 30 -49 60 28 29
32 30 93 9z m599 -33 c-2 -23 -8 -41 -13 -41 -10 0 -12 73 -3 83 14 13 20 -3
16 -42z m-1782 30 c0 -12 -82 -103 -87 -97 -5 4 76 104 85 106 1 0 2 -4 2 -9z
m1740 -41 c0 -18 -8 -34 -22 -44 -28 -20 -38 -12 -38 28 0 24 6 36 23 43 29
14 37 8 37 -27z m-2150 10 c-6 -11 -15 -20 -20 -20 -6 0 -5 9 2 20 7 11 16 20
21 20 4 0 3 -9 -3 -20z m2525 0 c14 -44 -31 -118 -92 -149 -35 -18 -43 -14
-63 34 -24 57 -62 93 -106 101 -19 3 -34 12 -34 20 0 11 28 14 144 14 136 0
145 -1 151 -20z m-1078 -20 c69 -31 71 -40 17 -57 -54 -19 -104 14 -104 68 0
25 9 24 87 -11z m360 -4 c3 -3 -2 -17 -12 -32 -16 -25 -20 -26 -77 -20 -97 11
-104 18 -63 58 24 24 26 24 86 12 33 -7 63 -15 66 -18z m263 -11 c0 -19 -3
-35 -7 -35 -5 -1 -27 -5 -51 -9 -47 -9 -56 -4 -46 34 4 17 16 28 38 34 58 17
66 14 66 -24z m-4358 -7 c2 -25 9 -34 28 -38 22 -5 23 -7 6 -13 -10 -4 -24 -3
-31 3 -16 14 -36 66 -28 74 14 13 22 4 25 -26z m-862 5 c0 -10 9 -33 20 -51
25 -41 25 -42 -4 -42 -15 0 -33 11 -45 26 -20 25 -20 28 -4 55 20 33 33 37 33
12z m900 2 c0 -8 -4 -15 -10 -15 -5 0 -10 7 -10 15 0 8 5 15 10 15 6 0 10 -7
10 -15z m1059 -37 l21 -51 -23 -36 c-34 -50 -108 -121 -135 -127 -12 -4 -53
-3 -90 1 l-67 7 30 22 c55 39 141 125 180 180 22 31 45 56 51 56 6 0 21 -23
33 -52z m3141 43 c0 -5 -4 -21 -10 -35 -9 -24 -14 -26 -75 -26 -36 0 -65 2
-65 5 0 3 10 19 22 35 19 27 28 30 75 30 29 0 53 -4 53 -9z m1455 -54 c51 -81
187 -347 182 -360 -1 -5 -18 -16 -37 -23 -19 -7 -111 -43 -204 -79 -93 -36
-171 -64 -173 -62 -6 6 45 115 58 123 7 4 62 26 123 50 65 25 112 48 114 57 4
19 -56 145 -98 209 -29 44 -31 53 -25 98 4 27 10 50 13 50 4 -1 25 -29 47 -63z
m908 2 c-61 -78 -88 -99 -128 -99 -49 0 -134 72 -135 114 0 15 5 17 28 12 15
-4 59 -9 97 -12 61 -4 76 -2 115 20 70 38 75 31 23 -35z m-2028 39 c28 -13 59
-58 69 -102 15 -64 -38 -119 -122 -129 -44 -5 -53 -4 -48 8 5 14 28 126 40
198 7 40 19 45 61 25z m-2284 -45 c12 -37 6 -49 -26 -55 -17 -2 -21 3 -23 36
-2 21 -1 44 2 52 9 23 34 5 47 -33z m613 25 c10 -13 25 -30 33 -39 13 -15 10
-21 -17 -53 -38 -43 -50 -45 -50 -11 0 14 -7 37 -16 50 -15 23 -15 27 0 50 20
31 27 31 50 3z m-2620 -21 c33 -43 33 -62 0 -105 l-26 -34 -14 29 c-8 15 -27
37 -43 48 l-30 19 32 37 c18 21 37 38 44 38 7 1 23 -14 37 -32z m5934 13 c39
-24 40 -33 3 -59 -34 -25 -45 -26 -60 -8 -8 10 -7 19 4 33 20 27 18 34 -10 34
-35 0 -48 -31 -40 -96 5 -46 4 -54 -10 -54 -9 0 -22 15 -31 35 -13 31 -13 39
1 66 16 31 69 69 95 69 8 0 30 -9 48 -20z m-2316 -6 c32 -9 58 -21 58 -26 0
-5 -15 -15 -32 -23 -28 -11 -37 -11 -59 1 -25 12 -39 33 -39 55 0 12 4 12 72
-7z m1291 -21 c22 -39 18 -48 -63 -148 -72 -88 -91 -105 -98 -86 -2 7 -13 22
-24 33 -20 20 -20 20 1 68 12 27 21 62 21 78 0 33 20 54 70 76 48 21 71 16 93
-21z m-5355 -19 c-28 -15 -27 -15 -21 19 5 27 6 27 25 10 18 -17 18 -17 -4
-29z m4628 9 c-11 -11 -19 6 -11 24 8 17 8 17 12 0 3 -10 2 -21 -1 -24z m504
10 c37 -34 42 -76 14 -124 -15 -26 -32 -37 -71 -49 -29 -8 -55 -18 -59 -22
-14 -15 -21 -8 -38 35 -9 24 -27 54 -40 66 l-24 23 50 49 c45 44 55 49 94 49
34 0 51 -6 74 -27z m-566 -44 c-22 -24 -55 -24 -85 0 -30 24 -24 30 43 45 49
11 53 10 56 -7 2 -10 -4 -27 -14 -38z m-5314 27 c9 -12 4 -19 -29 -36 -47 -23
-50 -21 -19 20 25 34 31 36 48 16z m3110 -11 c0 -17 -16 -43 -44 -73 -44 -47
-98 -130 -111 -171 -10 -31 2 -68 24 -81 32 -16 68 4 156 90 45 44 84 80 88
80 14 0 6 -22 -27 -67 -19 -27 -41 -66 -50 -88 -22 -52 -43 -74 -90 -95 -41
-19 -86 -13 -132 16 -57 38 -58 147 -3 239 31 53 157 175 179 175 6 0 10 -11
10 -25z m1913 8 c17 -10 -27 -43 -58 -43 -35 0 -72 31 -60 50 7 11 97 5 118
-7z m2275 -46 c23 -20 49 -37 58 -37 9 0 14 -6 12 -12 -5 -15 -40 -26 -85 -27
-29 -1 -35 4 -58 49 -21 41 -23 54 -14 71 12 23 7 26 87 -44z m-3540 -16 l4
-49 -53 -31 c-50 -28 -54 -29 -57 -12 -6 37 20 105 50 133 38 35 49 27 56 -41z
m1422 49 c-6 -11 -21 -27 -35 -36 -19 -13 -28 -13 -47 -3 -23 12 -38 28 -38
41 0 8 33 15 88 17 40 1 42 0 32 -19z m-4309 -20 c102 -34 133 -55 149 -106
16 -48 5 -70 -43 -86 -23 -9 -51 -19 -61 -23 -15 -7 -12 1 12 31 56 69 45 129
-28 158 -68 27 -114 21 -159 -19 -64 -58 -74 -145 -25 -219 21 -31 23 -40 12
-47 -19 -13 -23 -12 -51 16 -49 50 -47 145 6 231 28 46 72 90 94 94 0 0 43
-14 94 -30z m220 -11 c33 -23 61 -70 51 -85 -12 -16 -73 -64 -83 -64 -5 0 -9
11 -9 24 0 28 -25 92 -40 101 -17 10 -11 25 13 35 32 13 36 12 68 -11z m-923
-16 c39 -29 57 -70 57 -134 -1 -59 -23 -109 -50 -109 -14 0 -14 3 -1 28 28 54
30 98 6 148 -61 125 -207 107 -266 -35 -32 -76 -9 -174 44 -186 105 -23 211
156 137 230 -38 39 -98 29 -143 -25 -11 -13 -12 -12 -3 6 6 12 25 34 43 49 27
23 39 26 72 22 87 -12 129 -104 87 -189 -25 -49 -152 -158 -183 -158 -31 0
-71 28 -98 68 -59 85 -4 236 105 289 62 30 150 28 193 -4z m3099 6 l35 -22
-29 -22 c-31 -25 -43 -22 -82 19 l-24 26 24 9 c34 14 38 13 76 -10z m3938 -33
c14 -26 25 -49 25 -52 0 -2 -15 -4 -33 -4 -26 0 -36 6 -45 25 -16 34 -15 45 5
67 19 21 16 24 48 -36z m-6944 2 c6 -24 13 -46 16 -50 2 -5 0 -8 -5 -8 -13 0
-62 82 -55 92 12 21 33 4 44 -34z m6341 -75 c22 -45 37 -86 34 -92 -8 -12
-166 -73 -181 -69 -8 2 4 51 33 143 51 160 45 159 114 18z m-4548 60 c4 -21 9
-50 12 -65 5 -26 3 -28 -24 -28 -16 0 -50 3 -75 6 l-46 7 57 62 c31 35 60 61
63 59 4 -2 10 -21 13 -41z m-1169 23 c64 -27 70 -80 14 -135 -37 -37 -84 -41
-117 -11 -27 26 -28 50 -2 82 27 35 57 41 81 17 29 -29 9 -89 -26 -76 -11 5
-14 14 -9 34 7 25 6 27 -9 14 -21 -17 -21 -30 0 -53 24 -26 50 -22 68 12 30
58 7 100 -54 100 -82 -1 -119 -86 -65 -149 20 -24 34 -31 62 -31 l37 0 -44
-21 c-53 -23 -64 -20 -91 23 -40 66 -13 165 54 194 40 17 59 17 101 0z m2268
-26 l28 -40 -19 -28 c-27 -38 -148 -152 -161 -152 -21 0 -31 37 -19 72 21 61
109 185 133 187 6 0 23 -17 38 -39z m484 3 c-9 -56 -37 -87 -80 -91 -21 -2
-37 -1 -37 2 0 17 63 105 82 114 37 17 41 14 35 -25z m2036 -2 c19 -21 38 -53
42 -71 10 -47 -3 -117 -29 -147 -19 -22 -27 -25 -59 -19 -33 6 -37 10 -37 36
0 41 -13 71 -49 109 l-31 33 25 20 c14 11 32 33 40 49 22 41 54 38 98 -10z
m-2956 1 c49 -26 68 -66 67 -142 -1 -65 -17 -100 -45 -100 -18 0 -19 2 -4 30
19 38 19 65 -2 101 -29 48 -58 54 -283 54 -113 0 -221 -3 -240 -8 -72 -16 -12
12 100 46 150 46 148 46 266 42 77 -2 110 -7 141 -23z m4407 12 c19 -49 1 -65
-49 -42 -31 14 -29 40 5 49 37 10 37 10 44 -7z m-3714 -13 c0 -4 -15 -22 -34
-40 l-34 -33 -42 22 -42 22 28 14 c16 9 32 18 36 22 9 9 88 3 88 -7z m565 -83
c68 -46 225 -115 332 -147 258 -76 568 -130 753 -132 52 0 103 -3 112 -7 16
-7 16 -8 0 -29 l-17 -22 -169 14 c-296 26 -556 77 -781 155 -95 33 -353 156
-395 189 l-25 20 29 30 29 30 46 -37 c25 -21 64 -50 86 -64z m-446 60 c-31
-62 -76 -81 -133 -59 -17 6 -15 11 17 44 30 32 40 37 81 37 45 0 46 -1 35 -22z
m-3454 -2 c65 -47 -36 -220 -115 -199 -34 9 -54 107 -29 143 8 12 10 10 8 -10
-3 -53 2 -70 22 -81 17 -8 27 -8 46 2 61 33 72 139 14 139 -20 0 -51 -30 -51
-48 0 -13 3 -12 19 2 25 23 61 13 54 -13 -3 -11 -17 -31 -33 -46 -25 -24 -29
-25 -44 -10 -25 25 -20 69 13 104 32 34 65 40 96 17z m249 -71 c3 -8 -5 -16
-19 -19 -13 -3 -30 -9 -39 -12 -18 -7 -20 4 -6 40 8 23 12 25 34 15 14 -7 27
-17 30 -24z m3456 24 c0 -7 -45 -58 -100 -115 -104 -109 -160 -190 -160 -236
0 -38 35 -46 93 -20 57 25 109 73 215 195 60 70 88 95 95 88 8 -8 -9 -41 -58
-113 -88 -131 -170 -218 -236 -248 l-51 -24 -56 20 c-72 26 -83 50 -59 128 31
97 117 206 230 292 58 44 87 54 87 33z m-1167 -8 c64 -11 101 -39 105 -80 4
-41 -12 -61 -50 -61 -25 0 -29 3 -23 18 33 79 -7 97 -238 109 -65 3 -120 10
-123 15 -6 10 264 10 329 -1z m2906 -25 c25 -25 35 -46 38 -79 5 -40 2 -48
-23 -69 -15 -12 -38 -34 -51 -47 l-23 -24 -23 20 c-29 26 -83 44 -113 37 l-23
-6 20 52 c48 126 68 149 130 150 27 0 43 -8 68 -34z m360 24 c10 -5 24 -24 31
-41 l14 -32 -84 -79 -85 -78 -28 28 -28 28 20 45 c11 24 21 54 21 66 0 49 90
90 139 63z m-5259 -25 c0 -14 -4 -25 -9 -25 -12 0 -23 29 -15 41 10 18 24 9
24 -16z m1136 6 c-4 -5 -25 -12 -49 -16 -59 -10 -241 -76 -310 -113 -181 -97
-316 -227 -479 -462 -87 -125 -140 -185 -195 -217 -43 -25 -57 -27 -202 -33
-167 -7 -198 -16 -268 -74 -44 -37 -86 -128 -85 -184 2 -84 -15 -103 -55 -59
-35 38 -60 99 -71 172 -25 163 20 275 172 434 135 140 279 242 565 397 173 95
266 126 471 157 55 9 511 7 506 -2z m1539 -1 c3 -6 -3 -23 -14 -39 -35 -48
-71 -134 -71 -168 0 -61 49 -79 118 -44 38 20 134 107 191 174 27 33 72 57
106 57 5 0 -11 -21 -36 -47 -52 -55 -109 -127 -109 -139 0 -18 -55 -85 -85
-104 -18 -11 -47 -20 -64 -20 -46 0 -143 36 -163 61 -38 46 -12 159 54 233 39
45 61 56 73 36z m552 -11 c29 -18 32 -23 21 -38 -38 -49 -118 -143 -162 -189
-66 -70 -143 -110 -160 -84 -7 11 41 100 76 141 47 55 179 191 185 191 3 0 21
-9 40 -21z m-3242 -70 c30 -88 9 -120 -149 -227 -38 -26 -97 -68 -130 -94 -33
-26 -62 -46 -63 -44 -1 1 7 28 19 59 19 53 23 57 52 57 71 1 169 68 207 142
20 39 25 122 9 148 -11 18 9 33 27 19 6 -6 19 -33 28 -60z m1950 50 c56 -10
84 -35 63 -55 -10 -10 -29 -9 -88 1 -130 24 -325 66 -330 72 -7 8 297 -7 355
-18z m865 10 c36 -5 68 -13 72 -17 12 -12 -80 -117 -141 -162 -33 -25 -64 -40
-82 -40 -27 0 -29 2 -29 40 0 43 15 79 62 148 32 47 28 46 118 31z m-1476 -5
c16 -6 22 -35 10 -47 -4 -4 -25 3 -46 16 -38 21 -39 22 -16 28 32 10 34 10 52
3z m-1494 -34 c16 -12 30 -28 30 -37 0 -59 -89 -146 -144 -141 -23 2 -36 13
-59 52 l-31 49 32 28 c55 50 119 51 140 4 11 -23 9 -29 -13 -50 -25 -25 -41
-30 -69 -19 -21 8 -20 27 3 48 21 19 35 8 25 -18 -4 -11 -1 -16 10 -16 17 0
32 42 21 59 -11 19 -53 12 -75 -11 -24 -26 -23 -66 2 -81 29 -19 89 3 111 40
17 29 17 34 3 61 -29 55 -93 58 -160 7 -26 -19 -48 -35 -51 -35 -17 0 32 64
58 76 44 20 128 12 167 -16z m80 15 c8 -10 11 -35 8 -69 -5 -65 -40 -122 -98
-160 -47 -31 -118 -45 -130 -26 -13 21 0 40 26 40 92 0 184 116 154 195 -13
35 -13 35 9 35 10 0 24 -7 31 -15z m1485 -32 c4 -27 8 -58 10 -70 2 -13 2 -23
1 -23 -30 0 -296 112 -290 122 12 20 87 7 154 -27 38 -19 72 -35 74 -35 3 0
10 18 16 40 14 53 27 51 35 -7z m178 22 c74 -13 145 -29 158 -34 l24 -9 -28
-7 c-17 -5 -63 1 -122 15 -52 12 -101 20 -108 17 -8 -3 -14 -23 -15 -48 -2
-41 -13 -59 -38 -59 -7 0 -14 10 -18 23 -9 35 -7 127 3 127 5 0 70 -11 144
-25z m-518 -104 c-4 -47 -9 -89 -11 -92 -2 -3 -4 -37 -5 -75 -1 -38 -3 -72 -5
-75 -2 -3 -34 5 -71 17 -38 13 -135 38 -217 57 l-149 33 44 32 c23 18 53 32
65 32 11 0 70 -16 129 -36 59 -19 108 -34 110 -32 2 2 6 35 10 73 10 115 20
141 57 152 18 5 37 8 41 5 5 -2 6 -43 2 -91z m174 29 c76 -33 145 -60 152 -61
22 -1 -44 -28 -70 -29 -13 0 -53 16 -88 35 -44 24 -65 31 -68 22 -2 -6 -11
-48 -19 -92 -13 -64 -21 -85 -47 -110 l-31 -30 6 115 c4 63 9 124 11 135 2 11
4 32 4 48 1 15 3 27 6 27 3 0 68 -27 144 -60z m2098 8 c-14 -18 -49 -80 -78
-137 -41 -81 -54 -118 -57 -163 -5 -66 8 -79 58 -58 57 24 132 124 214 288 42
83 42 54 0 -55 -66 -173 -107 -236 -180 -279 -57 -33 -120 -29 -146 10 -15 22
-7 87 17 143 41 91 180 301 192 289 3 -2 -6 -20 -20 -38z m-1746 15 l54 -16
-60 -18 c-77 -24 -75 -24 -75 9 0 47 4 49 81 25z m1833 3 c19 -8 37 -19 41
-25 14 -23 -98 -213 -169 -286 -66 -70 -91 -54 -61 38 15 47 142 287 151 287
3 0 20 -6 38 -14z m-2467 -18 c-3 -13 -9 -51 -13 -86 -4 -40 -11 -62 -18 -59
-6 2 -51 17 -101 32 -104 32 -104 31 30 96 95 45 109 47 102 17z m-1657 -87
c21 -12 47 -21 58 -21 25 0 34 -11 22 -29 -10 -17 -73 -9 -125 16 -38 18 -54
54 -47 105 l4 28 26 -39 c14 -21 42 -49 62 -60z m2640 80 c83 -19 260 -69 310
-89 l25 -10 -25 -5 c-14 -3 -47 -9 -75 -12 -133 -16 -385 -98 -493 -159 -101
-57 -155 -105 -328 -291 -277 -299 -433 -364 -694 -289 -99 29 -100 31 -33 75
61 39 126 108 295 310 115 137 158 178 262 248 137 93 233 129 596 225 71 18
62 19 160 -3z m-1880 -36 c0 -11 -29 -30 -36 -23 -1 2 0 15 3 31 4 22 8 25 19
16 8 -6 14 -17 14 -24z m2200 -6 c0 -5 -4 -9 -10 -9 -5 0 -10 7 -10 16 0 8 5
12 10 9 6 -3 10 -10 10 -16z m1290 -47 c-9 -26 -32 -106 -51 -178 -28 -112
-31 -134 -20 -148 20 -24 49 -19 80 15 32 34 115 177 147 253 12 28 27 52 33
54 25 8 20 -32 -14 -120 -20 -51 -44 -112 -54 -136 -30 -80 -121 -162 -179
-162 -38 0 -82 62 -82 116 0 31 38 144 92 277 31 75 44 95 53 87 10 -9 9 -20
-5 -58z m1486 34 c5 -14 -48 -156 -70 -188 -12 -16 -15 -17 -26 -3 -7 8 -30
20 -51 27 -38 11 -39 12 -33 47 4 20 13 48 20 63 16 31 69 74 99 80 24 5 54
-8 61 -26z m1144 -22 c-5 -19 -10 -37 -12 -39 -5 -5 -205 -98 -246 -115 -27
-11 -32 -17 -27 -34 4 -12 24 -86 45 -166 21 -80 41 -152 44 -160 7 -16 -61
-106 -72 -96 -2 3 -6 22 -9 42 -2 19 -35 129 -72 242 -38 114 -66 210 -63 214
4 3 63 27 132 52 69 25 159 58 200 75 41 16 78 27 81 25 4 -2 3 -20 -1 -40z
m-2486 -39 c-13 -33 -23 -51 -100 -191 -39 -70 -80 -112 -94 -98 -13 13 22
155 85 350 2 8 22 6 63 -8 l60 -19 -14 -34z m-4156 -6 c30 -43 23 -84 -18
-120 -59 -50 -156 -63 -212 -29 -24 14 -28 20 -14 20 23 0 153 29 184 41 32
13 29 38 -5 36 -23 -2 -29 2 -31 25 -2 15 4 41 13 58 15 29 18 31 38 17 12 -8
32 -29 45 -48z m1699 36 c24 -11 43 -23 43 -26 0 -3 -27 -22 -61 -42 -57 -34
-61 -35 -55 -14 3 12 8 41 12 65 4 23 10 41 13 40 4 -2 25 -12 48 -23z m3573
-11 c22 -26 30 -43 26 -58 -3 -11 -6 -26 -6 -33 0 -7 -24 -28 -54 -47 -29 -18
-63 -50 -76 -70 -12 -20 -27 -35 -34 -32 -54 23 -86 28 -115 18 -17 -6 -31 -9
-31 -6 0 3 17 31 38 62 21 31 51 78 66 103 44 77 70 99 114 99 33 0 45 -6 72
-36z m296 -37 c40 -117 9 -297 -94 -547 -86 -212 -163 -328 -309 -470 -166
-162 -310 -286 -398 -345 -128 -86 -305 -136 -485 -139 -89 -1 -112 2 -152 21
-27 12 -48 27 -48 33 0 25 223 223 338 300 76 50 128 77 387 200 71 33 153 79
182 101 112 84 187 200 278 431 36 89 53 118 103 173 61 67 130 185 152 262 7
23 16 40 21 38 4 -3 15 -29 25 -58z m-2585 27 c12 -34 9 -37 -31 -23 l-33 12
24 18 c30 23 28 24 40 -7z m1259 -101 c-21 -54 -48 -135 -61 -181 l-22 -83 20
-21 c26 -26 53 -18 86 25 29 38 107 192 133 260 16 45 37 67 50 54 7 -7 -41
-183 -65 -241 -47 -109 -117 -176 -183 -176 -72 0 -92 62 -55 166 59 167 113
294 123 294 7 0 -4 -39 -26 -97z m-4443 47 c32 0 45 -5 53 -20 12 -23 -3 -33
-63 -44 -53 -10 -74 0 -97 44 -29 56 -25 61 23 40 23 -11 61 -20 84 -20z
m4587 20 c19 -19 -97 -255 -155 -315 l-29 -30 0 42 c0 47 28 145 73 252 l31
73 34 -6 c20 -3 40 -10 46 -16z m-1439 -31 c58 -22 105 -43 105 -46 0 -14
-245 24 -307 48 -33 12 -26 19 34 29 26 4 51 8 55 9 4 0 55 -17 113 -40z
m3660 -66 c-13 -49 -28 -101 -35 -118 -23 -63 -94 -205 -101 -205 -5 0 -15 24
-23 53 -39 140 -67 249 -64 252 8 8 224 104 235 105 8 0 4 -27 -12 -87z
m-2085 71 c0 -3 -4 -14 -10 -24 -15 -27 -80 -283 -80 -312 0 -30 21 -51 42
-43 38 15 88 122 128 273 19 71 40 106 54 91 7 -8 -33 -212 -54 -275 -19 -57
-55 -115 -85 -136 -5 -4 -25 -8 -42 -8 -82 0 -82 103 -1 373 12 41 25 67 34
67 8 0 14 -3 14 -6z m75 -15 c11 -16 -60 -234 -98 -301 -44 -79 -49 -30 -12
112 44 171 48 185 57 196 9 12 45 8 53 -7z m-1849 -8 c76 -24 150 -37 280 -50
95 -10 223 -46 246 -69 5 -5 -26 -1 -69 9 -128 29 -289 39 -458 27 -163 -11
-337 -5 -399 13 -53 15 -40 21 120 58 154 35 199 37 280 12z m1971 -30 c-3
-14 -12 -60 -22 -101 -9 -41 -17 -100 -18 -130 -2 -53 -1 -55 26 -58 51 -6
125 94 191 261 14 34 18 37 55 37 23 0 41 -3 41 -6 0 -24 -204 -296 -269 -358
-37 -36 -43 -38 -66 -28 -41 19 -50 56 -31 132 9 36 25 110 36 165 25 125 26
126 46 118 11 -4 14 -14 11 -32z m-3569 14 c96 -20 332 -87 332 -95 0 -3 -22
-29 -48 -58 l-49 -53 -123 61 c-68 33 -129 59 -136 56 -9 -4 -10 -15 -2 -48 5
-24 22 -103 37 -175 l27 -133 -31 -30 c-17 -16 -34 -30 -37 -30 -3 0 -9 24
-13 53 -3 28 -15 111 -25 182 -28 195 -35 285 -21 285 7 0 47 -7 89 -15z
m3724 -2 c18 -10 -69 -193 -115 -240 -31 -33 -51 -41 -62 -24 -8 15 47 252 63
268 11 10 27 12 61 7 25 -4 49 -8 53 -11z m-1592 -18 c0 -29 2 -28 -40 -14
l-33 12 24 13 c36 20 49 17 49 -11z m-2258 -2 c0 -5 2 -20 3 -34 8 -107 18
-196 30 -269 27 -168 28 -180 6 -180 -10 0 -63 18 -117 39 -55 21 -127 47
-162 56 l-64 18 29 28 28 29 90 -32 c51 -18 98 -29 108 -25 19 7 18 21 -8 222
l-14 100 26 28 c27 27 42 34 45 20z m5178 4 c0 -1 27 -81 61 -177 55 -159 95
-317 82 -330 -9 -9 -513 -12 -513 -3 0 5 18 26 39 47 l39 38 163 -7 c157 -7
162 -7 154 11 -11 24 -58 170 -80 248 l-17 59 28 59 c15 32 31 58 36 58 4 0 8
-1 8 -3z m-2605 -48 c-8 -23 -15 -57 -15 -75 0 -19 -3 -34 -7 -34 -13 0 -113
45 -113 50 0 3 16 14 36 25 20 11 53 32 73 47 20 15 37 28 38 28 1 0 -4 -19
-12 -41z m1770 16 c14 -13 25 -29 25 -35 0 -26 -194 -200 -223 -200 -3 0 -2
14 3 31 7 22 5 42 -6 67 -14 35 -14 36 24 81 66 79 133 101 177 56z m-3050
-22 c44 -16 89 -17 375 -15 312 2 431 -6 525 -35 28 -9 -30 -28 -176 -58 -88
-18 -126 -21 -155 -14 -53 12 -288 11 -404 -2 -111 -12 -353 -14 -392 -2 -15
4 -29 12 -30 17 -5 17 160 119 202 125 3 0 28 -7 55 -16z m-1363 -165 c9 -73
15 -134 14 -135 -2 -3 -167 47 -178 53 -8 5 129 214 140 214 5 0 16 -60 24
-132z m319 62 c46 -24 86 -44 88 -46 6 -5 -138 -194 -148 -194 -6 0 -42 143
-66 268 -6 31 -6 32 18 23 14 -5 62 -28 108 -51z m3844 20 c8 -7 19 -27 25
-46 17 -50 -2 -100 -44 -118 -39 -16 -233 -62 -301 -72 l-50 -6 51 53 c27 30
69 80 93 111 23 31 53 63 65 72 53 34 124 36 161 6z m-1602 -44 c84 -36 174
-71 200 -77 26 -7 47 -16 47 -19 0 -3 -35 -13 -78 -24 -122 -30 -447 -124
-562 -163 -218 -74 -272 -113 -481 -346 -193 -215 -247 -246 -413 -235 -60 4
-85 11 -145 44 -40 21 -89 53 -109 70 l-36 31 24 13 c46 24 105 83 173 174 83
111 132 157 266 247 192 130 305 177 592 248 112 28 236 62 274 75 39 14 76
25 83 25 7 1 82 -28 165 -63z m351 -64 c9 -27 5 -27 -72 -1 -57 19 -81 39 -48
39 7 0 33 18 57 39 l44 39 6 -47 c4 -26 9 -57 13 -69z m2287 -48 c16 -56 29
-104 29 -108 0 -9 -223 -7 -236 2 -7 4 19 50 74 131 98 142 84 144 133 -25z
m773 105 c46 -13 120 -79 147 -131 47 -92 61 -241 34 -357 -15 -61 -90 -221
-104 -221 -4 0 -12 37 -18 83 -15 108 -49 185 -102 227 -33 27 -41 40 -41 67
0 52 -26 92 -73 114 -51 23 -76 24 -105 3 -26 -18 -31 -74 -8 -93 19 -16 29 0
20 33 -5 21 -2 26 21 32 34 9 48 -6 37 -37 -12 -31 -40 -56 -73 -64 -36 -9
-86 34 -95 81 -12 64 13 123 82 191 34 35 73 67 86 72 32 13 145 13 192 0z
m-4837 -14 c72 -19 191 -19 358 0 149 17 405 20 405 5 0 -5 -12 -13 -27 -16
-16 -4 -66 -23 -113 -41 -63 -25 -111 -37 -185 -44 -55 -5 -174 -23 -265 -41
-177 -33 -369 -43 -393 -19 -8 8 8 31 68 91 44 44 83 80 87 80 4 0 33 -7 65
-15z m2019 -132 c-2 -2 -86 16 -106 23 -11 4 -5 11 20 24 19 10 44 28 55 40
l20 22 7 -53 c3 -30 6 -55 4 -56z m277 58 c-4 -33 -1 -58 9 -79 l15 -30 -41 5
c-22 2 -56 6 -75 9 l-33 5 40 35 c22 19 50 50 62 69 12 19 23 35 25 35 2 0 1
-22 -2 -49z m776 -98 c-114 -209 -176 -269 -394 -383 -323 -168 -377 -198
-465 -253 -116 -72 -268 -181 -415 -297 -124 -98 -143 -110 -179 -110 -38 0
-32 11 27 52 28 20 99 77 157 128 156 136 253 195 605 370 290 144 330 167
427 245 109 87 161 148 228 268 17 31 36 57 42 57 5 0 -10 -35 -33 -77z m16
-24 c-50 -100 -125 -216 -187 -291 -48 -57 -121 -107 -213 -143 -118 -47 -320
-153 -404 -213 -43 -31 -129 -102 -191 -157 -61 -54 -127 -110 -147 -123 -54
-37 -153 -80 -203 -87 -40 -7 -43 -6 -31 9 7 9 47 42 88 74 304 232 414 306
648 430 344 184 390 210 443 252 66 53 123 130 189 257 26 50 49 90 51 88 2
-2 -17 -45 -43 -96z m-1285 81 c12 -7 12 -13 1 -33 -12 -23 -18 -24 -92 -23
-43 1 -79 3 -79 6 1 39 128 77 170 50z m1231 -47 c-51 -102 -165 -219 -296
-307 -83 -56 -123 -76 -468 -246 -236 -116 -290 -150 -472 -301 -175 -143
-242 -189 -277 -189 -38 0 -35 11 10 33 20 10 65 41 99 70 34 29 104 88 156
132 100 85 185 139 363 231 562 292 743 414 812 551 23 44 38 59 67 65 28 6
29 4 6 -39z m-2597 23 c-54 -38 -146 -75 -214 -86 -41 -6 -118 -22 -170 -35
-145 -36 -254 -48 -329 -36 -35 6 -66 13 -69 16 -3 3 17 29 45 56 l51 51 71
-12 c85 -16 224 -3 391 35 58 13 136 24 175 24 62 1 67 0 49 -13z m1431 4 c3
-5 -1 -10 -10 -10 -9 0 -13 5 -10 10 3 6 8 10 10 10 2 0 7 -4 10 -10z m649
-42 c-6 -9 -64 -11 -64 -3 0 3 10 16 22 30 l22 25 12 -22 c7 -13 10 -26 8 -30z
m-904 18 c0 -27 -91 -73 -155 -79 -34 -2 -84 -13 -112 -23 -49 -17 -51 -17
-76 3 l-26 20 57 18 c68 22 270 72 295 74 9 1 17 -5 17 -13z m338 -22 c4 -30
-31 -56 -80 -59 -24 -1 -55 -6 -70 -10 -27 -7 -28 -7 -17 24 19 55 160 93 167
45z m983 -16 c-105 -151 -242 -244 -736 -498 -299 -154 -332 -176 -532 -354
-103 -91 -169 -128 -220 -124 -51 4 -52 24 -2 31 81 11 157 60 319 207 175
160 230 196 432 285 232 102 259 115 328 155 37 21 89 56 117 77 52 39 76 60
216 191 90 83 125 96 78 30z m-881 14 c0 -5 -16 -13 -35 -19 -19 -6 -35 -10
-35 -8 0 2 3 10 6 19 6 16 64 23 64 8z m-305 -18 c14 -15 14 -19 -4 -48 -32
-51 -76 -76 -137 -76 -29 0 -60 -3 -69 -7 -15 -5 -16 -3 -6 16 7 12 11 31 9
43 -2 16 6 27 31 41 77 46 148 58 176 31z m1025 -77 c-102 -99 -186 -162 -290
-220 -68 -37 -307 -147 -318 -146 -4 0 69 38 161 84 219 110 312 172 428 283
52 50 99 91 104 91 6 0 -33 -41 -85 -92z m-3903 0 c57 -23 103 -45 103 -49 0
-4 -11 -11 -26 -14 -17 -4 -52 5 -112 30 -48 20 -92 36 -96 36 -9 0 -3 -55 10
-98 6 -21 4 -23 -21 -20 -26 3 -30 10 -56 93 -16 50 -29 93 -29 97 0 9 106
-26 227 -75z m3903 75 c0 -10 -117 -122 -160 -153 -60 -43 -287 -164 -572
-304 -255 -125 -281 -140 -398 -234 -151 -120 -205 -154 -302 -188 -64 -23
-89 -26 -198 -27 -133 0 -204 18 -264 65 -33 26 -33 34 3 49 29 12 77 59 219
218 141 157 285 232 652 338 225 65 391 121 505 171 l100 43 185 11 c101 5
186 12 189 15 7 7 41 4 41 -4z m-4127 -85 c31 -95 31 -97 16 -97 -16 0 -159
82 -159 92 0 4 21 -2 46 -12 25 -11 48 -20 50 -20 2 0 4 27 4 60 0 33 4 60 8
60 4 0 20 -37 35 -83z m3494 68 c12 -9 20 -22 17 -30 -5 -12 -170 -85 -193
-85 -5 0 -9 10 -9 23 -1 12 -3 31 -4 41 -2 15 10 23 62 42 78 27 99 29 127 9z
m123 6 c0 -7 -51 -31 -66 -31 -2 0 -4 9 -4 20 0 16 7 20 35 20 19 0 35 -4 35
-9z m-2030 -51 c-137 -117 -244 -154 -445 -155 -124 0 -255 18 -255 35 0 5 22
27 49 49 43 37 52 40 76 31 14 -5 73 -10 130 -10 102 0 197 15 380 59 105 25
106 25 65 -9z m-1650 -6 c0 -8 -10 -14 -25 -14 -29 0 -32 8 -8 26 20 14 33 10
33 -12z m2677 -9 c35 -23 29 -59 -18 -106 l-40 -40 -29 30 c-25 27 -35 31 -83
31 -52 0 -110 -19 -162 -53 -14 -8 -41 -11 -85 -7 l-65 5 56 32 c75 42 161 78
261 108 86 26 125 26 165 0z m251 -6 c2 -9 -17 -38 -41 -65 l-45 -49 -78 -6
c-80 -5 -97 -3 -78 9 14 9 44 67 44 85 0 40 191 65 198 26z m396 11 c32 -12
34 -43 4 -65 -22 -15 -167 -65 -189 -65 -6 0 -7 4 -4 10 3 5 1 19 -5 30 -15
28 -3 42 63 75 54 27 90 31 131 15z m-3084 -57 c33 -14 57 -29 53 -33 -16 -15
-93 -28 -99 -18 -8 12 -23 78 -19 78 2 0 31 -12 65 -27z m2858 -31 c25 -33 9
-46 -103 -84 -139 -46 -142 -46 -141 -5 1 27 9 37 50 65 26 17 62 36 80 41 41
13 98 4 114 -17z m2552 20 c0 -4 -27 -34 -59 -66 l-59 -58 -124 17 c-67 10
-139 19 -158 19 l-35 1 -26 -129 c-19 -93 -31 -133 -44 -142 -32 -24 -43 -17
-39 24 16 164 38 313 48 322 7 5 90 11 187 13 96 1 204 4 242 5 37 1 67 -2 67
-6z m-553 -174 c-28 -237 -23 -220 -60 -213 -43 9 -235 74 -270 92 l-29 15 46
24 46 24 57 -19 c91 -30 113 -33 118 -19 2 7 6 49 9 93 5 79 5 80 48 117 24
21 45 38 48 38 3 0 -3 -69 -13 -152z m-2524 101 c28 -35 4 -62 -64 -71 -30 -4
-67 -11 -82 -17 -39 -15 -44 -14 -50 12 -2 12 -8 30 -12 39 -5 12 2 21 27 34
78 40 150 41 181 3z m-1084 14 c0 -5 -21 -37 -47 -72 -40 -55 -55 -67 -102
-84 -76 -28 -217 -27 -323 1 -79 22 -207 77 -207 90 0 4 25 20 55 35 l54 29
51 -17 c78 -26 364 -24 445 3 70 23 75 24 74 15z m4732 -24 c31 -33 52 -93 70
-196 14 -78 6 -123 -26 -153 l-25 -23 0 59 c-1 116 -32 249 -70 296 -11 15
-20 31 -20 37 0 22 43 10 71 -20z m-3407 -15 c34 -33 15 -59 -78 -106 -33 -17
-73 -39 -88 -50 -28 -19 -28 -19 -28 2 0 11 -7 37 -15 57 -18 44 -12 53 58 87
60 29 128 34 151 10z m2846 -10 c0 -25 -145 -163 -235 -224 -91 -61 -212 -119
-314 -150 -66 -20 -121 -21 -121 -2 0 4 40 25 88 45 159 68 375 195 501 296
68 55 81 60 81 35z m-3357 -5 c52 -14 64 -46 38 -104 -13 -29 -30 -49 -53 -60
-18 -10 -41 -24 -50 -32 -16 -14 -20 -13 -42 14 -32 38 -75 56 -121 51 -19 -2
-35 -1 -35 3 0 15 130 128 152 132 42 8 73 7 111 -4z m3162 -29 l40 -1 -30
-25 c-31 -25 -235 -147 -269 -160 -15 -6 -17 -3 -12 12 3 10 12 59 21 107 8
49 17 92 20 96 2 5 46 0 97 -10 51 -10 111 -18 133 -19z m702 -13 c29 -57 43
-135 43 -241 0 -78 0 -79 -37 -112 -42 -38 -53 -42 -53 -16 0 9 -9 31 -19 49
l-20 31 24 16 c83 54 85 117 6 141 -21 6 -22 9 -10 19 25 18 49 59 49 82 0 11
-9 29 -20 39 -24 22 -26 48 -3 43 9 -2 27 -24 40 -51z m-1181 -28 c-3 -34 -8
-64 -10 -66 -8 -8 -107 28 -104 38 3 8 108 89 116 89 2 0 2 -28 -2 -61z
m-4144 16 c137 -73 298 -106 422 -87 40 6 81 14 92 18 36 13 -22 -40 -70 -64
-113 -57 -237 -50 -375 19 -79 40 -172 105 -178 126 -4 10 6 15 37 22 3 0 35
-15 72 -34z m4864 20 c10 -24 -5 -36 -27 -24 -16 8 -18 13 -8 25 15 18 28 18
35 -1z m398 -11 c9 -3 16 -16 16 -28 0 -25 -57 -89 -74 -83 -6 2 -12 22 -14
44 -4 57 26 85 72 67z m-3555 -19 c38 -19 57 -65 40 -96 -15 -29 -99 -119
-110 -119 -5 0 -9 11 -9 24 0 34 -60 96 -94 96 -14 0 -26 4 -26 9 0 17 51 63
92 81 52 24 70 24 107 5z m3231 2 c0 -34 -134 -204 -254 -321 -126 -123 -178
-145 -261 -108 l-39 18 78 42 c43 23 101 58 130 77 71 47 207 175 262 246 42
55 84 78 84 46z m225 -84 c-13 -176 -59 -364 -93 -382 -23 -11 -92 -21 -92
-13 0 4 9 22 21 41 46 76 107 265 124 386 9 59 12 65 32 65 13 0 14 -14 8 -97z
m-132 67 c14 -13 -2 -48 -31 -68 -29 -20 -93 -45 -99 -38 -4 3 23 48 62 104
16 22 45 23 68 2z m66 11 c18 -12 1 -106 -45 -246 -50 -153 -109 -245 -158
-245 -62 1 -212 22 -221 31 -7 8 0 10 27 5 72 -13 134 42 124 108 l-6 36 46 0
c58 0 105 22 127 59 22 37 22 65 0 103 -16 27 -16 32 -3 36 28 10 70 60 70 85
0 35 13 45 39 28z m-271 -14 c7 -8 7 -17 -2 -30 -15 -19 -33 -22 -56 -7 -12 7
-12 12 4 29 22 24 39 27 54 8z m-65 -61 c17 -13 18 -16 2 -39 -23 -36 -45 -41
-68 -18 -20 19 -20 20 9 45 34 30 33 30 57 12z m-3452 -26 c27 -15 51 -67 44
-93 -22 -77 -40 -109 -68 -123 -31 -17 -32 -17 -58 28 -12 23 -74 54 -122 63
l-37 7 38 46 c20 25 51 54 67 64 33 20 105 24 136 8z m260 -38 c44 -39 43 -89
0 -166 -18 -31 -37 -56 -43 -56 -5 0 -19 11 -29 24 -22 28 -77 49 -113 44 -14
-2 -26 -1 -27 2 -3 11 34 126 45 139 16 21 66 40 103 41 22 0 43 -9 64 -28z
m3692 7 c45 -12 48 -35 10 -71 -38 -35 -90 -61 -98 -48 -3 5 -1 35 4 67 6 31
11 58 11 60 0 6 36 3 73 -8z m-1419 -11 c-25 -43 -136 -197 -156 -215 -18 -17
-41 -24 -97 -29 -48 -5 -72 -4 -70 3 6 15 196 174 259 216 57 38 76 46 64 25z
m108 -6 c24 -10 79 -31 123 -47 97 -33 107 -41 70 -55 -37 -14 -93 -5 -168 28
-67 29 -64 31 -123 -66 -38 -63 -43 -67 -85 -73 -24 -4 -46 -5 -48 -3 -4 4
114 170 147 207 30 32 29 32 84 9z m733 -2 c18 -20 18 -21 -3 -43 -21 -20 -24
-21 -49 -7 -36 21 -38 32 -6 52 35 22 36 22 58 -2z m290 -10 c27 -30 13 -83
-29 -109 -37 -23 -110 -28 -150 -10 l-25 12 52 63 c48 58 55 63 93 63 29 1 46
-5 59 -19z m-2357 -15 c-3 -3 -33 -22 -66 -43 -34 -20 -127 -95 -207 -167
-164 -146 -242 -199 -322 -215 -75 -16 -102 -4 -46 21 58 25 143 83 235 162
105 89 143 114 283 186 115 58 135 67 123 56z m1991 -39 l22 -24 -36 -22 -36
-22 -25 23 c-30 28 -30 31 4 51 36 23 44 22 71 -6z m-628 -38 c30 -12 57 -24
62 -28 4 -4 -35 -19 -88 -35 -52 -15 -97 -26 -99 -24 -6 6 55 109 64 109 4 0
32 -10 61 -22z m-2828 -9 c66 -34 87 -83 66 -156 l-12 -45 -46 6 c-95 13 -270
83 -271 108 0 4 24 20 53 34 28 15 63 35 76 45 27 22 100 26 134 8z m3362 -15
c9 -14 15 -27 13 -29 -2 -1 -14 -8 -27 -15 -20 -10 -26 -9 -52 16 -26 25 -27
28 -11 40 27 21 58 16 77 -12z m713 -20 c16 -11 22 -25 22 -53 0 -37 -2 -39
-61 -65 -34 -15 -63 -25 -65 -24 -3 4 32 134 41 148 9 15 37 12 63 -6z m-805
-22 c43 -45 1 -60 -53 -20 -23 16 -27 25 -19 35 18 21 43 15 72 -15z m376 -6
c18 -39 5 -75 -37 -99 -34 -20 -61 -16 -106 18 -19 14 -17 17 35 65 61 56 87
60 108 16z m-3344 -2 c8 -4 22 -19 30 -35 14 -26 13 -30 -6 -48 -39 -36 -92
-55 -166 -59 -41 -2 -73 0 -73 5 0 5 7 30 16 56 22 66 53 87 125 87 31 0 65
-3 74 -6z m2890 -24 c16 -16 26 -33 22 -36 -8 -8 -137 37 -137 47 0 8 28 15
66 18 11 0 33 -12 49 -29z m292 -80 c8 -29 2 -34 -37 -31 -46 4 -47 7 -19 30
31 26 50 26 56 1z"/>
<path d="M1127 3863 c-4 -3 -7 -11 -7 -17 0 -6 5 -5 12 2 6 6 9 14 7 17 -3 3
-9 2 -12 -2z"/>
</g>
</svg>
