<?xml version="1.0" standalone="no"?>
<!DOCTYPE svg PUBLIC "-//W3C//DTD SVG 20010904//EN"
 "http://www.w3.org/TR/2001/REC-SVG-20010904/DTD/svg10.dtd">
<svg version="1.0" xmlns="http://www.w3.org/2000/svg"
 width="850.000000pt" height="850.000000pt" viewBox="0 0 850.000000 850.000000"
 preserveAspectRatio="xMidYMid meet">
<metadata>
Created by potrace 1.14, written by Peter Selinger 2001-2017
</metadata>
<g transform="translate(0.000000,850.000000) scale(0.100000,-0.100000)"
fill="#000000" stroke="none">
<path d="M3681 8491 c-41 -11 -37 -31 6 -31 77 -1 119 -12 171 -46 28 -19 52
-35 52 -37 0 -1 -46 -2 -103 -3 -168 -1 -287 -42 -386 -134 -73 -67 -59 -83
33 -35 76 40 137 51 76 14 -19 -12 -52 -35 -73 -52 l-38 -30 -82 17 c-117 23
-201 21 -286 -8 -140 -47 -242 -128 -290 -230 -41 -86 -71 -202 -78 -298 -9
-131 16 -214 138 -453 56 -110 141 -297 188 -415 48 -119 99 -237 114 -263 25
-42 136 -147 156 -147 11 0 21 -92 13 -105 -6 -9 -15 -187 -15 -305 0 -25 11
-74 24 -110 23 -60 30 -69 91 -110 37 -25 67 -48 68 -52 0 -4 -23 -34 -50 -67
l-51 -61 21 -39 c11 -22 20 -50 20 -61 0 -12 -23 -65 -51 -119 -43 -82 -54
-117 -76 -228 -31 -157 -30 -158 68 -215 48 -29 74 -38 109 -38 32 0 56 -7 83
-25 20 -14 37 -29 37 -32 0 -3 -34 -103 -75 -220 -76 -217 -80 -243 -43 -256
14 -4 12 -11 -120 -372 -39 -107 -66 -196 -62 -204 4 -7 36 -30 71 -50 l64
-37 -3 -261 c-1 -143 -7 -273 -12 -289 -33 -107 -94 -242 -192 -427 -62 -116
-124 -237 -137 -267 -44 -103 -93 -334 -150 -720 -46 -306 -87 -438 -206 -665
-208 -397 -223 -525 -80 -679 l64 -69 103 -9 c57 -5 126 -7 153 -4 28 3 68 1
89 -4 63 -14 92 -3 131 50 79 108 92 217 40 341 -21 51 -28 88 -35 184 -4 66
-13 140 -20 165 -11 41 -9 64 25 245 44 238 91 387 184 584 118 250 190 427
230 569 21 75 51 166 66 202 15 36 40 101 55 145 15 44 54 139 85 209 31 71
86 219 122 328 40 124 69 198 76 195 6 -2 18 -27 27 -56 20 -71 40 -84 113
-77 58 6 96 20 109 40 4 6 8 30 8 53 l0 41 63 4 c34 2 64 3 66 1 2 -1 25 -66
51 -145 70 -210 283 -774 318 -843 25 -51 110 -249 253 -590 17 -38 76 -158
133 -265 143 -268 157 -298 210 -438 60 -159 67 -220 33 -285 -19 -36 -26 -62
-25 -105 0 -58 -29 -168 -62 -232 -10 -19 -40 -60 -66 -90 -26 -30 -54 -71
-62 -90 -18 -44 -18 -136 1 -181 18 -43 74 -109 93 -109 7 0 28 -18 45 -40 32
-40 33 -40 93 -38 34 1 123 -1 199 -4 l139 -6 83 74 c111 99 140 155 139 269
0 48 -9 113 -22 164 -14 52 -22 114 -22 163 0 66 -5 91 -29 146 -16 37 -32 85
-36 107 -4 22 -35 110 -70 195 -58 144 -121 341 -194 605 -47 169 -88 286
-158 450 -80 188 -147 314 -253 479 -149 232 -171 301 -190 588 -6 90 -15 210
-19 266 l-7 104 48 24 c31 16 50 33 54 48 3 13 25 38 50 56 61 47 63 61 16
128 -22 31 -72 115 -111 186 -70 128 -71 130 -52 148 35 32 36 78 3 144 -16
32 -39 88 -50 124 -37 111 -122 462 -122 500 0 20 12 81 26 135 14 55 39 158
54 228 16 71 37 140 47 154 44 62 53 80 53 104 0 15 12 52 26 84 35 76 55 310
35 408 -24 118 -81 177 -171 177 -17 0 -30 2 -30 5 0 3 13 23 28 44 15 21 36
67 46 102 10 35 25 84 35 109 l16 45 3 -53 c2 -29 -4 -80 -12 -113 -20 -75
-20 -79 -1 -79 8 0 31 32 52 73 l38 72 0 195 c0 190 1 197 30 280 28 81 29 93
28 240 -1 140 -3 163 -28 235 -51 154 -87 208 -228 344 -135 132 -194 177
-286 219 -48 23 -70 26 -151 27 -52 0 -114 -3 -137 -8 -39 -6 -43 -5 -43 12 0
11 -4 22 -9 25 -4 3 -10 36 -13 74 -12 167 -141 318 -318 373 -61 19 -152 23
-199 10z m366 -168 c57 -63 94 -134 100 -197 5 -49 3 -54 -16 -61 -17 -5 -32
5 -77 54 -31 34 -65 61 -75 61 -28 0 -24 -9 21 -47 53 -46 51 -56 -7 -27 -84
43 -105 23 -23 -22 50 -27 63 -44 35 -44 -8 0 -21 -11 -30 -24 -19 -28 -65
-25 -65 5 0 25 -52 33 -154 25 -101 -8 -148 -21 -198 -52 -55 -35 -58 -24 -6
21 76 65 171 102 311 120 30 4 47 11 47 20 0 7 8 15 17 17 13 2 6 12 -26 37
-52 42 -144 80 -191 81 -65 1 -63 16 3 28 87 16 146 15 198 -3 56 -20 83 -46
122 -120 30 -57 32 -58 35 -30 6 48 -15 101 -69 172 -44 57 -47 64 -22 49 15
-10 47 -38 70 -63z m-242 -108 c30 -14 30 -14 -16 -9 -54 7 -142 -9 -202 -37
-66 -29 -77 -22 -18 13 83 48 176 61 236 33z m-412 -131 c63 -26 68 -30 64
-54 -11 -51 -27 -80 -45 -80 -10 0 -23 -5 -29 -11 -16 -16 -92 -1 -111 22 -19
22 -70 25 -78 4 -3 -8 -30 -21 -59 -30 -66 -19 -62 -19 -68 5 -3 12 -14 20
-25 20 -24 0 -55 -27 -46 -41 8 -13 -13 -37 -47 -55 -22 -11 -33 -12 -53 -3
-20 9 -29 9 -41 -1 -17 -14 -20 -56 -5 -65 16 -10 -8 -45 -31 -45 -13 0 -19 5
-16 13 38 100 44 168 11 122 -63 -86 -80 -342 -32 -487 14 -43 64 -148 111
-235 47 -87 111 -223 142 -303 104 -267 161 -349 268 -389 97 -36 151 -24 229
48 53 49 82 104 101 196 l15 70 1 -110 c1 -137 -10 -179 -61 -227 -36 -36 -43
-38 -101 -38 -45 0 -71 -6 -96 -21 -31 -19 -39 -20 -74 -9 -53 16 -137 100
-176 177 -16 34 -66 152 -111 264 -44 112 -101 242 -125 289 -150 282 -182
377 -172 515 15 208 87 342 231 424 111 64 140 72 256 68 88 -4 116 -9 173
-33z m765 -66 c22 -22 13 -66 -19 -103 -17 -19 -35 -35 -40 -35 -17 0 -89 73
-89 90 0 26 26 43 55 36 16 -4 34 -1 48 9 26 18 30 18 45 3z m-317 -19 c-24
-5 -61 -17 -82 -27 -21 -11 -36 -15 -32 -10 11 19 88 48 123 47 34 -1 34 -1
-9 -10z m683 -69 c82 -35 149 -85 272 -204 128 -123 152 -157 216 -311 33 -79
33 -81 32 -235 -1 -197 -16 -235 -32 -82 -6 59 -20 133 -31 163 -20 52 -79
144 -87 136 -2 -2 5 -26 17 -52 46 -103 60 -176 66 -325 3 -80 3 -143 1 -140
-3 3 -15 55 -28 115 -12 61 -30 130 -41 154 -14 32 -22 84 -28 185 -5 78 -14
157 -20 177 -30 98 -164 246 -279 307 -79 42 -188 66 -264 57 -49 -6 -62 -4
-88 15 -57 41 -28 55 41 20 37 -19 59 -20 59 -1 0 4 -12 14 -27 21 l-28 14 35
7 c54 12 163 1 214 -21z m-559 -6 c25 -27 32 -44 17 -44 -9 0 -75 -56 -167
-142 -34 -32 -65 -55 -68 -51 -4 3 -7 19 -7 34 0 16 -9 54 -21 84 l-21 57 22
23 c38 41 99 65 163 65 50 0 61 -4 82 -26z m241 -59 c14 -11 15 -14 4 -15 -8
0 -36 -11 -62 -25 -55 -29 -58 -30 -58 -10 0 8 6 15 14 15 8 0 28 11 43 25 33
29 34 29 59 10z m350 -79 c73 -37 104 -59 151 -110 68 -74 119 -156 128 -206
l6 -35 -22 35 c-50 78 -101 138 -144 169 -25 18 -45 30 -45 27 0 -3 30 -43 66
-88 106 -131 156 -255 153 -382 l-1 -51 -13 72 c-15 79 -20 93 -37 93 -8 0 -9
-27 -5 -84 3 -47 3 -116 0 -155 l-6 -70 -29 82 c-16 45 -38 124 -49 175 -23
108 -50 186 -82 233 -23 33 -54 53 -44 28 56 -139 121 -411 85 -355 -93 142
-154 230 -190 273 -24 28 -58 77 -76 107 -18 31 -38 56 -43 56 -21 0 -19 -30
4 -67 33 -52 63 -113 103 -206 l34 -79 -73 79 c-158 168 -201 220 -223 268
-13 28 -24 58 -24 68 0 24 -18 57 -30 57 -31 0 8 -149 70 -276 27 -54 48 -99
47 -100 -1 -1 -26 28 -54 64 -57 72 -100 167 -110 240 -7 58 -20 77 -39 61 -8
-6 -14 -18 -14 -25 0 -8 -4 -14 -8 -14 -11 0 -78 -89 -99 -131 -9 -19 -22 -56
-29 -84 l-12 -50 -1 55 c-1 67 23 122 73 169 42 41 45 51 12 51 -15 0 -38 -16
-65 -45 -22 -24 -41 -46 -42 -47 0 -2 -6 -44 -12 -95 -10 -73 -15 -91 -26 -84
-10 7 -11 13 -1 31 17 33 3 37 -26 8 -17 -16 -34 -55 -49 -109 -13 -46 -35
-109 -49 -139 l-25 -55 0 46 c-1 67 33 169 95 286 58 109 62 123 40 123 -17 0
-70 -85 -119 -190 -20 -41 -36 -67 -36 -58 -1 24 47 175 71 222 27 53 113 142
168 174 40 24 54 27 129 25 61 -2 92 2 115 14 75 39 139 53 225 49 75 -4 93
-9 177 -50z m-456 -270 c20 -61 89 -156 186 -256 l94 -97 -40 -27 c-74 -49
-43 -75 53 -43 53 18 59 18 76 3 22 -20 45 -21 37 -1 -3 8 -9 22 -13 31 -4 12
-2 15 8 12 8 -2 20 -25 28 -51 18 -60 37 -56 33 6 -3 41 -1 47 16 47 60 0 97
-89 73 -172 -12 -39 -13 -40 -33 -21 -16 15 -37 18 -110 18 -86 0 -91 -1 -111
-27 -57 -72 -68 -88 -57 -88 7 0 10 -7 7 -15 -10 -24 9 -26 63 -5 70 28 120
26 180 -7 l51 -28 20 24 c13 17 17 27 10 34 -7 7 -6 16 6 29 15 17 14 18 -12
18 l-28 0 21 23 c11 12 25 33 31 47 8 21 10 15 10 -35 1 -77 -20 -162 -62
-245 -17 -36 -33 -68 -35 -72 -7 -16 23 -7 45 14 47 44 21 0 -29 -49 -64 -63
-189 -136 -280 -164 l-67 -21 -47 21 c-67 30 -199 120 -268 183 l-59 53 -8
100 c-4 57 -16 121 -27 150 -10 28 -27 83 -37 123 l-18 74 24 50 c28 60 71 89
97 64 10 -8 25 -28 35 -45 l18 -30 -26 -7 c-14 -3 -25 -14 -26 -23 0 -12 -3
-11 -16 7 -22 31 -36 28 -31 -8 5 -36 4 -36 -24 -8 -20 20 -23 21 -26 6 -2 -9
4 -28 13 -41 8 -13 13 -32 9 -41 -10 -26 24 -31 50 -7 13 12 41 24 62 28 l39
6 -28 -31 c-26 -27 -29 -36 -25 -84 2 -29 8 -61 13 -72 7 -16 6 -17 -13 -7
-16 9 -27 9 -43 1 -23 -13 -20 -36 5 -33 13 1 16 -4 13 -18 -6 -23 12 -37 23
-19 6 10 18 10 53 2 33 -9 53 -9 76 -1 32 11 38 35 8 33 -14 -1 -13 3 4 35 10
19 19 48 19 62 0 23 3 26 27 21 l27 -5 -28 49 c-15 27 -46 67 -69 88 -49 45
-13 31 43 -17 20 -17 36 -25 38 -19 7 21 -38 70 -83 92 -35 17 -51 33 -70 71
-30 59 -30 59 -2 59 30 0 41 -9 62 -50 31 -61 75 -120 91 -120 12 0 12 5 -1
36 -19 46 -19 47 5 41 32 -8 25 33 -12 83 -56 73 -61 90 -66 198 -5 107 6 133
28 68z m-108 -1 c-2 -14 1 -62 8 -106 12 -87 8 -98 -32 -99 -15 0 -18 10 -18
68 0 38 7 89 16 115 17 50 35 64 26 22z m404 -214 c35 -41 64 -77 64 -81 0 -5
-8 -11 -17 -15 -13 -5 -27 4 -50 30 -34 39 -113 165 -113 180 0 13 46 -32 116
-114z m-526 47 c-1 -18 -19 -67 -40 -108 -42 -81 -48 -86 -25 -20 8 23 15 45
15 47 0 3 -7 3 -15 -1 -21 -7 -19 -4 16 59 35 63 49 69 49 23z m-153 -300 c-3
-8 -6 -5 -6 6 -1 11 2 17 5 13 3 -3 4 -12 1 -19z m1186 -110 c1 -56 -3 -125
-8 -153 -9 -47 -10 -43 -16 70 -7 133 -2 212 13 197 6 -6 11 -57 11 -114z
m-863 55 c0 -13 -3 -13 -15 -3 -8 7 -12 16 -9 21 8 13 24 1 24 -18z m-4 -80
c-10 -10 -19 5 -10 18 6 11 8 11 12 0 2 -7 1 -15 -2 -18z m425 12 c-42 -19
-52 -19 -27 0 11 8 29 15 40 15 16 -1 12 -5 -13 -15z m379 -83 c0 -18 -18 -42
-31 -42 -5 0 -3 14 2 30 12 33 29 40 29 12z m0 -102 c0 -33 -15 -44 -72 -55
-42 -8 -60 -1 -52 20 4 8 9 13 13 10 4 -2 27 9 52 26 24 16 47 29 52 29 4 0 7
-13 7 -30z m-1028 -167 c22 -27 29 -12 22 43 -8 66 -2 65 48 -8 32 -46 39 -65
49 -147 7 -57 21 -111 35 -139 13 -25 22 -48 20 -49 -2 -2 -39 -8 -82 -12 -77
-9 -79 -10 -127 -60 -53 -55 -57 -58 -57 -37 0 18 -47 56 -69 56 -23 0 -37 12
-45 35 -4 15 0 23 17 30 28 13 36 78 13 104 -15 16 -14 19 3 36 21 18 57 116
64 170 l3 30 13 -33 c7 -18 22 -37 33 -43 20 -11 20 -9 14 77 l-6 89 21 -65
c12 -36 26 -71 31 -77z m1018 67 c0 -5 -9 -10 -20 -10 -17 0 -20 -7 -20 -53 0
-48 -23 -141 -39 -159 -3 -4 -4 31 -2 78 5 139 -17 152 -48 28 -17 -69 -17
-69 -54 -72 -35 -3 -37 -2 -37 27 0 38 102 161 128 154 9 -2 28 0 42 6 33 13
50 13 50 1z m-260 -214 c0 -61 11 -54 -120 -76 -36 -6 -75 -18 -87 -25 -19
-13 -22 -12 -28 12 -7 31 -2 36 50 51 22 6 69 29 105 51 36 21 68 40 73 40 4
1 7 -23 7 -53z m90 -110 c0 -36 -8 -54 -51 -112 -51 -69 -128 -154 -139 -154
-3 0 -16 43 -29 95 -12 52 -32 106 -43 120 -23 30 -26 29 102 50 56 9 105 23
120 34 33 24 40 19 40 -33z m-370 -19 c0 -34 -6 -49 -28 -70 l-29 -28 -25 20
c-14 11 -30 38 -36 60 l-10 40 47 6 c25 4 51 8 56 10 22 8 25 3 25 -38z m-187
-75 c-4 -25 -16 -40 -51 -64 -25 -17 -41 -25 -37 -17 13 21 89 119 91 116 1
-1 -1 -17 -3 -35z m658 18 l39 -21 -118 -104 c-67 -58 -125 -118 -132 -135 -7
-16 -18 -67 -24 -113 l-12 -82 -7 49 c-4 27 -7 64 -7 82 0 36 -15 53 -32 36
-8 -8 -7 -35 2 -94 27 -171 27 -164 -21 -208 l-42 -40 17 -42 16 -43 -53 -53
-54 -54 -61 44 c-34 23 -61 48 -61 54 -1 6 11 21 25 35 36 33 54 72 54 113 0
59 -16 66 -146 66 l-114 0 -17 -35 c-9 -19 -19 -34 -22 -34 -3 1 -30 28 -60
60 -40 44 -54 67 -57 93 -1 21 -15 51 -34 75 l-32 40 31 62 c27 54 31 73 31
140 l0 77 53 7 c28 4 67 10 86 15 l34 9 -20 -22 c-85 -97 -133 -156 -133 -165
0 -32 61 -12 152 49 l57 39 16 -30 c8 -16 13 -40 10 -52 -18 -73 -41 -284 -32
-295 14 -19 122 -17 141 3 9 8 16 21 16 27 2 55 31 221 41 233 13 16 101 64
118 64 5 0 12 -17 15 -37 11 -59 16 -73 30 -73 18 0 131 121 195 208 29 39 57
72 62 72 6 0 28 -9 50 -20z m-371 -55 c7 -25 11 -47 9 -49 -2 -2 -32 -18 -67
-35 -38 -19 -67 -41 -74 -56 -13 -28 -23 -32 -32 -10 -3 8 -16 15 -28 15 -15
1 3 13 49 34 76 36 98 59 108 118 9 47 19 42 35 -17z m-70 28 c0 -5 -10 -24
-22 -43 -21 -33 -23 -34 -26 -12 -2 13 4 32 14 43 17 19 34 25 34 12z m578
-14 c73 -25 102 -144 83 -339 -9 -91 -19 -140 -37 -179 -13 -29 -24 -66 -24
-81 0 -28 -38 -88 -83 -128 -32 -30 -75 -23 -154 25 -73 43 -108 76 -140 131
-25 42 -25 45 -10 78 14 27 32 41 89 68 40 19 87 45 103 59 49 42 9 43 -69 2
-95 -49 -100 -48 -92 23 12 95 39 136 166 249 63 56 120 102 126 103 6 0 25
-5 42 -11z m-1480 -24 c20 -14 66 -34 102 -45 36 -11 80 -29 98 -40 37 -23 40
-14 12 40 -26 50 -26 51 10 38 30 -10 33 -15 45 -89 3 -21 17 -53 30 -73 14
-20 25 -42 25 -48 0 -6 -27 -39 -59 -74 -53 -56 -101 -145 -101 -186 0 -24
-82 1 -148 45 -60 40 -69 51 -86 99 -12 36 -18 80 -18 138 1 110 0 108 18 85
13 -17 16 -18 24 -5 15 23 12 36 -15 68 -55 65 -11 98 63 47z m802 -36 c0 -23
-38 -45 -52 -31 -6 6 -7 20 -2 33 4 13 7 30 5 37 -1 10 5 9 23 -4 14 -9 26
-25 26 -35z m-9 -188 c21 11 21 10 15 -47 -13 -103 -13 -104 -58 -104 l-40 0
6 48 c16 110 17 112 37 101 13 -7 26 -6 40 2z m-417 -80 l27 -28 -32 -13 c-17
-7 -49 -36 -71 -64 -22 -28 -45 -51 -51 -51 -17 0 -30 31 -24 56 7 26 97 129
113 129 6 0 23 -13 38 -29z m44 -108 c55 -76 211 -207 337 -282 22 -14 63 -44
92 -68 28 -24 57 -43 64 -43 8 0 39 26 71 57 l58 57 36 -42 c38 -45 126 -102
157 -102 9 0 17 -4 17 -8 0 -10 -179 -170 -252 -225 -72 -53 -145 -89 -168
-82 -30 9 -136 129 -275 311 -69 91 -153 197 -186 236 -32 39 -59 76 -59 84 0
35 59 134 80 134 5 0 18 -12 28 -27z m345 -70 c66 -6 67 -7 67 -34 0 -18 -14
-48 -36 -76 -40 -52 -49 -59 -59 -44 -3 6 13 31 36 56 24 26 39 51 36 59 -4 9
-29 17 -73 21 -66 8 -68 7 -90 -20 -26 -33 -44 -16 -20 20 18 27 29 29 139 18z
m-29 -88 c-30 -39 -32 -40 -57 -20 -13 9 -17 20 -12 34 5 17 15 21 51 21 l45
0 -27 -35z m436 -84 c45 -43 145 -101 175 -101 19 0 19 -20 1 -45 -12 -16 -18
-17 -61 -6 -112 28 -174 77 -224 179 -26 53 -26 54 -6 68 18 14 22 13 45 -18
13 -18 45 -53 70 -77z m-955 80 c3 -5 18 -12 34 -16 25 -5 30 -12 40 -62 8
-42 8 -59 0 -64 -8 -5 -4 -43 15 -135 15 -71 29 -137 32 -146 4 -14 -1 -18
-20 -18 -14 0 -26 3 -26 8 0 4 -23 104 -50 222 -28 118 -50 216 -50 218 0 6
20 1 25 -7z m307 -291 c178 -227 260 -314 305 -324 38 -9 104 18 163 64 21 16
40 30 43 30 2 0 28 -67 57 -150 33 -97 57 -150 66 -150 8 0 14 4 14 9 0 4 -22
74 -50 155 -27 81 -50 152 -49 159 0 7 52 57 115 112 81 72 123 101 144 103
23 2 37 14 57 43 14 21 27 39 28 39 4 0 -22 -115 -61 -269 -19 -73 -34 -149
-34 -167 0 -53 137 -561 171 -633 16 -36 26 -68 21 -73 -11 -11 -56 71 -54 98
2 25 -22 39 -36 21 -5 -7 -12 -43 -14 -80 -2 -41 -9 -72 -17 -76 -7 -5 -70
-18 -139 -31 -148 -26 -396 -41 -533 -33 l-96 6 -57 266 c-31 146 -56 273 -56
281 0 9 11 32 25 52 28 42 31 71 11 119 -7 19 -17 48 -20 66 -7 29 -5 32 28
43 41 13 60 41 52 73 -3 12 -32 50 -65 85 -47 50 -64 62 -89 62 -17 0 -37 6
-44 14 -8 7 -29 80 -47 162 -18 81 -35 155 -38 164 -8 22 29 -22 199 -240z
m-386 140 c17 -10 27 -37 44 -121 29 -138 27 -143 -44 -117 -50 18 -58 19 -97
6 -23 -8 -49 -25 -58 -38 -15 -23 -15 -23 19 -16 77 14 128 18 133 9 4 -6 -5
-25 -19 -44 -42 -57 -59 -129 -47 -196 6 -32 10 -59 9 -60 -9 -10 -128 33
-156 56 -40 33 -41 42 -14 176 11 57 36 121 90 233 74 150 76 153 97 139 12
-8 32 -20 43 -27z m313 -322 c5 -13 7 -28 4 -34 -2 -5 -42 -22 -88 -38 -95
-30 -127 -58 -99 -86 14 -13 17 -13 33 7 19 23 153 69 171 58 15 -9 12 -41 -5
-59 -8 -8 -39 -21 -68 -30 -55 -16 -115 -66 -103 -85 11 -17 34 -13 46 8 8 15
117 61 145 61 3 0 5 -12 5 -26 0 -21 -10 -30 -64 -54 -64 -29 -84 -45 -72 -58
10 -10 98 17 129 39 24 18 28 18 34 4 9 -25 -27 -67 -84 -97 -45 -25 -55 -27
-99 -19 -27 5 -50 15 -52 21 -3 7 -17 27 -34 45 -44 51 -80 125 -75 154 3 15
-1 42 -9 60 -17 39 -12 61 12 61 9 0 28 9 43 19 15 11 65 29 111 40 46 12 86
23 88 26 11 11 23 4 31 -17z m-220 -387 c8 -13 3 -60 -15 -165 -24 -137 -25
-193 -5 -170 5 5 18 63 30 129 29 158 27 153 56 147 14 -2 28 -8 30 -13 10
-14 106 -462 101 -466 -3 -3 -46 4 -97 16 -86 20 -193 67 -249 111 l-25 19 44
128 c68 197 102 283 112 283 4 0 13 -8 18 -19z m261 -306 c29 -137 54 -252 57
-255 2 -3 11 3 18 13 12 16 13 14 18 -20 8 -68 98 -479 123 -564 4 -16 -4 -20
-71 -31 -17 -3 -22 10 -46 117 -15 66 -26 122 -24 123 2 2 10 -9 19 -25 8 -15
15 -23 16 -17 0 7 -38 187 -85 400 -119 539 -111 494 -94 504 7 5 14 8 15 7 1
-1 25 -114 54 -252z m484 -377 c8 -47 -1 -58 -50 -58 -27 0 -32 4 -38 31 -10
52 -8 58 27 62 17 2 37 5 43 5 6 1 14 -17 18 -40z m-812 -90 c-8 -35 -16 -65
-18 -66 -2 -4 -74 17 -74 21 0 1 9 27 20 57 12 30 23 61 25 68 4 10 11 10 34
-2 l29 -15 -16 -63z m548 42 c0 -44 -3 -50 -20 -50 -26 0 -34 21 -26 65 5 26
12 35 26 35 17 0 20 -7 20 -50z m127 37 c2 -3 7 -24 10 -46 l6 -41 -52 0 -51
0 0 51 0 52 41 -6 c22 -3 43 -8 46 -10z m564 -74 c17 -51 17 -51 -4 -57 -38
-10 -43 -7 -55 39 -18 68 -16 77 15 73 22 -2 29 -12 44 -55z m-96 -11 c13 -57
12 -59 -25 -58 -21 1 -25 8 -36 59 l-11 58 30 -3 c28 -3 32 -7 42 -56z m-105
24 c0 -7 3 -33 6 -58 l6 -45 -40 -10 -40 -10 -6 36 c-4 20 -9 48 -12 63 -5 24
-2 27 28 31 18 2 39 5 46 5 6 1 12 -4 12 -12z m-923 -4 c9 -5 7 -24 -5 -75
l-16 -68 -31 7 c-16 3 -33 9 -37 13 -3 3 1 34 9 69 14 56 18 62 42 62 14 0 31
-4 38 -8z m809 -63 c6 -33 8 -62 5 -63 -3 -2 -18 -6 -32 -10 -31 -7 -39 10
-39 87 0 45 1 47 28 47 27 0 29 -3 38 -61z m-712 43 c3 -5 1 -24 -3 -43 -5
-19 -12 -46 -15 -61 -5 -23 -12 -28 -36 -28 -35 0 -34 -6 -14 75 14 57 19 65
40 65 12 0 25 -4 28 -8z m610 -29 c3 -21 6 -52 6 -69 0 -29 -4 -32 -36 -39
-44 -8 -54 3 -54 62 0 23 -3 48 -6 56 -4 11 2 17 18 20 59 11 65 9 72 -30z
m-512 12 c5 -6 -10 -126 -17 -133 -2 -2 -19 0 -37 4 l-34 9 14 63 c13 58 16
62 41 62 15 0 30 -2 33 -5z m237 -82 c0 -74 -12 -64 -24 21 -6 39 -5 46 9 46
13 0 16 -12 15 -67z m145 45 c3 -13 7 -47 9 -75 l4 -53 -58 0 -59 0 0 68 c0
38 3 72 7 75 3 4 26 7 49 7 37 0 44 -3 48 -22z m-732 -89 c-2 -24 -5 -45 -7
-47 -7 -7 -76 20 -81 32 -3 7 2 29 11 49 15 37 15 37 48 23 30 -12 32 -16 29
-57z m1217 19 c13 -36 3 -48 -40 -48 -23 0 -27 5 -31 35 -5 42 -3 45 33 45 21
0 29 -7 38 -32z m-110 -25 c6 -21 11 -43 11 -48 0 -10 -81 -38 -87 -31 -2 1
-6 23 -9 49 -6 45 -6 46 27 55 19 6 37 11 41 11 4 1 12 -16 17 -36z m-982 -7
c1 -1 -4 -20 -10 -44 -11 -41 -12 -42 -47 -36 -19 4 -36 8 -38 9 -2 2 2 22 8
44 11 41 11 42 48 35 20 -4 38 -7 39 -8z m861 -33 c6 -26 9 -49 8 -51 -2 -1
-20 -6 -40 -9 -34 -5 -36 -4 -36 23 0 16 -3 39 -6 51 -5 18 -1 22 23 26 15 2
31 5 35 6 3 0 11 -20 16 -46z m-769 12 c2 -2 -1 -21 -6 -42 -8 -34 -12 -38
-39 -35 -16 2 -30 4 -31 6 -1 1 3 21 9 45 10 39 13 42 37 36 14 -4 28 -8 30
-10z m661 -4 c0 -10 3 -32 6 -48 6 -28 4 -31 -35 -40 -23 -6 -43 -8 -45 -4 -2
3 -6 26 -7 51 -4 49 -10 44 74 59 4 0 7 -7 7 -18z m478 -61 c20 -58 20 -60 2
-70 -38 -20 -49 -12 -69 53 -17 57 -17 63 -2 69 39 16 49 8 69 -52z m-1412 24
c36 -17 38 -23 28 -72 l-6 -31 -48 24 -48 24 11 36 c12 40 16 41 63 19z m1308
-38 c9 -30 16 -59 16 -64 0 -12 -55 -26 -68 -18 -12 7 -35 113 -27 126 3 5 19
10 35 10 26 0 30 -5 44 -54z m-496 -3 l3 -43 -70 0 c-68 0 -71 1 -67 23 3 12
5 32 5 43 1 20 6 21 64 20 l62 -1 3 -42z m385 -45 c9 -35 13 -66 9 -69 -4 -4
-25 -9 -48 -13 l-41 -6 -11 51 c-7 28 -12 56 -12 64 0 10 40 27 81 34 4 1 14
-27 22 -61z m-1052 26 c3 -2 1 -26 -5 -53 -9 -47 -11 -50 -35 -44 -39 9 -44
18 -37 68 7 46 8 46 39 39 18 -3 35 -8 38 -10z m925 -67 l7 -57 -36 0 c-38 0
-40 3 -52 72 -7 35 -6 37 26 46 19 5 37 6 41 3 4 -3 10 -32 14 -64z m-819 49
c0 -1 -3 -24 -9 -53 -10 -51 -11 -52 -42 -46 -17 3 -33 7 -35 9 -2 2 2 25 9
53 12 49 12 50 43 44 18 -3 33 -6 34 -7z m111 -15 c10 -6 11 -20 5 -57 -5 -27
-12 -48 -16 -46 -4 1 -19 2 -34 2 -47 0 -53 9 -40 63 10 44 13 47 41 47 17 0
37 -4 44 -9z m592 -15 c0 -13 3 -37 6 -54 6 -29 4 -31 -31 -38 -44 -8 -51 -2
-59 58 -7 45 -6 47 21 51 59 9 63 8 63 -17z m-468 -8 c9 -7 20 -34 23 -59 l7
-47 -49 5 c-26 3 -51 8 -55 12 -3 3 -4 27 -1 54 5 43 8 47 32 47 15 0 34 -6
43 -12z m-488 -24 c9 -3 16 -12 16 -19 0 -20 5 -22 131 -48 170 -36 231 -47
272 -47 20 0 37 -2 37 -4 0 -2 -15 -44 -33 -93 -19 -48 -44 -126 -58 -172 -28
-99 -37 -105 -149 -98 -119 7 -212 57 -239 130 -13 35 -15 357 -2 357 5 0 16
-3 25 -6z m1430 -61 c3 -32 9 -126 12 -209 l7 -151 -85 -6 c-93 -6 -169 -31
-238 -77 l-45 -30 -71 213 c-39 116 -70 213 -69 215 1 1 71 13 155 26 88 14
156 29 160 36 5 7 37 19 72 26 99 19 95 21 102 -43z m-772 -4 c18 -10 48 -65
48 -89 0 -5 -13 -10 -29 -10 -15 0 -40 -10 -55 -21 -15 -12 -29 -20 -30 -18
-11 12 -35 102 -30 111 5 8 58 36 72 38 2 0 12 -5 24 -11z m-539 -444 c28 -8
84 -15 124 -15 87 0 86 13 13 -150 -27 -58 -58 -139 -70 -180 -13 -41 -36
-101 -52 -132 -15 -32 -48 -127 -73 -212 -54 -187 -73 -235 -209 -535 -134
-295 -174 -424 -227 -729 -10 -60 -15 -72 -28 -66 -77 34 -131 46 -194 42 -44
-2 -66 0 -63 7 37 85 92 287 111 405 14 80 41 246 61 370 57 357 88 446 256
755 105 192 186 386 194 462 l7 61 49 -34 c28 -18 73 -41 101 -49z m1344 -44
c21 -148 70 -264 186 -433 166 -244 329 -620 428 -992 57 -217 104 -363 162
-506 27 -69 56 -144 63 -167 l13 -41 -32 18 c-69 39 -184 49 -289 24 -27 -6
-28 -5 -28 32 0 51 -80 285 -137 398 -25 50 -86 167 -136 260 -84 156 -203
415 -282 616 -18 47 -59 139 -90 204 -31 66 -76 174 -100 240 -25 67 -62 166
-84 221 -43 112 -43 114 26 156 65 41 134 59 213 56 l75 -2 12 -84z m-1920
-2000 c46 -20 55 -29 65 -63 10 -34 9 -44 -7 -75 -28 -52 -92 -103 -129 -103
-17 0 -54 14 -83 30 -116 67 -146 185 -55 224 50 22 143 16 209 -13z m2697
-149 c102 -45 84 -118 -48 -204 -77 -49 -118 -51 -177 -5 -49 37 -75 76 -84
127 -8 47 9 67 75 91 67 24 167 20 234 -9z m-2934 -132 l0 -80 -49 0 c-39 0
-59 -7 -101 -35 -59 -40 -60 -37 -10 72 31 66 54 82 106 69 22 -6 27 -2 37 24
6 16 13 30 14 30 2 0 3 -36 3 -80z m0 -130 c12 -8 0 -23 -62 -82 -45 -43 -80
-84 -84 -101 -5 -23 -9 -26 -22 -15 -18 16 -42 70 -42 97 0 12 22 38 56 65 46
38 63 46 97 46 23 0 49 -5 57 -10z m371 -31 c28 -45 35 -189 10 -189 -5 0 -14
21 -21 46 -7 26 -31 69 -52 97 -21 28 -38 56 -38 61 0 13 91 0 101 -15z m-231
-13 c30 0 65 4 78 8 14 6 22 4 22 -3 0 -7 19 -36 41 -66 29 -39 43 -68 46 -99
l5 -44 -51 -11 c-108 -23 -372 -2 -392 31 -13 21 14 69 63 111 28 23 60 52 72
64 15 16 27 20 41 15 11 -4 45 -7 75 -6z m2419 -110 c15 -8 33 -22 41 -30 11
-14 8 -19 -16 -38 -55 -43 -95 -93 -108 -137 l-13 -45 -27 46 c-18 32 -25 54
-21 70 6 22 101 148 112 148 2 0 16 -6 32 -14z m516 -63 c67 -32 56 -101 -30
-182 -30 -28 -56 -51 -60 -51 -3 0 -3 11 1 24 3 15 -6 52 -25 101 -17 42 -31
83 -31 91 0 34 89 44 145 17z m-393 -33 c41 -25 126 -27 170 -4 17 9 34 12 38
7 15 -16 60 -142 60 -167 0 -14 -10 -37 -23 -52 -22 -25 -30 -27 -125 -32
-105 -5 -154 3 -242 40 -24 11 -48 25 -52 31 -18 29 19 105 75 158 48 45 55
46 99 19z"/>
<path d="M4142 6788 c-27 -53 -27 -59 1 -86 28 -27 52 -16 39 18 -5 14 -5 34
1 50 10 27 5 60 -10 60 -5 0 -18 -19 -31 -42z"/>
<path d="M4477 6783 c-4 -3 -7 -20 -7 -37 l0 -31 20 25 c11 14 20 31 20 38 0
13 -22 17 -33 5z"/>
<path d="M4523 6758 c-6 -13 -7 -32 -3 -43 6 -18 9 -17 23 12 10 18 17 37 17
43 0 19 -27 10 -37 -12z"/>
<path d="M3967 6752 c-21 -23 -22 -52 -3 -52 8 0 16 -5 18 -11 2 -7 12 1 22
16 29 44 -4 84 -37 47z"/>
<path d="M4320 6664 c-19 -7 -63 -13 -97 -13 -34 -1 -64 -5 -68 -10 -3 -5 4
-25 15 -43 10 -18 26 -53 35 -78 49 -138 142 -115 180 44 25 107 11 129 -65
100z m11 -139 c-26 -59 -55 -62 -78 -8 -21 51 -4 83 52 99 40 11 40 11 43 -17
2 -16 -6 -49 -17 -74z"/>
<path d="M3514 5970 c-47 -37 -84 -95 -84 -131 0 -38 51 -83 84 -75 41 10 112
85 127 134 19 65 5 96 -47 100 -32 2 -48 -3 -80 -28z m94 -33 c4 -30 -22 -79
-62 -116 -34 -32 -76 -23 -76 16 0 52 78 137 120 130 8 -1 16 -15 18 -30z"/>
<path d="M4383 4915 c10 -148 103 -546 138 -588 17 -22 18 -21 8 23 -6 25 -39
179 -74 343 -35 165 -67 302 -71 305 -4 4 -4 -33 -1 -83z"/>
<path d="M2820 1018 c0 -28 78 -190 90 -186 17 6 140 149 140 163 0 14 -7 16
-130 35 -93 14 -100 13 -100 -12z m154 -35 l28 -5 -43 -44 c-24 -24 -46 -41
-50 -36 -4 4 -17 29 -28 55 l-21 49 42 -7 c24 -3 56 -9 72 -12z"/>
<path d="M5510 877 c-46 -16 -48 -39 -7 -106 52 -86 56 -87 137 -6 38 38 70
73 70 77 0 33 -139 57 -200 35z"/>
</g>
</svg>
