<?xml version="1.0" standalone="no"?>
<!DOCTYPE svg PUBLIC "-//W3C//DTD SVG 20010904//EN"
 "http://www.w3.org/TR/2001/REC-SVG-20010904/DTD/svg10.dtd">
<svg version="1.0" xmlns="http://www.w3.org/2000/svg"
 width="850.000000pt" height="850.000000pt" viewBox="0 0 850.000000 850.000000"
 preserveAspectRatio="xMidYMid meet">
<metadata>
Created by potrace 1.14, written by Peter Selinger 2001-2017
</metadata>
<g transform="translate(0.000000,850.000000) scale(0.100000,-0.100000)"
fill="#000000" stroke="none">
<path d="M2895 8490 c-22 -4 -56 -11 -75 -15 -42 -7 -92 -28 -185 -76 -44 -23
-93 -39 -130 -44 -133 -16 -239 -62 -362 -154 -187 -141 -320 -330 -375 -536
-32 -117 -32 -336 0 -453 27 -101 60 -168 119 -244 41 -54 109 -116 117 -107
2 2 -6 38 -19 79 -47 156 -54 184 -48 189 3 4 8 0 10 -7 18 -51 138 -209 212
-280 l86 -83 -1 -72 c-1 -81 -19 -127 -60 -153 -36 -24 -48 -52 -50 -114 -1
-51 -12 -75 -154 -335 -84 -154 -188 -347 -232 -430 -43 -82 -83 -157 -89
-165 -30 -50 -212 -428 -237 -495 -74 -198 -116 -378 -177 -755 -24 -146 -27
-192 -27 -400 0 -206 3 -247 22 -330 56 -239 55 -261 -21 -391 -122 -210 -139
-277 -159 -634 -5 -98 -16 -191 -25 -220 -8 -27 -20 -94 -26 -147 -9 -83 -8
-109 6 -177 l18 -80 -43 -71 c-57 -95 -63 -148 -26 -225 37 -74 100 -119 168
-119 26 0 50 3 54 6 3 4 -13 29 -35 56 -55 65 -63 111 -27 147 l27 27 52 -65
c344 -425 435 -494 677 -512 119 -8 409 9 600 37 80 11 154 20 164 20 11 -1
74 10 140 24 67 14 146 29 176 34 30 4 91 17 135 28 44 12 94 23 110 26 28 5
112 24 350 82 55 13 118 27 140 30 22 3 81 16 130 29 50 13 108 26 130 29 22
4 63 11 90 16 88 18 260 38 266 31 4 -3 12 -23 19 -43 14 -45 38 -64 106 -84
58 -17 92 -9 134 32 24 22 29 23 59 11 32 -12 33 -11 77 40 32 37 57 56 83 63
51 13 283 39 467 50 82 6 199 19 260 30 60 10 127 22 149 26 55 8 181 48 295
92 103 41 260 132 396 231 49 35 95 64 104 65 22 1 135 -175 161 -251 49 -149
10 -268 -146 -432 -98 -104 -131 -159 -141 -238 -4 -27 -16 -58 -28 -72 -18
-21 -114 -70 -226 -117 -127 -54 -162 -87 -174 -166 -4 -24 -17 -60 -29 -81
-24 -41 -73 -67 -207 -109 -93 -29 -139 -55 -150 -84 -6 -14 -10 -67 -10 -117
0 -71 -5 -101 -20 -132 l-20 -40 5 49 5 48 -28 -7 c-67 -16 -142 -91 -142
-141 0 -65 45 -114 105 -114 30 0 240 69 317 104 29 13 71 29 94 35 22 6 69
29 104 52 74 48 96 57 153 64 71 9 138 49 173 102 35 55 62 70 199 117 131 44
204 86 280 160 83 81 116 130 161 238 17 42 48 97 68 121 20 24 36 47 36 51 0
3 12 25 26 48 56 88 77 172 82 316 3 109 1 142 -14 185 -11 32 -18 86 -19 142
-1 50 -11 135 -23 190 -11 55 -28 145 -36 200 -41 265 -56 375 -56 408 0 25
26 87 90 212 50 97 113 233 141 303 27 70 54 136 59 147 18 38 127 365 155
464 34 119 113 310 142 343 35 39 3 35 -52 -7 -33 -24 -109 -81 -170 -125 -60
-45 -157 -117 -215 -160 -58 -44 -146 -109 -197 -145 -51 -36 -111 -82 -134
-101 -22 -18 -44 -32 -48 -29 -4 2 -11 66 -14 142 -13 265 -41 543 -69 668
-10 48 -60 205 -91 290 -15 40 -58 133 -79 170 -7 11 -23 40 -37 65 -141 252
-460 595 -771 826 -151 113 -168 124 -470 331 -314 216 -505 360 -625 474 -63
60 -98 102 -202 244 -39 53 -151 287 -176 370 -26 84 -65 230 -115 430 -17 66
-38 149 -47 185 -9 36 -23 91 -30 122 -18 77 -58 186 -106 286 -74 152 -202
300 -336 389 -49 32 -66 38 -122 41 -52 3 -75 -1 -105 -17 -37 -19 -42 -20
-70 -5 -62 31 -123 45 -226 49 -58 2 -123 0 -145 -5z m267 -52 c22 -6 59 -29
84 -51 l44 -39 35 31 c20 17 41 31 48 32 75 4 110 -1 154 -25 123 -68 249
-201 317 -336 46 -89 146 -402 146 -455 1 -11 14 -67 30 -125 17 -58 30 -114
30 -125 0 -20 40 -160 91 -315 17 -52 62 -156 98 -230 173 -348 358 -522 1066
-1001 198 -134 284 -195 396 -280 132 -100 440 -403 525 -518 32 -42 69 -92
84 -111 51 -68 142 -233 200 -365 54 -125 115 -378 140 -585 14 -120 13 -265
-2 -277 -7 -5 -56 -27 -108 -48 -52 -21 -99 -42 -105 -46 -5 -3 -38 -18 -73
-32 l-62 -25 47 67 c25 36 55 77 65 90 12 16 18 41 18 78 0 48 -3 54 -25 63
-41 15 -67 -2 -207 -135 -72 -69 -136 -125 -141 -125 -6 0 -7 44 -3 118 8 140
-11 340 -48 519 -14 67 -26 130 -26 140 0 23 -70 275 -80 288 -4 6 -15 35 -25
65 -33 100 -103 234 -171 323 -67 89 -124 142 -300 279 -337 263 -620 496
-682 561 -50 54 -80 107 -106 192 -23 74 -98 166 -190 235 -28 20 -62 40 -74
44 -61 20 -175 79 -197 102 -22 24 -55 86 -138 264 -80 170 -81 175 -67 235
17 70 9 141 -21 188 -22 34 -27 37 -56 32 -38 -7 -38 -8 -18 39 27 63 55 234
55 330 0 101 -35 267 -65 308 -16 23 -16 23 -9 -7 4 -16 14 -48 22 -70 21 -55
29 -378 12 -444 -13 -46 -70 -164 -77 -158 -2 2 1 44 6 93 5 49 7 105 5 124
-12 98 -28 181 -36 186 -6 4 -6 -10 -1 -33 12 -58 9 -331 -5 -345 -18 -18 -62
0 -73 30 -6 15 -19 63 -29 107 -15 68 -50 196 -66 244 -2 8 -7 12 -9 9 -6 -5
15 -106 43 -208 11 -41 23 -93 26 -115 l7 -40 -29 45 c-60 96 -73 117 -104
177 -17 34 -39 65 -48 70 -25 12 -267 289 -289 332 -12 22 -7 69 15 125 3 9 2
16 -2 16 -5 0 -18 -28 -29 -62 -31 -97 -114 -256 -192 -364 -74 -103 -141
-176 -127 -139 10 26 131 261 156 303 13 22 17 37 11 43 -6 6 -29 -28 -63 -97
-56 -110 -111 -180 -226 -285 -52 -48 -170 -129 -188 -129 -29 0 75 238 133
305 36 41 121 165 114 165 -5 0 -28 -24 -53 -53 -96 -109 -183 -256 -230 -384
-11 -30 -15 -32 -49 -27 -20 3 -39 8 -43 11 -14 8 -8 41 26 145 34 102 65 167
114 241 43 65 16 52 -32 -16 -122 -171 -177 -425 -137 -636 7 -34 10 -65 8
-67 -20 -20 -81 60 -123 161 -27 66 -29 78 -29 215 0 129 3 155 28 240 15 52
32 105 37 118 5 12 7 22 5 22 -13 0 -58 -123 -74 -200 -31 -142 -33 -201 -15
-307 19 -117 47 -177 125 -275 70 -88 106 -148 88 -148 -34 0 -198 92 -244
137 -104 99 -210 280 -239 407 -28 120 -14 319 29 413 22 46 17 54 -5 9 -11
-22 -34 -87 -51 -145 -27 -97 -31 -123 -36 -305 -7 -226 -9 -228 -64 -68 -30
89 -33 110 -37 247 -3 117 -1 162 11 200 26 84 54 153 74 182 10 15 25 41 33
57 21 41 126 162 201 230 126 115 293 203 404 212 93 7 200 -10 280 -46 114
-51 94 -28 -30 35 -106 54 -115 60 -98 73 32 25 78 40 138 47 33 3 103 12 155
19 125 18 155 18 202 4z m96 -755 c44 -50 93 -109 108 -130 16 -21 57 -70 90
-109 85 -99 152 -204 129 -204 -3 0 -21 6 -40 14 -69 29 -206 59 -245 53 -91
-12 -204 -94 -198 -143 2 -15 8 -29 13 -31 6 -2 33 17 62 42 l51 45 -1 -98
c-2 -107 25 -214 66 -265 19 -24 29 -27 87 -28 36 -1 86 4 111 11 53 13 137
80 125 99 -6 9 -12 8 -27 -5 -18 -17 -19 -15 -19 43 0 78 10 153 21 153 17 0
41 -63 35 -92 -5 -26 -4 -28 19 -22 l25 6 0 -81 c0 -45 4 -81 9 -81 5 0 17 24
27 53 35 107 92 187 134 187 10 0 32 -11 47 -24 25 -22 28 -30 26 -77 -4 -86
-31 -145 -91 -200 -64 -59 -98 -64 -115 -16 -11 29 -53 21 -81 -16 -15 -19
-26 -39 -26 -45 0 -19 -65 -85 -143 -148 -40 -32 -108 -88 -152 -125 -112 -93
-155 -119 -192 -119 -28 0 -69 14 -239 81 -28 10 -59 21 -70 23 -48 10 -143
61 -181 99 -24 22 -43 44 -43 48 0 4 -29 58 -65 120 -76 134 -81 154 -33 128
28 -15 31 -8 13 36 -17 40 -13 86 9 105 11 8 15 0 20 -43 7 -55 45 -149 73
-179 14 -16 14 -18 1 -18 -9 0 -21 -6 -27 -14 -9 -11 -8 -15 5 -20 53 -20 160
23 195 80 19 32 21 46 17 137 -6 129 -25 170 -100 219 -29 19 -65 39 -80 46
-16 6 -28 15 -28 19 1 5 38 34 84 66 46 32 93 67 105 79 41 37 33 10 -18 -61
-28 -39 -47 -71 -43 -71 22 0 150 121 215 203 68 85 218 311 233 351 4 9 10
16 15 14 4 -2 44 -44 87 -95z m205 -477 c43 -19 50 -51 17 -81 -18 -17 -22
-16 -85 13 -69 33 -85 52 -64 78 16 19 74 15 132 -10z m-1008 2 c14 -6 25 -14
25 -18 0 -11 -61 -140 -66 -140 -2 0 -4 38 -4 85 0 47 4 85 10 85 5 0 21 -5
35 -12z m73 -58 c-13 -20 -37 -34 -45 -26 -6 6 35 46 47 46 6 0 5 -8 -2 -20z
m175 -58 c21 -19 23 -68 1 -76 -27 -10 -99 -7 -112 6 -35 35 12 100 65 90 15
-2 36 -11 46 -20z m-257 -81 c-9 -10 -16 -28 -17 -42 l0 -24 -10 23 c-9 23 -1
48 25 81 9 12 12 11 14 -3 2 -10 -3 -25 -12 -35z m895 7 c10 -13 18 -29 19
-37 0 -8 8 -19 17 -26 15 -11 24 -7 64 26 26 21 50 39 54 39 8 0 3 -32 -10
-65 -8 -19 -6 -18 17 3 13 12 27 22 31 22 12 0 7 -54 -6 -71 -16 -21 -71 -49
-97 -49 -16 0 -20 6 -20 35 0 24 -5 35 -15 35 -10 0 -15 -10 -15 -30 0 -27 -3
-30 -30 -30 -35 0 -36 6 -11 39 17 23 17 24 -6 47 -12 13 -23 30 -23 39 0 8
-5 15 -11 15 -7 0 -9 -10 -6 -22 3 -13 8 -38 12 -55 9 -42 -5 -43 -29 -2 -21
36 -15 75 14 84 11 3 20 11 20 16 0 15 11 10 31 -13z m-601 -107 c0 -5 -7 -27
-15 -50 -16 -45 -6 -56 15 -16 18 34 30 32 30 -5 0 -52 -69 -104 -84 -64 -11
28 -6 56 16 100 20 40 38 57 38 35z m1280 -306 c50 -98 90 -184 90 -192 0 -31
-117 7 -142 46 -17 28 -26 26 -20 -4 3 -19 0 -25 -12 -25 -23 0 -76 28 -76 41
0 5 -27 39 -60 74 -33 35 -60 73 -60 84 0 11 -3 26 -6 35 -4 11 20 32 87 75
52 33 97 57 101 53 5 -5 49 -89 98 -187z m-1624 90 l36 -15 -62 -47 c-109 -83
-100 -78 -100 -57 0 11 4 35 9 54 5 19 12 48 16 64 5 25 9 28 35 23 16 -4 45
-13 66 -22z m1322 -81 c24 -88 27 -140 12 -164 -7 -12 -10 -8 -11 15 0 26 -2
27 -9 10 -5 -11 -9 -35 -9 -52 -1 -37 -21 -46 -21 -10 0 12 -3 33 -7 45 -8 32
-23 9 -23 -36 0 -21 -6 -35 -16 -39 -20 -7 -34 13 -34 52 0 38 80 279 90 268
4 -4 16 -45 28 -89z m-88 33 c0 -1 -5 -18 -11 -37 -65 -213 -56 -256 51 -249
21 2 42 0 46 -3 3 -4 -22 -39 -57 -78 -112 -126 -305 -273 -357 -273 -32 0
-122 32 -122 43 0 4 17 11 38 15 l37 8 -31 7 c-55 12 -57 16 -52 99 4 73 27
141 48 141 5 0 23 -24 40 -52 31 -56 39 -114 20 -162 -11 -30 -4 -32 27 -11
47 33 41 116 -12 196 -19 28 -35 52 -35 54 0 2 69 59 153 128 83 69 163 137
176 151 21 22 41 34 41 23z m-1126 -38 c21 -10 76 -77 76 -94 0 -2 -34 18 -75
46 -41 28 -75 53 -75 55 0 9 50 3 74 -7z m-61 -56 c95 -34 132 -98 140 -245 4
-84 0 -91 -42 -62 -18 13 -22 23 -17 45 20 94 27 80 -78 163 -92 73 -111 98
-83 109 20 9 27 8 80 -10z m-102 -75 c69 -36 154 -112 144 -127 -11 -19 -64
-12 -137 19 -83 36 -122 37 -66 2 20 -12 53 -41 73 -64 32 -35 39 -39 47 -24
15 26 35 19 70 -25 18 -22 54 -56 81 -75 49 -35 49 -35 125 -28 l76 7 -27 -32
c-31 -37 -78 -76 -166 -139 -77 -56 -103 -105 -95 -179 9 -70 0 -101 -31 -109
-14 -3 -30 -14 -35 -24 -5 -9 -26 -25 -45 -34 -20 -10 -62 -35 -92 -57 -69
-48 -88 -49 -102 -6 -27 87 -33 149 -28 283 4 123 9 152 41 254 39 127 46 208
21 267 -21 49 -19 66 10 97 32 34 64 33 136 -6z m1479 7 c13 -16 5 -91 -11
-101 -5 -3 -18 -22 -28 -42 -21 -41 -111 -132 -211 -213 -36 -29 -85 -72 -110
-95 -45 -43 -115 -80 -124 -66 -2 4 30 32 71 62 167 120 237 186 329 310 59
79 66 94 54 125 -5 14 -10 28 -10 31 0 10 29 3 40 -11z m-1195 -15 c18 -20 43
-134 44 -201 1 -19 -5 -43 -12 -53 -12 -16 -16 -5 -35 95 -12 63 -24 129 -28
147 -7 37 4 41 31 12z m101 -85 c7 -19 14 -49 14 -67 0 -33 -19 -113 -24 -106
-7 7 -17 208 -11 208 3 0 13 -16 21 -35z m1233 0 c23 -8 44 -14 46 -13 13 1
216 -56 278 -79 135 -50 247 -161 300 -298 15 -38 36 -115 47 -170 12 -55 26
-124 32 -153 13 -64 4 -85 -54 -125 -36 -26 -39 -31 -34 -61 5 -24 2 -37 -11
-48 -22 -19 -86 -38 -130 -38 -62 0 -79 16 -140 138 -45 88 -74 131 -128 188
-38 41 -77 74 -85 74 -8 0 1 -15 24 -39 43 -44 116 -158 116 -181 0 -9 7 -26
16 -38 21 -30 9 -28 -35 7 -72 57 -214 111 -293 111 -91 0 -186 -73 -335 -257
-99 -124 -105 -124 -174 5 -28 53 -67 118 -86 144 -45 62 -134 138 -170 144
-39 7 -48 20 -62 94 -16 80 -24 96 -61 115 l-30 15 25 -36 c45 -66 32 -144
-45 -270 -67 -110 -104 -220 -96 -286 7 -63 42 -143 72 -163 28 -18 32 -68 9
-125 -7 -19 -19 -51 -27 -70 -32 -80 -134 -257 -199 -345 -17 -22 -56 -76 -88
-120 -33 -44 -79 -100 -104 -124 -40 -39 -49 -43 -79 -37 -70 14 -160 103
-247 246 -64 105 -88 227 -61 318 5 19 12 73 15 120 10 149 8 144 67 171 38
17 80 52 150 123 77 80 97 96 102 81 8 -29 34 -180 46 -273 6 -47 20 -125 32
-173 16 -73 19 -111 15 -220 -2 -73 -8 -143 -12 -157 l-8 -25 23 20 c67 58 75
159 31 377 -16 78 -35 184 -41 235 l-13 92 37 92 c38 94 55 188 89 501 13 121
15 129 55 190 23 36 42 70 42 76 0 6 14 27 30 46 37 42 96 63 203 72 l77 7 0
-60 c0 -42 -5 -64 -15 -73 -13 -11 -12 -16 11 -43 20 -24 24 -36 18 -56 -4
-14 -7 -51 -8 -82 -1 -46 4 -62 26 -92 24 -31 35 -36 84 -43 61 -7 66 -4 92
47 18 35 257 226 319 254 22 11 68 15 148 15 70 0 115 4 115 10 0 6 -41 10
-104 10 -58 0 -107 4 -110 8 -3 5 13 26 35 48 22 21 62 69 89 105 67 90 93
101 169 74z m-1100 -17 l23 -8 -23 -19 c-13 -10 -34 -23 -46 -30 -22 -11 -23
-10 -23 34 0 50 -2 50 69 23z m-714 -184 c-15 -60 -38 -154 -52 -209 -19 -76
-24 -113 -19 -156 7 -62 -6 -105 -34 -114 -36 -11 -57 -49 -63 -112 -6 -56 -4
-65 18 -92 21 -24 24 -33 15 -56 -13 -34 -13 -100 0 -144 10 -37 75 -111 97
-111 19 0 17 -163 -4 -286 -16 -95 -16 -105 0 -170 21 -85 43 -130 116 -241
47 -72 71 -97 130 -138 40 -27 82 -57 94 -66 l22 -17 -24 -73 c-39 -119 -60
-229 -61 -305 0 -64 -3 -74 -27 -98 -25 -25 -27 -26 -46 -9 -20 18 -20 17 -14
-13 5 -27 0 -37 -46 -82 -29 -29 -56 -52 -60 -52 -4 0 -20 21 -37 48 -22 35
-30 42 -30 26 0 -12 9 -33 20 -47 11 -14 20 -33 20 -43 0 -20 -28 -54 -44 -54
-12 0 -46 54 -46 72 0 13 -49 118 -55 118 -2 0 8 -30 22 -67 14 -38 30 -90 36
-116 l10 -48 -84 -88 c-46 -49 -86 -89 -89 -89 -6 -1 -180 352 -180 365 0 5
-11 38 -25 72 -13 35 -35 120 -47 190 -20 110 -23 157 -22 366 1 330 31 527
115 755 95 255 96 260 80 260 -13 0 -138 -299 -165 -397 -73 -263 -74 -299
-40 -1235 7 -193 0 -247 -42 -303 -23 -31 -47 -85 -41 -92 2 -2 17 15 32 37
25 37 55 57 40 28 -4 -7 3 -2 15 11 27 31 35 20 44 -61 11 -92 -1 -162 -35
-205 -16 -20 -27 -38 -25 -40 2 -3 22 7 45 21 22 14 43 26 46 26 14 0 0 -32
-45 -102 -28 -43 -50 -80 -50 -82 0 -3 -15 -29 -34 -58 -47 -73 -105 -123
-206 -177 -77 -41 -159 -110 -212 -178 -28 -35 -51 -63 -52 -61 -4 7 12 266
19 302 6 30 26 58 84 119 42 44 67 75 56 69 -11 -5 -29 -20 -39 -31 -11 -12
-27 -21 -37 -21 -16 0 -11 16 34 103 29 56 79 143 111 192 32 50 80 124 107
165 30 47 53 96 60 130 17 79 5 253 -26 380 -139 567 -137 559 -105 735 21
117 85 360 100 380 4 6 17 36 28 67 28 74 139 295 210 417 30 53 68 119 82
146 15 28 61 111 102 185 41 74 116 213 167 308 60 111 97 170 103 164 6 -6 0
-49 -17 -118z m1005 -26 c0 -105 -1 -111 -16 -90 -24 34 -29 120 -11 165 9 20
18 37 21 37 4 0 6 -51 6 -112z m-510 -238 c-5 -41 -14 -130 -20 -196 -11 -133
-33 -247 -60 -309 l-18 -40 -11 41 c-12 46 -6 76 34 152 30 58 32 82 20 225
-7 70 -10 80 -31 89 -14 6 -23 16 -21 22 3 10 110 96 114 93 1 -1 -3 -36 -7
-77z m600 70 c15 -9 32 -140 18 -140 -5 0 -8 9 -8 21 0 11 -4 17 -10 14 -5 -3
-10 -17 -10 -31 0 -15 -6 -24 -16 -24 -14 0 -16 7 -11 38 l6 37 -25 -29 c-29
-33 -43 -28 -25 10 10 23 9 26 -4 21 -8 -4 -15 -1 -15 6 0 7 14 18 31 24 27
10 30 16 25 38 -5 20 -3 25 11 25 10 0 25 -4 33 -10z m1616 -302 c224 -183
417 -336 503 -400 282 -209 362 -301 470 -538 24 -53 72 -190 66 -190 -2 0
-25 32 -52 72 -63 94 -232 269 -324 336 -41 30 -119 86 -174 126 -73 53 -128
105 -205 192 -57 65 -158 178 -225 249 -110 119 -150 169 -184 233 -6 12 -9
22 -6 22 3 0 62 -46 131 -102z m-121 2 c30 -58 29 -57 9 -57 -17 0 -44 53 -44
87 0 31 7 25 35 -30z m-2270 -20 c8 -14 -13 -40 -32 -40 -7 0 -16 7 -20 16
-10 26 38 47 52 24z m698 -5 c36 -18 67 -57 178 -225 73 -111 76 -119 83 -190
12 -126 12 -132 -7 -144 -30 -19 -68 12 -104 84 -17 36 -32 59 -32 51 -2 -31
34 -122 55 -142 l23 -22 -23 -18 c-66 -52 -136 -3 -190 134 -8 20 -19 37 -24
37 -6 0 3 -35 20 -77 43 -113 43 -113 22 -113 -38 0 -91 21 -111 42 -28 31
-51 108 -59 196 -10 107 -26 102 -22 -7 2 -50 0 -91 -3 -91 -12 0 -47 47 -58
79 -26 78 -3 200 57 307 59 105 120 136 195 99z m-1093 -30 c0 -23 -4 -25 -41
-25 -40 0 -42 4 -16 38 5 6 20 12 33 12 19 0 24 -5 24 -25z m2012 -39 c93 -46
159 -112 182 -180 9 -27 16 -57 16 -66 0 -9 11 -31 25 -50 38 -52 35 -112 -9
-156 -19 -19 -39 -34 -44 -34 -7 0 -8 27 -5 75 4 52 2 89 -8 118 -14 42 -14
41 -19 -78 -5 -104 -9 -125 -29 -159 -30 -48 -75 -76 -125 -76 -35 0 -38 2
-32 24 3 13 10 56 16 97 5 41 13 87 16 103 4 17 2 26 -4 23 -5 -4 -12 -28 -15
-54 -8 -67 -44 -159 -77 -197 -26 -29 -33 -31 -92 -31 -77 0 -108 17 -140 78
-19 35 -23 57 -23 140 0 53 -3 97 -7 97 -13 0 -20 -132 -9 -187 6 -30 8 -59 5
-64 -12 -21 -124 61 -148 110 -21 40 -28 102 -18 149 19 83 145 239 252 312
74 50 75 50 151 46 51 -2 82 -11 141 -40z m-1694 -18 c-28 -22 -32 -22 -48 -3
-10 13 -10 19 5 35 16 18 19 18 42 3 l25 -17 -24 -18z m2732 -334 c56 -70 120
-157 142 -193 23 -36 47 -73 54 -81 16 -20 49 -80 86 -155 16 -33 34 -68 39
-78 5 -10 23 -71 40 -135 24 -92 32 -147 36 -256 7 -158 -12 -399 -31 -393 -8
3 -11 70 -10 225 1 122 -2 222 -7 222 -5 0 -10 -75 -11 -167 -2 -113 -7 -168
-14 -170 -7 -2 -28 31 -49 74 -83 176 -98 210 -115 243 -10 19 -47 101 -84
181 -56 124 -66 155 -66 202 0 97 -39 244 -93 352 -52 104 -97 168 -173 246
l-75 75 16 37 c13 32 14 41 1 65 -7 15 -17 38 -20 52 -10 37 211 -192 334
-346z m-2712 270 c-106 -127 -172 -195 -201 -211 -16 -8 -30 -13 -32 -11 -2 2
-5 30 -7 62 l-3 60 70 42 c39 23 104 63 145 88 41 25 79 45 83 45 5 1 -20 -33
-55 -75z m-351 50 c2 -6 -5 -22 -16 -35 -15 -19 -22 -21 -32 -12 -10 10 -10
18 -1 38 12 26 42 31 49 9z m252 -18 l22 -23 -31 -13 c-24 -10 -33 -10 -45 0
-18 15 -19 32 -3 48 18 18 32 15 57 -12z m-189 -51 c0 -7 -7 -18 -16 -25 -12
-11 -18 -10 -31 3 -15 14 -15 20 -3 42 13 24 14 24 32 8 10 -9 18 -22 18 -28z
m90 -17 c-12 -10 -26 -18 -31 -18 -16 0 -21 27 -9 49 10 20 12 20 37 4 l25
-17 -22 -18z m288 29 c5 -26 -5 -47 -20 -42 -19 7 -40 44 -32 56 10 16 48 6
52 -14z m2196 7 c36 -35 7 -119 -58 -166 -52 -38 -93 -56 -162 -70 -95 -19
-164 23 -164 99 0 20 4 24 18 18 47 -19 90 -27 128 -21 48 6 147 48 170 71 15
14 15 18 -1 35 -10 11 -15 26 -12 35 8 20 61 20 81 -1z m-2250 -56 c26 -42
-35 -75 -69 -38 -18 19 -18 21 0 40 22 24 53 23 69 -2z m-374 -43 c12 -14 5
-55 -9 -55 -15 0 -53 49 -46 59 9 16 40 14 55 -4z m2698 -60 c11 -33 35 -114
52 -180 48 -177 75 -228 235 -445 44 -61 153 -274 197 -385 10 -27 116 -242
234 -478 118 -235 214 -438 214 -450 0 -13 3 -26 6 -29 3 -3 33 3 67 13 34 11
94 26 133 33 111 22 137 38 262 155 130 121 209 187 218 179 3 -3 2 -23 -2
-43 -5 -26 -37 -75 -115 -170 -89 -110 -106 -135 -94 -145 11 -9 21 -6 48 14
18 14 87 48 153 75 65 27 144 61 174 75 68 32 80 32 80 2 0 -34 -74 -112 -139
-147 -31 -16 -63 -33 -71 -38 -8 -5 -59 -33 -113 -62 -54 -29 -112 -66 -128
-83 -49 -50 -30 -80 20 -32 15 14 55 41 91 62 64 36 67 37 170 37 111 0 241
-11 259 -23 15 -9 4 -37 -17 -45 -9 -3 -96 -10 -192 -16 -199 -10 -252 -21
-281 -57 -10 -14 -17 -27 -15 -29 2 -2 31 5 65 17 33 11 77 20 98 20 73 0 241
-59 251 -88 5 -17 -86 -15 -223 3 -123 16 -205 9 -310 -27 -56 -19 -149 -28
-162 -14 -3 3 6 24 21 46 14 22 26 46 26 54 0 21 48 74 92 102 41 26 91 96 86
121 -2 9 -15 25 -30 36 -37 28 -95 26 -149 -6 -24 -14 -75 -37 -114 -52 -91
-34 -104 -47 -42 -42 26 2 47 1 47 -2 0 -3 4 -12 9 -20 7 -11 23 -2 76 43 48
40 74 56 96 56 24 0 29 -4 29 -24 0 -33 -58 -107 -100 -128 -19 -10 -54 -18
-77 -18 -24 0 -43 -4 -43 -10 0 -5 6 -10 14 -10 8 0 26 -4 40 -9 23 -9 24 -12
13 -42 -30 -79 -134 -131 -217 -110 -79 21 -103 46 -185 191 -188 335 -211
368 -545 807 -196 256 -235 326 -310 553 -38 115 -117 307 -195 475 -68 147
-75 170 -57 173 108 18 188 57 260 130 31 31 60 55 63 52 3 -3 15 -32 27 -65z
m-2397 14 c19 -10 19 -11 -3 -29 -19 -16 -25 -17 -37 -5 -15 15 -9 45 9 45 6
0 20 -5 31 -11z m-288 -34 c18 -13 17 -14 -7 -30 -21 -14 -29 -15 -41 -5 -14
11 -14 15 1 31 20 22 23 23 47 4z m218 -41 c11 -14 10 -19 -10 -35 -18 -15
-27 -17 -37 -8 -17 14 -18 31 -2 47 16 16 33 15 49 -4z m2666 -103 c20 -30 49
-83 64 -117 31 -68 69 -223 69 -276 l-1 -33 -49 55 c-64 71 -77 98 -89 195 -9
70 -52 218 -82 279 -16 32 48 -42 88 -103z m-1463 75 c5 -22 -10 -86 -21 -86
-23 0 -43 25 -43 53 0 55 52 82 64 33z m1402 -115 c8 -29 17 -76 20 -105 4
-51 4 -51 -10 -21 -9 17 -15 36 -16 44 0 7 -11 43 -24 80 -13 36 -26 82 -29
101 l-7 35 25 -40 c14 -22 32 -64 41 -94z m-2778 107 c15 -15 -3 -38 -29 -38
-24 0 -33 18 -19 35 15 18 32 19 48 3z m2291 -170 c24 -51 51 -111 62 -134 10
-23 19 -44 19 -48 0 -4 12 -33 26 -64 15 -31 32 -74 40 -95 7 -20 20 -52 28
-70 24 -51 76 -227 76 -257 0 -34 -53 -85 -125 -121 -46 -22 -61 -24 -185 -23
-74 0 -179 7 -233 14 -94 14 -128 12 -253 -14 -11 -2 -45 -20 -75 -39 l-55
-35 -33 72 c-65 139 -75 169 -76 233 0 57 3 65 35 98 79 83 125 64 160 -64 10
-37 14 -42 22 -28 23 42 -38 165 -109 220 -15 12 -35 28 -43 35 -8 7 -55 43
-105 80 -99 73 -163 133 -184 174 -12 24 -11 29 29 82 23 31 49 56 56 56 7 0
23 -18 33 -39 25 -48 87 -102 138 -120 21 -7 58 -23 83 -35 48 -22 138 -27
270 -12 90 9 130 32 243 136 53 49 101 90 105 90 5 0 28 -42 51 -92z m-1253
-120 c-27 -133 -229 -343 -390 -404 -15 -6 -4 22 46 117 36 68 88 167 116 219
27 52 59 112 71 132 l22 37 71 -36 c66 -34 70 -37 64 -65z m2281 -5 c217 -145
333 -299 387 -516 27 -104 28 -116 24 -315 -5 -229 -19 -314 -85 -507 -36
-105 -51 -137 -59 -120 -2 6 -17 33 -33 60 -15 28 -52 97 -82 154 -62 122 -69
165 -49 330 17 139 16 347 -3 441 -9 41 -18 91 -21 111 -14 81 -111 290 -194
417 -8 12 -11 22 -7 22 4 0 59 -35 122 -77z m-2232 -45 c-23 -91 -55 -139
-180 -268 -112 -117 -215 -236 -318 -368 -53 -70 -87 -145 -87 -196 0 -35 -36
-82 -97 -131 l-58 -45 -3 71 c-5 111 31 199 135 335 36 49 9 32 -44 -26 -81
-90 -130 -234 -117 -347 5 -36 3 -58 -6 -68 -24 -29 -30 -15 -30 71 0 160 73
317 212 456 78 78 192 160 293 211 83 41 173 146 235 273 30 60 58 115 64 123
19 24 19 -22 1 -91z m140 96 c9 -4 31 -26 48 -49 18 -24 65 -82 106 -130 l74
-86 -104 -105 c-57 -57 -107 -104 -112 -104 -12 0 2 56 29 119 13 29 24 60 24
68 0 28 -18 2 -40 -59 -13 -35 -28 -67 -33 -73 -7 -7 -8 -3 -3 10 9 24 47 161
53 193 3 12 1 22 -5 22 -6 0 -14 -21 -18 -47 -5 -42 -49 -156 -72 -189 -4 -6
-19 -29 -34 -52 -15 -22 -58 -65 -95 -94 -77 -62 -267 -188 -281 -188 -6 0 -8
18 -5 43 13 98 62 179 215 354 105 120 158 221 158 302 0 44 3 53 23 61 27 11
50 12 72 4z m345 -304 c0 -5 -22 -34 -49 -64 -89 -98 -90 -158 -5 -331 43 -88
54 -120 54 -159 l0 -49 48 46 c113 105 235 126 467 82 171 -33 291 -13 420 69
30 20 59 36 64 36 13 0 61 -74 61 -93 0 -32 -114 -139 -145 -137 -3 0 -19 -6
-35 -15 -45 -23 -160 -28 -312 -12 -150 15 -214 11 -331 -24 -84 -26 -118 -47
-146 -93 -27 -42 -26 -68 0 -92 l21 -19 -7 46 c-7 50 0 62 47 73 37 8 77 -27
84 -75 5 -32 2 -42 -31 -78 -57 -63 -136 -80 -216 -47 -30 13 -40 54 -33 130
l7 71 -49 -46 c-42 -38 -56 -45 -94 -47 -62 -3 -107 25 -116 73 -17 91 23 155
96 155 34 0 42 -4 55 -30 20 -39 12 -66 -28 -87 -31 -17 -31 -18 -9 -21 15 -2
33 5 49 20 33 30 27 80 -18 145 -61 91 -88 142 -105 202 -50 181 66 363 244
380 6 0 12 -3 12 -9z m-316 -277 c9 -76 32 -156 61 -214 l24 -46 -44 -43 c-53
-52 -70 -95 -62 -163 11 -87 73 -133 168 -124 l58 5 27 -39 c15 -22 42 -53 61
-69 28 -25 42 -30 86 -30 65 0 122 26 170 75 49 50 56 92 28 159 -11 28 -21
57 -21 63 0 7 19 17 43 24 40 11 124 9 398 -7 79 -5 110 -2 167 14 80 23 168
77 214 132 l32 37 90 -119 c136 -179 146 -196 156 -275 9 -70 1 -171 -22 -258
-24 -96 -114 -255 -230 -405 -125 -162 -438 -487 -553 -574 -193 -146 -256
-189 -407 -278 -65 -38 -619 -319 -743 -376 -38 -18 -128 -64 -200 -103 -229
-123 -368 -191 -418 -206 -58 -17 -55 -27 8 -25 65 3 182 43 249 86 32 20 60
35 63 32 11 -11 -52 -118 -104 -175 l-55 -62 38 23 c94 54 138 110 149 189 4
26 14 54 23 62 17 15 53 34 322 164 80 39 255 125 390 192 191 94 255 121 286
121 22 0 44 -4 49 -9 6 -5 43 -21 83 -35 40 -14 86 -33 102 -41 17 -9 30 -13
30 -11 0 3 21 -4 48 -15 118 -52 327 -123 390 -134 55 -9 75 -37 62 -85 -5
-19 -6 -48 -2 -64 8 -30 -7 -130 -31 -205 -16 -52 -34 -61 -121 -62 -58 -1
-278 -28 -387 -49 -27 -5 -53 -9 -57 -8 -11 3 -87 -12 -182 -34 -47 -11 -96
-21 -110 -22 -14 -2 -74 -15 -135 -30 -60 -14 -164 -40 -230 -56 -66 -16 -167
-40 -225 -54 -58 -14 -121 -28 -140 -30 -20 -3 -67 -12 -105 -21 -100 -23
-163 -35 -215 -40 -25 -2 -90 -11 -145 -20 -130 -20 -473 -38 -634 -33 -117 3
-131 6 -191 35 -36 17 -84 48 -108 68 -76 66 -324 348 -343 390 -10 23 -24 73
-30 111 -16 94 6 227 60 349 130 301 149 343 202 460 46 103 161 336 191 387
146 253 681 790 1156 1160 172 134 520 368 548 368 7 0 15 -25 18 -57z m2563
-218 c53 -237 58 -277 44 -362 -13 -77 -102 -314 -130 -347 -25 -29 -91 -67
-103 -60 -15 10 -2 86 26 153 56 131 77 221 92 401 14 166 11 293 -12 445 -3
21 4 13 24 -30 15 -33 42 -123 59 -200z m-4613 193 c4 -24 17 -88 30 -143 13
-55 36 -152 50 -215 14 -63 38 -167 53 -230 35 -150 35 -232 -2 -326 -28 -69
-100 -184 -121 -191 -12 -4 -35 53 -52 127 -36 153 -49 548 -24 700 7 41 15
90 18 108 8 52 21 37 39 -43 9 -41 19 -75 22 -75 3 0 2 15 -1 33 -9 39 -36
254 -36 279 0 35 18 17 24 -24z m1520 -95 c-4 -38 -13 -80 -20 -94 -13 -27
-132 -139 -147 -139 -15 0 5 74 34 130 33 61 115 170 130 170 6 0 7 -27 3 -67z
m4571 -460 c-4 -10 -25 -74 -47 -143 -61 -192 -117 -360 -138 -415 -10 -27
-31 -84 -46 -125 -45 -127 -169 -397 -223 -484 l-23 -37 -18 33 c-9 18 -29 53
-44 78 -65 111 -101 210 -118 325 -13 91 -14 125 -3 177 6 30 3 42 -14 64
l-22 28 58 58 c55 56 89 82 332 251 325 226 319 222 306 190z m-2266 -125 c24
-35 65 -94 92 -132 l49 -70 -6 -185 c-8 -228 3 -310 55 -440 21 -53 37 -98 35
-100 -11 -12 -55 27 -77 68 -54 99 -85 227 -88 364 l-1 52 -9 -50 c-18 -96 15
-257 76 -373 18 -34 30 -64 26 -66 -3 -2 -27 -7 -53 -11 -78 -12 -152 16 -221
83 -83 81 -129 173 -135 272 -4 71 -3 78 22 107 15 18 51 83 80 145 57 120 86
234 86 341 0 75 15 74 69 -5z m846 -75 c-9 -153 -7 -148 -62 -161 -27 -6 -51
-7 -55 -4 -4 4 13 52 38 107 25 55 50 115 55 133 20 65 30 33 24 -75z m-4145
-329 c0 -15 -92 -124 -105 -124 -16 0 -85 406 -85 497 0 17 33 -40 95 -164 52
-105 95 -199 95 -209z m4818 102 c4 -80 -6 -90 -83 -81 -33 3 -70 9 -83 12
l-23 5 23 16 c13 9 50 38 83 64 32 27 64 47 70 45 5 -2 11 -29 13 -61z m-1312
-10 c18 -38 24 -68 24 -121 0 -86 24 -278 40 -325 10 -27 53 -123 88 -192 9
-19 -49 -6 -75 16 -90 76 -151 311 -138 535 10 172 17 182 61 87z m147 -229
c73 -124 86 -139 155 -177 44 -24 47 -28 45 -64 -3 -46 -10 -56 -24 -36 -14
20 -2 -78 18 -148 8 -29 13 -57 11 -63 -8 -23 -125 79 -170 147 -61 93 -74
119 -98 205 -20 74 -29 266 -12 255 5 -3 38 -56 75 -119z m1191 -9 c1 -7 15
-62 30 -123 23 -88 56 -234 56 -242 0 -1 -45 42 -100 94 -55 53 -100 100 -100
104 0 4 17 16 38 26 29 14 38 24 40 50 3 26 -3 36 -32 59 -19 15 -32 32 -30
36 8 13 94 9 98 -4z m-1854 -83 c0 -9 14 -49 31 -90 25 -59 48 -92 104 -150
94 -98 127 -112 267 -114 217 -4 388 -27 388 -54 0 -5 -14 -6 -30 -2 -67 15
-122 7 -185 -25 l-62 -32 -95 41 c-131 55 -163 59 -230 29 -48 -23 -57 -32
-97 -104 -24 -43 -46 -81 -47 -83 -2 -2 -22 13 -46 33 -23 20 -69 50 -101 66
-49 25 -68 29 -125 26 -60 -2 -77 -8 -160 -53 -51 -29 -102 -55 -115 -59 -12
-3 -44 -18 -71 -31 l-49 -25 29 35 c52 61 579 607 587 607 4 0 7 -7 7 -15z
m1547 -51 c62 -14 74 -22 143 -87 42 -40 120 -110 174 -157 151 -131 188 -199
215 -405 6 -44 11 -96 11 -115 l0 -34 -57 55 c-93 89 -182 161 -194 157 -6 -2
20 -29 57 -60 166 -136 216 -210 234 -343 13 -92 38 -251 54 -345 34 -196 47
-382 27 -394 -5 -4 -16 13 -25 36 -12 32 -15 35 -11 13 14 -87 16 -123 6 -149
-15 -38 -20 -30 -32 47 -37 267 -184 492 -541 834 -75 71 -103 107 -126 155
-32 67 -62 176 -62 223 l0 28 25 -23 c14 -13 28 -21 31 -17 3 3 -37 51 -89
106 -90 94 -125 143 -142 201 -6 21 1 17 45 -25 57 -54 57 -50 0 35 -20 30
-43 66 -50 79 -11 21 -10 23 4 18 9 -4 16 -5 16 -4 0 1 -9 27 -20 57 -18 50
-18 55 -3 72 47 52 185 71 310 42z m-455 -35 c78 -17 84 -25 91 -133 7 -109
32 -181 84 -244 38 -46 38 -58 0 -48 -77 19 -191 145 -230 254 -18 50 -24 182
-7 182 5 0 33 -5 62 -11z m-93 -116 c25 -109 64 -186 124 -246 40 -40 139 -93
195 -103 17 -3 32 -12 32 -19 0 -21 -121 -30 -178 -14 -49 14 -56 16 -72 18
-23 3 -129 122 -140 158 -7 21 -16 43 -20 48 -11 15 -37 114 -45 170 -3 28 -8
58 -11 68 -5 14 2 17 44 17 l49 0 22 -97z m-78 -177 c26 -71 27 -77 9 -61 -22
20 -50 104 -49 144 0 16 3 20 6 11 3 -8 18 -50 34 -94z m-4285 19 c-15 -25
-40 -61 -56 -79 -30 -34 -240 -200 -240 -190 0 16 66 98 105 131 53 44 59 60
11 32 -47 -28 -109 -96 -146 -163 -36 -64 -52 -79 -41 -39 29 99 103 187 226
265 84 54 159 96 164 92 2 -2 -9 -24 -23 -49z m3739 -100 c65 -34 102 -64 88
-73 -42 -28 -183 -225 -170 -239 2 -2 34 37 71 87 78 103 139 159 213 196 43
21 66 26 130 26 91 0 114 -8 321 -111 l143 -70 -68 -44 c-37 -24 -106 -68
-153 -97 -47 -30 -87 -55 -89 -57 -2 -2 -2 -5 0 -8 5 -5 56 25 182 106 137 87
177 103 283 112 l40 4 23 -96 c26 -109 68 -187 144 -268 l49 -52 -124 -91
c-67 -51 -141 -101 -163 -112 -22 -11 -52 -29 -67 -40 -15 -10 -36 -21 -47
-23 -11 -2 -30 -10 -43 -18 -28 -18 -216 -85 -273 -97 -22 -4 -83 -17 -135
-28 -52 -12 -124 -23 -160 -26 -102 -7 -457 -36 -543 -45 -43 -4 -79 -5 -82
-3 -2 2 13 27 35 56 42 57 63 102 74 160 4 22 16 63 27 92 25 65 59 82 152 75
9 0 51 -32 93 -71 88 -81 152 -108 232 -94 l47 7 -44 8 c-102 19 -135 37 -208
113 -86 89 -111 97 -209 66 -37 -11 -69 -18 -71 -16 -3 2 0 13 6 24 18 34 13
62 -16 91 -16 14 -37 43 -47 64 -11 21 -38 53 -60 70 -34 27 -51 33 -111 38
-118 10 -176 -4 -269 -66 -44 -29 -91 -62 -103 -73 -20 -18 -24 -19 -49 -6
-15 8 -35 16 -43 17 -16 3 -88 31 -226 88 -38 16 -77 29 -86 29 -9 0 -22 6
-28 13 -8 11 -5 17 17 28 15 8 66 39 113 70 70 45 98 57 160 68 96 18 165 44
269 104 47 27 99 52 115 55 56 13 129 6 170 -15 40 -21 135 -99 135 -111 0 -4
-20 -34 -45 -66 -24 -33 -42 -63 -39 -67 7 -13 162 171 169 201 12 48 56 110
93 130 48 26 109 21 177 -15z m-3819 -68 c-8 -18 -34 -77 -59 -132 -24 -55
-59 -137 -77 -183 -33 -81 -36 -83 -122 -147 -49 -36 -91 -65 -93 -65 -13 0
-2 79 15 107 17 29 17 31 2 26 -14 -5 -14 -3 3 17 14 16 16 24 8 27 -17 6 -16
45 1 86 7 18 49 64 92 102 43 39 112 100 152 137 41 38 78 66 83 63 4 -3 2
-20 -5 -38z m3254 -342 c10 -12 10 -18 0 -30 -17 -20 -37 -19 -49 3 -18 34 24
57 49 27z m98 -17 c7 -9 5 -20 -10 -37 -16 -21 -21 -22 -29 -10 -25 40 9 82
39 47z m-26 -81 c48 -36 70 -73 72 -121 1 -28 -2 -31 -30 -34 -39 -4 -80 28
-101 79 -8 22 -28 49 -44 60 -33 23 -36 36 -11 42 44 12 73 5 114 -26z m114
12 c18 -20 18 -21 -1 -35 -24 -18 -44 -15 -58 8 -8 12 -7 21 2 32 18 22 34 20
57 -5z m-384 -6 c17 -15 17 -17 2 -35 -21 -22 -37 -23 -54 -3 -10 13 -10 19 5
35 22 24 24 24 47 3z m98 -20 c0 -10 -9 -29 -19 -42 l-18 -24 -18 26 c-23 35
-13 57 25 57 22 0 30 -5 30 -17z m70 -28 c11 -13 11 -20 0 -40 -16 -30 -22
-31 -45 -5 -17 19 -17 21 0 40 22 24 29 25 45 5z m-3481 -77 c-71 -87 -69 -85
-69 -55 0 31 76 117 104 117 12 0 3 -17 -35 -62z m3757 31 c18 -20 18 -21 -1
-35 -25 -18 -49 -18 -65 1 -10 13 -10 19 5 35 23 25 37 25 61 -1z m-232 -55
c18 -25 18 -26 -1 -45 -19 -19 -19 -19 -38 1 -16 18 -17 23 -5 45 17 31 20 31
44 -1z m226 -49 c16 -29 4 -49 -26 -43 -23 4 -30 34 -14 53 17 21 25 19 40
-10z m-81 -19 c13 -16 -7 -78 -54 -166 -13 -25 -34 -66 -47 -92 -13 -26 -26
-48 -30 -48 -14 0 -8 61 6 66 23 9 25 26 16 134 -5 57 -7 107 -4 111 9 15 100
10 113 -5z m1978 -223 c78 -114 127 -219 157 -340 33 -132 39 -198 24 -251
-15 -51 -32 -59 -36 -17 -2 17 -14 73 -27 125 -13 52 -27 116 -30 143 -4 26
-12 50 -18 54 -6 4 -8 -4 -3 -23 36 -160 32 -358 -10 -476 -56 -158 -146 -260
-295 -336 -67 -34 -85 -39 -87 -27 -5 21 -13 19 -38 -13 -30 -37 -41 -21 -15
21 31 51 25 57 -9 10 -17 -23 -52 -55 -78 -72 -26 -16 -72 -55 -102 -86 -48
-49 -125 -102 -140 -96 -3 1 -27 -3 -55 -9 -104 -23 -95 -25 -95 22 0 66 31
389 41 429 10 39 21 47 124 87 28 11 58 23 68 27 14 6 17 2 17 -21 l1 -29 14
30 13 30 1 -37 c1 -38 21 -55 21 -18 0 38 32 101 57 111 13 5 28 9 32 9 4 0
11 -59 15 -131 5 -110 4 -136 -10 -165 -9 -19 -14 -38 -10 -42 16 -15 25 19
72 278 9 52 20 141 23 197 7 114 16 132 103 212 55 49 121 153 143 226 29 97
12 235 -41 334 -13 25 -24 53 -24 61 1 23 130 -119 197 -217z m-5637 167 c0
-10 -21 -43 -46 -71 -57 -64 -76 -107 -78 -176 -2 -91 -46 -58 -46 35 0 40 7
60 39 109 21 33 59 74 82 91 53 37 49 36 49 12z m3524 2 c15 -18 15 -20 -2
-36 -22 -19 -49 -12 -57 15 -13 40 28 54 59 21z m189 -26 c22 -17 22 -33 -2
-45 -14 -8 -23 -6 -36 9 -32 35 -1 65 38 36z m-201 -73 c25 -23 23 -50 -7 -69
-45 -29 -73 16 -39 64 18 26 22 27 46 5z m184 -27 c19 -15 19 -15 -1 -30 -25
-20 -39 -20 -55 -1 -29 35 16 60 56 31z m-71 -82 c16 -25 16 -27 -2 -46 -19
-18 -20 -18 -38 2 -16 18 -17 23 -5 45 17 32 24 31 45 -1z m-132 -32 c16 -14
16 -16 1 -34 -22 -23 -37 -23 -59 2 -17 19 -17 21 0 40 18 20 26 19 58 -8z
m83 -66 c19 -15 19 -15 -1 -30 -26 -20 -44 -20 -51 -1 -6 15 11 45 25 45 4 0
16 -6 27 -14z m-116 -62 c0 -6 -8 -18 -18 -27 -17 -16 -20 -15 -42 8 l-23 25
23 25 24 26 18 -23 c10 -13 18 -28 18 -34z m-228 -45 c-14 -37 -17 -39 -29
-23 -18 25 -16 41 9 58 32 22 38 11 20 -35z m153 -14 c18 -14 18 -16 2 -32
-21 -21 -50 -8 -55 26 -4 25 23 28 53 6z m1378 -907 c4 -29 4 -104 0 -167 -8
-146 -12 -151 -152 -185 -125 -31 -125 -31 -118 -5 4 14 -12 4 -52 -34 -31
-30 -72 -62 -90 -72 -70 -36 -172 3 -155 59 11 36 19 37 69 16 40 -17 53 -19
76 -9 38 15 49 54 49 179 0 89 3 109 18 122 17 14 91 45 128 52 31 7 194 77
200 87 12 20 22 6 27 -43z"/>
<path d="M2975 6624 c-55 -12 -112 -23 -127 -23 -35 -1 -36 -20 -4 -54 87 -94
211 -72 261 46 28 67 25 68 -130 31z m115 -20 c0 -9 -15 -31 -34 -50 -28 -28
-42 -34 -75 -34 -46 0 -99 19 -119 42 -11 13 -4 17 50 28 35 7 81 14 103 17
22 2 42 6 44 9 11 10 31 2 31 -12z"/>
<path d="M7011 1414 c0 -11 3 -14 6 -6 3 7 2 16 -1 19 -3 4 -6 -2 -5 -13z"/>
</g>
</svg>
