<?xml version="1.0" encoding="UTF-8" standalone="no"?>
<svg
   xmlns:dc="http://purl.org/dc/elements/1.1/"
   xmlns:cc="http://creativecommons.org/ns#"
   xmlns:rdf="http://www.w3.org/1999/02/22-rdf-syntax-ns#"
   xmlns:svg="http://www.w3.org/2000/svg"
   xmlns="http://www.w3.org/2000/svg"
   xmlns:sodipodi="http://sodipodi.sourceforge.net/DTD/sodipodi-0.dtd"
   xmlns:inkscape="http://www.inkscape.org/namespaces/inkscape"
   version="1.0"
   width="850.000000pt"
   height="850.000000pt"
   viewBox="0 0 850.000000 850.000000"
   preserveAspectRatio="xMidYMid meet"
   id="svg2"
   inkscape:version="0.91 r13725"
   sodipodi:docname="Oriental_element_20170420_145.svg">
  <defs
     id="defs330" />
  <sodipodi:namedview
     pagecolor="#ffffff"
     bordercolor="#666666"
     borderopacity="1"
     objecttolerance="10"
     gridtolerance="10"
     guidetolerance="10"
     inkscape:pageopacity="0"
     inkscape:pageshadow="2"
     inkscape:window-width="1920"
     inkscape:window-height="980"
     id="namedview328"
     showgrid="false"
     inkscape:zoom="1.2564872"
     inkscape:cx="471.15318"
     inkscape:cy="511.14105"
     inkscape:window-x="0"
     inkscape:window-y="1"
     inkscape:window-maximized="1"
     inkscape:current-layer="svg2" />
  <metadata
     id="metadata4">
Created by potrace 1.14, written by Peter Selinger 2001-2017
<rdf:RDF>
  <cc:Work
     rdf:about="">
    <dc:format>image/svg+xml</dc:format>
    <dc:type
       rdf:resource="http://purl.org/dc/dcmitype/StillImage" />
  </cc:Work>
</rdf:RDF>
</metadata>
  <g
     transform="translate(0.000000,850.000000) scale(0.100000,-0.100000)"
     fill="#000000"
     stroke="none"
     id="g6">
    <path
       d="M0 4250 l0 -4250 4250 0 4250 0 0 4250 0 4250 -4250 0 -4250 0 0 -4250z m3971 4041 c24 -16 87 -68 139 -116 117 -108 314 -266 434 -350 112 -77 222 -141 476 -275 107 -56 229 -125 270 -154 73 -49 339 -306 431 -416 114 -136 194 -282 230 -423 16 -64 19 -107 18 -240 -3 -248 -41 -463 -105 -590 -26 -51 -28 -62 -39 -382 -4 -88 -8 -173 -11 -190 -5 -39 -6 -484 -1 -510 3 -11 8 -47 12 -80 4 -33 54 -199 111 -370 57 -170 115 -357 129 -415 32 -134 52 -326 60 -555 8 -269 14 -335 40 -437 30 -121 88 -276 210 -558 20 -47 45 -105 55 -130 10 -25 38 -92 64 -149 25 -57 46 -108 46 -113 0 -5 20 -51 44 -101 25 -51 61 -150 82 -222 33 -112 38 -144 38 -236 1 -97 -1 -108 -25 -145 -18 -27 -49 -51 -100 -79 -104 -56 -172 -129 -244 -259 -33 -60 -76 -126 -95 -146 -68 -71 -217 -177 -332 -237 l-73 -38 -220 -1 -220 0 -146 -47 c-202 -65 -334 -88 -634 -107 -88 -6 -214 -17 -279 -26 -103 -14 -148 -15 -335 -5 -119 7 -252 16 -296 21 -128 16 -203 12 -306 -15 -129 -34 -252 -34 -374 0 -81 22 -109 25 -271 25 -264 0 -300 15 -543 228 -165 143 -216 204 -276 327 -62 128 -77 179 -82 275 -5 77 -2 93 27 170 18 47 40 108 50 135 34 93 63 342 64 545 1 176 -1 197 -43 435 -43 242 -45 257 -45 455 1 241 14 320 109 655 60 214 122 501 154 715 46 303 30 839 -29 1007 -10 29 -52 99 -93 155 -114 157 -159 247 -216 428 -25 82 -26 94 -26 320 0 213 3 244 24 330 74 297 190 512 380 701 105 106 201 176 406 299 189 113 348 218 469 309 92 69 315 251 361 294 62 59 307 259 349 286 66 41 116 42 177 2z"
       id="path8"
       style="fill:none" />
    <path
       d="M3860 8283 c-24 -9 -128 -93 -364 -293 -378 -320 -408 -342 -701 -524 -409 -254 -537 -352 -660 -506 -109 -137 -202 -331 -262 -546 -26 -94 -27 -109 -27 -324 0 -249 6 -288 71 -450 68 -170 239 -420 436 -638 117 -130 418 -418 453 -434 31 -14 49 -6 78 39 24 38 24 39 29 363 l5 325 35 163 c52 239 112 354 271 520 126 131 308 266 484 357 41 21 76 45 79 52 12 30 -13 34 -118 22 -93 -11 -110 -10 -157 5 -82 27 -104 76 -56 121 24 22 36 25 104 25 83 0 128 -11 174 -43 33 -23 44 -14 44 40 0 59 89 133 159 133 68 0 132 -79 133 -161 l0 -37 71 36 c57 28 86 36 143 39 81 5 114 -8 134 -49 30 -62 -23 -118 -112 -118 -27 0 -93 7 -148 16 -55 9 -102 13 -106 10 -12 -13 18 -28 94 -47 284 -73 505 -292 600 -598 20 -64 53 -154 74 -201 66 -146 91 -269 106 -520 3 -58 7 -121 9 -140 1 -19 3 -70 4 -112 l1 -76 36 -12 c53 -18 129 -8 159 20 14 13 44 62 66 109 36 75 84 147 262 391 22 30 61 80 87 110 185 218 285 394 330 579 32 127 39 207 36 411 -2 172 -5 203 -25 265 -53 161 -134 276 -348 496 -206 211 -285 269 -583 429 -383 206 -575 341 -845 592 -140 130 -213 176 -255 161z m27 -45 c40 -45 233 -383 246 -433 3 -11 11 -39 17 -62 l11 -43 57 0 c199 -1 357 -40 486 -119 42 -25 118 -72 170 -104 63 -38 117 -81 159 -127 69 -75 99 -128 128 -227 9 -34 20 -67 23 -72 3 -5 39 -27 79 -49 90 -51 217 -152 324 -260 151 -153 184 -224 191 -413 5 -133 -8 -241 -49 -404 -48 -195 -95 -269 -274 -436 -197 -183 -287 -294 -324 -398 -17 -49 -37 -81 -51 -81 -4 0 -17 43 -30 95 -19 81 -22 110 -16 193 14 209 75 380 199 562 17 25 80 95 139 156 l108 111 -26 24 c-77 73 -134 207 -154 366 -34 261 -55 345 -103 408 -14 18 -15 15 -27 -40 -29 -147 -149 -320 -237 -344 -112 -31 -206 12 -249 114 -19 47 -22 127 -5 177 14 43 109 137 170 167 51 27 157 51 224 51 26 0 47 3 47 6 0 12 -60 125 -94 178 -70 108 -139 160 -276 206 -88 30 -250 37 -348 16 -94 -20 -251 -94 -280 -132 -13 -16 -39 -50 -58 -77 -68 -92 -173 -116 -273 -62 -61 33 -89 66 -126 147 -50 108 -138 156 -302 165 -140 7 -206 -6 -320 -62 -96 -47 -166 -107 -224 -191 -28 -42 -65 -122 -58 -128 2 -2 51 1 108 6 233 23 337 -30 333 -169 -3 -105 -87 -234 -171 -262 -19 -6 -65 -11 -104 -11 -85 0 -122 20 -165 88 -43 69 -55 116 -61 240 -2 39 -17 24 -52 -50 l-33 -73 -1 -345 0 -345 -33 -96 c-17 -53 -32 -99 -32 -103 0 -4 22 -31 49 -59 91 -97 154 -233 170 -375 9 -69 5 -509 -4 -558 -2 -10 -4 -25 -4 -31 -3 -47 -95 26 -305 240 -117 120 -189 214 -241 317 -45 88 -91 222 -103 300 -15 90 -8 348 12 441 66 311 272 627 508 783 59 39 66 47 118 150 43 85 69 123 120 174 86 85 219 177 355 245 142 71 209 93 318 105 49 6 93 14 97 18 5 5 28 68 53 139 89 261 140 375 167 375 3 0 16 -10 27 -22z m-739 -904 c34 -23 29 -69 -11 -109 -25 -25 -49 -36 -104 -49 -88 -20 -147 -21 -162 -2 -9 11 -1 26 44 74 85 92 176 126 233 86z m181 -25 c45 -42 54 -110 20 -153 -17 -22 -28 -26 -57 -24 -29 2 -41 11 -60 38 -60 89 22 208 97 139z m1600 -45 c65 -58 104 -163 67 -177 -37 -14 -143 40 -186 95 -72 92 31 163 119 82z m-128 -123 c23 -24 29 -38 29 -74 0 -103 -111 -133 -155 -42 -29 62 -18 110 29 131 46 20 65 17 97 -15z m-1034 -37 c22 -22 25 -32 20 -67 -7 -52 -36 -77 -89 -77 -30 0 -46 7 -69 29 -31 31 -36 59 -17 94 18 35 40 46 86 47 33 0 49 -6 69 -26z m233 -100 c20 -20 25 -34 25 -77 0 -44 -6 -61 -39 -110 -33 -49 -44 -58 -65 -55 -60 7 -111 198 -67 247 34 37 105 35 146 -5z m255 6 c28 -31 25 -85 -8 -117 -78 -79 -198 29 -122 111 31 34 102 37 130 6z m-560 -125 c41 -43 62 -128 56 -221 -2 -34 -30 -37 -71 -10 -37 25 -98 93 -117 131 -38 75 -11 135 59 135 33 0 46 -6 73 -35z m640 -41 c54 -58 20 -128 -87 -179 -98 -47 -138 -44 -138 10 0 31 54 117 99 158 51 46 91 49 126 11z m-850 -60 c30 -32 33 -82 7 -114 -21 -26 -90 -37 -131 -21 -57 24 -68 95 -20 135 43 37 110 37 144 0z m1008 -23 c42 -16 61 -106 31 -149 -12 -17 -25 -22 -59 -22 -105 0 -146 116 -57 164 32 18 52 19 85 7z m-1668 -224 c1 -1 11 -16 23 -34 33 -47 30 -109 -7 -160 -52 -72 -112 -123 -144 -123 l-29 0 4 125 c4 134 15 164 69 193 19 10 78 10 84 -1z m238 -7 c33 -26 52 -82 38 -109 -18 -33 -53 -51 -98 -51 -52 0 -79 23 -89 74 -15 82 83 138 149 86z m2180 -1 c15 -11 31 -37 37 -57 10 -40 16 -179 7 -188 -8 -8 -63 23 -88 49 -31 33 -69 112 -69 146 0 20 8 36 26 50 34 26 54 26 87 0z m-204 -65 c25 -18 51 -71 51 -104 0 -52 -77 -77 -140 -45 -48 25 -59 92 -23 136 29 34 74 39 112 13z m-1782 -126 c28 -26 45 -82 34 -111 -11 -27 -39 -52 -68 -61 -31 -10 -101 11 -113 34 -15 29 -12 103 6 128 32 47 98 51 141 10z m-284 -82 c44 -18 67 -46 74 -90 5 -31 1 -42 -23 -68 -16 -17 -44 -37 -62 -45 -41 -17 -208 -28 -285 -19 -75 10 -75 26 1 98 67 64 131 106 187 124 53 17 69 17 108 0z m2320 -37 c31 -12 68 -34 83 -50 26 -27 26 -29 10 -54 -23 -35 -85 -61 -172 -75 -116 -18 -204 12 -204 71 0 103 149 159 283 108z m-394 -3 c68 -36 67 -148 -1 -177 -49 -20 -99 -2 -122 44 -17 36 -17 41 -2 81 23 61 69 80 125 52z m-1789 -188 c44 -48 11 -131 -57 -144 -32 -6 -40 -3 -65 25 -38 43 -37 81 3 115 39 33 90 35 119 4z m-335 -53 c42 -17 101 -77 121 -124 33 -77 4 -171 -51 -171 -33 0 -53 33 -71 121 -8 41 -24 92 -35 115 -21 44 -25 74 -9 74 6 0 26 -7 45 -15z m2204 -20 c33 -38 38 -63 19 -98 -17 -33 -39 -46 -76 -47 -69 0 -109 50 -91 113 20 75 96 91 148 32z m211 -15 c0 -76 -21 -143 -55 -177 -38 -38 -57 -41 -86 -12 -17 17 -20 29 -15 57 7 44 57 120 99 150 46 32 57 29 57 -18z"
       id="path10"
       style="fill:#9999ff" />
    <path
       d="M3834 8138 c-36 -70 -137 -368 -149 -443 -27 -162 -3 -321 63 -417 37 -54 83 -78 150 -78 68 0 108 29 150 108 84 158 77 401 -15 587 -40 82 -163 275 -174 275 -4 0 -16 -14 -25 -32z m47 -135 c8 -16 33 -63 56 -105 88 -160 108 -290 63 -396 -38 -88 -118 -125 -174 -81 -60 47 -70 132 -36 292 10 50 26 133 35 182 27 154 29 159 56 108z"
       id="path12"
       style="fill:#3333ff" />
    <path
       d="M3856 7823 c-10 -47 -20 -92 -22 -98 -3 -7 4 -11 18 -11 20 1 23 -3 20 -34 -1 -19 3 -61 9 -93 7 -32 9 -60 6 -64 -14 -14 -37 23 -49 78 -17 81 -31 60 -27 -39 3 -61 9 -85 23 -101 37 -41 82 -19 121 58 26 51 30 137 11 205 -19 63 -75 186 -85 186 -4 0 -15 -39 -25 -87z"
       id="path14"
       style="fill:#cc33ff" />
    <path
       d="M3500 7680 c-72 -13 -303 -109 -333 -139 -5 -5 42 -6 103 -3 130 6 232 -9 302 -44 26 -13 49 -20 51 -16 10 20 8 184 -3 197 -13 16 -48 17 -120 5z"
       id="path16"
       style="fill:#6666ff" />
    <path
       d="M4190 7651 c-23 -6 -26 -14 -38 -91 -6 -47 -11 -101 -10 -121 l3 -37 80 38 c44 22 107 46 140 54 78 21 280 21 355 1 69 -19 80 -18 55 1 -59 46 -256 127 -360 149 -76 15 -181 18 -225 6z"
       id="path18"
       style="fill:#6666ff" />
    <path
       d="M2807 7083 c-55 -6 -71 -35 -62 -115 15 -143 68 -234 148 -256 109 -30 256 95 265 226 3 48 0 63 -20 92 -14 20 -38 40 -58 47 -33 11 -189 14 -273 6z m220 -77 c85 -43 54 -176 -41 -176 -52 0 -119 57 -159 136 -27 52 -4 66 99 60 40 -2 85 -11 101 -20z"
       id="path20"
       style="fill:#3333ff" />
    <path
       d="M2883 6983 c-21 -8 13 -60 58 -90 44 -29 59 -26 86 14 12 18 11 24 -9 46 -17 18 -37 26 -73 30 -27 3 -56 3 -62 0z"
       id="path22"
       style="fill:#9933ff" />
    <path
       d="M4932 6988 c-50 -17 -79 -36 -137 -90 -104 -97 -117 -155 -59 -255 34 -59 93 -81 169 -64 46 10 62 20 105 68 76 83 113 165 133 297 11 67 -84 87 -211 44z m119 -40 c6 -68 -33 -176 -79 -221 -61 -59 -120 -72 -166 -36 -31 25 -33 49 -6 105 20 41 54 68 180 142 40 23 70 28 71 10z"
       id="path24"
       style="fill:#3333ff" />
    <path
       d="M4944 6872 c-52 -28 -94 -69 -109 -106 -13 -29 -13 -36 0 -46 22 -18 78 5 116 47 30 35 59 90 59 113 0 15 -31 11 -66 -8z"
       id="path26"
       style="fill:#cc33ff" />
    <path
       d="M2519 6914 c-76 -73 -191 -237 -253 -362 -50 -100 -92 -228 -112 -347 -20 -120 -15 -334 11 -435 24 -94 115 -273 186 -369 68 -91 332 -361 353 -361 15 0 24 118 25 355 2 191 -8 247 -63 359 -51 106 -108 175 -165 201 -49 21 -51 34 -12 63 36 26 56 83 77 222 13 86 14 151 9 366 -7 233 -5 267 10 313 9 29 14 55 11 58 -3 3 -37 -25 -77 -63z m-18 -345 c40 -28 49 -49 49 -113 0 -45 -8 -70 -45 -143 -60 -117 -168 -263 -195 -263 -22 0 -21 -12 -21 233 1 75 6 158 12 185 15 59 45 111 73 123 30 13 94 2 127 -22z m-60 -793 c110 -38 218 -190 219 -309 0 -107 -47 -168 -107 -136 -59 31 -165 220 -219 392 -16 51 -16 60 -4 68 16 10 52 5 111 -15z"
       id="path28"
       style="fill:#3333ff" />
    <path
       d="M2389 6547 c-42 -32 -53 -76 -57 -244 -3 -104 -1 -163 6 -163 13 0 104 141 141 220 47 98 38 150 -29 185 -35 18 -40 18 -61 2z"
       id="path30"
       style="fill:#cc33ff" />
    <path
       d="M2386 5741 c-13 -21 87 -251 143 -328 17 -24 39 -43 49 -43 23 0 42 39 42 88 0 66 -79 205 -141 250 -32 22 -88 42 -93 33z"
       id="path32"
       style="fill:#cc33ff" />
    <path
       d="M5240 6933 c47 -74 68 -143 86 -275 37 -291 61 -360 157 -464 l56 -60 -108 -111 c-135 -137 -202 -225 -251 -328 -43 -90 -85 -213 -100 -294 -12 -66 -13 -281 -1 -281 4 0 35 42 67 93 57 90 101 137 308 335 154 148 197 227 240 445 43 216 50 310 33 409 -24 138 -51 185 -180 313 -102 101 -304 265 -327 265 -5 0 4 -21 20 -47z m354 -357 c57 -57 69 -106 64 -248 -3 -68 -9 -131 -13 -140 -13 -33 -43 -19 -108 52 -175 189 -185 368 -20 370 35 0 48 -6 77 -34z m-39 -628 c-11 -64 -42 -180 -66 -243 -59 -159 -175 -240 -244 -170 -32 31 -33 100 -5 164 27 60 264 291 298 291 22 0 23 -2 17 -42z"
       id="path34"
       style="fill:#3333ff" />
    <path
       d="M5461 6549 c-33 -31 -24 -89 24 -167 42 -69 102 -142 116 -142 5 0 9 50 9 110 0 91 -4 118 -20 150 -35 69 -86 88 -129 49z"
       id="path36"
       style="fill:#cc33ff" />
    <path
       d="M5420 5834 c-91 -83 -111 -106 -139 -161 -35 -70 -25 -123 25 -123 48 0 113 93 164 231 47 127 40 136 -50 53z"
       id="path38"
       style="fill:#cc33ff" />
    <path
       d="M3034 7290 c-44 -22 -101 -76 -91 -86 9 -10 142 33 167 54 28 23 21 52 -12 52 -13 0 -41 -9 -64 -20z"
       id="path40"
       style="fill:#9933ff" />
    <path
       d="M3260 7255 c0 -46 15 -75 39 -75 29 0 37 48 13 79 -30 41 -52 39 -52 -4z"
       id="path42"
       style="fill:#9933ff" />
    <path
       d="M4834 7249 c-3 -6 -1 -21 5 -32 19 -34 121 -100 121 -78 0 19 -65 104 -87 112 -30 11 -30 11 -39 -2z"
       id="path44"
       style="fill:#9933ff" />
    <path
       d="M4716 7114 c-23 -22 -20 -51 9 -80 21 -21 27 -23 45 -12 24 15 26 55 4 86 -18 26 -37 28 -58 6z"
       id="path46"
       style="fill:#9933ff" />
    <path
       d="M3660 7076 c-15 -20 -9 -56 12 -70 25 -16 72 4 76 32 5 31 -15 52 -48 52 -15 0 -33 -7 -40 -14z"
       id="path48"
       style="fill:#ff33ff" />
    <path
       d="M3880 6965 c-15 -40 15 -155 40 -155 12 0 57 77 66 113 9 38 -18 67 -63 67 -27 0 -35 -5 -43 -25z"
       id="path50"
       style="fill:#ff33ff" />
    <path
       d="M4161 6971 c-42 -42 -11 -82 42 -55 22 12 28 21 25 42 -4 35 -39 41 -67 13z"
       id="path52"
       style="fill:#ff33ff" />
    <path
       d="M3606 6875 c-9 -9 -16 -27 -16 -39 0 -41 81 -146 113 -146 15 0 2 93 -19 135 -10 21 -29 45 -40 52 -19 12 -24 12 -38 -2z"
       id="path54"
       style="fill:#ff33ff" />
    <path
       d="M4270 6822 c-33 -10 -120 -115 -120 -144 0 -12 80 22 117 49 18 13 37 32 43 43 17 33 -6 63 -40 52z"
       id="path56"
       style="fill:#ff33ff" />
    <path
       d="M3369 6749 c-24 -24 -21 -39 13 -58 21 -12 30 -12 57 -2 35 15 40 40 13 64 -25 23 -58 21 -83 -4z"
       id="path58"
       style="fill:#ff33ff" />
    <path
       d="M4424 6707 c-23 -20 -25 -26 -15 -45 16 -31 57 -39 81 -17 25 23 25 40 0 65 -25 25 -33 25 -66 -3z"
       id="path60"
       style="fill:#ff33ff" />
    <path
       d="M2742 6487 c-18 -19 -23 -40 -28 -115 -5 -60 -3 -92 3 -92 6 0 29 20 52 45 66 71 78 125 38 163 -29 28 -38 28 -65 -1z"
       id="path62"
       style="fill:#9933ff" />
    <path
       d="M2970 6490 c-25 -25 -25 -42 -2 -63 24 -22 55 -21 75 1 21 23 22 46 1 66 -21 22 -50 20 -74 -4z"
       id="path64"
       style="fill:#9933ff" />
    <path
       d="M5177 6488 c-10 -38 49 -145 70 -125 8 9 -14 117 -28 133 -17 21 -36 17 -42 -8z"
       id="path66"
       style="fill:#9933ff" />
    <path
       d="M4960 6425 c-21 -23 -22 -27 -10 -51 18 -32 45 -47 70 -39 35 11 22 83 -19 104 -14 8 -23 5 -41 -14z"
       id="path68"
       style="fill:#9933ff" />
    <path
       d="M3167 6318 c-9 -7 -21 -26 -27 -42 -9 -25 -8 -32 7 -47 30 -29 60 -32 82 -10 29 29 27 65 -5 90 -31 25 -35 25 -57 9z"
       id="path70"
       style="fill:#9933ff" />
    <path
       d="M2870 6211 c-51 -16 -180 -110 -180 -132 0 -5 36 -9 80 -9 148 0 230 32 230 90 0 50 -58 73 -130 51z"
       id="path72"
       style="fill:#9933ff" />
    <path
       d="M5110 6182 c-19 -9 -41 -29 -50 -44 -22 -41 2 -60 81 -66 65 -5 180 20 199 43 15 18 -29 51 -93 70 -66 19 -94 19 -137 -3z"
       id="path74"
       style="fill:#9933ff" />
    <path
       d="M4828 6179 c-24 -14 -24 -71 0 -92 37 -33 72 -14 72 39 0 51 -34 76 -72 53z"
       id="path76"
       style="fill:#9933ff" />
    <path
       d="M3011 5986 c-16 -19 -11 -46 12 -60 15 -9 23 -6 43 18 14 15 23 33 21 40 -6 17 -62 19 -76 2z"
       id="path78"
       style="fill:#9933ff" />
    <path
       d="M2793 5894 c3 -11 13 -54 22 -96 16 -77 27 -94 39 -62 12 31 6 81 -16 124 -24 45 -55 69 -45 34z"
       id="path80"
       style="fill:#9933ff" />
    <path
       d="M4882 5938 c-19 -19 -14 -63 8 -83 29 -27 70 -7 70 34 0 45 -51 76 -78 49z"
       id="path82"
       style="fill:#9933ff" />
    <path
       d="M5106 5869 c-30 -45 -38 -89 -18 -96 13 -5 39 47 52 105 11 43 -2 40 -34 -9z"
       id="path84"
       style="fill:#9933ff" />
    <path
       d="M3903 6643 c-31 -6 -81 -66 -89 -108 -5 -27 3 -66 35 -164 23 -71 48 -137 55 -147 13 -16 16 -14 38 32 27 53 49 115 73 208 18 70 8 124 -30 162 -23 23 -36 26 -82 17z m-5 -151 c2 -29 -1 -52 -6 -52 -14 0 -22 26 -22 72 0 60 24 43 28 -20z"
       id="path86"
       style="fill:#9900cc" />
    <path
       d="M3500 6517 c-35 -18 -31 -39 11 -60 30 -15 51 -16 117 -11 96 8 116 17 87 38 -25 18 -122 46 -161 46 -16 0 -40 -6 -54 -13z"
       id="path88"
       style="fill:#ff33ff" />
    <path
       d="M4245 6523 c-36 -9 -115 -45 -115 -53 0 -13 138 -33 182 -27 37 5 78 30 78 48 0 4 -7 15 -16 23 -15 16 -83 20 -129 9z"
       id="path90"
       style="fill:#ff33ff" />
    <path
       d="M4030 6346 c0 -22 -74 -169 -93 -184 -25 -21 -43 -4 -82 79 -43 92 -47 93 -138 48 -149 -75 -371 -241 -481 -360 -67 -72 -146 -182 -146 -202 0 -6 24 12 53 40 135 132 328 227 567 281 264 60 449 67 580 23 88 -31 296 -135 343 -173 l39 -30 -23 43 c-57 113 -164 243 -257 311 -89 66 -183 104 -329 133 -26 5 -33 3 -33 -9z"
       id="path92"
       style="fill:#cc66cc" />
    <path
       d="M4090 6051 c0 -5 41 -48 91 -95 101 -97 91 -95 173 -22 l50 44 -31 16 c-66 34 -283 78 -283 57z"
       id="path94"
       style="fill:#99ccff" />
    <path
       d="M3920 6040 c0 -12 45 -65 124 -148 123 -129 564 -490 783 -640 35 -25 43 -27 43 -11 0 11 -16 28 -130 133 -41 38 -149 140 -240 226 -91 86 -205 193 -255 238 -49 44 -119 110 -155 146 -63 65 -65 66 -117 66 -29 0 -53 -4 -53 -10z"
       id="path96"
       style="fill:#cc66cc" />
    <path
       d="M3736 6012 c-44 -10 -81 -22 -83 -29 -2 -6 12 -23 31 -38 l36 -27 47 35 c27 19 57 45 67 56 19 21 19 21 0 20 -10 0 -55 -8 -98 -17z"
       id="path98"
       style="fill:#99ccff" />
    <path
       d="M3788 5913 c-59 -43 -162 -113 -228 -157 l-122 -78 38 -39 c21 -21 46 -42 56 -45 13 -4 52 18 126 71 156 113 301 228 302 241 0 6 -15 27 -32 48 l-33 37 -107 -78z"
       id="path100"
       style="fill:#cc66cc" />
    <path
       d="M3528 5958 c-16 -5 -28 -13 -28 -18 0 -16 95 -90 116 -90 11 0 29 9 40 21 18 21 18 21 -23 60 -44 40 -59 44 -105 27z"
       id="path102"
       style="fill:#99ccff" />
    <path
       d="M4375 5898 c-33 -28 -60 -55 -60 -59 0 -14 68 -59 79 -52 39 23 144 118 139 126 -7 11 -67 37 -85 37 -7 0 -40 -23 -73 -52z"
       id="path104"
       style="fill:#99ccff" />
    <path
       d="M3362 5873 c-52 -29 -82 -52 -80 -61 2 -8 29 -37 60 -64 l57 -50 85 58 86 59 -52 52 c-29 29 -57 53 -63 53 -5 0 -47 -21 -93 -47z"
       id="path106"
       style="fill:#99ccff" />
    <path
       d="M4514 5829 c-112 -83 -108 -78 -82 -106 12 -13 30 -23 40 -23 10 0 51 31 91 69 72 69 72 69 53 90 -11 12 -22 21 -26 21 -4 0 -38 -23 -76 -51z"
       id="path108"
       style="fill:#99ccff" />
    <path
       d="M3921 5818 l-64 -51 67 -65 c64 -63 68 -65 91 -51 33 21 105 87 105 98 0 10 -119 121 -129 121 -4 0 -35 -23 -70 -52z"
       id="path110"
       style="fill:#99ccff" />
    <path
       d="M4578 5731 l-76 -69 28 -27 c36 -35 51 -30 122 42 l57 58 -20 33 c-12 17 -24 32 -27 32 -4 0 -42 -31 -84 -69z"
       id="path112"
       style="fill:#99ccff" />
    <path
       d="M3193 5756 l-38 -36 35 -31 c83 -73 412 -332 448 -353 15 -9 52 20 52 40 0 7 -89 90 -197 185 -109 94 -205 179 -213 188 -42 44 -46 45 -87 7z"
       id="path114"
       style="fill:#cc66cc" />
    <path
       d="M3784 5707 l-26 -23 128 -123 c194 -185 433 -381 465 -381 33 0 -21 64 -249 292 -142 142 -265 258 -274 258 -9 0 -29 -10 -44 -23z"
       id="path116"
       style="fill:#cc66cc" />
    <path
       d="M4087 5652 l-57 -58 23 -22 c13 -12 26 -22 30 -22 11 0 127 100 127 110 0 14 -38 50 -53 50 -7 0 -38 -26 -70 -58z"
       id="path118"
       style="fill:#99ccff" />
    <path
       d="M3103 5664 c-6 -15 53 -85 89 -105 20 -11 48 -2 48 16 0 13 -106 105 -121 105 -6 0 -12 -7 -16 -16z"
       id="path120"
       style="fill:#99ccff" />
    <path
       d="M4656 5624 l-58 -56 33 -29 c19 -15 36 -28 39 -28 3 0 25 18 50 39 l45 39 -15 43 c-8 23 -19 43 -25 45 -5 1 -36 -23 -69 -53z"
       id="path122"
       style="fill:#99ccff" />
    <path
       d="M3648 5611 c-38 -25 -68 -50 -68 -55 0 -9 141 -146 150 -146 3 0 32 24 65 54 70 63 70 62 -21 142 l-59 52 -67 -47z"
       id="path124"
       style="fill:#99ccff" />
    <path
       d="M4182 5574 l-73 -55 43 -35 c24 -18 47 -32 53 -31 12 4 133 110 134 117 1 5 -74 60 -81 60 -1 0 -36 -25 -76 -56z"
       id="path126"
       style="fill:#99ccff" />
    <path
       d="M3046 5585 c-29 -44 -21 -60 82 -147 53 -46 115 -97 137 -114 22 -17 70 -54 108 -83 37 -29 67 -49 67 -44 0 24 -346 413 -368 413 -5 0 -17 -11 -26 -25z"
       id="path128"
       style="fill:#cc66cc" />
    <path
       d="M5685 5452 c-55 -70 -128 -165 -163 -212 -34 -47 -100 -136 -146 -199 -46 -63 -108 -161 -136 -218 l-53 -104 23 -75 c19 -65 21 -89 16 -172 -16 -232 -35 -344 -76 -441 l-30 -71 29 -57 c16 -32 34 -83 40 -114 12 -59 17 -321 6 -338 -3 -6 -10 -36 -15 -67 -8 -49 -6 -65 18 -132 25 -72 27 -88 27 -242 0 -150 -3 -174 -28 -261 -32 -115 -33 -129 -8 -249 22 -101 21 -103 -16 -266 l-25 -111 21 -42 c47 -91 166 -175 391 -274 155 -68 335 -129 481 -163 125 -29 156 -50 183 -122 36 -95 8 -339 -54 -464 -90 -182 -296 -380 -600 -577 -66 -42 -87 -60 -75 -65 9 -3 69 -6 134 -6 189 0 275 30 426 148 129 101 164 140 212 240 57 120 146 212 280 291 119 71 133 106 109 269 -18 114 -94 316 -344 912 -153 365 -195 491 -211 625 -6 44 -12 177 -16 295 -6 227 -9 272 -26 385 -18 121 -88 382 -156 585 -93 277 -112 345 -124 430 -9 68 -12 497 -4 578 6 59 18 412 14 412 -2 0 -49 -58 -104 -128z m-93 -704 c17 -28 54 -145 67 -211 5 -26 9 -96 10 -155 2 -167 11 -260 31 -348 26 -113 35 -184 22 -184 -13 0 -36 59 -61 157 -22 84 -27 134 -36 328 -9 183 -15 223 -46 316 -16 48 -29 94 -29 103 0 23 25 20 42 -6z m-220 -415 c31 -35 69 -126 124 -291 78 -238 90 -290 134 -605 36 -254 48 -401 31 -411 -23 -15 -30 19 -81 401 -30 224 -34 249 -71 401 -27 115 -111 363 -148 441 -28 60 -31 81 -12 81 4 0 15 -8 23 -17z m400 -1488 c0 -316 37 -476 175 -742 51 -99 64 -143 43 -143 -20 0 -151 233 -188 335 -52 139 -82 346 -77 530 3 148 15 210 36 203 8 -3 11 -61 11 -183z"
       id="path130"
       style="fill:#cc99cc" />
    <path
       d="M3256 5528 c-14 -19 -13 -24 3 -47 11 -14 30 -37 44 -49 l25 -24 31 23 c17 12 31 26 31 30 0 7 -105 89 -114 89 -3 0 -12 -10 -20 -22z"
       id="path132"
       style="fill:#99ccff" />
    <path
       d="M4737 5512 l-37 -38 23 -22 23 -21 32 19 c18 11 32 26 32 34 0 19 -21 66 -30 66 -3 0 -23 -17 -43 -38z"
       id="path134"
       style="fill:#99ccff" />
    <path
       d="M4297 5478 l-68 -63 23 -28 23 -27 79 67 78 67 -28 23 c-16 13 -31 23 -34 23 -3 0 -36 -28 -73 -62z"
       id="path136"
       style="fill:#99ccff" />
    <path
       d="M3708 5320 c-95 -95 -157 -162 -138 -149 66 43 259 190 307 234 40 36 46 46 37 61 -6 10 -15 19 -21 21 -6 2 -89 -73 -185 -167z"
       id="path138"
       style="fill:#99ccff" />
    <path
       d="M2991 5436 c-21 -85 -15 -92 42 -45 l38 32 -27 28 c-15 16 -31 29 -35 29 -4 0 -12 -20 -18 -44z"
       id="path140"
       style="fill:#99ccff" />
    <path
       d="M4385 5399 c-36 -34 -65 -67 -65 -73 0 -7 16 -27 34 -46 l35 -33 37 33 c53 46 116 117 113 127 -3 12 -61 53 -76 53 -7 0 -42 -28 -78 -61z"
       id="path142"
       style="fill:#99ccff" />
    <path
       d="M3390 5401 l-34 -29 59 -72 c33 -39 68 -81 77 -93 9 -12 18 -19 20 -17 2 3 25 28 51 56 l48 51 -87 66 c-47 37 -89 67 -93 67 -3 0 -22 -13 -41 -29z"
       id="path144"
       style="fill:#99ccff" />
    <path
       d="M4802 5411 l-24 -18 33 -27 c37 -31 45 -24 35 30 -8 39 -12 40 -44 15z"
       id="path146"
       style="fill:#99ccff" />
    <path
       d="M3890 5362 l-64 -59 59 -56 c33 -31 63 -57 67 -57 3 0 32 30 64 66 l59 67 -53 48 c-30 27 -57 49 -60 49 -4 0 -36 -26 -72 -58z"
       id="path148"
       style="fill:#99ccff" />
    <path
       d="M3038 5349 c-67 -46 -73 -56 -83 -128 -7 -52 -7 -53 16 -46 30 9 229 134 229 144 0 10 -82 71 -94 70 -6 0 -37 -18 -68 -40z"
       id="path150"
       style="fill:#99ccff" />
    <path
       d="M4544 5332 c-78 -62 -184 -187 -131 -156 24 15 103 80 152 126 36 34 47 50 39 58 -8 8 -25 0 -60 -28z"
       id="path152"
       style="fill:#99ccff" />
    <path
       d="M4599 5274 c-30 -25 -58 -50 -64 -55 -5 -5 21 -7 66 -3 83 7 157 -5 221 -36 23 -11 43 -18 45 -16 5 4 -131 107 -179 135 l-34 21 -55 -46z"
       id="path154"
       style="fill:#cc66cc" />
    <path
       d="M3170 5244 c-36 -25 -100 -64 -142 -86 l-78 -40 0 -75 0 -75 23 16 c52 38 157 85 212 95 32 6 98 11 146 11 88 0 139 11 139 30 0 5 -19 22 -42 37 -24 15 -75 51 -114 80 -39 29 -73 53 -75 53 -2 0 -33 -21 -69 -46z"
       id="path156"
       style="fill:#cc66cc" />
    <path
       d="M4057 5248 c-61 -74 -93 -108 -104 -108 -5 0 -44 32 -87 72 l-77 71 -22 -22 -22 -22 50 -45 c28 -24 73 -56 101 -70 46 -23 55 -24 82 -12 16 7 63 44 103 81 69 65 72 70 54 83 -29 21 -40 18 -78 -28z"
       id="path158"
       style="fill:#99ccff" />
    <path
       d="M4093 5151 c-46 -42 -83 -83 -83 -90 0 -6 7 -26 16 -43 19 -36 20 -107 3 -140 -29 -55 -76 -63 -120 -19 -24 24 -29 38 -29 77 0 25 5 64 12 86 13 45 29 26 -123 145 l-67 52 -76 -56 -76 -56 85 -81 c82 -78 85 -83 85 -125 0 -36 7 -53 39 -95 49 -64 108 -187 117 -245 11 -68 -15 -48 -51 40 -49 119 -71 154 -140 223 -70 70 -110 88 -159 75 -43 -12 -73 -1 -95 36 -18 31 -24 34 -86 40 -85 9 -301 -16 -353 -42 l-37 -18 1 -145 c2 -215 63 -614 121 -795 62 -193 135 -309 292 -465 190 -188 332 -282 536 -355 165 -59 218 -58 335 11 135 79 205 150 316 319 160 246 254 494 305 810 16 100 22 193 26 402 3 150 2 292 -1 317 -7 43 -9 45 -59 63 -40 14 -82 18 -182 18 -155 -1 -198 -14 -208 -64 -14 -67 -86 -103 -129 -64 -18 16 -21 14 -69 -33 -87 -84 -102 -122 -114 -274 -8 -96 -14 -130 -26 -130 -5 0 -10 19 -10 43 -5 152 13 251 57 320 14 21 28 57 30 79 7 58 26 90 81 137 26 22 45 42 43 44 -33 28 -104 77 -113 77 -7 -1 -49 -36 -94 -79z m572 -221 c93 -14 145 -28 145 -41 0 -7 -21 -10 -54 -7 -42 2 -58 -1 -75 -16 -37 -34 -26 -49 18 -24 43 25 64 19 38 -10 -28 -30 -20 -33 36 -12 28 11 55 20 60 20 39 0 -73 -115 -148 -153 -44 -22 -69 -26 -205 -32 -95 -4 -170 -13 -195 -22 -55 -21 -95 -27 -95 -16 0 18 56 88 104 130 41 36 86 61 256 142 23 10 21 11 -17 6 -72 -9 -149 -44 -223 -101 -74 -57 -110 -70 -90 -34 15 29 115 106 175 135 85 42 155 51 270 35z m-1188 -70 c102 -36 253 -149 210 -158 -9 -2 -51 21 -95 51 -43 30 -101 62 -128 71 -86 30 -224 34 -224 7 0 -5 13 -12 30 -16 39 -9 45 -8 45 8 1 31 165 -29 269 -97 64 -43 126 -111 126 -138 0 -22 -3 -22 -55 -4 -24 9 -111 17 -220 21 -194 8 -202 10 -287 72 -49 35 -95 90 -85 100 4 3 24 -2 47 -11 22 -9 48 -16 57 -16 15 0 15 1 0 18 -16 17 -23 42 -13 42 3 0 21 -9 40 -21 45 -26 61 -22 37 10 -16 21 -26 24 -75 22 -71 -3 -73 14 -3 33 81 23 87 24 180 25 64 1 103 -4 144 -19z m792 -669 c52 -52 29 -181 -31 -181 -23 0 -23 5 3 47 l21 34 -20 54 c-10 30 -17 57 -14 60 10 9 22 5 41 -14z m-458 -58 c-20 -70 -15 -92 24 -109 19 -8 35 -19 35 -24 0 -19 -69 -11 -90 10 -34 34 -25 113 19 163 20 24 25 8 12 -40z m370 -7 c6 -13 20 -27 30 -29 32 -8 21 -27 -28 -50 -75 -35 -73 -32 -56 -77 9 -22 13 -43 10 -47 -10 -9 -33 14 -47 47 -22 53 -72 51 -90 -4 -12 -37 -60 -89 -60 -66 0 8 7 34 17 58 20 52 14 60 -55 76 -58 13 -67 26 -30 44 14 6 29 23 32 37 8 31 22 25 40 -20 18 -43 48 -59 99 -52 52 7 89 35 99 75 10 38 24 41 39 8z m72 -290 c28 -30 67 -61 85 -70 44 -23 68 -88 26 -72 -8 3 -40 -18 -74 -47 -206 -177 -231 -181 -435 -76 -64 32 -122 59 -130 59 -7 0 -18 14 -24 31 -15 44 -14 49 12 49 24 0 54 27 102 95 15 22 35 46 43 53 21 16 70 15 121 -3 39 -13 44 -13 93 10 29 14 70 25 91 25 32 0 45 -7 90 -54z"
       id="path160"
       style="fill:#ffcc99" />
    <path
       d="M4580 4880 c0 -23 17 -25 55 -8 37 17 31 28 -15 28 -33 0 -40 -3 -40 -20z"
       id="path162"
       style="fill:#663300" />
    <path
       d="M4528 4804 c-4 -3 0 -17 9 -31 13 -19 14 -29 5 -48 -7 -14 -16 -25 -22 -25 -5 0 -10 -4 -10 -8 0 -4 16 -6 36 -4 26 3 38 11 45 29 11 29 11 54 1 70 -9 14 -55 27 -64 17z"
       id="path164"
       style="fill:#0033ff" />
    <path
       d="M4620 4750 c0 -54 4 -58 38 -34 31 21 28 50 -8 69 l-30 16 0 -51z"
       id="path166"
       style="fill:#99ccff" />
    <path
       d="M4395 4776 c-16 -12 -18 -19 -10 -52 10 -37 12 -39 55 -42 l44 -3 -28 26 c-23 21 -27 32 -22 56 6 33 -8 38 -39 15z"
       id="path168"
       style="fill:#0033ff" />
    <path
       d="M4328 4743 c-9 -10 -21 -28 -27 -40 -10 -20 -9 -23 14 -29 41 -10 51 -1 47 45 -4 45 -11 50 -34 24z"
       id="path170"
       style="fill:#99ccff" />
    <path
       d="M3314 4735 c-3 -8 -2 -32 3 -52 10 -43 26 -50 126 -52 56 -1 58 0 74 35 20 40 10 67 -26 72 -19 3 -21 0 -16 -21 8 -30 -23 -67 -55 -67 -33 0 -63 38 -56 71 5 26 3 29 -20 29 -13 0 -27 -7 -30 -15z"
       id="path172"
       style="fill:#0033ff" />
    <path
       d="M3240 4720 c-16 -16 -18 -25 -10 -40 19 -36 76 -55 66 -22 -3 9 -7 32 -8 50 -3 37 -19 41 -48 12z"
       id="path174"
       style="fill:#99ccff" />
    <path
       d="M3175 4700 c3 -5 8 -10 11 -10 2 0 4 5 4 10 0 6 -5 10 -11 10 -5 0 -7 -4 -4 -10z"
       id="path176"
       style="fill:none" />
    <path
       d="M3551 4687 c-18 -47 -14 -57 23 -57 47 0 50 11 16 51 l-28 34 -11 -28z"
       id="path178"
       style="fill:#99ccff" />
    <path
       d="M4100 3834 c-43 -20 -64 -24 -95 -19 -22 3 -60 7 -84 8 -43 2 -46 0 -89 -56 -25 -31 -43 -60 -40 -63 3 -3 23 2 43 10 48 20 78 20 118 0 43 -23 73 -20 148 11 55 24 72 26 129 21 l65 -6 -62 60 c-33 33 -65 60 -70 60 -4 0 -33 -12 -63 -26z"
       id="path180"
       style="fill:#ff6600" />
    <path
       d="M4149 3703 c-1 -5 -2 -17 -3 -28 -1 -13 -6 -18 -16 -16 -18 5 -37 5 -108 3 -38 -1 -57 -7 -69 -22 -25 -29 -33 -25 -33 15 0 27 -4 35 -18 35 -25 0 -112 -30 -112 -39 0 -4 35 -25 77 -47 71 -36 83 -39 157 -39 94 1 137 19 201 85 33 34 37 42 25 50 -18 11 -99 13 -101 3z"
       id="path182"
       style="fill:#ff3300" />
    <path
       d="M4534 5170 c-65 -10 -124 -29 -124 -41 0 -19 30 -21 93 -5 71 18 243 22 295 6 29 -8 32 -7 22 5 -25 30 -186 49 -286 35z"
       id="path184"
       style="fill:#663300" />
    <path
       d="M2200 5097 c0 -9 6 -61 14 -115 30 -210 40 -532 21 -687 -27 -211 -95 -550 -162 -800 -114 -430 -123 -487 -119 -765 3 -162 8 -219 31 -335 65 -337 77 -544 45 -755 -10 -63 -21 -137 -25 -165 l-8 -49 49 37 c121 93 231 145 599 288 292 112 426 190 543 313 139 147 174 243 251 696 43 251 44 277 26 454 l-16 159 -114 116 c-63 64 -121 125 -129 136 -8 11 -17 18 -19 15 -14 -13 -9 -129 6 -173 13 -37 15 -57 8 -85 -17 -62 3 -326 29 -393 21 -54 21 -58 5 -89 -15 -28 -15 -41 -5 -99 7 -36 18 -84 26 -106 16 -48 18 -99 4 -125 -7 -13 -6 -35 2 -69 9 -39 9 -59 -1 -89 -11 -32 -10 -46 4 -90 15 -44 15 -57 4 -83 -13 -32 -61 -69 -90 -69 -41 0 -65 70 -47 140 9 34 8 44 -7 60 -13 14 -16 33 -13 83 l3 65 -32 -5 c-48 -8 -76 3 -96 36 -21 35 -22 109 -3 156 14 33 14 34 -20 60 -52 39 -62 103 -33 215 12 46 11 49 -15 81 -24 29 -27 39 -24 88 2 31 13 86 23 123 l19 66 -32 36 c-37 43 -40 77 -18 196 15 74 15 75 -10 111 -27 39 -29 69 -13 168 11 67 11 68 -19 109 -27 38 -29 47 -25 99 3 32 13 83 23 113 l19 55 -30 60 c-21 44 -31 81 -36 140 l-6 80 -196 191 c-167 163 -280 283 -370 394 -17 21 -20 22 -21 7z m420 -939 c1 -94 14 -205 40 -344 50 -268 59 -348 56 -499 -3 -119 -7 -152 -30 -221 -14 -44 -34 -88 -44 -97 -36 -33 -35 -13 9 138 21 69 24 100 22 225 -1 146 -10 221 -58 475 -34 183 -36 345 -4 345 5 0 9 -10 9 -22z m-218 -479 c47 -92 51 -130 44 -379 -4 -129 -11 -239 -15 -243 -5 -5 -15 -6 -22 -2 -9 6 -10 64 -6 248 5 213 4 246 -13 301 -25 85 -30 118 -16 113 6 -2 19 -19 28 -38z m302 -1091 c3 -13 8 -90 11 -171 3 -81 11 -174 18 -205 16 -69 16 -84 0 -89 -18 -6 -31 27 -48 122 -15 86 -21 318 -9 349 9 23 23 20 28 -6z m-351 -40 c3 -13 13 -81 22 -153 9 -71 28 -168 42 -215 14 -47 37 -120 49 -164 38 -125 37 -246 -1 -246 -10 0 -14 20 -13 83 0 69 -5 98 -36 187 -77 226 -122 530 -77 530 5 0 11 -10 14 -22z"
       id="path186"
       style="fill:#cc99cc" />
    <path
       d="M4356 5082 c-22 -43 -24 -86 -4 -90 27 -5 51 42 44 83 -8 42 -21 44 -40 7z"
       id="path188"
       style="fill:#ffcc00" />
    <path
       d="M4273 5072 c-31 -29 -68 -90 -60 -98 9 -10 69 50 88 87 23 46 15 49 -28 11z"
       id="path190"
       style="fill:#663300" />
    <path
       d="M3477 5034 c-12 -40 -13 -62 -6 -75 22 -42 79 -7 79 48 0 29 -32 83 -49 83 -5 0 -15 -25 -24 -56z"
       id="path192"
       style="fill:#ffcc00" />
    <path
       d="M3931 5023 c-6 -21 -11 -59 -11 -85 0 -37 5 -50 23 -63 21 -15 23 -14 40 6 9 12 17 37 17 58 0 40 -33 121 -49 121 -6 0 -15 -17 -20 -37z"
       id="path194"
       style="fill:#ffcc00" />
    <path
       d="M3195 5040 c-107 -22 -89 -29 70 -27 143 2 160 4 163 20 3 15 -6 17 -95 16 -54 -1 -116 -5 -138 -9z"
       id="path196"
       style="fill:#663300" />
    <path
       d="M3597 4993 c-4 -3 -7 -17 -7 -29 0 -24 30 -50 64 -56 31 -5 29 18 -5 56 -31 36 -40 41 -52 29z"
       id="path198"
       style="fill:#ffcc00" />
    <path
       d="M4939 4676 c-3 -3 -7 -48 -13 -149 -4 -65 -9 -125 -10 -135 -2 -9 -7 -51 -11 -92 -9 -103 -51 -287 -86 -382 -16 -44 -29 -99 -29 -124 0 -45 35 -144 51 -144 4 0 23 21 41 48 17 26 57 81 88 123 86 115 190 333 178 370 -2 5 -22 -18 -45 -53 -42 -63 -119 -146 -127 -137 -3 3 26 54 64 114 75 118 120 229 139 339 12 66 9 99 -5 60 -22 -63 -65 -150 -113 -229 -58 -94 -123 -174 -129 -157 -1 5 19 47 46 93 26 46 69 120 95 164 61 106 88 208 71 271 -5 19 -13 20 -105 20 -54 0 -99 0 -100 0z"
       id="path200"
       style="fill:#ff9900" />
    <path
       d="M2868 4520 c-30 -32 -38 -47 -38 -77 1 -89 41 -183 79 -183 10 0 26 9 35 19 17 19 17 26 -1 147 -10 70 -22 129 -28 131 -5 1 -27 -15 -47 -37z"
       id="path202"
       style="fill:#99ffff" />
    <path
       d="M2955 4218 c10 -31 25 -47 25 -26 0 24 -11 48 -22 48 -5 0 -6 -10 -3 -22z"
       id="path204"
       style="fill:none" />
    <path
       d="M2880 4178 c-18 -51 -25 -171 -11 -196 15 -29 33 -28 69 3 41 34 43 54 17 130 -36 101 -55 117 -75 63z"
       id="path206"
       style="fill:#99ffff" />
    <path
       d="M2994 3976 c-4 -16 4 -42 23 -77 26 -51 28 -52 31 -26 4 32 -25 127 -39 127 -5 0 -11 -11 -15 -24z"
       id="path208"
       style="fill:#99ffff" />
    <path
       d="M2915 3898 c-38 -94 -23 -224 26 -216 28 4 59 62 59 108 0 39 -43 140 -60 140 -6 0 -17 -15 -25 -32z"
       id="path210"
       style="fill:#66ffff" />
    <path
       d="M5029 3824 c-30 -42 -69 -97 -87 -123 -83 -116 -113 -213 -113 -364 0 -91 12 -212 27 -289 6 -32 26 -36 45 -10 8 11 46 61 85 113 107 141 174 292 174 392 0 40 -1 39 -50 -59 -45 -89 -115 -183 -127 -170 -3 2 12 33 32 67 70 119 120 248 132 340 7 54 -13 56 -26 3 -23 -92 -141 -317 -157 -301 -3 3 23 71 56 152 42 101 63 165 66 204 3 31 7 71 9 89 2 17 0 32 -4 32 -4 0 -32 -34 -62 -76z"
       id="path212"
       style="fill:#ff9900" />
    <path
       d="M3047 3778 c-3 -24 -8 -52 -12 -63 -3 -11 1 -29 8 -40 13 -16 17 -17 31 -6 28 23 40 84 25 117 -22 46 -45 43 -52 -8z"
       id="path214"
       style="fill:#99ffff" />
    <path
       d="M4695 3637 l-48 -93 41 -71 c23 -39 42 -76 42 -82 0 -20 -17 -11 -35 17 -48 74 -66 93 -81 81 -24 -20 -16 -81 26 -188 22 -57 38 -106 35 -109 -7 -8 -12 -1 -51 69 l-35 64 5 -105 c6 -123 30 -209 81 -295 36 -60 73 -105 85 -105 3 0 16 17 27 38 l20 39 -51 50 c-50 50 -117 161 -130 216 -11 47 9 29 49 -44 50 -90 138 -189 155 -172 18 17 -2 68 -61 158 -47 71 -99 165 -99 179 0 23 27 -5 70 -71 l49 -77 -1 164 c-1 126 3 181 17 233 15 61 15 70 2 85 -9 9 -25 38 -36 65 -11 26 -22 47 -24 47 -2 0 -26 -42 -52 -93z"
       id="path216"
       style="fill:#ff9900" />
    <path
       d="M3102 3647 c-20 -22 -20 -23 -2 -76 l18 -54 17 26 c12 20 15 37 10 71 -9 56 -16 62 -43 33z"
       id="path218"
       style="fill:#66ffff" />
    <path
       d="M2963 3643 c-27 -23 -42 -70 -49 -153 -6 -61 -4 -70 15 -89 50 -50 131 28 131 127 0 44 -38 126 -61 130 -9 2 -25 -5 -36 -15z"
       id="path220"
       style="fill:#99ffff" />
    <path
       d="M3123 3482 c-6 -4 -24 -25 -38 -46 -28 -41 -28 -65 -1 -101 12 -16 18 -18 33 -9 28 17 43 55 43 112 0 52 -9 62 -37 44z"
       id="path222"
       style="fill:#66ffff" />
    <path
       d="M4482 3316 c-60 -77 -138 -141 -267 -217 -35 -20 -52 -23 -130 -22 -60 1 -110 8 -152 22 -87 28 -254 111 -343 171 -41 27 -79 50 -84 50 -4 0 -5 -30 -1 -67 23 -206 10 -388 -51 -681 -56 -276 -92 -366 -203 -512 l-49 -64 20 -29 c59 -83 244 -186 424 -237 91 -26 125 -30 224 -30 139 0 432 48 476 77 6 5 25 31 42 58 l31 51 -6 139 c-6 157 7 307 38 412 13 45 21 112 24 198 9 225 16 255 81 340 21 29 22 33 9 100 -17 90 -24 165 -25 238 0 31 -3 57 -8 57 -4 0 -26 -24 -50 -54z m-809 -361 c44 -141 103 -319 146 -445 39 -109 52 -190 32 -190 -5 0 -16 19 -25 43 -124 338 -164 457 -196 584 -24 99 -25 105 -2 101 12 -2 25 -29 45 -93z m676 -106 c-2 -93 -18 -200 -47 -316 -22 -87 -58 -167 -71 -159 -4 3 9 83 29 178 21 96 40 214 44 263 7 85 17 115 38 115 5 0 8 -35 7 -81z"
       id="path224"
       style="fill:#ffcc99" />
    <path
       d="M2981 3339 c-39 -64 -61 -240 -31 -259 25 -16 47 -11 79 15 41 35 55 80 41 136 -6 24 -14 54 -17 66 -5 22 -38 63 -51 63 -4 0 -13 -10 -21 -21z"
       id="path226"
       style="fill:#99ffff" />
    <path
       d="M3120 3275 c-13 -16 -10 -109 4 -123 16 -16 37 34 34 82 -3 52 -17 67 -38 41z"
       id="path228"
       style="fill:#66ffff" />
    <path
       d="M5100 3224 c-19 -27 -67 -90 -107 -141 -81 -102 -127 -171 -167 -251 -31 -62 -29 -79 4 -30 29 41 101 118 112 118 18 0 5 -31 -36 -88 -64 -87 -96 -139 -113 -186 -20 -54 -32 -96 -29 -96 2 0 33 36 70 80 37 44 73 80 82 80 13 0 13 -3 0 -27 -8 -16 -35 -55 -61 -88 -51 -65 -85 -125 -85 -150 0 -25 13 -17 45 28 38 54 105 127 116 127 24 0 2 -43 -62 -120 -69 -85 -96 -140 -80 -168 7 -12 33 8 122 94 139 133 174 176 206 254 75 186 91 510 30 594 -13 18 -16 16 -47 -30z"
       id="path230"
       style="fill:#ff9900" />
    <path
       d="M3098 3092 c-34 -21 -35 -28 -3 -75 23 -33 28 -35 45 -24 37 22 38 117 2 117 -9 0 -29 -8 -44 -18z"
       id="path232"
       style="fill:#66ffff" />
    <path
       d="M2979 2995 c-11 -26 -23 -70 -26 -98 -4 -43 -1 -57 17 -79 29 -38 63 -36 91 3 18 26 21 40 16 90 -6 64 -33 122 -60 127 -12 3 -23 -10 -38 -43z"
       id="path234"
       style="fill:#99ffff" />
    <path
       d="M3146 2945 c-30 -28 -37 -85 -11 -85 27 0 65 47 65 80 0 37 -17 39 -54 5z"
       id="path236"
       style="fill:#66ffff" />
    <path
       d="M4579 2939 c-15 -29 -4 -76 43 -187 22 -51 37 -97 33 -100 -11 -11 -43 39 -77 120 -58 141 -63 53 -6 -120 16 -51 28 -96 25 -99 -3 -3 -18 18 -34 46 -49 90 -51 68 -7 -109 26 -101 58 -158 134 -237 44 -47 55 -51 64 -28 8 21 -12 60 -38 75 -30 17 -73 72 -91 114 -22 52 -4 44 44 -19 23 -30 46 -55 51 -55 5 0 7 19 4 43 -8 83 -6 233 5 277 20 83 15 106 -30 152 -23 24 -55 67 -71 96 -17 28 -32 52 -34 52 -2 0 -8 -9 -15 -21z"
       id="path238"
       style="fill:#ff9900" />
    <path
       d="M3133 2820 c-28 -11 -28 -11 -3 -60 24 -46 34 -49 56 -15 12 18 14 31 7 52 -11 31 -26 37 -60 23z"
       id="path240"
       style="fill:#66ffff" />
    <path
       d="M3031 2717 c-25 -51 -27 -124 -5 -155 20 -29 35 -28 65 4 19 21 24 35 23 78 -2 57 -26 116 -48 116 -8 0 -24 -19 -35 -43z"
       id="path242"
       style="fill:#99ffff" />
    <path
       d="M3170 2671 c-16 -31 -13 -101 5 -101 22 0 55 37 55 61 0 29 -18 59 -35 59 -8 0 -19 -9 -25 -19z"
       id="path244"
       style="fill:#66ffff" />
    <path
       d="M5088 2514 c-21 -25 -77 -81 -126 -125 -49 -43 -102 -96 -119 -117 -67 -83 -115 -214 -133 -360 -11 -83 -5 -186 9 -180 22 10 322 331 344 368 35 61 78 160 69 160 -4 0 -25 -30 -47 -66 -40 -65 -143 -174 -165 -174 -15 0 -7 12 61 95 31 39 82 114 113 169 46 81 56 107 56 145 l-1 46 -29 -58 c-16 -31 -42 -76 -59 -100 -36 -52 -108 -123 -117 -114 -3 3 21 46 53 94 33 48 70 107 81 130 22 42 53 125 49 130 -2 1 -19 -18 -39 -43z"
       id="path246"
       style="fill:#ff9900" />
    <path
       d="M3160 2510 c-6 -12 -10 -42 -8 -68 3 -39 6 -47 23 -47 31 0 58 63 44 103 -13 37 -43 43 -59 12z"
       id="path248"
       style="fill:#66ffff" />
    <path
       d="M4496 2462 c-18 -29 -30 -172 -31 -357 l0 -210 34 -66 c39 -78 157 -207 173 -191 10 10 4 63 -18 169 -2 13 -24 45 -48 72 -24 27 -55 73 -69 102 -52 107 -44 153 9 57 67 -123 89 -153 103 -143 6 3 11 24 11 47 0 32 -7 48 -39 84 -45 51 -109 169 -98 180 8 9 19 -4 88 -103 27 -40 53 -73 57 -73 5 0 19 30 31 66 l24 65 -71 68 c-69 66 -132 167 -132 213 0 19 -16 33 -24 20z"
       id="path250"
       style="fill:#ff9900" />
    <path
       d="M3182 2333 c-25 -49 -24 -123 3 -123 36 0 55 61 35 114 -11 30 -26 33 -38 9z"
       id="path252"
       style="fill:#66ffff" />
    <path
       d="M5088 2052 c-14 -20 -85 -100 -158 -176 -126 -133 -226 -253 -218 -261 2 -2 28 17 58 42 74 62 129 97 137 89 4 -4 -38 -51 -94 -104 -94 -91 -163 -173 -163 -194 0 -5 33 21 74 58 167 151 185 129 26 -31 -105 -106 -115 -123 -110 -170 3 -28 4 -29 47 -7 117 60 252 202 337 354 39 71 90 198 99 249 19 105 19 189 -1 189 -4 0 -19 -17 -34 -38z"
       id="path254"
       style="fill:#ff9900" />
    <path
       d="M5180 1973 c-1 -20 -30 -146 -44 -187 -9 -26 -16 -52 -16 -58 0 -15 93 74 131 126 l30 40 -43 43 c-40 41 -58 52 -58 36z"
       id="path256"
       style="fill:#0033ff" />
    <path
       d="M3112 1928 c-23 -18 -42 -35 -42 -39 0 -11 120 -118 163 -146 44 -27 55 -23 89 35 l18 30 -55 42 c-30 23 -69 58 -85 76 -16 19 -33 34 -38 34 -5 0 -27 -14 -50 -32z"
       id="path258"
       style="fill:#0033ff" />
    <path
       d="M5171 1711 c-85 -86 -159 -166 -164 -178 -7 -17 -4 -35 14 -75 59 -136 0 -350 -141 -511 -23 -26 -38 -47 -33 -47 43 0 285 87 421 151 l102 49 2 108 c0 59 2 118 3 132 1 14 5 102 9 195 3 94 9 198 12 232 6 62 6 62 -28 83 -18 11 -35 19 -38 19 -3 -1 -74 -72 -159 -158z"
       id="path260"
       style="fill:#6666ff" />
    <path
       d="M2965 1838 c-22 -11 -42 -22 -44 -24 -2 -1 10 -17 26 -34 l29 -31 41 40 c39 37 41 40 24 55 -22 20 -27 20 -76 -6z"
       id="path262"
       style="fill:#0033ff" />
    <path
       d="M4429 1818 c-3 -33 7 -61 57 -161 59 -117 68 -149 29 -102 -31 37 -105 163 -105 178 0 7 -3 8 -10 1 -6 -6 -13 -33 -17 -62 -5 -46 -2 -57 36 -126 22 -41 41 -81 41 -88 0 -6 -18 5 -40 27 -22 21 -42 37 -44 34 -10 -10 45 -154 82 -217 51 -86 74 -107 100 -93 29 16 35 37 36 136 1 66 8 111 25 166 l24 77 -59 55 c-32 30 -77 85 -99 121 -39 65 -54 79 -56 54z"
       id="path264"
       style="fill:#ff9900" />
    <path
       d="M5447 1793 c-5 -8 -12 -107 -23 -313 l-6 -115 43 41 c24 23 64 52 89 64 121 60 154 101 148 181 l-3 44 -95 47 c-101 50 -145 65 -153 51z"
       id="path266"
       style="fill:#cc99ff" />
    <path
       d="M2840 1783 c-38 -14 -40 -25 -8 -47 41 -28 52 -47 45 -77 -13 -50 -73 -95 -193 -145 -164 -70 -222 -124 -187 -174 15 -21 20 -21 143 -15 176 10 220 -6 220 -82 0 -37 -42 -81 -124 -130 -71 -42 -118 -82 -110 -95 3 -4 27 -19 53 -33 27 -13 77 -55 114 -95 66 -72 67 -72 104 -63 43 10 44 15 20 108 -9 33 -20 103 -25 155 -11 111 -12 424 -2 560 9 125 -1 151 -50 133z"
       id="path268"
       style="fill:#cc99ff" />
    <path
       d="M3047 1762 c-29 -30 -35 -52 -14 -52 10 0 57 61 57 75 0 13 -18 3 -43 -23z"
       id="path270"
       style="fill:#6666ff" />
    <path
       d="M3345 1739 c-27 -33 -28 -52 -3 -57 11 -2 21 11 31 42 18 54 9 58 -28 15z"
       id="path272"
       style="fill:#6666ff" />
    <path
       d="M3101 1724 c-28 -36 -27 -45 12 -81 56 -53 315 -203 351 -203 17 0 28 21 41 78 6 31 5 34 -27 45 -56 19 -250 121 -297 155 -24 18 -47 32 -52 32 -4 0 -17 -12 -28 -26z"
       id="path274"
       style="fill:#0033ff" />
    <path
       d="M3413 1716 c-9 -19 -13 -42 -10 -51 10 -25 87 -54 215 -79 195 -39 199 -39 206 -13 3 12 6 34 6 48 0 25 -4 27 -59 33 -67 8 -241 50 -270 66 -61 32 -71 32 -88 -4z"
       id="path276"
       style="fill:#0033ff" />
    <path
       d="M2600 1686 c-165 -59 -157 -54 -164 -105 -9 -76 -7 -467 3 -493 8 -20 21 -27 70 -38 58 -12 63 -12 84 8 12 12 67 52 122 90 80 54 100 73 100 92 0 40 -35 50 -185 50 -150 0 -173 7 -185 60 -8 37 18 93 56 121 15 11 74 41 131 67 127 58 194 97 202 117 14 37 -27 65 -97 65 -23 0 -85 -15 -137 -34z"
       id="path278"
       style="fill:#ccccff" />
    <path
       d="M2933 1708 c-1 -7 -3 -114 -6 -238 -6 -238 7 -412 39 -542 l16 -68 142 0 c77 0 157 -5 176 -10 19 -5 58 -16 86 -24 45 -12 67 -12 175 1 111 13 133 13 212 -2 l87 -15 92 50 c51 28 114 58 141 67 56 18 63 31 66 115 3 73 32 190 67 269 15 33 24 62 21 65 -3 3 -47 -2 -99 -12 -60 -11 -164 -18 -293 -21 -176 -4 -211 -2 -294 16 -165 36 -365 147 -551 305 -69 59 -76 63 -77 44z"
       id="path280"
       style="fill:#6666ff" />
    <path
       d="M4195 1694 c-55 -13 -130 -27 -167 -30 -38 -4 -73 -13 -79 -20 -6 -7 -13 -31 -16 -54 -6 -40 -6 -40 28 -40 42 0 260 34 316 49 42 12 49 21 66 99 7 28 -13 28 -148 -4z"
       id="path282"
       style="fill:#0033ff" />
    <path
       d="M5740 1644 c0 -96 -30 -135 -162 -208 -67 -37 -118 -85 -118 -112 0 -23 45 -45 128 -63 95 -22 109 -29 156 -82 38 -41 38 -42 34 -114 -5 -98 -40 -159 -117 -197 -75 -38 -106 -36 -175 12 -107 75 -194 108 -239 91 -33 -13 -55 -73 -67 -182 -11 -106 -35 -163 -91 -213 -33 -30 -46 -36 -85 -36 -51 0 -87 16 -161 71 -29 22 -63 43 -76 48 -31 12 -73 -8 -117 -54 -100 -107 -330 -225 -437 -225 -25 0 -45 -11 -88 -50 -30 -27 -74 -59 -97 -72 l-43 -22 45 -7 c64 -11 207 -10 260 1 25 5 149 16 275 25 250 16 332 26 472 56 187 40 351 109 531 223 174 110 388 283 398 320 3 14 -15 62 -51 138 -80 167 -119 336 -129 560 -5 114 -9 128 -32 128 -9 0 -14 -11 -14 -36z"
       id="path284"
       style="fill:#ccccff" />
    <path
       d="M3868 1605 c-4 -52 5 -66 22 -35 13 25 9 72 -6 77 -8 3 -13 -13 -16 -42z"
       id="path286"
       style="fill:#6666ff" />
    <path
       d="M5824 1625 c-6 -25 1 -153 12 -225 27 -166 90 -372 140 -458 l27 -46 34 40 c93 106 148 248 160 411 6 90 -6 160 -38 204 -15 21 -33 31 -77 40 -61 12 -206 47 -234 55 -12 4 -19 -2 -24 -21z"
       id="path288"
       style="fill:#9933ff" />
    <path
       d="M2282 1551 c-126 -62 -217 -120 -206 -130 5 -5 27 -14 49 -21 72 -23 132 -59 193 -115 l59 -55 5 38 c3 20 6 84 7 142 1 58 4 114 7 125 3 11 1 31 -3 43 -9 22 -9 22 -111 -27z"
       id="path290"
       style="fill:#9933ff" />
    <path
       d="M4236 1544 c-38 -7 -70 -15 -72 -16 -1 -2 -6 -27 -10 -56 l-7 -52 29 0 c76 0 154 48 154 94 0 39 -18 44 -94 30z"
       id="path292"
       style="fill:#0033ff" />
    <path
       d="M3552 1527 c-28 -33 -22 -131 7 -113 8 6 25 85 23 113 -1 14 -19 14 -30 0z"
       id="path294"
       style="fill:#6666ff" />
    <path
       d="M3625 1496 c-20 -48 -19 -92 3 -101 26 -11 301 -19 366 -11 l57 8 -3 59 -3 59 -170 4 c-93 3 -185 8 -203 12 -30 6 -33 4 -47 -30z"
       id="path296"
       style="fill:#0033ff" />
    <path
       d="M4097 1499 c-10 -37 -8 -89 3 -89 6 0 10 1 10 3 9 60 10 79 2 93 -8 14 -10 13 -15 -7z"
       id="path298"
       style="fill:#6666ff" />
    <path
       d="M4889 1392 c-42 -42 -107 -92 -177 -135 -105 -65 -165 -117 -192 -166 -14 -28 -11 -27 69 13 82 42 188 79 202 71 19 -13 7 -22 -63 -49 -87 -33 -196 -96 -229 -133 -14 -15 -18 -24 -9 -21 8 3 57 20 108 38 67 24 96 30 104 22 12 -12 -12 -24 -143 -77 -104 -41 -154 -108 -96 -129 78 -28 270 47 366 143 90 91 175 270 173 366 0 56 -20 125 -35 125 -7 0 -42 -31 -78 -68z"
       id="path300"
       style="fill:#ff9900" />
    <path
       d="M4287 1332 c-80 -170 -103 -324 -76 -493 14 -79 18 -81 95 -49 45 20 46 21 30 39 -43 48 -87 257 -58 275 7 4 13 -3 16 -16 2 -13 10 -50 16 -83 13 -67 54 -165 69 -165 9 0 31 83 31 116 0 9 -11 34 -24 57 -26 44 -51 151 -44 183 6 22 2 30 50 -98 16 -43 33 -78 36 -78 4 0 24 32 44 72 l37 71 -45 51 c-47 51 -82 112 -103 179 -7 20 -16 37 -20 37 -5 0 -29 -44 -54 -98z"
       id="path302"
       style="fill:#ff9900" />
    <path
       d="M1989 1337 c-16 -22 -29 -43 -29 -47 0 -4 18 -15 40 -25 51 -23 96 -74 126 -142 l24 -53 97 0 c152 0 161 6 123 80 -28 55 -50 64 -165 66 -75 1 -100 5 -100 14 0 21 54 31 130 25 l70 -6 -40 35 c-40 35 -40 35 -112 29 -75 -6 -95 4 -52 27 27 15 19 22 -37 30 -45 7 -46 6 -75 -33z"
       id="path304"
       style="fill:#ff9900" />
    <path
       d="M5420 1197 c0 -105 -12 -133 -70 -157 -16 -7 -30 -16 -30 -20 0 -4 24 -18 53 -30 28 -12 71 -36 95 -52 69 -48 109 -61 146 -48 49 16 103 77 116 132 30 118 -23 174 -193 208 -33 7 -70 22 -87 37 l-30 25 0 -95z"
       id="path306"
       style="fill:#cc99ff" />
    <path
       d="M1919 1208 c-15 -28 -24 -195 -12 -226 8 -21 11 -18 32 32 13 31 29 56 37 56 18 0 18 -9 -1 -53 -18 -43 -20 -144 -3 -198 14 -47 28 -51 28 -6 1 52 26 167 40 180 10 10 11 -9 4 -98 -14 -194 -12 -206 58 -281 45 -48 62 -56 49 -21 -10 27 -19 108 -26 242 -13 229 -30 289 -100 354 -51 47 -88 53 -106 19z"
       id="path308"
       style="fill:#ff9900" />
    <path
       d="M2172 1017 c-16 -19 -6 -148 12 -159 6 -4 28 -8 49 -8 45 0 177 -42 227 -73 19 -11 58 -38 87 -59 l51 -37 103 58 c57 32 104 62 106 67 2 5 -8 21 -22 37 -36 38 -100 38 -175 -3 -68 -36 -85 -39 -68 -9 17 27 100 69 138 69 51 0 33 18 -27 27 -105 15 -193 9 -247 -15 -32 -15 -53 -19 -59 -13 -32 32 70 66 195 66 47 0 85 1 84 3 -2 1 -36 14 -77 28 -63 22 -96 27 -219 31 -124 5 -148 3 -158 -10z"
       id="path310"
       style="fill:#ff9900" />
    <path
       d="M5060 919 c-30 -11 -98 -31 -150 -45 -52 -14 -100 -30 -107 -37 -7 -7 -23 -38 -37 -69 l-25 -57 52 -26 c29 -15 68 -39 87 -53 97 -75 152 -72 213 10 30 41 46 106 54 215 7 96 7 96 -87 62z"
       id="path312"
       style="fill:#cc99ff" />
    <path
       d="M4033 846 c-22 -20 -55 -68 -78 -115 -21 -45 -43 -81 -47 -81 -14 0 -9 38 12 92 11 28 17 54 14 57 -8 8 -184 -175 -184 -192 0 -11 148 -78 171 -77 4 0 37 30 75 68 38 37 95 84 127 105 31 21 57 44 57 51 0 36 -24 126 -33 123 -6 -2 -39 -56 -74 -122 -67 -126 -70 -131 -78 -123 -7 7 34 116 69 186 14 28 26 54 26 57 0 14 -23 2 -57 -29z"
       id="path314"
       style="fill:#ff9900" />
    <path
       d="M4690 819 c-71 -33 -97 -39 -225 -49 -130 -11 -165 -17 -165 -32 0 -5 30 -6 73 -3 42 4 78 2 87 -4 8 -5 12 -12 10 -14 -3 -2 -70 -13 -150 -25 -133 -18 -200 -36 -200 -51 0 -4 42 -7 93 -7 99 0 167 -10 167 -23 0 -5 -64 -11 -142 -13 -146 -5 -225 -21 -183 -38 11 -5 38 -9 60 -10 44 -1 125 -33 125 -50 0 -13 -2 -12 -75 5 -75 18 -156 19 -179 2 -16 -12 -13 -15 31 -39 76 -42 154 -53 235 -34 71 17 183 68 258 119 101 69 214 197 235 265 8 27 2 27 -55 1z"
       id="path316"
       style="fill:#ff9900" />
    <path
       d="M3014 791 c-21 -16 -57 -45 -78 -65 -22 -20 -43 -36 -48 -36 -18 0 -6 26 29 62 24 25 32 38 22 38 -47 0 -240 -89 -283 -130 -19 -19 -19 -19 9 -55 25 -34 30 -36 59 -29 38 10 257 12 309 2 37 -7 41 -5 82 40 24 26 89 74 144 107 55 33 101 63 101 67 0 4 -24 12 -54 18 -49 10 -59 9 -98 -11 -24 -12 -71 -51 -106 -87 -65 -67 -85 -75 -58 -24 15 29 52 66 111 109 l30 22 -66 1 c-58 0 -71 -4 -105 -29z"
       id="path318"
       style="fill:#ff9900" />
    <path
       d="M2175 743 c18 -151 47 -226 121 -308 31 -35 35 -37 30 -15 -4 14 -9 51 -13 84 -9 82 15 72 37 -15 19 -74 39 -115 72 -145 31 -29 102 -66 106 -56 1 5 -14 43 -34 86 -40 88 -57 162 -31 136 8 -8 36 -55 61 -105 26 -49 61 -103 78 -119 31 -28 33 -29 120 -23 48 3 92 9 98 12 6 4 -6 26 -30 52 -22 25 -59 83 -83 127 -57 110 -194 250 -287 294 -77 36 -136 51 -203 52 l-48 0 6 -57z"
       id="path320"
       style="fill:#ff9900" />
    <path
       d="M3585 790 c-79 -9 -125 -34 -210 -114 -38 -36 -73 -66 -77 -66 -21 0 -3 36 40 82 40 43 43 50 22 43 -66 -19 -230 -142 -230 -172 0 -6 18 -18 40 -27 39 -15 42 -15 107 10 118 45 163 54 285 54 82 0 120 4 127 13 6 6 38 43 71 81 37 42 57 73 52 78 -5 5 -28 12 -50 15 -36 5 -49 0 -111 -41 -39 -26 -89 -63 -112 -82 -44 -36 -59 -42 -59 -21 0 21 71 84 127 112 52 26 76 46 51 44 -7 -1 -40 -5 -73 -9z"
       id="path322"
       style="fill:#ff9900" />
    <path
       d="M3490 556 c0 -3 28 -22 62 -42 35 -21 80 -54 100 -72 41 -37 84 -100 74 -109 -3 -3 -31 16 -62 43 -93 81 -127 105 -179 129 -105 47 -142 39 -46 -10 57 -29 156 -117 164 -145 3 -11 3 -20 0 -20 -3 0 -41 29 -86 65 -100 80 -154 107 -202 103 l-35 -3 22 -25 c49 -55 174 -154 224 -177 109 -50 324 -54 454 -8 43 15 141 75 139 85 -1 13 -347 173 -383 177 l-41 5 64 -37 c36 -20 79 -47 95 -60 30 -23 74 -85 60 -85 -4 0 -48 26 -98 58 -50 32 -122 71 -161 86 -38 15 -78 31 -87 36 -17 10 -78 14 -78 6z"
       id="path324"
       style="fill:#ff9900" />
    <path
       d="M2765 541 c-16 -3 -31 -13 -33 -21 -1 -8 18 -50 43 -92 60 -102 137 -158 268 -193 67 -19 62 -3 -29 94 -42 45 -74 84 -71 88 18 17 168 -123 188 -174 11 -30 79 -34 79 -5 0 19 -44 92 -78 127 -29 32 -55 75 -49 81 13 14 126 -109 153 -166 27 -57 30 -60 64 -60 40 0 139 25 152 38 8 8 -88 103 -162 159 -124 96 -378 156 -525 124z"
       id="path326"
       style="fill:#ff9900" />
  </g>
</svg>
