<?xml version="1.0" encoding="UTF-8" standalone="no"?>
<svg
   xmlns:dc="http://purl.org/dc/elements/1.1/"
   xmlns:cc="http://creativecommons.org/ns#"
   xmlns:rdf="http://www.w3.org/1999/02/22-rdf-syntax-ns#"
   xmlns:svg="http://www.w3.org/2000/svg"
   xmlns="http://www.w3.org/2000/svg"
   xmlns:sodipodi="http://sodipodi.sourceforge.net/DTD/sodipodi-0.dtd"
   xmlns:inkscape="http://www.inkscape.org/namespaces/inkscape"
   version="1.0"
   width="850.000000pt"
   height="850.000000pt"
   viewBox="0 0 850.000000 850.000000"
   preserveAspectRatio="xMidYMid meet"
   id="svg202"
   sodipodi:docname="32 #36932.svg"
   inkscape:version="0.92.2 5c3e80d, 2017-08-06">
  <defs
     id="defs206" />
  <sodipodi:namedview
     pagecolor="#ffffff"
     bordercolor="#666666"
     borderopacity="1"
     objecttolerance="10"
     gridtolerance="10"
     guidetolerance="10"
     inkscape:pageopacity="0"
     inkscape:pageshadow="2"
     inkscape:window-width="1920"
     inkscape:window-height="978"
     id="namedview204"
     showgrid="false"
     inkscape:zoom="0.83294118"
     inkscape:cx="774.79249"
     inkscape:cy="602.53411"
     inkscape:window-x="0"
     inkscape:window-y="1"
     inkscape:window-maximized="1"
     inkscape:current-layer="svg202" />
  <metadata
     id="metadata2">
Created by potrace 1.14, written by Peter Selinger 2001-2017
<rdf:RDF>
  <cc:Work
     rdf:about="">
    <dc:format>image/svg+xml</dc:format>
    <dc:type
       rdf:resource="http://purl.org/dc/dcmitype/StillImage" />
  </cc:Work>
</rdf:RDF>
</metadata>
  <g
     transform="translate(0.000000,850.000000) scale(0.100000,-0.100000)"
     fill="#000000"
     stroke="none"
     id="g200">
    <path
       d="M0 4250 l0 -4250 4250 0 4250 0 0 4250 0 4250 -4250 0 -4250 0 0 -4250z m3657 4019 c43 -12 89 -23 103 -26 13 -2 59 -22 102 -44 57 -30 96 -61 150 -117 66 -69 83 -96 170 -272 107 -214 188 -384 298 -620 164 -354 213 -426 317 -476 76 -35 147 -40 288 -19 137 21 225 17 402 -19 124 -24 290 -77 333 -105 14 -9 38 -23 55 -31 46 -23 183 -158 223 -220 127 -198 168 -415 127 -684 -8 -55 -15 -134 -15 -177 0 -68 4 -85 31 -136 43 -78 70 -106 164 -167 94 -61 127 -98 168 -183 27 -59 29 -70 25 -160 -3 -91 -5 -102 -39 -158 -27 -46 -57 -77 -130 -132 -137 -105 -182 -146 -204 -187 -15 -28 -17 -40 -9 -54 17 -26 74 -62 100 -62 17 0 24 -6 24 -19 0 -14 -10 -21 -37 -27 -47 -9 -55 -11 -70 -12 -20 -3 -16 -13 32 -77 54 -72 95 -151 131 -260 23 -66 28 -103 32 -205 4 -116 2 -132 -23 -205 -43 -128 -83 -183 -284 -384 -142 -143 -194 -202 -221 -251 -34 -63 -35 -68 -34 -171 1 -102 2 -109 36 -170 28 -51 52 -78 124 -134 49 -38 128 -108 175 -155 74 -73 90 -96 119 -165 57 -139 63 -269 16 -380 -7 -16 -18 -42 -24 -56 -15 -37 -69 -97 -113 -125 -40 -25 -212 -94 -236 -94 -20 0 -97 -54 -122 -86 -27 -35 -27 -60 2 -79 42 -27 83 -29 107 -5 12 12 19 28 16 37 -4 9 -4 25 0 35 6 19 7 19 31 -4 68 -63 87 -166 49 -259 -5 -12 9 -35 47 -77 123 -139 118 -320 -14 -451 -100 -100 -249 -138 -355 -92 -56 25 -92 58 -170 153 -31 37 -76 80 -102 97 -103 67 -172 205 -172 346 0 67 19 156 41 196 8 14 55 107 105 207 67 133 93 194 97 234 l7 53 -38 -55 c-20 -30 -60 -80 -88 -110 -61 -66 -77 -96 -95 -175 -32 -149 -155 -372 -269 -485 -41 -41 -86 -80 -100 -86 -137 -63 -213 -78 -377 -72 -128 5 -198 18 -453 84 -52 14 -108 27 -125 30 -16 2 -70 16 -120 30 -49 14 -101 28 -115 29 -14 2 -59 13 -100 25 -41 11 -97 25 -125 30 -27 6 -84 20 -125 31 -41 12 -88 23 -103 26 -16 2 -63 15 -105 29 -42 13 -84 24 -92 24 -8 0 -26 6 -40 13 -14 7 -47 21 -75 31 -68 26 -246 115 -342 172 -43 26 -94 56 -113 67 -144 82 -444 319 -670 530 -102 96 -128 116 -145 110 -29 -11 -116 -8 -145 6 -98 44 -230 153 -230 190 0 36 -12 52 -59 75 -56 29 -74 48 -101 109 -30 68 -38 229 -16 315 9 35 16 71 16 80 0 10 -50 67 -111 127 -61 61 -164 175 -228 255 -325 405 -428 630 -485 1065 -41 308 0 622 146 1105 21 68 60 210 82 295 7 28 25 88 39 135 14 47 34 112 43 145 l16 60 18 -23 c33 -41 62 -134 77 -252 12 -99 13 -162 2 -445 -17 -479 -13 -517 79 -633 43 -54 76 -71 146 -73 45 -2 63 3 93 23 56 38 154 68 223 68 71 0 135 -22 223 -78 l63 -40 39 33 c45 39 44 49 -20 125 -109 130 -166 227 -201 342 -45 150 -43 273 8 443 32 107 93 206 204 334 157 180 325 327 691 602 50 38 100 81 111 96 80 114 124 438 100 743 -7 96 -13 231 -13 300 0 110 3 130 22 166 26 49 63 82 121 108 l42 19 0 66 c1 117 47 189 190 295 247 184 501 242 757 175z m4513 -3325 c0 -8 -4 -12 -10 -9 -5 3 -10 2 -10 -3 0 -6 7 -12 15 -16 17 -6 20 -36 4 -36 -6 0 -9 7 -5 15 7 20 -4 19 -21 -2 -12 -16 -13 -15 -7 12 3 17 7 36 10 43 5 17 24 15 24 -4z m50 -63 c0 -5 -7 -11 -15 -15 -15 -5 -20 5 -8 17 9 10 23 9 23 -2z m-43 -25 c10 -10 -50 -7 -67 4 -11 7 -4 8 23 6 21 -2 40 -6 44 -10z m-34 -33 c-7 -2 -21 -2 -30 0 -10 3 -4 5 12 5 17 0 24 -2 18 -5z"
       id="path4"
       style="fill:none" />
    <path
       d="M3363 8238 c-189 -21 -367 -112 -514 -264 -89 -93 -111 -145 -91 -221 18 -67 17 -70 -39 -76 -66 -8 -96 -29 -120 -82 -18 -40 -19 -69 -16 -481 2 -428 1 -441 -20 -523 -13 -46 -23 -91 -23 -99 0 -19 52 29 112 105 47 58 58 62 32 11 -48 -93 -224 -276 -360 -374 -45 -33 -133 -102 -195 -154 -63 -52 -143 -118 -179 -147 -106 -84 -331 -320 -375 -395 -113 -190 -128 -244 -123 -429 3 -124 6 -140 36 -216 37 -91 107 -200 222 -343 188 -234 250 -359 250 -508 0 -75 7 -76 63 -9 31 37 44 65 63 138 28 107 29 144 8 224 -21 85 -54 135 -149 231 -169 170 -258 352 -280 567 -10 95 -25 74 -54 -78 -6 -33 -16 -78 -23 -100 l-11 -40 -9 45 c-19 94 2 170 87 320 41 72 111 151 275 308 182 174 305 285 490 443 191 164 321 296 357 366 65 123 81 219 59 343 -21 116 -20 150 3 85 32 -89 44 -235 31 -349 -17 -138 -74 -320 -131 -416 -5 -8 -21 -37 -35 -65 -66 -124 -227 -333 -483 -625 -240 -274 -278 -440 -174 -750 37 -112 64 -164 114 -220 l31 -35 -6 142 c-12 300 44 500 193 688 91 115 105 125 41 30 -160 -238 -202 -368 -204 -625 -1 -147 14 -219 60 -292 13 -21 24 -41 24 -46 0 -10 61 -94 66 -90 1 2 -9 42 -23 88 -53 177 -54 242 -7 390 35 114 118 275 205 402 46 67 237 433 311 598 120 266 161 380 193 545 24 120 31 343 15 442 -14 87 -23 111 -53 134 -21 17 -21 18 -3 75 33 108 31 202 -3 128 -15 -34 -25 -25 -11 10 17 47 12 71 -25 105 -19 17 -35 38 -35 45 0 8 -25 49 -55 91 -75 104 -125 213 -125 271 0 41 3 46 30 58 21 8 50 10 93 5 34 -4 63 -7 64 -6 0 1 -8 38 -19 82 -31 124 -13 189 63 227 62 32 154 14 200 -38 21 -23 55 -93 79 -159 81 -226 113 -296 163 -348 37 -39 64 -49 52 -19 -3 9 -16 46 -27 82 -11 36 -28 89 -39 118 -10 28 -14 52 -9 52 6 0 31 -33 57 -72 26 -40 49 -75 50 -77 2 -3 13 5 25 17 l21 21 -37 61 c-21 34 -35 64 -31 68 3 4 30 -19 58 -51 l52 -58 100 -1 c61 -1 78 -3 43 -5 -83 -6 -92 -23 -40 -75 34 -35 46 -41 79 -40 47 2 157 -28 146 -39 -5 -5 -31 -2 -58 6 l-50 15 25 -20 c14 -11 30 -20 35 -20 6 0 39 -23 73 -51 44 -36 88 -59 145 -79 84 -30 108 -31 66 -3 -35 23 -163 158 -196 207 -15 22 -40 58 -56 79 -16 21 -27 40 -24 43 3 3 39 -38 82 -91 42 -53 90 -105 107 -115 38 -23 97 -34 138 -25 30 7 30 7 -42 54 -69 46 -168 136 -168 154 0 14 33 -10 75 -53 55 -57 119 -100 186 -125 31 -11 58 -24 60 -30 5 -14 -42 -22 -131 -24 l-75 -2 39 -34 c45 -40 113 -75 144 -75 12 0 22 -4 22 -10 0 -15 -106 -12 -175 5 -96 23 -95 23 -95 -41 0 -76 57 -244 117 -347 80 -135 185 -224 478 -403 119 -73 129 -78 271 -149 176 -87 234 -127 340 -237 242 -251 337 -587 280 -998 -8 -63 -27 -160 -41 -215 -36 -144 -35 -268 4 -363 43 -106 102 -180 295 -369 156 -154 179 -181 211 -247 32 -67 37 -87 42 -178 7 -132 -7 -217 -50 -309 -52 -111 -160 -272 -241 -358 -114 -123 -209 -249 -256 -342 -39 -76 -71 -227 -71 -336 0 -55 3 -112 5 -125 38 -171 61 -247 107 -353 28 -64 39 -116 39 -179 0 -63 -6 -84 -49 -184 -28 -62 -77 -161 -109 -220 -78 -139 -100 -228 -82 -333 7 -39 25 -96 42 -128 29 -55 74 -111 90 -111 4 0 8 54 8 120 0 129 19 245 51 319 27 61 35 44 13 -26 -15 -46 -19 -89 -19 -208 1 -148 1 -151 34 -229 44 -102 101 -172 171 -209 48 -25 63 -28 115 -24 68 5 162 47 209 93 72 71 100 204 61 289 l-19 40 -6 -82 c-8 -89 -33 -146 -88 -195 -58 -52 -102 -61 -166 -34 -150 62 -257 375 -211 611 22 113 49 174 126 287 91 134 109 181 109 284 0 96 -15 137 -112 305 -30 52 -62 115 -71 140 -40 106 -49 367 -17 459 l19 55 -7 -95 c-21 -275 -2 -388 87 -522 168 -255 168 -448 0 -649 -50 -60 -67 -100 -75 -182 -9 -84 9 -151 45 -176 92 -63 182 -63 244 1 25 27 37 48 37 68 0 40 -13 44 -59 20 -50 -25 -65 -25 -106 0 -76 47 -91 127 -34 187 19 19 54 46 79 59 25 13 52 28 60 33 8 5 49 21 90 36 89 33 167 75 197 107 57 61 92 217 73 326 -25 147 -88 240 -246 358 -62 47 -129 103 -148 126 -105 122 -136 315 -73 453 23 50 59 90 215 245 198 195 241 251 288 377 23 61 26 83 26 208 0 126 -2 148 -26 220 -15 44 -43 109 -63 144 -46 83 -178 214 -288 287 -89 58 -113 84 -160 169 -25 44 -28 61 -29 140 -1 98 3 109 96 304 l40 83 -50 52 c-27 28 -56 65 -65 81 -83 161 -96 313 -38 439 63 138 76 187 76 296 -1 102 -2 107 -39 180 -48 94 -171 220 -266 272 -68 38 -180 86 -215 92 -11 2 -65 13 -120 25 -55 11 -153 23 -219 27 -109 7 -124 10 -195 44 -116 57 -234 174 -305 304 -41 74 -24 66 29 -14 98 -147 214 -246 340 -291 44 -15 103 -23 219 -30 119 -8 177 -16 235 -34 42 -13 79 -24 84 -25 13 0 146 -70 205 -107 130 -83 225 -206 276 -355 25 -75 26 -83 26 -337 0 -250 1 -263 25 -339 31 -98 96 -199 200 -312 80 -87 101 -123 114 -194 l7 -41 28 47 c25 43 27 55 24 123 -3 80 3 94 21 44 25 -73 1 -164 -62 -236 l-31 -36 39 21 c50 25 85 63 119 127 21 41 26 63 26 125 0 108 -28 162 -137 269 -137 135 -163 221 -127 418 25 133 25 322 0 428 -22 96 -82 227 -141 311 -73 102 -172 171 -329 229 -50 19 -102 36 -116 39 -14 2 -68 14 -120 26 -133 30 -254 35 -372 16 -54 -9 -117 -16 -141 -16 -76 0 -182 34 -238 76 -56 43 -136 142 -145 181 -4 13 -66 142 -139 286 -72 145 -149 301 -170 347 -134 303 -164 365 -221 451 -68 104 -94 127 -199 182 -144 74 -307 104 -472 85z m323 -333 c43 -25 101 -92 212 -244 35 -47 72 -96 83 -107 11 -12 17 -24 12 -27 -11 -7 -133 140 -194 232 -38 57 -144 151 -170 151 -5 0 -9 5 -9 10 0 16 20 12 66 -15z m-700 -1492 c-6 -99 -12 -129 -61 -302 -45 -164 -105 -292 -207 -443 -77 -113 -241 -314 -246 -300 -2 6 39 67 90 136 196 264 267 384 322 543 28 81 86 349 86 399 0 34 8 64 18 64 3 0 2 -44 -2 -97z"
       id="path6"
       style="fill:#006400" />
    <path
       d="M2982 7893 c-68 -33 -79 -116 -30 -223 14 -30 28 -67 32 -82 7 -30 4 -30 -108 -2 -77 20 -106 13 -106 -26 0 -38 11 -43 49 -24 21 11 44 14 67 10 57 -11 37 -36 -30 -36 -39 0 -72 -22 -61 -40 5 -8 21 -10 46 -7 22 3 39 1 39 -4 0 -5 -9 -9 -19 -9 -26 0 -51 -10 -51 -21 0 -5 11 -9 25 -9 23 0 25 -4 25 -43 0 -44 29 -97 77 -140 20 -17 22 -16 77 29 76 63 86 47 12 -19 l-58 -52 36 -42 c20 -22 36 -51 36 -64 0 -20 4 -18 29 17 39 53 102 87 159 86 24 0 49 -5 55 -11 8 -8 5 -11 -11 -11 -12 0 -22 -3 -22 -6 0 -3 18 -26 39 -52 55 -64 79 -125 82 -201 2 -61 1 -64 -27 -79 -34 -18 -127 -42 -166 -42 -22 0 -35 11 -63 53 -22 31 -35 44 -34 32 1 -11 -1 -32 -5 -46 -11 -40 14 -80 113 -179 111 -113 137 -124 384 -174 128 -26 140 -24 198 37 28 28 79 95 113 147 123 185 138 232 134 426 l-3 139 -24 -47 c-14 -26 -28 -45 -32 -42 -4 2 -10 22 -14 44 -11 63 -25 47 -25 -27 0 -38 -3 -79 -7 -92 -5 -18 -3 -22 7 -16 9 5 11 4 6 -4 -16 -25 -65 -40 -140 -42 l-78 -2 -30 54 c-28 48 -32 63 -32 136 -1 80 -2 82 -24 76 -21 -5 -22 -3 -12 21 5 15 6 25 2 22 -10 -6 -42 27 -97 101 -21 29 -41 51 -43 49 -4 -5 11 -53 44 -144 36 -95 32 -104 -27 -47 -51 51 -179 231 -179 253 0 6 -9 29 -21 52 -11 22 -23 58 -26 80 -4 24 -14 48 -27 58 -13 10 -21 29 -22 48 -1 17 -10 40 -22 52 -12 12 -22 29 -22 37 0 9 -10 15 -26 15 -21 0 -24 4 -19 20 4 13 2 20 -7 21 -7 0 -21 2 -30 4 -10 2 -28 -5 -39 -14 -19 -15 -22 -31 -27 -115 -5 -105 -19 -117 -29 -25 -4 41 0 67 16 107 11 28 17 52 13 52 -4 0 -22 -8 -40 -17z m655 -999 c14 -22 14 -26 -1 -49 -9 -14 -20 -25 -25 -25 -7 0 -31 81 -31 105 0 12 44 -12 57 -31z m106 -131 c-9 -16 -19 -30 -21 -33 -1 -2 -7 2 -12 10 -8 12 -16 12 -58 -3 -26 -10 -61 -20 -77 -23 -35 -6 -39 -9 -30 -23 3 -6 34 -11 68 -11 44 0 58 -3 47 -10 -25 -16 -102 -11 -149 10 -24 11 -42 23 -39 25 3 3 36 15 74 26 38 11 96 29 129 39 84 26 89 25 68 -7z"
       id="path8"
       style="fill:#e9967a" />
    <path
       d="M3553 7453 c-20 -8 -15 -26 16 -61 32 -34 38 -37 60 -23 11 7 7 17 -19 50 -34 42 -36 43 -57 34z"
       id="path10"
       style="fill:#556b2f" />
    <path
       d="M3635 7438 c16 -27 38 -48 52 -48 23 0 14 14 -23 38 -20 13 -33 18 -29 10z"
       id="path12"
       style="fill:#556b2f" />
    <path
       d="M3710 7281 c0 -24 5 -29 31 -35 51 -10 117 -7 125 6 4 6 -4 21 -20 35 -21 18 -39 23 -82 23 -53 0 -54 -1 -54 -29z"
       id="path14"
       style="fill:#000080" />
    <path
       d="M3843 7161 c-22 -35 -16 -85 12 -111 14 -13 27 -22 29 -19 2 2 6 24 10 49 5 38 2 50 -16 73 -23 27 -23 27 -35 8z"
       id="path16"
       style="fill:#1e90ff" />
    <path
       d="M3706 7143 c4 -16 11 -36 16 -45 15 -30 -6 -20 -30 15 l-23 32 7 -30 c19 -82 58 -109 90 -60 15 23 14 26 -22 70 -21 25 -40 45 -41 45 -2 0 0 -12 3 -27z"
       id="path18"
       style="fill:#1e90ff" />
    <path
       d="M3147 7110 c-28 -33 -44 -87 -30 -101 12 -12 117 106 108 121 -12 20 -53 10 -78 -20z"
       id="path20"
       style="fill:#000080" />
    <path
       d="M3252 6962 c-12 -36 -11 -38 21 -64 49 -42 77 -34 77 23 0 13 -7 19 -24 19 -15 0 -27 7 -31 19 -3 11 -12 24 -19 30 -10 8 -15 2 -24 -27z"
       id="path22"
       style="fill:#1e90ff" />
    <path
       d="M3150 6922 c0 -15 -5 -33 -11 -39 -9 -9 -5 -20 14 -43 l26 -31 21 38 21 38 -5 -33 -6 -33 37 6 c21 3 41 9 46 14 8 8 -42 51 -60 51 -5 0 -22 14 -38 30 -36 37 -45 38 -45 2z"
       id="path24"
       style="fill:#1e90ff" />
    <path
       d="M4050 6791 c0 -66 18 -94 45 -71 8 7 15 19 15 26 0 21 -41 104 -51 104 -5 0 -9 -26 -9 -59z"
       id="path26"
       style="fill:#ff00ff" />
    <path
       d="M3987 6736 c-3 -7 0 -58 7 -112 8 -71 18 -110 35 -139 47 -79 79 -104 140 -112 111 -15 220 -92 267 -189 22 -46 28 -75 34 -167 5 -87 15 -138 43 -227 20 -63 41 -142 46 -175 21 -121 24 -135 31 -135 14 0 41 70 69 185 26 102 46 118 114 90 51 -21 -12 143 -102 265 -30 41 -87 109 -126 150 -39 41 -94 103 -123 136 -53 62 -142 212 -142 238 0 13 -117 176 -127 176 -2 0 -18 -7 -35 -16 -37 -19 -70 -12 -92 21 -18 28 -31 32 -39 11z"
       id="path28"
       style="fill:#228b22" />
    <path
       d="M3875 6576 c-50 -59 -72 -93 -82 -129 -14 -53 -5 -93 24 -104 9 -4 66 3 126 15 60 12 114 19 118 16 16 -10 9 6 -29 64 -46 68 -70 122 -80 178 l-7 41 -70 -81z"
       id="path30"
       style="fill:#556b2f" />
    <path
       d="M3200 6512 c0 -46 4 -63 19 -76 23 -21 41 -14 41 15 0 20 -46 119 -55 119 -3 0 -5 -26 -5 -58z"
       id="path32"
       style="fill:#ff00ff" />
    <path
       d="M3120 6538 c0 -7 -7 -74 -15 -148 -8 -74 -15 -150 -15 -168 l0 -33 83 6 c116 9 128 12 157 33 37 28 50 60 50 128 0 79 -15 121 -51 139 -48 25 -59 20 -48 -21 8 -28 7 -41 -6 -60 -34 -52 -95 -16 -95 56 0 59 -10 80 -36 80 -13 0 -24 -6 -24 -12z"
       id="path34"
       style="fill:#556b2f" />
    <path
       d="M4337 6494 c7 -43 107 -175 289 -380 96 -108 164 -216 164 -261 0 -75 77 -193 163 -251 79 -53 99 -85 96 -155 -1 -31 5 -67 15 -89 22 -51 21 -69 -14 -143 -16 -35 -30 -70 -30 -78 0 -25 -39 -127 -60 -157 -11 -15 -73 -65 -138 -109 -291 -200 -395 -279 -413 -312 -13 -24 43 -144 107 -229 72 -95 155 -159 391 -300 181 -108 283 -231 354 -426 30 -85 32 -97 36 -271 3 -116 1 -207 -7 -250 -15 -91 -55 -228 -80 -275 -26 -49 -25 -62 5 -146 14 -38 25 -78 25 -89 0 -18 29 -67 30 -50 0 5 9 53 20 107 39 191 123 349 272 507 233 249 295 332 332 438 46 135 41 240 -16 323 -18 26 -100 115 -183 197 -165 164 -205 215 -246 317 -44 106 -45 159 -11 338 83 429 85 628 11 838 -48 133 -161 314 -258 412 -69 68 -87 67 -50 -3 91 -174 131 -359 133 -617 0 -174 0 -176 -32 -260 -18 -47 -57 -128 -87 -180 -129 -227 -140 -256 -123 -337 8 -37 22 -58 72 -107 34 -34 102 -88 151 -121 97 -66 173 -130 164 -139 -3 -3 -39 19 -80 49 -40 29 -97 70 -125 89 -168 116 -207 164 -206 258 0 75 10 102 95 244 78 132 124 234 139 311 14 74 3 417 -16 493 -64 260 -161 440 -252 470 -19 7 -37 10 -39 8 -3 -2 7 -21 21 -41 60 -89 153 -305 175 -407 33 -158 42 -227 42 -340 0 -144 -15 -212 -69 -303 -19 -32 -34 -60 -34 -62 0 -2 -24 -40 -52 -84 -104 -158 -116 -184 -117 -259 -2 -107 90 -234 249 -343 179 -124 207 -145 287 -222 45 -43 108 -118 141 -165 53 -80 68 -108 108 -212 7 -19 13 -69 12 -110 l0 -75 -14 78 c-39 235 -201 452 -469 632 -146 97 -198 141 -259 223 -75 99 -97 206 -60 297 4 11 41 69 81 129 165 245 194 368 158 658 -32 255 -185 595 -297 661 -96 56 -308 167 -319 167 -6 0 54 -64 134 -142 133 -132 247 -276 247 -313 0 -7 9 -32 19 -56 10 -24 22 -55 26 -69 l6 -25 -20 25 c-11 14 -21 30 -21 37 0 16 -76 158 -112 211 -17 24 -129 143 -249 265 -211 213 -218 219 -212 181z"
       id="path36"
       style="fill:#228b22" />
    <path
       d="M3415 6443 c3 -10 10 -72 15 -137 9 -139 -11 -109 190 -275 122 -100 140 -107 198 -77 65 34 69 195 6 272 l-23 29 -1 -38 c0 -43 -23 -48 -28 -6 -1 13 -10 62 -19 107 -13 67 -21 85 -37 92 -23 8 -126 25 -138 22 -4 -1 -39 5 -78 13 -90 19 -94 19 -85 -2z"
       id="path38"
       style="fill:#e9967a" />
    <path
       d="M2635 6226 c-88 -89 -243 -231 -345 -316 -254 -212 -380 -335 -414 -407 -44 -89 -62 -238 -46 -378 7 -60 23 -137 35 -170 22 -59 82 -185 89 -185 1 0 1 69 -2 153 -4 147 -3 154 22 210 47 107 201 322 365 510 225 258 310 389 437 674 15 35 26 65 23 67 -2 2 -76 -69 -164 -158z"
       id="path40"
       style="fill:#228b22" />
    <path
       d="M4015 6324 c-5 -2 -37 -5 -70 -6 -74 -4 -77 -13 -34 -102 28 -57 35 -65 53 -60 19 6 19 5 -2 -13 -23 -18 -24 -24 -23 -160 0 -167 -14 -214 -76 -240 -32 -13 -40 -13 -78 1 -51 20 -76 46 -105 107 -21 46 -67 96 -106 117 -11 6 -64 14 -117 18 -110 8 -131 24 -32 24 36 0 65 3 65 8 0 4 -35 39 -78 78 l-78 71 -59 -8 c-33 -5 -85 -9 -115 -10 -90 -2 -98 -12 -155 -189 -53 -160 -184 -452 -260 -575 -77 -123 -84 -157 -74 -305 9 -116 -1 -249 -23 -320 -6 -19 -57 -130 -114 -246 -57 -116 -107 -225 -110 -242 -4 -22 0 -44 15 -72 21 -41 28 -80 14 -80 -5 0 -23 9 -41 20 -18 11 -36 20 -41 20 -4 0 -23 -46 -41 -102 -18 -57 -46 -143 -62 -193 -16 -49 -36 -112 -45 -140 -9 -27 -18 -55 -20 -61 -8 -22 42 -23 122 -3 44 11 89 26 101 34 11 7 37 46 57 87 36 71 51 96 183 306 34 53 72 115 84 137 12 22 42 67 66 101 24 34 44 64 44 68 0 4 11 23 25 44 45 68 51 101 110 567 14 110 30 256 35 324 12 144 32 201 80 226 43 22 47 13 16 -28 -14 -19 -33 -56 -41 -83 -17 -55 -20 -154 -5 -154 15 0 37 40 54 98 17 58 104 181 159 224 104 81 177 91 292 39 114 -52 194 -132 225 -225 16 -49 44 -49 60 2 22 68 93 186 142 235 50 50 126 91 191 102 34 7 38 10 44 48 5 36 47 96 58 85 3 -2 -3 -27 -12 -55 -16 -49 -16 -52 7 -87 21 -35 66 -73 75 -65 2 3 8 38 14 79 5 41 17 130 27 197 17 117 17 123 -1 170 -22 58 -107 146 -167 173 -33 15 -64 19 -133 19 -49 0 -94 -2 -100 -5z"
       id="path42"
       style="fill:#e9967a" />
    <path
       d="M3797 6303 c3 -10 21 -35 39 -55 47 -53 57 -120 41 -263 -8 -72 1 -79 22 -16 30 89 2 243 -56 311 -36 42 -57 52 -46 23z"
       id="path44"
       style="fill:#ff00ff" />
    <path
       d="M3376 6232 c-4 -12 -1 -32 6 -45 11 -21 301 -277 314 -277 11 0 -6 18 -134 133 -97 87 -145 138 -159 168 -18 38 -21 41 -27 21z"
       id="path46"
       style="fill:#ff00ff" />
    <path
       d="M3801 5923 c-13 -3 -26 -13 -28 -23 -3 -11 -18 -22 -34 -25 -19 -4 -29 -13 -29 -24 0 -31 13 -32 42 -4 33 31 47 25 23 -11 -11 -16 -14 -33 -9 -48 l7 -23 9 25 10 25 11 -25 10 -25 5 23 c4 29 28 39 53 23 23 -13 25 -2 4 25 -22 29 -18 33 20 27 32 -5 35 -4 35 20 0 33 -12 40 -36 22 -28 -21 -54 -19 -54 5 0 11 -3 19 -7 19 -5 -1 -19 -4 -32 -6z"
       id="path48"
       style="fill:#9400d3" />
    <path
       d="M4431 5756 c-25 -100 -24 -134 3 -226 9 -30 16 -74 16 -98 0 -77 -48 -156 -110 -182 -22 -9 -34 -27 -58 -93 -17 -45 -42 -113 -57 -151 l-26 -68 28 7 c16 4 39 9 53 12 45 8 94 69 157 196 63 124 97 228 108 327 11 93 -26 270 -70 337 l-21 32 -23 -93z"
       id="path50"
       style="fill:#556b2f" />
    <path
       d="M4130 5726 c-100 -53 -215 -204 -234 -308 -16 -90 37 -178 110 -178 45 0 72 29 124 133 38 76 40 78 40 43 0 -45 -20 -86 -71 -147 l-38 -47 43 -12 c25 -7 58 -9 76 -5 59 13 125 89 151 175 6 20 7 21 8 5 0 -11 -6 -41 -14 -67 -11 -40 -12 -48 -1 -48 24 0 85 77 92 115 19 103 -30 239 -115 318 -42 39 -56 47 -88 47 -21 -1 -58 -12 -83 -24z"
       id="path52"
       style="fill:#00ffff" />
    <path
       d="M688 5715 c-8 -17 -21 -52 -27 -80 -7 -27 -23 -84 -36 -125 -169 -561 -224 -810 -241 -1080 -13 -227 50 -579 145 -799 79 -186 295 -480 571 -779 l132 -143 22 19 c11 11 36 28 55 38 52 29 66 38 109 68 44 30 76 34 140 17 23 -7 47 -9 53 -6 5 4 16 1 24 -5 12 -10 14 2 13 86 0 55 2 128 5 164 3 36 8 98 11 137 2 40 18 130 34 200 17 71 43 182 58 248 14 66 33 147 40 179 8 33 12 67 9 76 -3 10 -32 39 -65 65 -106 85 -140 138 -155 245 -19 135 -79 216 -181 246 -37 10 -74 14 -105 11 -49 -6 -163 -50 -189 -73 -9 -7 -38 -19 -66 -25 -45 -10 -55 -9 -104 12 -30 13 -78 43 -107 66 -29 24 -55 43 -58 43 -15 0 53 -382 80 -450 14 -35 25 -68 25 -72 0 -12 74 -159 121 -243 97 -169 118 -252 119 -448 0 -117 17 -215 54 -323 23 -65 25 -91 6 -79 -5 3 -11 20 -15 38 -4 17 -18 68 -32 112 -21 66 -27 110 -33 250 -10 223 -28 279 -168 525 -78 136 -138 327 -161 505 -52 415 -55 479 -40 766 18 353 17 463 -8 564 l-20 80 -15 -30z"
       id="path54"
       style="fill:#cd5c5c" />
    <path
       d="M4706 5702 c-8 -15 -17 -54 -21 -86 -7 -55 -19 -83 -99 -231 -18 -35 -22 -62 -26 -197 -3 -86 -7 -158 -10 -160 -3 -2 -21 -9 -40 -15 -49 -16 -318 -126 -357 -146 -68 -36 -70 -86 -7 -147 56 -54 74 -93 74 -159 0 -27 3 -52 8 -55 4 -2 23 9 42 25 19 16 55 44 80 61 25 18 105 76 178 131 109 81 131 101 121 113 -9 11 -7 14 13 14 43 0 162 66 226 125 85 79 84 89 -21 193 -45 45 -86 82 -90 82 -4 0 -7 -18 -7 -39 0 -31 8 -49 40 -87 51 -62 53 -77 8 -53 -17 9 -24 8 -34 -6 -12 -17 -14 -16 -24 11 -23 59 -38 145 -33 183 6 42 -15 88 -57 126 -23 21 -26 57 -6 74 8 7 36 20 64 29 49 18 50 18 32 40 -10 12 -26 42 -36 67 -17 45 -17 45 9 78 19 26 23 37 14 46 -17 17 -25 14 -41 -17z m19 -581 c3 -6 -7 -16 -21 -23 -37 -18 -64 -57 -79 -115 l-12 -48 -11 38 c-17 60 11 116 73 143 36 16 42 17 50 5z"
       id="path56"
       style="fill:#e9967a" />
    <path
       d="M3385 5640 c-80 -31 -157 -107 -201 -197 -36 -74 -38 -83 -39 -179 0 -97 1 -102 30 -137 28 -33 52 -50 66 -44 3 1 13 -4 22 -12 22 -18 22 -17 -13 64 -17 42 -30 88 -30 115 0 54 12 43 30 -25 19 -76 58 -151 86 -166 32 -16 90 -17 106 -1 9 8 15 57 18 135 4 108 6 116 12 67 4 -30 8 -85 8 -122 0 -81 13 -93 77 -76 65 16 82 42 105 160 21 114 26 133 33 126 3 -2 -2 -55 -11 -117 -8 -62 -13 -116 -9 -119 3 -4 23 2 43 13 50 27 75 81 80 173 8 141 -59 252 -191 317 -92 44 -155 52 -222 25z"
       id="path58"
       style="fill:#00ffff" />
    <path
       d="M4760 5624 c0 -14 4 -34 10 -44 10 -19 218 -136 226 -127 11 11 -36 85 -76 121 -44 39 -112 75 -142 76 -13 0 -18 -8 -18 -26z"
       id="path60"
       style="fill:#e9967a" />
    <path
       d="M5881 5618 c-5 -13 -22 -52 -37 -88 -24 -55 -29 -82 -32 -173 l-4 -109 38 -75 c45 -87 126 -176 198 -216 61 -34 66 -34 34 1 -41 43 -103 146 -131 214 -35 88 -60 260 -55 375 2 51 2 93 1 93 -2 0 -7 -10 -12 -22z"
       id="path62"
       style="fill:#228b22" />
    <path
       d="M1785 5443 c-55 -56 -105 -153 -105 -204 0 -48 17 -140 40 -216 37 -122 113 -246 210 -345 101 -105 114 -90 31 37 -51 80 -121 217 -121 239 0 8 -7 41 -15 72 -39 149 -39 315 0 426 7 21 11 38 10 38 -2 0 -24 -21 -50 -47z"
       id="path64"
       style="fill:#228b22" />
    <path
       d="M4698 5455 c-23 -24 -6 -35 50 -35 55 0 64 -4 148 -61 49 -33 99 -70 112 -82 l22 -20 0 36 c0 28 -8 46 -36 77 -60 66 -91 80 -196 86 -51 4 -96 3 -100 -1z"
       id="path66"
       style="fill:#e9967a" />
    <path
       d="M4740 5361 c0 -20 196 -211 217 -211 18 0 26 56 11 87 -18 37 -165 142 -200 143 -21 0 -28 -5 -28 -19z"
       id="path68"
       style="fill:#e9967a" />
    <path
       d="M3834 5333 c-3 -16 -7 -34 -10 -40 -4 -16 -2 -16 30 -3 28 10 34 38 14 58 -18 18 -27 15 -34 -15z"
       id="path70"
       style="fill:#ffd700" />
    <path
       d="M3071 5257 c-15 -15 -14 -32 2 -46 11 -8 16 -5 25 15 15 31 15 31 -2 37 -7 3 -19 0 -25 -6z"
       id="path72"
       style="fill:#ffd700" />
    <path
       d="M3836 5245 c-9 -9 -23 -29 -30 -43 -26 -49 -109 -118 -171 -143 -53 -21 -76 -24 -200 -24 -77 0 -157 4 -177 8 -47 10 -93 48 -119 98 -21 42 -39 51 -39 19 0 -22 101 -219 136 -265 38 -50 74 -131 74 -166 0 -20 -15 -58 -40 -100 -22 -37 -40 -76 -40 -86 0 -11 13 -31 28 -46 26 -25 137 -97 151 -97 11 -1 175 -85 221 -114 25 -16 66 -46 91 -67 l46 -38 53 71 c29 39 84 109 123 157 80 99 103 145 112 221 6 51 5 54 -9 36 -15 -19 -16 -19 -16 10 1 84 40 179 115 284 59 82 120 229 102 246 -3 3 -18 -1 -34 -9 -44 -23 -137 -15 -207 17 -95 45 -147 54 -170 31z"
       id="path74"
       style="fill:#e9967a" />
    <path
       d="M4495 5212 c-5 -10 -19 -36 -30 -58 -11 -21 -32 -58 -48 -82 -16 -23 -27 -47 -25 -52 2 -6 23 1 48 14 67 35 93 98 72 174 -7 21 -8 22 -17 4z"
       id="path76"
       style="fill:#556b2f" />
    <path
       d="M2599 5120 c-113 -180 -175 -302 -215 -420 -26 -75 -29 -99 -29 -205 0 -82 4 -128 13 -144 8 -13 17 -19 21 -15 4 5 30 59 58 119 40 87 53 129 62 200 17 122 24 145 92 292 30 64 33 89 21 158 l-8 40 -15 -25z"
       id="path78"
       style="fill:#228b22" />
    <path
       d="M3042 5023 c-6 -54 -14 -125 -17 -158 -24 -249 -69 -407 -151 -529 -65 -98 -153 -238 -180 -286 -13 -25 -43 -74 -64 -110 -65 -106 -55 -171 60 -420 71 -152 86 -225 64 -326 -7 -37 -21 -75 -30 -86 -26 -28 -27 -16 -2 38 16 35 22 68 22 119 0 77 -12 116 -89 280 -68 146 -75 162 -75 177 0 7 -5 31 -11 52 -10 36 -12 38 -22 20 -7 -10 -13 -39 -14 -64 -10 -191 -21 -228 -78 -260 -35 -20 -36 -35 -11 -125 9 -32 16 -75 16 -95 0 -61 -29 -152 -71 -225 -48 -82 -115 -221 -135 -278 -23 -66 -18 -126 19 -198 43 -86 82 -107 276 -145 40 -8 91 -67 91 -105 0 -33 -47 -122 -97 -182 -13 -16 -23 -33 -23 -38 0 -6 -9 -29 -20 -51 -11 -23 -20 -62 -20 -88 0 -57 40 -142 81 -171 l29 -20 -7 33 c-3 18 -12 50 -20 72 -7 21 -13 63 -13 94 0 66 20 182 32 182 4 0 8 -24 8 -52 0 -81 15 -119 67 -170 51 -50 87 -68 134 -68 39 0 36 9 -14 45 -48 35 -87 97 -87 139 0 15 12 71 26 124 41 152 22 214 -93 304 -148 114 -180 162 -171 257 5 52 2 46 180 288 29 40 57 73 61 73 8 0 -3 -16 -120 -175 -151 -207 -142 -262 70 -422 81 -61 105 -101 114 -198 l8 -80 48 46 c46 44 47 47 47 105 0 70 -13 93 -89 155 -72 59 -96 106 -96 189 1 74 30 148 92 232 35 48 36 54 36 127 -1 42 -9 137 -18 210 -13 101 -16 178 -12 305 10 340 61 536 194 755 48 78 53 91 53 146 1 108 53 180 177 240 34 17 62 36 63 43 0 12 -95 192 -145 272 -11 19 -27 50 -34 68 -8 17 -17 32 -21 32 -4 0 -12 -44 -18 -97z"
       id="path80"
       style="fill:#228b22" />
    <path
       d="M6400 5082 c0 -4 5 -13 11 -19 17 -17 39 -114 39 -174 0 -118 -59 -203 -187 -267 -66 -34 -152 -107 -182 -155 -59 -97 -12 -226 92 -251 33 -8 33 -6 6 46 -18 36 -20 47 -10 79 16 55 47 87 158 165 183 129 216 180 217 329 0 81 -3 95 -29 144 -35 64 -115 135 -115 103z"
       id="path82"
       style="fill:#228b22" />
    <path
       d="M2603 4895 c-21 -38 -62 -165 -68 -212 -6 -46 -5 -47 10 -28 38 46 81 183 73 235 -3 24 -4 24 -15 5z"
       id="path84"
       style="fill:#228b22" />
    <path
       d="M5956 4856 c-18 -28 -39 -67 -46 -86 -7 -19 -17 -40 -22 -46 -10 -13 -48 -132 -48 -149 0 -7 9 -43 21 -80 15 -51 31 -78 68 -116 53 -55 91 -66 84 -24 -3 13 0 47 7 75 10 43 26 66 96 141 l84 90 0 55 c0 50 -3 57 -42 95 -47 45 -122 92 -150 94 -13 1 -30 -16 -52 -49z"
       id="path86"
       style="fill:#228b22" />
    <path
       d="M4086 4683 c21 -42 23 -53 13 -88 -15 -54 -57 -125 -129 -215 -93 -116 -136 -181 -149 -225 -7 -22 -15 -46 -17 -54 -3 -9 -22 3 -58 37 -73 70 -204 153 -342 219 -129 61 -182 102 -209 164 l-19 41 29 54 c16 29 26 56 23 59 -3 3 -33 -15 -67 -40 -49 -36 -68 -58 -88 -101 -47 -104 -10 -183 127 -273 50 -33 189 -91 229 -96 134 -17 361 -183 301 -220 -6 -3 -14 5 -20 19 -11 29 -84 86 -110 86 -20 0 -50 -63 -43 -91 8 -29 66 -77 116 -93 63 -21 89 -20 121 5 22 17 26 28 26 69 0 27 5 52 11 56 6 3 25 -8 43 -25 42 -41 83 -53 124 -36 42 18 52 42 52 125 0 68 -1 72 -29 88 l-30 17 43 60 c24 33 63 92 87 130 l44 70 0 106 c0 119 -10 148 -61 179 -17 11 -34 20 -36 20 -3 0 6 -21 18 -47z m-121 -571 c-17 -25 -25 -50 -25 -81 0 -37 -2 -42 -15 -31 -8 7 -15 21 -15 32 0 25 27 88 47 110 28 31 34 8 8 -30z"
       id="path88"
       style="fill:#00ffff" />
    <path
       d="M4334 4518 c-17 -13 -48 -38 -68 -56 l-37 -33 47 -71 c82 -125 151 -181 379 -313 55 -31 107 -61 115 -66 8 -5 42 -23 75 -40 188 -99 312 -209 366 -323 17 -36 33 -66 35 -66 10 0 -11 60 -47 135 -67 140 -167 244 -324 337 -38 23 -83 52 -100 63 -16 12 -41 27 -55 34 -39 18 -164 129 -214 188 -24 28 -63 92 -87 142 -24 50 -47 91 -50 91 -3 0 -19 -10 -35 -22z"
       id="path90"
       style="fill:#556b2f" />
    <path
       d="M1673 4418 c-65 -68 -73 -166 -20 -269 28 -55 43 -72 115 -123 68 -48 82 -63 82 -85 0 -15 -5 -32 -12 -39 -6 -6 -9 -15 -5 -18 3 -4 19 7 35 23 25 25 30 39 36 105 10 103 0 161 -41 238 -43 82 -125 194 -144 198 -8 1 -29 -12 -46 -30z"
       id="path92"
       style="fill:#556b2f" />
    <path
       d="M2150 4308 c-1 -82 -14 -154 -43 -233 -12 -33 -12 -47 -2 -80 21 -71 73 -155 95 -155 10 0 40 90 106 310 l16 55 -47 70 c-47 71 -90 115 -112 115 -9 0 -13 -23 -13 -82z"
       id="path94"
       style="fill:#228b22" />
    <path
       d="M4170 4328 c-108 -158 -100 -141 -84 -194 30 -99 9 -193 -55 -247 -37 -30 -72 -34 -124 -12 -32 13 -36 13 -53 -6 -31 -34 -70 -49 -126 -49 -64 0 -120 24 -172 73 -37 36 -38 38 -33 89 3 29 9 65 12 79 7 26 5 27 -127 69 -163 52 -252 97 -317 162 -28 27 -55 47 -61 43 -23 -14 -99 -143 -119 -200 -31 -95 -39 -130 -68 -300 -23 -138 -27 -188 -26 -365 0 -180 3 -221 26 -335 25 -123 67 -263 101 -330 8 -16 33 -73 56 -125 49 -112 144 -280 210 -370 114 -157 287 -436 412 -665 19 -34 68 -95 115 -142 62 -61 88 -95 102 -134 29 -75 15 -81 -29 -12 -37 59 -103 123 -127 123 -24 0 -20 -69 7 -124 11 -22 18 -41 16 -43 -2 -2 -20 15 -40 37 -25 28 -36 50 -36 71 0 73 -32 168 -90 269 -33 57 -60 105 -60 108 0 3 -11 22 -24 41 -12 20 -49 82 -80 138 -32 56 -63 106 -70 112 -13 11 -155 29 -236 31 -25 1 -98 6 -162 12 -107 11 -119 10 -136 -6 -43 -38 -34 -141 18 -199 26 -30 33 -32 99 -34 118 -2 117 -16 -3 -74 l-81 -40 59 5 c58 5 123 31 209 84 l39 23 -7 -33 c-22 -101 -149 -201 -290 -227 -193 -36 -405 147 -381 328 8 60 38 143 65 177 31 39 26 51 -21 59 -109 18 -264 61 -375 106 -166 65 -238 108 -377 222 -53 44 -63 48 -95 42 -38 -6 -53 -20 -111 -100 -69 -94 -67 -87 -36 -139 63 -107 219 -300 351 -432 302 -303 685 -587 990 -733 55 -27 111 -52 125 -56 14 -4 49 -19 79 -32 29 -14 61 -26 70 -28 9 -2 48 -14 86 -28 39 -14 84 -28 100 -31 17 -4 59 -16 95 -26 36 -11 79 -22 95 -23 17 -2 84 -16 150 -31 66 -15 181 -40 255 -57 74 -16 185 -40 245 -54 61 -14 126 -27 145 -30 19 -3 57 -13 83 -21 96 -31 153 -40 264 -37 163 3 287 46 386 133 115 102 221 312 283 560 19 76 28 416 16 575 -12 141 -56 383 -98 535 -35 126 -114 363 -125 375 -5 5 -9 15 -9 23 0 7 -9 32 -19 55 -10 23 -40 89 -66 147 -54 120 -197 390 -231 437 -13 17 -24 35 -24 38 0 4 -100 159 -223 344 -123 185 -240 362 -260 394 -20 31 -38 57 -40 57 -1 0 -18 -24 -37 -52z"
       id="path96"
       style="fill:#cd5c5c" />
    <path
       d="M4463 4086 c3 -7 52 -85 109 -173 56 -87 108 -166 113 -175 6 -8 19 -28 29 -44 11 -16 44 -67 74 -114 94 -146 156 -240 159 -240 1 0 11 30 23 66 37 120 18 274 -47 386 -37 64 -70 92 -158 136 -33 16 -114 62 -179 101 -65 39 -121 71 -123 71 -3 0 -3 -6 0 -14z"
       id="path98"
       style="fill:#556b2f" />
    <path
       d="M2019 3944 c-48 -50 -111 -85 -161 -89 l-43 -3 -13 -58 c-8 -33 -26 -111 -42 -174 -68 -285 -79 -348 -90 -510 -6 -91 -10 -195 -10 -232 0 -65 1 -68 37 -95 54 -41 90 -82 104 -117 7 -17 25 -46 41 -64 31 -36 36 -73 13 -92 -8 -7 -15 -18 -15 -25 0 -17 329 -172 405 -190 11 -3 61 -16 110 -30 52 -14 116 -25 153 -25 57 0 63 2 74 25 8 18 9 35 2 53 -8 24 -19 29 -84 44 -204 47 -241 77 -285 230 -27 94 -29 97 -49 83 -28 -21 -40 -19 -75 11 l-31 26 -45 -41 c-25 -23 -48 -41 -52 -41 -25 0 -72 44 -97 90 -16 30 -44 69 -61 86 -25 25 -37 51 -54 121 -22 87 -22 92 -7 202 9 62 20 121 26 130 11 22 54 51 82 56 11 3 28 11 37 19 9 8 37 24 62 34 56 24 66 38 45 61 -23 26 -46 98 -46 148 0 45 12 63 69 103 12 8 29 37 39 65 15 42 23 51 52 59 19 5 36 10 38 11 1 1 -20 38 -47 83 l-48 81 -34 -35z"
       id="path100"
       style="fill:none" />
    <path
       d="M4993 3763 c62 -121 56 -381 -10 -455 -21 -23 -13 -55 40 -169 24 -52 65 -142 92 -201 27 -60 51 -108 55 -108 12 0 61 186 72 268 6 48 8 139 5 203 -5 98 -11 128 -37 195 -58 147 -115 234 -176 270 -52 31 -58 30 -41 -3z"
       id="path102"
       style="fill:#556b2f" />
    <path
       d="M5976 3756 c9 -24 -14 -150 -41 -223 -31 -82 -86 -158 -237 -323 -171 -188 -257 -296 -294 -375 -62 -132 -113 -397 -98 -510 7 -59 51 -183 86 -242 l24 -41 -1 201 c0 224 3 240 74 392 29 61 67 114 162 225 207 242 246 295 309 430 73 153 91 313 49 425 -11 30 -24 55 -29 55 -5 0 -7 -6 -4 -14z"
       id="path104"
       style="fill:#228b22" />
    <path
       d="M2366 3642 c-15 -18 -15 -20 5 -37 17 -16 22 -17 29 -5 13 21 12 36 -3 49 -11 8 -18 7 -31 -7z"
       id="path106"
       style="fill:#ffd700" />
    <path
       d="M2005 3636 c-18 -13 -18 -14 4 -25 32 -18 55 -7 41 19 -13 24 -20 25 -45 6z"
       id="path108"
       style="fill:#ffd700" />
    <path
       d="M2285 3620 c-26 -28 -7 -49 30 -32 28 13 33 37 9 46 -21 8 -18 9 -39 -14z"
       id="path110"
       style="fill:#ffd700" />
    <path
       d="M2190 3605 c-17 -21 1 -39 29 -30 25 8 28 30 5 39 -21 8 -20 8 -34 -9z"
       id="path112"
       style="fill:#ffd700" />
    <path
       d="M2460 3596 c0 -8 8 -24 19 -37 l18 -23 8 22 c7 25 -9 52 -31 52 -8 0 -14 -6 -14 -14z"
       id="path114"
       style="fill:#ffd700" />
    <path
       d="M2068 3576 c-8 -20 -9 -29 0 -38 16 -16 44 9 40 35 -5 31 -26 32 -40 3z"
       id="path116"
       style="fill:#ffd700" />
    <path
       d="M2220 3548 c-35 -5 -65 -10 -66 -11 -1 -1 -5 -12 -8 -24 -7 -21 -4 -23 26 -24 18 0 42 -2 53 -4 11 -2 33 2 50 10 16 8 41 15 55 17 17 2 26 10 28 26 3 20 -1 22 -35 21 -21 -1 -67 -6 -103 -11z"
       id="path118"
       style="fill:#e9967a" />
    <path
       d="M2425 3530 c-9 -15 5 -52 18 -47 15 5 16 49 0 54 -6 2 -14 -1 -18 -7z"
       id="path120"
       style="fill:#ffd700" />
    <path
       d="M2006 3511 c-14 -15 -15 -24 -6 -40 14 -27 21 -26 49 2 17 19 19 26 9 34 -28 21 -36 22 -52 4z"
       id="path122"
       style="fill:#ffd700" />
    <path
       d="M2286 3475 c-19 -20 -17 -34 7 -49 13 -8 21 -6 34 7 16 16 16 18 -3 38 -20 19 -22 19 -38 4z"
       id="path124"
       style="fill:#ffd700" />
    <path
       d="M2083 3464 c-9 -25 24 -46 48 -31 19 12 19 12 -2 30 -27 21 -38 22 -46 1z"
       id="path126"
       style="fill:#ffd700" />
    <path
       d="M2181 3457 c-8 -11 -9 -22 -1 -43 l11 -28 22 22 21 22 -20 21 c-18 17 -22 18 -33 6z"
       id="path128"
       style="fill:#ffd700" />
    <path
       d="M2035 3374 c-22 -20 -82 -57 -133 -81 -95 -47 -112 -63 -112 -106 0 -35 11 -40 37 -15 l23 21 0 -25 c0 -23 -46 -98 -69 -113 -13 -8 -14 -45 -2 -64 6 -10 19 4 47 53 41 69 69 88 58 39 -3 -16 -24 -62 -45 -105 -21 -42 -39 -85 -39 -96 0 -23 60 -76 73 -63 4 4 14 40 23 81 20 98 30 115 39 68 5 -24 -1 -69 -15 -131 -17 -74 -19 -99 -11 -116 7 -11 15 -21 19 -22 4 0 18 -3 31 -5 35 -6 141 98 141 138 0 24 -3 26 -22 19 -13 -4 -27 -18 -33 -29 -17 -37 -25 -24 -25 38 0 49 3 62 18 67 9 4 37 24 62 44 41 35 87 59 111 59 20 0 7 -18 -36 -48 -49 -35 -54 -53 -33 -124 10 -34 9 -42 -10 -68 -23 -30 -29 -65 -13 -75 12 -7 50 41 58 74 3 14 29 69 57 121 88 162 91 172 89 285 -2 55 -5 123 -8 152 -5 44 -10 52 -32 58 -16 4 -34 0 -50 -10 -23 -16 -30 -16 -89 -1 -35 9 -64 16 -66 16 -2 -1 -21 -17 -43 -36z"
       id="path130"
       style="fill:#e9967a" />
    <path
       d="M2369 3369 c-19 -46 -19 -205 1 -239 l14 -25 12 40 c16 52 16 180 0 224 l-12 34 -15 -34z"
       id="path132"
       style="fill:#32cd32" />
    <path
       d="M2847 2886 c-4 -10 -7 -41 -7 -69 0 -134 90 -311 181 -357 l39 -20 -36 77 c-20 43 -54 119 -76 168 -21 50 -48 107 -60 128 -11 21 -23 50 -27 65 -6 22 -8 24 -14 8z"
       id="path134"
       style="fill:#556b2f" />
    <path
       d="M1462 2828 c-16 -16 -15 -33 4 -49 13 -10 17 -10 25 2 24 38 1 77 -29 47z"
       id="path136"
       style="fill:#ffff00" />
    <path
       d="M2766 2833 c-4 -4 -16 -27 -26 -51 -41 -93 -15 -200 60 -249 71 -46 83 -56 101 -97 33 -73 21 -138 -42 -217 l-31 -39 44 0 c23 0 118 -7 210 -17 92 -9 170 -14 174 -11 5 6 -68 120 -104 160 -8 10 -38 31 -66 47 -71 40 -157 111 -188 157 -27 40 -92 219 -103 287 -6 36 -14 45 -29 30z"
       id="path138"
       style="fill:#556b2f" />
    <path
       d="M1540 2801 c0 -29 22 -42 44 -25 16 11 17 16 6 29 -18 21 -50 19 -50 -4z"
       id="path140"
       style="fill:#ffd700" />
    <path
       d="M1380 2785 c-16 -19 -9 -49 12 -53 23 -4 43 35 27 54 -15 18 -23 18 -39 -1z"
       id="path142"
       style="fill:#ffd700" />
    <path
       d="M1624 2769 c-8 -14 21 -43 35 -35 6 4 11 16 11 27 0 21 -34 27 -46 8z"
       id="path144"
       style="fill:#ffd700" />
    <path
       d="M1295 2740 c-19 -21 -14 -50 8 -50 25 0 40 26 27 49 -13 26 -13 26 -35 1z"
       id="path146"
       style="fill:#ffd700" />
    <path
       d="M1373 2697 c-40 -29 -73 -59 -73 -69 0 -9 21 -43 46 -77 45 -60 46 -61 73 -47 15 8 46 42 70 75 30 44 49 61 65 61 39 0 59 22 51 58 -9 41 -30 52 -102 52 -54 -1 -63 -5 -130 -53z"
       id="path148"
       style="fill:#fa8072" />
    <path
       d="M1696 2724 c-9 -25 10 -41 32 -28 24 15 21 38 -4 42 -13 2 -24 -4 -28 -14z"
       id="path150"
       style="fill:#ffff00" />
    <path
       d="M1222 2668 c-16 -16 -15 -33 3 -48 12 -10 20 -9 42 5 l27 18 -23 18 c-27 22 -33 23 -49 7z"
       id="path152"
       style="fill:#ffff00" />
    <path
       d="M1614 2636 c-6 -16 12 -56 25 -56 5 0 14 7 21 15 10 13 10 19 -5 35 -21 24 -34 25 -41 6z"
       id="path154"
       style="fill:#ffd700" />
    <path
       d="M1701 2631 c-13 -23 -14 -51 -3 -51 14 0 32 23 32 41 0 27 -18 32 -29 10z"
       id="path156"
       style="fill:#ffd700" />
    <path
       d="M1544 2616 c-8 -22 2 -46 21 -46 19 0 20 34 0 50 -12 10 -16 9 -21 -4z"
       id="path158"
       style="fill:#ffff00" />
    <path
       d="M1767 2613 c-2 -10 -8 -26 -12 -35 -5 -12 -3 -18 6 -18 28 0 42 17 35 44 -7 30 -21 34 -29 9z"
       id="path160"
       style="fill:#ffd700" />
    <path
       d="M1186 2565 c7 -16 14 -18 38 -9 26 10 18 24 -14 24 -22 0 -28 -4 -24 -15z"
       id="path162"
       style="fill:#ffd700" />
    <path
       d="M1265 2554 c-4 -16 -8 -34 -10 -41 -6 -19 27 -167 39 -175 6 -4 21 -8 33 -8 18 0 25 9 33 41 15 55 7 82 -45 153 l-44 58 -6 -28z"
       id="path164"
       style="fill:none" />
    <path
       d="M1483 2550 c-10 -15 -10 -22 3 -35 19 -18 28 -19 42 -2 7 8 5 18 -8 35 -22 27 -22 27 -37 2z"
       id="path166"
       style="fill:#ffff00" />
    <path
       d="M1198 2518 c-31 -11 -36 -29 -14 -47 17 -15 46 10 46 40 0 10 -1 19 -2 18 -2 0 -15 -5 -30 -11z"
       id="path168"
       style="fill:#ffd700" />
    <path
       d="M1421 2467 c-8 -11 -6 -18 9 -32 19 -17 21 -17 41 1 19 17 19 19 3 31 -23 17 -39 16 -53 0z"
       id="path170"
       style="fill:#ffd700" />
    <path
       d="M1193 2429 c-15 -15 -5 -39 17 -39 26 0 43 23 28 38 -15 15 -31 15 -45 1z"
       id="path172"
       style="fill:#ffff00" />
    <path
       d="M1390 2385 c-15 -18 -6 -45 13 -45 8 0 20 7 27 15 10 12 10 18 0 30 -16 19 -24 19 -40 0z"
       id="path174"
       style="fill:#ffff00" />
    <path
       d="M1213 2357 c-28 -11 -30 -14 -19 -29 17 -24 43 -23 56 1 22 41 14 47 -37 28z"
       id="path176"
       style="fill:#ffd700" />
    <path
       d="M1242 2287 c-21 -22 -21 -25 -6 -38 14 -11 18 -10 35 11 33 43 7 66 -29 27z"
       id="path178"
       style="fill:#ffd700" />
    <path
       d="M1355 2280 c-15 -16 -15 -22 -5 -35 19 -22 39 -18 46 9 11 45 -11 59 -41 26z"
       id="path180"
       style="fill:#ffff00" />
    <path
       d="M1436 2292 c-10 -17 -18 -91 -12 -116 13 -54 93 -122 179 -152 22 -8 41 -13 43 -11 3 3 -83 126 -158 226 -25 34 -49 58 -52 53z"
       id="path182"
       style="fill:none" />
    <path
       d="M1363 2117 c-5 -8 25 -36 39 -37 7 0 28 33 28 44 0 8 -61 2 -67 -7z"
       id="path184"
       style="fill:#ffff00" />
    <path
       d="M1436 2074 c-10 -27 -7 -44 9 -44 10 0 15 10 15 30 0 32 -14 40 -24 14z"
       id="path186"
       style="fill:#ffff00" />
    <path
       d="M1493 2027 c-27 -12 -31 -37 -5 -37 28 0 45 16 36 32 -7 12 -14 13 -31 5z"
       id="path188"
       style="fill:#ffff00" />
    <path
       d="M5360 1775 c0 -157 4 -265 9 -265 13 0 74 76 95 117 24 48 31 116 16 170 -13 47 -106 243 -115 243 -3 0 -5 -119 -5 -265z"
       id="path190"
       style="fill:#228b22" />
    <path
       d="M1555 1987 c-9 -15 -14 -31 -10 -37 10 -17 34 -11 46 11 9 17 8 25 -4 36 -13 14 -17 12 -32 -10z"
       id="path192"
       style="fill:#ffff00" />
    <path
       d="M2570 1911 c0 -78 67 -178 139 -208 44 -19 132 -18 168 1 l28 15 -30 2 c-95 5 -101 8 -208 118 -86 87 -97 95 -97 72z"
       id="path194"
       style="fill:#556b2f" />
    <path
       d="M5663 890 c11 -115 65 -227 121 -254 42 -20 118 -21 155 -1 41 20 79 69 91 116 11 40 5 125 -10 134 -4 3 -34 -7 -65 -21 -87 -40 -149 -25 -259 60 l-39 30 6 -64z"
       id="path196"
       style="fill:#006400" />
    <path
       d="M6008 616 c-54 -43 -164 -57 -233 -31 -17 7 -17 5 5 -20 29 -32 78 -55 117 -55 40 0 104 40 126 77 25 44 18 56 -15 29z"
       id="path198"
       style="fill:#228b22" />
  </g>
</svg>
