<?xml version="1.0" standalone="no"?>
<!DOCTYPE svg PUBLIC "-//W3C//DTD SVG 20010904//EN"
 "http://www.w3.org/TR/2001/REC-SVG-20010904/DTD/svg10.dtd">
<svg version="1.0" xmlns="http://www.w3.org/2000/svg"
 width="850.000000pt" height="850.000000pt" viewBox="0 0 850.000000 850.000000"
 preserveAspectRatio="xMidYMid meet">
<metadata>
Created by potrace 1.14, written by Peter Selinger 2001-2017
</metadata>
<g transform="translate(0.000000,850.000000) scale(0.100000,-0.100000)"
fill="#000000" stroke="none">
<path d="M5553 8479 c-29 -19 -34 -19 -68 -4 -55 22 -86 19 -127 -15 l-37 -31
-42 21 c-54 28 -78 21 -143 -39 -28 -27 -79 -65 -112 -85 -58 -34 -138 -105
-194 -173 -25 -30 -26 -30 -155 -36 -280 -14 -517 -98 -699 -250 -88 -74 -263
-266 -372 -409 -119 -154 -183 -335 -191 -538 -5 -107 -2 -138 16 -213 12 -48
19 -91 16 -97 -4 -6 -10 -47 -14 -93 l-7 -82 -37 156 c-39 160 -58 199 -100
199 -40 0 -48 -120 -21 -279 9 -51 14 -94 12 -96 -2 -2 -39 54 -82 126 -60 99
-84 131 -104 136 -36 9 -64 -26 -55 -70 10 -56 42 -132 84 -201 22 -37 39 -69
37 -72 -3 -2 -46 30 -97 72 -75 62 -97 75 -117 70 -19 -5 -24 -13 -24 -40 0
-43 33 -92 128 -188 l75 -77 2 -137 1 -137 -46 -18 c-75 -31 -74 -31 -86 -115
-7 -54 -22 -103 -47 -154 -42 -84 -43 -98 -21 -182 12 -47 13 -71 5 -111 -6
-29 -13 -81 -17 -116 -5 -44 -15 -76 -31 -100 -38 -55 -70 -123 -104 -215
l-30 -85 39 -153 c22 -84 45 -187 52 -228 18 -119 38 -169 74 -191 45 -28 66
-24 180 29 98 47 104 51 142 111 21 35 58 84 81 110 l42 46 -17 -64 c-17 -63
-22 -70 -187 -242 -93 -98 -228 -232 -300 -297 -71 -66 -198 -188 -280 -273
-235 -241 -325 -364 -325 -445 0 -32 9 -45 78 -113 87 -87 134 -113 272 -152
78 -22 90 -28 70 -34 -36 -11 -408 -150 -453 -169 l-38 -17 28 -37 c97 -131
193 -242 297 -345 l119 -118 -33 -34 -32 -33 66 -37 c37 -20 148 -75 249 -121
208 -97 213 -99 210 -111 -1 -4 -5 -21 -8 -36 -8 -29 -5 -31 56 -41 l36 -6 7
-148 c9 -186 34 -624 46 -807 5 -77 10 -170 10 -207 l0 -66 -72 -22 c-70 -21
-148 -55 -148 -65 0 -2 16 -33 35 -68 19 -35 35 -74 35 -86 0 -12 5 -32 11
-43 10 -18 5 -27 -45 -75 -61 -59 -63 -65 -44 -155 10 -46 16 -58 31 -58 19 0
19 14 1 111 -4 22 3 34 43 69 l48 42 5 -38 c4 -34 9 -40 43 -49 21 -6 42 -17
47 -25 15 -24 22 -5 27 78 l6 79 -53 6 c-56 7 -71 14 -53 25 8 5 -1 28 -27 72
-21 36 -37 66 -36 68 2 1 33 -4 71 -12 56 -12 74 -21 110 -56 l43 -42 122 1
c114 2 125 4 173 31 40 22 181 60 223 60 2 0 -9 -27 -26 -59 -26 -52 -27 -60
-13 -65 23 -9 5 -22 -39 -30 -24 -4 -38 -3 -38 4 0 5 -4 10 -9 10 -10 0 -25
-145 -17 -159 4 -6 22 -5 48 3 32 9 44 18 48 36 6 24 8 22 39 -25 31 -49 34
-69 16 -117 -5 -13 -2 -18 12 -18 14 0 23 11 31 39 17 54 17 55 -29 123 -41
61 -42 61 -24 90 10 18 14 39 11 54 -4 16 2 41 19 74 14 27 25 56 25 64 0 8
-36 35 -80 61 -73 43 -80 50 -80 78 0 34 49 529 75 762 9 77 23 199 31 270 26
237 17 210 82 241 43 20 82 29 158 35 55 5 112 13 126 18 l25 9 119 -346 c65
-191 161 -474 214 -629 l97 -282 -40 -38 c-21 -21 -52 -55 -69 -76 l-31 -38
47 -48 c25 -25 46 -55 46 -66 0 -10 9 -28 20 -40 20 -22 20 -24 4 -123 l-17
-100 37 -66 c30 -53 42 -66 61 -66 l24 0 -34 59 c-36 61 -41 95 -29 174 5 25
10 34 18 28 14 -11 106 -21 106 -12 0 4 -9 35 -21 69 -20 59 -22 62 -54 62
-46 0 -65 9 -65 30 0 10 -16 32 -35 49 -19 17 -35 32 -35 34 0 10 137 -7 151
-19 20 -18 45 -18 141 1 150 28 171 36 213 76 22 21 62 47 90 59 27 12 64 32
81 45 l31 24 -14 -67 c-7 -36 -12 -71 -10 -77 3 -5 -15 -22 -39 -37 -38 -24
-45 -25 -52 -11 -7 11 -11 12 -16 4 -9 -13 42 -171 54 -171 5 0 10 10 12 22 2
15 19 30 55 48 30 14 50 30 48 38 -7 19 4 14 30 -16 23 -25 24 -35 25 -136 0
-92 4 -124 27 -193 23 -70 30 -83 49 -83 l22 0 -28 88 c-27 82 -28 96 -23 198
6 123 9 116 -75 182 -30 23 -33 29 -27 60 4 19 2 39 -5 47 -8 10 -8 30 0 75 6
34 9 68 7 75 -5 12 -91 39 -164 50 -50 8 -39 -32 -98 360 -25 164 -66 420 -90
569 -25 148 -45 270 -45 271 0 1 20 1 45 1 l45 -1 128 140 c114 126 136 145
212 185 64 34 91 55 113 88 16 23 39 50 52 58 13 9 27 30 30 47 4 18 20 56 36
84 44 80 42 83 -51 83 l-81 0 -14 33 -13 32 39 14 c45 15 67 48 52 76 -6 11
-6 31 1 56 8 31 7 45 -6 72 -11 23 -15 48 -11 76 5 36 2 46 -20 69 -31 33 -27
69 10 83 13 5 74 9 134 9 121 0 136 8 105 55 -13 20 -14 26 -4 29 7 3 33 11
58 19 25 8 46 21 48 30 2 9 -17 40 -41 70 -25 31 -47 70 -51 91 -7 34 -2 41
87 148 142 172 306 391 385 513 l71 110 -18 27 c-9 16 -55 70 -102 121 -72 77
-174 206 -203 255 -4 7 -2 28 4 47 11 34 10 36 -63 130 -57 73 -78 108 -87
148 -18 74 -23 78 -86 71 -50 -6 -54 -5 -63 18 -5 14 -24 37 -41 50 -29 23
-33 34 -49 125 l-16 101 52 -30 c34 -19 72 -31 110 -35 l58 -5 -36 25 c-38 27
-75 72 -108 131 -29 51 -27 53 16 16 20 -18 55 -41 77 -50 41 -18 106 -33 106
-25 0 2 -25 27 -55 56 -37 35 -67 76 -90 123 -33 69 -65 194 -65 255 l0 31 47
-30 c63 -40 107 -53 151 -45 l37 7 -44 21 c-49 23 -88 76 -122 167 -26 69 -28
127 -6 210 9 36 25 103 35 150 l18 85 34 -65 c66 -124 192 -220 289 -220 70 0
76 10 24 35 -56 26 -117 90 -144 150 -28 63 -46 182 -31 203 80 114 156 294
201 472 41 163 48 161 50 -18 1 -113 -17 -218 -55 -321 l-24 -66 35 40 c106
123 179 400 179 675 -1 180 -18 274 -77 420 -62 151 -117 245 -212 358 -87
103 -105 127 -156 216 -63 109 -196 226 -256 226 -10 0 -32 -9 -50 -21z m-62
-49 c19 -11 19 -12 -5 -53 -14 -23 -30 -63 -37 -90 -11 -45 -29 -73 -29 -45 0
8 -16 46 -35 87 -19 40 -32 77 -29 83 3 5 20 18 36 28 31 19 48 17 99 -10z
m159 14 c112 -75 209 -216 287 -422 4 -8 -46 38 -110 103 -65 65 -120 115
-124 112 -3 -4 39 -53 94 -110 139 -145 247 -312 287 -447 46 -153 58 -373 31
-552 -12 -84 -101 -386 -110 -376 -2 1 3 37 11 78 52 285 24 655 -67 904 -29
77 -128 258 -150 271 -23 15 -19 -6 9 -47 51 -75 88 -158 136 -306 41 -127 46
-154 46 -234 0 -97 -29 -259 -59 -336 -29 -71 -102 -224 -106 -220 -2 2 5 39
15 82 48 201 48 463 -1 650 -19 70 -20 30 -3 -85 24 -165 15 -423 -20 -573
-14 -60 -29 -112 -32 -115 -4 -3 -4 8 0 24 4 17 10 102 12 190 4 131 2 177
-13 254 -17 83 -17 103 -7 170 7 42 13 140 13 218 1 171 -31 345 -83 458 -33
70 -122 188 -152 199 -29 11 -52 -13 -80 -84 -17 -45 -30 -66 -35 -58 -4 7 -4
15 1 18 6 3 18 31 29 61 23 69 46 114 78 157 27 37 63 42 103 16z m-396 -22
c3 -5 -8 -22 -24 -37 -30 -29 -100 -189 -119 -274 -5 -23 -11 -45 -14 -47 -9
-10 -107 20 -107 33 0 20 57 130 101 193 76 111 143 165 163 132z m109 -106
c16 -31 38 -101 50 -154 11 -53 22 -99 24 -101 7 -9 13 8 28 84 19 88 51 165
70 165 21 0 92 -85 123 -147 61 -122 111 -322 112 -443 0 -85 -25 -315 -41
-374 -14 -52 -61 -178 -65 -174 -1 2 6 53 16 113 56 319 -12 771 -139 935 -27
35 -38 18 -13 -21 l20 -32 -29 -64 c-16 -36 -29 -71 -29 -80 0 -8 -3 -12 -7
-10 -5 3 -40 8 -79 12 -72 7 -94 -1 -106 -37 -3 -9 -12 -8 -32 5 -25 17 -27
22 -21 65 13 104 37 195 46 181 5 -8 33 -56 60 -107 28 -51 54 -91 57 -88 7 7
-43 118 -81 179 -25 40 -28 55 -23 90 5 38 5 40 -9 23 -37 -49 -75 -262 -75
-428 0 -164 41 -332 111 -457 49 -86 7 -41 -69 73 -76 116 -115 209 -132 319
-23 141 6 309 77 455 61 123 103 128 156 18z m-322 -63 c-17 -27 -42 -75 -57
-107 -26 -58 -27 -58 -63 -52 -20 3 -42 6 -48 6 -26 0 -12 30 39 85 48 52 147
129 156 121 2 -2 -10 -26 -27 -53z m544 -178 c41 -92 68 -219 90 -417 4 -32 4
-58 2 -58 -5 0 -77 119 -77 127 0 4 7 14 15 23 13 15 13 25 -8 91 -21 67 -26
75 -52 79 -22 4 -33 14 -43 42 -14 35 -13 41 14 103 16 36 30 65 32 65 2 0 14
-25 27 -55z m500 -170 c117 -182 185 -413 185 -634 0 -90 -22 -260 -43 -332
l-13 -44 -7 110 c-4 61 -13 139 -22 175 -8 36 -22 137 -30 225 -16 183 -44
294 -105 415 -22 44 -53 115 -69 157 -16 43 -32 87 -37 98 -10 27 100 -107
141 -170z m-1145 161 c41 -8 93 -19 116 -25 38 -10 40 -12 36 -45 -12 -104 44
-315 114 -428 48 -79 75 -217 77 -398 2 -136 -9 -270 -21 -270 -4 0 -18 9 -32
20 -25 19 -25 19 -26 207 -1 103 -7 212 -13 240 -14 69 -54 208 -74 256 -24
57 -38 44 -15 -15 46 -123 69 -232 75 -363 5 -112 -7 -268 -22 -283 -2 -2 -12
1 -22 6 -19 11 -29 83 -53 369 -12 150 -46 323 -67 343 -14 13 -15 13 -9 -5
25 -70 49 -267 53 -437 6 -215 1 -258 -27 -258 -19 0 -20 8 -21 128 -2 148
-12 274 -21 252 -4 -8 -8 -100 -10 -203 -2 -109 -7 -191 -13 -195 -6 -4 -10
-30 -11 -58 0 -27 -5 -57 -10 -66 -5 -10 -9 104 -8 295 1 336 -4 497 -16 497
-4 0 -10 -100 -13 -222 -6 -289 -38 -470 -111 -638 -19 -44 -20 -33 -2 55 15
72 56 421 56 475 0 62 -18 27 -25 -47 -12 -137 -54 -437 -68 -483 l-13 -45
-18 94 c-41 219 -40 400 4 635 20 108 20 144 1 93 -28 -74 -53 -255 -62 -452
-5 -115 -10 -232 -11 -260 l-3 -50 -14 75 c-32 176 4 501 85 751 34 107 43
151 23 116 -23 -39 -122 -338 -150 -452 -34 -138 -59 -313 -60 -418 -1 -119
-20 -43 -26 107 -5 97 -3 127 5 122 7 -4 12 -3 12 3 0 5 -5 13 -11 16 -27 18
25 266 86 409 21 48 35 89 33 92 -12 11 -79 -143 -128 -291 -29 -88 -54 -161
-55 -163 -2 -2 -13 2 -25 8 -19 10 -21 17 -15 48 16 84 70 225 135 352 38 74
66 137 64 140 -6 6 -5 7 -78 -118 -55 -94 -79 -147 -136 -302 -18 -47 -34 -88
-36 -91 -2 -3 -17 -4 -35 -1 l-31 5 6 56 c6 49 33 126 90 254 9 20 12 37 8 37
-17 0 -73 -119 -111 -237 -31 -94 -43 -119 -59 -121 -19 -3 -19 -1 -6 65 26
125 72 219 186 380 59 83 78 128 34 83 -41 -43 -137 -182 -171 -251 -19 -36
-50 -116 -71 -178 -33 -102 -40 -114 -68 -126 -17 -7 -32 -12 -34 -11 -7 8 31
184 54 248 51 143 146 279 254 364 56 44 72 64 52 64 -5 0 -43 -29 -84 -64
-86 -73 -165 -173 -209 -263 -31 -66 -106 -276 -142 -403 -29 -98 -32 -63 -8
70 10 58 17 107 14 110 -18 19 -49 -140 -64 -330 -12 -157 -7 -295 15 -379 7
-29 10 -49 5 -44 -18 18 -49 128 -65 233 -16 102 -15 118 0 252 20 164 52 274
123 416 54 108 52 134 -3 36 -89 -159 -133 -301 -153 -486 l-8 -83 -2 86 c-4
262 118 536 357 808 80 90 47 74 -45 -22 -166 -173 -291 -404 -327 -606 -8
-42 -15 -67 -15 -56 -4 79 -73 -177 -95 -351 -8 -66 -18 -158 -22 -206 -5 -64
-10 -88 -20 -88 -20 0 -18 64 6 250 27 216 46 315 76 412 89 283 202 477 377
651 99 98 123 137 48 78 -99 -78 -238 -256 -315 -401 -64 -122 -132 -301 -161
-421 l-25 -104 4 120 c3 91 10 141 30 210 28 94 86 226 137 309 30 47 31 80 3
41 -39 -52 -126 -230 -153 -311 -34 -105 -55 -277 -45 -381 7 -79 -4 -283 -16
-283 -11 0 -57 146 -69 221 -48 294 74 597 352 872 74 74 88 111 19 52 -23
-20 -42 -32 -42 -26 0 12 44 44 124 91 55 33 81 60 57 60 -6 0 -52 -28 -103
-63 -122 -83 -132 -87 -78 -38 65 59 196 146 275 182 83 37 275 89 370 99 115
12 275 10 355 -4z m530 -73 c2 -2 12 -23 20 -46 12 -33 21 -43 44 -47 22 -4
32 -13 41 -40 28 -82 28 -80 1 -80 l-25 0 14 -41 c8 -23 15 -45 15 -50 0 -5
-26 -9 -58 -9 l-59 0 -12 43 c-17 55 -28 67 -60 67 -37 0 -48 10 -66 59 -21
59 -20 61 20 61 19 0 35 2 35 4 0 2 -7 23 -15 46 -8 23 -15 44 -15 46 0 4 114
-8 120 -13z m-161 -49 c2 -2 -8 -8 -23 -13 -32 -13 -32 -29 -6 -107 23 -65 40
-84 81 -84 25 0 30 -6 45 -55 14 -44 22 -55 39 -55 25 0 33 -14 68 -130 98
-320 110 -384 83 -445 -13 -30 -13 -29 -25 40 -16 95 -30 145 -40 145 -4 0 -2
-30 6 -67 19 -95 28 -449 14 -559 -13 -101 -52 -297 -58 -291 -2 2 4 62 13
133 11 89 14 161 10 234 -8 126 -44 493 -52 534 -4 19 -3 26 5 22 16 -11 13
15 -4 34 -9 10 -25 50 -36 91 -22 82 -46 120 -35 57 4 -21 5 -38 2 -38 -8 0
-81 147 -106 212 -28 73 -50 205 -50 300 l0 79 33 -17 c17 -9 34 -18 36 -20z
m-1523 -345 c-169 -177 -260 -336 -316 -554 -10 -38 -19 -61 -19 -49 -4 81 89
308 181 441 45 67 218 253 235 253 3 0 -34 -41 -81 -91z m1864 -13 c31 -62 31
-67 23 -142 l-8 -79 -51 105 c-54 109 -79 149 -88 140 -2 -3 24 -64 60 -135
35 -72 65 -141 66 -155 2 -33 -12 -143 -18 -137 -3 2 -21 64 -40 138 -19 73
-50 172 -68 221 l-33 88 48 0 c26 0 51 5 54 10 13 20 24 9 55 -54z m-1865 -38
c-56 -71 -95 -139 -142 -248 -28 -63 -22 -25 8 54 23 64 80 153 138 219 63 69
60 57 -4 -25z m1520 -120 c15 -23 47 -63 71 -88 24 -25 48 -58 54 -74 19 -51
51 -349 57 -536 11 -361 -60 -711 -208 -1018 -51 -106 -70 -133 -135 -200 -68
-69 -73 -72 -45 -30 119 180 221 499 266 833 9 66 20 124 25 129 5 5 6 14 4
21 -3 7 4 56 15 111 19 92 20 124 2 96 -4 -7 -15 -53 -25 -102 -19 -91 -27
-101 -60 -77 -24 18 -17 51 12 55 27 4 30 22 3 22 -16 0 -18 5 -12 33 5 18 13
42 19 54 9 16 9 22 0 25 -8 3 -9 16 -2 49 l9 44 23 -37 c13 -21 28 -38 33 -38
16 0 10 13 -26 64 l-35 50 0 147 c0 88 -4 150 -10 154 -6 4 -10 -44 -10 -137
l-1 -143 -20 25 c-15 18 -19 32 -15 54 4 17 9 89 12 161 6 121 -4 225 -32 363
-3 17 -4 32 -2 32 3 0 18 -19 33 -42z m713 -185 c-4 -62 -17 -109 -62 -231
-66 -180 -86 -283 -86 -441 1 -154 20 -260 60 -324 17 -27 29 -51 27 -54 -12
-12 -109 95 -141 157 -69 131 -77 166 -64 288 11 103 13 108 49 149 43 47 113
181 152 290 20 54 57 211 57 239 0 2 3 4 6 4 4 0 4 -35 2 -77z m-1374 -506
c14 -49 33 -105 41 -124 9 -22 13 -50 10 -72 l-6 -36 28 47 c15 27 31 48 35
48 3 0 9 -13 13 -30 4 -16 10 -30 15 -30 9 0 14 31 25 147 3 35 17 87 30 116
13 30 35 105 48 168 14 63 28 123 31 134 3 11 3 -54 1 -144 -4 -164 -4 -164
-31 -186 -24 -19 -25 -22 -9 -35 15 -13 15 -15 -7 -32 -21 -16 -21 -18 -4 -18
19 0 19 0 0 -21 -18 -20 -29 -79 -15 -79 4 0 23 16 42 36 18 20 43 40 53 46
10 6 3 -5 -15 -24 -63 -63 -79 -187 -34 -265 18 -33 20 -43 9 -43 -8 0 -14 -4
-14 -10 0 -5 7 -10 15 -10 18 0 19 -11 3 -29 -11 -11 -9 -11 9 -2 36 18 55 14
48 -10 -7 -21 -6 -21 16 -5 29 20 43 21 35 1 -8 -21 0 -19 41 13 116 88 143
129 143 222 0 38 4 59 10 55 6 -3 10 -32 10 -63 0 -42 -7 -68 -25 -99 -13 -24
-20 -43 -15 -43 10 0 60 58 60 71 0 5 5 9 10 9 17 0 11 -24 -28 -106 -67 -136
-176 -232 -285 -249 -65 -10 -31 -22 41 -14 67 7 137 34 175 67 9 8 17 10 17
5 0 -20 -124 -140 -166 -161 -63 -32 -369 -140 -436 -154 -43 -9 -66 -9 -87
-1 -50 18 -390 283 -431 334 -21 27 -45 70 -54 96 -22 71 -48 209 -44 241 3
27 4 27 25 -13 22 -41 111 -133 151 -154 34 -18 27 -4 -27 55 -56 61 -86 131
-101 232 -13 88 -13 172 0 172 6 0 10 -9 10 -20 0 -11 6 -19 13 -18 7 2 13
-10 15 -29 5 -48 18 -40 26 15 3 27 16 60 30 77 28 35 47 28 23 -9 -45 -67
-45 -177 -1 -241 29 -43 29 -45 7 -45 -13 -1 -10 -5 10 -16 24 -13 27 -18 15
-32 -14 -16 -13 -16 40 5 7 3 12 -2 12 -12 0 -14 3 -15 14 -6 7 6 20 9 29 5
21 -8 45 6 105 63 56 52 82 102 82 158 0 36 13 47 24 19 11 -28 25 -4 19 32
-4 24 -2 39 7 44 9 6 9 13 1 28 -8 15 -8 23 0 27 6 4 12 5 13 4 2 -2 13 -57
26 -121 13 -65 27 -118 32 -118 4 0 8 66 8 148 0 149 11 274 33 392 12 64 12
62 18 -125 5 -166 9 -201 33 -278z m1051 286 c13 -63 19 -146 20 -293 l3 -205
-8 195 c-7 205 -24 327 -47 346 -13 11 -8 44 7 44 4 0 16 -39 25 -87z m-1826
-221 c9 -47 9 -87 1 -160 -49 -437 1 -767 150 -987 41 -62 44 -73 10 -35 -93
101 -179 246 -222 370 -34 99 -48 228 -49 437 0 215 5 263 54 487 l32 149 6
-99 c3 -54 11 -127 18 -162z m1810 96 c23 -207 12 -304 -50 -454 -39 -94 -51
-102 -28 -18 43 157 62 311 57 479 -5 165 2 162 21 -7z m-970 -124 c12 -70 17
-123 12 -140 -7 -26 -8 -27 -14 -9 -14 42 -35 305 -22 270 2 -5 13 -60 24
-121z m-691 56 c-7 -11 -16 -20 -19 -20 -4 0 -5 9 -2 20 3 11 12 20 19 20 12
0 12 -4 2 -20z m287 -37 c-7 -47 22 -99 60 -109 23 -6 26 -10 20 -33 -10 -41
-53 -101 -81 -111 -52 -20 -124 -2 -124 30 0 26 9 29 38 14 33 -17 53 -18 85
-3 31 14 50 49 45 80 -4 23 -5 23 -13 4 -23 -57 -63 -70 -109 -34 -28 22 -34
65 -16 114 15 40 -11 27 -33 -16 -12 -22 -16 -45 -12 -66 5 -30 4 -33 -20 -33
-23 0 -25 3 -25 46 0 97 51 154 136 154 l54 0 -5 -37z m82 -9 c15 -24 17 -25
24 -8 6 16 8 16 8 2 1 -9 4 -25 7 -35 4 -13 3 -14 -3 -5 -7 9 -12 6 -21 -13
-14 -30 -26 -31 -52 -5 -28 28 -28 90 0 90 11 0 27 -12 37 -26z m-1072 -71 c9
-21 34 -113 56 -205 24 -99 45 -168 52 -168 28 1 34 22 45 149 10 109 17 145
39 190 l26 56 8 -40 c4 -22 4 -92 -1 -155 -11 -132 -15 -318 -8 -326 3 -2 15
22 27 55 24 66 98 151 131 151 23 0 19 -15 -17 -73 -37 -59 -60 -126 -73 -211
-15 -103 -33 -149 -80 -217 -21 -30 -42 -67 -45 -81 -13 -49 -143 -81 -257
-62 -35 6 -37 8 -36 43 0 20 -4 74 -11 121 -6 46 -11 115 -11 151 0 67 0 67
33 79 l32 11 -36 13 c-46 16 -114 72 -172 139 -97 114 -89 145 13 52 88 -80
167 -130 186 -114 8 6 14 14 14 18 0 3 -29 56 -65 116 -61 102 -101 201 -93
226 7 20 58 -44 127 -160 39 -65 79 -129 90 -142 18 -21 21 -22 35 -9 14 13
13 28 -9 135 -36 176 -44 295 -20 295 2 0 12 -17 20 -37z m1731 -78 c-8 -21
11 -19 22 2 9 16 12 16 37 -1 24 -16 25 -19 12 -34 -8 -9 -17 -25 -20 -35 -9
-25 21 -95 44 -102 28 -9 24 -23 -25 -71 -37 -38 -49 -44 -84 -44 -42 0 -92
17 -92 31 0 32 12 36 48 18 20 -11 43 -19 52 -19 41 0 94 70 70 94 -7 7 -10 6
-10 -2 0 -20 -39 -52 -63 -52 -13 0 -34 11 -46 24 -19 20 -22 33 -19 70 2 27
-1 45 -7 43 -12 -4 -23 -42 -24 -84 -2 -55 -41 -32 -41 23 0 82 58 151 129
153 17 1 22 -3 17 -14z m114 -77 c0 -23 3 -29 9 -19 14 22 22 -4 11 -34 -15
-38 -42 -29 -56 20 -13 47 -9 65 17 65 15 0 19 -7 19 -32z m547 -90 c-3 -8 -6
-5 -6 6 -1 11 2 17 5 13 3 -3 4 -12 1 -19z m-1961 -293 c14 -112 69 -365 93
-427 17 -44 4 -32 -23 21 -49 96 -108 327 -121 477 -6 59 -4 78 12 105 l18 34
3 -45 c1 -25 9 -99 18 -165z m1834 84 c-7 -24 -15 -102 -19 -174 -7 -116 -11
-135 -35 -175 l-27 -45 3 130 c2 133 9 160 68 288 19 39 23 27 10 -24z m-104
-424 c-6 -22 -110 -156 -122 -156 -4 0 -13 13 -19 28 -11 25 -9 39 16 104 16
40 50 115 76 166 l48 92 3 -107 c2 -59 0 -116 -2 -127z m207 46 c26 -51 12
-50 -38 4 -50 53 -53 66 -28 115 l16 34 17 -60 c9 -32 24 -74 33 -93z m-1443
84 c19 -14 38 -34 42 -45 13 -36 21 -169 11 -182 -6 -7 -18 -37 -27 -65 -17
-50 -36 -71 -36 -38 0 8 -4 15 -10 15 -5 0 -7 -18 -5 -42 41 -345 40 -335 18
-293 -9 17 -33 51 -54 76 -45 54 -53 99 -17 99 21 0 21 1 3 13 -16 12 -16 18
-7 47 18 49 15 102 -8 153 -11 25 -24 82 -28 127 -8 76 -7 81 10 77 24 -7 23
10 -2 25 -25 16 -26 28 -2 28 10 0 27 7 38 15 26 20 35 19 74 -10z m-175 -37
c20 -19 25 -39 34 -114 5 -50 18 -107 27 -128 l18 -37 -29 -24 c-17 -12 -33
-21 -37 -19 -3 2 -18 24 -33 49 -24 41 -25 49 -14 82 7 24 9 65 4 124 -3 49
-4 89 0 89 3 0 17 -10 30 -22z m922 -55 c4 -39 -2 -66 -35 -148 -37 -94 -41
-112 -52 -260 -13 -164 -22 -208 -36 -170 -4 11 -24 63 -44 115 -70 176 -72
189 -50 277 25 96 25 93 -7 93 -27 1 -26 3 27 51 59 54 169 113 184 99 5 -5
11 -30 13 -57z m-1226 -35 c13 -35 25 -66 27 -69 1 -3 -31 -29 -73 -58 -41
-29 -75 -55 -75 -59 0 -4 36 -46 79 -93 l79 -85 -116 -12 c-127 -12 -142 -20
-142 -76 0 -38 -6 -31 -13 15 -5 35 -4 37 53 69 33 18 62 40 65 48 3 7 -2 54
-11 102 -16 86 -16 90 5 151 11 35 21 73 21 85 0 25 23 43 56 44 17 0 26 -13
45 -62z m624 17 c102 -69 121 -71 261 -31 65 19 120 33 122 31 4 -4 -51 -55
-60 -55 -3 0 -30 -47 -58 -104 -51 -103 -53 -106 -130 -156 -79 -52 -175 -150
-146 -150 25 0 -3 -71 -46 -119 -21 -22 -40 -41 -42 -41 -2 0 -6 33 -10 73 -4
39 -10 81 -13 92 -4 16 -3 18 8 8 27 -26 29 -11 4 37 -14 28 -25 66 -25 88 0
34 42 167 57 182 2 3 3 -34 1 -83 -2 -53 1 -86 7 -84 26 9 31 131 11 270 -7
48 -11 87 -9 87 1 0 32 -20 68 -45z m-795 19 c45 -18 47 -25 23 -101 -15 -47
-15 -65 -5 -150 11 -88 11 -97 -5 -110 -41 -32 -247 -125 -353 -159 -63 -20
-121 -39 -127 -41 -10 -4 -13 27 -13 136 0 78 -3 141 -7 141 -5 0 -33 -48 -64
-106 l-56 -106 -17 70 -18 70 42 83 c31 64 42 100 46 149 3 36 8 68 12 72 4 3
31 16 60 27 l52 21 0 -28 c0 -45 -11 -53 -53 -40 -39 12 -58 5 -40 -13 17 -17
233 -51 276 -43 48 8 246 79 260 93 20 20 0 21 -46 4 -54 -20 -66 -14 -43 22
19 29 23 30 76 9z m1999 -129 c25 -116 54 -193 96 -255 19 -28 30 -50 25 -50
-18 0 -113 119 -144 181 -18 36 -39 96 -46 133 -12 64 -11 68 11 101 l24 35 7
-27 c4 -16 16 -68 27 -118z m-556 63 c3 -7 17 -42 31 -76 l25 -64 -44 -46
c-24 -26 -57 -55 -74 -65 l-31 -18 0 43 c0 41 67 238 81 238 4 0 9 -6 12 -12z
m527 -298 c12 -30 37 -84 56 -118 l35 -64 -30 21 c-44 32 -100 100 -122 151
-26 57 -44 77 -80 85 -18 4 -35 17 -44 35 -14 27 -13 29 47 95 l62 67 27 -108
c15 -60 37 -134 49 -164z m-800 242 c0 -4 -9 -38 -20 -76 -20 -69 -133 -258
-183 -304 -39 -35 -249 -183 -255 -178 -2 3 16 28 41 55 34 39 50 69 69 128
l23 78 90 60 c88 59 91 62 138 153 41 78 51 92 72 92 14 0 25 -3 25 -8z m-908
-94 c25 -40 49 -79 53 -87 9 -16 -33 -101 -50 -101 -6 0 -50 40 -98 89 l-87
88 58 41 c31 23 62 41 68 42 6 0 31 -33 56 -72z m1267 -85 c2 -20 -115 -186
-164 -233 l-47 -45 6 50 c3 28 8 76 12 108 6 57 7 58 53 82 25 13 64 37 86 53
35 27 41 29 47 14 4 -9 7 -22 7 -29z m304 -18 c42 -20 55 -47 96 -212 32 -129
51 -247 51 -323 0 -27 5 -52 10 -55 11 -7 13 12 10 85 l-1 45 25 -25 c16 -16
29 -44 35 -73 5 -27 14 -54 19 -59 8 -8 2 -24 -19 -54 -29 -43 -30 -44 -55
-28 -23 16 -26 15 -44 -1 -25 -23 -25 -33 2 -62 22 -23 22 -24 2 -43 -11 -11
-88 -49 -171 -84 -144 -60 -153 -63 -180 -49 -15 8 -29 16 -31 18 -2 1 33 23
77 46 74 40 97 59 72 59 -5 0 -50 -20 -100 -45 l-91 -45 -61 -123 c-34 -67
-90 -171 -124 -232 -34 -60 -74 -134 -89 -163 -22 -44 -30 -51 -41 -42 -8 7
-20 10 -26 8 -7 -2 29 -51 80 -108 98 -110 97 -109 105 -214 6 -78 7 -78 -58
22 -26 41 -50 72 -52 69 -9 -8 32 -80 121 -216 87 -131 96 -161 50 -161 -12 0
-29 8 -37 18 -29 33 -136 227 -247 449 l-111 223 0 97 c0 193 52 590 116 890
49 230 44 223 89 109 39 -98 54 -117 56 -68 1 43 11 58 59 92 25 18 79 66 120
106 l76 74 32 -66 c18 -37 32 -67 30 -68 -2 -2 -52 -20 -112 -40 -89 -31 -113
-36 -132 -27 -13 6 -24 8 -24 5 0 -3 47 -64 105 -134 58 -71 105 -132 105
-135 0 -2 -26 -41 -59 -84 -125 -168 -301 -488 -380 -689 l-21 -53 21 -97 c20
-93 36 -138 45 -129 2 2 -5 48 -16 102 -11 53 -20 107 -20 118 0 26 123 295
196 429 72 131 94 166 185 289 44 58 79 110 79 114 0 5 -37 54 -82 109 -45 56
-85 106 -90 113 -6 8 24 22 104 48 62 21 116 41 121 44 4 4 -8 42 -28 84 -19
41 -35 81 -35 87 0 6 12 27 27 47 l27 36 77 -6 c42 -3 93 -13 112 -22z m-665
-52 c12 -38 22 -73 22 -80 0 -6 -39 -48 -87 -92 -67 -62 -114 -94 -195 -136
-58 -30 -113 -55 -121 -55 -7 0 -21 8 -31 18 -15 18 -12 22 76 84 113 78 123
85 114 70 -4 -7 -2 -12 3 -12 6 0 50 61 98 135 49 74 91 135 94 135 3 0 15
-30 27 -67z m-650 -226 c29 -94 29 -98 11 -108 -15 -7 -19 -21 -19 -60 0 -31
-10 -76 -26 -116 -14 -35 -24 -74 -21 -85 3 -11 -6 -46 -20 -77 -56 -125 -103
-244 -154 -388 l-53 -152 -25 37 c-63 92 -141 228 -141 246 0 10 34 105 75
211 73 191 116 292 251 596 l69 157 11 -82 c6 -44 25 -125 42 -179z m8 200
c-7 -34 2 -53 60 -127 33 -43 43 -65 46 -100 2 -41 0 -45 -25 -54 -14 -5 -29
-7 -32 -4 -5 5 -51 149 -66 208 -5 19 -9 57 -9 84 0 43 2 47 16 35 11 -9 14
-22 10 -42z m-1031 -164 c4 -16 13 -23 28 -23 41 0 170 38 267 79 52 21 97 38
98 36 4 -4 -78 -284 -109 -373 -17 -48 -19 -71 -13 -146 11 -154 9 -174 -32
-261 -20 -44 -38 -87 -38 -95 -2 -15 -45 -87 -87 -145 -34 -46 -84 -81 -160
-111 -58 -23 -73 -25 -95 -16 -33 16 -51 60 -65 168 -6 49 -27 147 -46 217
-44 161 -42 190 26 324 l50 98 0 -55 c0 -30 -4 -111 -9 -180 -5 -68 -7 -127
-4 -129 12 -12 18 24 30 186 22 299 38 381 97 507 l52 109 3 -84 c1 -46 4 -94
7 -106z m846 12 c-102 -224 -158 -358 -241 -575 -42 -113 -84 -221 -93 -242
-11 -27 -35 -50 -94 -89 -60 -40 -72 -45 -52 -23 41 45 46 61 53 184 12 210
69 837 77 845 10 8 275 23 283 15 5 -5 28 4 55 20 39 25 48 27 60 15 12 -12 5
-34 -48 -150z m-416 -85 c-6 -66 -52 -307 -64 -335 -7 -18 -11 -15 -31 25 -12
25 -26 47 -31 50 -4 3 16 81 46 173 30 92 58 184 62 205 l7 37 8 -50 c5 -27 6
-75 3 -105z m1235 22 c-73 -330 -124 -687 -136 -957 l-5 -120 39 -83 40 -84
-20 -71 c-11 -40 -23 -76 -27 -80 -4 -4 -52 55 -106 133 -54 77 -102 140 -107
140 -15 0 58 -118 165 -264 47 -63 52 -67 64 -50 14 19 15 18 29 0 15 -22 17
-46 8 -95 -8 -38 -16 -39 -34 -6 -14 25 -30 33 -30 15 0 -6 23 -44 50 -85 28
-41 50 -76 50 -79 0 -3 -13 -3 -29 0 -27 6 -33 1 -63 -42 -18 -26 -47 -62 -64
-79 -18 -16 -39 -42 -49 -57 -17 -27 -16 -28 7 -39 23 -10 58 -1 109 28 3 2 4
-10 1 -26 -5 -37 -44 -49 -98 -29 -33 12 -37 11 -54 -9 -17 -22 -18 -22 -35
-3 -23 26 -50 25 -68 -1 -14 -20 -18 -18 -174 70 l-159 90 7 68 c4 37 10 126
14 197 l7 129 204 -204 c112 -112 204 -197 204 -189 0 8 -81 96 -180 195 -99
99 -191 196 -204 215 -23 34 -24 39 -15 129 5 52 10 95 12 97 2 2 38 -52 79
-119 60 -96 222 -333 244 -356 2 -2 6 -2 9 0 2 3 -33 61 -78 130 -46 68 -121
186 -166 261 l-83 137 46 193 c70 297 120 471 143 504 11 16 26 46 32 66 7 20
30 64 53 97 33 50 38 63 28 76 -10 12 -7 16 16 25 112 43 193 94 264 165 41
41 76 71 78 67 1 -5 -6 -50 -18 -100z m-426 -119 c28 -20 55 -40 59 -44 5 -4
-10 -37 -32 -75 -23 -37 -41 -71 -41 -75 0 -3 -7 -23 -15 -43 l-15 -36 -38 23
c-72 44 -90 49 -123 31 -17 -8 -34 -13 -37 -9 -3 3 2 27 13 53 10 26 21 77 23
114 l4 68 41 10 c23 6 47 13 52 15 30 11 63 1 109 -32z m1447 -154 c4 -8 14
-34 23 -59 9 -25 45 -81 81 -125 35 -44 64 -84 65 -89 0 -17 -152 -252 -171
-264 -18 -12 -344 -143 -386 -156 -18 -6 -28 4 -72 77 -28 46 -73 105 -101
131 -44 41 -48 49 -37 66 6 11 16 20 21 20 4 0 3 -7 -4 -15 -21 -25 1 -19 182
55 166 67 214 96 231 141 4 11 8 10 23 -4 18 -17 18 -19 1 -28 -14 -8 -16 -14
-6 -25 14 -17 41 -18 57 -2 19 19 15 34 -18 71 l-29 34 56 81 c31 45 53 85 49
90 -4 4 -16 -4 -27 -17 -21 -26 -25 -26 -31 4 -2 16 4 21 32 26 44 8 52 6 61
-12z m-2336 -175 c-6 -16 -9 -12 -17 19 -11 40 -24 48 -31 20 -3 -10 -5 9 -5
42 l-1 60 31 -61 c21 -43 29 -67 23 -80z m725 86 c0 -6 -14 -38 -31 -71 -17
-34 -28 -63 -26 -65 6 -6 77 99 77 114 0 15 15 15 41 2 29 -16 25 -51 -36
-284 -106 -411 -113 -459 -141 -970 l-7 -120 -103 -153 c-56 -84 -119 -173
-138 -199 l-36 -46 -10 26 c-5 14 -39 120 -76 235 l-66 210 70 208 c129 380
322 907 368 1005 43 89 66 115 102 117 6 1 12 -4 12 -9z m-751 -175 c0 -48 -3
-64 -9 -50 -5 11 -9 52 -9 90 0 48 3 64 9 50 5 -11 9 -51 9 -90z m-18 -79 c5
3 9 -1 9 -8 0 -8 -23 -36 -52 -63 -29 -29 -45 -39 -36 -25 8 14 25 45 38 70
13 25 25 39 27 32 3 -6 9 -10 14 -6z m2610 -121 c35 -49 103 -132 152 -183
l88 -93 -17 -27 c-123 -190 -497 -685 -508 -671 -1 2 -13 33 -25 69 -38 107
-88 207 -108 218 -11 6 -43 14 -72 18 l-52 7 19 21 c11 11 41 58 67 104 43 75
54 87 121 130 91 58 101 88 12 38 l-62 -35 -13 37 c-10 31 -10 39 2 52 13 13
15 12 15 -3 0 -23 10 -22 120 12 52 16 128 39 168 51 39 11 72 25 72 29 0 9
-118 -16 -235 -50 -38 -11 -78 -23 -87 -25 -12 -3 -18 0 -18 9 0 8 -23 32 -51
52 l-51 37 98 44 c54 24 104 44 111 44 24 0 78 59 128 139 28 44 53 77 56 73
3 -4 34 -47 70 -97z m-2191 -269 c0 -8 -29 -93 -64 -188 -80 -217 -77 -208
-86 -208 -4 0 -29 29 -56 65 -27 35 -55 65 -62 65 -16 0 -13 -5 57 -98 l55
-73 -32 -104 c-36 -117 -38 -149 -17 -219 8 -27 13 -51 11 -53 -11 -11 -289
149 -315 181 -10 12 -3 32 41 110 29 53 55 96 58 96 3 0 22 -34 43 -75 22 -41
43 -75 48 -75 14 0 14 -1 -56 146 -36 75 -65 143 -65 149 0 13 90 118 96 112
2 -2 0 -27 -5 -56 -8 -50 -6 -57 26 -115 44 -79 59 -99 72 -95 6 2 -10 39 -35
82 l-45 77 21 165 c11 90 20 181 20 202 0 41 19 69 64 97 15 10 35 36 44 57
l15 39 84 -135 c45 -74 83 -141 83 -149z m1396 192 c23 -24 58 -72 79 -108 62
-106 54 -101 143 -74 82 26 99 25 127 -6 17 -19 17 -21 1 -39 -13 -14 -14 -24
-6 -45 18 -48 11 -76 -41 -164 -78 -133 -77 -132 -177 -132 -87 0 -122 -13
-122 -46 0 -8 -30 -45 -67 -84 -49 -53 -68 -80 -72 -108 l-6 -37 -21 35 c-17
27 -23 58 -27 139 -7 114 -8 116 -93 217 l-55 64 123 234 123 234 25 -18 c14
-10 43 -38 66 -62z m-1711 -90 c-3 -13 -9 -67 -14 -120 l-8 -98 -68 -75 -67
-76 21 -58 c11 -32 21 -63 21 -69 0 -6 -23 -50 -50 -96 l-50 -85 -42 2 -42 2
-62 -100 c-78 -126 -80 -132 -45 -163 l29 -24 -60 -94 c-52 -81 -59 -98 -54
-126 12 -58 8 -68 -49 -136 -56 -66 -109 -101 -151 -102 -46 0 -281 63 -322
86 -69 41 -181 142 -188 171 -9 35 20 92 97 189 83 105 515 534 659 655 138
115 429 339 441 339 5 0 7 -10 4 -22z m1344 -627 l120 -223 -57 7 c-83 10
-122 32 -164 95 l-37 55 16 58 17 58 -28 52 c-26 48 -27 55 -16 96 6 24 15 40
20 35 5 -5 63 -110 129 -233z m670 95 l65 -11 52 -115 c29 -63 62 -155 75
-204 15 -62 30 -98 50 -121 16 -18 29 -37 29 -41 0 -5 -48 -22 -108 -37 -144
-39 -189 -55 -196 -72 -8 -21 -30 -19 -50 4 -13 15 -15 26 -8 52 l9 34 12 -37
c13 -41 31 -51 31 -19 0 26 -68 183 -103 238 -26 41 -53 60 -172 122 -41 21
-61 27 -64 19 -2 -7 0 -13 5 -15 5 -2 24 -12 43 -24 l34 -21 -36 -36 c-20 -20
-39 -33 -43 -29 -4 4 -11 35 -16 68 l-8 62 63 66 c35 37 69 81 76 99 l13 32
92 -1 c50 -1 120 -6 155 -13z m-2269 -196 c34 -31 207 -139 298 -184 28 -14
52 -31 52 -37 0 -6 -16 -47 -36 -92 -20 -45 -40 -92 -45 -104 -8 -21 -10 -21
-103 30 -82 45 -210 129 -295 196 l-24 18 38 68 37 67 22 -27 c19 -24 25 -26
44 -16 43 23 18 91 -28 76 -19 -6 -20 -5 -8 14 7 12 14 21 14 21 1 0 16 -13
34 -30z m1526 -104 c32 -13 104 -31 159 -40 55 -10 107 -20 115 -23 14 -5
-122 -53 -195 -69 -25 -6 -28 -4 -17 8 23 29 -1 27 -44 -3 -24 -17 -60 -37
-79 -45 -33 -13 -35 -13 -35 4 0 26 18 45 72 76 26 14 50 31 53 37 12 19 -4
22 -29 5 -14 -9 -34 -16 -46 -16 -11 0 -42 -16 -69 -35 -49 -35 -67 -44 -56
-25 9 15 -2 12 -33 -7 -20 -13 -16 -5 18 32 25 28 56 67 70 87 14 21 32 38 41
38 8 0 42 -11 75 -24z m-556 -166 c91 -50 171 -99 178 -108 6 -9 12 -33 12
-55 0 -32 -3 -37 -17 -33 -10 2 -88 24 -173 46 -85 23 -172 47 -192 52 -20 6
-44 21 -53 34 -15 24 -14 28 27 94 23 37 45 67 48 65 3 -1 79 -44 170 -95z
m-961 -50 c51 -34 126 -80 167 -102 51 -27 74 -45 74 -58 0 -25 50 -61 132
-95 63 -26 67 -30 61 -54 -11 -47 -44 -104 -107 -181 -33 -41 -92 -117 -131
-168 -38 -51 -72 -92 -75 -92 -3 0 -36 58 -73 128 -44 84 -90 154 -132 201
-51 59 -70 89 -94 157 -52 143 -52 149 10 248 30 48 59 84 65 82 5 -2 52 -32
103 -66z m738 -61 c42 -11 43 -12 21 -23 -28 -14 -37 -63 -14 -72 9 -3 27 -3
41 0 28 7 34 42 13 65 -11 11 -9 13 12 7 234 -62 340 -93 345 -98 7 -6 37
-228 33 -243 -6 -27 -668 155 -668 184 0 3 10 11 21 16 12 6 27 26 33 45 18
50 88 141 105 135 7 -3 33 -10 58 -16z m1701 -4 l12 -25 -93 1 c-50 0 -87 3
-80 5 13 6 135 42 144 43 3 1 11 -10 17 -24z m-1960 -147 c27 -23 1 -17 -72
16 -42 19 -76 37 -76 40 0 7 132 -43 148 -56z m281 -147 c70 -22 144 -43 164
-46 20 -4 37 -10 37 -13 0 -3 -44 -47 -97 -98 -54 -51 -93 -93 -86 -94 6 0 58
40 115 90 58 50 112 89 123 89 11 0 56 -8 100 -18 l80 -17 14 -74 14 -74 -64
-59 c-35 -33 -78 -65 -95 -73 -17 -7 -118 -29 -225 -48 -107 -19 -224 -42
-261 -49 -38 -8 -68 -12 -68 -9 0 3 20 39 44 81 45 79 116 217 116 226 0 3 -7
5 -15 5 -8 0 -15 3 -15 8 0 4 -7 49 -15 100 -14 84 -14 112 1 112 3 0 62 -18
133 -39z m-1409 -215 c0 -113 10 -106 -155 -106 l-143 0 -26 31 c-14 17 -26
34 -26 38 0 7 235 96 275 105 11 2 32 4 48 5 l27 1 0 -74z m290 -16 l0 -90
-120 0 -120 0 0 83 c0 46 3 87 7 90 3 4 57 7 120 7 l113 0 0 -90z m930 0 l0
-90 -106 0 -107 0 7 40 c3 22 11 63 17 90 l11 50 89 0 89 0 0 -90z m-694 -150
l54 0 0 -100 0 -100 -125 0 -125 0 0 69 c0 68 1 69 41 106 34 31 46 36 71 31
17 -3 55 -6 84 -6z m221 -20 c9 -16 21 -30 24 -30 4 0 17 14 29 30 17 23 29
30 56 30 l34 0 0 -105 0 -105 -125 0 -125 0 0 99 c0 107 1 109 57 110 25 1 36
-5 50 -29z m443 26 c0 -2 -19 -36 -41 -76 -23 -39 -39 -74 -35 -77 3 -4 27 -2
52 4 49 11 60 4 52 -34 -3 -16 -17 -18 -136 -21 -92 -2 -132 1 -132 9 0 10 36
161 45 187 3 8 32 12 100 12 52 0 95 -2 95 -4z m620 -98 l0 -103 -112 2 -113
2 0 62 0 63 73 17 c40 9 80 23 90 31 16 15 38 25 55 27 4 1 7 -45 7 -101z
m268 86 c21 -4 22 -9 22 -94 0 -50 -3 -90 -7 -90 -7 0 -113 181 -113 192 0 5
64 -1 98 -8z m-1798 -39 c0 -39 -6 -52 -42 -93 -58 -63 -54 -62 -130 -62 l-68
0 0 100 0 100 120 0 120 0 0 -45z m1719 -44 c28 -48 51 -93 51 -100 0 -7 -30
-11 -90 -11 l-90 0 0 100 0 100 39 0 c39 0 40 -1 90 -89z m362 79 c16 -9 19
-22 19 -95 l0 -85 -110 0 -110 0 0 73 0 72 38 13 c85 30 135 37 163 22z
m-2241 -275 c-19 -23 4 -18 25 5 14 15 31 20 72 20 l53 0 0 -54 c0 -29 -3 -68
-6 -85 l-6 -31 -109 0 c-67 0 -110 4 -115 11 -3 6 8 25 25 43 l31 32 -30 26
c-45 39 -39 56 18 60 50 3 61 -4 42 -27z m460 -61 l0 -84 -130 0 -130 0 0 83
c0 46 2 86 4 88 2 2 61 3 130 1 l126 -3 0 -85z m195 -4 c-70 -83 -80 -91 -109
-88 l-31 3 -1 85 0 85 105 5 c58 3 108 4 110 3 2 -1 -32 -43 -74 -93z m745 5
l0 -95 -60 0 -60 0 0 88 c0 49 3 92 7 95 3 4 30 7 60 7 l53 0 0 -95z m298 -2
l3 -93 -121 0 -120 0 0 88 c0 49 3 92 7 96 4 3 57 5 117 4 l111 -3 3 -92z
m282 71 c6 -14 10 -57 10 -95 l0 -69 -120 0 -120 0 0 95 0 95 110 0 c109 0
111 0 120 -26z m288 -70 l3 -92 -78 -4 c-62 -4 -81 -2 -94 11 -23 23 -59 115
-59 151 l0 31 113 -3 112 -3 3 -91z m-1498 -4 l0 -90 -75 0 c-41 0 -75 3 -75
6 0 8 139 174 146 174 2 0 4 -40 4 -90z m320 0 l0 -90 -130 0 -130 0 0 90 0
90 130 0 130 0 0 -90z m170 46 c0 -24 -3 -64 -6 -90 l-7 -46 -43 0 -44 0 0 90
0 90 50 0 50 0 0 -44z m-170 -301 l0 -104 -46 -21 c-35 -15 -68 -20 -130 -20
l-84 0 0 125 0 125 130 0 130 0 0 -105z m892 54 l177 -24 20 -110 c39 -209
100 -580 106 -645 9 -90 72 -470 91 -552 l16 -68 -28 -34 c-16 -19 -32 -35
-36 -35 -4 -1 -10 15 -14 34 -9 51 -28 44 -21 -8 l6 -43 -97 -21 c-177 -39
-161 -39 -176 -1 -53 127 -488 1416 -483 1431 2 8 160 82 207 97 14 5 32 7 40
5 8 -2 95 -14 192 -26z m-896 -221 c-3 -18 -15 -121 -26 -228 -12 -107 -30
-269 -40 -360 -19 -152 -80 -759 -80 -787 0 -7 -6 -13 -14 -13 -11 0 -13 10
-9 42 7 51 -12 45 -22 -8 -3 -20 -17 -47 -30 -60 -21 -21 -33 -24 -98 -24 -84
0 -78 -5 -92 93 -4 26 -11 47 -16 47 -14 0 -10 -64 6 -103 l14 -35 -33 -6
c-44 -8 -56 -3 -85 40 -22 32 -23 39 -13 82 11 49 4 241 -18 492 -9 104 -36
589 -42 765 l-3 70 261 -3 c215 -3 266 -1 295 11 48 22 51 21 45 -15z"/>
<path d="M4550 6370 c0 -11 0 -23 -1 -27 0 -4 4 -9 10 -11 6 -2 11 10 11 27 0
17 -4 31 -10 31 -5 0 -10 -9 -10 -20z"/>
<path d="M4371 6268 c-19 -52 -31 -157 -22 -197 11 -50 54 -125 84 -146 33
-23 32 -2 -2 34 -47 50 -65 109 -58 194 9 122 6 120 166 87 137 -28 171 -43
171 -78 0 -74 -59 -191 -111 -217 -15 -8 -44 -15 -64 -15 -25 0 -35 -4 -32
-12 8 -24 87 -12 126 19 66 52 134 236 99 268 -17 16 -135 51 -218 65 -36 6
-80 13 -98 16 -27 4 -34 1 -41 -18z"/>
<path d="M3406 6169 c-57 -50 -121 -199 -86 -199 6 0 10 6 10 13 0 26 53 124
91 170 45 53 37 62 -15 16z"/>
<path d="M4324 4679 c15 -85 247 -626 276 -644 11 -7 -11 52 -60 165 -15 36
-69 164 -120 285 -50 120 -93 222 -97 225 -3 3 -3 -11 1 -31z"/>
<path d="M3120 3495 c-15 -18 -10 -45 12 -59 14 -8 22 -6 39 10 17 18 19 25
10 43 -13 24 -43 28 -61 6z"/>
<path d="M3401 3463 c-26 -18 -27 -35 -3 -56 36 -33 80 -9 68 37 -7 29 -38 39
-65 19z"/>
<path d="M3342 3354 c-29 -20 -28 -52 3 -66 30 -14 55 3 55 38 0 33 -31 47
-58 28z"/>
<path d="M4292 3128 c-27 -27 -6 -68 35 -68 16 0 24 7 29 25 11 43 -34 73 -64
43z"/>
<path d="M3952 3088 c-27 -27 -6 -68 35 -68 31 0 52 42 33 65 -15 18 -51 20
-68 3z"/>
<path d="M4262 2988 c-30 -30 0 -75 42 -64 29 7 40 31 26 57 -12 21 -50 25
-68 7z"/>
<path d="M4740 620 c0 -16 54 -120 62 -120 14 0 9 17 -19 75 -25 50 -43 70
-43 45z"/>
<path d="M5107 457 c-7 -20 -211 -77 -274 -77 -29 0 -53 -2 -53 -3 0 -4 33
-103 45 -135 3 -9 10 -10 22 -3 10 5 49 14 86 21 38 6 102 21 143 34 41 13 74
20 74 15 0 -5 5 -9 10 -9 15 0 12 27 -12 94 -24 70 -33 83 -41 63z"/>
<path d="M3280 200 l0 -86 58 -12 c74 -15 190 -15 264 0 l58 12 0 78 0 78 -25
-16 c-22 -14 -47 -16 -176 -12 -132 4 -151 7 -164 24 -13 17 -14 10 -15 -66z"/>
</g>
</svg>
