<?xml version="1.0" standalone="no"?>
<!DOCTYPE svg PUBLIC "-//W3C//DTD SVG 20010904//EN"
 "http://www.w3.org/TR/2001/REC-SVG-20010904/DTD/svg10.dtd">
<svg version="1.0" xmlns="http://www.w3.org/2000/svg"
 width="1024.000000pt" height="1024.000000pt" viewBox="0 0 1024.000000 1024.000000"
 preserveAspectRatio="xMidYMid meet">
<metadata>
Created by potrace 1.14, written by Peter Selinger 2001-2017
</metadata>
<g transform="translate(0.000000,1024.000000) scale(0.100000,-0.100000)"
fill="#000000" stroke="none">
<path d="M2094 10044 c4 -16 36 -112 72 -213 35 -102 62 -186 60 -188 -1 -2
-22 25 -46 59 -49 71 -205 236 -264 279 -36 26 -84 38 -98 23 -4 -3 7 -45 24
-92 17 -48 98 -285 180 -527 82 -242 181 -532 220 -645 163 -478 157 -458 142
-464 -21 -8 -17 -64 11 -147 49 -142 465 -1739 465 -1783 0 -3 -10 -6 -22 -8
-41 -6 -32 -41 47 -184 42 -76 91 -173 110 -216 50 -114 71 -143 221 -305 304
-329 535 -645 668 -914 73 -146 105 -242 145 -424 15 -71 31 -138 36 -147 6
-16 0 -18 -69 -18 -82 0 -142 18 -153 46 -10 26 24 44 84 44 29 0 53 4 53 8 0
9 -56 35 -100 48 -14 4 -41 19 -60 34 -77 60 -200 99 -275 87 -32 -5 -34 -4
-25 14 14 25 46 24 145 -1 84 -22 155 -26 155 -10 0 6 -10 10 -22 10 -13 0
-33 3 -46 6 l-23 7 21 22 21 22 -49 -5 c-47 -4 -53 -1 -160 69 -105 70 -129
97 -102 114 5 3 10 13 10 22 0 14 -4 13 -23 -5 -34 -32 -82 -28 -196 18 -102
41 -140 47 -186 30 -39 -15 -28 8 16 32 28 16 48 19 119 15 l85 -4 -55 26
c-40 18 -76 26 -132 29 -77 4 -89 1 -200 -56 -5 -2 -8 8 -8 22 0 35 31 64 77
71 59 10 60 12 21 29 -47 20 -118 21 -164 1 -25 -10 -53 -13 -94 -8 -59 6 -80
0 -144 -42 l-29 -19 13 23 c28 53 93 111 139 125 l46 15 -53 0 c-75 1 -115
-21 -178 -100 -47 -59 -78 -88 -121 -113 -8 -4 -17 13 -29 54 -9 33 -19 60
-23 60 -3 0 -14 -26 -23 -59 -18 -59 -18 -59 -63 -66 -25 -3 -71 -15 -102 -26
l-56 -19 7 85 c4 55 3 85 -4 85 -5 0 -10 -15 -10 -34 0 -66 -40 -130 -102
-162 l-28 -14 -39 77 c-39 78 -126 203 -141 203 -13 0 -20 -41 -21 -135 0 -90
0 -90 -16 -57 -22 43 -35 41 -28 -6 8 -50 -16 -86 -90 -137 -43 -29 -62 -49
-69 -73 -12 -44 5 -100 43 -136 l30 -29 -26 -51 c-40 -80 -82 -133 -140 -177
-71 -53 -80 -74 -63 -144 l13 -56 -91 -187 c-50 -103 -99 -208 -110 -233 -11
-25 -42 -71 -70 -102 -27 -30 -53 -64 -57 -76 -4 -13 5 -46 24 -90 20 -44 31
-86 31 -115 0 -57 14 -88 50 -110 45 -26 251 -86 297 -86 37 0 46 5 82 46 46
53 81 119 81 156 0 22 16 35 118 96 97 58 129 72 185 80 37 6 80 17 95 25 109
59 129 67 167 67 65 0 136 26 189 70 26 22 58 40 69 40 37 0 150 -49 214 -93
34 -23 159 -138 277 -255 213 -211 216 -214 266 -315 41 -82 54 -122 66 -197
25 -155 60 -249 126 -333 l30 -37 -27 -33 c-58 -70 -145 -122 -265 -157 -194
-56 -304 -94 -321 -111 -10 -10 -21 -31 -24 -46 -3 -16 -17 -64 -30 -109 -14
-44 -25 -90 -25 -101 0 -11 34 -69 76 -127 56 -78 96 -151 149 -271 41 -90 84
-178 96 -194 33 -44 86 -76 169 -101 84 -25 116 -52 125 -106 4 -22 21 -61 39
-89 28 -45 31 -59 37 -160 7 -114 5 -109 95 -313 28 -64 75 -55 139 28 62 80
105 174 105 228 0 56 -20 97 -81 168 -28 31 -48 58 -46 60 2 2 27 -5 56 -16
67 -26 169 -40 200 -29 21 8 22 13 16 47 -18 98 -125 239 -218 287 l-54 29 14
55 c27 105 117 275 190 354 36 39 72 76 80 80 8 5 60 20 116 33 208 51 368
116 498 205 58 39 111 67 260 138 89 41 104 58 111 121 3 23 18 30 183 87 121
41 243 93 372 157 106 53 195 96 198 96 3 0 5 -14 5 -31 0 -17 7 -58 16 -92
40 -156 144 -290 331 -429 56 -41 77 -72 88 -129 12 -67 -10 -113 -142 -286
-68 -91 -132 -181 -140 -201 -11 -28 -13 -55 -8 -118 6 -71 4 -88 -14 -127
-28 -60 -27 -86 9 -230 51 -202 75 -247 136 -247 36 0 73 36 119 114 27 46 85
205 85 233 0 8 -14 56 -31 107 -37 109 -38 132 -9 153 29 21 50 72 50 124 0
90 146 305 332 491 76 76 140 148 144 163 8 34 -12 63 -82 116 -49 37 -61 54
-85 113 -15 37 -37 78 -48 90 -11 11 -32 48 -48 81 -25 55 -28 70 -28 175 0
115 14 180 39 180 19 0 179 -145 214 -194 92 -127 239 -242 422 -327 176 -82
171 -78 219 -168 24 -45 70 -109 102 -143 91 -97 143 -207 173 -371 41 -219
134 -391 285 -527 72 -66 105 -81 127 -58 16 15 44 149 44 207 0 100 -57 203
-155 281 -72 58 -91 92 -80 153 3 23 9 57 12 74 7 46 -1 72 -42 132 -39 57
-103 237 -130 366 -10 44 -19 136 -22 205 -2 69 -6 135 -9 148 -6 31 -59 52
-129 52 -101 0 -161 47 -219 170 -49 102 -63 182 -70 395 -20 527 -107 884
-279 1140 -56 83 -178 207 -259 262 -78 53 -86 76 -38 116 61 52 239 61 350
18 36 -13 88 -48 145 -98 116 -99 252 -187 334 -215 55 -19 87 -23 196 -23
125 0 133 1 195 31 36 17 82 45 101 62 72 63 117 196 104 305 -4 34 -1 73 9
112 18 68 22 327 6 385 -17 61 -66 127 -122 164 -29 19 -107 57 -173 85 -120
49 -215 97 -215 109 0 3 30 33 66 66 49 46 66 68 67 90 2 23 -3 31 -21 35 -21
6 -19 9 29 46 141 107 161 113 279 75 81 -26 159 -26 210 0 22 11 40 22 40 25
0 2 -30 1 -67 -2 -48 -4 -78 -1 -103 9 l-35 15 45 12 c98 25 130 44 227 130
159 141 171 167 108 227 -39 36 -76 47 -145 42 l-45 -3 58 -27 c57 -27 58 -28
55 -65 -3 -35 -7 -40 -61 -67 -46 -23 -77 -30 -139 -34 -72 -4 -172 9 -205 27
-8 4 32 34 99 76 67 41 149 104 203 155 50 47 147 127 215 179 198 149 250
205 250 270 0 29 -2 30 -33 25 -17 -4 -97 -26 -176 -50 -79 -25 -146 -42 -148
-40 -3 2 49 36 114 74 190 113 287 187 456 352 205 199 269 282 301 390 8 27
12 52 8 54 -4 3 -39 -16 -77 -41 -85 -55 -265 -146 -265 -135 0 5 38 44 85 87
87 79 314 322 423 452 69 83 107 168 92 208 -5 14 -16 25 -25 25 -8 0 -58 -23
-111 -50 -53 -28 -99 -48 -101 -46 -3 2 50 61 116 131 193 201 423 491 454
572 23 59 9 98 -30 88 -15 -3 -42 -18 -59 -33 -18 -15 -90 -76 -161 -136 -161
-136 -421 -332 -623 -468 -167 -113 -413 -268 -424 -268 -4 0 37 37 91 82 214
179 370 323 633 588 402 404 551 578 635 744 40 79 44 112 15 121 -28 9 -43
-3 -195 -145 -235 -221 -533 -471 -930 -778 -248 -192 -233 -181 -219 -162 6
8 37 49 71 90 147 184 298 422 437 692 107 206 229 467 256 549 27 79 37 159
21 159 -22 0 -61 -52 -216 -285 -85 -126 -204 -293 -265 -370 -382 -476 -881
-980 -1310 -1323 -145 -115 -454 -332 -475 -332 -5 0 11 14 36 32 211 151 408
304 549 427 523 458 992 1019 1230 1475 78 148 150 326 150 370 0 20 -2 36 -4
36 -1 0 -17 -5 -34 -11 -24 -8 -43 -31 -83 -97 -290 -487 -911 -1130 -1724
-1786 -88 -71 -167 -134 -175 -140 -8 -6 55 61 140 150 310 320 557 644 757
994 178 309 307 631 314 780 4 70 3 75 -17 78 -18 3 -35 -20 -104 -140 -316
-547 -853 -1212 -1559 -1930 -173 -177 -227 -226 -237 -217 -7 6 -19 7 -28 2
-32 -18 -371 -350 -564 -552 -415 -435 -759 -843 -941 -1114 -29 -43 -54 -77
-56 -75 -2 2 5 46 16 98 30 152 22 271 -20 299 -20 12 -21 23 -21 160 -1 242
-23 405 -57 418 -11 4 -24 -3 -38 -21 l-22 -28 -6 159 c-6 161 -16 218 -56
308 -14 30 -26 85 -31 138 -13 138 -42 209 -134 334 -19 26 -24 48 -29 135
-11 185 -71 371 -169 519 -56 84 -83 103 -105 73 -17 -23 -16 -82 2 -219 16
-118 19 -284 5 -230 -4 17 -16 80 -25 140 -30 198 -126 436 -230 568 -43 54
-83 75 -86 45 -1 -7 -1 -276 0 -598 0 -322 -2 -623 -7 -670 l-7 -85 -13 115
c-30 282 -53 511 -72 720 -33 366 -73 548 -155 715 -45 90 -117 186 -130 173
-4 -3 -15 -43 -25 -88 -10 -45 -20 -83 -22 -86 -3 -2 -10 25 -16 60 -37 198
-126 407 -216 501 -28 30 -57 55 -64 55 -9 0 -12 -41 -12 -157 0 -97 -4 -153
-9 -147 -5 5 -28 56 -50 114 -23 58 -64 148 -93 200 -42 75 -58 96 -77 98 -44
7 -51 -18 -51 -187 0 -98 -3 -152 -10 -145 -5 5 -21 40 -35 78 -111 294 -286
495 -456 522 l-42 7 7 -29z m109 -29 c148 -69 288 -270 387 -550 30 -88 31
-91 24 -220 -11 -223 9 -354 170 -1100 42 -192 80 -367 85 -387 11 -48 3 -48
-31 1 -15 21 -43 46 -62 55 -39 18 -35 8 -100 241 -94 337 -107 388 -181 675
-201 790 -211 826 -295 1082 -38 117 -70 216 -70 221 0 12 19 8 73 -18z m6737
-47 c-13 -58 -196 -419 -277 -548 -268 -428 -712 -921 -1178 -1311 -122 -101
-427 -331 -605 -455 -289 -202 -706 -471 -716 -461 -3 3 13 48 35 100 23 53
41 107 41 120 0 38 34 72 148 149 644 431 1553 1210 1989 1704 168 190 359
442 466 614 65 105 86 132 97 125 4 -3 5 -20 0 -37z m-6967 -67 c80 -76 177
-193 224 -270 52 -86 77 -165 177 -551 159 -613 264 -998 317 -1157 56 -170
63 -237 10 -100 -42 108 -105 217 -187 324 -34 44 -67 89 -72 100 -10 19 -16
37 -292 853 -98 289 -203 599 -234 689 -31 90 -56 170 -56 176 0 26 44 1 113
-64z m6167 25 c0 -173 -286 -753 -558 -1131 -329 -458 -684 -824 -1107 -1141
-170 -128 -210 -154 -238 -154 -13 0 -43 -14 -65 -30 -23 -17 -42 -27 -42 -24
0 3 21 47 47 97 45 87 64 109 338 392 357 369 453 476 836 936 409 491 512
632 701 964 39 69 75 125 80 125 4 0 8 -15 8 -34z m1095 -37 c-36 -108 -212
-480 -325 -684 -162 -296 -345 -550 -530 -735 -76 -76 -154 -137 -390 -301
-162 -113 -504 -352 -760 -531 -256 -179 -476 -329 -490 -333 -51 -15 -337
-128 -402 -159 -38 -18 -68 -31 -68 -30 0 2 9 19 21 38 16 27 18 39 10 54 -8
15 -7 23 2 30 19 15 395 248 592 367 637 383 1086 775 1714 1493 218 250 280
330 451 587 161 241 180 268 188 261 2 -3 -4 -28 -13 -57z m-6530 -141 c64
-75 158 -318 194 -497 11 -53 25 -155 31 -226 22 -247 69 -522 220 -1292 22
-111 40 -206 40 -212 0 -6 -13 -11 -28 -11 -25 0 -30 6 -46 50 -10 27 -35 69
-56 92 -32 36 -41 41 -57 32 -15 -9 -19 -28 -23 -105 l-5 -94 -29 90 c-33 106
-96 376 -199 860 -108 503 -102 452 -99 900 2 383 5 445 22 445 4 0 20 -14 35
-32z m376 -303 c27 -56 61 -147 76 -205 28 -105 28 -106 25 -395 -5 -470 20
-659 163 -1219 45 -178 81 -364 71 -373 -3 -3 -19 24 -36 61 -40 84 -55 99
-90 91 -25 -5 -29 -2 -48 42 -11 26 -27 75 -36 108 -30 121 -224 1212 -251
1413 -22 171 -39 496 -30 597 l7 90 50 -55 c29 -32 70 -97 99 -155z m6739 111
c0 -17 -136 -225 -204 -310 -68 -88 -481 -511 -714 -733 -389 -369 -622 -545
-987 -745 -369 -203 -697 -400 -1013 -611 l-170 -113 -147 -33 c-81 -18 -149
-31 -151 -29 -2 3 30 26 71 52 120 76 187 130 229 185 54 72 98 104 686 511
819 567 980 681 1203 854 115 88 286 221 380 294 223 172 422 342 627 535 91
86 171 156 178 156 6 1 12 -5 12 -13z m-6507 -378 c80 -106 158 -337 192 -566
8 -54 21 -198 30 -322 19 -268 36 -429 75 -690 43 -289 54 -439 55 -700 0
-276 -12 -331 -38 -175 -16 96 -53 192 -72 188 -5 -1 -17 -4 -26 -8 -24 -9
-79 200 -89 340 -10 142 -12 148 -81 420 -118 462 -152 690 -153 1005 -1 187
2 230 22 330 39 194 43 210 52 210 5 0 20 -15 33 -32z m6422 -238 c12 -20 -29
-85 -146 -232 -187 -234 -271 -332 -389 -459 l-109 -116 -198 -110 c-109 -61
-295 -164 -413 -230 -376 -210 -650 -353 -1240 -648 l-574 -287 -95 -13 c-53
-8 -97 -12 -99 -11 -1 2 37 24 85 50 49 25 129 81 178 122 120 102 108 94 605
391 476 285 650 385 900 518 443 235 863 526 1348 932 68 57 127 103 132 103
5 0 11 -4 15 -10z m-5970 -190 c71 -109 134 -269 170 -431 28 -126 30 -398 6
-794 -36 -580 -70 -874 -110 -952 -30 -61 -41 -62 -41 -5 0 67 -17 154 -34
170 -10 11 -19 11 -34 3 -19 -10 -21 -8 -26 31 -3 24 -8 119 -11 213 -3 93
-10 225 -16 292 -6 83 -6 185 1 311 13 235 13 909 0 1106 -5 82 -7 153 -4 158
9 15 52 -30 99 -102z m283 -222 c44 -47 128 -229 157 -342 33 -131 39 -258 26
-546 -20 -425 -70 -909 -120 -1167 -26 -137 -27 -138 -52 -135 -21 2 -34 -6
-63 -40 l-36 -43 0 64 c0 63 0 63 -26 57 -24 -6 -26 -5 -20 19 4 14 -1 71 -10
127 -15 93 -15 114 0 267 39 398 46 482 66 756 11 160 27 328 35 375 23 127
29 273 15 375 -17 129 -24 265 -13 265 5 0 23 -15 41 -32z m-1578 -360 c110
-128 191 -281 265 -504 62 -187 88 -331 124 -690 7 -65 23 -141 46 -210 46
-141 44 -138 51 -131 3 3 -6 45 -20 94 -36 125 -42 157 -66 348 -11 93 -37
248 -56 344 -37 178 -57 358 -41 368 26 16 136 -175 180 -312 32 -99 51 -186
87 -401 27 -159 28 -165 29 -98 1 39 -8 123 -19 187 -23 131 -50 375 -50 449
0 41 3 49 17 46 10 -2 28 -21 40 -43 55 -96 82 -202 128 -490 19 -120 30 -162
55 -210 34 -64 34 -98 4 -158 -9 -15 -14 -45 -12 -65 l3 -37 13 43 c8 25 18
42 25 40 7 -3 22 -33 34 -69 l22 -64 0 45 c0 25 -8 65 -19 89 -22 49 -25 83
-9 112 10 19 12 20 29 4 10 -9 22 -30 25 -46 11 -51 24 -42 18 12 -5 41 -3 50
6 44 18 -10 41 -68 41 -100 0 -17 4 -24 11 -19 15 9 2 88 -21 134 -9 19 -21
61 -24 92 -7 57 -31 151 -76 300 -19 61 -21 81 -12 90 18 18 26 5 86 -148 73
-187 104 -303 116 -424 8 -84 30 -170 43 -170 2 0 -3 35 -10 78 -11 61 -12 88
-3 131 7 30 16 49 21 44 22 -22 62 -211 63 -300 1 -51 2 -93 2 -93 1 0 13 33
28 74 15 41 41 96 58 122 28 44 31 46 41 28 13 -21 17 -280 5 -329 -4 -16 14
15 41 70 27 55 56 109 64 120 15 20 16 19 26 -8 20 -51 13 -162 -15 -245 -36
-107 -35 -107 -66 -83 l-25 20 -17 -36 c-20 -41 -14 -58 6 -18 13 23 16 25 27
11 22 -26 25 -92 7 -151 -11 -34 -14 -60 -9 -70 7 -12 14 0 27 45 34 111 84
99 73 -17 -5 -51 -4 -64 5 -55 7 7 15 44 20 84 8 79 46 167 98 228 l29 35 1
-60 c0 -43 -7 -76 -25 -115 l-25 -55 32 35 c18 19 54 60 80 90 26 29 50 52 52
49 9 -8 -24 -120 -66 -227 l-41 -104 -11 34 c-6 18 -19 34 -29 36 -29 6 -67
-36 -67 -72 0 -30 1 -30 27 17 25 45 28 47 41 30 10 -12 12 -36 9 -76 -3 -32
-4 -57 -2 -55 2 2 20 32 41 68 37 63 128 170 145 170 20 0 6 -61 -30 -136 -56
-116 -61 -138 -18 -83 78 100 105 63 72 -96 -8 -38 -12 -77 -9 -87 3 -9 -2
-31 -10 -47 -9 -17 -16 -49 -15 -73 0 -49 10 -36 30 42 10 41 12 43 25 25 20
-27 17 -79 -6 -125 -11 -22 -17 -40 -12 -40 16 0 43 37 53 74 11 39 53 95 64
84 16 -16 17 -89 1 -134 -9 -26 -15 -49 -13 -50 2 -2 20 19 41 46 21 28 43 50
48 50 9 0 1 -169 -8 -179 -3 -3 -10 1 -16 7 -7 7 -22 12 -34 12 -25 0 -44 -42
-43 -94 0 -29 2 -27 20 19 25 60 28 63 39 45 17 -26 11 -113 -9 -153 -10 -20
-15 -37 -10 -37 18 0 40 49 53 117 7 39 16 75 20 82 25 39 44 -38 29 -114 -6
-27 -7 -52 -3 -55 5 -3 4 -66 0 -140 -5 -74 -9 -191 -10 -260 0 -171 -16 -331
-46 -480 -41 -203 -38 -198 -87 -211 -56 -15 -137 -7 -170 17 -42 30 -75 108
-92 219 -31 195 -62 283 -166 463 -182 316 -395 602 -639 857 -142 148 -162
176 -224 307 -30 62 -86 169 -124 238 -39 68 -70 126 -68 127 2 2 16 -1 31 -7
48 -18 155 -131 232 -245 42 -60 73 -103 70 -95 -3 8 -24 58 -46 110 -40 94
-49 134 -33 144 29 18 116 -111 182 -269 23 -55 46 -104 51 -109 5 -6 9 35 9
98 0 118 8 130 43 62 13 -24 25 -78 32 -142 12 -106 25 -148 25 -80 0 22 4 35
10 31 6 -3 10 -24 10 -45 0 -55 16 -58 29 -6 6 24 19 54 30 67 l19 23 23 -44
c17 -35 24 -68 28 -145 l6 -100 19 58 c10 32 23 60 27 63 15 9 29 -43 29 -104
l1 -57 38 43 c21 23 41 42 45 42 10 0 7 -75 -5 -109 -14 -41 -9 -46 29 -24 17
10 34 14 38 10 4 -4 2 -35 -4 -69 -6 -34 -9 -64 -7 -66 10 -10 27 56 29 108 1
49 -1 55 -20 58 -22 3 -34 39 -34 105 0 34 -16 34 -51 1 l-28 -27 -6 29 c-17
76 -26 93 -51 96 -21 2 -31 15 -55 73 -40 97 -50 105 -85 70 l-28 -28 -17 22
c-10 12 -22 44 -28 71 -14 64 -55 145 -77 154 -22 9 -31 -6 -39 -67 l-7 -49
-56 102 c-60 109 -113 175 -150 185 -19 5 -23 2 -28 -24 -4 -18 -10 -34 -15
-37 -5 -3 -42 28 -83 69 l-73 74 -52 214 c-97 399 -395 1512 -440 1643 -12 33
-21 61 -21 63 0 16 34 -14 90 -79z m6910 44 c0 -35 -107 -179 -225 -302 -66
-70 -192 -196 -280 -282 l-160 -156 -133 -51 c-262 -101 -1265 -486 -1652
-633 -356 -136 -403 -151 -472 -156 -43 -2 -78 -2 -78 1 0 3 35 24 78 46 42
23 109 67 149 98 51 41 114 77 215 122 167 75 507 244 728 361 262 139 308
164 885 478 586 320 911 491 933 492 6 0 12 -8 12 -18z m-5030 -508 c47 -113
56 -196 41 -382 -24 -317 -71 -616 -127 -817 -60 -214 -65 -226 -86 -220 -13
5 -33 -5 -65 -31 -34 -28 -45 -33 -39 -19 74 184 97 349 156 1105 17 217 33
415 36 439 l6 43 23 -22 c14 -13 38 -56 55 -96z m1864 -36 c-14 -48 -95 -197
-154 -288 -175 -266 -615 -811 -903 -1118 -95 -102 -112 -125 -162 -229 -30
-63 -55 -116 -55 -119 0 -2 7 -4 15 -4 8 0 15 -2 15 -6 0 -9 -55 -74 -62 -74
-5 0 -9 30 -9 68 l-2 67 -7 -60 c-4 -33 -21 -112 -38 -175 -40 -152 -50 -260
-62 -660 -14 -481 -19 -578 -41 -739 -10 -79 -19 -169 -20 -200 0 -48 -2 -53
-11 -34 -6 13 -15 23 -19 23 -16 0 11 -60 52 -119 40 -57 44 -67 46 -134 l4
-72 -25 45 c-28 50 -34 35 -12 -27 14 -38 20 -80 17 -113 -1 -8 -11 5 -22 30
-26 56 -37 37 -15 -27 24 -69 20 -113 -14 -176 -34 -64 -37 -94 -15 -137 24
-46 34 -35 16 15 -15 44 -15 46 7 89 29 54 74 246 79 340 4 58 1 77 -22 128
-44 98 -50 163 -32 355 24 250 27 299 37 643 10 323 32 646 50 712 6 20 23 49
38 66 15 16 35 44 44 63 10 19 27 49 37 68 14 23 17 39 11 50 -6 12 6 45 40
116 41 83 66 119 150 210 249 270 506 580 763 922 87 114 164 205 211 247 40
36 76 66 80 66 14 0 5 -43 -25 -117 -71 -179 -75 -187 -150 -238 -38 -26 -68
-49 -66 -51 2 -3 40 16 83 41 89 50 162 78 196 73 21 -3 19 -7 -27 -57 -27
-29 -97 -85 -154 -124 -101 -67 -105 -69 -118 -50 -10 14 -21 18 -43 15 -17
-2 -30 -8 -30 -13 0 -5 11 -7 25 -3 27 7 30 2 15 -26 -8 -14 -5 -19 11 -23 16
-4 19 -11 14 -34 -6 -23 -2 -21 23 18 27 41 48 56 199 137 92 49 211 111 263
137 113 57 290 119 303 106 27 -27 -194 -190 -478 -352 -237 -135 -260 -157
-59 -56 106 53 229 98 364 132 162 41 178 32 71 -40 -88 -58 -298 -158 -464
-220 -70 -26 -126 -50 -123 -52 2 -3 94 25 203 60 165 55 309 89 366 87 7 -1
-10 -21 -38 -45 -92 -83 -217 -134 -455 -187 -80 -17 -98 -24 -76 -28 l29 -5
-39 -27 c-52 -37 -27 -36 39 2 83 47 159 69 265 76 86 6 268 -8 281 -22 9 -8
-35 -35 -162 -98 -133 -67 -236 -104 -379 -135 l-83 -18 190 -5 c116 -3 206
-10 230 -18 l40 -13 -44 -13 c-54 -17 -203 -38 -376 -55 l-130 -13 65 -8 c36
-4 99 -15 140 -24 82 -18 287 -87 302 -102 16 -16 -73 -43 -162 -49 -118 -7
-315 19 -406 54 -11 4 -15 2 -11 -4 14 -22 78 -43 218 -73 183 -38 218 -49
196 -61 -14 -8 -303 27 -397 47 -16 4 -22 2 -15 -4 6 -6 49 -18 97 -26 147
-28 438 -119 438 -138 0 -16 -82 -20 -200 -11 -105 9 -143 17 -240 51 -63 23
-126 41 -140 41 -14 0 36 -21 110 -48 193 -68 460 -205 460 -237 0 -50 -367
35 -545 126 -43 22 -80 39 -82 36 -10 -10 73 -57 212 -121 167 -76 278 -141
269 -157 -12 -19 -107 0 -209 41 -113 46 -112 46 -95 26 10 -12 10 -15 -1 -16
-8 0 14 -11 48 -25 73 -28 128 -61 162 -98 l24 -26 -57 0 c-57 0 -162 29 -200
56 -11 8 -27 14 -35 14 -19 0 14 -25 142 -105 112 -69 137 -98 117 -134 -14
-27 -32 -31 -124 -31 -95 0 -185 22 -299 74 -120 55 -80 22 48 -39 63 -30 130
-69 149 -86 35 -30 106 -120 106 -134 0 -15 -122 9 -233 47 -65 22 -120 38
-123 36 -2 -3 28 -22 67 -44 67 -36 119 -83 119 -106 0 -7 -23 -9 -67 -4 l-68
6 57 -53 c57 -52 83 -90 74 -106 -3 -4 -34 -4 -68 1 -82 10 -203 70 -290 143
-58 47 -68 60 -68 88 l-1 32 -24 -45 c-13 -25 -38 -54 -56 -64 -19 -11 -28
-21 -21 -24 20 -6 72 19 83 40 9 18 16 14 74 -40 34 -33 89 -74 121 -92 84
-47 101 -70 64 -90 -38 -20 -147 16 -255 85 l-30 19 25 -28 c14 -15 66 -54
116 -87 49 -32 101 -70 115 -85 l24 -27 -45 7 c-25 4 -84 27 -132 51 -49 24
-88 43 -88 41 0 -2 63 -59 140 -126 77 -67 140 -126 140 -132 0 -18 -106 0
-203 33 -49 17 -91 28 -94 25 -3 -3 3 -9 13 -12 67 -25 127 -56 150 -79 24
-24 25 -28 11 -43 -10 -10 -40 -17 -79 -20 l-62 -5 34 -16 c51 -24 50 -49 0
-92 l-43 -37 22 -27 c25 -33 27 -52 4 -77 -15 -17 -15 -19 3 -39 19 -21 19
-22 -13 -46 l-32 -25 27 -24 27 -23 -39 -1 -39 0 23 -25 c19 -20 22 -31 17
-72 -4 -40 -12 -54 -46 -84 -32 -29 -41 -44 -41 -70 0 -34 -24 -69 -47 -69
-10 0 -12 -6 -8 -20 10 -33 -13 -94 -50 -130 l-35 -34 37 -23 c47 -28 84 -29
108 -3 11 12 31 20 51 20 23 0 37 6 44 20 9 16 15 18 36 10 29 -11 75 -13 98
-4 22 9 20 46 -5 78 l-20 26 84 0 c98 0 117 5 117 31 0 17 8 19 75 19 73 0
135 18 135 40 0 18 -31 39 -107 70 -43 18 -82 36 -86 40 -5 4 18 11 50 15 60
7 123 31 123 46 0 18 -52 41 -137 61 -94 23 -94 20 5 47 38 11 42 14 36 36 -5
21 -1 25 35 36 52 15 79 43 62 63 -7 8 -29 22 -49 32 l-37 19 86 6 c82 7 149
29 149 49 0 14 -77 55 -164 86 -92 32 -94 30 76 70 179 41 239 85 161 116
l-38 15 30 7 c17 4 57 17 90 29 46 18 61 28 63 45 3 19 -6 27 -59 51 -54 25
-59 29 -38 34 13 4 47 7 76 7 153 0 315 -78 474 -227 276 -261 394 -627 419
-1303 6 -149 14 -254 23 -287 37 -130 106 -230 183 -264 22 -10 73 -22 113
-25 61 -6 75 -11 92 -33 18 -22 20 -35 15 -91 -11 -105 31 -324 94 -503 11
-32 18 -62 15 -68 -4 -5 14 -32 38 -59 40 -44 64 -100 52 -119 -2 -4 -9 -36
-14 -70 -12 -76 -3 -105 46 -148 l37 -32 -11 -54 c-12 -59 -43 -129 -73 -167
l-20 -25 -22 25 c-41 48 -89 172 -119 303 -53 237 -75 285 -192 419 -95 110
-107 138 -57 138 17 0 30 5 30 10 0 6 -9 10 -20 10 -11 0 -45 22 -75 50 -30
27 -67 52 -82 55 -72 15 -265 126 -377 215 -41 34 -102 94 -135 135 -33 41
-102 115 -154 165 -88 84 -101 101 -156 211 -34 66 -61 126 -61 134 0 7 16 54
35 104 19 49 35 101 34 113 0 13 -8 -1 -18 -32 -43 -133 -111 -228 -274 -387
-141 -136 -236 -213 -390 -314 -214 -140 -516 -273 -680 -300 -90 -14 -91 -13
-101 60 -4 25 -9 58 -12 72 -5 24 -2 26 53 38 52 12 150 57 141 66 -2 2 -44
-9 -93 -24 l-90 -28 -3 74 c-2 53 -6 73 -15 70 -18 -6 -10 -300 10 -347 20
-49 19 -86 -3 -111 -10 -11 -68 -45 -129 -74 -60 -30 -177 -92 -260 -139 -82
-47 -188 -100 -234 -116 -90 -33 -255 -73 -280 -68 -8 2 31 23 87 47 97 42
178 88 170 97 -3 2 -62 -21 -133 -51 -71 -30 -132 -55 -136 -55 -4 0 -10 12
-14 28 -6 24 -10 18 -34 -55 -28 -86 -57 -127 -97 -137 -13 -4 -24 -12 -24
-19 0 -6 -29 -68 -63 -137 -38 -75 -70 -156 -81 -202 -17 -71 -17 -80 -2 -130
15 -53 15 -53 -14 -117 -37 -77 -37 -98 -5 -146 l26 -37 -42 -65 c-23 -36 -63
-80 -88 -100 l-46 -35 -6 29 c-4 15 -7 64 -8 109 -1 74 -4 85 -32 124 -51 70
-54 89 -24 160 47 111 73 192 109 335 19 77 46 172 61 210 14 39 26 93 26 120
1 69 15 118 40 141 11 10 59 39 105 64 62 33 136 90 282 216 108 95 205 181
216 192 21 25 33 102 19 127 -9 15 -11 11 -17 -21 -16 -96 -66 -154 -103 -122
-34 30 -217 80 -340 93 -115 13 -65 -10 109 -48 189 -42 208 -49 208 -75 0
-20 -71 -93 -109 -112 -29 -15 -80 -6 -143 26 -63 32 -110 74 -180 163 -95
118 -127 195 -162 381 -3 14 -3 -15 -2 -65 6 -144 51 -231 210 -402 46 -49 72
-84 65 -88 -17 -11 -90 4 -148 30 l-54 25 6 55 c6 63 -3 65 -23 6 -7 -23 -17
-41 -22 -41 -4 0 -40 31 -78 69 -49 48 -79 88 -100 134 -27 56 -82 271 -105
406 l-7 43 48 -27 c27 -15 64 -43 82 -61 17 -19 32 -29 32 -24 0 29 -34 64
-138 140 -78 57 -179 148 -309 278 -201 200 -303 284 -416 342 -37 19 -67 40
-67 46 0 11 70 236 76 242 15 18 107 -96 226 -280 31 -48 83 -113 115 -145 56
-56 260 -199 270 -190 2 3 -42 40 -98 83 -161 124 -195 160 -285 297 -47 71
-118 169 -159 218 -41 49 -77 99 -79 112 -2 12 -9 59 -16 104 -6 46 -19 107
-29 136 -22 63 -67 153 -81 162 -19 12 -10 -26 20 -78 17 -30 30 -62 30 -73 0
-11 5 -25 10 -30 17 -17 40 -161 40 -251 0 -198 -88 -362 -229 -425 -66 -30
-168 -22 -249 18 -40 20 -62 26 -62 18 0 -7 27 -26 61 -41 l61 -29 -40 -26
c-62 -42 -113 -59 -169 -60 -38 0 -57 -6 -70 -20 -9 -11 -61 -44 -115 -75
-101 -57 -118 -74 -118 -115 0 -28 -49 -108 -87 -144 -29 -27 -56 -30 -92 -10
-23 13 -22 13 32 44 30 17 64 44 74 59 25 35 58 121 50 130 -11 10 -35 -17
-42 -47 -10 -46 -60 -106 -107 -129 -53 -25 -123 -27 -195 -6 -71 21 -85 40
-91 127 -3 49 -13 89 -28 120 -13 26 -24 52 -24 59 0 6 21 34 47 63 35 39 77
115 175 315 123 253 161 343 126 297 -15 -19 -16 -19 -27 2 -22 42 -14 69 33
101 59 41 122 114 156 182 39 77 52 85 103 72 23 -7 49 -14 58 -18 14 -5 16 1
12 42 -3 26 0 59 6 73 l11 25 -5 -27 c-4 -23 12 -118 20 -118 2 0 22 9 46 20
83 37 153 17 200 -59 94 -152 169 -231 221 -231 51 0 69 17 27 25 -35 6 -88
39 -79 49 3 2 37 -4 75 -15 80 -22 112 -24 152 -7 l28 11 -42 8 c-75 14 -86
28 -23 29 l55 1 -49 19 c-62 24 -88 49 -144 135 -25 39 -62 90 -83 114 -22 24
-39 49 -39 56 0 16 98 155 109 155 11 0 24 -134 15 -163 -3 -12 -13 -30 -22
-39 -8 -10 -10 -18 -5 -18 22 0 54 37 81 94 l28 59 39 -59 c84 -129 141 -164
270 -163 l80 0 -64 26 c-35 14 -78 41 -96 58 -27 28 -85 117 -85 133 0 2 22
-16 49 -41 59 -55 82 -62 169 -52 91 11 127 9 165 -10 17 -9 74 -25 126 -36
100 -21 120 -29 141 -53 7 -9 24 -16 39 -16 14 0 52 -14 84 -31 33 -17 82 -37
110 -46 29 -8 82 -33 119 -55 41 -24 90 -44 127 -51 50 -10 61 -15 62 -32 0
-11 3 -14 6 -7 7 19 21 14 29 -10 7 -21 8 -21 16 10 12 44 26 40 34 -8 6 -39
24 -56 24 -24 0 12 6 15 23 10 12 -4 64 -11 116 -16 94 -10 174 -39 241 -87
22 -17 24 -17 17 -1 -7 19 3 23 81 31 23 3 42 1 42 -3 0 -4 -9 -37 -20 -71
-12 -41 -43 -98 -86 -159 -70 -100 -104 -168 -104 -203 0 -16 8 -7 28 29 16
28 77 121 136 208 74 108 102 156 89 152 -20 -6 -19 -2 8 130 49 236 60 340
69 620 12 346 25 491 71 792 32 210 81 332 212 532 160 244 563 712 1028 1196
196 203 415 414 430 414 6 0 7 -9 3 -22z m2905 -65 c-18 -47 -184 -245 -306
-364 -178 -174 -384 -320 -597 -424 -87 -42 -110 -48 -576 -139 -267 -52 -647
-127 -844 -165 -198 -39 -361 -69 -363 -67 -2 2 51 33 119 69 67 35 124 69
126 75 2 6 -13 16 -32 23 -40 14 -45 23 -18 34 9 3 247 92 527 197 432 161
723 270 1515 569 58 22 182 80 275 129 94 49 173 89 177 90 4 0 3 -12 -3 -27z
m-5864 -258 c46 -118 71 -203 94 -314 24 -115 21 -131 -30 -131 -35 0 -42 4
-65 42 -23 36 -31 74 -60 266 -18 124 -30 238 -27 255 l6 30 24 -29 c13 -16
39 -69 58 -119z m1213 -100 c20 -89 22 -465 3 -605 -30 -223 -93 -451 -171
-617 -29 -63 -43 -83 -59 -83 -18 0 -19 5 -14 75 7 88 -7 104 -59 65 -38 -28
-39 -33 30 136 112 272 186 630 207 999 3 55 9 116 12 135 l6 35 14 -35 c8
-19 22 -66 31 -105z m128 -426 c20 -138 18 -373 -5 -484 -22 -107 -198 -696
-212 -710 -18 -19 -29 19 -29 105 0 105 -7 119 -47 100 -15 -8 -31 -16 -36
-18 -20 -10 12 100 79 268 110 279 146 423 159 640 8 122 43 226 67 202 6 -6
16 -52 24 -103z m4024 50 c0 -26 -49 -75 -186 -185 -127 -102 -149 -116 -165
-106 -30 19 -56 15 -214 -38 -375 -126 -907 -245 -1420 -319 -308 -44 -349
-47 -440 -26 -42 9 -73 20 -69 25 5 4 68 15 139 23 282 35 316 81 81 108 -58
7 -106 16 -106 19 0 9 97 29 735 150 1120 212 1230 236 1550 334 94 29 95 29
95 15z m-394 -351 c-30 -63 -227 -213 -379 -289 -187 -95 -473 -157 -862 -189
-133 -11 -507 -13 -543 -4 l-23 7 21 19 c20 19 20 21 4 39 -9 10 -36 26 -60
35 -25 9 -43 18 -41 20 2 2 68 11 147 19 499 53 1015 167 1685 373 33 10 61
15 63 11 2 -5 -4 -23 -12 -41z m-3566 -213 c30 -106 -22 -332 -155 -673 -45
-115 -49 -121 -66 -106 -14 12 -22 13 -38 4 -18 -9 -21 -8 -21 11 0 19 210
705 239 782 15 39 27 34 41 -18z m-721 23 c0 -7 -6 -51 -13 -98 l-11 -84 -38
-9 c-21 -5 -41 -7 -44 -4 -13 13 10 78 50 140 40 64 58 81 56 55z m4405 -23
c36 -33 33 -51 -15 -95 -79 -72 -190 -110 -321 -110 -87 0 -113 16 -41 25 190
23 284 53 324 103 21 28 25 72 7 90 -24 24 19 13 46 -13z m-456 -159 c9 -9 11
-22 7 -36 -16 -49 -283 -291 -347 -313 -15 -5 -987 45 -1103 57 -27 3 -88 20
-135 38 l-84 33 42 3 c56 4 55 25 -3 60 -24 15 -45 31 -45 36 0 4 37 5 83 2
197 -14 537 -18 700 -7 262 17 465 52 707 120 106 30 153 32 178 7z m322 -46
c0 -35 -94 -85 -188 -101 -63 -10 -162 -6 -162 7 0 3 12 21 26 40 26 33 28 34
103 34 42 1 105 7 141 14 36 8 68 14 73 15 4 0 7 -3 7 -9z m-280 -151 c31 -13
36 -18 16 -14 -37 8 -95 33 -76 34 8 0 35 -9 60 -20z m-1055 -135 c451 -31
738 -53 742 -58 21 -21 -125 -140 -237 -194 -97 -47 -161 -52 -295 -22 -104
22 -727 173 -782 189 -44 13 -153 63 -153 70 0 3 42 6 92 7 51 0 120 5 153 11
90 16 224 15 480 -3z m-2540 -47 c5 -31 1 -57 -15 -99 -12 -32 -25 -60 -30
-63 -5 -3 -20 11 -34 31 -20 30 -23 41 -15 67 5 18 9 33 9 34 0 7 64 73 70 73
5 0 12 -19 15 -43z m2310 -147 c438 -106 514 -122 612 -128 56 -4 104 -10 108
-14 23 -23 -59 -82 -158 -113 -81 -26 -295 -51 -351 -42 -80 13 -784 304 -741
306 6 1 45 -6 88 -14 83 -16 145 -19 171 -9 20 8 21 38 1 54 -8 7 -15 16 -15
20 0 9 10 6 285 -60z m-2140 -155 c-8 -60 -16 -110 -18 -112 -2 -1 -14 8 -27
22 l-23 24 28 68 c15 37 31 79 36 92 18 46 19 13 4 -94z m3087 60 c57 -30 99
-55 94 -55 -9 0 -181 45 -234 62 -32 10 -33 11 -16 29 9 10 25 19 35 19 10 0
64 -25 121 -55z m-4 -49 c95 -25 193 -57 217 -71 55 -33 121 -104 146 -158 57
-126 -27 -306 -176 -377 -34 -16 -69 -30 -77 -30 -7 0 16 31 52 68 36 37 78
94 94 125 24 49 28 66 24 121 -3 53 -10 73 -41 120 -64 96 -117 129 -302 188
-90 28 -161 56 -158 61 6 11 4 11 221 -47z m-1031 -65 c242 -96 490 -182 567
-196 20 -4 39 -11 41 -16 20 -32 -234 -88 -412 -92 l-88 -2 -215 134 c-154 97
-230 150 -267 190 -29 31 -53 59 -53 62 0 3 29 5 64 5 40 -1 70 4 78 12 7 7
17 11 23 8 5 -2 124 -49 262 -105z m970 28 c130 -42 181 -68 230 -122 114
-123 115 -230 6 -364 -19 -24 -64 -64 -101 -90 l-66 -48 -103 -3 c-61 -2 -103
0 -103 6 0 5 26 26 58 47 77 51 100 73 124 119 26 51 35 175 18 247 -19 77
-83 139 -169 163 l-63 18 28 29 c15 16 31 29 36 29 4 0 52 -14 105 -31z
m-1351 -59 c17 -4 71 -34 120 -67 49 -33 152 -100 229 -148 164 -103 225 -151
225 -175 0 -27 -83 -55 -161 -55 l-65 0 -217 130 -217 129 30 28 c45 41 40 72
-20 130 l-49 48 47 -6 c26 -3 61 -9 78 -14z m1290 -30 c53 -26 84 -70 84 -120
0 -54 -62 -173 -118 -228 -89 -87 -240 -149 -318 -132 -22 5 -113 19 -204 30
-208 27 -200 25 -167 56 34 31 34 48 2 86 -14 17 -24 32 -22 34 2 2 39 8 83
14 107 15 292 49 332 61 40 13 60 45 40 64 -7 7 -64 27 -126 45 -62 18 -111
35 -108 37 2 2 53 11 112 18 60 8 141 26 179 40 85 30 161 28 231 -5z m516
-75 c28 -54 35 -150 15 -195 -15 -33 -16 -33 -9 -5 17 74 7 128 -37 210 -38
71 -40 77 -16 55 15 -14 36 -43 47 -65z m-1687 -226 c129 -83 235 -155 235
-161 0 -5 -25 -21 -55 -34 -83 -38 -124 -31 -370 66 -221 87 -258 106 -188 94
107 -17 123 26 43 119 -28 32 -50 61 -50 63 0 2 34 4 75 4 l75 0 235 -151z
m1264 33 c-30 -62 -110 -139 -186 -179 -82 -44 -89 -41 -16 6 84 54 144 120
184 203 29 61 34 67 37 44 2 -15 -7 -48 -19 -74z m1 -66 c0 -8 -23 -39 -51
-70 -58 -63 -153 -116 -208 -116 -36 1 -35 1 21 24 77 32 162 91 201 137 36
44 37 44 37 25z m417 -81 c-47 -137 -187 -246 -337 -261 -91 -9 -173 9 -330
71 -74 29 -179 68 -233 87 -53 18 -93 34 -88 36 5 2 89 -15 188 -37 98 -22
210 -43 248 -46 128 -12 311 27 420 91 22 13 62 46 90 74 27 28 51 46 53 40 2
-6 -3 -30 -11 -55z m-1882 -34 c116 -45 237 -93 270 -105 33 -13 60 -28 59
-32 -1 -16 -78 -62 -121 -73 -101 -26 -253 -5 -394 54 -35 15 -65 28 -67 30
-1 1 2 13 7 27 10 27 -8 69 -42 97 -24 20 -21 29 13 36 21 5 32 14 36 31 4 14
12 23 18 21 6 -3 106 -41 221 -86z m1886 -83 c-70 -204 -246 -285 -471 -219
-41 12 -140 55 -220 95 -80 40 -182 88 -227 106 -46 19 -81 35 -79 38 7 6 99
-25 226 -78 205 -84 245 -99 314 -111 79 -13 169 -1 252 36 66 29 163 119 195
181 31 58 37 30 10 -48z m-6082 -68 c23 -43 41 -82 41 -88 0 -9 -66 -1 -111
13 -18 6 -24 35 -34 155 l-6 75 35 -38 c19 -22 53 -74 75 -117z m4749 144
c-12 -11 -99 -33 -92 -23 3 6 16 14 28 19 24 10 72 13 64 4z m-4084 -36 c-39
-70 -131 -158 -164 -158 -25 0 -7 30 25 40 21 7 55 35 87 71 53 59 65 70 52
47z m4376 -35 c76 -21 357 -149 348 -158 -2 -2 -64 21 -138 50 -379 152 -593
138 -685 -43 -22 -45 -30 -34 -10 14 33 80 125 146 227 163 71 12 155 3 258
-26z m-4202 19 c18 -12 -133 -166 -177 -180 -28 -10 -32 -9 -27 3 14 38 110
167 129 175 28 11 59 12 75 2z m147 -9 c-14 -35 -25 -89 -25 -131 0 -52 -19
-91 -59 -125 -46 -38 -81 -42 -141 -16 l-52 22 34 26 c50 39 78 72 103 121 31
61 96 119 134 120 9 0 11 -6 6 -17z m-162 -93 c-42 -71 -80 -105 -131 -120
-70 -19 -79 -10 -21 21 31 17 84 59 120 95 35 35 64 64 66 64 1 0 -14 -27 -34
-60z m3082 26 c116 -48 429 -186 434 -191 2 -3 -22 -17 -54 -31 -87 -40 -182
-44 -260 -11 -33 14 -104 39 -158 57 -63 20 -100 38 -104 48 -3 10 -26 37 -52
60 l-46 44 43 -6 c53 -8 82 6 82 39 0 33 17 32 115 -9z m1140 -4 c98 -28 219
-75 380 -146 125 -55 194 -69 310 -63 55 2 120 12 145 21 61 22 128 70 168
118 l32 40 0 -63 c0 -177 -163 -309 -380 -309 -152 0 -342 91 -507 243 -119
109 -219 146 -362 133 -104 -10 -167 -38 -192 -87 -20 -41 -25 -44 -48 -30
-38 24 49 135 130 165 65 24 198 15 324 -22z m-3929 -3 c-28 -19 -68 -61 -98
-103 -46 -65 -49 -68 -43 -36 17 81 60 133 130 158 55 19 59 12 11 -19z m-661
-148 c-5 -49 -10 -69 -16 -60 -13 20 -11 118 3 164 l12 40 4 -35 c2 -19 1 -68
-3 -109z m181 104 c-24 -36 -75 -65 -114 -65 -48 0 -36 18 27 40 29 10 62 27
74 39 27 27 34 19 13 -14z m442 -72 c-43 -75 -93 -123 -126 -123 -10 0 -8 7 9
23 14 12 40 45 58 72 38 56 92 117 99 110 2 -2 -16 -39 -40 -82z m-688 67 c0
-5 -3 -10 -7 -11 -5 -1 -25 -3 -46 -4 -38 -4 -62 -14 -129 -54 -46 -28 -51
-12 -7 20 63 44 189 77 189 49z m835 -20 c-3 -5 -11 -10 -17 -10 -26 0 -78
-53 -89 -90 -7 -22 -19 -46 -27 -53 -13 -10 -14 -7 -8 28 11 56 35 95 76 116
37 20 75 25 65 9z m-1091 -50 c-12 -12 -44 -24 -78 -30 -32 -5 -79 -21 -105
-36 l-46 -27 24 26 c16 18 53 36 105 52 45 14 88 29 96 34 23 16 26 2 4 -19z
m210 9 c-25 -28 -75 -49 -116 -49 l-33 1 55 34 c30 20 67 35 84 35 29 0 29 0
10 -21z m-420 0 l39 -11 -37 -30 c-47 -38 -68 -79 -68 -134 -1 -37 -3 -42 -18
-34 -64 34 -71 139 -15 196 27 27 42 29 99 13z m1294 -12 c-32 -26 -48 -64
-48 -116 0 -63 -32 -76 -105 -42 l-40 19 31 1 c40 1 59 18 74 63 12 40 70 98
98 98 13 0 11 -5 -10 -23z m116 -6 c-42 -19 -78 -57 -90 -94 -7 -25 -33 -57
-45 -57 -5 0 -6 15 -3 33 19 105 48 137 128 137 l51 0 -41 -19z m2458 -41
c235 -71 436 -147 422 -159 -19 -17 -219 -71 -264 -71 -49 0 -118 21 -210 63
l-55 25 42 1 c23 1 45 6 49 12 4 6 -28 45 -72 90 -48 48 -72 79 -62 79 9 0 76
-18 150 -40z m-3214 10 c23 -14 42 -39 61 -83 15 -34 42 -77 59 -95 27 -29 28
-32 9 -26 -57 17 -109 58 -161 130 -31 42 -56 80 -56 85 0 16 55 9 88 -11z
m912 0 c33 -10 14 -17 -63 -24 -67 -5 -102 -25 -125 -68 -30 -54 -48 -72 -66
-65 -14 6 -13 13 15 64 49 90 68 103 147 102 37 -1 78 -4 92 -9z m-1716 -183
c8 -16 5 -18 -19 -15 -33 4 -62 39 -71 85 -6 29 -2 37 32 70 l39 38 6 -80 c3
-44 9 -88 13 -98z m426 148 c25 -13 60 -55 46 -55 -2 0 -33 13 -68 30 -95 45
-169 37 -230 -25 -16 -15 -28 -23 -28 -18 0 17 57 64 96 79 46 17 140 12 184
-11z m618 -45 c13 0 37 7 55 16 l32 15 -28 -25 c-44 -40 -106 -37 -155 9 l-37
35 55 -25 c30 -14 65 -25 78 -25z m689 29 c-52 -12 -89 -33 -132 -74 -35 -33
-75 -47 -75 -26 0 16 52 73 85 92 22 14 48 19 95 18 61 -1 62 -2 27 -10z
m-1329 -35 c75 -37 153 -113 193 -186 19 -35 35 -67 37 -73 2 -5 -45 40 -105
102 -90 93 -115 113 -153 123 -57 16 -143 0 -177 -32 -30 -28 -41 -16 -21 25
33 69 134 87 226 41z m1511 -24 c28 -19 51 -38 51 -42 0 -3 -21 1 -47 9 -76
23 -159 13 -237 -31 -44 -25 -77 -36 -105 -36 -51 0 -60 14 -20 30 17 8 50 29
73 48 61 52 92 63 168 59 56 -2 73 -8 117 -37z m-1526 -46 c47 -24 81 -58 158
-160 37 -50 80 -99 95 -108 46 -31 17 -29 -50 2 -68 32 -77 44 -116 150 -16
42 -70 89 -120 102 -41 11 -110 0 -137 -22 -9 -7 -13 -7 -13 0 0 6 12 20 26
31 33 26 111 28 157 5z m1377 -12 c0 -4 -20 -18 -45 -30 -25 -12 -45 -18 -45
-14 0 5 19 18 43 29 50 26 47 25 47 15z m50 -12 c0 -26 -50 -60 -87 -60 l-38
1 60 34 c68 40 65 38 65 25z m2198 -42 c50 -18 92 -37 92 -42 0 -12 -172 -1
-224 14 l-39 12 29 24 c16 13 34 24 39 24 6 0 52 -14 103 -32z m-3597 -17 c22
-21 39 -47 39 -56 0 -12 -9 -6 -31 21 -17 21 -42 46 -57 56 -22 15 -24 18 -8
18 10 0 36 -17 57 -39z m1614 -9 l40 -16 -40 -8 c-73 -12 -262 -21 -301 -13
l-39 8 45 14 c121 37 147 42 200 37 30 -3 73 -13 95 -22z m1946 -37 c159 -29
210 -44 292 -88 54 -28 57 -32 36 -39 -40 -15 -231 -21 -305 -9 -73 11 -188
44 -214 60 -12 9 -11 16 8 55 12 26 27 46 33 46 6 0 74 -11 150 -25z m-2041
-52 c28 -15 56 -18 145 -17 106 2 109 1 75 -13 -105 -45 -167 -41 -268 17 -85
50 -43 61 48 13z m187 25 l28 -11 -45 -9 c-55 -11 -124 -3 -153 17 -20 14 -15
15 60 15 45 0 94 -5 110 -12z m1819 -119 c146 -38 237 -70 248 -88 11 -16 -69
-45 -135 -49 -36 -2 -90 1 -121 7 -51 11 -178 64 -178 75 0 3 5 17 12 31 8 19
8 31 -1 51 -10 24 -10 26 6 19 10 -4 86 -25 169 -46z m133 -174 c65 -16 -65
-45 -200 -45 -85 0 -88 1 -108 29 -25 35 -25 39 -6 61 15 16 24 16 153 -11 75
-16 148 -31 161 -34z m-133 -80 c93 -15 222 -50 238 -65 17 -16 -49 -25 -189
-25 -191 0 -255 22 -255 86 0 17 7 19 58 19 31 0 98 -7 148 -15z m-1 -128
c105 -30 204 -61 222 -70 161 -84 -176 -67 -396 19 -36 15 -70 30 -74 34 -11
10 32 80 46 75 7 -3 98 -29 202 -58z m-105 -91 c80 -25 152 -50 160 -56 55
-35 -122 -49 -217 -16 -65 22 -139 85 -130 110 4 11 14 15 24 12 10 -2 83 -25
163 -50z m-3 -144 c20 -18 23 -26 13 -37 -34 -41 -164 16 -221 97 -20 27 -20
30 -4 48 16 18 19 17 102 -33 47 -29 96 -62 110 -75z m-182 5 c51 -45 57 -77
16 -77 -29 0 -91 31 -91 46 0 24 13 74 19 74 4 0 29 -19 56 -43z m-60 -77 c25
-27 8 -44 -34 -35 -37 8 -47 21 -31 40 17 21 44 19 65 -5z m1050 -526 c20 -36
34 -68 31 -71 -7 -7 -136 49 -136 60 0 11 53 77 62 77 3 0 23 -30 43 -66z
m-32 -73 c23 -12 55 -31 71 -44 l30 -24 -18 -64 c-23 -81 -31 -208 -18 -279 7
-36 32 -92 71 -160 33 -58 58 -107 55 -109 -2 -3 -18 8 -34 24 -17 16 -30 23
-30 16 0 -14 104 -119 173 -174 70 -56 66 -67 -61 -194 -189 -188 -321 -374
-346 -486 -16 -70 -29 -97 -71 -156 -28 -38 -30 -59 -13 -107 10 -30 9 -37
-17 -73 -49 -71 -175 -139 -213 -114 -10 6 -18 26 -20 50 -4 48 30 149 48 145
9 -2 10 4 5 20 -44 140 -40 169 34 250 59 65 157 197 205 276 35 59 36 62 30
132 l-7 72 52 -27 c29 -14 57 -25 63 -23 12 4 -27 32 -160 113 -223 137 -330
271 -366 463 -21 112 -14 128 105 225 52 41 145 121 208 177 127 114 133 115
224 71z m-2666 -696 c105 -52 116 -55 186 -55 40 0 99 -5 131 -12 l57 -11 -53
-54 c-104 -106 -230 -175 -393 -214 -137 -32 -375 -28 -375 7 0 9 11 14 35 14
19 0 58 8 87 19 29 10 69 23 88 29 l35 10 -51 1 c-32 1 -69 -7 -99 -20 -34
-15 -57 -19 -82 -14 -43 8 -53 -3 -53 -60 0 -55 -15 -101 -46 -147 l-27 -38
87 -149 c47 -83 86 -152 86 -155 0 -2 -8 -6 -17 -9 -12 -3 5 -15 48 -35 77
-36 125 -80 137 -125 6 -22 14 -31 25 -29 22 4 21 1 -4 -59 -21 -48 -23 -50
-53 -43 -124 26 -225 77 -263 130 -11 16 -44 81 -73 144 -88 194 -130 273
-176 332 -53 68 -62 103 -41 161 8 23 22 67 31 98 9 30 24 62 33 71 10 8 87
36 172 62 241 74 304 101 364 156 28 27 61 49 72 50 12 0 71 -25 132 -55z
m-12 -447 c-4 -50 -17 -108 -32 -147 -13 -35 -45 -146 -71 -247 -25 -101 -49
-184 -53 -184 -4 0 -18 18 -30 39 -12 22 -49 59 -81 83 -50 36 -72 63 -140
173 -111 178 -108 166 -67 262 l34 80 125 -4 c82 -3 151 1 200 10 131 25 122
30 115 -65z m4336 -452 c31 -70 37 -186 14 -255 -9 -28 -21 -51 -27 -51 -28 0
-147 110 -181 167 -4 6 10 39 31 71 21 33 47 88 56 122 l18 62 33 -32 c19 -18
44 -56 56 -84z m-4121 -253 c55 -60 100 -144 100 -186 0 -28 0 -28 -47 -21
-54 7 -140 37 -167 57 -17 12 -17 16 -2 67 20 67 20 107 1 144 -8 15 -15 30
-15 33 0 15 90 -50 130 -94z m2324 -49 c8 -36 -36 -176 -77 -246 -26 -45 -74
-98 -88 -98 -37 0 -78 66 -98 158 -19 92 -18 96 42 115 66 21 139 67 168 106
20 28 23 29 34 13 7 -9 16 -31 19 -48z m-2465 -34 c-6 -16 -15 -30 -20 -30 -5
0 -3 14 6 30 9 17 17 30 20 30 2 0 -1 -13 -6 -30z m55 -210 c41 -49 52 -101
33 -152 -22 -57 -80 -154 -122 -203 -30 -35 -35 -38 -48 -25 -13 13 -91 211
-85 215 33 16 90 72 129 126 28 38 54 69 59 69 4 0 20 -14 34 -30z"/>
<path d="M3083 6738 c4 -12 14 -57 23 -100 9 -43 21 -78 26 -78 4 0 6 10 3 23
-8 34 -35 168 -35 173 0 2 -5 4 -11 4 -7 0 -9 -9 -6 -22z"/>
<path d="M2992 6508 c24 -86 44 -115 33 -49 -8 50 -30 107 -44 115 -5 4 0 -26
11 -66z"/>
<path d="M3830 5318 c0 -3 13 -34 30 -69 20 -44 29 -57 30 -41 0 28 -26 86
-46 103 -8 6 -14 9 -14 7z"/>
<path d="M3936 5090 c9 -55 61 -172 115 -262 73 -122 77 -117 14 17 -104 223
-135 283 -129 245z"/>
<path d="M4160 4617 c0 -3 16 -38 35 -78 24 -50 35 -66 35 -49 0 31 -32 101
-53 119 -10 7 -17 11 -17 8z"/>
<path d="M5720 6830 c0 -5 4 -10 9 -10 23 0 17 -33 -14 -71 -19 -24 -32 -45
-30 -48 2 -2 21 11 41 28 40 36 73 51 109 51 22 0 23 -2 14 -32 -5 -17 -22
-49 -39 -69 -38 -48 -38 -56 1 -29 16 12 32 20 35 17 9 -9 -22 -71 -46 -92
-12 -11 -26 -28 -31 -37 -9 -16 -6 -16 23 2 37 23 68 26 86 8 22 -22 13 -46
-30 -79 -64 -49 -67 -52 -33 -46 17 3 38 9 48 12 40 16 13 -16 -40 -47 l-58
-33 38 -3 c20 -2 37 -7 37 -12 0 -4 -22 -25 -50 -46 -27 -21 -48 -40 -46 -42
3 -2 30 13 61 33 51 32 57 39 52 63 -4 20 2 35 25 60 19 23 26 38 20 44 -7 7
-7 20 0 39 14 39 4 73 -26 88 -19 11 -23 18 -17 35 5 11 9 58 9 104 l1 82 -49
0 c-27 0 -52 4 -55 10 -10 16 -45 32 -45 20z"/>
<path d="M5710 6231 c0 -6 15 -11 33 -13 l32 -3 -49 -35 -48 -35 28 -5 c29 -6
28 -6 -28 -43 -31 -20 -60 -42 -63 -48 -12 -19 3 -21 35 -4 18 9 34 15 36 13
10 -11 -18 -73 -53 -115 -34 -43 -35 -46 -11 -30 46 29 54 19 15 -21 -44 -45
-46 -55 -11 -41 36 13 40 6 16 -28 -13 -19 -17 -34 -11 -48 13 -33 10 -79 -7
-103 -23 -33 -10 -39 20 -9 28 29 32 48 15 95 -8 24 -7 35 6 55 8 13 15 37 15
53 -1 16 4 58 10 94 6 36 12 78 13 95 1 16 12 39 25 52 12 12 22 29 22 38 0 9
7 30 16 47 13 25 14 32 2 39 -18 12 -58 11 -58 0z"/>
<path d="M5458 6085 c-2 -40 -6 -49 -20 -47 -14 2 -16 -3 -12 -30 4 -25 -1
-42 -19 -70 l-25 -37 26 2 c23 2 27 -2 30 -30 2 -18 -2 -42 -8 -53 -20 -38 -3
-33 21 6 22 36 22 38 6 82 -17 44 -17 46 8 98 29 61 31 82 11 110 -13 17 -15
15 -18 -31z"/>
<path d="M5355 5635 c-28 -67 -33 -85 -25 -85 18 0 41 49 38 77 -4 25 -5 26
-13 8z"/>
<path d="M5530 5454 c0 -22 -6 -49 -14 -59 -12 -17 -16 -18 -31 -5 -16 14 -17
12 -11 -27 9 -49 -3 -76 -48 -116 l-31 -27 28 10 c46 16 57 13 57 -20 0 -19
-11 -42 -31 -65 -37 -42 -20 -47 22 -6 28 28 29 34 28 109 -1 71 2 84 25 118
27 39 33 87 16 114 -7 11 -10 4 -10 -26z"/>
<path d="M1836 4015 c-8 -8 -20 -41 -26 -73 -6 -31 -14 -64 -16 -74 -8 -27 16
-32 41 -8 13 12 45 26 72 31 79 15 93 51 39 105 -37 37 -83 45 -110 19z"/>
<path d="M6190 3993 c0 -40 34 -131 86 -233 46 -88 59 -128 85 -245 l30 -140
-5 105 c-6 119 -23 178 -84 291 -22 41 -55 110 -72 154 -35 89 -40 97 -40 68z"/>
<path d="M3955 3638 c-18 -55 -37 -140 -32 -144 10 -11 38 57 44 107 5 45 -2
67 -12 37z"/>
<path d="M3755 3120 c-75 -122 -135 -223 -133 -225 7 -7 201 260 230 317 28
53 51 119 44 125 -2 2 -65 -96 -141 -217z"/>
<path d="M1320 3305 c0 -2 9 -19 20 -37 13 -22 20 -51 20 -85 0 -42 4 -55 22
-67 29 -21 51 -20 71 2 37 41 7 122 -62 169 -30 21 -71 31 -71 18z"/>
<path d="M3324 3107 c27 -23 70 -69 94 -102 44 -59 51 -45 10 22 -24 41 -101
109 -131 116 -15 4 -7 -7 27 -36z"/>
<path d="M4886 2987 c-14 -46 19 -259 37 -241 11 11 8 69 -4 101 -7 15 -15 60
-19 98 -5 58 -8 65 -14 42z"/>
<path d="M5317 2547 c-52 -13 -75 -23 -68 -30 14 -14 114 9 143 33 28 23 24
23 -75 -3z"/>
<path d="M7476 2244 c-8 -67 -25 -103 -66 -138 -31 -25 -31 -26 -8 -26 25 0
57 28 77 67 16 31 26 139 14 146 -6 4 -13 -16 -17 -49z"/>
<path d="M3608 1962 c-55 -20 -70 -32 -39 -32 27 0 86 24 95 39 9 14 1 13 -56
-7z"/>
</g>
</svg>
