<?xml version="1.0" standalone="no"?>
<!DOCTYPE svg PUBLIC "-//W3C//DTD SVG 20010904//EN"
 "http://www.w3.org/TR/2001/REC-SVG-20010904/DTD/svg10.dtd">
<svg version="1.0" xmlns="http://www.w3.org/2000/svg"
 width="1024.000000pt" height="1024.000000pt" viewBox="0 0 1024.000000 1024.000000"
 preserveAspectRatio="xMidYMid meet">
<metadata>
Created by potrace 1.14, written by Peter Selinger 2001-2017
</metadata>
<g transform="translate(0.000000,1024.000000) scale(0.100000,-0.100000)"
fill="#000000" stroke="none">
<path d="M4507 10060 c-4 -8 -11 -37 -17 -65 -27 -126 -97 -250 -130 -230 -11
7 -58 -21 -130 -77 -48 -37 -154 -88 -182 -88 -13 0 -29 5 -35 11 -8 8 -25 8
-63 0 -115 -25 -222 -9 -295 44 -47 34 -64 37 -156 24 -97 -13 -229 2 -229 26
0 30 -28 38 -73 21 -54 -20 -106 -20 -136 0 -31 22 -115 14 -172 -16 -43 -24
-126 -35 -296 -43 -28 -1 -53 -4 -55 -7 -99 -127 -182 -183 -267 -182 -25 1
-55 -5 -66 -12 -11 -7 -37 -49 -59 -93 -26 -54 -48 -86 -68 -97 -58 -35 -70
-71 -93 -284 -23 -210 -30 -234 -81 -294 -49 -57 -55 -88 -27 -141 40 -78 157
-213 220 -254 17 -11 48 -15 111 -14 167 3 320 -79 358 -191 21 -66 72 -118
113 -118 33 0 71 29 71 55 0 11 13 15 53 15 63 0 121 -34 131 -76 16 -62 75
-114 131 -114 16 0 39 12 57 30 27 27 34 30 62 21 17 -5 48 -12 69 -16 31 -5
37 -9 31 -23 -4 -9 -12 -37 -19 -62 -11 -41 -15 -45 -56 -56 -53 -13 -126 -49
-131 -65 -2 -6 -23 1 -54 20 -141 88 -321 107 -392 41 -39 -37 -29 -64 57
-153 147 -155 169 -284 60 -352 -68 -43 -99 -31 -339 128 -91 61 -194 124
-229 140 -109 51 -188 39 -231 -36 -12 -22 -12 -31 -2 -62 13 -33 12 -37 -13
-68 -37 -44 -150 -121 -213 -146 -38 -15 -73 -20 -125 -19 -46 0 -83 -4 -99
-13 -37 -19 -78 -77 -78 -109 0 -26 22 -66 47 -87 13 -10 13 -18 3 -50 -39
-121 -122 -242 -202 -295 -120 -81 -142 -142 -95 -270 l23 -63 -23 -34 c-54
-79 -6 -213 109 -308 38 -32 39 -33 41 -105 2 -59 8 -82 29 -119 31 -52 81
-100 126 -120 22 -9 33 -24 42 -54 16 -55 54 -109 99 -138 26 -17 37 -32 39
-53 3 -38 47 -108 139 -224 88 -111 135 -181 151 -229 16 -46 14 -223 -2 -291
-19 -75 -25 -89 -59 -131 -19 -25 -31 -54 -36 -91 -8 -64 -45 -122 -133 -208
-112 -111 -261 -162 -403 -140 -122 19 -274 103 -397 219 -38 35 -68 58 -68
52 0 -26 62 -154 110 -230 93 -145 236 -252 377 -282 91 -18 252 -7 348 25
221 74 441 247 528 414 106 203 110 480 10 772 -34 102 -35 108 -30 215 7 139
-4 194 -49 242 -19 20 -34 46 -34 60 0 13 -20 53 -45 87 -64 91 -78 129 -70
193 6 53 -8 217 -26 286 -6 21 -20 44 -34 53 -34 22 -31 34 8 34 17 0 50 10
72 23 51 29 82 88 91 177 l6 68 34 -14 c56 -23 114 -18 185 19 77 39 108 86
116 177 4 41 10 61 22 65 9 4 64 10 122 14 117 8 148 21 174 71 25 49 58 41
132 -32 l63 -62 87 21 c48 12 89 20 91 18 2 -1 -8 -29 -21 -61 -132 -320 -249
-872 -277 -1314 -30 -461 43 -870 194 -1093 15 -21 26 -40 26 -43 0 -3 -11
-20 -24 -37 -66 -88 -143 -294 -174 -467 -10 -58 -29 -125 -42 -150 -36 -71
-68 -173 -97 -314 -24 -118 -27 -155 -29 -368 l-2 -238 -31 -39 c-67 -84 -114
-219 -126 -358 -18 -217 76 -403 245 -486 53 -26 72 -41 95 -79 15 -26 45 -66
65 -89 l36 -42 -19 -71 c-23 -90 -17 -170 19 -235 45 -81 109 -117 229 -128
l62 -6 70 -76 c39 -42 118 -114 177 -161 l107 -85 -6 -78 -7 -77 32 -30 c39
-37 83 -50 183 -57 69 -5 82 -3 107 15 l29 22 238 -80 c291 -96 514 -161 659
-190 136 -28 199 -24 387 25 128 33 588 181 737 238 65 24 66 24 89 6 49 -40
244 -15 304 38 17 16 19 27 14 106 -4 80 -3 89 15 98 48 26 211 176 294 271
26 30 39 36 87 41 90 11 160 42 205 91 64 69 78 162 46 291 l-16 65 34 38 c19
21 48 62 64 91 22 38 37 54 61 60 73 21 182 121 223 207 57 116 66 269 26 425
-26 102 -58 169 -115 239 -34 42 -36 48 -30 95 34 242 -43 696 -147 879 -13
23 -24 55 -24 71 0 44 -45 220 -76 295 -27 68 -92 197 -120 241 -16 25 -16 28
5 58 63 88 129 272 163 457 20 106 22 152 22 409 0 245 -3 315 -22 450 -55
396 -174 868 -278 1103 -13 30 -23 57 -21 59 2 2 23 -4 47 -12 24 -8 66 -18
95 -21 l51 -6 48 55 c50 59 98 85 116 64 5 -7 21 -26 35 -44 31 -39 76 -53
165 -53 36 0 82 -5 103 -11 35 -9 37 -12 37 -52 0 -101 46 -167 140 -201 55
-20 158 -18 184 3 11 9 14 -2 19 -56 9 -94 40 -152 97 -180 24 -13 57 -23 72
-23 35 0 35 -10 0 -42 -25 -22 -30 -37 -41 -114 -7 -49 -11 -134 -10 -189 3
-110 -6 -138 -87 -249 -23 -33 -33 -57 -30 -71 4 -14 -1 -25 -14 -33 -11 -6
-30 -31 -42 -54 -19 -37 -21 -55 -18 -133 7 -158 3 -207 -23 -275 -71 -187
-90 -444 -47 -615 46 -183 122 -290 294 -417 194 -144 399 -208 599 -187 214
24 393 182 506 448 17 40 31 78 31 84 0 6 -28 -16 -62 -49 -93 -90 -158 -137
-252 -183 -199 -97 -391 -69 -552 81 -89 84 -137 152 -141 200 -3 43 -23 87
-47 107 -9 8 -27 49 -41 93 -21 65 -25 99 -25 191 0 142 12 169 155 358 114
151 130 178 140 230 4 23 15 40 35 51 36 21 87 90 102 140 8 28 22 44 52 62
58 34 91 72 122 139 21 47 25 69 21 110 -4 50 -4 50 52 106 105 105 138 218
86 294 l-24 37 19 42 c48 110 30 199 -50 254 -114 77 -194 177 -239 297 l-21
59 24 29 c52 61 39 128 -34 177 -29 19 -44 22 -119 20 -84 -2 -88 -1 -166 40
-44 23 -107 66 -139 95 -53 47 -58 55 -48 74 29 53 5 109 -58 138 -33 15 -46
16 -86 6 -65 -17 -148 -60 -251 -133 -206 -144 -260 -177 -312 -189 -74 -16
-151 48 -151 126 0 80 35 149 122 241 69 74 79 89 76 117 -6 66 -142 98 -262
62 -27 -8 -83 -33 -124 -55 l-75 -41 -21 20 c-12 11 -53 30 -92 42 -68 22 -71
24 -81 63 -6 23 -14 51 -18 64 -6 19 -4 22 21 23 16 0 47 6 69 13 38 12 41 11
68 -17 25 -26 32 -29 73 -24 54 6 74 23 112 97 22 43 38 60 72 78 24 12 54 22
67 22 23 0 27 -4 64 -52 46 -62 112 -25 168 93 62 128 172 191 343 194 113 3
124 8 206 94 96 100 159 210 148 256 -3 13 -24 45 -46 70 -22 25 -44 64 -50
88 -6 23 -13 48 -15 54 -2 7 -11 81 -20 165 -19 178 -35 225 -92 262 -28 19
-48 45 -72 95 -42 89 -61 106 -113 104 -76 -3 -145 32 -230 119 -66 69 -80 79
-100 72 -13 -4 -30 -7 -38 -6 -8 1 -62 6 -120 10 -79 6 -116 13 -147 30 -68
35 -125 39 -177 12 l-44 -24 -67 19 c-65 17 -69 17 -81 0 -7 -10 -15 -21 -16
-26 -6 -17 -151 -28 -233 -17 l-83 10 -68 -40 c-93 -55 -154 -68 -256 -52 -63
10 -84 10 -103 0 -35 -19 -106 9 -227 90 -62 42 -110 68 -119 64 -35 -10 -88
75 -119 191 -12 44 -24 87 -27 95 -9 26 -23 -38 -30 -141 -8 -131 15 -211 87
-293 27 -31 50 -63 50 -70 0 -23 34 -45 95 -60 33 -9 97 -35 143 -58 67 -34
92 -42 134 -41 37 1 60 -5 77 -18 31 -25 42 -24 147 10 131 43 166 47 189 22
25 -29 48 -26 145 14 91 37 130 43 130 21 0 -33 26 -39 127 -26 120 15 170 5
194 -38 16 -28 18 -29 133 -35 67 -4 132 -14 155 -23 37 -15 39 -17 34 -50 -9
-57 43 -95 147 -106 23 -3 26 -8 31 -61 4 -39 13 -65 28 -81 11 -12 21 -34 21
-48 0 -17 11 -35 31 -53 17 -14 30 -27 28 -28 -2 -2 -35 -26 -74 -54 -108 -78
-108 -78 -154 -47 -83 55 -176 52 -226 -8 -22 -26 -26 -40 -24 -80 3 -45 0
-51 -41 -93 -27 -28 -53 -45 -68 -45 -12 0 -55 17 -95 38 -60 31 -82 37 -133
37 -51 0 -68 -5 -104 -30 -24 -16 -54 -46 -67 -67 -16 -23 -36 -39 -54 -43
-17 -4 -57 -18 -89 -31 -78 -31 -116 -31 -146 1 -13 14 -34 25 -46 25 -64 0
-169 -91 -184 -158 -15 -74 -80 -159 -147 -193 -35 -18 -46 -20 -77 -10 -60
18 -121 13 -163 -12 -41 -25 -77 -71 -77 -99 0 -14 -12 -16 -80 -16 -49 0 -91
5 -109 14 -56 28 -147 38 -341 38 -193 1 -327 -16 -384 -46 -10 -6 -54 -11
-98 -12 l-78 -1 -11 32 c-14 42 -69 89 -121 104 -36 10 -50 9 -88 -6 -59 -22
-71 -21 -119 10 -48 30 -131 137 -131 169 0 34 -53 110 -95 136 -20 12 -56 25
-80 28 -38 4 -45 1 -60 -22 -12 -18 -26 -26 -46 -26 -41 0 -222 67 -236 87
-46 65 -99 100 -165 109 -37 5 -56 -1 -135 -40 -50 -25 -99 -46 -109 -46 -10
0 -39 21 -65 46 -43 43 -46 48 -42 87 13 121 -141 175 -255 90 -40 -30 -49
-28 -150 46 l-80 57 31 25 c20 16 32 35 32 52 1 15 9 35 18 44 19 21 37 95 30
122 -4 15 5 20 56 30 38 7 72 22 92 38 27 23 30 31 25 64 -6 36 -5 37 37 54
27 11 80 20 147 23 109 5 140 13 140 37 0 8 11 22 25 31 22 15 43 16 150 10
l125 -7 10 27 c9 23 14 25 45 20 19 -4 66 -20 104 -36 82 -35 105 -37 128 -10
24 28 54 25 188 -15 116 -35 124 -36 158 -6 12 10 39 16 76 16 46 1 68 7 116
35 33 19 101 48 150 65 80 27 91 33 100 60 6 17 25 46 43 65 58 60 86 132 90
235 3 90 -19 244 -31 215z m913 -206 c0 -6 17 -31 38 -55 40 -46 68 -99 53
-99 -22 0 -88 92 -109 151 -29 82 -30 137 -2 64 11 -27 20 -55 20 -61z m-929
29 c-22 -84 -91 -193 -123 -193 -9 0 -9 3 0 12 7 7 12 18 12 26 0 8 15 31 34
52 29 33 75 128 77 163 0 8 2 8 6 -1 3 -7 0 -34 -6 -59z m39 -8 c0 -80 -30
-179 -72 -233 -35 -46 -48 -52 -48 -23 0 11 -7 27 -16 36 -15 14 -13 19 26 61
50 54 76 110 86 181 9 71 24 57 24 -22z m876 -70 c10 -22 36 -59 58 -82 38
-40 39 -43 23 -61 -9 -10 -17 -27 -17 -38 -1 -32 -77 60 -94 114 -20 63 -30
155 -21 189 7 26 9 23 20 -27 7 -30 20 -73 31 -95z m227 -108 c87 -60 145 -88
208 -101 40 -9 44 -34 13 -68 -24 -24 -30 -26 -43 -14 -31 26 -107 59 -201 86
-52 15 -96 33 -98 39 -2 7 3 20 13 31 15 17 15 21 1 48 -14 28 -13 42 6 42 4
0 50 -29 101 -63z m1362 24 c50 -23 71 -27 117 -23 59 5 128 -4 128 -16 0 -4
-20 -19 -43 -34 -24 -15 -51 -36 -61 -47 -17 -18 -19 -18 -89 -1 -40 10 -107
26 -150 35 -91 21 -108 35 -86 73 32 58 79 61 184 13z m-2625 24 c0 -4 -7 -20
-16 -37 -15 -29 -15 -32 0 -43 9 -7 16 -21 16 -32 0 -16 -14 -22 -77 -38 -82
-20 -183 -63 -215 -92 -17 -15 -20 -15 -44 7 -39 38 -28 58 46 83 62 21 128
59 215 126 36 27 75 41 75 26z m2320 -10 c23 -8 57 -15 74 -15 31 0 32 -2 28
-34 -4 -34 -3 -35 44 -49 27 -7 97 -24 156 -38 97 -22 108 -26 108 -46 0 -14
17 -35 46 -59 53 -44 74 -80 74 -126 0 -74 -37 -67 -59 10 -22 77 -125 164
-192 161 -20 -1 -18 -2 10 -10 45 -14 104 -52 131 -86 23 -30 53 -93 46 -100
-2 -2 -23 1 -47 6 -24 6 -83 11 -131 11 -78 0 -88 2 -102 22 -17 23 -20 74
-10 127 6 27 11 31 43 33 l36 1 -38 4 c-32 4 -41 10 -54 38 -28 58 -55 62
-250 39 -36 -4 -58 -3 -68 6 -20 17 -10 30 23 30 30 1 62 21 62 39 0 13 18 51
24 51 2 0 23 -7 46 -15z m-3631 -31 c30 -39 28 -72 -6 -80 -16 -3 -50 -12 -78
-19 -27 -8 -85 -21 -127 -30 l-78 -16 -66 45 c-79 53 -73 60 46 61 75 1 93 5
150 33 82 41 130 42 159 6z m201 -12 c0 -27 32 -52 67 -52 34 0 43 -16 21 -38
-16 -16 -52 -15 -112 3 -103 31 -186 12 -206 -49 -11 -34 -14 -36 -55 -36
-109 0 -220 -76 -245 -167 -25 -88 -60 -91 -60 -4 0 40 5 48 61 102 37 36 59
65 57 76 -3 18 -3 18 197 67 94 23 118 39 110 75 -5 25 -4 27 33 28 22 1 55 8
73 16 36 15 59 7 59 -21z m3190 -7 c47 0 101 3 120 8 25 5 31 4 23 -4 -6 -6
-26 -14 -45 -18 -41 -8 -45 -39 -7 -60 23 -13 34 -13 85 0 33 8 85 14 117 14
52 0 62 -3 83 -28 25 -29 41 -73 30 -84 -3 -4 -19 5 -34 19 -15 14 -37 31 -49
37 -31 16 -107 14 -150 -4 -34 -15 -36 -14 -59 10 -13 14 -30 25 -38 25 -19 0
-127 -25 -190 -45 -66 -20 -109 -19 -130 4 -19 21 -14 42 22 86 31 38 69 55
107 47 17 -4 68 -7 115 -7z m1060 -158 l55 -25 -69 -32 c-40 -18 -78 -29 -90
-26 -12 3 -48 22 -81 43 -33 20 -88 51 -123 69 l-64 32 35 26 c19 14 58 40 88
56 l54 30 70 -75 c50 -52 86 -81 125 -98z m-4090 133 c41 1 94 5 118 9 53 10
97 -9 129 -58 30 -44 29 -65 -3 -80 -29 -13 -80 -6 -225 32 -80 21 -86 25 -73
41 18 25 7 46 -26 46 -34 0 -60 9 -60 20 0 5 15 4 32 -1 18 -5 67 -9 108 -9z
m-797 -21 c49 -25 126 -81 127 -91 0 -5 -9 -8 -20 -8 -26 0 -63 -19 -159 -81
-41 -27 -86 -49 -100 -49 -14 0 -54 13 -88 29 l-63 27 51 23 c48 22 85 53 157
134 18 20 37 37 43 37 5 0 29 -10 52 -21z m2924 -38 c21 -5 52 -13 68 -16 104
-22 205 -81 205 -119 0 -18 7 -25 27 -29 16 -3 30 -2 33 2 8 12 98 38 180 51
41 7 89 21 107 32 26 16 35 17 52 6 11 -6 25 -23 31 -36 9 -22 9 -24 -7 -17
-66 27 -179 10 -275 -42 -41 -23 -50 -24 -64 -12 -13 11 -18 11 -21 2 -6 -18
-64 -16 -89 2 -12 8 -24 12 -27 9 -3 -3 -29 8 -58 24 -30 16 -87 39 -126 51
-47 14 -76 28 -83 41 -10 19 -7 20 32 20 56 0 135 -37 192 -91 26 -23 46 -37
46 -31 0 17 -76 80 -129 107 -34 17 -67 25 -101 25 l-50 0 1 38 c0 31 2 34 9
15 6 -14 23 -26 47 -32z m-1147 9 c0 -28 -3 -30 -35 -30 -69 0 -146 -39 -217
-110 -68 -68 -101 -86 -127 -71 -10 7 -6 12 15 22 16 8 30 24 32 36 6 43 96
93 227 125 69 17 85 24 85 39 0 11 5 19 10 19 6 0 10 -13 10 -30z m1790 1 c-5
-11 -10 -31 -10 -44 0 -20 -9 -29 -49 -46 -27 -11 -66 -21 -85 -21 -19 0 -70
-11 -113 -25 -108 -36 -128 -25 -72 39 26 30 29 40 23 72 -7 37 -7 37 22 30
71 -16 189 -18 229 -3 58 21 68 21 55 -2z m-2389 -28 c27 -3 83 0 124 7 42 7
78 11 80 8 3 -3 1 -17 -5 -32 -8 -23 -5 -31 25 -65 19 -21 35 -44 35 -50 0
-17 -44 -13 -102 9 -29 11 -69 20 -89 20 -42 0 -128 24 -151 42 -8 7 -18 32
-21 55 l-5 42 30 -15 c16 -8 51 -18 79 -21z m-509 0 l46 -8 -19 -23 c-17 -22
-22 -23 -54 -12 -46 15 -127 15 -157 -1 -13 -6 -36 -23 -52 -38 l-29 -26 6 39
c4 21 17 50 29 63 22 24 27 25 103 19 44 -3 101 -9 127 -13z m3268 -22 c5 -11
10 -30 10 -42 0 -22 -1 -22 -30 6 -27 25 -34 27 -83 22 -30 -3 -85 -17 -122
-32 -55 -22 -69 -25 -76 -14 -15 24 -11 27 43 34 28 4 74 15 102 25 71 26 142
26 156 1z m-3120 -12 c30 -6 77 -18 104 -25 27 -8 60 -14 73 -14 21 0 22 -2
11 -20 -8 -13 -19 -18 -28 -14 -8 4 -45 17 -82 30 -105 35 -138 35 -175 -2
-31 -31 -36 -28 -23 16 11 37 27 52 50 46 8 -3 40 -10 70 -17z m3312 11 c42
-12 98 -70 98 -103 0 -21 -4 -22 -108 -24 -59 -2 -123 -4 -142 -5 -30 -3 -35
0 -32 17 2 11 6 35 9 53 9 56 91 85 175 62z m-2364 -17 c-2 -11 -33 -27 -93
-47 -49 -17 -107 -42 -128 -55 -57 -35 -54 -20 7 37 59 54 117 80 179 81 31 1
38 -2 35 -16z m2808 1 c21 -9 58 -29 81 -45 23 -16 64 -41 91 -54 48 -24 49
-26 55 -77 9 -72 9 -126 -1 -132 -4 -2 -20 22 -36 55 -29 61 -105 139 -135
139 -18 0 -141 106 -141 121 0 14 44 10 86 -7z m-3926 -17 c15 -8 27 -24 31
-45 3 -17 12 -39 19 -47 26 -31 -2 -39 -84 -25 -72 12 -141 10 -178 -5 -15 -6
-18 -2 -18 22 0 64 65 113 150 113 30 0 66 -6 80 -13z m3265 -13 c34 -37 32
-51 -8 -46 -31 4 -47 -1 -171 -49 l-59 -23 -19 24 c-28 35 -6 60 83 92 98 36
143 36 174 2z m-3762 9 c11 -10 -100 -109 -145 -129 -50 -22 -105 -83 -130
-145 -12 -27 -25 -49 -29 -49 -10 0 -12 97 -3 152 6 32 13 41 58 64 28 14 58
32 66 39 59 50 163 89 183 68z m1078 -54 c41 -6 94 -17 117 -26 43 -16 44 -17
22 -33 -20 -15 -25 -14 -93 18 -62 30 -83 35 -152 36 -44 0 -88 -3 -97 -8 -27
-13 -22 13 8 45 l26 27 47 -25 c27 -13 80 -29 122 -34z m-374 36 c89 -23 133
-45 139 -72 7 -25 -10 -53 -32 -53 -8 0 -53 16 -100 36 -56 23 -99 34 -123 33
-43 -4 -45 14 -3 48 32 27 43 28 119 8z m-453 -43 c9 -68 -2 -111 -28 -116
-11 -2 -68 -9 -126 -14 -58 -6 -113 -13 -122 -17 -15 -6 -16 -3 -8 24 29 102
121 165 246 170 30 1 32 -1 38 -47z m4658 21 c9 -10 30 -46 47 -80 l31 -63
-22 -1 c-21 -1 -20 -2 4 -9 49 -15 96 -50 112 -84 17 -37 46 -204 46 -271 0
-22 7 -69 15 -104 9 -35 14 -66 11 -68 -9 -9 -88 52 -97 75 -5 13 -9 42 -9 65
0 86 -37 165 -91 193 -17 8 -29 25 -32 44 -8 37 -61 89 -99 97 -16 3 -28 8
-28 12 0 11 44 34 80 42 l35 8 -40 -3 c-22 -1 -47 -6 -57 -10 -11 -5 -18 -1
-23 14 -9 28 -43 59 -84 77 -18 8 -31 16 -29 18 2 2 35 18 73 34 80 35 135 39
157 14z m-1445 -25 c13 -13 9 -16 -32 -21 -25 -4 -78 -17 -118 -31 -99 -32
-120 -36 -136 -27 -29 18 22 52 124 83 67 20 139 18 162 -4z m-3903 -13 c20
-8 53 -22 73 -31 l38 -15 -41 -18 c-41 -19 -84 -63 -84 -87 0 -17 -12 -18 -27
-3 -7 7 -45 12 -87 13 -42 1 -76 1 -76 2 0 4 47 97 62 122 17 28 25 32 63 32
23 0 59 -7 79 -15z m1541 -21 c42 -18 70 -36 70 -44 0 -22 -56 -17 -154 13
-47 15 -99 27 -118 27 -37 0 -41 6 -15 27 28 22 135 11 217 -23z m3426 -43
c26 -23 56 -63 73 -99 29 -60 29 -62 11 -82 -23 -26 -76 -26 -132 -1 -58 27
-69 51 -43 98 11 21 20 57 20 80 0 54 13 55 71 4z m229 -17 c36 -41 37 -52 9
-98 -12 -20 -23 -64 -28 -105 -6 -62 -11 -76 -41 -106 -44 -45 -70 -47 -37 -2
71 95 73 226 6 318 -7 9 -9 23 -6 32 9 24 59 4 97 -39z m-4870 -20 c0 -30 8
-59 21 -80 16 -27 18 -37 9 -55 -13 -23 -75 -54 -131 -64 -31 -6 -39 -3 -53
16 -18 26 -13 55 17 109 36 63 94 116 130 119 4 1 7 -20 7 -45z m-200 17 c0
-11 -5 -23 -11 -27 -21 -13 -49 -89 -49 -136 0 -52 30 -143 60 -181 40 -51 9
-42 -47 13 -29 28 -33 39 -33 82 0 33 -9 71 -26 108 -23 52 -25 61 -12 86 26
55 118 97 118 55z m5010 -85 c8 -40 8 -66 -1 -102 -14 -60 -56 -137 -72 -131
-14 4 -30 75 -22 103 2 12 21 41 41 65 32 38 36 48 31 86 -6 59 9 44 23 -21z
m-5170 -3 l24 -16 -40 -18 c-46 -19 -80 -56 -89 -97 -3 -16 -20 -37 -41 -50
-42 -28 -70 -85 -79 -162 -13 -117 -12 -115 -66 -149 -40 -24 -50 -28 -44 -14
8 22 20 101 41 280 8 75 22 149 30 164 17 33 65 69 108 80 43 11 126 1 156
-18z m143 -11 c-4 -33 0 -44 24 -73 55 -63 64 -96 42 -158 -9 -26 -14 -30 -26
-19 -8 6 -26 34 -40 62 -20 40 -25 64 -25 123 0 43 5 79 12 88 18 21 19 19 13
-23z m5172 -6 c22 -10 41 -28 55 -55 l20 -41 -25 0 c-15 0 -35 -5 -46 -10 -17
-10 -19 -7 -19 24 0 33 -20 66 -41 66 -5 0 -9 7 -9 15 0 19 21 19 65 1z
m-5280 -27 c4 -5 -5 -21 -20 -35 -21 -19 -26 -32 -23 -55 4 -27 2 -30 -16 -25
-12 3 -31 6 -43 6 -49 0 -11 78 51 105 39 17 43 17 51 4z m5240 -15 c20 -20
12 -65 -18 -106 -13 -17 -21 -46 -23 -76 -2 -57 -27 -112 -51 -112 -18 0 -63
38 -63 53 0 6 22 33 48 61 45 47 49 56 55 114 9 87 19 99 52 66z m-5210 -84
c11 -80 14 -87 60 -131 25 -24 45 -51 45 -60 0 -20 -48 -61 -64 -56 -19 6 -46
71 -46 110 0 39 -24 97 -40 97 -5 0 -12 17 -16 37 -6 31 -3 39 16 55 28 23 37
13 45 -52z m5366 -11 c42 -29 67 -86 75 -165 4 -38 10 -78 14 -89 4 -11 40
-42 81 -70 71 -48 74 -52 77 -93 4 -55 -25 -97 -97 -135 -38 -21 -62 -27 -93
-25 -38 3 -45 7 -65 43 -19 34 -23 36 -23 17 0 -13 14 -37 30 -54 27 -26 36
-30 68 -24 97 15 192 93 192 157 0 31 14 39 24 13 19 -48 1 -91 -81 -201 -61
-81 -125 -141 -162 -150 -30 -7 -51 18 -85 103 -35 86 -41 147 -26 272 15 126
10 154 -33 194 -27 26 -36 29 -72 24 l-40 -6 24 20 c27 24 41 25 84 6 36 -14
62 -48 70 -87 4 -21 4 -20 6 6 2 57 -54 105 -123 105 l-35 0 4 53 c3 43 9 57
35 80 39 35 107 38 151 6z m-5417 -49 c24 -23 30 -39 33 -79 l3 -51 -41 0
c-43 0 -83 -21 -102 -54 -8 -14 -12 -70 -12 -161 0 -123 -3 -145 -21 -180 -18
-36 -25 -40 -62 -43 -80 -6 -183 70 -198 147 -8 39 15 66 98 118 32 20 60 43
62 52 3 9 10 53 15 98 6 46 17 95 25 110 43 84 138 104 200 43z m44 -152 c20
-20 14 -24 -28 -20 -35 4 -44 0 -70 -28 -39 -42 -45 -82 -26 -175 21 -102 20
-163 -4 -243 -28 -92 -60 -146 -89 -150 -34 -5 -199 164 -241 248 -31 61 -31
65 -17 94 l16 31 0 -26 c2 -60 74 -128 167 -155 62 -18 91 -8 120 39 16 28 19
52 19 177 0 157 9 190 58 210 32 13 81 12 95 -2z m5253 -8 c24 -13 49 -61 49
-95 0 -14 -7 -39 -15 -55 -9 -17 -22 -68 -30 -114 -30 -169 -83 -242 -197
-270 -31 -7 -33 -2 -13 34 32 57 4 179 -67 285 -39 59 -39 60 -19 75 177 134
202 149 244 150 16 0 37 -5 48 -10z m-5228 -41 c23 -12 74 -45 114 -75 40 -30
77 -54 82 -54 22 0 21 -22 -2 -52 -52 -70 -97 -185 -97 -251 0 -15 7 -42 16
-58 8 -17 13 -33 10 -37 -13 -12 -90 21 -127 55 -53 48 -65 74 -94 201 -13 60
-31 123 -38 141 -18 43 -10 85 23 121 33 36 56 37 113 9z m4826 -69 c68 -34
141 -130 176 -231 12 -33 12 -47 -1 -96 -8 -32 -29 -80 -46 -106 -24 -37 -33
-65 -37 -115 -7 -77 -14 -92 -42 -92 -24 0 -24 17 1 125 37 158 20 223 -76
281 -25 16 -65 46 -89 67 -23 20 -52 37 -63 37 -47 0 -36 90 16 130 33 27 110
27 161 0z m-4360 -26 c45 -32 64 -124 25 -124 -8 0 -33 -17 -57 -39 -23 -21
-55 -46 -72 -54 -38 -21 -74 -54 -103 -94 -28 -40 -29 -104 -2 -198 26 -91 26
-135 2 -135 -24 0 -42 40 -42 93 0 24 -9 60 -21 82 -12 22 -32 60 -45 84 -41
79 -41 110 4 203 45 92 97 151 157 179 50 23 123 24 154 3z m4809 -299 c5 -17
19 -49 31 -72 11 -23 21 -47 21 -53 0 -6 -24 -10 -55 -10 -87 0 -202 -49 -277
-118 l-26 -24 5 63 c7 77 17 99 46 99 12 0 45 11 74 24 81 38 128 117 149 251
8 49 8 49 15 -40 4 -49 11 -104 17 -120z m-541 111 c74 -75 93 -107 93 -154 0
-69 -104 -212 -153 -212 -36 0 -76 47 -106 126 -31 79 -83 175 -106 194 -22
19 -18 32 6 20 32 -18 59 -6 114 50 27 27 56 50 65 50 8 0 48 -33 87 -74z
m-366 24 c65 -34 140 -144 191 -282 52 -141 50 -317 -4 -334 -11 -3 -24 -2
-29 3 -5 5 -20 72 -33 149 -39 225 -81 317 -172 370 -41 24 -52 26 -129 22
-47 -2 -85 -2 -85 2 0 10 52 56 79 70 65 34 116 33 182 0z m-3817 -31 c46 -49
50 -51 92 -46 l43 4 -30 -44 c-36 -52 -99 -187 -99 -211 0 -26 -51 -80 -82
-88 -21 -4 -34 2 -68 32 -74 67 -110 155 -90 223 10 37 146 181 170 181 9 0
38 -23 64 -51z m-614 -134 c41 -66 92 -99 181 -119 32 -7 38 -20 46 -100 l6
-61 -46 38 c-81 66 -187 102 -314 107 -8 0 -6 10 7 33 33 57 60 154 61 219 l0
63 19 -73 c11 -41 29 -89 40 -107z m993 151 c32 -13 97 -70 97 -85 0 -4 -25
-3 -55 2 -88 16 -153 -3 -207 -61 -24 -26 -54 -72 -66 -102 -26 -67 -62 -241
-62 -303 0 -59 -27 -95 -58 -78 -12 6 -22 17 -23 24 0 7 -4 35 -9 62 -29 176
98 468 235 539 37 20 105 20 148 2z m3924 -93 c25 -32 28 -45 26 -102 0 -36
-10 -100 -22 -141 -12 -41 -21 -80 -21 -87 0 -20 37 -35 59 -23 23 12 32 36
36 100 3 32 19 77 49 136 53 105 62 99 11 -7 -30 -62 -35 -84 -35 -144 0 -81
-30 -158 -75 -193 -37 -29 -59 -28 -85 5 -26 34 -23 52 31 215 54 160 51 209
-13 270 -23 21 -26 27 -11 19 12 -6 35 -28 50 -48z m-4542 -13 c-39 -40 -40
-43 -38 -108 1 -52 11 -92 42 -175 46 -120 51 -167 21 -197 -29 -29 -58 -25
-96 15 -39 41 -51 80 -64 191 -5 54 -17 99 -34 133 -37 72 -32 86 5 15 17 -32
36 -64 41 -71 5 -6 11 -36 13 -65 5 -92 45 -142 83 -104 15 14 13 26 -13 134
-19 80 -26 130 -21 153 6 36 68 119 89 119 6 0 -7 -18 -28 -40z m3983 24 c112
-46 175 -196 129 -307 -18 -42 -69 -100 -110 -126 -78 -48 -227 -46 -312 4
-99 58 -149 142 -161 268 -7 75 -6 77 15 77 12 0 63 15 114 34 187 70 254 80
325 50z m-3176 -54 c62 -22 127 -40 144 -40 17 0 33 -2 36 -5 2 -2 -2 -48 -9
-102 -20 -146 -73 -216 -202 -270 -186 -76 -391 47 -391 234 0 63 52 155 107
192 42 28 54 31 124 31 65 0 96 -6 191 -40z m2688 0 c6 -11 17 -73 25 -138 27
-226 51 -258 252 -332 61 -23 90 -41 117 -70 32 -36 34 -42 25 -70 -46 -131
-198 -46 -437 242 -158 191 -165 203 -160 265 3 31 12 61 22 72 45 49 136 67
156 31z m1044 -65 c-3 -16 -24 -90 -47 -162 l-42 -133 -38 0 c-21 0 -56 -9
-77 -20 l-40 -20 0 67 c0 38 -3 79 -7 93 -7 25 -6 25 20 7 62 -40 116 -11 181
97 28 47 36 71 37 110 1 47 1 48 10 21 5 -16 7 -43 3 -60z m-3398 44 c38 -23
54 -57 54 -116 0 -53 -12 -72 -200 -299 -197 -237 -317 -305 -377 -215 -13 19
-23 38 -23 42 0 5 16 27 36 48 27 31 57 48 132 77 120 46 136 56 172 110 30
42 50 132 66 287 9 96 55 117 140 66z m-1153 -13 c-9 -57 23 -132 81 -193 56
-57 87 -66 129 -38 l22 14 0 -88 0 -89 -30 16 c-16 8 -52 16 -80 18 l-50 2
-12 49 c-6 26 -28 93 -47 148 -38 107 -42 129 -26 169 13 36 20 32 13 -8z
m3345 -176 c75 -100 267 -323 318 -369 128 -114 226 -131 272 -46 10 17 11 14
12 -21 0 -52 -20 -71 -85 -79 -106 -14 -185 33 -271 161 -33 49 -86 110 -136
155 -129 115 -160 162 -162 242 -1 69 18 100 22 37 2 -29 13 -57 30 -80z
m-2104 78 c11 -43 6 -83 -18 -133 -26 -55 -47 -79 -154 -174 -45 -40 -85 -86
-106 -125 -68 -120 -156 -185 -249 -186 -70 0 -113 21 -122 60 -10 46 7 56 33
20 31 -41 87 -41 157 -1 78 45 135 100 262 257 172 213 172 213 173 262 0 45
14 56 24 20z m2056 -113 c9 -30 41 -68 130 -155 64 -63 128 -133 141 -155 13
-22 45 -64 72 -92 65 -69 57 -82 -44 -72 -99 11 -99 11 -99 65 0 53 -11 72
-112 187 -94 108 -140 204 -123 258 9 26 19 16 35 -36z m-2022 -14 c-7 -67
-41 -129 -126 -229 -85 -100 -115 -156 -106 -200 7 -33 17 -28 -137 -58 -16
-3 -31 1 -39 11 -11 13 -6 22 33 64 25 27 59 73 76 103 20 34 67 88 127 143
91 84 154 168 154 208 0 11 5 15 11 11 7 -4 10 -25 7 -53z m2871 -133 c-17
-84 -64 -119 -180 -133 -45 -6 -58 -4 -69 10 -19 22 -74 50 -140 69 -89 26
-132 56 -162 111 -34 62 -36 80 -4 36 55 -74 172 -131 269 -131 28 0 75 8 106
17 76 24 155 101 173 169 l13 49 3 -70 c2 -38 -2 -96 -9 -127z m-3676 15 c68
-59 93 -68 202 -68 96 0 103 1 165 36 40 22 77 51 95 77 40 55 51 53 21 -5
-34 -69 -60 -88 -165 -127 -52 -19 -111 -49 -132 -66 l-38 -30 -70 16 c-132
29 -160 67 -167 229 l-5 90 29 -60 c16 -33 45 -75 65 -92z m2788 87 c11 -47
47 -104 127 -198 29 -34 64 -79 77 -99 25 -36 33 -87 15 -98 -23 -14 -95 43
-206 161 -65 71 -131 139 -147 152 l-28 24 39 19 c21 11 53 35 72 54 18 19 35
33 38 31 2 -3 8 -23 13 -46z m-1852 -54 l31 -16 -52 -53 c-28 -28 -88 -95
-134 -148 -78 -89 -170 -160 -188 -142 -10 10 -7 62 5 86 7 12 42 58 79 102
91 108 118 152 132 212 l12 52 42 -39 c23 -21 56 -46 73 -54z m2785 -45 c9
-67 21 -91 46 -91 28 0 25 -17 -9 -51 -33 -33 -74 -38 -109 -13 -28 19 -28 29
3 65 27 33 45 86 45 139 1 49 16 19 24 -49z m-1113 35 c24 -18 101 -94 170
-167 155 -165 186 -184 346 -210 136 -22 152 -26 176 -47 24 -21 21 -54 -5
-80 -77 -71 -255 -54 -451 44 -217 109 -409 295 -442 426 -6 23 -2 29 32 47
61 32 121 28 174 -13z m-2696 -80 c4 -24 18 -50 36 -69 33 -33 32 -48 -5 -73
-34 -21 -69 -12 -110 28 l-31 32 25 6 c28 7 50 42 50 80 0 14 3 43 7 65 l7 40
7 -35 c4 -19 11 -53 14 -74z m1245 85 c19 -10 37 -26 38 -36 7 -32 -57 -140
-126 -215 -117 -127 -309 -248 -476 -299 -80 -25 -203 -28 -244 -7 -73 38 -80
87 -17 123 25 14 33 23 22 23 -33 0 -76 -39 -87 -79 -26 -96 27 -161 132 -161
32 0 58 -4 58 -8 0 -4 -9 -36 -21 -70 -18 -55 -26 -65 -62 -84 -38 -19 -142
-58 -156 -58 -4 0 -12 26 -20 58 -24 104 -98 220 -201 316 -53 48 -60 59 -49
72 31 37 169 83 169 56 0 -38 147 -56 216 -27 36 15 60 12 49 -6 -17 -26 162
4 243 41 66 31 108 70 241 224 127 147 204 184 291 137z m1380 -262 c127 -129
301 -233 474 -283 137 -40 235 -30 298 31 23 22 28 24 28 10 0 -10 -7 -33 -15
-53 -38 -92 -183 -85 -449 22 -216 87 -331 153 -419 241 -82 81 -117 177 -86
235 10 19 14 15 48 -48 24 -46 64 -98 121 -155z m-1300 173 c8 -30 6 -51 -6
-93 -13 -45 -29 -67 -93 -129 -84 -83 -191 -148 -356 -219 -184 -79 -271 -104
-362 -105 -79 -1 -84 0 -113 29 -16 17 -33 46 -36 65 l-7 35 36 -32 c49 -43
126 -59 215 -43 249 42 570 264 663 457 19 40 37 72 41 72 4 1 12 -16 18 -37z
m850 10 c41 -11 68 -21 60 -24 -147 -49 -301 -59 -515 -33 -218 26 -227 33
-75 59 52 9 106 18 120 20 60 11 337 -4 410 -22z m263 -69 c7 -40 0 -48 -63
-82 -33 -18 -144 -44 -303 -72 -74 -12 -125 -41 -144 -79 l-13 -25 0 29 c0 42
37 113 82 157 73 70 188 106 349 108 l86 1 6 -37z m-860 17 c72 -11 151 -47
200 -89 38 -34 87 -124 87 -162 0 -19 -3 -18 -23 12 -28 42 -88 64 -217 79
-108 14 -208 41 -255 70 -38 24 -38 23 -29 69 l7 31 86 0 c47 0 112 -4 144
-10z m375 -35 l84 0 -37 -30 c-19 -17 -44 -43 -54 -58 l-18 -27 -18 20 -18 20
-23 -21 -22 -20 -27 35 c-15 19 -48 49 -73 66 l-47 31 85 -8 c47 -4 122 -8
168 -8z m526 -77 c24 -37 27 -49 22 -93 -3 -27 -6 -60 -6 -72 0 -21 -1 -21
-58 8 -82 40 -191 56 -292 41 -78 -11 -164 -46 -189 -76 -34 -41 -41 -5 -11
54 21 40 19 39 135 69 22 5 76 15 120 20 96 13 169 37 210 67 17 13 33 23 36
24 3 0 18 -19 33 -42z m-989 -37 c28 -6 93 -17 145 -25 163 -26 201 -47 216
-124 l7 -32 -53 35 c-79 53 -144 68 -271 63 -99 -4 -114 -7 -179 -39 -38 -20
-72 -33 -75 -31 -3 3 -5 37 -5 76 0 59 4 76 26 107 l25 37 57 -29 c31 -16 80
-33 107 -38z m417 -76 c-6 -37 -8 -73 -5 -82 4 -11 2 -14 -8 -11 -9 3 -16 26
-20 64 -4 32 -10 66 -13 75 -4 10 0 23 10 33 15 16 18 16 32 2 13 -13 13 -25
4 -81z m-642 -49 l0 -104 -59 5 c-68 6 -179 -15 -272 -53 -63 -26 -72 -31
-169 -92 -80 -51 -189 -166 -247 -260 -28 -45 -53 -79 -57 -75 -13 14 -5 64
18 105 24 44 76 186 76 210 0 8 51 29 133 56 182 59 412 173 502 250 39 33 71
61 73 61 1 1 2 -46 2 -103z m1313 61 c29 -24 75 -57 102 -74 118 -71 355 -169
476 -198 62 -14 79 -26 79 -56 0 -20 43 -128 77 -195 19 -37 24 -58 19 -79 -7
-27 -9 -26 -62 56 -70 107 -148 186 -249 254 -148 98 -267 139 -407 139 l-98
1 0 98 c0 53 3 97 6 97 3 0 29 -19 57 -43z m1602 18 c63 -31 59 -51 -31 -147
-89 -95 -126 -165 -128 -243 -1 -40 4 -61 20 -82 29 -40 82 -73 115 -73 36 0
119 37 184 82 28 18 100 69 162 111 177 122 274 159 334 127 19 -11 19 -11 0
-48 -46 -89 -247 -234 -475 -343 -84 -40 -89 -42 -135 -31 -26 6 -102 36 -169
66 -147 68 -170 69 -332 21 -63 -19 -154 -46 -201 -60 l-86 -26 -56 54 c-47
46 -87 102 -87 122 0 3 22 -6 49 -19 101 -52 254 -70 357 -42 154 41 283 198
292 357 7 109 -28 140 -112 100 -52 -26 -181 -157 -233 -238 -43 -67 -83 -163
-83 -198 0 -27 -3 -28 -38 -18 -22 5 -23 9 -17 51 27 180 241 405 455 480 77
27 155 26 215 -3z m-4350 -30 c156 -54 329 -206 402 -355 23 -47 44 -103 45
-125 3 -38 2 -40 -28 -43 -30 -3 -31 -1 -36 41 -7 60 -51 143 -125 237 -101
128 -214 207 -268 186 -25 -9 -37 -57 -31 -123 15 -169 180 -339 339 -349 l52
-4 -60 15 c-33 9 -70 18 -81 21 -35 9 -131 91 -168 142 -38 51 -76 154 -76
203 0 38 26 89 46 89 27 0 96 -41 147 -88 109 -102 224 -290 215 -352 -4 -30
-4 -30 42 -30 46 0 157 33 218 64 l31 16 -13 -31 c-7 -16 -38 -57 -69 -90
l-57 -59 -47 11 c-27 6 -106 29 -176 50 -71 22 -141 39 -155 38 -26 -1 75 -32
278 -87 52 -14 96 -27 98 -28 2 -1 -1 -11 -7 -22 -10 -19 -13 -19 -58 -6 -138
42 -399 95 -438 90 -37 -6 -72 -19 -285 -110 -46 -20 -99 -36 -117 -36 -34 0
-92 41 -185 131 -25 24 -83 64 -129 88 -105 55 -201 122 -223 156 -19 28 -18
86 1 92 6 2 14 -4 17 -14 10 -33 118 -133 206 -191 47 -31 146 -87 220 -125
129 -67 137 -69 190 -64 39 3 90 22 175 62 71 34 142 61 175 66 l55 8 -60 -3
c-48 -3 -84 -15 -180 -61 -164 -79 -186 -80 -306 -20 -277 139 -469 285 -469
358 0 33 74 36 156 6 31 -12 125 -67 209 -124 200 -134 254 -164 306 -171 54
-6 103 17 137 67 20 29 23 43 19 89 -8 84 -41 145 -128 237 -44 45 -79 88 -79
95 0 68 148 97 275 53z m3806 11 c55 -17 105 -42 114 -56 4 -6 -31 -51 -78
-99 -95 -100 -147 -186 -170 -280 -9 -35 -18 -65 -20 -68 -7 -6 -150 49 -179
69 -15 10 -33 38 -42 65 -25 74 -23 79 34 81 155 3 197 183 56 237 -25 10 -46
22 -46 26 0 13 16 11 57 -6 68 -29 194 -11 209 30 7 18 7 18 65 1z m-1339 -26
c36 -5 90 -20 120 -33 l53 -24 -31 -16 c-17 -8 -63 -49 -104 -91 -40 -41 -91
-84 -114 -95 -28 -14 -35 -20 -21 -21 24 0 56 20 105 66 l35 33 0 -73 0 -74
-90 5 c-51 3 -113 1 -142 -5 -50 -11 -142 -50 -175 -74 -14 -10 -25 -7 -65 14
-58 31 -131 54 -195 62 -45 5 -188 -7 -218 -19 -14 -5 -16 6 -15 75 0 44 3 80
8 80 4 0 7 -4 7 -9 0 -5 24 -27 52 -48 49 -36 57 -38 123 -38 62 1 79 5 152
43 46 23 93 42 105 42 13 0 63 -18 111 -40 49 -21 110 -42 135 -45 l47 -5 -50
14 c-27 8 -71 24 -97 35 -27 12 -68 30 -93 41 -43 18 -44 20 -34 47 26 71 129
138 234 153 72 11 83 11 157 0z m-585 -21 c90 -34 163 -101 163 -151 0 -18
-207 -108 -248 -108 -51 0 -110 36 -197 120 -44 42 -89 80 -100 84 l-20 7 20
12 c106 60 274 76 382 36z m2263 -35 c24 -62 -1 -165 -62 -256 -65 -98 -163
-159 -272 -173 l-59 -7 6 50 c13 107 140 286 271 383 52 38 102 40 116 3z
m-1472 -37 c2 -11 -3 -17 -15 -17 -10 0 -29 -7 -41 -16 -44 -30 -22 -120 52
-217 26 -35 32 -47 19 -43 -168 54 -156 48 -166 91 -19 89 22 178 98 211 36
16 49 13 53 -9z m-1158 -4 c59 -41 91 -100 89 -165 -2 -73 -11 -91 -50 -100
-20 -4 -59 -16 -88 -28 -28 -11 -54 -20 -57 -20 -3 0 10 19 29 43 69 85 104
185 78 225 -4 7 -21 16 -37 21 -37 9 -46 41 -12 41 13 0 35 -8 48 -17z m560
-12 c0 -17 -12 -41 -21 -41 -5 0 -9 11 -9 25 0 16 6 25 15 25 8 0 15 -4 15 -9z
m605 -44 c15 -36 152 -172 260 -258 300 -239 514 -302 574 -168 17 36 19 38
33 22 60 -69 32 -183 -53 -217 -54 -22 -123 -20 -200 6 -52 17 -78 35 -140 94
-81 77 -171 139 -308 212 -102 53 -140 87 -192 166 -66 101 -65 165 4 175 4 0
14 -14 22 -32z m-1183 6 c25 -22 23 -48 -10 -118 -41 -86 -115 -162 -203 -209
-127 -66 -236 -143 -300 -210 -82 -86 -154 -120 -259 -120 -96 -1 -137 20
-163 85 -16 38 -17 51 -8 86 6 23 19 50 28 59 16 16 18 14 28 -17 7 -19 27
-44 46 -57 86 -60 265 15 514 212 118 95 254 231 271 273 16 37 29 41 56 16z
m1412 -7 c201 -52 362 -159 485 -326 66 -88 86 -129 71 -144 -6 -6 -39 -11
-73 -10 -50 0 -77 7 -141 37 -135 63 -296 181 -454 332 -102 97 -111 112 -80
125 39 15 91 11 192 -14z m-1486 -1 c22 -22 -235 -263 -398 -372 -151 -101
-265 -144 -331 -124 -22 7 -39 14 -39 17 0 15 54 108 94 161 122 162 311 280
511 319 63 12 151 12 163 -1z m3642 -99 c0 -22 -39 -74 -81 -108 -38 -31 -120
-80 -212 -128 -16 -8 -52 -38 -80 -68 -140 -145 -170 -150 -374 -63 -76 32
-160 63 -188 70 -58 13 -86 8 -337 -58 -86 -22 -161 -41 -166 -41 -16 0 -24
33 -10 42 7 4 22 8 34 8 11 0 73 17 137 39 64 21 156 47 204 56 l88 18 75 -32
c287 -125 271 -123 429 -40 214 112 382 235 432 316 21 33 23 34 36 17 7 -10
13 -23 13 -28z m-2572 -91 c112 -23 193 -52 317 -115 233 -117 345 -213 557
-478 93 -117 200 -267 280 -397 46 -74 146 -269 191 -375 189 -440 239 -876
146 -1285 -39 -169 -108 -347 -193 -500 -75 -135 -81 -145 -88 -145 -4 0 -9
19 -11 43 -5 44 -1 -61 9 -293 6 -131 6 -136 -18 -170 -30 -45 -75 -50 -133
-17 -76 43 -127 154 -161 347 -16 89 -19 158 -19 460 0 413 6 680 14 680 7 0
59 -108 104 -215 78 -187 140 -408 172 -616 l18 -116 20 36 c90 167 124 260
160 436 31 156 31 492 0 670 -54 303 -126 529 -253 790 -192 398 -476 689
-855 878 -148 74 -293 114 -450 123 -49 3 -102 10 -118 16 -28 11 -87 82 -87
105 0 8 -15 -3 -32 -23 -54 -62 -114 -94 -173 -94 -72 0 -225 -27 -320 -57
-102 -32 -187 -72 -297 -139 -402 -245 -675 -598 -848 -1099 -47 -137 -100
-334 -99 -367 0 -13 15 34 34 103 177 670 470 1091 955 1372 188 109 318 149
555 172 86 9 121 23 174 70 l41 37 20 -23 c10 -13 19 -27 20 -32 0 -18 68 -47
109 -47 81 0 255 -31 347 -61 221 -72 469 -234 660 -431 257 -263 445 -626
555 -1068 54 -220 73 -372 73 -575 0 -199 -20 -339 -69 -491 -29 -88 -98 -244
-109 -244 -2 0 -16 63 -31 141 -24 128 -78 335 -89 346 -2 3 2 23 10 44 22 64
54 206 59 267 4 49 2 45 -15 -33 -11 -49 -21 -94 -23 -99 -2 -5 -16 25 -31 65
-82 212 -291 571 -464 799 -102 135 -184 212 -304 287 -330 206 -426 280 -528
407 -27 35 -62 90 -77 123 -26 55 -28 67 -31 243 -3 159 -6 190 -23 218 -25
43 -5 43 64 -1 64 -41 117 -100 117 -130 0 -32 50 -176 93 -270 81 -175 174
-280 332 -377 296 -180 482 -317 631 -465 120 -119 177 -196 233 -314 l36 -76
-1 -160 c-1 -111 1 -143 6 -105 10 72 10 301 0 365 l-7 50 -2 -55 -1 -54 -34
69 c-65 135 -180 270 -351 409 -130 106 -314 238 -370 266 -6 3 -62 37 -125
77 -168 104 -251 197 -331 368 -38 80 -99 255 -99 285 -1 29 -26 60 -80 101
-71 53 -71 52 -30 45 110 -21 180 -41 180 -50 0 -6 -5 -31 -11 -56 -30 -132
72 -363 228 -511 55 -52 80 -71 323 -234 307 -207 453 -314 565 -416 96 -86
104 -99 120 -176 10 -51 13 -59 14 -33 1 58 -57 280 -104 395 -186 458 -580
852 -1012 1013 -196 73 -218 77 -458 76 -216 -1 -222 -1 -320 -31 -140 -43
-192 -64 -302 -123 -124 -66 -197 -116 -305 -207 -339 -286 -555 -660 -635
-1098 -24 -134 -24 -466 0 -570 l16 -70 -4 60 c-3 33 -10 109 -16 169 -10 95
-9 117 6 175 33 125 113 253 237 381 168 172 300 273 673 512 95 60 136 98
188 171 54 77 90 140 123 220 32 77 74 214 74 240 0 31 45 83 110 127 76 51
94 53 68 7 -9 -15 -15 -90 -18 -222 -7 -228 -9 -237 -94 -350 -99 -131 -213
-227 -441 -370 -152 -95 -200 -132 -271 -206 -91 -96 -241 -307 -334 -469 -23
-41 -52 -91 -63 -110 -53 -93 -138 -272 -180 -378 l-24 -63 -16 53 c-10 34
-16 44 -16 28 -1 -14 13 -72 29 -129 17 -57 30 -110 30 -118 0 -8 -11 -53 -25
-101 -26 -92 -75 -338 -75 -379 0 -37 -14 -21 -58 69 -64 132 -103 271 -136
488 -2 14 -4 3 -5 -25 -2 -85 54 -304 109 -427 27 -61 82 -158 90 -158 4 0 14
55 24 123 36 238 105 471 214 717 l47 105 6 -135 c4 -74 12 -234 19 -355 21
-369 -1 -696 -58 -853 -25 -69 -73 -137 -114 -162 -44 -27 -99 -26 -124 1 -18
20 -19 40 -19 283 0 143 -1 237 -3 209 -2 -29 -6 -53 -10 -53 -10 0 -122 189
-156 262 -78 170 -118 291 -157 478 -31 144 -34 493 -6 645 99 534 343 1013
758 1487 99 112 136 147 217 201 239 160 473 247 666 247 111 0 238 -41 286
-92 14 -15 20 -17 20 -7 0 22 84 70 158 90 84 22 142 23 240 4z m2566 -4 c16
-18 14 -19 -38 -45 -96 -47 -213 -162 -268 -264 -15 -28 -20 -30 -45 -22 -15
4 -45 11 -65 15 l-37 6 73 72 c47 46 100 86 147 111 84 44 178 106 198 130 17
20 14 20 35 -3z m-5782 -151 c72 -39 122 -75 175 -126 l74 -71 -43 -6 c-24 -4
-54 -9 -68 -12 -22 -5 -29 0 -57 47 -17 29 -61 83 -98 120 -59 59 -83 75 -203
135 -2 1 1 11 7 22 11 20 13 19 61 -17 28 -21 96 -62 152 -92z m5958 21 c41
-22 83 -41 93 -41 33 0 16 -16 -70 -66 -101 -59 -158 -86 -227 -111 -27 -9
-44 -19 -37 -21 26 -9 257 102 354 170 16 12 51 22 85 25 49 4 62 1 92 -19 46
-31 48 -56 10 -95 -71 -73 -384 -188 -542 -200 -65 -5 -83 -3 -120 16 -24 11
-57 34 -73 51 l-29 30 85 1 c46 0 93 4 103 8 10 4 -29 7 -87 7 -135 -1 -141 4
-93 81 76 121 178 214 273 247 36 13 40 12 73 -15 20 -15 70 -46 110 -68z
m-6069 -8 c72 -47 135 -113 188 -198 28 -44 30 -51 16 -65 -25 -24 -183 -19
-265 10 -74 26 -214 93 -279 134 l-44 28 64 31 c35 17 91 50 124 74 74 54 96
52 196 -14z m5124 -136 c159 -67 199 -80 231 -74 27 5 60 -27 70 -70 4 -12 12
-23 18 -23 20 0 129 -119 175 -189 67 -104 96 -209 75 -265 -15 -38 -138 -9
-200 48 -54 49 -64 86 -59 216 3 60 2 73 -4 43 -4 -24 -10 -45 -12 -48 -3 -2
-25 -1 -48 3 -40 6 -44 10 -58 51 -60 177 -242 284 -483 285 -98 1 -198 -22
-221 -50 -21 -26 -149 -15 -149 12 0 18 -7 16 211 74 243 65 273 64 454 -13z
m-5494 18 c137 -76 290 -146 356 -161 40 -9 96 -14 136 -12 37 2 67 1 67 -2 0
-13 -57 -59 -100 -80 -37 -19 -55 -22 -115 -17 -125 9 -373 83 -474 140 -49
28 -101 78 -101 96 1 42 48 70 116 71 40 0 65 -8 115 -35z m1319 10 c174 -34
385 -92 388 -107 4 -20 -36 -27 -168 -27 -118 -1 -266 -15 -322 -31 -57 -17
-95 -55 -138 -141 -22 -43 -48 -82 -57 -87 -29 -15 -163 -24 -163 -11 0 32 65
141 108 182 72 66 150 101 297 131 11 2 2 4 -20 5 -87 2 -240 -72 -310 -151
-38 -41 -85 -130 -85 -159 0 -11 -12 -19 -36 -23 -19 -4 -41 -9 -49 -12 -21
-8 -41 156 -25 209 21 72 34 84 98 90 38 4 94 22 168 56 93 42 216 89 234 91
3 0 39 -7 80 -15z m5470 -45 c0 -54 -42 -85 -175 -129 -66 -21 -147 -52 -180
-67 -33 -15 -91 -39 -129 -54 l-69 -28 31 -16 c20 -10 39 -34 56 -70 14 -30
39 -67 55 -83 41 -41 59 -148 43 -245 -13 -72 -39 -135 -67 -158 -15 -12 -16
-8 -8 51 28 225 -23 385 -145 445 -90 45 -94 61 -19 67 48 3 47 3 -16 5 -81 2
-128 23 -179 80 -35 39 -66 107 -54 120 4 3 21 -11 38 -32 36 -44 87 -78 144
-94 116 -34 535 101 634 203 19 19 35 35 37 35 2 0 3 -13 3 -30z m-3674 -23
c-81 -60 -105 -88 -115 -135 -32 -151 -116 -345 -197 -459 -59 -82 -110 -124
-284 -235 -455 -288 -698 -522 -799 -772 -6 -16 -13 -27 -15 -25 -2 2 4 61 14
132 19 149 12 138 195 291 136 113 242 192 450 334 318 218 388 278 470 402
84 127 122 267 104 383 -5 28 -5 55 -1 58 6 7 174 47 197 48 6 0 -3 -10 -19
-22z m127 -4 c-14 -48 -9 -154 12 -265 17 -95 17 -115 6 -170 -13 -65 -48
-137 -110 -223 -103 -145 -182 -213 -335 -288 -55 -27 -130 -70 -166 -95 -77
-55 -301 -271 -372 -359 -139 -175 -308 -486 -427 -784 -47 -118 -50 -123 -60
-96 -22 56 -22 75 -1 138 43 126 217 467 313 614 94 143 167 244 236 327 84
101 66 88 411 313 212 139 382 322 418 450 9 31 16 122 19 238 5 174 7 190 26
208 29 27 39 24 30 -8z m52 -49 c4 -42 4 -108 1 -147 l-5 -72 15 70 c11 55 12
86 4 144 -6 41 -8 76 -6 78 9 9 46 -52 46 -76 0 -115 10 -307 20 -356 22 -118
166 -291 345 -416 44 -31 145 -96 224 -144 79 -49 170 -113 202 -143 155 -143
386 -486 544 -807 95 -192 117 -261 101 -314 -6 -22 -14 -42 -17 -45 -3 -3
-23 38 -43 92 -83 213 -251 529 -378 710 -71 102 -322 356 -420 426 -37 26
-125 76 -195 111 -74 37 -150 84 -181 111 -78 69 -157 172 -213 280 -48 93
-49 96 -49 185 0 49 -4 88 -9 85 -27 -17 -47 236 -23 282 21 37 29 25 37 -54z
m1506 -55 c-17 -55 -97 -104 -202 -124 -34 -6 -37 -4 -93 59 -61 69 -61 75 -3
51 49 -20 169 -20 209 1 44 23 76 63 85 109 l8 40 3 -50 c2 -27 -1 -66 -7 -86z
m-4968 43 c128 -87 491 -186 586 -160 20 6 50 17 66 26 32 16 125 107 125 122
0 19 143 39 154 21 9 -14 -28 -66 -77 -110 -55 -50 -154 -185 -190 -261 -23
-50 -31 -79 -31 -127 -1 -65 -4 -70 -37 -53 -17 10 -19 22 -19 130 0 138 7
164 50 178 67 24 150 110 150 156 0 15 -6 8 -21 -21 -24 -48 -77 -99 -125
-119 -77 -32 -207 -8 -353 65 -31 16 -65 31 -76 34 -162 46 -231 72 -253 96
-29 31 -43 65 -36 86 5 12 10 10 26 -10 11 -14 38 -38 61 -53z m1924 -5 c35
-81 157 -111 280 -68 60 20 61 25 -16 -67 -42 -50 -47 -53 -80 -47 -68 13
-138 45 -171 80 -32 33 -35 40 -37 108 -1 39 0 63 3 52 3 -11 12 -37 21 -58z
m3591 59 c138 -30 256 -115 307 -223 14 -30 25 -58 25 -63 0 -6 -31 -10 -69
-10 -83 0 -111 18 -147 95 -46 103 -115 156 -199 154 l-40 -1 42 -8 c65 -13
121 -47 154 -93 30 -41 30 -42 9 -45 -13 -2 -33 6 -49 21 -38 36 -65 47 -110
47 -36 0 -40 3 -47 33 -4 17 -8 37 -8 42 -1 6 -50 12 -116 15 -121 5 -129 13
-35 36 67 17 206 16 283 0z m563 -16 c14 -8 18 -17 13 -34 -14 -55 57 -151
141 -190 29 -14 56 -33 59 -43 13 -32 19 -139 12 -205 -6 -54 -11 -67 -29 -75
-21 -10 -22 -8 -23 46 -1 97 -91 258 -205 367 -46 45 -109 124 -109 138 0 10
121 6 141 -4z m-2982 -105 c2 -67 -2 -98 -19 -151 -45 -133 -142 -272 -253
-361 -34 -27 -143 -105 -242 -173 -304 -210 -481 -344 -615 -468 -25 -22 -46
-40 -47 -38 -6 5 27 123 58 206 57 158 148 323 256 468 l54 72 52 0 c248 0
540 198 673 454 20 39 41 77 47 84 20 25 32 -8 36 -93z m749 48 c47 -95 79
-140 159 -224 152 -159 337 -248 520 -249 60 0 62 -1 97 -42 126 -147 246
-366 318 -581 22 -66 37 -121 35 -123 -3 -3 -18 7 -33 22 -130 122 -286 238
-639 475 -164 110 -253 177 -311 234 -133 132 -214 293 -214 430 0 131 22 150
68 58z m-820 10 c-25 -61 -120 -192 -184 -257 -105 -106 -228 -179 -353 -210
-77 -20 -181 -30 -181 -19 0 17 211 216 295 279 117 88 234 155 365 210 70 30
72 29 58 -3z m988 -39 c183 -89 346 -207 494 -359 l75 -77 -87 6 c-253 20
-485 185 -632 449 l-27 49 33 -7 c18 -4 83 -31 144 -61z m1158 8 c19 -65 52
-131 85 -166 l26 -29 -30 7 c-40 10 -52 22 -80 77 -31 61 -72 94 -134 109 -47
11 -62 26 -44 43 3 4 41 7 84 7 l78 0 15 -48z m195 26 c31 -81 47 -111 75
-141 17 -19 38 -36 46 -39 8 -3 12 -8 9 -12 -14 -15 -64 9 -127 62 -74 61
-124 86 -152 77 -21 -7 -40 19 -40 54 0 20 6 21 90 21 85 0 91 -1 99 -22z
m-3479 -30 c0 -13 -8 -18 -27 -18 -70 -1 -132 -50 -166 -132 -11 -27 -26 -42
-53 -53 -49 -20 -50 -20 -19 16 34 42 65 103 79 159 l11 45 80 10 c83 11 95 7
95 -27z m5028 -5 l11 -33 -58 6 c-68 8 -118 -6 -163 -44 -45 -38 -88 -101 -88
-130 0 -19 8 -9 33 39 42 84 100 122 185 122 82 0 93 -6 131 -75 19 -34 55
-84 80 -111 l45 -49 -39 8 c-52 10 -247 10 -352 0 -80 -7 -82 -7 -86 16 -4 21
-4 21 -6 -3 -1 -20 -7 -28 -28 -32 -39 -7 -50 0 -68 47 -9 24 -28 55 -41 69
l-24 27 67 31 c122 56 137 62 263 104 69 24 125 42 126 41 1 0 6 -16 12 -33z
m-5218 15 c-1 -44 -13 -58 -49 -58 -41 -1 -66 -13 -113 -55 -57 -52 -102 -83
-130 -90 -37 -9 -35 5 5 30 36 23 72 81 88 143 l11 42 94 0 c69 0 94 -3 94
-12z m-213 -30 c-12 -30 -19 -34 -66 -40 -40 -5 -61 -13 -85 -37 -33 -32 -66
-41 -66 -17 0 7 17 32 38 55 40 45 94 70 155 71 l37 0 -13 -32z m3598 -8 c31
-15 49 -34 69 -71 16 -28 26 -52 23 -55 -5 -6 -228 65 -241 76 -4 5 1 13 12
19 11 6 24 20 27 31 8 27 55 26 110 0z m-4975 -34 c74 -24 182 -65 239 -90 88
-39 113 -46 167 -46 80 0 87 -21 17 -51 -92 -39 -133 -98 -159 -227 -16 -75
-15 -158 2 -254 10 -55 -8 -47 -44 20 -17 31 -32 49 -32 39 0 -29 46 -100 93
-144 43 -40 44 -42 56 -139 7 -55 11 -121 9 -149 l-3 -50 -47 48 c-90 89 -145
244 -136 378 3 39 9 74 14 78 5 3 9 56 9 116 1 114 12 153 51 186 9 7 25 34
36 59 11 25 29 55 40 68 12 12 17 22 11 22 -16 0 -39 -31 -61 -81 -24 -55 -33
-63 -72 -54 -24 5 -30 12 -30 33 0 52 -22 105 -62 148 -53 58 -109 78 -194 71
-58 -4 -65 -3 -59 12 4 9 10 24 12 34 3 9 6 17 7 17 1 0 62 -20 136 -44z
m1790 25 c0 -4 11 -20 25 -35 l25 -27 -23 -8 c-72 -28 -203 -71 -213 -71 -19
0 13 74 45 103 14 14 40 29 56 35 37 13 85 15 85 3z m3373 -7 c18 -10 57 -39
87 -66 30 -26 69 -54 87 -60 38 -14 40 -19 13 -43 -18 -16 -26 -17 -76 -6 -64
15 -112 52 -150 117 -25 43 -27 74 -4 74 6 0 25 -7 43 -16z m237 -14 c8 -5 24
-18 35 -30 19 -21 19 -22 -5 -40 -22 -16 -27 -17 -51 -4 -15 7 -37 28 -50 45
-18 25 -19 33 -8 40 14 8 51 3 79 -11z m-4615 0 c-3 -5 -1 -72 6 -149 15 -164
7 -207 -48 -257 -39 -36 -137 -68 -177 -58 -61 15 -35 151 56 288 46 69 146
186 160 186 5 0 6 -4 3 -10z m775 -10 c0 -22 -28 -76 -56 -109 -35 -42 -96
-70 -149 -71 -62 0 -86 31 -37 48 15 5 51 29 81 53 29 24 67 54 85 67 31 23
76 30 76 12z m-210 -15 c0 -20 -67 -85 -88 -85 -9 0 -26 7 -36 15 -19 15 -19
15 5 41 28 31 53 42 92 43 17 1 27 -4 27 -14z m-1323 -28 c65 -34 128 -129
121 -184 -3 -27 -5 -28 -48 -23 -75 8 -332 6 -380 -4 l-44 -9 45 47 c25 25 61
75 80 111 26 51 41 68 64 75 40 12 126 5 162 -13z m4855 -3 c40 -14 87 -29
103 -34 17 -4 55 -17 85 -27 52 -18 57 -23 87 -84 17 -35 32 -72 32 -82 1 -11
-17 -39 -39 -64 -58 -66 -60 -94 -15 -211 113 -291 149 -408 189 -613 43 -218
50 -393 32 -714 -9 -154 -20 -307 -25 -340 -5 -33 -14 -94 -20 -135 -16 -105
-57 -248 -68 -236 -2 2 2 42 11 88 28 156 36 243 48 533 11 299 8 382 -27 580
-70 396 -272 828 -577 1226 -32 42 -58 78 -58 81 0 3 16 9 35 12 20 4 54 15
78 26 54 24 43 24 129 -6z m-2962 -18 c25 -8 60 -19 77 -23 l33 -8 -44 -55
c-114 -145 -269 -394 -358 -580 -135 -278 -218 -565 -240 -820 -14 -166 3
-678 26 -815 9 -49 21 -121 27 -160 6 -38 14 -77 17 -85 3 -10 2 -12 -5 -5
-15 14 -52 130 -64 201 -36 208 -37 211 -38 167 -1 -57 44 -268 75 -345 13
-34 22 -64 19 -66 -6 -7 -6 -8 -50 68 -86 149 -144 353 -167 584 -13 140 -3
575 16 711 8 55 17 123 21 150 32 249 179 821 208 809 27 -11 77 -91 77 -124
0 -18 -26 -103 -59 -189 -32 -86 -61 -165 -64 -176 -3 -11 -21 -80 -41 -153
-20 -74 -36 -146 -35 -160 0 -15 16 33 34 106 19 74 59 207 91 295 31 89 65
186 75 216 24 68 13 112 -43 171 l-39 40 32 80 31 79 77 25 c42 14 112 39 156
55 44 16 87 28 95 26 8 -2 35 -11 60 -19z m4349 -105 c39 -21 79 -70 108 -136
13 -31 17 -69 18 -170 0 -71 -4 -143 -8 -158 -7 -26 -11 -28 -40 -22 -53 12
-84 32 -109 72 -22 36 -23 49 -26 236 -3 140 0 197 8 197 6 0 28 -9 49 -19z
m-5814 -214 c0 -226 -8 -255 -85 -294 -63 -32 -77 -30 -89 15 -16 56 -13 240
4 299 18 61 64 127 108 153 63 39 62 40 62 -173z m6531 152 c72 -22 116 -55
134 -99 12 -29 11 -33 -19 -64 -18 -19 -56 -46 -84 -62 -47 -25 -62 -28 -152
-29 -94 0 -105 2 -167 33 -80 39 -132 96 -153 166 -18 61 -17 63 85 71 41 3
82 8 90 10 35 9 207 -8 266 -26z m-454 -57 c23 -77 73 -133 156 -174 62 -31
73 -33 172 -33 117 0 165 15 232 74 20 17 38 31 41 31 7 0 -10 -73 -29 -118
l-15 -39 -42 14 c-55 20 -169 10 -259 -21 -77 -27 -180 -97 -232 -158 -41 -47
-42 -47 -20 13 10 29 17 86 19 164 l3 120 -8 -115 c-9 -140 -22 -181 -31 -100
-6 54 -6 53 -7 -21 -2 -86 -30 -190 -69 -258 -32 -55 -91 -121 -109 -121 -19
0 -18 78 1 197 14 89 17 94 61 138 25 26 59 74 74 108 21 44 29 55 30 38 0
-13 2 -22 5 -19 7 7 -11 249 -21 272 -5 14 -4 17 5 12 12 -8 20 -23 47 -96 11
-30 13 -31 14 -11 0 34 -37 107 -66 130 -17 13 -20 21 -12 24 34 14 43 6 60
-51z m-6434 22 c35 -7 38 -17 20 -76 -36 -120 -205 -211 -357 -193 -114 13
-229 90 -216 144 14 55 81 102 170 119 33 6 69 14 80 16 26 7 261 -1 303 -10z
m78 -43 c-14 -14 -35 -48 -47 -75 -37 -84 -29 -271 17 -391 4 -8 -18 8 -49 37
-60 58 -144 113 -207 134 -97 34 -241 40 -291 13 -13 -6 -20 0 -32 29 -19 43
-38 114 -33 120 2 2 16 -9 30 -23 15 -14 52 -38 84 -53 49 -23 70 -27 152 -27
113 0 183 24 252 84 41 37 80 105 92 162 5 22 10 25 31 21 l26 -5 -25 -26z
m3174 12 c0 -10 15 -45 33 -78 l32 -60 -44 -40 -43 -40 -29 35 c-16 19 -29 39
-29 45 0 5 14 37 30 69 17 32 30 65 30 72 0 8 5 14 10 14 6 0 10 -8 10 -17z
m1863 -30 c3 -10 19 -63 37 -118 92 -292 161 -615 197 -925 25 -212 25 -572 0
-725 -31 -196 -85 -367 -150 -475 -45 -74 -60 -73 -30 2 59 144 99 464 110
873 7 246 -9 403 -62 635 -40 174 -67 258 -171 528 -14 37 -28 74 -31 83 -6
21 41 115 64 128 25 14 30 14 36 -6z m-5030 -15 c-4 -7 -11 -60 -15 -118 -5
-58 -12 -141 -16 -185 l-7 -80 -13 52 c-17 65 -18 184 -2 243 15 56 37 100 51
100 6 0 7 -6 2 -12z m3148 -178 c8 0 30 16 49 35 43 44 58 45 29 3 -27 -40
-70 -88 -79 -88 -14 0 -89 103 -83 113 4 6 19 -5 37 -26 17 -20 38 -37 47 -37z
m119 29 c0 -15 -102 -149 -113 -149 -5 0 -38 25 -73 56 -62 55 -63 56 -48 80
l16 24 45 -55 c25 -30 49 -55 53 -55 12 0 70 63 86 93 14 26 34 29 34 6z m39
-55 c54 -79 156 -159 286 -224 141 -71 174 -101 268 -243 55 -83 173 -297 164
-297 -3 0 -33 39 -68 88 -222 305 -504 540 -701 584 -29 6 -55 13 -56 14 -5 3
71 113 78 114 3 0 16 -16 29 -36z m3578 -9 c47 -20 75 -69 70 -122 -3 -24 -10
-50 -17 -58 -22 -26 -95 -29 -173 -6 -80 24 -194 28 -248 9 -74 -25 -107 -55
-164 -153 -31 -52 -60 -95 -64 -95 -8 0 -25 -38 -56 -120 -24 -67 -65 -120
-114 -152 -67 -42 -78 -36 -37 21 37 51 66 118 66 155 0 12 15 33 35 49 46 37
88 100 122 183 36 89 146 203 244 251 106 53 258 70 336 38z m-3789 -66 c2 -4
-12 -10 -30 -14 -60 -13 -152 -56 -238 -112 -142 -92 -400 -367 -514 -546 -10
-16 -19 -27 -22 -25 -7 7 97 200 161 299 93 144 125 175 236 229 125 61 168
92 253 178 l70 71 40 -36 c23 -20 42 -40 44 -44z m-3364 -8 c37 -16 79 -39 94
-51 63 -48 151 -145 167 -183 40 -94 63 -132 113 -183 33 -34 55 -66 59 -87 8
-42 38 -103 75 -149 36 -46 20 -50 -43 -10 -58 38 -93 84 -130 179 -17 43 -42
89 -56 102 -13 13 -38 52 -56 85 -43 80 -84 120 -149 142 -68 23 -179 22 -250
-2 -64 -22 -163 -23 -183 -3 -24 24 -28 90 -8 128 31 59 71 73 194 68 90 -5
116 -10 173 -36z m3406 -23 c15 -10 22 -10 32 0 17 17 45 15 118 -9 209 -71
456 -291 696 -621 37 -50 98 -158 90 -158 -3 0 -31 7 -63 15 -32 9 -75 15 -96
13 -27 -2 -41 3 -51 17 -15 22 -36 132 -36 188 0 62 -17 41 -30 -34 -11 -66
-10 -122 5 -182 6 -21 1 -25 -57 -43 -70 -21 -182 -24 -200 -6 -7 7 -15 12
-20 12 -9 0 -118 -183 -118 -198 0 -19 15 -21 75 -7 101 22 132 34 182 69 69
47 151 87 157 77 3 -5 1 -35 -5 -67 -19 -112 -49 -153 -49 -69 0 43 -1 45 -20
33 -17 -11 -22 -10 -29 1 -7 11 -10 11 -17 -1 -5 -7 -29 -22 -54 -33 -54 -24
-126 -87 -147 -129 -13 -27 -10 -25 24 12 l38 44 22 -30 c20 -28 21 -31 6 -44
-27 -22 -103 -147 -103 -168 0 -12 6 -23 13 -26 9 -3 14 -21 13 -49 -1 -33 4
-48 19 -60 42 -33 93 -54 194 -79 114 -29 159 -52 196 -100 30 -39 31 -67 6
-123 -29 -63 -79 -80 -141 -48 -34 18 -47 56 -31 91 21 46 80 19 67 -31 -7
-27 3 -32 22 -13 14 14 16 62 2 88 -16 30 -66 42 -105 26 -42 -18 -59 -48 -52
-97 19 -140 203 -175 301 -59 30 36 35 103 12 149 -18 35 -101 111 -121 111
-8 0 -15 3 -15 8 0 4 38 8 85 8 67 1 94 6 132 25 26 13 49 30 51 38 3 8 -12 1
-33 -15 -37 -28 -43 -29 -162 -32 -115 -3 -126 -2 -179 22 -32 15 -54 29 -51
32 3 3 16 0 29 -7 37 -21 302 -19 351 3 57 26 67 17 67 -61 -1 -189 -68 -596
-137 -826 -72 -241 -162 -427 -279 -575 -143 -181 -304 -286 -499 -325 -90
-18 -92 -18 -181 3 -113 27 -188 60 -280 123 -226 157 -405 469 -511 894 -10
39 -19 63 -21 54 -4 -22 39 -183 83 -309 36 -104 111 -263 160 -340 33 -53 17
-51 -26 2 -81 100 -133 182 -218 340 l-52 98 -10 172 c-5 95 -11 238 -14 318
-4 151 -3 148 29 -60 16 -106 43 -219 45 -188 1 9 -6 50 -15 90 -24 113 -64
434 -64 517 l0 75 28 -26 c39 -39 75 -49 186 -57 113 -9 176 4 223 44 16 13
39 33 53 44 33 26 20 37 -19 16 l-31 -16 0 40 c0 37 19 71 40 71 5 0 25 -19
45 -42 l37 -43 -4 35 c-3 19 -8 43 -13 53 -10 25 21 23 37 -3 7 -11 18 -20 24
-20 6 0 16 -12 23 -26 24 -53 -35 -98 -184 -140 -44 -12 -69 -23 -55 -23 32
-1 165 43 208 69 37 23 52 53 46 96 -4 26 -3 25 15 -11 28 -58 27 -106 -4
-135 -21 -20 -23 -25 -11 -32 24 -14 67 2 77 29 16 43 -18 143 -58 166 -12 8
-12 11 1 26 13 15 11 23 -30 86 -25 38 -54 80 -66 92 -20 21 -20 24 -5 41 10
10 17 25 17 33 1 14 48 -33 83 -81 17 -24 17 -24 0 8 -33 62 -83 110 -145 142
-34 17 -66 36 -71 43 -7 9 -10 9 -14 0 -6 -15 -33 -17 -33 -3 0 6 -4 10 -9 10
-6 0 -11 -21 -13 -47 l-3 -48 -14 30 c-8 17 -20 50 -27 75 l-13 45 0 -36 c-1
-19 10 -57 23 -82 l23 -47 -21 0 c-11 0 -30 -3 -42 -6 -39 -10 -78 136 -58
214 7 25 12 26 51 10 15 -6 31 -11 35 -10 11 3 83 -36 150 -79 78 -50 247 -95
262 -71 5 9 -84 166 -107 189 -10 10 -22 9 -60 -2 -49 -15 -94 -11 -195 16
-38 10 -43 15 -37 33 14 44 17 135 5 189 -15 72 -30 83 -30 20 0 -30 3 -43 9
-35 14 23 23 -83 10 -132 -8 -34 -16 -46 -30 -46 -22 0 -24 16 -4 50 8 14 14
41 14 60 l-1 35 -9 -38 c-5 -21 -16 -51 -24 -67 -13 -25 -19 -28 -47 -24 -18
3 -63 -4 -100 -14 -38 -11 -68 -17 -68 -14 0 25 126 213 223 332 186 229 373
385 542 451 79 31 106 35 135 17z m3613 -99 c55 -14 98 -19 130 -15 26 3 47 2
47 -2 0 -12 -74 -99 -107 -127 -18 -15 -33 -22 -33 -16 0 19 -63 82 -104 103
-62 32 -154 22 -240 -26 -55 -30 -65 -32 -56 -16 22 41 78 86 126 102 67 23
141 22 237 -3z m-6956 -44 c37 -11 62 -28 93 -61 23 -25 40 -47 38 -50 -2 -2
-35 13 -73 33 -59 31 -77 36 -137 36 -60 0 -75 -4 -111 -29 -23 -17 -51 -44
-62 -62 -11 -17 -25 -31 -31 -32 -12 0 -134 125 -134 138 0 4 30 8 68 8 37 0
92 8 122 16 71 21 163 22 227 3z m6874 -19 c41 -17 91 -70 108 -113 41 -104
-23 -249 -136 -304 -40 -20 -55 -21 -139 -16 -103 7 -179 -3 -237 -32 l-39
-19 6 21 c3 12 12 56 21 97 30 147 44 194 57 205 8 5 23 25 34 43 34 60 170
131 250 132 23 0 57 -6 75 -14z m-6856 -54 c48 -18 145 -80 145 -93 0 -4 13
-23 29 -42 19 -21 35 -57 46 -102 10 -39 26 -104 36 -146 11 -41 19 -78 19
-82 0 -3 -21 4 -47 16 -42 19 -65 22 -193 22 -128 1 -150 3 -186 22 -143 75
-186 254 -87 364 59 65 138 79 238 41z m4149 -161 c82 -78 158 -240 217 -459
43 -160 49 -228 59 -662 9 -382 33 -787 47 -800 6 -5 0 103 -17 330 -6 74 -15
315 -20 535 -8 370 -11 408 -34 510 -29 130 -64 241 -112 348 -19 43 -34 81
-34 84 0 13 54 -45 112 -122 54 -70 67 -96 104 -210 97 -298 89 -238 90 -708
1 -231 5 -456 8 -500 28 -332 74 -543 157 -710 46 -93 84 -146 150 -207 58
-54 58 -79 -1 -105 -50 -22 -116 -16 -160 15 -92 66 -167 271 -219 605 -13 81
-19 106 -20 75 -2 -110 74 -439 130 -556 31 -67 95 -139 135 -154 34 -13 94
-13 133 1 18 6 34 10 36 8 6 -6 -53 -201 -64 -212 -14 -14 -98 50 -171 131
-63 69 -140 212 -176 322 -9 30 -19 49 -22 42 -9 -28 67 -203 132 -305 39 -60
146 -166 194 -191 17 -9 32 -23 32 -31 0 -19 -77 -178 -116 -239 -16 -25 -34
-46 -40 -46 -22 0 -110 107 -146 176 -130 247 -189 586 -187 1074 1 102 4 223
8 270 l6 85 8 -110 c17 -250 60 -546 92 -633 19 -52 19 -10 0 53 -48 155 -78
493 -100 1090 -23 637 -47 771 -190 1042 -30 56 -82 144 -117 195 -35 51 -67
99 -72 108 -12 19 90 -65 168 -139z m-1487 68 c-91 -131 -179 -297 -228 -430
-64 -176 -84 -366 -94 -884 -3 -165 -10 -390 -16 -500 -28 -547 -122 -878
-301 -1063 -46 -47 -128 -112 -141 -112 -5 0 -37 89 -60 169 l-16 53 22 -7
c50 -17 125 -17 161 0 63 30 136 147 171 276 29 106 65 305 70 384 5 89 2 75
-29 -130 -31 -204 -88 -376 -152 -460 -54 -71 -140 -92 -220 -54 -45 22 -42
50 10 92 106 88 197 273 246 507 48 224 54 325 52 830 -2 494 0 519 43 670 51
176 80 255 118 310 73 110 162 197 123 123 -61 -120 -133 -369 -141 -488 -2
-33 -2 -49 1 -35 45 234 76 339 153 522 30 70 43 87 148 188 63 61 117 109
120 107 2 -3 -16 -33 -40 -68z m3766 -206 c-11 -54 -21 -74 -46 -96 -44 -38
-149 -88 -162 -76 -16 16 7 40 53 58 54 20 119 83 144 139 10 23 21 42 22 42
2 0 -3 -30 -11 -67z m-6100 -101 c17 -18 57 -42 89 -54 42 -15 58 -26 58 -39
0 -29 -12 -29 -85 6 -87 41 -108 64 -129 137 -23 80 -20 91 9 33 14 -27 40
-65 58 -83z m3702 -111 c12 -35 13 -46 3 -52 -7 -5 -17 -4 -22 1 -14 14 -24
97 -18 149 l6 46 8 -50 c4 -27 14 -70 23 -94z m2755 104 c0 -24 -39 -97 -68
-128 -16 -16 -49 -34 -82 -44 -89 -25 -129 -51 -208 -132 -84 -86 -116 -130
-159 -216 -65 -130 -97 -266 -98 -412 l0 -112 -24 22 c-23 21 -23 26 -17 127
7 139 21 182 126 395 84 172 110 248 145 422 13 63 92 91 263 92 103 1 122 -1
122 -14z m-386 -22 c-51 -239 -69 -296 -149 -453 -40 -80 -85 -179 -101 -220
-28 -72 -29 -81 -28 -240 1 -155 3 -172 32 -269 29 -96 30 -107 17 -128 -9
-13 -19 -23 -24 -23 -15 0 -69 144 -85 228 -32 164 -12 375 54 572 31 93 32
98 25 220 -10 187 5 214 145 274 36 16 74 37 85 47 27 26 36 24 29 -8z m-6203
-23 c68 -19 85 -42 108 -139 34 -144 55 -197 149 -383 97 -191 110 -232 119
-378 5 -94 5 -95 -22 -120 l-27 -25 7 61 c14 121 -27 317 -97 458 -40 83 -105
171 -175 237 -66 63 -111 89 -196 114 -63 18 -113 61 -141 120 -28 59 -24 64
57 68 90 5 171 0 218 -13z m229 -66 c79 -32 86 -37 111 -86 16 -32 19 -58 18
-186 -1 -112 3 -157 14 -178 24 -49 58 -175 73 -269 31 -205 6 -410 -67 -547
-10 -19 -12 -19 -30 -2 -23 20 -24 50 -5 101 33 86 41 150 40 308 0 188 -1
189 -137 460 -75 148 -90 189 -121 314 -20 80 -36 148 -36 153 0 5 17 -3 38
-17 20 -13 66 -36 102 -51z m3786 -55 c65 -17 63 -28 -5 -22 -97 9 -214 -27
-325 -99 -32 -22 -71 -45 -85 -52 -33 -18 -156 -49 -174 -44 -10 2 1 29 37 91
44 77 53 87 71 81 11 -5 54 -8 95 -8 58 1 94 8 160 32 91 33 154 39 226 21z
m300 -36 c15 -27 49 -88 75 -136 l49 -88 0 -142 c0 -78 -5 -250 -10 -382 -22
-494 23 -835 126 -971 28 -36 111 -84 145 -84 9 0 28 9 42 20 14 11 27 20 29
20 4 0 -18 -285 -27 -337 -4 -24 -12 -43 -17 -43 -20 0 -126 121 -159 182
-145 268 -191 570 -189 1253 2 426 -3 461 -81 683 -31 87 -25 96 17 25z
m-2307 -17 c-11 -30 -33 -108 -50 -173 l-32 -118 -1 -535 c-1 -509 -2 -542
-24 -670 -39 -232 -88 -379 -166 -504 -52 -82 -121 -155 -135 -141 -5 6 -16
48 -24 95 -8 47 -16 70 -16 53 l-1 -33 -91 0 c-85 0 -98 -3 -166 -36 -47 -22
-93 -55 -129 -90 l-55 -55 30 59 c37 73 86 108 207 148 102 33 127 58 100 99
-20 31 -9 38 50 33 38 -3 39 -4 46 -48 4 -25 5 0 2 54 -4 95 -4 99 13 84 45
-38 111 -28 172 28 53 47 88 127 119 269 25 116 26 132 26 455 0 184 -6 437
-13 561 l-14 227 56 103 c81 154 101 189 108 189 3 0 -2 -24 -12 -54z m503 22
c90 -31 171 -39 257 -27 25 4 33 -7 102 -129 25 -42 25 -43 -13 -36 -85 16
-150 40 -233 89 -135 79 -193 98 -302 99 -50 1 -90 2 -89 3 1 2 20 9 42 17 65
24 133 19 236 -16z m3938 -11 c0 -30 -26 -66 -59 -79 -24 -10 -139 -55 -186
-73 -28 -11 72 92 119 122 35 22 98 50 119 52 4 1 7 -9 7 -22z m-2373 -13 c12
-16 45 -145 39 -152 -2 -1 -17 22 -34 51 -35 62 -82 96 -145 105 -41 6 -42 6
-12 13 46 12 138 1 152 -17z m-1693 7 c14 -5 5 -10 -36 -19 -60 -14 -100 -48
-137 -117 -20 -38 -21 -38 -17 -10 3 17 8 52 11 78 6 42 11 50 38 62 34 15
110 18 141 6z m1510 -23 c9 -36 6 -120 -7 -153 -22 -56 -30 -62 -67 -58 l-36
5 23 66 c12 37 23 86 23 109 0 23 5 44 13 46 27 11 45 6 51 -15z m-3919 -43
c59 -40 150 -132 120 -120 -11 4 -54 20 -96 35 -42 15 -86 33 -97 39 -27 14
-52 50 -52 74 0 17 5 18 38 13 20 -4 60 -22 87 -41z m4036 22 c50 -33 129
-201 106 -224 -4 -3 -20 6 -37 20 -16 14 -39 28 -50 32 -11 3 -20 12 -20 19 0
7 -14 12 -36 12 -32 0 -34 -1 -15 -10 12 -5 20 -14 18 -20 -6 -19 -64 -47 -82
-40 -19 7 -17 21 10 94 11 28 15 62 12 93 l-4 47 32 0 c18 0 47 -10 66 -23z
m-1624 -21 c-6 -38 15 -142 32 -159 33 -33 -11 -57 -59 -32 -36 18 -39 38 -7
52 19 9 16 10 -20 9 -24 0 -43 -5 -44 -11 0 -12 -84 -75 -99 -75 -13 0 -13 6
4 61 35 115 99 189 163 189 35 0 36 -1 30 -34z m3941 -138 c-133 -175 -158
-220 -169 -296 -13 -90 -2 -211 27 -300 29 -87 29 -103 6 -132 -25 -31 -72
-22 -137 28 -48 36 -50 40 -62 107 -23 134 12 312 93 480 36 74 53 98 94 129
44 33 217 109 229 99 2 -1 -34 -53 -81 -115z m-6336 41 c116 -37 175 -83 220
-174 81 -161 109 -270 109 -424 1 -131 -5 -144 -86 -199 -60 -41 -102 -41
-124 0 -14 24 -14 32 2 75 45 127 58 274 33 370 -18 67 -38 99 -158 253 -54
69 -98 129 -98 133 0 4 9 3 20 -3 11 -6 48 -20 82 -31z m3744 -5 c-3 -9 -6
-25 -7 -37 -1 -20 -2 -20 -9 3 -13 39 -11 50 6 50 11 0 14 -5 10 -16z m-1144
-24 c-6 -41 -19 -44 -24 -5 -3 28 -1 35 11 33 11 -2 15 -12 13 -28z m1088 -7
l-1 -38 -19 24 c-25 29 -25 38 -2 44 9 3 18 5 20 6 1 0 2 -16 2 -36z m-1032
18 c10 -6 11 -13 1 -34 -17 -37 -29 -34 -29 8 0 36 5 41 28 26z m979 -46 c2
-40 -6 -44 -32 -15 -18 20 -18 21 1 35 27 20 29 19 31 -20z m86 5 c3 -14 1
-20 -6 -17 -7 2 -14 14 -15 26 -4 28 13 20 21 -9z m-1107 -28 c-11 -10 -15 4
-8 28 l7 25 3 -23 c2 -13 1 -26 -2 -30z m104 33 c10 -13 10 -19 -5 -35 -26
-28 -32 -25 -27 15 5 38 13 43 32 20z m1045 -5 c3 -5 1 -10 -4 -10 -6 0 -11 5
-11 10 0 6 2 10 4 10 3 0 8 -4 11 -10z m-1085 -12 c0 -19 -18 -43 -25 -36 -4
3 -2 16 5 27 12 24 20 27 20 9z m998 -24 c-10 -10 -28 6 -28 24 0 15 1 15 17
-1 9 -9 14 -19 11 -23z m355 29 c8 -7 -31 -53 -44 -53 -5 0 0 13 9 30 18 31
24 35 35 23z m-1704 -38 c19 -32 19 -35 2 -26 -26 14 -44 39 -36 51 9 15 11
13 34 -25z m1613 -17 c27 -11 46 -23 44 -26 -3 -2 -28 5 -55 17 -28 12 -79 23
-113 26 -44 3 -55 2 -38 -4 14 -5 20 -9 14 -10 -13 -1 -47 -33 -68 -63 -14
-20 -18 -21 -26 -8 -20 31 -11 57 23 68 26 8 28 10 9 11 -35 2 -107 -38 -93
-52 6 -6 11 -27 11 -48 0 -22 10 -50 26 -74 l25 -37 -23 5 c-13 3 -41 9 -63
13 -90 15 -96 38 -28 103 26 24 39 42 29 38 -37 -14 4 21 50 44 87 42 175 41
276 -3z m38 27 c-7 -8 -18 -15 -24 -15 -6 0 -2 7 8 15 25 19 32 19 16 0z m90
1 c0 -8 -5 -18 -11 -22 -8 -4 -7 -9 2 -15 9 -6 18 -3 26 8 7 9 16 14 19 10 10
-10 -17 -39 -31 -33 -7 2 -17 0 -23 -6 -8 -8 -10 -3 -8 18 2 16 4 35 5 42 1
17 21 15 21 -2z m-1786 -45 c-7 -8 -33 33 -27 43 3 5 12 -2 19 -15 7 -13 10
-26 8 -28z m1345 22 c2 -2 -3 -3 -11 -3 -9 0 -19 7 -22 16 -6 15 -4 15 11 3
10 -7 20 -15 22 -16z m-1259 7 c13 -8 13 -10 -2 -10 -9 0 -20 5 -23 10 -8 13
5 13 25 0z m296 -18 c22 -11 46 -27 53 -36 7 -8 -13 -1 -45 16 -83 45 -176 50
-261 14 -74 -31 -90 -33 -46 -6 52 31 93 40 178 36 57 -2 92 -9 121 -24z m59
9 c-3 -6 -14 -11 -23 -11 -15 1 -15 2 2 15 21 16 32 13 21 -4z m1300 -10 c-3
-6 -11 -11 -17 -11 -6 0 -6 6 2 15 14 17 26 13 15 -4z m-1782 -11 c3 -11 2
-20 -3 -20 -12 0 -31 26 -23 33 11 12 21 7 26 -13z m363 5 c32 -13 35 -18 29
-42 -4 -16 -8 -29 -10 -31 -2 -2 -24 17 -49 42 -37 38 -42 46 -25 46 11 0 36
-7 55 -15z m1278 9 c18 -7 21 -46 5 -76 -13 -23 -67 -48 -106 -48 -36 1 -65
23 -57 44 8 21 17 20 32 -4 15 -24 49 -26 74 -3 22 20 23 46 3 63 -8 7 -15 16
-15 21 0 10 41 12 64 3z m-1374 -14 c0 -5 -4 -10 -10 -10 -20 0 -23 -50 -5
-70 23 -25 47 -25 70 0 14 16 21 18 33 8 12 -10 11 -15 -8 -30 -47 -38 -143
-5 -165 56 -8 23 -6 30 10 42 22 16 75 19 75 4z m1308 -12 c17 -17 15 -43 -4
-59 -31 -26 -70 25 -44 56 15 18 32 19 48 3z m136 -15 c4 -9 4 -18 2 -21 -7
-6 -36 24 -36 37 0 15 27 2 34 -16z m182 -40 c-2 -3 -14 -2 -25 2 l-21 6 22
28 23 28 3 -30 c2 -16 1 -31 -2 -34z m-1924 28 c18 -32 15 -41 -14 -41 -14 0
-18 8 -18 35 0 43 10 44 32 6z m73 19 c3 -5 2 -10 -4 -10 -5 0 -13 5 -16 10
-3 6 -2 10 4 10 5 0 13 -4 16 -10z m125 2 c0 -5 -9 -17 -20 -27 -16 -14 -20
-15 -20 -4 0 16 19 39 32 39 4 0 8 -4 8 -8z m148 -4 c32 -32 -8 -80 -48 -58
-34 18 -19 70 20 70 9 0 21 -5 28 -12z m1122 -17 c0 -9 5 -22 11 -28 9 -9 8
-16 -4 -27 -14 -14 -16 -14 -21 0 -10 26 -7 86 4 79 6 -3 10 -14 10 -24z m415
9 c-10 -11 -21 -17 -24 -14 -3 3 3 12 13 20 28 20 32 17 11 -6z m-1428 -31
c-6 -48 -13 -57 -29 -41 -10 10 -10 17 0 32 6 11 12 27 12 35 0 8 5 15 11 15
8 0 10 -14 6 -41z m1363 13 l50 -29 -23 -20 c-32 -29 -98 -70 -127 -78 l-25
-7 22 23 c27 29 43 71 43 110 0 16 2 29 5 29 3 0 28 -13 55 -28z m-1785 7 c11
-17 -1 -21 -15 -4 -8 9 -8 15 -2 15 6 0 14 -5 17 -11z m115 -23 c0 -44 13 -79
40 -106 29 -29 3 -25 -55 10 -64 37 -103 70 -90 76 6 2 28 15 50 28 53 32 55
32 55 -8z m384 -11 c50 -48 53 -56 31 -75 -13 -11 -136 -41 -143 -35 -2 1 8
20 23 40 16 24 25 52 25 76 0 22 4 39 9 39 5 0 30 -20 55 -45z m1194 23 c17
-17 15 -49 -4 -76 -20 -28 -28 -28 -43 4 -9 21 -8 31 6 55 19 32 24 34 41 17z
m-1496 -67 c-2 -9 -10 -24 -17 -34 -13 -18 -15 -16 -35 23 -20 40 -20 43 -4
61 16 18 17 18 38 -9 11 -14 19 -33 18 -41z m1708 -10 c0 -26 3 -68 6 -93 l6
-45 -57 -28 c-47 -23 -74 -29 -155 -33 -126 -6 -150 0 -149 36 0 15 4 35 8 46
6 15 10 10 21 -25 l13 -44 12 50 c12 50 12 50 23 22 7 -15 15 -39 18 -52 10
-39 23 -29 17 13 -2 20 0 48 5 62 8 23 10 21 28 -30 l19 -55 3 60 c3 63 27
108 44 83 13 -21 9 -31 -7 -18 -8 7 -15 10 -15 7 0 -8 41 -77 46 -77 2 0 1 25
-2 55 -4 31 -3 55 2 55 5 0 26 -11 47 -25 35 -24 53 -21 23 4 -16 14 -29 58
-21 71 4 6 19 10 36 10 28 0 29 -1 29 -49z m-1907 5 c-1 -16 -10 -37 -19 -47
-27 -30 -8 -34 26 -5 17 14 36 26 41 26 5 0 6 -23 3 -55 -4 -30 -4 -55 -1 -55
3 0 15 17 27 38 l23 37 9 -25 c5 -14 8 -42 6 -62 -5 -52 5 -47 28 15 l19 52 3
-55 c4 -74 17 -82 33 -21 14 56 29 67 30 24 0 -16 4 -37 8 -47 6 -15 10 -10
21 29 11 39 15 44 21 29 4 -10 8 -33 8 -51 1 -30 -1 -32 -45 -39 -77 -11 -213
3 -264 29 l-45 22 0 80 c0 100 6 117 42 113 24 -3 28 -7 26 -32z m397 -27
c-16 -29 -26 -30 -39 -3 -9 20 -9 30 0 40 18 22 52 -11 39 -37z m1088 43 c10
-7 10 -15 2 -37 l-11 -29 -21 22 c-18 17 -19 23 -8 36 14 18 20 19 38 8z m163
-65 c-11 -11 -69 -26 -75 -19 -3 3 -6 19 -6 37 0 25 5 33 28 41 24 9 29 7 44
-20 9 -17 13 -34 9 -39z m-1371 13 c0 -45 -12 -53 -54 -36 -20 8 -36 17 -36
19 0 2 7 18 15 34 15 29 17 30 45 20 23 -9 30 -18 30 -37z m1554 34 c4 -10 1
-14 -6 -12 -15 5 -23 28 -10 28 5 0 13 -7 16 -16z m-276 -37 c3 -37 3 -38 -25
-31 -40 9 -46 18 -32 48 19 42 53 32 57 -17z m-1523 23 c-3 -5 -11 -10 -16
-10 -6 0 -7 5 -4 10 3 6 11 10 16 10 6 0 7 -4 4 -10z m303 -2 c17 -17 15 -58
-2 -58 -8 0 -21 -3 -30 -6 -13 -5 -16 1 -16 28 0 48 21 63 48 36z m252 -44 c0
-20 -18 -26 -42 -13 -33 17 -33 17 -7 38 22 18 25 19 37 4 6 -9 12 -22 12 -29z
m721 -1 c-9 -7 -22 -13 -29 -13 -18 0 -26 28 -12 45 10 13 15 12 35 -3 20 -15
21 -18 6 -29z m-1229 -5 c-9 -9 -12 -7 -12 12 0 19 3 21 12 12 9 -9 9 -15 0
-24z m1289 1 c-2 -8 -5 -32 -8 -54 l-5 -40 20 30 c28 43 57 66 74 60 15 -6 28
-46 28 -86 0 -18 -2 -18 -35 -5 -46 20 -45 4 3 -30 20 -16 41 -31 46 -36 12
-10 -103 25 -131 41 -13 6 -28 21 -34 32 -19 36 7 116 35 106 6 -3 9 -11 7
-18z m39 3 c0 -5 -9 -17 -21 -28 -21 -19 -21 -19 -8 9 12 26 29 37 29 19z
m310 -19 c0 -22 -2 -25 -10 -13 -13 20 -13 40 0 40 6 0 10 -12 10 -27z m-1579
-20 c-9 -16 -10 -14 -11 12 0 21 3 26 11 18 8 -8 8 -16 0 -30z m323 21 c9 -24
7 -28 -9 -14 -17 14 -20 30 -6 30 5 0 12 -7 15 -16z m1036 -4 c0 -5 -5 -10
-11 -10 -5 0 -7 5 -4 10 3 6 8 10 11 10 2 0 4 -4 4 -10z m160 -12 c0 -18 -2
-20 -9 -8 -6 8 -7 18 -5 22 9 14 14 9 14 -14z m-1457 -13 c-7 -21 -13 -19 -13
6 0 11 4 18 10 14 5 -3 7 -12 3 -20z m162 16 c3 -5 1 -12 -5 -16 -5 -3 -10 1
-10 9 0 18 6 21 15 7z m959 -79 c12 -20 91 -51 186 -73 122 -28 188 -64 228
-123 46 -69 45 -116 -6 -166 -86 -86 -217 -73 -258 26 -20 48 -17 72 11 99 44
45 126 20 124 -37 l0 -23 -9 22 c-11 27 -43 45 -65 37 -8 -4 -23 -20 -31 -36
-31 -59 19 -118 98 -118 53 0 84 20 103 67 26 62 20 108 -21 153 -39 43 -94
67 -213 94 -146 33 -202 82 -174 153 6 13 9 8 13 -22 3 -22 9 -46 14 -53z
m236 68 c0 -11 -4 -20 -10 -20 -5 0 -10 2 -10 4 0 2 -3 11 -6 20 -4 11 -1 16
10 16 9 0 16 -8 16 -20z m50 -1 c0 -11 -4 -17 -10 -14 -5 3 -10 13 -10 21 0 8
5 14 10 14 6 0 10 -9 10 -21z m-1350 4 c0 -5 -5 -15 -10 -23 -8 -12 -10 -11
-10 8 0 12 5 22 10 22 6 0 10 -3 10 -7z m53 -13 c-3 -11 -9 -20 -14 -20 -5 0
-9 9 -9 20 0 11 6 20 14 20 9 0 12 -7 9 -20z m36 -46 c1 -25 -4 -33 -21 -37
-12 -4 -23 -5 -25 -3 -2 1 4 27 13 57 14 44 18 50 25 34 4 -11 8 -34 8 -51z
m1188 13 c7 -23 11 -43 9 -44 -8 -9 -55 18 -52 29 3 7 7 26 11 42 7 35 16 28
32 -27z m1318 -163 c-16 -170 -44 -357 -71 -466 -9 -37 -14 -73 -12 -80 3 -7
13 21 23 61 l18 75 28 -33 c15 -19 42 -60 59 -93 30 -55 31 -60 12 -54 -32 10
-78 -19 -106 -67 -40 -68 -58 -173 -58 -329 0 -76 -3 -138 -6 -138 -4 0 -32 7
-62 15 -30 8 -70 15 -87 15 -45 0 -44 26 4 87 20 27 51 80 69 119 39 83 104
280 103 309 -1 20 -5 8 -55 -150 -31 -95 -93 -228 -127 -269 l-24 -30 -5 215
-5 214 56 95 c122 203 211 434 246 634 14 84 14 21 0 -130z m-2215 106 c13
-48 0 -80 -32 -80 -21 0 -21 0 -2 21 12 13 18 33 17 60 -2 50 3 50 17 -1z
m-1635 -51 c36 -173 138 -415 247 -589 l53 -85 0 -218 0 -218 -27 33 c-85 104
-184 393 -243 708 -17 92 -55 389 -55 429 0 40 8 20 25 -60z m1088 31 c65 -10
175 -2 246 20 19 5 37 8 39 6 10 -11 -80 -45 -146 -55 -115 -18 -221 0 -261
43 l-23 24 40 -14 c22 -7 69 -18 105 -24z m3770 -293 c63 -30 127 -13 127 35
0 26 18 22 31 -6 37 -81 -61 -136 -164 -93 -70 30 -147 117 -147 168 0 18 9
13 59 -33 32 -30 74 -62 94 -71z m-5753 -12 c-34 -49 -99 -92 -162 -106 -33
-8 -48 -6 -80 10 -22 11 -37 14 -35 7 6 -19 70 -36 112 -29 42 6 109 36 120
53 3 5 11 10 17 10 15 0 -19 -37 -66 -71 -31 -23 -50 -29 -91 -29 -48 0 -56 3
-85 37 -18 20 -28 39 -22 41 6 2 9 17 6 35 -3 20 1 40 11 51 8 11 16 18 17 15
2 -2 10 -17 18 -34 33 -63 124 -39 220 59 43 44 45 45 48 21 2 -15 -9 -42 -28
-70z m3811 -175 c-6 -91 -13 -219 -17 -285 l-6 -120 -56 -100 c-30 -55 -75
-131 -100 -170 -49 -77 -152 -208 -159 -201 -2 2 10 26 27 54 129 211 236 556
290 937 11 77 21 144 22 150 8 46 8 -133 -1 -265z m1917 116 c50 -26 136 -24
172 3 39 28 39 11 -1 -28 -48 -48 -126 -43 -186 12 -13 11 -26 17 -30 13 -4
-4 -2 -10 4 -14 12 -7 73 -120 73 -134 0 -4 -9 -10 -21 -13 -11 -4 -28 -20
-38 -36 l-18 -29 -19 23 c-47 53 -47 54 -25 83 25 32 26 59 6 107 -21 50 -18
67 5 37 10 -14 22 -21 26 -17 4 4 -1 17 -12 29 l-19 23 25 -21 c14 -12 40 -29
58 -38z m-5733 -36 c-20 -58 -19 -100 5 -125 20 -21 20 -21 -6 -58 -13 -20
-28 -37 -32 -37 -5 0 -21 14 -37 30 -16 17 -34 30 -41 30 -18 0 41 115 85 167
20 22 37 40 39 39 1 -2 -5 -22 -13 -46z m5959 -5 c13 -20 13 -25 2 -32 -25
-15 -40 -58 -45 -132 l-6 -74 -58 59 c-49 49 -117 147 -117 167 0 3 22 -2 49
-10 46 -15 50 -15 95 6 25 13 46 27 46 32 0 17 18 9 34 -16z m-6160 -70 c20
-4 47 -1 71 9 20 9 39 16 42 16 15 0 -71 -131 -117 -177 l-55 -56 -6 69 c-5
67 -17 102 -45 135 -11 13 -11 19 2 37 l15 23 30 -25 c16 -14 44 -28 63 -31z
m6257 -39 c148 -147 292 -193 475 -150 102 23 199 77 313 173 66 56 54 27 -26
-59 -64 -69 -154 -136 -228 -168 -127 -55 -294 -70 -435 -37 -95 22 -208 80
-221 112 -20 52 -5 148 27 184 10 11 18 19 19 19 1 0 35 -33 76 -74z m-6356
-12 c23 -47 27 -152 6 -177 -23 -29 -148 -85 -227 -103 -56 -12 -105 -15 -187
-12 -184 8 -316 68 -453 204 -93 93 -119 137 -43 73 138 -117 303 -189 433
-189 134 0 252 56 361 173 39 41 75 74 80 73 6 -1 19 -20 30 -42z m7160 -35
c-104 -188 -349 -292 -618 -261 -123 14 -289 69 -414 138 -122 68 -130 75
-115 109 6 14 23 31 38 37 24 11 29 9 67 -32 92 -98 173 -149 302 -190 99 -31
289 -31 390 0 123 38 202 87 295 180 47 47 86 85 88 84 1 -1 -13 -30 -33 -65z
m-5026 -374 c0 -126 -3 -282 -8 -345 -23 -286 -89 -541 -183 -697 -33 -55
-110 -143 -125 -143 -15 0 -114 167 -146 248 l-17 42 58 42 c175 128 276 323
343 662 18 92 33 235 55 511 l8 100 7 -95 c4 -52 7 -198 8 -325z m-870 313
c58 -232 123 -393 203 -498 21 -28 38 -56 38 -63 0 -7 -33 -19 -83 -28 -45 -9
-89 -20 -97 -23 -13 -5 -15 10 -12 111 3 91 -1 141 -17 217 -29 138 -76 206
-143 206 l-29 0 32 58 c37 65 70 112 79 112 3 0 16 -42 29 -92z m-2075 -57
c74 -59 139 -95 226 -124 56 -19 86 -22 220 -21 151 0 157 1 238 33 92 36 210
119 257 181 17 21 37 39 46 40 19 0 69 -47 69 -64 0 -18 -47 -50 -162 -111
-206 -108 -412 -151 -589 -123 -109 18 -217 63 -300 126 -55 42 -74 67 -123
157 l-27 50 41 -47 c23 -26 70 -70 104 -97z m7134 -106 c254 -89 484 -72 692
50 l45 26 -50 -46 c-63 -58 -117 -91 -203 -121 -176 -62 -429 -8 -644 137 -82
56 -78 61 10 17 43 -20 110 -49 150 -63z m-1195 83 c21 -17 69 -149 97 -269
19 -83 21 -119 18 -255 -1 -87 -6 -164 -11 -171 -4 -7 -28 10 -70 51 -40 41
-85 73 -128 94 -61 28 -67 33 -72 69 -10 55 -8 196 3 278 20 155 98 252 163
203z m-3929 -29 c69 -54 114 -249 100 -429 l-6 -85 -58 -28 c-71 -33 -152 -96
-176 -137 -10 -16 -21 -30 -25 -30 -15 0 -32 172 -26 272 9 165 72 403 118
441 28 22 41 22 73 -4z m-1079 -24 c-62 -53 -179 -116 -282 -152 -108 -38
-233 -51 -331 -34 -82 13 -197 69 -258 125 l-49 45 76 -39 c149 -77 325 -98
505 -61 97 21 238 74 319 120 65 38 68 37 20 -4z m3979 -182 c-3 -16 -17 -65
-31 -109 -14 -45 -23 -92 -21 -105 2 -15 11 8 22 56 11 44 23 84 28 90 4 5 8
-22 8 -60 0 -39 7 -131 15 -206 9 -97 11 -165 5 -235 -14 -151 -62 -434 -101
-589 l-17 -70 -3 320 c-2 260 -4 291 -9 165 -5 -170 -8 -177 -81 -238 -26 -21
-28 -22 -58 -5 -29 17 -31 17 -58 -3 -15 -12 -33 -36 -39 -54 -6 -18 -26 -46
-45 -61 -39 -33 -54 -37 -44 -11 7 17 36 134 76 302 11 47 30 121 41 166 11
45 18 89 16 99 -1 11 -11 -15 -21 -56 -87 -369 -129 -527 -145 -549 -24 -32
-117 -88 -160 -96 -26 -5 -38 -2 -56 15 -27 26 -71 27 -91 4 -8 -10 -24 -28
-34 -40 -12 -13 -42 -26 -78 -33 -95 -20 -253 2 -253 35 0 18 -48 55 -71 55
-9 0 -30 -11 -46 -24 -27 -22 -30 -23 -75 -10 -51 16 -73 40 -103 114 -22 56
-81 237 -101 310 -79 290 -96 360 -85 360 4 0 27 -24 51 -52 100 -120 211
-211 315 -257 162 -73 276 -86 408 -47 188 56 284 124 479 341 14 17 41 41 59
55 29 22 32 23 26 5 -11 -26 -21 -105 -14 -105 3 0 13 35 23 78 13 56 28 91
57 129 44 59 152 238 182 301 23 47 38 56 29 15z m-1893 -78 c69 -131 144
-246 199 -308 50 -56 53 -62 86 -195 62 -247 140 -503 176 -575 11 -22 17 -41
15 -43 -2 -3 -39 21 -81 53 -57 42 -82 68 -96 100 -23 53 -52 66 -99 47 -34
-14 -34 -14 -81 33 l-47 48 -8 160 c-4 88 -11 185 -16 215 -6 41 -7 26 -3 -55
7 -192 14 -660 9 -650 -8 19 -86 401 -104 510 -31 198 -34 243 -22 345 6 55
11 127 11 159 0 32 3 80 7 106 l6 48 19 -63 c11 -35 30 -124 43 -199 15 -89
24 -121 24 -92 1 52 -42 267 -69 347 -18 51 -27 104 -16 93 2 -2 23 -40 47
-84z m3085 -172 c51 -120 64 -176 64 -282 0 -112 -18 -219 -45 -271 -45 -88
-25 -192 51 -259 24 -21 44 -41 44 -45 0 -3 -29 9 -64 28 -69 37 -161 61 -207
54 -35 -5 -34 -7 -8 77 14 47 31 77 59 105 25 25 44 57 54 91 18 59 21 167 7
216 -7 22 -5 61 5 120 8 49 14 114 14 146 0 31 2 57 5 57 3 0 12 -17 21 -37z
m-4293 -100 c4 -60 11 -124 17 -144 7 -25 7 -45 0 -64 -5 -14 -10 -60 -10
-100 0 -98 28 -173 81 -218 21 -19 39 -41 39 -50 0 -9 9 -39 20 -67 11 -28 20
-52 20 -54 0 -2 -31 -6 -68 -8 -73 -5 -169 -42 -209 -80 -13 -12 -26 -19 -29
-15 -4 4 18 31 49 61 47 46 57 63 63 101 8 60 -1 125 -24 173 -24 46 -42 167
-42 275 0 59 7 103 24 157 30 95 49 140 57 140 3 0 9 -48 12 -107z m3825 91
c30 -6 30 -6 13 -35 -24 -43 -7 -60 97 -95 129 -44 178 -78 213 -146 28 -55
24 -56 -28 -4 -27 27 -81 63 -123 84 -70 35 -81 37 -168 37 l-94 0 7 75 c4 41
9 78 12 83 5 9 30 9 71 1z m124 -35 c136 -46 240 -130 277 -225 23 -61 29
-158 9 -152 -14 5 -16 8 -67 118 -47 100 -74 121 -223 173 -77 27 -94 37 -96
56 -4 22 13 51 30 51 5 0 36 -9 70 -21z m-3546 -16 c33 -44 14 -62 -107 -102
-112 -37 -156 -71 -190 -149 -49 -109 -63 -135 -78 -140 -11 -4 -13 8 -9 62 7
85 45 163 104 215 51 45 208 124 258 130 5 1 15 -7 22 -16z m3496 -124 c78
-16 163 -65 219 -126 l49 -55 1 -81 c1 -75 2 -78 11 -42 5 22 8 54 6 71 l-4
30 33 -32 32 -33 -17 -46 c-9 -26 -29 -61 -44 -78 l-27 -32 5 40 c3 22 -13
-16 -35 -85 -22 -69 -41 -130 -41 -135 0 -6 17 -9 40 -7 38 4 40 3 40 -23 0
-40 15 -61 57 -78 109 -44 210 -155 228 -252 5 -22 7 -123 6 -224 -2 -160 0
-186 15 -202 9 -11 26 -19 36 -19 19 0 19 -1 1 -31 -36 -61 -181 -174 -200
-155 -3 2 9 41 26 85 17 44 31 91 30 103 0 13 -17 -26 -39 -85 -40 -113 -83
-194 -136 -255 l-32 -37 -12 26 c-10 23 -9 31 13 65 71 113 144 283 178 416
42 160 10 282 -81 309 -57 17 -107 0 -163 -57 -62 -63 -145 -221 -169 -321 -5
-24 -13 -43 -16 -43 -4 1 -26 18 -50 39 l-43 37 26 38 c14 20 34 54 44 74 11
22 40 51 69 70 77 49 95 110 69 222 -13 52 -12 60 11 123 23 63 26 66 51 60
78 -18 185 -94 237 -166 72 -100 87 -196 58 -365 -8 -51 -14 -100 -12 -109 3
-10 12 25 22 78 26 140 19 265 -18 341 -48 98 -161 193 -269 228 -33 10 -38
15 -31 34 4 11 7 111 8 221 1 199 1 200 -27 260 -52 112 -128 162 -199 132
-82 -35 -120 -125 -126 -300 l-4 -119 -25 7 c-14 3 -39 9 -55 12 -21 4 -27 10
-23 22 39 101 97 328 107 421 2 19 11 26 33 31 48 10 80 10 137 -2z m-3372
-41 c5 -13 19 -68 30 -123 11 -56 36 -149 55 -209 20 -59 35 -109 33 -110 -2
-2 -24 -10 -50 -18 l-48 -15 -1 56 c0 31 -4 76 -8 101 -7 37 -9 26 -10 -60
l-1 -105 -46 -24 c-83 -45 -171 -166 -198 -275 -4 -17 -11 -25 -16 -20 -25 26
-79 304 -80 411 -1 181 88 333 193 333 52 0 104 -67 133 -170 10 -35 12 -39
13 -18 2 47 -38 135 -75 167 -59 52 -146 38 -196 -31 -35 -49 -48 -78 -64
-138 -17 -64 -18 -228 -3 -300 30 -140 -26 7 -78 205 -19 72 -22 80 -18 40 2
-27 7 -61 11 -75 l7 -25 -27 25 c-31 31 -71 133 -53 138 7 2 22 16 34 30 15
18 23 22 23 12 0 -8 11 8 24 36 17 37 40 64 80 94 84 64 156 89 249 90 71 0
78 -2 87 -22z m3445 -70 c71 -62 105 -162 105 -315 0 -101 -22 -241 -56 -352
l-16 -55 -20 50 c-55 139 -106 206 -195 256 l-53 30 0 81 c0 149 46 297 101
324 45 23 95 16 134 -19z m422 -61 c7 -34 16 -153 19 -264 6 -174 5 -203 -7
-203 -17 0 -71 54 -88 87 -20 38 -13 127 15 200 19 48 28 95 31 161 3 51 9 90
12 86 3 -3 12 -33 18 -67z m-1237 29 c0 -13 12 -68 27 -122 14 -55 34 -142 44
-194 13 -69 18 -84 18 -55 l2 40 41 -80 c26 -49 65 -103 100 -138 32 -32 58
-65 58 -72 0 -24 -70 -217 -127 -350 -192 -448 -452 -854 -716 -1120 l-99
-100 46 65 c234 328 412 624 518 865 95 213 180 507 177 612 -1 26 -3 37 -6
23 -30 -195 -66 -332 -147 -547 -28 -76 -128 -275 -204 -408 -160 -281 -467
-715 -505 -715 -4 0 4 19 18 42 107 175 289 587 410 928 20 58 45 128 55 155
10 28 38 109 60 180 23 72 48 149 56 172 44 136 135 603 150 766 4 42 11 77
15 77 5 0 9 -11 9 -24z m-3236 -196 c8 -25 21 -63 30 -85 32 -85 11 -174 -55
-229 -25 -21 -34 -24 -40 -14 -22 34 -7 345 23 488 l12 55 7 -85 c4 -47 14
-105 23 -130z m1232 -8 c37 -219 81 -418 125 -572 26 -91 135 -418 157 -470 6
-14 19 -50 30 -80 127 -345 283 -693 394 -878 31 -50 53 -92 48 -92 -26 0
-190 213 -371 484 -330 492 -509 951 -509 1306 0 80 24 264 40 305 6 16 18 66
26 110 19 102 27 121 32 70 2 -22 14 -104 28 -183z m-134 -276 c-6 -229 52
-477 179 -761 48 -108 161 -323 210 -400 98 -154 230 -349 298 -439 45 -60 80
-110 78 -112 -5 -5 -166 161 -243 252 -263 307 -540 795 -683 1202 l-37 106
57 57 c39 39 71 85 100 143 23 47 43 86 43 86 1 0 0 -60 -2 -134z m2736 99
c106 -53 160 -118 212 -252 42 -109 60 -212 46 -266 -6 -24 -60 -87 -74 -87
-4 0 -7 46 -7 103 0 98 -1 104 -35 162 -68 118 -238 255 -317 255 -12 0 -23 2
-23 5 0 2 11 29 24 60 24 53 26 55 64 55 25 0 65 -13 110 -35z m-3068 -35 c16
-33 30 -62 30 -65 0 -3 -10 -5 -22 -5 -50 0 -151 -60 -219 -130 -113 -116
-160 -246 -130 -355 6 -21 9 -41 6 -43 -2 -2 -18 6 -35 18 -81 58 -81 161 2
373 50 127 135 206 266 248 31 10 60 18 64 18 4 1 21 -26 38 -59z m2303 40
c-6 -21 -67 -80 -83 -80 -20 0 -9 20 33 59 47 46 57 50 50 21z m-1659 -35 c28
-25 45 -49 41 -55 -8 -14 -95 66 -95 87 0 18 1 18 54 -32z m1538 -22 c12 -11
18 -30 18 -59 0 -82 -80 -106 -110 -33 -30 72 38 141 92 92z m122 -1 c-5 -17
-84 -67 -84 -53 0 9 69 71 80 71 4 0 6 -8 4 -18z m-1660 -27 c45 -40 42 -43
-14 -15 -22 11 -40 27 -40 35 0 22 11 18 54 -20z m150 13 c36 -51 9 -128 -45
-128 -54 0 -77 91 -33 134 22 23 60 20 78 -6z m1516 -70 c0 -16 -5 -28 -12
-28 -18 0 -78 23 -78 30 0 3 17 16 37 27 42 24 53 18 53 -29z m1317 17 c91
-46 154 -113 203 -218 48 -102 75 -240 66 -342 -12 -148 -56 -227 -98 -175
-17 22 -18 37 -12 194 6 147 4 180 -11 234 -30 105 -106 191 -213 242 -34 16
-55 34 -63 52 -24 59 26 64 128 13z m-2982 1 c33 -27 28 -39 -16 -50 -25 -5
-27 -3 -31 34 -4 47 5 50 47 16z m2323 -6 c124 -58 257 -224 269 -334 l4 -41
-35 64 c-44 80 -77 115 -134 142 -76 37 -135 13 -188 -77 -29 -50 -84 -206
-83 -236 0 -13 11 12 24 56 50 162 121 266 181 266 64 0 150 -77 197 -178 36
-77 36 -95 4 -166 -25 -55 -135 -225 -204 -315 -33 -44 -34 -44 -40 -20 -8 33
-116 242 -142 275 -12 15 -21 32 -21 40 0 7 -3 14 -8 16 -8 3 -74 94 -91 126
-9 17 -5 35 19 99 17 43 35 98 41 123 6 25 29 77 52 117 50 85 60 88 155 43z
m-3492 12 c17 -10 46 -84 37 -92 -5 -3 -28 -15 -53 -25 -197 -83 -301 -252
-272 -445 l10 -65 1 110 c1 99 4 116 30 171 31 66 108 149 174 187 45 26 116
52 123 45 15 -16 50 -137 43 -153 -4 -11 -8 -53 -8 -94 -1 -88 20 -131 79
-161 27 -14 49 -38 76 -82 20 -35 44 -72 53 -82 13 -15 13 -20 3 -24 -8 -2
-29 -18 -48 -34 -19 -17 -36 -29 -38 -27 -1 2 -13 31 -25 64 -62 168 -158 312
-228 341 -68 29 -142 5 -175 -57 -30 -57 -25 -190 13 -303 34 -102 109 -265
157 -340 36 -56 38 -65 19 -90 -12 -16 -17 -13 -54 36 -93 123 -131 218 -186
473 -3 11 -5 4 -6 -16 -1 -41 50 -232 78 -290 22 -45 17 -47 -44 -18 -41 19
-165 138 -165 159 0 5 10 10 22 12 42 6 47 38 41 233 -5 157 -4 188 12 235 29
91 98 167 198 221 60 32 83 64 72 100 -5 16 -1 19 22 19 15 0 33 -4 39 -8z
m-76 -29 c0 -38 -6 -44 -71 -76 -78 -39 -144 -106 -180 -180 l-29 -62 0 -211
c0 -225 -3 -239 -48 -227 -17 4 -27 22 -44 77 -57 181 1 448 124 583 60 64
165 121 226 123 18 0 22 -5 22 -27z m678 -35 c22 -35 48 -88 57 -118 10 -30
31 -90 47 -133 l30 -78 -32 -52 c-17 -29 -39 -63 -49 -76 l-18 -23 -17 69
c-10 37 -36 105 -57 149 -44 94 -93 144 -140 144 -86 0 -181 -92 -223 -214
-13 -39 -17 -5 -6 50 27 127 167 283 297 329 61 22 68 19 111 -47z m1994 11
c-2 -13 -5 -24 -5 -25 -46 -25 -269 -134 -286 -139 -43 -13 -18 16 27 32 58
19 148 74 202 122 49 44 67 47 62 10z m-1170 -30 c61 -49 192 -119 223 -119 8
0 15 -7 15 -15 0 -18 -4 -18 -28 -5 -9 5 -73 37 -142 70 -121 59 -150 80 -150
107 0 23 18 14 82 -38z m1357 27 c41 -12 68 -36 41 -36 -13 0 -90 38 -90 45 0
6 -2 7 49 -9z m-1569 -1 c0 -5 -75 -45 -85 -45 -18 0 0 22 28 34 33 15 57 19
57 11z m1374 -143 c-27 -66 -52 -118 -56 -116 -4 3 3 27 17 54 13 26 32 77 41
112 25 96 23 93 35 81 8 -8 -3 -45 -37 -131z m240 3 c-7 -87 -15 -105 -37 -86
-31 25 -86 198 -69 215 2 3 28 -7 58 -22 l54 -26 -6 -81z m-1609 48 c-20 -87
-54 -155 -74 -151 -13 3 -17 20 -19 90 l-3 87 48 25 c26 13 51 21 55 18 4 -4
1 -35 -7 -69z m134 7 c7 -30 27 -83 43 -118 16 -35 27 -66 24 -69 -2 -3 -11
10 -19 28 -8 19 -31 71 -52 117 -20 46 -34 91 -30 100 9 23 20 4 34 -58z
m1369 -21 c12 -45 32 -95 44 -111 21 -30 21 -31 3 -44 -10 -8 -22 -14 -26 -14
-3 0 -9 30 -13 66 -4 36 -16 89 -26 117 -22 58 -24 67 -12 67 5 0 19 -36 30
-81z m-1463 49 c-23 -73 -45 -167 -45 -195 0 -36 -2 -38 -30 -23 -18 10 -18
12 5 58 14 26 32 77 41 115 9 37 21 67 27 67 5 0 6 -10 2 -22z m1300 -42 c-38
-50 -105 -80 -190 -84 -38 -2 -68 -2 -64 2 3 3 66 36 140 73 140 71 163 73
114 9z m119 32 c29 -71 29 -75 -2 -70 -18 2 -33 -3 -44 -15 -20 -22 -68 -143
-69 -176 -1 -15 -4 -11 -10 13 -5 20 -5 44 0 55 5 11 21 49 36 85 49 118 60
140 68 140 4 0 14 -15 21 -32z m-1320 -111 c45 -107 53 -140 38 -164 -5 -8
-13 10 -20 45 -7 32 -26 80 -42 106 -28 44 -34 48 -61 42 -35 -7 -36 2 -8 63
25 57 33 50 93 -92z m264 9 c12 -4 22 -12 22 -18 0 -7 -22 -9 -65 -6 -105 9
-215 74 -215 128 0 15 21 8 118 -40 65 -31 128 -61 140 -64z m631 48 c12 -15
21 -39 21 -54 0 -32 -34 -80 -58 -80 -8 0 -26 10 -39 22 -30 28 -31 83 -1 115
28 30 52 29 77 -3z m-475 -6 c53 -75 -28 -172 -83 -102 -40 51 -17 124 39 124
18 0 34 -8 44 -22z m-373 -14 c28 -34 92 -56 176 -62 46 -2 83 -8 83 -11 -1
-3 -39 -24 -86 -46 l-84 -41 -15 23 c-9 13 -21 23 -28 23 -13 0 -47 53 -66
103 -12 30 -1 36 20 11z m1145 -35 c-8 -19 -35 -53 -59 -75 l-44 -41 -39 24
c-21 13 -58 28 -82 35 -64 16 -46 32 44 38 76 5 164 36 182 64 13 22 12 -12
-2 -45z m-2054 -10 c39 -43 96 -169 118 -262 12 -50 12 -62 0 -80 -48 -76
-104 -182 -126 -239 l-26 -68 -22 28 c-37 44 -181 253 -212 306 -38 68 -37
122 4 204 52 101 139 168 202 156 14 -2 41 -23 62 -45z m2207 15 c14 -18 21
-41 21 -73 0 -46 -1 -47 -64 -89 -35 -23 -67 -42 -70 -42 -11 0 -6 75 9 123
17 56 50 107 70 107 7 0 23 -12 34 -26z m-1398 -1 c34 -40 60 -118 57 -166
l-3 -47 -69 42 -68 42 6 55 c9 79 45 113 77 74z m818 -24 c-62 -38 -319 -28
-319 13 0 6 9 7 23 3 46 -15 221 -17 262 -3 39 13 62 4 34 -13z m-7 -51 c-26
-3 -109 -7 -185 -7 -127 -1 -138 0 -135 17 3 12 12 16 33 14 136 -11 206 -11
255 1 48 11 56 11 67 -3 10 -13 5 -16 -35 -22z m-437 -8 c0 -8 -11 -17 -25
-20 -48 -13 -108 -50 -162 -99 -38 -35 -58 -47 -68 -41 -11 7 -2 19 36 55 62
59 86 75 148 102 54 24 71 24 71 3z m690 -11 c36 -17 75 -44 87 -60 12 -16 27
-29 33 -29 7 0 20 -9 30 -20 14 -16 16 -23 7 -32 -9 -9 -21 -4 -50 24 -54 53
-143 108 -172 107 -24 -1 -24 -1 5 -11 61 -22 185 -115 185 -139 0 -21 -143
-82 -171 -74 -21 7 -35 50 -44 145 -3 36 -8 77 -11 93 -7 37 17 36 101 -4z
m-192 -3 c36 13 14 -7 -37 -36 -30 -17 -60 -38 -66 -45 -15 -18 -30 -19 -30
-2 0 6 25 25 55 41 31 16 54 31 51 33 -2 2 -31 -9 -64 -26 -36 -18 -63 -27
-67 -21 -3 6 -12 10 -20 10 -8 0 -1 -12 16 -29 23 -24 29 -38 29 -74 0 -117
-128 -134 -156 -20 -8 31 12 79 44 103 16 14 20 20 10 20 -9 0 -21 -7 -28 -15
-11 -13 -16 -12 -44 2 -17 9 -44 26 -59 37 l-29 21 184 5 c100 3 186 1 189 -3
3 -4 13 -5 22 -1z m107 -203 c0 -7 -4 -13 -8 -13 -5 0 -15 33 -22 73 -7 39
-19 84 -26 99 -18 36 -18 46 4 50 14 3 20 -12 34 -97 10 -55 17 -106 18 -112z
m508 159 c-10 -24 -31 -40 -90 -70 -72 -36 -78 -37 -84 -19 -7 23 -14 16 92
87 92 61 107 61 82 2z m-1528 -27 c41 -27 77 -50 79 -52 3 -2 -2 -10 -10 -18
-13 -14 -24 -11 -91 21 -67 33 -77 41 -87 74 -15 51 -14 54 12 38 12 -9 56
-37 97 -63z m464 66 c3 -5 -3 -38 -14 -73 -10 -34 -22 -82 -26 -105 -3 -24
-10 -41 -14 -38 -4 2 -3 28 1 57 5 29 11 79 15 111 4 39 10 57 19 57 8 0 16
-4 19 -9z m804 -22 c3 -30 -18 -52 -42 -43 -16 6 -23 54 -9 68 16 16 48 1 51
-25z m-1058 6 c15 -19 -1 -65 -23 -65 -29 0 -51 53 -30 73 11 12 40 7 53 -8z
m359 -30 c44 -32 63 -55 46 -55 -7 0 -125 92 -125 98 0 8 29 -7 79 -43z m2282
22 c25 -16 39 -38 53 -79 18 -52 19 -62 7 -140 -8 -45 -27 -119 -43 -163 -30
-84 -126 -286 -151 -319 -14 -19 -16 -18 -36 23 -35 68 -91 152 -137 208 -24
28 -44 60 -44 71 0 26 42 137 81 215 61 121 148 207 210 207 14 0 41 -10 60
-23z m-2439 -37 c-4 -68 -23 -154 -36 -162 -6 -4 -20 -8 -31 -8 -32 0 -145 58
-145 74 0 18 91 96 145 124 58 31 70 26 67 -28z m542 4 c6 -18 3 -20 -24 -16
-25 4 -37 -2 -65 -32 -31 -33 -37 -36 -57 -25 -22 12 -22 12 17 46 22 19 56
43 75 53 37 19 41 17 54 -26z m-388 -28 c49 -43 49 -44 30 -65 l-19 -20 -28
38 c-28 39 -60 58 -79 46 -13 -8 -13 8 1 39 14 30 25 26 95 -38z m-1848 17
c65 -49 151 -196 197 -334 l18 -57 -38 -46 c-49 -61 -132 -192 -147 -233 -7
-18 -15 -33 -18 -33 -10 0 -105 176 -144 267 -75 176 -97 329 -58 403 38 71
121 86 190 33z m2569 -18 c8 -22 -6 -33 -17 -15 -13 20 -12 30 0 30 6 0 13 -7
17 -15z m692 -30 c29 -44 31 -49 35 -186 5 -142 30 -279 63 -342 31 -61 97
-56 132 10 18 34 20 36 21 13 1 -72 -55 -151 -117 -166 -67 -17 -88 29 -134
295 -23 138 -51 223 -81 253 -18 18 -19 22 -5 56 33 81 47 112 51 112 3 0 18
-20 35 -45z m-1823 19 c-3 -9 -6 -18 -6 -20 0 -3 -4 -3 -10 1 -11 7 -2 35 12
35 6 0 7 -7 4 -16z m806 -1 c14 -12 18 -31 18 -83 l0 -68 -42 -10 c-23 -6 -43
-10 -44 -9 0 1 -8 22 -16 47 -8 25 -18 53 -23 62 -5 12 2 26 23 48 34 34 57
38 84 13z m-1449 -55 c32 -76 32 -72 6 -110 -30 -41 -44 -95 -74 -276 -39
-229 -63 -282 -122 -267 -70 17 -127 93 -121 159 l3 31 20 -40 c22 -45 64 -67
93 -49 52 33 91 197 96 405 4 118 6 129 31 168 15 22 31 41 34 41 4 0 19 -28
34 -62z m1991 47 c-4 -8 -13 -15 -21 -15 -8 0 -43 -27 -77 -60 -42 -40 -71
-60 -87 -60 -13 0 -63 -12 -112 -26 -98 -30 -161 -76 -172 -123 -3 -16 -15
-46 -26 -67 -10 -21 -19 -50 -19 -64 0 -25 -3 -24 -53 26 -135 130 -336 124
-457 -13 l-38 -43 -7 37 c-4 21 -13 49 -20 63 -7 14 -19 41 -28 62 -28 65
-120 114 -252 133 -42 7 -60 17 -113 66 -34 33 -71 59 -81 59 -11 0 -21 7 -25
15 -3 8 -3 15 -1 15 18 0 136 -64 155 -85 13 -14 31 -25 39 -25 29 0 145 -41
218 -75 84 -41 97 -42 117 -14 l15 22 125 -23 125 -23 123 27 c68 14 128 26
133 26 6 0 15 -10 20 -22 12 -28 41 -35 63 -15 30 25 233 107 268 107 12 0 29
9 37 20 13 19 131 89 149 90 4 0 5 -7 2 -15z m-977 -17 c39 -43 43 -60 26
-112 -16 -47 -16 -48 -52 -41 -46 8 -61 28 -61 81 0 89 41 122 87 72z m808
-28 c0 -31 -3 -35 -25 -35 -29 0 -40 36 -19 61 21 26 44 12 44 -26z m-1197 -4
c4 -35 -9 -50 -37 -41 -37 12 -20 80 19 73 8 -2 16 -16 18 -32z m1352 10 c0
-72 -108 -204 -221 -269 -56 -33 -95 -34 -126 -5 -16 15 -35 22 -58 21 -41 -1
-43 5 -14 41 30 38 102 71 199 92 81 17 88 21 145 76 62 60 75 67 75 44z
m-1481 -55 c58 -56 65 -60 134 -71 99 -17 170 -45 206 -82 40 -41 40 -56 0
-50 -23 3 -37 -2 -59 -23 -25 -24 -34 -27 -67 -20 -58 10 -116 49 -193 127
-47 48 -74 85 -84 116 -28 82 -19 82 63 3z m847 4 c8 -19 14 -46 14 -60 0 -20
-5 -25 -25 -25 -20 0 -25 5 -25 26 0 14 -7 38 -16 54 -10 15 -14 35 -11 44 10
25 45 2 63 -39z m-252 -4 c-8 -14 -17 -41 -20 -58 -6 -32 -24 -37 -24 -7 0 28
43 116 50 103 4 -6 1 -23 -6 -38z m676 7 c0 -4 -6 -8 -12 -8 -18 0 -170 -60
-185 -72 -10 -8 -13 -5 -13 11 0 12 6 21 15 21 21 0 152 66 161 81 5 9 11 7
21 -6 7 -11 13 -22 13 -27z m-957 -47 c20 -4 33 -14 35 -25 3 -15 0 -17 -14
-11 -11 4 -55 21 -99 38 -92 34 -98 38 -90 60 6 13 16 10 72 -20 36 -20 79
-39 96 -42z m487 -22 c0 -30 -25 -39 -105 -39 -79 0 -105 9 -105 39 0 14 5 33
10 41 7 12 13 11 35 -10 36 -34 91 -33 119 2 19 23 22 24 34 10 6 -9 12 -28
12 -43z m1278 -22 c79 -128 125 -233 124 -277 -2 -54 -17 -86 -48 -106 -50
-33 -84 14 -114 161 -24 117 -38 305 -23 305 6 0 33 -37 61 -83z m-2702 -191
c-20 -148 -47 -210 -93 -214 -28 -3 -36 2 -53 30 -43 68 -12 178 107 373 l48
78 3 -76 c2 -42 -4 -128 -12 -191z m1660 233 c23 -25 9 -54 -27 -54 -28 0 -39
36 -19 61 16 19 23 18 46 -7z m-616 -9 c20 -38 -19 -77 -48 -48 -23 23 -7 68
25 68 7 0 17 -9 23 -20z m1480 -30 c19 -36 59 -201 60 -240 0 -11 -11 -16 -38
-16 -59 -2 -99 -28 -208 -138 -110 -111 -195 -226 -261 -354 -47 -91 -50 -104
-28 -122 13 -11 28 -8 85 14 178 70 402 241 469 358 l27 46 16 -28 16 -28 -77
-70 c-285 -258 -580 -449 -808 -522 -51 -17 -96 -30 -100 -30 -4 0 43 51 103
113 246 251 444 538 622 899 42 86 83 157 89 157 7 1 22 -17 33 -39z m-2301
-77 c184 -374 441 -738 681 -966 50 -48 84 -87 76 -87 -8 0 -52 12 -98 26
-217 68 -487 235 -753 465 -131 113 -130 111 -112 144 l14 27 13 -33 c48 -115
427 -379 544 -379 32 0 36 3 36 25 0 74 -183 342 -321 470 -87 80 -134 108
-187 109 l-44 1 5 51 c11 109 60 254 86 254 3 0 30 -48 60 -107z m1814 5 c-29
-87 -47 -118 -71 -119 -12 -1 -11 -3 5 -7 20 -7 21 -9 8 -39 -13 -31 -14 -31
-57 -22 -23 6 -60 9 -80 7 -51 -3 -58 9 -12 20 22 6 57 15 79 20 56 14 9 15
-55 1 -57 -12 -57 -12 -62 15 -2 15 7 21 44 31 57 14 106 47 173 115 27 27 50
50 51 50 1 0 -9 -33 -23 -72z m-1274 -81 c30 -15 68 -27 84 -27 25 0 27 -3 21
-22 -3 -13 -7 -24 -8 -25 -4 -5 -197 34 -203 41 -7 6 -42 101 -60 159 -3 10
21 -8 53 -41 33 -32 84 -70 113 -85z m2296 24 c3 -5 -2 -11 -10 -15 -20 -7
-20 -68 1 -107 8 -17 40 -67 71 -112 102 -151 107 -164 104 -304 -2 -135 9
-197 40 -214 18 -9 26 -5 59 30 38 39 38 40 29 11 -14 -39 -65 -88 -115 -111
-40 -18 -154 -37 -154 -26 0 3 14 27 31 52 42 62 69 144 69 207 0 130 -69 307
-188 485 l-54 83 26 35 27 35 29 -20 c16 -12 32 -25 35 -29z m-3370 -12 c11
-16 19 -33 18 -37 -1 -4 -22 -38 -48 -77 -112 -170 -192 -394 -181 -505 6 -62
34 -133 78 -197 l29 -43 -53 0 c-97 0 -201 66 -222 140 -6 21 -4 20 14 -8 29
-43 67 -53 92 -22 16 19 18 42 18 171 0 166 5 183 90 309 96 142 124 225 84
248 -14 8 -12 12 11 30 37 29 46 28 70 -9z m2053 -2 c25 -20 44 -71 44 -117 0
-50 -12 -81 -45 -117 l-20 -23 39 0 c37 0 63 -12 107 -50 22 -19 22 -31 -4
-91 l-21 -49 -20 26 c-25 31 -81 67 -129 83 -33 11 -37 16 -41 51 -3 36 -2 39
17 34 17 -6 16 -3 -6 20 -39 39 -55 105 -39 161 21 75 73 107 118 72z m-757 3
c52 -28 68 -159 26 -221 -18 -28 -29 -34 -57 -34 -50 0 -80 48 -80 127 0 103
50 160 111 128z m462 -18 c68 -30 130 -93 163 -165 39 -87 39 -196 -1 -280
-73 -154 -238 -225 -386 -166 -66 25 -115 67 -156 133 -137 218 30 519 278
502 31 -2 77 -13 102 -24z m1693 -55 c155 -188 257 -448 219 -556 -22 -64 -53
-103 -79 -99 -34 5 -45 57 -44 203 1 149 -1 157 -102 305 -70 104 -90 142 -90
173 0 58 35 48 96 -26z m-3528 8 c3 -31 -11 -56 -128 -243 l-55 -87 -5 -166
c-5 -168 -12 -199 -46 -199 -19 0 -72 85 -80 128 -19 103 60 316 179 482 86
119 129 146 135 85z m3375 -34 c135 -203 203 -410 177 -538 -12 -58 -47 -133
-62 -133 -4 0 -8 5 -8 10 0 20 -65 50 -106 50 -77 0 -178 -85 -276 -233 -29
-44 -49 -65 -52 -56 -3 8 -39 117 -81 243 -47 142 -72 232 -66 235 6 4 41 37
80 74 61 60 73 67 108 67 51 0 119 47 139 97 9 20 14 59 13 89 -2 48 2 60 35
109 21 30 42 55 46 55 4 0 28 -31 53 -69z m-3220 -3 c34 -47 37 -58 37 -116 0
-76 20 -115 79 -156 28 -20 49 -27 74 -25 31 3 44 -5 118 -73 l84 -76 -53
-160 c-29 -87 -62 -192 -73 -232 -11 -41 -22 -77 -25 -82 -3 -4 -27 25 -54 65
-136 202 -280 275 -369 186 l-28 -28 -29 57 c-50 99 -43 227 24 400 31 79 156
292 172 292 3 -1 22 -24 43 -52z m1015 12 c39 -6 72 -16 72 -21 0 -5 -24 -9
-54 -9 -30 0 -66 -4 -80 -9 -28 -11 -39 -2 -50 41 -6 25 -4 27 16 19 13 -5 56
-14 96 -21z m1131 -41 l50 -10 -14 -39 c-29 -82 -26 -81 -98 -53 -61 24 -63
26 -59 57 7 55 33 64 121 45z m-1067 -11 c9 -7 18 -25 22 -41 6 -25 3 -29 -51
-52 -31 -14 -63 -24 -71 -23 -16 3 -55 99 -44 109 7 7 47 14 103 17 14 1 32
-4 41 -10z m1733 4 c6 -4 18 -40 28 -80 l17 -74 -27 -49 c-69 -127 -368 -347
-510 -375 -29 -6 -33 -4 -33 14 0 64 183 336 310 462 90 88 177 130 215 102z
m-2402 -28 c65 -33 209 -178 294 -295 65 -90 143 -229 143 -256 0 -44 -175 33
-341 150 -114 81 -186 154 -218 220 -19 40 -19 45 -4 112 15 68 32 95 60 95 8
0 37 -12 66 -26z m1682 -83 c38 -15 49 -24 47 -38 -6 -28 -9 -28 -46 1 -19 14
-49 29 -66 32 -30 6 -36 14 -23 27 7 8 15 6 88 -22z m-971 10 c3 -5 -8 -14
-26 -20 -17 -6 -46 -22 -64 -36 -39 -30 -40 -30 -47 -4 -4 15 1 23 21 31 15 5
41 16 57 23 36 16 52 18 59 6z m116 -57 l0 -31 -70 -5 c-53 -4 -79 -12 -110
-32 l-40 -26 -6 24 c-8 32 -3 38 51 74 40 26 54 30 110 29 l65 -2 0 -31z m-3
-61 c21 -54 -12 -176 -61 -227 -18 -20 -37 -36 -42 -36 -5 0 -30 48 -57 106
-39 88 -45 109 -35 122 38 46 181 71 195 35z m754 -29 c20 -13 47 -37 59 -54
l22 -31 -35 -77 c-32 -71 -37 -77 -62 -75 -37 3 -69 34 -94 93 -20 47 -21 51
-4 118 l16 70 31 -11 c17 -6 47 -21 67 -33z m-711 -96 c7 -18 15 -36 17 -39 2
-3 -14 -18 -35 -32 -41 -26 -82 -95 -82 -135 0 -34 -15 -26 -33 18 -14 37 -14
40 5 45 27 9 73 76 88 130 7 25 16 45 19 45 4 0 13 -15 21 -32z m591 -64 c22
-47 74 -94 102 -94 10 0 17 -3 17 -7 0 -14 -55 -132 -61 -133 -4 0 -10 28 -13
63 -8 68 -36 140 -68 174 -11 12 -17 26 -13 32 10 17 14 14 36 -35z m-514 -35
c64 -59 114 -79 200 -79 39 0 84 5 99 10 15 6 29 9 31 7 2 -3 -27 -16 -64 -31
-37 -15 -55 -25 -38 -22 17 2 57 15 90 30 69 29 113 33 122 10 14 -37 -94
-108 -214 -139 -52 -14 -63 -14 -113 1 -110 32 -199 98 -184 138 12 33 66 26
152 -18 37 -19 114 -37 106 -25 -3 5 -11 9 -18 9 -7 0 -49 16 -93 35 -85 37
-112 42 -144 25 -70 -38 74 -166 209 -186 79 -12 235 48 292 112 25 29 28 38
19 55 -15 28 -35 34 -77 21 -29 -8 -33 -8 -18 1 11 7 39 29 63 51 49 44 60 41
94 -25 28 -55 24 -73 -25 -116 -155 -137 -350 -160 -522 -62 -51 29 -124 99
-124 120 0 33 75 119 104 119 5 0 29 -18 53 -41z m1438 -154 c36 -104 65 -193
65 -197 0 -4 -9 -8 -20 -8 -62 0 -106 -62 -119 -166 -22 -186 68 -290 192
-224 l39 21 -4 -23 c-5 -39 -106 -82 -199 -87 -120 -5 -114 -18 -123 299 -6
241 -14 353 -32 436 -6 29 -2 35 62 87 38 30 70 54 71 53 2 -2 32 -88 68 -191z
m-2311 120 c51 -39 64 -54 60 -70 -12 -46 -23 -226 -29 -465 -5 -203 -10 -258
-21 -270 -35 -36 -228 -7 -281 43 -21 19 -33 54 -15 45 118 -61 182 -42 218
65 27 83 5 226 -43 279 -9 10 -34 21 -55 24 -21 4 -38 9 -38 13 0 20 126 391
132 389 4 -2 37 -25 72 -53z m2100 -72 c15 -51 46 -693 33 -693 -2 0 -49 -16
-103 -36 -255 -92 -621 -207 -764 -240 -226 -52 -367 -25 -1010 190 l-215 72
3 205 c3 230 19 490 31 502 4 4 26 -6 48 -22 80 -58 210 -135 313 -187 97 -48
282 -114 320 -114 26 0 121 -79 187 -155 33 -39 78 -83 101 -99 l41 -28 35 22
c35 21 146 136 146 151 0 4 28 30 63 58 49 39 79 54 133 67 144 36 343 133
524 258 52 36 98 66 102 66 4 0 9 -8 12 -17z m-1240 -119 c29 -13 83 -31 120
-41 58 -14 77 -14 134 -4 81 15 192 66 249 116 24 20 47 34 53 30 5 -3 10 -33
10 -65 0 -53 -6 -68 -59 -162 -32 -57 -79 -133 -104 -169 -56 -79 -149 -169
-176 -169 -10 0 -45 23 -76 52 -110 100 -305 416 -305 494 l0 40 51 -49 c28
-27 75 -60 103 -73z m1943 64 c45 -32 47 -43 14 -91 -40 -59 -217 -235 -293
-292 l-62 -47 -17 49 c-26 74 -23 91 31 175 71 108 132 172 192 202 64 32 92
33 135 4z m-3335 -10 c54 -16 167 -123 228 -216 55 -84 57 -94 35 -170 l-16
-52 -33 22 c-77 53 -219 183 -286 263 -70 83 -72 87 -59 112 12 23 57 51 83
53 5 0 26 -5 48 -12z m2923 -231 c7 -18 28 -93 47 -166 l33 -133 -30 -24 c-39
-32 -91 -41 -124 -23 -44 24 -66 83 -66 174 0 104 24 171 69 191 46 20 56 17
71 -19z m-2528 -7 c74 -45 87 -263 20 -337 -30 -34 -105 -32 -146 2 -16 14
-28 31 -26 38 2 7 11 48 20 92 18 83 51 200 61 216 9 15 37 10 71 -11z"/>
<path d="M7688 8768 c-1 -29 0 -73 3 -98 4 -32 6 -18 7 53 2 104 -4 131 -10
45z"/>
<path d="M3197 5365 c-10 -49 -16 -112 -16 -140 1 -27 3 -39 6 -25 2 14 11 71
19 127 20 128 13 158 -9 38z"/>
<path d="M3174 5000 c0 -91 2 -128 3 -82 2 45 2 119 0 165 -1 45 -3 8 -3 -83z"/>
<path d="M7503 6900 c0 -25 2 -35 4 -22 2 12 2 32 0 45 -2 12 -4 2 -4 -23z"/>
<path d="M3008 7063 c18 -2 45 -2 60 0 15 2 0 4 -33 4 -33 0 -45 -2 -27 -4z"/>
<path d="M3120 7053 c14 -2 44 -11 68 -19 24 -9 46 -14 49 -11 10 11 -69 37
-106 36 -26 -1 -29 -3 -11 -6z"/>
<path d="M2961 5662 c-8 -37 -15 -112 -16 -167 -2 -55 -1 -82 1 -60 2 22 11
95 20 163 18 134 15 171 -5 64z"/>
<path d="M2933 5295 c0 -33 2 -45 4 -27 2 18 2 45 0 60 -2 15 -4 0 -4 -33z"/>
<path d="M2947 5035 c2 -82 10 -193 17 -245 18 -133 19 -53 1 142 -8 90 -17
183 -19 208 -2 25 -2 -22 1 -105z"/>
<path d="M5480 5660 c-10 -17 -14 -56 -15 -120 l0 -95 34 2 c50 2 56 14 30 64
-13 25 -25 72 -28 109 -6 63 -7 64 -21 40z m10 -77 c1 -16 14 -57 35 -105 6
-15 2 -18 -24 -18 l-31 0 0 70 c0 40 4 70 10 70 6 0 10 -8 10 -17z"/>
<path d="M4440 5620 c0 -37 -8 -72 -25 -108 -14 -30 -22 -58 -19 -63 3 -5 23
-9 44 -9 36 0 40 2 45 33 7 35 -19 175 -35 191 -7 7 -10 -8 -10 -44z m29 -118
c1 -52 1 -53 -26 -50 -32 3 -32 9 -6 85 21 60 31 48 32 -35z"/>
<path d="M4920 5573 c-18 -23 -21 -36 -16 -76 7 -66 35 -111 69 -115 23 -3 30
2 42 32 20 47 19 135 -1 164 -22 32 -67 29 -94 -5z m88 -6 c29 -23 -4 -177
-39 -177 -16 0 -49 81 -49 123 0 62 42 89 88 54z"/>
<path d="M5158 5469 c-26 -15 -23 -76 8 -143 14 -31 31 -55 37 -53 10 3 96
162 97 179 0 9 -68 28 -100 28 -14 0 -33 -5 -42 -11z m122 -19 c0 -15 -74
-160 -81 -160 -10 0 -49 106 -49 134 0 12 3 26 7 29 10 11 123 8 123 -3z"/>
<path d="M4663 5463 c-13 -2 -23 -9 -23 -14 0 -8 86 -168 95 -178 12 -12 38
29 56 90 28 91 19 110 -54 108 -29 -1 -62 -4 -74 -6z m121 -50 c-1 -40 -30
-123 -43 -123 -4 0 -24 34 -44 77 -44 88 -41 95 38 91 l50 -3 -1 -42z"/>
<path d="M5111 5139 c-42 -57 -46 -90 -26 -208 16 -97 16 -103 -3 -183 -29
-116 -37 -234 -22 -297 7 -28 16 -51 20 -51 4 0 1 21 -7 48 -18 58 -13 141 17
282 22 98 22 106 7 208 -15 103 -15 109 4 152 11 24 27 52 36 62 9 10 14 21
11 24 -3 2 -20 -14 -37 -37z"/>
<path d="M4800 5166 c0 -4 14 -28 31 -53 31 -45 32 -46 24 -127 -14 -133 -11
-195 14 -310 25 -116 26 -231 1 -261 -9 -11 -9 -15 -1 -15 36 0 42 170 10 300
-23 92 -26 179 -10 279 9 56 8 69 -10 112 -19 42 -59 94 -59 75z"/>
<path d="M5281 4861 c-11 -15 -26 -49 -32 -74 -11 -39 -10 -48 4 -71 12 -18
26 -26 47 -26 35 0 36 4 10 37 -24 30 -25 54 -6 116 16 53 7 60 -23 18z m-5
-63 c-4 -24 0 -42 14 -65 20 -34 8 -47 -18 -21 -13 13 -16 75 -6 102 11 27 17
17 10 -16z"/>
<path d="M4580 4858 c0 -34 -37 -66 -112 -94 -54 -21 -57 -24 -23 -18 22 3 61
17 87 31 39 21 49 32 54 60 4 19 4 37 0 40 -3 4 -6 -5 -6 -19z"/>
<path d="M4199 4663 c-76 -69 -98 -147 -59 -211 53 -87 203 -108 269 -38 73
77 46 190 -46 190 -62 0 -104 -71 -69 -116 19 -25 27 -22 24 10 -2 34 8 52 31
52 26 0 41 -20 41 -56 0 -25 -7 -38 -29 -53 -64 -46 -139 -13 -162 72 -17 65
10 109 101 161 25 14 38 26 29 26 -26 0 -108 -58 -129 -92 -24 -39 -25 -76 -5
-125 35 -84 120 -104 185 -43 37 35 39 72 5 105 -30 31 -40 31 -70 0 -30 -29
-33 -18 -4 19 42 53 129 19 129 -51 0 -40 -37 -94 -80 -116 -100 -52 -246 44
-225 147 10 46 42 88 94 124 27 19 38 32 28 32 -9 0 -35 -17 -58 -37z"/>
<path d="M5657 4345 c-3 -11 -18 -76 -33 -144 -24 -112 -26 -127 -13 -150 18
-32 54 -39 80 -15 24 22 25 77 3 182 -10 42 -20 93 -24 112 -5 28 -7 31 -13
15z m43 -242 c0 -34 -5 -46 -24 -58 -59 -39 -74 37 -34 168 l22 72 18 -70 c9
-38 18 -89 18 -112z"/>
<path d="M4291 4348 c-1 -3 -10 -52 -21 -108 -27 -138 -27 -194 2 -214 32 -23
55 -20 74 8 13 21 14 33 4 81 -15 72 -58 242 -59 233z m49 -264 c0 -55 -20
-73 -55 -50 -31 20 -33 67 -8 174 l17 72 22 -77 c13 -43 23 -97 24 -119z"/>
<path d="M5234 4285 c5 -11 12 -33 16 -50 l8 -30 1 36 c1 23 -5 42 -16 50 -15
12 -16 12 -9 -6z"/>
<path d="M4667 4283 c-3 -4 -8 -29 -12 -55 -9 -60 22 -130 94 -209 130 -144
225 -161 349 -61 98 79 164 170 161 224 -1 18 -2 19 -6 5 -4 -16 -13 -17 -91
-11 -69 5 -95 3 -126 -10 -49 -20 -99 -20 -154 1 -38 14 -51 14 -111 3 -52
-10 -73 -10 -89 -1 -25 13 -26 21 -11 74 10 36 8 59 -4 40z m211 -129 c48 -20
117 -20 166 1 30 13 55 15 117 9 43 -3 79 -10 79 -14 0 -10 -41 -45 -75 -64
-30 -17 -11 -17 30 0 28 11 -33 -65 -83 -105 -51 -40 -130 -81 -157 -81 -52 0
-171 86 -228 164 -20 28 -20 29 -1 22 40 -17 57 -15 23 2 -77 37 -89 61 -31
63 20 1 48 5 62 9 39 12 58 11 98 -6z"/>
<path d="M5061 4114 c-55 -56 -44 -65 39 -32 63 24 78 48 41 68 -28 15 -29 14
-80 -36z m83 17 c7 -10 -11 -26 -39 -33 -11 -3 -29 -9 -40 -13 -16 -6 -14 -1
9 23 29 31 59 41 70 23z"/>
<path d="M4764 4135 c-4 -8 -4 -21 -1 -28 6 -15 125 -53 135 -42 4 3 -12 24
-35 46 -44 41 -89 52 -99 24z m78 -26 c24 -22 27 -29 13 -24 -11 3 -32 9 -48
12 -30 6 -41 18 -32 33 11 18 34 11 67 -21z"/>
<path d="M4745 3828 c-84 -44 -164 -68 -228 -68 l-38 0 122 -141 c168 -193
232 -239 317 -225 44 7 44 7 103 0 56 -7 99 12 180 83 92 80 202 211 222 266
5 14 1 17 -26 17 -50 0 -105 18 -202 67 -88 44 -91 45 -140 33 -93 -21 -114
-22 -161 -6 -26 9 -52 16 -58 16 -6 0 -47 -19 -91 -42z m152 10 l53 -22 68 22
c38 12 73 22 79 22 6 0 42 -17 80 -39 71 -40 147 -68 198 -73 l30 -3 -42 -23
c-69 -36 -120 -39 -189 -9 -89 39 -100 40 -160 21 -52 -16 -57 -16 -90 -1 -46
22 -62 22 -160 -9 -92 -29 -141 -28 -203 5 l-34 18 55 7 c38 5 88 23 150 55
51 27 97 49 103 50 5 0 33 -9 62 -21z m24 -120 l41 -21 52 22 c48 20 52 20 63
4 29 -38 4 -112 -47 -138 -62 -32 -166 -10 -189 41 -14 32 -14 38 3 79 18 41
22 42 77 13z m-91 -7 c-25 -47 0 -121 47 -139 79 -31 142 -21 193 31 28 28 31
37 28 80 -2 26 0 47 3 47 4 0 33 -12 65 -26 60 -26 103 -32 144 -19 l23 7 -24
-33 c-43 -60 -128 -138 -162 -147 -19 -5 -57 -6 -92 0 -33 4 -108 6 -166 2
l-107 -6 -97 93 -97 94 79 1 c47 1 92 7 113 17 50 22 63 21 50 -2z m524 -51
c-72 -91 -210 -219 -261 -242 -31 -14 -55 -18 -77 -13 -31 6 -42 6 -121 3 -55
-2 -99 23 -175 102 -87 89 -183 200 -173 200 5 0 49 -41 98 -91 50 -50 102
-97 116 -104 22 -12 199 -20 368 -16 49 2 90 31 160 116 75 90 89 105 102 105
6 0 -11 -27 -37 -60z"/>
<path d="M3892 4855 c-1 -159 -7 -380 -12 -490 -18 -383 -20 -456 -10 -385 19
148 31 487 28 815 l-3 350 -3 -290z"/>
<path d="M5877 3478 c-10 -59 -16 -137 -15 -175 1 -39 3 -51 5 -28 1 22 10 95
19 161 21 153 13 186 -9 42z"/>
<path d="M6103 2740 c0 -47 2 -66 4 -42 2 23 2 61 0 85 -2 23 -4 4 -4 -43z"/>
<path d="M4884 1916 c-81 -37 -133 -120 -142 -222 -4 -52 0 -70 23 -123 46
-101 118 -151 220 -151 66 0 134 29 171 72 36 44 64 103 63 135 l-1 28 -7 -30
c-27 -110 -107 -183 -211 -192 -110 -10 -203 62 -235 182 -15 54 -16 71 -5
115 18 75 67 140 130 172 67 36 120 36 187 3 60 -30 101 -79 125 -150 14 -41
17 -45 18 -21 0 15 -12 50 -27 77 -62 116 -192 160 -309 105z"/>
<path d="M4920 1868 c-132 -67 -121 -305 17 -364 39 -17 67 -8 104 32 44 48
59 88 59 159 0 72 -8 94 -49 138 -22 24 -70 57 -83 57 -2 0 -24 -10 -48 -22z
m106 -30 c45 -40 64 -83 64 -145 -1 -89 -63 -183 -121 -183 -38 0 -100 62
-117 116 -27 90 -1 183 61 223 45 29 71 26 113 -11z"/>
<path d="M5585 981 c-88 -14 -208 -52 -290 -91 -83 -40 -170 -115 -267 -230
l-46 -55 -88 85 c-88 85 -213 175 -309 222 -137 68 -281 83 -365 39 -100 -53
-150 -115 -150 -186 0 -112 129 -193 450 -284 41 -12 86 -21 100 -20 14 0 -9
10 -50 20 -299 80 -434 147 -475 239 -25 55 -10 102 52 163 78 77 179 97 313
62 126 -32 321 -157 456 -291 l73 -72 24 37 c13 20 67 79 119 131 94 94 105
101 250 163 20 9 77 26 125 38 184 46 314 22 354 -65 23 -50 23 -68 4 -132
-46 -156 -252 -262 -610 -314 -178 -25 -286 -25 -447 1 -156 25 -202 21 -63
-6 150 -29 438 -27 595 4 222 44 358 98 450 179 124 108 134 277 20 341 -43
24 -148 34 -225 22z"/>
</g>
</svg>
