<?xml version="1.0" standalone="no"?>
<!DOCTYPE svg PUBLIC "-//W3C//DTD SVG 20010904//EN"
 "http://www.w3.org/TR/2001/REC-SVG-20010904/DTD/svg10.dtd">
<svg version="1.0" xmlns="http://www.w3.org/2000/svg"
 width="1024.000000pt" height="1024.000000pt" viewBox="0 0 1024.000000 1024.000000"
 preserveAspectRatio="xMidYMid meet">
<metadata>
Created by potrace 1.14, written by Peter Selinger 2001-2017
</metadata>
<g transform="translate(0.000000,1024.000000) scale(0.100000,-0.100000)"
fill="#000000" stroke="none">
<path d="M1209 9990 c-105 -12 -232 -42 -444 -107 -276 -83 -366 -103 -473
-103 -51 0 -113 5 -138 11 -60 15 -72 4 -48 -47 10 -22 50 -71 89 -110 173
-174 395 -282 656 -319 63 -9 117 -17 122 -18 4 -1 -26 -28 -66 -59 -94 -74
-222 -206 -274 -283 -209 -310 -315 -782 -300 -1335 9 -333 57 -654 188 -1260
104 -482 178 -834 176 -836 -1 -1 -42 -8 -90 -17 -226 -41 -342 -151 -412
-394 -44 -152 -44 -339 1 -467 8 -23 55 -113 104 -201 180 -324 218 -488 138
-590 -18 -23 -26 -26 -55 -22 -39 7 -115 60 -134 94 -13 24 -33 30 -44 14 -7
-13 35 -128 70 -187 67 -115 187 -201 314 -224 138 -26 330 2 450 65 146 77
234 208 308 460 l38 130 0 225 c-1 246 -13 357 -65 568 -88 359 -217 562 -358
562 -27 0 -32 4 -37 33 -3 17 -14 88 -26 157 -21 130 -89 456 -113 548 -19 70
-10 62 97 -86 302 -421 490 -787 607 -1188 31 -106 90 -374 90 -410 0 -2 9 -4
20 -4 18 0 20 7 20 68 0 233 -34 685 -57 772 -5 21 3 17 55 -30 34 -30 146
-131 250 -224 l189 -168 -14 -59 c-72 -312 -83 -765 -27 -1079 54 -304 168
-590 329 -829 l74 -111 -28 -49 c-16 -27 -64 -116 -108 -197 l-78 -149 -7 103
c-21 313 -151 520 -377 598 -69 24 -260 49 -274 35 -4 -4 1 -23 10 -42 16 -31
18 -73 18 -479 0 -435 1 -447 22 -510 13 -36 35 -86 50 -112 51 -87 164 -188
248 -224 19 -8 35 -19 35 -25 0 -6 -18 -68 -40 -137 -22 -70 -53 -181 -70
-247 -17 -65 -32 -120 -33 -122 -2 -1 -9 46 -16 105 -49 409 -172 751 -351
977 -125 157 -265 252 -483 328 -85 29 -102 31 -222 32 -123 0 -133 -1 -189
-29 -55 -27 -216 -173 -216 -196 0 -5 17 -18 38 -29 67 -34 126 -116 151 -206
6 -23 20 -146 31 -275 34 -389 70 -600 137 -805 106 -328 267 -504 533 -586
98 -30 224 -32 294 -5 40 15 50 16 57 5 5 -8 9 -106 9 -219 0 -184 -11 -318
-36 -437 -6 -30 -4 -33 19 -33 23 0 26 5 36 63 32 188 41 449 21 648 -44 441
-176 895 -403 1396 -71 156 -68 167 23 66 197 -220 346 -587 456 -1118 43
-209 41 -205 64 -205 21 0 25 15 35 135 42 488 301 1240 626 1817 l49 86 133
-132 c72 -73 152 -149 176 -168 l44 -35 -42 -43 c-134 -139 -294 -471 -496
-1030 -74 -207 -185 -549 -185 -573 0 -10 8 -17 19 -17 14 0 30 20 56 73 84
163 230 334 387 451 77 58 293 186 312 186 6 0 -25 -24 -69 -54 -434 -291
-735 -816 -839 -1460 l-13 -86 23 0 c19 0 24 7 29 37 38 220 90 422 153 583
25 67 31 75 53 72 196 -22 280 -9 444 73 147 73 281 176 510 390 262 245 394
357 505 430 137 91 205 117 318 123 51 2 95 9 98 14 9 14 -114 137 -211 212
-204 159 -388 230 -590 229 -241 -1 -541 -122 -770 -308 l-54 -44 40 97 c60
147 171 368 227 454 52 79 118 158 133 158 4 0 36 -20 71 -44 321 -223 1301
-486 1812 -486 l144 0 35 -40 c45 -53 63 -116 48 -163 -11 -34 -14 -35 -76
-42 -63 -6 -138 -37 -179 -73 -10 -10 -36 -43 -58 -74 -23 -35 -53 -65 -76
-77 -20 -10 -122 -44 -227 -75 -242 -72 -346 -124 -550 -270 -167 -120 -238
-160 -391 -219 -175 -68 -171 -64 -519 -388 -174 -162 -337 -294 -403 -328
-115 -59 -17 -108 129 -65 72 21 140 56 218 112 l64 45 90 -17 c107 -20 265
-75 318 -111 22 -14 50 -43 64 -65 28 -44 49 -50 65 -19 16 29 157 131 219
158 88 37 113 38 184 3 66 -33 157 -119 189 -180 22 -42 52 -42 77 -1 11 17
33 84 50 148 96 355 182 562 318 769 77 116 217 256 313 312 101 59 414 213
579 286 154 67 176 89 166 159 -9 57 -43 111 -119 184 -37 35 -66 64 -64 66 2
1 62 10 133 19 442 60 882 195 1150 354 48 28 51 29 90 15 22 -8 109 -30 192
-48 176 -40 276 -78 379 -147 81 -54 139 -117 175 -187 19 -36 24 -62 24 -117
0 -67 -3 -76 -40 -130 -42 -63 -310 -334 -329 -334 -6 1 -33 30 -60 65 -85
114 -242 211 -411 256 -114 30 -325 37 -470 15 -193 -28 -397 -87 -527 -152
-389 -195 -610 -429 -700 -740 -32 -110 -32 -355 -1 -489 36 -151 66 -230 88
-230 16 0 19 8 21 60 3 125 80 228 206 276 56 21 79 24 203 24 129 -1 154 -4
320 -44 254 -60 393 -77 514 -64 53 6 122 20 154 30 31 11 57 16 57 12 0 -12
-105 -184 -147 -241 -18 -26 -43 -50 -53 -53 -30 -9 -27 -53 4 -61 39 -9 143
23 253 77 119 60 141 61 245 11 87 -41 146 -86 165 -127 9 -19 24 -35 33 -35
9 0 38 27 63 60 26 33 64 68 87 80 119 60 528 48 724 -22 33 -12 48 -12 112 2
97 20 107 31 68 72 -182 195 -291 343 -384 519 -44 84 -110 260 -110 293 0 10
39 15 148 20 81 3 168 9 195 12 l47 7 -25 -58 c-113 -255 -51 -493 170 -650
84 -60 214 -120 228 -106 8 8 5 17 -10 33 -65 72 -56 117 78 354 126 226 147
267 174 348 31 92 36 201 12 259 l-16 36 51 36 c27 20 52 34 55 32 2 -3 -4
-45 -13 -93 -20 -106 -23 -340 -5 -459 35 -231 88 -353 200 -465 187 -187 447
-222 740 -101 142 59 175 93 101 106 -76 13 -138 75 -161 159 -17 64 -5 170
34 287 81 243 118 481 118 744 0 284 -47 449 -162 570 -51 54 -152 115 -191
115 -10 0 -18 1 -18 3 0 1 7 54 15 118 46 370 41 795 -11 995 -23 89 -77 230
-118 309 -8 16 -14 30 -12 32 1 1 32 -13 67 -32 102 -54 174 -68 304 -62 126
6 220 30 330 84 86 42 205 135 205 161 0 10 -15 26 -32 37 -46 27 -123 100
-165 157 -19 27 -63 118 -98 204 -125 308 -224 427 -440 530 -292 139 -577
136 -820 -8 -38 -23 -91 -61 -116 -85 -25 -24 -49 -43 -53 -43 -13 0 -206 154
-206 164 0 6 5 27 10 47 l10 35 108 17 c138 22 182 35 182 51 0 8 -37 38 -82
67 -98 64 -229 191 -284 274 -21 33 -76 135 -121 227 -45 92 -111 209 -145
260 -35 51 -66 98 -70 104 -11 16 215 -66 303 -111 41 -20 117 -68 169 -105
261 -186 439 -225 1090 -240 195 -4 365 -11 378 -15 37 -12 27 22 -16 48 -45
29 -104 93 -128 139 -9 18 -45 118 -79 223 -87 267 -172 429 -324 617 -87 108
-243 265 -326 327 -132 99 -315 170 -439 171 l-51 1 30 25 c47 39 179 102 284
134 113 35 126 43 118 64 -6 16 -139 85 -240 126 l-59 23 116 38 c217 71 383
172 544 331 106 105 175 190 303 375 56 82 126 180 155 218 113 150 244 255
367 296 49 16 67 26 65 38 -6 29 -133 121 -243 176 -287 142 -659 180 -1040
104 -201 -40 -417 -119 -555 -205 -40 -24 -74 -43 -75 -42 -2 2 -10 46 -19 98
-40 230 -158 471 -344 701 -228 282 -562 457 -909 476 -131 7 -124 15 -92
-104 34 -125 27 -277 -22 -465 -9 -33 -14 -38 -39 -38 -72 0 -460 -151 -668
-260 -256 -134 -435 -299 -527 -485 -106 -215 -103 -478 8 -719 36 -77 39 -89
25 -97 -9 -5 -53 -36 -98 -70 -278 -206 -418 -474 -471 -904 -6 -49 -9 -178
-7 -285 l3 -195 -47 -95 -47 -95 0 225 c-1 235 -13 462 -31 590 -9 64 -108
554 -127 629 l-6 25 29 -19 c43 -28 110 -25 165 7 97 57 200 194 294 391 89
184 114 276 160 571 48 311 183 703 367 1065 43 85 78 158 78 163 0 21 -119
42 -235 42 -133 0 -220 -19 -343 -74 -112 -51 -306 -187 -387 -269 -21 -23
-44 -41 -50 -41 -6 0 -24 14 -41 31 -113 119 -294 207 -505 245 -73 14 -87 19
-78 30 24 29 3 44 -62 44 -60 0 -61 0 -56 26 9 47 -16 58 -118 51 -104 -7
-195 -25 -351 -68 l-110 -31 -95 45 c-106 51 -222 88 -354 113 -138 27 -412
24 -579 -5 -109 -19 -136 -21 -175 -11 -341 86 -837 143 -1042 120z m212 -43
c63 -19 145 -74 229 -153 87 -82 90 -79 -116 -95 -142 -12 -146 -12 -172 10
-84 67 -176 128 -246 162 -43 21 -81 40 -83 43 -6 6 100 27 182 36 112 12 159
11 206 -3z m229 -12 c87 -7 380 -56 489 -80 47 -11 69 -20 60 -25 -17 -10
-329 -86 -385 -95 -41 -6 -42 -5 -117 69 -42 41 -97 89 -122 106 -50 35 -55
43 -22 36 12 -3 56 -8 97 -11z m-649 -61 c30 -9 88 -34 129 -56 77 -41 185
-116 177 -124 -2 -2 -111 2 -243 11 -246 15 -270 13 -248 -23 10 -16 114 -56
214 -83 l45 -11 -33 -15 c-19 -7 -86 -28 -150 -45 -109 -29 -129 -32 -288 -32
l-172 -1 -58 40 c-61 42 -199 167 -214 194 -7 14 5 16 101 13 132 -4 222 13
479 93 96 29 182 54 191 54 8 1 40 -6 70 -15z m5825 -21 c39 -25 109 -130 163
-244 49 -104 127 -317 118 -325 -10 -10 -125 86 -163 137 -82 108 -122 203
-143 334 -6 39 -14 80 -17 93 -8 27 7 29 42 5z m-3796 -22 c110 -22 234 -62
305 -99 l50 -25 -44 -19 c-24 -10 -53 -21 -66 -24 -19 -5 -21 -2 -17 25 6 44
-15 48 -109 22 -151 -40 -303 -124 -425 -234 -54 -49 -68 -57 -125 -67 -279
-48 -529 -138 -710 -255 -40 -26 -108 -82 -151 -124 -43 -42 -78 -71 -78 -64
0 19 50 152 77 208 36 71 94 146 137 175 42 29 48 60 12 60 -62 0 -354 -122
-507 -212 -317 -188 -533 -431 -627 -704 -72 -211 -81 -716 -17 -998 101 -444
419 -609 1005 -521 58 8 213 42 345 75 238 58 372 86 380 78 2 -2 -52 -20
-121 -41 -69 -20 -173 -56 -232 -78 -272 -105 -597 -196 -783 -219 -140 -18
-375 5 -486 46 -24 9 -43 20 -43 25 0 12 -37 12 -45 -1 -17 -27 162 -423 255
-563 60 -90 142 -182 198 -221 79 -54 302 -136 506 -187 65 -16 122 -32 125
-35 11 -12 -343 5 -409 20 -143 32 -118 -5 247 -362 354 -345 387 -375 558
-506 225 -173 485 -342 710 -461 216 -114 366 -198 362 -202 -7 -6 -276 111
-474 207 -186 90 -340 176 -428 238 -132 94 -469 385 -734 633 -181 171 -177
167 -192 152 -9 -9 -7 -23 8 -60 26 -60 49 -192 63 -348 10 -121 12 -237 3
-200 -3 11 -23 75 -44 142 -129 400 -340 788 -654 1204 -56 74 -110 150 -119
167 -11 21 -24 32 -37 32 -26 0 -26 5 31 -215 75 -288 141 -642 176 -950 33
-279 22 -896 -17 -965 -5 -9 -9 35 -9 106 0 307 -73 783 -226 1484 -113 517
-145 670 -183 880 -79 439 -96 613 -88 948 7 322 37 519 117 763 124 380 302
582 740 844 85 50 170 100 188 109 38 20 44 53 10 60 -13 2 -63 9 -113 16 -93
12 -309 59 -302 66 2 2 80 -1 173 -7 276 -18 553 11 854 91 245 64 365 92 458
105 133 19 396 12 522 -14z m4079 -11 c185 -55 237 -94 267 -198 22 -75 13
-177 -26 -294 -31 -92 -116 -268 -129 -268 -4 0 -13 26 -20 58 -25 112 -131
417 -184 526 -30 61 -73 135 -97 165 l-43 54 64 -6 c35 -3 111 -20 168 -37z
m-3164 -70 c-26 -29 -13 -50 34 -50 37 0 40 -2 38 -27 -2 -25 2 -28 33 -31
146 -10 295 -43 403 -88 217 -92 403 -304 466 -534 31 -112 46 -338 32 -482
-33 -326 -149 -559 -416 -838 -173 -181 -255 -287 -370 -483 -191 -328 -301
-669 -308 -955 l-2 -110 -42 1 c-56 2 -91 -32 -151 -147 -53 -103 -142 -204
-206 -235 -23 -12 -47 -21 -53 -21 -6 0 -30 16 -53 35 -83 70 -157 38 -288
-121 -127 -156 -299 -314 -342 -314 -14 0 -17 8 -16 41 1 52 -23 73 -77 66
-80 -11 -240 -112 -369 -236 -67 -63 -89 -79 -83 -61 6 22 67 186 113 307 13
34 23 44 47 48 168 34 340 151 417 285 42 72 68 172 68 260 0 44 -5 82 -10 85
-6 4 -34 -5 -64 -19 -51 -24 -191 -55 -202 -44 -8 8 143 333 301 648 176 349
226 496 241 700 3 41 7 80 9 87 3 9 24 5 77 -13 109 -37 225 -54 369 -54 138
0 183 9 177 38 -3 15 -15 17 -118 14 -269 -8 -522 68 -698 209 l-64 51 35 31
c42 40 60 73 82 162 26 100 26 186 -1 222 -43 57 -77 68 -209 68 -101 0 -126
3 -149 19 -48 31 -74 68 -95 131 -27 84 -29 94 -46 261 -9 82 -20 164 -26 181
-14 44 6 112 77 252 114 230 275 395 484 501 74 37 200 82 201 72 0 -4 1 -23
2 -42 2 -29 6 -35 22 -33 11 1 106 31 210 67 199 68 393 114 484 115 53 1 54
1 36 -19z m1767 -19 l26 -10 -77 -153 c-67 -135 -85 -163 -156 -237 -84 -88
-233 -209 -298 -243 -21 -10 -40 -18 -42 -16 -1 2 24 72 56 156 33 85 57 158
53 163 -14 24 -36 -2 -118 -136 -49 -80 -91 -145 -94 -145 -11 0 7 260 22 315
23 84 81 199 116 228 32 28 164 75 244 88 63 10 232 4 268 -10z m1798 -116
c30 -24 63 -51 72 -62 47 -51 63 -272 32 -434 -24 -129 -87 -308 -163 -463
-38 -77 -76 -150 -84 -161 -16 -20 -16 -20 -17 5 -1 14 -8 43 -16 65 -8 22
-31 111 -49 198 -19 86 -39 174 -44 194 -9 33 -7 42 25 94 143 236 195 473
138 624 -8 20 -8 20 21 1 17 -11 55 -38 85 -61z m-2419 -53 c-48 -93 -63 -178
-68 -367 -6 -221 -23 -271 -52 -150 -16 67 -80 198 -130 264 -22 30 -38 57
-36 61 18 29 295 244 303 235 2 -2 -6 -21 -17 -43z m-3806 -16 l79 -12 -162
-97 c-179 -107 -172 -105 -322 -86 -105 13 -224 42 -293 73 l-52 23 120 6
c122 6 223 27 415 86 52 16 104 27 116 24 12 -2 56 -10 99 -17z m5597 -108
c38 -62 152 -168 205 -192 37 -17 44 -25 57 -70 61 -213 139 -585 134 -642
l-3 -39 -79 90 c-200 230 -336 483 -391 728 -15 68 -16 88 -5 159 l13 80 20
-34 c11 -18 33 -54 49 -80z m878 -83 c37 -49 86 -121 110 -158 41 -65 42 -71
37 -125 -15 -141 -91 -353 -182 -507 -72 -123 -151 -220 -266 -329 l-94 -90
-3 128 -3 127 35 57 c93 155 196 398 242 572 25 94 28 122 29 272 0 193 -6
189 95 53z m-5203 -68 c-61 -84 -125 -204 -157 -294 -21 -59 -24 -62 -50 -57
-58 12 -119 -43 -190 -172 -117 -215 -299 -433 -405 -487 -84 -42 -131 -49
-365 -57 -175 -5 -236 -11 -274 -25 -109 -38 -166 -96 -166 -167 0 -49 43 -98
111 -127 107 -46 412 -111 523 -111 l37 0 -8 -37 c-29 -146 25 -227 171 -254
80 -15 152 1 344 75 245 94 383 132 569 156 l83 11 63 -54 c36 -30 94 -71 131
-92 63 -35 66 -39 66 -73 0 -43 -17 -162 -23 -168 -3 -3 -38 8 -78 24 -121 48
-228 79 -339 98 -90 15 -144 16 -375 11 -488 -12 -727 -48 -870 -132 -90 -52
-195 -199 -195 -272 0 -42 -14 -42 -93 0 -95 50 -168 129 -221 239 -73 152
-94 269 -103 558 -12 418 29 618 171 834 122 184 310 346 556 479 83 45 300
140 300 132 0 -2 -18 -32 -40 -66 -22 -33 -54 -98 -71 -143 -36 -93 -122 -423
-113 -437 3 -5 14 -9 24 -9 19 0 23 10 46 103 20 83 178 265 294 339 146 94
351 176 553 223 158 37 155 38 94 -48z m4250 -127 c69 -214 200 -425 405 -652
l67 -74 -12 -142 c-7 -78 -16 -144 -20 -148 -9 -10 -228 208 -300 298 -132
167 -215 338 -236 487 -11 79 -4 135 31 286 21 88 22 89 31 55 5 -19 21 -69
34 -110z m-1310 39 c-18 -47 -51 -139 -72 -204 -30 -94 -52 -139 -98 -208
-100 -147 -205 -222 -280 -200 -30 9 -32 12 -31 54 1 26 26 108 61 204 59 159
60 160 104 184 90 48 166 102 254 179 50 44 91 78 92 77 2 -1 -12 -40 -30 -86z
m1070 -36 c-100 -102 -209 -236 -308 -379 -38 -56 -79 -110 -91 -120 l-20 -19
7 55 c11 81 52 206 92 279 19 34 63 92 97 127 57 61 67 67 171 104 61 21 116
39 124 39 8 1 -25 -38 -72 -86z m108 -74 c-39 -202 -99 -310 -242 -433 -64
-56 -242 -180 -249 -174 -1 2 16 57 39 123 45 126 92 202 241 385 71 87 225
245 232 237 3 -3 -7 -65 -21 -138z m-1594 -118 l-69 -183 -7 50 c-6 44 -3 57
30 123 53 106 107 201 111 196 2 -2 -27 -86 -65 -186z m1202 137 c-4 -7 -25
-40 -47 -72 -67 -102 -115 -249 -131 -403 -5 -47 -21 -90 -70 -188 -35 -69
-66 -122 -69 -117 -16 27 -47 189 -53 277 -5 83 -2 114 16 185 20 80 67 174
102 206 13 12 246 124 257 124 2 0 -1 -6 -5 -12z m1707 -150 c41 -106 67 -207
76 -297 l7 -72 -40 -42 c-53 -56 -113 -138 -154 -212 -122 -221 -314 -380
-498 -410 l-43 -7 7 83 6 84 47 39 c96 80 239 235 300 324 109 159 199 363
233 530 7 34 16 62 20 62 4 0 22 -37 39 -82z m-2071 -64 c-63 -148 -63 -338 2
-557 11 -38 21 -76 21 -85 1 -17 -69 -253 -77 -261 -13 -13 -113 109 -163 199
-67 120 -99 270 -87 409 l7 85 65 67 c56 59 242 203 251 195 1 -2 -7 -25 -19
-52z m-3552 -45 c7 -14 22 -107 33 -206 27 -244 52 -324 122 -390 54 -52 99
-66 212 -64 108 2 161 -10 176 -39 14 -27 12 -87 -6 -167 -30 -132 -72 -174
-195 -194 -189 -30 -256 -46 -383 -86 -77 -25 -196 -68 -265 -96 -118 -48
-132 -51 -216 -51 -68 -1 -98 3 -122 17 -59 31 -79 109 -49 181 l14 33 138 6
c155 7 288 30 444 75 124 36 317 116 357 148 25 21 27 24 12 39 -14 14 -23 12
-110 -29 -289 -137 -652 -204 -963 -177 -143 12 -287 39 -426 82 -90 27 -146
74 -135 111 28 90 155 127 431 128 178 0 246 11 334 53 124 58 310 277 445
523 69 126 124 163 152 103z m6971 15 c33 -7 33 -7 -47 -45 -151 -71 -270
-185 -348 -335 -36 -68 -44 -77 -150 -151 -61 -43 -154 -115 -207 -160 -53
-46 -98 -83 -101 -83 -9 0 -5 85 9 170 28 173 108 323 237 446 74 70 205 154
258 165 40 9 297 4 349 -7z m-488 -11 c-1 -5 -21 -21 -46 -37 -123 -78 -255
-243 -307 -384 -35 -94 -58 -228 -56 -315 l2 -67 -74 -78 c-41 -42 -98 -103
-126 -136 l-51 -58 -20 38 c-56 111 -102 293 -102 406 0 139 59 308 139 400
32 36 62 55 143 91 126 55 266 100 390 126 111 23 108 23 108 14z m765 -50
c44 -14 112 -41 150 -60 74 -37 195 -119 195 -132 0 -4 -24 -17 -53 -29 -30
-13 -89 -45 -132 -72 -111 -70 -164 -84 -310 -83 -84 1 -142 7 -195 20 l-75
20 65 30 c36 16 97 40 135 53 87 28 84 26 78 48 -8 32 -72 26 -202 -17 -65
-22 -160 -60 -210 -86 l-93 -46 29 52 c77 142 251 277 418 324 58 16 90 13
200 -22z m-3006 -264 c-65 -129 -183 -218 -318 -240 -77 -12 -175 -3 -167 16
2 7 10 32 17 55 10 32 23 48 53 68 198 124 339 241 407 341 l34 49 3 -114 c3
-110 2 -115 -29 -175z m110 208 c64 -162 175 -320 341 -488 58 -58 123 -121
144 -139 l39 -32 -13 -52 c-7 -28 -19 -73 -27 -100 l-15 -49 -44 7 c-160 21
-324 211 -425 491 -31 86 -32 98 -37 270 -2 99 -2 178 1 175 2 -3 19 -40 36
-83z m-1389 -99 c-10 -46 -28 -145 -40 -222 -18 -119 -25 -144 -51 -183 -61
-88 -136 -122 -243 -109 -81 11 -81 10 -47 113 16 50 37 138 47 197 l17 105
43 -6 c63 -8 141 31 215 109 32 34 59 65 59 70 0 4 4 8 9 8 5 0 1 -37 -9 -82z
m266 -298 c9 -36 32 -97 50 -137 38 -80 143 -225 180 -250 27 -17 32 -59 12
-84 -7 -9 -33 -21 -58 -28 -25 -7 -78 -28 -119 -47 -41 -19 -75 -34 -77 -34
-2 0 -20 32 -39 70 -115 228 -116 520 -3 722 l23 41 7 -94 c4 -52 15 -123 24
-159z m528 88 c-73 -217 -105 -344 -112 -453 l-7 -90 -55 -7 c-30 -3 -57 -5
-59 -2 -16 16 98 373 164 511 40 86 110 203 120 203 2 0 -21 -73 -51 -162z
m1960 50 c-80 -199 -68 -409 35 -648 40 -92 40 -96 24 -117 -10 -12 -58 -74
-107 -137 -49 -64 -92 -116 -97 -116 -22 0 -62 23 -98 55 -74 67 -104 200 -81
356 24 167 106 370 210 524 45 66 130 165 142 165 3 0 -10 -37 -28 -82z
m-1446 -68 c-11 -100 -33 -144 -107 -214 -64 -59 -135 -92 -243 -113 -79 -14
-200 -14 -216 1 -3 4 3 42 14 84 l20 77 60 -3 c192 -8 354 68 444 208 18 28
34 49 35 48 1 -2 -2 -41 -7 -88z m2410 17 c-9 -7 -56 -40 -105 -74 -49 -34
-134 -102 -188 -151 -129 -114 -408 -397 -481 -487 -61 -75 -160 -219 -188
-272 -13 -27 -22 -33 -49 -33 -17 0 -38 4 -46 9 -18 11 -14 17 94 156 269 345
567 622 862 801 96 58 144 82 101 51z m197 -23 c107 -27 252 -36 353 -21 l53
8 -73 -92 c-85 -108 -147 -153 -269 -194 -141 -46 -314 -38 -482 25 -31 12
-57 25 -57 30 0 20 341 270 370 270 3 0 50 -12 105 -26z m-1935 -348 c-6 -72
-18 -161 -26 -200 -45 -213 -154 -436 -221 -449 -15 -3 -29 -4 -31 -2 -2 2 12
34 31 72 141 279 226 553 244 788 l8 110 3 -95 c2 -52 -2 -153 -8 -224z m-594
-10 c42 -129 109 -225 191 -273 50 -29 139 -41 196 -25 20 6 37 6 37 2 0 -13
-72 -174 -124 -278 -41 -81 -49 -91 -83 -102 -21 -7 -78 -33 -128 -59 -72 -37
-109 -64 -185 -141 -79 -78 -104 -111 -144 -188 -45 -89 -96 -252 -96 -311 0
-21 -12 -34 -62 -66 -248 -159 -597 -514 -999 -1015 -68 -86 -151 -192 -184
-236 l-60 -81 -149 -7 c-82 -4 -151 -5 -153 -2 -3 3 8 24 25 48 114 169 180
315 296 666 45 135 49 142 74 142 68 0 234 33 330 65 209 70 434 214 579 369
159 170 222 305 313 667 60 236 139 419 222 514 24 27 37 50 32 55 -13 13
-169 56 -231 65 -29 4 -53 10 -53 14 0 3 16 15 35 25 89 48 205 205 245 331
21 65 23 63 41 -34 10 -51 26 -116 35 -145z m118 15 c84 -114 205 -202 299
-217 21 -4 36 -12 34 -18 -6 -19 -60 -39 -115 -44 -145 -12 -256 110 -317 353
-36 141 -31 153 20 56 25 -46 61 -105 79 -130z m-286 57 c-46 -86 -131 -171
-209 -208 -68 -32 -99 -35 -221 -23 l-68 6 0 61 c0 34 4 66 8 71 4 6 54 10
112 10 58 1 130 7 160 14 72 17 166 62 210 100 19 17 36 30 38 31 2 0 -12 -28
-30 -62z m-1344 -45 c-45 -113 -70 -157 -114 -197 -61 -55 -133 -86 -200 -86
-57 0 -140 30 -140 50 0 6 17 37 38 68 21 31 55 88 76 125 33 59 41 68 59 63
96 -27 208 -15 268 30 18 13 34 22 36 20 3 -2 -8 -35 -23 -73z m3631 12 c38
-14 116 -33 173 -42 131 -19 240 -7 358 41 l81 32 -59 -85 c-96 -141 -120
-165 -200 -204 -204 -100 -432 -107 -659 -20 -40 16 -74 33 -76 39 -2 5 58 70
132 143 151 149 131 141 250 96z m-1089 -86 c-14 -53 -28 -129 -32 -169 -8
-82 -15 -93 -94 -134 -67 -35 -128 -42 -194 -21 -64 20 -129 70 -122 94 3 9 9
34 15 56 10 40 11 40 75 53 113 21 237 88 331 180 22 21 41 38 42 37 2 -1 -8
-44 -21 -96z m-1530 -159 c71 -6 154 -17 184 -24 l55 -12 -55 -17 c-135 -40
-338 -161 -525 -312 -49 -40 -118 -86 -152 -103 -84 -43 -170 -116 -258 -223
-41 -49 -75 -85 -75 -80 0 21 71 194 120 292 85 169 176 288 289 379 134 108
180 119 417 100z m-499 -122 c-167 -165 -282 -372 -377 -676 -20 -66 -50 -133
-83 -187 -29 -46 -53 -82 -55 -80 -2 2 -12 52 -23 112 -36 208 -18 399 48 512
85 147 376 353 581 410 1 1 -40 -41 -91 -91z m2749 73 c204 -98 490 -111 672
-31 25 11 48 18 51 15 10 -10 -175 -181 -249 -230 -39 -26 -99 -56 -132 -66
-83 -26 -220 -25 -324 2 -79 21 -236 88 -247 106 -9 14 163 223 183 223 4 0
24 -9 46 -19z m-3697 -13 c29 -14 71 -24 113 -26 56 -4 76 0 123 22 32 14 59
26 62 26 2 0 -14 -26 -36 -58 -83 -123 -188 -201 -251 -187 -45 10 -96 74
-109 136 -11 51 -11 53 16 81 15 15 29 28 32 28 2 0 25 -10 50 -22z m1811 -14
c0 -3 -12 -20 -27 -38 -14 -17 -55 -90 -90 -163 -56 -116 -71 -138 -126 -188
-132 -120 -342 -192 -674 -230 -29 -3 -53 -2 -53 2 0 17 110 139 182 204 219
196 431 333 610 394 66 22 178 34 178 19z m752 -89 c53 -36 146 -59 202 -51
26 4 77 23 113 42 36 19 67 34 69 34 2 0 4 -11 4 -25 0 -71 73 -188 145 -232
17 -11 9 -11 -45 -5 -91 10 -500 6 -590 -5 -41 -6 -76 -10 -77 -9 -1 0 16 30
37 65 21 35 51 97 66 137 16 41 31 74 34 74 3 0 22 -11 42 -25z m-2678 -135
c14 -69 46 -224 71 -345 71 -337 76 -389 82 -842 6 -400 9 -435 39 -415 6 4
48 91 93 193 207 470 429 849 607 1038 l53 56 -75 -115 c-150 -227 -260 -481
-442 -1020 -172 -506 -182 -531 -325 -751 l-54 -84 -114 -12 c-62 -7 -114 -11
-116 -9 -2 2 21 53 51 113 73 144 90 191 115 304 69 321 76 702 20 1074 -11
72 -42 301 -69 510 l-49 380 36 38 c26 26 39 33 44 25 4 -7 19 -69 33 -138z
m-150 -22 c17 -116 55 -422 53 -425 -2 -1 -16 28 -32 65 -15 37 -53 116 -82
175 -46 93 -52 111 -41 125 46 60 83 102 89 102 4 0 10 -19 13 -42z m3767 3
c91 -50 234 -93 334 -100 l90 -7 -46 -21 c-26 -12 -92 -33 -148 -47 l-102 -26
-82 24 c-45 13 -109 29 -142 37 -33 7 -61 13 -63 15 -10 7 83 154 97 154 4 0
32 -13 62 -29z m-5652 -98 c21 -8 17 -11 -35 -22 -161 -36 -364 -149 -467
-260 l-55 -60 -145 -32 c-81 -18 -149 -30 -153 -27 -10 10 42 114 90 182 76
107 160 170 286 214 61 21 77 22 260 19 107 -2 206 -8 219 -14z m-614 -22
c-102 -58 -207 -184 -267 -320 -21 -47 -37 -71 -52 -75 -11 -3 -67 -9 -123
-13 l-103 -6 0 26 c0 46 30 171 54 222 29 65 79 121 128 146 47 24 189 44 343
47 l70 2 -50 -29z m5713 2 c62 -3 109 -9 105 -13 -4 -4 -31 -15 -60 -24 -99
-33 -249 -145 -333 -250 -30 -38 -54 -57 -75 -62 -16 -4 -79 -22 -139 -40 -61
-18 -112 -31 -115 -29 -8 9 20 88 60 171 60 126 150 214 249 245 32 9 165 11
308 2z m-456 -39 c-76 -64 -138 -167 -187 -313 l-32 -94 -129 -52 c-71 -28
-149 -62 -172 -74 -24 -12 -46 -20 -49 -17 -7 7 15 109 44 201 53 167 128 280
208 315 66 28 223 59 345 68 8 1 -4 -15 -28 -34z m-4359 -24 c74 -30 107 -48
107 -59 -1 -45 -14 -62 -74 -91 -59 -28 -199 -138 -228 -178 -7 -11 -33 -30
-58 -43 -39 -21 -58 -24 -150 -24 -94 0 -111 3 -165 28 -44 21 -56 30 -45 36
8 5 106 35 217 66 116 33 204 63 207 71 3 8 -4 19 -16 25 -45 24 -322 -6 -505
-55 -68 -18 -63 -7 32 69 112 89 276 162 428 191 96 18 125 14 250 -36z m1503
-42 c102 -203 164 -360 189 -476 45 -214 66 -574 46 -802 -27 -323 -57 -446
-157 -647 -90 -181 -98 -186 -163 -116 -59 64 -151 189 -151 205 0 7 11 47 24
88 45 140 60 274 61 520 0 151 -5 248 -14 295 -23 118 -79 277 -135 388 l-54
106 67 138 c84 170 218 393 237 393 2 0 24 -41 50 -92z m-2874 45 c-56 -72
-95 -177 -108 -294 -6 -54 -9 -59 -31 -59 -45 0 -168 22 -180 32 -47 38 37
204 140 275 30 21 180 81 205 83 2 0 -10 -17 -26 -37z m6664 -8 c139 -33 299
-88 415 -142 93 -43 119 -63 84 -63 -25 0 -132 -38 -225 -80 -130 -57 -234
-81 -391 -87 -84 -4 -162 -1 -205 6 -98 17 -218 53 -202 61 7 4 63 20 125 35
111 27 142 43 127 66 -10 17 -177 4 -334 -25 -69 -13 -127 -22 -129 -20 -8 8
92 104 160 155 172 127 331 154 575 94z m-1856 -149 c-22 -87 -49 -171 -60
-186 -49 -69 -176 -139 -335 -185 -115 -33 -348 -73 -477 -82 l-100 -6 62 123
c34 68 79 151 101 185 l39 62 117 12 c277 28 489 95 633 199 30 22 56 39 57
38 2 -2 -15 -74 -37 -160z m414 -18 c-38 -80 -73 -195 -108 -358 -4 -20 -28
-37 -116 -83 -60 -32 -110 -55 -110 -50 0 4 7 38 14 74 31 143 110 294 204
388 47 47 140 120 154 121 4 0 -13 -42 -38 -92z m-1632 -45 c-3 -101 9 -212
38 -353 l12 -55 -85 -164 c-58 -113 -86 -158 -91 -146 -11 31 -6 273 9 388 17
131 53 276 91 371 14 37 27 66 28 66 0 0 0 -48 -2 -107z m-2142 32 c0 -26 -91
-226 -202 -445 -74 -146 -171 -346 -216 -445 l-81 -180 -53 2 c-29 1 -125 18
-213 38 -463 104 -663 123 -788 76 -41 -16 -95 -70 -102 -101 -8 -38 -25 -38
-78 -1 -97 67 -209 214 -301 398 -56 113 -119 263 -112 270 2 3 39 -2 80 -11
42 -8 112 -19 157 -22 74 -6 81 -9 90 -32 32 -85 147 -201 247 -251 215 -108
605 -75 894 76 88 46 135 88 215 191 85 110 217 263 280 324 73 70 183 138
183 113z m4530 -119 c0 -2 -30 -14 -67 -27 -180 -59 -443 -181 -653 -302 -527
-303 -1035 -799 -1384 -1352 -38 -61 -70 -111 -71 -112 0 -1 -47 3 -104 10
l-104 12 108 140 c448 582 878 1024 1154 1188 295 175 646 324 971 412 125 34
150 39 150 31z m209 -71 c47 -14 116 -30 155 -36 81 -13 333 -6 385 10 19 6
36 9 37 8 2 -1 -38 -38 -87 -82 -130 -116 -169 -129 -369 -129 -127 -1 -171 3
-243 22 -88 22 -302 103 -320 121 -13 13 16 27 172 81 103 36 141 45 160 39
15 -5 64 -20 110 -34z m-5414 -20 c79 -40 81 -40 192 -40 105 0 128 -4 103
-20 -6 -4 -43 -50 -84 -103 -41 -53 -90 -112 -109 -131 -35 -33 -38 -34 -101
-29 -77 7 -136 38 -207 108 -47 47 -126 157 -118 165 7 7 234 95 239 92 3 -1
41 -20 85 -42z m3929 -91 c-38 -86 -85 -154 -142 -206 -144 -128 -479 -225
-749 -216 l-92 3 45 115 c25 63 50 120 56 127 6 8 32 13 62 13 72 0 282 27
396 51 179 37 344 98 415 153 33 26 35 18 9 -40z m-4269 -20 c33 -56 145 -176
192 -205 19 -12 60 -30 91 -39 l57 -18 -80 -39 c-76 -36 -85 -38 -180 -38 -87
0 -107 3 -156 26 -32 15 -75 45 -97 67 -43 43 -90 130 -98 183 l-6 34 119 36
c65 20 121 37 125 38 3 0 18 -20 33 -45z m6544 31 c127 -30 319 -143 414 -242
l27 -29 -87 30 c-73 24 -108 30 -211 34 -165 6 -266 -14 -414 -80 l-68 -31
-95 29 c-52 16 -94 31 -93 35 2 3 35 33 75 66 39 33 106 92 149 131 l77 72 81
0 c45 0 110 -7 145 -15z m-1217 -38 c110 -52 229 -92 348 -117 84 -19 124 -22
228 -18 70 3 136 9 147 13 31 12 -38 -45 -160 -134 -113 -81 -163 -103 -268
-116 -112 -14 -290 32 -434 112 -92 52 -217 143 -217 158 0 10 264 146 274
141 3 -1 40 -18 82 -39z m-5638 -69 c24 -128 141 -255 269 -293 l42 -12 -58
-12 c-31 -7 -101 -13 -155 -14 -82 -2 -105 1 -148 21 -59 27 -117 82 -138 132
-18 45 -29 141 -18 158 9 13 135 49 178 51 17 1 23 -6 28 -31z m2423 -55 c110
-238 128 -326 128 -623 0 -143 -5 -268 -13 -320 -16 -101 -51 -240 -61 -240
-14 0 -130 254 -165 360 -19 58 -40 143 -47 189 -15 107 -6 294 20 419 22 104
82 302 92 302 3 0 24 -39 46 -87z m-2670 -21 c2 -71 25 -135 65 -186 30 -37
30 -38 7 -31 -39 12 -114 55 -154 88 -43 35 -125 142 -125 163 0 10 22 14 83
17 45 1 91 4 102 5 18 2 20 -5 22 -56z m5678 -122 c153 -93 304 -142 442 -144
44 -1 79 -4 77 -7 -6 -10 -191 -99 -252 -121 -36 -13 -93 -22 -157 -25 -124
-7 -231 17 -351 77 -79 40 -244 161 -244 179 0 12 37 39 172 121 l112 68 65
-53 c36 -29 98 -72 136 -95z m1755 30 c161 -56 249 -126 368 -294 34 -49 61
-90 60 -92 -2 -1 -35 13 -75 32 -39 19 -102 41 -140 49 -91 19 -277 19 -386
-1 l-87 -16 -44 40 c-66 60 -162 129 -245 175 l-74 40 34 18 c105 56 226 79
389 75 108 -3 148 -8 200 -26z m-795 -47 c87 -20 268 -112 361 -181 43 -33
113 -92 154 -131 41 -40 118 -106 170 -148 160 -128 159 -133 -5 -22 -55 38
-152 112 -215 165 -131 109 -240 180 -349 225 -81 34 -225 78 -253 79 -23 0
-23 16 -1 29 19 10 42 8 138 -16z m-2066 -30 c-21 -25 -163 -129 -240 -174
-147 -88 -354 -157 -518 -175 l-64 -6 7 28 c4 16 22 67 39 114 l32 85 155 7
c214 9 452 60 566 121 37 21 39 21 23 0z m1951 -28 c36 -9 68 -20 73 -24 4 -4
1 -39 -7 -78 -42 -198 -40 -405 4 -508 11 -25 18 -45 16 -45 -11 0 -235 84
-268 101 -23 12 -67 45 -98 74 -90 84 -156 132 -249 178 l-88 45 56 22 c111
45 278 133 371 195 52 35 102 62 110 60 8 -2 44 -11 80 -20z m-1225 -106 c94
-68 196 -116 302 -142 l88 -22 -55 -8 c-76 -12 -220 -2 -313 22 -130 34 -219
87 -253 153 -20 39 -19 44 33 83 l46 35 41 -35 c23 -20 73 -58 111 -86z m1403
51 c30 -11 80 -34 112 -50 56 -28 59 -32 64 -72 19 -156 29 -216 51 -297 52
-194 133 -341 244 -443 34 -32 57 -58 51 -58 -22 0 -162 51 -218 79 -31 16
-91 53 -132 83 -41 29 -100 69 -130 87 -64 40 -73 50 -105 116 -36 75 -49 194
-35 329 9 91 36 246 43 246 1 0 26 -9 55 -20z m-1669 -67 c23 -46 52 -73 109
-106 l43 -24 -59 -22 c-68 -24 -143 -86 -162 -132 -15 -35 -9 -35 -144 5 -48
14 -97 26 -107 26 -29 0 -23 11 29 62 40 40 262 227 269 228 2 0 11 -17 22
-37z m2051 -173 c58 -47 122 -99 142 -114 22 -16 53 -57 77 -100 94 -172 266
-365 402 -452 42 -27 85 -55 95 -62 16 -10 -4 -11 -111 -7 -230 11 -292 21
-371 60 -76 37 -160 112 -214 189 -84 123 -162 356 -176 528 l-7 82 29 -18
c16 -11 76 -58 134 -106z m575 50 c133 -34 238 -104 284 -190 27 -51 101 -249
101 -272 0 -5 -17 4 -37 21 -67 56 -153 112 -216 142 -77 36 -205 69 -266 69
-44 0 -54 6 -180 106 -74 60 -129 110 -124 115 32 32 324 38 438 9z m-1706
-81 c84 -40 217 -127 207 -136 -2 -3 -39 1 -80 8 -94 15 -319 7 -431 -15 -89
-18 -251 -66 -319 -95 l-44 -20 -122 55 c-66 29 -132 57 -145 60 -30 7 -32 29
-7 67 28 41 77 74 149 98 68 22 82 22 218 -5 125 -24 268 -18 400 18 61 16 68
15 174 -35z m-5625 16 c60 -8 110 -16 112 -17 1 -2 -26 -18 -61 -37 -61 -31
-104 -69 -151 -135 -21 -29 -22 -30 -65 -17 -24 7 -81 27 -126 43 -77 28 -83
32 -83 57 0 33 37 76 77 92 76 30 153 33 297 14z m379 -69 c97 -21 141 -36
108 -36 -31 0 -178 -67 -258 -117 l-88 -56 -71 12 c-97 16 -144 30 -144 42 0
6 28 39 63 74 52 52 74 67 128 84 83 26 131 26 262 -3z m1730 -40 c13 -14 28
-50 35 -84 44 -211 214 -548 362 -717 l53 -59 -29 -7 c-114 -25 -146 -34 -199
-57 -126 -54 -238 -148 -316 -265 -23 -34 -44 -64 -45 -66 -2 -2 -36 27 -76
65 -192 182 -349 269 -565 313 -307 63 -518 -31 -576 -257 l-13 -53 -129 94
c-71 51 -130 98 -132 103 -10 32 226 227 354 293 64 32 83 29 83 -16 0 -67 47
-90 113 -57 82 42 244 195 351 331 100 128 154 151 218 93 59 -54 134 -36 237
56 57 51 122 140 152 209 24 54 66 105 85 105 8 0 25 -11 37 -24z m2338 -20
c105 -27 262 -84 387 -141 90 -41 105 -58 24 -26 -154 61 -374 101 -551 101
l-85 0 44 45 c25 26 53 45 66 45 12 0 64 -11 115 -24z m-3636 -11 c33 0 80 3
105 7 118 20 -66 -45 -305 -107 -175 -46 -304 -63 -371 -51 l-38 8 50 30 c68
43 168 89 239 110 49 15 78 17 160 11 55 -4 127 -8 160 -8z m231 -52 c-10 -84
-33 -124 -86 -150 -72 -37 -222 -29 -380 20 -53 17 -56 15 118 62 136 36 282
87 317 111 33 23 38 17 31 -43z m4708 7 c134 -22 159 -34 218 -107 56 -70 118
-158 118 -167 0 -2 -29 8 -64 24 -204 93 -442 109 -716 50 l-95 -21 -97 51
c-54 28 -98 55 -98 59 0 18 260 91 389 110 80 12 276 13 345 1z m1465 -117
c123 -72 161 -86 161 -59 0 10 -91 92 -159 143 -2 2 -2 6 2 9 11 12 146 -25
223 -61 151 -69 294 -196 333 -295 12 -30 39 -79 62 -108 l40 -54 -138 4
c-151 3 -195 16 -321 89 -80 47 -265 235 -340 346 -34 50 -62 94 -62 98 0 4
17 -4 38 -17 20 -12 93 -55 161 -95z m-2746 50 c57 -5 67 -8 61 -22 -4 -9 -9
-51 -12 -93 -3 -66 -1 -84 21 -131 14 -30 41 -72 61 -94 20 -22 36 -43 36 -45
0 -3 -36 -8 -80 -12 -112 -9 -293 -57 -393 -104 -117 -55 -188 -104 -267 -184
l-67 -67 -84 28 c-57 20 -84 34 -83 44 2 21 172 272 272 402 127 164 203 251
237 268 33 17 175 22 298 10z m228 -44 l86 -23 0 -140 c0 -99 5 -155 16 -188
8 -27 11 -48 6 -48 -6 0 -33 15 -62 34 -66 42 -151 132 -171 181 -30 72 -14
221 23 212 9 -3 55 -15 102 -28z m-4106 -71 c113 -33 275 -48 338 -30 20 6 37
7 37 3 0 -4 -25 -33 -55 -63 -47 -49 -62 -58 -112 -68 -105 -22 -264 26 -418
125 l-60 39 70 17 c39 9 77 14 85 11 8 -2 60 -18 115 -34z m4540 -89 c80 -34
145 -65 145 -68 -2 -22 -277 -205 -328 -218 -37 -9 -71 13 -92 61 -27 60 -42
177 -34 268 l6 77 80 -29 c43 -16 144 -57 223 -91z m-5351 53 c212 -158 492
-272 672 -272 30 0 54 -4 54 -9 0 -5 -7 -26 -16 -47 -9 -22 -38 -97 -64 -167
l-47 -129 -234 225 c-311 299 -447 437 -430 437 8 0 37 -17 65 -38z m558 -16
c135 -88 234 -129 368 -153 l45 -9 -65 -23 c-117 -42 -323 -39 -416 5 -61 29
-227 195 -211 211 5 4 80 14 179 22 10 0 55 -23 100 -53z m-322 10 c8 -11 40
-51 73 -88 l58 -68 -58 25 c-55 24 -215 116 -258 148 -17 13 -9 14 75 9 81 -4
97 -8 110 -26z m5708 13 c124 -14 258 -57 347 -111 67 -41 72 -47 122 -143 29
-55 52 -105 53 -112 0 -6 -23 2 -52 18 -68 37 -169 69 -222 69 -35 1 -44 5
-61 33 -45 72 -149 86 -253 33 -64 -32 -66 -32 -49 2 36 70 40 136 12 205 -4
9 -4 17 -1 17 4 0 50 -5 104 -11z m-328 -16 c0 -14 -54 -63 -69 -63 -9 0 -27
9 -41 19 l-24 19 39 10 c87 23 95 24 95 15z m171 -24 c29 -29 20 -91 -25 -184
l-35 -70 -224 -122 c-124 -68 -227 -123 -229 -123 -1 0 -3 22 -3 49 0 41 -5
55 -28 79 l-28 29 33 14 c61 25 203 126 321 228 149 129 177 141 218 100z
m283 -220 c31 -24 34 -59 9 -121 -48 -121 -158 -255 -258 -313 l-47 -28 -36
19 c-24 13 -55 19 -98 19 -62 0 -63 0 -49 20 54 73 68 100 72 138 4 29 0 54
-11 76 -9 17 -14 35 -12 40 6 8 267 153 296 164 38 14 108 7 134 -14z m-6565
-44 c46 -23 110 -104 152 -190 36 -75 89 -225 89 -252 0 -7 -19 8 -42 34 -43
46 -168 143 -225 174 -32 18 -33 22 -49 182 l-7 67 27 0 c15 0 40 -7 55 -15z
m5471 -15 c28 -16 55 -30 59 -30 5 0 14 -6 20 -14 10 -12 0 -17 -59 -30 -155
-36 -279 -57 -371 -66 -79 -6 -116 -16 -200 -51 -205 -84 -309 -114 -309 -90
0 12 87 91 141 129 155 106 391 178 591 181 69 1 83 -2 128 -29z m-5766 -82
c10 -51 19 -113 22 -138 l5 -45 -81 -38 c-110 -52 -193 -135 -249 -248 -59
-120 -75 -191 -75 -336 -1 -68 -4 -123 -7 -123 -15 0 -111 212 -124 275 -39
188 7 424 114 579 54 78 156 134 283 155 101 17 93 22 112 -81z m7131 43 c105
-48 162 -89 197 -140 65 -96 136 -175 211 -237 44 -35 76 -64 73 -64 -3 0 -40
17 -83 37 -198 94 -603 338 -603 364 0 9 5 31 11 49 12 32 12 33 68 27 32 -2
86 -18 126 -36z m-1138 -93 c22 -18 15 -72 -16 -115 -38 -53 -130 -96 -249
-118 -85 -16 -94 -16 -110 -2 -24 22 -86 47 -117 47 -23 0 -25 4 -25 43 0 23
-3 51 -6 62 -5 19 8 23 173 55 98 19 196 38 218 41 49 8 115 2 132 -13z m389
-5 c7 -10 14 -34 14 -54 0 -70 -78 -155 -224 -242 l-59 -36 -19 39 c-19 37
-81 79 -119 80 -22 1 14 25 141 92 63 34 144 79 180 100 36 21 67 38 69 38 2
0 10 -8 17 -17z m603 -42 c42 -26 96 -61 121 -77 l45 -28 -49 -7 c-29 -5 -69
-21 -102 -43 -30 -20 -55 -36 -58 -36 -2 0 -1 20 1 44 6 54 -9 84 -52 102
l-34 14 22 40 c12 22 24 40 26 40 2 0 38 -22 80 -49z m-1571 -81 c4 -75 -19
-128 -79 -185 -49 -46 -169 -109 -229 -121 -16 -4 -35 -13 -41 -20 -21 -25 -3
-41 55 -47 30 -3 61 -9 67 -13 16 -10 5 -77 -17 -107 -60 -80 -276 -157 -438
-157 -47 0 -69 -5 -81 -16 -25 -26 -2 -41 80 -54 132 -20 165 -42 165 -106 0
-73 -117 -110 -385 -122 l-150 -7 0 -25 c0 -23 7 -26 109 -52 59 -15 128 -39
152 -53 51 -30 66 -67 40 -93 -14 -15 -35 -16 -144 -13 -256 8 -266 8 -270
-12 -3 -12 9 -23 43 -37 55 -24 57 -43 6 -77 -53 -36 -96 -45 -251 -52 -133
-5 -145 -8 -145 -25 0 -10 9 -24 20 -30 43 -24 85 -58 95 -77 24 -43 -48 -126
-131 -149 -19 -6 -67 -10 -106 -10 -66 0 -73 -2 -73 -20 0 -14 21 -29 83 -58
99 -47 131 -81 123 -132 -7 -43 -33 -79 -77 -105 -30 -18 -51 -20 -169 -19
-113 1 -146 5 -200 24 -84 29 -207 91 -295 147 -87 57 -241 211 -278 280 l-28
52 23 5 c13 3 59 12 103 22 230 47 635 232 635 288 0 8 -15 24 -33 35 -60 37
-162 153 -312 356 -82 110 -174 232 -206 271 l-58 71 37 63 c72 124 207 235
345 285 131 48 599 105 856 105 221 0 304 -13 558 -86 54 -16 71 -17 133 -6
38 7 116 31 173 53 195 79 222 88 257 86 l35 -2 3 -55z m-5082 -49 c84 -58
180 -159 216 -226 44 -84 78 -299 78 -500 l0 -110 -23 65 c-13 36 -29 76 -37
90 -39 75 -124 181 -210 263 l-97 93 -6 187 c-4 103 -3 187 2 187 4 0 39 -22
77 -49z m6550 27 c38 -61 -83 -268 -255 -438 -141 -140 -269 -231 -323 -229
-22 0 -22 1 -4 12 105 65 165 179 120 228 -16 17 -13 22 39 73 33 33 67 80 84
114 22 48 36 64 71 82 23 13 73 49 111 81 98 82 141 103 157 77z m-4497 -37
c74 -19 279 -107 269 -116 -2 -2 -32 3 -68 10 -85 19 -241 19 -328 0 -134 -28
-279 -101 -364 -183 l-38 -36 -35 17 c-32 15 -34 19 -28 49 27 143 109 235
243 274 63 19 243 11 349 -15z m-2322 -146 c13 -83 23 -186 24 -230 1 -166
-59 -452 -122 -576 -48 -96 -162 -206 -173 -167 -2 7 -11 41 -20 75 -8 33 -33
101 -55 150 -114 260 -65 602 113 778 61 60 168 127 196 122 11 -2 20 -39 37
-152z m7263 80 c0 -4 -69 -45 -76 -45 -2 0 -4 10 -4 23 0 12 -7 35 -15 51 -8
15 -15 30 -15 31 0 2 25 -10 55 -27 30 -16 55 -31 55 -33z m-162 25 c38 -35
25 -124 -25 -182 -19 -21 -10 -48 14 -48 10 0 45 27 77 59 60 60 124 98 149
88 20 -7 30 -68 21 -125 -18 -121 -102 -294 -213 -441 -31 -41 -62 -82 -70
-92 -16 -22 -8 -49 14 -49 9 0 29 15 45 33 54 62 169 110 203 85 16 -12 16
-17 2 -71 -20 -78 -68 -181 -139 -297 -66 -108 -179 -268 -225 -319 -62 -69
-11 -80 74 -16 119 89 134 51 49 -125 -142 -295 -355 -544 -668 -780 l-56 -42
-57 49 c-91 78 -154 120 -244 162 -109 50 -187 71 -199 51 -15 -24 1 -39 58
-55 84 -25 207 -89 289 -151 94 -72 165 -149 285 -312 57 -76 114 -142 136
-156 20 -13 82 -41 137 -60 232 -85 295 -122 295 -175 0 -17 -24 -62 -66 -122
-117 -168 -176 -304 -239 -550 -52 -201 -58 -335 -22 -469 60 -225 222 -503
415 -711 89 -97 51 -79 -59 27 -201 196 -296 325 -444 609 -118 227 -138 246
-212 208 -65 -34 -90 -77 -118 -198 -51 -230 -68 -369 -71 -589 -3 -215 -13
-268 -33 -176 -25 118 -10 453 34 715 21 127 19 177 -6 209 -23 30 -63 34 -96
11 -12 -8 -51 -76 -87 -150 -104 -216 -212 -360 -132 -177 74 170 158 329 207
394 26 35 139 147 252 251 201 183 305 297 350 380 30 58 29 162 -1 232 -83
184 -296 323 -584 380 -267 53 -422 134 -540 283 -41 52 -68 77 -82 77 -37 0
-28 -29 38 -110 67 -83 114 -125 205 -180 l55 -33 -102 -51 c-302 -152 -714
-266 -1117 -310 -55 -6 -145 -17 -200 -24 -60 -7 -223 -12 -405 -12 -289 0
-313 1 -458 28 -522 94 -911 205 -1222 350 -70 33 -193 106 -178 107 3 0 46
-13 95 -29 122 -40 228 -55 296 -42 172 32 278 153 264 302 l-5 58 48 -24
c154 -78 344 -137 480 -150 185 -17 330 56 330 166 0 22 4 39 8 39 4 0 48 -9
98 -20 49 -11 145 -25 214 -31 106 -10 139 -9 213 4 177 31 258 100 303 255 2
9 37 12 126 12 332 0 778 56 992 124 138 44 276 137 291 198 4 17 1 39 -9 59
-9 18 -15 33 -14 33 2 1 19 9 38 20 80 43 140 126 127 177 -4 14 0 19 17 19
44 0 168 38 206 64 42 27 56 65 45 116 -7 33 -53 77 -91 86 -33 9 -30 17 16
43 75 42 205 143 289 225 135 131 224 287 205 360 -9 39 -59 76 -101 76 l-35
0 72 78 c39 42 86 100 105 128 67 101 243 244 301 244 11 0 30 -9 42 -20z
m-1623 -29 c60 -28 80 -55 79 -110 -2 -93 -75 -184 -160 -197 -38 -5 -56 -2
-103 19 -31 14 -66 29 -79 32 -12 4 -33 17 -46 30 l-24 24 54 26 c66 32 146
104 176 156 25 45 42 48 103 20z m453 -27 c50 -20 67 -50 59 -109 -22 -158
-174 -252 -463 -285 -130 -15 -130 -15 -143 21 -6 18 -11 34 -11 35 0 2 14 4
30 4 67 0 152 69 191 154 12 26 19 64 19 103 l0 62 53 10 c28 5 61 12 72 14
49 11 157 6 193 -9z m501 -13 c38 -24 -30 -142 -112 -195 -51 -34 -54 -34
-185 -38 -119 -4 -132 -3 -126 11 18 43 33 88 34 101 1 21 130 92 203 112 68
18 164 23 186 9z m-3894 -40 c157 -38 181 -51 291 -163 92 -93 248 -278 240
-285 -1 -2 -25 8 -52 21 -223 107 -553 143 -855 91 l-96 -17 -109 67 c-60 36
-115 72 -122 79 -32 32 192 168 338 206 102 26 258 26 365 1z m4916 -14 c30
-13 63 -27 74 -31 20 -8 20 -8 -1 -16 -11 -5 -46 -11 -77 -15 l-57 -7 0 46 c0
25 2 46 4 46 2 0 28 -11 57 -23z m-6026 -109 c57 -46 104 -87 104 -92 1 -4
-10 -21 -23 -37 -50 -59 -40 -210 23 -361 118 -280 324 -480 618 -598 146 -58
270 -80 452 -80 124 0 151 -3 151 -14 0 -29 102 -165 176 -235 132 -126 286
-216 483 -281 205 -69 466 -100 831 -100 92 0 169 -3 172 -6 3 -3 1 -22 -5
-42 -17 -54 -82 -115 -152 -143 -53 -21 -76 -23 -210 -23 -123 0 -172 5 -270
26 -114 24 -131 31 -327 136 -121 65 -214 109 -223 106 -8 -4 -15 -14 -15 -24
0 -13 38 -38 138 -90 232 -122 252 -140 237 -209 -16 -73 -109 -107 -264 -98
-160 9 -353 76 -584 203 -95 52 -121 63 -133 53 -25 -21 -15 -37 45 -69 66
-36 81 -65 81 -163 0 -45 -6 -63 -32 -103 -108 -157 -334 -148 -679 27 -101
51 -128 71 -197 142 -155 158 -255 300 -353 500 -107 220 -176 458 -210 727
-17 131 -17 482 0 610 16 122 52 320 58 320 3 0 52 -37 108 -82z m6845 -59
c36 -5 94 -19 130 -30 71 -22 220 -88 220 -99 0 -3 -34 -12 -75 -19 -210 -35
-418 -142 -521 -268 -42 -53 -49 -57 -82 -54 -57 5 -72 14 -162 97 -47 44
-105 96 -130 117 l-45 39 40 34 c175 153 401 219 625 183z m-7909 -208 c168
-207 208 -399 130 -630 -43 -128 -84 -202 -149 -268 -56 -57 -163 -116 -232
-129 l-35 -7 26 29 c51 56 79 111 100 194 18 70 21 102 16 185 -6 103 -25 211
-54 301 -15 48 -15 62 0 175 9 68 19 168 23 222 l7 97 51 -44 c28 -24 81 -80
117 -125z m4882 145 c52 -21 87 -70 87 -120 0 -115 -130 -190 -352 -203 -76
-5 -98 -3 -98 7 0 7 -16 27 -35 45 l-34 33 66 16 c146 37 258 110 295 194 21
47 24 48 71 28z m1011 -6 c21 -4 45 -15 53 -23 13 -13 13 -18 -1 -44 -36 -70
-122 -122 -245 -148 -103 -22 -111 -21 -111 14 0 45 -29 71 -100 90 l-64 18
74 37 c57 29 95 41 169 51 117 16 174 17 225 5z m-4607 -40 c54 -35 63 -45 68
-77 45 -289 110 -470 229 -643 30 -44 51 -80 46 -80 -19 0 -172 124 -226 183
-135 149 -229 336 -249 498 -11 87 16 158 60 158 6 1 38 -17 72 -39z m5816
-57 c55 -43 168 -138 249 -210 82 -73 153 -133 158 -133 18 0 247 -30 310 -41
167 -28 315 -75 427 -134 l68 -36 -45 5 c-25 3 -108 17 -185 31 -77 14 -193
28 -257 32 -173 9 -183 -7 -87 -132 103 -134 216 -312 273 -429 104 -214 134
-341 143 -616 11 -335 -24 -675 -127 -1255 -88 -493 -104 -623 -104 -857 -1
-108 -4 -191 -7 -185 -15 28 -50 170 -63 259 -34 222 -30 483 11 788 22 163
22 184 2 188 -12 2 -26 -21 -54 -88 -118 -282 -368 -508 -692 -624 -175 -64
-420 -106 -612 -106 l-108 0 -7 31 c-12 60 -18 57 137 52 166 -7 298 11 437
57 221 73 452 215 618 380 109 109 96 134 -38 71 -47 -21 -116 -47 -155 -56
-84 -21 -222 -23 -285 -4 l-45 13 110 7 c128 7 184 20 281 64 191 87 354 254
424 436 160 415 141 968 -49 1433 -46 113 -66 146 -86 146 -23 0 -26 -17 -14
-82 14 -82 14 -288 -1 -364 -27 -138 -79 -262 -155 -369 -66 -94 -204 -217
-295 -265 -16 -8 -3 11 36 56 163 185 275 379 314 544 37 156 24 320 -36 463
-79 187 -275 392 -505 527 -78 46 -90 56 -84 74 3 12 8 44 12 73 5 46 3 54
-21 78 -25 25 -33 27 -82 23 -30 -3 -54 -2 -54 0 0 3 13 26 29 51 16 25 44 76
62 114 18 37 37 67 42 67 5 0 54 -35 110 -77z m-4723 -32 c104 -22 178 -46
255 -82 112 -52 144 -78 224 -188 44 -58 78 -107 77 -108 -2 -2 -36 8 -77 22
-105 37 -277 64 -447 72 l-146 6 -120 67 c-67 37 -175 95 -241 130 -66 34
-124 66 -129 71 -5 4 7 10 25 14 160 30 427 28 579 -4z m5991 -8 c23 -21 58
-60 79 -88 43 -59 104 -164 98 -170 -2 -2 -28 2 -58 10 -30 8 -78 15 -106 15
-73 0 -197 -34 -272 -76 l-65 -35 -88 21 c-48 11 -131 27 -185 35 -53 8 -99
17 -102 20 -4 3 26 36 65 74 90 86 232 160 378 195 185 45 205 45 256 -1z
m-6681 -194 c97 -272 256 -497 439 -624 l65 -45 -51 0 c-128 0 -338 62 -405
119 -136 116 -268 374 -318 621 -34 165 -41 160 109 82 l130 -67 31 -86z
m4596 190 c23 -19 16 -57 -22 -129 -57 -110 -168 -226 -319 -336 -106 -77
-145 -99 -145 -81 0 8 -16 29 -35 46 -23 20 -31 33 -23 35 7 3 38 12 68 22 87
27 156 61 189 94 54 54 54 149 0 203 -17 16 -29 31 -27 32 2 1 13 7 25 14 12
6 51 33 86 60 35 27 77 52 93 54 41 7 93 0 110 -14z m-778 -32 c39 -21 41 -45
5 -79 -75 -70 -264 -132 -644 -212 l-159 -34 -75 24 c-42 13 -84 24 -94 24
-26 0 -30 8 -18 39 10 27 14 29 96 35 207 17 358 86 392 181 7 19 20 36 28 39
9 3 111 4 226 3 178 -2 215 -5 243 -20z m-5823 -222 c-9 -183 -26 -296 -53
-365 -48 -124 -114 -205 -192 -238 -45 -19 -134 -11 -186 16 l-39 21 33 1 c45
0 87 45 107 113 8 28 15 56 15 63 0 7 20 22 44 34 111 53 212 238 249 453 10
61 12 66 20 40 4 -15 5 -77 2 -138z m2182 55 c126 -56 145 -68 173 -107 51
-71 243 -265 331 -334 86 -69 197 -135 242 -145 62 -13 27 -27 -161 -59 -122
-22 -147 -19 -228 21 -172 85 -321 256 -435 499 -44 93 -82 198 -71 192 4 -2
71 -32 149 -67z m4043 41 c32 -12 50 -26 64 -51 17 -32 17 -38 3 -72 -13 -31
-27 -42 -89 -71 -73 -34 -165 -64 -173 -55 -2 2 1 20 7 40 9 30 8 42 -8 74
-26 52 -59 73 -137 87 -37 6 -67 14 -67 17 0 3 11 13 24 22 52 38 283 43 376
9z m-343 -104 c35 -8 72 -22 83 -32 28 -25 25 -67 -7 -106 -47 -56 -77 -62
-299 -67 l-202 -4 -78 30 c-44 16 -104 35 -134 42 -67 16 -66 16 144 65 87 21
188 48 225 60 77 27 174 31 268 12z m2918 -23 c33 -8 69 -21 80 -28 11 -8 35
-53 55 -107 41 -111 111 -220 180 -282 28 -25 50 -48 50 -52 0 -13 -241 3
-305 20 -88 23 -182 73 -240 128 l-50 48 60 -7 c103 -13 120 -11 123 11 4 31
-146 125 -284 176 l-57 22 34 18 c116 62 246 82 354 53z m-6181 -99 c196 -81
288 -123 348 -162 22 -14 30 -15 40 -5 22 22 -4 44 -167 139 -87 51 -160 95
-164 99 -3 3 39 3 94 0 305 -21 496 -85 624 -207 75 -72 80 -62 -69 -138 -127
-65 -243 -111 -283 -111 -116 1 -296 110 -479 293 -88 88 -166 177 -155 177 2
0 97 -38 211 -85z m-2510 -62 c48 -217 24 -406 -66 -508 -56 -65 -113 -95
-179 -95 -154 0 -288 66 -370 181 l-20 28 67 -31 c131 -61 235 -46 327 46 69
69 131 201 191 403 12 39 24 66 27 60 4 -7 14 -45 23 -84z m4767 76 c157 -40
249 -104 249 -174 0 -71 -121 -134 -275 -142 -80 -5 -99 -2 -165 21 -41 15
-81 29 -88 31 -9 3 -7 12 9 34 42 57 -3 141 -95 181 l-41 17 90 11 c50 7 110
18 135 26 63 20 84 19 181 -5z m2525 -45 c49 -31 113 -74 143 -97 112 -87 245
-237 295 -334 l17 -33 -71 0 c-174 0 -311 -115 -431 -359 -29 -59 -86 -211
-131 -350 -47 -144 -91 -260 -106 -279 -55 -75 -128 -90 -239 -50 -34 12 -65
19 -69 15 -25 -25 114 -244 230 -361 127 -129 240 -176 420 -176 229 1 470
133 602 331 80 120 121 241 172 499 8 44 9 43 17 -45 12 -131 -1 -392 -25
-510 -19 -96 -72 -276 -89 -303 -6 -10 -18 -8 -57 10 -39 18 -68 22 -144 22
-121 1 -194 -21 -395 -119 -280 -136 -380 -148 -421 -49 -8 19 -20 34 -27 34
-17 0 -104 -136 -135 -212 -22 -52 -27 -79 -27 -153 0 -76 4 -98 26 -145 14
-31 48 -77 75 -103 49 -48 170 -117 205 -117 10 0 20 -4 23 -9 6 -9 -75 -34
-168 -50 -65 -12 -278 -15 -338 -5 -46 8 -46 9 -13 152 63 267 127 421 244
587 76 107 91 148 71 196 -28 66 -94 104 -356 198 -97 35 -118 53 -210 178
-47 65 -100 133 -117 151 -19 20 -27 35 -21 41 5 5 56 46 114 91 138 108 336
310 428 435 134 181 245 400 246 481 1 49 -25 84 -61 84 -12 0 -23 2 -23 4 0
3 32 54 70 113 39 59 92 150 118 200 26 51 52 93 58 93 6 0 51 -25 100 -56z
m-2023 -86 c65 -27 115 -63 129 -93 11 -26 -10 -76 -46 -108 -67 -59 -236
-104 -431 -114 l-120 -6 -28 36 -27 36 37 6 c79 13 171 46 211 75 80 58 100
121 62 195 -11 22 -20 40 -20 41 0 6 187 -49 233 -68z m2843 6 c23 -4 33 -13
42 -37 20 -54 114 -203 175 -278 32 -39 87 -91 123 -117 35 -26 60 -48 54 -50
-16 -6 -121 28 -181 58 -78 40 -156 115 -227 218 -33 48 -81 114 -106 146 -25
33 -46 64 -46 69 0 9 89 4 166 -9z m-2207 -32 c46 -23 60 -47 40 -67 -8 -8
-82 -49 -165 -90 -141 -70 -149 -73 -152 -52 -9 72 -29 87 -117 87 l-55 0 0
35 c0 20 -7 47 -16 60 l-16 25 103 1 c57 1 131 5 164 9 110 13 178 11 214 -8z
m2402 2 c90 -16 97 -19 119 -52 34 -48 120 -116 193 -151 92 -44 178 -62 322
-70 l130 -6 -73 -49 c-82 -53 -192 -97 -294 -116 -68 -12 -68 -12 -140 22 -86
41 -166 111 -241 211 -69 92 -144 227 -125 227 7 0 56 -7 109 -16z m-3881
-154 c128 -30 253 -84 289 -123 35 -39 30 -72 -19 -122 -57 -58 -102 -69 -195
-49 -39 9 -83 18 -98 21 -27 5 -28 7 -21 48 10 73 -46 144 -153 191 -43 19
-53 28 -53 48 0 23 2 24 68 19 37 -3 119 -17 182 -33z m1610 -12 c38 -19 46
-28 48 -56 3 -31 0 -34 -50 -56 -29 -14 -86 -29 -126 -35 -63 -10 -77 -9 -105
6 -17 9 -50 22 -72 28 l-40 12 120 61 c66 34 134 61 150 61 17 1 51 -9 75 -21z
m-463 -22 c13 -13 -84 -93 -153 -126 -36 -17 -130 -53 -209 -80 l-143 -48 -61
18 c-33 11 -99 23 -146 27 -78 7 -85 10 -73 25 10 13 44 19 158 27 222 17 361
57 438 125 21 18 44 36 52 39 20 9 128 3 137 -7z m-1352 -58 c61 -31 105 -77
105 -111 0 -45 -54 -93 -114 -102 -91 -14 -335 66 -371 121 -8 13 -15 25 -15
27 0 2 31 7 69 11 82 7 186 38 221 66 27 21 41 19 105 -12z m1518 -94 c90 -32
102 -79 36 -139 -49 -44 -140 -88 -163 -79 -9 3 -16 16 -16 28 0 50 -65 115
-133 131 -15 4 -29 11 -32 15 -3 4 28 22 68 39 63 27 80 30 136 25 35 -3 82
-12 104 -20z m2025 -66 c14 -18 39 -121 45 -190 l5 -56 -131 5 c-103 4 -146 2
-194 -10 -73 -19 -147 -55 -192 -92 -43 -37 -39 -16 16 82 76 135 167 225 262
259 47 17 175 18 189 2z m-3700 -98 c40 -12 86 -35 101 -50 68 -62 63 -177 -9
-212 -61 -31 -174 -23 -333 23 -63 19 -69 23 -83 60 -9 22 -32 52 -51 68 l-34
28 47 18 c53 20 118 74 139 116 l14 27 68 -27 c38 -15 101 -38 141 -51z m1388
51 c94 -42 107 -77 50 -134 -58 -59 -191 -89 -320 -73 -53 7 -56 9 -49 29 9
24 10 114 3 136 -4 9 19 22 75 42 94 34 164 34 241 0z m-506 -13 c68 -13 126
-41 141 -69 8 -17 7 -31 -6 -66 -34 -90 -146 -125 -332 -104 -130 15 -130 15
-125 51 6 42 -4 74 -34 109 l-26 31 29 0 c34 0 103 31 122 54 12 15 26 16 95
11 45 -4 106 -11 136 -17z m-514 -32 c76 -35 134 -91 134 -128 0 -71 -69 -129
-161 -136 -32 -2 -78 -1 -101 2 l-43 6 0 84 c0 73 -3 89 -23 116 -13 17 -22
33 -20 34 25 15 110 44 133 45 17 0 53 -10 81 -23z m3627 -196 c30 -89 32
-104 31 -233 -1 -146 -16 -201 -28 -105 -4 29 -22 98 -39 153 -31 95 -33 106
-29 225 5 143 5 143 65 -40z m-2410 64 c51 -27 32 -60 -75 -128 -60 -38 -201
-90 -277 -102 -41 -7 -44 -6 -35 12 5 10 9 43 9 72 0 52 0 52 35 58 133 21
193 44 233 90 23 27 53 26 110 -2z m2122 -63 c18 -4 31 -14 33 -25 5 -27 -26
-151 -54 -214 l-23 -53 -38 7 c-60 12 -222 8 -288 -6 -73 -15 -149 -48 -210
-90 -25 -17 -45 -28 -45 -24 0 4 9 37 20 73 50 168 163 283 320 327 47 13 233
16 285 5z m-2570 -41 c22 -24 24 -72 5 -95 -21 -26 -100 -62 -160 -74 -67 -13
-251 -33 -257 -28 -2 3 8 12 22 21 35 23 65 74 65 112 0 30 2 31 50 37 27 3
69 15 92 26 61 27 158 28 183 1z m-447 -26 l62 -7 0 -32 c0 -25 -8 -40 -30
-58 -59 -50 -212 -88 -292 -73 -29 6 -35 12 -49 57 -15 47 -15 51 0 56 46 14
92 38 108 56 19 20 19 20 201 1z m-901 -48 c54 -14 124 -28 155 -31 69 -8 109
-34 92 -61 -6 -10 -21 -25 -35 -35 -21 -14 -44 -15 -199 -8 -96 5 -200 11
-230 15 -53 6 -54 7 -25 17 46 15 94 55 112 93 9 19 20 34 24 34 5 0 52 -11
106 -24z m445 -7 c73 -16 123 -90 86 -127 -8 -8 -50 -12 -123 -12 l-111 0 2
60 c1 58 3 62 35 80 19 10 41 17 49 14 8 -3 36 -10 62 -15z m-3424 -75 c159
-59 194 -112 200 -303 3 -88 1 -122 -7 -117 -6 4 -11 13 -11 19 0 24 -52 123
-79 152 -15 17 -39 50 -53 75 -25 43 -106 126 -178 182 l-35 27 50 -6 c28 -3
78 -16 113 -29z m7132 -69 c15 -53 24 -122 27 -205 4 -113 3 -132 -20 -202
-35 -110 -90 -201 -169 -282 -38 -39 -67 -62 -63 -51 42 113 48 153 51 343 4
176 6 197 24 223 29 39 88 171 101 225 7 25 15 42 20 37 4 -4 17 -44 29 -88z
m-7183 -41 c60 -60 104 -141 137 -256 29 -101 43 -208 27 -208 -21 0 -159 149
-214 231 -72 109 -93 165 -101 272 l-6 87 52 -37 c29 -21 76 -61 105 -89z
m6815 -13 c32 -4 60 -10 64 -13 9 -10 -113 -192 -171 -256 -109 -120 -385
-211 -571 -187 l-59 8 45 19 c25 11 56 29 68 41 28 26 65 94 83 155 22 76 143
174 259 211 81 26 188 34 282 22z m-6451 -262 c29 -112 23 -175 -26 -268 -21
-39 -41 -71 -45 -71 -14 0 -22 201 -11 250 6 25 11 97 12 160 l1 115 24 -52
c14 -28 34 -88 45 -134z m-447 17 c22 -34 88 -110 148 -170 l109 -108 -7 -100
c-4 -59 -11 -97 -17 -95 -20 6 -113 92 -165 152 -29 33 -69 93 -90 134 -34 70
-37 81 -39 180 -3 88 -1 103 9 87 7 -10 31 -46 52 -80z m7056 -93 c-1 -228
-49 -377 -142 -440 -87 -58 -167 -78 -308 -78 -97 0 -137 4 -179 19 l-54 19
72 18 c40 10 95 31 123 46 74 40 187 166 239 266 35 66 57 95 106 135 34 28
76 69 95 91 18 23 36 41 41 41 4 0 7 -53 7 -117z m-7805 8 c102 -37 236 -105
290 -148 70 -55 119 -199 145 -431 7 -57 10 -105 8 -108 -3 -2 -22 21 -42 51
-44 67 -139 164 -198 202 -24 15 -75 55 -114 88 -78 66 -202 132 -306 164 -91
27 -220 51 -279 51 -27 0 -49 4 -49 8 0 11 89 95 123 116 63 39 99 46 217 42
99 -3 128 -8 205 -35z m1051 -47 c36 -186 36 -590 0 -675 l-14 -33 -7 59 c-4
32 -4 140 1 239 11 222 11 385 1 450 -11 77 2 48 19 -40z m6315 -78 c-45 -45
-50 -76 -14 -76 10 0 53 17 96 39 42 21 77 35 77 31 0 -4 -18 -35 -41 -70 -95
-148 -220 -230 -362 -238 l-79 -5 -82 84 c-77 79 -184 224 -173 235 2 3 33 -4
67 -16 134 -45 303 -36 458 24 48 18 89 34 92 35 2 0 -15 -19 -39 -43z m-6646
-47 c45 -73 135 -171 210 -229 l55 -42 0 -95 0 -94 -32 18 c-18 10 -69 54
-114 98 -67 65 -90 97 -123 165 -37 76 -41 91 -41 162 0 43 2 78 4 78 2 0 20
-27 41 -61z m-1038 -25 c148 -34 274 -92 372 -172 37 -30 56 -61 118 -189 87
-181 165 -364 158 -371 -7 -7 -164 53 -240 91 -110 55 -199 120 -296 216 -107
107 -170 194 -205 284 -13 33 -42 84 -65 115 l-42 55 68 -7 c37 -4 96 -14 132
-22z m1493 -224 c-28 -63 -54 -117 -57 -120 -3 -3 -2 41 2 97 6 100 8 104 51
169 24 36 45 71 46 77 1 7 3 -15 5 -48 4 -55 -1 -71 -47 -175z m-670 39 c71
-106 135 -239 157 -323 11 -44 14 -90 10 -171 -4 -107 -23 -215 -37 -215 -4 0
-17 28 -30 63 -12 34 -44 107 -70 162 -45 95 -48 106 -54 210 -7 118 -28 259
-51 339 -13 43 -13 47 1 35 8 -6 41 -52 74 -100z m313 -175 c42 -38 92 -74
166 -120 6 -5 17 -125 11 -129 -9 -6 -96 48 -147 90 -77 65 -163 224 -163 303
0 20 8 13 41 -36 22 -34 63 -82 92 -108z m-1041 -106 c131 -128 309 -233 497
-294 75 -24 83 -29 97 -62 20 -50 104 -301 104 -313 0 -15 -117 -1 -230 27
-249 63 -449 221 -555 439 -40 81 -45 101 -55 200 -5 61 -10 124 -10 140 l0
30 37 -45 c20 -25 72 -80 115 -122z m8675 87 c183 -84 275 -345 255 -721 -5
-110 -15 -140 -26 -76 -10 64 -61 232 -101 332 -51 129 -109 239 -171 326 -48
67 -51 75 -47 118 7 54 15 57 90 21z m-489 -50 c23 -10 42 -22 42 -29 0 -6
-28 -46 -61 -89 l-62 -77 -63 60 c-36 35 -88 72 -125 90 -67 32 -67 31 26 55
73 18 184 13 243 -10z m-5439 -16 c147 -38 330 -147 471 -281 l65 -62 -60 -7
c-78 -9 -171 -45 -269 -103 -43 -26 -106 -56 -140 -68 -86 -29 -221 -35 -325
-14 -95 19 -172 46 -175 61 -3 22 307 128 467 160 19 4 27 11 27 27 0 20 -3
21 -70 14 -91 -8 -350 -75 -467 -120 -51 -19 -142 -60 -203 -91 -126 -63 -119
-70 -68 71 39 109 107 222 176 293 82 83 160 120 312 145 46 8 182 -5 259 -25z
m5165 -68 c27 -13 73 -48 103 -78 44 -44 52 -57 42 -69 -18 -22 -145 -104
-160 -104 -8 0 -39 25 -69 56 -62 63 -99 88 -176 119 l-53 22 77 41 c68 37 83
42 132 39 32 -2 76 -13 104 -26z m-5776 -38 c-86 -89 -158 -225 -204 -383 -14
-46 -31 -88 -40 -93 -89 -50 -281 -224 -355 -322 -23 -31 -44 -54 -46 -52 -4
4 116 354 168 488 24 63 41 87 92 137 66 65 125 112 196 156 54 35 213 116
226 116 5 0 -12 -21 -37 -47z m6527 -88 c127 -226 250 -634 231 -773 -8 -65
-65 -285 -75 -295 -25 -25 -194 269 -255 441 -31 88 -66 254 -66 315 0 24 11
102 24 173 13 71 29 163 36 204 l13 74 23 -29 c13 -16 44 -66 69 -110z m-4091
76 c136 -103 211 -221 164 -258 -7 -6 -74 -36 -148 -68 -161 -69 -536 -258
-606 -305 -76 -51 -213 -196 -277 -292 -148 -221 -225 -408 -333 -801 -23 -85
-28 -63 -9 40 24 126 75 277 177 522 49 117 96 240 105 272 15 54 15 60 -1 83
-20 31 -26 32 -79 5 -263 -134 -579 -483 -823 -908 -77 -135 -70 -70 11 104
133 286 408 583 727 785 48 30 89 61 92 67 3 7 -6 21 -20 30 -23 14 -32 15
-73 4 -74 -19 -198 -83 -301 -156 -178 -125 -256 -174 -311 -195 -137 -54
-249 -125 -389 -250 -130 -116 -385 -319 -454 -360 -54 -33 -176 -85 -176 -76
0 2 24 22 53 43 67 52 219 186 431 382 93 86 182 166 199 178 17 13 85 44 151
69 173 67 250 109 431 239 198 142 274 180 490 246 302 91 307 94 385 204 50
70 106 99 195 101 l70 1 23 43 c32 64 30 132 -8 206 -16 32 -30 60 -30 62 0 1
30 3 68 3 58 1 199 13 211 17 2 1 27 -15 55 -37z m2696 -66 c16 -8 41 -15 55
-15 33 0 97 -41 128 -82 32 -43 60 -98 53 -105 -3 -3 -47 4 -98 16 -113 26
-118 26 -118 3 0 -12 23 -32 65 -57 36 -21 68 -41 70 -45 12 -20 -126 -26
-187 -10 -70 20 -128 87 -128 149 0 30 57 150 87 183 15 17 17 17 30 -2 8 -11
27 -27 43 -35z m402 -13 c58 -28 178 -124 178 -141 0 -16 -120 -45 -205 -48
l-90 -4 -28 60 c-15 32 -45 77 -67 99 l-39 41 42 15 c62 23 134 15 209 -22z
m-6702 -134 c26 -113 56 -310 65 -440 8 -102 -1 -268 -14 -268 -4 0 -18 48
-30 107 -12 58 -42 173 -65 255 l-43 149 23 86 c13 47 26 112 30 145 4 32 8
58 9 58 2 0 13 -41 25 -92z m-1039 -5 c145 -221 383 -359 686 -395 l102 -12
35 -146 c42 -173 70 -320 62 -327 -10 -10 -191 28 -293 62 -182 61 -304 133
-418 249 -86 88 -139 177 -160 268 -21 93 -66 368 -59 368 1 0 21 -30 45 -67z
m5914 -17 c105 -19 156 -35 239 -77 91 -45 170 -111 230 -189 l49 -65 -69 -63
c-49 -44 -75 -61 -89 -58 -21 5 -176 22 -287 32 -63 5 -69 8 -88 39 -39 63
-149 156 -234 196 -129 62 -218 81 -383 82 -78 1 -139 5 -135 9 14 14 267 78
362 92 127 19 307 19 405 2z m2394 -177 c-11 -130 -13 -137 -64 -249 -72 -156
-122 -294 -155 -423 -15 -59 -29 -110 -33 -113 -20 -21 -27 357 -8 466 25 136
37 165 111 247 37 42 88 107 112 144 24 37 44 66 46 64 2 -1 -2 -63 -9 -136z
m-1057 30 c56 -29 157 -35 254 -16 57 12 90 14 119 7 22 -5 64 -10 93 -10 28
0 52 -4 52 -9 0 -17 -135 -110 -213 -147 -102 -48 -180 -56 -234 -24 -92 56
-150 139 -159 233 l-6 52 27 -33 c15 -18 45 -42 67 -53z m723 -15 c-99 -88
-329 -228 -403 -245 -20 -4 -53 -4 -72 -1 l-34 8 59 22 c85 31 177 88 250 154
52 48 72 59 126 72 35 8 75 19 89 25 39 15 38 13 -15 -35z m-2475 -3 c101 -26
162 -53 236 -106 56 -40 134 -121 134 -139 0 -3 -30 -6 -67 -6 -98 0 -283 -19
-388 -39 -90 -17 -91 -17 -140 5 -75 32 -145 44 -263 44 -148 0 -291 -36 -451
-114 -30 -14 -57 -23 -60 -20 -12 12 191 194 289 260 146 97 200 122 295 133
117 14 325 5 415 -18z m-3092 -16 c128 -43 226 -58 339 -52 l102 6 -105 -92
c-120 -105 -167 -136 -277 -184 -186 -82 -368 -96 -494 -39 -100 46 -100 46
-2 140 118 113 308 246 348 246 9 0 49 -11 89 -25z m6179 -260 c59 -183 150
-360 250 -483 l35 -42 -16 -63 c-20 -79 -20 -159 -1 -222 8 -27 12 -51 10 -53
-2 -3 -34 24 -71 59 -83 81 -156 189 -236 355 l-63 129 1 100 c1 92 26 302 41
350 l7 20 4 -20 c2 -11 20 -69 39 -130z m-288 -102 c1 -65 7 -158 14 -208 16
-128 14 -167 -17 -280 -36 -134 -44 -243 -22 -319 10 -32 15 -60 13 -62 -11
-12 -133 136 -160 193 -28 62 -29 68 -25 176 6 125 27 218 86 377 41 108 98
240 105 240 2 0 4 -53 6 -117z m-3086 76 c20 -7 37 -15 37 -19 0 -3 -33 -16
-72 -29 -98 -31 -221 -89 -305 -144 -53 -34 -86 -47 -139 -56 -148 -25 -279
-86 -361 -167 l-52 -52 6 32 c9 52 43 146 73 206 22 44 41 65 78 88 97 59 250
121 367 148 73 17 312 12 368 -7z m905 -13 c67 -7 125 -16 128 -19 3 -3 -5
-20 -17 -37 -17 -22 -29 -30 -44 -26 -135 34 -535 40 -730 12 -128 -18 -297
-53 -330 -67 -11 -5 -49 -19 -85 -32 -36 -14 -90 -37 -120 -52 -30 -15 -49
-21 -43 -13 20 24 201 114 297 147 254 89 613 122 944 87z m1793 -65 c8 -55
-12 -170 -41 -236 l-22 -50 -12 40 c-15 46 -50 117 -78 158 l-20 27 28 45 c18
27 46 54 74 69 52 29 59 24 71 -53z m-7622 -155 c142 -95 349 -172 525 -197
l84 -12 5 -40 c3 -23 4 -44 1 -48 -12 -21 -114 -44 -189 -43 -96 1 -174 22
-275 75 -132 68 -224 167 -303 324 -57 116 -55 123 17 52 36 -36 97 -86 135
-111z m1648 133 c76 -39 89 -42 181 -47 110 -5 205 11 313 54 35 13 64 22 66
20 2 -2 -50 -52 -114 -111 -94 -86 -135 -116 -201 -147 -174 -83 -332 -99
-438 -45 -75 38 -83 51 -57 95 25 45 156 222 163 222 3 0 42 -19 87 -41z
m1532 -25 c-348 -245 -620 -568 -720 -854 -12 -36 -23 -66 -24 -68 -1 -1 -36
15 -76 37 -79 42 -194 81 -297 101 -34 7 -61 16 -60 20 2 5 53 47 113 96 61
48 140 115 177 150 106 99 219 171 399 252 49 22 149 84 230 142 130 93 302
189 338 190 7 0 -29 -30 -80 -66z m4245 24 c-4 -7 -18 -30 -32 -52 -13 -21
-48 -84 -78 -140 -57 -106 -62 -93 -12 34 46 116 82 170 116 170 8 0 10 -5 6
-12z m-1751 -17 l28 -6 -46 -95 c-135 -277 -340 -495 -528 -559 l-55 -19 -118
25 c-66 14 -121 27 -123 29 -5 5 -11 1 80 47 175 86 328 290 386 511 11 39 24
67 33 70 24 6 312 4 343 -3z m-403 -14 c0 -23 -46 -149 -75 -207 -74 -147
-177 -258 -295 -319 -102 -52 -162 -65 -236 -52 -32 6 -93 11 -136 11 -43 0
-78 3 -78 8 1 4 21 23 46 42 71 55 198 203 286 335 43 66 87 123 97 127 22 8
205 44 286 56 88 14 105 14 105 -1z m563 -2 c26 -3 47 -10 47 -14 0 -5 -22
-50 -49 -102 -27 -52 -88 -183 -137 -293 l-87 -198 -46 -20 c-101 -43 -287
-71 -356 -54 -26 7 -24 9 53 56 172 106 357 339 457 575 24 55 31 64 49 60 12
-2 42 -7 69 -10z m-2438 -27 c-4 -18 -36 -103 -72 -188 -144 -343 -195 -496
-224 -663 l-11 -67 -59 54 c-73 67 -158 110 -219 109 -50 -1 -128 -29 -191
-69 -22 -14 -42 -24 -44 -22 -2 2 22 44 53 94 223 353 462 613 686 748 76 46
90 46 81 4z m3914 14 c-6 -10 -39 -36 -72 -58 -79 -50 -180 -145 -224 -209
l-35 -50 7 40 c9 57 42 154 68 199 21 37 26 40 102 57 44 10 94 22 110 28 48
15 57 14 44 -7z m-873 -182 c182 -342 237 -421 441 -630 62 -63 113 -115 113
-116 0 -1 -36 9 -79 22 -121 35 -230 47 -411 47 -176 0 -261 -14 -325 -53 -18
-11 -35 -20 -39 -20 -12 0 -6 256 9 375 16 128 46 301 69 400 12 48 23 67 56
98 64 60 71 55 166 -123z m1042 63 c17 -38 34 -90 37 -118 5 -46 2 -56 -37
-125 -40 -70 -43 -73 -46 -45 -7 86 -25 166 -48 212 l-25 52 32 56 c37 66 43
64 87 -32z m-1412 41 c8 -30 2 -92 -26 -264 -15 -87 -23 -196 -27 -362 l-6
-236 -46 28 c-60 37 -136 67 -193 75 -42 6 -55 2 -161 -50 -63 -32 -119 -56
-125 -54 -5 2 19 51 55 109 35 58 84 144 109 192 29 58 60 102 94 134 67 62
128 155 197 301 31 65 63 126 71 136 22 26 51 21 58 -9z m-1276 0 c0 -14 -100
-155 -166 -234 -118 -142 -227 -231 -347 -284 -78 -34 -139 -94 -173 -169
l-28 -62 -13 45 c-22 73 -43 219 -43 296 0 77 15 109 83 183 66 70 202 139
307 156 l45 7 -61 -64 c-101 -105 -122 -142 -90 -154 8 -3 68 36 139 90 133
101 347 218 347 190z m2451 -80 c-10 -33 -22 -76 -26 -97 -4 -21 -29 -73 -54
-116 -43 -71 -68 -134 -86 -215 l-6 -30 -29 45 c-16 24 -35 65 -41 91 -17 62
5 134 65 216 40 53 183 179 193 168 2 -2 -5 -30 -16 -62z m118 -71 c17 -41 31
-139 31 -216 0 -53 -6 -79 -26 -119 l-26 -52 -28 74 c-15 41 -34 89 -44 107
-15 31 -15 35 5 95 27 77 56 138 68 138 5 0 14 -12 20 -27z m-5910 -40 c71
-34 170 -41 265 -19 38 9 71 15 73 12 2 -2 -36 -24 -84 -49 -109 -56 -217 -87
-303 -87 -60 0 -140 15 -140 26 0 8 72 148 83 162 8 10 14 9 31 -3 12 -9 46
-28 75 -42z m6929 -280 c70 -94 138 -156 212 -193 76 -37 120 -64 120 -72 0
-10 -152 -66 -228 -84 -93 -22 -269 -15 -332 13 -53 23 -103 76 -121 130 -20
55 -17 213 5 298 10 39 21 74 23 79 3 4 20 -30 37 -77 37 -96 84 -175 127
-212 50 -41 80 -9 39 42 -38 48 -61 149 -67 288 l-6 130 67 -132 c36 -72 92
-166 124 -210z m-1155 19 c12 -2 17 3 17 18 0 39 17 12 38 -62 19 -67 35 -218
22 -218 -13 0 -109 61 -145 93 -37 32 -39 37 -38 88 1 54 29 142 61 189 17 25
17 25 22 -40 4 -51 9 -66 23 -68z"/>
<path d="M3293 9001 c-45 -12 -97 -44 -101 -64 -5 -23 20 -22 68 3 47 24 116
26 166 5 38 -16 54 -13 54 10 0 32 -124 62 -187 46z"/>
<path d="M3291 8810 c-47 -20 -82 -53 -111 -103 -59 -104 -30 -232 70 -300 41
-29 51 -32 126 -32 71 0 85 3 122 28 23 15 54 46 69 69 25 37 28 51 28 123 0
72 -3 86 -28 123 -44 67 -97 96 -181 99 -39 2 -82 -2 -95 -7z m155 -59 c133
-60 136 -242 4 -308 -54 -28 -92 -29 -147 -4 -72 33 -114 122 -94 199 15 53
42 85 93 111 53 26 90 26 144 2z"/>
<path d="M3318 8695 c-77 -43 -74 -160 4 -201 113 -58 224 83 140 177 -34 38
-100 49 -144 24z m109 -47 c47 -44 14 -128 -51 -128 -40 0 -76 35 -76 74 0 66
78 100 127 54z"/>
<path d="M470 504 c-70 -19 -171 -74 -235 -128 -105 -89 -135 -106 -187 -106
l-48 0 0 -36 c0 -31 9 -45 62 -98 87 -85 168 -138 204 -134 26 3 22 7 -57 65
-73 53 -172 143 -144 131 6 -2 53 -25 105 -50 178 -85 360 -131 508 -127 44 1
77 -2 84 -9 7 -7 26 -12 43 -12 30 1 29 2 -44 72 -63 61 -70 70 -45 64 46 -12
256 -95 292 -117 18 -10 50 -19 70 -19 l37 0 -55 35 c-30 19 -74 41 -97 50
-35 14 -44 23 -63 69 -35 88 -106 200 -166 265 -64 70 -60 73 54 41 92 -26
181 -70 232 -116 74 -67 131 -183 146 -295 5 -40 10 -49 26 -49 19 0 20 4 13
57 -4 32 -19 91 -35 131 -15 39 -25 72 -21 72 11 0 198 -190 224 -227 13 -20
31 -33 45 -33 12 0 22 3 22 6 0 14 -115 146 -189 217 -144 138 -314 241 -459
278 -91 23 -242 25 -322 3z m147 -37 c42 -23 117 -102 158 -167 55 -85 98
-170 86 -170 -6 0 -34 9 -63 20 -67 25 -249 80 -265 80 -7 0 -13 -8 -13 -17 0
-11 20 -28 53 -45 28 -16 72 -46 97 -68 l45 -39 -61 -1 c-128 0 -321 51 -479
128 l-80 39 30 16 c17 9 66 45 110 81 152 125 309 184 382 143z"/>
</g>
</svg>
