<?xml version="1.0" standalone="no"?>
<!DOCTYPE svg PUBLIC "-//W3C//DTD SVG 20010904//EN"
 "http://www.w3.org/TR/2001/REC-SVG-20010904/DTD/svg10.dtd">
<svg version="1.0" xmlns="http://www.w3.org/2000/svg"
 width="1024.000000pt" height="1024.000000pt" viewBox="0 0 1024.000000 1024.000000"
 preserveAspectRatio="xMidYMid meet">
<metadata>
Created by potrace 1.14, written by Peter Selinger 2001-2017
</metadata>
<g transform="translate(0.000000,1024.000000) scale(0.100000,-0.100000)"
fill="#000000" stroke="none">
<path d="M7120 9954 c-22 -20 -51 -60 -66 -90 -37 -76 -32 -170 14 -268 26
-55 29 -67 14 -61 -39 17 -160 18 -207 2 -48 -17 -145 -82 -145 -98 0 -19 116
-44 205 -43 85 0 127 11 195 51 3 2 6 -81 7 -185 2 -137 7 -211 21 -275 10
-48 16 -90 13 -91 -3 -2 -49 -7 -102 -11 -53 -4 -103 -11 -110 -16 -11 -6 -6
-24 25 -86 21 -43 57 -105 81 -138 56 -78 171 -192 239 -235 48 -32 58 -45
106 -140 62 -124 215 -360 234 -360 19 0 96 63 138 113 62 75 119 169 113 188
-3 10 12 71 34 136 114 335 87 599 -84 805 -116 141 -337 262 -575 314 -41 9
-78 19 -82 23 -4 3 6 26 23 50 67 101 77 243 25 356 -27 60 -52 95 -68 95 -4
0 -26 -16 -48 -36z m94 -58 c32 -68 45 -143 35 -207 -9 -60 -49 -147 -79 -174
-20 -18 -21 -18 -35 1 -40 51 -77 146 -82 206 -7 87 9 137 63 197 53 59 60 58
98 -23z m-155 -379 c36 -12 66 -28 68 -34 3 -7 -20 -24 -49 -40 -47 -24 -64
-27 -148 -27 -94 0 -176 17 -165 35 11 17 99 63 144 75 64 17 77 17 150 -9z
m168 -94 c36 -77 164 -117 247 -78 34 16 38 16 78 1 105 -43 240 -150 305
-243 l42 -60 -54 5 c-117 10 -205 -73 -205 -193 0 -51 -4 -65 -21 -81 -53 -47
-73 -142 -44 -211 18 -42 18 -39 -18 -48 -27 -7 -27 -7 -27 47 0 32 -7 68 -18
89 -18 35 -18 36 5 79 26 50 29 105 9 155 -14 33 -14 35 5 35 27 0 89 33 116
62 88 94 59 238 -59 299 -143 73 -311 -69 -264 -223 l14 -48 -39 -10 c-22 -6
-54 -24 -73 -40 -28 -25 -35 -28 -40 -14 -13 34 -6 85 15 107 30 31 59 96 59
132 0 45 -36 116 -76 151 -34 29 -35 32 -29 80 7 47 9 50 31 46 15 -3 30 -17
41 -39z m81 11 c96 -26 172 -56 166 -65 -11 -19 -83 -30 -124 -19 -39 11 -110
67 -110 89 0 14 1 14 68 -5z m-114 -134 c57 -69 54 -188 -7 -238 -17 -15 -23
11 -33 166 -8 112 -2 122 40 72z m379 -34 c103 -44 137 -180 64 -262 -51 -59
-128 -84 -156 -50 -6 8 -35 24 -64 36 -58 25 -63 30 -77 83 -20 70 25 163 95
193 39 17 98 17 138 0z m311 -246 c32 -12 49 -45 75 -152 23 -90 21 -109 -14
-138 -14 -12 -20 -8 -46 24 -17 20 -45 44 -61 52 -34 18 -107 23 -150 11 -28
-7 -28 -7 -28 43 0 75 27 119 95 154 34 18 91 21 129 6z m-449 -59 c127 -72
99 -272 -44 -311 -65 -17 -112 -3 -133 40 -16 33 -58 181 -58 207 0 19 59 72
93 82 40 12 103 4 142 -18z m-236 -163 c40 -138 84 -265 122 -347 l20 -44 -28
18 c-56 36 -144 118 -194 181 -59 74 -139 210 -139 236 0 17 21 21 152 26 l46
2 21 -72z m647 -20 c43 -30 76 -89 72 -130 -3 -35 -16 -42 -168 -83 -149 -40
-139 -40 -155 -1 -8 20 -15 54 -15 76 0 131 158 212 266 138z m122 -139 c-23
-15 -28 -10 -28 31 0 27 5 42 18 49 15 8 17 5 20 -31 2 -26 -2 -44 -10 -49z
m-473 1 c16 -30 20 -107 7 -126 -4 -7 -34 -17 -67 -24 -33 -6 -68 -14 -77 -16
-19 -6 -27 7 -62 98 l-24 66 33 -11 c39 -12 88 -4 135 22 19 11 36 20 37 20 1
1 9 -12 18 -29z m465 -113 c-17 -86 -49 -187 -60 -187 -5 0 -26 11 -46 25 -48
32 -95 45 -171 45 -72 0 -174 -33 -227 -74 -19 -14 -37 -26 -40 -26 -11 0 -67
122 -63 135 3 6 27 15 54 18 110 13 484 114 540 146 25 14 28 -7 13 -82z
m-127 -170 c54 -32 60 -40 52 -67 -6 -19 -10 -17 -51 19 -77 68 -158 75 -305
27 -38 -12 -69 -21 -69 -19 0 5 85 46 125 60 24 8 72 12 121 10 66 -3 89 -8
127 -30z m-55 -31 c33 -17 65 -51 85 -92 16 -30 15 -33 -21 -94 -20 -34 -60
-87 -88 -118 -52 -57 -114 -102 -114 -83 0 6 9 15 20 21 11 6 31 30 45 54 21
36 25 55 23 100 -2 31 -7 55 -13 54 -5 -2 -17 -24 -26 -50 -17 -51 -64 -128
-78 -128 -10 0 -92 124 -145 218 l-35 62 32 16 c100 52 254 71 315 40z m-72
-271 c-7 -26 -53 -85 -67 -85 -4 0 5 19 21 43 16 23 32 56 36 72 6 22 9 25 12
12 2 -10 1 -29 -2 -42z"/>
<path d="M7655 8482 c-33 -20 -60 -50 -53 -57 2 -2 22 0 43 6 48 13 111 7 155
-15 40 -19 40 -19 40 -2 0 8 -19 31 -42 50 -48 42 -95 47 -143 18z m111 -18
c18 -15 18 -15 -6 -10 -14 3 -43 6 -65 6 -30 0 -36 3 -25 10 23 15 74 12 96
-6z"/>
<path d="M7557 8252 c-10 -10 -17 -28 -17 -40 0 -28 34 -62 60 -62 27 0 60 35
60 63 0 50 -70 76 -103 39z m67 -5 c38 -27 -2 -95 -41 -71 -25 16 -29 55 -7
71 10 7 21 13 24 13 3 0 14 -6 24 -13z"/>
<path d="M4306 9828 c-24 -91 12 -335 55 -370 11 -10 38 -54 60 -99 63 -130
125 -218 223 -315 74 -73 108 -99 176 -132 229 -113 472 -93 760 60 52 28 117
66 143 85 26 20 50 33 53 30 3 -3 10 -24 15 -47 21 -93 80 -182 152 -227 49
-31 140 -63 178 -63 24 0 29 5 34 34 10 49 -11 136 -45 189 -35 56 -98 100
-184 128 l-67 22 49 28 c81 46 125 119 141 230 11 81 -2 84 -90 24 -82 -56
-131 -115 -160 -195 l-21 -57 -56 60 c-70 73 -191 171 -294 239 -50 33 -75 55
-69 62 4 6 36 47 70 90 34 44 58 83 54 86 -13 12 -134 48 -208 61 -93 18 -273
15 -360 -4 -67 -15 -72 -15 -145 8 -104 32 -194 53 -324 75 -138 24 -132 25
-140 -2z m34 -53 c0 -53 28 -114 66 -144 26 -20 60 -29 52 -13 -38 74 -58 125
-64 160 -4 23 -4 42 -2 42 27 0 328 -69 328 -75 0 -1 -9 -27 -19 -58 -26 -75
-62 -134 -108 -179 -59 -57 -113 -70 -194 -48 -34 10 -38 15 -54 73 -22 75
-34 287 -16 287 6 0 11 -18 11 -45z m61 -84 c17 -37 18 -42 4 -31 -29 24 -45
68 -44 117 l1 48 10 -45 c5 -25 18 -65 29 -89z m948 23 c52 -13 98 -27 102
-31 5 -5 -15 -37 -42 -73 -80 -104 -62 -100 -196 -32 -123 62 -248 116 -296
128 -45 11 -18 24 69 33 111 13 253 3 363 -25z m-454 -51 c-95 -145 -241 -408
-279 -503 l-18 -45 -28 35 c-30 37 -115 173 -126 203 -5 14 -1 17 22 17 45 0
130 45 177 93 52 54 91 132 107 213 l12 62 75 -25 74 -25 -16 -25z m-179 -39
c-23 -67 -60 -126 -102 -164 -74 -64 -172 -90 -193 -51 -10 17 -6 19 37 19 92
0 185 75 239 194 32 68 42 69 19 2z m342 5 c37 -15 40 -25 12 -34 -28 -9 -66
-62 -81 -113 -11 -39 -15 -43 -38 -37 -33 8 -75 39 -94 69 -15 23 -14 27 29
94 l45 70 47 -18 c26 -10 62 -24 80 -31z m172 -85 c90 -47 109 -60 113 -83 14
-69 -30 -152 -97 -182 -52 -23 -90 -23 -142 0 -124 56 -137 231 -22 301 18 11
35 20 37 20 2 0 52 -25 111 -56z m-366 -69 c20 -19 55 -40 76 -46 33 -10 42
-18 49 -46 14 -51 55 -99 101 -119 22 -10 39 -20 37 -23 -49 -84 -49 -178 -1
-238 107 -132 315 -81 340 84 12 84 -36 175 -108 203 -18 8 -34 14 -36 15 -2
2 7 19 19 39 11 20 22 54 23 76 0 22 5 40 10 40 5 0 24 -11 43 -26 27 -20 33
-32 33 -61 0 -59 35 -119 88 -151 38 -22 59 -27 111 -27 62 0 65 -1 95 -38 28
-36 29 -40 14 -51 -13 -9 -30 -10 -65 -3 -94 19 -185 -31 -219 -119 -21 -54
-39 -65 -169 -99 -106 -27 -239 -33 -309 -14 l-38 11 30 21 c77 54 98 166 48
252 -15 25 -38 51 -52 57 -16 7 -24 20 -24 35 0 88 -62 183 -129 198 -17 4
-31 11 -31 16 0 11 19 49 24 49 2 0 20 -16 40 -35z m-6 -65 c63 -39 94 -121
72 -193 -24 -80 -116 -138 -193 -122 -42 9 -97 43 -97 60 0 14 112 238 130
261 17 20 49 18 88 -6z m1169 -39 c-12 -98 -72 -181 -162 -222 -59 -27 -68
-25 -60 14 12 55 41 113 80 155 36 41 120 102 138 102 6 0 7 -20 4 -49z m-480
-34 c123 -99 139 -115 119 -123 -21 -8 -82 4 -118 22 -35 18 -75 78 -83 127
-4 20 -5 37 -1 37 3 0 40 -28 83 -63z m-167 -86 c115 -89 81 -260 -60 -302
-31 -9 -49 -9 -80 0 -112 33 -163 147 -111 249 18 35 26 40 63 46 24 4 57 15
73 25 37 23 68 18 115 -18z m-371 -87 c28 -35 44 -98 36 -137 -17 -80 -87
-144 -141 -128 -59 17 -173 85 -196 116 -4 5 -8 22 -8 36 0 25 2 26 58 25 49
-1 67 4 107 29 29 18 56 45 68 67 16 32 22 36 37 28 10 -5 28 -22 39 -36z
m-329 -98 l0 -30 -30 29 c-16 16 -30 37 -30 47 0 18 1 19 30 1 23 -13 30 -25
30 -47z m1292 -3 c104 -46 168 -144 168 -256 l0 -40 -42 7 c-102 16 -211 92
-252 175 -26 51 -49 138 -42 150 8 13 105 -8 168 -36z m-277 21 c13 -6 5 -15
-36 -41 -53 -34 -163 -93 -173 -93 -12 0 17 57 42 84 45 47 117 69 167 50z"/>
<path d="M4525 9705 c-14 -13 -25 -33 -25 -43 0 -43 70 -71 105 -42 23 19 19
76 -7 94 -31 22 -45 20 -73 -9z m69 -17 c29 -40 -18 -86 -54 -53 -24 22 -25
38 -4 59 21 22 40 20 58 -6z"/>
<path d="M4692 9485 c-15 -40 -71 -90 -119 -106 -59 -19 -36 -36 42 -30 48 4
84 32 101 77 17 44 16 85 -1 91 -6 2 -17 -12 -23 -32z m8 -50 c0 -24 -46 -65
-72 -65 -20 0 -18 3 13 25 20 13 39 31 42 40 8 19 17 19 17 0z"/>
<path d="M5296 8610 c-9 -49 -63 -150 -123 -230 -57 -77 -318 -344 -385 -394
-35 -26 -38 -27 -60 -12 -29 21 -97 20 -127 0 -64 -45 -58 -154 11 -190 49
-25 96 -18 135 21 33 33 35 39 31 85 l-5 50 41 0 c59 0 230 44 306 78 83 37
179 110 215 162 34 49 37 45 59 -62 18 -87 20 -146 6 -168 -8 -12 -10 -12 -15
2 -4 10 -4 22 0 27 11 19 -15 51 -40 51 -46 0 -56 -62 -13 -76 19 -6 20 -12
15 -93 -5 -93 -25 -182 -43 -193 -6 -4 -36 -28 -68 -54 -53 -44 -58 -46 -70
-29 -9 13 -20 16 -40 11 -35 -9 -65 -73 -66 -139 0 -34 -7 -58 -26 -86 -14
-22 -39 -72 -56 -113 -26 -61 -31 -90 -36 -180 -4 -103 -3 -109 26 -171 52
-112 150 -186 258 -195 43 -4 54 -8 63 -29 19 -41 13 -43 -44 -17 -30 14 -70
28 -90 31 -34 5 -35 5 -35 -26 0 -32 -3 -29 -103 76 -229 240 -229 240 -221
278 5 30 3 36 -20 46 -51 24 -78 -37 -32 -76 13 -11 35 -54 51 -100 37 -110
95 -231 144 -303 22 -34 41 -63 41 -67 0 -19 -294 151 -438 254 -72 51 -91 70
-88 85 7 29 -12 56 -39 56 -47 0 -55 -63 -11 -80 15 -5 27 -26 40 -66 47 -150
152 -291 272 -363 l64 -38 -72 -28 c-166 -63 -316 -155 -484 -296 -72 -61 -96
-76 -115 -72 -30 6 -52 -17 -47 -49 5 -34 47 -37 73 -5 15 20 76 45 270 112
281 97 514 175 524 175 19 0 -100 -110 -236 -219 -84 -67 -253 -209 -377 -315
-278 -238 -261 -231 -489 -197 -84 13 -160 26 -170 30 -15 5 -7 14 42 49 34
23 61 48 61 54 0 12 -177 4 -242 -11 -42 -10 -42 -11 3 52 31 43 93 186 85
195 -15 14 -99 -41 -173 -113 l-83 -80 8 40 c12 70 7 207 -12 283 -10 39 -22
72 -27 72 -16 0 -54 -181 -65 -309 -6 -77 -8 -82 -20 -59 -20 38 -54 168 -54
205 0 49 -16 40 -39 -22 -30 -80 -27 -121 14 -218 6 -16 4 -18 -16 -15 -18 2
-24 -1 -23 -15 2 -22 -21 -18 -136 20 -65 21 -82 23 -126 14 -28 -5 -108 -15
-178 -22 -76 -7 -125 -16 -123 -22 6 -19 71 -35 147 -37 106 -2 60 -18 -55
-19 -129 -2 -207 -15 -279 -49 -59 -28 -136 -85 -136 -102 0 -4 17 -11 37 -15
l36 -7 -29 -23 c-16 -13 -26 -27 -22 -31 5 -4 52 3 106 15 88 19 107 20 173
10 95 -15 240 -6 303 17 63 25 130 83 150 134 9 22 18 40 21 40 3 0 36 -14 73
-31 l67 -30 -30 -16 c-33 -17 -75 -53 -75 -63 0 -4 15 -11 33 -17 l32 -10 -77
-49 c-43 -27 -78 -52 -78 -56 0 -19 80 -8 209 28 22 7 21 3 -16 -52 -22 -32
-59 -81 -82 -109 -22 -27 -41 -53 -41 -57 0 -26 124 21 177 67 23 19 43 35 46
35 3 0 8 -14 12 -31 16 -72 125 -266 143 -255 5 3 -6 78 -25 168 -18 90 -33
167 -33 171 0 5 25 -13 55 -40 30 -27 88 -66 129 -86 76 -38 106 -45 106 -27
0 6 16 3 37 -6 50 -21 167 -22 213 -2 64 29 118 85 156 164 19 41 41 74 48 74
7 0 25 9 39 20 l25 20 48 -22 c166 -73 377 -63 556 26 38 19 68 32 68 29 0 -2
-18 -62 -39 -132 -54 -173 -109 -401 -117 -484 l-7 -67 35 -33 c19 -18 63 -47
98 -66 l63 -34 -99 -39 c-54 -21 -103 -43 -108 -48 -4 -4 21 -27 58 -50 36
-23 66 -45 66 -49 0 -6 -210 -204 -485 -456 -77 -70 -194 -179 -260 -241
l-120 -112 -47 5 c-40 5 -50 2 -72 -20 -52 -52 -19 -147 52 -147 27 0 32 -7
86 -122 139 -298 374 -717 483 -862 67 -89 162 -185 206 -207 l38 -20 -6 -54
c-6 -48 -5 -54 14 -60 12 -3 21 -10 21 -14 0 -5 -26 -25 -57 -46 -82 -54 -223
-198 -277 -283 -26 -39 -63 -106 -83 -148 -25 -53 -46 -82 -69 -97 -66 -43
-90 -153 -45 -201 20 -22 22 -30 16 -93 -15 -150 33 -390 108 -538 142 -282
398 -491 702 -572 88 -23 120 -26 260 -27 134 0 175 4 250 22 202 51 375 149
521 296 97 98 143 162 205 286 22 44 41 80 42 80 1 0 40 -7 87 -15 226 -40
421 3 596 132 43 31 73 47 89 45 15 -2 29 6 43 22 23 30 32 33 32 9 1 -25 24
-53 43 -53 20 0 32 40 22 70 -6 20 -5 21 15 10 25 -13 72 -10 77 6 2 6 -9 24
-26 39 l-29 28 31 16 c20 10 32 24 32 36 0 17 -6 20 -41 19 l-42 -1 14 33 c26
62 -7 85 -52 37 -13 -14 -25 -24 -27 -22 -2 2 -8 16 -15 32 -22 51 -74 22 -57
-33 7 -23 -3 -25 -40 -8 -21 9 -29 9 -42 -5 -15 -14 -13 -18 15 -46 l31 -31
-35 -15 c-41 -17 -46 -49 -9 -62 23 -8 22 -9 -33 -50 -74 -55 -180 -107 -262
-129 -80 -21 -230 -23 -323 -5 -67 13 -69 14 -63 40 18 81 36 225 36 288 0
352 -181 697 -470 893 -60 41 -237 130 -257 130 -6 0 -20 28 -32 63 -60 170
-131 301 -217 403 l-54 63 0 148 0 148 55 43 c94 73 168 185 216 323 18 52 23
94 27 227 l5 163 91 46 c103 52 206 119 206 134 0 6 -15 43 -34 84 -38 81
-103 160 -142 169 -14 4 -23 12 -21 19 3 7 13 41 23 77 16 62 20 67 71 99 30
18 57 39 60 47 2 7 -3 38 -12 70 -20 70 -83 140 -155 174 l-51 24 55 22 c114
46 196 117 196 169 0 9 -21 87 -46 173 -74 255 -149 568 -177 745 -5 32 0 32
68 11 76 -24 247 -22 365 5 122 28 178 23 202 -20 9 -16 24 -29 32 -29 18 0
46 27 46 44 0 21 -35 47 -55 40 -10 -4 -20 -1 -26 7 -6 10 14 25 79 59 165 85
306 207 361 312 22 40 30 47 64 52 28 5 42 14 55 36 17 30 17 30 112 30 154 0
256 38 345 125 82 82 141 228 154 383 l6 74 50 -61 c28 -34 54 -61 59 -61 18
0 -2 157 -31 242 l-30 85 45 -34 c25 -19 72 -48 105 -64 59 -30 206 -74 215
-64 13 13 -144 144 -256 214 -29 19 -51 35 -50 37 8 7 176 -29 216 -46 25 -11
46 -20 48 -20 13 0 -1 26 -33 62 -45 48 -123 88 -176 88 -34 0 -37 2 -27 19
16 31 13 33 -40 29 -28 -1 -50 -1 -50 1 0 6 34 115 37 120 1 2 20 -8 42 -24
82 -56 144 -66 238 -37 73 23 123 55 201 127 61 57 168 188 174 214 6 29 -147
4 -243 -38 -24 -11 -89 -45 -144 -75 -93 -52 -147 -68 -159 -48 -3 5 44 45
105 90 105 80 134 111 87 96 -80 -24 -192 -69 -243 -97 -56 -31 -62 -37 -100
-115 -21 -45 -42 -82 -46 -82 -4 0 -10 10 -13 23 -6 22 -7 21 -35 -11 l-28
-33 -7 98 c-9 130 -13 133 -47 38 -11 -32 -23 -81 -26 -108 -6 -46 -7 -49 -21
-31 -8 10 -38 68 -67 128 -47 97 -54 107 -64 89 -25 -48 -24 -159 4 -225 6
-15 3 -16 -27 -7 -81 23 -303 20 -300 -5 0 -5 72 -33 158 -61 l157 -52 -52
-18 c-52 -17 -186 -100 -211 -130 -7 -9 -10 -18 -7 -22 6 -5 230 38 298 57 33
10 38 -2 11 -22 -34 -24 -107 -123 -145 -194 -20 -40 -37 -75 -37 -78 0 -14
27 -3 98 39 41 25 76 44 77 43 1 -2 -81 -128 -181 -280 -181 -274 -184 -278
-218 -278 -25 0 -40 -7 -58 -29 l-24 -28 -130 8 c-71 4 -142 9 -159 9 l-30 1
25 11 c14 6 64 29 112 51 71 32 90 37 102 28 31 -26 76 13 60 52 -9 24 -34 29
-60 12 -19 -12 -78 -15 -336 -18 -255 -4 -339 -8 -452 -26 -77 -11 -141 -19
-144 -16 -8 8 213 147 303 190 50 24 130 55 178 70 84 26 88 27 107 10 13 -12
27 -15 45 -11 21 5 26 12 23 33 -4 36 -30 51 -60 35 -19 -10 -37 -10 -96 3
-193 40 -370 -3 -503 -123 l-49 -44 0 54 c0 43 4 56 21 66 24 15 22 50 -3 66
-24 15 -52 -3 -56 -36 -2 -15 -14 -31 -28 -39 -14 -7 -50 -39 -79 -71 l-54
-58 -10 37 c-15 53 -14 61 9 68 73 23 193 150 250 265 12 25 46 66 75 92 29
26 58 60 64 76 18 43 10 85 -16 97 -16 7 -21 15 -17 28 3 10 14 58 23 107 19
91 46 148 100 210 l31 35 25 -30 c48 -57 90 -164 110 -282 7 -42 6 -43 -20
-43 -52 0 -92 -60 -85 -125 13 -119 194 -126 216 -8 10 55 -12 103 -61 130
-13 8 -11 22 18 111 l33 102 20 -21 c37 -43 132 -106 178 -119 39 -11 44 -15
36 -31 -25 -45 0 -118 50 -144 46 -24 85 -19 125 16 31 27 35 37 35 79 0 59
-26 95 -79 111 -32 10 -44 9 -72 -5 -18 -9 -34 -14 -37 -12 -13 14 -87 259
-108 361 -21 101 -25 143 -23 275 2 173 9 158 -72 144 l-36 -6 -11 71 c-14 79
-54 188 -84 226 l-20 26 -86 -93 c-96 -101 -280 -254 -292 -241 -4 4 -16 35
-25 68 -57 188 -164 330 -301 399 -65 33 -70 33 -78 -4z m204 -117 c110 -117
192 -335 206 -548 l6 -90 -36 -34 c-34 -33 -36 -34 -36 -12 0 13 9 34 20 48
18 23 19 29 6 47 -7 12 -20 22 -28 24 -24 5 -50 -28 -44 -53 4 -15 1 -25 -9
-29 -12 -4 -15 5 -15 47 0 69 -34 277 -59 355 -18 58 -62 132 -79 132 -4 0
-27 -40 -52 -88 -75 -145 -175 -227 -349 -287 -70 -24 -210 -50 -229 -44 -6 2
24 34 66 70 71 61 79 66 105 56 133 -46 328 101 377 285 16 59 9 152 -13 197
-9 19 -17 38 -17 43 0 23 125 -60 180 -119z m-172 52 c19 -41 14 -138 -9 -202
-53 -143 -174 -242 -295 -243 -28 0 -54 3 -57 7 -4 3 33 47 82 98 108 112 199
232 231 308 14 31 28 57 31 57 3 0 11 -11 17 -25z m791 -168 c27 -68 63 -220
53 -228 -4 -3 -34 -16 -67 -29 -33 -13 -69 -29 -79 -36 -17 -12 -24 -9 -57 21
-21 19 -50 37 -64 41 -59 15 -122 -18 -167 -86 -19 -30 -23 -27 -31 20 -6 34
-5 36 76 95 45 33 129 107 187 165 68 68 109 103 116 97 7 -4 21 -31 33 -60z
m-641 -95 c33 -76 64 -246 66 -358 1 -99 1 -101 -30 -136 l-32 -36 -6 37 c-3
21 -16 57 -29 82 -20 37 -24 60 -24 144 -1 74 -7 118 -23 164 l-21 63 27 54
c31 63 40 61 72 -14z m804 -260 c-2 -70 1 -154 6 -186 8 -52 7 -63 -11 -94
-28 -48 -36 -188 -13 -252 8 -24 14 -46 12 -47 -2 -2 -24 20 -50 47 -36 38
-47 57 -43 73 20 78 29 222 25 388 -4 183 -3 188 17 192 63 13 60 19 57 -121z
m-336 75 l36 -33 -62 -38 c-34 -21 -88 -60 -120 -87 -33 -27 -62 -49 -65 -49
-3 0 -5 25 -5 57 0 98 69 183 148 183 23 0 43 -10 68 -33z m240 -34 c8 -67 -2
-412 -14 -463 l-8 -35 -16 40 c-46 114 -47 240 -4 346 13 33 20 62 15 65 -5 3
-37 -10 -71 -28 -81 -42 -190 -151 -252 -251 -27 -43 -50 -76 -53 -74 -2 3 -1
23 3 47 6 34 12 44 35 52 39 13 48 47 19 70 -27 22 -57 10 -66 -27 -3 -13 -16
-27 -27 -31 -12 -4 -41 -19 -64 -35 -38 -25 -43 -26 -43 -10 0 35 105 145 223
234 83 63 264 156 304 157 7 0 15 -24 19 -57z m-820 -82 c-9 -14 -33 -14 -41
-1 -4 6 -1 18 6 26 11 13 14 13 27 0 8 -8 11 -19 8 -25z m747 -60 c-17 -57
-21 -62 -54 -71 -49 -14 -108 -58 -143 -108 -25 -37 -68 -63 -81 -50 -7 7 59
100 115 161 47 52 168 143 177 133 2 -2 -4 -31 -14 -65z m-1408 43 c40 -19 67
-71 44 -85 -22 -13 -41 -11 -76 11 -36 22 -54 67 -32 81 19 12 26 11 64 -7z
m-39 -95 c13 -7 37 -12 54 -12 36 0 38 -12 8 -44 -24 -25 -75 -31 -110 -12
-41 22 -55 99 -25 137 8 10 15 5 30 -22 11 -19 30 -40 43 -47z m766 -12 c12
-24 24 -71 27 -107 l6 -65 37 57 c20 31 46 62 57 68 19 10 19 7 -4 -42 -14
-29 -27 -69 -31 -88 -10 -62 -9 -61 -71 -33 -32 14 -60 27 -62 29 -1 1 2 33 8
71 8 44 8 85 3 115 -11 56 -1 54 30 -5z m217 39 c9 -10 8 -16 -4 -26 -19 -16
-41 1 -32 24 8 20 21 20 36 2z m-269 -139 c-6 -61 -15 -76 -30 -61 -7 7 -6 30
5 69 8 33 16 73 16 90 1 29 1 29 8 -6 4 -20 5 -61 1 -92z m238 -11 l-4 -84 40
34 c22 19 44 34 49 34 20 0 -18 -133 -48 -168 -1 -1 -27 9 -58 23 -53 23 -57
27 -57 59 0 52 55 186 77 186 3 0 4 -38 1 -84z m477 7 c7 -72 35 -172 57 -200
11 -14 -26 -162 -48 -190 -13 -17 -13 -17 -14 4 0 46 -52 184 -89 240 -22 32
-38 60 -35 62 2 2 16 -2 30 -9 34 -18 59 -3 59 36 0 25 -4 29 -33 32 -22 2
-34 -2 -38 -12 -6 -16 -64 -23 -64 -8 0 18 75 95 104 108 59 25 63 21 71 -63z
m-257 50 c5 -17 -26 -29 -40 -15 -6 6 -7 15 -3 22 9 14 37 9 43 -7z m-64 -70
c-4 -16 -15 -50 -25 -77 -21 -58 -18 -68 14 -38 29 28 106 62 137 61 24 -1 24
-1 -5 -11 -46 -16 -90 -53 -120 -101 l-28 -44 -37 14 -36 15 22 47 c13 26 28
70 34 97 10 44 23 63 43 64 4 0 4 -12 1 -27z m2026 3 c0 -2 -41 -35 -91 -72
l-91 -68 23 -19 c18 -14 32 -17 59 -12 38 8 40 8 117 -1 39 -4 50 -9 46 -20
-21 -56 170 58 258 153 57 62 61 47 6 -24 -67 -87 -174 -184 -247 -223 -56
-30 -74 -34 -135 -34 -75 0 -97 8 -161 60 l-42 33 -20 -57 c-11 -31 -34 -95
-49 -141 -16 -47 -34 -86 -40 -88 -7 -3 -24 7 -38 21 l-26 26 32 52 c17 29 58
108 91 176 69 140 81 152 220 208 93 37 88 35 88 30z m320 -4 c0 -5 -8 -16
-18 -25 -14 -13 -21 -14 -30 -5 -13 13 -42 -3 -123 -74 -52 -45 -59 -48 -112
-48 -31 0 -57 4 -57 8 0 13 218 121 275 137 63 17 65 17 65 7z m-1791 -105
c19 -75 47 -161 77 -231 6 -16 4 -18 -12 -12 -10 5 -31 12 -46 18 -43 15 -82
104 -82 187 0 68 20 149 34 134 4 -4 17 -47 29 -96z m-289 63 c0 -13 -7 -20
-20 -20 -13 0 -20 7 -20 20 0 13 7 20 20 20 13 0 20 -7 20 -20z m1999 -27
c-25 -32 -73 -74 -104 -90 -37 -19 -27 -7 54 61 58 49 72 57 50 29z m-2617
-24 l37 -19 -15 -52 c-21 -72 -58 -154 -97 -211 -29 -43 -36 -48 -67 -46 -80
3 -92 -1 -131 -40 -32 -32 -39 -46 -39 -78 0 -22 7 -48 15 -59 15 -19 21 -74
8 -74 -4 0 -24 16 -44 36 -23 23 -43 34 -53 31 -31 -12 -48 -145 -26 -203 7
-17 7 -31 1 -37 -25 -25 -62 123 -53 216 3 41 7 47 27 47 13 0 36 11 51 24 37
31 39 89 5 115 l-23 17 32 55 c63 106 147 201 244 273 52 39 59 40 128 5z
m464 -11 c-9 -13 -30 -47 -47 -76 -30 -50 -56 -65 -66 -36 -5 16 54 93 90 114
41 25 43 25 23 -2z m1415 -248 c29 -52 25 -64 -12 -45 -80 42 -139 140 -139
231 0 87 10 81 72 -37 33 -63 69 -130 79 -149z m-1656 164 c85 -37 155 -70
155 -74 0 -5 -9 -51 -19 -103 -18 -88 -22 -98 -59 -131 -65 -59 -93 -144 -56
-171 15 -10 15 -14 -1 -46 -93 -180 -221 -277 -381 -287 -73 -4 -87 -2 -140
22 -33 15 -74 41 -91 59 -32 30 -43 57 -23 57 6 0 10 -4 10 -9 0 -19 60 -30
112 -21 102 20 228 97 228 141 0 21 -13 25 -105 34 -85 9 -128 24 -121 42 3 8
6 18 6 23 0 4 20 0 44 -8 40 -15 47 -14 89 2 78 29 109 110 70 177 -10 16 -21
29 -25 29 -15 0 -8 21 16 53 36 48 83 148 102 216 10 34 21 61 26 61 4 0 78
-30 163 -66z m1720 -67 c11 -89 10 -104 -3 -115 -22 -17 -33 -2 -39 52 -6 45
15 182 25 171 3 -3 11 -51 17 -108z m-2209 88 c6 -16 -7 -39 -52 -90 l-26 -30
5 43 c8 70 57 121 73 77z m2284 -110 c0 -28 -33 -88 -43 -78 -11 10 -8 31 7
68 17 41 36 46 36 10z m-347 -30 c70 -12 83 -18 125 -57 26 -25 56 -49 67 -55
50 -29 -6 -15 -187 45 -108 36 -195 69 -192 74 8 12 99 9 187 -7z m-569 -44
c3 -5 -5 -16 -19 -25 -30 -19 -47 -76 -35 -116 11 -37 -2 -39 -29 -4 -39 49
-23 115 32 139 38 17 44 18 51 6z m64 -33 c32 -41 14 -115 -34 -137 -37 -17
-44 -14 -60 24 -12 30 -12 39 0 69 21 50 70 73 94 44z m802 -2 c0 -3 -10 -21
-21 -41 l-22 -36 20 -27 c15 -20 29 -27 54 -27 30 0 36 5 53 40 20 40 33 34
22 -10 -9 -37 -45 -65 -84 -65 -45 0 -67 13 -82 49 -15 37 -7 74 22 101 20 19
38 26 38 16z m190 -13 c0 -14 -34 -43 -52 -43 -26 0 -23 29 5 40 27 11 47 12
47 3z m-2284 -49 c44 -21 68 -66 60 -112 -10 -67 -72 -102 -146 -82 -95 26
-107 150 -18 193 42 21 62 21 104 1z m1979 -3 c46 -19 40 -21 -238 -81 -53
-12 -102 -20 -109 -18 -15 5 92 76 151 100 51 20 144 20 196 -1z m-1160 -5
c51 -22 71 -78 45 -127 -13 -23 -30 -25 -30 -3 0 8 -13 29 -29 45 -23 23 -39
29 -70 29 -23 0 -41 4 -41 8 0 11 41 48 60 55 23 8 28 8 65 -7z m-1070 -30 c8
-25 6 -31 -18 -52 -34 -29 -47 -30 -47 -5 0 31 30 93 43 88 7 -2 16 -16 22
-31z m2638 23 c22 -6 55 -26 75 -44 l37 -34 -46 14 c-26 7 -73 16 -105 20
-104 11 -124 15 -124 30 0 24 98 32 163 14z m-1869 -24 c13 -35 -43 -120 -99
-151 -88 -47 -56 70 39 144 34 26 52 28 60 7z m1501 -34 c3 -12 -4 -40 -19
-70 -22 -43 -41 -60 -133 -121 -142 -94 -149 -93 -82 11 64 99 99 140 148 171
53 33 77 35 86 9z m-1228 -34 c12 -12 23 -33 25 -47 2 -20 -2 -26 -21 -28 -41
-6 -71 8 -91 41 -25 40 -25 54 -2 60 28 8 66 -3 89 -26z m1491 4 c60 -31 204
-134 237 -171 l19 -21 -29 7 c-69 16 -140 49 -208 94 -85 57 -112 84 -104 105
9 21 19 19 85 -14z m-188 -74 c0 -50 -37 -171 -73 -242 l-21 -40 -7 30 c-19
86 -1 245 34 299 15 22 19 23 42 13 21 -10 25 -18 25 -60z m103 11 c34 -71 55
-146 63 -221 l6 -62 -30 35 c-101 117 -153 268 -99 290 34 14 34 13 60 -42z
m-2415 -37 c33 -45 114 -80 205 -87 49 -5 77 -11 77 -19 0 -29 -153 -111 -215
-115 -77 -5 -85 -2 -105 43 -21 46 -26 139 -10 181 12 33 21 33 48 -3z m2184
-93 c-2 -50 2 -111 11 -152 l14 -68 -33 -14 c-60 -25 -194 -12 -194 20 0 22
190 296 205 296 1 0 0 -37 -3 -82z m-2485 56 c7 -18 -17 -38 -31 -24 -11 11
-1 40 14 40 6 0 13 -7 17 -16z m2630 -72 c-5 -66 -32 -125 -72 -162 -15 -14
-26 -20 -24 -15 57 146 94 235 97 235 3 0 2 -26 -1 -58z m33 -113 c-26 -234
-101 -374 -237 -447 -73 -38 -141 -52 -249 -52 -72 0 -86 3 -91 18 -3 9 -13
25 -21 34 -13 16 -5 32 88 175 57 87 105 160 106 162 2 2 21 -4 44 -13 136
-54 296 30 337 177 24 83 35 56 23 -54z m-2341 -231 c1 -6 -60 -42 -110 -66
-9 -4 -78 109 -113 183 -30 64 -76 181 -76 193 0 9 299 -300 299 -310z m-661
255 c5 -17 -26 -29 -40 -15 -6 6 -7 15 -3 22 9 14 37 9 43 -7z m1210 -76 c2
-12 -3 -17 -17 -17 -15 0 -21 6 -21 21 0 25 33 22 38 -4z m-1075 -97 c48 -70
134 -156 227 -228 47 -36 89 -69 94 -73 5 -4 -10 -13 -33 -19 -39 -10 -46 -9
-111 26 -98 51 -197 157 -248 266 -22 46 -42 96 -46 111 l-7 29 47 -34 c25
-18 60 -53 77 -78z m1599 99 c58 -13 62 -10 -57 -49 -38 -12 -120 -48 -181
-80 l-111 -57 16 43 c14 40 14 44 -3 63 -11 12 -26 21 -35 21 -29 0 5 20 75
45 78 28 204 33 296 14z m148 -19 c0 -13 -7 -20 -20 -20 -13 0 -20 7 -20 20 0
13 7 20 20 20 13 0 20 -7 20 -20z m-709 -109 c-14 -91 -44 -155 -88 -188 -31
-24 -35 -25 -52 -9 -11 10 -21 38 -25 72 -6 54 -5 58 31 106 43 55 122 113
136 99 5 -5 4 -38 -2 -80z m199 41 c43 -35 -2 -106 -124 -196 -61 -45 -176
-96 -176 -79 0 3 17 23 39 44 21 22 49 64 61 94 17 42 36 66 83 105 67 55 84
59 117 32z m-406 -54 c36 -124 36 -259 0 -285 -22 -16 -26 -16 -49 1 -17 12
-20 31 -25 143 -4 70 -12 138 -18 150 -16 29 -16 31 11 36 61 12 65 10 81 -45z
m-683 -30 c41 -26 129 -73 195 -107 65 -33 135 -74 154 -90 l35 -29 -85 -4
-84 -3 -69 49 c-76 53 -216 182 -250 231 l-22 30 25 -16 c14 -9 59 -36 101
-61z m529 3 l55 -27 3 -67 c2 -52 0 -67 -11 -67 -7 0 -46 33 -85 74 -52 54
-72 81 -72 100 0 24 3 26 28 20 15 -3 52 -18 82 -33z m28 -177 c2 -1 -1 -10
-7 -21 -5 -10 -12 -26 -15 -36 -5 -16 -13 -18 -49 -12 -55 9 -111 42 -165 98
-49 50 -48 51 35 91 l48 24 75 -71 c41 -39 76 -72 78 -73z m1380 57 c-5 -24
-38 -27 -38 -3 0 10 3 21 6 25 11 11 35 -5 32 -22z m-98 -6 c0 -11 -138 -73
-185 -83 -72 -15 -324 -23 -435 -13 -101 9 -223 38 -215 51 5 8 121 27 250 39
88 9 585 14 585 6z m-1060 -137 c0 -66 -37 -108 -101 -115 -41 -5 -50 -2 -82
27 -45 39 -55 82 -31 136 l17 39 11 -45 c15 -55 47 -77 89 -61 28 11 40 32 52
86 l7 30 19 -25 c12 -16 19 -41 19 -72z m218 68 c66 -34 183 -49 380 -49 105
0 192 -1 192 -3 0 -1 -53 -15 -117 -31 -110 -26 -132 -28 -328 -28 -183 0
-217 2 -260 19 -53 20 -65 31 -65 57 0 12 17 21 58 32 74 20 107 20 140 3z
m1112 -46 c27 -27 25 -56 -6 -86 -19 -20 -31 -24 -52 -19 -39 10 -52 24 -52
58 0 61 67 90 110 47z m-1651 -20 c68 -9 83 -16 63 -29 -7 -4 -34 -1 -59 7
-40 13 -59 14 -131 3 -207 -30 -517 -167 -638 -283 -21 -19 -67 -42 -130 -64
-53 -19 -99 -32 -101 -30 -4 4 123 111 187 157 159 117 398 221 555 242 58 8
191 6 254 -3z m1196 -18 c-16 -15 -32 -17 -85 -14 l-65 5 35 13 c19 7 57 13
85 13 48 1 49 1 30 -17z m155 -23 c15 -53 71 -114 123 -132 l42 -15 -85 -84
c-85 -84 -212 -172 -297 -204 l-44 -17 -87 84 c-48 46 -109 102 -136 124 l-48
40 165 0 c100 -1 170 -5 178 -11 30 -23 39 -24 59 -4 24 24 25 34 4 54 -19 20
-38 20 -57 2 -12 -12 -34 -9 -162 22 l-148 36 94 17 c52 9 125 28 162 43 62
23 70 24 91 11 41 -27 80 10 56 55 -10 19 -8 20 34 20 44 0 45 -1 56 -41z
m172 -4 c4 -16 15 -35 24 -42 14 -10 14 -14 -1 -42 -18 -36 -40 -39 -92 -14
-35 16 -75 67 -88 111 -7 23 -6 23 71 20 77 -3 78 -3 86 -33z m-275 9 c9 -23
-13 -40 -32 -24 -12 10 -13 16 -4 26 15 18 28 18 36 -2z m-1263 -3 c3 -5 -6
-12 -22 -16 -15 -3 -54 -20 -87 -37 -62 -32 -605 -221 -613 -213 -8 7 150 105
238 147 106 50 271 106 347 117 81 12 131 13 137 2z m502 -42 c107 -47 260
-138 359 -214 71 -54 201 -180 232 -224 16 -23 16 -24 -8 -18 -13 3 -53 11
-89 17 -324 56 -587 215 -650 391 -11 31 -11 43 0 69 16 38 23 37 156 -21z
m614 31 c60 -1 38 -13 -81 -45 -111 -30 -243 -33 -334 -9 -98 25 -90 34 31 35
60 1 138 7 174 14 36 7 88 11 115 9 28 -2 70 -4 95 -4z m-1161 -117 c-63 -65
-136 -148 -162 -184 -50 -71 -107 -183 -107 -212 0 -11 -50 -76 -112 -145 -61
-70 -115 -131 -120 -137 -15 -17 4 57 44 173 115 337 292 548 509 606 30 8 56
15 58 15 2 1 -47 -52 -110 -116z m154 93 c3 -7 -12 -30 -35 -52 -22 -22 -54
-59 -71 -84 -27 -40 -211 -254 -275 -320 l-24 -25 16 39 c24 58 83 151 140
220 54 66 225 236 237 236 4 0 9 -6 12 -14z m497 -16 c22 -11 142 -45 267 -76
125 -30 230 -58 233 -61 3 -3 -65 -3 -151 -1 -153 4 -158 5 -200 33 -24 16
-84 50 -134 77 -49 26 -82 48 -72 48 10 0 35 -9 57 -20z m-454 -33 c3 -8 -11
-45 -29 -83 -85 -170 -165 -496 -182 -741 -8 -116 -13 -139 -27 -125 -16 16
-23 369 -9 477 27 204 83 352 165 438 46 47 72 58 82 34z m198 -59 c19 -40 39
-91 45 -113 27 -106 67 -454 59 -520 -3 -29 -4 -29 -34 25 -51 90 -105 249
-138 410 -17 84 -20 110 -18 191 2 54 9 66 49 78 1 1 18 -32 37 -71z m-104 -8
c0 -143 -76 -390 -198 -643 -47 -97 -87 -175 -90 -172 -15 15 43 379 84 522
35 125 105 301 135 339 5 6 22 9 39 6 29 -4 30 -7 30 -52z m988 -37 c5 -17
-26 -29 -40 -15 -6 6 -7 15 -3 22 9 14 37 9 43 -7z m-616 -190 c83 -41 240
-96 310 -109 21 -3 36 -10 33 -14 -5 -8 -89 -23 -190 -34 -118 -14 -311 33
-319 78 -17 86 -36 193 -36 203 0 7 27 -9 60 -35 33 -27 97 -67 142 -89z
m-692 26 c-28 -90 -50 -269 -50 -403 0 -128 17 -317 30 -329 16 -17 173 286
245 472 18 46 35 79 37 75 3 -5 15 -40 28 -79 43 -133 218 -435 252 -435 8 0
9 62 5 228 -4 125 -9 250 -12 277 l-4 50 13 -55 c7 -30 21 -95 30 -145 9 -49
31 -147 48 -217 l31 -127 -31 -31 c-18 -17 -36 -49 -43 -72 -20 -78 33 -163
120 -189 34 -10 40 -17 55 -64 22 -70 20 -88 -9 -123 -70 -84 -329 -175 -714
-251 l-152 -30 -87 37 c-103 44 -179 94 -194 128 -8 17 -8 45 1 101 12 75 59
274 66 282 2 2 16 -6 31 -18 78 -62 188 -40 233 47 17 32 20 34 21 14 0 -30
61 -92 89 -92 30 0 78 26 91 49 18 34 11 78 -16 110 -35 43 -93 44 -134 3
l-28 -28 -5 39 c-11 78 -73 129 -158 129 -35 -1 -49 3 -46 11 2 7 9 28 15 47
23 74 156 468 179 529 21 59 70 138 79 129 2 -2 -5 -33 -16 -69z m-302 39
c-36 -55 -79 -138 -104 -203 -18 -45 -45 -89 -75 -123 -63 -69 -161 -216 -211
-316 -22 -45 -42 -83 -43 -84 -6 -6 -118 28 -162 50 -32 15 -43 26 -43 43 0
12 -10 35 -21 49 -18 23 -20 30 -8 40 101 92 668 566 677 566 3 0 -2 -10 -10
-22z m714 -298 c37 -101 62 -154 94 -197 21 -28 24 -42 24 -115 l-1 -83 -27
32 c-74 86 -176 288 -209 415 -17 66 -17 68 6 165 l24 98 29 -115 c16 -63 43
-153 60 -200z m-2161 169 c11 -77 5 -184 -13 -256 -9 -37 -14 -43 -36 -43
l-25 0 6 103 c6 125 36 292 49 279 5 -5 14 -43 19 -83z m777 38 c2 -12 -3 -17
-17 -17 -15 0 -21 6 -21 21 0 25 33 22 38 -4z m805 -249 c-47 -139 -90 -259
-96 -266 -18 -23 -142 -81 -219 -102 -66 -18 -228 -29 -228 -15 0 32 157 284
220 355 29 32 31 33 26 10 -25 -109 -45 -164 -65 -179 -16 -13 -22 -25 -19
-47 3 -26 7 -29 38 -29 35 0 35 0 35 44 0 42 6 50 190 261 105 120 193 219
197 219 3 1 -32 -113 -79 -251z m-1749 120 c4 -24 22 -80 40 -125 35 -85 33
-111 -6 -76 -49 43 -80 153 -62 221 10 34 21 26 28 -20z m3176 -4 c0 -20 -30
-30 -40 -13 -11 17 7 40 26 32 8 -3 14 -12 14 -19z m-2770 10 c0 -18 -77 -159
-104 -190 -38 -44 -108 -71 -127 -48 -15 18 19 68 98 145 78 75 133 114 133
93z m-582 -203 c54 -17 140 -40 192 -52 52 -13 98 -28 102 -33 12 -17 9 -50
-5 -70 -12 -16 -22 -13 -139 42 -171 81 -164 80 -172 39 -8 -42 -67 -112 -115
-136 -78 -40 -199 -51 -332 -30 -57 9 -82 8 -140 -6 -67 -15 -107 -15 -60 0
40 12 17 35 -36 35 -35 0 -25 19 31 57 72 49 134 64 298 72 116 7 153 12 179
27 53 31 50 47 -7 37 -62 -10 -164 -7 -176 5 -5 5 29 12 89 16 54 4 114 11
133 15 53 13 55 13 158 -18z m188 -16 c16 -12 17 -14 2 -15 -23 0 -48 11 -48
21 0 14 24 11 46 -6z m492 -28 c-79 -57 -165 -90 -233 -91 l-60 -1 -3 36 c-3
34 -1 36 40 49 52 15 196 37 258 39 l45 1 -47 -33z m-342 -11 c60 -51 20 -148
-61 -148 -25 0 -44 7 -59 22 l-21 21 43 -17 c62 -24 77 -5 73 89 -1 22 -7 29
-31 34 -44 8 -47 23 -6 23 22 0 45 -9 62 -24z m327 -71 c16 -3 27 -12 27 -21
0 -28 41 -90 70 -107 17 -11 50 -17 85 -17 51 0 60 3 91 34 19 19 34 41 34 50
0 9 4 16 9 16 5 0 7 -18 4 -40 -5 -35 -2 -43 26 -70 24 -21 31 -35 26 -50 -5
-17 -10 -18 -27 -9 -84 45 -172 18 -215 -65 -11 -21 -14 -46 -10 -83 6 -60 3
-62 -66 -42 -34 9 -38 14 -32 32 18 62 17 97 -4 137 l-21 40 55 0 c29 0 56 4
59 9 8 12 -71 70 -169 122 l-79 43 40 16 c21 9 46 16 54 14 8 -2 27 -5 43 -9z
m169 -25 c52 -7 101 -16 109 -21 21 -12 -19 -61 -65 -78 -32 -12 -41 -12 -82
4 -29 11 -52 28 -65 49 -22 36 -25 71 -6 63 8 -3 57 -11 109 -17z m768 4 c11
-12 10 -18 -3 -32 -16 -15 -18 -15 -34 0 -13 14 -14 20 -3 32 7 9 16 16 20 16
4 0 13 -7 20 -16z m-1423 -19 c8 -23 -26 -44 -71 -45 -35 0 -37 2 -25 17 13
15 64 42 82 43 4 0 10 -7 14 -15z m931 -5 c44 -41 17 -110 -41 -110 -65 0 -91
70 -41 109 34 26 54 26 82 1z m-566 -9 c24 -10 70 -35 103 -55 46 -27 55 -36
36 -36 -57 0 -301 81 -301 101 0 17 116 10 162 -10z m-134 -30 c49 -24 129
-50 222 -72 67 -15 71 -17 33 -18 -101 -2 -258 44 -297 88 -24 26 -8 27 42 2z
m-190 -13 c8 -40 -69 -83 -186 -104 -33 -6 -27 0 58 58 97 67 122 76 128 46z
m237 -130 c66 -78 122 -146 124 -151 2 -5 -25 6 -60 24 -86 45 -193 151 -210
208 -11 36 -10 44 2 52 8 5 16 9 19 9 3 0 59 -64 125 -142z m-156 55 c23 -79
74 -343 67 -350 -12 -12 -96 187 -107 253 -12 72 -5 164 11 164 4 0 18 -30 29
-67z m-66 -25 c-2 -77 -4 -83 -35 -116 -35 -36 -96 -72 -123 -72 -12 0 -4 16
28 58 55 72 112 162 121 190 4 12 8 22 9 22 2 0 1 -37 0 -82z m247 22 c0 -19
-22 -21 -41 -4 -28 25 -23 34 11 23 17 -6 30 -15 30 -19z m1477 -5 c35 -23 63
-74 63 -115 0 -41 -28 -92 -64 -115 -35 -23 -112 -22 -144 2 -47 35 -48 45
-21 140 20 68 31 91 50 101 29 15 82 9 116 -13z m-1324 -25 c45 -36 59 -126
26 -166 -16 -19 -69 17 -136 93 -54 62 -56 66 -38 79 29 22 117 18 148 -6z
m365 -26 c26 -18 21 -33 -36 -96 -58 -64 -142 -98 -156 -62 -19 50 6 128 52
156 34 22 110 23 140 2z m1789 -108 c18 -66 32 -121 29 -123 -10 -10 -74 27
-100 58 -25 30 -28 39 -24 91 4 56 29 103 51 95 6 -2 25 -56 44 -121z m-597
44 c28 -28 26 -75 -5 -105 -27 -28 -46 -31 -78 -13 -50 26 -60 69 -26 112 26
33 79 36 109 6z m422 -535 c3 -18 -76 -64 -137 -80 -63 -16 -157 -19 -190 -6
-22 9 -30 6 140 51 44 12 98 28 120 35 44 16 65 16 67 0z m104 -38 c27 -19 50
-40 52 -48 3 -17 -67 -60 -135 -83 -125 -42 -212 -57 -345 -63 -120 -5 -150
-3 -235 17 -92 21 -204 67 -218 89 -11 19 47 24 90 9 44 -17 59 -15 222 18 65
14 76 13 123 -2 100 -32 271 1 344 67 17 16 36 29 42 29 7 0 34 -15 60 -33z
m92 -109 c25 -83 25 -85 -20 -116 -67 -46 -201 -110 -297 -142 -103 -35 -121
-37 -121 -12 0 28 -37 81 -72 102 -73 44 -181 12 -218 -65 -11 -23 -20 -53
-20 -68 0 -15 -4 -27 -10 -27 -6 0 -10 35 -10 85 0 90 -11 108 -30 50 -6 -19
-16 -35 -21 -35 -13 0 -308 183 -309 191 0 8 98 49 117 49 7 0 30 -11 51 -25
83 -55 255 -95 407 -95 172 0 422 62 500 124 30 23 42 19 53 -16z m-973 -160
c19 -13 35 -26 35 -30 0 -4 -14 -28 -31 -54 -37 -54 -84 -163 -94 -216 -7 -35
-10 -38 -40 -38 -36 0 -39 4 -51 98 -4 29 -11 55 -16 58 -11 7 -138 -97 -134
-111 1 -5 32 -21 69 -34 l67 -23 -32 -22 c-39 -26 -65 -70 -70 -116 -3 -31 0
-35 22 -38 14 -1 57 -9 96 -18 l72 -15 7 -47 c4 -25 14 -64 22 -85 12 -28 13
-41 4 -50 -8 -8 -12 -2 -17 21 -4 18 -9 32 -12 32 -11 0 -131 -106 -131 -117
-1 -6 5 -13 12 -16 11 -4 -31 -26 -80 -41 -19 -6 -23 -4 -23 16 0 50 -14 49
-75 -2 -38 -31 -70 -50 -86 -50 -24 0 -27 5 -38 60 -7 33 -17 60 -22 60 -6 0
-37 -23 -69 -51 -35 -30 -65 -49 -74 -46 -13 5 -36 84 -36 125 0 9 -4 23 -9
31 -10 15 -21 9 -111 -68 -31 -26 -33 -31 -20 -47 14 -16 13 -17 -3 -11 -10 4
-23 7 -27 7 -5 0 -14 9 -20 21 -10 18 -3 28 60 86 117 109 111 105 160 88 23
-8 46 -13 50 -10 4 2 3 27 -3 54 -7 39 -6 53 4 63 8 7 100 92 204 187 105 96
206 190 226 208 l35 33 57 -19 57 -20 -1 22 c0 12 -4 40 -8 62 -6 33 -4 44 12
63 11 12 22 22 24 22 2 0 19 -10 38 -22z m470 -40 c20 -19 38 -47 41 -64 l6
-32 -68 -11 c-38 -6 -98 -12 -134 -13 -60 -3 -65 -1 -68 19 -5 34 28 93 62
114 19 12 50 19 79 19 40 0 53 -5 82 -32z m394 -29 c-10 -42 -36 -99 -62 -133
-13 -18 -15 -18 -39 -2 -25 16 -26 16 -32 -6 -3 -13 -6 -35 -6 -49 0 -14 -11
-36 -25 -49 -14 -13 -25 -30 -25 -37 0 -9 -25 5 -60 33 -36 28 -64 44 -69 38
-12 -12 -29 -164 -19 -170 4 -3 39 9 79 26 39 16 74 28 79 25 4 -3 10 -14 13
-25 4 -15 1 -20 -11 -18 -13 3 -18 -13 -27 -85 l-11 -89 26 5 c14 2 32 7 41
11 14 6 17 -5 23 -83 7 -89 4 -136 -15 -239 l-10 -52 -26 20 c-33 26 -39 18
-49 -74 -11 -93 -11 -91 4 -89 21 5 14 -13 -32 -73 -44 -60 -85 -101 -145
-147 l-35 -26 -38 31 c-22 17 -41 28 -44 26 -2 -3 -7 -29 -11 -58 -6 -49 -8
-53 -47 -71 l-40 -18 -47 34 c-25 19 -49 32 -53 28 -3 -3 -6 -23 -6 -43 0 -21
-6 -42 -12 -48 -16 -12 -128 -22 -128 -11 0 4 -11 21 -25 38 l-26 30 37 151
36 152 49 20 c27 12 49 24 49 28 0 4 -16 18 -35 31 -40 28 -41 31 -17 123 l18
68 72 30 c39 17 72 35 72 39 0 5 -24 28 -54 51 -53 41 -53 41 -43 79 9 36 14
40 89 71 l80 33 -29 25 c-15 14 -43 36 -61 50 l-32 26 31 132 c27 115 34 132
51 132 16 0 19 -5 14 -22 -10 -36 -19 -138 -13 -138 11 0 152 53 160 60 5 4
-15 27 -44 51 l-53 44 45 7 c93 14 93 14 86 -42 -3 -27 -4 -50 -2 -50 12 0
151 53 159 61 6 5 -1 20 -18 38 l-27 28 28 7 c15 4 36 9 47 12 16 5 17 2 11
-36 -7 -39 -6 -42 11 -36 11 4 47 16 81 28 35 11 66 25 70 30 3 6 -6 22 -22
35 -15 13 -26 25 -24 27 3 2 90 43 95 46 1 0 -2 -18 -7 -41z m-952 -46 c-5 -5
-67 18 -67 25 0 3 12 16 28 28 l27 22 8 -35 c4 -20 6 -38 4 -40z m231 25 c19
-10 25 -9 33 3 6 9 9 -2 9 -37 0 -44 3 -52 21 -57 12 -3 19 -11 17 -19 -3 -7
-13 -49 -24 -93 -10 -44 -19 -81 -20 -83 -3 -4 -246 37 -252 42 -15 15 44 165
96 244 l34 53 32 -21 c17 -12 41 -26 54 -32z m636 -17 c18 -19 17 -20 -20 -36
-73 -30 -81 -30 -76 3 7 48 65 67 96 33z m-204 -66 c22 -23 22 -25 4 -31 -10
-4 -34 -13 -53 -20 -42 -17 -51 -17 -47 -1 3 6 7 24 10 39 4 17 14 28 29 31
12 2 25 5 28 6 3 0 16 -10 29 -24z m-183 -92 c3 -9 -79 -43 -102 -43 -7 0 1
66 12 103 4 16 10 14 46 -16 22 -18 42 -38 44 -44z m559 8 c18 -25 34 -52 34
-58 0 -7 -19 -25 -42 -40 -47 -29 -210 -104 -216 -98 -2 1 -10 27 -17 57 l-15
54 70 71 c38 39 75 73 82 76 27 9 71 -17 104 -62z m-1143 -34 c6 -38 5 -39
-20 -32 -38 9 -97 35 -92 39 2 2 24 21 49 41 50 42 48 43 63 -48z m957 48 c0
-8 -4 -15 -10 -15 -5 0 -10 7 -10 15 0 8 5 15 10 15 6 0 10 -7 10 -15z m-150
-94 l44 -39 -35 -15 c-76 -31 -79 -31 -79 1 0 39 11 92 19 92 3 0 26 -18 51
-39z m403 -48 c19 -46 19 -46 -91 -112 -81 -49 -168 -88 -177 -80 -2 3 -7 27
-10 54 l-7 50 49 18 c26 10 84 37 128 61 44 25 83 45 86 45 4 1 14 -16 22 -36z
m-1021 -20 c40 -27 92 -56 114 -66 l41 -19 -9 -46 c-6 -26 -13 -51 -17 -55 -4
-4 -66 8 -137 27 -71 19 -162 40 -201 47 -71 12 -72 13 -66 38 16 67 44 96
108 112 67 16 93 10 167 -38z m91 22 c43 -8 81 -15 83 -15 6 0 -7 -53 -15 -62
-7 -8 -115 43 -151 72 -31 24 -20 25 83 5z m632 -142 c6 -39 5 -44 -17 -52
-12 -5 -25 -7 -27 -5 -2 1 0 31 4 64 6 51 9 60 20 49 7 -8 16 -33 20 -56z
m-490 23 l40 -34 -48 -21 c-63 -27 -71 -27 -63 5 4 15 10 39 13 55 3 16 8 29
12 29 3 0 24 -16 46 -34z m-895 -102 c0 -25 -14 -30 -40 -14 -12 7 -12 12 4
29 22 25 36 19 36 -15z m673 15 l71 -21 -58 -55 c-32 -31 -61 -52 -65 -47 -11
12 -41 104 -41 126 0 23 7 23 93 -3z m112 -41 c-6 -17 -155 -656 -155 -664 0
-3 -19 20 -43 52 -83 113 -252 244 -374 290 -51 20 -56 34 -10 34 42 0 157 31
235 63 80 33 180 100 262 176 62 57 94 76 85 49z m74 -131 c9 -12 2 -18 -38
-36 -27 -11 -52 -21 -54 -21 -6 0 11 88 19 101 5 9 51 -18 73 -44z m-299 19
c0 -17 -10 -31 -34 -45 -33 -21 -67 -28 -65 -13 0 7 87 82 95 82 2 0 4 -11 4
-24z m-635 -38 c3 -24 9 -51 12 -62 4 -16 1 -18 -23 -12 -15 4 -44 14 -63 22
l-35 15 44 39 c25 22 48 39 52 40 3 0 9 -19 13 -42z m-205 -28 c40 -40 14
-110 -42 -110 -42 0 -68 25 -68 66 0 57 69 85 110 44z m404 -31 c14 -73 7 -79
-67 -57 l-39 12 43 38 c24 20 47 38 50 38 4 0 9 -14 13 -31z m197 -31 c-4 -4
-22 -11 -41 -14 l-35 -6 35 30 c30 26 36 28 41 14 4 -10 4 -20 0 -24z m-371
-20 c202 -43 384 -129 519 -247 l34 -30 -42 -46 c-67 -73 -100 -174 -101 -309
l-1 -61 -20 38 -20 38 -49 -60 c-28 -32 -50 -64 -50 -70 0 -6 12 -13 28 -17
15 -3 49 -11 76 -18 l48 -12 24 -82 c24 -82 78 -201 117 -256 20 -28 20 -29 2
-42 -24 -18 -31 -12 -44 42 l-12 47 -43 -42 -43 -42 -62 76 c-33 42 -61 80
-61 85 0 5 14 5 31 0 18 -5 35 -7 39 -5 8 5 -36 154 -49 168 -5 5 -24 -10 -43
-32 -19 -23 -38 -41 -41 -41 -5 0 -117 175 -117 184 0 2 25 -2 55 -9 31 -7 57
-9 60 -5 4 7 -42 159 -52 169 -2 3 -25 -17 -52 -43 l-49 -48 -55 103 c-31 57
-55 105 -53 106 1 2 28 -2 60 -8 31 -7 59 -10 61 -7 7 7 -48 168 -58 168 -5 0
-28 -21 -50 -46 -22 -25 -43 -42 -48 -37 -13 13 -98 187 -94 192 3 2 32 -2 65
-9 33 -7 63 -11 65 -8 7 7 -48 168 -58 168 -4 0 -30 -23 -56 -52 l-47 -51 -23
52 -22 52 21 28 c11 16 20 34 20 41 0 13 49 8 190 -22z m-66 -134 c10 -31 15
-58 13 -61 -4 -4 -66 9 -105 22 -9 3 -1 19 25 50 20 25 40 45 43 45 4 0 14
-25 24 -56z m1475 47 c13 -8 13 -15 1 -50 -7 -23 -20 -47 -28 -54 -13 -10 -14
-6 -9 37 4 27 7 55 7 62 0 16 9 17 29 5z m-626 -99 c-30 -17 -36 -12 -27 22 6
25 7 25 29 8 l23 -17 -25 -13z m-157 -185 c38 -51 44 -65 39 -91 -13 -62 -15
-66 -46 -66 -46 0 -89 -48 -89 -98 0 -48 25 -82 71 -97 31 -11 39 -22 86 -131
29 -65 53 -131 53 -145 0 -14 -15 -55 -32 -90 -31 -59 -36 -64 -69 -67 -35 -3
-39 0 -73 55 -124 199 -171 487 -106 657 23 61 95 150 112 140 5 -4 30 -33 54
-67z m-572 -23 c10 -31 16 -57 14 -59 -3 -4 -70 10 -106 21 -9 2 -1 19 25 49
20 25 40 45 43 45 4 0 14 -25 24 -56z m1063 -81 c2 -5 -8 -15 -22 -21 -24 -11
-25 -10 -25 24 0 35 1 36 22 22 12 -8 23 -19 25 -25z m33 -143 l0 -130 -25 16
c-24 16 -25 21 -25 115 0 90 2 99 22 113 12 9 24 16 25 16 2 0 3 -59 3 -130z
m-220 62 c7 -5 -24 -22 -41 -22 -12 0 -14 7 -11 30 4 30 5 31 26 13 11 -10 23
-19 26 -21z m146 -129 c-2 -2 -26 7 -53 20 -26 13 -72 32 -102 42 l-54 18 69
22 c38 12 85 29 104 38 l35 15 3 -75 c2 -42 1 -77 -2 -80z m-402 116 c37 -29
37 -89 0 -118 -35 -27 -66 -26 -100 2 -20 17 -27 33 -27 57 0 24 7 40 27 57
34 28 65 29 100 2z m-480 -95 c10 -31 16 -58 13 -60 -8 -8 -107 18 -107 28 0
11 61 86 71 87 3 1 13 -24 23 -55z m659 35 c108 -16 200 -65 296 -155 l82 -77
-7 -73 c-4 -41 -4 -74 0 -74 4 0 23 7 43 15 20 8 37 14 38 13 20 -25 21 -52 9
-137 -8 -52 -12 -96 -10 -99 3 -2 24 3 48 13 40 16 43 16 56 -2 14 -18 13 -68
-4 -186 l-7 -48 36 6 35 7 9 -59 c10 -71 10 -281 0 -306 -6 -17 -9 -16 -37 4
-16 13 -32 20 -35 17 -8 -7 -29 -167 -23 -173 3 -3 17 -1 32 5 l26 10 -19 -38
c-30 -58 -69 -89 -123 -96 -27 -4 -51 -14 -56 -23 -7 -12 -12 -9 -21 18 -6 18
-8 36 -3 41 4 4 34 19 67 32 33 13 60 30 60 37 0 7 -29 35 -63 62 -69 54 -81
53 -83 -8 0 -16 -4 -41 -8 -54 -5 -20 -11 -12 -39 55 -18 44 -32 82 -32 85 0
3 32 19 70 34 39 15 70 33 70 39 -1 12 -97 92 -123 102 -19 7 -23 0 -33 -71
l-7 -50 -33 70 c-18 39 -33 75 -33 82 -1 6 31 24 70 39 78 31 88 40 66 57 -9
7 -41 32 -71 56 -31 24 -59 42 -61 39 -3 -2 -8 -36 -13 -74 l-8 -69 -37 78
c-20 43 -38 85 -39 94 -2 11 17 24 65 44 78 31 81 34 73 48 -13 21 -126 102
-135 97 -5 -3 -12 -35 -16 -72 -4 -36 -8 -64 -10 -62 -2 2 -20 40 -39 85 l-35
81 80 32 c43 18 79 35 79 39 0 10 -140 114 -146 108 -3 -3 -9 -33 -14 -67 -5
-34 -11 -64 -13 -66 -2 -2 -18 30 -35 73 l-30 77 76 31 c43 17 77 36 77 42 0
14 -126 114 -136 107 -4 -2 -10 -35 -14 -74 -4 -38 -10 -70 -14 -70 -7 0 -91
188 -91 202 0 4 14 20 30 36 17 17 30 37 30 46 0 16 26 35 48 36 7 0 46 -5 85
-11z m-457 -89 l23 -50 -42 7 c-92 14 -91 13 -50 61 19 24 38 41 40 38 3 -3
16 -28 29 -56z m474 -159 c29 -23 30 -21 -37 -49 l-53 -21 0 42 c0 23 3 52 6
64 l6 23 27 -20 c14 -11 37 -28 51 -39z m-535 -53 c8 -28 15 -55 15 -59 0 -14
-81 14 -90 32 -8 13 -4 25 16 48 14 17 30 31 35 31 4 0 15 -23 24 -52z m943
-39 c-34 -22 -46 -4 -32 49 6 22 7 22 26 -9 16 -26 17 -34 6 -40z m-357 -86
l50 -38 -58 -26 c-32 -15 -59 -25 -61 -24 -3 3 10 125 15 125 2 0 26 -17 54
-37z m-127 -50 c14 -34 26 -66 26 -71 0 -7 -98 13 -117 23 -1 0 9 23 22 50 14
26 25 55 25 64 0 25 16 1 44 -66z m569 10 c29 -56 29 -69 2 -81 -35 -16 -35
-16 -35 17 0 31 10 91 16 91 2 0 10 -12 17 -27z m-849 -86 c16 -55 7 -60 -39
-23 l-30 24 24 26 c14 14 26 24 28 23 1 -2 9 -25 17 -50z m252 -8 c24 -6 44
-14 44 -18 0 -4 -14 -20 -30 -36 -17 -16 -28 -35 -26 -42 3 -7 -4 -17 -14 -23
-18 -10 -23 -5 -45 46 -13 30 -28 54 -32 52 -53 -25 -83 -43 -83 -50 0 -5 9
-26 20 -48 26 -51 25 -60 -4 -60 -59 0 -62 7 -45 106 9 54 14 64 37 73 37 13
124 13 178 0z m94 -75 c0 -11 -69 -28 -79 -19 -2 3 9 19 25 36 26 28 30 29 41
13 7 -10 13 -23 13 -30z m160 -12 l35 -30 -36 -15 c-76 -31 -79 -31 -79 1 0
16 3 43 6 60 7 36 15 34 74 -16z m-340 1 c8 -21 16 -41 18 -44 4 -8 -48 -30
-58 -24 -5 3 -14 22 -21 42 -10 32 -9 38 7 50 28 21 39 16 54 -24z m214 -65
c44 -99 46 -91 -45 -122 -59 -19 -85 -23 -94 -16 -22 18 -37 66 -33 106 3 38
4 39 68 61 36 12 69 22 73 22 4 1 18 -23 31 -51z m550 -65 c-9 -7 -19 -11 -21
-9 -2 2 0 30 4 62 l7 59 14 -49 c13 -46 13 -51 -4 -63z m121 48 c212 -99 399
-281 504 -488 33 -66 81 -201 81 -227 0 -28 -60 -57 -110 -54 -44 3 -45 4 -58
48 -73 245 -203 404 -466 565 -20 13 -58 195 -40 195 3 0 43 -17 89 -39z
m-865 -16 c0 -20 -11 -30 -57 -54 -168 -84 -333 -253 -423 -431 -253 -502 -55
-1110 445 -1363 163 -83 315 -113 515 -104 188 9 334 56 495 161 153 100 276
238 351 393 21 43 39 80 41 82 2 2 12 0 24 -5 20 -9 19 -12 -25 -99 -205 -410
-658 -644 -1106 -571 -240 39 -441 145 -606 319 -130 136 -209 280 -262 476
-22 84 -25 116 -25 251 0 135 3 167 25 251 34 127 66 204 125 301 53 89 172
222 256 286 53 42 204 132 219 132 5 0 8 -11 8 -25z m9 -67 c7 -20 1 -27 -58
-61 -138 -81 -260 -202 -344 -342 -79 -133 -116 -264 -124 -436 -10 -237 56
-444 202 -626 182 -228 444 -353 739 -353 359 0 680 197 840 517 30 60 39 70
56 66 26 -7 26 -12 -11 -86 -103 -205 -263 -359 -474 -458 -128 -60 -218 -80
-380 -86 -117 -4 -156 -1 -239 16 -229 48 -437 179 -579 362 -70 90 -147 245
-178 359 -20 73 -23 108 -23 250 0 142 3 177 23 250 74 266 249 491 486 622
28 15 51 28 53 28 1 0 6 -10 11 -22z m432 -91 c-4 -4 -31 -17 -60 -28 l-52
-19 6 47 c12 88 11 87 64 45 27 -20 45 -41 42 -45z m-197 57 c12 -32 4 -43
-59 -78 -36 -20 -68 -36 -70 -36 -24 0 44 107 75 119 36 14 47 13 54 -5z
m-204 -24 c0 -5 -9 -11 -20 -15 -10 -3 -54 -29 -97 -57 -199 -130 -329 -327
-378 -573 -23 -118 -17 -306 15 -415 79 -275 290 -502 556 -599 113 -41 213
-55 357 -48 174 8 304 51 452 150 120 81 255 239 303 354 11 28 23 43 35 43
16 0 16 -2 2 -37 -77 -186 -266 -376 -462 -465 -203 -92 -465 -105 -678 -33
-266 90 -483 306 -577 575 -44 127 -60 310 -38 450 42 264 221 521 455 653 57
32 75 36 75 17z m90 1 c0 -5 -8 -19 -18 -32 l-19 -22 -5 21 c-4 15 0 25 10 32
21 12 32 12 32 1z m-52 -53 c9 -30 177 -508 201 -570 13 -34 2 -36 -30 -5 -17
15 -52 100 -115 277 -120 335 -115 318 -101 324 26 10 36 4 45 -26z m171 -76
c-13 -9 -32 -15 -41 -14 -12 2 -18 -3 -18 -17 0 -11 -9 -25 -20 -31 -21 -11
-24 -7 -44 55 -6 22 1 28 84 72 l45 24 9 -36 c7 -32 6 -38 -15 -53z m602 68
c22 -12 42 -27 45 -34 4 -10 -80 -166 -90 -166 -1 0 -2 50 -2 110 0 61 2 110
4 110 1 0 21 -9 43 -20z m-938 -58 c-28 -27 -63 -67 -78 -90 -30 -45 -37 -49
-53 -29 -9 10 -2 23 31 54 38 37 136 112 146 113 2 0 -18 -22 -46 -48z m98 33
c0 -6 -10 -12 -23 -13 -19 -4 -20 -2 -9 12 15 17 33 18 32 1z m328 -100 c41
-100 42 -102 39 -210 l-3 -110 -13 65 c-7 36 -28 134 -46 218 -18 84 -30 149
-25 145 4 -4 26 -53 48 -108z m-307 60 c13 -17 10 -21 -44 -62 -71 -54 -95
-65 -118 -58 -30 9 -25 25 25 81 41 47 48 51 87 51 24 -1 46 -6 50 -12z m916
2 c8 -10 -14 -53 -89 -177 -115 -189 -133 -220 -122 -220 5 0 93 47 198 104
141 78 193 102 202 94 7 -6 13 -14 13 -18 0 -14 -417 -240 -443 -240 -34 0
-41 13 -17 35 31 28 66 94 88 165 20 64 135 270 151 270 5 0 13 -6 19 -13z
m-653 -94 c9 -43 27 -127 40 -186 l24 -108 -21 -57 c-12 -31 -24 -60 -28 -65
-5 -5 -70 165 -97 253 -3 11 7 20 30 28 53 19 60 33 46 81 -18 59 -30 66 -84
48 -39 -14 -45 -14 -45 -1 0 8 4 14 9 14 4 0 28 16 52 35 24 19 47 35 50 35 4
0 15 -35 24 -77z m753 3 c34 -35 62 -68 62 -73 0 -9 -322 -193 -329 -187 -5 4
191 324 199 324 4 0 35 -29 68 -64z m-1044 -87 l-67 -68 -59 50 c-32 28 -56
54 -53 59 3 4 25 5 49 3 42 -5 50 -2 108 41 l63 47 13 -32 c13 -32 13 -32 -54
-100z m481 99 c24 -18 44 -36 45 -39 0 -8 -102 -51 -107 -45 -6 5 8 116 14
116 2 0 24 -15 48 -32z m-219 -63 c19 -47 18 -51 -16 -65 -40 -16 -54 -9 -67
35 -11 36 -11 37 20 50 45 20 46 19 63 -20z m-416 -56 c369 -308 419 -353 409
-366 -6 -7 -15 -13 -19 -13 -4 0 -65 48 -136 106 -71 58 -184 151 -251 206
-68 55 -123 102 -123 103 0 14 14 35 24 35 6 0 49 -32 96 -71z m240 43 c0 -4
-10 -12 -22 -17 -49 -21 -28 -90 24 -83 18 3 27 0 25 -6 -2 -6 -13 -10 -23 -9
-10 2 -36 -5 -57 -14 -37 -16 -39 -16 -60 5 l-21 22 59 60 c51 52 75 65 75 42z
m-340 -59 c0 -9 -17 -55 -26 -71 -1 -2 -53 18 -63 25 -2 1 8 21 23 43 23 36
28 39 46 28 11 -7 20 -18 20 -25z m1016 -10 c-4 -8 -6 -21 -6 -28 0 -18 -28
-45 -46 -45 -15 0 -14 19 2 98 4 21 5 22 30 6 15 -10 23 -23 20 -31z m-662 21
c8 -21 -1 -34 -25 -34 -14 0 -19 7 -19 25 0 29 34 36 44 9z m-267 -72 l42 -35
-37 -43 c-42 -49 -53 -52 -92 -24 l-28 20 19 52 c11 29 22 59 24 66 6 15 15
11 72 -36z m613 -124 c0 -43 -4 -78 -9 -78 -5 0 -16 -3 -25 -6 -14 -5 -16 10
-15 127 l1 134 24 -50 c19 -39 24 -66 24 -127z m757 82 c18 -36 33 -69 33 -73
0 -4 -89 -51 -197 -103 -250 -121 -271 -130 -285 -116 -7 7 2 17 30 31 22 11
43 25 47 31 3 5 -17 24 -45 42 l-50 31 202 113 c112 62 210 112 218 111 8 -1
30 -31 47 -67z m-627 21 l45 -39 -48 -21 c-66 -29 -71 -28 -63 17 3 20 6 47 6
60 0 30 8 28 60 -17z m-876 -4 c14 -10 16 -18 10 -30 -9 -15 -12 -15 -42 3
-17 11 -32 24 -32 30 0 14 43 12 64 -3z m459 -66 c15 -42 27 -80 27 -84 0 -5
-39 25 -86 65 -85 71 -86 73 -61 83 14 5 40 11 59 12 33 1 34 0 61 -76z m-457
-7 c60 -37 72 -49 63 -60 -6 -8 -16 -14 -20 -14 -10 0 -139 79 -139 85 0 9 13
35 17 35 3 0 39 -21 79 -46z m337 -73 c70 -58 125 -107 122 -109 -2 -2 -25 -8
-51 -13 -47 -9 -47 -9 -170 69 -68 42 -124 81 -124 87 0 17 73 84 85 77 6 -4
69 -54 138 -111z m-654 59 c-11 -31 -29 -32 -29 -1 0 21 9 31 26 31 10 0 11
-7 3 -30z m1128 -106 c-2 -2 -13 -1 -25 3 -19 5 -22 12 -22 62 l1 56 24 -59
c14 -33 24 -61 22 -62z m-888 92 c10 -11 7 -17 -11 -30 -32 -23 -38 -20 -27
14 12 33 21 37 38 16z m-271 -28 c11 -14 4 -108 -8 -108 -15 0 -32 59 -25 89
7 33 16 38 33 19z m1897 -9 c4 -11 5 -22 3 -23 -1 -1 -86 -42 -187 -90 -164
-78 -188 -87 -215 -78 -30 8 -21 14 174 110 113 55 208 101 212 101 4 1 10 -8
13 -20z m-1554 -6 c16 -10 29 -20 29 -23 0 -14 -143 -110 -165 -110 -7 0 -5
61 4 83 6 16 74 64 94 66 5 1 22 -7 38 -16z m213 -59 c103 -65 120 -84 70 -84
-35 0 -214 117 -207 136 9 24 27 17 137 -52z m459 14 c-4 -8 -33 -11 -33 -4 0
3 5 17 11 33 l12 28 7 -25 c4 -14 5 -28 3 -32z m251 24 c9 -15 -33 -71 -59
-78 -14 -3 -28 -4 -31 -1 -7 6 25 69 40 79 15 10 44 10 50 0z m73 -13 c15 -5
48 -22 72 -36 l43 -25 -41 -25 c-23 -13 -41 -30 -41 -37 0 -31 -178 -49 -214
-23 -15 11 -17 17 -7 35 6 12 21 22 32 22 33 0 77 31 94 67 18 36 21 38 62 22z
m-855 -55 c49 -31 87 -58 85 -60 -2 -2 -82 -15 -178 -29 -96 -14 -180 -28
-186 -30 -9 -3 -13 5 -13 23 0 23 9 31 68 59 37 18 81 45 97 62 17 16 32 30
34 30 2 1 44 -24 93 -55z m1446 -103 c4 -95 3 -113 -9 -109 -8 3 -89 25 -181
49 -93 24 -168 47 -168 50 0 3 75 42 168 86 196 94 181 101 190 -76z m186 -51
c1 -160 -23 -320 -48 -320 -31 1 -35 15 -19 70 12 41 17 103 18 244 2 147 5
190 16 197 25 15 33 -31 33 -191z m-986 179 l31 -11 -16 -34 c-13 -27 -21 -33
-37 -28 -40 13 -98 7 -124 -13 -15 -11 -35 -36 -46 -57 -16 -33 -17 -43 -7
-78 23 -74 93 -113 162 -89 37 13 53 4 25 -13 -10 -6 -34 -21 -53 -34 -23 -15
-42 -21 -56 -16 -40 11 -94 55 -113 89 -16 30 -24 35 -56 35 l-38 0 0 60 0 60
38 0 c33 0 40 4 57 36 42 78 151 122 233 93z m843 -46 c15 -40 12 -237 -6
-328 -8 -44 -15 -81 -15 -82 0 -2 -7 -3 -15 -3 -19 0 -19 3 1 87 17 71 22 263
10 321 -9 40 10 44 25 5z m75 -20 c9 -62 -2 -297 -17 -353 -14 -55 -22 -64
-47 -56 -19 6 -19 7 0 88 16 67 19 110 16 225 -3 141 -3 143 19 143 18 0 23
-7 29 -47z m-1188 -15 c21 -21 13 -28 -27 -28 -21 0 -51 -4 -67 -10 -26 -8
-113 -22 -409 -65 -55 -8 -115 -17 -132 -20 -30 -5 -33 -3 -33 18 0 23 5 25
83 35 118 16 414 61 467 71 66 13 104 13 118 -1z m228 -8 c31 -11 74 -65 74
-92 0 -27 -11 -48 -26 -48 -10 0 -14 12 -14 39 0 67 -59 93 -105 46 -32 -31
-32 -59 0 -91 20 -20 32 -24 54 -19 22 5 30 2 35 -11 8 -21 -9 -34 -47 -34
-96 0 -147 108 -83 179 35 39 65 47 112 31z m344 -95 l0 -55 -38 0 c-34 0 -40
4 -55 35 -30 62 -23 71 56 74 l37 1 0 -55z m220 0 c299 -80 282 -74 278 -98
-2 -12 -8 -21 -13 -20 -28 4 -433 115 -452 123 -28 12 -33 54 -5 46 9 -3 96
-26 192 -51z m1266 4 c10 -40 9 -45 -12 -62 -21 -16 -26 -16 -52 -3 -33 17
-58 44 -49 52 3 4 27 -6 53 -21 l47 -28 -7 24 c-4 13 -10 39 -13 58 -9 52 19
35 33 -20z m-2136 16 c0 -30 -3 -30 -37 -8 l-26 17 24 7 c38 11 39 10 39 -16z
m310 5 c11 -11 20 -24 20 -30 0 -12 -37 -50 -48 -50 -18 0 -52 33 -52 50 0 17
34 50 52 50 5 0 17 -9 28 -20z m1890 -51 c-26 -36 -22 -43 14 -29 34 12 76 13
76 1 0 -10 -54 -31 -81 -31 -30 0 -22 -13 21 -38 39 -22 52 -42 28 -42 -7 0
-28 9 -47 21 -18 11 -35 18 -38 15 -3 -2 0 -21 7 -41 6 -20 9 -44 5 -53 -6
-15 -8 -14 -20 8 -8 14 -14 35 -15 47 0 36 -16 35 -41 -4 -23 -36 -49 -54 -49
-35 0 5 11 26 25 46 14 20 25 39 25 41 0 2 -26 1 -57 -2 -66 -6 -64 8 2 26 36
10 42 9 56 -10 21 -28 63 -23 67 9 2 13 -1 29 -7 36 -13 16 -6 39 23 81 20 29
21 29 24 8 2 -13 -6 -37 -18 -54z m-1782 8 c2 -37 0 -47 -12 -47 -12 0 -15 11
-13 50 3 62 21 60 25 -3z m105 36 c2 -10 8 -26 12 -35 5 -13 3 -18 -8 -18 -8
0 -31 -20 -51 -45 -21 -25 -41 -45 -45 -45 -5 0 -5 19 0 43 4 23 8 59 9 80 0
36 1 37 39 37 28 0 40 -5 44 -17z m-567 -23 c32 -23 44 -38 44 -55 0 -14 6
-25 12 -25 7 0 -1 -13 -17 -30 -29 -28 -37 -30 -292 -66 -145 -21 -265 -35
-269 -32 -7 8 -29 157 -23 163 3 2 67 14 144 25 77 12 174 28 215 35 117 20
136 18 186 -15z m949 -72 c127 -34 232 -64 234 -65 5 -4 -16 -113 -22 -119 -2
-2 -61 14 -133 36 -71 22 -158 46 -194 53 -63 13 -65 15 -97 68 -31 51 -42 89
-25 89 4 0 111 -28 237 -62z m-337 -31 c-12 -23 -14 -21 -22 28 l-7 40 20 -25
c15 -18 17 -29 9 -43z m-170 -8 l2 -34 -29 35 c-32 38 -32 53 2 41 16 -6 23
-18 25 -42z m132 27 c0 -46 -10 -56 -53 -56 l-41 0 39 40 c45 46 55 49 55 16z
m147 -24 l21 -38 -61 4 c-34 2 -64 6 -66 8 -2 2 3 12 12 22 10 10 17 24 17 30
0 7 12 12 28 12 21 0 32 -9 49 -38z m1483 23 c0 -8 -7 -15 -15 -15 -8 0 -15 7
-15 15 0 8 7 15 15 15 8 0 15 -7 15 -15z m-2066 -11 c8 -21 9 -20 -44 -29
l-45 -7 24 26 c28 30 56 34 65 10z m45 -58 c15 -18 8 -20 -134 -41 -245 -36
-443 -66 -494 -75 -30 -5 -55 -9 -56 -7 -2 1 -5 11 -9 23 -6 19 -1 22 46 28
29 4 170 24 313 45 298 45 318 46 334 27z m241 -11 c0 -9 -6 -12 -16 -8 -15 5
-15 4 1 -20 9 -14 26 -27 38 -29 19 -3 16 -7 -20 -31 -64 -41 -106 -35 -137
20 -5 8 15 27 55 53 61 39 79 43 79 15z m384 -16 c50 -12 156 -41 236 -66 298
-91 363 -105 517 -110 126 -5 150 -3 215 17 87 26 183 75 257 131 65 49 82 42
24 -11 -61 -54 -167 -116 -253 -147 -68 -24 -89 -27 -215 -27 -159 -1 -183 4
-480 94 -323 99 -351 104 -517 105 -82 0 -148 3 -148 7 0 35 224 39 364 7z
m-554 -19 c8 -5 12 -10 10 -12 -3 -2 -20 -16 -38 -33 l-34 -30 7 30 c11 49 14
55 27 55 7 0 20 -4 28 -10z m-134 -17 c-2 -10 -7 -34 -11 -53 -3 -19 -11 -57
-17 -83 l-10 -48 -29 27 c-15 15 -51 34 -78 44 l-51 17 63 51 c34 27 76 52 92
55 17 2 34 5 38 6 5 0 6 -7 3 -16z m60 -30 c-6 -42 -51 -121 -63 -109 -4 4 11
95 23 139 3 9 15 17 26 17 19 0 20 -4 14 -47z m588 20 c15 -8 6 -12 -44 -23
-51 -11 -63 -11 -70 0 -6 10 -11 8 -19 -8 -6 -11 -28 -26 -48 -33 -53 -17
-208 -95 -352 -177 -143 -83 -223 -112 -302 -112 -152 0 -237 52 -222 133 7
35 13 34 38 -3 58 -87 225 -93 299 -11 11 12 24 21 31 21 6 0 28 24 48 53 20
28 59 74 86 101 l50 49 29 -31 c40 -42 82 -43 144 -2 25 17 52 38 59 47 12 13
32 15 134 11 67 -3 129 -9 139 -15z m-769 -1 c-65 -56 -109 -84 -142 -88 l-38
-5 50 45 c35 31 61 46 85 49 19 2 39 4 45 5 6 1 6 -1 0 -6z m-137 -21 c-4 -11
-262 -221 -271 -221 -9 0 -74 130 -79 155 -3 18 12 22 162 46 200 32 192 31
188 20z m1114 -31 c73 -23 139 -43 145 -45 17 -6 5 -35 -14 -35 -12 0 -257 63
-338 87 -16 5 -13 8 15 18 50 18 46 19 192 -25z m-262 -15 c11 -13 7 -15 -23
-15 -20 0 -38 4 -41 9 -15 24 44 30 64 6z m155 -25 c61 -17 138 -37 173 -46
34 -9 62 -22 62 -28 0 -25 -132 -206 -150 -206 -5 0 -56 70 -114 155 -57 85
-99 155 -92 155 6 0 61 -14 121 -30z m-242 5 c1 -6 -18 -11 -43 -12 l-45 -2
35 14 c38 15 51 15 53 0z m-646 -37 c35 -15 73 -48 73 -63 0 -17 -51 -62 -83
-74 -71 -27 -175 -1 -210 53 -22 32 -21 49 1 69 40 36 152 44 219 15z m739 -2
c15 -59 5 -70 -76 -83 -41 -7 -84 -17 -94 -24 -11 -6 -56 -13 -100 -16 -45 -2
-94 -5 -111 -6 -21 -1 -30 3 -33 15 -2 11 16 27 60 52 85 47 100 52 92 32 -10
-25 4 -64 26 -71 25 -8 56 9 63 34 6 24 -18 61 -39 61 -8 0 -13 4 -10 9 3 5
23 7 44 4 20 -2 55 0 77 5 71 18 94 15 101 -12z m195 -289 c-11 -12 -22 -19
-24 -16 -2 2 -36 52 -76 111 -66 99 -71 111 -71 160 l0 53 96 -144 96 -144
-21 -20z m-387 247 c7 -19 -10 -44 -30 -44 -16 0 -33 30 -27 48 7 18 50 15 57
-4z m-861 -101 c-33 -27 -49 -29 -57 -7 -4 10 3 24 21 38 60 47 58 47 61 18 3
-19 -4 -32 -25 -49z m1132 -60 l78 -117 -39 -33 c-39 -32 -91 -60 -99 -51 -26
26 -183 274 -177 280 7 7 41 15 153 37 3 0 41 -52 84 -116z m-507 66 c12 -18
19 -20 67 -14 l55 7 0 -185 0 -184 -41 -6 c-67 -9 -289 20 -289 38 0 13 52
263 58 278 6 14 112 84 132 86 3 1 11 -8 18 -20z m192 -184 c0 -106 -4 -185
-9 -185 -5 0 -16 -3 -25 -6 -14 -5 -16 15 -16 185 l0 191 25 0 25 0 0 -185z
m147 40 c87 -128 93 -140 77 -152 -21 -16 -11 -27 -117 130 -84 123 -95 146
-80 161 14 13 28 -3 120 -139z m-909 96 c29 -30 113 -61 164 -61 15 0 28 -3
28 -7 0 -15 -82 -103 -96 -103 -7 0 -51 36 -96 79 -81 79 -82 80 -63 100 24
27 28 27 63 -8z m392 -30 c0 -13 -40 -221 -46 -243 -6 -19 -29 -24 -39 -8 -10
17 36 234 53 248 19 14 32 16 32 3z m479 -123 c39 -59 71 -110 71 -112 0 -6
-127 -46 -146 -46 -11 0 -14 27 -14 142 0 81 4 138 9 133 4 -6 40 -58 80 -117z
m-640 20 c-67 -78 -79 -87 -97 -66 -16 20 88 135 126 140 15 2 29 3 31 1 1 -1
-25 -35 -60 -75z m80 17 c-21 -113 -31 -155 -34 -155 -13 0 -95 45 -93 51 4
11 132 159 134 156 2 -1 -2 -25 -7 -52z"/>
<path d="M5320 7645 c0 -3 9 -22 20 -43 40 -75 61 -88 80 -52 7 14 8 26 0 39
-16 30 -100 77 -100 56z m74 -54 c10 -11 15 -25 11 -32 -6 -8 -13 -5 -26 12
-31 40 -18 56 15 20z"/>
<path d="M5291 7530 c-24 -11 -56 -20 -73 -20 -37 0 -78 -42 -78 -81 0 -16
-12 -51 -27 -78 -16 -27 -25 -52 -21 -56 3 -3 26 4 50 16 23 12 63 23 87 24
52 2 91 38 91 85 0 15 9 49 20 75 11 26 20 49 20 51 0 9 -27 3 -69 -16z m32
-31 c-4 -12 -11 -18 -20 -15 -8 3 -17 6 -19 6 -2 0 -4 4 -4 9 0 8 15 15 42 20
3 0 4 -8 1 -20z m-40 -31 c37 -44 2 -118 -56 -118 -29 0 -67 39 -67 67 0 73
76 105 123 51z m-116 -114 c2 -6 -8 -16 -21 -22 -24 -11 -25 -10 -14 14 11 24
28 28 35 8z"/>
<path d="M5202 7464 c-24 -17 -29 -53 -10 -72 19 -19 66 -15 78 7 14 28 13 38
-10 61 -24 24 -29 24 -58 4z m52 -27 c8 -12 7 -21 -5 -32 -21 -21 -49 -9 -49
20 0 36 34 44 54 12z"/>
<path d="M5548 7540 c-10 -6 -18 -22 -18 -35 0 -23 4 -25 44 -25 45 0 106 17
106 29 0 22 -106 47 -132 31z m69 -16 c13 -4 20 -10 17 -15 -7 -11 -84 -12
-84 -1 0 21 25 27 67 16z"/>
<path d="M5515 7443 c-10 -14 -37 -45 -61 -69 -51 -49 -56 -81 -24 -141 11
-21 20 -49 20 -63 0 -25 16 -59 23 -50 2 3 14 21 27 40 13 19 39 49 57 66 37
35 45 86 19 127 -8 12 -17 43 -21 70 -7 54 -15 58 -40 20z m23 -48 c-2 -10 -7
-12 -17 -5 -13 7 -13 11 -1 25 15 18 24 8 18 -20z m12 -45 c33 -33 30 -75 -6
-107 -32 -30 -59 -29 -89 2 -48 47 -20 125 45 125 17 0 39 -9 50 -20z m-50
-148 c0 -13 -29 -48 -30 -35 0 6 -3 18 -6 27 -4 12 0 16 15 16 12 0 21 -4 21
-8z"/>
<path d="M5471 7343 c-23 -16 -28 -52 -9 -71 21 -21 67 -15 79 12 22 47 -28
89 -70 59z m50 -19 c9 -11 10 -20 3 -32 -15 -23 -29 -25 -48 -7 -12 12 -13 21
-6 36 13 23 33 25 51 3z"/>
<path d="M5462 7068 c-35 -38 -38 -73 -8 -102 14 -15 37 -26 51 -26 36 0 75
42 75 80 0 63 -75 93 -118 48z m86 -10 c20 -20 14 -65 -10 -82 -32 -23 -55
-20 -73 8 -25 37 4 85 51 86 11 0 25 -5 32 -12z"/>
<path d="M5172 7228 c-36 -36 7 -91 54 -69 42 19 26 81 -21 81 -12 0 -26 -5
-33 -12z m58 -27 c0 -20 -25 -35 -41 -25 -5 3 -9 14 -9 25 0 14 7 19 25 19 18
0 25 -5 25 -19z"/>
<path d="M5047 7073 c-4 -3 -7 -40 -7 -80 0 -65 3 -77 25 -98 13 -14 35 -25
49 -25 38 0 129 37 177 72 l44 32 -80 11 c-85 13 -157 43 -177 75 -14 21 -21
24 -31 13z m120 -89 c26 -8 61 -14 80 -14 18 0 33 -4 33 -8 0 -13 -102 -62
-144 -69 -56 -9 -76 15 -76 89 l0 59 31 -22 c17 -12 51 -28 76 -35z"/>
<path d="M5320 5528 c-138 -38 -156 -230 -26 -289 53 -24 80 -24 132 1 97 47
117 168 42 247 -17 17 -42 34 -57 38 -14 3 -33 8 -41 9 -8 2 -31 0 -50 -6z
m111 -34 c39 -20 74 -93 65 -137 -23 -113 -167 -153 -240 -67 -52 63 -38 161
29 201 37 23 105 24 146 3z"/>
<path d="M5430 5032 c-40 -20 -77 -70 -86 -118 -5 -25 0 -46 17 -81 62 -126
215 -126 277 -1 18 35 22 55 16 82 -14 78 -80 136 -154 136 -19 0 -51 -8 -70
-18z m137 -22 c45 -27 66 -64 66 -115 0 -104 -113 -169 -200 -115 -45 27 -66
64 -66 115 0 74 60 135 133 135 19 0 49 -9 67 -20z"/>
<path d="M5051 5006 c-56 -31 -66 -99 -22 -148 39 -44 93 -44 133 1 43 48 32
118 -23 147 -34 17 -57 17 -88 0z m78 -21 c70 -36 44 -135 -35 -135 -81 0
-101 99 -29 138 26 15 31 15 64 -3z"/>
<path d="M5068 4933 c-32 -8 -20 -26 13 -19 17 3 38 6 45 6 8 0 14 5 14 10 0
10 -40 12 -72 3z"/>
<path d="M4786 4907 c-104 -59 -99 -220 8 -271 75 -35 153 -11 204 64 19 28
23 44 19 83 -11 118 -130 182 -231 124z m143 -15 c64 -34 87 -110 54 -179 -59
-126 -253 -78 -253 62 0 103 107 166 199 117z"/>
<path d="M5172 4805 c-46 -20 -68 -72 -49 -117 19 -46 43 -63 88 -63 102 0
129 141 35 180 -41 18 -33 18 -74 0z m93 -35 c42 -46 7 -123 -54 -123 -44 0
-71 28 -71 74 0 28 6 42 22 53 32 22 81 20 103 -4z"/>
<path d="M5180 4720 c-8 -5 -12 -11 -9 -14 8 -8 79 6 79 15 0 12 -51 11 -70
-1z"/>
<path d="M2496 5469 c-93 -9 -119 -20 -99 -40 29 -29 207 -18 261 17 53 35 16
40 -162 23z m109 -21 c-23 -14 -194 -25 -182 -12 9 9 90 20 162 22 35 1 37 0
20 -10z"/>
<path d="M5100 5140 c-17 -11 -9 -13 35 -10 17 1 34 6 40 11 12 12 -56 12 -75
-1z"/>
<path d="M4397 3934 c-37 -31 -65 -60 -62 -64 8 -13 155 -64 162 -56 8 8 -15
158 -26 169 -4 4 -38 -17 -74 -49z m78 -57 l7 -46 -62 22 -61 22 48 42 c54 47
55 46 68 -40z"/>
<path d="M4280 3741 c-47 -43 -61 -61 -50 -65 8 -3 46 -17 84 -31 38 -14 71
-23 74 -21 9 10 -20 176 -32 176 -6 0 -41 -27 -76 -59z m80 -27 c7 -30 10 -58
7 -60 -3 -4 -37 6 -105 31 -9 3 3 19 33 45 25 22 48 40 50 40 2 0 9 -25 15
-56z"/>
<path d="M4480 3671 l-65 -59 30 -12 c76 -29 139 -49 143 -45 5 5 -16 153 -24
166 -9 15 -17 10 -84 -50z m85 -50 c7 -43 7 -44 -17 -38 -13 4 -41 13 -61 22
l-38 16 48 40 c52 46 53 45 68 -40z"/>
<path d="M5169 3915 c-7 -47 -10 -88 -6 -91 7 -7 167 57 167 67 0 8 -130 109
-140 109 -4 0 -14 -38 -21 -85z m83 18 l49 -38 -38 -16 c-21 -9 -49 -20 -62
-24 -23 -7 -24 -6 -18 31 4 22 7 49 7 62 0 12 3 22 6 22 4 0 29 -17 56 -37z"/>
<path d="M5315 3838 c-9 -26 -21 -169 -15 -173 11 -7 160 58 159 70 -1 18
-139 117 -144 103z m73 -65 l46 -37 -50 -23 c-70 -31 -72 -30 -63 25 4 26 8
53 8 60 1 19 10 15 59 -25z"/>
<path d="M5117 3745 c-8 -20 -21 -165 -15 -165 11 0 153 61 161 69 7 7 -117
111 -133 111 -4 0 -10 -7 -13 -15z m69 -47 c24 -17 44 -35 44 -38 0 -9 -100
-53 -106 -47 -6 5 7 117 13 117 3 0 25 -14 49 -32z"/>
<path d="M5386 3593 c-9 -48 -18 -153 -13 -153 10 0 152 61 160 69 9 9 -113
111 -131 111 -6 0 -13 -12 -16 -27z m88 -47 l39 -30 -39 -17 c-87 -37 -86 -37
-79 18 11 85 9 84 79 29z"/>
<path d="M5196 3533 c-3 -10 -8 -51 -12 -92 -7 -70 -6 -74 12 -67 99 36 154
61 152 67 -4 11 -129 109 -139 109 -4 0 -10 -8 -13 -17z m75 -50 l50 -38 -48
-22 c-70 -32 -77 -30 -69 15 3 20 6 47 6 60 0 12 2 22 5 22 3 0 28 -17 56 -37z"/>
<path d="M5000 3461 c0 -5 -5 -44 -11 -86 -6 -42 -8 -79 -5 -82 7 -7 166 58
166 68 0 10 -127 109 -140 109 -5 0 -10 -4 -10 -9z m116 -92 c4 -6 -90 -49
-108 -49 -4 0 -6 10 -4 23 3 12 8 39 11 60 l6 38 45 -33 c25 -18 47 -35 50
-39z"/>
<path d="M5282 3253 c-6 -48 -10 -88 -8 -90 8 -8 166 60 166 71 -1 12 -121
106 -137 106 -5 0 -15 -39 -21 -87z m86 20 l45 -37 -53 -23 c-29 -13 -54 -23
-56 -23 -6 0 -4 73 2 98 4 12 9 22 12 22 3 0 25 -17 50 -37z"/>
<path d="M5097 3238 c-9 -36 -20 -158 -15 -158 11 0 153 61 161 69 7 7 -117
111 -133 111 -4 0 -10 -10 -13 -22z m75 -44 c27 -20 48 -38 46 -39 -8 -9 -111
-45 -115 -41 -6 6 8 116 14 116 3 0 28 -16 55 -36z"/>
<path d="M4909 3178 c-6 -19 -26 -174 -24 -177 7 -6 165 61 165 70 0 14 -138
119 -141 107z m71 -67 l44 -39 -39 -16 c-81 -34 -83 -34 -74 21 4 26 8 54 8
61 1 19 13 14 61 -27z"/>
<path d="M4176 3305 c-56 -63 -57 -65 -34 -74 37 -15 148 -34 155 -27 9 9 -40
159 -53 163 -6 2 -37 -26 -68 -62z m88 -34 l16 -53 -23 5 c-12 3 -39 9 -59 12
-21 4 -38 10 -38 13 0 14 74 92 80 85 5 -4 15 -32 24 -62z"/>
<path d="M4386 3264 c-32 -36 -56 -68 -53 -70 8 -8 171 -44 176 -39 6 7 -49
175 -58 175 -4 0 -34 -29 -65 -66z m79 -20 c9 -31 14 -58 11 -61 -2 -3 -29 1
-60 8 l-55 12 40 49 c23 26 42 48 44 48 2 0 11 -25 20 -56z"/>
<path d="M4297 3045 c-58 -64 -58 -65 -34 -74 40 -16 147 -34 154 -27 9 8 -40
159 -52 163 -6 2 -36 -26 -68 -62z m86 -33 c15 -54 15 -54 -6 -48 -12 3 -39 9
-59 12 -21 4 -38 10 -38 13 0 15 73 92 80 84 4 -4 15 -32 23 -61z"/>
<path d="M5087 2728 c-13 -52 -19 -158 -10 -158 11 0 154 57 161 64 4 4 -132
116 -141 116 -2 0 -7 -10 -10 -22z m76 -51 c20 -16 37 -32 37 -35 0 -4 -25
-17 -56 -29 l-57 -22 7 46 c3 25 6 54 6 65 0 22 6 19 63 -25z"/>
<path d="M5160 2541 c0 -5 -5 -44 -11 -86 -6 -42 -8 -79 -5 -82 7 -7 166 58
166 68 0 10 -127 109 -140 109 -5 0 -10 -4 -10 -9z m116 -92 c4 -6 -90 -49
-108 -49 -4 0 -6 10 -4 23 3 12 8 39 11 60 l6 38 45 -33 c25 -18 47 -35 50
-39z"/>
<path d="M5247 2318 c-9 -37 -20 -158 -14 -158 11 0 150 59 159 68 5 5 -18 29
-53 56 -77 60 -85 63 -92 34z m75 -45 l49 -38 -38 -16 c-21 -9 -49 -20 -62
-24 -23 -7 -24 -6 -17 25 3 18 6 45 6 61 0 16 3 29 6 29 4 0 29 -17 56 -37z"/>
<path d="M5336 2053 c-4 -38 -9 -78 -13 -90 -3 -16 -1 -23 9 -23 24 0 151 55
155 67 4 10 -122 113 -137 113 -4 0 -10 -30 -14 -67z m120 -35 c5 -8 -78 -48
-100 -48 -10 0 -11 12 -5 48 4 26 8 53 8 60 1 12 85 -40 97 -60z"/>
<path d="M5426 1873 c-9 -49 -18 -153 -13 -153 10 0 152 62 160 70 10 8 -110
109 -130 110 -6 0 -14 -12 -17 -27z m80 -40 l45 -36 -57 -24 c-32 -12 -59 -21
-61 -19 -8 7 10 116 19 116 5 0 30 -17 54 -37z"/>
<path d="M4775 1820 c10 -11 20 -18 23 -15 7 6 -18 35 -31 35 -5 0 -2 -9 8
-20z"/>
<path d="M4740 1802 c0 -5 7 -15 15 -22 8 -7 15 -8 15 -2 0 5 -7 15 -15 22 -8
7 -15 8 -15 2z"/>
<path d="M4710 1772 c0 -5 7 -15 15 -22 8 -7 15 -8 15 -2 0 5 -7 15 -15 22 -8
7 -15 8 -15 2z"/>
<path d="M5282 930 c14 -22 24 -19 15 5 -4 8 -11 15 -17 15 -6 0 -6 -7 2 -20z"/>
<path d="M5252 900 c7 -10 14 -18 15 -16 6 6 -9 36 -18 36 -5 0 -4 -9 3 -20z"/>
<path d="M3003 8614 c-13 -3 -23 -7 -23 -10 0 -2 20 -48 45 -101 25 -53 45
-100 45 -104 0 -5 -12 -12 -27 -15 -81 -20 -279 -115 -408 -196 l-60 -38 -7
65 c-4 44 -17 83 -40 126 -34 65 -119 159 -143 159 -19 0 -29 -112 -15 -175
14 -63 51 -126 91 -158 l31 -24 -73 -6 c-89 -8 -184 -51 -229 -105 -28 -35
-51 -90 -65 -158 -6 -30 -4 -32 29 -38 50 -9 163 11 222 40 62 29 123 93 159
164 l26 51 111 -106 c213 -204 380 -289 593 -302 248 -15 483 112 690 372 27
33 58 62 69 65 43 11 129 222 138 340 l3 35 -60 7 c-33 4 -159 7 -280 7 l-220
-1 -65 30 c-115 54 -208 74 -370 77 -80 2 -155 1 -167 -1z m389 -42 c42 -12
100 -31 129 -43 l52 -23 -129 -23 c-146 -25 -191 -35 -286 -61 l-66 -19 -41
90 c-22 49 -38 94 -35 99 12 18 289 3 376 -20z m687 -87 c7 -7 -50 -112 -80
-147 -18 -21 -29 -41 -25 -45 13 -13 96 39 117 74 12 19 27 53 35 76 l13 42 0
-41 c1 -51 -41 -180 -81 -251 l-29 -53 -57 0 c-71 0 -117 23 -154 76 -33 46
-63 137 -73 216 l-7 57 58 3 c65 3 277 -2 283 -7z m-377 -92 c3 -82 8 -108 31
-158 35 -75 87 -130 152 -161 l49 -23 -102 -101 c-56 -56 -106 -99 -111 -96
-4 3 -11 29 -15 58 -10 75 -58 256 -111 412 -25 74 -45 139 -45 145 0 9 24 13
122 19 l26 2 4 -97z m398 38 c-10 -39 -53 -101 -71 -101 -4 0 4 19 20 43 15
23 33 57 41 75 17 44 24 34 10 -17z m-1647 -13 c64 -76 89 -131 95 -210 4 -59
2 -68 -12 -68 -10 0 -41 24 -69 53 -38 37 -58 67 -70 106 -24 74 -22 171 3
171 5 0 28 -24 53 -52z m1099 -30 l27 -78 -35 -26 c-20 -16 -52 -28 -79 -32
l-45 -5 0 41 c0 52 -14 90 -47 124 -15 15 -24 30 -22 32 6 7 129 24 154 22 15
-1 26 -19 47 -78z m-174 -14 c48 -82 10 -205 -74 -240 -112 -47 -231 20 -242
136 -8 83 6 102 96 127 170 49 178 48 220 -23z m403 -134 c36 -68 70 -97 141
-120 47 -15 48 -17 31 -32 -17 -16 -21 -16 -59 1 -87 39 -157 143 -172 257
-12 86 -1 102 14 22 7 -37 27 -95 45 -128z m-736 58 c0 -35 4 -73 8 -85 7 -20
5 -23 -18 -23 -103 0 -194 -124 -166 -229 25 -96 90 -146 188 -146 52 0 68 4
104 30 71 51 101 141 75 228 -7 25 -6 27 18 27 46 0 106 38 134 85 24 39 32
44 62 45 39 0 113 31 125 51 6 9 10 8 16 -7 16 -41 11 -54 -24 -54 -70 0 -167
-93 -167 -159 0 -13 -11 -23 -34 -31 -46 -15 -102 -79 -116 -131 -14 -52 0
-119 36 -166 l25 -33 -49 0 c-55 0 -201 39 -265 71 -23 12 -67 37 -98 57 -52
33 -57 40 -62 78 -11 101 -89 175 -188 179 -45 1 -68 14 -69 36 0 4 18 18 40
33 40 26 41 26 86 11 53 -18 66 -18 119 -4 51 14 111 76 125 129 8 31 18 44
43 54 50 22 52 20 52 -46z m-110 0 c-11 -35 -53 -86 -83 -102 -55 -28 -146
-29 -154 -2 -3 9 216 126 235 126 5 0 5 -10 2 -22z m685 -117 c0 -10 7 -38 15
-62 9 -24 22 -73 29 -109 8 -36 17 -77 21 -92 6 -23 2 -29 -24 -42 -69 -36
-169 -8 -216 61 -19 29 -25 50 -25 91 0 102 64 170 163 171 30 1 37 -3 37 -18z
m-522 -31 c20 -16 54 -36 74 -45 30 -12 39 -22 48 -55 38 -142 -110 -266 -239
-200 -160 81 -110 306 72 329 5 1 25 -12 45 -29z m-568 -39 c21 -14 -21 -98
-79 -155 -64 -63 -140 -96 -229 -98 -39 -1 -73 0 -76 3 -10 9 22 103 47 140
31 47 96 89 159 104 63 16 157 18 178 6z m200 -66 c31 -16 52 -40 74 -82 17
-34 21 -73 8 -73 -14 0 -182 162 -177 171 7 10 60 1 95 -16z m674 -57 c16 -78
98 -148 174 -148 37 0 37 0 18 -44 -12 -30 -23 -37 -93 -59 -125 -42 -145 -43
-181 -13 -39 34 -67 104 -59 152 8 49 45 101 87 124 46 25 46 25 54 -12z m296
-140 c0 -11 -61 -58 -75 -58 -3 0 -5 11 -5 23 0 15 9 28 23 35 30 15 57 15 57
0z"/>
<path d="M3850 8427 c-20 -10 -25 -20 -25 -52 0 -32 5 -42 27 -54 25 -14 29
-14 55 5 39 29 41 66 7 93 -31 25 -31 25 -64 8z m54 -26 c32 -35 -3 -83 -44
-61 -26 14 -31 35 -14 59 19 26 36 27 58 2z"/>
<path d="M3681 8247 c-30 -79 9 -153 94 -177 25 -7 49 -10 52 -6 4 4 -14 26
-40 49 -34 29 -55 60 -72 102 -24 59 -24 59 -34 32z m73 -136 l21 -24 -33 17
c-32 16 -52 49 -52 84 0 10 9 3 21 -18 12 -19 31 -46 43 -59z"/>
<path d="M2886 7329 c-12 -60 -6 -188 10 -236 9 -26 30 -67 46 -90 18 -27 24
-43 16 -43 -96 -3 -321 -50 -456 -97 -41 -13 -75 -23 -76 -21 -1 1 -12 48 -26
103 -13 55 -27 104 -31 109 -12 14 -128 -72 -215 -158 -81 -81 -158 -188 -195
-270 -15 -35 -40 -59 -126 -123 -107 -79 -313 -258 -313 -272 0 -14 85 -89
141 -124 79 -50 175 -88 202 -81 13 3 73 -4 133 -16 197 -38 409 -25 549 33
192 80 334 248 406 482 27 89 59 272 59 341 0 30 3 54 7 54 3 0 34 -11 67 -24
34 -13 81 -27 106 -31 83 -12 206 31 285 99 47 41 44 52 -28 102 -107 74 -255
61 -365 -31 -16 -14 -31 -25 -33 -25 -2 0 -4 37 -4 83 0 65 -5 91 -23 128 -20
41 -106 139 -123 139 -3 0 -9 -14 -13 -31z m120 -117 c10 -20 20 -63 22 -95 5
-63 -14 -150 -32 -144 -18 5 -75 95 -86 135 -11 43 -14 205 -2 216 9 10 75
-64 98 -112z m400 -145 c27 -14 57 -34 67 -45 17 -19 17 -20 -22 -51 -71 -56
-146 -84 -226 -84 -72 0 -172 30 -194 57 -21 25 103 115 199 147 41 14 124 2
176 -24z m-1040 -64 c4 -16 15 -59 25 -97 18 -71 17 -86 -4 -86 -18 0 -262
-122 -337 -168 -36 -22 -66 -36 -68 -32 -7 18 88 157 158 233 66 71 192 176
212 177 4 0 11 -12 14 -27z m624 -87 c0 -16 -11 -32 -30 -46 -85 -61 -97 -184
-27 -282 35 -50 -131 -359 -227 -421 l-26 -17 0 39 c0 51 -15 89 -48 124 -56
60 -145 83 -207 55 -21 -10 -28 -8 -48 10 -52 49 -145 57 -212 17 l-42 -24
-12 25 c-15 33 -15 34 13 34 32 0 106 27 127 46 15 14 22 14 65 -1 55 -18 101
-14 150 15 l32 18 18 -39 c29 -66 107 -119 174 -119 37 0 93 24 126 52 95 83
84 227 -24 302 -54 38 -126 42 -188 10 l-41 -22 -12 35 c-7 18 -28 50 -47 69
-23 23 -31 36 -22 39 7 2 26 9 41 15 23 8 34 6 67 -16 79 -52 184 -41 245 27
19 22 35 44 35 49 0 15 39 29 83 29 33 1 37 -2 37 -23z m-147 -17 c-25 -43
-90 -79 -141 -79 -41 0 -112 26 -112 41 0 11 170 54 263 68 5 0 0 -13 -10 -30z
m134 -121 c-3 -46 -10 -105 -17 -131 -11 -43 -14 -46 -25 -30 -27 39 -39 101
-26 143 10 35 55 100 68 100 3 0 3 -37 0 -82z m-476 -4 c66 -75 53 -206 -24
-257 -100 -65 -237 -18 -267 93 -12 44 -5 106 13 114 7 2 57 25 111 50 91 41
101 44 125 31 14 -7 33 -21 42 -31z m231 -64 c77 -22 128 -87 128 -165 0 -56
-17 -92 -64 -132 -86 -76 -230 -36 -267 74 -10 31 -9 40 9 72 11 20 23 53 27
73 8 43 20 55 72 74 47 16 49 16 95 4z m-513 -161 l31 -50 -32 -19 c-41 -25
-104 -35 -123 -20 -22 18 -60 149 -47 162 6 6 37 26 69 44 l58 33 7 -50 c3
-30 19 -71 37 -100z m-155 -82 c57 -153 134 -329 177 -404 l29 -53 -77 0 c-75
0 -200 14 -209 23 -3 3 5 22 18 43 20 33 23 53 23 134 -1 86 -4 100 -32 155
-17 33 -49 81 -72 106 l-41 47 63 41 c34 22 64 41 67 41 3 0 27 -60 54 -133z
m-150 -80 c43 -85 57 -177 37 -240 -12 -35 -83 -107 -106 -107 -36 0 -210 100
-267 153 -43 40 -33 52 12 16 33 -26 52 -34 98 -37 58 -4 123 12 106 27 -5 4
-36 12 -69 18 -33 6 -77 21 -98 33 l-38 23 57 51 c32 28 89 77 128 108 82 68
81 68 140 -45z m57 -23 c51 -103 51 -236 0 -303 -13 -17 -23 -22 -40 -16 -21
6 -21 7 9 41 37 43 43 66 38 157 -3 59 -11 86 -42 147 -29 57 -33 70 -17 56
12 -11 35 -48 52 -82z m374 13 c46 -26 85 -92 85 -146 0 -55 -36 -118 -84
-146 -72 -42 -76 -40 -141 97 -70 149 -74 176 -25 200 49 25 116 23 165 -5z
m226 -40 c54 -29 89 -85 89 -144 0 -23 -3 -49 -6 -58 -7 -18 -84 -59 -163 -86
-67 -24 -73 -24 -102 0 l-24 19 27 29 c54 56 74 150 43 203 -19 34 -18 48 3
53 43 11 92 5 133 -16z m-937 -112 c27 -14 57 -25 67 -25 10 0 21 -4 24 -10
19 -31 -106 10 -134 43 -18 22 -15 22 43 -8z m732 -184 l24 -19 -46 -7 c-57
-8 -80 12 -36 31 15 7 29 13 30 13 2 1 15 -7 28 -18z"/>
<path d="M2022 6343 c40 -78 47 -141 22 -223 l-7 -25 27 25 c38 34 56 72 56
116 0 29 -8 44 -39 75 -34 34 -70 53 -59 32z m78 -114 c0 -19 -6 -43 -12 -52
-11 -14 -13 -5 -14 53 -1 60 1 67 12 52 7 -9 14 -33 14 -53z"/>
<path d="M1782 6364 c-15 -10 -22 -25 -22 -48 0 -40 15 -56 55 -56 59 0 85 60
43 100 -26 24 -46 25 -76 4z m63 -17 c21 -16 15 -61 -11 -71 -39 -15 -73 41
-42 72 16 16 30 15 53 -1z"/>
<path d="M7278 5087 c-42 -19 -69 -62 -109 -176 -46 -132 -131 -371 -154 -431
-9 -25 -18 -71 -18 -103 l-2 -58 -30 7 c-16 4 -63 7 -103 7 -78 -1 -109 -14
-138 -58 -21 -32 -29 -161 -16 -248 l11 -69 -40 -37 c-31 -30 -39 -45 -39 -72
0 -40 22 -71 66 -92 29 -15 31 -21 37 -81 7 -72 35 -136 69 -160 28 -20 100
-21 136 -2 54 28 61 67 36 204 -6 30 -5 32 25 32 26 0 33 -6 46 -37 15 -35 15
-38 -3 -53 -96 -76 -13 -258 101 -223 26 8 38 7 52 -3 21 -16 93 -18 114 -5 9
6 26 0 50 -16 28 -19 45 -24 76 -20 l40 5 -40 -18 c-60 -26 -80 -54 -80 -110
0 -30 6 -55 16 -66 16 -19 31 -101 48 -259 8 -71 6 -84 -11 -113 -26 -42 -18
-89 21 -130 74 -80 222 -59 334 47 l37 35 16 -22 c44 -63 120 -102 203 -102
46 -1 70 -22 103 -92 32 -67 69 -92 138 -92 135 0 242 161 265 399 6 55 19 97
66 199 65 143 71 180 35 219 -32 35 -84 43 -145 23 -51 -16 -117 -21 -146 -10
-11 5 -2 13 33 29 115 53 165 175 112 274 -10 19 -8 25 14 42 14 11 31 37 37
59 10 33 9 44 -10 83 -22 46 -57 75 -146 122 -65 35 -139 31 -215 -11 -123
-67 -151 -175 -70 -268 l30 -34 -24 -6 c-13 -3 -38 -22 -55 -41 -37 -42 -40
-79 -11 -134 32 -64 78 -94 172 -115 l26 -6 -20 -24 c-20 -22 -23 -22 -66 -10
-25 8 -57 14 -71 14 -50 0 -146 -30 -187 -59 l-42 -29 -48 51 c-43 44 -142
117 -177 130 -8 3 -5 10 8 20 17 13 23 13 47 1 43 -22 102 -18 136 11 48 40
72 112 88 264 8 75 17 142 19 149 2 6 20 12 39 12 54 0 83 16 146 78 86 87
115 153 89 205 -38 74 -130 76 -198 3 l-25 -26 -20 42 c-37 77 -125 98 -191
46 -32 -25 -64 -91 -65 -130 0 -34 0 -34 -44 -5 l-34 24 34 27 c27 21 34 34
34 62 0 19 -7 48 -15 64 -16 30 -25 153 -13 166 4 3 44 15 89 25 46 11 89 25
96 31 11 8 13 -5 13 -72 0 -82 0 -82 39 -121 32 -33 45 -39 79 -39 59 0 88 14
122 61 24 33 30 52 30 91 0 27 -4 58 -10 68 -15 28 6 80 48 118 21 19 38 28
40 22 3 -7 -1 -54 -7 -105 -21 -160 12 -219 120 -222 52 -1 63 -5 87 -31 16
-17 47 -35 71 -42 36 -9 48 -8 79 7 20 10 44 32 54 48 27 47 48 143 48 217 0
37 8 145 17 240 23 235 23 242 -12 278 -50 53 -139 49 -187 -8 -20 -24 -30
-27 -83 -27 -74 0 -111 -21 -132 -74 l-15 -38 -55 5 c-33 3 -64 0 -78 -8 -22
-12 -28 -10 -60 19 -27 24 -45 31 -76 31 -48 0 -90 -20 -112 -54 l-16 -24 -46
17 c-30 11 -54 30 -70 53 -13 19 -31 38 -40 42 -32 12 -107 6 -136 -11 -29
-17 -59 -67 -59 -99 0 -34 -9 -8 -25 71 -28 140 -53 204 -89 226 -35 22 -69
24 -108 6z m114 -35 c21 -20 54 -127 68 -222 22 -139 28 -148 49 -72 23 80 37
99 86 118 43 16 49 16 80 1 19 -9 41 -29 49 -45 18 -35 137 -85 145 -61 2 8
18 26 34 42 44 41 98 38 143 -7 l35 -35 43 20 c43 19 99 18 112 -2 13 -21 32
-6 38 29 3 21 16 48 30 61 27 26 89 37 125 23 21 -8 30 -3 66 35 46 48 82 55
135 28 30 -16 56 -74 46 -102 -7 -17 -19 -157 -35 -403 -13 -186 -43 -260
-111 -275 -39 -9 -97 18 -117 54 -16 28 -20 29 -68 24 -64 -7 -112 15 -121 55
-3 15 -7 33 -10 40 -4 14 14 207 22 235 8 27 -15 20 -71 -22 -43 -33 -54 -48
-64 -86 -8 -34 -9 -51 0 -67 18 -33 6 -115 -22 -145 -56 -60 -120 -62 -170 -5
l-32 36 7 88 c3 52 2 88 -4 88 -5 0 -24 -9 -43 -20 -19 -11 -70 -27 -113 -35
-43 -9 -80 -18 -83 -21 -12 -11 -3 -142 13 -178 31 -74 17 -121 -40 -132 -47
-9 -108 10 -133 42 -11 14 -23 49 -26 80 -7 49 -10 54 -32 54 -41 0 -80 48
-88 111 -11 90 -11 90 -58 87 -39 -3 -42 -5 -63 -58 -31 -79 -62 -110 -111
-110 -47 0 -79 21 -87 58 -8 33 6 83 79 287 32 88 70 196 85 240 37 110 65
162 98 180 33 19 89 13 114 -13z m-78 -660 c8 -72 35 -117 79 -133 30 -10 36
-18 41 -52 9 -56 32 -94 67 -113 l31 -16 -32 -19 c-17 -11 -42 -32 -55 -47
l-23 -27 -20 45 c-25 58 -38 68 -106 82 -75 16 -109 -1 -182 -90 l-56 -69 -46
10 c-56 11 -62 18 -62 79 l0 47 37 -16 c135 -56 266 90 157 176 -15 12 -25 22
-23 24 2 1 18 9 34 18 30 17 52 50 79 122 13 31 20 37 44 37 28 0 30 -2 36
-58z m-249 -122 c115 -58 134 -115 56 -167 -39 -27 -84 -29 -134 -8 -20 8 -41
15 -47 15 -11 0 -13 -45 -4 -112 l6 -44 67 -12 c43 -7 67 -8 69 -1 9 23 99
129 124 143 33 20 78 20 124 1 27 -11 40 -27 60 -70 14 -30 29 -55 33 -55 4 0
25 20 47 44 22 25 53 48 68 52 41 10 101 -12 139 -51 19 -19 37 -32 40 -28 4
3 7 27 7 52 0 25 9 63 20 87 37 76 127 95 180 39 19 -21 23 -35 22 -80 -1 -30
0 -55 3 -55 2 0 18 20 36 45 61 84 136 109 184 60 33 -32 32 -70 -3 -126 -34
-53 -125 -137 -159 -145 -13 -4 -39 -4 -58 -1 -40 7 -38 13 -56 -163 -16 -164
-31 -213 -77 -262 -31 -33 -87 -38 -133 -11 -27 16 -29 16 -50 -3 -23 -21 -88
-26 -124 -9 -11 5 -41 9 -67 10 -35 0 -53 6 -72 24 -25 23 -26 23 -61 7 -37
-18 -68 -15 -97 11 -14 12 -23 13 -51 4 -67 -22 -127 28 -127 106 0 43 25 83
59 94 10 4 7 18 -13 57 l-26 52 -50 0 c-56 0 -58 -4 -35 -70 19 -55 19 -120 0
-147 -9 -13 -33 -28 -54 -34 -32 -9 -44 -8 -74 6 -40 19 -61 60 -72 140 -12
96 -16 105 -36 105 -31 0 -69 44 -69 80 0 29 10 42 58 78 22 17 22 19 11 97
-12 86 -6 213 12 246 17 32 47 39 155 36 92 -2 106 -5 169 -37z m1340 -388
c47 -26 80 -52 99 -80 26 -37 29 -46 20 -79 -6 -27 -19 -45 -46 -62 l-37 -24
24 -29 c39 -46 42 -89 11 -152 -47 -96 -167 -150 -283 -126 -85 18 -153 90
-153 163 0 31 40 74 77 82 54 12 54 14 14 54 -77 77 -76 159 1 225 87 75 170
83 273 28z m-749 -547 c35 -17 84 -56 129 -101 l72 -73 23 24 c56 59 197 90
275 61 l45 -18 35 37 c31 34 38 37 72 31 97 -17 116 -17 178 -1 76 19 118 13
140 -18 24 -34 18 -72 -26 -160 -58 -115 -79 -179 -89 -275 -14 -129 -75 -265
-141 -314 -37 -28 -97 -39 -141 -27 -42 11 -73 45 -89 98 -14 49 -59 77 -130
84 -31 3 -74 14 -95 25 -38 19 -84 70 -84 92 0 20 -20 10 -60 -30 -82 -82
-202 -119 -275 -85 -39 19 -75 66 -75 98 0 11 9 32 20 47 13 18 18 38 15 56
-2 16 -12 90 -21 164 -11 89 -23 146 -35 166 -33 55 -17 117 36 141 48 22 153
11 221 -22z"/>
<path d="M7286 5018 c-16 -15 -38 -60 -60 -123 -19 -55 -62 -176 -96 -270 -91
-251 -95 -285 -30 -285 35 0 53 22 80 93 24 63 43 77 106 77 53 0 79 -33 88
-107 8 -74 30 -98 78 -90 l33 5 2 -50 c2 -63 25 -90 80 -92 l38 -1 -3 110 c-5
154 -2 159 95 175 79 12 139 36 162 64 7 9 19 32 26 53 26 74 -19 140 -119
173 -51 17 -64 26 -73 50 -14 38 -49 55 -85 41 -41 -15 -56 -48 -68 -146 -6
-50 -19 -135 -29 -190 l-18 -100 -12 43 c-7 23 -25 134 -41 245 -48 328 -78
392 -154 325z m64 -2 c0 -2 3 -11 6 -20 4 -11 0 -16 -14 -16 -27 0 -62 -46
-62 -82 0 -41 40 -78 84 -78 25 0 36 -5 41 -19 6 -19 25 -175 22 -177 -1 -1
-17 1 -34 3 -28 5 -33 9 -33 33 0 36 -38 160 -49 160 -16 0 -32 -28 -58 -97
-37 -102 -39 -114 -18 -130 26 -18 90 -17 105 3 21 24 72 14 89 -18 13 -23 13
-30 2 -52 -20 -36 -46 -41 -77 -17 -33 26 -109 28 -143 5 -13 -9 -36 -46 -53
-83 -16 -36 -34 -68 -40 -72 -15 -10 -48 1 -48 16 0 16 23 86 83 255 25 69 62
176 84 237 42 118 63 153 95 153 10 0 18 -2 18 -4z m26 -73 c3 -16 10 -44 15
-63 10 -39 -3 -54 -36 -44 -59 18 -74 78 -29 113 35 27 42 26 50 -6z m278
-119 c8 -3 18 -21 22 -39 5 -28 12 -35 38 -40 68 -14 67 -13 50 -41 -14 -20
-22 -23 -49 -18 -32 6 -65 -13 -76 -44 -3 -7 -15 -7 -41 1 -34 11 -38 15 -38
47 0 54 19 108 43 125 24 17 29 18 51 9z m-317 -136 c3 -20 3 -48 -1 -62 -6
-23 -12 -26 -47 -26 -23 0 -42 5 -45 13 -4 11 14 69 53 167 7 19 33 -40 40
-92z m509 -3 c17 -17 24 -34 22 -53 -2 -22 -8 -28 -36 -30 -24 -2 -34 1 -38
15 -3 10 -11 28 -16 40 -8 17 -8 26 2 38 18 22 37 19 66 -10z m-87 -39 c34
-34 -31 -110 -89 -104 -22 3 -25 8 -24 40 1 21 9 49 19 64 14 22 22 25 48 20
18 -4 38 -13 46 -20z m-158 -26 c42 -23 7 -100 -45 -100 -22 0 -23 2 -15 46
13 68 20 75 60 54z m259 -47 c7 -6 -14 -35 -41 -55 -13 -10 -66 -26 -117 -37
-52 -10 -99 -24 -105 -31 -8 -7 -12 -53 -11 -136 2 -123 2 -124 -21 -124 -56
0 -71 53 -55 183 15 120 17 127 43 127 13 0 33 7 46 16 15 11 33 14 52 10 35
-7 86 12 112 42 15 16 26 19 55 15 21 -3 39 -8 42 -10z m-389 -182 c3 -55 0
-61 -30 -61 -32 0 -43 22 -54 100 -4 31 -1 38 27 55 l31 21 12 -45 c7 -25 13
-56 14 -70z"/>
<path d="M8533 4925 c-33 -23 -44 -81 -37 -187 7 -101 -14 -301 -42 -397 -19
-67 -13 -95 25 -111 87 -36 112 32 131 355 7 105 16 216 21 248 8 48 7 63 -6
83 -18 28 -59 32 -92 9z m77 -20 c17 -20 3 -75 -19 -75 -9 0 -22 5 -29 12 -13
13 -16 60 -5 71 11 12 40 8 53 -8z m-57 -80 c12 -8 29 -15 38 -15 15 0 16 -9
12 -62 -8 -109 -7 -108 -47 -89 -29 14 -35 23 -40 60 -8 59 -8 125 1 148 7 16
8 16 11 -4 2 -13 13 -30 25 -38z m9 -192 c33 -29 14 -94 -32 -106 -17 -4 -20
0 -20 28 0 49 11 95 23 95 6 0 19 -7 29 -17z m14 -280 c-4 -9 -12 -10 -30 -4
-13 6 -34 7 -47 4 -19 -5 -21 -3 -16 18 4 13 10 47 13 74 6 47 9 52 43 66 l36
15 3 -80 c2 -44 1 -85 -2 -93z m-32 -19 c19 -7 20 -24 5 -58 -14 -31 -32 -38
-64 -26 -33 12 -32 43 1 69 29 23 34 24 58 15z"/>
<path d="M8350 4863 c-24 -8 -40 -35 -40 -64 0 -31 40 -69 72 -69 26 0 78 53
78 79 0 45 -58 73 -110 54z m84 -35 c13 -22 -20 -71 -51 -76 -44 -7 -73 65
-35 87 25 15 73 9 86 -11z"/>
<path d="M7920 4775 c-23 -25 -23 -26 -9 -93 9 -42 14 -126 14 -224 0 -127 3
-160 15 -172 30 -29 72 -24 105 11 27 30 32 72 15 119 -8 20 -7 41 2 77 10 41
22 58 67 96 142 120 150 135 86 165 -44 21 -45 21 -104 -19 -28 -19 -52 -35
-55 -35 -2 0 -6 13 -9 30 -14 67 -83 92 -127 45z m90 -10 c6 -8 14 -32 17 -55
3 -22 8 -40 12 -40 3 0 20 9 37 19 l31 19 10 -29 c7 -17 19 -29 29 -29 13 0 3
-14 -33 -45 -40 -35 -55 -57 -65 -93 -10 -36 -19 -48 -36 -50 -29 -4 -62 -48
-62 -83 0 -31 30 -69 55 -69 8 0 15 -4 15 -10 0 -14 -54 -12 -68 2 -8 8 -12
47 -12 110 l0 98 30 0 c41 0 80 39 80 80 0 44 -32 72 -78 68 -31 -2 -37 0 -43
22 -12 42 -10 68 7 84 19 20 58 21 74 1z m195 -27 c31 -14 32 -28 1 -57 -43
-40 -93 -3 -61 45 18 27 24 29 60 12z m-185 -119 c17 -30 8 -62 -21 -78 -39
-21 -59 -9 -59 37 0 21 5 43 12 50 19 19 56 14 68 -9z m23 -215 c13 -26 15
-40 7 -55 -21 -38 -80 -12 -80 36 0 25 24 55 44 55 7 0 20 -16 29 -36z"/>
<path d="M8312 4670 c-27 -25 -38 -69 -50 -192 -14 -149 -5 -178 59 -178 48 0
59 18 59 102 1 73 22 181 40 203 18 21 5 60 -25 73 -37 17 -58 15 -83 -8z m83
-14 c19 -13 19 -15 1 -55 -11 -22 -23 -41 -28 -41 -24 0 -48 23 -48 46 0 57
35 80 75 50z m-85 -85 c0 -5 16 -15 35 -22 24 -9 34 -18 31 -29 -15 -48 -20
-81 -20 -135 -1 -60 -1 -60 -33 -63 -51 -5 -58 20 -43 150 7 59 17 108 21 108
5 0 9 -4 9 -9z"/>
<path d="M6828 4273 c-20 -2 -42 -10 -48 -18 -19 -23 -24 -127 -10 -229 14
-105 11 -115 -39 -139 -48 -23 -35 -77 19 -77 25 0 29 -5 38 -47 6 -27 13 -69
16 -96 11 -95 57 -138 111 -103 30 20 32 51 8 142 -23 87 -16 98 70 102 54 2
69 7 77 22 13 24 0 54 -27 64 -10 4 -45 10 -79 13 l-61 6 -7 66 c-8 84 -8 155
0 175 8 22 25 20 80 -9 58 -31 95 -32 129 -2 35 30 26 48 -43 85 -67 35 -159
53 -234 45z m187 -44 c28 -11 61 -28 75 -39 25 -19 25 -19 5 -34 -29 -22 -59
-20 -115 9 -27 14 -56 25 -64 25 -7 0 -16 8 -19 18 -2 9 -8 25 -12 36 -7 17
-4 18 36 11 24 -4 67 -16 94 -26z m-150 -3 c28 -43 -2 -86 -61 -86 -21 0 -24
5 -24 36 0 19 5 44 10 55 15 27 56 24 75 -5z m-27 -245 c-27 -24 -33 -36 -33
-71 0 -34 6 -47 28 -66 16 -13 39 -24 52 -24 21 0 22 -2 13 -27 -8 -21 -5 -48
10 -108 10 -44 17 -85 15 -92 -6 -16 -43 -24 -63 -13 -24 13 -30 32 -40 124
-9 78 -32 132 -51 121 -15 -10 -49 5 -49 20 0 8 14 22 30 30 42 22 52 54 40
128 -5 34 -10 74 -10 90 0 24 4 27 34 27 19 0 38 6 43 13 5 7 9 -16 11 -55 3
-65 2 -68 -30 -97z m42 -30 c0 -47 10 -61 41 -61 35 0 37 -13 7 -34 -32 -22
-55 -20 -83 9 -30 29 -32 68 -5 95 28 28 40 25 40 -9z m169 -86 c23 -23 -1
-38 -62 -39 l-53 -1 21 33 c17 28 24 31 50 27 16 -3 36 -12 44 -20z"/>
<path d="M7807 4140 c-35 -22 -47 -66 -51 -192 -5 -141 -27 -283 -61 -381 -31
-91 -17 -126 52 -127 56 0 85 70 103 248 6 59 20 170 32 247 23 152 25 182 11
196 -15 15 -67 20 -86 9z m72 -24 c15 -18 4 -63 -16 -71 -41 -15 -80 37 -53
70 16 19 54 19 69 1z m-26 -96 c17 0 19 -5 14 -37 -4 -21 -12 -40 -19 -42 -7
-2 -25 -17 -40 -32 l-28 -27 0 89 0 90 26 -20 c15 -12 36 -21 47 -21z m-4
-178 c-11 -61 -12 -62 -30 -46 -29 26 -20 93 15 116 21 14 26 -8 15 -70z m-33
-70 c19 -11 21 -47 8 -135 l-6 -37 -25 20 c-14 11 -32 20 -40 20 -12 0 -14 8
-9 33 3 17 10 63 17 101 12 69 12 69 24 38 7 -16 21 -35 31 -40z m-34 -169
c40 -36 9 -93 -50 -93 -25 0 -33 4 -29 14 3 8 11 32 18 55 13 44 31 52 61 24z
m-2 -123 c-11 -20 -35 -25 -64 -14 -27 11 -18 23 22 27 20 2 41 4 45 5 4 1 3
-7 -3 -18z"/>
<path d="M8041 4072 c-53 -56 -102 -134 -99 -157 8 -53 96 -13 163 73 41 54
52 86 35 107 -22 27 -61 18 -99 -23z m86 3 c3 -9 -3 -25 -13 -36 -15 -17 -20
-18 -32 -5 -19 19 -6 56 19 56 11 0 22 -7 26 -15z m-67 -40 c0 -7 8 -18 17
-24 16 -9 16 -11 -2 -32 -24 -26 -94 -79 -107 -79 -20 0 -5 42 34 94 42 56 58
68 58 41z"/>
<path d="M7183 4013 c-106 -114 -121 -235 -40 -320 58 -62 133 -52 196 24 79
95 70 242 -19 317 -49 41 -84 35 -137 -21z m117 12 c56 -29 91 -136 69 -212
-18 -64 -93 -143 -136 -143 -61 0 -123 75 -123 150 0 55 21 101 76 166 49 57
67 63 114 39z"/>
<path d="M7205 3907 c-60 -60 -40 -137 36 -137 14 0 33 8 42 18 33 36 14 142
-26 150 -10 2 -33 -12 -52 -31z m65 -6 c11 -22 13 -71 4 -95 -9 -24 -60 -20
-78 5 -17 25 -12 44 22 82 30 32 38 33 52 8z"/>
<path d="M7487 3968 c-62 -66 -86 -118 -87 -186 0 -65 29 -125 73 -152 75 -46
152 -7 210 107 40 76 4 221 -65 263 -53 32 -76 26 -131 -32z m145 -7 c73 -81
60 -223 -28 -301 -82 -72 -184 -6 -184 120 0 67 19 109 77 171 42 45 51 50 78
45 16 -3 42 -19 57 -35z"/>
<path d="M7512 3867 c-17 -18 -34 -46 -38 -63 -5 -26 -1 -35 21 -53 32 -24 77
-28 94 -7 22 26 24 81 6 120 -21 45 -42 46 -83 3z m67 -18 c15 -44 14 -63 -7
-89 -15 -19 -21 -20 -45 -9 -14 6 -29 20 -32 30 -10 31 35 97 67 99 3 0 11
-14 17 -31z"/>
<path d="M7093 3615 c-30 -21 -31 -77 -3 -105 25 -25 41 -25 70 -2 23 19 33
84 14 101 -19 19 -59 22 -81 6z m67 -21 c28 -33 -22 -102 -54 -75 -19 16 -21
77 -3 84 24 10 45 7 57 -9z"/>
<path d="M7227 3592 c-10 -10 -17 -33 -17 -50 0 -36 22 -52 70 -52 24 0 33 6
40 26 14 37 12 52 -10 74 -25 25 -62 26 -83 2z m72 -16 c7 -8 9 -25 5 -41 -5
-22 -11 -26 -38 -23 -26 3 -32 8 -34 32 -5 42 41 64 67 32z"/>
<path d="M7403 3578 c-37 -18 -40 -70 -5 -110 34 -40 92 -4 92 56 0 48 -43 75
-87 54z m51 -14 c20 -8 21 -67 1 -84 -19 -16 -52 -4 -59 23 -8 31 -8 34 10 51
17 18 24 19 48 10z"/>
<path d="M7535 3556 c-28 -20 -26 -83 4 -107 30 -24 46 -24 71 1 57 57 -11
153 -75 106z m59 -12 c25 -10 21 -71 -6 -85 -18 -10 -24 -8 -40 11 -22 27 -23
44 -2 64 17 18 24 19 48 10z"/>
<path d="M8230 3869 c-47 -19 -98 -60 -110 -90 -25 -59 12 -114 120 -179 103
-61 117 -110 35 -126 -46 -8 -73 2 -90 37 -12 22 -23 29 -44 29 -31 0 -61 -27
-61 -56 0 -23 30 -70 56 -89 61 -42 176 -38 246 8 33 22 78 96 78 129 0 28
-78 107 -138 141 -55 31 -89 68 -77 87 12 20 53 9 111 -30 33 -22 71 -40 86
-40 27 0 48 23 48 54 0 26 -47 72 -108 104 -61 33 -106 39 -152 21z m104 -15
c9 -3 16 -10 16 -15 0 -18 -41 -49 -65 -49 -26 0 -50 32 -41 56 6 14 60 19 90
8z m-106 -42 c6 -18 6 -35 1 -45 -16 -28 16 -72 76 -106 l56 -31 -18 -25 c-10
-13 -21 -25 -25 -25 -14 0 -126 72 -151 98 -15 15 -30 42 -33 60 -6 28 -2 37
30 67 21 19 41 35 46 35 4 0 12 -13 18 -28z m200 -18 c45 -39 51 -54 26 -78
-14 -15 -18 -15 -42 0 -15 8 -40 26 -56 39 -29 23 -29 23 -10 49 11 14 24 26
30 26 6 0 29 -16 52 -36z m-8 -226 c24 -39 11 -60 -33 -56 -23 2 -33 10 -40
31 -19 58 40 79 73 25z m-247 -75 c12 -23 12 -30 -2 -55 -9 -15 -19 -28 -23
-28 -12 0 -48 52 -48 69 0 44 52 54 73 14z m257 -7 c0 -14 -79 -86 -94 -86 -7
0 -18 12 -25 26 -10 23 -9 29 11 48 16 15 36 21 65 21 24 0 43 -4 43 -9z
m-145 -56 c25 -27 13 -50 -27 -50 -50 0 -78 11 -78 29 0 43 72 57 105 21z"/>
<path d="M7441 3311 c-25 -25 -26 -43 -5 -76 14 -21 41 -179 59 -340 6 -53 4
-63 -14 -79 -27 -25 -26 -47 3 -75 78 -74 253 7 325 150 60 121 48 208 -43
306 -79 85 -150 125 -235 131 -60 4 -71 2 -90 -17z m89 -37 c0 -19 5 -44 10
-54 9 -16 53 -381 47 -386 -1 -1 -16 1 -34 3 -36 6 -38 12 -48 128 -11 120
-36 259 -51 276 -31 34 -9 69 43 69 31 0 33 -2 33 -36z m108 4 c10 -7 18 -13
20 -14 2 -1 -1 -11 -7 -22 -13 -24 -55 -36 -80 -23 -23 13 -36 58 -21 76 12
15 59 6 88 -17z m181 -207 c23 -106 -27 -216 -133 -292 -51 -37 -66 -37 -66 2
0 24 6 32 29 40 55 19 123 159 108 220 -10 40 -65 119 -96 137 l-29 16 27 29
26 28 61 -65 c51 -52 64 -73 73 -115z m-191 105 c57 -30 112 -110 112 -164 0
-42 -60 -154 -92 -172 -15 -8 -29 -12 -32 -9 -5 5 -32 216 -39 307 -4 58 3 63
51 38z m-46 -368 c38 -31 25 -78 -22 -78 -17 0 -41 10 -57 25 l-28 25 24 20
c27 23 60 26 83 8z"/>
<path d="M8512 3257 c-29 -17 -64 -69 -87 -132 -10 -27 -21 -54 -25 -58 -4 -4
-10 26 -13 68 -7 94 -24 125 -71 125 -40 0 -66 -26 -66 -67 0 -66 34 -222 62
-287 29 -66 29 -71 18 -135 -7 -40 -19 -75 -32 -88 l-21 -22 -25 20 c-16 12
-33 17 -45 13 -14 -4 -17 -3 -12 6 7 12 15 90 31 320 6 96 -7 136 -59 174 -44
32 -145 29 -214 -7 -48 -25 -53 -31 -53 -60 1 -37 20 -67 44 -67 10 0 39 9 65
21 55 23 114 23 119 -2 2 -12 -13 -18 -69 -26 -123 -19 -199 -91 -199 -186 0
-39 6 -58 26 -84 31 -41 57 -52 148 -64 48 -6 75 -15 88 -29 10 -11 26 -20 36
-20 13 0 17 -9 18 -35 1 -43 31 -86 67 -96 103 -28 203 108 227 308 13 108 20
131 81 262 54 115 58 135 30 151 -25 13 -41 12 -69 -3z m66 -33 c2 -11 -6 -32
-17 -45 -16 -20 -23 -22 -38 -13 -25 16 -29 55 -7 71 26 19 58 12 62 -13z
m-228 2 c6 -8 10 -25 8 -38 -2 -18 -9 -22 -28 -20 -28 3 -40 18 -40 50 0 17 6
22 24 22 13 0 29 -7 36 -14z m-250 -44 c0 -25 -28 -62 -47 -62 -23 0 -53 29
-53 51 0 18 19 25 73 28 20 1 27 -4 27 -17z m76 -23 c27 -29 29 -35 28 -112 0
-105 -19 -331 -28 -346 -11 -17 -34 -13 -46 8 -6 13 -26 22 -55 27 -41 6 -45
9 -45 35 0 28 2 29 44 29 l44 0 11 50 c14 63 14 86 1 110 -10 18 -12 18 -77 0
-76 -22 -113 -52 -113 -91 0 -26 -40 -65 -54 -52 -13 14 -5 90 13 119 34 56
81 83 165 96 l76 13 0 32 c0 22 -6 36 -19 43 -17 8 -18 14 -8 40 14 38 26 38
63 -1z m169 -15 c20 5 23 1 28 -50 3 -31 8 -59 11 -61 12 -12 34 20 60 87 l28
71 22 -24 c12 -13 28 -26 34 -28 8 -3 0 -31 -24 -87 -25 -59 -39 -111 -49
-185 -19 -143 -23 -151 -73 -152 -23 -1 -42 1 -42 4 0 2 5 34 11 70 9 48 20
75 40 99 57 65 26 146 -54 140 l-41 -3 -17 82 -16 82 30 -25 c20 -17 37 -24
52 -20z m-352 -6 c20 -34 15 -42 -32 -54 -39 -11 -60 54 -23 75 27 16 36 13
55 -21z m395 -146 c19 -25 14 -58 -13 -89 -28 -32 -33 -29 -62 46 -16 42 -16
44 2 57 22 16 54 10 73 -14z m-272 -98 c-4 -31 -9 -61 -12 -65 -8 -13 -86 -11
-117 4 -55 25 -21 88 57 106 80 18 80 18 72 -45z m-125 -84 c20 -11 26 -54 9
-65 -11 -7 -75 19 -85 34 -18 30 36 52 76 31z m412 -116 c8 -8 -27 -76 -48
-94 -21 -17 -37 -1 -37 36 0 41 60 82 85 58z m-151 -36 c13 -13 28 -22 34 -20
6 1 14 -8 17 -20 2 -13 8 -30 11 -39 9 -20 -30 -33 -69 -23 -42 10 -70 85 -43
112 17 17 25 15 50 -10z"/>
<path d="M8236 2913 c-4 -43 -8 -95 -10 -116 -4 -33 -1 -39 25 -52 26 -14 29
-14 37 2 22 42 24 100 4 144 -11 24 -22 56 -26 72 -12 49 -24 28 -30 -50z m40
-34 c20 -39 12 -122 -12 -117 -8 2 -15 6 -15 11 1 4 1 36 1 72 0 36 2 65 5 65
2 0 12 -14 21 -31z"/>
</g>
</svg>
