<?xml version="1.0" standalone="no"?>
<!DOCTYPE svg PUBLIC "-//W3C//DTD SVG 20010904//EN"
 "http://www.w3.org/TR/2001/REC-SVG-20010904/DTD/svg10.dtd">
<svg version="1.0" xmlns="http://www.w3.org/2000/svg"
 width="850.000000pt" height="850.000000pt" viewBox="0 0 850.000000 850.000000"
 preserveAspectRatio="xMidYMid meet">
<metadata>
Created by potrace 1.14, written by Peter Selinger 2001-2017
</metadata>
<g transform="translate(0.000000,850.000000) scale(0.100000,-0.100000)"
fill="#000000" stroke="none">
<path d="M4714 8465 c-151 -39 -206 -60 -327 -122 -240 -124 -440 -340 -569
-614 -109 -231 -248 -446 -352 -549 -49 -47 -56 -69 -30 -91 14 -11 27 -8 88
24 40 20 102 62 139 92 36 30 68 55 69 55 2 0 -1 -60 -5 -132 -13 -220 -3
-496 23 -613 24 -107 32 -125 61 -125 27 0 34 18 39 110 l5 85 24 -70 c39
-113 118 -267 156 -302 48 -45 63 -43 67 10 l3 42 18 -32 c22 -40 53 -59 72
-43 9 8 12 28 8 73 -7 79 -1 73 74 -67 32 -60 63 -111 70 -114 12 -3 39 73 45
129 3 25 5 24 118 -50 l115 -75 -52 -11 c-64 -15 -99 -37 -124 -80 l-20 -33
-67 19 c-37 11 -77 22 -89 25 -48 13 -96 -17 -200 -123 -116 -118 -175 -202
-246 -351 -61 -127 -111 -321 -133 -517 -13 -115 -25 -167 -66 -290 -27 -82
-54 -154 -59 -159 -8 -9 -76 -35 -90 -36 -3 0 -14 19 -25 41 -33 73 -87 88
-186 50 -26 -10 -27 -8 -96 117 -83 152 -134 276 -163 397 -24 102 -22 124 26
235 42 98 50 128 69 255 10 70 28 134 60 214 40 99 54 122 114 186 162 174
251 496 213 775 -14 107 -93 357 -137 438 -117 209 -357 417 -561 482 -178 57
-403 70 -563 32 -285 -68 -476 -192 -618 -400 -76 -112 -86 -132 -133 -268
-60 -177 -73 -344 -44 -571 30 -226 116 -420 248 -559 44 -47 99 -96 123 -110
23 -14 61 -50 85 -80 57 -74 119 -128 244 -214 58 -39 116 -85 129 -103 14
-18 52 -68 85 -112 32 -44 90 -115 128 -159 78 -90 86 -103 147 -246 63 -150
111 -291 161 -478 l43 -165 -95 -92 -96 -93 6 -50 c8 -69 33 -114 110 -200 61
-68 67 -79 83 -150 27 -125 61 -164 159 -177 91 -12 89 -11 47 -64 -20 -27
-96 -122 -169 -212 l-132 -164 -101 -55 c-106 -57 -155 -101 -190 -169 -23
-46 -50 -151 -50 -197 0 -25 -13 -42 -75 -98 -42 -37 -84 -85 -95 -107 -27
-53 -26 -138 4 -209 l22 -55 -90 -103 c-50 -57 -95 -110 -99 -118 -11 -20 42
-109 106 -180 32 -35 71 -64 110 -83 46 -22 80 -50 130 -105 37 -41 96 -94
132 -117 52 -34 64 -46 60 -63 -12 -55 -56 -494 -70 -691 -32 -463 -46 -620
-61 -647 -8 -14 -14 -40 -14 -57 0 -31 1 -31 51 -31 49 0 51 1 45 24 -3 13 -1
81 4 152 62 821 94 1161 116 1250 5 18 11 20 58 16 48 -4 55 -2 75 23 21 28
22 28 74 16 29 -6 66 -20 83 -30 26 -16 30 -23 26 -54 -4 -32 0 -38 50 -78 99
-79 247 -131 414 -147 43 -4 78 -12 77 -17 -1 -6 -47 -145 -101 -310 -85 -253
-133 -413 -236 -787 -8 -26 -11 -50 -8 -53 3 -3 24 -5 47 -5 l41 0 12 59 c34
165 246 884 312 1056 l10 25 189 0 c183 0 190 1 205 21 9 14 13 33 9 52 l-6
30 39 -6 c21 -4 49 -7 62 -7 12 0 22 -6 22 -14 0 -8 13 -28 29 -43 22 -22 79
-154 249 -583 122 -305 223 -563 226 -572 4 -14 16 -18 56 -18 54 0 55 1 40
28 -5 9 -35 82 -66 161 -31 79 -99 241 -151 360 -93 213 -234 555 -248 599 -6
21 -4 22 52 22 153 1 340 32 523 87 112 34 341 85 348 78 4 -4 48 -260 96
-555 22 -132 127 -656 152 -757 5 -19 13 -23 46 -23 l40 0 -5 38 c-2 20 -41
212 -86 427 -45 215 -92 455 -106 535 -14 80 -32 189 -41 242 -16 93 -16 99 0
117 15 17 16 25 7 52 -6 18 -11 33 -11 34 0 2 23 10 52 20 l51 16 24 -25 c28
-30 43 -31 154 -10 97 18 272 88 356 143 60 39 123 103 123 124 -1 25 -28 60
-132 171 -105 111 -106 113 -101 153 5 36 0 48 -37 102 l-41 62 21 64 c23 68
21 114 -6 136 -26 22 -14 29 39 23 63 -7 97 6 97 39 0 32 -21 58 -99 125 l-67
58 18 41 c10 23 15 48 12 57 -10 27 -53 31 -105 8 -45 -19 -50 -19 -58 -4 -5
9 -9 28 -9 42 0 14 -18 65 -41 113 -32 67 -51 94 -83 118 -39 27 -55 51 -72
106 -11 34 80 77 414 193 107 38 272 96 366 129 l171 59 64 -45 64 -45 82 6
c101 7 128 17 145 52 9 19 29 34 66 49 73 28 92 47 92 92 0 35 4 39 39 54 30
13 41 25 51 55 8 24 39 67 81 110 58 60 69 77 69 105 -1 64 -20 120 -95 269
-100 201 -208 360 -424 625 -46 56 -88 119 -97 145 -31 90 -45 111 -89 142
-30 21 -48 43 -56 67 -6 20 -48 126 -92 236 -120 301 -206 454 -278 494 -37
21 -50 23 -120 18 l-79 -5 0 56 c0 70 -32 142 -84 191 -33 32 -46 68 -29 84 3
4 12 2 20 -4 21 -18 53 17 53 56 0 52 36 157 107 309 37 78 68 143 71 146 7 8
-8 -88 -30 -197 -15 -71 -18 -109 -12 -124 l9 -20 28 21 c37 29 123 208 147
305 32 131 51 271 57 427 l6 146 56 -61 c82 -89 125 -117 178 -117 46 0 53 9
26 31 -48 40 -178 282 -259 482 -104 259 -191 404 -307 514 -172 163 -335 255
-537 303 -67 16 -118 20 -245 19 -148 0 -170 -3 -291 -34z m536 -60 c165 -40
310 -119 460 -248 69 -60 105 -101 160 -184 80 -121 103 -166 175 -348 29 -71
60 -148 69 -170 15 -36 15 -38 1 -20 -25 30 -80 143 -99 201 -16 50 -86 161
-86 137 0 -6 11 -53 25 -105 53 -200 69 -438 44 -656 -15 -131 -28 -149 -29
-40 0 89 -24 282 -41 325 -5 13 -16 23 -25 23 -15 0 -16 -9 -8 -87 13 -131 8
-199 -20 -290 -24 -74 -72 -193 -78 -193 -2 0 -3 24 -4 53 0 29 -8 67 -18 86
-16 30 -17 53 -12 205 7 179 0 239 -25 244 -14 2 -17 -21 -22 -170 -6 -193
-25 -353 -62 -527 -25 -118 -54 -226 -59 -219 -2 1 1 46 6 98 4 52 9 167 9
255 l2 160 36 33 36 33 -37 -7 c-42 -7 -40 -11 -58 151 -16 150 -28 207 -70
355 -21 74 -43 161 -49 193 -13 70 -17 78 -37 70 -13 -5 -15 -18 -12 -69 2
-35 1 -64 -2 -64 -3 0 -10 21 -17 48 -14 59 -68 202 -87 227 -12 16 -16 17
-30 6 -24 -20 -84 -123 -128 -220 -25 -54 -37 -73 -32 -51 13 73 53 183 79
221 31 43 28 77 -4 60 -52 -28 -217 -246 -307 -403 -35 -62 -64 -108 -64 -103
0 24 84 284 105 328 14 26 40 68 60 94 35 45 44 73 25 73 -58 0 -327 -409
-414 -630 -17 -44 -18 -44 -27 -20 -6 14 -8 60 -4 105 17 229 58 373 136 484
44 63 49 75 37 87 -20 21 -38 -2 -156 -191 l-99 -160 -69 -6 c-38 -3 -73 -4
-79 -2 -5 2 -32 35 -59 73 -51 73 -64 83 -87 70 -10 -7 -3 -23 34 -77 l48 -68
-67 -6 c-72 -6 -97 -24 -66 -47 12 -10 37 -12 93 -8 83 7 86 5 136 -69 l21
-30 -30 -66 c-29 -64 -31 -67 -71 -73 -40 -6 -154 -63 -145 -72 3 -2 37 3 77
12 40 9 74 14 77 11 8 -7 -27 -91 -43 -104 -9 -7 -12 -19 -8 -33 4 -13 0 -31
-9 -45 -13 -20 -25 -25 -57 -25 -33 0 -40 -3 -37 -17 2 -11 16 -20 33 -23 27
-5 30 -9 27 -40 -1 -19 -9 -41 -16 -50 -7 -8 -11 -20 -9 -27 2 -6 -8 -83 -23
-170 -14 -87 -26 -185 -25 -218 2 -89 -14 -50 -38 95 -48 287 -49 537 -5 840
5 35 5 35 -21 -13 -39 -72 -55 -186 -57 -397 -1 -186 -8 -188 -23 -7 -7 92
-18 105 -43 54 -10 -21 -9 -53 7 -184 18 -141 42 -401 41 -442 -1 -26 -36 73
-64 177 -38 147 -58 339 -54 536 2 128 0 170 -9 173 -25 9 -35 -56 -39 -262
-3 -125 -10 -234 -18 -270 l-14 -60 -1 146 c-2 229 39 578 79 684 13 33 13 32
-6 39 -11 4 -23 -12 -49 -68 -23 -50 -53 -94 -95 -137 l-61 -64 44 70 c25 39
93 163 151 276 147 283 259 419 453 548 135 90 363 185 503 210 80 14 352 6
430 -14z m74 -642 c51 -157 96 -399 96 -518 l0 -30 -104 3 c-134 5 -201 -13
-246 -64 -17 -20 -30 -38 -28 -40 2 -2 53 12 113 31 70 22 130 35 165 35 57 0
194 -33 217 -52 20 -16 16 -85 -5 -97 -26 -14 -101 -2 -140 22 -44 26 -119 19
-190 -17 -57 -29 -69 -44 -73 -96 -4 -50 6 -64 34 -45 l22 14 -3 -73 c-3 -54
1 -83 13 -105 14 -28 14 -32 0 -37 -8 -3 -15 -14 -15 -24 0 -15 16 -20 108
-31 85 -11 108 -11 110 -1 2 6 11 12 21 12 24 0 33 11 21 25 -7 8 -4 20 11 39
20 25 22 26 35 9 13 -17 16 -16 39 12 13 16 27 26 32 22 14 -14 -18 -102 -92
-254 -74 -151 -76 -153 -150 -212 -111 -88 -392 -221 -468 -221 -37 0 -84 25
-241 128 -212 138 -232 155 -267 225 -42 82 -98 249 -106 315 -5 49 -5 52 17
52 14 0 35 -13 51 -32 20 -24 30 -30 39 -22 8 8 5 24 -11 60 -24 54 -39 194
-21 194 6 0 17 3 26 6 12 5 15 -6 14 -69 0 -88 7 -128 33 -178 19 -39 17 -49
-13 -49 -32 0 -17 -34 15 -38 21 -3 27 -8 23 -19 -5 -12 -2 -13 11 -7 10 4 54
10 98 13 88 7 142 30 110 49 -14 7 -15 13 -6 30 6 11 14 51 17 90 5 55 10 69
22 68 26 -2 25 33 -2 74 -21 33 -22 37 -7 33 30 -8 38 19 11 36 -62 41 -63 43
-49 89 6 23 14 42 16 42 2 0 22 -12 44 -26 23 -14 43 -23 46 -20 10 10 -9 47
-42 77 l-33 32 19 55 c21 62 133 279 155 302 10 10 9 -4 -6 -55 -85 -293 -96
-383 -53 -426 19 -20 20 -20 32 38 31 138 115 321 218 474 105 157 108 158 68
14 -17 -61 -28 -141 -36 -247 -11 -143 -10 -159 5 -183 9 -14 21 -23 25 -21 4
3 11 36 14 73 7 86 48 251 87 349 45 111 113 244 125 244 2 0 15 -35 29 -77z
m-2656 -88 c39 -10 72 -21 72 -24 0 -3 -46 -21 -102 -40 -127 -41 -217 -86
-333 -165 -89 -60 -203 -165 -261 -240 l-30 -40 -90 39 c-49 21 -127 51 -174
66 -47 15 -84 31 -83 36 6 20 80 107 134 157 109 101 268 180 439 217 108 24
319 21 428 -6z m246 -95 c38 -22 90 -56 117 -76 53 -39 165 -161 156 -170 -3
-3 -56 -19 -119 -34 -161 -41 -295 -100 -579 -253 l-137 -73 -58 44 c-33 25
-96 63 -141 84 -46 21 -83 42 -83 45 0 14 88 118 144 170 139 129 332 226 576
292 52 14 50 14 124 -29z m2601 -276 c14 -65 23 -119 21 -121 -2 -2 -15 1 -30
6 l-26 11 0 116 c0 65 3 115 6 112 3 -4 16 -59 29 -124z m-2258 -66 c85 -136
149 -349 159 -533 7 -141 -4 -238 -43 -356 l-27 -84 -8 80 c-36 376 -106 629
-234 847 -37 64 -38 61 36 76 80 17 88 15 117 -30z m-1490 -29 c135 -48 391
-163 462 -208 85 -55 80 -38 83 -309 2 -133 2 -242 2 -242 -20 0 -286 66 -329
82 -208 75 -485 267 -485 337 0 78 110 381 139 381 5 0 63 -19 128 -41z m2720
10 c18 -6 34 -18 37 -27 10 -33 10 -97 1 -96 -6 1 -29 5 -52 9 -36 6 -43 4
-43 -9 0 -13 -11 -16 -55 -16 -65 0 -66 2 -29 96 l27 66 41 -6 c23 -4 55 -11
73 -17z m-1398 -116 c35 -71 75 -157 88 -193 58 -153 104 -431 107 -641 1
-111 0 -118 -26 -155 -37 -52 -146 -145 -230 -195 -38 -23 -70 -40 -71 -38 -2
2 -11 91 -20 197 -19 214 -62 483 -102 642 -22 89 -95 314 -120 372 -5 13 -1
20 16 27 13 5 76 32 139 60 63 28 124 51 136 51 16 0 33 -26 83 -127z m-381
-135 c62 -177 89 -280 121 -463 37 -210 60 -394 68 -546 l6 -115 -99 -41
c-108 -45 -202 -67 -220 -52 -18 14 -94 175 -121 254 -33 96 -62 214 -79 315
-18 104 -30 545 -17 579 7 17 52 49 144 103 74 43 139 78 145 78 7 0 30 -51
52 -112z m1821 21 c30 -28 25 -63 -10 -67 -34 -4 -59 21 -59 59 0 24 4 29 23
29 13 0 33 -9 46 -21z m849 -25 c44 -30 16 -71 -39 -57 -41 11 -58 35 -40 57
17 20 50 20 79 0z m-949 -26 c8 -18 15 -53 16 -78 3 -60 18 -87 61 -105 38
-16 38 -35 0 -35 -26 0 -70 43 -86 84 -19 52 -30 116 -24 141 8 33 17 31 33
-7z m1087 -20 c7 -23 -2 -96 -15 -117 -5 -8 -7 4 -4 31 3 24 1 60 -5 80 -8 30
-7 36 4 31 7 -2 16 -14 20 -25z m-250 -20 c4 -7 8 -34 8 -61 1 -51 2 -51 71
-100 30 -22 25 -37 -14 -37 -53 0 -91 64 -91 156 0 52 10 68 26 42z m-3641
-229 c64 -53 302 -175 396 -203 31 -9 109 -27 174 -40 64 -13 121 -29 125 -35
4 -7 14 -58 24 -114 9 -56 30 -145 46 -197 16 -52 30 -96 30 -97 0 -8 -199 -2
-267 8 -153 21 -409 120 -500 195 -75 62 -94 95 -119 212 -22 103 -44 277 -44
349 l0 35 38 -32 c20 -17 64 -53 97 -81z m3865 101 c0 -5 -5 -10 -11 -10 -5 0
-7 5 -4 10 3 6 8 10 11 10 2 0 4 -4 4 -10z m-57 -7 c-7 -2 -19 -2 -25 0 -7 3
-2 5 12 5 14 0 19 -2 13 -5z m-3663 -703 c155 -78 378 -130 554 -130 l113 0
45 -97 45 -98 -71 -3 c-273 -12 -607 133 -768 333 -56 69 -61 86 -15 52 17
-14 61 -39 97 -57z m3384 4 c-7 -31 -14 -58 -16 -60 -3 -2 -53 -21 -114 -42
l-109 -37 -6 -55 c-8 -67 -19 -95 -64 -165 l-35 -55 -53 6 c-69 8 -93 -5 -118
-64 -26 -62 -61 -112 -77 -112 -18 0 -5 189 17 249 13 35 23 46 50 55 46 15
66 56 81 171 7 52 14 95 15 95 1 0 24 -9 50 -21 62 -27 92 -22 248 41 67 27
127 49 133 50 8 0 8 -16 -2 -56z m-496 -109 c-7 -48 -15 -61 -59 -104 l-51
-49 7 91 c4 51 12 98 17 105 6 6 29 12 53 12 l42 0 -9 -55z m611 -56 c1 -21
-14 -38 -76 -86 -77 -59 -216 -153 -227 -153 -3 0 -6 51 -6 114 l0 113 133 47
c72 26 139 51 147 56 12 8 16 2 22 -28 4 -20 7 -49 7 -63z m-2199 -70 c-24
-51 -30 -77 -30 -130 0 -104 -18 -176 -71 -281 -70 -140 -71 -153 -13 -344 39
-128 68 -198 151 -364 56 -113 121 -229 144 -259 38 -50 41 -58 36 -100 -11
-90 -29 -150 -57 -195 -31 -48 -189 -181 -201 -168 -12 12 -106 293 -176 522
-63 210 -125 375 -197 534 -27 57 -57 100 -112 160 -42 44 -107 126 -146 180
-89 124 -121 156 -244 243 -127 90 -204 151 -204 162 0 4 50 -12 112 -36 76
-31 141 -65 202 -109 87 -62 131 -77 131 -45 0 8 -21 28 -47 45 -26 17 -47 34
-47 37 -1 10 96 -9 128 -25 38 -20 58 -20 68 -1 5 9 42 21 93 30 47 8 100 19
119 24 28 9 41 6 92 -19 38 -20 57 -35 53 -43 -3 -8 2 -19 10 -26 17 -14 24
-4 75 119 29 69 36 78 94 116 34 23 63 40 65 39 1 -1 -11 -31 -28 -66z m1220
29 c58 -23 107 -44 109 -45 8 -5 -72 -117 -113 -157 -43 -42 -82 -94 -75 -100
9 -10 106 16 147 39 25 14 47 24 49 22 10 -10 -28 -130 -51 -160 -14 -18 -32
-60 -39 -91 -11 -50 -19 -62 -52 -85 l-40 -27 0 -70 0 -69 -71 -100 c-39 -55
-128 -184 -197 -286 l-126 -187 -30 19 c-36 22 -35 19 -16 83 8 27 31 126 51
220 39 187 92 357 150 481 46 99 126 301 150 378 15 49 16 60 4 67 -8 5 -17 7
-21 4 -4 -2 -23 -46 -44 -96 -20 -51 -76 -187 -125 -303 -98 -231 -109 -269
-174 -560 -57 -260 -84 -341 -111 -337 -11 2 -21 5 -23 6 -1 2 11 32 28 67 33
71 81 268 105 429 28 189 66 371 91 439 13 36 48 104 76 151 64 106 216 310
232 310 6 0 58 -19 116 -42z m1668 -65 c46 -66 106 -191 181 -375 44 -109 77
-198 74 -198 -4 0 -14 7 -23 15 -15 14 -18 14 -30 0 -16 -20 2 -41 115 -132
82 -67 124 -113 93 -100 -9 3 -22 -1 -29 -9 -10 -12 3 -30 72 -102 118 -122
304 -389 469 -672 83 -142 130 -237 130 -262 0 -9 -33 -53 -72 -98 -40 -44
-75 -91 -78 -103 -3 -12 -13 -23 -22 -25 -12 -2 -18 12 -26 67 -10 68 -61 176
-110 236 -55 67 -199 147 -360 200 -82 27 -82 27 -60 44 41 32 234 151 244
151 6 0 18 8 28 19 14 15 14 20 3 29 -34 28 -105 52 -159 52 -66 0 -105 -26
-139 -92 -33 -64 -17 -66 45 -5 63 62 86 68 154 43 l33 -12 -38 -18 c-21 -10
-86 -51 -146 -92 -70 -48 -117 -74 -135 -74 -41 0 -69 -25 -101 -88 l-28 -56
-62 59 c-33 32 -61 67 -61 77 0 10 40 61 89 111 50 51 95 105 100 121 17 42
14 133 -4 140 -21 8 -35 -24 -35 -81 0 -44 -4 -53 -38 -86 l-39 -38 -27 70
c-30 78 -129 253 -230 411 -75 116 -196 280 -207 280 -3 0 -12 -7 -19 -15 -10
-12 -7 -21 17 -52 46 -59 113 -161 113 -172 0 -5 -68 -65 -152 -133 -191 -154
-306 -268 -436 -430 l-102 -127 -56 -7 c-90 -11 -238 2 -368 31 -112 25 -282
79 -298 93 -9 9 54 228 139 484 53 158 76 213 96 232 16 15 27 36 27 51 0 14
4 25 9 25 23 0 134 94 147 125 11 28 31 43 120 89 104 54 108 55 121 36 8 -11
20 -20 27 -20 8 0 16 -9 19 -20 3 -11 10 -20 15 -20 13 0 102 97 245 268 65
78 125 142 133 142 21 0 19 -4 -37 -80 -43 -59 -49 -73 -38 -86 15 -19 72 -12
138 17 48 21 115 68 108 76 -3 2 -41 -7 -86 -21 -45 -13 -81 -22 -81 -20 0 2
11 22 25 43 24 35 30 39 73 39 26 1 116 14 200 30 83 16 152 27 152 25 0 -2
-7 -14 -15 -27 -8 -12 -26 -56 -40 -96 -77 -226 -104 -600 -43 -600 4 0 8 55
8 121 0 204 43 419 113 559 23 46 42 57 104 59 24 1 36 -6 51 -26z m-1058
-128 c-21 -26 -31 -16 -13 11 9 15 19 21 21 15 2 -6 -2 -18 -8 -26z m-110 -62
c0 -7 -81 -57 -112 -71 -13 -6 -9 12 12 46 17 27 25 32 60 32 22 0 40 -3 40
-7z m-264 -169 c41 -20 74 -59 74 -88 0 -22 -41 -67 -90 -99 -33 -23 -37 -22
-45 11 -12 51 -33 72 -71 72 -29 0 -35 3 -30 16 3 9 6 21 6 27 0 7 9 27 20 45
17 28 25 32 61 32 22 0 56 -7 75 -16z m-112 -198 c25 -85 23 -89 -45 -126 -33
-17 -62 -30 -64 -28 -5 4 -35 123 -35 137 0 9 112 71 127 71 1 0 9 -24 17 -54z
m-124 -206 c15 -8 28 -7 51 5 23 13 30 13 27 3 -1 -7 -29 -92 -61 -188 -31
-96 -88 -281 -125 -410 l-67 -235 -155 -76 -155 -76 -8 26 c-4 14 -10 83 -14
152 l-6 127 93 148 c91 146 174 270 313 468 56 79 72 95 79 82 5 -8 18 -20 28
-26z m1505 -391 l119 -235 -27 -35 c-15 -20 -33 -55 -42 -78 -18 -51 -12 -66
53 -133 l45 -47 -28 -23 c-23 -20 -29 -35 -34 -89 l-6 -64 -125 -82 c-173
-114 -391 -237 -534 -301 -133 -59 -173 -85 -227 -145 l-36 -40 -11 84 c-6 46
-14 125 -18 175 -6 88 -5 94 35 210 48 142 51 175 15 228 -32 46 -40 26 98
225 62 89 133 175 213 256 129 132 364 336 380 332 6 -2 64 -109 130 -238z
m-2378 -185 c24 -60 43 -119 43 -131 0 -31 -80 -199 -130 -275 -24 -34 -65
-87 -93 -115 -38 -39 -48 -56 -40 -64 6 -6 20 -8 32 -4 35 11 128 124 176 214
48 90 49 89 16 -24 -10 -38 -22 -85 -26 -103 -5 -22 -24 -50 -55 -79 -40 -37
-49 -53 -54 -91 -7 -50 -50 -135 -85 -166 -24 -22 -105 -24 -201 -6 -66 13
-76 21 -84 69 -3 22 -9 47 -12 56 -5 13 -2 15 22 9 24 -6 16 7 -63 94 -87 98
-133 162 -147 209 -6 18 2 33 39 72 45 48 122 108 129 100 2 -2 16 -42 31 -89
15 -47 36 -103 46 -124 11 -22 19 -41 19 -42 0 -1 -16 -5 -36 -9 -43 -8 -84
-25 -84 -36 0 -14 78 -20 121 -9 70 19 108 43 200 123 56 49 94 91 108 120 29
60 52 201 49 295 -3 71 -5 77 -25 80 -18 3 -23 -1 -23 -20 l0 -22 -16 22 c-9
13 -14 25 -11 28 7 8 91 32 102 30 5 -2 29 -52 52 -112z m123 -121 c0 -7 -4
-13 -10 -13 -5 0 -10 10 -10 23 0 12 -7 31 -15 41 -8 11 -15 27 -15 35 1 18
49 -67 50 -86z m848 -58 c130 -38 246 -57 389 -64 l132 -6 -44 -73 c-24 -41
-56 -108 -71 -149 l-28 -76 -110 -82 c-174 -129 -241 -171 -394 -247 l-143
-72 -28 34 -28 34 -128 -12 c-71 -7 -130 -10 -133 -8 -2 3 55 72 128 153 73
81 138 157 145 168 7 11 39 117 70 235 32 118 59 218 61 222 3 4 26 -2 52 -13
26 -11 84 -31 130 -44z m-778 9 c0 -3 -9 -27 -21 -54 -16 -36 -25 -47 -38 -43
-24 6 -30 -11 -42 -133 -9 -87 -8 -113 6 -166 24 -90 54 -242 50 -247 -13 -12
-72 30 -121 86 -52 59 -82 75 -91 48 -1 -5 20 -36 47 -69 46 -54 49 -60 35
-76 -17 -19 -60 -121 -82 -195 -20 -66 -29 -75 -145 -142 -92 -54 -112 -73
-88 -88 5 -3 45 15 89 40 44 25 83 45 87 45 6 0 2 -52 -13 -159 -5 -41 -19
-58 -171 -218 -161 -169 -355 -393 -347 -401 8 -9 100 78 294 278 111 116 206
210 210 210 13 0 -26 -204 -47 -251 -11 -24 -57 -120 -101 -213 -79 -165 -83
-171 -176 -266 -84 -85 -104 -112 -163 -226 -38 -71 -76 -130 -84 -132 -17 -3
-106 50 -172 102 -105 83 -222 262 -233 355 -6 50 -5 50 50 108 36 37 57 52
57 42 0 -9 6 -19 14 -22 26 -10 61 90 86 250 18 110 47 144 200 230 36 20 78
48 94 62 38 34 505 617 516 645 5 11 16 46 24 76 11 41 24 62 50 83 30 23 40
42 66 130 71 235 85 273 106 294 21 21 54 31 54 17z m129 -148 c6 -60 16 -115
23 -123 19 -23 61 -11 197 56 69 34 128 60 132 59 4 -2 2 -19 -5 -38 -10 -32
-21 -39 -166 -107 -85 -40 -160 -73 -166 -73 -9 0 -19 67 -39 273 -3 35 6 92
11 72 2 -6 8 -59 13 -119z m2629 34 c147 -54 206 -85 267 -141 76 -70 134
-214 135 -331 0 -77 -11 -94 -80 -119 -38 -14 -70 -33 -82 -49 -17 -23 -30
-28 -81 -33 -57 -5 -64 -3 -99 25 -21 16 -38 33 -38 38 0 15 33 20 44 7 6 -8
19 -17 29 -20 35 -13 19 45 -33 114 -70 94 -156 170 -293 261 -121 80 -175 99
-164 58 3 -11 1 -23 -4 -26 -5 -3 -9 15 -9 40 0 51 -15 42 134 80 l59 15 224
-135 c124 -74 227 -134 230 -134 2 0 -9 17 -26 39 -59 74 -379 262 -451 265
-35 1 -36 6 -14 49 36 71 47 71 252 -3z m-2677 -239 c12 -60 24 -81 45 -81 8
0 82 32 165 70 84 39 154 68 156 66 11 -10 -27 -68 -123 -188 -160 -200 -268
-319 -275 -305 -18 34 -79 379 -79 449 0 17 19 69 42 117 l41 86 8 -79 c5 -44
14 -105 20 -135z m1211 92 c10 -9 18 -21 18 -27 0 -15 -63 -209 -90 -275 -24
-61 -23 -97 1 -93 14 2 17 -15 22 -111 4 -62 13 -134 21 -160 16 -53 12 -58
-16 -22 -11 14 -28 25 -38 25 -37 0 -1 -54 125 -188 l125 -132 -2 -55 c-2 -57
-6 -63 -25 -44 -13 13 -33 4 -33 -16 0 -7 45 -64 101 -127 55 -62 130 -155
167 -207 92 -129 157 -199 172 -185 9 9 9 17 -1 35 -12 23 -12 23 12 6 39 -28
50 -31 81 -19 26 10 35 7 85 -25 l56 -35 -6 -55 c-3 -30 -8 -57 -11 -60 -3 -3
-17 4 -32 16 -15 11 -35 21 -45 21 -33 0 -21 -32 30 -79 28 -25 66 -66 85 -91
39 -49 48 -88 19 -75 -61 27 -194 10 -328 -41 -111 -43 -131 -56 -297 -195
-153 -129 -227 -180 -307 -210 -56 -21 -185 -40 -209 -31 -7 2 -29 37 -49 76
-19 39 -46 85 -59 102 -13 17 -87 72 -166 122 -139 89 -179 121 -211 172 -9
14 -63 153 -121 310 -57 157 -116 316 -131 354 l-26 68 27 137 c15 75 28 137
29 138 1 2 58 -28 127 -67 151 -84 251 -125 365 -150 73 -16 91 -17 117 -6
l31 13 -45 12 c-136 36 -226 63 -234 72 -6 5 10 9 45 10 l54 1 -40 13 c-22 7
-99 32 -171 55 -73 23 -156 56 -185 73 -51 30 -54 34 -51 67 5 47 14 56 75 76
117 37 482 253 495 291 10 34 -35 18 -137 -47 -176 -112 -393 -221 -408 -206
-6 6 27 118 39 133 5 7 33 20 61 29 165 54 410 179 559 285 227 163 303 229
279 244 -9 5 17 95 28 95 2 0 13 -7 23 -17z m1235 -164 c93 -63 253 -208 253
-231 0 -16 -113 -60 -536 -208 -435 -154 -506 -188 -562 -270 -23 -34 -23 -35
-4 -38 22 -3 23 -7 71 -224 17 -76 31 -152 31 -169 0 -40 12 -62 77 -136 55
-64 73 -75 73 -48 0 8 7 15 15 15 9 0 18 12 21 28 6 30 72 127 81 119 3 -3
-17 -47 -43 -97 -50 -94 -88 -137 -108 -122 -6 5 -48 36 -92 70 -45 34 -97 80
-115 104 -19 24 -66 83 -106 131 l-73 88 0 90 c0 105 -8 124 -79 194 -60 58
-63 78 -23 156 36 72 79 102 314 223 228 117 491 266 603 342 44 30 83 54 88
54 4 0 56 -32 114 -71z m-2569 -276 c12 -11 25 -43 33 -82 22 -113 57 -123
120 -36 32 44 34 45 74 39 23 -3 86 0 140 6 85 10 100 10 113 -4 14 -14 13
-16 -12 -26 -36 -13 -39 -13 -32 5 4 11 -1 15 -18 15 -66 0 -112 -136 -185
-562 -85 -485 -111 -599 -207 -902 -39 -126 -41 -136 -15 -136 13 0 22 12 32
47 l13 47 8 -29 c5 -17 12 -116 15 -222 l6 -191 -25 -25 c-20 -20 -39 -26 -95
-32 -80 -8 -108 1 -225 73 -75 46 -101 54 -105 32 -5 -25 195 -150 239 -150
36 0 35 -11 -5 -85 -38 -71 -55 -77 -140 -45 -61 23 -144 80 -245 167 -87 77
-88 78 -57 178 l26 85 55 -65 c30 -36 60 -65 65 -65 25 0 19 33 -14 73 -20 24
-68 93 -107 153 -66 101 -71 112 -65 149 12 77 65 215 160 417 79 168 95 195
89 156 -5 -40 -4 -48 10 -48 8 0 20 9 26 20 15 27 87 477 95 590 4 52 11 118
17 145 14 69 96 286 115 308 9 9 30 17 48 17 18 0 42 -8 53 -17z m288 -1065
c20 -78 14 -171 -23 -348 -14 -69 -26 -135 -26 -148 1 -25 10 -39 19 -30 16
17 55 162 70 260 9 62 17 114 19 116 1 1 15 -33 30 -75 64 -178 107 -277 137
-315 36 -46 36 -47 -62 -79 -64 -22 -140 -81 -140 -108 0 -15 37 -5 60 15 13
11 123 64 134 64 6 0 26 -124 26 -162 0 -20 -6 -40 -13 -46 -23 -19 -99 -30
-241 -34 l-138 -3 -3 40 c-2 22 -9 135 -16 250 l-12 210 56 225 c31 124 59
246 63 270 l8 45 18 -42 c10 -22 25 -70 34 -105z m-1438 -618 c2 -4 -16 -37
-39 -74 l-41 -66 -30 18 c-44 25 -123 104 -142 141 l-17 32 52 65 51 65 82
-87 c44 -48 82 -90 84 -94z m3325 -18 c-84 -71 -312 -162 -409 -162 -26 0 -36
6 -52 33 l-19 33 105 29 c106 29 307 120 332 150 12 14 17 13 47 -17 l34 -33
-38 -33z m-1471 -53 c62 -39 127 -85 145 -102 33 -31 81 -112 72 -121 -12 -12
-190 -25 -261 -19 l-78 6 0 87 c0 47 -5 113 -11 145 -8 46 -8 60 3 66 7 5 14
9 15 9 1 0 53 -32 115 -71z m-1742 11 c57 -45 181 -116 235 -135 28 -10 53
-21 58 -25 4 -3 -7 -48 -25 -99 l-32 -93 -38 5 c-97 13 -229 104 -305 210
l-31 43 41 66 c22 37 46 64 51 61 6 -4 27 -19 46 -33z m3348 -46 c34 -42 62
-79 62 -83 -1 -11 -114 -88 -175 -119 -33 -16 -82 -37 -110 -46 -53 -16 -197
-48 -199 -44 -1 2 -28 38 -60 81 -33 42 -57 79 -55 80 2 2 47 14 99 26 108 26
254 91 320 144 25 20 48 36 51 36 3 1 33 -33 67 -75z m-800 -151 l22 -41 -42
-7 c-24 -3 -99 -21 -168 -40 -388 -105 -351 -98 -542 -103 -143 -3 -179 -1
-182 10 -2 7 -7 25 -10 41 l-6 27 104 0 c57 0 139 7 181 15 l78 15 29 -25 c22
-19 41 -25 76 -25 97 0 283 72 372 144 25 19 50 34 55 33 6 -2 20 -22 33 -44z
m85 -170 c41 -81 39 -93 -12 -93 -37 0 -242 -48 -365 -85 -152 -46 -194 -55
-321 -66 -110 -9 -231 -4 -255 11 -7 5 -19 42 -25 83 l-12 75 191 5 c132 3
209 10 251 21 33 9 131 37 218 62 146 42 222 60 272 63 16 1 29 -16 58 -76z
m-1233 -13 c0 -19 -7 -33 -21 -40 -32 -18 -255 -25 -322 -10 -70 14 -71 32 -2
42 26 4 55 14 64 22 12 13 41 16 148 16 l133 0 0 -30z m-671 -179 c30 -12 78
-25 108 -28 64 -7 81 5 113 79 18 42 25 49 43 44 77 -19 184 -28 273 -22 56 3
108 8 116 11 12 5 16 -9 22 -71 4 -42 5 -78 3 -81 -9 -9 -317 -4 -427 7 -211
21 -319 52 -405 118 -29 22 -51 47 -53 60 -3 20 7 15 75 -35 44 -33 103 -69
132 -82z"/>
<path d="M4650 6462 c0 -11 60 -67 87 -81 47 -24 148 -37 233 -30 72 5 97 12
165 47 44 23 75 41 68 42 -6 0 -83 -18 -172 -40 l-160 -41 -111 56 c-60 30
-110 52 -110 47z"/>
<path d="M2426 5574 c-3 -9 -6 -17 -6 -20 0 -2 64 -35 143 -73 129 -62 147
-74 182 -120 41 -54 58 -59 63 -22 5 32 -54 99 -123 140 -44 27 -234 111 -250
111 -2 0 -6 -7 -9 -16z"/>
<path d="M5075 2137 c-44 -24 -173 -101 -287 -171 -153 -94 -208 -133 -208
-147 0 -31 23 -23 137 50 124 78 343 210 421 253 51 29 69 58 35 58 -10 0 -54
-20 -98 -43z"/>
<path d="M3808 3424 c-14 -22 -57 -97 -98 -169 -161 -287 -207 -364 -271 -462
-54 -80 -66 -103 -55 -112 9 -8 18 -5 33 12 36 38 188 277 260 407 38 69 96
171 128 228 53 94 57 105 42 119 -14 14 -17 12 -39 -23z"/>
</g>
</svg>
