<?xml version="1.0" encoding="UTF-8" standalone="no"?>
<svg
   xmlns:dc="http://purl.org/dc/elements/1.1/"
   xmlns:cc="http://creativecommons.org/ns#"
   xmlns:rdf="http://www.w3.org/1999/02/22-rdf-syntax-ns#"
   xmlns:svg="http://www.w3.org/2000/svg"
   xmlns="http://www.w3.org/2000/svg"
   xmlns:sodipodi="http://sodipodi.sourceforge.net/DTD/sodipodi-0.dtd"
   xmlns:inkscape="http://www.inkscape.org/namespaces/inkscape"
   version="1.0"
   width="850.000000pt"
   height="850.000000pt"
   viewBox="0 0 850.000000 850.000000"
   preserveAspectRatio="xMidYMid meet"
   id="svg78"
   sodipodi:docname="19.svg"
   inkscape:version="0.92.2 5c3e80d, 2017-08-06">
  <defs
     id="defs82" />
  <sodipodi:namedview
     pagecolor="#ffffff"
     bordercolor="#666666"
     borderopacity="1"
     objecttolerance="10"
     gridtolerance="10"
     guidetolerance="10"
     inkscape:pageopacity="0"
     inkscape:pageshadow="2"
     inkscape:window-width="1920"
     inkscape:window-height="978"
     id="namedview80"
     showgrid="false"
     inkscape:zoom="0.29448918"
     inkscape:cx="509.10313"
     inkscape:cy="496.85615"
     inkscape:window-x="0"
     inkscape:window-y="1"
     inkscape:window-maximized="1"
     inkscape:current-layer="svg78" />
  <metadata
     id="metadata2">
Created by potrace 1.14, written by Peter Selinger 2001-2017
<rdf:RDF>
  <cc:Work
     rdf:about="">
    <dc:format>image/svg+xml</dc:format>
    <dc:type
       rdf:resource="http://purl.org/dc/dcmitype/StillImage" />
  </cc:Work>
</rdf:RDF>
</metadata>
  <g
     transform="translate(0.000000,850.000000) scale(0.100000,-0.100000)"
     fill="#000000"
     stroke="none"
     id="g76">
    <path
       d="M0 4250 l0 -4250 2348 0 c2340 0 2347 0 2315 20 -60 36 -184 234 -208 333 -10 38 -18 34 -37 -21 -10 -26 -33 -63 -53 -82 -31 -30 -43 -35 -85 -35 -58 0 -122 40 -151 95 -38 69 -23 329 36 637 31 159 31 156 -61 168 -69 8 -74 5 -154 -126 -224 -364 -555 -615 -907 -688 -190 -40 -572 -53 -751 -26 -218 32 -294 55 -466 135 -160 75 -219 90 -352 90 -63 0 -114 3 -114 8 0 4 21 25 47 48 l47 41 -58 26 c-138 63 -262 180 -321 302 -46 94 -51 117 -27 132 17 10 23 6 48 -35 75 -119 140 -179 232 -215 l42 -17 -54 77 c-168 241 -247 553 -233 913 7 172 33 318 88 484 52 158 122 289 285 528 214 315 312 475 334 546 38 123 21 230 -48 299 -41 40 -89 48 -167 28 -79 -21 -134 -54 -184 -111 -56 -64 -76 -132 -76 -259 1 -128 26 -197 96 -267 27 -27 49 -51 49 -52 0 -8 -64 -26 -89 -26 -44 0 -125 45 -163 90 -78 90 -155 291 -159 414 -2 30 -3 33 -6 14 -6 -37 -46 -39 -69 -3 -15 23 -16 49 -11 218 7 221 23 313 92 540 69 224 124 323 260 466 44 46 124 117 177 157 78 58 94 74 79 79 -34 10 -145 86 -189 128 -42 40 -89 114 -79 124 3 2 58 -14 123 -36 248 -83 405 -89 689 -26 299 65 555 58 825 -25 116 -36 242 -115 352 -222 96 -94 159 -180 218 -298 86 -173 114 -288 114 -475 -1 -210 -46 -399 -148 -611 -118 -246 -212 -345 -611 -644 -300 -225 -386 -300 -474 -417 -250 -329 -203 -712 115 -939 110 -79 268 -139 379 -146 l50 -3 6 200 c7 211 18 283 68 448 87 279 212 483 501 812 340 386 500 677 500 909 0 42 -16 153 -39 271 -55 279 -66 389 -52 509 14 123 52 242 95 297 l33 44 -99 147 c-54 82 -101 148 -103 148 -3 0 2 -16 10 -36 39 -94 7 -102 -104 -27 -169 113 -350 326 -459 537 l-36 71 -7 -45 c-4 -25 -8 -119 -8 -209 l-1 -165 -31 30 c-108 102 -221 301 -258 454 -21 88 -68 371 -78 473 -5 47 -9 57 -22 53 -90 -26 -169 -12 -306 54 -125 60 -213 126 -335 250 -272 277 -444 655 -485 1065 -21 207 -53 331 -114 440 -27 48 -50 125 -38 125 3 0 17 -4 31 -10 14 -5 26 -6 26 -2 0 4 -18 62 -40 127 -46 137 -48 158 -18 179 20 15 -50 16 -775 16 l-797 0 0 -4250z"
       id="path4"
       style="fill:none" />
    <path
       d="M1647 8423 c91 -152 163 -231 278 -310 88 -59 114 -71 290 -130 205 -69 250 -73 495 -42 255 31 496 31 669 -1 121 -22 126 -22 158 -5 36 20 41 30 19 38 -7 3 -25 29 -40 58 -22 44 -26 66 -26 136 0 56 4 83 12 83 6 0 44 -25 85 -55 124 -94 142 -95 365 -20 184 61 308 85 450 85 123 0 200 -15 423 -84 159 -49 181 -54 190 -40 58 92 58 92 405 -72 l140 -66 67 21 c156 48 240 50 743 21 291 -17 531 0 690 49 115 36 185 85 329 231 l133 135 -7 -65 c-4 -36 -18 -94 -32 -130 -40 -106 -39 -100 -5 -91 29 9 52 -1 52 -22 0 -4 -25 -46 -56 -92 -81 -123 -146 -268 -213 -472 -119 -359 -180 -481 -332 -669 -228 -281 -505 -492 -672 -513 l-51 -6 -27 -160 c-30 -185 -32 -193 -106 -420 -51 -159 -55 -179 -62 -300 -14 -263 15 -423 100 -555 23 -36 86 -108 138 -160 209 -207 436 -312 734 -342 64 -6 117 -15 117 -19 0 -4 -15 -20 -34 -34 -41 -31 -187 -65 -286 -65 -80 -1 -81 1 113 -107 77 -43 161 -97 187 -120 99 -89 231 -324 286 -508 31 -108 44 -276 24 -325 -12 -29 -14 -30 -31 -14 -11 10 -20 37 -24 73 -12 105 -54 172 -194 311 -123 122 -225 200 -306 235 -77 33 -205 83 -205 80 0 -2 34 -51 75 -110 70 -101 334 -519 423 -670 88 -151 138 -393 152 -735 11 -258 6 -293 -57 -456 -53 -135 -98 -213 -204 -354 -130 -173 -223 -251 -404 -342 -152 -77 -213 -99 -258 -96 l-40 3 95 78 c145 119 252 256 343 437 89 177 105 261 85 438 -33 297 -113 440 -355 636 -116 93 -244 219 -305 300 -24 31 -44 55 -46 53 -10 -10 68 -217 145 -381 28 -60 51 -110 51 -112 0 -2 -8 -4 -17 -4 -68 0 -181 142 -375 468 -50 84 -93 151 -95 149 -13 -14 51 -395 98 -582 97 -385 226 -662 407 -872 40 -47 60 -77 56 -87 -16 -42 -86 7 -230 160 -259 274 -417 535 -535 885 -23 68 -45 127 -49 132 -9 11 7 -118 31 -248 26 -141 67 -300 130 -494 60 -188 85 -315 100 -503 32 -401 -50 -540 -321 -542 -85 0 -103 3 -172 32 -100 42 -139 41 -236 -4 -42 -20 -95 -43 -117 -51 -60 -21 -171 -18 -245 7 -34 12 -65 19 -68 15 -3 -3 22 -119 56 -258 108 -443 114 -477 116 -627 1 -151 -6 -173 -67 -210 -32 -20 -20 -20 1836 -20 l1867 0 0 4250 0 4250 -3450 0 -3450 0 47 -77z"
       id="path6"
       style="fill:none" />
    <path
       d="M1654 8285 c4 -16 34 -85 67 -153 49 -99 58 -126 49 -138 -18 -21 -25 -18 -59 28 -36 49 -38 46 -11 -17 34 -80 59 -191 80 -359 44 -345 118 -565 268 -796 177 -274 439 -493 641 -536 89 -18 135 -18 160 4 17 14 26 48 51 206 32 199 38 265 24 287 -36 59 -209 299 -260 359 -109 131 -324 333 -484 456 -349 267 -390 302 -390 334 0 17 2 30 5 30 6 0 338 -253 405 -309 351 -292 499 -446 667 -693 l81 -118 16 91 c40 219 166 515 290 679 35 47 96 116 136 154 49 48 67 71 59 77 -52 31 -465 44 -664 20 -325 -39 -362 -36 -595 40 -171 56 -206 72 -295 132 -81 55 -138 109 -198 187 -42 55 -49 60 -43 35z"
       id="path8"
       style="fill:#ee82ee" />
    <path
       d="M7349 8195 c-80 -69 -253 -157 -369 -186 -83 -22 -95 -22 -648 -16 -536 5 -568 5 -640 -14 -43 -10 -83 -21 -90 -24 -9 -3 27 -47 100 -124 62 -65 144 -161 181 -212 82 -114 188 -324 220 -437 l24 -83 84 113 c146 198 365 394 649 584 197 131 430 256 430 230 0 -28 -33 -60 -94 -92 -110 -58 -283 -161 -371 -222 -281 -195 -569 -481 -655 -651 -25 -50 -25 -74 4 -346 32 -293 25 -283 140 -241 105 39 200 103 336 229 312 287 395 424 575 947 65 190 119 313 169 387 31 46 25 55 -12 20 -27 -26 -55 -33 -86 -21 -12 5 -6 15 28 49 39 39 103 151 93 162 -3 2 -33 -21 -68 -52z"
       id="path10"
       style="fill:#ee82ee" />
    <path
       d="M4192 8190 c-137 -19 -240 -68 -534 -255 -153 -97 -183 -120 -256 -201 -118 -130 -165 -200 -237 -349 -76 -158 -91 -204 -36 -111 90 151 270 348 328 359 15 3 29 4 30 3 2 -1 -38 -47 -88 -102 -203 -221 -278 -352 -360 -634 -100 -345 -104 -366 -103 -611 3 -351 28 -498 124 -705 30 -66 114 -204 123 -204 1 0 2 55 2 123 0 84 6 144 19 194 13 52 15 76 7 91 -18 34 -71 234 -86 326 -50 307 -19 591 92 850 55 127 191 372 223 401 19 17 22 17 37 2 15 -15 14 -18 -9 -49 -38 -50 -155 -267 -200 -371 -98 -225 -124 -381 -107 -632 28 -421 167 -767 414 -1032 65 -70 193 -183 207 -183 3 0 -17 78 -44 173 -104 369 -128 476 -144 642 -30 295 -19 613 26 793 19 76 204 462 221 462 21 0 39 -14 39 -30 0 -9 -24 -54 -54 -99 -81 -121 -90 -150 -83 -278 3 -67 12 -131 24 -168 l20 -60 7 60 c14 127 37 218 77 312 39 92 42 106 50 233 4 74 8 143 8 153 1 9 5 17 10 17 9 0 14 -41 31 -225 29 -315 122 -632 248 -850 41 -69 122 -178 129 -172 2 3 -19 83 -46 178 -69 239 -81 303 -81 432 0 162 8 217 31 217 18 0 19 -10 19 -120 0 -211 36 -425 100 -594 l23 -59 18 24 c62 80 155 317 195 499 35 159 20 381 -40 575 -14 43 -24 81 -22 82 6 6 154 -126 215 -193 34 -38 81 -99 103 -136 43 -72 88 -200 88 -248 0 -48 14 -35 42 38 44 115 53 168 53 324 0 82 2 148 4 148 2 0 19 -12 38 -26 58 -44 150 -251 182 -409 l18 -90 8 69 c4 38 5 112 2 163 -4 76 -11 106 -37 162 -18 38 -49 86 -70 106 -36 35 -43 65 -16 65 18 0 130 -119 165 -175 51 -81 89 -194 122 -362 17 -87 44 -192 60 -233 16 -41 34 -100 40 -130 13 -59 5 -101 -40 -224 -18 -47 -24 -96 -32 -235 -11 -205 -20 -273 -55 -396 -49 -174 -114 -316 -180 -394 -32 -37 -34 -41 -14 -41 36 0 177 60 240 101 104 70 225 224 280 357 32 77 70 236 107 455 25 149 25 156 14 347 -30 489 -55 605 -162 763 -37 54 -65 117 -53 117 33 0 121 -109 164 -204 86 -191 133 -679 95 -991 -24 -200 -59 -357 -119 -537 -29 -87 -52 -158 -50 -158 5 0 136 223 184 315 165 310 235 723 186 1093 -9 67 -19 128 -21 135 -3 6 -16 79 -30 161 -37 219 -106 382 -238 559 -74 100 -331 359 -407 410 -55 37 -294 137 -328 137 -9 0 -23 -10 -31 -22 -7 -13 -36 -54 -65 -91 -39 -52 -64 -75 -109 -98 -32 -16 -60 -29 -63 -29 -3 0 26 35 65 78 64 69 69 78 53 90 -9 7 -93 38 -187 69 l-170 56 -170 3 c-93 1 -199 -1 -233 -6z"
       id="path12"
       style="fill:#9400d3" />
    <path
       d="M4663 7032 c26 -152 14 -363 -29 -506 -5 -18 -1 -16 27 10 21 19 74 46 134 69 55 21 101 39 103 41 2 1 -1 35 -7 76 -17 125 -80 253 -175 356 -72 78 -74 75 -53 -46z"
       id="path14"
       style="fill:#d2b48c" />
    <path
       d="M5097 7000 c-6 -99 -38 -226 -81 -324 l-25 -56 121 0 121 0 -6 88 c-6 94 -32 186 -89 312 l-35 75 -6 -95z"
       id="path16"
       style="fill:#d2b48c" />
    <path
       d="M3916 6888 c-40 -92 -70 -274 -60 -364 7 -53 7 -53 48 -60 22 -3 53 -12 67 -20 34 -17 85 -77 70 -82 -7 -2 -4 -13 8 -28 40 -51 74 -300 63 -466 -4 -74 -6 -77 -34 -89 -38 -16 -131 -16 -184 -1 -32 9 -43 18 -49 39 -3 15 -17 39 -30 55 -49 58 -85 198 -85 331 0 72 -10 85 -30 36 -21 -50 -16 -157 9 -206 11 -23 21 -54 21 -68 0 -23 -3 -25 -22 -19 -13 3 -31 13 -40 22 -17 14 -18 13 -18 -9 0 -50 32 -267 51 -349 31 -134 70 -186 209 -285 177 -125 332 -185 500 -192 133 -7 224 7 375 58 344 115 571 280 619 450 23 81 37 292 29 431 -4 68 -9 112 -11 99 -2 -14 -17 -60 -33 -103 -57 -156 -72 -165 -292 -183 -210 -17 -208 -18 -236 102 -19 82 -42 222 -57 337 l-6 48 -37 -36 -38 -37 -54 70 c-29 39 -56 67 -60 63 -3 -4 -14 -29 -24 -57 -10 -27 -49 -111 -86 -185 -72 -142 -76 -154 -58 -193 8 -18 8 -30 0 -46 l-12 -21 -42 29 c-171 117 -336 431 -413 781 -14 63 -29 131 -33 150 l-8 35 -17 -37z m634 -1439 c0 -50 -38 -92 -98 -108 -48 -14 -70 -10 -177 31 -88 34 -118 53 -70 45 17 -3 74 -11 129 -18 114 -15 135 -9 175 54 13 20 28 37 33 37 4 0 8 -18 8 -41z"
       id="path18"
       style="fill:#d2b48c" />
    <path
       d="M3672 6685 c-26 -96 -44 -285 -26 -285 5 0 34 10 65 22 l56 22 -24 60 c-14 33 -33 97 -43 141 l-17 80 -11 -40z"
       id="path20"
       style="fill:#d2b48c" />
    <path
       d="M5023 6465 c-34 -7 -83 -23 -109 -34 l-47 -21 6 -108 c5 -103 38 -287 59 -326 9 -17 22 -18 156 -14 214 6 209 1 264 228 20 79 22 107 16 165 -5 38 -15 76 -22 83 -37 38 -208 52 -323 27z"
       id="path22"
       style="fill:#008000" />
    <path
       d="M3807 6313 c-4 -3 -7 -36 -7 -73 0 -149 48 -308 111 -365 34 -30 46 -35 91 -35 l51 0 -6 163 c-7 183 -17 226 -63 267 -40 35 -157 64 -177 43z"
       id="path24"
       style="fill:#008000" />
    <path
       d="M5908 5470 c-66 -117 -68 -129 -43 -363 26 -236 58 -334 162 -497 146 -228 183 -280 252 -352 101 -106 154 -139 396 -243 223 -96 306 -144 423 -247 76 -67 184 -183 203 -219 24 -46 16 -7 -22 111 -68 210 -153 347 -272 439 -31 23 -121 77 -199 118 -202 105 -320 187 -448 310 -215 206 -348 422 -391 637 -6 28 -14 123 -17 211 l-7 160 -37 -65z"
       id="path26"
       style="fill:#9932cc" />
    <path
       d="M5141 5286 c-30 -18 -58 -40 -62 -49 -9 -15 37 -177 51 -177 10 0 67 74 81 103 12 26 4 157 -9 157 -4 0 -31 -16 -61 -34z"
       id="path28"
       style="fill:#9932cc" />
    <path
       d="M5588 5205 c-48 -51 -93 -106 -99 -121 -15 -38 -4 -259 21 -461 25 -193 61 -378 110 -568 43 -168 149 -500 156 -492 3 3 -4 70 -16 149 -25 175 -42 415 -35 523 3 44 10 177 16 295 6 118 19 321 30 450 27 333 33 311 -59 212 -70 -76 -79 -82 -92 -67 -12 14 -9 26 24 92 20 41 36 77 34 78 -2 2 -42 -39 -90 -90z"
       id="path30"
       style="fill:#9400d3" />
    <path
       d="M3880 5274 c0 -20 198 -387 213 -396 19 -10 87 6 87 21 0 4 -14 20 -30 36 -40 38 -120 155 -158 231 -21 42 -43 69 -71 87 -23 15 -41 24 -41 21z"
       id="path32"
       style="fill:#9932cc" />
    <path
       d="M4965 5197 c-40 -22 -40 -23 -43 -87 -2 -38 3 -82 11 -105 l14 -40 64 3 c35 2 67 7 71 10 8 8 -55 219 -69 233 -5 5 -26 -2 -48 -14z"
       id="path34"
       style="fill:#9932cc" />
    <path
       d="M4056 5159 c100 -133 179 -231 194 -239 28 -15 96 -12 109 4 7 9 11 40 9 78 l-3 63 -45 14 c-54 16 -227 75 -255 87 -16 6 -18 5 -9 -7z"
       id="path36"
       style="fill:#9932cc" />
    <path
       d="M4770 5126 c-113 -38 -202 -56 -276 -56 l-62 0 -4 -98 c-4 -106 -22 -153 -74 -187 -29 -18 -28 -22 -9 44 l7 24 -83 -5 c-174 -10 -245 -89 -285 -321 -19 -107 -14 -274 11 -402 33 -168 127 -606 157 -730 56 -233 127 -410 199 -498 55 -67 82 -48 110 75 31 138 27 213 -47 988 -36 381 -53 447 -138 549 -34 40 -35 44 -19 56 15 11 21 11 33 0 10 -9 20 -11 30 -5 26 17 37 11 48 -29 l12 -39 48 5 c109 12 116 15 125 61 13 64 53 55 52 -13 l0 -39 115 -22 c155 -30 142 -33 138 31 -3 54 -3 55 25 55 15 0 27 -5 27 -13 0 -7 10 -13 21 -14 12 -1 23 -4 26 -6 9 -10 -118 -478 -176 -647 -32 -96 -87 -256 -121 -355 -91 -268 -120 -375 -134 -498 -15 -125 -8 -160 32 -165 58 -9 135 90 220 284 158 362 508 1219 529 1299 56 205 4 374 -133 441 -54 26 -58 27 -132 16 -126 -20 -130 -19 -153 34 -12 26 -24 81 -27 127 l-7 82 -85 -29z"
       id="path38"
       style="fill:#d2b48c" />
    <path
       d="M2350 5099 c-41 -5 -142 -23 -225 -40 -245 -50 -433 -50 -611 1 -35 10 -64 15 -64 11 0 -12 101 -74 172 -106 37 -16 68 -33 68 -37 0 -4 -34 -30 -75 -58 -185 -125 -330 -271 -409 -412 -45 -82 -153 -426 -171 -548 -8 -52 -15 -124 -15 -160 l1 -65 37 110 c76 220 197 413 355 561 131 123 252 185 387 197 l65 6 -160 -79 c-221 -109 -336 -211 -455 -404 -103 -166 -145 -339 -137 -571 5 -168 22 -236 91 -359 34 -61 97 -126 122 -126 6 0 -4 29 -21 64 -67 132 -69 307 -4 445 58 125 169 255 257 300 120 61 311 79 433 41 121 -37 212 -122 250 -233 12 -33 11 -39 -1 -47 -24 -15 -28 -12 -50 37 -62 139 -177 205 -360 204 -102 0 -184 -23 -265 -76 -65 -41 -78 -60 -29 -39 42 18 136 20 176 5 45 -17 104 -79 129 -134 32 -72 33 -210 3 -278 -26 -57 -211 -351 -361 -573 -259 -384 -355 -697 -340 -1101 14 -366 104 -610 315 -853 30 -34 52 -65 49 -68 -9 -9 -132 14 -190 36 -46 17 -49 18 -29 2 83 -61 149 -92 241 -112 153 -34 154 -35 101 -49 -25 -6 -58 -15 -75 -20 l-30 -9 35 -1 c19 -1 85 -22 145 -47 241 -100 285 -117 410 -149 180 -46 314 -57 555 -45 446 24 594 69 837 257 87 67 254 239 328 338 99 132 188 342 224 527 33 174 36 258 12 373 -25 117 -51 307 -51 371 0 24 -2 44 -6 44 -10 0 -154 -110 -154 -118 0 -5 -47 -44 -105 -88 -93 -70 -111 -88 -149 -154 -136 -235 -348 -447 -545 -547 -71 -35 -82 -38 -161 -38 -148 1 -315 67 -460 182 -130 103 -216 232 -255 381 -23 90 -33 250 -23 370 30 367 296 889 535 1050 34 23 63 40 63 37 0 -3 -33 -44 -74 -90 -208 -233 -338 -465 -411 -730 -28 -104 -56 -258 -39 -215 80 197 254 381 569 600 215 149 301 218 396 318 177 184 290 400 346 662 26 121 25 367 -1 470 -60 236 -227 482 -415 609 -211 143 -488 203 -781 170z"
       id="path40"
       style="fill:#ee82ee" />
    <path
       d="M5373 5060 c-24 -10 -43 -21 -43 -23 0 -3 7 -23 15 -46 23 -67 52 -195 75 -341 43 -273 61 -366 82 -430 23 -74 41 -102 27 -44 -43 185 -87 524 -96 747 -3 86 -9 157 -12 157 -3 0 -25 -9 -48 -20z"
       id="path42"
       style="fill:#9932cc" />
    <path
       d="M5203 5017 c-29 -5 -53 -15 -53 -21 0 -7 33 -38 74 -70 41 -32 77 -65 81 -74 14 -37 14 2 -1 74 -15 74 -28 106 -43 103 -3 -1 -30 -6 -58 -12z"
       id="path44"
       style="fill:#800080" />
    <path
       d="M5807 4723 c-26 -319 -28 -854 -4 -988 61 -345 114 -493 254 -703 57 -86 103 -153 103 -149 0 4 -18 60 -40 124 -191 553 -261 949 -265 1488 -2 295 -10 445 -24 445 -4 0 -15 -98 -24 -217z"
       id="path46"
       style="fill:#9932cc" />
    <path
       d="M5914 4390 c6 -511 43 -674 221 -975 81 -138 228 -340 324 -445 321 -352 400 -490 432 -750 21 -172 7 -310 -46 -445 -18 -49 80 99 120 180 53 107 84 210 132 445 48 238 48 309 -1 454 -44 132 -108 270 -168 363 -56 86 -198 263 -409 508 -267 311 -369 460 -490 715 -33 69 -73 152 -89 185 l-30 60 4 -295z"
       id="path48"
       style="fill:#9400d3" />
    <path
       d="M6318 4643 c26 -48 209 -200 272 -227 49 -20 157 -30 232 -21 l63 8 -91 23 c-168 43 -320 111 -432 196 -32 24 -50 33 -44 21z"
       id="path50"
       style="fill:#9400d3" />
    <path
       d="M5348 4405 c-52 -158 -62 -252 -55 -527 12 -493 103 -948 254 -1268 29 -62 42 -83 38 -60 -39 212 -47 278 -55 420 -6 127 -13 179 -29 225 -30 83 -67 276 -82 420 -7 67 -12 258 -12 435 1 190 -4 345 -11 390 l-11 75 -37 -110z"
       id="path52"
       style="fill:#800080" />
    <path
       d="M4418 4444 c-22 -7 -23 -1 7 -147 33 -165 50 -308 76 -657 12 -162 25 -298 28 -303 4 -4 26 53 50 125 23 73 71 212 106 310 71 194 126 383 151 521 14 77 15 91 2 103 -22 22 -372 62 -420 48z"
       id="path54"
       style="fill:#00bfff" />
    <path
       d="M6190 4255 c104 -175 221 -328 479 -625 84 -96 177 -207 206 -246 103 -136 206 -320 276 -493 40 -99 48 -86 19 30 -48 189 -67 224 -373 684 -271 408 -254 386 -371 463 -58 38 -135 100 -181 147 -65 66 -75 73 -55 40z"
       id="path56"
       style="fill:#9932cc" />
    <path
       d="M5455 4050 c10 -271 16 -395 26 -480 14 -119 76 -390 111 -485 16 -44 61 -169 99 -278 85 -241 137 -361 212 -490 57 -96 173 -255 242 -332 l36 -40 -26 45 c-59 102 -141 272 -182 380 -111 293 -164 537 -183 837 -11 190 -22 237 -99 432 -32 80 -66 171 -76 201 -10 30 -41 100 -70 155 -28 55 -61 123 -73 150 l-21 50 4 -145z"
       id="path58"
       style="fill:#9400d3" />
    <path
       d="M5221 4098 c-5 -13 -20 -51 -35 -85 -24 -58 -26 -72 -26 -220 0 -201 17 -456 36 -553 9 -41 26 -99 39 -128 25 -55 146 -254 151 -249 2 2 -3 24 -11 50 -77 257 -134 674 -138 1011 -1 108 -3 196 -5 196 -1 0 -6 -10 -11 -22z"
       id="path60"
       style="fill:#800080" />
    <path
       d="M4941 3422 c-137 -367 -192 -476 -278 -552 -55 -48 -101 -59 -150 -36 -34 16 -37 16 -57 -4 -35 -32 -88 -27 -132 13 -44 38 -117 184 -164 327 -27 81 -99 364 -100 395 -1 6 -18 -37 -39 -95 -51 -142 -65 -168 -203 -368 -121 -175 -165 -231 -317 -402 -312 -353 -458 -660 -501 -1060 -13 -115 -5 -270 13 -270 27 0 128 124 202 250 113 189 198 275 355 355 150 76 187 101 295 204 50 47 115 99 143 114 119 65 388 88 548 47 79 -20 296 -120 345 -159 15 -11 44 -47 64 -78 111 -170 191 -243 367 -334 140 -73 186 -118 268 -264 60 -108 132 -195 160 -195 39 0 50 166 25 385 -53 451 -116 618 -415 1090 -145 229 -215 355 -260 470 -36 90 -80 270 -80 328 0 20 -3 37 -7 37 -5 0 -41 -89 -82 -198z"
       id="path62"
       style="fill:#00bfff" />
    <path
       d="M6020 3504 c0 -44 88 -216 171 -334 53 -76 218 -254 252 -271 17 -10 -104 154 -124 166 -26 17 -185 247 -251 365 -26 47 -48 80 -48 74z"
       id="path64" />
    <path
       d="M7171 2517 c-15 -116 -62 -324 -96 -426 -38 -113 -128 -285 -194 -375 -33 -43 -118 -145 -190 -227 -72 -82 -129 -149 -126 -149 3 0 36 15 73 34 220 111 402 331 521 631 62 155 64 163 68 270 4 75 0 139 -11 201 -25 145 -30 150 -45 41z"
       id="path66"
       style="fill:#9932cc" />
    <path
       d="M4197 2294 c-48 -6 -94 -17 -102 -24 -11 -9 -15 -35 -15 -104 0 -135 16 -244 60 -406 21 -80 59 -234 85 -343 87 -377 233 -921 281 -1052 75 -201 190 -339 254 -305 71 38 79 157 25 378 -19 79 -68 295 -109 480 -41 185 -113 492 -160 682 -132 536 -148 610 -144 659 l3 46 -45 0 c-25 1 -84 -5 -133 -11z"
       id="path68"
       style="fill:#d2b48c" />
    <path
       d="M4506 2292 c-2 -4 -13 -55 -25 -113 l-22 -105 31 -135 c17 -74 47 -204 66 -289 40 -175 76 -312 80 -307 5 5 111 549 129 657 17 106 20 196 6 204 -25 16 -261 94 -265 88z"
       id="path70"
       style="fill:#d2b48c" />
    <path
       d="M4845 2103 c-4 -27 -29 -142 -55 -258 -53 -229 -120 -575 -120 -619 0 -23 7 -30 45 -47 24 -11 74 -27 110 -36 84 -20 147 -9 263 49 74 37 93 42 151 42 52 0 81 -7 138 -32 56 -25 85 -32 135 -32 71 0 146 19 195 49 l32 20 -57 58 c-36 37 -80 100 -122 173 -35 63 -82 133 -105 155 -23 24 -91 67 -162 103 -149 78 -217 138 -343 302 -50 66 -93 120 -95 120 -2 0 -7 -21 -10 -47z"
       id="path72"
       style="fill:#00bfff" />
    <path
       d="M4237 1047 c-41 -167 -77 -438 -77 -577 0 -107 15 -151 62 -180 66 -40 105 -23 148 66 45 92 41 138 -39 423 -39 140 -71 260 -71 267 0 23 -18 24 -23 1z"
       id="path74"
       style="fill:#d2b48c" />
  </g>
</svg>
