<?xml version="1.0" standalone="no"?>
<!DOCTYPE svg PUBLIC "-//W3C//DTD SVG 20010904//EN"
 "http://www.w3.org/TR/2001/REC-SVG-20010904/DTD/svg10.dtd">
<svg version="1.0" xmlns="http://www.w3.org/2000/svg"
 width="850.000000pt" height="850.000000pt" viewBox="0 0 850.000000 850.000000"
 preserveAspectRatio="xMidYMid meet">
<metadata>
Created by potrace 1.14, written by Peter Selinger 2001-2017
</metadata>
<g transform="translate(0.000000,850.000000) scale(0.100000,-0.100000)"
fill="#000000" stroke="none">
<path d="M5983 8030 c-78 -47 -161 -156 -223 -292 -33 -73 -51 -91 -65 -68
-18 30 -249 118 -260 100 -2 -4 4 -15 14 -24 21 -19 40 -63 70 -159 l21 -69
-25 -20 c-19 -15 -25 -29 -25 -59 0 -21 -4 -39 -10 -39 -5 0 -10 18 -10 41 0
22 -5 49 -10 60 -11 20 -54 26 -65 9 -4 -6 -15 -8 -24 -5 -31 10 -51 -6 -80
-62 l-28 -55 -12 30 c-26 62 -71 43 -80 -33 l-6 -47 -80 -29 c-43 -16 -84 -34
-89 -39 -19 -19 -65 -10 -96 18 -17 15 -48 59 -68 97 -42 77 -100 126 -174
146 -53 14 -69 0 -46 -39 9 -15 20 -53 23 -83 3 -29 8 -67 10 -84 l5 -30 -83
0 c-71 0 -90 -4 -147 -31 -79 -38 -150 -89 -150 -108 0 -31 136 -101 247 -127
27 -6 54 -12 60 -15 8 -2 3 -13 -14 -31 -41 -43 -141 -181 -148 -203 -3 -11
-11 -20 -16 -20 -6 0 -38 27 -72 60 -84 81 -197 162 -302 214 -84 42 -88 45
-90 80 -2 38 -28 76 -52 76 -7 0 -18 11 -23 25 -14 38 -47 65 -79 65 -16 0
-35 7 -42 16 -9 11 -23 14 -46 11 -18 -3 -35 -2 -38 2 -8 14 -58 20 -77 10
-12 -7 -28 -5 -50 7 -73 38 -318 112 -443 134 -169 29 -423 31 -605 4 l-46 -6
-41 88 c-32 67 -49 125 -72 235 -30 151 -50 199 -82 199 -44 0 -94 -87 -105
-181 -5 -46 6 -142 22 -184 3 -6 -10 -15 -28 -20 -52 -16 -78 -64 -78 -146 0
-37 4 -79 10 -93 9 -23 5 -27 -68 -66 -42 -23 -108 -64 -145 -92 -37 -28 -69
-49 -71 -47 -1 2 1 62 5 134 5 90 4 132 -4 137 -17 10 -93 -48 -139 -105 -41
-52 -98 -163 -98 -192 0 -24 -17 -17 -24 10 -4 14 -33 83 -66 153 -32 70 -62
141 -66 157 -4 17 -9 33 -11 37 -6 12 -155 -213 -176 -267 -28 -70 -27 -199 2
-279 28 -79 74 -155 138 -225 l52 -58 -18 -47 c-30 -79 -38 -83 -110 -46 -80
40 -216 76 -364 95 -129 16 -448 20 -510 6 -73 -17 -106 -70 -81 -129 15 -37
28 -44 124 -70 41 -11 88 -26 104 -32 l29 -11 -22 -22 c-38 -42 -19 -108 44
-147 24 -15 33 -26 27 -34 -33 -42 -15 -118 37 -157 30 -22 31 -23 12 -43 -32
-37 -33 -64 0 -98 23 -25 29 -40 29 -75 0 -34 6 -50 26 -70 26 -26 48 -27 123
-7 21 6 22 5 12 -14 -26 -48 -6 -128 34 -138 29 -7 29 -6 9 -64 -20 -59 -11
-102 32 -149 l34 -39 -12 -53 c-8 -34 -13 -125 -13 -244 0 -104 -2 -177 -5
-161 -3 16 -11 31 -17 33 -30 10 -58 -151 -42 -247 5 -34 8 -64 6 -66 -5 -6
-177 121 -241 178 l-58 52 4 -109 c3 -102 6 -115 37 -172 18 -34 48 -80 67
-101 l33 -40 -107 5 c-72 4 -141 0 -212 -11 -58 -9 -131 -17 -162 -17 l-58 -2
27 -49 c34 -63 118 -140 172 -158 22 -7 41 -16 41 -20 0 -3 -29 -11 -65 -17
-68 -12 -216 -78 -223 -100 -5 -17 82 -99 129 -124 58 -29 170 -50 309 -57
l125 -7 -58 -39 c-68 -45 -154 -137 -189 -203 -28 -52 -64 -170 -55 -179 18
-18 281 63 365 112 31 19 43 22 39 12 -55 -145 -65 -238 -37 -355 12 -51 25
-95 29 -98 14 -8 205 231 247 311 l42 77 4 -129 c3 -85 10 -145 21 -174 29
-81 101 -204 147 -251 44 -46 46 -47 108 -47 34 0 64 4 67 8 3 4 14 6 25 3 28
-7 58 22 66 64 6 30 -4 90 -22 137 -3 9 -1 16 5 16 13 0 53 -77 76 -150 35
-110 74 -154 120 -137 32 13 29 58 -13 184 l-40 124 33 -7 c20 -3 52 -24 82
-52 65 -63 270 -221 396 -305 146 -99 258 -163 451 -259 l169 -85 -79 -6 c-72
-6 -125 -18 -344 -78 -113 -31 -243 -30 -343 5 -43 14 -105 40 -138 56 -33 17
-64 28 -70 25 -20 -13 26 -192 69 -265 58 -100 166 -191 267 -223 110 -36 266
-31 407 13 32 10 58 16 58 13 0 -3 -8 -17 -19 -31 -31 -45 -78 -144 -97 -207
-10 -33 -28 -74 -41 -92 -21 -28 -30 -53 -19 -53 32 0 217 60 270 88 67 35
178 132 220 192 l17 25 -6 -30 c-4 -16 -18 -45 -31 -62 -84 -110 -85 -239 -2
-297 13 -10 55 -38 95 -64 91 -59 212 -195 196 -221 -6 -9 -13 -16 -16 -16 -3
0 -20 23 -39 50 -31 45 -116 115 -139 115 -15 0 -29 -48 -37 -124 l-8 -71 -41
80 c-44 87 -111 180 -167 234 -30 29 -37 32 -51 21 -9 -8 -13 -20 -9 -29 24
-61 153 -425 151 -428 -2 -2 -32 33 -66 77 -71 91 -98 113 -138 108 -38 -4
-35 -30 21 -143 25 -49 43 -91 41 -93 -1 -1 -19 7 -39 19 -28 16 -39 19 -50
10 -12 -10 -11 -19 6 -59 30 -68 99 -163 150 -204 103 -84 165 -106 216 -79
23 12 70 4 137 -24 102 -43 188 -52 285 -29 88 20 118 21 185 4 102 -26 215
14 420 149 111 73 163 95 260 111 32 5 60 12 63 15 14 13 -144 152 -191 168
-7 2 6 25 31 55 52 63 56 92 10 92 -18 0 -57 -11 -86 -25 l-53 -25 21 30 c12
17 42 47 66 67 49 41 58 73 21 73 -53 0 -167 -69 -250 -151 -61 -60 -97 -87
-141 -105 -32 -13 -74 -35 -93 -50 -19 -14 -37 -24 -39 -21 -8 8 47 87 61 87
6 0 20 8 29 19 9 10 29 21 45 24 49 10 75 39 75 86 1 39 4 43 81 101 91 68
263 160 348 186 56 17 59 17 90 -1 75 -43 332 -210 356 -231 l26 -23 -60 0
c-56 0 -109 8 -162 24 -22 7 -22 7 -17 -76 9 -140 22 -224 45 -283 29 -79 110
-165 191 -202 57 -26 73 -29 163 -28 69 0 129 7 195 24 52 13 117 24 143 24
41 1 52 -3 73 -27 39 -46 71 -51 150 -26 156 50 211 118 268 334 47 177 108
257 220 290 63 19 120 19 182 0 92 -28 87 19 -11 93 -87 66 -230 137 -309 152
-60 12 -144 7 -177 -10 -14 -8 -19 -2 -28 37 -27 104 -81 169 -177 209 l-59
25 50 -7 c28 -3 129 -33 225 -65 133 -44 199 -60 273 -68 212 -21 421 29 587
142 25 17 92 76 150 131 104 99 178 146 231 146 14 0 49 -12 78 -26 28 -15 55
-24 58 -21 14 15 -13 67 -60 112 -101 98 -201 126 -470 133 l-188 4 98 60
c363 224 706 526 929 818 66 86 67 87 93 74 14 -8 34 -14 43 -14 9 0 29 -5 43
-12 23 -10 25 -16 25 -74 0 -73 24 -144 49 -144 9 0 26 7 38 15 12 8 28 13 36
9 19 -7 71 38 87 76 7 18 20 30 30 30 26 0 59 46 66 92 6 33 10 38 33 38 30 0
71 25 71 44 0 20 -232 251 -267 265 -29 12 -31 15 -26 49 4 20 23 72 44 117
21 44 56 133 78 198 22 65 43 123 47 128 3 5 18 -17 34 -48 30 -59 103 -143
125 -143 18 0 64 131 71 199 8 75 -8 128 -63 208 -54 78 -72 122 -73 176 0 46
9 47 37 3 33 -52 79 -68 189 -67 71 1 106 -4 146 -19 80 -30 82 -29 75 39 -9
103 -72 207 -149 247 -37 19 -116 29 -163 20 -20 -4 -53 -22 -74 -42 -21 -19
-40 -34 -42 -34 -2 0 -3 60 -1 133 l3 133 58 52 c73 64 145 158 183 239 55
117 49 267 -19 438 -60 153 -81 152 -93 -2 -4 -54 -11 -107 -16 -118 -4 -11
-38 -69 -76 -129 -37 -60 -68 -115 -68 -123 0 -7 -4 -13 -10 -13 -5 0 -10 6
-10 14 0 22 -56 186 -89 258 l-28 64 25 22 c21 20 24 29 19 69 -4 41 -2 49 20
66 18 15 24 27 21 47 -4 26 -2 28 41 33 48 5 91 41 91 75 0 28 -36 79 -69 98
-22 13 -29 23 -24 34 4 8 7 33 8 54 0 36 5 42 44 65 37 23 54 43 81 101 4 8
33 22 66 32 74 22 104 53 104 111 0 30 -7 48 -25 67 l-26 27 25 16 c67 44 135
140 150 212 3 17 2 45 -3 63 -8 28 -6 42 16 87 23 46 25 58 15 79 -61 134
-497 47 -752 -149 -64 -49 -211 -201 -237 -245 -20 -35 -33 -39 -33 -10 0 39
-32 175 -60 258 -71 208 -258 410 -442 477 -35 13 -91 35 -124 49 -88 37 -193
51 -279 39 -42 -7 -77 -7 -87 -2 -10 5 -46 15 -80 22 -57 12 -63 15 -70 44 -4
17 -15 36 -23 43 -8 7 -15 29 -15 49 0 20 -9 50 -20 68 -19 32 -19 32 2 83 20
49 20 53 5 86 -9 19 -23 34 -32 34 -20 0 -19 13 5 60 28 54 27 138 -1 174 -25
32 -61 34 -106 6z m75 -42 c7 -7 12 -21 12 -31 0 -16 -3 -17 -15 -7 -13 11
-14 8 -9 -18 3 -16 1 -38 -5 -49 -10 -16 -10 -17 -11 0 0 35 -20 16 -20 -20 0
-21 -5 -45 -10 -53 -8 -13 -10 -12 -10 3 0 9 -4 17 -10 17 -5 0 -10 -12 -10
-26 0 -17 -6 -28 -20 -31 -18 -5 -40 -54 -40 -90 0 -7 -4 -13 -9 -13 -5 0 -12
6 -14 13 -3 6 -6 0 -6 -15 -1 -14 -7 -28 -13 -30 -7 -3 -11 -18 -10 -36 2 -24
-2 -32 -14 -32 -11 0 -15 -6 -11 -20 3 -10 -1 -24 -8 -30 -10 -8 -19 0 -39 36
-14 26 -26 53 -26 60 0 25 99 219 137 269 40 51 115 115 137 115 6 0 17 -5 24
-12z m-3801 -60 c4 -7 8 -31 8 -53 0 -22 4 -56 9 -75 8 -34 7 -34 -9 -15 -16
20 -16 19 -9 -5 4 -14 9 -38 10 -55 8 -81 13 -100 38 -131 25 -32 24 -48 -2
-22 -25 25 -11 -7 15 -34 16 -17 21 -28 13 -28 -9 0 -8 -6 5 -20 10 -11 14
-20 9 -20 -5 0 -1 -7 9 -14 15 -12 11 -15 -41 -30 -32 -9 -63 -16 -69 -16 -6
0 -14 29 -18 64 -3 35 -17 104 -31 153 -13 48 -24 113 -24 144 0 108 55 206
87 157z m3817 -194 c11 -27 7 -37 -9 -24 -13 11 -15 8 -15 -19 0 -25 -4 -31
-17 -29 -14 2 -19 -6 -23 -38 -3 -23 -14 -49 -23 -58 -9 -10 -17 -26 -17 -37
0 -10 -7 -19 -15 -19 -10 0 -15 -10 -15 -31 0 -34 -22 -58 -54 -59 -15 0 -17
5 -12 30 21 110 130 300 171 300 12 0 26 -7 29 -16z m-3784 -34 c6 -11 8 -20
6 -20 -3 0 -10 9 -16 20 -6 11 -8 20 -6 20 3 0 10 -9 16 -20z m3293 -9 c91
-32 148 -78 177 -146 45 -106 43 -97 20 -85 -11 6 -50 39 -87 73 -65 60 -66
61 -44 22 13 -22 37 -57 53 -78 17 -21 28 -41 24 -44 -9 -9 -71 6 -92 22 -19
15 -19 15 1 10 11 -3 6 1 -12 10 -41 19 -50 35 -21 36 22 1 21 2 -4 12 -30 12
-39 30 -10 21 9 -3 5 2 -10 11 -34 19 -36 29 -5 20 20 -5 19 -4 -5 15 -34 26
-37 45 -5 30 19 -10 18 -7 -5 14 -30 27 -41 59 -13 36 8 -7 15 -8 15 -2 0 5
-10 17 -22 25 -30 21 -22 21 45 -2z m498 -123 c3 -38 -4 -74 -17 -84 -8 -6
-14 -17 -14 -23 0 -21 -35 -51 -48 -42 -10 6 -5 26 25 84 36 73 52 92 54 65z
m-3917 -33 c3 -8 1 -15 -4 -15 -16 0 -9 -83 9 -104 10 -12 11 -17 2 -11 -10 6
-12 3 -7 -13 5 -16 1 -22 -23 -30 -38 -13 -41 -8 -48 67 -4 42 -1 66 11 89 17
34 50 43 60 17z m2544 -64 c47 -24 62 -42 103 -121 43 -84 44 -84 30 -76 -6 4
-31 38 -56 76 -24 39 -49 70 -55 70 -5 0 -10 -2 -10 -5 0 -14 65 -137 82 -155
28 -30 19 -33 -36 -13 -57 21 -80 58 -90 143 -3 30 -9 65 -12 78 -8 27 -3 27
44 3z m722 -30 c0 -34 -13 -61 -25 -49 -7 7 8 88 16 88 5 0 9 -18 9 -39z m-67
-8 c-5 -35 -25 -63 -45 -63 -13 0 -9 27 9 65 23 48 43 47 36 -2z m195 4 c2
-19 -1 -27 -12 -27 -11 0 -16 10 -16 31 0 38 24 35 28 -4z m576 -3 c9 -25 7
-34 -8 -34 -19 0 -28 14 -20 34 8 20 20 20 28 0z m-3096 -30 c116 -17 286 -61
405 -104 73 -27 87 -35 81 -49 -5 -9 -9 -52 -10 -96 -2 -108 -16 -109 -89 -11
-70 95 -92 110 -148 103 -25 -4 -66 0 -98 8 -187 50 -504 63 -694 30 -388 -67
-701 -276 -898 -600 -41 -67 -107 -224 -107 -254 0 -37 -18 -30 -53 20 l-36
51 33 78 c125 297 375 550 688 700 280 133 588 175 926 124z m-1613 -152 c73
-150 98 -276 75 -373 -12 -53 -45 -119 -58 -119 -10 0 -71 149 -89 217 -9 32
-16 93 -17 135 -1 108 -17 104 -31 -7 -9 -72 11 -178 52 -273 19 -46 33 -85
30 -88 -9 -10 -89 100 -119 163 -16 34 -34 90 -40 125 -15 93 1 153 74 283
l62 109 12 -47 c7 -26 29 -82 49 -125z m3803 125 c2 -19 -1 -27 -12 -27 -11 0
-16 10 -16 31 0 38 24 35 28 -4z m901 -22 c97 -14 121 -20 110 -28 -2 -2 -34
-16 -71 -30 -65 -26 -71 -26 -145 -15 -104 16 -580 16 -609 0 -18 -10 -23 -8
-33 14 -6 14 -11 29 -11 33 0 9 113 28 245 42 109 11 387 2 514 -16z m-4379
-73 c0 -97 -22 -173 -61 -215 -33 -35 -33 -37 -5 63 18 64 20 90 6 90 -5 0
-10 -6 -10 -12 0 -21 -102 -218 -113 -218 -12 0 0 99 19 153 28 79 127 217
155 217 5 0 9 -35 9 -78z m4861 28 c53 -10 158 -58 192 -88 9 -8 26 -45 37
-81 11 -36 29 -80 39 -98 19 -30 85 -73 112 -73 20 0 49 32 49 53 0 20 0 20
23 -1 26 -24 122 -180 116 -187 -3 -2 -23 2 -44 10 -53 19 -134 19 -190 -1
-50 -17 -79 -12 -90 14 -4 9 -11 51 -16 92 -21 178 -159 330 -316 348 -36 4
-43 7 -28 13 28 11 54 11 116 -1z m-1368 -54 c-8 -37 -11 -39 -88 -67 -44 -16
-84 -30 -88 -32 -15 -4 -50 51 -44 67 6 16 220 89 225 77 1 -4 -1 -24 -5 -45z
m106 23 c6 -17 8 -56 5 -87 -5 -45 -1 -68 17 -112 26 -64 34 -194 11 -185 -9
3 -11 -1 -7 -15 4 -12 2 -20 -5 -20 -8 0 -9 -10 -5 -30 6 -25 4 -29 -10 -23
-15 5 -16 3 -6 -15 7 -14 8 -23 1 -27 -7 -4 -7 -13 0 -25 9 -16 8 -18 -6 -13
-14 5 -15 3 -4 -18 10 -17 10 -24 1 -27 -8 -3 -6 -10 4 -25 20 -28 19 -38 -2
-30 -14 5 -13 1 5 -24 24 -33 30 -55 10 -35 -23 23 -29 12 -9 -17 23 -31 27
-46 11 -36 -16 10 -12 -13 7 -42 17 -26 17 -27 0 -20 -22 8 -22 1 3 -30 23
-30 27 -51 5 -33 -23 19 -19 -6 6 -38 18 -23 18 -27 4 -32 -14 -5 -14 -8 5
-25 12 -11 26 -27 31 -36 7 -14 5 -16 -14 -11 -21 5 -21 4 7 -34 16 -21 39
-47 50 -56 14 -12 17 -18 7 -18 -8 0 -23 7 -33 17 -10 9 -18 12 -18 6 0 -15
39 -53 55 -53 21 0 19 -18 -2 -23 -14 -3 -9 -8 17 -20 19 -9 29 -16 23 -17
-24 0 -13 -22 17 -33 35 -13 39 -27 8 -27 -21 -1 -21 -2 -6 -11 10 -5 25 -9
34 -7 9 2 19 -3 21 -10 4 -9 -2 -11 -23 -6 -19 5 -25 4 -20 -5 4 -6 23 -11 42
-11 19 0 34 -4 34 -10 0 -5 -9 -10 -20 -10 -11 0 -20 -4 -20 -10 0 -5 18 -10
41 -10 24 0 38 -4 34 -10 -3 -5 -16 -10 -27 -10 -12 0 -18 -3 -15 -7 4 -3 20
-6 37 -5 16 0 30 -4 30 -9 0 -5 -9 -9 -21 -9 -11 0 -18 -4 -14 -9 3 -6 17 -6
35 -1 36 10 41 -6 8 -21 -19 -8 -17 -9 15 -5 40 5 51 -8 16 -19 -14 -5 -18
-10 -11 -17 7 -7 19 -4 36 7 32 21 35 4 4 -18 -17 -12 -19 -16 -7 -16 8 -1 20
4 27 11 6 6 15 8 19 4 4 -4 1 -11 -7 -16 -8 -5 -11 -12 -7 -16 3 -4 13 -1 22
6 20 17 32 5 15 -15 -17 -20 -5 -32 15 -15 8 7 15 8 15 3 0 -5 11 -16 25 -23
13 -7 41 -38 61 -69 21 -31 69 -88 108 -127 93 -93 127 -105 262 -94 208 17
370 111 448 260 21 39 41 70 46 70 16 0 22 -21 9 -36 -15 -18 -3 -32 13 -16 7
7 21 12 33 12 19 0 18 -2 -5 -20 -29 -22 -22 -37 9 -20 25 13 43 5 39 -18 -2
-13 4 -16 29 -14 29 3 47 -9 48 -33 0 -5 14 -10 30 -10 26 0 30 -3 28 -27 -2
-25 1 -27 27 -21 20 3 34 0 45 -11 15 -14 15 -16 1 -16 -9 0 -16 -4 -16 -10 0
-5 11 -10 24 -10 33 0 53 -25 29 -36 -13 -6 -6 -9 27 -13 40 -5 45 -9 42 -29
-2 -16 4 -25 21 -31 35 -14 41 -28 14 -35 -20 -6 -20 -8 13 -22 33 -14 34 -16
16 -29 -17 -13 -16 -15 18 -29 41 -17 47 -33 14 -38 -21 -3 -21 -5 10 -21 34
-19 43 -47 15 -47 -15 -1 -14 -4 7 -21 31 -27 35 -49 7 -49 l-22 -1 23 -18
c25 -22 29 -41 7 -41 -22 0 -19 -9 13 -39 23 -22 24 -26 10 -29 -23 -5 -23
-11 5 -40 15 -17 18 -26 10 -29 -18 -7 -16 -20 8 -44 16 -16 18 -23 8 -35 -10
-12 -8 -19 8 -37 24 -26 26 -57 5 -57 -13 0 -13 -3 1 -18 21 -23 22 -43 2 -36
-23 9 -18 -10 11 -37 23 -22 24 -24 8 -36 -17 -12 -16 -15 9 -41 29 -31 36
-55 12 -46 -9 4 -15 0 -15 -9 0 -8 6 -17 14 -20 14 -6 16 -30 4 -43 -4 -3 2
-14 13 -25 16 -16 17 -23 8 -40 -8 -16 -7 -25 7 -40 14 -15 16 -24 8 -37 -9
-13 -6 -23 10 -45 17 -23 18 -30 7 -36 -11 -7 -10 -15 8 -39 25 -35 27 -52 6
-52 -20 0 -19 -7 5 -37 24 -31 27 -65 5 -57 -21 8 -19 -15 5 -51 24 -36 25
-55 5 -55 -20 0 -19 -19 2 -42 15 -17 15 -20 3 -28 -13 -8 -12 -13 3 -39 15
-26 16 -29 1 -35 -15 -6 -15 -8 0 -24 20 -23 21 -43 1 -36 -11 5 -13 2 -9 -11
6 -14 2 -15 -30 -10 -46 9 -48 -8 -3 -31 17 -10 26 -19 20 -21 -26 -9 -11 -30
30 -43 75 -22 120 -51 224 -144 56 -50 102 -94 102 -98 1 -5 -14 -8 -33 -8
-25 0 -36 5 -41 19 -8 27 -81 91 -103 91 -13 0 -12 -5 10 -23 47 -40 81 -137
59 -174 -9 -15 -10 -13 -11 17 -1 51 -32 113 -73 144 -61 46 -72 29 -22 -32
24 -29 47 -68 51 -87 7 -38 -17 -122 -45 -157 -18 -21 -18 -20 -13 54 5 84 -7
135 -46 186 -15 20 -33 32 -48 32 -30 0 -30 -5 1 -42 53 -62 68 -187 29 -246
-24 -37 -34 -25 -34 41 0 121 -18 148 -105 164 -16 3 -58 18 -91 34 -111 52
-161 34 -173 -62 -7 -62 -33 -86 -57 -54 -10 14 -13 32 -8 58 9 57 56 185 86
237 59 103 60 143 3 319 -50 153 -65 231 -65 336 0 124 -20 194 -91 337 -34
68 -79 176 -100 242 l-39 118 32 60 c23 43 28 62 20 70 -13 13 -72 -41 -72
-66 0 -9 -4 -16 -9 -16 -8 0 -19 23 -35 73 -7 23 -23 22 -31 -3 -4 -13 8 -52
33 -108 22 -48 48 -116 58 -152 9 -36 36 -107 60 -158 24 -51 39 -90 34 -87
-5 3 -11 1 -14 -4 -4 -5 -1 -13 5 -16 6 -4 8 -18 4 -32 -3 -14 -1 -31 6 -39 9
-11 9 -18 -1 -29 -10 -12 -10 -18 0 -30 6 -8 9 -23 5 -35 -4 -12 -2 -20 5 -20
8 0 10 -9 6 -26 -5 -19 -1 -30 16 -45 17 -15 19 -22 10 -26 -10 -4 -10 -9 4
-24 9 -10 14 -25 10 -35 -3 -9 -1 -23 5 -30 6 -8 8 -21 5 -30 -4 -9 -2 -22 2
-28 14 -17 21 -56 11 -56 -5 0 -2 -11 7 -25 15 -23 15 -25 0 -25 -22 0 -20
-21 3 -27 25 -6 34 -30 15 -37 -20 -8 -8 -26 17 -26 17 0 18 -3 9 -21 -9 -17
-8 -23 7 -34 15 -12 16 -17 5 -34 -11 -19 -10 -21 8 -21 28 0 26 -36 -2 -45
-22 -7 -22 -7 -3 -13 25 -9 26 -40 2 -53 -23 -14 -22 -33 3 -26 23 6 23 6 10
-27 -6 -17 -17 -26 -32 -26 -20 -1 -21 -2 -7 -13 12 -10 13 -16 3 -35 -6 -13
-22 -30 -34 -39 -15 -10 -18 -18 -11 -23 21 -12 -5 -57 -39 -69 -18 -6 -30
-16 -28 -23 8 -22 -21 -41 -52 -34 -35 7 -48 -9 -20 -24 46 -25 -9 -38 -62
-15 -13 5 -18 3 -18 -9 0 -9 5 -16 11 -16 5 0 7 -5 3 -11 -4 -8 -9 -8 -17 0
-19 19 -39 13 -32 -10 6 -18 4 -20 -13 -15 -15 5 -22 1 -27 -14 -7 -23 -17
-25 -46 -10 -25 14 -44 3 -29 -15 7 -8 7 -15 1 -19 -5 -4 -12 -2 -16 4 -3 5
-15 15 -27 21 -19 10 -20 9 -14 -15 6 -25 -7 -36 -19 -16 -13 21 -32 10 -27
-15 4 -25 -11 -35 -23 -15 -10 15 -35 12 -29 -4 8 -20 -12 -28 -26 -11 -19 22
-30 18 -30 -11 0 -26 0 -26 -25 -10 -23 15 -27 15 -41 1 -21 -20 -29 -19 -47
8 -15 22 -15 22 -30 2 -15 -19 -16 -19 -36 -1 -21 19 -22 19 -36 0 -14 -19
-14 -19 -29 1 -10 12 -19 16 -23 10 -15 -19 -42 -16 -58 7 -15 21 -17 22 -26
5 -6 -10 -15 -14 -22 -10 -18 11 -47 11 -47 0 0 -6 -11 0 -24 12 -14 13 -26
18 -30 12 -3 -5 -19 -8 -35 -6 -19 3 -31 -1 -35 -11 -3 -8 -17 -14 -31 -14
-28 0 -35 -27 -10 -36 28 -11 16 -26 -15 -19 -23 5 -30 3 -30 -8 0 -8 7 -17
15 -21 23 -8 18 -25 -10 -32 -20 -5 -24 -11 -19 -30 6 -21 3 -24 -25 -24 -34
0 -39 -11 -16 -33 13 -13 13 -16 0 -21 -9 -3 -29 -3 -45 1 -32 6 -41 -10 -14
-25 13 -7 13 -10 1 -20 -11 -9 -22 -10 -41 -2 -36 13 -39 13 -32 -5 10 -28 -3
-45 -29 -35 -28 11 -37 3 -24 -21 10 -20 6 -23 -24 -20 -9 1 -20 -5 -23 -13
-3 -9 -14 -16 -25 -16 -10 0 -22 -7 -27 -16 -5 -9 -15 -14 -23 -12 -8 3 -22
-4 -31 -15 -10 -11 -24 -17 -32 -14 -19 8 -83 -26 -78 -41 2 -7 -6 -12 -22
-12 -13 0 -28 -5 -31 -10 -3 -6 -16 -8 -29 -4 -14 3 -27 -1 -35 -10 -7 -9 -35
-19 -62 -22 -27 -4 -49 -10 -49 -14 0 -4 -18 -20 -41 -36 -22 -15 -61 -56 -85
-90 -63 -88 -71 -90 -220 -44 -81 25 -123 32 -229 36 -156 7 -226 25 -222 57
1 15 -3 21 -13 18 -44 -11 -60 -12 -60 -4 0 5 15 13 33 18 35 11 43 38 12 43
-47 7 -65 13 -65 22 0 5 12 7 28 4 34 -7 68 16 59 40 -5 11 -16 16 -34 14 -24
-3 -28 1 -31 25 -4 32 -3 32 42 11 36 -18 66 -14 66 9 0 7 -20 27 -45 45 -30
21 -43 36 -39 47 9 23 34 18 103 -17 l61 -32 78 14 c42 7 140 14 217 15 159 2
223 16 298 66 92 61 252 250 432 509 83 120 194 266 249 327 38 42 62 58 124
82 141 54 203 63 495 68 345 7 454 -4 641 -64 40 -13 8 23 -45 50 -59 30 -155
52 -263 61 -37 3 -71 7 -73 10 -13 13 167 58 239 59 51 1 78 6 78 13 0 7 -7
15 -16 18 -30 11 -160 6 -214 -9 -221 -60 -297 -74 -445 -79 -89 -3 -182 -12
-230 -22 -181 -41 -270 2 -330 159 -24 64 -38 63 -50 -3 -4 -22 -1 -36 7 -42
10 -6 10 -10 -2 -19 -8 -6 -11 -12 -5 -15 33 -15 39 -22 26 -38 -11 -13 -9
-16 13 -22 14 -3 26 -10 26 -16 0 -5 -4 -6 -10 -3 -5 3 -10 1 -10 -5 0 -6 10
-15 23 -20 12 -5 16 -9 9 -9 -24 -2 -1 -21 24 -21 13 0 24 -4 24 -10 0 -5 -14
-10 -30 -10 -24 0 -30 -4 -28 -17 2 -13 -3 -18 -20 -17 -17 0 -21 -4 -16 -18
4 -14 0 -18 -17 -18 -18 0 -20 -3 -11 -12 19 -19 14 -28 -13 -28 -18 0 -25 -5
-25 -20 0 -14 -5 -18 -17 -13 -13 5 -15 2 -11 -15 7 -24 -3 -27 -33 -12 -20
11 -28 -3 -9 -15 6 -3 10 -13 10 -21 0 -11 -4 -12 -19 -4 -25 13 -44 13 -36 0
11 -18 -17 -11 -31 8 -12 16 -13 16 -20 -1 -6 -17 -7 -17 -26 0 -16 14 -21 15
-28 4 -6 -10 -9 -9 -15 8 -8 26 -22 27 -28 4 -4 -15 -6 -15 -12 5 -8 23 -25
30 -25 10 0 -8 -3 -9 -11 -1 -15 15 -59 4 -52 -13 3 -8 -2 -17 -11 -20 -16 -6
-16 -8 -1 -24 12 -13 13 -20 5 -25 -9 -6 -9 -10 1 -17 11 -7 11 -11 2 -15 -19
-7 -16 -21 7 -28 28 -9 25 -28 -2 -20 l-23 6 24 -20 c20 -18 21 -21 6 -21 -17
0 -17 -1 1 -22 19 -21 19 -21 -3 -16 -24 6 -31 -6 -12 -17 6 -4 8 -13 5 -20
-2 -7 1 -18 7 -24 8 -8 6 -11 -8 -11 -15 0 -16 -3 -7 -12 17 -17 15 -31 -3
-24 -8 3 -15 1 -15 -4 0 -6 5 -10 10 -10 6 0 10 -7 10 -16 0 -8 -3 -13 -8 -10
-7 4 -10 -25 -12 -108 -1 -35 -11 -48 -96 -136 -101 -104 -147 -132 -236 -145
-27 -4 -48 -6 -48 -4 0 2 7 22 15 44 19 54 18 134 -2 241 -14 69 -18 140 -17
319 0 403 31 513 164 580 25 12 104 41 175 63 150 47 282 93 368 128 72 29 77
29 77 6 0 -10 6 -27 14 -37 12 -16 16 -17 30 -6 11 10 16 31 16 75 0 78 28
129 94 173 63 43 114 57 209 56 53 0 77 3 74 11 -7 21 -99 37 -173 31 l-71 -6
-14 48 c-17 62 -15 189 6 276 16 67 15 69 -8 130 -20 49 -26 87 -30 182 -5
121 -18 181 -37 170 -5 -3 -10 -25 -10 -47 l0 -42 -88 85 c-49 46 -131 122
-183 169 -108 98 -196 193 -243 265 -77 118 -113 288 -106 505 2 80 4 210 4
290 0 138 -1 148 -28 210 -56 126 -47 171 55 306 28 38 56 81 61 96 15 42 25
34 33 -23 7 -50 6 -52 -29 -81 -42 -34 -49 -63 -13 -52 84 26 106 59 89 135
-15 63 -15 144 -2 170 16 30 46 24 59 -12z m-1705 -16 c8 -20 -30 -138 -52
-159 -14 -15 -17 -15 -30 2 -17 23 -9 117 14 151 17 27 59 31 68 6z m76 -2
c15 -29 12 -98 -5 -131 -8 -16 -31 -41 -51 -56 -28 -22 -37 -25 -44 -14 -5 9
-2 25 8 43 44 76 52 95 52 128 0 51 20 66 40 30z m2814 4 c138 -23 254 -158
277 -323 12 -83 17 -102 37 -124 19 -22 40 -23 124 -1 58 15 74 15 115 5 139
-37 184 -132 125 -265 l-17 -39 0 74 c0 67 -3 78 -29 112 -29 39 -94 75 -133
76 -13 0 -50 -10 -84 -21 -100 -35 -128 -7 -150 148 -14 103 -41 163 -98 216
-92 86 -195 127 -320 127 -77 0 -75 7 5 19 59 9 73 8 148 -4z m-1822 -45 c49
-18 86 -35 84 -38 -3 -2 -62 2 -131 8 -97 10 -129 10 -138 1 -21 -21 13 -31
103 -31 73 0 125 -11 110 -22 -56 -41 -78 -56 -94 -61 -16 -6 -17 -5 -6 8 18
22 4 31 -18 12 -10 -10 -25 -17 -33 -17 -11 1 -10 4 4 14 27 21 20 28 -13 11
-37 -19 -41 -19 -33 3 5 14 4 15 -8 6 -19 -15 -59 -24 -59 -14 0 5 6 10 13 13
6 2 9 8 4 12 -4 5 -13 3 -19 -3 -19 -19 -30 -14 -23 9 6 18 5 19 -13 10 -12
-6 -28 -11 -38 -11 -14 0 -14 3 -3 16 11 13 9 14 -14 9 -22 -6 -25 -4 -20 13
4 17 69 53 153 86 31 12 108 -2 192 -34z m918 23 c0 -10 -12 -67 -25 -128 -57
-247 -54 -309 21 -458 74 -148 93 -213 100 -351 6 -101 12 -136 39 -211 20
-55 36 -121 40 -170 4 -44 11 -90 16 -102 5 -13 5 -23 0 -23 -5 0 -58 51 -117
113 -124 129 -184 225 -234 375 -30 90 -38 140 -59 363 -10 100 -9 109 14 165
13 34 24 83 25 114 1 30 11 84 23 120 23 73 94 197 117 203 30 9 40 7 40 -10z
m-2545 -26 l130 -22 32 -54 c18 -30 42 -84 54 -120 12 -36 42 -101 66 -143 51
-91 61 -144 43 -228 -14 -65 -30 -80 -30 -27 -1 43 -40 136 -79 185 -37 48
-110 98 -154 108 -18 3 -48 21 -68 39 -54 48 -279 126 -409 141 l-58 6 -6 43
c-4 23 -13 51 -21 61 -8 11 -15 22 -15 26 -1 25 341 15 515 -15z m2425 22 c0
-6 -9 -23 -19 -38 -11 -15 -27 -47 -37 -72 -24 -63 -29 -65 -43 -19 -11 36
-10 44 9 70 36 50 90 86 90 59z m280 -10 c0 -11 -4 -17 -10 -14 -17 11 -11
-28 10 -62 11 -18 15 -33 10 -33 -6 0 -10 5 -10 10 0 6 -4 10 -10 10 -15 0
-12 -26 5 -40 9 -7 14 -19 11 -26 -3 -7 1 -18 9 -24 11 -10 8 -23 -22 -78 -20
-37 -38 -69 -41 -72 -8 -10 -60 59 -78 105 -17 46 -17 51 0 139 10 50 21 94
23 99 2 4 26 7 54 7 43 0 49 -3 49 -21z m76 9 c4 -6 2 -14 -4 -16 -8 -2 -8
-11 3 -32 10 -20 11 -30 3 -32 -7 -3 -7 -10 3 -25 14 -24 8 -40 -11 -28 -28
17 -52 120 -33 138 10 11 31 8 39 -5z m359 2 c-19 -30 -129 -110 -152 -110
-70 0 -161 -81 -222 -200 -43 -82 -81 -128 -66 -80 18 63 84 161 154 231 61
61 94 85 171 123 94 45 127 56 115 36z m-2424 -10 c39 -21 20 -122 -35 -187
-46 -55 -90 -37 -47 18 34 45 51 88 51 134 0 49 1 50 31 35z m2153 -12 c3 -13
1 -24 -4 -26 -6 -2 -10 -10 -10 -17 0 -20 -21 -30 -31 -14 -5 8 -9 29 -9 47 0
27 4 32 24 32 16 0 26 -7 30 -22z m-3444 -13 c17 -9 30 -20 30 -26 0 -7 -10
-5 -25 5 -34 23 -42 20 -18 -6 48 -55 38 -73 -51 -91 l-68 -14 -29 45 c-16 25
-29 49 -29 53 0 4 19 14 43 23 80 29 108 31 147 11z m3952 4 c114 -25 236
-107 278 -189 10 -19 23 -73 28 -120 6 -47 15 -97 21 -112 25 -66 -29 -135
-98 -124 -81 12 -106 104 -56 202 61 118 12 168 -140 143 -60 -10 -78 -10
-130 5 -101 29 -137 60 -159 134 -11 33 10 27 24 -8 17 -42 72 -87 122 -101
28 -7 80 -9 154 -4 123 8 169 -3 198 -48 20 -29 14 -50 -30 -99 -19 -21 -36
-48 -40 -62 -8 -33 21 -84 51 -92 33 -8 50 -1 71 31 14 21 15 31 6 51 -16 33
-42 42 -58 19 -19 -26 -17 -35 6 -35 24 0 26 -13 5 -30 -12 -10 -18 -10 -30 0
-26 22 -17 63 25 114 35 42 40 54 34 80 -11 51 -24 67 -71 88 -41 18 -58 20
-168 13 -141 -8 -174 1 -230 62 -52 56 -48 68 27 82 62 13 100 12 160 0z
m-1482 -11 c0 -7 7 -26 15 -42 13 -24 13 -31 3 -38 -26 -16 -64 62 -41 85 10
11 23 8 23 -5z m1935 -29 c30 -23 55 -44 55 -47 0 -3 -7 -13 -16 -23 -25 -28
-10 -53 26 -45 17 3 30 1 30 -4 0 -13 -29 -40 -44 -40 -27 0 -77 68 -96 131
-11 35 -20 65 -20 67 0 8 17 -3 65 -39z m-3574 4 c14 -16 43 -52 63 -81 21
-29 46 -57 56 -62 27 -15 66 -12 80 5 17 21 37 19 45 -5 5 -14 15 -20 37 -20
18 0 36 -8 47 -21 9 -12 28 -22 42 -23 21 -1 24 -6 23 -39 -1 -20 3 -37 9 -37
5 0 4 -6 -2 -14 -10 -11 -8 -15 6 -19 13 -3 8 -9 -22 -22 -38 -18 -39 -19 -15
-25 22 -5 23 -7 7 -13 -10 -4 -27 -7 -38 -7 -10 0 -19 -5 -19 -11 0 -7 12 -10
30 -7 17 3 30 1 30 -3 0 -9 -26 -19 -53 -19 -21 -1 -21 -1 -3 -15 16 -12 17
-17 6 -30 -10 -12 -9 -16 5 -21 16 -6 15 -9 -6 -25 -22 -17 -23 -19 -4 -19 19
-1 19 -2 -3 -20 -21 -17 -21 -19 -5 -29 17 -9 17 -11 -1 -24 -13 -10 -15 -16
-8 -21 17 -10 15 -26 -3 -26 -21 0 -19 -16 3 -25 16 -6 16 -7 0 -19 -14 -10
-15 -15 -5 -25 9 -9 9 -14 -3 -22 -11 -8 -12 -12 -2 -16 17 -7 15 -23 -3 -23
-17 0 -20 -16 -5 -25 15 -9 12 -25 -5 -25 -8 0 -15 -4 -15 -10 0 -5 5 -10 10
-10 6 0 10 -7 10 -15 0 -8 -7 -15 -15 -15 -20 0 -19 -19 1 -27 15 -6 15 -7 -1
-19 -15 -11 -16 -16 -4 -30 11 -14 11 -17 -4 -25 -20 -12 -23 -33 -3 -26 18 7
14 -22 -5 -34 -12 -8 -12 -10 1 -19 13 -9 13 -12 -2 -24 -22 -16 -23 -26 -3
-26 22 0 18 -17 -5 -23 -23 -6 -27 -27 -5 -27 8 0 15 -4 15 -10 0 -5 -9 -10
-20 -10 -27 0 -25 -18 3 -22 l22 -3 -24 -24 c-21 -21 -22 -25 -7 -33 22 -12
20 -28 -4 -28 -11 0 -20 -4 -20 -10 0 -5 7 -10 15 -10 8 0 15 -7 15 -15 0 -9
-9 -15 -25 -15 -14 0 -25 -4 -25 -10 0 -5 9 -10 21 -10 18 0 19 -2 5 -15 -8
-8 -24 -15 -35 -15 -28 0 -27 -16 2 -25 l22 -8 -23 -4 c-20 -4 -21 -7 -10 -21
11 -13 10 -15 -10 -9 -20 5 -23 2 -19 -14 6 -24 -1 -24 -26 -1 -20 17 -20 16
-14 -15 6 -31 -5 -45 -18 -23 -12 20 -22 9 -17 -17 5 -26 4 -27 -12 -13 -16
13 -18 12 -16 -5 4 -33 1 -38 -15 -25 -13 11 -15 8 -15 -14 0 -23 -3 -26 -20
-21 -16 5 -20 2 -20 -19 0 -18 -4 -24 -15 -20 -11 5 -15 -1 -15 -19 0 -20 -4
-24 -19 -20 -16 4 -19 1 -14 -16 4 -17 2 -20 -12 -14 -13 4 -16 3 -11 -5 8
-13 -4 -15 -28 -6 -27 10 -18 33 37 92 102 111 112 139 82 238 -23 76 -19 121
18 199 60 124 72 171 72 280 0 77 -4 108 -18 133 -18 32 -18 34 9 100 42 105
64 192 64 254 0 48 -7 71 -45 144 -24 48 -52 110 -61 138 -9 28 -30 77 -45
108 -16 32 -29 60 -29 63 0 16 40 1 61 -22z m-1051 -13 c0 -5 -5 -10 -11 -10
-8 0 -8 -4 1 -15 6 -8 9 -19 5 -25 -3 -5 -2 -10 2 -10 5 0 18 -7 29 -15 18
-14 17 -15 -11 -8 -27 6 -29 5 -16 -11 8 -9 12 -17 10 -19 -30 -17 -72 -37
-74 -35 -13 17 -55 97 -55 105 0 11 85 52 108 53 6 0 12 -4 12 -10z m2627 -82
c-40 -22 -165 -131 -204 -176 -24 -28 -68 -86 -99 -129 -68 -94 -64 -90 -58
-61 5 22 4 21 -21 -7 l-27 -30 16 32 c9 17 20 35 26 38 5 3 10 10 10 16 0 20
-17 7 -49 -41 -19 -28 -36 -48 -39 -45 -3 3 16 36 42 75 46 70 50 85 13 53
-11 -10 -17 -12 -13 -5 4 6 2 12 -4 12 -18 0 72 110 154 188 43 40 112 96 153
123 l76 49 20 -41 c19 -38 19 -42 4 -51z m-1027 52 c17 -31 -4 -82 -51 -124
-37 -34 -69 -46 -69 -27 0 5 15 27 33 48 18 22 39 59 46 81 16 47 25 52 41 22z
m1270 1 c0 -5 -21 -33 -46 -63 -60 -69 -94 -140 -94 -199 0 -25 13 -83 28
-130 41 -119 44 -167 27 -330 -8 -79 -15 -175 -15 -213 0 -127 39 -330 84
-437 5 -12 -9 -24 -59 -49 -127 -65 -199 -171 -199 -296 0 -62 3 -78 30 -120
70 -115 216 -131 299 -33 23 29 26 39 23 91 -3 52 -1 58 17 58 53 0 135 -86
156 -164 17 -63 7 -183 -20 -235 -32 -61 -109 -134 -178 -168 -52 -25 -68 -28
-158 -28 -93 0 -105 2 -167 33 -82 40 -173 134 -189 196 -16 61 -55 138 -93
187 l-34 43 44 49 c53 59 120 190 130 252 6 40 11 48 44 65 85 43 130 139 99
213 -8 17 -13 52 -11 77 4 73 -45 134 -120 149 -28 6 -34 12 -41 46 -28 130
-86 281 -152 396 l-26 46 73 106 c159 230 248 315 432 409 61 31 112 57 114
57 1 1 2 -3 2 -8z m-2605 -21 c3 -5 1 -10 -4 -10 -6 0 -11 5 -11 10 0 6 2 10
4 10 3 0 8 -4 11 -10z m3618 -18 c8 -38 46 -74 124 -118 83 -46 138 -96 166
-148 30 -58 29 -144 -1 -215 -24 -53 -26 -102 -7 -145 7 -16 6 -17 -13 -7 -12
7 -29 22 -37 34 -13 20 -12 28 15 81 50 99 37 192 -38 269 -63 64 -154 73
-204 19 -40 -42 -42 -63 -9 -113 39 -59 45 -83 26 -99 -12 -10 -20 -9 -40 4
-28 18 -30 15 -14 -17 22 -41 59 -49 91 -20 29 26 23 82 -13 132 -29 39 -30
44 -16 58 24 24 75 0 94 -45 41 -97 -41 -211 -134 -187 -41 10 -99 74 -113
125 -19 70 -8 212 23 287 23 57 74 133 88 133 4 0 9 -13 12 -28z m-4039 -7
c-4 -8 -1 -15 5 -15 6 0 11 -7 11 -16 0 -9 -5 -12 -12 -8 -9 5 -8 2 1 -9 8
-10 11 -20 8 -24 -4 -3 -2 -12 5 -20 15 -19 -11 -46 -36 -37 -41 16 -55 94
-24 131 15 19 49 17 42 -2z m3843 -57 c-66 -66 -76 -81 -101 -153 -43 -122
-106 -191 -106 -115 0 18 5 30 13 30 21 0 44 30 78 101 44 90 94 155 142 184
23 14 43 25 45 25 2 0 -30 -33 -71 -72z m-3947 -17 c0 -17 -4 -32 -9 -35 -5
-3 -12 -18 -15 -32 -4 -15 -21 -44 -38 -65 -24 -30 -30 -47 -30 -81 1 -71 -3
-233 -6 -267 -2 -9 -10 -11 -28 -7 -38 10 -60 -1 -84 -38 -27 -44 -25 -78 6
-125 17 -26 25 -53 26 -81 0 -37 -5 -47 -35 -74 -19 -17 -40 -41 -46 -53 -14
-27 -14 -98 -1 -123 37 -69 -112 98 -205 229 -49 71 -49 75 -13 191 45 143
136 295 245 411 68 71 199 178 221 179 7 0 12 -12 12 -29z m510 23 c0 -3 -11
-20 -24 -37 -26 -35 -42 -77 -29 -77 5 0 17 16 28 36 17 32 99 93 110 82 3 -3
-12 -18 -33 -35 -73 -59 -117 -171 -142 -367 -17 -131 -53 -189 -135 -216 -25
-8 -45 -8 -75 0 -48 13 -122 76 -140 120 -25 59 7 124 73 149 47 18 77 13 108
-18 34 -34 39 -57 10 -41 -38 20 -78 12 -105 -21 -31 -36 -33 -73 -7 -113 26
-39 57 -55 106 -56 46 0 74 16 107 63 22 31 23 39 23 237 0 183 2 209 18 234
25 37 31 28 12 -19 -9 -20 -13 -45 -10 -54 4 -11 14 2 30 43 23 57 50 96 67
96 4 0 8 -3 8 -6z m-124 -46 c-33 -57 -41 -139 -26 -262 16 -132 7 -191 -35
-233 -24 -24 -42 -33 -67 -33 l-33 1 28 20 c61 46 84 146 51 224 -25 62 -29
163 -9 229 10 31 22 59 26 62 5 3 2 -14 -6 -37 -8 -23 -15 -56 -14 -73 0 -25
5 -17 23 38 21 63 53 106 78 106 5 0 -2 -19 -16 -42z m224 4 c-47 -47 -36 -56
21 -17 28 19 63 35 78 35 l26 0 -30 -18 c-35 -22 -60 -50 -52 -58 3 -4 20 5
37 19 31 26 68 43 76 34 3 -3 -11 -15 -30 -27 -20 -12 -36 -28 -36 -36 0 -12
5 -11 27 3 33 22 27 9 -28 -57 -20 -25 -60 -85 -87 -135 -90 -160 -142 -234
-194 -275 -60 -48 -84 -52 -40 -7 43 45 58 85 77 215 27 185 58 259 137 326
49 43 62 41 18 -2z m1368 -2 c231 -120 438 -340 556 -591 53 -112 106 -285
106 -345 0 -53 -16 -58 -26 -9 -9 48 -24 54 -24 10 0 -25 -4 -35 -12 -33 -7 3
-49 76 -93 164 -44 88 -89 173 -100 189 -94 143 -249 311 -371 403 -38 29
-108 72 -156 95 -48 23 -87 45 -87 48 -1 3 19 20 44 38 25 18 50 41 55 52 14
26 21 25 108 -21z m1966 -46 c-14 -32 -32 -91 -40 -130 -16 -89 -75 -215 -115
-249 -18 -14 -43 -25 -60 -25 l-29 0 0 68 c0 37 4 72 8 78 4 6 22 11 41 11 47
0 77 38 119 151 29 77 86 171 98 159 2 -2 -7 -30 -22 -63z m-3678 -5 c-20 -65
-20 -119 -2 -189 8 -30 13 -56 11 -58 -1 -2 -14 21 -29 49 -39 79 -32 188 16
246 19 23 20 7 4 -48z m3406 -56 l21 -22 -25 -98 -24 -98 -23 50 c-40 91 -46
152 -25 254 5 23 7 22 30 -20 14 -24 35 -54 46 -66z m902 101 c35 -14 39 -43
11 -90 -14 -24 -27 -44 -29 -44 -2 0 -16 20 -31 45 -14 25 -35 51 -46 58 -10
6 -19 15 -19 19 0 13 87 22 114 12z m-178 -20 c131 -54 178 -205 107 -341 -38
-72 -41 -110 -12 -147 25 -31 12 -34 -25 -5 -34 26 -34 65 -1 144 13 33 25 79
25 102 0 85 -60 192 -140 245 -33 23 -6 24 46 2z m1837 -32 c20 -21 20 -22 2
-42 -19 -21 -37 -27 -32 -11 1 5 -2 11 -7 13 -5 1 -13 -10 -17 -25 -15 -57
-56 -80 -44 -26 10 46 -15 33 -32 -17 -12 -37 -45 -74 -64 -74 -5 0 -4 12 1
26 27 70 1 72 -28 1 -12 -28 -31 -58 -43 -65 -21 -13 -21 -13 -15 22 10 51 -9
45 -30 -10 -11 -30 -27 -50 -47 -61 -28 -14 -29 -14 -23 2 29 77 11 87 -24 12
-28 -59 -66 -80 -54 -30 10 43 10 45 -2 50 -7 2 -15 -12 -18 -33 -7 -33 -51
-92 -62 -81 -2 2 0 16 5 30 17 44 -6 40 -31 -5 -29 -53 -53 -64 -43 -19 8 39
-5 40 -27 2 -9 -16 -26 -35 -38 -41 -20 -11 -21 -10 -15 9 8 27 -6 27 -30 1
-22 -24 -37 -26 -28 -4 5 15 3 15 -20 -1 -20 -13 -27 -14 -27 -4 0 7 -17 -4
-38 -24 -21 -20 -42 -37 -47 -37 -5 0 -20 -10 -33 -22 l-25 -23 18 34 c23 45
163 191 254 263 75 61 226 142 316 171 155 51 307 59 348 19z m-5353 -7 c-69
-36 -122 -100 -190 -233 -34 -67 -81 -148 -104 -180 -41 -56 -124 -122 -153
-122 -24 0 -110 -48 -142 -80 -38 -38 -57 -97 -44 -136 7 -23 25 -37 82 -65
103 -50 126 -98 75 -158 -42 -50 -114 -40 -114 16 0 13 2 23 4 23 2 0 12 3 21
6 13 5 15 2 9 -20 -5 -21 -3 -26 12 -26 26 0 54 30 54 57 0 13 -10 34 -22 46
-20 20 -45 30 -138 55 -34 9 -65 73 -54 110 l8 27 4 -30 c5 -45 22 -55 22 -14
0 63 47 119 159 194 119 78 153 117 252 293 106 188 151 238 227 253 69 13 78
9 32 -16z m-831 2 c8 -11 6 -18 -8 -31 -22 -20 -36 -7 -26 24 7 23 18 25 34 7z
m150 -9 c-17 -32 -15 -120 5 -158 9 -18 16 -34 16 -34 0 -1 -18 -1 -40 -1 -55
-1 -110 -46 -130 -108 -8 -26 -18 -47 -22 -47 -5 0 -8 20 -8 44 0 33 7 52 26
75 26 31 22 41 -6 18 -27 -21 -50 -60 -50 -85 0 -37 -25 -20 -28 19 -5 59 97
198 202 277 37 28 50 28 35 0z m716 -24 l-30 -25 30 14 c17 8 48 17 70 21 38
6 37 5 -23 -24 -60 -30 -92 -66 -92 -105 0 -24 16 -18 44 20 34 44 52 46 27 3
-11 -18 -31 -78 -46 -133 -28 -107 -61 -167 -110 -197 -48 -29 -50 -21 -7 26
22 24 48 59 58 77 l17 34 -42 -38 c-63 -57 -236 -165 -247 -155 -2 2 18 20 44
40 28 21 58 57 76 89 l28 54 -47 -53 c-51 -57 -73 -64 -32 -10 14 18 55 89 91
158 74 138 100 171 166 205 58 31 62 31 25 -1z m243 -34 c37 -17 86 -59 78
-68 -2 -1 -23 7 -47 18 -52 23 -119 26 -158 5 -16 -8 -45 -33 -65 -57 -43 -50
-45 -41 -8 27 49 89 114 114 200 75z m2856 -214 c34 -69 81 -101 148 -101 31
0 55 7 74 21 66 48 88 157 46 227 -24 41 -17 47 20 17 34 -27 58 -80 58 -130
0 -163 -245 -247 -343 -118 -51 67 -71 180 -50 279 6 28 9 17 14 -53 4 -65 13
-100 33 -142z m-4034 187 c0 -10 -7 -27 -15 -37 -16 -22 -20 -9 -9 32 7 26 24
30 24 5z m1993 -105 c56 -42 134 -109 174 -150 l72 -73 -30 -45 c-35 -51 -109
-197 -159 -312 -22 -50 -41 -80 -56 -87 -30 -13 -84 -87 -84 -114 0 -12 -10
-31 -21 -43 -50 -54 -26 -177 44 -225 42 -29 57 -48 57 -73 0 -32 57 -145 97
-194 32 -39 113 -110 149 -130 10 -6 1 -21 -39 -63 -28 -31 -63 -80 -76 -110
-46 -106 -57 -124 -113 -181 -34 -36 -79 -69 -115 -85 -51 -24 -71 -28 -158
-28 -93 0 -105 2 -167 33 -75 37 -145 107 -180 181 -16 35 -22 65 -22 126 -1
72 2 86 32 141 36 66 74 101 122 110 l30 7 0 -57 c0 -70 18 -107 66 -136 43
-27 124 -31 169 -7 112 58 149 206 85 335 -17 33 -48 76 -70 96 -41 37 -148
96 -174 96 -25 0 -27 17 -6 66 24 54 30 99 65 439 38 365 67 515 111 582 l15
23 40 -22 c22 -13 86 -57 142 -100z m-799 61 c33 -13 69 -36 86 -55 31 -36 60
-118 59 -168 0 -27 -2 -25 -13 16 -27 99 -103 171 -181 171 -58 0 -107 -34
-171 -118 -27 -36 -50 -62 -52 -57 -4 14 44 114 76 158 31 42 81 73 119 74 11
0 46 -10 77 -21z m5051 -20 c4 -17 4 -47 0 -67 -6 -30 -8 -34 -16 -19 -15 26
-29 11 -29 -32 0 -25 -7 -44 -19 -55 -18 -17 -19 -16 -18 11 3 46 -17 42 -24
-5 -3 -23 -13 -50 -23 -60 -17 -16 -18 -15 -11 15 3 18 2 34 -4 38 -11 6 -15
0 -25 -47 -7 -31 -31 -58 -51 -58 -12 0 -12 6 -4 27 11 29 5 58 -11 48 -5 -3
-10 -15 -10 -26 0 -28 -28 -79 -43 -79 -9 0 -11 13 -9 41 5 50 -13 46 -22 -6
-4 -19 -16 -39 -26 -45 -18 -10 -20 -7 -20 25 0 44 -15 38 -24 -10 -4 -20 -15
-39 -28 -46 -20 -11 -21 -10 -14 31 8 54 -13 51 -28 -5 -12 -43 -36 -59 -36
-25 0 12 -4 18 -10 15 -5 -3 -10 -14 -10 -24 0 -10 -9 -26 -19 -35 -19 -17
-20 -17 -40 22 -11 22 -33 50 -47 61 -15 12 -25 23 -23 24 2 2 54 21 114 42
61 21 137 52 170 70 128 68 232 129 285 165 30 21 58 39 62 39 3 1 9 -13 13
-30z m-1213 -84 c24 -44 88 -217 88 -238 0 -4 -15 -7 -33 -7 -18 0 -43 -8 -57
-17 -23 -16 -23 -16 -15 3 47 112 40 160 -33 224 -25 22 -51 40 -58 40 -28 0
-23 20 8 34 52 23 70 16 100 -39z m66 30 c40 -33 65 -99 57 -144 l-7 -35 -40
80 c-21 43 -46 86 -54 95 -33 37 1 40 44 4z m-3901 -6 c67 -33 93 -73 92 -145
l-1 -59 -12 55 c-23 101 -54 131 -146 141 -51 5 -53 6 -30 17 36 16 48 15 97
-9z m-47 -37 c0 -4 -16 -14 -36 -21 -20 -7 -71 -42 -115 -77 -43 -36 -79 -61
-79 -57 0 18 105 125 139 143 37 19 91 27 91 12z m3455 -2 c4 -6 -9 -29 -29
-50 -29 -32 -36 -48 -36 -81 0 -24 -4 -38 -10 -34 -21 13 -10 75 23 125 33 51
41 57 52 40z m325 -20 c77 -39 99 -114 60 -206 -26 -61 -35 -125 -21 -151 26
-50 100 -45 130 8 13 24 13 29 -2 53 -20 30 -39 33 -61 10 -18 -18 -19 -24 -7
-43 8 -13 12 -13 26 -1 15 13 17 12 14 -5 -8 -42 -79 -25 -79 19 0 29 61 76
99 76 35 0 46 -16 54 -78 4 -35 1 -48 -20 -72 -47 -57 -125 -48 -170 19 -29
42 -30 94 -3 156 38 89 15 171 -56 201 -28 12 -46 13 -93 4 -78 -14 -115 -34
-153 -81 -32 -40 -56 -40 -43 0 9 30 62 66 117 81 26 7 53 19 60 27 16 20 92
11 148 -17z m-3711 -42 c4 -13 11 -45 15 -73 4 -27 10 -58 13 -69 3 -12 1 -17
-7 -14 -7 2 -21 30 -30 62 -10 32 -26 66 -35 76 -9 10 -14 24 -10 29 11 19 45
12 54 -11z m3385 -18 c-19 -29 -25 -46 -20 -66 5 -19 3 -25 -6 -22 -25 8 -21
63 7 97 38 44 50 39 19 -9z m-4330 11 c14 -15 15 -24 6 -40 -14 -27 -22 -27
-18 2 2 16 -2 22 -17 22 -29 0 -27 -46 2 -61 25 -12 20 -24 -8 -24 -20 0 -50
36 -44 54 20 56 26 66 43 66 10 0 27 -9 36 -19z m4635 -15 c32 -34 36 -82 12
-144 -23 -57 -27 -115 -11 -156 13 -34 5 -33 -66 10 -106 64 -134 102 -134
182 0 65 27 102 76 102 27 0 37 -5 46 -24 12 -28 4 -61 -13 -51 -6 4 -8 16 -6
27 7 27 -22 36 -39 13 -27 -36 6 -85 58 -85 50 0 72 67 43 133 -10 24 8 21 34
-7z m-6367 -12 c42 -29 56 -27 38 5 -16 30 12 28 54 -4 18 -14 38 -25 44 -25
15 0 16 17 2 25 -15 9 -12 25 5 25 8 0 34 -17 57 -37 l41 -38 -6 33 c-6 29 -4
32 18 32 15 0 31 -11 45 -30 23 -32 45 -31 35 1 -12 35 32 22 66 -21 34 -42
50 -39 41 6 -4 20 -1 23 14 18 11 -4 36 -23 58 -43 l39 -36 -7 28 c-12 51 47
31 89 -31 25 -36 25 -37 25 -9 0 50 49 27 76 -35 15 -36 18 -39 22 -20 8 52
42 7 42 -57 0 -45 11 -53 27 -18 11 22 11 22 22 -6 6 -16 11 -43 11 -60 l1
-32 18 23 c29 34 34 27 28 -33 -6 -61 4 -71 28 -25 9 17 18 30 21 30 4 0 4
-25 2 -55 -5 -60 1 -67 25 -32 16 21 16 21 16 -20 1 -45 13 -55 30 -25 9 16
10 16 17 -1 3 -10 4 -36 1 -57 -6 -44 -2 -48 24 -24 24 22 36 12 44 -38 7 -38
9 -40 21 -23 19 26 27 13 27 -40 0 -51 14 -60 23 -15 9 42 22 28 30 -30 7 -54
23 -58 25 -7 1 28 2 27 10 -12 12 -64 16 -69 27 -41 10 24 11 23 11 -13 1 -23
5 -36 11 -32 6 4 10 -7 10 -24 0 -35 19 -42 27 -11 8 32 20 24 31 -22 13 -49
9 -58 -23 -58 -29 0 -113 -35 -138 -58 -17 -15 -19 -15 -28 1 -16 27 -63 20
-149 -23 -94 -47 -136 -51 -170 -15 -28 30 -20 43 15 27 34 -16 40 -15 25 3
-7 8 -21 15 -31 15 -10 0 -21 5 -24 10 -9 15 36 11 65 -5 31 -18 48 -19 32 -3
-22 22 -13 29 18 13 39 -20 47 -19 25 5 -23 25 -1 28 33 4 28 -20 45 -8 18 12
-17 12 -17 14 -4 14 9 0 28 -4 42 -10 17 -6 26 -6 26 0 0 6 -4 10 -10 10 -5 0
-10 5 -10 10 0 6 16 10 35 10 24 0 35 5 35 15 0 39 -95 46 -205 16 -103 -29
-167 -35 -209 -21 -38 12 -48 35 -18 43 13 4 11 5 -5 6 -36 2 -27 21 10 21 31
1 31 1 12 16 -19 15 -17 16 25 10 41 -5 43 -5 26 9 -27 20 -1 20 38 0 30 -16
52 -11 26 5 -22 14 25 13 51 -1 11 -6 25 -8 32 -6 7 3 1 9 -13 15 -21 9 -22
11 -5 11 11 0 31 -6 45 -14 33 -19 46 -19 30 0 -18 21 3 19 31 -3 20 -17 24
-18 41 -3 25 21 23 28 -14 51 -47 28 -120 33 -242 16 -127 -19 -199 -20 -227
-6 -26 14 -24 30 4 30 22 1 22 1 2 16 -19 15 -18 16 19 9 37 -6 39 -5 25 11
-12 16 -12 17 1 12 44 -16 60 -18 60 -10 0 6 -6 13 -12 16 -18 8 42 -1 67 -10
18 -7 19 -6 5 11 -14 17 -13 17 10 10 14 -4 31 -12 38 -18 7 -5 16 -6 20 -2 4
4 1 10 -5 12 -7 3 -13 9 -13 15 0 5 16 0 36 -11 l35 -21 -6 21 c-6 18 -4 19
13 10 22 -12 32 -6 32 20 0 44 -121 52 -308 19 -127 -22 -184 -21 -219 5 -17
13 -17 14 2 30 19 15 18 16 -15 9 -28 -5 -32 -3 -23 6 6 7 23 13 37 13 14 0
26 3 26 8 0 5 -6 9 -14 9 -8 0 -18 5 -22 12 -5 8 4 9 34 4 46 -7 54 -1 20 15
-21 8 -20 9 7 5 17 -3 39 -8 50 -11 20 -7 20 -6 1 9 -29 24 -15 28 34 11 48
-17 63 -12 34 10 -18 14 -17 15 11 9 17 -3 47 -12 68 -20 50 -19 57 -17 28 6
-20 18 -21 20 -5 20 11 -1 37 -7 59 -15 25 -9 43 -11 49 -5 6 6 18 10 28 10
44 0 2 43 -57 59 -22 5 -98 9 -170 8 -113 -2 -135 1 -170 18 -22 11 -42 29
-44 39 -2 14 1 17 13 13 19 -8 21 4 4 22 -11 11 -7 13 19 8 26 -5 31 -3 26 8
-7 19 1 19 37 0 28 -14 30 -14 30 2 0 13 3 14 12 5 17 -17 29 -15 22 3 -8 20
6 19 36 -2 17 -12 25 -13 28 -5 2 8 13 6 33 -9 32 -23 33 -22 19 15 -19 52
-40 57 -450 111 -127 17 -146 23 -274 83 -74 35 -87 44 -76 56 6 9 34 17 63
19 29 2 56 4 61 5 6 1 27 -10 48 -24z m5416 2 c18 -40 73 -96 115 -118 55 -27
149 -27 213 1 l47 21 29 -35 c35 -41 85 -59 156 -54 l52 4 0 -53 c0 -72 15
-95 115 -186 47 -43 92 -91 100 -107 20 -37 19 -88 -2 -111 -27 -30 -87 -19
-67 13 4 8 9 8 17 0 19 -19 37 -12 37 14 0 22 -4 25 -35 25 -26 0 -39 -6 -51
-26 -27 -40 -9 -75 46 -94 25 -8 46 -15 47 -15 5 -2 -59 -151 -77 -180 -25
-41 -117 -128 -157 -148 -34 -18 -134 -57 -145 -57 -5 0 -8 7 -8 15 0 20 -2
19 -62 -11 -28 -14 -74 -28 -104 -31 -85 -9 -128 18 -229 145 -47 59 -99 135
-117 170 -28 57 -32 75 -39 190 -4 70 -14 160 -23 201 -12 53 -14 96 -10 154
7 77 9 82 49 123 40 40 75 113 75 156 0 25 15 22 28 -6z m1292 -2 c0 -43 -48
-114 -78 -114 -9 0 -6 10 12 30 14 17 31 49 37 70 14 45 29 53 29 14z m-4082
-69 c52 -103 82 -215 82 -307 l0 -68 -46 0 c-53 0 -57 -19 -6 -32 17 -5 33
-12 36 -17 3 -4 -2 -31 -11 -59 -14 -42 -20 -51 -35 -46 -15 4 -17 1 -11 -27
l6 -32 -36 7 c-29 5 -40 2 -63 -17 l-27 -23 23 -22 c13 -12 38 -26 55 -32 l32
-11 -14 -77 c-21 -120 -71 -211 -167 -307 -98 -98 -138 -119 -226 -120 -86 0
-164 38 -242 118 -58 59 -77 62 -37 6 11 -16 16 -29 11 -29 -19 0 -129 78
-161 115 -33 38 -81 128 -81 152 0 7 14 32 31 56 17 24 33 62 36 85 5 41 7 42
42 42 45 0 95 30 121 72 23 38 27 128 10 221 -18 97 11 156 100 203 26 13 58
19 120 19 109 0 165 25 301 135 55 44 103 80 107 80 4 0 27 -38 50 -85z m2692
9 c-25 -51 -58 -77 -92 -72 -36 5 -33 32 5 50 19 9 50 35 68 57 41 49 51 31
19 -35z m-3839 13 c43 -28 49 -60 16 -82 -18 -12 -31 -13 -50 -6 -37 14 -49
41 -34 80 14 37 23 38 68 8z m1313 -64 c-4 -25 0 -54 11 -83 33 -89 40 -136
27 -198 -11 -52 -105 -256 -123 -268 -14 -8 17 78 62 171 54 113 57 172 14
260 -28 59 -30 110 -4 141 18 21 20 17 13 -23z m3346 -3 c0 -73 51 -137 156
-196 35 -19 85 -55 111 -78 l47 -43 -47 3 c-30 2 -58 11 -79 27 -18 13 -54 36
-80 50 -68 39 -109 77 -125 115 -17 42 -28 35 -19 -12 9 -48 43 -85 136 -151
44 -31 82 -60 85 -65 3 -4 0 -21 -6 -37 l-11 -28 -19 36 c-10 20 -55 70 -100
110 -90 81 -104 103 -114 171 -6 42 -4 51 21 87 35 49 44 51 44 11z m580 1 c0
-4 -18 -20 -40 -35 -46 -30 -52 -24 -13 16 26 27 53 37 53 19z m-5339 -36 c23
-20 50 -35 64 -35 29 0 30 -5 8 -56 -11 -27 -16 -70 -17 -134 -1 -107 0 -110
90 -241 30 -45 53 -83 50 -86 -13 -13 -140 98 -163 142 -18 33 -20 125 -5 192
14 61 5 88 -49 147 -45 50 -59 83 -42 99 12 13 26 7 64 -28z m6179 20 c37 -19
46 -49 26 -80 -23 -35 -40 -32 -32 6 8 42 -14 34 -29 -11 -14 -41 -39 -55 -29
-16 9 36 -12 33 -31 -4 -9 -16 -22 -30 -31 -30 -11 0 -12 4 -4 19 13 26 13 31
-4 31 -8 0 -18 -9 -21 -20 -3 -11 -13 -20 -21 -20 -11 0 -13 7 -8 28 l7 27
-24 -22 c-25 -23 -74 -22 -66 1 5 16 115 65 235 105 2 1 16 -6 32 -14z m-514
-26 c15 -13 33 -39 41 -57 12 -30 12 -37 -2 -59 -19 -29 -32 -24 -16 6 6 11 7
22 3 25 -5 3 -15 -6 -23 -20 -7 -14 -22 -30 -32 -36 -17 -9 -17 -7 -7 12 18
34 5 34 -29 -1 -31 -31 -56 -34 -31 -4 24 29 0 29 -30 0 -32 -30 -55 -28 -27
3 34 37 16 43 -23 8 -45 -41 -76 -49 -40 -11 29 31 19 46 -13 19 -12 -11 -31
-26 -41 -34 -18 -14 -19 -13 -13 3 11 30 -15 15 -41 -24 -13 -19 -27 -35 -33
-37 -20 -7 -7 25 31 82 22 32 40 65 40 72 0 8 5 14 11 14 6 0 29 13 52 29 53
36 69 40 139 37 45 -2 64 -8 84 -27z m-3316 -33 c-12 -20 -20 -42 -17 -49 2
-6 14 5 27 26 12 20 27 37 32 37 6 0 3 -11 -6 -25 -9 -14 -23 -36 -32 -50 -26
-40 0 -29 29 12 32 45 35 38 6 -12 -29 -49 -17 -56 15 -8 33 48 33 36 0 -29
-14 -28 -46 -104 -71 -167 -24 -64 -49 -121 -55 -128 -21 -26 -29 -13 -22 33
5 34 4 45 -5 40 -6 -4 -11 -13 -11 -20 0 -16 -38 -51 -46 -43 -4 3 -1 20 5 38
16 45 7 46 -18 3 -15 -25 -25 -34 -32 -27 -21 21 141 362 169 356 6 -2 19 11
29 27 9 16 19 28 21 25 2 -2 -6 -20 -18 -39z m-2150 24 c12 -8 10 -14 -16 -35
-54 -43 -80 -119 -75 -220 0 -17 26 -75 57 -128 30 -54 54 -102 52 -108 -2 -6
-31 30 -65 80 -102 150 -107 270 -17 388 26 35 39 39 64 23z m5130 -10 c0 -5
-13 -16 -30 -25 -35 -18 -39 -11 -7 16 25 21 37 24 37 9z m-6616 -25 c-3 -14
-2 -25 4 -25 5 0 12 9 15 20 8 32 35 25 29 -6 -3 -19 -1 -25 7 -20 6 4 11 14
11 22 0 8 9 14 20 14 17 0 19 -4 14 -26 -5 -19 -4 -25 5 -20 6 4 11 14 11 22
0 8 9 14 20 14 14 0 20 -7 20 -22 0 -21 0 -21 14 -2 21 28 39 6 31 -38 l-7
-35 -91 -6 c-102 -7 -131 3 -171 56 l-21 29 25 20 c23 19 24 19 31 1 5 -16 7
-16 13 5 10 30 28 28 20 -3z m1615 -1 c2 -1 -14 -10 -35 -19 -51 -21 -111 -80
-125 -123 -16 -47 -5 -92 52 -213 78 -166 83 -252 18 -322 l-29 -32 22 50 c17
37 23 69 23 125 0 80 2 74 -91 251 -52 98 -41 176 37 252 46 44 52 47 87 41
20 -4 39 -8 41 -10z m4989 -40 c-4 -20 -34 -41 -44 -31 -8 8 24 47 38 47 5 0
8 -7 6 -16z m-4750 -25 c-16 -21 -25 -50 -28 -92 l-6 -62 -11 37 c-18 61 13
148 54 148 10 0 7 -9 -9 -31z m5332 -18 c25 -7 62 -17 83 -22 31 -8 38 -14 35
-31 -2 -14 -13 -24 -31 -29 -23 -6 -27 -5 -23 7 7 18 -8 18 -24 -1 -7 -8 -19
-15 -28 -15 -13 0 -12 3 3 20 21 23 9 26 -19 5 -27 -21 -53 -20 -36 0 10 12
10 15 -2 15 -8 0 -20 -6 -27 -12 -11 -10 -14 -10 -18 -1 -3 9 -18 10 -51 6
l-46 -6 22 28 c12 15 22 33 22 41 0 24 34 23 140 -5z m-5630 -13 c-13 -21 -20
-51 -20 -82 0 -42 4 -53 34 -81 19 -18 59 -39 91 -50 76 -23 52 -38 -33 -21
-78 17 -106 36 -133 88 -18 36 -20 46 -10 79 13 44 56 99 77 99 10 0 9 -7 -6
-32z m226 10 c-3 -13 -6 -38 -6 -56 0 -18 -4 -31 -9 -28 -14 9 -21 66 -11 87
15 27 34 24 26 -3z m-518 -16 c5 -32 -18 -66 -71 -106 -47 -36 -52 -22 -7 19
28 25 50 68 50 95 0 28 24 21 28 -8z m1429 -44 c4 -32 0 -55 -13 -81 l-19 -36
0 94 c0 80 2 92 14 81 7 -8 15 -34 18 -58z m1108 -30 c65 -138 65 -131 2 -162
-65 -31 -66 -31 -116 -5 l-40 20 46 107 c24 59 47 113 50 120 3 6 7 12 10 12
2 0 24 -42 48 -92z m-2070 36 c3 -21 13 -48 22 -60 17 -26 9 -30 -30 -15 -32
12 -42 44 -27 82 16 39 26 37 35 -7z m4795 -38 c0 -68 -30 -139 -81 -190 -56
-56 -81 -55 -27 2 48 50 76 109 84 176 7 59 24 67 24 12z m-6430 -26 c4 0 11
11 14 25 8 31 23 32 29 3 l4 -23 8 23 c4 12 11 22 16 22 5 0 9 -10 10 -22 l0
-23 11 23 c15 29 19 28 45 -13 l23 -34 -28 -19 c-74 -53 -166 -68 -202 -32
-24 24 -26 72 -5 90 13 10 15 9 15 -9 0 -11 5 -21 10 -21 6 0 10 8 10 18 0 10
6 24 13 31 10 10 13 7 15 -13 2 -14 7 -26 12 -26z m6386 -1 c-21 -129 -128
-216 -197 -160 -23 19 -23 20 -6 55 18 40 28 44 47 20 11 -13 10 -16 -9 -21
-15 -4 -21 -12 -19 -27 4 -31 43 -32 73 -2 29 29 35 99 10 132 -21 28 -18 34
13 28 15 -3 38 -1 52 5 40 16 43 13 36 -30z m317 13 c60 -40 76 -98 35 -126
-33 -23 -41 -20 -22 9 17 26 5 35 -15 11 -6 -8 -21 -16 -32 -19 -16 -4 -19 -2
-14 14 8 25 1 24 -35 -3 -32 -23 -51 -19 -30 7 10 12 10 15 -2 15 -8 0 -20 -6
-27 -12 -10 -10 -15 -10 -18 -1 -2 7 -11 9 -19 6 -39 -15 4 79 48 103 34 19
99 17 131 -4z m260 -13 c34 -11 79 -31 100 -44 42 -29 51 -63 15 -62 -13 1
-33 -3 -46 -7 -16 -5 -22 -4 -20 5 2 9 -8 12 -34 10 -31 -2 -37 0 -32 13 5 12
-1 14 -32 9 -28 -5 -35 -3 -30 6 6 9 -1 11 -28 6 -30 -6 -37 -4 -42 11 -5 16
-13 36 -32 78 -7 14 111 -2 181 -25z m-5807 -11 c-27 -37 -46 -85 -46 -117 0
-42 -16 -47 -35 -11 -21 40 -14 59 40 109 49 45 66 53 41 19z m5295 -124 c-10
-41 -20 -58 -51 -83 -70 -56 -85 -116 -43 -163 20 -22 5 -23 -25 -2 -17 11
-22 25 -22 57 0 49 26 97 81 148 26 24 42 50 51 84 17 63 24 28 9 -41z m-5261
-109 c31 -50 17 -56 -15 -6 -30 44 -42 113 -29 158 6 23 9 16 15 -44 4 -47 15
-85 29 -108z m5717 95 c51 -16 111 -30 134 -30 46 0 72 -11 112 -48 31 -29 34
-44 12 -62 -10 -8 -15 -9 -15 -1 0 6 -11 8 -30 5 -20 -5 -30 -3 -30 6 0 9 -11
10 -37 5 -31 -5 -36 -4 -25 6 20 21 14 29 -14 19 -36 -14 -47 -12 -40 6 6 14
1 16 -35 10 -35 -6 -40 -4 -36 9 7 17 -2 19 -37 5 -21 -7 -26 -6 -26 5 0 18
-5 18 -31 4 -15 -7 -24 -7 -34 1 -7 6 -25 8 -39 4 -19 -4 -26 -2 -26 9 0 8 13
17 29 20 16 4 38 17 48 31 10 14 20 26 22 26 2 0 46 -13 98 -30z m-6848 8 c10
16 43 12 48 -5 3 -7 -8 -18 -24 -25 -15 -7 -45 -23 -65 -36 -36 -24 -88 -25
-88 -3 0 14 39 57 40 44 0 -23 20 -14 20 10 0 18 2 19 10 7 9 -13 12 -12 21 4
9 15 13 16 20 5 8 -12 10 -12 18 -1z m1462 -48 c41 -39 41 -40 37 -100 -3 -36
-11 -67 -20 -76 -14 -14 -16 -10 -21 37 -4 28 -20 80 -36 115 -36 77 -23 84
40 24z m2525 3 c-6 -35 -5 -37 9 -19 19 25 20 6 0 -20 -20 -27 -18 -37 5 -24
18 10 19 9 5 -22 -11 -28 -23 -36 -72 -51 -102 -31 -222 -47 -358 -47 -195 0
-350 33 -374 79 -11 19 -10 20 14 11 33 -12 35 -12 35 0 0 6 -6 10 -14 10 -7
0 -20 7 -27 17 -13 15 -12 15 9 4 27 -15 29 0 2 24 -11 10 -20 23 -20 28 0 6
10 1 23 -10 50 -46 216 -78 352 -68 132 9 300 34 341 51 19 8 43 28 52 44 22
39 26 38 18 -7z m-278 1 c4 -25 -11 -30 -115 -40 -74 -7 -113 4 -113 32 0 12
10 14 58 8 41 -4 67 -2 92 9 46 21 74 17 78 -9z m2872 -10 c26 -22 31 -33 28
-63 -3 -31 -9 -39 -48 -58 -46 -24 -86 -30 -75 -13 8 12 8 12 -32 1 -28 -8
-34 -6 -48 15 -19 29 -60 32 -74 6 -11 -21 2 -48 18 -38 6 4 11 3 11 -3 0 -21
-23 -23 -42 -3 -30 29 -18 61 43 112 82 69 168 86 219 44z m-5299 -126 c29
-26 49 -51 46 -55 -4 -3 -20 5 -35 19 -15 13 -43 34 -63 46 -46 27 -65 49 -84
95 l-15 37 49 -47 c27 -27 73 -69 102 -95z m-247 117 c3 -8 2 -15 -3 -15 -5 0
-14 7 -21 15 -10 12 -10 15 3 15 8 0 17 -7 21 -15z m5118 -38 c58 -27 74 -50
70 -102 -2 -29 -48 -65 -83 -65 -60 0 -102 76 -57 104 23 14 48 -8 30 -26 -31
-31 5 -63 38 -33 41 38 11 115 -45 115 -19 0 -25 5 -25 21 0 11 3 19 8 17 4
-2 33 -16 64 -31z m-6002 -2 c26 -28 42 -33 34 -10 -5 12 2 15 30 15 31 0 36
-3 36 -24 0 -20 -6 -24 -42 -30 -23 -4 -75 -20 -117 -37 -111 -44 -160 -41
-161 13 0 12 6 15 23 11 18 -5 20 -3 10 8 -20 20 -16 27 13 21 19 -3 25 -1 20
7 -9 14 -5 14 28 1 14 -5 26 -6 26 -1 0 5 -7 12 -16 15 -9 4 -14 9 -11 12 3 3
19 -2 36 -11 31 -16 41 -9 19 13 -22 22 4 13 39 -14 37 -28 44 -22 11 13 -12
13 -17 23 -11 23 5 0 20 -11 33 -25z m1002 -114 c29 -46 37 -86 16 -79 -15 5
-76 123 -84 163 l-6 30 23 -35 c12 -19 35 -55 51 -79z m5688 62 c66 -17 141
-62 138 -83 -2 -11 -15 -15 -46 -14 -23 1 -45 4 -49 8 -3 3 -15 6 -26 6 -17 0
-18 2 -6 17 13 15 11 16 -11 9 -51 -16 -71 -18 -69 -10 4 22 -3 24 -23 10 -32
-23 -44 -20 -22 6 19 21 19 21 -1 14 -11 -5 -35 -12 -53 -18 -32 -9 -35 -31
-4 -27 10 2 33 -7 52 -19 19 -12 51 -25 70 -28 70 -11 141 -38 155 -57 16 -22
10 -47 -12 -47 -8 0 -11 5 -7 11 4 8 -3 9 -26 4 -24 -5 -31 -4 -25 5 6 9 -3
10 -34 5 -36 -6 -40 -5 -34 11 7 18 8 18 -57 -2 -16 -5 -19 -3 -14 10 6 14 2
16 -22 10 -45 -10 -49 -10 -46 5 2 10 -4 12 -20 7 -13 -3 -29 -6 -35 -6 -26 0
-13 -38 14 -45 51 -12 133 -56 144 -77 15 -28 4 -54 -16 -38 -8 7 -15 9 -15 4
0 -4 -5 -3 -12 4 -7 7 -24 12 -40 12 -20 0 -26 4 -22 15 5 11 -1 15 -25 15
-19 0 -31 5 -31 13 0 8 -16 13 -46 15 -32 1 -44 -2 -41 -11 2 -6 11 -13 21
-15 23 -5 105 -93 106 -114 0 -10 -2 -18 -4 -18 -2 0 -11 -3 -20 -6 -11 -4
-16 -1 -16 10 0 9 -7 16 -15 16 -8 0 -15 7 -15 15 0 8 -9 15 -20 15 -11 0 -23
7 -26 15 -3 8 -14 17 -25 20 -10 4 -18 11 -16 16 1 6 -16 17 -38 24 -49 18
-45 18 -45 0 0 -8 5 -15 10 -15 6 0 14 -8 17 -17 4 -10 19 -39 35 -64 47 -77
32 -75 -44 6 -77 82 -108 123 -108 142 0 23 30 41 84 47 68 9 118 41 131 84 7
24 15 32 33 32 28 0 92 59 92 85 0 15 8 16 63 10 34 -4 87 -14 117 -22z
m-4364 -94 c30 -107 23 -129 -64 -207 -79 -70 -114 -131 -93 -164 16 -26 10
-31 -23 -17 -20 9 -26 19 -26 44 0 39 31 81 97 134 60 47 73 67 73 113 l-1 33
-15 -28 c-9 -16 -17 -27 -20 -25 -2 2 6 50 18 106 12 56 24 99 27 96 3 -3 15
-41 27 -85z m673 67 c13 -15 5 -93 -10 -102 -5 -3 -14 7 -21 21 -10 22 -9 28
2 35 11 7 12 12 3 21 -12 12 -7 39 7 39 4 0 13 -6 19 -14z m911 -31 c10 -26 4
-55 -11 -55 -5 0 -9 4 -9 9 0 5 -3 23 -6 40 -8 38 12 43 26 6z m-3748 -27 c22
-15 27 -16 22 -4 -5 13 2 16 36 16 36 0 41 -2 35 -17 -4 -10 -10 -30 -12 -45
-4 -21 -12 -27 -41 -33 -19 -4 -68 -20 -109 -36 -88 -35 -133 -38 -140 -9 -3
11 -9 17 -14 14 -5 -3 -9 -1 -9 3 0 11 30 37 55 48 19 7 18 8 -5 15 -27 9 -12
13 35 11 23 -2 27 0 15 8 -8 6 -25 11 -37 11 -13 0 -23 5 -23 10 0 15 45 12
85 -4 20 -9 35 -11 35 -5 0 5 -15 16 -32 24 -18 8 -26 14 -18 15 9 0 33 -9 55
-20 47 -24 59 -18 16 8 -17 10 -28 22 -25 25 7 7 34 -6 76 -35z m927 -10 c32
-39 41 -59 39 -81 -7 -68 -68 -56 -68 13 0 21 -7 56 -15 79 -8 22 -11 41 -6
41 4 0 26 -23 50 -52z m2771 17 c0 -16 -6 -25 -15 -25 -8 0 -15 -4 -15 -10 0
-5 7 -10 15 -10 20 0 19 -19 -2 -42 -25 -27 -28 -23 -25 34 2 34 9 58 20 66
21 16 22 16 22 -13z m-730 -15 l65 -18 -4 -48 c-1 -27 -4 -51 -6 -52 -10 -11
-123 25 -142 45 -34 33 -29 112 6 97 9 -3 45 -14 81 -24z m3203 14 c14 -14
-15 -44 -53 -55 -53 -16 -70 -2 -44 35 14 19 28 25 55 26 20 0 39 -3 42 -6z
m-2543 -41 c0 -76 -16 -89 -132 -106 l-38 -6 0 58 0 57 73 16 c102 22 97 23
97 -19z m-504 -3 c7 0 10 -20 9 -52 -2 -52 -3 -53 -31 -50 -36 4 -34 2 -41 45
-8 50 2 71 30 63 12 -3 27 -6 33 -6z m2853 -58 c-10 -14 -19 -33 -19 -43 0
-26 -11 -24 -61 14 -24 18 -52 36 -62 40 -21 8 -14 27 11 27 9 1 27 6 40 13
20 11 30 10 67 -7 l43 -20 -19 -24z m-2635 13 c-2 -57 -16 -66 -103 -63 l-76
3 -3 39 c-5 62 -3 63 94 59 l89 -3 -1 -35z m96 9 c0 -49 -16 -74 -47 -74 -23
0 -25 3 -19 31 3 17 6 42 6 55 0 20 5 24 30 24 28 0 30 -3 30 -36z m-2352 -49
c-18 -26 -37 -56 -43 -66 -11 -21 -21 -24 -30 -9 -6 10 95 131 103 124 2 -1
-11 -24 -30 -49z m1455 9 c44 -16 88 -44 135 -88 32 -30 72 -118 72 -159 0
-76 -57 -162 -115 -173 -40 -7 -96 9 -119 35 -48 53 -16 147 57 165 26 7 37
15 35 25 -4 19 -59 27 -86 12 -15 -8 -23 -7 -33 6 -22 26 -91 53 -139 53 l-44
0 74 75 c80 81 75 79 163 49z m1552 -11 c10 -14 36 -46 57 -69 l40 -44 -27
-10 c-14 -5 -29 -10 -33 -10 -3 0 -19 -12 -34 -27 -22 -21 -31 -24 -40 -15
-18 18 -85 15 -92 -3 -3 -10 1 -18 12 -21 80 -26 102 -50 102 -111 0 -49 -21
-78 -66 -93 -97 -32 -184 47 -184 167 0 61 30 121 86 173 38 35 133 90 155 90
4 0 15 -12 24 -27z m-3949 -8 c16 -8 44 -15 62 -15 48 0 40 -25 -17 -55 -27
-13 -52 -29 -56 -35 -3 -5 -27 -19 -52 -30 -25 -11 -66 -38 -90 -60 -58 -54
-86 -64 -124 -44 -26 13 -30 20 -25 41 5 16 3 22 -4 18 -5 -3 -10 -1 -10 5 0
6 7 13 15 16 8 4 15 10 15 15 0 6 -9 5 -20 -1 -13 -7 -20 -7 -20 -1 0 15 34
31 65 31 16 0 24 4 19 11 -3 6 -17 9 -30 6 -13 -2 -24 -1 -24 4 0 13 56 21 96
13 26 -5 35 -4 30 5 -4 6 -20 11 -37 11 -16 0 -29 5 -29 11 0 8 19 10 63 6
l62 -6 -30 17 c-28 15 -28 17 -9 20 12 2 38 -4 58 -12 41 -17 46 -13 14 15
l-23 20 25 -7 c14 -3 35 -12 47 -20 34 -21 39 -17 13 11 -27 29 -24 31 16 10z
m6884 -130 c42 -192 16 -313 -94 -433 -22 -24 -49 -48 -59 -54 -19 -10 -19 -9
1 23 74 120 122 248 128 344 l4 70 -20 -85 c-25 -104 -61 -183 -130 -285 -52
-78 -70 -92 -49 -39 6 16 14 47 16 69 2 22 9 44 14 49 12 13 12 29 -1 21 -22
-14 -8 16 15 31 30 20 34 39 4 23 -17 -9 -20 -8 -13 3 4 7 19 21 31 32 13 10
22 23 20 30 -2 6 7 24 19 39 13 16 24 34 24 40 0 6 -7 2 -15 -9 -8 -10 -15
-15 -15 -10 0 4 13 25 30 46 34 43 38 59 39 150 1 57 3 63 16 49 8 -8 24 -55
35 -104z m-5850 -38 c67 -76 213 -162 370 -219 62 -22 165 -27 199 -8 29 15
39 5 22 -21 -15 -25 -7 -37 14 -19 8 7 15 8 15 2 0 -5 -7 -15 -15 -22 -20 -17
-19 -27 5 -35 16 -5 18 -10 10 -25 -17 -31 -11 -36 12 -10 l21 25 -8 -24 c-5
-16 -4 -21 4 -17 6 4 11 1 11 -8 0 -8 -4 -18 -10 -21 -5 -3 -10 -11 -10 -18 0
-8 3 -8 12 1 7 7 16 12 20 12 12 0 9 -35 -4 -48 -6 -6 -8 -15 -4 -19 4 -5 14
1 23 12 14 19 14 18 10 -13 -3 -18 -11 -40 -17 -48 -17 -19 -1 -18 21 2 17 15
18 14 15 -12 -2 -15 -10 -32 -19 -39 -24 -18 -8 -26 17 -10 20 14 22 13 21
-10 -1 -14 -5 -28 -8 -32 -17 -17 -5 -24 14 -7 20 18 20 18 13 -11 -4 -17 -12
-36 -18 -44 -9 -12 -8 -13 6 -9 26 10 30 -19 5 -37 -17 -12 -18 -15 -5 -15 9
0 20 5 23 10 3 6 11 10 17 10 6 0 3 -11 -6 -25 -21 -32 -20 -34 7 -28 21 4 21
4 3 -11 -10 -8 -15 -19 -12 -25 4 -5 -2 -14 -11 -20 -14 -8 -16 -12 -5 -22 34
-35 -5 -43 -64 -13 -54 27 -144 34 -144 10 0 -7 14 -16 33 -19 17 -3 46 -11
62 -17 27 -11 28 -13 11 -19 -18 -7 -16 -9 12 -19 22 -8 30 -15 26 -26 -4 -11
2 -19 20 -26 25 -9 36 -30 16 -30 -5 0 -7 -7 -4 -15 4 -8 1 -15 -6 -15 -10 0
-10 -3 0 -15 6 -8 9 -19 6 -24 -4 -5 -2 -12 4 -16 5 -3 19 -26 30 -51 11 -24
25 -44 31 -44 6 0 9 -7 5 -15 -3 -10 3 -17 19 -21 14 -3 25 -12 25 -20 0 -7 8
-17 18 -23 9 -5 16 -11 14 -13 -5 -5 16 -55 25 -61 5 -3 9 -20 8 -39 0 -21 7
-38 19 -47 14 -11 15 -15 5 -22 -11 -7 -12 -12 -2 -28 9 -14 9 -22 2 -27 -6
-3 -8 -13 -5 -21 3 -8 3 -20 -1 -26 -5 -7 -8 -21 -8 -32 0 -12 -6 -19 -14 -17
-9 2 -12 -4 -8 -18 3 -13 0 -20 -10 -20 -9 0 -13 -8 -11 -22 2 -15 -2 -22 -10
-20 -9 2 -12 -6 -10 -20 3 -21 -33 -63 -54 -63 -4 0 -14 -9 -22 -20 -11 -15
-15 -16 -16 -5 0 10 -5 7 -16 -8 -12 -18 -19 -20 -29 -12 -10 8 -15 6 -19 -8
-11 -34 -125 -44 -193 -17 -46 17 -135 41 -185 50 -29 4 -38 2 -38 -8 0 -24
77 -58 303 -132 456 -149 629 -253 671 -403 41 -146 6 -298 -172 -742 -110
-275 -135 -365 -140 -497 -6 -161 4 -180 199 -372 122 -119 171 -160 236 -196
46 -26 90 -56 97 -67 28 -39 -12 -72 -48 -40 -30 27 -108 54 -120 42 -13 -13
11 -40 52 -57 37 -15 40 -28 13 -43 -16 -8 -27 -3 -62 26 -50 41 -68 34 -45
-20 19 -46 20 -50 8 -54 -6 -2 -26 11 -46 29 -43 37 -73 34 -54 -6 14 -31 4
-43 -19 -24 -10 8 -35 22 -55 32 -52 23 -106 74 -204 193 -65 80 -102 114
-162 153 -42 27 -89 59 -104 71 -53 41 -45 136 17 197 18 18 39 49 45 69 19
56 7 224 -29 406 -44 224 -54 327 -47 447 9 144 31 246 66 315 34 66 36 76 16
76 -19 0 -61 -45 -81 -86 -32 -68 -144 -93 -335 -74 l-131 13 -84 56 c-137 91
-243 179 -360 297 -121 122 -112 103 -146 299 -6 33 -21 92 -35 132 -71 207
-88 378 -59 593 8 58 15 140 15 182 l0 76 55 48 c75 63 149 158 184 235 62
135 75 164 79 172 8 15 -19 6 -38 -13 -11 -11 -34 -23 -50 -27 -31 -6 -42 -23
-14 -23 8 0 12 -4 9 -10 -3 -5 -19 -10 -36 -10 -16 0 -29 -4 -29 -10 0 -5 9
-10 21 -10 12 0 19 -5 16 -12 -2 -7 -16 -12 -31 -10 -32 3 -33 -4 -3 -29 l22
-18 -37 -1 c-21 0 -38 -4 -38 -10 0 -5 5 -10 10 -10 6 0 10 -4 10 -10 0 -5
-12 -10 -26 -10 -14 0 -23 -4 -19 -10 3 -5 17 -10 31 -10 15 0 23 -4 19 -10
-4 -6 -11 -8 -16 -5 -5 4 -9 -1 -9 -10 0 -13 -6 -15 -30 -10 -31 7 -42 -8 -14
-19 14 -5 14 -8 0 -21 -8 -8 -27 -15 -42 -15 -22 0 -24 -3 -15 -14 15 -18 -1
-30 -29 -21 -11 4 -20 2 -20 -4 0 -6 5 -11 10 -11 6 0 5 -8 -2 -20 -9 -13 -19
-18 -34 -14 -19 5 -22 3 -17 -16 5 -19 3 -21 -17 -15 -19 6 -21 4 -15 -14 5
-18 2 -21 -22 -21 -25 -1 -26 -2 -10 -14 21 -16 22 -26 2 -26 -8 0 -15 -4 -15
-10 0 -5 -12 -10 -27 -10 -21 0 -24 -3 -15 -12 21 -21 14 -41 -13 -36 -25 5
-34 -5 -15 -17 18 -11 10 -35 -12 -35 -17 0 -19 -3 -10 -12 20 -20 14 -36 -15
-41 -27 -4 -27 -4 -5 -12 28 -9 24 -29 -6 -33 -25 -4 -30 -22 -7 -22 8 0 15
-7 15 -15 0 -8 -7 -15 -15 -15 -8 0 -15 -4 -15 -10 0 -5 7 -10 15 -10 8 0 15
-7 15 -15 0 -8 -9 -15 -20 -15 -23 0 -27 -15 -5 -24 23 -8 18 -28 -5 -21 -12
4 -20 2 -20 -5 0 -7 9 -14 20 -17 16 -4 18 -9 9 -19 -6 -7 -17 -10 -25 -7 -8
3 -14 1 -14 -5 0 -6 5 -12 12 -14 6 -2 12 -14 13 -26 1 -18 -2 -21 -24 -15
-21 4 -24 3 -13 -8 19 -21 15 -41 -8 -34 -20 6 -28 -9 -10 -20 18 -11 10 -23
-12 -17 -14 3 -19 2 -14 -6 4 -7 15 -12 24 -13 10 0 12 -3 5 -5 -7 -3 -9 -12
-6 -21 5 -12 1 -14 -17 -8 -19 6 -22 4 -17 -9 4 -10 1 -16 -8 -16 -20 0 -19
-17 3 -29 14 -8 14 -11 2 -12 -8 -1 -21 -1 -28 0 -10 2 -12 -4 -7 -18 5 -15 2
-21 -10 -21 -12 0 -14 -6 -9 -27 6 -22 4 -25 -10 -20 -10 4 -16 1 -16 -8 0 -9
10 -15 23 -15 l22 -1 -25 -20 c-23 -20 -24 -22 -6 -34 17 -13 17 -14 -5 -26
-22 -11 -22 -12 -3 -26 16 -11 16 -15 5 -22 -12 -8 -11 -12 4 -27 17 -17 17
-18 -1 -24 -17 -6 -16 -8 6 -20 23 -12 23 -13 5 -26 -18 -14 -18 -14 1 -14 30
0 36 -11 16 -26 -16 -12 -15 -13 5 -14 15 0 21 -5 17 -14 -3 -8 3 -16 15 -19
15 -4 18 -10 14 -28 -5 -20 -3 -22 8 -11 20 18 31 15 24 -8 -7 -22 5 -26 23
-8 9 9 12 8 12 -5 0 -10 6 -17 13 -15 36 8 118 -129 158 -263 12 -41 27 -85
34 -99 20 -39 28 -90 16 -90 -12 0 -23 22 -75 155 -25 62 -47 100 -71 123 -32
30 -77 42 -89 24 -2 -4 4 -39 15 -77 23 -85 26 -165 5 -165 -14 0 -67 122 -81
187 -3 17 -13 37 -21 44 -42 34 -27 -50 31 -185 9 -21 13 -41 10 -45 -14 -13
-65 61 -81 116 -23 78 -45 123 -61 123 -30 0 -25 -25 41 -205 16 -43 -56 53
-93 125 -71 137 -82 205 -61 400 5 52 17 264 25 470 16 397 22 447 73 585 31
82 212 475 297 645 98 195 188 306 292 356 118 58 197 40 314 -73 51 -49 72
-64 80 -56 8 8 6 19 -10 41 l-21 30 22 5 22 6 -22 24 c-20 21 -21 28 -11 53
l11 29 19 -51 c11 -29 38 -72 59 -97z m1781 106 c13 -36 60 -105 67 -98 3 2 0
10 -5 17 -18 24 -43 98 -33 98 6 0 10 -7 10 -15 0 -20 30 -79 36 -72 3 3 1 22
-5 42 -15 56 8 39 31 -23 11 -29 24 -52 29 -52 12 0 12 1 -6 43 -8 20 -15 44
-15 54 1 10 7 2 14 -18 25 -70 64 -112 206 -221 110 -84 191 -172 227 -245 24
-50 28 -70 28 -143 0 -72 -4 -92 -27 -135 -25 -49 -124 -152 -135 -142 -3 3
11 20 30 37 47 41 93 115 107 172 16 61 3 121 -41 194 -42 70 -108 124 -247
200 -129 71 -234 169 -275 256 -15 31 -27 62 -27 67 0 22 21 10 31 -16z m3646
-63 c47 -101 102 -280 125 -408 17 -99 22 -165 22 -297 0 -192 -15 -308 -69
-530 -34 -141 -126 -420 -144 -438 -6 -6 -12 21 -16 69 -3 44 -15 135 -26 203
-15 92 -18 130 -10 150 18 46 59 223 72 311 16 110 16 391 0 499 -13 89 -47
226 -80 325 l-20 60 26 24 c22 20 25 30 21 66 l-5 43 39 -11 c33 -10 43 -20
65 -66z m-3055 -43 c-21 -45 -59 -104 -83 -130 l-44 -49 -40 35 -39 34 28 34
c16 19 35 33 42 31 8 -2 11 3 8 12 -8 21 14 56 31 50 9 -4 15 0 15 9 0 8 -4
17 -9 19 -5 2 -3 16 4 33 l13 30 10 -25 c9 -22 11 -22 12 -5 0 15 2 17 9 6 6
-9 11 -10 15 -2 12 19 26 1 21 -27 -3 -19 2 -13 17 18 16 33 23 40 26 27 2
-10 -14 -55 -36 -100z m-142 90 c0 -4 -11 -29 -25 -56 -30 -60 -83 -115 -99
-103 -72 55 -103 84 -127 119 -16 23 -29 44 -29 46 0 3 63 4 140 4 77 -1 140
-6 140 -10z m-2883 -82 c-92 -93 -125 -106 -163 -64 -15 16 -16 21 -4 19 8 -1
24 -2 34 -1 19 1 19 1 0 23 -20 23 -20 23 31 2 18 -7 20 12 3 20 -7 3 -2 4 13
1 18 -3 29 2 40 17 12 18 101 68 122 68 4 0 -30 -38 -76 -85z m-253 26 c19
-20 27 -37 24 -56 -3 -24 -11 -30 -67 -47 -72 -22 -111 -14 -111 21 0 26 17
36 36 20 8 -6 18 -9 22 -5 4 4 -2 14 -12 22 -13 9 -15 14 -6 14 7 0 22 -7 32
-17 10 -9 21 -13 26 -9 4 4 -6 19 -23 32 -34 27 -14 34 23 8 19 -13 22 -13 22
0 0 8 -4 18 -10 21 -5 3 -10 10 -10 16 0 18 27 8 54 -20z m2137 -31 c34 -19
21 -30 -34 -30 -30 0 -76 -7 -103 -15 -99 -30 -97 -11 2 30 64 27 104 31 135
15z m1843 1 c6 -9 -41 -21 -83 -21 -25 1 -25 1 -7 15 22 16 82 20 90 6z m2164
-68 c30 -82 69 -234 83 -328 28 -175 12 -517 -32 -670 -10 -34 -13 -37 -20
-20 -11 27 -94 452 -114 590 -20 129 -55 256 -91 327 -22 44 -24 54 -14 79 10
24 15 27 31 18 11 -5 39 -9 62 -7 36 3 44 7 57 35 8 18 16 33 16 33 1 0 11
-26 22 -57z m-2120 22 c28 -9 66 -30 84 -47 22 -20 26 -28 13 -23 -19 8 -153
53 -183 61 -18 5 -5 24 17 24 9 0 41 -7 69 -15z m-4291 -97 c-13 -29 -47 -89
-76 -132 l-52 -80 3 108 3 108 36 12 c21 7 52 25 70 39 44 35 49 16 16 -55z
m2253 41 c-36 -16 -80 -44 -97 -61 -30 -29 -33 -30 -33 -11 0 26 60 81 98 89
15 3 32 7 37 9 6 2 21 4 35 4 17 0 5 -9 -40 -30z m-2095 -29 c18 0 59 10 90
22 55 21 57 21 87 4 20 -13 41 -17 65 -13 19 3 33 3 31 -1 -66 -135 -195 -401
-246 -508 -37 -78 -70 -139 -73 -135 -11 11 -38 171 -50 286 -12 118 -9 352 4
373 7 9 14 8 34 -8 14 -11 40 -20 58 -20z m4169 10 c66 -31 137 -110 146 -161
12 -66 2 -66 -31 -1 -34 69 -85 124 -140 152 -66 34 -43 43 25 10z m-2366 -6
c22 -15 33 -62 11 -48 -9 5 -10 -1 -5 -20 7 -28 -2 -34 -22 -14 -15 15 -16 3
-2 -23 13 -24 3 -25 -22 -2 -18 16 -19 16 -8 -11 13 -35 5 -47 -14 -20 -21 28
-32 9 -12 -20 16 -25 7 -44 -15 -30 -14 8 -49 91 -48 112 0 18 83 92 102 92 7
0 23 -7 35 -16z m234 -67 c-23 -23 -57 -72 -77 -107 -24 -46 -35 -58 -35 -42
0 47 42 122 88 158 62 47 75 43 24 -9z m2172 -20 c52 -64 79 -131 84 -214 4
-68 -10 -157 -28 -168 -3 -2 -4 33 -2 78 5 107 -13 175 -71 265 -42 64 -47 82
-26 82 4 0 24 -19 43 -43z m-2329 -140 c0 -92 5 -136 19 -177 69 -208 173
-304 396 -364 176 -48 304 -45 426 9 57 25 149 104 159 136 10 30 22 23 64
-40 l41 -59 -30 -25 c-99 -84 -260 -151 -404 -169 -363 -46 -696 211 -747 578
-14 100 -5 143 37 193 20 23 36 41 37 41 1 0 2 -55 2 -123z m1185 94 l31 -18
-50 -38 c-156 -119 -172 -273 -45 -445 48 -65 50 -70 32 -70 -14 1 -103 129
-139 200 -32 64 -31 151 2 213 26 51 120 176 131 177 4 0 21 -8 38 -19z
m-1046 -67 c-11 -42 -18 -113 -18 -181 -1 -62 -4 -113 -7 -113 -6 0 -49 173
-49 197 0 40 73 183 86 170 3 -2 -3 -35 -12 -73z m2395 33 l36 -32 -7 -100
c-11 -173 -68 -295 -198 -426 -70 -71 -101 -94 -170 -127 -97 -45 -150 -60
-252 -68 -89 -8 -225 14 -317 51 -85 33 -194 98 -220 131 l-20 25 46 44 45 44
49 -50 c122 -125 319 -159 544 -94 135 39 209 77 268 138 100 102 148 232 151
404 0 51 3 93 5 93 2 0 20 -15 40 -33z m-4588 -75 c-23 -73 -80 -183 -99 -190
-38 -12 15 152 78 243 43 62 51 43 21 -53z m3344 -4 c30 -66 49 -171 40 -223
-13 -86 -59 -111 -96 -52 -18 28 -20 44 -16 127 4 83 29 200 43 200 3 0 16
-24 29 -52z m40 12 c-9 -14 -25 5 -25 30 0 12 3 12 16 -2 9 -9 13 -21 9 -28z
m-115 11 c0 -22 -16 -36 -24 -22 -8 12 3 41 15 41 5 0 9 -9 9 -19z m1129 -24
c41 -108 -9 -332 -85 -382 -15 -9 -25 -13 -23 -8 2 4 17 32 32 61 45 85 60
164 53 265 -6 87 4 114 23 64z m-993 -25 c-22 -23 -29 -10 -9 18 11 16 18 19
21 11 2 -7 -3 -20 -12 -29z m-162 -5 c6 -9 7 -19 3 -23 -9 -9 -37 15 -37 33 0
18 20 12 34 -10z m-1008 -52 c-9 -77 9 -179 44 -250 16 -33 27 -62 24 -64 -10
-10 -62 56 -79 99 -22 59 -30 174 -16 228 17 63 35 54 27 -13z m1204 36 c0
-19 -26 -48 -36 -39 -7 7 17 58 28 58 4 0 8 -8 8 -19z m-223 -13 c25 -24 30
-38 11 -38 -16 0 -48 31 -48 47 0 19 10 16 37 -9z m229 -46 c-14 -14 -29 -23
-32 -19 -10 10 37 58 48 50 6 -3 -2 -17 -16 -31z m-259 8 c14 -11 32 -20 39
-20 8 0 14 -4 14 -10 0 -5 -11 -10 -24 -10 -27 0 -79 37 -71 51 9 13 14 12 42
-11z m-3173 -71 c-8 -25 -27 -79 -44 -119 -16 -40 -30 -79 -30 -86 0 -8 -4
-14 -9 -14 -5 0 -12 21 -16 46 -6 42 -2 54 47 150 38 76 54 100 59 87 3 -10 0
-39 -7 -64z m4340 28 c-24 -116 -56 -187 -107 -243 -44 -48 -96 -84 -123 -84
-4 0 13 22 38 48 62 66 91 114 127 204 36 91 52 119 64 111 4 -3 5 -19 1 -36z
m-864 14 c0 -12 -54 -51 -71 -51 -7 0 0 14 16 30 28 29 55 39 55 21z m-322
-11 c9 -5 31 -15 47 -22 l30 -12 -31 -4 c-39 -4 -84 13 -84 33 0 17 13 19 38
5z m-867 -50 c5 -8 19 -40 33 -70 29 -64 110 -158 164 -192 50 -31 22 -35 -51
-8 -35 13 -68 35 -88 58 -37 42 -85 140 -95 195 -6 34 -4 39 11 35 10 -1 22
-10 26 -18z m1193 -4 c-7 -18 -48 -39 -69 -34 -13 2 -8 9 21 29 40 26 57 28
48 5z m-494 0 c0 -8 3 -21 6 -29 3 -9 -7 -22 -28 -35 -39 -24 -118 -39 -118
-23 0 6 4 11 9 11 5 0 33 20 63 44 57 49 68 54 68 32z m1686 -46 c-40 -184
-42 -273 -11 -364 13 -37 13 -41 -3 -50 -35 -19 -110 -105 -117 -134 -3 -17
-12 -35 -18 -40 -21 -17 -277 -109 -437 -158 -85 -25 -180 -59 -210 -74 -89
-45 -139 -113 -164 -221 -39 -168 -45 -551 -11 -749 18 -103 15 -168 -11 -236
l-17 -44 -83 0 c-46 0 -114 -5 -151 -12 -67 -11 -69 -11 -128 20 -68 36 -84
38 -125 17 -30 -15 -44 -46 -39 -81 2 -11 -3 -36 -10 -57 -7 -21 -10 -41 -7
-44 3 -3 -2 -18 -11 -34 -14 -23 -15 -33 -5 -54 7 -14 12 -36 12 -48 0 -29 27
-67 46 -67 8 0 32 -13 52 -29 48 -39 90 -48 250 -56 76 -4 152 -13 175 -21 23
-8 70 -22 105 -30 103 -24 142 -6 222 101 46 62 92 87 228 124 202 55 413 163
532 269 30 27 84 90 120 140 36 50 70 93 75 95 6 2 51 -3 100 -11 121 -19 383
-21 455 -3 30 8 95 31 144 52 50 21 92 37 94 35 6 -6 -246 -213 -348 -286
-439 -314 -980 -548 -1622 -704 -80 -20 -151 -36 -157 -36 -6 0 -11 13 -11 29
0 42 -39 92 -99 128 -53 31 -323 124 -478 164 -60 15 -92 30 -123 56 -41 35
-65 38 -42 5 6 -9 29 -54 51 -99 70 -146 160 -256 265 -325 33 -21 55 -38 50
-38 -5 0 -51 -9 -103 -20 -125 -26 -132 -26 -98 5 37 35 36 77 -2 116 -18 18
-40 29 -56 29 -72 0 -111 44 -209 236 -69 137 -89 201 -90 294 -1 84 -1 86 55
195 31 61 80 168 108 238 28 71 85 194 125 275 143 286 179 413 156 538 -28
149 -162 260 -380 315 -116 29 -294 23 -465 -16 -93 -21 -120 -24 -124 -14 -2
7 -32 43 -67 80 -64 68 -84 110 -84 179 0 19 -7 48 -16 65 -12 24 -13 30 -2
34 7 2 25 17 40 32 21 20 28 37 28 65 l0 37 73 -75 c109 -113 218 -180 346
-213 222 -56 460 -8 674 137 48 33 58 36 64 23 3 -9 -2 -33 -11 -53 -10 -19
-20 -57 -23 -84 -5 -43 -8 -48 -31 -48 -13 0 -59 -18 -101 -39 -42 -22 -89
-43 -106 -48 -44 -13 -36 -44 31 -120 66 -74 101 -96 166 -98 l47 -2 42 -80
c22 -45 52 -91 65 -104 l23 -22 58 53 c63 57 103 113 103 146 0 30 6 32 48 21
62 -16 101 8 161 98 48 73 55 105 25 105 -8 0 -55 16 -104 35 -49 19 -99 35
-110 35 -18 0 -20 6 -20 58 0 39 -7 70 -21 96 -11 21 -18 40 -15 43 3 3 39
-16 80 -42 95 -59 205 -101 313 -120 108 -19 158 -19 268 0 251 44 465 231
556 484 21 58 24 62 36 45 8 -11 12 -30 9 -44z m-1447 33 c3 -2 0 -8 -7 -15
-14 -14 -94 1 -100 20 -3 10 8 11 50 6 29 -4 55 -8 57 -11z m481 -79 c34 -18
34 -19 10 -22 -13 -2 -50 4 -82 14 -62 18 -67 28 -48 80 l11 27 37 -40 c20
-22 53 -49 72 -59z m-509 36 c16 0 29 -5 29 -11 0 -16 -83 -7 -88 10 -3 10 0
12 12 8 10 -4 31 -7 47 -7z m1023 -12 c-34 -107 -208 -258 -274 -236 -5 1 25
27 69 55 43 29 91 68 107 88 56 69 96 115 101 115 2 0 1 -10 -3 -22z m-4164
-121 l23 -108 -27 -87 c-14 -48 -26 -98 -26 -112 -1 -23 -2 -24 -14 -7 -8 10
-28 61 -46 114 -30 90 -31 97 -17 132 8 20 22 63 32 96 28 97 35 112 44 95 4
-8 18 -64 31 -123z m3408 121 c-5 -15 -68 -24 -68 -9 0 5 12 12 28 14 15 2 31
5 35 6 5 0 7 -5 5 -11z m-3631 -20 c-3 -8 -6 -5 -6 6 -1 11 2 17 5 13 3 -3 4
-12 1 -19z m3181 -24 c-1 -10 -25 -29 -51 -42 -57 -30 -175 -41 -222 -22 l-30
13 45 20 c25 11 72 22 104 24 33 2 78 12 100 22 43 19 60 15 54 -15z m-516
-50 c42 -37 150 -95 216 -114 23 -7 42 -17 42 -22 0 -4 -26 -8 -59 -8 -80 0
-179 50 -261 131 -73 74 -80 99 -17 68 23 -12 59 -37 79 -55z m754 53 c4 -13
-22 -87 -31 -87 -6 0 -55 73 -55 82 0 6 21 11 68 17 7 0 15 -5 18 -12z m-3432
-78 c23 -67 26 -83 15 -90 -22 -13 -29 -11 -38 14 -10 26 -19 157 -11 157 3 0
18 -37 34 -81z m3606 63 c0 -4 -15 -23 -34 -41 l-34 -33 -12 22 c-11 20 -9 25
11 41 24 19 69 26 69 11z m187 -3 c15 -6 70 -11 122 -11 52 1 104 -4 115 -11
21 -11 20 -11 -4 -18 -41 -12 -212 -9 -250 4 -19 7 -36 20 -38 30 -4 20 14 22
55 6z m477 -27 c-33 -57 -197 -143 -273 -144 -21 0 -47 4 -57 10 -17 9 -16 11
11 17 125 27 227 68 294 119 44 33 46 32 25 -2z m-774 -25 c19 -33 4 -62 -31
-62 -29 0 -36 25 -19 66 15 34 29 33 50 -4z m685 13 c-20 -33 -232 -84 -307
-74 -25 3 -54 14 -63 24 -15 17 -12 17 72 13 71 -3 106 1 178 20 103 28 129
31 120 17z m-1315 -20 c42 -30 122 -42 193 -29 32 5 61 8 64 6 7 -8 -64 -48
-94 -53 -59 -11 -230 41 -262 80 -12 14 -8 16 29 16 26 0 53 -8 70 -20z
m-3108 -90 c6 0 7 11 4 26 l-7 26 30 -23 c32 -26 40 -49 16 -49 -20 0 -47 -43
-39 -64 3 -9 2 -16 -3 -16 -10 0 -83 147 -83 168 0 7 16 -6 36 -28 20 -22 41
-40 46 -40z m7459 20 c44 -12 108 -72 133 -123 23 -50 32 -107 17 -107 -7 0
-9 5 -6 10 4 6 -7 13 -24 16 -17 4 -31 11 -31 17 0 6 -15 7 -36 4 -32 -5 -34
-4 -22 10 12 15 10 16 -12 9 -38 -13 -113 -11 -118 2 -2 7 -15 12 -29 12 -21
0 -24 2 -13 15 10 12 10 15 -2 15 -12 0 -48 33 -48 45 0 2 18 9 41 15 39 11
100 4 152 -15 10 -4 17 -3 17 4 0 21 -52 44 -113 51 -56 6 -60 8 -37 18 32 14
85 15 131 2z m-3785 -45 c6 -24 -9 -55 -26 -55 -4 0 -12 12 -19 26 -9 20 -9
30 0 40 18 22 38 17 45 -11z m152 -2 c4 -28 -23 -49 -43 -33 -20 17 -19 37 3
49 23 14 36 9 40 -16z m-3519 -25 c5 -13 12 -38 16 -57 l7 -34 -30 24 c-28 22
-46 64 -35 81 9 16 34 7 42 -14z m-100 -59 c82 -61 166 -151 198 -212 14 -27
16 -59 15 -197 -2 -91 -7 -237 -13 -325 -9 -136 -14 -168 -35 -212 -29 -61
-69 -93 -115 -93 -97 0 -89 98 23 264 89 132 94 218 5 99 -130 -174 -216 -228
-275 -173 -15 14 -22 33 -22 57 0 31 8 44 58 92 44 42 73 61 116 74 71 23 126
54 126 73 0 20 -24 17 -115 -12 -136 -44 -286 -23 -339 49 l-20 27 21 21 c32
33 133 49 292 46 101 -1 143 1 152 11 28 27 -8 37 -149 42 -144 6 -205 22
-244 67 -26 28 -32 74 -14 98 22 30 166 35 229 7 59 -26 149 -94 182 -138 28
-37 40 -42 48 -20 9 22 -52 94 -147 175 -67 57 -91 84 -111 128 -30 65 -31 88
-7 102 33 20 60 10 141 -50z m3574 -15 c32 -49 37 -64 36 -113 l-1 -56 -13 48
c-15 56 -31 77 -55 77 -13 0 -19 -12 -24 -52 -8 -57 -26 -51 -26 9 0 45 -14
48 -50 11 -30 -31 -31 -32 -25 -8 18 62 79 140 109 140 6 0 28 -25 49 -56z
m-2769 -156 c-34 -258 -22 -414 51 -638 39 -122 61 -230 41 -209 -2 2 -29 41
-59 87 -67 100 -147 253 -181 348 l-26 69 31 144 c17 79 41 169 55 199 28 64
96 160 102 144 2 -7 -4 -71 -14 -144z m2760 55 c3 -10 8 -36 11 -58 13 -82 12
-81 49 -81 55 0 81 -34 56 -74 -8 -12 -15 -11 -55 8 -25 12 -47 22 -50 22 -2
0 -2 -28 1 -62 6 -74 -8 -108 -49 -122 -23 -8 -31 -6 -49 12 -18 17 -23 37
-26 93 -4 67 -5 70 -26 64 -57 -19 -83 -17 -99 6 -30 42 11 79 60 54 15 -8 29
-13 31 -11 2 2 5 23 7 47 4 46 23 99 35 99 4 0 10 -21 14 -47 13 -97 37 -95
57 2 13 65 23 80 33 48z m-3924 -38 c0 -3 -7 -17 -16 -30 -16 -25 -16 -82 1
-132 7 -21 7 -22 -41 -7 -27 8 -53 19 -58 24 -13 13 -1 13 41 1 18 -5 35 -6
38 -2 2 5 -34 18 -80 31 -47 12 -85 26 -85 31 0 5 13 6 29 3 16 -3 31 -1 35 4
4 7 -17 15 -54 23 -33 6 -63 15 -65 19 -3 4 41 13 98 20 56 6 109 13 117 15
27 5 40 5 40 0z m3690 -60 c0 -3 -9 -14 -20 -25 -29 -29 -26 -74 6 -99 15 -12
33 -21 40 -21 8 0 14 -9 14 -20 0 -24 -11 -25 -53 -4 -46 23 -67 53 -67 97 0
32 5 40 33 57 32 20 47 25 47 15z m395 -40 c53 -52 17 -133 -55 -126 -9 1 -5
7 12 16 38 21 46 66 18 105 -26 36 -9 40 25 5z m3329 -17 c10 -24 19 -68 20
-100 0 -34 4 -52 9 -45 9 12 9 11 -8 -42 -5 -16 -4 -21 4 -17 8 5 8 1 2 -16
-5 -13 -12 -35 -15 -50 -4 -16 -10 -28 -14 -28 -15 1 -74 91 -94 142 -15 40
-19 67 -15 112 7 81 22 90 37 24 7 -29 21 -71 32 -93 l18 -40 -4 60 c-3 33 -8
77 -12 98 -9 53 16 49 40 -5z m-3245 -9 c17 -6 31 -16 31 -22 0 -26 -52 -95
-80 -107 -42 -17 -48 -7 -16 30 18 22 26 43 26 71 0 21 2 39 4 39 1 0 17 -5
35 -11z m-589 -20 c0 -26 37 -89 52 -89 6 0 9 -3 6 -6 -11 -10 -45 15 -79 57
-26 33 -29 43 -18 50 24 15 39 10 39 -12z m-450 -82 c0 -4 13 -1 29 7 26 14
30 13 49 -4 12 -11 24 -16 27 -10 3 5 19 8 34 7 24 -2 27 -5 20 -19 -12 -22
-1 -23 25 -3 25 19 37 19 30 0 -5 -11 -2 -13 12 -8 14 5 16 3 11 -11 -6 -15
-3 -17 23 -11 19 4 30 3 30 -4 0 -6 7 -11 16 -11 13 0 14 -3 5 -14 -10 -12 -6
-15 26 -18 21 -2 38 -7 38 -13 0 -5 4 -16 8 -22 6 -9 1 -13 -15 -14 -18 -1
-17 -3 9 -10 18 -5 38 -19 44 -30 9 -19 8 -20 -10 -14 -33 10 -24 -12 9 -24
17 -5 30 -17 30 -25 0 -9 4 -16 9 -16 5 0 12 -8 16 -17 5 -15 4 -16 -6 -5 -7
6 -20 12 -28 12 -11 0 -7 -8 12 -25 26 -25 38 -53 16 -39 -8 4 -9 -1 -4 -17 7
-23 7 -23 -12 -6 -30 26 -37 20 -14 -12 22 -30 28 -61 12 -61 -5 0 -7 -10 -4
-22 4 -22 4 -22 -11 -4 -8 10 -17 24 -19 30 -2 6 -7 8 -11 4 -4 -3 0 -20 8
-37 18 -34 21 -65 6 -56 -7 4 -9 -3 -5 -22 l7 -28 -21 25 -21 25 7 -34 c4 -24
3 -32 -5 -27 -8 5 -10 -3 -7 -26 5 -33 5 -33 -6 -5 -15 37 -31 34 -17 -4 8
-22 7 -34 -1 -42 -6 -6 -11 -22 -12 -36 0 -24 -2 -23 -15 9 l-14 35 6 -49 c4
-33 2 -46 -5 -41 -6 3 -11 -2 -11 -12 -1 -17 -2 -16 -16 2 -15 19 -16 18 -10
-22 3 -24 2 -44 -4 -48 -5 -3 -10 -16 -10 -28 0 -20 0 -20 -15 -1 -14 18 -14
17 -15 -16 0 -19 -3 -46 -7 -59 -6 -23 -7 -23 -14 -5 -5 13 -8 5 -8 -27 -1
-49 -25 -87 -33 -52 -3 10 -4 -8 -4 -39 0 -32 -5 -63 -12 -70 -9 -9 -12 -8
-12 5 0 9 -4 17 -10 17 -5 0 -10 -24 -10 -53 0 -59 -6 -72 -27 -56 -10 9 -13
3 -14 -32 -1 -50 -16 -108 -19 -74 -3 44 -18 -22 -25 -111 -10 -128 21 -240
113 -409 40 -74 144 -220 157 -221 6 -1 28 -4 50 -8 86 -16 102 -66 21 -66
-56 0 -225 88 -296 154 -54 51 -184 119 -265 141 -30 8 -59 16 -64 19 -5 3 13
59 39 123 174 430 201 664 93 810 -16 22 -23 45 -23 75 1 67 27 112 92 155 32
21 91 64 132 96 41 32 101 69 133 82 67 28 76 41 34 50 -59 13 -117 -16 -246
-119 -38 -31 -107 -75 -153 -98 -69 -33 -97 -42 -156 -46 -67 -4 -79 -1 -187
41 -62 25 -126 49 -141 52 -40 10 -35 20 19 40 99 38 200 177 224 310 10 56 8
134 -7 198 -5 21 -3 27 11 27 12 0 15 -6 10 -22 -6 -22 -6 -22 9 -4 16 20 16
20 16 0 1 -16 4 -15 21 9 20 26 22 27 34 10 13 -17 14 -17 35 2 18 16 24 17
41 7 17 -11 24 -9 47 8 14 12 28 17 30 11 2 -5 10 -7 18 -4 8 3 14 0 14 -7 0
-6 14 -1 31 13 26 20 35 22 55 13 13 -6 24 -14 24 -19z m837 -72 c-17 -47 -55
-78 -98 -78 -41 0 -99 59 -99 100 1 26 3 24 25 -18 27 -51 63 -73 99 -60 28
11 66 57 66 81 0 9 3 20 7 24 14 13 13 -10 0 -49z m-3997 39 c0 -3 -9 -17 -20
-31 -11 -14 -20 -32 -20 -40 0 -27 31 -74 61 -92 17 -10 26 -22 21 -25 -12 -7
-225 28 -262 43 l-25 10 28 0 c40 1 33 16 -15 30 -54 17 -34 31 45 31 31 0 57
5 57 10 0 6 -28 10 -64 10 -122 0 -77 25 89 50 66 10 105 11 105 4z m3930
-150 c0 -3 -10 -14 -22 -24 -21 -16 -23 -16 -35 -1 -19 25 -16 31 22 31 19 0
35 -3 35 -6z m-2921 -73 c6 -22 38 -91 70 -153 102 -199 215 -353 382 -516
131 -127 210 -191 376 -302 136 -91 438 -250 473 -250 17 0 20 -7 20 -44 0
-24 3 -65 7 -91 l6 -48 -29 7 c-16 3 -99 40 -184 82 -220 107 -379 202 -575
343 -78 56 -119 88 -264 207 l-26 22 23 41 c13 22 20 46 17 51 -4 6 -27 21
-53 34 -26 14 -64 37 -84 53 -44 34 -154 174 -231 296 -55 87 -55 89 -42 126
19 56 84 181 94 181 4 0 13 -18 20 -39z m-885 -145 c-10 -41 21 -95 66 -115
l42 -19 -29 -19 c-56 -40 -135 -75 -143 -63 -5 8 -14 8 -35 0 -39 -15 -42 -6
-7 19 31 22 68 71 54 71 -5 0 -35 -20 -67 -45 -32 -25 -60 -43 -62 -41 -6 6
20 53 52 96 26 36 124 140 131 140 3 0 2 -11 -2 -24z m825 -239 c53 -79 53
-80 25 -73 -53 12 -105 97 -103 167 0 23 1 23 12 5 7 -11 36 -55 66 -99z
m-590 -29 c26 -29 35 -33 80 -33 28 0 51 -3 51 -6 0 -12 -112 -151 -117 -146
-2 3 3 26 11 51 9 26 16 54 16 62 0 30 -19 2 -39 -59 -24 -70 -47 -111 -37
-64 9 38 -11 34 -29 -5 -15 -32 -15 -30 -11 47 4 72 29 185 42 185 2 0 17 -15
33 -32z m4611 -12 c19 -1 37 -6 39 -10 4 -9 -179 -269 -185 -263 -3 2 2 33 11
68 8 35 15 99 15 142 l0 78 43 -6 c23 -3 58 -7 77 -9z m-2001 -63 c0 -10 -3
-25 -7 -34 -6 -15 -11 -14 -41 7 -36 25 -29 32 42 43 4 0 7 -7 6 -16z m-1806
-135 c42 -29 77 -56 77 -60 0 -17 -46 -19 -86 -3 -36 14 -49 26 -69 65 -14 27
-29 51 -35 55 -5 3 -10 11 -10 17 0 6 10 3 23 -6 12 -9 57 -39 100 -68z m5646
53 c18 -11 11 -23 -84 -136 -479 -573 -1145 -987 -2078 -1294 -200 -66 -559
-171 -585 -171 -14 0 -347 173 -366 191 -10 9 2 12 144 35 140 22 402 77 575
120 908 228 1619 618 2098 1152 43 47 57 58 57 43 0 -50 41 -91 90 -91 10 0
31 10 46 23 20 18 27 34 30 71 2 26 6 51 9 57 8 11 45 12 64 0z m-4453 -463
c-3 -13 -9 -47 -12 -75 -4 -29 -8 -53 -10 -53 -16 0 -254 112 -254 119 0 3 48
7 108 7 59 1 118 6 132 12 37 16 43 14 36 -10z m-141 -492 c-71 -23 -212 -89
-230 -108 -14 -14 23 -2 119 39 43 18 81 32 83 29 8 -8 -132 -80 -217 -112
-212 -80 -378 -62 -510 55 l-45 40 72 -36 c92 -46 106 -38 19 11 -37 20 -66
38 -66 40 0 2 26 -7 58 -19 59 -24 158 -44 134 -27 -9 6 19 11 80 15 65 4 135
18 233 47 77 22 144 40 150 40 5 -1 -17 -14 -50 -30 -33 -15 -58 -29 -55 -29
3 0 57 15 120 34 132 39 220 49 105 11z m-727 -163 c90 -61 151 -77 281 -70
132 6 200 29 397 133 80 42 148 74 150 71 3 -3 -10 -14 -29 -26 -42 -26 -112
-81 -103 -81 4 0 30 11 59 25 49 24 50 25 22 3 -41 -31 -114 -102 -95 -92 8 4
33 19 55 34 22 14 58 37 80 50 39 23 39 22 -20 -40 -38 -40 -49 -56 -30 -43
55 36 62 39 46 20 -37 -46 -184 -142 -248 -161 -18 -6 -21 -4 -16 16 4 22 4
22 -11 4 -9 -11 -16 -23 -16 -28 0 -4 -4 -8 -10 -8 -5 0 -10 8 -10 18 -1 15
-2 14 -12 -3 -25 -45 -53 -46 -44 -2 l6 32 -25 -37 c-30 -45 -48 -49 -40 -10
l6 27 -18 -27 c-20 -32 -33 -36 -33 -10 -1 16 -1 16 -11 0 -12 -21 -39 -24
-40 -5 0 10 -2 10 -6 0 -7 -19 -43 -16 -43 4 0 15 -1 15 -13 -2 -18 -23 -37
-12 -30 18 6 22 6 22 -14 -2 -25 -30 -47 -20 -38 18 l7 26 -26 -24 -26 -24 0
22 c0 20 -2 21 -15 11 -22 -18 -51 6 -33 27 10 12 7 13 -17 7 -25 -6 -27 -5
-23 13 4 16 1 19 -11 16 -25 -6 -47 23 -31 41 10 13 7 15 -17 13 -23 -2 -28 2
-26 19 2 15 -4 24 -18 27 -13 4 -18 10 -13 18 4 7 0 17 -10 25 -13 9 -14 14
-5 19 8 6 6 12 -9 24 -11 9 -23 32 -27 51 -7 33 -5 31 41 -30 29 -37 75 -82
112 -107z m2247 33 c28 -13 95 -39 150 -56 79 -26 108 -40 137 -70 55 -54 52
-60 -34 -76 -32 -5 -38 -4 -38 12 0 15 -3 14 -26 -7 -21 -20 -24 -20 -18 -5 6
16 4 18 -9 13 -9 -4 -24 -10 -33 -14 -14 -5 -14 -2 2 23 l19 29 -37 -22 c-41
-24 -47 -20 -22 15 18 26 12 28 -22 6 -31 -21 -43 -11 -19 16 22 24 9 27 -16
4 -28 -26 -44 -6 -18 22 26 27 15 32 -19 8 -30 -21 -40 -10 -16 18 20 23 20
23 -31 2 -17 -7 -21 11 -5 21 6 3 10 11 10 17 0 7 -5 6 -15 -2 -15 -13 -39 -5
-30 11 4 5 -1 9 -9 9 -13 0 -106 135 -106 154 0 3 35 -18 78 -48 43 -30 100
-66 127 -80z m23 64 c3 0 -3 7 -14 15 -31 24 -4 18 137 -31 215 -73 273 -113
267 -183 -4 -44 -29 -53 -46 -17 -19 43 -90 85 -204 121 -110 34 -240 96 -219
103 6 2 8 8 5 13 -3 6 11 3 31 -5 21 -9 40 -16 43 -16z m2322 -18 c0 -4 -21
-17 -47 -30 -27 -12 -77 -47 -113 -77 -36 -30 -78 -65 -95 -79 -24 -20 -52
-28 -143 -40 -185 -26 -337 -17 -350 22 -3 9 3 10 23 2 14 -5 36 -10 48 -10
19 1 18 3 -8 15 -29 14 -27 14 40 10 65 -4 66 -2 7 11 -40 8 -13 23 36 20 26
-2 32 -1 14 1 -49 6 -34 29 16 25 23 -2 49 1 59 7 16 9 16 10 -4 11 -16 0 -21
4 -17 15 4 10 21 15 53 16 52 0 107 17 62 18 -17 1 -22 4 -15 11 28 28 434 77
434 52z m-3077 -65 c61 -35 191 -106 287 -157 96 -51 267 -143 380 -205 113
-61 250 -136 305 -165 129 -69 263 -150 345 -208 81 -58 216 -177 230 -202 9
-17 7 -18 -22 -9 -18 5 -71 9 -118 9 l-86 0 -87 65 c-145 107 -437 288 -737
457 -272 154 -624 338 -647 338 -17 0 -16 17 2 71 24 68 24 69 30 69 3 0 56
-29 118 -63z m3296 16 l36 -16 -35 -7 c-19 -4 -27 -8 -17 -9 9 0 17 -5 17 -11
0 -5 -30 -11 -67 -13 -49 -2 -62 -5 -46 -11 33 -12 20 -23 -37 -31 -61 -8 -75
-25 -23 -26 21 0 32 -3 24 -6 -11 -5 -11 -7 0 -14 10 -6 5 -9 -16 -10 -16 -1
-34 -2 -40 -4 -5 -1 -19 -3 -30 -4 -17 -2 -15 -4 8 -13 37 -13 34 -24 -10 -33
-35 -7 -36 -8 -13 -14 l24 -7 -24 -17 c-13 -9 -42 -17 -64 -17 -43 0 -40 -15
4 -23 24 -4 24 -4 -2 -6 -16 0 -28 -5 -28 -11 0 -5 -12 -10 -26 -10 -21 0 -24
-3 -19 -21 7 -21 5 -22 -34 -15 -45 7 -57 -8 -18 -24 21 -8 20 -9 -8 -11 -16
-1 -43 -1 -59 0 -28 3 -29 1 -15 -15 12 -16 12 -17 -3 -11 -13 4 -18 1 -18 -9
0 -11 -5 -14 -17 -9 -10 4 -24 10 -32 13 -11 4 -13 1 -8 -12 5 -13 2 -17 -11
-15 -48 4 -93 -2 -86 -12 5 -9 -1 -10 -21 -5 -17 4 -31 3 -35 -3 -3 -6 -35
-14 -71 -17 -74 -8 -72 3 6 32 111 41 191 98 385 279 124 115 178 154 244 176
56 19 132 16 185 -8z m-3990 -155 c-12 -24 -33 -60 -46 -80 -33 -53 -21 -47
27 13 22 28 40 49 40 46 0 -3 -14 -36 -30 -74 -38 -86 -9 -52 50 57 43 82 48
78 25 -19 -9 -35 -14 -66 -11 -68 2 -2 14 20 25 49 l22 53 -6 -45 c-13 -100
-93 -207 -207 -276 -60 -36 -84 -39 -56 -7 38 45 27 43 -27 -4 -62 -54 -87
-63 -44 -15 14 15 31 36 39 47 14 19 14 19 -10 0 -14 -12 -34 -27 -44 -35 -18
-14 -19 -14 -6 10 l13 25 -22 -19 c-26 -24 -26 -16 0 37 20 42 20 42 0 17 -32
-38 -25 -16 21 73 30 59 63 103 115 155 77 76 114 96 68 36 -24 -31 -25 -35
-7 -25 12 6 36 29 54 51 18 22 34 40 36 40 1 0 -7 -19 -19 -42z m895 -181
l129 -70 -79 -41 c-98 -51 -152 -88 -231 -160 l-61 -56 -74 73 c-41 40 -81 89
-90 108 -22 47 -29 168 -13 245 24 113 16 112 162 37 71 -36 186 -97 257 -136z
m2071 121 c82 -29 278 -37 384 -14 41 9 76 14 78 12 4 -4 -141 -115 -188 -144
-82 -50 -170 -75 -259 -75 -73 0 -103 6 -212 42 -133 43 -177 70 -97 57 24 -3
72 -16 107 -27 35 -12 66 -18 69 -15 4 3 1 6 -6 6 -18 0 -145 60 -139 66 3 2
45 -9 93 -26 49 -16 95 -30 104 -29 9 0 -20 13 -64 27 -44 15 -89 33 -100 40
-17 11 -15 12 20 6 38 -6 39 -5 20 10 -19 16 -18 16 20 11 32 -4 35 -3 18 4
-37 17 -26 24 25 17 34 -4 41 -3 25 4 -13 5 -23 12 -23 16 0 6 53 -1 88 -12
12 -4 10 0 -5 14 -20 18 -29 32 -20 32 1 0 30 -10 62 -22z m-1742 -304 c189
-110 187 -108 187 -114 0 -4 -48 -28 -107 -55 -112 -52 -218 -116 -291 -178
l-42 -36 -88 50 c-48 28 -109 73 -137 100 l-50 50 45 40 c87 78 166 132 254
175 49 24 91 44 93 44 2 0 63 -34 136 -76z m927 3 c0 -131 54 -243 175 -363
79 -79 81 -82 77 -122 -2 -23 -7 -42 -11 -42 -3 1 -24 26 -45 56 -85 117 -270
274 -453 383 -72 43 -83 60 -40 62 12 0 78 18 147 39 69 20 131 38 138 39 8 1
12 -16 12 -52z m259 -11 c12 -11 43 -47 67 -79 36 -47 49 -76 69 -155 14 -53
25 -105 25 -114 0 -31 18 -19 23 15 7 45 -10 143 -34 197 -11 25 -38 67 -61
93 -46 55 -44 75 4 31 33 -30 22 -9 -18 36 l-23 25 27 2 c19 1 43 -11 77 -40
49 -41 46 -23 -4 20 -21 18 -23 23 -9 23 10 0 34 -14 55 -32 32 -27 34 -28 14
-5 -34 38 -18 47 20 11 70 -66 97 -167 71 -270 -6 -22 -13 -52 -17 -69 -7 -27
-8 -28 -15 -10 -6 17 -9 14 -15 -18 -8 -43 -25 -59 -26 -25 0 13 -6 1 -13 -25
-7 -27 -20 -55 -28 -63 -13 -13 -20 -9 -61 36 -28 30 -47 45 -47 36 0 -27 -17
-18 -71 37 -28 28 -46 41 -40 29 30 -56 -15 -22 -79 61 -24 32 -70 112 -70
123 1 5 10 -2 20 -15 26 -30 26 -11 0 31 -11 18 -20 44 -20 58 1 22 3 20 21
-15 30 -57 63 -105 72 -105 5 0 -5 24 -22 53 -16 28 -34 64 -40 80 -17 45 13
33 46 -18 36 -58 53 -59 19 -1 -14 25 -26 47 -26 50 0 15 24 3 47 -24 13 -16
29 -30 35 -30 6 0 -7 21 -28 46 -22 28 -30 42 -18 36 22 -12 63 -55 87 -92 10
-13 17 -20 17 -14 0 14 -28 53 -74 103 -37 41 -38 43 -11 26 17 -9 41 -27 54
-39z m594 -192 c34 -9 73 -22 86 -29 22 -11 13 -12 -64 -8 -98 6 -165 -12
-240 -62 -20 -14 -37 -25 -39 -25 -2 0 5 28 14 63 15 55 20 63 46 68 54 12
136 9 197 -7z m124 -84 c40 -7 75 -15 78 -20 2 -4 -20 -10 -50 -13 -74 -8
-142 -40 -197 -94 -55 -54 -76 -100 -118 -252 -35 -128 -56 -175 -96 -211
l-28 -25 18 30 19 30 -24 -20 c-62 -53 -63 -53 -35 5 l27 55 -41 -45 c-42 -47
-46 -48 -30 -6 13 35 6 33 -20 -6 l-21 -33 3 42 c2 23 0 39 -4 37 -11 -7 -10
188 1 205 7 11 13 10 33 -3 32 -21 38 -13 38 44 0 84 10 106 74 173 67 70 99
90 178 112 54 15 71 14 195 -5z m-3113 -144 c90 -150 141 -375 109 -481 -8
-27 -17 -56 -19 -63 -6 -22 -100 36 -168 103 -59 59 -115 137 -85 120 28 -16
95 -69 132 -104 35 -33 38 -34 54 -18 16 15 14 19 -23 64 -78 95 -164 232
-164 262 0 20 108 -123 166 -218 49 -82 76 -107 86 -79 8 20 -44 211 -95 352
-26 71 -47 131 -47 134 0 12 19 -14 54 -72z m235 -152 c11 -29 9 -38 -25 -98
-20 -37 -39 -65 -41 -62 -3 3 -11 31 -17 63 -12 57 -5 250 10 274 3 6 18 -25
34 -68 15 -43 33 -92 39 -109z m61 66 c6 -11 1 -27 -12 -49 l-21 -33 -22 74
c-12 40 -25 82 -29 93 -8 21 69 -57 84 -85z m906 58 c-20 -23 -44 -59 -53 -80
-17 -37 -18 -38 -71 -38 -48 0 -53 2 -42 15 29 35 175 142 198 145 2 0 -13
-19 -32 -42z m1300 -60 c46 -34 54 -45 48 -62 -4 -12 -9 -93 -11 -181 -5 -167
-16 -217 -26 -118 -4 32 -16 85 -27 118 -50 145 -75 285 -50 285 6 0 36 -19
66 -42z m-251 5 c41 -15 57 -28 88 -75 20 -31 49 -82 62 -115 l25 -58 -30 35
c-37 42 -38 35 -4 -32 l26 -51 -42 36 c-49 41 -130 71 -240 88 -120 18 -258
73 -332 131 -47 37 -50 57 -4 29 43 -27 54 -27 30 0 l-19 22 30 -15 c17 -9 41
-19 55 -22 24 -7 24 -6 6 8 -24 20 -16 20 54 1 73 -20 83 -18 38 6 -21 11 -38
20 -38 22 0 1 28 1 62 0 48 -2 58 0 43 7 -37 19 137 3 190 -17z m-962 -38
c-37 -43 -64 -54 -91 -36 -16 10 20 39 78 64 53 23 54 21 13 -28z m-847 -4
c44 -42 151 -101 181 -101 9 0 32 5 50 12 50 18 61 0 30 -48 -14 -22 -36 -67
-49 -101 -12 -35 -26 -63 -30 -63 -3 0 -11 15 -17 33 -16 47 -66 104 -114 128
-53 27 -128 21 -194 -15 -25 -14 -48 -26 -50 -26 -9 0 45 89 94 154 26 37 50
66 52 66 2 0 23 -18 47 -39z m1347 -56 c7 -7 7 -5 2 4 -9 16 -9 16 73 -27 100
-52 151 -69 277 -92 140 -25 204 -55 252 -118 40 -53 44 -78 6 -36 -37 40 -79
74 -68 54 4 -8 15 -23 24 -34 15 -18 15 -18 -9 -11 -14 5 -41 12 -60 16 -32 7
-33 7 -16 -7 11 -8 25 -14 32 -14 7 0 16 -5 19 -10 4 -7 -7 -8 -33 -4 -25 4
-42 2 -46 -5 -4 -7 1 -11 13 -11 11 0 22 -4 25 -9 9 -14 -152 -44 -235 -44
-180 0 -312 125 -334 315 l-7 53 26 -52 c14 -29 27 -53 30 -53 2 0 -2 21 -10
48 l-14 47 20 -25 c20 -25 20 -25 0 23 -25 62 -25 67 2 31 12 -16 26 -33 31
-39z m-570 -44 c55 -19 154 -78 176 -105 9 -11 2 -15 -36 -21 -72 -10 -152
-46 -279 -125 -115 -70 -199 -110 -232 -110 -13 1 -11 4 8 16 19 11 21 14 5
10 -11 -2 -36 -7 -55 -11 l-35 -6 40 25 c38 25 39 26 10 20 -16 -4 -41 -11
-55 -16 -23 -8 -22 -6 8 22 38 35 35 37 -19 10 l-40 -21 15 29 c23 45 102 111
169 143 78 36 145 49 261 50 103 0 94 9 -32 29 -138 23 -269 -12 -361 -95 -53
-48 -62 -40 -17 14 61 72 115 110 202 140 79 27 192 28 267 2z m-728 -91 c17
-11 44 -42 58 -69 36 -65 34 -74 -5 -23 -17 23 -34 40 -36 38 -2 -2 6 -24 19
-48 l21 -43 -26 24 c-14 14 -26 20 -26 14 0 -6 -27 0 -62 14 -50 21 -74 24
-134 21 l-73 -3 21 22 c12 13 44 34 72 48 62 31 126 33 171 5z m-93 -124 c35
-13 168 -93 168 -102 0 -2 -19 -2 -42 1 l-43 6 30 -18 30 -17 -35 -7 c-27 -5
-29 -7 -10 -8 14 -1 32 -6 40 -12 25 -17 -158 -3 -214 17 -53 18 -136 90 -136
118 0 9 10 21 23 26 33 13 147 11 189 -4z"/>
<path d="M5123 6967 c-32 -35 -45 -66 -45 -111 -1 -57 25 -106 57 -106 32 0
32 10 0 40 -33 31 -33 76 0 140 27 53 20 73 -12 37z"/>
<path d="M5847 5073 c-11 -10 24 -43 45 -43 25 0 23 15 -7 34 -28 18 -29 19
-38 9z"/>
<path d="M6550 4816 c0 -24 56 -49 80 -36 38 20 26 34 -37 45 -35 5 -43 4 -43
-9z"/>
<path d="M6382 4738 c2 -15 21 -34 58 -56 141 -84 248 -95 368 -37 40 19 72
39 72 45 0 16 -52 12 -116 -11 -85 -30 -146 -21 -260 36 -103 51 -127 56 -122
23z"/>
<path d="M5992 4332 c-8 -23 28 -43 73 -40 35 3 40 6 40 27 0 22 -4 24 -53 26
-40 1 -55 -2 -60 -13z"/>
<path d="M6766 4312 c-12 -20 38 -36 112 -36 66 1 106 14 90 30 -12 11 -195
17 -202 6z"/>
<path d="M6338 6298 c-50 -18 -30 -28 40 -22 57 5 77 2 136 -20 38 -14 72 -24
75 -20 10 10 -47 53 -87 63 -46 13 -128 13 -164 -1z"/>
<path d="M5955 6293 c-40 -8 -76 -26 -85 -44 -15 -27 1 -30 50 -7 44 19 99 21
158 3 32 -10 28 11 -5 28 -32 16 -88 25 -118 20z"/>
<path d="M6085 6139 l7 -44 -89 5 c-77 4 -88 7 -85 23 5 27 -17 20 -28 -9 -13
-32 -2 -48 51 -75 49 -25 59 -24 104 7 l37 25 -6 -33 c-19 -102 -19 -111 -5
-106 18 6 52 154 44 194 -3 18 -13 38 -21 45 -14 12 -15 8 -9 -32z"/>
<path d="M6329 6151 c-24 -24 -29 -38 -29 -75 0 -41 2 -46 23 -46 12 0 42 -9
66 -20 24 -11 51 -20 61 -20 20 0 140 75 140 88 0 5 -16 26 -35 48 -26 29 -34
35 -35 21 0 -10 4 -27 10 -37 8 -16 5 -19 -20 -25 -42 -9 -180 5 -180 18 0 6
14 26 32 44 25 26 28 33 14 33 -10 0 -31 -13 -47 -29z"/>
<path d="M6033 5909 c-7 -7 -13 -19 -13 -26 0 -16 106 -70 117 -59 10 9 -35
44 -62 48 -10 2 -22 13 -25 26 -4 18 -7 21 -17 11z"/>
<path d="M6297 5883 c3 -21 7 -40 9 -42 8 -9 16 31 10 54 -10 39 -25 29 -19
-12z"/>
<path d="M6213 5858 c-36 -17 -27 -30 15 -22 44 8 46 9 37 23 -8 13 -23 13
-52 -1z"/>
<path d="M6023 5737 c-2 -4 3 -9 11 -12 9 -3 22 -7 30 -9 9 -3 12 -14 9 -30
-4 -20 1 -29 28 -45 48 -30 166 -25 177 7 3 9 -17 11 -78 9 -71 -2 -83 1 -96
17 -23 32 -17 39 31 32 44 -7 215 21 215 34 0 9 -321 6 -327 -3z"/>
<path d="M2708 6253 c-38 -10 -15 -21 55 -28 109 -9 125 -14 163 -47 l34 -30
0 26 c0 31 -33 63 -79 76 -36 10 -140 12 -173 3z"/>
<path d="M2900 6083 c0 -62 -30 -66 -149 -18 -33 14 -65 25 -71 25 -21 0 -9
-20 23 -36 17 -9 50 -34 73 -55 25 -25 53 -42 75 -45 30 -5 38 -2 53 21 9 14
15 32 13 38 -2 7 -1 22 4 33 9 25 1 64 -12 64 -5 0 -9 -12 -9 -27z"/>
<path d="M3040 5906 c-13 -36 -13 -93 2 -102 8 -5 9 2 5 24 -3 16 -2 45 3 63
12 40 4 52 -10 15z"/>
<path d="M2836 5768 c-19 -26 -7 -53 28 -62 13 -3 31 -9 40 -12 11 -4 16 -1
16 10 0 9 -12 18 -27 22 -42 10 -44 13 -27 40 15 21 15 24 1 24 -9 0 -23 -10
-31 -22z"/>
<path d="M3040 5721 c0 -11 -12 -28 -27 -39 -32 -23 -30 -27 14 -36 26 -6 34
-4 43 14 13 25 4 42 -10 20 -6 -10 -7 -2 -3 23 4 24 2 37 -6 37 -6 0 -11 -9
-11 -19z"/>
<path d="M2707 5634 c-4 -4 -7 -11 -7 -15 0 -13 155 -81 210 -91 30 -5 57 -12
59 -14 10 -9 -34 -44 -56 -44 -30 0 -72 21 -97 49 -24 26 -39 18 -24 -14 14
-32 87 -67 130 -63 26 2 36 10 48 35 11 23 20 31 33 27 25 -8 21 13 -5 27 -13
7 -51 18 -85 26 -35 7 -91 27 -125 45 -35 18 -66 34 -69 36 -3 1 -8 -1 -12 -4z"/>
<path d="M4202 5699 c2 -6 8 -10 13 -10 5 0 11 4 13 10 2 6 -4 11 -13 11 -9 0
-15 -5 -13 -11z"/>
<path d="M4510 5685 c0 -8 5 -15 10 -15 6 0 10 7 10 15 0 8 -4 15 -10 15 -5 0
-10 -7 -10 -15z"/>
<path d="M2307 4824 c-13 -13 7 -34 33 -34 39 0 60 9 60 26 0 10 -13 14 -43
14 -24 0 -46 -3 -50 -6z"/>
<path d="M2070 4667 c0 -61 281 -122 385 -84 73 26 50 39 -75 42 -91 2 -131 8
-193 29 -87 29 -117 32 -117 13z"/>
<path d="M3038 4058 c-2 -13 -11 -24 -23 -27 -26 -4 -37 -22 -23 -38 24 -30
88 -1 88 39 0 46 -36 68 -42 26z"/>
<path d="M4220 5456 c0 -9 7 -16 16 -16 9 0 14 5 12 12 -6 18 -28 21 -28 4z"/>
<path d="M4260 5420 c0 -5 5 -10 10 -10 6 0 10 5 10 10 0 6 -4 10 -10 10 -5 0
-10 -4 -10 -10z"/>
<path d="M4545 5470 c3 -5 8 -10 11 -10 2 0 4 5 4 10 0 6 -5 10 -11 10 -5 0
-7 -4 -4 -10z"/>
<path d="M4390 4725 c0 -8 7 -15 15 -15 8 0 15 7 15 15 0 8 -7 15 -15 15 -8 0
-15 -7 -15 -15z"/>
<path d="M846 4514 c-11 -30 33 -60 49 -34 11 17 -5 50 -25 50 -10 0 -21 -7
-24 -16z"/>
<path d="M660 4305 c-17 -20 -5 -45 20 -45 11 0 23 7 26 15 6 15 -11 45 -26
45 -4 0 -13 -7 -20 -15z"/>
<path d="M662 4048 c-26 -26 -2 -64 30 -47 10 5 18 16 18 24 0 21 -34 37 -48
23z"/>
<path d="M773 3774 c-3 -8 2 -23 11 -32 15 -15 17 -15 32 0 21 21 11 48 -16
48 -11 0 -23 -7 -27 -16z"/>
<path d="M976 3613 c-4 -9 0 -23 9 -32 13 -14 17 -14 30 0 19 19 10 49 -15 49
-10 0 -21 -8 -24 -17z"/>
<path d="M4200 2316 c0 -2 7 -7 16 -10 8 -3 12 -2 9 4 -6 10 -25 14 -25 6z"/>
<path d="M5668 1963 c7 -3 16 -2 19 1 4 3 -2 6 -13 5 -11 0 -14 -3 -6 -6z"/>
<path d="M5620 1947 c3 -3 23 -10 44 -16 22 -5 35 -6 30 -2 -9 9 -83 27 -74
18z"/>
</g>
</svg>
