<?xml version="1.0" encoding="utf-8"?>
<!-- Generator: Adobe Illustrator 21.0.0, SVG Export Plug-In . SVG Version: 6.00 Build 0)  -->
<svg version="1.1" baseProfile="tiny" id="图层_1"
	 xmlns="http://www.w3.org/2000/svg" xmlns:xlink="http://www.w3.org/1999/xlink" x="0px" y="0px" viewBox="0 0 361.1 564.4"
	 xml:space="preserve">
<title>girls3_16</title>
<g>
	<path fill="none" d="M108,73.4c0.1-0.3,0.2-0.6,0.3-0.9C108.2,72.8,108.1,73.1,108,73.4z"/>
	<path fill="none" d="M91.1,274.8C91.1,274.9,91.1,274.9,91.1,274.8c0,0.1,0,0.1,0.1,0.1C91.2,274.9,91.1,274.9,91.1,274.8z"/>
	<path fill="none" d="M21.7,126c0.1-0.3,0.2-0.6,0.3-1C21.7,125.4,21.6,125.7,21.7,126z"/>
	<path fill="none" d="M108.2,206.2C108.2,206.1,108.3,206.1,108.2,206.2L108.2,206.2C108.2,206.1,108.2,206.1,108.2,206.2z"/>
	<path fill="none" d="M38.3,117c0.1,0.1,0.1,0.1,0.2,0.2C38.5,117.2,38.4,117.1,38.3,117z"/>
	<path fill="none" d="M97.5,68c0.3-0.1,0.5-0.2,0.8-0.4c-0.1-0.1-0.2-0.3-0.3-0.4C97.8,67.5,97.6,67.8,97.5,68z"/>
	<path fill="none" d="M311.9,104.1c0,0-0.1-0.1-0.1-0.1C311.8,104.1,311.9,104.1,311.9,104.1c0,0.2,0.1,0.2,0.1,0.3
		c0,0,0.1-0.1,0.1-0.1C312.1,104.2,312,104.2,311.9,104.1z"/>
	<path fill="none" d="M332.3,205c-0.2,0.2-0.3,0.5-0.5,0.7c0.3-0.2,0.5-0.3,0.8-0.5c-0.1,0-0.1-0.1-0.2-0.1
		C332.4,205.1,332.4,205,332.3,205z"/>
	<path fill="none" d="M290.7,118.7c0.2-0.4,0.4-0.7,0.7-1C290.7,117.9,290.6,118.3,290.7,118.7z"/>
	<path fill="none" d="M245.8,211.3c0-0.1,0-0.1,0-0.2c-0.1,0-0.3,0.1-0.4,0.2C245.6,211.3,245.7,211.3,245.8,211.3z"/>
	<path fill="none" d="M278.9,298.2C279,298.2,279,298.2,278.9,298.2C279,298.2,279,298.2,278.9,298.2
		C279,298.2,278.9,298.2,278.9,298.2z"/>
	<path fill="none" d="M338.8,176.1c-0.2,0.1-0.5,0.2-0.7,0.4c0.2,0,0.4,0,0.6,0C338.8,176.3,338.8,176.2,338.8,176.1
		C338.8,176.1,338.8,176.1,338.8,176.1z"/>
	<path fill="none" d="M140.5,349c0-0.1,0-0.2,0-0.2C140.4,348.9,140.4,348.9,140.5,349C140.4,349,140.4,349,140.5,349z"/>
	<path fill="none" d="M231.2,205.3C231.2,205.3,231.2,205.3,231.2,205.3C231.2,205.3,231.2,205.3,231.2,205.3
		C231.2,205.3,231.2,205.3,231.2,205.3C231.2,205.3,231.2,205.3,231.2,205.3z"/>
	<path fill="none" d="M81.2,233.5c-0.2,0-0.5-0.1-0.7-0.1c0,0.1,0,0.3,0,0.4C80.7,233.7,80.9,233.6,81.2,233.5z"/>
	<path fill="none" d="M244.4,204.7c-0.7,0-1.3,0.1-2,0.2C243.1,205.2,243.8,205.2,244.4,204.7z"/>
	<path fill="none" d="M243.2,221.1c0,0-0.1,0-0.1,0c-0.1,0-0.2,0-0.3-0.1c0,0.2,0,0.3,0,0.5c0.1-0.1,0.3-0.2,0.4-0.3
		C243.1,221.2,243.1,221.1,243.2,221.1z"/>
	<path fill="none" d="M77.9,101.3C77.9,101.3,77.9,101.3,77.9,101.3L77.9,101.3C77.9,101.3,77.9,101.3,77.9,101.3z"/>
	<path fill="none" d="M43.4,195.6c-0.6,0.5-1.1,0.9-1.6,1.1C42.5,196.7,43.1,196.4,43.4,195.6z"/>
	<path fill="none" d="M33.5,159.4c-0.1-0.1-0.2-0.2-0.2-0.3c0,0-0.1,0.1-0.1,0.1c0,0,0,0,0,0C33.3,159.3,33.4,159.3,33.5,159.4z"/>
	<path fill="none" d="M213.7,96.6c0.1,0.2,0.1,0.4,0.2,0.6c0.1-0.3,0.3-0.6,0.3-1C214.1,96.3,213.9,96.5,213.7,96.6z"/>
	<path fill="none" d="M161.8,183.5c-0.1-0.1-0.2-0.2-0.3-0.3c-0.1,0.1-0.2,0.2-0.3,0.3C161.4,183.6,161.6,183.6,161.8,183.5z"/>
	<path fill="none" d="M75.9,212.1c0.1,0,0.1,0,0.2,0c0,0,0,0,0.1,0c0,0,0-0.1,0-0.1l0,0C76,212,76,212.1,75.9,212.1z"/>
	<path fill="none" d="M41.2,208.2C41.2,208.2,41.1,208.1,41.2,208.2c-0.1-0.1-0.1-0.1-0.1,0c0,0.1,0.1,0.1,0.1,0.2
		C41.2,208.3,41.2,208.2,41.2,208.2z"/>
	<path fill="none" d="M66.5,198.9c0,0.1,0,0.2-0.1,0.4c0.2,0,0.3-0.1,0.5-0.1C66.7,199,66.6,198.9,66.5,198.9z"/>
	<path fill="none" d="M221.7,82c0,0.2,0.1,0.3,0.1,0.4c0.1-0.1,0.2-0.2,0.3-0.3C221.9,82.1,221.8,82,221.7,82z"/>
	<path fill="none" d="M285.3,210c0,0-0.1-0.1-0.1-0.1c-0.1-0.1-0.1-0.2-0.2-0.2c0,0.1,0,0.2,0.1,0.2c0,0,0,0,0,0L285.3,210z"/>
	<path fill="none" d="M211,61.1C211,61.1,211.1,61.1,211,61.1C211,61.1,211,61.1,211,61.1C211,61.1,211,61.1,211,61.1z"/>
	<path fill="none" d="M132.1,101.4c-0.1-0.1-0.3-0.2-0.5-0.3c0,0.3,0,0.5,0,0.8L132.1,101.4z"/>
	<path fill="none" d="M175.1,68.1C175.1,68.1,175.1,68.1,175.1,68.1C175.1,68.1,175.1,68.1,175.1,68.1
		C175.1,68.1,175.1,68.1,175.1,68.1z"/>
	<path fill="none" d="M125.2,149.5c0-0.1,0-0.1,0-0.2l-0.2,0.2C125,149.5,125.1,149.5,125.2,149.5z"/>
	<path fill="none" d="M244.1,145.7C244.1,145.7,244.1,145.7,244.1,145.7c0.1,0.1,0.1,0.2,0.2,0.3c0.1-0.2,0.2-0.4,0.3-0.7
		C244.5,145.4,244.3,145.6,244.1,145.7z"/>
	<path fill="none" d="M279.1,201.9c0,0,0,0.1-0.1,0.1c0,0,0.1,0.1,0.1,0.1c0,0,0-0.1,0-0.1C279.1,202,279.1,201.9,279.1,201.9z"/>
	<path fill="none" d="M172,110.8c0,0.1-0.1,0.1-0.1,0.2c0,0-0.1,0.1-0.1,0.1c0.1,0.1,0.2,0.3,0.2,0.4c0-0.1,0-0.3,0-0.4
		C172.1,111,172.1,110.9,172,110.8z"/>
	<path fill="none" d="M191.8,89.9c0.1,0,0.1,0.1,0.2,0.1c0.1,0.1,0.3,0.2,0.4,0.3c0.1-0.4,0.2-0.8,0.2-1.2
		C192.3,89.4,192,89.7,191.8,89.9z"/>
	<path fill="none" d="M139.3,377.7c0.1,0.1,0.1,0.2,0.2,0.3c-0.1-0.2-0.1-0.3-0.2-0.5C139.3,377.6,139.3,377.7,139.3,377.7z"/>
	<path fill="none" d="M218.2,186c0.3,0.1,0.7,0.3,1,0.5C219.1,186.1,218.7,186,218.2,186z"/>
	<path fill="none" d="M271.1,286.2c0,0.1,0,0.1-0.1,0.2c0.2-0.5,1.5-0.6,1-0.9C271.8,285.8,271.5,286,271.1,286.2z"/>
	<path fill="none" d="M274.4,289.6c-0.1-0.4-0.2-0.9-0.3-1.4c0,0-0.1,0.1-0.1,0.1c0,0.5,0,1.2,0.1,1.2
		C274.3,289.5,274.3,289.6,274.4,289.6z"/>
	<path fill="none" d="M166.1,191.5c0-0.1,0-0.2,0.1-0.2l-0.3,0C166,191.4,166,191.4,166.1,191.5z"/>
	<path fill="#FDFDFD" d="M68.9,450.6c14.9-5.6,29.7-11.6,42.5-21.3c12.8-9.7,21.8-23,24.8-39.5c0.8-4.2,1.8-8.4,2.8-12.5
		c0.1,0.2,0.2,0.3,0.3,0.4c0-0.1,0-0.1,0-0.2c-0.1-0.2-0.2-0.4-0.3-0.7c-0.4-8.9,1.8-17.7,1-26.7c0,0,0-0.1,0-0.1l-0.1,0.2
		c-1.2-2-0.6-4.2-0.8-6.3c-0.2-2.1-2-2.9-3.5-3.8c-1.5-0.9-2,1.1-2.9,1.8c-3.3,2.8-6.8,5.2-10.6,7.2c-0.7,0.4-1.4,0.8-2.2,1.1
		c-1.5,0.5-3.3,1.8-4.5-0.1c-1.2-1.9,0.3-3.5,1.8-4.7c1.5-1.2,2.7-3,4.7-3.5l1-1c0,0,0.1-0.1,0.1-0.1c0.2-1.4,1-2.8-0.3-4.1
		c-1.4-1.3-2.7,0.3-3.9,0.8c-2.4,1.2-5.1,1.7-7.7,1.4c-0.9-0.1-1.7-0.4-1.7-1.4s0.7-1.4,1.6-1.5c0.7,0,1.3-0.1,2-0.2
		c1.7-0.5,2.8-2.1,2.7-3.8c-0.2-2.3-2.3-1.8-3.9-2c-3.2-0.4-6.6,0.8-9.7-0.5c-0.4,0.1-0.9-0.1-1.1-0.5c-2.6-1.4-6.4-1-7.3-5
		c-0.3-1.2-1.7-0.3-2.6,0l-5.1,1.7c-1.8-1.6,1.4-2.5,0.3-4.1c-4.4,1.3-9,1.6-13.5,0.7c-10.5-1.8-15-9.4-19.1-17.7l-0.8-1.8
		c-1.7-3.2-5.9-7.1,2.4-7.2c1.5,0,3.5-1.9,0.6-3.7s-3.9-3.6-6.8-3.9c-0.6-0.1-1.6-0.5-1.6-0.8c0.1-6.9-6.1-5-9.6-7c0,0,0-0.1,0-0.1
		c0,0,0,0,0,0c-1.3,0.3-4.5-1-5.9-3.1c0,0,0,0,0,0c0,0,0,0,0,0c-8.8-5.1-13.1-13.7-16.9-22.6c-0.6-1.4-1.1-2.8-1.4-4.3
		c-0.6-3-1.7-4.5-5.2-4.3c-3.5,0.2-3.4-0.7-1.5-2.9c1.9-2.2-0.5-2.1-1.2-2.8c-0.7-0.7-2.1-3.3,0.4-4.2c5.7-2,6.2-6,3.7-10.3
		c-2.5-4.3-1.5-9-1.9-13.5c-0.2-2.3,1-5.1-1.7-6.9C6.1,205,6,204.5,6,204.1c4.3-3,2.3-8.2,4.1-12c0,0,0,0,0,0v-1.9
		c0-0.1,0.1-0.1,0.1-0.1c0,0,0,0,0-0.1c-3.4-4.4-1.3-6.9-3-10c0-0.1-0.1-0.1-0.1-0.2l0,0.3c0-0.2-0.1-0.4-0.1-0.5
		c-0.4-0.9-0.5-1.9-0.5-2.9c-1.3-8.1-0.7-16,3.6-23.5c1.8-4.3,4-8.4,6.8-12.1c0.1-0.2,0.3-0.4,0.4-0.6c-0.2,0.2-0.4,0.5-0.5,0.7
		c0.5-5.5-0.6-11.3,3.5-16c1.2-1.3-0.5-3.1,0.1-4.8c4.3-13.2,10.3-25.6,21-34.6c4.3-3.7,9.5-7.2,15.4-8.6c0,0,0,0,0,0.1
		c0-0.1,0-0.3,0.1-0.5c6.3-3.4,12.2-7.7,19.5-9.3c3.2-0.4,5.3-3.6,8.6-4.4c0.1,0,0.1,0.1,0.1,0.1l3-2c5.7-6.7,12.2-12.6,19.5-17.5
		c6.2-4.2,11.2-9.9,17.9-13.4l9.6-5.1c0,0,0,0,0,0c20.8-11.3,43.1-13.2,66.1-9.7c3.6,0.5,7.7,0,10.9,2.7c0,0,0,0.1,0,0.1
		c0,0,0,0,0,0c3,0.1,5.5,1.4,8.1,2.8v0l4.9,1.2c0,0,0.1,0,0.1,0c-0.1-0.1-0.1-0.2-0.2-0.2c9.3,3,19.3,2.4,28.4,6.2
		c3,1.2,5.5,3.3,7.2,6c5.6,9.4,13.8,16.3,21.7,23.6c1.4,1.2,2.8,2.5,3.2,4.4s1.9,4.5-1.2,5.9l-0.3,2c0,0-0.1,0.1-0.1,0.1
		c0,0,0,0,0,0v5.9c0,0,0.1,0,0.1,0c-0.9,2.7-0.6,4.3,2.6,5.6c3.2,1.3,7,4.2,10.5,6.4c0.1,0.1,0.3,0.1,0.4,0.2
		c-0.1-0.1-0.3-0.2-0.4-0.3c4.8,0.9,8.5,3.8,11.5,7.2c5.7,6.3,11.5,12.4,16.1,19.6c0.1,0.1,0.2,0.2,0.3,0.3l4.2,6.9
		c0,0.1,0,0.1,0,0.2c2.7,4,7.1,5.9,10.8,8.8c2,1.4,3.7,3.2,5.2,5.1c0-0.1,0-0.1,0-0.2c12.1,13,12.3,28.7,9.9,44.9
		c0,0.1,0,0.2,0.1,0.3c-0.1,2.9-1.1,5.7-2.9,8c0,0,0,0,0,0c-0.5,8.7-2.2,17-6.6,24.7c-3,5.4-1.4,11.7-3.5,17.3
		c-0.5,1.4-0.8,2.6-1.2,3.8c0,0.1,0.1,0.2,0.1,0.3c-2.4,6,0.4,11.2,2.6,16.5c0.6,1.5,1.8,2.8,1.3,4.6c0,0,0,0-0.1,0
		c0.7,3.3,0.4,6.7-0.8,9.8c0,0-0.1,0-0.1,0c0.2,3.8-3.2,5.4-5,8c0,0,0,0,0,0c0,0,0.1,0.1,0.1,0.1c-4.4,6.6-11.1,9.4-18.5,10.9
		c-2.5,0.5-4.5,1.2-4.5,4.1c0,2.8,0.3,5.2,4.1,2.5c1.5-1.1,2.8-1.2,2.4,1.6c-2.2,13-13.1,22.8-26.3,23.6c-2.1-0.1-4.2-0.3-6.3-0.6
		c0.3,2.9,3.5,1.9,5,4c-3.1,1.3-5.5,0.2-7.8-1.3c0,0,0,0,0,0h-0.9c-0.1,0-0.1-0.1-0.2-0.1c-1.1,0.2-2.1,0.4-3.2,0.8
		c-1.4,0.5-3,1.3-2.6,3.1c0.3,1.9,2,3.2,3.9,3.1c1.1-0.1,2.3-0.3,3.4-0.6c0.8-0.1,1.8-0.4,2,0.7c0.2,1.1-0.5,1.1-0.9,1.6
		c-0.4,0.3-0.8,0.6-1.3,0.7c-3.3,1.7-7.4,1.8-10.2,4.4c-0.1,0.4-0.4,0.9-1.1,1.3c0,0,0,0,0,0v0l0,0h-1c-0.2-0.2-0.3-0.3-0.5-0.4
		c0.2,0.1,0.4,0.3,0.5,0.5c-3.4,0.3-5.2,1.3-2.8,5c1.3,2,3.5,5.3,1.6,6.4c-1.9,1.1-6.4,2.1-8.9-1.3c0,0,0,0,0,0h0
		c-2.8-1.4-5.2-3.4-7.1-5.9c0-0.1-0.1-0.3-0.2-0.4c-1.1-0.4-2.3-0.7-3.5-0.8c-7.9,0.3-7.9,0.3-13.9-2.3c0,0.5,0.1,0.9,0.2,1.4
		c0.5,1,3,1.1,1.6,2.9c-1.4,1.8-2.3-0.2-3.4-0.7c-0.6-0.3-1.2-0.1-1.6,0.4c0,0.1,0,0.2,0,0.3c1.4,13.1,3.6,26.1,6.6,39
		c0.2,1,0.3,1.9,0.5,2.9c0,0.1,0,0.1,0,0.2c3.7,9,7,18.1,13.1,25.8c15.2,15.7,35,20.7,55.7,23.1c14,1.7,28.1,2,42.3,2.1
		c1.9,0.1,3.9,0.4,5.8,0.8c-0.1-142.7,0-285.4,0.1-428.1c0.1-4.2-1-4.8-4.9-4.8C239.1,0.2,122,0.2,4.9,0C1,0,0,0.6,0,4.8
		c0.1,154,0.1,308.1,0.1,462.2c0.1,0.1,0.2,0.2,0.3,0.2c16.9-3.1,33.8-5.9,50.7-9.1C57.5,457,62.9,452.9,68.9,450.6z"/>
	<path fill="#D4A17E" d="M3.2,563.9c0.8,0,1.5-0.1,2.3-0.1H4.1C3.8,563.8,3.5,563.9,3.2,563.9z"/>
	<path fill="#D4A17E" d="M0.1,563.3c0.1,0.1,0.2,0.1,0.3,0.2c-0.1-0.2-0.2-0.3-0.3-0.6C0.1,563.1,0.1,563.2,0.1,563.3z"/>
	<path fill="#D4A17E" d="M355.2,432.2c-14.2-0.1-28.3-0.4-42.3-2.1c-20.7-2.4-40.5-7.4-55.7-23.1c-3.3,0.3-5-1.4-6.3-4.4
		s-2.6-8-5.6-11.4c-2.4-2.9-2.9-6.9-1.3-10.3c0,0.1,0.1,0.2,0.1,0.3c0-0.1,0-0.1,0-0.2c-0.2-1-0.3-1.9-0.5-2.9
		c-2.9-12.9-5.2-25.9-6.6-39c0-0.1,0-0.2,0-0.3c0,0-0.1,0.1-0.1,0.1c-1.5-3.6-2-7.3,0.3-10.7s3.6-3.5,6.1,0.5
		c0.7-3.1,0.7-6.2,2.9-8.4c2.2-2.2,1.7-1.6,2.9-0.2c3.4-4.3,6.8-8.5,10.1-12.8c1.7-2.5,3-5.3,3.8-8.2c0,0-0.1-0.1-0.1-0.1
		c1.3-2.1,4.8-2.9,3.4-6.8c-0.5-1.3,1.6-4.1,3.7-3.3c2.1,0.8,2.6-1.3,4-0.8c0,0.1,0,0.1,0,0.2c0,0,0.1-0.1,0.1-0.1c0,0,0-0.1,0-0.1
		c-0.3-1.2,1.6-2.6,0.1-3.6c-1.1-0.7-1.5,0.3-2.2,1c0.5,0.3-0.8,0.4-1,0.9c0-0.1,0-0.2,0.1-0.2c0,0-0.1,0-0.1,0
		c0.8-3.5-1.1-5.8-3-8.1c-1.9,3.6-3.3,7.5-4,11.5c-0.8,4.1-3.8,7.1-5.3,10.9c-1.5,3.8-4.1,6.3-5.8,9.8c-0.6,1.4-2,2.4-3.6,2.4
		c-1.9-0.1-1.5-2.3-2.1-3.5c-0.4-0.9-0.5-2-0.1-2.9c3.1-5.4,1.9-11.2,1.8-16.9c-0.1-2-1.1-3.1-2.3-4.1s-2.3-4-1.8-7
		c1.4-9.1,8-14.2,13.8-20c3.7-3.6,7.1-7.5,10.1-11.6c4-5.7,3-12.2,0.8-18.1c-1-2.6-3.8-4.2-7.1-2.5c-5.4,2.8-11.5,4-17.6,3.3
		c-2.8-0.6-5.4-1.7-7.7-3.3c-3,3.8-6.2-1.1-9.4,0.2c-1.5,0.6-3.6-0.3-5.4-0.3c-5,0.2-9.6,0-9.5-6.9c-0.1-0.5-0.3-0.9-0.6-1.3
		c-1.9-2.2-5.6-3.6-3.3-7.7c2.3-4.1,1.9-6,4.5-8.1c0.9-0.6,1.5-1.7,1.5-2.8c0.1,0,0.1,0,0.2,0c-0.1-0.1-0.1-0.1-0.2-0.2l-0.7-0.9
		c-0.1,0-0.1,0-0.2,0c-2.1,0,0-1.8,0.8-2.4c5.7-3.6,11.7-6.2,18.5-6.6c4.7-0.3,8.4-3.4,13-4.1c7.3-1.2,14.4-1.3,21.4,1.1
		c0.1,0.1,0.2,0.2,0.2,0.2c0.6-0.5,0.2-3.3-0.6-4.1c-2.5-2.2-2.8-6.1-7.5-6.7c-2.6-0.3-3.9-5.4-7.9-6.4c-1.5-0.4-0.5-2.7,0.3-4
		c2.5-4,2.6-8.8,4.7-12.7c0,0-0.1,0-0.1-0.1c-4.7,3.3-8.1,8.5-13.8,10.8c-1.9,3-4.8,5.1-8.2,6c-2.9,0.8-3.5,2.3-1.6,4.6
		c1.9,2.3,2.2,1.9,1.2,3.4c-1,1.5-2.9,5,1.6,6.4c1.5,0.5,0.1,2.2-1,2.3c-1.8,0.4-3.5-0.7-3.9-2.5c0-0.1,0-0.2-0.1-0.3
		c-0.6-2.5-1.8-4.7-4.8-3.4s-6.3,1.7-4.8,6.1c0.6,1.8,0.9,3.7-1.2,4c-2.1,0.3-1.2-1.5-1-2.7c0-0.2,0-0.4,0-0.5
		c-0.3-0.2-0.7-0.3-1-0.5c-0.3,0-0.6,0-0.9,0.1c-2.5,0.3-6.3-1.4-7.1,2c-1.8,7.3-6.3,13.5-8,20.7c-1.2,4.9,2.5,9.9,0.8,15.1
		c-0.1,1-0.2,2-0.2,3c-0.8,4.8,0.8,6.7,5.6,6.4c3-0.2,6-0.8,5.1,4c-0.2,1.2,0.9,1.7,2,1.7c1.1,0,2.4-1,2-2.3
		c-1.7-5.3,2.8-5.4,5.3-5.2c10.4,0.9,20.8,2.4,31.2,3.6c3.1,0.4,5.7,1.9,8.1,3.4c2.4,1.5,3.5,4.2,1.3,7.7c-3.8,6-10.4,8.1-15.4,12.3
		c-0.9,0.8-2.2,0.9-3.3,0.5c-2.8-1.1-4.7-1.3-5.9,2.4c-1.2,3.7-3.1,2.1-6.2-1.8c-1.1,2.4-2.4,4.5-5.4,3c-0.4-0.2-1.8,0.4-2.1,1
		c-2.6,5.3-5.6,4-9,0.8c-3.4-3.2-6-4.1-8.2-7.1c-0.8-1.1-1.5-2.4-3.1-1.3c-1.6,1.1-2.3,1.9-1.7,3.3c3.1,6.5-2.4,7.9-6,9.5
		c-3.6,1.6-8.2-0.1-12.1-1.4c-3.9-1.3-2.4-3.9-1.5-6.5c0.9-2.6,1-3.1-0.4-4.2c-1.4-1.1-2.4,0.8-3.5,1c-5.4,0.9-8.8,4.2-11.5,8.7
		c-2.7,4.5-8.3,2-12.2,1.4c-2.3-0.4-4.9-1.3-7.4-2c0-1.9,1.4-1.4,2.2-1.7c0.8-0.3,2.9-1.3,2.8-3.1s-1.8-1.5-3.1-1.9
		c-3.2-1-6.5-1.5-9.9-1.6c-4.5,0-7.7-4.1-10.6-7.5c-1.2-1.6-2.7-3-4.4-4c-3.1-1.7-3-4.7-2.4-7.5c0.6-2.8,3.2-2.6,5.3-3.5
		c6.1-2.6,12.9-2.8,18.8-2.8c5.9,0,13.4-5.3,20.5-1.7c2.1,1.1,4.5-0.4,6.8-0.7c2.3-0.3,2.7-1.1,3.7,0s0.9,3.2,0,4.6
		c-2.5,3.8-0.6,6.7,2,9.2c1,1,2.4,1.9,4,0.7c1.6-1.2,1.3-2.6,0.2-3.9c-1.3-1.3-1.6-3.3-0.8-5c0.9-2.2-0.4-4.3-1.3-6.1
		c-0.9-1.8-3.3-4,1.6-3.5c2,0.2,3.3-1.9,2.9-3.9c-1.2-5.5-0.4-11.2-2.3-16.6c-0.4-1.1-0.6-2.2-0.6-3.4c-0.4-8.7-5.2-12.6-13.7-11.3
		l-4.1,0.6c0,0.1-0.1,0.2-0.1,0.2c2.4,1.9,6.3,2.4,6.8,6.3l-0.1,0c0,0,0.1,0.1,0.1,0.1c0,2.2,0.7,3.8,3,4.7s3.9,3.9,4.3,7.2
		c1.1,8.1-6.5,17.8-16.1,16.6c-5.7-0.8-11.4,2.3-16.9,2.2c-5.5-0.1-13.9,0.4-20.7-1.6s-12,4.2-10.8,10.7c1.2,6.5,5.9,12.4,11.8,17.6
		c5.9,5.2,11.7,12.5,10,22c-0.3,1.8,0.3,3.3,0.6,4.8c1.9,11.3,4.5,22.2,11.4,32.1c3.1,4.5,7.1,9.3,8.3,15.3c0.5,1.6,1.6,3,3,3.9
		c4.7,3.6,7.8,9,12.7,12.4c0.2,0.1,0.5,0.2,0.7,0.2c1.3,0.7,2.3,2.1,4,2c0,0,0,0.1,0,0.1c5.6,0.3,9.9,4.3,15,5.5
		c0.2,1.3-0.5,1.5-1.1,1.4c-5.8-0.7-8.8,1.8-9,7.7c-0.1,1.7-1.2,3.2-2.8,3.8c-4.6,1.5-8.1,4.8-13.4,5.5s-7.5,4.7-10.7,8
		c-3.2,3.3-7.4,10.2-13,13.4c-1.5,0.8-2.8,3.3-4.7,1.9c-1.9-1.4-0.4-3.8,0.4-5.3c2.1-4,2.1-8,0.6-12c-0.1-0.1-0.1-0.2-0.2-0.3
		c-0.1-0.1-0.2-0.3-0.3-0.4c-1,4.1-2,8.3-2.8,12.5c-3,16.5-12,29.8-24.8,39.5C98.6,439,83.8,445,68.9,450.6
		c-6,2.3-11.4,6.4-17.8,7.6c-16.9,3.3-33.8,6.1-50.7,9.1c-0.1,0-0.2,0-0.3,0.1c0,31.9,0,63.7,0,95.6h85c4.1-6.4,2.4-12.2-2.7-16.9
		c-2.9-2.7-3.9-5.9-5.2-9.3c-1.3-3.4-1.6-5.5-3.4-7.1c-4.7-4.2-4-10.2-4.9-15.3c-0.5-2.8,0.3-7.4,3.1-10s4.8-4.1,6.5-6.8
		c1.7-2.7,3.5-1.5,5.5-1.5s4.9-1.3,5.2-4.7c0.7-4.6,5.1-7.8,9.7-7c0.6,0.1,1.1,0.2,1.7,0.4c3.3,1.5,7.2,1.5,10.5-0.1
		c2.8-1.1,5.6-1.9,8.6-2.3c3.4-0.5,6.4-1.1,8.4-4.5c0.8-1.4,2.7-1.8,4.4-1.9c7.2-0.2,14.1,0.4,20.2,4.7c1.2,0.9,2.7,1.7,4.2,1.2
		c5.6-1.8,10.3,0.8,15.2,2.8c1,0.5,2.2,0.7,3.3,0.4c1-0.3,2.2-0.9,2.9-0.6c8.2,4,14.3-3,21.6-4.1c3.9-0.6,8-0.3,11.6-1
		c5.4-1,11.2-0.9,16.4-3.3c2.7-1.3,5.5-2.4,8.6-2.1c1.5,0.1,3-0.6,4-1.8c0.6-0.6,1.2-1.6,1.8-1.6c9.3,0.1,15.8-10.1,26.2-6.8
		c3.3,1,6-3.6,10.2-2.6c10.3,2.3,20-3,30.2-3c10.2,0,22.8-1.7,34.3-1.3c6,0.2,12,0,18,0V433c0,0-0.1,0-0.1,0
		C359.1,432.6,357.2,432.3,355.2,432.2z M204.9,267.3c1.8-0.2,2.9,0.2,2.8,1.9c-0.1,1.7-2.3,1.7-3.9,1.9c-1.1-0.3-3.2,0.6-3.1-1.2
		S203.1,267.5,204.9,267.3z M184.1,318c-9.6-3.1-14.2-11.2-18.9-19.2c-0.8-1.3,0.1-2.4,1.4-3.2s4.3-3.1,6.4-4.7
		c0.1-0.1,0.3-0.2,0.4-0.3c2.1-1.9,4.9-2.7,7.6-3.4c0-0.1,0-0.1,0.1-0.2c6.7-0.7,13.4,0.3,20.3-0.7c4.7-0.6,9.5,3.2,13.2,6.6
		c3.7,3.4,6.7,2.9,6.8,5.6s-3.2,4.7-5,7l-3.7,5.5C205.1,319.9,195.4,322.3,184.1,318z M230.3,427c-4.4,4.1-6.9,10-13,12.6
		c-3.4,1.4-7.4,1.6-9.9,5.2c-0.8,1.1-2.6,0-3.1-1.4c-0.5-1.4-1.5-3.7-1.2-5.8c0.4-2.2-0.7-4.5-2.7-5.5c-2.9-1.5-4-3.8-5.3-6.6
		c-1.3-2.8-1.6-6.3,0.8-10.2c2.4-3.9,3-11.1,1.8-16.9c-0.5-1.9-0.8-3.3,1.3-4c1.7,0.3,2,1.7,2.7,2.8c0.7,1.1,1.4,2.3,2.6,1.4
		c0.9-0.5,1.2-1.6,0.7-2.4c-0.2-0.4-0.6-0.7-1-0.9c-2.2-1.1-1.8-2-0.2-3.1c3.3-2.3,6.4-4.6,6.6-9.3c0.2-1.6,1.6-2.8,3.3-2.7
		c0.1,0,0.3,0,0.4,0.1c1.6,0.3,2.1,1.5,1.4,3.1c-0.6,1-0.2,2.2,0.7,2.7c0.1,0.1,0.2,0.1,0.4,0.2c0.7,0.4,1.7,0.3,2.3-0.2
		c1.4-1.1,0.2-2.2-0.4-3c-1.7-2.4-0.4-3.9,1.5-4.7s3.5,1.1,3.5,2.8c0,4.2,3.7,7.5,2.7,11.9c-0.1,0.2,0,0.4,0.1,0.5
		c5.9,3.7,1.6,8.8,1.7,13.2c0.1,4.4,0,6.9,2.9,10.1C233.3,419.9,233.1,424.3,230.3,427z"/>
	<path fill="#DEB69B" d="M343.1,456.9c-11.5-0.4-24.1,1.3-34.3,1.3c-10.2,0-19.9,5.3-30.2,3c-4.2-1-6.9,3.6-10.2,2.6
		c-10.4-3.3-16.9,6.9-26.2,6.8c-0.6,0-1.2,1-1.8,1.6c-1,1.2-2.5,1.9-4,1.8c-3.1-0.3-5.9,0.8-8.6,2.1c-5.2,2.4-11,2.3-16.4,3.3
		c-3.6,0.7-7.7,0.4-11.6,1c-7.3,1.1-13.4,8.1-21.6,4.1c-0.7-0.3-1.9,0.3-2.9,0.6c-1.1,0.3-2.3,0.1-3.3-0.4c-4.9-2-9.6-4.6-15.2-2.8
		c-1.5,0.5-3-0.3-4.2-1.2c-6.1-4.3-13-4.9-20.2-4.7c-1.7,0.1-3.6,0.5-4.4,1.9c-2,3.4-5,4-8.4,4.5c-3,0.4-5.8,1.2-8.6,2.3
		c-3.3,1.6-7.2,1.6-10.5,0.1c-0.5-0.2-1.1-0.4-1.7-0.4c-4.6-0.7-9,2.4-9.7,7c-0.3,3.4-3.2,4.7-5.2,4.7s-3.8-1.2-5.5,1.5
		c-1.7,2.7-3.7,4.2-6.5,6.8s-3.6,7.2-3.1,10c0.9,5.1,0.2,11.1,4.9,15.3c1.8,1.6,2.1,3.7,3.4,7.1c1.3,3.4,2.3,6.6,5.2,9.3
		c5.1,4.7,6.8,10.5,2.7,16.9h275.8c0.1,0,0.2-0.1,0.2-0.1V457v-0.1C355.1,456.9,349.1,457.1,343.1,456.9z"/>
	<path fill="#FCDDC7" d="M85.1,562.9h-85c0.1,0.2,0.2,0.4,0.3,0.6c0.7,0.9,1.8,0.6,2.8,0.4c0.3-0.1,0.6-0.1,0.9-0.1h1.4h78.6h272.5
		c1.5,0,3.4,1.2,4.5-0.9h-0.1H85.1z"/>
	<path fill="#E3CBAE" d="M102.2,328.9C102.2,328.9,102.2,328.9,102.2,328.9c1.2-3.9,4.6-4.2,7.8-4.7c3.2-0.5,3.6,0.4,6-0.8
		c-6.7-1.8-3.7-4-1.2-7c2.5-3,6.2-7.4,3.5-13.4c-1.7-3.8,0.4-8.5,0.8-12.7c0.1,0,0.1,0,0.1,0c0-0.1-0.1-0.1-0.1-0.2l-2.1-6
		c-0.1-0.1-0.2-0.2-0.3-0.3c-2.9-2.7-7.4-3.8-9-8.1c-0.5-1.1-1.7-1.5-2.8-1.1c0,0-0.1,0-0.1,0.1c-0.8,0.5-0.4,1.5,0,2.2
		c2.5,5.4,1.2,11.3,2.8,17.2c-2.1-1-1.1-2.5-1.6-3.5c-0.5-1-0.9-2.8-2.2-3.1c-1.3-0.3-1.2,2.1-2.5,2.5l0,0c-1.9,5-3.2,10.3-9.1,12.1
		c0,0-0.1,0-0.1,0c0,0,0.1,0,0.1,0.1c-1.5,4.1-8.4,9.9-11.8,9.9c-7.9,0-15-4.3-16.9-10.4c-0.4-1.3-0.5-2.6-0.3-3.9
		c0.2-2,1.3-2.8,2.9-1c1.6,1.8,2.4,5.4,5,0.9c0.1-0.2,2.3,0.8,3.6,1.2c1.3,0.4,2.8,0.5,3.7-0.7c0.9-1.2-1-1.6-1.3-2.4
		c-4-9.7-10.1-18.6-11.6-29.2c-0.6-4.3,0.5-8.9,0.8-13.4c0.1-0.1,0.1-0.1,0.2-0.2c-0.1,0-0.3,0-0.4,0.1l-2-1h0l0,0
		c-2.9,1.4-4.5,4.6-4,7.8c0.2,1.8,0.2,3.7,0,5.5c-0.2,1.7,1,4.5-0.9,4.9c-1.9,0.4-1.6-2.5-2.5-3.9c-0.9-1.4-0.8-2.6-2.5-2.9
		s0.6,3.1-1.1,4.4c-2.5-1.3-4.4-5.1-8.2-2.2c-0.6,0.4-1.4-1.1-1.9-2l-4.9-8.6c-0.5-0.9-1.1-2-2.2-1.4c-4,2.1-3.9-1.7-4.5-3.4
		c-0.9-3.3-1.6-6.7-2.2-10.1c0,0,0,0,0-0.1V240v-1.8l0.2,0c-0.1,0-0.1-0.1-0.2-0.1v-1.8c0,0-0.1,0-0.1,0c-0.7-1.1-1.9-0.9-2.9-1
		c0.8,1.6,1.1,3.4,1,5.2c-0.5,8.8,2.3,17.5,8,24.3c3,3.7,4.1,8.6,5.6,13.1c0.8,2.3-1.5,2-2.8,2.3c0,0,0,0.1,0,0.1
		c3.5,2,9.7,0.1,9.6,7c0,0.3,1,0.7,1.6,0.8c2.9,0.3,3.9,2.1,6.8,3.9s0.9,3.7-0.6,3.7c-8.3,0.1-4.1,4-2.4,7.2l0.8,1.8
		c4.1,8.3,8.6,15.9,19.1,17.7c4.5,0.9,9.1,0.6,13.5-0.7c1.1,1.6-2.1,2.5-0.3,4.1l5.1-1.7c0.9-0.3,2.3-1.2,2.6,0c0.9,4,4.7,3.6,7.3,5
		c0.2,0.4,0.7,0.6,1.1,0.5c-0.3-0.1-0.7-0.3-1-0.5L102.2,328.9z"/>
	<path fill="#EEE2C9" d="M99.2,53.1c1.8-0.9,3.6-3.5,5.5-0.9c1.9,2.6,1.3,4.1-1.1,6.3c-2.2,2-3.5,5.1-5.6,8.7
		c0.1,0.1,0.2,0.3,0.3,0.4c7-3.4,11.3-8.9,17.4-11.5c6.4-2.7,10.2-9.5,17.1-11.7c1-0.3,2.1-1.6,3.2-0.5c1.1,1.1-0.4,2.3-1,3.3
		c-0.8,1.2-1.8,2.4-2.8,3.4c-0.6,0.8-1.9,1.8-1.7,2.3c2.3,5.9-2.5,8.4-5.3,11.8c-0.7,0.8-1.1,1.7-0.2,2.6c0.6,0.6,1.5,0.7,2.2,0.2
		c1.7-0.9,3.7-3.7,5.4-1.3c1.7,2.4-2.1,3.3-2.8,5.3c-0.1,0.3-0.5,0.4-0.7,0.7c0,0,0,0,0.1-0.1c0,1.8,0.2,3.6,2.7,2.1
		c2.5-1.5,2.9-2.1,4.3-3.1c0,0,0,0,0,0l13-10.9c0.7-0.6,1.3-1.1,2.1-0.6c0.8,0.5,0.2,1.4-0.2,2.1c-0.4,0.7-1.4,3-2,4.5
		c-0.6,1.5-1.7,2.5-0.2,3.5c1.5,1,2.6-0.2,3.6-0.9c1-0.7,3.6-3.6,6.9-2.3c-1.9,3-4.4,5.5-7.3,7.6c0,0,0,0,0.1,0
		c1.4,0.7,1.5,1.9,2.9,2c4.8-6.3,11.4-10.5,17.8-14.8c1.2-0.8,2.6-1.4,2.9-3.1c0.3-1.7-2.8,1-4.1-0.9c2.3-1.7,4.6-3.5,7.1-5.1
		c2.5-1.6,2.4-2.1,2.1-3.6c-0.3-1.5-2.4-1.5-3.7-1.3c-1.5,0.2-2.9,0.7-4.1,1.6c-5.7,4.4-12.6,6-19.2,8.7
		c7.4-7.6,16.4-13.1,25.9-18.1c-5.8-0.2-11.7,2.8-16.5-2.7c1.7-2.2,4.1-3.7,6.8-4.5c0-0.1,0-0.1,0-0.2c0.5-4.6-4.1-4.1-6.3-5.9
		c-5.3-4.4-11.6-3.3-17.7-2.1l-5.9,2.4c-2,0.8-3.9,0.9-5.1-1.4l-9.6,5.1c-6.7,3.5-11.7,9.2-17.9,13.4c-7.3,4.9-13.8,10.8-19.5,17.5
		C92.6,59.6,95.2,55.2,99.2,53.1z"/>
	<path fill="#DDC4A6" d="M312.1,104.3c0,0-0.1,0.1-0.1,0.1c2.6,6.3,6.1,12.3,10.4,17.6c3.8,4.9,2.6,11.5,6.3,16.3
		c0.2,0.2-0.1,1.1-0.4,1.3c-0.5,0.4-1.3,0.3-1.7-0.3c0,0,0,0,0,0c-0.8-0.8-1.5-1.8-2-2.8c-4.5-10.9-13.1-18.9-19.6-28.4
		c-0.9-1.3-1.9-3.1-4.4-1.3c-2.5,1.8-0.4,2.8,0.4,4.2c2.1,3.5,5,7,5.8,10.8c1.6,7.4,7.1,13,8.6,20.4c0.3,1.5,1.8,2.7,2.8,4
		c1,1.3,2.6,2.9,2.2,5.7c-3.6-2.5-7.3-3.7-11.4-2.7c0.7,5.3,3.9,9.1,7.6,12.8c5.7,5.6,10.3,11.7,8.4,20.7c-1,4.6-5.3,5.5-7.6,8.7
		c-0.2,0.3-4.5-2.2-5.2-4.4c-2.2-6.5-4.5-12.9-4.7-20c-0.1-5.1-1.3-10.3-1.6-15.5c-0.1-2.3,0.3-3.8,3-2.3l0.1-0.1
		c-3.6-9.8-8.7-18.8-13.1-28.3c-0.7-1.4-2-3.4-4.1-3.2c-0.2,0-0.4,0.1-0.5,0.1c-0.2,0.3-0.5,0.6-0.7,1c0.1,0.5,0.3,1,0.3,1.4
		c-0.1,0-0.2-0.1-0.3-0.1c0,0.1,0.1,0.2,0.1,0.3c1.2,3.3,0,3.9,1.3,5.8h0c4.1,6,3.5,13.3,5.8,19.8c0.5,1.6,1.7,3.3,0.7,5.5
		c-1.9-0.5-5.1-2.5-5.6-0.6c-1.1,3.8-3.6,7.5-2.6,11.8c1.8,7.9,3.8,15.6,5.7,23.5c0,0,0,0,0,0l2.5,6.5c4-3.3,1.7-7.9,2.9-11.9
		c2.8,1.8,3,4.5,2.5,7c-1.2,6,2.6,10.3,4.7,15.2c1.3,3.1,3.6,0.8,5.4,0.2c0,0,0,0.1,0,0.1l1-1c0.1,0,0.2-0.1,0.2-0.1
		c-0.1,0-0.2,0-0.2,0c0.6-1.9,1.1-3.8,1.9-5.5c0.8-1.7,1.1-3.3,3.2-0.9c2.1,2.4,1.6-1.8,2.9-1.6l0,0c0,0,0,0,0,0
		c0-1-0.3-2.3,0.2-2.9c4-4.9,3.9-10.7,3.8-16.5c0-1.2-0.5-3,1.3-3.3c1.8-0.3,1.8,1.7,2.1,2.8c1.2,3.3,1.7,6.8,1.5,10.3
		c-0.1,0.8-0.1,1.8,0.9,2.1c0.8,0.2,1.7-0.3,2-1.1c1.6-2.9,3.5-5.7,3.9-9c-0.2,0-0.4,0-0.6,0c-1.1,0.9-1.8,2.6-3.7,1.6
		c-2.4-1.2-1.3-3.2-1.4-4.9c-0.3-6.3-3.5-11.5-5.5-17.2c-2-5.7-3.1-8.7-4.7-13c-0.5-1.5-0.2-3.1,0.7-4.3c3.8,2.2,2.8,7.3,6.1,9.7
		c3.6-1.7,0.7-7.3,5.3-8.2c0,0,0,0,0,0c0,0,0,0,0,0c0.2-4.8-2.5-8.1-5.3-11.6c-1.5-1.9-4.2-4-0.6-6.5c0,0,0,0.1,0.1,0.1
		c0-0.1,0-0.1,0-0.2l-4.2-6.9c-0.1-0.1-0.2-0.2-0.3-0.3c0.1,0.1,0.1,0.2,0.2,0.3C319.6,112.9,316.5,107.9,312.1,104.3z"/>
	<path fill="#CDB091" d="M12,159.1c0,0.2,0,0.4,0,0.6c0.1-0.2,0.2-0.3,0.2-0.5c1,1.7,1,4.4,4.1,4.1s2,1.5,1.9,2.8
		c-0.8,11.7,7.4,18.3,14.6,25.4c1.5,1.6,3.2,2.9,5.2,3.8c1.1,0.5,2.6,1.4,3.8,1.4c0.5-0.3,1-0.6,1.6-1.1c0.2-0.5,0.4-1.3,0.4-2.3
		c0-0.2,0-0.4,0-0.5c7.2-3.3,1.5-5.4-0.7-7.7c-7.3-7.3-12.6-16-19.2-23.9c-2.5-3-0.1-7.3-1-11.8c4.7,2.7,6,7.8,10.2,9.8
		c0,0,0.1-0.1,0.1-0.1c0,0,0-0.1-0.1-0.1c-0.1-0.5-0.2-1-0.3-1.4c-0.1-0.4-3.9-3.2-1-5.3c2.9-2.1,5.1-1.9,7.6,0.6
		c6.5,6.3,13.9,11.6,21.9,15.8c1.4,0.9,3,1.4,4.7,1.4c-7.8-6-16.2-11-22.6-18.9c-2.7-3.4-7-5.5-10.4-8.3c-3.4-2.8-3.3-6.4-4.7-9.6
		c6.9,7.5,16,12.3,23.6,18.6l7.8,2c0.1,0,0.3,0,0.4,0.1c2.9-2.2-0.3-3-1.5-3.7c-4.1-2.5-8.5-4.5-12.5-7.1c-2-1.6-5.1-3.2-3.2-6.9
		c0,0,0,0,0,0c-2.6-3.9-7.4-4.5-10.8-7.3c-1.7-1.4-5.3-2.2-3.6-4.8c1.7-2.6,3.4,1.3,4.6,2.3c10.2,9.1,22.5,9.4,35.1,8.6
		c0.5,0,1-0.5,1.5-0.8l-4.7-0.1c0-0.1,0-0.1,0-0.2c-4.8-0.1-10.1,1.4-13.6-4.1c2-1.6,4.4-0.5,6.5-0.9c2.1-0.4,1.7-0.4,1.8-1.4
		s-0.7-1.3-1.5-1.6L44.1,122c-2.3-0.7-5.1-0.5-5.3-4c0-0.3-0.1-0.6-0.3-0.8c-0.1-0.1-0.1-0.1-0.2-0.2c-0.4-0.3-1-0.3-1.7,0
		c-4.1,1.7-3.9-0.5-2.7-3.2c1.2-2.7,0.2-3.5-2.7-3c-5.8,1.1-7.6,3.1-6.7,8.9c0.3,1.8,1.2,3.5-1.3,4.6c-0.6,0.3-1,0.5-1.2,0.8
		c-0.1,0.3-0.2,0.6-0.3,1c0.1,0.6,0.5,1.1,0.7,1.8c0.5,1.3,0.8,3-0.8,3.9c-1.6,0.9-2.6,2.2-1.2,4.7c1.2,2.2-1.7,2.6-3.1,4
		c-0.1,0.2-0.3,0.4-0.4,0.6c-2.8,3.7-5,7.8-6.8,12.1C14.2,154,13.6,156.4,12,159.1z"/>
	<path fill="#CDB091" d="M12.7,190.7c1.4,5.3,6.3,7.6,9.7,11.3c0.8,0.9,2.3,1.8,2.2,2.6c-0.7,8.6,6.6,11.3,11.3,15.9l2.1,2.2
		c-3,0.3-4.2-4.1-7.2-1.9c0.5,1.6,2.7,1.6,3.1,3.3l0.1,0c5.2,4,11.3,6.6,16.9,9.9c2.4,1.4,4.9-0.7,7.1,1c2.2,1.7,2.7-0.2,2.4,1.6
		c-0.3,1.1-1.5,1.7-2.6,1.4c-0.1,0-0.2-0.1-0.3-0.1c-6.3-2.2-13,1.4-19.4-0.9c0,0-0.1-0.1-0.1-0.1c0,0.1,0.1,0.2,0.1,0.3
		c-3-0.1-5.8-1.4-8.9-0.9v1.8c0.1,0,0.1,0.1,0.2,0.1l11.7,1.9c3.6,0.6,7.4,0.4,10.9,2.1l15.9-2c0.1,0,0.1-0.1,0.2-0.1
		c3-0.1,6-0.8,8.7-2.1c-4.3-1.1-8.6,1.3-13,0.4c5-1.9,10.5-2.2,16.7-4.6c0-0.1,0-0.3,0-0.4c-5.5-0.9-9.8,1.5-13.8-0.8
		c3.7-4.4,18.2-6.1,21.4-2.1v-5.3c0.1,0,0.1,0,0.2,0c0,0-0.1-0.1-0.1-0.1c-0.4-11.9-0.4-11.9,11.9-15c0,0,0,0,0,0
		c0.8-1.6,2.3-1.9,3.9-1.8c1.7,0.1,3.2-0.3,4.1-2c0,0,0.1-0.1,0.1-0.1c0,0,0,0,0-0.1H94.1c-1.2,2.3,2.3,1.6,1.3,3.5
		s-3.5,0.3-5.3,0.5c-0.3,0-0.6,0-0.8-0.1c-4.2,0.1-8.2,0.5-12.2-0.9l-1,2.9c0,0,0,0.1,0,0.1c3.5-0.7,5.6-0.4,8.3,0.7
		c2.8,1.1,2.7,0.7,2.4,2.6c-0.3,1.9-1.7,1.8-3,1.8c-6.9-0.1-13.9,0.2-20.8-1.1l-0.2-0.1c-1.3,0.2-2.7,0-3.6,0.7
		c-1,0.7-3.7,2.2-3.4,3.9c0.3,1.7,2.7,2,4.4,2.5c4.5,1.2,8.9,2.9,13.1,5c-6.3,1-12.4,0-18.1-1.8c-3.4-1-7.1-1.8-10-4.5
		c-2.9-2.7-3.2-3.2-3.1-5.6c0,0-0.1,0-0.1,0c-2.7-2.5-6.3-3.6-8.8-6.4c-2.5-2.8-7.8-6.9-10.5-11.8c5.9,3.9,10.9,9.1,18.2,10.2
		c0,0,0,0,0.1,0.1c0,0,0,0,0.1-0.1c-8.8-9.2-15.3-20.1-23.1-30c-2.9-3.7-5.4-7.6-9.7-9.9c0-0.1,0.1-0.3,0.1-0.4
		c-0.1,0.1-0.2,0.2-0.3,0.3l-1,11.7c0,0.1,0,0.1,0.1,0.2c1.7,3.1-0.4,5.6,3,10c0,0,0,0,0,0.1C11.4,188.9,12.4,189.6,12.7,190.7z"/>
	<path fill="#CDB091" d="M7,179.6c-0.2-1-0.4-1.9-0.5-2.9C6.5,177.7,6.6,178.7,7,179.6z"/>
	<path fill="#C3A889" d="M248.3,324.9c-0.2,1.1,0.5,2.2,1.6,2.5c0.3,0.1,0.5,0.1,0.8,0c1.1-0.1,2.5-1.1,1.7-2.4
		c-3.7-6.2,2.8-8.3,5.2-11.2c2.2-2.3,4.9-4.3,7.8-5.7c1.6-0.8,3.2-2.9,4.8-1.6s0,3.4-0.4,5s-1.8,5.3-1.7,8.2c0.1,2.9,0,3.4,1.9,4.2
		c0,0,0,0.1,0.1,0.1c2.9-1.1,5.5-1.9,7.3-5.3c1.9-3.4,5.9-2.2,8.8,0.2c0,0-0.1,0-0.1,0c0.1,0,0.1,0,0.2,0.1h0.9c0,0,0,0,0,0
		c0,0,0,0,0,0c0.6-0.2,1.6,0,1.3-1s-2.9-2.1-0.8-4.1s3-0.7,4.6,0c0.7,0.2,1.3,0.3,2,0.4c-2.4-3.3-6.1-4.7-7.9-8.4
		c2.5,0.2,4.3-3.1,7.3-0.5c1,0.9,1.4-0.6,1.3-1.7c-0.1-1.1-2-1.6-0.5-3.3c3.5,2.7,4.7,8.6,10.4,8.4c1.6,0.1,3.2-0.9,3.8-2.4
		c-0.9-1.5-1.9-0.5-2.8-0.5c-0.9,0-2.6,0.6-3.1-0.8c-0.5-1.4,1-1.8,2.1-2.2c1.1-0.4,2.9-1.3,2.9-3s-1.7-1.7-2.9-2.2
		c-1.2-0.5-1.4-0.8-1.3-1.7h8.2c1.7,0,3.5-0.3,2.3-2.9c-4.2,0.5-8.1-0.9-12-2.1c-0.8-0.3-1.7-0.4-1.8-1.4c-0.1-1,0.6-2,1.6-2.2
		c2.4-0.4,4.7-1.6,7.3-1.2c4.3,0.6,6.4-1.6,5.5-6s0.3-9.6,5.5-12c0,0,0,0,0,0c0,0,0,0,0-0.1c0,0,0,0,0,0c0.9-3.5-3.7-3.4-4.1-6
		c0,0,0.1-0.1,0.1-0.1c-0.1,0-0.1,0.1-0.2,0.1c-4.9,1.8-9.3,4.5-13.2,7.9c-1.1,1-1.8,2.7-3.6,1.9c-1.8-0.8,0.4-2.2,0.2-3.2
		c-0.3-0.9-0.8-1.8-1.4-2.5l-3.8,3c-0.1-0.1-0.1-0.2-0.2-0.2c0,0.1,0,0.2,0,0.3c-0.3,2.6-3.7,6.1-5,9.5c-3.5,9.1-8.1,17.9-8.1,28.1
		c0,1.1,0,2.8-1.4,2.7c-1.4-0.1-1.6-2.6-1.5-4.3c0-0.1,0-0.1,0-0.2c0,0,0,0,0,0c-2.9,1.9-3.1,1.9-3.3-1.3c-0.6-7.8-0.8-7.8-8.2-5
		c-1.1,0.4-2.1,1.7-3.4,0.3c-0.8,2.9-2,5.7-3.8,8.2c-3.3,4.3-6.7,8.5-10.1,12.8C248.9,321.7,248.4,323.3,248.3,324.9z"/>
	<path fill="#C3A889" d="M320.2,268.2C320.2,268.2,320.1,268.2,320.2,268.2C320.1,268.2,320.2,268.2,320.2,268.2
		C320.2,268.2,320.2,268.2,320.2,268.2z"/>
	<path fill="#C48762" d="M175.2,351.8c-10.4,2.3-20.8,2.6-31.3,0.1c-1.6-0.3-2.8-1.3-3.4-2.8c0,0,0,0,0,0c0,0,0,0-0.1,0
		c0,0,0,0.1,0,0.1l-0.3,1c0,0,0,0.1,0,0.1c0.8,9-1.4,17.8-1,26.7c0.1,0.2,0.2,0.4,0.3,0.7c0.1,0.2,0.1,0.3,0.2,0.5
		c1.5,4,1.5,7.9-0.6,12c-0.8,1.5-2.3,3.9-0.4,5.3c1.9,1.4,3.2-1.1,4.7-1.9c5.6-3.2,9.8-10.1,13-13.4c3.2-3.3,5.4-7.3,10.7-8
		s8.8-4,13.4-5.5c1.6-0.6,2.7-2.1,2.8-3.8c0.2-5.9,3.2-8.4,9-7.7c0.6,0.1,1.3-0.1,1.1-1.4c-5.1-1.2-9.3-5.2-15-5.5
		C179.5,351.2,176.7,351.4,175.2,351.8z"/>
	<path fill="#DEC7A9" d="M86,66.2c-2,3.2-2,7.4-5.2,10c-1.4,1.1-1.9,2.8-1.5,4.5c0.9,2.5,0.8,4.4-1.3,6.2s-1.2,1.9-0.2,2.6
		c1,0.7,1.7-0.5,2.5-1.1c2.9-2.4,5.2-5.4,8.1-7.9c5.6-4.9,12.5-8.1,17.5-13.6c0.5-0.5,1.1-0.8,1.8-0.8c1.7,0.3,3.7-2.4,4.9-0.2
		s-1,2.9-2.1,4.2c-0.6,0.7-1.6,1.4-2.1,2.4c-0.1,0.3-0.2,0.6-0.3,0.9c-0.1,0.7,0,1.5,0.7,2.5c0.7,1-0.8,2.7-1.9,3.8
		c-4.4,4.4-8.3,9.4-14.7,11.1c0,0,0,0,0,0c0,0.1,0,0.1-0.1,0.2c-3.5,4.9-9,7.1-13.8,10.2l-0.3,0.1c0,0,0,0,0,0c0.2,0,0.3,0,0.5,0
		c4.9-0.2,7.5-1,10.6-3.3c3.1-2.3,3.6-2.9,5.5-4.3c0.7-0.7,1.9-0.7,2.7,0c0.1,0.1,0.2,0.3,0.3,0.4c0.7,1.2-0.5,1.8-1.2,2.4
		c-0.7,0.6-2.9,1.6-4.2,2.6c-1.3,1-2.2,1.8-0.8,3.2c1.4,1.4,2-0.1,3-0.5c7.6-3.5,11.4-11,17-16.5c3.1-3,5.8-6.2,8.8-9.3
		c1-1,2-3.1,3.5-2.2c1.4,0.9,0.5,2.7-0.1,4.2c2.8-1,3.6-4.1,5.6-5.8c0.2-0.3,0.6-0.4,0.7-0.7c0.7-2,4.5-2.9,2.8-5.3
		c-1.7-2.4-3.7,0.4-5.4,1.3c-0.7,0.5-1.6,0.4-2.2-0.2c-0.9-0.9-0.5-1.8,0.2-2.6c2.8-3.4,7.6-5.9,5.3-11.8c-0.2-0.5,1.1-1.5,1.7-2.3
		c1-1,2-2.2,2.8-3.4c0.6-1,2.1-2.2,1-3.3c-1.1-1.1-2.2,0.2-3.2,0.5c-6.9,2.2-10.7,9-17.1,11.7c-6.2,2.6-10.4,8.2-17.4,11.5
		c-0.3,0.1-0.5,0.2-0.8,0.4c0.2-0.3,0.3-0.5,0.5-0.8c2.1-3.6,3.4-6.7,5.6-8.7c2.4-2.2,3-3.7,1.1-6.3c-1.9-2.6-3.7,0-5.5,0.9
		c-4,2.1-6.6,6.5-11.1,8l-3,2C86.5,63.8,86.9,64.8,86,66.2z M99.6,92.4c2.4-4.9,6.1-9,10.8-11.8C107.7,85.3,104.9,90,99.6,92.4z"/>
	<path fill="#C8AD8F" d="M58.8,78.2c0.1-0.1,0.2-0.1,0.3-0.2c4.1-0.8,7.5-4.2,12.4-3.8c-1,2.8-3.7,3.3-5.4,4.9c-1.6,2.5-1.3,6-3.9,8
		c0,0,0,0-0.1,0c0,0,0,0,0.1,0.1l-14.1,16.9c-0.9,2.6-0.3,4.1,2.8,3.9c3.1-0.2,7.9,0.8,11.2-2c0.7-4.5,5-3.5,7.5-4.4
		c7.7-2.8,15-6,21.1-11.5c1.3-1.2,2.1-1.3,1.4,0.7c0,0,0,0,0,0c6.4-1.7,10.3-6.7,14.7-11.1c1.1-1.1,2.6-2.8,1.9-3.8
		c-0.7-1-0.8-1.8-0.7-2.5c0.1-0.3,0.2-0.6,0.3-0.9c0.5-1,1.6-1.7,2.1-2.4c1.1-1.3,3.3-2,2.1-4.2s-3.2,0.5-4.9,0.2
		c-0.7,0-1.3,0.3-1.8,0.8c-5,5.5-11.9,8.7-17.5,13.6c-2.9,2.5-5.2,5.5-8.1,7.9c-0.8,0.6-1.5,1.8-2.5,1.1c-1-0.7-1.9-0.8,0.2-2.6
		s2.2-3.7,1.3-6.2c-0.4-1.7,0.1-3.4,1.5-4.5c3.2-2.6,3.2-6.8,5.2-10c0.9-1.4,0.5-2.4-0.9-3.1c0,0-0.1-0.1-0.1-0.1
		c-3.3,0.8-5.4,4-8.6,4.4c-7.3,1.6-13.2,5.9-19.5,9.3c0,0.2-0.1,0.3-0.1,0.5C57.3,77.8,58,78.2,58.8,78.2z"/>
	<path fill="#DAC3A6" d="M140.2,26.5l5.9-2.4c5.3-4.4,12.2-6.1,18.9-4.8c5.9,1,11.8,0.5,17.6,1.8c2.1,0.5,4.8,0,5.3,2.6
		c0.5,2.6-2.3,3.1-4.2,3.7l-13.6,4.7c0,0.1,0,0.2,0,0.2c0,0,0.1,0,0.1,0c1.7,4.6,6.4-2.2,7.2,1.4c1.1,5.6,5,2.8,6.7,2.3
		c5.6-1.9,11.4-3.3,17.2-4.2c2.2-0.4,4.4-0.5,6.6-0.1c-4.8,1.6-8.8,3.4-13.1,4.2c-4.3,0.8-6.9,3.9-10.8,4.8
		c-0.6,0.2-1.1,0.7-1.3,1.3c-0.2,1.1,0.8,1.3,1.6,1.4c0.8,0.1,3.6,1.8,4.6,3.5c1,1.7,3.7,4.3,7.3,3.6c3.4-0.7,1.8,2.1,2,3.7
		c2.9-1.2,4-5.4,8.2-5c1,0.1,3.5-2.2,2.3-4.1c-1.1-1.8-3.4-2.4-5.3-1.4c-5.1,2.9-9.5,1.2-14-1.3c-0.7-0.4-2.4-0.2-1.5-1.7
		c0.9-1.5,1.5-0.4,2.3-0.6c10.4-4.5,21.2-7.4,32.7-7c5.1,0.1,8.1-4.2,12.3-6.1c0,0-0.1-0.1-0.1-0.1c-3.3-1.6-7.3-1.6-9.9-4.7
		c0,0-0.1,0-0.1,0l-4.9-1.2c0.9,1.9,0.7,2.8-1.8,3.3c-6.6,1.4-13.2,3.3-19.8,4.7c-3.4,0.7-6.3,2.6-9.8,2.8c-1.9,0.1-4,0.6-4.4-1.8
		c-0.4-2.4,2.3-2.5,3.5-2.5c7.2-0.3,13.5-3.5,20-6.1c1.9-0.8,2.9-2,4.2-3.2c0,0,0-0.1,0-0.1c-3.2-2.7-7.3-2.2-10.9-2.7
		c-23-3.5-45.3-1.6-66.1,9.7c0,0,0,0,0,0C136.3,27.4,138.2,27.3,140.2,26.5z"/>
	<path fill="#C1A384" d="M279.1,76.2c-3.3,2.7-2.3,4.6,1.2,5.9c1.9,0.7,3.8,1.1,4.9,3c-0.1,0-0.2,0-0.3,0.1c0,0,0.1,0,0.1,0
		c7.7,4.1,13.5,10.3,18.5,17.3c-3-0.3-4.2-2.8-6.2-4.4c-1.5-1.1-2.9-2.2-4.3-3.4c-1.5-1.6-4-1.6-5.5-0.1c-0.1,0.1-0.2,0.2-0.3,0.3
		c-1.9,2,1.2,2.7,2,4.1c0.5,0.7,1,1.4,1.6,2c-3.8,0.8-3.7,0.7-2,4c1.7,3.3,4.2,4.2,4.8,7.4c0.2,0.9,1.6,1.7,0.4,2.5
		c-1.2,0.8-2.1-0.2-2.9-1.2s-1-2.8-2.8-3.8c-1.5,4,1.1,6.9,2.4,10.1c0.1,0,0.2,0.1,0.3,0.1c0-0.4-0.2-1-0.3-1.4
		c-0.1-0.4,0-0.8,0.7-1c0.1,0,0.3-0.1,0.5-0.1c2.1-0.2,3.4,1.8,4.1,3.2c4.4,9.5,9.5,18.5,13.1,28.3c0,0,0,0.1,0,0.1
		c4.1-1.1,7.7,0.2,11.4,2.7c0.4-2.8-1.2-4.4-2.2-5.7c-1-1.3-2.5-2.5-2.8-4c-1.5-7.4-7-13-8.6-20.4c-0.8-3.8-3.7-7.3-5.8-10.8
		c-0.8-1.4-2.9-2.4-0.4-4.2c2.5-1.8,3.5,0,4.4,1.3c6.5,9.5,15.1,17.5,19.6,28.4c0.5,1,1.2,2,2,2.8c0,0,0,0,0,0
		c0.4,0.5,1.1,0.7,1.7,0.3c0.3-0.2,0.6-1.1,0.4-1.3c-3.7-4.8-2.5-11.4-6.3-16.3c-4.3-5.3-7.8-11.3-10.4-17.6c0-0.1-0.1-0.1-0.1-0.2
		c0-0.1-0.1-0.1-0.1-0.2c-5.7-4.4-8.7-11.3-14.3-15.7c-0.1-0.1-0.3-0.2-0.4-0.2c-3.5-2.2-7.3-5.1-10.5-6.4c-3.2-1.3-3.5-2.9-2.6-5.6
		c0,0-0.1,0-0.1,0v0C282.5,77.3,280.5,77.3,279.1,76.2z"/>
	<path fill="#DDC7AB" d="M20.4,136.4c-1.4-2.5-0.4-3.8,1.2-4.7c1.6-0.9,1.3-2.6,0.8-3.9c-0.2-0.6-0.6-1.2-0.7-1.8c0-0.3,0-0.6,0.3-1
		c0.2-0.3,0.6-0.5,1.2-0.8c2.5-1.1,1.6-2.8,1.3-4.6c-0.9-5.8,0.9-7.8,6.7-8.9c2.9-0.5,3.9,0.3,2.7,3c-1.2,2.7-1.4,4.9,2.7,3.2
		c0.8-0.3,1.4-0.3,1.7,0c0.1,0.1,0.1,0.1,0.2,0.2c0.1,0.2,0.2,0.4,0.3,0.8c0.2,3.5,3,3.3,5.3,4l14.2,3.9c0.8,0.3,1.6,0.6,1.5,1.6
		s0.3,1-1.8,1.4c-2.1,0.4-4.5-0.7-6.5,0.9c3.5,5.5,8.8,4,13.6,4.1c-0.2-3.1,2.2-4.3,4.5-5.6c2.4-1.3,3.2-1.3,2.7-2.9
		c-0.5-1.6-2.3-2-4.1-1.9c-6.7,0.5-12.2-3.3-18.1-5.6c-0.6-0.2-1.4-1.5-1.2-1.9c0.2-0.4,2.7-1.5,4.2-1.9c0,0,0.1,0,0.1,0
		c-1.5-2.5-1.2-3.9,2.2-4.1c3.4-0.2,7.6-0.6,11.4-1c1.1-0.1,2.7,0.5,2.9-1.1c0.2-1.6-1.3-1.7-2.5-1.8h-2c0.1-0.1,0.2-0.2,0.3-0.3
		L65,106h-2.9c-3.3,2.8-8.1,1.8-11.2,2c-3.1,0.2-3.7-1.3-2.8-3.9c-1.3,0.7-2.4,1.8-3.1,3.1c-1.2,1.7-2.9,3.5-4.8,2.1
		c-1.9-1.4-0.4-4,0.9-5.5c2.2-2.5,4.5-4.8,7-7c3.6-3.1,7.4-6.1,11.1-9c0.8-0.6,1.8-1.6,2.9-0.7c0,0,0,0,0.1,0c2.6-2,2.3-5.5,3.9-8
		c-12.2,7.2-23.3,16-33,26.3c1-7.6,6.1-12.4,11.5-17.1c5.3-4.6,9.4-6.9,14.2-10.1c-0.8,0-1.5-0.4-2-1c0,0,0,0,0-0.1
		c-5.9,1.4-11.1,4.9-15.4,8.6c-10.7,9-16.7,21.4-21,34.6c-0.6,1.7,1.1,3.5-0.1,4.8c-4.1,4.7-3,10.5-3.5,16c0.1-0.3,0.3-0.5,0.5-0.7
		C18.6,139,21.6,138.6,20.4,136.4z"/>
	<path fill="#BE9F81" d="M284.1,65.1C284,65.1,284,65.1,284.1,65.1c-1.2-1.5-2.7-2.8-4.3-4c-1.7-1.1-3.3-2.5-1.8-4.9c0,0,0,0,0.1,0
		c0,0,0-0.1-0.1-0.1c-2.2-0.5-4.3-1.5-5.9-3.1c-0.1-0.1-0.2-0.2-0.3-0.3c0.1,0.1,0.1,0.2,0.2,0.4h-0.9c0,0,0,0,0,0
		c-0.9,3.3-3.6,1.6-5.6,1.7c-2,0.1-3-1.6-4.4,0.2c-0.1,0-0.2,0.1-0.3,0.1c0.1,0,0.2,0,0.3,0c1.1,1.9,0.7,3-1.7,2.9h-7.2
		c-0.1,0-0.1,0-0.2,0c0.1,0,0.1,0.1,0.2,0.1c-5.4,1.9-11,3.3-16.7,4.1c-10.7,1.3-19.4,6.9-27.4,13.7c-0.4,0.3-0.6,0.8-0.5,1.3
		c0.7,1.5,2.2-0.6,3.2,0.9c-1.6,2.2-5,2.5-6.2,5.9l7.2-4.1c2.6-1.5,4.5-5.4,8.4-2.3c0.4,0.3,1.9-1,2.9-1.5c1-0.5,3.7-2.4,3.4,1.7
		c-0.1,2.1,1.7,0.2,2.6,0.4c0,0.1,0,0.1,0,0.2c0-0.1,0.1-0.1,0.1-0.2c3.2-0.2,6.4-0.7,8.9-3c-0.7-1.4-0.5-2.3,1.2-3
		c5.2-1.9,10.6-3.5,16-4.7c1.7-0.4,2.8,0.4,4.2,0.7c3.5,0.9,6.9,2.3,10.2-1.3c1.6-1.8,4.3,0.1,6.1,1.5c1.8,1.4,5,2.9,8.1,1.8
		c0,0,0.1-0.1,0.1-0.1l0.3-2L284.1,65.1z"/>
	<path fill="#DABFA1" d="M337.9,230.6c-1.4-4.6-3.1-3.1-4.9-0.4c-1.8,2.7-4.2,6.3-7.8,8.1c-0.9,0.5-1.7,1-3.1-0.3
		c5.4-5.9,10.8-11.8,16.1-17.8c1.4-1.6,5-3,3.2-5.2c-1.8-2.2-3.5,1.3-4.9,2.6c-5.7,5.1-12.3,9.3-17.1,15.5c-0.5,0.7-1.2,1.9-2.4,1.1
		c-1.1-0.7-0.3-1.4,0-2.1c0,0,0,0-0.1,0.1c-5.1,3.9-9,8.9-12.5,14.2c-3.5,5.3-6.1,10.2-9.4,15.2c-1.6,2.4-0.9,4.9-1.1,7.4
		c0.1,0.1,0.1,0.2,0.2,0.2l3.8-3c0,0,0,0,0-0.1c3.7-6.7,9.7-11.1,15-16.3c-1.2,4.7-5.4,7.4-7,12c4.1-3.7,8.3-7.2,13.6-8.9
		c2.1-0.7,3.3-5.3,6.4-1.3c1.9-1.5,3.8-3.1,5.7-4.6c1.9-1.5,3.2-2.8,4.9,1.1c1.7,3.9,6.7,4,8.3,8c0,0.1,0,0.1,0,0.2c0,0,0,0,0.1,0
		c0.5-1.8-0.7-3.1-1.3-4.6c-2.2-5.3-5-10.5-2.6-16.5c0-0.1-0.1-0.2-0.1-0.3c0,0,0,0,0,0.1C339,234.2,338.4,232.3,337.9,230.6z"/>
	<path fill="#C4A686" d="M140.4,349.1C140.4,349.1,140.4,349,140.4,349.1c0.1-0.1,0.1-0.2,0.1-0.3c-0.2-7.9,1-15.9-1.3-23.7
		c1.3-5.8-4.1-12.1-10-11.6c-5.9,0.5-8.7-4.6-7.8-9c0.9-4.3,1-9.8-2.2-14.2c0,0-0.1,0-0.1,0c-0.4,4.2-2.5,8.9-0.8,12.7
		c2.7,6-1,10.4-3.5,13.4c-2.5,3-5.5,5.2,1.2,7c-2.4,1.2-2.8,0.3-6,0.8c-3.2,0.5-6.6,0.8-7.8,4.7c5.4-0.2,10.7,0.8,16.1-0.9
		c2.4-0.8,5.9,1.5,7.1,4.1c1.2,2.6,1.8,6.8-2.3,8.9c0,0,0-0.1,0-0.1c0,0-0.1,0.1-0.1,0.1l-1,1c0.4,1.7,0,3.6-1.1,5
		c-1.2,1.4,0.1,1.9,1.3,2.2c3.8-2,7.3-4.4,10.6-7.2c0.9-0.7,1.4-2.7,2.9-1.8c1.5,0.9,3.3,1.7,3.5,3.8c0.2,2.1-0.4,4.3,0.8,6.3
		l0.1-0.2L140.4,349.1z"/>
	<path fill="#E3CBAE" d="M27.1,263.7c-1.6-2.5-3.2-5-3.6-8s-0.5-6.6-4.5-7.9c-1.2-0.4-1-2-0.9-3.1c0.7-4.2,1.4-8.4,2-12.6
		c-4.5-3-4.5-5.9-0.6-9.7c2.2-2.2-2.3-10.3-5.7-10.1c-3.4,0.2-4.9-2-4.7-5.4c0.3-4.9,1.8-9.8,1-14.8c-1.8,3.8,0.2,8.9-4.1,12
		c0,0.4,0.1,0.9,0.4,1.2c2.7,1.8,1.5,4.6,1.7,6.9c0.4,4.5-0.6,9.2,1.9,13.5c2.5,4.3,2,8.3-3.7,10.3c-2.5,0.9-1.1,3.5-0.4,4.2
		c0.7,0.7,3.1,0.6,1.2,2.8c-1.9,2.2-2,3.1,1.5,2.9c3.5-0.2,4.6,1.3,5.2,4.3c0.3,1.5,0.8,2.9,1.4,4.3c3.8,8.9,8.1,17.5,16.9,22.6
		c0,0,0,0,0,0C33.7,271.4,29.8,267.8,27.1,263.7z"/>
	<path fill="#B99A7A" d="M9.1,206.9c-0.2,3.4,1.3,5.6,4.7,5.4c3.4-0.2,7.9,7.9,5.7,10.1c-3.9,3.8-3.9,6.7,0.6,9.7
		c1.9,1.2,4.5,1,6,2.9c0.1,0.1,0.1,0.2,0.1,0.3c1,0.1,2.2-0.1,2.9,1c0,0,0.1,0,0.1,0c3.1-0.5,5.9,0.8,8.9,0.9c0-0.1-0.1-0.2-0.1-0.3
		c-4.2-3-3.7-8.1-5.2-12.2l1.1-0.6c-0.4-1.7-2.7-1.7-3.1-3.3c3-2.2,4.2,2.2,7.2,1.9l-2.1-2.2c-4.7-4.6-12-7.3-11.3-15.9
		c0.1-0.8-1.4-1.7-2.2-2.6c-3.4-3.7-8.3-6-9.7-11.3c-0.3-1.2-1.3-1.8-2.5-0.6c0,0.1-0.1,0.1-0.1,0.1v1.9c0,0,0,0,0,0
		C10.9,197.1,9.4,202,9.1,206.9z"/>
	<path fill="#DAC7AC" d="M276,334c0.7-0.5,1-0.9,1.1-1.3C276.8,333,276.4,333.5,276,334z"/>
	<path fill="#DAC7AC" d="M238.7,338.4c1.1,0.5,2,2.5,3.4,0.7c1.4-1.8-1.1-1.9-1.6-2.9c-0.1-0.5-0.2-0.9-0.2-1.4
		c6,2.6,6,2.6,13.9,2.3c1.2,0.1,2.4,0.4,3.5,0.8c-1.2-2.7-4.5-6.2-2.6-7.4c2-1.3,4.1,3.2,6.2,5.1c2.1,1.9,3.3,2.3,4.8,3.5
		c-0.5-5.2-5.9-8.4-5.6-14c0.1-1.5-0.3-2.9-0.4-4.4c-0.1-1.5,0.8-4.3,2.8-3.9s0.7,2.6,0.4,4.1c-1.5,7.8,1.4,11.6,9.1,12.2
		c0.8-0.1,1.5,0.1,2.2,0.5c0.2,0.1,0.4,0.2,0.5,0.4h1l0,0c0.8-3.1-2.3-3.6-3.8-4.9c-1.5-1.2-2.4-3.1-2.3-5.1c0,0,0,0,0.1,0
		c0,0,0-0.1-0.1-0.1c-1.9-0.8-1.8-1.3-1.9-4.2c-0.1-2.9,1.3-6.6,1.7-8.2s2-3.7,0.4-5s-3.2,0.8-4.8,1.6c-2.9,1.4-5.6,3.3-7.8,5.7
		c-2.4,2.9-8.9,5-5.2,11.2c0.8,1.3-0.6,2.3-1.7,2.4c-0.3,0-0.5,0-0.8,0c-1.1-0.2-1.9-1.3-1.6-2.5c0.1-1.6,0.6-3.2,0.9-4.8
		c-1.2-1.4-0.7-2-2.9,0.2c-2.2,2.2-2.2,5.3-2.9,8.4c-2.5-4-3.8-3.9-6.1-0.5s-1.8,7.1-0.3,10.7c0,0,0.1-0.1,0.1-0.1
		C237.4,338.3,238.1,338.1,238.7,338.4z"/>
	<path fill="#DBC6AA" d="M336,271c1.1-2.1,2-4.4,3-6.7c-2-1.2-3,2.9-4.5,0.9c-1.5-2-0.4-3.1-0.5-4.8c-0.1-1.7,0.1-2.3,0.1-3.4
		c-1.3-4.7-2.3-5.1-6.3-2.8c-4.1,2.3-8,4.9-11.7,7.8c0,0-0.1,0.1-0.1,0.1c0.4,2.6,5,2.5,4.1,6c5.5-2.3,7.6-8.1,12-11.6
		c3.3,8.1-5.2,13.6-10.6,13.4c-1,0-1.3-0.8-1.4-1.7c0,0,0,0,0,0c-5.2,2.4-6.4,7.6-5.5,12s-1.2,6.6-5.5,6c-2.6-0.4-4.9,0.8-7.3,1.2
		c-1,0.2-1.7,1.2-1.6,2.2c0.1,1,1,1.1,1.8,1.4c3.9,1.2,7.8,2.6,12,2.1l2-4.1c0,0.1,0,0.1,0,0.2c0-2.9,2-3.6,4.5-4.1
		c7.4-1.5,14.1-4.3,18.5-10.9c0,0-0.1-0.1-0.1-0.1C336.1,274.7,334,274.8,336,271z"/>
	<path fill="#DBC6AA" d="M320.1,268.1C320.1,268.2,320.1,268.2,320.1,268.1C320.1,268.2,320.2,268.2,320.1,268.1
		C320.2,268.2,320.2,268.2,320.1,268.1z"/>
	<path fill="#B89F83" d="M350,187.1c0,0,0-0.1,0-0.1C350.1,187,350.1,187,350,187.1c-0.8,2.5-1.6,5.2-4,6.8c-0.1,0-0.1,0.1-0.2,0.1
		l0.2,0.2c-3.1,6.6-8.5,11.5-13.6,16.4c-5.1,4.9-6.9,11.6-11,17c-1.4,1.6-2.9,3.1-4.4,4.5c-0.2,0.7-1.1,1.3,0,2.1
		c1.2,0.8,1.9-0.4,2.4-1.1c4.8-6.2,11.4-10.4,17.1-15.5c1.4-1.3,3.1-4.8,4.9-2.6c1.8,2.2-1.8,3.6-3.2,5.2
		c-5.3,6-10.7,11.9-16.1,17.8c1.4,1.3,2.2,0.8,3.1,0.3c3.6-1.8,6-5.4,7.8-8.1c1.8-2.7,3.5-4.2,4.9,0.4c0.5,1.7,1.1,3.6,3,4.4
		c0,0,0,0,0-0.1c0.4-1.3,0.7-2.5,1.2-3.8c2.1-5.6,0.5-11.9,3.5-17.3c4.4-7.7,6.1-16,6.6-24.7c0,0,0,0,0,0c0,0,0,0,0,0
		C352,188,351.5,187.1,350,187.1z"/>
	<path fill="#E0CAAE" d="M314,293.1c1.2,2.6-0.6,2.9-2.3,2.9h-8.2c-0.1,0.9,0.1,1.2,1.3,1.7c1.2,0.5,2.9,0.5,2.9,2.2s-1.8,2.6-2.9,3
		c-1.1,0.4-2.6,0.8-2.1,2.2c0.5,1.4,2.2,0.8,3.1,0.8c0.9,0,1.9-1,2.8,0.5c-0.6,1.5-2.2,2.5-3.8,2.4c-5.7,0.2-6.9-5.7-10.4-8.4
		c-1.5,1.7,0.4,2.2,0.5,3.3c0.1,1.1-0.3,2.6-1.3,1.7c-3-2.6-4.8,0.7-7.3,0.5c1.8,3.7,5.5,5.1,7.9,8.4c-0.7-0.1-1.3-0.2-2-0.4
		c-1.6-0.7-2.5-2-4.6,0s0.5,3.1,0.8,4.1s-0.7,0.8-1.3,1c0,0,0,0,0,0c2.3,1.5,4.7,2.6,7.8,1.3c-1.5-2.1-4.7-1.1-5-4
		c2.1,0.3,4.2,0.5,6.3,0.6c13.2-0.8,24.1-10.6,26.3-23.6c0.4-2.8-0.9-2.7-2.4-1.6c-3.8,2.6-4.1,0.3-4.1-2.5c0-0.1,0-0.1,0-0.2
		L314,293.1z"/>
	<path fill="#BBA07E" d="M329.6,128.6c2.8,3.5,5.5,6.8,5.3,11.6c0,0,0,0,0,0c3.5,5.8,4.8,12.3,6.1,18.9c-0.1,0.1-0.1,0.1-0.2,0.2
		c2.1,2.9,5.7,4.6,6.6,8.8c0.9,4.2,2.4,1.1,3.5-0.1c1.4-9.7-2.7-18.3-5.2-27.3c-0.5-1.5-0.7-3-0.6-4.6c-1.5-1.9-3.2-3.6-5.2-5.1
		c-3.8-2.9-8.1-4.8-10.8-8.8c0,0,0-0.1-0.1-0.1C325.4,124.6,328.1,126.7,329.6,128.6z"/>
	<path fill="#A98D70" d="M336.5,248.1c-1.7-3.9-3-2.6-4.9-1.1c-1.9,1.5-3.8,3.1-5.7,4.6c-3.1-4-4.3,0.6-6.4,1.3
		c-5.3,1.7-9.5,5.2-13.6,8.9c1.6-4.6,5.8-7.3,7-12c-5.3,5.2-11.3,9.6-15,16.3c0,0,0,0,0,0.1c0.6,0.8,1,1.6,1.4,2.5
		c0.2,1-2,2.4-0.2,3.2c1.8,0.8,2.5-0.9,3.6-1.9c3.9-3.4,8.3-6.1,13.2-7.9c0.1,0,0.1-0.1,0.2-0.1c3.7-2.9,7.6-5.5,11.7-7.8
		c4-2.3,5-1.9,6.3,2.8c2.6-2.4,5.5-1.4,7.9-0.1s0.9,3.9,0.8,5.9c-0.1,2-0.6,2.6,1.1,3.3c0,0,0,0,0,0c0,0,0.1,0,0.1,0
		c1.3-3.1,1.6-6.6,0.8-9.8c0-0.1,0-0.1,0-0.2C343.2,252.1,338.2,252,336.5,248.1z"/>
	<path fill="#C6AE90" d="M40.8,277.9c-1.5-4.5-2.6-9.4-5.6-13.1c-5.7-6.8-8.5-15.5-8-24.3c0.1-1.8-0.2-3.6-1-5.2
		c0-0.1-0.1-0.2-0.1-0.3c-1.5-1.9-4.1-1.7-6-2.9c-0.6,4.2-1.3,8.4-2,12.6c-0.1,1.1-0.3,2.7,0.9,3.1c4,1.3,4.1,4.9,4.5,7.9
		s2,5.5,3.6,8c2.7,4.1,6.6,7.7,5,13.4c0,0,0,0,0,0c1.4,2.1,4.6,3.4,5.9,3.1c0,0,0,0,0,0C39.3,279.9,41.6,280.2,40.8,277.9z"/>
	<path fill="#D9C5AE" d="M345.7,140.7c2.5,9,6.6,17.6,5.2,27.3c-1.1,8.4-1.1,17-6.9,24c0,0.1,0,0.2-0.1,0.3c0,0,0-0.1,0.1-0.1
		l1.8,1.8c0.1,0,0.1-0.1,0.2-0.1c2.4-1.6,3.2-4.3,4-6.9c0,0,0,0,0,0c0.8-2.3,1.6-4.5,2.5-6.8c0.3-0.7,0.5-1.8,1.6-1.6
		c1,0.2,0.8,1.3,0.9,2.2c2.4-16.2,2.2-31.9-9.9-44.9c0,0.1,0,0.1,0,0.2C345,137.7,345.2,139.2,345.7,140.7z"/>
	<path fill="#EDE6D6" d="M235.1,26.9c0,0,0.1,0.1,0.1,0.1c0,0,0,0,0,0c8.8,1.4,17.1,3.7,22.4,11.7c0.9,1.3,2.4,2.2,3.6,3.3
		c0.1,0.1,0.2,0.2,0.4,0.3c5.1,1.9,8.1,5.7,10.3,10.4c0.1,0.1,0.2,0.2,0.3,0.3c1.6,1.6,3.7,2.6,5.9,3.1c0,0,0,0.1,0.1,0.1
		c3.2,2.2,6.6,4.1,6,8.8l0.2,3c3.1-1.4,1.6-4,1.2-5.9s-1.8-3.2-3.2-4.4c-7.9-7.3-16.1-14.2-21.7-23.6c-1.7-2.7-4.2-4.8-7.2-6
		c-9.1-3.8-19.1-3.2-28.4-6.2c0.1,0.1,0.1,0.2,0.2,0.2C227.8,25.3,231.7,25.4,235.1,26.9z"/>
	<path fill="#9E7F62" d="M275.7,68.4c-1.8-1.4-4.5-3.3-6.1-1.5c-3.3,3.6-6.7,2.2-10.2,1.3c-1.4-0.3-2.5-1.1-4.2-0.7
		c-5.4,1.2-10.8,2.8-16,4.7c-1.7,0.7-1.9,1.6-1.2,3c1.4,0.1,2.8-0.3,4-1.1c0,0,0,0-0.1,0c0.1,0,0.1,0,0.2,0c0.6-0.3,1.2-0.5,1.7-0.4
		c8.5-2.1,17.4-2.6,26.1-1.4c0,0,0,0,0,0c0,0,0.1,0,0.1,0c3.7-0.3,6.5,1.5,9.1,3.9c0,0-0.1,0.1-0.1,0.1c1.4,1.1,3.4,1.1,4.8-0.1v0
		v-5.9c0,0,0,0,0,0C280.7,71.3,277.5,69.8,275.7,68.4z"/>
	<path fill="#C1A88A" d="M207.9,21.4c-6.5,2.6-12.8,5.8-20,6.1c-1.2,0-3.9,0.1-3.5,2.5c0.4,2.4,2.5,1.9,4.4,1.8
		c3.5-0.2,6.4-2.1,9.8-2.8c6.6-1.4,13.2-3.3,19.8-4.7c2.5-0.5,2.7-1.4,1.8-3.3v0c-2.6-1.4-5.1-2.7-8.1-2.8c0,0,0,0,0,0
		C210.8,19.4,209.8,20.6,207.9,21.4z"/>
	<path fill="#EDE3D1" d="M277.3,318.7c-1.9,3.4-4.5,4.2-7.3,5.3c0,0,0,0-0.1,0c-0.1,2,0.8,3.9,2.3,5.1c1.5,1.3,4.6,1.8,3.8,4.9v0
		c0,0,0,0,0,0c0.3-0.5,0.7-0.9,1.1-1.3c2.8-2.6,6.8-2.7,10.2-4.4c0.5-0.1,0.9-0.4,1.3-0.7c0.4-0.5,1.1-0.5,0.9-1.6
		c-0.2-1.1-1.2-0.8-2-0.7c-1.1,0.3-2.3,0.5-3.4,0.6c-1.9,0.1-3.6-1.2-3.9-3.1c-0.4-1.8,1.2-2.6,2.6-3.1c1-0.3,2.1-0.6,3.2-0.8
		c0,0,0.1,0,0.1,0C283.2,316.5,279.2,315.3,277.3,318.7z"/>
	<path fill="#C5AB8D" d="M342.8,262.8c0.1-2,1.6-4.6-0.8-5.9s-5.3-2.3-7.9,0.1c0,1.1-0.2,1.7-0.1,3.4c0.1,1.7-1,2.8,0.5,4.8
		c1.5,2,2.5-2.1,4.5-0.9c-1,2.3-1.9,4.6-3,6.7c-2,3.8,0.1,3.7,2.9,3.1c0,0,0,0,0,0c1.8-2.6,5.2-4.2,5-8c0,0,0,0,0,0
		C342.2,265.4,342.7,264.8,342.8,262.8z"/>
	<path fill="#EDE3D1" d="M272.4,333.1c-7.7-0.6-10.6-4.4-9.1-12.2c0.3-1.5,1.6-3.7-0.4-4.1s-2.9,2.4-2.8,3.9
		c0.1,1.5,0.5,2.9,0.4,4.4c-0.3,5.6,5.1,8.8,5.6,14l5.8,5.1c-2.6,1.9-4.7-0.6-6.9,0c0,0,0,0,0,0c2.5,3.4,7,2.4,8.9,1.3
		c1.9-1.1-0.3-4.4-1.6-6.4c-2.4-3.7-0.6-4.7,2.8-5c-0.2-0.2-0.4-0.3-0.5-0.5C273.9,333.2,273.1,333,272.4,333.1z"/>
	<path fill="#E5DCCB" d="M125.4,332.1c-1.2-2.6-4.7-4.9-7.1-4.1c-5.4,1.7-10.7,0.7-16.1,0.9c0,0,0,0,0,0l-1,0.2
		c0.3,0.2,0.7,0.4,1,0.5c3.1,1.3,6.4,0.1,9.7,0.5c1.6,0.2,3.7-0.3,3.9,2c0.1,1.7-1,3.3-2.7,3.8c-0.7,0.1-1.3,0.2-2,0.2
		c-0.9,0.1-1.6,0.5-1.6,1.5s0.8,1.3,1.7,1.4c2.6,0.3,5.3-0.2,7.7-1.4c1.2-0.5,2.5-2.1,3.9-0.8c1.4,1.3,0.6,2.7,0.3,4.1
		c0,0,0,0.1,0,0.1C127.2,338.9,126.6,334.7,125.4,332.1z"/>
	<path fill="#E3D7C5" d="M311.8,104c0,0,0.1,0.1,0.1,0.1c0.1,0.1,0.1,0.1,0.2,0.2c4.4,3.6,7.5,8.6,12.7,10.8
		c-0.1-0.1-0.1-0.2-0.2-0.3c-4.6-7.2-10.4-13.3-16.1-19.6c-3-3.4-6.7-6.3-11.5-7.2c0.1,0.1,0.3,0.2,0.4,0.3
		C303.1,92.7,306.1,99.6,311.8,104z"/>
	<path fill="#BFAF97" d="M271.9,344.2l-5.8-5.1c-1.5-1.2-2.7-1.6-4.8-3.5c-2.1-1.9-4.2-6.4-6.2-5.1c-1.9,1.2,1.5,4.7,2.6,7.4
		c0.1,0.1,0.1,0.3,0.2,0.4c1.9,2.5,4.3,4.5,7.1,5.9h0C267.2,343.6,269.3,346.1,271.9,344.2z"/>
	<path fill="#E7D9C6" d="M8.1,168.1c0.1-0.1,0.2-0.2,0.3-0.3c0.7-2.9,2.3-5.5,3.6-8.1c0-0.2,0-0.4,0-0.6c1.6-2.7,2.2-5.1-1.9-6
		c-4.4,7.5-4.9,15.4-3.6,23.5c0.2,1,0.3,1.9,0.5,2.9c0,0.2,0.1,0.4,0.1,0.5l0-0.3L8.1,168.1z"/>
	<path fill="#D9AC8B" d="M244.1,380.9c-1.6,3.4-1.1,7.4,1.3,10.3c3,3.4,4.3,8.4,5.6,11.4s3,4.7,6.3,4.4c-6-7.7-9.4-16.8-13.1-25.8
		C244.1,381.1,244.1,381,244.1,380.9z"/>
	<path fill="#E5DCCB" d="M120.9,347c1.1-1.4,1.5-3.3,1.1-5c-2,0.5-3.2,2.3-4.7,3.5c-1.5,1.2-3,2.8-1.8,4.7c1.2,1.9,3,0.6,4.5,0.1
		c0.8-0.3,1.5-0.7,2.2-1.1C121,348.9,119.7,348.4,120.9,347z"/>
	<path fill="#D2B496" d="M354.1,178.6c-1.1-0.2-1.3,0.9-1.6,1.6c-0.9,2.3-1.7,4.5-2.5,6.8c0,0,0,0.1,0,0.1c1.5,0,2,0.9,2.2,2
		c0,0,0,0,0,0c1.8-2.3,2.8-5.1,2.9-8c0-0.1,0-0.2-0.1-0.3C354.9,180,355.1,178.8,354.1,178.6z"/>
	<path fill="#DCAC8A" d="M231.3,169c0.1,0.2,0.1,0.3,0.2,0.5c-17.7,10.5-37.6,14.8-58.2,20.5c2.1-3.9,5.4-2.7,7.4-4.4
		c-3.4-1.5-7.8-1.9-10.9,0.6c-3.7,2.7-8.1,4.3-12.6,4.7l0,0l8.6,0.3c0,0,0.1,0.1,0.1,0.1l0.3,0l4.1-0.6c8.5-1.3,13.3,2.6,13.7,11.3
		c0,1.2,0.2,2.3,0.6,3.4c1.9,5.4,1.1,11.1,2.3,16.6c0.4,2-0.9,4.1-2.9,3.9c-4.9-0.5-2.5,1.7-1.6,3.5c0.9,1.8,2.2,3.9,1.3,6.1
		c-0.8,1.7-0.5,3.7,0.8,5c1.1,1.3,1.4,2.7-0.2,3.9c-1.6,1.2-3,0.3-4-0.7c-2.6-2.5-4.5-5.4-2-9.2c0.9-1.4,1-3.5,0-4.6s-1.4-0.3-3.7,0
		c-2.3,0.3-4.7,1.8-6.8,0.7c-7.1-3.6-14.6,1.7-20.5,1.7c-5.9,0-12.7,0.2-18.8,2.8c-2.1,0.9-4.7,0.7-5.3,3.5
		c-0.6,2.8-0.7,5.8,2.4,7.5c1.7,1,3.2,2.4,4.4,4c2.9,3.4,6.1,7.5,10.6,7.5c3.4,0.1,6.7,0.6,9.9,1.6c1.3,0.4,3,0.1,3.1,1.9
		s-2,2.8-2.8,3.1c-0.8,0.3-2.2-0.2-2.2,1.7c2.5,0.7,5.1,1.6,7.4,2c3.9,0.6,9.5,3.1,12.2-1.4c2.7-4.5,6.1-7.8,11.5-8.7
		c1.1-0.2,2.1-2.1,3.5-1c1.4,1.1,1.3,1.6,0.4,4.2c-0.9,2.6-2.4,5.2,1.5,6.5c3.9,1.3,8.5,3,12.1,1.4c3.6-1.6,9.1-3,6-9.5
		c-0.6-1.4,0.1-2.2,1.7-3.3c1.6-1.1,2.3,0.2,3.1,1.3c2.2,3,4.8,3.9,8.2,7.1c3.4,3.2,6.4,4.5,9-0.8c0.3-0.6,1.7-1.2,2.1-1
		c3,1.5,4.3-0.6,5.4-3c3.1,3.9,5,5.5,6.2,1.8c1.2-3.7,3.1-3.5,5.9-2.4c1.1,0.4,2.4,0.3,3.3-0.5c5-4.2,11.6-6.3,15.4-12.3
		c2.2-3.5,1.1-6.2-1.3-7.7c-2.4-1.5-5-3-8.1-3.4c-10.4-1.2-20.8-2.7-31.2-3.6c-2.5-0.2-7-0.1-5.3,5.2c0.4,1.3-0.9,2.3-2,2.3
		c-1.1,0-2.2-0.5-2-1.7c0.9-4.8-2.1-4.2-5.1-4c-4.8,0.3-6.4-1.6-5.6-6.4c0-1,0.1-2,0.2-3c1.7-5.2-2-10.2-0.8-15.1
		c1.7-7.2,6.2-13.4,8-20.7c0.8-3.4,4.6-1.7,7.1-2c0.3,0,0.6-0.1,0.9-0.1c0.5,0,0.9,0.1,1,0.5c0,0.1,0.1,0.3,0,0.5
		c-0.2,1.2-1.1,3,1,2.7c2.1-0.3,1.8-2.2,1.2-4c-1.5-4.4,1.8-4.8,4.8-6.1s4.2,0.9,4.8,3.4c0,0.1,0,0.2,0.1,0.3
		c0.4,1.8,2.2,2.9,3.9,2.5c1.1-0.1,2.5-1.8,1-2.3c-4.5-1.4-2.6-4.9-1.6-6.4c1-1.5,0.7-1.1-1.2-3.4c-1.9-2.3-1.3-3.8,1.6-4.6
		c3.4-0.9,6.3-3,8.2-6C238.5,164,235.2,167.1,231.3,169z M220.3,258.6c0.4-0.6,2.5-4.2,4.8-5.3c2.3-1.1,2,0.3,1.5,1.1
		c-1.2,1.9-2.6,3.7-4,5.4C220.9,260,219.9,259.2,220.3,258.6z"/>
	<path fill="#CE9070" d="M171.1,198C171.2,198,171.2,198,171.1,198c-4.8,1.2-5.1,1.9-1.8,5.3c3.3,3.4,1.5,5.3,2.5,7.9
		c1,2.6-0.8,2.1-2.1,1.6c-1.3-0.5-2.5-0.2-2.7,1.5c-0.1,0-0.1-0.1-0.2-0.1c0,0,0,0.1,0.1,0.1c0.1,0.8,0.2,1.5,1,1.9c0,0,0,0,0,0
		c1.5,0.5,2.7,1.4,2.6,3.1c-0.1,1.7-2.2,1.4-3.5,2c-4.6,1.9-9.9,1.6-14.4,4c-0.8,0.4-4.2,2.5-5-1.2c0,0,0-0.1,0-0.1l0,0l-1.4,0.1
		c0-0.1-0.1-0.2-0.1-0.3c0,0,0,0,0,0c-0.9,1.8-3.9,1.8-6.2,1.5c-7.9-1-15.3-4.6-20.9-10.2c-3-2.7-6.6-4.9-8-9c0,0,0,0,0,0h-2.8
		c0,0,0,0-0.1,0.1c0,0-0.1,0.1-0.1,0.1c-0.9,1.7-2.4,2.1-4.1,2c-1.6-0.1-3.1,0.2-3.9,1.8c2.1,4,3.8,7.8-1.3,11.2
		c-1.2,0.8-1.5,3.3-1.6,5.1c-0.1,1.8,0.8,4.4,3.9,3.1s4,0,3.4,2.8c-0.6,2.3-0.3,4.7,0.8,6.7c1.3,2.2,1.9,5.1-0.8,6.6
		c-2.7,1.5-5-0.8-5.9-2.9c-2.3-5.6-7.6-9.6-8.8-15.8c-0.1-0.7-1-1.2-1.5-1.7c-0.1,0-0.1,0-0.2,0v5.3c-3.2-4-17.7-2.3-21.4,2.1
		c4,2.3,8.3-0.1,13.8,0.8c0.2,0,0.5,0.1,0.7,0.1c-0.2,0.1-0.5,0.2-0.7,0.3c-6.2,2.4-11.7,2.7-16.7,4.6c4.4,0.9,8.7-1.5,13-0.4
		c0,0,0.1,0,0.1-0.1c2,0,3.1-1,4.3-2.7s5.8-3,7.2,0.2c3.1,7.2,5.8,14.6,8.8,21.8c1.6,3.9-0.8,3.3-3.1,2.8c0,0,0,0.1,0,0.1
		c3.3,2.3,7.1,4.2,9.9,7.1c4.9,5.1,11.1,9.5,13,16.9c-0.1-0.1-0.2-0.2-0.4-0.3c0.1,0.1,0.2,0.2,0.3,0.3l2.1,6c0,0.1,0.1,0.1,0.1,0.2
		c3.2,4.4,3,9.9,2.2,14.2c-0.9,4.4,1.9,9.5,7.8,9c5.9-0.5,11.3,5.8,10,11.6c3-1.2,4.4,1.4,6.3,2.8c8.9,6.6,17.1,14.3,28,17.9
		c-4.9-3.3-8-8.7-12.7-12.4c-1.4-0.9-2.5-2.3-3-3.9c-1.2-6-5.2-10.8-8.3-15.3c-6.9-9.9-9.5-20.8-11.4-32.1c-0.3-1.5-0.9-3-0.6-4.8
		c1.7-9.5-4.1-16.8-10-22c-5.9-5.2-10.6-11.1-11.8-17.6c-1.2-6.5,4-12.7,10.8-10.7s15.2,1.5,20.7,1.6c5.5,0.1,11.2-3,16.9-2.2
		c9.6,1.2,17.2-8.5,16.1-16.6c-0.4-3.3-2-6.3-4.3-7.2s-3-2.5-3-4.7c0,0-0.1-0.1-0.1-0.1L171.1,198z"/>
	<path fill="#CF9372" d="M271.6,267.6c0.7-1.6,1.6-4.4,4.6-2.5c0,0,0,0,0,0c7.3-5.5,9.5-14.3,13.7-21.8c1.4-2.7,2.3-5.7,2.5-8.8
		c0.2-3.1,1.9-5.9,4.6-7.4c-1.9-0.7-1.6-3.2-3.8-2.9c0,0,0,0,0-0.1c-3.1,7.6-5.3,15.7-11.2,21.7c-0.6,0.7-0.9,2-2.1,1.7
		c-1.2-0.3-1.9-1.5-1.6-2.7c0,0,0,0,0,0c1-5.5-0.5-11.7,5.2-15.8c2.9-2.1,3.2-5.3,1-8.4c-1.7-2.3-2.5-5.1-2.3-7.9
		c0-2.3,1.2-2.8,3-2.9c0-0.1,0-0.2-0.1-0.2c-1.3-1.8-4.7-4.5-5.9-7.6c0,0-0.1-0.1-0.1-0.1c-1.2,2.4,0,4.5-3.2,5.3
		c-3.2,0.8-3.4,4.2-5.7,5.7c0,0,0,0,0,0.1c-5.9,8.3-15.3,13.3-25.4,13.5c-1.9,0.1-3,0-3.8-1.9c-0.7-1.7,0.7-2.4,1.7-3.2
		c0-0.2,0-0.3,0-0.5c-2.1-0.4-4.6-1.3-6.8-0.8c-2.4,0.5-2.7,1.6-0.3,2.8c0,0,0,0-0.1,0c1,0.7,1.6,1.8,1.7,3.1c0,0,0,0,0,0
		c2.3,1.5,4.9,2.7,7.7,3.3c6.1,0.7,12.2-0.5,17.6-3.3c3.3-1.7,6.1-0.1,7.1,2.5c2.2,5.9,3.2,12.4-0.8,18.1c-3,4.1-6.4,8-10.1,11.6
		c-5.8,5.8-12.4,10.9-13.8,20c-0.5,3,0.6,6,1.8,7s2.2,2.1,2.3,4.1c0.1,5.7,1.3,11.5-1.8,16.9c-0.4,0.9-0.3,2,0.1,2.9
		c0.6,1.2,0.2,3.4,2.1,3.5c1.6,0,3-1,3.6-2.4c1.7-3.5,4.3-6,5.8-9.8c1.5-3.8,4.5-6.8,5.3-10.9c0.7-4,2.1-7.9,4-11.5
		C269.2,274.6,270.1,271,271.6,267.6z"/>
	<path fill="#D9AC8B" d="M228,406.8c-0.1-4.4,4.2-9.5-1.7-13.2c-0.1-0.1-0.2-0.3-0.1-0.5c1-4.4-2.7-7.7-2.7-11.9
		c0-1.7-1.6-3.6-3.5-2.8s-3.2,2.3-1.5,4.7c0.6,0.8,1.8,1.9,0.4,3c-0.6,0.5-1.6,0.6-2.3,0.2c-0.1,0-0.3-0.1-0.4-0.2
		c-1-0.6-1.3-1.8-0.7-2.7c0.7-1.6,0.2-2.8-1.4-3.1c-0.1,0-0.3-0.1-0.4-0.1c-1.6-0.2-3.1,1-3.3,2.7c-0.2,4.7-3.3,7-6.6,9.3
		c-1.6,1.1-2,2,0.2,3.1c0.4,0.1,0.8,0.5,1,0.9c0.5,0.9,0.1,2-0.7,2.4c-1.2,0.9-1.9-0.3-2.6-1.4c-0.7-1.1-1-2.5-2.7-2.8
		c-2.1,0.7-1.8,2.1-1.3,4c1.2,5.8,0.6,13-1.8,16.9c-2.4,3.9-2.1,7.4-0.8,10.2c1.3,2.8,2.4,5.1,5.3,6.6c2,1,3.1,3.3,2.7,5.5
		c-0.3,2.1,0.7,4.4,1.2,5.8c0.5,1.4,2.3,2.5,3.1,1.4c2.5-3.6,6.5-3.8,9.9-5.2c6.1-2.6,8.6-8.5,13-12.6c2.8-2.7,3.1-7.1,0.6-10.1
		C228,413.7,228.1,411.2,228,406.8z"/>
	<path fill="#D7B897" d="M257.1,152.2h1c0.1,0,0.1-0.1,0.2-0.1c-0.1,0-0.1,0-0.2,0c2.4-3.6,6.3-5.9,9.1-9.2
		c2.8-3.3,7.8-7.6,9.9-12.8v-1.9c-1-1-1.3-0.6-2.1,0.4c-5.8,8.2-12.4,15.7-19.9,22.4c-0.1,0-0.1-0.1-0.2-0.1
		c0.1,0.1,0.1,0.1,0.2,0.2c-2.1,1.6-4.5,2.6-7,3c0,0,0,0,0-0.1c0,0.1-0.1,0.1-0.1,0.2c-1.9,3.3-4.3,5-8.6,4.3
		c-2.7-0.4-4.9,2.6-7.5,3.5c-9.1,3.1-18.2,6-27.4,8.8c-1.3,0.3-2.6,0.4-3.9,0.4c-0.8,0-1.8,0.2-2.1-0.8c-0.3-1,0.5-1.5,1-2.1
		c2.3-3.1,5.4-5.3,8.5-7.5s1.9-2.6-1-2.5c0-0.1,0-0.1,0.1-0.2c-7,3.6-13.5,8.1-20.7,11.3c-3.4,1.6-6.8,3.1-10.2,4.5
		c-0.9,0.5-1.8,1-2.6,1.7c-4,3.1-8.1,3.8-12,7.7c0.1,0.1,0.2,0.2,0.3,0.3c6.5-0.7,12.3-0.9,17.8-1.9c8.4-1.6,17.1-1.1,25.4-3.8
		c8.3-2.7,14.8-4.6,21.6-8.6c1.4-0.9,3.4-3.2,4.7-0.2c3.9-1.9,7.3-5,11.8-5.9c5.7-2.3,9.1-7.5,13.8-10.8c0,0,0.1,0,0.1,0.1
		C257,152.3,257,152.3,257.1,152.2z"/>
	<path fill="#D29B79" d="M272.1,190.1c-8.1-2.8-15.8-3.4-22.9,1.1c-1,1.1-3.3,2.7-0.4,3.5c9.2,2.3,18.5,5.6,28.2,2.4
		c0.1,0,0.1,0.1,0.1,0.1c0,0,0,0,0-0.1c-1.9-6.2-3.9-12.5-5.5-18.8c-0.8-2.7-1.3-5.4-1.4-8.2c0,0,0-0.1,0-0.1c0,0-0.1,0.1-0.1,0.1
		c-3-5.7-1.5-12.1-2.9-18c0-0.1,0-0.2,0-0.3c0,0.1-0.1,0.2-0.1,0.3c-2.9-2.2-5.9,0.4-8.8,0c-0.1,0-0.1,0.1-0.2,0.1h-1
		c0,0.1-0.1,0.1-0.1,0.2c-2.1,4-2.3,8.7-4.7,12.7c-0.8,1.3-1.8,3.6-0.3,4c4,1,5.3,6.1,7.9,6.4c4.7,0.6,5,4.5,7.5,6.7
		c0.8,0.8,1.2,3.6,0.6,4.1C269.1,187.3,270.9,187.5,272.1,190.1z"/>
	<path fill="#A9734C" d="M145.5,327.9c-1.9-1.4-3.3-4-6.3-2.8c2.3,7.8,1.1,15.8,1.3,23.7c0,0.1,0,0.2,0,0.2c0,0,0,0,0,0
		c0.6,1.5,1.8,2.5,3.4,2.8c10.5,2.5,20.9,2.2,31.3-0.1c1.6-0.4,4.3-0.6,3-3.7c0,0,0-0.1,0-0.1c-1.7,0.1-2.7-1.3-4-2
		c-0.2-0.1-0.5-0.2-0.7-0.2C162.6,342.2,154.4,334.4,145.5,327.9z"/>
	<path fill="#611F33" d="M212.7,311c-1.2,0.1-3.5,1.4-2.1-1.7c0.5-1.2,1.7-2,2.3-3.2c1.6-3.2,0.2-5.6-3.2-4.9c-10,2-20,0.8-30,0.8
		c-5.8,0-6,0.3-3.5,5.4c1.3,2.7,3.3,4.9,5.8,6.6c1.3,0.9,3.7,1.4,2.1,4C195.4,322.3,205.1,319.9,212.7,311z"/>
	<path fill="#480F1F" d="M182,314c-2.5-1.7-4.5-3.9-5.8-6.6c-2.5-5.1-2.3-5.4,3.5-5.4c10,0,20,1.2,30-0.8c3.4-0.7,4.8,1.7,3.2,4.9
		c-0.6,1.2-1.8,2-2.3,3.2c-1.4,3.1,0.9,1.8,2.1,1.7l3.7-5.5c1.8-2.3,5.1-4.3,5-7s-3.1-2.2-6.8-5.6c-3.7-3.4-8.5-7.2-13.2-6.6
		c-6.9,1-13.6,0-20.3,0.7c0,0.1,0,0.1-0.1,0.2c0,0,0.1,0,0.1,0c-0.9,1.9-0.4,2.9,1.9,2.4c7.6-1.5,15.1,0,22.6,0.6
		c2.1,0.2,3.7,1.9,4.8,3.4c1.1,1.5-0.3,3.8-2.6,4.4c-4.9,1-9.8,1.4-14.8,1.1c-4.5-0.1-9,0-13.4-0.4c-2.7-0.2-5.2-1.2-4.5-4.9
		c0.3-1.2-0.3-2.4-1.5-2.7c-0.2-0.1-0.4-0.1-0.6-0.1c0.1-0.1,0.3-0.3,0.4-0.4c-0.1,0.1-0.3,0.2-0.4,0.3c-2.1,1.6-5.1,3.9-6.4,4.7
		s-2.2,1.9-1.4,3.2c4.7,8,9.3,16.1,18.9,19.2C185.7,315.4,183.3,314.9,182,314z"/>
	<path fill="#9A735D" d="M218.5,199.1c1.7,0.2,4.2-1,4.9,0.9s-2.3,1.6-3.4,2.8c-0.2,0.2-0.4,0.4-0.6,0.7c-1.2,2.7-5.5,5.6-3.1,8
		c2.4,2.4,3.9-2.6,5.8-4.2c2.9-2.5,6.1-4.5,9.6-6c1.3-0.5,3.4-1.1,3.9,0.8c0.5,1.9-1.8,1.7-3,2c-0.7,0.1-1.2,0.5-1.4,1.2
		c0,0,0,0,0.1,0c2.2,0.1,4.6,1.7,6.2-1.3c0-0.1,2.4-0.8,3.9,0.3c0.3,0.2,0.7,0.4,1,0.6c0.7-0.1,1.3-0.2,2-0.2
		c0.3-0.3,0.6-0.7,0.8-1.4c0,0,0.1,0,0.1,0c-0.1-3,1.4-4.1,4.5-4.3c6.1-0.4,11.6,1.6,17.3,3.3s5.4,3.5,3.4,8.4
		c-0.2,0.8-0.3,1.5-0.3,2.3c2.3-1.5,2.5-4.9,5.7-5.7c3.2-0.8,2-2.9,3.2-5.3c0,0,0-0.1,0.1-0.1c-1.1-3.1-1.2-3.3-2-4.7
		c-0.1,0-0.1-0.1-0.1-0.1c-9.7,3.2-19-0.1-28.2-2.4c-2.9-0.8-0.6-2.4,0.4-3.5c-1.3-0.2-2.6,0.2-3.7,1c-7.6,5.1-16,6.6-25,5.9
		c-2-0.2-4.2,0-6.2,0l0.7,0.9c0.1,0.1,0.1,0.1,0.2,0.2C216.3,199.1,217.4,199,218.5,199.1z"/>
	<path fill="#611F33" d="M173.6,291.1c1.2,0.3,1.8,1.5,1.5,2.7c-0.7,3.7,1.8,4.7,4.5,4.9c4.4,0.4,8.9,0.3,13.4,0.4
		c5,0.3,9.9-0.1,14.8-1.1c2.3-0.6,3.7-2.9,2.6-4.4c-1.1-1.5-2.7-3.2-4.8-3.4c-7.5-0.6-15-2.1-22.6-0.6c-2.3,0.5-2.8-0.5-1.9-2.4
		c0,0-0.1,0-0.1,0c-2.7,0.7-5.5,1.5-7.6,3.4c-0.1,0.1-0.3,0.2-0.4,0.4C173.2,291,173.4,291,173.6,291.1z"/>
	<path fill="#633F2B" d="M220.5,198.1c9,0.7,17.4-0.8,25-5.9c1.1-0.8,2.4-1.2,3.7-1c7.1-4.5,14.8-3.9,22.9-1.1
		c-1.1-2.6-2.9-2.8-4.1-3.8c-0.1-0.1-0.2-0.1-0.2-0.2c-7-2.4-14.1-2.3-21.4-1.1c-4.6,0.7-8.3,3.8-13,4.1c-6.8,0.4-12.8,3-18.5,6.6
		c-0.8,0.6-2.9,2.4-0.8,2.4c0.1,0,0.1,0,0.2,0C216.3,198.1,218.4,197.9,220.5,198.1z"/>
	<path fill="#B98B70" d="M235.5,223c-3.3,2.6-7,1-10.2,0.5c-3.3-0.5-5.1-0.8-7.2-2.3c0-0.1,0-0.2,0-0.2c0,0-0.1,0.1-0.1,0.1
		c-2.3-2-0.1-3.3,1-4.3c3.6-3.7,6.8-8,11.9-10.1c0.2-0.1,0.2-0.9,0.2-1.4c0,0,0.1,0,0.1,0c0,0,0,0,0,0c0,0,0,0,0,0
		c0.2-0.6,0.7-1.1,1.4-1.2c1.2-0.3,3.5-0.1,3-2c-0.5-1.9-2.6-1.3-3.9-0.8c-3.5,1.5-6.7,3.5-9.6,6c-1.9,1.6-3.4,6.6-5.8,4.2
		c-2.4-2.4,1.9-5.3,3.1-8c0.2-0.3,0.4-0.5,0.6-0.7c1.1-1.2,4.1-0.9,3.4-2.8s-3.2-0.7-4.9-0.9c-1.1-0.1-2.2,0-3.3,0.1
		c-0.1,0-0.1,0-0.2,0c0,1.1-0.6,2.2-1.5,2.8c-2.6,2.1-2.2,4-4.5,8.1c-2.3,4.1,1.4,5.5,3.3,7.7c0.3,0.4,0.5,0.8,0.6,1.3
		c-0.1,6.9,4.5,7.1,9.5,6.9c1.8,0,3.9,0.9,5.4,0.3c3.2-1.3,6.4,3.6,9.4-0.2c0,0,0,0,0,0C237.1,224.9,236.5,223.8,235.5,223z"/>
	<path fill="#D5BC99" d="M278.9,298.2C278.9,298.2,279,298.2,278.9,298.2c0.4-8.2,0.7-16.5,1-24.7c0.1-1.7,0.6-3.8-2.1-4.3
		c-2.7-0.5-1.7-2.4-1.9-3.9c0.1-0.1,0.2-0.1,0.2-0.2c0,0,0,0,0,0c-3-1.9-3.9,0.9-4.6,2.5c-1.5,3.4-2.4,7-3.5,10.5
		c1.9,2.3,3.8,4.6,3,8.1c0,0,0.1,0,0.1,0c0.4-0.1,0.7-0.4,0.9-0.7c0.7-0.8,1.1-1.7,2.2-1c1.5,1-0.4,2.4-0.1,3.6c0,0,0,0.1,0,0.1
		c0.1,0.5,0.2,0.9,0.3,1.4C278.9,290.9,277.5,295.4,278.9,298.2z"/>
	<path fill="#A98A6A" d="M266.5,298.8c7.4-2.8,7.6-2.8,8.2,5c0.2,3.2,0.4,3.2,3.3,1.3c0,0,0,0,0,0c0.2-1.7,1-4.4,1-6.7
		c0-0.1,0-0.1,0-0.2c0,0,0,0,0,0c-1.5-2.8-0.1-7.3-4.5-8.6c-0.1,0-0.2-0.1-0.3-0.1c-0.1,0-0.1-0.7-0.1-1.2c0-0.1,0-0.1,0-0.2
		c-1.4-0.5-1.9,1.6-4,0.8c-2.1-0.8-4.2,2-3.7,3.3c1.4,3.9-2.1,4.7-3.4,6.8c0,0,0.1,0.1,0.1,0.1C264.3,300.5,265.4,299.2,266.5,298.8
		z"/>
	<path fill="#563621" d="M165.8,191.2l-8.6-0.3l-3.9,1.3c-0.1,0-0.2,0-0.3,0c-1.5,1.1-3.7,0.3-5,1.8l-0.2,0.1c0.1,0,0.1,0,0.2,0
		c2,2.8,5,2.7,8,3c5.1,0.5,10.2-0.9,15.2,0.9l1.6-0.2l0.1,0c-0.5-3.9-4.3-4.4-6.8-6.3c-0.1-0.1-0.2-0.1-0.2-0.2
		C165.8,191.3,165.8,191.2,165.8,191.2z"/>
	<path fill="#AB7052" d="M203.8,271.1c1.6-0.2,3.8-0.2,3.9-1.9c0.1-1.7-1-2.1-2.8-1.9s-4.1,0.8-4.2,2.6S202.7,270.8,203.8,271.1z"/>
	<path fill="#CAAD8F" d="M92.1,258.1c-4.8,0.5-7.9-3.2-11.3-5.4s-7.8-3.9-11.9-0.2c-0.5,0.5-1.5,0.4-2.4,0.5
		c-0.1,0.1-0.1,0.1-0.2,0.2c-0.3,4.5-1.4,9.1-0.8,13.4c1.5,10.6,7.6,19.5,11.6,29.2c0.3,0.8,2.2,1.2,1.3,2.4
		c-0.9,1.2-2.4,1.1-3.7,0.7c-1.3-0.4-3.5-1.4-3.6-1.2c-2.6,4.5-3.4,0.9-5-0.9c-1.6-1.8-2.7-1-2.9,1c-0.2,1.3-0.1,2.6,0.3,3.9
		c1.9,6.1,9,10.4,16.9,10.4c3.4,0,10.3-5.8,11.8-9.9c0,0-0.1,0-0.1-0.1c-1.1,0.3-2.2,0.6-3.3,0.8c-1.9,0.2-3.9,0.4-4.5-2
		c-0.6-2.4-0.2-3.9,2.1-5c2.3-1.1,3.7-1.6,4.3-3c-10.8-6.9-12.1-18.1-14.4-29.1c6,2.1,8.8,8,14.8,11.1c0,0,0-0.1,0.1-0.1
		c-1.8-4.9-6.9-6.4-7.8-11c7.6,1.1,17.9,16.4,18,26.1c1.3-0.4,1.2-2.8,2.5-2.5c1.3,0.3,1.7,2.1,2.2,3.1c0.5,1-0.5,2.5,1.6,3.5
		c-1.6-5.9-0.3-11.8-2.8-17.2c-0.4-0.7-0.8-1.7,0-2.2c0,0,0.1,0,0.1-0.1c1.1-0.5,2.3,0,2.8,1.1c1.6,4.2,6.1,5.3,9,8.1
		c0.1,0.1,0.2,0.2,0.4,0.3c-1.9-7.4-8.1-11.8-13-16.9c-2.8-2.9-6.6-4.8-9.9-7.1c0,0,0-0.1,0-0.1c0,0,0,0,0,0L92.1,258.1z"/>
	<path fill="#B59778" d="M83.3,263.9c0.9,4.6,6.1,6.1,7.8,11c0,0,0,0.1,0.1,0.1c0,0-0.1,0-0.1-0.1c-6-3.1-8.8-9-14.8-11.1
		c2.3,11,3.6,22.2,14.4,29.1c-0.6,1.4-2,1.9-4.3,3c-2.3,1.1-2.7,2.6-2.1,5c0.6,2.4,2.6,2.2,4.5,2c1.1-0.2,2.2-0.5,3.3-0.8
		c0,0,0.1,0,0.1,0c5.9-1.8,7.2-7.1,9.1-12.1l0,0C101.2,280.3,90.9,265,83.3,263.9z"/>
	<path fill="#B89A7A" d="M29.2,240.1C29.2,240.1,29.2,240.1,29.2,240.1C29.2,240.1,29.2,240,29.2,240.1L29.2,240.1z"/>
	<path fill="#B89A7A" d="M68.9,252.5c4.1-3.7,8.5-2,11.9,0.2s6.5,5.9,11.3,5.4c-1.4-3.9-5.6-3.7-8.4-5.6c-2.8-1.9-3.7-3.1,0.2-4.5
		c2-0.7,3.7-2.2,3-4.5c-0.7-2.3-2.9-0.4-4.3-0.3c-4.8,0.4-9.5-0.1-14.3-0.2c-1,0-2.3,0-2.3-1.2c0-1.1,1.2-1.1,1.9-1.6l-15.9,2
		c-0.6,8.2-4.5,2.2-7,1.5c-1.5,1.3,1.1,1.9,0.2,3c-0.9,1.1-4.8-3.5-4.1-6.6l-11.7-1.9l-0.2,0v1.8c4.4,5.2,10.1,9.2,16.5,11.6
		c4.9,1.8,5.9,0,6.4-3.9c0.1-0.6-0.1-1.3,0.7-1.6c0.1,0.2,0.2,0.3,0.2,0.5c0.4,7.3,0.4,7.3,7.1,4.5c1.8-0.8,3.1-1,4,1h0l2,1
		c0.1,0,0.3,0,0.4-0.1C67.3,252.9,68.4,253,68.9,252.5z"/>
	<path fill="#CDB194" d="M60.1,251.1c-6.7,2.8-6.7,2.8-7.1-4.5c0-0.2-0.1-0.3-0.2-0.5c-0.8,0.3-0.6,1-0.7,1.6
		c-0.5,3.9-1.5,5.7-6.4,3.9c-6.4-2.4-12.1-6.4-16.5-11.6c0,0.1,0,0.1,0,0.2c0.5,3.4,1.3,6.8,2.2,10.1c0.6,1.7,0.5,5.5,4.5,3.4
		c1.1-0.6,1.7,0.5,2.2,1.4l4.9,8.6c0.5,0.9,1.3,2.4,1.9,2c3.8-2.9,5.7,0.9,8.2,2.2c1.7-1.3-0.6-4.7,1.1-4.4s1.6,1.5,2.5,2.9
		c0.9,1.4,0.6,4.3,2.5,3.9c1.9-0.4,0.7-3.2,0.9-4.9c0.2-1.8,0.2-3.7,0-5.5c-0.5-3.2,1.1-6.4,4-7.8l0,0
		C63.2,250.1,61.9,250.3,60.1,251.1z"/>
	<path fill="#E8D4B7" d="M70,134.1c5.5-2,11.2-3.6,16.5-6.2c5.3-2.6,7.1-5.1,10.6-7.7c0.1,0,0.1-0.1,0.2-0.1l-0.1,0
		c4.7-6.2,11.6-10.6,15-17.8c4.3-9.1,13-14.5,18.8-22.3c0.9-1.2,2.7-1.9,4.5-3.1c0.6,3.7,1.7,6.5,5.3,2.4c0.5-0.6,1.7-1.4,2.6-0.4
		s0.1,1.6-0.3,2.3c-2.4,5.1-4.5,10.3-8.8,14.2c-1.3,1.2-2.5,2.6-2.7,5.7c0.2,0.1,0.3,0.2,0.5,0.3l21-22.3c0,0,0,0,0,0l2-3
		c0,0,0,0,0,0c-1.4-0.1-1.5-1.3-2.9-2c0,0,0,0-0.1,0c0,0,0,0,0,0c-1.5,0.7-3,1.5-4.4,2.3c-1.4,0.9-2.4,1.7-3-0.8
		c-0.6-2.5-3-1.8-4.4-1.2c-3.4,1.3-4.6,0.3-4.2-3.2l0.1-0.1c0,0,0,0,0,0c-1.4,1-1.8,1.6-4.3,3.1c-2.5,1.5-2.7-0.3-2.7-2.1
		c0,0,0,0-0.1,0.1c-2.1,1.7-2.8,4.8-5.6,5.8c0,0.1-0.1,0.1-0.1,0.2c-0.7,0.4-1.1,1.2-1,2c-0.3,0.3-0.6,0.6-0.9,1
		c-3.3,5.7-6.9,11.1-12.4,14.9c-1.9,0-3,1.3-4,2.6c-7.5,9.4-18.8,12.1-29.1,16.6c-8.1,3.5-15.3,1.6-22.8-1.2c0,0,0,0,0,0
		c0,0-0.1,0-0.1,0c-1.5,0.4-4,1.5-4.2,1.9c-0.2,0.4,0.6,1.7,1.2,1.9c5.9,2.3,11.4,6.1,18.1,5.6c1.8-0.1,3.6,0.3,4.1,1.9
		c0.5,1.6-0.3,1.6-2.7,2.9c-2.3,1.3-4.7,2.5-4.5,5.6c0,0.1,0,0.1,0,0.2l4.7,0.1C69.9,134.2,69.9,134.1,70,134.1z"/>
	<path fill="#E7D4B8" d="M153.1,79.1C153.1,79.1,153.1,79.1,153.1,79.1l0.2-0.2c1,0.2,2,0.4,1.5,1.8c-0.5,1.4-1.1,2.7,0.1,3.6
		c1.2,0.9,2.1-1.1,3.3-1.4c0,0,0,0,0,0l1.9-2.8c-1.4-1.1-0.9-2.2-0.1-3.4c4.9-7.1,11.8-12.6,19.7-15.9c2.7-1.2,4.4-4.4,8.5-4.3
		c-3.7,5.3-9.4,7.3-13.1,11.5c0,0,0,0,0,0c4.6-0.8,8.2-3.8,12.1-5.8c1.6-0.8,2.9-2.1,4.8-2.1c0,0,0,0,0,0c0,0,0-0.1,0-0.1l4-2
		c-0.6-1.3-2.4-0.4-3.2-1.5c1.5-1.2,3.3-2.1,5.2-2.4c0,0,0,0,0.1,0c-0.2-1.6,1.5-4.3-2-3.7c-3.6,0.7-6.3-1.9-7.3-3.6
		c-1-1.7-3.8-3.4-4.6-3.5c-0.8-0.1-1.8-0.3-1.6-1.4c0.2-0.6,0.7-1.1,1.3-1.3c3.9-0.9,6.5-4,10.8-4.8c4.3-0.8,8.3-2.6,13.1-4.2
		c-2.2-0.4-4.4-0.3-6.6,0.1c-5.8,0.9-11.6,2.3-17.2,4.2c-1.7,0.5-5.6,3.3-6.7-2.3c-0.8-3.6-5.5,3.2-7.2-1.4c0,0-0.1,0-0.1,0
		c-2.7,0.7-5.1,2.3-6.8,4.5c4.8,5.5,10.7,2.5,16.5,2.7c-9.5,5-18.5,10.5-25.9,18.1c6.6-2.7,13.5-4.3,19.2-8.7
		c1.2-0.9,2.6-1.4,4.1-1.6c1.3-0.2,3.4-0.2,3.7,1.3c0.3,1.5,0.4,2-2.1,3.6c-2.5,1.6-4.8,3.4-7.1,5.1c1.3,1.9,4.4-0.8,4.1,0.9
		c-0.3,1.7-1.7,2.3-2.9,3.1c-6.4,4.3-13,8.5-17.8,14.8c0,0,0,0,0,0L153.1,79.1z"/>
	<path fill="#E7D4B8" d="M183.7,27.4c1.9-0.6,4.7-1.1,4.2-3.7c-0.5-2.6-3.2-2.1-5.3-2.6c-5.8-1.3-11.7-0.8-17.6-1.8
		c-6.7-1.3-13.6,0.4-18.9,4.8c6.1-1.2,12.4-2.3,17.7,2.1c2.2,1.8,6.8,1.3,6.3,5.9L183.7,27.4z"/>
	<path fill="#E7D4B8" d="M140.3,74.4c1.4-0.6,3.8-1.3,4.4,1.2c0.6,2.5,1.6,1.7,3,0.8c1.4-0.8,2.9-1.6,4.4-2.3c0,0,0,0,0,0
		c2.9-2,5.3-4.6,7.3-7.6c-3.3-1.3-5.9,1.6-6.9,2.3c-1,0.7-2.1,1.9-3.6,0.9c-1.5-1-0.4-2,0.2-3.5c0.6-1.5,1.6-3.8,2-4.5
		c0.4-0.7,1-1.6,0.2-2.1c-0.8-0.5-1.4,0-2.1,0.6l-13,10.9l-0.1,0.1C135.7,74.7,136.9,75.7,140.3,74.4z"/>
	<path fill="#C1A384" d="M267.8,147.2c0.2-0.8,1.2-2.4,1.9-1.3c0.7,1.1,4,0.3,5.4,1c4.9,2.4,4.2-1.7,4.9-3.9s-0.3-4.9,1.4-7.3
		c1.2,7.1,0,14.4,1.7,21.4h0c0.1,2.3-0.4,4.8,1.1,6.9c0,0,0.1,0.1,0.1,0.1c4.7,0.8,4.9,4.2,4.8,8c3.1,3.8,2.1,9.1,4.8,13
		c0.6,0.9,0.6,2.5,2.2,1c-1.9-7.9-3.9-15.6-5.7-23.5c-1-4.3,1.5-8,2.6-11.8c0.5-1.9,3.7,0.1,5.6,0.6c1-2.2-0.2-3.9-0.7-5.5
		c-2.3-6.5-1.7-13.8-5.8-19.8h0l0,0c-2.4,1.6-2.8-0.3-3-1.9c-0.2-1.6-1.9-4.6-3-6.8s-0.9-2-2.1-1.6c-1.2,0.4-1.1,1.7-0.9,2.5
		c1.2,4.7,0.1,8.7-2.8,12.4c-1.5,1.9-2.5,2.1-3.2-0.5v-0.1c-2.1,5.2-7.1,9.5-9.9,12.8c-2.8,3.3-6.7,5.6-9.1,9.2c0.1,0,0.1,0,0.2,0
		c2.9,0.4,5.9-2.2,8.8,0c0-0.1,0.1-0.2,0.1-0.3C267.3,150.3,267.5,148.7,267.8,147.2z"/>
	<path fill="#A78566" d="M280.2,130.7c2.9-3.7,4-7.7,2.8-12.4c-0.2-0.8-0.3-2.1,0.9-2.5c1.2-0.4,1-0.6,2.1,1.6s2.8,5.2,3,6.8
		c0.2,1.6,0.6,3.5,3,1.9l0,0c-1.3-1.9-0.1-2.5-1.3-5.8c0-0.1-0.1-0.2-0.1-0.3c-1.2-3.2-3.8-6.1-2.4-10.1c1.8,1,2,2.8,2.8,3.8
		s1.7,2,2.9,1.2c1.2-0.8-0.2-1.6-0.4-2.5c-0.6-3.2-3.1-4.1-4.8-7.4c-1.7-3.3-1.8-3.2,2-4c-0.6-0.6-1.1-1.3-1.6-2
		c-0.8-1.4-3.9-2.1-2-4.1c0.1-0.1,0.2-0.2,0.3-0.3c1.6-1.5,4-1.4,5.5,0.1c1.4,1.2,2.8,2.3,4.3,3.4c2,1.6,3.2,4.1,6.2,4.4
		c-5-7-10.8-13.2-18.5-17.3c0,0-0.1,0-0.1,0c-2.2,0.3-4.5-1-6.7-0.1c-0.1,0-0.2,0-0.3-0.1c0.1,0.1,0.2,0.1,0.3,0.2
		c-3.1,7.5-6,15-9.4,22.3c-0.9,1.8-1,4.1-2.7,5.6c0,0-0.1-0.1-0.1-0.1c-0.6,0.5-1,1.3-0.9,2.1c2.5,1.2,2.8-1.3,3.5-2.3
		c1.6-2.5,3.1-5.1,4.4-7.7c0.3-0.6,0.3-1.4,0.7-1.8c4.8-4.4,4.8-4.4,5.5-10.5c0.1-0.8,0.2-1.7,1.3-1.9c1.1-0.2,1.5,0.8,1.4,1.6
		c-0.3,7.7,1.5,15.5-1.1,23.1c-1.4,4.1-0.5,9-3.7,12.6l0,0v1.9v0.1C277.7,132.8,278.7,132.6,280.2,130.7z"/>
	<path fill="#F1E3C9" d="M305.9,151.5c0.3,5.2,1.5,10.4,1.6,15.5c0.2,7.1,2.5,13.5,4.7,20c0.7,2.2,5,4.7,5.2,4.4
		c2.3-3.2,6.6-4.1,7.6-8.7c1.9-9-2.7-15.1-8.4-20.7c-3.7-3.7-6.8-7.4-7.6-12.8c0,0,0-0.1,0-0.1l-0.1,0.1
		C306.2,147.7,305.8,149.2,305.9,151.5z"/>
	<path fill="#CBAE91" d="M293.8,185.1c-2.7-3.9-1.7-9.2-4.8-13c-0.1,3.8,0.9,4.6,0,7l3.4,9.7c0.3,0.9,0.9,1.9,0,2.7
		c-0.9,0.8-1.8,0.2-2.7-0.3c-0.9-0.5-1.3-1.2-2.1-0.4c-0.8,0.8-0.3,1.6,0,2.3c0.7,1.5,1.4,3,2.2,4.4c1.4,2.4,3.1,4.4-1.1,6
		c-2.3,0.9-0.6,3.2,0.2,4.7c0.8,1.5,2.3,2.9,1.2,4.9c0,0-0.1,0-0.1,0c0.7,1.8,2.6,2.1,4,3c0,0,0,0.1,0,0.1c0.5-0.4,1-0.8,1.5-1.2
		c-3.5-6.2,4.6-9,4.2-14.3c2.3,2.7,1,5.7,0.8,8.6c1.8,1.2,1.7-2.4,3.6-1.3c1.2,3.3-2.7,5.8-1.8,9.7c1.4-2.1,2.5-3.8,3.5-5.5
		c1-1.7,0.4-1.6,1.4-1.7c5-0.7,5.6-1.3,6.8-7.3l0,0c0,0,0-0.1,0-0.1c-1.8,0.6-4.1,2.9-5.4-0.2c-2.1-4.9-5.9-9.2-4.7-15.2
		c0.5-2.5,0.3-5.2-2.5-7c-1.2,4,1.1,8.6-2.9,11.9l-2.5-6.5c0,0,0,0,0,0C294.4,187.6,294.4,186,293.8,185.1z"/>
	<path fill="#D2B496" d="M330,196.1c4.1-2.6,6.3-6.6,8.8-10.5c0.7-1.1,1.1-2.7,2.9-1.9c1.8,0.8,0.6,2.1,0.4,3.4
		c-1,6.7-5.6,11.4-9.8,17.9c0,0,0.1,0.1,0.1,0.1c0.1,0,0.1,0.1,0.2,0.1c5.7-3.7,8.1-8.7,11.3-12.9c0-0.1,0-0.2,0.1-0.3
		c5.8-7,5.8-15.6,6.9-24c-1.1,1.2-2.6,4.3-3.5,0.1c-0.9-4.1-4.5-5.9-6.6-8.8c-0.7,0.8-1,1.9-0.6,2.9c1.8,4.8,0.3,9.3-1.2,13.8
		c-0.1,0-0.1,0-0.2,0.1c0,0,0,0,0,0c0,0.1,0,0.2-0.1,0.4c-0.4,3.3-2.3,6.1-3.9,9c-0.3,0.8-1.2,1.3-2,1.1c-1-0.3-1-1.3-0.9-2.1
		c0.2-3.5-0.3-7-1.5-10.3c-0.3-1.1-0.3-3.1-2.1-2.8c-1.8,0.3-1.3,2.1-1.3,3.3c0.1,5.8,0.2,11.6-3.8,16.5c-0.5,0.6-0.2,1.9-0.2,2.9
		c0,0,0,0,0,0C327.9,191,328.9,191.3,330,196.1z"/>
	<path fill="#EEDAC0" d="M339,176c1.5-4.5,3-9,1.2-13.8c-0.4-1-0.2-2.1,0.6-2.9c0.1-0.1,0.1-0.1,0.2-0.2c-1.3-6.6-2.6-13.1-6.1-18.9
		c0,0,0,0,0,0c-4.6,0.9-1.7,6.5-5.3,8.2c-3.3-2.4-2.3-7.5-6.1-9.7c-0.9,1.2-1.2,2.8-0.7,4.3c1.6,4.3,2.7,7.3,4.7,13
		c2,5.7,5.2,10.9,5.5,17.2c0.1,1.7-1,3.7,1.4,4.9c1.9,1,2.6-0.7,3.7-1.6c0.2-0.2,0.4-0.3,0.7-0.4C338.9,176.1,339,176,339,176z"/>
	<path fill="#B59778" d="M330,196.1c-1.1-4.8-2.1-5.1-7-2l0,0c0.4,4.2-3.6,8.2-7.8,8c-0.1,0-0.2,0.1-0.2,0.1l-1,1l0,0
		c-1.2,6-1.8,6.6-6.8,7.3c-1,0.1-0.4,0-1.4,1.7c-1,1.7-2.1,3.4-3.5,5.5c-0.9-3.9,3-6.4,1.8-9.7c-1.9-1.1-1.8,2.5-3.6,1.3
		c0.2-2.9,1.5-5.9-0.8-8.6c0.4,5.3-7.7,8.1-4.2,14.3c-0.5,0.4-1,0.8-1.5,1.2c0.2,2.7-0.1,5.4-0.9,7.9c0,0,0,0,0,0c0,0,0,0,0,0.1
		c2.2-0.3,1.9,2.2,3.8,2.9c0,0,0,0,0.1,0C308.8,217.6,321.3,208.8,330,196.1z"/>
	<path fill="#D2B496" d="M323,194.1c-1.3-0.2-0.8,4-2.9,1.6c-2.1-2.4-2.4-0.8-3.2,0.9c-0.8,1.7-1.3,3.6-1.9,5.5c0.1,0,0.2,0,0.2,0
		C319.5,202.3,323.4,198.3,323,194.1z"/>
	<path fill="#DCC3A5" d="M178.5,171.1c18.9-11.9,34.4-28.2,52.4-41.4c6.3-4.6,12.4-9.4,17.2-15.6c0,0,0-0.1,0.1-0.1
		c-0.1,0-0.1,0.1-0.2,0.1c-2.4,0.1-3.9-1.1-2.7-3.2s0.9-4.7-1.2-6.7s0.8-3.8,0.9-6.5c-6,3.5-11.9,5.3-17.9,1.4
		c-1.3,0.7-2.1,1.6-1.7,3.2c0.4,1.6,1.6,1.4,2.8,1c1.2-0.4,1.3-0.2,1.4,0c3,6.8,6.5,1,9.7,0.1c1,1.9-0.7,2.5-1.4,3.5
		c-0.7,1-1.3,2.2-0.3,2.6c6.6,3.2,1.6,7.4-0.2,9.3c-5.3,5.6-10.8,11.2-17.5,15.4c-1.3,1-2.6,2-3.8,3.2c-3.7,3.2-7.4,5.8-12.4,6.9
		s-8.8,5.1-12.7,8.4c-2,1.7-4,2.8-7.2,2.5l7.4-8.9c0.8-1,2.5-1.7,2.1-3.2c-0.4-1.5,0.5-3.9-1.2-4.6c-1.7-0.7-4.3,0.3-5.9,1.9
		c-4,3.8-8.6,6.7-12.9,10c-7.4,5.6-16.1,8.4-24.2,12.6s-14.1,7.4-21.9,9.3c-14.6,3.5-29,7.7-44.2,7.7c-2,0.2-4.1-0.2-5.8-1.4
		c5.8-2.1,10.6-4.5,15.7-5.5c18.2-3.5,34.2-11.2,47.1-24.7c7.7-8.1,12.5-18.3,18.8-27.4c0.4-0.7,0.7-1.6,0.8-2.4
		c0.4-1.4,1.1-3.2-0.4-4.1c-1.5-0.9-2.3,0.9-3.1,1.8l-30.8,33c0,0.1,0,0.1,0,0.2c8,0.1,10.1-8,16.4-10.3c-0.1,3.6-3,5.1-4.9,6.5
		c-5.7,4.5-11.5,9.1-17.9,12.5c-9.7,5-20.6,6.9-31.4,5.5c-7.2-0.8-14.3-2.5-21.5-3.8c-4.5-0.8-8.4-3.2-12.4-5.2
		c-1-0.5-2.7-1-1.7-2.8l0.2,0c-7.6-6.4-16.7-11.1-23.6-18.6c1.4,3.2,1.3,6.8,4.7,9.6c3.4,2.8,7.7,4.9,10.4,8.3
		c6.4,7.9,14.8,12.9,22.6,18.9c0,0,0,0,0,0c2.3,1.7,5.6,1.5,8.6,5c-16.5-0.4-30.7-3.2-41.2-15.7c-0.1-0.1-0.2-0.1-0.3-0.2
		c0,0,0,0,0,0c-4.2-2-5.5-7.1-10.2-9.8c0.9,4.5-1.5,8.8,1,11.8c6.6,7.9,11.9,16.6,19.2,23.9c2.2,2.3,7.9,4.4,0.7,7.7
		c0,0.1,0,0.3,0,0.5c-0.1,1-0.2,1.7-0.4,2.3c-0.4,0.8-1,1.1-1.6,1.1c-1.2,0-2.7-0.9-3.8-1.4c-2-0.9-3.7-2.2-5.2-3.8
		c-7.2-7.1-15.4-13.7-14.6-25.4c0.1-1.3,1.2-3.1-1.9-2.8s-3.1-2.4-4.1-4.1c-0.1,0.2-0.2,0.3-0.2,0.5c-1.3,2.6-2.8,5.2-3.6,8.1
		c0,0.1-0.1,0.3-0.1,0.4c4.3,2.3,6.8,6.2,9.7,9.9c7.8,9.9,14.4,20.8,23.1,30c0,0,0.1,0.1,0.1,0.1c0,0,0,0.1,0,0.1
		c2.9,3.3,7.2,4,10.8,5.8c0,0.2,0,0.4,0.1,0.6c0-0.2,0-0.4,0-0.6c1.7,0.1,4.3-0.2,3.4,2.6c-0.9,2.8-2.2,3.9-4.8,3.1
		c-1.8-0.4-3.4-1.4-4.6-2.7c-1.4,0.1-2.7-0.3-3.9-1c-0.1,2.5,0.2,3,3.1,5.6c2.9,2.7,6.6,3.5,10,4.5c5.7,1.8,11.8,2.8,18.1,1.8
		c-4.2-2.1-8.6-3.8-13.1-5c-1.7-0.5-4.1-0.8-4.4-2.5c-0.3-1.7,2.4-3.2,3.4-3.9c0.9-0.7,2.3-0.5,3.6-0.7l-9.9-3.8
		c-1.1-0.4-2.4-0.6-3.2-1.3c-0.8-0.7-4.8-3-3.9-5s3.8,0.1,5.8,0.6c5.1,1.2,9.9,2.8,15.3,3.2c2.9,0.2,5.5,3,8.9,2.4
		c0.1,0,0.1-0.1,0.2-0.1l0,0l1-2.9h0c-3.8-1.3-7.8-2.2-11.6-3.5c-3.8-1.3-5.2-1.7-7.4-3.5c-2.2-1.8-3.3-0.9-2.6-3
		c0.7-2.1,2.6-0.8,4-1c1.3-0.2,3.6,1.8,6.9,1.1c0-0.1,0-0.2,0.1-0.4c-4.3-2.5-7.8-4.7-11.5-6.6c-3.8-2-5-2.4-6.4-5.2
		c-1.4-2.8,0.3-7.6,4.6-8c2.8-0.2,5.7,0.2,8.3,1.4c10.5,4.4,21.6,4.7,32.7,4.6h2c1,0.1,2.3,0.3,2.3,1.5s-1.2,1.5-2.2,1.5
		c-3.1-0.1-6.3,0.1-9.4,0.7c7,4.7,14.8,3.8,22.8,3.3c-7.7,1.6-12.5,9.8-21.1,8.1c-1-0.2-2.7-0.5-2.8,1.2c-0.1,1.7,1.4,1.5,2.6,1.7
		c3.1,0.5,3.1,0.5,1.4,3.5c-0.7,1.2,1.7,2.2,0.4,3.5c-0.3,0-0.6,0-0.9,0c0.2,0.1,0.4,0.1,0.8,0.1c1.8-0.2,4.3,1.4,5.3-0.5
		s-2.5-1.2-1.3-3.5h14.1h0.1h2.8c0,0,0,0,0,0c0,0,0-0.1,0-0.1c0.8-1,1.9-0.9,3.1-0.8l0,0c2.7-2.7,7-1.8,9.9-4.1
		c0.1-0.1,0.1-0.1,0.2-0.2l-0.2,0.1c6-9.2,15.7-8.2,24.7-9.2c1.5,0,2.9,0.1,4.4,0.3c-0.1,0.1-0.1,0.1-0.2,0.1c0.1,0,0.2,0,0.3,0
		l3.9-1.3l0,0c4.5-0.4,8.9-2,12.6-4.7c3.1-2.5,7.5-2.1,10.9-0.6c-2,1.7-5.3,0.5-7.4,4.4c20.6-5.7,40.5-10,58.2-20.5
		c-0.1-0.2-0.1-0.3-0.2-0.5c-1.3-3-3.3-0.7-4.7,0.2c-6.8,4-13.3,5.9-21.6,8.6c-8.3,2.7-17,2.2-25.4,3.8c-5.5,1.1-11.3,1.3-17.8,1.9
		c-0.2,0-0.4,0-0.6,0.1c0.1-0.1,0.2-0.2,0.3-0.3c3.9-3.9,8-4.6,12-7.7c0.8-0.6,1.7-1.2,2.6-1.7c-1,0.4-2,0.8-3,1.2
		C174,172.5,176.6,172.3,178.5,171.1z M182.3,156.6c-2.9,5.9-9.2,6.5-14.2,9.2C171.8,161.2,177.4,159.4,182.3,156.6z"/>
	<path fill="#E4D0B3" d="M53.5,154.7c4,2,7.9,4.4,12.4,5.2c7.2,1.3,14.3,3,21.5,3.8c10.8,1.4,21.7-0.5,31.4-5.5
		c6.4-3.4,12.2-8,17.9-12.5c1.9-1.4,4.8-2.9,4.9-6.5c-6.4,2.3-8.4,10.4-16.4,10.3c-0.1,0-0.1,0-0.2,0l0.2-0.2l30.8-33
		c0.8-0.9,1.6-2.7,3.1-1.8c1.5,0.9,0.8,2.7,0.4,4.1c-0.1,0.8-0.4,1.7-0.8,2.4c-6.3,9.1-11.1,19.3-18.8,27.4
		c-12.9,13.5-28.9,21.2-47.1,24.7c-5.1,1-9.9,3.4-15.7,5.5c1.7,1.2,3.8,1.6,5.8,1.4c15.2,0,29.6-4.2,44.2-7.7
		c7.8-1.9,13.8-5.1,21.9-9.3s16.8-7,24.2-12.6c4.3-3.3,8.9-6.2,12.9-10c1.6-1.6,4.2-2.6,5.9-1.9c1.7,0.7,0.8,3.1,1.2,4.6
		c0.4,1.5-1.3,2.2-2.1,3.2l-7.4,8.9c3.2,0.3,5.2-0.8,7.2-2.5c3.9-3.3,7.7-7.3,12.7-8.4s8.7-3.7,12.4-6.9c1.2-1.2,2.5-2.2,3.8-3.2
		c6.7-4.2,12.2-9.8,17.5-15.4c1.8-1.9,6.8-6.1,0.2-9.3c-1-0.4-0.4-1.6,0.3-2.6c0.7-1,2.4-1.6,1.4-3.5c-3.2,0.9-6.7,6.7-9.7-0.1
		c-0.1-0.2-0.2-0.4-1.4,0c-1.2,0.4-2.4,0.6-2.8-1c-0.4-1.6,0.5-2.5,1.7-3.2c0,0,0,0-0.1,0c2.3-3.1,5.4-5.6,9-7c0,0.1,0,0.1,0,0.2
		c0-0.1,0-0.2,0.1-0.3c0.9-3.9,5.1-4.2,7.9-6c0.1-0.8-0.3-1.6-1-2l-6.9,4.2c-0.3,0.1-0.6,0.3-0.8,0.4c-5.4,3.6-10.6,8-17,10.3
		c-0.1,0.1-0.2,0.1-0.3,0.2l-5.9,4.4c-0.9,0.7-1.7,2-2.9,0.9s0.3-2,0.9-2.8c0.5-0.7,2.9-2.4,3.9-4.4c0-0.2-0.1-0.4-0.2-0.6
		c-6,4.2-10.6,9.9-15.9,14.8c-5.4,5.1-9.6,9.6-14.2,14.6c-1.3,1.4-4,2.5-1,5.1c1.4,1.2-0.9,1.7-1.5,2.2c-4.4,3.5-9,6.8-14.6,11
		c2.4-5.4,5.5-9,7.9-12.8c3.5-5.7,7.8-10.8,12.8-15.2c3-2.6,4.4-5.9,3.4-9.8c-0.5-1.9,0.3-2.6,1.6-3.6c8.7-7,18-13.3,27.7-18.8
		c0.7-0.5,1.3-1.1,1.8-1.7c0-0.1,0-0.3-0.1-0.4c-5.8-1.9-10.1,1.4-14.2,4.5c-6.4,4.9-13.2,9.5-18.1,16c-1.1,1.5-2.4,2.5-5.4,3.3
		c2.5-5.5,6.9-9.1,8.4-15.5c-0.1-0.1-0.2-0.2-0.4-0.3c-0.1,0-0.1-0.1-0.2-0.1c-2.7,2.7-4.9,4.6-6.4,6.9c-3.2,4.9-6.4,9.9-8.5,15.6
		c-0.6,1.7-1.8,3.8-3.8,3.1c-1.8-0.6-0.9-2.5-1-4c-0.1-0.1-0.2-0.3-0.2-0.4c-1.5,1.3-2.2,3.2-2.9,5c-3.3,8.2-8.6,15.2-13.4,22.5
		c-0.9,1.4-2.5,3.3-3.9,2.5c-1.4-0.8-0.3-3.3,0.6-4.7c6.7-10.6,12.4-21.8,19.4-32.3c2.8-4.2,4.3-9.3,7.5-13.7
		c-4.7,5.7-13.5,5.2-17.4,11.9c-0.6,1.1-2,0.8-2.8-0.2c0,0,0,0-0.1,0l-24,22.7c-1.4,1.3-2.4,3.3-4.8,3.3c0-0.2,0.1-0.3,0.1-0.5
		c-0.1,0.1-0.1,0.2-0.2,0.3c-7.8,6.9-17.5,11.4-27.8,13c0,0,0,0,0,0c-2.6,2.2-5.5,0.8-8.1,1.2c-4.1-0.4-7.9,2.2-12,1
		c-4.7-0.3-9.4,0.9-14-1l-0.1,0c0,0,0,0,0,0h-8.8c-1.8,0.5-4.9-1-5.4,1c-0.5,2,2.2,3.9,4.2,4.9c5.4,2.6,11.5,3.1,17.3,4
		c2.7,0.4,5.4,1.8,8.3,0.8c0.8-0.2,1.6,0.3,1.8,1.2c0,0,0,0.1,0,0.1c-0.1,0.6-0.6,1.1-1.2,1.3c-8.1,0.5-16.4,2.7-24.3-1.2
		c0.1-0.1,0.2-0.2,0.3-0.2c-0.1,0-0.3,0-0.4-0.1l-7.8-2l-0.2,0C50.8,153.7,52.5,154.2,53.5,154.7z M167.4,131c1.5-0.9,3.3-3,4.7-1.2
		s-1.6,2.1-2.4,3.4c-3,5.3-5.9,10.7-9.9,15.3c-6.6,7.6-13.5,14.7-23.6,17.5l-1.7,0.4c-0.9,0.3-1.6,0.1-1.7-0.6
		c-0.1-0.7,0.5-1.8,1.2-2.5c3.6-3.4,7-7,10.8-10.1C152.9,146.4,158,136.5,167.4,131z"/>
	<path fill="#BDA082" d="M59.2,142.1H68c0,0,0,0,0,0l-2.9-2.2c7.1-2,13.2-5.5,20.2-5.8c2-0.2,3.9-0.6,5.8-1.2
		c1.1-0.3,2.3-1.2,3.1,0.2c0.8,1.4-0.2,2.3-0.9,3.1c-2.9,3.6-7.3,4.9-11.2,6.9c4.1,1.2,7.9-1.4,12-1c4.5-2.4,7.3-5.7,7.4-11.3
		c0.1-5.6,5.6-7.2,7.7-11.3c0.6-1.2,2.7-2.2,1.3-3.7c-1.4-1.5-2.4,0.4-3.5,0.8l-9.7,3.5c-0.1,0-0.1,0.1-0.2,0.1
		c-3.5,2.6-5.3,5.1-10.6,7.7c-5.3,2.6-11,4.2-16.5,6.2c-0.1,0-0.1,0.1-0.2,0.1c-0.5,0.3-1,0.8-1.5,0.8c-12.6,0.8-24.9,0.5-35.1-8.6
		c-1.2-1-2.9-4.9-4.6-2.3c-1.7,2.6,1.9,3.4,3.6,4.8c3.4,2.8,8.2,3.4,10.8,7.3c0,0,0,0,0,0c0,0,0-0.1,0.1-0.1
		C48.2,138.7,54.3,138.9,59.2,142.1z"/>
	<path fill="#B6987A" d="M74.7,175.1c-3-3.5-6.3-3.3-8.6-5c0,0,0,0,0,0c-1.7,0-3.3-0.5-4.7-1.4c-8-4.2-15.4-9.5-21.9-15.8
		c-2.5-2.5-4.7-2.7-7.6-0.6c-2.9,2.1,0.9,4.9,1,5.3c0.1,0.4,0.2,0.9,0.3,1.4c0,0,0,0.1,0.1,0.1c0.1,0.1,0.2,0.2,0.2,0.3
		C44,172,58.2,174.7,74.7,175.1z"/>
	<path fill="#DCC3A5" d="M84.2,155.4c0.6-0.2,1.1-0.7,1.2-1.3c0,0,0-0.1,0-0.1c-0.2-0.8-1-1.3-1.8-1.2c-2.9,1-5.6-0.4-8.3-0.8
		c-5.8-0.9-11.9-1.4-17.3-4c-2-1-4.7-2.9-4.2-4.9c0.5-2,3.6-0.5,5.4-1c-4.9-3.2-11-3.4-16.1-6c0,0,0,0.1-0.1,0.1
		c-1.9,3.7,1.2,5.3,3.2,6.9c4,2.6,8.4,4.6,12.5,7.1c1.3,0.8,4.4,1.5,1.5,3.7c-0.1,0.1-0.2,0.2-0.3,0.2
		C67.8,158.1,76.1,155.9,84.2,155.4z"/>
	<path fill="#E7D4B9" d="M89.8,206.5c1.7-3,1.7-3-1.4-3.5c-1.2-0.2-2.7,0-2.6-1.7c0.1-1.7,1.8-1.4,2.8-1.2
		c8.6,1.7,13.4-6.5,21.1-8.1c-8,0.5-15.8,1.4-22.8-3.3c3.1-0.6,6.2-0.8,9.4-0.7c1,0,2.2-0.3,2.2-1.5s-1.3-1.4-2.3-1.5h-2
		c-11.1,0.1-22.2-0.2-32.7-4.6c-2.6-1.2-5.5-1.6-8.3-1.4c-4.3,0.4-6,5.2-4.6,8c1.4,2.8,2.6,3.2,6.4,5.2c3.7,1.9,7.2,4.2,11.5,6.6
		c0.1,0.1,0.3,0.2,0.4,0.3c-0.2,0-0.3,0.1-0.5,0.1c-3.3,0.7-5.6-1.3-6.9-1.1c-1.4,0.2-3.3-1.1-4,1c-0.7,2.1,0.4,1.2,2.6,3
		c2.2,1.8,3.6,2.2,7.4,3.5c3.8,1.3,7.8,2.2,11.6,3.5h0c4,1.4,8,1,12.2,0.9c0.3,0,0.6,0,0.9,0C91.5,208.7,89.1,207.7,89.8,206.5z"/>
	<path fill="#B87B59" d="M88.2,225.1C88.2,225.1,88.2,225.2,88.2,225.1c0.6,0.6,1.5,1.1,1.6,1.8c1.2,6.2,6.5,10.2,8.8,15.8
		c0.9,2.1,3.2,4.4,5.9,2.9c2.7-1.5,2.1-4.4,0.8-6.6c-1.1-2-1.4-4.4-0.8-6.7c0.6-2.8-0.3-4.1-3.4-2.8s-4-1.3-3.9-3.1
		c0.1-1.8,0.4-4.3,1.6-5.1c5.1-3.4,3.4-7.2,1.3-11.2c0,0,0,0,0,0C87.8,213.2,87.8,213.2,88.2,225.1z"/>
	<path fill="#9A7757" d="M67.9,240.2c-0.7,0.5-1.9,0.5-1.9,1.6c0,1.2,1.3,1.2,2.3,1.2c4.8,0.1,9.5,0.6,14.3,0.2
		c1.4-0.1,3.6-2,4.3,0.3c0.7,2.3-1,3.8-3,4.5c-3.9,1.4-3,2.6-0.2,4.5c2.8,1.9,7,1.7,8.4,5.6l2.1,1.9c0,0,0,0,0,0
		c2.3,0.5,4.7,1.1,3.1-2.8c-3-7.2-5.7-14.6-8.8-21.8c-1.4-3.2-6-1.9-7.2-0.2s-2.3,2.7-4.3,2.7c0,0-0.1,0-0.1,0.1
		c-2.7,1.3-5.7,2-8.7,2.1C68,240.1,68,240.2,67.9,240.2z"/>
	<path fill="#E7D4B9" d="M75.9,212.1c-3.4,0.6-6.1-2.2-8.9-2.4c-5.4-0.4-10.2-2-15.3-3.2c-2-0.5-4.9-2.6-5.8-0.6s3.1,4.3,3.9,5
		c0.8,0.7,2.1,0.9,3.2,1.3l9.9,3.8l0.2,0.1c6.9,1.3,13.9,1,20.8,1.1c1.3,0,2.7,0.1,3-1.8c0.3-1.9,0.4-1.5-2.4-2.6
		c-2.8-1.1-4.9-1.4-8.3-0.7c0,0,0,0-0.1,0C76,212.1,76,212.1,75.9,212.1z"/>
	<path fill="#A28362" d="M57.5,237.9c0.1,0,0.2,0.1,0.3,0.1c1.1,0.3,2.3-0.3,2.6-1.4c0.3-1.8-0.2,0.1-2.4-1.6
		c-2.2-1.7-4.7,0.4-7.1-1c-5.6-3.3-11.7-5.9-16.9-9.9l-0.1,0l-1.1,0.6c1.5,4.2,1,9.2,5.2,12.2c0,0,0.1,0.1,0.1,0.1
		C44.5,239.3,51.2,235.7,57.5,237.9z"/>
	<path fill="#B99A7A" d="M46.1,217.1c2-0.7,5.6,1.7,6-2.4c0-0.2,0-0.4-0.1-0.6c-3.6-1.8-7.9-2.5-10.8-5.8c0-0.1-0.1-0.1-0.1-0.2
		c0,0,0,0-0.1-0.1c-7.3-1.1-12.3-6.3-18.2-10.2c2.7,4.9,8,9,10.5,11.8c2.5,2.8,6.1,3.9,8.8,6.4c0,0,0.1,0,0.1,0
		C43.4,216.8,44.7,217.2,46.1,217.1z"/>
	<path fill="#98775B" d="M45.2,246.7c0.9-1.1-1.7-1.7-0.2-3c2.5,0.7,6.4,6.7,7-1.5c-3.5-1.7-7.3-1.5-10.9-2.1
		C40.4,243.2,44.3,247.8,45.2,246.7z"/>
	<path fill="#E5D0B2" d="M295,261.6c3.3-5,5.9-9.9,9.4-15.2c3.5-5.3,7.4-10.3,12.5-14.2c0,0,0,0,0.1-0.1c1.6-1.4,3.1-2.9,4.4-4.5
		c4.1-5.4,5.9-12.1,11-17c5.1-4.9,10.5-9.8,13.6-16.4l-0.2-0.2l-1.8-1.8c0,0,0,0.1-0.1,0.1c-3.2,4.2-5.7,9.2-11.3,12.9
		c-0.3,0.2-0.5,0.3-0.8,0.5c0.2-0.3,0.3-0.5,0.5-0.7c4.2-6.4,8.9-11.1,9.8-17.9c0.2-1.3,1.4-2.6-0.4-3.4c-1.8-0.8-2.2,0.8-2.9,1.9
		c-2.5,3.9-4.7,7.9-8.8,10.5c-8.7,12.7-21.2,21.5-33,31c0,0,0,0-0.1,0c-2.7,1.5-4.4,4.3-4.6,7.4c-0.2,3.1-1.1,6.1-2.5,8.8
		c-4.2,7.5-6.4,16.3-13.7,21.8c-0.1,0.1-0.1,0.1-0.2,0.2c0.2,1.5-0.8,3.4,1.9,3.9c2.7,0.5,2.2,2.6,2.1,4.3c-0.3,8.2-0.6,16.5-1,24.7
		c0,0,0,0,0,0c0,0.1,0,0.1,0,0.2c0,2.3-0.8,5-1,6.7c0,0.1,0,0.1,0,0.2c-0.1,1.7,0.1,4.2,1.5,4.3c1.4,0.1,1.4-1.6,1.4-2.7
		c0-10.2,4.6-19,8.1-28.1c1.3-3.4,4.7-6.9,5-9.5c0-0.1,0-0.2,0-0.3C294.2,266.5,293.4,264,295,261.6z"/>
	<path fill="#C8AD8F" d="M76,115.3c10.3-4.5,21.6-7.2,29.1-16.6c1-1.3,2.1-2.6,4-2.6c3-6.3,7.4-11.8,13-16c-0.2,0.4-0.4,0.7-0.6,1.1
		c0.3-0.3,0.6-0.6,0.9-1c-0.1-0.8,0.3-1.6,1-2c0-0.1,0.1-0.1,0.1-0.2c0.6-1.5,1.5-3.3,0.1-4.2c-1.5-0.9-2.5,1.2-3.5,2.2
		c-3,3.1-5.7,6.3-8.8,9.3c-5.6,5.5-9.4,13-17,16.5c-1,0.4-1.6,1.9-3,0.5c-1.4-1.4-0.5-2.2,0.8-3.2c1.3-1,3.5-2,4.2-2.6
		c0.7-0.6,1.9-1.2,1.2-2.4c-0.1-0.1-0.2-0.3-0.3-0.4c-0.7-0.7-1.9-0.7-2.7,0c-1.9,1.4-2.4,2-5.5,4.3c-3.1,2.3-5.7,3.1-10.6,3.3
		c-0.2,0-0.3,0-0.5,0c0,0-0.1,0-0.1,0l-12.4,4.5c-0.1,0.1-0.2,0.2-0.3,0.3h2c1.2,0.1,2.7,0.2,2.5,1.8c-0.2,1.6-1.8,1-2.9,1.1
		c-3.8,0.4-8,0.8-11.4,1c-3.4,0.2-3.7,1.6-2.2,4.1c0,0,0,0,0,0C60.7,116.9,67.9,118.8,76,115.3z"/>
	<path fill="#9F8162" d="M77.8,101.3L77.8,101.3l0.3-0.1C83,98.1,88.5,95.9,92,91c0-0.1,0-0.1,0.1-0.2c0.8-2-0.1-1.9-1.4-0.7
		c-6.1,5.5-13.4,8.7-21.1,11.5c-2.5,0.9-6.8-0.1-7.5,4.4H65l0.5-0.2L77.8,101.3z"/>
	<path fill="#C8AD8F" d="M99.6,92.4c5.3-2.4,8.1-7.1,10.8-11.8C105.7,83.4,102,87.5,99.6,92.4z"/>
	<path fill="#F7F0DB" d="M71.5,74.2c-4.9-0.4-8.3,3-12.4,3.8c-0.1,0.1-0.2,0.1-0.3,0.2c-4.8,3.2-8.9,5.5-14.2,10.1
		c-5.4,4.7-10.5,9.5-11.5,17.1c9.7-10.3,20.8-19.1,33-26.3C67.8,77.5,70.5,77,71.5,74.2z"/>
	<path fill="#F7F0DD" d="M62.1,87.2c-1.2-1-2.1,0.1-2.9,0.7c-3.7,2.9-7.5,5.9-11.1,9c-2.5,2.2-4.8,4.5-7,7c-1.3,1.5-2.8,4.1-0.9,5.5
		c1.9,1.4,3.6-0.4,4.8-2.1c0.7-1.3,1.8-2.4,3.1-3.1L62.1,87.2C62.2,87.2,62.1,87.2,62.1,87.2z"/>
	<path fill="#BA9C7D" d="M199.3,41.3c11.9-1,23.9,1,35.7-1c1.8-0.3,3.8,0.5,6,2.4c-5.3,1.6-10.6,1.9-14.6,5.3
		c3.5-0.1,7-0.4,10.5-0.3c1.2,0,4.2-1.4,3.2,2.2c-0.1,0-0.1,0-0.2,0c0,0,0.1,0,0.1,0.1c7.9-2.2,15.9-3.6,24.2-2.7
		c0-2.8-2.7-3.3-3.1-5.2c0.2,0.1,0.3,0.1,0.5,0.2c-0.1-0.1-0.3-0.2-0.4-0.3c-1.2-1.1-2.7-2-3.6-3.3c-5.3-8-13.6-10.3-22.4-11.7
		c0,0,0,0,0,0c-4.2,1.9-7.2,6.2-12.3,6.1c-11.5-0.4-22.3,2.5-32.7,7C193,42,196.4,41.5,199.3,41.3z"/>
	<path fill="#DCC0A2" d="M192.9,56.6c0.8,1.1,2.5,0.3,3.2,1.5l0,0l7.1-1.9c0,0,0,0,0,0c0,0,0-0.1,0-0.1l2.9-2
		c-3.8-1.5-0.5-2.4,0.5-2.7c6-1.5,12-3.8,18.3-3.3c0.1,0,0.1-0.1,0.2-0.1h1c0.1,0,0.2,0,0.3,0c4.1-3.4,9.4-3.7,14.6-5.3
		c-2.2-1.9-4.2-2.7-6-2.4c-11.8,2-23.8,0-35.7,1c-2.9,0.2-6.3,0.7-9.1-1.2c-0.8,0.2-1.4-0.9-2.3,0.6c-0.9,1.5,0.8,1.3,1.5,1.7
		c4.5,2.5,8.9,4.2,14,1.3c1.9-1,4.2-0.4,5.3,1.4c1.2,1.9-1.3,4.2-2.3,4.1c-4.3-0.4-5.3,3.7-8.2,5c0,0,0,0-0.1,0
		C196.2,54.6,194.4,55.4,192.9,56.6z"/>
	<path fill="#B69678" d="M256.5,73.9c-4.1,0.5-8.2,1.2-12.3,2.1c0,0-0.1,0-0.1,0c-10.9,3.8-19.5,11.1-27.8,18.9
		c-0.6,0.5-1.3,0.9-2,1.3c-0.1,0.3-0.2,0.7-0.3,1c-1,2.1-3.4,3.7-3.9,4.4c-0.6,0.8-2.1,1.7-0.9,2.8s2-0.2,2.9-0.9l5.9-4.4
		c0.1-0.1,0.2-0.1,0.3-0.2c-0.1,0-0.2,0.1-0.3,0.1c0-1,0.4-2,1.3-2.5c5.6-2.8,10.2-7.5,16.7-8.4c-0.2,0.2-0.5,0.3-0.7,0.5
		c0.3-0.1,0.6-0.3,0.8-0.4L243,84c6.2-5.1,13.6-6.4,21.5-6.1c-7.6,0.9-13.9,4.7-20.5,8.1c0,0,0,0,0,0c-2.8,1.8-7,2.2-7.9,6
		c0,0.1,0,0.2-0.1,0.3c0.4,2.3,1.6,3.3,4.2,2.3c2.6-1,5.2-2.1,6.9-4.5c0,0,0.1,0.1,0.1,0.1c3.5-1.9,6.9-5.3,10.4-5.3
		c5.3-0.1,10.2,0.5,15.1-2.4c0.9-0.6,3.3,1.5,5.2,2.5c0.1,0,0.2,0,0.3,0.1c2.2-1,4.5,0.4,6.7,0.1c0.1,0,0.2,0,0.3-0.1
		c-1.1-1.9-3-2.3-4.9-3c-3.5-1.3-4.5-3.3-1.2-5.9c0,0,0.1-0.1,0.1-0.1c-2.6-2.4-5.4-4.2-9.1-3.9c0,0-0.1,0-0.1,0
		C265.6,74,260.9,73.3,256.5,73.9z"/>
	<path fill="#D4BA9E" d="M237.5,59.4c1-2.2,3.7-0.5,4.6-2.3c0.1,0,0.2-0.1,0.4-0.1c-0.1,0-0.2,0-0.4,0c-0.7-0.4-1.1-1.1-1-1.9
		c-7.1,0.3-12.7,4.7-19.1,7c0,0-0.1,0-0.1-0.1c-12.9,7.7-24.9,16.5-34.8,27.6c-5.7,6.5-11.8,12.8-15,21.1c0,0.1,0,0.2,0,0.3
		c0,0.1,0,0.3,0,0.4c0.1,1.5-0.9,3.4,1,4c2,0.7,3.2-1.4,3.8-3.1c2.1-5.7,5.3-10.7,8.5-15.6c1.6-2.3,3.8-4.2,6.4-6.9
		c0.3-0.3,0.5-0.5,0.8-0.8c-0.1,0.4-0.2,0.8-0.2,1.2c-1.5,6.4-5.8,10-8.4,15.5c3-0.8,4.3-1.8,5.4-3.3c4.9-6.5,11.7-11.1,18.1-16
		c4.1-3.1,8.4-6.4,14.2-4.5c0.1,0,0.3,0.1,0.4,0.1c2.1-1.6,5.4-1.1,7-3.7c0-0.1,0-0.1,0-0.2c-0.9-0.2-2.7,1.7-2.6-0.4
		c0.3-4.1-2.4-2.2-3.4-1.7c-1,0.5-2.5,1.8-2.9,1.5c-3.9-3.1-5.8,0.8-8.4,2.3l-7.2,4.1c1.2-3.4,4.6-3.7,6.2-5.9
		c-1-1.5-2.5,0.6-3.2-0.9c-0.1-0.5,0.1-1,0.5-1.3c8-6.8,16.7-12.4,27.4-13.7c5.7-0.8,11.3-2.2,16.7-4.1c-0.1,0-0.1-0.1-0.2-0.1
		C247.1,57.4,242.6,60.7,237.5,59.4z"/>
	<path fill="#F2E3CB" d="M242.1,74.1c0.6-0.2,1.1-0.3,1.7-0.4C243.3,73.6,242.7,73.8,242.1,74.1z"/>
	<path fill="#F2E3CB" d="M222.1,82.1c-0.1,0.1-0.2,0.2-0.3,0.3c-0.5,0.6-1.1,1.2-1.8,1.7c-9.7,5.5-19,11.8-27.7,18.8
		c-1.3,1-2.1,1.7-1.6,3.6c1,3.9-0.4,7.2-3.4,9.8c-5,4.4-9.3,9.5-12.8,15.2c-2.4,3.8-5.5,7.4-7.9,12.8c5.6-4.2,10.2-7.5,14.6-11
		c0.6-0.5,2.9-1,1.5-2.2c-3-2.6-0.3-3.7,1-5.1c4.6-5,8.8-9.5,14.2-14.6c5.2-5,9.8-10.7,15.9-14.8c0.2-0.1,0.3-0.3,0.5-0.4
		c0.7-0.4,1.4-0.8,2-1.3c8.3-7.8,16.9-15.1,27.8-18.9c0,0,0.1,0,0.1,0c-0.1,0-0.1,0-0.2,0c1.3-2.6-1-1.5-1.9-1.9
		c-1.2,0.8-2.6,1.2-4,1.1c-2.5,2.3-5.7,2.8-8.9,3c0,0.1-0.1,0.1-0.1,0.2C227.5,81,224.2,80.6,222.1,82.1z"/>
	<path fill="#DEC4A6" d="M264.2,47.3c-8.3-0.9-16.3,0.5-24.2,2.7c0,0-0.1,0-0.1-0.1c-2.3,0.4-4.6,1.1-6.7,2.3c0,0-0.1,0-0.1,0
		c0,0,0.1,0.1,0.1,0.1c-4.3,3.5-10,4.3-14.8,6.8c1.7,0.4,3.4,0.7,3.7,2.9c0,0-0.1,0-0.1,0c0,0,0.1,0,0.1,0.1c6.4-2.3,12-6.7,19.1-7
		c6.7-2.6,13.5-5.1,20.9-5.1c3.3,0,6.5,0.6,9.1,3c0,0,0,0.1,0,0.1c0,0,0,0,0,0h0.9c-0.1-0.1-0.1-0.2-0.2-0.4
		c-2.1-4.8-5.2-8.5-10.3-10.4c-0.2-0.1-0.3-0.1-0.5-0.2C261.5,44,264.2,44.5,264.2,47.3z"/>
	<path fill="#A08263" d="M262,50c-7.4,0-14.2,2.5-20.9,5.1c-0.1,0.8,0.3,1.5,1,1.9c0.1,0,0.2,0,0.4,0c6-1.5,12.2-2.2,18.3-1.9
		c0.1,0,0.2-0.1,0.3-0.1c1.4-1.8,2.4-0.1,4.4-0.2c2-0.1,4.6,1.6,5.6-1.7c0,0,0-0.1,0-0.1C268.5,50.6,265.3,50,262,50z"/>
	<path fill="#DEC4A6" d="M242.4,57c-0.1,0-0.2,0.1-0.4,0.1c-0.9,1.8-3.6,0.1-4.6,2.3c5.1,1.3,9.7-2,14.5-1.4c0.1,0,0.1,0,0.2,0h7.2
		c2.4,0.1,2.8-1,1.7-2.9c-0.1,0-0.2,0-0.3,0C254.6,54.9,248.4,55.5,242.4,57z"/>
	<path fill="#DEC4A6" d="M279.7,61.1c1.6,1.1,3.1,2.5,4.3,4c0,0,0,0,0,0c0.6-4.7-2.9-6.6-6-8.8c0,0,0,0-0.1,0
		C276.4,58.6,278,60,279.7,61.1z"/>
	<path fill="#F4F0E1" d="M320.2,268.2c0.1,0.9,0.4,1.7,1.4,1.7c5.4,0.2,13.9-5.3,10.6-13.4c-4.4,3.5-6.5,9.3-12,11.6c0,0,0,0,0,0
		C320.1,268.1,320.1,268.1,320.2,268.2C320.2,268.2,320.2,268.2,320.2,268.2C320.2,268.2,320.2,268.2,320.2,268.2z"/>
	<path fill="#DABD9F" d="M244,76c0.1,0,0.1,0,0.2,0c4.1-0.9,8.2-1.6,12.3-2.1c4.5-0.6,9.2,0.1,13.5-1.7c0,0,0,0,0,0
		c-8.7-1.2-17.6-0.7-26.1,1.4c-0.6,0.1-1.1,0.3-1.7,0.4c-0.1,0-0.1,0-0.2,0c0,0,0,0,0.1,0C243,74.6,245.2,73.4,244,76z"/>
	<path fill="#D4A17E" d="M222.6,259.8c1.4-1.7,2.8-3.5,4-5.4c0.5-0.8,0.8-2.2-1.5-1.1c-2.3,1.1-4.4,4.7-4.8,5.3
		C219.9,259.2,220.9,260,222.6,259.8z"/>
	<path fill="#180F0C" d="M159.2,207.6c-1.9-3.3-3.5-1.3-5.2-2.1s-3.7-2-5.7-2.2c-3.4,2.7-7.6,0.3-11.4,1.6c-3.8,1.3-5.1,1.3-7.5,2.4
		c-2.4,1.1-2.8,1.2-3.7,0.3c-3-2.9-3.5,0.9-4.5,1.8s0.8,2.1,1.5,3c2.3,2.8,4.5,5.7,7.7,7.5c1.4,0.8,2.9,1.9,3.9,0.6s-1.1-2-1.8-3
		c-0.7-1-1.3-1.4-0.6-2.5c-2-2.8-0.1-3,2.2-2.8c0,0,0.1,0,0.1,0c0,0,0,0,0,0c1.2-5.4,3.9-0.8,6-0.9v0c1.6-0.6,2.8,0.1,3.9,1.2
		c1.1,1.1,4.9,4.1,7.1-0.2c0.2-0.3,1.2-0.1,1.9-0.1c2.4-0.6,4.9-0.2,7,1c0,0,0,0.1,0,0.1c0,0,0.1-0.1,0.1-0.1l4.8,4c0,0,0,0,0,0
		c1.8,0,2.8,2,2.9-1c0,0,0.1,0,0.1,0c0,0,0,0,0,0c-0.8-0.4-0.9-1.1-1-1.9c0,0,0-0.1-0.1-0.1C164,212.4,161,210.8,159.2,207.6z"/>
	<path fill="#6B5046" d="M145.7,221.8c-6.2,1-9.3-4.1-13.7-6.6c0-0.1-0.1-0.1-0.1-0.2c-0.7,1.1-0.1,1.5,0.6,2.5c0.7,1,2.8,1.7,1.8,3
		s-2.5,0.2-3.9-0.6c-3.2-1.8-5.4-4.7-7.7-7.5c-0.7-0.9-2.5-2.1-1.5-3s1.5-4.7,4.5-1.8c0.9,0.9,1.3,0.8,3.7-0.3
		c2.4-1.1,3.7-1.1,7.5-2.4c3.8-1.3,8,1.1,11.4-1.6c-1.2-0.4-1.8-2.2-3.4-1.5c-4.3,1.9-3.8,0.6-2.5-2.9c1.3-3.5-2-1.3-3.3-1.8
		c0,0,0.1-0.1,0.1-0.1l-0.1,0l-14.8,3.9c-0.1,0.1-0.2,0.1-0.2,0.2c-2.9,2.3-7.2,1.4-9.9,4.1c2.7,2.7,4.4,6.1,4.9,9.9
		c5.6,5.6,13,9.2,20.9,10.2c2.3,0.3,5.3,0.3,6.2-1.5c0,0,0,0,0,0C146,223.1,145.9,222.4,145.7,221.8z"/>
	<path fill="#9C735F" d="M139.2,197c0,0-0.1,0.1-0.1,0.1c1.3,0.5,4.6-1.7,3.3,1.8c-1.3,3.5-1.8,4.8,2.5,2.9c1.6-0.7,2.2,1.1,3.4,1.5
		c2,0.2,4,1.4,5.7,2.2s3.3-1.2,5.2,2.1c1.9,3.2,4.8,4.8,7.7,6.6c0.1,0,0.1,0.1,0.2,0.1c0.2-1.7,1.4-2,2.7-1.5c1.3,0.5,3.1,1,2.1-1.6
		c-1-2.6,0.8-4.5-2.5-7.9c-3.3-3.4-3-4.1,1.8-5.3c0,0,0,0,0,0c-5-1.8-10.1-0.4-15.2-0.9c-3-0.3-6-0.2-8-3c-0.1,0-0.1,0-0.2,0
		L139.2,197z"/>
	<path fill="#8D838D" d="M151.4,221c0.5,0.2,2,0.8,1.8-1.2c-0.2-2,6.3-5.1-0.1-7.6c-0.7,0-1.7-0.2-1.9,0.1c-2.2,4.3-6,1.3-7.1,0.2
		c-1.1-1.1-2.3-1.8-3.9-1.2v0l0,0c1,2.5,1.6,5.3,4.7,7.6c-6.1,0.6-7.3-4.7-10.7-6.7c0,0-0.1,0-0.1,0c-2.4-0.2-4.2,0-2.2,2.8
		c0,0.1,0.1,0.1,0.1,0.2c4.4,2.5,7.5,7.6,13.7,6.6c0.2,0.6,0.4,1.3,0.5,2c0,0.1,0.1,0.2,0.1,0.3l1.4-0.1l0,0
		C148.2,222.1,147.8,219.3,151.4,221z"/>
	<path fill="#6B5046" d="M165,217.2c-2.3,2.3-5.2-0.1-7.8,1.9c0.3-3,1.8-4.2,2.9-5.8c0,0,0-0.1,0-0.1c-2.1-1.2-4.6-1.6-7-1
		c6.4,2.5-0.1,5.6,0.1,7.6c0.2,2-1.3,1.4-1.8,1.2c-3.5-1.7-3.2,1.1-3.7,3c0,0,0,0.1,0,0.1c0.8,3.7,4.2,1.6,5,1.2
		c4.5-2.4,9.8-2.1,14.4-4c1.3-0.6,3.4-0.3,3.5-2c0.1-1.7-1.1-2.6-2.6-3.1c0,0-0.1,0-0.1,0C167.8,219.2,166.8,217.2,165,217.2z"/>
	<path fill="#9E6F58" d="M114.2,205.2L114.2,205.2c-1.2-0.1-2.3-0.2-3.1,0.8c0,0,0,0.1,0,0.1c1.3,4.1,5,6.3,8,9
		C118.6,211.3,116.9,207.9,114.2,205.2z"/>
	<path fill="#EAD5B9" d="M285.3,210l4.7,3.1c0,0,0,0,0,0c0,0,0.1,0,0.1,0c1.1-2-0.4-3.4-1.2-4.9c-0.8-1.5-2.5-3.8-0.2-4.7
		c4.2-1.6,2.5-3.6,1.1-6c-0.8-1.4-1.5-2.9-2.2-4.4c-0.3-0.7-0.8-1.5,0-2.3c0.8-0.8,1.2-0.1,2.1,0.4c0.9,0.5,1.8,1.1,2.7,0.3
		c0.9-0.8,0.3-1.8,0-2.7l-3.4-9.7c-2.1-4.9-4.3-9.7-5-15c0.1,0,0.1,0,0.2,0c0,0-0.1-0.1-0.1-0.1c-1.5-2.1-1-4.6-1.1-6.9h0l0,0
		c-3.2,4.6-4,10.5-2,15.8c0.8,2.2,1.4,4.3,0.4,7c-4.5-6.4-4.1-13.7-6.2-20.4c-1.3,3.9-2.3,7.7-5.1,10.5c0,0,0,0.1,0,0.1
		c0.1,2.8,0.6,5.5,1.4,8.2c1.6,6.3,3.6,12.6,5.5,18.8c0,0,0,0,0,0.1c0.8,1.4,0.9,1.6,2,4.7c0,0,0,0.1,0,0.1c0,0,0,0.1,0,0.1
		c1.2,3.1,4.6,5.8,5.9,7.6c0.1,0.1,0.1,0.2,0.2,0.2C285.3,209.9,285.3,210,285.3,210z"/>
	<path fill="#B87E5A" d="M294,216.2C294,216.2,294,216.1,294,216.2c-1.4-1-3.3-1.3-4-3.1c0,0,0,0,0,0l-4.7-3.1l-0.2-0.1c0,0,0,0,0,0
		c-1.8,0.1-3,0.6-3,2.9c-0.2,2.8,0.6,5.6,2.3,7.9c2.2,3.1,1.9,6.3-1,8.4c-5.7,4.1-4.2,10.3-5.2,15.8c0,0,0,0,0,0
		c-0.3,1.2,0.4,2.4,1.6,2.7c1.2,0.3,1.5-1,2.1-1.7c5.9-6.1,8.1-14.2,11.2-21.7c0,0,0,0,0,0C294,221.5,294.3,218.9,294,216.2z"/>
	<path fill="#805C4A" d="M254.8,213.1c0,0-0.1,0-0.1,0c0.1,0.1,0.2,0.1,0.3,0.1C254.8,213.2,254.8,213.2,254.8,213.1z"/>
	<path fill="#805C4A" d="M270.5,210.7c2-4.9,2.3-6.7-3.4-8.4s-11.2-3.7-17.3-3.3c-3.1,0.2-4.6,1.3-4.5,4.3c0.9,0.3,1.3,2.6,2.9,0.9
		v-0.4c3.5,1.2,5.5-4.5,9.4-1.8c3.9,2.7,7.2,3.9,10.6,6.3c1.6,1.1,0.2,2.2-1.2,2.7c0,0,0,0-0.1,0c-3.3,4-6.2,8.2-11,10.8
		c-1.2,0.6-1.9,1.1-2.9,0.3s-0.5-1.9,0.2-2.9c0.7-1,3.9-3.1,1.8-5.9c-1.5,2.8-3.9,4.4-6.7,5.7c-1.7,0.9-3,2.3-5.1,2.1
		c0,0-0.1,0.1-0.1,0.1c-0.1,0.1-0.2,0.2-0.4,0.3c-1,0.8-2.4,1.5-1.7,3.2c0.8,1.9,1.9,2,3.8,1.9c10.1-0.2,19.5-5.2,25.4-13.5
		c0,0,0,0,0-0.1C270.1,212.2,270.2,211.5,270.5,210.7z"/>
	<path fill="#6D544C" d="M243.2,221.1c2.1,0.2,3.4-1.2,5.1-2.1c-0.5-2.9,1.8-5.1,1.9-7.8c0,0,0,0,0,0c-0.1-0.1-0.1-0.1-0.2-0.2
		c-1.3,0.8-2.7-0.1-4.1,0.1c0,0.1,0,0.1,0,0.2c0,0,0.1,0,0.1,0c0.6,1.2,1.2,2.3,0.5,3.7c-1.8,3.7-11,6-14,3.2
		c-0.8-0.8-3.4-2.2-1.2-3.8c2.2-1.6,3.4-2.8,4.9,0.3c1.5,3.1,3.1,1.4,4.8,0.4c-1.2-0.4-2.9,0.7-3.6-0.8c-0.7-1.5,1.1-1.8,2.1-2.5
		s0.9-1.8,0.2-2.1c-0.7-0.3-3.6-0.5-3.7-0.1c-1.4,4.5-5.4,2.7-8.3,3.6c-0.6,0.2-1.1,0.5-1.6,0.9c2.2,0.6,2.5,2.8,4.7,5.2
		c-3.7-1-6.6,1.4-8.6-2.1c-2.1-0.1-3,2.3-4.1,3.8c0,0.1,0,0.2,0,0.2c2.1,1.5,3.9,1.8,7.2,2.3c3.3,0.5,7,2.2,10.2-0.5c0,0,0,0,0.1,0
		c-2.4-1.2-2.1-2.3,0.3-2.8c2.3-0.5,4.7,0.5,6.8,0.8c0.1,0,0.2,0,0.3,0.1C243.1,221.1,243.1,221.1,243.2,221.1z"/>
	<path fill="#D7BC9F" d="M254.9,145.2c0-0.1,0.1-0.1,0.1-0.2l1-1c0,0,0,0,0,0c2.5-4.6,1.9-10.3,6-14.6c-2.8-1.1-6.6,1.2-7-3.3
		c-2.4,2.2-6.8,4.3-0.3,7c1.4,0.5,1.4,1.8,0.8,3c-4.4,8.6-10.1,16-18.5,21c-1,0.6-2.5,1.9-3.5,0.2c-1-1.7,0.9-1.9,1.6-2.8
		c2.5-3,6.7-4,9.2-8.5c-0.1-0.1-0.1-0.2-0.2-0.3c0,0,0,0,0,0c-6.5,4.3-11.8,8-17.5,11.3c-5.8,3.4-10.3,5.1-15.5,7.6
		c-1.2,0.6-2.7,1.3-3.5-0.2c-0.8-1.5,0.7-2.2,1.6-2.8c3.3-2.5,6.7-4.9,10.2-7c3.3-1.9,6.9-3.4,9.3-6.6c2.4-3.2,4-0.8,5.8-1.4
		c1.8-0.6-3.2-2.6,0.1-4.6c1.9-1.2,3.8-2.5,5.5-4c4.9-4.3,8.7-9.4,13.4-13.8c1.8-1.6,2.7-2.1,2.6,0.8l1.9-0.9l7-9
		c-0.1-0.8,0.2-1.6,0.9-2.1c-2-1.8-3.5-1.8-6.2,1.2c-2.7,3-2.6,1.2-2.7-1.1l-9.9,11c-2.9,3.6-6.3,6.9-10,9.7
		c-2.2,1.5-4.1,3.4-5.6,5.7c-3.3,5.7-8.7,8.5-14.1,11.3c-3.8,2-7.3,4.4-10.4,7.3c0,0,0,0,0,0c0,0.1,0,0.1-0.1,0.2
		c2.9-0.1,4.1,0.3,1,2.5s-6.2,4.4-8.5,7.5c-0.5,0.6-1.3,1.1-1,2.1c0.3,1,1.3,0.8,2.1,0.8c1.3,0,2.6-0.1,3.9-0.4
		c9.2-2.8,18.3-5.7,27.4-8.8c2.6-0.9,4.8-3.9,7.5-3.5c4.3,0.7,6.7-1,8.6-4.3c0-0.1,0.1-0.1,0.1-0.2
		C247.9,149.1,250.9,146.8,254.9,145.2z"/>
	<path fill="#E4D0B3" d="M217.5,150.8c5.4-2.8,10.8-5.6,14.1-11.3c1.5-2.3,3.4-4.2,5.6-5.7c3.7-2.8,7.1-6.1,10-9.7l9.9-11
		c-0.1-0.8,0.3-1.6,1-2c0-0.1,0.1-0.1,0.1-0.2c-0.1,0.1-0.1,0.1-0.2,0.2c0.4-3.9-1.1-4.6-4.1-2.3c-2.9,2.2-3.9,3.4-5.7,5.2
		c0,0,0,0.1-0.1,0.1c-4.8,6.2-10.9,11-17.2,15.6c-18,13.2-33.5,29.5-52.4,41.4c-1.9,1.2-4.5,1.4-5.4,4c1-0.4,2-0.8,3-1.2
		c3.4-1.4,6.8-3,10.2-4.5c7.3-3.2,13.8-7.7,20.7-11.3c0,0,0,0,0,0C210.2,155.2,213.7,152.8,217.5,150.8z"/>
	<path fill="#C1A384" d="M280.7,115.6c2.6-7.6,0.8-15.4,1.1-23.1c0.1-0.8-0.3-1.8-1.4-1.6c-1.1,0.2-1.2,1.1-1.3,1.9
		c-0.7,6.1-0.7,6.1-5.5,10.5c-0.4,0.4-0.4,1.2-0.7,1.8c-1.3,2.6-2.8,5.2-4.4,7.7c-0.7,1-1,3.5-3.5,2.3l-7,9
		c3.7,2.8,8.3,2.4,10.5-0.9c1-1.5,1.9-3.1,2.8-4.6c0.9-1.5,1.1-1.4,2-0.8c0.4,0.5,0.5,1.1,0.3,1.7c-4.5,8.2-7.4,17.3-15,23.5
		c-0.7,0.7-1.7,1.1-2.7,1.2c0-0.1,0.1-0.1,0.1-0.2c0,0,0,0,0,0l-1,1c0,0.1-0.1,0.1-0.1,0.2c0,0,0.1,0,0.1-0.1
		c-0.3,1.9-1.6,3.9-0.2,5.8c0.1,0,0.1,0.1,0.2,0.1c7.5-6.7,14.1-14.2,19.9-22.4c0.8-1,1.1-1.4,2.1-0.4l0,0
		C280.2,124.6,279.3,119.7,280.7,115.6z"/>
	<path fill="#D3B89A" d="M255.1,145.1c0,0-0.1,0-0.1,0.1c-4,1.6-7,4-6.9,8.9c0,0,0,0,0,0.1c2.5-0.4,4.9-1.4,7-3
		c-0.1-0.1-0.1-0.1-0.2-0.2C253.5,149,254.8,147,255.1,145.1z"/>
	<path fill="#D9BD9E" d="M275.2,159.5c2.1,6.7,1.7,14,6.2,20.4c1-2.7,0.4-4.8-0.4-7c-2-5.3-1.2-11.2,2-15.8l0,0
		c-1.7-7-0.5-14.3-1.7-21.4c-1.7,2.4-0.7,5.1-1.4,7.3s0,6.3-4.9,3.9c-1.4-0.7-4.7,0.1-5.4-1c-0.7-1.1-1.7,0.5-1.9,1.3
		c-0.3,1.5-0.5,3-0.6,4.6c0,0.1,0,0.2,0,0.3c1.4,5.9-0.1,12.3,2.9,18c0,0,0.1-0.1,0.1-0.1C273,167.2,274,163.5,275.2,159.5z"/>
	<path fill="#180E0D" d="M222.2,217.2l3.9-3.1c0.5-0.3,1-0.7,1.6-0.9c2.9-0.9,6.9,0.9,8.3-3.6c0.1-0.4,3-0.2,3.7,0.1
		c0.7,0.3,0.8,1.4-0.2,2.1s-2.8,1-2.1,2.5c0.7,1.5,2.4,0.4,3.6,0.8c1.6-1.1,2-3.8,4.5-3.8c0.1-0.1,0.3-0.1,0.4-0.2
		c1.4-0.2,2.8,0.7,4.1-0.1c0.1,0.1,0.1,0.1,0.2,0.2c2-0.5,3,1,4.4,1.9c0,0,0.1,0,0.1,0c0,0.1,0.1,0.1,0.1,0.2c0,0,0.1,0,0.1,0
		c0,0,0,0,0,0c2.1,2.8-1.1,4.9-1.8,5.9c-0.7,1-1.2,2.1-0.2,2.9s1.7,0.3,2.9-0.3c4.9-2.6,7.8-6.8,11-10.8c-2.5-1.2-4.6-2.7-7.7-2.6
		c-3.2,0.1-7.4-2.4-11-4.1v-0.1c-1.6,1.7-2-0.5-2.9-0.9c0,0-0.1,0-0.1,0c-0.2,0.7-0.5,1.1-0.8,1.4c-0.6,0.5-1.3,0.5-2,0.2
		c-0.3-0.1-0.7-0.3-1-0.6c-1.5-1.1-3.9-0.4-3.9-0.3c-1.7,3-4.1,1.4-6.2,1.3c0,0,0,0-0.1,0c0,0-0.1,0-0.1,0c0,0.5,0,1.3-0.2,1.4
		c-5.1,2.1-8.3,6.4-11.9,10.1c-1.1,1-3.3,2.3-1,4.3c0,0,0.1-0.1,0.1-0.1C219.2,219.5,220,217.1,222.2,217.2z"/>
	<path fill="#BBA082" d="M148.8,191.8c-9,1-18.7,0-24.7,9.2l0.2-0.1l14.8-3.9l0.1,0l8.6-2.9l0.2-0.1c1.3-1.4,3.5-0.7,5-1.8
		c0.1,0,0.1-0.1,0.2-0.1C151.7,191.9,150.2,191.8,148.8,191.8z"/>
	<path fill="#DEC7A9" d="M102.5,137.6c9.4-8,17.2-17.6,25.4-26.7c0.9-1.2,1.6-2.5,2.2-3.8c2.2-3.3,4.7-6.3,7.5-9
		c1.8-1.8,1.5-0.9,4,0c2.8,0.9,5.8,0.1,7.8-2c3.3-4,6.9-8,8.7-13l0.1-0.2c0,0,0,0,0,0c-1.2,0.3-2.1,2.3-3.3,1.4
		c-1.2-0.9-0.6-2.2-0.1-3.6c0.5-1.4-0.5-1.6-1.5-1.8l-0.2,0.2l-21,22.3l-0.5,0.5c0-0.3,0-0.5,0-0.8c0.2-3.1,1.4-4.5,2.7-5.7
		c4.3-3.9,6.4-9.1,8.8-14.2c0.4-0.7,1.2-1.3,0.3-2.3s-2.1-0.2-2.6,0.4c-3.6,4.1-4.7,1.3-5.3-2.4c-1.8,1.2-3.6,1.9-4.5,3.1
		c-5.8,7.8-14.5,13.2-18.8,22.3c-3.4,7.2-10.3,11.6-15,17.8l0.1,0l9.7-3.5c1.1-0.4,2.1-2.3,3.5-0.8c1.4,1.5-0.7,2.5-1.3,3.7
		c-2.1,4.1-7.6,5.7-7.7,11.3c-0.1,5.6-2.9,8.9-7.4,11.3c2.6-0.4,5.5,1,8.1-1.2c0,0,0,0,0,0c-0.1,0-0.2,0-0.2,0
		C101.4,139.7,101,138.9,102.5,137.6z"/>
	<path fill="#DEC7A9" d="M109.1,96.1c5.5-3.9,9.1-9.2,12.4-14.9c0.2-0.4,0.4-0.7,0.6-1.1C116.5,84.3,112,89.8,109.1,96.1z"/>
	<path fill="#D4B99C" d="M163.9,96c0.2-0.2,0.3-0.4,0.5-0.6c1.6-2.7,3.1-5.4,5-8c2-2.8,1.5-1.7-0.9-1.9s-0.4-1.7,0.1-2.5
		c2.7-4.8,7.6-7.2,11.5-10.7c1.3-1.2,3.1-1.9,4.5-3.1c4.6-4,9.3-7,15.5-4.1c4.2-0.1,7.4-2.8,11-4c0,0,0,0,0,0
		c-5.7-1.7-11.1-1.1-16.6,0.7c-1.4,0.5-2.2-0.3-2.3-1.6c0,0,0,0,0,0c-1.9,0-3.2,1.3-4.8,2.1c-4,2-7.6,5-12.1,5.8c0,0,0,0-0.1,0
		l-15,12l-1.9,2.8l-0.1,0.2c-1.8,5-5.4,9-8.7,13c-2,2.1-5,2.9-7.8,2c-2.5-0.9-2.2-1.8-4,0c-2.8,2.7-5.3,5.7-7.5,9
		c2.2,0.4,3.1-3.4,5-2.1c1.9,1.3-2.1,3.1-0.6,5.3c3.4-1.1,3.7-4.7,5.7-7c2-2.3,2.3-3.8,4.1-2.6c1.8,1.2-0.5,2.8-1.2,4.1
		c-2.8,5.4-5.8,10.7-8.5,16.1c-1.3,2.4-2.7,4.6-4.4,6.7c0,0.2-0.1,0.3-0.1,0.5c2.4,0,3.4-2,4.8-3.3l24-22.7c0,0,0,0,0.1,0
		c0,0,0,0-0.1-0.1C159.4,99.1,161.8,97.7,163.9,96z"/>
	<path fill="#BB9D7F" d="M194.4,61.8c5.5-1.8,11-2.4,16.6-0.7c0,0,0,0,0.1,0c2.4-0.3,4.7-1,6.9-2.1c0.1,0,0.2,0.1,0.3,0.1
		c4.8-2.5,10.5-3.2,14.8-6.8c0,0-0.1-0.1-0.1-0.1c-8.8,0.2-17.1,2.8-25.7,4.6c-1.4,0.3-3.1,1.8-4.2-0.6c0,0,0,0,0,0l-7.1,1.9l0,0
		l-4,2c0,0,0,0.1,0,0.1C192.2,61.6,193,62.3,194.4,61.8z"/>
	<path fill="#EEE2C9" d="M175.1,68.1C175.1,68.1,175.1,68.1,175.1,68.1c3.7-4.3,9.4-6.3,13.1-11.6c-4.1-0.1-5.8,3.1-8.5,4.3
		c-7.9,3.3-14.8,8.8-19.7,15.9c-0.8,1.2-1.3,2.3,0.1,3.4L175.1,68.1z"/>
	<path fill="#D9BD9E" d="M289,172.1c0.1-3.7-0.1-7.2-4.8-8c-0.1,0-0.1,0-0.2,0c0.7,5.3,2.9,10.1,5,15
		C289.9,176.7,288.9,175.9,289,172.1z"/>
	<path fill="#C1A384" d="M272.7,82.5c-4.9,2.9-9.8,2.3-15.1,2.4c-3.5,0-6.9,3.4-10.4,5.3c3.6,3.7,8.2,1.4,12.1,1.3
		c3.9-0.1,6.8,0.6,8.9-2.8c0.2-0.3,1.2-0.2,1.8-0.3s0.6,2.6,0.2,3.7c-0.8,2.3-1.9,4.5-3.3,6.6c-2.8,4.1-5,8.6-8.7,12.2
		c0,0.1-0.1,0.1-0.1,0.2c-0.7,0.4-1.1,1.2-1,2c0.1,2.3,0,4.1,2.7,1.1c2.7-2.9,4.1-3,6.2-1.2c0,0,0.1,0.1,0.1,0.1
		c1.7-1.5,1.8-3.8,2.7-5.6c3.4-7.3,6.3-14.8,9.4-22.3c-0.1-0.1-0.2-0.1-0.3-0.2C276,84,273.6,82,272.7,82.5z"/>
	<path fill="#D7BC9F" d="M266.9,98.7c1.4-2.1,2.5-4.3,3.3-6.6c0.4-1.1,0.4-3.8-0.2-3.7s-1.6,0-1.8,0.3c-2.1,3.4-5,2.7-8.9,2.8
		c-3.9,0.1-8.5,2.4-12.1-1.3c0,0-0.1-0.1-0.1-0.1c-1.7,2.4-4.3,3.5-6.9,4.5c-2.5,1-3.7,0-4.2-2.3c0-0.1,0-0.1,0-0.2
		c-3.6,1.4-6.7,3.9-9,7c0,0,0,0,0.1,0c6.1,3.9,12,2.1,17.9-1.4c-0.1,2.7-3,4.5-0.9,6.5s2.4,4.6,1.2,6.7s0.3,3.3,2.7,3.2
		c0.1,0,0.1-0.1,0.2-0.1c1.9-1.7,2.8-2.9,5.7-5.2c3-2.3,4.5-1.6,4.1,2.3c0.1-0.1,0.1-0.1,0.2-0.2C261.8,107.4,264,102.8,266.9,98.7z
		"/>
	<path fill="#E4D0B3" d="M182.3,156.6c-4.9,2.8-10.5,4.6-14.2,9.2C173.1,163.1,179.4,162.5,182.3,156.6z"/>
	<path fill="#CDB091" d="M46.1,217.1c1.2,1.3,2.8,2.3,4.6,2.7c2.6,0.8,3.9-0.3,4.8-3.1c0.9-2.8-1.7-2.5-3.4-2.6c0,0.2,0,0.4,0,0.6
		C51.7,218.8,48.1,216.4,46.1,217.1z"/>
	<path fill="#EFDEC6" d="M172,110.8c3.2-8.3,9.4-14.7,15-21.1c9.9-11.2,21.9-20,34.8-27.6c0,0,0.1,0,0.1,0c-0.3-2.2-2-2.6-3.7-2.9
		c-0.1,0-0.2,0-0.3-0.1c-2.1,1.1-4.5,1.8-6.9,2.1c0,0,0,0,0,0c-3.6,1.2-6.8,3.9-11,4c0,0,0,0,0,0c-6,4.2-12.3,7.9-18.2,12.3
		c-4.1,3-7.6,6.7-10.2,11.1c-2,3.1-4.6,5.7-7.7,7.6c0.1-0.2,0.3-0.5,0.4-0.7c-0.2,0.2-0.3,0.4-0.5,0.6c-2.1,1.7-4.5,3.1-5,6
		c0,0,0,0,0.1,0.1c0.8,1,2.3,1.3,2.8,0.2c3.9-6.7,12.7-6.2,17.4-11.9c-3.2,4.4-4.7,9.5-7.5,13.7c-7,10.5-12.7,21.7-19.4,32.3
		c-0.9,1.4-2,3.9-0.6,4.7c1.4,0.8,3-1.1,3.9-2.5c4.8-7.3,10.1-14.3,13.4-22.5c0.7-1.8,1.4-3.7,2.9-5c0,0,0.1-0.1,0.1-0.1
		C172,111,172,110.9,172,110.8z"/>
	<path fill="#C1A586" d="M134.6,120.9c2.7-5.4,5.7-10.7,8.5-16.1c0.7-1.3,3-2.9,1.2-4.1c-1.8-1.2-2.1,0.3-4.1,2.6
		c-2,2.3-2.3,5.9-5.7,7c-1.5-2.2,2.5-4,0.6-5.3c-1.9-1.3-2.8,2.5-5,2.1c-0.6,1.3-1.3,2.6-2.2,3.8c-8.2,9.1-16,18.7-25.4,26.7
		c-1.5,1.3-1.1,2.1-0.5,3.3c0.1,0,0.2,0,0.2,0c10.3-1.6,19.9-6.1,27.8-13c0.1-0.1,0.1-0.2,0.2-0.3
		C131.8,125.5,133.3,123.3,134.6,120.9z"/>
	<path fill="#DCC3A5" d="M144.8,153.2c-3.8,3.1-7.2,6.7-10.8,10.1c-0.7,0.7-1.3,1.8-1.2,2.5c0.1,0.7,0.8,0.9,1.7,0.6l1.7-0.4
		c10.1-2.8,17-9.9,23.6-17.5c4-4.6,6.9-10,9.9-15.3c0.8-1.3,3.8-1.6,2.4-3.4s-3.2,0.3-4.7,1.2C158,136.5,152.9,146.4,144.8,153.2z"
		/>
	<path fill="#A7896B" d="M93.3,136.2c0.7-0.8,1.7-1.7,0.9-3.1c-0.8-1.4-2-0.5-3.1-0.2c-1.9,0.6-3.8,1-5.8,1.2
		c-7,0.3-13.1,3.8-20.2,5.8l2.9,2.2l0.1,0c4.6,1.9,9.3,0.7,14,1C86,141.1,90.4,139.8,93.3,136.2z"/>
	<path fill="#D7BC9F" d="M264.5,77.9c-7.9-0.3-15.3,1-21.5,6.1c0.7,0.4,1.1,1.2,1,2c0,0,0,0,0,0C250.6,82.6,256.9,78.8,264.5,77.9z"
		/>
	<path fill="#D7BC9F" d="M219.3,96.5c-0.9,0.5-1.3,1.5-1.3,2.5c0.1,0,0.2-0.1,0.3-0.1c6.4-2.3,11.5-6.6,17-10.3
		c0.2-0.2,0.5-0.3,0.7-0.5C229.5,89,224.9,93.7,219.3,96.5z"/>
	<path fill="#967A5B" d="M207.4,56.8c8.6-1.8,16.9-4.4,25.7-4.6c0,0,0.1,0,0.1,0c2.1-1.1,4.4-1.9,6.7-2.3c0.1,0,0.1,0,0.2,0
		c1-3.6-2-2.2-3.2-2.2c-3.5-0.1-7,0.2-10.5,0.3c-0.1,0-0.2,0-0.3,0h-1c-0.1,0-0.1,0.1-0.2,0.1c0.1,0,0.1,0,0.2,0
		c-5.4,4.8-12.3,5-18.9,6c0,0-0.1,0-0.1,0l-2.9,2c0,0,0,0.1,0,0.1C204.2,58.7,206,57.1,207.4,56.8z"/>
	<path fill="#BB9D7F" d="M225.1,48.1c-0.1,0-0.1,0-0.2,0c-6.3-0.4-12.3,1.8-18.3,3.3c-1,0.3-4.3,1.2-0.5,2.7c0,0,0.1,0,0.1,0
		C212.8,53.1,219.7,52.9,225.1,48.1z"/>
	<path fill="#6B5046" d="M144.9,218.9c-3.1-2.3-3.7-5.1-4.7-7.6l0,0c-2.1,0.1-4.8-4.5-6,0.9c0,0,0,0,0,0
		C137.6,214.2,138.8,219.5,144.9,218.9z"/>
	<path fill="#C4BDB8" d="M157.2,219.1c2.6-2,5.5,0.4,7.8-1.9c0,0,0,0,0,0l-4.8-4c0,0-0.1,0.1-0.1,0.1
		C159,214.9,157.5,216.1,157.2,219.1z"/>
	<path fill="#573D33" d="M259.2,208.4c3.2-0.1,5.3,1.4,7.7,2.6c0,0,0,0,0.1,0c1.4-0.5,2.8-1.6,1.2-2.7c-3.4-2.4-6.7-3.6-10.6-6.3
		c-3.9-2.7-5.9,3-9.4,1.8v0.4v0.1C251.8,206,256,208.5,259.2,208.4z"/>
	<path fill="#C1B5BA" d="M254.9,213.3c-0.1,0-0.2-0.1-0.3-0.1c-1.4-0.9-2.4-2.5-4.4-1.9c0,0,0,0,0,0c-0.1,2.7-2.4,4.9-1.9,7.8
		C251,217.7,253.4,216.1,254.9,213.3C254.9,213.3,254.9,213.3,254.9,213.3C254.9,213.3,254.9,213.3,254.9,213.3z"/>
	<path fill="#90868E" d="M241,215.1c-1.7,1-3.3,2.7-4.8-0.4c-1.5-3.1-2.7-1.9-4.9-0.3c-2.2,1.6,0.4,3,1.2,3.8c3,2.8,12.2,0.5,14-3.2
		c0.7-1.4,0.1-2.5-0.5-3.7c0,0-0.1,0-0.1,0c-0.1,0-0.2,0-0.4,0C243,211.3,242.6,214,241,215.1z"/>
	<path fill="#CCC0B7" d="M222.2,217.2c2,3.5,4.9,1.1,8.6,2.1c-2.2-2.4-2.5-4.6-4.7-5.2L222.2,217.2z"/>
	<path fill="#E4D0B3" d="M256.1,125.1l0.1-0.1c0.1-2.9-0.8-2.4-2.6-0.8c-4.7,4.4-8.5,9.5-13.4,13.8c-1.7,1.5-3.6,2.8-5.5,4
		c-3.3,2,1.7,4-0.1,4.6c-1.8,0.6-3.4-1.8-5.8,1.4c-2.4,3.2-6,4.7-9.3,6.6c-3.5,2.1-6.9,4.5-10.2,7c-0.9,0.6-2.4,1.3-1.6,2.8
		c0.8,1.5,2.3,0.8,3.5,0.2c5.2-2.5,9.7-4.2,15.5-7.6c5.6-3.3,11-7.1,17.5-11.3c0.2-0.1,0.4-0.2,0.5-0.4c-0.1,0.2-0.2,0.4-0.3,0.7
		c-2.5,4.5-6.7,5.6-9.2,8.5c-0.7,0.9-2.6,1.1-1.6,2.8c1,1.7,2.5,0.4,3.5-0.2c8.4-5,14.1-12.4,18.5-21c0.6-1.2,0.6-2.5-0.8-3
		c-6.5-2.7-2.1-4.8,0.3-7L256.1,125.1z"/>
	<path fill="#D3B89A" d="M256.1,125.1l-1,1c0.4,4.5,4.2,2.2,7,3.3c-4.1,4.3-3.5,10-6,14.6c0,0.1-0.1,0.1-0.1,0.2
		c1-0.1,2-0.5,2.7-1.2c7.6-6.2,10.5-15.3,15-23.5c0.2-0.6,0.1-1.2-0.3-1.7c-0.9-0.6-1.1-0.7-2,0.8c-0.9,1.5-1.8,3.1-2.8,4.6
		c-2.2,3.3-6.8,3.7-10.5,0.9l-1.9,0.9L256.1,125.1z"/>
	<path fill="#E4D0B3" d="M184.6,69.2c-1.4,1.2-3.2,1.9-4.5,3.1c-3.9,3.5-8.8,5.9-11.5,10.7c-0.5,0.8-2.5,2.3-0.1,2.5
		s2.9-0.9,0.9,1.9c-1.8,2.6-3.3,5.3-5,8c-0.1,0.2-0.3,0.5-0.4,0.7c3.1-1.9,5.7-4.5,7.7-7.6c2.6-4.4,6.1-8.1,10.2-11.1
		c5.9-4.4,12.2-8.1,18.2-12.3c0,0,0,0,0,0C193.9,62.2,189.2,65.2,184.6,69.2z"/>
</g>
</svg>
