<?xml version="1.0" encoding="utf-8"?>
<!-- Generator: Adobe Illustrator 21.0.0, SVG Export Plug-In . SVG Version: 6.00 Build 0)  -->
<svg version="1.1" baseProfile="tiny" id="图层_1"
	 xmlns="http://www.w3.org/2000/svg" xmlns:xlink="http://www.w3.org/1999/xlink" x="0px" y="0px" width="637.6px" height="637.6px"
	 viewBox="0 0 637.6 637.6" xml:space="preserve">
<title>dress3_fan</title>
<g>
	<path fill="#FFFFFF" stroke="#000000" stroke-miterlimit="10" d="M637.6,637.6H3.5c-2.8,0-3.4-0.6-3.4-3.4
		c0.1-210.3,0.1-420.5,0-630.7c0-2.8,0.6-3.4,3.4-3.4h634.1c0,86.3,0,172.7,0,259C637.6,385.2,637.6,511.4,637.6,637.6z M292.2,7.3
		c-6.4,0-12.8,1.1-18.8,3.2c-10.5,3.4-14.7,9.3-14.5,20.4s4.3,18.1,9.2,26.2c5,8,8.2,16.9,9.5,26.2c0.9,7.4,1.9,14.9,2.9,22.3
		c0.3,1.7,0,3.5-0.8,5c-3.6,6.5-7.2,12.9-10.5,19.5c-1.7,3.7-5.2,6.2-9.2,6.8c-16.3,3.4-31.7,10.3-45.1,20.3
		c-29.4,21.3-51,49.8-71.6,79.2c-2.6,3.7-2.4,7.8-0.4,11.8s3.3,6.2,5.2,9.1c1.9,2.9,1.2,4.5-1.6,6c-5.9,3.2-11.7,6.7-17.2,10.5
		c-22.4,15.3-42.1,33.7-63.1,50.7c-2.9,2.4-4.3,5.7-4.6,9.5c-1.7,17.7,10.4,38.7,26.7,46.4c7.2,3.4,8.4,3,12.5-3.8s7.3-6.2,11-0.1
		c0.7,1.2,0.8,1.9-0.4,2.8c-5.2,3.6-9.4,8.2-13.9,12.5c-17.8,16.7-36.2,32.7-51.1,52.2c-7.1,9.3-14.5,18.5-18.4,29.8
		c-1,2.8-1.1,5.9-0.3,8.8c6.2,20.1,18.9,33.8,39.6,39.2c2.9,0.7,5.4,2.7,6.6,5.5c11.8,22.8,29.5,39.8,52.2,51.6
		c13.6,7.1,28.1,11.6,43.1,14.8c5.1,1.1,6.2,0.3,7.9-4.8c0.8-2.6,1.7-5.2,2.4-7.9s1.6-3.2,4.2-1.5c10.2,6.4,19.8,13.6,29.8,20.1
		s22.9,11.7,36,12.7c5.5,0.4,10.7-0.4,15.2-4s5.3-3.4,10-0.6c9.7,5.8,19.1,11.9,29.3,16.6c15.4,7.1,31.2,9.7,47.7,4.3
		c6.4-2.1,6.9-2.6,7-9.5c0.1-5.1,1.2-6.6,6.2-7.9l22.1-5.7c7.6-1.9,8.6-3.4,13.7,5.4c6.2,10.6,16,13.4,27.4,8.7
		c5.6-2.4,11-5.4,16-8.9c11.6-7.8,21.4-17.6,31.5-27.2c1.6-1.5,2.7-1.8,4.6-0.4c7.2,5.3,15.4,7.7,24.4,6.3
		c18.5-2.9,32.2-13.4,43.2-27.9c1.5-2.1,2-4.6,1.4-7.1c-1.7-8.9,0.1-16.8,6.2-23.7s9.4-11,14.1-16.6c2.9-3.4,2.9-3.4,5.6,0.3
		c4.7,6.2,9.2,6.8,15.3,2c2.6-2,4.7-4.5,6.4-7.3c3.3-5.6,6.4-11.3,10.1-16.6s3-9.1,0-13.9c-4.8-7.8-9.8-15.4-15.3-22.7
		c-13.1-17.5-28.4-33.3-43.2-49.3c-2-2.1-1.8-3.1,0.3-4.9c8.6-7.2,13.8-16.6,16.5-27.5c1.1-5.1,1.9-10.4,2.2-15.6
		c0.2-2.9,1.5-5.6,3.7-7.5c2.7-2.5,4.9-5.4,6.6-8.6c2.9-5,2.4-9.8-1.3-14.2c-2.6-3-5.5-5.8-8.6-8.3c-21.7-19.1-46.1-34.3-70.6-49.2
		c-2.3-1.4-2.7-2.2-0.7-4.3c4.2-4.5,8.4-8.9,11.8-14.1c4.4-6.9,4.1-12.7-1.1-18.9c-3.3-3.9-6.6-7.9-10-11.7
		c-25.3-28.1-53.2-53.6-81.7-78.3c-4.7-4.1-9.3-8.3-14.7-11.6s-10.5-6-16.2-4.3s-8.9-0.8-12.5-3.8s-5.1-4-7.6-6.1
		c-3.9-3.3-6.3-7.9-6.7-13c-0.6-7.7-0.3-15.2,2.5-22.5L371,54.3c3.4-9.2,5.9-18.6,6.2-28.4c0.2-5.2-1-9.8-5.8-12.5
		c-7.4-4.2-15.7-6.7-24.2-7.2c-9.4-0.5-18,2.2-26.3,6.3c-2.4,1.4-5.4,1.3-7.8-0.1C306.7,8.9,299.5,7.2,292.2,7.3z"/>
	<path fill="#FFFFFF" stroke="#000000" stroke-miterlimit="10" d="M275.7,448.3c0-4.8-0.2-9.6,0-14.4c0.8-18.6,6.5-36,13.5-53.1
		s14.4-34.6,20.9-52.2c4.4-11.9,5.9-24.2,7.8-36.6c0.9-5.6,1.2-5.9,6.7-5l15.1,2.6c4.2,0.7,6.5,3,7.3,7.3
		c1.6,8.5,7.2,13.2,15.8,13.7c2.5,0.2,5,0.2,7.5,0c3.4-0.4,4.4,0.6,4.3,4.2c-0.8,15.6-0.4,31.3,1.2,46.8c1.3,12,3.8,23.9,7.7,35.4
		c0.3,1,0.4,2.2,1.7,3.1c-1.5-10.2-3-20.3-4.4-30.3c-2.6-19.3-2.9-38.9-1-58.3c0.1-2.9,1.8-5.5,4.4-6.9l14.4-8.1
		c2.8-1.6,5.3-1.3,8.1,0.4c6.8,4,9.6,9.1,9.4,17.6c-0.8,38.6,9.7,74.5,27,108.7c3.8,7.5,7.9,14.7,11.8,22.1c1.9,3.6,1.1,5.5-2.7,6.8
		c-10.4,3.6-19.3-0.6-22.9-11c-0.9-2.5-2.8-3.4-5-3.9c-7.6-1.8-15.7-0.9-22.7,2.5c-4.6,2-9,4.4-13.2,7.1
		c-15.8,10.9-33.1,13-51.6,9.7c-10.6-1.9-20.8-5.2-31.3-7.5c-8.6-1.9-16.6-0.9-24.1,3.9s-12.7,4.4-19.6,3
		c-13.4-2.7-24.9-8.7-34.2-18.9c-3.1-3.3-5.5-7.3-7-11.7c-3.6-11.1-15.2-19.3-30.3-18.3c-2.7,0.2-5.5,0.6-8.2,0.8s-2.4-0.1-1.8-2
		c9.4-32.1,22-62.7,43.6-88.8c9.4-11.4,10.2-11.5,24.2-6.6c14,4.9,27.5,4.6,41.2,0.1c5.4-1.7,6.9-4,7.1-9.6c0-0.9,0-1.7,0-2.6
		c0-6.4,0.7-7.2,6.8-8.7l4.7-1.3c4.6-1.2,5.4-0.5,5.1,4.1c-0.9,16-4.5,31.6-10.6,46.4c-7.1,16.8-14.9,33.3-21.2,50.4
		c-6.3,17.1-9.9,36.6-7.4,55.9c0.1,0.9,0.2,1.7,0.3,2.6c0.1,0.9,0.3,0.3,0.5,0.5L275.7,448.3z M426.2,430.7l0.9-0.2
		c0.2-0.3,0.3-0.6,0.4-1c0-1-0.2-2-0.3-3c-4.3-40.3-17-78.2-32.8-115.2c-0.6-1.5-1.6-2.8-2.9-3.8c-0.6-0.5-1.2-1-2-0.5
		s-0.5,1.3-0.1,2l2.9,6.1c14.7,32.4,23.4,66.6,30.8,101.2L426.2,430.7z M240.9,341.4l-16.5,73l0.9,0.3c2.9-5.2,6-10.2,7.1-16.2
		c3.1-17.3,6.4-34.6,9.6-51.9C242.4,344.8,242.8,343.1,240.9,341.4z"/>
	<path fill="#FFFFFF" stroke="#000000" stroke-miterlimit="10" d="M246.1,530.3c1.9-2.1,3-4.9,3.1-7.7c1.6-17.1,3.2-34.1,4.9-51.1
		c0.2-1.6,0.1-3,2.4-2.8c11.4,1,22.4-0.4,32.8-5.9l0.6,0.7c-1.4,3.6-2.8,7.3-4.3,10.9c-8.2,20.2-17.2,40.2-24.2,60.9
		c-6.1,18.2-7.9,37.1-6.6,56.2c0.1,1.2,0.1,2.5,0.3,3.7s-0.7,3.3-3.1,3.3c-10.1,0.3-19.7-1.8-28.3-7.3s-15.4-11.1-23.2-16.4
		c-12.1-8.2-24.7-16.4-40.2-16.9c-3.2-0.1-4.3-1-3.5-4.5c2.3-9.9,6.1-19.3,9.6-28.8c1.8-4.7,4.7-8.9,8.5-12.2
		c16.3-14,24-32.5,27.6-53.1c1-5.3,1.7-10.6,2-16c0-0.8,0.5-1.7-0.8-2.6c-1.9,7.2-4.1,14.2-5.5,21.3c-3.8,19.4-13.2,37.3-27.1,51.3
		c-8.9,9-13.8,20-16.6,32.2c-0.9,4-1.9,8-3.1,11.9c-2.4,7.4-3.1,14.4,2.4,21c-0.6,0.2-1,0.5-1.2,0.4c-20.5-8.8-39.8-19.4-54.4-36.8
		c-4.8-5.8-9-12-12.6-18.6c-1.8-3.3-1.7-6.2,0.1-9.5c6.6-12.2,12.9-24.5,19.6-37.3c-1.6,0.2-2,1.2-2.6,1.8c-6.9,8.2-11.2,18-16,27.4
		c-1.6,3.2-2.3,8.1-5.4,8.9s-6.3-2.4-9.5-3.6c-17.1-6.8-27.2-19.9-33.3-36.8c-2.6-7.1-1.3-13.2,3.2-18.9
		c9.4-12.2,19.6-23.7,30.6-34.5l34.3-32.6c2.3-2.2,3.8-2.8,5.3,0.8c1.5,3.6,6.5,7.8,5.8,11.7s-5.3,6.6-8.2,9.9
		c-9.7,10.9-20.2,21.2-27.9,33.7c-3.2,5.3-6.2,10.7-7.4,17l4.6-7.1c9.9-15.5,20.2-30.7,34.7-42.5c8.1-6.6,7.8-6.5,16.6-0.9
		c6.4,4.1,13.1,7.8,19.8,11.4c2.7,1.4,2.8,2.6,1.5,5.2c-12.6,25.5-23.7,51.8-33.3,78.6l-0.6,1.8c-0.3,0.7-0.6,1.5,0.3,2
		s1.3-0.4,1.7-1c2.3-3.4,4.3-7.1,5.8-10.9c8.5-24.1,21.5-45.6,36.9-65.8c1.9-2.6,4.3-4,7.6-3.9c4.7,0.2,9.2-2.1,11.8-6
		c2.1-3,4.5-3.4,8.1-2.8c10.7,1.8,18.7,6,24.2,16.5c6.4,12.4,17.3,21.3,30.2,27c4.6,2,6.3,5,5.8,10c-1.5,17.2-2.8,34.4-4.2,51.6
		C245.6,526.3,245,528.2,246.1,530.3z"/>
	<path fill="#FFFFFF" stroke="#000000" stroke-miterlimit="10" d="M412.3,598.2c3-3.1,3.2-6.1,3.1-9.3c-0.2-19-3.4-37.6-7-56.1
		c-4.5-23.2-9-46.4-13.7-69.5c-0.6-3.1,0.2-4.5,2.9-5.7c5.3-2.3,10.3-5,15.6-7.4c5.3-2.4,5.8-0.8,6,3.5s2.4,7.1,6.8,8.1
		c6.4,1.5,12.6,4.2,19.4,3.9c0.9-0.2,1.8,0.4,2,1.4c0,0.1,0,0.2,0,0.3c3.9,21.5,15.3,40,24.6,59.3c5.2,10.7,8.7,22.1,12.7,33.2
		c0.8,2.3,0.8,3.8-2.3,4.5c-9.9,2.5-17.6,8.7-24.8,15.5c-7.2,6.8-13.6,13.3-21.1,19.1c-4.1,3.3-8.8,5.9-13.8,7.5
		c-6.1,1.9-9.3,0.7-11.6-5.3c-2.3-6-7.5-9-14.1-8.6c-10.1,0.5-20.3,0.3-30.2,2.7c-4.8,1-9.3,2.9-13.4,5.5c-4.4,3-7,6.8-6.1,12.3
		c0.3,2.2-0.7,2.7-2.6,3c-17.7,3.1-34,0.3-48.6-10.8c-5.2-3.9-10.7-7.4-16.5-10.4c-5.2-2.7-10.6-4.6-16.5-4.5
		c-3.5,0.1-4.1-1.5-4.2-4.4c-0.9-17.9,1.2-35.8,6.3-53c5.6-19.2,15.2-36.7,23.9-54.5c2.3-4.6,4.7-9.1,6.8-13.8
		c1.1-2.5,2.3-3.1,5.1-2.2c18.4,6.3,37.8,8.9,57.2,7.4c8.7-0.6,17.4-2.2,25.8-4.7c3-0.9,4-0.4,4.9,2.6c12.8,41.6,21.3,84,23.1,127.6
		C412.2,596.3,412.2,596.8,412.3,598.2z"/>
	<path fill="#FFFFFF" stroke="#000000" stroke-miterlimit="10" d="M348.1,181.2c-0.3-3.9-0.7-7.8-1-11.7s-0.8-8.7-1-13.1
		s1.5-5.3,5.2-5.3s4.5,0.3,6.7,0.6s3.5,2.9,4.1,5.1c4.1,14.7,9.2,29,15.3,43c10.8,24.7,23.9,48.1,40.4,69.5c0.7,1,1.7,1.9,2.8,2.6
		c-0.5-0.9-0.9-1.8-1.4-2.7c-12-21.1-24.2-42-35.3-63.5c-7.6-14.8-12.2-30.6-16.7-46.4c-1.3-4.6,0.1-9.4,0.8-14.1
		c0.4-2.5,2.7-2.7,4.8-2.6c6.6,0.3,11.8,3.7,16.5,8c14.8,13.6,29.8,27,44.5,40.8c12.5,11.5,23.8,24.3,33.7,38.1
		c1.8,2.5,5.1,5.6,4.6,7.7c-0.5,2.1-5,3-7.8,4.4s-5.5,2.3-8.2,3.7c-9.5,4.3-16.8,12.5-20,22.5c-1.9,5.8-4.7,11.3-7.3,16.8
		c-1.5,3.2-3.7,3.8-6.7,2.1c-1.7-0.9-3.3-1.8-4.8-2.9c-6.5-4.9-13.5-5.6-20.9-2.8c-5.1,1.9-10.1,4.4-15,6.7
		c-5.6,2.5-11.4,4.6-17.2,6.5c-3.3,1.1-5.3,0-6.5-3s-3-6.6-4.4-9.9c-1.2-3.4-4.4-5.7-8-5.8c-21.2-1.9-42.2-1.9-62.3,6.7
		c-3,1.3-3.2,0.1-3.4-2.4c-2-21.5,1.1-43.2,8.9-63.3c6.5-17,12.9-34.1,19.2-51.2c2-5.5,5.6-8.4,11.5-8.3c5.9,0.1,12.7-1,19-2
		c2.6-0.4,3.4,0.6,3.6,2.7c0.4,3.9,0.7,7.7,1.2,11.6c0.5,3.9,1.2,8.6,3.9,12.1L348.1,181.2z M337.9,165.1c-0.8,2.2-0.2,3.6,0.1,5
		c3.2,13.9,6.7,27.7,9.7,41.6c4.3,19.4,9.5,38.6,9.3,58.7c0,2.1,1.1,3.8,2,5.6c0.9,1.8,1.9,1.3,2.6-0.3c0.2-0.6,0.4-1.2,0.6-1.8
		c2.6-8.9,0.8-17.9,0.8-26.8c0-0.7-0.3-1.3-1.1-1.2c-0.8,0.1-0.8,0.8-0.9,1.5l-0.5,9h-0.9C355,225.5,349.8,194.8,337.9,165.1z
		 M402.8,273.3c-2-6.3-4-12.5-5.9-18.8c-4.8-15.6-9.5-31.3-16.9-46c-0.5-1-0.7-3-2.4-2.1c-1.7,0.9-0.1,2,0.3,3l19.8,58.5
		C398.4,270.4,400.3,272.5,402.8,273.3z"/>
	<path fill="#FFFFFF" stroke="#000000" stroke-miterlimit="10" d="M488.8,404.8c0.7-1.7-0.3-2.7-0.6-3.8
		c-7.5-21.8-17.7-42.4-27.8-63c-3.4-6.8-6.8-13.6-10.1-20.5c-2-4-4.4-7.9-7.2-11.4c-2.4-3.2-3.3-6.7-1.8-10.6s4-10.2,4.7-16.4
		c26.6,22.2,49,47.7,73.4,71.2c-3.6-4.1-7.1-8.3-10.9-12.2l-55.9-57c-4-4.1-4.1-7.3-0.5-11.4s5.1-3.2,7.9-0.2s5.1,6.4,7,10.1
		c1.6,3,3.6,3.8,6.7,2.3s8.5-3.7,12.5-5.9c3.2-1.9,7.1-2,10.3-0.2c15.9,7.7,30.5,17.6,44.5,28.3l20.1,15.6c1.6,1.2,3.1,2.6,4.4,4.1
		c3.1,3.7,3.2,6.9,0.3,10.9c-1.6,2.2-3.6,4.2-5.8,5.8c-4.4,3.1-6.6,8.5-5.6,13.8c1.5,9.7-1.8,18.2-5.9,26.6
		c-1.1,2.3-2.9,3.3-5.1,1.7c-2.2-1.6-5.4-1.5-8.1-0.2c-6.6,3.3-12.5,8-17.3,13.6l-19.6,22.3c-0.7,0.8-1.2,2.2-2.5,1.8
		c-1.3-0.4-0.8-1.9-1-3c-1-6.1-1.9-6.7-8.2-6.3c-8.1,0.6-14.9,4.1-20.9,9.1s-9.2,7.7-13.7,11.7c-1.6,1.4-2.3,1.2-3.1-0.7
		c-11.6-27.5-22.9-55.2-27-85.1c-1.8-12.8-2-25.7-0.7-38.5c0.3-2.4,1.3-2.6,3.4-3.1c5.4-1.3,8.1,1.4,11,5.2
		c13.5,17.4,23.7,36.7,33.3,56.4c5.8,11.9,11.6,23.8,17.4,35.7C486.9,402.7,487,404.2,488.8,404.8z"/>
	<path fill="#FFFFFF" stroke="#000000" stroke-miterlimit="10" d="M196.4,267.4c1.3,1.3,1.6,3.1,2.2,4.6
		c5.4,12.4,13.7,22.3,25.7,28.7c2.5,1.3,2.9,2.1,1.1,4.5c-12.9,16.7-23.8,35-32.3,54.3c-6.6,15.4-12.4,31.1-17.3,47.1
		c-1.8,5.6-5.3,7.8-11.2,7l-1.5-0.3c-13.8-4.5-26.6-10.6-36.1-22.2c-3.5-4.3-5.2-8.6-3.2-14.1c1.4-3.9,0.1-7.1-3.2-9.5
		c-4.8-3.6-9.9-6.7-15.3-9.3c-2.1-1-2.4-1.7-1.5-3.8c5.9-13.4,14.1-25.3,23.4-36.5s17.1-20.2,25.8-30.5c-1.6,0-2.2,1.1-2.9,1.8
		c-21.8,20.3-39.5,43.7-54,69.6c-2,3.2-2.8,6.9-2.3,10.6c-11.1-7.5-19.4-16.1-20.9-29.3s-1.5-14.2,9.2-23.7
		c20.6-18.3,42.1-35.3,65.3-50.2c3-2,5.4-2.6,8.7-0.4c4.2,2.6,8.6,5,13.2,7C185.3,280,189,276.2,196.4,267.4z"/>
	<path fill="#FFFFFF" stroke="#000000" stroke-miterlimit="10" d="M260.7,142.1L241.2,154c-0.9,0.5-2.6,0.9-2,2.3
		c0.6,1.4,2.2,0.3,3.1-0.2l15.2-8.2c4.3-2.3,8.8-2.6,13.9,0.3c-40.8,18.8-64.8,52.3-83.8,91c2.4,0.1,2.5-1.5,3-2.4
		c8.8-14,16.8-28.5,27-41.5c12.1-15.4,25.5-29.2,43.8-37.2c5-2.2,10.3-3.9,15.7-5c1.1-0.2,2.4-0.8,3.1,0.2s-0.4,1.8-0.9,2.7
		c-7.4,15.4-16.2,30.1-23.4,45.7s-9.3,29.7-11.1,45.2c0,0.4,0.1,0.7,0.2,1.1c10.6-3.3,22.5-18.6,27.6-35.4c-1.6-0.7-1.9,0.8-2.5,1.5
		c-5,6.2-8.1,13.5-12.2,20.2c-1.9,3-4.1,5.6-8,6.9c0.7-6.8,2.1-13.5,3.9-20c6.5-23.6,18.2-44.6,32.4-64.2c0.5-0.7,0.8-1.9,1.9-1.4
		s0.2,1.8-0.1,2.5c-3.6,8.2-7.3,16.5-10.9,24.7c-0.6,1.5-2,3.7-0.6,4.4s2.2-1.8,2.9-3.1c3.9-6.4,7.8-12.8,11.6-19.3
		c0.6-1,2.5-2.1,0.3-3.7c-2.2-1.6,0.2-1.6,0.7-2.2s9.1-3.2,11.3-1.7c2.2,1.5,0.5,2,0.2,3c-2,8.7-5.2,16.9-8.4,25.2
		c-5.6,15.1-12.5,29.9-16.1,45.8c-4.2,18.5-3.9,37.2-2.3,56c0.3,2.8,1.2,5.4,2.6,7.8c2,3.4,0.5,4.1-2.6,4.6
		c-7.1,1.4-14.5,1.3-21.6-0.2c-14-3.1-26.8-10.4-36.4-21.1c-4.1-4.6-7.1-10.1-8.7-16c-1.3-4.2-3.1-8.2-5.3-12
		c-2.7-4.8-6.4-6.5-11.9-5.8s-7.6,3.9-8.9,8.5c-0.5,1.7-0.9,3.4-1,5.1c-0.1,4.1-2,4.2-5.3,3.2c-9.5-2.7-17.6-8.9-22.5-17.5
		c-1.5-2.6-3-5.2-4.3-7.9c-1.1-1.8-1-4.1,0.3-5.7c21.2-26.8,42.5-53.7,71.6-72.9c7.1-4.7,14.5-8.9,21.8-13.1
		C249.4,141.3,255.2,140.5,260.7,142.1z"/>
	<path fill="#FFFFFF" stroke="#000000" stroke-miterlimit="10" d="M529.2,543.8c-13.9-14.6-25.3-31.3-34-49.5
		c-7.6-15.8-13.3-32.3-18.5-49c-1.4-4.6-0.8-8.8,0.8-13.1c1.6-4.3,3-3.5,5.6-2.1s4.7,2.9,7,4.3s7.3,2.1,10.8-0.6l2.1-1.6
		c7.3-5.8,7.4-5.8,15.3-1.2c17.6,10.1,31.6,24.3,44.3,39.9l13.7,16.9c3.3,4,3.2,4.1-1,6.9c-12.6,8.3-24.2,17.6-33.7,29.5
		C536.7,530.2,532.6,536.8,529.2,543.8z"/>
	<path fill="#FFFFFF" stroke="#000000" stroke-miterlimit="10" d="M282.9,56.4l5.9,15.4l0.8,2.1c2.5,6.4,1.9,7.2-5,7.1
		c-0.9,0.1-1.7-0.4-2.1-1.2c-5.9-13.1-14-25.2-17.3-39.4c-1.1-5.3-1.5-10.6-1.2-16c0.1-3.8,2.1-6.5,5.3-8.5c11.2-7,23.1-7.3,35.2-3
		c4,1.4,7.7,4.6,11.7,4.8s7.4-3,11.3-4.3c9.6-3.3,19.5-4.3,29.5-2c2.4,0.6,4.8,1.4,7,2.6c6,3.2,9,7.7,8.1,14.9
		c-1.2,9.5-3.4,18.9-6.8,27.9c-2.3,6.3-4.9,12.6-7,19c-0.8,2.4-2.1,3.3-4.6,3.4c-4,0.2-8,0.7-11.9,1.2c-2.2,0.3-2.9-0.2-2.2-2.6
		c2.1-8.1,4.1-16.2,6-24.3c0.2-0.7,0.6-1.4-0.2-2.3c-3.8,3.5-5.5,7.9-6.3,12.7s-1.6,10.9-2.2,16.3c-0.3,2.7-1.3,2.7-3.3,1.5
		c-3.8-2.2-7.8-4-12-5.2c-8.9-2.6-16.6-0.9-22.7,6.2c-1.8,2.1-2.6,1.7-3.3-0.6L291.1,69c-1.1-3.6-2.7-7-4.8-10.1
		C285.6,57.8,285.2,56.2,282.9,56.4z"/>
	<path fill="#FFFFFF" stroke="#000000" stroke-miterlimit="10" d="M535.1,552.3l-3.3-4.5c4.3-0.7,6.4,1.5,5.1,5.4
		c-1.3,4.3-3.8,8.2-7.1,11.2c-8.2,7.4-18.5,12.1-29.5,13.5c-3.2,0.4-5.5-0.6-6.3-3.8c-6.3-23.3-17.7-44.5-27.7-66.3
		c-5.9-12.7-10.7-25.9-14.3-39.4c-0.9-3.3,0-4.7,3.1-5.6c2.6-0.8,5.1-1.9,7.5-3.3c6.2-3.5,7.6-8,4.8-14.5c-0.8-2-2-3.9-0.8-6.1
		c0.5-1.2,1.5-2.1,2.8-2.3c1.5-0.1,1.3,1.6,1.6,2.6c4.3,14,9.2,27.7,14.9,41.2c10.7,24.8,24,48,43.1,67.5
		C530.8,549.8,532.3,551.8,535.1,552.3z"/>
	<path fill="#FFFFFF" stroke="#000000" stroke-miterlimit="10" d="M347.7,466c-12.1,0.1-23.8-2.4-35.2-6.4
		c-4.7-1.8-9.4-3.3-14.3-4.5c-6-1.2-11.6-0.2-16.3,3.5c-7,5.6-14.6,6.4-23,4.6c-20.8-4.4-36.1-15.7-45-35.3
		c-1.9-4.4-5.6-7.8-10.1-9.4c-7.4-2.9-14.8-5.3-22.8-5.5c-0.8,0-2.3,0.5-2.2-1.1s1.3-1.3,2.3-1.4c6.7-0.3,13.5-0.8,20.2,0.7
		c8.3,1.9,13.6,7.4,17.3,14.8c5.7,11.7,13.9,21,25.8,26.7c7.8,3.7,16.4,5.6,25,5.8c4.4,0.1,8.7-1,12.6-3.1
		c10.1-5.2,20.6-5.5,31.3-2.6c9,2.5,18,5.4,27.2,6.8c19.1,2.9,36.4-2.1,52.7-11.7c5.1-3,10-6.1,15.7-7.8c4.3-1.3,8.9-1.6,13.3-0.9
		c2.8,0.4,4.5,1.8,4.8,4.8c0.5,4.8,3.5,7.9,7.8,9.8c7.5,3.3,14.9,2.7,22.1-0.9c3.3-1.6,3.7-3.2,1.9-6.3l-1.2-1.9
		c-5.2-7.4-4.9-11,1.7-17.1c8.2-7.5,18-11.5,28.6-14c3.1-0.7,3.9,1.2,4.3,3.8c1,7.4,1.4,7.6,7.6,3.2c4.5-3.4,8.4-7.5,11.6-12.2
		c6.3-8.7,14.1-16.3,22.9-22.4c4.1-2.9,4.6-2.9,7.9,0.8c2,2.2,3.6,0.9,5.1-0.5c5.9-5.4,8.6-12.5,9.5-20.2c0.6-5.2,0.9-10.5,1.3-15.7
		c0.1-3,1.6-5.8,4.1-7.6c3.6-2.7,5.8-6.4,7.8-10.4c0.7-1.3,1.5-3.2,3-2.8s2.2,2.2,2.5,3.9c0.6,3.5,0,7-2.6,9.4
		c-6.4,5.9-8.4,13.6-9.4,21.8c-1.1,8.8-4.2,17.3-9,24.8c-2.4,3.7-5.5,6.8-9.2,9.2c-1.7,1.1-2.7,1.1-2.8-1.2v-0.4
		c-1-7.3-1-7.3-7.4-3.4c-8.1,4.8-14.5,11.4-20.3,18.7c-3.3,4.2-6.5,8.6-9.8,12.8c-1.2,1.6-2.7,3-4.2,4.3c-4.2,3.5-7.4,3.1-10.7-1.3
		c-3.3-4.4-4.2-5.5-10.8-3.2c-6.4,2.2-12.3,5.6-17.5,10c-2.8,2.3-3.5,4.8-0.9,7.7l0.4,0.6c5.4,8.4,4.1,12.2-5.4,15.6
		c-7.1,2.5-14.8,3-22.2,1.3c-5-1.1-8.1-3.8-9.2-9c-1.4-6.8-2.2-7-9-5.3c-8.1,2-16,5-23.4,8.9C378.5,462.2,363.2,466.1,347.7,466z"/>
	<path fill="#FFFFFF" stroke="#000000" stroke-miterlimit="10" d="M589.4,501.9c-9.5-13.8-18.7-26.9-28.9-39.2
		c-12.6-15.2-26.8-28.6-44-38.6c-2.1-1.2-2.3-2.3-0.9-4c5-6.2,10.1-12.4,15.1-18.6c1.3-1.6,2.4-0.7,3.6-0.1c5.8,3,11,7,15.3,11.9
		c16.2,18.5,31.6,37.7,47.1,56.8c3.6,4.5,4.1,9.6,1.9,14.8C596.4,490.1,592.7,495.8,589.4,501.9z"/>
	<path fill="#FFFFFF" stroke="#000000" stroke-miterlimit="10" d="M476,264.7c0-0.7,0-0.9,0.1-0.9c8.1-12.1,2.7-22.8-4.2-32.6
		c-17.4-24.4-37-46.8-60.2-66c-9.3-7.7-19-15.1-29-21.9c-1.1-0.7-2.5-1.2-3-3c14,2,23,13.1,35,18.5c-8.6-11.8-22.1-16.7-34-23.9
		c3.8-2.7,9-3.1,14.1-0.9c5.1,2.1,9.8,4.9,14,8.5c26.5,23.6,53,47.2,76.7,73.7c4.8,5.3,9.2,10.9,13.9,16.2c2.5,2.9,2.7,5.6,0.3,8.7
		c-4.8,6.5-10,12.8-15.3,19C482.3,262.6,479.2,263.5,476,264.7z"/>
	<path fill="#FFFFFF" stroke="#000000" stroke-miterlimit="10" d="M187,252.1c6.9-6.1,13.3-4.7,16.1,2.4c5,12.4,11.5,23.8,21.8,32.7
		c16.4,14.1,35.7,17.6,56.5,14.7c3.3-0.5,4.2-2.8,2.6-5.6c-5.1-8.8-5-8.9,4.4-12.8c17.4-7.3,35.3-8.8,53.7-5.8
		c4.5,0.7,7.1,3.3,8.9,7.1c1.8,3.8,2.8,6.7,5,9.6c3.4,4.6,6.2,5.4,11.3,2.8c7.2-3.7,14.5-7.4,21.5-11.4c9.6-5.6,19-6.6,28.3,0.6
		l1.3,0.8c8.2,4.5,12.9,3,16.4-5.8c1.8-4.4,3.3-8.9,4.5-13.5c2.2-8.5,8.1-15.5,16.1-19.1c4.9-2.4,10.1-4.4,15.1-6.7
		c2.5-1.2,4-0.6,4.6,2.2c0.3,1.3,0.8,2.6,1.3,3.9c-13,0.7-20.7,10.1-29.2,17.7c-3.6,3.2-4.1,8.6-5.3,13.4c-1.2,4.8-1.3,7.1-2.4,10.6
		c-2.5,7.9-8.7,11.1-16.7,9c-4.9-1.3-9.3-3.7-13.8-5.8c-4.5-2.1-7.7-2.1-11.7,0.1c-5.5,3.1-11.3,5.9-16.9,8.8s-12.6,5.4-19.8,4.3
		c-5.2-0.8-7.2-2.7-7.9-7.9c-0.9-6.9-4.8-11.6-11.4-13.4c-17.6-4.6-34.7-3-51.2,4.5c-3,1.4-3.9,3.4-2.4,6.7
		c3.9,8.6,2.8,10.5-6.5,11.5c-21.4,2.5-41.7-0.4-59.6-13.4c-10.6-7.5-18.3-18.5-21.8-31C198.1,257.1,197.2,250.6,187,252.1z"/>
	<path fill="#FFFFFF" stroke="#000000" stroke-miterlimit="10" d="M392.5,595.2h6c3.9,0,6.5,1.7,8.3,5.2
		c5.6,10.5,13.2,12.4,23.1,5.7c12.3-8.4,22.9-18.9,34.6-28.1c3.8-3,7.6-6.1,11.5-9c2.9-2.4,7-2.8,10.2-0.9c1.5,0.8,1.7,1.6,0.2,2.7
		c-1.5,1.1-2.8,2.2-4.2,3.1c-13.4,8.5-25.8,18.5-37,29.7c-4,3.8-8.3,7.3-12.9,10.3c-4.5,3-9.8,4.5-15.2,4.3c-6-0.1-9.8-2.7-12-8.4
		c-0.7-1.9-1.2-3.8-1.7-5.7c-1.7-5.7-3-6.6-9-5.4s-11.2,2.6-16.8,4s-13.5,3.7-20.2,5.6c-4.2,1.2-4.9,2.3-3.9,6.4s0.1,6.5-4.5,8.3
		c-12.1,4.7-24.2,4.2-36.3,0s-21-9.8-30.5-16.7c-5.5-4-11.1-6.6-18.1-4.8c-2.1,0.5-3.9,0.3-4.6-2.4s-0.6-4.5,2.3-5.7
		c4.6-1.9,8.9-0.9,12.9,1.6c7,4.4,13.8,9.1,20.7,13.5c11.3,7.1,23.2,12.3,36.9,11.7c5-0.2,9.9-0.9,14.9-1.4c2.1-0.2,3.1-1.2,2.9-3.4
		s0.3-3,0.1-4.5c-0.5-5.8,3-7.7,7.7-9.1C369.3,598.2,380.6,595.2,392.5,595.2z"/>
	<path fill="#FFFFFF" stroke="#000000" stroke-miterlimit="10" d="M358.7,147.2c-4.2-1-8.6-0.5-12.4,1.4c-13.5,6.9-28,6.3-42.5,5.6
		c-5.4-0.4-10.7-1.2-15.9-2.6c-1.9-0.5-2.8-1.2-1.5-3.3c2.1-3.7,4-7.5,5.8-11.3c0.9-2,1.8-1.9,3.3-0.7s2.8,2.1,4.3,3
		c3.8,2.6,5.3,2.3,8.1-1.4c2.8-3.7,4.8-6.7,7.5-9.8c6.5-7.3,11.2-6.9,16.8,1c1.5,2,2.8,4.1,4.3,6.1c3.4,4.4,5.5,4.8,10,1.4
		c2.4-1.8,3.8-1.8,5.7,0.6c1.9,2.4,4.9,5.3,7.4,8c0.4,0.4,1,0.9,0.6,1.6C359.8,147.5,359.3,147.3,358.7,147.2z"/>
	<path fill="#FFFFFF" stroke="#000000" stroke-miterlimit="10" d="M580.8,501.6c-4.1,1.3-7.8,3.4-10.9,6.3
		c-9.5,8.1-17.9,17.5-24.9,27.9c-2.8,4.1-3.5,8.1-0.6,12.5s1.9,7.4,0.2,11.1c-2.5,5.1-6.1,9.5-10.5,13c-9.2,7.6-19.5,12.5-31.4,13.8
		c-1.2,0.1-2.5,0.2-3.7,0.1c-6.1-0.3-6.3-0.5-4.8-7.1c5.5,4.2,10.6,1.4,15.7-0.7c10.2-4,19.4-9.2,26-18.2c1.1-1.5,2.1-3.1,3-4.7
		c3.4-6.2,2.5-9-4.1-11.5c-2.2-0.8-1.9-1.6-1.1-3.2c5.4-10.8,12.9-20.3,22.1-28.1c6.6-5.7,13.8-10.8,20.8-15.9
		c3.5-2.6,5.8-1.9,7.8,2c2.2,5,1,10.8-3.1,14.4c-1.3,1-1.9,0.7-2.5-0.6s-1.5-4.2-0.4-6.4L580.8,501.6z"/>
	<path fill="#FFFFFF" stroke="#000000" stroke-miterlimit="10" d="M33.5,474.7c2.3,4.7,5.4,8.8,7.2,13.7c2.9,7.6,8.7,13,15.5,17.3
		s13.6,6.9,20.3,10.4c2.1,1.1,4.1,2.3,5.1,4.7c10.1,23.2,27.7,39.1,49.6,50.6c8.9,4.7,18.2,8.9,27.3,13.3l2.3,1.3
		c-1.2,1-2.2,0.1-3.1-0.1c-14.3-3.2-27.9-8.6-40.6-15.9c-17.6-10.4-30.1-25.3-38.4-43.8c-2.4-5.3-5.7-8-11.5-9.3
		C45.5,511.8,32.4,495.5,33.5,474.7z"/>
	<path fill="#FFFFFF" stroke="#000000" stroke-miterlimit="10" d="M97.1,361.8c9.1-1.7,16.3,0.6,22.1,6.8c2.2,2.1,2.9,5.4,1.8,8.3
		c-1.6,4.4-0.4,8.2,2.1,12c9.6,14.4,23.4,22.5,39.6,27.2c2.4,0.8,5,0.8,7.4-0.2s3.1-0.2,3.7,2.3c1.2,5.8,1.4,5.9-4.5,5
		c-20.7-3.1-37.9-12.1-49.8-29.9c-3-4.5-4.8-9.2-3.7-14.8c0.7-3.4-1.1-5.8-3.8-7.5C107.3,367.9,102.6,365.1,97.1,361.8z"/>
	<path fill="#FFFFFF" stroke="#000000" stroke-miterlimit="10" d="M260.4,605.1c-2.9,4-6.2,4.8-10.1,4.2c-9.7-1.4-19-4.7-27.3-9.9
		c-9.2-5.8-18.4-11.6-27.5-17.5c-12.7-8.4-26-15.3-41.6-16.7c2.1-3.6,4.6-4.7,9.5-4.1c7.5,0.9,14.6,3.5,20.9,7.6
		c6.8,4.4,13.4,9.2,19.7,14.3c10.4,8.4,22.2,13.3,34.9,16.4C246.1,601.1,253,603.1,260.4,605.1z"/>
	<path fill="#FFFFFF" stroke="#000000" stroke-miterlimit="10" d="M355,98.5c0,3.6,0,7.2,0,10.9s-1.7,4.9-4.9,4.7l-10.1-1
		c-1.5-0.2-2.2-0.7-1.5-2.4c2-5.2,1.1-10.3-0.7-15.4c-1.2-3.3-2.1-6.7,1-9.4s7.8-4.9,12.8-3.7c2.2,0.5,2.6,2.2,2.7,4
		c0.2,4.1,0.4,8.2,0.6,12.4L355,98.5z"/>
	<path fill="#FFFFFF" stroke="#000000" stroke-miterlimit="10" d="M307.5,84.2c6.4-2.5,13.8-0.6,18.2,4.7c1.5,1.8,2.7,3.9,4,5.8
		s2.5,5-0.1,7.3s-5,4.6-8.4,1.3c-1.2-1.2-1.7,0-2.3,0.6c-3.7,4-5.7,4.5-8,2.3s-2.1-7.3,1.2-10.3c1.1-1.2,2.7-1.9,4.3-2
		c-0.7,1.6-1.3,3.2-1.8,4.9c-0.3,1.1-1.2,2.5,0.6,3.2c1.4,0.8,3.1,0.3,3.9-1.1c1.1-1.7,2.3-3.3,0.5-5.4s-4.7-4.3-8.2-2.7
		s-4.5,4.4-5.7,7.5c-0.5,1.2,0.6,3.9-2.1,3.3s-4.4-1.3-4.2-4.7c0.3-7.2,0.3-7.3,8.2-6.7c-1.5-2.9-1.8-5.7,0-8.4L307.5,84.2z"/>
	<path fill="#FFFFFF" stroke="#000000" stroke-miterlimit="10" d="M147.2,235.6c7.2,16.3,19.2,26.4,36.5,29.7
		c3.1,0.6,2.6,1.8,1.2,3.7c-1.4,1.9-4,3.8-6.8,3.1c-14.4-3.5-26.1-10.5-32-25C144.7,243.1,144.4,239.3,147.2,235.6z"/>
	<path fill="#FFFFFF" stroke="#000000" stroke-miterlimit="10" d="M290,117.4c-2.2,2.7-4.4,5.5-6.7,8.1c-2.3,2.6-1.7,4.2,1.1,6
		c2.8,1.8,5,1,5.3,3.3s-1.6,3.8-2.6,5.7c-5.4,10.1-3.7,10.2-14.3,4.3c-5.4-3-5.4-3-2.1-8.1l10.5-16.8
		C284.2,114.8,284.2,114.8,290,117.4z"/>
	<path fill="#FFFFFF" stroke="#000000" stroke-miterlimit="10" d="M297.2,112.3c1.5,2.4,2.6,4.3,3.8,6.2c1.2,1.9,4,5,7.3,5.5
		s2.6,1.5,1.4,3.4s-3,5.5-4.4,8.3s-1.6,2.2-3.4,1.2c-4.9-2.5-9.9-4.8-14.9-7c-1.7-0.8-1.9-1.4-0.7-3
		C289.9,122.2,293.4,117.5,297.2,112.3z"/>
	<path fill="#FFFFFF" stroke="#000000" stroke-miterlimit="10" d="M505.6,237.8c1.6,2.9,1.9,6.4,0.8,9.5c-2.1,7.4-6.9,13.8-13.3,18
		c-6.1,4-12.5,7.6-18.7,11.4c-2,1.3-2.5,0.6-2.5-1.5c-0.1-4.9,1.1-6.6,5.7-8.2c8.9-3,15.5-8.8,20.4-16.7
		C500.4,246.4,502.3,242,505.6,237.8z"/>
	<path fill="#FFFFFF" stroke="#000000" stroke-miterlimit="10" d="M341.8,116.2c6.2,0.4,10.6,4.3,14.1,9.7c0.8,1.2,0.2,1.8-0.8,2.3
		l-11.8,6.5c-1.6,1-3.8,0.5-4.8-1.1c0,0,0-0.1-0.1-0.1c-1.5-2.1-3-4.3-4.3-6.6C331,121,334.4,115.9,341.8,116.2z"/>
	<path fill="#FFFFFF" stroke="#000000" stroke-miterlimit="10" d="M69.8,327.6c0,3.2,0,5.6,0,7.9c-0.2,12.8,5.3,22.9,15,30.8
		c2.8,2.3,5.8,4.4,8.9,6.2c2.1,1.2,1.8,3.2,2,4.9c0.2,1.7-1.5,0.7-2.3,0.5c-7.2-1.6-13.5-5.8-17.8-11.8c-6.4-8.6-8.6-18.7-10-29
		C65.1,333.8,66.7,330.8,69.8,327.6z"/>
	<path fill="#FFFFFF" stroke="#000000" stroke-miterlimit="10" d="M334.8,98.4c1.5,4.6,0.5,7.5-1.9,10s-4.1,4-6.2,6
		s-4.6,2.6-7.1,0.7s-2.4-0.7-3.7,0.1c-1.2,0.7-2.4,1.3-3.6,1.9c-5.2,2.5-9.7-0.8-9.3-6.6c0.2-3.2,2.7-4.4,5.5-2.7s3,1.8,4.5,1.4
		c5.3-1.5,10.8-1.8,15.9-3.8C331.8,104.3,333.4,102,334.8,98.4z"/>
	<path fill="#FFFFFF" stroke="#000000" stroke-miterlimit="10" d="M292.1,96.6c0,2.7,0,5.5,0,8.2c-0.1,2-0.7,3.9-1.8,5.6
		c-1.6,2.5-3,2.7-4.5,0c-4.2-7.3-5.5-14.9-3.1-23c0.7-2.4,1.9-4.7,4.9-4.2s4.8,2.5,4.6,5.8c-0.2,3.3,0,5,0,7.5L292.1,96.6z"/>
	<path fill="#FFFFFF" stroke="#000000" stroke-miterlimit="10" d="M363.1,128l-7.8-9.3c2.5-1,4.2-0.1,5.8,1c5.8,3.9,9,9.8,11.9,16
		c0.4,0.7,0.2,1.6-0.5,2.1c-0.1,0.1-0.2,0.1-0.2,0.1l-0.6,0.4c-3.1,1.8-6.3,5.9-9.1,5c-2.8-0.9-5.5-5.4-8.3-8.3
		c-1.3-1.4-0.3-1.8,0.8-2.4L363.1,128z"/>
	<path fill="#FFFFFF" stroke="#000000" stroke-miterlimit="10" d="M473.3,251.2c4.5,0.1,5.2,1.2,3.5,5.3c-1.8,4.2-4.1,8.1-6.7,11.8
		c-1.1,1.6-1.8,1.8-3,0.2c-0.7-0.9-1.5-1.7-2.3-2.5c-6.6-6.9-6.6-6.9,1.5-12C469.6,251.9,471.4,251.2,473.3,251.2z"/>
	<path fill="#FFFFFF" stroke="#000000" stroke-miterlimit="10" d="M156.4,568.2c3.6,0.1,5.7,2.4,7.9,4.7s4.9,6.2,9.6,5.2
		c0.3-0.1,0.9,0.4,1.2,0.7s-1.6,9-2.3,9.2c-0.3,0.1-0.7,0.1-1-0.1c-5.7-4.2-12.2-7.4-15.8-14c-0.5-1-0.9-2-1.4-3.1
		C154.1,569.7,154.5,568,156.4,568.2z"/>
	<path fill="#FFFFFF" stroke="#000000" stroke-miterlimit="10" d="M601.7,477.9c3.8,2.8,4.8,5.6,3.4,9.5
		c-3.7,10.5-9.2,19.6-19.1,25.5C591.9,501.6,600.2,491.5,601.7,477.9z"/>
	<path fill="#FFFFFF" stroke="#000000" stroke-miterlimit="10" d="M307.6,84.1c-2.3,0.1-2.7,2.6-4.6,3.8c-0.8-3.8,0.1-6.5,3.4-8.4
		c6.8-3.9,17.1-2.8,22.8,2.5c2.5,2.3,3.3,4.9,2.6,9.1c-1.8-1.6-3.4-3.4-4.8-5.4c-3.3-5.3-5.8-6.5-11.8-5.2c-2.8,0.6-5.9,0.8-7.7,3.7
		L307.6,84.1z"/>
	<path fill="#FFFFFF" stroke="#000000" stroke-miterlimit="10" d="M144.7,451.7c2.4-8.5,6.4-16.6,11.8-23.6l0.5-0.5
		c1.5-1,3.5-3,4.9-1.9s-0.8,2.9-1.6,4.2C155.2,437.2,149.9,444.4,144.7,451.7z"/>
	<path fill="#FFFFFF" stroke="#000000" stroke-miterlimit="10" d="M312.2,121.1c3.5-2.1,6.3-3.8,10-2.9s4.7-1.3,6.7-2.7
		c1.2-0.9,2.4-1.9,3.5-3C332.4,118.8,321.5,123.6,312.2,121.1z"/>
</g>
<g>
	<path d="M292.3,7.5c7.3-0.1,14.5,1.6,20.9,5c2.4,1.4,5.4,1.5,7.8,0.1c8.2-4,16.7-6.7,25.9-6.3c8.7,0.4,17.1,2.9,24.6,7.2
		c4.9,2.7,6,7.4,5.8,12.5c-0.3,9.9-2.7,19.3-6.2,28.4l-10.4,28.2c-2.8,7.3-3.1,14.9-2.5,22.5c0.4,5.1,2.8,9.7,6.7,13
		c2.4,2.1,5.1,4.1,7.6,6.1s6.9,5.5,12.5,3.8c5.6-1.7,11.7,1.3,16.8,4.7c8.7,5.7,16.2,13,23.9,19.8c28.3,25,56,50.7,80.4,79.6
		c7.3,8.7,7.4,14.8,0.4,23.7c-3,3.8-6.2,7.5-9.6,11s-1.6,2.9,0.7,4.3c17.2,10.4,34.3,21,50.5,33c8.2,6.1,16.1,12.6,23.8,19.4
		c10.5,9.3,11.2,15.3,0.4,27.1c-2.7,3-4.3,5.9-4.6,9.8c-0.8,12.4-3.7,24.2-11.5,34.3c-1.9,2.6-4.2,5-6.7,7c-2.4,1.9-2.5,3.1-0.3,5.4
		c13.7,14.9,27.8,29.4,40.2,45.5c6.5,8.4,12.5,17.2,18,26.3c2.9,4.8,3.3,9,0,13.9c-3.3,4.9-7,11.3-10.3,17c-1.9,3.1-4.4,5.8-7.4,7.8
		c-5,3.6-9.1,3-13.1-1.7c-0.9-1-1.7-2.1-2.4-3.3c-0.8-1.4-1.5-1.3-2.5-0.1c-6.4,7.5-13.3,14.7-18.9,22.8c-4,5.8-4.4,12.4-3.2,19.1
		c0.5,2.8,0.3,5.4-1.4,7.5c-11,14.6-24.7,25-43.2,27.9c-9,1.4-17.1-1-24.4-6.3c-2-1.4-3-1.2-4.6,0.3c-10.1,9.5-19.9,19.4-31.5,27.2
		c-5,3.5-10.4,6.5-16,8.9c-11.4,4.7-21.2,1.9-27.5-8.7c-5.1-8.7-6.2-7.3-13.7-5.4l-21.8,5.7c-5.5,1.4-6.5,2.7-6.6,8.3s-0.7,7-6.7,9
		c-16.6,5.5-32.5,3-48-4.2c-10.1-4.7-19.5-10.7-29-16.4c-3.9-2.4-7.1-3-10.7,0.6c-3.6,3.6-9.4,4.3-14.8,3.9
		c-13.2-1-25.1-5.5-36-12.7c-10.9-7.2-19.6-13.8-29.8-20.1c-2.6-1.6-3.5-1.3-4.2,1.5c-0.7,2.8-1.6,5.3-2.4,7.9
		c-1.6,5.1-2.8,5.9-7.9,4.9c-13.5-2.7-26.6-7-39.1-12.8c-24.7-11.8-43.8-29.4-56.4-53.9c-1.3-2.6-3.6-4.6-6.5-5.2
		c-20.7-5.4-33.4-19.1-39.6-39.2c-0.8-2.9-0.7-6,0.3-8.8c3.9-11.3,11.3-20.5,18.4-29.8c14.9-19.4,33.3-35.5,51.1-52.2
		c4.6-4.3,8.8-8.9,13.9-12.5c1.2-0.8,1.2-1.5,0.4-2.8c-3.7-6.1-7.3-6.1-11.1,0s-5.3,7.2-12.5,3.8c-16.3-7.7-28.4-28.7-26.7-46.4
		c0.4-3.8,1.7-7.1,4.6-9.5c21-17,40.7-35.5,63.1-50.7c5.6-3.9,11.4-7.5,17.4-10.8c2.8-1.5,3.5-3.2,1.6-6c-1.9-2.8-3.6-6-5.2-9.1
		s-2.2-8.1,0.3-11.8c20.5-29.4,42.1-57.8,71.6-79.2c13.4-9.9,28.8-16.8,45.2-20.2c4-0.6,7.5-3.1,9.2-6.8c3.3-6.6,7-13,10.5-19.5
		c0.8-1.4,1.1-3,0.9-4.6c-1.1-7.8-2.1-15.6-3.1-23.4c-1.3-9.1-4.5-17.8-9.4-25.5c-4.9-8.1-9-16.4-9.2-26.2
		c-0.2-9.8,4-16.9,14.5-20.4C279.6,8.6,285.9,7.5,292.3,7.5z M274.9,448.7c-1.1-1.1-0.8-2.4-0.9-3.5c-3-22.7,2.1-44,10.8-64.7
		c7.6-18.2,16-36.1,22.7-54.7c4.1-11.2,4.7-22.9,5.9-34.6c0.3-2.9-1.1-3.9-3.9-3.2l-7.2,1.9c-4.4,1.1-5.5,2.4-5.6,7.1
		c0,1.2,0,2.5,0,3.7c-0.1,5.9-1.7,8.1-7.2,9.9c-14,4.5-28.1,4.8-41.9-0.5c-11.8-4.5-15.8-2.5-22.9,6.2
		c-21.6,26.5-34.6,57.1-44.1,89.5c-0.6,2.1,0.1,2.5,1.9,2.2c1.8-0.3,5.5-0.7,8.2-0.8c15-0.9,26.4,7.2,30,18.1
		c1.7,4.8,4.4,9.3,8,12.9c9.1,9.6,20.3,15.3,33.1,17.9c7,1.4,13.7,0.9,19.8-3.1c6.1-4,15.3-5.7,23.7-3.8c10.6,2.3,21,5.6,31.7,7.5
		c18.3,3.3,35.5,1.2,51.3-9.6c4.3-2.8,8.8-5.2,13.5-7.2c7.1-3.4,15.1-4.3,22.7-2.4c2.3,0.5,4.4,1.4,4.9,4c1.5,9,11.7,14.4,22.7,10.9
		c4.1-1.3,4.9-3.2,2.9-7c-3.4-6.4-7-12.7-10.3-19.1c-18.1-35.1-29.2-72-28.4-111.8c0.2-8.3-2.4-13.4-9.2-17.4
		c-2.9-1.7-5.5-2.1-8.4-0.4c-4.4,2.6-8.8,5.2-13.4,7.6s-5,4.7-5.4,8.7c-2.1,22.3-0.9,44.4,2.4,66.5l1.6,10.4l1.6,10.2
		c-1-1.1-1.6-2.3-2-3.7c-6.9-20.4-8.8-41.5-8.9-62.8c0-6.6,0.1-13.2,0.3-19.9c0.1-2.3-0.6-3.1-2.9-2.9c-2.9,0.2-5.7,0.2-8.6,0
		c-8.8-0.4-14.4-5.1-16.1-13.8c-0.8-4.1-3-6.4-7.1-7.1l-15.5-2.7c-5.2-0.9-5.7-0.5-6.5,4.8c-1.9,12-3.2,24-7.4,35.5
		c-6.5,17.9-14,35.3-21.2,52.9c-8.6,21-14.8,42.5-13.9,65.5C275.7,446.7,276,447.8,274.9,448.7z M73.9,462c-0.3-2.2,0.6-3.4,1.1-4.6
		c3.5-8.1,8.1-15.8,13.7-22.7c8.7-11,18.5-21,28-31.3c1.6-1.7,2-3,0.6-5.1c-2-2.8-3.7-5.7-5.1-8.8c-1.6-3.5-3.1-3.3-5.5-0.9
		l-34.4,32.9c-11,10.8-21.2,22.3-30.6,34.5c-4.4,5.6-5.8,11.5-3.3,18.5c3.7,10.2,8.9,19.2,16.7,26.8c7.8,7.6,15.3,9.2,23.3,13.3
		c2.6,1.3,3.8,0.9,5.1-1.7c3.9-8.1,8-16.1,12.3-24c2.3-4.4,5.3-8.5,8.8-12c0.4,1.2-0.2,1.7-0.6,2.3c-6,11.6-12,23.3-18.2,34.9
		c-1.9,3.1-1.9,7.1,0.1,10.2c11.5,21.4,29,36.4,50.3,47.2c5.6,2.9,11.4,5.4,17.1,8.1l0.8-0.6c-6.4-7.7-4.5-15.7-1.7-23.8
		c0.6-1.9,1.2-3.8,1.5-5.8c2.7-15.4,9.7-28.3,20.6-39.6c10.6-10.9,18.1-24.4,21.7-39.2c2.1-8.6,4.4-17.2,6.7-25.7
		c0.3-1.2,0.7-2.4,1.1-3.7c0.9,6.3-0.3,12.2-1.3,18.2c-3.6,20.7-11.3,39.3-27.7,53.4c-3.8,3.3-6.7,7.5-8.5,12.2
		c-3.5,9.4-7.4,18.6-9.4,28.4c-0.9,4.4-0.9,4.5,3.8,4.8c15.6,0.9,28.2,9,40.4,17.4c8.5,5.9,16.5,12.5,25.6,17.6
		c6.8,3.7,14.5,5.7,22.3,5.6c6.3,0.1,6.3,0.1,5.8-6.4c-1.7-21.6,1.3-43.4,8.9-63.7c7.7-20.7,16.7-40.9,24.7-61.5
		c0.5-1.2,1.6-2.3,0.8-3.8c-5.3,1.7-10.3,4.1-15.7,5.1c-5.4,1-11.2,0.6-16.8,0.4c-2.5-0.1-2.5,1.4-2.6,3.1
		c-1.6,16.9-3.3,33.8-4.9,50.7c-0.3,2.8-0.8,5.5-3.2,7.8c-0.9-2.1-0.4-3.8-0.3-5.5c1.4-17.3,2.6-34.6,4.2-51.9
		c0.4-4.8-1.2-7.7-5.6-9.7c-13.1-5.8-24.1-14.7-30.5-27.2c-5.4-10.6-13.7-14.5-24.2-16.4c-3.4-0.6-5.8-0.2-7.8,2.7
		c-2.6,4-7.2,6.2-11.9,6c-3.5-0.1-5.9,1.4-7.9,4.1c-15.3,20.2-28.4,41.7-36.8,65.8c-1.4,3.9-3.6,7.4-5.8,10.9
		c-0.3,0.5-0.6,1.2-1.4,0.9s-0.8-1.1-0.5-1.9l0.8-2.1c9.5-26.7,20.5-52.9,33.1-78.3c1.5-3.1,0.8-4.1-1.9-5.6
		c-7.9-4.3-16.1-8.2-23.1-13.8c-3.1-2.5-5.6-2.3-8.6,0.1c-11,8.5-20.5,18.7-28.4,30.2L73.9,462z M412.6,598.3
		c-0.1-1.2-0.2-1.7-0.2-2.2c-1.8-43.7-10.4-86.2-23.2-128c-0.9-2.8-1.8-3.3-4.6-2.5c-25.8,7.3-51.6,6.6-77.3-0.7
		c-3.1-0.9-6.6-3.6-9.1-2.2s-3.3,5.4-4.7,8.3c-8.4,17.1-17.8,33.7-24.4,51.5c-7.6,20.3-11,41.9-9.9,63.6c0.2,3,0.6,4.7,4.4,4.6
		c5.6-0.1,10.8,1.7,15.8,4.2c5.6,2.8,10.9,6.1,15.9,9.9c14.8,11.4,31.3,14.9,49.5,11.6c2.1-0.4,3.1-0.8,2.8-3.2
		c-0.7-5.1,1.5-8.8,5.7-11.8c4.1-2.7,8.7-4.7,13.5-5.7c9.8-2.4,19.8-2.1,29.8-2.7c6.9-0.4,12,1.6,14.8,8.7c2.8,7.1,5.5,7,11.7,5.1
		c5-1.6,9.6-4.2,13.7-7.5c7.5-5.8,14.2-12.7,21.1-19.2s14.7-12.9,24.5-15.3c3.2-0.8,3.4-2.2,2.4-4.8c-4.3-11.7-8-23.7-13.6-34.9
		c-9.1-18.6-19.9-36.5-23.7-57.3c-0.2-1.3-0.8-1.9-2.2-1.9c-6.8,0.3-12.9-2.4-19.4-4c-4.2-1-6.3-3.5-6.6-7.9c-0.3-4.4-2-5.5-6.2-3.6
		s-10.3,5.1-15.6,7.3c-3,1.2-3.3,2.9-2.7,5.8c4.9,24.6,9.8,49.2,14.5,73.9c3.3,17.1,6,34.2,6.2,51.7
		C415.7,592.4,415.5,595.4,412.6,598.3z M348.3,182.4c-3.3-2.8-4-5.7-4.4-8.6c-0.8-5.2-1.3-10.4-1.8-15.6c-0.3-2.4-1.2-3.4-3.9-2.9
		c-6.6,1.3-13.4,2-20.1,2.1c-5.3,0-8.4,3.2-10.1,8c-6.5,17.4-13,34.8-19.6,52.2c-7.6,19.9-10.6,41.3-8.6,62.6
		c0.2,2.3,0.4,3.5,3.2,2.3c20.1-8.6,41.1-8.7,62.3-6.9c3.7,0.1,7,2.5,8.3,6c1.3,3.2,2.9,6.4,4.2,9.6c1.3,3.2,3.3,4.4,6.8,3.2
		c5.9-1.9,11.8-4.2,17.5-6.7c4.7-2.2,9.5-4.5,14.4-6.4c7.5-2.9,14.7-2.2,21.2,2.9c1.6,1.1,3.3,2.2,5.1,3c2.7,1.4,4.8,0.7,6.1-2.2
		c2.5-5.4,5.3-10.7,7.2-16.5c3.2-10.3,10.6-18.8,20.5-23.2l7.9-3.5c8.8-4,8.7-4,3.1-11.9c-14.3-20.1-32-37-50.1-53.5l-28.9-26.2
		c-4.5-4.1-9.6-7.2-16-7.4c-2-0.1-4.2,0.1-4.5,2.4c-0.7,5-2.1,10.1-0.6,15.2c2.9,10,5.7,19.9,9.5,29.6c7.4,18.9,17.9,36.2,27.8,53.9
		c5.3,9.4,10.7,18.8,16.2,28.5c-1.8-0.6-2.2-1.9-3-2.8c-25.3-33.3-43.2-70.4-55.1-110.6c-2-6.8-2-6.8-9-7.5s-8,0.8-7.5,7.2
		S347.6,173.8,348.3,182.4z M446.1,279.3c-0.7,6-2.5,10.8-4.4,15.6c-1.9,4.8-1.5,7.7,1.2,11c4.9,6,8,12.9,11.4,19.8
		c12.1,24.8,24.9,49.3,33.9,75.5c0.4,1.2,1.6,2.3,0.7,3.9c-1.8-0.2-1.8-1.9-2.4-3c-5.8-11.9-11.6-23.8-17.4-35.7
		c-9.6-19.8-19.9-39.2-33.4-56.7c-2.9-3.7-5.6-6.1-10.7-5.1c-2.4,0.5-3.3,0.9-3.6,3.4c-1.4,14.1-0.9,28.3,1.4,42.3
		c4.6,28.4,15.4,54.7,26.5,81c0.8,1.8,1.4,1.9,2.9,0.7c4.5-4,9-7.9,13.7-11.7c4.7-3.8,12.8-8.6,20.9-9.2c6.5-0.5,7.3,0.1,8.3,6.5
		c0.2,0.9-0.2,2.2,0.8,2.7s1.9-0.9,2.6-1.6l19.6-22.2c5-5.6,10.7-10.5,17.6-13.8c2.6-1.2,5.1-1.7,7.8,0.2c2.7,1.9,4.2,0.6,5.4-1.8
		c4.2-8.5,7.3-17.2,5.7-27c-0.9-5.4,1.1-9.8,5.5-13.1c2.4-1.8,4.6-3.9,6.3-6.4c2.4-3.6,2.4-6.6-0.3-10c-1.4-1.6-2.9-3.1-4.6-4.4
		l-20.5-16c-14-10.8-28.6-20.6-44.5-28.3c-3.1-1.7-6.9-1.6-10,0.2c-4.1,2.2-8.4,3.8-12.5,5.9s-5.3,0.7-7-2.4
		c-1.9-3.7-4.3-7.1-7.1-10.1c-2.7-2.8-5.1-2.6-7.7,0.3s-3.7,7.4,0.2,11.4l56.3,57.3c3.8,3.8,7.2,8,10.8,12
		C495.2,327,472.7,301.6,446.1,279.3z M152.4,287.3l0.6,0.6c-8.6,10.1-17.2,20.1-25.6,30.3c-8.4,10.2-17.6,23-23.4,36.4
		c-0.8,1.8-0.9,2.6,1.2,3.6c5.5,2.7,10.8,5.8,15.7,9.5c3.2,2.3,4.6,5.5,3.2,9.2c-2.3,6-0.1,10.6,3.7,15.1
		c9.4,11.1,21.9,17,35.3,21.5l1.5,0.3c6.1,1,9.7-1.2,11.5-7c11.3-36.5,26-71.3,50-101.6c1.4-1.8,1.5-2.6-0.8-3.8
		c-12.5-6.5-21-16.7-26.5-29.5c-0.6-1.4-0.8-3.1-2.1-4.2c-9.2,10.2-13.6,11.3-26.3,5.5c-5.2-2.4-10.3-5.1-15.3-8
		c-2.4-1.4-4.1-1.2-6.4,0.2c-23.6,15-45.4,32.3-66.2,50.8c-11.1,9.9-11.3,9.9-9.3,24.7c1.7,12.8,9.9,21.2,20.7,28.4
		c-0.6-4.8,1.1-8.4,3.1-11.9c12.3-21.8,27.3-41.9,44.7-59.9C145.2,294,148.8,290.7,152.4,287.3L152.4,287.3z M261,142.3
		c-5.5-1.6-11.4-0.9-16.3,2.1c-7.3,4.3-14.8,8.5-21.8,13.1c-29,19.2-50.3,46.1-71.6,73c-1.3,1.6-1.4,3.9-0.3,5.7
		c1.4,2.7,2.8,5.3,4.3,7.9c5.2,9,13.9,15.5,24,17.9c2.3,0.6,3.4,0.3,3.6-2.4c0.3-2.5,0.8-4.9,1.6-7.3c1.3-4.3,4.2-7,8.9-7.5
		s8.6,1,11.2,5.2c2.4,3.9,4.3,8.1,5.6,12.5c1.4,5,3.7,9.6,6.8,13.7c6.8,9,16,14.9,26.1,19.5c10.7,5,22.8,6.4,34.4,4
		c2.9-0.6,3.5-1.5,2.1-4.1c-1.5-2.5-2.4-5.2-2.8-8.1c-1.5-18.8-1.8-37.5,2.3-56c3.3-14.6,9.5-28.1,14.8-42c3.7-9.6,7.6-19,9.9-29
		c0.2-1,1.2-2.1-0.2-3c-1.4-0.9-9.8-0.4-11.6,1.9c-0.4,0.6-1.3,1.4-0.6,1.9c0.7,0.5,0.4,2.6-0.2,3.7c-3.9,6.7-7.9,13.3-12,19.9
		c-0.6,1-1,3.3-2.5,2.5s-0.3-2.5,0.2-3.7s0.8-1.8,1.2-2.7c3.3-7.4,6.6-14.8,9.8-22.3c0.4-0.9,1.8-2.2,0.3-2.9s-1.7,1.1-2.3,1.9
		c-9.7,13.7-18.4,28.1-24.9,43.7c-5.4,12.7-9.1,26.2-10.9,39.9c3.1-0.9,5.7-3,7.3-5.8c2.8-4.8,5.6-9.8,8.4-14.6
		c1.5-2.5,3.2-4.8,4.9-7.1c0.4-0.6,0.9-1.9,2-1c1.1,0.9-0.1,1.3-0.4,2c-1.5,2.7-3,5.4-4.4,8.2c-3,5.8-5.7,11.7-10.1,16.6
		c-3.5,4-7.9,7-12.9,8.9c1.7-16.1,4.4-31.4,10.9-45.9c6.5-14.5,16-30.5,23.5-46c0.5-1,2-2.1,1-3.3s-2.4-0.2-3.6,0
		c-5.1,1.1-10.1,2.8-14.9,4.9c-17.1,7.5-30,20.1-41.5,34.3s-20,29.3-29.2,44.4c-0.6,1-0.8,2.4-3.3,3c19.2-39.1,43.1-72.7,84-91.4
		c-5.2-2.9-9.6-2.6-13.9-0.3l-15.2,8.2c-0.9,0.5-2.1,1.7-2.9,0.4c-0.8-1.3,0.9-2,1.8-2.6L261,142.3z M529.3,544.1
		c2.6-5.1,5.5-10.1,8.7-14.8c10.3-14.5,23.8-25.5,38.6-35.1c2.4-1.5,3-2.5,0.9-4.9c-5.1-5.9-9.8-12-14.7-18
		c-13.1-16.1-27.5-30.7-45.9-40.9c-6.5-3.6-6.9-3.5-12.6,1.1l-3.6,2.7c-2.9,2.6-7.2,2.8-10.4,0.5c-2.4-1.5-4.8-3.1-7.3-4.5
		s-4-1.1-5,1.4s-2.9,7.7-1.7,12c7.7,26.5,17.4,52.1,32.8,75.3C515.1,527.7,522.1,535.9,529.3,544.1z M346.4,51.3l-0.8,3.2
		c-1.9,7.6-3.6,15.3-5.7,22.9c-0.8,3,0.1,3.4,2.7,3s7.9-1,11.9-1.2c1.8,0,3.3-1.2,3.7-2.9c2.7-7.5,5.6-15,8.3-22.5
		c2.8-8,4.7-16.3,5.7-24.8c0.9-7.1-2-11.8-8.1-14.9c-2.2-1.2-4.6-2.1-7-2.7c-10-2.3-19.9-1.3-29.5,2c-3.9,1.3-7.6,4.5-11.3,4.4
		s-7.5-3.3-11.5-4.7c-11.9-4.2-23.5-4-34.6,2.6c-3.8,2-6.1,6.1-6,10.4c-0.3,10,1.9,20,6.3,29c3.4,6.9,6.8,13.9,10.2,20.9
		c2.6,5.4,2.6,5.3,8.5,4.6c2.3-0.3,2.7-0.9,1.9-3.1c-1.9-4.7-3.7-9.5-5.5-14.3l-2.5-6.7c2.3,0,2.8,1.5,3.5,2.5
		c2.1,3.1,3.7,6.5,4.8,10.1l4.2,12.4c0.8,2.5,1.5,3.7,3.9,0.9c5.2-6.2,12-8.1,19.9-6.5c5,1.1,9.8,3,14.2,5.7c2.6,1.6,3.3,1,3.6-1.8
		c0.5-5.2,1.2-10.4,2.1-15.6C340.1,59.3,342.1,54.7,346.4,51.3z M535.2,553.4c-2.8-1.7-4.4-3.7-6.2-5.5
		c-20.2-20.8-33.9-45.6-44.8-72.1c-4.9-11.9-9-24.1-12.9-36.3c-0.3-0.9-0.1-2.3-1.3-2.4c-1.2-0.1-2.2,1-2.9,2.1
		c-0.7,1.1-0.3,3.8,0.4,5.7c3.1,7.4,1.5,12-5.7,15.7c-2.3,1.2-4.8,2.2-7.3,2.9c-2.8,0.7-3,2.1-2.4,4.6c3.3,13.1,7.9,25.8,13.5,38.1
		c10.2,22.5,22.1,44.3,28.6,68.3c0.9,3.2,3.2,4.1,6.4,3.6c11.9-1.5,22.9-7,31.3-15.5c2.7-2.7,4.2-6.2,5.3-9.8s-1.3-5.7-5-4.8
		C532.8,549.8,534.8,550.7,535.2,553.4z M189.2,410.4l-8.2,0.4c-1,0.1-2.2,0.2-2.1,1.6s1.3,0.9,2.1,0.9c8,0.1,15.5,2.5,22.8,5.4
		c4.7,1.6,8.4,5.2,10.4,9.7c9,19.8,24.7,31.1,45.9,35.3c8,1.6,15.3,0.6,21.9-4.7c4.7-3.7,10.9-5.1,16.7-3.6
		c4.8,1.2,9.5,2.6,14.1,4.4c27.2,9.6,53.7,8.7,79.4-4.8c7.4-3.9,15.2-6.9,23.3-9c7-1.8,7.6-1.6,9.2,5.5c1.1,4.9,3.8,7.6,8.6,8.7
		c8.4,1.9,16.7,1.5,24.6-1.9s8.5-6.3,4.4-13.3c-0.4-0.8-0.9-1.5-1.4-2.2c-2.4-2.8-1.7-5.2,0.9-7.4c5-4.4,10.8-7.7,17.1-9.9
		c2.5-0.9,5.1-2.2,7.5-2s2.5,3.4,3.9,5.1c3.4,4.2,6.4,4.6,10.5,1.3c2.1-1.8,4-3.8,5.6-6c2.9-3.8,5.7-7.6,8.6-11.4
		c5.7-7.2,12.1-13.7,20-18.5c7.9-4.8,6.5-3.9,7.6,3.5v0.4c0.1,2.2,1,2.1,2.6,1.1c3.8-2.4,7-5.7,9.4-9.5c4.9-7.6,7.9-16.2,9-25.2
		c1-8,3-15.4,9.2-21.1c3-2.7,3.5-6.6,2.5-10.4c-0.3-1.3-1.1-2.9-2.4-3.1s-2,1.3-2.6,2.4c-1.7,3.3-3.2,7-6.3,9.2
		c-5.4,3.7-6.3,8.9-6.4,14.7c0.1,5.9-0.7,11.7-2.3,17.4c-1.5,5.2-4.4,9.9-8.4,13.5c-1.4,1.2-2.8,2-4.6,0.2c-3.8-4-3.9-3.9-8.4-0.6
		c-8.7,6.1-16.3,13.6-22.6,22.2c-4,5.5-8.3,10.6-14.5,13.8c-3.9,2-3.9,2-4.3-2.2c-0.8-7.3-1.1-7.5-8-5.7l-4.3,1.3
		c-8.3,2.8-15.9,6.8-22.1,13s-5.5,8.9-1.3,14.9c0.6,0.9,1.4,1.8,1.9,2.8c1.9,3.1,1.6,4.8-1.6,6.4s-9.6,3.7-14.8,3
		c-7.7-1.1-14.4-3.8-15.4-13c-0.3-2.6-2.5-3.2-4.7-3.6c-5.6-0.8-11.3-0.1-16.5,2.1c-4.3,2-8.5,4.2-12.5,6.8
		c-16.2,9.5-33.4,14.5-52.3,11.6c-9.4-1.4-18.5-4.4-27.6-6.8s-19.1-3.3-27.8,1.3c-12.5,6.6-24.7,4.8-37,0.3
		c-14-5.2-23.4-15.2-29.8-28.3c-3.6-7.4-8.8-13-17.2-14.9C197.5,410.6,193.3,410.2,189.2,410.4z M589.6,502.2
		c3.3-6.1,6.4-11.4,9.1-17.1c2.5-4.8,1.8-10.7-1.8-14.8c-15.5-19.1-31-38.2-47.1-56.8c-4.3-4.9-9.5-8.9-15.3-11.9
		c-1.2-0.6-2.3-1.6-3.6,0.1l-15.1,18.6c-1.4,1.7-1.3,2.8,0.9,4c17.2,10,31.3,23.4,44,38.6c10.2,12.3,19.4,25.3,29,39.3L589.6,502.2
		L589.6,502.2z M476.2,265c3.2-1.5,6.3-2.2,8.4-4.7c5.3-6.2,10.4-12.4,15.3-19c2.3-3.1,2.2-5.8-0.3-8.7c-4.7-5.4-9.1-10.9-13.9-16.2
		c-23.7-26.5-50.3-50.1-76.7-73.7c-4.2-3.6-8.9-6.4-14-8.5c-5.1-2.2-10.3-1.8-14.1,0.9c11.9,7.2,25.4,12.1,34,23.9
		c-12-5.4-21-16.5-35-18.5c0.5,1.8,1.9,2.3,3,3c10,6.8,19.6,14.2,29,21.9c23.2,19.1,42.8,41.6,60.2,66c7,9.7,12.3,20.5,4.2,32.6
		C476.2,264.1,476.2,264.2,476.2,265z M188.4,251.3c0.3,0.2,0.6,0.6,0.9,0.6c6.9-0.3,8.9,4.1,10.3,9.9c2.9,12.4,10.1,23.4,20.2,31.2
		c18.2,14.2,39.1,17.4,61.3,15.1c9.6-1,10.6-2.9,6.7-11.7c-1.4-3.1-0.7-5.1,2.2-6.4c16.7-7.7,34-9.4,51.8-4.5
		c6.3,1.7,10,6.3,10.9,12.9s2.8,7.5,8.4,8.2s13.3-1.3,19.4-4.4s11-5.4,16.2-8.5s8.7-2.3,13.1-0.1c4.4,2.2,8.2,4.2,12.7,5.4
		c8.4,2.3,14.6-1.1,17.1-9.4c1-3.4,1.7-6.8,2.3-10.2c1.6-8.3,5.1-15.3,12.5-20c2.7-1.8,5.3-3.8,7.8-5.8c4.1-3.2,8.3-6,13.9-4.6
		c0.4-1.6-0.4-2.5-0.7-3.6c-1.5-4.5-1.8-4.5-6-2.6s-7.1,3.2-10.7,4.6c-10.1,4.1-16.9,11.2-19.6,22.2c-1.1,5.3-3,10.3-5.5,15.1
		c-2.9,5.1-6.5,6.4-12,4c-2.5-1.2-4.9-2.5-7.2-4c-3.6-2.3-7.8-3.4-12.1-3.2c-4.5,0.3-8.4,2.1-12.3,4.2c-7.3,3.8-14.5,7.8-21.8,11.6
		c-5.8,3-8.7,2.1-12.4-3.3c-1.9-2.8-3.1-6-4.6-9s-4.5-6.3-9-7c-18.3-3.1-36.1-1.6-53.3,5.5c-9.8,4-9.8,4-4.6,13
		c1.5,2.7,0.6,5.1-2.4,5.5c-22,3.2-42.1-0.8-58.8-16.4c-9.3-8.7-15.2-19.4-19.8-31.1C200.5,247.5,193.8,246.1,188.4,251.3z
		 M392.8,595.5c-12.7-0.1-24.7,3.2-36.6,7.1c-3.6,1.2-5.8,3-5.6,7.2c0.1,2.1-0.6,4.2-0.3,6.3s-0.7,2.6-2.4,2.7
		c-7.8,0.7-15.6,2.2-23.5,1.2c-11.8-1.6-22.1-6.9-31.9-13.3c-6-3.9-11.9-7.9-17.9-11.7c-3.9-2.4-8-3.3-12.5-1.5
		c-2.8,1.1-3.2,2.9-2.5,5.6s2.4,3.1,4.5,2.5c7.1-1.8,12.8,0.8,18.4,4.9c9.4,7,19.3,12.9,30.3,16.7c11,3.8,24.2,4.8,36.3,0.1
		c4.8-1.9,5.8-3.7,4.5-8.6c-0.8-3.3,0.1-5.2,3.5-6.1l22-6c5.3-1.4,10.7-2.7,16-3.8s6.6-0.2,8.2,5c0.7,2.1,1.2,4.3,2,6.4
		c2.1,5.3,6,8.1,11.8,8.2c5.5,0.2,11-1.4,15.6-4.5s8.9-6.5,12.9-10.3c11.1-11.1,23.4-21,36.7-29.5c1.6-1,3-2.2,4.5-3.3
		s1-1.7-0.3-2.4c-3.2-2-7.3-1.7-10.2,0.7c-3.9,2.9-7.7,6-11.5,9c-11.6,9.1-22.1,19.5-34.3,27.9c-10.3,7.1-17.8,5.3-23.7-5.6
		c-1.7-3.2-4.1-4.9-7.7-5L392.8,595.5z M360.6,146.5l-1.4-1.6c-2.2-2.4-4.6-4.6-6.6-7.1s-3.3-3-6-0.8c-4.4,3.5-6.6,3-10-1.5
		c-2.2-2.9-4.1-6-6.4-8.7s-6.7-4.4-11.1-1.4c-2.1,1.5-4,3.4-5.6,5.5c-2.1,2.7-4,5.4-6,8.1s-4.1,3.1-6.7,1.3s-3.7-2.5-5.5-3.9
		s-2.1-0.8-2.8,0.7c-1.7,3.6-3.5,7-5.5,10.4c-2,3.1-0.6,4,2.3,4.6c4.6,1.1,9.3,1.8,14,2.2c14.7,0.9,29.4,1.5,43.2-5.5
		c3.7-1.9,7.9-2.4,12-1.5C359.4,147.4,360.3,148.1,360.6,146.5z M494.3,579.5c-1.9,6.3-1.7,6.6,4.3,7h3.7
		c11.8-1.1,22.1-5.9,31.2-13.3c4.6-3.5,8.3-8.1,10.9-13.2c1.9-3.8,2.4-7.7-0.1-11.4c-2.5-3.7-2.2-8.2,0.5-12.2
		c7.7-11.6,17.1-21.8,28-30.5c2.4-1.8,5.1-3.2,8-3.9c-2.1,3.8-4.5,6.9-2,10.9c0.8,1.3,1.3,1.5,2.5,0.5c4-3.6,5.3-9.5,3-14.4
		c-2-3.8-4.3-4.5-7.8-1.9c-5.8,4.3-11.7,8.6-17.4,13.1c-10.5,8.1-19.1,18.5-25.2,30.3c-1.2,2.3-1.1,3.2,1.6,4.1
		c5.3,1.8,6.4,4.8,4,9.9c-1.1,2.1-2.3,4.2-3.7,6.1c-7.2,10-17.7,15.1-28.8,19.4c-4.2,1.5-8.4,2.6-12.6-0.6L494.3,579.5z
		 M161.2,586.8c-0.6-1.4-1.7-1.6-2.5-2c-9-4.4-18.1-8.5-26.9-13.1c-22.1-11.5-39.8-27.5-49.9-50.8c-1-2.4-3.1-3.5-5.2-4.6
		c-6.8-3.5-13.9-6.2-20.3-10.4c-6.4-4.2-12.6-9.9-15.6-17.7c-1.8-4.8-4.8-8.8-6.8-13.5c-1,0.7-0.7,1.4-0.7,2
		c0.4,20.1,12.9,35.5,33.8,40.2c6.4,1.4,9.9,4.5,12.4,10.2c9.2,20.9,25.7,37.8,46.3,47.5c11.3,5.5,23.2,9.5,35.5,12.2H161.2
		L161.2,586.8z M97.3,362l14.3,8.7c3.4,2.1,5,5,4.1,9.2c-0.7,3.6,0,7.4,2,10.5c12.4,21,31.6,30.8,55.1,33.4c0.7,0.1,2,0.3,1.9-0.5
		c-0.2-2.5-0.8-4.9-1.7-7.2c-0.6-1.3-2.3-0.2-3.4,0.2c-1.9,0.6-4,0.7-5.9,0.2c-17.1-4.7-31.5-13.1-41.2-28.5c-1.9-3-3-6.2-1.7-9.6
		c2.3-6.2-0.9-9.9-5-12.7C110.5,361.8,103.7,360.4,97.3,362z M153.6,565.3c16.1,1.5,29.4,8.3,42.1,16.7c9.1,6,18.3,11.8,27.5,17.5
		c8.4,5.2,17.8,8.6,27.6,10c3.8,0.6,7.1-0.3,9.8-4.2c-7.4-2-14.4-4-21.5-5.8c-12.6-3.1-24.4-7.9-34.6-16.3
		c-4.5-3.7-9.4-7.1-14.1-10.5c-7.9-5.7-16.2-10.2-26.1-11.4C160.4,560.9,156.8,561.2,153.6,565.3z M355.1,98.3L355.1,98.3
		c-0.3-4-0.5-8-0.7-12c-0.1-1.8-0.5-3.5-2.7-4c-5-1.2-9.1,0.5-12.8,3.7s-2.1,6.1-1,9.4c1.8,5.1,2.7,10.2,0.7,15.4
		c-0.7,1.8,0,2.2,1.5,2.4l10.1,1c3.3,0.2,4.9-1.4,4.9-4.7s0.1-7.4,0.1-11.2L355.1,98.3z M316.8,94c-3.4,0.9-5.3,2.5-6.6,4.9
		c-1.3,2.4-1,6.6,1.4,8.1s5.2,0.1,6.9-2.3s2-1.9,3.7-0.5s4.5,0.3,6.4-1.1s3.3-3.1,2.5-5.7c-2.6-8.1-9.8-13.8-18.3-14.4
		c-4.9-0.3-7.4,3.1-5.7,7.7c0.2,0.7,0.9,1.3,0,2c-7.4-1.3-7.3-1.2-7.6,6.5c-0.1,3.3,1.9,4.2,4.2,4.7c2.3,0.5,1.7-2.1,2.2-3.2
		c1.2-3,2.3-5.9,5.3-7.4s5.9-0.2,8.3,2.2s1,3.8-0.3,5.7c-0.8,1.3-2.5,1.8-3.9,1.1c-1.7-0.7-0.8-2.2-0.6-3.2c0.6-1.7,1.4-3.4,2.2-5.1
		L316.8,94z M147.4,235.8c-2.9,3.6-2.5,7.4-1,11.3c5.8,14.5,17.6,21.5,32,25c2.7,0.7,4.9-0.6,6.6-2.7s2-3.4-1.3-4
		C166.4,261.9,154.6,252,147.4,235.8z M290.2,117.6c-5.8-2.6-5.8-2.6-8.9,2.4l-10.5,16.8c-3.2,5.2-3.2,5.2,2.1,8.1
		c10.6,5.9,8.9,5.8,14.3-4.3c1-1.9,2.8-3.9,2.6-5.7s-3.4-2.2-5.2-3.3c-1.8-1.1-3.3-3.4-1.1-6C285.7,123,288,120.3,290.2,117.6z
		 M297.4,112.5l-6.7,9c-1.8,2.4-5.2,5.3-4.7,7.2s5,3.1,7.7,4.4c2.7,1.3,7.5,5.5,10.3,4.1s4.1-6.5,6-10l0.2-0.3
		c1-1.5,0.6-2.2-1.1-2.5c-4.1-0.6-6.6-3.3-8.6-6.6L297.4,112.5z M505.8,238c-3.2,4-5,8.2-7.4,12.1c-4.9,8.1-11.6,14.4-20.8,17.1
		c-5.2,1.5-5.3,4.5-5.5,8.7c-0.1,2,0.8,2,2.2,1.1c6.7-4.1,13.7-7.7,20.1-12.3c5.9-4.3,10.3-10.4,12.3-17.4
		C507.7,244.2,507.4,240.8,505.8,238z M342.1,116.4c-7.5-0.3-10.9,4.7-7.7,10.8c1.3,2.3,2.8,4.5,4.3,6.6c1,1.7,3.1,2.2,4.8,1.3
		c0,0,0.1,0,0.1-0.1l11.7-6.5c1.3-0.7,1.4-1.4,0.6-2.6C352.5,120.6,348.1,116.9,342.1,116.4z M70,327.8c-3.1,3.2-4.6,6.1-4.2,9.4
		c1.4,10.6,3.7,20.9,10.4,29.7c4.3,5.6,10.4,9.5,17.3,11.1c0.8,0.2,2.5,0.9,2.4-0.4s0.2-3.7-1.9-4.9c-3-1.8-5.9-3.8-8.6-6
		c-9.9-7.9-15.6-18-15.4-31C70,333.4,70,331.1,70,327.8z M335.1,99c-3,5.5-4.9,6.9-10.4,8c-2.7,0.6-5.4,0.7-8,1.7
		c-2.7,1.2-5.8,0.9-8.2-0.8c-2.5-1.7-5.1-0.2-5.3,2.7c-0.1,2.8,1.1,5.5,3.2,7.3c1.9,1.8,4,0.2,5.9-0.6l1.3-0.7
		c2.4-1.5,4.8-3,7.7-0.7c1.2,0.8,2.8,0.7,3.9-0.3c3.5-2.8,7-5.6,9.5-9.4C336.1,104.3,336.1,102,335.1,99z M292.3,97.3
		c0-3-0.1-5.5,0-8c0.4-2.8-1.6-5.3-4.3-5.7c-3.2-0.7-4.4,1.7-5.2,4.2c-2.4,7.6-1.2,14.8,2.4,21.7c0.7,1.3,1.3,3.5,3.2,3.2
		s2.3-2.1,3-3.6C293.1,105,292.1,100.8,292.3,97.3L292.3,97.3L292.3,97.3z M355.4,118.9l2.1,2.6c1.8,2.2,5.2,4.6,5,6.6
		s-4.4,2.9-6.8,4.4l-1,0.6c-1.1,0.6-1,1.2-0.2,2c2.7,2.9,4.9,7.2,8.3,8.4s6-3.2,9.1-4.9l0.6-0.4c1.1-0.6,1.1-1.4,0.6-2.5
		c-2.6-5.6-5.6-10.9-10.5-14.8C360.8,119.3,358.7,118,355.4,118.9L355.4,118.9z M472.7,251.4c-4.4,0.7-7.8,4.2-11.8,6.6
		c-1.9,1.1-1.6,2-0.2,3.4c1.4,1.4,4.7,4.9,6.9,7.4s1.8,1.2,2.8-0.2c2.6-3.7,4.8-7.6,6.6-11.7C478.6,252.6,477.8,251.4,472.7,251.4z
		 M156.7,568.4c-2.2-0.2-2.4,0.9-1.8,2.7c3,8.4,10.7,12.2,17.3,17h0.3c2.4-1.9,1.8-4.9,2.8-7.3s0.4-2.8-0.9-2.6
		c-5.6,0.9-7.8-3.5-11-6.5C160.2,568.7,159.5,568.4,156.7,568.4L156.7,568.4z M585.8,513.3c0.5-0.1,1.1-0.2,1.6-0.4
		c9.7-6.7,15.4-16.2,18.5-27.3c0.9-3.3-1.1-5.4-3.9-7.4C600.3,491.7,592.2,501.9,585.8,513.3L585.8,513.3z M332.2,91
		c0.4-4.1-0.3-6.5-2.6-8.7c-5.7-5.5-16.9-6.6-23.5-2.3c-2.9,1.9-3.9,4.5-2.6,8.3c3.8-5.8,9.1-7.6,15.3-8S326.8,88.1,332.2,91z
		 M144.9,451.8c5.4-7.5,10.8-15,16.1-22.5c0.7-1,2.6-2,1.3-3.4s-2.5,0.3-3.7,0.8c-0.7,0.3-1.3,0.7-1.8,1.3
		C151.3,435.1,147.2,443.2,144.9,451.8z M332.8,113.2c-1.1-0.4-1.5,0.6-2.1,1.1c-3,2.6-5.8,4.8-10.3,3.9c-2.7-0.5-5.2,1.2-7.5,3
		C320.8,124.1,331.6,119.6,332.8,113.2z"/>
	<path d="M426.5,431.5c-1.7-7.8-3.2-15.1-4.8-22.3c-7.1-32.1-15.5-63.8-29.2-93.8l-2.7-5.8c-0.3-0.7-1.2-1.6-0.2-2.3
		c1-0.7,1.8,0.3,2.5,0.8c1.1,0.9,1.9,2,2.4,3.3c16,37.3,28.7,75.6,33,116.2C427.6,428.7,428.2,429.8,426.5,431.5z"/>
	<path d="M241.1,341.5c1.7,1.8,1.5,3.4,1.2,5c-3.3,17.7-6.6,35.3-9.9,53c-1.1,5.8-4.2,10.5-7,15.4l-0.9-0.3L241.1,341.5z"/>
	<path d="M338.1,165.3c12,29.9,17.1,60.5,22.1,91.3c1.4-2.9,0.8-6,1.2-8.9c0.1-0.7,0.1-1.6,1.2-1.5s0.8,0.6,0.8,1.1
		c0,9.1,1.9,18.2-0.9,27.2c-0.3,1-0.4,2.6-1.6,2.7s-1.8-1.7-2.4-2.7c-0.8-1.2-1.2-2.5-1.2-3.9c0.1-19.1-4.7-37.6-8.8-56.1
		c-3.3-14.9-6.9-29.7-10.3-44.5C337.6,168.5,337.6,166.8,338.1,165.3z"/>
	<path d="M402.3,274.1c-2-1.4-3.5-3.4-4.3-5.8l-20-58.9c-0.3-0.9-1.5-2.3,0-2.9s1.6,1.2,2.1,2.1c7.4,14.6,12,30.1,16.8,45.6
		c1.7,5.5,3.5,10.9,5.2,16.4C402.4,271.7,403.4,272.6,402.3,274.1z"/>
</g>
</svg>
