<?xml version="1.0" standalone="no"?>
<!DOCTYPE svg PUBLIC "-//W3C//DTD SVG 20010904//EN"
 "http://www.w3.org/TR/2001/REC-SVG-20010904/DTD/svg10.dtd">
<svg version="1.0" xmlns="http://www.w3.org/2000/svg"
 width="850.000000pt" height="850.000000pt" viewBox="0 0 850.000000 850.000000"
 preserveAspectRatio="xMidYMid meet">
<metadata>
Created by potrace 1.14, written by Peter Selinger 2001-2017
</metadata>
<g transform="translate(0.000000,850.000000) scale(0.100000,-0.100000)"
fill="#000000" stroke="none">
<path d="M3233 7940 c-44 -27 -68 -66 -67 -112 2 -48 36 -88 103 -120 103 -48
130 -84 111 -144 -6 -18 -21 -39 -33 -47 -79 -51 -168 -13 -223 96 -13 26 -29
47 -34 47 -22 0 -20 -30 4 -78 39 -76 100 -119 181 -127 6 -1 26 3 45 8 75 19
123 102 100 173 -13 39 -49 68 -133 108 -70 34 -95 72 -76 117 35 85 183 76
253 -16 28 -36 46 -38 46 -6 0 21 -63 83 -107 105 -45 22 -130 21 -170 -4z"/>
<path d="M3645 7786 c-132 -61 -196 -206 -140 -319 39 -82 161 -121 260 -83
61 24 140 111 160 178 18 61 18 62 5 110 -33 116 -167 170 -285 114z m180 -41
c109 -63 86 -224 -42 -305 -79 -50 -181 -39 -232 26 -64 82 -14 221 101 278
66 33 118 34 173 1z"/>
<path d="M4265 7641 c-81 -37 -145 -132 -145 -217 0 -82 63 -178 137 -209 19
-8 61 -15 92 -15 46 0 67 6 111 33 37 21 56 40 58 55 4 26 -19 30 -39 6 -50
-60 -176 -71 -242 -21 -81 62 -99 177 -41 259 74 105 217 117 311 26 20 -19
38 -28 48 -24 21 8 6 37 -38 70 -73 56 -178 71 -252 37z"/>
<path d="M4675 7513 c-75 -39 -130 -117 -142 -198 -8 -62 33 -145 90 -183 35
-23 51 -27 113 -27 64 0 77 3 116 30 51 36 98 120 98 176 0 83 -57 175 -127
205 -43 18 -111 17 -148 -3z m157 -48 c42 -28 78 -96 78 -146 -1 -77 -66 -162
-136 -175 -85 -16 -160 24 -189 100 -21 55 -15 97 21 153 58 88 154 117 226
68z"/>
<path d="M5085 7386 c-175 -81 -194 -323 -30 -397 74 -34 158 -19 225 39 46
39 65 71 79 133 21 92 -29 192 -113 230 -55 25 -101 24 -161 -5z m143 -30 c41
-21 81 -68 92 -107 25 -85 -30 -188 -119 -225 -77 -32 -166 -1 -200 70 -26 52
-26 99 -2 151 45 97 154 150 229 111z"/>
<path d="M5889 7323 c-54 -141 -149 -403 -149 -413 0 -6 8 -10 18 -8 12 2 38
59 94 208 43 113 77 213 78 223 0 27 -29 20 -41 -10z"/>
<path d="M5453 7243 c-109 -247 -122 -308 -73 -344 27 -20 150 -53 239 -65 48
-6 53 -5 49 12 -2 13 -16 21 -48 27 -99 17 -186 40 -207 53 -13 8 -23 24 -23
37 0 12 25 83 56 157 68 163 72 180 50 180 -11 0 -26 -21 -43 -57z"/>
<path d="M3665 6924 c-11 -2 -45 -9 -75 -15 -90 -17 -180 -49 -275 -97 -115
-59 -248 -187 -313 -303 -133 -237 -189 -482 -199 -873 l-6 -219 -29 57 c-105
208 -363 271 -510 125 -51 -51 -85 -137 -74 -190 5 -26 2 -29 -29 -35 -48 -9
-108 -54 -128 -97 -23 -48 -22 -114 3 -155 62 -102 223 -95 274 12 14 29 21
34 34 27 51 -26 146 -18 183 15 15 13 21 12 54 -11 21 -14 41 -25 44 -25 3 0
11 -16 17 -35 10 -32 9 -36 -13 -50 -15 -10 -23 -25 -23 -44 0 -27 26 -61 47
-61 7 0 13 -47 17 -122 4 -68 9 -135 12 -150 5 -24 0 -29 -50 -53 -69 -33
-122 -93 -142 -163 -18 -62 -12 -116 21 -182 21 -42 104 -130 122 -130 5 0 14
-4 22 -9 11 -7 9 -13 -9 -31 -45 -45 4 -134 102 -183 93 -47 249 -57 388 -25
57 13 194 77 239 112 19 14 36 25 37 23 4 -4 -44 -196 -68 -267 -11 -36 -36
-101 -55 -145 -32 -74 -33 -80 -17 -92 10 -7 24 -13 31 -13 7 0 13 -1 13 -2 0
-2 -9 -36 -20 -77 -10 -41 -17 -78 -14 -83 3 -5 21 -15 40 -23 29 -12 33 -18
29 -42 -3 -15 -12 -89 -20 -163 -32 -279 -108 -776 -158 -1038 -14 -73 -14
-73 9 -89 22 -14 23 -17 9 -43 -23 -44 -19 -94 9 -127 l24 -28 149 0 c175 0
199 8 209 75 6 39 7 40 48 40 56 0 209 26 234 39 11 6 43 11 71 11 42 0 51 -3
51 -17 0 -10 9 -32 20 -50 30 -50 73 -58 238 -45 76 7 163 12 195 12 70 0 102
14 118 51 27 67 -17 151 -104 196 -34 18 -47 31 -47 47 0 11 -3 38 -6 58 l-6
37 90 -45 c50 -24 133 -58 184 -76 90 -31 99 -32 258 -33 l165 0 15 -59 c16
-65 36 -82 46 -42 7 31 15 32 39 6 29 -32 45 -9 38 54 l-6 53 89 7 c107 9 351
43 364 51 17 11 11 24 -50 115 -51 76 -60 96 -60 134 0 72 12 93 60 101 23 4
44 13 46 20 3 7 -9 41 -26 75 -17 34 -29 64 -27 67 3 2 31 11 64 20 89 23 93
31 44 74 -46 39 -60 84 -47 154 6 29 12 37 37 42 40 8 37 31 -12 78 -66 65
-66 66 2 116 33 23 58 49 57 57 -2 8 -27 24 -55 36 -49 19 -53 24 -53 54 0 32
13 50 65 85 20 15 23 22 15 32 -21 25 -173 72 -370 115 -107 24 -198 46 -202
49 -4 3 2 31 12 61 28 80 26 145 -7 211 -47 92 -106 112 -267 89 -38 -6 -72
-8 -75 -5 -3 4 2 27 12 53 16 44 16 48 0 57 -9 6 -29 23 -45 40 -40 42 -52 25
-53 -80 l0 -85 -35 -5 c-83 -12 -166 -37 -196 -60 l-32 -25 -40 93 c-86 195
-94 227 -57 227 10 0 15 9 15 28 -1 56 -21 166 -43 232 l-23 68 78 7 c99 9 92
11 98 -25 7 -43 24 -42 28 2 3 35 6 38 45 45 41 8 42 10 47 53 l5 45 17 -43
c16 -42 18 -43 51 -37 31 6 35 4 41 -20 9 -34 32 -27 28 8 -2 15 1 27 6 27 6
0 17 3 26 6 11 4 15 -3 18 -32 4 -53 26 -56 30 -3 3 40 5 43 43 53 l40 12 6
64 c44 434 59 1104 31 1295 -43 284 -137 503 -285 661 -135 145 -360 250 -641
299 -80 14 -317 19 -371 9z m292 -39 c143 -12 355 -74 488 -144 252 -131 408
-381 472 -756 25 -150 25 -697 -1 -1030 -24 -310 -26 -326 -53 -336 -23 -8
-23 -6 -36 171 -1 19 -6 33 -12 30 -6 -3 -9 -47 -8 -105 1 -101 -3 -115 -38
-115 -13 0 -19 26 -34 150 -17 139 -26 172 -43 156 -3 -4 2 -68 11 -144 21
-169 21 -172 -1 -172 -14 0 -27 22 -51 85 -55 140 -75 137 -72 -11 2 -93 2
-93 -24 -100 -14 -3 -27 -5 -29 -3 -2 2 -9 96 -17 208 -11 158 -17 205 -28
209 -12 4 -13 -12 -8 -99 4 -57 9 -155 13 -216 l7 -113 -36 0 c-28 0 -37 4
-38 18 -1 53 -26 243 -32 249 -19 19 -23 -23 -11 -127 18 -160 20 -150 -20
-150 -32 0 -34 2 -42 46 -10 50 -29 60 -29 14 0 -17 -3 -30 -7 -30 -5 0 -8 4
-8 8 0 5 -16 27 -35 49 -19 23 -35 50 -35 61 0 46 -30 72 -44 37 -4 -12 -14
-9 -51 16 -57 38 -62 73 -12 83 17 3 78 29 133 56 117 57 236 159 300 260 31
47 44 60 64 60 39 0 143 54 185 95 137 138 102 345 -59 345 -39 0 -46 3 -46
20 0 11 17 46 39 78 21 31 45 71 54 87 29 58 57 168 63 249 7 90 -10 218 -31
236 -23 19 -27 -6 -15 -83 22 -127 -2 -284 -61 -399 -26 -51 -30 -48 -13 10
28 90 20 272 -12 272 -12 0 -13 -7 -7 -37 11 -53 7 -187 -6 -209 -8 -15 -10
-8 -11 36 0 70 -21 147 -60 226 -33 67 -113 164 -136 164 -21 0 -18 -8 31 -63
102 -117 143 -245 137 -429 -2 -59 -17 -62 -26 -6 -10 64 -78 184 -169 299
-112 141 -143 187 -185 277 -29 64 -35 89 -36 147 0 39 3 85 8 103 13 48 -16
42 -47 -10 -56 -94 -171 -178 -306 -222 -42 -14 -149 -41 -237 -61 -186 -41
-244 -59 -334 -106 -36 -19 -68 -35 -72 -37 -5 -2 -8 3 -8 11 0 21 112 108
185 145 33 16 103 40 155 52 179 41 243 67 305 121 34 30 46 59 24 59 -6 0
-24 -14 -41 -30 -47 -48 -117 -78 -255 -110 -172 -40 -269 -89 -364 -180 -40
-39 -76 -70 -81 -70 -18 0 47 107 98 160 57 60 63 70 40 70 -31 0 -117 -104
-159 -189 -44 -91 -57 -92 -37 -2 31 143 146 292 273 355 62 31 74 43 60 57
-14 14 -86 -20 -159 -73 -98 -73 -165 -168 -203 -288 -11 -36 -31 -92 -45
-125 -37 -90 -49 -198 -41 -353 l7 -134 -24 8 c-33 12 -96 8 -115 -7 -14 -13
-15 -5 -9 86 32 461 153 772 371 955 65 54 228 132 331 159 89 23 236 40 299
35 22 -2 73 -6 112 -9z m293 -583 c22 -43 81 -129 131 -192 163 -205 208 -296
209 -419 0 -58 2 -63 20 -58 26 7 27 -19 2 -32 -24 -13 -72 -82 -72 -104 0
-30 26 -18 54 23 45 69 122 99 177 70 57 -31 65 -129 16 -210 -46 -78 -113
-121 -227 -144 -16 -4 -33 -20 -47 -45 -90 -158 -271 -287 -478 -342 -115 -30
-325 -37 -473 -15 -145 22 -290 59 -369 96 -126 58 -213 171 -213 275 0 28 12
106 26 175 25 120 26 133 20 342 -5 154 -3 237 6 285 l12 68 11 -61 c18 -96
36 -109 62 -46 21 51 78 127 114 153 27 19 33 20 61 8 18 -7 47 -26 65 -42 18
-16 33 -25 33 -21 0 17 -38 66 -64 84 l-27 17 23 15 c45 28 131 58 241 84 292
68 353 85 430 123 45 22 105 60 132 84 l50 45 17 -70 c10 -38 35 -103 58 -146z
m-1661 -697 c101 -55 165 -152 164 -247 -1 -61 -5 -58 81 -72 10 -1 30 -15 44
-31 19 -23 23 -36 19 -68 -9 -66 -65 -107 -147 -107 -58 0 -82 22 -78 71 3 30
0 34 -20 32 -30 -4 -85 25 -78 40 36 86 29 141 -23 191 -43 41 -98 46 -139 11
-59 -49 -35 -135 37 -135 40 0 61 14 61 42 0 21 -12 23 -39 6 -41 -25 -70 22
-35 56 38 39 107 0 119 -68 10 -52 -28 -108 -89 -131 -43 -17 -48 -17 -93 0
-76 27 -86 25 -94 -15 -11 -53 -59 -90 -115 -90 -39 0 -51 5 -80 34 -29 29
-34 41 -34 80 0 36 6 52 30 80 33 37 88 61 120 53 25 -6 40 13 29 38 -24 60 0
137 60 195 57 56 96 70 182 66 49 -2 79 -10 118 -31z m371 20 c23 -12 30 -23
30 -44 0 -25 -3 -27 -29 -23 -23 3 -32 -1 -41 -18 -14 -27 1 -70 25 -70 17 0
20 21 4 37 -7 7 -7 13 -1 17 5 3 16 -2 25 -12 12 -14 13 -27 5 -79 -6 -35 -15
-63 -20 -63 -17 0 -70 63 -89 105 -19 41 -25 111 -11 131 9 14 44 33 60 34 7
0 26 -7 42 -15z m-105 -204 c3 -11 26 -38 51 -61 43 -40 45 -44 39 -82 l-7
-40 -19 31 c-11 18 -35 41 -54 52 -32 19 -35 25 -35 70 0 49 13 65 25 30z m95
-279 c0 -36 53 -123 103 -168 90 -82 259 -143 492 -178 50 -7 83 -16 75 -19
-8 -2 -35 -10 -60 -17 -70 -19 -177 -79 -235 -132 -50 -46 -56 -48 -94 -42
-38 6 -41 9 -41 38 0 73 -13 136 -27 136 -13 0 -14 -13 -8 -81 7 -75 6 -81
-11 -77 -14 2 -21 16 -26 53 -16 104 -19 115 -30 115 -7 0 -22 -10 -35 -22
-13 -12 -25 -20 -27 -17 -2 2 -25 46 -50 97 -70 139 -85 124 -64 -58 14 -118
11 -132 -18 -112 -6 4 -15 72 -21 152 l-10 144 23 19 c29 22 31 58 5 81 -18
16 -18 18 10 47 16 17 29 37 29 45 0 8 5 14 10 14 6 0 10 -8 10 -18z m-91
-111 c12 -8 13 -12 1 -26 -7 -9 -20 -13 -28 -10 -12 4 -13 -20 -7 -177 4 -101
9 -186 12 -191 2 -4 19 -13 37 -21 48 -20 107 -76 127 -121 51 -111 -7 -252
-126 -306 -49 -23 -152 -25 -200 -5 -81 34 -144 112 -160 198 -16 87 62 203
154 228 22 6 42 14 44 18 5 8 -10 290 -19 340 -4 26 -9 32 -30 32 -37 0 -28
33 11 41 46 10 168 10 184 0z m1157 -273 c-15 -93 -76 -148 -163 -148 -43 0
-59 5 -94 33 -42 32 -70 70 -84 115 -6 22 -6 22 102 23 59 0 128 4 153 8 92
17 93 16 86 -31z m-1031 -38 c26 -52 43 -61 66 -34 12 14 14 14 20 -3 4 -10 8
-34 8 -53 2 -46 9 -56 49 -65 22 -4 32 -12 32 -25 0 -22 29 -50 31 -29 1 8 1
20 0 27 -1 7 9 12 25 12 l26 0 -18 -27 c-9 -16 -28 -44 -40 -63 -13 -19 -32
-59 -43 -88 -21 -52 -21 -52 -1 -69 27 -23 26 -27 -16 -65 -52 -49 -125 -88
-161 -88 -18 0 -33 1 -33 3 0 2 22 26 49 54 102 106 109 252 17 361 -22 25
-29 45 -32 90 -2 31 -6 69 -10 85 -9 41 3 33 31 -23z m674 -25 c60 -113 203
-162 296 -101 37 24 66 58 81 94 8 17 18 32 23 32 17 0 87 -58 138 -114 81
-88 129 -203 148 -352 l7 -52 -52 -11 c-69 -15 -87 -14 -94 5 -10 27 -7 34 20
34 32 0 66 18 59 30 -3 5 -25 7 -49 4 l-43 -6 -9 98 c-7 82 -12 99 -26 102
-15 3 -18 -4 -18 -35 0 -101 58 -456 111 -672 21 -91 26 -126 18 -132 -19 -11
-167 -38 -279 -50 -109 -11 -302 -5 -398 12 -37 7 -58 7 -65 0 -16 -16 28 -28
159 -41 142 -15 304 -8 459 21 151 28 149 28 153 2 4 -28 -12 -35 -163 -71
-99 -23 -129 -26 -305 -26 -175 0 -206 3 -305 26 -60 14 -136 36 -167 48 l-58
21 16 37 c39 88 105 307 128 422 28 144 52 350 42 375 -11 31 -31 9 -36 -41
-4 -44 -7 -49 -28 -47 -12 2 -56 19 -97 40 -71 35 -96 39 -80 12 8 -12 166
-89 184 -89 6 0 11 -13 11 -30 0 -16 -4 -30 -8 -30 -39 0 -262 103 -262 121 0
23 52 121 94 176 76 101 180 173 306 214 30 10 57 18 60 18 3 1 16 -19 29 -44z
m-285 -510 c55 -16 57 -18 52 -43 -9 -38 -88 -108 -166 -147 -108 -54 -171
-69 -300 -69 -140 0 -208 22 -264 84 -35 39 -46 70 -26 70 6 0 10 -4 10 -10 0
-22 31 -8 41 18 l10 27 21 -28 20 -27 36 31 c35 31 37 31 110 25 68 -6 79 -5
129 19 29 15 77 48 106 75 l52 48 55 -28 c31 -16 82 -36 114 -45z m955 -97
c82 -215 148 -346 222 -445 55 -73 76 -108 72 -123 -3 -11 0 -20 6 -20 6 0 11
-4 11 -9 0 -5 -8 -8 -17 -7 -12 1 -18 -6 -18 -21 -1 -35 -9 -35 -50 -3 -44 35
-86 39 -113 9 -20 -20 -20 -20 -71 75 -37 69 -59 126 -80 213 -25 99 -67 308
-74 363 -2 13 20 21 78 29 6 0 21 -27 34 -61z m466 -47 c3 -6 -1 -25 -9 -43
l-14 -33 -1 43 c-1 39 10 54 24 33z m283 -131 c40 -25 71 -89 72 -147 0 -49
-29 -131 -75 -214 -69 -121 -93 -139 -188 -139 -35 0 -87 -4 -116 -10 -58 -11
-110 -4 -118 16 -3 7 4 25 15 39 29 37 13 80 -75 198 -40 54 -80 112 -89 129
-16 31 -16 32 12 55 32 25 102 48 180 57 l51 6 11 -36 11 -37 -44 6 c-50 7
-69 -8 -40 -30 30 -21 114 -16 159 10 48 27 65 52 48 69 -9 9 -18 6 -41 -16
l-29 -28 -7 32 c-4 17 -5 33 -3 35 6 7 130 22 183 24 34 1 60 -5 83 -19z m220
-386 c183 -39 374 -93 367 -104 -3 -4 -73 -48 -157 -98 l-153 -90 -105 13
c-58 8 -278 34 -490 60 -212 25 -396 48 -410 51 l-25 6 28 24 c23 20 35 23 63
18 29 -5 35 -3 45 20 15 33 31 33 73 1 18 -14 37 -25 41 -25 5 0 28 -9 51 -21
24 -11 60 -20 81 -20 78 -1 239 13 270 22 38 12 96 73 125 134 12 25 23 45 25
45 2 0 79 -16 171 -36z m-939 -41 c11 -24 10 -29 -9 -45 -27 -22 -36 -17 -44
24 -10 51 32 68 53 21z m-696 -54 c145 -17 345 -6 482 26 60 14 110 25 111 25
7 0 33 -94 28 -101 -8 -14 -161 -57 -264 -75 -113 -19 -375 -14 -480 10 -87
20 -203 56 -214 66 -7 7 7 86 20 111 2 4 51 -6 110 -22 58 -15 151 -33 207
-40z m1950 -161 c7 -74 12 -69 -145 -167 -139 -87 -138 -87 -138 -15 0 40 6
66 18 82 15 19 236 161 253 162 3 0 9 -28 12 -62z m-807 -8 c274 -34 499 -62
500 -63 1 -1 -4 -25 -11 -53 -9 -34 -10 -65 -4 -95 4 -24 8 -47 9 -50 0 -7
-54 1 -549 82 -201 32 -382 64 -403 69 -64 18 -88 47 -95 113 l-6 57 30 0 c16
0 254 -27 529 -60z m-1281 17 c122 -29 439 -31 555 -4 41 10 87 20 101 23 l25
6 23 -169 c13 -92 47 -347 77 -566 30 -219 54 -403 54 -408 0 -5 -19 -9 -43
-9 -62 0 -142 -43 -180 -97 l-31 -43 -69 0 -69 0 8 233 c10 319 10 341 -1 347
-14 7 -23 -105 -31 -362 l-6 -218 -31 0 -30 0 6 228 c4 125 10 345 13 490 5
170 11 265 18 271 16 12 105 39 141 43 19 2 30 9 30 18 0 23 -55 24 -119 2
-31 -10 -56 -15 -56 -11 0 12 91 89 105 89 19 0 38 27 25 35 -21 13 -114 -49
-147 -99 -32 -47 -33 -51 -33 -155 0 -58 -5 -291 -12 -518 l-12 -412 -50 -11
c-28 -6 -89 -13 -136 -16 l-85 -5 -27 40 c-38 57 -98 85 -174 84 l-60 -1 13
87 c8 47 25 141 38 208 27 134 30 163 15 163 -14 0 -50 -159 -85 -384 -16
-101 -29 -125 -67 -126 -10 0 -18 5 -18 11 0 6 18 113 40 237 21 125 47 281
57 347 l18 120 56 7 c164 20 302 115 369 253 33 68 41 106 23 112 -7 3 -13 -2
-13 -10 0 -8 -16 -46 -35 -85 -41 -82 -117 -157 -199 -197 -52 -26 -180 -55
-191 -44 -3 3 -2 30 2 59 l8 53 60 14 c71 16 133 51 170 95 35 41 75 125 75
156 0 43 -30 19 -55 -43 -29 -72 -94 -136 -162 -159 -66 -23 -87 -21 -80 6 3
12 14 95 24 185 l18 164 25 -6 c14 -4 66 -16 115 -28z m2163 -59 c-5 -15 -23
-11 -26 6 -2 11 2 14 13 10 9 -4 14 -11 13 -16z m-1355 -108 c4 -4 -4 -15 -19
-25 -30 -19 -44 -9 -44 32 0 21 2 22 28 11 15 -7 31 -15 35 -18z m447 -75
c534 -87 563 -90 598 -76 16 7 74 41 128 77 l99 65 37 -43 c20 -24 34 -44 30
-45 -4 -1 -68 -16 -142 -32 -74 -16 -190 -46 -258 -65 l-123 -36 -157 46
c-177 51 -392 104 -529 130 -76 15 -90 20 -81 31 7 8 22 12 37 8 14 -3 177
-30 361 -60z m-313 -21 c189 -38 589 -141 624 -160 4 -2 -5 -25 -18 -51 -20
-39 -24 -59 -21 -106 4 -48 2 -56 -11 -52 -9 2 -97 27 -196 54 -207 57 -430
130 -495 164 -48 25 -57 42 -59 124 -1 40 3 45 41 52 4 0 64 -11 135 -25z
m1165 -108 c-2 -30 1 -70 8 -91 7 -20 9 -39 6 -43 -9 -8 -539 -110 -548 -105
-13 7 -9 71 6 106 26 63 53 74 341 148 201 51 193 52 187 -15z m-1102 -152
c102 -35 272 -86 379 -115 l194 -51 121 22 c66 11 170 32 230 45 60 14 111 24
112 22 8 -9 55 -110 52 -112 -4 -3 -211 -41 -302 -55 -139 -22 -300 -39 -409
-45 l-112 -7 -230 137 c-126 76 -233 140 -236 144 -4 3 -10 26 -14 50 -7 40
-6 43 11 36 11 -5 102 -37 204 -71z m143 -268 c53 -32 97 -60 97 -63 0 -2 -10
-23 -22 -46 -18 -34 -23 -59 -23 -129 0 -101 14 -97 -130 -41 -74 29 -215 98
-215 106 0 1 -11 85 -25 186 -14 101 -25 185 -25 187 0 3 105 -59 343 -200z
m849 -53 c-3 -61 0 -89 16 -130 l19 -51 -41 -6 c-64 -9 -299 -36 -316 -36 -8
0 -25 18 -38 40 l-23 40 30 0 c34 0 254 28 289 37 21 5 30 27 15 36 -5 3 -33
1 -63 -4 -135 -22 -237 -31 -395 -37 -151 -6 -170 -9 -173 -24 -3 -16 5 -18
67 -18 68 0 71 -1 97 -35 15 -20 25 -37 23 -40 -2 -2 -63 -5 -134 -7 l-130 -3
-3 53 c-2 40 3 66 22 108 14 30 31 56 38 58 7 2 97 12 199 21 144 13 500 65
505 74 0 0 -1 -34 -4 -76z m-403 -187 c22 -35 61 -139 61 -162 0 -29 -49 12
-66 54 -9 24 -31 65 -49 93 l-34 49 34 0 c27 0 37 -6 54 -34z m500 -40 c-8 -8
-225 -35 -324 -40 -125 -7 -72 6 128 29 76 9 148 20 160 25 20 7 47 -3 36 -14z
m-594 -57 c-58 -12 -245 -11 -245 1 0 6 53 10 143 9 103 -1 131 -4 102 -10z
m-633 -51 c22 -6 57 -28 79 -47 32 -28 42 -45 46 -78 5 -38 3 -43 -18 -52 -13
-5 -110 -15 -214 -21 -201 -12 -235 -8 -254 29 -18 32 -13 41 23 41 28 0 35
-4 38 -22 5 -37 26 -31 39 11 34 115 145 174 261 139z m-964 -64 c99 -41 147
-157 75 -185 -13 -5 -77 -9 -140 -9 -94 0 -120 3 -135 17 -47 42 3 139 92 177
45 19 62 20 108 0z"/>
<path d="M4055 6160 c-39 -19 -105 -84 -105 -103 0 -5 15 4 33 19 85 72 201
86 301 36 31 -16 56 -25 56 -21 0 10 -69 62 -103 77 -43 18 -136 14 -182 -8z"/>
<path d="M3160 5743 c-47 -17 -95 -102 -71 -126 8 -8 11 -6 11 9 1 43 56 84
114 84 52 0 86 -16 140 -68 l48 -47 -17 35 c-22 44 -62 87 -97 106 -27 14 -99
18 -128 7z"/>
<path d="M4050 5693 c-29 -16 -59 -37 -67 -49 -12 -19 -9 -19 43 7 104 53 221
26 286 -65 17 -25 33 -44 35 -42 8 8 -29 82 -55 110 -65 69 -157 83 -242 39z"/>
<path d="M3211 5616 c-88 -49 -54 -186 46 -186 43 0 74 24 92 73 15 38 -8 91
-48 111 -36 19 -58 20 -90 2z m99 -31 c10 -12 10 -18 0 -30 -7 -8 -18 -15 -25
-15 -7 0 -18 7 -25 15 -10 12 -10 18 0 30 7 8 18 15 25 15 7 0 18 -7 25 -15z
m-49 -68 c-13 -13 -26 -3 -16 12 3 6 11 8 17 5 6 -4 6 -10 -1 -17z"/>
<path d="M4085 5606 c-63 -27 -79 -120 -29 -169 54 -54 138 -40 171 28 23 48
5 108 -40 135 -37 23 -60 24 -102 6z m105 -35 c7 -15 6 -23 -5 -35 -28 -27
-69 10 -44 40 16 20 37 17 49 -5z m-50 -61 c0 -5 -4 -10 -10 -10 -5 0 -10 5
-10 10 0 6 5 10 10 10 6 0 10 -4 10 -10z"/>
<path d="M4629 5469 c-28 -28 -9 -51 20 -25 24 21 41 14 41 -18 0 -27 -23 -50
-64 -66 -35 -13 -21 -36 17 -26 64 16 100 102 59 139 -25 23 -48 21 -73 -4z"/>
<path d="M3565 5415 c-39 -20 -75 -64 -75 -92 0 -31 28 -30 40 1 13 34 58 66
94 66 33 0 96 -33 96 -50 0 -13 27 -13 35 1 9 13 -30 56 -67 75 -35 18 -85 18
-123 -1z"/>
<path d="M4060 5165 c-42 -51 -148 -63 -292 -32 -95 21 -138 21 -211 2 -81
-21 -133 -19 -165 5 -30 24 -54 12 -36 -18 28 -45 95 -53 212 -25 76 18 80 18
285 -17 50 -9 81 -9 120 0 63 13 130 54 125 77 -4 23 -23 27 -38 8z"/>
<path d="M2530 5568 c0 -7 18 -21 40 -30 25 -10 48 -30 61 -52 11 -20 25 -36
29 -36 35 0 -4 70 -59 107 -37 25 -71 30 -71 11z"/>
<path d="M2115 5270 c-45 -49 -10 -130 55 -130 58 0 84 69 35 92 -27 12 -55
-2 -55 -28 0 -17 12 -18 27 -3 13 13 28 -5 18 -21 -10 -16 -40 -12 -58 8 -22
24 -21 34 3 64 30 38 7 54 -25 18z"/>
<path d="M2752 5248 c3 -7 15 -15 29 -16 36 -6 50 -22 49 -56 -3 -55 -2 -60
15 -46 24 20 19 83 -8 108 -26 24 -92 31 -85 10z"/>
<path d="M2907 4417 c7 -64 -13 -109 -57 -132 -30 -15 -37 -29 -22 -39 14 -9
71 32 92 66 22 36 27 107 10 139 -19 34 -29 20 -23 -34z"/>
<path d="M3740 4530 c0 -18 79 -50 125 -50 55 0 115 23 115 44 0 19 1 19 -43
1 -46 -19 -104 -19 -141 0 -33 17 -56 19 -56 5z"/>
<path d="M3727 4454 c-4 -4 -4 -48 -2 -98 3 -50 7 -153 11 -229 l6 -137 27 -8
c45 -12 303 -8 329 7 28 15 31 10 -76 132 -40 46 -117 141 -170 211 -91 119
-110 137 -125 122z m78 -127 c38 -54 146 -187 203 -252 l45 -50 -29 -6 c-40
-9 -142 -10 -197 -3 l-46 7 -5 71 c-8 101 -12 276 -6 276 3 0 18 -19 35 -43z"/>
<path d="M3576 3951 c-8 -12 23 -97 40 -112 21 -17 17 -32 -6 -26 -50 13 -135
-41 -115 -73 9 -15 32 -12 39 5 3 8 17 20 31 25 21 8 40 4 97 -20 82 -35 134
-38 188 -10 54 27 87 25 139 -10 30 -20 56 -30 82 -30 49 0 88 37 58 56 -6 3
-16 1 -22 -5 -17 -17 -56 -13 -93 10 l-33 20 34 45 c35 46 53 90 41 101 -3 4
-50 6 -104 4 -53 -1 -153 5 -222 13 -148 18 -147 18 -154 7z m195 -51 c64 -7
143 -10 177 -8 34 1 62 0 62 -5 0 -4 -15 -23 -32 -42 -32 -34 -91 -58 -173
-71 -43 -7 -113 32 -152 84 -37 49 -41 66 -15 58 9 -3 69 -10 133 -16z"/>
<path d="M5439 3201 c-13 -11 -21 -23 -17 -27 12 -11 58 13 58 31 0 20 -13 19
-41 -4z"/>
<path d="M5458 3163 c-51 -31 -75 -63 -50 -63 16 0 132 79 132 90 0 18 -24 10
-82 -27z"/>
<path d="M5433 2862 c-74 -17 -113 -30 -113 -39 0 -7 10 -13 23 -12 41 1 229
54 228 64 0 16 -19 14 -138 -13z"/>
<path d="M5340 2775 c-91 -19 -166 -35 -167 -35 -2 0 -3 -7 -3 -16 0 -12 6
-15 23 -12 12 3 83 17 157 32 173 34 191 39 193 51 3 18 -37 14 -203 -20z"/>
<path d="M5209 2410 c-152 -19 -178 -25 -162 -41 7 -7 61 -3 167 10 161 21
180 26 171 42 -7 11 -5 11 -176 -11z"/>
<path d="M4271 2041 c-24 -16 -2 -29 39 -24 28 4 47 0 66 -12 28 -18 40 -15
30 10 -11 29 -102 47 -135 26z"/>
<path d="M3311 1964 c-28 -20 -14 -42 17 -25 29 15 65 14 88 -4 24 -18 34 -19
34 -1 0 41 -94 61 -139 30z"/>
<path d="M5713 6844 c-7 -18 11 -39 26 -30 17 11 13 46 -4 46 -9 0 -18 -7 -22
-16z"/>
<path d="M1145 2901 c-3 -6 9 -26 26 -46 17 -20 30 -37 28 -39 -14 -10 -577
-472 -591 -483 -15 -13 -20 -10 -52 24 -29 31 -38 35 -45 23 -6 -8 -6 -19 -2
-25 4 -5 54 -68 111 -139 159 -196 262 -272 390 -283 50 -5 67 -2 112 20 31
16 63 41 76 61 31 46 39 133 18 201 -8 27 -14 50 -13 51 1 1 25 -3 54 -9 134
-28 237 74 219 216 -14 105 -75 205 -210 345 -85 88 -108 104 -121 83z m140
-162 l48 -52 -59 -56 c-186 -177 -527 -491 -534 -491 -4 0 -34 32 -65 71 -56
69 -57 71 -39 90 29 28 588 488 595 488 4 1 28 -22 54 -50z m119 -170 c36 -79
43 -153 19 -198 -39 -75 -115 -98 -200 -61 -57 24 -132 95 -118 109 125 121
251 228 261 220 6 -5 24 -36 38 -70z m-301 -224 c77 -97 107 -225 69 -295 -11
-21 -36 -44 -63 -58 -82 -44 -191 -16 -298 76 l-43 37 148 138 c82 75 151 137
154 137 3 0 18 -16 33 -35z"/>
<path d="M7013 2651 c-68 -71 -123 -134 -123 -140 0 -19 32 -12 57 11 14 13
27 18 31 13 4 -6 130 -127 280 -269 149 -142 272 -261 272 -264 0 -3 -14 -21
-31 -38 -30 -31 -35 -64 -10 -64 18 0 314 331 397 444 l19 26 37 -26 c34 -24
58 -26 58 -4 0 14 -237 190 -255 190 -33 0 -12 -30 55 -80 39 -29 70 -54 70
-57 0 -11 -143 -183 -152 -183 -5 0 -55 41 -111 92 -87 78 -278 240 -437 369
-43 35 -44 37 -27 56 20 23 23 53 5 52 -7 0 -68 -58 -135 -128z m218 -83 c106
-86 187 -156 427 -364 l36 -31 -64 -72 -64 -72 -45 44 c-25 24 -138 130 -251
237 -113 106 -220 208 -239 226 l-35 33 45 50 c24 27 49 49 55 50 6 1 66 -45
135 -101z"/>
<path d="M6790 2435 c-66 -21 -124 -75 -161 -150 -60 -123 -30 -221 132 -425
157 -198 202 -235 298 -247 91 -11 222 45 292 125 69 79 89 185 49 267 -30 63
-343 376 -407 409 -65 32 -143 41 -203 21z m190 -61 c62 -34 364 -337 385
-387 19 -47 19 -108 -1 -155 l-15 -37 -37 40 c-120 132 -482 557 -482 567 0
19 96 1 150 -28z m12 -231 c118 -137 240 -278 271 -315 l57 -66 -42 -36 c-23
-20 -46 -36 -52 -35 -6 0 -129 141 -274 312 l-263 312 42 38 c23 20 43 37 44
37 2 0 99 -111 217 -247z m-63 -173 c138 -162 247 -298 242 -303 -4 -4 -33
-11 -64 -14 -48 -5 -64 -2 -112 21 -47 23 -71 47 -156 152 -158 197 -199 269
-199 350 0 38 19 96 31 92 4 -2 121 -136 258 -298z"/>
<path d="M1694 2349 c-3 -6 9 -27 27 -46 l34 -35 -34 -26 c-88 -70 -332 -244
-474 -339 l-158 -106 -39 38 c-36 36 -60 40 -60 10 0 -14 225 -225 240 -225 5
0 12 5 16 12 5 7 -18 36 -61 75 -37 35 -66 65 -64 66 92 61 150 97 155 97 7 0
45 -32 132 -111 l53 -48 -41 -81 c-22 -44 -43 -80 -47 -80 -3 0 -14 7 -24 16
-18 17 -39 12 -39 -9 0 -21 299 -247 327 -247 22 0 15 27 -13 48 l-27 19 48
124 c46 119 166 403 236 557 22 50 36 69 43 62 14 -14 46 -12 46 3 0 8 -17 27
-37 44 -21 17 -78 67 -128 112 -49 44 -93 81 -97 81 -4 0 -10 -5 -14 -11z
m140 -151 l47 -43 -74 -165 c-41 -91 -112 -258 -158 -372 -46 -115 -87 -208
-92 -208 -5 0 -36 21 -70 48 -33 26 -64 50 -69 53 -5 3 21 68 58 145 81 173
297 584 306 584 3 0 27 -19 52 -42z m-224 -185 c-43 -82 -90 -174 -106 -205
l-29 -57 -80 74 c-69 65 -78 76 -63 85 33 20 313 222 328 236 34 33 24 6 -50
-133z"/>
<path d="M6284 2054 c-54 -19 -119 -76 -147 -128 -16 -31 -21 -58 -21 -111 0
-81 22 -131 164 -382 114 -201 154 -237 270 -237 114 1 223 73 279 186 40 78
43 168 8 238 -32 64 -206 307 -258 359 -84 84 -192 111 -295 75z m204 -54 c55
-32 109 -95 235 -275 83 -117 100 -154 100 -220 0 -48 -33 -135 -51 -135 -7 0
-423 627 -430 649 -2 7 14 11 45 11 35 0 62 -8 101 -30z m31 -329 c122 -183
221 -337 221 -342 0 -10 -72 -69 -85 -69 -8 0 -441 660 -453 691 -4 10 70 60
85 57 7 -2 111 -153 232 -337z m-302 182 c34 -54 341 -531 378 -586 16 -26 16
-26 -18 -32 -52 -10 -113 11 -155 53 -20 21 -85 126 -145 233 -118 216 -138
273 -118 347 7 23 14 42 17 42 2 0 21 -26 41 -57z"/>
<path d="M2075 1961 c-58 -27 -109 -81 -183 -195 -127 -196 -161 -257 -172
-312 -30 -141 67 -282 216 -315 98 -22 168 17 249 140 28 42 45 59 55 54 41
-16 60 -15 60 3 0 15 -21 27 -86 51 -48 18 -90 30 -95 27 -17 -10 -9 -25 26
-41 19 -9 35 -21 35 -26 0 -15 -68 -103 -105 -136 -41 -36 -88 -46 -141 -32
-86 23 -86 19 6 192 107 197 301 553 305 557 9 9 67 -32 92 -65 24 -32 28 -45
27 -102 0 -45 -8 -82 -22 -114 l-22 -49 -36 21 c-43 26 -54 26 -54 3 0 -24
142 -107 167 -97 16 6 15 9 -10 30 l-27 24 26 78 c34 100 30 165 -12 225 -61
88 -201 124 -299 79z m125 -25 c0 -3 -66 -125 -146 -273 -81 -147 -165 -303
-189 -346 -46 -85 -51 -86 -88 -12 -49 96 -30 159 108 375 119 185 141 211
199 240 35 17 116 28 116 16z"/>
<path d="M5925 1825 c-77 -40 -144 -77 -150 -82 -5 -4 -14 -8 -20 -8 -5 0 -79
-27 -163 -59 -116 -45 -152 -63 -149 -75 3 -17 5 -17 48 -6 25 6 27 3 157
-317 72 -178 138 -340 147 -361 l16 -38 -31 -12 c-36 -14 -37 -43 -2 -40 27 3
302 111 320 125 9 8 9 14 1 24 -9 11 -16 11 -39 -1 -16 -8 -31 -11 -34 -6 -8
12 -166 382 -166 387 0 5 112 55 116 52 1 -2 45 -88 97 -193 87 -175 93 -191
76 -199 -20 -10 -25 -31 -10 -41 14 -8 321 146 321 161 0 22 -18 25 -51 9 -17
-9 -35 -13 -39 -8 -11 13 -350 671 -350 680 0 5 16 17 35 28 33 17 44 45 20
50 -5 2 -73 -30 -150 -70z m231 -365 c96 -184 173 -341 171 -349 -1 -7 -30
-26 -63 -41 l-61 -28 -172 351 c-94 192 -170 351 -169 352 13 11 105 53 112
52 5 -2 87 -153 182 -337z m-265 129 c38 -78 69 -142 67 -143 -19 -13 -112
-46 -116 -41 -4 3 -32 66 -63 138 -51 119 -55 133 -40 144 9 7 21 17 27 22 6
5 20 11 30 14 10 2 20 5 21 6 2 0 35 -62 74 -140z m-186 29 c9 -24 75 -179
146 -345 70 -166 130 -307 131 -314 3 -14 -123 -71 -134 -60 -5 5 -152 365
-280 684 -13 33 -14 31 42 56 66 29 76 27 95 -21z"/>
<path d="M2497 1814 c-13 -14 -7 -33 13 -39 11 -3 20 -11 20 -17 0 -6 -60
-142 -134 -302 -74 -160 -146 -317 -160 -350 -21 -47 -29 -57 -43 -51 -28 12
-56 11 -60 -2 -5 -13 120 -79 260 -139 92 -40 97 -40 97 -14 0 13 -9 22 -26
26 -18 5 -23 11 -19 23 53 140 109 278 115 284 4 4 10 -61 14 -145 4 -84 10
-163 13 -176 5 -20 2 -23 -22 -20 -50 5 -40 -21 17 -46 117 -52 359 -129 370
-118 16 16 0 31 -47 43 -43 11 -45 13 -61 68 -45 153 -125 516 -123 559 0 10
48 48 126 100 l125 83 27 -25 c29 -28 61 -34 61 -13 0 19 -148 150 -160 142
-17 -11 -11 -33 15 -54 l26 -19 -63 -45 c-107 -76 -239 -159 -244 -154 -3 2
18 60 45 128 33 83 54 123 63 120 41 -13 68 -12 68 0 0 8 -64 45 -146 84 -176
84 -159 77 -167 69z m136 -100 c29 -15 54 -28 55 -29 9 -8 -283 -725 -295
-725 -19 0 -143 63 -143 73 0 5 59 137 132 295 72 158 144 315 160 350 15 34
31 62 33 62 3 0 29 -12 58 -26z m77 -484 c26 -128 67 -302 96 -407 6 -21 4
-21 -82 11 -104 39 -99 28 -108 217 -4 74 -9 169 -12 211 l-6 76 39 25 c21 14
39 24 40 23 1 0 15 -71 33 -156z"/>
<path d="M3256 1578 c-23 -68 -44 -153 -40 -160 13 -20 34 -5 45 32 14 45 13
44 75 29 34 -9 43 -15 40 -28 -3 -9 -32 -169 -66 -356 -33 -187 -63 -352 -66
-366 -5 -25 -6 -26 -50 -16 -33 8 -48 7 -57 -2 -22 -22 -13 -25 253 -81 74
-16 138 -26 142 -24 4 3 8 12 8 19 0 14 -14 19 -65 27 -13 2 -19 10 -18 23 6
44 105 683 112 715 4 19 9 34 11 34 3 -1 31 -5 63 -9 l58 -7 -3 -47 c-2 -34 1
-46 11 -46 17 0 26 29 36 119 6 63 5 68 -12 64 -10 -2 -19 -13 -21 -26 -2 -15
-10 -22 -25 -22 -30 0 -160 25 -289 56 -100 24 -107 27 -110 51 -3 29 -25 43
-32 21z m237 -134 c20 -3 37 -11 37 -18 0 -19 -113 -751 -117 -755 -4 -5 -125
18 -131 24 -4 3 125 729 133 753 3 7 13 11 22 8 10 -3 35 -8 56 -12z"/>
<path d="M5210 1564 c-46 -20 -96 -69 -123 -119 -32 -62 -28 -158 17 -340 20
-82 45 -178 57 -211 35 -108 116 -179 219 -191 96 -11 206 37 250 110 24 38
26 130 6 224 l-13 62 28 12 c28 11 38 32 20 43 -4 3 -45 -11 -90 -31 -57 -27
-81 -43 -81 -55 0 -22 12 -23 51 -2 17 8 32 14 34 12 9 -10 25 -118 25 -168 0
-55 -3 -63 -36 -99 -36 -40 -99 -70 -114 -55 -12 14 -240 734 -240 758 0 17
31 26 90 26 66 0 109 -33 153 -118 21 -39 37 -72 37 -76 0 -3 -16 -8 -35 -12
-41 -7 -61 -27 -43 -41 20 -16 190 35 186 56 -3 11 -13 15 -35 13 -31 -3 -34
0 -67 65 -37 73 -84 125 -129 142 -40 16 -126 13 -167 -5z m17 -220 c59 -187
182 -570 189 -589 14 -37 -94 -6 -147 42 -55 50 -65 73 -109 252 -55 225 -63
269 -56 315 8 48 53 129 69 123 6 -2 30 -66 54 -143z"/>
<path d="M4684 1456 c-165 -52 -211 -252 -83 -360 45 -38 81 -55 178 -83 47
-14 87 -26 89 -28 10 -9 39 -341 31 -350 -5 -5 -40 -9 -77 -9 -52 0 -79 6
-117 24 -61 31 -86 64 -92 123 l-5 46 48 3 c39 2 50 7 52 22 4 18 -1 19 -84
12 -111 -9 -134 -14 -134 -32 0 -15 9 -17 51 -14 24 1 27 -3 31 -45 13 -108
108 -178 247 -179 168 -1 300 109 289 241 -9 101 -95 168 -276 213 -89 21 -92
23 -96 54 -12 71 -27 317 -20 327 11 18 102 3 141 -23 33 -23 92 -122 79 -135
-3 -3 -23 -9 -43 -12 -26 -4 -39 -12 -41 -25 -4 -17 1 -18 70 -11 40 4 83 11
96 16 30 11 23 35 -10 32 -20 -1 -27 6 -42 50 -32 91 -124 158 -212 156 -16 0
-47 -6 -70 -13z m-13 -78 c0 -13 6 -83 12 -155 14 -152 12 -156 -52 -97 -55
49 -76 107 -61 164 11 42 66 110 89 110 6 0 11 -10 12 -22z m297 -427 c83 -43
121 -121 92 -191 -15 -35 -100 -115 -110 -103 -4 5 -13 69 -19 143 -7 74 -15
143 -17 153 -7 22 8 22 54 -2z"/>
<path d="M3910 1437 c-56 -18 -133 -102 -153 -167 -22 -71 -69 -481 -60 -534
12 -83 63 -149 140 -181 46 -19 178 -19 232 0 75 26 127 70 158 132 28 57 28
60 31 275 4 245 -6 307 -58 383 -55 80 -194 124 -290 92z m126 -35 c8 -5 7
-98 -2 -342 -7 -184 -13 -367 -13 -406 l-1 -71 -37 -6 c-21 -4 -48 -4 -61 0
-22 5 -23 9 -18 82 3 42 8 144 11 226 4 83 10 224 15 315 6 91 10 175 10 188
0 19 5 22 43 22 23 0 47 -4 53 -8z m-140 -99 c-7 -103 -13 -244 -21 -433 -10
-244 -14 -280 -33 -273 -24 9 -72 54 -87 83 -7 14 -15 41 -19 60 -8 47 39 460
60 523 14 42 81 127 100 127 3 0 3 -39 0 -87z m242 52 c16 -14 40 -46 53 -72
23 -47 24 -56 24 -293 0 -236 -1 -247 -23 -288 -22 -42 -92 -102 -119 -102
-16 0 -17 80 -3 350 5 102 10 240 11 308 1 135 5 141 57 97z"/>
</g>
</svg>
