<?xml version="1.0" encoding="UTF-8" standalone="no"?>
<svg
   xmlns:dc="http://purl.org/dc/elements/1.1/"
   xmlns:cc="http://creativecommons.org/ns#"
   xmlns:rdf="http://www.w3.org/1999/02/22-rdf-syntax-ns#"
   xmlns:svg="http://www.w3.org/2000/svg"
   xmlns="http://www.w3.org/2000/svg"
   xmlns:sodipodi="http://sodipodi.sourceforge.net/DTD/sodipodi-0.dtd"
   xmlns:inkscape="http://www.inkscape.org/namespaces/inkscape"
   version="1.0"
   width="850.000000pt"
   height="850.000000pt"
   viewBox="0 0 850.000000 850.000000"
   preserveAspectRatio="xMidYMid meet"
   id="svg2"
   inkscape:version="0.91 r13725"
   sodipodi:docname="Letter_2018916_56.svg">
  <defs
     id="defs452" />
  <sodipodi:namedview
     pagecolor="#ffffff"
     bordercolor="#666666"
     borderopacity="1"
     objecttolerance="10"
     gridtolerance="10"
     guidetolerance="10"
     inkscape:pageopacity="0"
     inkscape:pageshadow="2"
     inkscape:window-width="1920"
     inkscape:window-height="979"
     id="namedview450"
     showgrid="false"
     inkscape:zoom="0.88847059"
     inkscape:cx="490.3953"
     inkscape:cy="609.45531"
     inkscape:window-x="0"
     inkscape:window-y="1"
     inkscape:window-maximized="1"
     inkscape:current-layer="svg2" />
  <metadata
     id="metadata4">
Created by potrace 1.14, written by Peter Selinger 2001-2017
<rdf:RDF>
  <cc:Work
     rdf:about="">
    <dc:format>image/svg+xml</dc:format>
    <dc:type
       rdf:resource="http://purl.org/dc/dcmitype/StillImage" />
  </cc:Work>
</rdf:RDF>
</metadata>
  <g
     transform="translate(0.000000,850.000000) scale(0.100000,-0.100000)"
     fill="#000000"
     stroke="none"
     id="g6">
    <path
       d="M0 4250 l0 -4250 4250 0 4250 0 0 4250 0 4250 -4250 0 -4250 0 0 -4250z m4205 3861 c65 -29 108 -71 137 -135 22 -49 23 -62 23 -286 0 -272 -8 -317 -74 -391 -61 -70 -129 -102 -227 -107 -75 -4 -86 -2 -133 23 -56 31 -104 93 -121 156 -17 63 -60 410 -60 485 0 39 5 86 11 105 24 71 90 133 176 165 58 22 205 14 268 -15z m-534 17 c14 -66 24 -176 17 -185 -16 -21 -35 -3 -42 39 l-7 40 -52 -6 c-94 -12 -117 -18 -117 -31 0 -10 135 -666 156 -754 4 -20 9 -23 39 -18 34 6 63 -12 51 -31 -3 -5 -43 -15 -88 -22 -46 -6 -125 -20 -176 -31 -50 -11 -97 -17 -102 -14 -22 14 -8 35 30 45 22 6 40 15 40 21 0 13 -184 690 -205 756 -3 8 -22 6 -72 -6 -73 -19 -71 -16 -62 -86 3 -24 0 -30 -16 -30 -16 0 -23 15 -42 80 -12 44 -20 86 -18 93 7 20 36 14 42 -9 7 -24 -1 -25 193 19 74 17 180 38 235 46 163 27 155 24 155 57 0 22 5 29 20 29 11 0 20 -1 21 -2z m1427 -68 c97 -42 159 -138 150 -232 -3 -33 0 -40 19 -44 32 -8 47 -29 31 -42 -9 -7 -41 -4 -112 13 -54 14 -101 27 -104 29 -2 3 -2 13 2 22 6 17 18 16 90 -2 25 -6 26 -5 26 43 0 64 -26 111 -84 150 -41 28 -129 53 -141 41 -3 -3 -19 -76 -35 -164 -17 -87 -32 -166 -34 -175 -2 -10 25 -33 86 -70 109 -66 182 -139 198 -199 60 -222 -258 -362 -447 -196 -56 49 -82 104 -83 173 0 51 0 52 -32 55 -25 2 -33 8 -33 23 0 22 15 23 163 9 52 -5 62 -9 62 -25 0 -16 -7 -19 -55 -19 -50 0 -55 -2 -56 -22 -4 -74 11 -116 53 -155 32 -30 107 -63 144 -63 l30 0 40 175 41 175 -101 62 c-55 34 -119 81 -142 105 -125 128 -84 293 88 349 59 19 171 12 236 -16z m634 -140 c69 -25 126 -73 149 -124 22 -49 25 -144 5 -209 l-14 -46 29 -12 c36 -14 44 -26 29 -43 -16 -20 -210 60 -210 86 0 22 25 23 73 3 20 -8 38 -11 40 -7 14 22 28 129 22 163 -9 53 -56 106 -120 135 -48 23 -95 31 -95 17 0 -3 -45 -184 -100 -400 -55 -216 -100 -397 -100 -402 0 -14 67 -20 103 -10 54 15 83 43 132 131 25 44 45 82 45 84 0 2 -16 6 -36 10 -37 7 -54 28 -37 45 11 11 168 -25 190 -43 23 -19 3 -38 -36 -33 l-36 6 -44 -80 c-74 -137 -137 -180 -243 -168 -132 16 -228 132 -228 276 0 66 80 420 110 488 28 63 64 100 125 129 65 31 171 33 247 4z m-2939 -104 c9 -23 -14 -35 -72 -38 l-54 -3 -20 -55 c-10 -30 -34 -101 -52 -157 l-33 -103 97 -64 c121 -81 297 -212 377 -282 58 -51 63 -53 95 -44 50 15 69 12 69 -7 0 -17 -55 -38 -362 -140 -25 -8 -36 26 -14 42 15 11 5 23 -86 108 -110 101 -164 147 -157 131 2 -5 36 -71 74 -146 67 -133 70 -137 99 -135 35 2 50 -29 19 -39 -10 -4 -78 -35 -151 -70 -73 -35 -139 -64 -147 -64 -23 0 -18 28 9 45 l24 16 -105 187 c-58 103 -148 262 -199 354 l-95 167 -35 -16 c-30 -15 -36 -15 -44 -3 -5 8 -7 17 -4 22 7 10 139 79 277 144 93 43 122 52 133 43 18 -15 11 -25 -37 -49 l-39 -20 66 -132 66 -132 25 84 c20 73 83 266 100 308 4 11 -4 12 -39 7 -33 -5 -47 -3 -56 8 -19 23 5 35 78 40 158 8 188 7 193 -7z m3324 -56 c175 -74 268 -123 268 -140 0 -15 -18 -17 -65 -5 -25 6 -29 0 -92 -134 l-66 -141 64 -34 65 -34 70 140 70 140 -20 22 c-14 15 -17 26 -11 36 8 13 23 8 92 -29 149 -80 299 -172 305 -187 13 -34 -15 -35 -66 -4 -29 18 -53 31 -55 29 -5 -6 -151 -245 -290 -477 -122 -202 -127 -214 -110 -227 11 -8 22 -15 27 -15 4 0 7 -9 7 -20 0 -38 -5 -35 -258 115 -47 28 -51 50 -8 50 25 0 35 14 126 190 111 213 110 194 19 240 l-47 24 -95 -202 -95 -201 30 -19 c27 -16 29 -20 16 -33 -12 -13 -27 -8 -119 35 -57 26 -125 58 -151 69 -61 26 -66 55 -11 50 l37 -3 121 315 c67 173 131 341 143 373 l22 58 -45 19 c-43 19 -53 29 -38 43 13 14 45 6 160 -43z m-4118 -366 c37 -19 67 -45 98 -85 l46 -58 29 15 c30 16 48 12 48 -11 0 -17 -186 -119 -200 -110 -21 13 -8 34 35 60 l46 26 -31 39 c-71 89 -129 116 -210 99 -48 -10 -140 -61 -140 -77 0 -5 75 -108 168 -229 92 -120 205 -269 251 -331 45 -62 87 -112 91 -112 15 0 68 69 80 103 8 27 8 46 0 79 -11 38 -57 158 -65 166 -2 2 -17 -6 -33 -18 -31 -23 -67 -21 -60 3 6 18 140 117 161 117 25 0 21 -29 -7 -51 l-24 -19 35 -80 c39 -91 51 -170 34 -223 -29 -88 -156 -164 -258 -154 -65 7 -138 39 -182 80 -64 61 -274 332 -300 387 -47 102 -22 216 67 307 96 99 219 128 321 77z m4990 -90 c66 -33 151 -116 182 -180 14 -30 25 -73 27 -112 4 -57 1 -71 -32 -135 -19 -40 -63 -103 -97 -142 -182 -207 -209 -234 -274 -266 -60 -29 -71 -31 -140 -27 -170 11 -295 121 -295 259 0 82 16 118 142 321 129 208 191 279 264 302 66 21 154 13 223 -20z m-5624 -285 c4 -6 -3 -21 -16 -35 -14 -14 -19 -28 -13 -33 5 -4 86 -62 180 -128 134 -95 351 -259 472 -356 10 -8 21 -6 42 6 24 15 29 15 40 2 13 -16 26 -3 -153 -149 -64 -53 -124 -96 -132 -96 -24 0 -27 18 -5 40 12 12 20 23 18 24 -76 58 -143 106 -149 106 -12 0 -169 -142 -169 -153 0 -13 92 -157 100 -157 3 0 28 23 55 50 48 49 77 61 91 39 6 -11 -202 -229 -219 -229 -23 0 -17 34 12 63 l31 33 -34 50 c-75 112 -219 349 -306 507 -51 92 -98 167 -105 167 -6 0 -26 -16 -45 -35 -35 -36 -54 -43 -66 -24 -9 15 67 91 215 215 121 102 143 115 156 93z m3652 -189 c18 -45 18 -45 66 -25 51 21 55 20 66 -22 16 -56 13 -97 -9 -155 -11 -29 -20 -54 -20 -55 0 0 9 1 20 4 52 14 180 -54 180 -94 0 -9 -17 -30 -37 -48 l-38 -32 33 -53 c24 -38 30 -56 22 -64 -15 -15 -153 -20 -190 -8 -30 11 -38 5 -21 -14 15 -17 51 -125 45 -136 -6 -10 -42 -7 -90 7 -18 6 -26 -1 -45 -35 -17 -30 -29 -40 -44 -38 -25 4 -80 85 -97 141 -6 23 -12 43 -13 44 -1 2 -22 -17 -47 -41 -25 -24 -63 -49 -85 -56 -21 -6 -43 -13 -49 -15 -7 -2 8 -25 33 -51 25 -26 61 -80 81 -121 30 -64 40 -76 74 -90 51 -20 113 -92 134 -155 23 -69 15 -153 -20 -213 -15 -25 -24 -45 -21 -45 3 0 25 18 48 41 23 22 61 52 85 67 29 19 47 40 60 69 19 48 48 60 39 17 -3 -20 -1 -24 12 -19 133 53 166 59 302 59 133 1 136 1 185 -29 95 -58 119 -164 55 -252 -16 -22 -71 -75 -122 -118 -123 -103 -171 -156 -214 -237 l-36 -67 32 -51 c120 -196 195 -532 170 -771 -24 -239 -91 -389 -241 -539 -94 -94 -179 -146 -290 -176 -36 -10 -66 -18 -67 -19 -2 -1 8 -29 22 -62 13 -34 34 -99 46 -146 l21 -85 42 -11 c45 -11 98 -59 115 -104 15 -39 14 -111 -3 -150 -14 -34 -60 -87 -89 -103 -16 -9 -16 -18 -2 -154 36 -350 80 -497 205 -700 98 -158 111 -224 64 -319 -29 -57 -91 -113 -162 -145 l-42 -19 0 -101 c0 -136 17 -352 35 -456 9 -47 31 -135 50 -197 45 -144 46 -200 5 -247 -45 -50 -110 -69 -220 -64 -112 5 -189 41 -275 127 -115 116 -184 261 -266 558 -30 106 -56 193 -59 193 -3 -1 -23 -40 -45 -88 -53 -114 -123 -211 -259 -357 -145 -156 -157 -172 -202 -283 -40 -101 -72 -148 -113 -163 -21 -8 -39 -3 -106 30 -108 54 -160 94 -192 149 -25 42 -27 55 -26 137 2 111 26 206 94 374 94 230 118 297 134 380 10 45 15 84 14 85 -2 2 -47 25 -99 51 -131 65 -194 107 -266 177 -83 79 -119 156 -118 253 0 92 26 143 135 261 45 49 108 120 139 158 l58 70 -47 42 c-26 23 -59 64 -73 91 -25 46 -54 165 -44 181 6 10 7 54 6 162 0 41 6 102 15 134 22 83 91 218 132 258 29 28 41 33 83 33 49 0 50 1 86 55 19 30 47 67 60 81 l25 26 -63 23 c-205 74 -340 258 -383 522 -38 238 0 480 115 713 124 252 310 440 540 546 36 17 67 32 69 34 1 2 -7 14 -19 27 -34 36 -51 76 -57 134 -15 146 92 268 255 290 l51 6 -16 32 c-9 18 -18 63 -20 106 -3 64 -1 81 19 115 33 55 88 85 161 85 32 0 71 -7 86 -15 34 -17 41 -12 41 32 0 31 -2 33 -34 33 -46 0 -51 12 -27 63 23 48 61 88 105 111 l28 14 -39 21 c-57 29 -102 69 -135 120 -15 25 -28 48 -28 53 0 4 18 17 41 28 31 16 39 25 33 38 -16 37 -10 66 16 73 77 22 181 -1 224 -50 26 -29 33 -27 40 13 12 62 98 156 144 156 8 0 21 -18 29 -40z m2518 -9 c73 -36 158 -118 192 -185 27 -53 40 -141 29 -199 -12 -66 -65 -125 -249 -279 -181 -151 -229 -182 -304 -194 -137 -22 -283 110 -315 286 -13 67 5 139 50 210 41 64 241 290 292 330 95 75 194 85 305 31z m-3210 -36 c14 -13 25 -29 25 -35 0 -5 10 -10 22 -10 53 0 77 -71 38 -110 -11 -11 -24 -20 -30 -20 -5 0 -7 -6 -4 -13 6 -18 -25 -53 -54 -62 -16 -5 -30 1 -51 22 -16 15 -42 35 -57 43 -36 19 -44 68 -17 95 11 11 16 29 14 47 -6 63 67 91 114 43z m-1154 -135 c10 -6 19 -21 19 -34 0 -14 10 -30 24 -40 14 -8 27 -25 31 -36 8 -25 -18 -70 -40 -70 -9 0 -15 -10 -15 -25 0 -32 -33 -65 -65 -65 -33 0 -75 42 -75 73 0 16 -7 26 -20 30 -52 14 -47 95 7 120 16 6 36 22 46 34 20 25 56 30 88 13z m918 -175 c48 -24 62 -90 36 -164 l-14 -41 43 0 c83 0 166 -69 166 -138 0 -40 -28 -91 -62 -112 -26 -17 -45 -20 -91 -17 -49 3 -57 1 -51 -12 12 -27 17 -80 10 -106 -10 -41 -41 -65 -83 -65 -52 1 -81 27 -104 91 -10 30 -18 49 -19 43 0 -17 -75 -54 -108 -54 -18 0 -43 10 -61 26 -27 22 -31 32 -31 76 0 45 4 54 40 90 45 45 46 48 25 48 -26 0 -88 36 -119 69 -23 24 -30 42 -34 84 -4 46 -1 57 23 85 49 59 134 48 214 -26 18 -18 35 -32 37 -32 2 0 4 14 4 31 0 100 97 167 179 124z m3852 -118 c114 -154 201 -286 194 -297 -12 -19 -34 -10 -56 23 -12 17 -24 33 -25 35 -1 2 -42 -27 -91 -65 -124 -97 -287 -215 -436 -317 -82 -56 -125 -92 -120 -99 15 -25 105 -162 108 -166 2 -2 40 17 83 43 87 51 102 55 102 27 0 -15 -36 -42 -135 -101 -124 -74 -165 -90 -165 -60 0 5 16 20 35 32 19 13 35 28 35 34 0 16 -171 265 -252 366 -38 48 -67 92 -63 98 11 18 33 11 59 -21 17 -20 30 -28 39 -22 8 4 152 118 320 252 l306 244 -30 39 c-25 31 -29 41 -19 53 6 7 17 12 23 9 7 -2 46 -50 88 -107z m-6968 59 c86 -36 129 -161 90 -263 -5 -11 4 -10 35 6 109 55 212 45 275 -29 40 -47 57 -98 57 -172 0 -93 -34 -168 -163 -360 -66 -98 -123 -178 -128 -178 -19 0 -20 24 -4 61 10 22 16 41 14 42 -26 21 -682 427 -688 427 -5 0 -11 -10 -15 -22 -11 -43 -45 -88 -61 -82 -8 4 -15 13 -15 22 0 21 100 208 152 285 133 198 332 313 451 263z m5325 -232 c12 -14 22 -31 22 -38 0 -6 16 -18 35 -25 43 -15 58 -42 53 -90 -4 -29 0 -39 19 -54 39 -31 30 -98 -17 -122 -22 -11 -26 -19 -22 -44 6 -44 -37 -85 -81 -78 -23 3 -39 -1 -56 -14 -30 -25 -76 -24 -101 1 -16 16 -25 18 -45 10 -45 -17 -95 15 -95 61 0 19 -7 32 -22 40 -49 26 -62 75 -32 118 12 17 13 26 5 34 -30 30 10 117 54 117 9 0 15 9 15 25 0 36 33 65 74 65 19 0 37 -4 41 -10 3 -5 22 2 42 16 44 30 77 26 111 -12z m-3753 -88 c17 -12 22 -12 39 0 34 23 66 17 102 -21 19 -21 42 -35 56 -35 52 0 93 -64 70 -107 -8 -13 -4 -24 14 -46 33 -39 31 -73 -6 -107 -16 -15 -30 -37 -30 -48 0 -29 -45 -72 -76 -72 -16 0 -37 -11 -54 -30 -32 -35 -67 -39 -101 -11 -16 13 -34 17 -59 14 -42 -6 -78 22 -87 68 -3 16 -10 29 -16 29 -6 0 -21 10 -34 22 -24 22 -31 70 -14 97 6 9 4 26 -6 45 -19 41 -4 84 36 99 21 7 31 20 35 41 13 65 83 98 131 62z m2969 -42 c9 -8 17 -21 18 -27 0 -7 2 -17 2 -22 1 -6 11 -20 24 -33 38 -38 24 -86 -30 -105 -10 -4 -18 -15 -18 -26 0 -27 -26 -51 -56 -51 -32 0 -74 42 -74 73 0 15 -10 31 -25 41 -46 30 -24 116 30 116 13 0 30 11 39 25 19 29 66 34 90 9z m573 -534 c48 -35 93 -117 93 -168 l0 -33 28 18 c15 11 40 24 55 31 37 16 139 15 161 -1 16 -12 16 -15 1 -51 -18 -43 -15 -49 38 -66 20 -6 37 -18 37 -26 0 -44 -71 -123 -133 -149 l-37 -15 34 -31 c41 -35 69 -102 64 -150 -3 -34 -3 -34 -60 -37 l-56 -3 -7 -42 c-10 -63 -15 -77 -29 -77 -24 0 -106 62 -134 101 -31 44 -42 49 -42 17 0 -35 -48 -130 -62 -126 -7 3 -24 21 -38 42 -23 35 -27 37 -60 30 -76 -15 -75 -16 -74 56 0 42 8 81 21 110 l20 45 -71 0 c-55 0 -82 6 -118 24 -56 29 -60 48 -17 80 l31 23 -26 27 c-35 36 -33 45 12 64 54 24 101 30 148 19 l41 -9 -19 51 c-22 55 -26 164 -9 210 12 31 8 30 59 12 l41 -15 11 35 c15 44 41 45 97 4z m-3559 -5 c12 -15 30 -25 45 -25 73 0 76 -116 4 -134 -13 -3 -29 -17 -35 -31 -24 -53 -104 -54 -118 -1 -3 15 -15 27 -30 30 -54 14 -57 99 -4 119 17 6 30 15 30 19 0 17 41 48 64 48 14 0 33 -11 44 -25z m4271 -211 c12 -15 21 -33 21 -40 0 -7 12 -19 28 -26 48 -23 41 -118 -9 -118 -10 0 -25 -13 -34 -30 -8 -16 -27 -33 -40 -36 -31 -8 -75 19 -75 46 0 11 -10 25 -22 31 -46 24 -51 68 -13 103 14 13 25 33 25 44 0 54 83 72 119 26z m-4326 -228 c17 -18 27 -22 45 -15 56 21 118 -30 108 -86 -5 -25 -1 -36 19 -55 31 -29 33 -77 5 -113 -13 -16 -16 -28 -10 -32 5 -3 10 -21 10 -39 0 -42 -32 -76 -71 -76 -19 0 -32 -6 -36 -17 -19 -56 -78 -79 -119 -48 -12 9 -31 12 -52 9 -38 -7 -78 15 -92 52 -7 16 -17 24 -34 24 -45 0 -81 70 -57 109 6 10 5 22 -5 35 -25 36 -18 83 16 108 18 13 30 31 30 44 0 12 3 30 6 39 9 22 61 47 85 40 14 -5 26 1 40 19 27 35 81 36 112 2z m4631 -214 c8 -30 12 -33 35 -27 62 15 66 13 69 -35 4 -52 -12 -113 -39 -151 l-19 -26 74 -5 c77 -5 182 -45 193 -74 2 -7 -7 -28 -21 -47 l-26 -34 25 -23 c33 -31 32 -43 -11 -78 -56 -47 -147 -65 -208 -42 l-25 9 6 -69 c5 -61 3 -75 -21 -125 -15 -30 -32 -55 -38 -55 -6 0 -27 12 -46 27 l-35 27 -34 -40 -34 -39 -38 42 c-39 43 -61 98 -61 151 l0 31 -42 -19 c-48 -22 -110 -25 -157 -9 -35 12 -37 20 -16 79 8 23 15 44 15 46 0 1 -22 15 -50 31 -27 15 -50 33 -50 39 0 27 97 89 157 100 36 7 43 20 15 28 -26 9 -105 92 -98 104 3 6 21 13 39 17 68 14 67 13 67 66 0 32 5 51 13 55 22 8 104 -33 150 -76 24 -22 46 -40 48 -40 3 0 6 12 7 26 5 63 93 179 130 172 9 -2 21 -18 26 -36z m-5240 -68 c9 -8 16 -19 16 -24 0 -5 17 -10 37 -12 29 -2 41 -9 53 -30 13 -25 13 -31 0 -55 -8 -16 -30 -35 -47 -43 -18 -8 -33 -21 -33 -27 0 -21 -38 -53 -62 -53 -24 0 -68 36 -68 56 0 7 -9 16 -20 19 -58 18 -58 96 0 116 16 6 30 17 30 24 0 17 39 45 62 45 9 0 24 -7 32 -16z m-471 -306 c12 -7 44 -12 72 -12 44 -1 51 -4 70 -33 14 -23 28 -32 46 -33 45 0 80 -60 59 -100 -9 -17 -7 -26 9 -47 29 -36 26 -59 -11 -96 -22 -22 -31 -40 -29 -58 3 -38 -29 -71 -72 -74 -26 -2 -43 -10 -58 -29 -25 -32 -77 -36 -104 -6 -14 16 -26 18 -61 13 -39 -5 -46 -2 -75 26 -25 26 -30 37 -25 61 4 22 1 33 -13 42 -43 31 -50 90 -15 130 10 11 12 18 5 23 -6 3 -11 24 -11 45 0 30 6 43 26 59 15 12 37 21 50 21 15 0 24 6 24 15 0 23 46 65 70 65 12 0 31 -5 43 -12z m635 -260 c6 -6 12 -19 12 -29 0 -10 13 -25 30 -34 16 -8 33 -27 36 -40 8 -32 -19 -75 -46 -75 -12 0 -25 -11 -32 -25 -19 -43 -85 -48 -103 -7 -6 14 -18 22 -34 22 -61 0 -84 80 -35 119 15 12 35 21 44 21 11 0 20 10 24 25 10 41 66 53 104 23z m4686 -243 c13 -14 33 -25 45 -25 59 0 87 -54 52 -101 -12 -16 -21 -38 -21 -50 0 -54 -85 -83 -112 -39 -7 11 -24 20 -37 20 -51 0 -77 53 -47 96 10 13 11 25 5 35 -40 64 62 122 115 64z m-5024 -102 c0 -5 14 -23 30 -41 l30 -33 44 26 c23 14 50 25 58 25 29 0 38 -116 14 -182 -8 -21 -12 -38 -11 -38 1 0 18 7 38 15 19 8 54 19 77 24 50 11 59 -1 41 -61 l-13 -41 42 -36 43 -37 -36 -31 c-33 -29 -131 -73 -162 -73 -9 0 1 -16 24 -39 21 -21 46 -58 55 -83 18 -46 18 -114 1 -112 -5 1 -25 4 -42 7 -32 6 -33 5 -39 -33 -8 -47 -20 -50 -79 -16 -40 24 -95 90 -95 114 0 20 -16 13 -28 -12 -27 -59 -140 -156 -183 -156 -11 0 -22 13 -29 35 -14 44 -20 47 -59 34 -38 -13 -40 -12 -52 38 -13 57 6 135 47 188 19 25 34 47 34 49 0 2 -12 7 -27 11 -28 7 -87 47 -111 75 -7 8 -20 30 -28 49 -17 38 -12 47 39 58 37 8 39 14 22 64 -20 56 -11 64 78 64 57 0 80 -5 110 -22 21 -13 39 -23 41 -23 1 0 3 18 4 40 2 47 23 93 60 133 24 25 62 37 62 20z m5466 -98 c23 -10 39 -26 49 -49 21 -49 18 -81 -9 -148 l-24 -58 27 8 c96 27 186 -30 184 -115 -2 -60 -62 -103 -144 -103 -35 0 -40 -3 -34 -17 4 -10 9 -40 11 -68 14 -138 -134 -218 -223 -121 -21 22 -35 50 -39 76 -4 22 -8 40 -10 40 -2 0 -20 -11 -40 -25 -42 -28 -82 -32 -123 -10 -69 35 -51 139 32 182 29 15 30 16 11 23 -27 10 -72 65 -80 96 -9 34 14 82 47 99 39 21 96 19 134 -5 l32 -20 6 54 c8 79 39 133 90 157 51 23 58 23 103 4z m-4652 -59 c37 -16 76 -60 76 -87 0 -23 18 -25 26 -4 10 24 69 55 106 55 46 0 86 -32 94 -75 9 -47 -1 -78 -36 -119 l-30 -33 49 -7 c84 -11 161 -83 161 -150 0 -43 -31 -90 -70 -106 -40 -17 -105 -2 -162 36 l-38 24 0 -40 c0 -84 -42 -139 -112 -147 -34 -4 -49 0 -70 17 -33 26 -52 88 -43 143 l7 40 -39 -6 c-54 -9 -111 9 -149 47 -87 87 -27 216 99 216 26 0 47 2 47 5 0 2 -9 19 -20 37 -34 56 -20 126 31 154 30 17 33 17 73 0z m4096 -576 c11 -11 20 -24 20 -28 0 -5 12 -7 28 -4 39 5 82 -31 82 -70 0 -20 9 -39 30 -58 35 -33 38 -67 10 -103 -14 -18 -18 -33 -14 -56 4 -16 4 -42 0 -55 -7 -29 -59 -60 -87 -53 -12 3 -30 -5 -48 -24 -33 -33 -74 -38 -109 -14 -16 12 -27 13 -41 5 -49 -26 -111 8 -111 62 0 22 -5 28 -20 28 -28 0 -70 44 -70 72 0 13 7 33 15 46 12 17 13 26 5 42 -17 32 -2 80 31 99 19 10 29 24 29 39 0 13 12 35 26 49 21 21 32 25 63 20 23 -3 44 1 56 9 28 21 82 17 105 -6z m-4169 -266 c32 -16 68 -81 69 -121 0 -28 -2 -28 51 -3 56 25 115 25 157 0 100 -61 91 -182 -17 -232 l-47 -21 34 -31 c64 -59 50 -165 -24 -179 -41 -7 -90 10 -117 43 l-25 29 -18 -41 c-58 -129 -221 -85 -202 55 3 17 9 40 13 50 7 17 4 18 -47 12 -114 -14 -198 41 -198 131 0 38 5 51 30 74 35 33 89 43 156 31 27 -5 50 -8 51 -7 1 1 -5 22 -13 46 -22 62 -11 112 32 150 39 34 70 38 115 14z m-624 -65 c8 -8 17 -8 31 0 50 27 92 -1 92 -60 0 -27 -6 -43 -22 -56 -16 -12 -22 -27 -20 -45 7 -57 -67 -89 -109 -47 -13 13 -27 18 -39 14 -24 -8 -70 35 -70 65 0 11 9 29 20 40 11 11 20 30 20 42 0 45 66 78 97 47z m5166 -140 c14 -6 30 -22 36 -35 6 -15 19 -24 32 -24 58 0 82 -84 34 -116 -14 -9 -25 -25 -25 -35 0 -27 -35 -59 -65 -59 -16 0 -32 11 -47 30 -12 17 -28 30 -37 30 -44 0 -66 65 -33 98 10 10 17 32 17 57 0 32 5 42 25 52 31 16 33 16 63 2z m-476 -229 c10 -11 25 -20 35 -20 25 0 58 -35 58 -62 0 -12 -7 -29 -15 -38 -13 -14 -14 -22 -4 -42 32 -71 -81 -116 -123 -48 -8 12 -23 20 -40 20 -62 0 -89 72 -43 114 14 13 25 34 25 48 0 13 5 29 12 36 19 19 76 15 95 -8z m-3642 -221 c6 0 24 3 42 7 39 7 78 -26 69 -59 -3 -14 3 -28 19 -43 32 -29 32 -58 0 -89 -25 -26 -59 -32 -84 -16 -10 6 -22 5 -35 -5 -50 -35 -106 3 -105 72 0 21 -2 53 -6 70 -6 26 -3 34 21 53 18 15 35 20 49 16 11 -4 25 -6 30 -6z m-374 -270 c56 2 85 -23 76 -67 -4 -21 -1 -31 14 -40 26 -16 25 -66 -2 -93 -17 -17 -28 -20 -57 -15 -49 8 -62 9 -94 1 -38 -10 -83 35 -73 73 8 35 8 52 0 79 -10 31 37 78 68 68 12 -4 43 -7 68 -6z"
       id="path8"
       style="fill:#99ffff" />
    <path
       d="M3978 8093 c-18 -3 -28 -10 -28 -21 0 -33 90 -836 95 -840 2 -2 22 -1 44 3 39 6 41 8 41 43 0 72 -31 797 -35 810 -4 12 -56 14 -117 5z"
       id="path10"
       style="fill:#66ccff" />
    <path
       d="M4144 8013 c5 -65 9 -137 21 -473 6 -168 15 -270 21 -270 18 0 75 58 97 99 29 53 34 85 41 296 9 239 -19 338 -108 390 -70 41 -78 37 -72 -42z"
       id="path12"
       style="fill:#66ccff" />
    <path
       d="M3863 8031 c-76 -69 -82 -119 -48 -390 30 -238 41 -286 80 -336 26 -35 82 -71 92 -61 7 7 -78 798 -86 808 -4 4 -21 -5 -38 -21z"
       id="path14"
       style="fill:#66ccff" />
    <path
       d="M3335 7973 c-38 -8 -71 -16 -73 -18 -2 -2 21 -93 52 -202 30 -109 75 -274 101 -368 25 -93 48 -178 51 -188 5 -14 12 -16 42 -11 60 10 72 15 72 30 0 13 -113 558 -146 707 -9 37 -19 67 -22 66 -4 0 -38 -7 -77 -16z"
       id="path16"
       style="fill:#66ccff" />
    <path
       d="M4843 8019 c-87 -43 -117 -121 -78 -203 21 -43 82 -103 93 -90 8 8 62 275 62 303 0 17 -31 13 -77 -10z"
       id="path18"
       style="fill:#66ccff" />
    <path
       d="M5019 7370 c-20 -88 -32 -160 -27 -160 19 0 84 32 106 53 48 45 65 112 43 170 -10 26 -68 97 -80 97 -3 0 -22 -72 -42 -160z"
       id="path20"
       style="fill:#66ccff" />
    <path
       d="M5542 7890 c-58 -14 -108 -55 -135 -112 -36 -73 -109 -396 -110 -479 0 -54 5 -75 28 -117 15 -28 36 -59 46 -68 17 -16 19 -15 28 7 13 36 191 744 191 763 0 17 0 17 -48 6z"
       id="path22"
       style="fill:#66ccff" />
    <path
       d="M2227 7579 c-76 -39 -78 -41 -64 -62 7 -12 92 -161 187 -332 95 -170 179 -320 187 -333 l13 -22 63 31 c34 17 63 33 65 34 6 5 -358 725 -366 725 -4 -1 -42 -19 -85 -41z"
       id="path24"
       style="fill:#66ccff" />
    <path
       d="M2540 7369 c-6 -22 -10 -44 -8 -48 2 -4 41 -40 88 -81 47 -40 127 -112 178 -161 l92 -88 75 26 c41 13 75 28 75 31 -1 17 -392 309 -472 353 -14 8 -19 3 -28 -32z"
       id="path26"
       style="fill:#66ccff" />
    <path
       d="M6075 7708 c-11 -32 -169 -449 -219 -578 -31 -79 -56 -149 -56 -155 0 -11 108 -61 114 -54 9 13 336 716 336 722 0 8 -143 77 -161 77 -5 0 -12 -6 -14 -12z"
       id="path28"
       style="fill:#66ccff" />
    <path
       d="M6428 7438 c-26 -51 -108 -212 -183 -357 -74 -146 -132 -268 -128 -271 5 -4 29 -19 54 -33 l46 -26 208 344 c114 189 204 348 201 354 -7 11 -130 81 -143 81 -5 0 -30 -42 -55 -92z"
       id="path30"
       style="fill:#66ccff" />
    <path
       d="M1672 7238 c-22 -27 -42 -87 -42 -125 0 -61 40 -128 172 -293 120 -149 170 -197 231 -219 31 -12 130 -15 140 -5 3 4 -95 140 -218 303 -289 381 -268 356 -283 339z"
       id="path32"
       style="fill:#66ccff" />
    <path
       d="M6764 7274 c-53 -26 -108 -93 -212 -259 -132 -212 -145 -240 -146 -300 -1 -49 19 -115 34 -115 4 0 86 120 183 268 239 367 267 410 267 416 0 12 -97 5 -126 -10z"
       id="path34"
       style="fill:#66ccff" />
    <path
       d="M6832 7105 c-59 -91 -162 -249 -230 -352 -68 -102 -121 -192 -118 -199 3 -7 19 -20 37 -29 30 -16 33 -16 49 2 10 10 126 161 259 337 198 262 239 321 229 333 -17 20 -94 73 -107 73 -6 0 -60 -74 -119 -165z"
       id="path36"
       style="fill:#66ccff" />
    <path
       d="M6856 6824 c-136 -179 -244 -329 -241 -332 4 -4 32 -6 63 -6 99 2 140 31 307 222 107 122 160 206 169 264 7 46 -10 120 -36 157 -14 20 -26 7 -262 -305z"
       id="path38"
       style="fill:#66ccff" />
    <path
       d="M1211 6869 l-73 -61 134 -87 c150 -98 375 -256 489 -342 l76 -58 63 52 63 51 -39 34 c-61 53 -407 311 -530 395 l-111 76 -72 -60z"
       id="path40"
       style="fill:#66ccff" />
    <path
       d="M1250 6623 c38 -69 188 -322 196 -332 2 -2 39 29 83 69 l80 73 -73 52 c-101 73 -314 215 -322 215 -3 0 13 -35 36 -77z"
       id="path42"
       style="fill:#66ccff" />
    <path
       d="M4939 6803 c-40 -34 -68 -96 -69 -150 0 -39 2 -43 25 -43 37 0 90 -25 108 -50 13 -18 18 -20 37 -10 12 6 35 32 51 58 23 37 29 57 29 102 0 31 -3 59 -6 62 -3 4 -21 0 -39 -8 -51 -21 -61 -18 -79 26 -9 22 -18 40 -20 40 -3 0 -19 -12 -37 -27z"
       id="path44"
       style="fill:#33ccff" />
    <path
       d="M4607 6723 c-13 -3 -16 -10 -11 -21 20 -49 17 -60 -25 -82 l-42 -21 21 -29 c34 -47 99 -98 148 -114 59 -21 62 -20 62 8 0 36 18 77 47 108 31 33 26 54 -27 102 -51 46 -115 64 -173 49z"
       id="path46"
       style="fill:#33ccff" />
    <path
       d="M4829 6541 c-58 -59 -28 -161 48 -161 16 0 37 8 46 18 33 37 13 98 -30 90 -26 -5 -30 -38 -4 -38 12 0 21 -6 21 -15 0 -10 -10 -15 -30 -15 -23 0 -33 6 -42 26 -14 30 -4 52 34 73 33 19 77 -2 99 -48 l16 -34 7 26 c22 89 -97 145 -165 78z"
       id="path48"
       style="fill:#ffff33" />
    <path
       d="M5068 6519 c-30 -15 -38 -25 -38 -48 0 -16 -9 -40 -21 -55 -25 -32 -19 -42 52 -81 54 -29 180 -48 192 -28 3 5 -5 26 -18 46 -33 48 -32 59 11 96 30 27 34 34 23 47 -38 46 -136 58 -201 23z"
       id="path50"
       style="fill:#33ccff" />
    <path
       d="M4717 6390 c-39 -12 -95 -56 -118 -94 l-19 -31 37 -5 c37 -5 38 -6 37 -47 -1 -47 2 -49 49 -30 50 22 98 67 119 114 l19 43 -33 30 c-35 31 -46 33 -91 20z"
       id="path52"
       style="fill:#33ccff" />
    <path
       d="M4906 6348 c-37 -19 -38 -20 -32 -61 10 -65 34 -129 59 -161 l23 -28 28 42 c23 34 31 41 49 35 69 -21 69 -21 51 21 -26 63 -89 146 -124 163 -9 4 -32 -1 -54 -11z"
       id="path54"
       style="fill:#33ccff" />
    <path
       d="M4431 6122 c-80 -40 -97 -109 -56 -222 39 -111 42 -104 -52 -111 -128 -10 -209 -69 -232 -169 -23 -103 30 -198 126 -226 63 -18 99 -15 248 23 58 15 132 26 175 27 75 1 99 12 100 43 0 7 -24 25 -52 40 -40 20 -70 27 -123 29 -50 2 -70 7 -70 16 0 10 21 13 80 12 62 0 89 -5 123 -22 23 -12 42 -19 42 -15 0 5 -13 31 -30 59 -32 57 -84 105 -142 132 -35 16 -48 35 -30 45 15 10 99 -39 145 -85 27 -27 62 -77 78 -111 l30 -62 -5 150 c-4 153 -14 205 -61 295 -44 86 -158 170 -230 170 -16 0 -45 -8 -64 -18z"
       id="path56"
       style="fill:#0099ff" />
    <path
       d="M4831 5775 c4 -30 13 -71 20 -92 7 -21 13 -65 13 -98 1 -33 7 -69 14 -80 12 -20 12 -19 36 7 68 77 41 243 -50 303 -37 24 -41 19 -33 -40z"
       id="path58"
       style="fill:#6699cc" />
    <path
       d="M5396 5649 c-117 -19 -268 -89 -349 -161 -44 -39 -47 -46 -41 -75 6 -32 8 -33 59 -33 75 0 144 -15 210 -46 53 -26 75 -47 61 -61 -3 -3 -34 8 -68 25 -64 31 -183 57 -212 46 -14 -5 -12 -12 13 -43 53 -67 120 -228 105 -253 -12 -20 -26 0 -50 71 -24 70 -78 165 -109 191 -11 9 -20 8 -39 -7 -31 -22 -34 -69 -11 -158 32 -120 89 -220 149 -256 81 -49 142 -8 219 148 59 121 115 187 247 294 142 114 173 190 109 264 -51 58 -156 77 -293 54z"
       id="path60"
       style="fill:#0099ff" />
    <path
       d="M4786 5461 c-40 -41 -33 -77 22 -115 53 -38 101 -40 137 -6 39 37 28 80 -22 80 -13 0 -40 16 -62 35 -21 19 -40 35 -43 35 -2 0 -17 -13 -32 -29z"
       id="path62"
       style="fill:#6699ff" />
    <path
       d="M4465 5369 c-103 -26 -133 -29 -210 -25 -67 4 -100 1 -131 -10 -38 -14 -42 -20 -47 -57 -19 -140 87 -282 257 -344 83 -30 133 -41 150 -31 24 14 100 12 128 -2 12 -7 32 -20 43 -30 11 -10 49 -26 85 -35 136 -36 233 -98 319 -205 l21 -25 -16 55 c-21 72 -38 103 -81 151 -41 46 -78 67 -143 84 -53 13 -58 29 -12 33 49 5 133 -40 186 -99 48 -54 84 -135 93 -211 8 -68 23 -49 23 30 0 110 -23 177 -81 239 -45 48 -119 178 -119 211 0 7 -16 20 -36 28 -40 17 -45 51 -6 47 18 -2 22 2 22 25 0 51 -11 72 -37 72 -35 0 -96 34 -131 74 -24 28 -42 37 -88 45 -32 6 -60 11 -63 10 -3 0 -60 -14 -126 -30z"
       id="path64"
       style="fill:#ff6600" />
    <path
       d="M3962 5253 c-70 -42 -165 -123 -241 -207 -122 -135 -219 -326 -269 -529 -25 -106 -24 -395 2 -492 41 -151 118 -277 213 -345 73 -52 88 -51 37 3 -47 48 -84 100 -84 116 0 27 29 5 79 -59 69 -87 144 -150 182 -150 26 0 25 2 -32 57 -56 53 -73 83 -48 83 6 0 45 -32 87 -71 73 -68 78 -71 116 -66 39 6 89 34 88 51 -1 5 -25 17 -54 26 -265 84 -456 268 -489 469 -20 129 7 219 140 456 35 62 73 147 87 195 78 260 119 339 206 393 26 17 48 34 48 38 0 13 -6 11 -53 -12 -69 -35 -127 -89 -174 -162 -34 -51 -48 -66 -56 -58 -18 18 28 96 93 161 31 31 86 71 123 90 37 19 67 38 67 43 0 10 0 10 -68 -30z"
       id="path66"
       style="fill:#ff6600" />
    <path
       d="M3976 5120 c-39 -36 -92 -127 -111 -189 l-7 -24 27 21 c27 21 95 31 95 14 0 -9 -117 -82 -130 -82 -4 0 -10 -12 -13 -27 -3 -16 -9 -36 -12 -45 -7 -17 -5 -17 31 -2 42 17 95 12 114 -11 11 -13 7 -15 -26 -15 -22 0 -46 -5 -54 -10 -12 -8 -11 -10 6 -10 58 0 106 -88 84 -154 -33 -100 -165 -114 -219 -25 l-19 30 -35 -58 c-154 -256 -157 -413 -12 -597 128 -163 464 -290 719 -273 149 11 146 9 151 97 5 98 32 189 106 362 34 79 74 178 90 220 31 85 30 98 -20 196 -24 48 -46 67 -31 27 6 -15 10 -46 10 -70 0 -79 -84 -145 -166 -132 -94 16 -158 131 -123 224 14 37 68 93 90 93 10 0 21 5 24 10 10 15 -61 12 -102 -5 -42 -18 -46 -18 -37 -4 13 21 89 49 134 49 95 0 200 -79 236 -179 10 -25 21 -50 25 -55 10 -12 23 136 15 181 -16 93 -15 91 -63 107 -26 9 -48 16 -50 16 -2 0 -3 -15 -3 -32 l0 -33 -16 30 c-8 17 -18 33 -22 37 -4 4 -56 17 -116 28 -278 54 -417 134 -483 278 -14 28 -29 52 -34 52 -5 0 -29 -18 -53 -40z m74 -655 c17 -21 4 -35 -35 -35 -59 0 -94 -68 -60 -117 13 -18 13 -22 0 -33 -33 -27 -72 52 -55 111 12 40 28 59 65 75 40 17 70 17 85 -1z m19 -284 c29 -29 44 -94 45 -188 1 -73 -2 -84 -23 -107 -51 -54 -98 -25 -130 79 -33 105 -23 211 21 228 29 12 69 6 87 -12z"
       id="path68"
       style="fill:#cccccc" />
    <path
       d="M4003 4148 c-19 -25 -23 -51 -17 -99 l7 -49 33 37 c37 42 42 68 18 101 -17 25 -27 27 -41 10z"
       id="path70"
       style="fill:#ff3300" />
    <path
       d="M4041 3977 c-22 -48 -21 -67 4 -67 18 0 28 36 23 81 l-4 34 -23 -48z"
       id="path72"
       style="fill:#ff3300" />
    <path
       d="M5325 4921 c-3 -11 -24 -35 -45 -54 l-39 -33 0 -85 c0 -131 -55 -271 -129 -329 -32 -26 -43 -15 -46 47 -5 92 -66 188 -155 245 -25 15 -47 28 -50 28 -4 0 -6 -60 -7 -133 -1 -153 -14 -202 -116 -441 -96 -227 -119 -299 -125 -402 -5 -79 -3 -97 16 -140 l22 -49 25 30 c49 58 102 141 142 220 40 81 92 233 92 272 0 25 25 49 35 33 3 -6 1 -35 -5 -66 -30 -145 -106 -307 -204 -437 -55 -74 -57 -79 -40 -92 11 -8 24 -15 31 -15 30 -1 168 227 188 313 4 15 14 27 22 27 39 0 -37 -183 -122 -295 -51 -67 -53 -75 -25 -75 18 0 48 33 86 96 10 15 15 16 25 7 10 -10 6 -22 -19 -63 l-31 -50 52 0 c202 0 426 162 531 384 64 134 81 219 81 406 0 227 -36 390 -127 575 -47 95 -54 104 -63 76z"
       id="path74"
       style="fill:#ff6600" />
    <path
       d="M5140 4821 c0 -3 5 -22 10 -41 6 -19 11 -75 11 -125 l1 -90 15 40 c17 48 28 153 19 188 -4 16 -15 26 -31 29 -14 3 -25 2 -25 -1z"
       id="path76"
       style="fill:#ff6633" />
    <path
       d="M3832 4718 c-17 -17 -15 -36 6 -47 13 -7 23 -6 30 1 17 17 15 45 -4 52 -20 8 -18 8 -32 -6z"
       id="path78"
       style="fill:#000066" />
    <path
       d="M3887 4674 c-14 -14 -7 -35 11 -32 9 2 17 10 17 17 0 16 -18 25 -28 15z"
       id="path80"
       style="fill:#000066" />
    <path
       d="M4485 4644 c-18 -19 -16 -33 8 -48 18 -11 47 0 54 21 4 12 -23 43 -37 43 -5 0 -16 -7 -25 -16z"
       id="path82"
       style="fill:#000066" />
    <path
       d="M4561 4601 c-15 -10 -8 -41 9 -41 15 0 25 29 14 40 -5 5 -15 5 -23 1z"
       id="path84"
       style="fill:#000066" />
    <path
       d="M4147 3627 c-4 -11 8 -16 50 -20 118 -12 231 -94 288 -211 30 -59 37 -88 43 -161 7 -81 11 -95 45 -147 55 -83 64 -87 76 -41 31 110 22 240 -23 339 -60 131 -206 222 -382 238 -33 3 -68 8 -76 11 -9 4 -18 0 -21 -8z"
       id="path86"
       style="fill:#ff3333" />
    <path
       d="M4512 3627 c-49 -8 -52 -10 -35 -22 15 -11 29 -11 61 -3 39 10 52 22 35 31 -5 2 -32 -1 -61 -6z"
       id="path88"
       style="fill:#66ff66" />
    <path
       d="M4568 3573 c-23 -6 -23 -11 5 -33 28 -23 52 -9 36 21 -10 19 -12 20 -41 12z"
       id="path90"
       style="fill:#ff3333" />
    <path
       d="M4115 3563 c-32 -8 -45 -23 -81 -95 -152 -303 -81 -932 141 -1243 80 -113 216 -214 330 -244 107 -28 233 -17 332 29 216 100 294 344 178 558 -41 76 -103 140 -252 264 -146 121 -217 199 -263 291 -34 67 -54 157 -47 203 10 61 -75 164 -173 207 -57 26 -130 39 -165 30z m852 -1035 c26 -49 28 -62 28 -163 0 -100 -3 -115 -28 -166 -64 -131 -211 -211 -360 -195 -71 7 -187 57 -187 80 0 22 10 20 71 -11 48 -25 64 -28 154 -28 89 0 106 3 151 27 60 32 118 93 148 157 16 36 21 65 21 136 0 79 -3 97 -27 143 -32 61 -34 72 -13 72 8 0 27 -24 42 -52z"
       id="path92"
       style="fill:#00ff66" />
    <path
       d="M3965 3541 c-31 -5 -36 -8 -21 -14 15 -6 16 -10 6 -22 -10 -12 -15 -12 -37 2 -26 17 -26 17 -72 -33 -25 -28 -70 -97 -100 -155 -30 -57 -90 -157 -132 -221 -100 -152 -123 -209 -123 -313 -1 -68 3 -89 27 -137 26 -53 88 -118 112 -118 6 0 18 13 28 29 16 27 16 29 -8 51 -34 32 -71 114 -80 175 -8 63 14 174 48 241 31 61 98 152 166 224 l51 54 36 -37 c40 -41 54 -46 54 -19 0 52 49 198 98 295 2 4 0 6 -5 6 -4 -1 -26 -5 -48 -8z"
       id="path94"
       style="fill:#ff3333" />
    <path
       d="M4630 3505 c-9 -11 -8 -20 6 -40 16 -24 18 -25 35 -9 24 22 24 25 -5 46 -21 15 -26 15 -36 3z"
       id="path96"
       style="fill:#ff3333" />
    <path
       d="M4696 3436 l-29 -24 18 -44 c34 -83 32 -252 -6 -387 -2 -8 53 -62 134 -130 134 -113 204 -186 234 -244 8 -16 17 -27 20 -24 2 3 1 42 -3 86 -6 75 -8 81 -29 81 -37 0 -68 32 -68 71 0 19 -6 43 -13 54 -18 26 -18 89 1 105 11 9 12 17 5 30 -18 33 -11 67 19 96 l29 29 -18 70 c-10 39 -31 104 -47 145 l-28 74 -70 12 c-39 6 -81 14 -95 17 -18 5 -33 0 -54 -17z"
       id="path98"
       style="fill:#00ff66" />
    <path
       d="M3614 3315 c-33 -33 -100 -174 -120 -253 -18 -73 -13 -89 12 -40 9 18 45 74 79 123 62 90 105 165 105 185 0 20 -51 10 -76 -15z"
       id="path100"
       style="fill:#ff3333" />
    <path
       d="M3757 3173 c-94 -109 -148 -219 -155 -316 -5 -88 13 -155 57 -208 29 -33 30 -34 45 -14 25 31 130 212 170 292 34 68 36 79 36 165 l0 93 -35 24 c-19 13 -35 27 -35 32 0 20 -19 5 -83 -68z"
       id="path102"
       style="fill:#ff3333" />
    <path
       d="M5012 3078 c-17 -17 -15 -55 3 -62 21 -8 19 -33 -4 -46 -29 -15 -36 -48 -15 -71 9 -10 23 -19 30 -19 25 0 27 -23 4 -42 -21 -17 -22 -20 -7 -35 42 -42 157 72 157 157 0 35 -39 99 -70 115 -35 18 -81 20 -98 3z"
       id="path104"
       style="fill:#cc9999" />
    <path
       d="M3879 2840 c-15 -27 -24 -52 -21 -55 12 -11 50 -4 56 11 9 22 7 94 -1 94 -5 0 -20 -22 -34 -50z"
       id="path106"
       style="fill:#66ff33" />
    <path
       d="M3781 2670 c-35 -58 -41 -74 -30 -81 22 -13 144 -39 187 -39 l39 0 -20 88 c-12 48 -21 88 -22 89 -1 1 -26 5 -56 8 l-54 7 -44 -72z"
       id="path108"
       style="fill:#00ff66" />
    <path
       d="M3683 2523 c-62 -84 -153 -193 -236 -283 -48 -52 -99 -117 -112 -144 -48 -96 -25 -210 61 -305 72 -80 282 -202 479 -279 412 -159 815 -183 1180 -71 121 38 183 68 236 116 52 47 71 86 71 142 0 56 -18 99 -79 194 -65 101 -119 220 -147 323 -23 88 -24 88 -31 51 -5 -26 -2 -55 10 -93 24 -75 16 -136 -21 -175 -16 -16 -40 -32 -54 -36 -14 -3 -31 -11 -39 -17 -16 -12 -130 -21 -218 -16 -10 0 -61 -2 -113 -6 -110 -7 -185 7 -284 56 -154 76 -302 254 -367 440 -12 36 -25 68 -28 71 -3 4 -30 9 -59 12 l-53 6 -31 -44 c-18 -25 -40 -45 -50 -45 -24 0 -23 8 13 55 26 35 28 40 13 44 -12 2 -32 -14 -58 -45 -70 -85 -169 -184 -183 -184 -26 0 -12 27 43 80 58 58 140 158 133 164 -2 2 -14 8 -26 15 -19 10 -25 7 -50 -26z m-41 -784 c143 -93 380 -187 563 -223 253 -50 473 -47 720 10 138 32 140 32 140 14 0 -10 -26 -22 -85 -37 -135 -36 -276 -53 -431 -53 -300 1 -544 60 -809 196 -136 71 -186 106 -176 123 10 15 8 16 78 -30z"
       id="path110"
       style="fill:#00ff66" />
    <path
       d="M5039 2116 c-15 -24 -50 -62 -77 -84 -28 -22 -48 -42 -45 -46 11 -11 49 -6 69 9 10 8 28 15 40 15 22 0 47 23 57 53 8 21 -2 97 -12 97 -3 0 -18 -20 -32 -44z"
       id="path112"
       style="fill:#cc9999" />
    <path
       d="M3790 1472 c0 -47 -47 -194 -121 -375 -87 -217 -119 -329 -119 -424 0 -85 4 -93 43 -82 70 20 218 0 274 -37 27 -17 43 -18 43 -3 0 6 13 39 30 73 21 45 63 98 154 194 172 181 253 300 311 455 21 55 14 67 -39 67 -54 0 -275 50 -390 88 l-115 37 -11 -65 c-20 -114 -87 -279 -124 -302 -28 -18 -22 15 19 96 63 126 98 296 60 296 -8 0 -15 -8 -15 -18z m120 -107 c0 -25 -40 -138 -62 -173 -15 -25 -23 -30 -33 -22 -11 9 -9 19 10 53 13 23 29 62 35 87 7 25 14 51 16 58 5 17 34 15 34 -3z"
       id="path114"
       style="fill:#669966" />
    <path
       d="M5099 1405 c-10 -9 -208 -54 -284 -64 -44 -6 -119 -12 -167 -13 -49 -2 -88 -5 -88 -7 0 -2 14 -47 31 -100 54 -167 89 -315 79 -325 -16 -16 -26 3 -49 99 -12 50 -40 145 -62 213 -34 102 -43 122 -60 122 -15 0 -19 -5 -15 -17 3 -10 31 -107 61 -216 31 -109 66 -226 79 -260 58 -156 141 -280 232 -349 l57 -43 16 25 c51 79 149 149 231 165 70 13 70 14 59 43 -45 117 -79 368 -79 579 0 142 -1 153 -18 153 -10 0 -21 -2 -23 -5z m-424 -203 c28 -84 35 -143 18 -149 -14 -5 -14 -4 -33 77 -7 30 -22 75 -32 99 -10 25 -16 51 -13 60 10 25 33 -8 60 -87z"
       id="path116"
       style="fill:#669966" />
    <path
       d="M5153 586 c-59 -19 -104 -49 -153 -102 -40 -43 -42 -47 -24 -58 10 -6 55 -10 99 -10 134 0 201 53 179 142 -11 43 -33 49 -101 28z m72 -36 c0 -8 -14 -17 -34 -21 -18 -4 -46 -17 -62 -28 -26 -19 -30 -20 -36 -6 -8 22 15 43 63 60 46 17 69 15 69 -5z"
       id="path118"
       style="fill:#ff3333" />
    <path
       d="M3635 553 c-43 -6 -48 -16 -22 -41 31 -30 178 -112 199 -112 9 0 24 10 32 22 14 19 14 23 -2 34 -9 8 -32 16 -49 20 -41 8 -44 34 -5 34 15 0 42 -9 60 -20 22 -14 32 -16 32 -7 0 35 -165 81 -245 70z"
       id="path120"
       style="fill:#ff3333" />
    <path
       d="M7315 6791 c-76 -39 -319 -308 -362 -400 -22 -45 -25 -63 -21 -116 3 -35 9 -68 13 -75 5 -8 108 91 296 281 l289 294 -27 14 c-47 24 -142 25 -188 2z"
       id="path122"
       style="fill:#66ccff" />
    <path
       d="M7267 6442 l-297 -297 27 -38 c14 -20 30 -37 35 -37 5 0 96 75 201 168 106 92 250 216 320 277 70 60 127 112 127 116 0 12 -92 109 -103 109 -7 0 -146 -134 -310 -298z"
       id="path124"
       style="fill:#66ccff" />
    <path
       d="M7635 6526 c-33 -29 -170 -148 -305 -265 -135 -118 -246 -217 -248 -221 -5 -13 49 -30 95 -30 69 0 112 26 289 173 185 155 228 201 243 263 11 41 6 120 -8 128 -3 2 -33 -19 -66 -48z"
       id="path126"
       style="fill:#66ccff" />
    <path
       d="M4251 6766 c-19 -23 4 -59 32 -50 36 10 40 21 18 43 -25 25 -34 26 -50 7z"
       id="path128"
       style="fill:#33ccff" />
    <path
       d="M4354 6694 c3 -9 6 -22 6 -30 0 -19 29 -18 36 1 7 18 -13 45 -33 45 -10 0 -13 -6 -9 -16z"
       id="path130"
       style="fill:#33ccff" />
    <path
       d="M4300 6675 c0 -8 5 -15 10 -15 6 0 10 7 10 15 0 8 -4 15 -10 15 -5 0 -10 -7 -10 -15z"
       id="path132"
       style="fill:none" />
    <path
       d="M4221 6671 c-19 -12 -6 -41 17 -41 26 0 33 10 21 31 -11 21 -18 23 -38 10z"
       id="path134"
       style="fill:#33ccff" />
    <path
       d="M4290 6594 c0 -21 4 -25 23 -22 14 2 23 11 25 26 3 18 -1 22 -22 22 -21 0 -26 -5 -26 -26z"
       id="path136"
       style="fill:#33ccff" />
    <path
       d="M3109 6614 c-11 -14 -10 -18 6 -30 16 -12 21 -12 33 0 17 17 9 46 -11 46 -8 0 -21 -7 -28 -16z"
       id="path138"
       style="fill:#33ccff" />
    <path
       d="M3031 6557 c-8 -10 -7 -19 3 -33 17 -22 21 -19 30 19 7 30 -12 38 -33 14z"
       id="path140"
       style="fill:#33ccff" />
    <path
       d="M3162 6528 c2 -15 10 -23 23 -23 30 0 27 39 -3 43 -20 3 -23 0 -20 -20z"
       id="path142"
       style="fill:#33ccff" />
    <path
       d="M3100 6530 c0 -5 5 -10 10 -10 6 0 10 5 10 10 0 6 -4 10 -10 10 -5 0 -10 -4 -10 -10z"
       id="path144"
       style="fill:none" />
    <path
       d="M3088 6475 c-20 -21 26 -71 51 -56 23 14 9 56 -19 59 -14 2 -28 0 -32 -3z"
       id="path146"
       style="fill:#33ccff" />
    <path
       d="M3994 6441 c-38 -23 -54 -65 -54 -139 0 -52 1 -54 24 -48 14 3 36 2 49 -3 26 -10 51 8 76 56 15 29 14 105 -1 126 -21 26 -59 30 -94 8z"
       id="path148"
       style="fill:#ff66ff" />
    <path
       d="M3681 6354 c-34 -44 -28 -81 23 -130 34 -32 58 -45 100 -55 31 -7 57 -10 59 -8 1 2 12 19 25 37 l23 33 -26 45 c-32 54 -105 104 -151 104 -23 0 -39 -8 -53 -26z"
       id="path150"
       style="fill:#ff66ff" />
    <path
       d="M4092 6229 c-22 -8 -22 -10 -8 -31 20 -28 20 -65 1 -102 -8 -15 -15 -30 -15 -31 0 -12 107 -36 133 -31 69 14 101 91 61 151 -28 43 -117 66 -172 44z"
       id="path152"
       style="fill:#ff66ff" />
    <path
       d="M3926 6189 c-14 -17 -26 -41 -26 -53 0 -36 37 -76 70 -76 48 0 78 48 48 78 -21 21 -39 14 -32 -12 7 -30 -9 -41 -30 -20 -21 21 -20 47 2 67 25 22 44 21 76 -4 34 -27 36 -2 3 29 -35 33 -79 29 -111 -9z"
       id="path154"
       style="fill:#ff3300" />
    <path
       d="M3814 6091 c-63 -38 -83 -101 -44 -136 33 -30 78 -22 123 24 l40 40 -31 36 c-18 19 -32 40 -32 45 0 15 -22 12 -56 -9z"
       id="path156"
       style="fill:#ff66ff" />
    <path
       d="M3998 6027 c-26 -10 -28 -15 -28 -68 0 -48 4 -60 26 -83 33 -32 57 -33 84 -3 28 29 22 85 -15 132 -28 38 -28 38 -67 22z"
       id="path158"
       style="fill:#ff66ff" />
    <path
       d="M7583 6069 l-312 -250 46 -62 c26 -34 48 -64 50 -66 4 -6 118 71 313 209 208 148 335 248 335 263 0 17 -98 156 -110 156 -5 0 -150 -112 -322 -250z"
       id="path160"
       style="fill:#66ccff" />
    <path
       d="M835 6368 c-77 -28 -220 -147 -200 -167 6 -5 73 -52 149 -104 l139 -96 35 46 c91 119 97 274 12 318 -33 17 -91 18 -135 3z"
       id="path162"
       style="fill:#66ccff" />
    <path
       d="M534 6084 c-31 -47 -54 -86 -53 -88 22 -15 684 -428 693 -432 10 -4 47 41 99 123 5 8 -105 89 -334 247 -187 130 -342 236 -345 236 -2 0 -30 -39 -60 -86z"
       id="path164"
       style="fill:#66ccff" />
    <path
       d="M1125 6122 c-40 -19 -78 -48 -113 -86 l-52 -58 22 -17 c55 -41 317 -221 323 -221 3 0 23 35 43 78 47 99 51 181 12 251 -47 84 -130 102 -235 53z"
       id="path166"
       style="fill:#66ccff" />
    <path
       d="M6202 6168 c-20 -20 -14 -35 16 -40 15 -3 34 -8 43 -12 23 -10 31 17 13 43 -17 23 -53 28 -72 9z"
       id="path168"
       style="fill:#ff99cc" />
    <path
       d="M6075 6144 c-9 -9 -14 -23 -11 -31 3 -8 6 -17 6 -19 0 -4 25 8 69 33 8 5 -22 33 -35 33 -7 0 -20 -7 -29 -16z"
       id="path170"
       style="fill:#ff99cc" />
    <path
       d="M6130 6083 c-94 -49 -107 -166 -26 -242 20 -19 40 -26 85 -29 56 -4 61 -2 95 29 62 57 59 139 -6 179 -56 35 -128 6 -128 -51 0 -26 22 -59 40 -59 5 0 15 3 24 6 21 8 21 34 0 34 -9 0 -14 7 -12 17 5 25 24 27 48 3 36 -36 5 -90 -51 -90 -41 0 -58 9 -75 42 -35 68 18 148 99 148 29 0 38 3 30 11 -20 20 -86 21 -123 2z"
       id="path172"
       style="fill:#ffff33" />
    <path
       d="M6334 6047 c18 -39 23 -43 35 -31 23 21 3 68 -30 72 l-27 3 22 -44z"
       id="path174"
       style="fill:#ff99cc" />
    <path
       d="M5994 6044 c-16 -23 -16 -26 -1 -42 19 -18 17 -19 40 31 16 36 16 37 -3 37 -11 0 -27 -12 -36 -26z"
       id="path176"
       style="fill:#ff99cc" />
    <path
       d="M6360 5920 c0 -44 16 -52 44 -24 28 27 12 64 -26 64 -14 0 -18 -8 -18 -40z"
       id="path178"
       style="fill:#ff99cc" />
    <path
       d="M5980 5920 c-14 -26 3 -60 30 -60 23 0 24 5 9 49 -13 36 -24 39 -39 11z"
       id="path180"
       style="fill:#ff99cc" />
    <path
       d="M6306 5811 l-28 -29 22 -12 c28 -15 50 2 50 41 0 37 -9 36 -44 0z"
       id="path182"
       style="fill:#ff99cc" />
    <path
       d="M6043 5814 c-14 -36 33 -66 67 -44 13 8 10 14 -15 35 -36 29 -44 30 -52 9z"
       id="path184"
       style="fill:#ff99cc" />
    <path
       d="M6198 5773 c-44 -5 -49 -19 -13 -35 21 -9 28 -8 45 7 20 18 27 37 13 33 -5 -1 -25 -3 -45 -5z"
       id="path186"
       style="fill:#ff99cc" />
    <path
       d="M2467 6062 c-17 -19 -23 -62 -9 -62 5 0 17 7 28 15 10 8 27 15 37 15 23 0 22 27 -2 40 -27 14 -35 13 -54 -8z"
       id="path188"
       style="fill:#33ccff" />
    <path
       d="M2592 6057 c-9 -10 -1 -16 38 -28 54 -17 58 -15 34 19 -17 24 -56 29 -72 9z"
       id="path190"
       style="fill:#33ccff" />
    <path
       d="M2722 5998 c-15 -19 30 -82 46 -66 24 24 8 78 -24 78 -6 0 -16 -6 -22 -12z"
       id="path192"
       style="fill:#33ccff" />
    <path
       d="M2510 5987 c-66 -34 -90 -133 -47 -198 58 -87 171 -91 241 -9 51 61 25 166 -48 190 -69 23 -150 -43 -127 -103 15 -39 47 -52 77 -32 33 21 32 47 -2 43 -35 -4 -42 19 -11 33 62 28 96 -57 41 -100 -39 -30 -80 -27 -116 9 -28 28 -30 36 -25 78 4 36 12 53 36 74 33 29 24 37 -19 15z"
       id="path194"
       style="fill:#ff3300" />
    <path
       d="M2380 5956 c-16 -20 -9 -60 11 -64 10 -2 18 6 21 20 3 13 9 31 13 41 5 13 2 17 -13 17 -11 0 -25 -7 -32 -14z"
       id="path196"
       style="fill:#33ccff" />
    <path
       d="M2770 5863 c0 -10 -3 -29 -7 -41 -5 -21 -3 -23 18 -20 27 3 38 40 19 64 -17 19 -30 18 -30 -3z"
       id="path198"
       style="fill:#33ccff" />
    <path
       d="M2380 5830 c-13 -25 -5 -56 16 -64 24 -9 35 3 24 24 -5 10 -10 28 -10 39 0 27 -16 27 -30 1z"
       id="path200"
       style="fill:#33ccff" />
    <path
       d="M2712 5737 c-31 -32 -32 -35 -13 -40 30 -7 53 14 49 47 l-3 27 -33 -34z"
       id="path202"
       style="fill:#33ccff" />
    <path
       d="M2452 5703 c3 -32 38 -43 64 -22 13 11 11 15 -18 30 -45 24 -50 23 -46 -8z"
       id="path204"
       style="fill:#33ccff" />
    <path
       d="M2560 5677 c0 -37 62 -51 80 -18 15 30 14 31 -35 31 -30 0 -45 -4 -45 -13z"
       id="path206"
       style="fill:#33ccff" />
    <path
       d="M5452 6028 c-25 -25 -2 -55 33 -42 20 8 19 40 -1 48 -20 8 -18 8 -32 -6z"
       id="path208"
       style="fill:#cc99ff" />
    <path
       d="M5372 5978 c-16 -16 -15 -33 3 -48 12 -10 16 -10 19 1 16 47 4 73 -22 47z"
       id="path210"
       style="fill:#cc99ff" />
    <path
       d="M5493 5944 c-3 -8 2 -23 11 -32 15 -15 17 -15 32 -1 14 15 14 18 -1 33 -21 20 -34 20 -42 0z"
       id="path212"
       style="fill:#cc99ff" />
    <path
       d="M5432 5939 c2 -6 8 -10 13 -10 5 0 11 4 13 10 2 6 -4 11 -13 11 -9 0 -15 -5 -13 -11z"
       id="path214"
       style="fill:none" />
    <path
       d="M5415 5880 c-7 -11 20 -60 33 -60 19 1 33 20 30 41 -2 17 -10 25 -30 27 -14 2 -29 -2 -33 -8z"
       id="path216"
       style="fill:#cc99ff" />
    <path
       d="M6015 5480 c-9 -40 -16 -42 -63 -26 -48 17 -52 12 -52 -64 0 -52 19 -115 51 -166 l21 -34 29 30 c26 26 49 34 118 43 24 3 34 64 20 120 -8 35 -23 61 -50 88 -47 47 -65 49 -74 9z"
       id="path218"
       style="fill:#66ff99" />
    <path
       d="M6276 5335 c-22 -8 -55 -30 -74 -49 l-35 -35 31 -36 c31 -34 37 -55 33 -102 -2 -21 3 -23 41 -23 57 1 116 28 156 74 17 20 32 40 32 44 0 4 -19 14 -42 22 -46 16 -48 22 -33 88 7 32 7 32 -31 32 -22 -1 -57 -7 -78 -15z"
       id="path220"
       style="fill:#66ff99" />
    <path
       d="M6053 5215 c-38 -16 -67 -67 -59 -101 15 -58 76 -82 110 -45 25 27 18 75 -11 79 -24 4 -33 -21 -13 -33 13 -8 3 -25 -15 -25 -20 0 -37 37 -30 61 4 11 18 24 31 29 56 22 109 -42 86 -103 -15 -40 -11 -43 21 -11 37 36 36 84 0 123 -34 36 -77 45 -120 26z"
       id="path222"
       style="fill:#ff9900" />
    <path
       d="M5748 5193 c-23 -6 -23 -16 2 -38 26 -24 25 -37 -5 -65 -32 -30 -32 -36 6 -49 73 -25 216 -1 213 37 -1 6 -2 27 -2 46 -2 30 -8 37 -45 55 -41 20 -122 27 -169 14z"
       id="path224"
       style="fill:#66ff99" />
    <path
       d="M6196 5039 c-14 -11 -39 -25 -56 -31 -30 -10 -31 -13 -25 -47 10 -53 54 -129 94 -162 45 -37 61 -37 61 0 0 16 4 41 10 55 9 24 15 26 65 26 55 0 55 0 49 28 -16 66 -69 126 -122 138 -15 3 -32 7 -39 9 -6 2 -23 -5 -37 -16z"
       id="path226"
       style="fill:#66ff99" />
    <path
       d="M5967 5013 c-32 -34 -62 -103 -71 -162 -7 -43 -6 -43 20 -37 80 21 81 20 99 -19 10 -20 21 -33 26 -28 11 11 39 121 39 154 0 49 -13 91 -29 96 -9 2 -24 9 -33 14 -23 12 -21 13 -51 -18z"
       id="path228"
       style="fill:#66ff99" />
    <path
       d="M2456 5484 c-9 -25 10 -41 32 -28 24 15 21 38 -4 42 -13 2 -24 -4 -28 -14z"
       id="path230"
       style="fill:#66ccff" />
    <path
       d="M2549 5450 c-22 -13 -13 -60 12 -60 22 0 41 32 33 54 -7 18 -21 20 -45 6z"
       id="path232"
       style="fill:#66ccff" />
    <path
       d="M2388 5428 c-9 -23 3 -38 29 -38 20 0 24 4 21 23 -3 25 -42 37 -50 15z"
       id="path234"
       style="fill:#66ccff" />
    <path
       d="M2477 5414 c-8 -8 1 -24 14 -24 5 0 9 7 9 15 0 15 -12 20 -23 9z"
       id="path236"
       style="fill:none" />
    <path
       d="M2452 5342 c4 -22 52 -23 56 -1 2 12 -5 16 -28 17 -24 0 -30 -3 -28 -16z"
       id="path238"
       style="fill:#66ccff" />
    <path
       d="M6722 5288 c-5 -8 -6 -22 -2 -34 7 -17 15 -20 34 -17 28 6 35 30 14 51 -15 15 -33 15 -46 0z"
       id="path240"
       style="fill:#ff99cc" />
    <path
       d="M6666 5201 c-10 -16 5 -41 24 -41 25 0 35 18 20 35 -14 17 -36 20 -44 6z"
       id="path242"
       style="fill:#ff99cc" />
    <path
       d="M6808 5180 c-4 -27 -2 -31 16 -28 26 4 30 51 5 56 -12 2 -18 -6 -21 -28z"
       id="path244"
       style="fill:#ff99cc" />
    <path
       d="M6752 5189 c2 -6 8 -10 13 -10 5 0 11 4 13 10 2 6 -4 11 -13 11 -9 0 -15 -5 -13 -11z"
       id="path246"
       style="fill:none" />
    <path
       d="M6724 5125 c-4 -9 -2 -21 4 -27 16 -16 47 -5 47 17 0 26 -42 34 -51 10z"
       id="path248"
       style="fill:#ff99cc" />
    <path
       d="M2392 5058 c-24 -24 -13 -38 28 -38 43 0 45 2 30 31 -12 21 -40 25 -58 7z"
       id="path250"
       style="fill:#ff99cc" />
    <path
       d="M2511 5021 c-12 -8 -8 -15 19 -38 41 -34 54 -35 58 -5 6 43 -38 67 -77 43z"
       id="path252"
       style="fill:#ff99cc" />
    <path
       d="M2275 5004 c-9 -9 -14 -23 -11 -31 3 -8 6 -17 6 -19 0 -3 16 7 35 22 19 14 32 30 29 35 -9 14 -41 10 -59 -7z"
       id="path254"
       style="fill:#ff99cc" />
    <path
       d="M2363 4971 c-49 -23 -73 -55 -80 -110 -13 -92 77 -183 164 -166 41 7 89 50 99 89 23 93 -90 170 -145 100 -26 -33 -26 -46 -3 -67 35 -32 73 -12 40 21 -9 9 -7 13 7 18 18 7 45 -17 45 -41 0 -20 -24 -44 -51 -50 -19 -5 -34 0 -57 20 -43 36 -44 82 -3 127 25 29 35 33 75 32 28 -1 53 -8 64 -17 30 -27 38 -20 11 9 -26 28 -77 54 -106 54 -10 0 -37 -9 -60 -19z"
       id="path256"
       style="fill:#ff66ff" />
    <path
       d="M2222 4904 c-26 -18 -28 -37 -6 -58 24 -25 32 -19 36 25 4 48 -1 54 -30 33z"
       id="path258"
       style="fill:#ff99cc" />
    <path
       d="M2593 4860 c2 -54 13 -59 37 -17 13 23 13 28 -4 46 -28 31 -34 26 -33 -29z"
       id="path260"
       style="fill:#ff99cc" />
    <path
       d="M2230 4786 c-25 -32 7 -87 43 -73 13 5 13 11 -5 46 -11 23 -21 41 -23 41 -1 0 -8 -7 -15 -14z"
       id="path262"
       style="fill:#ff99cc" />
    <path
       d="M2561 4735 c-22 -38 -15 -51 24 -41 28 7 42 41 25 61 -18 22 -26 19 -49 -20z"
       id="path264"
       style="fill:#ff99cc" />
    <path
       d="M2310 4676 c0 -8 10 -22 21 -30 17 -11 26 -12 46 -3 l25 11 -38 17 c-49 22 -54 22 -54 5z"
       id="path266"
       style="fill:#ff99cc" />
    <path
       d="M2468 4666 c-42 -11 -49 -29 -17 -47 18 -9 25 -7 41 9 32 31 20 49 -24 38z"
       id="path268"
       style="fill:#ff99cc" />
    <path
       d="M7032 4824 c-40 -48 -54 -94 -50 -159 l3 -50 44 -7 c49 -8 68 1 106 52 24 32 54 135 43 146 -4 3 -20 -2 -38 -11 -36 -19 -38 -18 -60 32 l-16 36 -32 -39z"
       id="path270"
       style="fill:#ff3300" />
    <path
       d="M6765 4742 c-4 -20 -7 -44 -8 -52 -1 -10 -15 -16 -40 -18 -20 -2 -37 -7 -37 -12 0 -15 64 -63 116 -86 78 -34 97 -34 128 3 25 30 26 34 12 60 -20 40 -84 102 -128 124 l-37 19 -6 -38z"
       id="path272"
       style="fill:#ff3300" />
    <path
       d="M7133 4580 l-31 -10 16 -41 c13 -34 14 -48 3 -87 -11 -44 -11 -47 11 -64 60 -45 162 -42 223 6 l29 23 -27 18 c-34 22 -34 39 -1 78 l27 32 -52 23 c-59 27 -149 37 -198 22z"
       id="path274"
       style="fill:#ff3300" />
    <path
       d="M6955 4555 c-29 -28 -32 -57 -9 -80 22 -21 68 -16 72 9 3 15 0 18 -17 13 -30 -7 -48 18 -22 32 31 17 49 13 67 -14 14 -21 15 -31 6 -51 -23 -50 -91 -56 -132 -12 -23 26 -26 9 -5 -32 18 -35 71 -55 107 -41 70 26 91 120 39 172 -36 36 -73 37 -106 4z"
       id="path276"
       style="fill:#ff9900" />
    <path
       d="M6688 4505 c-40 -15 -88 -44 -88 -54 0 -3 20 -17 45 -30 50 -26 52 -32 30 -84 -8 -20 -15 -41 -15 -46 0 -16 56 -23 99 -11 70 18 142 97 120 131 -5 8 -9 33 -9 55 0 29 -5 44 -16 48 -27 10 -127 5 -166 -9z"
       id="path278"
       style="fill:#ff3300" />
    <path
       d="M7050 4354 c-30 -17 -84 -18 -112 -3 -24 13 -33 4 -49 -55 -13 -48 4 -126 36 -163 l22 -26 35 38 34 38 37 -32 36 -32 17 33 c24 44 24 123 0 176 -21 46 -20 46 -56 26z"
       id="path280"
       style="fill:#ff3300" />
    <path
       d="M1807 4763 c-4 -3 -7 -15 -7 -25 0 -14 6 -19 23 -16 29 4 38 48 9 48 -10 0 -22 -3 -25 -7z"
       id="path282"
       style="fill:#66ccff" />
    <path
       d="M1894 4718 c-26 -12 -21 -58 6 -58 23 0 43 24 38 46 -4 22 -17 25 -44 12z"
       id="path284"
       style="fill:#66ccff" />
    <path
       d="M1734 4696 c-8 -21 3 -36 27 -36 15 0 20 6 17 22 -4 27 -35 37 -44 14z"
       id="path286"
       style="fill:#66ccff" />
    <path
       d="M1820 4675 c0 -9 5 -15 11 -13 6 2 11 8 11 13 0 5 -5 11 -11 13 -6 2 -11 -4 -11 -13z"
       id="path288"
       style="fill:none" />
    <path
       d="M1800 4609 c0 -16 6 -20 28 -17 15 2 27 9 27 17 0 8 -12 15 -27 17 -22 2 -28 -2 -28 -17z"
       id="path290"
       style="fill:#66ccff" />
    <path
       d="M1330 4450 c-25 -25 -27 -55 -2 -45 9 4 27 10 40 12 27 6 29 29 2 43 -15 8 -24 6 -40 -10z"
       id="path292"
       style="fill:#9999cc" />
    <path
       d="M1443 4443 c-7 -2 -13 -9 -13 -14 0 -5 6 -9 13 -9 6 0 24 -7 40 -14 24 -13 27 -13 27 3 0 32 -32 49 -67 34z"
       id="path294"
       style="fill:#9999cc" />
    <path
       d="M1343 4371 c-84 -53 -76 -175 14 -197 57 -15 114 40 87 84 -15 23 -64 29 -64 8 0 -9 5 -16 10 -16 6 0 10 -7 10 -15 0 -24 -39 -18 -51 9 -23 49 33 92 87 67 14 -6 32 -27 40 -47 14 -32 13 -39 -3 -72 -13 -28 -28 -41 -59 -51 -38 -13 -45 -13 -83 6 -46 23 -53 17 -18 -15 87 -82 237 -17 237 103 0 48 -26 102 -61 128 -40 29 -107 33 -146 8z"
       id="path296"
       style="fill:#cc99ff" />
    <path
       d="M1222 4368 c-17 -17 -15 -43 3 -58 9 -7 17 -11 19 -9 6 7 36 68 36 74 0 10 -46 5 -58 -7z"
       id="path298"
       style="fill:#9999cc" />
    <path
       d="M1547 4374 c-3 -3 4 -24 15 -45 16 -32 23 -37 34 -28 17 14 18 51 2 67 -13 13 -41 16 -51 6z"
       id="path300"
       style="fill:#9999cc" />
    <path
       d="M1212 4248 c-17 -17 -15 -54 4 -72 20 -21 38 -21 30 0 -3 9 -6 31 -6 50 0 36 -8 42 -28 22z"
       id="path302"
       style="fill:#9999cc" />
    <path
       d="M1586 4219 c-4 -23 -5 -43 -3 -45 8 -8 47 29 47 45 0 17 -18 41 -31 41 -3 0 -9 -19 -13 -41z"
       id="path304"
       style="fill:#9999cc" />
    <path
       d="M1528 4108 c-16 -16 -28 -31 -28 -34 0 -2 13 -4 30 -4 32 0 54 27 44 54 -8 21 -14 19 -46 -16z"
       id="path306"
       style="fill:#9999cc" />
    <path
       d="M1256 4123 c-13 -13 -5 -51 14 -68 17 -15 24 -16 45 -7 24 11 35 32 16 32 -5 0 -23 11 -39 25 -16 13 -32 22 -36 18z"
       id="path308"
       style="fill:#9999cc" />
    <path
       d="M1418 4062 c-42 -4 -47 -11 -20 -35 24 -22 35 -21 57 3 23 26 11 36 -37 32z"
       id="path310"
       style="fill:#9999cc" />
    <path
       d="M1957 4204 c-16 -16 -5 -32 23 -36 27 -4 31 -2 28 16 -3 21 -37 34 -51 20z"
       id="path312"
       style="fill:#3366ff" />
    <path
       d="M1870 4125 c-17 -21 -5 -45 23 -45 31 0 35 5 29 35 -5 28 -33 33 -52 10z"
       id="path314"
       style="fill:#3366ff" />
    <path
       d="M1965 4129 c-10 -15 3 -25 16 -12 7 7 7 13 1 17 -6 3 -14 1 -17 -5z"
       id="path316"
       style="fill:none" />
    <path
       d="M2031 4130 c-19 -11 -9 -45 14 -45 13 0 21 8 23 21 3 23 -17 37 -37 24z"
       id="path318"
       style="fill:#9999cc" />
    <path
       d="M1962 4068 c-25 -25 -9 -54 23 -42 9 4 15 15 13 27 -4 25 -19 32 -36 15z"
       id="path320"
       style="fill:#3366ff" />
    <path
       d="M6634 3966 c-19 -15 -19 -15 2 -36 19 -19 24 -20 43 -9 25 16 26 23 5 43 -19 20 -25 20 -50 2z"
       id="path322"
       style="fill:#ff3300" />
    <path
       d="M6748 3925 c-9 -9 16 -55 27 -52 16 6 12 51 -5 55 -9 1 -19 0 -22 -3z"
       id="path324"
       style="fill:#ff3300" />
    <path
       d="M6696 3892 c-3 -6 -1 -14 5 -17 15 -10 25 3 12 16 -7 7 -13 7 -17 1z"
       id="path326"
       style="fill:none" />
    <path
       d="M6617 3856 c-7 -19 18 -40 39 -32 8 3 14 14 12 23 -4 22 -43 29 -51 9z"
       id="path328"
       style="fill:#ff3300" />
    <path
       d="M6715 3826 c-11 -8 -16 -19 -12 -30 9 -22 41 -17 45 8 6 27 -11 38 -33 22z"
       id="path330"
       style="fill:#ff3300" />
    <path
       d="M1643 3828 c-68 -73 -52 -211 27 -231 19 -5 45 -17 56 -28 21 -20 21 -20 48 12 51 61 81 151 69 211 l-5 28 -49 -28 -49 -27 -38 43 -37 44 -22 -24z"
       id="path332"
       style="fill:#9999cc" />
    <path
       d="M1376 3658 c8 -23 13 -47 10 -53 -2 -6 -22 -17 -45 -25 -33 -10 -39 -16 -31 -30 20 -37 77 -81 124 -95 72 -22 86 -20 86 10 0 39 25 89 55 111 l27 20 -27 33 c-40 47 -94 71 -159 71 l-55 0 15 -42z"
       id="path334"
       style="fill:#9999cc" />
    <path
       d="M1927 3630 c-59 -22 -157 -95 -157 -116 0 -8 7 -30 14 -49 13 -30 20 -35 49 -35 44 0 123 24 167 51 l34 21 -24 18 c-69 51 -64 43 -46 79 10 18 16 36 14 41 -2 4 -25 0 -51 -10z"
       id="path336"
       style="fill:#9999cc" />
    <path
       d="M1604 3551 c-60 -37 -62 -114 -5 -166 74 -66 200 36 131 105 -36 36 -95 16 -88 -30 5 -34 26 -36 38 -4 13 32 34 20 28 -16 -4 -30 -29 -45 -61 -36 -73 18 -46 136 30 136 32 0 21 16 -17 25 -16 3 -36 -2 -56 -14z"
       id="path338"
       style="fill:#ff3300" />
    <path
       d="M1495 3394 c-68 -35 -104 -97 -105 -178 0 -42 2 -47 18 -41 56 22 68 18 82 -24 7 -23 15 -41 17 -41 15 0 64 34 95 67 35 36 77 113 78 141 0 6 -11 12 -25 12 -34 0 -79 24 -103 55 -23 30 -19 29 -57 9z"
       id="path340"
       style="fill:#9999cc" />
    <path
       d="M1747 3364 c-24 -28 -27 -39 -22 -66 10 -47 48 -109 84 -135 37 -28 41 -28 41 -2 0 43 17 58 60 52 l39 -6 -9 32 c-15 54 -51 102 -99 132 -24 16 -50 29 -55 28 -6 0 -24 -16 -39 -35z"
       id="path342"
       style="fill:#9999cc" />
    <path
       d="M7041 3730 c-35 -35 -44 -70 -39 -155 l3 -60 44 -7 c54 -9 69 2 106 75 48 97 26 177 -49 177 -25 0 -43 -8 -65 -30z"
       id="path344"
       style="fill:#66ff99" />
    <path
       d="M6810 3567 c-56 -28 -29 -111 47 -143 41 -18 53 -18 53 1 0 8 13 30 30 48 l29 34 -27 25 c-52 49 -87 58 -132 35z"
       id="path346"
       style="fill:#66ff99" />
    <path
       d="M7161 3490 c-33 -15 -41 -23 -33 -33 6 -6 12 -28 14 -47 3 -31 8 -37 41 -47 75 -25 167 11 167 63 0 15 -12 38 -29 55 -36 36 -93 39 -160 9z"
       id="path348"
       style="fill:#66ff99" />
    <path
       d="M6969 3451 c-35 -36 -36 -52 -5 -88 21 -25 26 -26 50 -15 31 14 43 39 27 55 -8 8 -15 6 -25 -9 -11 -14 -18 -16 -26 -8 -20 20 6 54 41 54 39 0 58 -37 42 -81 -13 -34 -1 -38 21 -7 30 42 19 91 -25 113 -42 22 -67 18 -100 -14z"
       id="path350"
       style="fill:#ff9900" />
    <path
       d="M6851 3356 c-37 -13 -81 -58 -81 -82 0 -76 91 -78 154 -4 31 37 32 47 7 78 -21 25 -31 26 -80 8z"
       id="path352"
       style="fill:#66ff99" />
    <path
       d="M7107 3314 c-21 -18 -40 -24 -72 -24 -39 0 -45 -3 -51 -25 -15 -61 29 -147 80 -157 34 -7 81 15 102 47 21 33 21 102 0 143 -22 42 -27 44 -59 16z"
       id="path354"
       style="fill:#66ff99" />
    <path
       d="M2436 3684 c-9 -8 -16 -32 -16 -53 0 -30 8 -48 39 -82 37 -42 39 -43 58 -26 11 9 25 17 31 17 27 0 5 100 -30 137 -25 27 -60 30 -82 7z"
       id="path356"
       style="fill:#cc99ff" />
    <path
       d="M2668 3644 c-35 -18 -77 -96 -57 -103 8 -2 28 -20 46 -39 l32 -35 41 40 c34 34 40 47 40 81 0 31 -5 45 -22 56 -28 20 -45 20 -80 0z"
       id="path358"
       style="fill:#cc99ff" />
    <path
       d="M2536 3494 c-32 -31 -9 -95 29 -80 13 5 13 9 3 25 -15 25 -3 39 20 25 21 -14 27 -50 12 -70 -16 -19 -74 -18 -90 1 -17 20 -24 12 -11 -13 6 -10 24 -25 40 -32 58 -24 120 35 106 100 -12 53 -75 78 -109 44z"
       id="path360"
       style="fill:#ff9900" />
    <path
       d="M2318 3485 c-86 -49 -50 -170 54 -182 44 -5 123 12 115 25 -31 58 -38 89 -29 119 12 40 8 43 -61 49 -35 3 -61 0 -79 -11z"
       id="path362"
       style="fill:#cc99ff" />
    <path
       d="M2671 3384 c-13 -43 -12 -46 10 -71 44 -48 110 -83 154 -83 53 0 77 24 77 77 0 67 -85 123 -187 123 -40 0 -41 -1 -54 -46z"
       id="path364"
       style="fill:#cc99ff" />
    <path
       d="M2562 3313 c-39 -4 -45 -8 -58 -38 -8 -19 -14 -55 -14 -80 0 -113 120 -125 150 -14 12 43 -5 140 -23 137 -7 -1 -31 -3 -55 -5z"
       id="path366"
       style="fill:#cc99ff" />
    <path
       d="M6516 3124 c-26 -25 -19 -34 29 -34 25 0 45 4 45 9 0 14 -30 41 -45 41 -7 0 -21 -7 -29 -16z"
       id="path368"
       style="fill:#66cc33" />
    <path
       d="M6407 3108 c-16 -9 -26 -74 -9 -66 33 16 71 45 69 52 -5 15 -42 24 -60 14z"
       id="path370"
       style="fill:#66cc33" />
    <path
       d="M6639 3080 c-11 -8 -8 -15 18 -42 28 -27 33 -29 39 -15 13 35 -27 75 -57 57z"
       id="path372"
       style="fill:#66cc33" />
    <path
       d="M6460 3038 c-127 -66 -94 -248 45 -248 84 0 127 105 63 153 -23 17 -31 19 -53 9 -17 -8 -25 -20 -25 -37 0 -26 18 -33 38 -13 17 17 28 -18 12 -37 -18 -22 -57 -18 -74 7 -23 32 -20 61 9 92 28 31 78 35 114 10 46 -32 60 -111 28 -152 -19 -24 0 -22 22 2 45 47 44 135 -1 183 -53 57 -108 66 -178 31z"
       id="path374"
       style="fill:#ff9900" />
    <path
       d="M6338 3009 c-19 -11 -23 -45 -8 -69 11 -17 12 -16 28 30 13 38 6 54 -20 39z"
       id="path376"
       style="fill:#66cc33" />
    <path
       d="M6706 2938 c4 -24 8 -44 10 -46 1 -2 12 6 24 18 19 19 20 24 7 43 -8 12 -22 23 -31 25 -14 3 -16 -3 -10 -40z"
       id="path378"
       style="fill:#66cc33" />
    <path
       d="M6310 2870 c-8 -15 -6 -24 10 -40 25 -25 55 -27 45 -2 -4 9 -10 27 -12 40 -6 27 -29 29 -43 2z"
       id="path380"
       style="fill:#66cc33" />
    <path
       d="M6672 2812 c-26 -33 -29 -41 -16 -46 29 -11 53 -6 64 13 13 25 13 33 -3 55 -12 16 -15 14 -45 -22z"
       id="path382"
       style="fill:#66cc33" />
    <path
       d="M6395 2782 c-11 -11 -4 -40 14 -56 15 -14 24 -15 40 -6 12 6 21 16 21 23 -1 13 -66 47 -75 39z"
       id="path384"
       style="fill:#66cc33" />
    <path
       d="M6555 2746 l-50 -12 28 -18 c25 -17 29 -17 52 -2 14 9 25 23 25 31 0 8 -1 14 -2 14 -2 -1 -25 -7 -53 -13z"
       id="path386"
       style="fill:#66cc33" />
    <path
       d="M2365 2860 c-11 -4 -28 -17 -39 -29 -27 -29 -18 -103 19 -159 25 -37 30 -41 44 -29 9 8 30 19 46 24 26 8 30 15 33 48 7 83 -51 165 -103 145z"
       id="path388"
       style="fill:#ff66ff" />
    <path
       d="M2580 2735 c-35 -16 -80 -53 -80 -66 0 -3 9 -9 19 -12 25 -6 51 -47 54 -86 2 -27 6 -31 30 -31 72 0 137 52 137 110 0 72 -86 118 -160 85z"
       id="path390"
       style="fill:#ff66ff" />
    <path
       d="M2115 2625 c-54 -53 -12 -131 80 -148 17 -2 59 3 94 12 l64 16 0 42 c0 52 -12 67 -70 87 -72 25 -139 21 -168 -9z"
       id="path392"
       style="fill:#ff66ff" />
    <path
       d="M2430 2627 c-32 -16 -52 -55 -44 -87 8 -38 44 -70 76 -70 30 0 68 31 68 55 0 17 -35 55 -49 55 -20 0 -22 -22 -6 -40 16 -18 16 -20 1 -26 -43 -17 -73 41 -40 77 15 17 27 20 59 16 l40 -6 -24 20 c-27 22 -46 24 -81 6z"
       id="path394"
       style="fill:#ff9900" />
    <path
       d="M2541 2474 c-27 -31 -20 -63 24 -110 40 -42 86 -47 110 -10 30 45 -3 99 -76 130 -35 15 -37 14 -58 -10z"
       id="path396"
       style="fill:#ff66ff" />
    <path
       d="M2350 2438 c-30 -49 -34 -76 -17 -113 18 -38 44 -50 80 -36 34 13 54 46 63 99 5 33 3 42 -8 42 -7 0 -31 9 -53 20 -22 11 -41 20 -42 20 -2 0 -12 -15 -23 -32z"
       id="path398"
       style="fill:#ff66ff" />
    <path
       d="M1750 2785 c-10 -12 -10 -18 0 -29 16 -20 42 -8 38 17 -4 26 -21 32 -38 12z"
       id="path400"
       style="fill:#3366ff" />
    <path
       d="M1850 2782 c-20 -16 -21 -21 -9 -40 16 -25 29 -28 47 -10 16 16 15 43 -2 57 -10 9 -19 7 -36 -7z"
       id="path402"
       style="fill:#3366ff" />
    <path
       d="M1790 2710 c0 -5 7 -10 15 -10 8 0 15 5 15 10 0 6 -7 10 -15 10 -8 0 -15 -4 -15 -10z"
       id="path404"
       style="fill:none" />
    <path
       d="M1712 2688 c4 -30 43 -33 43 -3 0 13 -8 21 -23 23 -20 3 -23 0 -20 -20z"
       id="path406"
       style="fill:#3366ff" />
    <path
       d="M1811 2661 c-23 -6 -23 -7 -7 -24 14 -13 22 -15 37 -6 20 10 22 31 3 35 -5 1 -20 -1 -33 -5z"
       id="path408"
       style="fill:#3366ff" />
    <path
       d="M6913 2634 c-9 -24 19 -46 50 -38 31 7 33 16 11 38 -20 21 -53 20 -61 0z"
       id="path410"
       style="fill:#66cc33" />
    <path
       d="M7028 2585 c-10 -11 5 -55 18 -55 20 0 29 27 14 45 -13 16 -23 19 -32 10z"
       id="path412"
       style="fill:#66cc33" />
    <path
       d="M6970 2550 c0 -5 5 -10 10 -10 6 0 10 5 10 10 0 6 -4 10 -10 10 -5 0 -10 -4 -10 -10z"
       id="path414"
       style="fill:none" />
    <path
       d="M6885 2540 c-8 -13 13 -40 31 -40 17 0 25 15 18 34 -7 18 -39 22 -49 6z"
       id="path416"
       style="fill:#66cc33" />
    <path
       d="M6964 2485 c-8 -19 3 -35 26 -35 19 0 30 17 23 38 -6 17 -42 15 -49 -3z"
       id="path418"
       style="fill:#66cc33" />
    <path
       d="M6425 2430 c-8 -13 3 -50 15 -50 5 0 16 7 25 16 12 12 13 19 4 30 -13 16 -35 18 -44 4z"
       id="path420"
       style="fill:#66ccff" />
    <path
       d="M6504 2379 c-3 -6 1 -18 10 -27 15 -15 17 -15 32 0 9 9 13 21 10 27 -9 14 -43 14 -52 0z"
       id="path422"
       style="fill:#66ccff" />
    <path
       d="M6393 2353 c-18 -6 -16 -50 2 -56 19 -8 26 4 17 35 -4 14 -13 23 -19 21z"
       id="path424"
       style="fill:#66ccff" />
    <path
       d="M6452 2341 c2 -7 7 -12 11 -12 12 1 9 15 -3 20 -7 2 -11 -2 -8 -8z"
       id="path426"
       style="fill:none" />
    <path
       d="M6482 2293 c-21 -15 -22 -17 -6 -34 10 -11 26 -19 36 -19 27 0 34 29 12 50 -17 17 -21 17 -42 3z"
       id="path428"
       style="fill:#66ccff" />
    <path
       d="M2880 2190 c-9 -16 -8 -21 5 -26 23 -9 47 4 43 23 -5 26 -35 28 -48 3z"
       id="path430"
       style="fill:#3366ff" />
    <path
       d="M2791 2187 c-8 -10 -7 -19 4 -33 13 -18 15 -18 31 -2 18 18 13 48 -9 48 -8 0 -20 -6 -26 -13z"
       id="path432"
       style="fill:#3366ff" />
    <path
       d="M2850 2120 c0 -5 7 -10 15 -10 8 0 15 5 15 10 0 6 -7 10 -15 10 -8 0 -15 -4 -15 -10z"
       id="path434"
       style="fill:none" />
    <path
       d="M2912 2100 c-16 -26 -15 -27 7 -40 15 -7 25 -5 43 10 23 20 23 20 4 35 -26 20 -39 19 -54 -5z"
       id="path436"
       style="fill:#3366ff" />
    <path
       d="M2797 2086 c-7 -17 11 -36 35 -36 23 0 23 12 0 33 -23 21 -28 21 -35 3z"
       id="path438"
       style="fill:#3366ff" />
    <path
       d="M2383 1914 c-3 -8 1 -22 9 -30 13 -13 16 -13 27 0 7 9 11 23 7 31 -7 20 -35 19 -43 -1z"
       id="path440"
       style="fill:#3366ff" />
    <path
       d="M2481 1921 c-19 -12 -6 -41 18 -41 26 0 36 17 21 35 -14 17 -20 18 -39 6z"
       id="path442"
       style="fill:#3366ff" />
    <path
       d="M2440 1845 c0 -9 5 -15 11 -13 6 2 11 8 11 13 0 5 -5 11 -11 13 -6 2 -11 -4 -11 -13z"
       id="path444"
       style="fill:none" />
    <path
       d="M2384 1826 c-9 -24 3 -46 25 -46 29 0 30 12 4 39 -20 21 -23 22 -29 7z"
       id="path446"
       style="fill:#3366ff" />
    <path
       d="M2492 1820 c-16 -26 -16 -27 8 -40 14 -8 26 -8 40 0 25 14 26 36 1 50 -27 14 -34 13 -49 -10z"
       id="path448"
       style="fill:#3366ff" />
  </g>
</svg>
