<?xml version="1.0" standalone="no"?>
<!DOCTYPE svg PUBLIC "-//W3C//DTD SVG 20010904//EN"
 "http://www.w3.org/TR/2001/REC-SVG-20010904/DTD/svg10.dtd">
<svg version="1.0" xmlns="http://www.w3.org/2000/svg"
 width="850.000000pt" height="850.000000pt" viewBox="0 0 850.000000 850.000000"
 preserveAspectRatio="xMidYMid meet">
<metadata>
Created by potrace 1.14, written by Peter Selinger 2001-2017
</metadata>
<g transform="translate(0.000000,850.000000) scale(0.100000,-0.100000)"
fill="#000000" stroke="none">
<path d="M6290 7671 c-94 -29 -185 -115 -221 -209 -14 -37 -23 -90 -27 -149
l-5 -93 -53 50 c-33 29 -77 57 -111 70 -57 21 -103 23 -104 5 -1 -12 14 -20
68 -34 52 -14 129 -66 162 -110 23 -31 24 -34 6 -27 -92 38 -104 41 -220 41
-146 0 -210 -16 -355 -87 -91 -45 -117 -64 -195 -142 -50 -51 -107 -120 -128
-156 -135 -233 -165 -511 -85 -785 40 -140 142 -322 249 -445 59 -70 74 -135
65 -285 -10 -159 23 -248 120 -326 87 -69 222 -117 356 -126 81 -5 87 -7 93
-30 3 -13 24 -41 46 -62 l40 -39 -59 -124 c-32 -68 -83 -180 -112 -250 -45
-108 -57 -128 -75 -128 -43 0 -124 -51 -157 -98 -83 -121 -90 -297 -13 -348
l26 -17 -47 -20 c-37 -16 -50 -18 -63 -9 -60 44 -114 51 -176 23 -82 -37 -136
-142 -138 -266 -1 -85 20 -136 73 -174 32 -23 38 -34 54 -103 21 -97 90 -235
153 -309 26 -31 65 -77 85 -102 76 -92 240 -194 443 -276 115 -46 101 -19 131
-251 12 -93 18 -204 18 -360 0 -243 -12 -380 -50 -558 -38 -181 -31 -248 30
-274 32 -14 223 -17 282 -5 29 6 32 4 43 -33 13 -46 53 -80 91 -80 14 0 59 11
98 24 229 78 331 175 390 366 46 149 88 500 98 807 l7 202 46 7 c115 17 203
70 244 148 32 62 28 173 -11 295 -17 52 -29 98 -27 102 3 4 21 10 41 14 66 12
230 72 303 110 83 44 191 139 227 201 14 24 42 57 62 73 48 38 97 121 117 196
31 121 13 261 -56 440 -44 115 -84 177 -128 200 -34 17 -103 20 -131 5 -15 -8
-20 -4 -34 31 l-16 40 30 25 c55 46 64 141 19 198 -17 22 -19 31 -10 63 24 85
8 209 -39 303 -23 47 -25 60 -17 93 13 54 1 116 -36 178 -75 125 -248 147
-362 47 -39 -34 -48 -38 -100 -38 -31 0 -77 -5 -103 -11 -76 -19 -203 -82
-266 -133 -32 -26 -61 -44 -65 -39 -53 64 -82 105 -79 112 2 4 50 46 106 92
57 46 119 97 138 112 l34 29 0 -37 c0 -54 23 -39 35 23 5 28 18 59 28 69 16
16 17 16 17 -6 0 -16 5 -22 18 -19 12 2 18 15 20 45 3 44 32 84 32 44 0 -11 6
-21 14 -21 14 0 26 29 26 63 0 10 29 54 64 97 36 44 70 89 77 101 8 16 13 18
19 9 16 -26 37 -2 44 52 4 29 18 85 31 123 77 226 53 468 -72 720 -121 242
-343 471 -573 589 -131 68 -205 87 -350 93 -133 6 -130 6 -315 -62 -12 -4 -4
9 22 33 47 47 128 76 196 70 32 -2 42 1 45 14 8 40 -132 30 -215 -17 -24 -13
-43 -21 -43 -18 0 24 86 159 133 210 95 101 184 128 268 81 78 -44 75 30 -4
97 -64 55 -162 78 -237 56z m161 -62 c23 -13 22 -14 -26 -20 -66 -8 -107 -30
-173 -93 -59 -56 -98 -108 -137 -183 l-24 -48 -1 51 c0 118 74 243 175 291 40
19 61 23 106 20 31 -3 67 -11 80 -18z m-552 -450 c27 -6 76 -26 108 -46 66
-40 67 -40 226 17 160 57 340 39 522 -53 222 -111 436 -327 554 -557 92 -180
128 -330 118 -498 -8 -141 -17 -152 -38 -48 -29 144 -84 268 -174 391 -22 30
-45 55 -52 55 -27 0 -22 -22 17 -71 109 -139 190 -362 190 -527 0 -48 -6 -67
-36 -117 -43 -72 -126 -184 -136 -185 -5 0 -8 15 -8 33 0 41 -30 160 -60 240
-20 53 -42 78 -56 64 -3 -3 11 -52 30 -109 44 -128 65 -260 46 -283 -19 -23
-30 -18 -30 14 0 81 -71 352 -104 396 -10 13 -18 17 -25 10 -7 -7 3 -48 29
-125 24 -71 46 -161 56 -233 17 -116 16 -119 -3 -138 -20 -20 -20 -19 -32 104
-14 147 -47 292 -95 416 -45 117 -63 151 -81 151 -21 0 -19 -13 19 -98 73
-168 112 -333 122 -513 l7 -115 -99 -86 c-117 -101 -285 -230 -291 -224 -3 2
1 40 7 83 16 100 16 295 1 398 -23 153 -74 315 -98 315 -18 0 -17 -10 26 -168
54 -200 62 -428 21 -619 -11 -49 -16 -55 -68 -88 -31 -19 -59 -35 -62 -35 -4
0 4 31 17 69 48 143 57 206 56 391 0 183 -8 233 -37 238 -15 3 -16 -2 -9 -50
4 -29 7 -127 7 -218 -1 -142 -5 -178 -27 -260 -13 -52 -36 -121 -50 -152 -24
-53 -31 -60 -94 -91 -177 -90 -306 -88 -355 4 -27 51 -23 135 16 295 19 76 40
174 46 216 17 105 9 277 -17 351 l-20 57 60 0 c67 0 175 17 197 30 12 7 11 20
-3 84 -15 72 -15 79 2 119 59 137 73 350 32 502 -24 92 -86 224 -130 275 -27
32 -31 33 -45 20 -14 -14 -12 -21 20 -69 128 -190 165 -432 98 -651 l-17 -55
-13 32 c-11 26 -11 44 2 110 16 82 13 192 -7 268 -21 79 -71 175 -90 175 -25
0 -24 -9 6 -62 34 -60 65 -187 65 -262 0 -69 -10 -136 -19 -136 -3 0 -21 28
-40 61 -39 68 -175 219 -197 219 -37 0 -23 -33 48 -109 40 -44 97 -118 124
-165 60 -100 132 -302 114 -320 -7 -7 -59 -11 -148 -11 -150 1 -229 18 -343
76 -163 82 -307 251 -364 427 -12 37 -22 52 -35 52 -27 0 -29 -19 -10 -75 85
-249 294 -442 553 -510 l82 -22 24 -59 c19 -47 25 -82 29 -174 5 -124 -6 -197
-59 -415 -16 -66 -29 -139 -29 -162 l0 -43 -53 0 c-64 0 -190 31 -263 64 -64
29 -138 96 -167 151 -20 36 -22 53 -20 175 3 165 -10 233 -82 428 -83 225
-101 327 -74 427 17 62 16 89 -2 93 -12 2 -22 -11 -35 -45 -29 -74 -25 -234 8
-335 32 -97 20 -93 -22 8 -54 131 -72 267 -49 388 7 42 7 62 0 69 -19 19 -29
-4 -41 -90 -10 -76 -4 -179 16 -263 13 -58 -16 11 -40 92 -73 254 -42 522 85
734 46 77 147 184 217 230 161 108 374 157 531 123z m1695 -2029 c50 -24 93
-86 102 -147 3 -24 4 -46 1 -49 -2 -3 -20 9 -38 26 -68 62 -200 130 -253 130
-33 0 -25 22 16 40 55 25 121 25 172 0z m-149 -102 c123 -40 223 -129 278
-246 29 -62 32 -75 32 -167 0 -84 -4 -107 -23 -142 -19 -36 -55 -73 -72 -73
-3 0 -5 42 -5 93 0 82 -3 99 -31 157 -109 230 -399 305 -672 174 -41 -20 -75
-34 -77 -32 -1 2 -10 17 -19 35 l-16 32 52 45 c84 73 213 133 323 150 53 8
168 -5 230 -26z m-726 -74 c19 -24 32 -46 30 -48 -2 -1 -41 -11 -86 -22 -89
-21 -91 -20 -73 32 9 24 71 81 90 83 3 0 20 -20 39 -45z m-182 -85 c-8 -20
-26 -38 -52 -51 -22 -11 -62 -37 -90 -57 l-50 -36 24 40 c13 22 30 46 37 54
12 14 124 80 136 81 3 0 1 -14 -5 -31z m278 -69 l25 -50 -83 0 c-187 0 -354
-87 -448 -233 -45 -69 -55 -95 -110 -289 -23 -82 -47 -148 -52 -148 -6 0 -8
40 -4 108 6 121 35 226 89 322 48 85 188 218 278 265 82 42 183 73 242 74 35
1 39 -2 63 -49z m599 6 c135 -66 208 -179 208 -319 0 -38 -3 -72 -7 -75 -11
-11 -43 40 -56 88 -33 120 -114 223 -219 277 -49 25 -65 28 -155 28 -89 0
-107 -3 -160 -28 -33 -16 -70 -37 -82 -49 -23 -22 -43 -17 -43 11 0 12 23 29
78 54 105 49 140 57 259 53 95 -2 108 -5 177 -40z m-1089 -42 c-9 -14 -14 -35
-11 -47 4 -15 -8 -35 -42 -72 -135 -149 -199 -359 -174 -565 11 -91 11 -93
-14 -126 -46 -60 -161 -118 -278 -139 -36 -7 -38 -6 -31 14 3 11 8 33 9 47 2
16 14 33 29 42 31 19 52 63 43 94 -3 14 3 40 15 65 18 38 19 44 6 76 -8 19
-25 41 -37 50 l-23 16 23 58 c41 103 97 228 151 337 48 97 54 106 80 106 l28
0 -54 -112 c-56 -119 -109 -267 -103 -293 8 -38 26 -11 60 91 20 60 60 155 88
211 l51 101 67 21 c37 12 78 28 92 36 37 21 44 18 25 -11z m1000 -36 c93 -48
154 -130 189 -250 20 -70 49 -105 101 -122 l40 -14 122 -278 c164 -373 186
-440 187 -570 1 -96 0 -103 -36 -176 -70 -141 -210 -242 -427 -307 -167 -51
-143 -63 -195 101 -114 361 -195 684 -285 1134 -34 164 -68 321 -76 349 l-15
49 33 33 c18 19 60 45 92 59 81 34 195 30 270 -8z m-473 -39 c9 -5 19 -17 22
-26 2 -10 14 -49 25 -88 11 -38 47 -205 80 -370 33 -165 72 -345 85 -400 25
-103 24 -114 -16 -115 -12 0 -19 14 -27 51 -15 68 -49 267 -53 304 -2 19 -9
31 -20 33 -24 5 -23 -16 8 -195 42 -236 43 -209 -11 -217 -58 -7 -133 -8 -160
0 l-21 5 23 90 c36 144 46 249 40 419 -7 185 -23 265 -52 265 -23 0 -24 -9 -5
-140 16 -111 8 -361 -13 -460 -67 -301 -203 -541 -426 -750 -128 -120 -329
-238 -461 -271 -84 -21 -181 -15 -246 16 -80 38 -166 135 -218 242 -69 144
-84 268 -48 386 50 158 144 227 389 282 341 77 406 138 504 475 35 121 77 216
114 255 13 14 25 36 27 50 4 33 107 111 183 139 102 38 225 47 277 20z m932
-285 c12 -31 6 -72 -15 -98 -11 -14 -23 -26 -27 -26 -4 0 -15 18 -24 41 l-17
40 32 29 c37 34 43 36 51 14z m-1984 -234 c45 -24 45 -90 1 -90 -28 0 -33 -25
-10 -51 10 -12 19 -27 19 -34 0 -16 -30 -42 -55 -47 -15 -3 -20 -11 -19 -33 4
-77 -39 -125 -99 -110 -41 11 -60 40 -65 100 -8 101 47 218 121 254 46 23 78
26 107 11z m2133 -71 c60 -46 145 -283 154 -425 5 -76 2 -103 -16 -160 -11
-38 -30 -80 -40 -94 l-20 -25 6 56 c11 111 -23 239 -133 491 -36 83 -63 157
-60 165 8 21 79 16 109 -8z m-2497 -384 c21 -14 20 -15 -26 -63 -58 -61 -98
-140 -113 -226 -6 -37 -16 -65 -21 -63 -6 2 -20 19 -31 38 -34 59 -21 187 28
260 39 59 119 86 163 54z m1700 -196 c19 -68 36 -134 40 -145 4 -16 0 -23 -18
-28 -37 -9 -206 -7 -277 5 -71 11 -231 59 -231 68 0 3 7 14 14 24 12 16 16 16
57 1 96 -34 268 -55 313 -38 9 3 16 12 16 20 0 11 -17 14 -74 14 -80 0 -153
11 -232 36 l-51 16 24 61 24 62 122 1 c76 1 141 7 172 17 28 8 54 14 59 13 5
-1 24 -58 42 -127z m-450 -169 c98 -34 190 -52 307 -59 l111 -6 35 -97 c32
-88 50 -114 65 -90 3 5 -10 49 -28 98 -18 49 -32 92 -29 97 2 4 15 7 27 7 20
0 26 -9 40 -59 9 -32 48 -155 87 -272 81 -250 97 -325 80 -387 -38 -138 -176
-179 -569 -169 -334 8 -587 65 -884 197 -105 46 -245 127 -266 153 -24 29 94
-6 198 -58 278 -140 547 -210 846 -222 116 -5 153 -3 159 7 14 22 -18 30 -129
30 -193 0 -436 46 -631 120 -112 42 -264 112 -265 121 0 3 24 11 54 18 77 17
256 110 351 181 110 82 244 218 318 323 34 48 62 87 63 87 0 0 27 -9 60 -20z
m-497 -891 c39 -14 48 -31 99 -189 103 -318 152 -632 152 -970 0 -139 -6 -170
-31 -170 -4 0 -5 71 -2 158 6 162 -6 338 -33 497 -19 115 -22 125 -40 125 -18
0 -18 -18 1 -116 8 -44 19 -123 25 -176 11 -106 14 -441 4 -451 -4 -4 -21 13
-39 36 -40 52 -90 92 -151 118 -35 16 -44 25 -39 37 14 37 35 217 46 383 11
191 1 443 -26 623 -8 55 -15 101 -15 103 0 6 17 3 49 -8z m239 -59 c154 -29
269 -40 415 -40 l127 0 0 -107 c0 -151 -17 -407 -41 -617 -11 -98 -18 -180
-15 -183 27 -28 51 95 71 372 4 44 8 94 10 110 2 17 7 119 11 228 l7 197 30 0
30 0 -6 -195 c-11 -324 -51 -643 -101 -801 -27 -83 -66 -153 -108 -192 l-26
-23 -33 31 c-64 58 -114 75 -216 75 l-93 0 0 95 c0 298 -74 719 -175 999 -29
80 -30 85 -10 77 8 -3 63 -15 123 -26z m-256 -1131 c47 -24 138 -113 138 -135
0 -11 -16 -14 -72 -14 -101 0 -122 13 -126 75 -3 48 4 95 14 95 2 0 23 -9 46
-21z m517 -79 c23 -11 56 -31 72 -45 l30 -24 -58 -29 c-68 -34 -175 -72 -203
-72 -35 0 -53 43 -47 112 3 34 11 64 19 69 25 17 141 9 187 -11z"/>
<path d="M5525 6150 c-3 -5 -2 -17 3 -26 18 -32 117 -125 170 -161 100 -66
262 -116 262 -80 0 11 -15 20 -42 27 -127 32 -249 106 -329 199 -45 53 -54 58
-64 41z"/>
<path d="M5434 5821 c-33 -20 -74 -67 -74 -84 0 -6 10 -1 23 11 19 18 85 52
102 52 3 0 -2 -11 -11 -25 -36 -55 9 -211 83 -287 41 -42 89 -56 123 -38 27
15 50 68 50 117 -1 34 -6 54 -35 128 -4 11 18 -5 49 -35 31 -30 56 -51 56 -48
0 4 -10 24 -22 45 -69 121 -154 183 -253 183 -41 0 -70 -6 -91 -19z m114 -67
c31 -22 26 -63 -10 -83 -24 -14 -28 -14 -47 3 -27 25 -27 61 1 80 28 20 28 20
56 0z m12 -119 c10 -12 10 -18 0 -30 -25 -30 -61 -7 -46 30 3 8 12 15 19 15 8
0 20 -7 27 -15z"/>
<path d="M7220 4245 c0 -8 9 -15 20 -15 11 0 20 7 20 15 0 8 -9 15 -20 15 -11
0 -20 -7 -20 -15z"/>
<path d="M7263 4140 c-39 -17 -60 -50 -32 -50 23 0 109 44 106 54 -6 18 -29
16 -74 -4z"/>
<path d="M7333 4042 c-143 -62 -167 -77 -139 -88 11 -4 69 15 154 51 141 60
162 71 162 86 0 19 -51 5 -177 -49z"/>
<path d="M7535 3965 c-60 -18 -173 -56 -250 -83 -161 -56 -154 -44 -117 -182
10 -41 29 -114 41 -163 53 -219 175 -348 330 -348 182 -1 315 187 282 399 -21
133 -136 414 -169 412 -4 -1 -56 -16 -117 -35z m139 -92 c99 -198 126 -374 74
-483 -31 -64 -41 -77 -88 -112 -89 -67 -194 -55 -282 33 -79 79 -102 141 -175
465 -6 25 10 32 248 109 79 26 149 48 154 50 27 9 37 0 69 -62z"/>
<path d="M7540 3819 c-25 -11 -94 -34 -155 -51 -116 -32 -136 -41 -119 -58 22
-22 346 81 352 113 5 22 -21 21 -78 -4z"/>
<path d="M6666 4108 c-2 -7 -7 -52 -10 -100 -16 -232 -108 -485 -246 -676 -33
-46 -60 -88 -60 -93 0 -27 40 3 86 65 105 139 201 361 238 551 21 104 26 256
9 262 -7 3 -15 -1 -17 -9z"/>
<path d="M5555 3628 c-40 -21 -107 -94 -133 -143 -23 -43 -27 -62 -27 -140 0
-79 4 -96 28 -142 15 -29 31 -53 37 -53 20 0 20 21 -1 62 -26 51 -36 155 -20
214 14 53 60 116 114 155 41 30 52 49 32 55 -5 2 -19 -2 -30 -8z"/>
<path d="M6062 2733 c9 -47 447 -168 482 -133 17 17 -5 27 -93 40 -98 14 -225
49 -306 85 -67 29 -88 31 -83 8z"/>
<path d="M6870 2298 c-1 -1 -2 -93 -4 -203 -2 -125 -10 -235 -20 -294 -11 -65
-13 -98 -6 -105 19 -19 28 7 44 119 29 213 28 473 -1 483 -7 2 -13 2 -13 0z"/>
<path d="M6120 1235 c0 -8 6 -15 14 -15 8 0 29 -12 46 -26 24 -21 34 -24 43
-15 9 10 5 19 -21 42 -35 31 -82 39 -82 14z"/>
<path d="M6532 1143 c3 -13 12 -17 34 -15 17 2 43 -2 59 -8 20 -8 31 -8 39 0
19 20 -23 40 -82 40 -46 0 -53 -3 -50 -17z"/>
<path d="M4129 6544 c-12 -14 -11 -19 6 -30 60 -40 63 -27 -40 -178 l-95 -139
0 115 c0 109 1 116 21 121 13 4 20 12 17 24 -3 16 -20 19 -162 26 -87 5 -165
6 -173 3 -22 -9 -11 -39 17 -46 l25 -6 3 -221 2 -220 -85 44 c-85 44 -120 51
-120 23 0 -12 55 -51 89 -63 14 -5 -30 -71 -67 -103 -56 -47 -126 -74 -193
-74 l-62 0 -6 53 c-3 28 -13 164 -22 301 -19 278 -22 260 57 271 83 12 189
-34 246 -105 38 -47 37 -55 -7 -73 -38 -15 -52 -38 -30 -52 15 -9 177 44 183
60 8 19 -15 35 -40 29 -16 -5 -25 1 -36 23 -8 15 -31 45 -51 65 -170 175 -451
119 -559 -110 -27 -59 -31 -78 -31 -152 0 -111 32 -187 110 -260 79 -75 129
-94 244 -95 85 0 101 3 148 28 65 34 122 85 146 130 16 28 24 33 52 33 l34 -1
0 -61 c0 -53 -3 -62 -20 -67 -12 -3 -20 -14 -20 -26 0 -20 4 -21 160 -21 151
0 160 1 160 19 0 11 -9 22 -20 26 -18 6 -19 13 -14 141 4 122 15 174 35 174 5
0 100 -208 136 -297 2 -6 -6 -13 -19 -15 -15 -2 -23 -10 -23 -23 0 -18 9 -21
100 -26 55 -4 157 -7 228 -8 120 -1 127 0 127 19 0 19 -11 24 -64 32 -16 2
-166 195 -356 459 l-19 26 45 65 46 65 39 -21 c33 -18 41 -19 48 -7 5 8 7 19
5 25 -4 10 -165 116 -177 116 -2 0 -11 -7 -18 -16z m-216 -114 l37 0 0 -234
c0 -128 -3 -261 -6 -295 l-7 -61 -68 0 -69 0 0 301 0 302 38 -7 c20 -3 54 -6
75 -6z m-693 -47 c1 -10 9 -135 19 -278 11 -143 18 -261 16 -263 -6 -7 -81 46
-112 79 -112 118 -104 320 17 438 46 45 60 50 60 24z m1210 -545 c0 -10 -66
-10 -146 -2 l-59 6 -79 183 -79 183 23 32 22 31 159 -213 c87 -117 158 -216
159 -220z"/>
<path d="M1775 6483 c-116 -4 -135 -9 -135 -33 0 -11 7 -20 15 -20 13 0 15
-24 15 -157 0 -87 1 -221 3 -298 2 -137 2 -140 -19 -137 -26 3 -52 -24 -36
-40 7 -7 94 -9 269 -7 l259 4 59 30 c46 24 64 40 83 75 43 82 12 181 -74 232
l-34 20 32 21 c73 51 96 129 60 210 -28 63 -76 87 -201 98 -53 4 -121 8 -151
7 -30 -1 -95 -3 -145 -5z m85 -206 c0 -90 -3 -225 -7 -300 l-6 -137 -57 0 -57
0 -7 77 c-3 42 -6 174 -6 294 l0 218 63 4 c34 2 65 4 70 5 4 1 7 -72 7 -161z
m173 157 l38 -7 -3 -121 -3 -121 -77 -3 -78 -3 0 124 c0 68 3 127 7 130 8 9
66 9 116 1z m158 -30 c51 -26 64 -120 22 -167 -15 -17 -71 -47 -88 -47 -3 0
-5 54 -5 121 0 134 -3 131 71 93z m-133 -279 c9 -3 12 -37 12 -122 0 -170 4
-163 -91 -163 l-79 0 0 58 c0 33 3 100 6 149 l7 90 66 -4 c36 -3 72 -6 79 -8z
m155 -53 c71 -64 58 -161 -28 -202 -72 -35 -75 -32 -75 69 0 48 3 109 6 134
l7 46 35 -15 c20 -8 45 -22 55 -32z"/>
<path d="M2650 6480 c-157 -5 -165 -6 -165 -25 0 -17 8 -20 48 -23 33 -2 47
-7 44 -15 -2 -7 -50 -139 -107 -294 l-102 -282 -52 -3 c-43 -3 -51 -6 -51 -23
0 -19 7 -20 120 -20 113 0 120 1 120 20 0 16 -8 21 -42 23 -24 2 -43 4 -43 5
0 2 10 30 23 62 l23 60 138 0 138 0 19 -60 c10 -33 19 -61 19 -62 0 -1 -19 -3
-42 -5 -35 -2 -43 -7 -43 -23 0 -19 8 -20 204 -23 206 -2 236 2 224 34 -3 9
-21 14 -52 14 l-46 0 -108 294 c-59 161 -107 296 -107 300 0 3 11 6 25 6 18 0
25 5 25 19 0 17 -22 34 -38 29 -4 -1 -81 -5 -172 -8z m209 -332 c57 -156 106
-289 108 -295 4 -10 -13 -13 -64 -13 l-70 0 -88 288 c-48 158 -89 290 -92 295
-2 4 20 7 50 7 l53 0 103 -282z m-189 54 c28 -88 50 -165 50 -171 0 -7 -40
-11 -115 -11 -63 0 -115 3 -115 6 0 14 123 344 127 341 2 -2 26 -77 53 -165z"/>
<path d="M3225 5548 c-3 -24 -5 -77 -3 -118 3 -67 5 -75 23 -75 17 0 20 8 23
58 l3 57 79 0 80 0 0 -295 0 -295 -25 0 c-27 0 -44 -25 -29 -40 10 -10 351
-30 372 -22 24 9 8 37 -23 40 -17 2 -33 7 -36 10 -4 4 -10 139 -14 300 l-7
292 81 0 80 0 3 -47 c3 -40 6 -48 23 -48 19 0 20 5 16 100 -2 55 -8 103 -14
107 -19 12 -37 -4 -37 -35 l0 -30 -167 6 c-91 4 -215 7 -275 7 -107 0 -109 0
-108 23 4 39 0 47 -19 47 -16 0 -21 -9 -26 -42z m389 -86 c2 -4 8 -139 12
-300 l7 -293 -74 3 -74 3 -3 285 c-1 157 0 290 3 297 5 14 120 19 129 5z"/>
<path d="M4106 5524 c-69 -22 -165 -118 -197 -199 -20 -50 -24 -78 -24 -170 0
-100 3 -116 29 -173 61 -131 187 -195 340 -170 124 19 230 100 284 216 23 49
27 70 27 152 0 88 -3 101 -33 162 -79 161 -252 235 -426 182z m213 -49 c5 -6
11 -139 13 -299 l4 -289 -31 -13 c-45 -18 -131 -29 -139 -16 -3 6 -24 126 -46
269 -22 142 -42 273 -45 291 -6 31 -3 34 37 53 34 15 60 19 120 17 42 -2 81
-8 87 -13z m120 -81 c109 -124 107 -310 -5 -434 l-39 -43 -7 44 c-10 68 -9
479 1 479 5 0 28 -21 50 -46z m-409 4 c0 -7 18 -128 40 -268 21 -140 37 -257
34 -259 -7 -7 -50 16 -87 48 -101 89 -117 315 -30 449 28 42 43 53 43 30z"/>
<path d="M2770 4601 c-97 -31 -184 -114 -221 -209 -32 -82 -32 -243 -1 -323
69 -175 256 -241 448 -159 67 29 146 110 180 183 25 54 29 74 29 157 0 82 -4
103 -27 152 -34 72 -93 137 -160 173 -45 25 -66 29 -138 32 -47 1 -96 -1 -110
-6z m193 -51 c2 -3 7 -138 10 -301 l5 -297 -37 -10 c-71 -21 -130 -25 -136
-11 -2 8 -23 133 -45 279 -22 146 -42 275 -45 288 -5 19 1 26 37 43 34 15 60
19 125 17 45 -2 83 -5 86 -8z m109 -77 c66 -69 83 -115 83 -223 0 -84 -3 -101
-27 -145 -14 -27 -42 -65 -61 -83 l-35 -34 -4 49 c-9 88 -9 473 0 473 4 0 24
-17 44 -37z m-362 -263 c22 -145 38 -265 35 -268 -10 -11 -83 38 -112 77 -82
106 -82 310 -1 422 16 22 31 39 33 37 3 -2 23 -123 45 -268z"/>
<path d="M3483 4589 c-75 -29 -146 -97 -185 -177 -30 -61 -33 -74 -33 -162 0
-82 4 -103 27 -152 101 -218 385 -294 552 -148 113 100 140 326 58 486 -28 54
-93 118 -150 146 -67 33 -196 36 -269 7z m235 -49 c39 -18 43 -22 38 -47 -3
-16 -24 -146 -45 -290 -22 -145 -43 -268 -46 -274 -9 -13 -95 -3 -144 17 l-34
14 7 77 c3 42 6 172 6 290 0 212 0 214 23 223 41 16 149 11 195 -10z m-263
-77 c6 -44 1 -245 -11 -402 l-6 -73 -34 33 c-85 82 -117 229 -75 340 20 52 92
149 111 149 4 0 11 -21 15 -47z m388 -25 c86 -133 71 -360 -30 -449 -32 -28
-81 -54 -89 -47 -1 2 15 118 37 258 21 140 39 261 39 268 0 23 15 12 43 -30z"/>
<path d="M569 4587 c-118 -44 -179 -166 -135 -270 18 -44 78 -95 122 -103 40
-7 168 0 198 12 20 8 20 6 -1 -230 l-6 -69 -63 6 c-73 5 -164 45 -187 80 -8
13 -20 40 -25 59 -12 42 -4 48 57 48 47 0 80 22 63 42 -10 12 -27 12 -118 1
-59 -7 -112 -17 -117 -22 -15 -15 12 -42 36 -39 16 2 22 -6 31 -43 18 -69 49
-104 124 -141 63 -31 72 -33 172 -32 90 0 113 4 160 26 169 77 200 278 54 349
-41 19 -56 21 -138 15 -50 -3 -103 -9 -117 -12 l-26 -6 -7 114 c-4 62 -9 128
-12 146 l-6 32 46 0 c77 0 162 -47 199 -109 21 -36 17 -39 -53 -43 -37 -3 -45
-6 -45 -23 0 -19 6 -20 95 -17 121 3 142 8 138 30 -2 11 -15 18 -36 20 -24 3
-35 10 -43 28 -17 46 -57 88 -114 123 -49 30 -67 35 -133 38 -48 2 -90 -2
-113 -10z m25 -192 c11 -129 11 -135 -7 -135 -89 0 -146 113 -99 197 17 33 81
87 90 78 3 -3 10 -66 16 -140z m327 -182 c30 -18 59 -67 59 -101 0 -57 -49
-123 -115 -153 -66 -30 -68 -28 -62 49 4 37 9 102 13 145 l6 77 35 0 c19 0 48
-8 64 -17z"/>
<path d="M1280 4585 c-105 -33 -204 -132 -235 -238 -64 -216 69 -429 292 -468
117 -21 255 39 329 141 28 39 40 48 62 47 21 -2 27 3 27 18 0 14 -22 31 -83
63 -45 24 -89 41 -97 38 -28 -10 -15 -36 30 -58 25 -12 45 -27 45 -33 0 -39
-92 -124 -168 -155 -32 -13 -146 -20 -155 -10 -9 11 -44 595 -36 605 15 15
133 18 176 5 52 -18 107 -56 137 -95 36 -47 35 -56 -4 -70 -23 -8 -36 -19 -38
-33 -4 -28 8 -28 108 4 63 20 81 29 78 42 -2 11 -13 17 -30 17 -22 1 -35 12
-59 49 -80 121 -237 175 -379 131z m-25 -358 c10 -147 15 -270 12 -273 -18
-18 -120 74 -155 140 -23 44 -27 63 -27 141 0 71 5 100 22 137 23 51 111 144
123 131 4 -4 15 -129 25 -276z"/>
<path d="M2399 4596 c-3 -3 -56 -6 -119 -7 -115 -1 -155 -10 -147 -32 2 -6 14
-14 28 -17 23 -6 24 -10 27 -93 l3 -87 -38 0 c-21 0 -62 3 -90 6 l-53 7 0 78
c0 60 3 79 14 79 20 0 36 24 27 39 -6 9 -49 13 -167 14 -143 2 -159 0 -162
-15 -2 -11 5 -19 21 -23 23 -6 24 -12 30 -103 4 -53 7 -188 7 -299 l0 -202
-27 -3 c-32 -3 -43 -34 -16 -41 10 -3 88 -3 173 1 146 7 155 8 155 27 0 14 -8
21 -27 23 l-28 3 0 186 0 186 53 -7 c28 -3 69 -6 90 -6 l37 0 0 -180 0 -180
-24 0 c-27 0 -48 -20 -38 -36 10 -16 326 -26 341 -11 17 17 13 27 -14 37 l-25
10 0 300 0 300 24 0 c30 0 42 16 26 35 -11 14 -71 21 -81 11z m-21 -650 c-2
-1 -33 0 -70 2 l-68 4 0 293 0 294 68 3 67 3 3 -299 c1 -164 1 -300 0 -300z
m-414 572 c0 -10 -1 -142 -2 -293 l-2 -275 -65 0 -65 0 0 198 c0 108 -3 241
-7 295 l-6 98 74 -3 c63 -3 74 -6 73 -20z"/>
<path d="M3944 4566 c-9 -23 4 -36 35 -36 l28 0 6 -137 c4 -75 7 -207 7 -295
l0 -158 -24 0 c-29 0 -48 -21 -36 -39 8 -14 99 -11 483 15 l87 7 0 -42 c0 -34
3 -41 19 -41 10 0 22 7 25 16 3 9 6 81 6 161 0 144 0 144 -22 141 -22 -3 -23
-8 -26 -94 l-3 -91 -61 -7 c-33 -3 -92 -6 -129 -6 l-69 0 0 284 0 285 28 3
c19 2 27 9 27 23 0 19 -8 20 -188 23 -158 2 -188 0 -193 -12z m276 -325 l0
-289 -67 -4 c-38 -2 -71 -1 -74 2 -4 3 -10 134 -14 293 l-7 287 81 0 81 0 0
-289z"/>
<path d="M3480 3469 c-6 -22 -10 -75 -9 -117 l2 -77 -94 -16 c-118 -20 -189
-51 -233 -99 -45 -50 -59 -97 -54 -183 3 -57 11 -88 40 -149 l37 -77 -77 -47
c-131 -79 -280 -188 -291 -212 -19 -40 -13 -106 12 -143 29 -42 102 -98 138
-106 16 -3 29 -8 29 -12 0 -3 -17 -17 -36 -31 -109 -76 -129 -127 -90 -221 6
-13 -5 -20 -56 -34 -170 -47 -220 -67 -260 -103 -50 -45 -68 -85 -68 -152 0
-97 64 -180 241 -311 199 -146 378 -251 554 -322 203 -83 231 -88 446 -86 110
1 195 -3 200 -8 5 -5 15 -38 23 -74 15 -75 39 -91 59 -40 l11 31 28 -26 c17
-17 33 -24 44 -20 14 5 15 16 9 80 l-6 73 98 7 c93 6 224 22 396 47 49 7 81
17 84 25 3 8 -29 68 -71 133 -71 111 -76 122 -76 173 0 30 5 69 11 86 9 27 17
32 54 38 24 3 52 12 62 19 17 13 16 19 -24 99 -24 48 -43 88 -43 90 0 1 36 11
80 21 123 28 127 33 58 98 l-58 53 0 70 c0 98 6 112 47 120 19 4 37 13 40 20
3 8 -23 44 -61 85 -36 39 -66 74 -66 78 0 3 34 31 75 60 41 30 75 61 75 69 0
7 -31 27 -70 44 -73 32 -76 36 -64 98 5 24 18 39 55 62 27 16 49 36 49 44 0
19 -100 65 -210 97 -47 13 -185 46 -308 72 -188 41 -222 51 -216 64 32 73 47
134 47 198 0 93 -36 172 -101 218 -41 28 -50 30 -130 30 -48 0 -120 -4 -159
-9 -85 -9 -88 -5 -52 74 20 43 20 45 2 55 -10 6 -34 27 -54 48 -20 20 -41 37
-47 37 -6 0 -16 -18 -22 -41z m57 -125 l-15 -49 -1 65 c-1 59 0 63 15 48 14
-14 14 -20 1 -64z m360 -101 c72 -34 114 -146 93 -247 -13 -62 -95 -236 -142
-302 -49 -69 -69 -78 -188 -85 -58 -4 -137 -10 -175 -14 -62 -7 -76 -5 -113
14 -110 56 -231 256 -232 383 0 141 76 200 286 224 61 6 61 6 72 -22 5 -16 13
-37 18 -48 6 -17 3 -18 -32 -12 -76 12 -79 12 -79 -9 0 -29 66 -50 128 -41 58
9 141 62 145 94 5 35 -22 36 -58 2 -29 -27 -35 -29 -42 -15 -5 8 -8 28 -6 43
3 26 7 28 83 38 122 17 202 16 242 -3z m313 -499 c217 -47 347 -81 409 -107
l34 -14 -197 -119 -198 -118 -396 48 c-219 26 -512 61 -652 78 -140 16 -257
32 -259 34 -6 6 -7 5 124 89 l119 76 20 -28 c31 -43 94 -100 134 -120 42 -20
101 -22 303 -7 111 9 131 13 166 36 37 24 90 94 135 177 9 17 23 29 30 26 7
-2 110 -25 228 -51z m363 -297 c3 -34 9 -70 12 -79 7 -19 -61 -70 -236 -177
-129 -79 -133 -78 -133 14 0 85 21 108 189 212 83 50 153 92 156 92 3 1 9 -27
12 -62z m-1014 -27 c321 -39 591 -70 600 -70 36 -1 44 -15 26 -50 -20 -39 -23
-146 -5 -179 6 -13 9 -25 5 -29 -3 -3 -72 4 -153 16 -334 52 -952 154 -1014
168 -106 25 -178 87 -180 155 -2 48 32 72 91 65 25 -4 309 -38 630 -76z m1120
-46 c1 -1 0 -7 -4 -13 -10 -18 -32 -12 -38 9 -4 18 -2 20 16 14 12 -3 24 -8
26 -10z m-1314 -209 c430 -70 775 -124 840 -131 59 -6 62 -5 140 43 44 27 111
70 150 96 l70 47 46 -52 c26 -29 46 -55 44 -56 -2 -2 -64 -17 -138 -32 -141
-30 -401 -98 -477 -125 -41 -14 -48 -14 -104 4 -191 63 -536 151 -772 198 -76
15 -141 29 -144 31 -11 8 35 31 54 27 12 -3 143 -25 291 -50z m-211 -56 c181
-37 483 -112 657 -164 l127 -37 -23 -35 c-36 -52 -48 -99 -43 -168 l5 -61
-146 38 c-370 98 -691 205 -769 255 -77 50 -100 135 -48 179 35 31 58 30 240
-7z m1448 -136 c-3 -53 1 -93 12 -123 8 -24 14 -45 13 -46 -1 -1 -78 -16 -172
-34 -93 -17 -248 -47 -344 -66 -96 -18 -178 -31 -183 -28 -15 9 -8 98 11 140
10 23 32 50 47 61 43 29 241 85 589 166 11 3 22 5 25 6 3 0 4 -34 2 -76z
m-1687 -63 c26 -42 412 -173 840 -285 178 -47 180 -47 255 -35 96 15 289 53
407 79 51 12 95 21 98 21 3 0 20 -31 40 -69 31 -62 33 -70 17 -75 -134 -38
-556 -100 -873 -126 l-136 -12 -381 226 c-209 124 -388 229 -396 232 -27 10
-18 20 32 36 56 19 89 22 97 8z m-170 -79 c32 -15 763 -445 773 -455 1 -2 -9
-28 -24 -59 -34 -76 -49 -170 -36 -230 6 -28 6 -47 0 -47 -5 0 -53 16 -106 36
-193 72 -400 187 -597 333 -194 144 -241 204 -233 297 4 43 11 61 34 85 55 59
119 73 189 40z m1717 -445 c-4 -67 0 -99 17 -156 12 -40 21 -73 19 -75 -4 -4
-295 -41 -389 -50 l-66 -6 -28 46 c-15 26 -25 48 -23 49 1 2 66 11 143 20 202
24 266 36 272 53 12 30 -12 34 -111 18 -167 -27 -375 -45 -527 -45 -116 0
-149 -3 -159 -15 -22 -26 0 -35 85 -35 l84 0 36 -47 37 -48 -64 -6 c-34 -4
-111 -7 -170 -8 -107 -1 -108 -1 -114 25 -15 60 25 201 67 240 15 13 47 19
132 25 177 13 389 39 562 69 226 38 202 45 197 -54z m-487 -276 c36 -71 69
-180 55 -180 -5 0 -12 5 -15 10 -3 6 -14 10 -24 10 -12 0 -25 18 -41 58 -12
31 -40 83 -61 116 -22 32 -39 60 -39 62 0 8 67 8 78 0 8 -6 29 -40 47 -76z
m612 -6 c2 -6 -32 -16 -77 -23 -109 -17 -444 -50 -449 -45 -11 11 18 17 141
30 151 16 351 44 357 50 7 7 24 -1 28 -12z m-702 -74 c-4 -6 -75 -9 -188 -8
-174 2 -177 2 -67 8 203 11 262 11 255 0z"/>
<path d="M4363 2349 c-34 -22 -40 -33 -23 -44 14 -8 82 34 77 48 -6 19 -21 17
-54 -4z"/>
<path d="M4383 2299 c-64 -44 -92 -79 -63 -79 19 0 170 103 170 116 0 25 -34
14 -107 -37z"/>
<path d="M4435 1940 c-38 -10 -105 -26 -147 -35 -64 -14 -78 -20 -78 -36 0
-10 2 -19 4 -19 12 0 311 71 314 75 7 6 -6 35 -15 34 -4 -1 -39 -10 -78 -19z"/>
<path d="M4325 1830 c-233 -48 -297 -64 -302 -77 -3 -8 -3 -17 1 -20 3 -3 70
8 148 25 79 17 181 38 226 47 91 16 105 22 97 36 -9 13 -68 10 -170 -11z"/>
<path d="M4070 1353 c-191 -24 -224 -33 -204 -53 7 -7 78 -2 214 15 112 14
206 27 208 30 7 6 -6 35 -15 34 -4 -1 -96 -12 -203 -26z"/>
</g>
</svg>
